<svg width="174" height="95" viewBox="0 0 174 95" fill="none" xmlns="http://www.w3.org/2000/svg">
<rect width="174" height="95" rx="8" fill="#2F3136"/>
<path d="M57.448 22L57.232 20.584H54.472V13.72H52.876V22H57.448ZM63.4467 19.096C63.4467 17.212 62.2947 16.084 60.7107 16.084C59.1387 16.084 57.9867 17.224 57.9867 19.108C57.9867 20.992 59.1267 22.12 60.6987 22.12C62.2827 22.12 63.4467 20.98 63.4467 19.096ZM62.0427 19.108C62.0427 20.188 61.5867 20.944 60.6987 20.944C59.8587 20.944 59.3907 20.164 59.3907 19.096C59.3907 18.028 59.8467 17.26 60.6987 17.26C61.5627 17.26 62.0427 18.04 62.0427 19.108ZM69.5588 22V17.824C69.5588 16.744 68.9828 16.084 67.9028 16.084C67.1228 16.084 66.5108 16.504 65.9708 17.02L65.8388 16.204H64.6148V22H66.0548V18.088C66.4748 17.644 66.9308 17.356 67.3748 17.356C67.9028 17.356 68.1188 17.704 68.1188 18.208V22H69.5588ZM73.3055 17.08C74.0015 17.08 74.3615 17.584 74.4575 18.484H72.1415C72.2495 17.548 72.7295 17.08 73.3055 17.08ZM75.8495 21.412L75.6815 20.284C75.0455 20.728 74.4335 21.004 73.6895 21.004C72.8015 21.004 72.1895 20.512 72.1295 19.384H75.8495C75.8495 19.3 75.8615 19.156 75.8615 19.036C75.8615 17.392 75.0815 16.084 73.3415 16.084C71.8295 16.084 70.7015 17.224 70.7015 19.108C70.7015 21.196 71.9135 22.12 73.5335 22.12C74.4695 22.12 75.2255 21.844 75.8495 21.412ZM90.5834 13.72H88.9754L87.4754 19.564L85.7594 13.72H84.1514L82.4354 19.564L80.8874 13.636L79.2074 13.936L81.5234 22.024H83.0234L84.8594 15.976L86.6954 22.024H88.2074L90.5834 13.72ZM94.15 20.404C93.754 20.788 93.286 21.028 92.794 21.028C92.35 21.028 92.086 20.776 92.086 20.356C92.086 19.804 92.482 19.312 94.15 19.108V20.404ZM95.59 22V18.028C95.59 16.636 94.846 16.084 93.346 16.084C92.422 16.084 91.714 16.288 91.042 16.552L91.222 17.704C91.846 17.428 92.482 17.236 93.154 17.236C93.79 17.236 94.15 17.476 94.15 18.1V18.268C91.81 18.496 90.658 19.108 90.658 20.512C90.658 21.52 91.318 22.12 92.302 22.12C93.166 22.12 93.766 21.736 94.234 21.244L94.354 22H95.59ZM101.961 22V17.824C101.961 16.744 101.385 16.084 100.305 16.084C99.5252 16.084 98.9132 16.504 98.3732 17.02L98.2412 16.204H97.0172V22H98.4572V18.088C98.8772 17.644 99.3332 17.356 99.7772 17.356C100.305 17.356 100.521 17.704 100.521 18.208V22H101.961ZM104.568 19.18C104.568 17.908 105.108 17.296 105.864 17.296C106.356 17.296 106.632 17.38 106.992 17.548V20.032C106.608 20.524 106.2 20.836 105.672 20.836C105.036 20.836 104.568 20.308 104.568 19.18ZM103.116 19.264C103.116 21.22 104.088 22.12 105.3 22.12C106.104 22.12 106.668 21.688 107.076 21.196L107.196 22H108.432V13.336L106.992 13.564V16.36C106.644 16.24 106.2 16.144 105.648 16.144C104.304 16.144 103.116 17.104 103.116 19.264ZM112.2 17.08C112.896 17.08 113.256 17.584 113.352 18.484H111.036C111.144 17.548 111.624 17.08 112.2 17.08ZM114.744 21.412L114.576 20.284C113.94 20.728 113.328 21.004 112.584 21.004C111.696 21.004 111.084 20.512 111.024 19.384H114.744C114.744 19.3 114.756 19.156 114.756 19.036C114.756 17.392 113.976 16.084 112.236 16.084C110.724 16.084 109.596 17.224 109.596 19.108C109.596 21.196 110.808 22.12 112.428 22.12C113.364 22.12 114.12 21.844 114.744 21.412ZM119.412 17.512L119.184 16.084C118.284 16.132 117.708 16.696 117.324 17.368L117.144 16.204H115.92V22H117.36V18.676C117.78 18.052 118.512 17.572 119.412 17.512ZM122.477 17.08C123.173 17.08 123.533 17.584 123.629 18.484H121.313C121.421 17.548 121.901 17.08 122.477 17.08ZM125.021 21.412L124.853 20.284C124.217 20.728 123.605 21.004 122.861 21.004C121.973 21.004 121.361 20.512 121.301 19.384H125.021C125.021 19.3 125.033 19.156 125.033 19.036C125.033 17.392 124.253 16.084 122.513 16.084C121.001 16.084 119.873 17.224 119.873 19.108C119.873 21.196 121.085 22.12 122.705 22.12C123.641 22.12 124.397 21.844 125.021 21.412ZM129.689 17.512L129.461 16.084C128.561 16.132 127.985 16.696 127.601 17.368L127.421 16.204H126.197V22H127.637V18.676C128.057 18.052 128.789 17.572 129.689 17.512Z" fill="white"/>
<path d="M57.808 37.144C57.808 35.26 56.68 34.156 55.144 34.156C53.62 34.156 52.516 35.26 52.516 37.144C52.516 39.028 53.62 40.12 55.144 40.12C56.68 40.12 57.808 39.028 57.808 37.144ZM56.728 37.144C56.728 38.344 56.2 39.232 55.144 39.232C54.136 39.232 53.596 38.32 53.596 37.144C53.596 35.944 54.112 35.044 55.144 35.044C56.176 35.044 56.728 35.968 56.728 37.144ZM67.2921 40V35.836C67.2921 34.804 66.7641 34.156 65.6721 34.156C64.8681 34.156 64.1721 34.612 63.6561 35.104C63.4401 34.516 62.9841 34.156 62.1441 34.156C61.3401 34.156 60.6921 34.612 60.1521 35.104L60.0201 34.276H59.1681V40H60.2361V36.04C60.7521 35.488 61.2921 35.116 61.8561 35.116C62.4801 35.116 62.6961 35.512 62.6961 36.1V40H63.7641V36.04C64.2801 35.488 64.8201 35.116 65.3841 35.116C66.0081 35.116 66.2241 35.512 66.2241 36.1V40H67.2921ZM72.0853 36.136C72.0853 36.82 71.6293 37.36 70.8973 37.36C70.1893 37.36 69.7333 36.844 69.7333 36.184C69.7333 35.488 70.1773 34.936 70.8973 34.936C71.6053 34.936 72.0853 35.452 72.0853 36.136ZM73.7893 40.42C73.7893 39.532 73.0333 39.148 71.8213 38.932L71.4133 38.86C70.4053 38.68 70.2013 38.632 70.2013 38.428C70.2013 38.32 70.3213 38.188 70.4893 38.08C70.6333 38.104 70.7773 38.116 70.9213 38.116C72.0853 38.116 73.1173 37.372 73.1173 36.148C73.1173 35.824 73.0453 35.524 72.8893 35.26L73.9813 35.152L73.8253 34.192L72.3733 34.636C71.9773 34.324 71.4733 34.156 70.8973 34.156C69.7333 34.156 68.7013 34.912 68.7013 36.148C68.7013 36.928 69.1333 37.528 69.7693 37.852C69.3853 38.08 69.1693 38.356 69.1693 38.632C69.1693 38.848 69.2773 39.052 69.5293 39.232C68.7253 39.664 68.3173 40.12 68.3173 40.708C68.3173 41.716 69.5053 42.184 70.9933 42.184C72.4813 42.184 73.7893 41.62 73.7893 40.42ZM71.0413 41.416C69.9253 41.416 69.3373 41.08 69.3373 40.624C69.3373 40.228 69.6373 39.892 70.3093 39.556C70.5373 39.604 70.7053 39.64 71.0173 39.7L71.7013 39.82C72.5173 39.964 72.7813 40.204 72.7813 40.552C72.7813 41.032 72.1573 41.416 71.0413 41.416ZM82.3049 40V35.836C82.3049 34.804 81.7289 34.156 80.6489 34.156C79.8329 34.156 79.1609 34.612 78.6209 35.104L78.4889 34.276H77.6369V40H78.7049V36.04C79.2209 35.488 79.7969 35.116 80.3609 35.116C80.9849 35.116 81.2369 35.512 81.2369 36.1V40H82.3049ZM85.261 32.452C85.261 32.08 84.961 31.768 84.589 31.768C84.217 31.768 83.905 32.08 83.905 32.452C83.905 32.824 84.217 33.124 84.589 33.124C84.961 33.124 85.261 32.824 85.261 32.452ZM85.117 40V34.276H84.049V40H85.117ZM91.179 39.532L91.023 38.548C90.459 39.028 89.895 39.184 89.319 39.184C88.359 39.184 87.639 38.524 87.639 37.132C87.639 35.812 88.299 35.092 89.283 35.092C89.943 35.092 90.471 35.332 90.963 35.728L91.119 34.684C90.735 34.408 90.123 34.156 89.295 34.156C87.759 34.156 86.559 35.2 86.559 37.144C86.559 39.052 87.687 40.12 89.223 40.12C90.039 40.12 90.651 39.928 91.179 39.532ZM94.5631 34.996C95.3911 34.996 95.7991 35.524 95.9311 36.448H93.1711C93.3391 35.476 93.9031 34.996 94.5631 34.996ZM96.9991 39.352L96.8431 38.392C96.2191 38.884 95.6191 39.208 94.7911 39.208C93.7951 39.208 93.1711 38.584 93.1231 37.252H97.0111V37.024C97.0111 35.44 96.2431 34.156 94.5751 34.156C93.1351 34.156 92.0551 35.284 92.0551 37.12C92.0551 39.22 93.2191 40.12 94.7071 40.12C95.6551 40.12 96.3871 39.832 96.9991 39.352ZM103.188 34.996C104.016 34.996 104.424 35.524 104.556 36.448H101.796C101.964 35.476 102.528 34.996 103.188 34.996ZM105.624 39.352L105.468 38.392C104.844 38.884 104.244 39.208 103.416 39.208C102.42 39.208 101.796 38.584 101.748 37.252H105.636V37.024C105.636 35.44 104.868 34.156 103.2 34.156C101.76 34.156 100.68 35.284 100.68 37.12C100.68 39.22 101.844 40.12 103.332 40.12C104.28 40.12 105.012 39.832 105.624 39.352ZM115.116 40V35.836C115.116 34.804 114.588 34.156 113.496 34.156C112.692 34.156 111.996 34.612 111.48 35.104C111.264 34.516 110.808 34.156 109.968 34.156C109.164 34.156 108.516 34.612 107.976 35.104L107.844 34.276H106.992V40H108.06V36.04C108.576 35.488 109.116 35.116 109.68 35.116C110.304 35.116 110.52 35.512 110.52 36.1V40H111.588V36.04C112.104 35.488 112.644 35.116 113.208 35.116C113.832 35.116 114.048 35.512 114.048 36.1V40H115.116ZM121.746 37.144C121.746 35.26 120.618 34.156 119.082 34.156C117.558 34.156 116.454 35.26 116.454 37.144C116.454 39.028 117.558 40.12 119.082 40.12C120.618 40.12 121.746 39.028 121.746 37.144ZM120.666 37.144C120.666 38.344 120.138 39.232 119.082 39.232C118.074 39.232 117.534 38.32 117.534 37.144C117.534 35.944 118.05 35.044 119.082 35.044C120.114 35.044 120.666 35.968 120.666 37.144ZM124.402 32.452C124.402 32.08 124.102 31.768 123.73 31.768C123.358 31.768 123.046 32.08 123.046 32.452C123.046 32.824 123.358 33.124 123.73 33.124C124.102 33.124 124.402 32.824 124.402 32.452ZM124.258 40.72V34.276H123.19V40.624C123.19 41.056 122.962 41.248 122.59 41.248C122.422 41.248 122.218 41.236 122.086 41.2L122.242 42.148C122.326 42.172 122.554 42.184 122.734 42.184C123.646 42.184 124.258 41.752 124.258 40.72ZM127.32 32.452C127.32 32.08 127.02 31.768 126.648 31.768C126.276 31.768 125.964 32.08 125.964 32.452C125.964 32.824 126.276 33.124 126.648 33.124C127.02 33.124 127.32 32.824 127.32 32.452ZM127.176 40V34.276H126.108V40H127.176Z" fill="#DCDDDE"/>
<mask id="mask0" mask-type="alpha" maskUnits="userSpaceOnUse" x="132" y="29" width="14" height="14">
<rect x="132" y="29" width="14" height="14" fill="#C4C4C4"/>
</mask>
<g mask="url(#mask0)">
<path d="M133.541 29.7891C134.15 29.3886 135.707 29.1806 136.291 29.4304C136.894 29.6886 136.967 31.1172 137.302 31.7197C137.593 32.2433 137.536 32.8291 137.151 33.2618C137.143 33.318 137.119 33.3754 137.07 33.4304C136.472 34.1118 135.839 34.7812 135.144 35.367C134.739 35.7089 133.736 35.8249 133.183 35.6467C131.881 35.2307 132.163 32.6079 132.346 31.5822C132.449 31.0048 133.009 30.1393 133.541 29.7891Z" fill="#754A4A"/>
<path d="M133.959 30.2075C134.568 29.807 136.125 29.599 136.709 29.8489C137.313 30.1071 137.385 31.5357 137.72 32.1382C138.011 32.6618 137.955 33.2475 137.57 33.6803C137.561 33.7365 137.537 33.7938 137.488 33.8488C136.891 34.5302 136.257 35.1997 135.562 35.7855C135.157 36.1273 134.154 36.2433 133.601 36.0652C132.299 35.6492 132.043 34.0425 132.226 33.0168C132.329 32.4394 133.427 30.5578 133.959 30.2075Z" fill="#483039"/>
<mask id="mask1" mask-type="alpha" maskUnits="userSpaceOnUse" x="132" y="29" width="15" height="14">
<path d="M132.226 42.8193H146.093C146.093 41.2652 145.98 39.9729 146.072 38.2168C146.195 35.8714 145.785 33.5642 144.916 31.9909C144.074 30.4703 142.947 29.7483 141.855 29.3909C140.285 28.8768 138.643 28.9258 137.063 29.2319C135.433 29.5475 133.93 29.9085 132.989 32.8218C132.103 35.5617 132.226 42.8193 132.226 42.8193Z" fill="#E3BF7A"/>
</mask>
<g mask="url(#mask1)">
<path d="M132.226 42.8193H146.093C146.093 41.2652 145.98 39.9729 146.072 38.2168C146.195 35.8714 145.785 33.5642 144.916 31.9909C144.074 30.4703 142.947 29.7483 141.855 29.3909C140.285 28.8768 138.643 28.9258 137.063 29.2319C135.433 29.5475 133.93 29.9085 132.989 32.8218C132.103 35.5617 132.226 42.8193 132.226 42.8193Z" fill="#E3BF7A"/>
<path d="M142.788 41.4303C141.454 41.6813 140.05 41.5929 138.707 41.6072C136.438 41.6299 133.943 41.3801 132.227 39.1948C132.223 39.9061 132.237 40.6174 132.227 41.3287C133.007 41.8475 133.974 42.2025 134.787 42.444C136.401 42.9246 138.08 42.9724 139.751 42.9963C141.363 43.019 143.028 42.9736 144.554 42.3926C145.162 42.1607 145.669 41.8009 146.102 41.361V39.0322C145.106 40.1249 144.084 41.1864 142.788 41.4303Z" fill="#DA5C58"/>
<path d="M143.583 28.1154C142.033 27.4257 138.308 28.7968 136.789 28.9451C136.122 29.0108 135.369 29.0837 134.836 29.6109C134.5 29.9433 134.305 30.4035 134.075 30.8315C133.252 32.3616 131.809 33.8141 132.022 35.7256C132.042 35.9097 132.08 36.101 132.199 36.2432C132.318 36.3867 132.502 36.4572 132.684 36.5015C133.173 36.6198 133.701 36.572 134.161 36.3688C135.043 35.9814 135.35 35.6419 136.322 35.9324C137.111 36.1679 137.836 36.5433 138.561 36.9282C139.93 37.6563 141.309 38.4751 142.909 38.4835C143.586 38.4871 144.292 38.2994 144.783 37.832C145.117 37.5152 145.331 37.092 145.475 36.6557C145.914 35.324 145.719 33.8081 144.999 32.6043C144.253 31.3539 144.987 28.7406 143.583 28.1154Z" fill="#F4DD92"/>
<path d="M136.491 33.7972C136.453 33.4051 136.392 33.0979 136.161 32.7631C135.958 32.4679 135.672 32.2216 135.325 32.1188C134.558 31.8905 133.725 31.8702 133.12 32.4535C132.64 32.9162 132.422 33.6155 132.527 34.2694C132.606 34.7571 132.773 35.2784 133.174 35.5952C133.614 35.9442 134.283 36.1474 134.843 36.1235C135.546 36.0925 136.11 35.5569 136.369 34.9329C136.498 34.6209 136.568 34.2694 136.51 33.9347C136.501 33.8881 136.496 33.8426 136.491 33.7972Z" fill="white"/>
<path d="M132.881 32.9343C131.804 33.7938 132.879 35.7042 134.163 35.0251C134.582 34.8028 134.838 34.3449 134.865 33.8787C134.925 32.8686 133.634 32.3342 132.881 32.9343Z" fill="#222034"/>
<path d="M132.98 33.0345C132.621 33.3418 132.979 34.0244 133.408 33.7817C133.548 33.7028 133.634 33.539 133.644 33.3716C133.664 33.0106 133.231 32.8193 132.98 33.0345Z" fill="white"/>
<path d="M142.503 37.8881C142.562 39.3633 141.957 40.6532 140.677 41.2736C139.255 41.961 135.778 42.6041 134.414 41.9502C133.184 41.3609 134.337 40.2778 134.14 38.9712C133.999 38.0435 133.499 37.3789 133.318 36.7955C132.409 33.8918 137.202 34.7489 139.461 34.6867C139.915 34.6736 140.354 34.7465 140.777 34.921C142.016 35.4327 142.449 36.5504 142.503 37.8881Z" fill="#B88A7D"/>
<mask id="mask2" mask-type="alpha" maskUnits="userSpaceOnUse" x="134" y="36" width="7" height="6">
<path d="M138.777 40.095C139.336 39.6778 140.293 38.9378 140.14 37.8918C139.952 36.6114 138.196 36.5027 137.567 36.5027C136.629 36.5027 136.412 36.4811 135.552 36.4871C135.303 36.4883 134.257 36.4142 134.109 36.6425C133.958 36.8732 133.94 36.9701 134.44 37.7065C134.636 37.9946 134.721 38.3185 134.729 38.67C134.738 39.0215 134.715 39.3777 134.665 39.7244C134.588 40.2552 134.322 40.9222 134.82 41.2115C135.383 41.5379 136.317 41.3155 136.881 41.1302C137.553 40.9091 138.184 40.5361 138.777 40.095Z" fill="#633630"/>
</mask>
<g mask="url(#mask2)">
<path d="M138.777 40.095C139.336 39.6778 140.293 38.9378 140.14 37.8918C139.952 36.6114 138.196 36.5027 137.567 36.5027C136.629 36.5027 136.412 36.4811 135.552 36.4871C135.303 36.4883 134.257 36.4142 134.109 36.6425C133.958 36.8732 133.94 36.9701 134.44 37.7065C134.636 37.9946 134.721 38.3185 134.729 38.67C134.738 39.0215 134.715 39.3777 134.665 39.7244C134.588 40.2552 134.322 40.9222 134.82 41.2115C135.383 41.5379 136.317 41.3155 136.881 41.1302C137.553 40.9091 138.184 40.5361 138.777 40.095Z" fill="#633630"/>
<path d="M140.085 39.3549C138.952 38.5049 135.486 38.2754 134.538 39.6824C134.304 40.0303 134.279 40.5061 134.49 40.8492C134.491 40.885 134.496 40.9221 134.506 40.9615C134.919 42.5993 138.2 40.8097 139.022 40.3686C139.354 40.1905 140.344 39.5485 140.085 39.3549Z" fill="#D04A69"/>
</g>
<path d="M141.632 33.7972C141.594 33.4051 141.533 33.0979 141.302 32.7631C141.099 32.4679 140.813 32.2216 140.465 32.1188C139.699 31.8905 138.866 31.8702 138.261 32.4535C137.78 32.9162 137.563 33.6155 137.668 34.2694C137.747 34.7571 137.914 35.2784 138.315 35.5952C138.754 35.9442 139.424 36.1474 139.983 36.1235C140.686 36.0925 141.251 35.5569 141.51 34.9329C141.639 34.6209 141.708 34.2694 141.651 33.9347C141.641 33.8881 141.637 33.8426 141.632 33.7972Z" fill="white"/>
<path d="M138.027 32.9343C136.949 33.7938 138.024 35.7042 139.308 35.0251C139.728 34.8028 139.983 34.3449 140.011 33.8787C140.071 32.8686 138.78 32.3342 138.027 32.9343Z" fill="#222034"/>
<path d="M138.256 33.0345C137.896 33.3418 138.255 34.0244 138.684 33.7817C138.824 33.7028 138.91 33.539 138.92 33.3716C138.94 33.0106 138.507 32.8193 138.256 33.0345Z" fill="white"/>
<path d="M139.409 30.8933C138.98 30.6924 138.516 30.6936 138.095 30.9208C137.934 31.008 137.895 31.1575 137.93 31.2937C137.937 31.4456 138.033 31.6105 138.189 31.632C138.576 31.687 138.95 31.6715 139.323 31.5484C139.589 31.4599 139.706 31.0331 139.409 30.8933Z" fill="#B88A7D"/>
<path d="M135.583 30.8933C135.154 30.6924 134.69 30.6936 134.269 30.9208C134.108 31.008 134.069 31.1575 134.104 31.2937C134.111 31.4456 134.207 31.6105 134.363 31.632C134.75 31.687 135.124 31.6715 135.497 31.5484C135.763 31.4599 135.88 31.0331 135.583 30.8933Z" fill="#B88A7D"/>
<path d="M136.334 34.6056C135.913 34.5817 134.856 34.5841 134.652 35.0623C134.428 35.5871 135.15 36.0306 135.579 36.0987C135.619 36.1047 135.662 36.1095 135.706 36.1119C135.738 36.2099 135.748 36.2912 135.738 36.4048C135.729 36.5267 135.871 36.6367 135.988 36.6259C136.131 36.6128 136.206 36.5124 136.215 36.3821C136.223 36.2816 136.213 36.18 136.192 36.0808C136.349 36.0569 136.504 36.0222 136.628 35.9828C136.924 35.8895 137.266 35.727 137.369 35.4149C137.569 34.8101 136.759 34.6307 136.334 34.6056Z" fill="#483039"/>
<path d="M137.595 38.4655C136.799 38.5229 136.312 39.1003 135.873 39.7052C135.648 40.0172 136.165 40.3161 136.39 40.0064C136.688 39.5964 137.044 39.1039 137.595 39.0632C137.976 39.0357 137.98 38.438 137.595 38.4655Z" fill="#9C3D53"/>
</g>
<path d="M146.699 32.6501C146.518 31.7439 146.099 30.8593 145.46 30.1863C144.717 29.4032 143.761 29.3626 142.72 29.3506C142.349 29.3471 141.951 29.3722 141.656 29.5969C141.207 29.9376 141.174 30.6525 141.488 31.1199C142.465 32.5676 143.591 34.1611 145.314 34.7815C145.732 34.9322 146.46 35.1043 146.704 34.5448C146.931 34.0188 146.808 33.194 146.699 32.6501Z" fill="#483039"/>
<path d="M145.744 30.7409C145.595 30.3584 145.249 29.9866 144.723 29.7021C144.111 29.3722 143.323 29.3542 142.466 29.3494C142.16 29.3483 141.832 29.359 141.589 29.4535C141.219 29.5969 141.17 30.4289 141.43 30.6262C142.234 31.2371 143.182 31.3781 144.601 31.6399C144.947 31.7033 145.546 31.7762 145.746 31.5395C145.936 31.3183 145.834 30.9705 145.744 30.7409Z" fill="#754A4A"/>
</g>
<circle cx="27" cy="27" r="17" fill="#EDF6F3"/>
<g clip-path="url(#clip0)">
<path d="M27.0002 38.0002C25.7001 38.0002 24.478 37.5188 23.5588 36.645C23.5419 36.629 23.5419 36.6032 23.5588 36.5872C23.5756 36.5712 23.6028 36.5712 23.6196 36.5872C24.5224 37.4454 25.7229 37.9181 26.9998 37.9181C28.2766 37.9181 29.4771 37.4454 30.38 36.5872C30.3968 36.5712 30.4239 36.5712 30.4408 36.5872C30.4576 36.6032 30.4576 36.629 30.4408 36.645C29.5224 37.5192 28.2999 38.0002 27.0002 38.0002Z" fill="#333333"/>
<path d="M25.6404 22.9031L24.9157 29.1395C24.0513 29.2986 23.3982 30.0215 23.3982 30.8899C23.3982 31.8748 24.2385 32.6735 25.2746 32.6735C25.323 32.6735 25.3704 32.671 25.4179 32.6677C25.7509 33.1643 26.3349 33.4935 27.0001 33.4935C27.6653 33.4935 28.2494 33.1643 28.5828 32.6677C28.6298 32.671 28.6777 32.6735 28.7256 32.6735C29.7617 32.6735 30.602 31.8748 30.602 30.8899C30.602 30.0215 29.9489 29.2986 29.0845 29.1395L28.3602 22.9031" fill="#333333"/>
<path d="M27 33.5346C26.35 33.5346 25.7521 33.2271 25.3953 32.7105C25.3509 32.7133 25.3121 32.7146 25.2746 32.7146C24.216 32.7146 23.355 31.8962 23.355 30.89C23.355 30.0281 23.993 29.2823 24.8764 29.1051L25.5977 22.8986C25.6002 22.8761 25.6218 22.8601 25.6451 22.8626C25.6688 22.865 25.6857 22.8855 25.6831 22.9077L24.9584 29.1437C24.9562 29.1617 24.9424 29.1761 24.9239 29.1793C24.0646 29.3376 23.4413 30.0568 23.4413 30.8895C23.4413 31.8502 24.2634 32.6321 25.2746 32.6321C25.3164 32.6321 25.3608 32.6305 25.4143 32.6264C25.4303 32.6252 25.4454 32.6326 25.454 32.6453C25.7931 33.1504 26.3711 33.4522 27 33.4522C27.629 33.4522 28.207 33.1504 28.5461 32.6453C28.5547 32.6326 28.5698 32.6252 28.5857 32.6264C28.6392 32.6301 28.6837 32.6321 28.7255 32.6321C29.7362 32.6321 30.5588 31.8506 30.5588 30.8895C30.5588 30.0568 29.9351 29.3372 29.0758 29.1793C29.0572 29.1761 29.043 29.1613 29.0413 29.1437L28.3166 22.9077C28.314 22.8851 28.3308 22.865 28.3545 22.8626C28.3787 22.8601 28.3994 22.8765 28.402 22.8986L29.1228 29.1051C30.0062 29.2823 30.6442 30.0281 30.6442 30.89C30.6442 31.8962 29.7832 32.7146 28.7246 32.7146C28.6875 32.7146 28.6487 32.7133 28.6039 32.7105C28.248 33.2271 27.6501 33.5346 27 33.5346Z" fill="#333333"/>
<path d="M25.6404 22.083L24.9157 28.3194C24.0513 28.4785 23.3982 29.2018 23.3982 30.0698C23.3982 31.0547 24.2385 31.8534 25.2746 31.8534C25.323 31.8534 25.3704 31.851 25.4179 31.8477C25.7509 32.3442 26.3349 32.6735 27.0001 32.6735C27.6653 32.6735 28.2494 32.3442 28.5828 31.8477C28.6298 31.851 28.6777 31.8534 28.7256 31.8534C29.7617 31.8534 30.602 31.0547 30.602 30.0698C30.602 29.2014 29.9489 28.4785 29.0845 28.3194L28.3602 22.083" fill="#7FD6C7"/>
<path d="M27 32.7145C26.35 32.7145 25.7521 32.407 25.3953 31.8904C25.3509 31.8933 25.3121 31.8945 25.2746 31.8945C24.216 31.8945 23.355 31.0761 23.355 30.0699C23.355 29.208 23.993 28.4622 24.8764 28.2851L25.5977 22.0786C25.6002 22.056 25.6218 22.04 25.6451 22.0425C25.6688 22.0449 25.6857 22.0654 25.6831 22.0876L24.9584 28.3236C24.9562 28.3417 24.9424 28.356 24.9239 28.3593C24.0646 28.5176 23.4413 29.2367 23.4413 30.0695C23.4413 31.0302 24.2634 31.8121 25.2746 31.8121C25.3164 31.8121 25.3608 31.8104 25.4143 31.8063C25.4303 31.8051 25.4454 31.8125 25.454 31.8252C25.7931 32.3303 26.3711 32.6321 27 32.6321C27.629 32.6321 28.207 32.3303 28.5461 31.8252C28.5547 31.8125 28.5698 31.8051 28.5857 31.8063C28.6392 31.81 28.6837 31.8121 28.7255 31.8121C29.7362 31.8121 30.5588 31.0306 30.5588 30.0695C30.5588 29.2367 29.9351 28.5171 29.0758 28.3593C29.0572 28.356 29.043 28.3412 29.0413 28.3236L28.5379 23.9893C28.5353 23.9667 28.5521 23.9466 28.5758 23.9442C28.6 23.9417 28.6207 23.9581 28.6233 23.9802L29.1232 28.2851C30.0067 28.4622 30.6447 29.208 30.6447 30.0699C30.6447 31.0761 29.7837 31.8945 28.7251 31.8945C28.688 31.8945 28.6492 31.8933 28.6043 31.8904C28.248 32.407 27.6501 32.7145 27 32.7145ZM28.4857 23.211C28.4641 23.211 28.4451 23.1955 28.443 23.1746L28.3166 22.088C28.314 22.0654 28.3308 22.0454 28.3545 22.0429C28.3787 22.0404 28.3994 22.0568 28.402 22.079L28.5284 23.1655C28.531 23.1881 28.5137 23.2082 28.4904 23.2106C28.4887 23.211 28.4874 23.211 28.4857 23.211Z" fill="#333333"/>
<path d="M26.5081 28.758C26.5068 28.758 26.5059 28.758 26.5046 28.758C26.4809 28.7564 26.4632 28.7367 26.465 28.7141L26.5253 27.9761C26.5271 27.9535 26.5478 27.9367 26.5715 27.9383C26.5952 27.94 26.6129 27.9597 26.6112 27.9822L26.5508 28.7203C26.5495 28.7416 26.5305 28.758 26.5081 28.758Z" fill="#333333"/>
<path d="M26.9999 28.7581C26.9762 28.7581 26.9568 28.7396 26.9568 28.7171V27.979C26.9568 27.9564 26.9762 27.938 26.9999 27.938C27.0236 27.938 27.0431 27.9564 27.0431 27.979V28.7171C27.0431 28.7396 27.0236 28.7581 26.9999 28.7581Z" fill="#333333"/>
<path d="M27.4914 28.7583C27.469 28.7583 27.45 28.7419 27.4483 28.7206L27.4448 28.6775C27.4431 28.6549 27.4608 28.6353 27.4845 28.6336C27.5086 28.632 27.5289 28.6488 27.5306 28.6713L27.5341 28.7144C27.5358 28.737 27.5181 28.7566 27.4944 28.7583C27.4935 28.7579 27.4927 28.7583 27.4914 28.7583ZM27.4547 28.3064C27.4323 28.3064 27.4133 28.29 27.4116 28.2687L27.3883 27.9825C27.3866 27.96 27.4043 27.9403 27.428 27.9386C27.4521 27.9366 27.4724 27.9538 27.4741 27.9764L27.4974 28.2626C27.4991 28.2851 27.4815 28.3048 27.4577 28.3064C27.4569 28.3064 27.4556 28.3064 27.4547 28.3064Z" fill="#333333"/>
<path d="M20.562 28.2146C20.562 28.7735 19.6786 28.8161 18.5885 28.8161C17.4989 28.8161 16.615 28.7731 16.615 28.2146C16.615 27.6558 17.4984 27.2031 18.5885 27.2031C19.6786 27.2027 20.562 27.6558 20.562 28.2146Z" fill="#7FD6C7"/>
<path d="M37.3852 28.2146C37.3852 28.7735 36.5018 28.8161 35.4117 28.8161C34.3217 28.8161 33.4382 28.7731 33.4382 28.2146C33.4382 27.6558 34.3217 27.2031 35.4117 27.2031C36.5018 27.2031 37.3852 27.6558 37.3852 28.2146Z" fill="#7FD6C7"/>
<path d="M22.7044 23.2398C22.7044 23.2398 20.9893 25.2899 18.8735 25.2899C16.7576 25.2899 15.0425 23.2398 15.0425 23.2398C15.0425 23.2398 16.7576 21.1897 18.8735 21.1897C20.9893 21.1897 22.7044 23.2398 22.7044 23.2398Z" fill="white"/>
<path d="M18.874 25.3308C16.762 25.3308 15.0266 23.286 15.0094 23.2651C14.9969 23.2504 14.9969 23.2291 15.0094 23.2139C15.0266 23.1934 16.762 21.1482 18.874 21.1482C20.986 21.1482 22.7214 23.193 22.7386 23.2139C22.7511 23.2286 22.7511 23.25 22.7386 23.2651C22.7209 23.286 20.986 25.3308 18.874 25.3308ZM15.0987 23.2397C15.3057 23.4751 16.9311 25.2488 18.8736 25.2488C20.816 25.2488 22.4414 23.4751 22.6485 23.2397C22.4414 23.0044 20.816 21.2306 18.8736 21.2306C16.9303 21.2306 15.3057 23.0044 15.0987 23.2397Z" fill="#333333"/>
<path d="M21.0307 23.2398C21.0307 24.3719 20.0649 25.2899 18.8739 25.2899C17.6829 25.2899 16.717 24.3719 16.717 23.2398C16.717 22.1077 17.6829 21.1897 18.8739 21.1897C20.0649 21.1897 21.0307 22.1077 21.0307 23.2398Z" fill="#333333"/>
<path d="M18.8738 25.3309C17.6608 25.3309 16.6738 24.3928 16.6738 23.2398C16.6738 22.0868 17.6608 21.1487 18.8738 21.1487C20.0868 21.1487 21.0738 22.0868 21.0738 23.2398C21.0738 24.3928 20.0868 25.3309 18.8738 25.3309ZM18.8738 21.2307C17.7082 21.2307 16.7601 22.1319 16.7601 23.2398C16.7601 24.3477 17.7082 25.2489 18.8738 25.2489C20.0394 25.2489 20.9875 24.3477 20.9875 23.2398C20.9875 22.1319 20.0389 21.2307 18.8738 21.2307Z" fill="#333333"/>
<path d="M20.168 23.2398C20.168 23.9192 19.5887 24.4699 18.8739 24.4699C18.1592 24.4699 17.5798 23.9192 17.5798 23.2398C17.5798 22.5604 18.1592 22.0098 18.8739 22.0098C19.5883 22.0098 20.168 22.5608 20.168 23.2398Z" fill="white"/>
<path d="M18.8739 24.5109C18.1367 24.5109 17.5366 23.9406 17.5366 23.2398C17.5366 22.5391 18.1367 21.9688 18.8739 21.9688C19.6111 21.9688 20.2111 22.5391 20.2111 23.2398C20.2111 23.9406 19.6111 24.5109 18.8739 24.5109ZM18.8739 22.0508C18.1841 22.0508 17.6229 22.5842 17.6229 23.2398C17.6229 23.8955 18.1841 24.4289 18.8739 24.4289C19.5636 24.4289 20.1248 23.8955 20.1248 23.2398C20.1248 22.5842 19.5636 22.0508 18.8739 22.0508Z" fill="#333333"/>
<path d="M18.8737 26.1917C18.85 26.1917 18.8306 26.1733 18.8306 26.1507C18.8306 26.1282 18.85 26.1097 18.8737 26.1097C20.9447 26.1097 22.6538 24.0953 22.6706 24.0752C22.6853 24.0576 22.7125 24.0547 22.7314 24.0686C22.75 24.0826 22.753 24.1084 22.7383 24.1265C22.7207 24.147 20.9857 26.1917 18.8737 26.1917Z" fill="#333333"/>
<path d="M31.2957 23.2398C31.2957 23.2398 33.0108 25.2899 35.1266 25.2899C37.2425 25.2899 38.9576 23.2398 38.9576 23.2398C38.9576 23.2398 37.2425 21.1897 35.1266 21.1897C33.0108 21.1897 31.2957 23.2398 31.2957 23.2398Z" fill="white"/>
<path d="M35.1257 25.3308C33.0137 25.3308 31.2783 23.286 31.2611 23.2651C31.2486 23.2504 31.2486 23.2291 31.2611 23.2139C31.2783 23.1934 33.0137 21.1482 35.1257 21.1482C37.2377 21.1482 38.9731 23.193 38.9904 23.2139C39.0029 23.2286 39.0029 23.25 38.9904 23.2651C38.9731 23.286 37.2377 25.3308 35.1257 25.3308ZM31.3508 23.2397C31.5579 23.4751 33.1833 25.2488 35.1257 25.2488C37.0682 25.2488 38.6936 23.4751 38.9007 23.2397C38.6936 23.0044 37.0682 21.2306 35.1257 21.2306C33.1833 21.2306 31.5579 23.0044 31.3508 23.2397Z" fill="#333333"/>
<path d="M32.9697 23.2398C32.9697 24.3719 33.9356 25.2899 35.1266 25.2899C36.3176 25.2899 37.2834 24.3719 37.2834 23.2398C37.2834 22.1077 36.3176 21.1897 35.1266 21.1897C33.9356 21.1897 32.9697 22.1077 32.9697 23.2398Z" fill="#333333"/>
<path d="M35.1263 25.3309C33.9132 25.3309 32.9263 24.3928 32.9263 23.2398C32.9263 22.0868 33.9132 21.1487 35.1263 21.1487C36.3393 21.1487 37.3263 22.0868 37.3263 23.2398C37.3263 24.3928 36.3393 25.3309 35.1263 25.3309ZM35.1263 21.2307C33.9607 21.2307 33.0125 22.1319 33.0125 23.2398C33.0125 24.3477 33.9607 25.2489 35.1263 25.2489C36.2918 25.2489 37.24 24.3477 37.24 23.2398C37.24 22.1319 36.2918 21.2307 35.1263 21.2307Z" fill="#333333"/>
<path d="M33.8323 23.2398C33.8323 23.9192 34.4116 24.4699 35.1264 24.4699C35.8412 24.4699 36.4205 23.9192 36.4205 23.2398C36.4205 22.5604 35.8412 22.0098 35.1264 22.0098C34.4116 22.0098 33.8323 22.5608 33.8323 23.2398Z" fill="white"/>
<path d="M35.1265 24.5109C34.3893 24.5109 33.7893 23.9406 33.7893 23.2398C33.7893 22.5391 34.3893 21.9688 35.1265 21.9688C35.8638 21.9688 36.4638 22.5391 36.4638 23.2398C36.4638 23.9406 35.8638 24.5109 35.1265 24.5109ZM35.1265 22.0508C34.4368 22.0508 33.8756 22.5842 33.8756 23.2398C33.8756 23.8955 34.4368 24.4289 35.1265 24.4289C35.8163 24.4289 36.3775 23.8955 36.3775 23.2398C36.3775 22.5842 35.8163 22.0508 35.1265 22.0508Z" fill="#333333"/>
<path d="M35.1263 26.1919C34.915 26.1919 34.698 26.1714 34.4814 26.1308C34.4581 26.1263 34.4426 26.105 34.4474 26.0828C34.4521 26.0607 34.4745 26.0459 34.4978 26.0504C34.7092 26.0898 34.9206 26.1099 35.1263 26.1099C35.1501 26.1099 35.1695 26.1284 35.1695 26.1509C35.1695 26.1735 35.1501 26.1919 35.1263 26.1919ZM34.0721 26.0295C34.0678 26.0295 34.0634 26.0287 34.0591 26.0275C32.4622 25.5445 31.2738 24.1406 31.2617 24.1262C31.2471 24.1086 31.2501 24.0827 31.2686 24.0684C31.2872 24.0545 31.3143 24.0573 31.329 24.075C31.3407 24.0889 32.5135 25.4735 34.085 25.9492C34.1079 25.9561 34.1204 25.9791 34.1131 26.0008C34.1074 26.0185 34.0902 26.0295 34.0721 26.0295Z" fill="#333333"/>
<path d="M22.6149 20.561C22.6037 20.561 22.5929 20.5569 22.5843 20.5491C22.2444 20.226 21.8618 19.9492 21.4472 19.7266C21.4265 19.7155 21.4192 19.6905 21.4308 19.6708C21.4425 19.6511 21.4688 19.6441 21.4895 19.6552C21.911 19.8815 22.2996 20.1624 22.6451 20.4908C22.662 20.5068 22.662 20.5327 22.6451 20.5487C22.6369 20.5573 22.6262 20.561 22.6149 20.561ZM15.1018 20.561C15.0906 20.561 15.0798 20.5569 15.0712 20.5491C15.0544 20.5331 15.0544 20.5072 15.0712 20.4912C16.0828 19.5297 17.4278 19 18.8586 19C19.6299 19 20.4063 19.1615 21.103 19.467C21.1246 19.4764 21.1341 19.501 21.1241 19.5215C21.1142 19.542 21.0883 19.5511 21.0668 19.5416C20.3809 19.2411 19.6174 19.082 18.8586 19.082C17.4511 19.082 16.1276 19.6031 15.1325 20.5491C15.1238 20.5573 15.1131 20.561 15.1018 20.561Z" fill="#333333"/>
<path d="M38.8977 20.561C38.8865 20.561 38.8757 20.5569 38.8671 20.5491C37.8719 19.6031 36.5489 19.082 35.1414 19.082C33.7338 19.082 32.4104 19.6031 31.4152 20.5491C31.3984 20.5651 31.3712 20.5651 31.3544 20.5491C31.3376 20.5331 31.3376 20.5072 31.3544 20.4912C32.3655 19.5297 33.7105 19 35.1414 19C36.5718 19 37.9168 19.5297 38.9283 20.4912C38.9452 20.5072 38.9452 20.5331 38.9283 20.5491C38.9201 20.5573 38.9089 20.561 38.8977 20.561Z" fill="#333333"/>
</g>
<path d="M55.96 60.72V54.72H54.376V60.516C54.376 61.404 53.932 61.74 53.2 61.74C52.768 61.74 52.516 61.692 52.252 61.62L52.468 63C52.684 63.036 53.044 63.084 53.416 63.084C54.904 63.084 55.96 62.4 55.96 60.72ZM59.8055 58.08C60.5015 58.08 60.8615 58.584 60.9575 59.484H58.6415C58.7495 58.548 59.2295 58.08 59.8055 58.08ZM62.3495 62.412L62.1815 61.284C61.5455 61.728 60.9335 62.004 60.1895 62.004C59.3015 62.004 58.6895 61.512 58.6295 60.384H62.3495C62.3495 60.3 62.3615 60.156 62.3615 60.036C62.3615 58.392 61.5815 57.084 59.8415 57.084C58.3295 57.084 57.2015 58.224 57.2015 60.108C57.2015 62.196 58.4135 63.12 60.0335 63.12C60.9695 63.12 61.7255 62.844 62.3495 62.412ZM67.821 61.296C67.821 60.204 67.233 59.796 65.733 59.412C64.869 59.184 64.653 59.004 64.653 58.692C64.653 58.38 64.917 58.164 65.457 58.164C66.033 58.164 66.717 58.368 67.293 58.692L67.485 57.492C66.909 57.24 66.213 57.084 65.457 57.084C64.113 57.084 63.321 57.792 63.321 58.8C63.321 59.856 63.909 60.264 65.313 60.624C66.237 60.852 66.489 61.02 66.489 61.428C66.489 61.812 66.153 62.04 65.529 62.04C64.809 62.04 64.041 61.764 63.417 61.356L63.225 62.556C63.777 62.856 64.641 63.12 65.481 63.12C67.005 63.12 67.821 62.436 67.821 61.296ZM68.9385 57.204V61.368C68.9385 62.46 69.5025 63.12 70.5945 63.12C71.3625 63.12 71.9865 62.7 72.5265 62.184L72.6585 63H73.8825V57.204H72.4425V61.116C72.0225 61.548 71.5665 61.836 71.1225 61.836C70.5945 61.836 70.3785 61.5 70.3785 60.996V57.204H68.9385ZM78.8412 58.512L78.6132 57.084C77.7132 57.132 77.1372 57.696 76.7532 58.368L76.5732 57.204H75.3492V63H76.7892V59.676C77.2092 59.052 77.9412 58.572 78.8412 58.512ZM83.3074 63.084L84.8434 62.856L82.5754 59.82L84.7114 57.204H83.0794L81.1954 59.604V54.336L79.7554 54.564V63H81.1954V60.12L83.3074 63.084ZM88.7359 61.404C88.3399 61.788 87.8719 62.028 87.3799 62.028C86.9359 62.028 86.6719 61.776 86.6719 61.356C86.6719 60.804 87.0679 60.312 88.7359 60.108V61.404ZM90.1759 63V59.028C90.1759 57.636 89.4319 57.084 87.9319 57.084C87.0079 57.084 86.2999 57.288 85.6279 57.552L85.8079 58.704C86.4319 58.428 87.0679 58.236 87.7399 58.236C88.3759 58.236 88.7359 58.476 88.7359 59.1V59.268C86.3959 59.496 85.2439 60.108 85.2439 61.512C85.2439 62.52 85.9039 63.12 86.8879 63.12C87.7519 63.12 88.3519 62.736 88.8199 62.244L88.9399 63H90.1759Z" fill="white"/>
<path d="M55.588 81.024L55.444 80.112C55.312 80.136 55.144 80.148 54.952 80.148C54.352 80.148 54.16 79.86 54.16 79.392V76.176H55.54L55.396 75.276H54.16V73.212L53.116 73.368V75.276H52.252V76.176H53.116V79.584C53.116 80.736 53.776 81.096 54.784 81.096C55.156 81.096 55.408 81.06 55.588 81.024ZM61.551 81V76.836C61.551 75.804 60.975 75.156 59.895 75.156C59.079 75.156 58.419 75.612 57.951 76.032V72.336L56.883 72.504V81H57.951V77.04C58.467 76.488 59.043 76.116 59.607 76.116C60.231 76.116 60.483 76.512 60.483 77.1V81H61.551ZM66.4751 79.428C65.9951 79.92 65.3951 80.232 64.7711 80.232C64.2311 80.232 63.9191 79.932 63.9191 79.464C63.9191 78.876 64.3631 78.3 66.4751 78.096V79.428ZM67.5431 81V76.992C67.5431 75.72 66.8711 75.156 65.4791 75.156C64.5911 75.156 63.9431 75.36 63.2591 75.636L63.4031 76.56C64.0271 76.284 64.6871 76.068 65.3831 76.068C66.0431 76.068 66.4751 76.32 66.4751 77.04V77.28C64.0871 77.532 62.8631 78.096 62.8631 79.524C62.8631 80.496 63.5111 81.12 64.5431 81.12C65.4791 81.12 66.1031 80.7 66.5591 80.232L66.6791 81H67.5431ZM73.8674 81V76.836C73.8674 75.804 73.2914 75.156 72.2114 75.156C71.3954 75.156 70.7234 75.612 70.1834 76.104L70.0514 75.276H69.1994V81H70.2674V77.04C70.7834 76.488 71.3594 76.116 71.9234 76.116C72.5474 76.116 72.7994 76.512 72.7994 77.1V81H73.8674ZM79.1395 81.084L80.3035 80.904L77.6875 77.808L80.0995 75.276H78.8155L76.5955 77.676V72.336L75.5275 72.504V81H76.5955V78L79.1395 81.084ZM85.1954 79.404C85.1954 78.312 84.5594 77.904 83.1434 77.544C82.2434 77.316 81.9554 77.1 81.9554 76.716C81.9554 76.308 82.2914 76.056 82.9394 76.056C83.5394 76.056 84.1754 76.26 84.6794 76.548L84.8474 75.54C84.3074 75.3 83.6714 75.156 82.9634 75.156C81.7154 75.156 80.9474 75.828 80.9474 76.74C80.9474 77.76 81.4874 78.168 82.8314 78.504C83.8634 78.756 84.1874 78.948 84.1874 79.476C84.1874 79.956 83.7554 80.232 83.0234 80.232C82.2434 80.232 81.5474 79.944 81.0074 79.572L80.8514 80.58C81.3434 80.856 82.1834 81.12 82.9394 81.12C84.4154 81.12 85.1954 80.448 85.1954 79.404ZM87.948 72.72H86.664L86.952 78.54L87.648 78.384L87.948 72.72ZM87.9 81V79.572H86.7V81H87.9ZM91.2175 72.72H89.9335L90.2215 78.54L90.9175 78.384L91.2175 72.72ZM91.1695 81V79.572H89.9695V81H91.1695ZM96.9798 73.452C96.9798 73.08 96.6798 72.768 96.3078 72.768C95.9358 72.768 95.6238 73.08 95.6238 73.452C95.6238 73.824 95.9358 74.124 96.3078 74.124C96.6798 74.124 96.9798 73.824 96.9798 73.452ZM96.8358 81V75.276H95.7678V81H96.8358ZM109.362 81V76.836C109.362 75.804 108.834 75.156 107.742 75.156C106.938 75.156 106.242 75.612 105.726 76.104C105.51 75.516 105.054 75.156 104.214 75.156C103.41 75.156 102.762 75.612 102.222 76.104L102.09 75.276H101.238V81H102.306V77.04C102.822 76.488 103.362 76.116 103.926 76.116C104.55 76.116 104.766 76.512 104.766 77.1V81H105.834V77.04C106.35 76.488 106.89 76.116 107.454 76.116C108.078 76.116 108.294 76.512 108.294 77.1V81H109.362ZM114.288 79.428C113.808 79.92 113.208 80.232 112.584 80.232C112.044 80.232 111.732 79.932 111.732 79.464C111.732 78.876 112.176 78.3 114.288 78.096V79.428ZM115.356 81V76.992C115.356 75.72 114.684 75.156 113.292 75.156C112.404 75.156 111.756 75.36 111.072 75.636L111.216 76.56C111.84 76.284 112.5 76.068 113.196 76.068C113.856 76.068 114.288 76.32 114.288 77.04V77.28C111.9 77.532 110.676 78.096 110.676 79.524C110.676 80.496 111.324 81.12 112.356 81.12C113.292 81.12 113.916 80.7 114.372 80.232L114.492 81H115.356ZM117.768 78.252C117.768 76.836 118.416 76.104 119.316 76.104C119.928 76.104 120.276 76.2 120.72 76.428V79.164C120.264 79.776 119.76 80.172 119.1 80.172C118.332 80.172 117.768 79.512 117.768 78.252ZM116.688 78.3C116.688 80.22 117.708 81.12 118.944 81.12C119.784 81.12 120.372 80.688 120.804 80.172L120.936 81H121.788V72.336L120.72 72.504V75.456C120.36 75.312 119.844 75.204 119.28 75.204C117.888 75.204 116.688 76.212 116.688 78.3ZM125.653 75.996C126.481 75.996 126.889 76.524 127.021 77.448H124.261C124.429 76.476 124.993 75.996 125.653 75.996ZM128.089 80.352L127.933 79.392C127.309 79.884 126.709 80.208 125.881 80.208C124.885 80.208 124.261 79.584 124.213 78.252H128.101V78.024C128.101 76.44 127.333 75.156 125.665 75.156C124.225 75.156 123.145 76.284 123.145 78.12C123.145 80.22 124.309 81.12 125.797 81.12C126.745 81.12 127.477 80.832 128.089 80.352ZM133.39 73.452C133.39 73.08 133.09 72.768 132.718 72.768C132.346 72.768 132.034 73.08 132.034 73.452C132.034 73.824 132.346 74.124 132.718 74.124C133.09 74.124 133.39 73.824 133.39 73.452ZM133.246 81V75.276H132.178V81H133.246ZM137.76 81.024L137.616 80.112C137.484 80.136 137.316 80.148 137.124 80.148C136.524 80.148 136.332 79.86 136.332 79.392V76.176H137.712L137.568 75.276H136.332V73.212L135.288 73.368V75.276H134.424V76.176H135.288V79.584C135.288 80.736 135.948 81.096 136.956 81.096C137.328 81.096 137.58 81.06 137.76 81.024ZM140.495 72.72H139.211L139.499 78.54L140.195 78.384L140.495 72.72ZM140.447 81V79.572H139.247V81H140.447Z" fill="#DCDDDE"/>
<g clip-path="url(#clip1)">
<path d="M151.046 74.1319H152.494C152.607 74.1319 152.711 74.0716 152.769 73.9724L154.119 71.6069C154.592 70.781 155.802 70.8198 156.21 71.6802C157.914 75.2683 159.857 82.9998 156.454 82.9998H152.101V82.9955L146.18 82.9998C145.795 82.9998 145.442 82.7357 145.256 82.3982C144.361 80.7799 144.214 78.6699 144.981 77.0042C145.191 76.547 146.402 74.5298 146.461 74.368L148.003 71.4635C148.337 70.8338 149.244 70.8489 149.557 71.4893L150.762 73.954C150.815 74.0629 150.925 74.1319 151.046 74.1319Z" fill="#FFFBF0"/>
<path d="M156.077 78.8953C154.217 78.8953 154.214 81.7848 156.077 81.7848C157.936 81.7848 157.939 78.8953 156.077 78.8953Z" fill="#FFBEB3"/>
<path d="M145.727 78.7756C143.866 78.7756 143.863 81.6673 145.727 81.6673C147.588 81.6673 147.591 78.7756 145.727 78.7756Z" fill="#FFBEB3"/>
<path d="M147.831 80.2969C146.572 80.2139 146.469 82.0575 146.434 82.9999H147.073C147.1 82.3745 147.231 80.5028 148.061 81.0786C148.612 81.4613 148.613 82.3734 148.595 82.9999H149.233C149.249 82.05 149.057 80.3778 147.831 80.2969Z" fill="#CCB2CE"/>
<path d="M153.654 80.2969C152.394 80.2139 152.291 82.0575 152.256 82.9999H152.896C152.923 82.3745 153.053 80.5028 153.883 81.0786C154.434 81.4613 154.435 82.3734 154.417 82.9999H155.055C155.071 82.05 154.88 80.3778 153.654 80.2969Z" fill="#CCB2CE"/>
<path d="M151.752 78.5007C151.718 78.8327 151.392 79.1648 151.215 78.7239C151.119 78.4845 150.758 78.4166 150.602 78.6398C150.474 78.8252 150.259 79.2177 149.925 78.9017C149.815 78.7972 149.77 78.5449 149.727 78.409C149.59 77.9702 148.929 78.2441 149.066 78.6807C149.209 79.14 149.442 79.6284 149.955 79.7524C150.304 79.8365 150.593 79.6964 150.829 79.4786C151.012 79.6867 151.26 79.788 151.617 79.6813C152.1 79.5368 152.41 79.0947 152.459 78.6063C152.504 78.1492 151.797 78.0424 151.752 78.5007Z" fill="#745A77"/>
<path d="M155.502 77.9508C155.462 77.4473 154.685 77.5562 154.725 78.0575C154.747 78.3325 154.716 78.9772 154.29 78.9481C153.893 78.9201 153.929 78.2117 153.913 77.9562C153.888 77.5389 153.193 77.5357 153.172 77.9573C153.134 78.7044 153.375 79.7492 154.324 79.7255C155.256 79.7028 155.563 78.7271 155.502 77.9508Z" fill="#745A77"/>
<path d="M148.57 77.9508C148.53 77.4473 147.754 77.5562 147.794 78.0575C147.815 78.3325 147.784 78.9772 147.358 78.9481C146.962 78.9201 146.997 78.2117 146.982 77.9562C146.956 77.5389 146.262 77.5357 146.24 77.9573C146.203 78.7044 146.444 79.7492 147.393 79.7255C148.324 79.7028 148.632 78.7271 148.57 77.9508Z" fill="#745A77"/>
<path d="M145.81 79.9087C145.836 79.9131 145.86 79.9152 145.884 79.9152C146.088 79.9152 146.237 79.7556 146.269 79.581C146.306 79.3794 146.193 79.2133 145.992 79.1767C145.481 79.0839 144.969 78.961 144.471 78.8101C144.343 78.7713 144.215 78.7993 144.124 78.8856C144.022 78.9815 143.977 79.1325 144.011 79.2715C144.041 79.4009 144.134 79.4969 144.266 79.5368C144.771 79.6888 145.29 79.8139 145.81 79.9087Z" fill="#745A77"/>
<path d="M145.823 80.4185C145.337 80.5458 144.846 80.6805 144.367 80.8196C144.136 80.8865 144.066 81.1118 144.116 81.2897C144.159 81.4374 144.285 81.5625 144.459 81.5625C144.495 81.5625 144.531 81.5571 144.57 81.5463C145.048 81.4083 145.536 81.2735 146.02 81.1474C146.151 81.1129 146.244 81.0234 146.279 80.9005C146.316 80.7657 146.276 80.6126 146.177 80.5113C146.085 80.4175 145.956 80.384 145.823 80.4185Z" fill="#745A77"/>
<path d="M155.938 80.1051C155.971 80.1051 156.005 80.1008 156.041 80.0911C156.57 79.9531 157.103 79.7989 157.624 79.6318C157.859 79.5563 157.924 79.3245 157.865 79.1434C157.81 78.972 157.638 78.835 157.415 78.9062C156.897 79.0722 156.368 79.2253 155.844 79.3623C155.612 79.4226 155.539 79.635 155.585 79.8151C155.626 79.9714 155.755 80.1051 155.938 80.1051Z" fill="#745A77"/>
<path d="M158.183 81.0482C158.126 80.9134 158.011 80.8261 157.866 80.8077C157.262 80.7323 156.636 80.632 156.005 80.5091C155.866 80.4821 155.734 80.5274 155.642 80.632C155.547 80.7409 155.514 80.8951 155.558 81.0223C155.597 81.1355 155.693 81.2153 155.82 81.2401C156.469 81.3662 157.148 81.473 157.839 81.5603C157.856 81.5625 157.874 81.5635 157.891 81.5635C157.996 81.5635 158.085 81.5215 158.145 81.4417C158.225 81.3371 158.24 81.1829 158.183 81.0482Z" fill="#745A77"/>
</g>
<circle cx="27" cy="68" r="17" fill="#69C49A"/>
<path d="M16.4077 60.1698L16.4756 60.3612C16.7071 61.0142 17.0947 61.6041 17.5964 62.068L17.6213 62.091C17.9532 62.398 18.2361 62.7544 18.4623 63.1503C18.8154 63.7682 19.3181 64.2874 19.9165 64.6526C19.917 64.6526 19.917 64.6531 19.9175 64.6531C20.3008 64.8867 20.6459 65.1789 20.9432 65.5216L20.9661 65.5479C21.4152 66.0655 21.987 66.4657 22.6188 66.7048L22.8046 66.775C23.1178 66.8934 23.4183 67.0502 23.6976 67.2399L24.426 67.735L23.9461 66.9828C23.7624 66.6949 23.611 66.384 23.4958 66.0606L23.4279 65.8692C23.1964 65.2162 22.8088 64.6262 22.3071 64.1624L22.2822 64.1394C21.9504 63.8323 21.6674 63.476 21.4412 63.0801C21.0882 62.4627 20.5854 61.9435 19.9876 61.5783C19.9871 61.5778 19.9865 61.5778 19.986 61.5773C19.6027 61.3437 19.2576 61.0515 18.9603 60.7088L18.9375 60.683C18.4883 60.1649 17.9165 59.7646 17.2847 59.5256L17.0989 59.4554C16.7852 59.3364 16.4847 59.1802 16.2059 58.9905L15.4775 58.4954L15.9575 59.2476C16.1412 59.5349 16.2925 59.8452 16.4077 60.1698ZM19.9515 62.2516C20.4123 62.2516 20.7871 62.6387 20.7871 63.1146C20.7871 63.5905 20.4123 63.9776 19.9515 63.9776C19.4907 63.9776 19.1159 63.5905 19.1159 63.1146C19.1159 62.6387 19.4907 62.2516 19.9515 62.2516Z" fill="#FFF9C6"/>
<path d="M17.4548 62.2311L17.4797 62.2542C17.7951 62.5458 18.0642 62.8847 18.2793 63.2613C18.6509 63.9111 19.1797 64.4577 19.8093 64.8415C19.8099 64.8415 19.8099 64.8421 19.8104 64.8421C20.1746 65.0641 20.5027 65.3421 20.7846 65.6672L20.8075 65.6935C21.28 66.238 21.881 66.6585 22.5456 66.9102L22.7315 66.9804C23.0298 67.0933 23.3155 67.2419 23.5809 67.4223L24.7399 68.2107C24.7579 68.2228 24.7781 68.2288 24.7983 68.2288C24.8259 68.2288 24.853 68.2178 24.8732 68.1965C24.9087 68.1597 24.9146 68.1022 24.887 68.0588L24.1235 66.8614C23.9488 66.5872 23.8044 66.2923 23.6956 65.9841L23.6276 65.7928C23.384 65.1063 22.9767 64.4857 22.4496 63.9977L22.4246 63.9747C22.1092 63.683 21.8401 63.3441 21.6251 62.9675C21.2534 62.3178 20.7246 61.7711 20.095 61.3873C20.0944 61.3868 20.0939 61.3868 20.0934 61.3862C19.7292 61.1642 19.4016 60.8867 19.1197 60.561L19.0969 60.5353C18.6244 59.9908 18.0234 59.5697 17.3587 59.3186L17.1729 59.2485C16.8745 59.1355 16.5889 58.9869 16.3234 58.8065L15.1644 58.0181C15.1225 57.9896 15.0667 57.9951 15.0312 58.0324C14.9956 58.0691 14.9898 58.1267 15.0174 58.17L15.7808 59.3669C15.9555 59.641 16.0994 59.936 16.2087 60.2441L16.2767 60.4355C16.5198 61.1225 16.9276 61.7431 17.4548 62.2311ZM16.2061 58.9897C16.4848 59.1794 16.7853 59.3356 17.0991 59.4546L17.2849 59.5248C17.9172 59.7638 18.4884 60.1641 18.9376 60.6822L18.9604 60.708C19.2577 61.0507 19.6023 61.3424 19.9861 61.5765C19.9867 61.577 19.9872 61.577 19.9877 61.5776C20.5855 61.9422 21.0883 62.462 21.4414 63.0793C21.6675 63.4752 21.9505 63.8316 22.2823 64.1386L22.3073 64.1616C22.809 64.6255 23.196 65.216 23.428 65.8684L23.496 66.0598C23.6107 66.3838 23.7625 66.6942 23.9462 66.982L24.4261 67.7343L23.6977 67.2392C23.4185 67.0495 23.118 66.8932 22.8047 66.7742L22.6189 66.704C21.9866 66.465 21.4153 66.0647 20.9662 65.5471L20.9434 65.5208C20.6461 65.1782 20.3015 64.8865 19.9176 64.6523C19.9171 64.6523 19.9171 64.6518 19.9166 64.6518C19.3183 64.2866 18.8155 63.7674 18.4624 63.1495C18.2357 62.7536 17.9533 62.3973 17.6215 62.0902L17.5965 62.0672C17.0953 61.6033 16.7078 61.0128 16.4758 60.3604L16.4078 60.169C16.2926 59.845 16.1413 59.5347 15.9576 59.2463L15.4777 58.494L16.2061 58.9897Z" fill="#69C49A"/>
<path d="M19.9514 63.9782C20.4122 63.9782 20.787 63.5911 20.787 63.1152C20.787 62.6393 20.4122 62.2522 19.9514 62.2522C19.4905 62.2522 19.1157 62.6393 19.1157 63.1152C19.1157 63.5911 19.4905 63.9782 19.9514 63.9782Z" fill="#69C49A"/>
<path d="M38.521 58.4946L37.7926 58.9897C37.5138 59.1794 37.2133 59.3357 36.8996 59.4547L36.7138 59.5249C36.0814 59.7639 35.5102 60.1641 35.061 60.6823L35.0382 60.7086C34.7409 61.0513 34.3963 61.343 34.0125 61.5771C34.012 61.5771 34.012 61.5776 34.0114 61.5776C33.4131 61.9428 32.9103 62.462 32.5573 63.0799C32.3311 63.4758 32.0481 63.8322 31.7163 64.1392L31.6914 64.1622C31.1897 64.6261 30.8026 65.2166 30.5706 65.869L30.5027 66.0604C30.3875 66.3844 30.2361 66.6947 30.0524 66.9826L29.5725 67.7348L30.3009 67.2397C30.5802 67.05 30.8807 66.8938 31.1939 66.7748L31.3797 66.7046C32.012 66.4655 32.5833 66.0653 33.0324 65.5472L33.0553 65.5209C33.3526 65.1782 33.6977 64.8859 34.081 64.6524C34.6798 64.2872 35.1826 63.768 35.5362 63.1495C35.7624 62.7537 36.0453 62.3973 36.3772 62.0903L36.4021 62.0672C36.9038 61.6034 37.2908 61.0129 37.5229 60.3604L37.5908 60.1691C37.706 59.845 37.8573 59.5347 38.041 59.2463L38.521 58.4946ZM34.047 63.978C33.5862 63.978 33.2114 63.5909 33.2114 63.115C33.2114 62.6391 33.5862 62.252 34.047 62.252C34.5078 62.252 34.8826 62.6391 34.8826 63.115C34.8826 63.5909 34.5078 63.978 34.047 63.978Z" fill="#FFF9C6"/>
<path d="M38.9691 58.0322C38.9335 57.9954 38.8778 57.9894 38.8358 58.0179L37.6769 58.8064C37.4114 58.9867 37.1258 59.1353 36.8274 59.2483L36.6416 59.3185C35.9769 59.5701 35.3759 59.9906 34.9034 60.5351L34.8805 60.5614C34.5981 60.8865 34.2705 61.1645 33.9063 61.3866C33.9058 61.3866 33.9058 61.3871 33.9053 61.3871C33.2761 61.7709 32.7468 62.317 32.3752 62.9673C32.1596 63.3439 31.891 63.6828 31.5756 63.9745L31.5507 63.9975C31.0235 64.4855 30.6157 65.1061 30.3721 65.7926L30.3041 65.9839C30.1947 66.292 30.0509 66.587 29.8762 66.8612L29.1127 68.0581C29.0851 68.1014 29.0904 68.1589 29.1265 68.1957C29.1473 68.2171 29.1743 68.228 29.2019 68.228C29.2221 68.228 29.2423 68.222 29.2603 68.2099L30.4193 67.4215C30.6848 67.2411 30.9704 67.0925 31.2688 66.9796L31.4546 66.9094C32.1193 66.6578 32.7203 66.2372 33.1928 65.6928L33.2156 65.6665C33.4981 65.3408 33.8262 65.0628 34.1909 64.8407C34.8206 64.4569 35.3493 63.9109 35.721 63.2606C35.936 62.8839 36.2052 62.5451 36.5205 62.2534L36.5455 62.2304C37.0727 61.7424 37.4804 61.1218 37.7236 60.4353L37.7915 60.244C37.9009 59.9358 38.0448 59.6408 38.2194 59.3667L38.9829 58.1698C39.01 58.1265 39.0047 58.0689 38.9691 58.0322ZM37.5234 60.3607C37.2919 61.0137 36.9044 61.6037 36.4027 62.0675L36.3777 62.0906C36.0459 62.3976 35.7635 62.754 35.5368 63.1498C35.1832 63.7678 34.6804 64.2875 34.0815 64.6527C33.6982 64.8863 33.3531 65.1785 33.0558 65.5212L33.033 65.5475C32.5838 66.0651 32.012 66.4653 31.3803 66.7049L31.1944 66.7751C30.8807 66.8935 30.5802 67.0503 30.3014 67.24L29.573 67.7351L30.053 66.9829C30.2367 66.695 30.388 66.3847 30.5032 66.0607L30.5712 65.8693C30.8026 65.2163 31.1902 64.6264 31.6919 64.1625L31.7169 64.1395C32.0487 63.833 32.3316 63.4766 32.5578 63.0802C32.9109 62.4623 33.4136 61.9431 34.012 61.5779C34.0125 61.5779 34.0125 61.5774 34.013 61.5774C34.3964 61.3438 34.7414 61.0516 35.0388 60.7089L35.0616 60.6826C35.5107 60.1645 36.0825 59.7648 36.7143 59.5252L36.9001 59.455C37.2139 59.336 37.5144 59.1797 37.7931 58.99L38.5215 58.4949L38.0416 59.2472C37.8579 59.5356 37.7061 59.8459 37.5914 60.1699L37.5234 60.3607Z" fill="#69C49A"/>
<path d="M34.0474 62.2517C33.5865 62.2517 33.2117 62.6388 33.2117 63.1147C33.2117 63.5906 33.5865 63.9777 34.0474 63.9777C34.5082 63.9777 34.8831 63.5906 34.8831 63.1147C34.8831 62.6388 34.5082 62.2517 34.0474 62.2517Z" fill="#69C49A"/>
<path d="M23.3472 76.6893C23.5914 77.2145 23.9583 77.8818 24.6325 78.3862C25.2723 78.8753 26.1557 79.1615 26.9993 79.1566C27.8445 79.162 28.7279 78.8753 29.3671 78.3868C30.0488 77.8763 30.4109 77.2091 30.6503 76.6849C30.6912 76.5835 30.7337 76.4782 30.7762 76.3724C30.9248 76.0028 31.0751 75.6294 31.2561 75.2341L30.8224 74.2637L29.6448 76.8993C29.6273 76.9382 29.5896 76.9629 29.5482 76.9629C29.5068 76.9629 29.4691 76.9382 29.4516 76.8993L28.2735 74.2637L27.0954 76.8993C27.0779 76.9382 27.0402 76.9629 26.9988 76.9629C26.9573 76.9629 26.9197 76.9382 26.9021 76.8993L25.7246 74.2642L24.547 76.8993C24.5295 76.9382 24.4918 76.9629 24.4504 76.9629C24.409 76.9629 24.3713 76.9382 24.3538 76.8993L23.1762 74.2642L22.7419 75.2358C22.9251 75.6366 23.0759 76.0143 23.2256 76.3888C23.2665 76.4897 23.3068 76.5895 23.3472 76.6893Z" fill="#FFF9C6"/>
<path d="M33.2006 72.1218C29.2863 73.6899 24.712 73.6899 20.7976 72.1218C21.7039 73.2721 22.2364 74.1779 22.6229 74.9811L23.0805 73.9575C23.098 73.9185 23.1357 73.8939 23.1771 73.8939C23.2185 73.8939 23.2562 73.9185 23.2738 73.9575L24.4513 76.5925L25.6289 73.9575C25.6464 73.9185 25.6841 73.8939 25.7255 73.8939C25.7669 73.8939 25.8046 73.9185 25.8221 73.9575L26.9997 76.5925L28.1772 73.9575C28.1947 73.9185 28.2324 73.8939 28.2738 73.8939C28.3152 73.8939 28.3529 73.9185 28.3705 73.9575L29.5485 76.5931L30.7261 73.9575C30.7436 73.9185 30.7813 73.8939 30.8227 73.8939C30.8641 73.8939 30.9018 73.9185 30.9193 73.9575L31.3764 74.9806C31.7619 74.1773 32.2944 73.2721 33.2006 72.1218Z" fill="#FFF9C6"/>
<path d="M33.6317 71.929C33.6635 71.89 33.6651 71.8341 33.6359 71.7935C33.6067 71.753 33.5547 71.7376 33.5096 71.7573C29.4333 73.5201 24.5654 73.5206 20.4886 71.7573C20.4435 71.7376 20.3909 71.753 20.3622 71.7935C20.3336 71.8341 20.3351 71.8906 20.3665 71.929C22.024 73.9559 22.5352 75.2356 23.0295 76.4736C23.0698 76.5751 23.1102 76.676 23.1511 76.7774C23.1516 76.779 23.1527 76.7807 23.1532 76.7829C23.408 77.3317 23.7924 78.0307 24.5054 78.5648C25.1823 79.0823 26.078 79.3779 26.9667 79.3779C26.9874 79.3779 27.0081 79.3779 27.0288 79.3779C27.9191 79.3779 28.8148 79.0823 29.4912 78.5653C30.2111 78.0264 30.5907 77.3284 30.8423 76.7763C30.8853 76.6705 30.9278 76.5646 30.9708 76.4588C31.4672 75.2241 31.9806 73.9483 33.6317 71.929ZM30.8211 73.894C30.7797 73.894 30.742 73.9187 30.7244 73.9576L29.5469 76.5932L28.3688 73.9576C28.3513 73.9187 28.3136 73.894 28.2722 73.894C28.2308 73.894 28.1931 73.9187 28.1756 73.9576L26.998 76.5926L25.8205 73.9576C25.8029 73.9187 25.7653 73.894 25.7238 73.894C25.6824 73.894 25.6447 73.9187 25.6272 73.9576L24.4497 76.5926L23.2721 73.9576C23.2546 73.9187 23.2169 73.894 23.1755 73.894C23.1341 73.894 23.0964 73.9187 23.0789 73.9576L22.6212 74.9812C22.2347 74.178 21.7022 73.2722 20.796 72.1219C24.7103 73.69 29.2846 73.69 33.199 72.1219C32.2927 73.2722 31.7602 74.1774 31.3727 74.9807L30.9156 73.9576C30.9002 73.9192 30.8625 73.894 30.8211 73.894ZM23.1766 74.2657L24.3541 76.9007C24.3716 76.9397 24.4093 76.9643 24.4507 76.9643C24.4921 76.9643 24.5298 76.9397 24.5474 76.9007L25.7249 74.2657L26.9025 76.9007C26.92 76.9397 26.9577 76.9643 26.9991 76.9643C27.0405 76.9643 27.0782 76.9397 27.0957 76.9007L28.2738 74.2652L29.4519 76.9007C29.4694 76.9397 29.5071 76.9643 29.5485 76.9643C29.5899 76.9643 29.6276 76.9397 29.6451 76.9007L30.8227 74.2652L31.2564 75.2356C31.0754 75.6309 30.9251 76.0043 30.7765 76.3738C30.734 76.4797 30.6915 76.5849 30.6507 76.6864C30.4112 77.2105 30.0497 77.8772 29.3675 78.3882C28.7288 78.8767 27.8448 79.1635 26.9996 79.158C26.156 79.1629 25.2726 78.8767 24.6328 78.3877C23.9586 77.8827 23.5917 77.216 23.3475 76.6908C23.3072 76.5904 23.2673 76.4906 23.227 76.3908C23.0773 76.0169 22.9265 75.6386 22.7433 75.2378L23.1766 74.2657Z" fill="#69C49A"/>
<defs>
<clipPath id="clip0">
<rect x="15" y="19" width="24" height="19" fill="white"/>
</clipPath>
<clipPath id="clip1">
<rect x="144" y="71" width="14.3288" height="12" fill="white"/>
</clipPath>
</defs>
</svg>
