<svg xmlns="http://www.w3.org/2000/svg" xmlns:xlink="http://www.w3.org/1999/xlink" id="Layer_1" x="0" y="0" version="1.1" viewBox="0 0 168 190" xml:space="preserve" style="enable-background:new 0 0 168 190"><style type="text/css">.st0{fill:#fff}.st1{fill:url(#SVGID_1_)}.st2{fill:url(#SVGID_2_)}.st3{fill:url(#SVGID_3_)}</style><g><rect width="139.2" height="97.7" x="14.9" y="35.3" class="st0"/><g><linearGradient id="SVGID_1_" x1="66.7" x2="66.7" y1="679.7" y2="700.731" gradientTransform="matrix(1 0 0 1 0 -600)" gradientUnits="userSpaceOnUse"><stop offset="0" style="stop-color:#e30613"/><stop offset="1" style="stop-color:#731a14"/></linearGradient><path d="M66.7,79.7c-5.4,0-9.8,4.7-9.8,10.5s4.4,10.5,9.8,10.5s9.8-4.7,9.8-10.5C76.5,84.4,72.1,79.7,66.7,79.7z" class="st1"/><linearGradient id="SVGID_2_" x1="101.7" x2="101.7" y1="679.7" y2="700.731" gradientTransform="matrix(1 0 0 1 0 -600)" gradientUnits="userSpaceOnUse"><stop offset="0" style="stop-color:#e20613"/><stop offset="1" style="stop-color:#731a13"/></linearGradient><path d="M101.7,79.7c-5.4,0-9.8,4.7-9.8,10.5s4.4,10.5,9.8,10.5s9.8-4.7,9.8-10.5C111.5,84.4,107.1,79.7,101.7,79.7z" class="st2"/><linearGradient id="SVGID_3_" x1="84" x2="84" y1="600" y2="790" gradientTransform="matrix(1 0 0 1 0 -600)" gradientUnits="userSpaceOnUse"><stop offset="0" style="stop-color:#e30613"/><stop offset="1" style="stop-color:#731a13"/></linearGradient><path d="M148.4,0H19.6C8.8,0,0,8.8,0,19.6V148c0,10.8,8.8,19.6,19.6,19.6h108.9l-5.1-17.5l12.3,11.3l11.6,10.7 L168,190v-41.9v-9.5v-119C168,8.8,159.2,0,148.4,0z M111.3,124.1c0,0-3.4-4.1-6.3-7.7c12.6-3.5,17.4-11.3,17.4-11.3 c-4,2.6-7.7,4.4-11.1,5.6c-4.8,2-9.5,3.3-14,4.1c-9.2,1.7-17.6,1.3-24.9-0.1c-5.5-1-10.2-2.5-14.1-4.1c-2.2-0.8-4.6-1.9-7.1-3.3 c-0.3-0.2-0.6-0.3-0.9-0.5c-0.1-0.1-0.3-0.2-0.4-0.2c-1.7-1-2.6-1.6-2.6-1.6s4.6,7.6,16.8,11.2c-2.9,3.6-6.4,7.9-6.4,7.9 c-21.2-0.6-29.3-14.5-29.3-14.5c0-30.6,13.8-55.4,13.8-55.4c13.8-10.3,26.9-10,26.9-10l1,1.1C52.8,50.3,45,57.9,45,57.9 s2.1-1.2,5.7-2.7c10.3-4.5,18.4-5.7,21.8-6c0.5-0.1,1.1-0.2,1.6-0.2c5.9-0.7,12.5-0.9,19.4-0.2c9.1,1,18.9,3.7,28.9,9.1 c0,0-7.5-7.2-23.9-12.1l1.3-1.5c0,0,13.1-0.3,26.9,10c0,0,13.8,24.8,13.8,55.4C140.6,109.6,132.5,123.5,111.3,124.1z" class="st3"/></g></g></svg>