<svg xmlns="http://www.w3.org/2000/svg" xmlns:xlink="http://www.w3.org/1999/xlink" viewBox="0 0 168 168.69"><defs><linearGradient id="a" x1="66.7" x2="66.7" y1="-487.7" y2="-508.73" gradientTransform="matrix(1, 0, 0, -1, 0, -408)" gradientUnits="userSpaceOnUse"><stop offset="0" stop-color="#e30613"/><stop offset="1" stop-color="#731a14"/></linearGradient><linearGradient id="b" x1="101.7" x2="101.7" y1="-487.7" y2="-508.73" gradientTransform="matrix(1, 0, 0, -1, 0, -408)" gradientUnits="userSpaceOnUse"><stop offset="0" stop-color="#e20613"/><stop offset="1" stop-color="#731a13"/></linearGradient><linearGradient id="c" x1="84" x2="84" y1="-408" y2="-576.69" gradientTransform="matrix(1, 0, 0, -1, 0, -408)" gradientUnits="userSpaceOnUse"><stop offset="0" stop-color="#e30613"/><stop offset="1" stop-color="#731a13"/></linearGradient></defs><rect width="139.2" height="97.7" x="14.9" y="35.3" fill="#fff"/><path fill="url(#a)" d="M66.7,79.7c-5.4,0-9.8,4.7-9.8,10.5s4.4,10.5,9.8,10.5,9.8-4.7,9.8-10.5S72.1,79.7,66.7,79.7Z"/><path fill="url(#b)" d="M101.7,79.7c-5.4,0-9.8,4.7-9.8,10.5s4.4,10.5,9.8,10.5,9.8-4.7,9.8-10.5S107.1,79.7,101.7,79.7Z"/><path fill="url(#c)" d="M0,0V168l168,.69V0ZM111.3,124.1s-3.4-4.1-6.3-7.7c12.6-3.5,17.4-11.3,17.4-11.3a52.52,52.52,0,0,1-11.1,5.6,68.63,68.63,0,0,1-38.9,4,70.12,70.12,0,0,1-14.1-4.1,48.88,48.88,0,0,1-7.1-3.3c-.3-.2-.6-.3-.9-.5a.76.76,0,0,0-.4-.2c-1.7-1-2.6-1.6-2.6-1.6s4.6,7.6,16.8,11.2c-2.9,3.6-6.4,7.9-6.4,7.9-21.2-.6-29.3-14.5-29.3-14.5,0-30.6,13.8-55.4,13.8-55.4,13.8-10.3,26.9-10,26.9-10l1,1.1C52.8,50.3,45,57.9,45,57.9a56.2,56.2,0,0,1,5.7-2.7,72.19,72.19,0,0,1,21.8-6,8.75,8.75,0,0,1,1.6-.2,89.1,89.1,0,0,1,19.4-.2,78.45,78.45,0,0,1,28.9,9.1s-7.5-7.2-23.9-12.1l1.3-1.5s13.1-.3,26.9,10c0,0,13.8,24.8,13.8,55.4C140.6,109.6,132.5,123.5,111.3,124.1Z"/></svg>