<svg xmlns="http://www.w3.org/2000/svg" width="272" height="130" viewBox="0 0 272 130" xmlns:xlink="http://www.w3.org/1999/xlink">
  <defs>
    <polygon id="a" points="0 117.837 0 .029 269.341 .029 269.341 117.837 0 117.837"/>
    <polygon id="c" points=".079 111 187.262 111 187.262 .056 .079 .056 .079 111"/>
  </defs>
  <g fill="none" fill-rule="evenodd">
    <g transform="translate(1 1)">
      <g transform="translate(0 .971)">
        <mask id="b" fill="white">
          <use xlink:href="#a"/>
        </mask>
        <path fill="#F7F7F8" fill-opacity=".9" d="M38.4548,0.0294 L179.7518,0.0294 C201.0688,0.0294 218.3488,17.3094 218.3488,38.6254 L218.3488,51.2214 C218.3488,65.5814 229.9888,77.2214 244.3488,77.2214 L249.0338,77.2214 C260.2488,77.2214 269.3418,86.3144 269.3418,97.5294 C269.3418,108.7454 260.2488,117.8374 249.0338,117.8374 L26.1848,117.8374 C11.7238,117.8374 -0.0002,106.1134 -0.0002,91.6524 L-0.0002,89.1984 C-0.0002,74.7374 11.7238,63.0134 26.1848,63.0134 L40.1968,63.0134 C51.2728,63.0134 60.2518,54.0344 60.2518,42.9574 C60.2518,31.8814 51.2728,22.9024 40.1968,22.9024 L38.4548,22.9024 C32.1388,22.9024 27.0178,17.7814 27.0178,11.4664 L27.0178,11.4654 C27.0178,5.1494 32.1388,0.0294 38.4548,0.0294" mask="url(#b)"/>
      </g>
      <path fill="#DCDDDE" d="M48.0798,101.3832 C47.2408,101.3832 46.4638,101.0462 45.8898,100.4342 C45.3168,99.8212 45.0318,99.0242 45.0868,98.1872 L46.2708,80.1922 L46.2708,80.1912 C46.2708,77.9822 55.9058,76.1912 67.7918,76.1912 C72.9758,76.1912 77.7298,76.5322 81.4448,77.0992 L81.4448,69.9642 C80.4948,69.0382 79.9238,67.7622 79.9238,66.3892 L79.9238,64.9832 C79.9238,63.8782 79.0288,62.9832 77.9238,62.9832 L76.2108,62.9832 C75.6588,62.9832 75.2108,62.5352 75.2108,61.9832 C75.2108,61.4302 75.6588,60.9832 76.2108,60.9832 L81.4448,60.9832 L81.4448,54.4022 L52.5698,54.4022 C51.4658,54.4022 50.5698,55.2982 50.5698,56.4022 L50.5698,58.9832 C50.5698,60.0872 51.4658,60.9832 52.5698,60.9832 L66.5278,60.9832 C67.0798,60.9832 67.5278,61.4302 67.5278,61.9832 C67.5278,62.5352 67.0798,62.9832 66.5278,62.9832 L57.6588,62.9832 C56.5548,62.9832 55.6588,63.8782 55.6588,64.9832 L55.6588,66.3912 C55.6588,68.3502 54.5148,70.1282 52.7328,70.9402 L48.4398,72.8942 C46.0918,73.9642 44.5268,76.2292 44.3578,78.8042 L43.1018,97.8792 C43.0178,99.1692 43.3528,100.4772 44.1598,101.4872 C45.1318,102.7062 46.5438,103.3832 48.0798,103.3832 L81.4448,103.3832 L81.4448,101.3832 L48.0798,101.3832 Z"/>
      <path fill="#DCDDDE" d="M80.1316 84.1523C80.1706 84.1523 80.2096 84.1503 80.2486 84.1453 80.6656 84.0963 81.0506 84.0413 81.4446 83.9873L81.4446 81.9703C80.9806 82.0353 80.5136 82.1003 80.0166 82.1593 79.4676 82.2233 79.0746 82.7203 79.1396 83.2683 79.1986 83.7783 79.6316 84.1523 80.1316 84.1523M53.6072 83.9199C57.5552 84.4909 62.5932 84.8059 67.7922 84.8059 70.6032 84.8059 73.3362 84.7169 75.9172 84.5419 76.4682 84.5039 76.8842 84.0269 76.8472 83.4769 76.8102 82.9259 76.3312 82.5319 75.7822 82.5459 73.2462 82.7189 70.5582 82.8059 67.7922 82.8059 62.6862 82.8059 57.7502 82.4989 53.8942 81.9409 53.3472 81.8539 52.8382 82.2399 52.7612 82.7869 52.6822 83.3339 53.0612 83.8419 53.6072 83.9199"/>
      <path fill="#F7F7F8" d="M153.324,20.4037 L155.929,20.4037 C160.716,20.4037 164.595,24.2837 164.595,29.0697 L164.595,31.8507 C164.595,33.0147 166.236,33.2377 166.565,32.1217 C166.99,30.6817 167.127,29.1197 166.907,27.4997 C166.252,22.6907 162.37,18.7997 157.562,18.1337 C155.986,17.9157 154.464,18.0367 153.056,18.4317 C151.934,18.7477 152.158,20.4037 153.324,20.4037"/>
      <path fill="#FFFFFF" d="M171.8747 29.0268C171.8747 26.1258 169.9977 23.6608 167.3977 22.7668 168.4227 24.6258 169.0107 26.7578 169.0107 29.0268 169.0107 31.2958 168.4227 33.4278 167.3977 35.2858 169.9977 34.3918 171.8747 31.9268 171.8747 29.0268M66.3562 35.6498C70.0082 35.6498 72.9792 32.6788 72.9792 29.0268 72.9792 25.3748 70.0082 22.4038 66.3562 22.4038 62.7042 22.4038 59.7332 25.3748 59.7332 29.0268 59.7332 32.6788 62.7042 35.6498 66.3562 35.6498"/>
      <path fill="#F7F7F8" d="M162.5954,68.5297 L162.5954,68.5107 C162.0864,68.9887 161.5824,69.4667 161.0864,69.9457 C161.5764,69.4727 162.0934,69.0017 162.5954,68.5297"/>
      <path fill="#F7F7F8" d="M100.9792,61.0449 C100.4262,61.0449 99.9792,60.5979 99.9792,60.0449 C99.9792,59.4919 100.4262,59.0449 100.9792,59.0449 L140.6382,59.0449 C141.1902,59.0449 141.6382,59.4919 141.6382,60.0449 C141.6382,60.5979 141.1902,61.0449 140.6382,61.0449 L100.9792,61.0449 Z M99.9792,83.0639 C99.9792,82.5109 100.4262,82.0639 100.9792,82.0639 L128.5672,82.0639 C129.1202,82.0639 129.5672,82.5109 129.5672,83.0639 C129.5672,83.6169 129.1202,84.0639 128.5672,84.0639 L100.9792,84.0639 C100.4262,84.0639 99.9792,83.6169 99.9792,83.0639 L99.9792,83.0639 Z M137.3102,94.0719 L100.9792,94.0719 C100.4262,94.0719 99.9792,93.6249 99.9792,93.0719 C99.9792,92.5189 100.4262,92.0719 100.9792,92.0719 L137.3102,92.0719 C137.8632,92.0719 138.3102,92.5189 138.3102,93.0719 C138.3102,93.6249 137.8632,94.0719 137.3102,94.0719 L137.3102,94.0719 Z M100.9792,49.0369 L132.9762,49.0369 C133.5292,49.0369 133.9762,49.4839 133.9762,50.0369 C133.9762,50.5899 133.5292,51.0369 132.9762,51.0369 L100.9792,51.0369 C100.4262,51.0369 99.9792,50.5899 99.9792,50.0369 C99.9792,49.4839 100.4262,49.0369 100.9792,49.0369 L100.9792,49.0369 Z M100.9792,39.0289 L143.1432,39.0289 C143.6962,39.0289 144.1432,39.4769 144.1432,40.0289 C144.1432,40.5819 143.6962,41.0289 143.1432,41.0289 L100.9792,41.0289 C100.4262,41.0289 99.9792,40.5819 99.9792,40.0289 C99.9792,39.4769 100.4262,39.0289 100.9792,39.0289 L100.9792,39.0289 Z M148.3062,50.0369 C148.3062,50.5899 147.8592,51.0369 147.3062,51.0369 L138.6442,51.0369 C138.0912,51.0369 137.6442,50.5899 137.6442,50.0369 C137.6442,49.4839 138.0912,49.0369 138.6442,49.0369 L147.3062,49.0369 C147.8592,49.0369 148.3062,49.4839 148.3062,50.0369 L148.3062,50.0369 Z M153.5742,80.6969 C149.2422,85.5969 145.7162,90.1439 143.1022,93.7549 C142.9072,94.0259 142.6012,94.1699 142.2922,94.1699 C142.0882,94.1699 141.8832,94.1079 141.7072,93.9789 C141.2582,93.6559 141.1592,93.0309 141.4832,92.5839 C144.3032,88.6879 148.1622,83.7189 152.9502,78.3859 C154.0582,77.1529 154.6032,75.5099 154.4572,73.8579 L153.4582,62.5759 C153.4352,62.3149 153.5162,62.0549 153.6822,61.8529 C153.7422,61.7809 156.9322,57.9479 162.5952,53.2529 L162.5952,29.0709 C162.5952,25.3889 159.6102,22.4039 155.9282,22.4039 L94.1742,22.4039 C92.2272,22.4039 90.8262,24.2219 91.2682,26.1199 C91.4852,27.0539 91.6002,28.0259 91.6002,29.0269 C91.6002,32.8459 89.9372,36.2769 87.3052,38.6549 C86.6742,39.2249 86.3102,40.0279 86.3102,40.8779 L86.3092,118.3039 C86.3092,122.2689 89.7892,125.4369 93.8542,124.9149 C97.2152,124.4829 99.6432,121.4589 99.6432,118.0709 L99.6432,109.6429 C99.6432,107.9859 100.9862,106.6429 102.6432,106.6429 L159.5962,106.6289 C161.2532,106.6289 162.5952,105.2859 162.5952,103.6289 L162.5952,85.0649 C162.5952,84.6979 162.8022,84.3919 163.0952,84.2179 L163.0952,79.5279 L159.1762,78.7879 C157.1042,78.3959 154.9712,79.1179 153.5742,80.6969 L153.5742,80.6969 Z"/>
      <path fill="#F7F7F8" d="M105.3093 124.9711L168.7143 124.9711C172.3963 124.9711 175.3813 121.9861 175.3813 118.3041L175.3813 110.6431C175.3813 109.5381 174.4853 108.6431 173.3813 108.6431L103.6433 108.6431C102.5383 108.6431 101.6433 109.5381 101.6433 110.6431L101.6433 118.3041C101.6433 121.2881 100.1193 123.9111 97.8173 125.4711L104.4653 125.4711C104.6333 125.1741 104.9423 124.9711 105.3093 124.9711M84.9617 28.1557C84.5337 24.8167 81.5297 22.4037 78.1647 22.4037L77.6637 22.4037C77.1117 22.4037 76.6637 21.9557 76.6637 21.4037 76.6637 20.8507 77.1117 20.4037 77.6637 20.4037L78.3947 20.4037C83.3447 20.4037 87.3337 24.5957 86.9977 29.6167 86.6907 34.1947 82.6787 37.6497 78.0897 37.6497L75.9147 37.6497C74.7487 37.6497 74.5247 39.3057 75.6477 39.6207 77.0607 40.0177 78.5877 40.1377 80.1707 39.9167 85.0677 39.2297 88.9827 35.1987 89.5297 30.2837 90.2697 23.6577 85.0807 18.0267 78.6007 18.0267 76.8917 18.0267 75.2757 18.4247 73.8337 19.1247 73.3977 19.3577 72.6447 20.2457 73.8957 20.4037 74.4477 20.4037 74.8957 20.8507 74.8957 21.4037 74.8957 21.9557 74.4477 22.4037 73.8957 22.4037L71.8697 22.4037C73.7687 23.9867 74.9797 26.3667 74.9797 29.0267 74.9797 31.6857 73.7687 34.0667 71.8697 35.6497L78.3947 35.6497C82.3337 35.6497 85.4797 32.1947 84.9617 28.1557"/>
      <path fill="#FFFFFF" d="M197.8327,47.2319 C197.3617,47.4279 196.8927,47.6289 196.4257,47.8339 C196.2947,47.8909 196.1587,47.9179 196.0247,47.9179 C195.6397,47.9179 195.2717,47.6939 195.1077,47.3189 C194.8867,46.8129 195.1167,46.2229 195.6227,46.0019 C196.1017,45.7919 196.5827,45.5859 197.0647,45.3859 C197.5727,45.1719 198.1607,45.4149 198.3717,45.9249 C198.5847,46.4349 198.3427,47.0199 197.8327,47.2319 M222.9257,39.9859 C222.2827,39.8079 221.6377,39.6679 220.9937,39.5109 C220.4517,39.3789 219.9097,39.2279 219.3677,39.1109 C218.6917,38.9659 218.0147,38.8609 217.3377,38.7399 C216.8247,38.6479 216.3117,38.5359 215.7977,38.4589 C215.0447,38.3439 214.2907,38.2709 213.5377,38.1869 C213.0997,38.1369 212.6617,38.0669 212.2227,38.0279 C211.4337,37.9579 210.6437,37.9289 209.8547,37.8909 C209.4507,37.8719 209.0477,37.8319 208.6437,37.8209 C207.8437,37.7999 207.0447,37.8199 206.2447,37.8329 C205.8517,37.8379 205.4577,37.8239 205.0637,37.8379 C204.1847,37.8699 203.3047,37.9429 202.4247,38.0149 C202.1117,38.0409 201.7997,38.0469 201.4867,38.0779 C200.7327,38.1519 199.9787,38.2679 199.2247,38.3719 C198.7877,38.4319 198.3497,38.4719 197.9127,38.5419 C196.7227,38.7339 195.5337,38.9629 194.3467,39.2299 C190.9767,39.9859 187.5817,41.0539 184.2567,42.4049 C182.0517,43.2999 179.9637,44.2949 177.9727,45.3409 C176.8827,45.9139 175.8277,46.5009 174.8057,47.1019 C173.1807,48.0569 171.6437,49.0359 170.1987,50.0229 C162.8947,55.0109 157.9447,60.0989 156.0687,62.1649 C155.9757,62.2679 155.8937,62.3789 155.8247,62.4979 C155.6187,62.8509 155.5267,63.2619 155.5637,63.6789 L155.9567,68.1129 C156.1787,70.6259 159.2067,71.7599 161.0197,70.0069 C161.0417,69.9869 161.0647,69.9659 161.0867,69.9449 C161.5827,69.4669 162.0867,68.9889 162.5957,68.5109 C163.0857,68.0499 163.5837,67.5909 164.0857,67.1319 C164.2077,67.0199 164.3277,66.9079 164.4507,66.7959 C164.4997,66.7529 164.5467,66.7079 164.5957,66.6639 C165.5517,65.7969 166.5337,64.9369 167.5327,64.0799 C167.6867,63.9469 167.8397,63.8149 167.9957,63.6819 C169.0377,62.7959 170.1027,61.9199 171.1887,61.0509 C171.3627,60.9129 171.5357,60.7739 171.7107,60.6359 C172.7997,59.7739 173.9097,58.9239 175.0407,58.0869 C175.2217,57.9539 175.4037,57.8209 175.5847,57.6879 C176.7297,56.8509 177.8947,56.0269 179.0817,55.2219 C179.2557,55.1039 179.4317,54.9879 179.6067,54.8709 C180.8187,54.0579 182.0497,53.2609 183.3047,52.4889 C183.4537,52.3969 183.6047,52.3079 183.7547,52.2169 C185.0497,51.4279 186.3637,50.6589 187.7037,49.9199 C187.7997,49.8669 187.8977,49.8159 187.9947,49.7639 C189.3977,48.9959 190.8217,48.2529 192.2707,47.5479 C192.7717,47.3079 193.3667,47.5149 193.6077,48.0099 C193.8497,48.5069 193.6427,49.1059 193.1457,49.3469 C191.9087,49.9489 190.6927,50.5829 189.4897,51.2319 C189.2737,51.3479 189.0567,51.4629 188.8427,51.5809 C187.6947,52.2109 186.5627,52.8609 185.4477,53.5299 C185.2307,53.6599 185.0167,53.7919 184.8007,53.9229 C183.6597,54.6189 182.5297,55.3269 181.4237,56.0569 C181.3847,56.0829 181.3477,56.1089 181.3097,56.1339 C180.2197,56.8559 179.1517,57.5949 178.0967,58.3449 C177.9087,58.4789 177.7197,58.6109 177.5327,58.7459 C176.4997,59.4889 175.4847,60.2449 174.4867,61.0109 C174.2887,61.1639 174.0917,61.3169 173.8947,61.4699 C172.8807,62.2569 171.8797,63.0519 170.9037,63.8569 C170.8437,63.9069 170.7847,63.9579 170.7247,64.0069 C169.7747,64.7929 168.8467,65.5859 167.9337,66.3839 C167.7767,66.5219 167.6167,66.6579 167.4607,66.7959 C166.5487,67.5989 165.6577,68.4059 164.7837,69.2159 C164.7207,69.2739 164.6587,69.3329 164.5957,69.3909 C164.5647,69.4199 164.5337,69.4489 164.5027,69.4779 C161.4827,72.3599 163.0107,77.4769 167.1317,78.2559 L173.7337,79.5029 C174.4637,79.6419 175.2017,79.3679 175.6637,78.7859 C176.4447,77.8029 177.4347,76.7089 178.6267,75.5109 L174.7297,74.2089 C174.3117,74.0689 174.0347,73.6709 174.0477,73.2309 C174.0617,72.7899 174.3607,72.4099 174.7867,72.2939 L185.3107,69.4559 C186.2377,68.6739 187.2077,67.8779 188.2017,67.0739 C188.6487,66.7119 189.1017,66.3479 189.5607,65.9829 C190.3717,65.3369 191.1987,64.6869 192.0387,64.0329 C193.5197,62.8809 195.0377,61.7219 196.5747,60.5669 C196.7227,60.4559 196.8717,60.3449 197.0197,60.2349 C197.3157,60.0119 197.6127,59.7899 197.9117,59.5669 C197.9857,59.5119 198.0607,59.4569 198.1347,59.4009 C198.7507,58.9429 199.3677,58.4869 199.9857,58.0329 C200.4007,57.7269 200.8157,57.4219 201.2317,57.1189 C201.9167,56.6179 202.6027,56.1189 203.2837,55.6259 C203.3797,55.5569 203.4757,55.4879 203.5707,55.4199 C204.8097,54.5239 206.0397,53.6439 207.2487,52.7859 C207.4537,52.6399 207.6567,52.4959 207.8607,52.3509 C208.0907,52.1889 208.3207,52.0249 208.5487,51.8639 C208.6827,51.7699 208.8147,51.6769 208.9487,51.5829 C209.2387,51.3779 209.5307,51.1719 209.8177,50.9699 C210.1647,50.7269 210.5057,50.4869 210.8467,50.2489 C210.9207,50.1969 210.9967,50.1439 211.0697,50.0919 C211.3127,49.9219 211.5517,49.7559 211.7907,49.5879 C211.9607,49.4699 212.1337,49.3489 212.3017,49.2319 C212.4837,49.1059 212.6617,48.9819 212.8417,48.8569 C213.0617,48.7049 213.2837,48.5499 213.4997,48.3999 C213.5767,48.3469 213.6517,48.2949 213.7287,48.2419 C214.8287,47.4809 215.8887,46.7509 216.8927,46.0629 C216.9977,45.9909 217.0967,45.9229 217.2007,45.8529 C218.7277,44.8079 220.1237,43.8619 221.3497,43.0349 C221.6867,42.8079 222.0137,42.5879 222.3247,42.3789 C222.3797,42.3419 222.4387,42.3029 222.4927,42.2659 C222.5407,42.2339 222.5827,42.2059 222.6297,42.1739 C222.8347,42.0369 223.0377,41.9009 223.2287,41.7729 C223.9407,41.2969 223.7497,40.2159 222.9257,39.9859"/>
      <path fill="#B9BBBE" d="M100.9792 94.0717L137.3102 94.0717C137.8632 94.0717 138.3102 93.6247 138.3102 93.0717 138.3102 92.5187 137.8632 92.0717 137.3102 92.0717L100.9792 92.0717C100.4262 92.0717 99.9792 92.5187 99.9792 93.0717 99.9792 93.6247 100.4262 94.0717 100.9792 94.0717M100.9792 84.0639L128.5672 84.0639C129.1202 84.0639 129.5672 83.6169 129.5672 83.0639 129.5672 82.5109 129.1202 82.0639 128.5672 82.0639L100.9792 82.0639C100.4262 82.0639 99.9792 82.5109 99.9792 83.0639 99.9792 83.6169 100.4262 84.0639 100.9792 84.0639M141.6379 60.0449C141.6379 59.4919 141.1909 59.0449 140.6379 59.0449L100.9789 59.0449C100.4269 59.0449 99.9789 59.4919 99.9789 60.0449 99.9789 60.5979 100.4269 61.0449 100.9789 61.0449L140.6379 61.0449C141.1909 61.0449 141.6379 60.5979 141.6379 60.0449M100.9792 51.037L132.9762 51.037C133.5292 51.037 133.9762 50.59 133.9762 50.037 133.9762 49.484 133.5292 49.037 132.9762 49.037L100.9792 49.037C100.4262 49.037 99.9792 49.484 99.9792 50.037 99.9792 50.59 100.4262 51.037 100.9792 51.037M137.6443 50.037C137.6443 50.59 138.0913 51.037 138.6443 51.037L147.3063 51.037C147.8593 51.037 148.3063 50.59 148.3063 50.037 148.3063 49.484 147.8593 49.037 147.3063 49.037L138.6443 49.037C138.0913 49.037 137.6443 49.484 137.6443 50.037M143.1433 39.0292L100.9793 39.0292C100.4263 39.0292 99.9793 39.4762 99.9793 40.0292 99.9793 40.5822 100.4263 41.0292 100.9793 41.0292L143.1433 41.0292C143.6963 41.0292 144.1433 40.5822 144.1433 40.0292 144.1433 39.4762 143.6963 39.0292 143.1433 39.0292M197.0652 45.3862C196.5832 45.5862 196.1012 45.7912 195.6232 46.0012 195.1172 46.2232 194.8862 46.8132 195.1082 47.3192 195.2722 47.6942 195.6392 47.9172 196.0252 47.9172 196.1592 47.9172 196.2942 47.8912 196.4252 47.8332 196.8922 47.6292 197.3622 47.4282 197.8332 47.2322 198.3422 47.0202 198.5852 46.4352 198.3722 45.9252 198.1612 45.4142 197.5732 45.1722 197.0652 45.3862"/>
      <g transform="translate(41 15.971)">
        <mask id="d" fill="white">
          <use xlink:href="#c"/>
        </mask>
        <path fill="#B9BBBE" d="M182.238,25.7955 C182.044,25.9255 181.838,26.0635 181.63,26.2035 C181.583,26.2345 181.54,26.2635 181.492,26.2955 C181.439,26.3315 181.38,26.3715 181.324,26.4085 C181.014,26.6165 180.687,26.8365 180.349,27.0645 C179.123,27.8905 177.728,28.8365 176.2,29.8815 C176.097,29.9525 175.997,30.0205 175.893,30.0915 C174.889,30.7795 173.828,31.5085 172.728,32.2715 C172.652,32.3245 172.577,32.3755 172.5,32.4285 C172.283,32.5795 172.062,32.7335 171.842,32.8855 C171.662,33.0115 171.484,33.1345 171.302,33.2605 C171.134,33.3785 170.961,33.4995 170.791,33.6175 C170.551,33.7845 170.313,33.9505 170.07,34.1205 C169.996,34.1725 169.921,34.2255 169.846,34.2775 C169.506,34.5165 169.164,34.7555 168.818,34.9985 C168.53,35.2005 168.239,35.4065 167.948,35.6115 C167.815,35.7055 167.683,35.7985 167.549,35.8935 C167.321,36.0535 167.091,36.2175 166.861,36.3795 C166.656,36.5245 166.454,36.6685 166.248,36.8145 C165.04,37.6725 163.81,38.5535 162.571,39.4485 C162.475,39.5175 162.38,39.5855 162.284,39.6545 C161.602,40.1485 160.917,40.6475 160.232,41.1485 C159.816,41.4515 159.401,41.7555 158.986,42.0615 C158.368,42.5165 157.751,42.9725 157.134,43.4305 C157.06,43.4855 156.986,43.5415 156.911,43.5965 C156.613,43.8185 156.316,44.0415 156.019,44.2635 C155.871,44.3745 155.723,44.4845 155.575,44.5955 C154.037,45.7515 152.52,46.9105 151.038,48.0625 C150.198,48.7155 149.372,49.3655 148.56,50.0115 C148.102,50.3775 147.649,50.7405 147.202,51.1025 C146.207,51.9065 145.238,52.7035 144.31,53.4845 L133.787,56.3235 C133.361,56.4385 133.061,56.8185 133.048,57.2595 C133.035,57.7005 133.312,58.0975 133.73,58.2375 L137.627,59.5405 C136.434,60.7375 135.445,61.8325 134.664,62.8155 C134.202,63.3965 133.464,63.6705 132.734,63.5325 L126.132,62.2845 C122.011,61.5055 120.483,56.3885 123.503,53.5065 C123.534,53.4775 123.565,53.4485 123.595,53.4205 L123.595,53.4145 C123.657,53.3575 123.722,53.3015 123.783,53.2445 C124.658,52.4355 125.549,51.6285 126.461,50.8255 C126.617,50.6875 126.776,50.5505 126.934,50.4135 C127.847,49.6155 128.775,48.8215 129.725,48.0365 C129.785,47.9865 129.843,47.9355 129.904,47.8855 C130.88,47.0815 131.881,46.2865 132.894,45.4995 C133.092,45.3455 133.288,45.1925 133.487,45.0395 C134.485,44.2745 135.5,43.5175 136.532,42.7745 C136.719,42.6405 136.909,42.5075 137.097,42.3745 C138.152,41.6245 139.219,40.8845 140.309,40.1635 C140.348,40.1375 140.385,40.1115 140.424,40.0865 C141.53,39.3565 142.659,38.6475 143.801,37.9525 C144.016,37.8205 144.231,37.6885 144.447,37.5585 C145.563,36.8905 146.695,36.2395 147.842,35.6095 C148.057,35.4915 148.274,35.3775 148.489,35.2605 C149.693,34.6115 150.908,33.9775 152.146,33.3765 C152.642,33.1345 152.849,32.5365 152.608,32.0395 C152.367,31.5445 151.772,31.3375 151.271,31.5775 C149.821,32.2815 148.398,33.0245 146.995,33.7925 C146.898,33.8455 146.8,33.8955 146.703,33.9485 C145.364,34.6875 144.05,35.4565 142.755,36.2455 C142.605,36.3375 142.454,36.4255 142.304,36.5175 C141.05,37.2905 139.819,38.0865 138.607,38.8995 C138.432,39.0165 138.256,39.1325 138.082,39.2505 C136.895,40.0565 135.73,40.8795 134.585,41.7165 C134.404,41.8495 134.222,41.9825 134.041,42.1155 C132.91,42.9525 131.8,43.8035 130.711,44.6645 C130.536,44.8025 130.363,44.9415 130.189,45.0805 C129.103,45.9485 128.037,46.8255 126.996,47.7115 C126.84,47.8435 126.687,47.9765 126.532,48.1085 C125.532,48.9665 124.553,49.8305 123.595,50.6975 L123.595,50.6925 C123.547,50.7365 123.5,50.7815 123.451,50.8255 C123.328,50.9375 123.208,51.0485 123.086,51.1605 C122.584,51.6195 122.086,52.0795 121.595,52.5395 L121.595,52.5585 C121.093,53.0305 120.576,53.5015 120.087,53.9745 C120.065,53.9945 120.042,54.0155 120.02,54.0365 C118.207,55.7885 115.179,54.6545 114.957,52.1425 L114.564,47.7075 C114.527,47.2905 114.619,46.8795 114.825,46.5265 C114.894,46.4085 114.975,46.2965 115.069,46.1935 C116.945,44.1275 121.895,39.0405 129.199,34.0515 C130.643,33.0645 132.181,32.0855 133.805,31.1305 C134.827,30.5295 135.883,29.9425 136.973,29.3705 C138.964,28.3245 141.052,27.3285 143.257,26.4335 C146.582,25.0835 149.976,24.0145 153.346,23.2585 C154.534,22.9925 155.723,22.7625 156.913,22.5705 C157.35,22.5005 157.788,22.4615 158.225,22.4005 C158.979,22.2965 159.733,22.1815 160.487,22.1075 C160.8,22.0765 161.112,22.0695 161.425,22.0445 C162.304,21.9715 163.184,21.8985 164.064,21.8665 C164.458,21.8525 164.851,21.8675 165.245,21.8615 C166.045,21.8495 166.844,21.8295 167.644,21.8505 C168.048,21.8605 168.451,21.9005 168.855,21.9205 C169.644,21.9585 170.433,21.9865 171.222,22.0575 C171.661,22.0965 172.099,22.1665 172.538,22.2155 C173.291,22.2995 174.045,22.3735 174.798,22.4875 C175.311,22.5655 175.824,22.6765 176.338,22.7685 C177.014,22.8895 177.692,22.9955 178.367,23.1405 C178.91,23.2565 179.451,23.4075 179.994,23.5395 C180.638,23.6965 181.283,23.8365 181.926,24.0145 C181.929,24.0155 181.932,24.0165 181.935,24.0175 C182.757,24.2455 182.946,25.3215 182.238,25.7955 L182.238,25.7955 Z M114.929,4.4325 L112.324,4.4325 C111.158,4.4325 110.934,2.7765 112.056,2.4615 C113.464,2.0655 114.986,1.9445 116.562,2.1635 C121.37,2.8295 125.252,6.7195 125.906,11.5285 C126.127,13.1485 125.99,14.7115 125.565,16.1505 C125.236,17.2665 123.595,17.0435 123.595,15.8795 L123.595,13.0985 C123.595,8.3125 119.716,4.4325 114.929,4.4325 L114.929,4.4325 Z M126.398,6.7955 C128.998,7.6905 130.875,10.1545 130.875,13.0555 C130.875,15.9565 128.998,18.4205 126.398,19.3155 C127.423,17.4565 128.01,15.3245 128.01,13.0555 C128.01,10.7875 127.423,8.6545 126.398,6.7955 L126.398,6.7955 Z M48.53,14.3125 C47.982,19.2275 44.068,23.2585 39.171,23.9455 C37.588,24.1675 36.06,24.0465 34.647,23.6495 C33.525,23.3345 33.748,21.6785 34.914,21.6785 L37.09,21.6785 C41.678,21.6785 45.691,18.2235 45.998,13.6455 C46.334,8.6255 42.344,4.4325 37.394,4.4325 L36.664,4.4325 C36.112,4.4325 35.664,4.8795 35.664,5.4325 C35.664,5.9845 36.112,6.4325 36.664,6.4325 L37.164,6.4325 C40.53,6.4325 43.533,8.8455 43.962,12.1845 C44.479,16.2235 41.333,19.6785 37.394,19.6785 L30.87,19.6785 C32.768,18.0955 33.979,15.7145 33.979,13.0555 C33.979,10.3965 32.768,8.0155 30.87,6.4325 L32.896,6.4325 C33.448,6.4325 33.896,5.9845 33.896,5.4325 C33.896,4.8795 33.448,4.4325 32.896,4.4325 C31.644,4.2745 32.397,3.3865 32.833,3.1535 C34.276,2.4535 35.891,2.0555 37.6,2.0555 C44.08,2.0555 49.269,7.6875 48.53,14.3125 L48.53,14.3125 Z M25.356,19.6785 C21.704,19.6785 18.733,16.7085 18.733,13.0555 C18.733,9.4035 21.704,6.4325 25.356,6.4325 C29.009,6.4325 31.979,9.4035 31.979,13.0555 C31.979,16.7085 29.009,19.6785 25.356,19.6785 L25.356,19.6785 Z M35.847,67.5055 C35.884,68.0565 35.468,68.5325 34.917,68.5705 C32.337,68.7455 29.603,68.8345 26.792,68.8345 C21.593,68.8345 16.555,68.5205 12.607,67.9485 C12.061,67.8705 11.682,67.3625 11.761,66.8165 C11.839,66.2695 12.347,65.8825 12.894,65.9705 C16.75,66.5275 21.686,66.8345 26.792,66.8345 C29.558,66.8345 32.246,66.7475 34.782,66.5745 C35.331,66.5615 35.81,66.9545 35.847,67.5055 L35.847,67.5055 Z M40.445,45.0115 L35.211,45.0115 C34.658,45.0115 34.211,45.4595 34.211,46.0115 C34.211,46.5645 34.658,47.0115 35.211,47.0115 L36.924,47.0115 C38.029,47.0115 38.924,47.9075 38.924,49.0115 L38.924,50.4185 C38.924,51.7915 39.495,53.0675 40.445,53.9935 L40.445,61.1285 C36.73,60.5615 31.975,60.2205 26.792,60.2205 C14.906,60.2205 5.271,62.0105 5.271,64.2205 L5.271,64.2205 L4.087,82.2155 C4.032,83.0525 4.317,83.8505 4.889,84.4625 C5.464,85.0755 6.241,85.4125 7.08,85.4125 L40.445,85.4125 L40.445,87.4125 L7.08,87.4125 C5.544,87.4125 4.132,86.7345 3.159,85.5165 C2.353,84.5055 2.017,83.1975 2.102,81.9085 L3.358,62.8335 C3.527,60.2575 5.092,57.9935 7.44,56.9225 L11.733,54.9685 C13.515,54.1575 14.659,52.3785 14.659,50.4205 L14.659,49.0115 C14.659,47.9075 15.554,47.0115 16.659,47.0115 L25.528,47.0115 C26.08,47.0115 26.528,46.5645 26.528,46.0115 C26.528,45.4595 26.08,45.0115 25.528,45.0115 L11.57,45.0115 C10.466,45.0115 9.57,44.1165 9.57,43.0115 L9.57,40.4315 C9.57,39.3265 10.466,38.4315 11.57,38.4315 L40.445,38.4315 L40.445,45.0115 Z M40.445,68.0165 C40.051,68.0705 39.666,68.1255 39.249,68.1745 C39.21,68.1795 39.171,68.1815 39.132,68.1815 C38.632,68.1815 38.199,67.8075 38.139,67.2975 C38.075,66.7495 38.467,66.2525 39.016,66.1885 C39.514,66.1295 39.981,66.0645 40.445,65.9995 L40.445,68.0165 Z M186.592,23.3805 C175.45,19.4905 164.116,18.7935 152.909,21.3075 C149.431,22.0875 145.931,23.1885 142.505,24.5805 C136.443,27.0415 131.137,30.1975 126.745,33.3225 C125.423,34.2635 123.595,33.3145 123.595,31.6915 L123.596,23.2245 C123.596,22.9485 123.715,22.6895 123.916,22.4995 C124.201,22.2305 124.474,21.9485 124.734,21.6545 C129.264,21.4015 132.875,17.6485 132.875,13.0555 C132.875,8.4635 129.264,4.7095 124.734,4.4575 C122.35,1.7645 118.88,0.0555 115.01,0.0555 C111.549,0.0555 108.406,1.4235 106.076,3.6395 C105.532,4.1575 104.803,4.4325 104.052,4.4325 L48.948,4.4325 C47.947,4.4325 46.994,4.0445 46.249,3.3755 C43.95,1.3155 40.923,0.0555 37.6,0.0555 C33.742,0.0555 30.282,1.7545 27.899,4.4325 L25.859,4.4325 C25.823,4.4325 25.793,4.4495 25.758,4.4525 C25.624,4.4465 25.492,4.4325 25.356,4.4325 C20.601,4.4325 16.733,8.3005 16.733,13.0555 C16.733,17.7155 20.451,21.5145 25.076,21.6645 L25.034,21.6785 C27.417,24.3565 30.878,26.0555 34.736,26.0555 C34.918,26.0555 35.099,26.0515 35.28,26.0445 C38.104,25.9245 40.445,28.2085 40.445,31.0355 L40.445,33.9415 C40.445,35.5425 39.55,36.4315 38.445,36.4315 L10.57,36.4315 C8.913,36.4315 7.57,37.7745 7.57,39.4315 L7.57,43.9745 C7.57,45.6075 8.861,47.0715 10.493,47.0135 C11.682,46.9705 12.659,47.9215 12.659,49.1005 L12.659,50.4185 C12.659,51.5935 11.972,52.6615 10.902,53.1495 L6.611,55.1025 C3.596,56.4755 1.58,59.3935 1.363,62.6985 L0.094,81.9535 C-0.041,84.0285 0.72,86.0015 2.231,87.4605 C3.581,88.7645 5.436,89.4125 7.312,89.4125 L36.445,89.4125 C38.654,89.4125 40.445,91.2025 40.445,93.4125 L40.445,102.0185 C40.445,106.6535 43.95,110.7035 48.577,110.9835 L51.755,110.9835 L51.755,110.9805 C53.334,111.0195 54.825,110.6495 56.115,109.9455 C56.36,109.8125 56.588,109.6555 56.818,109.5005 C59.119,107.9405 60.643,105.3165 60.643,102.3335 L60.643,94.6715 C60.643,93.5675 61.539,92.6715 62.643,92.6715 L132.381,92.6715 C133.486,92.6715 134.381,93.5675 134.381,94.6715 L134.381,102.3335 C134.381,106.0155 131.396,109.0005 127.714,109.0005 L64.309,109.0005 C63.942,109.0005 63.634,109.2035 63.465,109.5005 C63.404,109.6075 63.359,109.7245 63.34,109.8515 C63.332,109.9015 63.309,109.9475 63.309,110.0005 C63.309,110.5525 63.757,111.0005 64.309,111.0005 L127.714,111.0005 C132.501,111.0005 136.381,107.1195 136.381,102.3335 L136.381,93.6715 C136.381,92.0155 135.038,90.6715 133.381,90.6715 L124.595,90.6715 C124.043,90.6715 123.595,90.2245 123.595,89.6715 L123.595,69.0935 C123.595,68.5415 123.148,68.0935 122.595,68.0935 C122.409,68.0935 122.245,68.1585 122.095,68.2465 C121.802,68.4205 121.595,68.7275 121.595,69.0935 L121.595,87.6585 C121.595,89.3155 120.253,90.6575 118.596,90.6585 L61.643,90.6715 C59.987,90.6715 58.643,92.0145 58.643,93.6715 L58.643,102.0995 C58.643,105.4875 56.215,108.5115 52.855,108.9435 C48.789,109.4655 45.309,106.2975 45.309,102.3335 L45.31,24.9065 C45.31,24.0575 45.675,23.2535 46.305,22.6835 C48.938,20.3055 50.6,16.8745 50.6,13.0555 C50.6,12.0555 50.485,11.0825 50.267,10.1485 C49.826,8.2515 51.227,6.4325 53.175,6.4325 L114.928,6.4325 C118.611,6.4325 121.595,9.4175 121.595,13.0995 L121.595,37.2815 C115.932,41.9775 112.742,45.8095 112.682,45.8815 C112.516,46.0845 112.435,46.3435 112.459,46.6045 L113.457,57.8875 C113.603,59.5385 113.058,61.1815 111.95,62.4155 C107.161,67.7485 103.303,72.7165 100.483,76.6125 C100.159,77.0595 100.259,77.6845 100.707,78.0075 C100.884,78.1365 101.089,78.1985 101.292,78.1985 C101.601,78.1985 101.907,78.0545 102.102,77.7845 C104.717,74.1725 108.242,69.6255 112.574,64.7265 C113.971,63.1475 116.105,62.4245 118.176,62.8165 L122.095,63.5575 L134.227,65.8495 C134.289,65.8615 134.351,65.8675 134.413,65.8675 C134.75,65.8675 135.069,65.6965 135.256,65.4065 C136.19,63.9445 137.849,62.0695 140.185,59.8335 C140.438,59.5905 140.547,59.2335 140.469,58.8915 C140.393,58.5495 140.143,58.2735 139.811,58.1625 L137.507,57.3915 L145.046,55.3575 C145.187,55.3195 145.315,55.2525 145.427,55.1585 C160.74,42.2335 186.55,25.3315 186.809,25.1625 C187.129,24.9545 187.301,24.5825 187.255,24.2045 C187.209,23.8265 186.952,23.5065 186.592,23.3805 L186.592,23.3805 Z" mask="url(#d)"/>
      </g>
    </g>
    <rect width="272" height="130"/>
  </g>
</svg>
