<svg width="64" height="64" viewBox="0 0 64 64" fill="none" xmlns="http://www.w3.org/2000/svg">
<g clip-path="url(#clip0)">
<path d="M31.854 55.357C44.5791 55.357 54.8949 45.0073 54.8949 32.2403C54.8949 19.4733 44.5791 9.12354 31.854 9.12354C19.1289 9.12354 8.81311 19.4733 8.81311 32.2403C8.81311 45.0073 19.1289 55.357 31.854 55.357Z" fill="#D7E3FF"/>
<path d="M5.63919 48.7123L5.634 48.7175C5.4679 48.8841 5.4679 49.1543 5.634 49.321L5.93994 49.6279C6.10604 49.7946 6.37534 49.7946 6.54144 49.6279L6.54662 49.6227C6.71272 49.4561 6.71272 49.1859 6.54662 49.0192L6.24069 48.7123C6.07459 48.5456 5.80529 48.5456 5.63919 48.7123Z" fill="#7196FF"/>
<path d="M8.05911 51.1455L8.05392 51.1507C7.88782 51.3173 7.88783 51.5875 8.05393 51.7541L8.35986 52.0611C8.52596 52.2277 8.79526 52.2277 8.96136 52.0611L8.96655 52.0559C9.13265 51.8892 9.13265 51.619 8.96655 51.4524L8.66061 51.1455C8.49451 50.9788 8.22521 50.9788 8.05911 51.1455Z" fill="#7196FF"/>
<path d="M8.96682 48.7203L8.96164 48.7151C8.79554 48.5484 8.52624 48.5484 8.36014 48.7151L8.0542 49.022C7.8881 49.1887 7.8881 49.4588 8.0542 49.6255L8.05939 49.6307C8.22549 49.7973 8.49479 49.7973 8.66089 49.6307L8.96682 49.3238C9.13292 49.1571 9.13292 48.8869 8.96682 48.7203Z" fill="#7196FF"/>
<path d="M6.55398 51.1534L6.5488 51.1482C6.3827 50.9816 6.1134 50.9816 5.9473 51.1482L5.64136 51.4552C5.47526 51.6218 5.47526 51.892 5.64136 52.0587L5.64655 52.0639C5.81265 52.2305 6.08195 52.2305 6.24805 52.0639L6.55398 51.7569C6.72008 51.5903 6.72008 51.3201 6.55398 51.1534Z" fill="#7196FF"/>
<path d="M55.2247 54.7179C55.2247 54.3888 54.9604 54.1219 54.6344 54.1219C54.3084 54.1219 54.0441 54.3888 54.0441 54.7179V55.3065C54.0441 55.6356 54.3084 55.9024 54.6344 55.9024C54.9604 55.9024 55.2247 55.6356 55.2247 55.3065V54.7179Z" fill="#F47FFF"/>
<path d="M55.2247 59.4634C55.2247 59.1342 54.9604 58.8674 54.6344 58.8674C54.3084 58.8674 54.0441 59.1342 54.0441 59.4634V60.052C54.0441 60.3811 54.3084 60.6479 54.6344 60.6479C54.9604 60.6479 55.2247 60.3811 55.2247 60.052V59.4634Z" fill="#F47FFF"/>
<path d="M57.2857 57.9698C57.6137 57.9698 57.8796 57.7046 57.8796 57.3775C57.8796 57.0504 57.6137 56.7853 57.2857 56.7853H56.699C56.3709 56.7853 56.105 57.0504 56.105 57.3775C56.105 57.7046 56.3709 57.9698 56.699 57.9698H57.2857Z" fill="#F47FFF"/>
<path d="M52.5629 57.9772C52.8909 57.9772 53.1569 57.712 53.1569 57.3849C53.1569 57.0578 52.8909 56.7927 52.5629 56.7927H51.9762C51.6482 56.7927 51.3822 57.0578 51.3822 57.3849C51.3822 57.712 51.6482 57.9772 51.9762 57.9772H52.5629Z" fill="#F47FFF"/>
<path d="M51.1524 19.0348L50.4631 20.4621C50.4271 20.5352 50.4148 20.6178 50.428 20.6982C50.4412 20.7787 50.4792 20.853 50.5367 20.9106C50.5942 20.9683 50.6682 21.0064 50.7484 21.0197C50.8286 21.0329 50.9109 21.0206 50.9838 20.9845L52.4064 20.337C52.4571 20.3138 52.5121 20.3018 52.5677 20.3018C52.6234 20.3018 52.6784 20.3138 52.7291 20.337L54.1517 21.0212C54.2246 21.0574 54.3069 21.0697 54.3871 21.0565C54.4673 21.0432 54.5413 21.0051 54.5988 20.9474C54.6563 20.8898 54.6943 20.8155 54.7075 20.735C54.7207 20.6546 54.7084 20.572 54.6724 20.4989L53.9904 19.0715C53.965 19.0188 53.9519 18.9609 53.9519 18.9023C53.9519 18.8437 53.965 18.7859 53.9904 18.7331L54.6724 17.3058C54.7127 17.2359 54.7305 17.1552 54.7232 17.0748C54.7158 16.9943 54.6838 16.9182 54.6315 16.8568C54.5792 16.7954 54.5091 16.7518 54.4311 16.7321C54.353 16.7124 54.2708 16.7175 54.1957 16.7466L52.7291 17.4309C52.6765 17.4563 52.6188 17.4695 52.5604 17.4695C52.502 17.4695 52.4444 17.4563 52.3918 17.4309L50.9691 16.7466C50.8963 16.7105 50.8139 16.6982 50.7337 16.7114C50.6536 16.7247 50.5795 16.7628 50.522 16.8204C50.4646 16.8781 50.4266 16.9524 50.4134 17.0329C50.4002 17.1133 50.4124 17.1959 50.4485 17.269L51.1378 18.6963C51.1654 18.748 51.1811 18.8053 51.1837 18.8639C51.1862 18.9225 51.1755 18.9809 51.1524 19.0348Z" fill="#60CFAC"/>
<path d="M24.7626 32.1381C24.5335 32.1358 24.3088 32.0744 24.1103 31.96C23.9118 31.8456 23.7461 31.6819 23.6293 31.4848L18.2959 22.6315C18.1733 22.3339 18.1624 22.0021 18.2653 21.6972C18.3681 21.3922 18.5778 21.1348 18.8556 20.9724C19.1334 20.8099 19.4605 20.7534 19.7767 20.8133C20.0929 20.8731 20.3768 21.0454 20.5759 21.2981L25.9093 30.1515C26.0907 30.454 26.1449 30.8161 26.0599 31.1584C25.9749 31.5008 25.7578 31.7955 25.4559 31.9781C25.2436 32.0933 25.0039 32.1486 24.7626 32.1381ZM37.9093 30.7381C37.6966 30.7356 37.4876 30.6823 37.2997 30.5825C37.1118 30.4828 36.9505 30.3396 36.8293 30.1648C36.7221 30.0214 36.6448 29.858 36.6021 29.6842C36.5595 29.5104 36.5522 29.3297 36.5808 29.153C36.6094 28.9764 36.6734 28.8072 36.7687 28.6558C36.8641 28.5043 36.989 28.3736 37.1359 28.2715C38.3662 27.3955 39.3474 26.2146 39.9832 24.8447C40.6191 23.4749 40.8876 21.9632 40.7626 20.4581C40.7131 20.1045 40.8061 19.7457 41.0211 19.4606C41.2362 19.1756 41.5556 18.9876 41.9093 18.9381C42.2629 18.8886 42.6217 18.9816 42.9067 19.1966C43.1918 19.4117 43.3798 19.7312 43.4293 20.0848C43.6263 22.0745 43.2935 24.0809 42.4645 25.9004C41.6355 27.72 40.34 29.2878 38.7093 30.4448C38.4819 30.6274 38.2008 30.7305 37.9093 30.7381Z" fill="black"/>
<path d="M35.9492 23.2182L35.4692 19.4982C35.2661 17.9795 34.4744 16.6015 33.2648 15.6612C32.0551 14.7209 30.5243 14.2936 29.0025 14.4715C28.2426 14.5685 27.5094 14.8147 26.845 15.196C26.1806 15.5772 25.5981 16.0861 25.1309 16.6932C24.6638 17.3003 24.3213 17.9938 24.1231 18.7337C23.9248 19.4737 23.8748 20.2455 23.9758 21.0049L24.4425 24.6715C24.6468 26.3906 24.2664 28.1284 23.3625 29.6049C22.5038 31.1135 22.0829 32.8316 22.147 34.5663C22.2111 36.3009 22.7576 37.9833 23.7252 39.4244C24.6929 40.8656 26.0432 42.0083 27.6245 42.7242C29.2058 43.4402 30.9555 43.7009 32.6768 43.4772C34.3982 43.2535 36.0231 42.5542 37.3689 41.4578C38.7146 40.3615 39.728 38.9116 40.2951 37.271C40.8622 35.6304 40.9606 33.8641 40.5792 32.1707C40.1977 30.4773 39.3516 28.9239 38.1358 27.6849C36.93 26.4809 36.1605 24.909 35.9492 23.2182Z" fill="black"/>
<path d="M40.9089 55.0715C40.6097 55.0826 40.3154 54.9926 40.0735 54.816C39.8316 54.6395 39.6562 54.3866 39.5756 54.0982C38.3809 49.7757 36.741 45.5889 34.6823 41.6049C34.5725 41.454 34.4957 41.2817 34.4567 41.0993C34.4177 40.9169 34.4174 40.7283 34.4559 40.5457C34.4944 40.3632 34.5707 40.1907 34.68 40.0395C34.7893 39.8883 34.9291 39.7617 35.0904 39.668C35.2517 39.5742 35.4309 39.5153 35.6163 39.4951C35.8018 39.4749 35.9895 39.4939 36.1671 39.5508C36.3448 39.6077 36.5086 39.7012 36.6478 39.8254C36.7871 39.9495 36.8988 40.1015 36.9756 40.2715C39.1774 44.4738 40.9251 48.8988 42.1889 53.4715C42.2355 53.6405 42.2482 53.817 42.2265 53.9909C42.2047 54.1648 42.1489 54.3327 42.0623 54.485C41.9756 54.6373 41.8597 54.7711 41.7213 54.8786C41.5829 54.9861 41.4246 55.0652 41.2556 55.1115C41.1389 55.1114 41.0226 55.098 40.9089 55.0715Z" fill="black"/>
<path d="M30.3356 56.8848C29.982 56.8848 29.6428 56.7443 29.3928 56.4943C29.1427 56.2442 29.0023 55.9051 29.0023 55.5515C29.2866 50.6351 28.9144 45.7028 27.8956 40.8848C27.8355 40.5312 27.9183 40.1682 28.1258 39.8756C28.3334 39.583 28.6486 39.3849 29.0023 39.3248C29.3559 39.2647 29.7189 39.3475 30.0115 39.555C30.304 39.7626 30.5022 40.0778 30.5623 40.4315C31.5813 45.4207 31.9533 50.5205 31.6689 55.6048C31.6552 55.9491 31.5086 56.2747 31.26 56.5133C31.0115 56.7519 30.6802 56.8851 30.3356 56.8848Z" fill="black"/>
<path d="M14.9673 2.91284C15.68 2.60088 16.4874 2.58482 17.2119 2.86818C17.9365 3.15154 18.5188 3.7111 18.8307 4.42379L26.0378 20.8889L20.6635 23.2413L13.4564 6.77626C13.3019 6.42337 13.2184 6.04352 13.2108 5.65838C13.2031 5.27325 13.2714 4.89037 13.4117 4.53162C13.552 4.17287 13.7616 3.84527 14.0285 3.56752C14.2954 3.28977 14.6144 3.06731 14.9673 2.91284Z" fill="#FF9A15"/>
<path d="M12.5755 15.0983L19.0614 12.2593L23.3386 22.0308L13.9335 26.1476L10.9287 19.2831C10.594 18.5096 10.5793 17.635 10.888 16.8507C11.1966 16.0663 11.8034 15.4362 12.5755 15.0983Z" fill="#FF9A15"/>
<path d="M18.0513 15.2083L18.1689 14.5681L23.3041 15.5113L22.8409 18.0331L19.5873 17.4355C19.0882 17.3439 18.646 17.0577 18.358 16.64C18.0699 16.2224 17.9596 15.7073 18.0513 15.2083Z" fill="#FFD836"/>
<path d="M23.5759 15.2448L26.0426 20.8981L20.7092 23.2448V23.1115C20.2486 22.0558 20.2257 20.8605 20.6457 19.788C21.0657 18.7155 21.8942 17.8536 22.9492 17.3915L23.5759 15.2448Z" fill="#FFD836"/>
</g>
<defs>
<clipPath id="clip0">
<rect x="5.33337" y="2.66669" width="52.5463" height="57.9812" fill="white"/>
</clipPath>
</defs>
</svg>
