<svg xmlns="http://www.w3.org/2000/svg" width="166" height="144" viewBox="0 0 166 144" xmlns:xlink="http://www.w3.org/1999/xlink">
  <defs>
    <polygon id="a" points="7.681 3.652 7.681 .228 .054 .228 .054 3.652 7.681 3.652"/>
    <polygon id="c" points="0 .499 0 23.657 51.658 23.657 51.658 .499 0 .499"/>
  </defs>
  <g fill="none" fill-rule="evenodd">
    <path fill="#4F5D7F" d="M37.1665326,97.6629277 C25.8558292,78.0722147 26.6607293,53.6893101 38.7250123,33.4094088 C50.7736092,13.1565223 75.3755082,-4.65016905 99.2830826,4.97544066 C102.817432,6.39830567 106.12032,8.35527289 108.855562,10.9129363 C113.193197,14.9687395 115.9384,20.3440431 118.673388,25.5833743 C123.452905,34.739917 128.806375,44.1914703 137.018194,50.8118224 C144.711421,57.0143327 155.178961,58.9066334 161.341982,67.1060176 C169.836439,78.4072396 163.134182,92.3093289 154.138192,101.951777 C141.89077,115.078701 126.203136,128.685633 108.529654,127.837796 C100.66276,127.460404 88.5488281,127.837796 78.1067602,127.460404 C60.1955702,126.813065 45.8153086,112.643047 37.1665326,97.6629277 Z"/>
    <path fill="#4F5D7F" d="M133.923323,35.8804771 C121.853646,27.00006 115.629754,5.69902158 133.477183,1.45354805 C135.17444,1.04973599 136.921242,0.87843163 138.64031,0.967012634 C148.546956,1.47747336 156.553746,8.87131543 158.541448,17.9135684 C159.864819,23.9344952 158.802441,32.8908896 153.226699,36.8976933 C146.781961,41.5290462 139.686182,40.1205238 133.923323,35.8804771 Z"/>
    <g transform="translate(0 42)">
      <path fill="#FF5C5C" d="M56.869661,68.0110034 L43.2052542,71.2686814 C42.0442373,71.5451475 40.880678,70.8193169 40.6069492,69.6466898 L38.869661,62.2146305 C38.5959322,61.0420034 39.3154237,59.8668085 40.4764407,59.5903424 L54.1408475,56.3326644 C55.3018644,56.0561983 56.4654237,56.7828847 56.7391525,57.9555119 L58.4755932,65.3867153 C58.7501695,66.5593424 58.030678,67.7345373 56.869661,68.0110034"/>
      <path fill="#000000" d="M130.426949,22.7225178 C129.31678,21.2845517 128.127797,19.9475856 126.883729,18.6893653 L55.3854237,35.7335432 C50.9718644,49.1228907 53.0557627,64.4192551 62.2922034,76.3826195 C62.7583051,76.9860517 63.2371186,77.5732212 63.7277966,78.1449839 C63.7371186,78.1595347 63.7430508,78.1740856 63.7549153,78.1894924 C65.1371186,80.0134839 65.5557627,81.8357636 65.2828814,84.1074076 C65.1930508,84.8546364 64.71,85.4306788 64.9989831,86.2412466 C65.3845763,87.3214331 66.0464407,87.4181534 67.0388136,87.6894839 C68.76,88.1602466 120.921864,87.8170178 122.917627,87.7742212 C125.01339,87.7297127 127.382881,87.9454076 129.181186,86.6512381 C129.592203,86.3550856 129.771864,85.6746195 129.318475,85.3005771 C127.248983,83.5878568 127.230339,81.640611 128.061695,79.7019246 C129.21339,77.0142975 131.996441,74.343789 133.211695,72.3383398 C136.218475,67.3773568 138.217627,61.8103737 139.075254,56.0585093 C140.832034,44.2860178 137.676102,32.1120941 130.426949,22.7225178"/>
      <path fill="#4F5D7F" d="M67.0878814,81.8605 C67.0980508,81.9495169 67.1133051,82.036822 67.1200847,82.125839 C67.1022881,81.9015847 67.0929661,81.835678 67.0878814,81.8605"/>
      <polygon fill="#000000" points="106.589 42.709 52.619 55.575 45.49 25.066 99.459 12.201"/>
      <path fill="#202225" d="M56.7092373,30.1086136 C58.8524576,32.7465966 61.8075424,31.8495797 64.6744915,30.9722492 C67.7261864,30.0384271 70.8431356,28.6158678 70.6380508,24.8780119 C70.534661,22.9941051 69.7422881,21.1786729 68.7727966,19.5164525 L53.6965254,23.1096559 C54.2219492,25.5901475 55.1151695,28.145961 56.7092373,30.1086136"/>
      <path fill="#B7C2CE" d="M77.0189831,67.6907992 L51.7918644,73.7045788 C48.3088136,74.5348331 44.8189831,72.3556297 43.9969492,68.8377483 L41.0198305,56.0980534 L74.2901695,56.0124602 L77.0189831,67.6907992 Z"/>
      <path fill="#7687B2" d="M113.622203,71.912428 C101.395085,81.5416653 83.7552542,79.3367839 74.2213559,66.98825 C64.6874576,54.6388602 66.8705085,36.8217754 79.0967797,27.1925381 C91.3238983,17.5633008 108.963729,19.7681822 118.497627,32.117572 C128.031525,44.4661059 125.849322,62.2831907 113.622203,71.912428"/>
      <path fill="#FF7F14" d="M135.967627,70.4701822 C129.531186,72.0040127 110.034576,58.3835636 98.8311864,49.1223771 C96.469322,38.7998347 91.8362712,12.8368432 96.319322,5.50064831 C96.9633898,4.44613983 97.5828814,4.19449576 97.9922034,4.09691949 C98.2294915,4.04042797 98.4955932,4.01988559 98.7837288,4.03529237 C112.225254,4.77824153 124.068475,10.9383856 132.130339,21.3807585 C142.280339,34.5278771 144.200678,52.4716398 137.26678,69.3788686 C137.015085,69.9942839 136.638814,70.3101229 135.967627,70.4701822"/>
      <path fill="#C16F40" fill-opacity=".3" d="M132.130593,21.3806729 C125.576356,12.8923932 116.523814,7.23382542 106.145,5.01439322 C106.592458,10.0224525 104.457712,15.1006983 100.517034,18.4585203 C98.6382203,20.0591136 96.5831356,20.9450034 94.5907627,21.0896559 C95.1865254,31.1348763 97.415339,42.9364695 98.8305932,49.1231475 C110.033983,58.383478 129.531441,72.0047831 135.967881,70.4700966 C136.63822,70.3100373 137.015339,69.9941983 137.267034,69.3787831 C144.200932,52.4715542 142.280593,34.5277915 132.130593,21.3806729"/>
      <path stroke="#E4E9F7" stroke-width="5" d="M74.5667797,4.27324153 L90.9108475,0.377038136 C92.1972881,0.0706144068 93.5388136,0.583317797 94.3015254,1.67377542 L111.948136,26.8980975" stroke-linecap="round" stroke-linejoin="round"/>
      <path fill="#FF903E" d="M96.894661,50.338828 C96.894661,50.338828 112.065,3.91135339 118.035339,6.9362178 C124.006525,9.96193814 129.420932,14.3237686 133.833644,20.0396839 C145.274322,34.8575822 145.928559,53.9594212 139.262458,70.2135737 C134.535339,81.7421246 96.894661,50.338828 96.894661,50.338828"/>
      <path fill="#D17E47" fill-opacity=".6" d="M120.887627 14.543572C119.643559 19.1955636 123.291017 16.5070805 125.104576 16.5567246 128.23339 16.6414619 128.007966 20.0746059 129.087627 22.1117246 130.707966 25.1691144 132.754576 23.1097415 135.277458 24.2875042 136.062203 24.6538432 136.795254 25.0972161 137.503729 25.5748263 136.431695 23.6763686 135.213051 21.8258432 133.83339 20.0395127 130.888475 16.2237669 127.488475 13.0260042 123.78339 10.4119873 122.540169 11.576911 121.278305 13.0824958 120.887627 14.543572M133.562797 59.4248051C131.910254 59.6747373 129.74161 59.3212373 128.481441 58.1323475 124.297542 54.1882119 129.726356 47.3998136 123.874661 43.5678051 119.095847 40.437661 112.543305 43.4017542 107.695847 39.453339 105.166186 37.3931102 104.156017 34.3862203 103.744153 31.2475169 99.8907627 41.170339 96.895 50.3390847 96.895 50.3390847 96.895 50.3390847 134.534831 81.7423814 139.262797 70.2138305 141.042458 65.8742542 142.285678 61.3309661 142.954322 56.7217712 139.639915 54.4835085 137.052627 58.8966949 133.562797 59.4248051"/>
      <path fill="#D17E47" fill-opacity=".6" d="M135.060593,46.2208525 C135.008898,46.2371153 134.962288,46.2627932 134.912288,46.2807678 C134.907203,46.2824797 134.903814,46.2867593 134.898729,46.2884712 C134.897034,46.2901831 134.897034,46.291039 134.894492,46.2927508 C134.887712,46.3004542 134.882627,46.3055898 134.874153,46.3201407 C134.864831,46.3355475 134.862288,46.3389712 134.857203,46.3475305 C134.891949,46.8054542 134.670763,47.2436915 134.191949,47.3583864 C134.076695,47.3857763 133.952966,47.3849203 133.83178,47.3618102 C133.825847,47.3737932 133.820763,47.3849203 133.815678,47.3969034 C133.888559,47.9138864 133.569915,48.2708102 133.188559,48.4154627 C132.711441,49.4588441 132.536864,50.6357508 133.930932,50.8882508 C135.463136,51.1655729 136.803814,49.8833864 137.07839,48.4419966 C137.369068,46.9210051 136.67839,45.7201322 135.060593,46.2208525"/>
      <path fill="#DAE2ED" d="M141.355339,63.7495737 C140.134153,64.5952347 138.334153,65.147311 135.690085,64.8169212 C124.952797,63.4756754 104.834153,47.7308025 99.2222881,43.1900822 C96.3197458,46.9519042 94.5672034,49.883472 94.7926271,50.842972 L94.9604237,51.5542517 L95.5188983,52.0207347 C96.5595763,52.88865 121.150254,73.303489 133.44178,74.8398873 C138.624831,75.486972 140.563814,72.7419975 141.258729,71.0481076 C143.261271,66.1650144 142.527373,62.93815 141.355339,63.7495737"/>
      <path fill="#000000" d="M53.3734746,42.8004619 L44.1870339,44.9899364 L38.2327966,19.5114025 C37.8217797,17.7524619 38.9005932,15.9892415 40.6421186,15.5741144 L43.5217797,14.8876568 C45.2633051,14.4725297 47.0082203,15.5621314 47.4192373,17.321072 L53.3734746,42.8004619 Z"/>
      <polygon fill="#D0D9EA" points="67.359 62.165 50.097 57.051 52.99 47.088 70.253 52.202"/>
      <path fill="#EBEFF7" d="M51.9850847,60.5170602 L8.76813559,51.4690008 C7.93338983,51.2943907 7.22915254,50.721772 6.91389831,49.9223314 C6.22830508,48.1839331 5.49271186,44.6429415 7.15457627,38.9201788 C8.81644068,33.1974161 11.3291525,30.6184924 12.8350847,29.5297466 C13.5291525,29.0290263 14.4274576,28.93145 15.2232203,29.2395856 L56.4325424,45.2018653 C57.6825424,45.6854669 58.3554237,47.0583822 57.9783051,48.3551195 L54.9723729,58.7059076 C54.5961017,60.0035008 53.2961017,60.7918144 51.9850847,60.5170602"/>
      <path fill="#B7C2CE" fill-opacity=".6" d="M19.8975424 38.4955508C22.7585593 40.7594915 24.3119492 41.5152797 27.4551695 38.7446271 28.4221186 37.8912627 29.2339831 37.3366186 30.6094068 37.3426102 31.3924576 37.3460339 35.704322 38.2875593 37.5526271 37.8886949L15.2229661 29.2395C14.4272034 28.9313644 13.5288983 29.0289407 12.835678 29.5305169 11.3288983 30.6184068 8.81618644 33.1973305 7.15432203 38.9200932 7.1390678 38.9723051 7.12805085 39.0210932 7.11279661 39.0733051 10.515339 35.6358814 15.115339 34.7106186 19.8975424 38.4955508M30.6654237 42.6890195C30.8433898 42.0547737 30.59 41.2510534 30.0662712 40.8470534 29.3832203 40.3206551 28.7518644 40.8984093 28.3264407 41.4924263 27.9823729 42.1942907 27.8916949 43.427689 28.680678 43.8547992 29.4035593 44.2459602 30.4688136 43.390028 30.6654237 42.6890195"/>
      <path fill="#DAE2ED" d="M83.8984746,69.7691737 L64.169661,63.9248686 C63.4891525,63.7228686 63.0984746,63.0021737 63.2984746,62.3140042 L66.9154237,49.8610466 C67.1145763,49.1728771 67.8289831,48.7791483 68.5094915,48.9802924 L88.2383051,54.8245975 L83.8984746,69.7691737 Z"/>
      <path fill="#EBEFF7" d="M110.966441,68.4724364 C100.620678,76.6200551 85.6944068,74.7549788 77.6266102,64.3057585 C69.559661,53.8565381 71.4071186,38.7810042 81.7528814,30.6325297 C92.0986441,22.484911 107.024915,24.3508432 115.091864,34.8000636 C123.158814,45.248428 121.312203,60.3248178 110.966441,68.4724364"/>
      <path fill="#DAE2ED" d="M108.642542,65.4624653 C99.9425424,72.3142025 87.3908475,70.7452788 80.6069492,61.9582788 C73.8230508,53.1721347 75.3764407,40.4940669 84.0764407,33.6423297 C92.7764407,26.7914483 105.328136,28.3595161 112.112034,37.1465161 C118.895932,45.9335161 117.342542,58.610728 108.642542,65.4624653"/>
      <path fill="#C5CEDD" d="M102.039407,35.9304932 L110.695339,45.2139339 C111.224153,45.7814169 111.413136,46.5911288 111.191102,47.3375017 L107.558898,59.5507983 C107.336864,60.2971712 106.737712,60.867222 105.986864,61.0461119 L93.6978814,63.9751119 C92.9470339,64.1548576 92.1588983,63.9151966 91.6292373,63.3477136 L82.9733051,54.0642729 C82.4444915,53.4967898 82.2555085,52.687078 82.4775424,51.9407051 L86.1097458,39.7274085 C86.3317797,38.9810356 86.9317797,38.4109847 87.6826271,38.2320949 L99.9707627,35.3030949 C100.72161,35.1242051 101.510593,35.3630102 102.039407,35.9304932"/>
      <path fill="#EBEFF7" d="M100.616356,55.0663127 C97.6011017,57.4406686 93.2511017,56.8971517 90.9002542,53.8517449 C88.5494068,50.8071941 89.0875424,46.4136941 92.1027966,44.0384822 C95.1180508,41.6641263 99.4680508,42.2076432 101.818898,45.25305 C104.169746,48.2984568 103.63161,52.6919568 100.616356,55.0663127"/>
      <path fill="#C5CEDD" d="M146.522458,89.5435186 L138.047881,89.5435186 C137.111441,89.5435186 136.352966,88.7774593 136.352966,87.8316542 L136.352966,87.8316542 C136.352966,86.8858492 137.111441,86.1197898 138.047881,86.1197898 L146.522458,86.1197898 C147.458898,86.1197898 148.217373,86.8858492 148.217373,87.8316542 L148.217373,87.8316542 C148.217373,88.7774593 147.458898,89.5435186 146.522458,89.5435186"/>
      <path fill="#DAE2ED" d="M148.195593,91.6833492 L144.805763,91.6833492 C144.337966,91.6833492 143.958305,91.2998915 143.958305,90.8274169 L143.958305,84.8358915 C143.958305,84.3634169 144.337966,83.9799593 144.805763,83.9799593 L148.195593,83.9799593 C148.66339,83.9799593 149.043051,84.3634169 149.043051,84.8358915 L149.043051,90.8274169 C149.043051,91.2998915 148.66339,91.6833492 148.195593,91.6833492"/>
      <path fill="#C5CEDD" d="M154.714576,92.5612788 L154.714576,85.7138212 C154.714576,84.7680161 155.473051,84.0019568 156.409492,84.0019568 L156.409492,84.0019568 C157.345932,84.0019568 158.104407,84.7680161 158.104407,85.7138212 L158.104407,92.5612788 C158.104407,93.5070839 157.345932,94.2731432 156.409492,94.2731432 L156.409492,94.2731432 C155.473051,94.2731432 154.714576,93.5070839 154.714576,92.5612788"/>
      <g transform="translate(152.542 91.456)">
        <mask id="b" fill="white">
          <use xlink:href="#a"/>
        </mask>
        <path fill="#DAE2ED" d="M0.053559322,2.79564576 L0.053559322,1.08378136 C0.053559322,0.61130678 0.433220339,0.227849153 0.901016949,0.227849153 L6.83322034,0.227849153 C7.30101695,0.227849153 7.68067797,0.61130678 7.68067797,1.08378136 L7.68067797,2.79564576 C7.68067797,3.26812034 7.30101695,3.65157797 6.83322034,3.65157797 L0.901016949,3.65157797 C0.433220339,3.65157797 0.053559322,3.26812034 0.053559322,2.79564576" mask="url(#b)"/>
      </g>
      <path fill="#4F545C" d="M56.3715254 25.7034729C55.3757627 25.6469814 54.5342373 26.3385746 53.5469492 26.2743797 53.0020339 26.2384305 53.0045763 27.0952186 53.5469492 27.1303119 54.5461017 27.1953627 55.3901695 26.5037695 56.3715254 26.5594051 56.9164407 26.5902186 56.9147458 25.7342864 56.3715254 25.7034729M57.9699153 27.6940288C57.9080508 27.6965966 57.8461864 27.6983085 57.784322 27.7008763 57.7114407 27.7034441 57.6504237 27.7222746 57.5970339 27.7505203 57.2563559 27.8378254 56.9563559 28.0047322 56.6012712 28.1134356 55.9800847 28.3034525 55.3182203 28.2837661 54.6766949 28.2709271 54.1309322 28.2606559 54.1309322 29.1165881 54.6766949 29.1268593 55.2377119 29.1379864 55.7978814 29.1396983 56.3538136 29.0446898 56.8970339 28.9513932 57.4317797 28.5705034 57.9699153 28.549961 58.5131356 28.5294186 58.5165254 27.6743424 57.9699153 27.6940288M68.5355085 29.8231602L67.1227966 28.3963212C66.7372034 28.006872 66.1372034 28.6120161 66.5236441 29.0014653L67.9363559 30.4283042C68.3227966 30.8186093 68.9219492 30.2134653 68.5355085 29.8231602M70.9481356 27.1452907C70.7684746 27.1838076 70.4269492 26.8191805 70.2938983 26.7156127 70.0464407 26.5238839 69.789661 26.3501297 69.4786441 26.2893585 68.9455932 26.1849347 68.7176271 27.0100534 69.2532203 27.1144771 69.9845763 27.2582737 70.3320339 28.1527229 71.1735593 27.9704093 71.7066102 27.8557144 71.4811864 27.0297398 70.9481356 27.1452907"/>
      <polygon fill="#D0D9EA" points="63.922 97.392 45.959 96.415 46.511 86.048 64.475 87.024"/>
      <g transform="translate(0 76.905)">
        <mask id="d" fill="white">
          <use xlink:href="#c"/>
        </mask>
        <path fill="#EBEFF7" d="M48.5838136,22.4465653 L4.46432203,23.6559975 C3.61177966,23.6791076 2.79652542,23.2853788 2.30838983,22.5800907 C1.24567797,21.0471161 -0.274661017,17.7714636 0.0422881356,11.8158873 C0.360084746,5.86116695 2.22025424,2.7686839 3.43889831,1.35981949 C3.99991525,0.711022881 4.85161017,0.408022881 5.69737288,0.523573729 L49.4329661,6.50910763 C50.7600847,6.69056525 51.7261864,7.87003983 51.6541525,9.22070085 L51.0804237,19.9917517 C51.0083898,21.3415568 49.9219492,22.4097602 48.5838136,22.4465653" mask="url(#d)"/>
      </g>
      <path fill="#DAE2ED" d="M37.2228814,98.8989432 C34.5694915,98.9794008 33.0144068,99.3962398 30.6483051,97.7887992 C27.2762712,95.4983246 24.8728814,92.8534941 20.4711864,92.8654771 C14.8983051,92.8808839 9.9940678,96.3807907 4.45423729,93.8583585 C2.53644068,92.9853076 1.08644068,91.6372144 0.00423728813,90.0109432 C-0.0457627119,95.152528 1.32542373,98.0669771 2.30762712,99.4844008 C2.79661017,100.190545 3.61186441,100.584274 4.46440678,100.561164 L41.6364407,99.5417483 C40.2228814,99.1574347 38.7635593,98.8518669 37.2228814,98.8989432"/>
      <path fill="#DAE2ED" d="M20.7332203,17.1161619 L1.8959322,16.0924669 C1.18745763,16.05395 0.643389831,15.4419585 0.681525424,14.7263992 L1.37220339,1.76672966 C1.41033898,1.05117034 2.01627119,0.502517797 2.72474576,0.541034746 L21.5620339,1.56472966 C22.4967797,1.61522966 23.2137288,2.42237373 23.1628814,3.36646695 L22.5171186,15.49845 C22.4662712,16.4425432 21.6679661,17.1666619 20.7332203,17.1161619" transform="translate(59.322 83.752)"/>
      <path fill="#B7C2CE" d="M43.5161017 87.6037195C43.4677966 88.505872 42.7050847 89.1983212 41.8118644 89.1495331 40.9186441 89.1007449 40.2330508 88.3304059 40.2813559 87.4282534 40.329661 86.5261008 41.0923729 85.8336517 41.9855932 85.8824398 42.8788136 85.931228 43.5644068 86.7015669 43.5161017 87.6037195M34.3230508 86.3372822C34.2747458 87.2394347 33.5120339 87.9318839 32.6188136 87.8830958 31.7255932 87.8343076 31.04 87.0639686 31.0883051 86.1618161 31.1366102 85.2596636 31.899322 84.5672144 32.7925424 84.6160025 33.6857627 84.6647907 34.3713559 85.4351297 34.3230508 86.3372822"/>
    </g>
  </g>
</svg>
