<svg width="447" height="136" viewBox="0 0 447 136" fill="none" xmlns="http://www.w3.org/2000/svg">
<g clip-path="url(#clip0_2482_304455)">
<path d="M124.3 76.2799C122.29 74.9799 120.93 72.8899 120.58 70.5199L119.98 66.4999C119.95 66.2999 119.78 66.1599 119.58 66.1599C119.38 66.1599 119.21 66.3099 119.18 66.4999L118.58 70.5199C118.23 72.8799 116.87 74.9799 114.86 76.2799L114.34 76.6199C114.22 76.6899 114.15 76.8199 114.15 76.9599V76.9799C114.15 77.1199 114.22 77.2499 114.34 77.3199L114.86 77.6599C116.87 78.9599 118.23 81.0499 118.58 83.4199L119.18 87.4399C119.21 87.6399 119.38 87.7799 119.58 87.7799C119.78 87.7799 119.95 87.6299 119.98 87.4399L120.58 83.4199C120.93 81.0599 122.29 78.9599 124.3 77.6599L124.82 77.3199C124.94 77.2499 125.01 77.1199 125.01 76.9799V76.9599C125.01 76.8199 124.94 76.6899 124.82 76.6199L124.3 76.2799Z" fill="#86D3FF"/>
<path d="M445.37 58.8099C443.36 57.5099 442 55.4199 441.65 53.0499L441.05 49.0299C441.02 48.8299 440.85 48.6899 440.65 48.6899C440.45 48.6899 440.28 48.8399 440.25 49.0299L439.65 53.0499C439.3 55.4099 437.94 57.5099 435.93 58.8099L435.41 59.1499C435.29 59.2199 435.22 59.3499 435.22 59.4899V59.5099C435.22 59.6499 435.29 59.7799 435.41 59.8499L435.93 60.1899C437.94 61.4899 439.3 63.5799 439.65 65.9499L440.25 69.9699C440.28 70.1699 440.45 70.3099 440.65 70.3099C440.85 70.3099 441.02 70.1599 441.05 69.9699L441.65 65.9499C442 63.5899 443.36 61.4899 445.37 60.1899L445.89 59.8499C446.01 59.7799 446.08 59.6499 446.08 59.5099V59.4899C446.08 59.3499 446.01 59.2199 445.89 59.1499L445.37 58.8099Z" fill="#E54599"/>
<path d="M412.74 106.93C410.73 105.63 409.37 103.54 409.02 101.17L408.42 97.1501C408.39 96.9501 408.22 96.8101 408.02 96.8101C407.82 96.8101 407.65 96.9601 407.62 97.1501L407.02 101.17C406.67 103.53 405.31 105.63 403.3 106.93L402.78 107.27C402.66 107.34 402.59 107.47 402.59 107.61V107.63C402.59 107.77 402.66 107.9 402.78 107.97L403.3 108.31C405.31 109.61 406.67 111.7 407.02 114.07L407.62 118.09C407.65 118.29 407.82 118.43 408.02 118.43C408.22 118.43 408.39 118.28 408.42 118.09L409.02 114.07C409.37 111.71 410.73 109.61 412.74 108.31L413.26 107.97C413.38 107.9 413.45 107.77 413.45 107.63V107.61C413.45 107.47 413.38 107.34 413.26 107.27L412.74 106.93Z" fill="#5A65EC"/>
<path d="M352.24 37.31C349.25 35.38 347.23 32.26 346.71 28.74L345.81 22.75C345.77 22.46 345.51 22.24 345.21 22.24C344.91 22.24 344.66 22.46 344.61 22.75L343.71 28.74C343.18 32.26 341.17 35.38 338.18 37.31L337.4 37.81C337.23 37.92 337.12 38.11 337.12 38.32V38.36C337.12 38.56 337.22 38.76 337.4 38.87L338.18 39.37C341.17 41.3 343.19 44.42 343.71 47.94L344.61 53.93C344.65 54.22 344.91 54.44 345.21 54.44C345.51 54.44 345.76 54.22 345.81 53.93L346.71 47.94C347.24 44.42 349.25 41.3 352.24 39.37L353.02 38.87C353.19 38.76 353.3 38.57 353.3 38.36V38.32C353.3 38.12 353.2 37.92 353.02 37.81L352.24 37.31Z" fill="#FFE15C"/>
<path d="M39.6 35.08C36.61 33.15 34.59 30.03 34.07 26.51L33.17 20.52C33.13 20.23 32.87 20.01 32.57 20.01C32.27 20.01 32.02 20.23 31.97 20.52L31.07 26.51C30.54 30.03 28.53 33.15 25.54 35.08L24.76 35.58C24.59 35.69 24.48 35.88 24.48 36.09V36.13C24.48 36.33 24.58 36.53 24.76 36.64L25.54 37.14C28.53 39.07 30.55 42.19 31.07 45.71L31.97 51.7C32.01 51.99 32.27 52.21 32.57 52.21C32.87 52.21 33.12 51.99 33.17 51.7L34.07 45.71C34.6 42.19 36.61 39.07 39.6 37.14L40.38 36.64C40.55 36.53 40.66 36.34 40.66 36.13V36.09C40.66 35.89 40.56 35.69 40.38 35.58L39.6 35.08Z" fill="#89FFA7"/>
<path d="M10.15 57.5599C8.14 56.2599 6.78 54.1699 6.43 51.7999L5.83 47.7799C5.8 47.5799 5.63 47.4399 5.43 47.4399C5.23 47.4399 5.06 47.5899 5.03 47.7799L4.43 51.7999C4.08 54.1599 2.72 56.2599 0.71 57.5599L0.19 57.8999C0.07 57.9699 0 58.0999 0 58.2399V58.2599C0 58.3999 0.07 58.5299 0.19 58.5999L0.71 58.9399C2.72 60.2399 4.08 62.3299 4.43 64.6999L5.03 68.7199C5.06 68.9199 5.23 69.0599 5.43 69.0599C5.63 69.0599 5.8 68.9099 5.83 68.7199L6.43 64.6999C6.78 62.3399 8.14 60.2399 10.15 58.9399L10.67 58.5999C10.79 58.5299 10.86 58.3999 10.86 58.2599V58.2399C10.86 58.0999 10.79 57.9699 10.67 57.8999L10.15 57.5599Z" fill="#E54599"/>
<path d="M75.5799 80.9199L64.6099 91.9699V107.53L75.5799 118.54L86.5499 107.48V91.9699L75.5799 80.9199ZM81.0599 105.21L75.5799 110.74L70.0999 105.21V94.2399L75.5799 88.7099L81.0599 94.2399V105.21Z" fill="#FA6EF6"/>
<path d="M75.5798 80.9199V88.7199L81.0598 94.2499L86.5398 91.9799L75.5698 80.9299L75.5798 80.9199Z" fill="#FFADFB"/>
<path d="M70.0996 105.22L64.6196 107.54L75.5896 118.55V110.75L70.1096 105.22H70.0996Z" fill="#E655D4"/>
<path d="M70.1001 94.25V105.21L75.5801 110.74L81.0601 105.21V94.25L75.5801 88.72L70.1001 94.25Z" fill="#FFCFF9"/>
<path d="M81.0701 94.25V94.29L70.1401 105.25H70.1001V102.26L79.5701 92.72L81.0701 94.24V94.25Z" fill="white"/>
<path d="M81.07 98.3999V101.43L73.73 108.87L72.23 107.31L81.08 98.3999H81.07Z" fill="white"/>
<path d="M378.92 68.05L367.95 79.1V94.66L378.92 105.67L389.89 94.61V79.1L378.92 68.05ZM384.4 92.34L378.92 97.87L373.44 92.34V81.37L378.92 75.84L384.4 81.37V92.34Z" fill="#FA6EF6"/>
<path d="M378.92 68.05V75.85L384.4 81.38L389.88 79.11L378.91 68.06L378.92 68.05Z" fill="#FFADFB"/>
<path d="M373.43 92.3401L367.95 94.6601L378.92 105.67V97.8701L373.44 92.3401H373.43Z" fill="#E655D4"/>
<path d="M373.43 81.3801V92.3401L378.91 97.8701L384.39 92.3401V81.3801L378.91 75.8501L373.43 81.3801Z" fill="#FFCFF9"/>
<path d="M384.4 81.3801V81.4201L373.47 92.3801H373.43V89.3901L382.9 79.8501L384.4 81.3701V81.3801Z" fill="white"/>
<path d="M384.4 85.52V88.55L377.06 95.99L375.56 94.43L384.41 85.52H384.4Z" fill="white"/>
<path fill-rule="evenodd" clip-rule="evenodd" d="M246.87 55.11C246.82 53.7 246.21 52.36 245.18 51.4L190.3 0.139955C189.95 -0.190045 189.38 0.0799553 189.4 0.559955L191.1 24.45C191.37 28.26 193.07 31.82 195.86 34.42L232.23 68.49L230.96 69.85L230.31 70.55C229.46 71.45 229.51 72.87 230.42 73.72L242.61 85.11L247.7 79.66L246.86 55.12L246.87 55.11Z" fill="#7687B2"/>
<path d="M309.96 67.24C307.67 63.28 305.37 59.92 299.35 64.21C296.21 60.79 292.56 63.59 293.06 67.56C284.25 71.96 275.84 71.63 268.98 69.74C268.98 69.74 266.97 86.01 267.28 86.85C274.57 87.1 291.61 84.8599 303.95 78.5199C309.88 75.5499 312.24 71.17 309.97 67.24H309.96Z" fill="#698FFF"/>
<path d="M283.87 97.2499C282.98 97.2499 282.09 97.0799 281.22 96.7299L265.38 90.3099C264.74 90.0499 264.43 89.3199 264.69 88.6799C264.95 88.0399 265.68 87.7299 266.32 87.9899L282.16 94.4099C284.48 95.3499 287.17 94.2399 288.15 91.9299L294.56 76.8399C294.83 76.2099 295.56 75.9099 296.2 76.1799C296.83 76.4499 297.13 77.1799 296.86 77.8199L290.45 92.9099C289.3 95.6099 286.65 97.2399 283.87 97.2399V97.2499Z" fill="#DCE4FF"/>
<path fill-rule="evenodd" clip-rule="evenodd" d="M230.42 69.44C234.31 87.79 222.59 105.82 204.23 109.71C185.88 113.6 167.85 101.88 163.96 83.52C160.07 65.17 171.79 47.14 190.15 43.25C208.5 39.36 226.53 51.08 230.42 69.44Z" fill="#4F5D7F"/>
<path fill-rule="evenodd" clip-rule="evenodd" d="M218.78 71.91C221.31 83.84 213.69 95.55 201.76 98.08C189.83 100.61 178.12 92.99 175.59 81.06C173.06 69.13 180.68 57.42 192.61 54.89C204.54 52.36 216.25 59.98 218.78 71.91Z" fill="#4F5D7F"/>
<path fill-rule="evenodd" clip-rule="evenodd" d="M225.47 55.6198C224.33 60.6898 208.08 69.8298 197.74 74.5898C189.7 72.7398 169.94 67.1598 166.35 61.4898C165.83 60.6798 165.87 60.1498 165.94 59.8298C165.98 59.6398 166.06 59.4498 166.17 59.2498C171.32 49.9998 179.71 43.7298 189.79 41.5898C202.49 38.8998 215.71 43.6598 225.15 54.3298C225.49 54.7198 225.59 55.0898 225.47 55.6198Z" fill="#FF7F14"/>
<path fill-rule="evenodd" clip-rule="evenodd" d="M199.4 74.8999C199.4 74.8999 172.13 48.3499 176.31 45.1599C180.48 41.9699 185.4 39.6299 190.92 38.4599C205.23 35.4299 218.82 41.4799 227.9 51.7299C234.34 58.9999 199.4 74.8999 199.4 74.8999Z" fill="#FF7F14"/>
<path d="M215.46 72.61C213.32 62.52 203.41 56.07 193.32 58.21C183.23 60.35 176.78 70.26 178.92 80.35C181.06 90.44 190.97 96.89 201.06 94.75C211.15 92.61 217.6 82.7 215.46 72.61Z" fill="#BCC6E8"/>
<path d="M190.08 68.33L198.98 65.56C199.52 65.39 200.12 65.52 200.54 65.91L207.39 72.23C207.81 72.62 207.99 73.2 207.86 73.75L205.81 82.85C205.68 83.41 205.27 83.85 204.73 84.02L195.83 86.79C195.29 86.96 194.69 86.83 194.27 86.44L187.42 80.12C187 79.73 186.82 79.15 186.95 78.6L189 69.5C189.13 68.94 189.54 68.5 190.08 68.33Z" fill="#ADBAE8"/>
<path d="M201.54 75.5598C202.05 77.9598 200.51 80.3298 198.11 80.8398C195.71 81.3498 193.34 79.8098 192.83 77.4098C192.32 75.0098 193.86 72.6398 196.26 72.1298C198.66 71.6198 201.03 73.1598 201.54 75.5598Z" fill="#90A1DF"/>
<path d="M176.16 104.44C174.54 107.1 171.33 108.35 168.34 107.48L158.19 104.52C157.6 104.35 157.41 103.59 157.86 103.17L165.51 95.88C167.77 93.73 171.19 93.3601 173.85 94.9801C177.1 96.9601 178.14 101.2 176.16 104.45V104.44Z" fill="#66B6FF"/>
<path d="M176.37 102.2C175.45 103.71 173.64 104.41 171.95 103.92L166.8 102.42C166.21 102.25 166.02 101.49 166.47 101.07L170.35 97.3702C171.63 96.1502 173.56 95.9402 175.06 96.8602C176.9 97.9802 177.48 100.38 176.37 102.21V102.2Z" fill="#86D3FF"/>
<path d="M211.18 92.2701L210.18 88.0801L193.19 90.5101C192.27 89.3101 190.74 88.6601 189.17 88.9301L173.09 90.8301C172.57 90.9201 172.13 91.2501 171.91 91.7301C171.33 92.9801 170.56 95.7801 171.88 100.53C173.2 105.28 175.32 107.28 176.45 108.05C176.89 108.34 177.44 108.4 177.93 108.21L192.64 101.37C194.22 100.75 195.21 99.2501 195.27 97.6301L211.18 92.2801V92.2701Z" fill="#BCC6E8"/>
<path d="M191.08 116.86C190.53 119.93 187.99 122.25 184.89 122.52L174.36 123.43C173.74 123.48 173.3 122.85 173.56 122.29L178.06 112.73C179.39 109.91 182.44 108.33 185.51 108.88C189.26 109.55 191.75 113.13 191.08 116.88V116.86Z" fill="#66B6FF"/>
<path d="M190.47 114.7C190.16 116.43 188.72 117.75 186.97 117.9L181.62 118.36C181 118.41 180.56 117.78 180.82 117.22L183.1 112.36C183.85 110.77 185.58 109.87 187.31 110.18C189.43 110.56 190.84 112.58 190.46 114.7H190.47Z" fill="#86D3FF"/>
<path d="M216.99 88.8699L202.58 103.76L197.25 97.6799L214.17 85.5999L216.99 88.8599V88.8699Z" fill="#DCE4FF"/>
<path d="M204.7 105.48L194.79 118.32C194.44 118.72 193.93 118.92 193.41 118.86C192.05 118.7 189.25 117.9 185.89 114.29C182.53 110.68 181.93 107.83 181.87 106.46C181.85 105.94 182.09 105.44 182.51 105.12L195.92 96.0398C197.63 94.7498 200.05 94.9598 201.51 96.5298L204.63 99.8798C206.09 101.45 206.13 103.87 204.72 105.49L204.7 105.48Z" fill="#DCE4FF"/>
<path d="M191.72 40.7999L133.19 15.4299L134.26 17.9799L141.06 33.2999C142.6 36.7899 145.4 39.5699 148.9 41.0899L196.84 61.8899L198.53 57.9799L191.72 40.8099V40.7999Z" fill="#BCC6E8"/>
<path d="M201.05 40.4599L132.12 10.6699C131.68 10.4799 131.23 10.9199 131.42 11.3699L134.26 17.9699L136.89 19.1199L188.76 41.5299L195.57 58.6999L193.88 62.6099L193.5 63.4899C193.01 64.6299 193.53 65.9499 194.67 66.4399L209.98 73.0599L212.94 66.2099L203.89 43.3799C203.37 42.0699 202.35 41.0099 201.05 40.4499V40.4599Z" fill="#DCE4FF"/>
<path d="M219.87 61.72H244.55V97.33H212.78C210.66 97.33 208.95 95.61 208.95 93.5V72.65C208.95 66.62 213.85 61.73 219.87 61.73V61.72Z" fill="#DCE4FF"/>
<path d="M225.68 61.72H250.36V97.33H218.59C216.47 97.33 214.76 95.61 214.76 93.5V72.65C214.76 66.62 219.66 61.73 225.68 61.73V61.72Z" fill="black"/>
<path d="M230.16 100.33C225.72 104.98 221.02 109.02 214.99 113.88C210.26 117.69 210.73 125.04 215.91 128.21L216.09 128.32C219.2 130.22 223.09 130.08 226.01 127.99C231.83 123.83 238.16 118.23 243.2 112.16C243.31 112.03 243.29 111.84 243.17 111.72L230.6 100.31C230.47 100.2 230.28 100.2 230.16 100.33Z" fill="#4F6FE7"/>
<path d="M248.63 104.07C246.42 110.11 243.73 115.68 240.13 122.55C237.31 127.93 240.68 134.49 246.7 135.32L246.91 135.35C250.52 135.85 254.03 134.17 255.87 131.08C259.54 124.94 263.1 117.27 265.3 109.7C265.35 109.54 265.25 109.37 265.1 109.31L249.02 103.87C248.86 103.82 248.68 103.9 248.63 104.06V104.07Z" fill="#4F6FE7"/>
<path d="M236.54 65.0801C227.51 79.6101 215.31 97.4101 228.29 106.21C238.2 112.93 252.71 115.74 262.99 114.75C273.27 113.76 275.16 102.77 275.72 90.5701C276.28 78.3701 275.78 65.3801 275.78 65.3801L236.55 65.0801H236.54Z" fill="url(#paint0_linear_2482_304455)"/>
<path d="M236.94 69.96C236.94 69.96 277.62 89.23 274.78 69.96H236.94Z" fill="#4677F7"/>
<path d="M209.48 65.77H206.19C204.036 65.77 202.29 67.5161 202.29 69.67V72.96C202.29 75.1139 204.036 76.86 206.19 76.86H209.48C211.634 76.86 213.38 75.1139 213.38 72.96V69.67C213.38 67.5161 211.634 65.77 209.48 65.77Z" fill="#DCE4FF"/>
<path d="M210.18 68.46H207.34C206.512 68.46 205.84 69.1315 205.84 69.96V72.8C205.84 73.6284 206.512 74.3 207.34 74.3H210.18C211.009 74.3 211.68 73.6284 211.68 72.8V69.96C211.68 69.1315 211.009 68.46 210.18 68.46Z" fill="#B5C3F3"/>
<path d="M297.385 78.0165L294.961 76.8737C293.967 76.4051 292.781 76.831 292.312 77.8252L286.44 90.2805C285.972 91.2747 286.398 92.4605 287.392 92.9291L289.816 94.0719C290.81 94.5405 291.996 94.1146 292.465 93.1204L298.336 80.6651C298.805 79.6709 298.379 78.4851 297.385 78.0165Z" fill="#242145"/>
<path d="M224.8 84.6101C222.52 87.9301 222.03 90.9001 222.61 93.4501C229.75 98.8601 242.56 107.26 259.9 107.26C263.78 107.26 269.1 106.89 273.65 106.07C274.54 105.91 275.34 105.42 275.89 104.69L276.25 104.21C277.31 102.79 277.6 100.93 277 99.2601C276.72 98.4701 275.91 97.9901 275.09 98.1501C250.3 102.81 233.43 90.4401 226.29 84.4201C225.83 84.0301 225.13 84.1201 224.79 84.6101H224.8Z" fill="#242145"/>
<path d="M293.651 75.8217L298.86 77.9571L298.75 78.2254C298.223 79.5116 296.745 80.1378 295.45 79.6068L294.913 79.3868C293.627 78.8595 293.001 77.3816 293.532 76.0862L293.642 75.8179L293.651 75.8217Z" fill="#FF78B8"/>
<path d="M298.908 77.8387C299.176 77.1846 298.225 76.1754 296.784 75.5847C295.343 74.994 293.958 75.0453 293.69 75.6994C293.421 76.3535 294.372 77.3627 295.813 77.9534C297.254 78.5441 298.64 78.4928 298.908 77.8387Z" fill="#FF78B8"/>
<path d="M245.61 106.6C244.19 106.6 242.76 106.38 241.35 105.91C235.13 103.85 228.27 101.08 218.88 92.0599C218.38 91.5799 218.37 90.7899 218.84 90.2899C219.32 89.7899 220.11 89.7699 220.61 90.2499C229.62 98.8999 236.19 101.55 242.14 103.53C247.41 105.28 253.24 102.83 255.69 97.8299L261.58 85.8399C261.88 85.2199 262.63 84.9599 263.25 85.2699C263.87 85.5799 264.13 86.3199 263.82 86.9399L257.93 98.9299C255.58 103.71 250.71 106.59 245.61 106.59V106.6Z" fill="#DCE4FF"/>
<path d="M263.795 84.8605L261.371 83.7177C260.377 83.249 259.191 83.675 258.722 84.6692L252.851 97.1245C252.382 98.1186 252.808 99.3044 253.802 99.7731L256.226 100.916C257.22 101.385 258.406 100.959 258.875 99.9644L264.746 87.5091C265.215 86.5149 264.789 85.3291 263.795 84.8605Z" fill="#242145"/>
<path d="M228.91 88.2999C236.93 94.0299 242.08 98.0399 253.54 100.99C255.97 101.62 258.56 101.59 260.79 100.44C267.57 96.9599 266.12 89.8099 261.3 88.0899C260.34 87.7499 260.17 88.0899 259.27 87.7299C258.89 85.3899 257.45 80.8799 250.68 83.7199C243.6 79.9599 242.26 75.4599 238.32 71.5699C235.67 68.9599 231.55 68.6099 228.5 70.7299L227.76 71.2399C222.15 75.1399 223.36 84.3299 228.92 88.2999H228.91Z" fill="url(#paint1_linear_2482_304455)"/>
<path d="M260.057 82.6564L265.266 84.7918L265.156 85.0601C264.629 86.3463 263.151 86.9725 261.856 86.4415L261.319 86.2215C260.033 85.6943 259.407 84.2163 259.938 82.9209L260.048 82.6526L260.057 82.6564Z" fill="#FF78B8"/>
<path d="M265.315 84.6868C265.584 84.0327 264.633 83.0236 263.192 82.4328C261.751 81.8421 260.365 81.8935 260.097 82.5476C259.829 83.2017 260.78 84.2108 262.221 84.8015C263.662 85.3923 265.047 85.3409 265.315 84.6868Z" fill="#FF78B8"/>
<path d="M295.88 45.5199C296.24 52.1499 292.01 57.7699 286.43 58.0699C280.85 58.3699 276.03 53.2499 275.67 46.6199C275.31 39.9899 279.54 34.3699 285.12 34.0699C290.7 33.7699 295.52 38.8899 295.88 45.5199Z" fill="#DCE4FF"/>
<path d="M267.68 22.8499C260.98 22.5999 254.13 22.7899 247.58 23.4999C231.9 25.1799 220.47 38.5399 222.15 53.3499C222.17 53.4899 222.18 53.6199 222.2 53.7599C223.33 63.1899 231.76 70.3199 241.81 70.5199C250.46 70.6999 260.07 70.5599 269.07 69.7899C279.75 68.8799 288.57 60.1599 288.4 50.0399C288.34 46.6399 287.46 43.3499 287.11 40.0199C286.12 30.4999 277.79 23.2399 267.68 22.8599V22.8499Z" fill="#698FFF"/>
<path d="M241.428 52.2004C242.958 52.1833 244.18 50.513 244.157 48.4697C244.134 46.4263 242.875 44.7838 241.346 44.8008C239.816 44.8179 238.594 46.4882 238.617 48.5316C238.64 50.5749 239.898 52.2175 241.428 52.2004Z" fill="#141226"/>
<path d="M280.269 48.9267C281.799 48.9096 283.021 47.2393 282.998 45.196C282.975 43.1527 281.717 41.5101 280.187 41.5272C278.657 41.5443 277.435 43.2145 277.458 45.2579C277.481 47.3012 278.74 48.9438 280.269 48.9267Z" fill="#141226"/>
<path d="M272.33 38.9598C266.43 38.5798 260.14 38.8698 254.9 40.1698C251.58 40.9898 249.17 43.7198 249.01 46.9498C248.94 48.4498 248.94 49.9698 249.05 51.5098C249.46 57.1698 254.56 61.4598 260.57 61.3998C263.41 61.3698 266.41 61.2598 269.34 61.0298C275.69 60.5198 280.48 55.2498 279.92 49.2698C279.78 47.7598 279.57 46.2698 279.31 44.8398C278.7 41.5998 275.81 39.1798 272.33 38.9598Z" fill="#B6CBFF"/>
<path d="M263.03 53.5834L258.538 53.8487C257.706 53.8979 257.071 54.6126 257.12 55.4451C257.169 56.2776 257.884 56.9126 258.716 56.8635L263.208 56.5982C264.041 56.549 264.676 55.8343 264.627 55.0018C264.578 54.1693 263.863 53.5342 263.03 53.5834Z" fill="#698FFF"/>
<path d="M270.226 56.2722L274.721 56.0673C275.554 56.0293 276.199 55.3232 276.161 54.4901C276.123 53.657 275.417 53.0125 274.584 53.0504L270.088 53.2553C269.255 53.2933 268.611 53.9995 268.649 54.8325C268.686 55.6656 269.393 56.3102 270.226 56.2722Z" fill="#698FFF"/>
<path d="M254.79 16.7498C234.83 17.7598 219.02 32.6998 219.49 50.0998C219.73 59.0998 224.28 66.9898 231.37 72.3798C232.38 73.1498 233.64 73.5098 234.91 73.4498L277.71 71.2798C278.96 71.2198 280.15 70.7398 281.08 69.9098C287.9 63.8098 292.03 55.4598 291.79 46.4398C291.32 29.0398 274.76 15.7498 254.8 16.7598L254.79 16.7498ZM274.66 65.8498L243.94 67.4098C242.42 67.4898 240.94 66.8998 239.89 65.7998L231.4 56.9698C229.69 55.1898 229.28 52.5198 230.38 50.3098L238.61 33.7598C239.56 31.8598 241.72 30.8898 243.77 31.4598L262.06 36.5098C263.66 36.9498 265.37 36.7198 266.79 35.8698L274.81 31.0998C277.11 29.7298 280.09 30.6898 281.15 33.1498L287.43 47.6498C288.29 49.6298 287.99 51.9198 286.65 53.6098L278.52 63.8798C277.58 65.0598 276.18 65.7898 274.67 65.8598L274.66 65.8498Z" fill="#DCE4FF"/>
<path d="M249.99 62.31C247.86 61.66 246.81 60.36 245.73 59.38C244.65 58.4 243.41 58.69 242.95 59.4C242.49 60.11 242.44 62.15 243.98 63.87C245.52 65.59 248.83 65.34 250.18 64.6C251.53 63.86 251.37 62.73 250 62.3L249.99 62.31Z" fill="#D01582"/>
<path d="M242.67 60.55C242.65 61.49 242.97 62.74 243.98 63.87C245.5 65.58 248.77 65.34 250.14 64.61C248.78 62.61 246.63 61.32 242.67 60.54V60.55Z" fill="#FF78B8"/>
<path d="M219.97 41.6799L214.96 44.3099L210.95 35.3299C210.47 34.2599 210.91 33.0099 211.94 32.4699C212.97 31.9299 214.25 32.2799 214.86 33.2799L219.98 41.6799H219.97Z" fill="#B5C3F3"/>
<path d="M212.37 38.53L214.96 44.32L219.97 41.69L216.67 36.27C215.24 37.03 213.81 37.78 212.37 38.53Z" fill="#B5C3F3"/>
<path d="M229.7 50.32C230.04 56.56 226.05 61.86 220.8 62.14C215.54 62.43 211 57.6 210.66 51.35C210.32 45.11 214.31 39.81 219.56 39.53C224.82 39.24 229.36 44.07 229.7 50.32Z" fill="#DCE4FF"/>
<path d="M225.76 50.59C225.98 54.55 223.45 57.91 220.11 58.09C216.77 58.27 213.9 55.21 213.68 51.25C213.46 47.29 215.99 43.93 219.33 43.75C222.67 43.57 225.54 46.63 225.76 50.59Z" fill="#90A1DF"/>
<path fill-rule="evenodd" clip-rule="evenodd" d="M223.85 50.72C224 53.56 222.19 55.96 219.8 56.09C217.41 56.22 215.35 54.03 215.19 51.19C215.04 48.35 216.85 45.95 219.24 45.82C221.63 45.69 223.69 47.88 223.85 50.72Z" fill="#FF871D"/>
<path fill-rule="evenodd" clip-rule="evenodd" d="M218.66 54.3298L217.95 54.1098C217.75 54.0498 217.64 53.8398 217.7 53.6498L219.53 47.5798C219.59 47.3798 219.8 47.2698 219.99 47.3298L220.7 47.5498C220.9 47.6098 221.01 47.8198 220.95 48.0098L219.12 54.0798C219.06 54.2798 218.85 54.3898 218.66 54.3298Z" fill="#FF6414"/>
<path fill-rule="evenodd" clip-rule="evenodd" d="M263.101 16.8899C260.761 15.0299 256.161 11.7799 251.671 10.9499C250.801 10.7899 249.981 11.4299 249.931 12.3199L249.681 16.3099C249.651 16.7899 249.861 17.2599 250.231 17.5599C253.601 20.2499 258.551 25.9999 260.201 27.9599C260.561 28.3799 261.081 28.6099 261.631 28.5799L268.431 28.2499C268.711 28.2399 268.891 27.9499 268.781 27.6999L265.431 19.9499C264.911 18.7599 264.121 17.7099 263.101 16.8999V16.8899Z" fill="#FF7700"/>
<path fill-rule="evenodd" clip-rule="evenodd" d="M261.13 27.6199L264.05 19.8999C264.28 19.2899 265.14 19.2699 265.39 19.8699L268.77 27.6999C268.88 27.9499 268.7 28.2399 268.42 28.2499L261.81 28.5699C261.31 28.5899 260.94 28.0899 261.12 27.6199H261.13Z" fill="#FF903E"/>
<path d="M194.93 48.2899C195.88 48.2899 196.65 47.5198 196.65 46.5699C196.65 45.6199 195.88 44.8499 194.93 44.8499C193.98 44.8499 193.21 45.6199 193.21 46.5699C193.21 47.5198 193.98 48.2899 194.93 48.2899Z" fill="#BCC6E8"/>
<path d="M197.22 54.0101C198.17 54.0101 198.94 53.24 198.94 52.2901C198.94 51.3401 198.17 50.5701 197.22 50.5701C196.27 50.5701 195.5 51.3401 195.5 52.2901C195.5 53.24 196.27 54.0101 197.22 54.0101Z" fill="#BCC6E8"/>
<path d="M181.84 95.94C182.79 95.94 183.56 95.1699 183.56 94.22C183.56 93.2701 182.79 92.5 181.84 92.5C180.89 92.5 180.12 93.2701 180.12 94.22C180.12 95.1699 180.89 95.94 181.84 95.94Z" fill="#90A1DF"/>
<path d="M187.91 94.8799C188.86 94.8799 189.63 94.1099 189.63 93.1599C189.63 92.21 188.86 91.4399 187.91 91.4399C186.961 91.4399 186.19 92.21 186.19 93.1599C186.19 94.1099 186.961 94.8799 187.91 94.8799Z" fill="#90A1DF"/>
<path d="M193.03 104.62C193.98 104.62 194.75 103.85 194.75 102.9C194.75 101.95 193.98 101.18 193.03 101.18C192.08 101.18 191.31 101.95 191.31 102.9C191.31 103.85 192.08 104.62 193.03 104.62Z" fill="#BCC6E8"/>
<path d="M198.05 101.05C199 101.05 199.77 100.28 199.77 99.3299C199.77 98.3799 199 97.6099 198.05 97.6099C197.1 97.6099 196.33 98.3799 196.33 99.3299C196.33 100.28 197.1 101.05 198.05 101.05Z" fill="#BCC6E8"/>
<path d="M319.58 37.3501L304.34 48.7701L301.57 67.6001L312.89 82.8801L328.13 71.4501L330.89 52.6801L319.58 37.3501ZM321.89 67.7301L314.27 73.4401L308.62 65.7801L310.57 52.5101L318.19 46.8001L323.84 54.4601L321.89 67.7301Z" fill="#FA6EF6"/>
<path d="M319.58 37.3501L318.19 46.7901L323.84 54.4501L330.88 52.6801L319.57 37.3501H319.58Z" fill="#FFADFB"/>
<path d="M308.61 65.78L301.56 67.61L312.88 82.89L314.27 73.45L308.62 65.79L308.61 65.78Z" fill="#E655D4"/>
<path d="M310.57 52.51L308.62 65.78L314.27 73.45L321.89 67.74L323.84 54.4701L318.19 46.8L310.57 52.51Z" fill="#FFCFF9"/>
<path d="M323.84 54.4601V54.5101L308.66 65.8301H308.61L309.14 62.2101L322.29 52.3501L323.84 54.4501V54.4601Z" fill="white"/>
<path d="M323.1 59.48L322.56 63.15L312.35 70.85L310.81 68.69L323.1 59.48Z" fill="white"/>
</g>
<defs>
<linearGradient id="paint0_linear_2482_304455" x1="258.208" y1="64.0247" x2="244.863" y2="110.156" gradientUnits="userSpaceOnUse">
<stop offset="0.52" stop-color="#698FFF"/>
<stop offset="0.83" stop-color="#597BF0"/>
<stop offset="1" stop-color="#4F6FE7"/>
</linearGradient>
<linearGradient id="paint1_linear_2482_304455" x1="229.84" y1="89.7499" x2="262.64" y2="80.2099" gradientUnits="userSpaceOnUse">
<stop offset="0.34" stop-color="#698FFF"/>
<stop offset="0.35" stop-color="#678DFD"/>
<stop offset="0.8" stop-color="#4F6FE7"/>
</linearGradient>
<clipPath id="clip0_2482_304455">
<rect width="446.08" height="135.44" fill="white"/>
</clipPath>
</defs>
</svg>
