<svg width="168" height="88" fill="none" xmlns="http://www.w3.org/2000/svg"><path d="M85.212 88c22.131 0 40.057-17.925 40.057-40.057 0-22.13-17.926-40.056-40.057-40.056-22.131 0-40.057 17.925-40.057 40.056C45.155 70.075 63.081 88 85.212 88z" fill="#3E70DD" fill-opacity=".4"/><path d="M119.46 30.269l32.396-5.708-10.014 13.218c-1.953 2.604-4.807 4.306-8.011 4.907l-22.782 4.006-.651-3.555 9.062-12.868z" fill="#DAE2ED"/><path d="M109.546 26.964l47.918-8.462c.401-.05.701.4.451.7l-3.055 4.157c-.35.45-.851.8-1.452.901l-1.552.25-32.396 5.708-8.962 12.819.651 3.555.45 2.653-10.114 14.47-5.658-11.666-1.102-6.209 11.967-17.074c.601-.9 1.653-1.552 2.854-1.802z" fill="#ECEFF6"/><path d="M110.448 43.087l9.012-12.818 32.396-5.708-2.003 2.653-29.141 5.158-8.311 11.866.35 2.153-1.652.3-.651-3.604z" fill="#C5CEDD"/><path d="M151.405 23.659c.852 0 1.503-.65 1.503-1.502 0-.851-.651-1.502-1.503-1.502-.851 0-1.502.65-1.502 1.502 0 .851.651 1.502 1.502 1.502zM113.352 34.374c.851 0 1.502-.65 1.502-1.502 0-.851-.651-1.502-1.502-1.502s-1.502.651-1.502 1.502.651 1.502 1.502 1.502zM110.498 38.43c.851 0 1.502-.65 1.502-1.502 0-.851-.651-1.502-1.502-1.502s-1.502.65-1.502 1.502c0 .851.651 1.502 1.502 1.502zM51.014 30.269L18.618 24.56l10.014 13.218c1.953 2.604 4.807 4.306 8.011 4.907l22.783 4.006.65-3.555-9.062-12.868z" fill="#DAE2ED"/><path d="M60.928 26.964L13.01 18.552c-.4-.05-.701.4-.45.7l3.054 4.157c.35.45.85.8 1.452.9l1.552.251 32.396 5.708 8.962 12.818-.65 3.555-.451 2.654 10.114 14.47L74.647 52.1l1.102-6.209-11.967-17.074c-.601-.951-1.653-1.602-2.854-1.852z" fill="#ECEFF6"/><path d="M59.976 43.087l-8.962-12.818-32.396-5.708 2.003 2.653 29.09 5.158 8.363 11.866-.4 2.153 1.702.3.6-3.604z" fill="#C5CEDD"/><path d="M19.069 23.659c.85 0 1.502-.65 1.502-1.502 0-.851-.651-1.502-1.502-1.502-.852 0-1.502.65-1.502 1.502 0 .851.65 1.502 1.502 1.502zM57.122 34.374c.851 0 1.502-.65 1.502-1.502 0-.851-.65-1.502-1.502-1.502-.851 0-1.502.651-1.502 1.502s.651 1.502 1.502 1.502zM59.976 38.43c.852 0 1.502-.65 1.502-1.502 0-.851-.65-1.502-1.502-1.502-.85 0-1.502.65-1.502 1.502 0 .851.651 1.502 1.502 1.502z" fill="#DAE2ED"/><path d="M41.5 4.282l-1.252 2.653c-.3.601.35 1.252.952.952l2.653-1.252c.2-.1.451-.1.651 0l2.654 1.252c.601.3 1.252-.35.952-.952l-1.252-2.653c-.1-.2-.1-.451 0-.651l1.202-2.604c.3-.6-.351-1.252-.952-.951l-2.654 1.251c-.2.1-.45.1-.65 0L41.15.076c-.601-.3-1.252.35-.952.951l1.252 2.654c.15.2.15.4.05.6z" fill="#AEC7FF"/><path d="M132.279 69.824l-1.252 2.654c-.301.601.35 1.252.951.952l2.654-1.252c.2-.1.451-.1.651 0l2.654 1.252c.6.3 1.251-.351.951-.952l-1.252-2.654c-.1-.2-.1-.45 0-.65l1.252-2.654c.3-.601-.351-1.252-.951-.952l-2.654 1.252c-.2.1-.451.1-.651 0l-2.654-1.252c-.601-.3-1.252.35-.951.952l1.252 2.654c.1.2.1.45 0 .65z" fill="#7196FF"/><path d="M147.55 51.95c-.551 0-1.001-.452-1.001-1.002v-1.002c0-.55.45-1.001 1.001-1.001.551 0 1.002.45 1.002 1.001v1.002c0 .55-.451 1.001-1.002 1.001zM147.55 59.96c-.551 0-1.001-.45-1.001-1.001v-1.002c0-.55.45-1 1.001-1 .551 0 1.002.45 1.002 1v1.002c0 .55-.451 1.001-1.002 1.001zM150.054 54.453c0-.551.45-1.002 1.001-1.002h1.001c.551 0 1.002.45 1.002 1.002 0 .55-.451 1.001-1.002 1.001h-1.001c-.551 0-1.001-.45-1.001-1.001zM142.042 54.453c0-.551.451-1.002 1.002-1.002h1.001c.551 0 1.001.45 1.001 1.002 0 .55-.45 1.001-1.001 1.001h-1.001c-.551 0-1.002-.45-1.002-1.001z" fill="#AEC7FF"/><path d="M5.56 30.944c-.55 0-1-.45-1-1.002v-1.001c0-.55.45-1.002 1-1.002.552 0 1.002.451 1.002 1.002v1.001c0 .551-.45 1.002-1.001 1.002zM5.56 38.955c-.55 0-1-.45-1-1.001v-1.001c0-.551.45-1.002 1-1.002.552 0 1.002.45 1.002 1.002v1.001c0 .55-.45 1.001-1.001 1.001zM8.064 33.448c0-.551.45-1.002 1.002-1.002h1.001c.55 0 1.002.45 1.002 1.002 0 .55-.451 1.001-1.002 1.001H9.066c-.551 0-1.002-.45-1.002-1.001zM.053 33.448c0-.551.45-1.002 1.001-1.002h1.002c.55 0 1.001.45 1.001 1.002 0 .55-.45 1.001-1.001 1.001H1.054c-.55 0-1.001-.45-1.001-1.001z" fill="#3E70DD"/><path d="M85.112 12.644l-20.63 20.629v29.04l20.63 20.63 20.629-20.63v-29.04l-20.63-20.63zm10.365 45.314L85.112 68.322 74.797 58.008v-20.53l10.315-10.264L95.426 37.53l.05 20.429z" fill="#FA6EF6"/><path d="M85.112 12.644v14.57L95.426 37.53l10.315-4.306-20.63-20.58z" fill="#FFADFB"/><path d="M74.797 58.007l-10.314 4.256 20.629 20.63V68.322L74.797 58.007z" fill="#E655D4"/><path d="M74.797 37.529v20.478l10.315 10.315 10.314-10.315V37.53L85.112 27.214 74.797 37.529z" fill="#FFCFF9"/><path d="M95.426 37.529v.05L74.847 58.058h-.05V52.5l17.825-17.775 2.804 2.804zM95.426 45.29v5.658l-13.82 13.82-2.853-2.855L95.426 45.29z" fill="#fff"/></svg>