<svg width="180" height="88" viewBox="0 0 180 88" fill="none" xmlns="http://www.w3.org/2000/svg">
<path opacity="0.8" d="M45.648 22.5133C43.488 14.08 33.768 14.1533 30.528 19.36C26.784 16.4267 13.824 16.28 15.192 26.2533H56.304C54.072 22 50.04 21.6333 45.648 22.5133Z" fill="#AEC7FF"/>
<path opacity="0.8" d="M78.408 64.9735C76.968 55.6602 67.464 48.5469 55.872 48.5469C46.512 48.5469 38.52 53.2402 34.992 59.9869C33.2764 59.0957 31.3737 58.6427 29.448 58.6669C26.2919 58.6624 23.2546 59.8926 20.9634 62.1034C18.6722 64.3142 17.3021 67.3368 17.136 70.5469C7.344 71.2069 0 74.0669 0 77.3669H94.248C94.824 71.0602 85.968 66.0002 78.408 64.9735Z" fill="#AEC7FF"/>
<path d="M70.416 52.0668C71.227 53.2206 71.6558 54.6078 71.64 56.0268V56.2468C71.6512 56.3735 71.6262 56.5008 71.568 56.6134V56.9801C71.496 57.0534 71.496 57.1268 71.496 57.2734V57.6401C71.4387 57.7261 71.4132 57.8301 71.424 57.9334C71.3979 57.9632 71.3781 57.9981 71.3658 58.0359C71.3534 58.0737 71.3487 58.1137 71.352 58.1534V58.3001L71.208 58.6668C71.2035 58.7233 71.1777 58.7758 71.136 58.8134C71.1164 58.9232 71.0664 59.0249 70.992 59.1068V59.2534C70.992 59.3104 70.979 59.3665 70.954 59.4174C70.929 59.4683 70.8927 59.5126 70.848 59.5468H70.56L70.416 59.7668H70.344V59.9134H70.272L70.056 60.2801H69.984L69.768 60.6468V60.7934C69.624 60.8668 69.552 61.0134 69.408 61.1601H69.336L68.976 61.6001C68.832 61.7468 68.688 61.8201 68.616 61.9668H68.544L68.112 62.3334H67.824L69.696 65.6334C69.9552 66.1013 70.172 66.5922 70.344 67.1001V68.2001V68.3468C70.4163 68.5098 70.4649 68.6827 70.488 68.8601L70.632 69.2268C70.6259 69.4009 70.6503 69.5747 70.704 69.7401C70.704 69.8868 70.704 69.9601 70.776 70.0334C70.7642 70.3044 70.7884 70.5757 70.848 70.8401V71.1334V72.0868C70.848 72.2334 70.776 72.3068 70.776 72.4534V72.6734V72.8934C70.75 72.9232 70.7301 72.958 70.7178 72.9959C70.7054 73.0337 70.7007 73.0737 70.704 73.1134C70.704 73.3334 70.632 73.5534 70.632 73.7001C70.4918 74.3129 70.274 74.9045 69.984 75.4601C69.689 75.9953 69.3259 76.4885 68.904 76.9268L68.184 77.5134L67.032 78.2468C66.6542 78.4693 66.2392 78.6185 65.808 78.6868L58.032 80.6668L50.256 82.6468H50.04C48.9213 82.9271 47.7473 82.8763 46.656 82.5001L45.072 81.6934C44.583 81.3171 44.1254 80.9001 43.704 80.4468C43.0703 80.228 42.5341 79.7859 42.192 79.2001H41.688C41.364 79.1968 41.0446 79.1217 40.752 78.9801H40.68L39.816 78.6134H39.672L39.312 78.3934H39.168L38.952 78.2468H38.808C38.6597 78.1918 38.5332 78.0887 38.448 77.9534H38.304C38.232 77.8801 38.088 77.8068 38.016 77.6601H37.944C37.0058 76.8573 36.2867 75.8218 35.856 74.6534L35.64 73.9934C35.568 73.8468 35.568 73.6268 35.496 73.4068C35.496 73.1868 35.424 72.9668 35.424 72.6734V72.0134V71.7934C35.4842 70.4996 35.855 69.2407 36.504 68.1268L36.648 67.9068C36.648 67.8334 36.72 67.8334 36.792 67.7601L36.936 67.6134C36.936 67.5401 37.008 67.4668 37.08 67.3934C37.6781 66.6274 38.4105 65.9809 39.24 65.4868C37.7187 65.2438 36.3079 64.5291 35.1998 63.4399C34.0918 62.3507 33.3404 60.94 33.048 59.4001L32.832 58.5201L32.256 58.1534C30.9082 57.2262 29.9162 55.8532 29.448 54.2668L28.872 52.1401C28.6276 51.2449 28.5655 50.3083 28.6893 49.3877C28.8131 48.4671 29.1203 47.5821 29.592 46.7868L29.304 45.8334C28.8084 43.8802 29.0705 41.8076 30.0359 40.046C31.0012 38.2844 32.5956 36.9692 34.488 36.3734L38.952 35.1268C38.9601 34.7088 39.085 34.3018 39.312 33.9534C39.7188 33.2144 40.389 32.663 41.184 32.4134L49.752 29.9934H50.04C50.6015 29.8679 51.1867 29.912 51.7239 30.1205C52.2611 30.3289 52.7269 30.6925 53.064 31.1668L56.592 30.0668L57.024 29.9201C58.8994 29.5285 60.8507 29.8691 62.4911 30.8743C64.1315 31.8794 65.3411 33.4758 65.88 35.3468L66.096 36.3001C66.9154 36.7361 67.6383 37.3384 68.2203 38.0699C68.8023 38.8015 69.231 39.6467 69.48 40.5534V40.9201L69.984 42.5334C70.226 43.4411 70.2869 44.3889 70.1633 45.321C70.0396 46.253 69.7338 47.1504 69.264 47.9601L69.552 48.8401C69.7542 49.6299 69.8511 50.4439 69.84 51.2601C70.0806 51.4893 70.2761 51.763 70.416 52.0668Z" fill="#F8F9F9"/>
<path d="M63.648 63.7269C63.2891 63.8133 62.9131 63.7898 62.5672 63.6593C62.2214 63.5288 61.921 63.2972 61.704 62.9935C61.4171 62.5723 61.3018 62.0541 61.3824 61.5481C61.4629 61.042 61.7331 60.5875 62.136 60.2802C65.376 57.8602 65.952 56.0269 65.592 55.5135C65.3125 55.0835 65.2088 54.5593 65.3029 54.0526C65.397 53.5459 65.6816 53.0965 66.096 52.8002C66.5069 52.5195 67.0103 52.4159 67.496 52.5121C67.9817 52.6083 68.4103 52.8964 68.688 53.3135C69.624 54.6335 71.064 58.3002 64.368 63.3602C64.1695 63.5532 63.9187 63.681 63.648 63.7269Z" fill="#4086EA"/>
<path d="M69.48 55.9535C68.904 51.9202 64.656 52.5802 58.824 53.7535V53.9735C58.9043 54.2177 59.0324 54.4427 59.2004 54.6351C59.3685 54.8275 59.5731 54.9832 59.8019 55.0928C60.0306 55.2025 60.2788 55.2638 60.5315 55.2731C60.7842 55.2824 61.0361 55.2394 61.272 55.1468C62.136 54.8535 64.728 54.2668 65.592 55.5135C66.456 56.7602 65.376 57.8602 62.136 60.2802C61.7331 60.5875 61.4629 61.042 61.3824 61.548C61.3018 62.0541 61.4171 62.5723 61.704 62.9935C61.921 63.2972 62.2214 63.5288 62.5672 63.6593C62.9131 63.7897 63.2891 63.8132 63.648 63.7268C63.9187 63.6809 64.1695 63.5532 64.368 63.3602C68.4 60.3535 69.48 57.7868 69.48 55.9535Z" fill="#0654B5"/>
<path d="M40.0319 74.7269C39.5936 74.828 39.1341 74.7651 38.7375 74.5496C38.341 74.3342 38.0337 73.9807 37.8719 73.5535C37.3822 72.2464 37.4 70.7982 37.9217 69.5039C38.4433 68.2096 39.4297 67.1665 40.6799 66.5869L45.9359 64.0935C46.1629 63.9876 46.4081 63.9282 46.6575 63.9188C46.907 63.9094 47.1558 63.9501 47.3898 64.0386C47.6238 64.1272 47.8384 64.2618 48.0213 64.4348C48.2043 64.6077 48.3519 64.8157 48.4559 65.0469C48.56 65.278 48.6182 65.5277 48.6275 65.7818C48.6367 66.0359 48.5968 66.2893 48.5098 66.5276C48.4229 66.766 48.2908 66.9846 48.1209 67.1709C47.9511 67.3572 47.7469 67.5076 47.5199 67.6135L42.2639 70.0335C41.8823 70.2107 41.5808 70.5287 41.4205 70.9235C41.2601 71.3182 41.2528 71.7602 41.3999 72.1602C41.5676 72.6376 41.549 73.1623 41.3481 73.6262C41.1472 74.0901 40.7792 74.4578 40.3199 74.6535L40.0319 74.7269Z" fill="#4086EA"/>
<path d="M44.28 67.0999C42.336 67.9066 40.968 69.2999 41.256 71.6466C41.2534 71.3073 41.3472 70.9746 41.5261 70.6883C41.7049 70.4021 41.9611 70.1746 42.264 70.0333L46.368 68.1266C45.864 67.3199 45.144 66.7333 44.28 67.0999Z" fill="#0654B5"/>
<path d="M63.864 60.6465C63.534 60.0992 63.0443 59.6706 62.4633 59.4208C61.8823 59.1709 61.2392 59.1123 60.624 59.2532L46.08 62.8465C45.4819 63.0032 44.9491 63.3514 44.5602 63.84C44.1713 64.3285 43.9468 64.9315 43.92 65.5598L43.56 73.6265C43.4946 75.5978 44.1343 77.5262 45.36 79.0532C45.8909 79.6826 46.5809 80.152 47.3551 80.4105C48.1293 80.6691 48.9582 80.7069 49.752 80.5199L65.376 76.6332C66.1584 76.4327 66.8729 76.02 67.4434 75.4389C68.0139 74.8578 68.4191 74.1301 68.616 73.3332C69.0189 71.3829 68.7118 69.3499 67.752 67.6132L63.864 60.6465Z" fill="#FF7259"/>
<path d="M45.36 79.0531C45.8909 79.6825 46.5809 80.1519 47.3551 80.4105C48.1293 80.669 48.9582 80.7068 49.752 80.5198L65.376 76.6331C66.1584 76.4326 66.8729 76.0199 67.4434 75.4388C68.0139 74.8577 68.4191 74.13 68.616 73.3331C68.9193 71.8674 68.8196 70.3448 68.328 68.9331L43.632 75.0198C43.8105 76.5068 44.411 77.9085 45.36 79.0531Z" fill="#ED4C4C"/>
<path d="M66.2401 72.8933L47.2321 77.5867C46.2866 77.857 45.2831 77.8314 44.3521 77.5133C44.6401 78.0267 45.0001 78.54 45.3601 79.0533C45.891 79.6828 46.581 80.1522 47.3552 80.4107C48.1294 80.6692 48.9583 80.707 49.7521 80.52L65.3761 76.6333C66.1585 76.4328 66.873 76.0201 67.4435 75.439C68.014 74.858 68.4192 74.1303 68.6161 73.3333C68.6969 72.7254 68.745 72.1133 68.7601 71.5C68.0702 72.2032 67.1948 72.6872 66.2401 72.8933Z" fill="#ED4C4C"/>
<path d="M57.166 32.1456L35.1242 38.456C32.2531 39.278 30.5799 42.3149 31.3869 45.2391L35.1277 58.7938C35.9347 61.7181 38.9164 63.4223 41.7875 62.6003L63.8292 56.2899C66.7003 55.468 68.3736 52.4311 67.5665 49.5068L63.8258 35.9521C63.0187 33.0279 60.0371 31.3237 57.166 32.1456Z" fill="#FF7259"/>
<path d="M66.8879 47.1533L67.5359 49.5C67.7331 50.1982 67.7926 50.9292 67.7109 51.651C67.6291 52.3727 67.4078 53.0708 67.0597 53.7049C66.7116 54.339 66.2436 54.8966 65.6827 55.3454C65.1218 55.7943 64.4792 56.1255 63.7919 56.32L41.7599 62.6267C41.0791 62.8266 40.366 62.8863 39.6623 62.8022C38.9586 62.7181 38.2785 62.4919 37.6617 62.1368C37.0449 61.7817 36.5038 61.3049 36.0701 60.7342C35.6364 60.1635 35.3188 59.5105 35.1359 58.8133L34.4879 56.4667C34.6708 57.1638 34.9884 57.8169 35.4221 58.3875C35.8558 58.9582 36.3969 59.435 37.0137 59.7901C37.6305 60.1452 38.3106 60.3714 39.0143 60.4556C39.718 60.5397 40.4311 60.48 41.1119 60.28L63.2159 53.9733C63.8967 53.7711 64.5317 53.4343 65.0847 52.9821C65.6376 52.5299 66.0977 51.9712 66.4387 51.3379C66.7797 50.7046 66.9949 50.0091 67.0719 49.2911C67.149 48.5731 67.0865 47.8467 66.8879 47.1533Z" fill="#ED4C4C"/>
<path d="M49.2223 56.4641L54.2129 55.0353C54.5071 54.9511 54.822 54.9893 55.0884 55.1416C55.3549 55.2939 55.551 55.5478 55.6337 55.8473L56.3546 58.4594L49.2152 60.5034L48.4944 57.8913C48.4144 57.6037 48.4452 57.2959 48.5805 57.0306C48.7158 56.7654 48.9453 56.5628 49.2223 56.4641Z" fill="#FFDC53"/>
<path d="M55.6867 56.0928L48.5474 58.1367L49.1942 60.4805L56.3335 58.4366L55.6867 56.0928Z" fill="#F9B300"/>
<path d="M67.0319 47.5932L64.3679 37.8398C65.0913 38.1089 65.7421 38.548 66.2675 39.1214C66.7929 39.6948 67.1782 40.3863 67.3919 41.1398L67.9679 43.1932C68.1799 43.9484 68.2054 44.7452 68.0421 45.5128C67.8788 46.2805 67.5318 46.9951 67.0319 47.5932Z" fill="#FFDC53"/>
<path d="M67.536 41.5796L67.968 43.1929C68.1799 43.9481 68.2054 44.7449 68.0421 45.5126C67.8788 46.2802 67.5318 46.9948 67.032 47.5929L66.168 44.5129C67.248 43.6329 67.752 42.5329 67.536 41.5796Z" fill="#F9B300"/>
<path d="M34.56 56.9067L31.896 47.1533C31.3961 47.7514 31.0491 48.466 30.8858 49.2337C30.7225 50.0013 30.748 50.7981 30.96 51.5533L31.536 53.6067C31.7497 54.3602 32.1349 55.0517 32.6604 55.6251C33.1858 56.1985 33.8366 56.6376 34.56 56.9067Z" fill="#FFDC53"/>
<path d="M33.696 53.8265L34.56 56.9065C33.8367 56.6374 33.1858 56.1983 32.6604 55.625C32.135 55.0516 31.7497 54.36 31.536 53.6065L31.104 51.9932C31.32 52.9465 32.328 53.6065 33.696 53.8265Z" fill="#F9B300"/>
<path d="M41.7727 34.6019L50.3676 32.1412C50.6066 32.0728 50.8624 32.1039 51.0789 32.2276C51.2954 32.3514 51.4548 32.5576 51.5219 32.801L51.7752 33.7188L41.3781 36.6954L41.1249 35.7776C41.0577 35.5342 41.0882 35.2736 41.2097 35.0531C41.3312 34.8326 41.5337 34.6703 41.7727 34.6019Z" fill="#70A9FA"/>
<path d="M43.1031 34.1593L50.4504 32.0559C50.671 31.9927 50.9072 32.0214 51.107 32.1356C51.3068 32.2498 51.4539 32.4402 51.516 32.6649L51.7887 33.6533L42.7779 36.233L42.5052 35.2446C42.4432 35.0199 42.4713 34.7794 42.5835 34.5758C42.6956 34.3723 42.8825 34.2225 43.1031 34.1593Z" fill="#4086EA"/>
<path d="M57.4387 36.5095L38.5853 41.9071C37.1307 42.3235 36.2829 43.8622 36.6918 45.3438L38.9811 53.639C39.39 55.1206 40.9007 55.9841 42.3553 55.5677L61.2087 50.1701C62.6634 49.7536 63.5111 48.2149 63.1023 46.7333L60.813 38.4381C60.4041 36.9565 58.8934 36.093 57.4387 36.5095Z" fill="#ED4C4C"/>
<path d="M57.2882 35.9846L38.4348 41.3822C36.9802 41.7986 36.1324 43.3373 36.5413 44.8189L38.8305 53.1141C39.2394 54.5957 40.7502 55.4592 42.2048 55.0428L61.0582 49.6452C62.5129 49.2287 63.3606 47.69 62.9517 46.2084L60.6625 37.9132C60.2536 36.4316 58.7429 35.5681 57.2882 35.9846Z" fill="black"/>
<path d="M44.4371 45.1014L40.4862 46.2325C40.2565 46.2983 40.12 46.5317 40.1814 46.754C40.2427 46.9762 40.4786 47.1031 40.7083 47.0373L44.6592 45.9062C44.8889 45.8404 45.0254 45.607 44.964 45.3847C44.9027 45.1625 44.6668 45.0356 44.4371 45.1014Z" fill="#FFF0A6"/>
<path d="M54.1619 43.1504L58.39 41.9399C58.6197 41.8741 58.7562 41.6406 58.6949 41.4184C58.6335 41.1962 58.3976 41.0693 58.1679 41.1351L53.9398 42.3455C53.7101 42.4113 53.5736 42.6448 53.6349 42.867C53.6963 43.0893 53.9322 43.2161 54.1619 43.1504Z" fill="#FFF0A6"/>
<path d="M57.0239 60.1333L49.752 61.9666L49.968 67.32C49.9763 67.4427 50.0098 67.5623 50.0663 67.671C50.1228 67.7798 50.2011 67.8752 50.2961 67.9513C50.3911 68.0273 50.5007 68.0822 50.6178 68.1124C50.7349 68.1426 50.8569 68.1474 50.976 68.1266L58.68 66.22C58.798 66.1904 58.9078 66.1335 59.0008 66.0537C59.0938 65.974 59.1675 65.8735 59.2163 65.76C59.265 65.6465 59.2874 65.5232 59.2818 65.3995C59.2762 65.2758 59.2427 65.155 59.1839 65.0466L57.0239 60.1333Z" fill="#FFDC53"/>
<path d="M49.032 48.0335C49.5442 47.1642 50.3191 46.4872 51.2406 46.1038C52.1621 45.7205 53.1807 45.6513 54.144 45.9068" stroke="#FFF0A6" stroke-width="0.917356" stroke-linecap="round" stroke-linejoin="round"/>
<path d="M46.224 77.6601C46.0205 77.6891 45.814 77.6365 45.648 77.5134L43.92 75.6801C43.8524 75.5677 43.824 75.4355 43.8392 75.3047C43.8544 75.1739 43.9125 75.0521 44.0039 74.9589C44.0954 74.8658 44.2149 74.8067 44.3434 74.7912C44.4718 74.7757 44.6017 74.8046 44.712 74.8734L46.512 76.7068C46.6132 76.8157 46.6697 76.9601 46.6697 77.1101C46.6697 77.2601 46.6132 77.4045 46.512 77.5134L46.224 77.6601Z" fill="#22262E"/>
<path d="M44.64 78.3935H44.568C44.4079 78.3945 44.2532 78.3351 44.1335 78.2268C44.0138 78.1184 43.9378 77.9688 43.92 77.8068L43.776 75.3135C43.7749 75.1698 43.8256 75.0307 43.9185 74.9225C44.0114 74.8144 44.14 74.7448 44.28 74.7268C44.3558 74.7165 44.4327 74.7217 44.5065 74.7421C44.5802 74.7624 44.6493 74.7975 44.7096 74.8453C44.7699 74.893 44.8202 74.9525 44.8577 75.0203C44.8952 75.0881 44.9191 75.1628 44.928 75.2401L45.072 77.7335C45.08 77.8763 45.0421 78.0179 44.9642 78.1369C44.8863 78.256 44.7725 78.346 44.64 78.3935Z" fill="#22262E"/>
<path d="M43.992 77.0733H42.408C41.4098 76.9601 40.4605 76.5729 39.6616 75.9529C38.8627 75.3329 38.2441 74.5035 37.872 73.5533C37.7794 73.3177 37.734 73.0656 37.7383 72.8118C37.7427 72.558 37.7967 72.3076 37.8973 72.0754C37.9979 71.8432 38.143 71.6337 38.3241 71.4594C38.5052 71.285 38.7187 71.1492 38.952 71.06C39.4207 70.8892 39.9359 70.9081 40.3914 71.1128C40.8468 71.3175 41.2078 71.6923 41.4 72.16C41.5051 72.4548 41.6888 72.7138 41.9304 72.9081C42.1721 73.1024 42.4621 73.2243 42.768 73.26H43.704C43.9501 73.2785 44.1902 73.3464 44.4104 73.4598C44.6306 73.5732 44.8267 73.7298 44.9873 73.9206C45.1479 74.1115 45.2698 74.3327 45.3462 74.5718C45.4225 74.8108 45.4517 75.0628 45.432 75.3133C45.4239 75.7297 45.2769 76.1308 45.0152 76.4506C44.7534 76.7705 44.3926 76.9901 43.992 77.0733Z" fill="#4086EA"/>
<path d="M58.752 55.6601C58.6331 55.6906 58.5078 55.6818 58.3942 55.6348C58.2806 55.5878 58.1847 55.5051 58.1205 55.3987C58.0562 55.2924 58.027 55.1679 58.0369 55.0435C58.0469 54.919 58.0956 54.8011 58.176 54.7068L59.904 53.0201C59.9495 52.9444 60.0112 52.8803 60.0846 52.8324C60.1579 52.7846 60.2409 52.7543 60.3274 52.7438C60.4139 52.7334 60.5016 52.743 60.5839 52.7721C60.6662 52.8012 60.741 52.8488 60.8025 52.9116C60.8641 52.9743 60.9109 53.0504 60.9395 53.1343C60.968 53.2181 60.9775 53.3074 60.9672 53.3955C60.957 53.4836 60.9272 53.5682 60.8803 53.6429C60.8333 53.7176 60.7703 53.7804 60.696 53.8268L58.968 55.5134L58.752 55.6601Z" fill="#22262E"/>
<path d="M60.48 53.9733H60.048L57.888 52.9467C57.8214 52.9086 57.7629 52.8574 57.7158 52.796C57.6688 52.7347 57.6343 52.6645 57.6142 52.5894C57.5941 52.5143 57.5888 52.4359 57.5988 52.3588C57.6087 52.2816 57.6336 52.2072 57.672 52.14C57.7021 52.0745 57.7454 52.0163 57.7991 51.969C57.8528 51.9218 57.9157 51.8867 57.9837 51.8659C58.0516 51.8451 58.1231 51.8392 58.1935 51.8485C58.2639 51.8579 58.3315 51.8822 58.392 51.92L60.552 52.9467C60.6248 52.9781 60.6904 53.0245 60.7448 53.0829C60.7992 53.1413 60.8413 53.2105 60.8683 53.2862C60.8953 53.3619 60.9067 53.4424 60.9019 53.5228C60.897 53.6031 60.8759 53.6816 60.84 53.7533C60.7441 53.8615 60.6188 53.938 60.48 53.9733Z" fill="#22262E"/>
<path d="M60.48 53.9733H57.96C57.888 53.9839 57.8146 53.9785 57.7449 53.9575C57.6752 53.9364 57.6108 53.9003 57.556 53.8515C57.5013 53.8028 57.4576 53.7425 57.4279 53.6749C57.3982 53.6073 57.3832 53.534 57.384 53.46C57.3736 53.3867 57.3789 53.3119 57.3995 53.2409C57.4201 53.1699 57.4556 53.1043 57.5035 53.0486C57.5514 52.9928 57.6105 52.9483 57.6769 52.918C57.7433 52.8878 57.8153 52.8725 57.888 52.8733H60.264C60.3397 52.863 60.4167 52.8682 60.4904 52.8886C60.5642 52.9089 60.6332 52.944 60.6935 52.9917C60.7538 53.0395 60.8042 53.099 60.8417 53.1668C60.8792 53.2346 60.9031 53.3093 60.912 53.3866C60.905 53.517 60.8602 53.6423 60.7833 53.7467C60.7064 53.8511 60.6009 53.93 60.48 53.9733Z" fill="#22262E"/>
<path d="M67.6081 56.2466C67.2387 56.3489 66.8474 56.3335 66.487 56.2024C66.1265 56.0713 65.8142 55.8307 65.5921 55.5132C64.7281 54.2666 62.1361 54.8532 61.2721 55.1466C61.0361 55.2392 60.7842 55.2821 60.5316 55.2728C60.2789 55.2635 60.0307 55.2022 59.8019 55.0926C59.5732 54.9829 59.3686 54.8272 59.2005 54.6349C59.0325 54.4425 58.9044 54.2174 58.8241 53.9732C58.6817 53.4962 58.7212 52.9821 58.9348 52.5335C59.1483 52.0849 59.5202 51.7348 59.9761 51.5533C62.2081 50.7466 66.5281 50.1599 68.6881 53.3132C68.8377 53.5125 68.9457 53.7409 69.0052 53.9844C69.0647 54.2279 69.0745 54.4812 69.034 54.7286C68.9935 54.9761 68.9035 55.2125 68.7697 55.4231C68.6359 55.6338 68.4611 55.8142 68.2561 55.9532C68.071 56.1105 67.8466 56.2121 67.6081 56.2466Z" fill="#4086EA"/>
<path d="M37.584 72.6001C37.6369 72.9298 37.7338 73.2505 37.872 73.5534C38.2441 74.5036 38.8626 75.333 39.6616 75.953C40.4605 76.573 41.4098 76.9602 42.408 77.0734H43.992C44.381 76.9933 44.7331 76.7845 44.9935 76.4795C45.254 76.1744 45.4081 75.7903 45.432 75.3868C40.968 76.1201 38.016 73.9934 37.584 72.6001Z" fill="#0654B5"/>
<path d="M69.048 54.4868C67.68 52.1401 63.792 52.7268 58.824 53.7534V53.9734C58.9043 54.2176 59.0324 54.4427 59.2004 54.635C59.3685 54.8274 59.5731 54.9831 59.8019 55.0928C60.0306 55.2024 60.2788 55.2637 60.5315 55.273C60.7842 55.2823 61.0361 55.2393 61.272 55.1468C62.136 54.8534 64.728 54.2668 65.592 55.5134L67.104 57.8601L69.192 55.7334L69.048 54.4868Z" fill="#0654B5"/>
<path d="M37.512 71.5001V72.0135C38.0486 71.5688 38.7159 71.3199 39.4075 71.3066C40.0992 71.2933 40.7753 71.5164 41.328 71.9401V71.6468C40.8362 71.1205 40.1621 70.8106 39.4492 70.7832C38.7364 70.7558 38.0413 71.0131 37.512 71.5001Z" fill="black"/>
<path d="M41.976 65.9268L41.616 66.1468C42.177 66.5317 42.6088 67.0825 42.8534 67.7249C43.098 68.3673 43.1435 69.0705 42.984 69.7401L43.344 69.5201C43.632 67.6868 43.056 66.5134 41.976 65.9268Z" fill="black"/>
<path d="M41.832 72.8199C41.449 72.7802 41.0625 72.8455 40.7126 73.009C40.3627 73.1724 40.062 73.4282 39.8418 73.7498C39.6215 74.0714 39.4896 74.447 39.4598 74.838C39.4299 75.2289 39.5032 75.6208 39.672 75.9732L40.176 76.3399C39.672 74.4332 40.248 73.4799 41.976 72.9666L41.832 72.8199Z" fill="black"/>
<path d="M38.592 68.2734L38.304 68.64C39.816 67.6134 41.544 69.52 41.688 70.4734L41.904 70.2534C41.8831 69.8666 41.7687 69.4912 41.5708 69.1605C41.3728 68.8298 41.0976 68.5541 40.7697 68.358C40.4417 68.162 40.0713 68.0516 39.6913 68.0369C39.3113 68.0221 38.9336 68.1033 38.592 68.2734Z" fill="black"/>
<path d="M66.456 61.5997C65.88 59.0331 64.728 58.8131 63.936 58.7397L63.6479 59.0331C65.736 59.4731 66.168 61.8931 66.168 61.8931L66.456 61.5997Z" fill="black"/>
<path d="M65.448 56.6864L65.304 57.1264C67.248 57.0531 68.256 57.7864 68.616 58.9598L68.904 58.3731C67.824 56.7598 66.744 56.3198 65.448 56.6864Z" fill="black"/>
<path d="M62.496 50.9668H61.92C61.632 52.0668 61.776 53.8268 62.784 54.7068H63.144C62.4521 53.596 62.2192 52.2517 62.496 50.9668Z" fill="black"/>
<path d="M64.944 55.0002C65.5517 53.85 65.9885 52.6143 66.24 51.3335L66.744 51.5535C66.5404 52.8585 66.0747 54.1068 65.376 55.2202L64.944 55.0002Z" fill="black"/>
<path opacity="0.8" d="M169.128 23.8334C168.12 17.4534 161.568 12.54 153.576 12.54C147.168 12.54 141.624 15.7667 139.248 20.3867C137.99 19.7184 136.586 19.3847 135.167 19.4166C133.748 19.4485 132.36 19.845 131.132 20.5692C129.904 21.2934 128.876 22.3219 128.142 23.5592C127.408 24.7965 126.993 26.2025 126.936 27.6467C120.24 28.16 115.128 30.0667 115.128 32.34H180C180.36 28.0134 174.312 24.5667 169.128 23.8334Z" fill="#AEC7FF"/>
<path d="M162.216 65.12C163.174 67.0714 163.429 69.3034 162.936 71.4266C162.671 72.669 162.169 73.846 161.458 74.8906C160.746 75.9352 159.84 76.8268 158.79 77.5146C157.741 78.2023 156.568 78.6728 155.34 78.8991C154.112 79.1253 152.852 79.103 151.632 78.8333L123.552 72.6733C121.087 72.1135 118.94 70.5848 117.576 68.42C116.317 66.4173 115.82 64.0152 116.178 61.6654C116.536 59.3156 117.724 57.1799 119.52 55.66C118.562 53.7085 118.307 51.4765 118.8 49.3533C119.273 47.1992 120.448 45.2721 122.135 43.8867C123.823 42.5014 125.921 41.7399 128.088 41.7266C128.766 41.7236 129.442 41.7974 130.104 41.9466L132.048 42.3866C132.034 41.9941 132.058 41.601 132.12 41.2133C132.696 28.82 135.072 22.8066 139.32 22.8066H139.536C142.488 22.9533 143.856 25.96 144.432 28.4533C145.168 32.2175 145.434 36.0612 145.224 39.8933C146.495 36.6194 148.112 33.4965 150.048 30.58C151.992 27.7933 153.936 26.4733 155.88 26.4733C156.376 26.4575 156.868 26.5579 157.32 26.7666C160.056 27.8666 160.416 31.1666 160.2 33.7333C159.984 36.3 158.76 41.2133 156.672 46.64L156.24 47.6666L158.184 48.1066C160.649 48.6664 162.797 50.1951 164.16 52.36C165.419 54.3626 165.916 56.7647 165.558 59.1146C165.2 61.4644 164.012 63.6001 162.216 65.12Z" fill="#F8F9F9"/>
<path d="M157.714 50.2138L129.634 44.0304C125.67 43.1574 121.761 45.723 120.904 49.7608L120.897 49.7966C120.039 53.8344 122.558 57.8154 126.523 58.6884L154.602 64.8718C158.566 65.7448 162.475 63.1792 163.332 59.1414L163.34 59.1056C164.197 55.0678 161.678 51.0868 157.714 50.2138Z" fill="#FF7ABC"/>
<path d="M155.262 61.9618L127.183 55.7785C123.219 54.9055 119.31 57.471 118.453 61.5088L118.445 61.5447C117.588 65.5825 120.107 69.5635 124.072 70.4365L152.151 76.6198C156.115 77.4928 160.024 74.9272 160.881 70.8895L160.889 70.8536C161.746 66.8158 159.227 62.8348 155.262 61.9618Z" fill="#FF7ABC"/>
<path d="M148.849 60.6915C149.252 59.9005 149.12 59.0174 148.556 58.7192C147.991 58.421 147.206 58.8206 146.804 59.6116C146.401 60.4027 146.533 61.2857 147.098 61.5839C147.662 61.8821 148.447 61.4826 148.849 60.6915Z" fill="#1B1926"/>
<path d="M134.673 58.8195C135.309 58.7856 135.787 58.0368 135.741 57.147C135.695 56.2572 135.143 55.5634 134.508 55.5973C133.872 55.6312 133.394 56.38 133.44 57.2698C133.486 58.1596 134.038 58.8534 134.673 58.8195Z" fill="#1B1926"/>
<path d="M154.584 45.76C150.336 56.76 148.032 57.2734 145.8 56.3934C143.568 55.5134 142.272 53.5334 146.52 42.5334C150.768 31.5334 154.296 27.94 156.528 28.82C158.76 29.7 158.904 34.8334 154.584 45.76Z" fill="#FF7ABC"/>
<path d="M134.28 41.2866C133.704 53.0933 135.576 54.56 137.952 54.6333C140.328 54.7066 142.416 53.5333 142.992 41.7267C143.568 29.92 141.84 25.1533 139.464 25.08C137.088 25.0067 134.856 29.48 134.28 41.2866Z" fill="#FF7ABC"/>
<path d="M137.88 61.9668V62.1868C138.082 62.6381 138.386 63.0344 138.767 63.3435C139.148 63.6526 139.595 63.8659 140.072 63.9659C140.549 64.066 141.043 64.0499 141.512 63.9192C141.982 63.7885 142.415 63.5467 142.776 63.2135L142.92 63.0668" stroke="#1B1926" stroke-width="2.00523" stroke-linecap="round" stroke-linejoin="round"/>
<path d="M157.536 50.2334L153.144 49.28C153.648 48.2534 154.08 47.08 154.584 45.76C158.904 34.8334 158.76 29.7 156.528 28.82C154.296 27.94 150.84 31.5334 146.52 42.5334C145.8 44.44 145.224 46.0534 144.792 47.4467L155.664 53.8267C156.552 54.3648 157.237 55.1913 157.608 56.1734C158.007 57.18 158.046 58.2976 157.716 59.3302C157.387 60.3627 156.712 61.2442 155.808 61.82L152.352 64.02L153.576 66.5867C154.361 68.2309 154.636 70.0791 154.366 71.8863C154.096 73.6936 153.293 75.3746 152.064 76.7067C153.579 77.0565 155.164 76.908 156.591 76.2826C158.017 75.6572 159.213 74.5871 160.005 73.2262C160.797 71.8652 161.145 70.2835 160.999 68.7084C160.853 67.1332 160.22 65.6459 159.192 64.46C160.598 63.7842 161.761 62.6751 162.514 61.2897C163.268 59.9042 163.575 58.3125 163.392 56.7396C163.209 55.1666 162.545 53.6922 161.494 52.5246C160.443 51.3571 159.059 50.5555 157.536 50.2334Z" fill="#F763BE"/>
<path d="M142.56 46.9334C142.704 45.4667 142.848 43.7801 142.992 41.7267C143.568 29.9201 141.84 25.1534 139.464 25.0801C135.288 32.0467 135.576 45.4667 135.576 45.4667L139.68 51.4067C139.817 51.6207 139.997 51.803 140.208 51.9419C140.419 52.0809 140.656 52.1733 140.904 52.2134C141.218 52.2876 141.547 52.2778 141.856 52.1848C142.166 52.0918 142.447 51.9188 142.671 51.6826C142.896 51.4465 143.057 51.1551 143.138 50.837C143.22 50.5188 143.219 50.1845 143.136 49.8667L142.56 46.9334Z" fill="#F763BE"/>
<path d="M126.864 32.3403L125.856 34.5403C126.074 34.925 126.221 35.3477 126.288 35.7869L126.504 39.2336C126.53 39.5909 126.486 39.9498 126.374 40.2896C126.263 40.6294 126.087 40.9435 125.856 41.2136V42.0936C125.884 42.4921 125.821 42.8919 125.671 43.2611C125.521 43.6303 125.289 43.9587 124.992 44.2203L125.28 47.5203L125.64 51.9203C125.764 53.6218 125.244 55.3073 124.186 56.6303C123.128 57.9533 121.613 58.8133 119.952 59.0336H119.232L119.376 61.5269C119.459 62.6096 119.133 63.6838 118.463 64.5292C117.794 65.3745 116.832 65.9271 115.776 66.0736H115.56C115.007 66.141 114.447 66.0911 113.914 65.927C113.381 65.7629 112.887 65.4882 112.464 65.1203C112.042 64.7555 111.697 64.3075 111.45 63.8034C111.202 63.2993 111.057 62.7495 111.024 62.1869L110.592 56.9803V56.6869L108.216 56.8336C107.729 57.771 107.032 58.5782 106.181 59.1898C105.33 59.8014 104.35 60.2001 103.32 60.3536H102.528L102.744 62.7736C102.826 63.8675 102.489 64.9513 101.805 65.7986C101.121 66.6458 100.142 67.191 99.0719 67.3203H98.8559C97.7446 67.3825 96.6526 67.0054 95.8075 66.2676C94.9624 65.5299 94.4296 64.4884 94.3199 63.3603V62.3336C92.1408 62.6144 89.9328 62.565 87.7679 62.1869L80.9999 69.8869C80.4904 70.5022 79.7691 70.8958 78.9839 70.9869H78.1919C76.7519 70.7669 74.5199 70.0336 72.1439 67.3203C69.7679 64.6069 69.1199 62.2603 69.1199 60.7936V60.2803C67.7167 58.8579 66.6996 57.0892 66.1679 55.1469C65.0879 51.6269 65.5199 49.2803 66.0959 47.9603C66.3004 47.4559 66.6244 47.011 67.0391 46.6655C67.4537 46.3199 67.946 46.0845 68.4719 45.9803L69.3359 45.8336C68.4538 42.8666 68.1361 39.7553 68.3999 36.6669C68.0488 36.1687 67.8261 35.5888 67.7519 34.9803C67.7402 34.6121 67.7643 34.2436 67.8239 33.8803L68.2559 31.9003L55.3679 28.2336C52.5237 27.441 50.0798 25.5807 48.5279 23.0269L42.6239 13.2736H42.4079C41.4117 13.001 40.5593 12.3432 40.0319 11.4403L38.1599 8.06693C37.9224 7.69689 37.7827 7.27063 37.7544 6.82944C37.7261 6.38825 37.8102 5.94711 37.9985 5.54875C38.1868 5.15039 38.473 4.80833 38.8292 4.55573C39.1855 4.30312 39.5998 4.14852 40.0319 4.10693C40.3668 4.01862 40.7208 4.04438 41.0399 4.18026L52.6319 7.40693L52.3439 6.96693C52.1072 6.58706 51.9697 6.15186 51.9445 5.70265C51.9193 5.25344 52.0072 4.80512 52.1999 4.40026C52.4035 4.01504 52.691 3.6825 53.0405 3.42823C53.39 3.17397 53.7922 3.00475 54.2159 2.93359H55.2959L87.6239 12.1003C88.0256 11.6378 88.5156 11.2635 89.0639 11.0003L89.9279 10.7803C90.5602 10.7047 91.2011 10.78 91.7999 11.0003C95.4107 7.75607 99.9064 5.70962 104.688 5.13359L106.272 4.98693C107.54 4.85332 108.816 4.82879 110.088 4.91359C110.288 4.52498 110.557 4.17702 110.88 3.88693C111.206 3.66509 111.574 3.51521 111.96 3.44693H112.752L113.256 3.59359C115.632 4.18026 117.72 4.69359 119.448 5.79359H119.52C119.879 6.03553 120.176 6.36266 120.384 6.74693L120.96 8.14026C122.803 9.13143 124.422 10.5055 125.712 12.1736C127.763 15.0772 128.961 18.5154 129.165 22.0864C129.369 25.6575 128.571 29.214 126.864 32.3403Z" fill="#F8F9F9"/>
<path d="M92.1599 19.7268L58.3199 10.1201L64.6559 20.6801C65.9074 22.7169 67.8578 24.2068 70.1279 24.8601L97.0559 32.4868L97.7759 29.8468L92.1599 19.7268Z" fill="#DAE2ED"/>
<path d="M99.576 17.9668L54.648 5.28014C54.5857 5.27472 54.5231 5.28591 54.4664 5.3126C54.4096 5.33929 54.3607 5.38056 54.3244 5.43235C54.2881 5.48415 54.2656 5.54468 54.2592 5.608C54.2528 5.67132 54.2627 5.73524 54.288 5.79347L56.232 9.09347C56.3317 9.27341 56.466 9.43107 56.6268 9.55706C56.7876 9.68304 56.9716 9.77478 57.168 9.82681L58.32 10.1201L92.16 19.7268L97.776 29.8468L97.056 32.4868L96.552 34.3935L107.856 37.6201L109.08 33.0735L101.592 19.5801C101.385 19.183 101.099 18.8343 100.751 18.5565C100.404 18.2786 100.004 18.0778 99.576 17.9668Z" fill="#ECEFF6"/>
<path d="M97.7759 29.8468L92.1599 19.7268L58.3199 10.1201L59.6159 12.2468L91.0799 21.1201L96.2639 30.5801L95.9039 32.1201L97.0559 32.4868L97.7759 29.8468Z" fill="#C5CEDD"/>
<path d="M93.2191 60.1744C104.839 59.3053 113.567 49.0067 112.713 37.1718C111.86 25.3369 101.749 16.4474 90.1291 17.3165C78.5094 18.1856 69.7815 28.4842 70.6348 40.3191C71.4881 52.154 81.5994 61.0435 93.2191 60.1744Z" fill="#4F5D7F"/>
<path d="M92.676 52.6415C100.211 52.0779 105.871 45.3996 105.317 37.7251C104.764 30.0506 98.2072 24.2861 90.6722 24.8497C83.1372 25.4132 77.4775 32.0915 78.0308 39.766C78.5842 47.4405 85.141 53.2051 92.676 52.6415Z" fill="#7687B2"/>
<path d="M104.4 20.68C104.688 23.9066 96.84 32.56 91.656 37.4733C86.544 37.9133 73.8 38.3533 70.56 35.64C70.4126 35.5456 70.2897 35.4162 70.202 35.263C70.1142 35.1098 70.0641 34.9372 70.056 34.76V34.32C70.6418 31.1623 71.8908 28.1709 73.7177 25.5507C75.5445 22.9306 77.9059 20.7438 80.64 19.14C87.624 15.0333 96.336 15.3266 103.968 19.9466C104.106 20.0075 104.222 20.111 104.3 20.2425C104.377 20.3741 104.412 20.5271 104.4 20.68Z" fill="#FF7F14"/>
<path d="M92.088 38.5C92.088 38.5 70.92 27.7933 72.792 25.08C74.7122 22.2598 77.2198 19.906 80.136 18.1867C87.984 13.5667 97.2 14.5933 104.544 18.9933C109.728 22.1467 92.088 38.5 92.088 38.5Z" fill="#FF903E"/>
<path d="M92.5231 50.5207C98.908 50.0431 103.704 44.3841 103.235 37.881C102.766 31.3779 97.21 26.4932 90.8252 26.9707C84.4403 27.4483 79.6444 33.1073 80.1133 39.6104C80.5821 46.1135 86.1382 50.9982 92.5231 50.5207Z" fill="#EBEFF7"/>
<path d="M92.386 48.6189C97.7397 48.2185 101.761 43.4734 101.368 38.0205C100.975 32.5675 96.316 28.4717 90.9622 28.8721C85.6084 29.2725 81.587 34.0176 81.9802 39.4706C82.3733 44.9235 87.0322 49.0194 92.386 48.6189Z" fill="#DAE2ED"/>
<path d="M85.5361 34.9799L90.5761 31.3132C90.7364 31.2118 90.9188 31.1521 91.1071 31.1393C91.2954 31.1265 91.4839 31.1611 91.6561 31.2399L97.2721 33.8799C97.4256 33.9746 97.5567 34.1025 97.6562 34.2546C97.7558 34.4067 97.8213 34.5792 97.8481 34.7599L98.4241 40.9932C98.4354 41.1868 98.4023 41.3804 98.3273 41.5586C98.2523 41.7368 98.1375 41.8948 97.9921 42.0199L92.9521 45.6132C92.7917 45.7146 92.6094 45.7743 92.4211 45.7871C92.2327 45.7999 92.0442 45.7654 91.8721 45.6866L86.2561 43.0466C86.0794 42.9833 85.9277 42.8632 85.8238 42.7045C85.7199 42.5458 85.6695 42.357 85.6801 42.1666L85.1041 35.9332C85.0985 35.7511 85.1346 35.5701 85.2095 35.4046C85.2845 35.2391 85.3963 35.0937 85.5361 34.9799Z" fill="#C5CEDD"/>
<path d="M91.656 42.1668C93.5249 42.1668 95.04 40.6236 95.04 38.7201C95.04 36.8166 93.5249 35.2734 91.656 35.2734C89.787 35.2734 88.272 36.8166 88.272 38.7201C88.272 40.6236 89.787 42.1668 91.656 42.1668Z" fill="#B7C2CE"/>
<path d="M122.328 35.7866L118.656 36.08C118.728 37.4 118.8 38.7933 118.944 40.1866L122.544 39.8933C122.402 38.5291 122.33 37.1584 122.328 35.7866Z" fill="#80A7FF"/>
<path d="M121.68 44.8067L106.2 46.0533C106.116 46.0551 106.034 46.0267 105.968 45.9731C105.902 45.9195 105.857 45.8441 105.84 45.76C105.768 45.54 105.912 45.3933 106.128 45.3933L121.608 44.1467C121.824 44.0733 121.968 43.9267 121.968 43.78L121.752 41.2133C121.768 41.1333 121.802 41.0583 121.852 40.9945C121.903 40.9307 121.967 40.8801 122.04 40.8467C122.135 40.8467 122.227 40.8853 122.295 40.9541C122.362 41.0228 122.4 41.1161 122.4 41.2133L122.616 43.7067C122.626 43.8416 122.609 43.9771 122.568 44.1055C122.526 44.2339 122.459 44.3526 122.372 44.4548C122.286 44.557 122.18 44.6408 122.061 44.7011C121.942 44.7615 121.813 44.7974 121.68 44.8067Z" fill="#E4E9F7"/>
<path d="M122.688 34.7255L120.463 34.9038C120.265 34.9197 120.117 35.0963 120.132 35.2982L120.687 42.47C120.702 42.6719 120.876 42.8226 121.074 42.8067L123.299 42.6284C123.497 42.6125 123.645 42.4359 123.63 42.2341L123.075 35.0623C123.06 34.8604 122.886 34.7096 122.688 34.7255Z" fill="black"/>
<path d="M122.256 35.7869L123.624 35.6402C123.708 35.6385 123.79 35.6669 123.856 35.7205C123.922 35.7741 123.967 35.8495 123.984 35.9335L124.2 39.3802C124.272 39.6002 124.128 39.7469 123.912 39.7469L122.688 39.8935C122.2 39.9327 121.713 39.8016 121.307 39.5217C120.902 39.2419 120.601 38.83 120.456 38.3535C120.381 38.0624 120.37 37.7581 120.424 37.4621C120.478 37.1662 120.594 36.8859 120.766 36.641C120.938 36.3961 121.16 36.1927 121.418 36.0451C121.675 35.8975 121.961 35.8093 122.256 35.7869Z" fill="#80A7FF"/>
<path d="M119.52 56.7601L117.648 56.9068C117.431 56.9549 117.237 57.0744 117.093 57.2467C116.95 57.419 116.867 57.6346 116.856 57.8601L117.216 61.7468C117.236 62.007 117.205 62.2685 117.125 62.5164C117.045 62.7643 116.917 62.9937 116.75 63.1913C116.583 63.3889 116.379 63.5509 116.15 63.668C115.921 63.7851 115.672 63.8549 115.416 63.8735C114.904 63.895 114.404 63.7176 114.016 63.3771C113.628 63.0366 113.382 62.5586 113.328 62.0401L112.968 56.9068L112.104 45.3935V45.6868C112.081 45.1189 112.268 44.5631 112.628 44.1287C112.988 43.6943 113.495 43.413 114.048 43.3401L120.528 42.8268C120.808 42.7966 121.091 42.8243 121.36 42.9084C121.63 42.9925 121.879 43.1312 122.095 43.3162C122.31 43.5012 122.486 43.7286 122.613 43.9848C122.74 44.2409 122.814 44.5205 122.832 44.8068L123.408 52.1401C123.457 52.7048 123.395 53.2738 123.225 53.8137C123.055 54.3536 122.781 54.8534 122.419 55.2838C122.057 55.7143 121.614 56.0666 121.116 56.3201C120.618 56.5737 120.075 56.7232 119.52 56.7601Z" fill="#80A7FF"/>
<path d="M115.125 35.3275L112.9 35.5059C112.701 35.5218 112.553 35.6983 112.569 35.9002L113.123 43.072C113.139 43.2739 113.312 43.4247 113.51 43.4088L115.735 43.2304C115.934 43.2145 116.082 43.038 116.066 42.8361L115.512 35.6643C115.496 35.4624 115.323 35.3116 115.125 35.3275Z" fill="black"/>
<path d="M114.48 41.7998L114.696 44.3665C114.683 44.5445 114.612 44.7131 114.495 44.8458C114.378 44.9785 114.22 45.0678 114.048 45.0998L98.568 46.2731" stroke="#2F3849" stroke-width="3.08771" stroke-miterlimit="10"/>
<path d="M120.456 37.4734C119.503 36.3467 118.302 35.4666 116.95 34.9057C115.598 34.3447 114.134 34.1188 112.68 34.2467L102.24 35.0534L100.152 35.2C98.6681 35.331 97.2939 36.0496 96.3246 37.2015C95.3552 38.3533 94.8682 39.8464 94.968 41.36L95.76 51.7734C95.7964 52.2747 95.9298 52.7637 96.1524 53.2123C96.375 53.6609 96.6825 54.0603 97.0573 54.3874C97.432 54.7146 97.8665 54.963 98.3358 55.1185C98.8052 55.274 99.3 55.3334 99.792 55.2934L103.032 55L117.936 53.8267C118.671 53.7715 119.389 53.5673 120.046 53.2263C120.703 52.8852 121.286 52.4141 121.762 51.8404C122.239 51.2668 122.597 50.6022 122.818 49.8855C123.039 49.1688 123.117 48.4145 123.048 47.6667L122.688 42.9734C122.56 40.9395 121.775 39.0058 120.456 37.4734Z" fill="#9CB8FF"/>
<path d="M103.896 34.9067L100.152 35.2001C98.6681 35.3311 97.2939 36.0497 96.3246 37.2015C95.3552 38.3533 94.8682 39.8464 94.968 41.3601L95.688 50.4534C95.724 50.9519 95.8577 51.4379 96.0813 51.8828C96.3048 52.3278 96.6136 52.7225 96.9895 53.0438C97.3654 53.3651 97.8007 53.6065 98.2696 53.7535C98.7386 53.9006 99.2318 53.9504 99.72 53.9001L105.336 53.4601C104.76 47.3001 104.328 41.1401 103.896 34.9067Z" fill="#80A7FF"/>
<path d="M102.816 58.1537L101.016 58.3003C100.906 58.2999 100.796 58.3229 100.695 58.368C100.594 58.413 100.503 58.4791 100.429 58.5619C100.354 58.6448 100.298 58.7426 100.262 58.8491C100.227 58.9556 100.214 59.0684 100.224 59.1803L100.512 63.067C100.552 63.5809 100.395 64.0905 100.072 64.4876C99.7492 64.8848 99.2872 65.1381 98.784 65.1937C98.2795 65.2349 97.7791 65.0741 97.3892 64.7454C96.9993 64.4167 96.7506 63.9462 96.696 63.4337L96.264 58.227L95.184 43.6337V44.0003C95.1543 43.7151 95.1816 43.4267 95.2642 43.1525C95.3467 42.8782 95.4829 42.6239 95.6645 42.4046C95.8461 42.1854 96.0694 42.0059 96.3209 41.8768C96.5724 41.7478 96.8469 41.6719 97.128 41.6537L103.68 41.1403C103.956 41.1099 104.236 41.138 104.501 41.2228C104.766 41.3076 105.011 41.4474 105.221 41.6334C105.431 41.8193 105.6 42.0474 105.719 42.3033C105.838 42.5592 105.904 42.8374 105.912 43.1203L106.776 53.4603C106.856 54.6161 106.484 55.7572 105.743 56.6359C105.002 57.5146 103.95 58.06 102.816 58.1537Z" fill="#80A7FF"/>
<path d="M114.12 45.3931L98.568 46.6397C98.424 46.6397 98.208 46.4931 98.208 46.3464C98.2063 46.2606 98.2342 46.1769 98.2868 46.1099C98.3394 46.0429 98.4134 45.9969 98.496 45.9797L114.048 44.7331C114.13 44.7159 114.205 44.6698 114.257 44.6028C114.31 44.5358 114.338 44.4522 114.336 44.3664L114.12 41.873C114.12 41.7758 114.158 41.6825 114.225 41.6138C114.293 41.545 114.384 41.5064 114.48 41.5064C114.624 41.433 114.768 41.5797 114.84 41.7997L114.984 44.2931C115.004 44.424 114.998 44.5578 114.964 44.6859C114.931 44.8141 114.872 44.9337 114.79 45.0373C114.709 45.1408 114.607 45.2259 114.492 45.2871C114.377 45.3484 114.25 45.3845 114.12 45.3931Z" fill="#E4E9F7"/>
<path d="M115.125 35.3275L112.9 35.5059C112.701 35.5218 112.553 35.6983 112.569 35.9002L113.123 43.072C113.139 43.2739 113.312 43.4247 113.51 43.4088L115.735 43.2304C115.934 43.2145 116.082 43.038 116.066 42.8361L115.512 35.6643C115.496 35.4624 115.323 35.3116 115.125 35.3275Z" fill="black"/>
<path d="M115.344 36.3002L107.784 36.8868C107.491 36.9172 107.194 36.888 106.912 36.801C106.63 36.714 106.367 36.5709 106.14 36.38C105.912 36.189 105.724 35.9541 105.586 35.6886C105.448 35.4232 105.363 35.1326 105.336 34.8335L100.584 35.2002L101.376 45.1735L106.056 44.8068C106.344 42.2402 108.36 40.9935 111.024 40.7735L115.56 40.4068C116.095 40.3777 116.596 40.1333 116.954 39.7276C117.312 39.3219 117.497 38.7881 117.468 38.2435C117.439 37.6989 117.199 37.1882 116.801 36.8238C116.403 36.4593 115.879 36.271 115.344 36.3002Z" fill="#80A7FF"/>
<path d="M92.952 49.3533L89.136 50.8933C88.6051 51.0902 88.147 51.4496 87.8247 51.9224C87.5024 52.3951 87.3317 52.9578 87.336 53.5333C87.3312 53.949 87.4153 54.3607 87.5826 54.7398C87.7499 55.119 87.9964 55.4564 88.3048 55.7287C88.6132 56.0009 88.9762 56.2014 89.3684 56.3162C89.7607 56.431 90.1728 56.4573 90.576 56.3933C91.142 56.2993 91.6662 56.0311 92.0781 55.6247C92.49 55.2183 92.7698 54.6932 92.88 54.12L93.744 50.0133C93.7659 49.908 93.7589 49.7987 93.7238 49.6972C93.6888 49.5957 93.627 49.5059 93.5452 49.4378C93.4635 49.3696 93.3649 49.3257 93.2603 49.3108C93.1556 49.2959 93.049 49.3106 92.952 49.3533Z" fill="#80A7FF"/>
<path d="M96.9291 42.6236L84.2874 46.6587L85.7881 51.5361L98.4298 47.5011L96.9291 42.6236Z" fill="#B7C2CE"/>
<path d="M87.9839 52.2134L72.2879 59.1801C71.9767 59.2628 71.6471 59.237 71.3519 59.1067C70.6319 58.5934 69.2639 57.4201 68.3279 54.4134C67.3919 51.4067 67.8959 49.6467 68.1839 48.8401C68.2578 48.6971 68.3599 48.5711 68.4838 48.4702C68.6077 48.3692 68.7507 48.2954 68.9039 48.2534L85.6799 44.8067C85.8422 44.7609 86.0156 44.7812 86.1635 44.8633C86.3113 44.9454 86.4219 45.083 86.4719 45.2467L88.3439 51.4067C88.3929 51.5627 88.3831 51.7317 88.3166 51.8808C88.2501 52.0298 88.1315 52.1484 87.9839 52.2134Z" fill="#C5CEDD"/>
<path d="M82.3679 48.9136C82.8053 48.9136 83.1599 48.5525 83.1599 48.107C83.1599 47.6614 82.8053 47.3003 82.3679 47.3003C81.9305 47.3003 81.5759 47.6614 81.5759 48.107C81.5759 48.5525 81.9305 48.9136 82.3679 48.9136Z" fill="#B7C2CE"/>
<path d="M78.6959 49.7935C79.1333 49.7935 79.4879 49.4324 79.4879 48.9868C79.4879 48.5413 79.1333 48.1802 78.6959 48.1802C78.2585 48.1802 77.9039 48.5413 77.9039 48.9868C77.9039 49.4324 78.2585 49.7935 78.6959 49.7935Z" fill="#B7C2CE"/>
<path d="M94.7927 42.7651L85.0474 51.7969L88.4248 55.5774L98.1702 46.5456L94.7927 42.7651Z" fill="#D0D9EA"/>
<path d="M90.72 55.3672L79.344 68.3472C79.1109 68.5748 78.8028 68.7056 78.48 68.7139C77.6161 68.5672 75.8881 68.0539 73.8001 65.7072C71.7121 63.3606 71.4241 61.6006 71.3521 60.7206C71.3576 60.5612 71.3995 60.4053 71.4745 60.2653C71.5495 60.1253 71.6555 60.005 71.784 59.9139L85.608 49.5739C85.7355 49.4753 85.8943 49.4282 86.0539 49.4417C86.2134 49.4553 86.3624 49.5285 86.472 49.6472L90.72 54.4139C90.8195 54.5522 90.8731 54.7192 90.8731 54.8906C90.8731 55.062 90.8195 55.229 90.72 55.3672Z" fill="#EBEFF7"/>
<path d="M83.952 54.8536C84.3894 54.8536 84.744 54.4924 84.744 54.0469C84.744 53.6014 84.3894 53.2402 83.952 53.2402C83.5146 53.2402 83.16 53.6014 83.16 54.0469C83.16 54.4924 83.5146 54.8536 83.952 54.8536Z" fill="#B7C2CE"/>
<path d="M81.2161 57.5669C81.6535 57.5669 82.0081 57.2058 82.0081 56.7603C82.0081 56.3148 81.6535 55.9536 81.2161 55.9536C80.7787 55.9536 80.4241 56.3148 80.4241 56.7603C80.4241 57.2058 80.7787 57.5669 81.2161 57.5669Z" fill="#B7C2CE"/>
<path d="M97.7874 35.5649L115.086 34.1783C118.178 33.9304 120.487 31.1765 120.244 28.0271L119.427 17.4558C119.184 14.3065 116.48 11.9544 113.388 12.2022L96.0893 13.5889C92.9972 13.8367 90.6879 16.5907 90.9312 19.74L91.7481 30.3113C91.9914 33.4607 94.6953 35.8128 97.7874 35.5649Z" fill="#80A7FF"/>
<path d="M101.349 35.271L118.648 33.8843C121.74 33.6365 124.049 30.8825 123.806 27.7332L122.989 17.1619C122.746 14.0125 120.042 11.6604 116.95 11.9083L99.6512 13.2949C96.5591 13.5428 94.2497 16.2967 94.4931 19.4461L95.3099 30.0174C95.5533 33.1667 98.2572 35.5188 101.349 35.271Z" fill="#9CB8FF"/>
<path d="M97.1035 28.5737L92.9995 28.9081C92.0065 28.989 91.0227 28.6649 90.2644 28.0069C89.5061 27.349 89.0354 26.4112 88.956 25.3999L88.7486 22.7599C88.6692 21.7485 88.9875 20.7464 89.6334 19.9741C90.2794 19.2017 91.2001 18.7224 92.1931 18.6415L96.2971 18.3071L97.1035 28.5737Z" fill="#9CB8FF"/>
<path d="M96.7874 20.5384L97.228 26.2408C97.2355 26.3377 97.2049 26.4337 97.1429 26.5077C97.0809 26.5816 96.9926 26.6274 96.8974 26.6351L93.1649 26.9343C92.67 26.9739 92.1798 26.8117 91.8023 26.4833C91.4248 26.1549 91.1908 25.6872 91.1518 25.1831L90.9485 22.5512C90.9095 22.0471 91.0688 21.5478 91.3912 21.1633C91.7136 20.7788 92.1729 20.5405 92.6678 20.5008L96.4003 20.2016C96.4954 20.194 96.5897 20.2252 96.6623 20.2883C96.7349 20.3515 96.7799 20.4414 96.7874 20.5384Z" fill="#80A7FF"/>
<path d="M117.936 30.507H119.448C119.607 30.4613 119.748 30.366 119.852 30.2345C119.955 30.103 120.015 29.9419 120.024 29.7737C119.989 29.6116 119.896 29.4688 119.762 29.3737C119.629 29.2786 119.465 29.2381 119.304 29.2604H117.792C117.643 29.3014 117.51 29.3857 117.407 29.503C117.305 29.6202 117.239 29.7652 117.216 29.9204C117.225 30.0072 117.251 30.0914 117.292 30.1681C117.333 30.2448 117.389 30.3123 117.456 30.3669C117.523 30.4215 117.6 30.462 117.682 30.486C117.764 30.5101 117.851 30.5172 117.936 30.507Z" fill="#80A7FF"/>
<path d="M123.192 17.16L120.96 17.3067L113.112 17.9667L110.448 18.1134C110.154 18.1409 109.869 18.2274 109.608 18.3679C109.348 18.5084 109.117 18.7001 108.93 18.932C108.742 19.1638 108.602 19.4312 108.516 19.7186C108.431 20.0061 108.402 20.3079 108.432 20.6067L108.576 23.2467C108.722 24.7509 109.433 26.1395 110.559 27.1232C111.686 28.1069 113.142 28.6096 114.624 28.5267L117.288 28.3067H118.368L120.6 28.0867C122.078 27.974 123.452 27.271 124.423 26.1309C125.394 24.9908 125.883 23.506 125.784 22L125.568 19.2867C125.56 18.9845 125.49 18.6874 125.364 18.4137C125.238 18.1401 125.058 17.8959 124.835 17.6964C124.612 17.4968 124.351 17.3462 124.068 17.2539C123.786 17.1617 123.487 17.1297 123.192 17.16Z" fill="#B8D0FF"/>
<path d="M120.618 28.0191L117.245 28.2895C116.509 28.3485 115.77 28.2593 115.068 28.0272C114.367 27.7951 113.717 27.4245 113.157 26.9367C112.596 26.4488 112.135 25.8533 111.8 25.184C111.465 24.5147 111.263 23.7848 111.205 23.0359L111.002 20.4041C110.979 20.1065 111.014 19.8071 111.104 19.5232C111.195 19.2393 111.339 18.9763 111.53 18.7493C111.72 18.5223 111.953 18.3357 112.214 18.2002C112.475 18.0646 112.76 17.9828 113.052 17.9594L123.173 17.1481C123.465 17.1247 123.759 17.1601 124.037 17.2524C124.316 17.3446 124.574 17.4919 124.797 17.6858C125.02 17.8797 125.203 18.1164 125.336 18.3824C125.469 18.6484 125.55 18.9385 125.573 19.2361L125.776 21.8679C125.893 23.3803 125.415 24.878 124.448 26.0316C123.481 27.1851 122.103 27.9001 120.618 28.0191Z" fill="#CBDAF7"/>
<path d="M118.44 23.9068H115.992C115.75 23.9424 115.53 24.066 115.371 24.2548C115.212 24.4437 115.125 24.6848 115.128 24.9335C115.137 25.0588 115.17 25.1811 115.226 25.2932C115.282 25.4054 115.359 25.5052 115.452 25.587C115.546 25.6688 115.655 25.7309 115.772 25.7698C115.889 25.8087 116.013 25.8235 116.136 25.8135H118.584C118.707 25.8042 118.827 25.7703 118.937 25.7136C119.047 25.6569 119.145 25.5786 119.226 25.4832C119.306 25.3878 119.367 25.2771 119.405 25.1576C119.443 25.0381 119.458 24.9121 119.448 24.7868C119.439 24.6615 119.406 24.5393 119.35 24.4271C119.294 24.3149 119.217 24.2151 119.124 24.1333C119.03 24.0515 118.921 23.9894 118.804 23.9506C118.687 23.9117 118.563 23.8968 118.44 23.9068Z" fill="#9CB8FF"/>
<path d="M122.832 23.5401H121.896C121.773 23.5494 121.653 23.5834 121.543 23.64C121.433 23.6967 121.335 23.775 121.254 23.8705C121.174 23.9659 121.113 24.0765 121.075 24.196C121.037 24.3155 121.022 24.4415 121.032 24.5668C121.041 24.6921 121.074 24.8144 121.13 24.9265C121.186 25.0387 121.263 25.1385 121.356 25.2203C121.45 25.3021 121.559 25.3642 121.676 25.4031C121.793 25.442 121.917 25.4568 122.04 25.4468H122.976C123.099 25.4375 123.219 25.4036 123.329 25.3469C123.439 25.2902 123.537 25.2119 123.618 25.1165C123.698 25.0211 123.759 24.9104 123.797 24.7909C123.835 24.6714 123.85 24.5454 123.84 24.4201C123.831 24.2948 123.798 24.1726 123.742 24.0604C123.686 23.9482 123.609 23.8484 123.516 23.7666C123.422 23.6848 123.313 23.6227 123.196 23.5839C123.079 23.545 122.955 23.5301 122.832 23.5401Z" fill="#9CB8FF"/>
<path d="M101.674 22.9566C101.754 23.9942 102.638 24.7697 103.649 24.6887C104.66 24.6077 105.414 23.7008 105.334 22.6631C105.254 21.6255 104.37 20.85 103.359 20.931C102.348 21.012 101.593 21.9189 101.674 22.9566Z" fill="black"/>
<path opacity="0.5" d="M123.912 13.6399C125.66 16.2082 126.674 19.2208 126.839 22.3415C127.004 25.4621 126.315 28.5682 124.848 31.3132L121.752 33.5132L100.512 34.2465L94.824 27.7199L98.928 13.3465L117 11.8799L123.912 13.6399Z" fill="#4871E5"/>
<path d="M106.416 7.26029C94.104 8.28696 87.984 17.2336 88.56 24.2736C89.136 31.3136 97.2 31.2403 98.712 26.1803L101.88 15.107L119.664 16.0603L123.912 13.6403C122.04 11.0003 115.56 6.52696 106.416 7.26029Z" fill="#EBEFF7"/>
<path d="M97.488 27.5003L109.08 32.5603L124.848 31.3136L123.48 34.0269L93.888 36.3736L89.712 27.2803L97.488 27.5003Z" fill="#EBEFF7"/>
<path d="M112.248 5.79346L112.104 7.84679C113.866 9.07403 115.442 10.5563 116.784 12.2468L118.296 7.84679C116.712 6.89346 114.696 6.38012 112.248 5.79346Z" fill="#FF7F14"/>
<path d="M116.784 12.2467L118.296 7.84668L120.168 11.9533L116.784 12.2467Z" fill="#FF903E"/>
<path d="M94.248 19.5068L91.08 20.8268L89.136 14.9602C89.0392 14.6291 89.0666 14.2731 89.213 13.9615C89.3593 13.6498 89.6141 13.4046 89.928 13.2735C90.0838 13.2 90.2524 13.1588 90.424 13.1523C90.5956 13.1458 90.7667 13.174 90.9275 13.2354C91.0883 13.2968 91.2355 13.3902 91.3605 13.51C91.4856 13.6298 91.586 13.7738 91.656 13.9335L94.248 19.5068Z" fill="#DAE2ED"/>
<path d="M89.7839 17.0136L91.0799 20.8269L94.2479 19.5069L92.5919 15.9136L89.7839 17.0136Z" fill="#B7C2CE"/>
<path d="M99.6071 25.4273C99.7753 21.5024 97.3031 18.2047 94.0853 18.0616C90.8674 17.9185 88.1224 20.9842 87.9542 24.9091C87.7859 28.8339 90.2581 32.1316 93.476 32.2747C96.6939 32.4178 99.4388 29.3521 99.6071 25.4273Z" fill="#DAE2ED"/>
<path d="M97.2011 25.4296C97.3208 22.6377 95.55 20.2914 93.2458 20.1889C90.9417 20.0865 88.9768 22.2667 88.8571 25.0586C88.7374 27.8505 90.5083 30.1968 92.8124 30.2993C95.1166 30.4018 97.0815 28.2215 97.2011 25.4296Z" fill="#B7C2CE"/>
<path d="M95.828 25.375C95.913 23.3924 94.6615 21.7264 93.0327 21.654C91.4039 21.5815 90.0146 23.1301 89.9296 25.1127C89.8447 27.0954 91.0962 28.7614 92.7249 28.8338C94.3537 28.9062 95.743 27.3577 95.828 25.375Z" fill="#FF903E"/>
<path d="M93.6549 23.236L93.312 23.1245C93.1983 23.0876 93.0768 23.1515 93.0405 23.2672L91.9854 26.6345C91.9491 26.7503 92.0119 26.8741 92.1255 26.911L92.4685 27.0225C92.5821 27.0594 92.7037 26.9955 92.7399 26.8798L93.795 23.5125C93.8313 23.3967 93.7686 23.2729 93.6549 23.236Z" fill="#FF7F14"/>
<path d="M77.904 20.8268L44.136 11.2935L50.472 21.7801C51.6993 23.8543 53.6558 25.3751 55.944 26.0335L82.872 33.5868L83.592 31.0201L77.904 20.8268Z" fill="#DAE2ED"/>
<path d="M85.392 19.1402L40.464 6.38024C40.4017 6.37482 40.3391 6.38601 40.2824 6.4127C40.2257 6.43939 40.1767 6.48066 40.1404 6.53245C40.1041 6.58425 40.0816 6.64478 40.0752 6.7081C40.0689 6.77141 40.0788 6.83533 40.104 6.89357L42.048 10.1936C42.2702 10.5549 42.5973 10.8368 42.984 11.0002L44.136 11.2936L77.904 20.8269L83.592 31.0202L82.872 33.5869L82.368 35.5669L93.672 38.7936L94.896 34.2469L87.408 20.6802C86.9615 19.9164 86.237 19.363 85.392 19.1402Z" fill="#ECEFF6"/>
<path d="M83.592 31.0201L77.904 20.8268L44.136 11.2935L45.36 13.4201L76.824 22.2935L82.08 31.7535L81.648 33.2935L82.872 33.5868L83.592 31.0201Z" fill="#C5CEDD"/>
<path d="M44.5354 9.44578C44.6311 9.09453 44.429 8.73082 44.0842 8.63341C43.7393 8.536 43.3822 8.74178 43.2865 9.09303L43.2788 9.12129C43.1832 9.47255 43.3852 9.83626 43.7301 9.93367C44.075 10.0311 44.4321 9.8253 44.5277 9.47405L44.5354 9.44578Z" fill="#DAE2ED"/>
<path d="M47.0974 10.3118C47.194 9.96185 46.9938 9.59839 46.6503 9.49998C46.3067 9.40156 45.9499 9.60545 45.8532 9.95538L45.8455 9.98354C45.7488 10.3335 45.949 10.6969 46.2926 10.7953C46.6361 10.8938 46.993 10.6899 47.0896 10.3399L47.0974 10.3118Z" fill="#DAE2ED"/>
<path d="M85.9091 21.1504C86.0047 20.7991 85.8027 20.4354 85.4578 20.338C85.1129 20.2406 84.7558 20.4464 84.6602 20.7976L84.6525 20.8259C84.5569 21.1771 84.7589 21.5408 85.1038 21.6383C85.4486 21.7357 85.8057 21.5299 85.9014 21.1786L85.9091 21.1504Z" fill="#DAE2ED"/>
<path d="M93.2369 35.7339L99.1227 35.2621L100.111 48.0559C100.146 48.5018 100.005 48.9434 99.7197 49.2836C99.4344 49.6237 99.0282 49.8346 98.5904 49.8697L94.3555 50.2091L93.2369 35.7339Z" fill="black"/>
<path d="M96.492 32.7245L89.6731 33.2711C89.0785 33.3188 88.6344 33.8484 88.6812 34.454L88.967 38.1533C89.0138 38.7589 89.5338 39.2112 90.1284 39.1636L96.9473 38.617C97.542 38.5693 97.9861 38.0397 97.9393 37.4341L97.6534 33.7348C97.6066 33.1292 97.0867 32.6769 96.492 32.7245Z" fill="#FF5C5C"/>
<path d="M99.576 40.2601L94.176 40.7001C93.8297 40.7301 93.4811 40.6888 93.1507 40.5788C92.8204 40.4687 92.5152 40.2921 92.2532 40.0595C91.9913 39.8269 91.7779 39.543 91.6258 39.2247C91.4738 38.9064 91.3861 38.5603 91.368 38.2068L91.008 33.9534C90.9682 33.2454 91.2021 32.5497 91.6596 32.0152C92.1171 31.4806 92.762 31.1498 93.456 31.0934L98.856 30.6534C98.979 30.6434 99.1027 30.6583 99.2201 30.6971C99.3374 30.736 99.446 30.7981 99.5397 30.8799C99.6334 30.9617 99.7103 31.0615 99.7659 31.1737C99.8216 31.2858 99.8549 31.4081 99.864 31.5334L100.512 39.1601C100.522 39.295 100.505 39.4305 100.464 39.5589C100.422 39.6873 100.355 39.806 100.269 39.9082C100.182 40.0105 100.076 40.0942 99.9567 40.1545C99.8379 40.2149 99.7085 40.2508 99.576 40.2601Z" fill="#D0D9EA"/>
<path d="M140.976 6.30681L143.424 5.42681C143.577 5.42681 143.723 5.36501 143.831 5.25498C143.939 5.14496 144 4.99574 144 4.84015C144 4.68455 143.939 4.53533 143.831 4.42531C143.723 4.31529 143.577 4.25348 143.424 4.25348L140.976 3.37348C140.874 3.34197 140.781 3.28534 140.706 3.20859C140.631 3.13184 140.575 3.03735 140.544 2.93348L139.68 0.440147C139.636 0.31072 139.553 0.198522 139.443 0.119126C139.334 0.0397287 139.203 -0.00292969 139.068 -0.00292969C138.933 -0.00292969 138.802 0.0397287 138.693 0.119126C138.583 0.198522 138.5 0.31072 138.456 0.440147L137.592 2.93348C137.564 3.02767 137.518 3.11517 137.456 3.19076C137.394 3.26635 137.318 3.32849 137.232 3.37348L134.784 4.25348C134.631 4.25348 134.485 4.31529 134.377 4.42531C134.269 4.53533 134.208 4.68455 134.208 4.84015C134.208 4.99574 134.269 5.14496 134.377 5.25498C134.485 5.36501 134.631 5.42681 134.784 5.42681L137.232 6.30681C137.318 6.3518 137.394 6.41395 137.456 6.48954C137.518 6.56513 137.564 6.65263 137.592 6.74681L138.456 9.24015C138.5 9.36958 138.583 9.48177 138.693 9.56117C138.802 9.64057 138.933 9.68322 139.068 9.68322C139.203 9.68322 139.334 9.64057 139.443 9.56117C139.553 9.48177 139.636 9.36958 139.68 9.24015L140.544 6.74681C140.575 6.64295 140.631 6.54846 140.706 6.47171C140.781 6.39496 140.874 6.33832 140.976 6.30681Z" fill="#F3B2CF"/>
<path d="M31.824 15.9134L31.104 17.3067V17.6C31.1085 17.6566 31.1343 17.7091 31.176 17.7467L31.392 17.8934H31.608L33.048 17.2334H33.336L34.704 17.8934H34.992L35.136 17.7467L35.28 17.5267C35.2833 17.487 35.2786 17.447 35.2662 17.4092C35.2539 17.3713 35.2341 17.3365 35.208 17.3067L34.56 15.9134C34.56 15.84 34.488 15.84 34.488 15.7667C34.488 15.6934 34.56 15.62 34.56 15.5467L35.208 14.1534C35.2341 14.1236 35.2539 14.0888 35.2662 14.0509C35.2786 14.0131 35.2833 13.9731 35.28 13.9334L35.136 13.7134H34.704L33.336 14.3734H32.976L31.608 13.7134H31.176C31.1499 13.7431 31.1301 13.778 31.1177 13.8158C31.1054 13.8537 31.1007 13.8936 31.104 13.9334V14.1534L31.752 15.5467C31.778 15.5765 31.7979 15.6113 31.8102 15.6492C31.8226 15.687 31.8273 15.727 31.824 15.7667V15.9134Z" fill="#FFD01A"/>
<path d="M107.698 77.6292C107.191 77.1137 106.382 77.1021 105.89 77.6033C105.398 78.1045 105.41 78.9286 105.916 79.4441L106.781 80.3257C107.287 80.8411 108.096 80.8528 108.589 80.3516C109.081 79.8504 109.069 79.0262 108.563 78.5107L107.698 77.6292Z" fill="#83DDC5"/>
<path d="M114.928 84.9627C114.422 84.4472 113.613 84.4356 113.121 84.9368C112.629 85.438 112.64 86.2621 113.146 86.7776L114.012 87.6591C114.518 88.1746 115.327 88.1862 115.819 87.6851C116.311 87.1839 116.3 86.3597 115.793 85.8442L114.928 84.9627Z" fill="#83DDC5"/>
<path d="M115.785 79.384C116.292 78.8685 116.303 78.0444 115.811 77.5432C115.319 77.042 114.51 77.0536 114.004 77.5691L113.138 78.4507C112.632 78.9661 112.62 79.7903 113.113 80.2915C113.605 80.7927 114.414 80.7811 114.92 80.2656L115.785 79.384Z" fill="#83DDC5"/>
<path d="M108.555 86.7175C109.061 86.202 109.073 85.3779 108.581 84.8767C108.088 84.3755 107.279 84.3871 106.773 84.9026L105.908 85.7842C105.402 86.2996 105.39 87.1238 105.882 87.625C106.374 88.1262 107.183 88.1146 107.69 87.5991L108.555 86.7175Z" fill="#83DDC5"/>
<path d="M21.024 41.727C21.024 41.1194 20.5405 40.627 19.944 40.627C19.3475 40.627 18.864 41.1194 18.864 41.727V43.7729C18.864 44.3805 19.3475 44.8729 19.944 44.8729C20.5405 44.8729 21.024 44.3805 21.024 43.7729V41.727Z" fill="#9CB8FF"/>
<path d="M21.024 49.7201C21.024 49.1126 20.5405 48.6201 19.944 48.6201C19.3475 48.6201 18.864 49.1126 18.864 49.7201V51.7661C18.864 52.3736 19.3475 52.8661 19.944 52.8661C20.5405 52.8661 21.024 52.3736 21.024 51.7661V49.7201Z" fill="#9CB8FF"/>
<path d="M24.84 47.8133C25.4365 47.8133 25.92 47.3208 25.92 46.7133C25.92 46.1058 25.4365 45.6133 24.84 45.6133H22.8312C22.2347 45.6133 21.7512 46.1058 21.7512 46.7133C21.7512 47.3208 22.2347 47.8133 22.8312 47.8133H24.84Z" fill="#9CB8FF"/>
<path d="M16.992 47.8865C17.5885 47.8865 18.072 47.394 18.072 46.7865C18.072 46.179 17.5885 45.6865 16.992 45.6865H14.9832C14.3868 45.6865 13.9032 46.179 13.9032 46.7865C13.9032 47.394 14.3868 47.8865 14.9832 47.8865H16.992Z" fill="#9CB8FF"/>
</svg>
