<svg viewBox="0 0 931.5 613.2" xmlns="http://www.w3.org/2000/svg"><g fill="#c7ccd1"><path d="m704.8 247c0-57.6-47.1-104.6-104.6-104.6h-139.6v470.8h470.9v-139.5c0-68-54.1-122.1-122.1-122.1-57.5 0-104.6-47.1-104.6-104.6z" opacity=".3"/><path d="m363 412.5v200.7h-363v-107.6c0-52.4 41.7-94.1 94.1-94.1 44.4 0 268.9 1 268.9 1z" opacity=".3"/><path d="m150.3 209.8h579.5v403.4h-579.5z"/></g><path d="m150.3 283.1h579.5v128.4h-579.5z" fill="#9099a4"/><path d="m220 466.5h238.4v36.7h-238.4z" fill="#fff"/><path d="m553.8 465.1h121v91.7h-121z" fill="#9099a4"/><path d="m220 521.5h238.4v36.7h-238.4z" fill="#fff"/><path d="m440 311.2c71.9 0 130.3-58.3 130.3-130.3 0-71.9-58.3-130.3-130.3-130.3s-130.3 58.3-130.3 130.3 58.3 130.3 130.3 130.3z" fill="#23262a"/><path d="m860.4 246.1c-2.7 0-4.4-1.8-4.4-4.4v-4.5c0-2.7 1.8-4.4 4.4-4.4s4.4 1.8 4.4 4.4v4.4c.1 2.7-1.7 4.5-4.4 4.5zm0 35.3c-2.7 0-4.4-1.8-4.4-4.4v-4.4c0-2.7 1.8-4.4 4.4-4.4s4.4 1.8 4.4 4.4v4.4c.1 2.6-1.7 4.4-4.4 4.4zm11.1-24.3c0-2.7 1.8-4.4 4.4-4.4h4.4c2.7 0 4.4 1.8 4.4 4.4s-1.8 4.4-4.4 4.4h-4.4c-2.2 0-4.4-1.8-4.4-4.4zm-35.3 0c0-2.7 1.8-4.4 4.4-4.4h4.4c2.7 0 4.4 1.8 4.4 4.4s-1.8 4.4-4.4 4.4h-4.4c-2.2 0-4.4-1.8-4.4-4.4z" fill="#9099a4"/><path d="m53.6 198.4c-2.7 0-4.4-1.8-4.4-4.4v-4.4c0-2.7 1.8-4.4 4.4-4.4s4.4 1.8 4.4 4.4v4.4c0 2.6-1.8 4.4-4.4 4.4zm0 35.3c-2.7 0-4.4-1.8-4.4-4.4v-4.4c0-2.7 1.8-4.4 4.4-4.4s4.4 1.8 4.4 4.4v4.4c0 2.6-1.8 4.4-4.4 4.4zm11-24.3c0-2.7 1.8-4.4 4.4-4.4h4.4c2.7 0 4.4 1.8 4.4 4.4s-1.8 4.4-4.4 4.4h-4.4c-2.2 0-4.4-1.7-4.4-4.4zm-35.3 0c0-2.7 1.8-4.4 4.4-4.4h4.4c2.7 0 4.4 1.8 4.4 4.4s-1.8 4.4-4.4 4.4h-4.4c-2.2 0-4.4-1.7-4.4-4.4z" fill="#9099a4"/><path d="m654 15.5-4.4-13.3c-1.3-3.1-5.3-2.7-6.2 0l-4.4 13.3c0 .9-.9 1.8-2.2 2.2l-13.3 4.4c-3.1 1.3-2.7 5.3 0 6.2l13.3 4.4c.9 0 1.8.9 2.2 2.2l4.4 13.3c1.3 3.1 5.3 2.7 6.2 0l4.4-13.3c0-.9.9-1.8 2.2-2.2l13.3-4.4c3.1-1.3 2.7-5.3 0-6.2l-13.3-4.4c-1.3-.4-1.7-.8-2.2-2.2z" fill="#9099a4"/><path d="m369.5 162.1h144.7v44h-144.7z" fill="#ff73fa" transform="matrix(.68393617 -.72954186 .72954186 .68393617 5.375976 380.584885)"/><path d="m419.9 111.7h44v144.7h-44z" fill="#ff73fa" transform="matrix(.72954186 -.68393617 .68393617 .72954186 -6.381685 352.037957)"/></svg>