<svg width="24" height="24" viewBox="0 0 24 24" fill="none" xmlns="http://www.w3.org/2000/svg">
<path fill-rule="evenodd" clip-rule="evenodd" d="M19.4776 6.45279L22.6648 8.38227C22.7598 8.42371 22.8412 8.48931 22.9002 8.57199C22.9593 8.65466 22.9938 8.75129 23 8.85144V11.7546C22.6237 11.4529 22.2195 11.1846 21.7919 10.954L21.7873 9.16226L19.4776 7.76061V10.1362C19.11 10.0675 18.7336 10.024 18.3501 10.0075V7.04512L16.0404 5.64347V10.2417C15.633 10.3443 15.238 10.4781 14.8582 10.6405V4.96317L12.5789 3.56152V12.1167C12.133 12.5279 11.7339 12.989 11.3906 13.4914V3.56152L9.08089 4.96317V20.8916H10.5386C10.6878 21.2764 10.8659 21.6467 11.0703 22H1.60942C1.45393 22.0003 1.30422 21.9433 1.19092 21.8409C1.07763 21.7384 1.00933 21.5981 1 21.4487V8.85144C1.00023 8.7572 1.02556 8.66459 1.07357 8.58245C1.12158 8.50031 1.19067 8.43139 1.27424 8.38227L4.4615 6.45279L5.61939 5.74903L7.92909 4.3767L9.08089 3.64949L11.6953 2.06016L11.7623 2.03084C11.8846 1.98972 12.0178 1.98972 12.1402 2.03084L12.2742 2.08362L14.8582 3.64949L16.01 4.3767L18.3197 5.74903L19.4776 6.45279ZM2.1518 9.16226V20.8916H4.4615V7.76061L2.1518 9.16226ZM5.61939 7.06272V20.8916L7.92909 20.9092V5.66106L5.61939 7.06272Z" fill="#4f545c" fill-opacity=".6"/>
</svg>
