<svg enable-background="new 0 0 512 512" viewBox="0 0 512 512" xmlns="http://www.w3.org/2000/svg"><g fill="#fff"><path d="m395.7 272c-.6-64.8 52.9-95.9 55.3-97.5-30.1-44-76.9-50-93.6-50.7-39.9-4-77.8 23.5-98 23.5s-51.4-22.9-84.5-22.3c-43.5.6-83.5 25.3-105.9 64.2-45.2 78.3-11.6 194.4 32.4 258 21.5 31.1 47.1 66 80.8 64.8 32.4-1.3 44.7-21 83.9-21s50.2 21 84.5 20.3c34.9-.6 57-31.7 78.3-62.9 24.7-36.1 34.9-71 35.5-72.8-.7-.3-68-26.1-68.7-103.6z"/><path d="m331.3 81.8c17.8-21.7 29.9-51.8 26.6-81.8-25.7 1-56.9 17.1-75.4 38.8-16.6 19.2-31.1 49.8-27.2 79.2 28.8 2.2 58.1-14.6 76-36.2z"/></g></svg>