<svg width="660" height="190" viewBox="0 0 660 190" fill="none" xmlns="http://www.w3.org/2000/svg">
<g clip-path="url(#clip0_3_6832)">
<path opacity="0.8" d="M575.328 65.1352L575.601 66.3552L575.704 67.7446L575.635 69.1L575.362 70.2183L574.781 71.0993L574.064 71.9126L573.483 72.8276L573.347 74.0475L573.893 75.0979L573.791 75.7079L572.766 76.7584L572.527 77.3345L572.151 79.2321L571.946 79.7066L571.263 80.9942L570.99 81.9431L571.126 82.4852L571.57 82.7903L573.313 83.4341H573.791L575.567 82.9936L580.418 83.8408L581.101 84.3491L581.374 85.1962L581.067 86.0095L580.35 86.5517L579.598 86.755L578.471 87.06L578.027 87.3311L577.173 88.1444L576.694 88.7882L576.489 89.3304L576.285 90.7198L575.943 92.1769L575.499 92.9224L574.85 93.0241L571.775 91.6686H571.365L571.126 91.9736L570.955 92.2786L570.785 92.4819L570.511 92.5835H570.272L567.027 91.7364L565.695 91.9736L564.772 93.3968L564.704 93.9729V95.2267V95.8366L564.567 96.2772L563.509 98.6154L562.996 99.3948L562.518 100.14L562.074 100.615L561.015 101.225L557.462 101.936H556.916L555.857 101.665H555.31L554.217 102.106L553.875 102.411L553.773 102.783L553.704 103.224L553.534 103.732L552.919 104.444L552.235 104.952L551.655 105.562L551.347 106.511V106.951L551.655 107.968V108.375L551.552 108.781L551.416 108.883H551.211L550.937 109.019L550.288 109.595L549.981 110.035L549.878 110.713L549.981 113.254V113.763L549.81 114.305L549.673 114.779L549.537 115.288V115.932L549.708 116.914L550.425 118.676L550.596 119.625L550.459 120.608L550.049 121.387L549.503 121.963L547.726 123.014L547.282 123.624L546.975 124.64L546.838 125.928V126.979L546.736 127.927L546.223 129.012L544.891 130.604L544.344 131.689V132.943L544.72 133.587L545.369 133.824L546.633 133.756L548.375 132.841L548.819 132.739L549.229 132.977L549.4 133.383L549.503 133.858L549.81 134.739L549.913 134.908H550.015L550.357 134.84H550.493L550.767 135.179L551.04 135.552L551.279 135.992L551.484 136.535L551.587 136.704L551.757 136.772L551.894 136.874L551.962 137.179L551.894 137.382L551.552 137.856L551.45 138.093V140.364L551.176 141.143L550.493 141.652L550.152 141.719L549.059 141.584L548.751 141.719L548.273 142.363L547.965 142.533H547.316L544.72 142.126L543.934 141.753L543.285 141.109L543.08 140.228L543.285 139.889L544.105 139.618L544.31 139.246L544.139 138.805L543.422 138.432L543.49 137.958L544.105 137.619L544.788 137.687L545.028 137.483L542.978 134.705L542.841 134.434L542.636 134.23L542.261 134.129L541.509 134.468L540.348 136.196L539.63 136.67L537.239 136.806L535.394 136.162L534.882 136.264L534.506 136.907L533.891 139.246L533.413 140.262L532.217 141.584L530.953 142.397L529.655 142.6L527.367 141.719L526.034 141.516L524.668 141.652L524.531 141.753L523.677 142.262L523.575 142.566V142.939V143.278V143.481L523.028 143.82L522.755 144.159H522.584L522.55 144.329L522.687 145.074L523.028 146.125L523.404 146.972L523.677 147.921L523.609 149.276L523.233 150.123L522.721 150.394L520.842 150.699H520.295L519.851 150.225L519.475 149.276L519.373 149.208H519.271H519.168L518.485 149.75L516.606 150.123L515.137 150.97L511.789 153.952L510.73 154.495H509.671L508.749 154.224H507.758L507.178 154.156L506.87 153.681L506.358 152.258L505.538 151.275L504.616 150.97L503.659 151.14L501.849 152.123L500.995 152.36H499.116L498.638 152.258L497.784 151.716L497.339 151.513L496.895 151.58L494.675 152.868H494.436L494.197 152.834L493.684 152.529H493.479L493.035 152.665L492.523 153.037L490.712 153.309L489.278 153.919H488.833L488.321 153.783L485.691 152.19L484.7 151.919L484.837 151.648V151.377L484.768 151.14L484.598 150.903L484.29 150.665L484.051 150.327L483.914 149.886V149.344L484.085 149.141L484.256 148.937L484.598 148.632L485.042 147.887V146.768L484.598 144.464L484.358 143.414L484.051 142.295L483.641 141.313L483.163 140.601L482.89 140.432L482.275 140.262L481.967 140.059L481.694 139.686L481.147 138.67L480.874 138.229L480.327 137.788L479.747 137.28L477.39 136.399L476.262 135.721L474.452 134.23L473.905 133.959L473.325 134.095L472.641 134.4H471.958L471.446 133.688V133.18L471.617 132.604L471.719 132.129L471.548 131.858L470.558 131.757L470.216 131.519L470.045 131.214L469.909 130.842L469.738 130.469L469.43 130.164L469.123 130.096L468.474 130.232H468.166L466.424 129.283L465.809 129.215L465.092 129.554V129.622L464.306 130.977L463.76 131.418L462.017 128.334L461.232 126.606L461.061 124.674L461.266 120.811L461.915 118.439L462.052 117.524V116.982L461.847 115.83V115.322L461.983 114.983L462.632 114.034V113.83L462.564 113.593L462.496 113.356L462.564 113.119L462.666 113.051L462.906 112.983L463.213 112.712L463.725 112.441L463.965 112.17L464.374 111.492L465.297 110.849L465.741 110.374L466.117 109.493L466.185 108.612L466.082 107.697L465.638 105.664L465.399 105.02L465.023 104.613L463.281 103.8L463.042 103.393L463.384 102.716L463.008 102.58L462.735 102.275L462.53 101.936L462.325 101.733L462.052 101.631H460.412L459.934 101.394L459.592 100.784L459.216 99.6658L458.738 97.3955L458.431 96.3788L458.157 96.0399L457.986 95.8366L457.269 95.43L454.195 96.345L449.344 95.735L448.797 95.6672L445.62 96.4805L445.245 96.8533L444.903 97.3277L444.356 97.7343L443.673 97.8021L442.888 97.5649L442.238 97.0227L441.965 96.1755V95.3623L441.863 94.7861L441.521 94.5151L440.77 94.5828L440.018 95.159L439.779 95.2606L439.506 95.159L438.788 94.6845L437.763 94.4134L437.183 94.0406L436.192 93.1596L434.176 92.7191L433.664 92.2786L433.152 91.6008L431.102 90.0081L429.906 89.4321L426.969 89.3304L425.91 88.4833L424.099 85.3656L423.211 84.4846L422.494 84.5863L420.102 86.5856V86.3484L420 85.1962V84.8234L420.171 84.6201L420.376 84.688H420.581L420.751 84.1458L420.683 83.7391L420.478 83.163L420.239 82.6208L420.034 82.3836L419.795 82.1465L419.692 81.6043V80.4521L419.419 80.4182L417.745 82.0109L417.574 81.6381V81.5364L417.643 81.5026L418.77 78.9611L419.009 78.5883L419.453 78.0461V76.7923L419.112 74.7252L418.736 73.2003V72.7937L418.565 72.6243L418.292 72.3192L418.019 71.9126L417.882 71.4382V70.8282L417.95 70.4216V70.0489L417.882 69.5067L416.789 66.5923L416.584 65.6774L416.516 64.6947L416.311 64.1864L415.115 62.0854L414.842 61.7805L414.568 61.6111L414.398 61.2722L414.261 59.9845L413.988 58.9678L413.509 54.6303V52.36L413.578 51.7838L413.851 51.0723L413.919 50.5979V46.1586L413.783 44.3288L414.876 44.0577H416.584L417.745 43.7188L418.189 42.7361L418.394 41.3129L418.907 39.6524L419.658 38.5003L420.683 37.382L421.776 36.4671L422.664 35.9926L423.997 35.9249L424.441 35.7893L428.506 32.6718L429.599 32.1296L432.195 32.0279L440.394 28.1987L440.906 27.9615L444.151 26.4366L445.484 26.5383L446.03 26.8093L447.123 27.6226L447.704 27.8598L456.381 27.5548L458.26 27.9954H458.328L459.114 28.4359L460.412 29.7914L460.924 29.9947L461.368 29.927L465.502 28.2326L466.561 27.4871L467.415 26.8772L468.44 26.6738L469.396 27.216L470.113 28.707L471.138 31.2824L472.471 32.299L473.939 31.9602L475.408 30.4013L475.169 29.8591L475.716 29.5203L479.098 28.7409L479.747 28.8765L481.728 29.7236L484.768 31.0113L485.827 31.0791L487.569 30.0286L488.492 29.7575L490.507 29.8591L491.293 29.7236L491.532 29.8253L491.771 30.198V30.5708V30.9096V31.0791L492.728 31.2147L494.743 30.7402H495.7L496.076 30.8758L499.287 31.8923L502.019 34.0272L503.01 34.5694L503.898 34.7388H503.932L504.718 34.6033L508.237 32.7734L509.125 32.6039L510.081 32.9767L511.926 34.3322L512.882 34.6033L513.873 34.1628L515.547 33.1801L516.094 32.6039L518.451 29.4187L519.612 28.5037L520.671 28.0293L523.301 26.8772H523.609L524.258 27.1143L524.497 27.0466L524.668 26.606V26.03L524.805 25.4878L525.215 25.115L525.829 25.3183L526.342 26.1994L527.093 28.402L527.845 31.5535L528.152 32.5362L528.46 33.0784L529.416 34.1628L529.69 34.6711L530.202 36.3315L531.056 37.8904L532.115 38.6697L539.118 39.8897L542.192 40.4319L544.174 40.0591L545.642 40.7707L546.155 40.8723L547.897 40.7368L548.239 40.9062L548.444 41.3468L548.99 43.1088L549.264 43.651L549.605 43.9899L551.279 45.1421L552.133 46.0909L554.354 48.5647L556.984 50.2928L558.624 51.3772L560.434 53.4104L563.338 55.918L564.055 57.0702L564.738 58.629L566.275 61.3739L568.12 62.7632L572.185 64.7286L573.825 65.1692L575.499 65.3047L575.328 65.1352ZM411.665 85.2301L409.786 84.7557L411.972 80.9942L413.202 77.9783L414.398 73.8102L414.705 69.5067L414.876 68.6256L414.705 68.3884L414.876 67.914L414.637 66.8974L414.705 63.7121L414.466 62.3227L415.422 63.5087L415.832 65.7791L415.901 70.2522L415.832 70.896L415.559 71.7432L415.491 72.3531V74.2847L415.149 75.1319L414.705 75.979L414.534 76.7584L415.081 77.4701V77.775L414.671 78.3172L414.124 79.2661L413.646 80.4182L413.441 81.4687L413.065 82.4852L411.631 84.3829V85.2979L411.665 85.2301Z" fill="white"/>
<g opacity="0.15">
<path d="M488.092 268.875L487.989 268.26L487.58 268.021L487.101 267.85L486.726 267.133H486.931H487.136L486.487 266.04L486.248 265.392L486.145 264.709L486.316 263.445V263.001L485.94 262.625V262.284H486.214L486.384 262.147L486.76 261.669L486.623 261.464L486.453 261.157L486.35 260.85L486.453 260.713L486.726 260.577L486.658 260.269L486.453 259.928L486.35 259.689L486.521 258.596L486.623 258.084L486.726 257.742L487.204 257.162L487.819 256.786L488.365 256.24L488.707 255.147L488.16 254.43L487.716 253.576L488.058 253.2L488.194 252.176L488.536 251.971V251.766L488.502 251.698H488.433L488.331 251.664L488.536 251.117V249.58L488.741 248.727L489.287 247.429L489.663 246.814L490.107 246.473L489.765 245.653L489.355 243.878L489.116 243.297V242.751L488.98 242.204L488.638 241.965L488.365 241.829L488.194 241.521L488.058 241.146L487.853 240.77L487.306 240.429H485.906L485.326 240.292L484.506 238.687L484.609 238.516L484.677 237.936L484.574 237.594L484.096 238.072L483.891 237.833L483.618 237.594L483.516 237.389L483.106 237.867L482.833 237.799L482.56 237.526L482.184 237.355L481.774 237.526L481.706 237.458L481.911 237.014V236.706L481.296 236.638L479.486 235.955L479.111 235.579L478.667 235.75L476.583 235.17L475.935 234.76L476.174 233.906L476.071 233.291L475.764 232.813L475.559 232.643L475.354 232.472H475.252L476.618 229.672L477.164 228.818L478.325 227.383L481.877 221.92L484.438 219.768L487.033 218.266L491.917 216.866L495.809 214.236L496.971 212.802L497.38 210.753L497.312 209.319L497.073 203.479L497.005 203.103L496.902 202.864L496.8 202.591V202.079L496.868 201.703L497.175 201.054L497.278 200.747V200.371L497.005 199.04V198.732L497.073 198.152V197.776L496.697 197.059L495.809 195.932L495.57 195.113V194.156L495.878 193.473L496.219 192.893L496.493 192.176L496.561 191.015L496.253 190.434L495.741 190.058L495.229 189.478L494.887 188.727L494.648 188.009L494.375 187.327L493.863 186.609L493.351 185.209L492.19 180.599L491.609 179.062L490.243 176.194L487.75 168.579L487.067 165.164L486.999 162.159L486.282 161.1L485.975 160.075L485.701 157.446L485.394 156.217L485.018 155.09L484.711 153.894V152.46L485.667 152.733L488.297 154.338L488.809 154.509H489.253L490.687 153.86L492.497 153.587L493.009 153.211L493.453 153.041H493.658L494.17 153.382L494.409 153.45H494.648L496.868 152.119L497.312 152.05L497.756 152.255L498.61 152.802L499.088 152.904H500.966L501.82 152.631L503.63 151.641L504.586 151.47L505.508 151.777L506.328 152.767L506.84 154.202L507.147 154.68L507.728 154.782H508.718L509.64 155.021H510.699L511.757 154.509L515.104 151.504L516.572 150.65L518.45 150.275L519.133 149.728H519.236H519.338L519.441 149.797L519.816 150.753L520.26 151.197H520.807L522.685 150.923L523.197 150.65L523.573 149.797L523.641 148.431L523.368 147.474L522.992 146.621L522.651 145.562L522.514 144.811V144.64H522.753L523.026 144.299L523.573 143.957V143.752V143.411V143.035L523.709 142.728L524.563 142.215L524.7 142.113L526.066 141.976L527.398 142.181L529.686 143.069L530.983 142.864L532.247 142.045L533.442 140.713L533.92 139.688L534.535 137.332L534.91 136.683L535.423 136.581L537.267 137.23L539.657 137.093L540.374 136.615L541.535 134.873L542.287 134.532L542.662 134.634L542.867 134.839L543.004 135.112L545.053 137.913L544.814 138.118L544.131 138.049L543.516 138.391L543.448 138.869L544.165 139.244L544.335 139.688L544.131 140.064L543.311 140.337L543.106 140.679L543.311 141.567L543.96 142.215L544.745 142.591L547.341 143.035H547.989L548.297 142.83L548.775 142.181L549.082 142.045L550.175 142.181L550.516 142.113L551.2 141.601L551.439 140.815V138.527L551.541 138.288L551.883 137.81L551.951 137.605L551.883 137.298L551.746 137.195L551.575 137.127L551.473 136.956L551.268 136.41L551.029 135.966L550.756 135.59L550.482 135.283H550.346L550.004 135.351H549.902L549.799 135.147L549.492 134.259L549.39 133.781L549.219 133.371L548.809 133.132L548.365 133.234L546.624 134.156L545.36 134.224L544.711 133.985L544.301 133.337V132.073L544.882 130.98L546.214 129.375L546.726 128.283L546.828 127.326V126.268L546.931 124.97L547.238 123.946L547.682 123.331L549.458 122.272L550.004 121.692L550.414 120.906L550.551 119.916L550.38 118.96L549.663 117.184L549.458 116.194V115.545L549.629 115.033L549.765 114.555L549.868 114.008V113.496L549.799 110.935L549.902 110.252L550.209 109.808L550.858 109.227L551.131 109.091H551.336L551.473 108.988L551.609 108.578V108.169L551.336 107.144V106.7L551.609 105.744L552.19 105.129L552.873 104.617L553.488 103.9L553.658 103.388L553.727 102.944L553.829 102.568L554.17 102.261L555.263 101.783H555.81L556.868 102.056H557.415L560.966 101.339L562.025 100.724L562.469 100.246L562.947 99.4948L563.459 98.7093L564.518 96.353L564.654 95.9091L564.723 95.2944V94.0309L564.757 93.4503L565.679 92.0161L567.011 91.777L570.255 92.6308H570.494L570.767 92.5283L570.938 92.3234L571.108 92.0161L571.348 91.777H571.757L574.831 93.1089L575.48 93.0064L575.923 92.2552L576.265 90.7867L576.47 89.3866L576.675 88.8403L577.153 88.1914L578.007 87.3718L578.451 87.0986L579.577 86.7913L580.329 86.5864L581.046 86.04L581.353 85.2204L581.08 84.3666L580.397 83.8544L575.548 83.0007L573.772 83.4788H573.294L571.552 82.7958L571.108 82.4885L570.972 81.9421L571.245 80.9859L571.928 79.6882L572.133 79.2102L572.509 77.2978L572.748 76.7172L573.772 75.6586L573.875 75.044L573.328 73.9853L573.465 72.7559L574.045 71.8339L574.762 71.0144L575.343 70.1265L575.616 68.9995L575.685 67.6335L575.582 66.2334L575.309 65.0041L575.923 63.9113L576.641 63.5357L577.426 63.604L578.963 64.2186H579.646L581.968 62.9551L582.548 62.2721L584.222 59.1987L585.895 57.1497L586.51 56.7399H586.544L590.334 56.2277L591.53 56.4326L592.179 56.7741L593.988 58.3109L594.808 58.7547L595.389 58.5158L596.755 57.1839L597.335 56.4668L598.052 57.3205L598.974 57.8669L599.93 58.1742L603.619 58.5158L604.438 58.4133L604.677 57.6278L604.916 56.535L605.121 54.0763L605.941 51.7884L608.843 49.876L609.8 48.1686L609.936 46.9049L610.858 45.9488L612.839 44.4121L613.18 43.7291L613.454 43.0803L613.727 42.4998L614.171 42.0216L614.546 41.8167L615.741 41.5436L617.005 40.9288L617.79 40.3484L618.303 39.9727L619.566 39.4946L620.659 40.2459L621.24 41.1338L623.254 43.3535L624.142 44.617L624.757 45.2317L625.372 45.4366L626.02 45.0268L626.977 43.5242L627.66 43.0462L631.997 42.568L633.67 42.8413L634.148 43.0462L634.421 43.3193L634.899 44.2072L635.924 45.6756L636.163 46.222L636.436 47.4513L636.607 48.6808L636.914 49.7394L637.665 50.4224L639.919 51.0712L640.568 50.9004L640.636 49.6711L641.422 48.8515L643.232 48.0319L644.939 46.9391L646.407 46.3927H648.081L649.754 47.0416L651.154 48.0661L652.076 48.7832L656.55 50.0467L657.096 50.3882L657.608 50.9004L658.155 51.6176L658.428 52.0957L658.531 52.5055L658.428 52.847L658.223 52.9152H657.984L657.745 52.9836L657.472 53.1885L657.233 53.2909L656.994 53.4616L656.755 53.9056L656.652 54.3496L656.516 55.6131L656.413 56.1595L655.73 57.901L655.594 58.7206L655.798 59.8134L656.174 60.5646L657.608 61.7941L659.008 63.8771L659.589 64.1845L660.374 63.9455L662.628 61.2135L665.497 59.5402L666.282 59.3695L668.297 59.8817L669.048 59.4719L670.175 57.3547L670.893 56.4326L672.019 55.7838L673.18 55.5106L674.376 55.5789L677.825 56.8766L678.576 56.6034L679.874 55.3398L680.557 54.9984L681.069 55.1349L682.059 56.057L682.64 56.4326L688.411 58.3449L688.65 58.6523V59.0962L688.479 59.506L688.411 59.95L688.752 60.3939L691.348 61.6574L691.655 61.8965L691.86 62.238L691.997 62.8869L691.894 63.3649L691.758 63.7747V64.2528L692.133 64.9699L692.714 65.3797L693.363 65.5163L694.558 65.4139L694.968 65.6187L695.241 66.131L695.514 66.9506L696.368 68.6239L697.187 68.7605L698.178 68.2141L699.441 67.7702L700.568 68.3166L701.183 69.4776L701.354 69.785L701.558 71.6973L700.978 73.5072L701.422 73.8145L701.558 73.8829L701.388 74.5317L700.636 75.1122L700.466 75.966L700.705 76.888L701.183 77.5368L701.558 78.2198V79.2442L701.183 79.859L699.407 81.1225L698.417 82.5567L698.007 83.5129L697.939 84.4691L698.212 85.1179L698.724 85.5619L699.749 86.1083L700.124 86.7229L700.602 88.6012L701.012 89.25L702.378 90.3087L702.754 90.7526V90.9575L702.685 91.4355L702.754 91.7088L702.856 91.777L703.164 91.8795L703.232 91.9478L703.368 92.221L703.505 92.3917V92.665L703.402 93.2114L703.164 93.5528L703.095 93.9285L703.164 94.3041L703.368 94.6797L703.778 95.6701L704.12 96.9336V97.9239L703.368 98.1287L702.002 97.7873L701.422 97.8556L701.217 98.4703L701.524 99.324L701.934 99.8704L702.071 100.485L701.524 101.475L701.012 101.851L699.236 102.227L698.553 102.807L698.622 103.319L698.929 104.071V105.334L698.451 106.154L697.768 106.837L697.187 107.725L697.017 109.125L697.256 109.944L697.7 110.286L698.895 110.696L703.368 114.008L703.812 114.794L703.915 115.716L704.564 115.613L707.022 115.886L707.705 117.287L708.866 118.243L708.047 120.189L706.578 122.546L705.861 124.731L706.715 125.38L708.901 125.995L709.242 126.678L710.096 126.951L710.574 127.941L711.257 130.502L711.632 131.117L712.008 131.493L712.316 131.971L712.52 132.79L712.725 135.727L713.033 137.127L713.476 137.878L718.018 141.498L718.77 142.147L719.487 142.454L721.024 142.864L723.482 144.23L724.37 144.435H725.19L725.497 144.64L725.838 145.016L726.078 145.596L726.282 146.313L726.521 146.894L726.863 147.03L727.58 146.518L727.751 146.45L728.024 146.621V146.791V147.03L728.707 149.66L728.57 150.036L728.502 150.411V150.787L728.434 151.163L728.092 152.255L727.614 155.09L727.102 156.319L725.975 158.197L725.702 159.427H726.931L729.424 160.315L735.571 158.71L736.22 158.846L737.927 160.075L741.581 161.1L742.606 161.851L743.528 163.115L743.938 163.388L745.406 163.32L746.021 163.422L746.601 163.764L747.148 164.481L747.352 164.856L747.421 165.232L747.352 165.608L747.148 165.949L744.962 167.076L744.757 167.281V167.657L744.825 168.51L745.133 169.876L745.645 170.901L746.328 171.652L747.148 172.164L748.616 172.847L749.299 173.36L749.743 174.247L749.948 174.555L750.153 174.657L750.392 174.555L750.631 174.247L751.143 174.145L751.655 174.213L752.065 174.452L751.997 174.862L751.826 175.374L751.963 175.921L752.304 176.023L753.192 175.716H753.568L754.114 176.843L754.046 177.252L753.67 180.394L754.046 181.931L753.465 182.375H752.987L752.543 182.102L752.065 181.999L750.016 182.443L750.119 182.614L750.358 183.058L750.46 183.229L749.675 183.673L748.753 183.843L747.831 183.741L747.114 183.365L746.362 183.604L746.123 184.185L746.396 184.731L747.079 184.868L746.806 185.824L746.396 186.746L745.474 188.317L744.962 188.897L744.484 189.136L743.425 189.478L742.469 190.332L741.752 191.39L740.967 192.176H739.43L739.293 192.312V192.585L739.191 192.79V192.927V193.166V193.405L739.02 193.542H738.918L738.644 193.473L737.586 193.61L736.835 194.19L736.561 194.327H735.537L733.42 193.405L732.566 193.508L731.815 193.883L731.098 193.952L730.415 193.781L728.912 192.893L728.536 192.79L727.478 192.893L727.17 192.79L726.692 192.039L726.385 190.024L726.009 189.171L725.497 188.897H724.199L723.619 188.761L721.843 188.044H721.263L720.682 188.18L719.589 188.761H718.906L717.506 188.522H716.106L715.013 189.41L714.467 191.766V192.381L714.501 192.449L714.603 192.961L714.672 193.473L714.569 193.952L714.296 194.259L713.579 194.395L713.272 194.532L711.803 196.854L711.154 197.537L713.374 199.347L713.852 200.269L714.638 202.66L715.286 203.65L716.174 204.504L717.13 205.118L717.984 205.426L718.701 205.528L718.94 205.904L719.009 206.518L719.282 207.338L719.692 207.919L720.033 208.157L720.34 208.533L720.58 209.489V211.538L719.965 212.494L717.984 213.621L718.292 214.373L719.589 216.114L720.443 218.061L720.819 218.641L721.877 219.563L722.253 220.076L722.116 220.554L721.707 220.656L720.648 220.417H720.204L720.34 220.622L720.682 221.202L720.17 221.442L719.965 221.817L720.033 222.295L720.409 222.739L721.058 223.217V224.378L720.921 225.813V227.042L721.126 227.554L721.433 227.964L721.638 228.476V229.33L721.467 229.979L721.16 230.559L720.784 231.037L720.443 231.379L721.297 232.677L721.775 233.223L722.287 233.599L722.799 233.769L723.824 233.94L724.302 234.213L723.994 234.589L723.79 235.204L723.721 235.887L723.79 236.536L723.994 237.014L724.268 237.321L725.736 238.345L726.146 239.028L726.248 239.95L726.18 241.351L722.833 241.521L717.711 240.531H715.047L712.759 241.487L712.179 242.273L711.735 243.229L711.257 244.014L710.574 244.322L709.857 244.048L708.525 242.887L707.808 242.477L706.681 242.341L702.685 242.58L701.968 242.819L701.524 243.331L701.695 244.117L701.558 244.356L701.49 244.595L701.422 244.834L701.319 245.073L702.173 245.175L702.446 245.79L702.173 246.405L701.422 246.473L701.217 246.2L701.046 246.131L700.875 246.2L700.636 246.405L700.397 246.712L700.329 247.019V247.258V247.395L700.022 247.805L699.714 248.146L699.339 248.454L698.929 248.727L698.109 249.034V249.205L698.178 249.512L698.348 249.717V250.024L697.939 250.571L697.665 250.844L697.426 250.981L696.573 250.912L696.334 250.981L696.231 251.288V251.732L696.129 252.142L695.514 252.449L695.343 252.756L695.207 253.064L695.036 253.2L694.968 253.371L694.319 254.191L694.148 254.532L694.011 254.669V254.839L694.25 255.283V256.001L693.773 256.547L693.124 256.991L692.782 257.401L693.363 257.708H693.602V258.084L693.26 258.425L693.158 258.972V259.552L692.953 259.996L692.611 260.133H691.723L691.348 260.269L691.519 260.918L691.177 261.908L691.348 262.557L691.143 262.762L690.904 263.104L690.733 263.24L690.801 263.411L690.904 263.855L690.528 264.026L689.675 264.811V265.152L690.255 265.631L690.494 265.767V266.075L690.255 266.143L690.119 266.211L690.016 266.314L689.879 266.416V266.689L690.221 267.133L691.177 267.406L691.655 267.645L691.45 268.158L691.314 268.363L691.075 268.567L691.416 268.841L691.723 269.148L691.86 269.49L691.689 269.865L691.826 270.412L692.065 270.753L692.372 270.958L692.68 271.095V271.436L692.304 271.368L691.963 271.47L691.758 271.812L691.689 272.392L691.792 272.939L692.031 273.041H692.338L692.68 273.348L692.816 273.656L693.089 274.953L693.226 275.192L693.431 275.466V275.705L693.089 275.875L693.26 277.207L692.441 278.061L691.553 278.71L691.484 279.393L690.972 280.315L690.904 280.417V281.51L690.836 281.544L690.733 281.817L690.426 281.886L690.221 281.442L689.879 281.066L689.504 280.827L689.128 280.725H688.718L688.274 280.622L687.625 279.632L687.182 279.222L686.772 279.12H685.918L685.474 278.949L685.098 278.607L684.211 277.446L684.006 276.968H684.074L684.313 275.944L684.381 275.568V275.09V274.714L684.313 274.407L684.142 274.1L683.767 273.758L682.298 273.041L681.888 272.597L680.796 271.095L679.976 270.48L679.122 270.241L675.024 270.343L674.342 270.548L672.566 271.47H672.19L671.712 271.163H671.405L671.029 271.402L670.551 272.29L670.244 272.631L669.731 272.768L667.068 272.324L666.692 271.812L666.453 271.095L665.975 270.241L665.463 269.899L664.814 269.797L664.131 269.899L663.55 270.138L662.936 270.685L662.526 271.299L662.082 271.812L661.399 272.085L660.648 272.187L660.238 272.392L659.965 272.939L659.521 274.065L659.111 274.817H658.531L657.267 274.305L656.584 274.509L655.798 275.192L655.423 275.534L654.808 275.739L654.125 275.363L653.75 274.509L653.51 273.485L653.169 272.597L652.554 271.914L652.076 271.538L651.871 270.992L652.145 269.797L652.042 268.567L651.701 267.816L650.71 266.348L650.096 264.64L649.72 264.06L649.003 263.616L647.842 263.343H647.227L646.646 263.582L646.066 264.162L645.383 265.631L644.837 266.245L644.085 266.553H642.275L641.422 266.758L640.5 267.27L639.578 267.987L638.758 268.977L638.178 270.275L638.109 271.06L638.178 272.836L638.041 273.519L637.529 274.1L637.221 273.622L637.016 272.768L636.811 272.187H636.436L636.06 272.392L635.651 272.597L635.172 272.358L634.899 271.846L634.728 271.197L634.284 268.567L634.216 267.611L633.943 266.962L633.192 266.655L630.562 266.109H629.777L629.026 266.382L627.557 267.372L626.806 268.089L626.43 268.294L626.055 268.158L625.884 267.782L625.576 266.484L625.372 266.006L624.996 265.596L624.142 265.084L623.801 264.743L623.562 264.196V263.787V263.377L623.459 262.899L623.015 262.421H622.435L621.786 262.694L621.171 263.274L620.591 264.162L619.635 265.972L618.917 266.621L618.337 266.826H615.468L614.922 266.689L614.376 266.382L612.6 264.47L611.985 264.128L611.302 264.231L610.756 264.743L610.38 265.528L610.209 266.484V267.065L610.312 267.577V268.089L610.209 268.704L610.073 269.011L608.707 270.855L608.399 271.163L607.921 271.231L607.511 271.06L607.033 270.685L606.658 270.241L606.521 270.002L606.453 269.865L607.409 267.509L607.648 266.314L607.273 265.323L606.794 265.05H605.155L602.014 263.718H600.989L600.443 263.991L599.623 264.879L598.974 265.187H598.36L596.618 264.948L595.457 265.323L594.808 265.392L594.432 265.016L594.603 264.231L595.047 263.206L595.15 262.386L594.296 262.182L593.579 262.284L592.998 262.216L592.588 261.806L592.349 260.884V259.62L592.452 258.63L592.281 257.879L591.496 257.435L590.3 257.162L587.705 257.059L584.768 258.084L582.856 257.776L577.324 255.318L570.904 255.113L570.494 254.908L570.118 254.396L570.05 253.952L570.152 253.508V253.166L569.811 252.995L563.015 252.722L562.127 252.347L560.249 250.673L559.361 250.468L557.346 250.537L551.131 249.342L548.672 249.854L544.711 249.785L539.008 249.683L534.091 248.351H532.759L531.427 248.829L528.798 250.195L520.602 251.527H519.987L518.211 251.083L510.938 251.664L510.323 251.903L509.674 252.551L508.615 254.122L508.171 255.044L507.489 258.118L506.669 259.279L503.356 261.567L498.985 265.494L497.824 265.699L497.005 264.914L496.185 263.923L495.024 263.445L494.307 263.377L492.258 262.762H491.575L488.741 263.479L488.365 263.684L488.058 263.991L487.716 264.606V264.982L487.853 265.357L488.638 267.611L488.707 268.055L488.57 268.772L488.331 268.909L488.058 268.704L488.092 268.875Z" fill="white"/>
<path opacity="0.4" d="M465.655 105.579L465.415 104.93L465.04 104.52L463.298 103.7L463.059 103.291L463.401 102.608L463.025 102.471L462.752 102.164L462.547 101.822L462.342 101.617L462.069 101.515H460.43L459.952 101.276L459.61 100.661L459.234 99.5343L458.756 97.2463L458.449 96.2218L458.176 95.8804L458.005 95.6755L457.288 95.2656L454.215 96.1877L449.365 95.6071L448.819 95.5389L445.643 96.3584L445.267 96.7341L444.926 97.2121L444.38 97.6219L443.697 97.6902L442.911 97.4512L442.262 96.9048L441.989 96.0511V95.2315L441.887 94.651L441.545 94.3778L440.794 94.4461L440.043 95.0266L439.804 95.129L439.53 95.0266L438.813 94.5485L437.789 94.2754L437.208 93.8996L436.218 93.0118L434.203 92.5679L433.691 92.1239L433.179 91.4409L431.13 89.8359L429.935 89.2554L426.998 89.1529L425.939 88.2992L424.129 85.1574L423.241 84.2695L422.524 84.372L420.134 86.3869L420.27 86.6259V87.2064V87.8553L420.168 88.2992L419.929 88.6406L419.621 88.8114H419.28H418.87L418.699 88.6066L418.529 88.2992L418.29 88.1625L417.914 88.4699L417.743 88.8114L417.675 89.2554V90.3823L417.743 90.5189L417.982 91.6117V91.8165L418.085 92.2264L418.802 98.4416L419.28 100.081L419.485 101.071L419.109 102.198L417.948 102.813L415.489 103.496L415.319 103.666L415.216 103.905L415.045 104.11L414.704 104.213L414.636 104.042L414.362 103.7L414.055 103.496L413.919 103.7L413.577 104.008L411.528 104.213L408.352 103.632L406.747 102.13L405.552 101.788L400.088 102.232L399.542 102.13L399.303 101.925L399.029 101.549L398.825 101.173L398.722 100.934L398.79 100.49L398.995 100.32L399.268 100.251L399.542 100.047L403.332 96.5291L405.825 93.285L407.294 91.8165L407.601 91.3726L408.147 90.2456L408.386 89.87L408.864 89.3236L409.069 89.0163L409.206 88.6066L409.274 88.265L409.411 88.0943L409.718 87.9918L409.65 87.6162L409.923 87.2406L410.606 87.0016L410.777 86.66L410.708 86.4552L411.016 86.1478L412.109 85.3282V85.1916L410.23 84.7135L407.259 89.9042L406.85 90.1432L401.761 96.6316L397.322 100.354L395.136 101.583L393.941 101.856L389.263 101.242L387.453 101.583L385.438 101.447L384.243 101.754L383.901 101.583L383.15 100.73L382.604 100.9L382.023 101.549L381.545 102.437L381.374 103.325L380.964 104.725V105.374L381.101 105.852L381.887 108.413L382.091 109.403L382.16 110.599L381.989 111.418L381.238 113.296L380.794 114.15L380.521 114.526L380.35 114.901V115.14V115.721V115.96L380.213 116.199L380.111 116.267H379.974L379.803 116.506L378.301 119.443L375.432 123.097L372.291 125.966V126.341L371.812 126.546L372.427 127.058L373.861 127.571L376.15 127.707L382.16 128.015L393.463 128.629L401.898 129.073L410.333 129.517L420.782 130.064L433.418 130.747L441.545 131.191L449.673 131.635L456.468 132.01L461.966 132.317L463.981 131.635L462.24 128.527L461.454 126.785L461.283 124.839L461.488 120.946L462.137 118.555L462.274 117.633V117.087L462.069 115.926V115.414L462.205 115.072L462.854 114.116V113.911L462.786 113.672L462.718 113.433L462.786 113.194L462.888 113.126L463.128 113.057L463.435 112.784L463.947 112.511L464.186 112.238L464.596 111.555L465.518 110.906L465.962 110.428L466.337 109.54L466.406 108.652L466.303 107.73L465.859 105.681L465.655 105.579Z" fill="white"/>
<path opacity="0.6" d="M597.582 -33.2709H602.704L602.534 -31.3585L602.602 -30.0608L602.295 -28.934L602.192 -27.9777L602.909 -27.1923L605.949 -25.758L607.519 -23.9823L607.929 -23.5383L610.866 -21.6942L611.412 -21.2162L611.788 -20.4307L611.959 -19.1672L611.822 -16.1621L611.617 -14.523L611.344 -13.3618L610.456 -12.5081L607.724 -11.1763L607.178 -10.3568L607.588 -9.36643L608.339 -8.95665L609.022 -8.41026L609.193 -7.04431L609.056 -6.46373L608.578 -5.30267L608.407 -4.72208L608.339 -4.17579L608.271 -3.11707L608.168 -2.50241L606.222 1.6638L605.641 3.54196L606.119 3.67859L606.597 3.81522L609.022 2.44917L610.251 2.10776L611.549 2.48335L612.164 3.02975L613.325 4.32743L613.974 4.83965L614.144 5.59093L613.598 6.82026L612.881 8.08387L612.573 8.97167L613.086 9.89377L615.954 11.9426L616.262 12.8306V15.221L616.432 16.3479L616.842 17.2016L617.354 17.7822L619.676 18.9091L620.189 19.2848L620.359 19.8995L620.155 20.3775L619.403 21.0947L619.233 21.7094L619.335 22.2216L619.574 22.6997L621.077 24.6461L621.316 25.0901L621.418 25.6707L621.316 27.4806L621.384 28.6758L621.589 29.7345L622.75 33.3201L622.818 33.8665L622.75 34.6519L622.579 35.0617L622.34 35.4032L622.101 35.9495L621.862 37.1789L621.691 38.4083L621.418 39.5694L620.838 40.5939L619.745 39.8426L618.481 40.3207L617.969 40.6963L617.184 41.2769L615.92 41.8916L614.725 42.1647L614.349 42.3696L613.905 42.8477L613.632 43.4282L613.359 44.077L613.017 44.7601L611.037 46.2968L610.115 47.253L609.978 48.5165L609.022 50.224L606.119 52.1363L605.3 54.4243L605.095 56.883L604.856 57.9758L604.617 58.7613L603.797 58.8637L600.109 58.5222L599.153 58.2149L598.231 57.6685L597.514 56.8147L596.933 57.5318L595.567 58.8637L594.987 59.1028L594.167 58.6588L592.357 57.1221L591.708 56.7806L590.513 56.5757L586.723 57.0538H586.688L586.074 57.4978L584.4 59.5466L582.727 62.6201L582.147 63.3031L579.824 64.4983H579.141L577.605 63.9177L576.819 63.8495L576.102 64.2252L575.487 65.3179L573.814 65.1813L572.175 64.7374L568.111 62.7567L566.267 61.3565L564.73 58.5905L564.048 57.0196L563.33 55.8586L560.428 53.3316L558.618 51.2826L556.979 50.1898L554.349 48.4481L552.129 45.9553L551.276 44.9991L549.602 43.8381L549.261 43.4966L548.988 42.9502L548.441 41.1745L548.236 40.7305L547.895 40.5597L546.153 40.6963L545.641 40.5939L544.173 39.8768L542.192 40.2524L539.119 39.706L532.118 38.4766L531.059 37.6912L530.206 36.1203L529.693 34.4471L529.42 33.9347L528.464 32.842L528.157 32.2956L527.849 31.3053L527.098 28.1294L526.347 25.9098L525.835 25.0218L525.22 24.817L524.81 25.1925L524.708 25.7389V26.3195L524.503 26.7635L524.264 26.8317L523.615 26.5927H523.307L520.678 27.7879L519.619 28.266L518.458 29.188L516.102 32.3981L515.556 32.9786L513.882 33.9689L512.892 34.4129L511.936 34.1396L510.092 32.7737L509.136 32.3981L508.248 32.5688L504.73 34.4129L503.945 34.5495H503.911L503.023 34.3787L502.033 33.8323L499.301 31.6809L496.09 30.6564L495.715 30.5198H494.759L492.744 30.9638L491.822 30.8271V30.6564V30.3149V29.9393L491.549 29.5636L491.31 29.4612L490.524 29.5978L488.509 29.4954L487.587 29.7685L485.846 30.8271L484.787 30.7589L481.748 29.4612L479.767 28.6075L479.118 28.4709L475.738 29.2563L475.191 29.5978L475.43 30.1442L473.962 31.7151L472.493 32.0566L471.162 31.0321L470.137 28.4368L469.42 26.9342L468.464 26.3878L467.439 26.5927L466.586 27.2073L465.527 27.9586L461.395 29.6661L460.951 29.7345L460.439 29.5296L459.141 28.1635L458.356 27.7537H458.287L456.409 27.2757L447.735 27.583L447.155 27.344L446.062 26.5244L445.516 26.2512L444.184 26.1487L440.94 27.6855L440.427 27.9245L432.232 31.7834L429.636 31.8859L428.543 32.4322L424.48 35.5739L424.036 35.7106L422.704 35.7788L421.816 36.257L420.723 37.1789L419.699 38.3058L418.947 39.467L418.435 41.1403L418.23 42.5745L417.786 43.5648L416.625 43.9063H414.918L413.825 44.2137V43.9405L413.552 41.994L413.142 40.2865L411.844 36.9741L411.537 35.8471L411.401 34.7202L411.469 34.3787L411.742 33.3543L411.81 32.7396V31.7151L411.469 29.632L411.401 28.5734L411.469 27.583L411.708 26.7635L412.118 26.0463L412.288 25.6365L412.425 25.1585L412.493 24.5779V23.5535L412.63 23.007L412.425 22.1191L412.357 21.163L412.527 20.6849L413.04 21.1972L413.21 21.7435L413.381 23.1436L413.654 23.7583L413.245 24.4754L413.449 24.6803L413.654 24.817V25.9438L413.245 26.6269L413.928 27.583L414.167 27.7537L414.406 27.6172L414.611 27.3098L414.679 26.9L414.337 25.8073L414.269 24.8852V23.9973L414.44 23.4168L414.303 23.0411L414.167 22.1191L414.03 21.6069L413.859 21.2312L413.723 20.9923L413.21 20.5483L412.903 20.3775H412.63L412.425 20.2068L412.22 19.797L412.084 19.2164L412.152 18.9775L412.288 18.7384L412.596 16.5528L413.62 13.5136L413.962 11.8061L414.167 7.26421L414.064 6.2056L413.859 5.24943V4.36151L414.167 3.43952L416.557 1.8345L416.83 1.35647L418.777 0.161228L419.289 -0.419353L420.348 -2.05845L420.655 -2.39996L421.031 -2.60485L421.85 -3.35614L422.772 -4.20987L423.421 -5.23441L423.967 -6.77106L424.309 -8.6834V-10.869L424.275 -11.4495L423.967 -12.8838L424.036 -13.4643L424.309 -14.2156L424.377 -14.6937L424.309 -18.2111L424.377 -19.3379L424.582 -20.2941L424.924 -21.2504L425.402 -21.9675L425.914 -22.2748L426.324 -22.7188L427.416 -25.6215L429.5 -28.3876L432.71 -34.7051L433.597 -35.6954L434.827 -36.3785L440.188 -36.754L441.452 -37.1638L447.155 -40.2714L455.59 -44.9158L456.819 -45.2914L457.502 -45.3597L457.843 -45.4622L458.185 -45.667L458.561 -45.8377L458.97 -45.7353L459.278 -45.5646V-45.4962L459.107 -45.3597L458.97 -44.9498L458.697 -42.901L458.595 -40.6471L458.697 -39.5543L458.97 -38.7688L460.575 -36.3443L467.064 -30.6755L469.147 -28.046L471.503 -25.9629L473.006 -25.0751L473.996 -24.836L474.372 -24.6653L474.44 -24.2554V-23.709L474.577 -23.1627L475.225 -21.8309L475.362 -21.5577L475.669 -20.6698L475.908 -19.6112L476.147 -17.7329L476.386 -16.7427L476.83 -16.2987L477.104 -15.7865L477.923 -10.8006L478.231 -9.98109L478.64 -9.63958L479.153 -9.43469L480.553 -7.79559L482.977 -6.80524L485.47 -6.3271L485.812 -6.01977L487.246 -3.90253L487.519 -3.66347L487.724 -3.49276L489.09 -3.04881L490.934 -2.84392L495.92 -4.07324L497.696 -4.92697L498.447 -5.30267L499.574 -6.25884L500.086 -7.04431L500.462 -7.76141L500.871 -8.30781L501.998 -8.61514L503.125 -9.36643L505.994 -11.2446L506.233 -11.9959L506.813 -12.6105L507.462 -13.0204L507.974 -13.2253V-13.8058L508.282 -14.1815L508.965 -14.6937L510.911 -16.9476L511.526 -18.4501L511.765 -20.6015L511.663 -23.0944L510.98 -29.8559V-31.8707L510.775 -33.066L510.467 -33.6124L510.297 -34.2612L510.433 -35.6954L510.775 -37.7102L510.433 -40.9203L510.262 -41.6374L508.965 -43.7888L508.555 -44.8133V-45.8036L508.248 -48.3648L508.179 -49.6624L508.248 -50.3455L508.453 -50.9943L508.76 -51.5748L510.023 -51.0626H510.843L511.526 -51.5065L511.868 -52.0529L512.346 -53.3506L512.721 -53.7604L513.882 -54.3751L515.419 -55.7752L516 -55.9118L518.049 -55.7069L519.824 -55.9118L520.268 -56.2874L520.815 -57.8242L521.259 -58.4046L522.181 -58.1657L522.932 -57.6875L523.683 -57.5509L523.99 -57.8242L524.605 -58.4046L525.322 -58.8486L527.576 -59.1901L528.327 -59.7023L530.069 -61.5122L530.479 -61.922L531.128 -62.3319L531.811 -62.5368H533.177L533.928 -62.0586L534.338 -60.9317L534.611 -59.5657L534.952 -58.3706L535.396 -57.9949H535.84L536.762 -58.473L537.343 -59.2243L537.138 -60.1121L536.318 -61.6147V-62.5708L536.728 -62.9465L537.275 -62.8441L537.787 -62.4001L537.992 -62.0244L538.333 -61.0342L538.504 -60.7269L538.777 -60.556H538.948L539.153 -60.6927H539.46L540.621 -60.078L542.397 -57.9266L543.558 -57.1753L544.582 -56.9362L544.856 -56.7314L545.095 -56.3216V-56.0142L545.163 -55.9459V-55.5703L545.334 -55.1263L545.948 -54.3068L546.597 -53.897L547.28 -53.7946L547.997 -53.8628L549.568 -54.4092L549.91 -54.5117H550.354L550.798 -53.7262L551.071 -52.5993L551.446 -51.5065L552.164 -50.7894L558.31 -50.243L558.652 -50.0722L558.857 -49.7991L558.959 -49.2869L558.857 -48.9453L558.686 -48.6038L558.584 -48.0916L558.686 -46.9647L558.925 -46.2817L562.135 -43.5839L563.091 -42.457L565.857 -37.9151L566.848 -36.72L568.043 -35.8662L568.419 -35.6954L570.741 -34.7051L571.219 -34.227L572.209 -32.8269L572.755 -32.2123L573.199 -32.2805L573.609 -32.6562L574.019 -32.8952L574.292 -32.8269L574.839 -32.4513L575.112 -32.3489L575.419 -32.4854L575.556 -32.8269L575.658 -33.2367L575.829 -33.5782L576.683 -34.3295L577.639 -34.9101L578.629 -35.2174L580.883 -35.0808L581.395 -35.2515L582.01 -35.7979L582.351 -36.5492L582.659 -37.3687L583.103 -38.0517L583.649 -38.2908L584.025 -38.0176L584.366 -37.642L584.81 -37.5737L585.322 -37.6761H585.835L586.859 -37.3346L587.542 -36.7882L588.601 -35.149L589.181 -34.4661L589.864 -34.1246L592.221 -33.988L596.728 -32.3147L597.684 -32.9294L597.582 -33.2709Z" fill="white" stroke="white" stroke-width="0.3" stroke-miterlimit="10"/>
<path opacity="0.7" d="M348.672 360.73L348.809 359.978L348.741 359.056L348.331 357.144L348.194 356.734L347.853 355.949L347.716 355.505L347.511 353.968L347.375 353.627L346.931 353.285L346.487 353.353L346.043 353.558H345.633L345.257 353.388L344.677 352.705L344.301 352.397L343.891 352.261L343.004 352.192L342.628 351.919L342.457 351.578L342.15 350.28L341.467 348.88L340.955 347.514V346.319L341.74 345.397L340.955 344.987L340.818 344.44L340.886 343.757L340.716 342.938L340.272 342.665L339.111 343.416H338.428L336.242 342.221L335.115 341.811L333.954 341.948H334.056L334.091 342.016V342.084L333.305 342.801L332.895 342.87L332.315 342.392L332.144 342.084L331.939 341.367L331.803 341.128L331.461 340.855L330.778 340.718L330.437 340.547L329.515 339.762L329.071 339.523L327.192 339.181L326.817 338.738L327.022 337.918L325.314 336.791L324.904 336.689L324.426 336.552L324.563 337.576L324.734 337.645L324.973 337.576H325.212L325.417 337.884L325.485 338.328L325.348 338.533L324.392 338.806H323.231L322.685 338.977L321.831 339.728L320.772 340.035L319.714 339.796L317.836 337.918L317.494 337.474L317.255 336.928L317.084 336.381L316.879 335.869L316.572 335.493L316.299 335.22L316.196 334.947L316.299 334.708L316.572 334.469V334.401V334.298L316.162 334.196L315.377 333.786L315.001 333.684L314.694 333.752L314.455 333.888L314.147 333.957L313.704 333.752L312.269 331.942L312.201 331.6L312.406 331.156L312.713 330.986L314.113 330.917L314.899 330.61L316.128 329.859L316.709 329.346L316.982 328.664L316.538 327.81L316.231 327.503L316.162 327.059L316.231 326.649L316.538 325.795L316.606 325.658V325.522V325.385L316.538 325.283L315.991 324.566L315.821 324.429L315.343 324.258L315.138 324.395L315.069 324.702L314.899 325.078L314.045 326.273L313.533 326.683L312.85 326.854L310.254 326.41L308.854 326.546L308.001 327.571L307.864 327.673H307.693H307.523L307.386 327.571L307.113 326.717L306.464 326.205H305.815L305.508 327.093L305.132 326.785L304.927 326.307L304.859 325.727V325.146L304.756 325.044L304.62 324.907L304.517 324.771L304.449 324.6L304.995 324.395L304.381 324.122H303.015L302.332 323.951L301.307 323.302L301.034 322.995L300.863 322.585L300.693 322.004L300.59 321.492L300.659 321.356L300.317 321.253L299.429 321.424H299.019L298.644 321.219L297.961 320.638L297.653 320.434L294.648 319.58L293.965 319.648L293.521 319.375L292.702 318.897L292.019 318.829L291.233 319.307V319.955L292.155 321.322L292.497 322.141L292.702 323.097L292.975 323.985L293.521 324.532L294.238 324.941L294.785 325.522L295.092 326.341V327.434L295.502 327.946L295.57 328.561L295.4 328.937L295.058 328.8L294.751 328.322L294.614 328.049L294.443 327.912H293.999L293.931 328.015V328.561L293.863 328.732H293.59L293.043 328.561H292.77L292.429 328.8L291.951 329.483L291.677 329.722L291.336 329.79L290.994 329.893H290.414L289.833 329.927L289.184 330.473L288.672 331.259L288.365 331.874L288.023 332.386L287.374 332.864L286.487 334.093L285.291 334.196L284.062 333.547L283.072 332.625L282.559 331.942L282.286 331.361L281.945 329.825L281.637 328.971L280.749 328.049L280.374 327.366L279.964 326.785L279.213 325.419L278.803 324.839L278.154 324.395L276.857 323.917L276.344 323.234L276.276 322.824V322.414V322.004L276.071 321.595L275.798 321.492H274.466L274.125 321.595L273.92 321.765H273.715L273.339 321.526L273.203 321.253L272.827 320.092L271.871 319.921L271.598 319.102L271.837 318.385L272.417 318.521L272.349 318.385L272.212 317.872H272.383L272.656 317.702L272.827 317.633L273.271 317.258L273.783 316.95L274.227 316.575L274.466 315.994L274.91 315.858L275.832 316.131L276.344 316.028L276.617 315.653L277.232 315.072L277.471 314.731H277.403V314.492V314.15L277.471 313.911L277.608 313.638L277.676 313.501V313.365L277.574 313.023L278.496 312.648L278.222 311.76L275.73 309.13L274.842 308.618L273.886 308.379H272.827L272.451 308.447L272.246 308.925L272.041 309.506L271.7 309.95L271.222 310.052L270.778 309.847L269.856 309.13L268.627 308.994L266.817 310.735L265.587 310.974L265.519 310.838V310.701V310.564L265.587 310.428L265.997 310.086L266.065 309.54L265.895 308.891L265.656 308.276L265.28 307.559L264.904 307.184L264.426 307.115L262.685 307.764H261.865L261.694 307.73L260.226 305.203L260.123 304.93L260.055 304.622L259.338 304.554L256.913 305.135L256.606 305.032L256.401 304.827L256.025 304.247L255.684 304.042L249.844 301.993L248.615 302.095L248.342 302.437L248.069 302.915L247.761 303.257H247.727L247.352 303.12L247.181 302.744V302.3L247.283 301.822V301.378L246.908 300.525L246.464 300.149L245.952 299.91L245.371 299.432L245.064 298.92L244.722 298.168L244.449 297.349L244.347 296.7L244.551 295.846L244.79 295.368V294.924L244.347 294.173L243.561 293.797H241.888L241.615 293.08L241.478 292.363L241.136 292.192L240.761 292.465L240.488 293.08L240.385 293.558L240.044 293.626L239.634 293.422L239.292 293.08L239.053 292.636L237.585 292.295L237.039 291.782L236.97 292.158L236.834 292.363L236.424 292.67H236.253L236.082 292.773L235.946 292.909L235.809 293.08L235.946 293.592L236.424 293.968L236.868 294.617V295.949L236.799 296.188L236.526 296.529L236.458 296.7V296.973V297.144V297.28L236.526 298.885L236.458 299.295L233.111 299.056L232.053 299.363H231.438V298.476L231.848 297.793L232.872 296.632L234.341 293.114L235.638 289.802L235.741 289.255V288.367L235.809 287.924L235.98 287.616L236.219 287.411L236.424 287.104L236.492 286.523V285.362L236.765 284.065L237.175 282.835L237.687 281.845L237.551 281.708L237.448 281.572L237.585 280.206L237.175 279.284L236.526 278.498L235.98 277.542L235.912 277.235L235.775 276.415L235.604 274.4L235.502 273.171L235.741 272.591L235.434 271.942L234.887 271.361L234.443 271.02L233.794 270.712L232.428 270.303L231.745 269.927L231.131 269.483L229.218 268.834L228.569 268.151L228.467 267.673L228.399 267.332L228.638 266.41L229.218 265.522L229.56 264.6V263.37L229.218 262.175L228.843 261.356L227.408 260.16L226.76 259.375L226.452 258.18L226.35 256.95L225.94 256.404L225.428 256.028L224.95 255.311L224.847 254.321L225.223 253.501L226.896 251.794L227.443 251.077L227.887 250.223L228.126 249.301L228.228 246.432L228.399 245.988L229.013 244.827L229.15 244.383L229.218 243.939L229.321 243.53L229.56 243.12L230.106 242.437L228.194 241.003L227.887 240.32L228.057 239.09L228.365 238.236L228.467 237.554L228.057 236.905V236.597L228.638 235.846V234.89L228.194 234.07L227.374 233.729L226.555 233.524L225.564 233.012L224.916 232.26L225.086 231.407L224.472 230.006L223.789 227.923L223.618 226.011L225.12 224.679L225.838 223.552L226.316 222.425L226.179 221.913L225.633 221.401L225.872 220.274L226.691 218.567L225.769 217.815L225.599 217.61L223.891 215.698L222.15 215.015L221.296 213.854L220.749 213.581L220.442 213.273L219.452 211.293L219.008 210.746L215.9 208.458L215.115 208.049L214.159 206.922L213.578 206.648H212.929L212.315 206.409L211.802 206L211.461 205.317L212.246 204.634L212.554 204.053L212.69 203.131L212.622 202.516L212.28 200.809L212.11 200.331V200.023L213.51 198.965L215.286 198.043L216.993 196.677L217.881 195.721L218.256 194.833L218.325 194.423L219.213 191.691L219.144 190.974L218.974 190.291L218.871 189.506L218.939 188.857L219.144 188.276L219.452 187.832L219.759 187.661L219.964 187.354L220.715 185.852L220.34 185.51L220.237 185.237L219.793 184.861L219.622 184.554L219.52 184.076V183.188L219.452 182.778L219.247 181.856L218.632 179.022L218.325 176.495L217.71 175.47L217.403 174.446L216.686 173.353L216.481 172.329V171.236L216.549 169.426L216.481 168.948L215.866 167.035L215.422 166.079L215.559 165.328V163.928H215.525H215.798L216.31 163.655L216.686 163.313V162.903L216.208 162.562L216.481 162.391L216.583 162.22L216.481 162.05L216.208 161.879L216.378 161.503L216.651 161.776L217.061 161.981L217.437 162.254L217.778 163.211L218.188 163.518L218.974 163.894L219.554 164.508L219.861 164.782L221.159 164.986L222.73 165.533L223.276 165.943L223.72 166.591L224.677 168.435L225.018 168.879L225.189 168.743V167.957L225.36 167.513L225.599 167.206L226.008 166.899V166.728V166.523V166.25L225.735 166.148L224.984 166.079L224.642 165.908L223.72 163.723L223.925 162.63L224.642 160.479L224.984 160.786L225.257 160.718L225.564 160.513H226.008L225.803 159.249L225.906 158.259L226.111 157.371L226.213 156.449H226.008L225.94 157.03L225.701 157.405L225.018 158.122L225.189 158.464L224.916 158.361L224.711 158.225L224.54 158.054L224.369 157.815L224.506 157.678L224.779 157.337L224.95 157.166L224.54 156.313L223.857 155.903L220.613 155.561L220.169 155.049L220.545 154.093L220.442 153.99V153.922L220.374 153.751L220.101 154.229L219.861 154.298L219.622 154.161L219.281 154.059L219.042 154.161L218.837 154.4L218.632 154.708L218.393 155.015L219.281 155.186L219.759 155.391L219.998 155.698L219.93 156.313L219.622 156.756L219.247 156.927L218.974 156.722L218.188 157.235L217.778 157.371H217.369V157.747L217.778 157.918V158.02L217.369 158.088H217.095L216.617 157.815L216.276 157.747L215.798 157.405L214.398 155.356L213.715 155.049H213.646L213.407 154.298L212.895 153.683L213.168 153.615L213.407 153.444L213.92 152.112L214.398 152.317L214.705 152.59L215.593 152.932L218.496 153.171L219.657 152.932L220.783 152.317L222.867 150.78L230.584 147.331L237.243 145.59L245.371 142.175L250.63 140.775L256.401 139.204L262.07 136.643L266.782 136.062L270.027 134.969L269.651 135.345L268.217 135.994L268.866 136.438L271.427 135.994V135.686H271.222V135.311H272.622V135.072L272.588 135.038H272.52L272.417 134.969L272.485 134.15H271.802L270.197 134.628L271.188 134.116L272.383 133.33L274.193 131.213L273.817 131.964L273.168 132.647L272.929 133.023L273.203 132.92L273.749 132.818L274.227 132.647L274.637 132.169L275.661 131.691L276.037 131.247L275.695 130.53H275.115L274.842 130.837L274.398 131.281L275.627 129.13L279.008 124.759V125.066L278.837 125.544L279.145 125.681L279.623 125.51L279.998 125.066L280.169 124.383L279.998 124.178L279.623 124.349L279.179 124.759L279.793 123.563L280.818 122.539L282.798 121.31L288.911 120.422L291.267 119.466L292.497 119.261L293.59 118.851L296.39 115.777L305.2 111.645L316.231 109.562L321.182 107.855L328.968 107.138H333.783L334.432 107.377L335.491 108.299L335.866 108.504L336.481 108.64L346.453 114.616L348.263 116.973L348.57 117.519L348.877 118.304V118.987L348.399 119.226L348.263 119.056L348.126 118.68L347.955 118.304L347.409 117.929L347.067 116.973L346.589 116.358L345.189 114.002L344.916 113.865L343.891 113.66L343.618 113.558L343.345 113.08L342.525 112.806L340.784 111.611L339.076 110.792L338.803 110.382L337.847 109.665L337.608 109.562L337.266 109.733L337.096 110.006L336.686 111.44L336.618 111.782V112.533L336.788 112.704L337.471 113.011L337.642 113.216L337.984 113.831L338.428 114.753V115.129L338.291 115.47V115.812L338.632 116.153L338.462 117.143L338.803 117.553L339.35 117.451L339.828 116.836L339.657 117.656L339.896 118.339L340.272 118.919L341.023 121.207L341.262 121.685L341.159 122.846V124.827L341.364 126.705L341.774 127.559L342.218 127.695L343.106 128.379L343.55 128.549H343.926L344.404 128.754L344.813 129.027L344.984 129.471L345.462 130.154L350.38 131.759L351.473 131.828L352.395 131.315L352.634 131.554L352.975 131.759L353.795 131.998L364.757 130.359L367.181 129.198L368.342 128.925L369.264 128.481L371.074 126.603L371.586 126.398L372.201 126.91L373.635 127.422L375.923 127.559L381.934 127.866L393.237 128.481L401.672 128.925L410.107 129.369L420.556 129.915L433.192 130.598L441.319 131.042L449.447 131.486L456.242 131.862L461.74 132.169L463.755 131.486L464.301 131.042L465.053 129.676V129.608L465.804 129.266L466.419 129.335L468.16 130.222H468.468L469.116 130.12L469.424 130.188L469.731 130.496L469.902 130.871L470.039 131.247L470.209 131.554L470.551 131.793L471.541 131.896L471.712 132.169L471.609 132.647L471.439 133.228V133.74L471.951 134.491H472.634L473.317 134.184L473.897 134.047L474.444 134.32L476.254 135.823L477.381 136.506L479.737 137.394L480.317 137.906L480.864 138.35L481.137 138.794L481.683 139.818L481.957 140.194L482.264 140.399L482.879 140.57L483.152 140.74L483.63 141.458L484.04 142.448L484.347 143.575L484.586 144.633L484.996 146.956V148.083L484.586 148.834L484.245 149.141L484.074 149.346L483.937 149.551V150.097L484.04 150.541L484.279 150.883L484.586 151.122L484.757 151.361L484.825 151.6V151.873L484.689 152.146V153.581L485.03 154.776L485.406 155.903L485.713 157.132L485.986 159.762L486.294 160.786L487.011 161.845L487.079 164.85L487.762 168.265L490.255 175.88L491.621 178.749L492.201 180.285L493.362 184.895L493.875 186.296L494.387 187.013L494.66 187.696L494.899 188.413L495.241 189.164L495.753 189.745L496.265 190.12L496.572 190.701L496.504 191.862L496.231 192.579L495.889 193.16L495.616 193.842V194.799L495.821 195.618L496.709 196.745L497.051 197.462V197.838V198.418V198.726L497.29 200.058V200.433L497.221 200.741L496.914 201.389L496.846 201.765V202.277L496.982 202.551L497.085 202.79L497.153 203.165L497.392 209.005L497.46 210.439L497.051 212.488L495.889 213.922L491.996 216.552L487.113 217.952L484.518 219.454L481.957 221.606L478.405 227.07L477.244 228.504L476.698 229.358L475.332 232.124H475.434L475.639 232.329L475.844 232.499L476.151 232.977L476.254 233.592L476.015 234.446L476.664 234.856L478.747 235.436L479.191 235.265L479.566 235.641L481.376 236.324L481.991 236.392V236.7L481.786 237.144L481.854 237.212L482.264 237.041L482.64 237.212L482.913 237.485L483.186 237.554L483.596 237.075L483.698 237.28L483.971 237.519L484.176 237.758L484.654 237.28L484.757 237.622L484.689 238.202L484.586 238.373L485.406 239.978L485.986 240.149H487.386L487.933 240.422L488.138 240.798L488.274 241.173L488.445 241.481L488.718 241.617L489.06 241.856L489.162 242.403V242.949L489.435 243.53L489.845 245.305L490.187 246.125L489.743 246.466L489.367 247.081L488.821 248.379L488.616 249.232V250.769L488.411 251.316H488.513L488.582 251.35V251.418L488.616 251.623L488.274 251.828L488.138 252.852L487.796 253.228L488.24 254.082L488.786 254.799L488.445 255.892L487.899 256.438L487.284 256.814L486.806 257.394L486.703 257.736L486.601 258.248L486.43 259.341L486.533 259.58L486.737 259.921L486.806 260.229L486.533 260.365L486.43 260.502L486.533 260.809L486.703 261.116L486.84 261.321L486.464 261.799L486.294 261.902H486.02V262.277L486.362 262.653V263.097L486.259 264.361L486.362 265.044L486.601 265.692L487.25 266.785H487.045H486.84L487.216 267.502L487.694 267.673L488.103 267.912L488.206 268.527L488.274 268.8L488.479 269.449L488.923 269.756L489.435 269.961L489.845 270.234L489.401 271.156V271.464L490.631 273.205L490.87 273.752L490.528 273.922L490.323 274.264V274.742L490.46 275.357L489.913 275.561L489.401 276.108L488.991 276.791L488.821 277.406L489.026 278.396L489.469 278.635H490.05L490.562 278.976L492.167 282.528L492.816 283.313L494.285 284.27L495.685 285.704L496.026 286.284L495.548 286.523L495.446 286.967L495.889 287.889L496.641 289.085L496.88 289.699L497.221 291.646V291.919L497.085 292.295L497.29 292.5L497.665 292.636L498.007 292.875L498.314 293.353L498.382 293.729V294.139L498.587 294.753L499.031 295.471L501.012 297.28L503.436 298.612L503.812 299.193L503.436 299.978L502.549 300.183H501.592L501.012 300.456L500.226 300.012L499.407 300.115L498.724 300.627L498.348 301.412L498.417 302.3L498.861 302.881L499.543 303.188L500.363 303.291V303.564L499.987 304.383L500.397 305.101L501.183 305.613L501.968 305.818L501.797 306.876L502.036 307.833L502.788 309.608L502.105 310.803L502.412 312.989L502.617 313.604L502.753 313.74V313.843L502.344 314.355L501.797 314.936L499.919 315.926L499.851 316.472V317.36V317.941L499.714 318.419L499.065 319.921L497.529 320.57L492.236 320.638L491.245 320.946L490.733 321.219L490.323 321.595L490.016 322.278L489.64 323.473V323.541L489.23 324.122L486.942 326.615L486.089 327.298L484.484 328.527L483.152 329.551L476.493 336.791L475.605 338.157L474.546 339.011L473.385 340.308L470.209 344.953L468.98 346.216L468.809 346.592L468.57 347.514L468.434 347.821L468.194 348.06L467.682 348.265L467.409 348.436L467.136 348.777L465.326 352.022L464.848 352.534L464.541 352.67L463.926 352.807L463.584 353.08L463.379 353.456L462.867 354.89L460.648 357.861L459.93 359.603L460.477 361.208L460.682 361.857L460.852 363.769L460.955 364.281L461.023 364.52L461.399 365.135L462.014 365.784L462.184 366.125L462.321 366.842L462.731 370.94L462.628 371.589L462.15 372.955L461.74 374.526L461.262 375.482L461.092 376.029L461.262 376.268L461.399 376.165L461.774 375.687L462.218 375.994H462.184L462.082 376.029L463.038 376.712L463.892 377.838L464.438 378.248L465.736 378.965L466.077 379.409V379.785L465.804 380.673V381.288L465.906 381.697L466.385 382.517V382.619L466.487 382.756L466.146 383.473L465.565 383.234L464.916 382.653L464.404 382.38L464.097 382.278L463.55 381.526L463.243 381.253H462.936L462.287 381.424L461.228 381.356L460.613 381.424L459.999 381.356L459.282 380.878L458.189 379.682L457.608 379.512L456.994 380.092L455.969 379.58L453.681 379.478L452.622 379.136L451.154 377.634L450.539 377.394L448.934 377.463L447.568 377.053L447.363 376.882L447.295 376.609L447.363 376.336V376.029L447.056 375.687H446.817L446.134 375.721H445.827L445.485 375.55L444.529 374.936L442.48 374.526L441.661 373.911L441.456 372.477L441.08 370.906L440.226 369.54L439.168 368.55L437.597 367.764L436.538 366.774L435.992 366.467L435.411 366.569L434.899 367.047L434.489 367.525L434.182 367.73L433.738 367.355L432.748 365.852L432.27 365.34L431.996 365.272L431.552 365.374H431.347L431.04 365.135L430.494 364.588L430.186 364.384L429.64 364.247L427.557 364.486L427.113 364.657L426.567 364.862L426.123 364.725L425.03 364.964H424.552L421.717 364.179L420.078 363.291L419.669 363.188L419.156 363.564L418.234 364.93L417.722 365.408L417.107 365.511L416.663 365.203L416.254 364.725L415.741 364.349H415.297L414.102 364.554L413.658 364.759L413.078 365.408L413.419 365.818L414.102 366.228L414.444 366.911L414.205 367.32L413.658 367.423H413.044L412.6 367.525L411.985 368.106L411.029 369.506L410.414 370.052L409.731 370.291L409.185 370.189L408.707 369.848L408.229 369.335L407.682 368.926L407.238 368.857H406.726L406.077 368.789L405.599 368.447L403.004 365.34L402.56 365.272L401.467 365.442L400.852 365.34H400.579L400.272 365.545L399.794 366.125L399.452 366.433L398.769 366.672L398.12 366.501L395.662 365.237L395.218 365.34V366.125L393.715 366.194L392.52 365.75H392.178L391.871 365.989L391.769 366.262L391.7 366.672L391.564 367.32L391.359 367.935L391.222 368.14L388.968 368.345L388.524 368.584L387.876 369.335L387.602 369.608L386.954 369.54L386.885 369.472L386.715 369.677L386.168 370.94L385.997 371.487L385.792 371.965L385.417 372.409L385.246 373.98L384.939 375.107L384.358 375.55L383.402 375.072L381.9 373.672L381.08 373.262L380.158 373.365L379.646 373.74L379.065 374.321L378.655 374.731L378.006 374.97L376.675 374.867L375.923 374.594L375.548 374.082L375.65 373.501L376.743 371.692L376.88 371.589L377.05 371.521L377.221 371.418L377.289 371.179L377.221 370.974L377.016 370.735L376.982 370.633L376.572 370.326L376.47 370.189V369.984L376.709 369.643V369.472L376.572 367.32L376.436 366.569L376.162 365.715L375.889 365.511L374.899 365.92L374.318 365.989L373.67 365.92L371.996 365.34L372.065 364.793V364.076V363.837L372.201 363.564H371.04L370.425 363.393L369.913 363.018L369.776 362.71L369.298 361.276L368.752 359.022L368.411 358.134L367.727 357.69L367.523 357.451L367.045 356.598L366.806 356.495L366.635 356.427L366.464 356.495L366.362 356.734L363.835 359.534L363.63 359.739L363.22 359.91H362.913L362.025 359.944L361.478 360.081L361 360.32L360.59 360.73L360.181 361.378L359.703 362.847H359.771L359.873 363.018L359.941 363.223L359.873 363.53L359.737 363.632H359.395H359.327L359.122 364.52L359.054 365.067L358.849 365.408L357.961 365.784L357.244 365.92H356.936L356.663 365.75L356.083 365.34L355.809 365.237L355.161 365.374L354.034 366.023L353.282 366.091L352.702 365.989L352.531 365.476L352.668 364.008L352.599 363.359L352.463 362.744V362.096L352.702 361.344L351.848 360.832L348.945 360.559L348.672 360.73Z" fill="white"/>
</g>
<path d="M420.806 171.479L415.17 172.204L415.009 190H426.121L420.806 171.479Z" fill="#FF78B9"/>
<path d="M418.148 173.091C412.351 173.896 409.13 172.93 406.634 170.836C406.392 170.595 406.312 170.273 406.553 169.95C406.634 169.789 406.795 169.709 406.956 169.709L428.133 166.891C428.455 166.81 428.777 167.052 428.777 167.374C428.777 167.535 428.777 167.696 428.697 167.776C426.845 170.514 423.946 172.286 418.148 173.091Z" fill="white"/>
<path d="M416.136 158.033C417.665 157.791 419.115 158.918 419.356 160.448L419.92 164.877L414.284 165.602L413.72 161.173C413.478 159.643 414.606 158.274 416.136 158.033Z" fill="#83DDC5"/>
<path d="M416.457 160.689C417.101 160.608 417.665 161.092 417.745 161.655L417.907 162.622C417.987 163.266 417.584 163.829 416.94 163.91C416.296 163.99 415.732 163.507 415.652 162.944L415.491 161.977C415.41 161.333 415.893 160.77 416.457 160.689Z" fill="#4F5D7F"/>
<path d="M416.86 163.428C408.808 164.556 404.782 166.971 402.205 170.675C401.883 170.997 401.963 171.481 402.286 171.803C402.527 171.964 402.769 172.044 403.01 171.964L432.562 167.938C433.045 167.938 433.367 167.535 433.367 167.132C433.367 166.891 433.206 166.569 432.964 166.488C429.421 163.589 424.912 162.301 416.86 163.428Z" fill="#EBEFF7"/>
<path d="M405.747 170.513C406.058 170.513 406.311 170.261 406.311 169.949C406.311 169.638 406.058 169.386 405.747 169.386C405.436 169.386 405.183 169.638 405.183 169.949C405.183 170.261 405.436 170.513 405.747 170.513Z" fill="#FFD836"/>
<path d="M409.21 170.03C409.522 170.03 409.774 169.778 409.774 169.466C409.774 169.155 409.522 168.903 409.21 168.903C408.899 168.903 408.647 169.155 408.647 169.466C408.647 169.778 408.899 170.03 409.21 170.03Z" fill="#AEC7FF"/>
<path d="M428.133 167.454C428.444 167.454 428.696 167.202 428.696 166.89C428.696 166.579 428.444 166.327 428.133 166.327C427.821 166.327 427.569 166.579 427.569 166.89C427.569 167.202 427.821 167.454 428.133 167.454Z" fill="#F47FFF"/>
<path opacity="0.45" d="M417.506 178.404C417.828 177.84 418.552 177.679 419.116 178.082L419.438 178.324C420.002 178.646 420.163 179.37 419.76 179.934C419.438 180.498 418.713 180.659 418.15 180.256L417.828 180.015C417.264 179.612 417.103 178.887 417.506 178.404Z" fill="#4762B0"/>
</g>
<defs>
<clipPath id="clip0_3_6832">
<rect width="660" height="190" rx="16" fill="white"/>
</clipPath>
</defs>
</svg>
