<svg xmlns="http://www.w3.org/2000/svg" width="60" height="60" viewBox="0 0 60 60">
  <g fill="none" fill-rule="evenodd">
    <g transform="translate(7 1)">
      <path stroke="#FFFFFF" stroke-width="2" d="M2.0623 38.5629C.7393 35.7659.0003 32.6389.0003 29.3399L.0003 29.3399C.0003 17.4089 9.6713 7.7379 21.6023 7.7379L21.6023 7.7379C33.5333 7.7379 43.2043 17.4089 43.2043 29.3399L43.2043 29.3399C43.2043 41.2699 33.5333 50.9419 21.6023 50.9419L21.6023 50.9419C17.5983 50.9419 13.8483 49.8529 10.6333 47.9539M5.8094 44.0792C5.4384 43.6812 5.0814 43.2702 4.7414 42.8452" stroke-linecap="round" stroke-linejoin="round"/>
      <path fill="#FFFFFF" d="M21.6325,34.5733 C24.0015,34.5733 25.9045,36.4773 25.9045,38.8453 C25.9045,41.1713 24.0015,43.0333 21.6325,43.0333 C19.3065,43.0333 17.4455,41.1713 17.4455,38.8453 C17.4455,36.4773 19.3065,34.5733 21.6325,34.5733 M18.3575,16.6973 L24.8225,16.6973 C25.4165,16.6973 25.8935,17.1853 25.8795,17.7783 L25.5055,30.2133 C25.4925,30.7873 25.0225,31.2473 24.4475,31.2473 L18.7335,31.2473 C18.1585,31.2473 17.6895,30.7873 17.6765,30.2133 L17.3005,17.7783 C17.2875,17.1853 17.7645,16.6973 18.3575,16.6973"/>
      <path stroke="#FFFFFF" stroke-width="2" d="M45.1902 6.2127L42.8492 8.5537M37.1616 0L36.3046 3.198M48.2053 15.0982L51.4033 14.2412" stroke-linecap="round" stroke-linejoin="round"/>
    </g>
    <rect width="60" height="60"/>
  </g>
</svg>
