<svg fill="none" height="88" viewBox="0 0 88 88" width="88" xmlns="http://www.w3.org/2000/svg"><path d="m88 44c0 3.7125-5.9125 6.6-6.7375 10.0375-.9625 3.575 2.75 8.9375.9625 12.1s-8.3875 2.6125-10.8625 5.225c-2.475 2.475-2.0625 9.075-5.225 10.8625-3.025 1.7875-8.525-1.7875-12.1-.9625-3.4375.825-6.325 6.7375-10.0375 6.7375s-6.6-5.9125-10.0375-6.7375c-3.575-.9625-8.9375 2.75-12.1.9625s-2.6125-8.3875-5.225-10.8625c-2.3375-2.6125-8.9375-2.2-10.725-5.3625-1.7875-3.025 1.7875-8.525.9625-12.1-.9625-3.3-6.875-6.1875-6.875-9.9s5.9125-6.6 6.7375-10.0375c.9625-3.575-2.75-8.9375-.9625-12.1s8.3875-2.6125 10.8625-5.225c2.475-2.475 2.0625-9.075 5.225-10.8625 3.025-1.7875 8.525 1.7875 12.1.9625 3.4375-.825 6.325-6.7375 10.0375-6.7375s6.6 5.9125 10.0375 6.7375c3.575.9625 8.9375-2.75 12.1-.9625s2.6125 8.3875 5.225 10.8625c2.475 2.475 9.075 2.0625 10.8625 5.225 1.7875 3.025-1.7875 8.525-.9625 12.1.825 3.4375 6.7375 6.325 6.7375 10.0375z" fill="#ffcb00"/></svg>