<svg width="13" height="12" viewBox="0 0 13 12" fill="none" xmlns="http://www.w3.org/2000/svg">
<path d="M5.39011 0.540027C5.74547 -0.18001 6.77222 -0.180009 7.12758 0.540029L8.31117 2.93823C8.45228 3.22416 8.72505 3.42234 9.04059 3.46819L11.6872 3.85276C12.4818 3.96822 12.7991 4.94472 12.2241 5.50519L10.309 7.37193C10.0807 7.5945 9.97648 7.91516 10.0304 8.22943L10.4825 10.8653C10.6182 11.6567 9.78754 12.2602 9.07683 11.8866L6.70966 10.6421C6.42743 10.4937 6.09026 10.4937 5.80804 10.6421L3.44087 11.8866C2.73015 12.2602 1.89949 11.6567 2.03522 10.8653L2.48731 8.22943C2.54121 7.91516 2.43702 7.5945 2.2087 7.37193L0.293617 5.50519C-0.281367 4.94472 0.0359172 3.96822 0.830525 3.85276L3.4771 3.46819C3.79264 3.42234 4.06541 3.22416 4.20653 2.93823L5.39011 0.540027Z" fill="#FFFFFF"/>
</svg>
