<svg viewBox="0 0 171 108" xmlns="http://www.w3.org/2000/svg"><path d="m85.5 0-25.8 25.9v36.4l25.8 25.7 25.9-25.9v-36.2z" fill="#fa6ef6"/><path d="m85.5 0v18.3l12.9 12.9 12.9-5.3z" fill="#ffadfb"/><path d="m72.6 56.8-12.9 5.4 25.8 25.8v-18.2z" fill="#e655d4"/><path d="m72.6 31.2v25.7l12.9 12.9 12.9-12.9v-25.7l-12.9-12.9z" fill="#ffcff9"/><path d="m98.5 31.2v.1l-25.8 25.6h-.1v-7l22.3-22.3zm0 9.7v7.1l-17.4 17.4-3.5-3.7z" fill="#fff"/><path d="m64.2 17.1-4.2 2c-.5.3-1.3 0-1.6-.5-.1-.3-.1-.7 0-1l2-4.2c.2-.3.2-.7 0-1l-2-4.2c-.3-.6 0-1.3.5-1.6.3-.1.6-.1.9 0l4.2 2c.3.2.7.2 1 0l4.2-2c.6-.3 1.3 0 1.6.5.2.3.2.6.1.9l-2 4.2c-.2.3-.2.7 0 1l2 4.2c.3.5 0 1.3-.5 1.6-.3.1-.7.1-1 0l-4.2-2c-.2-.1-.6-.1-1 .1z" fill="#ffcff9"/><path d="m131.1 39.2c3.2-1.4 6.9.2 8.1 3.3l10.5 25.6-11.6 4.8-10.5-25.4c-1.3-3.3.3-6.9 3.5-8.3zm9.3-23.4c3.2-1.4 6.9.2 8.1 3.3l11.6 27.8-11.6 4.8-11.4-27.7c-1.4-3.2.2-6.9 3.3-8.2z" fill="#aec7ff"/><path d="m132.6 26.4c3.2-1.4 6.9.2 8.1 3.3l10.6 25.6-11.6 4.8-10.5-25.5c-1.3-3.2.2-6.9 3.4-8.2z" fill="#aec7ff"/><path d="m145.6 57.7-5.8 2.4-8.7-20.9c-.5.2-1 .5-1.5.8l8.6 20.7c.3.6.8 1 1.6 1 .2 0 .4 0 .6-.1l5.8-2.4zm4.2-6.4-1.1.5-10.4-25.1c-.6-.4-1.4-.6-2.2-.8l11.1 26.6c.3.6.8 1 1.6 1 .2 0 .4 0 .6-.1l1.1-.5c-.1 0-.7-1.6-.7-1.6z" fill="#7196ff"/><g fill="#ebf0f7"><path d="m155.3 85.2h-38.7v11.9h38.7zm4-39.9c2.4 2.4 2.4 6.4 0 8.9l-17.9 17.9-8.9-8.9 17.9-17.9c2.5-2.4 6.5-2.4 8.9 0z"/><path d="m164.7 18.4c3.4 0 6.3 2.8 6.3 6.3v22.9h-12.5v-23c-.1-3.4 2.6-6.2 6.2-6.2zm-48.1 78.6v-11.8c0-11.2 6.8-21.3 17.1-25.6l12.1-5 9.5 23v19.4z"/><path d="m167.1 65.3-6.9 11.7c-3.1 5.4-4.8 11.5-4.8 17.7v2.3h-38.7l41.7-41.9v-17.4h12.5v13.3c-.1 5-1.3 9.9-3.8 14.3z"/></g><path d="m160.4 44.2c-3.1-3.1-8-3.1-11.2 0l1.1 1.1c2.5-2.5 6.5-2.4 8.9 0 2.5 2.5 2.4 6.5 0 8.9l-10.5 10.5c-.1.1-.2.3-.2.5v9.1c0 .4.3.8.7.8s.8-.3.8-.7v-8.8l10.2-10.2c3.3-3.1 3.3-8.2.2-11.2zm-43.8 45.5v3.1l32.4 4.2h6.3v-2.3z" fill="#aec7ff"/><path d="m116.6 91.5 38.8 5c3.1.4 5.4 3.3 5 6.5-.4 3.1-3.3 5.4-6.5 5l-38.8-5c-3.1-.4-5.4-3.3-5-6.5s3.3-5.4 6.5-5z" fill="#ebf0f7"/><path d="m32.8 72.9-11.6-4.8 10.5-25.5c1.4-3.2 5-4.7 8.1-3.3 3.2 1.4 4.7 5 3.3 8.1zm-10.3-21.1-11.5-4.8 11.6-27.9c1.4-3.2 5-4.7 8.1-3.3 3.2 1.4 4.7 5 3.3 8.1z" fill="#aec7ff"/><path d="m31.3 60.1-11.6-4.8 10.5-25.6c1.4-3.2 5-4.7 8.1-3.3 3.2 1.4 4.7 5 3.3 8.1z" fill="#aec7ff"/><path d="m41.4 40.1c-.4-.3-.9-.6-1.5-.8l-8.7 20.9-5.8-2.4-.6 1.6 5.8 2.4c.2.1.4.1.6.1.7 0 1.3-.4 1.6-1 .1-.2 8.6-20.8 8.6-20.8zm-8.5-13.3-10.5 25.1-1.1-.5-.6 1.6 1.1.5c.2.1.4.1.6.1.7 0 1.3-.4 1.6-1l10.9-26.5c-.7 0-1.4.3-2 .7z" fill="#7196ff"/><path d="m54.4 85.1h-38.7v11.9h38.7zm-15.9-21.9-8.9 8.9-17.8-17.9c-2.4-2.4-2.4-6.4 0-8.9 2.4-2.4 6.4-2.4 8.9 0z" fill="#ebf0f7"/><path d="m12.7 47.6h-12.6v-23c0-3.4 2.8-6.3 6.3-6.3s6.3 2.8 6.3 6.3c-.1 0 0 23 0 23zm41.7 49.4v-11.8c0-11.2-6.8-21.3-17.1-25.6l-12.1-5-9.5 23v19.4z" fill="#ebf0f7"/><path d="m4 65.3 6.8 11.7c3.1 5.4 4.8 11.5 4.8 17.7v2.3h38.7l-41.7-41.9v-17.4h-12.6v13.3c.1 5 1.5 9.9 4 14.3z" fill="#ebf0f7"/><path d="m10.6 44.2c3-3.1 8-3.1 11.2 0l-1.1 1.1c-2.5-2.5-6.5-2.4-8.9 0-2.5 2.5-2.4 6.5 0 8.9l10.5 10.5c.1.1.2.3.2.5v9.1c0 .4-.3.8-.7.8s-.8-.2-.8-.6v-8.8l-10.3-10.2c-3.2-3.2-3.2-8.3-.1-11.3zm43.8 45.5v3.1l-32.4 4.2h-6.3v-2.3z" fill="#aec7ff"/><path d="m56 102.9-38.8 5c-3.1.4-6.1-1.9-6.5-5s1.9-6.1 5-6.5l38.8-5c3.1-.4 6 1.9 6.5 5 .4 3.3-1.9 6.2-5 6.5z" fill="#ebf0f7"/></svg>