<svg width="182" height="108" viewBox="0 0 182 108" fill="none" xmlns="http://www.w3.org/2000/svg">
<rect width="182" height="108" rx="8" fill="#36393F"/>
<path d="M39.1075 36.8V39.952H35.2995V48H31.2995V39.952H27.4115V36.8H39.1075ZM49.3921 44.128L52.7041 48H48.0001L44.3841 43.408V48H40.3841V36.8H48.2721C50.9281 36.8 52.5921 38.304 52.5921 40.576C52.5921 42.576 51.3281 43.968 49.3921 44.128ZM44.3841 39.616V42.224H46.6401C47.8241 42.224 48.4481 41.76 48.4481 40.88C48.4481 40.048 47.8721 39.616 46.7521 39.616H44.3841ZM59.444 40.912L61.988 36.8H66.484L61.62 44.272V48H57.3V44.272L52.468 36.8H56.948L59.444 40.912ZM80.337 43.488H82.097V45.792H80.337V48H76.897V45.792H70.993V43.184L75.409 37.344H80.337V43.488ZM76.897 39.728L74.193 43.488H76.897V39.728ZM85.22 48.32C83.924 48.32 82.964 47.488 82.964 46.448C82.964 45.408 83.924 44.592 85.22 44.592C86.516 44.592 87.46 45.408 87.46 46.448C87.46 47.504 86.516 48.32 85.22 48.32ZM93.8899 37.04C96.8979 37.04 99.2979 38.64 99.2979 42.32C99.2979 46.24 96.7539 48.368 93.1699 48.368C91.5379 48.368 90.0019 47.936 89.0739 47.312V44.672C89.8419 45.296 91.0899 45.744 92.4659 45.744C94.5939 45.744 95.6499 44.624 95.6499 42.768V42.592C95.2019 43.824 94.0499 44.576 92.4339 44.576C90.1779 44.576 88.5299 43.296 88.5299 41.136C88.5299 38.768 90.5779 37.04 93.8899 37.04ZM93.8259 42.688C94.8179 42.688 95.5219 42.08 95.5219 41.168C95.5219 40.288 94.8179 39.632 93.8579 39.632C92.8339 39.632 92.1619 40.304 92.1619 41.2C92.1619 42.08 92.8179 42.688 93.8259 42.688ZM105.874 37.04C108.882 37.04 111.282 38.64 111.282 42.32C111.282 46.24 108.738 48.368 105.154 48.368C103.522 48.368 101.986 47.936 101.058 47.312V44.672C101.826 45.296 103.074 45.744 104.45 45.744C106.578 45.744 107.634 44.624 107.634 42.768V42.592C107.186 43.824 106.034 44.576 104.418 44.576C102.162 44.576 100.514 43.296 100.514 41.136C100.514 38.768 102.562 37.04 105.874 37.04ZM105.81 42.688C106.802 42.688 107.506 42.08 107.506 41.168C107.506 40.288 106.802 39.632 105.842 39.632C104.818 39.632 104.146 40.304 104.146 41.2C104.146 42.08 104.802 42.688 105.81 42.688ZM118.03 49.92H116.526L121.95 35.2H123.454L118.03 49.92ZM139.208 38.528C141.192 38.528 142.344 39.888 142.344 42.256V48H140.824V42.512C140.824 40.832 140.104 39.92 138.76 39.92C137.272 39.92 136.488 41.008 136.488 42.528V48H134.984V42.224C134.984 40.832 134.232 39.92 132.92 39.92C131.48 39.92 130.616 41.136 130.616 42.88V48H129.112V38.88H130.616V40.624C131.16 39.184 132.104 38.528 133.464 38.528C134.792 38.528 135.784 39.28 136.232 40.528C136.76 39.2 137.752 38.528 139.208 38.528ZM149.225 48.24C146.329 48.24 144.377 46.096 144.377 43.376C144.377 40.64 146.329 38.528 149.225 38.528C152.153 38.528 154.073 40.64 154.073 43.376C154.073 46.096 152.153 48.24 149.225 48.24ZM149.225 46.816C151.257 46.816 152.505 45.344 152.505 43.376C152.505 41.392 151.257 39.952 149.225 39.952C147.193 39.952 145.945 41.392 145.945 43.376C145.945 45.344 147.193 46.816 149.225 46.816Z" fill="white"/>
<path d="M45.93 61.2V63.958H42.598V71H39.098V63.958H35.696V61.2H45.93ZM54.929 67.612L57.827 71H53.711L50.547 66.982V71H47.047V61.2H53.949C56.273 61.2 57.729 62.516 57.729 64.504C57.729 66.254 56.623 67.472 54.929 67.612ZM50.547 63.664V65.946H52.521C53.557 65.946 54.103 65.54 54.103 64.77C54.103 64.042 53.599 63.664 52.619 63.664H50.547ZM63.7244 64.798L65.9504 61.2H69.8844L65.6284 67.738V71H61.8484V67.738L57.6204 61.2H61.5404L63.7244 64.798ZM80.3118 65.988C81.7398 66.282 82.4818 67.164 82.4818 68.354C82.4818 70.076 80.6898 71.252 77.9038 71.252C76.2938 71.252 75.0618 70.888 74.1938 70.398V68.41C74.7118 68.732 75.7338 69.082 77.1338 69.082C78.3518 69.082 78.9678 68.69 78.9678 68.074C78.9678 67.626 78.6458 67.276 77.6238 67.276H74.9498L75.3698 65.414H77.4698C78.5058 65.414 78.8418 65.092 78.8418 64.616C78.8418 64.112 78.3238 63.776 77.1058 63.776C75.7618 63.776 74.7258 64.154 74.2078 64.49V62.18C75.1738 61.732 76.5178 61.438 77.9598 61.438C80.7178 61.438 82.2018 62.544 82.2018 64C82.2018 64.994 81.5718 65.75 80.3118 65.988ZM85.3898 71.28C84.2558 71.28 83.4158 70.552 83.4158 69.642C83.4158 68.732 84.2558 68.018 85.3898 68.018C86.5238 68.018 87.3498 68.732 87.3498 69.642C87.3498 70.566 86.5238 71.28 85.3898 71.28ZM96.2519 67.052H97.7919V69.068H96.2519V71H93.2419V69.068H88.0759V66.786L91.9399 61.676H96.2519V67.052ZM93.2419 63.762L90.8759 67.052H93.2419V63.762ZM103.367 61.41C105.999 61.41 108.099 62.81 108.099 66.03C108.099 69.46 105.873 71.322 102.737 71.322C101.309 71.322 99.9645 70.944 99.1525 70.398V68.088C99.8245 68.634 100.917 69.026 102.121 69.026C103.983 69.026 104.907 68.046 104.907 66.422V66.268C104.515 67.346 103.507 68.004 102.093 68.004C100.119 68.004 98.6765 66.884 98.6765 64.994C98.6765 62.922 100.469 61.41 103.367 61.41ZM103.311 66.352C104.179 66.352 104.795 65.82 104.795 65.022C104.795 64.252 104.179 63.678 103.339 63.678C102.443 63.678 101.855 64.266 101.855 65.05C101.855 65.82 102.429 66.352 103.311 66.352ZM114.003 72.68H112.687L117.433 59.8H118.749L114.003 72.68ZM132.533 62.712C134.269 62.712 135.277 63.902 135.277 65.974V71H133.947V66.198C133.947 64.728 133.317 63.93 132.141 63.93C130.839 63.93 130.153 64.882 130.153 66.212V71H128.837V65.946C128.837 64.728 128.179 63.93 127.031 63.93C125.771 63.93 125.015 64.994 125.015 66.52V71H123.699V63.02H125.015V64.546C125.491 63.286 126.317 62.712 127.507 62.712C128.669 62.712 129.537 63.37 129.929 64.462C130.391 63.3 131.259 62.712 132.533 62.712ZM141.298 71.21C138.764 71.21 137.056 69.334 137.056 66.954C137.056 64.56 138.764 62.712 141.298 62.712C143.86 62.712 145.54 64.56 145.54 66.954C145.54 69.334 143.86 71.21 141.298 71.21ZM141.298 69.964C143.076 69.964 144.168 68.676 144.168 66.954C144.168 65.218 143.076 63.958 141.298 63.958C139.52 63.958 138.428 65.218 138.428 66.954C138.428 68.676 139.52 69.964 141.298 69.964Z" fill="#A3A6AA"/>
<line x1="35.5" y1="65.5" x2="146.5" y2="65.5" stroke="#A3A6AA"/>
</svg>
