<svg height="165" viewBox="0 0 280 165" width="280" xmlns="http://www.w3.org/2000/svg" xmlns:xlink="http://www.w3.org/1999/xlink"><mask id="a" fill="#fff"><path d="m0 108.99v-108.75h259.682v108.75z" fill="#fff" fill-rule="evenodd"/></mask><mask id="b" fill="#fff"><path d="m.577 144h197.913v-143.422h-197.912z" fill="#fff" fill-rule="evenodd"/></mask><g fill="none" fill-rule="evenodd"><path d="m32.352 108.99h172.954c30.03 0 54.376-24.344 54.376-54.374s-24.346-54.376-54.376-54.376h-84.566c-12.162 0-22.022 9.86-22.022 22.023s-9.86 22.022-22.022 22.022h-44.344c-17.867 0-32.352 14.485-32.352 32.353s14.484 32.352 32.35 32.352" fill="#f7f7f8" mask="url(#a)" opacity=".9" transform="translate(10 34.423)"/><path d="m139.682 145.423-1-84c0-2.826 1.31-5.35 3.354-7h-13.572c-3.86 0-7 3.14-7 7v41.04h4.274c2.756 0 5 2.243 5 5v41.96c0 1.13-.39 2.162-1.026 3h15.327c-2.05-1.65-5.36-4.174-5.36-7" fill="#fff"/><path d="m201.664 146.417c0 .553-.448 1-1 1h-24c-.552 0-1-.447-1-1v-6c0-.553.448-1 1-1h24c.552 0 1 .447 1 1zm19.977-91.994h-73.95c-3.86 0-7 3.14-7 7v84c0 3.86 3.14 7 7 7h73.96c3.86 0 7-3.14 7-7v-84c0-3.86-3.14-7-7-7z" fill="#f7f7f8"/><path d="m214.738 67.17h-2.002c-7.305 0-13.248 5.94-13.248 13.246 0 7.305 5.943 13.247 13.248 13.247h1.977c-5.246-2.99-8.44-8.955-7.58-15.296.664-4.898 3.606-8.927 7.605-11.198" fill="#fff"/><path d="m224.02 67.29c-.6-.083-1.197-.122-1.788-.122-6.52 0-12.218 4.83-13.118 11.47-.936 6.9 3.657 13.292 10.363 14.72l1.332-9.82c.07-.548.58-.93 1.12-.857.54.08.93.58.85 1.13l-1.34 9.82c3.16.2 6.26-.73 8.8-2.67 2.81-2.14 4.63-5.25 5.1-8.76.48-3.5-.44-6.98-2.59-9.8-2.15-2.81-5.26-4.63-8.76-5.1" fill="#dcddde"/><path d="m167.7 93.663h1.972c-1.172-.67-2.268-1.486-3.248-2.466-2.88-2.88-4.466-6.708-4.466-10.78 0-4.074 1.586-7.902 4.466-10.782.992-.993 2.096-1.805 3.262-2.466h-1.986c-7.306 0-13.248 5.94-13.248 13.24s5.942 13.24 13.248 13.24" fill="#fff"/><path d="m186.572 71.05c-2.583-2.583-5.975-3.874-9.367-3.874-3.08 0-6.15 1.075-8.624 3.202l7.01 7.008c.39.39.39 1.023 0 1.414-.19.195-.45.293-.7.293s-.51-.098-.7-.293l-7.01-7.01c-2.07 2.4-3.2 5.423-3.2 8.626 0 3.54 1.38 6.865 3.88 9.367 2.5 2.497 5.82 3.875 9.35 3.88h.02c3.54 0 6.86-1.38 9.37-3.88 2.5-2.502 3.88-5.828 3.88-9.367 0-3.54-1.38-6.865-3.88-9.367" fill="#dcddde"/><path d="m199.488 117.446c0 7.305 5.942 13.248 13.247 13.248h1.974c-1.18-.67-2.27-1.487-3.25-2.467-2.88-2.88-4.47-6.708-4.47-10.78 0-4.073 1.58-7.902 4.46-10.782.99-.993 2.09-1.805 3.26-2.466h-1.99c-7.31 0-13.25 5.94-13.25 13.24" fill="#fff"/><path d="m231.608 126.813c2.502-2.502 3.88-5.828 3.88-9.367 0-3.202-1.138-6.225-3.207-8.626l-7.01 7.01c-.19.195-.45.293-.7.293s-.51-.098-.7-.293c-.39-.39-.39-1.024 0-1.414l7.01-7.01c-2.47-2.126-5.54-3.2-8.62-3.2-3.39 0-6.78 1.29-9.36 3.873-2.5 2.5-3.88 5.82-3.88 9.36s1.38 6.86 3.88 9.36c2.51 2.5 5.83 3.88 9.37 3.88s6.87-1.38 9.37-3.88" fill="#dcddde"/><path d="m166.424 128.227c-2.88-2.88-4.466-6.708-4.466-10.78 0-4.074 1.586-7.903 4.466-10.782.993-.994 2.096-1.805 3.262-2.466h-1.986c-7.305 0-13.248 5.94-13.248 13.24s5.943 13.25 13.247 13.25h1.97c-1.18-.67-2.27-1.49-3.25-2.47" fill="#fff"/><path d="m177.205 104.205c-3.393 0-6.784 1.29-9.367 3.873-2.502 2.502-3.88 5.83-3.88 9.367 0 3.54 1.378 6.865 3.88 9.367s5.828 3.88 9.367 3.88c3.203 0 6.224-1.138 8.625-3.207l-7.01-7.01c-.39-.39-.39-1.022 0-1.413.392-.39 1.025-.39 1.415 0l7.01 7.01c2.07-2.402 3.207-5.424 3.207-8.627 0-3.538-1.378-6.865-3.88-9.367-2.582-2.582-5.975-3.873-9.367-3.873m-51.468 48.218c1.654 0 3-1.346 3-3v-41.96c0-1.654-1.346-3-3-3h-5.234c.634.838 1.025 1.87 1.025 3v41.96c0 1.13-.39 2.162-1.025 3z" fill="#dcddde"/><path d="m66.582 122.446h8c.55 0 1-.448 1-1v-8c0-.552-.45-1-1-1h-8c-.55 0-1 .448-1 1v8c0 .552.45 1 1 1m34.027 0h8c.55 0 1-.448 1-1v-8c0-.552-.45-1-1-1h-8c-.56 0-1 .448-1 1v8c0 .552.44 1 1 1" fill="#f7f7f8"/><path d="m83.596 122.446h8c.55 0 1-.448 1-1v-8c0-.552-.45-1-1-1h-8c-.55 0-1 .448-1 1v8c0 .552.45 1 1 1" fill="#fff"/><path d="m49.568 122.446h8c.55 0 1-.448 1-1v-8c0-.552-.45-1-1-1h-8c-.55 0-1 .448-1 1v8c0 .552.45 1 1 1" fill="#dcddde"/><path d="m53.568 131.857c-.827 0-1.5.673-1.5 1.5s.673 1.5 1.5 1.5 1.5-.673 1.5-1.5-.673-1.5-1.5-1.5m6 12.56c.827 0 1.5-.673 1.5-1.5s-.673-1.5-1.5-1.5-1.5.673-1.5 1.5.673 1.5 1.5 1.5m42.686-12.56c-.827 0-1.5.673-1.5 1.5s.673 1.5 1.5 1.5 1.5-.673 1.5-1.5-.673-1.5-1.5-1.5m-12.493 9.56c-.82 0-1.5.673-1.5 1.5s.68 1.5 1.5 1.5c.83 0 1.5-.673 1.5-1.5s-.67-1.5-1.5-1.5" fill="#f7f7f8"/><g fill="#b9bbbe"><path d="m167.7 67.17h1.986c-1.166.66-2.27 1.472-3.262 2.465-2.88 2.88-4.466 6.708-4.466 10.78 0 4.074 1.586 7.902 4.466 10.782.98.98 2.076 1.797 3.248 2.466h-1.972c-7.306 0-13.248-5.942-13.248-13.247s5.942-13.246 13.248-13.246m9.505.006c3.392 0 6.785 1.29 9.367 3.873 3.252 3.25 4.605 7.89 3.502 12.59-.292 1.24-.78 2.43-1.443 3.52-2.53 4.14-6.79 6.5-11.42 6.5h-.02c-2.11 0-4.21-.44-6.07-1.45-4.55-2.47-7.15-6.94-7.15-11.8 0-2.34.61-4.59 1.74-6.56.65-1.13 2.22-1.32 3.14-.39l5.34 5.33c.2.19.45.29.71.29s.51-.1.71-.3c.39-.39.39-1.03 0-1.42l-5.33-5.33c-.92-.93-.73-2.5.41-3.15 2.02-1.16 4.28-1.74 6.54-1.74m-9.51 28.49h9.51c4.08 0 7.9-1.59 10.78-4.47s4.47-6.71 4.47-10.78-1.58-7.9-4.46-10.78c-3.48-3.48-8.24-4.91-12.78-4.31-.15-.09-7.5-.16-7.5-.16-8.41 0-15.25 6.84-15.25 15.24 0 8.41 6.84 15.25 15.25 15.25m-75.1-29.13c.34.72.7 1.42 1.09 2.1.27.47.88.61 1.35.333l.02-.01c.47-.277.63-.874.36-1.35-.35-.624-.68-1.267-.98-1.92-.2-.44-.69-.666-1.16-.537l-.04.013c-.58.16-.86.814-.61 1.363m52.51-20.41c-3.91-12.62-15.87-20.86-29.26-19.82-13.33 1.03-24.22 11.58-25.8 24.85-.45 3.83-.1 7.51.87 10.93.15.52.7.82 1.22.68h.02c.54-.14.84-.7.69-1.23-.89-3.14-1.21-6.51-.81-10.02 1.48-12.86 12.38-22.9 25.32-23.27 11.9-.34 22.354 7.18 25.86 18.5.16.53.72.82 1.25.66.525-.16.82-.72.66-1.25"/><path d="m194.612 113.858c-3.15 5.07-8.908 7.427-14.722 6.003-1.186-.29-2.328-.76-3.37-1.39-4.16-2.53-6.526-6.8-6.526-11.44 0-3.53 1.378-6.86 3.88-9.36 2.583-2.58 5.975-3.87 9.367-3.87 2.27 0 4.53.58 6.55 1.74 1.14.65 1.33 2.22.4 3.15l-5.32 5.33c-.39.39-.39 1.02 0 1.42.2.2.45.29.71.29s.51-.09.71-.29l5.34-5.33c.92-.92 2.49-.74 3.13.38 1.69 2.93 2.22 6.45 1.32 10-.3 1.2-.79 2.36-1.44 3.41zm-18.89-20.082c-1.166.66-2.27 1.473-3.262 2.466-2.88 2.88-4.466 6.71-4.466 10.78 0 4.074 1.586 7.902 4.466 10.782.98.98 2.077 1.798 3.25 2.467h-1.974c-7.305 0-13.248-5.94-13.248-13.24s5.943-13.24 13.248-13.24h1.986zm13.92 39.224c0 3.865-3.135 7-7 7h-73.96c-3.867 0-7-3.135-7-7v-82c0-3.866 3.133-7 7-7h73.96c3.865 0 7 3.134 7 7v1.067c0 1.853-1.673 3.31-3.492 2.958-.285-.054-.57-.102-.86-.14-1.383-.188-2.743-.167-4.064.01-.147-.086-7.49-.148-7.49-.148-8.662 0-15.66 7.26-15.228 16.015.404 8.19 7.47 14.48 15.67 14.48h9.01l.086.002c1.296 0 2.574-.17 3.81-.494 1.29-.34 2.557.587 2.557 1.918v3.856c0 1.264-1.15 2.214-2.39 1.96-2.85-.59-6.37-.708-6.51-.708h-6.55c-8.2 0-15.26 6.29-15.67 14.48-.43 8.755 6.57 16.015 15.23 16.015h9.51c.97 0 1.92-.09 2.84-.26 1.86-.35 3.56 1.15 3.56 3.04v7.949zm-88.992 4.055c.685 1.348-.246 2.944-1.76 2.944h-5.23c-1.24 0-2.134-1.11-1.965-2.34.03-.22.044-.44.044-.66v-41.959c0-2.763-2.24-5-5-5h-2.28c-1.11 0-2-.896-2-2v-37.04c0-3.866 3.13-7 7-7h9.42c1.51 0 2.44 1.596 1.76 2.944-.62 1.22-.97 2.598-.97 4.057v82c0 1.46.35 2.84.97 4.06zm-10.913 1.945c0 1.657-1.343 3-3 3h-1.41c-1.612 0-2.81-1.353-2.798-2.966v-42.027c-.02-1.612 1.18-2.965 2.79-2.965h1.41c1.65 0 3 1.343 3 3v41.958zm-9.208 0c0 1.655-1.35 3-3 3h-71.959c-1.654 0-3-1.345-3-3v-41.96c0-1.654 1.346-3 3-3h71.96c1.653 0 3 1.346 3 3v41.96zm12.29-97h-3.36c-4.98 0-9 4.03-9 9v11.88l-1.32.066c-11.16 0-20.1-9.7-18.83-21.114.99-8.848 8.26-15.924 17.13-16.698 3.23-.282 6.31.252 9.06 1.417 1.13.48 2.21 1.07 3.21 1.75 1.01.68 1.95 1.46 2.8 2.32 1.64 1.65 2.99 3.59 3.94 5.75 1.18 2.65-.75 5.64-3.65 5.64zm-17.5 43.425c-1.57 0-2.84-1.268-2.84-2.833v-.742c0-.126-.02-.247-.07-.36-.06-.167-.17-.303-.3-.42-.13-.122-.29-.22-.48-.26-4.72-.956-9.16-2.798-13.2-5.473-.1-.065-.21-.108-.32-.137-.04-.01-.07-.01-.11-.015-.06-.01-.11-.024-.17-.024-.02 0-.04.01-.05.01-.09.01-.17.03-.26.05-.04.01-.08.02-.12.04-.12.06-.23.13-.33.22l-.65.66c-1.04 1.04-2.72 1.04-3.76 0l-5.659-5.661c-1.04-1.04-1.04-2.72 0-3.76l.653-.65c.18-.18.283-.4.306-.64.02-.23-.03-.48-.17-.69-.34-.5-.66-1.01-.97-1.53-.62-1.03-1.18-2.09-1.69-3.17-.26-.54-.5-1.09-.73-1.64-.46-1.1-.86-2.22-1.21-3.37-.35-1.14-.65-2.3-.88-3.48-.05-.25-.18-.46-.37-.61s-.42-.24-.67-.24c-1.98 0-3.58-1.6-3.58-3.57v-6.18c0-1.98 1.6-3.58 3.58-3.58.25 0 .48-.09.67-.24.18-.15.32-.36.37-.61.24-1.18.53-2.34.88-3.48s.75-2.264 1.21-3.37c.23-.55.47-1.092.72-1.632.76-1.62 1.65-3.19 2.65-4.7.07-.104.114-.22.143-.335.03-.12.04-.24.025-.356-.02-.236-.12-.464-.3-.64l-.37-.37c-1.193-1.2-1.193-3.136 0-4.33l5.097-5.1c1.2-1.194 3.14-1.194 4.33 0l.37.37c.1.098.21.168.33.22.04.018.08.02.12.034.087.03.17.05.257.05.02 0 .03.01.05.01.055 0 .11-.01.164-.02.033 0 .07 0 .103-.01.11-.03.216-.07.315-.14 1.512-1 3.083-1.89 4.71-2.65 2.7-1.28 5.54-2.22 8.48-2.82.37-.074.66-.34.785-.68.04-.11.06-.232.06-.36 0-1.973 1.6-3.573 3.58-3.573h6.18c1.97 0 3.57 1.6 3.57 3.58 0 .204.07.39.175.56.15.234.38.42.672.48 2.36.475 4.643 1.175 6.85 2.09.83.34 1.64.73 2.44 1.13 1.33.67 2.64 1.415 3.9 2.25.094.07.2.11.31.14.033.01.07.01.104.01.06.01.11.02.17.02.016 0 .03-.01.048-.01.084 0 .17-.02.25-.05.04-.01.08-.01.12-.03.12-.05.23-.12.33-.21 1.4-1.4 3.67-1.4 5.07 0l4.35 4.357c1.4 1.4 1.4 3.67 0 5.07-.18.18-.28.403-.3.64-.02.12-.01.24.02.354.03.12.08.23.15.337.67 1.01 1.28 2.047 1.85 3.1.28.53.55 1.068.8 1.608.76 1.62 1.41 3.29 1.93 5 .35 1.14.645 2.3.884 3.48.073.37.34.66.68.79.11.04.23.064.36.064h1.24c1.28 0 2.33 1.04 2.33 2.33 0 1.285-1.05 2.33-2.33 2.33h-14.1c-2.22 0-4.2-1.45-4.79-3.59-2.495-9-10.85-15.58-20.684-15.35-10.81.26-19.83 8.99-20.41 19.79-.65 12.07 8.98 22.1 20.91 22.1l1.317-.07v5.35c-.43.02-.87.03-1.31.03-8.39 0-15.87-3.96-20.68-10.11-.3-.39-.84-.51-1.27-.27l-.01.01c-.51.3-.67.99-.3 1.46 5.178 6.63 13.23 10.9 22.277 10.9.44 0 .88-.01 1.32-.03v10.322c0 1.566-1.27 2.834-2.84 2.834h-2.3zm100.39-2.183h-1.98c-7.31 0-13.25-5.942-13.25-13.246 0-7.305 5.94-13.247 13.25-13.247h2c-4 2.27-6.94 6.3-7.61 11.19-.86 6.34 2.33 12.3 7.58 15.29zm18.07-21.27c2.14 2.816 3.06 6.297 2.58 9.803-.48 3.507-2.29 6.62-5.11 8.762-1.86 1.417-4.02 2.293-6.28 2.586-1.29.17-2.39-.967-2.21-2.26l1.01-7.476c.07-.547-.31-1.05-.86-1.126-.55-.07-1.05.31-1.13.86l-1.02 7.48c-.17 1.28-1.51 2.1-2.71 1.6-5.37-2.27-8.798-7.92-7.978-13.97.9-6.63 6.6-11.46 13.12-11.46.59 0 1.184.04 1.785.12 3.51.48 6.62 2.29 8.76 5.1zm3.27 38.506c-1.35-2.685-3.24-4.74-5.41-6.18v-11.588c.28-.186.56-.376.84-.583 3.24-2.467 5.32-6.048 5.87-10.084.55-4.037-.51-8.043-2.98-11.285-1.06-1.385-2.33-2.545-3.74-3.478v-6.28c0-4.97-4.03-9-9-9h-57.17c-1.6 0-2.9-1.295-2.9-2.893v-1.77c0-1.104-.9-2-2-2h-2.82c-1-4.44-2.74-8.64-5.19-12.503l2-1.997c.78-.78.78-2.048 0-2.83l-9.43-9.423c-.38-.375-.89-.586-1.42-.586s-1.04.21-1.42.586l-2 1.997c-3.86-2.45-8.06-4.19-12.5-5.18v-2.821c0-1.105-.9-2-2-2h-13.3c-1.11 0-2 .895-2 2v2.815c-4.44.99-8.64 2.734-12.5 5.188l-2-1.993c-.379-.38-.879-.59-1.419-.59-.53 0-1.04.21-1.42.585l-9.42 9.425c-.78.78-.78 2.04 0 2.83l1.99 1.99c-2.45 3.862-4.2 8.06-5.19 12.5h-2.81c-1.11 0-2 .897-2 2v13.33c0 1.105.89 2 2 2h2.81c.99 4.44 2.73 8.64 5.19 12.505l-1.99 1.995c-.78.78-.78 2.048 0 2.83l9.42 9.424c.39.39.91.586 1.42.586.52 0 1.03-.193 1.42-.584l2-1.996c3.865 2.45 8.065 4.19 12.505 5.19v2.81c0 1.1.9 2 2 2h5.67c1.28 0 2.31 1.03 2.31 2.31 0 1.27-1.03 2.31-2.31 2.31h-72.585c-2.76 0-5 2.24-5 5v41.96c0 2.76 2.24 5 5 5h177.07c4.973 0 9-4.03 9-9v-15.25c.85-.562 1.648-1.21 2.384-1.946 3.944-3.945 5.462-9.67 3.8-15.364-.197-.676-.456-1.335-.77-1.964z" mask="url(#b)" transform="translate(39 10.423)"/><path d="m167.7 130.694c-7.306 0-13.248-5.943-13.248-13.248s5.942-13.246 13.248-13.246h1.986c-1.166.66-2.27 1.472-3.262 2.465-2.88 2.88-4.466 6.71-4.466 10.78 0 4.074 1.586 7.902 4.466 10.782.98.98 2.077 1.798 3.25 2.467zm9.505-26.488c3.392 0 6.785 1.29 9.367 3.873 2.502 2.5 3.88 5.82 3.88 9.36 0 2.34-.607 4.58-1.742 6.56-.65 1.13-2.218 1.31-3.14.39l-5.335-5.34c-.39-.39-1.023-.39-1.414 0-.39.39-.39 1.02 0 1.41l5.34 5.33c.93.92.74 2.49-.39 3.14-1.97 1.13-4.22 1.74-6.56 1.74-4.62 0-8.88-2.35-11.42-6.49-.66-1.09-1.15-2.28-1.44-3.52-1.11-4.7.25-9.35 3.5-12.61 2.58-2.58 5.98-3.87 9.37-3.87zm10.78 24.02c2.88-2.88 4.467-6.707 4.467-10.78 0-4.072-1.586-7.9-4.466-10.78-3.483-3.485-8.244-4.91-12.787-4.312-.15-.09-7.5-.155-7.5-.155-8.41 0-15.25 6.84-15.25 15.24 0 8.41 6.84 15.25 15.24 15.25h9.5c4.07 0 7.9-1.59 10.78-4.47zm9.68 17.19h-18c-1.105 0-2-.895-2-2 0-1.104.895-2 2-2h18c1.103 0 2 .896 2 2 0 1.105-.897 2-2 2m3-6h-24c-.553 0-1 .448-1 1v6c0 .554.447 1 1 1h24c.55 0 1-.446 1-1v-6c0-.552-.45-1-1-1m-152.097-25.97c0-.552.45-1 1-1h8c.55 0 1 .448 1 1v8c0 .552-.45 1-1 1h-8c-.55 0-1-.448-1-1zm1 12h8c1.654 0 3-1.345 3-3v-9c0-1.654-1.346-3-3-3h-8c-1.654 0-3 1.346-3 3v9c0 1.655 1.346 3 3 3zm26.014-4c0 .552-.45 1-1 1h-8c-.55 0-1-.448-1-1v-8c0-.552.45-1 1-1h8c.55 0 1 .448 1 1zm-1-11h-8c-1.654 0-3 1.346-3 3v9c0 1.655 1.346 3 3 3h8c1.654 0 3-1.345 3-3v-9c0-1.654-1.346-3-3-3zm8.014 3c0-.552.45-1 1-1h8c.55 0 1 .448 1 1v8c0 .552-.45 1-1 1h-8c-.55 0-1-.448-1-1zm1 12h8c1.654 0 3-1.345 3-3v-9c0-1.654-1.346-3-3-3h-8c-1.654 0-3 1.346-3 3v9c0 1.655 1.346 3 3 3zm26.013-4c0 .552-.45 1-1 1h-8c-.56 0-1-.448-1-1v-8c0-.552.44-1 1-1h8c.55 0 1 .448 1 1zm-1-11h-8c-1.66 0-3 1.346-3 3v9c0 1.655 1.34 3 3 3h8c1.65 0 3-1.345 3-3v-9c0-1.654-1.35-3-3-3zm-55.05 24.41c-.83 0-1.5-.672-1.5-1.5 0-.826.67-1.5 1.5-1.5s1.5.674 1.5 1.5c0 .828-.68 1.5-1.5 1.5m22.99-2.5h-18.979c-.372 0-.717-.205-.88-.54-.57-1.157-1.75-1.96-3.125-1.96s-2.556.803-3.125 1.96c-.162.335-.51.54-.88.54h-1.47c-.55 0-1 .448-1 1 0 .554.45 1 1 1h1.473c.372 0 .717.206.88.54.57 1.158 1.75 1.96 3.126 1.96 1.37 0 2.55-.802 3.12-1.96.16-.334.51-.54.88-.54h18.99c.55 0 1-.446 1-1 0-.552-.45-1-1-1m-17 12.06c-.83 0-1.5-.672-1.5-1.5 0-.826.67-1.5 1.5-1.5s1.5.674 1.5 1.5c0 .828-.68 1.5-1.5 1.5m16.99-2.5h-12.009c-.898 0-1.692-.472-2.248-1.174-.638-.806-1.618-1.325-2.724-1.325s-2.086.52-2.724 1.325c-.556.702-1.35 1.175-2.247 1.175h-6.507c-.55 0-1 .447-1 1s.45 1 1 1h6.507c.897 0 1.69.472 2.247 1.175.638.806 1.618 1.325 2.724 1.325s2.086-.52 2.724-1.325c.556-.703 1.35-1.175 2.247-1.175h12.02c.55 0 1-.447 1-1s-.45-1-1-1m25.69-7.06c-.83 0-1.5-.673-1.5-1.5s.67-1.5 1.5-1.5c.82 0 1.5.673 1.5 1.5s-.68 1.5-1.5 1.5m8.33-2.5h-1.88c-1.48 0-2.97-.466-4.03-1.502-.63-.617-1.49-.998-2.43-.998-.95 0-1.81.38-2.43.998-1.06 1.036-2.55 1.502-4.03 1.502h-13.659c-.552 0-1 .447-1 1s.448 1 1 1h13.68c1.48 0 2.97.465 4.024 1.502.627.61 1.482.99 2.43.99s1.804-.38 2.43-1c1.054-1.04 2.545-1.51 4.023-1.51h1.885c.552 0 1-.45 1-1 0-.56-.448-1-1-1m-20.83 12.06c-.828 0-1.5-.68-1.5-1.5s.672-1.5 1.5-1.5c.826 0 1.5.67 1.5 1.5s-.674 1.5-1.5 1.5m20.83-2.5h-16.245c-.655 0-1.292-.31-1.64-.86-.617-.99-1.702-1.64-2.946-1.64-1.24 0-2.32.65-2.94 1.64-.35.55-.98.86-1.64.86h-3.06c-.55 0-1 .44-1 1 0 .55.45 1 1 1h3.06c.66 0 1.29.3 1.64.86.62.98 1.7 1.64 2.95 1.64s2.33-.66 2.95-1.64c.35-.56.99-.86 1.64-.86h16.24c.55 0 1-.45 1-1 0-.56-.45-1-1-1m82.86-114.75c.84 0 1.51.67 1.51 1.51 0 .55.45 1 1 1s1-.45 1-1c0-.84.68-1.51 1.51-1.51.55 0 1-.45 1-1 0-.56-.45-1-1-1-.83 0-1.51-.68-1.51-1.51 0-.56-.45-1-1-1s-1 .44-1 1c0 .83-.67 1.51-1.51 1.51-.55 0-1 .44-1 1 0 .55.45 1 1 1m-144.521 34.291c.257 0 .513-.095.708-.29l1.19-1.183c.39-.39.39-1.024 0-1.414s-1.022-.39-1.413 0l-1.18 1.183c-.39.39-.39 1.023 0 1.414.196.196.45.294.708.294m-5.92 5.916c.26 0 .51-.098.71-.293l1.185-1.18c.39-.39.39-1.024 0-1.414s-1.022-.39-1.412 0l-1.184 1.183c-.39.39-.39 1.02 0 1.412.2.196.45.294.71.294m6.39-.293c.195.19.45.29.707.29.25 0 .51-.1.7-.3.39-.39.39-1.03 0-1.42l-1.19-1.18c-.39-.39-1.02-.39-1.42 0-.39.39-.39 1.02 0 1.41l1.18 1.18zm-5.92-5.92c.196.19.45.29.71.29.256 0 .512-.1.71-.29.39-.39.39-1.03 0-1.42l-1.19-1.18c-.39-.39-1.02-.39-1.41 0s-.39 1.02 0 1.41l1.18 1.18zm22.088 23.671c.832 0 1.51.67 1.51 1.51 0 .83-.68 1.51-1.51 1.51-.834 0-1.51-.68-1.51-1.51 0-.84.676-1.51 1.51-1.51m0 5.02c1.934 0 3.51-1.58 3.51-3.51 0-1.94-1.577-3.51-3.51-3.51-1.937 0-3.51 1.57-3.51 3.51 0 1.93 1.573 3.51 3.51 3.51"/></g><path d="m0 0h280v165h-280z"/></g></svg>