<svg fill="none" height="24" viewBox="0 0 24 24" width="24" xmlns="http://www.w3.org/2000/svg"><path d="m10.6571 2v17.1875h10.0312l-2.25 2.8125h-13.56249l1.625-2.8438v-15.18745l-1.5-1.96875zm1.2187 3.75c3.9063.0625 7.0313 3.21875 7.0313 7.125 0 2-.8125 3.8125-2.1563 5.0938h2.125c1-1.4063 1.5938-3.0938 1.625-4.9688.0938-4.84375-3.7812-8.8125-8.625-8.90625h-.0312zm-6.59374 10.125c-.4375-.9062-.65625-1.9375-.65625-3s.25-2.0938.65625-3v-2.90625c-1.375 1.53125-2.25 3.53125-2.28125 5.75005-.03125 2.3124.84375 4.4374 2.28125 6.0312z" fill="#cea146"/></svg>