<svg fill="none" xmlns="http://www.w3.org/2000/svg" viewBox="0 0 186 162">
  <path d="m186 139.464-14.647 9.31-1.884 1.187-16.414 10.451-2.349 1.49-.139.093H36.27l-.047-.023-1.813-1.141L0 139.464l16.81-11.941 4.185-2.956 14.368-10.218 2.488-1.769 8.858-6.284 24.296 11.172 2 .931.233.093 8.532.024h2.302l60.008.093h2.139l9.974.023h.07l2.232-1.187 7.975-4.306 2.372-1.28 10.369-5.563 2.488 12.243.442 2.095 3.859 18.83Z" fill="#FFE55C"/>
  <path d="m73.005 118.399-36.782 43.573-1.813-1.141 36.595-43.363 2 .931Zm83.188.233-5.487 43.27 2.349-1.49 5.44-42.967-2.232 1.187h-.07ZM73.47 146.866c-2.209 1.792-5.022 3.282-8.37 4.469a1.07 1.07 0 0 0 .349 2.071.949.949 0 0 0 .372-.07c3.557-1.256 6.58-2.886 8.974-4.794a1.048 1.048 0 0 0 .163-1.49 1.07 1.07 0 0 0-1.488-.186Zm-17.763 6.68a53.987 53.987 0 0 1-7.254.489c-.79.023-1.604-.024-2.395-.047a1.045 1.045 0 0 0-1.116 1.001 1.07 1.07 0 0 0 1.023 1.117c.79.047 1.628.047 2.418.047h.07a55.04 55.04 0 0 0 7.556-.512 1.056 1.056 0 0 0 .895-1.199 1.057 1.057 0 0 0-1.197-.896Zm35.386-15.502c-3.627.326-7.16 1.164-9.904 2.398a1.069 1.069 0 0 0-.233 1.812c.19.154.43.237.675.236.15-.009.3-.04.441-.093 2.535-1.141 5.79-1.932 9.207-2.235a1.09 1.09 0 0 0 .977-1.163 1.071 1.071 0 0 0-1.163-.955ZM36.27 154.547a1.07 1.07 0 0 0 .302-2.095c-3.697-1.141-6.277-2.793-7.463-4.818a1.052 1.052 0 1 0-1.814 1.071c1.442 2.49 4.441 4.492 8.673 5.795l.302.047Zm-7.23-14.687c.174.108.375.164.58.163a1.001 1.001 0 0 0 .884-.489c2.464-3.794 3.673-6.797 3.673-9.241 0-.163-.023-.325-.023-.488a1.072 1.072 0 0 0-1.137-1.14 1.069 1.069 0 0 0-.979 1.279v.349c0 1.979-1.116 4.702-3.301 8.1a1.05 1.05 0 0 0 .302 1.467Zm-3.558-15.618h-.14c-1.454.011-2.907.12-4.347.326l-4.185 2.956c1.58-.396 5.184-1.164 8.532-1.164h.14a1.072 1.072 0 0 0 .653-1.759 1.066 1.066 0 0 0-.653-.359Zm75.748 14.338a1.089 1.089 0 0 0-1.255.814 1.071 1.071 0 0 0 .814 1.257c3.464.745 6.3 2.048 8.416 3.864.197.163.443.253.698.256a1.022 1.022 0 0 0 .813-.372 1.07 1.07 0 0 0-.116-1.49c-2.395-2.072-5.557-3.515-9.37-4.329Zm13.044 12.592a1.034 1.034 0 0 0-.702.403c-.085.11-.146.237-.181.371a1.028 1.028 0 0 0-.024.413c.075.672.114 1.348.116 2.025 0 2.188-.418 4.632-1.232 7.262a.929.929 0 0 0-.07.349h2.186a26.823 26.823 0 0 0 1.232-7.611 17.92 17.92 0 0 0-.14-2.281 1.065 1.065 0 0 0-1.185-.931Zm37.758-15.479a1.072 1.072 0 0 0-1.372-.605 180.852 180.852 0 0 0-6.278 2.537c-.93.419-1.906.792-2.859 1.117a1.07 1.07 0 0 0-.323 1.81c.186.162.424.255.671.262a.925.925 0 0 0 .349-.07c1-.349 2.023-.745 2.999-1.164a175.496 175.496 0 0 1 6.208-2.513 1.068 1.068 0 0 0 .605-1.374Zm-16.252-7.332c-2.558.769-5.673 1.094-9.416.955a1.09 1.09 0 0 0-1.116 1.024 1.07 1.07 0 0 0 1.023 1.094l1.79.046c3.162 0 5.975-.372 8.347-1.094a1.067 1.067 0 0 0 .564-1.285 1.071 1.071 0 0 0-1.192-.74Zm33.968 7.239c.237-.003.466-.085.651-.232a1.097 1.097 0 0 0 .186-1.49c-1.79-2.328-5.045-2.886-10.346-1.769a1.032 1.032 0 0 0-.671.457 1.036 1.036 0 0 0-.143.8 1.027 1.027 0 0 0 .839.831c.139.023.281.018.417-.017 4.301-.907 6.998-.581 8.207 1.001.101.132.231.239.381.311.149.073.313.11.479.108Zm.814 7.495a1.04 1.04 0 0 0-.791.161 1.05 1.05 0 0 0-.441.677l-.093.419a13.874 13.874 0 0 0-.233 2.397 10.983 10.983 0 0 0 .465 3.212l1.883-1.187a9.317 9.317 0 0 1-.232-2.025c0-.665.071-1.328.209-1.978l.093-.419a1.097 1.097 0 0 0-.86-1.257Zm-27.319-18.574c.162.071.335.111.512.116a1.067 1.067 0 0 0 .93-.558 13.214 13.214 0 0 0 1.534-5.47h-2.139a11.22 11.22 0 0 1-1.255 4.469 1.068 1.068 0 0 0 .418 1.443Zm-26.923 4.515c-4.906.699-5.418 3.259-5.418 4.33 0 1.07.698 2.7 2.023 4.027a1.086 1.086 0 0 0 1.174.218.986.986 0 0 0 .337-.242 1.037 1.037 0 0 0 .23-1.148 1.027 1.027 0 0 0-.23-.341c-.906-.908-1.418-1.793-1.418-2.514 0-1.536 2.511-2.072 3.604-2.235a1.067 1.067 0 0 0 .768-1.601 1.036 1.036 0 0 0-.28-.306 1.05 1.05 0 0 0-.79-.188Zm15.833 11.662a30.3 30.3 0 0 1-9.486-.722 1.04 1.04 0 0 0-.8.116 1.052 1.052 0 0 0-.479.652 1.08 1.08 0 0 0 .114.811c.144.244.379.421.653.493 2.476.585 5.013.874 7.557.861.86 0 1.743-.023 2.604-.093a1.07 1.07 0 0 0 .613-1.87 1.032 1.032 0 0 0-.776-.248Zm-82.956-21.437a30.93 30.93 0 0 1 3.208 2.304 112.7 112.7 0 0 0 4.604 3.608c.185.125.404.19.628.186a1.062 1.062 0 0 0 1.04-.796 1.046 1.046 0 0 0-.413-1.113 129.97 129.97 0 0 1-4.51-3.514 31.697 31.697 0 0 0-3.418-2.468 1.024 1.024 0 0 0-1.465.326 1.073 1.073 0 0 0 .326 1.467Zm-8.44-3.841a1.044 1.044 0 0 0 1.15-.89 1.049 1.049 0 0 0-.848-1.181 34.124 34.124 0 0 0-3.208-.769l-2.488 1.769c1.73.215 3.44.565 5.115 1.048l.28.023Zm40.478 8.519a1.047 1.047 0 0 0 .977-.675c.279-.698.558-1.373.814-2.095.255-.721.674-1.769 1.046-2.653H81.77l-.72 1.908c-.28.675-.535 1.374-.814 2.049a1.043 1.043 0 0 0 .252 1.153c.102.096.221.171.352.22a.767.767 0 0 0 .395.093Zm-6.16 5.726c-2.117.954-4.953.559-8.58-1.141a1.078 1.078 0 0 0-.853-.091 1.08 1.08 0 0 0-.646.566 1.07 1.07 0 0 0 .592 1.457c2.65 1.234 4.906 1.839 6.929 1.839a8.346 8.346 0 0 0 3.44-.698 1.094 1.094 0 0 0 .535-1.42 1.069 1.069 0 0 0-1.418-.512Zm106.624-11.126c-2.837.931-5.278 1.443-7.254 1.513a1.07 1.07 0 0 0 .046 2.118h.047c2.092-.07 4.65-.605 7.602-1.536l-.441-2.095Zm-14.229-1.559h.093a1.073 1.073 0 0 0 .953-1.164c-.023-.28-.023-.582-.023-.861.012-1.041.129-2.078.348-3.096l-2.371 1.28a15.983 15.983 0 0 0-.116 1.816c0 .349.023.698.046 1.07a1.091 1.091 0 0 0 1.07.955Z" fill="#FFC419"/>
  <path d="m105.88 89.188-7.114 27.256a3.095 3.095 0 0 1-2 2.118c-3.51 1.164-11.439 4.073-8.742 5.703 3.442 2.048 13.067-.955 14.439-3.445 1.72-3.096 11.253-32.074 11.253-32.074l-7.836.442Z" fill="url(#a)"/>
  <path d="m124.922 89.281 8.812 33.703a3.8 3.8 0 0 0 2.464 2.631c4.325 1.443 14.136 5.027 10.812 7.029-4.255 2.56-16.136-1.187-17.833-4.236-2.139-3.841-13.927-39.662-13.927-39.662l9.672.535Z" fill="url(#b)"/>
  <path d="M103.974 96.473c.488 1.746 3.883 2.607 6.649 1.537l3.069-9.171-7.835.442-1.883 7.192ZM126.991 97.195l-2.069-7.914-9.672-.535s1.302 3.98 3.116 9.403c2.232 1.769 7.323.07 8.625-.954Z" fill="#CF1581"/>
  <path d="M48.29 25.086s10.556 4.54 19.39.908c2.419-.977 4.488 1.979 2.744 3.887-1.744 1.909-4.813 3.864-9.16 4.143L48.29 25.086Z" fill="#3442D7"/>
  <path d="M84.49 28.461c-8.486 3.422-23.83 5.796-32.177-1.233C36.177 13.61 5.486 22.666 8.486 48.898c3 26.231 35.317 24.23 35.317 24.23l17.833-16.992c-9.324 1.7-26.482-18.062-5.929-13.616 20.018 4.352 28.481-3.934 31.992-10.498 1.14-2.118-1-4.445-3.209-3.56Z" fill="url(#c)"/>
  <path d="M25.598 45.965s3.697-5.982 12.741-2.538c10.881 4.144 18.46 2.188 23.227-.675 1.906-1.117 1.023-4.026-1.186-3.933-3.86.116-8.905-1.024-14.415-5.61-5.51-4.585-10.532-4.399-14.345-3.282" fill="#5865F0"/>
  <path d="M25.598 47.035a1.07 1.07 0 0 1-.907-1.63 9.234 9.234 0 0 1 3.395-2.955c2.07-1.07 5.58-1.955 10.625-.023 10.788 4.096 18.089 1.955 22.32-.582a1 1 0 0 0 .465-1.21 1.071 1.071 0 0 0-1.07-.769c-5.184.187-10.276-1.792-15.135-5.842-4.115-3.421-8.626-4.469-13.369-3.072a1.068 1.068 0 0 1-1.254-.743 1.072 1.072 0 0 1 .65-1.306c5.394-1.582 10.695-.372 15.345 3.492s9.044 5.516 13.694 5.353a3.184 3.184 0 0 1 3.165 2.273 3.193 3.193 0 0 1-1.398 3.64c-4.65 2.77-12.602 5.167-24.18.744-8.045-3.049-11.323 1.909-11.462 2.118a1.023 1.023 0 0 1-.884.512Z" fill="#0C1AAB"/>
  <path d="M49.174 65.284c-.186.651-.28 1.047-.28 1.047-14.438 11.056-.836 30.608-.836 30.608 2.673-3.189 5.928-6.238 9.928-8.519 2.208-19.459-3.837-23.16-8.812-23.136Z" fill="#FF78B7"/>
  <path d="M159.309.018c-12.369.489-16.973 11.894-14.438 20.39 2.673 8.891 6.649 13.383 7.44 17.969.79 4.585-2.372 8.868-6.906 9.1-7.509.373-18.809-7.238-29.411-5.795C100.3 43.8 104.95 54.437 79.492 50.178c-23.18-3.864-29.133 10.963-30.318 15.106 4.975-.024 11.02 3.677 8.812 23.136 8.718-5.004 21.018-6.448 38.478 1.722 25.482 11.894 49.267-8.495 49.267-8.495l7.207-21.693s31.597-9.73 25.482-43.363C176.723 7.234 169.934-.424 159.309.018Z" fill="url(#d)"/>
  <path d="M168.283 62.468a2.72 2.72 0 0 0 .15-3.163 2.72 2.72 0 0 0-2.94-1.167c-6.44 1.63-17.507 2.63-29.109-4.562-17.832-11.056-37.688 2.84-33.131 19.552 5.115 18.714 39.083 26.371 50.127 5.959 0 0 9.323-2.56 8.486-11.894a15.46 15.46 0 0 0 6.417-4.725Z" fill="#5865F0"/>
  <path d="M70.61 78.668c2.594 0 4.697-3.335 4.697-7.449 0-4.113-2.103-7.448-4.697-7.448s-4.696 3.335-4.696 7.448c0 4.114 2.102 7.449 4.696 7.449Z" fill="#fff"/>
  <path d="M70.494 69.24c-1.93 0-3.51 2.491-3.51 5.54.001.476.04.95.116 1.42.883 1.513 2.115 2.467 3.51 2.467 1.395 0 2.349-.768 3.186-2.001.143-.618.213-1.251.209-1.886 0-3.049-1.558-5.54-3.511-5.54Z" fill="#000"/>
  <path d="M54.01 60.372c-7.65-1.699-8.51 9.357-8.51 9.357s4.255-6.796 9.37.233c1.511 2.048 1.86 4.725 2.07 7.285.255 3.073.348 7.868-.814 12.313a43.306 43.306 0 0 1 2.464-1.49c2.441-8.914 4.627-25.626-4.58-27.698Z" fill="#CF1581"/>
  <path d="M161.867 69.45a33.077 33.077 0 0 1-9.51 1.397c-.93 0-1.511-.047-1.604-.047a1.041 1.041 0 0 1-.931-.727 1.034 1.034 0 0 1-.045-.413 1.022 1.022 0 0 1 1.139-.978c.07 0 5.51.373 10.951-1.466.069.743.069 1.491 0 2.234Zm-31.341 8.706a1.07 1.07 0 1 0-.628 2.048c3.627 1.117 8.812 2.327 14.392 2.327 2.493.011 4.981-.254 7.416-.791a25.5 25.5 0 0 0 1.674-2.653l.791-.28c-8.556 3.026-18.019 1.094-23.645-.651Z" fill="#0C1AAB"/>
  <path d="M25.087 103.735a4.469 4.469 0 0 1-1.349-1.373 4.546 4.546 0 0 1-.674-1.792l-.349-2.211a.21.21 0 0 0-.07-.14l-.139-.047-.14.047a.21.21 0 0 0-.07.14l-.348 2.211a4.548 4.548 0 0 1-.674 1.792 4.737 4.737 0 0 1-1.349 1.373l-.302.187c-.023 0-.047.046-.07.069a.164.164 0 0 0-.023.117.139.139 0 0 0 .023.093c.023.023.047.07.07.07l.302.186a4.75 4.75 0 0 1 1.349 1.373c.35.543.58 1.154.674 1.792l.349 2.212a.21.21 0 0 0 .07.139l.139.047.14-.047a.21.21 0 0 0 .07-.139l.348-2.212a4.546 4.546 0 0 1 .674-1.792 4.469 4.469 0 0 1 1.349-1.373l.302-.186c.023 0 .047-.047.07-.07a.14.14 0 0 0 .023-.093.165.165 0 0 0-.023-.117c-.023-.023-.047-.069-.07-.069l-.302-.187Z" fill="#FFE55C"/>
  <path d="M15.903 92.82a6.886 6.886 0 0 1-2.139-2.119 7.5 7.5 0 0 1-1.046-2.816l-.512-3.445a.605.605 0 0 0-.116-.21.418.418 0 0 0-.232-.093.489.489 0 0 0-.233.093.349.349 0 0 0-.093.21l-.535 3.445a7.288 7.288 0 0 1-1.07 2.816 6.815 6.815 0 0 1-2.115 2.118l-.442.303a.279.279 0 0 0-.116.116.303.303 0 0 0 0 .326l.116.116.442.303A6.815 6.815 0 0 1 9.928 96.1a7.288 7.288 0 0 1 1.07 2.816l.534 3.445a.325.325 0 0 0 .325.28.401.401 0 0 0 .233-.07.952.952 0 0 0 .116-.21l.512-3.445a7.64 7.64 0 0 1 1.046-2.816 6.886 6.886 0 0 1 2.139-2.118l.465-.303a.232.232 0 0 0 .093-.116.303.303 0 0 0 0-.326.232.232 0 0 0-.093-.116l-.465-.303Z" fill="#FF78B7"/>
  <path d="M182.373 81.81a7.42 7.42 0 0 1-2.139-2.118 7.27 7.27 0 0 1-1.046-2.817l-.535-3.445a.302.302 0 0 0-.093-.21.32.32 0 0 0-.233-.097.326.326 0 0 0-.325.307l-.535 3.445a7.29 7.29 0 0 1-1.069 2.817 7.071 7.071 0 0 1-2.116 2.118l-.442.279-.116.14a.324.324 0 0 0-.047.162.443.443 0 0 0 .047.163c.026.05.067.09.116.117l.442.302a6.594 6.594 0 0 1 2.116 2.118 7.149 7.149 0 0 1 1.069 2.817l.535 3.421c.002.08.036.155.093.21a.327.327 0 0 0 .232.093.302.302 0 0 0 .233-.093.302.302 0 0 0 .093-.21l.535-3.421a6.977 6.977 0 0 1 3.185-4.935l.465-.302.093-.117a.424.424 0 0 0 .046-.163.313.313 0 0 0-.046-.162l-.093-.14-.465-.28Z" fill="#8AD7FF"/>
  <path d="M158.611 27.088a1.071 1.071 0 0 1-.93 1.187h-.139a1.047 1.047 0 0 1-1.046-.93c-1.488-12.314-6.673-17.178-10.556-19.087.301-.612.643-1.203 1.023-1.769 4.418 2.235 10.091 7.635 11.648 20.6ZM165.214.693a16.25 16.25 0 0 0-2.697-.558c3.418 6.005 8.673 18.55 3.372 32.656a1.068 1.068 0 0 0 .505 1.32 1.07 1.07 0 0 0 1.106-.065c.18-.126.315-.304.388-.51 5.138-13.71.86-26.046-2.674-32.843Z" fill="#29CA7A"/>
  <defs>
    <linearGradient id="a" x1="94.927" y1="123.438" x2="103.892" y2="96.028" gradientUnits="userSpaceOnUse">
      <stop offset=".18" stop-color="#FF78B7"/>
      <stop offset=".97" stop-color="#F25AA8"/>
    </linearGradient>
    <linearGradient id="b" x1="135.857" y1="127.053" x2="127.814" y2="96.205" gradientUnits="userSpaceOnUse">
      <stop offset=".26" stop-color="#FF78B7"/>
      <stop offset=".51" stop-color="#F96BB0"/>
      <stop offset=".97" stop-color="#EB4A9F"/>
      <stop offset="1" stop-color="#EA489E"/>
    </linearGradient>
    <linearGradient id="c" x1="49.088" y1="44.654" x2="53.855" y2="71.806" gradientUnits="userSpaceOnUse">
      <stop offset=".15" stop-color="#5865F0"/>
      <stop offset=".89" stop-color="#3442D7"/>
    </linearGradient>
    <linearGradient id="d" x1="112.451" y1="33.745" x2="123.672" y2="93.501" gradientUnits="userSpaceOnUse">
      <stop offset=".42" stop-color="#8FFFAB"/>
      <stop offset=".92" stop-color="#58F086"/>
    </linearGradient>
  </defs>
</svg>
