<svg fill="none" height="120" viewBox="0 0 169 120" width="169" xmlns="http://www.w3.org/2000/svg" xmlns:xlink="http://www.w3.org/1999/xlink"><linearGradient id="a" gradientUnits="userSpaceOnUse" x1="122.889" x2="122.889" y1="2.71554" y2="46.6844"><stop offset="0" stop-color="#ffe75c"/><stop offset="1" stop-color="#5865f2"/></linearGradient><path d="m122.889 77.1111c-21.208 0-38.4002-17.1923-38.4002-38.4s17.1922-38.400004 38.4002-38.400004 38.4 17.192304 38.4 38.400004-17.192 38.4-38.4 38.4z" fill="#5865f2"/><path d="m122.889.311096 35.2 53.733304c-2.987 6.8514-7.909 12.6821-14.161 16.7771-6.253 4.095-13.565 6.2763-21.039 6.2763s-14.786-2.1813-21.039-6.2763c-6.2524-4.095-11.174-9.9257-14.1611-16.7771z" fill="url(#a)"/><path d="m139.866 73.1555c-5.281 2.6032-11.09 3.9571-16.977 3.9571-5.888 0-11.697-1.3539-16.978-3.9571v-8.8444h33.955z" fill="#221ea6"/><path d="m104.8 65.8222c0 1.7333 8.133 3.6889 18.089 3.6889 9.955 0 18.089-1.9556 18.089-3.6889v-1.5111h-36.178z" fill="#312cc7"/><path d="m122.889 67.4666c-9.99 0-18.089-1.4128-18.089-3.1555 0-1.7428 8.099-3.1556 18.089-3.1556s18.089 1.4128 18.089 3.1556c0 1.7427-8.099 3.1555-18.089 3.1555z" fill="#ffd73b"/><path d="m139.822 61.2889 1.111 2.7555h-4.4v-2.7555z" fill="#ffd73b"/><path d="m105.955 61.2889-1.066 2.7555h4.355v-2.7555z" fill="#ffd73b"/><path d="m122.889 64.4444c-9.377 0-16.978-1.3133-16.978-2.9333s7.601-2.9333 16.978-2.9333c9.376 0 16.977 1.3133 16.977 2.9333s-7.601 2.9333-16.977 2.9333z" fill="#fff"/><path d="m122.889 62.6222c-3.658 0-6.622-.7164-6.622-1.6 0-.8837 2.964-1.6 6.622-1.6 3.657 0 6.622.7163 6.622 1.6 0 .8836-2.965 1.6-6.622 1.6z" fill="#ff78b9"/><path d="m108.311 33.9555c-1.111 1.4223-.978 3.2.311 3.9112 1.289.7111 3.2.0888 4.222-1.3778 1.022-1.4667.845-3.0667-.355-3.7334-1.2-.6666-3.067-.1777-4.178 1.2z" fill="#242145"/><path d="m104.355 37.5111c-1.2 1.5555-.8 3.4667.712 3.9555 1.511.4889 3.333-.5333 4.222-2.1777.889-1.6445.444-3.2-.889-3.6s-2.933.3111-4.045 1.8222z" fill="#242145"/><path d="m122.889 55.6c-8.272 0-14.978-5.9895-14.978-13.3778s6.706-13.3778 14.978-13.3778 14.977 5.9895 14.977 13.3778-6.705 13.3778-14.977 13.3778z" fill="#fff"/><path d="m113.378 37.1556c-.105 3.6996.223 7.3987.977 11.0222h-.977c-1.006-3.7034-1.366-7.5521-1.067-11.3778.178-2.1333 1.067-5.7333 3.2-6.6667l1.111-.4c-2.355.8-3.155 4.4889-3.244 7.4223z" fill="#ffd73b"/><path d="m127.867 38.8889c-.667 4.5333.177 10.9777.177 10.9777h-1.422c-.601-3.6334-.616-7.3396-.044-10.9777 1.244-7.6445 4.889-8.1778 6.177-7.4667l.534.4c-1.822-1.3333-4.756 2.5333-5.422 7.0667z" fill="#ffd73b"/><path d="m115.333 57.3333c0 1.6889 1.378 4.2222 7.556 4.2222s7.555-2.5333 7.555-4.2222-3.377-3.0666-7.555-3.0666-7.556.8-7.556 3.0666z" fill="#3442d9"/><path d="m114.444 53.3778c0 1.6889 1.511 4.2222 8.445 4.2222 6.933 0 8.489-2.5333 8.489-4.2222s-3.823-3.0667-8.489-3.0667c-4.667 0-8.445.9333-8.445 3.0667z" fill="#312cc7"/><path d="m122.889 48.4c7.955 0 14.444-2.4 14.889-4.7111-.8 6.7111-7.156 11.9111-14.889 11.9111s-14.045-5.2-14.889-11.9111c.444 2.3111 6.933 4.7111 14.889 4.7111z" fill="#000"/><path d="m122.889 47.8222c7.955 0 14.444-1.8222 14.889-4.1333-.101.7055-.25 1.4034-.445 2.0889-1.155 2.1778-7.2 3.8667-14.444 3.8667-7.245 0-13.245-1.6889-14.445-3.8667-.195-.6855-.343-1.3834-.444-2.0889.444 2.3111 6.933 4.1333 14.889 4.1333z" fill="#3f99f2"/><path d="m122.889 10.7111c1.38.0007 2.743.3019 3.995.8825 1.253.5806 2.363 1.4267 3.256 2.4797.892 1.053 1.544 2.2875 1.912 3.618.367 1.3304.44 2.7248.214 4.0864-.523 3.1028-1.372 6.1418-2.533 9.0667-.311.8-3.244 1.3778-6.844 1.3778s-6.534-.5778-6.8-1.3778c-1.175-2.9236-2.039-5.9625-2.578-9.0667-.226-1.3616-.153-2.756.215-4.0864.367-1.3305 1.019-2.565 1.912-3.618.892-1.053 2.003-1.8991 3.255-2.4797s2.616-.8818 3.996-.8825z" fill="#fff"/><path d="m132.4 34.7555c.844 1.6889 2.444 3.0667 3.244 2.5778s.223-2.1778-.8-3.5111c-1.022-1.3334-1.822-1.7334-2.4-1.5556-.577.1778-.666 1.1556-.044 2.4889z" fill="#242145"/><path d="m132.222 32.4c.625-.484 1.395-.7429 2.186-.7348.79.008 1.555.2826 2.17.7792 1.555 1.2 2.444 3.4667 1.955 5.9111-.489 2.4445-2.889-1.0222-2.889-1.0222z" fill="#242145"/><path d="m137.778 35.6889c1.866.1333 4.622 1.7333 4.444 4.3555s-2.756 2.4445-4.444 1.1556c-1.689-1.2889-2.667-3.0222-2.578-4.4889s1.244-1.1556 2.578-1.0222z" fill="#242145"/><path d="m134.933 37.3778h.311c-.036-.2351-.051-.4732-.044-.7111.009-.1746.063-.344.157-.4918.093-.1479.223-.2693.376-.3527.012 0 .024-.0023.034-.0067.011-.0045.021-.011.029-.0193s.015-.0181.019-.0288c.005-.0108.007-.0224.007-.0341v-.0888h-.044c-.045-.0445-.089-.0889-.134-.0445-.215.0978-.4.2533-.534.4493-.133.1961-.209.425-.221.6618-.007.2232.008.4465.044.6667z" fill="#000"/><path d="m140.044 47.1556c-1.841 0-3.333-1.4924-3.333-3.3334 0-1.8409 1.492-3.3333 3.333-3.3333s3.334 1.4924 3.334 3.3333c0 1.841-1.493 3.3334-3.334 3.3334z" fill="#242145"/><path d="m137.689 41.1111c.653-.6039 1.511-.9374 2.4-.9333.701-.0065 1.387.2115 1.955.6222-.001.1097-.032.217-.088.3111-.54-.4011-1.194-.6191-1.867-.6222-.394-.0074-.785.0635-1.151.2085-.367.1449-.7.3611-.982.6359l-.178-.1333z" fill="#000"/><path d="m136.933 46.9333c-2.062 0-3.733-1.6714-3.733-3.7333s1.671-3.7333 3.733-3.7333 3.734 1.6714 3.734 3.7333-1.672 3.7333-3.734 3.7333z" fill="#242145"/><path d="m140.667 43.2c.057-.5275.003-1.0612-.16-1.5663-.162-.5051-.429-.9703-.784-1.3654-.354-.395-.787-.7109-1.272-.9272s-1.009-.328-1.54-.328c-.53 0-1.055.1117-1.54.328-.484.2163-.918.5322-1.272.9272-.354.3951-.621.8603-.784 1.3654s-.217 1.0388-.159 1.5663" stroke="#000" stroke-linecap="round" stroke-miterlimit="10" stroke-width=".811127"/><path d="m105.289 46.4889c-2.111 0-3.822-1.7113-3.822-3.8223 0-2.1109 1.711-3.8222 3.822-3.8222s3.822 1.7113 3.822 3.8222c0 2.111-1.711 3.8223-3.822 3.8223z" fill="#242145"/><path d="m103.644 39.2445c.045-.1334.045-.2667.089-.4.483-.1824.995-.2729 1.511-.2667.649-.0066 1.29.1483 1.864.4509s1.064.7433 1.425 1.2824l-.222.2223c-.328-.5163-.781-.9417-1.317-1.2368-.536-.2952-1.138-.4507-1.75-.4521-.558-.0047-1.109.1329-1.6.4z" fill="#000"/><path d="m108.533 43.8666c-1.939 0-3.511-1.5719-3.511-3.5111 0-1.9391 1.572-3.5111 3.511-3.5111s3.511 1.572 3.511 3.5111c0 1.9392-1.572 3.5111-3.511 3.5111z" fill="#242145"/><path d="m108.533 36.8c-.497-.0559-1.001-.0061-1.477.146-.477.152-.916.403-1.289.7366-.373.3335-.672.742-.876 1.1988-.205.4567-.31.9515-.31 1.4519s.105.9952.31 1.452c.204.4568.503.8653.876 1.1988s.812.5845 1.289.7366c.476.1521.98.2018 1.477.146" stroke="#000" stroke-linecap="round" stroke-miterlimit="10" stroke-width=".811127"/><path d="m119.778 35.8222c-.166-.6574-.285-1.3257-.356-2 0-.0353.014-.0692.039-.0942s.059-.0391.095-.0391c1.041.1845 2.097.2738 3.155.2667.089 0 .133.0444.089.1333l-1.156 1.9111c-.147 1.9968-.162 4.0012-.044 6 0 .0889-.044.1333-.089.1333-1.057.0369-2.114-.0376-3.155-.2222l-.089-.1333c.266-2.5778.8-4.7111 1.511-5.9556z" fill="#57f287"/><path d="m122.889 32.2667c-3.78 0-6.845-.6766-6.845-1.5111 0-.8346 3.065-1.5112 6.845-1.5112s6.844.6766 6.844 1.5112c0 .8345-3.064 1.5111-6.844 1.5111z" fill="#000"/><path d="m115.689 29.7333v.1778l.4.9333c.267.8 3.244 1.3778 6.8 1.3778 1.565.0232 3.128-.1108 4.667-.4 1.2-.2222 2-.5778 2.177-.9778.099-.3182.218-.6299.356-.9333v-.1778c0-.8445-3.245-1.5556-7.245-1.5556s-7.155.7111-7.155 1.5556z" fill="#5562f2"/><path d="m122.889 31.1111c4.355 0 7.067-.8 7.067-1.3778s-2.712-1.3778-7.067-1.3778c-4.356 0-7.022.8-7.022 1.3778s2.666 1.3778 7.022 1.3778z" fill="#000"/><path d="m122.889 28.5333c-4.311 0-6.8.8-6.845 1.2-.044.4 2.534 1.2 6.845 1.2s6.8-.8 6.889-1.2-2.578-1.2-6.889-1.2zm0-.3556c4 0 7.244.7111 7.244 1.5556 0 .8444-3.244 1.5555-7.244 1.5555s-7.2-.6666-7.2-1.5555 3.2-1.5556 7.2-1.5556z" fill="#99a1ff"/><path d="m121.911 29.7333v.0889l.711.0889.711-.0889c.016-.018.029-.0391.036-.0621.008-.0229.011-.0471.009-.0712-.114-1.8415.302-3.677 1.2-5.2889.086-.1853.101-.3956.044-.5917s-.183-.3649-.355-.475c-.179-.0832-.382-.0975-.571-.0401s-.35.1825-.452.3512c-1.014 1.8618-1.476 3.9738-1.333 6.0889z" fill="#eb459f"/><path d="m119.2 21.3333c.578.4445 1.467 1.6.933 2.7556l1.289-.0889 2-.8445.845-1.3333.222-1.6444-.356-.7556-.889-.0889-2.222 1.5111z" fill="#000"/><path d="m116.267 21.5111c-.02.1156-.014.2342.018.3472.031.113.087.2178.163.3068.076.0891.171.1603.278.2085.107.0483.223.0725.341.0708.711.0889.977-.0889 1.111-.3111.16.1728.368.2944.597.3497.23.0554.47.0419.692-.0386.489-.2222.8-.4889.622-1.0667-.178-.5777-3.822.1334-3.822.1334z" fill="#8cd9ff"/><path d="m122.8 19.8666c.311.5334-.089.9334-.8 1.3334s-.978-.4889-.978-.4889z" fill="#8cd9ff"/><path d="m122.8 21.8222c-.578-.3555-1.333.0889-1.645.8445-.145.4155-.355.8055-.622 1.1555h1.467l1.333-.8889z" fill="#57f287"/><path d="m124.222 20.9333c-.711-.1778-1.6.4-2.133 1.8667l-.534 1.4667 2.312-1.2445.622-1.3778z" fill="#57f287"/><path d="m124.222 20.9333c-.711-.1778-1.6.4-2.133 1.8667l-.534 1.4667" stroke="#000" stroke-linecap="round" stroke-miterlimit="10" stroke-width=".856299"/><path d="m116.756 24.9333c-.151-.0379-.289-.1145-.4-.2222-.178-.1778-.223-.4889.222-.9334.444-.4444 2.533-.4 3.289-.2222.585.1894 1.212.2107 1.809.0614.598-.1493 1.141-.4631 1.568-.9058.845-.8.8-2.1778.756-2.6223-.044-.4444-.356-.5777-1.067-.1333-2.711 1.6889-3.911 2.0889-5.555 2.1333-1.645.0445-1.822-.5333-1.867-.7111-.029-.1208-.023-.2472.016-.365.04-.1177.111-.2222.206-.3016l1.023.5333 3.244-.7111 2.933-1.7334 1.467-.0888.667 1.6444-.623 2.4445-1.644 1.4222-2.356.4444-2.8-.5333-.755.3555z" fill="#eb459f"/><path d="m115.822 20.9778c-.666-1.2-.489-2.4889 1.111-3.4223-.311-1.7777.4-3.1555 2.889-3.2.578-1.4666 2.178-1.6889 3.467-1.6.496-.0017.983.14 1.401.4081.417.2681.749.6511.954 1.103 2.489-.0444 4.312.9778 4.134 3.3778 1.244.7556 1.644 2.4889.755 3.5556.889 2-1.111 3.2889-2.577 3.5111-.4 2.0444-2.045 3.5111-4.623 2.8-.76.3646-1.607.5119-2.446.4256-.84-.0862-1.639-.4027-2.309-.9145-1.778.1333-2.267-.9333-2.045-2.0889.02-.1432.07-.2806.146-.4032.077-.1226.179-.2275.299-.3079.622-.4 1.555-.2667 2.622-.0444 2.133.4444 3.822-.1334 4.711-1.8667.489-.8889.622-2.4.089-3.1111s-1.422-.0889-2.356.4889c-1.777 1.1111-4.088 2.2222-5.822 1.6-.167-.0511-.309-.1618-.4-.3111z" fill="#ff78b9"/><path d="m115.822 20.9778c-.666-1.2-.489-2.4889 1.111-3.4223-.311-1.7777.4-3.1555 2.889-3.2.578-1.4666 2.178-1.6889 3.467-1.6.496-.0017.983.14 1.401.4081.417.2681.749.6511.954 1.103 2.489-.0444 4.312.9778 4.134 3.3778 1.244.7556 1.644 2.4889.755 3.5556.889 2-1.111 3.2889-2.577 3.5111-.4 2.0444-2.045 3.5111-4.623 2.8-.76.3646-1.607.5119-2.446.4256-.84-.0862-1.639-.4027-2.309-.9145-1.778.1333-2.267-.9333-2.045-2.0889.02-.1432.07-.2806.146-.4032.077-.1226.179-.2275.299-.3079.622-.4 1.555-.2667 2.622-.0444 2.133.4444 3.822-.1334 4.711-1.8667.489-.8889.622-2.4.089-3.1111s-1.422-.0889-2.356.4889c-1.777 1.1111-4.088 2.2222-5.822 1.6-.167-.0511-.309-.1618-.4-.3111z" fill="#ff78b9"/><path d="m118.978 15.5111-.534-.4" stroke="#000" stroke-linecap="round" stroke-miterlimit="10" stroke-width=".856299"/><path d="m118.711 15.6889-.756-.0889" stroke="#000" stroke-linecap="round" stroke-miterlimit="10" stroke-width=".856299"/><path d="m123.378 14.2667-.134-.7112" stroke="#000" stroke-linecap="round" stroke-miterlimit="10" stroke-width=".856299"/><path d="m122.844 14.2666-.311-.6666" stroke="#000" stroke-linecap="round" stroke-miterlimit="10" stroke-width=".856299"/><path d="m122.489 14.3555-.534-.4889" stroke="#000" stroke-linecap="round" stroke-miterlimit="10" stroke-width=".856299"/><g fill="#000"><path d="m120.4 14.7111c.019-.0398.053-.071.094-.0874.041-.0165.087-.017.128-.0015.045.0889.089.1778.045.2223-.491.8463-.635 1.85-.4 2.8.023.0721.023.1499-.001.2218-.024.072-.071.1344-.133.1782-.314.2309-.579.5233-.778.8594-.198.3361-.327.709-.377 1.0961-.063.3799 0 .7698.178 1.1111l-.267.0889c-.229-.3722-.323-.8113-.267-1.2444.154-.8448.613-1.6038 1.289-2.1334.026-.0228.042-.0546.045-.0889-.133-.5078-.162-1.037-.085-1.5563.076-.5192.256-1.0177.529-1.4659z"/><path d="m123.733 18.0889c-.084.2735-.099.5636-.044.8444h-.311c-.087-.3409-.056-.7013.089-1.0222.355-.6666 1.244-1.0666 2.222-1.3778.978-.3111 1.555-.6222 1.778-1.1555.222-.5333.089-.1333.177-.0889.089.0444.134.0889.089.1778-.266.7555-.666.9778-1.955 1.3778s-1.734.6666-2.045 1.2444z"/><path d="m126.756 21.1555h-.089l-.134-.0889c-.015-.0414-.015-.0872.002-.1283.016-.0411.047-.0746.087-.0939 2.667-1.2444 3.067-2.2667 3.156-3.2l.311.2222c-.133.9334-.711 2-3.333 3.2889z"/><path d="m124.667 25.3778h-.089c-.089 0-.134-.0445-.134-.0889 0-.0445-.044-.1778.045-.2223l1.289-.7111h.266c.593.2916 1.254.4146 1.912.3556-.009.1227-.039.243-.089.3555-.674.0167-1.343-.1201-1.956-.4z"/><path d="m118.089 27.0222c-.326-.374-.528-.8398-.578-1.3333-.065-.6063.075-1.217.4-1.7333h.4c-.353.4729-.526 1.0556-.489 1.6444.076.536.344 1.0259.756 1.3778h-.489z"/><path d="m129.733 22.3111h-.089l-.133-.0889c-.016-.0415-.015-.0872.001-.1283.017-.0411.048-.0746.088-.0939.343-.244.656-.5274.933-.8445l.134.3556c-.27.3112-.585.5808-.934.8z"/></g><path d="m121.333 17.2445c.267.0444.533-.1778.756-.6223.239-.5015.607-.9308 1.066-1.2444.756-.5333.578-1.0667.223-1.2889-.356-.2222-1.467-.1333-2.045.8s-.622 2.2222 0 2.3556z" fill="#fff"/><path d="m118.426 17.8319c-.452-.1136-.678-.7654-.505-1.4557.174-.6904.681-1.158 1.133-1.0444.453.1136.679.7654.505 1.4558-.173.6904-.68 1.1579-1.133 1.0443z" fill="#fff"/><path d="m121.6 15.7333c-.134-.0444-.356.1333-.4.5778-.045.4444.133.5333.222.5333s.133-.1778.178-.4444c.044-.2667.222-.5778 0-.6667z" fill="#000"/><path d="m118.222 17.0935c-.016-.2941.111-.5399.282-.5489.172-.009.324.2222.339.5164.015.2941-.111.5399-.283.5488-.171.009-.323-.2221-.338-.5163z" fill="#000"/><path d="m126.622 16.2666-.222-.8444" stroke="#000" stroke-linecap="round" stroke-miterlimit="10" stroke-width=".856299"/><path d="m127.511 20.7111.089.4888" stroke="#000" stroke-linecap="round" stroke-miterlimit="10" stroke-width=".856299"/><path d="m114.844 18.1778c-.27 0-.489-.2189-.489-.4889s.219-.4889.489-.4889.489.2189.489.4889-.219.4889-.489.4889z" fill="#8cd9ff"/><path d="m128.311 27.7777c-.172 0-.311-.1392-.311-.3111 0-.1718.139-.3111.311-.3111s.311.1393.311.3111c0 .1719-.139.3111-.311.3111z" fill="#8cd9ff"/><path d="m128.489 15.7333c-.368 0-.667-.2985-.667-.6667s.299-.6666.667-.6666.667.2984.667.6666-.299.6667-.667.6667z" fill="#8cd9ff"/><path d="m132.533 45.2444c-2.037 0-3.689-1.6516-3.689-3.6889s1.652-3.6889 3.689-3.6889c2.038 0 3.689 1.6516 3.689 3.6889s-1.651 3.6889-3.689 3.6889z" fill="#242145"/><path d="m135.955 39.5555c.357.6059.541 1.2973.534 2 0 .6974-.179 1.3832-.522 1.9906s-.837 1.1159-1.434 1.4761h-.222c-.02-.0364-.026-.0785-.018-.1191s.03-.077.062-.1031c.434-.2382.814-.5631 1.116-.9545s.521-.8409.642-1.3204c.121-.4796.142-.9789.061-1.4669s-.261-.9541-.53-1.3693z" fill="#000"/><path d="m132.533 38.2667c-.489-.7112-.844-.9334-1.422-.5778l-2.4 2.9333c-.489.7111-.267 1.1556.622 1.7334.889.5777 1.822.4444 2.845-.5778 1.022-1.0222.8-2.8.355-3.5111z" fill="#5865f2"/><path d="m132.133 38.8889c-.056-.3534-.161-.6973-.311-1.0222-.667-1.2-1.333-2.4445-1.644-2.8889-.311-.4445-.8-.4445-2.089-.4445s-1.289 0-1.689.4889-.4.5778-.045 1.2889c-.977.5778-.888.6667-.888 2.0445 0 1.3777.4 1.4222 1.6 1.6.8 1.0666 1.288 1.8666 2.577 1.8666.361-.0157.715-.1059 1.039-.2648.325-.1588.613-.383.846-.6584.234-.2754.408-.5961.512-.942s.135-.7095.092-1.0681z" fill="#ff78b9"/><path d="m126.356 47.7334 1.466-.1334c-.267-2.7936-.267-5.6064 0-8.4l-.222-.3111-1.111.3111c-.396 2.8281-.441 5.6943-.133 8.5334z" fill="#ffd73b"/><path d="m109.111 37.2c.4-.5778.711-.7556 1.2-.4889l2 2.4889c.445.6222.222 1.0222-.533 1.5111-.756.4889-1.511.3555-2.4-.5334-.337-.4128-.543-.9172-.59-1.448-.048-.5307.065-1.0636.323-1.5297z" fill="#5865f2"/><path d="m114.933 35.6444c.756.4889.711.8445.445 1.5111-.315.682-.687 1.3362-1.112 1.9556-.266.4444-.622.4444-1.911.4-.175.2841-.453.4891-.777.572-.323.0829-.666.0372-.956-.1276-.578-.2666-1.2-.9777-.978-2.4444.026-.2078.103-.4061.222-.5778.667-1.1111 1.778-2.7555 2.045-3.0666s.578-.3556 1.822-.3556c1.245 0 1.378.2667 1.556.8.177.5333 0 .7111-.356 1.3333z" fill="#ff78b9"/><path d="m121.333 57.6c-.577.6483-.894 1.4875-.889 2.3556.027.5449.212 1.0701.534 1.5111h.488c-.215-.1995-.389-.4397-.511-.7067-.122-.2669-.19-.5555-.2-.8489-.014-.4224.062-.843.223-1.2338s.403-.7429.711-1.0329l.177-.1333-.177-.0889c-.347-.2368-.638-.5464-.853-.9071-.215-.3608-.349-.7641-.392-1.1818-.044-.3244-.044-.6533 0-.9777.118-.8943.506-1.7313 1.111-2.4.02-.0338.03-.0721.03-.1112 0-.039-.01-.0773-.03-.1111h-.222c-.669.7238-1.09 1.6426-1.2 2.6223-.044.3393-.044.6829 0 1.0222.098.868.528 1.6645 1.2 2.2222z" fill="#000"/><path d="m135.556 32.7555c.311.2223.8.4445.888.3112.089-.1334-.266-.4445-.622-.6223-.355-.1777-.444-.1333-.489-.0889-.044.0445.045.2223.223.4z" fill="#625abd"/><path d="m112.222 38.6222c-.061 2.7187.208 5.4348.8 8.0889.349.1149.705.2041 1.067.2666-.463-2.7613-.701-5.5557-.711-8.3555l-.8-.4445z" fill="#ffd73b"/><path d="m108 36.8444c-.144-.239-.263-.4922-.356-.7555" stroke="#000" stroke-linecap="round" stroke-miterlimit="10" stroke-width=".811127"/><path d="m120.533 35.8666c-.222.9778-.4 1.9111-.4 1.9111" stroke="#000" stroke-linecap="round" stroke-miterlimit="10" stroke-width=".811127"/><path d="m122.8 49.6444c-1.693-.0095-3.385-.1134-5.067-.3111v-1.7778c1.683.1823 3.375.2713 5.067.2667z" fill="#ffd73b"/><path d="m112.8 34.2222c.044-.0889.133-.0889.222-.0444l2.045 1.1999-.134.2667-2.089-1.2444c-.044-.0445-.088-.1334-.044-.1778z" fill="#000"/><path d="m114.089 34.9778.755-.2222" stroke="#000" stroke-linecap="round" stroke-miterlimit="10" stroke-width=".811127"/><path d="m114.089 37.4222-1.956-1.2c-.089-.0444-.089-.1333-.044-.2222.026-.0321.062-.0541.103-.0622.04-.0081.083-.0018.119.0178l1.955 1.2c.232.111.443.2614.623.4444.05.0613.082.1363.09.2154.008.0792-.008.1589-.046.229l-.133.2667c.035-.0841.051-.1755.044-.2667-.044-.1777-.355-.4-.755-.6222z" fill="#000"/><path d="m113.467 38.7111-.978-.5778" stroke="#000" stroke-linecap="round" stroke-miterlimit="10" stroke-width=".811127"/><path d="m112.489 38.1333c-.198.3656-.49.6723-.845.8889" stroke="#000" stroke-linecap="round" stroke-miterlimit="10" stroke-width=".811127"/><path d="m126.355 36.3111-.133-.2666 2.178-.8445c.089 0 .178 0 .178.0889.015.0415.015.0872-.002.1283-.016.0411-.047.0746-.087.0939z" fill="#000"/><path d="m125.733 37.8666 2.622-.9333c.047-.0038.093.007.133.0309s.071.0598.09.1024l-.089.1778-2.667.9334c-.109.0383-.203.1111-.267.2072-.064.0962-.095.2107-.088.3261v-.5778c0-.1333.177-.2222.266-.2667z" fill="#000"/><path d="m126.355 39.1556 1.2-.4h.045c.12.5022.347.9723.667 1.3777" stroke="#000" stroke-linecap="round" stroke-miterlimit="10" stroke-width=".811127"/><path d="m120.267 26.1778c-.016-.0415-.015-.0872.001-.1283s.048-.0746.087-.094c.045-.0444.178 0 .223.0445.129.2406.334.4318.583.5443.249.1124.528.1398.794.0779.012-.0075.025-.0124.038-.0142s.027-.0005.04.0037c.013.0043.025.0115.034.021.01.0096.017.0212.022.034.292.4293.737.7313 1.244.8444l-.489.1778c-.4-.1366-.744-.4024-.977-.7556-.313.0582-.635.0166-.923-.1191-.287-.1356-.524-.3583-.677-.6364z" fill="#000"/><path d="m109.467 28.7111c-1.424 0-2.578-1.1541-2.578-2.5778 0-1.4236 1.154-2.5778 2.578-2.5778 1.423 0 2.577 1.1542 2.577 2.5778 0 1.4237-1.154 2.5778-2.577 2.5778z" fill="#fff"/><path d="m101.467 29.9111c.147.3484.424.6262.772.7753s.74.158 1.094.0247l4.978-1.6-1.911-4-4.4 2.8444c-.308.2084-.531.5203-.629.879-.098.3588-.064.7407.096 1.0766z" fill="#000"/><path d="m107.46 27.0339c-.545-1.154-.735-2.2085-.425-2.3554.311-.1468 1.005.6696 1.551 1.8236.545 1.1539.735 2.2084.425 2.3553-.311.1469-1.005-.6696-1.551-1.8235z" fill="#8cd9ff"/><path d="m108.933 28.9333-.622.1778c.311-.1333.133-1.1555-.355-2.2667-.489-1.1111-1.2-1.8666-1.556-1.7333l.578-.3555 1.378 1.9111z" fill="#8cd9ff"/><path d="m108.311 29.1111c.311-.1333.133-1.1555-.356-2.2666-.488-1.1112-1.2-1.8667-1.555-1.7334l-.4.2667 1.867 3.9111z" fill="#000"/><path d="m125.355 120h-124.999531c1.036241-15.902 8.071691-30.8137 19.678731-41.7089 11.6071-10.8953 26.9163-16.958 42.8213-16.958 15.9049 0 31.2141 6.0627 42.8215 16.958 11.607 10.8952 18.642 25.8069 19.678 41.7089z" fill="#ffe75c"/><path d="m58.9776 86.0889c-.8888 2.5778-2.4444 7.5111-2.4444 7.5111h7.0222c1.5556-5.5555 2-8 2-8z" fill="#ff78b9"/><path d="m75.7778 93.4667c.4632-.4624 1.005-.8387 1.6-1.1111l-2.1777-.4c-1.1556-.1778-1.4223-.4-1.9111-.8444-3.4667-2.8889-5.8667-2-12.3556-.6223-5.9111-1.5111-10.2667-2.8444-12.3556-1.9111-2.0888.9334-1.2 5.1111 0 9.8667 1.2 4.7555 2.4 9.1555 2.4 9.1555h21.4223c.2666-2.578-.2223-7.156-.7111-10.3555l2.4.5778c0-1.6.3111-3.0667 1.6888-4.3556z" fill="#3442d9"/><path d="m52.6665 88.4889c2.2222.4444 3.1556 2.8889 3.8667 5.1111s3.0222 4.0444 6.4889 3.1555c3.4666-.8888 6.8-2.9777 3.7333-7.4222-1.5556.1778-3.3778.6223-5.8222 1.1556-3.2889-.8445-6.0889-1.6445-8.2667-2z" fill="#fff"/><path d="m60.8889 96.3556-.0889 1.1555c-.0223.3151.0256.6312.1403.9255.1147.2942.2933.5594.5229.7762.2296.2169.5045.3801.8049.4778.3003.0977.6186.1275.9319.0872.304-.0537.5928-.1727.8463-.3489.2536-.1762.4658-.4053.6222-.6715.1563-.2663.2531-.5632.2834-.8705.0304-.3072-.0063-.6174-.1074-.9091l-.4-1.1111z" fill="#fff"/><path d="m123.689 108.444h-78.5334c-.1126-.006-.2253.011-.3307.052-.1053.04-.201.102-.2808.181-.0797.08-.1417.176-.1818.281-.0402.106-.0576.218-.0512.331 0 .111.0219.221.0643.323s.1046.196.1831.274c.0784.078.1715.141.2739.183.1025.042.2123.064.3232.064h78.9774c-.133-.577-.266-1.111-.444-1.689z" fill="#ffc619"/><path d="m57.2443 92.7556c1.6444 3.3333 4.8444 3.8666 7.8222 2.0889 2.9778-1.7778 1.4222-4.9334 1.1555-5.4667-1.4222.2667-3.1111.4-5.2889.8444-2.7555-.7111-5.1999-1.1111-7.1999-1.5111.9777.2222 2.0444 1.0667 3.5111 4.0445z" fill="#ff78b9"/><path d="m50.3999 108.178c.9778 5.689 1.6889 9.244 3.7778 9.866 2.0889.623 4.6222-.577 7.6-2.933 4.8-3.822 7.2444-4.622 9.4222-4.578z" fill="#000"/><path d="m48.7998 88.4889c-2.3111.7556-3.5555 3.0667-1.9111 6.8.2667.5334.3556.7556.4445 2.2667.0888 1.5111.4 6.1774 2.6666 13.6884.5334 1.912 1.4222 1.556 4.2667 1.289 2.8444-.266 15.8222-2.4 15.8222-2.4v-4.177l-14.8444-.223c-.9334-5.7774-1.7334-10.7107-2.2667-13.1996s-1.6-4.8445-4.1778-4.0445z" fill="#ff78b9"/><path d="m53.4666 92.5333c-.5333-2.4444-2.0889-4.8444-4.6667-4.0444-2.5777.8-3.5555 3.0667-1.9111 6.8.2667.5333.3556.7556.4445 2.2667.1135 2.015.366 4.0194.7555 6.0004.0434-.931.3339-1.833.8416-2.615.5078-.781 1.2144-1.4124 2.0473-1.8299l2.9334-1.4222c.7111-.3555-.1778-3.9556-.4445-5.1556z" fill="#3442d9"/><path d="m71.5556 94.9333c-.0889.0445-.1778.1334-.1334.2223l.3111 2.0889.3556.0888-.3111-2.2222c-.0203-.0451-.051-.0848-.0896-.1158-.0387-.0309-.0841-.0521-.1326-.062z" fill="#000"/><path d="m61.822 94.9778v2.5777c.0044.17.0449.3371.1188.4902.0738.1532.1794.2889.3097.3981.1303.1093.2823.1896.4459.2357.1637.0461.3353.0569.5034.0316.1678-.0238.3283-.0843.4702-.177.1418-.0928.2615-.2157.3506-.3599.089-.1442.1453-.3062.1647-.4745.0195-.1684.0017-.339-.0522-.4997l-.8444-2.6667z" fill="#ff78b9"/><path d="m54.9777 105.689c-.8.355-2.0444.933-2.8 2.089" stroke="#000" stroke-linecap="round" stroke-miterlimit="10" stroke-width=".938578"/><path d="m54.9777 104.222-1.6444-10.1775c1.6444 1.4222 2.4888 1.2444 1.6444 10.1775z" fill="#000"/><path d="m65.5554 85.6-5.0666.3556.3111.4889 3.3333 4.9333c1.1111-4 1.4222-5.7778 1.4222-5.7778z" fill="#000"/><path d="m53.8384 71.3059c1.9045-.4784 3.1139-2.1978 2.7013-3.8405-.4126-1.6426-2.291-2.5865-4.1955-2.1081s-3.114 2.1978-2.7014 3.8405c.4126 1.6426 2.291 2.5865 4.1956 2.1081z" fill="#000"/><path d="m49.7332 82.8444c.4889-3.9555 2.4-10.0444 3.8223-13.3333 3.1111-7.1111 4.6222-9.5111 6.6222-9.5111s3.9111 2.7111 6.7555 6.4889c2.8445 3.7778 6.1778 9.3333 7.7778 13.8666.9778 2.7112 0 3.6889-1.6889 4.2223-1.6889.5333-6.2222 1.5111-11.0222 2.0889-3.7008.4443-7.4324.5781-11.1555.4-1.4667-.0889-1.5112-1.5112-1.1112-4.2223z" fill="#ff78b9"/><path d="m62.3555 73.0222 1.1111-.8444" stroke="#000" stroke-linecap="round" stroke-miterlimit="10" stroke-width=".938578"/><path d="m62 72.9334.3111-1.3334" stroke="#000" stroke-linecap="round" stroke-miterlimit="10" stroke-width=".938578"/><path d="m55.5998 68.3111c.0445-.2222-.1333-.4-.4-.4444-.0525 0-.1045.0103-.153.0304-.0486.0202-.0927.0496-.1298.0868-.0372.0371-.0666.0812-.0867.1297-.0201.0486-.0305.1006-.0305.1531-.1333 2.5778-.9333 4.1333-2.7555 5.2444-.1334.3556-.2222.7556-.3556 1.1111 2.6222-1.2444 3.7778-3.1111 3.9111-6.3111z" fill="#000"/><path d="m57.5111 68.0445c.0005-.1106-.0402-.2174-.1141-.2996-.074-.0821-.1759-.1338-.2859-.1449-.1079.0081-.2101.0518-.2905.1242-.0805.0724-.1346.1694-.154.2758-.1778 3.6445-1.6444 5.6889-5.1555 7.1556-.0834.3466-.1872.6879-.3111 1.0222 4.2666-1.6 6.0888-3.9555 6.3111-8.1333z" fill="#000"/><path d="m68.9778 72.6667c1.6444.4 2.2222-.4445 2.2222-.4445" stroke="#000" stroke-linecap="round" stroke-miterlimit="10" stroke-width=".938578"/><path d="m66.311 66.3556c2.1355 0 3.8667-1.7312 3.8667-3.8667s-1.7312-3.8666-3.8667-3.8666-3.8667 1.7311-3.8667 3.8666 1.7312 3.8667 3.8667 3.8667z" fill="#000"/><path d="m61.5554 62.4c2.6264 0 4.7555-2.1291 4.7555-4.7555 0-2.6265-2.1291-4.7556-4.7555-4.7556-2.6265 0-4.7556 2.1291-4.7556 4.7556 0 2.6264 2.1291 4.7555 4.7556 4.7555z" fill="#000"/><path d="m55.3333 66.0445c2.4055 0 4.3556-1.9501 4.3556-4.3556s-1.9501-4.3555-4.3556-4.3555-4.3555 1.95-4.3555 4.3555 1.95 4.3556 4.3555 4.3556z" fill="#000"/><path d="m53.9555 69.3778 4.5778-2.7556 7.7778-.9777v-4.8l-7.1111-1.9556-4.1778 3.3334-1.9111 6.4888z" fill="#000"/><path d="m67.4223 62.489c-.4 1.0666-.9778 2.3555-2.5334 2.9333" stroke="#0e156e" stroke-linecap="round" stroke-miterlimit="10" stroke-width=".938578"/><path d="m62.4889 58c1.2 2 1.0666 5.3778-1.4222 8.0445" stroke="#0e156e" stroke-linecap="round" stroke-miterlimit="10" stroke-width=".938578"/><path d="m89.2889 99.2c-.2667.3111-.8.3111-2.1778.1778-.9587-.1117-1.9252-.1414-2.8889-.0889-2 .1333-5.6-.4444-10.1333-1.4666 0-1.6.3111-3.0667 1.6889-4.3556.4631-.4624 1.0049-.8387 1.6-1.1111l3.5555.6222s-.7555-6.7555-1.6889-15.4222l3.2-1.2c2.1778 5.3778 5.2889 13.7333 6.2667 17.9111s.8889 4.5778.5778 4.9333z" fill="#ff78b9"/><path d="m82.6665 76.8445c-.0889-.2222 0-.4.3111-.8.3618-.3971.6615-.8467.8889-1.3333.1778-.3556.1778-.7556.1778-1.9556s-.0445-1.9556-.4-2.4444c-.3556-.4889-1.8222-1.6889-2.4889-2.2667s-2.5778-1.9556-3.6444-2.6667c-1.0667-.7111-1.7778-.8444-2.4445-.3111s-.7111 1.3333-.9778 3.1111c-.1333.7111-.1333.6222-.9777 1.5111-.8445.8889-.5778 1.0667-.3111 1.3334.2666.2666 1.1999.2666 1.9555-.4445.4075-.3489.7398-.777.9767-1.2584.2368-.4813.3733-1.0058.4011-1.5416l.7555.4889c-.3309.8341-.5838 1.697-.7555 2.5778-.0445.4444.0444.9333.5333 1.7778-1.0222-.6223-1.9111-1.4223-2.8-1.0667s-.8444 1.3778-.1778 1.9111c.6667.5333 1.7778 1.4222 2.0445 1.6889.2666.2667.3555.5333.5333 1.2s.3111 1.6889 2.0889 1.7778c.4444.0444.9778-.0889 1.0222.2666l.0889.8889 3.5111-1.6z" fill="#ff78b9"/><path d="m70.0889 77.7778c-1.2445.2222-1.7334-.9778-2-2.2667-.2667-1.2889-.5778-3.6-.1778-3.9555.4-.3556.9333.0889 1.6444 1.4666.7111 1.3778 2.3556 4.4889.5334 4.7556z" fill="#fff"/><path d="m61.7777 79.0222c1.6445.2223 2.6223-1.2 2.5778-2.4889-.1533-1.3187-.6772-2.5669-1.5111-3.5999-.6222-.6667-1.9556-.7112-2.6667 1.0222-.7111 1.7333-1.5111 4.6666 1.6 5.0666z" fill="#fff"/><path d="m65.5111 82.0001c-.114-.2371-.1695-.4981-.1618-.761.0078-.2629.0785-.5202.2062-.7501.5333-.9778 1.2889-1.5112 2.1778-1.4667.8889.0444 1.4666.7111.8889 2.0444 1.1111 1.0667.5777 1.9556-.5334 2.2223-1.1111.2666-1.9555.0888-2.5777-1.2889z" fill="#eb459f"/><path d="m52.3111 72.7556c.8444-2.2667 3.1555-3.6445 5.3778-4.7111 2.2222-1.0667 8.4444-2.8445 10.1333-.3556.2222-.1333.1333-.3111 0-.6666-.2504-.4492-.5326-.88-.8445-1.2889-1.5111-1.8667-6.9333-1.0667-9.8222.5777-2.8889 1.6445-3.7777 3.0223-4.3111 4.3112-.5333 1.2888-.8889 1.8666-.5333 2.1333z" fill="#312cc7"/><path d="m67.911 80.2667c-.1184.2606-.3046.4847-.5392.6489-.2345.1642-.5087.2624-.7942.2845" stroke="#000" stroke-linecap="round" stroke-miterlimit="10" stroke-width=".938578"/><path d="m67.8666 81.4667-.4445-.5778" stroke="#000" stroke-linecap="round" stroke-miterlimit="10" stroke-width=".938578"/><path d="m80.7556 93.1111.1778 1.9556" stroke="#000" stroke-linecap="round" stroke-miterlimit="10" stroke-width=".938578"/><path d="m79.1111 74.2667h1.9111c.2059-.0039.4047-.0757.5654-.2044.1608-.1286.2745-.3067.3235-.5067l.2667-.8889c.0444-.0889 0-.2222-.0889-.2222-.021-.0213-.0485-.0349-.0782-.0387-.0296-.0037-.0597.0026-.0853.018-.0257.0153-.0454.0389-.056.0668-.0107.028-.0116.0587-.0027.0872l-.3111.8889c-.0212.1256-.0867.2394-.1845.3209s-.2215.1253-.3489.1235h-1.9111c-1.5555 0-1.6444-.0888-2.4444-1.2889l-.7556-.4888.4.5777c.9334 1.3778 1.1111 1.5556 2.8 1.5556z" fill="#000"/><path d="m79.7778 74.2667h.7111c.0472 0 .0924-.0187.1257-.0521.0334-.0333.0521-.0785.0521-.1257 0-.0471-.0187-.0923-.0521-.1257-.0333-.0333-.0785-.0521-.1257-.0521h-.7111c-.1705-.0028-.3365-.0546-.4783-.1491-.1419-.0946-.2535-.2279-.3217-.3842l-.4444-.9333c-.2092-.4298-.2412-.9247-.0889-1.3778.4-1.0667.9777-2.5778 1.0666-2.9333.0889-.3556.3111-.5778.5334-.6223.2511-.0351.5061.0286.7111.1778l-.4-.2666c-.0708-.0654-.1559-.1134-.2484-.1402-.0925-.0269-.19-.0319-.2848-.0147-.0948.0173-.1843.0563-.2615.114-.0771.0577-.1398.1326-.1831.2186-.0759.1253-.1357.2597-.1778.4l-1.0666 2.9778c-.1057.2641-.1525.548-.1371.8321.0153.284.0924.5612.226.8124l.4444.9333c.0955.2141.2516.3955.4491.5219.1974.1264.4276.1922.662.1892z" fill="#000"/><path d="m80.8442 72.1778 2 .5333" stroke="#000" stroke-linecap="round" stroke-miterlimit="10" stroke-width=".938578"/><path d="m79.0221 66.4445c-.4148-.2667-.7259-.3556-.9333-.2667-.4445.1778-.8.8889-1.2001 2.0889l-.3111-.2222c.4445-1.2889.7556-2 1.3334-2.1778.0579-.0247.1213-.0336.1838-.0258.0624.0078.1217.032.1717.0703z" fill="#000"/><path d="m79.6443 77.9556 1.2.0444" stroke="#000" stroke-linecap="round" stroke-miterlimit="10" stroke-width=".938578"/><path d="m96.4444 91.9556c-.1778.4-1.8667.1777-2.0889.6222-.2222.4444 1.1556 1.5111.9778 1.9555-.1778.4445-1.9111.1778-2.0889.6223-.1778.4444 1.1111 1.5555.8889 1.9555s-1.8667.0889-2.0889.4889.9333 1.6889.7111 2.0889c-.2222.4001-1.9111-.2222-2.1777.1333-.2667.3558.3555 1.9558 0 2.1778-.3556.222-1.2-1.2-1.6445-1.244-.4444-.045-1.5111 1.2-1.9111.844s.5333-1.7333.2222-2.1778c-.3111-.4444-1.8666.3556-2.2222.0889-.3556-.2666-.3556-2.0444-.8444-2.0889-.4889-.0444-.8 1.6-1.2889 1.8223-.4889.2222-1.7334-.9778-2.1778-.6223-.4445.3556.3111 1.8668-.0889 2.2668s-1.9111-.4-2.2667 0c-.3555.4.6667 1.867.3556 2.267s-1.9556-.134-2.2667.311c-.3111.444.8 1.777.4889 2.222-.3111.444-1.9555-.089-2.2222.4s.8444 1.733.5778 2.178" stroke="#fff" stroke-linecap="round" stroke-miterlimit="10" stroke-width="2.34644"/><path d="m68.9332 105.911c1.0699-.083 2.0767-.539 2.8444-1.289 1.2412-1.163 2.2515-2.55 2.9778-4.089.0717-.139.173-.26.2969-.356.1238-.095.2672-.162.4198-.1962.1527-.0339.311-.0339.4636.0002.1526.034.2959.101.4197.197.3556.311.4445.844-.8889 4.089 2.0445.844 2.1778 1.022 3.3334 2.311.5777.622.3555 1.022-.1334 1.644-.1667.228-.3892.409-.6461.525-.2568.117-.5394.166-.8205.142-.6667 1.733-1.2889 3.244-1.9556 4.133s-.8444.978-1.4667.978c-1.4666 0-1.9555-.267-2.0444-1.244-1.4667-.267-2.0444-.712-2.2667-1.423l-.2222-.666c-.0104-.054-.0316-.104-.0621-.149-.0306-.045-.0699-.083-.1156-.112-.0458-.029-.0969-.048-.1504-.057s-.1082-.007-.1608.007l-1.2444.177z" fill="#ff78b9"/><path d="m101.22 89.5376c2.32-5.0663 2.499-9.9519.402-10.9124-2.0984-.9605-5.6794 2.3679-7.9988 7.4341-2.3195 5.0662-2.4992 9.9518-.4013 10.9123s5.6789-2.3678 7.9981-7.434z" fill="#3895f2"/><path d="m98.8887 82 .8889-.8-2.0444-1.2444c-.3775.3487-.7337.7197-1.0667 1.1111z" fill="#fff"/><path d="m102.844 80.4c-.034-.1843-.113-.3574-.229-.5045-.116-.1472-.266-.2638-.437-.3399-1.956-.8445-5.2893 2.3111-7.3782 7.0222s-2.2666 9.1555-.3111 10l.2222.0889c.3316.0698.6771.0227.9778-.1334 1.8667-1.1111 4-3.7777 5.5113-7.2 1.511-3.4222 2.178-6.8889 1.644-8.9333z" fill="#8cd9ff"/><path d="m63.844 77.1923c.1499-.771-.0997-1.4682-.5575-1.5572s-.9505.4639-1.1003 1.235c-.1499.771.0997 1.4682.5575 1.5572s.9505-.4639 1.1003-1.235z" fill="#000"/><path d="m70.3306 77.2858c.353-.1045.4866-.7044.2984-1.3399-.1882-.6354-.627-1.0658-.98-.9612-.3531.1045-.4866.7044-.2984 1.3399.1882.6354.627 1.0658.98.9612z" fill="#000"/><path d="m67.9111 71.5556c-.1778.1777-.2222.7555-.1778 1.4666.4597-.2924.9737-.4889 1.5111-.5778-.5333-.8888-.9777-1.1555-1.3333-.8888z" fill="#d11583"/><path d="m70.9776 71.1556c-.034.4086-.2235.7886-.5295 1.0615-.306.273-.7051.418-1.1149.4052h-.0889c-.5464.0538-1.0682.2534-1.5111.5778v-.4c.4267-.2849.9134-.4674 1.4222-.5334h.0444c.6667-.0444 1.2889-.2222 1.4222-1.1555-.0089-.0286-.0079-.0593.0027-.0872.0107-.028.0304-.0515.056-.0669.0257-.0154.0557-.0217.0854-.0179.0296.0037.0572.0173.0782.0386.0889 0 .1333.0889.1333.1778z" fill="#000"/><path d="m69.1111 72.4445c.5333-.4889.4889-.8889.4-1.4667" stroke="#000" stroke-linecap="round" stroke-miterlimit="10" stroke-width=".938578"/><path d="m72.4 71.3334h-2.1778" stroke="#000" stroke-linecap="round" stroke-miterlimit="10" stroke-width="3.75431"/><path d="m76.2221 71.6889h-3.5111c-.091-.0096-.1759-.0502-.2406-.1149s-.1053-.1497-.1149-.2407c0-.0943.0374-.1847.1041-.2514s.1571-.1041.2514-.1041h3.4223c-.0297.2407.0009.4851.0888.7111z" fill="#fff"/><path d="m63.111 73.2-.2666-.2667c-.5334-.6222-1.6889-.7111-2.4445.5778z" fill="#d11583"/><path d="m72.0887 111.911c-.4284.726-.9035 1.424-1.4222 2.089" stroke="#000" stroke-linecap="round" stroke-miterlimit="10" stroke-width="2.81573"/><path d="m70.6665 115.067c.54 0 .9778-.438.9778-.978s-.4378-.978-.9778-.978-.9778.438-.9778.978.4378.978.9778.978z" fill="#57f287"/><path d="m75.8665 112c.0837-.165.0996-.357.0444-.533-.0856-.216-.1897-.424-.3111-.623v-.133l-.6667-1.155c-.0294-.042-.0741-.07-.1241-.078s-.1013.004-.1425.033c-.0413.03-.0691.074-.0775.124-.0083.05.0036.102.033.143.2325.356.4404.727.6223 1.111l.0888.133c.3556.667.5778 1.067 0 1.956.2063-.31.3848-.637.5334-.978z" fill="#000"/><path d="m77.1999 108.889h.4c.0439-.235.0348-.476-.0267-.707s-.1739-.445-.3289-.626l-.1778-.312-.6222-1.111c-.0132-.022-.0311-.041-.0524-.055-.0212-.014-.0453-.024-.0707-.028-.0253-.005-.0513-.003-.0761.004-.0248.006-.0478.018-.0675.035-.0888.044-.0888.133-.0444.222l.6222 1.111.1778.311c.1407.153.2393.34.2861.543.0467.202.04.414-.0194.613z" fill="#000"/><path d="m77.2888 107.956h.8" stroke="#000" stroke-linecap="round" stroke-miterlimit="10" stroke-width=".938578"/><path d="m72.3999 111.733c.2825.562.6755 1.061 1.1556 1.467" stroke="#000" stroke-linecap="round" stroke-miterlimit="10" stroke-width=".938578"/><path d="m108.311 94.9778c-.35-.0089-.694.0882-.987.2786-.294.1903-.523.4651-.657.7881l-5.245 11.5115h-.978l5.245-11.5115c.134-.323.363-.5978.657-.7881.293-.1904.637-.2875.987-.2786z" fill="#000"/><path d="m91.5999 106.978h22.8441v1.466h-21.8219c-.1343 0-.2672-.026-.3912-.077-.124-.052-.2367-.127-.3316-.222-.095-.095-.1703-.208-.2216-.332-.0514-.124-.0778-.257-.0778-.391z" fill="#fff"/><path d="m124.444 94.9778h-16.133c-.35-.0089-.694.0882-.987.2786-.294.1903-.523.4651-.657.7881l-5.645 12.3995h17.289c.354.001.7-.099.999-.288s.538-.459.69-.778l5.111-11.378c.054-.1105.078-.2331.071-.3558-.008-.1227-.047-.2413-.114-.3443-.068-.103-.16-.1868-.27-.2432-.109-.0565-.231-.0837-.354-.0789z" fill="#fff"/><path d="m113.937 102.766c.703-.612.896-1.544.429-2.081s-1.417-.477-2.121.135-.896 1.544-.429 2.081 1.417.477 2.121-.135z" fill="#ffd73b"/><path d="m119.555 90.8445h-6.8c-.76 0-1.377.6168-1.377 1.3778v.0133c0 .7609.617 1.3778 1.377 1.3778h6.8c.761 0 1.378-.6169 1.378-1.3778v-.0133c0-.761-.617-1.3778-1.378-1.3778z" fill="#2b2854"/><path d="m117.289 94.9778h-3.378l.178-2.5333h2.311z" fill="#2b2854"/><path d="m119.556 90.8445h-5.112c-.76 0-1.377.6168-1.377 1.3778v.0133c0 .7609.617 1.3778 1.377 1.3778h5.112c.76 0 1.377-.6169 1.377-1.3778v-.0133c0-.761-.617-1.3778-1.377-1.3778z" fill="#000"/><path d="m119.022 94.9778h-3.377l-.889-2.5333h3.377z" fill="#000"/><path d="m58.971 82.3587c.4137-.3471.2885-1.1772-.2795-1.8542-.568-.6769-1.3638-.9442-1.7774-.5971-.4137.3471-.2886 1.1772.2794 1.8542.568.6769 1.3638.9442 1.7775.5971z" fill="#f07" opacity=".3"/><path d="m72.9777 76.3111c-.3111.1778-.5333.8-.4889 1.5111.0445.7111.4 1.6.8 1.6s.5778-.4.6667-.9778c.0889-.5777-.6222-1.4222-.9778-2.1333z" fill="#f07" opacity=".3"/><path d="m140.578 111.111c-.209-.144-.388-.328-.525-.542-.138-.213-.231-.452-.275-.702l-.133-.845c0-.044-.045-.044-.089-.044h-.089l-.089.844c-.106.499-.391.941-.8 1.245h-.133v.089l.133.088c.206.137.383.314.52.52.138.206.233.437.28.68l.089.845c.044.044.044.089.089.089.023 0 .046-.01.063-.026.016-.017.026-.04.026-.063l.133-.845c.039-.245.131-.48.269-.687s.319-.382.531-.513l.089-.088h.044c0-.045 0-.089-.044-.089z" fill="#808aff"/><path d="m90.0444 81.5111c-.2054-.1333-.3793-.3096-.5098-.5168-.1304-.2072-.2143-.4403-.2457-.6832l-.1333-.8444c0-.0236-.0094-.0462-.0261-.0629-.0166-.0166-.0393-.026-.0628-.026-.0236 0-.0462.0094-.0629.026-.0167.0167-.026.0393-.026.0629l-.1334.8444c-.0314.2429-.1152.476-.2457.6832-.1304.2072-.3044.3835-.5098.5168h-.1333v.0889c0 .0445.0444.0445.0444.0889h.1333c.2067.1424.3808.3269.511.5414.1303.2144.2136.4541.2446.7031l.1333.8444c0 .0445.0445.0445.0889.0445.0445 0 .0889 0 .0889-.0445l.1333-.8444c.031-.249.1144-.4887.2446-.7031.1302-.2145.3044-.399.511-.5414h.1333c0-.0444.0445-.0444.0445-.0889v-.0889z" fill="#ffb619"/><path d="m168.355 20.7555c-.394-.2481-.73-.5795-.984-.971-.253-.3916-.418-.8338-.482-1.2956l-.222-1.5556c0-.0889-.089-.1333-.178-.1333-.036 0-.069.014-.094.039s-.04.059-.04.0943l-.266 1.5556c-.065.4564-.225.894-.47 1.2845s-.57.7251-.952.9821l-.223.1334-.089.1333c0 .0445.045.1333.089.1333l.223.1334c.379.261.7.5967.945.9865.244.3897.407.8254.477 1.2801l.266 1.6c.012.0307.029.0585.052.0816.023.023.051.0407.082.0518.04.0013.08-.0113.112-.0355s.056-.0587.066-.0979l.222-1.6c.07-.46.237-.9.49-1.2907.253-.3908.586-.7234.976-.9759l.223-.1334c.044 0 .044-.0888.044-.1333.002-.0241-.001-.0483-.008-.0712-.008-.023-.02-.0441-.036-.0621z" fill="#3442d9"/><path d="m42.8 40.6667c-.187-.128-.3463-.2924-.4685-.4833s-.2047-.4044-.2426-.6278l-.1333-.8c0-.0118-.0047-.0231-.013-.0315-.0084-.0083-.0197-.013-.0315-.013-.0444 0-.0888 0-.0888.0445l-.1334.8c-.0299.226-.109.4426-.2319.6346s-.2865.3547-.4792.4765l-.1333.0889v.1333h.1333c.1981.1264.365.296.4882.4962.1232.2001.1994.4255.2229.6594l.1334.7555.0888.0889v-.0889l.1334-.7555c.0322-.2314.112-.4535.2344-.6524s.2847-.3702.4767-.5032h.1333v-.0889z" fill="#459ff7"/><path d="m90.9333 36.8889c-.3909-.2526-.7238-.5852-.9766-.9759-.2528-.3908-.4198-.8307-.49-1.2908l-.2222-1.5556c-.0445-.0889-.0889-.1777-.1778-.1777s-.1334.0888-.1334.1777l-.2666 1.5556c-.0702.4601-.2372.9-.4901 1.2908-.2528.3907-.5857.7233-.9766.9759l-.1778.1333c-.0444 0-.0889.0889-.0889.1333 0 .0445.0445.0889.0889.1334l.1778.1333c.3949.2481.7307.5795.9841.9711.2533.3915.418.8337.4826 1.2956l.2666 1.5555c0 .0354.0141.0693.0391.0943s.0589.039.0943.039c.0889 0 .1333-.0444.1778-.1333l.2222-1.5555c.0645-.4619.2292-.9041.4826-1.2956.2533-.3916.5892-.723.984-.9711l.1778-.1333c.0445-.0445.0889-.0889.0889-.1334 0-.0444-.0444-.1333-.0889-.1333z" fill="#57f287"/><path d="m154.756 72.8445c-.116-.0755-.214-.1735-.291-.288-.076-.1146-.128-.2434-.154-.3787v-.4889h-.089c-.011 0-.023.0047-.031.013-.008.0084-.013.0197-.013.0314l-.089.4889c-.017.1382-.066.2705-.143.3863s-.18.2118-.301.2804c.126.0622.233.1566.311.2737.078.117.124.2526.133.393l.089.4444h.089v-.4444c.02-.1372.07-.2682.147-.3835s.178-.212.297-.2832z" fill="#8cd9ff"/></svg>