<svg height="154" viewBox="0 0 254 154" width="254" xmlns="http://www.w3.org/2000/svg" xmlns:xlink="http://www.w3.org/1999/xlink"><mask id="a" fill="#fff"><path d="m.7944 147h203.416468v-146.15374522h-203.416468z" fill="#fff" fill-rule="evenodd"/></mask><g fill="none" fill-rule="evenodd"><g transform="translate(2 3)"><path d="m90.8452.7799h147.807c6.819 0 12.348 5.528 12.348 12.347s-5.529 12.348-12.348 12.348h-76.549c-6.602 0-11.956 5.353-11.956 11.956 0 6.603 5.354 11.956 11.956 11.956h46.478c15.419 0 27.919 12.5 27.919 27.92 0 15.419-12.5 27.919-27.919 27.919h-178.317c-16.714 0-30.264-13.55-30.264-30.264s13.55-30.264 30.264-30.264h16.663c12.127 0 21.959-9.832 21.959-21.959 0-12.128 9.831-21.959 21.959-21.959" fill="#f6f6f7" fill-opacity=".9" transform="translate(0 18.154)"/><path d="m66.9351 53.2166-2.88-4.778c-.285-.474-.133-1.088.34-1.373l.001-.001-1.691-2.807-.001.001c-.162.098-.34.144-.516.144-.338 0-.67-.172-.857-.484l-7.257-12.04c-1.236 12.311 5.786 22.527 5.862 22.637.155.222.214.497.163.764l-1.475 7.615c2.436-3.372 5.217-6.633 8.311-9.678" fill="#fff"/><path d="m65.7681 47.4051 2.648 4.394c4.351-4.056 9.255-7.674 14.622-10.569-6.85-7.593-14.133-10.324-19.18-11.252-3.902-.717-7.058-.498-8.756-.269l7.942 13.176c.285.474.133 1.087-.339 1.373l1.691 2.807c.473-.285 1.087-.134 1.372.34" fill="#dcddde"/><path d="m162.8789 62.8953-1.475-7.616c-.05-.266.008-.541.163-.764.077-.109 7.091-10.345 5.862-22.636l-12.861 21.337c3.094 3.045 5.876 6.306 8.311 9.679" fill="#fff"/><path d="m157.6455 29.9783c-5.048.928-12.331 3.659-19.18 11.252 5.367 2.895 10.271 6.513 14.621 10.569l13.315-22.091c-1.698-.228-4.855-.447-8.756.27" fill="#dcddde"/><path d="m174.1211 118.9618c0-2-1.548-3.626-3.506-3.79.224 2.494.454 5.059.672 7.465 1.627-.439 2.834-1.912 2.834-3.675" fill="#dcddde"/><path d="m68.4068 132.8709.852-13.916c-1.51-.53-2.946-1.099-4.301-1.707.289.969.469 1.972.515 3.004.011.25-.012.496-.015.745l.441 8.77c.047 1.049-.047 2.086-.254 3.104z" fill="#f6f6f7"/><path d="m151.0928 132.8709-.812-13.265c-10.046 3.172-23.225 4.775-39.529 4.775-16.305 0-29.483-1.603-39.529-4.775l-.812 13.265z" fill="#f6f6f7"/><path d="m152.2442 118.9554.853 13.916h17.108c-.337-3.712-1.412-15.555-2.123-23.602-3.653 4.035-8.941 7.263-15.838 9.686" fill="#f6f6f7"/><path d="m87.8418 92.0448h-13.635c-.552 0-1-.447-1-1s.448-1 1-1h13.635c.552 0 1 .447 1 1s-.448 1-1 1zm41.616 0c-.553 0-1-.447-1-1s.447-1 1-1h13.634c.553 0 1 .447 1 1s-.447 1-1 1zm-26.703 13.229c-.25-.297-.305-.712-.141-1.065.165-.351.518-.577.907-.577h14.462c.388 0 .742.226.906.577.164.353.11.768-.14 1.065l-7.231 8.62c-.19.226-.471.357-.766.357-.296 0-.577-.131-.766-.357zm-49.052-23.95c.349 0 .673.182.854.48 3.523 5.787 3.523 12.696 0 18.482-.182.298-.505.48-.854.48h-3.136c.702 2.038 1.697 3.93 2.986 5.677 4.669 1.703 8.386 4.645 10.365 8.298 10.19 5.113 25.741 7.64 46.834 7.64 35.372 0 55.185-7.094 60.185-21.615h-3.136c-.349 0-.673-.182-.855-.48-3.523-5.786-3.523-12.695 0-18.482.182-.298.506-.48.855-.48h2.465c-5.121-16.05-19.953-34.007-39.808-41.601v.601c0 .417-.259.79-.649.937-5.967 2.237-12.512 3.355-19.057 3.355-6.546 0-13.091-1.118-19.057-3.355-.391-.147-.649-.52-.649-.937v-.601c-19.855 7.594-34.687 25.551-39.808 41.601z" fill="#dcddde"/><path d="m93.0454 39.6258c11.142 3.992 24.271 3.992 35.412 0v-4.142c-3.384 2.294-10.575 3.48-17.706 3.48-3.456 0-6.841-.275-9.79-.798-.544-.096-.907-.614-.811-1.158.001-.006.004-.009.005-.015-.898-.182-1.739-.386-2.514-.611-.003.008-.001.016-.003.024-.176.526-.741.806-1.266.631-1.465-.491-2.538-1.021-3.327-1.557z" fill="#dcddde"/><path d="m100.1558 36.993c.104-.535.611-.896 1.154-.796 2.836.501 6.101.767 9.442.767 10.808 0 17.706-2.669 17.706-4.506s-6.898-4.506-17.706-4.506c-10.809 0-17.706 2.669-17.706 4.506 0 .625 1.037 1.703 3.962 2.682.516.173.793.726.633 1.242.776.225 1.617.429 2.515.611" fill="#f6f6f7"/><path d="m52.916 91.0448c0 3.221-.754 5.973-1.961 7.721h2.175c2.752-4.873 2.752-10.568 0-15.442h-2.175c1.207 1.747 1.961 4.5 1.961 7.721" fill="#fff"/><path d="m168.3731 98.7655h2.175c-1.206-1.748-1.96-4.5-1.96-7.721 0-3.22.754-5.973 1.96-7.72h-2.175c-2.752 4.874-2.752 10.568 0 15.441" fill="#fff"/><path d="m115.8384 105.6317h-10.174l5.087 6.063z" fill="#fff"/><path d="m44.5782 91.0448c0 4.419 1.673 7.721 3.169 7.721s3.169-3.302 3.169-7.721-1.673-7.721-3.169-7.721-3.169 3.302-3.169 7.721" fill="#dcddde"/><path d="m176.9248 91.0448c0-4.419-1.673-7.721-3.169-7.721-1.495 0-3.168 3.302-3.168 7.721s1.673 7.721 3.168 7.721c1.496 0 3.169-3.302 3.169-7.721" fill="#dcddde"/><path d="m87.6529 24.16c4.433 0 8.039-3.605 8.039-8.038s-3.606-8.039-8.039-8.039-8.039 3.606-8.039 8.039 3.606 8.038 8.039 8.038" fill="#dcddde"/><path d="m63.9009 129.8621-.134-2.666c-1.011 1.823-2.438 3.526-4.289 5.022-3.976 3.214-9.351 5.126-15.136 5.385-.448.021-.896.03-1.34.03-5.294 0-10.299-1.415-14.218-4.04-1.986-1.33-3.565-2.906-4.737-4.64l.121 2.688c.17 3.782 2.356 7.266 6.156 9.811 3.894 2.609 8.985 3.908 14.354 3.674 5.362-.241 10.323-1.995 13.969-4.942 3.558-2.876 5.423-6.541 5.254-10.322" fill="#dcddde"/><path d="m37.1826 118.5213 13.271-.049h.004c.551 0 .998.445 1 .996.002.553-.444 1.002-.996 1.004l-13.271.049h-.004c-.551 0-.998-.445-1-.996-.002-.553.444-1.002.996-1.004m-13.441 3.6c.17 3.781 2.356 7.265 6.156 9.81 3.894 2.61 8.988 3.91 14.354 3.674 5.362-.24 10.323-1.995 13.969-4.942 3.33-2.691 5.154-6.077 5.238-9.599l-.079-1.563c-.908-7.21-9.163-12.672-19.175-12.672-.411 0-.823.008-1.24.027-10.954.491-19.577 7.339-19.223 15.265" fill="#fff"/><g fill="#b9bbbe"><path d="m114.46 107.2743-2.942 3.508c-.4.476-1.133.476-1.533 0l-2.942-3.508c-.546-.651-.083-1.643.766-1.643h5.885c.849 0 1.312.992.766 1.643zm-4.475 6.619c.19.227.471.358.767.358.295 0 .576-.131.766-.358l7.231-8.619c.25-.298.304-.713.14-1.065s-.518-.578-.907-.578h-14.461c-.389 0-.743.226-.907.578s-.11.767.14 1.065z"/><path d="m143.0918 92.0448c.553 0 1-.447 1-1s-.447-1-1-1h-13.634c-.553 0-1 .447-1 1s.447 1 1 1z"/><path d="m87.8418 90.0448h-13.635c-.552 0-1 .447-1 1s.448 1 1 1h13.635c.552 0 1-.447 1-1s-.448-1-1-1"/><path d="m238.6875 132.8709h-20.487c-.553 0-1 .447-1 1s.447 1 1 1h20.487c.553 0 1-.447 1-1s-.447-1-1-1"/><path d="m213.6914 132.8709h-1.504c-.553 0-1 .447-1 1s.447 1 1 1h1.504c.553 0 1-.447 1-1s-.447-1-1-1"/><path d="m138.3604 22.7902c2.292-.421 4.577-.624 6.829-.624 17.842-.001 33.742 12.744 37.077 30.905 2.698 14.693-3.556 28.987-14.872 37.269-1.039.76-2.518.08-2.646-1.2-.174-1.731-.543-3.849-1.317-5.205-.868-1.523-.435-3.432.813-4.663 6.205-6.12 9.381-15.104 7.691-24.303-1.309-7.136-5.33-13.342-11.321-17.475-.454-.313-1.077-.199-1.391.256-.313.454-.199 1.077.256 1.391 5.55 3.829 9.276 9.578 10.489 16.189 1.576 8.579-1.415 16.954-7.238 22.626-1.844 1.796-4.896 1.269-5.964-1.074-1.422-3.121-3.393-7.244-5.025-9.875l-1.303-6.733c-.598-3.088-.141-6.273 1.221-9.109 2.325-4.839 5.197-13.21 3.332-22.539-.002-.009-.007-.017-.009-.025-.006-.025-.018-.047-.025-.072-.028-.088-.065-.17-.115-.246-.018-.029-.037-.055-.058-.082-.07-.086-.148-.162-.241-.221-.006-.004-.01-.011-.016-.014-.001-.001-.003-.001-.004-.002-.082-.049-.17-.087-.265-.111-.185-.046-4.6-1.143-10.87-.015-4.562.823-10.828 3.014-17.047 8.553-2.322 2.067-5.587 2.753-8.474 1.6-.072-.029-.145-.058-.217-.087-.716-.282-1.193-.964-1.193-1.733 0-.455.161-.899.462-1.24 5.398-6.125 12.806-10.555 21.441-12.141zm-86.888 97.308c0-.011-.001-.021-.001-.032-.061-1.279 1.16-2.242 2.357-1.787.065.024.13.049.195.073.728.274 1.203.982 1.155 1.759l-.725 11.848c-.026.426-.379.758-.806.758-.407 0-.75-.304-.801-.708 0 0-1.362-11.661-1.374-11.911zm-14.556-29.207c0 4.419-1.673 7.72-3.169 7.72s-3.169-3.301-3.169-7.72 1.673-7.721 3.169-7.721 3.169 3.302 3.169 7.721zm1.642 7.72c-.681 0-1.147-.697-.865-1.317.768-1.685 1.223-3.903 1.223-6.403 0-2.501-.455-4.72-1.223-6.404-.282-.619.184-1.317.865-1.317.351 0 .683.192.845.504 2.387 4.591 2.387 9.844 0 14.433-.162.312-.494.504-.845.504zm58.193 25.616c14.373 0 26.317-1.246 35.827-3.714 1.927-.5 3.823.903 3.944 2.889l.08 1.304c.266 4.342-3.184 8.011-7.536 8.011h-64.63c-4.351 0-7.801-3.669-7.535-8.011l.08-1.304c.121-1.986 2.017-3.389 3.943-2.889 9.511 2.468 21.455 3.714 35.827 3.714zm53.639 8.49h-6.299c-2.806 0-5.128-2.185-5.3-4.987l-.41-6.68c-.08-1.308.687-2.529 1.907-3.009 3.691-1.452 6.874-3.159 9.544-5.12 1.89-1.389 4.577-.118 4.786 2.219.365 4.074.752 8.355 1.062 11.795.282 3.109-2.168 5.782-5.29 5.782zm6.374-16.041c-.084-.937.967-1.515 1.737-.975.979.688 1.62 1.82 1.62 3.107 0 1.083-.455 2.056-1.184 2.748-.643.611-1.72.158-1.8-.726-.123-1.365-.249-2.763-.373-4.154zm-20.895-67.864c-2.83-2.351-5.86-4.511-9.069-6.414-1.188-.705-1.401-2.358-.411-3.321 6.264-6.087 12.679-8.412 17.256-9.253 2.22-.408 4.198-.513 5.804-.485 1.355.023 2.182 1.494 1.481 2.656l-9.56 15.861c-1.161 1.928-3.771 2.393-5.501.956zm11.697 5.549c-.154.223-.213.498-.162.764l.582 3.003c.219 1.133-1.217 1.816-1.948.925-.883-1.078-1.803-2.139-2.758-3.18-1.568-1.711-1.853-4.236-.655-6.224l8.548-14.18c.681-1.132 2.427-.596 2.362.723-.512 10.209-5.902 18.074-5.969 18.169zm9.022 36.53c0-4.419 1.672-7.721 3.168-7.721s3.168 3.302 3.168 7.721-1.672 7.72-3.168 7.72-3.168-3.301-3.168-7.72zm-1.643-7.721c.681 0 1.147.697.865 1.317-.768 1.684-1.222 3.903-1.222 6.404 0 2.5.454 4.718 1.222 6.403.282.62-.184 1.317-.865 1.317-.352 0-.684-.192-.846-.504-2.387-4.589-2.387-9.842 0-14.433.162-.312.494-.504.846-.504zm-75.9-44.971c0-1.251 1.253-2.099 2.419-1.644.285.111.587.22.908.328.525.175 1.091-.106 1.266-.631.002-.008 0-.016.003-.024.159-.517-.118-1.069-.634-1.242-2.924-.979-3.962-2.057-3.962-2.682 0-1.837 6.898-4.506 17.706-4.506 10.809 0 17.706 2.669 17.706 4.506s-6.897 4.506-17.706 4.506c-3.341 0-6.605-.266-9.442-.767-.543-.1-1.05.261-1.154.796-.001.005-.004.009-.005.014-.096.544.267 1.063.811 1.159 2.949.522 6.335.798 9.79.798 5.727 0 11.491-.766 15.293-2.254 1.163-.456 2.413.395 2.413 1.644 0 .76-.48 1.447-1.201 1.684-10.473 3.442-22.537 3.442-33.009 0-.722-.237-1.202-.924-1.202-1.684zm-2 1.369v.602c0 .413.254.788.642.933 5.968 2.24 12.516 3.359 19.064 3.359s13.096-1.119 19.065-3.359c.387-.145.641-.52.641-.933v-.602c18.883 7.223 33.224 23.82 38.987 39.234.429 1.146-.42 2.368-1.644 2.368-.342 0-.669.177-.848.47-3.531 5.792-3.531 12.71 0 18.502.179.293.506.469.848.469h.001c1.545 0 2.553 1.648 1.83 3.012-6.619 12.491-26.046 18.604-58.88 18.604-19.527 0-34.305-2.166-44.476-6.545-1.313-.565-2.478-1.453-3.31-2.616-1.739-2.432-4.291-4.47-7.378-5.929-1.563-.739-2.867-1.93-3.682-3.453-.01-.019-.02-.038-.03-.057-.725-1.366.281-3.016 1.827-3.016.343 0 .669-.176.848-.469 3.532-5.791 3.532-12.71 0-18.503-.178-.293-.505-.469-.848-.469-1.223 0-2.072-1.222-1.644-2.368 5.763-15.414 20.104-32.011 38.987-39.234zm-31.109 14.793c-.067-.095-5.402-7.858-5.961-17.994-.075-1.366 1.739-1.92 2.446-.749l4.91 8.147c.187.311.518.483.857.483.176 0 .354-.046.515-.144h.001c.472-.286.625-.899.34-1.373l-6.487-10.762c-.693-1.15.125-2.606 1.468-2.63 1.611-.029 3.6.075 5.833.485 5.047.928 12.33 3.659 19.18 11.252-3.872 2.089-7.503 4.553-10.858 7.287-2.034 1.656-5.058 1.135-6.412-1.112-.285-.474-.9-.626-1.372-.34 0 0 0 0-.001 0-.473.285-.625.9-.34 1.373l2.108 3.498c.454.753.33 1.711-.284 2.341-1.859 1.902-3.599 3.883-5.21 5.916-.518.653-1.557.178-1.398-.64l.827-4.274c.052-.267-.007-.542-.162-.764zm-15.731 52.314c10.011 0 18.266 5.462 19.175 12.673l.078 1.562c-.084 3.522-1.908 6.908-5.238 9.599-3.646 2.947-8.607 4.702-13.968 4.942-5.367.236-10.46-1.064-14.355-3.674-3.8-2.545-5.986-6.029-6.156-9.81-.354-7.926 8.269-14.774 19.223-15.265.417-.018.83-.027 1.241-.027zm14.442 33.355c-3.646 2.947-8.607 4.701-13.969 4.942-5.369.234-10.461-1.065-14.355-3.674-3.8-2.545-5.986-6.029-6.155-9.811l-.121-2.688c1.171 1.734 2.751 3.31 4.737 4.64 3.918 2.625 8.923 4.04 14.218 4.04.444 0 .891-.009 1.339-.03 5.785-.259 11.161-2.171 15.136-5.385 1.851-1.496 3.279-3.199 4.29-5.022l.134 2.666c.169 3.781-1.697 7.446-5.254 10.322zm29.005-132.101c4.433 0 8.039 3.606 8.039 8.039 0 4.432-3.606 8.038-8.039 8.038-4.432 0-8.038-3.606-8.038-8.038 0-4.433 3.606-8.039 8.038-8.039zm117.702 124.788h-25.013c-4.604 0-8.448-3.512-8.862-8.098l-.01-.109c2.652-.544 4.652-2.894 4.652-5.702 0-3.165-2.539-5.742-5.687-5.815l-.006-.071c-.311-3.492.387-6.966 1.784-10.182.313-.722.589-1.462.83-2.22.001-.001.003-.001.004-.002.231.055.467.093.71.093 1.608 0 2.999-1.247 3.93-3.28.921-2.008 2.472-3.653 4.279-4.922 3.812-2.675 7.16-6.035 9.886-9.988 6.03-8.741 8.296-19.293 6.383-29.711-3.464-18.857-19.883-32.544-39.042-32.544v2l-.001-2h-.002c-2.397 0-4.817.221-7.19.657-8.562 1.572-15.973 5.803-21.556 11.675.004-.064.014-.128.014-.194 0-3.247-5.726-5.316-12.774-6.122-1.543-.177-2.352-1.922-1.469-3.201l.144-.209c.62-.899 1.852-1.126 2.751-.505l1.632 1.126c.959.661 2.267.555 3.112-.254 4.744-4.57 10.228-8.119 16.296-10.554 1.078-.432 1.689-1.579 1.479-2.722l-.299-1.627c-.23-1.246.595-2.441 1.841-2.67l11.66-2.141c1.245-.229 2.44.595 2.67 1.841l.297 1.628c.21 1.143 1.189 1.999 2.351 2.02 6.536.117 12.923 1.487 18.984 4.073 1.08.456 2.336.089 2.998-.87l.516-.749c.956-1.387 2.856-1.736 4.241-.78l8.516 5.874c1.386.956 1.734 2.855.778 4.241l-.505.732c-.664.961-.586 2.271.225 3.112 4.579 4.751 8.137 10.243 10.572 16.322.431 1.076 1.584 1.678 2.724 1.469l.132-.024c2.07-.38 4.056.99 4.436 3.06l1.593 8.674c.38 2.07-.99 4.057-3.06 4.437l-.129.024c-1.141.209-2.005 1.182-2.026 2.341-.116 6.549-1.49 12.946-4.082 19.013-.459 1.075-.066 2.326.896 2.99l1.266.874c1.091.752 1.366 2.247.614 3.338l-6.611 9.583c-.752 1.091-2.247 1.366-3.338.613l-1.284-.885c-.963-.663-2.271-.554-3.111.253-4.743 4.568-10.227 8.118-16.296 10.552-1.079.432-1.69 1.581-1.48 2.724l.894 4.866c.101.543.615.909 1.164.803.543-.099.902-.621.803-1.164l-.894-4.867c-.04-.22.08-.435.287-.518 6.297-2.529 11.986-6.214 16.907-10.953.161-.155.407-.177.591-.05l4.083 2.816c.454.311 1.077.198 1.391-.256l10.47-15.181c.313-.454.199-1.077-.255-1.39l-4.084-2.817c-.184-.127-.251-.364-.163-.569 2.68-6.285 4.104-12.913 4.231-19.697.004-.222.162-.411.382-.451l4.867-.894c.261-.048.492-.197.643-.416.15-.218.208-.487.16-.748l-3.331-18.138c-.1-.543-.61-.906-1.164-.803l-4.867.894c-.216.036-.435-.079-.518-.286-2.528-6.297-6.215-11.985-10.954-16.907-.155-.161-.177-.408-.05-.591l2.817-4.083c.15-.218.208-.487.16-.748s-.198-.492-.416-.643l-15.181-10.47c-.454-.313-1.077-.2-1.391.255l-2.816 4.083c-.125.182-.365.252-.567.164-6.288-2.681-12.915-4.105-19.7-4.232-.222-.004-.411-.163-.452-.382l-.893-4.866c-.099-.543-.615-.904-1.164-.803l-18.138 3.331c-.261.048-.492.198-.643.416-.15.218-.208.488-.16.748l.895 4.867c.04.219-.08.434-.287.517-6.297 2.529-11.986 6.216-16.907 10.954-.161.155-.407.177-.59.05l-4.084-2.816c-.218-.152-.487-.205-.748-.16-.261.047-.493.197-.643.416l-4.567 6.622c-.361-.006-.723-.01-1.084-.01-9.792 0-19.706 2.234-19.706 6.506 0 .11.01.225.025.342-.005.043-.025.082-.025.126v3.392c0 .766-.47 1.454-1.183 1.733l-.041.017c-.561.22-1.169-.185-1.169-.788v-5.886c0-2.644 1.369-5.164 3.703-6.407 3.338-1.777 5.56-5.383 5.318-9.473-.301-5.077-4.539-9.225-9.621-9.424-5.716-.223-10.438 4.364-10.438 10.032 0 3.797 2.12 7.108 5.238 8.813 2.355 1.286 3.8 3.773 3.8 6.456v7.504c0 .33-.191.629-.49.769l-.018.008c-.762.356-1.658.165-2.233-.448-14.247-15.18-30.497-11.259-30.667-11.217-.094.025-.183.063-.264.111-.001.001-.003.001-.004.002-.005.003-.008.008-.012.011-.096.06-.176.138-.246.225-.021.026-.039.052-.057.081-.05.076-.088.158-.115.247-.008.024-.019.046-.025.071-.002.008-.007.016-.009.025-1.642 8.208.385 15.676 2.48 20.648 1.841 4.372 2.427 9.17 1.525 13.828-.477 2.463-1.369 4.824-2.58 7.021-2.036 3.694-3.644 7.42-4.765 11.047h-.313c-.143 0-.276.037-.402.093-.232-.055-.468-.093-.71-.093-2.947 0-5.169 4.179-5.169 9.721s2.222 9.72 5.169 9.72c.242 0 .478-.038.71-.093.002.001.003.001.005.002.546 1.73 1.287 3.367 2.219 4.91-2.444-.581-5.075-.846-7.806-.726-12.056.54-21.536 8.324-21.132 17.353 0 0 .096 1.952.207 4.186.176 3.521-2.632 6.474-6.156 6.474-.553 0-1 .447-1 1s.447 1 1 1h1.274c2.961 0 5.817 1.354 7.508 3.784 1.158 1.665 2.715 3.173 4.634 4.459 3.919 2.625 8.923 4.04 14.218 4.04.444 0 .891-.01 1.34-.03 5.784-.259 11.16-2.171 15.135-5.384 1.258-1.017 2.327-2.126 3.199-3.305 1.665-2.251 4.307-3.564 7.108-3.564 0 0 100.966.07 101.095.07.031 0 34.049-.07 34.049-.07.553 0 1-.447 1-1s-.447-1-1-1z" mask="url(#a)" transform="translate(14 .154)"/><path d="m37.1866 120.5213h.004l13.271-.049c.552-.002.998-.451.996-1.004-.002-.551-.449-.996-1-.996h-.004l-13.271.049c-.552.002-.998.451-.996 1.004.002.551.449.996 1 .996"/><path d="m218.2012 105.9608c.552 0 1-.448 1-1 0-.833.676-1.51 1.51-1.51.553 0 1-.448 1-1s-.447-1-1-1c-.834 0-1.51-.676-1.51-1.51 0-.552-.448-1-1-1-.553 0-1 .448-1 1 0 .834-.677 1.51-1.51 1.51-.553 0-1 .448-1 1s.447 1 1 1c.833 0 1.51.677 1.51 1.51 0 .552.447 1 1 1"/><path d="m29.6592 46.9354c.256 0 .512-.098.707-.293l1.183-1.183c.391-.391.391-1.024 0-1.414-.39-.391-1.023-.391-1.414 0l-1.183 1.183c-.391.391-.391 1.023 0 1.414.195.195.451.293.707.293"/><path d="m23.7427 52.8519c.256 0 .512-.098.707-.293l1.184-1.183c.39-.39.39-1.024 0-1.414-.391-.391-1.024-.391-1.414 0l-1.184 1.183c-.391.39-.391 1.023 0 1.414.195.195.451.293.707.293"/><path d="m30.1353 52.5589c.195.195.451.293.707.293s.512-.098.707-.293c.391-.391.391-1.023 0-1.414l-1.183-1.183c-.391-.391-1.023-.391-1.414 0-.391.39-.391 1.023 0 1.414z"/><path d="m24.2193 46.6424c.195.195.451.293.707.293s.512-.098.707-.293c.391-.391.391-1.024 0-1.414l-1.184-1.183c-.39-.391-1.024-.391-1.414 0-.39.39-.39 1.024 0 1.414z"/></g></g><path d="m0 0h254v154h-254z"/></g></svg>