<svg fill="none" height="74" width="153" xmlns="http://www.w3.org/2000/svg" xmlns:xlink="http://www.w3.org/1999/xlink"><clipPath id="a"><path d="m0 0h153v73.867h-153z"/></clipPath><g clip-path="url(#a)"><path d="m129.404 14.903v27.52c0 2.732 2.236 4.967 4.968 4.967 10.283 0 18.628 8.346 18.628 18.63v3.874h-153v-15.499c0-12.22 9.935-22.156 22.155-22.156h27.123c9.538 0 17.287-7.75 17.287-17.287a14.883 14.883 0 0 1 14.903-14.902h33.034c8.246-.05 14.902 6.606 14.902 14.853z" fill="#72767d" opacity=".2"/><path d="m76.252 73.867c19.204 0 34.772-15.568 34.772-34.773 0-19.204-15.568-34.772-34.772-34.772-19.205 0-34.773 15.568-34.773 34.772 0 19.205 15.568 34.773 34.773 34.773z" fill="#202225"/><path d="m51.414 40.287 24.936 26.129 24.738-26.13h-6.954v-40.286h-35.766v40.287z" fill="#b9bbbe"/><path d="m114.005 41.081-8.942 8.942v14.903l8.942 8.941 8.941-8.941v-14.903zm4.471 21.957-4.471 4.47-4.471-4.47v-11.177l4.471-4.47 4.471 4.47z" fill="#72767d"/><path d="m111.024 52.457v9.985l2.981 2.98 2.98-2.98v-9.985l-2.98-2.98z" fill="#72767d"/><path d="m114.005 41.081v6.31l4.471 4.47 4.47-1.838z" fill="#b9bbbe"/><path d="m27.073 5.166-8.942 8.942v14.902l8.942 8.942 8.942-8.942v-14.902zm4.47 21.957-4.47 4.47-4.47-4.47v-11.177l4.47-4.471 4.47 4.47z" fill="#72767d"/><path d="m24.093 16.542v9.985l2.98 2.98 2.98-2.98v-9.985l-2.98-2.98z" fill="#72767d"/><path d="m27.073 5.166v6.309l4.47 4.47 4.472-1.837z" fill="#b9bbbe"/><path d="m14.008 51.662-1.241 2.633c-.298.596.347 1.242.943.944l2.633-1.242c.199-.1.447-.1.646 0l2.633 1.242c.596.298 1.242-.348.944-.944l-1.242-2.633a.737.737 0 0 1 0-.645l1.242-2.633c.298-.596-.348-1.242-.944-.944l-2.633 1.242c-.199.1-.447.1-.646 0l-2.633-1.242c-.596-.298-1.242.348-.943.944l1.241 2.633c.1.248.1.447 0 .645z" fill="#fff"/><path d="m138.197 27.868-1.242 2.633c-.298.596.348 1.241.944.944l2.632-1.242c.199-.1.448-.1.646 0l2.633 1.242c.596.297 1.242-.348.944-.944l-1.242-2.633a.74.74 0 0 1 0-.646l1.242-2.633c.298-.596-.348-1.242-.944-.944l-2.633 1.242c-.198.1-.447.1-.646 0l-2.632-1.242c-.596-.298-1.242.348-.944.944l1.242 2.633a.74.74 0 0 1 0 .646z" fill="#b9bbbe"/><path d="m119.469 12.469a.996.996 0 0 1 -.993-.994v-.993c0-.547.447-.994.993-.994.547 0 .994.447.994.994v.993a.996.996 0 0 1 -.994.994zm0 7.948a.996.996 0 0 1 -.993-.994v-.993c0-.547.447-.994.993-.994.547 0 .994.447.994.994v.993a.997.997 0 0 1 -.994.994zm2.484-5.465c0-.546.447-.993.993-.993h.994c.546 0 .993.447.993.993a.996.996 0 0 1 -.993.994h-.994a.996.996 0 0 1 -.993-.994zm-7.948 0c0-.546.447-.993.993-.993h.994c.546 0 .993.447.993.993a.996.996 0 0 1 -.993.994h-.994a.996.996 0 0 1 -.993-.994z" fill="#4f545c"/></g></svg>