<svg width="275" height="160" viewBox="0 0 275 160" fill="none" xmlns="http://www.w3.org/2000/svg">
<g clip-path="url(#clip0)">
<path d="M30.6301 72.31C33.6435 73.4535 36.3933 75.1972 38.7127 77.4353C41.0321 79.6734 42.8727 82.3593 44.1229 85.33C45.3731 88.3008 46.0068 91.4946 45.9857 94.7176C45.9646 97.9407 45.2891 101.126 44.0001 104.08C42.7766 107.018 40.9434 109.663 38.6218 111.84C36.3003 114.016 33.5431 115.676 30.5327 116.708C27.5222 117.74 24.3269 118.122 21.158 117.827C17.9892 117.533 14.9189 116.569 12.1501 115C7.01385 112.087 3.13172 107.383 1.24622 101.787C-0.639282 96.1917 -0.395802 90.0974 1.93009 84.67C4.21316 79.3198 8.46629 75.0526 13.8088 72.7517C19.1514 70.4509 25.1741 70.2927 30.6301 72.31Z" fill="#FF78B8"/>
<path d="M20.6492 80.0207C21.6054 77.667 19.8047 74.7125 16.6272 73.4216C13.4497 72.1307 10.0987 72.9923 9.14251 75.346C8.1863 77.6997 9.98699 80.6542 13.1645 81.9451C16.3419 83.236 19.693 82.3744 20.6492 80.0207Z" fill="white" stroke="#5865F2" stroke-width="1.79" stroke-miterlimit="10"/>
<path d="M16.033 91.2193C17.0412 88.7376 15.237 85.6609 12.0033 84.3471C8.7695 83.0334 5.33072 83.9801 4.32254 86.4617C3.31436 88.9433 5.11855 92.0201 8.35232 93.3338C11.5861 94.6476 15.0249 93.7009 16.033 91.2193Z" fill="white" stroke="#5865F2" stroke-width="1.79" stroke-miterlimit="10"/>
<path d="M13.8987 87.988C14.0136 87.2772 13.3532 86.5792 12.4237 86.429C11.4942 86.2788 10.6476 86.7332 10.5327 87.444C10.4178 88.1548 11.0782 88.8528 12.0077 89.003C12.9372 89.1532 13.7838 88.6988 13.8987 87.988Z" fill="black"/>
<path d="M18.9013 78.7508C19.1919 78.1737 18.7478 77.3635 17.9092 76.9412C17.0707 76.5189 16.1553 76.6444 15.8646 77.2215C15.574 77.7986 16.0182 78.6088 16.8567 79.0311C17.6953 79.4534 18.6107 79.3279 18.9013 78.7508Z" fill="black"/>
<path d="M10.5701 83.72L11.6901 81.13" stroke="#5865F2" stroke-width="1.79" stroke-miterlimit="10"/>
<path d="M18.0001 87.2L20.0701 83.2C20.1258 83.0965 20.2032 83.0062 20.297 82.9352C20.3907 82.8642 20.4986 82.8142 20.6134 82.7886C20.7281 82.763 20.8471 82.7624 20.9621 82.7868C21.0771 82.8112 21.1856 82.86 21.2801 82.93C22.9501 84.19 26.1501 87.28 18.8301 88.37C18.6827 88.3935 18.5317 88.3753 18.3941 88.3175C18.2566 88.2597 18.1379 88.1646 18.0516 88.0429C17.9652 87.9212 17.9146 87.7777 17.9055 87.6288C17.8964 87.4798 17.9292 87.3313 18.0001 87.2Z" fill="black"/>
<path d="M21.3801 85.69C20.6658 86.387 20.1277 87.2439 19.8101 88.19C23.8701 87.37 23.8101 85.79 22.8601 84.49C22.3177 84.8254 21.8204 85.2287 21.3801 85.69Z" fill="#E53794"/>
<path d="M243.5 16H31.5C27.0817 16 23.5 19.5817 23.5 24V152C23.5 156.418 27.0817 160 31.5 160H243.5C247.918 160 251.5 156.418 251.5 152V24C251.5 19.5817 247.918 16 243.5 16Z" fill="#292B2F"/>
<path d="M117.28 16H57.6001V160H117.28V16Z" fill="#202225"/>
<path d="M57.6 16H31.5C29.3783 16 27.3434 16.8429 25.8431 18.3431C24.3429 19.8434 23.5 21.8783 23.5 24V152C23.5 154.122 24.3429 156.157 25.8431 157.657C27.3434 159.157 29.3783 160 31.5 160H57.6V16Z" fill="#18191C"/>
<path d="M23.5 57.74H24.83C25.005 57.7387 25.1786 57.7722 25.3405 57.8385C25.5025 57.9049 25.6497 58.0028 25.7734 58.1266C25.8972 58.2503 25.9951 58.3975 26.0615 58.5595C26.1278 58.7214 26.1613 58.895 26.16 59.07V77.71C26.1496 78.0558 26.0049 78.3839 25.7566 78.6247C25.5083 78.8655 25.1759 79.0002 24.83 79H23.5V57.74Z" fill="white"/>
<path d="M45.93 57.74H35.29C32.3463 57.74 29.96 60.1263 29.96 63.07V73.71C29.96 76.6537 32.3463 79.04 35.29 79.04H45.93C48.8736 79.04 51.26 76.6537 51.26 73.71V63.07C51.26 60.1263 48.8736 57.74 45.93 57.74Z" fill="#7984F5"/>
<path d="M40.61 51.85C46.4918 51.85 51.26 47.0818 51.26 41.2C51.26 35.3182 46.4918 30.55 40.61 30.55C34.7281 30.55 29.96 35.3182 29.96 41.2C29.96 47.0818 34.7281 51.85 40.61 51.85Z" fill="#2F3136"/>
<path d="M134.59 46.01C140.472 46.01 145.24 41.2418 145.24 35.36C145.24 29.4782 140.472 24.71 134.59 24.71C128.708 24.71 123.94 29.4782 123.94 35.36C123.94 41.2418 128.708 46.01 134.59 46.01Z" fill="#2F3136"/>
<path d="M40.61 106.22C46.4918 106.22 51.26 101.452 51.26 95.57C51.26 89.6882 46.4918 84.92 40.61 84.92C34.7281 84.92 29.96 89.6882 29.96 95.57C29.96 101.452 34.7281 106.22 40.61 106.22Z" fill="#2F3136"/>
<path d="M31.5 16C30.9896 15.9989 30.4803 16.0491 29.98 16.15C30.082 18.915 31.2572 21.5316 33.2562 23.4447C35.2553 25.3577 37.9209 26.4168 40.6878 26.3973C43.4546 26.3778 46.1051 25.2812 48.0769 23.3401C50.0488 21.3991 51.1869 18.7662 51.25 16H31.5Z" fill="#2F3136"/>
<path d="M55 52.37H117.17" stroke="#18191C" stroke-width="3" stroke-miterlimit="10"/>
<path d="M240.68 131.81H128.38C125.994 131.81 124.06 133.744 124.06 136.13V148.41C124.06 150.796 125.994 152.73 128.38 152.73H240.68C243.066 152.73 245 150.796 245 148.41V136.13C245 133.744 243.066 131.81 240.68 131.81Z" fill="white" fill-opacity="0.06"/>
<path d="M211.8 24.7H155.33C153.226 24.7 151.52 26.4036 151.52 28.505C151.52 30.6065 153.226 32.31 155.33 32.31H211.8C213.904 32.31 215.61 30.6065 215.61 28.505C215.61 26.4036 213.904 24.7 211.8 24.7Z" fill="white" fill-opacity="0.06"/>
<path d="M191.61 38.4H155.22C153.116 38.4 151.41 40.1036 151.41 42.205C151.41 44.3064 153.116 46.01 155.22 46.01H191.61C193.714 46.01 195.42 44.3064 195.42 42.205C195.42 40.1036 193.714 38.4 191.61 38.4Z" fill="white" fill-opacity="0.06"/>
<path d="M211.8 57.06H155.33C153.226 57.06 151.52 58.7636 151.52 60.865C151.52 62.9664 153.226 64.67 155.33 64.67H211.8C213.904 64.67 215.61 62.9664 215.61 60.865C215.61 58.7636 213.904 57.06 211.8 57.06Z" fill="white" fill-opacity="0.06"/>
<path d="M191.61 70.76H155.22C153.116 70.76 151.41 72.4636 151.41 74.565C151.41 76.6665 153.116 78.37 155.22 78.37H191.61C193.714 78.37 195.42 76.6665 195.42 74.565C195.42 72.4636 193.714 70.76 191.61 70.76Z" fill="white" fill-opacity="0.06"/>
<path d="M191.61 84.51H155.22C153.116 84.51 151.41 86.2136 151.41 88.315C151.41 90.4165 153.116 92.12 155.22 92.12H191.61C193.714 92.12 195.42 90.4165 195.42 88.315C195.42 86.2136 193.714 84.51 191.61 84.51Z" fill="white" fill-opacity="0.06"/>
<path d="M105.35 29.89H82.0599C79.6354 29.89 77.6699 31.8555 77.6699 34.28V34.29C77.6699 36.7145 79.6354 38.68 82.0599 38.68H105.35C107.774 38.68 109.74 36.7145 109.74 34.29V34.28C109.74 31.8555 107.774 29.89 105.35 29.89Z" fill="white" fill-opacity="0.06"/>
<path d="M105.51 62.92H69.69C67.2655 62.92 65.3 64.8855 65.3 67.31V67.32C65.3 69.7445 67.2655 71.71 69.69 71.71H105.51C107.935 71.71 109.9 69.7445 109.9 67.32V67.31C109.9 64.8855 107.935 62.92 105.51 62.92Z" fill="white" fill-opacity="0.06"/>
<path d="M105.51 80.53H69.69C67.2655 80.53 65.3 82.4955 65.3 84.92V84.93C65.3 87.3545 67.2655 89.32 69.69 89.32H105.51C107.935 89.32 109.9 87.3545 109.9 84.93V84.92C109.9 82.4955 107.935 80.53 105.51 80.53Z" fill="white" fill-opacity="0.06"/>
<path d="M105.51 98.14H69.69C67.2655 98.14 65.3 100.105 65.3 102.53V102.54C65.3 104.965 67.2655 106.93 69.69 106.93H105.51C107.935 106.93 109.9 104.965 109.9 102.54V102.53C109.9 100.105 107.935 98.14 105.51 98.14Z" fill="white" fill-opacity="0.06"/>
<path d="M134.59 78.37C140.472 78.37 145.24 73.6018 145.24 67.72C145.24 61.8382 140.472 57.07 134.59 57.07C128.708 57.07 123.94 61.8382 123.94 67.72C123.94 73.6018 128.708 78.37 134.59 78.37Z" fill="#2F3136"/>
<path d="M69.5799 38.72C72.032 38.72 74.0199 36.7321 74.0199 34.28C74.0199 31.8279 72.032 29.84 69.5799 29.84C67.1278 29.84 65.1399 31.8279 65.1399 34.28C65.1399 36.7321 67.1278 38.72 69.5799 38.72Z" fill="white" fill-opacity="0.06"/>
<path opacity="0.25" d="M29.96 68.06L41.46 57.74H37.54L29.96 64.54V68.06Z" fill="white"/>
<path opacity="0.25" d="M45.94 57.74H43L30 69.4V73.71C30.008 73.9612 30.0314 74.2117 30.07 74.46L48.17 58.22C47.4698 57.9016 46.7092 57.7378 45.94 57.74Z" fill="white"/>
<path d="M150.16 124.5C149.471 120.829 150.267 117.035 152.375 113.952C154.483 110.869 157.73 108.75 161.4 108.06C165.071 107.37 168.865 108.167 171.948 110.275C175.031 112.383 177.151 115.629 177.84 119.3C178.087 120.639 178.141 122.006 178 123.36L162.78 135.93C159.717 135.666 156.824 134.405 154.545 132.341C152.266 130.276 150.726 127.522 150.16 124.5Z" fill="#7984F5"/>
<path d="M148.11 124.88C147.314 120.667 148.225 116.311 150.641 112.769C153.058 109.227 156.782 106.791 160.995 105.995C165.208 105.199 169.564 106.11 173.106 108.526C176.648 110.943 179.084 114.667 179.88 118.88C180.049 119.757 180.139 120.647 180.15 121.54L178 123.36C178.141 122.006 178.087 120.639 177.84 119.3C177.355 116.724 176.161 114.334 174.392 112.4C172.623 110.466 170.349 109.064 167.826 108.352C165.303 107.64 162.631 107.647 160.112 108.371C157.593 109.096 155.326 110.509 153.566 112.452C151.807 114.395 150.624 116.791 150.153 119.369C149.681 121.948 149.938 124.607 150.896 127.047C151.853 129.487 153.473 131.611 155.573 133.181C157.673 134.75 160.169 135.702 162.78 135.93L160.63 137.71C157.512 137.041 154.661 135.467 152.434 133.185C150.206 130.902 148.702 128.013 148.11 124.88Z" fill="white"/>
<path d="M176.68 121.82L180.2 121.54L177.77 123.54L163.5 135.34L160.56 137.76L162.07 133.26C163.119 130.133 165.063 127.383 167.66 125.349C170.257 123.316 173.393 122.089 176.68 121.82Z" fill="white"/>
<path opacity="0.25" d="M161.4 108.06C160.791 108.182 160.189 108.343 159.6 108.54L149.99 120.54C149.858 121.855 149.915 123.182 150.16 124.48C150.16 124.71 150.26 124.93 150.31 125.15L164.17 107.8C163.241 107.798 162.313 107.885 161.4 108.06Z" fill="white"/>
<path opacity="0.25" d="M150.72 126.57C151.259 128.125 152.071 129.571 153.12 130.84L170.31 109.33C168.845 108.586 167.261 108.105 165.63 107.91L150.72 126.57Z" fill="white"/>
<path d="M7.54999 107.21C9.81999 110.58 17.2 119.91 19.55 121.65C21.9 123.39 25.55 123.17 27.55 119.36C28.62 117.27 35.75 101.62 39.26 93.9C39.7977 92.7228 39.8861 91.3894 39.5085 90.1515C39.1308 88.9136 38.3133 87.8567 37.21 87.18C36.5713 86.7871 35.8566 86.5339 35.113 86.4372C34.3694 86.3404 33.6138 86.4022 32.8958 86.6185C32.1778 86.8349 31.5138 87.2008 30.9475 87.6923C30.3811 88.1838 29.9253 88.7897 29.61 89.47L20.71 108.63C17.9776 106.04 15.403 103.288 13 100.39C11.28 98.29 8.30999 97.51 6.45999 100.68C4.90999 103.35 6.27999 105.34 7.54999 107.21Z" fill="#FFD635"/>
<path d="M34.5 93.14C35.4049 93.3395 36.3513 93.2042 37.1641 92.7593C37.9768 92.3143 38.6006 91.5898 38.92 90.72L40.92 85.16L33.38 83.49L31.69 88.09C31.5037 88.6051 31.4301 89.1542 31.474 89.7001C31.518 90.2461 31.6786 90.7763 31.9449 91.255C32.2112 91.7336 32.5771 92.1496 33.0179 92.4747C33.4587 92.7999 33.9641 93.0268 34.5 93.14Z" fill="#D01582"/>
<path d="M33.34 83L37.45 79.26C37.71 78.3197 37.894 77.3599 38 76.39C38.0401 75.9864 38.1706 75.597 38.3818 75.2508C38.593 74.9046 38.8795 74.6103 39.22 74.39C39.7029 74.0914 40.2703 73.9591 40.8355 74.0132C41.4007 74.0674 41.9326 74.3051 42.35 74.69C44.09 76.31 45.02 77.3 45.82 78.07C46.82 79 46.82 80.81 45.82 82.99C44.82 85.17 44.93 85.88 41.23 87.7L37.23 89.38C36.7946 89.5612 36.3215 89.6331 35.8519 89.5894C35.3823 89.5457 34.9306 89.3878 34.5361 89.1294C34.1416 88.871 33.8163 88.52 33.5886 88.107C33.361 87.694 33.2378 87.2315 33.23 86.76C33.1712 85.5057 33.208 84.2487 33.34 83Z" fill="#D01582"/>
<path d="M37.4609 86.6449L34.2347 88.2422C34.1087 88.3046 33.9631 88.3144 33.83 88.2694C33.6968 88.2244 33.5869 88.1284 33.5246 88.0024L30.4187 81.7292C30.1763 81.2396 30.1383 80.6737 30.3131 80.1561C30.4879 79.6384 30.8612 79.2115 31.3508 78.969C31.8346 78.7265 32.3945 78.684 32.9093 78.8509C33.4242 79.0178 33.8526 79.3806 34.1022 79.8609L37.4609 86.6449Z" fill="#D01582"/>
<path d="M44.39 77.81V76.63C43.85 76.1 43.21 75.47 42.39 74.7V77.82C42.393 78.5059 42.2592 79.1855 41.9965 79.8191C41.7338 80.4527 41.3474 81.0275 40.86 81.51L38.57 83.78C38.4762 83.873 38.4018 83.9836 38.3511 84.1054C38.3003 84.2273 38.2742 84.358 38.2742 84.49C38.2742 84.622 38.3003 84.7527 38.3511 84.8746C38.4018 84.9965 38.4762 85.107 38.57 85.2C38.6634 85.2927 38.7742 85.366 38.8961 85.4158C39.0179 85.4656 39.1484 85.4908 39.28 85.49C39.4133 85.4921 39.5456 85.4675 39.6693 85.4177C39.7929 85.3679 39.9053 85.2939 40 85.2L42.29 82.93C42.9613 82.2579 43.4926 81.4593 43.8531 80.5805C44.2135 79.7016 44.396 78.7599 44.39 77.81Z" fill="black"/>
<path d="M134 114C133.565 113.717 133.195 113.346 132.914 112.91C132.633 112.474 132.447 111.983 132.37 111.47L132.11 109.71C132.105 109.666 132.084 109.625 132.051 109.595C132.018 109.566 131.975 109.55 131.93 109.55C131.887 109.552 131.847 109.569 131.816 109.599C131.784 109.628 131.765 109.667 131.76 109.71L131.49 111.47C131.414 111.984 131.23 112.475 130.949 112.911C130.668 113.348 130.296 113.719 129.86 114L129.63 114.14C129.606 114.157 129.586 114.18 129.572 114.206C129.558 114.232 129.551 114.26 129.55 114.29C129.55 114.32 129.557 114.349 129.571 114.375C129.585 114.401 129.605 114.424 129.63 114.44L129.86 114.59C130.295 114.87 130.666 115.24 130.947 115.674C131.228 116.109 131.413 116.598 131.49 117.11L131.76 118.88C131.765 118.922 131.785 118.96 131.816 118.987C131.848 119.015 131.888 119.03 131.93 119.03C131.974 119.033 132.017 119.019 132.05 118.991C132.084 118.963 132.105 118.923 132.11 118.88L132.37 117.11C132.449 116.599 132.635 116.11 132.916 115.676C133.197 115.241 133.566 114.871 134 114.59L134.23 114.44C134.255 114.424 134.275 114.401 134.289 114.375C134.303 114.349 134.31 114.32 134.31 114.29C134.309 114.26 134.302 114.232 134.288 114.206C134.274 114.18 134.254 114.157 134.23 114.14L134 114Z" fill="#D01582"/>
<path d="M54.7901 53.91C54.3534 53.6305 53.9813 53.2612 53.6985 52.8267C53.4158 52.3922 53.2288 51.9024 53.1501 51.39L52.8901 49.62C52.8832 49.5793 52.8626 49.5422 52.8317 49.5149C52.8007 49.4876 52.7613 49.4717 52.7201 49.47C52.6771 49.4694 52.6353 49.4842 52.6023 49.5117C52.5693 49.5392 52.5472 49.5776 52.5401 49.62L52.2801 51.39C52.2014 51.9024 52.0144 52.3922 51.7316 52.8267C51.4488 53.2612 51.0767 53.6305 50.6401 53.91L50.4201 54.06C50.3942 54.076 50.3725 54.0979 50.3568 54.124C50.3411 54.1501 50.332 54.1796 50.3301 54.21C50.332 54.2404 50.3411 54.2699 50.3568 54.296C50.3725 54.3221 50.3942 54.344 50.4201 54.36L50.6401 54.51C51.075 54.7843 51.4463 55.1483 51.7291 55.5778C52.012 56.0072 52.1998 56.4921 52.2801 57L52.5401 58.77C52.5472 58.8124 52.5693 58.8508 52.6023 58.8783C52.6353 58.9058 52.6771 58.9206 52.7201 58.92C52.7613 58.9183 52.8007 58.9024 52.8317 58.8751C52.8626 58.8478 52.8832 58.8107 52.8901 58.77L53.1501 57C53.2263 56.4868 53.4122 55.996 53.6952 55.5611C53.9783 55.1263 54.3517 54.7575 54.7901 54.48L55.0101 54.33C55.038 54.3164 55.0614 54.295 55.0774 54.2684C55.0934 54.2417 55.1013 54.211 55.1001 54.18C55.1013 54.1489 55.0934 54.1182 55.0774 54.0916C55.0614 54.065 55.038 54.0436 55.0101 54.03L54.7901 53.91Z" fill="#91FFAD"/>
<path d="M142.9 100.06C142.309 99.6802 141.806 99.1787 141.425 98.5888C141.044 97.999 140.793 97.3346 140.69 96.64L140.33 94.25C140.321 94.1925 140.292 94.1401 140.248 94.1018C140.204 94.0634 140.148 94.0416 140.09 94.04C140.032 94.0416 139.976 94.0634 139.932 94.1018C139.888 94.1401 139.859 94.1925 139.85 94.25L139.5 96.64C139.392 97.3332 139.14 97.9959 138.759 98.5852C138.378 99.1744 137.878 99.6769 137.29 100.06L136.98 100.26C136.946 100.281 136.918 100.31 136.898 100.345C136.879 100.38 136.869 100.42 136.87 100.46C136.869 100.501 136.879 100.542 136.898 100.579C136.918 100.616 136.946 100.647 136.98 100.67L137.29 100.87C137.879 101.249 138.381 101.749 138.762 102.337C139.143 102.925 139.394 103.587 139.5 104.28L139.85 106.67C139.859 106.727 139.888 106.78 139.932 106.818C139.976 106.857 140.032 106.878 140.09 106.88C140.148 106.878 140.204 106.857 140.248 106.818C140.292 106.78 140.321 106.727 140.33 106.67L140.69 104.28C140.794 103.587 141.044 102.924 141.426 102.336C141.807 101.747 142.309 101.248 142.9 100.87L143.21 100.67C143.243 100.646 143.27 100.614 143.289 100.578C143.308 100.541 143.319 100.501 143.32 100.46C143.318 100.42 143.307 100.382 143.288 100.347C143.269 100.313 143.242 100.283 143.21 100.26L142.9 100.06Z" fill="#FFE75C"/>
<path d="M181.66 102.18C181.219 101.902 180.842 101.532 180.556 101.095C180.269 100.659 180.08 100.166 180 99.65L179.74 97.89C179.735 97.8467 179.714 97.8069 179.68 97.779C179.647 97.7511 179.604 97.7371 179.56 97.74C179.518 97.7397 179.478 97.7548 179.446 97.7825C179.415 97.8102 179.395 97.8485 179.39 97.89L179.13 99.65C179.053 100.164 178.866 100.656 178.583 101.092C178.301 101.529 177.928 101.899 177.49 102.18L177.27 102.32C177.244 102.335 177.221 102.357 177.206 102.383C177.19 102.41 177.181 102.439 177.18 102.47C177.179 102.501 177.187 102.532 177.203 102.558C177.219 102.585 177.242 102.606 177.27 102.62L177.49 102.77C177.927 103.049 178.299 103.419 178.582 103.853C178.864 104.288 179.051 104.778 179.13 105.29L179.39 107.06C179.395 107.102 179.415 107.14 179.446 107.167C179.478 107.195 179.518 107.21 179.56 107.21C179.604 107.213 179.647 107.199 179.68 107.171C179.714 107.143 179.735 107.103 179.74 107.06L180 105.29C180.079 104.778 180.266 104.288 180.549 103.853C180.831 103.419 181.203 103.049 181.64 102.77L181.86 102.62C181.886 102.604 181.908 102.582 181.923 102.556C181.939 102.53 181.948 102.5 181.95 102.47C181.947 102.44 181.938 102.411 181.922 102.385C181.907 102.359 181.885 102.337 181.86 102.32L181.66 102.18Z" fill="#D01582"/>
<path d="M188.4 138.79L181.4 139.71C180.991 139.76 180.577 139.692 180.205 139.515C179.833 139.338 179.519 139.059 179.3 138.71C177.47 135.92 172.87 128.92 172.3 128.11C172.802 126.334 172.667 124.438 171.92 122.75C172.74 121.3 173.36 120.25 174.23 118.75C174.304 118.62 174.338 118.47 174.327 118.321C174.316 118.171 174.262 118.029 174.17 117.91C173.515 116.976 172.652 116.206 171.65 115.66C171.548 115.613 171.437 115.588 171.325 115.584C171.212 115.58 171.1 115.599 170.995 115.639C170.89 115.679 170.794 115.739 170.712 115.817C170.631 115.894 170.565 115.987 170.52 116.09C170.02 117.21 168.52 120.37 168.52 120.37C168.52 120.37 169.88 115.37 169.72 114.78C169.56 114.19 168.43 114.34 167.93 114.7C167.24 115.19 166.36 116.7 164.93 121.82C163.22 120.91 161.47 120.43 160.93 120.82C160.39 121.21 160.39 121.82 161.87 122.99C163.911 124.458 165.633 126.326 166.93 128.48C167.159 128.888 167.349 129.317 167.5 129.76C168.09 131.37 171.29 142.9 175.34 145.65C179.39 148.4 190.44 146.02 199.58 143.19C196.11 137.49 194.23 138 188.4 138.79Z" fill="#FFE75C"/>
<path d="M195.83 126.39L211.25 118.83C209 131.45 205.37 134.63 202.3 134.93C199.23 135.23 196.67 131.54 195.83 126.39Z" fill="#D11583"/>
<path d="M195.83 126.39L184.22 119.16C186.99 131.73 190.07 133.81 192.41 134.02C194.75 134.23 196 131.55 195.83 126.39Z" fill="#D11583"/>
<path d="M202.15 137.8C208.38 136.68 209.15 138.36 212.31 142.98C214.83 146.69 216.64 149.84 219.06 152.77H212.66C208.48 148.07 206.49 144.19 202.15 137.8Z" fill="#FFE75C"/>
<path d="M194.41 138.42L206.22 138.02C211.53 145.08 209.31 148.34 207.33 152.77H189.8C189.8 152.77 189.21 150.63 188.73 148.77C187.79 145 188.65 142.09 194.41 138.42Z" fill="white"/>
<path d="M185.71 128.48C186.45 122.76 198.26 115.86 201.15 116.18C204.04 116.5 213.15 123.46 213.36 129.33C213.57 135.2 207.67 139.47 199.5 139.47C191.33 139.47 184.91 134.63 185.71 128.48Z" fill="#FFE75C"/>
<path d="M201.53 120.64C205.02 116.02 208.74 113.35 213.81 110.35C217.65 108.08 216.63 104.23 211.81 105.21C206.99 106.19 202.35 111.46 200.08 116.28C195.21 109.11 194.29 106.44 190.4 107.49C186.51 108.54 185.34 112.82 185.12 114.79C184.94 116.33 185.24 117.48 187.49 117.48C189.74 117.48 191.01 115.71 191.72 113.57C193.541 116.183 195.578 118.639 197.81 120.91C199.33 122.39 200 122.73 201.53 120.64Z" fill="#FFE75C"/>
<path d="M197.06 116.89L193.06 111.43" stroke="#FFC619" stroke-width="0.82" stroke-miterlimit="10" stroke-linecap="round"/>
<path d="M195.83 126.39C196.67 131.54 199.22 135.23 202.3 134.93C205 134.67 208.14 132.18 210.39 122.93C209.64 122.034 208.832 121.189 207.97 120.4L195.83 126.39Z" fill="#FF8C19"/>
<path d="M186.3 126.63C188.45 132.63 190.64 133.86 192.4 134.03C194.74 134.25 196 131.55 195.83 126.39L189.59 122.51C188.253 123.673 187.138 125.069 186.3 126.63Z" fill="#FF8C19"/>
<path d="M191.04 127.48L189.99 126.27" stroke="black" stroke-width="0.82" stroke-linecap="round" stroke-linejoin="round"/>
<path d="M190.94 128.28L189.27 127.33" stroke="black" stroke-width="0.82" stroke-linecap="round" stroke-linejoin="round"/>
<path d="M202.44 127.7L203.37 125.95" stroke="black" stroke-width="0.82" stroke-linecap="round" stroke-linejoin="round"/>
<path d="M202.51 128.53L205.05 126.82" stroke="black" stroke-width="0.82" stroke-linecap="round" stroke-linejoin="round"/>
<path d="M203.047 131.047C204.068 130.16 204.035 128.45 202.973 127.229C201.911 126.008 200.223 125.738 199.202 126.626C198.181 127.513 198.214 129.223 199.276 130.444C200.338 131.665 202.026 131.935 203.047 131.047Z" fill="white"/>
<path d="M190.4 128.71C189.88 127.3 190.4 125.94 191.49 125.61C192.157 125.511 192.837 125.645 193.416 125.99C193.995 126.334 194.438 126.867 194.67 127.5C195.34 128.98 194.89 130.5 193.67 130.85C192.45 131.2 191 130.19 190.4 128.71Z" fill="white"/>
<path d="M214.501 122.334C214.74 122.059 214.647 121.587 214.293 121.279C213.939 120.971 213.458 120.944 213.218 121.219C212.979 121.494 213.073 121.967 213.427 122.275C213.781 122.583 214.262 122.609 214.501 122.334Z" fill="black"/>
<path d="M192.134 128.976C192.587 128.967 192.944 128.48 192.931 127.889C192.918 127.298 192.541 126.827 192.088 126.837C191.635 126.846 191.279 127.333 191.291 127.924C191.304 128.515 191.681 128.986 192.134 128.976Z" fill="black"/>
<path d="M200.362 128.98C200.815 128.97 201.172 128.483 201.159 127.892C201.146 127.301 200.769 126.83 200.316 126.84C199.863 126.85 199.507 127.337 199.519 127.927C199.532 128.518 199.909 128.989 200.362 128.98Z" fill="black"/>
<path d="M195.5 136.23C196.106 136.577 196.823 136.674 197.499 136.5C198.175 136.326 198.757 135.896 199.12 135.3" stroke="black" stroke-width="0.82" stroke-linecap="round" stroke-linejoin="round"/>
<path d="M193 110.35C193.025 110.299 193.061 110.254 193.104 110.217C193.147 110.18 193.197 110.152 193.25 110.134C193.304 110.117 193.361 110.11 193.418 110.114C193.474 110.119 193.529 110.134 193.58 110.16C193.63 110.184 193.675 110.219 193.712 110.261C193.749 110.303 193.777 110.352 193.795 110.405C193.813 110.458 193.82 110.514 193.815 110.57C193.811 110.626 193.796 110.68 193.77 110.73C193.231 111.946 192.76 113.191 192.36 114.46C192.15 114.16 191.94 113.87 191.75 113.58C192.106 112.481 192.523 111.403 193 110.35Z" fill="black"/>
<path d="M212.87 108.55C208.018 110.354 203.91 113.73 201.2 118.14" stroke="#FFC619" stroke-width="0.82" stroke-miterlimit="10" stroke-linecap="round"/>
<path d="M197.24 131.05C196.01 128.39 196.07 127.93 195.49 130.92H195.22V126.5L195.83 126.39L197.15 126.71L197.55 130.99L197.24 131.05Z" fill="#FF8C19"/>
</g>
<defs>
<clipPath id="clip0">
<rect width="275" height="160" fill="white"/>
</clipPath>
</defs>
</svg>
