<svg width="280" height="120" viewBox="0 0 280 120" fill="none" xmlns="http://www.w3.org/2000/svg">
<g clip-path="url(#clip0)">
<path d="M251.18 91.39V30.67C251.18 27.3643 250.529 24.0909 249.263 21.0371C247.997 17.9832 246.142 15.2087 243.804 12.8721C241.465 10.5356 238.689 8.6827 235.634 7.41946C232.58 6.15623 229.306 5.50739 226 5.51002H92.3C85.8976 5.51433 79.6304 7.35211 74.2395 10.806C68.8487 14.2599 64.5598 19.1854 61.88 25L60.47 28C59.834 29.3768 58.8169 30.5425 57.5392 31.3595C56.2615 32.1765 54.7766 32.6104 53.26 32.61H43.9C41.0211 32.6113 38.1706 33.18 35.5115 34.2836C32.8525 35.3871 30.437 37.0039 28.4031 39.0415C26.3693 41.079 24.7569 43.4975 23.6582 46.1585C22.5595 48.8196 21.9961 51.6711 22 54.55V93.06L4.51 103.24C3.13802 104.038 1.99944 105.182 1.20803 106.558C0.416611 107.934 6.36116e-05 109.493 0 111.08L0 120H280V103.87C280 100.56 278.685 97.3858 276.345 95.0453C274.004 92.7049 270.83 91.39 267.52 91.39H251.18Z" fill="#D6E3FF"/>
<path d="M234.28 35.3999H232.08V44.6199H234.28V35.3999Z" fill="#C9CDE0"/>
<path d="M186.53 35.3999H184.33V44.6199H186.53V35.3999Z" fill="#C9CDE0"/>
<path d="M227.89 35.3999L234.28 44.6199H231.4L225 35.3999H227.89Z" fill="#ADB2C6"/>
<path d="M180.13 35.3999L186.53 44.6199H183.65L177.25 35.3999H180.13Z" fill="#ADB2C6"/>
<path d="M234.29 31.8401H169.85V35.4001H234.29V31.8401Z" fill="#B1805B"/>
<path d="M232.33 19.14L226.4 17.28H218.71L212.77 19.14C212.58 19.2065 212.414 19.3289 212.294 19.4913C212.175 19.6537 212.107 19.8485 212.1 20.05V31.84H233V20.06C232.995 19.8567 232.928 19.6598 232.809 19.4954C232.689 19.331 232.522 19.2071 232.33 19.14Z" fill="#D1D5E6"/>
<path d="M188 24.46H203.78C203.638 26.4555 202.745 28.323 201.281 29.6864C199.817 31.0498 197.891 31.8078 195.89 31.8078C193.889 31.8078 191.963 31.0498 190.499 29.6864C189.035 28.323 188.142 26.4555 188 24.46V24.46Z" fill="#ADB2C6"/>
<path d="M203.79 23.3901H188C188.142 21.3946 189.035 19.5271 190.499 18.1637C191.963 16.8003 193.889 16.0422 195.89 16.0422C197.891 16.0422 199.817 16.8003 201.281 18.1637C202.745 19.5271 203.638 21.3946 203.78 23.3901H203.79Z" fill="#4A76E6"/>
<path d="M203.79 23.3999H188V24.4599H203.79V23.3999Z" fill="#303338"/>
<path d="M193.88 26.12C195.089 26.12 196.07 25.1395 196.07 23.93C196.07 22.7205 195.089 21.74 193.88 21.74C192.67 21.74 191.69 22.7205 191.69 23.93C191.69 25.1395 192.67 26.12 193.88 26.12Z" fill="#303338"/>
<path d="M193.88 25.32C194.648 25.32 195.27 24.6977 195.27 23.93C195.27 23.1624 194.648 22.54 193.88 22.54C193.112 22.54 192.49 23.1624 192.49 23.93C192.49 24.6977 193.112 25.32 193.88 25.32Z" fill="white"/>
<path d="M201.46 18.3101C200.071 19.2327 198.772 20.284 197.58 21.4501C197.411 21.6124 197.185 21.7021 196.95 21.7001C196.829 21.7017 196.709 21.6785 196.597 21.6321C196.485 21.5857 196.384 21.517 196.3 21.4301C196.215 21.3456 196.148 21.2451 196.102 21.1344C196.056 21.0237 196.032 20.905 196.032 20.7851C196.032 20.6653 196.056 20.5466 196.102 20.4359C196.148 20.3252 196.215 20.2247 196.3 20.1401C197.432 19.0417 198.653 18.0383 199.95 17.1401C200.5 17.4665 201.007 17.8594 201.46 18.3101V18.3101Z" fill="#EC7DF7"/>
<path d="M191.84 21.5601C191.635 21.6881 191.388 21.7305 191.153 21.6781C190.917 21.6257 190.711 21.4828 190.58 21.2801C190.175 20.6368 189.811 19.9688 189.49 19.2801C189.882 18.7429 190.339 18.2559 190.85 17.8301C191.205 18.6868 191.63 19.5129 192.12 20.3001C192.248 20.5048 192.29 20.7517 192.238 20.9874C192.186 21.2231 192.043 21.4288 191.84 21.5601V21.5601Z" fill="#EC7DF7"/>
<path d="M226.57 19.3501H232.36C232.445 19.3501 232.529 19.367 232.607 19.3997C232.686 19.4325 232.757 19.4806 232.816 19.5411C232.876 19.6016 232.923 19.6733 232.954 19.7521C232.986 19.8309 233.001 19.9152 233 20.0001V31.8401H226V19.8401C226.013 19.7004 226.079 19.5711 226.186 19.4796C226.292 19.3882 226.43 19.3417 226.57 19.3501V19.3501Z" fill="#C1C5D4"/>
<path d="M226.03 23.6201H212.1V31.8401H226.03V23.6201Z" fill="#ADB2C6"/>
<path d="M233 23.6201H226.03V31.8401H233V23.6201Z" fill="#9A9FB3"/>
<path d="M217.51 22.6201H220.62C220.822 22.6201 221.015 22.7002 221.157 22.8427C221.3 22.9852 221.38 23.1786 221.38 23.3801V31.8401H216.76V23.3801C216.76 23.1803 216.839 22.9885 216.979 22.8462C217.119 22.704 217.31 22.6227 217.51 22.6201V22.6201Z" fill="#4A76E6"/>
<path d="M229.4 22.6201H230.69C230.849 22.6201 231.002 22.6833 231.114 22.7959C231.227 22.9084 231.29 23.061 231.29 23.2201V31.8401H228.8V23.2201C228.8 23.061 228.863 22.9084 228.976 22.7959C229.088 22.6833 229.241 22.6201 229.4 22.6201V22.6201Z" fill="#4A76E6"/>
<path d="M220.26 23.6201H217.88C217.62 23.6201 217.41 23.8305 217.41 24.0901C217.41 24.3497 217.62 24.5601 217.88 24.5601H220.26C220.519 24.5601 220.73 24.3497 220.73 24.0901C220.73 23.8305 220.519 23.6201 220.26 23.6201Z" fill="#FFD836"/>
<path d="M230.66 23.6201H229.43C229.297 23.6201 229.19 23.7276 229.19 23.8601V24.3201C229.19 24.4527 229.297 24.5601 229.43 24.5601H230.66C230.792 24.5601 230.9 24.4527 230.9 24.3201V23.8601C230.9 23.7276 230.792 23.6201 230.66 23.6201Z" fill="#FFD836"/>
<path d="M220.26 25.05H217.88C217.62 25.05 217.41 25.2605 217.41 25.5201C217.41 25.7796 217.62 25.99 217.88 25.99H220.26C220.519 25.99 220.73 25.7796 220.73 25.5201C220.73 25.2605 220.519 25.05 220.26 25.05Z" fill="#303338"/>
<path d="M230.66 25.05H229.43C229.297 25.05 229.19 25.1575 229.19 25.2901V25.75C229.19 25.8826 229.297 25.99 229.43 25.99H230.66C230.792 25.99 230.9 25.8826 230.9 25.75V25.2901C230.9 25.1575 230.792 25.05 230.66 25.05Z" fill="#303338"/>
<path d="M220.26 26.48H217.88C217.62 26.48 217.41 26.6904 217.41 26.95C217.41 27.2096 217.62 27.42 217.88 27.42H220.26C220.519 27.42 220.73 27.2096 220.73 26.95C220.73 26.6904 220.519 26.48 220.26 26.48Z" fill="#303338"/>
<path d="M230.66 26.48H229.43C229.297 26.48 229.19 26.5874 229.19 26.72V27.18C229.19 27.3125 229.297 27.42 229.43 27.42H230.66C230.792 27.42 230.9 27.3125 230.9 27.18V26.72C230.9 26.5874 230.792 26.48 230.66 26.48Z" fill="#303338"/>
<path d="M225.85 16.51H219.26C218.956 16.51 218.71 16.7563 218.71 17.06C218.71 17.3638 218.956 17.61 219.26 17.61H225.85C226.154 17.61 226.4 17.3638 226.4 17.06C226.4 16.7563 226.154 16.51 225.85 16.51Z" fill="#9A9FB3"/>
<path d="M205 20.44L206.47 23C206.526 23.0955 206.601 23.1785 206.691 23.2439C206.78 23.3092 206.882 23.3556 206.99 23.38L209.85 23.99C209.985 24.021 210.11 24.0867 210.212 24.1806C210.315 24.2745 210.391 24.3933 210.433 24.5254C210.475 24.6576 210.483 24.7985 210.454 24.9342C210.425 25.07 210.362 25.1961 210.27 25.3L208.27 27.47C208.196 27.5542 208.14 27.6526 208.106 27.7593C208.071 27.8659 208.059 27.9784 208.07 28.09L208.37 30.99C208.386 31.1287 208.365 31.2692 208.309 31.3971C208.253 31.525 208.164 31.6358 208.051 31.7181C207.938 31.8005 207.805 31.8514 207.667 31.8658C207.528 31.8802 207.387 31.8574 207.26 31.8L204.59 30.62C204.487 30.5757 204.377 30.5528 204.265 30.5528C204.153 30.5528 204.043 30.5757 203.94 30.62L201.27 31.8C201.143 31.8574 201.003 31.8802 200.864 31.8658C200.725 31.8514 200.592 31.8005 200.479 31.7181C200.366 31.6358 200.277 31.525 200.221 31.3971C200.165 31.2692 200.144 31.1287 200.16 30.99L200.46 28.09C200.471 27.9784 200.459 27.8659 200.424 27.7593C200.39 27.6526 200.334 27.5542 200.26 27.47L198.31 25.3C198.215 25.1972 198.149 25.0711 198.119 24.9345C198.089 24.7979 198.095 24.6557 198.138 24.5224C198.181 24.3892 198.258 24.2696 198.362 24.1761C198.466 24.0825 198.593 24.0183 198.73 23.99L201.59 23.38C201.698 23.3556 201.8 23.3092 201.889 23.2439C201.979 23.1785 202.054 23.0955 202.11 23L203.57 20.47C203.634 20.3359 203.734 20.2222 203.858 20.1416C203.983 20.0611 204.127 20.0167 204.276 20.0136C204.424 20.0105 204.571 20.0487 204.698 20.124C204.826 20.1993 204.931 20.3087 205 20.44V20.44Z" fill="#FFD836"/>
<path d="M203.79 25.88C203.79 25.6757 203.624 25.51 203.42 25.51C203.216 25.51 203.05 25.6757 203.05 25.88V26.81C203.05 27.0144 203.216 27.18 203.42 27.18C203.624 27.18 203.79 27.0144 203.79 26.81V25.88Z" fill="#36393F"/>
<path d="M205.58 25.88C205.58 25.6757 205.414 25.51 205.21 25.51C205.006 25.51 204.84 25.6757 204.84 25.88V26.81C204.84 27.0144 205.006 27.18 205.21 27.18C205.414 27.18 205.58 27.0144 205.58 26.81V25.88Z" fill="#36393F"/>
<path d="M234.29 31.8401H217.6V35.4001H234.29V31.8401Z" fill="#8B574F"/>
<path d="M92.0099 35.6899H72.1599V51.6199H92.0099V35.6899Z" fill="#F5B312"/>
<path d="M72.1599 51.6201H76.1599V68.5301C76.1599 69.0606 75.9492 69.5693 75.5741 69.9443C75.199 70.3194 74.6903 70.5301 74.1599 70.5301C73.6295 70.5301 73.1208 70.3194 72.7457 69.9443C72.3706 69.5693 72.1599 69.0606 72.1599 68.5301V51.6201Z" fill="#F5B312"/>
<path d="M74.1499 81.3999H74.1399C73.0464 81.3999 72.1599 82.2864 72.1599 83.3799V91.6099C72.1599 92.7034 73.0464 93.5899 74.1399 93.5899H74.1499C75.2434 93.5899 76.1299 92.7034 76.1299 91.6099V83.3799C76.1299 82.2864 75.2434 81.3999 74.1499 81.3999Z" fill="#F5B312"/>
<path d="M80.0901 51.6201H84.0901V83.0901C84.0901 83.6205 83.8794 84.1293 83.5043 84.5043C83.1292 84.8794 82.6205 85.0901 82.0901 85.0901C81.5597 85.0901 81.051 84.8794 80.6759 84.5043C80.3008 84.1293 80.0901 83.6205 80.0901 83.0901V51.6201Z" fill="#F5B312"/>
<path d="M78.1101 63.14C77.5797 63.14 77.071 63.3507 76.6959 63.7258C76.3208 64.1009 76.1101 64.6096 76.1101 65.14V44.25H80.1101V65.12C80.1048 64.593 79.8918 64.0895 79.5173 63.7187C79.1428 63.3479 78.6371 63.14 78.1101 63.14V63.14Z" fill="#F5B312"/>
<path d="M84.0601 51.6201H88.0601V73.9101C88.0601 74.421 87.9594 74.9268 87.764 75.3988C87.5685 75.8707 87.2819 76.2995 86.9207 76.6608C86.5595 77.022 86.1307 77.3085 85.6587 77.504C85.1867 77.6995 84.6809 77.8001 84.1701 77.8001H84.0901V51.6201H84.0601Z" fill="#F5B312"/>
<path d="M90 56.1201C89.371 56.6869 88.868 57.3794 88.5235 58.1529C88.179 58.9263 88.0006 59.7634 88 60.6101V40.8701H92V51.6201C91.9965 52.4678 91.8169 53.3055 91.4726 54.0802C91.1283 54.8548 90.6268 55.5495 90 56.1201V56.1201Z" fill="#F5B312"/>
<path d="M30.4701 115.49H36.7201L33.2801 120H29.0701L30.4701 115.49Z" fill="#B1805B"/>
<path d="M57.86 120H53.65L50.21 115.49H56.47L57.86 120Z" fill="#B1805B"/>
<path d="M15.88 115.49H22.12L18.69 120H14.47L15.88 115.49Z" fill="#303338"/>
<path d="M39.39 115.49H45.64L42.21 120H37.99L39.39 115.49Z" fill="#303338"/>
<path d="M34.4086 54.3048C34.538 54.1754 34.7135 54.1027 34.8965 54.1027C35.0795 54.1027 35.255 54.1754 35.3844 54.3048L41.1119 60.0324L40.1432 61.0011L34.4156 55.2735C34.2874 55.1454 34.2148 54.9719 34.2135 54.7906C34.2122 54.6094 34.2823 54.4348 34.4086 54.3048V54.3048Z" fill="#202225"/>
<path d="M148.25 115.06H141.08V120H148.25V115.06Z" fill="#8B574F"/>
<path d="M232.3 115.06H225.13V120H232.3V115.06Z" fill="#8B574F"/>
<path d="M148.25 115.06H141.08V118.09H148.25V115.06Z" fill="black"/>
<path d="M232.3 115.06H225.13V118.09H232.3V115.06Z" fill="black"/>
<path d="M171.18 115.06H164.01V120H171.18V115.06Z" fill="#784343"/>
<path d="M255.24 115.06H248.07V120H255.24V115.06Z" fill="#784343"/>
<path d="M171.18 115.06H164.01V120H171.18V115.06Z" fill="#303338"/>
<path d="M255.24 115.06H248.07V120H255.24V115.06Z" fill="#303338"/>
<path d="M171.19 76.3301H142.36V115.4H171.19V76.3301Z" fill="#305DCE"/>
<path d="M170.08 62.1799H250.14V98.9999H165.29V66.9999C165.285 66.368 165.405 65.7413 165.643 65.1561C165.882 64.5709 166.234 64.0388 166.679 63.5905C167.125 63.1423 167.655 62.7868 168.238 62.5447C168.822 62.3026 169.448 62.1786 170.08 62.1799V62.1799Z" fill="#4A76E6"/>
<path opacity="0.5" d="M209.3 62.19C208.669 62.1886 208.044 62.3123 207.461 62.5538C206.878 62.7953 206.348 63.1498 205.903 63.597C205.458 64.0442 205.105 64.5751 204.866 65.1592C204.627 65.7433 204.506 66.3689 204.51 67V99H201.51V67C201.51 65.7322 202.014 64.5164 202.91 63.62C203.806 62.7236 205.022 62.22 206.29 62.22L209.3 62.19Z" fill="#305DCE"/>
<path d="M250.14 62.1799C250.771 62.1799 251.396 62.3049 251.979 62.5476C252.561 62.7903 253.09 63.146 253.534 63.5941C253.979 64.0422 254.33 64.5739 254.568 65.1584C254.806 65.743 254.925 66.3689 254.92 66.9999V82.4599H245.35V66.9999C245.345 66.368 245.465 65.7413 245.703 65.1561C245.942 64.5709 246.294 64.0388 246.739 63.5905C247.185 63.1423 247.715 62.7868 248.298 62.5447C248.882 62.3026 249.508 62.1786 250.14 62.1799V62.1799Z" fill="#305DCE"/>
<path d="M265.42 87.7901V105.2C265.42 107.901 264.348 110.491 262.439 112.402C260.53 114.313 257.941 115.387 255.24 115.39H231V76.3301H254C257.032 76.3407 259.937 77.5527 262.078 79.7007C264.218 81.8488 265.42 84.7576 265.42 87.7901V87.7901Z" fill="#4A76E6"/>
<path d="M242.49 87.7901V105.2C242.49 107.903 241.416 110.495 239.505 112.406C237.594 114.317 235.002 115.39 232.3 115.39H141.08C138.377 115.39 135.785 114.317 133.874 112.406C131.963 110.495 130.89 107.903 130.89 105.2V87.7901C130.89 86.2843 131.187 84.7933 131.763 83.4022C132.34 82.0112 133.185 80.7474 134.25 79.6831C135.315 78.6188 136.58 77.7749 137.971 77.1996C139.363 76.6242 140.854 76.3288 142.36 76.3301C145.4 76.3301 148.316 77.5372 150.467 79.686C152.618 81.8349 153.827 84.7498 153.83 87.7901V99.0001H219.55V87.7901C219.553 84.7533 220.759 81.8414 222.906 79.6931C225.052 77.5448 227.963 76.3354 231 76.3301C232.507 76.3275 234 76.6219 235.393 77.1965C236.786 77.7711 238.053 78.6147 239.12 79.679C240.187 80.7433 241.034 82.0074 241.612 83.3992C242.19 84.7909 242.489 86.283 242.49 87.7901Z" fill="#718EF7"/>
<path d="M231.02 90.35C232.434 90.35 233.58 89.2038 233.58 87.79C233.58 86.3761 232.434 85.23 231.02 85.23C229.606 85.23 228.46 86.3761 228.46 87.79C228.46 89.2038 229.606 90.35 231.02 90.35Z" fill="#4A76E6"/>
<path d="M142.36 90.35C143.774 90.35 144.92 89.2038 144.92 87.79C144.92 86.3761 143.774 85.23 142.36 85.23C140.946 85.23 139.8 86.3761 139.8 87.79C139.8 89.2038 140.946 90.35 142.36 90.35Z" fill="#4A76E6"/>
<path d="M25.28 94.6401H11.48V115.49H25.28V94.6401Z" fill="#C9CDE0"/>
<path d="M61.66 94.6401H25.28V115.49H61.66V94.6401Z" fill="white"/>
<path d="M57.8601 98.0601H29.0701V112.08H57.8601V98.0601Z" fill="#C9DBF7"/>
<path d="M57.8601 104.72H29.0701V105.77H57.8601V104.72Z" fill="#36393F"/>
<path d="M48.4 104.72H39L40 106.53C40.0987 106.706 40.2447 106.851 40.4214 106.948C40.5982 107.045 40.7986 107.091 41 107.08H46.45C46.6514 107.091 46.8518 107.045 47.0286 106.948C47.2053 106.851 47.3513 106.706 47.45 106.53L48.4 104.72Z" fill="#36393F"/>
<path d="M40.0601 60C29.9301 70.13 29.0601 76.43 29.0601 91.33" stroke="#C9CDE0" stroke-width="2.10716" stroke-miterlimit="10"/>
<path d="M40.8101 60.7101C40.0394 61.48 39.4279 62.3943 39.0108 63.4006C38.5936 64.407 38.3789 65.4857 38.3789 66.5751C38.3789 67.6645 38.5936 68.7432 39.0108 69.7496C39.4279 70.7559 40.0394 71.6702 40.8101 72.4401L52.5501 60.7101C51.78 59.9379 50.8651 59.3252 49.8578 58.9072C48.8505 58.4891 47.7707 58.2739 46.6801 58.2739C45.5895 58.2739 44.5096 58.4891 43.5023 58.9072C42.4951 59.3252 41.5802 59.9379 40.8101 60.7101V60.7101Z" fill="#EC7DF7"/>
<path d="M35.3202 58.4594L38.5729 55.2067C38.8542 54.9254 39.2357 54.7673 39.6336 54.7673C40.0314 54.7673 40.4129 54.9254 40.6942 55.2067L45.849 60.3615L40.468 65.7426L35.3202 60.5948C35.1788 60.4553 35.0665 60.289 34.9899 60.1058C34.9132 59.9225 34.8738 59.7258 34.8738 59.5271C34.8738 59.3284 34.9132 59.1317 34.9899 58.9484C35.0665 58.7651 35.1788 58.5989 35.3202 58.4594V58.4594Z" fill="#EC7DF7"/>
<path d="M39.76 94.6401H18.38V92.2701C18.38 92.0049 18.4854 91.7506 18.6729 91.563C18.8605 91.3755 19.1148 91.2701 19.38 91.2701H38.78C39.0452 91.2701 39.2996 91.3755 39.4871 91.563C39.6747 91.7506 39.78 92.0049 39.78 92.2701V94.6401H39.76Z" fill="#EC7DF7"/>
<path d="M46.58 21.9099L45.22 24.7299C45.1644 24.8697 45.151 25.0227 45.1814 25.17C45.2118 25.3173 45.2847 25.4525 45.3911 25.5589C45.4974 25.6652 45.6326 25.7381 45.7799 25.7685C45.9272 25.7989 46.0802 25.7855 46.22 25.7299L49.04 24.3699C49.1429 24.3203 49.2557 24.2946 49.37 24.2946C49.4843 24.2946 49.5971 24.3203 49.7 24.3699L52.52 25.7299C52.6598 25.7855 52.8128 25.7989 52.9601 25.7685C53.1074 25.7381 53.2426 25.6652 53.349 25.5589C53.4553 25.4525 53.5282 25.3173 53.5586 25.17C53.589 25.0227 53.5756 24.8697 53.52 24.7299L52.17 21.9099C52.1157 21.8066 52.0873 21.6917 52.0873 21.5749C52.0873 21.4582 52.1157 21.3433 52.17 21.2399L53.52 18.4299C53.5756 18.2902 53.589 18.1372 53.5586 17.9899C53.5282 17.8425 53.4553 17.7074 53.349 17.601C53.2426 17.4946 53.1074 17.4217 52.9601 17.3913C52.8128 17.3609 52.6598 17.3744 52.52 17.4299L49.7 18.7799C49.5971 18.8296 49.4843 18.8553 49.37 18.8553C49.2557 18.8553 49.1429 18.8296 49.04 18.7799L46.25 17.3999C46.1102 17.3444 45.9572 17.3309 45.8099 17.3613C45.6626 17.3917 45.5274 17.4646 45.4211 17.571C45.3147 17.6773 45.2418 17.8125 45.2114 17.9599C45.181 18.1072 45.1944 18.2602 45.25 18.3999L46.61 21.2099C46.6592 21.3211 46.6821 21.442 46.6769 21.5634C46.6716 21.6849 46.6385 21.8034 46.58 21.9099V21.9099Z" fill="#A9C2FF"/>
<path d="M229.72 47.7801C229.72 47.2886 229.321 46.8901 228.83 46.8901C228.338 46.8901 227.94 47.2886 227.94 47.7801V48.6801C227.94 49.1717 228.338 49.5701 228.83 49.5701C229.321 49.5701 229.72 49.1717 229.72 48.6801V47.7801Z" fill="#CFDFFF"/>
<path d="M229.72 54.92C229.72 54.4285 229.321 54.03 228.83 54.03C228.338 54.03 227.94 54.4285 227.94 54.92V55.82C227.94 56.3116 228.338 56.71 228.83 56.71C229.321 56.71 229.72 56.3116 229.72 55.82V54.92Z" fill="#CFDFFF"/>
<path d="M232.85 52.6899C233.342 52.6899 233.74 52.2914 233.74 51.7999C233.74 51.3084 233.342 50.9099 232.85 50.9099H231.95C231.458 50.9099 231.06 51.3084 231.06 51.7999C231.06 52.2914 231.458 52.6899 231.95 52.6899H232.85Z" fill="#CFDFFF"/>
<path d="M225.72 52.6899C226.212 52.6899 226.61 52.2914 226.61 51.7999C226.61 51.3084 226.212 50.9099 225.72 50.9099H224.82C224.329 50.9099 223.93 51.3084 223.93 51.7999C223.93 52.2914 224.329 52.6899 224.82 52.6899H225.72Z" fill="#CFDFFF"/>
<g opacity="0.25">
<path opacity="0.25" d="M12.7001 75.56C12.7001 75.1071 12.3329 74.74 11.8801 74.74C11.4272 74.74 11.0601 75.1071 11.0601 75.56V76.38C11.0601 76.8329 11.4272 77.2 11.8801 77.2C12.3329 77.2 12.7001 76.8329 12.7001 76.38V75.56Z" fill="#AEC7FF"/>
<path opacity="0.25" d="M12.7001 82.12C12.7001 81.6672 12.3329 81.3 11.8801 81.3C11.4272 81.3 11.0601 81.6672 11.0601 82.12V82.94C11.0601 83.3929 11.4272 83.76 11.8801 83.76C12.3329 83.76 12.7001 83.3929 12.7001 82.94V82.12Z" fill="#AEC7FF"/>
<path opacity="0.25" d="M15.5701 80.0699C16.023 80.0699 16.3901 79.7028 16.3901 79.2499C16.3901 78.7971 16.023 78.4299 15.5701 78.4299H14.7501C14.2973 78.4299 13.9301 78.7971 13.9301 79.2499C13.9301 79.7028 14.2973 80.0699 14.7501 80.0699H15.5701Z" fill="#AEC7FF"/>
<path opacity="0.25" d="M9.01008 80.0699C9.46295 80.0699 9.83008 79.7028 9.83008 79.2499C9.83008 78.7971 9.46295 78.4299 9.01008 78.4299H8.19007C7.7372 78.4299 7.37007 78.7971 7.37007 79.2499C7.37007 79.7028 7.7372 80.0699 8.19007 80.0699H9.01008Z" fill="#AEC7FF"/>
</g>
<path d="M30.4701 115.49H36.7201L35.8201 116.67H30.1001L30.4701 115.49Z" fill="#8B574F"/>
<path d="M56.84 116.67H51.11L50.21 115.49H56.47L56.84 116.67Z" fill="#8B574F"/>
<path d="M100.07 72.8801L100.48 68.5901C100.577 67.5537 100.877 66.5466 101.363 65.6262C101.849 64.7058 102.512 63.8903 103.313 63.2263C104.115 62.5622 105.039 62.0627 106.034 61.7562C107.029 61.4497 108.074 61.3423 109.11 61.4401V61.4401C110.146 61.5367 111.154 61.8366 112.074 62.3227C112.994 62.8088 113.81 63.4715 114.474 64.273C115.138 65.0745 115.638 65.9991 115.944 66.9938C116.25 67.9885 116.358 69.0338 116.26 70.0701L115.86 74.2401C115.631 76.9973 116.263 79.7577 117.67 82.1401C119.313 84.9871 119.789 88.3594 119 91.5501C118.385 94.1383 116.963 96.4637 114.938 98.1897C112.914 99.9156 110.393 100.952 107.74 101.15C105.879 101.31 104.005 101.06 102.251 100.417C100.497 99.7736 98.9058 98.753 97.5896 97.4272C96.2733 96.1015 95.2643 94.5028 94.6337 92.7443C94.0031 90.9857 93.7663 89.1102 93.9401 87.2501C94.1761 84.6716 95.199 82.2279 96.8701 80.2501C98.6595 78.1748 99.7755 75.6044 100.07 72.8801V72.8801Z" fill="black"/>
<path d="M103.61 97.25L102.98 118.67" stroke="black" stroke-width="3.4307" stroke-miterlimit="10" stroke-linecap="round"/>
<path d="M111.66 97.25L116.77 118.67" stroke="black" stroke-width="3.4307" stroke-miterlimit="10" stroke-linecap="round"/>
<path d="M87.6399 68.2C93.7799 70.88 104.44 75.71 104.44 75.71" stroke="black" stroke-width="3.4307" stroke-miterlimit="10" stroke-linecap="round"/>
<path d="M91.19 35.6901H95C95.2964 35.6862 95.5854 35.783 95.8197 35.9646C96.0541 36.1462 96.2198 36.402 96.29 36.6901L98 44.6201C98.0207 44.7186 98.0193 44.8206 97.9958 44.9185C97.9724 45.0165 97.9274 45.108 97.8643 45.1864C97.8011 45.2649 97.7213 45.3284 97.6306 45.3722C97.54 45.4161 97.4407 45.4392 97.34 45.4401H83.58C83.2871 45.4435 82.9986 45.5112 82.7348 45.6384C82.471 45.7657 82.2383 45.9493 82.0533 46.1763C81.8682 46.4033 81.7353 46.6682 81.6639 46.9522C81.5925 47.2363 81.5843 47.5325 81.64 47.8201L92.52 100.11" stroke="#979AA8" stroke-width="2.5" stroke-miterlimit="10" stroke-linecap="round"/>
<path d="M91.3799 94.6401L92.5199 100.11" stroke="#F5B312" stroke-width="2.5" stroke-miterlimit="10" stroke-linecap="round"/>
<path d="M88.54 83.3101C99.38 90.3101 103.85 80.0701 103.85 80.0701" stroke="black" stroke-width="3.4307" stroke-miterlimit="10" stroke-linecap="round"/>
<path d="M90.84 40.2501C91.4388 40.2501 92.0318 40.1322 92.585 39.903C93.1383 39.6739 93.6409 39.338 94.0644 38.9145C94.4878 38.4911 94.8237 37.9884 95.0529 37.4352C95.282 36.8819 95.4 36.289 95.4 35.6901C95.4 35.0913 95.282 34.4983 95.0529 33.9451C94.8237 33.3918 94.4878 32.8892 94.0644 32.4657C93.6409 32.0423 93.1383 31.7064 92.585 31.4772C92.0318 31.2481 91.4388 31.1301 90.84 31.1301H76.72V40.2501H90.84Z" fill="#F7D036"/>
<path d="M77.76 31.1301H76.76V40.2501H77.76C78.9694 40.2501 80.1292 39.7697 80.9844 38.9145C81.8396 38.0594 82.32 36.8995 82.32 35.6901C82.32 34.4807 81.8396 33.3209 80.9844 32.4657C80.1292 31.6106 78.9694 31.1301 77.76 31.1301Z" fill="white"/>
<path d="M76.7199 40.2501C79.2383 40.2501 81.2799 38.2085 81.2799 35.6901C81.2799 33.1717 79.2383 31.1301 76.7199 31.1301C74.2015 31.1301 72.1599 33.1717 72.1599 35.6901C72.1599 38.2085 74.2015 40.2501 76.7199 40.2501Z" fill="#ADB2C6"/>
<path d="M76.7199 35.6899H74.6499" stroke="#C9CDE0" stroke-width="2.5" stroke-miterlimit="10" stroke-linecap="round"/>
</g>
<defs>
<clipPath id="clip0">
<rect width="280" height="120" fill="white"/>
</clipPath>
</defs>
</svg>
