<svg xmlns="http://www.w3.org/2000/svg" width="100" height="104" viewBox="0 0 100 104" xmlns:xlink="http://www.w3.org/1999/xlink">
  <defs>
    <path id="a" d="M3.22702703,39.8769595 L3.22702703,1.44189189 C3.22702703,1.44189189 2.328636,0.619942183 0.329121622,0.0228533256 L0.329121622,39.8769595 L3.22702703,39.8769595 L3.22702703,39.8769595 Z"/>
    <path id="c" d="M0.524324324,1.62425676 L0.524324324,0.0905405405 C0.524324324,0.0905405405 0.517566609,0.0843578182 0.503918919,0.0726752935 L0.503918919,1.62425676 L0.524324324,1.62425676 L0.524324324,1.62425676 Z"/>
    <polygon id="e" points=".525 .308 .525 10.868 4.069 10.868 4.069 .308"/>
    <polygon id="g" points=".525 .45 .525 6.668 6.284 6.668 6.284 .45 .525 .45"/>
    <polygon id="i" points=".525 .348 .525 10.823 6.284 10.823 6.284 .348 .525 .348"/>
    <path id="k" d="M0.525,20.0026351 L0.525,2.11756757 C0.525,2.11756757 2.47107589,0.336534113 7.01209459,0.113405104 L7.01209459,20.0026351 L0.525,20.0026351 L0.525,20.0026351 Z"/>
    <path id="m" d="M3.40371622,0.375885409 C2.05733079,0.63186762 1.05645005,1.01914142 0.36722973,1.36355109 L0.36722973,16.7104054 L3.40371622,16.7104054 L3.40371622,0.375885409 L3.40371622,0.375885409 Z"/>
    <path id="o" d="M1.62547297,0.252929316 C1.30206022,0.208072325 0.961639439,0.171068274 0.603851351,0.143772234 L0.603851351,9.44317568 L1.62547297,9.44317568 L1.62547297,0.25292723 L1.62547297,0.252929316 Z"/>
    <path id="q" d="M1.37621622,0.375975342 C1.01039223,0.445540347 0.670078024,0.52479766 0.354594595,0.610253269 L0.354594595,1.6077027 L1.37621622,1.6077027 L1.37621622,0.375975342 L1.37621622,0.375975342 Z"/>
    <polygon id="s" points=".524 10.413 .524 .12 .504 .12 .504 10.413 .524 10.413"/>
    <path id="u" d="M0.525,0.148581081 L0.525,32.522973 C0.525,32.5867866 0.535810584,32.6499109 0.556959459,32.7122172 L0.556959459,0.148581081 L0.525,0.148581081 L0.525,0.148581081 Z"/>
    <path id="w" d="M0.605135135,30.7261132 C0.925034464,30.7961554 1.26663714,30.8591269 1.62675515,30.9141587 L1.62675676,0.573581081 L0.605135135,0.573581081 L0.605135135,30.7261132 L0.605135135,30.7261132 Z"/>
    <path id="y" d="M0.000135135135,16.9561274 C0.333748235,16.9709027 0.674810986,16.9796214 1.02175676,16.9818567 L1.02175676,0.595945946 L0.000135135135,0.595945946 L0.000135135135,16.9561274 L0.000135135135,16.9561274 Z"/>
    <path id="A" d="M5.22374855,24.5991892 C5.24380697,24.5384804 5.25405405,24.4769994 5.25405405,24.4148649 L5.25405405,0.216081081 L0.0918243243,0.216081081 L0.0918243243,24.5991892 L5.22374855,24.5991892 L5.22374855,24.5991892 Z"/>
    <polygon id="C" points="3.227 19.334 3.227 .004 .172 .004 .172 19.334 3.227 19.334"/>
    <path id="E" d="M0.17222973,3.08029492 C2.02398812,2.71166287 3.22702703,2.11513585 3.22702703,1.44189189 L3.22702703,0.203108108 L0.17222973,0.203108108 L0.17222973,3.08029492 L0.17222973,3.08029492 Z"/>
    <polygon id="G" points="1.2 13.717 1.2 .251 .317 .251 .317 13.717 1.2 13.717"/>
    <polygon id="I" points="1.2 7.406 1.2 .149 .221 .149 .221 7.406 1.2 7.406"/>
    <polygon id="K" points="6.704 .812 .264 .351 .264 4.493 6.704 4.493 6.704 .812"/>
    <polygon id="M" points="6.573 6.833 9.632 5.096 3.707 .503 .376 .264 .376 6.833 6.573 6.833"/>
    <polygon id="O" points="20.554 1.559 .93 .153 .584 4.979 20.554 4.979 20.554 1.559"/>
    <polygon id="Q" points="16.589 1.323 .254 .153 .076 2.643 16.589 2.643 16.589 1.323"/>
    <polygon id="S" points=".592 .135 .491 1.557 3.178 1.557 3.178 .135 .592 .135"/>
    <polygon id="U" points=".067 .418 13.775 1.4 13.775 .418 .067 .418"/>
    <polygon id="W" points=".18 .623 10.545 1.366 11.852 .623 .18 .623"/>
    <polygon id="Y" points=".106 .048 5.959 6.825 46.305 6.825 46.305 .048 .106 .048"/>
    <polygon id="aa" points="40.9 1.165 40.9 .143 .055 .143 .055 1.165 40.9 1.165"/>
    <polygon id="ac" points="15.224 .444 15.224 .273 .507 .273 .507 .444"/>
    <polygon id="ae" points="11.17 1.419 11.17 .398 .131 .398 .131 1.419 11.17 1.419"/>
    <polygon id="ag" points="7.792 1.094 7.792 .072 .014 .072 .014 1.094 7.792 1.094"/>
    <polygon id="ai" points=".547 7.135 24.089 4.406 24.089 .649 .547 .649 .547 7.135"/>
    <polygon id="ak" points=".332 3.468 19.556 1.24 19.556 .076 .332 .076 .332 3.468"/>
    <polygon id="am" points=".595 1.108 1.056 .583 .595 .583 .595 1.108"/>
    <polygon id="ao" points=".352 3.143 1.208 3.044 1.801 8.163 2.596 8.163 9.285 .539 .352 .539 .352 3.143"/>
    <polygon id="aq" points=".201 .208 2.194 2.406 .201 6.006 .201 6.842 8.12 5.924 8.12 .199 .201 .199 .201 .208"/>
    <polygon id="as" points="5.321 3.942 .236 .314 .657 3.942 5.321 3.942"/>
    <polygon id="au" points=".388 .973 1.149 .273 24.771 .273 24.771 9.732 1.149 9.732 .388 9.203 .388 .973"/>
    <polygon id="aw" points=".136 .949 10.135 .949 10.135 .329 .136 .329 .136 .949"/>
    <polygon id="ay" points="5.879 7.351 3.064 4.306 6.896 .197 .375 .197 .375 7.351 5.879 7.351"/>
    <polygon id="aA" points="4.2 .466 .023 4.306 .445 4.6 4.2 4.6 4.2 .466"/>
  </defs>
  <g fill="none" fill-rule="evenodd">
    <g transform="translate(1.351 1.351)">
      <path stroke="#282B32" stroke-width="2" d="M13.0912162 98.2128378L97.1459459 98.2128378M4.57864865 98.2128378L8.10837838 98.2128378M80.2527027 95.2989865L79.577027 98.2125" stroke-linecap="round" stroke-linejoin="round"/>
      <g transform="translate(33.108 23.122)">
        <path stroke="#282B32" stroke-width="2" d="M42.7527027,75.0905405 L31.2662162,75.0905405 L31.2662162,72.3878378 C31.2662162,70.5222973 32.7790541,69.0094595 34.6445946,69.0094595 L39.3743243,69.0094595 C41.2398649,69.0094595 42.7527027,70.5222973 42.7527027,72.3878378 L42.7527027,75.0905405 L42.7527027,75.0905405 Z" stroke-linecap="round" stroke-linejoin="round"/>
        <path fill="#35383E" d="M33.9689189,75.0905405 L29.2391892,75.0905405 L29.2391892,73.0635135 C29.2391892,72.3168919 29.8439189,71.7121622 30.5905405,71.7121622 L32.6175676,71.7121622 C33.3641892,71.7121622 33.9689189,72.3168919 33.9689189,73.0635135 L33.9689189,75.0905405 Z"/>
        <path stroke="#282B32" stroke-width="2" d="M33.9689189 75.0905405L29.2391892 75.0905405 29.2391892 73.0635135C29.2391892 72.3168919 29.8439189 71.7121622 30.5905405 71.7121622L32.6175676 71.7121622C33.3641892 71.7121622 33.9689189 72.3168919 33.9689189 73.0635135L33.9689189 75.0905405 33.9689189 75.0905405zM39.9373649 71.7121622C39.9373649 71.7121622 38.3610135 72.2189189 37.0096622 72.05M3.22567568 71.2054054L4.12635135 75.0905405M.0725 73.147973L.973175676 75.0905405" stroke-linecap="round" stroke-linejoin="round"/>
        <path fill="#31343A" d="M9.30837838,2.11756757 L9.30837838,75.0905405 C9.30837838,76.2101351 12.6360811,77.1175676 16.7408108,77.1175676 C20.8455405,77.1175676 24.1732432,76.2101351 24.1732432,75.0905405 L24.1732432,2.11756757 C24.1732432,2.11756757 21.9577027,0.0905405405 16.7408108,0.0905405405 C11.5239189,0.0905405405 9.30837838,2.11756757 9.30837838,2.11756757"/>
      </g>
      <g transform="translate(41.892 23.122)">
        <path fill="#34373D" d="M9.89844595 11.2922973C9.61601351 11.2922973 9.38763514 11.5206757 9.38763514 11.8031081L9.38763514 29.7112162C9.38763514 29.9936486 9.61601351 30.2227027 9.89844595 30.2227027 10.1808784 30.2227027 10.4092568 29.9936486 10.4092568 29.7112162L10.4092568 11.8031081C10.4092568 11.5206757 10.1808784 11.2922973 9.89844595 11.2922973M9.89844595 32.0097973C9.61601351 32.0097973 9.38763514 32.2381757 9.38763514 32.5206081L9.38763514 40.0415541C9.38763514 40.3239865 9.61601351 40.5523649 9.89844595 40.5523649 10.1808784 40.5523649 10.4092568 40.3239865 10.4092568 40.0415541L10.4092568 32.5206081C10.4092568 32.2381757 10.1808784 32.0097973 9.89844595 32.0097973"/>
        <g transform="translate(12.162 .676)">
          <mask id="b" fill="white">
            <use xlink:href="#a"/>
          </mask>
          <path fill="#34373D" d="M6.08452703,31.3485811 C5.5852027,30.3093919 4.91966216,29.3458784 4.08047297,28.5066892 C2.32033784,26.7472297 1.35074324,24.4066892 1.35074324,21.9168243 L1.35074324,16.1641216 C1.85074324,17.2046622 2.51763514,18.169527 3.35817568,19.0100676 C5.11628378,20.7681757 6.08452703,23.1066892 6.08452703,25.5938514 L6.08452703,31.3485811 Z M1.35074324,11.6972297 L1.35074324,6.83709459 L1.35074324,-3.3825 C1.35074324,-3.66493243 1.12236486,-3.89331081 0.839932432,-3.89331081 C0.5575,-3.89331081 0.329121622,-3.66493243 0.329121622,-3.3825 L0.329121622,6.83709459 L0.329121622,11.6972297 L0.329121622,21.9168243 C0.329121622,24.6796622 1.4047973,27.2762838 3.35817568,29.2289865 C5.11628378,30.9877703 6.08452703,33.3262838 6.08452703,35.8134459 L6.08452703,36.2999324 L6.08452703,39.3661486 C6.08452703,39.6485811 6.31290541,39.8769595 6.59533784,39.8769595 C6.87777027,39.8769595 7.10614865,39.6485811 7.10614865,39.3661486 L7.10614865,36.2999324 L7.10614865,35.8134459 L7.10614865,25.5938514 C7.10614865,22.8343919 6.03182432,20.2391216 4.08047297,18.2870946 C2.32033784,16.5276351 1.35074324,14.1877703 1.35074324,11.6972297 L1.35074324,11.6972297 Z" mask="url(#b)"/>
        </g>
        <g transform="translate(14.865 2.027)">
          <mask id="d" fill="white">
            <use xlink:href="#c"/>
          </mask>
          <path fill="#34373D" d="M5.97216216,-5.24466216 C5.68972973,-5.24466216 5.46135135,-5.01628378 5.46135135,-4.73385135 L5.46135135,-1.36425676 C5.46135135,-0.279797297 4.57824324,0.602635135 3.49378378,0.602635135 C2.40864865,0.602635135 1.52621622,-0.279797297 1.52621622,-1.36425676 L1.52621622,-4.73385135 C1.52621622,-5.01628378 1.29783784,-5.24466216 1.01540541,-5.24466216 C0.732972973,-5.24466216 0.503918919,-5.01628378 0.503918919,-4.73385135 L0.503918919,-1.36425676 C0.503918919,0.283040541 1.84513514,1.62425676 3.49378378,1.62425676 C5.14175676,1.62425676 6.48297297,0.283040541 6.48297297,-1.36425676 L6.48297297,-4.73385135 C6.48297297,-5.01628378 6.25459459,-5.24466216 5.97216216,-5.24466216" mask="url(#d)"/>
        </g>
        <g transform="translate(0 25)">
          <mask id="f" fill="white">
            <use xlink:href="#e"/>
          </mask>
          <path fill="#34373D" d="M1.68493243,10.8680405 C2.9997973,10.8680405 4.06939189,9.79844595 4.06939189,8.48358108 L4.06939189,2.69236486 C4.06939189,1.37817568 2.9997973,0.307905405 1.68493243,0.307905405 C1.4025,0.307905405 1.17412162,0.536959459 1.17412162,0.819391892 C1.17412162,1.10182432 1.4025,1.3302027 1.68493243,1.3302027 C2.43560811,1.3302027 3.04709459,1.94101351 3.04709459,2.69236486 L3.04709459,8.48358108 C3.04709459,9.23560811 2.43560811,9.84641892 1.68493243,9.84641892 C0.933581081,9.84641892 0.322094595,9.23560811 0.322094595,8.48358108 L0.322094595,2.69236486 C0.322094595,2.40993243 0.0937162162,2.18155405 -0.188716216,2.18155405 C-0.471148649,2.18155405 -0.699527027,2.40993243 -0.699527027,2.69236486 L-0.699527027,8.48358108 C-0.699527027,9.79844595 0.370067568,10.8680405 1.68493243,10.8680405" mask="url(#f)"/>
        </g>
        <g transform="translate(0 21.622)">
          <mask id="h" fill="white">
            <use xlink:href="#g"/>
          </mask>
          <path fill="#34373D" d="M2.79168919,0.450067568 C0.866689189,0.450067568 -0.699527027,2.01695946 -0.699527027,3.94195946 C-0.699527027,4.22439189 -0.471148649,4.45277027 -0.188716216,4.45277027 C0.0937162162,4.45277027 0.322094595,4.22439189 0.322094595,3.94195946 C0.322094595,2.5797973 1.4302027,1.47168919 2.79168919,1.47168919 C4.15317568,1.47168919 5.26195946,2.5797973 5.26195946,3.94195946 L5.26195946,6.15682432 C5.26195946,6.43925676 5.49033784,6.66763514 5.77277027,6.66763514 C6.0552027,6.66763514 6.28358108,6.43925676 6.28358108,6.15682432 L6.28358108,3.94195946 C6.28358108,2.01695946 4.71736486,0.450067568 2.79168919,0.450067568" mask="url(#h)"/>
        </g>
        <g transform="translate(0 29.73)">
          <mask id="j" fill="white">
            <use xlink:href="#i"/>
          </mask>
          <path fill="#34373D" d="M5.7727027,0.347905405 C5.49027027,0.347905405 5.26189189,0.576283784 5.26189189,0.858716216 L5.26189189,6.22425676 C5.26189189,8.19587838 3.65716216,9.80128378 1.68486486,9.80128378 C-0.287432432,9.80128378 -1.89216216,8.19587838 -1.89216216,6.22425676 L-1.89216216,4.21141892 C-1.89216216,3.92898649 -2.12054054,3.69993243 -2.40297297,3.69993243 C-2.68540541,3.69993243 -2.91378378,3.92898649 -2.91378378,4.21141892 L-2.91378378,6.22425676 C-2.91378378,8.76006757 -0.850945946,10.8229054 1.68486486,10.8229054 C4.22067568,10.8229054 6.28351351,8.76006757 6.28351351,6.22425676 L6.28351351,0.858716216 C6.28351351,0.576283784 6.05513514,0.347905405 5.7727027,0.347905405" mask="url(#j)"/>
        </g>
        <mask id="l" fill="white">
          <use xlink:href="#k"/>
        </mask>
        <path fill="#34373D" d="M6.50128378,-3.21763514 C6.21885135,-3.21763514 5.99047297,-2.98925676 5.99047297,-2.70682432 L5.99047297,16.2276351 C5.99047297,17.7452027 4.75533784,18.9810135 3.23709459,18.9810135 C1.71817568,18.9810135 0.483040541,17.7452027 0.483040541,16.2276351 L0.483040541,-0.804797297 C0.483040541,-1.08722973 0.253986486,-1.31560811 -0.0284459459,-1.31560811 C-0.310878378,-1.31560811 -0.539256757,-1.08722973 -0.539256757,-0.804797297 L-0.539256757,16.2276351 C-0.539256757,18.3093919 1.15533784,20.0026351 3.23709459,20.0026351 C5.31885135,20.0026351 7.01209459,18.3093919 7.01209459,16.2276351 L7.01209459,-2.70682432 C7.01209459,-2.98925676 6.78371622,-3.21763514 6.50128378,-3.21763514" mask="url(#l)"/>
        <g transform="translate(1.351)">
          <mask id="n" fill="white">
            <use xlink:href="#m"/>
          </mask>
          <path fill="#34373D" d="M1.88547297,16.7104054 C2.72195946,16.7104054 3.40371622,16.03 3.40371622,15.1921622 L3.40371622,5.46918919 C3.40371622,5.18675676 3.17466216,4.9577027 2.89222973,4.9577027 C2.6097973,4.9577027 2.38141892,5.18675676 2.38141892,5.46918919 L2.38141892,15.1921622 C2.38141892,15.4658108 2.15912162,15.6887838 1.88547297,15.6887838 C1.61182432,15.6887838 1.38885135,15.4658108 1.38885135,15.1921622 L1.38885135,-2.70648649 C1.38885135,-2.98891892 1.16047297,-3.21797297 0.878040541,-3.21797297 C0.595608108,-3.21797297 0.36722973,-2.98891892 0.36722973,-2.70648649 L0.36722973,15.1921622 C0.36722973,16.03 1.04831081,16.7104054 1.88547297,16.7104054" mask="url(#n)"/>
        </g>
        <g transform="translate(8.784)">
          <mask id="p" fill="white">
            <use xlink:href="#o"/>
          </mask>
          <path fill="#34373D" d="M1.11466216,-3.21763514 C0.83222973,-3.21763514 0.603851351,-2.98925676 0.603851351,-2.70682432 L0.603851351,8.93236486 C0.603851351,9.2147973 0.83222973,9.44317568 1.11466216,9.44317568 C1.39709459,9.44317568 1.62547297,9.2147973 1.62547297,8.93236486 L1.62547297,-2.70682432 C1.62547297,-2.98925676 1.39709459,-3.21763514 1.11466216,-3.21763514" mask="url(#p)"/>
        </g>
        <g transform="translate(3.378)">
          <mask id="r" fill="white">
            <use xlink:href="#q"/>
          </mask>
          <path fill="#34373D" d="M0.865405405,1.6077027 C1.14783784,1.6077027 1.37621622,1.37932432 1.37621622,1.09689189 L1.37621622,-2.70648649 C1.37621622,-2.98891892 1.14783784,-3.2172973 0.865405405,-3.2172973 C0.582972973,-3.2172973 0.354594595,-2.98891892 0.354594595,-2.70648649 L0.354594595,1.09689189 C0.354594595,1.37932432 0.582972973,1.6077027 0.865405405,1.6077027" mask="url(#r)"/>
        </g>
        <g transform="translate(14.865 5.405)">
          <mask id="t" fill="white">
            <use xlink:href="#s"/>
          </mask>
          <path fill="#34373D" d="M3.49364865,9.39182432 C2.40851351,9.39182432 1.52608108,8.50939189 1.52608108,7.42493243 L1.52608108,7.39587838 C2.05310811,7.86074324 2.73689189,8.15263514 3.49364865,8.15263514 C4.25040541,8.15263514 4.93418919,7.86074324 5.46121622,7.39587838 L5.46121622,7.42493243 C5.46121622,8.50939189 4.57878378,9.39182432 3.49364865,9.39182432 M5.45040541,5.26682432 C5.395,6.30263514 4.5422973,7.13033784 3.49364865,7.13033784 C2.445,7.13033784 1.5922973,6.30263514 1.53689189,5.26682432 C1.5922973,4.23168919 2.445,3.40398649 3.49364865,3.40398649 C4.5422973,3.40398649 5.395,4.23168919 5.45040541,5.26682432 M3.49364865,1.1425 C4.57878378,1.1425 5.46121622,2.02425676 5.46121622,3.10939189 L5.46121622,3.13844595 C4.93418919,2.67358108 4.25040541,2.38168919 3.49364865,2.38168919 C2.73689189,2.38168919 2.05310811,2.67358108 1.52608108,3.13844595 L1.52608108,3.10939189 C1.52608108,2.02425676 2.40851351,1.1425 3.49364865,1.1425 M3.49364865,0.120202703 C1.84567568,0.120202703 0.504459459,1.46141892 0.504459459,3.10939189 L0.504459459,5.16209459 C0.504459459,5.19790541 0.513243243,5.23168919 0.514594595,5.26682432 C0.513243243,5.30263514 0.504459459,5.33574324 0.504459459,5.37155405 L0.504459459,7.42493243 C0.504459459,9.07222973 1.84567568,10.4134459 3.49364865,10.4134459 C5.14162162,10.4134459 6.48283784,9.07222973 6.48283784,7.42493243 L6.48283784,5.37155405 C6.48283784,5.33574324 6.47405405,5.30263514 6.4727027,5.26682432 C6.47405405,5.23168919 6.48283784,5.19790541 6.48283784,5.16209459 L6.48283784,3.10939189 C6.48283784,1.46141892 5.14162162,0.120202703 3.49364865,0.120202703" mask="url(#t)"/>
        </g>
        <path fill="#34373D" d="M13.0022297,32.4648649 C12.7197973,32.4648649 12.4914189,32.6932432 12.4914189,32.9756757 L12.4914189,40.0418919 C12.4914189,40.3243243 12.7197973,40.5527027 13.0022297,40.5527027 C13.2846622,40.5527027 13.5130405,40.3243243 13.5130405,40.0418919 L13.5130405,32.9756757 C13.5130405,32.6932432 13.2846622,32.4648649 13.0022297,32.4648649"/>
        <path fill="#34373D" d="M1.16527027,0.591216216 C0.882837838,0.591216216 0.654459459,0.819594595 0.654459459,1.10202703 L0.654459459,4.90675676 C0.654459459,5.18918919 0.882837838,5.41756757 1.16527027,5.41756757 C1.4477027,5.41756757 1.67608108,5.18918919 1.67608108,4.90675676 L1.67608108,1.10202703 C1.67608108,0.819594595 1.4477027,0.591216216 1.16527027,0.591216216" transform="translate(14.865 35.135)"/>
        <g transform="translate(0 42.568)">
          <mask id="v" fill="white">
            <use xlink:href="#u"/>
          </mask>
          <path fill="#34373D" d="M-5.25114865,35.7499324 L-5.25114865,33.1931757 C-5.25114865,30.6823649 -4.27344595,28.3208784 -2.49574324,26.5425 C-1.64371622,25.6918243 -0.969391892,24.7141216 -0.464662162,23.6587162 L-0.464662162,26.2141216 C-0.464662162,28.7256081 -1.44304054,31.0864189 -3.22006757,32.8641216 C-4.07209459,33.7161486 -4.74641892,34.694527 -5.25114865,35.7499324 L-5.25114865,35.7499324 Z M-5.25114865,21.1019595 C-5.25114865,18.5897973 -4.27344595,16.2296622 -2.49574324,14.4519595 C-1.64371622,13.5999324 -0.969391892,12.6222297 -0.464662162,11.5668243 L-0.464662162,19.1722297 C-0.464662162,21.6843919 -1.44304054,24.0458784 -3.22006757,25.8222297 C-4.07209459,26.6742568 -4.74641892,27.6526351 -5.25114865,28.7080405 L-5.25114865,21.1019595 Z M-2.49574324,11.3864189 C-1.74101351,10.6310135 -1.11871622,9.77966216 -0.634932432,8.86074324 C-0.984932432,10.694527 -1.87074324,12.3816892 -3.22006757,13.7316892 C-3.97547297,14.4864189 -4.59709459,15.3377703 -5.08087838,16.2566892 C-4.73155405,14.4235811 -3.84574324,12.7364189 -2.49574324,11.3864189 L-2.49574324,11.3864189 Z M0.556959459,26.2141216 L0.556959459,19.1722297 L0.556959459,9.39993243 L0.556959459,7.08101351 L0.556959459,4.0147973 L0.556959459,3.72560811 L0.556959459,0.659391892 C0.556959459,0.376959459 0.328581081,0.148581081 0.0461486486,0.148581081 C-0.236283784,0.148581081 -0.464662162,0.376959459 -0.464662162,0.659391892 L-0.464662162,3.72560811 L-0.464662162,4.0147973 C-0.464662162,6.52695946 -1.44304054,8.88777027 -3.22006757,10.665473 C-5.18898649,12.6337162 -6.27277027,15.2512838 -6.27277027,18.0357432 L-6.27277027,43.4080405 C-6.27277027,43.690473 -6.04439189,43.9188514 -5.76195946,43.9188514 C-5.47952703,43.9188514 -5.25114865,43.690473 -5.25114865,43.4080405 L-5.25114865,40.2343919 C-5.25114865,37.7235811 -4.27344595,35.3627703 -2.49574324,33.5843919 C-0.526824324,31.615473 0.556959459,28.9985811 0.556959459,26.2141216 L0.556959459,26.2141216 Z" mask="url(#v)"/>
        </g>
        <g transform="translate(2.703 45.946)">
          <mask id="x" fill="white">
            <use xlink:href="#w"/>
          </mask>
          <path fill="#34373D" d="M1.11594595,0.573581081 C0.833513514,0.573581081 0.605135135,0.801959459 0.605135135,1.08439189 L0.605135135,40.0296622 C0.605135135,40.3120946 0.833513514,40.540473 1.11594595,40.540473 C1.39837838,40.540473 1.62675676,40.3120946 1.62675676,40.0296622 L1.62675676,1.08439189 C1.62675676,0.801959459 1.39837838,0.573581081 1.11594595,0.573581081" mask="url(#x)"/>
        </g>
        <g transform="translate(6.757 60.135)">
          <mask id="z" fill="white">
            <use xlink:href="#y"/>
          </mask>
          <path fill="#34373D" d="M0.510945946,0.595945946 C0.228513514,0.595945946 0.000135135135,0.824324324 0.000135135135,1.10675676 L0.000135135135,25.8405405 C0.000135135135,26.122973 0.228513514,26.3513514 0.510945946,26.3513514 C0.793378378,26.3513514 1.02175676,26.122973 1.02175676,25.8405405 L1.02175676,1.10675676 C1.02175676,0.824324324 0.793378378,0.595945946 0.510945946,0.595945946" mask="url(#z)"/>
        </g>
        <path fill="#34373D" d="M7.2677027,42.7161486 C6.98527027,42.7161486 6.75689189,42.944527 6.75689189,43.2269595 L6.75689189,57.519527 C6.75689189,57.8019595 6.98527027,58.0303378 7.2677027,58.0303378 C7.55013514,58.0303378 7.77851351,57.8019595 7.77851351,57.519527 L7.77851351,43.2269595 C7.77851351,42.944527 7.55013514,42.7161486 7.2677027,42.7161486"/>
        <g transform="translate(10.135 50.676)">
          <mask id="B" fill="white">
            <use xlink:href="#A"/>
          </mask>
          <path fill="#34373D" d="M5.77425676,0.216081081 C2.64047297,0.216081081 0.0918243243,2.76472973 0.0918243243,5.89783784 L0.0918243243,12.9039189 C0.0918243243,13.1863514 0.320202703,13.4147297 0.602635135,13.4147297 C0.885067568,13.4147297 1.11344595,13.1863514 1.11344595,12.9039189 L1.11344595,5.89783784 C1.11344595,3.32891892 3.20466216,1.2377027 5.77898649,1.2377027 C8.34925676,1.2377027 10.4391216,3.32891892 10.4391216,5.89783784 L10.4391216,24.0883784 C10.4391216,24.3708108 10.6675,24.5991892 10.9499324,24.5991892 C11.2323649,24.5991892 11.4607432,24.3708108 11.4607432,24.0883784 L11.4607432,5.89783784 C11.4607432,2.76472973 8.91209459,0.216081081 5.77425676,0.216081081" mask="url(#B)"/>
        </g>
        <path fill="#34373D" d="M10.7377703,66.1801351 C10.4553378,66.1801351 10.2269595,66.4085135 10.2269595,66.6909459 L10.2269595,75.6672973 C10.2269595,75.9497297 10.4553378,76.1787838 10.7377703,76.1787838 C11.0202027,76.1787838 11.2485811,75.9497297 11.2485811,75.6672973 L11.2485811,66.6909459 C11.2485811,66.4085135 11.0202027,66.1801351 10.7377703,66.1801351"/>
        <g transform="translate(12.162 53.378)">
          <mask id="D" fill="white">
            <use xlink:href="#C"/>
          </mask>
          <path fill="#34373D" d="M6.30412162,15.7568243 C6.30412162,17.1662838 5.15817568,18.3115541 3.74939189,18.3115541 C2.33993243,18.3115541 1.19466216,17.1662838 1.19466216,15.7568243 L1.19466216,3.58114865 C1.19466216,2.17236486 2.33993243,1.02641892 3.74939189,1.02641892 C5.15817568,1.02641892 6.30412162,2.17236486 6.30412162,3.58114865 L6.30412162,15.7568243 Z M3.74939189,0.00412162162 C1.77709459,0.00412162162 0.172364865,1.60885135 0.172364865,3.58114865 L0.172364865,15.7568243 C0.172364865,17.7291216 1.77709459,19.3338514 3.74939189,19.3338514 C5.72101351,19.3338514 7.32574324,17.7291216 7.32574324,15.7568243 L7.32574324,3.58114865 C7.32574324,1.60885135 5.72101351,0.00412162162 3.74939189,0.00412162162 L3.74939189,0.00412162162 Z" mask="url(#D)"/>
        </g>
        <g transform="translate(12.162 73.649)">
          <mask id="F" fill="white">
            <use xlink:href="#E"/>
          </mask>
          <path fill="#34373D" d="M3.74925676,0.203108108 C1.77695946,0.203108108 0.17222973,1.80783784 0.17222973,3.78013514 L0.17222973,12.3267568 C0.17222973,12.6091892 0.401283784,12.8375676 0.683716216,12.8375676 C0.966148649,12.8375676 1.19452703,12.6091892 1.19452703,12.3267568 L1.19452703,3.78013514 C1.19452703,2.37067568 2.3397973,1.22472973 3.74925676,1.22472973 C4.98236486,1.22472973 6.01344595,2.10175676 6.25195946,3.26527027 C5.98709459,3.13081081 5.6925,3.0477027 5.37628378,3.0477027 C4.29993243,3.0477027 3.42493243,3.9227027 3.42493243,4.99837838 L3.42493243,12.3267568 C3.42493243,12.6091892 3.65331081,12.8375676 3.93574324,12.8375676 C4.21817568,12.8375676 4.44655405,12.6091892 4.44655405,12.3267568 L4.44655405,4.99837838 C4.44655405,4.48621622 4.86412162,4.06932432 5.37628378,4.06932432 C5.88777027,4.06932432 6.30398649,4.48621622 6.30398649,4.99837838 L6.30398649,7.5422973 C6.30398649,7.82472973 6.53236486,8.05310811 6.8147973,8.05310811 C7.09722973,8.05310811 7.32628378,7.82472973 7.32628378,7.5422973 L7.32628378,3.78013514 C7.32628378,1.80783784 5.72155405,0.203108108 3.74925676,0.203108108" mask="url(#F)"/>
        </g>
        <g transform="translate(14.19 56.081)">
          <mask id="H" fill="white">
            <use xlink:href="#G"/>
          </mask>
          <path fill="#34373D" d="M2.10547297,12.3116216 C2.10547297,12.5231081 1.93385135,12.6947297 1.72236486,12.6947297 C1.51493243,12.6947297 1.33925676,12.5190541 1.33925676,12.3116216 L1.33925676,1.65621622 C1.33925676,1.44810811 1.51493243,1.27243243 1.72236486,1.27243243 C1.93385135,1.27243243 2.10547297,1.44472973 2.10547297,1.65621622 L2.10547297,12.3116216 Z M1.72236486,0.250810811 C0.948040541,0.250810811 0.316959459,0.881216216 0.316959459,1.65621622 L0.316959459,12.3116216 C0.316959459,13.0859459 0.948040541,13.717027 1.72236486,13.717027 C2.49668919,13.717027 3.12709459,13.0859459 3.12709459,12.3116216 L3.12709459,1.65621622 C3.12709459,0.881216216 2.49668919,0.250810811 1.72236486,0.250810811 L1.72236486,0.250810811 Z" mask="url(#H)"/>
        </g>
        <path fill="#34373D" d="M10.7377703 50.3728378C11.0202027 50.3728378 11.2485811 50.1444595 11.2485811 49.862027L11.2485811 43.2268919C11.2485811 42.9444595 11.0202027 42.7160811 10.7377703 42.7160811 10.4553378 42.7160811 10.2269595 42.9444595 10.2269595 43.2268919L10.2269595 49.862027C10.2269595 50.1444595 10.4553378 50.3728378 10.7377703 50.3728378M12.8455405 47.055473C13.127973 47.055473 13.3563514 46.8270946 13.3563514 46.5446622L13.3563514 43.2270946C13.3563514 42.9446622 13.127973 42.7162838 12.8455405 42.7162838 12.5631081 42.7162838 12.3347297 42.9446622 12.3347297 43.2270946L12.3347297 46.5446622C12.3347297 46.8270946 12.5631081 47.055473 12.8455405 47.055473"/>
        <g transform="translate(14.19 42.568)">
          <mask id="J" fill="white">
            <use xlink:href="#I"/>
          </mask>
          <path fill="#34373D" d="M9.84493243,0.148581081 C9.5625,0.148581081 9.33412162,0.376959459 9.33412162,0.659391892 L9.33412162,2.94993243 C9.33412162,4.84317568 7.79290541,6.38439189 5.89966216,6.38439189 L4.67736486,6.38439189 C2.78412162,6.38439189 1.24290541,4.84317568 1.24290541,2.94993243 L1.24290541,0.659391892 C1.24290541,0.376959459 1.01452703,0.148581081 0.732094595,0.148581081 C0.449662162,0.148581081 0.221283784,0.376959459 0.221283784,0.659391892 L0.221283784,2.94993243 C0.221283784,5.40736486 2.21993243,7.40601351 4.67736486,7.40601351 L5.89966216,7.40601351 C8.35709459,7.40601351 10.3557432,5.40736486 10.3557432,2.94993243 L10.3557432,0.659391892 C10.3557432,0.376959459 10.1273649,0.148581081 9.84493243,0.148581081" mask="url(#J)"/>
        </g>
      </g>
      <g transform="translate(31.081 23.122)">
        <path stroke="#282B32" stroke-width="2" d="M26.2002703,2.11756757 L26.2002703,75.0905405 C26.2002703,76.2101351 22.8725676,77.1175676 18.7678378,77.1175676 C14.6631081,77.1175676 11.3354054,76.2101351 11.3354054,75.0905405 L11.3354054,2.11756757" stroke-linecap="round" stroke-linejoin="round"/>
        <g transform="translate(10.81)">
          <path fill="#34373D" d="M7.95702703,4.14459459 C3.8522973,4.14459459 0.524594595,3.23716216 0.524594595,2.11756757 C0.524594595,0.997972973 3.8522973,0.0905405405 7.95702703,0.0905405405 C12.0617568,0.0905405405 15.3894595,0.997972973 15.3894595,2.11756757 C15.3894595,2.77162162 14.2536486,3.35337838 12.4914865,3.72364865"/>
          <path stroke="#282B32" stroke-width="2" d="M7.95702703,4.14459459 C3.8522973,4.14459459 0.524594595,3.23716216 0.524594595,2.11756757 C0.524594595,0.997972973 3.8522973,0.0905405405 7.95702703,0.0905405405 C12.0617568,0.0905405405 15.3894595,0.997972973 15.3894595,2.11756757 C15.3894595,2.77162162 14.2536486,3.35337838 12.4914865,3.72364865" stroke-linecap="round" stroke-linejoin="round"/>
        </g>
        <path fill="#D5DBED" d="M20.6806081,42.7161486 C20.5380405,42.7161486 20.5380405,42.9377703 20.6806081,42.9377703 C20.8231757,42.9377703 20.8231757,42.7161486 20.6806081,42.7161486"/>
        <polygon fill="#34373D" points=".93 48.126 34.112 50.503 40.037 55.096 33.518 58.799 .336 56.422"/>
      </g>
      <g transform="translate(31.081 71.095)">
        <path fill="#31343A" d="M36.2428378,4.25445946 C36.3435135,2.94364865 35.3583784,1.795 34.0482432,1.69432432 L28.2739189,1.25108108 C26.9631081,1.15040541 25.8144595,2.13486486 25.7137838,3.44567568 C25.6921622,3.72743243 25.902973,3.9727027 26.1840541,3.99432432 C26.4658108,4.01594595 26.7110811,3.80581081 26.7327027,3.52405405 C26.7901351,2.77540541 27.4462162,2.21256757 28.1955405,2.27 L33.9698649,2.71391892 C34.7191892,2.77135135 35.2813514,3.42743243 35.2239189,4.17608108 C35.1664865,4.92540541 34.5104054,5.48824324 33.7610811,5.43081081 L27.9867568,4.98689189 C27.705,4.96527027 27.4597297,5.17608108 27.4381081,5.45716216 C27.4164865,5.73891892 27.6272973,5.98418919 27.9083784,6.00581081 L33.6827027,6.44972973 C34.9935135,6.55040541 36.1421622,5.56527027 36.2428378,4.25445946"/>
        <g transform="translate(22.297 1.351)">
          <mask id="L" fill="white">
            <use xlink:href="#K"/>
          </mask>
          <path fill="#31343A" d="M0.274459459,0.743040541 C0.127162162,2.66263514 1.56905405,4.34439189 3.48864865,4.49168919 C3.77040541,4.51331081 4.01567568,4.30317568 4.0372973,4.02141892 C4.05891892,3.73966216 3.84878378,3.49439189 3.56702703,3.47277027 C2.20891892,3.36871622 1.18932432,2.17885135 1.29337838,0.821418919 C1.39743243,-0.536689189 2.5872973,-1.55695946 3.94540541,-1.45222973 L6.15351351,-1.28263514 C6.43527027,-1.26101351 6.68054054,-1.47182432 6.70216216,-1.75290541 C6.72378378,-2.03466216 6.51297297,-2.27993243 6.23189189,-2.30155405 L4.02378378,-2.47114865 C2.10418919,-2.61844595 0.421756757,-1.17722973 0.274459459,0.743040541" mask="url(#L)"/>
        </g>
        <g transform="translate(30.405 2.027)">
          <mask id="N" fill="white">
            <use xlink:href="#M"/>
          </mask>
          <path fill="#31343A" d="M0.377094595,-2.29182432 C0.355472973,-2.01006757 0.565608108,-1.7647973 0.847364865,-1.74317568 L6.19668919,-1.33236486 C8.16290541,-1.18101351 9.64060811,0.541283784 9.48925676,2.50817568 C9.33858108,4.47439189 7.61560811,5.95141892 5.64939189,5.80006757 L3.64195946,5.64601351 C3.3602027,5.62439189 3.11493243,5.8352027 3.09331081,6.11628378 C3.07168919,6.39804054 3.2825,6.64331081 3.56358108,6.66493243 L5.57101351,6.81898649 C8.09939189,7.01358108 10.3142568,5.11493243 10.5081757,2.58587838 C10.7027703,0.0575 8.80344595,-2.15736486 6.27506757,-2.35128378 L0.925743243,-2.76209459 C0.643986486,-2.78371622 0.398716216,-2.57358108 0.377094595,-2.29182432" mask="url(#N)"/>
        </g>
        <path fill="#31343A" d="M31.0340541,7.95425676 C31.0556757,7.6725 30.8455405,7.42722973 30.5637838,7.40560811 L5.42324324,5.47452703 C5.14148649,5.45290541 4.89621622,5.66371622 4.87459459,5.9447973 C4.85297297,6.22655405 5.06310811,6.47182432 5.34486486,6.49344595 L30.4854054,8.42452703 C30.7671622,8.44614865 31.0124324,8.23601351 31.0340541,7.95425676"/>
        <mask id="P" fill="white">
          <use xlink:href="#O"/>
        </mask>
        <path fill="#31343A" d="M-2.35925676,-3.54087838 C-2.38087838,-3.25912162 -2.17074324,-3.01385135 -1.88898649,-2.99222973 L16.9893919,-1.54222973 C18.5029054,-1.42601351 19.6400676,-0.100337838 19.5238514,1.41385135 C19.4076351,2.92804054 18.0812838,4.0652027 16.5677703,3.94898649 L-0.413986486,2.64493243 C-0.695743243,2.62331081 -0.941013514,2.83344595 -0.962635135,3.1152027 C-0.984256757,3.39695946 -0.774121622,3.64222973 -0.492364865,3.66385135 L16.4893919,4.96790541 C18.5650676,5.12736486 20.3839865,3.56790541 20.5427703,1.49222973 C20.7022297,-0.583445946 19.1434459,-2.40168919 17.0677703,-2.56114865 L-1.81060811,-4.01114865 C-2.09236486,-4.03277027 -2.33763514,-3.82263514 -2.35925676,-3.54087838" mask="url(#P)"/>
        <g transform="translate(.676)">
          <mask id="R" fill="white">
            <use xlink:href="#Q"/>
          </mask>
          <path fill="#31343A" d="M16.5846622,1.24006757 C16.6488514,0.405608108 16.0225,-0.325472973 15.1873649,-0.389662162 L5.49209459,-1.13425676 C5.21101351,-1.15587838 4.96574324,-0.945743243 4.94412162,-0.663986486 C4.9225,-0.38222973 5.13263514,-0.136959459 5.41439189,-0.115337838 L15.1089865,0.629256757 C15.3819595,0.650202703 15.5866892,0.889391892 15.5657432,1.16168919 C15.5447973,1.43466216 15.3056081,1.64006757 15.0333108,1.61912162 L-2.81331081,0.248175676 C-3.09506757,0.226554054 -3.34033784,0.436689189 -3.36195946,0.718445946 C-3.38358108,1.0002027 -3.17344595,1.24547297 -2.89168919,1.26709459 L14.9549324,2.63804054 C15.7900676,2.70222973 16.520473,2.0752027 16.5846622,1.24006757" mask="url(#R)"/>
        </g>
        <g transform="translate(0 4.73)">
          <mask id="T" fill="white">
            <use xlink:href="#S"/>
          </mask>
          <path fill="#31343A" d="M3.17608108,1.08486486 C3.1977027,0.803108108 2.98756757,0.557837838 2.70581081,0.536216216 L-2.49283784,0.136891892 C-2.77391892,0.11527027 -3.01918919,0.326081081 -3.04081081,0.607162162 C-3.06243243,0.888918919 -2.8522973,1.13418919 -2.57054054,1.15581081 L2.62743243,1.55513514 C2.90918919,1.57675676 3.15445946,1.36662162 3.17608108,1.08486486" mask="url(#T)"/>
        </g>
        <g transform="translate(1.351 8.108)">
          <mask id="V" fill="white">
            <use xlink:href="#U"/>
          </mask>
          <path fill="#31343A" d="M-4.67364865,0.889864865 C-4.69527027,1.17162162 -4.48513514,1.41689189 -4.20337838,1.43851351 L13.2256757,2.77702703 C13.5067568,2.79864865 13.752027,2.58851351 13.7736486,2.30675676 C13.7952703,2.025 13.5851351,1.77972973 13.3033784,1.75810811 L-4.125,0.419594595 C-4.40675676,0.397972973 -4.65202703,0.608108108 -4.67364865,0.889864865" mask="url(#V)"/>
        </g>
        <g transform="translate(22.973 9.46)">
          <mask id="X" fill="white">
            <use xlink:href="#W"/>
          </mask>
          <path fill="#31343A" d="M-6.02966216,1.095 C-6.05128378,1.37675676 -5.84114865,1.62202703 -5.55939189,1.64364865 L16.7980405,3.36054054 C17.0797973,3.38216216 17.3250676,3.17202703 17.3466892,2.89027027 C17.3683108,2.60851351 17.1575,2.36324324 16.8764189,2.34162162 L-5.48101351,0.62472973 C-5.76277027,0.603108108 -6.00804054,0.813243243 -6.02966216,1.095" mask="url(#X)"/>
        </g>
      </g>
      <g transform="translate(13.514 45.42)">
        <polyline stroke="#282B32" stroke-width="2" points="26.67 34.752 51.086 36.501 57.605 32.799 51.68 28.205 18.497 25.829 17.903 34.125 21.628 34.392" stroke-linecap="round" stroke-linejoin="round"/>
        <polygon fill="#34373D" points=".485 15.138 13.322 30.003 13.322 23.246 47.657 23.246 47.657 7.03 13.322 7.03 13.322 .273"/>
      </g>
      <g transform="translate(14.865 48.122)">
        <g transform="translate(0 13.514)">
          <mask id="Z" fill="white">
            <use xlink:href="#Y"/>
          </mask>
          <path fill="#31343A" d="M34.8256757,1.06939189 C33.7864865,1.56871622 32.822973,2.23425676 31.9837838,3.07344595 C30.2243243,4.83358108 27.8837838,5.80317568 25.3939189,5.80317568 L19.6412162,5.80317568 C20.6817568,5.30317568 21.6466216,4.63628378 22.4871622,3.79574324 C24.2452703,2.03763514 26.5837838,1.06939189 29.0709459,1.06939189 L34.8256757,1.06939189 Z M15.1743243,5.80317568 L10.3141892,5.80317568 L0.0945945946,5.80317568 C-0.187837838,5.80317568 -0.416216216,6.03155405 -0.416216216,6.31398649 C-0.416216216,6.59641892 -0.187837838,6.8247973 0.0945945946,6.8247973 L10.3141892,6.8247973 L15.1743243,6.8247973 L25.3939189,6.8247973 C28.1567568,6.8247973 30.7533784,5.74912162 32.7067568,3.79574324 C34.4648649,2.03763514 36.8033784,1.06939189 39.2905405,1.06939189 L39.777027,1.06939189 L48.2486486,1.06939189 C48.5310811,1.06939189 48.7594595,0.841013514 48.7594595,0.558581081 C48.7594595,0.276148649 48.5310811,0.0477702703 48.2486486,0.0477702703 L39.777027,0.0477702703 L39.2905405,0.0477702703 L29.0709459,0.0477702703 C26.3114865,0.0477702703 23.7162162,1.12209459 21.7641892,3.07344595 C20.0047297,4.83358108 17.6648649,5.80317568 15.1743243,5.80317568 L15.1743243,5.80317568 Z" mask="url(#Z)"/>
        </g>
        <g transform="translate(5.405 8.784)">
          <mask id="ab" fill="white">
            <use xlink:href="#aa"/>
          </mask>
          <path fill="#31343A" d="M0.0545945946,0.653918919 C0.0545945946,0.936351351 0.282972973,1.16472973 0.565405405,1.16472973 L42.8431081,1.16472973 C43.1255405,1.16472973 43.3539189,0.936351351 43.3539189,0.653918919 C43.3539189,0.371486486 43.1255405,0.143108108 42.8431081,0.143108108 L0.565405405,0.143108108 C0.282972973,0.143108108 0.0545945946,0.371486486 0.0545945946,0.653918919" mask="url(#ab)"/>
        </g>
        <path fill="#31343A" d="M17.5986486 14.4710811C17.5986486 15.5562162 16.7162162 16.4386486 15.6317568 16.4386486L15.6027027 16.4386486C16.0675676 15.9116216 16.3594595 15.2278378 16.3594595 14.4710811 16.3594595 13.7143243 16.0675676 13.0305405 15.6027027 12.5035135L15.6317568 12.5035135C16.7162162 12.5035135 17.5986486 13.3859459 17.5986486 14.4710811M13.4736486 12.5143243C14.5094595 12.5697297 15.3371622 13.4224324 15.3371622 14.4710811 15.3371622 15.5197297 14.5094595 16.3724324 13.4736486 16.4278378 12.4385135 16.3724324 11.6108108 15.5197297 11.6108108 14.4710811 11.6108108 13.4224324 12.4385135 12.5697297 13.4736486 12.5143243M9.34932432 14.4710811C9.34932432 13.3859459 10.2310811 12.5035135 11.3162162 12.5035135L11.3452703 12.5035135C10.8804054 13.0305405 10.5885135 13.7143243 10.5885135 14.4710811 10.5885135 15.2278378 10.8804054 15.9116216 11.3452703 16.4386486L11.3162162 16.4386486C10.2310811 16.4386486 9.34932432 15.5562162 9.34932432 14.4710811M8.32702703 14.4710811C8.32702703 16.1190541 9.66824324 17.4602703 11.3162162 17.4602703L13.3689189 17.4602703C13.4047297 17.4602703 13.4385135 17.4514865 13.4736486 17.4501351 13.5094595 17.4514865 13.5425676 17.4602703 13.5783784 17.4602703L15.6317568 17.4602703C17.2790541 17.4602703 18.6202703 16.1190541 18.6202703 14.4710811 18.6202703 12.8231081 17.2790541 11.4818919 15.6317568 11.4818919L13.5783784 11.4818919C13.5425676 11.4818919 13.5094595 11.4906757 13.4736486 11.492027 13.4385135 11.4906757 13.4047297 11.4818919 13.3689189 11.4818919L11.3162162 11.4818919C9.66824324 11.4818919 8.32702703 12.8231081 8.32702703 14.4710811M22.5085135 6.54202703C22.5085135 6.82445946 22.7368919 7.05283784 23.0193243 7.05283784L37.4706757 7.05283784C37.7531081 7.05283784 37.9821622 6.82445946 37.9821622 6.54202703 37.9821622 6.25959459 37.7531081 6.03121622 37.4706757 6.03121622L23.0193243 6.03121622C22.7368919 6.03121622 22.5085135 6.25959459 22.5085135 6.54202703M16.3591216 3.98709459C16.3591216 4.26952703 16.5875 4.49790541 16.8699324 4.49790541L27.8402027 4.49790541C28.1226351 4.49790541 28.3510135 4.26952703 28.3510135 3.98709459 28.3510135 3.70466216 28.1226351 3.47628378 27.8402027 3.47628378L16.8699324 3.47628378C16.5875 3.47628378 16.3591216 3.70466216 16.3591216 3.98709459"/>
        <g transform="translate(31.081 4.054)">
          <mask id="ad" fill="white">
            <use xlink:href="#ac"/>
          </mask>
          <path fill="#31343A" d="M0.506554054,-0.0669594595 C0.506554054,0.215472973 0.734932432,0.443851351 1.01736486,0.443851351 L17.1673649,0.443851351 C17.4497973,0.443851351 17.6781757,0.215472973 17.6781757,-0.0669594595 C17.6781757,-0.349391892 17.4497973,-0.57777027 17.1673649,-0.57777027 L1.01736486,-0.57777027 C0.734932432,-0.57777027 0.506554054,-0.349391892 0.506554054,-0.0669594595" mask="url(#ad)"/>
        </g>
        <g transform="translate(35.135 18.919)">
          <mask id="af" fill="white">
            <use xlink:href="#ae"/>
          </mask>
          <path fill="#31343A" d="M0.131148649,0.908445946 C0.131148649,1.19087838 0.359527027,1.41925676 0.641959459,1.41925676 L13.1135811,1.41925676 C13.3960135,1.41925676 13.6243919,1.19087838 13.6243919,0.908445946 C13.6243919,0.626013514 13.3960135,0.397635135 13.1135811,0.397635135 L0.641959459,0.397635135 C0.359527027,0.397635135 0.131148649,0.626013514 0.131148649,0.908445946" mask="url(#af)"/>
        </g>
        <g transform="translate(38.514 16.216)">
          <mask id="ah" fill="white">
            <use xlink:href="#ag"/>
          </mask>
          <path fill="#31343A" d="M0.0142567568,0.583243243 C0.0142567568,0.865675676 0.242635135,1.09405405 0.525067568,1.09405405 L9.7352027,1.09405405 C10.0176351,1.09405405 10.2460135,0.865675676 10.2460135,0.583243243 C10.2460135,0.300810811 10.0176351,0.0724324324 9.7352027,0.0724324324 L0.525067568,0.0724324324 C0.242635135,0.0724324324 0.0142567568,0.300810811 0.0142567568,0.583243243" mask="url(#ah)"/>
        </g>
        <path fill="#31343A" d="M20.1295946,11.9925676 C20.1295946,12.275 20.357973,12.5033784 20.6404054,12.5033784 L22.4910811,12.5033784 C22.7735135,12.5033784 23.0018919,12.275 23.0018919,11.9925676 C23.0018919,11.7101351 22.7735135,11.4817568 22.4910811,11.4817568 L20.6404054,11.4817568 C20.357973,11.4817568 20.1295946,11.7101351 20.1295946,11.9925676"/>
        <path fill="#31343A" d="M0.339121622,0.623378378 C0.339121622,0.905810811 0.5675,1.13418919 0.849932432,1.13418919 L25.2756081,1.13418919 C25.5580405,1.13418919 25.7864189,0.905810811 25.7864189,0.623378378 C25.7864189,0.340945946 25.5580405,0.112567568 25.2756081,0.112567568 L0.849932432,0.112567568 C0.5675,0.112567568 0.339121622,0.340945946 0.339121622,0.623378378" transform="translate(22.973)"/>
      </g>
      <g transform="translate(13.514 22.447)">
        <polyline stroke="#282B32" stroke-width="2" points="47.656 35.577 47.656 30.002 13.322 30.002 13.322 23.246 .484 38.111 13.322 52.975 13.322 46.219 47.656 46.219 47.656 38.618" stroke-linecap="round" stroke-linejoin="round"/>
        <polygon fill="#34373D" points="64.562 9.091 52.263 .314 52.949 6.232 19.689 10.087 23.139 13.892 20.652 18.385 53.911 14.531 54.597 20.449"/>
      </g>
      <g transform="translate(33.784 22.447)">
        <path fill="#31343A" d="M0.390810811,2.8697973 C0.427972973,3.14952703 0.68472973,3.34614865 0.964459459,3.30898649 L15.132027,1.4225 C15.4117568,1.38533784 15.6083784,1.12858108 15.5712162,0.848851351 C15.5340541,0.568445946 15.2772973,0.3725 14.9975676,0.409662162 L0.83,2.29614865 C0.549594595,2.33331081 0.353648649,2.59006757 0.390810811,2.8697973" transform="translate(2.703 26.351)"/>
        <g transform="translate(9.46 10.135)">
          <mask id="aj" fill="white">
            <use xlink:href="#ai"/>
          </mask>
          <path fill="#31343A" d="M0.597702703,9.44094595 C1.01121622,12.547027 3.87405405,14.7375676 6.97945946,14.3240541 L13.9240541,13.3997297 C14.2044595,13.3618919 14.4004054,13.1051351 14.3632432,12.8254054 C14.3260811,12.5456757 14.0693243,12.3490541 13.7895946,12.3862162 L6.845,13.3112162 C4.29837838,13.6497297 1.94972973,11.8531081 1.60986486,9.30108108 C1.27067568,6.75378378 3.0672973,4.40648649 5.61391892,4.0672973 L23.6456757,1.66662162 C23.9254054,1.62945946 24.122027,1.3727027 24.0848649,1.0922973 C24.047027,0.812567568 23.7902703,0.615945946 23.5105405,0.653783784 L5.47945946,3.05445946 C2.37405405,3.46797297 0.183513514,6.33081081 0.597702703,9.44094595" mask="url(#aj)"/>
        </g>
        <g transform="translate(12.162 13.514)">
          <mask id="al" fill="white">
            <use xlink:href="#ak"/>
          </mask>
          <path fill="#31343A" d="M15.6414189,1.12033784 C17.0380405,0.934527027 18.3252027,1.91898649 18.5110135,3.31560811 C18.6968243,4.71222973 17.7123649,5.99939189 16.3157432,6.1852027 L4.24682432,7.79195946 C2.84952703,7.97844595 1.56304054,6.99398649 1.37722973,5.59668919 C1.19074324,4.20006757 2.1752027,2.91290541 3.5725,2.72709459 L15.6414189,1.12033784 Z M0.363716216,5.73182432 C0.624527027,7.68655405 2.42655405,9.06560811 4.38128378,8.80547297 L16.4508784,7.19871622 C18.4056081,6.93790541 19.7846622,5.13587838 19.5238514,3.18047297 C19.2637162,1.22574324 17.4610135,-0.152635135 15.5062838,0.1075 L3.43736486,1.71425676 C1.48263514,1.97439189 0.103581081,3.77709459 0.363716216,5.73182432 L0.363716216,5.73182432 Z" mask="url(#al)"/>
        </g>
        <g transform="translate(41.216 10.81)">
          <mask id="an" fill="white">
            <use xlink:href="#am"/>
          </mask>
          <path fill="#31343A" d="M0.599256757,1.44202703 C0.636418919,1.72175676 0.893175676,1.91837838 1.17290541,1.88121622 L3.28033784,1.60081081 C3.56006757,1.56297297 3.75668919,1.30689189 3.71952703,1.02648649 C3.68236486,0.746756757 3.42560811,0.550135135 3.1452027,0.587297297 L1.03844595,0.868378378 C0.758040541,0.905540541 0.562094595,1.1622973 0.599256757,1.44202703" mask="url(#an)"/>
        </g>
        <g transform="translate(32.432 11.486)">
          <mask id="ap" fill="white">
            <use xlink:href="#ao"/>
          </mask>
          <path fill="#31343A" d="M0.383648649,5.05743243 C0.643783784,7.01216216 2.44648649,8.39121622 4.40121622,8.13108108 L12.8735135,7.0027027 C13.1532432,6.96554054 13.3498649,6.70878378 13.3127027,6.42905405 C13.2748649,6.14932432 13.0187838,5.9527027 12.7383784,5.98986486 L4.26608108,7.11756757 C2.86945946,7.30405405 1.58297297,6.31959459 1.39648649,4.9222973 C1.23364865,3.70067568 1.96675676,2.56283784 3.08837838,2.1722973 C2.98972973,2.4527027 2.94648649,2.75608108 2.98837838,3.06959459 C3.13027027,4.13581081 4.11337838,4.88783784 5.17959459,4.74594595 L12.4444595,3.77905405 C12.7241892,3.74189189 12.9208108,3.48513514 12.882973,3.20472973 C12.8458108,2.925 12.5890541,2.72837838 12.3093243,2.76621622 L5.04513514,3.73310811 C4.5377027,3.80067568 4.06878378,3.44189189 4.00121622,2.93445946 C3.93364865,2.42702703 4.29243243,1.95945946 4.79986486,1.89189189 L7.32148649,1.55608108 C7.60121622,1.51891892 7.79783784,1.26216216 7.76067568,0.982432432 C7.72351351,0.702702703 7.46675676,0.506081081 7.18702703,0.543243243 L3.4572973,1.03986486 C1.50256757,1.3 0.123513514,3.1027027 0.383648649,5.05743243" mask="url(#ap)"/>
        </g>
        <path fill="#31343A" d="M8.19824324,0.446621622 C8.16108108,0.166891892 7.90432432,-0.0297297297 7.62459459,0.00743243243 L1.04756757,0.883108108 C0.767837838,0.92027027 0.571216216,1.17702703 0.608378378,1.45743243 C0.645540541,1.73716216 0.902297297,1.93378378 1.1827027,1.89594595 L7.75905405,1.02027027 C8.03945946,0.983108108 8.23540541,0.726351351 8.19824324,0.446621622" transform="translate(2.027 24.324)"/>
        <path fill="#31343A" d="M4.63168919,0.822094595 C4.59452703,0.542364865 4.33777027,0.345743243 4.05804054,0.382905405 L0.769527027,0.820743243 C0.489121622,0.857905405 0.293175676,1.11466216 0.330337838,1.39506757 C0.3675,1.6747973 0.624256757,1.87141892 0.903986486,1.83358108 L4.1925,1.39574324 C4.47290541,1.35858108 4.66885135,1.10182432 4.63168919,0.822094595" transform="translate(2.027 22.297)"/>
        <g transform="translate(.676 11.486)">
          <mask id="ar" fill="white">
            <use xlink:href="#aq"/>
          </mask>
          <path fill="#31343A" d="M0.205135135,1.11493243 C0.242297297,1.39466216 0.499054054,1.59128378 0.778783784,1.55412162 L3.04972973,1.25141892 C4.92608108,1.00209459 6.65716216,2.32574324 6.90648649,4.20277027 L7.06797297,5.41425676 C7.31797297,7.29128378 5.99364865,9.02168919 4.1172973,9.27168919 L1.84702703,9.57371622 C1.56662162,9.61155405 1.37067568,9.86831081 1.40783784,10.1480405 C1.445,10.4277703 1.70175676,10.6243919 1.98148649,10.5872297 L4.25243243,10.284527 C6.68756757,9.9602027 8.40513514,7.71493243 8.08081081,5.2797973 L7.92,4.06763514 C7.59567568,1.63182432 5.35040541,-0.0857432432 2.91459459,0.238581081 L0.644324324,0.541283784 C0.363918919,0.578445946 0.167972973,0.835202703 0.205135135,1.11493243" mask="url(#ar)"/>
        </g>
        <path fill="#31343A" d="M.446689189 9.34074324C.483851351 9.62047297.740608108 9.81709459 1.02033784 9.77993243L27.8656081 6.20560811C28.1453378 6.16844595 28.3419595 5.91168919 28.3047973 5.63195946 28.2676351 5.35155405 28.0108784 5.15560811 27.730473 5.19277027L.885878378 8.76709459C.605472973 8.80425676.409527027 9.06101351.446689189 9.34074324M29.9506757 5.41263514C29.9878378 5.69236486 30.2445946 5.88898649 30.5243243 5.85182432L38.0695946 4.84709459C38.35 4.80993243 38.5459459 4.55317568 38.5087838 4.27344595 38.4716216 3.99304054 38.2148649 3.79709459 37.9351351 3.83425676L30.3898649 4.83898649C30.1094595 4.87614865 29.9135135 5.13290541 29.9506757 5.41263514"/>
        <g transform="translate(31.757)">
          <mask id="at" fill="white">
            <use xlink:href="#as"/>
          </mask>
          <path fill="#31343A" d="M-9.69351351,3.49871622 C-9.65635135,3.77844595 -9.39959459,3.97506757 -9.11986486,3.93790541 L11.2504054,1.22574324 C11.5308108,1.18858108 11.7267568,0.931824324 11.6895946,0.652094595 C11.6524324,0.371689189 11.3956757,0.175743243 11.1159459,0.212905405 L-9.25432432,2.92506757 C-9.53472973,2.96222973 -9.73067568,3.21898649 -9.69351351,3.49871622" mask="url(#at)"/>
        </g>
      </g>
      <g transform="translate(30.405 22.447)">
        <polygon stroke="#282B32" stroke-width="2" points="47.671 9.091 35.371 .314 36.057 6.232 2.798 10.087 6.248 13.892 3.76 18.385 37.019 14.531 37.705 20.449" stroke-linecap="round" stroke-linejoin="round"/>
        <polygon fill="#34373D" points="35.158 30.003 5.879 30.003 .023 25.927 5.879 20.543 35.158 20.543 30.766 25.252"/>
      </g>
      <g transform="translate(27.027 42.717)">
        <g transform="translate(8.108)">
          <mask id="av" fill="white">
            <use xlink:href="#au"/>
          </mask>
          <path fill="#31343A" d="M0.388243243,4.45202703 C0.388243243,7.58581081 2.93689189,10.1344595 6.07,10.1344595 L13.0760811,10.1344595 C13.3585135,10.1344595 13.5868919,9.90608108 13.5868919,9.62364865 C13.5868919,9.34121622 13.3585135,9.11283784 13.0760811,9.11283784 L6.07,9.11283784 C3.50108108,9.11283784 1.40986486,7.02162162 1.40986486,4.4472973 C1.40986486,1.87702703 3.50108108,-0.212837838 6.07,-0.212837838 L24.2605405,-0.212837838 C24.542973,-0.212837838 24.7713514,-0.441216216 24.7713514,-0.723648649 C24.7713514,-1.00608108 24.542973,-1.23445946 24.2605405,-1.23445946 L6.07,-1.23445946 C2.93689189,-1.23445946 0.388243243,1.31418919 0.388243243,4.45202703" mask="url(#av)"/>
        </g>
        <g transform="translate(23.649 8.784)">
          <mask id="ax" fill="white">
            <use xlink:href="#aw"/>
          </mask>
          <path fill="#31343A" d="M0.136081081,0.839864865 C0.136081081,1.1222973 0.364459459,1.35067568 0.646891892,1.35067568 L9.62324324,1.35067568 C9.90567568,1.35067568 10.1347297,1.1222973 10.1347297,0.839864865 C10.1347297,0.557432432 9.90567568,0.329054054 9.62324324,0.329054054 L0.646891892,0.329054054 C0.364459459,0.329054054 0.136081081,0.557432432 0.136081081,0.839864865" mask="url(#ax)"/>
        </g>
        <path fill="#31343A" d="M26.7397973,1.89513514 C28.1492568,1.89513514 29.294527,3.04108108 29.294527,4.44986486 C29.294527,5.85932432 28.1492568,7.00459459 26.7397973,7.00459459 L14.5641216,7.00459459 C13.1553378,7.00459459 12.0093919,5.85932432 12.0093919,4.44986486 C12.0093919,3.04108108 13.1553378,1.89513514 14.5641216,1.89513514 L26.7397973,1.89513514 Z M10.9870946,4.44986486 C10.9870946,6.42216216 12.5918243,8.02689189 14.5641216,8.02689189 L26.7397973,8.02689189 C28.7120946,8.02689189 30.3168243,6.42216216 30.3168243,4.44986486 C30.3168243,2.47824324 28.7120946,0.873513514 26.7397973,0.873513514 L14.5641216,0.873513514 C12.5918243,0.873513514 10.9870946,2.47824324 10.9870946,4.44986486 L10.9870946,4.44986486 Z"/>
        <g transform="translate(31.081 .676)">
          <mask id="az" fill="white">
            <use xlink:href="#ay"/>
          </mask>
          <path fill="#31343A" d="M0.37527027,3.77432432 C0.37527027,5.74662162 1.98,7.35135135 3.9522973,7.35135135 L12.4989189,7.35135135 C12.7813514,7.35135135 13.0097297,7.1222973 13.0097297,6.83986486 C13.0097297,6.55743243 12.7813514,6.32905405 12.4989189,6.32905405 L3.9522973,6.32905405 C2.54283784,6.32905405 1.39689189,5.18378378 1.39689189,3.77432432 C1.39689189,2.54121622 2.27391892,1.51013514 3.43743243,1.27162162 C3.30297297,1.53648649 3.21986486,1.83108108 3.21986486,2.1472973 C3.21986486,3.22364865 4.09486486,4.09864865 5.17054054,4.09864865 L12.4989189,4.09864865 C12.7813514,4.09864865 13.0097297,3.87027027 13.0097297,3.58783784 C13.0097297,3.30540541 12.7813514,3.07702703 12.4989189,3.07702703 L5.17054054,3.07702703 C4.65837838,3.07702703 4.24148649,2.65945946 4.24148649,2.1472973 C4.24148649,1.63581081 4.65837838,1.21959459 5.17054054,1.21959459 L7.71445946,1.21959459 C7.99689189,1.21959459 8.22527027,0.991216216 8.22527027,0.708783784 C8.22527027,0.426351351 7.99689189,0.197297297 7.71445946,0.197297297 L3.9522973,0.197297297 C1.98,0.197297297 0.37527027,1.80202703 0.37527027,3.77432432" mask="url(#az)"/>
        </g>
        <path fill="#31343A" d="M25.9972973,4.06675676 C26.2087838,4.06675676 26.3804054,4.23837838 26.3804054,4.44986486 C26.3804054,4.6572973 26.2047297,4.83297297 25.9972973,4.83297297 L15.3418919,4.83297297 C15.1337838,4.83297297 14.9581081,4.6572973 14.9581081,4.44986486 C14.9581081,4.23837838 15.1297297,4.06675676 15.3418919,4.06675676 L25.9972973,4.06675676 Z M13.9364865,4.44986486 C13.9364865,5.22418919 14.5668919,5.85527027 15.3418919,5.85527027 L25.9972973,5.85527027 C26.7716216,5.85527027 27.4027027,5.22418919 27.4027027,4.44986486 C27.4027027,3.67554054 26.7716216,3.04513514 25.9972973,3.04513514 L15.3418919,3.04513514 C14.5668919,3.04513514 13.9364865,3.67554054 13.9364865,4.44986486 L13.9364865,4.44986486 Z"/>
        <path fill="#31343A" d="M7.97736486,0.839864865 C7.97736486,0.557432432 7.74898649,0.329054054 7.46655405,0.329054054 L0.831418919,0.329054054 C0.548986486,0.329054054 0.320608108,0.557432432 0.320608108,0.839864865 C0.320608108,1.1222973 0.548986486,1.35067568 0.831418919,1.35067568 L7.46655405,1.35067568 C7.74898649,1.35067568 7.97736486,1.1222973 7.97736486,0.839864865" transform="translate(0 8.784)"/>
        <g transform="translate(3.378 1.351)">
          <mask id="aB" fill="white">
            <use xlink:href="#aA"/>
          </mask>
          <path fill="#31343A" d="M-3.05763514,-5.02405405 C-3.05763514,-4.74162162 -2.82925676,-4.51324324 -2.54682432,-4.51324324 L-0.256283784,-4.51324324 C1.63695946,-4.51324324 3.17817568,-2.97202703 3.17817568,-1.07878378 L3.17817568,0.143513514 C3.17817568,2.03675676 1.63695946,3.57797297 -0.256283784,3.57797297 L-2.54682432,3.57797297 C-2.82925676,3.57797297 -3.05763514,3.80635135 -3.05763514,4.08878378 C-3.05763514,4.37121622 -2.82925676,4.59959459 -2.54682432,4.59959459 L-0.256283784,4.59959459 C2.20114865,4.59959459 4.1997973,2.60094595 4.1997973,0.143513514 L4.1997973,-1.07878378 C4.1997973,-3.53621622 2.20114865,-5.53486486 -0.256283784,-5.53486486 L-2.54682432,-5.53486486 C-2.82925676,-5.53486486 -3.05763514,-5.30648649 -3.05763514,-5.02405405" mask="url(#aB)"/>
        </g>
      </g>
      <g transform="translate(0 .15)">
        <polygon stroke="#282B32" stroke-width="2" points="65.564 52.3 36.284 52.3 30.428 48.225 36.284 42.84 65.564 42.84 61.172 47.549" stroke-linecap="round" stroke-linejoin="round"/>
        <path fill="#A5D388" d="M29.3374324,11.3341892 C30.23,9.78689189 30.6772973,8.12675676 32.1104054,6.94297297 C33.6144595,5.70040541 35.8901351,5.35445946 37.055,7.24094595 C38.2604054,9.19297297 36.805,11.4355405 35.1340541,12.4402703 C33.0252703,13.7078378 30.4671622,13.7963514 28.0394595,13.2402703 C28.2441892,13.2855405 29.2036486,11.5666216 29.3374324,11.3341892"/>
        <path stroke="#1E2126" stroke-width="2" d="M30.9572297 8.25675676C31.2680405 7.78040541 31.6349324 7.33581081 32.1106081 6.94256757 33.6146622 5.70067568 35.8903378 5.35405405 37.0552027 7.24054054 38.2606081 9.19324324 36.804527 11.4358108 35.1342568 12.4398649 33.0247973 13.7081081 30.4666892 13.7959459 28.0396622 13.2398649 28.2443919 13.2851351 29.2038514 11.5662162 29.3376351 11.3344595M33.8699324 9.8327027C33.8699324 9.8327027 36.6820946 7.83405405 37.2293919 5.33" stroke-linecap="round" stroke-linejoin="round"/>
        <path fill="#A5D388" d="M13.5994595,24.8725 C15.8913514,24.7616892 17.9954054,24.0920946 20.2704054,24.8184459 C22.6568919,25.5806081 24.6116216,27.7988514 23.3825676,30.3677703 C22.1102703,33.0265541 18.6764865,33.0110135 16.4312162,31.9035811 C13.5960811,30.5056081 11.7237838,27.8029054 10.6386486,24.7934459 C10.7318919,25.0461486 13.2555405,24.8893919 13.5994595,24.8725"/>
        <path stroke="#1E2126" stroke-width="2" d="M23.5878378 29.8560811C23.5331081 30.025 23.4648649 30.1952703 23.3824324 30.3675676 22.1108108 33.0263514 18.6763514 33.0108108 16.4310811 31.9033784 13.5959459 30.5054054 11.7243243 27.8027027 10.6385135 24.7939189 10.7324324 25.0466216 13.2554054 24.8891892 13.5993243 24.8722973 15.8912162 24.7621622 17.9952703 24.0918919 20.2702703 24.8182432 21.1074324 25.0858108 21.8918919 25.5324324 22.5040541 26.1101351M18.3697973 28.7266892C18.3697973 28.7266892 22.4826351 30.3766892 25.5677703 29.2293919" stroke-linecap="round" stroke-linejoin="round"/>
        <path stroke="#282B32" stroke-width="2" d="M45.6068919,0.526554054 C45.6068919,0.526554054 48.0305405,9.74209459 40.5163514,14.2414189" stroke-linecap="round" stroke-linejoin="round" stroke-dasharray="3 6"/>
        <path fill="#A5D388" d="M76.8304054,53.2927027 C75.4047297,54.3697297 73.8128378,55.0190541 72.8148649,56.5886486 C71.7675676,58.2345946 71.7054054,60.5366216 73.7216216,61.4595946 C75.8087838,62.4143243 77.8547297,60.692027 78.6452703,58.9095946 C79.6425676,56.6595946 79.4135135,54.1095946 78.5614865,51.7683784 C78.6317568,51.9663514 77.0445946,53.1312162 76.8304054,53.2927027"/>
        <path stroke="#1E2126" stroke-width="2" d="M76.8304054 53.2927027C75.4047297 54.3697297 73.8128378 55.0190541 72.8148649 56.5886486 71.7675676 58.2345946 71.7054054 60.5366216 73.7216216 61.4595946 75.8087838 62.4143243 77.8547297 60.692027 78.6452703 58.9095946 79.6425676 56.6595946 79.4135135 54.1095946 78.5614865 51.7683784 78.6317568 51.9663514 77.0445946 53.1312162 76.8304054 53.2927027L76.8304054 53.2927027zM75.9007432 57.9771622C75.9007432 57.9771622 74.2642568 61.0156757 71.8473649 61.8683784" stroke-linecap="round" stroke-linejoin="round"/>
        <path stroke="#282B32" stroke-width="2" d="M0,22.8812838 C0,22.8812838 0.844594595,36.3947973 17.8209459,38.4218243" stroke-linecap="round" stroke-linejoin="round" stroke-dasharray="3 6"/>
      </g>
    </g>
    <rect width="100" height="104.054"/>
  </g>
</svg>
