<svg fill="none" height="191" viewBox="0 0 401 191" width="401" xmlns="http://www.w3.org/2000/svg"><path d="m385.664 3.50467c1.482-.01544 2.953.26324 4.327.81992 1.374.55669 2.625 1.38033 3.678 2.42327 1.054 1.04295 1.891 2.2845 2.462 3.65284.571 1.3683.864 2.8363.864 4.3189v160.6304c0 1.483-.293 2.951-.864 4.319-.571 1.369-1.408 2.61-2.462 3.653-1.053 1.043-2.304 1.867-3.678 2.424-1.374.556-2.845.835-4.327.819h-370.3276c-1.4825.016-2.9534-.263-4.3276-.819-1.3742-.557-2.62435-1.381-3.67816-2.424s-1.89035-2.284-2.46124-3.653c-.5709-1.368-.86481-2.836-.86473-4.319v-160.6304c-.00008-1.4826.29383-2.9506.86473-4.3189.57089-1.36834 1.40743-2.60989 2.46124-3.65284 1.05381-1.04294 2.30396-1.86658 3.67816-2.42327 1.3742-.55668 2.8451-.83536 4.3276-.81992zm0-3.50466999h-370.3276c-3.9147-.00012136-7.67078 1.54694999-10.44982 4.30410999s-4.355755 6.50089-4.38658 10.41549v160.6304c.030825 3.915 1.60754 7.659 4.38658 10.416s6.53512 4.304 10.44982 4.304h370.3276c3.914 0 7.67-1.547 10.449-4.304s4.356-6.501 4.387-10.416v-160.6304c-.031-3.9146-1.608-7.65833-4.387-10.41549-2.779-2.75716-6.535-4.30423135-10.449-4.30410999z" fill="#000"/><path d="m4.00464 175.351v-160.6313c-.00008-1.4826.29383-2.9506.86472-4.3189.5709-1.36835 1.40744-2.60991 2.46125-3.65285 1.05381-1.04295 2.30396-1.86659 3.67809-2.42327 1.3742-.55669 2.8451-.83537 4.3277-.81992h370.3276c1.482-.01545 2.953.26323 4.327.81992 1.374.55668 2.625 1.38032 3.678 2.42327 1.054 1.04294 1.891 2.2845 2.462 3.65285.57 1.3683.864 2.8363.864 4.3189v160.6313c0 1.482-.294 2.95-.864 4.319-.571 1.368-1.408 2.609-2.462 3.652-1.053 1.043-2.304 1.867-3.678 2.424-1.374.556-2.845.835-4.327.82h-370.3276c-1.4826.015-2.9535-.264-4.3277-.82-1.37413-.557-2.62428-1.381-3.67809-2.424s-1.89035-2.284-2.46125-3.652c-.57089-1.369-.8648-2.837-.86472-4.319z" fill="#2f3136"/><path d="m9.72895 170.794v-1.635c-.01546-1.329.23301-2.648.73095-3.881.498-1.232 1.2356-2.353 2.17-3.299.9345-.945 2.0473-1.696 3.2739-2.208s2.5426-.776 3.8719-.776h361.4483c1.33 0 2.646.264 3.872.776 1.227.512 2.34 1.263 3.274 2.208.935.946 1.672 2.067 2.17 3.299.498 1.233.747 2.552.731 3.881v1.635c.016 1.33-.233 2.649-.731 3.881-.498 1.233-1.235 2.354-2.17 3.299-.934.946-2.047 1.696-3.274 2.208-1.226.512-2.542.776-3.872.776h-361.4483c-1.3293 0-2.6453-.264-3.8719-.776s-2.3394-1.262-3.2739-2.208c-.9344-.945-1.672-2.066-2.17-3.299-.49794-1.232-.74641-2.551-.73095-3.881z" fill="#40444b"/><path clip-rule="evenodd" d="m354.589 167.407h2.102c.341 0 .668.135.909.376s.376.568.376.909v1.402h-13.317v-1.402c0-.341.135-.668.376-.909s.568-.376.909-.376h2.103c-.316-.126-.597-.326-.818-.584-.337-.379-.516-.872-.501-1.378s.223-.988.581-1.346.84-.566 1.346-.581.999.164 1.377.501c.817.941 1.272 2.142 1.286 3.388.013-1.246.468-2.447 1.285-3.388.378-.337.871-.516 1.377-.501.507.015.988.223 1.346.581s.566.84.581 1.346-.164.999-.501 1.378zm-6.426-1.519c-.115-.128-.178-.295-.178-.467 0-.173.063-.339.178-.468l.468-.233.467.233c.467.351.584 1.052.818 1.636-.638-.069-1.244-.311-1.753-.701zm4.556.701c.073-.624.363-1.203.818-1.636l.467-.233.468.233c.115.129.178.295.178.468 0 .172-.063.339-.178.467-.52.371-1.121.612-1.753.701zm-7.359 4.79v4.089c0 .34.135.667.376.908s.568.377.909.377h3.972v-5.374zm6.658 0v5.374h3.972c.341 0 .668-.136.909-.377s.377-.568.377-.908v-4.089z" fill="#b9bbbe" fill-rule="evenodd"/><path d="m380.407 170.093c0 1.41-.418 2.788-1.201 3.96-.783 1.171-1.896 2.085-3.198 2.624-1.303.54-2.735.681-4.118.406-1.382-.275-2.652-.954-3.648-1.951-.997-.996-1.676-2.266-1.951-3.648-.275-1.383-.134-2.815.406-4.118.539-1.302 1.452-2.415 2.624-3.198s2.55-1.201 3.959-1.201c1.89 0 3.703.751 5.039 2.087 1.337 1.337 2.088 3.149 2.088 5.039z" fill="#b9bbbe"/><path d="m373.28 171.378c-1.259-.018-2.513-.174-3.738-.467-.35 0-.935 0-.935.818s1.986 3.855 4.673 3.855 4.673-2.103 4.673-3.855-.584-.818-.818-.818c-1.266.285-2.557.441-3.855.467z" fill="#4f545c"/><path d="m369.893 167.991c0-.217.086-.425.239-.578.153-.154.361-.24.578-.24.117-.017.236-.008.349.025.113.034.218.091.307.169s.159.174.208.281c.048.108.072.225.071.343v.818c.001.117-.023.234-.071.342-.049.108-.119.204-.208.281-.089.078-.194.136-.307.169-.113.034-.232.042-.349.025-.217 0-.425-.086-.578-.239-.153-.154-.239-.362-.239-.578z" fill="#4f545c"/><path d="m375.033 167.991c0-.108.021-.214.062-.313s.101-.189.177-.265.166-.137.266-.178c.099-.041.205-.062.312-.062.108 0 .214.021.313.062.1.041.19.102.266.178s.136.166.177.265.062.205.062.313v.818c0 .216-.086.424-.239.578-.154.153-.362.239-.579.239-.216 0-.424-.086-.578-.239-.153-.154-.239-.362-.239-.578z" fill="#4f545c"/><path d="m369.542 171.729c1.21.368 2.475.526 3.738.467 1.302.048 2.603-.109 3.855-.467-.43.607-1.013 1.089-1.69 1.397-.678.308-1.425.43-2.165.355-2.92 0-3.738-1.752-3.738-1.752z" fill="#fff"/><path d="m20.5933 163.668c-1.5106.207-2.8951.954-3.8974 2.103s-1.5545 2.622-1.5545 4.147.5522 2.998 1.5545 4.147 2.3868 1.896 3.8974 2.103c1.5106-.207 2.8951-.954 3.8974-2.103s1.5545-2.622 1.5545-4.147-.5522-2.998-1.5545-4.147-2.3868-1.896-3.8974-2.103zm3.0374 6.893h-2.4533v2.453h-1.2851v-2.453h-2.4532v-1.285h2.4532v-2.454h1.2851v2.454h2.4533z" fill="#b9bbbe"/><path d="m24.5652 177.337c1.9356 0 3.5047-1.569 3.5047-3.505s-1.5691-3.505-3.5047-3.505-3.5047 1.569-3.5047 3.505 1.5691 3.505 3.5047 3.505z" fill="#40444b"/><path d="m24.5652 176.168c1.2904 0 2.3365-1.046 2.3365-2.336s-1.0461-2.337-2.3365-2.337-2.3364 1.047-2.3364 2.337 1.046 2.336 2.3364 2.336z" fill="#3ba55c"/><path d="m24.0981 173.014v1.635l1.2851-.817z" fill="#40444b"/><path d="m323.514 173.364c-.818.818-1.052 3.856-1.052 3.856s3.038-.234 3.856-1.052c.355-.335.564-.797.584-1.285h-2.103v-2.103c-.488.02-.95.229-1.285.584z" fill="#b9bbbe"/><path clip-rule="evenodd" d="m324.565 170.911 4.206 4.206 1.051-1.052.818 3.388 1.285-1.402v-4.088l2.57-2.687c1.052-1.052 3.155-3.505 2.103-6.192-1.051-2.687-5.257 1.052-6.191 1.986zm8.295-2.57c.403 0 .789-.16 1.074-.445.284-.284.445-.671.445-1.074 0-.402-.161-.789-.445-1.073-.285-.285-.671-.445-1.074-.445-.2 0-.397.039-.581.115-.185.077-.352.189-.493.33s-.253.308-.329.492c-.077.185-.116.382-.116.581 0 .2.039.397.116.582.076.184.188.351.329.492s.308.253.493.33c.184.076.381.115.581.115z" fill="#b9bbbe" fill-rule="evenodd"/><path d="m327.72 167.757h-4.206l-1.285 1.285 3.388.818z" fill="#b9bbbe"/><g fill="#72767d"><path d="m45.3597 173.715-.4673-5.607-2.1028 5.607h-.8178l-2.1028-5.607-.4673 5.607h-.8177l.4673-7.009h1.1682l2.2196 5.724 2.1028-5.724h1.1683l.4672 7.009z"/><path d="m49.5653 173.715c-1.285 0-2.2196-.701-2.2196-2.453 0-1.753.8178-2.454 2.1028-2.454 1.2851 0 1.986 1.052 1.986 2.337v.234h-3.271c.1168 1.051.5841 1.635 1.4018 1.635.6519-.003 1.2783-.253 1.7524-.701v.818c-.5159.359-1.1243.562-1.7524.584zm-1.285-3.037h2.2196c-.1168-.701-.3505-1.169-1.0514-1.169s-1.0514.351-1.1682 1.169z"/><path d="m54.0045 173.715c-.6021.007-1.199-.113-1.7523-.35v-.935c.5055.379 1.1204.584 1.7523.584.5841 0 .9346-.234.9346-.584 0-.351-.2336-.584-1.1682-.818-.9346-.233-1.5187-.701-1.5187-1.519 0-.817.5841-1.285 1.6355-1.285.5647-.008 1.1238.112 1.6355.351v.818c-.4683-.26-.9855-.419-1.5187-.468-.4673 0-.8177.234-.8177.584 0 .351.2336.468 1.0514.701.8178.234 1.6355.585 1.6355 1.519 0 .935-.5841 1.402-1.8692 1.402z"/><path d="m58.4437 173.715c-.6042.031-1.2066-.089-1.7523-.351v-.934c.4696.363 1.0423.567 1.6355.584.701 0 1.0514-.234 1.0514-.584 0-.351-.3504-.584-1.1682-.818s-1.5187-.701-1.5187-1.519c0-.817.5841-1.285 1.6355-1.285.5271-.007 1.0481.113 1.5187.351v.818c-.4195-.274-.9022-.435-1.4019-.468-.5841 0-.8177.234-.8177.584 0 .351.2336.468.9346.701.7009.234 1.7523.584 1.7523 1.519s-.7009 1.402-1.8692 1.402z"/><path d="m64.2849 173.715v-.701c-.4313.44-1.0192.692-1.6355.701-.9346 0-1.4018-.467-1.4018-1.285s.9345-1.636 2.9205-1.869v-.234c.0209-.112.0142-.227-.0194-.336-.0337-.109-.0934-.208-.174-.288-.0805-.081-.1794-.141-.2882-.174-.1088-.034-.2242-.041-.3362-.02-.5731.032-1.1319.192-1.6355.468v-.818c.5486-.253 1.1489-.373 1.7524-.351 1.1682 0 1.7523.468 1.7523 1.519v3.388zm-.2336-2.453c-1.7523.116-2.1028.584-2.1028 1.168s.2336.584.7009.584c.2737.01.5454-.049.7904-.172.2449-.122.4552-.304.6115-.529z"/><path d="m68.0233 175.467c-1.1682 0-2.2196-.35-2.2196-1.168s.3505-.935 1.0514-1.285c-.0943-.04-.1763-.105-.2378-.187s-.1004-.179-.1126-.28c0-.234.2336-.468.5841-.701-.2867-.101-.5329-.292-.7014-.545-.1686-.253-.2504-.554-.2332-.857-.0024-.236.0462-.47.1426-.685s.2382-.407.4158-.563c.1776-.155.3867-.27.6129-.337.2263-.067.4643-.084.6978-.051.4166-.008.8252.114 1.1683.351l1.285-.351v.818h-.9346c.1304.213.2103.453.2337.701-.0149.23-.075.455-.1771.662s-.244.392-.4177.544-.3757.268-.5944.342-.4498.103-.68.088h-.3505l-.2336.233c0 .234.1168.234.9346.351h.3504c1.0514.117 1.6356.467 1.6356 1.285 0 .817-.9346 1.635-2.2197 1.635zm-.5841-2.219c-.4673.35-.7009.584-.7009.934 0 .351.4673.701 1.4019.701.9345 0 1.4018-.35 1.4018-.818 0-.467-.2336-.467-.9346-.584h-1.1682zm.5841-3.856c-.2788 0-.5462.111-.7434.308-.1972.198-.308.465-.308.744s.1108.546.308.743c.1972.198.4646.308.7434.308.2789 0 .5463-.11.7435-.308.1972-.197.3079-.464.3079-.743s-.1107-.546-.3079-.744c-.1972-.197-.4646-.308-.7435-.308z"/><path d="m73.2801 173.715c-1.2851 0-2.2197-.701-2.2197-2.453-.0321-.301-.0025-.605.0873-.894.0897-.289.2376-.557.4345-.787.197-.23.4388-.417.7107-.55.2719-.132.5681-.208.8704-.223 1.4018 0 1.9859 1.052 1.9859 2.337v.234h-3.1542c0 1.051.4673 1.635 1.4019 1.635.6163-.009 1.2041-.261 1.6355-.701v.818c-.5055.379-1.1204.584-1.7523.584zm-1.2851-3.037h2.3365c-.1168-.701-.4673-1.169-1.1682-1.169-.701 0-1.0515.351-1.1683 1.169z"/><path d="m82.9766 168.575h1.0514v.818h-1.1682l-.3505 1.752h1.1682v.818h-1.4018l-.2337 1.752h-.7009l.2336-1.752h-1.6355l-.3504 1.752h-.701l.3505-1.635h-1.1682v-.818h1.285l.2337-1.753h-1.1683v-.817h1.4019l.3505-1.636h.7009l-.3505 1.636h1.7524l.2336-1.753h.7009zm-2.8037 2.57h1.6355l.3505-1.752h-1.7524z"/><path d="m86.8317 175.467c-1.2851 0-2.2196-.35-2.2196-1.168s.3504-.934 1.0514-1.285c-.0943-.04-.1764-.105-.2379-.187s-.1004-.178-.1126-.28c0-.234.2336-.468.4673-.701-.255-.133-.4671-.335-.6119-.583-.1447-.248-.2161-.532-.2059-.819-.0006-.225.0453-.448.1347-.654.0894-.207.2204-.392.3849-.546.1645-.153.3588-.271.5709-.346.2122-.075.4375-.106.6619-.09.4532-.01.8997.112 1.285.351l1.1682-.351v.818h-.8177c.0938.221.1338.462.1168.701.0006.225-.0453.448-.1347.654-.0894.207-.2204.392-.3849.546-.1644.153-.3588.271-.5709.346-.2122.075-.4375.106-.6618.09h-.4673l-.2337.233c0 .234.2337.234 1.0514.351h.3505c1.0514.117 1.6355.467 1.6355 1.285s-.9346 1.635-2.2196 1.635zm-.5841-2.219c-.5841.35-.8178.584-.8178.934 0 .351.4673.701 1.4019.701s1.5187-.35 1.5187-.818c0-.467-.2337-.467-.9346-.584h-1.1682zm.4673-3.855c-.2789 0-.5463.11-.7435.308-.1972.197-.3079.464-.3079.743s.1107.546.3079.743c.1972.198.4646.308.7435.308.1426.02.2877.006.4241-.04.1363-.046.2602-.123.362-.225.1017-.102.1786-.226.2246-.362s.0599-.281.0407-.424c0-.279-.1108-.546-.308-.743-.1972-.198-.4646-.308-.7434-.308z"/><path d="m92.0886 174.182c-.3504 1.052-.8177 1.286-1.5186 1.286h-.4673v-.818h.4673c.4672 0 .7009-.117.9345-.701v-.234l-1.7523-4.79h.8178l1.285 3.739 1.285-3.622h.9346z"/><path d="m100.85 173.715v-3.271c0-.467-.116-.818-.701-.818-.2516.018-.4969.089-.7188.21-.2218.121-.4148.289-.5658.491v3.388h-.9346v-3.271c0-.467-.1168-.818-.7009-.818-.2539.009-.5023.077-.7253.199-.2231.122-.4147.294-.5597.502v3.388h-.9346v-4.79h.7009v.701c.4194-.473 1.0053-.766 1.6355-.817.701 0 1.1683.233 1.2851.817.4194-.473 1.0053-.766 1.6352-.817.189-.019.379.005.557.069.179.064.341.167.475.301s.236.296.3.474c.064.179.088.369.07.557v3.505z"/><path d="m102.953 171.262v-.935h2.57v.935z"/><path d="m108.794 173.715-1.168-.234v1.87h-.935v-6.426h.701v.701c.169-.248.395-.452.66-.594.264-.143.559-.219.859-.224 1.051 0 1.986.701 1.986 2.337.05.31.033.627-.048.93-.082.303-.227.585-.426.828-.198.243-.446.441-.727.581s-.588.218-.902.231zm.117-4.089c-.267.011-.527.093-.752.236-.226.144-.41.345-.533.582v2.22c.335.253.749.377 1.168.35.701 0 1.285-.701 1.285-1.869s-.467-1.519-1.168-1.519z"/><path d="m112.65 167.874c-.137.003-.27-.043-.377-.128s-.18-.206-.208-.34c0-.154.062-.303.172-.413.109-.109.258-.171.413-.171.133.028.254.101.339.208s.131.24.128.376c0 .124-.049.243-.137.331s-.207.137-.33.137zm-.468 5.841v-4.79h.818v4.79z"/><path d="m116.505 173.715c-.651 0-1.275-.259-1.735-.719s-.719-1.084-.719-1.734c0-.651.259-1.275.719-1.735s1.084-.719 1.735-.719c.542-.008 1.074.155 1.518.468v.817c-.189-.169-.412-.297-.653-.378-.241-.08-.495-.11-.749-.089-.817 0-1.402.584-1.402 1.636 0 1.051.701 1.752 1.402 1.752.28.008.558-.039.819-.139.26-.101.498-.252.7-.445v.818c-.472.345-1.052.511-1.635.467z"/><path d="m120.593 173.715c-.566.022-1.128-.099-1.635-.351v-.934c.45.397 1.035.607 1.635.584.584 0 .935-.234.935-.584 0-.351-.234-.584-1.052-.818-.817-.234-1.635-.701-1.635-1.519 0-.817.701-1.285 1.752-1.285.527-.007 1.048.113 1.519.351v.818c-.46-.279-.982-.439-1.519-.468-.467 0-.818.234-.818.584 0 .351.234.468 1.052.701.818.234 1.752.584 1.752 1.519s-.701 1.402-1.986 1.402z"/></g><path d="m181.341 30.0235h-36.799c-.839 0-1.519.6799-1.519 1.5187v7.6402c0 .8387.68 1.5187 1.519 1.5187h36.799c.839 0 1.519-.68 1.519-1.5187v-7.6402c0-.8388-.68-1.5187-1.519-1.5187z" fill="#808aff" opacity=".2401"/><path d="m64.5186 37.9673v-6.5421h.9345v5.7243h2.3365v.8178z" fill="#72767d"/><path d="m70.4767 38.084c-.297.0019-.591-.0592-.8626-.1792s-.5148-.2961-.7135-.5168c-.1986-.2208-.3483-.4811-.4391-.7638-.0907-.2827-.1206-.5815-.0876-.8766-.0322-.3009-.0025-.6052.0872-.8942s.2376-.5567.4345-.7864c.197-.2298.4388-.4169.7107-.5497.2719-.1329.5681-.2088.8704-.223 1.285 0 2.1028.9346 2.1028 2.4533.033.2951.0031.5939-.0877.8766s-.2405.543-.4391.7638c-.1987.2207-.4418.3968-.7135.5168-.2716.12-.5656.1811-.8625.1792zm0-4.0888c-.8178 0-1.1683.8178-1.1683 1.7524s.3505 1.6355 1.1683 1.6355c.8177 0 1.285-.7009 1.285-1.6355s-.4673-1.7524-1.285-1.7524z" fill="#72767d"/><path d="m75.4999 38.084c-.297.0019-.591-.0592-.8626-.1792-.2717-.12-.5148-.2961-.7135-.5168-.1986-.2208-.3483-.4811-.4391-.7638s-.1206-.5815-.0876-.8766c-.0322-.3009-.0025-.6052.0872-.8942s.2376-.5567.4345-.7864c.197-.2298.4388-.4169.7107-.5497.2719-.1329.5681-.2088.8704-.223 1.285 0 2.1028.9346 2.1028 2.4533.033.2951.0031.5939-.0877.8766s-.2405.543-.4391.7638c-.1987.2207-.4418.3968-.7135.5168-.2716.12-.5656.1811-.8625.1792zm0-4.0888c-.8178 0-1.1683.8178-1.1683 1.7524s.4673 1.6355 1.1683 1.6355c.7009 0 1.285-.7009 1.285-1.6355s-.4673-1.7524-1.285-1.7524z" fill="#72767d"/><path d="m81.5747 38.0841-1.986-2.4533v2.3365h-.8177v-6.7757h.8177v4.2056l1.7524-1.8692h1.0514l-1.986 1.8692 2.1028 2.4533z" fill="#72767d"/><path d="m88.2337 37.9672v-.5841c-.4313.4402-1.0192.6922-1.6355.7009-.1732.0184-.3484-.0022-.5127-.0602-.1643-.0581-.3135-.1522-.4367-.2754s-.2173-.2724-.2754-.4367c-.058-.1643-.0786-.3395-.0602-.5127 0-1.1682.9346-1.5187 2.8037-1.7524v-.2336c0-.5841-.3505-.7009-.8178-.7009-.5634.0028-1.1203.1222-1.6355.3504v-.7009c.5445-.2779 1.1418-.4372 1.7524-.4673 1.1682 0 1.6355.4673 1.6355 1.5187v3.1542zm-.2336-2.3364c-1.6355.2336-1.986.7009-1.986 1.1682s.2336.5841.7009.5841c.254-.009.5023-.077.7254-.1987.223-.1217.4147-.2936.5597-.5022z" fill="#72767d"/><path d="m91.7382 38.0841c-.1733.0184-.3485-.0022-.5127-.0603-.1643-.058-.3135-.1521-.4367-.2753s-.2173-.2724-.2754-.4367-.0787-.3395-.0603-.5127v-2.687h-.7009v-.7009h.7009v-1.5187h.8178v1.5187h.9346v.7009h-1.0514v2.5701c0 .3505.1168.5842.5841.5842h.3504v.7009z" fill="#72767d"/><path d="m96.9953 38.0841c-.1733.0184-.3485-.0022-.5128-.0603-.1642-.058-.3135-.1521-.4367-.2753s-.2172-.2724-.2753-.4367-.0787-.3395-.0603-.5127v-2.687h-.7009v-.7009h.7009v-1.5187h.8178v1.5187h1.0514v.7009h-1.1683v2.5701c0 .3505.1169.5842.701.5842h.3505v.7009z" fill="#72767d"/><path d="m101.551 37.9673v-3.0374c0-.4673-.233-.8177-.701-.8177-.254.0089-.502.077-.725.1986-.223.1217-.4147.2937-.5597.5023v3.1542h-.8177v-6.7757h.8177v2.9206c.4024-.4131.9437-.6628 1.5187-.701.935 0 1.285.5841 1.285 1.4019v3.271z" fill="#72767d"/><path d="m105.64 38.084c-1.285 0-2.103-.7009-2.103-2.3364s.818-2.4533 1.986-2.4533c1.169 0 1.87 1.0514 1.87 2.3365h-3.038c0 1.0514.467 1.6355 1.285 1.6355.307.0098.613-.0479.896-.169.282-.1211.535-.3027.74-.532v.8178c-.459.3981-1.031.6431-1.636.7009zm-1.285-2.9205h2.22c-.117-.701-.468-1.1683-1.052-1.1683s-1.051.3505-1.168 1.1683z" fill="#72767d"/><path d="m109.846 38.0841c-.576-.0141-1.139-.175-1.636-.4673v-.8177c.47.3628 1.042.5674 1.636.5841.584 0 .934-.2337.934-.5841 0-.3505-.233-.5842-1.051-.8178-.818-.2337-1.519-.5841-1.519-1.4019.015-.1843.066-.3639.15-.5284.085-.1645.201-.3107.342-.4302.141-.1194.305-.2098.481-.2658s.362-.0766.546-.0606c.529-.0229 1.053.0982 1.519.3504v.8178c-.42-.2734-.903-.4343-1.402-.4673-.468 0-.701.2337-.701.5841 0 .3505.233.4673.934.701.701.2336 1.636.5841 1.636 1.4018 0 .8178-.701 1.4019-1.869 1.4019z" fill="#72767d"/><path d="m114.519 38.084c-.303.0228-.607-.0241-.889-.1371s-.534-.2891-.737-.5147-.351-.4948-.434-.7868c-.083-.2921-.098-.5992-.043-.8978-.032-.3009-.003-.6052.087-.8942s.238-.5567.434-.7864c.197-.2298.439-.4169.711-.5497.272-.1329.568-.2088.871-.223 1.285 0 1.869 1.0514 1.869 2.3365h-3.038c0 1.0514.468 1.6355 1.285 1.6355.308.0098.613-.0479.896-.169.282-.1211.535-.3027.74-.532v.8178c-.491.4211-1.107.6677-1.752.7009zm-1.169-2.9205h2.22c-.117-.701-.467-1.1683-1.168-1.1683s-.935.3505-1.052 1.1683z" fill="#72767d"/><path d="m121.177 39.7197c-1.168 0-2.102-.3505-2.102-1.1682 0-.8178.35-.8178.934-1.1683l-.233-.4672c.007-.1483.054-.2918.136-.4153s.197-.2222.331-.2857c-.256-.099-.473-.2771-.62-.5083s-.216-.5033-.198-.7767c0-.225.045-.4477.135-.6541.089-.2065.22-.3922.385-.5458.164-.1535.359-.2714.571-.3463.212-.075.437-.1054.661-.0893.424.0515.827.2126 1.169.4673l1.051-.3505.234.7009h-.935c.131.2128.21.4525.234.7009-.015.215-.072.425-.168.6178s-.23.3647-.393.5058c-.163.1412-.352.2487-.556.3165-.205.0678-.421.0945-.636.0786h-.35l-.234.2337c0 .2336.117.2336.935.3505h.35c.935.1168 1.519.4672 1.519 1.1682 0 .7009-1.051 1.6355-2.22 1.6355zm-.584-2.1028c-.173.0701-.328.1809-.45.3233-.122.1423-.208.3119-.251.4945 0 .3504.468.7009 1.402.7009.935 0 1.285-.3505 1.285-.7009 0-.3505-.116-.4673-.817-.5842h-1.169zm.584-3.6215c-.247 0-.485.0985-.66.2737-.176.1753-.274.413-.274.6609 0 .2478.098.4856.274.6608.175.1753.413.2738.66.2738.248 0 .486-.0985.661-.2738.176-.1752.274-.413.274-.6608 0-.2479-.098-.4856-.274-.6609-.175-.1752-.413-.2737-.661-.2737z" fill="#72767d"/><path d="m127.136 37.9672v-.5841c-.432.4402-1.02.6922-1.636.7009-.173.0184-.348-.0022-.513-.0602-.164-.0581-.313-.1522-.436-.2754-.124-.1232-.218-.2724-.276-.4367s-.078-.3395-.06-.5127c0-1.1682.935-1.5187 2.804-1.7524v-.2336c0-.5841-.351-.7009-.818-.7009-.563.0028-1.12.1222-1.636.3504v-.7009c.545-.2779 1.142-.4372 1.753-.4673 1.168 0 1.752.4673 1.752 1.5187v3.1542zm-.234-2.3364c-1.636.2336-1.986.7009-1.986 1.1682s.234.5841.701.5841c.254-.009.502-.077.725-.1987s.415-.2936.56-.5022z" fill="#72767d"/><path d="m129.589 32.4766c-.234 0-.584-.2336-.584-.4673 0-.1549.061-.3034.171-.413.109-.1095.258-.1711.413-.1711s.303.0616.413.1711c.109.1096.171.2581.171.413-.027.134-.101.2541-.208.3395-.106.0853-.24.1306-.376.1278zm-.468 5.4907v-4.5561h.935v4.5561z" fill="#72767d"/><path d="m134.262 37.9672v-3.0374c0-.4673-.234-.8177-.701-.8177-.254.009-.502.077-.726.1987-.223.1216-.414.2936-.559.5022v3.1542h-.818v-4.5561h.584v.701c.42-.4732 1.005-.7661 1.636-.8178.179-.0007.356.036.52.1077.164.0718.311.177.432.309s.213.2878.271.4575c.057.1696.078.3494.062.5277v3.271z" fill="#72767d"/><path d="m137.883 38.084c-.613-.0142-1.213-.1744-1.752-.4673v-.8177c.469.3629 1.042.5674 1.635.5841.584 0 .935-.2337.935-.5841 0-.3505-.234-.5842-1.051-.8178-.818-.2336-1.519-.5841-1.519-1.4019 0-.8177.584-1.285 1.635-1.285.49-.0077.974.1131 1.402.3505v.8177c-.375-.2744-.821-.4364-1.285-.4673-.584 0-.818.2337-.818.5841 0 .3505.234.4673.935.701.701.2336 1.636.5841 1.636 1.4018 0 .8178-.585 1.4019-1.753 1.4019z" fill="#72767d"/><path d="m148.631 36.6823c-.467.5842-.818.9346-1.285.9346-.468 0-1.052-.4673-1.052-1.285-.032-.3225 0-.6481.095-.9581.094-.31.249-.5982.455-.848.207-.2499.46-.4563.747-.6075s.6-.2441.923-.2733l1.519.2336-.468 2.1028v.4673c0 .1549.062.3035.171.413.11.1096.259.1711.414.1711.7 0 1.168-.7009 1.168-1.986.036-.3772-.012-.7577-.14-1.1143s-.333-.6805-.601-.9484-.592-.4733-.949-.6014c-.356-.1281-.737-.1758-1.114-.1396-.491.0297-.972.1562-1.414.3721s-.838.517-1.163.886c-.326.3691-.575.7988-.735 1.2645-.159.4657-.224.9582-.193 1.4494-.036.3771.012.7577.14 1.1143s.333.6804.601.9484c.268.2679.592.4733.949.6014.356.1281.737.1758 1.114.1396.725-.0184 1.439-.1771 2.103-.4673v.3505c-.66.3025-1.377.4618-2.103.4673-.423.0354-.849-.0218-1.248-.1678-.398-.146-.761-.3772-1.061-.6775-.3-.3002-.531-.6624-.677-1.0612s-.204-.8246-.168-1.2477c-.032-1.0961.365-2.1615 1.107-2.9689s1.77-1.2931 2.865-1.3536c.419-.0386.841.0176 1.235.1642s.75.3801 1.042.683c.291.3029.511.6675.643 1.0668.131.3994.172.8232.117 1.2402 0 1.5187-.701 2.5701-1.752 2.5701-.288.0109-.571-.0754-.804-.2449-.233-.1694-.403-.4124-.481-.6897zm0-.7009.35-1.5187h-.584c-.584 0-1.168.8178-1.168 1.8692s.117.5841.467.5841c.351 0 .468-.3505.935-.9346z" fill="#fff"/><path d="m155.874 38.0841c-.445.0077-.887-.0723-1.301-.2355s-.792-.4063-1.112-.7155c-.646-.6243-1.018-1.4799-1.033-2.3784-.016-.8985.326-1.7664.95-2.4127.625-.6463 1.48-1.0181 2.379-1.0336.726.0055 1.443.1648 2.103.4673l-.234 1.1682c-.505-.3791-1.12-.5841-1.752-.5841-1.402 0-1.986.9346-1.986 2.3365 0 1.4018.701 2.3364 1.986 2.3364l1.051-.2336v-1.5187h-1.285v-.9346h2.57v3.0374c-.674.4968-1.5.7445-2.336.7009z" fill="#fff"/><path d="m160.43 35.2803v2.6869h-1.168v-4.5561h1.051v.9346c.118-.3079.326-.573.597-.7606s.592-.289.922-.2908v1.1682c-.278.0299-.547.1183-.788.2592-.242.1409-.451.3313-.614.5586z" fill="#fff"/><path d="m165.336 37.9673v-.5841c-.192.2145-.425.3874-.687.508-.261.1206-.544.1862-.832.193-.173.0184-.348-.0022-.512-.0603-.165-.0581-.314-.1522-.437-.2754s-.217-.2724-.275-.4367c-.058-.1642-.079-.3394-.061-.5127 0-1.1682.935-1.6355 2.687-1.7523 0-.5841-.233-.7009-.701-.7009-.527-.0073-1.048.1129-1.518.3504l-.234-.9346c.593-.2405 1.229-.3597 1.869-.3504 1.168 0 1.753.4673 1.753 1.5187v3.1542zm-.233-2.3364c-1.286.2336-1.636.5841-1.636 1.0514s.234.4673.584.4673c.201.0194.403-.0134.587-.0952.185-.0819.344-.2101.465-.3721z" fill="#fff"/><path d="m169.191 39.7195c-1.285 0-2.219-.3504-2.219-1.1682s.233-.7009.817-1.0514c-.12-.1304-.201-.2925-.233-.4673 0-.3505.233-.5841.584-.8178-.268-.0944-.5-.2678-.667-.4973-.167-.2294-.26-.5041-.268-.7877.015-.2303.075-.4554.177-.6624.102-.2069.244-.3917.418-.5437s.376-.2681.594-.3418c.219-.0737.45-.1035.68-.0876.254-.0215.509.0089.75.0892.241.0804.463.209.652.3781l1.052-.4673v.9346h-.818c.094.2211.134.4613.117.7009-.015.215-.072.4249-.168.6177-.097.1928-.23.3647-.393.5059-.163.1411-.352.2487-.556.3165-.205.0678-.421.0945-.636.0786h-.467v.2336c0 .1169.117.2337.818.3505h.584c.935.1168 1.519.4673 1.519 1.1682 0 .701-1.052 1.5187-2.337 1.5187zm-.817-1.986c-.234.2337-.468.4673-.468.701 0 .2336.468.5841 1.285.5841.818 0 1.285-.2337 1.285-.5841 0-.3505-.116-.3505-.701-.4673h-1.401zm.7-3.7383c-.467 0-.7.3505-.7.9346s.233.8178.7.8178c.112.0209.228.0142.337-.0195.108-.0337.207-.0934.288-.1739.08-.0805.14-.1795.174-.2883.033-.1088.04-.2241.019-.3361 0-.5841-.233-.9346-.818-.9346z" fill="#fff"/><path d="m174.098 39.7196c-1.285 0-2.22-.3505-2.22-1.1682 0-.8178.351-.701.935-1.0514-.094-.0403-.176-.1047-.238-.1867-.061-.082-.1-.1788-.112-.2806 0-.3505.233-.5841.584-.8178-.246-.1126-.454-.2938-.599-.5217-.145-.228-.221-.4931-.219-.7633-.003-.2359.046-.4696.143-.685.096-.2153.238-.4073.415-.5626.178-.1554.387-.2705.613-.3375.226-.0669.465-.0841.698-.0504.235-.0122.469.0228.69.1031s.423.2041.595.3642l1.168-.4673v.9346h-.817c0 .2336.116.4672.116.7009-.058.4441-.284.8489-.632 1.1313-.348.2825-.79.4211-1.237.3874h-.35l-.234.2336c0 .1169.117.2337.818.3505h.701c.934.1168 1.519.4673 1.519 1.1682 0 .701-1.052 1.5187-2.337 1.5187zm-.701-1.986c-.134.0635-.248.1622-.331.2857-.082.1235-.129.267-.136.4153 0 .3504.35.5841 1.285.5841.934 0 1.285-.2337 1.285-.5841 0-.3505-.234-.3505-.818-.4673h-1.285zm.701-3.7383c-.584 0-.818.3505-.818.9346 0 .2169.086.4249.24.5782.153.1534.361.2395.578.2395s.425-.0861.578-.2395c.154-.1533.24-.3613.24-.5782.017-.1168.008-.2358-.025-.3489-.034-.1132-.091-.2177-.169-.3065s-.174-.1597-.281-.2079c-.108-.0482-.225-.0725-.343-.0713z" fill="#fff"/><path d="m178.888 38.0841c-.615.0006-1.22-.1605-1.753-.4673v-.9346c.47.3629 1.043.5674 1.636.5841.584 0 .818-.2336.818-.5841s-.234-.4673-.935-.5841-1.635-.5841-1.635-1.4019.7-1.4019 1.752-1.4019c.565-.0082 1.124.1117 1.635.3505l-.233.9346c-.426-.2607-.905-.4205-1.402-.4673-.467 0-.701.2336-.701.4673 0 .2336.234.3505.935.5841.7.2336 1.635.5841 1.635 1.5187s-.584 1.4019-1.752 1.4019z" fill="#fff"/><path d="m73.9816 23.2479h-2.2197l-1.6355-5.8411-1.5187 5.8411h-2.2196l-2.4533-8.7617 2.4533-.4673 1.4019 5.8411 1.4018-5.7243h2.3365l1.4019 5.7243 1.285-5.7243h2.2196z" fill="#808aff"/><path d="m80.7572 23.2481v-.9346c-.2406.3027-.5412.5524-.883.7333-.3418.181-.7173.2893-1.103.3181-.2607.0198-.5226-.0189-.7665-.1134-.2438-.0946-.4634-.2425-.6427-.4329-.1792-.1905-.3136-.4186-.3931-.6677-.0796-.2491-.1024-.5129-.0668-.772v-4.5561h1.986v3.972c0 .4673.2336.8177.7009.8177.4119-.0541.7878-.2629 1.0514-.5841v-4.2056h1.986v6.4253z" fill="#808aff"/><path d="m91.1544 23.248v-4.0888c0-.4673-.1169-.7009-.5841-.7009-.3871.0549-.7512.2168-1.0514.4672v4.3225h-1.986v-4.0888c0-.4673-.1168-.7009-.5841-.7009-.3871.0549-.7512.2168-1.0514.4672v4.3225h-1.986v-6.4253h1.7523v.8178c.2466-.2868.551-.5183.8932-.6793.3423-.1611.7146-.2481 1.0928-.2553.338-.051.6834.0135.9802.1831s.5277.4344.6553.7515c.2466-.2868.551-.5183.8932-.6793.3423-.1611.7146-.2481 1.0928-.2553.2608-.0199.5227.0189.7665.1134.2439.0946.4635.2425.6427.4329s.3136.4186.3932.6677.1024.5129.0667.772v4.5561z" fill="#808aff"/><path d="m97.8133 23.2481-1.2851-.2337v2.3365l-1.986.3504v-8.8785h1.7524v.8178c.2333-.2727.5189-.496.84-.6565.321-.1605.6709-.2551 1.0291-.2781 1.2851 0 2.3363.9346 2.3363 3.1542s-1.2849 3.3879-2.6867 3.3879zm-.2337-4.7898c-.4119.0541-.7878.263-1.0514.5841v2.4533c.2836.1637.6074.2446.9346.2337.5841 0 1.1682-.4673 1.1682-1.7524 0-1.285-.4673-1.5187-1.0514-1.5187z" fill="#808aff"/><path d="m105.64 23.2481-.233-.9346c-.241.3027-.542.5524-.883.7333-.342.181-.718.2893-1.103.3181-1.168 0-1.753-.701-1.753-1.986v-4.5561h1.986v3.972c0 .4673.117.8177.585.8177.224-.0118.444-.0698.644-.1703.201-.1005.38-.2414.524-.4138v-4.2056h1.986v6.4253z" fill="#808aff"/><path d="m111.131 23.3648c-.938-.0231-1.857-.263-2.687-.701l.234-1.5187c.734.4772 1.579.7587 2.453.8178.467 0 .818-.2337.818-.4673s-.234-.4673-1.168-.7009c-.935-.2337-2.22-.9346-2.22-2.1028 0-1.1683.818-1.986 2.453-1.986.805-.0251 1.604.1347 2.337.4673l-.234 1.5187c-.652-.3397-1.369-.5387-2.103-.5842-.467 0-.701.1169-.701.3505 0 .3505.234.4673 1.052.7009.817.2337 2.336.9346 2.336 2.1028 0 1.1683-.934 2.1029-2.57 2.1029z" fill="#808aff"/><path d="m120.36 17.4069v5.8412h-.935v-5.8412h-2.102v-.8177h5.023v.8177z" fill="#72767d"/><path d="m124.098 23.3648c-.302-.0142-.598-.0901-.87-.2229-.272-.1329-.514-.32-.711-.5497-.197-.2298-.345-.4974-.434-.7864-.09-.289-.12-.5933-.088-.8942-.033-.2952-.003-.5939.088-.8767.091-.2827.241-.543.439-.7637.199-.2208.442-.3969.714-.5169.271-.1199.565-.181.862-.1792.297-.0018.591.0593.863.1792.271.12.515.2961.713.5169.199.2207.349.481.439.7637.091.2828.121.5815.088.8767 0 1.5187-.818 2.4532-2.103 2.4532zm0-4.0888c-.818 0-1.168.701-1.168 1.6356 0 .9345.35 1.7523 1.168 1.7523s1.285-.7009 1.285-1.7523-.467-1.6356-1.285-1.6356z" fill="#72767d"/><path d="m130.407 23.2481v-.701c-.151.2393-.357.4386-.601.581s-.519.2236-.801.2368c-1.051 0-1.869-.8178-1.869-2.3365s.934-2.4532 2.103-2.4532l1.168.2336v-2.3364h.818v6.8925zm-.117-3.6215c-.343-.2365-.752-.3591-1.168-.3505-.701 0-1.168.5841-1.168 1.7523 0 1.1683.35 1.5187 1.051 1.5187.262-.0308.513-.1203.736-.2619.222-.1416.41-.3316.549-.5558z" fill="#72767d"/><path d="m135.196 23.248v-.5841c-.191.2145-.425.3874-.686.508s-.545.1862-.832.193c-.179.0162-.358-.0049-.528-.0622-.17-.0572-.325-.1493-.457-.2703s-.238-.2682-.309-.4323c-.072-.164-.109-.3412-.108-.5203 0-1.1682.934-1.6355 2.92-1.8692 0-.5841-.35-.8177-.934-.8177-.537.0286-1.059.1891-1.519.4673v-.8178c.549-.2524 1.149-.3725 1.753-.3504 1.051 0 1.635.4672 1.635 1.5186v3.1543zm-.116-2.3364c-1.753.1168-2.103.5841-2.103 1.0514-.023.0966-.02.1973.007.2926.028.0954.079.1822.149.2523.07.0702.157.1213.252.1486.095.0272.196.0298.293.0074.526-.0891 1.014-.3331 1.402-.7009z" fill="#72767d"/><path d="m138.935 23.7153c-.351 1.0514-.818 1.285-1.519 1.285h-.35v-.7009h.467c.35 0 .584-.1169.818-.5841v-.3505l-1.636-4.5561h.818l1.285 3.6215 1.168-3.5047h.818z" fill="#72767d"/><path d="m146.528 23.248v-.5841c-.431.4402-1.019.6921-1.635.7009-.178.0163-.358-.0049-.528-.0621-.17-.0573-.325-.1494-.457-.2703-.132-.121-.238-.2683-.309-.4323-.072-.1641-.109-.3413-.108-.5203 0-1.1683 1.051-1.6356 2.921-1.8692.02-.112.014-.2273-.02-.3361s-.093-.2078-.174-.2883c-.08-.0805-.179-.1402-.288-.1739s-.224-.0404-.336-.0195c-.573.0321-1.132.1917-1.636.4673v-.8177c.554-.2376 1.15-.357 1.753-.3505 1.168 0 1.635.4673 1.635 1.5187v3.1542zm-.116-2.3365c-1.636.1169-1.986.5841-1.986 1.0514s.233.701.584.701c.269-.0157.532-.0859.773-.2064s.455-.2887.629-.4946z" fill="#72767d"/><path d="m150.15 23.248c-.818 0-1.402-.2337-1.402-1.1682v-2.687h-.584v-.7009h.584v-1.5187h.934v1.6355h.935v.5841h-1.051v2.5701c0 .3505.117.5841.584.5841h.35v.701z" fill="#72767d"/><path d="m157.626 21.7294v1.5187h-.817v-1.5187h-3.271v-.5842l3.037-4.4392h1.051v4.3224h.935v.701zm-.817-3.972-2.337 3.271h2.337z" fill="#72767d"/><path d="m159.496 19.8601v-1.1682h.934v1.1682zm0 3.3879v-1.1683h.934v1.1683z" fill="#72767d"/><path d="m161.481 23.2481v-.701l2.454-2.4533c.23-.1857.422-.4158.562-.6766.141-.2608.227-.5471.255-.842.019-.158.002-.3181-.05-.4684s-.138-.2868-.25-.3993c-.113-.1125-.249-.1979-.399-.25-.151-.0521-.311-.0694-.469-.0506-.332.0105-.659.0884-.96.229-.301.1405-.571.3409-.792.5888v-.8178c.245-.2413.538-.4284.86-.5492.322-.1207.666-.1724 1.009-.1517 1.285 0 2.103.7009 2.103 1.7523s-.351 1.2851-1.168 2.1028l-1.87 1.8692h2.921v.8178z" fill="#72767d"/><path d="m169.192 23.3649c-1.519 0-2.454-1.2851-2.454-3.3879s.935-3.271 2.454-3.271c1.518 0 2.453 1.1682 2.453 3.271s-1.052 3.3879-2.453 3.3879zm0-5.958c-1.052 0-1.636.9346-1.636 2.5701s.584 2.5701 1.636 2.5701c1.051 0 1.518-.8177 1.518-2.5701 0-1.7523-.584-2.5701-1.518-2.5701z" fill="#72767d"/><path d="m174.799 23.248h-1.168v1.7523h-.818v-6.3084h.585v.5841c.191-.2145.425-.3874.686-.508.261-.1205.545-.1862.832-.1929.935 0 1.753.7009 1.753 2.2196s-.818 2.4533-1.87 2.4533zm.117-3.972c-.264.0218-.519.1077-.743.2502-.224.1424-.41.3372-.542.5676v2.2196l1.052.2336c.701 0 1.285-.5841 1.285-1.6355s-.468-1.6355-1.052-1.6355z" fill="#72767d"/><path d="m183.561 23.2479v-3.1542c.022-.0966.02-.1973-.007-.2926-.028-.0954-.079-.1822-.149-.2523s-.157-.1213-.252-.1486c-.096-.0272-.196-.0298-.293-.0074-.254.009-.502.077-.725.1987-.223.1216-.415.2936-.56.5022v3.1542h-.818v-3.1542c.023-.0966.02-.1973-.007-.2926-.027-.0954-.079-.1822-.149-.2523s-.157-.1213-.252-.1486c-.095-.0272-.196-.0298-.293-.0074-.254.009-.502.077-.725.1987-.223.1216-.415.2936-.56.5022v3.1542h-.817v-4.5561h.584v.5842c.444-.421 1.024-.6695 1.635-.701.246-.0408.499.0073.713.1357s.376.3288.455.5653c.445-.421 1.025-.6695 1.636-.701.173-.0184.348.0022.513.0603.164.0581.313.1522.436.2754.124.1232.218.2724.276.4366.058.1643.078.3395.06.5128v3.3878z" fill="#72767d"/><path d="m33.3273 45.2103c9.0327 0 16.3552-7.3224 16.3552-16.3551s-7.3225-16.3551-16.3552-16.3551-16.3551 7.3224-16.3551 16.3551 7.3224 16.3551 16.3551 16.3551z" fill="#eb459f"/><path d="m18.9582 26.2851c.3504-1.2851 1.5187-1.2851 2.5701-1.1682.1245-.8451.3602-1.67.7009-2.4533 1.285-2.4533 3.8551-2.9206 6.4252-3.1542 2.5701-.2337 8.7617-.4673 12.7337 1.1682.6854.296 1.2942.7445 1.7801 1.3113.4858.5669.8359 1.2371 1.0236 1.9597.1168.1169.1168.3505.2337.5842 0-.031.0123-.0607.0342-.0826.0219-.022.0516-.0343.0826-.0343 3.0374-.2336 3.7383 2.1028 3.8551 4.4393.0447 1.3101-.1534 2.6171-.5841 3.8551-.5841 1.1683-1.8691 1.0514-3.0374.9346h-.2336c-.9346 2.5701-3.2711 3.6215-5.958 3.8551-4.2202.6427-8.5134.6427-12.7336 0-1.0044-.0672-1.9562-.4737-2.6991-1.153-.743-.6793-1.233-1.5909-1.3897-2.5853h-.9346c-1.4018-.3504-2.1028-.8177-2.3364-2.3364-.1482-1.7276.01-3.4677.4673-5.1402z" fill="#7196ff"/><path d="m29.0048 24.416c1.1319-.6606 2.4287-.9848 3.7383-.9346 1.7946-.0974 3.5945-.0192 5.3739.2337h.4672c.3023.0544.5832.1928.8104.3994.2273.2066.3918.473.4747.7688.7009 2.3364.2337 5.4907-2.5701 6.5421-2.8037 1.0514-5.8411.8177-7.7103-.701-1.8691-1.5187-2.6869-4.6729-.5841-6.3084z" fill="#bacfff"/><path d="m35.7805 29.4395h1.6355c.1673.0023.33-.0553.4586-.1624.1285-.1072.2145-.2567.2424-.4217.0023-.1674-.0553-.33-.1624-.4586-.1072-.1285-.2567-.2145-.4217-.2424h-1.7524c-.8177.1168-.9346 1.2851 0 1.2851zm-5.257-.3505c-.0023.1673.0553.33.1624.4585.1071.1286.2567.2146.4217.2424h2.1028c.1213-.065.2207-.1642.2859-.2854.0652-.1211.0934-.2587.0809-.3957-.0124-.1371-.0649-.2674-.1509-.3747-.086-.1074-.2017-.1871-.3327-.2292h-1.8692c-.3504.1168-.7009.2336-.7009.5841z" fill="#7196ff"/><path d="m43.0235 28.2712c1.5187 0 1.6355-2.4533.1168-2.3365-.1534-.0077-.3068.015-.4515.0666s-.2778.1312-.3917.2343c-.1139.103-.2064.2275-.2722.3663s-.1036.2892-.1112.4426c-.0077.1534.0149.3069.0665.4515.0517.1447.1313.2778.2343.3917.1031.1139.2276.2064.3664.2722s.2892.1036.4426.1113zm-17.9907.3504c1.6355 0 1.7524-2.4532.1168-2.4532-1.6355 0-1.7523 2.4532-.1168 2.4532z" fill="#23272a"/><path d="m45.1264 31.5421c.0539.1655.1675.3051.3186.3915.1512.0863.3291.1134.4991.0758.9346-.1168 1.0514-.9346 1.1682-1.7523.0931-1.0184.0142-2.0453-.2336-3.0374h-.1168c-.0747-.1441-.197-.2577-.3462-.3216-.1491-.0639-.3158-.0741-.4716-.0289-.0868-.0651-.19-.1047-.298-.1145-.108-.0097-.2167.0108-.3137.0593-.097.0486-.1786.1231-.2356.2154-.0571.0923-.0873.1986-.0873.3071 0 1.4019.1169 2.8037.1169 4.2056zm-24.0655.4673c.134-.0273.2541-.1007.3394-.2074.0854-.1068.1307-.2401.1279-.3767.1169-1.1682.2337-2.4533.2337-3.7383v-.2337c-.025-.0808-.0673-.1552-.124-.2181-.0566-.0629-.1262-.1127-.2039-.1461-.0778-.0333-.1619-.0493-.2465-.047-.0846.0024-.1676.0231-.2434.0607-.2075.0937-.3736.2599-.4673.4673-.2336.8178-1.4019 5.0234.5841 4.4393z" fill="#bacfff"/><path d="m237.533 48.2477h-167.7573c-2.8389 0-5.1402 2.3013-5.1402 5.1402v93.7031c0 2.839 2.3013 5.14 5.1402 5.14h167.7573c2.839 0 5.14-2.301 5.14-5.14v-93.7031c0-2.8389-2.301-5.1402-5.14-5.1402z" fill="#ffe75c"/><path d="m99.6823 48.2476 20.2107 103.9724h-25.7013l1.1682-103.9724z" fill="#c2ffd1"/><path d="m242.673 147.079v-16.472l-120.093-82.3594h-15.538l57.126 103.9724h73.365c1.363 0 2.671-.542 3.635-1.506s1.505-2.271 1.505-3.635z" fill="#c2ffd1"/><path d="m221.879 89.6028c-3.388-12.9673-3.972-14.0187-8.412-14.0187-6.425 0-9.229 2.3364-8.294 7.243.935 4.9065 2.57 11.9159 2.57 11.9159-1.402 2.6869-1.752 4.3224-1.402 6.075-5.841-.468-9.696 1.402-12.383 2.219-4.79-6.1912-7.009-8.294-22.78-6.5417l-44.393-5.1402c-9.696-4.9065-12.967-4.6729-19.392-1.7523-2.495-1.5735-5.273-2.645-8.1779-3.1543-.5842-2.4532-.8178-4.2056-3.3879-5.4906l2.9206-7.243-3.972-12.7336c-4.2056 0-3.3879 1.0514-9.9299 12.1495-5.8411 3.6215-8.2944 7.0094-9.6963 10.0467-1.4019 3.0374-3.0374 6.6589-1.1682 13.4346.8178 2.4533 2.6869 3.0374 5.9579 4.2059 6.8926 11.215 10.8645 13.317 24.6497 12.967-3.154 7.827-3.505 12.383 3.855 17.64-.584 11.682-.701 13.318 7.593 20.795h63.085c7.944-3.388 11.215-7.477 16.238-27.22 13.668 2.804 17.757 4.907 30.14-3.154 6.893-1.168 8.295-3.388 8.061-8.295-.935-14.8361-4.79-19.509-11.682-23.9482z" fill="#698eff"/><path d="m107.86 63.5512c-.935-3.0373-6.542-2.6869-13.0841-2.5701l1.5187 14.1356c5.7244.8177 7.8274.7009 11.5654-.9346s.818-7.5935 0-10.6309z" fill="#698eff"/><path d="m218.841 79.3224c-1.986-5.6075-3.505-6.0748-11.565-7.7103-8.061-1.6355-8.061.1168-10.631 6.4252s-.818 8.4112 2.336 9.3458 5.724 2.4533 10.047 1.7524c6.542-1.0514 9.813-9.8131 9.813-9.8131z" fill="#698eff"/><path d="m167.906 136.332c-4.093-.153-8.161-.7-12.149-1.636-12.266-2.804-17.29-5.958-17.523-6.075-2.921-1.869-3.739-8.06 3.154-19.976.11-.112.255-.184.411-.203.156-.02.314.013.449.094.134.081.238.205.294.351.056.147.061.309.014.459-6.776 11.799-5.374 16.939-3.621 18.107 1.752 1.168 5.14 3.154 17.056 5.841 19.042 4.323 20.444.351 24.065-10.163.22-.835.493-1.654.818-2.453 3.388-9.814 5.14-12.384 11.682-17.407.074-.068.161-.119.257-.151.095-.031.196-.041.295-.03.1.011.196.043.282.095.086.051.16.12.217.203.1.142.144.317.122.49-.021.172-.106.331-.238.444-6.309 4.907-8.061 7.36-11.332 16.823-.234.818-.584 1.635-.818 2.336-2.687 8.061-4.322 12.851-13.435 12.851z" fill="#4f7aff"/><path d="m203.421 116.822c-3.06-.03-6.096-.542-8.996-1.518-.165-.054-.305-.168-.391-.319-.087-.151-.114-.329-.076-.499.077-.175.212-.317.383-.402.171-.086.366-.109.551-.065 8.295 2.687 14.603 1.051 20.094-1.052.084-.039.175-.061.268-.064.093-.004.186.011.273.044s.166.082.234.146c.067.064.122.14.16.225.039.084.06.175.064.268.003.093-.012.185-.044.272-.033.087-.082.167-.146.235-.064.067-.14.122-.225.159-3.851 1.617-7.974 2.489-12.149 2.57z" fill="#4f7aff"/><path d="m222.229 110.631-.468-.234c-4.407-3.69-9.429-6.576-14.836-8.528-.467-.117-.584-.467-.467-.935.025-.08.067-.155.124-.218.056-.063.126-.112.204-.146.077-.033.161-.049.246-.047.085.003.168.023.243.061 7.477 2.336 13.435 7.243 15.421 8.762.141.133.23.311.251.504.022.193-.026.386-.134.547z" fill="#4f7aff"/><path d="m105.173 113.318h-.234c-.085-.038-.161-.093-.225-.16-.063-.068-.113-.147-.145-.234-.033-.087-.048-.18-.045-.273.004-.093.026-.184.065-.268l4.789-9.813c.116-.173.178-.376.178-.584s-.062-.411-.178-.584c-1.75-3.4343-2.632-7.2447-2.57-11.0984 0-.0921.019-.1832.054-.2683.035-.085.087-.1623.152-.2273.065-.0651.142-.1168.227-.152s.176-.0533.268-.0533.184.0181.269.0533.162.0869.227.152c.065.065.117.1423.152.2273.035.0851.053.1762.053.2683-.09 3.6563.755 7.2751 2.454 10.5144.17.386.258.804.258 1.226 0 .423-.088.84-.258 1.227l-4.79 9.696c-.069.122-.172.22-.297.282-.125.063-.266.087-.404.069z" fill="#4f7aff"/><path d="m114.869 133.178c-1.979.048-3.952-.228-5.841-.818-.166-.054-.305-.168-.391-.319-.087-.151-.114-.329-.076-.499.117-.467.467-.584.934-.467 5.14 1.518 12.267.584 22.897-3.038.085-.039.176-.061.269-.064.093-.004.185.011.272.044s.167.082.234.146c.068.064.122.14.16.225.043.186.021.381-.065.551-.085.171-.228.307-.402.383-7.477 2.57-13.318 3.856-17.991 3.856z" fill="#4f7aff"/><path d="m105.173 101.752h-.117c-.35 0-9.6962-1.168-15.4205-6.1914-.1149-.1285-.1785-.2949-.1785-.4673s.0636-.3388.1785-.4673c.0447-.0801.1076-.1485.1836-.1998.0761-.0513.1631-.0839.2541-.0953.091-.0113.1834-.0011.2698.0298.0863.031.1641.0819.2271.1485 5.3738 4.7897 14.6029 5.8408 14.7199 5.8408s.584.351.584.818c-.028.165-.114.315-.243.422-.128.107-.291.165-.458.162z" fill="#4f7aff"/><path d="m83.9111 89.9532c-.2701-.0221-.5212-.1477-.7009-.3504-.0614-.1898-.0605-.3941.0026-.5833.063-.1892.1849-.3532.3478-.4682 4.4393-2.4532 10.3972-2.6869 14.6029-2.8037.092-.0077.1847.0029.2726.031.088.0281.1696.0733.2401.133s.1286.1326.1709.2147.068.1718.0757.2638c.0077.0921-.0029.1847-.031.2727s-.0733.1696-.133.2401c-.0596.0705-.1326.1286-.2147.1709s-.1718.068-.2638.0757c-4.2056.1168-9.8131.3504-14.0187 2.6869z" fill="#4f7aff"/><path d="m148.748 106.893h-.701c-.186 0-.364-.074-.496-.206-.131-.131-.205-.31-.205-.495 0-.186.074-.365.205-.496.132-.132.31-.205.496-.205 5.257.116 10.397-1.519 14.836-2.921 2.735-1.105 5.602-1.851 8.528-2.22.468 0 .818.234.818.701 0 .186-.074.365-.205.496-.132.131-.31.205-.496.205-2.808.329-5.559 1.036-8.177 2.103-4.44 1.402-9.346 3.038-14.603 3.038z" fill="#4f7aff"/><path d="m138.701 105.14h-.234c-3.492-1.136-6.659-3.1-9.229-5.7243-1.384-1.4816-3.108-2.6042-5.023-3.271-.085-.0378-.161-.0921-.225-.1598-.063-.0676-.113-.1472-.146-.2342-.032-.0869-.047-.1795-.044-.2723.004-.0928.026-.184.065-.2683.054-.1655.167-.305.318-.3914.152-.0864.329-.1134.499-.0759 2.098.7423 3.983 1.9854 5.491 3.6215 2.476 2.4587 5.47 4.3347 8.762 5.4907.081.025.155.067.218.124s.113.126.146.204.049.162.047.246c-.002.085-.023.168-.061.244-.027.134-.1.254-.207.339-.107.086-.24.131-.377.128z" fill="#4f7aff"/><path d="m161.014 150.584c-7.71-9.346-20.444-15.654-26.402-15.07s-10.163 6.425-13.201 16.355v.35h3.738l4.907-4.789c5.257-5.14 6.542-3.855 9.579-2.337 3.038 1.519 6.776 3.972 11.799 7.126h10.982z" fill="#4f7aff"/><path d="m173.046 150.584c-.148-.007-.291-.054-.415-.136-.123-.083-.222-.197-.285-.331-.041-.093-.057-.195-.047-.296.01-.1.047-.197.106-.279.059-.083.138-.149.23-.191.092-.043.194-.06.295-.052 1.774-.342 3.45-1.075 4.905-2.146s2.652-2.453 3.506-4.045c.038-.085.092-.162.16-.225.067-.064.147-.114.234-.146.087-.033.179-.048.272-.044.093.003.184.025.268.064.154.095.271.239.335.408.063.169.069.354.016.527-.934 1.804-2.275 3.367-3.917 4.563-1.643 1.197-3.542 1.994-5.546 2.329z" fill="#4f7aff"/><path d="m177.486 142.406h-.584c-.186 0-.364-.074-.496-.205-.131-.131-.205-.31-.205-.496s.074-.364.205-.495c.132-.132.31-.206.496-.206 1.82.098 3.639-.219 5.319-.928 1.68-.708 3.176-1.789 4.377-3.16.114-.132.272-.218.445-.239.173-.022.347.022.49.122.082.057.152.131.203.217.052.086.084.182.095.282s.001.2-.031.296c-.031.095-.082.182-.15.256-1.275 1.436-2.84 2.585-4.592 3.371-1.752.785-3.652 1.189-5.572 1.185z" fill="#4f7aff"/><path d="m195.36 125.701h-.234l-5.257-1.168c-.101.008-.202-.009-.294-.052-.093-.043-.172-.108-.231-.191-.059-.082-.095-.179-.106-.28-.01-.1.006-.202.047-.295.054-.166.168-.305.319-.392.151-.086.329-.113.499-.075l5.374 1.051c.095.026.183.072.26.134.076.063.138.141.182.229s.069.185.074.283c.004.099-.013.197-.049.289 0 .233-.351.467-.584.467z" fill="#4f7aff"/><path d="m116.271 147.897h-.234c-3.972-1.752-6.542-4.79-6.775-8.294 0-.186.074-.364.205-.496.131-.131.31-.205.496-.205.085-.018.174-.016.259.006.085.021.164.061.232.117.067.056.121.127.157.207.036.079.054.166.053.254.233 3.505 3.271 5.958 5.958 7.126.084.038.161.092.224.16.064.068.114.147.146.234.033.087.048.18.044.272-.003.093-.025.184-.064.269-.078.112-.183.203-.306.264-.122.062-.258.091-.395.086z" fill="#4f7aff"/><path d="m206.575 89.4859c4.439-.5841 5.607-1.986 6.775-3.7383.031-.1549.123-.2912.254-.3788.132-.0876.292-.1195.447-.0885s.292.1223.379.2537c.088.1315.12.2923.089.4472 0 .4673-.234 1.1683-.234 1.5187-1.285 5.2571-3.388 7.0094-7.009 5.2571z" fill="#4f7aff"/><path d="m98.0469 75.5842c-2.2197-.4673-3.5047-1.2851-4.0888-3.1542-.5841-1.8692-1.986-1.6355-1.8692 0s.8178 7.4766 4.3224 7.243z" fill="#4f7aff"/><path d="m149.215 110.631c-1.168-.818-2.921.584-4.907 2.57s-2.803 4.556-.584 5.607c2.22 1.052 3.505-1.869 4.556-3.621 1.052-1.752 2.22-3.738.935-4.556z" fill="#b7ccff"/><path d="m125.065 102.173c.658-.266.897-1.209.535-2.106-.363-.8974-1.19-1.4093-1.848-1.1434-.658.2658-.898 1.2084-.535 2.1064.362.897 1.19 1.409 1.848 1.143z" fill="#b7ccff"/><path d="m145.477 134.463c3.154 1.285 3.738 2.219 3.388 2.92-.351.701-.935.351-3.388-1.051s-1.753-2.57 0-1.869z" fill="#b7ccff"/><path d="m177.597 102.02c.82-.379 1.375-.924 1.24-1.217-.135-.292-.91-.223-1.73.156s-1.375.924-1.239 1.216c.135.293.909.224 1.729-.155z" fill="#b7ccff"/><path d="m109.963 111.565c-1.402-.467-2.921 2.337-2.921 4.907s3.271 5.14 4.907 4.322c1.635-.817.818-2.803-.234-4.322-1.051-1.519-.584-4.556-1.752-4.907z" fill="#b7ccff"/><path d="m202.32 106.193c1.473-.184 2.621-.696 2.565-1.144-.055-.448-1.294-.663-2.767-.479-1.473.183-2.621.695-2.565 1.143.056.449 1.295.663 2.767.48z" fill="#b7ccff"/><path d="m98.631 90.3037c-.7598.3865-1.6007.5867-2.4533.5841-.8177 0-1.4018-.2337-1.4018-.4673s1.0514-1.0514 2.5701-1.1682 2.2196.4673 1.285 1.0514z" fill="#b7ccff"/><path d="m168.958 128.154h-1.869c-.237-.081-.489-.108-.737-.076-.249.031-.487.119-.696.257-.209.137-.383.321-.51.537s-.203.458-.221.708c-.019.249.02.5.114.732s.239.44.426.607c.186.167.409.289.65.356.241.068.494.079.74.033l1.869.234c.447.034.889-.105 1.237-.387.348-.283.574-.688.632-1.132.034-.233.017-.471-.05-.698-.067-.226-.182-.435-.337-.612-.156-.178-.348-.32-.563-.416-.215-.097-.449-.145-.685-.143z" fill="#4f7aff"/><path d="m108.794 123.247h-1.869c-.236-.081-.489-.107-.737-.076s-.486.119-.695.257-.384.321-.511.537-.202.458-.221.708c-.018.25.021.5.114.732.094.232.24.44.426.607.187.167.409.289.65.357.241.067.494.078.741.033h1.869c.215.033.434.022.645-.031s.41-.147.584-.278c.174-.13.32-.294.43-.482s.181-.396.21-.611c.001-.445-.168-.874-.471-1.2-.304-.325-.72-.523-1.165-.553z" fill="#4f7aff"/><path d="m131.575 91.2383c7.593 10.3967 8.995 20.2107 38.084 4.2056z" fill="#4f7aff"/><path d="m163.584 66.4718c.488-.3558.896-.8099 1.198-1.333.302-.5232.491-1.1038.554-1.7044.012-.9927-.286-1.9643-.851-2.7805s-1.37-1.4367-2.303-1.7756l-1.986-.5841h-.117c-3.154-.2336-4.673 1.285-7.359 3.271-1.754 1.3441-3.631 2.5177-5.608 3.5047z" fill="#55f186"/><path d="m154.472 66.7056c-.145-.0176-.285-.0691-.406-.1502-.122-.0812-.223-.1898-.295-.3171-.057-.1056-.091-.2225-.098-.3424s.013-.2399.057-.3514c.045-.1115.114-.2119.201-.2939.088-.082.193-.1436.307-.1805 1.943-.9515 3.657-2.31 5.028-3.9831 1.371-1.673 2.365-3.6216 2.916-5.7132.062-.2169.208-.4003.405-.5098.197-.1096.43-.1363.647-.0743.216.062.4.2075.509.4047.11.1972.137.4298.075.6467-.604 2.3316-1.713 4.5024-3.247 6.3594-1.534 1.8569-3.456 3.3549-5.632 4.3882z" fill="#008d3c"/><path d="m157.51 66.1213-12.5-1.0514c-4.089-1.4019-6.075-4.5561-5.491-8.1776s3.154-4.556 6.425-4.3224c3.271.2337 5.14 3.1542 6.542 5.3738 3.038 5.1402 5.024 8.1776 5.024 8.1776z" fill="#26cb7a"/><path d="m152.252 68.8084c-.09 0-.18-.0211-.261-.0617-.081-.0405-.151-.0994-.206-.172-4.089-3.0374-6.892-6.8925-7.593-10.6308-.117-.4673.116-.9346.584-.9346.107-.0355.221-.0483.333-.0377.113.0106.222.0444.32.0993.099.0549.186.1297.254.2196s.118.1931.144.3029c.351 1.6355 1.636 5.6075 7.009 9.5795.181.1581.295.3798.316.6191.022.2393-.049.4778-.199.6659-.078.1124-.183.2034-.305.2647-.123.0612-.259.0907-.396.0858z" fill="#008d3c"/><path d="m125.734 71.0281 4.088.2336c.165.0279.315.1139.422.2424.107.1286.165.2912.162.4585l-1.518 15.7711c-.028.165-.114.3146-.243.4217-.128.1071-.291.1647-.458.1624l-4.089-.4673c-1.188-.214-2.265-.8301-3.052-1.7448s-1.236-2.0723-1.27-3.2786c.099-2.5855.372-5.1614.817-7.7103.224-1.185.866-2.2501 1.81-3.0008.943-.7507 2.126-1.1368 3.331-1.0879z" fill="#698eff"/><path d="m124.916 74.0654h2.219c.468 0 .701.4673.701.9346l-.817 8.4112c.001.1027-.02.2045-.062.2982-.043.0937-.105.1769-.183.2438s-.17.1158-.269.1432c-.099.0275-.203.0328-.304.0157l-2.103-.2337c-.423-.1021-.801-.3404-1.075-.6781s-.43-.7561-.444-1.191c.016-2.1543.211-4.3035.584-6.4252.079-.4135.295-.7883.613-1.064.318-.2756.719-.4358 1.14-.4547z" fill="#b7ccff"/><path d="m125.149 77.8037c-.21 2.7207-.249 5.4519-.116 8.1775.189 2.0359.995 3.9654 2.31 5.531s3.077 2.6927 5.049 3.2307c3.271.9346 11.566 1.986 17.407 2.4533s14.136 1.0514 17.64.7009c2.043-.1136 3.995-.878 5.572-2.1813 1.576-1.3033 2.694-3.0771 3.19-5.0617.696-2.642 1.165-5.3387 1.402-8.0607.327-2.7141.366-5.4552.117-8.1776-.157-2.0467-.951-3.9928-2.271-5.5646-1.32-1.5717-3.1-2.6899-5.089-3.1971-3.271-.9345-11.566-1.9859-17.407-2.5701-5.841-.5841-14.135-1.0514-17.64-.7009-2.036.1895-3.965.9956-5.531 2.3107s-2.693 3.0765-3.231 5.0491c-.717 2.6375-1.186 5.3361-1.402 8.0608z" fill="#698eff"/><path d="m154.238 85.8644-8.644-.8178c-5.257-.7009-6.776-2.9205-7.127-6.0747-.363-2.6532-.204-5.3517.468-7.9439.068-.5327.247-1.0452.524-1.5048.278-.4596.649-.8561 1.089-1.164.44-.308.939-.5206 1.466-.6243s1.07-.0962 1.594.022l14.602 1.2851c1.096.1181 2.102.6616 2.801 1.5137s1.036 1.9445.938 3.0424l-.584 5.7243c-.351 4.6729-2.921 6.8925-7.127 6.542z" fill="#b7ccff"/><path d="m145.01 77.6869-1.87-.2336c-.429-.0371-.857.0853-1.202.344-.345.2586-.582.6352-.667 1.0579-.036.2282-.02.4619.047.683.068.2211.185.4239.343.5929.157.1691.352.2998.568.3824.216.0825.447.1147.678.094l1.869.2337c.215.0329.434.0226.646-.0303.211-.0529.409-.1474.583-.278.174-.1305.32-.2945.43-.4823s.182-.3956.21-.6113c.037-.2283.02-.4619-.047-.6831-.068-.2211-.185-.4239-.342-.5929-.158-.169-.352-.2998-.568-.3823-.216-.0826-.448-.1148-.678-.0941z" fill="#698eff"/><path d="m153.771 78.3878h-1.869c-.448-.0685-.906.0392-1.276.3006s-.625.6561-.71 1.1013c-.001.4452.167.8741.471 1.1996.304.3254.72.5231 1.164.5527l1.869.2337c.461.0367.918-.0981 1.285-.3785.366-.2804.616-.6865.701-1.1402.004-.4578-.161-.901-.462-1.2455s-.719-.5664-1.173-.6237z" fill="#698eff"/><path d="m166.621 77.9206c1.355 0 2.453-1.0984 2.453-2.4533s-1.098-2.4533-2.453-2.4533-2.453 1.0984-2.453 2.4533 1.098 2.4533 2.453 2.4533z" fill="#000"/><path d="m133.911 74.8831c1.355 0 2.453-1.0984 2.453-2.4533s-1.098-2.4532-2.453-2.4532-2.453 1.0983-2.453 2.4532 1.098 2.4533 2.453 2.4533z" fill="#000"/><path d="m154.355 93.8084c-.708.156-1.442.1532-2.149-.0084s-1.37-.478-1.94-.9262c-1.051-.701-1.752-1.6355-1.518-2.4533.233-.8177 7.243-3.0374 8.645-2.4533.283.1602.513.4014.658.6928.146.2914.201.6197.159.9428-.068 1.0351-.487 2.0162-1.188 2.7809-.7.7647-1.641 1.2673-2.667 1.4247z" fill="#e9459d"/><path d="m157.392 87.9672c-1.696-.1496-3.406.0492-5.023.5841-.159.5298-.199 1.0884-.117 1.6355.038.7411.261 1.4608.649 2.0935.388.6326.928 1.158 1.571 1.528.995-.1998 1.899-.7182 2.573-1.477.675-.7588 1.084-1.7166 1.165-2.7286.042-.323-.013-.6513-.159-.9427-.145-.2914-.375-.5327-.659-.6928z" fill="#000"/><path d="m179.472 75.9345-4.089-.4673c-.167-.0023-.33.0553-.458.1624-.129.1072-.215.2567-.243.4217l-1.402 15.7711c-.002.1673.056.3299.163.4585.107.1285.256.2145.421.2424l4.089.2337c1.205.0489 2.387-.3373 3.331-1.088s1.586-1.8158 1.809-3.0008c.465-2.5438.7-5.1244.701-7.7103-.012-1.2127-.452-2.382-1.243-3.3013-.791-.9192-1.882-1.5292-3.079-1.7221z" fill="#698eff"/><path d="m179.122 78.6213-2.103-.2336c-.101-.0172-.205-.0118-.304.0157-.099.0274-.191.0763-.269.1432s-.141.1501-.183.2438c-.042.0936-.063.1955-.062.2982l-.818 8.4112c0 .4673.234.9346.701.9346h2.103c.458.0036.901-.1609 1.246-.4624.344-.3015.566-.7189.623-1.1731.374-2.1217.569-4.271.584-6.4252-.053-.4088-.226-.7929-.496-1.1045-.27-.3115-.625-.5368-1.022-.6479z" fill="#b7ccff"/><path d="m154.355 93.8083c-.708.156-1.442.1532-2.149-.0084s-1.369-.4779-1.939-.9262c1.269-1.1167 2.735-1.9881 4.322-2.5701 1.171-.3908 2.389-.6265 3.622-.7009-.068 1.0351-.487 2.0162-1.188 2.7809s-1.642 1.2673-2.668 1.4247z" fill="#ffadd6"/><path d="m197.463 61.7989c-.737-.4527-1.361-1.0662-1.826-1.7946-.466-.7283-.76-1.5526-.861-2.411l-.468-3.0374c0-.1168-.116-.2336-.35-.2336l-.234.2336-.467 3.0374c-.122.8662-.438 1.6938-.923 2.4218-.486.7279-1.128 1.3375-1.881 1.7838l-.35.2336c-.117.1169-.117.1169-.117.2337-.005.0633.002.127.022.1873.02.0602.053.1157.095.1632l.35.2336c.753.4463 1.395 1.0559 1.881 1.7838.485.728.801 1.5556.923 2.4218l.467 3.0374.234.2336c.234 0 .35-.1168.35-.2336l.468-3.0374c.101-.8584.395-1.6827.861-2.411.465-.7284 1.089-1.3419 1.826-1.7946l.35-.2336.234-.3505c0-.1168-.117-.1168-.234-.2337z" fill="#fd78b7"/><path d="m84.6123 127.57c-.7452-.483-1.3801-1.117-1.8633-1.862-.4831-.745-.8036-1.583-.9405-2.46l-.4673-2.921c0-.234-.1168-.234-.2336-.234-.2337 0-.3505 0-.3505.234l-.4673 2.921c-.116.869-.4155 1.704-.8788 2.45-.4632.745-1.0795 1.383-1.8081 1.872l-.3505.234c-.0619 0-.1214.024-.1652.068s-.0684.103-.0684.165.0246.122.0684.166c.0438.043.1033.068.1652.068l.3505.234c.7393.477 1.3637 1.112 1.8282 1.859.4646.748.7579 1.589.8587 2.463l.4673 2.921c0 .116.1168.233.3505.233l.2336-.233.4673-2.921c.122-.882.4365-1.726.921-2.473s1.1272-1.378 1.8828-1.849l.3504-.234c.1168 0 .1168-.117.1168-.234s0-.233-.1168-.233z" fill="#fff"/><path d="m220.36 131.075c-1.111-.718-2.06-1.66-2.784-2.767s-1.209-2.353-1.422-3.658l-.584-4.556c-.117-.234-.234-.351-.467-.351-.234 0-.467.117-.467.351l-.701 4.556c-.168 1.32-.633 2.584-1.362 3.698-.729 1.113-1.701 2.046-2.844 2.727l-.584.35c-.117.117-.117.234-.117.468-.005.063.002.127.022.187s.053.116.095.163l.584.351c1.135.718 2.099 1.676 2.826 2.806.726 1.13 1.197 2.405 1.38 3.736l.701 4.439c0 .124.049.243.136.33.088.088.207.137.331.137.233 0 .35-.233.467-.467l.584-4.439c.225-1.318.713-2.576 1.436-3.7s1.665-2.091 2.77-2.842l.584-.351.234-.35c0-.091-.022-.18-.062-.262-.041-.081-.1-.151-.172-.206z" fill="#66bcff"/></svg>