<svg enable-background="new 0 0 20 20" viewBox="0 0 20 20" xmlns="http://www.w3.org/2000/svg"><path d="m9.994 1c.784 0 1.569.104 2.335.309 4.792 1.284 7.646 6.228 6.362 11.02-1.053 3.928-4.624 6.671-8.685 6.671-.784 0-1.57-.104-2.335-.309-2.322-.622-4.262-2.111-5.463-4.192-1.202-2.081-1.521-4.506-.899-6.828 1.053-3.928 4.624-6.671 8.685-6.671m0-1c-4.414 0-8.454 2.946-9.651 7.412-1.429 5.333 1.736 10.815 7.069 12.244.867.233 1.738.344 2.594.344 4.414 0 8.454-2.946 9.651-7.412 1.429-5.333-1.736-10.815-7.069-12.244-.867-.233-1.738-.344-2.594-.344z" fill="#faa61b"/></svg>