<svg viewBox="0 0 239 96" xmlns="http://www.w3.org/2000/svg"><path d="m14.4 95.7h224.5v-16.9a16.73 16.73 0 0 0 -16.7-16.7h-13.7a8.71 8.71 0 0 1 -8.7-8.7v-38.7a14.72 14.72 0 0 0 -14.7-14.7h-104.8a14.72 14.72 0 0 0 -14.7 14.7v20h-30.4a20.78 20.78 0 0 0 -20.8 20.8z" fill="#4f545c" opacity=".3"/><path d="m1.8 45-1.3 2.6a.75.75 0 0 0 1 1l2.6-1.3a.64.64 0 0 1 .6 0l2.8 1.3a.75.75 0 0 0 1-1l-1.3-2.6a.64.64 0 0 1 0-.6l1.3-2.6a.75.75 0 0 0 -1-1l-2.7 1.2a.64.64 0 0 1 -.6 0l-2.7-1.3a.75.75 0 0 0 -1 1l1.3 2.6a.85.85 0 0 1 0 .7z" fill="#fff"/><path d="m27.4 68.2a.94.94 0 0 1 -1-1v-1a1 1 0 0 1 2 0v1a1 1 0 0 1 -1 1zm0 8a.94.94 0 0 1 -1-1v-1a1 1 0 0 1 2 0v1a1 1 0 0 1 -1 1zm2.5-5.5a.94.94 0 0 1 1-1h1a1 1 0 0 1 0 2h-1a1.08 1.08 0 0 1 -1-1zm-8 0a.94.94 0 0 1 1-1h1a1 1 0 0 1 0 2h-1a1.08 1.08 0 0 1 -1-1zm196.5-22.7a.94.94 0 0 1 -1-1v-1a1 1 0 1 1 2 0v1a.94.94 0 0 1 -1 1zm0 8a.94.94 0 0 1 -1-1v-1a1 1 0 1 1 2 0v1a.94.94 0 0 1 -1 1zm2.5-5.5a.94.94 0 0 1 1-1h1a1 1 0 0 1 0 2h-1a1 1 0 0 1 -1-1zm-8 0a.94.94 0 0 1 1-1h1a1 1 0 0 1 0 2h-1a1 1 0 0 1 -1-1z" fill="#72767d"/><path d="m191.7 13.7h-116v82h116z" fill="#b9bbbe"/><path d="m181.6 23.7h-96v54h96z" fill="#040505"/><path d="m75.7 13.7h-28v82h28z" fill="#72767d"/><path d="m37.7 64.7 10 10v-40l-10 10z" fill="#040505"/><g fill="#36393f"><path d="m171.6 77-12.6-12-12.6 12-12.7-12-12.6 12-12.6-12-12.6 12-10.2-9.7-.1.1v9.5l.8.8h18.9l3.2-3 3.2 3h18.9l3.1-3 3.2 3h18.9l3.2-3 3.2 3h18.9l.5-.5v-9.7z"/><path d="m171.6 57.7-12.6-12-12.6 12-12.7-12-12.6 12-12.6-12-12.6 12-10.2-9.7h-.1v9.5l10.3 9.8 12.6-12 12.6 12 12.6-12 12.7 12 12.6-12 12.6 12 10-9.4v-9.7z"/><path d="m171.6 38.3-12.6-12-12.6 12-12.7-12-12.6 12-12.6-12-12.6 12-10.2-9.7-.1.1v9.5l10.3 9.8 12.6-12 12.6 12 12.6-12 12.7 12 12.6-12 12.6 12 10-9.5v-9.6z"/><path d="m171.6 28.7 5.3-5h-10.5zm-20-5h-10.5l5.3 5zm-35.7 0 5.2 5 5.3-5zm-14.8 0h-10.5l5.3 5z"/></g><path d="m55.6 29.7a1 1 0 1 0 -1-1 1 1 0 0 0 1 1zm4 0a1 1 0 1 0 -1-1 1 1 0 0 0 1 1zm4 0a1 1 0 1 0 -1-1 1 1 0 0 0 1 1zm4 0a1 1 0 1 0 -1-1 1 1 0 0 0 1 1zm-12 6a1 1 0 1 0 -1-1 1 1 0 0 0 1 1zm4 0a1 1 0 1 0 -1-1 1 1 0 0 0 1 1zm4 0a1 1 0 1 0 -1-1 1 1 0 0 0 1 1zm4 0a1 1 0 1 0 -1-1 1 1 0 0 0 1 1zm-12 6a1 1 0 1 0 -1-1 1 1 0 0 0 1 1zm4 0a1 1 0 1 0 -1-1 1 1 0 0 0 1 1zm4 0a1 1 0 1 0 -1-1 1 1 0 0 0 1 1zm4 0a1 1 0 1 0 -1-1 1 1 0 0 0 1 1zm-12 6a1 1 0 1 0 -1-1 1 1 0 0 0 1 1zm4 0a1 1 0 1 0 -1-1 1 1 0 0 0 1 1zm4 0a1 1 0 1 0 -1-1 1 1 0 0 0 1 1zm4 0a1 1 0 1 0 -1-1 1 1 0 0 0 1 1zm-12 6a1 1 0 1 0 -1-1 1 1 0 0 0 1 1zm4 0a1 1 0 1 0 -1-1 1 1 0 0 0 1 1zm4 0a1 1 0 1 0 -1-1 1 1 0 0 0 1 1zm4 0a1 1 0 1 0 -1-1 1 1 0 0 0 1 1zm-12 6a1 1 0 1 0 -1-1 1 1 0 0 0 1 1zm4 0a1 1 0 1 0 -1-1 1 1 0 0 0 1 1zm4 0a1 1 0 1 0 -1-1 1 1 0 0 0 1 1zm4 0a1 1 0 1 0 -1-1 1 1 0 0 0 1 1zm-12 6a1 1 0 1 0 -1-1 1 1 0 0 0 1 1zm4 0a1 1 0 1 0 -1-1 1 1 0 0 0 1 1zm4 0a1 1 0 1 0 -1-1 1 1 0 0 0 1 1zm4 0a1 1 0 1 0 -1-1 1 1 0 0 0 1 1zm-12 6a1 1 0 1 0 -1-1 1 1 0 0 0 1 1zm4 0a1 1 0 1 0 -1-1 1 1 0 0 0 1 1zm4 0a1 1 0 1 0 -1-1 1 1 0 0 0 1 1zm4 0a1 1 0 1 0 -1-1 1 1 0 0 0 1 1zm-12 6a1 1 0 1 0 -1-1 1 1 0 0 0 1 1zm4 0a1 1 0 1 0 -1-1 1 1 0 0 0 1 1zm4 0a1 1 0 1 0 -1-1 1 1 0 0 0 1 1zm4 0a1 1 0 1 0 -1-1 1 1 0 0 0 1 1zm-12 6a1 1 0 1 0 -1-1 1 1 0 0 0 1 1zm4 0a1 1 0 1 0 -1-1 1 1 0 0 0 1 1zm4 0a1 1 0 1 0 -1-1 1 1 0 0 0 1 1zm4 0a1 1 0 1 0 -1-1 1 1 0 0 0 1 1zm1-62h-14v2h14z" fill="#4f545c"/><path d="m187.7 48.7a21 21 0 1 0 -21-21 21 21 0 0 0 21 21z" fill="#f6f6f7"/><path d="m187.7 41.7a5 5 0 1 0 -5-5 5 5 0 0 0 5 5zm4-28h-8v14h8z" fill="#040505"/></svg>