<svg fill="none" height="115" width="440" xmlns="http://www.w3.org/2000/svg" xmlns:xlink="http://www.w3.org/1999/xlink"><linearGradient id="a" gradientUnits="userSpaceOnUse" x1="0" x2="440" y1="58.5" y2="58.5"><stop offset="0" stop-color="#3e70dd"/><stop offset="1" stop-color="#b377f3"/></linearGradient><clipPath id="b"><path d="m0 0h440v124.7h-440z"/></clipPath><g clip-path="url(#b)"><path d="m0 4.68c0-1.241.421-2.432 1.172-3.31.75-.876 1.767-1.37 2.828-1.37h432c1.061 0 2.078.493 2.828 1.37.751.878 1.172 2.069 1.172 3.31v112.32h-440z" fill="url(#a)"/><path d="m440 117v-8.3a18.39 18.39 0 0 0 -5.393-13.014 18.39 18.39 0 0 0 -13.017-5.386h-7.13a7.22 7.22 0 0 1 -5.09-2.11l-21.37-21.43a50.644 50.644 0 0 0 -35.82-14.83h-16.8a18.75 18.75 0 0 1 -13.23-5.48l-2.15-2.19a34.72 34.72 0 0 0 -24.55-10.17h-93.95a39.19 39.19 0 0 0 -27.7 11.47l-14.41 14.44h-13.78a19.391 19.391 0 0 0 -19.39 19.39 2.525 2.525 0 0 1 -1.563 2.331c-.306.126-.635.19-.967.189h-78.56a30.31 30.31 0 0 0 -22.53 10l-22.6 25.09z" fill="#3e70dd" opacity=".25"/><path d="m362.36 84.61h-38.1v32.39h38.1z" fill="#3e70dd" opacity=".8"/><path d="m371.3 68.96h-25.23l-4.09 48.04h33.41z" fill="#85a5ff"/><path d="m372.6 96.87h-56.26v20.13h56.26zm-270.98 5.47h-38.76v14.66h38.76z" fill="#7196ff"/><path d="m372.26 96.88-1.71 20.12h-1.47l1.73-20.12z" fill="#3e70dd"/><path d="m302.79 90.3h13.32l2.28 26.7h-17.88z" fill="#7196ff"/><path d="m300.51 91.34h17.88v-3.36h-17.88z" fill="#7196ff"/><path d="m300.51 87.98h17.88v-3.36h-17.88z" fill="#3e70dd"/><path d="m314.37 88.62h4.02v-4.01h-4.02zm-7.81 0h5.96v-4.01h-5.96zm-6.05 0h4.63v-4.01h-4.63z" fill="#7196ff"/><path d="m379.49 98.12a1.457 1.457 0 0 1 1.51 1.47v2.33h-3v-2.33a1.46 1.46 0 0 1 1.49-1.47zm-70.04 0a1.458 1.458 0 0 1 1.46 1.46v2.33h-2.91v-2.32a1.46 1.46 0 0 1 1.46-1.46z" fill="#3e70dd"/><path d="m386.15 90.3h-13.32l-2.28 26.7h17.88z" fill="#7196ff"/><path d="m388.43 87.97h-17.88v3.36h17.88z" fill="#7196ff"/><path d="m388.43 84.61h-17.88v3.36h17.88z" fill="#3e70dd"/><path d="m376.51 84.61h-5.96v4.01h5.96zm7.81 0h-5.96v4.01h5.96zm4.12 0h-2.7v4.01h2.7zm-39.71-15.66h19.92v-17.03h-19.92z" fill="#7196ff"/><path d="m316.68 96.88 1.71 20.12h1.47l-1.73-20.12z" fill="#3e70dd"/><path d="m374.76 63.31h-32.15v5.64h32.15z" fill="#85a5ff"/><path d="m374.76 59.95h-32.15v3.36h32.15z" fill="#7196ff"/><path d="m360.3 59.95h-11.58v4.01h11.58zm10.23 0h-7.19v4.01h7.19zm4.24 0h-2.7v4.01h2.7zm-32.15 4.01h3.63v-4.01h-3.63z" fill="#85a5ff"/><path d="m358.69 43.96-6.98 7.97h13.95zm20.8 54.16a1.457 1.457 0 0 1 1.51 1.47v2.33h-3v-2.33a1.46 1.46 0 0 1 1.49-1.47z" fill="#3e70dd"/><path d="m344.47 103.66a5.14 5.14 0 0 1 5.14 5.14v8.2h-10.28v-8.19a5.147 5.147 0 0 1 5.14-5.15zm14.76-67.46h-1.1v8.39h1.1z" fill="#85a5ff"/><path d="m358.69 36.56a.88.88 0 1 0 0-1.76.88.88 0 0 0 0 1.76z" fill="#85a5ff"/><path d="m368.28 37.01h-9.04v6.8h9.04z" fill="#7196ff"/><path d="m373.78 38.82h-9.04v6.8h9.04z" fill="#7196ff"/><g fill="#3e70dd"><path d="m364.74 43.8h3.53l-3.53 1.82z"/><path d="m400.76 105.73a3.81 3.81 0 0 0 -7.62 0v3.32a3.81 3.81 0 0 0 7.62 0z" opacity=".2"/><path d="m397.44 105.41h-.97v11.59h.97z" opacity=".2"/><path d="m115.35 105.73a3.81 3.81 0 0 0 -7.62 0v3.32a3.81 3.81 0 0 0 7.62 0z" opacity=".2"/><path d="m112.02 105.41h-.97v11.59h.97z" opacity=".2"/><path d="m31.29 105.73a3.81 3.81 0 0 0 -7.62 0v3.32a3.81 3.81 0 0 0 7.62 0z" opacity=".2"/><path d="m27.96 105.41h-.97v11.59h.97z" opacity=".2"/><path d="m404.58 109.87a3.806 3.806 0 0 1 3.81 3.81v3.32h-7.62v-3.31a3.812 3.812 0 0 1 3.81-3.82z" opacity=".2"/><path d="m123.1 109.87a3.806 3.806 0 0 1 3.81 3.81v3.32h-7.62v-3.31a3.812 3.812 0 0 1 3.81-3.82z" opacity=".2"/></g><path d="m93.2 93.91-8.42 8.42h16.84z" fill="#7196ff"/><path d="m71.28 93.91-8.42 8.42h21.92l8.42-8.42z" fill="#3e70dd" opacity=".2"/><path d="m93.2 106.28a2.89 2.89 0 0 1 2.89 2.89v7.83h-5.78v-7.83a2.892 2.892 0 0 1 2.89-2.89z" fill="#85a5ff"/><path d="m56.32 81.89h-4.26l-2.34 35.11h8.94z" fill="#7196ff"/><path d="m54.82 86.9-1.52-1.53-11.32 9.59 3.17 3.19zm.76.76-1.52-1.53 9.66-11.25 3.17 3.19z" fill="#85a5ff"/><path d="m54.05 86.89 1.53-1.51-9.59-11.32-3.19 3.17z" fill="#85a5ff"/><path d="m53.29 87.65 1.53-1.52 11.26 9.66-3.19 3.17z" fill="#85a5ff"/><path d="m79.17 108.08a1.46 1.46 0 0 1 1.46 1.46v2.33h-2.92v-2.33a1.46 1.46 0 0 1 1.46-1.46zm-8.97 0a1.46 1.46 0 0 1 1.46 1.46v2.33h-2.92v-2.33a1.458 1.458 0 0 1 1.46-1.46z" fill="#3e70dd"/><g fill="#3e70dd" opacity=".2"><path d="m128.19 92.52a1.36 1.36 0 0 0 0 2.72h1.37a1.36 1.36 0 0 0 0-2.72z"/><path d="m117.29 92.52a1.36 1.36 0 0 0 0 2.72h1.37a1.36 1.36 0 0 0 0-2.72z"/><path d="m122.06 89.11a1.36 1.36 0 0 0 2.72 0v-1.37a1.36 1.36 0 0 0 -2.72 0z"/><path d="m122.06 100.01a1.36 1.36 0 0 0 2.72 0v-1.37a1.36 1.36 0 0 0 -2.72 0z"/></g><g fill="#3e70dd" opacity=".4"><path d="m321.22 56.88a1.4 1.4 0 0 0 0 2.8h1.4a1.4 1.4 0 0 0 0-2.8z" opacity=".4"/><path d="m310.02 56.88a1.4 1.4 0 0 0 0 2.8h1.4a1.4 1.4 0 0 0 0-2.8z" opacity=".4"/><path d="m314.91 53.38a1.4 1.4 0 0 0 2.8 0v-1.4a1.4 1.4 0 0 0 -2.8 0z" opacity=".4"/><path d="m314.91 64.58a1.4 1.4 0 0 0 2.8 0v-1.4a1.4 1.4 0 0 0 -2.8 0z" opacity=".4"/></g><path d="m410.41 76.34-3.71 1.79a1 1 0 0 1 -1.36-1.36l1.79-3.71a.996.996 0 0 0 0-.89l-1.79-3.71a.999.999 0 0 1 1.36-1.36l3.71 1.79a1 1 0 0 0 .89 0l3.7-1.79a1 1 0 0 1 1.36 1.36l-1.79 3.71a.996.996 0 0 0 0 .89l1.79 3.71a.997.997 0 0 1 -1.36 1.36l-3.71-1.79a1.06 1.06 0 0 0 -.88 0z" fill="#aec7ff"/></g></svg>