<svg viewBox="0 0 256 192" xmlns="http://www.w3.org/2000/svg" xmlns:xlink="http://www.w3.org/1999/xlink"><linearGradient id="a" gradientUnits="userSpaceOnUse" x1="226.96" x2="206.62" y1="99.21" y2="180.58"><stop offset="0" stop-color="#4e1ceb"/><stop offset="1" stop-color="#cd1580"/></linearGradient><linearGradient id="b" x1="133.95" x2="208.59" xlink:href="#a" y1="23.2" y2="106.71"/><path d="m0 0h256v192h-256z" fill="#fa4e89"/><path d="m202 192h54v-15.59c-17.48-1.12-17.46-13.91-17.46-13.91v-17h-27.43a12 12 0 0 1 -23.22 0h-24.74s2.35 19 21.35 25c12.37 3.91 16.26 14.5 17.5 21.5z" fill="url(#a)"/><path d="m256 17.61c-5.62-5.49-13.5-2.11-13.5-2.11-13-20-28 1-28 1-14-8-25 14-25 14l66.5-3.75z" fill="#00e0a7"/><path d="m117.5 121.36h-73.59a7.14 7.14 0 0 1 -6.82-9.28c5.15-16.32 17.91-46.84 37.41-29.58 0 0-1-54 24-38 0 0 26-55 58 7v69z" fill="#00e0a7"/><circle cx="95.98" cy="115.74" r="17.26"/><circle cx="97.04" cy="115.74" fill="#776bff" r="13.64"/><path d="m97.07 80c4.49-6.52 13-8.89 17.12-9.68a2.33 2.33 0 0 1 2.74 1.89c.73 4.09 1.57 12.92-2.92 19.45s-13 8.89-17.11 9.68a2.34 2.34 0 0 1 -2.75-1.89c-.72-4.14-1.57-12.98 2.92-19.45z" fill="#cd1580"/><path d="m99.6 95.45 11.57-16.82 1.65-2.41c.43-.62-.58-1.2-1-.59l-11.57 16.82-1.66 2.41c-.43.62.58 1.2 1 .59z" fill="#4e1ceb"/><path d="m105.67 97.79-10.09-6.94-1.44-1a1.18 1.18 0 0 0 -1.6.41 1.19 1.19 0 0 0 .42 1.6l10.09 6.94 1.44 1a1.17 1.17 0 1 0 1.18-2z" fill="#4e1ceb"/><path d="m118.46 79.21-10.09-6.95-1.45-1a1.18 1.18 0 0 0 -1.6.42 1.2 1.2 0 0 0 .42 1.6l10.09 6.94 1.45 1a1.16 1.16 0 0 0 1.59-.42 1.18 1.18 0 0 0 -.41-1.59z" fill="#4e1ceb"/><path d="m107.54 85.85-2.54-1.73-.36-.24a.78.78 0 0 0 -1.07.28.8.8 0 0 0 .28 1.07l2.54 1.77.36.25a.78.78 0 0 0 .79-1.35z" fill="#4e1ceb"/><path d="m105.55 88.73-2.55-1.73-.36-.25a.78.78 0 0 0 -.79 1.35l2.51 1.73.36.24a.78.78 0 0 0 1.07-.28.8.8 0 0 0 -.28-1.07z" fill="#4e1ceb"/><path d="m109.52 83-2.52-1.76-.36-.25a.79.79 0 0 0 -1.07.28.8.8 0 0 0 .28 1.07l2.51 1.73.36.25a.78.78 0 0 0 .79-1.35z" fill="#4e1ceb"/><circle cx="104" cy="115.86" fill="#ebf0f7" r="17.26"/><circle cx="111.59" cy="120.48" r="3.97"/><circle cx="104.41" cy="105.3" r="3.97"/><circle cx="96.4" cy="111.24" r="3.97"/><circle cx="111.59" cy="111.24" r="3.97"/><circle cx="104.41" cy="126.42" r="3.97"/><circle cx="96.4" cy="120.48" r="3.97"/><circle cx="104" cy="115.86" fill="#270813" r="1.31"/><path d="m86.09 134.74h33.69v3.16h-33.69z" fill="#6045ff"/><path d="m94.9 133.68v5.27" fill="none" stroke="#000" stroke-miterlimit="10" stroke-width="1.05"/><path d="m100.37 133.68v5.27" fill="none" stroke="#000" stroke-miterlimit="10" stroke-width="1.05"/><path d="m89.42 133.68v5.27" fill="none" stroke="#000" stroke-miterlimit="10" stroke-width="1.05"/><path d="m111.32 133.68v5.27" fill="none" stroke="#000" stroke-miterlimit="10" stroke-width="1.05"/><path d="m105.85 133.68v5.27" fill="none" stroke="#000" stroke-miterlimit="10" stroke-width="1.05"/><path d="m116.8 133.68v5.27" fill="none" stroke="#000" stroke-miterlimit="10" stroke-width="1.05"/><path d="m82.05 137.89h42.11v2.11h-42.11z" fill="#ebf0f7"/><path d="m82.05 132.63h42.11v2.11h-42.11z" fill="#ebf0f7"/><path d="m186.11 5h-23.11v12h18.61a3.3 3.3 0 0 0 3-2l3.19-7.36a1.88 1.88 0 0 0 -1.69-2.64z" fill="#cd1580"/><path d="m165.25 24v-19a3 3 0 0 0 -6 0v19a3 3 0 0 0 6 0z"/><path d="m255.5 23.5h-93l-45 31v86h138z" fill="url(#b)"/><path d="m256 23.5h-93.5l2.5 5 53 30 38 1z" fill="#6045ff"/><path d="m167 102h51v8h-51z" fill="#fff"/><path d="m167 102c0-19 34-19 34-19a23.26 23.26 0 0 1 17-8.26v27.26z" fill="#ff87ff"/><path d="m185.34 102c-.34 0 13.66-16.62 32.66-16.62v4.22s-10 .4-17.2 12.4z"/><path d="m197.44 74.29c3.16 3.08 2.93 8.45 2.93 8.45s-5.37.36-8.52-2.74-3.76-6.17-2.22-7.75 4.64-1.05 7.81 2.04z" fill="none" stroke="#fff" stroke-miterlimit="10"/><path d="m205 75.91a16.77 16.77 0 0 1 -3.71 7 .22.22 0 0 1 -.38-.09 16.77 16.77 0 0 1 -.28-7.93c1-4.3 2.54-6.59 3.75-6.32s1.62 3.03.62 7.34z" fill="none" stroke="#fff" stroke-miterlimit="10"/><path d="m201 82.62c-7.68 0-15.32-3.26-19-10.3a10.63 10.63 0 0 1 -.64-1.42c-.15-.45-.88-.26-.72.2 1.69 5 6.49 9 11.3 10.75a26.1 26.1 0 0 0 9.06 1.53.38.38 0 0 0 0-.76z" fill="#fff"/><path d="m183.32 93.19a24.7 24.7 0 0 1 4.67-4.8 21 21 0 0 1 13-5 .38.38 0 0 0 0-.76c-7.16.06-14.24 4.38-18.32 10.19-.28.4.37.77.64.38z" fill="#fff"/><path d="m117.5 109.5h100v31h-100z" fill="#776bff"/><path d="m162.5 23.5-54.12 30.5a1.69 1.69 0 0 0 -.88 1.5v4.5a1.47 1.47 0 0 0 2.19 1.28l52.81-29.78 55 31v-8z" fill="#776bff"/><path d="m111.89 60s48.61.47 50.61-28.53z" fill="#fff"/><path d="m162.44 31.5 50.62 28.5s-48.62.47-50.62-28.53" fill="#fff"/><path d="m217.5 54.5h38.5v8h-38.5z" fill="#4e1ceb"/><path d="m44.39 40.12a12.56 12.56 0 0 1 -11-22 18.53 18.53 0 0 0 -2.83.46 18 18 0 1 0 22.17 14.57 12.52 12.52 0 0 1 -8.34 6.97z" fill="#fff"/><path d="m217.5 62h38.5v79h-38.5z" fill="#776bff"/><path d="m256 80.85c-12.7 2.53-13.5 16.65-13.5 16.65-20-4-20 20-20 20l.78 26h32.72z" fill="#00e0a7"/><path d="m244.5 141v-19.5l-10.75-7.44-3.25-2.56v29z" fill="#cd1580"/><path d="m192.91 109.57h41v31h-41z" fill="#fa4e89"/><path d="m197.41 113.57h32v23h-32z"/><path d="m74.5 140h181.5a0 0 0 0 1 0 0v7a0 0 0 0 1 0 0h-181.5a3.5 3.5 0 0 1 -3.5-3.5 3.5 3.5 0 0 1 3.5-3.5z" fill="#4e1ceb"/><g fill="#fff"><path d="m143 72.66-4.24 1.49a1.11 1.11 0 0 0 0 2.09l4.24 1.49a1.09 1.09 0 0 1 .68.68l1.49 4.24a1.11 1.11 0 0 0 2.09 0l1.49-4.24a1.09 1.09 0 0 1 .68-.68l4.24-1.49a1.11 1.11 0 0 0 0-2.09l-4.24-1.49a1.09 1.09 0 0 1 -.68-.68l-1.49-4.24a1.11 1.11 0 0 0 -2.09 0l-1.53 4.26a1.09 1.09 0 0 1 -.64.66z"/><path d="m156.36 86.93-1.77-.85a.49.49 0 0 0 -.65.65l.85 1.77a.45.45 0 0 1 0 .42l-.85 1.77a.48.48 0 0 0 .65.64l1.77-.85a.51.51 0 0 1 .42 0l1.77.85a.48.48 0 0 0 .65-.64l-.86-1.77a.51.51 0 0 1 0-.42l.86-1.77a.49.49 0 0 0 -.65-.65l-1.77.85a.45.45 0 0 1 -.42 0z"/><rect height="3.79" rx="1.26" width="2.52" x="167" y="53"/><rect height="3.79" rx="1.26" width="2.52" x="167" y="63.1"/><rect height="2.52" rx="1.26" width="3.79" x="171.42" y="58.68"/><rect height="2.52" rx="1.26" width="3.79" x="161.32" y="58.68"/><rect height="3.79" rx="1.26" width="2.52" x="167" y="53"/><rect height="3.79" rx="1.26" width="2.52" x="167" y="63.1"/><rect height="2.52" rx="1.26" width="3.79" x="171.42" y="58.68"/><rect height="2.52" rx="1.26" width="3.79" x="161.32" y="58.68"/></g><path d="m159.3 97.11a3.05 3.05 0 0 0 -3.69 2.09l-3.38 9.33-2.88 8h-15.82l1.68-4.64c1.37-3.78 3-7.55 4.12-11.4l.06-.16a3 3 0 0 0 -5.78-1.6l-3.38 9.27-8.1 22.41q-4.93 13.62-9.86 27.25-4.23 11.72-8.48 23.45c-1.06 2.94-3.27 7.88-4.29 10.86h6.5c.42-1.17 1.84-4.33 2.26-5.5h15.74c-.45 1.16-1.88 4.33-2.29 5.5h6.46c.54-1.51 2.09-5 2.64-6.53l8.1-22.41q4.94-13.62 9.86-27.25 4.23-11.72 8.48-23.45c1.37-3.78 3-7.55 4.12-11.4l.06-.16a3 3 0 0 0 -2.13-3.66zm-33.1 83.39h-15.82c.85-2.33 1.69-4.67 2.54-7h15.81c-.84 2.33-1.68 4.67-2.53 7zm4.7-13h-15.81c.59-1.65 1.19-3.3 1.78-4.94l.75-2.06h15.82c-.85 2.33-1.69 4.67-2.54 7zm4.71-13h-15.82q1.08-3 2.17-6h15.82q-1.09 3-2.17 6zm4.34-12h-15.82l2.53-7h15.82c-.85 2.33-1.69 4.67-2.48 7zm4.7-13h-15.82l2.53-7h15.82z"/><path d="m163 22h93v3h-93z" fill="#4e1ceb"/><path d="m160 22h4.41a1.79 1.79 0 0 1 1.79 1.79v6.21a0 0 0 0 1 0 0h-8a0 0 0 0 1 0 0v-6.21a1.79 1.79 0 0 1 1.8-1.79z" fill="#776bff"/><path d="m161 33.5a24.6 24.6 0 0 1 -9.51 19.31 42.13 42.13 0 0 1 -14.89 7.4 32.4 32.4 0 0 1 -3.5.84c-1.9.33-1.09 3.22.8 2.9a45.18 45.18 0 0 0 10.31-3.34c6.42-2.83 12.43-7.18 16.09-13.28a27.18 27.18 0 0 0 3.7-13.83 1.5 1.5 0 0 0 -3 0z" fill="#fff"/><g opacity=".2"><path d="m217.5 113.57-20.09 17.71v5.22h7.59l24.45-22v-1z" fill="#ebf0f7"/><path d="m209.65 136.57 19.8-18.46v2.82l-16.71 15.64z" fill="#ebf0f7"/><g fill="#fff"><path d="m217.5 113.57-20.09 17.71v5.22h7.59l24.45-22v-1z" opacity=".2"/><path d="m209.65 136.57 19.8-18.46v2.82l-16.71 15.64z" opacity=".2"/></g></g></svg>