<svg height="251" viewBox="-30 0 357 251" width="357" fill="none" xmlns="http://www.w3.org/2000/svg">
    <path d="M301.216 14.0266C301.216 6.27412 294.981 0 287.277 0H272.747C265.043 0 258.809 6.27412 258.809 14.0266C258.809 15.5771 257.554 16.8392 256.014 16.8392H251.66C245.049 16.8211 239.71 22.2118 239.71 28.8465H258.826H301.234H320.332C320.332 23.528 316.05 19.237 310.783 19.237H306.412C303.545 19.237 301.216 16.8933 301.216 14.0266Z" fill="white" fill-opacity="0.1"/>
    <path d="M239.769 45.8293H199.827C199.827 41.7282 203.121 38.397 207.176 38.397H211.414C212.116 38.397 212.687 37.8196 212.687 37.109C212.687 32.1195 216.684 28.0776 221.617 28.0776H221.968C226.901 28.0776 230.898 32.1195 230.898 37.109V39.8183C230.898 41.2397 232.04 42.4093 233.459 42.4093H236.373C238.246 42.3945 239.769 43.9343 239.769 45.8293Z" fill="white" fill-opacity="0.15"/>
    <path d="M46.8362 163.379H111.926C111.926 157.569 107.189 152.85 101.357 152.85C95.5248 152.85 91.117 152.85 91.117 152.85C90.1064 152.85 89.2853 152.032 89.2853 151.025C89.2853 143.957 83.5376 138.231 76.4424 138.231H75.9371C68.842 138.231 63.0943 143.957 63.0943 151.025V154.864C63.0943 156.877 61.4521 158.534 59.4098 158.534C57.3676 158.534 51.7207 158.534 51.7207 158.534C49.0258 158.513 46.8362 160.694 46.8362 163.379Z" fill="white" fill-opacity="0.15"/>
    <path d="M141.512 170.776H120.802C120.802 168.896 122.363 167.369 124.285 167.369H128.07C128.403 167.369 128.673 167.105 128.673 166.779C128.673 164.492 130.568 162.64 132.907 162.64H133.073C135.412 162.64 137.306 164.492 137.306 166.779V168.021C137.306 168.672 137.848 169.208 138.521 169.208H139.902C140.79 169.202 141.512 169.907 141.512 170.776Z" fill="white" fill-opacity="0.05"/>
    <path d="M357.421 251H242.61C242.61 240.733 250.966 232.392 261.253 232.392H285.487C287.27 232.392 288.718 230.947 288.718 229.168C288.718 216.676 298.856 206.557 311.372 206.557H312.263C324.778 206.557 334.916 216.676 334.916 229.168V235.951C334.916 239.509 337.813 242.438 341.415 242.438H348.806C353.559 242.401 357.421 246.255 357.421 251Z" fill="white" fill-opacity="0.05"/>
    <path d="M0 250.924H76.1844C76.1844 244.602 69.902 239.466 62.1677 239.466H54.0844C52.7441 239.466 51.6552 238.576 51.6552 237.48C51.6552 229.788 44.0326 223.557 34.6229 223.557H33.9528C24.5432 223.557 16.9206 229.788 16.9206 237.48V241.657C16.9206 243.848 14.7427 245.652 12.0343 245.652H6.47784C2.90386 245.629 0 248.003 0 250.924Z" fill="white" fill-opacity="0.05"/>
    <path d="M270.3 180.1C270.534 180.105 270.762 180.027 270.945 179.881C271.128 179.735 271.253 179.529 271.3 179.3L277.8 147.3C277.829 147.168 277.831 147.032 277.806 146.9C277.782 146.768 277.73 146.642 277.656 146.53C277.581 146.417 277.484 146.322 277.372 146.248C277.259 146.174 277.133 146.124 277 146.1C276.869 146.071 276.733 146.069 276.6 146.094C276.468 146.118 276.342 146.17 276.23 146.244C276.118 146.319 276.022 146.416 275.948 146.528C275.874 146.641 275.824 146.767 275.8 146.9L269.3 178.9C269.267 179.163 269.329 179.429 269.476 179.649C269.623 179.87 269.845 180.03 270.1 180.1H270.3Z" fill="#DAE2ED"/>
    <path d="M191.8 130.8H211.1C223.2 130.8 229.1 125 229.1 125V150.2H217C215.9 143.9 210.4 141.1 203.7 141.1H191.9C191.165 141.21 190.414 141.161 189.7 140.956C188.985 140.751 188.322 140.395 187.757 139.912C187.191 139.43 186.736 138.831 186.421 138.158C186.107 137.484 185.94 136.751 185.933 136.007C185.926 135.264 186.078 134.528 186.379 133.848C186.681 133.168 187.125 132.561 187.681 132.068C188.237 131.574 188.892 131.206 189.603 130.987C190.313 130.768 191.063 130.705 191.8 130.8V130.8Z" fill="#80A7FF"/>
    <path d="M207.1 182.8H211.8C212.384 182.8 212.943 183.032 213.356 183.444C213.768 183.857 214 184.416 214 185V194.8C214.026 196.092 214.55 197.323 215.464 198.236C216.377 199.15 217.609 199.674 218.9 199.7C220.192 199.674 221.423 199.15 222.337 198.236C223.25 197.323 223.774 196.092 223.8 194.8V153.6C223.774 152.159 223.183 150.785 222.154 149.775C221.126 148.765 219.742 148.2 218.3 148.2H201.7C200.268 148.2 198.894 148.769 197.882 149.782C196.869 150.794 196.3 152.168 196.3 153.6V171.9C196.287 173.327 196.556 174.742 197.093 176.064C197.63 177.386 198.424 178.588 199.428 179.601C200.432 180.615 201.627 181.419 202.944 181.968C204.261 182.517 205.673 182.8 207.1 182.8V182.8Z" fill="#80A7FF"/>
    <path d="M200.9 134.8C203.103 131.771 205.991 129.305 209.327 127.602C212.663 125.899 216.354 125.007 220.1 125H252.2C255.993 125 259.63 126.507 262.312 129.188C264.994 131.87 266.5 135.507 266.5 139.3V165.5C266.5 168.029 265.503 170.456 263.724 172.253C261.945 174.051 259.529 175.074 257 175.1H210.5C206.725 175.074 203.113 173.555 200.453 170.876C197.793 168.198 196.3 164.575 196.3 160.8V148.8C196.293 143.761 197.905 138.853 200.9 134.8V134.8Z" fill="#9CB8FF"/>
    <path fill-rule="evenodd" clip-rule="evenodd" d="M163.4 246.5C172.461 250.658 182.552 252.035 192.396 250.458C202.239 248.88 211.394 244.418 218.702 237.637C226.01 230.856 231.143 222.06 233.451 212.361C235.759 202.663 235.139 192.497 231.669 183.151C228.199 173.805 222.035 165.698 213.957 159.855C205.88 154.012 196.25 150.697 186.288 150.327C176.325 149.958 166.477 152.551 157.988 157.78C149.5 163.008 142.753 170.637 138.6 179.7C133.089 191.855 132.603 205.694 137.248 218.205C141.893 230.717 151.293 240.886 163.4 246.5V246.5Z" fill="#4F5D7F"/>
    <path fill-rule="evenodd" clip-rule="evenodd" d="M237 210.5H253.4C254.072 210.474 254.708 210.189 255.174 209.704C255.64 209.219 255.901 208.573 255.9 207.9V199.1C255.9 198.437 255.637 197.801 255.168 197.332C254.699 196.863 254.063 196.6 253.4 196.6H237C236.337 196.6 235.701 196.863 235.232 197.332C234.764 197.801 234.5 198.437 234.5 199.1V207.9C234.5 208.573 234.76 209.219 235.226 209.704C235.692 210.189 236.328 210.474 237 210.5V210.5Z" fill="#FF5C5C"/>
    <path fill-rule="evenodd" clip-rule="evenodd" d="M204.9 215.5H244.3C246.316 215.5 248.249 214.699 249.674 213.274C251.099 211.849 251.9 209.916 251.9 207.9V194.5C251.874 193.297 251.378 192.153 250.518 191.312C249.658 190.471 248.503 190 247.3 190H204.9V215.5Z" fill="#B7C2CE"/>
    <path fill-rule="evenodd" clip-rule="evenodd" d="M268.1 188.7H261.2C257.38 188.702 253.714 190.211 251 192.9L247.8 196.2C242.664 201.293 235.733 204.165 228.5 204.2H200.8V183.2H268.1V188.7Z" fill="black"/>
    <path d="M269.9 175.1H206.1V188.7H269.9C271.704 188.7 273.433 187.984 274.708 186.708C275.984 185.433 276.7 183.703 276.7 181.9V181.9C276.7 180.097 275.984 178.367 274.708 177.092C273.433 175.816 271.704 175.1 269.9 175.1V175.1Z" fill="black"/>
    <path fill-rule="evenodd" clip-rule="evenodd" d="M170.8 230.5C176.696 233.22 183.266 234.129 189.679 233.112C196.092 232.094 202.059 229.196 206.823 224.785C211.588 220.374 214.936 214.648 216.444 208.333C217.951 202.017 217.551 195.396 215.292 189.309C213.034 183.221 209.02 177.941 203.758 174.136C198.496 170.332 192.224 168.175 185.735 167.938C179.246 167.702 172.833 169.397 167.308 172.808C161.784 176.219 157.396 181.193 154.7 187.1C151.126 194.996 150.812 203.984 153.826 212.11C156.841 220.237 162.941 226.845 170.8 230.5V230.5Z" fill="#7687B2"/>
    <path d="M238.9 171.9V145.9C238.9 144.2 239.7 133.8 240.9 125H252.2C255.851 125.018 259.359 126.423 262.013 128.929C264.668 131.435 266.272 134.856 266.5 138.5V194.8C266.475 196.092 265.95 197.323 265.037 198.237C264.123 199.15 262.892 199.674 261.6 199.7C260.309 199.674 259.077 199.15 258.164 198.237C257.25 197.323 256.726 196.092 256.7 194.8V185C256.7 184.417 256.468 183.857 256.056 183.444C255.643 183.032 255.084 182.8 254.5 182.8H249.8C246.909 182.8 244.137 181.652 242.093 179.607C240.049 177.563 238.9 174.791 238.9 171.9V171.9Z" fill="#80A7FF"/>
    <path d="M180.3 171.1L194 137.3H190.3C190.147 137.314 189.994 137.296 189.848 137.247C189.703 137.198 189.57 137.119 189.457 137.015C189.344 136.912 189.254 136.786 189.192 136.645C189.131 136.505 189.099 136.353 189.1 136.2C189.1 136.042 189.131 135.886 189.191 135.741C189.252 135.595 189.34 135.463 189.452 135.351C189.563 135.24 189.695 135.152 189.841 135.091C189.986 135.031 190.143 135 190.3 135H217.9C218.218 135 218.524 135.126 218.749 135.351C218.974 135.577 219.1 135.882 219.1 136.2C219.075 136.501 218.938 136.781 218.715 136.985C218.493 137.188 218.202 137.301 217.9 137.3H198.3C197.761 137.302 197.235 137.464 196.79 137.767C196.344 138.07 196 138.5 195.8 139L182.5 172C182.415 172.219 182.263 172.405 182.065 172.531C181.867 172.656 181.634 172.716 181.4 172.7H181C180.699 172.547 180.454 172.301 180.3 172C180.201 171.708 180.201 171.392 180.3 171.1V171.1Z" fill="#EBEFF7"/>
    <path d="M213.7 130.8H233.1C233.857 130.8 234.607 130.649 235.305 130.357C236.003 130.064 236.636 129.635 237.166 129.095C237.697 128.555 238.115 127.915 238.395 127.212C238.676 126.509 238.813 125.757 238.8 125H251V150.2H238.9C237.8 143.9 232.3 141.1 225.6 141.1H213.9C213.166 141.216 212.416 141.173 211.7 140.975C210.984 140.777 210.318 140.427 209.749 139.95C209.179 139.473 208.718 138.879 208.398 138.209C208.077 137.539 207.903 136.808 207.889 136.065C207.874 135.322 208.019 134.584 208.314 133.902C208.609 133.22 209.046 132.609 209.597 132.11C210.147 131.611 210.798 131.236 211.506 131.01C212.214 130.784 212.962 130.713 213.7 130.8V130.8Z" fill="#80A7FF"/>
    <path fill-rule="evenodd" clip-rule="evenodd" d="M254.9 125.3H213.5C209.937 125.3 206.518 123.891 203.989 121.381C201.461 118.871 200.027 115.463 200 111.9V87.1C200.027 83.5369 201.461 80.1287 203.989 77.6186C206.518 75.1084 209.937 73.6999 213.5 73.7H254.9C258.463 73.6999 261.882 75.1084 264.411 77.6186C266.94 80.1287 268.374 83.5369 268.4 87.1V111.9C268.374 115.463 266.94 118.871 264.411 121.381C261.882 123.891 258.463 125.3 254.9 125.3V125.3Z" fill="#80A7FF"/>
    <path fill-rule="evenodd" clip-rule="evenodd" d="M246.2 125.3H204.7C201.146 125.3 197.738 123.888 195.225 121.375C192.712 118.862 191.3 115.454 191.3 111.9V87.1C191.3 83.546 192.712 80.1377 195.225 77.6247C197.738 75.1117 201.146 73.7 204.7 73.7H246.2C249.763 73.6999 253.182 75.1084 255.711 77.6186C258.24 80.1287 259.674 83.5369 259.7 87.1V111.9C259.674 115.463 258.24 118.871 255.711 121.381C253.182 123.891 249.763 125.3 246.2 125.3V125.3Z" fill="#9CB8FF"/>
    <path fill-rule="evenodd" clip-rule="evenodd" d="M264.4 108.8H254.5V84.7H264.4C265.577 84.6999 266.743 84.9334 267.829 85.3869C268.916 85.8404 269.901 86.5049 270.729 87.342C271.557 88.179 272.21 89.172 272.652 90.2634C273.093 91.3547 273.313 92.5228 273.3 93.7V99.9C273.3 102.26 272.362 104.524 270.693 106.193C269.024 107.862 266.761 108.8 264.4 108.8Z" fill="#9CB8FF"/>
    <path fill-rule="evenodd" clip-rule="evenodd" d="M254.5 103.5V90.0999C254.5 89.8613 254.595 89.6323 254.764 89.4636C254.932 89.2948 255.161 89.2 255.4 89.2H264.4C265.576 89.2261 266.695 89.7117 267.518 90.5528C268.34 91.3939 268.8 92.5236 268.8 93.7V99.9C268.8 101.076 268.34 102.206 267.518 103.047C266.695 103.888 265.576 104.374 264.4 104.4H255.4C255.161 104.4 254.932 104.305 254.764 104.136C254.595 103.968 254.5 103.739 254.5 103.5V103.5Z" fill="#80A7FF"/>
    <path fill-rule="evenodd" clip-rule="evenodd" d="M238.9 101C238.03 101 237.179 100.742 236.456 100.258C235.732 99.7749 235.168 99.0878 234.835 98.2838C234.502 97.4798 234.415 96.5951 234.585 95.7416C234.754 94.888 235.173 94.104 235.789 93.4887C236.404 92.8733 237.188 92.4543 238.042 92.2845C238.895 92.1147 239.78 92.2019 240.584 92.5349C241.388 92.8679 242.075 93.4319 242.559 94.1554C243.042 94.879 243.3 95.7297 243.3 96.6C243.275 97.7589 242.803 98.8633 241.983 99.683C241.163 100.503 240.059 100.974 238.9 101V101Z" fill="black"/>
    <path fill-rule="evenodd" clip-rule="evenodd" d="M190.9 87.1H221.4C222.832 87.1 224.206 87.6689 225.218 88.6816C226.231 89.6943 226.8 91.0678 226.8 92.5V98.7C226.774 102.263 225.34 105.671 222.811 108.181C220.282 110.691 216.863 112.1 213.3 112.1H199C195.437 112.1 192.018 110.691 189.489 108.181C186.96 105.671 185.526 102.263 185.5 98.7V92.5C185.5 91.0678 186.069 89.6943 187.082 88.6816C188.094 87.6689 189.468 87.1 190.9 87.1V87.1Z" fill="#B8D0FF"/>
    <path fill-rule="evenodd" clip-rule="evenodd" d="M207.1 112.1H199C195.437 112.1 192.018 110.691 189.489 108.181C186.96 105.671 185.527 102.263 185.5 98.7V92.5C185.5 91.0678 186.069 89.6943 187.082 88.6816C188.094 87.6689 189.468 87.1 190.9 87.1H215.1C216.532 87.1 217.906 87.6689 218.918 88.6816C219.931 89.6943 220.5 91.0678 220.5 92.5V98.7C220.5 102.254 219.088 105.662 216.575 108.175C214.062 110.688 210.654 112.1 207.1 112.1V112.1Z" fill="#CBDAF7"/>
    <path fill-rule="evenodd" clip-rule="evenodd" d="M203.4 102H209.3C209.589 102 209.875 102.057 210.142 102.167C210.409 102.278 210.651 102.44 210.856 102.644C211.06 102.849 211.222 103.091 211.333 103.358C211.443 103.625 211.5 103.911 211.5 104.2C211.514 104.497 211.467 104.794 211.362 105.073C211.258 105.351 211.098 105.606 210.892 105.821C210.686 106.036 210.439 106.207 210.166 106.324C209.892 106.44 209.598 106.5 209.3 106.5H203.4C203.103 106.5 202.808 106.44 202.534 106.324C202.261 106.207 202.014 106.036 201.808 105.821C201.602 105.606 201.442 105.351 201.338 105.073C201.233 104.794 201.187 104.497 201.2 104.2C201.2 103.911 201.257 103.625 201.368 103.358C201.478 103.091 201.64 102.849 201.844 102.644C202.049 102.44 202.291 102.278 202.558 102.167C202.825 102.057 203.111 102 203.4 102V102ZM192.9 102H195.2C195.489 102 195.775 102.057 196.042 102.167C196.309 102.278 196.551 102.44 196.756 102.644C196.96 102.849 197.122 103.091 197.233 103.358C197.343 103.625 197.4 103.911 197.4 104.2C197.414 104.497 197.367 104.794 197.262 105.073C197.158 105.351 196.998 105.606 196.792 105.821C196.586 106.036 196.339 106.207 196.066 106.324C195.792 106.44 195.498 106.5 195.2 106.5H192.9C192.603 106.5 192.308 106.44 192.034 106.324C191.761 106.207 191.514 106.036 191.308 105.821C191.102 105.606 190.942 105.351 190.838 105.073C190.733 104.794 190.687 104.497 190.7 104.2C190.7 103.911 190.757 103.625 190.868 103.358C190.978 103.091 191.14 102.849 191.344 102.644C191.549 102.44 191.791 102.278 192.058 102.167C192.325 102.057 192.611 102 192.9 102V102Z" fill="#9CB8FF"/>
    <path fill-rule="evenodd" clip-rule="evenodd" d="M205.9 117.4H202.3C201.902 117.4 201.521 117.242 201.239 116.961C200.958 116.679 200.8 116.298 200.8 115.9C200.826 115.52 200.995 115.163 201.273 114.903C201.552 114.643 201.919 114.499 202.3 114.5H205.9C206.281 114.499 206.648 114.643 206.927 114.903C207.206 115.163 207.375 115.52 207.4 115.9C207.4 116.298 207.242 116.679 206.961 116.961C206.679 117.242 206.298 117.4 205.9 117.4Z" fill="#80A7FF"/>
    <path fill-rule="evenodd" clip-rule="evenodd" d="M232.2 59.1C232.2 59.1 248.4 94.9 251.6 102.9C256.1 114.5 275.5 113.1 275.5 96.6L232.2 59.1Z" fill="#D0D9EA"/>
    <path fill-rule="evenodd" clip-rule="evenodd" d="M194.6 73.1C194.6 73.1 205.8 57 235.4 57C265 57 278.7 78 278.7 94.5C278.7 111 259.3 112.4 254.7 100.8C251.6 92.8 245.9 80.1 245.9 80.1H194.6V73.1Z" fill="#EBEFF7"/>
    <path fill-rule="evenodd" clip-rule="evenodd" d="M214.6 71.7L206.9 71.4C206.9 71.4 211.8 61.3 228.4 57.3C230.6 57.1 232.9 57 235.4 57C237.471 56.9953 239.54 57.0954 241.6 57.3C234.1 58.2 221.8 61.3 214.6 71.7Z" fill="#D0D9EA"/>
    <path fill-rule="evenodd" clip-rule="evenodd" d="M245.9 80.1H175.6C175.6 80.1 186.5 70.7 210.4 71C234.3 71.3 245.9 80.1 245.9 80.1Z" fill="black"/>
    <path fill-rule="evenodd" clip-rule="evenodd" d="M262.9 93.3C263.3 97.2 266.4 100 269.7 99.6C273 99.2 275.2 95.8 274.8 91.9C274.4 88 271.2 85.1 267.9 85.5C264.6 85.9 262.4 89.4 262.9 93.3Z" fill="#D0D9EA"/>
    <path fill-rule="evenodd" clip-rule="evenodd" d="M266.8 85.8C268 86.3477 269.036 87.1981 269.808 88.2676C270.579 89.3371 271.059 90.5889 271.2 91.9001C271.6 95.3001 269.9 98.4001 267.3 99.4001C266.082 98.8783 265.029 98.0349 264.254 96.9603C263.479 95.8857 263.011 94.6204 262.9 93.3C262.4 89.9 264.1 86.8 266.8 85.8Z" fill="#7687B2"/>
    <path fill-rule="evenodd" clip-rule="evenodd" d="M140.4 172.9C142.7 180.3 167.7 192 183.5 198C195.2 194.4 223.8 184 228.4 175.2C228.885 174.463 229.064 173.567 228.9 172.7L228.5 171.8C219.8 158.7 206.7 150.3 191.6 148.2C172.5 145.6 153.5 154.1 140.7 170.9C140.501 171.188 140.37 171.519 140.318 171.865C140.267 172.212 140.294 172.566 140.4 172.9V172.9Z" fill="#FF7F14"/>
    <path fill-rule="evenodd" clip-rule="evenodd" d="M183.4 200.6C183.4 200.6 220.8 158.3 214.3 154.1C207.537 149.696 199.891 146.829 191.9 145.7C170.4 142.8 151 153.2 138.7 169.4C130 180.9 183.4 200.6 183.4 200.6Z" fill="#FF903E"/>
    <path fill-rule="evenodd" clip-rule="evenodd" d="M143.9 163.5C143.86 165.843 144.678 168.119 146.2 169.9C153.8 179.9 181.3 191.1 189.2 194.1C187.1 199.3 185.2 202.7 184.1 203.1L183.3 203.3L182.5 203C181.1 202.5 146.3 189.5 137.5 178C133.8 173.1 135.4 169.5 136.7 167.9C140.4 163 144.1 161.9 143.9 163.5Z" fill="#DAE2ED"/>
    <path fill-rule="evenodd" clip-rule="evenodd" d="M172.9 225.9C177.879 228.192 183.425 228.955 188.837 228.093C194.25 227.232 199.285 224.784 203.306 221.06C207.327 217.335 210.152 212.502 211.425 207.171C212.698 201.84 212.361 196.252 210.457 191.113C208.552 185.973 205.166 181.515 200.727 178.301C196.287 175.087 190.994 173.262 185.518 173.057C180.041 172.852 174.626 174.277 169.959 177.15C165.293 180.024 161.583 184.217 159.3 189.2C156.244 195.871 155.959 203.482 158.509 210.363C161.059 217.244 166.234 222.832 172.9 225.9V225.9Z" fill="#EBEFF7"/>
    <path fill-rule="evenodd" clip-rule="evenodd" d="M174.8 221.9C180.426 224.449 186.831 224.671 192.619 222.516C198.408 220.362 203.11 216.007 205.7 210.4C207.614 206.209 208.244 201.545 207.508 196.997C206.772 192.449 204.705 188.222 201.567 184.848C198.429 181.475 194.361 179.108 189.878 178.046C185.395 176.984 180.698 177.275 176.38 178.881C172.062 180.488 168.318 183.339 165.62 187.074C162.922 190.809 161.392 195.259 161.223 199.863C161.053 204.467 162.253 209.018 164.67 212.94C167.087 216.863 170.612 219.981 174.8 221.9V221.9Z" fill="#DAE2ED"/>
    <path fill-rule="evenodd" clip-rule="evenodd" d="M174.4 187L167.1 199.7C166.859 200.072 166.731 200.506 166.731 200.95C166.731 201.394 166.859 201.828 167.1 202.2L174.4 214.9C174.624 215.288 174.944 215.611 175.329 215.839C175.715 216.067 176.152 216.191 176.6 216.2H191.4C191.848 216.191 192.285 216.067 192.671 215.839C193.056 215.611 193.376 215.288 193.6 214.9L200.9 202.2C201.141 201.828 201.269 201.394 201.269 200.95C201.269 200.506 201.141 200.072 200.9 199.7L193.6 187C193.376 186.612 193.056 186.289 192.671 186.061C192.285 185.833 191.848 185.709 191.4 185.7H176.6C176.152 185.709 175.715 185.833 175.329 186.061C174.944 186.289 174.624 186.612 174.4 187V187Z" fill="#C5CEDD"/>
    <path d="M184.5 208.8C180.027 208.8 176.4 205.173 176.4 200.7C176.4 196.226 180.027 192.6 184.5 192.6C188.974 192.6 192.6 196.226 192.6 200.7C192.6 205.173 188.974 208.8 184.5 208.8Z" fill="white"/>
    <path d="M277.6 148.2C283.9 146.6 285.5 151.7 295.1 152.2C286.1 157.7 284.4 154.4 275.2 160.3L277.6 148.2Z" fill="#FF903E"/>
    <path d="M184.5 251.1H229.3C231.961 251.074 234.505 249.998 236.377 248.107C238.25 246.215 239.3 243.661 239.3 241V241C239.3 238.348 238.246 235.804 236.371 233.929C234.496 232.054 231.952 231 229.3 231H223.6C221.006 230.982 218.434 231.476 216.032 232.454C213.629 233.432 211.443 234.875 209.6 236.7L207.2 239.2C204.023 242.321 199.753 244.079 195.3 244.1H191.5C189.644 244.1 187.863 244.838 186.55 246.15C185.238 247.463 184.5 249.243 184.5 251.1V251.1Z" fill="#EBEFF7"/>
    <path d="M244.7 231H257.1C258.702 231 260 232.298 260 233.9V233.99C260 235.592 258.702 236.89 257.1 236.89H244.7C243.098 236.89 241.8 235.592 241.8 233.99V233.9C241.8 232.298 243.098 231 244.7 231Z" fill="#EBEFF7"/>
    <path d="M231.1 245.7H240.9C242.391 245.7 243.6 246.9 243.6 248.38C243.6 249.86 242.391 251.06 240.9 251.06H231.1C229.609 251.06 228.4 249.86 228.4 248.38C228.4 246.9 229.609 245.7 231.1 245.7Z" fill="#EBEFF7"/>
</svg>
