<svg xmlns="http://www.w3.org/2000/svg" width="171" height="86" viewBox="0 0 171 86">
  <g fill="none" fill-rule="evenodd">
    <path fill="#F6F6F7" d="M46.107,43.7821 C46.107,45.6821 44.553,47.2361 42.653,47.2361 L42.308,47.2361 C40.408,47.2361 38.854,45.6821 38.854,43.7821 L38.854,43.4371 C38.854,41.5371 40.408,39.9831 42.308,39.9831 L42.653,39.9831 C44.553,39.9831 46.107,41.5371 46.107,43.4371 L46.107,43.7821 Z M86.518,62.5981 L69.939,62.5981 C60.818,62.5981 53.397,55.1781 53.397,46.0561 L53.397,39.3211 C53.397,35.3421 56.634,32.1041 60.614,32.1041 L77.711,32.1041 C78.263,32.1041 78.711,32.5521 78.711,33.1041 L89.019,33.1041 C89.019,32.5521 89.466,32.1041 90.019,32.1041 L94.393,32.1041 C94.135,24.3091 87.731,18.0441 79.875,18.0441 L30.657,18.0441 C25.53,18.0441 21.025,20.7171 18.435,24.7361 L21.122,24.7361 C21.674,24.7361 22.122,25.1831 22.122,25.7361 C22.122,26.2881 21.674,26.7361 21.122,26.7361 L15.664,26.7361 L15.664,29.9161 L21.122,29.9161 C21.674,29.9161 22.122,30.3641 22.122,30.9161 C22.122,31.4691 21.674,31.9161 21.122,31.9161 L21.115,31.9161 C21.115,31.9291 21.122,31.9401 21.122,31.9531 L21.122,47.4951 C21.122,48.0671 20.658,48.5311 20.086,48.5311 L16.941,48.5311 C16.941,49.0831 16.493,49.5311 15.941,49.5311 L15.664,49.5311 L15.664,52.7121 L21.122,52.7121 C21.674,52.7121 22.122,53.1591 22.122,53.7121 C22.122,54.2641 21.674,54.7121 21.122,54.7121 L16.114,54.7121 L16.114,62.6351 C16.114,70.6531 22.638,77.1771 30.657,77.1771 L42.481,77.1771 C43.033,77.1771 43.481,77.6251 43.481,78.1771 C43.481,78.7291 43.033,79.1771 42.481,79.1771 L36.477,79.1771 C42.225,82.2511 48.783,84.0001 55.744,84.0001 C60.736,84.0001 65.612,83.1141 70.238,81.3651 C71.897,80.7381 73.496,80.0021 75.035,79.1771 L57.188,79.1771 C56.635,79.1771 56.188,78.7291 56.188,78.1771 C56.188,77.6251 56.635,77.1771 57.188,77.1771 L79.875,77.1771 C87.893,77.1771 94.417,70.6531 94.417,62.6351 L94.417,60.5861 C92.068,61.8681 89.377,62.5981 86.518,62.5981 Z"/>
    <path fill="#DCDDDE" d="M31.6026,16.9784 L32.0626,16.9784 L32.0626,78.3344 L31.6026,78.3344 C22.8586,78.3344 15.7706,71.2464 15.7706,62.5024 L15.7706,32.8104 C15.7706,24.0664 22.8586,16.9784 31.6026,16.9784"/>
    <path fill="#F6F6F7" d="M11.8321,62.5517 L33.6931,62.5517 L33.6931,34.6347 L11.8321,34.6347 C5.8761,34.6347 1.0481,39.4637 1.0481,45.4187 L1.0481,51.7677 C1.0481,57.7227 5.8761,62.5517 11.8321,62.5517"/>
    <path fill="#F6F6F7" d="M35.8546,16.9784 L36.3146,16.9784 L36.3146,78.3344 L35.8546,78.3344 C27.1106,78.3344 20.0226,71.2464 20.0226,62.5024 L20.0226,32.8104 C20.0226,24.0664 27.1106,16.9784 35.8546,16.9784"/>
    <path fill="#DCDDDE" d="M132.7501 46.7646C132.3231 46.8466 131.9881 47.1816 131.9351 47.6136L131.5001 51.1536C131.4391 51.6506 131.0181 52.0236 130.5181 52.0236L124.7151 52.0236C124.1871 52.0236 123.7531 51.6106 123.7261 51.0836L123.2721 42.2416C123.2411 41.6176 123.7901 41.1136 124.4061 41.2116 125.6351 41.4086 126.6311 41.4086 127.1121 41.4086 135.9291 41.4086 136.2431 28.5606 126.9221 29.3796 125.2261 29.5436 123.5281 30.2806 122.1621 31.7936 121.8091 32.1856 121.2061 32.2216 120.8021 31.8816L116.6411 28.3666C116.2301 28.0196 116.1621 27.3976 116.5071 26.9856 120.0551 22.7556 124.3891 21.0666 128.4981 21.0666 145.3751 21.0666 148.6181 43.7456 132.7501 46.7646M132.0081 63.1586C131.9381 63.2966 131.8321 63.4236 131.7091 63.5176 127.4611 66.7616 122.8921 63.9476 122.8921 59.9586 122.8921 57.0616 125.0971 54.9826 127.8681 54.9826 131.5831 54.9826 134.2801 58.7216 132.0081 63.1586M167.5601 54.7586C171.8771 40.2896 167.9321 24.6746 157.2661 14.0086 149.5221 6.2646 139.2261 2.0006 128.2741 2.0006 117.3231 2.0006 107.0261 6.2646 99.2831 14.0086 96.9001 16.3906 94.8501 19.0166 93.1491 21.8276 95.0151 25.1176 96.4301 28.6246 97.3671 32.2686 100.6171 32.9706 103.0601 35.8646 103.0601 39.3216L103.0601 46.0566C103.0601 51.4636 100.4411 56.2576 96.4171 59.2786L96.4171 62.6346C96.4171 64.4236 96.1231 66.1436 95.5951 67.7586 96.7211 69.2376 97.9461 70.6546 99.2831 71.9916 108.0991 80.8076 120.2751 85.0976 132.6851 83.7636 133.2131 83.7066 133.7091 84.0926 133.7801 84.6306 136.6171 84.2576 139.4241 83.6036 142.1521 82.6506 141.9661 82.1376 142.2251 81.5686 142.7381 81.3756 148.2101 79.3166 153.0981 76.1596 157.2661 71.9916 157.6501 71.6076 158.2671 71.6056 158.6581 71.9776 163.1421 67.2796 166.3261 61.8026 168.2111 55.9916 167.6971 55.8236 167.4051 55.2796 167.5601 54.7586M79.2027 8.142C78.9057 8.607 78.2867 8.743 77.8217 8.445 71.2357 4.228 63.6007 2 55.7447 2 42.6887 2 31.0477 8.142 23.5337 17.679 25.6947 16.642 28.1037 16.044 30.6567 16.044L79.8747 16.044C84.1267 16.044 87.9967 17.671 90.9307 20.317 90.9707 20.283 92.0787 21.672 92.1247 21.643 92.3947 21.478 91.6257 20.038 91.9027 20.138 91.8937 20.124 91.8857 20.111 91.8777 20.099 88.6277 15.114 84.3507 10.867 79.3437 7.649 79.3357 7.819 79.3007 7.989 79.2027 8.142M12.5636 57.1684L19.1546 57.1684C20.1736 57.1684 21.0006 56.3414 21.0006 55.3224L21.0006 41.9854C21.0006 40.9664 20.1736 40.1394 19.1546 40.1394L12.5636 40.1394C9.5396 40.1394 7.0876 42.5914 7.0876 45.6154L7.0876 51.6924C7.0876 54.7164 9.5396 57.1684 12.5636 57.1684"/>
    <path fill="#F6F6F7" d="M91.3907,55.0531 L90.8727,55.0531 L90.2007,55.0531 C88.7757,55.0531 87.6097,53.8871 87.6097,52.4631 C87.6097,51.0381 88.7757,49.8721 90.2007,49.8721 L90.8727,49.8721 L91.3907,49.8721 L92.7637,49.8721 C94.1877,49.8721 95.3537,51.0381 95.3537,52.4631 C95.3537,53.8871 94.1877,55.0531 92.7637,55.0531 L91.3907,55.0531 Z M82.8427,52.4631 C82.8427,53.8871 81.6767,55.0531 80.2517,55.0531 L78.3617,55.0531 L76.4717,55.0531 L73.8807,55.0531 C72.4557,55.0531 71.2907,53.8871 71.2907,52.4631 C71.2907,51.0381 72.4557,49.8721 73.8807,49.8721 L76.4717,49.8721 L78.3617,49.8721 L80.2517,49.8721 C81.6767,49.8721 82.8427,51.0381 82.8427,52.4631 Z M95.8437,34.1041 L90.0187,34.1041 C89.4667,34.1041 89.0187,33.6561 89.0187,33.1041 L78.7107,33.1041 C78.7107,33.6561 78.2627,34.1041 77.7107,34.1041 L60.6137,34.1041 C57.7377,34.1041 55.3967,36.4441 55.3967,39.3211 L55.3967,46.0561 C55.3967,54.0741 61.9207,60.5981 69.9387,60.5981 L86.5177,60.5981 C94.5367,60.5981 101.0597,54.0741 101.0597,46.0561 L101.0597,39.3211 C101.0597,36.4441 98.7197,34.1041 95.8437,34.1041 Z"/>
    <path fill="#FFFFFF" d="M95.8434,34.1039 L90.0184,34.1039 C89.4664,34.1039 89.0194,33.6559 89.0184,33.1039 L78.7104,33.1039 C78.7104,33.6559 78.2624,34.1039 77.7104,34.1039 L65.6144,34.1039 C62.7374,34.1039 60.3974,36.4439 60.3974,39.3209 L60.3974,46.0559 C60.3974,54.0749 66.9204,60.5989 74.9394,60.5989 L86.5174,60.5989 C94.5364,60.5989 101.0604,54.0749 101.0604,46.0559 L101.0604,39.3209 C101.0604,36.4439 98.7194,34.1039 95.8434,34.1039"/>
    <path fill="#DCDDDE" d="M80.2521 49.8725L78.3621 49.8725 76.4711 49.8725 73.8811 49.8725C72.4561 49.8725 71.2911 51.0385 71.2911 52.4625 71.2911 53.8875 72.4561 55.0535 73.8811 55.0535L76.4711 55.0535 78.3621 55.0535 80.2521 55.0535C81.6771 55.0535 82.8431 53.8875 82.8431 52.4625 82.8431 51.0385 81.6771 49.8725 80.2521 49.8725M95.3536 52.4628C95.3536 51.0378 94.1876 49.8728 92.7636 49.8728L91.3916 49.8728 90.8726 49.8728 90.2006 49.8728C88.7756 49.8728 87.6096 51.0378 87.6096 52.4628 87.6096 53.8878 88.7756 55.0528 90.2006 55.0528L90.8726 55.0528 91.3916 55.0528 92.7636 55.0528C94.1876 55.0528 95.3536 53.8878 95.3536 52.4628"/>
    <path fill="#B9BBBE" d="M101.0607 46.0561C101.0607 54.0871 94.5497 60.5981 86.5187 60.5981L69.9397 60.5981C61.9077 60.5981 55.3967 54.0871 55.3967 46.0561L55.3967 39.3211C55.3967 36.4401 57.7327 34.1041 60.6137 34.1041L77.7107 34.1041C78.2627 34.1041 78.7107 33.6561 78.7107 33.1041 78.7107 32.5521 78.2627 32.1041 77.7107 32.1041L60.6137 32.1041C56.6277 32.1041 53.3967 35.3351 53.3967 39.3211L53.3967 46.0561C53.3967 55.1921 60.8027 62.5981 69.9387 62.5981L86.5187 62.5981C88.6637 62.5981 90.7157 62.1871 92.5987 61.4401 93.4687 61.0941 94.4167 61.6981 94.4167 62.6351 94.4167 70.6661 87.9067 77.1771 79.8747 77.1771L57.1877 77.1771C56.6357 77.1771 56.1877 77.6241 56.1877 78.1771 56.1877 78.7291 56.6357 79.1771 57.1877 79.1771L72.5107 79.1771C73.1427 79.1771 73.3397 80.0421 72.7667 80.3061 71.9397 80.6861 71.0977 81.0401 70.2387 81.3651 65.6127 83.1131 60.7367 84.0001 55.7447 84.0001 49.4967 84.0001 43.5727 82.5911 38.2677 80.0791 37.8117 79.8641 37.9627 79.1771 38.4677 79.1771L42.4807 79.1771C43.0327 79.1771 43.4807 78.7291 43.4807 78.1771 43.4807 77.6241 43.0327 77.1771 42.4807 77.1771L30.6577 77.1771C24.3937 77.1771 19.0537 73.1931 17.0157 67.6271 16.2857 65.6341 17.7727 63.5191 19.8957 63.5191L21.1227 63.5191C21.6747 63.5191 22.1227 63.0721 22.1227 62.5191 22.1227 61.9671 21.6747 61.5191 21.1227 61.5191L11.3617 61.5191C6.1917 61.5191 1.9997 57.3281 1.9997 52.1581L1.9997 44.9051C1.9997 43.2321 2.4467 41.5911 3.2897 40.1591 4.1107 38.7671 5.2827 37.6041 6.6807 36.7961 8.0967 35.9761 9.7157 35.5431 11.3617 35.5431L21.1227 35.5431C21.6747 35.5431 22.1227 35.0951 22.1227 34.5431 22.1227 33.9911 21.6747 33.5431 21.1227 33.5431L17.0717 33.5431C16.5427 33.5431 16.1147 33.1151 16.1147 32.5861 16.1147 24.5541 22.6257 18.0431 30.6577 18.0431L79.8747 18.0431C86.8637 18.0431 92.7037 23.0021 94.0887 29.5851 94.3627 30.8841 93.3477 32.1041 92.0187 32.1041L90.0187 32.1041C89.4667 32.1041 89.0187 32.5521 89.0187 33.1041 89.0187 33.6561 89.4667 34.1041 90.0187 34.1041L95.8437 34.1041C98.7247 34.1041 101.0607 36.4401 101.0607 39.3211L101.0607 46.0561zM97.8687 12.5951C95.5687 14.8941 93.5737 17.4141 91.8777 20.0981 91.8857 20.1111 91.1227 20.2691 90.9317 20.3161 87.9977 17.6701 84.1277 16.0431 79.8747 16.0431L30.6577 16.0431C29.2457 16.0431 27.8777 16.2261 26.5707 16.5651 25.7297 16.7841 25.1417 15.7461 25.7337 15.1101 33.2237 7.0531 43.9017 2.0001 55.7447 2.0001 63.6027 2.0001 71.2357 4.2281 77.8217 8.4451 78.2867 8.7431 78.9047 8.6071 79.2027 8.1421 79.3007 7.9891 79.3357 7.8191 79.3437 7.6491 79.3587 7.3041 79.2107 6.9601 78.8997 6.7611 71.9917 2.3381 63.9847.0001 55.7447.0001 40.0047.0001 26.2207 8.5051 18.7277 21.1561 15.9757 24.0271 14.2527 27.8811 14.1377 32.1351 14.0167 32.6001 13.9117 33.0721 13.8047 33.5431L11.3617 33.5431C9.3637 33.5431 7.3987 34.0691 5.6797 35.0641 3.9837 36.0451 2.5617 37.4551 1.5677 39.1431.5417 40.8831-.0003 42.8751-.0003 44.9051L-.0003 52.1581C-.0003 58.4321 5.0867 63.5191 11.3617 63.5191L14.1597 63.5191C14.6237 72.2281 21.8337 79.1771 30.6577 79.1771L32.5457 79.1771C39.2447 83.4871 47.2047 86.0001 55.7447 86.0001 60.9787 86.0001 66.0937 85.0701 70.9457 83.2361 73.7897 82.1601 76.4707 80.7891 78.9677 79.1771L79.8747 79.1771C86.3937 79.1771 92.0257 75.3771 94.7207 69.8861 95.7007 71.1051 96.7467 72.2831 97.8687 73.4061 106.0057 81.5421 116.8687 86.0031 128.2277 86.0031 129.7777 86.0031 131.3367 85.9201 132.8997 85.7521 133.4487 85.6931 133.8457 85.2001 133.7867 84.6511 133.7857 84.6431 133.7807 84.6381 133.7797 84.6301 133.7097 84.0931 133.2237 83.7061 132.6857 83.7641 120.2727 85.0981 108.0997 80.8071 99.2827 71.9921 98.5577 71.2661 97.8657 70.5171 97.2037 69.7481 96.2657 68.6561 95.8357 67.1851 96.1127 65.7721 96.3107 64.7561 96.4167 63.7081 96.4167 62.6351L96.4167 61.5681C96.4167 60.2451 96.9197 58.9521 97.8807 58.0431 101.0647 55.0291 103.0607 50.7761 103.0607 46.0561L103.0607 39.3211C103.0607 36.5121 101.4477 34.0761 99.0997 32.8841 98.0247 32.3391 97.1647 31.4471 96.8087 30.2961 96.3377 28.7721 95.7827 27.2761 95.1437 25.8141 93.9287 23.0321 94.3127 19.8151 96.2077 17.4441 97.7227 15.5501 99.4177 13.7711 101.2887 12.1301 115.3967-.2449 136.4577-1.4129 151.7937 9.4051 166.5017 19.7801 172.5497 38.0341 167.5607 54.7591 167.4057 55.2791 167.6977 55.8231 168.2117 55.9911 168.2197 55.9941 168.2257 56.0001 168.2337 56.0031 168.7597 56.1591 169.3187 55.8591 169.4777 55.3301 174.0037 40.1571 169.8667 23.7811 158.6807 12.5951 141.9147-4.1709 114.6347-4.1709 97.8687 12.5951zM157.2662 71.9916C153.0982 76.1596 148.2092 79.3166 142.7382 81.3746 142.2252 81.5676 141.9662 82.1366 142.1522 82.6506 142.1542 82.6546 142.1532 82.6586 142.1542 82.6626 142.3052 83.0636 142.6862 83.3116 143.0902 83.3116 143.2072 83.3116 143.3272 83.2906 143.4422 83.2466 149.1822 81.0876 154.3092 77.7766 158.6802 73.4056 159.0712 73.0146 159.0712 72.3826 158.6802 71.9916 158.6742 71.9856 158.6652 71.9836 158.6592 71.9776 158.2662 71.6056 157.6502 71.6076 157.2662 71.9916"/>
    <path fill="#B9BBBE" d="M127.8678 54.9828C125.0968 54.9828 122.8918 57.0618 122.8918 59.9588 122.8918 63.9468 127.4618 66.7608 131.7088 63.5178 131.8318 63.4238 131.9378 63.2958 132.0088 63.1588 134.2808 58.7208 131.5838 54.9828 127.8678 54.9828M128.4977 21.0663C124.3887 21.0663 120.0557 22.7553 116.5077 26.9843 116.1627 27.3973 116.2297 28.0193 116.6417 28.3663L120.8027 31.8803C121.2057 32.2213 121.8087 32.1853 122.1627 31.7933 123.5287 30.2793 125.2257 29.5443 126.9227 29.3793 136.2437 28.5613 135.9287 41.4073 127.1127 41.4073 126.6317 41.4073 125.6357 41.4073 124.4067 41.2123 123.7897 41.1133 123.2407 41.6173 123.2727 42.2413L123.7267 51.0843C123.7527 51.6103 124.1877 52.0233 124.7147 52.0233L130.5177 52.0233C131.0187 52.0233 131.4397 51.6503 131.5007 51.1533L131.9347 47.6133C131.9877 47.1813 132.3227 46.8463 132.7497 46.7643 148.6187 43.7463 145.3747 21.0663 128.4977 21.0663M42.4806 48.1093C44.9556 48.1093 46.9806 46.0843 46.9806 43.6093 46.9806 41.1343 44.9556 39.1093 42.4806 39.1093 40.0056 39.1093 37.9806 41.1343 37.9806 43.6093 37.9806 46.0843 40.0056 48.1093 42.4806 48.1093"/>
  </g>
</svg>
