<svg xmlns="http://www.w3.org/2000/svg" viewBox="0 0 239 96">
  <path d="M15.17 96.05H238V79.27a16.61 16.61 0 0 0-16.55-16.57h-13.6a8.66 8.66 0 0 1-8.64-8.64V15.64a14.61 14.61 0 0 0-14.59-14.59h-104A14.61 14.61 0 0 0 66 15.64V35.5H35.82a20.63 20.63 0 0 0-20.65 20.64v39.91z" fill="#c7ccd1" opacity=".3" style="isolation:isolate"/>
  <path d="M2.66 45.72L1.37 48.3a.74.74 0 0 0 1 1L5 48a.62.62 0 0 1 .59 0l2.78 1.29a.74.74 0 0 0 1-1L8 45.72a.62.62 0 0 1 0-.59l1.29-2.59a.74.74 0 0 0-1-1l-2.65 1.2a.64.64 0 0 1-.6 0l-2.68-1.29a.74.74 0 0 0-1 1L2.66 45a.83.83 0 0 1 0 .72z" fill="#4f5660"/>
  <path d="M28.07 68.75a.94.94 0 0 1-1-1v-1a1 1 0 1 1 2 0v1a1 1 0 0 1-1 1zM28.07 76.69a.93.93 0 0 1-1-1v-1a1 1 0 1 1 2 0v1a1 1 0 0 1-1 1zM30.56 71.23a.93.93 0 0 1 1-1h1a1 1 0 0 1 0 2h-1a1.07 1.07 0 0 1-1-1zM22.62 71.23a.93.93 0 0 1 1-1h1a1 1 0 0 1 0 2h-1a1.07 1.07 0 0 1-1-1z" fill="#fff"/>
  <path d="M217.68 48.7a.93.93 0 0 1-1-1v-1a1 1 0 1 1 2 0v1a.94.94 0 0 1-1 1zM217.68 56.64a.93.93 0 0 1-1-1v-1a1 1 0 1 1 2 0v1a.94.94 0 0 1-1 1zM220.16 51.18a.94.94 0 0 1 1-1h1a1 1 0 1 1 0 2h-1a1 1 0 0 1-1-1zM212.22 51.18a.94.94 0 0 1 1-1h1a1 1 0 1 1 0 2h-1a1 1 0 0 1-1-1zM191.17 14.65H76v81.4h115.17z" fill="#c7ccd1"/>
  <path d="M181.15 24.58h-95.3v53.6h95.3z" fill="#747f8d"/>
  <path d="M76 14.65H48.23v81.4H76z" fill="#9099a4"/>
  <path d="M38.3 65.28l9.93 9.92V35.5l-9.93 9.92z" fill="#747f8d"/>
  <path d="M171.22 77.49l-12.51-11.92-12.51 11.92-12.6-11.92-12.51 11.92-12.51-11.92-12.51 11.92L86 67.86l-.1.1v9.43l.79.79h18.77l3.17-3 3.18 3h18.76l3.08-3 3.17 3h18.77l3.17-3 3.18 3h18.76l.5-.49v-9.63z" fill="#9099a4"/>
  <path d="M171.22 58.33l-12.51-11.91-12.51 11.91-12.6-11.91-12.51 11.91-12.51-11.91-12.51 11.91L86 48.7h-.1v9.43l10.22 9.73L108.58 56l12.51 11.91L133.6 56l12.6 11.91L158.71 56l12.51 11.91 9.93-9.33V48.9z" fill="#9099a4"/>
  <path d="M171.22 39.07l-12.51-11.91-12.51 11.91-12.6-11.91-12.51 11.91-12.51-11.91-12.51 11.91L86 29.44l-.1.1V39l10.17 9.7 12.51-11.91 12.51 11.91 12.51-11.91 12.6 11.91 12.51-11.91 12.51 11.91 9.93-9.43v-9.53z" fill="#9099a4"/>
  <path d="M171.22 29.54l5.26-5h-10.42zM101.24 24.58H90.81l5.26 5zM151.37 24.58h-10.43l5.26 5zM115.93 24.58l5.16 5 5.26-5z" fill="#9099a4"/>
  <path d="M56.07 30.53a1 1 0 1 0-1-1 1 1 0 0 0 1 1zM60 30.53a1 1 0 1 0-1-1 1 1 0 0 0 1 1zM64 30.53a1 1 0 1 0-1-1 1 1 0 0 0 1 1zM68 30.53a1 1 0 1 0-1-1 1 1 0 0 0 1 1zM56.07 36.49a1 1 0 1 0-1-1 1 1 0 0 0 1 1zM60 36.49a1 1 0 1 0-1-1 1 1 0 0 0 1 1zM64 36.49a1 1 0 1 0-1-1 1 1 0 0 0 1 1zM68 36.49a1 1 0 1 0-1-1 1 1 0 0 0 1 1zM56.07 42.44a1 1 0 1 0-1-1 1 1 0 0 0 1 1zM60 42.44a1 1 0 1 0-1-1 1 1 0 0 0 1 1zM64 42.44a1 1 0 1 0-1-1 1 1 0 0 0 1 1zM68 42.44a1 1 0 1 0-1-1 1 1 0 0 0 1 1zM56.07 48.4a1 1 0 1 0-1-1 1 1 0 0 0 1 1zM60 48.4a1 1 0 1 0-1-1 1 1 0 0 0 1 1zM64 48.4a1 1 0 1 0-1-1 1 1 0 0 0 1 1zM68 48.4a1 1 0 1 0-1-1 1 1 0 0 0 1 1zM56.07 54.36a1 1 0 1 0-1-1 1 1 0 0 0 1 1zM60 54.36a1 1 0 1 0-1-1 1 1 0 0 0 1 1zM64 54.36a1 1 0 1 0-1-1 1 1 0 0 0 1 1zM68 54.36a1 1 0 1 0-1-1 1 1 0 0 0 1 1zM56.07 60.31a1 1 0 1 0-1-1 1 1 0 0 0 1 1zM60 60.31a1 1 0 1 0-1-1 1 1 0 0 0 1 1zM64 60.31a1 1 0 1 0-1-1 1 1 0 0 0 1 1zM68 60.31a1 1 0 1 0-1-1 1 1 0 0 0 1 1zM56.07 66.27a1 1 0 1 0-1-1 1 1 0 0 0 1 1zM60 66.27a1 1 0 1 0-1-1 1 1 0 0 0 1 1zM64 66.27a1 1 0 1 0-1-1 1 1 0 0 0 1 1zM68 66.27a1 1 0 1 0-1-1 1 1 0 0 0 1 1zM56.07 72.23a1 1 0 1 0-1-1 1 1 0 0 0 1 1zM60 72.23a1 1 0 1 0-1-1 1 1 0 0 0 1 1zM64 72.23a1 1 0 1 0-1-1 1 1 0 0 0 1 1zM68 72.23a1 1 0 1 0-1-1 1 1 0 0 0 1 1zM56.07 78.18a1 1 0 1 0-1-1 1 1 0 0 0 1 1zM60 78.18a1 1 0 1 0-1-1 1 1 0 0 0 1 1zM64 78.18a1 1 0 1 0-1-1 1 1 0 0 0 1 1zM68 78.18a1 1 0 1 0-1-1 1 1 0 0 0 1 1zM56.07 84.14a1 1 0 1 0-1-1 1 1 0 0 0 1 1zM60 84.14a1 1 0 1 0-1-1 1 1 0 0 0 1 1zM64 84.14a1 1 0 1 0-1-1 1 1 0 0 0 1 1zM68 84.14a1 1 0 1 0-1-1 1 1 0 0 0 1 1zM69 22.59H55.08v2H69z" fill="#2e3338"/>
  <path d="M187.2 49.39a20.85 20.85 0 1 0-20.84-20.84 20.84 20.84 0 0 0 20.84 20.84z" fill="#4f5660"/>
  <path d="M187.2 42.44a5 5 0 1 0-5-5 5 5 0 0 0 5 5zM191.17 14.65h-7.94v13.9h7.94z" fill="#fff"/>
</svg>
