<svg height="76" viewBox="0 0 94 76" width="94" xmlns="http://www.w3.org/2000/svg"><g fill="#dee0fc" fill-opacity=".3" fill-rule="evenodd" transform="matrix(0 1 1 0 0 0)"><path d="m51.1553157 8.6736513c-.478087-2.26296297-.9556723-4.52643015-1.4332577-6.78939312-.6315966-2.99005578-5.2970837-2.19741368-4.6629788.80373507.4775854 2.26296296.9556724 4.52592592 1.4332577 6.78939311.6315966 2.98955154 5.2965821 2.19741364 4.6629788-.80373506"/><path d="m30.7072633 17.1405638c-1.0334305 3.6384895-.9235658 7.1796635.2588593 10.7642009.9581807 2.9073628 5.2569504.9106308 4.3083014-1.9664785-.7685512-2.3295207-.7846045-4.8299738-.1163864-7.1821846.8302561-2.9234981-3.61199-4.5687851-4.4507743-1.6155378"/><path d="m50.0279579 27.1469462c-1.3228913-.0569775-2.3929434.8420562-2.5615029 2.1631264-.1504996 1.1788786-.3009992 2.357253-.4509971 3.5361317-.1575229 1.2353519.9120275 2.5211263 2.152144 2.5745742 1.3228914.0569774 2.3929434-.8420562 2.5620046-2.1636306.1499979-1.1783744.3004975-2.3572531.4509971-3.5356275.1570212-1.2353519-.9120275-2.5211263-2.1526457-2.5745742"/><path d="m74.8356391 20.0348626c-1.1352686-.8072646-2.4506349-.4008591-3.2974459.5682619-1.6971337 1.9422757-3.3937656 3.8835429-5.0914009 5.8258186-.8443027.9660956-.3998273 2.6280221.5653767 3.3137684 1.1352686.8072647 2.4506349.4008591 3.2974459-.5682618 1.6971337-1.9422757 3.3942673-3.883543 5.0908993-5.8258187.8448043-.9660956.3998272-2.628022-.5648751-3.3137684"/><path d="m53.2958671 48.6281785c-.7494879-.9181942-2.4195316-1.2439238-3.3295524-.3327887-1.2055017 1.206611-2.4110034 2.4137263-3.6170067 3.6208416-.9040008.9050843-1.1964717 2.2866615-.3310991 3.346543.749488.9181942 2.4195317 1.244428 3.3295525.3327887l3.6170066-3.6203374c.9040009-.9050843 1.1969734-2.2861573.3310991-3.3470472"/><path d="m61.2315414 1.57098111c-.7168797 2.89072341-1.4337594 5.78195105-2.1511407 8.67317869-.728418 2.9366079 3.7128247 4.5914752 4.4507743 1.6150335.7173814-2.89072341 1.4342611-5.78144682 2.1511408-8.67267446.7284179-2.93711213-3.7128248-4.59097098-4.4507744-1.61553773"/><path d="m29.2778221 43.8568304c-1.0846003-.3943042-2.7486241.1684112-3.0290549 1.4289743-.5387886 2.4187686-1.8200417 4.2717964-3.8954309 5.6100103-1.0755704.6938139-1.0745671 2.4359122-.3310991 3.3470472.8894525 1.0896308 2.2499688 1.0291238 3.3295524.3327887 2.6718693-1.7229377 4.6539488-4.559709 5.3477519-7.6743084.2789259-1.2514871-.1118713-2.5675151-1.4217194-3.0445121"/><path d="m74.9033922 37.0354557c-.8779143-1.0755125-2.2625104-1.0482843-3.3295525-.3327887-2.2404371 1.5020871-4.4803726 3.0041741-6.7208097 4.5062612-1.0625271.7129745-1.0846004 2.4233066-.3310991 3.346543.8779142 1.0755125 2.2625104 1.0487885 3.3295525.3332929 2.2404371-1.5020871 4.4808742-3.0046783 6.7208097-4.5062611 1.0625271-.7129746 1.0846003-2.4238109.3310991-3.3470473"/><path d="m64.5363845 62.5914719c-3.740918 1.85807-7.481836 3.7151317-11.2227539 5.5726975-2.7295608 1.3553575-.7765779 5.6871567 1.9564945 4.3302866 3.740918-1.8575659 7.481836-3.7151318 11.222754-5.5726976 2.7300624-1.3558617.7770795-5.6871567-1.9564946-4.3302865"/><path d="m33.7105059 66.8108096-4.2360616 5.7254779c-1.8175333 2.4575939 2.045791 5.202092 3.8628226 2.7460107l4.23556-5.725982c1.8180349-2.4570897-2.0452894-5.2015878-3.862321-2.7455066"/><path d="m38.9658709 82.9597932c-1.8601748 1.4602363-3.7208514 2.9199684-5.5815279 4.3802048-2.4049833 1.8873151.600995 5.5611004 2.9984534 3.6793317 1.8606765-1.4597321 3.7208514-2.9199685 5.5815279-4.3797006 2.4049833-1.8873151-.600995-5.5611004-2.9984534-3.6798359"/><path d="m14.7026936 82.6913703c-4.4608077 2.1737151-8.92111369 4.3469259-13.38141968 6.520641-2.74160075 1.3351885-.78661116 5.6664835 1.95649459 4.3302865 4.46030599-2.1737151 8.92061199-4.3474301 13.38091799-6.520641 2.7416007-1.3361969.7871128-5.6664835-1.9559929-4.3302865"/><path d="m9.6458264 63.2451584c-1.00383222-.6479294-2.62621774-.5803632-3.29694421.5682619-.81370109 1.3936786-1.62790383 2.7863488-2.44160492 4.1800274-.60149667 1.029628-.57390508 2.2493489.33310575 3.0969515.81721274.7639013 2.22237718.9146647 3.09728143.1159719l.66420483-.6070873c.48009367-.4381717.78811615-1.0664364.84731266-1.7083151.45400707-.7770112.90801415-1.5545265 1.36202126-2.3320419.6250749-1.0694617.573905-2.5786079-.5653768-3.3137684"/></g></svg>