<svg viewBox="0 0 137.1 106.5" xmlns="http://www.w3.org/2000/svg"><g transform="translate(21 26.333)"><path d="m38.7 67.7c.4 0 .7-.3.7-.7s-.3-.7-.7-.7h-16.6c-.4 0-.7.3-.7.7s.3.7.7.7zm-19.7-88.7c-.1.1-.2.3-.2.5s.1.4.2.5l.1.1s.1 0 .1.1h.2c.2 0 .4-.1.5-.2s.2-.3.2-.5-.1-.4-.2-.5c-.1-.2-.6-.2-.9 0zm5.6-.2c-.4 0-.7.3-.7.7s.3.7.7.7h16.7c.4 0 .7-.3.7-.7s-.3-.7-.7-.7zm-14.6 83.4h35.1v10.6h-3.1c0-.4-.3-.7-.7-.7h-35.3c-1.2 0-2.2-1-2.2-2.2v-92.6c0-1.2 1-2.2 2.2-2.2h9.8c.4 0 .7-.3.7-.7h1.9c0 .4.3.7.7.7h35.6c1.2 0 2.2 1 2.2 2.2v13.8h-4.8v-2.9c.4 0 .7-.3.7-.7v-1c0-1.2-1-2.1-2.1-2.1h-40.7c-1.2 0-2.1 1-2.1 2.1v73.6c0 1.1 1 2.1 2.1 2.1z" fill="#b9bbbe"/><path d="m51.5-12.5v-1.7h-42.2v75h35.8v-64.7c0-2.7 2.2-5 5-5h2.1v-2.9c-.4 0-.7-.3-.7-.7" fill="#36393f"/><path d="m92.3 18.1h1v-7.9h-1zm-23.8 57.7c-1.9 0-3.5-1.6-3.5-3.5s1.6-3.5 3.5-3.5 3.5 1.6 3.5 3.5-1.5 3.5-3.5 3.5m22.4-.6v-8.6h-7.3c-.4 0-.7-.3-.7-.7h-4.7c0 .4-.3.7-.7.7h-30.9v8.6c0 2 1.6 3.5 3.5 3.5h37.2c2 .1 3.6-1.5 3.6-3.5m-17-76.3h-6.5c-.4 0-.7-.3-.7-.7s.3-.7.7-.7h6.5c.4 0 .7.3.7.7s-.3.7-.7.7m-10.9-.2-.1.1-.1.1h-.2c-.2 0-.4-.1-.5-.2s-.2-.3-.2-.5.1-.4.2-.5c.2-.2.4-.2.6-.2h.1s.1 0 .1.1l.1.1c.1.1.2.3.2.5s0 .4-.2.5m24.3-6.2h-37.2c-2 0-3.5 1.6-3.5 3.5v7.2h44.3v-7.2c0-1.9-1.6-3.5-3.6-3.5" fill="#dcddde"/><path d="m83.6 65.2h7.3v-60.5h-44.3v60.6h30.9c.4 0 .7.3.7.7h4.7c-.1-.4.3-.8.7-.8" fill="#4f545c"/><g fill="#040405"><path d="m68.5 68.8c-1.9 0-3.5 1.6-3.5 3.5s1.6 3.5 3.5 3.5 3.5-1.6 3.5-3.5-1.5-3.5-3.5-3.5m-27.1 3.3h-35.4c-1.2 0-2.2-1-2.2-2.2v-92.6c0-1.2 1-2.2 2.2-2.2h9.8c.4 0 .7-.3.7-.7s-.3-.7-.7-.7h-9.8c-2 0-3.6 1.6-3.6 3.6v92.6c0 2 1.6 3.6 3.6 3.6h35.3c.4 0 .7-.3.7-.7.1-.4-.3-.7-.6-.7"/><path d="m38.7 66.3h-16.6c-.4 0-.7.3-.7.7s.3.7.7.7h16.7c.4 0 .7-.3.7-.7-.1-.4-.4-.7-.8-.7m-14.1-86.1h16.7c.4 0 .7-.3.7-.7s-.3-.7-.7-.7h-16.7c-.4 0-.7.3-.7.7s.3.7.7.7m-5.5-.1s.1 0 .1.1h.2c.2 0 .4-.1.5-.2s.2-.3.2-.5-.1-.4-.2-.5c-.3-.3-.7-.3-1 0-.1.1-.2.3-.2.5s.1.4.2.5zm-35.4 46.7c0-.4-.3-.7-.7-.7h-3.3c-.4 0-.7.3-.7.7s.3.7.7.7h3.3c.4 0 .7-.3.7-.7m1.6 13.7-3.1 1.1c-.4.1-.6.5-.4.9.1.3.4.5.7.5h.2l3.1-1.1c.4-.1.6-.5.4-.9s-.6-.6-.9-.5m7.1 12.8-2.5 2.1c-.3.3-.3.7-.1 1 .1.2.3.3.5.3s.3-.1.5-.2l2.5-2.1c.3-.3.3-.7.1-1-.3-.3-.7-.4-1-.1m-1.6-56.2c-.3-.3-.7-.2-1 .1s-.2.7.1 1l2.5 2.1c.1.1.3.2.5.2s.4-.1.5-.3c.3-.3.2-.7-.1-1zm-5.1 14.6-3.1-1.1c-.4-.1-.8.1-.9.4-.1.4.1.8.4.9l3.1 1.1h.2c.3 0 .6-.2.7-.5.2-.2 0-.6-.4-.8m125.7 15.1c0-.4.3-.7.7-.7h3.3c.4 0 .7.3.7.7s-.3.7-.7.7h-3.3c-.4 0-.7-.3-.7-.7m-1.6 13.7 3.1 1.1c.4.1.6.5.4.9-.1.3-.4.5-.7.5h-.2l-3.1-1.1c-.4-.1-.6-.5-.4-.9.1-.4.6-.6.9-.5m-7.1 12.8 2.5 2.1c.3.3.3.7.1 1-.1.2-.3.3-.5.3s-.3-.1-.5-.2l-2.5-2.1c-.3-.3-.3-.7-.1-1 .3-.3.7-.4 1-.1m1.6-56.2c.3-.3.7-.2 1 .1s.2.7-.1 1l-2.5 2.1c-.1.1-.3.2-.5.2s-.4-.1-.5-.3c-.3-.3-.2-.7.1-1l2.5-2.1zm5 14.6 3.1-1.1c.4-.1.8.1.9.4.1.4-.1.8-.4.9l-3.1 1.1h-.2c-.3 0-.6-.2-.7-.5-.1-.2.1-.6.4-.8m-73.7-.5c-.4 0-.8-.4-.8-.8s.4-.8.8-.8.8.4.8.8-.3.8-.8.8m-8.7 0c-.4 0-.8-.4-.8-.8s.4-.8.8-.8.8.4.8.8-.4.8-.8.8m9.1-4.2 1.5-2.7c.1-.1 0-.3-.1-.4s-.3 0-.4.1l-1.2 2.2c-.2.3-.5.5-.9.3-1.1-.4-2.3-.7-3.6-.7s-2.5.2-3.6.6c-.3.1-.7 0-.9-.3l-1.2-2.1c-.1-.1-.3-.2-.4-.1-.2.1-.2.3-.1.4l1.2 2.1c.2.3.1.7-.2.9-2.4 1.4-4 3.8-4.3 6.6 0 .4.3.8.7.8h17.7c.4 0 .7-.4.7-.8-.4-3-2.3-5.5-4.9-6.9m-17.2 8c-1.2 0-2.1 1-2.1 2.1v9.7c0 .2.1.4.2.5 1.8 1.8 4.1.6 4.1-1.2v-8.9c-.1-1.2-1-2.2-2.2-2.2m21.3.4h-17.6c-.4 0-.7.3-.7.7v13.1c0 1.3 1 2.3 2.3 2.3h.8c.4 0 .7.3.7.7v4.7c0 .2.1.4.2.5 1.8 1.8 4.1.6 4.1-1.2v-4c0-.4.3-.7.7-.7h1.5c.4 0 .7.3.7.7v4.7c0 .2.1.4.2.5 1.8 1.8 4.1.6 4.1-1.2v-4c0-.4.3-.7.7-.7h.8c1.3 0 2.3-1 2.3-2.3v-13.1c-.1-.4-.4-.7-.8-.7"/><path d="m92.8 10.2c.3 0 .5.2.5.5v6.9c0 .3-.2.5-.5.5s-.5-.2-.5-.5v-6.9c0-.3.2-.5.5-.5zm-4.8-7h-38.6c-1.6 0-2.8-1.3-2.8-2.8v-4.3c0-2 1.6-3.5 3.5-3.5h37.2c2 0 3.5 1.6 3.5 3.5v4.3c.1 1.6-1.2 2.8-2.8 2.8zm-37.9 75.6c-2 0-3.5-1.6-3.5-3.5v-5.7c0-1.6 1.3-2.8 2.8-2.8h28.1c.4 0 .7-.3.7-.7s-.3-.7-.7-.7h-29.5c-.8 0-1.4-.6-1.4-1.4v-57.9c0-.8.6-1.4 1.4-1.4h41.5c.8 0 1.4.6 1.4 1.4v57.8c0 .8-.6 1.4-1.4 1.4h-5.9c-.4 0-.7.3-.7.7s.3.7.7.7h4.4c1.6 0 2.8 1.3 2.8 2.8v5.7c0 2-1.6 3.5-3.5 3.5h-37.2zm43.4-70.1c-.7 0-1.2-.5-1.2-1.2v-11.4c0-2.7-2.2-5-5-5h-26.1c-1.6 0-2.8-1.3-2.8-2.8v-11c0-2-1.6-3.6-3.6-3.6h-35.6c-.4 0-.7.3-.7.7s.3.7.7.7h35.6c1.2 0 2.2 1 2.2 2.2v12.4c0 .8-.6 1.4-1.4 1.4h-5.5c-2.7 0-5 2.2-5 5v19.5c-.8-.7-2.2-.8-3.4.3-.1.1-.2.3-.2.5v10.4c0 .2.1.4.2.5 1.2 1.2 2.5 1.1 3.3.3v30.3c0 .8-.6 1.4-1.4 1.4h-32.6c-.9 0-1.7-.8-1.7-1.7v-70.2c0-.9.8-1.7 1.7-1.7h38.8c.9 0 1.7.8 1.7 1.7 0 .4.3.7.7.7s.7-.3.7-.7v-1.4c0-.9-.8-1.7-1.7-1.7h-41.6c-.9 0-1.7.8-1.7 1.7v74.4c0 .9.8 1.7 1.7 1.7h31.3c2.3 0 4.3 1.9 4.3 4.3v8.8c0 2.7 2.2 5 5 5h37.2c2.7 0 5-2.2 5-5v-54.5c0-.7.5-1.2 1.2-1.2s1.2-.6 1.2-1.2v-8.3c-.1-.7-.6-1.3-1.3-1.3z"/><path d="m73.9-2.5h-6.5c-.4 0-.7.3-.7.7s.3.7.7.7h6.5c.4 0 .7-.3.7-.7s-.3-.7-.7-.7m-11 .1s-.1 0-.1-.1h-.1c-.2 0-.5 0-.6.2-.1.1-.2.3-.2.5s.1.4.2.5.3.2.5.2h.2s.1 0 .1-.1l.1-.1c.1-.1.2-.3.2-.5s-.1-.4-.2-.5c0 0 0-.1-.1-.1"/></g><path d="m78.3 27.9c.4-.3.4-.8.1-1.1-1.3-1.3-3-2.1-4.6-2.1-2.4 0-3.4 1.2-5.1 1.2s-3-1.1-5.1-1.1-4.2 1.3-5.6 3.4c-1.9 3-1.6 8.7 1.5 13.5 1.1 1.7 2.6 3.7 4.6 3.7 1.8 0 2.3-1.1 4.6-1.1 2.4 0 2.8 1.1 4.6 1.1 2 0 3.6-2.2 4.7-3.9.8-1.2 1.1-1.9 1.7-3.3-4.3-1.7-5.2-7.6-1.4-10.3" fill="#36393f"/><path d="m68.6 24.9c1.3-.2 2.6-1 3.4-2.1.7-.9 1.3-2.2 1.4-3.5 0-.5-.4-.8-.9-.7-1.2.3-2.5 1.1-3.3 2.1-.8.9-1.4 2.2-1.4 3.5 0 .4.4.8.8.7" fill="#36393f"/></g></svg>