<svg xmlns="http://www.w3.org/2000/svg" width="166" height="166" viewBox="0 0 166 166"><path d="M83,11a72,72,0,1,0,72,72A72.08,72.08,0,0,0,83,11Zm0,140a68,68,0,1,1,68-68A68.07,68.07,0,0,1,83,151Z" fill="#000"/><path d="M145,82.37a61.81,61.81,0,0,0-18.13-43.16l-.06-.07-.1-.08a61.89,61.89,0,0,0-87.38,0l-.1.09-.06.08A61.77,61.77,0,0,0,21,82.37a.78.78,0,0,0,0,.16s0,.06,0,.09,0,.25,0,.38a62,62,0,0,0,124,0c0-.13,0-.25,0-.38s0-.06,0-.09A.78.78,0,0,0,145,82.37ZM70.77,39.59l7.9,5.19a2.5,2.5,0,0,1,.59.58,2.53,2.53,0,0,1,.21.32l1.51,3,1.08,2.18h0l.42.84a.58.58,0,0,0,1,0s0,0,0,0l3-6a2.25,2.25,0,0,1,.8-.9l19.77-13h0a.45.45,0,0,1,.18-.07h0l.09,0h0a.65.65,0,0,1,.24.06l0,0a.57.57,0,0,1,.16.15l0,0a.63.63,0,0,1,.08.23v.06a.59.59,0,0,1-.06.28h0l-3.06,6h0l-2,4h0l-3.09,6.08a.58.58,0,0,0,.51.84h4.91a.58.58,0,0,1,.33,1.05L83.34,66.39a.58.58,0,0,1-.68,0L60.51,50.52a.58.58,0,0,1,.33-1.05h4.91a.58.58,0,0,0,.51-.84L58.07,32.54a.59.59,0,0,1-.06-.28V32.2a.63.63,0,0,1,.08-.23l0,0a.57.57,0,0,1,.16-.15l0,0a.61.61,0,0,1,.24-.06h0l.09,0h0a.45.45,0,0,1,.18.07l10.34,6.8h0l1.53,1Zm38.75,9.06a4.59,4.59,0,0,0-3.71-3.14l1.51-3h16.06V68L111.28,80.1,94.5,63.31l13.32-9.54A4.56,4.56,0,0,0,109.52,48.65Zm-34.72,17,5.53,4a4.57,4.57,0,0,0,5.34,0l5.53-4,14.85,14.85H60ZM60.19,45.51a4.58,4.58,0,0,0-2,8.26L71.5,63.31,54.72,80.1,42.62,68V42.55H58.68ZM42.62,97.85l12.1-12.09,25.45,25.45-12.09,12.1H42.62ZM59.14,84.53h47.72L83,108.39Zm52.14,1.23,12.1,12.09v25.46H97.92l-12.09-12.1Zm-1.92-47.21,2.14-4.2a4.66,4.66,0,0,0,.47-1.57,59.09,59.09,0,0,1,8.24,5.77ZM54.5,34.35l2.14,4.2H45.79A59.09,59.09,0,0,1,54,32.78,4.66,4.66,0,0,0,54.5,34.35ZM39.21,70.25,49.48,80.53H25.06A57.77,57.77,0,0,1,38.62,45.71V68.84A2,2,0,0,0,39.21,70.25ZM50.29,84.53,39.21,95.61A2,2,0,0,0,38.62,97v23.27A57.74,57.74,0,0,1,25,84.53Zm76.5,11.08L115.71,84.53H141a57.74,57.74,0,0,1-13.58,35.76V97A2,2,0,0,0,126.79,95.61ZM116.52,80.53l10.27-10.28a2,2,0,0,0,.59-1.41V45.71a57.77,57.77,0,0,1,13.56,34.82ZM104.09,29l-19,12.44A6.26,6.26,0,0,0,83,43.8a6.26,6.26,0,0,0-2.14-2.37L61.91,29a57.73,57.73,0,0,1,42.18,0ZM45.63,127.31H68.91a2,2,0,0,0,1.41-.59L83,114l12.68,12.68a2,2,0,0,0,1.41.59h23.28a57.85,57.85,0,0,1-74.74,0Z" fill="#000"/></svg>
