<svg height="84" viewBox="0 0 124 84" width="124" xmlns="http://www.w3.org/2000/svg"><g fill="none" fill-rule="evenodd"><path d="m56.0548 50.3297c-.374-.423-.819-.559-1.104-1.024l-8.109 7.168c-.412.364-.941.544-1.491.513-.55-.034-1.054-.281-1.418-.693l-4.918-5.564c-1.184-1.338-3.237-1.465-4.578-.282-1.34 1.186-1.466 3.239-.281 4.579l3.512 3.974c.741.837 1.11 1.912 1.041 3.027-.068 1.115-.567 2.137-1.404 2.877-.836.738-1.911 1.11-3.027 1.041-1.116-.07-2.137-.568-2.876-1.406l-7.73-8.742c-.573-.649-1.366-1.036-2.229-1.089-.301-.019-.599.004-.885.065-.538.116-1.04.368-1.464.743-1.339 1.184-1.466 3.237-.281 4.578l9.134 10.332c.752.85.671 2.155-.178 2.908l-1.591 1.406c-.901.797-.987 2.179-.189 3.08l2.107 2.385c.386.436.919.697 1.501.732.58.036 1.143-.157 1.579-.543l28.779-25.44c-.427-.341-.84-.707-1.214-1.131-.366-.414-.328-1.046.086-1.411l-1.486-1.682c-.413.368-.92.013-1.286-.401" fill="#d3d6ed"/><path d="m68.8468 54.399c-2.668-1.516-5.137-3.481-7.28-5.906-2.116-2.393-3.781-5.073-4.977-7.936-1.601 2.719-1.361 6.275.839 8.763.365.414.326 1.046-.088 1.411l1.486 1.682c.414-.368 1.046-.327 1.413.087 2.203 2.492 5.709 3.163 8.607 1.899" fill="#7b80d6"/><path d="m102.3312 30.7554c-.318 5.169-2.63 9.904-6.51 13.333-2.53 2.237-5.529 3.744-8.743 4.434-1.715.368-3.49.504-5.289.392-5.169-.318-9.904-2.631-13.334-6.511-3.43-3.879-5.144-8.862-4.825-14.031.318-5.169 2.631-9.904 6.511-13.334 3.878-3.43 8.86-5.145 14.031-4.825 5.169.318 9.904 2.63 13.334 6.51 3.429 3.881 5.143 8.863 4.825 14.032m3.929-14.013c-.24.082-.476.17-.725.223-.163.035-.327.063-.493.086-.548.074-1.052-.311-1.125-.858-.073-.546.315-1.05.857-1.124 1.142-.157 2.153-.741 2.85-1.654 1.439-1.887 1.075-4.594-.811-6.033s-4.592-1.075-6.033.811c-.928 1.215-1.142 2.791-.573 4.214.205.513-.045 1.095-.558 1.3-.507.207-1.093-.045-1.299-.557-.666-1.666-.567-3.533.207-5.117-6.183-4.473-13.933-6.004-21.196-4.445-4.313.926-8.452 2.937-11.985 6.06-10.982 9.707-12.018 26.54-2.311 37.52 9.707 10.982 26.538 12.018 37.521 2.312 9.484-8.386 11.543-22.083 5.674-32.738" fill="#acb0ff"/><path d="m60.2394 52.4996c-.366-.414-.999-.454-1.412-.087-.414.365-.452.997-.087 1.411.125.142.254.277.386.406.42.411.426 1.082-.015 1.471l-27.935 24.695c-.437.385-.999.578-1.58.542-.582-.035-1.115-.296-1.501-.732l-2.108-2.385c-.798-.903-.713-2.282.19-3.08l1.591-1.406c.849-.75.93-2.059.18-2.907l-9.049-10.235c-1.091-1.234-1.201-3.126-.115-4.365.478-.547 1.098-.908 1.773-1.054.286-.061.584-.084.885-.065.863.053 1.656.44 2.23 1.089l7.616 8.615c.645.73 1.493 1.284 2.45 1.465 1.305.247 2.597-.116 3.566-.973.974-.861 1.49-2.102 1.404-3.427-.064-.971-.51-1.877-1.154-2.606l-3.339-3.777c-1.025-1.159-1.173-2.907-.244-4.143 1.281-1.7 3.712-1.727 5.043-.222l4.918 5.564c.365.412.869.659 1.418.693.55.032 1.079-.149 1.492-.513l7.262-6.421c.441-.389 1.108-.308 1.466.158.017.02.033.042.05.062.235.299.816 1.115 1.721.458.419-.303.453-.997.087-1.411-1.61-1.821-2.17-4.214-1.727-6.431.184-.922 1.438-1.063 1.869-.228 1.073 2.077 2.408 4.036 3.996 5.832 1.605 1.816 3.393 3.374 5.309 4.679.778.529.486 1.757-.451 1.829-2.261.172-4.573-.676-6.185-2.501m40.347-3.02c-11.082 9.794-28.118 8.651-37.783-2.611-9.143-10.655-8.301-26.963 1.902-36.608 3.676-3.474 8.067-5.688 12.656-6.672 7.005-1.503 14.464-.133 20.532 3.98.363.246.531.716.384 1.129-.507 1.427-.503 3.015.072 4.452.206.513.792.765 1.3.558.506-.202.756-.771.566-1.279-.326-.869-.46-1.813-.2-2.704.987-3.374 4.984-4.233 7.259-1.937 1.279 1.291 1.604 3.335.775 4.952-.667 1.301-1.873 2.137-3.275 2.33-.542.074-.931.577-.857 1.124.073.547.577.932 1.125.858.166-.023.33-.051.493-.086.249-.053.485-.141.725-.223 5.869 10.654 3.81 24.352-5.674 32.737m8.084-32.431c-.341-.7-.216-1.544.3-2.126.084-.095.165-.193.244-.294 2.107-2.763 1.575-6.727-1.188-8.836-2.194-1.673-5.143-1.68-7.321-.228-.657.439-1.488.471-2.152.04-10.499-6.82-24.677-6.14-34.501 2.545-5.721 5.056-9.129 12.037-9.598 19.658-.201 3.262.153 6.472 1.015 9.528.157.555.104 1.16-.224 1.635-1.715 2.475-2.14 5.616-1.195 8.425l-7.87 6.916c-.414.364-1.044.324-1.409-.089l-4.103-4.642c-1.813-2.051-4.93-2.563-7.146-.958-2.544 1.842-2.894 5.433-.865 7.729l3.512 3.973c.386.438.58.998.544 1.58-.036.581-.296 1.115-.734 1.501-.436.386-.997.579-1.579.543-.581-.035-1.115-.297-1.501-.733l-7.604-8.602c-.803-.907-1.859-1.593-3.049-1.817-1.632-.306-3.256.142-4.477 1.222-2.165 1.915-2.37 5.234-.456 7.4l8.474 9.669c.362.414.322 1.044-.09 1.408l-.845.747c-1.729 1.529-1.892 4.172-.363 5.903l2.035 2.302c.527.595 1.189 1.078 1.949 1.308.721.217 1.454.241 2.141.095.693-.15 1.34-.475 1.886-.957l29.211-25.823c1.913.924 4.082 1.183 6.142.74.813-.174 1.607-.462 2.362-.857.526-.275 1.145-.278 1.693-.05 5.409 2.265 11.402 2.816 17.114 1.59 4.637-.994 9.089-3.158 12.888-6.516 9.825-8.686 12.239-22.674 6.76-33.929" fill="#000"/><path d="m76.9738 34.8736c-2.927-3.312-2.614-8.389.697-11.316 1.066-.943 2.314-1.549 3.615-1.829 2.741-.587 5.715.28 7.702 2.526 2.927 3.311 2.615 8.389-.698 11.316-3.312 2.927-8.387 2.616-11.316-.697m-10.066-12.063c.291-.736.647-1.447 1.065-2.119 2.694-4.339 6.772-7.152 11.333-8.13 1.538-.331 3.131-.452 4.743-.352 3.479.214 6.73 1.445 9.436 3.516 1.009.77 1.077 2.266.126 3.107l-3.196 2.825c-.361.32-.889.309-1.269.012-3.728-2.914-9.132-2.855-12.799.39-3.67 3.244-4.392 8.598-1.958 12.655.248.413.194.938-.167 1.258 0 0-1.783 1.578-3.196 2.828-.952.843-2.426.586-3.069-.512-2.654-4.531-3.172-10.101-1.049-15.478m33.427 7.822c-.375 6.096-3.842 11.521-9.534 14.493-1.309.683-2.718 1.177-4.166 1.465-5.216 1.039-10.252-.201-14.156-3.187-1.01-.771-1.084-2.265-.131-3.107 1.422-1.257 3.221-2.847 3.221-2.847.356-.314.877-.304 1.251-.011 2.374 1.862 5.423 2.526 8.279 1.914 1.625-.349 3.186-1.106 4.516-2.284 3.67-3.245 4.391-8.598 1.957-12.655-.248-.414-.194-.939.168-1.259l3.195-2.825c.951-.841 2.427-.589 3.068.507 1.723 2.94 2.546 6.317 2.332 9.796m-16.163-20.419c-5.171-.32-10.152 1.394-14.031 4.825-3.88 3.43-6.192 8.165-6.511 13.334-.318 5.169 1.396 10.151 4.825 14.031 3.43 3.88 8.165 6.193 13.334 6.511 1.799.111 3.575-.024 5.289-.393 3.214-.689 6.213-2.196 8.744-4.433 3.88-3.429 6.191-8.164 6.509-13.333.319-5.169-1.395-10.152-4.825-14.032-3.429-3.88-8.165-6.192-13.334-6.51" fill="#000"/><path d="m88.2902 35.5709c3.313-2.928 3.625-8.005.697-11.316-1.986-2.247-4.961-3.114-7.701-2.526-1.302.279-2.55.886-3.615 1.828-3.312 2.928-3.624 8.005-.697 11.317 2.928 3.312 8.003 3.624 11.316.697" fill="#acb0ff"/><path d="m14.8029 20.6617c.834 0 1.51.676 1.51 1.51v.001c0 .552.447 1 1 1 .552 0 1-.448 1-1v-.001c0-.834.676-1.51 1.51-1.51.552 0 1-.447 1-1 0-.552-.448-1-1-1-.834 0-1.51-.676-1.51-1.51 0-.552-.448-1-1-1-.553 0-1 .448-1 1 0 .834-.676 1.51-1.51 1.51-.553 0-1 .448-1 1 0 .553.447 1 1 1" fill="#7b80d6"/><path d="m6.9161 40.774c.256 0 .512-.098.707-.293l1.183-1.184c.39-.39.39-1.024 0-1.414-.391-.39-1.025-.39-1.414 0l-1.183 1.184c-.391.391-.391 1.023 0 1.414.195.195.451.293.707.293m-5.916 5.916c.256 0 .512-.098.707-.293l1.183-1.184c.39-.39.39-1.023 0-1.414-.391-.39-1.024-.39-1.414 0l-1.183 1.184c-.391.391-.391 1.023 0 1.414.195.195.451.293.707.293m6.3916-.293c.195.195.451.293.707.293s.512-.098.707-.293c.391-.391.391-1.023 0-1.414l-1.183-1.184c-.39-.39-1.023-.39-1.414 0-.39.391-.39 1.024 0 1.414zm-5.916-5.916c.195.195.451.293.707.293s.512-.098.707-.293c.391-.391.391-1.023 0-1.414l-1.183-1.184c-.39-.39-1.023-.39-1.414 0-.39.39-.39 1.024 0 1.414z" fill="#fff"/><path d="m110.368 82.319 6-10.391 6 10.391z" fill="#fff"/><path d="m112.1007 81.3189h8.535l-4.267-7.392zm10.268 2h-12c-.358 0-.688-.19-.867-.5-.178-.31-.178-.69 0-1l6-10.392c.358-.619 1.375-.619 1.733 0l6 10.392c.179.31.179.69 0 1s-.509.5-.866.5z" fill="#000"/></g></svg>