<svg viewBox="0 0 937 429.2" xmlns="http://www.w3.org/2000/svg"><g fill="#c7ccd1"><path d="m797 212.7c0-34-27.8-61.8-61.8-61.8h-82.5v278.3h278.3v-82.5c0-40.2-32-72.2-72.2-72.2-34 .1-61.8-27.7-61.8-61.8z" opacity=".3"/><path d="m678.9 148.1c-27.7 0-50.4-22.7-50.4-50.4s-22.7-50.4-50.4-50.4h-242.9c-14.3 0-25.7 11.4-25.7 25.7 0 27.8-22.3 50-50 50h-23.1c-24.4 0-44.6 20.2-44.6 44.6v73.2c-41.6 0-75.7 34.1-75.7 75.7v112.7h394.9v-155.1h117.6c-.1 0 83.1-126 50.3-126z" opacity=".3"/><path d="m264.5 121.2h442.4v308h-442.4z"/></g><path d="m264.5 177.2h442.4v98h-442.4z" fill="#23262a"/><path d="m317.7 317.2h182v28h-182z" fill="#fff"/><path d="m564.1 316.1h92.4v70h-92.4z" fill="#23262a"/><path d="m317.7 359.2h182v28h-182z" fill="#fff"/><path d="m356.9 192.6c0-66.5-53.9-120.4-120.4-120.4s-120.4 53.9-120.4 120.4 53.9 120.4 120.4 120.4 120.4-54 120.4-120.4z" fill="#9099a4"/><path d="m323.9 148.9c0-12.1-9.8-21.9-21.9-21.9s-21.9 9.8-21.9 21.9 9.8 21.9 21.9 21.9 21.9-9.9 21.9-21.9z" fill="#fff"/><path d="m313.2 148.9c0-6.2-5-11.1-11.1-11.1s-11.1 5-11.1 11.1 5 11.1 11.1 11.1 11.1-5 11.1-11.1z" fill="#202225"/><path d="m247.2 148.9c0-12.1-9.8-21.9-21.9-21.9s-21.9 9.8-21.9 21.9 9.8 21.9 21.9 21.9 21.9-9.9 21.9-21.9z" fill="#fff"/><path d="m236.5 148.9c0-6.2-5-11.1-11.1-11.1s-11.1 5-11.1 11.1 5 11.1 11.1 11.1 11.1-5 11.1-11.1zm43 42.9c0-6.2-5-11.1-11.1-11.1s-11.1 5-11.1 11.1 5 11.1 11.1 11.1 11.1-4.9 11.1-11.1z" fill="#202225"/><path d="m725.9 12.7c-2.5 0-4.2-1.7-4.2-4.2v-4.3c0-2.5 1.7-4.2 4.2-4.2s4.2 1.7 4.2 4.2v4.2c0 2.6-1.7 4.3-4.2 4.3zm0 33.5c-2.5 0-4.2-1.7-4.2-4.2v-4.2c0-2.5 1.7-4.2 4.2-4.2s4.2 1.7 4.2 4.2v4.2c0 2.6-1.7 4.2-4.2 4.2zm10.5-23c0-2.5 1.7-4.2 4.2-4.2h4.2c2.5 0 4.2 1.7 4.2 4.2s-1.7 4.2-4.2 4.2h-4.2c-2.1-.1-4.2-1.7-4.2-4.2zm-33.6 0c0-2.5 1.7-4.2 4.2-4.2h4.2c2.5 0 4.2 1.7 4.2 4.2s-1.7 4.2-4.2 4.2h-4.2c-2.1-.1-4.2-1.7-4.2-4.2z" fill="#9099a4"/><path d="m23.1 287c-2.5 0-4.2-1.7-4.2-4.2v-4.2c0-2.5 1.7-4.2 4.2-4.2s4.2 1.7 4.2 4.2v4.2c0 2.6-1.7 4.2-4.2 4.2zm0 33.6c-2.5 0-4.2-1.7-4.2-4.2v-4.2c0-2.5 1.7-4.2 4.2-4.2s4.2 1.7 4.2 4.2v4.2c0 2.6-1.7 4.2-4.2 4.2zm10.5-23.1c0-2.5 1.7-4.2 4.2-4.2h4.2c2.5 0 4.2 1.7 4.2 4.2s-1.7 4.2-4.2 4.2h-4.2c-2.1 0-4.2-1.6-4.2-4.2zm-33.6 0c0-2.5 1.7-4.2 4.2-4.2h4.2c2.5 0 4.2 1.7 4.2 4.2s-1.7 4.2-4.2 4.2h-4.2c-2.1 0-4.2-1.6-4.2-4.2z" fill="#9099a4"/><path d="m55.8 105.9-6 11.9c-1.2 3 1.8 5.4 4.2 4.2l11.9-6c.6-.6 1.8-.6 3 0l11.9 6c3 1.2 5.4-1.8 4.2-4.2l-6-11.9c-.6-.6-.6-1.8 0-3l6-11.9c1.2-3-1.8-5.4-4.2-4.2l-11.9 6c-.6.6-1.8.6-3 0l-11.9-6c-3-1.2-5.4 1.8-4.2 4.2l6 11.9c.6 1.2.6 1.8 0 3zm864.4 67.7-4.2-12.6c-1.3-3-5-2.5-5.9 0l-4.2 12.6c0 .8-.8 1.7-2.1 2.1l-12.6 4.2c-3 1.3-2.5 5 0 5.9l12.6 4.2c.8 0 1.7.8 2.1 2.1l4.2 12.6c1.3 3 5 2.5 5.9 0l4.2-12.6c0-.8.8-1.7 2.1-2.1l12.6-4.2c3-1.3 2.5-5 0-5.9l-12.6-4.2c-1.3-.5-1.7-.9-2.1-2.1z" fill="#9099a4"/><path d="m645.3 429.2h193.2l-95.9-171.1z" fill="#747f8d"/><path d="m742.6 408.3c8.2 0 14.9-6.7 14.9-14.9s-6.7-14.9-14.9-14.9-14.9 6.7-14.9 14.9 6.6 14.9 14.9 14.9zm11.9-83.7h-23.9v41.8h23.9z" fill="#f8f9f9"/></svg>