<svg fill="none" height="464" viewBox="0 0 240 464" width="240" xmlns="http://www.w3.org/2000/svg"><path d="m65 386 2 6h11l10 1 4-7-22-4z" fill="#acaec2"/><path d="m65 386-5 19 8 5h41l-3-6-9-7-5-11-9 5h-9z" fill="#818291"/><path d="m68 410 6-19h9l5 13 9 6" fill="#717280"/><path d="m143.33 378.11c-.3-.29-.81-.05-.59.28l2.8 4.27c-.33.09-.65.19-1 .27-4.2 1-9.13-1-11.11-4.51l-8.06-14.27 12.71-12.6 17.84 6.71c2.15.81 3.61 2.55 3.63 4.35.001 1.079-.055 2.157-.17 3.23l-6.54-3c-.31-.15-.56.16-.29.36l6.5 4.81c-1 5.07-3.89 11.07-11.52 14z" fill="#d8d8dd"/><path d="m36 307s8-4 11-10 6 3 3 7-5 5-5 5z" fill="#cacaca"/><path d="m53.63 316.78s28.58 16.47 51.62 2.9l-2.73 7.77s-30.22 17.77-61.33 8c0 0-7.11-5.34-1.78-22.23z" fill="#e4e4e4"/><path d="m110.09 318.41c-1.51 2.69-4.18 9.21.72 15.29.233.299.377.657.414 1.034.037.378-.034.757-.204 1.096l-2.13 4c-.132.254-.319.475-.547.648s-.492.294-.772.353-.57.056-.848-.01c-.279-.066-.539-.193-.763-.371-3.23-2.63-8.55-9.64.1-23.82.139-.226.348-.401.595-.497.248-.096.52-.107.775-.033l1.94.59c.171.05.33.138.463.257s.238.266.307.431.1.343.092.522c-.009.178-.057.353-.142.51z" fill="#f5911e"/><path d="m115.33 348.66c-.8 0-33.33-6-28 11.19 4 12.77 24.76 12 31.15 2.39z" fill="#9395a6"/><path d="m115 348.78s-2.7 32.89 19.52 30.22c0 0 15.11-.89 2.67-17.78l-3.52-10.49z" fill="#b6b7c6"/><path d="m141.63 329.22c-.89-29.33-24-17.77-24-17.77l.43 1.5-7.54 1.16c-11.52-1.77-7.11 8.89-7.11 8.89l17.21-1.11 7.68 26.89 8.89 2.67c21.33-10.67 4.44-22.23 4.44-22.23z" fill="#ba6e17"/><path d="m107.85 276.78c-2.09 8.124-2.042 16.65.14 24.749s6.423 15.496 12.31 21.471" stroke="#fff" stroke-miterlimit="10" stroke-width="11.56"/><path d="m185.64 291.39c-1.37-1.92-6.2-.84-11 2.36 1.764-1.951 3.382-4.03 4.84-6.22 5-7.38 7.4-14.45 5.43-15.77-1.37-.92-4.49 1.17-7.93 5 3.26-8 4.21-14.58 2-15.68-2.64-1.3-8.75 5.67-13.64 15.57-4.705 10.017-11.57 18.869-20.1 25.92-11.82 9.45-20.7 11.78-20.7 11.78l1.14 7.77c19.56-3.55 47.11-16.89 47.11-16.89 2.159-1.068 4.253-2.263 6.27-3.58 5.05-3.65 8.02-8.24 6.58-10.26z" fill="#fff"/><path d="m160.67 285c-2.87 4.548-6.223 8.772-10 12.6 4.379-.125 8.633-1.488 12.27-3.93 5.73-4.08 9.27-8.95 7.9-10.86-1.15-1.59-5.42-.59-10.17 2.19z" fill="#cacaca"/><path d="m113.19 346.11s-15.11-16-5.34-27.55l2.67-.89s2.67 6.22 3.56 6.22l.73-7.61 9.93-2.17s0 9.78 8.89 6.23l.89 27.55z" fill="#484482"/><path d="m133.63 380.78 5.37 14.22s-12 0-14.66 6.16c-.08.206-.109.428-.083.647s.105.428.23.61c.125.181.293.33.489.431.196.102.413.154.634.152h21.08c.224 0 .445-.056.643-.163.197-.106.365-.26.489-.447s.199-.402.22-.625c.02-.223-.015-.448-.102-.655l-9-21.22z" fill="#3a3445"/><path d="m70.84 385.56 16.25 1.35c.1424.014.2862-.002.4226-.045s.2625-.114.3709-.207c.1084-.094.1968-.208.2598-.337.0629-.128.0992-.268.1067-.411l1.52-21.28-5.59-6.39-.8 21.56s-8.75-1.34-13.27 4c-.1241.151-.2048.333-.2335.527-.0286.193-.0042.391.0708.572.0749.181.1976.338.3548.454s.3432.188.5379.207z" fill="#3a3445"/><path d="m130.08 379v1.44c-.002.354.079.704.235 1.021.155.318.382.596.663.812s.607.364.954.433c.348.069.706.056 1.048-.036l6.56-1.75c.388-.11.74-.319 1.022-.608.282-.288.484-.645.585-1.035.101-.391.098-.801-.008-1.189-.107-.389-.313-.744-.599-1.028l-.73-.73z" fill="#b6b7c6"/><path d="m87.28 354.36-2.61.29c-.3887.035-.7616.17-1.0821.393s-.5776.525-.746.877c-.1685.352-.2425.742-.2148 1.131.0278.389.1563.764.3729 1.089l5.76 8.64c.1995.301.4685.549.7842.724s.6689.272 1.0298.282c.3609.009.7188-.068 1.0436-.225.3248-.158.6068-.391.8224-.681l.48-.65z" fill="#9395a6"/><path d="m114.09 323.72v.17c-.89 0-3.56-6.22-3.56-6.22l-2.67.89c-9.77 11.55 5.34 27.55 5.34 27.55h.3l2.36-8.92z" fill="#413d75"/><path d="m115.86 337.22 8.88 10.67-11.55-1.78z" fill="#3a385b"/><path d="m142.65 354.44c-1-2.82-3.54-5.72-5.65-6.44l-23.81-1.89-1.78 1.78 20 4.85c-.402 1.827-.277 3.731.36 5.49 1.44 4.17 5.06 6.71 8.08 5.66s4.24-5.27 2.8-9.45z" fill="#ed9836"/><path d="m126.41 313.84c-.06 3.09.64 10.1 7.82 13.16.346.156.641.407.85.724s.323.686.33 1.066v4.52c.002.286-.059.57-.18.83-.12.26-.297.489-.517.673s-.477.316-.755.388c-.277.072-.567.082-.848.029-4.08-.8-12.07-4.49-11.1-21.08.022-.269.131-.524.312-.724.181-.201.423-.336.688-.386l2-.39c.173-.031.35-.023.52.022.17.046.327.129.461.243.134.113.241.255.313.415.073.16.109.334.106.51z" fill="#f5911e"/><path d="m113.36 278.52-3.33-1-9.09 4.48c-.339 2.716-.472 5.454-.4 8.19l2.84-2.78c1.782-1.753 3.874-3.161 6.17-4.15l3-1.33c.199-1.152.47-2.291.81-3.41z" fill="#e4e4e4"/><path d="m120.37 252c-.67 2.7-5.56 11.43-5.56 11.43s-.31-10 .35-12.7 2.36-4.61 3.8-4.26 2.04 2.81 1.41 5.53z" fill="#e4e4e4"/><g fill="#fff"><path d="m112.325 280.538c6.557-4.673 8.708-12.903 4.803-18.381-3.904-5.477-12.385-6.129-18.9418-1.456-6.5571 4.674-8.7076 12.904-4.8032 18.381 3.9043 5.478 12.385 6.13 18.942 1.456z"/><path d="m131.47 259.65c-3.29 1.64-17.18 2.4-17.18 2.4s8.94-10.65 12.24-12.3 7.07-.76 8.43 2-.19 6.25-3.49 7.9z"/><path d="m126.62 267.83c-2.81-.48-11.89-5.9-11.89-5.9s10.37-2 13.18-1.55 4.79 2.55 4.44 4.61-2.92 3.33-5.73 2.84z"/></g><path d="m93.63 272.34s4.45 14.22 8.89.89z" fill="#333"/><path d="m102.52 273.23c7.37 0 13.33-4.38 13.33-9.78-.001-1.202-.293-2.385-.85-3.45-4.36-3.33-11.25-3.19-16.78.75-3.0074 2.092-5.212 5.147-6.25 8.66 2.9091 2.558 6.6774 3.923 10.55 3.82z" fill="#5ae6dc"/><path d="m102.52 273.23c-.881-1.821-2.115-3.449-3.6284-4.792-1.5137-1.342-3.2782-2.371-5.1916-3.028 0 0-8 4.62-21 5.86-1.443.141-2.7927.777-3.82 1.8l-.16.16z" fill="#f5cd1b"/><path d="m80.5103 271.813c.5072-.218.8297-.601.7204-.855-.1093-.253-.6091-.282-1.1162-.063-.5072.219-.8297.601-.7204.855s.6091.282 1.1162.063z" fill="#bd9e15"/><path d="m106.08 267.89s.89-3.55 4.44-2.66" stroke="#000" stroke-linecap="round" stroke-miterlimit="10" stroke-width="1.78"/><path d="m32.35 222.9s1.38-11.79 18-13.62c12.09-1.32 19.16-16.81 19.16-16.81s4.6 16.36-8.48 25.24c0 0 10.71 1.14 12.66-6.68 0 0 1.87 14-15.88 21.08-5.1231 2.034-9.7047 5.228-13.3849 9.332-3.6802 4.103-6.3587 9.004-7.8251 14.318z" fill="#bd94fa"/><path d="m40.0001 242.34c1.73-4.27 8.28-12.89 18.27-16.87l.47-.2c-3.11-1.08-12.39-.62-12.39-.62 4.79 0 12.09-13.42 12.09-13.42-3.39 5-7.52 2.13-11.82 2.49-8 .66-8.06 7.36-8.06 7.36z" fill="#b78afa"/><path d="m30.91 211.7 20.17 156.04" stroke="#e08055" stroke-linecap="round" stroke-miterlimit="10" stroke-width="4"/><path d="m41.19 335.45s-7.9999-3.56-6.2199-27.56c0 0 .8899-5.33 9.7799-3.55s16.0001 5.33 16.8801 12.44c.8799 7.11-.19 11.55-4.6301 14.22-4.44 2.67-20.25-3.55-15.81 4.45z" fill="#fff"/><path d="m98 276c-.8685-.005-1.7312.141-2.55.43 1.4 2.33 3.45 4.08 5.62.22-.964-.438-2.0116-.659-3.07-.65z" fill="#ff7baa"/><path d="m41.19 335.45s-7.9999-3.56-6.2199-27.56c0 0 .8899-5.33 9.7799-3.55s16.0001 5.33 16.8801 12.44c.8799 7.11-.19 11.55-4.6301 14.22-4.44 2.67-20.25-3.55-15.81 4.45z" fill="#fff"/><path d="m61.81 318.57c0-.58-.1-1.17-.18-1.79 0-.14-.05-.27-.07-.4-4.92-4.79-12.56-5.38-12.56-5.38 5.32 1.18 9.92 4.8 12.81 7.57z" fill="#fff"/><path d="m61.41 325.19c.147-.536.2605-1.08.34-1.63-4.91-4.95-12.75-5.56-12.75-5.56 5.07 1.13 9.51 4.48 12.41 7.19z" fill="#fff"/><path d="m120 327c1.105 0 2-.895 2-2s-.895-2-2-2-2 .895-2 2 .895 2 2 2z" fill="#737093"/><path d="m137 348-1.45-.11c-.365.996-.551 2.049-.55 3.11 0 4.42 3.13 8 7 8 .399-.004.798-.044 1.19-.12.144-1.502-.04-3.017-.54-4.44-.98-2.82-3.54-5.72-5.65-6.44z" fill="#e0851b"/><path d="m125.89 368.3s8 8 13 1c0 0-1 13-13-1z" fill="#aaacbe"/><path d="m65.7352 321.207c1.6287-2.426-1.6972-7.512-7.4286-11.36-5.7314-3.849-11.6979-5.002-13.3265-2.577-1.6287 2.426 1.6972 7.512 7.4286 11.36 5.7314 3.849 11.6979 5.002 13.3265 2.577z" fill="#fff"/></svg>