<svg height="192" viewBox="0 0 378 192" width="378" xmlns="http://www.w3.org/2000/svg" xmlns:xlink="http://www.w3.org/1999/xlink"><mask id="a" fill="#fff"><path d="m0 95.667v95.333h326.916v-190.667h-326.916z" fill="#fff" fill-rule="evenodd"/></mask><mask id="b" fill="#fff"><path d="m42.06.263v47.336h-42v-47.336z" fill="#fff" fill-rule="evenodd"/></mask><g fill="none" fill-rule="evenodd"><path d="m287.648 22.5531v.01c0 12.271-9.948 22.219-22.22 22.219h-6.188c-11.178 0-20.24 9.062-20.24 20.241v.001c0 11.177 9.062 20.239 20.24 20.239h44.008c13.072 0 23.668 10.597 23.668 23.668s-10.596 23.668-23.668 23.668h-45.048c-16.127 0-29.2 13.073-29.2 29.2v.001c0 16.127-13.073 29.2-29.2 29.2h-157.843c-12.675 0-22.95-10.275-22.95-22.95v-.001c0-12.675 10.275-22.95 22.95-22.95h7.737c16.486 0 29.85-13.364 29.85-29.85v-.008c0-16.485-13.364-29.849-29.85-29.849h-7.165c-23.488 0-42.529-19.041-42.529-42.529 0-23.489 19.041-42.53 42.529-42.53h222.899c12.272 0 22.22 9.949 22.22 22.22" fill="#4f545c" fill-opacity=".3" mask="url(#a)" transform="translate(0 .667)"/><path d="m94.004 61.266c0 1.654 1.346 3 3 3h42c1.654 0 3-1.346 3-3v-26-10c0-1.654-1.346-3-3-3h-42c-1.654 0-3 1.346-3 3v10zm79.5762 13h8.848c.773-1.763 2.531-3 4.576-3h15v-6.025c-.839.634-1.87 1.025-3 1.025h-42c-1.13 0-2.162-.391-3-1.025v6.025h15c2.045 0 3.802 1.237 4.576 3m73.4238-3h15v-6.025c-.838.634-1.87 1.025-3 1.025h-42c-1.13 0-2.162-.391-3-1.025v6.025h15c2.045 0 3.802 1.237 4.576 3h4.424c.552 0 1 .447 1 1h3.101c.464-2.279 2.484-4 4.899-4" fill="#36393e"/><path d="m145.8917 95.0706c-.291-.06-.498-.315-.498-.612v-1.165c0-.42.403-.713.806-.599 1.571.442 2.77.063 2.77-1.373 0-1.474-2.285-1.96-3.443-.808-.239.239-.612.274-.868.055l-1.434-1.223c-.237-.202-.291-.549-.125-.812 2.975-4.708 9.904-2.527 9.904 2.536-.516 4.944-5.503 4.331-7.112 4.001zm1.855 6.771c-1.196 0-2.152-.957-2.152-2.153 0-1.218.956-2.196 2.152-2.196 1.218 0 2.197.978 2.197 2.196 0 1.196-.979 2.153-2.197 2.153zm24.257-15.576v-10c0-1.654-1.345-3-3-3h-42c-1.654 0-3 1.346-3 3v10 26c0 1.655 1.346 3 3 3h42c1.655 0 3-1.345 3-3zm21.5765 39.0004h8.848c.773-1.763 2.531-3 4.576-3h25v-6.025c-.839.634-1.87 1.025-3 1.025h-42c-1.13 0-2.162-.391-3-1.025v6.025h5c2.045 0 3.802 1.237 4.576 3m98.4238-9.0254c-.838.635-1.87 1.025-3 1.025h-42c-1.13 0-2.162-.39-3-1.025v6.025h48zm-210 51c-.838.635-1.87 1.025-3 1.025h-32c-1.13 0-2.162-.39-3-1.025v6.025c0 1.655 1.346 3 3 3h32c1.654 0 3-1.345 3-3zm50 0c-.838.635-1.87 1.025-3 1.025h-32c-1.13 0-2.162-.39-3-1.025v6.025c0 1.655 1.346 3 3 3h32c1.654 0 3-1.345 3-3zm-3-42.9746h-32c-1.654 0-3 1.346-3 3v10 26c0 1.654 1.346 3 3 3h32c1.654 0 3-1.346 3-3v-26-10c0-1.654-1.346-3-3-3m28.251 44h-10.251c-1.13 0-2.162-.391-3-1.025v6.025c0 1.654 1.346 3 3 3h42c1.654 0 3-1.346 3-3v-6.025c-.838.634-1.87 1.025-3 1.025h-26.082c-.552 0-1-.447-1-1h-3.667c0 .553-.448 1-1 1" fill="#36393e"/><g fill="#1f2225"><path d="m184.004 22.266h1.583c.553 0 1-.447 1-1s-.447-1-1-1h-1.583c-.552 0-1 .447-1 1s.448 1 1 1m-123.582 94c0-.553-.448-1-1-1h-45.412c-.552 0-1 .447-1 1 .001.553.448 1 1 1h45.412c.552 0 1-.447 1-1m4.33 1c.552 0 1-.447 1-1s-.448-1-1-1h-.541c-.552 0-1 .447-1 1 .001.553.448 1 1 1z"/><path d="m202.4278 125.266h-8.848c-.774-1.763-2.531-3-4.576-3h-5v-6.025c.839.634 1.87 1.025 3 1.025h42c1.13 0 2.162-.391 3-1.025v6.025h-25c-2.045 0-3.803 1.237-4.576 3zm-10.424 12v26c0 1.657-1.343 3-3 3h-26.082c-.552 0-1 .447-1 1s.448 1 1 1h26.082.034c1.613-.012 2.966 1.187 2.966 2.8v2.2c0 1.657-1.343 3-3 3h-42c-1.657 0-3-1.343-3-3v-2.2c0-1.613 1.354-2.812 2.966-2.8h.034 10.251c.552 0 1-.447 1-1s-.448-1-1-1h-10.251c-1.657 0-3-1.343-3-3v-26-10c0-1.657 1.343-3 3-3h42c1.657 0 3 1.343 3 3zm-49.576-12h-8.848c-.774-1.763-2.531-3-4.576-3h-5v-6.025c.839.634 1.87 1.025 3 1.025h42c1.13 0 2.162-.391 3-1.025v6.025h-25c-2.045 0-3.803 1.237-4.576 3zm-10.424 12v24.999c0 1.654-1.346 3-3 3h-32c-1.654 0-3-1.346-3-3v-24.999-10c0-1.654 1.346-3 3-3h32c1.654 0 3 1.346 3 3zm0 36c0 1.657-1.343 3-3 3h-32c-1.657 0-3-1.343-3-3v-2.2c0-1.613 1.354-2.812 2.966-2.8h.034 32 .034c1.613-.012 2.966 1.187 2.966 2.8zm-14-52.001h-2c-2.209 0-4-1.791-4-4v-4.999-26-8c0-1.104.896-2 2-2h6c1.105 0 2 .896 2 2v8 26 4.999c0 2.209-1.791 4-4 4zm-11-49.999h-10.49c-1.386 0-2.51-1.124-2.51-2.51v-.004c0-1.443 1.213-2.601 2.652-2.499.115.009.231.013.348.013h42c.117 0 .234-.004.349-.013 1.439-.102 2.651 1.056 2.651 2.499v.004c0 1.386-1.123 2.51-2.51 2.51h-12.49c-1.636 0-3.088.792-3.999 2.011-.491.656-1.303.989-2.122.989h-7.758c-.819 0-1.631-.333-2.121-.989-.912-1.219-2.364-2.011-4-2.011zm-13-36v-10c0-1.654 1.346-3 3-3h42c1.654 0 3 1.346 3 3v10 26c0 1.654-1.346 3-3 3h-42c-1.654 0-3-1.346-3-3zm75 38c1.654 0 3 1.346 3 3v10 26c0 1.654-1.346 3-3 3h-42c-1.654 0-3-1.346-3-3v-26-10c0-1.654 1.346-3 3-3zm5 39v-26-8c0-1.104.896-2 2-2h4c1.105 0 2 .896 2 2v8 26 4.999c0 2.209-1.791 4-4 4s-4-1.791-4-4zm-20-43.514c0-1.443 1.213-2.601 2.652-2.499.115.009.231.013.348.013h42c.117 0 .234-.004.349-.013 1.439-.102 2.651 1.056 2.651 2.499v.004c0 1.386-1.123 2.51-2.51 2.51h-12.49c-1.636 0-3.088.792-3.999 2.011-.491.656-1.303.989-2.122.989h-5.758c-.819 0-1.631-.333-2.121-.989-.912-1.219-2.364-2.011-4-2.011h-12.49c-1.386 0-2.51-1.124-2.51-2.51zm75 4.514c1.654 0 3 1.346 3 3v10 24.999c0 1.654-1.346 3-3 3h-42c-1.654 0-3-1.346-3-3v-24.999-10c0-1.654 1.346-3 3-3zm-15-4.514c0-1.443 1.213-2.601 2.652-2.499.115.009.231.013.348.013h42c.117 0 .234-.004.349-.013 1.439-.102 2.651 1.056 2.651 2.499v.004c0 1.386-1.123 2.51-2.51 2.51h-12.49c-2.414 0-4.434 1.721-4.899 4-.066.323-.101.658-.101 1v10 26 4.999c0 2.209-1.791 4-4 4s-4-1.791-4-4v-4.999-26-8c0-1.104.896-2 2-2h2c.552 0 1-.447 1-1s-.448-1-1-1h-2.879c-.819 0-1.631-.333-2.121-.989-.912-1.219-2.364-2.011-4-2.011h-12.49c-1.386 0-2.51-1.124-2.51-2.51zm0-33.486v-10c0-1.654 1.346-3 3-3h42c1.654 0 3 1.346 3 3v10 26c0 1.654-1.346 3-3 3h-42c-1.654 0-3-1.346-3-3zm75 38c1.654 0 3 1.346 3 3v10 24.999c0 1.654-1.346 3-3 3h-42c-1.654 0-3-1.346-3-3v-24.999-10c0-1.654 1.346-3 3-3zm3 49h-48v-6.025c.839.634 1.87 1.025 3 1.025h42c1.13 0 2.162-.391 3-1.025zm-210 15v26c0 1.654-1.346 3-3 3h-32c-1.654 0-3-1.346-3-3v-26-10c0-1.654 1.346-3 3-3h32c1.654 0 3 1.346 3 3zm0 36c0 1.654-1.346 3-3 3h-32c-1.654 0-3-1.346-3-3v-6.025c.839.634 1.87 1.025 3 1.025h32c1.13 0 2.162-.391 3-1.025zm209.737-7h-84.737c-1.657 0-3-1.343-3-3v-26-10c0-1.657 1.343-3 3-3h107.665c.552 0 .999-.447 1-1 0-.553-.448-1-1-1h-16.665c-2.209 0-4-1.791-4-4v-6-26-10c0-2.762-2.239-5-5-5h-15c-5.523 0-10-4.478-10-10v-26-10c0-2.762-2.239-5-5-5h-42c-2.761 0-5 2.238-5 5v10 26 3.998c0 2.21-1.791 4-4 4s-4-1.79-4-4v-3.998-26-10c0-2.762-2.239-5-5-5h-9.749c-.552 0-1 .447-1 1s.448 1 1 1h9.749c1.657 0 3 1.343 3 3v10 23.998c0 1.657-1.343 3-3 3h-42c-1.657 0-3-1.343-3-3v-23.998-10c0-1.657 1.343-3 3-3h23.084c.552 0 1-.447 1-1s-.448-1-1-1h-23.084c-2.761 0-5 2.238-5 5v10 26 3.998c0 2.21-1.791 4-4 4s-4-1.79-4-4v-3.998-26-10c0-2.762-2.239-5-5-5h-42c-2.761 0-5 2.238-5 5v10 26c0 5.522-4.477 10-10 10h-44.582c-.553 0-1 .447-1 1s.447 1 1 1h69.582c1.657 0 3 1.343 3 3v10 26c0 1.657-1.343 3-3 3h-31.585c-.553 0-1 .447-1 1s.447 1 1 1h31.585c1.13 0 2.162-.391 3-1.025v2.025c0 2.209-1.791 4-4 4h-9c-2.045 0-3.803 1.237-4.576 3h-8.848c-.774-1.763-2.531-3-4.576-3h-32c-2.045 0-3.803 1.237-4.576 3h-8.789c-.552 0-1 .447-1 1s.448 1 1 1h.365c4.419 0 8 3.582 8 8v2 26 10c0 2.762 2.239 5 5 5h32c2.761 0 5-2.238 5-5v-10-26-8c0-1.104.896-2 2-2h4c1.105 0 2 .896 2 2v8 26 10c0 2.762 2.239 5 5 5h32c2.761 0 5-2.238 5-5v-10-26-8c0-1.104.896-2 2-2h4c1.105 0 2 .896 2 2v8 26 10c0 2.762 2.239 5 5 5h42c2.761 0 5-2.238 5-5v-10-26-8c0-1.104.896-2 2-2h4c1.105 0 2 .896 2 2v8 26 10c0 2.762 2.239 5 5 5h71.733c.552 0 1-.447 1-1s-.448-1-1-1h-71.733c-1.657 0-3-1.343-3-3v-2.044c0-1.637 1.33-2.962 2.966-2.956h.034 84.737c.552 0 1-.447 1-1s-.448-1-1-1zm7.2466 0h-2.246c-.552 0-1 .447-1 1s.448 1 1 1h2.246c.552 0 1-.447 1-1s-.448-1-1-1"/><path d="m147.7472 97.4925c-1.196 0-2.153.979-2.153 2.196 0 1.197.957 2.154 2.153 2.154 1.218 0 2.196-.957 2.196-2.154 0-1.217-.978-2.196-2.196-2.196m-3.0884-6.9238c.256.219.629.184.868-.055 1.158-1.152 3.443-.666 3.443.808 0 1.436-1.199 1.815-2.77 1.373-.403-.114-.806.179-.806.599v1.165c0 .297.207.552.498.612 1.609.33 6.596.943 7.112-4.001 0-5.063-6.929-7.244-9.904-2.536-.166.263-.112.61.124.812zm23.0884 57.9238c-1.196 0-2.153.979-2.153 2.196 0 1.197.957 2.154 2.153 2.154 1.218 0 2.196-.957 2.196-2.154 0-1.217-.978-2.196-2.196-2.196m-4.647-8.959c-.166.263-.113.61.124.812l1.435 1.223c.256.219.629.184.868-.055 1.157-1.152 3.443-.666 3.443.808 0 1.437-1.199 1.816-2.771 1.373-.403-.114-.806.179-.806.599v1.165c0 .297.207.553.499.612 1.608.33 6.596.943 7.112-4.001 0-5.063-6.93-7.244-9.904-2.536m-95.9121-98.2675c.834 0 1.51.676 1.51 1.51v.001c0 .552.448 1 1 1 .553 0 1-.448 1-1v-.001c0-.834.676-1.51 1.51-1.51.552 0 1-.447 1-1s-.448-1-1-1c-.834 0-1.51-.676-1.51-1.51 0-.552-.447-1-1-1-.552 0-1 .448-1 1 0 .834-.676 1.51-1.51 1.51-.552 0-1 .447-1 1s.448 1 1 1m240.3901 60.4033c.834 0 1.51.677 1.51 1.51 0 .553.448 1 1 1 .553 0 1-.447 1-1 0-.833.677-1.51 1.51-1.51h.001c.552 0 1-.447 1-1s-.448-1-1-1h-.001c-.833 0-1.51-.676-1.51-1.51 0-.552-.447-1-1-1-.552 0-1 .448-1 1 0 .834-.676 1.51-1.51 1.51-.552 0-1 .447-1 1s.448 1 1 1m-276.6509-43.4512c.256 0 .512-.098.707-.293l1.184-1.184c.39-.39.39-1.023 0-1.414-.391-.39-1.024-.39-1.414 0l-1.184 1.184c-.391.391-.391 1.023 0 1.414.195.195.451.293.707.293m-5.916 5.916c.256 0 .512-.098.707-.293l1.183-1.184c.391-.39.391-1.023 0-1.414-.39-.39-1.024-.39-1.414 0l-1.183 1.184c-.391.391-.391 1.023 0 1.414.195.195.451.293.707.293m6.3926-.293c.195.195.451.293.707.293s.512-.098.707-.293c.391-.391.391-1.023 0-1.414l-1.184-1.184c-.39-.39-1.023-.39-1.414 0-.39.391-.39 1.024 0 1.414zm-5.9165-5.916c.195.195.451.293.707.293s.512-.098.707-.293c.391-.391.391-1.023 0-1.414l-1.183-1.184c-.391-.39-1.023-.39-1.414 0-.391.391-.391 1.024 0 1.414zm264.9727-9.4736c.256 0 .512-.098.707-.293l1.183-1.184c.391-.39.391-1.023 0-1.414-.39-.39-1.024-.39-1.414 0l-1.183 1.184c-.391.391-.391 1.023 0 1.414.195.195.451.293.707.293m-5.9166 5.916c.256 0 .512-.098.707-.293l1.183-1.184c.391-.39.391-1.023 0-1.414-.39-.39-1.024-.39-1.414 0l-1.183 1.184c-.391.391-.391 1.023 0 1.414.195.195.451.293.707.293m6.3926-.293c.195.195.451.293.707.293s.512-.098.707-.293c.391-.391.391-1.023 0-1.414l-1.183-1.184c-.391-.39-1.023-.39-1.414 0-.391.391-.391 1.024 0 1.414zm-5.9165-5.916c.195.195.451.293.707.293s.512-.098.707-.293c.391-.391.391-1.023 0-1.414l-1.183-1.184c-.391-.39-1.023-.39-1.414 0-.391.391-.391 1.024 0 1.414zm-226.1445-28.8925c.833 0 1.51.678 1.51 1.511 0 .832-.677 1.51-1.51 1.51s-1.51-.678-1.51-1.51c0-.833.677-1.511 1.51-1.511m0 5.021c1.936 0 3.51-1.575 3.51-3.51 0-1.936-1.574-3.511-3.51-3.511-1.935 0-3.51 1.575-3.51 3.511 0 1.935 1.575 3.51 3.51 3.51"/></g><path d="m21.0602 47.599c11.55 0 21-9.45 21-21v-5.336c0-11.55-9.45-21-21-21s-21 9.45-21 21v5.336c0 11.55 9.45 21 21 21" fill="#4f545c" mask="url(#b)" transform="translate(334 85.667)"/><path d="m229.004 73.266c1.654 0 3 1.346 3 3v10 24.999c0 1.654-1.346 3-3 3h-42c-1.654 0-3-1.346-3-3v-24.999-10c0-1.654 1.346-3 3-3zm-147 64v26c0 1.654-1.346 3-3 3h-32c-1.654 0-3-1.346-3-3v-26-10c0-1.654 1.346-3 3-3h32c1.654 0 3 1.346 3 3z" fill="#36393e"/><path d="m107.004 71.266h-10.49c-1.386 0-2.51-1.124-2.51-2.51v-.004c0-1.443 1.212-2.601 2.651-2.499.116.009.232.013.349.013h42c.117 0 .233-.004.349-.013 1.439-.102 2.651 1.056 2.651 2.499v.004c0 1.386-1.124 2.51-2.51 2.51h-12.49c-1.636 0-3.088.792-4 2.011-.49.656-1.302.989-2.121.989h-7.758c-.819 0-1.631-.333-2.121-.989-.912-1.219-2.364-2.011-4-2.011" fill="#4f545c"/><path d="m0 0h378v192h-378z"/></g></svg>