<svg width="485" height="44" viewBox="0 0 485 44" fill="none" xmlns="http://www.w3.org/2000/svg">
<path opacity="0.75" d="M309 17.8605C309.005 15.9498 308.634 14.0567 307.908 12.2894C307.181 10.5221 306.114 8.91518 304.766 7.56037C303.419 6.20556 301.818 5.12941 300.055 4.39335C298.291 3.6573 296.4 3.27575 294.49 3.27051H279.35C277.438 3.27313 275.545 3.6528 273.78 4.38781C272.015 5.12281 270.412 6.19871 269.064 7.55391C267.715 8.90912 266.647 10.517 265.92 12.2856C265.194 14.0541 264.823 15.9486 264.83 17.8605C264.83 18.6349 264.522 19.3777 263.975 19.9253C263.427 20.4729 262.684 20.7805 261.91 20.7805H257.38C255.741 20.7805 254.119 21.1038 252.606 21.732C251.093 22.3602 249.719 23.2808 248.562 24.4412C247.405 25.6015 246.489 26.9787 245.866 28.4938C245.243 30.0089 244.924 31.6322 244.93 33.2705H328.93C328.93 30.627 327.883 28.091 326.019 26.2171C324.154 24.3431 321.623 23.2837 318.98 23.2705H314.42C312.984 23.2705 311.607 22.7008 310.591 21.6866C309.575 20.6723 309.002 19.2962 309 17.8605Z" fill="white" fill-opacity="0.2"/>
<path opacity="0.75" d="M433.13 43.5303H484.13C484.106 41.0629 483.104 38.7058 481.343 36.977C479.582 35.2481 477.207 34.289 474.74 34.3103H469.33C468.905 34.313 468.496 34.1473 468.192 33.8494C467.888 33.5515 467.715 33.1456 467.71 32.7203C467.697 31.2368 467.391 29.7705 466.811 28.405C466.231 27.0396 465.388 25.8019 464.329 24.7627C463.27 23.7235 462.017 22.9031 460.641 22.3484C459.265 21.7938 457.793 21.5158 456.31 21.5303H455.86C454.376 21.5158 452.904 21.7937 451.527 22.3482C450.151 22.9028 448.897 23.723 447.837 24.7621C446.778 25.8012 445.933 27.0388 445.352 28.4043C444.771 29.7698 444.464 31.2364 444.45 32.7203V36.0803C444.446 36.5058 444.358 36.9264 444.192 37.318C444.025 37.7096 443.783 38.0645 443.48 38.3626C443.176 38.6607 442.817 38.896 442.422 39.0552C442.027 39.2144 441.605 39.2943 441.18 39.2903H437.46C436.897 39.2824 436.337 39.386 435.814 39.5952C435.291 39.8043 434.815 40.1149 434.412 40.509C434.01 40.9031 433.689 41.373 433.469 41.8915C433.249 42.4101 433.134 42.967 433.13 43.5303Z" fill="white" fill-opacity="0.2"/>
<path opacity="0.75" d="M22.26 12.7905C21.8321 12.7932 21.4205 12.6265 21.1151 12.3267C20.8097 12.0269 20.6353 11.6185 20.63 11.1905C20.6169 9.70705 20.3116 8.24068 19.7315 6.87526C19.1514 5.50983 18.3079 4.27213 17.2491 3.2329C16.1904 2.19367 14.9372 1.37329 13.5612 0.818662C12.1853 0.264033 10.7135 -0.0139718 9.23 0.000540205H8.78C7.10891 -0.00443341 5.45698 0.356439 3.9402 1.05782C2.42342 1.7592 1.07854 2.7841 0 4.06054L0 22.0005H37.06C37.0336 19.5348 36.0301 17.1803 34.2697 15.4536C32.5093 13.727 30.1358 12.7692 27.67 12.7905H22.26Z" fill="white" fill-opacity="0.2"/>
<path opacity="0.75" d="M389.42 6.00053C389.42 3.00053 387.25 0.540527 384.56 0.540527H379.5C376.82 0.540527 374.65 2.98053 374.65 6.00053C374.664 6.14 374.649 6.28087 374.605 6.41398C374.561 6.5471 374.489 6.66949 374.395 6.77321C374.301 6.87694 374.186 6.95968 374.057 7.01607C373.929 7.07245 373.79 7.10123 373.65 7.10053H372.14C370.981 7.17528 369.897 7.70246 369.123 8.56849C368.348 9.43451 367.945 10.5701 368 11.7305H396.08C396.127 10.7959 395.803 9.88056 395.18 9.1825C394.557 8.48444 393.684 8.05982 392.75 8.00053H391.23C390.727 7.96955 390.256 7.74297 389.918 7.36922C389.579 6.99548 389.401 6.50424 389.42 6.00053Z" fill="white" fill-opacity="0.2"/>
</svg>
