<svg id="Layer_1" data-name="Layer 1" xmlns="http://www.w3.org/2000/svg" viewBox="0 0 71.5 44.14"><defs><style>.cls-4{fill:#fff}.cls-5{fill:#b9bbbe}</style></defs><g id="Upload_-_Light" data-name="Upload - Light"><path fill="none" d="M69.7 14.43z"/><path d="M26.17 42.14H55.1a8.89 8.89 0 0 0 8-5.13 7 7 0 0 1-5.36-4.87h-8.88a2 2 0 0 1-2-2v-13h-4.15a2 2 0 0 1-1.84-1.23 2 2 0 0 1 .43-2.18L47.06 8A18.73 18.73 0 0 0 44 6.33a1 1 0 0 1-1.26.58 18.16 18.16 0 0 0-23.41 11.63 1 1 0 0 1-.51.6 1 1 0 0 1-.79 0A11.85 11.85 0 0 0 6.14 39.26l5.56-7.47a1 1 0 0 1 1.6 0l8 10.75a1 1 0 0 1 .19.6h3.68a1 1 0 0 1 1-1z" fill="#f6f6f7"/><path d="M69.5 30.14a5 5 0 0 0-4.64-5v5a2 2 0 0 1-2 2h-2.94a5 5 0 0 0 9.58-2z" fill="#dcddde"/><path class="cls-4" d="M69 15.14L55.86 2 42.71 15.14h4.15a2 2 0 0 1 2 2v13h14v-13a2 2 0 0 1 2-2H69l.7-.71zM6.49 42.14h12.02l-6.01-8.07-6.01 8.07z"/><path class="cls-5" d="M8 6.14h.5a1 1 0 0 1 1 1v.51a1 1 0 0 0 2 0v-.51a1 1 0 0 1 1-1h.5a1 1 0 0 0 0-2h-.5a1 1 0 0 1-1-1v-.51a1 1 0 1 0-2 0v.51a1 1 0 0 1-1 1H8a1 1 0 0 0 0 2zM71.5 30.14a7 7 0 0 0-3.37-6 7 7 0 0 1-3.27-6 1 1 0 0 1 1-1H69a2 2 0 0 0 1.41-3.41L57.27.58a2 2 0 0 0-2.83 0L47.06 8l-5.76 5.73a2 2 0 0 0-.43 2.18 2 2 0 0 0 1.84 1.23h3.15a1 1 0 0 1 1 1v12a2 2 0 0 0 2 2h6.24A4.32 4.32 0 0 1 58.68 34a7 7 0 0 0 2.55 2.32 1.84 1.84 0 0 1 .49 2.84 8.85 8.85 0 0 1-6.62 3H26.17a1 1 0 0 0-1 1 1 1 0 0 0 1 1H55.1a10.89 10.89 0 0 0 10.18-7 7 7 0 0 0 6.22-7.02zm-6.08 4.92a5 5 0 0 1-3.2-.47 1.31 1.31 0 0 1 .64-2.45 2 2 0 0 0 2-2v-3.27a1.3 1.3 0 0 1 1.87-1.18 5 5 0 0 1-1.31 9.37zm4.28-20.63l-.7.71h-4.14a2 2 0 0 0-2 2v13h-14v-13a2 2 0 0 0-2-2h-4.15L55.86 2 69 15.14l.7-.71zM21.3 42.54l-8-10.75a1 1 0 0 0-1.6 0l-3.27 4.39a3 3 0 0 1-5.08-.42A11.83 11.83 0 0 1 10.13 19a11.71 11.71 0 0 1 7.9.16 1 1 0 0 0 .79 0 1 1 0 0 0 .51-.6A18.16 18.16 0 0 1 42.7 6.91a1 1 0 0 0 1.3-.58A1 1 0 0 0 43.37 5a20.14 20.14 0 0 0-25.61 12 13.71 13.71 0 0 0-7.57-.07 13.85 13.85 0 0 0-5.25 24L3.7 42.54a1 1 0 0 0-.09 1.05 1 1 0 0 0 .89.55h16a1 1 0 0 0 .89-.55 1.05 1.05 0 0 0-.09-1.05zm-14.81-.4l6-8.07 6 8.07z"/></g></svg>