<svg width="246" height="172" viewBox="0 0 246 172" fill="none" xmlns="http://www.w3.org/2000/svg">
<path d="M11.0946 130.14C9.03803 134.214 8.85107 140.116 8.85107 140.116C8.85107 140.116 21.2987 150.962 51.7486 157.09C53.4141 154.448 54.8181 151.65 55.9404 148.736C55.9404 148.736 12.8363 128.617 11.0946 130.14Z" fill="#5865F2"/>
<path d="M13.9088 143.581C14.2827 143.802 14.6714 144.033 15.0896 144.269C15.4242 140.696 16.1277 135.816 17.589 131.924L16.4377 131.492C14.9863 135.33 14.268 140.003 13.9088 143.581Z" fill="#3442D9"/>
<path d="M21.7611 133.57L20.6197 133.108C18.8632 136.75 17.9481 141.625 17.4807 145.581C17.8596 145.782 18.2532 145.984 18.6615 146.19C19.1092 142.21 19.9998 137.177 21.7611 133.57Z" fill="#3442D9"/>
<path d="M26.3712 135.492L25.2199 135C23.0452 138.16 21.8595 143.089 21.2101 147.429L22.3909 147.969C23.0206 143.581 24.1916 138.514 26.3712 135.492Z" fill="#3442D9"/>
<path d="M35.7387 139.566L34.6071 139.074C33.077 143.158 32.3636 148.176 32.0339 151.807C32.4275 151.945 32.8359 152.082 33.2443 152.215C33.5591 148.637 34.2479 143.586 35.7387 139.566Z" fill="#3442D9"/>
<path d="M39.8176 141.374L38.6909 140.883C37.028 144.46 36.1473 149.153 35.6848 153.006L36.8902 153.38C37.3379 149.552 38.194 144.853 39.8176 141.374Z" fill="#3442D9"/>
<path d="M44.28 143.394L43.1434 142.878C41.2542 145.827 40.1521 150.181 39.5076 154.142L40.713 154.481C41.3624 150.525 42.4448 146.21 44.28 143.394Z" fill="#3442D9"/>
<path d="M46.8778 68.1267C46.8778 68.1267 36.4818 58.7453 19.3651 65.129C19.162 65.204 18.977 65.3211 18.8223 65.4726C18.6677 65.6241 18.5469 65.8065 18.4679 66.008C18.3889 66.2094 18.3535 66.4253 18.364 66.6414C18.3745 66.8575 18.4306 67.0689 18.5287 67.2618C20.664 71.4733 27.2913 82.9482 35.8717 82.4469L46.8778 68.1267Z" fill="#5865F2"/>
<path d="M19.3159 68.7508C19.5029 69.0899 19.7046 69.4536 19.926 69.832C25.4167 67.8909 35.857 65.4878 44.7523 70.8935L45.5051 69.9106C36.0636 64.1068 24.9936 66.7163 19.3159 68.7508Z" fill="#3442D9"/>
<path d="M42.2087 74.2057L42.991 73.1835C35.5815 70.3971 27.6062 71.6404 22.1056 73.2376C22.3516 73.5865 22.5976 73.9354 22.8731 74.2892C28.0736 72.8297 35.3896 71.7485 42.2087 74.2057Z" fill="#3442D9"/>
<path d="M40.0585 76.997C35.109 76.0142 30.1349 76.7022 25.9873 77.8816C26.3317 78.2158 26.681 78.5401 27.0451 78.8645C30.7105 77.8816 34.9712 77.3558 39.2221 78.0978L40.0585 76.997Z" fill="#3442D9"/>
<path d="M95.9694 24.1488C95.9694 24.1488 85.6374 3.83804 68.0583 9.17495C67.6443 9.30142 67.2698 9.53192 66.9705 9.84439C66.6713 10.1569 66.4573 10.5408 66.3492 10.9595C66.2411 11.3782 66.2424 11.8176 66.353 12.2357C66.4635 12.6538 66.6797 13.0365 66.9808 13.3472L74.8528 21.4607C74.8528 21.4607 87.7924 19.8684 95.9694 24.1488Z" fill="#5865F2"/>
<path d="M66.3658 12.2857C66.4776 12.6887 66.6891 13.0572 66.9808 13.3571L67.0202 13.4013C71.7975 12.4184 82.7642 11.5339 89.4603 21.9816C90.0163 22.0947 90.5722 22.2175 91.1233 22.36C83.9548 9.87774 71.34 11.18 66.3658 12.2857Z" fill="#3442D9"/>
<path d="M77.4999 16.2172C74.9371 15.565 72.2556 15.5313 69.6771 16.1189L70.7103 17.1853C72.8575 16.7895 75.0651 16.865 77.1801 17.4064C79.6428 18.0833 81.8754 19.4148 83.6401 21.2592C84.2305 21.2936 84.8356 21.3379 85.4457 21.3919C83.3914 18.8936 80.6173 17.0869 77.4999 16.2172Z" fill="#3442D9"/>
<path d="M78.4346 127.078L78.7396 135.02L136.028 161.007L167.639 139.718L165.154 127.368L78.4346 127.078Z" fill="url(#paint0_linear_996_153200)"/>
<path d="M78.4346 127.079L136.028 151.178L167.88 130.976L101.445 113.21L78.4346 127.079Z" fill="#808AFF"/>
<path d="M151.015 86.3587L144.938 77.8963C144.828 77.7448 144.679 77.6266 144.505 77.555C144.332 77.4834 144.143 77.4611 143.958 77.4906C143.773 77.5201 143.599 77.6003 143.457 77.7223C143.315 77.8442 143.21 78.0031 143.152 78.1814L139.866 88.7618L147.738 101.819L152.063 91.4499L151.015 86.3587Z" fill="#EB459F"/>
<path d="M146.025 104.964C153.533 112.896 175.083 134.396 190.625 137L182.606 102.836C182.606 102.836 171.014 111.52 151.014 86.3587L145.051 98.5167C144.538 99.5627 144.356 100.74 144.53 101.893C144.704 103.045 145.226 104.116 146.025 104.964Z" fill="url(#paint1_linear_996_153200)"/>
<path d="M228.927 137.57C228.927 137.57 232.012 141.826 231.619 146.78C231.619 146.78 222.709 155.783 215.796 156.697L215.102 144.736L228.927 137.57Z" fill="#FFF2A6"/>
<path d="M67.8467 51.7229C67.8467 51.7229 51.4434 38.3315 57.4508 28.1933C63.4581 18.0551 89.598 17.2639 99.2166 24.9597C110.011 33.599 116.378 60.5932 106.228 62.6621C106.228 62.6621 100.535 63.93 95.8956 58.6422C92.0777 54.2832 85.0421 68.3332 85.0421 68.3332L66.5626 54.8385L67.8467 51.7229Z" fill="url(#paint2_linear_996_153200)"/>
<path d="M59.532 48.3222C64.2896 49.7424 72.0485 52.0177 78.1099 55.2316C80.5979 56.5491 82.552 58.6868 83.64 61.2811L88.4173 72.6282C88.5212 72.8771 88.572 73.145 88.5662 73.4146C88.5605 73.6842 88.4985 73.9497 88.384 74.194C88.2696 74.4382 88.1054 74.656 87.9019 74.8332C87.6983 75.0104 87.46 75.1431 87.2021 75.223L84.8503 75.9454C83.9238 76.2296 83.0933 76.7626 82.4495 77.4863C81.8057 78.2099 81.3733 79.0964 81.1997 80.0488C79.025 91.9659 70.5429 134.342 57.5837 149.763C57.5837 149.763 32.7524 147.306 9.00358 130.917C8.16396 130.342 7.54169 129.503 7.23658 128.534C6.93146 127.564 6.96117 126.52 7.32094 125.57C11.4144 114.827 26.3859 80.1815 56.2356 57.0057C56.8566 56.5244 57.322 55.8713 57.574 55.1276C57.826 54.384 57.8533 53.5827 57.6525 52.8236L57.0966 50.7105C57.0093 50.3759 57.012 50.0242 57.1043 49.6909C57.1966 49.3576 57.3752 49.0546 57.6223 48.8123C57.8693 48.5701 58.1759 48.3972 58.5112 48.3111C58.8465 48.2251 59.1986 48.2289 59.532 48.3222Z" fill="#242145"/>
<path d="M186.158 95.5878C186.074 95.7549 181.184 89.1992 178.817 85.9705C178.472 85.5012 178.28 84.9366 178.268 84.354C178.257 83.7715 178.426 83.1997 178.753 82.7173C179.191 82.0686 179.698 81.3019 180.17 80.5599C181.347 78.7426 183.069 77.344 185.09 76.5646L205.061 68.8L215.767 62.9029C217.196 62.1156 218.833 61.7878 220.455 61.9642L226.64 62.6375C227.756 62.7592 228.834 63.1166 229.802 63.6859C230.77 64.2553 231.605 65.0236 232.253 65.9399L236.485 71.9255C238.464 74.7281 239.484 78.0945 239.392 81.5231L239.319 84.1621C239.282 85.56 238.97 86.9369 238.399 88.2138C237.828 89.4907 237.011 90.6422 235.993 91.6023L230.896 96.4232C230.149 97.1337 229.238 97.6473 228.243 97.9176C227.248 98.1878 226.202 98.2063 225.198 97.9712C221.051 96.9883 214.025 94.0398 208.396 85.1302L186.158 95.5878Z" fill="#FFE75C"/>
<path d="M205.892 83.9015L193.292 87.833C189.668 88.9613 186.59 91.387 184.648 94.6442C181.656 99.6616 177.617 107.554 176.776 114.744C176.776 114.744 175.467 119.81 181.454 124.297C183.059 125.522 184.275 127.184 184.957 129.083L194.084 153.901C194.084 153.901 220.731 153.901 234.138 134.067L221.4 96.7278C217.151 93.9684 213.596 90.2691 211.009 85.9164C210.508 85.0535 209.73 84.385 208.802 84.0192C207.873 83.6535 206.847 83.612 205.892 83.9015Z" fill="#FFC619"/>
<path d="M104.916 58.4339C108.485 57.3298 109.843 51.4852 107.95 45.3797C106.057 39.2742 101.629 35.2198 98.0598 36.324C94.4908 37.4282 93.1325 43.2727 95.0258 49.3782C96.9192 55.4837 101.347 59.5381 104.916 58.4339Z" fill="white"/>
<path d="M102.164 43.9927C99.0446 44.9756 97.7359 49.6294 99.2119 54.4306C99.5593 55.5578 100.056 56.6337 100.688 57.6298C102.1 58.5242 103.576 58.8437 104.929 58.426C108.235 57.4038 109.637 52.3077 108.319 46.7103C106.538 44.494 104.22 43.3538 102.164 43.9927Z" fill="black"/>
<path d="M226.261 81.4936C225.586 81.4915 224.927 81.2897 224.367 80.9137L213.813 73.2229C213.153 72.74 212.386 72.4243 211.577 72.3028C210.768 72.1813 209.942 72.2575 209.169 72.525L206.217 73.5423L200.78 75.0952C200.701 75.1235 200.617 75.1351 200.533 75.1295C200.449 75.1239 200.367 75.1011 200.292 75.0626C200.217 75.024 200.151 74.9706 200.098 74.9055C200.044 74.8403 200.005 74.765 199.982 74.6841C199.959 74.6031 199.953 74.5184 199.964 74.435C199.975 74.3516 200.003 74.2715 200.047 74.1994C200.09 74.1274 200.148 74.0651 200.217 74.0163C200.285 73.9675 200.363 73.9333 200.446 73.9158L205.858 72.3727L208.78 71.3603C209.741 71.0298 210.768 70.9363 211.773 71.0878C212.777 71.2392 213.731 71.6312 214.551 72.2302L225.085 79.9309C225.457 80.1768 225.896 80.3013 226.342 80.2872C226.788 80.2731 227.219 80.1211 227.575 79.8522L232.278 76.2943C232.466 76.1529 232.624 75.9755 232.742 75.7725C232.86 75.5694 232.937 75.3448 232.967 75.1118C232.997 74.8788 232.981 74.6421 232.918 74.4156C232.856 74.1892 232.748 73.9774 232.603 73.7929L229.031 69.2325C228.804 68.9402 228.522 68.6959 228.2 68.5136C227.879 68.3314 227.524 68.2149 227.156 68.171L223.378 67.7139C223.171 67.691 222.961 67.7122 222.763 67.776C222.565 67.8397 222.382 67.9447 222.227 68.0839C222.073 68.2232 221.949 68.3936 221.865 68.5839C221.781 68.7742 221.738 68.9802 221.739 69.1882L221.798 71.036C221.81 71.3958 221.933 71.7431 222.151 72.0301C222.369 72.317 222.67 72.5294 223.014 72.6381L225.238 73.3457C225.352 73.3832 225.474 73.3942 225.594 73.378C225.714 73.3618 225.828 73.3188 225.929 73.2522C226.03 73.1856 226.114 73.097 226.176 72.9932C226.238 72.8895 226.275 72.7731 226.285 72.6528L226.374 71.6454C226.38 71.5641 226.402 71.4848 226.439 71.4122C226.476 71.3395 226.527 71.2749 226.589 71.2221C226.651 71.1693 226.723 71.1294 226.801 71.1046C226.878 71.0799 226.96 71.0709 227.042 71.078C227.123 71.0852 227.202 71.1085 227.274 71.1464C227.346 71.1844 227.41 71.2363 227.462 71.2992C227.514 71.362 227.553 71.4346 227.576 71.5125C227.6 71.5905 227.608 71.6724 227.599 71.7535L227.511 72.7609C227.484 73.0646 227.389 73.3584 227.233 73.6205C227.077 73.8827 226.864 74.1065 226.61 74.2754C226.356 74.4443 226.067 74.554 225.765 74.5964C225.462 74.6388 225.154 74.6127 224.864 74.5202L222.64 73.8077C222.055 73.6217 221.542 73.2598 221.172 72.7716C220.801 72.2834 220.59 71.6926 220.568 71.0802L220.509 69.2275C220.497 68.8398 220.568 68.4538 220.719 68.0962C220.869 67.7386 221.096 67.4178 221.382 67.1559C221.669 66.894 222.009 66.6971 222.379 66.5788C222.749 66.4605 223.14 66.4236 223.525 66.4706L227.304 66.9277C227.832 66.9911 228.342 67.1584 228.805 67.4199C229.267 67.6814 229.674 68.0318 230 68.4511L233.572 73.0115C233.818 73.3244 233.999 73.683 234.104 74.0665C234.21 74.45 234.238 74.8507 234.186 75.2451C234.135 75.6395 234.006 76.0197 233.806 76.3636C233.605 76.7074 233.339 77.008 233.021 77.2477L228.288 80.8056C227.705 81.2479 226.993 81.4893 226.261 81.4936Z" fill="#FFC619"/>
<path d="M206.089 73.5521C205.302 64.9423 200.037 63.6007 200.037 63.6007C200.037 63.6007 186.488 60.3523 191.639 52.7499C196.79 45.1475 193.656 36.8571 193.656 36.8571C202.615 44.3514 208.549 33.6137 208.549 33.6137C212.249 45.4719 221.99 38.1987 221.99 38.1987C218.015 45.4866 228.416 53.949 234.94 45.3441C241.857 36.2232 229.375 32.046 229.375 32.046C229.375 32.046 233.739 20.296 223.963 16.0795C214.02 11.7943 208.888 21.7604 208.888 21.7604C194.576 5.8873 185.592 26.0113 185.592 26.0113C167.344 20.9299 158.532 31.4563 156.525 40.8819C155.885 42.5724 155.836 44.2826 152.485 44.9411C143.137 46.7889 140.796 53.0104 154.906 54.8729C148.377 68.7852 164.397 62.205 164.746 62.033C167.974 60.5047 177.509 58.2785 177.223 64.2592C176.938 70.0875 178.522 72.4071 181.882 73.5521C184.264 74.3679 184.554 76.8889 184.402 78.7858C184.39 79.023 184.437 79.2593 184.537 79.4746C184.637 79.69 184.788 79.878 184.976 80.0228C185.164 80.1675 185.385 80.2647 185.619 80.306C185.853 80.3473 186.094 80.3316 186.32 80.2601L206.089 73.5521Z" fill="url(#paint3_linear_996_153200)"/>
<path d="M180.662 17.7848C180.662 17.7848 183.083 10.2462 179.349 11.7254C175.614 13.2046 170.394 14.2514 169.794 18.5317C169.194 22.8121 168.264 26.2766 171.049 25.4117C173.833 24.5468 178.862 25.0628 178.862 25.0628L180.662 17.7848Z" fill="#91FFAD"/>
<path d="M155.964 54.8876C155.964 54.8876 161.819 55.3791 166.498 53.9392C166.573 53.9183 166.653 53.9235 166.725 53.9539C166.797 53.9844 166.856 54.0383 166.893 54.1067C166.93 54.1752 166.943 54.2543 166.929 54.331C166.915 54.4077 166.876 54.4775 166.818 54.5289C163.064 57.7527 153.268 65.36 155.964 54.8876Z" fill="black"/>
<path d="M185.154 22.5713C185.154 22.5713 183.678 30.2032 189.189 31.0288C189.362 31.0546 189.539 31.0443 189.708 30.9987C189.878 30.953 190.036 30.8729 190.173 30.7634L196.003 26.0113C196.946 25.2413 197.725 24.2908 198.294 23.2156C198.864 22.1404 199.212 20.9622 199.319 19.7505C199.59 16.6889 199.501 13.0229 197.464 13.1555C194.335 13.357 188.608 13.8681 185.932 20.2714C185.618 21.0186 185.358 21.7872 185.154 22.5713Z" fill="#91FFAD"/>
<path d="M180.672 22.5369C180.612 22.5368 180.552 22.5268 180.495 22.5074C176.333 21.2641 175.482 16.6103 175.447 16.4186C175.419 16.2577 175.456 16.0922 175.55 15.9585C175.644 15.8249 175.788 15.7341 175.949 15.7061C176.11 15.6781 176.276 15.7151 176.41 15.8091C176.543 15.9031 176.634 16.0464 176.662 16.2073C176.662 16.2516 177.425 20.3058 180.844 21.3329C180.986 21.3743 181.109 21.4656 181.189 21.5898C181.269 21.7141 181.302 21.8631 181.281 22.0095C181.26 22.1559 181.187 22.2898 181.075 22.3867C180.963 22.4836 180.82 22.5369 180.672 22.5369Z" fill="#29CC7A"/>
<path d="M173.44 23.2249C173.301 23.2233 173.166 23.1747 173.059 23.0869C172.951 22.9992 172.876 22.8775 172.846 22.7418C172.816 22.606 172.834 22.4643 172.895 22.3396C172.956 22.2149 173.058 22.1147 173.184 22.0553C173.371 21.9668 177.779 20.011 180.648 22.1192C180.721 22.1632 180.785 22.2221 180.834 22.2922C180.884 22.3622 180.918 22.4419 180.935 22.5259C180.952 22.61 180.951 22.6966 180.932 22.7803C180.913 22.864 180.877 22.9428 180.826 23.0117C180.775 23.0806 180.71 23.1381 180.636 23.1804C180.561 23.2228 180.478 23.249 180.393 23.2576C180.308 23.2661 180.221 23.2566 180.14 23.2298C180.058 23.2031 179.983 23.1595 179.92 23.102C177.622 21.4164 173.735 23.1463 173.696 23.1659C173.616 23.2042 173.528 23.2243 173.44 23.2249Z" fill="#29CC7A"/>
<path d="M188.328 27.3333C188.201 27.3321 188.077 27.2927 187.973 27.2203L184.224 24.5715C183.901 24.3434 183.644 24.0335 183.479 23.6735C183.315 23.3135 183.25 22.9164 183.29 22.5228C183.33 22.1293 183.474 21.7534 183.707 21.4338C183.941 21.1142 184.255 20.8623 184.618 20.7039L191.363 17.7553C191.513 17.6912 191.682 17.6888 191.833 17.7486C191.984 17.8085 192.105 17.9258 192.17 18.0748C192.203 18.1486 192.22 18.2281 192.222 18.3088C192.223 18.3894 192.209 18.4695 192.179 18.5445C192.149 18.6194 192.105 18.6878 192.048 18.7455C191.992 18.8032 191.925 18.8492 191.85 18.8807L185.11 21.8293C184.941 21.8952 184.794 22.0062 184.685 22.1501C184.576 22.294 184.508 22.4653 184.49 22.6451C184.471 22.8249 184.503 23.0063 184.581 23.1693C184.659 23.3322 184.781 23.4705 184.933 23.5689L188.682 26.2079C188.815 26.3019 188.905 26.4447 188.933 26.605C188.96 26.7653 188.923 26.93 188.83 27.063C188.773 27.1446 188.699 27.2117 188.611 27.2587C188.524 27.3056 188.427 27.3312 188.328 27.3333Z" fill="#29CC7A"/>
<path d="M83.1825 107.623V119.27L99.5513 141.281H171.172L170.936 129.747L83.1825 107.623Z" fill="#3442D9"/>
<path d="M83.1825 107.623H157.312L177.833 132.012L101.667 132.302L83.1825 107.623Z" fill="#5865F2"/>
<path d="M179.762 130.627C179.472 130.435 171.683 113.633 154.572 120.832C137.46 128.032 149.479 131.492 159 132.263C168.52 133.035 173.71 138.406 173.71 138.406L179.762 130.627Z" fill="#FF78B9"/>
<path d="M168.308 147.758C168.308 147.758 178.512 152.544 182.473 156.034C185.74 158.913 207.235 177.494 217.543 161.862C219.237 159.226 220.251 156.213 220.495 153.09C220.908 148.475 219.944 141.939 218.6 130.288C216.893 115.442 216.632 88.8503 200.008 91.8972C184.643 94.7081 187.014 118.562 197.74 138.74C197.74 138.74 182.129 130.17 181.597 130.111C181.066 130.052 169.027 127.221 168.308 147.758Z" fill="#FFE75C"/>
<path d="M202.237 149.095C202.125 149.095 202.015 149.065 201.919 149.008C201.823 148.95 201.744 148.868 201.69 148.77L191.142 128.799C191.066 128.654 191.05 128.486 191.098 128.33C191.146 128.175 191.254 128.044 191.398 127.968C191.542 127.892 191.711 127.876 191.866 127.924C192.022 127.972 192.153 128.08 192.229 128.224L202.783 148.195C202.857 148.34 202.872 148.508 202.823 148.664C202.774 148.819 202.666 148.949 202.522 149.026C202.434 149.073 202.336 149.096 202.237 149.095Z" fill="#FFC619"/>
<path d="M154.798 129.133C154.596 129.197 149.637 127.693 147.462 134.99C145.986 140.018 157.258 131.093 163.354 132.897C169.45 134.701 154.798 129.133 154.798 129.133Z" fill="#FF78B9"/>
<path d="M112.963 114.606L99.2708 113.741L106.892 101.706L112.963 114.606Z" fill="#57F287"/>
<path d="M106.892 101.706L116.692 109.412L112.963 114.606L106.892 101.706Z" fill="#91FFAD"/>
<path d="M129.391 103.942L140.933 102.163L134.247 88.7863L129.391 103.942Z" fill="#8CD9FF"/>
<path d="M134.247 88.7863L124.255 96.3298L129.391 103.942L134.247 88.7863Z" fill="#66BCFF"/>
<path d="M143.787 76.825C142.596 75.9748 136.746 72.7609 129.922 74.5841C127.24 75.339 124.913 77.0193 123.354 79.3264C121.667 81.7835 118.626 85.8427 116.51 86.9042C111.3 89.5186 120.658 93.4255 125.366 87.1843L125.534 87.1352C125.337 90.0297 125.79 93.8972 129.47 95.2094C132.456 96.2708 131.305 87.8379 135.187 84.221L135.32 84.1817C135.32 84.1817 131.443 96.9588 138.439 91.8627C150.665 82.9531 145.105 77.7636 143.787 76.825Z" fill="#FF78B9"/>
<path d="M120.299 123.761L108.437 126.744C108.376 126.759 108.313 126.762 108.251 126.752C108.189 126.742 108.13 126.719 108.078 126.685L102.277 122.857C102.205 122.81 102.147 122.744 102.112 122.665C102.077 122.587 102.065 122.5 102.078 122.415C102.091 122.329 102.128 122.25 102.185 122.185C102.242 122.121 102.317 122.074 102.4 122.051L113.578 118.823C113.639 118.806 113.703 118.802 113.766 118.811C113.829 118.82 113.889 118.843 113.942 118.877L120.427 122.951C120.501 122.997 120.559 123.064 120.595 123.144C120.631 123.223 120.643 123.312 120.63 123.398C120.616 123.484 120.577 123.564 120.519 123.629C120.46 123.694 120.383 123.74 120.299 123.761Z" fill="#FFE75C"/>
<path d="M107.959 121.383L99.3888 120.99C99.3256 120.987 99.2635 120.971 99.2068 120.944C99.15 120.916 99.0997 120.876 99.0592 120.828L96.0629 117.23C95.9965 117.165 95.9524 117.08 95.9366 116.988C95.9208 116.896 95.9342 116.802 95.9749 116.718C96.0155 116.634 96.0815 116.565 96.1634 116.52C96.2453 116.475 96.3392 116.457 96.4319 116.469L105.007 116.862C105.132 116.871 105.248 116.927 105.332 117.019L108.328 120.621C108.392 120.688 108.433 120.772 108.448 120.863C108.462 120.954 108.448 121.047 108.408 121.13C108.368 121.212 108.303 121.281 108.223 121.326C108.143 121.371 108.051 121.391 107.959 121.383Z" fill="#FFC619"/>
<path d="M142.803 110.832L151.546 110.773C151.6 110.773 151.654 110.784 151.704 110.806C151.754 110.828 151.799 110.86 151.836 110.901L155.128 114.449C155.179 114.505 155.213 114.574 155.225 114.649C155.238 114.724 155.229 114.801 155.198 114.87C155.168 114.94 155.119 114.999 155.055 115.041C154.992 115.083 154.918 115.106 154.842 115.107L146.104 115.166C146.049 115.166 145.995 115.156 145.944 115.135C145.894 115.113 145.848 115.082 145.809 115.043L142.523 111.49C142.469 111.436 142.433 111.366 142.419 111.291C142.405 111.216 142.414 111.138 142.444 111.068C142.474 110.998 142.524 110.938 142.588 110.896C142.652 110.854 142.726 110.832 142.803 110.832Z" fill="#91FFAD"/>
<path d="M138.68 113.363L148.318 113.299C148.378 113.298 148.438 113.31 148.493 113.333C148.548 113.357 148.598 113.392 148.638 113.436L152.264 117.368C152.321 117.429 152.36 117.506 152.374 117.588C152.389 117.67 152.379 117.755 152.346 117.832C152.313 117.909 152.259 117.975 152.189 118.022C152.12 118.068 152.038 118.094 151.954 118.095L142.316 118.159C142.255 118.159 142.195 118.147 142.14 118.124C142.084 118.1 142.033 118.065 141.991 118.022L138.365 114.09C138.306 114.029 138.265 113.952 138.25 113.869C138.234 113.785 138.244 113.699 138.277 113.62C138.311 113.542 138.368 113.476 138.439 113.43C138.511 113.384 138.595 113.361 138.68 113.363Z" fill="#8CD9FF"/>
<path d="M88.6978 134.062L89.9868 133.541C90.3388 133.4 90.64 133.156 90.8507 132.841C91.0615 132.526 91.1719 132.155 91.1676 131.777C91.1282 128.828 91.7039 121.879 98.2918 124.341C100.511 125.172 102.523 126.307 104.402 126.096C105.44 125.975 106.443 125.651 107.354 125.142C111.212 123.034 116.978 125.707 115.03 131.609C115.921 135.614 115.964 139.76 115.158 143.782C114.877 145.037 114.285 146.201 113.437 147.168C112.588 148.135 111.51 148.873 110.301 149.316L105.288 151.168C104.187 151.582 102.998 151.708 101.835 151.536C100.671 151.364 99.5703 150.9 98.6362 150.185L97.6522 149.419C96.3985 148.453 94.9085 147.84 93.3373 147.645" fill="#66BCFF"/>
<path d="M138.035 128.754C137.94 128.753 137.847 128.73 137.761 128.687C137.676 128.645 137.602 128.584 137.543 128.509L124.55 111.146C124.501 111.082 124.466 111.008 124.446 110.93C124.426 110.852 124.422 110.771 124.433 110.691C124.444 110.611 124.471 110.534 124.513 110.465C124.554 110.395 124.608 110.335 124.673 110.286C124.737 110.238 124.811 110.203 124.889 110.183C124.967 110.163 125.049 110.158 125.129 110.17C125.209 110.181 125.286 110.208 125.355 110.249C125.425 110.29 125.485 110.345 125.534 110.409L138.527 127.771C138.576 127.836 138.611 127.91 138.63 127.988C138.65 128.067 138.654 128.148 138.642 128.228C138.63 128.308 138.603 128.385 138.561 128.454C138.519 128.523 138.465 128.583 138.4 128.631C138.295 128.712 138.167 128.755 138.035 128.754Z" fill="#3442D9"/>
<path d="M124.845 130.356L133.622 128.799L128.004 120.302L124.845 130.356Z" fill="#57F287"/>
<path d="M128.004 120.302L121.996 126.386L124.845 130.356L128.004 120.302Z" fill="#91FFAD"/>
<path d="M115.62 140.706C115.679 139.988 115.709 139.266 115.723 138.539C114.715 140.013 113.017 141.929 110.149 144.156C110.084 144.205 110.03 144.267 109.99 144.338C109.949 144.408 109.923 144.486 109.912 144.567C109.902 144.648 109.907 144.73 109.928 144.809C109.95 144.887 109.986 144.961 110.036 145.025C110.086 145.09 110.148 145.144 110.218 145.185C110.289 145.225 110.367 145.252 110.448 145.262C110.529 145.273 110.611 145.267 110.69 145.246C110.768 145.225 110.842 145.188 110.907 145.139C112.63 143.831 114.21 142.345 115.62 140.706Z" fill="#3F99F2"/>
<path d="M107.969 139.964C108.098 139.963 108.224 139.922 108.328 139.846C110.965 137.971 113.324 135.735 115.335 133.202C115.241 132.661 115.143 132.125 115.02 131.609C115.02 131.57 115.044 131.531 115.059 131.487C113.01 134.345 110.491 136.838 107.61 138.858C107.544 138.905 107.489 138.965 107.446 139.034C107.404 139.103 107.375 139.18 107.362 139.259C107.35 139.339 107.353 139.421 107.372 139.5C107.39 139.578 107.425 139.653 107.472 139.718C107.53 139.796 107.605 139.858 107.691 139.901C107.777 139.944 107.873 139.965 107.969 139.964Z" fill="#3F99F2"/>
<path d="M104.402 126.096C104.147 126.115 103.89 126.115 103.635 126.096L103.433 127.137C103.383 127.391 103.278 127.631 103.125 127.84C102.972 128.049 102.775 128.222 102.548 128.347C102.321 128.471 102.07 128.545 101.811 128.562C101.552 128.579 101.293 128.539 101.052 128.445L97.3668 127.005C97.2915 126.975 97.2112 126.961 97.1304 126.963C97.0496 126.964 96.9699 126.982 96.8959 127.014C96.8219 127.047 96.755 127.093 96.699 127.152C96.6431 127.21 96.5991 127.279 96.5697 127.354C96.5404 127.429 96.5261 127.509 96.5277 127.59C96.5294 127.671 96.5469 127.75 96.5793 127.824C96.6118 127.898 96.6585 127.965 96.7168 128.021C96.7751 128.077 96.8438 128.12 96.9191 128.15L100.604 129.585C100.951 129.725 101.322 129.796 101.696 129.796C102.393 129.796 103.068 129.554 103.606 129.112C104.145 128.671 104.513 128.056 104.648 127.373L104.919 126.007C104.737 126.047 104.565 126.076 104.402 126.096Z" fill="#3F99F2"/>
<path d="M179.111 42.8947C181.456 42.8726 183.346 41.7591 183.334 40.4075C183.321 39.056 181.41 37.9782 179.065 38.0003C176.72 38.0224 174.829 39.1359 174.842 40.4875C174.855 41.839 176.766 42.9168 179.111 42.8947Z" fill="#EB459F"/>
<path d="M166.353 37.0869C166.619 34.9975 165.831 33.1765 164.594 33.0195C163.357 32.8625 162.138 34.429 161.872 36.5183C161.607 38.6077 162.394 40.4287 163.632 40.5857C164.869 40.7427 166.087 39.1762 166.353 37.0869Z" fill="#EB459F"/>
<path d="M179.472 39.619C179.744 39.7165 179.991 39.8728 180.196 40.0768C180.401 40.2808 180.559 40.5274 180.658 40.7991C180.756 41.0709 180.794 41.361 180.767 41.6488C180.741 41.9366 180.651 42.2151 180.505 42.4643C179.698 43.8502 178.345 45.5849 176.387 46.2926C174.429 47.0002 172.278 46.5432 170.768 45.9977C170.496 45.9002 170.248 45.7438 170.043 45.5399C169.838 45.3359 169.681 45.0892 169.582 44.8175C169.483 44.5458 169.446 44.2557 169.472 43.9679C169.499 43.6801 169.588 43.4016 169.735 43.1523C170.542 41.7714 171.89 40.0367 173.853 39.3241C175.816 38.6115 177.961 39.0784 179.472 39.619Z" fill="white"/>
<path d="M175.792 46.4646C175.872 46.2001 175.914 45.9253 175.915 45.6488C175.915 43.8747 174.291 42.4349 172.289 42.4349C171.785 42.4301 171.286 42.5245 170.819 42.7125C170.352 42.9005 169.927 43.1786 169.568 43.5307C169.41 44.0158 169.446 44.5434 169.67 45.0019C169.894 45.4605 170.288 45.814 170.768 45.9879C172.362 46.625 174.106 46.7905 175.792 46.4646Z" fill="black"/>
<path d="M163.974 35.432C164.183 35.3518 164.407 35.3184 164.63 35.3342C164.853 35.3499 165.071 35.4144 165.266 35.5232C165.462 35.6319 165.631 35.7822 165.762 35.9634C165.894 36.1447 165.983 36.3524 166.025 36.5721C166.252 37.7958 166.34 39.5207 165.533 40.9065C164.726 42.2923 163.25 43.1327 162.089 43.5799C161.88 43.6601 161.656 43.6935 161.433 43.6777C161.21 43.662 160.992 43.5975 160.797 43.4887C160.601 43.38 160.432 43.2297 160.301 43.0485C160.169 42.8672 160.08 42.6594 160.038 42.4398C159.806 41.2161 159.718 39.4912 160.505 38.1054C161.292 36.7195 162.813 35.8743 163.974 35.432Z" fill="white"/>
<path d="M165.396 41.1473C165.258 40.8311 165.062 40.5429 164.82 40.2972C163.551 39.0244 161.376 39.157 159.9 40.592C159.889 41.2049 159.94 41.8174 160.052 42.4201C160.094 42.6398 160.184 42.8476 160.315 43.0288C160.446 43.2101 160.616 43.3604 160.811 43.4691C161.007 43.5778 161.224 43.6423 161.448 43.6581C161.671 43.6738 161.895 43.6404 162.104 43.5602C163.423 43.1129 164.573 42.2703 165.396 41.1473Z" fill="black"/>
<path d="M62.6856 80.1028C62.6856 80.1028 25.5839 104.026 33.4264 127.821C35.8864 135.325 43.8765 134.873 46.2578 147.581C60.1961 151.925 56.0584 145.443 62.0018 148.397L62.6856 80.1028Z" fill="black"/>
<path d="M62.11 36.3657C63.1603 37.8029 64.6137 38.8968 66.2863 39.5091C67.959 40.1214 69.7758 40.2246 71.5072 39.8057C68.134 39.471 64.9009 38.2874 62.11 36.3657Z" fill="#5865F2"/>
<path d="M65.9968 32.8619C69.4703 36.0955 73.2587 37.4273 77.3128 36.8621L77.362 36.8228C77.4182 36.777 77.4588 36.7148 77.478 36.6449C77.4972 36.575 77.4942 36.5009 77.4693 36.4328C77.4444 36.3647 77.3989 36.3061 77.3391 36.265C77.2794 36.2239 77.2083 36.2025 77.1357 36.2036C75.1677 36.2036 70.8578 35.5795 67.9943 30.0755C66.2133 26.6355 63.5909 26.3996 61.928 27.8198C63.0609 29.6687 64.4286 31.3635 65.9968 32.8619Z" fill="#5865F2"/>
<path d="M74.5281 38.6852C74.8085 38.5378 75.0939 38.3806 75.3793 38.1938C68.1714 38.0906 63.3154 32.223 61.0866 28.783C60.6755 29.5183 60.4279 30.3336 60.3609 31.1732C60.2938 32.0128 60.4088 32.8569 60.698 33.6481C62.534 35.3904 64.7093 36.7367 67.0886 37.6032C69.4679 38.4698 72.0002 38.8381 74.5281 38.6852Z" fill="#5865F2"/>
<path d="M75.3793 38.2085C76.0448 37.7983 76.684 37.3469 77.2932 36.8571C73.2588 37.4222 69.4704 36.0905 65.9772 32.8569C64.402 31.3597 63.0277 29.6649 61.8887 27.8148C61.5662 28.0987 61.2891 28.4301 61.067 28.7977C63.3155 32.2377 68.1715 38.1053 75.3793 38.2085Z" fill="#3442D9"/>
<path d="M74.528 38.6853C72.0012 38.8401 69.4694 38.4741 67.0902 37.6101C64.711 36.7461 62.5351 35.4025 60.6979 33.6629C60.949 34.4326 61.3032 35.1649 61.7508 35.8399C61.8639 36.0119 61.9869 36.179 62.1099 36.3313C64.8974 38.2653 68.1308 39.4607 71.5071 39.8057C72.5586 39.5651 73.5741 39.1884 74.528 38.6853Z" fill="#3442D9"/>
<path d="M95.6694 58.4112C93.8589 56.2735 91.6892 52.6713 90.7494 47.0641C89.0422 37.0341 78.8676 40.1841 80.5208 49.1969C81.7557 55.9541 87.0447 59.0599 90.287 60.3523C92.1221 58.2834 94.1246 57.0057 95.6694 58.4112Z" fill="black"/>
<path d="M89.052 54.0227C86.5084 52.4305 83.7138 51.9047 81.5096 52.3912C83.5465 56.9713 87.6154 59.2712 90.2918 60.3523C91.0523 59.4289 91.9888 58.6655 93.047 58.1065C92.0811 56.4308 90.7069 55.026 89.052 54.0227Z" fill="#FF78B9"/>
<path d="M80.2303 40.4986C80.1117 40.5011 79.9949 40.4696 79.8937 40.4078C79.7925 40.346 79.7112 40.2565 79.6594 40.15C79.6076 40.0434 79.5875 39.9242 79.6015 39.8066C79.6155 39.6889 79.6629 39.5778 79.7383 39.4863C80.8572 38.2628 82.3712 37.4713 84.0153 37.2503C85.6595 37.0293 87.3291 37.3929 88.732 38.2774C88.8021 38.3177 88.8636 38.3714 88.9129 38.4355C88.9622 38.4995 88.9984 38.5727 89.0194 38.6507C89.0405 38.7287 89.0459 38.8102 89.0354 38.8903C89.0249 38.9704 88.9987 39.0477 88.9583 39.1177C88.918 39.1877 88.8642 39.2491 88.8 39.2984C88.7359 39.3476 88.6627 39.3838 88.5846 39.4048C88.5064 39.4258 88.4249 39.4312 88.3447 39.4207C88.2645 39.4102 88.1871 39.3841 88.117 39.3438C83.7432 36.808 80.8207 40.1399 80.6878 40.2971C80.6301 40.3611 80.5595 40.4121 80.4807 40.4469C80.4018 40.4816 80.3165 40.4992 80.2303 40.4986Z" fill="#3F99F2"/>
<path d="M65.1063 76.5547C65.1063 76.5547 25.5839 110.915 41.0573 130.155C54.2577 146.588 43.5665 149.321 54.3757 161.921C65.3178 174.698 93.3323 147.625 93.3323 147.625C93.3323 147.625 96.7025 139.467 88.6977 134.062L72.8602 140.676C72.8602 140.676 84.6977 95.5976 79.6153 86.0835C75.2759 77.9455 65.1063 76.5547 65.1063 76.5547Z" fill="#242145"/>
<path d="M61.0718 159.183C54.2134 150.082 59.3252 137.069 63.7286 127.766C69.982 114.434 78.6215 93.8087 72.0926 79.4099C71.1691 77.421 69.7701 75.6895 68.0189 74.3678L67.6253 74.1074C69.5441 68.2102 74.2624 63.694 78.9413 59.8117C79.7678 59.1483 80.6239 58.4898 81.4898 57.846C80.5403 56.7809 79.4093 55.8924 78.1492 55.2218C77.7851 55.0301 77.4161 54.8385 77.0422 54.6517C74.9975 56.8792 73.118 59.2526 71.4186 61.7529C68.7815 65.6204 66.7003 69.9892 66.1985 74.6873C70.223 77.1444 71.6548 82.2061 72.0188 86.6781C72.811 100.158 66.3707 114.242 60.5208 126.159C55.2613 136.691 50.0018 151.016 58.169 161.503C59.3687 162.965 60.7663 164.254 62.3215 165.331C64.2537 165.283 66.1683 164.952 68.0041 164.348C65.3154 163.201 62.939 161.431 61.0718 159.183Z" fill="#57F287"/>
<path d="M70.7839 149.394C70.8426 149.414 70.9041 149.424 70.9659 149.424C71.0971 149.425 71.2252 149.384 71.3314 149.307C71.4376 149.23 71.5164 149.121 71.5563 148.996L74.3656 140.057L72.8896 140.676L70.3903 148.623C70.365 148.699 70.3551 148.78 70.3613 148.86C70.3674 148.94 70.3894 149.019 70.426 149.09C70.4626 149.162 70.5131 149.226 70.5745 149.278C70.6359 149.33 70.7071 149.37 70.7839 149.394Z" fill="black"/>
<path d="M48.3438 93.568C48.2245 93.5697 48.1073 93.5365 48.0068 93.4724C47.9062 93.4083 47.8267 93.3162 47.778 93.2074C47.7293 93.0986 47.7136 92.978 47.7328 92.8604C47.7521 92.7428 47.8054 92.6334 47.8862 92.5458C53.2982 86.4816 57.8591 83.7001 58.0509 83.5871C58.1903 83.5091 58.3545 83.4883 58.5089 83.5291C58.6634 83.57 58.7958 83.6692 58.8783 83.8058C58.9607 83.9425 58.9867 84.1058 58.9508 84.2612C58.9148 84.4167 58.8197 84.5521 58.6856 84.6387C58.6364 84.6682 54.0608 87.4497 48.8013 93.3616C48.7443 93.4267 48.6739 93.4788 48.595 93.5144C48.5161 93.55 48.4304 93.5683 48.3438 93.568Z" fill="black"/>
<path d="M175.358 146.793C175.638 146.143 175.072 145.274 174.094 144.854C173.116 144.433 172.095 144.62 171.815 145.271C171.535 145.921 172.101 146.79 173.079 147.21C174.057 147.631 175.078 147.444 175.358 146.793Z" fill="#FFC619"/>
<path d="M189.705 134.347L188.269 133.57C179.767 137.133 177.966 147.035 177.651 152.697C178.055 152.937 178.453 153.188 178.842 153.429C179.039 147.999 180.618 137.423 189.705 134.347Z" fill="#FFC619"/>
<path d="M100.968 88.5406C100.193 88.0464 99.5341 87.391 99.0357 86.6193C98.5373 85.8476 98.2114 84.9776 98.0801 84.0686L97.5881 80.9481C97.5777 80.8736 97.5431 80.8045 97.4897 80.7515C97.4333 80.6987 97.3602 80.6674 97.283 80.663C97.2073 80.6673 97.1357 80.6987 97.0813 80.7515C97.0245 80.8026 96.9878 80.8723 96.978 80.9481L96.486 84.0686C96.3506 84.9757 96.0235 85.8436 95.5264 86.6147C95.0293 87.3857 94.3736 88.0423 93.6029 88.5406L93.1847 88.806C93.1444 88.8365 93.1109 88.875 93.0863 88.919C93.0668 88.9658 93.0568 89.0159 93.0568 89.0665C93.0568 89.1171 93.0668 89.1672 93.0863 89.2139C93.1109 89.258 93.1444 89.2965 93.1847 89.3269L93.6029 89.5923C94.3736 90.0907 95.0293 90.7472 95.5264 91.5183C96.0235 92.2893 96.3506 93.1572 96.486 94.0643L96.978 97.1849C96.9879 97.2578 97.0248 97.3244 97.0813 97.3716C97.1379 97.4188 97.2093 97.4446 97.283 97.4446C97.3568 97.4446 97.4282 97.4188 97.4848 97.3716C97.5136 97.3489 97.5375 97.3207 97.5553 97.2886C97.573 97.2566 97.5842 97.2213 97.5881 97.1849L98.0801 94.0643C98.2114 93.1554 98.5373 92.2854 99.0357 91.5136C99.5341 90.7419 100.193 90.0866 100.968 89.5923L101.381 89.3269C101.422 89.2965 101.455 89.258 101.48 89.2139C101.502 89.168 101.514 89.1176 101.514 89.0665C101.514 89.0154 101.502 88.9649 101.48 88.919C101.455 88.875 101.422 88.8365 101.381 88.806L100.968 88.5406Z" fill="#FF78B9"/>
<path d="M43.4632 44.72C42.6041 44.1569 41.876 43.4162 41.3279 42.5479C40.7715 41.6858 40.4089 40.7133 40.2652 39.6976L39.724 36.2134C39.7139 36.1286 39.6737 36.0502 39.6109 35.9923C39.5812 35.9625 39.5459 35.939 39.5071 35.9229C39.4682 35.9068 39.4266 35.8985 39.3845 35.8985C39.3425 35.8985 39.3009 35.9068 39.262 35.9229C39.2232 35.939 39.1879 35.9625 39.1582 35.9923C39.0953 36.0502 39.0552 36.1286 39.0451 36.2134L38.5088 39.6976C38.3584 40.7174 37.9912 41.6931 37.432 42.5594C36.8727 43.4257 36.1344 44.1624 35.2665 44.72L34.7745 45.01C34.7294 45.0441 34.6925 45.0877 34.6663 45.1377C34.6405 45.1878 34.6286 45.2438 34.6318 45.2999C34.6279 45.3577 34.6398 45.4155 34.6663 45.467C34.6925 45.517 34.7294 45.5607 34.7745 45.5948L35.2665 45.8847C36.1279 46.4417 36.8607 47.1755 37.4163 48.0372C37.972 48.8989 38.3377 49.8688 38.4891 50.8825L39.0254 54.3668C39.0347 54.4491 39.0752 54.5247 39.1385 54.5781C39.2029 54.6291 39.2827 54.6569 39.3649 54.6569C39.4471 54.6569 39.5268 54.6291 39.5912 54.5781C39.6545 54.5247 39.695 54.4491 39.7043 54.3668L40.2455 50.8825C40.3918 49.8568 40.7612 48.8755 41.3279 48.0077C41.8844 47.1463 42.6192 46.414 43.4829 45.8601L43.9749 45.5702C44.02 45.5361 44.0569 45.4925 44.0831 45.4424C44.1096 45.3909 44.1215 45.3331 44.1176 45.2753C44.1208 45.2192 44.1089 45.1632 44.0831 45.1132C44.0569 45.0631 44.02 45.0195 43.9749 44.9854L43.4632 44.72Z" fill="#91FFAD"/>
<path d="M210.281 55.4381C209.769 55.1146 209.334 54.6836 209.006 54.1751C208.679 53.6663 208.464 53.0932 208.377 52.4944L208.062 50.4403C208.056 50.389 208.032 50.3417 207.993 50.3076C207.957 50.2733 207.91 50.2542 207.86 50.2542C207.81 50.2542 207.763 50.2733 207.727 50.3076C207.688 50.3417 207.664 50.389 207.658 50.4403L207.343 52.4944C207.254 53.0919 207.038 53.6634 206.709 54.1702C206.385 54.6798 205.953 55.1125 205.444 55.4381L205.169 55.6101C205.141 55.6303 205.119 55.6574 205.105 55.6887C205.09 55.7176 205.081 55.7495 205.08 55.7821C205.081 55.8163 205.089 55.8499 205.105 55.8804C205.119 55.9117 205.141 55.9388 205.169 55.959L205.444 56.131C205.953 56.4566 206.385 56.8893 206.709 57.3989C207.038 57.9057 207.254 58.4771 207.343 59.0747L207.658 61.1288C207.666 61.1779 207.69 61.223 207.727 61.2566C207.765 61.2853 207.812 61.3008 207.86 61.3008C207.908 61.3008 207.955 61.2853 207.993 61.2566C208.031 61.2243 208.056 61.1786 208.062 61.1288L208.377 59.0747C208.464 58.4759 208.679 57.9028 209.006 57.394C209.334 56.8855 209.769 56.4545 210.281 56.131L210.551 55.959C210.579 55.9388 210.601 55.9117 210.615 55.8804C210.631 55.8499 210.639 55.8163 210.64 55.7821C210.639 55.7495 210.63 55.7176 210.615 55.6887C210.601 55.6574 210.579 55.6303 210.551 55.6101L210.281 55.4381Z" fill="#66BCFF"/>
<path d="M111.192 76.9085C110.682 76.5805 110.248 76.1484 109.918 75.6406C109.591 75.1315 109.378 74.5584 109.293 73.96L108.978 71.9058C108.969 71.8569 108.945 71.8121 108.909 71.778C108.892 71.7597 108.871 71.7452 108.847 71.7352C108.824 71.7253 108.799 71.7202 108.774 71.7202C108.749 71.7202 108.723 71.7253 108.7 71.7352C108.677 71.7452 108.656 71.7597 108.639 71.778C108.602 71.8114 108.58 71.8568 108.575 71.9058L108.24 73.96C108.151 74.558 107.936 75.1303 107.609 75.6387C107.281 76.1471 106.849 76.58 106.341 76.9085L106.07 77.0805C106.04 77.0974 106.016 77.1232 106.001 77.1543C105.994 77.1866 105.994 77.2202 106.001 77.2525C105.994 77.2832 105.994 77.3152 106.001 77.3459C106.016 77.3784 106.04 77.4059 106.07 77.4245L106.341 77.5965C106.848 77.9261 107.28 78.3579 107.61 78.8644C107.936 79.3725 108.151 79.9436 108.24 80.5402L108.56 82.5944C108.566 82.6442 108.59 82.6899 108.629 82.7221C108.666 82.7533 108.713 82.7706 108.762 82.7713C108.81 82.7699 108.857 82.7526 108.894 82.7221C108.929 82.6873 108.953 82.6428 108.963 82.5944L109.278 80.5402C109.361 79.9404 109.574 79.3659 109.902 78.8567C110.23 78.3475 110.665 77.9158 111.177 77.5916L111.453 77.4196C111.48 77.3991 111.502 77.3721 111.517 77.341C111.526 77.3106 111.526 77.278 111.517 77.2476C111.527 77.2156 111.527 77.1814 111.517 77.1493C111.502 77.1195 111.48 77.0941 111.453 77.0756L111.192 76.9085Z" fill="#3442D9"/>
<path d="M28.8066 40.076C28.2964 39.7499 27.8626 39.3176 27.5348 38.8087C27.2071 38.2999 26.9931 37.7264 26.9075 37.1274L26.5926 35.0733C26.587 35.022 26.5625 34.9746 26.5237 34.9406C26.488 34.9063 26.4404 34.8872 26.3909 34.8872C26.3413 34.8872 26.2938 34.9063 26.258 34.9406C26.2193 34.9746 26.1947 35.022 26.1891 35.0733L25.8743 37.1274C25.7857 37.7312 25.5693 38.3092 25.2396 38.8228C24.9124 39.3315 24.4795 39.7639 23.9702 40.0907L23.6996 40.2627C23.6718 40.2829 23.6497 40.31 23.6357 40.3414C23.629 40.3721 23.629 40.404 23.6357 40.4347C23.6284 40.4671 23.6284 40.5007 23.6357 40.533C23.6497 40.5644 23.6718 40.5915 23.6996 40.6116L23.9702 40.7836C24.4816 41.1078 24.9151 41.5407 25.2396 42.0515C25.5688 42.5619 25.7852 43.1366 25.8743 43.7371L26.1891 45.7913C26.1949 45.8411 26.2196 45.8868 26.258 45.9191C26.2958 45.9488 26.3428 45.9645 26.3909 45.9633C26.4388 45.9637 26.4855 45.9481 26.5237 45.9191C26.5604 45.8854 26.5847 45.8404 26.5926 45.7913L26.9075 43.7371C26.9931 43.1381 27.2071 42.5647 27.5348 42.0558C27.8626 41.547 28.2964 41.1147 28.8066 40.7886L29.0821 40.6166C29.1099 40.5964 29.132 40.5693 29.1461 40.5379C29.1559 40.5059 29.1559 40.4717 29.1461 40.4396C29.1552 40.4092 29.1552 40.3767 29.1461 40.3463C29.132 40.3149 29.1099 40.2878 29.0821 40.2677L28.8066 40.076Z" fill="#FFE75C"/>
<path d="M191.673 32.7095C191.181 33.5056 192.377 33.4073 193.676 36.8768C198.596 40.9753 202.586 39.5895 205.198 37.5108C196.249 38.1988 192.677 31.0534 191.673 32.7095Z" fill="#EB459F"/>
<path d="M214.974 40.3659C208.544 37.0144 212.731 28.2129 210.384 28.493C209.533 28.5962 210.556 29.8444 208.554 33.6235C210.05 38.4248 212.544 40.0907 214.974 40.3659Z" fill="#EB459F"/>
<path d="M223.919 37.8744C224.081 37.2552 223.555 37.0685 223.166 37.2454C222.674 37.6336 222.315 37.9481 221.995 38.2282C221.339 39.4183 221.045 40.7735 221.148 42.1281C221.251 43.4827 221.747 44.7779 222.576 45.8552C221.316 40.1841 223.565 39.1865 223.919 37.8744Z" fill="#EB459F"/>
<path d="M187.555 71.896C184.067 70.6035 181.454 68.9032 181.469 66.107C181.494 62.667 177.671 61.345 175.27 60.8536C176.52 61.4089 177.322 62.4655 177.238 64.2592C176.953 70.0875 178.537 72.4071 181.897 73.5521C184.279 74.3679 184.569 76.8889 184.416 78.7858C184.405 79.023 184.452 79.2593 184.552 79.4746C184.652 79.69 184.802 79.878 184.991 80.0228C185.179 80.1675 185.4 80.2647 185.634 80.306C185.868 80.3473 186.108 80.3316 186.335 80.2601L193.223 77.9111C192.754 76.5674 192.006 75.3375 191.03 74.3012C190.053 73.2648 188.87 72.4454 187.555 71.896Z" fill="#EB459F"/>
<path d="M186.188 19.7014C186.188 19.7014 183.236 16.4923 179.826 18.9053C177.489 20.5614 177.523 23.6819 178.842 25.0579C178.842 25.0579 183.019 25.397 185.026 26.0899C185.046 26.0899 184.8 22.36 186.188 19.7014Z" fill="#57F287"/>
<defs>
<linearGradient id="paint0_linear_996_153200" x1="160.648" y1="146.028" x2="83.5621" y2="131.882" gradientUnits="userSpaceOnUse">
<stop stop-color="#5865F2"/>
<stop offset="1" stop-color="#3442D9"/>
</linearGradient>
<linearGradient id="paint1_linear_996_153200" x1="139.034" y1="68.2447" x2="187.848" y2="137.334" gradientUnits="userSpaceOnUse">
<stop offset="0.24" stop-color="#FFE75C"/>
<stop offset="1" stop-color="#FF8C19"/>
</linearGradient>
<linearGradient id="paint2_linear_996_153200" x1="93.6816" y1="29.8199" x2="73.3347" y2="58.8168" gradientUnits="userSpaceOnUse">
<stop stop-color="#66BCFF"/>
<stop offset="1" stop-color="#3F99F2"/>
</linearGradient>
<linearGradient id="paint3_linear_996_153200" x1="223.737" y1="76.6432" x2="193.66" y2="43.5795" gradientUnits="userSpaceOnUse">
<stop stop-color="#EB459F"/>
<stop offset="0.46" stop-color="#F55FAC"/>
<stop offset="0.99" stop-color="#FF78B9"/>
</linearGradient>
</defs>
</svg>
