<svg viewBox="0 0 300 120" xmlns="http://www.w3.org/2000/svg"><path d="m239.9 38.34h-34.52a14.48 14.48 0 0 1 -11.71-6l-13.49-18.6a32.33 32.33 0 0 0 -26.18-13.37h-56.84a30 30 0 0 0 -21.26 8.8 30.07 30.07 0 0 1 -21.26 8.83h-4.71a24.91 24.91 0 0 0 -24.93 24.89v20.49a10.25 10.25 0 0 1 -5.46 9.06 36.79 36.79 0 0 0 -19.54 32.5v15.06h300.26v-21.3a60.34 60.34 0 0 0 -17.68-42.7 60.36 60.36 0 0 0 -42.68-17.66z" fill="#aec7ff" opacity=".2"/><path d="m214.75 88.46h58.25a6.44 6.44 0 0 1 6.44 6.44v25.1h-71.13v-25.11a6.44 6.44 0 0 1 6.44-6.43z" fill="#ebf0f7"/><path d="m38.3 106.64h183l-8-54.54a9.78 9.78 0 0 0 -9.68-8.37h-156.27a9 9 0 0 0 -9.05 9.05z" fill="#ebf0f7"/><g fill="#ffd836"><circle cx="228.2" cy="84.86" r="3.97"/><circle cx="198.86" cy="84.86" r="2.5"/><circle cx="204.67" cy="84.19" r="4.05"/><circle cx="221.62" cy="84.19" r="4.05"/><circle cx="217.14" cy="80.22" r="4.05"/><circle cx="215.1" cy="84.86" r="4.05"/><circle cx="210.55" cy="82.36" r="4.05"/></g><path d="m192.45 84.86a21.78 21.78 0 1 0 43.55 0z" fill="#83ddc5"/><path d="m193.55 87.61.64-2.74a4.38 4.38 0 0 0 -3.26-5.26 4.37 4.37 0 0 0 -5.25 3.26l-.64 2.7a5.8 5.8 0 0 1 -2 3.18 7 7 0 1 0 10.88 2.54 5.75 5.75 0 0 1 -.37-3.68z"/><path d="m190.3 93.91a1 1 0 0 1 -1-1 1 1 0 0 1 1-1l9.26-.25a1 1 0 0 1 0 2l-9.25.25zm-10.23 13.73a1.06 1.06 0 0 1 -.42-.09 1 1 0 0 1 -.49-1.33l4.68-10.31a1 1 0 1 1 1.82.83l-4.66 10.31a1 1 0 0 1 -.93.59zm10.63 0a1 1 0 0 1 -.6-.21 1 1 0 0 1 -.2-1.4c1.49-2 2.06-3.1 1.92-3.84s-1.42-1.78-3.55-3.08a1 1 0 0 1 -.33-1.37 1 1 0 0 1 1.38-.33c2.33 1.42 4.14 2.65 4.47 4.41.3 1.6-.65 3.26-2.29 5.42a1 1 0 0 1 -.8.4z"/><path d="m205.63 104.87h17.19v1.76h-17.19z" fill="#51bc9d"/><circle cx="212.05" cy="78.31" fill="#ffd836" r="2.17"/><circle cx="210.55" cy="83.22" fill="#ff9a15" r=".59"/><circle cx="216.86" cy="78.9" fill="#ff9a15" r=".59"/><circle cx="221.9" cy="82.36" fill="#ff9a15" r=".59"/><circle cx="203.02" cy="83.22" fill="#ff9a15" r=".59"/><path d="m214.48 81.24a2.4 2.4 0 0 0 -3-1.7" fill="none" stroke="#ff9a15" stroke-linecap="round" stroke-miterlimit="10" stroke-width=".75"/><path d="m47.35 43.73a9.05 9.05 0 0 1 9.05 9.05v53.85h-18.1v-53.85a9.05 9.05 0 0 1 9.05-9.05z" fill="#dae1ea"/><path d="m273 88.46a6.44 6.44 0 0 1 6.44 6.44v25.1h-12.88v-25.11a6.44 6.44 0 0 1 6.44-6.43z" fill="#fff"/><path d="m147.9 84h14.17a2.83 2.83 0 0 0 2.83-2.84 2.83 2.83 0 0 0 -2.83-2.83h-14.17zm17 11.3v5.7h5.67a5.67 5.67 0 0 1 5.67 5.67h-32.59v-19.87h12.75a8.5 8.5 0 0 1 8.5 8.5z" fill="#7196ff"/><rect fill="#567ef7" height="45.34" rx="12.75" transform="matrix(-1 0 0 -1 250.46 91.42)" width="62.34" x="94.06" y="23.04"/><rect fill="#7196ff" height="45.34" rx="12.75" transform="matrix(-1 0 0 -1 266.05 91.42)" width="62.34" x="101.85" y="23.04"/><path d="m157.11 60.59h-12.75a12.75 12.75 0 0 1 -12.75-12.75v-7.08a4.25 4.25 0 0 1 4.25-4.25h28.33a4.25 4.25 0 0 1 4.25 4.25v8.5a11.34 11.34 0 0 1 -11.33 11.33z" fill="#aec7ff"/><circle cx="120.27" cy="44.29" fill="#202225" r="4.25"/><rect fill="#7196ff" height="3.54" rx="1.77" transform="matrix(-1 0 0 -1 318.47 105.59)" width="7.08" x="155.69" y="51.02"/><rect fill="#7196ff" height="3.54" rx="1.77" transform="matrix(-1 0 0 -1 295.92 105.59)" width="8.5" x="143.71" y="51.02"/><path d="m146.48 106.64h-34.71v-38.26h29a15.59 15.59 0 0 1 15.63 15.64v12.7a9.92 9.92 0 0 1 -9.92 9.92z" fill="#aec7ff"/><path d="m87.1 87 2.62 9a.57.57 0 0 1 -.15.56.55.55 0 0 1 -.56.14l-9-2.61a5.69 5.69 0 0 1 1.59-11.16h.44a5.72 5.72 0 0 1 5.06 4.07zm17.59-28.53h-11.32a5.67 5.67 0 0 1 -5.69-5.63v-12.79a5.67 5.67 0 0 1 5.69-5.67h11.32z" fill="#7196ff"/><path d="m101.15 54.21h-5.67a2.83 2.83 0 0 1 -2.83-2.83v-9.92a2.83 2.83 0 0 1 2.83-2.83h5.67z" fill="#aec7ff"/><path d="m160.81 78.23-2.6 5.94a7.49 7.49 0 0 1 -6.29 4.1 4.1 4.1 0 0 1 -3.63-2.17 3.21 3.21 0 0 0 -4.72-1.1l-1.71 1.25a10.38 10.38 0 0 1 -6.11 2h-1.75c-2.47 0-3.68-1.84-2.69-4.1l2.61-5.94a7.43 7.43 0 0 1 6.28-4.1h18c2.39.02 3.59 1.89 2.61 4.12z" fill="#fff"/><path d="m105.39 68.38h10.61a8.5 8.5 0 0 1 8.5 8.5v1.42h9.8a2.91 2.91 0 0 1 2.94 2.55 2.84 2.84 0 0 1 -2.8 3.15h-19.84v2.8h1.4a8.5 8.5 0 0 1 8.5 8.5v5.7h8.5a5.67 5.67 0 0 1 5.67 5.67h-33.3a11.34 11.34 0 0 1 -11.31-11.37v-15.59a11.33 11.33 0 0 1 11.33-11.33z" fill="#7196ff"/><rect fill="#b2c1d1" height="3.58" rx="1.17" width="2.34" x="139.56" y="75.59"/><rect fill="#b2c1d1" height="3.58" rx="1.17" width="2.34" x="157.25" y="75.59"/><path d="m152.93 78.06h-5.27a2.46 2.46 0 0 0 -2.21 1.39l-.18.38a1.06 1.06 0 0 0 1 1.52h5.26a2.43 2.43 0 0 0 2.17-1.35l.19-.38a1.07 1.07 0 0 0 -.96-1.56z" fill="#ff73fa"/><path d="m50.82 70.9a1 1 0 0 1 -.85-.49l-4-6.64a1 1 0 0 1 1.71-1l4 6.64a1 1 0 0 1 -.34 1.37 1 1 0 0 1 -.52.12zm9.86-1.05a1 1 0 0 1 -.81-.43 1 1 0 0 1 .23-1.42 6.53 6.53 0 0 0 2.72-5.86 1 1 0 0 1 2-.28 8.5 8.5 0 0 1 -3.54 7.77 1 1 0 0 1 -.6.22z"/><path d="m59.21 64.21-.36-2.79a4.38 4.38 0 0 0 -4.85-3.77 4.36 4.36 0 0 0 -3.77 4.9l.35 2.75a5.78 5.78 0 0 1 -.81 3.7 7 7 0 1 0 11.08-1.44 5.74 5.74 0 0 1 -1.64-3.35zm190.04 25.25a1 1 0 0 1 -1-.88c0-.07-.87-7-1.43-10.56a1 1 0 0 1 2-.31c.57 3.61 1.44 10.55 1.44 10.62a1 1 0 0 1 -.86 1.12zm-6.15-.15a1 1 0 0 1 -1-1s.21-4.68.81-9.89a1 1 0 0 1 1.09-.92 1 1 0 0 1 .88 1.1c-.6 5.15-.8 9.71-.8 9.76a1 1 0 0 1 -.98.95z"/><path d="m251.28 65.05.08-2.81a4.36 4.36 0 0 0 -4.25-4.49 4.37 4.37 0 0 0 -4.49 4.25l-.08 2.77a5.77 5.77 0 0 1 -1.33 3.52 7 7 0 1 0 12.5 4.61 6.92 6.92 0 0 0 -1.33-4.31 5.83 5.83 0 0 1 -1.1-3.54zm-146 27.59-.29-2.8a4.37 4.37 0 0 0 -4.78-3.91 4.37 4.37 0 0 0 -3.92 4.78l.28 2.77a5.8 5.8 0 0 1 -.87 3.65 7 7 0 1 0 11.12-1.13 5.74 5.74 0 0 1 -1.54-3.36z"/><path d="m104.63 97.88a1 1 0 0 1 -.82-1.57l4.51-6.52a1 1 0 0 1 1.68 1.14l-4.52 6.52a1 1 0 0 1 -.85.43zm-41.7-9.78a1 1 0 0 1 -1-.73 48.63 48.63 0 0 0 -3.67-9.37 1 1 0 1 1 1.72-1 50.07 50.07 0 0 1 3.91 9.9 1 1 0 0 1 -.7 1.23 1.15 1.15 0 0 1 -.26-.03z"/><path d="m50.38 106.64h207.7a8.48 8.48 0 0 1 8.48 8.48v4.88h-216.18z" fill="#dae1ea"/><path d="m105.6 114.32a1 1 0 0 1 -1-.83l-.51-2.82c-.71-3.49-1-4.15-4.45-4.15a1 1 0 0 1 0-2c4.77 0 5.58 1.67 6.41 5.78l.51 2.84a1 1 0 0 1 -.8 1.16z"/><path d="m111.8 112.6a1 1 0 0 1 -1-.7c-1.42-4.6-2.8-5.38-6.21-5.38a1 1 0 0 1 0-2c4.56 0 6.53 1.65 8.12 6.79a1 1 0 0 1 -.65 1.25 1 1 0 0 1 -.26.04zm-19.59-5.16a1.26 1.26 0 0 1 -.27 0 1 1 0 0 1 -.7-1.23c.06-.23 1.58-5.62 4.91-8.17a1 1 0 0 1 1.4.19 1 1 0 0 1 -.18 1.4c-2.8 2.15-4.19 7.06-4.2 7.11a1 1 0 0 1 -.96.7z"/><path d="m31.93 88.46h44.94a6.44 6.44 0 0 1 6.44 6.44v25.1h-57.82v-25.11a6.44 6.44 0 0 1 6.44-6.44z" fill="#ebf0f7"/><path d="m76.87 88.46a6.44 6.44 0 0 1 6.44 6.44v25.1h-12.88v-25.11a6.44 6.44 0 0 1 6.44-6.43z" fill="#fff"/><path d="m55 89.46a1 1 0 0 1 -1-1 41.57 41.57 0 0 0 -.83-11 1 1 0 1 1 2-.34 44.46 44.46 0 0 1 .83 11.38 1 1 0 0 1 -1 .96z"/><circle cx="242.56" cy="69.39" fill="#ffd836" r="4.74"/><circle cx="244.56" cy="72.78" fill="#ffd836" r="2.23"/><circle cx="239.2" cy="73.26" fill="#ffd836" r="1.75"/><circle cx="238.78" cy="69.08" fill="#ffd836" r="2.44"/><path d="m245.55 70.86a2.88 2.88 0 0 0 -4 .7" fill="none" stroke="#ff9a15" stroke-linecap="round" stroke-miterlimit="10" stroke-width=".75"/><path d="m238.05 70a1 1 0 0 1 -.3 0l-1.7-.52a1 1 0 0 1 .58-1.92l1.71.52a1 1 0 0 1 -.29 2zm9.63.76a11.79 11.79 0 0 1 -1.74-.12 1 1 0 0 1 -.85-1.13 1 1 0 0 1 1.13-.85 9.48 9.48 0 0 0 6.34-1.2 1 1 0 0 1 1.39.26 1 1 0 0 1 -.26 1.39 10.85 10.85 0 0 1 -6.01 1.65z"/><path d="m43.47356279 48.98103893a2.2 2.2 0 0 1 2.8975577 1.13320753l5.40532737 12.34879897-4.03076524 1.76435018-5.40532737-12.34879897a2.2 2.2 0 0 1 1.13320754-2.89755771z" fill="#ff9a15"/><path d="m41.67984597 58.12010616 4.86440078-2.12924987 3.20790941 7.32866407-7.05383917 3.08761282-2.25355637-5.14838652a2.39 2.39 0 0 1 1.23508535-3.1386405z" fill="#ff9a15"/><path d="m45.7866 58.2026.0882-.4802 3.8514.7074-.3474 1.8914-2.4402-.4482a1.43480664 1.43480664 0 0 1 -1.152-1.6704z" fill="#ffd836"/><path d="m49.93 58.23 1.85 4.24-4 1.76v-.1a3.26 3.26 0 0 1 1.68-4.29z" fill="#ffd836"/><rect fill="#7196ff" height="2.88" rx=".96" width="1.92" x="207.76" y="16.36"/><rect fill="#7196ff" height="2.88" rx=".96" width="1.92" x="207.76" y="24.03"/><rect fill="#7196ff" height="2.88" rx=".96" transform="matrix(0 1 -1 0 234.19 -190.92)" width="1.92" x="211.6" y="20.2"/><rect fill="#7196ff" height="2.88" rx=".96" transform="matrix(0 1 -1 0 226.52 -183.25)" width="1.92" x="203.93" y="20.2"/><path d="m78.16 22.65-1.22 2.53a.7.7 0 0 0 .93.93l2.53-1.22a.7.7 0 0 1 .6 0l2.54 1.22a.7.7 0 0 0 .93-.93l-1.22-2.53a.66.66 0 0 1 0-.61l1.22-2.53a.7.7 0 0 0 -.93-.93l-2.54 1.22a.7.7 0 0 1 -.6 0l-2.53-1.22a.7.7 0 0 0 -.93.93l1.22 2.49a.72.72 0 0 1 0 .65z" fill="#aec7ff"/><rect fill="#d4e4ff" height="2.88" rx=".96" width="1.92" x="13.5" y="43.51"/><rect fill="#d4e4ff" height="2.88" rx=".96" width="1.92" x="13.5" y="51.18"/><rect fill="#d4e4ff" height="2.88" rx=".96" transform="matrix(0 1 -1 0 67.08 30.5)" width="1.92" x="17.33" y="47.35"/><rect fill="#d4e4ff" height="2.88" rx=".96" transform="matrix(0 1 -1 0 59.41 38.16)" width="1.92" x="9.66" y="47.35"/></svg>