<svg height="151" viewBox="0 0 276 151" width="276" xmlns="http://www.w3.org/2000/svg" xmlns:xlink="http://www.w3.org/1999/xlink"><mask id="a" fill="#fff"><path d="m0 109.184v-108.751h259.682v108.751z" fill="#fff" fill-rule="evenodd"/></mask><mask id="b" fill="#fff"><path d="m0 150.5h275.631v-150.5h-275.631z" fill="#fff" fill-rule="evenodd"/></mask><g fill="none" fill-rule="evenodd"><path d="m32.3528 109.1836h172.953c30.031 0 54.376-24.345 54.376-54.375 0-30.031-24.345-54.376-54.376-54.376h-84.567c-12.163 0-22.023 9.86-22.023 22.023s-9.86 22.022-22.022 22.022h-44.341c-17.868 0-32.353 14.485-32.353 32.353s14.485 32.353 32.353 32.353" fill="#4f545c" mask="url(#a)" opacity=".3" transform="translate(0 14.5)"/><path d="m218.6317 111.5c0-12.313 7.948-22.77 18.993-26.52 2.826-.959 5.856-1.48 9.007-1.48 15.464 0 28 12.536 28 28s-12.536 28-28 28c-3.149 0-6.177-.52-9.002-1.479-11.048-3.748-18.998-14.206-18.998-26.521" fill="#acb0ff"/><path d="m259.632 143.5h-26l2-6h22z" fill="#fff"/><path d="m231.632 149.5h30v-6h-30z" fill="#d3d6ed" mask="url(#b)"/><path d="m274.0648 117.2227c-.536-.133-1.079.197-1.209.733-.1.405-.208.806-.326 1.203-.156.529.146 1.085.675 1.243.095.028.191.041.285.041.431 0 .829-.282.958-.716.127-.428.243-.858.35-1.294.132-.536-.196-1.078-.733-1.21" fill="#202225" mask="url(#b)"/><path d="m257.1385 139.1836.667 2c.216.647-.266 1.316-.949 1.316h-20.45c-.683 0-1.165-.669-.949-1.316l.667-2c.136-.408.518-.684.949-.684h19.117c.43 0 .812.276.948.684m2.493 9.316h-26c-.552 0-1-.447-1-1v-2c0-.552.448-1 1-1h26c.552 0 1 .448 1 1v2c0 .553-.448 1-1 1m-13-66c-3.193 0-6.332.516-9.328 1.534-11.767 3.995-19.672 15.033-19.672 27.466 0 11.107 6.318 21.084 16.052 25.937.448.224.67.733.512 1.208l-1.057 3.172c-.136.408-.518.683-.949.683h-.558c-.552 0-1 .448-1 1v6c0 .553.448 1 1 1h30c.552 0 1-.447 1-1v-6c0-.552-.448-1-1-1h-.558c-.431 0-.813-.275-.949-.683l-1.061-3.182c-.158-.475.064-.985.512-1.209 5.095-2.544 9.43-6.561 12.323-11.682.272-.482.102-1.091-.379-1.364-.48-.268-1.09-.1-1.362.379-3.011 5.33-7.696 9.383-13.174 11.662-.127.053-.263.079-.401.079h-19.918c-.137 0-.275-.026-.402-.079-10.014-4.162-16.631-13.951-16.631-24.921 0-11.576 7.36-21.853 18.315-25.572 2.789-.947 5.711-1.428 8.685-1.428 14.888 0 27 12.113 27 27 0 .751-.031 1.508-.092 2.251-.046.55.364 1.034.914 1.079.552.04 1.034-.365 1.079-.915.066-.796.099-1.609.099-2.415 0-15.99-13.009-29-29-29" fill="#202225" mask="url(#b)"/><path d="m243.6317 149.5h-232c-.552 0-1-.448-1-1v-9c0-.552.448-1 1-1h232c.552 0 1 .448 1 1v9c0 .552-.448 1-1 1" fill="#acb0ff" mask="url(#b)"/><path d="m243.6317 149.5h-100c-.552 0-1-.448-1-1v-9c0-.552.448-1 1-1h100c.552 0 1 .448 1 1v9c0 .552-.448 1-1 1" fill="#9192e8" mask="url(#b)"/><path d="m234.6317 138.5h-170c-.552 0-1-.448-1-1v-109c0-.552.448-1 1-1h170c.552 0 1 .448 1 1v109c0 .552-.448 1-1 1" fill="#fff" mask="url(#b)"/><path d="m236.6317 138.5h7c.552 0 1-.448 1-1v-109c0-.552-.448-1-1-1h-7c-.552 0-1 .448-1 1v109c0 .552.448 1 1 1m-12-10h-150c-.552 0-1-.448-1-1v-89c0-.552.448-1 1-1h150c.552 0 1 .448 1 1v89c0 .552-.448 1-1 1" fill="#d3d6ed" mask="url(#b)"/><path d="m225.6317 129.5h-152c-.552 0-1-.448-1-1v-91c0-.552.448-1 1-1h57.5c.552 0 1 .447 1 1s-.448 1-1 1h-55.5c-.552 0-1 .448-1 1v87c0 .552.448 1 1 1h148c.552 0 1-.448 1-1v-87c0-.552-.448-1-1-1h-78.585c-.552 0-1-.447-1-1s.448-1 1-1h80.585c.552 0 1 .448 1 1v91c0 .552-.448 1-1 1" fill="#202225" mask="url(#b)"/><path d="m191.1317 65.5h-55c-.552 0-1 .448-1 1v40c0 .552.448 1 1 1h22.379c.401 0 .763.239.92.607l3.281 7.688c.346.809 1.494.809 1.839 0l3.281-7.688c.157-.368.52-.607.92-.607h22.38c.552 0 1-.448 1-1v-40c0-.552-.448-1-1-1" fill="#fff" mask="url(#b)"/><path d="m137.1317 106.5h22.04c.4 0 .763.239.92.607l2.62 6.14c.346.81 1.494.81 1.839 0l2.621-6.14c.157-.368.519-.607.919-.607h22.041c.552 0 1-.448 1-1v-38c0-.552-.448-1-1-1h-53c-.552 0-1 .448-1 1v38c0 .552.448 1 1 1m26.5 12.449c-.4 0-.763-.239-.92-.607l-3.941-9.235c-.158-.368-.52-.607-.92-.607h-22.719c-.552 0-1-.448-1-1v-42c0-.552.448-1 1-1h57c.552 0 1 .448 1 1v42c0 .552-.448 1-1 1h-22.719c-.401 0-.762.239-.92.607l-3.941 9.235c-.157.368-.52.607-.92.607" fill="#202225" mask="url(#b)"/><path d="m250.2776 63.877 4.548-7.877c.385-.666-.097-1.5-.866-1.5h-9.096c-.77 0-1.251.834-.866 1.5l4.548 7.877c.385.667 1.347.667 1.732 0" fill="#fff" mask="url(#b)"/><path d="m245.7293 57 2.816 4.877c.385.667 1.347.667 1.732 0l2.816-4.877c.385-.667-.096-1.5-.866-1.5h-5.632c-.77 0-1.251.833-.866 1.5m3.682 9.377c-.357 0-.687-.19-.866-.5l-6.28-10.877c-.178-.31-.178-.69 0-1 .179-.31.509-.5.866-.5h12.56c.358 0 .688.19.867.5.178.31.178.69 0 1l-6.281 10.877c-.178.31-.508.5-.866.5" fill="#202225" mask="url(#b)"/><path d="m121.7327 10.5566h-.579c-.639 0-1.148-.602-.973-1.217.193-.678-.311-1.293-.958-1.293-.553 0-1 .448-1 1 0 .834-.676 1.51-1.51 1.51-.552 0-1 .448-1 1 0 .647.616 1.151 1.293.958.615-.175 1.217.334 1.217.974v.578c0 .552.447 1 1 1 .552 0 1-.448 1-1v-.51c0-.552.448-1 1-1h.51c.552 0 1-.448 1-1s-.448-1-1-1" fill="#acb0ff" mask="url(#b)"/><path d="m261.3255 103.4463h-.579c-.639 0-1.148-.602-.973-1.217.193-.678-.311-1.293-.958-1.293-.553 0-1 .448-1 1 0 .834-.676 1.51-1.51 1.51-.552 0-1 .448-1 1 0 .647.616 1.151 1.293.958.615-.175 1.217.334 1.217.973v.579c0 .552.447 1 1 1 .552 0 1-.448 1-1v-.51c0-.552.448-1 1-1h.51c.553 0 1-.448 1-1s-.447-1-1-1" fill="#fff" mask="url(#b)"/><path d="m46.6317 116.5c0 2.209-1.791 4-4 4s-4-1.791-4-4 1.791-4 4-4 4 1.791 4 4" fill="#acb0ff" mask="url(#b)"/><path d="m42.6317 113.5c-1.654 0-3 1.346-3 3s1.346 3 3 3 3-1.346 3-3-1.346-3-3-3m0 8c-2.757 0-5-2.243-5-5s2.243-5 5-5 5 2.243 5 5-2.243 5-5 5" fill="#202225" mask="url(#b)"/><path d="m163.6317 88.5c-2.762 0-5-2.239-5-5v-6c0-2.761 2.238-5 5-5 2.761 0 5 2.239 5 5v6c0 2.761-2.239 5-5 5" fill="#acb0ff" mask="url(#b)"/><g fill="#202225"><path d="m163.6317 73.5c-2.206 0-4 1.794-4 4v6c0 2.206 1.794 4 4 4s4-1.794 4-4v-6c0-2.206-1.794-4-4-4m0 16c-3.309 0-6-2.691-6-6v-6c0-3.309 2.691-6 6-6s6 2.691 6 6v6c0 3.309-2.691 6-6 6" mask="url(#b)"/><path d="m163.6317 93.2998c-4.962 0-9-4.037-9-9 0-.553.448-1 1-1s1 .447 1 1c0 3.859 3.14 7 7 7s7-3.141 7-7c0-.553.448-1 1-1s1 .447 1 1c0 4.963-4.038 9-9 9" mask="url(#b)"/><path d="m167.1317 99.5h-1.5c-.552 0-1-.448-1-1v-6c0-.553-.448-1-1-1s-1 .447-1 1v6c0 .552-.448 1-1 1h-1.5c-.552 0-1 .447-1 1s.448 1 1 1h7c.552 0 1-.447 1-1s-.448-1-1-1" mask="url(#b)"/><path d="m243.6317 145.5c0 1.657-1.343 3-3 3h-96c-.552 0-1-.448-1-1v-7c0-.552.448-1 1-1h96c1.657 0 3 1.343 3 3zm-102 2c0 .552-.448 1-1 1h-126c-1.657 0-3-1.343-3-3v-3c0-1.657 1.343-3 3-3h49 77c.552 0 1 .448 1 1zm-77-118c0-.552.448-1 1-1h168c.552 0 1 .448 1 1v107c0 .552-.448 1-1 1h-168c-.552 0-1-.448-1-1zm173-1h3c1.657 0 3 1.343 3 3v103c0 1.657-1.343 3-3 3h-3c-.552 0-1-.448-1-1v-107c0-.552.448-1 1-1zm8 1c0-1.657-1.343-3-3-3h-7-172c-.552 0-1 .448-1 1v110h-50c-1.657 0-3 1.343-3 3v7c0 1.657 1.343 3 3 3h230c1.657 0 3-1.343 3-3v-7c0-.772-.3-1.468-.779-2 .479-.532.779-1.228.779-2z" mask="url(#b)"/></g><path d="m272.6898 78.0688c.256 0 .512-.098.707-.293l1.183-1.184c.391-.39.391-1.023 0-1.414-.39-.39-1.024-.39-1.414 0l-1.183 1.184c-.391.391-.391 1.024 0 1.414.195.195.451.293.707.293m-5.9161 5.9161c.256 0 .512-.098.707-.293l1.183-1.183c.391-.391.391-1.024 0-1.414-.39-.391-1.023-.391-1.414 0l-1.183 1.183c-.391.391-.391 1.023 0 1.414.195.195.451.293.707.293m6.3921-.293c.195.195.451.293.707.293s.512-.098.707-.293c.391-.391.391-1.023 0-1.414l-1.183-1.183c-.391-.391-1.023-.391-1.414 0-.391.39-.391 1.023 0 1.414zm-5.916-5.916c.195.195.451.293.707.293s.512-.098.707-.293c.391-.39.391-1.023 0-1.414l-1.183-1.184c-.391-.39-1.023-.39-1.414 0s-.391 1.024 0 1.414z" fill="#d3d6ed" mask="url(#b)"/><path d="m213.8817 46h-58c-2.209 0-4-1.791-4-4v-37c0-2.209 1.791-4 4-4h58c2.209 0 4 1.791 4 4v37c0 2.209-1.791 4-4 4" fill="#acb0ff" mask="url(#b)"/><path d="m155.8817 2c-1.654 0-3 1.346-3 3v37c0 1.654 1.346 3 3 3h58c1.654 0 3-1.346 3-3v-37c0-1.654-1.346-3-3-3zm58 45h-58c-2.757 0-5-2.243-5-5v-37c0-2.757 2.243-5 5-5h58c2.757 0 5 2.243 5 5v37c0 2.757-2.243 5-5 5z" fill="#202225" mask="url(#b)"/><path d="m189.3817 22.6338-9-5.196c-.667-.385-1.5.096-1.5.866v10.392c0 .77.833 1.251 1.5.866l9-5.196c.667-.385.667-1.347 0-1.732" fill="#fff" mask="url(#b)"/><path d="m179.8817 20.0366v6.927c0 .77.833 1.251 1.5.866l6-3.463c.667-.386.667-1.348 0-1.733l-6-3.463c-.667-.385-1.5.096-1.5.866m-1 11.391c-.173 0-.345-.045-.5-.134-.31-.178-.5-.508-.5-.866v-13.855c0-.358.19-.688.5-.867.31-.177.69-.177 1 0l12 6.928c.31.179.5.509.5.866 0 .358-.19.688-.5.867l-12 6.927c-.155.089-.327.134-.5.134" fill="#202225" mask="url(#b)"/><path d="m94.6317 93.25h-56c-.552 0-1-.448-1-1v-40c0-.552.448-1 1-1h55c.552 0 1 .448 1 1v30.022c0 .302.136.588.372.778l10.427 8.422c.733.592.314 1.778-.629 1.778z" fill="#fff" mask="url(#b)"/><path d="m39.6317 92.25h62.34c.944 0 1.363-1.186.629-1.778l-8.597-6.944c-.236-.19-.372-.475-.372-.778v-29.5c0-.552-.448-1-1-1h-53c-.552 0-1 .448-1 1v38c0 .552.448 1 1 1m68 2h-70c-.552 0-1-.448-1-1v-42c0-.552.448-1 1-1h57c.552 0 1 .448 1 1v30.545c0 .302.136.588.372.778l12.256 9.899c.33.266.456.712.315 1.111s-.519.667-.943.667" fill="#202225" mask="url(#b)"/><path d="m78.6317 63.75h-31c-.552 0-1-.447-1-1s.448-1 1-1h31c.552 0 1 .447 1 1s-.448 1-1 1m7 9.5h-38c-.552 0-1-.447-1-1s.448-1 1-1h38c.552 0 1 .447 1 1s-.448 1-1 1m-15 9.5h-24c-.552 0-1-.447-1-1s.448-1 1-1h24c.552 0 1 .447 1 1s-.448 1-1 1" fill="#202225" mask="url(#b)"/><path d="m63.0154 116.123-12.018 20.815c-.385.667.096 1.5.866 1.5h24.036c.77 0 1.251-.833.866-1.5l-12.018-20.815c-.385-.667-1.347-.667-1.732 0" fill="#d3d6ed" mask="url(#b)"/><path d="m53.5955 137.4385h20.572c.77 0 1.251-.833.866-1.5l-10.286-17.815c-.385-.667-1.347-.667-1.732 0l-10.286 17.815c-.385.667.096 1.5.866 1.5m24.036 2h-27.5c-.357 0-.687-.19-.866-.5-.178-.31-.178-.69 0-1l13.75-23.816c.385-.666 1.347-.666 1.732 0l13.75 23.816c.179.31.179.69 0 1-.178.31-.508.5-.866.5" fill="#202225" mask="url(#b)"/><path d="m0 0h276v151h-276z"/></g></svg>