<svg xmlns="http://www.w3.org/2000/svg" viewBox="0 0 180 200" width="42" height="33">
  <defs>
    <style>
      .cls-1{fill:#aabff2}.cls-3{fill:#7d94df}
    </style>
  </defs>
  <path d="M155 165c0-27.5-24.37-50-54.17-50H79.17C49.38 115 25 137.5 25 165v25a36.86 36.86 0 0 0 1.38 10h127.24a36.86 36.86 0 0 0 1.38-10z" class="cls-1"/>
  <path d="M172.54 70.64c-2.33-7.19-8.77-7.2-15.08-6.9A53.49 53.49 0 0 0 153 49.67c-7.38-14.79-21.8-17.53-37-18.28-24.3-1.19-49.68-1.85-71.64 8.47C34.05 44.7 31 52.74 28.75 58.82c-.41 1.12-.73 2.33-1.08 3.51a6.61 6.61 0 0 0-.89-.15c-16.28-1-20.28 12.05-20.07 26 .1 6.75.53 15.79 3.52 22 3.16 6.54 10.19 6 16.42 5.68a8.08 8.08 0 0 0 1.62-.25c5.18 14.72 18 20.43 32.92 22.38 22.89 3 48.64 3.82 71.45.12 14.21-2.3 20.56-10.78 23.4-22.26a22.34 22.34 0 0 0 5.5-.86c8-2.32 12.44-5.15 13.29-13.9.92-9.44.65-21.38-2.29-30.45z" class="cls-1"/>
  <path fill="#cbdaf7" d="M117.24 70.4c-6-4.62-14.35-4.83-21.53-5.27a136.32 136.32 0 0 0-30.13 1.58 9.88 9.88 0 0 0-2.66.86 8.65 8.65 0 0 0-7.12 6.76c-3.48 14.13-.66 32.13 14.47 38 13.11 5.12 33.08 5.07 43.94-4.2C124 99.79 129 79.55 117.24 70.4z"/>
  <path d="M78.7 93.14c-3.19 0-6.39 0-9.58.08A3.62 3.62 0 0 0 65.77 97a3.66 3.66 0 0 0 3.8 3.35c3.19.07 6.39.06 9.59.07 4.71.05 4.24-7.3-.46-7.28zM104.79 94.85q-5.31-.33-10.64-.57c-4.06-.18-4.57 6.87-.48 7.16q5.79.41 11.58.71c2 .11 3.54-2.07 3.42-3.88-.13-2.18-1.9-3.27-3.88-3.42z" class="cls-1"/>
  <path d="M38 80c-8.86 0-7.94 13.71.86 13.71S46.82 80 38 80zM139.19 80.6c-9.41 0-8.43 14.56.92 14.56s8.43-14.56-.92-14.56z"/>
  <path d="M24.76 79.13c0-2.84-3.45-3.85-5.47-2.65a3.54 3.54 0 0 0-4.55 2.65A51 51 0 0 0 13.88 97c.57 4.22 1.46 9 6.33 9.9a3.7 3.7 0 0 0 4.35-3.81c-.23-7.99.08-15.95.2-23.96zM164 78.65a3 3 0 0 0-2.59-2.4 3.61 3.61 0 0 0-5.09 3.33c.1 7.49.56 15 1.06 22.44a3.78 3.78 0 0 0 2.94 3.36c11.45 3.09 4.91-21.95 3.68-26.73z" class="cls-3"/>
  <path fill="#ff766c" d="M144.55 20.07C126.3 2.12 100.18-2.22 76.12 4.39c-14.53 4-28.08 11.07-36.5 24a112.39 112.39 0 0 0-9.37 18.83q-9.83 0-19.67.08c-5.55.05-4.94 8.53.54 8.58 12.81.1 25.63.09 38.44.1a4.78 4.78 0 0 0 1-.11c35.08.06 70.15 0 105.23 0a3.24 3.24 0 0 0 .85-.11 3.48 3.48 0 0 0 3.68-.08 52.12 52.12 0 0 0-15.77-35.61z"/>
  <path fill="#fff" d="M109.39 42.26a5 5 0 0 0-.16-1.24c-3.66-13.66-13.76-33.71-30.79-30.86-8 1.34-15.55 6.93-21.54 12.14S45.94 34 43.75 41.85a3.49 3.49 0 0 0 .18 2.43 4.33 4.33 0 0 0 4.29 3.85c19.19.33 38.4.17 57.6.17 3.56 0 4.65-3.47 3.57-6.04z"/>
  <path fill="#23d093" d="M73 30.76c1.2-.92 2.46-1.76 3.74-2.57q.94-.61 1.92-1.2l.34-.15c2.81 2.53 8.63-.3 7.35-5-3.2-11.86-19.49 1.44-23.5 6-3 3.4-6.51 9.44-1.31 12.67 2.35 1.47 5.53 1 8.18 1h9.82c5.86 0 5.25-9.07-.57-9.06h-7c-.27 0-.59 0-.94.06A24.7 24.7 0 0 1 73 30.76z"/>
</svg>
