<svg width="50" height="30" viewBox="0 0 50 30" fill="none" xmlns="http://www.w3.org/2000/svg">
<path fill-rule="evenodd" clip-rule="evenodd" d="M3 0H46.65C47.4457 0 48.2087 0.31607 48.7713 0.87868C49.3339 1.44129 49.65 2.20435 49.65 3V27C49.65 27.7956 49.3339 28.5587 48.7713 29.1213C48.2087 29.6839 47.4457 30 46.65 30H3C2.20435 30 1.44129 29.6839 0.87868 29.1213C0.31607 28.5587 0 27.7956 0 27L0 3C0 2.20435 0.31607 1.44129 0.87868 0.87868C1.44129 0.31607 2.20435 0 3 0Z" fill="white"/>
<path fill-rule="evenodd" clip-rule="evenodd" d="M49.4 16.85C49.4 22.49 49.06 25.92 49.06 29.02C46.8 29.62 30.91 29.32 13.36 29.99C28.68 26.85 39.74 22.56 49.39 16.85H49.4Z" fill="#F58220"/>
<path fill-rule="evenodd" clip-rule="evenodd" d="M2 0.5C1.17 0.5 0.5 1.17 0.5 2V28C0.5 28.83 1.17 29.5 2 29.5H48C48.83 29.5 49.5 28.83 49.5 28V2C49.5 1.17 48.83 0.5 48 0.5H2Z" stroke="#E4E4E4"/>
<path fill-rule="evenodd" clip-rule="evenodd" d="M40.78 12.68C40.78 12.58 40.71 12.52 40.58 12.52H40.42V13.02H40.54V12.82L40.69 13.02H40.84L40.67 12.82C40.74 12.8 40.78 12.75 40.78 12.68ZM40.57 12.75H40.54V12.62H40.57C40.63 12.62 40.66 12.64 40.66 12.68C40.66 12.72 40.63 12.75 40.56 12.75H40.57Z" fill="#231F20"/>
<path fill-rule="evenodd" clip-rule="evenodd" d="M40.6 12.34C40.37 12.34 40.19 12.53 40.19 12.77C40.19 13.01 40.37 13.2 40.59 13.2C40.82 13.2 40.99 13 40.99 12.77C40.99 12.53 40.82 12.34 40.59 12.34H40.6ZM40.6 13.12C40.41 13.12 40.27 12.96 40.27 12.77C40.27 12.57 40.41 12.42 40.59 12.42C40.77 12.42 40.92 12.58 40.92 12.77C40.92 12.97 40.77 13.12 40.59 13.12H40.6Z" fill="#231F20"/>
<path fill-rule="evenodd" clip-rule="evenodd" d="M40.02 13.9C40.02 12.86 39.33 12.26 38.14 12.26H36.6V17.83H37.63V15.6H37.77L39.2 17.84H40.48L38.8 15.5C39.59 15.33 40.02 14.77 40.02 13.92V13.9ZM37.94 14.83H37.64V13.13H37.95C38.6 13.13 38.95 13.43 38.95 13.96C38.95 14.52 38.6 14.83 37.94 14.83ZM32.97 17.83H35.91V16.9H34.01V15.4H35.84V14.45H34.01V13.2H35.91V12.26H32.97V17.84M29.94 16L28.52 12.26H27.39L29.64 17.98H30.2L32.5 12.26H31.37L29.95 16.01" fill="#231F20"/>
<path d="M21.93 15.02C21.93 16.7 23.14 17.96 24.76 17.96C25.1372 17.9588 25.5104 17.8824 25.8578 17.7354C26.2052 17.5883 26.5198 17.3735 26.7832 17.1035C27.0467 16.8336 27.2537 16.5138 27.3922 16.163C27.5308 15.8121 27.598 15.4372 27.59 15.06C27.5926 14.6884 27.522 14.3199 27.3823 13.9755C27.2425 13.6312 27.0362 13.3177 26.7753 13.0531C26.5143 12.7884 26.2038 12.5778 25.8615 12.4331C25.5191 12.2885 25.1517 12.2127 24.78 12.21C24.4084 12.2074 24.0399 12.278 23.6955 12.4178C23.3512 12.5576 23.0377 12.7638 22.7731 13.0248C22.5084 13.2857 22.2977 13.5962 22.1531 13.9386C22.0085 14.2809 21.9326 14.6484 21.93 15.02V15.02Z" fill="#F48027"/>
<g filter="url(#filter0_i_104_665)">
<path d="M21.93 15.02C21.93 16.7 23.14 17.96 24.76 17.96C25.1372 17.9588 25.5104 17.8824 25.8578 17.7354C26.2052 17.5883 26.5198 17.3735 26.7832 17.1035C27.0467 16.8336 27.2537 16.5138 27.3922 16.163C27.5308 15.8121 27.598 15.4372 27.59 15.06C27.5926 14.6884 27.522 14.3199 27.3823 13.9755C27.2425 13.6312 27.0362 13.3177 26.7753 13.0531C26.5143 12.7884 26.2038 12.5778 25.8615 12.4331C25.5191 12.2885 25.1517 12.2127 24.78 12.21C24.4084 12.2074 24.0399 12.278 23.6955 12.4178C23.3512 12.5576 23.0377 12.7638 22.7731 13.0248C22.5084 13.2857 22.2977 13.5962 22.1531 13.9386C22.0085 14.2809 21.9326 14.6484 21.93 15.02V15.02Z" fill="black"/>
</g>
<path fill-rule="evenodd" clip-rule="evenodd" d="M17.43 15.05C17.4183 15.5382 17.5335 16.021 17.7644 16.4512C17.9954 16.8814 18.334 17.2444 18.7473 17.5044C19.1606 17.7645 19.6343 17.9128 20.1221 17.9348C20.6099 17.9568 21.095 17.8518 21.53 17.63V16.36C21.12 16.79 20.75 16.96 20.28 16.96C19.24 16.96 18.5 16.17 18.5 15.04C18.5 13.97 19.26 13.13 20.23 13.13C20.73 13.13 21.1 13.31 21.53 13.75V12.48C21.1446 12.2541 20.7067 12.1334 20.26 12.13C19.8819 12.1339 19.5082 12.2127 19.1608 12.362C18.8133 12.5112 18.4988 12.7279 18.2357 12.9994C17.9725 13.271 17.7657 13.592 17.6275 13.944C17.4892 14.296 17.4221 14.6719 17.43 15.05ZM15.57 14.4C14.95 14.16 14.77 14 14.77 13.7C14.77 13.35 15.09 13.08 15.54 13.08C15.84 13.08 16.1 13.21 16.38 13.53L16.92 12.79C16.4964 12.3883 15.9338 12.1661 15.35 12.17C15.1357 12.1633 14.9223 12.1997 14.7224 12.2771C14.5224 12.3545 14.3401 12.4713 14.1862 12.6206C14.0323 12.7698 13.9099 12.9485 13.8264 13.1459C13.7429 13.3434 13.6999 13.5556 13.7 13.77C13.7 14.53 14.03 14.93 15 15.29C15.41 15.44 15.62 15.54 15.72 15.61C15.92 15.75 16.03 15.95 16.03 16.19C16.03 16.64 15.69 16.97 15.23 16.97C14.73 16.97 14.33 16.72 14.09 16.23L13.43 16.91C13.9 17.64 14.48 17.97 15.27 17.97C16.34 17.97 17.1 17.22 17.1 16.14C17.1 15.25 16.75 14.85 15.57 14.4ZM12 12.26H13.04V17.84H11.99L12 12.26ZM8.67001 12.26H7.14001V17.83H8.66001C9.46001 17.83 10.04 17.63 10.56 17.19C11.16 16.66 11.52 15.87 11.52 15.05C11.52 13.4 10.35 12.26 8.67001 12.26ZM9.87001 16.45C9.55001 16.75 9.13001 16.89 8.46001 16.89H8.18001V13.2H8.46001C9.13001 13.2 9.53001 13.33 9.88001 13.65C10.24 13.99 10.45 14.51 10.45 15.05C10.45 15.58 10.24 16.11 9.88001 16.45H9.87001Z" fill="#231F20"/>
<defs>
<filter id="filter0_i_104_665" x="21.93" y="12.21" width="6.66064" height="6.75006" filterUnits="userSpaceOnUse" color-interpolation-filters="sRGB">
<feFlood flood-opacity="0" result="BackgroundImageFix"/>
<feBlend mode="normal" in="SourceGraphic" in2="BackgroundImageFix" result="shape"/>
<feColorMatrix in="SourceAlpha" type="matrix" values="0 0 0 0 0 0 0 0 0 0 0 0 0 0 0 0 0 0 127 0" result="hardAlpha"/>
<feOffset dx="1" dy="1"/>
<feGaussianBlur stdDeviation="1"/>
<feComposite in2="hardAlpha" operator="arithmetic" k2="-1" k3="1"/>
<feColorMatrix type="matrix" values="0 0 0 0 0 0 0 0 0 0 0 0 0 0 0 0 0 0 0.5 0"/>
<feBlend mode="normal" in2="shape" result="effect1_innerShadow_104_665"/>
</filter>
</defs>
</svg>
