<svg width="660" height="79" viewBox="0 0 660 79" fill="none" xmlns="http://www.w3.org/2000/svg">
<g style="mix-blend-mode:multiply" opacity="0.2">
<path d="M622.57 52.26L605.57 36.85C600.39 32.1402 593.641 29.5303 586.64 29.53H527.25C523.18 29.5249 519.162 28.6152 515.487 26.8667C511.812 25.1182 508.571 22.5746 506 19.42L505.75 19.11C503.168 15.9447 499.913 13.3948 496.221 11.646C492.53 9.89707 488.495 8.99316 484.41 9H426C414.18 8.99861 402.628 12.5221 392.82 19.12L378.69 28.63C368.883 35.2279 357.33 38.7514 345.51 38.75H260.82C252.955 38.7514 245.178 40.4052 237.992 43.6042C230.807 46.8032 224.374 51.4761 219.11 57.32L199.57 79C353.047 79 506.523 78.9988 660 79C660 71.5233 660 64.0467 660 56.57H633.72C629.597 56.5678 625.622 55.0315 622.57 52.26Z" fill="#3E70DD"/>
</g>
<g style="mix-blend-mode:multiply" opacity="0.2">
<path d="M61.16 33.45H53.36C47.865 33.4518 42.4234 32.3708 37.3462 30.2689C32.2691 28.167 27.6558 25.0854 23.77 21.2L20.38 17.8C16.6221 14.0488 11.5297 11.9413 6.21999 11.94H-5.88316e-06C-5.88316e-06 34.2933 0.000244325 56.6467 -5.76395e-06 79H127L95.84 47.82C91.2876 43.2629 85.8814 39.648 79.9307 37.1822C73.9799 34.7165 67.6014 33.4482 61.16 33.45Z" fill="#3E70DD"/>
</g>
<path d="M462.71 63.67V79H416.23V63.67L423.33 56.58H455.62L462.71 63.67Z" fill="#557FF2"/>
<path d="M416.23 63.67H450.65V56.51H423.33L416.23 63.67Z" fill="#3261D2"/>
<path d="M441.02 79L441.65 71.52L442.93 56.56L443.77 46.66H474.54L475.38 56.56L475.73 60.66L475.81 61.46L475.98 63.5L476.08 64.76L477.3 79H441.02Z" fill="#85A6FB"/>
<path d="M475.2 71.52H406.57V79H475.2V71.52Z" fill="#7398FB"/>
<path d="M474.78 71.53L474.15 79H472.37L473.01 71.53H474.78Z" fill="#557FF2"/>
<path d="M407.62 79H388.73L389.94 64.78L390.05 63.5H406.29L406.4 64.78L406.98 71.52L407.62 79Z" fill="#7398FB"/>
<path d="M387.27 64.77H409.08V60.68H387.27V64.77Z" fill="#7398FB"/>
<path d="M387.27 60.68H409.08V56.58H387.27V60.68Z" fill="#557FF2"/>
<path d="M404.18 61.46H409.08V56.57H404.18V61.46Z" fill="#7398FB"/>
<path d="M394.65 61.46H401.92V56.57H394.65V61.46Z" fill="#7398FB"/>
<path d="M387.27 61.46H392.92V56.57H387.27V61.46Z" fill="#7398FB"/>
<path d="M483.6 73C483.838 72.9992 484.075 73.0398 484.3 73.12C484.752 73.3087 485.111 73.668 485.3 74.12C485.393 74.3414 485.437 74.5801 485.43 74.82V77.66H481.77V74.84C481.771 74.5998 481.819 74.3621 481.91 74.14C481.997 73.921 482.13 73.7233 482.3 73.56C482.471 73.3896 482.675 73.2568 482.9 73.17C483.119 73.0667 483.358 73.0089 483.6 73Z" fill="#4173D9"/>
<path d="M398.17 69.22C398.404 69.2174 398.636 69.2621 398.853 69.3515C399.07 69.4408 399.266 69.573 399.43 69.74C399.605 69.9006 399.746 70.0951 399.844 70.3117C399.942 70.5282 399.995 70.7624 400 71V73.84H396.4V71C396.403 70.527 396.592 70.0743 396.928 69.7407C397.263 69.4072 397.717 69.22 398.19 69.22H398.17Z" fill="#4173D9"/>
<path d="M493.05 79H474.15L474.79 71.52L475.37 64.76L475.48 63.5H491.73L491.83 64.76L493.05 79Z" fill="#7398FB"/>
<path d="M494.5 60.66H472.7V64.76H494.5V60.66Z" fill="#7398FB"/>
<path d="M494.5 56.57H472.7V60.66H494.5V56.57Z" fill="#557FF2"/>
<path d="M480 56.57H472.7V61.46H480V56.57Z" fill="#7398FB"/>
<path d="M489.49 56.57H482.22V61.46H489.49V56.57Z" fill="#7398FB"/>
<path d="M494.52 56.57H491.22V61.46H494.52V56.57Z" fill="#7398FB"/>
<path d="M447 46.65H471.3V25.88H447V46.65Z" fill="#7398FB"/>
<path d="M409.4 79H407.62L406.99 71.53H408.76L409.4 79Z" fill="#557FF2"/>
<path d="M478.76 39.77H439.55V46.65H478.76V39.77Z" fill="#85A6FB"/>
<path d="M443.77 46.66L443.58 48.99H474.74L474.54 46.66H443.77Z" fill="#7398FB"/>
<path d="M478.76 35.67H439.55V39.77H478.76V35.67Z" fill="#7398FB"/>
<path d="M461.13 35.67H447V40.56H461.13V35.67Z" fill="#85A6FB"/>
<path d="M473.6 35.67H464.83V40.56H473.6V35.67Z" fill="#85A6FB"/>
<path d="M478.78 35.67H475.48V40.56H478.78V35.67Z" fill="#85A6FB"/>
<path d="M439.56 40.56H444V35.67H439.57L439.56 40.56Z" fill="#85A6FB"/>
<path d="M459.16 16.17L450.65 25.89H467.65L459.16 16.17Z" fill="#3261D2"/>
<path d="M483.6 69.22C483.839 69.2093 484.078 69.2503 484.3 69.34C484.526 69.4195 484.731 69.5494 484.9 69.72C485.074 69.8878 485.213 70.0883 485.31 70.31C485.403 70.5314 485.447 70.7701 485.44 71.01V73.85H481.78V71C481.781 70.7631 481.829 70.5286 481.92 70.31C482.009 70.0893 482.142 69.8888 482.31 69.72C482.481 69.5496 482.685 69.4168 482.91 69.33C483.131 69.2484 483.365 69.211 483.6 69.22Z" fill="#4173D9"/>
<path d="M459.82 2.05H458.48V16.92H459.82V2.05Z" fill="#85A6FB"/>
<path d="M459.16 2.49C459.374 2.49198 459.584 2.43033 459.763 2.31287C459.942 2.19541 460.082 2.02744 460.165 1.83027C460.248 1.63311 460.271 1.41565 460.23 1.2055C460.19 0.995345 460.088 0.801973 459.937 0.649931C459.787 0.497888 459.594 0.394031 459.384 0.351542C459.175 0.309053 458.957 0.329848 458.759 0.411289C458.561 0.49273 458.392 0.631143 458.273 0.808958C458.154 0.986773 458.09 1.19597 458.09 1.41C458.09 1.69471 458.202 1.96791 458.403 2.17016C458.603 2.37242 458.875 2.48736 459.16 2.49Z" fill="#85A6FB"/>
<path d="M472.2 3.29H459.82V14H472.2V3.29Z" fill="#7196FF"/>
<path d="M480.89 6.16H466.62V16.9H480.91L480.89 6.16Z" fill="#7196FF"/>
<path d="M466.62 14H472.2L466.62 16.88V14Z" fill="#3261D2"/>
<g style="mix-blend-mode:multiply" opacity="0.2">
<path d="M509.54 66.66C509.485 65.4654 508.971 64.338 508.106 63.5122C507.241 62.6864 506.091 62.2256 504.895 62.2256C503.699 62.2256 502.549 62.6864 501.684 63.5122C500.819 64.338 500.305 65.4654 500.25 66.66V70.66C500.221 71.2881 500.319 71.9156 500.54 72.5046C500.76 73.0935 501.097 73.6317 501.532 74.0865C501.966 74.5413 502.488 74.9034 503.066 75.1507C503.644 75.3981 504.266 75.5256 504.895 75.5256C505.524 75.5256 506.146 75.3981 506.724 75.1507C507.302 74.9034 507.824 74.5413 508.258 74.0865C508.693 73.6317 509.03 73.0935 509.25 72.5046C509.471 71.9156 509.569 71.2881 509.54 70.66V66.66Z" fill="#4173D9"/>
</g>
<g style="mix-blend-mode:multiply" opacity="0.2">
<path d="M505.49 68.1H504.31V79H505.49V68.1Z" fill="#4173D9"/>
</g>
<g style="mix-blend-mode:multiply" opacity="0.2">
<path d="M546.12 69C546.064 67.8054 545.551 66.678 544.686 65.8522C543.821 65.0264 542.671 64.5656 541.475 64.5656C540.279 64.5656 539.129 65.0264 538.264 65.8522C537.399 66.678 536.885 67.8054 536.83 69V73C536.801 73.6281 536.899 74.2556 537.12 74.8446C537.34 75.4335 537.677 75.9717 538.112 76.4265C538.546 76.8813 539.068 77.2434 539.646 77.4907C540.224 77.738 540.846 77.8656 541.475 77.8656C542.104 77.8656 542.726 77.738 543.304 77.4907C543.882 77.2434 544.404 76.8813 544.838 76.4265C545.273 75.9717 545.61 75.4335 545.83 74.8446C546.051 74.2556 546.149 73.6281 546.12 73V69Z" fill="#4173D9"/>
</g>
<g style="mix-blend-mode:multiply" opacity="0.2">
<path d="M542.07 70.48H540.89V79H542.07V70.48Z" fill="#4173D9"/>
</g>
<g style="mix-blend-mode:multiply" opacity="0.2">
<path d="M381.59 67.58C381.59 66.3467 381.1 65.164 380.228 64.292C379.356 63.4199 378.173 62.93 376.94 62.93C375.707 62.93 374.524 63.4199 373.652 64.292C372.78 65.164 372.29 66.3467 372.29 67.58V71.58C372.29 72.8133 372.78 73.996 373.652 74.868C374.524 75.7401 375.707 76.23 376.94 76.23C378.173 76.23 379.356 75.7401 380.228 74.868C381.1 73.996 381.59 72.8133 381.59 71.58V67.58Z" fill="#4173D9"/>
</g>
<g style="mix-blend-mode:multiply" opacity="0.2">
<path d="M377.54 69H376.36V79H377.54V69Z" fill="#4173D9"/>
</g>
<g style="mix-blend-mode:multiply" opacity="0.2">
<path d="M514.2 73.54C514.811 73.5387 515.416 73.6581 515.981 73.8913C516.546 74.1245 517.059 74.467 517.491 74.899C517.923 75.3311 518.266 75.8442 518.499 76.409C518.732 76.9737 518.851 77.579 518.85 78.19V79H509.56V78.2C509.55 77.5887 509.67 76.9821 509.91 76.42C510.261 75.5703 510.856 74.8434 511.619 74.331C512.383 73.8185 513.281 73.5433 514.2 73.54Z" fill="#4173D9"/>
</g>
</svg>
