<svg viewBox="0 0 300 120" xmlns="http://www.w3.org/2000/svg"><path d="m239.64 38.34h-34.52a14.47 14.47 0 0 1 -11.71-6l-13.49-18.6a32.33 32.33 0 0 0 -26.19-13.37h-56.83a30 30 0 0 0 -21.26 8.8 30.07 30.07 0 0 1 -21.26 8.83h-4.71a24.91 24.91 0 0 0 -24.91 24.89v20.49a10.25 10.25 0 0 1 -5.46 9.06 36.77 36.77 0 0 0 -19.56 32.5v15.06h300.26v-21.3a60.34 60.34 0 0 0 -17.68-42.7 60.36 60.36 0 0 0 -42.68-17.66z" fill="#aec7ff" opacity=".2"/><rect fill="#7196ff" height="2.88" rx=".96" width="1.92" x="207.5" y="16.36"/><rect fill="#7196ff" height="2.88" rx=".96" width="1.92" x="207.5" y="24.03"/><rect fill="#7196ff" height="2.88" rx=".96" transform="matrix(0 1 -1 0 233.93 -190.66)" width="1.92" x="211.34" y="20.2"/><rect fill="#7196ff" height="2.88" rx=".96" transform="matrix(0 1 -1 0 226.26 -182.99)" width="1.92" x="203.67" y="20.2"/><path d="m77.9 22.65-1.22 2.53a.7.7 0 0 0 .93.93l2.53-1.22a.7.7 0 0 1 .6 0l2.54 1.22a.69.69 0 0 0 .92-.93l-1.2-2.53a.72.72 0 0 1 0-.65l1.22-2.53a.69.69 0 0 0 -.92-.93l-2.56 1.26a.7.7 0 0 1 -.6 0l-2.53-1.22a.7.7 0 0 0 -.93.93l1.22 2.49a.72.72 0 0 1 0 .65z" fill="#aec7ff"/><rect fill="#d4e4ff" height="2.88" rx=".96" width="1.92" x="13.24" y="43.51"/><rect fill="#d4e4ff" height="2.88" rx=".96" width="1.92" x="13.24" y="51.18"/><rect fill="#d4e4ff" height="2.88" rx=".96" transform="matrix(0 1 -1 0 66.81 30.76)" width="1.92" x="17.07" y="47.35"/><rect fill="#d4e4ff" height="2.88" rx=".96" transform="matrix(0 1 -1 0 59.15 38.43)" width="1.92" x="9.4" y="47.35"/><path d="m214.49 88.46h58.25a6.44 6.44 0 0 1 6.44 6.44v25.1h-71.13v-25.11a6.44 6.44 0 0 1 6.44-6.43z" fill="#fff"/><path d="m38 106.64h183l-8-54.54a9.78 9.78 0 0 0 -9.68-8.37h-156.23a9 9 0 0 0 -9.09 9.05z" fill="#ebf0f7"/><path d="m158.34 106.64h-53.92v-23.41a12.77 12.77 0 0 1 12.77-12.77h41.15z" fill="#567ef7"/><rect fill="#567ef7" height="45.41" rx="12.77" transform="matrix(-1 0 0 -1 332.28 156.51)" width="62.44" x="134.92" y="55.55"/><path d="m183.88 91v10h9.93a2.84 2.84 0 0 1 2.84 2.84 2.84 2.84 0 0 1 -2.84 2.84h-38.31v-15.68z" fill="#3e70dd"/><path d="m171.11 91v10h9.89a2.84 2.84 0 0 1 2.84 2.84 2.84 2.84 0 0 1 -2.84 2.84h-38.28v-15.68zm-69.41-30.26 2.62 9a.55.55 0 0 1 -.15.56.57.57 0 0 1 -.56.15l-9-2.63a5.7 5.7 0 0 1 1.59-11.17h.44a5.73 5.73 0 0 1 5.06 4.09zm3.42 23.19v17h-9.93a5.68 5.68 0 0 0 -5.68 5.68h38.31a2.84 2.84 0 0 0 2.84-2.84v-17a2.84 2.84 0 0 0 -2.84-2.84z" fill="#567ef7"/><rect fill="#7196ff" height="45.41" rx="12.77" transform="matrix(-1 0 0 -1 347.89 156.51)" width="62.44" x="142.72" y="55.55"/><path d="m198.06 93.19h-12.77a12.77 12.77 0 0 1 -12.77-12.8v-7.1a4.26 4.26 0 0 1 4.26-4.26h28.38a4.26 4.26 0 0 1 4.26 4.26v8.52a11.35 11.35 0 0 1 -11.36 11.38z" fill="#aec7ff"/><rect fill="#7196ff" height="3.55" rx="1.77" transform="matrix(-1 0 0 -1 400.39 170.7)" width="7.1" x="196.65" y="83.58"/><rect fill="#7196ff" height="3.55" rx="1.77" transform="matrix(-1 0 0 -1 377.81 170.7)" width="8.51" x="184.65" y="83.58"/><path d="m145.57 91.03h-11.35a5.68 5.68 0 0 1 -5.68-5.68v-12.77a5.68 5.68 0 0 1 5.67-5.65h11.36z" fill="#7196ff"/><path d="m142.02 86.77h-5.68a2.84 2.84 0 0 1 -2.82-2.84v-9.93a2.84 2.84 0 0 1 2.84-2.84h5.66z" fill="#aec7ff"/><rect fill="#202225" height="2.13" rx="1.06" transform="matrix(-1 0 0 -1 322.35 155.8)" width="8.51" x="156.92" y="76.84"/><path d="m47.09 43.73a9.05 9.05 0 0 1 9.05 9.05v53.85h-18.14v-53.85a9.05 9.05 0 0 1 9.09-9.05z" fill="#dae1ea"/><path d="m272.73 88.46a6.44 6.44 0 0 1 6.44 6.44v25.1h-12.87v-25.11a6.44 6.44 0 0 1 6.43-6.43z" fill="#ebf0f7"/><path d="m52.51 81.26-2.43.24a3.81 3.81 0 0 0 -3.41 4.17 3.81 3.81 0 0 0 4.17 3.4l2.4-.24a5 5 0 0 1 3.18.75 6.11 6.11 0 1 0 -1-9.67 5 5 0 0 1 -2.91 1.35zm193.66 14.74 1.74-1.72a3.81 3.81 0 0 1 5.38 0 3.81 3.81 0 0 1 0 5.38l-1.72 1.7a5.11 5.11 0 0 0 -1.45 2.93 6 6 0 0 1 -2.46 4.1 6.12 6.12 0 1 1 -4.36-11 4.94 4.94 0 0 0 2.87-1.39z"/><path d="m31.66 88.46h44.95a6.44 6.44 0 0 1 6.39 6.43v25.11h-57.77v-25.11a6.44 6.44 0 0 1 6.43-6.43z" fill="#ebf0f7"/><g fill="#ffd836"><circle cx="228.59" cy="102.03" r="4.74"/><path d="m210.37 102a4.75 4.75 0 0 0 -4.75 4.75h9.49a4.75 4.75 0 0 0 -4.74-4.75z"/><circle cx="230.6" cy="105.43" r="2.23"/><circle cx="225.23" cy="105.91" r="1.75"/><circle cx="224.81" cy="101.72" r="2.44"/></g><path d="m227.56 104.59a.4.4 0 0 1 -.21-.07.38.38 0 0 1 -.1-.52 3.27 3.27 0 0 1 4.55-.8.37.37 0 0 1 -.43.61 2.52 2.52 0 0 0 -3.5.61.37.37 0 0 1 -.31.17z" fill="#ff9a15"/><path d="m64 88.46a1 1 0 0 1 -1-1 1 1 0 0 1 1-1l12-.08a1 1 0 0 1 0 2zm0-2.93a1 1 0 0 1 -.43-1.9l10.73-5.21a1 1 0 0 1 1.34.47 1 1 0 0 1 -.47 1.33l-10.78 5.21a1 1 0 0 1 -.39.1zm-12.47 9.55a1 1 0 0 1 -1-1v-.76c0-2.92 0-5.44 2.72-6.77a1 1 0 1 1 .87 1.79c-1.55.76-1.6 2-1.59 5v.77a1 1 0 0 1 -1 .97zm37.47.48-.65-2.08a3.38 3.38 0 0 0 -4.24-2.21 3.4 3.4 0 0 0 -2.22 4.24l.65 2a4.5 4.5 0 0 1 -.09 2.9 5.4 5.4 0 0 0 .23 4.25 5.44 5.44 0 0 0 10.07-4 5.39 5.39 0 0 0 -2.05-2.82 4.38 4.38 0 0 1 -1.7-2.28z"/><path d="m83 106.64h174.82a8.48 8.48 0 0 1 8.48 8.48v4.88h-183.3z" fill="#dae1ea"/><path d="m91.7 112.67a.78.78 0 0 1 -.76-.64l-.39-2.18c-.55-2.7-.74-3.21-3.44-3.21a.77.77 0 0 1 -.77-.78.76.76 0 0 1 .77-.77c3.69 0 4.32 1.29 5 4.47l.4 2.2a.79.79 0 0 1 -.63.9zm147.3 0a.76.76 0 0 0 .76-.64l.39-2.18c.55-2.7.74-3.21 3.45-3.21a.78.78 0 0 0 .77-.78.77.77 0 0 0 -.77-.77c-3.69 0-4.32 1.29-5 4.47l-.4 2.2a.77.77 0 0 0 .62.9z"/><path d="m96.5 111.34a.77.77 0 0 1 -.74-.54c-1.1-3.56-2.17-4.16-4.8-4.16a.78.78 0 0 1 -.78-.78.77.77 0 0 1 .78-.77c3.52 0 5 1.28 6.28 5.25a.78.78 0 0 1 -.51 1zm-2.99-11.15a1.26 1.26 0 0 1 -.33 0l-4.1-1.43a1 1 0 0 1 .65-1.89l4.11 1.43a1 1 0 0 1 -.33 1.94z"/><path d="m139.08 104.58 1.36 2.06h.68v-5.68h-2.86z" fill="#dae1ea"/><path d="m141.11 99.8v3.44l-2 1.34a4.17 4.17 0 0 0 -5.78-.14l-.94.86a5.11 5.11 0 0 1 -3.45 1.34h-2.69a1.77 1.77 0 0 1 -1.13-3.14l.18-.15h-.41a9.88 9.88 0 0 0 -5.45 1.64l-.21.14a9 9 0 0 1 -5 1.51h-.34a2.07 2.07 0 0 1 -1.4-3.6l4.82-4.42a5.07 5.07 0 0 1 3.43-1.33h17.9a2.51 2.51 0 0 1 2.47 2.51z" fill="#fff"/><path d="m122.41 97.78h-1.14a.94.94 0 0 0 -.62.24l-2.11 1.98a.12.12 0 0 0 .08.21h1.14a.94.94 0 0 0 .62-.24l2.11-1.97a.12.12 0 0 0 -.08-.22z" fill="#dae1ea"/><path d="m123 98.54h-3.87a1 1 0 0 0 -.69.26l-.26.24a.15.15 0 0 0 .1.26h3.87a1 1 0 0 0 .69-.26l.26-.24a.15.15 0 0 0 -.1-.26zm11.54-.76c.41 0 .54.2.27.44a2.11 2.11 0 0 1 -1.23.44h-.27c-.42 0-.55-.2-.28-.44a2.11 2.11 0 0 1 1.23-.44zm.8.88c.41 0 .54.19.27.43a2.11 2.11 0 0 1 -1.23.44h-.28c-.41 0-.54-.2-.27-.44a2.1 2.1 0 0 1 1.23-.43zm-3.55 0c.42 0 .54.19.28.43a2.11 2.11 0 0 1 -1.24.44h-.27c-.42 0-.54-.2-.28-.44a2.13 2.13 0 0 1 1.24-.43zm.81.89c.42 0 .54.19.28.43a2.14 2.14 0 0 1 -1.24.44h-.27c-.42 0-.54-.2-.28-.44a2.13 2.13 0 0 1 1.24-.43zm-3.89 1.21c.64 0 .83.3.43.67a3.29 3.29 0 0 1 -1.91.67h-.43c-.64 0-.83-.3-.42-.67a3.23 3.23 0 0 1 1.9-.67zm-6.36 0c.64 0 .84.3.43.67a3.29 3.29 0 0 1 -1.91.67h-.42c-.64 0-.84-.3-.43-.67a3.29 3.29 0 0 1 1.91-.67z" fill="#dae1ea"/><path d="m47.48377471 103.41109405a1.58 1.58 0 0 1 -1.25369259-1.84960939l1.83112408-9.53577918 3.06401968.58837354-1.83112408 9.53577919a1.58 1.58 0 0 1 -1.81032709 1.26123584z" fill="#ff9a15"/><path d="m52.5066 98.8473-3.7436-.7258 1.1001-5.6742 5.439 1.0545-.7733 3.9886a1.71698736 1.71698736 0 0 1 -2.0222 1.3569z" fill="#ff9a15"/><path d="m49.66643913 97.0465627-.24688191.24809136-2.00599586-1.99621658.98047387-.98527712 1.27589843 1.2696784a1 1 0 0 1 -.00349453 1.46372394z" fill="#ffd836"/><path d="m47.42 95.3.63-3.3 3.11.6v.07a2.34 2.34 0 0 1 -2.74 1.87z" fill="#ffd836"/><path d="m241.34 106.62h-10.76a1 1 0 0 1 0-2h10.76a1 1 0 1 1 0 2z"/><path d="m76.61 88.46a6.44 6.44 0 0 1 6.39 6.43v25.11h-12.83v-25.11a6.44 6.44 0 0 1 6.44-6.44z" fill="#fff"/><path d="m250.71 106.93s-.94-3-1.56-5.12a1 1 0 0 1 1.92-.56c.62 2.1 1.55 5.09 1.55 5.09z"/></svg>