<svg xmlns="http://www.w3.org/2000/svg" width="171" height="86" viewBox="0 0 171 86">
  <g fill="none" fill-rule="evenodd">
    <path fill="#72767D" d="M46.1074,43.782 C46.1074,45.682 44.5534,47.236 42.6534,47.236 L42.3084,47.236 C40.4084,47.236 38.8544,45.682 38.8544,43.782 L38.8544,43.437 C38.8544,41.537 40.4084,39.983 42.3084,39.983 L42.6534,39.983 C44.5534,39.983 46.1074,41.537 46.1074,43.437 L46.1074,43.782 Z M86.5184,62.598 L69.9394,62.598 C60.8184,62.598 53.3974,55.178 53.3974,46.056 L53.3974,39.321 C53.3974,35.342 56.6344,32.104 60.6144,32.104 L77.7114,32.104 C78.2634,32.104 78.7114,32.552 78.7114,33.104 L89.0194,33.104 C89.0194,32.552 89.4664,32.104 90.0194,32.104 L94.3934,32.104 C94.1354,24.309 87.7314,18.044 79.8754,18.044 L30.6574,18.044 C25.5314,18.044 21.0254,20.717 18.4354,24.736 L21.1224,24.736 C21.6744,24.736 22.1224,25.183 22.1224,25.736 C22.1224,26.288 21.6744,26.736 21.1224,26.736 L15.6644,26.736 L15.6644,29.916 L21.1224,29.916 C21.6744,29.916 22.1224,30.364 22.1224,30.916 C22.1224,31.469 21.6744,31.916 21.1224,31.916 L21.1154,31.916 C21.1154,31.929 21.1224,31.94 21.1224,31.953 L21.1224,47.495 C21.1224,48.067 20.6584,48.531 20.0864,48.531 L16.9414,48.531 C16.9414,49.083 16.4934,49.531 15.9414,49.531 L15.6644,49.531 L15.6644,52.712 L21.1224,52.712 C21.6744,52.712 22.1224,53.159 22.1224,53.712 C22.1224,54.264 21.6744,54.712 21.1224,54.712 L16.1144,54.712 L16.1144,62.635 C16.1144,70.653 22.6384,77.177 30.6574,77.177 L42.4814,77.177 C43.0334,77.177 43.4814,77.625 43.4814,78.177 C43.4814,78.729 43.0334,79.177 42.4814,79.177 L36.4774,79.177 C42.2254,82.251 48.7834,84 55.7444,84 C60.7364,84 65.6124,83.114 70.2384,81.365 C71.8984,80.738 73.4964,80.002 75.0354,79.177 L57.1884,79.177 C56.6354,79.177 56.1884,78.729 56.1884,78.177 C56.1884,77.625 56.6354,77.177 57.1884,77.177 L79.8754,77.177 C87.8934,77.177 94.4174,70.653 94.4174,62.635 L94.4174,60.586 C92.0684,61.868 89.3774,62.598 86.5184,62.598 Z"/>
    <path fill="#4F545C" d="M31.603,16.9783 L32.063,16.9783 L32.063,78.3343 L31.603,78.3343 C22.859,78.3343 15.771,71.2463 15.771,62.5023 L15.771,32.8103 C15.771,24.0663 22.859,16.9783 31.603,16.9783"/>
    <path fill="#72767D" d="M11.8325,62.5516 L33.6935,62.5516 L33.6935,34.6346 L11.8325,34.6346 C5.8765,34.6346 1.0485,39.4636 1.0485,45.4186 L1.0485,51.7676 C1.0485,57.7226 5.8765,62.5516 11.8325,62.5516"/>
    <path fill="#72767D" d="M35.8549,16.9783 L36.3149,16.9783 L36.3149,78.3343 L35.8549,78.3343 C27.1109,78.3343 20.0229,71.2463 20.0229,62.5023 L20.0229,32.8103 C20.0229,24.0663 27.1109,16.9783 35.8549,16.9783"/>
    <path fill="#4F545C" d="M132.7504 46.7645C132.3234 46.8465 131.9884 47.1815 131.9354 47.6135L131.5004 51.1535C131.4394 51.6505 131.0184 52.0235 130.5184 52.0235L124.7154 52.0235C124.1884 52.0235 123.7534 51.6105 123.7264 51.0835L123.2724 42.2415C123.2414 41.6175 123.7904 41.1135 124.4064 41.2115 125.6354 41.4085 126.6314 41.4085 127.1124 41.4085 135.9294 41.4085 136.2434 28.5605 126.9224 29.3795 125.2264 29.5435 123.5294 30.2805 122.1624 31.7935 121.8094 32.1855 121.2064 32.2215 120.8024 31.8815L116.6414 28.3665C116.2304 28.0195 116.1624 27.3975 116.5074 26.9855 120.0554 22.7555 124.3894 21.0665 128.4984 21.0665 145.3754 21.0665 148.6184 43.7455 132.7504 46.7645M132.0094 63.1585C131.9384 63.2965 131.8324 63.4235 131.7094 63.5175 127.4614 66.7615 122.8924 63.9475 122.8924 59.9585 122.8924 57.0615 125.0974 54.9825 127.8684 54.9825 131.5834 54.9825 134.2804 58.7215 132.0094 63.1585M167.5604 54.7585C171.8774 40.2895 167.9324 24.6745 157.2664 14.0085 149.5224 6.2645 139.2264 2.0005 128.2744 2.0005 117.3234 2.0005 107.0264 6.2645 99.2834 14.0085 96.9004 16.3905 94.8514 19.0165 93.1494 21.8275 95.0154 25.1175 96.4304 28.6245 97.3674 32.2685 100.6174 32.9705 103.0604 35.8645 103.0604 39.3215L103.0604 46.0565C103.0604 51.4635 100.4414 56.2575 96.4174 59.2785L96.4174 62.6345C96.4174 64.4235 96.1234 66.1435 95.5954 67.7585 96.7214 69.2375 97.9464 70.6545 99.2834 71.9915 108.0994 80.8075 120.2754 85.0975 132.6854 83.7635 133.2134 83.7065 133.7094 84.0925 133.7804 84.6305 136.6174 84.2575 139.4244 83.6035 142.1524 82.6505 141.9664 82.1375 142.2254 81.5685 142.7384 81.3755 148.2104 79.3165 153.0984 76.1595 157.2664 71.9915 157.6504 71.6075 158.2674 71.6055 158.6594 71.9775 163.1424 67.2795 166.3264 61.8025 168.2114 55.9915 167.6974 55.8235 167.4054 55.2795 167.5604 54.7585M79.2031 8.1419C78.9061 8.6069 78.2871 8.7429 77.8221 8.4449 71.2361 4.2279 63.6011 1.9999 55.7451 1.9999 42.6891 1.9999 31.0481 8.1419 23.5341 17.6789 25.6951 16.6419 28.1051 16.0439 30.6571 16.0439L79.8751 16.0439C84.1271 16.0439 87.9971 17.6709 90.9311 20.3169 90.9711 20.2829 92.0791 21.6719 92.1251 21.6429 92.3951 21.4779 91.6271 20.0379 91.9031 20.1379 91.8941 20.1239 91.8861 20.1109 91.8781 20.0989 88.6281 15.1139 84.3511 10.8669 79.3441 7.6489 79.3361 7.8189 79.3021 7.9889 79.2031 8.1419M12.5639 57.1683L19.1549 57.1683C20.1739 57.1683 21.0009 56.3413 21.0009 55.3223L21.0009 41.9853C21.0009 40.9663 20.1739 40.1393 19.1549 40.1393L12.5639 40.1393C9.5399 40.1393 7.0879 42.5913 7.0879 45.6153L7.0879 51.6923C7.0879 54.7163 9.5399 57.1683 12.5639 57.1683"/>
    <path fill="#72767D" d="M91.3911,55.053 L90.8731,55.053 L90.2011,55.053 C88.7761,55.053 87.6101,53.887 87.6101,52.463 C87.6101,51.038 88.7761,49.872 90.2011,49.872 L90.8731,49.872 L91.3911,49.872 L92.7641,49.872 C94.1881,49.872 95.3541,51.038 95.3541,52.463 C95.3541,53.887 94.1881,55.053 92.7641,55.053 L91.3911,55.053 Z M82.8431,52.463 C82.8431,53.887 81.6771,55.053 80.2521,55.053 L78.3621,55.053 L76.4721,55.053 L73.8811,55.053 C72.4561,55.053 71.2911,53.887 71.2911,52.463 C71.2911,51.038 72.4561,49.872 73.8811,49.872 L76.4721,49.872 L78.3621,49.872 L80.2521,49.872 C81.6771,49.872 82.8431,51.038 82.8431,52.463 Z M95.8441,34.104 L90.0191,34.104 C89.4671,34.104 89.0191,33.656 89.0191,33.104 L78.7111,33.104 C78.7111,33.656 78.2631,34.104 77.7111,34.104 L60.6141,34.104 C57.7381,34.104 55.3971,36.444 55.3971,39.321 L55.3971,46.056 C55.3971,54.074 61.9211,60.598 69.9391,60.598 L86.5181,60.598 C94.5371,60.598 101.0601,54.074 101.0601,46.056 L101.0601,39.321 C101.0601,36.444 98.7201,34.104 95.8441,34.104 Z"/>
    <path fill="#B9BBBE" d="M95.8437,34.1038 L90.0187,34.1038 C89.4667,34.1038 89.0197,33.6558 89.0187,33.1038 L78.7107,33.1038 C78.7107,33.6558 78.2627,34.1038 77.7107,34.1038 L65.6147,34.1038 C62.7377,34.1038 60.3977,36.4438 60.3977,39.3208 L60.3977,46.0558 C60.3977,54.0748 66.9207,60.5988 74.9397,60.5988 L86.5177,60.5988 C94.5367,60.5988 101.0607,54.0748 101.0607,46.0558 L101.0607,39.3208 C101.0607,36.4438 98.7197,34.1038 95.8437,34.1038"/>
    <path fill="#4F545C" d="M80.2524 49.8724L78.3624 49.8724 76.4714 49.8724 73.8814 49.8724C72.4564 49.8724 71.2914 51.0384 71.2914 52.4624 71.2914 53.8874 72.4564 55.0534 73.8814 55.0534L76.4714 55.0534 78.3624 55.0534 80.2524 55.0534C81.6774 55.0534 82.8434 53.8874 82.8434 52.4624 82.8434 51.0384 81.6774 49.8724 80.2524 49.8724M95.354 52.4627C95.354 51.0377 94.188 49.8727 92.764 49.8727L91.392 49.8727 90.874 49.8727 90.201 49.8727C88.776 49.8727 87.611 51.0377 87.611 52.4627 87.611 53.8877 88.776 55.0527 90.201 55.0527L90.874 55.0527 91.392 55.0527 92.764 55.0527C94.188 55.0527 95.354 53.8877 95.354 52.4627"/>
    <path fill="#202225" d="M101.061 46.056C101.061 54.087 94.55 60.598 86.519 60.598L69.94 60.598C61.908 60.598 55.397 54.087 55.397 46.056L55.397 39.321C55.397 36.44 57.733 34.104 60.614 34.104L77.711 34.104C78.263 34.104 78.711 33.656 78.711 33.104 78.711 32.552 78.263 32.104 77.711 32.104L60.614 32.104C56.628 32.104 53.397 35.335 53.397 39.321L53.397 46.056C53.397 55.192 60.804 62.598 69.939 62.598L86.519 62.598C88.665 62.598 90.716 62.187 92.599 61.44 93.469 61.094 94.417 61.698 94.417 62.635 94.417 70.666 87.907 77.177 79.875 77.177L57.188 77.177C56.636 77.177 56.188 77.624 56.188 78.177 56.188 78.729 56.636 79.177 57.188 79.177L72.511 79.177C73.143 79.177 73.34 80.042 72.767 80.306 71.94 80.686 71.098 81.04 70.239 81.365 65.613 83.113 60.737 84 55.745 84 49.497 84 43.573 82.591 38.268 80.079 37.812 79.864 37.963 79.177 38.468 79.177L42.481 79.177C43.033 79.177 43.481 78.729 43.481 78.177 43.481 77.624 43.033 77.177 42.481 77.177L30.658 77.177C24.394 77.177 19.054 73.193 17.016 67.627 16.286 65.634 17.773 63.519 19.896 63.519L21.123 63.519C21.675 63.519 22.123 63.072 22.123 62.519 22.123 61.967 21.675 61.519 21.123 61.519L11.362 61.519C6.192 61.519 2 57.328 2 52.158L2 44.905C2 43.232 2.447 41.591 3.29 40.159 4.111 38.767 5.283 37.604 6.681 36.796 8.097 35.976 9.716 35.543 11.362 35.543L21.123 35.543C21.675 35.543 22.123 35.095 22.123 34.543 22.123 33.991 21.675 33.543 21.123 33.543L17.072 33.543C16.543 33.543 16.115 33.115 16.115 32.586 16.115 24.554 22.626 18.043 30.658 18.043L79.875 18.043C86.864 18.043 92.704 23.002 94.089 29.585 94.363 30.884 93.348 32.104 92.019 32.104L90.019 32.104C89.467 32.104 89.019 32.552 89.019 33.104 89.019 33.656 89.467 34.104 90.019 34.104L95.844 34.104C98.726 34.104 101.061 36.44 101.061 39.321L101.061 46.056zM97.869 12.595C95.569 14.894 93.574 17.414 91.878 20.098 91.886 20.111 91.123 20.269 90.932 20.316 87.998 17.67 84.128 16.043 79.875 16.043L30.658 16.043C29.246 16.043 27.878 16.226 26.571 16.565 25.73 16.784 25.142 15.746 25.734 15.11 33.224 7.053 43.902 2 55.745 2 63.603 2 71.236 4.228 77.822 8.445 78.287 8.743 78.905 8.607 79.203 8.142 79.301 7.989 79.336 7.819 79.344 7.649 79.359 7.304 79.211 6.96 78.9 6.761 71.992 2.338 63.985 0 55.745 0 40.005 0 26.221 8.505 18.728 21.156 15.976 24.027 14.253 27.881 14.138 32.135 14.017 32.6 13.912 33.072 13.805 33.543L11.362 33.543C9.364 33.543 7.399 34.069 5.68 35.064 3.984 36.045 2.562 37.455 1.568 39.143.542 40.883 0 42.875 0 44.905L0 52.158C0 58.432 5.087 63.519 11.362 63.519L14.16 63.519C14.624 72.228 21.835 79.177 30.658 79.177L32.546 79.177C39.245 83.487 47.205 86 55.745 86 60.979 86 66.094 85.07 70.946 83.236 73.79 82.16 76.471 80.789 78.968 79.177L79.875 79.177C86.394 79.177 92.027 75.377 94.721 69.886 95.701 71.105 96.747 72.283 97.869 73.406 106.006 81.542 116.869 86.003 128.228 86.003 129.778 86.003 131.337 85.92 132.9 85.752 133.449 85.693 133.846 85.2 133.787 84.651 133.786 84.643 133.782 84.638 133.781 84.63 133.71 84.093 133.224 83.706 132.686 83.764 120.273 85.098 108.1 80.807 99.283 71.992 98.558 71.266 97.866 70.517 97.205 69.748 96.266 68.656 95.836 67.185 96.113 65.772 96.311 64.756 96.417 63.708 96.417 62.635L96.417 61.568C96.417 60.245 96.92 58.952 97.881 58.043 101.065 55.029 103.061 50.776 103.061 46.056L103.061 39.321C103.061 36.512 101.448 34.076 99.1 32.884 98.025 32.339 97.165 31.447 96.809 30.296 96.338 28.772 95.783 27.276 95.144 25.814 93.929 23.032 94.313 19.815 96.208 17.444 97.723 15.55 99.418 13.771 101.289 12.13 115.397-.245 136.458-1.413 151.794 9.405 166.502 19.78 172.55 38.034 167.561 54.759 167.406 55.279 167.698 55.823 168.212 55.991 168.22 55.994 168.226 56 168.234 56.003 168.76 56.159 169.319 55.859 169.478 55.33 174.004 40.157 169.867 23.781 158.681 12.595 141.915-4.171 114.635-4.171 97.869 12.595zM157.2665 71.9915C153.0985 76.1595 148.2095 79.3165 142.7385 81.3745 142.2255 81.5675 141.9675 82.1365 142.1525 82.6505 142.1545 82.6545 142.1535 82.6585 142.1545 82.6625 142.3055 83.0635 142.6865 83.3115 143.0905 83.3115 143.2075 83.3115 143.3275 83.2905 143.4425 83.2465 149.1825 81.0875 154.3095 77.7765 158.6805 73.4055 159.0715 73.0145 159.0715 72.3825 158.6805 71.9915 158.6745 71.9855 158.6655 71.9835 158.6595 71.9775 158.2665 71.6055 157.6505 71.6075 157.2665 71.9915"/>
    <path fill="#202225" d="M127.8681 54.9827C125.0971 54.9827 122.8921 57.0617 122.8921 59.9587 122.8921 63.9467 127.4621 66.7607 131.7091 63.5177 131.8321 63.4237 131.9391 63.2957 132.0091 63.1587 134.2811 58.7207 131.5841 54.9827 127.8681 54.9827M128.498 21.0662C124.389 21.0662 120.056 22.7552 116.508 26.9842 116.163 27.3972 116.23 28.0192 116.642 28.3662L120.803 31.8802C121.206 32.2212 121.809 32.1852 122.163 31.7932 123.529 30.2792 125.226 29.5442 126.923 29.3792 136.244 28.5612 135.929 41.4072 127.113 41.4072 126.632 41.4072 125.636 41.4072 124.407 41.2122 123.79 41.1132 123.241 41.6172 123.273 42.2412L123.727 51.0842C123.753 51.6102 124.188 52.0232 124.715 52.0232L130.519 52.0232C131.019 52.0232 131.44 51.6502 131.501 51.1532L131.935 47.6132C131.988 47.1812 132.323 46.8462 132.75 46.7642 148.619 43.7462 145.375 21.0662 128.498 21.0662M42.2666 48.1092L42.6956 48.1092C45.0526 48.1092 46.9806 46.1802 46.9806 43.8232L46.9806 43.3952C46.9806 41.0382 45.0526 39.1092 42.6956 39.1092L42.2666 39.1092C39.9096 39.1092 37.9806 41.0382 37.9806 43.3952L37.9806 43.8232C37.9806 46.1802 39.9096 48.1092 42.2666 48.1092"/>
  </g>
</svg>
