<svg height="89" viewBox="0 0 143 89" width="143" xmlns="http://www.w3.org/2000/svg"><g fill="none" fill-rule="evenodd"><g fill="#acb0ff"><path d="m28.481 38.062 8.381 6.599-8.381-6.6z"/><path d="m113.2437 40.602-8.657 6.806c-.037.039-.083.065-.125.098l-.6.471-16.168 12.709c-1.019.801-1.018 2.346.003 3.146l16.165 12.67 9.383 7.356c.656.515 1.617.047 1.617-.787v-41.683c0-.834-.962-1.302-1.618-.786m-42.3819 12.5761-37.543 29.428c-1.497 1.173-.667 3.574 1.233 3.574h72.62c1.9 0 2.729-2.401 1.234-3.574zm-42.3828 30.6797 9.383-7.354 16.141-12.652c1.02-.8 1.021-2.344.003-3.145l-16.144-12.713-9.382-7.387c-.31-.244-.686-.263-.999-.133v43.515c.312.13.688.111.998-.131m42.0611-32.8965c.208-.071.436-.071.644 0-.208-.071-.436-.071-.644 0m-31.6783-4.7255 3.099 2.44z"/><path d="m82.835 60.022-11.355-8.901z"/></g><path d="m28.481 38.061 8.381 6.6v-2.388-10.298c0-.833-.961-1.301-1.617-.787l-6.762 5.301c-.51.4-.511 1.172-.002 1.572m52.0586-27.2041-9.678-7.586-11.058 8.668c-.748.587-.333 1.787.617 1.787h25.401l-3.878-3.039c-.341.435-.968.511-1.404.17m24.3222 31.7314c0 .835.962 1.303 1.618.786l6.761-5.313c.51-.402.509-1.173-.001-1.574l-6.761-5.299c-.657-.514-1.617-.046-1.617.788z" fill="#7b80d6"/><path d="m38.8618 42.2729v3.963l3.099 2.44 14.431 11.364c.724.57 1.745.571 2.471.003l11.382-8.922c.091-.071.191-.124.295-.16.209-.071.436-.071.644 0 .105.036.205.089.295.16l11.356 8.901c.725.568 1.745.567 2.469-.002l17.558-13.801v-30.493h-64z" fill="#fff"/><path d="m26.8618 83.0707v-41.679c0-.439.27-.772.619-.918.314-.13.69-.111 1 .133l9.381 7.387 16.145 12.713c1.018.802 1.016 2.345-.004 3.145l-16.141 12.652-9.383 7.354c-.31.242-.685.261-.998.131-.349-.146-.619-.479-.619-.918zm8.383-51.883c.657-.513 1.617-.046 1.617.787v10.298 2.388l-8.381-6.599v-.001c-.509-.4-.508-1.172.002-1.572zm67.617-15.462v30.493l-17.558 13.801c-.724.57-1.744.571-2.469.002l-11.356-8.901c-.09-.071-.19-.124-.295-.159-.208-.072-.435-.072-.644 0-.104.035-.204.088-.295.159l-11.382 8.922c-.726.568-1.747.567-2.471-.003l-14.431-11.364-3.099-2.44v-3.963-26.547zm3.617 15.462v.001l6.761 5.299c.51.4.511 1.172.001 1.573l-6.761 5.314c-.656.516-1.618.049-1.618-.786v-10.613c0-.834.96-1.301 1.617-.788zm8.383 51.883c0 .834-.961 1.302-1.617.787l-9.383-7.355-16.166-12.67c-1.021-.801-1.021-2.346-.002-3.147l16.168-12.709.6-.47c.042-.034.088-.06.125-.099l8.657-6.806c.656-.515 1.618-.048 1.618.786zm-7.69 3.109h-72.62c-1.9 0-2.73-2.401-1.233-3.574l37.543-29.428 37.544 29.428c1.495 1.173.666 3.574-1.234 3.574zm9.679-48.981c-.002-.035-.008-.067-.013-.102-.017-.089-.044-.172-.082-.253-.012-.025-.02-.05-.034-.074-.058-.1-.134-.188-.224-.263-.008-.006-.011-.015-.019-.022l-11.617-9.105v-12.654c0-.552-.447-1-1-1h-18.041-25.4c-.951 0-1.365-1.2-.618-1.787l11.059-8.668 9.678 7.586c.435.341 1.063.265 1.404-.17.341-.434.265-1.063-.17-1.404l-10.295-8.069c-.362-.285-.872-.285-1.234 0l-14.062 11.021c-1.232.966-2.753 1.491-4.318 1.491h-14.003c-.552 0-1 .448-1 1v8.327c0 2.732-1.255 5.311-3.404 6.996l-8.213 6.436c-.008.007-.011.016-.019.023-.09.074-.166.162-.224.262-.014.024-.021.049-.033.074-.039.081-.066.164-.082.253-.006.035-.012.067-.014.102-.002.025-.011.048-.011.073v49.908c0 .552.448 1 1 1h90c.553 0 1-.448 1-1v-49.908c0-.025-.009-.048-.011-.073zm10.9319-28.4991c.256 0 .512-.098.707-.293l1.183-1.184c.39-.39.39-1.023 0-1.414-.391-.39-1.025-.39-1.414 0l-1.183 1.184c-.391.391-.391 1.024 0 1.414.195.195.451.293.707.293m-5.916 5.916c.256 0 .512-.098.707-.293l1.183-1.183c.39-.39.39-1.023 0-1.414-.391-.39-1.024-.39-1.414 0l-1.183 1.183c-.391.391-.391 1.023 0 1.414.195.195.451.293.707.293m6.3916-.2929c.195.195.451.293.707.293s.512-.098.707-.293c.391-.391.391-1.023 0-1.414l-1.183-1.183c-.39-.39-1.023-.39-1.414 0-.39.391-.39 1.024 0 1.414zm-5.916-5.916c.195.195.451.293.707.293s.512-.098.707-.293c.391-.39.391-1.023 0-1.414l-1.183-1.184c-.39-.39-1.023-.39-1.414 0-.39.391-.39 1.024 0 1.414z" fill="#000"/><path d="m1 52.3276c.834 0 1.51.677 1.51 1.51v.001c0 .552.448 1 1 1s1-.448 1-1v-.001c0-.833.676-1.51 1.51-1.51.552 0 1-.447 1-1 0-.552-.448-1-1-1-.834 0-1.51-.676-1.51-1.51 0-.552-.448-1-1-1s-1 .448-1 1c0 .834-.676 1.51-1.51 1.51-.552 0-1 .448-1 1 0 .553.448 1 1 1m124.4898 13.0117c0 3.866-3.134 7-7 7s-7-3.134-7-7 3.134-7 7-7 7 3.134 7 7" fill="#fff"/><path d="m125.4898 65.3393c0 3.866-3.134 7-7 7s-7-3.134-7-7 3.134-7 7-7 7 3.134 7 7" fill="#d3d6ed"/><path d="m118.4898 59.3393c-3.309 0-6 2.691-6 6s2.691 6 6 6 6-2.691 6-6-2.691-6-6-6m0 14c-4.411 0-8-3.589-8-8s3.589-8 8-8 8 3.589 8 8-3.589 8-8 8" fill="#000"/><path d="m129.652 87.18 6-10.392 6 10.392z" fill="#fff"/><path d="m131.3843 86.1801h8.535l-4.267-7.392zm10.268 2h-12c-.358 0-.688-.19-.867-.5-.178-.31-.178-.69 0-1l6-10.392c.358-.619 1.375-.619 1.733 0l6 10.392c.179.31.179.69 0 1s-.509.5-.866.5z" fill="#000"/><path d="m73.5811 35.391c.397 0 .72-.322.72-.72v-4.802-6.802c0-.398-.323-.72-.72-.72h-6.083c-.397 0-.719.322-.719.72v6.802 4.802c0 .398.322.72.719.72zm.7197 9.8028v-6.082c0-.398-.322-.721-.72-.721h-6.082c-.398 0-.72.323-.72.721v6.082c0 .397.322.72.72.72h6.082c.398 0 .72-.323.72-.72" fill="#72767d"/></g></svg>