<svg width="153" height="74" fill="none" xmlns="http://www.w3.org/2000/svg"><g clip-path="url(#clip0)"><path opacity=".2" d="M129.404 14.903v27.52c0 2.732 2.236 4.967 4.968 4.967C144.655 47.39 153 55.736 153 66.02v3.874H0V54.395c0-12.22 9.935-22.156 22.155-22.156h27.123c9.538 0 17.287-7.75 17.287-17.287A14.883 14.883 0 0181.468.05h33.034c8.246-.05 14.902 6.606 14.902 14.853z" fill="#72767D"/><path d="M76.252 73.867c19.204 0 34.772-15.568 34.772-34.773 0-19.204-15.568-34.772-34.772-34.772-19.205 0-34.773 15.568-34.773 34.772 0 19.205 15.568 34.773 34.773 34.773z" fill="#202225"/><path d="M51.414 40.287L76.35 66.416l24.738-26.13h-6.954V0H58.368v40.287h-6.954z" fill="#B9BBBE"/><path d="M114.005 41.081l-8.942 8.942v14.903l8.942 8.941 8.941-8.941V50.023l-8.941-8.942zm4.471 21.957l-4.471 4.47-4.471-4.47V51.861l4.471-4.47 4.471 4.47v11.177z" fill="#72767D"/><path d="M111.024 52.457v9.985l2.981 2.98 2.98-2.98v-9.985l-2.98-2.98-2.981 2.98z" fill="#72767D"/><path d="M114.005 41.081v6.31l4.471 4.47 4.47-1.838-8.941-8.942z" fill="#B9BBBE"/><path d="M27.073 5.166l-8.942 8.942V29.01l8.942 8.942 8.942-8.942V14.108l-8.942-8.942zm4.47 21.957l-4.47 4.47-4.47-4.47V15.946l4.47-4.471 4.47 4.47v11.178z" fill="#72767D"/><path d="M24.093 16.542v9.985l2.98 2.98 2.98-2.98v-9.985l-2.98-2.98-2.98 2.98z" fill="#72767D"/><path d="M27.073 5.166v6.309l4.47 4.47 4.472-1.837-8.942-8.942z" fill="#B9BBBE"/><path d="M14.008 51.662l-1.241 2.633c-.298.596.347 1.242.943.944l2.633-1.242c.199-.1.447-.1.646 0l2.633 1.242c.596.298 1.242-.348.944-.944l-1.242-2.633a.737.737 0 010-.645l1.242-2.633c.298-.596-.348-1.242-.944-.944l-2.633 1.242c-.199.1-.447.1-.646 0L13.71 47.44c-.596-.298-1.242.348-.943.944l1.241 2.633c.1.248.1.447 0 .645z" fill="#fff"/><path d="M138.197 27.868l-1.242 2.633c-.298.596.348 1.241.944.944l2.632-1.242c.199-.1.448-.1.646 0l2.633 1.242c.596.297 1.242-.348.944-.944l-1.242-2.633a.74.74 0 010-.646l1.242-2.633c.298-.596-.348-1.242-.944-.944l-2.633 1.242c-.198.1-.447.1-.646 0l-2.632-1.242c-.596-.298-1.242.348-.944.944l1.242 2.633a.74.74 0 010 .646z" fill="#B9BBBE"/><path d="M119.469 12.469a.996.996 0 01-.993-.994v-.993c0-.547.447-.994.993-.994.547 0 .994.447.994.994v.993a.996.996 0 01-.994.994zM119.469 20.417a.996.996 0 01-.993-.994v-.993c0-.547.447-.994.993-.994.547 0 .994.447.994.994v.993a.997.997 0 01-.994.994zM121.953 14.952c0-.546.447-.993.993-.993h.994c.546 0 .993.447.993.993a.996.996 0 01-.993.994h-.994a.996.996 0 01-.993-.994zM114.005 14.952c0-.546.447-.993.993-.993h.994c.546 0 .993.447.993.993a.996.996 0 01-.993.994h-.994a.996.996 0 01-.993-.994z" fill="#4F545C"/></g><defs><clipPath id="clip0"><path fill="#fff" d="M0 0h153v73.867H0z"/></clipPath></defs></svg>