<svg width="112" height="85" viewBox="0 0 112 85" fill="none" xmlns="http://www.w3.org/2000/svg">
<path d="M6.62086 5.91995L4.80526 9.20879C4.42303 9.94878 5.28305 10.771 6.23863 10.4421L10.0609 8.87991C10.3476 8.79769 10.6343 8.79769 10.921 8.87991L14.7433 10.4421C15.6033 10.771 16.5589 10.031 16.1766 9.20879L14.3611 5.91995C14.2655 5.67329 14.2655 5.42663 14.3611 5.17997L16.1766 1.89113C16.4633 1.06892 15.5077 0.328934 14.6477 0.657818L10.8254 2.22001C10.5387 2.30224 10.2521 2.30224 9.96539 2.22001L6.14307 0.657818C5.28305 0.328934 4.32747 1.06892 4.7097 1.89113L6.5253 5.17997C6.71642 5.34441 6.71642 5.67329 6.62086 5.91995Z" fill="#FCA800"/>
<g clip-path="url(#clip0_1280_102143)">
<path d="M62.0391 66.6096C68.6947 74.9167 76.3628 82.3607 84.8607 88.7674C87.1761 90.4935 90.3213 90.5931 92.7446 89.0163C95.9728 87.008 96.9686 82.7674 94.9686 79.5308C94.9188 79.4561 94.869 79.3814 94.8192 79.3068C85.8566 65.7797 76.8109 52.4187 76.8109 52.4187L62.0391 66.6096Z" fill="url(#paint0_linear_1280_102143)"/>
<path d="M71.9971 66.5266L83.6983 84.452" stroke="#0EC2BC" stroke-width="1.1315" stroke-miterlimit="10" stroke-linecap="round"/>
<path d="M35.8145 62.7092C22.5365 64.8669 20.5448 74.4105 15.8145 87.6056C11.0842 100.801 28.0137 99.8878 39.383 99.8878C50.7523 99.8878 71.4163 95.1575 76.8105 66.1117L35.8145 62.7092Z" fill="#0EC2BC"/>
<path d="M35.8135 34.8254C36.7263 24.1199 38.3861 20.0535 43.1164 18.9747C47.8467 17.8959 50.0874 22.0452 52.1621 28.3523L35.8135 34.8254Z" fill="#2AE5C4"/>
<path d="M64.6953 18.5598C60.5459 18.7258 58.5542 22.1283 56.6455 27.2735L70.0065 30.0121C70.6704 22.6262 68.7617 18.3108 64.6953 18.5598Z" fill="#2AE5C4"/>
<path d="M52.1621 72.7509C77.3074 74.4936 80.5439 63.7882 82.7016 56.6513C85.6061 46.7757 88.1788 42.3773 84.3613 38.145C82.0377 35.5723 78.5522 35.3234 75.0667 36.3192C72.0791 30.0122 67.5148 25.6138 54.8177 26.5267C45.2741 27.2736 30.4193 32.2528 25.025 48.8504C19.6308 65.448 40.1288 72.004 52.1621 72.7509Z" fill="url(#paint1_linear_1280_102143)"/>
<path d="M78.2224 41.3816L77.3925 39.2239L73.741 49.6803L69.2597 53.1658L62.9526 52.4189L45.4422 41.5475L44.6123 43.0413C46.5957 43.9459 48.3966 45.2156 49.9235 46.7758C55.8157 52.4189 58.2223 62.8754 51.9152 72.751H52.1642C68.8447 73.9128 75.8157 69.5974 79.3012 64.5352C76.0647 50.8422 77.5585 45.033 78.2224 41.3816Z" fill="#ADFDDC"/>
<path d="M37.3076 39.7218C40.2952 39.6389 42.0379 40.6347 43.4487 42.5434" stroke="#0EC2BC" stroke-width="1.1315" stroke-miterlimit="10" stroke-linecap="round"/>
<path d="M76.8104 39.9707C74.9017 45.9458 73.4909 52.4189 68.6776 53.1658C63.8643 53.9127 55.9805 47.9375 47.8477 42.4603" stroke="black" stroke-width="1.601" stroke-miterlimit="10" stroke-linecap="round"/>
<path d="M76.3112 37.3979C78.0539 37.1489 81.2904 38.4767 81.7054 40.8834C82.1203 43.29 78.2199 42.8751 76.1452 41.1323C75.3319 40.5597 74.8423 39.6386 74.8174 38.6427C74.8174 38.0618 75.3983 37.4809 76.3112 37.3979Z" fill="#5865F2"/>
<path d="M49.6729 27.3564C49.009 26.1448 48.2621 24.9746 47.4323 23.8709C46.8679 23.0327 45.8389 22.6344 44.8596 22.875C44.0298 23.124 42.121 24.2858 41.8721 29.763C41.8721 30.012 42.0463 30.2195 42.287 30.261H42.37C42.5858 30.2527 42.7766 30.1199 42.8679 29.929C43.6148 27.0244 45.0256 24.8667 46.1044 24.6178H46.6024C47.4323 24.9497 48.5111 26.4435 49.341 27.9373C49.507 28.1863 49.6729 28.2692 49.7559 28.1863C49.8389 28.1033 49.9219 28.0203 49.6729 27.3564Z" fill="black"/>
<path d="M68.9279 28.6842C68.8947 27.29 68.7288 25.8958 68.43 24.5348C68.3221 23.5306 67.5918 22.7007 66.6043 22.4601C65.8574 22.3771 63.7827 22.626 61.459 27.5223C61.3843 27.7547 61.4507 28.012 61.625 28.1862H61.708C61.874 28.2775 62.0814 28.2443 62.2059 28.1032C63.9487 25.7796 65.9404 24.2858 67.0192 24.6178L67.3512 24.8667C67.9321 25.6136 68.264 27.4393 68.43 29.1821C68.43 29.431 68.596 29.597 68.679 29.597C68.762 29.597 68.9279 29.431 68.9279 28.6842Z" fill="black"/>
<path d="M31.1673 45.9457C31.8395 44.759 32.7441 43.7133 33.8229 42.8751C34.9765 42.1283 36.2794 41.6469 37.6404 41.4644H39.6321L41.6238 41.7963C42.8935 42.0785 44.1217 42.5266 45.2753 43.1241C47.6072 44.3689 49.6404 46.0951 51.2504 48.1864C52.8853 50.2196 54.1052 52.5598 54.8189 55.0744C54.8189 55.1573 54.7359 55.3233 54.6529 55.3233C54.5699 55.3233 54.4039 55.3233 54.3209 55.1573C53.6155 52.7341 52.4288 50.4768 50.8355 48.5183C49.184 46.5847 47.184 44.983 44.9433 43.788C43.8479 43.1988 42.6777 42.7839 41.4578 42.5432C40.8603 42.3772 40.2462 42.2942 39.6321 42.2942C38.9931 42.2361 38.3541 42.2693 37.7234 42.3772C36.5367 42.5681 35.3997 43.0245 34.4039 43.705C33.4163 44.4104 32.6113 45.3482 32.0802 46.4436C31.9142 46.6096 31.6653 46.7756 31.4163 46.6096C31.1673 46.5017 31.0512 46.203 31.1673 45.9457C31.1673 45.954 31.1673 45.9457 31.1673 45.9457Z" fill="#0EC2BC"/>
<path d="M41.5392 47.9373C46.1866 47.6883 48.9252 50.095 49.921 54.3273C50.9169 58.5597 51.4148 60.8834 53.0746 62.9581C54.7343 65.0328 56.56 68.6012 53.9044 74.8253C51.2488 81.0494 43.6969 94.6594 37.3899 103.29H17.9707C33.7384 81.6303 40.3774 72.9166 40.5434 68.4353C40.7094 63.9539 37.1409 59.9705 35.6471 58.0618C34.1533 56.1531 34.8172 54.6593 35.8131 54.3273C36.8089 53.9954 38.2197 54.4933 39.0496 55.7381C37.8048 51.7547 37.3069 48.1862 41.5392 47.9373Z" fill="#2AE5C4"/>
<path d="M47.4313 38.9747C49.6719 40.3855 50.5848 42.9581 49.506 44.7008C48.4271 46.4436 47.5142 45.6137 46.5184 44.8668C45.3068 43.954 43.9624 43.232 42.535 42.7091C40.9582 42.1282 40.5433 40.8004 41.3731 39.5556C42.203 38.3108 45.1906 37.5639 47.4313 38.9747Z" fill="#5865F2"/>
<path d="M94.8184 79.3068L84.8599 64.286C85.6649 59.0494 86.8848 53.8876 88.5114 48.8502C89.3412 46.4436 88.7603 44.3689 85.8558 44.2029C82.9512 44.0369 81.2914 46.2776 79.4657 50.842C77.64 55.4063 76.5611 56.9001 74.6524 59.2237C72.7437 61.5474 71.8308 64.452 75.2333 70.3441C77.225 73.7466 83.2001 82.9582 87.9305 90.0122C89.6068 90.3027 91.3247 89.9458 92.7438 89.0163C95.972 87.008 96.9678 82.7674 94.9678 79.5308C94.918 79.4562 94.8682 79.3815 94.8184 79.3068Z" fill="#2AE5C4"/>
<path d="M41.2913 47.9375L40.5445 48.1035C39.9552 48.2197 39.5403 48.7508 39.5486 49.3483C39.5237 49.9043 39.5818 50.4686 39.7146 51.008C40.2706 53.5724 40.9926 56.0869 41.8723 58.5599C41.8723 58.8089 42.1212 58.8919 42.2872 58.8919H42.4532C42.6689 58.8255 42.7934 58.5931 42.727 58.3691C42.7187 58.3442 42.7104 58.3276 42.7021 58.311C41.864 55.8628 41.1752 53.3732 40.6274 50.8421C40.3785 49.5143 40.3785 48.6844 40.7104 48.2694L41.2913 47.9375Z" fill="black"/>
<path d="M40.2123 62.2945C40.3036 62.4854 40.4944 62.6182 40.7102 62.6265H40.7932C41.0339 62.5435 41.1832 62.2945 41.1251 62.0456C40.6272 60.5518 39.8803 58.6431 39.0504 55.8215C38.6853 55.2987 38.204 54.8671 37.6396 54.5767C38.8015 58.2281 39.6314 60.5518 40.2123 62.2945Z" fill="#0EBABA"/>
<path d="M45.9383 58.394C45.9798 58.5932 46.1541 58.7259 46.3533 58.7259H46.5192C46.7599 58.643 46.9093 58.394 46.8512 58.145C46.8512 58.062 44.8595 52.4189 44.2786 50.1782C44.1126 49.2653 44.1126 48.6014 44.4445 48.3525H44.9425L43.6976 48.0205C43.5317 48.0205 43.4487 48.1865 43.3657 48.2695C43.1997 48.95 43.1997 49.6637 43.3657 50.3442C43.9466 52.6678 45.8553 58.228 45.9383 58.394Z" fill="black"/>
<path d="M84.4463 56.5681H84.5293C84.7451 56.5598 84.9359 56.427 85.0272 56.2362C85.7741 53.7465 87.2679 49.2652 87.6828 47.6054C87.8571 47.0079 87.9733 46.4021 88.0148 45.7797C88.1227 45.232 87.799 44.6926 87.2679 44.5349C86.9359 44.3689 86.5625 44.2776 86.1891 44.2859C86.687 44.3689 86.853 44.5349 86.936 44.7009C87.0189 44.8668 87.1849 45.8627 86.77 47.3565C86.355 48.8503 84.7783 53.9125 84.1144 55.9872C84.0314 56.1532 84.1974 56.4851 84.4463 56.5681Z" fill="black"/>
<path d="M84.8591 64.2861L81.2906 64.6181C81.108 64.5932 80.9421 64.7177 80.9172 64.9002C80.9089 64.9749 80.9254 65.0496 80.9586 65.116C80.9586 65.3484 81.1412 65.531 81.3736 65.531H81.4566C82.7761 65.3484 84.1039 65.2654 85.44 65.282L84.8591 64.2861Z" fill="#0EC2BC"/>
<path d="M75.0688 36.3191C74.9443 36.037 74.8116 35.7548 74.6539 35.4893C73.7742 36.1034 73.0439 36.8918 72.4962 37.8129C72.4215 38.0619 72.5211 38.3357 72.7452 38.4768H72.9111C73.0854 38.4934 73.2514 38.3938 73.3261 38.2279C73.7493 37.4644 74.3468 36.8088 75.0688 36.3191Z" fill="#0EC2BC"/>
<path opacity="0.58" d="M72.993 57.3982C72.5698 59.2073 71.2586 60.6762 69.5075 61.2986C66.437 62.4604 63.6984 60.3027 62.8685 58.9749C62.0386 57.6471 62.1216 56.8173 63.2835 57.3152C67.6818 58.8919 69.5905 58.311 71.3333 56.7343C73.076 55.1575 72.4951 55.6554 72.91 55.6554C73.325 55.6554 73.408 56.1533 72.993 57.3982Z" fill="#2AE5C4"/>
<path d="M47.1013 20.3854C47.1013 20.6343 46.7693 20.8003 46.1884 20.7173C45.6075 20.6343 44.8606 20.3024 44.6946 19.8045C44.5287 19.3065 45.1926 19.1406 45.9395 19.3895C46.6864 19.6385 47.1013 20.0534 47.1013 20.3854Z" fill="#2FFFDA"/>
<path d="M67.3512 20.1367C67.3512 20.3857 66.9362 20.5516 66.4383 20.4686C65.9404 20.3857 65.0275 19.9707 64.9445 19.5558C64.8615 19.1408 65.3595 18.8919 66.1893 19.1408C66.7039 19.2902 67.1271 19.6471 67.3512 20.1367Z" fill="#2FFFDA"/>
</g>
<path d="M87.8342 10.3413C87.0252 10.3413 86.3633 9.77177 86.3633 9.07568V7.81006C86.3633 7.11396 87.0252 6.54443 87.8342 6.54443C88.6432 6.54443 89.3051 7.11396 89.3051 7.81006V9.07568C89.3051 9.77177 88.6432 10.3413 87.8342 10.3413Z" fill="#FCE97D"/>
<path d="M87.8332 20.4665C87.0242 20.4665 86.3623 19.897 86.3623 19.2009V17.9353C86.3623 17.2392 87.0242 16.6697 87.8332 16.6697C88.6422 16.6697 89.3041 17.2392 89.3041 17.9353V19.2009C89.3041 19.897 88.6422 20.4665 87.8332 20.4665Z" fill="#FCE97D"/>
<path d="M91.5127 13.5054C91.5127 12.8093 92.1746 12.2397 92.9836 12.2397H94.4545C95.2635 12.2397 95.9254 12.8093 95.9254 13.5054C95.9254 14.2015 95.2635 14.771 94.4545 14.771H92.9836C92.1746 14.771 91.5127 14.2015 91.5127 13.5054Z" fill="#FCE97D"/>
<path d="M79.7451 13.5049C79.7451 12.8088 80.407 12.2393 81.216 12.2393H82.687C83.496 12.2393 84.1579 12.8088 84.1579 13.5049C84.1579 14.201 83.496 14.7705 82.687 14.7705H81.216C80.407 14.7705 79.7451 14.201 79.7451 13.5049Z" fill="#FCE97D"/>
<path d="M101.381 58.4683L101.28 58.5551C100.977 58.8156 100.523 58.7722 100.271 58.5551L99.0094 57.4698C98.7067 57.2093 98.7572 56.8186 99.0094 56.6015L99.1104 56.5147C99.4131 56.2542 99.8672 56.2976 100.119 56.5147L101.381 57.6C101.633 57.8171 101.633 58.2512 101.381 58.4683Z" fill="#FF78B9"/>
<path d="M107.137 63.4207L107.036 63.5075C106.733 63.768 106.279 63.7246 106.027 63.5075L104.765 62.4222C104.463 62.1617 104.513 61.771 104.765 61.5539L104.866 61.4671C105.169 61.2066 105.623 61.25 105.875 61.4671L107.137 62.5524C107.439 62.8129 107.389 63.2036 107.137 63.4207Z" fill="#FF78B9"/>
<path d="M104.817 58.5564L104.716 58.4695C104.414 58.2091 104.464 57.8183 104.716 57.6013L105.978 56.5159C106.281 56.2554 106.735 56.2989 106.987 56.5159L107.088 56.6028C107.391 56.8632 107.34 57.254 107.088 57.471L105.826 58.5564C105.574 58.8603 105.12 58.8168 104.817 58.5564Z" fill="#FF78B9"/>
<path d="M99.0625 63.5092L98.9616 63.4224C98.6589 63.1619 98.7093 62.7712 98.9616 62.5541L100.223 61.4688C100.526 61.2083 100.98 61.2517 101.232 61.4688L101.333 61.5556C101.636 61.8161 101.585 62.2068 101.333 62.4239L100.072 63.5092C99.8193 63.8131 99.3652 63.7697 99.0625 63.5092Z" fill="#FF78B9"/>
<defs>
<linearGradient id="paint0_linear_1280_102143" x1="93.3845" y1="82.7824" x2="73.7661" y2="64.4753" gradientUnits="userSpaceOnUse">
<stop offset="0.04" stop-color="#2AE5C4"/>
<stop offset="0.27" stop-color="#25DFC3"/>
<stop offset="0.56" stop-color="#19CFBF"/>
<stop offset="0.73" stop-color="#0EC2BC"/>
</linearGradient>
<linearGradient id="paint1_linear_1280_102143" x1="50.9084" y1="30.1266" x2="58.8669" y2="64.7989" gradientUnits="userSpaceOnUse">
<stop stop-color="#2AE5C4"/>
<stop offset="0.9" stop-color="#0EC2BC"/>
</linearGradient>
<clipPath id="clip0_1280_102143">
<rect width="93.6133" height="68" fill="white" transform="translate(0 16.5496)"/>
</clipPath>
</defs>
</svg>
