<svg xmlns="http://www.w3.org/2000/svg" viewBox="0 0 931.5 613.2"><style>.st0{opacity:.3;fill:#c7ccd1;enable-background:new}.st3{fill:#9099a4}.st4{fill:#fff}</style><path class="st0" d="M704.8 247c0-57.6-47.1-104.6-104.6-104.6H460.6v470.8h470.9V473.7c0-68-54.1-122.1-122.1-122.1-57.5 0-104.6-47.1-104.6-104.6zM363.1 412.5v200.7H0V505.6c0-52.4 41.7-94.1 94.1-94.1 44.4 0 269 1 269 1z"/><path fill="#c7ccd1" d="M150.3 209.8h579.5v403.4H150.3z"/><path class="st3" d="M150.3 283.1h579.5v128.4H150.3z"/><path class="st4" d="M220 466.5h238.4v36.7H220z"/><path class="st3" d="M553.8 465.1h121v91.7h-121z"/><path class="st4" d="M220 521.5h238.4v36.7H220z"/><path d="M440 311.1c71.9 0 130.3-58.3 130.3-130.3S512 50.5 440 50.5s-130.3 58.3-130.3 130.3S368 311.1 440 311.1z" fill="#23262a"/><path fill="#83ddc5" d="M430.5 252.9l-62.4-55.6 29.2-32.8 30.4 27 61-65.2 32.2 30z"/><g><path class="st3" d="M860.5 246c-2.7 0-4.4-1.8-4.4-4.4v-4.4c0-2.7 1.8-4.4 4.4-4.4 2.7 0 4.4 1.8 4.4 4.4v4.4c0 2.7-1.8 4.4-4.4 4.4zM860.5 281.4c-2.7 0-4.4-1.8-4.4-4.4v-4.4c0-2.7 1.8-4.4 4.4-4.4 2.7 0 4.4 1.8 4.4 4.4v4.4c0 2.6-1.8 4.4-4.4 4.4zM871.5 257.1c0-2.7 1.8-4.4 4.4-4.4h4.4c2.7 0 4.4 1.8 4.4 4.4 0 2.6-1.8 4.4-4.4 4.4h-4.4c-2.2 0-4.4-1.8-4.4-4.4zM836.2 257.1c0-2.7 1.8-4.4 4.4-4.4h4.4c2.7 0 4.4 1.8 4.4 4.4 0 2.6-1.8 4.4-4.4 4.4h-4.4c-2.2 0-4.4-1.8-4.4-4.4z"/></g><g><path class="st3" d="M53.6 198.4c-2.7 0-4.4-1.8-4.4-4.4v-4.4c0-2.7 1.8-4.4 4.4-4.4s4.4 1.8 4.4 4.4v4.4c0 2.6-1.8 4.4-4.4 4.4zM53.6 233.7c-2.7 0-4.4-1.8-4.4-4.4v-4.4c0-2.7 1.8-4.4 4.4-4.4s4.4 1.8 4.4 4.4v4.4c0 2.6-1.8 4.4-4.4 4.4zM64.6 209.4c0-2.7 1.8-4.4 4.4-4.4h4.4c2.7 0 4.4 1.8 4.4 4.4s-1.8 4.4-4.4 4.4H69c-2.2 0-4.4-1.7-4.4-4.4zM29.3 209.4c0-2.7 1.8-4.4 4.4-4.4h4.4c2.7 0 4.4 1.8 4.4 4.4s-1.8 4.4-4.4 4.4h-4.4c-2.2 0-4.4-1.7-4.4-4.4z"/></g><path class="st3" d="M654 15.5l-4.4-13.3c-1.3-3.1-5.3-2.7-6.2 0L639 15.5c0 .9-.9 1.8-2.2 2.2l-13.3 4.4c-3.1 1.3-2.7 5.3 0 6.2l13.3 4.4c.9 0 1.8.9 2.2 2.2l4.4 13.3c1.3 3.1 5.3 2.7 6.2 0l4.4-13.3c0-.9.9-1.8 2.2-2.2l13.3-4.4c3.1-1.3 2.7-5.3 0-6.2l-13.3-4.4c-1.3-.4-1.7-.9-2.2-2.2z"/></svg>