<svg width="264" height="135" fill="none" xmlns="http://www.w3.org/2000/svg">
  <g clip-path="url(#clip0)">
    <path opacity=".2" d="M83 134.5H0V109c0-11.3 9.2-20.5 20.5-20.5h7.3c4 0 7.8-1.6 10.6-4.4l22.3-22.3C66.3 56.1 74 53 81.9 53h7.8c5.5 0 10-4.5 10-10 0-13.5 11-24.5 24.5-24.5h70.3c14.9 0 27 12.1 27 27V92c0 10.5 8.5 19 19 19 13 0 23.5 10.5 23.5 23.5H83z" fill="#AEC7FF"/>
    <path d="M198.2 37.6L161.1 0l-36.9 37.6h11.3l.1 47.9h51.3V37.6h11.3z" fill="#FFD836"/>
    <path d="M42.2 64.7H120l17 32.8-69-4-25.8-28.8z" fill="#202225"/>
    <path d="M84.182 23.627l-6.928 4 21 36.372 6.928-4-21-36.372z" fill="#FF9A15"/>
    <path d="M119.657 55.072l-32.908 19 34 58.888 32.908-19-34-58.888z" fill="#fff"/>
    <path d="M93.668 70.076l-6.928 4 34 58.888 6.928-4-34-58.888z" fill="#D4E4FF"/>
    <path d="M118.975 43.89l-41.568 24 5 8.66 41.568-24-5-8.66z" fill="#7196FF"/>
    <path d="M102.133 46.718l-13.856 8 3 5.196 13.856-8-3-5.196zM86.14 19.017l-13.856 8 3 5.196 13.856-8-3-5.196z" fill="#3E70DD"/>
    <path d="M109.7 79.8a4 4 0 1 0 0-8 4 4 0 0 0 0 8z" fill="#FFD836"/>
    <path d="M165.5 116.7l-21.8-3.1c-15-2.1-25.5-16.2-23.4-31.1 2.1-15 16.2-25.5 31.1-23.4l21.8 3.1c15 2.1 25.5 16.2 23.4 31.1-2.1 15-16.1 25.5-31.1 23.4z" fill="#FF73FA"/>
    <path d="M161.8 64c-7.2 4.9-18.4-2.6-16.6-11.1 7.2-5 18.4 2.5 16.6 11.1z" fill="#83DDC5"/>
    <path d="M161.1 63.9c5.5 6.8 18.4 2.7 19.1-6.1-5.6-6.7-18.5-2.6-19.1 6.1z" fill="#83DDC5"/>
    <path d="M164.1 74.4c-1.3-.2-2.5.5-3 1.7l-1.3 3.5-.3-3.7c-.1-1.3-1.1-2.3-2.4-2.5l-9.2-1.3c-1.4-.2-2.8.7-3.1 2.1L139.7 98c-.3 1.6.7 3.1 2.3 3.3l6.1.9 2.6.4 1.5.2 6.9 1 2.2.3 1.9.3 7.3 1c1.6.2 3-.9 3.1-2.5l1.7-24.3c.1-1.4-.9-2.7-2.4-2.9l-8.8-1.3z" fill="#fff"/>
    <path d="M163.8 99.9c.2-2.1-2.8-2.8-3.5-.8l-.2.6c-.3.8-1.1 1.3-2 1.2l-4-.6c-.8-.1-1.5-.8-1.6-1.7V98c-.2-2.1-3.2-2.3-3.6-.2-.2.9-1.1 1.6-2 1.4l-2.5-.4c-1-.1-1.8-1.2-1.5-2.2l4.4-20.2c.2-.9 1.1-1.6 2-1.4l6.1.9c.8.1 1.5.8 1.6 1.7l.5 6.3c.2 1.9 2.8 2.3 3.5.5l2.3-5.9c.3-.8 1.1-1.3 2-1.2l5.9.8c.9.1 1.6 1 1.6 1.9l-1.5 20.6c-.1 1.1-1 1.8-2.1 1.7l-3.7-.5c-1.1-.1-1.8-.9-1.7-1.9z" fill="#202225"/>
    <path d="M37.2 102.8h42.4V84.5H47l-9.8 18.3z" fill="#7196FF"/>
    <path d="M208 84.5H86v50h122v-50z" fill="#D4E4FF"/>
    <path d="M62 134.429h24v-50H62v50z" fill="#AEC7FF"/>
    <path d="M62 84.5L42.2 64.7 28.1 78.9c-5.5 5.5-5.5 14.3 0 19.8s14.3 5.5 19.8 0L62 84.5z" fill="#D4E4FF"/>
    <path d="M236.6 89.2l-1.3 2.6c-.3.6.3 1.3 1 1l2.6-1.3c.2-.1.4-.1.6 0l2.6 1.3c.6.3 1.3-.3 1-1l-1.3-2.6c-.1-.2-.1-.4 0-.6l1.3-2.6c.3-.6-.3-1.3-1-1l-2.6 1.3c-.2.1-.4.1-.6 0l-2.6-1.3c-.6-.3-1.3.3-1 1l1.3 2.6c.1.2.1.4 0 .6z" fill="#3E70DD"/>
    <path d="M27.5 46.6c-.6 0-1-.4-1-1v-1c0-.6.4-1 1-1s1 .4 1 1v1c0 .6-.4 1-1 1zM27.5 54.6c-.6 0-1-.4-1-1v-1c0-.6.4-1 1-1s1 .4 1 1v1c0 .6-.4 1-1 1zM30 49.1c0-.6.4-1 1-1h1c.6 0 1 .4 1 1s-.4 1-1 1h-1c-.6 0-1-.4-1-1zM22 49.1c0-.6.4-1 1-1h1c.6 0 1 .4 1 1s-.4 1-1 1h-1c-.6 0-1-.4-1-1z" fill="#AEC7FF"/>
    <path d="M210.5 52.6c-.6 0-1-.4-1-1v-1c0-.6.4-1 1-1s1 .4 1 1v1c0 .6-.4 1-1 1zM210.5 60.6c-.6 0-1-.4-1-1v-1c0-.6.4-1 1-1s1 .4 1 1v1c0 .6-.4 1-1 1zM213 55.1c0-.6.4-1 1-1h1c.6 0 1 .4 1 1s-.4 1-1 1h-1c-.6 0-1-.4-1-1zM205 55.1c0-.6.4-1 1-1h1c.6 0 1 .4 1 1s-.4 1-1 1h-1c-.6 0-1-.4-1-1z" fill="#fff"/>
    <path d="M151 100.5h-43v34h43v-34zM196 100.5h-33v34h33v-34z" fill="#7196FF"/>
  </g>
  <defs>
    <clipPath id="clip0">
      <path fill="#fff" d="M0 0h264v134.5H0z"/>
    </clipPath>
  </defs>
</svg>
