<?xml version="1.0" encoding="UTF-8"?><svg id="art" xmlns="http://www.w3.org/2000/svg" viewBox="0 0 180 150"><defs><style>.cls-1{fill:#00439c;}.cls-2{fill:#0070cc;}.cls-3{fill:#038e3c;}.cls-4{fill:#698fff;}.cls-5{fill:#fff;}.cls-6{fill:#ffe55c;}.cls-7{fill:#ff78b7;}.cls-8{fill:#ff78b8;}.cls-9{fill:#b8cdff;}.cls-10{fill:#8ad7ff;}.cls-11{fill:#242145;}.cls-12{fill:#29cc7a;}.cls-13{fill:#57f287;}.cls-14{fill:#72767d;fill-rule:evenodd;}</style></defs><g><rect class="cls-11" x="52.4" y="21.22" width="120" height="86" rx="7.92" ry="7.92"/><path class="cls-1" d="M164.48,19.22H60.32c-5.47,0-9.92,4.45-9.92,9.92V99.3c0,5.47,4.45,9.92,9.92,9.92h104.16c5.47,0,9.92-4.45,9.92-9.92V29.14c0-5.47-4.45-9.92-9.92-9.92Zm5.92,80.08c0,3.27-2.66,5.92-5.92,5.92H60.32c-3.27,0-5.92-2.66-5.92-5.92V29.14c0-3.27,2.66-5.92,5.92-5.92h104.16c3.27,0,5.92,2.66,5.92,5.92V99.3Z"/></g><path d="M17.43,117.84c-2.04,0-3.78-1.55-3.98-3.62-.5-5.24-.49-7.64-.21-11.78,.49-7.29,5.48-13.36,12.71-15.47,5.43-1.59,18.36-3.11,24.44-3.69,6.08-.58,19.07-1.54,24.7-1.01,7.49,.71,13.54,5.73,15.41,12.79,1.06,4.01,1.52,6.37,2.02,11.6,.21,2.2-1.4,4.15-3.6,4.36-2.18,.21-4.15-1.4-4.36-3.6-.46-4.76-.83-6.66-1.8-10.32-1-3.78-4.31-6.48-8.42-6.86-4.13-.39-15.03,.23-23.19,1.01s-18.97,2.24-22.96,3.4c-3.97,1.16-6.7,4.43-6.97,8.33-.26,3.78-.26,5.72,.19,10.48,.21,2.2-1.4,4.15-3.6,4.36-.13,.01-.26,.02-.39,.02Z"/><g><ellipse class="cls-2" cx="93.52" cy="105.15" rx="6.75" ry="10.89" transform="translate(-7.99 7.69) rotate(-4.52)"/><ellipse cx="88.99" cy="105.56" rx="8.32" ry="13.42" transform="translate(-8.03 7.33) rotate(-4.52)"/><path class="cls-4" d="M17.43,113.84c-.47-4.95-.47-7.08-.2-11.13,.38-5.63,4.25-10.27,9.84-11.9,4.52-1.32,15.81-2.79,23.7-3.55,7.89-.75,19.26-1.45,23.94-1.01,5.79,.55,10.47,4.37,11.91,9.83,1.03,3.92,1.44,6.01,1.91,10.96h0c.47,4.95,.47,7.08,.2,11.13-.38,5.63-4.25,10.27-9.84,11.9-4.52,1.32-15.81,2.79-23.7,3.55-7.89,.75-19.26,1.45-23.94,1.01-5.79-.55-10.47-4.37-11.91-9.83-1.03-3.92-1.44-6.01-1.91-10.96h0Z"/><ellipse cx="32.59" cy="107.23" rx="3.24" ry="3.93" transform="translate(-10.05 3.58) rotate(-5.46)"/><ellipse cx="80.68" cy="102.64" rx="3.24" ry="3.93" transform="translate(-9.4 8.14) rotate(-5.46)"/><path d="M48.01,128.68c1.83,.34,3.61-.21,4.87-1.08,1.24-.85,1.96-2.01,1.74-2.93-.38-1.57-8.53-3.54-10.21-2.82-.64,.28-.95,.99-.93,1.87,.04,1.85,1.56,4.41,4.54,4.96Z"/><path class="cls-8" d="M48.01,128.68c1.83,.34,3.61-.21,4.87-1.08-1.22-1.19-3.02-2.28-5.17-3.02-1.47-.51-2.92-.79-4.23-.86,.04,1.85,1.56,4.41,4.54,4.96Z"/><path class="cls-9" d="M49.65,96.47h17.67c4.5,0,8.15,3.65,8.15,8.15v7.36c0,3.48-2.82,6.3-6.3,6.3h-23.39c-3.48,0-6.3-2.82-6.3-6.3v-5.34c0-5.62,4.56-10.17,10.17-10.17Z" transform="translate(124.9 208.81) rotate(174.54)"/><ellipse class="cls-4" cx="66.13" cy="112.52" rx="3.96" ry="1.85" transform="translate(-10.4 6.8) rotate(-5.46)"/><ellipse class="cls-4" cx="54.35" cy="113.65" rx="3.96" ry="1.85" transform="translate(-10.56 5.68) rotate(-5.46)"/></g><g><path d="M20.25,125.61c4.67-.56,7.73-7.14,6.81-14.68-.91-7.54-5.44-13.2-10.12-12.64l-4.22,.51,3.3,27.32,4.22-.51Z"/><ellipse cx="14.37" cy="112.46" rx="8.53" ry="13.76" transform="translate(-13.39 2.54) rotate(-6.89)"/><ellipse class="cls-2" cx="12.59" cy="112.67" rx="7.56" ry="12.2" transform="translate(-13.43 2.33) rotate(-6.89)"/><path class="cls-1" d="M15.25,112.53c-.6-4.64-2.96-7.93-5.51-7.64-.79,.09-1.51,.53-2.09,1.26-1.24,1.58-1.74,4.35-1.35,7.41,.57,4.46,2.77,7.66,5.2,7.66,.1,0,.21,0,.31-.02h0c.09-.01,.18-.03,.27-.05,1.17-.26,2.14-1.3,2.71-2.94,.56-1.58,.71-3.6,.45-5.68Zm-2.03,5.08c-.39,1.12-.98,1.8-1.61,1.87-1.31,.14-3.17-2.44-3.64-6.12-.46-3.62,.61-6.45,1.87-6.73,.03,0,.07-.01,.1-.02,1.35-.15,3.17,2.44,3.64,6.12,.23,1.81,.1,3.54-.36,4.87Z"/></g><path d="M38.92,140.3c-6.78,0-13.24-3.56-16.82-9.4l-3.59-5.85c-.43-.71-.21-1.63,.5-2.06,.71-.43,1.63-.21,2.06,.5l3.59,5.85c3.31,5.4,9.52,8.5,15.82,7.89l17.18-1.64c.81-.09,1.56,.53,1.64,1.35,.08,.82-.53,1.56-1.35,1.64l-17.18,1.64c-.61,.06-1.23,.09-1.84,.09Z"/><rect x="49.21" y="130.67" width="14.86" height="8" rx="4" ry="4" transform="translate(-12.55 6) rotate(-5.46)"/><g><path class="cls-13" d="M38.88,80.13s-1.13-.35-2.76-1.07c-1.16-.51-2.6-1.22-3.93-2-4.8-2.81-6.37-9.03,.17-11.18,0,0,6.06-4.48,14.23,3.93,2.32,2.38,3.73,1.93,5.4,1.81l-8.47,7.95-4.65,.57Z"/><path class="cls-3" d="M46.24,78.49s-.03,0-.04,0c-.43-.01-10.68-.53-18.72-19.83-.32-.76,.04-1.64,.81-1.96,.76-.32,1.64,.04,1.96,.81,7.22,17.31,15.97,17.98,16.06,17.98,.82,.04,1.46,.74,1.43,1.56-.03,.81-.69,1.44-1.49,1.44Z"/><path class="cls-12" d="M36.12,79.06c-.33-.15,4.78,2.18,11.47-5.88,.92-1.11,2.4-2.93,2.91-3.54,2.66-3.14,8.86-9.94,15.83-6.68,0,0,6.08,3.3,1.83,9.81-1.07,1.64-2.51,2.99-4.18,4.02-4.37,2.69-15.28,7.88-27.86,2.28Z"/><path class="cls-3" d="M65.67,62.68c.22,.08,.44,.18,.66,.28,0,0,.99,.54,1.89,1.61-.63,1.93-1.69,4.44-3.47,7.02-2.22,3.21-5.88,6.92-11.73,9.47-3.4,.64-7.3,.76-11.48-.19,17.91-1.78,22.85-13.38,24.14-18.19Z"/></g><g id="PSF_H2_POS"><g><g><path class="cls-5" d="M107.42,48v28.4l6.43,2.04v-23.81c0-1.12,.5-1.87,1.3-1.61,1.05,.29,1.25,1.32,1.25,2.43v9.51c4,1.94,7.15,0,7.15-5.11s-1.85-7.55-7.28-9.42c-2.14-.71-6.12-1.92-8.86-2.42"/><path class="cls-5" d="M115.07,74.28l10.33-3.68c1.17-.43,1.35-1.02,.4-1.33-.96-.32-2.67-.23-3.86,.2l-6.87,2.42v-3.87l.39-.13s1.99-.7,4.79-1.01c2.79-.31,6.22,.04,8.91,1.05,3.03,.96,3.37,2.37,2.6,3.35-.78,.97-2.67,1.67-2.67,1.67l-14.03,5.04v-3.72Z"/><path class="cls-5" d="M95.64,73.89c-3.11-.87-3.63-2.7-2.21-3.75,1.31-.97,3.54-1.69,3.54-1.69l9.21-3.28v3.74l-6.62,2.37c-1.17,.42-1.35,1.01-.4,1.32,.96,.32,2.67,.23,3.84-.2l3.18-1.15v3.34c-.21,.03-.43,.07-.64,.1-3.17,.53-6.56,.31-9.9-.8Z"/></g><path class="cls-5" d="M129.59,75.39c.9,0,1.51,.67,1.51,1.52s-.61,1.52-1.51,1.52-1.53-.67-1.53-1.52,.62-1.52,1.53-1.52Zm0,2.82c.77,0,1.28-.58,1.28-1.3s-.51-1.29-1.28-1.29-1.28,.58-1.28,1.29,.5,1.3,1.28,1.3Zm-.6-2.18h.7c.32,0,.56,.09,.56,.46,0,.21-.1,.36-.32,.43h0c.11,.04,.19,.12,.25,.33,.06,.2,.12,.38,.17,.55h-.32c-.04-.13-.1-.36-.14-.48-.05-.2-.11-.27-.37-.27h-.21v.75h-.32v-1.76Zm.32,.79h.28c.22,0,.36-.09,.36-.29,0-.24-.17-.28-.34-.28h-.3v.57Z"/></g></g><path class="cls-14" d="M67.56,30.05c-.25-.1-.54-.05-.73,.14l-2.86,3.13h-2c-.37,0-.67,.3-.67,.67v3.99c0,.37,.3,.67,.67,.67h2l2.86,3.13c.19,.19,.48,.25,.73,.14s.41-.35,.41-.62v-10.65c0-.27-.16-.51-.41-.61Zm1.74,1.28v1.33c1.84,0,3.33,1.49,3.33,3.33s-1.49,3.33-3.33,3.33v1.33c2.57,0,4.66-2.09,4.66-4.66s-2.09-4.66-4.66-4.66Zm0,2.66c1.1,0,2,.9,2,2s-.9,2-2,2v-1.33c.37,0,.67-.3,.67-.67s-.3-.67-.67-.67v-1.33Z"/><path class="cls-10" d="M110.98,129.41c-1-.64-1.86-1.49-2.5-2.49s-1.07-2.13-1.23-3.31l-.62-4.05c-.01-.1-.06-.19-.13-.26-.07-.07-.17-.11-.26-.11-.1,0-.19,.05-.26,.11-.07,.07-.12,.16-.13,.26l-.62,4.05c-.18,1.18-.6,2.3-1.24,3.3-.64,1-1.49,1.85-2.49,2.5l-.54,.34c-.05,.04-.1,.09-.13,.15-.03,.06-.04,.13-.04,.19,0,.07,.01,.13,.04,.19,.03,.06,.07,.11,.13,.15l.54,.34c1,.65,1.85,1.5,2.49,2.5,.64,1,1.07,2.13,1.24,3.3l.62,4.05c.01,.1,.06,.18,.13,.24,.07,.06,.17,.1,.26,.1,.1,0,.19-.03,.26-.1,.07-.06,.12-.15,.13-.24l.62-4.05c.17-1.18,.59-2.31,1.23-3.31,.65-1,1.5-1.85,2.5-2.49l.54-.34c.05-.04,.1-.09,.13-.15,.03-.06,.04-.13,.04-.19,0-.07-.01-.13-.04-.19-.03-.06-.07-.11-.13-.15l-.54-.34Z"/><path class="cls-6" d="M15.98,79.41c-1-.64-1.86-1.49-2.5-2.49s-1.07-2.13-1.23-3.31l-.62-4.05c-.01-.1-.06-.19-.13-.26-.07-.07-.17-.11-.26-.11-.1,0-.19,.05-.26,.11-.07,.07-.12,.16-.13,.26l-.62,4.05c-.18,1.18-.6,2.3-1.24,3.3-.64,1-1.49,1.85-2.49,2.5l-.54,.34c-.05,.04-.1,.09-.13,.15-.03,.06-.04,.13-.04,.19,0,.07,.01,.13,.04,.19,.03,.06,.07,.11,.13,.15l.54,.34c1,.65,1.85,1.5,2.49,2.5,.64,1,1.07,2.13,1.24,3.3l.62,4.05c.01,.1,.06,.18,.13,.24,.07,.06,.17,.1,.26,.1,.1,0,.19-.03,.26-.1,.07-.06,.12-.15,.13-.24l.62-4.05c.17-1.18,.59-2.31,1.23-3.31,.65-1,1.5-1.85,2.5-2.49l.54-.34c.05-.04,.1-.09,.13-.15,.03-.06,.04-.13,.04-.19,0-.07-.01-.13-.04-.19-.03-.06-.07-.11-.13-.15l-.54-.34Z"/><path class="cls-7" d="M157.18,15.73c-1.19-.76-2.2-1.77-2.97-2.96s-1.26-2.53-1.46-3.92l-.74-4.8c-.01-.12-.07-.22-.16-.3-.09-.08-.2-.13-.31-.13-.12,0-.23,.05-.31,.13-.09,.08-.14,.19-.16,.3l-.74,4.8c-.21,1.4-.71,2.73-1.47,3.92-.76,1.19-1.77,2.2-2.96,2.96l-.64,.4c-.06,.05-.12,.11-.15,.18-.04,.07-.05,.15-.05,.23,0,.08,.01,.16,.05,.23,.04,.07,.09,.13,.15,.18l.64,.4c1.19,.77,2.19,1.78,2.96,2.96,.76,1.19,1.27,2.52,1.47,3.92l.74,4.8c.02,.11,.07,.22,.16,.29,.09,.07,.2,.11,.31,.11,.11,0,.22-.04,.31-.11,.09-.07,.14-.18,.16-.29l.74-4.8c.2-1.4,.7-2.74,1.46-3.92,.77-1.19,1.78-2.2,2.97-2.96l.64-.4c.06-.05,.12-.11,.15-.18,.04-.07,.05-.15,.05-.23,0-.08-.01-.16-.05-.23-.04-.07-.09-.13-.15-.18l-.64-.4Z"/></svg>
