<?xml version="1.0" encoding="UTF-8"?><svg id="art" xmlns="http://www.w3.org/2000/svg" viewBox="0 0 126 93"><defs><style>.cls-1{fill:#00439c;}.cls-2{fill:#0070cc;}.cls-3,.cls-4{fill:#fff;}.cls-5{fill:#ff78b8;}.cls-6{fill:#8088ff;}.cls-7{fill:#5865f0;}.cls-8{fill:#3442d7;}.cls-9{opacity:.5;}.cls-4{opacity:.75;}</style></defs><g><rect class="cls-5" x="76.73" y="9" width="49.27" height="18.92" rx="9.46" ry="9.46"/><circle class="cls-4" cx="86.2" cy="18.46" r="4.35"/><circle class="cls-3" cx="101.37" cy="18.46" r="4.35"/><circle class="cls-4" cx="116.54" cy="18.46" r="4.35"/></g><path class="cls-6" d="M68.13,90.03c-11.3,0-28.49-11.5-43.45-30.07C5.87,36.6-1.26,12.17,8.46,4.35,13.29,.46,21.35,1.35,31.14,6.87c9.36,5.28,19.38,14.22,28.2,25.18,18.81,23.36,25.94,47.79,16.22,55.61h0c-1.99,1.6-4.51,2.37-7.43,2.37ZM15.92,5.09c-2.24,0-4.11,.56-5.51,1.69-8.08,6.5-.43,29.96,16.69,51.23,17.12,21.26,38.41,33.73,46.49,27.23h0c8.08-6.5,.43-29.96-16.69-51.23-8.58-10.65-18.27-19.32-27.3-24.42-5.28-2.98-9.99-4.5-13.68-4.5Z"/><g><circle class="cls-3" cx="29" cy="7" r="4"/><path class="cls-8" d="M29,12c-2.76,0-5-2.24-5-5s2.24-5,5-5,5,2.24,5,5-2.24,5-5,5Zm0-8c-1.65,0-3,1.35-3,3s1.35,3,3,3,3-1.35,3-3-1.35-3-3-3Z"/></g><g><circle class="cls-3" cx="60" cy="87" r="3"/><path class="cls-2" d="M60,91c-2.21,0-4-1.79-4-4s1.79-4,4-4,4,1.79,4,4-1.79,4-4,4Zm0-6c-1.1,0-2,.9-2,2s.9,2,2,2,2-.9,2-2-.9-2-2-2Z"/></g><g><rect class="cls-7" x="48.56" y="32.5" width="68" height="42.89" rx="7.6" ry="7.6"/><path class="cls-8" d="M48.65,39H116.48c-.53-3.67-3.69-6.5-7.51-6.5H56.16c-3.82,0-6.98,2.83-7.51,6.5Z"/><path class="cls-9" d="M56.07,32.5c-4.2,0-7.6,3.4-7.6,7.6v22.29h7.75c5.52,0,10-4.48,10-10v-19.89h-10.16Z"/><rect class="cls-1" x="-5.4" y="16.5" width="68" height="42.89" rx="7.6" ry="7.6"/><g id="PSF_H2_POS"><g><g><path class="cls-3" d="M25.68,29.03v16.63l3.77,1.19v-13.95c0-.66,.29-1.09,.76-.94,.61,.17,.73,.78,.73,1.43v5.57c2.34,1.13,4.19,0,4.19-2.99s-1.08-4.42-4.27-5.52c-1.26-.42-3.58-1.12-5.19-1.42"/><path class="cls-3" d="M30.16,44.43l6.05-2.15c.68-.25,.79-.6,.24-.78-.56-.18-1.57-.13-2.26,.12l-4.03,1.42v-2.27l.23-.08s1.17-.41,2.8-.59c1.64-.18,3.64,.02,5.22,.62,1.78,.56,1.98,1.39,1.53,1.96-.46,.57-1.56,.98-1.56,.98l-8.22,2.95v-2.18Z"/><path class="cls-3" d="M18.78,44.2c-1.82-.51-2.12-1.58-1.29-2.2,.77-.57,2.07-.99,2.07-.99l5.4-1.92v2.19l-3.88,1.39c-.69,.25-.79,.59-.24,.77,.56,.19,1.56,.14,2.25-.12l1.87-.67v1.95c-.12,.02-.25,.04-.38,.06-1.86,.31-3.84,.18-5.8-.47Z"/></g><path class="cls-3" d="M38.67,45.08c.53,0,.89,.39,.89,.89s-.36,.89-.89,.89-.9-.39-.9-.89,.37-.89,.9-.89Zm0,1.65c.45,0,.75-.34,.75-.76s-.3-.76-.75-.76-.75,.34-.75,.76,.29,.76,.75,.76Zm-.35-1.28h.41c.19,0,.33,.06,.33,.27,0,.12-.06,.21-.19,.25h0c.07,.02,.11,.07,.15,.19,.03,.11,.07,.23,.1,.32h-.19c-.03-.08-.06-.21-.08-.28-.03-.12-.06-.16-.22-.16h-.12v.44h-.19v-1.03Zm.19,.46h.16c.13,0,.21-.05,.21-.17,0-.14-.1-.16-.2-.16h-.18v.33Z"/></g></g><path class="cls-3" d="M90,49.37c-1.41-.64-2.89-1.1-4.42-1.36-.21,.37-.4,.76-.57,1.15-1.63-.25-3.28-.25-4.91,0-.17-.39-.36-.78-.57-1.15-1.53,.26-3.01,.72-4.42,1.36-2.8,4.14-3.56,8.18-3.18,12.16h0c1.64,1.21,3.47,2.13,5.42,2.72,.44-.59,.83-1.22,1.16-1.87-.63-.24-1.25-.53-1.83-.87,.15-.11,.3-.23,.45-.34,3.43,1.61,7.41,1.61,10.84,0,.15,.12,.3,.23,.45,.34-.58,.34-1.2,.64-1.83,.87,.33,.66,.72,1.28,1.16,1.87,1.95-.59,3.79-1.51,5.43-2.72h0c.44-4.61-.76-8.61-3.19-12.16Zm-11,9.71c-1.06,0-1.93-.96-1.93-2.14s.84-2.15,1.93-2.15,1.95,.97,1.93,2.15-.85,2.14-1.93,2.14Zm7.12,0c-1.06,0-1.93-.96-1.93-2.14s.84-2.15,1.93-2.15,1.94,.97,1.93,2.15-.85,2.14-1.93,2.14Z"/></g></svg>