<svg width="660" height="278" viewBox="0 0 660 278" fill="none" xmlns="http://www.w3.org/2000/svg">
<g clip-path="url(#clip0_2047_15644)">
<rect x="0.000244141" width="660" height="278" rx="8" fill="url(#paint0_linear_2047_15644)"/>
<path d="M333.508 254.85L326.463 255.756L326.261 278H340.151L333.508 254.85Z" fill="#FF78B9"/>
<path d="M330.186 256.864C322.938 257.87 318.912 256.662 315.792 254.045C315.49 253.743 315.389 253.341 315.691 252.938C315.792 252.737 315.993 252.636 316.195 252.636L342.667 249.113C343.069 249.013 343.472 249.315 343.472 249.717C343.472 249.918 343.472 250.12 343.371 250.22C341.056 253.643 337.433 255.857 330.186 256.864Z" fill="white"/>
<path d="M327.67 238.041C329.582 237.739 331.394 239.148 331.696 241.06L332.401 246.596L325.355 247.502L324.65 241.966C324.348 240.054 325.758 238.343 327.67 238.041Z" fill="#83DDC5"/>
<path d="M328.071 241.362C328.877 241.261 329.581 241.865 329.682 242.569L329.883 243.777C329.984 244.583 329.481 245.287 328.675 245.388C327.87 245.488 327.166 244.884 327.065 244.18L326.864 242.972C326.763 242.167 327.367 241.462 328.071 241.362Z" fill="#4F5D7F"/>
<path d="M328.576 244.785C318.51 246.194 313.477 249.214 310.257 253.844C309.854 254.247 309.955 254.851 310.357 255.253C310.659 255.454 310.961 255.555 311.263 255.454L348.203 250.422C348.807 250.422 349.21 249.918 349.21 249.415C349.21 249.113 349.008 248.711 348.706 248.61C344.278 244.986 338.641 243.376 328.576 244.785Z" fill="#EBEFF7"/>
<path d="M314.684 253.642C315.073 253.642 315.389 253.326 315.389 252.937C315.389 252.548 315.073 252.232 314.684 252.232C314.295 252.232 313.979 252.548 313.979 252.937C313.979 253.326 314.295 253.642 314.684 253.642Z" fill="#FFD836"/>
<path d="M319.013 253.038C319.402 253.038 319.718 252.723 319.718 252.333C319.718 251.944 319.402 251.629 319.013 251.629C318.624 251.629 318.309 251.944 318.309 252.333C318.309 252.723 318.624 253.038 319.013 253.038Z" fill="#AEC7FF"/>
<path d="M342.667 249.817C343.056 249.817 343.372 249.502 343.372 249.113C343.372 248.724 343.056 248.408 342.667 248.408C342.278 248.408 341.963 248.724 341.963 249.113C341.963 249.502 342.278 249.817 342.667 249.817Z" fill="#F47FFF"/>
<path opacity="0.45" d="M329.382 263.506C329.785 262.802 330.691 262.601 331.395 263.104L331.798 263.406C332.502 263.808 332.704 264.714 332.2 265.419C331.798 266.123 330.892 266.325 330.187 265.821L329.785 265.519C329.08 265.016 328.879 264.11 329.382 263.506Z" fill="#4762B0"/>
<path fill-rule="evenodd" clip-rule="evenodd" d="M543.59 55.1462L604.838 32.7705L594.563 52.863C592.565 56.8016 589.14 59.8269 585.031 61.311L536.283 79.1773L534.571 74.5538L543.59 55.1462Z" fill="#DAE2ED"/>
<path fill-rule="evenodd" clip-rule="evenodd" d="M529.548 53.0913L610.946 23.3522C611.288 23.238 611.631 23.4092 611.745 23.6947C611.802 23.8659 611.802 24.0371 611.745 24.1513L608.605 30.4873C608.263 31.2293 607.635 31.7431 606.893 32.0285L604.895 32.7705L543.59 55.1462L534.571 74.5538L536.227 79.1773L537.482 82.6593L516.99 90.1369L514.022 82.0314L526.009 56.2879C526.751 54.8038 528.007 53.6621 529.548 53.0913Z" fill="#ECEFF6"/>
<path fill-rule="evenodd" clip-rule="evenodd" d="M534.628 74.5538L543.647 55.1462L604.895 32.7705L602.84 36.8233L545.816 57.6578L537.482 75.6383L538.51 78.3782L536.341 79.1202L534.628 74.5538Z" fill="#C5CEDD"/>
<path fill-rule="evenodd" clip-rule="evenodd" d="M511.738 72.8984C502.491 92.4772 510.825 115.823 530.404 125.128C549.983 134.432 573.329 126.041 582.633 106.462C591.937 86.8833 583.546 63.5372 563.967 54.233C544.332 45.1 521.043 53.4338 511.738 72.8984Z" fill="#4F5D7F"/>
<path fill-rule="evenodd" clip-rule="evenodd" d="M524.126 78.8347C518.132 91.5637 523.555 106.747 536.284 112.741C549.013 118.734 564.196 113.312 570.19 100.583C576.183 87.8535 570.761 72.6699 558.032 66.6764C545.36 60.74 530.233 66.1627 524.126 78.8347Z" fill="#7687B2"/>
<path fill-rule="evenodd" clip-rule="evenodd" d="M520.986 58.6851C520.928 64.6786 536.683 79.3484 547.014 87.4539C556.547 87.511 580.178 86.5406 585.715 81.1179C586.229 80.6613 586.572 80.0334 586.629 79.3484C586.629 79.1201 586.572 78.8917 586.514 78.6634C583.204 66.8477 575.441 57.5435 564.71 52.4633C551.181 46.0131 535.085 47.8397 521.613 57.3151C521.214 57.6006 520.986 58.1143 520.986 58.6851Z" fill="#FF7F14"/>
<path fill-rule="evenodd" clip-rule="evenodd" d="M546.33 89.4524C546.33 89.4524 584.003 66.8483 580.179 62.1677C576.24 57.3158 571.217 53.3772 565.566 50.6944C550.325 43.4451 533.486 46.5846 520.529 55.7175C511.396 62.1677 546.33 89.4524 546.33 89.4524Z" fill="#FF903E"/>
<path fill-rule="evenodd" clip-rule="evenodd" d="M527.665 80.49C522.585 91.2783 527.151 104.122 537.939 109.202C548.728 114.282 561.571 109.715 566.651 98.9272C571.731 88.1389 567.165 75.2957 556.376 70.2154C545.588 65.1923 532.802 69.7588 527.665 80.49Z" fill="#EBEFF7"/>
<path fill-rule="evenodd" clip-rule="evenodd" d="M530.804 81.9745C526.523 91.0504 530.404 101.839 539.423 106.12C548.442 110.401 559.287 106.519 563.568 97.5005C567.85 88.4817 563.968 77.6363 554.949 73.3553C545.873 69.0742 535.085 72.9557 530.804 81.9745Z" fill="#DAE2ED"/>
<path fill-rule="evenodd" clip-rule="evenodd" d="M557.974 82.0317L548.157 76.1524C547.529 75.8099 546.787 75.8099 546.216 76.1524L536.227 81.7463C535.599 82.0888 535.199 82.7738 535.199 83.4587L535.085 94.932C535.085 95.617 535.427 96.3019 536.055 96.6444L545.873 102.524C546.501 102.866 547.243 102.866 547.814 102.524L557.803 96.8728C558.431 96.5303 558.831 95.8453 558.831 95.1603L558.945 83.6871C558.945 83.0592 558.545 82.3742 557.974 82.0317Z" fill="#C5CEDD"/>
<path fill-rule="evenodd" clip-rule="evenodd" d="M541.478 87.0541C539.994 90.1936 541.364 93.9038 544.503 95.3879C547.643 96.872 551.353 95.5021 552.837 92.3626C554.321 89.2232 552.951 85.5129 549.869 84.0288C546.729 82.6018 542.962 83.9146 541.478 87.0541Z" fill="#B7C2CE"/>
<path fill-rule="evenodd" clip-rule="evenodd" d="M498.267 126.783H501.692C502.548 126.783 503.29 127.468 503.29 128.381V135.516C503.233 137.457 504.717 139.113 506.715 139.227C508.713 139.341 510.311 137.8 510.426 135.802C510.426 135.688 510.426 135.631 510.426 135.516V105.492C510.426 103.323 508.713 101.496 506.487 101.496C506.487 101.496 506.487 101.496 506.43 101.496H494.329C492.16 101.496 490.39 103.266 490.39 105.435C490.39 105.435 490.39 105.435 490.39 105.492V118.849C490.333 123.244 493.872 126.783 498.267 126.783ZM490.048 88.8242H496.897C496.897 91.3358 496.897 93.8473 496.897 96.3589H490.162C490.219 93.9044 490.219 91.3358 490.048 88.8242Z" fill="#7196FF"/>
<path fill-rule="evenodd" clip-rule="evenodd" d="M492.503 105.263H521.386C521.728 105.263 522.014 104.978 522.014 104.635C522.014 104.293 521.728 104.007 521.386 104.007H492.503C492.16 104.007 491.875 103.722 491.875 103.379V98.7558C491.875 98.4133 491.59 98.1279 491.247 98.1279C490.905 98.1279 490.619 98.4133 490.619 98.7558V103.379C490.676 104.407 491.475 105.263 492.503 105.263Z" fill="#E4E9F7"/>
<path fill-rule="evenodd" clip-rule="evenodd" d="M489.135 101.553H493.416C493.759 101.553 494.044 101.268 494.044 100.925V87.6826C494.044 87.3401 493.759 87.0547 493.416 87.0547H489.135C488.793 87.0547 488.507 87.3401 488.507 87.6826V100.925C488.507 101.268 488.736 101.553 489.135 101.553C489.078 101.553 489.078 101.553 489.135 101.553Z" fill="black"/>
<path fill-rule="evenodd" clip-rule="evenodd" d="M490.105 88.8242H487.593C487.251 88.8242 486.966 89.1096 486.966 89.4521C486.966 91.5641 486.966 93.6761 486.966 95.7881C486.966 96.1306 487.251 96.416 487.593 96.416H489.934C491.817 96.416 493.416 95.1031 493.758 93.2765C494.101 91.2216 492.731 89.2809 490.676 88.8813C490.505 88.8813 490.276 88.8242 490.105 88.8242Z" fill="#7196FF"/>
<path fill-rule="evenodd" clip-rule="evenodd" d="M503.233 101.553H507.514C507.857 101.553 508.142 101.268 508.142 100.925V87.6826C508.142 87.3401 507.857 87.0547 507.514 87.0547H503.233C502.891 87.0547 502.605 87.3401 502.605 87.6826V100.925C502.605 101.268 502.891 101.553 503.233 101.553Z" fill="black"/>
<path fill-rule="evenodd" clip-rule="evenodd" d="M493.702 91.7357C496.955 87.2834 502.15 84.6006 507.686 84.6006H531.09C536.798 84.6577 541.421 89.2812 541.421 95.0464V114.226C541.421 118.05 538.339 121.189 534.514 121.189H500.78C495.014 121.132 490.391 116.509 490.391 110.744V102.01C490.334 98.3 491.532 94.7039 493.702 91.7357Z" fill="#AEC7FF"/>
<path fill-rule="evenodd" clip-rule="evenodd" d="M524.011 84.6006H531.032C536.797 84.6577 541.421 89.2812 541.421 95.0464V111.714C541.421 115.538 538.338 118.678 534.514 118.678H523.954C524.125 107.376 524.125 95.9597 524.011 84.6006ZM546.273 109.431L553.579 111.6C556.376 112.399 557.974 115.253 557.175 118.05C556.376 120.847 553.522 122.445 550.725 121.646C548.956 121.132 547.586 119.82 547.129 118.05L544.96 110.744C544.789 110.23 545.074 109.602 545.588 109.431C545.816 109.374 546.044 109.374 546.273 109.431Z" fill="#7196FF"/>
<path fill-rule="evenodd" clip-rule="evenodd" d="M529.32 126.782H532.745C533.601 126.782 534.343 127.467 534.343 128.38V135.516C534.286 137.456 535.77 139.112 537.768 139.226C539.709 139.283 541.364 137.799 541.478 135.801C541.478 135.687 541.478 135.63 541.478 135.516V99.897C541.478 97.728 539.709 95.9014 537.539 95.9014H525.438C523.269 95.9014 521.5 97.728 521.5 99.897V118.848C521.386 123.243 524.925 126.782 529.32 126.782Z" fill="#7196FF"/>
<path fill-rule="evenodd" clip-rule="evenodd" d="M506.658 105.263H535.541C535.884 105.263 536.169 104.978 536.169 104.635C536.169 104.293 535.884 104.007 535.541 104.007H506.658C506.316 104.007 506.03 103.722 506.03 103.379V98.7558C506.087 98.4133 505.802 98.1279 505.459 98.0708C505.117 98.0137 504.831 98.2991 504.774 98.6416C504.774 98.6987 504.774 98.6987 504.774 98.7558V103.379C504.774 104.407 505.631 105.206 506.658 105.263Z" fill="#E4E9F7"/>
<path fill-rule="evenodd" clip-rule="evenodd" d="M503.233 101.553H507.514C507.857 101.553 508.142 101.268 508.142 100.925V87.6826C508.142 87.3401 507.857 87.0547 507.514 87.0547H503.233C502.891 87.0547 502.605 87.3401 502.605 87.6826V100.925C502.605 101.268 502.891 101.553 503.233 101.553Z" fill="black"/>
<path fill-rule="evenodd" clip-rule="evenodd" d="M503.063 88.8246H517.162C519.502 88.8246 521.386 86.9409 521.386 84.6006H530.234V102.981H521.443C520.644 98.3571 516.591 96.3593 511.739 96.3593H503.177C501.293 96.3593 499.695 95.0464 499.353 93.2198C499.01 91.1649 500.38 89.2241 502.435 88.8246C502.606 88.8817 502.835 88.8246 503.063 88.8246Z" fill="#7196FF"/>
<path fill-rule="evenodd" clip-rule="evenodd" d="M535.485 84.8284H503.292C497.526 84.8284 492.846 80.1478 492.846 74.3826V54.9751C492.903 49.2099 497.526 44.5293 503.292 44.5293H535.485C541.25 44.5293 545.874 49.2099 545.931 54.9751V74.3826C545.874 80.1478 541.25 84.8284 535.485 84.8284Z" fill="#80A7FF"/>
<path fill-rule="evenodd" clip-rule="evenodd" d="M528.692 84.8279H496.499C490.733 84.8279 486.053 80.1473 486.053 74.325V54.9175C486.11 49.1523 490.733 44.5288 496.499 44.4717H528.692C534.457 44.4717 539.138 49.1523 539.138 54.9175V74.325C539.138 80.1473 534.457 84.8279 528.692 84.8279Z" fill="#9CB8FF"/>
<path fill-rule="evenodd" clip-rule="evenodd" d="M542.791 71.9851H535.085V53.1484H542.791C546.615 53.1484 549.755 56.2879 549.755 60.1123V65.0213C549.755 68.8457 546.615 71.9851 542.791 71.9851Z" fill="#9CB8FF"/>
<path fill-rule="evenodd" clip-rule="evenodd" d="M535.085 67.7607V57.3149C535.085 56.9153 535.37 56.6299 535.77 56.6299H542.734C544.675 56.6299 546.216 58.1711 546.216 60.1118V65.0208C546.216 66.9615 544.675 68.5027 542.734 68.5027H535.77C535.427 68.5027 535.085 68.1602 535.085 67.7607C535.085 67.8177 535.085 67.7607 535.085 67.7607Z" fill="#80A7FF"/>
<path fill-rule="evenodd" clip-rule="evenodd" d="M522.984 65.8771C521.1 65.8771 519.559 64.3359 519.559 62.4522C519.559 60.5685 521.1 59.0273 522.984 59.0273C524.868 59.0273 526.409 60.5685 526.409 62.4522C526.409 64.3359 524.868 65.8771 522.984 65.8771Z" fill="black"/>
<path fill-rule="evenodd" clip-rule="evenodd" d="M485.767 54.9746H509.456C511.739 54.9746 513.623 56.8583 513.623 59.1415V64.0505C513.623 69.8157 508.942 74.4963 503.177 74.5534H492.046C486.281 74.5534 481.6 69.8727 481.6 64.1076V59.1986C481.6 56.8583 483.484 54.9746 485.767 54.9746Z" fill="#CBDAF7"/>
<path fill-rule="evenodd" clip-rule="evenodd" d="M498.325 74.5539H492.046C486.281 74.5539 481.6 69.8733 481.6 64.1081V59.1991C481.6 56.9159 483.484 55.0322 485.767 55.0322H504.547C506.83 55.0322 508.714 56.9159 508.714 59.1991V64.1081C508.714 69.8162 504.09 74.4968 498.325 74.5539Z" fill="#CBDAF7"/>
<path fill-rule="evenodd" clip-rule="evenodd" d="M495.527 66.6201H500.037C501.007 66.6772 501.749 67.4763 501.692 68.4467C501.635 69.36 500.95 70.045 500.037 70.1021H495.527C494.557 70.045 493.815 69.2458 493.872 68.2755C493.929 67.3622 494.614 66.6772 495.527 66.6201ZM487.308 66.6201H489.02C489.99 66.6772 490.732 67.4763 490.675 68.4467C490.618 69.36 489.933 70.045 489.02 70.1021H487.308C486.337 70.045 485.595 69.2458 485.652 68.2755C485.709 67.3622 486.451 66.6772 487.308 66.6201Z" fill="#9CB8FF"/>
<path fill-rule="evenodd" clip-rule="evenodd" d="M497.412 78.6641H494.615C493.987 78.6641 493.474 78.1504 493.474 77.5225C493.474 76.8946 493.987 76.3809 494.615 76.3809H497.412C498.04 76.3809 498.554 76.8946 498.554 77.5225C498.554 78.1504 498.04 78.6641 497.412 78.6641Z" fill="#80A7FF"/>
<path opacity="0.4" fill-rule="evenodd" clip-rule="evenodd" d="M483.94 48.7527C483.94 48.7527 473.894 63.765 484.683 81.0606L490.79 84.5996L530.176 82.8871L539.766 70.101L530.176 44.4717H496.498L483.94 48.7527Z" fill="#4871E5"/>
<path fill-rule="evenodd" clip-rule="evenodd" d="M515.335 34.5977C538.281 34.5977 550.953 50.1237 550.953 62.9669C550.953 75.8101 535.941 76.9517 532.402 67.8758L524.981 48.1829L492.217 52.464L483.997 48.7537C487.022 43.7306 498.324 34.5977 515.335 34.5977Z" fill="#EBEFF7"/>
<path fill-rule="evenodd" clip-rule="evenodd" d="M534.856 70.1016L514.079 81.0611H484.682L487.536 85.8559H535.427L539.594 76.3805L534.856 70.1016Z" fill="#EBEFF7"/>
<path fill-rule="evenodd" clip-rule="evenodd" d="M539.651 55.0321L545.816 56.9728L548.499 46.0704C548.841 44.7004 547.985 43.3305 546.615 43.0451C545.417 42.7597 544.161 43.3875 543.704 44.5292L539.651 55.0321Z" fill="#DAE2ED"/>
<path fill-rule="evenodd" clip-rule="evenodd" d="M547.529 49.9522L545.816 57.0303L539.651 55.0895L542.277 48.2969C543.99 48.8677 545.759 49.4385 547.529 49.9522Z" fill="#B7C2CE"/>
<path fill-rule="evenodd" clip-rule="evenodd" d="M535.998 106.747L559.972 112.284L562.027 103.151L538.053 97.6143L535.998 106.747Z" fill="#B7C2CE"/>
<path fill-rule="evenodd" clip-rule="evenodd" d="M555.92 113.882L586.001 124.214C586.572 124.442 587.2 124.328 587.714 123.929C588.97 122.958 591.31 120.561 592.566 114.967C593.821 109.373 592.794 106.176 592.052 104.807C591.766 104.293 591.253 103.893 590.625 103.836L559.059 99.9546C558.431 99.8975 557.86 100.297 557.689 100.925L555.121 112.455C555.006 113.083 555.349 113.654 555.92 113.882Z" fill="#C5CEDD"/>
<path fill-rule="evenodd" clip-rule="evenodd" d="M564.253 105.263C564.082 106.062 564.596 106.861 565.338 107.033C566.137 107.204 566.936 106.69 567.107 105.948C567.279 105.149 566.765 104.35 566.023 104.179C565.224 103.95 564.425 104.464 564.253 105.263ZM571.217 106.233C571.046 107.033 571.56 107.832 572.302 108.003C573.101 108.174 573.9 107.66 574.071 106.918C574.242 106.119 573.729 105.32 572.987 105.149C572.188 104.921 571.388 105.434 571.217 106.233C571.16 106.233 571.16 106.233 571.217 106.233Z" fill="#B7C2CE"/>
<path fill-rule="evenodd" clip-rule="evenodd" d="M536.283 105.207L555.577 120.219L561.285 112.855L541.992 97.7861L536.283 105.207Z" fill="#D0D9EA"/>
<path fill-rule="evenodd" clip-rule="evenodd" d="M551.297 119.933L574.3 142.023C574.757 142.423 575.328 142.651 575.956 142.48C577.497 142.137 580.636 140.939 584.118 136.429C587.6 131.92 588 128.552 587.943 127.011C587.943 126.383 587.6 125.869 587.086 125.527L560.087 108.688C559.573 108.345 558.831 108.46 558.489 108.973L551.297 118.335C550.783 118.791 550.84 119.533 551.297 119.933Z" fill="#EBEFF7"/>
<path fill-rule="evenodd" clip-rule="evenodd" d="M562.483 115.651C561.97 116.279 562.084 117.193 562.769 117.706C563.397 118.22 564.31 118.106 564.824 117.478C565.337 116.85 565.223 115.937 564.595 115.423C563.853 114.909 562.94 115.024 562.483 115.651ZM568.02 120.218C567.506 120.846 567.621 121.759 568.306 122.273C568.933 122.787 569.847 122.672 570.36 121.987C570.874 121.302 570.76 120.446 570.075 119.933C569.39 119.476 568.477 119.59 568.02 120.218Z" fill="#B7C2CE"/>
<path fill-rule="evenodd" clip-rule="evenodd" d="M530.404 66.734C531.26 73.812 536.797 79.0064 542.79 78.2643C548.784 77.5223 552.893 71.1863 551.98 64.0512C551.067 56.9161 545.587 51.8359 539.651 52.5208C533.714 53.2058 529.547 59.6559 530.404 66.734Z" fill="#DAE2ED"/>
<path fill-rule="evenodd" clip-rule="evenodd" d="M534.914 66.3335C535.542 71.3566 539.48 75.0669 543.704 74.5532C547.928 74.0394 550.897 69.53 550.269 64.4498C549.641 59.3696 545.702 55.7165 541.478 56.2873C537.254 56.8581 534.286 61.3104 534.914 66.3335Z" fill="#B7C2CE"/>
<path fill-rule="evenodd" clip-rule="evenodd" d="M537.368 66.1051C537.825 69.7012 540.622 72.3269 543.647 71.9844C546.672 71.6419 548.784 68.3883 548.328 64.7351C547.871 61.082 545.074 58.5133 542.049 58.8558C539.023 59.1983 536.911 62.4519 537.368 66.1051Z" fill="#FF903E"/>
<path fill-rule="evenodd" clip-rule="evenodd" d="M544.047 68.7316L544.732 68.4462C544.903 68.3891 545.017 68.1607 544.96 67.9324L542.562 61.8818C542.505 61.7106 542.277 61.5964 542.049 61.6535L541.364 61.9389C541.193 61.996 541.078 62.2243 541.135 62.4527L543.533 68.4462C543.647 68.6745 543.875 68.7886 544.047 68.7316Z" fill="#FF7F14"/>
<path fill-rule="evenodd" clip-rule="evenodd" d="M535.941 111.143H543.876V84.6006H532.859V108.061C532.859 109.773 534.229 111.143 535.941 111.143Z" fill="black"/>
<path fill-rule="evenodd" clip-rule="evenodd" d="M570.018 55.1462L631.266 32.7705L620.991 52.863C618.993 56.8016 615.568 59.8269 611.459 61.311L562.711 79.1202L560.999 74.4967L570.018 55.1462Z" fill="#DAE2ED"/>
<path fill-rule="evenodd" clip-rule="evenodd" d="M555.977 53.0913L637.318 23.3522C637.66 23.238 638.003 23.4092 638.117 23.6947C638.174 23.8659 638.174 24.0371 638.117 24.1513L634.977 30.4873C634.635 31.2293 634.007 31.7431 633.265 32.0285L631.267 32.7705L570.019 55.1462L561 74.5538L562.713 79.1773L563.969 82.6593L543.477 90.1369L540.508 82.0314L552.495 56.2879C553.18 54.8038 554.436 53.6621 555.977 53.0913Z" fill="#ECEFF6"/>
<path fill-rule="evenodd" clip-rule="evenodd" d="M561.057 74.5538L570.076 55.1462L631.324 32.7705L629.269 36.8233L572.245 57.6578L563.911 75.6383L564.938 78.3782L562.769 79.1773L561.057 74.5538Z" fill="#C5CEDD"/>
<path fill-rule="evenodd" clip-rule="evenodd" d="M631.723 30.3166C632.351 30.0882 632.693 29.4033 632.465 28.7183C632.237 28.0904 631.552 27.7479 630.867 27.9762C630.239 28.2046 629.896 28.8895 630.125 29.5745C630.353 30.2595 631.038 30.5449 631.723 30.3166ZM626.814 32.1432C627.442 31.9148 627.784 31.2299 627.556 30.5449C627.328 29.917 626.643 29.5745 625.958 29.8028C625.273 30.0312 624.987 30.7161 625.216 31.4011C625.444 32.029 626.129 32.3715 626.814 32.1432ZM556.89 57.6583C557.461 57.3158 557.689 56.5738 557.346 56.003C557.061 55.5463 556.547 55.318 556.033 55.3751C555.406 55.6034 555.063 56.3455 555.291 56.9734C555.577 57.6013 556.262 57.8867 556.89 57.6583Z" fill="#DAE2ED"/>
<path fill-rule="evenodd" clip-rule="evenodd" d="M537.426 90.3084H550.155C551.239 90.3084 552.095 89.3951 552.095 88.3676V81.5179C552.095 80.4334 551.239 79.5771 550.155 79.5771H537.426C536.341 79.5771 535.485 80.4904 535.485 81.5179V88.3676C535.485 89.4522 536.341 90.3084 537.426 90.3084Z" fill="#FF5C5C"/>
<path fill-rule="evenodd" clip-rule="evenodd" d="M532.802 93.7898H542.791C545.531 93.7898 547.7 91.5637 547.7 88.8809V81.0608C547.7 78.3209 545.474 76.1518 542.791 76.0947H532.802C531.774 76.0947 530.975 76.9509 530.975 77.9213V91.9061C530.918 92.9336 531.717 93.7327 532.802 93.7898C532.745 93.7898 532.745 93.7898 532.802 93.7898Z" fill="#D0D9EA"/>
<path fill-rule="evenodd" clip-rule="evenodd" d="M504.376 32.7129L504.947 36.4802C501.865 38.9918 499.125 41.9029 496.898 45.1565L493.474 37.3364C496.214 35.3386 499.981 34.197 504.376 32.7129Z" fill="#FF7F14"/>
<path fill-rule="evenodd" clip-rule="evenodd" d="M496.898 45.157L493.473 37.3369L490.562 45.157H496.898Z" fill="#FF903E"/>
<path opacity="0.8" d="M505.993 176.578L513.838 189.384L515.905 204.996L513.121 215.089L505.993 211.136L497.937 220.109L495.365 225.493V233.372L487.055 230.017L484.778 228.613L466.936 226.845L441.967 219.017L419.697 206.687L410.123 191.518L408.478 189.592L401.139 185.61L399.536 182.564V162.727L397.259 140.147L394.306 129.987L388.865 123.394L395.445 117.478L402.067 113.413L409.321 111.041L417.504 110.259V115.003L412.78 115.889L409.743 117.453L403.037 123.394L444.034 128.137L452.638 131.576L470.057 146.555L485.157 151.947L487.772 156.895L488.363 163.274L488.32 169.679L491.104 170.226L505.993 176.578ZM354.954 57.7363L368.409 62.6938L385.111 73.4417L395.192 84.1613L388.865 88.777L379.755 89.1419L365.836 95.5041L356.726 97.5379L347.109 96.8081L336.438 93.888L326.231 89.4808L317.795 84.0046L319.398 77.0933L317.5 70.1027L317.121 64.6765L323.279 62.5374L354.954 57.7363Z" fill="white"/>
</g>
<defs>
<linearGradient id="paint0_linear_2047_15644" x1="0.000247387" y1="4.74401" x2="656.801" y2="153.156" gradientUnits="userSpaceOnUse">
<stop offset="0.171875" stop-color="#9B48EF"/>
<stop offset="1" stop-color="#E292AA"/>
</linearGradient>
<clipPath id="clip0_2047_15644">
<rect x="0.000244141" width="660" height="278" rx="8" fill="white"/>
</clipPath>
</defs>
</svg>
