<svg width="51" height="52" viewBox="0 0 51 52" fill="none" xmlns="http://www.w3.org/2000/svg">
<path d="M44.6126 27.9696C47.369 18.2287 41.973 8.17294 32.5602 5.5094C23.1475 2.84586 13.2824 8.5832 10.5261 18.3241C7.76966 28.065 13.1657 38.1208 22.5784 40.7843C31.9912 43.4479 41.8562 37.7105 44.6126 27.9696Z" fill="#465267"/>
<path d="M46.8975 41.47C44.1025 38.935 41.5675 38.3825 36.465 37.9925C30.0672 37.4792 23.7634 36.1354 17.7125 33.995C9.945 31.265 4.1925 31.46 1.3325 34.2225L0 35.49V52H50.05C49.9525 46.93 49.2375 43.6475 46.8975 41.47Z" fill="#465267"/>
<path d="M31.2967 14.755C32.0767 19.305 34.6442 21.7425 37.7317 22.685C36.3017 26 35.7492 28.6325 36.4642 31.655C34.9378 32.0648 33.5245 32.816 32.3309 33.8519C31.1373 34.8879 30.1947 36.1815 29.5742 37.635C28.7617 33.02 24.8292 30.485 22.2617 30.03C24.0492 26.195 24.5042 23.2375 22.9767 19.5975C26.4217 19.24 29.8342 17.9725 31.2967 14.755Z" fill="#FFC619"/>
<path d="M10.4307 39.455C10.3589 39.4753 10.2952 39.5175 10.2485 39.5758C10.2019 39.6341 10.1747 39.7055 10.1707 39.78C10.1382 39.845 10.1707 39.91 10.1707 39.975C11.2757 43.0625 12.1857 45.7275 12.2507 52H13.1282C13.2257 46.2475 12.2832 43.355 10.9832 39.715C10.9651 39.6609 10.9362 39.611 10.8982 39.5684C10.8603 39.5258 10.8141 39.4913 10.7625 39.467C10.7109 39.4427 10.6548 39.4291 10.5978 39.427C10.5408 39.425 10.4839 39.4345 10.4307 39.455Z" fill="black"/>
<path d="M31.2982 15.5999H31.2007C31.146 15.5938 31.0935 15.5752 31.0472 15.5455C31.0009 15.5158 30.9621 15.4757 30.9338 15.4286C30.9055 15.3814 30.8884 15.3283 30.884 15.2735C30.8795 15.2187 30.8878 15.1635 30.9082 15.1124C31.3957 12.9024 31.4932 10.9199 31.1032 9.22994C31.0828 9.11835 31.1048 9.00316 31.1649 8.90696C31.225 8.81077 31.3189 8.7405 31.4282 8.70994C31.5357 8.69058 31.6465 8.71361 31.7374 8.77421C31.8283 8.8348 31.8922 8.92825 31.9157 9.03494C32.3382 10.8549 32.2407 12.9674 31.7207 15.3074C31.6879 15.3931 31.63 15.4668 31.5547 15.519C31.4793 15.5712 31.3899 15.5994 31.2982 15.5999Z" fill="black"/>
<path d="M22.9788 19.9875C22.8975 19.9951 22.8163 19.9719 22.7514 19.9225C21.7725 19.2349 20.7273 18.647 19.6314 18.1675C19.5337 18.1184 19.4589 18.0335 19.4225 17.9305C19.3862 17.8275 19.3911 17.7144 19.4364 17.615C19.4536 17.5607 19.4825 17.5108 19.5211 17.4689C19.5596 17.427 19.6069 17.3941 19.6596 17.3724C19.7122 17.3507 19.769 17.3408 19.8259 17.3434C19.8828 17.346 19.9384 17.3611 19.9889 17.3875C21.1177 17.9214 22.2042 18.5407 23.2389 19.24C23.3224 19.3097 23.3781 19.4071 23.396 19.5144C23.4139 19.6217 23.3927 19.7319 23.3364 19.825C23.2944 19.879 23.2399 19.922 23.1776 19.9503C23.1154 19.9786 23.0471 19.9913 22.9788 19.9875Z" fill="black"/>
<path d="M37.7339 23.1074C37.6368 23.11 37.5419 23.0791 37.4649 23.0199C37.388 22.9608 37.3337 22.8769 37.3114 22.7824C37.292 22.6749 37.3151 22.5641 37.3756 22.4732C37.4362 22.3823 37.5297 22.3184 37.6364 22.2949C38.4301 22.1292 39.2037 21.8786 39.9439 21.5474C39.9923 21.5203 40.0458 21.5039 40.1011 21.4991C40.1563 21.4944 40.212 21.5015 40.2642 21.5199C40.3165 21.5384 40.3643 21.5678 40.4043 21.6061C40.4443 21.6445 40.4757 21.691 40.4964 21.7424C40.5235 21.7908 40.5399 21.8444 40.5447 21.8996C40.5494 21.9549 40.5423 22.0105 40.5239 22.0628C40.5054 22.1151 40.476 22.1628 40.4377 22.2028C40.3993 22.2429 40.3528 22.2743 40.3014 22.2949C39.4961 22.6476 38.6578 22.9198 37.7989 23.1074H37.7339Z" fill="black"/>
<path d="M37.3108 32.9224C37.2425 32.9263 37.1742 32.9135 37.112 32.8852C37.0497 32.8569 36.9952 32.8139 36.9532 32.7599C36.7624 32.4993 36.5445 32.2597 36.3032 32.0449C36.2446 31.9668 36.2149 31.8707 36.2191 31.7732C36.2234 31.6756 36.2613 31.5825 36.3264 31.5097C36.3915 31.4369 36.4798 31.3889 36.5764 31.3739C36.6729 31.3589 36.7716 31.3778 36.8557 31.4274C37.1394 31.6863 37.4003 31.969 37.6358 32.2724C37.6996 32.3632 37.7251 32.4754 37.7069 32.5849C37.6886 32.6943 37.6281 32.7922 37.5382 32.8574C37.4733 32.9069 37.3921 32.9301 37.3108 32.9224Z" fill="black"/>
<path d="M18.3288 30.9725C18.2167 30.9725 18.1092 30.928 18.03 30.8487C17.9508 30.7695 17.9062 30.662 17.9062 30.55C17.9062 30.4379 17.9508 30.3305 18.03 30.2512C18.1092 30.172 18.2167 30.1275 18.3288 30.1275C19.6131 30.1491 20.8939 29.9849 22.1312 29.64C22.239 29.61 22.3542 29.6239 22.4517 29.6788C22.5492 29.7336 22.6209 29.8248 22.6512 29.9325C22.6812 30.0402 22.6673 30.1555 22.6125 30.2529C22.5576 30.3504 22.4664 30.4222 22.3588 30.4525C21.0485 30.824 19.6904 30.9993 18.3288 30.9725Z" fill="black"/>
<path d="M26.4219 24.115L34.3844 26.65C32.0119 29.6075 30.7119 31.6875 26.4219 24.115Z" fill="black"/>
<path d="M25.578 25.09C25.5028 25.0906 25.4291 25.0694 25.3656 25.029C25.3022 24.9887 25.2518 24.9309 25.2205 24.8625C25.1924 24.8162 25.1743 24.7645 25.1673 24.7107C25.1603 24.657 25.1646 24.6024 25.1799 24.5504C25.1952 24.4985 25.2212 24.4502 25.2561 24.4088C25.2911 24.3674 25.3343 24.3338 25.383 24.31L27.658 23.1725C27.7622 23.1256 27.8802 23.1197 27.9885 23.1558C28.0969 23.1919 28.1877 23.2675 28.243 23.3675C28.2882 23.4669 28.2932 23.58 28.2568 23.683C28.2204 23.7861 28.1456 23.871 28.048 23.92L25.773 25.0575L25.578 25.09Z" fill="black"/>
<path d="M27.4961 25.9025C29.9336 29.705 31.2661 29.8675 32.6311 28.665C31.3324 27.1254 29.4965 26.1378 27.4961 25.9025Z" fill="#EB459F"/>
<path d="M36.5948 47.7099C35.6841 44.7869 34.5205 41.9486 33.1173 39.2274C33.0393 39.0554 32.8964 38.9213 32.7198 38.8543C32.5432 38.7874 32.3473 38.793 32.1748 38.8699C31.99 38.9614 31.8468 39.1198 31.7744 39.3129C31.702 39.506 31.7057 39.7195 31.7848 39.9099C32.8909 42.6473 33.7607 45.4743 34.3848 48.3599C34.6448 49.5624 34.8398 50.7649 35.0023 51.9999H37.6998C37.3748 50.5699 37.0173 49.1074 36.5948 47.7099Z" fill="white"/>
<path d="M24.9258 38.1225C24.75 38.1133 24.5774 38.1725 24.4442 38.2875C24.3109 38.4026 24.2273 38.5647 24.2108 38.74C23.9833 41.3075 23.8208 43.875 23.6583 46.4425C23.5608 48.295 23.4308 50.1475 23.3008 52H25.8033C25.7708 50.1475 25.7383 48.295 25.6733 46.475C25.6083 43.9075 25.5433 41.3725 25.5108 38.805C25.5125 38.6397 25.4541 38.4794 25.3465 38.3538C25.2389 38.2283 25.0894 38.1461 24.9258 38.1225Z" fill="white"/>
</svg>
