<svg width="500" height="350" viewBox="0 0 500 350" fill="none" xmlns="http://www.w3.org/2000/svg">
<path d="M278.93 338L324.16 338.21C324.16 338.21 303.66 310.48 276.96 332.54C276.474 332.947 276.125 333.492 275.96 334.104C275.794 334.715 275.821 335.363 276.036 335.959C276.251 336.555 276.644 337.07 277.161 337.435C277.679 337.8 278.296 337.997 278.93 338Z" fill="#5865F2"/>
<path d="M430.81 249.94L462.43 274.64C462.973 275.058 463.372 275.635 463.57 276.29C463.769 276.946 463.757 277.648 463.536 278.296C463.315 278.945 462.897 279.508 462.34 279.907C461.783 280.306 461.115 280.52 460.43 280.52C450.63 280.45 434.64 277.82 423.53 263.37L430.81 249.94Z" fill="#5865F2"/>
<path d="M294.24 173.14L290.1 231.72C289.349 242.375 289.399 253.072 290.25 263.72C290.25 263.72 290.68 321.05 295.75 324.1C306.19 325.58 317.05 338.21 317.05 338.21H332.32C332.755 338.21 333.186 338.123 333.586 337.952C333.986 337.782 334.347 337.532 334.648 337.218C334.949 336.904 335.183 336.532 335.337 336.125C335.49 335.718 335.559 335.284 335.54 334.85L335.16 326.62L330.83 233.07L367.7 285.65C369.235 287.814 371.375 289.477 373.852 290.429C376.328 291.381 379.031 291.579 381.62 291L428 280.74C428.904 280.536 429.722 280.056 430.34 279.366C430.958 278.676 431.346 277.81 431.45 276.89L434.67 247.89C434.724 247.405 434.661 246.914 434.486 246.458C434.312 246.003 434.03 245.596 433.666 245.271C433.302 244.946 432.866 244.713 432.393 244.591C431.921 244.469 431.426 244.462 430.95 244.57L387.76 254.28L355.56 212C354.521 210.645 353.806 209.069 353.47 207.395C353.134 205.721 353.185 203.991 353.62 202.34C355.15 196.7 356.28 187.07 350.08 178.47L294.24 173.14Z" fill="#242145"/>
<path d="M314.41 173.21C298.57 245.32 327.13 338.21 327.13 338.21H320.31C293.48 256.25 309 172.21 309 171.25L314.41 173.21Z" fill="url(#paint0_linear_5139_90446)"/>
<path d="M378.72 113.31L425.21 119.63C426.107 119.749 426.95 120.124 427.64 120.708C428.33 121.293 428.838 122.064 429.102 122.929C429.367 123.794 429.377 124.717 429.132 125.587C428.887 126.458 428.397 127.24 427.72 127.84C422.72 132.22 414.51 136.26 402.53 131.96L409.2 137.53C409.754 137.987 410.164 138.594 410.381 139.279C410.598 139.963 410.613 140.696 410.424 141.388C410.235 142.081 409.85 142.704 409.315 143.183C408.781 143.663 408.119 143.977 407.41 144.09C402.24 144.82 394.54 143.49 386.05 133.76L385.51 137.83C385.412 138.597 385.126 139.328 384.679 139.959C384.231 140.59 383.636 141.101 382.944 141.448C382.253 141.795 381.487 141.966 380.714 141.947C379.941 141.929 379.184 141.72 378.51 141.34C373.124 138.33 369.029 133.448 367 127.62C366.397 125.867 366.253 123.99 366.58 122.165C366.907 120.341 367.695 118.631 368.87 117.197C370.044 115.763 371.566 114.653 373.29 113.973C375.014 113.292 376.883 113.064 378.72 113.31Z" fill="black"/>
<path d="M297.79 73.5499L297.58 68.8399C301.05 66.3899 300.88 59.5299 300.88 59.5299L275.88 58.9399C276.05 64.8599 281.47 68.4999 281.47 68.4999L281.53 73.8899C281.53 73.8899 281.36 98.4099 296.82 110.68L315.82 101.94C315.82 101.94 299.64 92.6999 297.79 73.5499Z" fill="#8CD9FF"/>
<path d="M297.79 73.5499L297.58 68.8399C301.05 66.3899 300.88 59.5299 300.88 59.5299L275.88 58.9399C276.05 64.8599 281.47 68.4999 281.47 68.4999L281.53 73.8899C281.53 73.8899 281.36 98.4099 296.82 110.68L315.82 101.94C315.82 101.94 299.64 92.6999 297.79 73.5499Z" fill="#29CC7A"/>
<path d="M299.51 81.5701C293.382 83.7515 288.294 88.1509 285.25 93.9001C286.006 95.9602 286.905 97.9651 287.94 99.9001C290.94 92.3201 297.85 88.1801 301.55 86.4301C300.752 84.862 300.071 83.2377 299.51 81.5701Z" fill="#91FFAD"/>
<path d="M297.79 73.5499L297.58 68.8399C301.05 66.3899 300.88 59.5299 300.88 59.5299L275.88 58.9399C276.05 64.8599 281.47 68.4999 281.47 68.4999L281.53 73.8899C281.693 80.7162 282.963 87.4707 285.29 93.8899C288.333 88.1408 293.421 83.7413 299.55 81.5599C298.656 78.9668 298.066 76.2789 297.79 73.5499Z" fill="#8CD9FF"/>
<path d="M302 55.1401C299.61 59.5401 299.77 63.6201 297.27 63.0201C294.59 62.3701 294.18 56.7201 296.57 52.3301C298.96 47.9401 304.03 45.0901 305.92 47.1001C307.81 49.1101 304.34 50.7501 302 55.1401Z" fill="#8CD9FF"/>
<path d="M404.7 210.73L405.83 236.44C405.83 241.17 404.7 244.26 401.12 247.27C398.588 249.552 395.767 251.492 392.73 253.04L411.29 248.87V210.87L404.7 210.73Z" fill="#8CD9FF"/>
<path d="M409.58 212.83L422.45 233.83L445.45 225.03C445.807 224.892 446.189 224.829 446.571 224.842C446.954 224.856 447.329 224.947 447.676 225.109C448.022 225.272 448.333 225.503 448.588 225.788C448.843 226.073 449.037 226.407 449.16 226.77L451.57 233.94C451.646 234.141 451.78 234.314 451.955 234.439C452.13 234.563 452.339 234.632 452.553 234.638C452.768 234.643 452.979 234.584 453.16 234.469C453.342 234.353 453.484 234.187 453.57 233.99C454.72 230.99 457.06 226.76 461.39 225.29C461.594 225.22 461.772 225.092 461.902 224.92C462.032 224.748 462.108 224.542 462.12 224.327C462.132 224.112 462.079 223.898 461.969 223.714C461.858 223.529 461.695 223.381 461.5 223.29L450.04 218.18C449.409 217.898 448.696 217.863 448.04 218.08L424.58 228.47L416.1 210.64L409.58 212.83Z" fill="#8CD9FF"/>
<path d="M330.21 87.3601C333.572 89.5167 337.351 90.9396 341.301 91.5358C345.25 92.1321 349.281 91.8882 353.13 90.8201C356.657 89.7716 360.44 89.9847 363.827 91.4228C367.214 92.8609 369.995 95.4341 371.69 98.7001C376.78 108.99 376.56 129.75 352.46 171.51L350.08 178.43L294.24 173.14L293.32 162.48C284.32 147.29 290.39 131.8 296.63 126.87L330.21 87.3601Z" fill="url(#paint1_linear_5139_90446)"/>
<path d="M371.17 103.65L426.56 85.0601C427.627 84.7001 428.774 84.6537 429.866 84.9265C430.958 85.1993 431.949 85.7798 432.72 86.5991C433.492 87.4183 434.013 88.4418 434.22 89.5481C434.427 90.6544 434.313 91.797 433.89 92.8401C430.78 100.47 423.78 109.53 408.03 111.33L418.55 113.87C419.418 114.079 420.208 114.534 420.825 115.179C421.443 115.824 421.862 116.633 422.032 117.51C422.203 118.386 422.118 119.293 421.788 120.123C421.458 120.953 420.896 121.67 420.17 122.19C414.81 125.86 405.47 128.62 390.63 122.43L392.27 127.27C393.6 131.21 390.51 134.42 386.4 135.05C381.52 135.79 371.79 133.57 366.88 125.44C356.8 108.77 361.61 106.86 371.17 103.65Z" fill="#5865F2"/>
<path d="M106.91 46.5801C106.91 46.5801 154.59 94.4101 210.71 56.0601C210.71 56.0601 180.43 186.87 223.54 281.46C223.54 281.46 178.82 262.18 157.42 205.25C157.42 205.25 138.85 236.07 137.05 278.77C137.05 278.77 83.9395 196.23 106.91 46.5801Z" fill="#3442D9"/>
<path d="M205.06 252.28C205.06 252.28 174.92 202 200.47 62.18C164.38 80.75 133 65.68 117.37 55C116.206 54.2991 115.081 53.5346 114 52.71C110.49 81.15 104.08 177.18 133.15 241.38C133.15 241.38 138.4 206.66 159.8 184.45C159.84 184.45 177.2 234.52 205.06 252.28Z" fill="url(#paint2_linear_5139_90446)"/>
<path d="M293.32 162.48C293.32 162.48 314.52 174.73 352.46 171.48L350.08 178.4C350.08 178.4 322.39 182.4 294.24 173.11L293.32 162.48Z" fill="#91FFAD"/>
<path d="M135.18 270.57C135.18 270.57 121.09 303.37 140.18 302.48C142.594 302.412 144.934 301.636 146.91 300.25C151.3 297 155.6 288.85 135.18 270.57Z" fill="#3442D9"/>
<path d="M217.65 274.85C217.65 274.85 219.92 310.47 236.53 301.05C238.654 299.914 240.394 298.174 241.53 296.05C244 291.13 244.13 281.91 217.65 274.85Z" fill="#3442D9"/>
<path d="M383.46 283.72L431.81 273.72L433.05 262.53L386.11 276.35C383.486 277.122 380.688 277.074 378.091 276.213C375.494 275.352 373.223 273.718 371.58 271.53L329.58 216.59L330.27 224.66L369.87 278.51C371.397 280.591 373.49 282.188 375.9 283.112C378.309 284.036 380.934 284.247 383.46 283.72Z" fill="url(#paint3_linear_5139_90446)"/>
<path d="M395.15 127.56C394.924 127.559 394.702 127.508 394.5 127.41C391.405 125.831 388.447 123.994 385.66 121.92C385.341 121.681 385.131 121.326 385.075 120.932C385.018 120.538 385.121 120.138 385.36 119.82C385.598 119.502 385.954 119.291 386.347 119.235C386.741 119.179 387.141 119.281 387.46 119.52C390.094 121.473 392.883 123.209 395.8 124.71C396.105 124.858 396.351 125.105 396.498 125.411C396.645 125.716 396.684 126.063 396.608 126.394C396.533 126.724 396.347 127.02 396.083 127.231C395.818 127.443 395.489 127.559 395.15 127.56Z" fill="black"/>
<path d="M374.21 22.66C374.12 23 387 9.30996 375.8 5.46996C364.6 1.62996 377.28 11.75 374.21 22.66Z" fill="#EB459F"/>
<path d="M374.07 22.3899C374.07 22.3899 388.27 4.82988 398.51 16.6599C408.75 28.4899 384.45 17.7199 374.07 22.3899Z" fill="#EB459F"/>
<path d="M344.16 94.45C362.446 94.45 377.27 79.6261 377.27 61.34C377.27 43.0538 362.446 28.23 344.16 28.23C325.874 28.23 311.05 43.0538 311.05 61.34C311.05 79.6261 325.874 94.45 344.16 94.45Z" fill="url(#paint4_linear_5139_90446)"/>
<path d="M392.8 64.15C392.8 64.15 403.43 81.8 392.16 88C368.27 101 362.81 57.13 362.81 57.13C344.31 86.9 342.73 35.41 342.73 35.41C342.73 35.41 298.31 44.11 307.59 18C307.59 18 312.95 4.82999 330.49 17.45C330.49 17.45 336.03 22.5 346.57 17.1C360.66 9.86999 380.41 14.75 384.33 34.1C384.33 34.1 388.41 49.67 404.49 48.3C420.57 46.93 411.3 78.71 392.8 64.15Z" fill="#EB459F"/>
<path d="M336.69 59.5301C335.609 58.7126 334.38 58.1116 333.07 57.7601C330.787 57.1298 328.36 57.2704 326.165 58.1599C323.971 59.0494 322.13 60.6383 320.93 62.6801C318.923 62.9341 316.885 62.6548 315.02 61.8701C314.68 61.6965 314.286 61.6593 313.919 61.7662C313.553 61.873 313.24 62.1158 313.046 62.4449C312.853 62.7741 312.792 63.1649 312.876 63.5375C312.96 63.9101 313.184 64.2365 313.5 64.4501C315.398 65.3919 317.503 65.8391 319.62 65.7501H319.71C319.087 68.4623 319.534 71.3106 320.96 73.7009C322.385 76.0913 324.678 77.8391 327.36 78.5801C327.921 78.731 328.493 78.838 329.07 78.9001H329.24C329.638 78.92 330.028 78.781 330.323 78.5138C330.618 78.2465 330.795 77.8729 330.815 77.4751C330.835 77.0773 330.696 76.6878 330.429 76.3925C330.162 76.0971 329.788 75.92 329.39 75.9001C328.975 75.8583 328.563 75.7813 328.16 75.6701C326.672 75.2647 325.337 74.4265 324.326 73.2617C323.314 72.0969 322.671 70.658 322.479 69.1274C322.286 67.5968 322.552 66.0434 323.243 64.6642C323.934 63.2849 325.019 62.142 326.36 61.3801C327.248 60.868 328.228 60.5379 329.245 60.4091C330.261 60.2804 331.293 60.3555 332.28 60.6301C333.226 60.8883 334.115 61.3225 334.9 61.9101C335.057 62.0428 335.238 62.142 335.434 62.2017C335.631 62.2614 335.837 62.2803 336.04 62.2572C336.244 62.2341 336.441 62.1695 336.619 62.0674C336.796 61.9653 336.951 61.8278 337.074 61.6635C337.196 61.4992 337.284 61.3116 337.331 61.1121C337.378 60.9126 337.384 60.7056 337.348 60.5038C337.312 60.3021 337.235 60.1098 337.122 59.9388C337.009 59.7679 336.862 59.622 336.69 59.5101V59.5301Z" fill="black"/>
<path d="M328.64 46.9999C330.16 45.3599 331.48 44.5999 330.9 43.6299C330.16 42.4199 327.14 43.7999 325.31 46.1799C323.66 48.3299 323.08 51.1799 323.98 52.0199H324.03C324.89 52.7499 326.56 51.2499 329.2 50.5499C332.12 49.7799 334.26 50.5499 334.36 48.9399C334.46 47.3299 331.45 46.4199 328.64 46.9999Z" fill="black"/>
<path d="M311.87 52.0001C311.172 51.9574 310.483 52.1787 309.94 52.6201C307.557 54.5015 304.56 55.4316 301.53 55.2301L114.09 38.0001C102.089 36.9097 90.4476 33.3267 79.9103 27.4801L56.6203 14.4801C54.6006 13.3486 52.2204 13.0457 49.9817 13.6352C47.743 14.2248 45.8207 15.6606 44.6203 17.6401C36.6203 30.9301 38.8903 45.3401 41.6203 54.2001C41.982 55.3314 42.5641 56.38 43.333 57.2853C44.1019 58.1907 45.0424 58.9348 46.1003 59.4749C47.1582 60.015 48.3126 60.3404 49.4968 60.4322C50.681 60.5241 51.8717 60.3806 53.0003 60.0101L77.6103 51.7301C89.0379 47.8835 101.143 46.4666 113.15 47.5701L299.15 64.6401C300.879 64.816 302.547 65.3705 304.037 66.264C305.526 67.1576 306.801 68.3683 307.77 69.8101C308.002 70.2175 308.323 70.5669 308.709 70.832C309.095 71.0971 309.537 71.2708 310 71.3401C312.57 71.5901 315.07 67.4601 315.59 62.1201C316.11 56.7801 314.45 52.2601 311.87 52.0001Z" fill="url(#paint5_linear_5139_90446)"/>
<path d="M57.0006 37.4645C57.7349 27.3678 55.2492 18.9587 51.4484 18.6822C47.6477 18.4058 43.9713 26.3667 43.2369 36.4634C42.5026 46.5601 44.9883 54.9692 48.789 55.2457C52.5898 55.5221 56.2662 47.5612 57.0006 37.4645Z" fill="black"/>
<path d="M277.75 44.54C274.75 44.14 272.57 47.6 273.27 50.54C274.15 54.24 276.27 58.64 281.2 59.82C283.621 60.3899 286.094 60.7049 288.58 60.76C291.222 60.8319 293.798 59.927 295.815 58.2185C297.831 56.51 299.147 54.118 299.51 51.5C299.9 48.62 299.7 44.66 296.02 45.14C286.31 46.41 286.57 45.7 277.75 44.54Z" fill="#8CD9FF"/>
<path d="M327.8 90.2201C309.96 83.0901 300.23 107.61 300.23 107.61C275.92 92.7601 267.23 67.6101 267.23 67.6101L267.06 65.0001C266.935 63.3594 266.985 61.7101 267.21 60.0801C267.824 56.2714 267.753 52.3837 267 48.6001C266.763 47.5958 266.324 46.6502 265.71 45.821C265.096 44.9919 264.319 44.2964 263.427 43.7772C262.536 43.2579 261.548 42.9256 260.523 42.8006C259.499 42.6756 258.46 42.7605 257.47 43.0501L256.02 43.4701C253.668 44.1399 251.202 44.3102 248.78 43.9701L246 43.5901C245.043 43.4542 244.069 43.5272 243.143 43.8039C242.217 44.0806 241.363 44.5546 240.637 45.1932C239.912 45.8317 239.334 46.6198 238.943 47.5031C238.551 48.3864 238.356 49.344 238.37 50.3101C238.46 61.9101 248.89 74.6601 248.89 74.6601C248.89 74.6601 261.83 143.75 297.51 140.57C339.94 136.78 342.65 96.1701 327.8 90.2201Z" fill="#57F287"/>
<path d="M273.69 80.53C264.69 85.25 259.77 97.04 257.63 103.65C258.68 106.24 259.83 108.86 261.09 111.44C264 97.7 273.52 89.87 278 86.89C276.33 84.68 274.91 82.53 273.69 80.53Z" fill="#91FFAD"/>
<path d="M323.54 134C323.281 134 323.029 133.921 322.818 133.772C322.607 133.623 322.447 133.413 322.36 133.169C322.274 132.926 322.265 132.662 322.334 132.413C322.404 132.164 322.549 131.943 322.75 131.78C333.88 122.89 336.21 109.73 336.23 109.6C336.257 109.438 336.315 109.283 336.402 109.143C336.489 109.004 336.603 108.883 336.736 108.787C336.87 108.691 337.021 108.623 337.181 108.586C337.342 108.548 337.508 108.543 337.67 108.57C337.832 108.597 337.987 108.656 338.127 108.743C338.266 108.83 338.387 108.943 338.483 109.077C338.579 109.211 338.647 109.362 338.684 109.522C338.721 109.682 338.727 109.848 338.7 110.01C336.742 119.322 331.67 127.688 324.32 133.73C324.099 133.909 323.823 134.004 323.54 134Z" fill="#29CC7A"/>
<path d="M267.06 65.0001C266.935 63.3594 266.985 61.7101 267.21 60.0801C267.824 56.2714 267.753 52.3837 267 48.6001C266.763 47.5958 266.324 46.6502 265.71 45.821C265.096 44.9919 264.319 44.2964 263.427 43.7772C262.536 43.2579 261.548 42.9256 260.523 42.8006C259.499 42.6756 258.46 42.7605 257.47 43.0501L256.02 43.4701C253.668 44.1399 251.202 44.3102 248.78 43.9701L246 43.5901C245.043 43.4542 244.069 43.5272 243.143 43.8039C242.217 44.0806 241.363 44.5546 240.637 45.1932C239.912 45.8317 239.334 46.6198 238.943 47.5031C238.551 48.3864 238.356 49.344 238.37 50.3101C238.46 61.9101 248.89 74.6601 248.89 74.6601C250.927 84.5671 253.845 94.2723 257.61 103.66C259.75 97.0501 264.69 85.2601 273.67 80.5401C271.117 76.4633 268.97 72.146 267.26 67.6501L267.06 65.0001Z" fill="#8CD9FF"/>
<path d="M284 60.3599C283.139 57.3047 282.777 54.1304 282.93 50.9599C282.939 50.7957 282.916 50.6312 282.862 50.476C282.808 50.3207 282.723 50.1776 282.614 50.055C282.504 49.9324 282.371 49.8326 282.223 49.7613C282.075 49.6901 281.914 49.6488 281.75 49.6399C281.586 49.6291 281.422 49.6509 281.266 49.704C281.111 49.7571 280.968 49.8404 280.845 49.9493C280.723 50.0581 280.623 50.1902 280.551 50.3379C280.48 50.4857 280.439 50.6461 280.43 50.8099C280.297 53.8337 280.576 56.8615 281.26 59.8099C282.18 60.0599 283.09 60.2199 284 60.3599Z" fill="#3F99F2"/>
<path d="M292 60.3C291.285 57.4515 290.989 54.514 291.12 51.58C291.142 51.4099 291.128 51.2371 291.08 51.0725C291.032 50.9079 290.95 50.755 290.841 50.6232C290.731 50.4914 290.595 50.3836 290.442 50.3065C290.289 50.2294 290.122 50.1847 289.95 50.1751C289.779 50.1654 289.608 50.1911 289.447 50.2506C289.286 50.31 289.139 50.4019 289.015 50.5206C288.891 50.6392 288.793 50.7821 288.727 50.9402C288.661 51.0984 288.628 51.2685 288.63 51.44C288.49 54.5697 288.79 57.7036 289.52 60.75C290.361 60.6929 291.193 60.5419 292 60.3Z" fill="#3F99F2"/>
<path d="M411.29 210.88L404.7 210.73L405.28 223.96C406.93 224.37 408.69 224.09 411.28 223.31L411.29 210.88Z" fill="black"/>
<path d="M416.09 210.6L409.58 212.83L415.63 222.69C417.596 222.896 419.579 222.528 421.34 221.63L416.09 210.6Z" fill="black"/>
<path d="M421.13 155.92L425.13 149.68C425.573 148.975 426.159 148.371 426.849 147.905C427.538 147.438 428.318 147.121 429.137 146.972C429.956 146.824 430.797 146.847 431.607 147.041C432.417 147.236 433.177 147.596 433.84 148.1L437.84 151.1C438.127 151.317 438.329 151.627 438.411 151.977C438.493 152.326 438.45 152.694 438.29 153.016C438.13 153.337 437.862 153.593 437.533 153.738C437.205 153.883 436.835 153.909 436.49 153.81L433.34 152.91C431.576 152.403 429.694 152.498 427.99 153.18L421.13 155.92Z" fill="#EB459F"/>
<path d="M402.52 166.86C402.52 166.86 377.78 164.75 380.94 191.07C384.1 217.39 442.49 233.57 455.68 178.17C459.63 161.59 431.47 177.91 431.47 177.91C431.47 177.91 432.52 129.75 402.52 166.86Z" fill="url(#paint6_linear_5139_90446)"/>
<path d="M406.91 164.35L402.23 163C397.522 161.585 393.162 159.2 389.43 156L380.57 148.46C380.039 147.994 379.357 147.737 378.65 147.737C377.943 147.737 377.261 147.994 376.73 148.46C371.34 153.36 371.52 160.58 372.12 164.46C372.239 165.208 372.645 165.88 373.252 166.332C373.859 166.784 374.62 166.981 375.37 166.88L386.59 165.45C391.459 164.829 396.405 165.231 401.11 166.63L405.79 168.02C406.291 168.157 406.826 168.094 407.281 167.844C407.737 167.594 408.077 167.177 408.23 166.68C408.337 166.197 408.261 165.692 408.017 165.262C407.774 164.831 407.379 164.507 406.91 164.35Z" fill="url(#paint7_linear_5139_90446)"/>
<path d="M379.461 159.149C380.643 154.944 380.299 151.17 378.693 150.718C377.086 150.266 374.826 153.308 373.643 157.512C372.461 161.717 372.804 165.492 374.411 165.943C376.017 166.395 378.278 163.353 379.461 159.149Z" fill="black"/>
<path d="M445.26 183.55C446.35 185.55 444.4 188.65 441.26 191.08C438.46 199.91 433.71 201.47 430.65 202.41C426.57 203.65 420.91 202.93 418.38 198.35C415.85 193.77 416.58 188.52 421.5 185.81C426.42 183.1 442.74 179 445.26 183.55Z" fill="#5865F2"/>
<path d="M414.21 167.29C413.935 167.29 413.665 167.213 413.43 167.07C413.195 166.926 413.004 166.721 412.878 166.476C412.752 166.232 412.696 165.957 412.716 165.682C412.735 165.408 412.83 165.144 412.99 164.92C413.14 164.72 416.67 159.83 422.86 160.75C423.057 160.779 423.246 160.846 423.417 160.948C423.588 161.05 423.737 161.185 423.856 161.345C423.975 161.505 424.061 161.686 424.11 161.879C424.159 162.072 424.169 162.273 424.14 162.47C424.111 162.667 424.044 162.856 423.942 163.027C423.84 163.198 423.705 163.347 423.545 163.466C423.385 163.585 423.204 163.671 423.011 163.72C422.818 163.769 422.617 163.779 422.42 163.75C421.097 163.587 419.755 163.774 418.527 164.292C417.299 164.809 416.228 165.64 415.42 166.7C415.279 166.886 415.096 167.037 414.885 167.139C414.675 167.242 414.444 167.293 414.21 167.29Z" fill="black"/>
<path d="M441.29 191.08C437.92 193.38 433.21 193.23 433.16 193.23C432.963 193.219 432.766 193.248 432.58 193.314C432.395 193.381 432.224 193.484 432.079 193.617C431.934 193.75 431.816 193.911 431.734 194.09C431.652 194.269 431.606 194.463 431.6 194.66C431.592 194.857 431.623 195.054 431.691 195.239C431.759 195.424 431.863 195.594 431.996 195.739C432.13 195.884 432.291 196.001 432.47 196.083C432.649 196.166 432.843 196.212 433.04 196.22H433.42C435.506 196.206 437.577 195.868 439.56 195.22C440.265 193.897 440.844 192.511 441.29 191.08Z" fill="black"/>
<path d="M63.0002 245.63C60.9538 244.329 59.2139 242.599 57.9002 240.56C56.5938 238.521 55.738 236.227 55.3902 233.83L54.1302 225.59C54.1023 225.391 54.007 225.208 53.8602 225.07C53.7903 224.998 53.7064 224.94 53.6136 224.9C53.5208 224.861 53.421 224.841 53.3202 224.841C53.2194 224.841 53.1196 224.861 53.0268 224.9C52.9341 224.94 52.8502 224.998 52.7802 225.07C52.6371 225.21 52.5425 225.392 52.5102 225.59L51.2502 233.83C50.8954 236.225 50.0328 238.517 48.7204 240.552C47.408 242.588 45.6759 244.319 43.6402 245.63L42.5502 246.32C42.4407 246.401 42.3518 246.506 42.291 246.628C42.2301 246.75 42.199 246.884 42.2002 247.02C42.2012 247.155 42.232 247.288 42.2902 247.41C42.3514 247.53 42.4406 247.633 42.5502 247.71L43.6402 248.4C45.6759 249.711 47.408 251.443 48.7204 253.478C50.0328 255.513 50.8954 257.805 51.2502 260.2L52.5102 268.44C52.5406 268.633 52.6389 268.809 52.7874 268.936C52.9359 269.063 53.1249 269.132 53.3202 269.132C53.5156 269.132 53.7045 269.063 53.853 268.936C54.0015 268.809 54.0998 268.633 54.1302 268.44L55.3902 260.2C55.738 257.804 56.5938 255.509 57.9002 253.47C59.2139 251.431 60.9538 249.702 63.0002 248.4L64.0902 247.71C64.1999 247.633 64.2891 247.53 64.3502 247.41C64.4085 247.288 64.4392 247.155 64.4402 247.02C64.4414 246.884 64.4103 246.75 64.3495 246.628C64.2886 246.506 64.1998 246.401 64.0902 246.32L63.0002 245.63Z" fill="#91FFAD"/>
<path d="M239.55 184.87C237.975 183.864 236.636 182.531 235.623 180.96C234.61 179.39 233.947 177.62 233.68 175.77L232.68 169.42C232.661 169.266 232.586 169.124 232.47 169.02C232.417 168.963 232.353 168.918 232.282 168.888C232.21 168.857 232.133 168.841 232.055 168.841C231.978 168.841 231.901 168.857 231.829 168.888C231.758 168.918 231.694 168.963 231.64 169.02C231.525 169.124 231.45 169.266 231.43 169.42L230.43 175.77C230.15 177.616 229.483 179.381 228.471 180.949C227.459 182.518 226.126 183.854 224.56 184.87L223.72 185.4C223.631 185.458 223.561 185.541 223.52 185.64C223.471 185.732 223.447 185.836 223.45 185.94C223.45 186.044 223.474 186.147 223.52 186.24C223.564 186.334 223.633 186.414 223.72 186.47L224.56 187C226.128 188.017 227.462 189.354 228.474 190.925C229.485 192.495 230.152 194.263 230.43 196.11L231.43 202.46C231.456 202.607 231.53 202.741 231.64 202.84C231.755 202.937 231.9 202.991 232.05 202.99C232.204 202.992 232.353 202.939 232.47 202.84C232.581 202.741 232.655 202.607 232.68 202.46L233.68 196.11C233.949 194.258 234.611 192.485 235.62 190.91C236.634 189.339 237.975 188.006 239.55 187L240.39 186.47C240.477 186.414 240.547 186.334 240.59 186.24C240.637 186.147 240.661 186.044 240.66 185.94C240.664 185.836 240.64 185.732 240.59 185.64C240.55 185.541 240.48 185.458 240.39 185.4L239.55 184.87Z" fill="#8CD9FF"/>
<path d="M472.7 164.11C471.128 163.1 469.789 161.767 468.77 160.2C467.759 158.63 467.101 156.859 466.84 155.01L465.84 148.66C465.824 148.505 465.749 148.362 465.63 148.26C465.52 148.153 465.374 148.089 465.22 148.08C465.063 148.089 464.915 148.153 464.8 148.26C464.688 148.365 464.617 148.507 464.6 148.66L463.6 155.01C463.322 156.855 462.657 158.62 461.65 160.19C460.639 161.762 459.302 163.099 457.73 164.11L456.89 164.64C456.806 164.699 456.737 164.778 456.69 164.87C456.642 164.966 456.618 165.073 456.62 165.18C456.62 165.284 456.644 165.387 456.69 165.48C456.737 165.572 456.806 165.651 456.89 165.71L457.73 166.24C459.3 167.252 460.636 168.587 461.648 170.156C462.66 171.726 463.326 173.493 463.6 175.34L464.6 181.69C464.62 181.84 464.694 181.978 464.808 182.078C464.922 182.177 465.069 182.231 465.22 182.23C465.37 182.231 465.516 182.177 465.63 182.08C465.744 181.979 465.818 181.841 465.84 181.69L466.84 175.34C467.101 173.491 467.759 171.72 468.77 170.15C469.789 168.583 471.128 167.251 472.7 166.24L473.55 165.71C473.632 165.648 473.7 165.57 473.75 165.48C473.794 165.386 473.814 165.283 473.81 165.18C473.816 165.073 473.795 164.967 473.75 164.87C473.7 164.78 473.632 164.702 473.55 164.64L472.7 164.11Z" fill="#FF78B9"/>
<path d="M74.5403 130.7C72.969 129.692 71.6322 128.359 70.6203 126.79C69.6022 125.222 68.9399 123.451 68.6803 121.6L67.6803 115.25C67.6639 115.097 67.5929 114.955 67.4803 114.85C67.3648 114.744 67.2167 114.68 67.0603 114.67C66.906 114.677 66.7598 114.741 66.6503 114.85C66.5317 114.951 66.4565 115.095 66.4403 115.25L65.4403 121.6C65.1652 123.446 64.5003 125.212 63.4899 126.781C62.4796 128.35 61.1468 129.686 59.5803 130.7L58.7303 131.23C58.6484 131.292 58.5803 131.37 58.5303 131.46C58.481 131.555 58.4601 131.663 58.4703 131.77C58.4609 131.874 58.4818 131.978 58.5303 132.07C58.5803 132.16 58.6484 132.238 58.7303 132.3L59.5803 132.83C61.1445 133.847 62.4768 135.183 63.4903 136.75C64.5192 138.314 65.2011 140.08 65.4903 141.93L66.4903 148.28C66.5165 148.425 66.5929 148.557 66.7063 148.652C66.8196 148.746 66.9626 148.798 67.1103 148.798C67.258 148.798 67.401 148.746 67.5143 148.652C67.6276 148.557 67.7041 148.425 67.7303 148.28L68.7303 141.93C68.99 140.079 69.6522 138.307 70.6703 136.74C71.6822 135.171 73.019 133.838 74.5903 132.83L75.4403 132.3C75.5222 132.238 75.5903 132.16 75.6403 132.07C75.6888 131.978 75.7096 131.874 75.7003 131.77C75.7104 131.663 75.6896 131.555 75.6403 131.46C75.5903 131.37 75.5222 131.292 75.4403 131.23L74.5403 130.7Z" fill="#FF78B9"/>
<path d="M89.8504 214.93C88.5022 214.074 87.3565 212.935 86.4931 211.591C85.6296 210.248 85.0691 208.732 84.8504 207.15L84.0004 201.73C83.9816 201.599 83.918 201.479 83.8204 201.39C83.7739 201.343 83.7186 201.306 83.6577 201.281C83.5968 201.255 83.5314 201.242 83.4654 201.242C83.3994 201.242 83.334 201.255 83.2731 201.281C83.2122 201.306 83.1569 201.343 83.1104 201.39C83.0128 201.479 82.9492 201.599 82.9304 201.73L82.1004 207.15C81.8653 208.727 81.298 210.236 80.436 211.577C79.574 212.918 78.4371 214.061 77.1004 214.93L76.3804 215.38C76.3084 215.432 76.2501 215.501 76.2104 215.58C76.1705 215.661 76.1499 215.75 76.1504 215.84C76.15 215.927 76.1706 216.013 76.2104 216.09C76.2501 216.169 76.3084 216.238 76.3804 216.29L77.1004 216.75C78.4435 217.611 79.5832 218.754 80.4404 220.1C81.3062 221.437 81.8756 222.944 82.1104 224.52L82.9404 229.94C82.9614 230.067 83.0248 230.184 83.1204 230.27C83.2197 230.354 83.3454 230.4 83.4754 230.4C83.6054 230.4 83.7311 230.354 83.8304 230.27C83.926 230.184 83.9894 230.067 84.0104 229.94L84.8404 224.52C85.0604 222.94 85.6216 221.426 86.485 220.085C87.3484 218.743 88.4933 217.605 89.8404 216.75L90.5604 216.29C90.6324 216.238 90.6907 216.169 90.7304 216.09C90.7702 216.013 90.7908 215.927 90.7904 215.84C90.7909 215.75 90.7703 215.661 90.7304 215.58C90.6907 215.501 90.6324 215.432 90.5604 215.38L89.8504 214.93Z" fill="#FFE75C"/>
<path d="M136.33 136C134.22 138.12 133.52 146.36 133.52 146.36C133.52 146.36 141.77 145.67 143.89 143.56C144.83 142.611 145.383 141.345 145.44 140.01H139.91V134.47C138.567 134.515 137.29 135.061 136.33 136Z" fill="white"/>
<path fill-rule="evenodd" clip-rule="evenodd" d="M139.34 129.32L150.58 140.55L153.39 137.74L155.5 146.88L159.01 143.36V132.12L166.01 125.12C168.82 122.31 174.44 115.56 171.63 108.26C164.32 105.45 157.63 111.07 154.77 113.88L139.34 129.32ZM161.47 122.4C162.261 122.4 163.034 122.165 163.692 121.726C164.35 121.286 164.863 120.662 165.165 119.931C165.468 119.2 165.547 118.396 165.393 117.62C165.239 116.844 164.858 116.131 164.298 115.572C163.739 115.012 163.026 114.631 162.25 114.477C161.474 114.323 160.67 114.402 159.939 114.704C159.208 115.007 158.583 115.52 158.144 116.178C157.704 116.835 157.47 117.609 157.47 118.4C157.47 118.925 157.573 119.445 157.774 119.931C157.975 120.416 158.27 120.857 158.641 121.228C159.013 121.6 159.454 121.894 159.939 122.096C160.424 122.297 160.945 122.4 161.47 122.4Z" fill="white"/>
<path d="M147.77 120.88H136.53L133 124.4L142.13 126.5L147.77 120.88Z" fill="white"/>
<path d="M307.25 110H307.36C307.692 110.013 308.015 109.894 308.259 109.669C308.502 109.444 308.647 109.132 308.66 108.8C308.673 108.468 308.554 108.145 308.329 107.901C308.104 107.658 307.792 107.513 307.46 107.5C305.279 107.175 303.186 106.409 301.31 105.25C300.68 106.49 300.31 107.33 300.25 107.52C302.389 108.817 304.771 109.662 307.25 110Z" fill="#29CC7A"/>
<path d="M415 113L408.06 111.32C406.078 111.454 404.088 111.262 402.17 110.75C401.8 110.65 401.407 110.696 401.07 110.876C400.733 111.057 400.478 111.36 400.357 111.722C400.235 112.085 400.257 112.48 400.418 112.827C400.578 113.174 400.865 113.447 401.22 113.59C403.076 114.135 405.005 114.394 406.94 114.36C409.6 114.354 412.243 113.925 414.77 113.09C414.848 113.064 414.925 113.034 415 113Z" fill="black"/>
<defs>
<linearGradient id="paint0_linear_5139_90446" x1="315.84" y1="171.25" x2="315.84" y2="338.19" gradientUnits="userSpaceOnUse">
<stop stop-color="#FFE75C"/>
<stop offset="1" stop-color="#FFC619"/>
</linearGradient>
<linearGradient id="paint1_linear_5139_90446" x1="342.04" y1="83.9701" x2="317.1" y2="193.98" gradientUnits="userSpaceOnUse">
<stop offset="0.24" stop-color="#57F287"/>
<stop offset="0.66" stop-color="#29CC7A"/>
</linearGradient>
<linearGradient id="paint2_linear_5139_90446" x1="157.97" y1="252.28" x2="157.97" y2="52.71" gradientUnits="userSpaceOnUse">
<stop offset="0.29" stop-color="#5865F2"/>
<stop offset="0.51" stop-color="#5D6AF4"/>
<stop offset="0.76" stop-color="#6C77F8"/>
<stop offset="1" stop-color="#808AFF"/>
</linearGradient>
<linearGradient id="paint3_linear_5139_90446" x1="381.33" y1="216.6" x2="381.33" y2="284" gradientUnits="userSpaceOnUse">
<stop stop-color="#FFE75C"/>
<stop offset="1" stop-color="#FFC619"/>
</linearGradient>
<linearGradient id="paint4_linear_5139_90446" x1="344.16" y1="94.45" x2="344.16" y2="28.22" gradientUnits="userSpaceOnUse">
<stop stop-color="#66BCFF"/>
<stop offset="1" stop-color="#8CD9FF"/>
</linearGradient>
<linearGradient id="paint5_linear_5139_90446" x1="177.4" y1="13.3901" x2="177.4" y2="71.3501" gradientUnits="userSpaceOnUse">
<stop stop-color="#FFE75C"/>
<stop offset="1" stop-color="#FFC619"/>
</linearGradient>
<linearGradient id="paint6_linear_5139_90446" x1="414.16" y1="166.66" x2="430.73" y2="229.52" gradientUnits="userSpaceOnUse">
<stop offset="0.24" stop-color="#57F287"/>
<stop offset="0.66" stop-color="#29CC7A"/>
</linearGradient>
<linearGradient id="paint7_linear_5139_90446" x1="390.07" y1="147.77" x2="390.07" y2="168.19" gradientUnits="userSpaceOnUse">
<stop stop-color="#FFE75C"/>
<stop offset="1" stop-color="#FFC619"/>
</linearGradient>
</defs>
</svg>
