<svg xmlns="http://www.w3.org/2000/svg" width="12" height="12" viewBox="0 0 12 12">
  <g fill="none" fill-rule="evenodd">
    <path fill="#ffffff" fill-rule="nonzero" d="M11.2188235,9.86946119 C11.5927859,10.2414769 11.5927859,10.8470271 11.221074,11.2187371 C10.8483738,11.5933795 10.2435654,11.5933795 9.87004779,11.2198608 L5.9995452,7.34934743 L2.13079155,11.2187371 C1.75790497,11.5935668 1.15153102,11.5935668 0.779765298,11.2198608 C0.40693256,10.8470271 0.40693256,10.2414769 0.779765298,9.8705879 L4.65027211,6.00007027 L0.780894953,2.13067965 C0.406744284,1.75847664 0.406744284,1.1513563 0.778644434,0.781403783 C1.15153102,0.406574034 1.75790497,0.406574034 2.12970573,0.780315049 L5.99954533,4.65079328 L9.87004779,0.78028 C10.2435654,0.406761331 10.8483738,0.406761331 11.2188235,0.779153288 C11.5929742,1.1513563 11.5929742,1.75847664 11.2199532,2.12955294 L7.34944637,6.00007057 L11.2188235,9.86946119 Z"/>
    <polygon points="0 0 12 0 12 12 0 12"/>
  </g>
</svg>