<svg width="29" height="22" viewBox="0 0 29 22" fill="none" xmlns="http://www.w3.org/2000/svg">
  <g clip-path="url(#clip0_1896_20449)">
    <path d="M26 0H3C1.34315 0 0 1.34315 0 3V19C0 20.6569 1.34315 22 3 22H26C27.6569 22 29 20.6569 29 19V3C29 1.34315 27.6569 0 26 0Z" fill="#202225" fill-opacity="0.8"/>
    <path d="M8.01725 16.2054C7.17625 16.2054 6.43191 15.9879 5.78425 15.5529C5.13658 15.1179 4.63391 14.5089 4.27625 13.7259C3.91858 12.9333 3.73975 12.0246 3.73975 10.9999C3.73975 9.98493 3.92825 9.08593 4.30525 8.30293C4.69191 7.51993 5.24775 6.9061 5.97275 6.46143C6.70741 6.01677 7.58225 5.79443 8.59725 5.79443C9.45758 5.79443 10.2261 5.9781 10.9027 6.34543C11.5891 6.71277 12.1062 7.22993 12.4542 7.89693L10.8157 9.07143C10.3227 8.16277 9.58808 7.70843 8.61175 7.70843C7.72241 7.70843 7.04091 7.99843 6.56725 8.57843C6.09358 9.14877 5.85675 9.95593 5.85675 10.9999C5.85675 12.0536 6.09358 12.8656 6.56725 13.4359C7.04091 14.0063 7.72241 14.2914 8.61175 14.2914C9.00808 14.2914 9.37058 14.2189 9.69925 14.0739C10.0376 13.9193 10.2986 13.7114 10.4822 13.4504V12.2034H8.17675V10.3184H12.5412V16.0024H10.8302L10.5547 15.0454C9.98441 15.8188 9.13858 16.2054 8.01725 16.2054Z" fill="white"/>
    <path d="M16.5444 16.0024H14.4274V5.99743H16.5444V16.0024Z" fill="white"/>
    <path d="M20.6933 16.0024H18.5763V5.99743H25.2608V7.91143H20.6933V10.2894H24.4053V12.2034H20.6933V16.0024Z" fill="white"/>
  </g>
  <defs>
    <clipPath id="clip0_1896_20449">
      <rect width="29" height="22" fill="white"/>
    </clipPath>
  </defs>
</svg>
