<svg fill="none" height="80" viewBox="0 0 88 80" width="88" xmlns="http://www.w3.org/2000/svg"><rect fill="#e3e5e8" height="56" rx="8" width="56" x="16" y="12"/><path d="m44 23.3333c-9.19 0-16.6666 7.4784-16.6666 16.6667 0 9.1917 7.4766 16.6667 16.6666 16.6667s16.6667-7.475 16.6667-16.6667c0-9.1883-7.4767-16.6667-16.6667-16.6667zm0 27.0834c-1.15 0-2.0833-.9317-2.0833-2.0834 0-1.15.9333-2.0833 2.0833-2.0833s2.0834.9333 2.0834 2.0833c0 1.1517-.9334 2.0834-2.0834 2.0834zm1.6667-7.2917v1.875h-3.3333v-5h1.6666c1.84 0 3.3334-1.495 3.3334-3.3333 0-1.84-1.4934-3.3334-3.3334-3.3334s-3.3333 1.4934-3.3333 3.3334h-3.3333c0-3.675 2.9916-6.6667 6.6666-6.6667s6.6667 2.9917 6.6667 6.6667c0 3.1016-2.1283 5.715-5 6.4583z" fill="#4f5660"/><g fill="#5ae6dc"><path d="m83.0028 1.0838c0-.598567-.4852-1.0838-1.0838-1.0838s-1.0838.485233-1.0838 1.0838v1.10186c0 .59856.4852 1.0838 1.0838 1.0838s1.0838-.48524 1.0838-1.0838z"/><path d="m83.0028 9.81424c0-.59857-.4852-1.0838-1.0838-1.0838s-1.0838.48523-1.0838 1.0838v1.10186c0 .5986.4852 1.0838 1.0838 1.0838s1.0838-.4852 1.0838-1.0838z"/><path d="m86.9164 7.10531c.5986 0 1.0838-.48523 1.0838-1.0838 0-.59856-.4852-1.0838-1.0838-1.0838h-1.1018c-.5986 0-1.0838.48524-1.0838 1.0838 0 .59857.4852 1.0838 1.0838 1.0838z"/><path d="m78.1857 7.04525c.5986 0 1.0838-.48523 1.0838-1.0838 0-.59856-.4852-1.08379-1.0838-1.08379h-1.1018c-.5986 0-1.0838.48523-1.0838 1.08379 0 .59857.4852 1.0838 1.0838 1.0838z"/></g><path d="m8.36261 75.843 3.12339-1.0417c.1534-.0703.2834-.1832.3745-.3252.0911-.1421.1395-.3073.1395-.4761s-.0484-.334-.1395-.4761c-.0911-.142-.2211-.2549-.3745-.3252l-3.12339-1.0417c-.21336-.0964-.38423-.2673-.48054-.4808l-1.12123-3.1251c-.05266-.1603-.15458-.2999-.2912-.3989-.13662-.0989-.30098-.1522-.46965-.1522-.16866 0-.33301.0533-.46963.1522-.13662.099-.23854.2386-.2912.3989l-1.12123 3.1251c-.09631.2135-.26718.3844-.48054.4808l-3.123433 1.0417c-.153355.0703-.283314.1832-.374423.3252-.0911093.1421-.139534.3073-.139534.4761s.0484247.334.139534.4761c.091109.142.221068.2549.374423.3252l3.123433 1.0417c.11344.0344.21664.0963.30046.1802.08382.0838.14567.1871.18008.3006l1.12123 3.1251c.05266.1603.15458.2999.2912.3989.13662.0989.30097.1522.46963.1522.16867 0 .33303-.0533.46965-.1522.13662-.099.23854-.2386.2912-.3989l1.12123-3.1251c.03441-.1135.09627-.2168.18008-.3006.08382-.0839.18702-.1458.30046-.1802z" fill="#ffd01a"/></svg>