<svg xmlns="http://www.w3.org/2000/svg" width="85" height="85" viewBox="0 0 85 85">
  <g fill="none" fill-rule="evenodd">
    <path fill="#222426" d="M51.416,2.9485 C51.34,2.9485 51.263,2.9405 51.186,2.9225 C49.276,2.4725 47.312,2.1615 45.351,1.9965 C44.8,1.9505 44.392,1.4675 44.438,0.9165 C44.484,0.3665 44.954,-0.0435 45.519,0.0035 C47.577,0.1775 49.638,0.5035 51.644,0.9745 C52.182,1.1015 52.515,1.6395 52.389,2.1775 C52.28,2.6375 51.87,2.9485 51.416,2.9485 M30.443,3.4965 C30.01,3.4965 29.61,3.2125 29.483,2.7755 C29.329,2.2455 29.634,1.6905 30.164,1.5365 C32.144,0.9595 34.185,0.5265 36.23,0.2465 C36.772,0.1725 37.282,0.5535 37.356,1.1015 C37.431,1.6485 37.048,2.1535 36.501,2.2275 C34.553,2.4945 32.608,2.9075 30.723,3.4565 C30.629,3.4835 30.536,3.4965 30.443,3.4965 M65.192,9.0385 C64.997,9.0385 64.799,8.9815 64.626,8.8625 C63.008,7.7495 61.291,6.7495 59.524,5.8885 C59.027,5.6465 58.821,5.0485 59.063,4.5515 C59.305,4.0545 59.904,3.8485 60.4,4.0905 C62.256,4.9945 64.059,6.0455 65.759,7.2145 C66.214,7.5275 66.33,8.1495 66.017,8.6045 C65.823,8.8865 65.51,9.0385 65.192,9.0385 M17.009,10.3045 C16.709,10.3045 16.413,10.1705 16.216,9.9135 C15.879,9.4755 15.962,8.8475 16.4,8.5115 C18.038,7.2535 19.783,6.1085 21.586,5.1085 C22.068,4.8395 22.678,5.0155 22.945,5.4985 C23.213,5.9815 23.039,6.5905 22.556,6.8575 C20.839,7.8095 19.178,8.8995 17.618,10.0975 C17.437,10.2375 17.222,10.3045 17.009,10.3045 M75.835,19.7045 C75.516,19.7045 75.203,19.5525 75.009,19.2685 C73.903,17.6515 72.663,16.0985 71.322,14.6545 C70.947,14.2485 70.971,13.6165 71.375,13.2405 C71.78,12.8655 72.413,12.8885 72.789,13.2935 C74.196,14.8105 75.499,16.4415 76.66,18.1395 C76.972,18.5955 76.855,19.2185 76.399,19.5305 C76.227,19.6475 76.03,19.7045 75.835,19.7045 M6.932,21.5055 C6.754,21.5055 6.574,21.4575 6.411,21.3585 C5.939,21.0705 5.791,20.4545 6.08,19.9835 C7.154,18.2275 8.371,16.5325 9.698,14.9465 C10.052,14.5225 10.683,14.4665 11.106,14.8215 C11.53,15.1755 11.586,15.8055 11.232,16.2295 C9.968,17.7405 8.809,19.3545 7.786,21.0275 C7.597,21.3355 7.269,21.5055 6.932,21.5055 M81.891,33.4935 C81.436,33.4935 81.025,33.1815 80.917,32.7205 C80.472,30.8045 79.88,28.9075 79.158,27.0815 C78.956,26.5685 79.207,25.9875 79.721,25.7835 C80.235,25.5815 80.815,25.8335 81.019,26.3465 C81.776,28.2635 82.398,30.2555 82.866,32.2675 C82.991,32.8055 82.656,33.3435 82.118,33.4685 C82.042,33.4855 81.966,33.4935 81.891,33.4935 M1.598,35.5915 C1.541,35.5915 1.481,35.5865 1.422,35.5755 C0.878,35.4795 0.516,34.9605 0.613,34.4165 C0.974,32.3795 1.491,30.3575 2.147,28.4055 C2.323,27.8825 2.889,27.5975 3.414,27.7765 C3.937,27.9525 4.219,28.5195 4.043,29.0435 C3.417,30.9015 2.926,32.8265 2.582,34.7655 C2.496,35.2505 2.074,35.5915 1.598,35.5915 M82.571,48.5445 C82.525,48.5445 82.478,48.5415 82.432,48.5345 C81.885,48.4585 81.503,47.9535 81.579,47.4065 C81.834,45.5715 81.963,43.7005 81.963,41.8465 L81.962,41.5105 C81.957,40.9585 82.401,40.5075 82.954,40.5025 C83.495,40.4825 83.957,40.9415 83.962,41.4935 L83.963,41.8465 C83.963,43.7925 83.828,45.7565 83.56,47.6815 C83.49,48.1825 83.062,48.5445 82.571,48.5445 M1.699,50.6585 C1.229,50.6585 0.81,50.3255 0.718,49.8465 C0.331,47.8295 0.09,45.7565 0.001,43.6865 C-0.023,43.1355 0.405,42.6685 0.957,42.6445 C1.513,42.6235 1.976,43.0495 1.999,43.6005 C2.084,45.5735 2.313,47.5485 2.682,49.4695 C2.786,50.0125 2.431,50.5365 1.889,50.6405 C1.825,50.6525 1.762,50.6585 1.699,50.6585 M77.788,62.8295 C77.624,62.8295 77.456,62.7895 77.302,62.7035 C76.82,62.4345 76.646,61.8255 76.916,61.3435 C77.871,59.6285 78.707,57.8265 79.399,55.9855 C79.594,55.4685 80.169,55.2075 80.687,55.4015 C81.205,55.5955 81.466,56.1725 81.271,56.6895 C80.544,58.6225 79.666,60.5165 78.663,62.3165 C78.479,62.6445 78.139,62.8295 77.788,62.8295 M7.232,64.6675 C6.9,64.6675 6.576,64.5025 6.386,64.2015 C5.284,62.4545 4.305,60.6105 3.476,58.7225 C3.254,58.2165 3.484,57.6265 3.99,57.4055 C4.496,57.1825 5.085,57.4125 5.307,57.9185 C6.096,59.7165 7.028,61.4705 8.077,63.1345 C8.372,63.6015 8.232,64.2195 7.765,64.5135 C7.6,64.6175 7.415,64.6675 7.232,64.6675 M68.155,74.4135 C67.868,74.4135 67.583,74.2905 67.386,74.0525 C67.033,73.6275 67.091,72.9965 67.516,72.6445 C68.465,71.8555 69.39,71.0125 70.263,70.1375 C70.784,69.6175 71.287,69.0865 71.772,68.5455 C72.141,68.1345 72.773,68.0995 73.185,68.4695 C73.596,68.8385 73.63,69.4705 73.261,69.8815 C72.751,70.4485 72.224,71.0065 71.678,71.5525 C70.761,72.4695 69.79,73.3545 68.794,74.1825 C68.607,74.3375 68.38,74.4135 68.155,74.4135 M17.556,75.8015 C17.349,75.8015 17.14,75.7375 16.961,75.6045 C15.31,74.3795 13.73,73.0155 12.266,71.5525 L12.181,71.4665 C11.791,71.0755 11.791,70.4435 12.181,70.0525 C12.572,69.6615 13.205,69.6615 13.595,70.0525 L13.686,70.1435 C15.075,71.5325 16.58,72.8315 18.152,73.9985 C18.596,74.3275 18.689,74.9535 18.36,75.3975 C18.164,75.6615 17.862,75.8015 17.556,75.8015 M54.992,81.7315 C54.573,81.7315 54.183,81.4665 54.043,81.0475 C53.869,80.5235 54.152,79.9565 54.676,79.7825 C56.542,79.1605 58.376,78.3945 60.125,77.5055 C60.617,77.2565 61.22,77.4525 61.47,77.9445 C61.72,78.4365 61.523,79.0385 61.031,79.2885 C59.194,80.2225 57.269,81.0275 55.308,81.6795 C55.203,81.7155 55.096,81.7315 54.992,81.7315 M31.108,82.3835 C31.021,82.3835 30.933,82.3715 30.844,82.3475 C28.853,81.8045 26.886,81.1075 24.998,80.2765 C24.492,80.0535 24.263,79.4635 24.485,78.9585 C24.708,78.4525 25.299,78.2235 25.803,78.4465 C27.602,79.2375 29.475,79.9015 31.371,80.4185 C31.903,80.5635 32.217,81.1135 32.072,81.6465 C31.951,82.0915 31.548,82.3835 31.108,82.3835 M41.941,83.8375 C41.303,83.8375 40.663,83.8225 40.023,83.7935 C39.472,83.7675 39.045,83.2995 39.07,82.7475 C39.096,82.1965 39.576,81.7805 40.115,81.7955 C40.734,81.8235 41.356,81.8365 41.971,81.8375 C43.321,81.8375 44.684,81.7695 46.021,81.6345 C46.579,81.5795 47.061,81.9805 47.117,82.5285 C47.172,83.0785 46.771,83.5685 46.222,83.6245 C44.808,83.7665 43.407,83.8485 41.941,83.8375"/>
    <path fill="#72767D" d="M61.5171 37.1462C60.6571 33.5502 58.8121 30.2602 56.1841 27.6312 48.3461 19.7932 35.5921 19.7932 27.7541 27.6312 23.9571 31.4282 21.8661 36.4772 21.8661 41.8462 21.8661 47.2162 23.9571 52.2642 27.7541 56.0612 35.5921 63.8992 48.3461 63.8992 56.1841 56.0612 58.4661 53.7782 60.1221 51.0742 61.1031 48.0232 61.2681 47.5112 61.8051 47.2302 62.3201 47.3722 63.1581 44.2752 63.2921 41.0282 62.6951 37.8872 62.1631 37.9962 61.6431 37.6742 61.5171 37.1462M68.7207 65.9348L63.9977 61.2128C63.5857 61.6818 63.1617 62.1438 62.7137 62.5918 62.2657 63.0388 61.8037 63.4628 61.3347 63.8758L66.0567 68.5988 68.7207 65.9348z"/>
    <polygon fill="#2E3136" points="72.173 65.31 65.432 72.051 76.251 82.87 82.992 76.128"/>
    <path fill="#222426" d="M62.7139,62.5916 C62.7179,62.5876 62.7229,62.5826 62.7269,62.5776 C63.4509,61.8536 64.6139,61.8286 65.3379,62.5526 L67.4279,64.6416 C68.1419,65.3566 68.1419,66.5136 67.4279,67.2276 L67.3499,67.3056 C66.6359,68.0196 65.4789,68.0196 64.7639,67.3056 L62.6739,65.2156 C61.9509,64.4916 61.9759,63.3286 62.6999,62.6056 L62.7139,62.5916 Z M61.2999,22.5156 C71.9589,33.1746 71.9589,50.5186 61.2999,61.1776 C50.6409,71.8366 33.2969,71.8366 22.6379,61.1776 C17.4739,56.0136 14.6309,49.1486 14.6309,41.8466 C14.6309,34.5446 17.4739,27.6786 22.6379,22.5156 C33.2969,11.8566 50.6399,11.8566 61.2999,22.5156 Z M66.1489,71.3356 L71.4579,66.0266 C71.8529,65.6306 72.4939,65.6306 72.8889,66.0266 L80.8629,74.0006 C82.0389,75.1756 82.0389,77.0816 80.8629,78.2576 L78.3799,80.7416 C77.2039,81.9166 75.2979,81.9166 74.1229,80.7416 L66.1489,72.7676 C65.7529,72.3716 65.7529,71.7316 66.1489,71.3356 Z M71.1399,63.5156 C70.5849,64.0706 69.6849,64.0706 69.1299,63.5166 L66.3969,60.7836 C65.7679,60.1536 65.6609,59.1616 66.1649,58.4276 C74.5149,46.2546 72.6619,29.1376 60.5879,19.1696 C50.2059,10.5976 32.7389,10.8836 22.6329,19.7786 C15.2019,26.3206 11.5889,35.8896 12.8919,45.8336 C13.5049,50.5066 15.2729,54.9886 18.0219,58.8166 C23.9379,67.0536 32.9539,71.1706 41.9689,71.1706 C47.7759,71.1706 53.5789,69.4556 58.5579,66.0376 C59.2889,65.5356 60.2789,65.6486 60.9069,66.2766 L63.6389,69.0086 C64.1929,69.5626 64.1929,70.4626 63.6389,71.0176 C63.0679,71.5886 63.0679,72.5146 63.6389,73.0856 L74.4339,83.8816 C75.4379,84.8846 77.0649,84.8846 78.0679,83.8816 L84.0039,77.9456 C85.0069,76.9426 85.0069,75.3156 84.0039,74.3116 L73.2069,63.5156 C72.6359,62.9456 71.7109,62.9456 71.1399,63.5156 Z"/>
    <path fill="#4F545C" d="M26.3398,26.2175 C34.9578,17.5995 48.9798,17.5995 57.5978,26.2175 C60.4878,29.1075 62.5158,32.7255 63.4628,36.6805 C63.5908,37.2175 63.2598,37.7575 62.7228,37.8855 C62.7138,37.8875 62.7048,37.8845 62.6948,37.8865 C63.2928,41.0285 63.1578,44.2755 62.3198,47.3725 C62.3338,47.3765 62.3478,47.3725 62.3618,47.3775 C62.8878,47.5465 63.1768,48.1105 63.0078,48.6355 C61.9278,51.9915 60.1078,54.9665 57.5978,57.4755 C53.2888,61.7835 47.6278,63.9385 41.9688,63.9385 C36.3078,63.9385 30.6498,61.7845 26.3398,57.4755 C22.1648,53.3005 19.8658,47.7505 19.8658,41.8465 C19.8658,35.9425 22.1648,30.3925 26.3398,26.2175 M22.6378,61.1775 C33.2968,71.8365 50.6408,71.8365 61.2998,61.1775 C71.9588,50.5185 71.9588,33.1745 61.2998,22.5155 C50.6398,11.8565 33.2968,11.8565 22.6378,22.5155 C17.4738,27.6785 14.6308,34.5445 14.6308,41.8465 C14.6308,49.1485 17.4738,56.0135 22.6378,61.1775"/>
    <path fill="#4F545C" d="M26.3398,26.2175 C34.9578,17.5995 48.9798,17.5995 57.5978,26.2175 C60.4878,29.1075 62.5158,32.7255 63.4628,36.6805 C63.5908,37.2175 63.2598,37.7575 62.7228,37.8855 C62.7138,37.8875 62.7048,37.8845 62.6948,37.8865 C63.2928,41.0285 63.1578,44.2755 62.3198,47.3725 C62.3338,47.3765 62.3478,47.3725 62.3618,47.3775 C62.8878,47.5465 63.1768,48.1105 63.0078,48.6355 C61.9278,51.9915 60.1078,54.9665 57.5978,57.4755 C53.2888,61.7835 47.6278,63.9385 41.9688,63.9385 C36.3078,63.9385 30.6498,61.7845 26.3398,57.4755 C22.1648,53.3005 19.8658,47.7505 19.8658,41.8465 C19.8658,35.9425 22.1648,30.3925 26.3398,26.2175 M22.6378,61.1775 C33.2968,71.8365 50.6408,71.8365 61.2998,61.1775 C71.9588,50.5185 71.9588,33.1745 61.2998,22.5155 C50.6398,11.8565 33.2968,11.8565 22.6378,22.5155 C17.4738,27.6785 14.6308,34.5445 14.6308,41.8465 C14.6308,49.1485 17.4738,56.0135 22.6378,61.1775"/>
    <path fill="#222426" d="M26.3398,57.4753 C30.6498,61.7853 36.3078,63.9383 41.9688,63.9383 C47.6278,63.9383 53.2888,61.7843 57.5978,57.4753 C60.1078,54.9663 61.9278,51.9923 63.0078,48.6353 C63.1768,48.1103 62.8878,47.5463 62.3618,47.3773 C62.3478,47.3723 62.3338,47.3763 62.3198,47.3723 C61.8048,47.2303 61.2688,47.5113 61.1038,48.0233 C60.1218,51.0743 58.4658,53.7783 56.1838,56.0613 C48.3458,63.8993 35.5918,63.8993 27.7538,56.0613 C23.9568,52.2643 21.8658,47.2163 21.8658,41.8463 C21.8658,36.4763 23.9568,31.4283 27.7538,27.6313 C35.5918,19.7933 48.3458,19.7933 56.1838,27.6313 C58.8128,30.2603 60.6568,33.5503 61.5168,37.1463 C61.6428,37.6743 62.1638,37.9963 62.6948,37.8873 C62.7048,37.8853 62.7138,37.8883 62.7228,37.8863 C63.2598,37.7573 63.5908,37.2173 63.4628,36.6803 C62.5158,32.7253 60.4878,29.1073 57.5978,26.2173 C48.9798,17.5993 34.9578,17.5993 26.3398,26.2173 C22.1648,30.3923 19.8658,35.9423 19.8658,41.8463 C19.8658,47.7503 22.1648,53.3013 26.3398,57.4753"/>
  </g>
</svg>
