<svg xmlns="http://www.w3.org/2000/svg" viewBox="0 0 40 40">
  <path d="M20 0A20 20 0 0 0 .76 14.57h38.48A20 20 0 0 0 20 0zM39.24 14.57H.76A20.34 20.34 0 0 0 0 20a19.56 19.56 0 0 0 .9 5.93A19.35 19.35 0 0 0 2 28.69a20.14 20.14 0 0 0 3 4.53h30A19.88 19.88 0 0 0 40 20a20.34 20.34 0 0 0-.76-5.43z" fill="#202225"/>
  <path d="M26.28 25.16h5a1 1 0 1 0 0-2h-5zM36 32a1.93 1.93 0 0 0-.7-.6 2 2 0 0 0-.9-.22h-2v-2a3 3 0 0 0-3-3h-4.63v7.06H35c.32-.41.64-.81 1-1.24z" fill="#7196ff"/>
  <path d="M12.9 19.61h10.65a5.76 5.76 0 0 0 5.76-5.76V9.24a5.76 5.76 0 0 0-5.76-5.76H12.9a5.76 5.76 0 0 0-5.76 5.76v4.61a5.76 5.76 0 0 0 5.76 5.76z" fill="#567ef7"/>
  <path d="M15.66 19.61h10.65a5.76 5.76 0 0 0 5.76-5.76V9.24a5.76 5.76 0 0 0-5.76-5.76H15.66A5.76 5.76 0 0 0 9.9 9.24v4.61a5.76 5.76 0 0 0 5.76 5.76z" fill="#7196ff"/>
  <path d="M29.51 16.84h-4.43a4.58 4.58 0 0 1-4.59-4.59V9.8a1.52 1.52 0 0 1 .12-.59 1.54 1.54 0 0 1 .82-.82 1.52 1.52 0 0 1 .57-.12h10.08a1.52 1.52 0 0 1 .59.12 1.54 1.54 0 0 1 .82.82 1.52 1.52 0 0 1 .12.59v3a4.08 4.08 0 0 1-4.1 4z" fill="#aec7ff"/>
  <path d="M16.46 12.56A1.51 1.51 0 1 0 15 11.05a1.52 1.52 0 0 0 1.46 1.51z" fill="#202225"/>
  <path d="M29.51 14.7h1.62a.45.45 0 0 0 .45-.45v-.36a.45.45 0 0 0-.45-.45h-1.62a.45.45 0 0 0-.45.45v.36a.45.45 0 0 0 .45.45zM25.25 14.7h2.12a.45.45 0 0 0 .45-.45v-.36a.45.45 0 0 0-.45-.45h-2.12a.45.45 0 0 0-.45.45v.36a.45.45 0 0 0 .45.45z" fill="#7196ff"/>
  <path d="M25.53 33.22h-12.1V19.61h9.94a5.94 5.94 0 0 1 5.94 5.94v3.89a3.79 3.79 0 0 1-.31 1.45 3.82 3.82 0 0 1-2 2 3.79 3.79 0 0 1-1.45.29z" fill="#aec7ff"/>
  <path d="M5.59 29.44a.2.2 0 0 1-.14.25h-.11l-3.19-.93-.15-.07a18.24 18.24 0 0 1-1.1-2.76 1.87 1.87 0 0 1 .38-.55 2 2 0 0 1 .66-.44 2 2 0 0 1 .77-.15h.16a2.1 2.1 0 0 1 1.13.46 2.07 2.07 0 0 1 .67 1zM10.91 16.09h-3A3.07 3.07 0 0 1 4.85 13v-2.39a3.07 3.07 0 0 1 3.06-3.06h3v8.54z" fill="#7196ff"/>
  <path d="M9.65 14.61h-1a2 2 0 0 1-2-2V11a2 2 0 0 1 2-2h1v5.6z" fill="#aec7ff"/>
  <path d="M31.72 22.7l-1 2.39a3 3 0 0 1-2.54 1.66 1.61 1.61 0 0 1-.85-.24 1.57 1.57 0 0 1-.61-.64 1.44 1.44 0 0 0-.36-.42 1.23 1.23 0 0 0-.49-.23 1.28 1.28 0 0 0-.55 0 1.18 1.18 0 0 0-.5.22l-.69.5a4.1 4.1 0 0 1-2.46.81h-.73a1.13 1.13 0 0 1-.6-.09 1.12 1.12 0 0 1-.46-.4 1.2 1.2 0 0 1-.18-.58 1.11 1.11 0 0 1 .16-.59l1.05-2.39a3 3 0 0 1 1-1.19A3.05 3.05 0 0 1 23.4 21h7.24a1.1 1.1 0 0 1 .62.09 1.06 1.06 0 0 1 .48.41 1.16 1.16 0 0 1 .17.6 1.18 1.18 0 0 1-.19.6z" fill="#fff"/>
  <path d="M11.17 19.61h3.77a3 3 0 0 1 3 3v.5h3.48a1 1 0 0 1 1 .91 1 1 0 0 1 0 .42 1.31 1.31 0 0 1-.21.36 1 1 0 0 1-.34.24 1 1 0 0 1-.41.09h-7v1h.5a3 3 0 0 1 3 3v2h3a2 2 0 0 1 2 2h-12.9a2.94 2.94 0 0 1-2.93-2.93v-6.56a4.11 4.11 0 0 1 .3-1.55 4 4 0 0 1 2.19-2.18 3.93 3.93 0 0 1 1.55-.3z" fill="#7196ff"/>
  <path d="M23.76 21.64h-.27a.34.34 0 0 0-.34.34v.76a.34.34 0 0 0 .34.34h.27a.34.34 0 0 0 .34-.34V22a.34.34 0 0 0-.34-.36zM30.9 21.64h-.27a.34.34 0 0 0-.34.34v.76a.34.34 0 0 0 .34.34h.27a.34.34 0 0 0 .34-.34V22a.34.34 0 0 0-.34-.36z" fill="#b2c1d1"/>
  <path d="M28.54 22.63h-2.12a.93.93 0 0 0-.52.15 1 1 0 0 0-.37.41l-.08.15a.39.39 0 0 0 0 .21.37.37 0 0 0 .06.21.57.57 0 0 0 .16.15.5.5 0 0 0 .21.05H28a1 1 0 0 0 .53-.15 1 1 0 0 0 .37-.41l.07-.16A.41.41 0 0 0 29 23a.39.39 0 0 0-.08-.21.39.39 0 0 0-.17-.14.41.41 0 0 0-.21-.02z" fill="#ff73fa"/>
  <path d="M14.47 27.47l-.12-1.15a1.64 1.64 0 0 0-.21-.68 1.8 1.8 0 0 0-.45-.54 1.73 1.73 0 0 0-.63-.33 1.7 1.7 0 0 0-.71-.06 1.64 1.64 0 0 0-.68.21 1.8 1.8 0 0 0-.54.45 1.73 1.73 0 0 0-.33.63 1.7 1.7 0 0 0-.06.71l.11 1.14a2.37 2.37 0 0 1-.36 1.51 2.89 2.89 0 0 0-.2 2.64 2.91 2.91 0 0 0 .81 1.09 2.82 2.82 0 0 0 1.22.61 2.85 2.85 0 0 0 1.36 0 3 3 0 0 0 1.2-.63 2.91 2.91 0 0 0 .78-1.11 2.88 2.88 0 0 0-.58-3 2.37 2.37 0 0 1-.61-1.43z"/>
  <path d="M14.2 29.64a.41.41 0 0 1-.24-.08.41.41 0 0 1-.17-.26.42.42 0 0 1 .07-.31l1.86-2.69a.41.41 0 0 1 .27-.17.42.42 0 0 1 .31.06.41.41 0 0 1 .17.27.42.42 0 0 1-.07.31l-1.86 2.69a.47.47 0 0 1-.15.13.41.41 0 0 1-.19.05z"/>
  <path d="M20 40a20 20 0 0 0 15-6.78H5A20 20 0 0 0 20 40z" fill="#dae1ea"/>
  <path d="M14.6 36.42a.39.39 0 0 1-.27-.1.42.42 0 0 1-.14-.24L14 34.91c-.29-1.44-.39-1.71-1.83-1.71a.41.41 0 0 1-.41-.41.45.45 0 0 1 0-.16.42.42 0 0 1 .09-.14.3.3 0 0 1 .15-.09.45.45 0 0 1 .16 0c2 0 2.3.69 2.64 2.39l.2 1.14a.43.43 0 0 1 0 .16.35.35 0 0 1-.07.15.32.32 0 0 1-.12.11.39.39 0 0 1-.15.06z"/>
  <path d="M17.16 35.71a.44.44 0 0 1-.25-.08.45.45 0 0 1-.15-.21c-.59-1.9-1.15-2.22-2.56-2.22a.41.41 0 0 1-.41-.41.45.45 0 0 1 0-.16.42.42 0 0 1 .09-.14.3.3 0 0 1 .12-.09.45.45 0 0 1 .16 0c1.88 0 2.69.69 3.35 2.81a.36.36 0 0 1 0 .31.41.41 0 0 1-.1.13.37.37 0 0 1-.14.07.25.25 0 0 1-.11-.01zM9.07 33.58H9a.37.37 0 0 1-.14-.07.32.32 0 0 1-.11-.12.36.36 0 0 1 0-.31 7.14 7.14 0 0 1 2-3.37.37.37 0 0 1 .14-.07.45.45 0 0 1 .16 0 .33.33 0 0 1 .15.05.4.4 0 0 1 .12.1.55.55 0 0 1 .08.15.81.81 0 0 1 0 .16.88.88 0 0 1-.05.15.43.43 0 0 1-.11.12 6.67 6.67 0 0 0-1.79 2.93.43.43 0 0 1-.15.2.38.38 0 0 1-.23.08z"/>
</svg>
