<svg width="417" height="201" viewBox="0 0 417 201" fill="none" xmlns="http://www.w3.org/2000/svg">
<path opacity="0.2" d="M517 215H369C369 202.024 380.096 191.61 393.923 191.61H420.894C423.284 191.61 425.161 189.902 425.161 187.512C425.161 171.805 438.647 159 455.376 159H456.571C473.3 159 486.785 171.805 486.785 187.512V196.049C486.956 200.659 490.882 204.244 495.491 204.244H505.392C511.537 203.902 516.829 208.854 517 215Z" fill="white"/>
<path opacity="0.4" d="M378 116H463C462.867 107.683 455.961 100.925 447.328 100.925H438.297C436.836 100.925 435.641 99.7552 435.641 98.3257C435.508 88.1889 427.008 80.0015 416.648 80.0015H415.852C405.492 79.8716 396.992 88.0589 396.859 98.3257V103.784C396.859 106.643 394.336 108.982 391.414 108.982H385.172C381.32 108.982 378.133 112.101 378 116Z" fill="white"/>
<path opacity="0.3" d="M121.532 52.0827C121.532 47.6654 118.332 44 114.379 44H106.943C102.989 44 99.7891 47.5714 99.7891 52.0827C99.7891 52.9286 99.2243 53.6805 98.3772 53.6805H96.1182C92.7296 53.6805 90 56.782 90 60.5414H131.415C131.415 57.5339 129.25 54.9963 126.521 54.9963H124.262C122.662 54.9963 121.438 53.6805 121.532 52.0827C121.532 52.1767 121.532 52.0827 121.532 52.0827Z" fill="white"/>
<path opacity="0.2" d="M353.341 150.17C353.341 142.426 347.623 136 340.559 136H327.273C320.209 136 314.491 142.261 314.491 150.17C314.491 151.653 313.482 152.972 311.968 152.972H307.932C301.877 152.972 297 158.409 297 165H371C371 159.727 367.132 155.278 362.255 155.278H358.218C355.359 155.278 353.173 152.972 353.341 150.17C353.341 150.335 353.341 150.17 353.341 150.17Z" fill="white"/>
<path opacity="0.4" d="M231.205 187.216C231.205 180.54 226.414 175 220.495 175H209.364C203.445 175 198.655 180.398 198.655 187.216C198.655 188.494 197.809 189.631 196.541 189.631H193.159C188.086 189.631 184 194.318 184 200H246C246 195.455 242.759 191.619 238.673 191.619H235.291C232.895 191.619 231.064 189.631 231.205 187.216Z" fill="white"/>
<path opacity="0.2" d="M41.4154 124.703H0C0.0941258 120.943 3.20028 118.03 6.96531 118.124H14.4954C15.1543 118.124 15.719 117.654 15.719 116.996C15.8131 112.485 19.6723 108.913 24.1903 109.007H24.5668C29.0849 108.819 32.8499 112.391 33.0382 116.996V119.345C33.0382 120.661 34.1677 121.695 35.4854 121.601H38.2151C39.9093 121.507 41.3212 122.823 41.4154 124.703C41.4154 124.609 41.4154 124.609 41.4154 124.703Z" fill="white"/>
<path opacity="0.2" d="M81.4154 154.703H40C40.0941 150.943 43.2003 148.03 46.9653 148.124H54.4954C55.1543 148.124 55.719 147.654 55.719 146.996C55.8131 142.485 59.6723 138.913 64.1903 139.007H64.5668C69.0849 138.819 72.8499 142.391 73.0382 146.996V149.345C73.0382 150.661 74.1677 151.695 75.4854 151.601H78.2151C79.9093 151.507 81.3212 152.823 81.4154 154.703C81.4154 154.609 81.4154 154.609 81.4154 154.703Z" fill="white"/>
<path opacity="0.2" d="M353 39H220C220 27.8781 229.971 18.9512 242.397 18.9512H266.634C268.782 18.9512 270.469 17.4878 270.469 15.439C270.469 1.97563 282.588 -9 297.622 -9H298.695C313.729 -9 325.848 1.97563 325.848 15.439V22.7561C326.001 26.7073 329.529 29.7805 333.671 29.7805H342.569C348.091 29.4878 352.847 33.7317 353 39Z" fill="white"/>
<path fill-rule="evenodd" clip-rule="evenodd" d="M202.242 67.2011L261.21 45.6174L251.318 64.9987C249.394 68.7978 246.097 71.716 242.14 73.1476L195.207 90.3815L193.559 85.9216L202.242 67.2011Z" fill="#DAE2ED"/>
<path fill-rule="evenodd" clip-rule="evenodd" d="M188.726 65.218L267.094 36.5316C267.423 36.4214 267.753 36.5866 267.863 36.8619C267.918 37.0271 267.918 37.1923 267.863 37.3024L264.84 43.4141C264.511 44.1299 263.906 44.6254 263.192 44.9007L261.268 45.6165L202.245 67.2002L193.562 85.9207L195.155 90.3806L196.365 93.7393L176.635 100.952L173.777 93.1336L185.318 68.3014C186.033 66.8698 187.242 65.7686 188.726 65.218Z" fill="#ECEFF6"/>
<path fill-rule="evenodd" clip-rule="evenodd" d="M193.613 85.9216L202.296 67.2011L261.265 45.6174L259.286 49.5267L204.385 69.6238L196.361 86.9678L197.35 89.6107L195.262 90.3265L193.613 85.9216Z" fill="#C5CEDD"/>
<path fill-rule="evenodd" clip-rule="evenodd" d="M171.577 84.3233C162.674 103.209 170.698 125.729 189.548 134.704C208.398 143.678 230.875 135.585 239.833 116.699C248.791 97.8131 240.712 75.2934 221.862 66.3185C202.957 57.5089 180.535 65.5477 171.577 84.3233Z" fill="#4F5D7F"/>
<path fill-rule="evenodd" clip-rule="evenodd" d="M183.502 90.0485C177.731 102.327 182.952 116.973 195.207 122.754C207.463 128.536 222.081 123.305 227.852 111.027C233.622 98.748 228.401 84.102 216.146 78.3206C203.945 72.5944 189.382 77.8251 183.502 90.0485Z" fill="#7687B2"/>
<path fill-rule="evenodd" clip-rule="evenodd" d="M180.481 70.612C180.426 76.3934 195.594 90.5439 205.541 98.3625C214.719 98.4175 237.471 97.4815 242.801 92.2508C243.296 91.8103 243.626 91.2046 243.681 90.5439C243.681 90.3237 243.626 90.1034 243.571 89.8832C240.383 78.4857 232.909 69.5108 222.577 64.6105C209.553 58.3886 194.055 60.1506 181.085 69.2906C180.7 69.5659 180.481 70.0614 180.481 70.612Z" fill="#FF7F14"/>
<path fill-rule="evenodd" clip-rule="evenodd" d="M204.881 100.291C204.881 100.291 241.152 78.4871 237.47 73.9722C233.678 69.292 228.842 65.4928 223.401 62.905C208.728 55.9123 192.515 58.9407 180.04 67.7503C171.247 73.9722 204.881 100.291 204.881 100.291Z" fill="#FF903E"/>
<path fill-rule="evenodd" clip-rule="evenodd" d="M186.911 91.6484C182.02 102.055 186.416 114.443 196.803 119.344C207.19 124.244 219.555 119.839 224.446 109.433C229.337 99.0265 224.941 86.6379 214.554 81.7375C204.167 76.8922 191.857 81.297 186.911 91.6484Z" fill="#EBEFF7"/>
<path fill-rule="evenodd" clip-rule="evenodd" d="M189.932 93.0784C185.81 101.833 189.547 112.239 198.23 116.369C206.914 120.498 217.355 116.754 221.477 108.055C225.599 99.3553 221.862 88.8938 213.179 84.7643C204.441 80.6347 194.054 84.3788 189.932 93.0784Z" fill="#DAE2ED"/>
<path fill-rule="evenodd" clip-rule="evenodd" d="M216.092 93.1337L206.64 87.4624C206.035 87.1321 205.321 87.1321 204.771 87.4624L195.154 92.8584C194.549 93.1887 194.165 93.8494 194.165 94.5102L194.055 105.577C194.055 106.238 194.384 106.899 194.989 107.229L204.441 112.9C205.046 113.231 205.76 113.231 206.31 112.9L215.927 107.449C216.532 107.119 216.917 106.458 216.917 105.798L217.027 94.7304C217.027 94.1247 216.642 93.464 216.092 93.1337Z" fill="#C5CEDD"/>
<path fill-rule="evenodd" clip-rule="evenodd" d="M200.21 97.9782C198.781 101.007 200.1 104.585 203.123 106.017C206.145 107.449 209.717 106.127 211.146 103.099C212.575 100.07 211.256 96.4916 208.289 95.06C205.266 93.6835 201.639 94.9499 200.21 97.9782Z" fill="#B7C2CE"/>
<path fill-rule="evenodd" clip-rule="evenodd" d="M158.609 136.302H161.906C162.731 136.302 163.445 136.962 163.445 137.843V144.726C163.39 146.598 164.819 148.195 166.743 148.305C168.666 148.415 170.205 146.928 170.315 145.001C170.315 144.891 170.315 144.836 170.315 144.726V115.764C170.315 113.672 168.666 111.91 166.523 111.91C166.523 111.91 166.523 111.91 166.468 111.91H154.817C152.729 111.91 151.025 113.617 151.025 115.709C151.025 115.709 151.025 115.709 151.025 115.764V128.648C150.97 132.888 154.377 136.302 158.609 136.302ZM150.695 99.6864H157.29C157.29 102.109 157.29 104.532 157.29 106.954H150.805C150.86 104.587 150.86 102.109 150.695 99.6864Z" fill="#7196FF"/>
<path fill-rule="evenodd" clip-rule="evenodd" d="M153.056 115.544H180.864C181.194 115.544 181.468 115.268 181.468 114.938C181.468 114.608 181.194 114.332 180.864 114.332H153.056C152.726 114.332 152.451 114.057 152.451 113.727V109.267C152.451 108.936 152.176 108.661 151.847 108.661C151.517 108.661 151.242 108.936 151.242 109.267V113.727C151.297 114.718 152.067 115.544 153.056 115.544Z" fill="#E4E9F7"/>
<path fill-rule="evenodd" clip-rule="evenodd" d="M149.815 111.966H153.937C154.267 111.966 154.542 111.69 154.542 111.36V98.5859C154.542 98.2555 154.267 97.9802 153.937 97.9802H149.815C149.486 97.9802 149.211 98.2555 149.211 98.5859V111.36C149.211 111.69 149.431 111.966 149.815 111.966C149.761 111.966 149.761 111.966 149.815 111.966Z" fill="black"/>
<path fill-rule="evenodd" clip-rule="evenodd" d="M150.749 99.6864H148.331C148.001 99.6864 147.727 99.9617 147.727 100.292C147.727 102.329 147.727 104.367 147.727 106.404C147.727 106.734 148.001 107.009 148.331 107.009H150.584C152.398 107.009 153.937 105.743 154.266 103.981C154.596 101.999 153.277 100.127 151.299 99.7415C151.134 99.7415 150.914 99.6864 150.749 99.6864Z" fill="#7196FF"/>
<path fill-rule="evenodd" clip-rule="evenodd" d="M163.39 111.966H167.511C167.841 111.966 168.116 111.69 168.116 111.36V98.5859C168.116 98.2555 167.841 97.9802 167.511 97.9802H163.39C163.06 97.9802 162.785 98.2555 162.785 98.5859V111.36C162.785 111.69 163.06 111.966 163.39 111.966Z" fill="black"/>
<path fill-rule="evenodd" clip-rule="evenodd" d="M154.213 102.494C157.345 98.1998 162.346 95.6119 167.677 95.6119H190.209C195.705 95.667 200.157 100.127 200.157 105.688V124.188C200.157 127.877 197.189 130.906 193.507 130.906H161.027C155.477 130.851 151.025 126.391 151.025 120.83V112.405C150.97 108.826 152.124 105.358 154.213 102.494Z" fill="#AEC7FF"/>
<path fill-rule="evenodd" clip-rule="evenodd" d="M183.395 95.6119H190.154C195.705 95.667 200.157 100.127 200.157 105.688V121.766C200.157 125.455 197.189 128.483 193.507 128.483H183.34C183.505 117.581 183.505 106.569 183.395 95.6119ZM204.828 119.563L211.862 121.655C214.555 122.426 216.094 125.179 215.325 127.877C214.555 130.575 211.807 132.117 209.114 131.346C207.411 130.851 206.092 129.584 205.652 127.877L203.564 120.83C203.399 120.334 203.674 119.728 204.168 119.563C204.388 119.508 204.608 119.508 204.828 119.563Z" fill="#7196FF"/>
<path fill-rule="evenodd" clip-rule="evenodd" d="M188.504 136.302H191.802C192.626 136.302 193.34 136.963 193.34 137.844V144.726C193.286 146.598 194.714 148.195 196.638 148.305C198.506 148.36 200.1 146.929 200.21 145.002C200.21 144.891 200.21 144.836 200.21 144.726V110.369C200.21 108.276 198.506 106.514 196.418 106.514H184.767C182.679 106.514 180.975 108.276 180.975 110.369V128.649C180.865 132.888 184.273 136.302 188.504 136.302Z" fill="#7196FF"/>
<path fill-rule="evenodd" clip-rule="evenodd" d="M166.685 115.543H194.493C194.822 115.543 195.097 115.267 195.097 114.937C195.097 114.607 194.822 114.331 194.493 114.331H166.685C166.355 114.331 166.08 114.056 166.08 113.726V109.266C166.135 108.935 165.86 108.66 165.531 108.605C165.201 108.55 164.926 108.825 164.871 109.156C164.871 109.211 164.871 109.211 164.871 109.266V113.726C164.871 114.717 165.695 115.488 166.685 115.543Z" fill="#E4E9F7"/>
<path fill-rule="evenodd" clip-rule="evenodd" d="M163.39 111.966H167.511C167.841 111.966 168.116 111.69 168.116 111.36V98.5859C168.116 98.2555 167.841 97.9802 167.511 97.9802H163.39C163.06 97.9802 162.785 98.2555 162.785 98.5859V111.36C162.785 111.69 163.06 111.966 163.39 111.966Z" fill="black"/>
<path fill-rule="evenodd" clip-rule="evenodd" d="M163.224 99.6864H176.799C179.052 99.6864 180.865 97.8694 180.865 95.6119H189.384V113.341H180.92C180.151 108.881 176.249 106.954 171.578 106.954H163.334C161.521 106.954 159.982 105.688 159.652 103.926C159.322 101.944 160.641 100.072 162.62 99.6864C162.785 99.7415 163.004 99.6864 163.224 99.6864Z" fill="#7196FF"/>
<path fill-rule="evenodd" clip-rule="evenodd" d="M194.439 95.8319H163.444C157.893 95.8319 153.387 91.3169 153.387 85.7558V67.0353C153.442 61.4742 157.893 56.9592 163.444 56.9592H194.439C199.99 56.9592 204.441 61.4742 204.496 67.0353V85.7558C204.441 91.3169 199.99 95.8319 194.439 95.8319Z" fill="#80A7FF"/>
<path fill-rule="evenodd" clip-rule="evenodd" d="M187.9 95.8308H156.905C151.354 95.8308 146.848 91.3158 146.848 85.6997V66.9791C146.903 61.418 151.354 56.9581 156.905 56.9031H187.9C193.451 56.9031 197.957 61.418 197.957 66.9791V85.6997C197.957 91.3158 193.451 95.8308 187.9 95.8308Z" fill="#9CB8FF"/>
<path fill-rule="evenodd" clip-rule="evenodd" d="M201.474 83.4437H194.055V65.2738H201.474C205.156 65.2738 208.179 68.3021 208.179 71.9912V76.7264C208.179 80.4154 205.156 83.4437 201.474 83.4437Z" fill="#9CB8FF"/>
<path fill-rule="evenodd" clip-rule="evenodd" d="M194.055 79.3689V69.2928C194.055 68.9074 194.329 68.6321 194.714 68.6321H201.419C203.287 68.6321 204.771 70.1187 204.771 71.9908V76.726C204.771 78.598 203.287 80.0846 201.419 80.0846H194.714C194.384 80.0846 194.055 79.7543 194.055 79.3689C194.055 79.4239 194.055 79.3689 194.055 79.3689Z" fill="#80A7FF"/>
<path fill-rule="evenodd" clip-rule="evenodd" d="M182.403 77.5505C180.589 77.5505 179.105 76.0638 179.105 74.2469C179.105 72.4299 180.589 70.9432 182.403 70.9432C184.216 70.9432 185.7 72.4299 185.7 74.2469C185.7 76.0638 184.216 77.5505 182.403 77.5505Z" fill="black"/>
<path fill-rule="evenodd" clip-rule="evenodd" d="M146.57 67.0342H169.377C171.576 67.0342 173.389 68.8512 173.389 71.0536V75.7888C173.389 81.3499 168.883 85.8648 163.332 85.9199H152.616C147.065 85.9199 142.559 81.4049 142.559 75.8438V71.1086C142.559 68.8512 144.372 67.0342 146.57 67.0342Z" fill="#CBDAF7"/>
<path fill-rule="evenodd" clip-rule="evenodd" d="M158.661 85.922H152.616C147.065 85.922 142.559 81.407 142.559 75.8459V71.1107C142.559 68.9083 144.372 67.0913 146.57 67.0913H164.651C166.849 67.0913 168.663 68.9083 168.663 71.1107V75.8459C168.663 81.352 164.211 85.8669 158.661 85.922Z" fill="#CBDAF7"/>
<path fill-rule="evenodd" clip-rule="evenodd" d="M155.971 78.2667H160.313C161.247 78.3218 161.962 79.0926 161.907 80.0287C161.852 80.9096 161.192 81.5703 160.313 81.6254H155.971C155.037 81.5703 154.323 80.7995 154.378 79.8635C154.433 78.9825 155.092 78.3218 155.971 78.2667ZM148.058 78.2667H149.706C150.641 78.3218 151.355 79.0926 151.3 80.0287C151.245 80.9096 150.586 81.5703 149.706 81.6254H148.058C147.123 81.5703 146.409 80.7995 146.464 79.8635C146.519 78.9825 147.233 78.3218 148.058 78.2667Z" fill="#9CB8FF"/>
<path fill-rule="evenodd" clip-rule="evenodd" d="M157.784 89.884H155.091C154.487 89.884 153.992 89.3885 153.992 88.7828C153.992 88.1772 154.487 87.6816 155.091 87.6816H157.784C158.389 87.6816 158.883 88.1772 158.883 88.7828C158.883 89.3885 158.389 89.884 157.784 89.884Z" fill="#80A7FF"/>
<path opacity="0.4" fill-rule="evenodd" clip-rule="evenodd" d="M144.813 61.0326C144.813 61.0326 135.141 75.5135 145.528 92.1968L151.408 95.6105L189.328 93.9587L198.561 81.6252L189.328 56.9031H156.904L144.813 61.0326Z" fill="#4871E5"/>
<path fill-rule="evenodd" clip-rule="evenodd" d="M175.038 47.3778C197.131 47.3778 209.331 62.3542 209.331 74.7428C209.331 87.1314 194.878 88.2326 191.47 79.478L184.326 60.4822L152.781 64.6117L144.867 61.0328C147.78 56.1875 158.661 47.3778 175.038 47.3778Z" fill="#EBEFF7"/>
<path fill-rule="evenodd" clip-rule="evenodd" d="M193.834 81.625L173.83 92.1966H145.527L148.275 96.8217H194.384L198.396 87.6816L193.834 81.625Z" fill="#EBEFF7"/>
<path fill-rule="evenodd" clip-rule="evenodd" d="M198.453 67.0896L204.388 68.9616L206.971 58.4451C207.301 57.1236 206.477 55.8022 205.158 55.5269C204.004 55.2516 202.795 55.8573 202.355 56.9585L198.453 67.0896Z" fill="#DAE2ED"/>
<path fill-rule="evenodd" clip-rule="evenodd" d="M206.037 62.1901L204.388 69.0176L198.453 67.1456L200.981 60.5934C202.63 61.144 204.333 61.6946 206.037 62.1901Z" fill="#B7C2CE"/>
<path fill-rule="evenodd" clip-rule="evenodd" d="M194.934 116.975L218.015 122.316L219.994 113.506L196.912 108.165L194.934 116.975Z" fill="#B7C2CE"/>
<path fill-rule="evenodd" clip-rule="evenodd" d="M214.115 123.857L243.077 133.823C243.626 134.044 244.231 133.933 244.725 133.548C245.935 132.612 248.188 130.299 249.397 124.904C250.606 119.508 249.617 116.424 248.902 115.103C248.627 114.607 248.133 114.222 247.528 114.167L217.137 110.423C216.533 110.368 215.983 110.753 215.818 111.359L213.345 122.481C213.235 123.087 213.565 123.637 214.115 123.857Z" fill="#C5CEDD"/>
<path fill-rule="evenodd" clip-rule="evenodd" d="M222.137 115.542C221.972 116.313 222.467 117.084 223.181 117.249C223.951 117.414 224.72 116.919 224.885 116.203C225.05 115.432 224.555 114.661 223.841 114.496C223.072 114.276 222.302 114.772 222.137 115.542ZM228.842 116.478C228.677 117.249 229.172 118.02 229.886 118.185C230.656 118.351 231.425 117.855 231.59 117.139C231.755 116.368 231.26 115.597 230.546 115.432C229.776 115.212 229.007 115.708 228.842 116.478C228.787 116.478 228.787 116.478 228.842 116.478Z" fill="#B7C2CE"/>
<path fill-rule="evenodd" clip-rule="evenodd" d="M195.207 115.488L213.782 129.969L219.278 122.866L200.703 108.33L195.207 115.488Z" fill="#D0D9EA"/>
<path fill-rule="evenodd" clip-rule="evenodd" d="M209.663 129.693L231.811 151.001C232.25 151.387 232.8 151.607 233.404 151.442C234.888 151.111 237.911 149.955 241.263 145.605C244.616 141.256 245 138.007 244.945 136.52C244.945 135.915 244.616 135.419 244.121 135.089L218.126 118.846C217.632 118.516 216.917 118.626 216.588 119.121L209.663 128.151C209.169 128.592 209.223 129.307 209.663 129.693Z" fill="#EBEFF7"/>
<path fill-rule="evenodd" clip-rule="evenodd" d="M220.432 125.564C219.938 126.17 220.048 127.051 220.707 127.546C221.312 128.042 222.191 127.932 222.686 127.326C223.18 126.72 223.07 125.839 222.466 125.344C221.751 124.848 220.872 124.959 220.432 125.564ZM225.763 129.969C225.269 130.575 225.378 131.456 226.038 131.951C226.642 132.447 227.522 132.337 228.016 131.676C228.511 131.015 228.401 130.189 227.742 129.694C227.082 129.253 226.203 129.363 225.763 129.969Z" fill="#B7C2CE"/>
<path fill-rule="evenodd" clip-rule="evenodd" d="M189.549 78.3784C190.373 85.2059 195.704 90.2164 201.474 89.5006C207.245 88.7849 211.202 82.6732 210.322 75.7906C209.443 68.9081 204.167 64.0077 198.452 64.6684C192.736 65.3291 188.724 71.551 189.549 78.3784Z" fill="#DAE2ED"/>
<path fill-rule="evenodd" clip-rule="evenodd" d="M193.889 77.9912C194.494 82.8365 198.286 86.4154 202.353 85.9199C206.419 85.4243 209.277 81.0746 208.673 76.1742C208.068 71.2738 204.276 67.75 200.209 68.3006C196.143 68.8512 193.285 73.1459 193.889 77.9912Z" fill="#B7C2CE"/>
<path fill-rule="evenodd" clip-rule="evenodd" d="M196.251 77.7723C196.691 81.2411 199.384 83.7739 202.296 83.4435C205.209 83.1132 207.243 79.9747 206.803 76.4509C206.363 72.927 203.67 70.4493 200.758 70.7796C197.845 71.11 195.812 74.2484 196.251 77.7723Z" fill="#FF903E"/>
<path fill-rule="evenodd" clip-rule="evenodd" d="M202.684 80.3049L203.344 80.0296C203.509 79.9746 203.619 79.7543 203.564 79.5341L201.255 73.6977C201.2 73.5325 200.981 73.4224 200.761 73.4775L200.101 73.7528C199.936 73.8078 199.827 74.0281 199.881 74.2483L202.19 80.0296C202.3 80.2499 202.519 80.36 202.684 80.3049Z" fill="#FF7F14"/>
<path fill-rule="evenodd" clip-rule="evenodd" d="M194.878 121.215H202.517V95.6119H191.91V118.242C191.91 119.894 193.229 121.215 194.878 121.215Z" fill="black"/>
<path fill-rule="evenodd" clip-rule="evenodd" d="M227.687 67.2011L286.655 45.6174L276.763 64.9987C274.84 68.7979 271.542 71.7161 267.586 73.1476L220.653 90.3265L219.004 85.8666L227.687 67.2011Z" fill="#DAE2ED"/>
<path fill-rule="evenodd" clip-rule="evenodd" d="M214.167 65.218L292.48 36.5316C292.81 36.4214 293.139 36.5866 293.249 36.8619C293.304 37.0271 293.304 37.1923 293.249 37.3024L290.227 43.4141C289.897 44.1299 289.292 44.6254 288.578 44.9007L286.654 45.6165L227.686 67.2002L219.003 85.9207L220.652 90.3806L221.861 93.7393L202.131 100.952L199.273 93.1336L210.814 68.3014C211.474 66.8698 212.683 65.7686 214.167 65.218Z" fill="#ECEFF6"/>
<path fill-rule="evenodd" clip-rule="evenodd" d="M219.059 85.9216L227.742 67.2011L286.71 45.6174L284.732 49.5267L229.83 69.6238L221.806 86.9678L222.796 89.6107L220.707 90.3815L219.059 85.9216Z" fill="#C5CEDD"/>
<path fill-rule="evenodd" clip-rule="evenodd" d="M287.097 43.2512C287.701 43.031 288.031 42.3703 287.811 41.7095C287.591 41.1039 286.932 40.7735 286.272 40.9938C285.668 41.214 285.338 41.8747 285.558 42.5354C285.778 43.1962 286.437 43.4715 287.097 43.2512ZM282.37 45.0132C282.975 44.7929 283.305 44.1322 283.085 43.4715C282.865 42.8658 282.205 42.5354 281.546 42.7557C280.887 42.9759 280.612 43.6367 280.832 44.2974C281.051 44.903 281.711 45.2334 282.37 45.0132ZM215.049 69.6252C215.598 69.2948 215.818 68.579 215.488 68.0284C215.213 67.5879 214.719 67.3677 214.224 67.4227C213.62 67.643 213.29 68.3588 213.51 68.9644C213.785 69.5701 214.444 69.8454 215.049 69.6252Z" fill="#DAE2ED"/>
<path fill-rule="evenodd" clip-rule="evenodd" d="M196.306 101.118H208.561C209.606 101.118 210.43 100.237 210.43 99.2464V92.6391C210.43 91.593 209.606 90.7671 208.561 90.7671H196.306C195.262 90.7671 194.438 91.6481 194.438 92.6391V99.2464C194.438 100.293 195.262 101.118 196.306 101.118Z" fill="#FF5C5C"/>
<path fill-rule="evenodd" clip-rule="evenodd" d="M191.855 104.478H201.473C204.11 104.478 206.199 102.331 206.199 99.7432V92.1999C206.199 89.557 204.055 87.4647 201.473 87.4097H191.855C190.866 87.4097 190.097 88.2356 190.097 89.1716V102.661C190.042 103.652 190.811 104.423 191.855 104.478C191.8 104.478 191.8 104.478 191.855 104.478Z" fill="#D0D9EA"/>
<path fill-rule="evenodd" clip-rule="evenodd" d="M164.489 45.5603L165.038 49.1943C162.071 51.6169 159.433 54.425 157.29 57.5635L153.992 50.0202C156.63 48.0931 160.257 46.9919 164.489 45.5603Z" fill="#FF7F14"/>
<path fill-rule="evenodd" clip-rule="evenodd" d="M157.288 57.5662L153.99 50.0229L151.188 57.5662H157.288Z" fill="#FF903E"/>
<path d="M109.984 144.734L103.395 145.58L103.207 166.35H116.196L109.984 144.734Z" fill="#FF78B9"/>
<path d="M106.877 146.613C100.1 147.553 96.3349 146.425 93.417 143.982C93.1346 143.7 93.0405 143.324 93.3228 142.948C93.417 142.76 93.6052 142.666 93.7935 142.666L118.549 139.376C118.925 139.283 119.302 139.564 119.302 139.94C119.302 140.128 119.302 140.316 119.207 140.41C117.043 143.606 113.654 145.673 106.877 146.613Z" fill="white"/>
<path d="M104.522 129.038C106.311 128.756 108.005 130.072 108.287 131.858L108.946 137.027L102.357 137.873L101.698 132.704C101.416 130.918 102.734 129.32 104.522 129.038Z" fill="#83DDC5"/>
<path d="M104.902 132.14C105.655 132.046 106.313 132.61 106.408 133.268L106.596 134.395C106.69 135.147 106.219 135.805 105.466 135.899C104.713 135.993 104.054 135.429 103.96 134.771L103.772 133.643C103.678 132.892 104.243 132.234 104.902 132.14Z" fill="#4F5D7F"/>
<path d="M105.371 135.335C95.958 136.651 91.2517 139.47 88.2397 143.794C87.8632 144.17 87.9573 144.734 88.3338 145.11C88.6162 145.298 88.8986 145.392 89.1809 145.298L123.725 140.598C124.29 140.598 124.666 140.128 124.666 139.658C124.666 139.377 124.478 139.001 124.196 138.907C120.054 135.523 114.783 134.019 105.371 135.335Z" fill="#EBEFF7"/>
<path d="M92.3815 143.606C92.7454 143.606 93.0404 143.311 93.0404 142.948C93.0404 142.585 92.7454 142.29 92.3815 142.29C92.0176 142.29 91.7227 142.585 91.7227 142.948C91.7227 143.311 92.0176 143.606 92.3815 143.606Z" fill="#FFD836"/>
<path d="M96.4286 143.042C96.7925 143.042 97.0875 142.747 97.0875 142.384C97.0875 142.021 96.7925 141.726 96.4286 141.726C96.0648 141.726 95.7698 142.021 95.7698 142.384C95.7698 142.747 96.0648 143.042 96.4286 143.042Z" fill="#AEC7FF"/>
<path d="M118.549 140.034C118.913 140.034 119.208 139.74 119.208 139.376C119.208 139.013 118.913 138.719 118.549 138.719C118.186 138.719 117.891 139.013 117.891 139.376C117.891 139.74 118.186 140.034 118.549 140.034Z" fill="#F47FFF"/>
<path opacity="0.45" d="M106.125 152.816C106.501 152.158 107.348 151.97 108.007 152.44L108.384 152.722C109.043 153.098 109.231 153.944 108.76 154.602C108.384 155.26 107.537 155.448 106.878 154.978L106.501 154.696C105.842 154.226 105.654 153.38 106.125 152.816Z" fill="#4762B0"/>
<path d="M126.625 171.304C126.625 170.447 127.314 169.753 128.164 169.753C129.014 169.753 129.703 170.447 129.703 171.304V172.841C129.703 173.697 129.014 174.392 128.164 174.392C127.314 174.392 126.625 173.697 126.625 172.841V171.304Z" fill="#99B4FF"/>
<path d="M126.625 183.67C126.625 182.814 127.314 182.119 128.164 182.119C129.014 182.119 129.703 182.814 129.703 183.67V185.207C129.703 186.064 129.014 186.758 128.164 186.758C127.314 186.758 126.625 186.064 126.625 185.207V183.67Z" fill="#99B4FF"/>
<path d="M121.246 179.792C120.392 179.792 119.699 179.101 119.699 178.248C119.699 177.395 120.392 176.704 121.246 176.704H122.777C123.631 176.704 124.323 177.395 124.323 178.248C124.323 179.101 123.631 179.792 122.777 179.792H121.246Z" fill="#99B4FF"/>
<path d="M133.57 179.792C132.716 179.792 132.023 179.101 132.023 178.248C132.023 177.395 132.716 176.704 133.57 176.704H135.101C135.955 176.704 136.648 177.395 136.648 178.248C136.648 179.101 135.955 179.792 135.101 179.792H133.57Z" fill="#99B4FF"/>
<path d="M126.333 90.9623L128.608 95.8551C128.732 96.1051 128.774 96.3879 128.728 96.6633C128.683 96.9388 128.552 97.1928 128.355 97.3894C128.157 97.586 127.903 97.7151 127.628 97.7583C127.353 97.8016 127.071 97.7568 126.823 97.6303L121.946 95.2883C121.768 95.2001 121.573 95.1543 121.374 95.1543C121.176 95.1543 120.98 95.2001 120.802 95.2883L115.925 97.6303C115.677 97.7568 115.395 97.8016 115.12 97.7583C114.845 97.7151 114.591 97.586 114.393 97.3894C114.196 97.1928 114.065 96.9388 114.02 96.6633C113.974 96.3879 114.017 96.1051 114.141 95.8551L116.564 90.9623C116.652 90.7811 116.698 90.5822 116.698 90.3806C116.698 90.179 116.652 89.98 116.564 89.7988L114.215 84.9209C114.096 84.6704 114.057 84.3889 114.104 84.1153C114.15 83.8416 114.281 83.5893 114.476 83.393C114.672 83.1967 114.923 83.066 115.196 83.0191C115.469 82.9721 115.749 83.0112 115.999 83.1308L120.876 85.4877C121.056 85.5688 121.251 85.6107 121.448 85.6107C121.646 85.6107 121.841 85.5688 122.021 85.4877L126.898 83.1308C127.147 83.0112 127.428 82.9721 127.701 83.0191C127.973 83.066 128.225 83.1967 128.421 83.393C128.616 83.5893 128.746 83.8416 128.793 84.1153C128.84 84.3889 128.801 84.6704 128.682 84.9209L126.333 89.7988C126.245 89.98 126.199 90.179 126.199 90.3806C126.199 90.5822 126.245 90.7811 126.333 90.9623Z" fill="#FFCDF9"/>
<path d="M372.7 191.086L374.975 195.979C375.099 196.229 375.141 196.511 375.096 196.787C375.05 197.062 374.919 197.316 374.722 197.513C374.524 197.71 374.27 197.839 373.995 197.882C373.72 197.925 373.439 197.88 373.19 197.754L368.314 195.412C368.136 195.324 367.94 195.278 367.741 195.278C367.543 195.278 367.347 195.324 367.169 195.412L362.292 197.754C362.044 197.88 361.762 197.925 361.487 197.882C361.213 197.839 360.958 197.71 360.761 197.513C360.563 197.316 360.432 197.062 360.387 196.787C360.341 196.511 360.384 196.229 360.508 195.979L362.931 191.086C363.019 190.905 363.065 190.706 363.065 190.504C363.065 190.302 363.019 190.104 362.931 189.922L360.582 185.044C360.463 184.794 360.424 184.512 360.471 184.239C360.518 183.965 360.648 183.713 360.843 183.517C361.039 183.32 361.291 183.19 361.563 183.143C361.836 183.096 362.117 183.135 362.366 183.254L367.243 185.611C367.423 185.692 367.618 185.734 367.816 185.734C368.013 185.734 368.208 185.692 368.388 185.611L373.265 183.254C373.515 183.135 373.795 183.096 374.068 183.143C374.341 183.19 374.592 183.32 374.788 183.517C374.983 183.713 375.114 183.965 375.16 184.239C375.207 184.512 375.168 184.794 375.049 185.044L372.7 189.922C372.612 190.104 372.566 190.302 372.566 190.504C372.566 190.706 372.612 190.905 372.7 191.086Z" fill="#F7E080"/>
<path d="M268.854 125.977C268.854 124.939 269.689 124.098 270.72 124.098C271.751 124.098 272.586 124.939 272.586 125.977V127.842C272.586 128.88 271.751 129.721 270.72 129.721C269.689 129.721 268.854 128.88 268.854 127.842V125.977Z" fill="white"/>
<path d="M268.854 140.969C268.854 139.931 269.689 139.089 270.72 139.089C271.751 139.089 272.586 139.931 272.586 140.969V142.834C272.586 143.872 271.751 144.713 270.72 144.713C269.689 144.713 268.854 143.872 268.854 142.834V140.969Z" fill="white"/>
<path d="M262.327 136.27C261.292 136.27 260.453 135.432 260.453 134.398C260.453 133.364 261.292 132.526 262.327 132.526H264.185C265.22 132.526 266.059 133.364 266.059 134.398C266.059 135.432 265.22 136.27 264.185 136.27H262.327Z" fill="white"/>
<path d="M277.268 136.27C276.233 136.27 275.395 135.432 275.395 134.398C275.395 133.364 276.233 132.526 277.268 132.526H279.126C280.161 132.526 281 133.364 281 134.398C281 135.432 280.161 136.27 279.126 136.27H277.268Z" fill="white"/>
<path d="M302.957 73.1093L303.144 73.0592L310.367 70.4905C310.654 70.3883 310.918 70.2303 311.144 70.0257C311.37 69.8211 311.554 69.5737 311.684 69.2979C311.815 69.022 311.889 68.7229 311.905 68.4178C311.92 68.1127 311.875 67.8074 311.773 67.5195C311.559 66.9417 311.13 66.4696 310.576 66.203C310.022 65.9364 309.386 65.8963 308.804 66.0912L301.58 68.6599C300.996 68.8678 300.517 69.2992 300.25 69.8599C299.982 70.4206 299.946 71.0652 300.15 71.653C300.352 72.2038 300.752 72.6591 301.272 72.9288C301.792 73.1984 302.393 73.2629 302.957 73.1093Z" fill="#F7E080"/>
<path d="M179.208 35.0664C179.75 35.0651 180.276 34.8753 180.695 34.5294L185.899 30.1885C186.372 29.7929 186.669 29.2249 186.725 28.6095C186.781 27.994 186.59 27.3815 186.196 26.9068C185.802 26.432 185.236 26.1339 184.622 26.0779C184.009 26.022 183.398 26.2128 182.925 26.6084L177.706 30.9493C177.339 31.2554 177.075 31.6676 176.95 32.1299C176.825 32.5921 176.845 33.0818 177.008 33.5321C177.17 33.9824 177.467 34.3714 177.858 34.646C178.25 34.9206 178.716 35.0674 179.193 35.0664H179.208Z" fill="#60CFAC"/>
<path d="M215.728 31.0249C216.034 31.0256 216.338 30.9654 216.622 30.8476C216.905 30.7298 217.162 30.5568 217.378 30.3387L220.649 27.042C220.877 26.8292 221.059 26.5727 221.186 26.2878C221.312 26.0028 221.381 25.6953 221.386 25.3834C221.392 25.0715 221.335 24.7616 221.219 24.4721C221.103 24.1827 220.93 23.9196 220.711 23.6985C220.492 23.4774 220.23 23.3028 219.942 23.1851C219.654 23.0674 219.346 23.009 219.035 23.0134C218.724 23.0178 218.417 23.0848 218.132 23.2106C217.848 23.3363 217.591 23.5181 217.378 23.7453L214.092 27.042C213.876 27.2582 213.704 27.5151 213.587 27.7979C213.47 28.0808 213.41 28.384 213.41 28.6903C213.41 28.9966 213.47 29.2999 213.587 29.5827C213.704 29.8656 213.876 30.1225 214.092 30.3387C214.305 30.5577 214.559 30.7315 214.84 30.8494C215.121 30.9673 215.423 31.027 215.728 31.0249Z" fill="#98B7F7"/>
<path d="M118.954 40.3065C119.413 40.3035 119.86 40.1651 120.241 39.9085C120.622 39.6519 120.919 39.2885 121.095 38.8636C121.271 38.4388 121.318 37.9713 121.231 37.5196C121.144 37.0679 120.926 36.6519 120.605 36.3236L118.969 34.6828C118.753 34.4663 118.497 34.2946 118.215 34.1774C117.933 34.0603 117.631 34 117.326 34C117.021 34 116.719 34.0603 116.437 34.1774C116.155 34.2946 115.899 34.4663 115.683 34.6828C115.467 34.8992 115.296 35.1562 115.18 35.439C115.063 35.7219 115.003 36.025 115.003 36.3311C115.003 36.6372 115.063 36.9404 115.18 37.2232C115.296 37.506 115.467 37.763 115.683 37.9794L117.319 39.6203C117.531 39.8394 117.786 40.0131 118.067 40.131C118.348 40.249 118.65 40.3086 118.954 40.3065Z" fill="#60CFAC"/>
</svg>
