<svg fill="none" height="128" viewBox="0 0 216 128" width="216" xmlns="http://www.w3.org/2000/svg" xmlns:xlink="http://www.w3.org/1999/xlink"><clipPath id="a"><path d="m0 0h215.488v128h-215.488z"/></clipPath><g clip-path="url(#a)"><g fill="#7196ff"><path d="m156.426 113.483c-.904 0-1.638.733-1.638 1.638 0 .904.734 1.637 1.638 1.637h1.637c.904 0 1.638-.733 1.638-1.637 0-.905-.734-1.638-1.638-1.638z"/><path d="m143.327 113.483c-.904 0-1.638.733-1.638 1.638 0 .904.734 1.637 1.638 1.637h1.637c.904 0 1.638-.733 1.638-1.637 0-.905-.734-1.638-1.638-1.638z"/><path d="m149.049 109.364c0 .905.733 1.638 1.638 1.638.904 0 1.637-.733 1.637-1.638v-1.637c0-.904-.733-1.637-1.637-1.637-.905 0-1.638.733-1.638 1.637z"/><path d="m149.049 122.497c0 .904.733 1.638 1.638 1.638.904 0 1.637-.734 1.637-1.638v-1.637c0-.904-.733-1.638-1.637-1.638-.905 0-1.638.734-1.638 1.638z"/></g><path d="m68.431 19.0742v.0169c0 .6619.5366 1.1985 1.1985 1.1985h1.2153c.6619 0 1.1985-.5366 1.1985-1.1985v-.0169c0-.6619-.5366-1.1985-1.1985-1.1985h-1.2153c-.6619 0-1.1985.5366-1.1985 1.1985z" fill="#ebf0f7"/><path d="m58.7755 19.0571v.0169c0 .6619.5366 1.1985 1.1985 1.1985h1.2153c.6619 0 1.1985-.5366 1.1985-1.1985v-.0169c0-.6619-.5366-1.1985-1.1985-1.1985h-1.2153c-.6619 0-1.1985.5366-1.1985 1.1985z" fill="#ebf0f7"/><path d="m65.3926 16.0696h.0168c.6619 0 1.1985-.5366 1.1985-1.1985v-1.2153c0-.6619-.5366-1.1985-1.1985-1.1985h-.0168c-.6619 0-1.1985.5366-1.1985 1.1985v1.2153c0 .6619.5366 1.1985 1.1985 1.1985z" fill="#ebf0f7"/><path d="m65.3926 25.708h.0168c.6619 0 1.1985-.5366 1.1985-1.1985v-1.2153c0-.6619-.5366-1.1985-1.1985-1.1985h-.0168c-.6619 0-1.1985.5366-1.1985 1.1985v1.2153c0 .6619.5366 1.1985 1.1985 1.1985z" fill="#ebf0f7"/><path d="m107.744 36.6294-25.7079 25.708v36.2242l25.7079 25.7084 25.708-25.7084v-36.2242z" fill="#282b30"/><path d="m107.744 36.6294-25.7079 25.708 12.8625 5.3341 12.8454-12.8625 12.863 12.8625v25.5729l12.845 5.3172v-36.2242z" fill="#1e2024"/><path d="m94.8986 93.2446-12.8625 5.3172 25.7079 25.7252v-18.18z" fill="#3b3f47"/><path d="m94.8987 67.6715v25.573l12.8453 12.8625 12.863-12.8625v-25.573l-12.863-12.8624z" fill="#303339"/><path d="m42.9929 52.7157-5.4353 2.6164c-.2781.1327-.5907.1757-.8944.1229-.3036-.0528-.5833-.1987-.8003-.4176-.217-.2188-.3606-.4998-.4108-.8039s-.0046-.6163.1306-.8933l2.5995-5.4184c.0995-.1992.1513-.4188.1513-.6414 0-.2227-.0518-.4423-.1513-.6415l-2.5995-5.4353c-.1352-.277-.1808-.5892-.1306-.8933.0502-.304.1938-.585.4108-.8039.217-.2188.4967-.3648.8003-.4176.3037-.0527.6163-.0098.8944.123l5.4353 2.6164c.1992.0995.4188.1513.6414.1513.2227 0 .4423-.0518.6415-.1513l5.4353-2.6164c.2781-.1328.5907-.1757.8943-.123.3037.0528.5834.1988.8004.4176.217.2189.3606.4999.4108.8039.0502.3041.0046.6163-.1306.8933l-2.6163 5.4353c-.0914.2015-.1387.4202-.1387.6415 0 .2212.0473.4399.1387.6414l2.6163 5.4184c.1352.277.1808.5892.1306.8933s-.1938.5851-.4108.8039c-.217.2189-.4967.3648-.8004.4176-.3036.0528-.6162.0098-.8943-.1229l-5.4353-2.6164c-.2015-.0914-.4202-.1387-.6415-.1387-.2212 0-.4399.0473-.6414.1387z" fill="#aec7ff"/><path d="m33.6417 85.885v-4.5576l-1.688.7258c-1.0825.4654-2.0048 1.2379-2.6528 2.2219s-.9934 2.1365-.9933 3.3147v3.1397c-.0029 1.4985-.3028 2.9816-.8823 4.3636-.5794 1.382-1.427 2.6355-2.4937 3.6881l-1.4516 1.4688v6.583h15.9008v-3.376c-.0036-3.503-1.1339-6.9119-3.224-9.7229l-.152-.2194c-1.6026-2.2155-2.4329-4.8962-2.3631-7.6297z" fill="#ff9a15"/><path d="m30.1473 116.15c5.146 0 9.3177-4.171 9.3177-9.317s-4.1717-9.3181-9.3177-9.3181-9.3177 4.1721-9.3177 9.3181 4.1717 9.317 9.3177 9.317z" fill="#ff9a15"/><path d="m34.5192 98.5107h-.6583v-3.6291c0-.6492.2579-1.2717.7169-1.7307s1.0815-.7169 1.7307-.7169h.6583v3.6292c0 .6491-.2579 1.2716-.7169 1.7307-.459.459-1.0816.7168-1.7307.7168z" fill="#ffd836"/><path d="m30.1886 101.417 2.6856 2.685c.7122.713 1.1124 1.679 1.1124 2.686s-.4002 1.973-1.1124 2.685c-.7123.713-1.6783 1.113-2.6856 1.113s-1.9733-.4-2.6856-1.113c-.7122-.712-1.1124-1.678-1.1124-2.685s.4002-1.973 1.1124-2.686z" fill="#ffd836"/><path d="m38.8236 115.121c-.8798 1.525-2.1457 2.791-3.6702 3.672-1.5245.88-3.254 1.344-5.0145 1.344s-3.49-.464-5.0145-1.344c-1.5245-.881-2.7903-2.147-3.6702-3.672z" fill="#b2c1d1"/><path d="m39.8026 112.926h-19.3106c-.6898 0-1.2491.56-1.2491 1.249v.017c0 .69.5593 1.249 1.2491 1.249h19.3106c.6899 0 1.2491-.559 1.2491-1.249v-.017c0-.689-.5592-1.249-1.2491-1.249z" fill="#dae1ea"/><path d="m31.5146 117.18c0-.755-.6122-1.367-1.3673-1.367s-1.3673.612-1.3673 1.367v9.453c0 .755.6122 1.367 1.3673 1.367s1.3673-.612 1.3673-1.367z" fill="#b2c1d1"/><path d="m188.835 85.885v-4.5576l-1.688.7258c-1.082.4654-2.005 1.2379-2.653 2.2219s-.993 2.1365-.993 3.3147v3.1397c-.003 1.4985-.303 2.9816-.882 4.3636-.58 1.382-1.427 2.6355-2.494 3.6881l-1.452 1.4688v6.583h15.901v-3.376c-.003-3.503-1.134-6.9119-3.224-9.7229l-.152-.2194c-1.602-2.2155-2.433-4.8962-2.363-7.6297z" fill="#ff9a15"/><path d="m185.341 116.15c5.146 0 9.317-4.171 9.317-9.317s-4.171-9.3181-9.317-9.3181-9.318 4.1721-9.318 9.3181 4.172 9.317 9.318 9.317z" fill="#ff9a15"/><path d="m189.713 98.5107h-.659v-3.6292c0-.6491.258-1.2717.717-1.7307s1.082-.7169 1.731-.7169h.675v3.6292c0 .3228-.064.6425-.188.9406-.124.298-.306.5686-.535.7961s-.5.4074-.799.5294-.619.1837-.942.1815z" fill="#ffd836"/><path d="m185.396 101.414 2.686 2.686c.689.727 1.064 1.696 1.041 2.698-.022 1.001-.439 1.954-1.16 2.649-.713.712-1.679 1.112-2.686 1.112s-1.973-.4-2.685-1.112c-.713-.712-1.113-1.678-1.113-2.686 0-1.007.4-1.973 1.113-2.685l2.733-2.733z" fill="#ffd836"/><path d="m194.118 115.121c-.879 1.525-2.145 2.791-3.67 3.672-1.524.88-3.254 1.344-5.014 1.344-1.761 0-3.49-.464-5.015-1.344-1.524-.881-2.79-2.147-3.67-3.672z" fill="#b2c1d1"/><path d="m194.996 112.926h-19.31c-.69 0-1.25.56-1.25 1.249v.017c0 .69.56 1.249 1.25 1.249h19.31c.69 0 1.249-.559 1.249-1.249v-.017c0-.689-.559-1.249-1.249-1.249z" fill="#dae1ea"/><path d="m186.708 117.18c0-.755-.612-1.367-1.367-1.367s-1.367.612-1.367 1.367v9.453c0 .755.612 1.367 1.367 1.367s1.367-.612 1.367-1.367z" fill="#b2c1d1"/><path d="m153.962 33.9811 22.678 22.6782c1.051 1.07 1.637 2.5119 1.63 4.0118-.006 1.5-.605 2.9365-1.666 3.9971-1.067 1.0668-2.514 1.6662-4.022 1.6662-1.509 0-2.956-.5994-4.023-1.6662l-16.268-16.2685c-1.9-1.8994-2.967-4.4755-2.967-7.1616s1.067-5.2621 2.967-7.1615c.224-.2247.529-.351.847-.351s.623.1263.848.351z" fill="#aec7ff"/><path d="m152.24 19.7495v14.0103c.001 3.2773 1.3 6.4207 3.612 8.7438l11.259 11.2082c1.146 1.1027 2.68 1.7092 4.27 1.688h11.107c1.428 0 2.798-.5673 3.808-1.5772 1.01-1.0098 1.577-2.3794 1.577-3.8075s-.567-2.7977-1.577-3.8076c-1.01-1.0098-2.38-1.5771-3.808-1.5771h-5.249l-9.554-9.554v-17.2512z" fill="#aec7ff"/><path d="m156.443 12.8961-7.09 7.0895 13.69 11.664v20.6779l-2.077 7.0895 4.338-4.3381c3.209-3.2279 7.569-5.0494 12.12-5.064h4.879c6.935-.0021 13.733-1.9369 19.631-5.5872v-38.08099h-29.574c-2.954-.01465-5.882.55664-8.614 1.68082-2.733 1.12418-5.215 2.77897-7.303 4.86857z" fill="#fff"/><path d="m160.882 33.1183c.408.4076.732.8918.953 1.4247.221.533.335 1.1042.335 1.6812s-.114 1.1482-.335 1.6812c-.221.5329-.545 1.0171-.953 1.4247l-9.385 9.3852 10.026 10.0098 19.8-19.8001-25.454-25.4211-28.966 28.9152c-1.224 1.2249-1.911 2.8854-1.911 4.6167 0 1.7312.687 3.3917 1.911 4.6166 1.225 1.2235 2.885 1.9108 4.616 1.9108 1.732 0 3.392-.6873 4.617-1.9108l18.568-18.5679c.828-.8057 1.94-1.2538 3.096-1.2475 1.155.0064 2.262.4665 3.082 1.2813z" fill="#fff"/><path d="m162.131 46.4702h-31.835l-22.434 22.4334v31.8354h31.836l22.433-22.4334zm-27.092 42.993h-15.918v-15.9008l15.918-15.8333h15.918v15.9177z" fill="#fa6ef6"/><path d="m162.131 46.4702-11.259 11.2589v15.9177l11.259 4.6588z" fill="#ffadfb"/><path d="m119.121 73.5624-11.259-4.6757v31.8523l11.259-11.2589z" fill="#e655d4"/><path d="m134.954 57.7292-15.833 15.8334v15.9177h15.918l15.833-15.8333v-15.9178z" fill="#ffcff9"/><path d="m150.855 73.6299-.033.0337-31.718-.0337v-.0507l4.305-4.2875h27.48z" fill="#fff"/><path d="m144.88 79.6223-4.389 4.3719h-21.353v-4.3719z" fill="#fff"/><path d="m187.512 32.9446-31.284 31.2839c-1.333 1.3327-3.141 2.0814-5.025 2.0814-1.885 0-3.693-.7487-5.025-2.0814-1.333-1.3327-2.082-3.1403-2.082-5.025 0-1.8848.749-3.6923 2.082-5.025l31.284-31.2839z" fill="#fff"/><path d="m201.411 44.7652c-1.161.69-2.355 1.3209-3.579 1.8906v-40.30912h3.579z" fill="#d4e4ff"/><path d="m200.432 43.8876c0 4.1578 3.37 7.5284 7.528 7.5284s7.528-3.3706 7.528-7.5284v-36.35923c0-4.15783-3.37-7.52841578-7.528-7.52841578s-7.528 3.37058578-7.528 7.52841578z" fill="#fff"/></g></svg>