<svg height="24" viewBox="0 0 24 24" width="24" xmlns="http://www.w3.org/2000/svg"><g fill="none" fill-rule="evenodd"><path d="m19.8970145 10.2267639c-.6081062-.1481845-1.2434067-.2267639-1.8970145-.2267639-4.4092877 0-8 3.581722-8 8 0 1.4558297.3904597 2.8224229 1.0725703 4h-6.0725703c-1.1045695 0-2-.8954305-2-2v-1h-1c-.55228475 0-1-.4477153-1-1v-3c0-.5522847.44771525-1 1-1h1c0-3.8659932 3.13400675-7 7-7h1v-1.27c-.6-.34-1-.99-1-1.73 0-1.1045695.8954305-2 2-2s2 .8954305 2 2c0 .74-.4 1.39-1 1.73v1.27h1c2.4765213 0 4.6526667 1.28606191 5.8970145 3.2267639zm-12.3970145 2.7732361c-1.38071187 0-2.5 1.1192881-2.5 2.5s1.11928813 2.5 2.5 2.5 2.5-1.1192881 2.5-2.5-1.11928813-2.5-2.5-2.5z" fill="#fff" fill-rule="nonzero" opacity=".6"/><path d="m0 0h24v24h-24z"/></g></svg>