<svg fill="none" height="86" width="660" xmlns="http://www.w3.org/2000/svg" xmlns:xlink="http://www.w3.org/1999/xlink"><linearGradient id="a" gradientUnits="userSpaceOnUse" x1="0" x2="660" y1="43" y2="43"><stop offset="0" stop-color="#f18623"/><stop offset=".56" stop-color="#f6a12a"/><stop offset="1" stop-color="#fab930"/></linearGradient><path d="m0 0h660v86h-660z" fill="url(#a)"/><path d="m622.57 59.26-8.81-8a56.64 56.64 0 0 0 -38.07-14.71h-48.44a27.466 27.466 0 0 1 -21.25-10.13l-.25-.31a27.477 27.477 0 0 0 -21.34-10.11h-58.41a59.432 59.432 0 0 0 -33.18 10.12l-14.13 9.51a59.429 59.429 0 0 1 -33.18 10.12h-84.69a56.156 56.156 0 0 0 -41.71 18.57l-19.54 21.68h460.43v-22.43h-26.28a16.6 16.6 0 0 1 -11.15-4.31z" fill="#f18623" opacity=".2"/><path d="m61.16 40.45h-7.8a41.83 41.83 0 0 1 -29.59-12.25l-3.39-3.4a20.05 20.05 0 0 0 -14.16-5.86h-6.22v67.06h127l-31.16-31.18a49 49 0 0 0 -34.68-14.37z" fill="#f18623" opacity=".2"/><path d="m450.3 72.85v13.15h-39.86v-13.15l6.08-6.08h27.7z" fill="#e6621b"/><path d="m410.44 72.85h29.52v-6.15h-23.44z" fill="#e34e1b"/><path d="m431.7 86 .54-6.42 1.1-12.83.72-8.49h26.39l.72 8.49.3 3.52.07.68.14 1.76.09 1.07 1.04 12.22z" fill="#f18623"/><path d="m461.01 79.58h-58.86v6.42h58.86z" fill="#ec7020"/><path d="m460.74 79.51-.54 6.41h-1.53l.55-6.41z" fill="#e05a17"/><path d="m403.05 86h-16.2l1.03-12.2.1-1.09h13.93l.1 1.09.49 5.78z" fill="#ec7020"/><path d="m385.6 73.8h18.7v-3.52h-18.7z" fill="#ec7020"/><path d="m385.6 70.28h18.7v-3.51h-18.7z" fill="#e05a17"/><path d="m400.1 71h4.2v-4.24h-4.2zm-8.17 0h6.23v-4.24h-6.23zm-6.33 0h4.84v-4.24h-4.84z" fill="#ec7020"/><path d="m468.22 80.89a1.52 1.52 0 0 1 .6.1c.192.076.369.188.52.33a1.57 1.57 0 0 1 .46 1.11v2.44h-3.14v-2.44a1.527 1.527 0 0 1 .97-1.43c.187-.076.388-.113.59-.11z" fill="#4173d9"/><path d="m395 77.53c.404 0 .791.158 1.08.44.287.286.449.675.45 1.08v2.44h-3.05v-2.43a1.52 1.52 0 0 1 .52-1.06c.29-.28.677-.438 1.08-.44z" fill="#e05a17"/><path d="m476.33 86h-16.21l.55-6.42.49-5.8.1-1.07h13.93l.09 1.07z" fill="#ec7020"/><path d="m477.57 70.27h-18.7v3.52h18.7z" fill="#ec7020"/><path d="m477.57 66.76h-18.7v3.51h18.7z" fill="#e05a17"/><path d="m465.1 66.76h-6.23v4.24h6.23zm8.17 0h-6.27v4.24h6.23zm4.31 0h-2.82v4.24h2.82zm-40.74-8.51h20.84v-17.82h-20.84z" fill="#ec7020"/><path d="m404.58 86h-1.53l-.54-6.4h1.52z" fill="#e05a17"/><path d="m464.07 52.35h-33.63v5.9h33.63z" fill="#f18623"/><path d="m434.06 58.26-.17 2h26.73l-.17-2zm30.01-9.43h-33.63v3.52h33.63z" fill="#ec7020"/><path d="m448.94 48.83h-12.11v4.17h12.11zm10.71 0h-7.52v4.17h7.52zm4.43 0h-2.82v4.17h2.82zm-33.63 4.17h3.8v-4.2h-3.8z" fill="#f18623"/><path d="m447.26 32.11-7.26 8.33h14.59z" fill="#e34e1b"/><path d="m468.3 77.53a1.501 1.501 0 0 1 1.12.43c.151.14.27.31.35.5.081.19.118.394.11.6v2.44h-3.13v-2.44c-.008-.202.03-.404.11-.59a1.42 1.42 0 0 1 .34-.5c.146-.146.319-.261.51-.34.188-.073.389-.107.59-.1z" fill="#e05a17"/><path d="m447.83 20h-1.16v12.75h1.16z" fill="#ec7020"/><path d="m447.26 20.37a.919.919 0 0 0 .651-1.57.923.923 0 0 0 -1.416.139.92.92 0 0 0 .765 1.431z" fill="#ec7020"/><path d="m458.44 21.06h-10.61v9.22h10.61z" fill="#fab930"/><path d="m465.9 23.52h-12.24v9.22h12.24z" fill="#fab930"/><path d="m453.66 30.28h4.78l-4.78 2.47z" fill="#f69d27"/><path d="m490.47 75.42a3.997 3.997 0 0 0 -4-4 3.999 3.999 0 0 0 -4 4v3.47a3.997 3.997 0 0 0 4 4 3.999 3.999 0 0 0 4-4z" fill="#f18623"/><path d="m487 76.65h-1v9.35h1z" fill="#ec7020"/><path d="m521.85 77.46a4 4 0 1 0 -8 0v3.47a4.001 4.001 0 0 0 8 0z" fill="#f18623"/><path d="m518.37 78.69h-1v7.31h1z" fill="#ec7020"/><path d="m380.72 76.2a3.997 3.997 0 0 0 -4-4 3.999 3.999 0 0 0 -4 4v3.48a3.997 3.997 0 0 0 4 4 3.999 3.999 0 0 0 4-4z" fill="#f18623"/><path d="m377.25 77.44h-1v8.56h1z" fill="#ec7020"/><path d="m494.47 81.32a3.998 3.998 0 0 1 4 4v.68h-8v-.68a4.178 4.178 0 0 1 .3-1.53c.202-.487.497-.928.87-1.3a3.924 3.924 0 0 1 2.82-1.17z" fill="#f18623"/></svg>