<svg fill="none" height="120" viewBox="0 0 440 120" width="440" xmlns="http://www.w3.org/2000/svg"><path d="m0 0h440v120h-440z" fill="#5865f2"/><path d="m320 120-320-120 120 120h71.062z" fill="#6874f2" opacity=".5"/><path d="m120 120 320-120-120 120h-71.062z" fill="#6874f2" opacity=".5"/><path d="m219.247 115.065c25.927 0 46.945-21.0882 46.945-47.1019s-21.018-47.102-46.945-47.102c-25.928 0-46.946 21.0883-46.946 47.102s21.018 47.1019 46.946 47.1019z" fill="#ffed7e"/><path d="m316.116 46.3677 3.765-1.4893h.053l-1.413 3.813 1.476 3.7772c.004.0146.004.0302 0 .0448h-.054l-3.791-1.4265-3.774 1.4983h-.045c-.004-.0146-.004-.0302 0-.0448l1.422-3.8131-1.556-3.6874v-.0448h.045l3.791 1.4265z" fill="#ff57b0"/><path d="m292.84 58.6507 2.325-.8972-.894 2.3596.894 2.3327-2.352-.8972-2.333.8972h-.054l.894-2.3596-.894-2.3327h.054l2.351.8972z" fill="#fc7a5e"/><g fill="#ffc800"><path d="m125.589 44.4481c0 .2879.114.564.317.7676s.478.318.765.318.562-.1144.765-.318.317-.4797.317-.7676v-2.7544c0-.2879-.114-.564-.317-.7676s-.478-.3179-.765-.3179-.562.1143-.765.3179-.317.4797-.317.7676z"/><path d="m125.589 35.9698c-.014.1503.004.3017.052.4447s.125.2744.226.3859c.102.1114.225.2004.363.2613.137.0609.286.0923.436.0923.151 0 .299-.0314.437-.0923.137-.0609.261-.1499.362-.2613.102-.1115.179-.2429.227-.3859s.065-.2944.052-.4447v-2.7453c.013-.1503-.004-.3017-.052-.4447s-.125-.2744-.227-.3859c-.101-.1114-.225-.2004-.362-.2613-.138-.0609-.286-.0923-.437-.0923-.15 0-.299.0314-.436.0923-.138.0609-.261.1499-.363.2613-.101.1115-.178.2429-.226.3859s-.066.2944-.052.4447z"/><path d="m121.082 37.7466c-.142 0-.283.0281-.414.0826-.131.0546-.251.1345-.351.2353-.101.1009-.18.2205-.235.3522-.054.1317-.082.2729-.082.4155 0 .1425.028.2837.082.4154.055.1317.134.2514.235.3522.1.1008.22.1808.351.2353.131.0546.272.0827.414.0827h2.745c.287 0 .562-.1144.765-.318s.317-.4797.317-.7676-.114-.5641-.317-.7677c-.203-.2035-.478-.3179-.765-.3179z"/><path d="m129.523 37.7547c-.15-.0137-.301.0041-.443.0522-.143.0481-.274.1255-.385.2272s-.2.2256-.26.3636c-.061.138-.092.2873-.092.4381 0 .1509.031.3001.092.4382.06.138.149.2618.26.3636.111.1017.242.1791.385.2272.142.0481.293.0658.443.0521h2.745c.15.0137.301-.004.443-.0521.143-.0481.274-.1255.385-.2272.111-.1018.2-.2256.26-.3636.061-.1381.092-.2873.092-.4382 0-.1508-.031-.3001-.092-.4381-.06-.138-.149-.2619-.26-.3636s-.242-.1791-.385-.2272c-.142-.0481-.293-.0659-.443-.0522z"/></g><path d="m147.237 61.2344-1.788 3.5887 1.788 3.5439 1.789-3.5439z" fill="#ff57b0"/><path d="m228.869 52.0925c-.055-.2117-.191-.3929-.379-.504-.188-.111-.412-.1427-.623-.0882-.211.0551-.393.1913-.505.3793s-.146.4127-.094.6256c5.553 22.6897 17.061 40.4539 25.601 51.2468 1.539-1.453 2.979-3.009 4.31-4.6562-13.726-12.6262-23.552-28.9398-28.31-47.0033z" fill="#f7dc4d"/><path d="m218.729 32.4799c-1.476 17.9437-5.124 63.6999-26.648 62.8027h53.438c-21.524-1.6956-24.555-44.9846-25.825-62.8027-.029-.1061-.092-.1997-.179-.2664-.087-.0668-.194-.1029-.304-.1029-.109 0-.216.0361-.303.1029-.087.0667-.15.1603-.179.2664z" fill="#23489e"/><path d="m194.657 56.8744c-.2-.0851-.425-.0887-.627-.0099-.202.0787-.365.2336-.455.4315-4.679 10.3658-11.121 19.8349-19.038 27.9831.421 1.2651.894 2.5032 1.422 3.7233 7.792-9.388 14.22-19.8363 19.091-31.0335.087-.1982.095-.4225.022-.6262-.074-.2038-.222-.3715-.415-.4683z" fill="#f7dc4d"/><path d="m264.824 85.602c-15.43-12.7699-26.564-29.9999-31.887-49.345-.058-.2084-.196-.3853-.383-.4927-.188-.1074-.41-.1367-.618-.0815-.211.0549-.392.1915-.503.3799-.11.1884-.142.4132-.087.6249 6.787 26.5117 21.675 46.169 30.286 55.8406 1.25-2.2181 2.317-4.5345 3.192-6.9262z" fill="#f7dc4d"/><path d="m211.119 37.1722c-.217-.02-.433.0472-.601.1868s-.273.3402-.294.5578c-2.245 24.3935-13.569 47.0421-31.717 63.4312 1.046 1.519 2.178 2.978 3.389 4.369l4.248.377c.14.011.281-.013.409-.071s.24-.148.324-.261c2.575-3.419 22.23-30.6749 25.038-67.7016.007-.1111-.008-.2225-.045-.3276-.036-.1052-.093-.202-.167-.2848s-.164-.1498-.264-.1972c-.101-.0473-.209-.0741-.32-.0786z" fill="#f7dc4d"/><path d="m269.689 23.7592 1.61-3.7143c-.004-.0148-.004-.0302 0-.0449h.089c.004.0147.004.0302 0 .0449l1.681 3.6963 3.711 1.6239c.006.0059.011.0129.014.0206s.005.0159.005.0243-.002.0166-.005.0243-.008.0147-.014.0206l-3.684 1.6956-1.565 3.7861h-.089l-1.699-3.7053-3.72-1.6149c-.005-.0146-.005-.0303 0-.0449l3.693-1.6777z" fill="#62ffe3"/><path d="m289.066 84.5162s5.196-7.4556-2.95-4.1001c-1.851-8.6489-5.044-.1256-5.044-.1256-4.918-1.0408-3.693 1.6597-1.788 4.0283-1.467.4343-2.784 1.2706-3.803 2.415s-1.699 2.5514-1.965 4.0626c-.894 4.4231 1.538 8.6758 5.491 9.5016 3.952.825 7.904-2.0729 8.825-6.496.393-1.8347.186-3.7473-.59-5.4549 2.844.1346 5.258-.5024 1.824-3.8309z" fill="#2331b5"/><path d="m273.767 60.3732c-.518.007-1.029.1164-1.504.3219-.475.2054-.905.5029-1.266.8755-.36.3725-.644.8127-.835 1.2954-.19.4827-.284.9985-.276 1.5176.07 3.0814-.082 6.1638-.456 9.223-.309 2.8627-1.095 5.6529-2.325 8.2541-.481 1.1066-1.179 2.1045-2.054 2.9339-.874.8294-1.906 1.4732-3.034 1.8929-1.111.3573-2.278.5034-3.443.4307.484-.6452.793-1.4059.895-2.2071.055-.7554-.057-1.5137-.328-2.2209-.27-.7071-.693-1.3457-1.237-1.8702.702-.3538 1.311-.8689 1.777-1.5034.466-.6346.776-1.3706.905-2.1481.082-1.0519-.213-2.0985-.831-2.9518l2.28.332c.508.0813 1.027.0605 1.527-.0613s.971-.3421 1.385-.6481c.415-.3061.764-.6917 1.029-1.1345.264-.4428.438-.934.511-1.4449.074-.5109.046-1.0314-.083-1.5312s-.356-.9689-.667-1.38-.701-.756-1.146-1.0147-.937-.426-1.447-.4921c-.815-.1188-1.646.0291-2.37.4217-.08 0-.769.4934-1.788 1.1125l1.6-11.0982c.069-.4588.015-.9277-.155-1.359s-.451-.8097-.815-1.0968c-.363-.287-.796-.4725-1.253-.5375-.458-.0651-.925-.0074-1.354.1672l-1.681.6639c-.423.1708-.884.2267-1.336.1622-.452-.0646-.88-.2474-1.239-.53l-1.431-1.1215c-.361-.2827-.791-.4652-1.245-.5293-.454-.064-.917-.0074-1.342.1642-.426.1717-.799.4523-1.082.814-.284.3616-.467.7915-.533 1.2468l-1.681 11.6633c-1.091-1.2111-1.869-2.1263-1.95-2.207-.438-.4304-.972-.7504-1.558-.9337s-1.206-.2247-1.811-.1208c-.604.1039-1.176.3501-1.667.7185-.492.3684-.889.8484-1.16 1.4007s-.407 1.1612-.398 1.7766.163 1.2199.45 1.7639c.288.544.699 1.0119 1.201 1.3655.502.3535 1.081.5826 1.688.6684l1.601.2333c-.571.3584-1.058.8367-1.427 1.4021-.369.5653-.611 1.2042-.71 1.8726-.206 1.8661.983 3.6784 3.004 5.0511-.854.7766-1.405 1.8322-1.556 2.9787-.053.6864.035 1.3765.258 2.0277.223.6511.577 1.2496 1.039 1.7584-1.694.7758-3.13 2.0239-4.136 3.5955-1.007 1.5716-1.542 3.4004-1.542 5.2686v5.1055h25.261v-6.3884c-.001-.2999-.019-.5994-.054-.8972.639-.0863 1.269-.2213 1.887-.4037 2.054-.579 3.953-1.6087 5.562-3.0146 1.511-1.3512 2.786-2.9462 3.773-4.7192 1.765-3.2493 2.96-6.7788 3.533-10.4342.614-3.4374.969-6.9163 1.064-10.4073v-.1794c-.007-.5215-.117-1.0365-.324-1.5151-.206-.4786-.505-.9115-.879-1.2735-.374-.3621-.816-.6462-1.3-.8359-.485-.1896-1.002-.2812-1.521-.2693z" fill="#2331b5"/><path d="m214.786 101.607-3.041-6.2799c-.622-1.3207-1.545-2.4759-2.694-3.3721-1.15-.8963-2.494-1.5083-3.923-1.7867l-2.682-.5114 3.022-1.2919c.644-.252 1.166-.7433 1.457-1.3717.292-.6284.33-1.3454.108-2.0017l-5.786-15.0906 2.245-2.6916c.063-.0666.098-.1549.098-.2467s-.035-.1801-.098-.2467c-1.189-1.0407-6.59-5.0153-14.441.8972-.045.0324-.081.075-.106.1241s-.038.1034-.038.1585.013.1094.038.1585.061.0916.106.1241l3.147 2.3237-3.389 12.8207c-.249.9242-.171 1.9066.223 2.779.393.8724 1.076 1.5805 1.932 2.003l.742.3678c-1.624.4076-3.11 1.2441-4.304 2.4226-1.193 1.1786-2.051 2.6562-2.483 4.2794l-1.788 6.4774h2.486c0 .135.08.269.134.395l.402 1.086c.617 1.61 1.548 3.082 2.737 4.329 1.189 1.246 2.614 2.243 4.191 2.932s3.275 1.056 4.995 1.08c1.719.024 3.427-.295 5.022-.94 3.738-1.507 5.643-4.979 6.188-8.891z" fill="#2331b5"/><path d="m181.781 92.5905c.616-.4195 1.139-.9632 1.535-1.5965s.655-1.3423.763-2.0819c.384-3.2568-1.288-6.2803-4.534-8.281 0 0-.322-.8972-.894-2.4404-.527-1.3368-1.422-3.0504-3.299-3.5887l-.394-.0179h-.08c-.155-.0093-.31-.0093-.465 0-2.287-.2292-4.595.0779-6.743.8972-.107-.1795-.205-.3679-.313-.5384-.089-.1525-.178-.305-.268-.4396-.175-.2879-.41-.5346-.689-.7233-.278-.1887-.594-.315-.926-.3704-.332-.0553-.671-.0383-.996.0498s-.626.2452-.885.4608h-.063c-.284.2408-.507.5458-.651.89-.144.3441-.204.7176-.176 1.0898s.143.7324.337 1.0511c.193.3186.459.5867.776.7821.224.1435.43.2602.635.3768h.063l.42.2333h.063c-.032 1.0663.082 2.1319.34 3.167.286 1.9469.965 5.9573 1.341 7.7517l-.662-.0539c-3.863-.6459-7.386 1.6419-8.343 6.4418l-1.913 8.6491h8.343c.529 2.913 2.109 5.528 4.439 7.345 2.33 1.818 5.245 2.71 8.189 2.507 2.945-.203 5.711-1.488 7.771-3.608s3.268-4.928 3.395-7.886c-.014-2.077-.591-4.1101-1.668-5.8832-1.078-1.7731-2.615-3.219-4.448-4.1833z" fill="#2331b5"/><path d="m302.828 101.608c-1.232.001-2.44.342-3.492.986s-1.907 1.566-2.472 2.666v-5.258c.001-.6357-.123-1.2655-.364-1.8532-.242-.5878-.597-1.1219-1.044-1.5719-.448-.45-.98-.807-1.565-1.0506-.586-.2436-1.213-.369-1.847-.369h-137.599c-.634 0-1.261.1254-1.847.369-.585.2436-1.117.6006-1.564 1.0506-.448.45-.803.9841-1.045 1.5719-.241.5877-.365 1.2175-.364 1.8532v5.258c-.545-1.063-1.362-1.961-2.367-2.602s-2.162-1.002-3.353-1.045c-1.19-.044-2.37.231-3.419.797s-1.929 1.402-2.55 2.422c-.62 1.02-.959 2.187-.98 3.382-.022 1.195.274 2.374.857 3.416.582 1.042 1.431 1.91 2.459 2.514 1.028.603 2.198.922 3.389.922.45.001.9-.044 1.341-.135v5.069h156.485v-5.069c.441.091.891.136 1.341.135 1.779 0 3.485-.709 4.743-1.971 1.257-1.262 1.964-2.973 1.964-4.758s-.707-3.496-1.964-4.758c-1.258-1.262-2.964-1.971-4.743-1.971z" fill="#25309c"/></svg>