<svg height="94" viewBox="0 0 169 94" width="169" xmlns="http://www.w3.org/2000/svg"><g fill="none" fill-rule="evenodd"><path d="m141.1629 69.4279c2.481 0 4.5 2.019 4.5 4.5s-2.019 4.5-4.5 4.5h-2v2h2c3.584 0 6.5-2.916 6.5-6.5s-2.916-6.5-6.5-6.5h-2v2zm12.5058-26h-1.506v2h1.506c4.411 0 8 3.589 8 8s-3.589 8-8 8h-14.506v2h14.506c5.514 0 10-4.486 10-10s-4.486-10-10-10" fill="#daddf2"/><path d="m22.163 91.428h21.996v-16h-21.996z" fill="#d3d6ed"/><path d="m118.2517 81.4279c-1.103 0-2 .897-2 2s.897 2 2 2c1.104 0 2-.897 2-2s-.896-2-2-2m11 0c-1.103 0-2 .897-2 2s.897 2 2 2c1.104 0 2-.897 2-2s-.896-2-2-2m-22 0c-1.103 0-2 .897-2 2s.897 2 2 2c1.104 0 2-.897 2-2s-.896-2-2-2" fill="#fff"/><path d="m129.2517 87.4279c-2.205 0-4-1.794-4-4s1.795-4 4-4c2.206 0 4 1.794 4 4s-1.794 4-4 4zm-11 0c-2.205 0-4-1.794-4-4s1.795-4 4-4c2.206 0 4 1.794 4 4s-1.794 4-4 4zm-11 0c-2.205 0-4-1.794-4-4s1.795-4 4-4c2.206 0 4 1.794 4 4s-1.794 4-4 4zm-23.083-3.38c0 .553-.448 1-1 1-.553 0-1-.447-1-1v-1c0-.553.447-1 1-1 .552 0 1 .447 1 1zm-5 0c0 .553-.448 1-1 1-.553 0-1-.447-1-1v-1c0-.553.447-1 1-1 .552 0 1 .447 1 1zm-5 0c0 .553-.448 1-1 1-.553 0-1-.447-1-1v-1c0-.553.447-1 1-1 .552 0 1 .447 1 1zm-5 0c0 .553-.448 1-1 1-.553 0-1-.447-1-1v-1c0-.553.447-1 1-1 .552 0 1 .447 1 1zm-5 0c0 .553-.448 1-1 1-.553 0-1-.447-1-1v-1c0-.553.447-1 1-1 .552 0 1 .447 1 1zm-5 0c0 .553-.448 1-1 1-.553 0-1-.447-1-1v-1c0-.553.447-1 1-1 .552 0 1 .447 1 1zm-5 0c0 .553-.448 1-1 1-.553 0-1-.447-1-1v-1c0-.553.447-1 1-1 .552 0 1 .447 1 1zm82.994-8.62h-30.995-1-59.009v16h59.009 31.995z" fill="#fff"/><path d="m44.159 57.4279h-2.065c-.495 3.939-3.859 7-7.931 7-4.071 0-7.436-3.061-7.931-7h-4.069v16h21.996z" fill="#d3d6ed"/><g fill="#fff"><path d="m131.2517 65.4279c0-1.103-.896-2-2-2-1.103 0-2 .897-2 2s.897 2 2 2c1.104 0 2-.897 2-2"/><path d="m125.2517 65.4279c0-2.206 1.795-4 4-4 2.206 0 4 1.794 4 4s-1.794 4-4 4c-2.205 0-4-1.794-4-4zm-7 4c-2.205 0-4-1.794-4-4s1.795-4 4-4c2.206 0 4 1.794 4 4s-1.794 4-4 4zm-11 0c-2.205 0-4-1.794-4-4s1.795-4 4-4c2.206 0 4 1.794 4 4s-1.794 4-4 4zm-23.083-3.38c0 .553-.448 1-1 1-.553 0-1-.447-1-1v-1c0-.553.447-1 1-1 .552 0 1 .447 1 1zm-5 0c0 .553-.448 1-1 1-.553 0-1-.447-1-1v-1c0-.553.447-1 1-1 .552 0 1 .447 1 1zm-5 0c0 .553-.448 1-1 1-.553 0-1-.447-1-1v-1c0-.553.447-1 1-1 .552 0 1 .447 1 1zm-5 0c0 .553-.448 1-1 1-.553 0-1-.447-1-1v-1c0-.553.447-1 1-1 .552 0 1 .447 1 1zm-5 0c0 .553-.448 1-1 1-.553 0-1-.447-1-1v-1c0-.553.447-1 1-1 .552 0 1 .447 1 1zm-5 0c0 .553-.448 1-1 1-.553 0-1-.447-1-1v-1c0-.553.447-1 1-1 .552 0 1 .447 1 1zm-5 0c0 .553-.448 1-1 1-.553 0-1-.447-1-1v-1c0-.553.447-1 1-1 .552 0 1 .447 1 1zm82.994-8.62h-17.995-14-47.009-12v16h59.009 1 30.995z"/><path d="m118.2517 63.4279c-1.103 0-2 .897-2 2s.897 2 2 2c1.104 0 2-.897 2-2s-.896-2-2-2m-11 0c-1.103 0-2 .897-2 2s.897 2 2 2c1.104 0 2-.897 2-2s-.896-2-2-2"/></g><path d="m58.159 36.7316c-.553 0-1-.447-1-1v-1.355c0-.553.447-1 1-1v-2.137c-.553 0-1-.447-1-1v-6.812h-21.996v25.07c3.612.453 6.477 3.319 6.931 6.93h3.065 12v-12.027c0-.553.447-1 1-1z" fill="#7b80d6"/><path d="m131.6629 38.4279c0-3.859 3.141-7 7-7 3.86 0 7 3.141 7 7s-3.14 7-7 7c-3.859 0-7-3.141-7-7zm-10 7c-3.859 0-7-3.141-7-7s3.141-7 7-7c3.86 0 7 3.141 7 7s-3.14 7-7 7zm-17 0c-3.859 0-7-3.141-7-7s3.141-7 7-7c3.86 0 7 3.141 7 7s-3.14 7-7 7zm-21.086.598h4v-14h-4zm-9 0h4v-14h-4zm-9 0h4v-14h-4zm84.586-22.598h-14-15-2.995-59.009v6.812c0 .552-.448 1-1 1v2.136c.552 0 1 .448 1 1v1.356c0 .552-.448 1-1 1v5.669c.552 0 1 .447 1 1v12.027h47.009 12 19.995 12z" fill="#acb0ff"/><path d="m57.159 34.3762v1.355c0 .553.447 1 1 1 .552 0 1-.447 1-1v-1.355c0-.553-.448-1-1-1-.553 0-1 .447-1 1" fill="#000"/><path d="m143.6629 38.4279c0-2.757-2.243-5-5-5s-5 2.243-5 5 2.243 5 5 5 5-2.243 5-5" fill="#7b80d6"/><path d="m133.6629 38.4279c0-2.757 2.243-5 5-5s5 2.243 5 5-2.243 5-5 5-5-2.243-5-5m12 0c0-3.859-3.14-7-7-7-3.859 0-7 3.141-7 7s3.141 7 7 7c3.86 0 7-3.141 7-7" fill="#000"/><path d="m121.6629 33.4279c-2.757 0-5 2.243-5 5s2.243 5 5 5 5-2.243 5-5-2.243-5-5-5" fill="#fff"/><path d="m126.6629 38.4279c0 2.757-2.243 5-5 5s-5-2.243-5-5 2.243-5 5-5 5 2.243 5 5m-5-7c-3.859 0-7 3.141-7 7s3.141 7 7 7c3.86 0 7-3.141 7-7s-3.14-7-7-7" fill="#000"/><path d="m109.6629 38.4279c0-2.757-2.243-5-5-5s-5 2.243-5 5 2.243 5 5 5 5-2.243 5-5" fill="#acb0ff"/><path d="m99.6629 38.4279c0-2.757 2.243-5 5-5s5 2.243 5 5-2.243 5-5 5-5-2.243-5-5m5-7c-3.859 0-7 3.141-7 7s3.141 7 7 7c3.86 0 7-3.141 7-7s-3.14-7-7-7m-51.4942 32.6201c-.553 0-1 .447-1 1v1c0 .553.447 1 1 1 .552 0 1-.447 1-1v-1c0-.553-.448-1-1-1m10 0c-.553 0-1 .447-1 1v1c0 .553.447 1 1 1 .552 0 1-.447 1-1v-1c0-.553-.448-1-1-1m10 0c-.553 0-1 .447-1 1v1c0 .553.447 1 1 1 .552 0 1-.447 1-1v-1c0-.553-.448-1-1-1m10 0c-.553 0-1 .447-1 1v1c0 .553.447 1 1 1 .552 0 1-.447 1-1v-1c0-.553-.448-1-1-1m-25 0c-.553 0-1 .447-1 1v1c0 .553.447 1 1 1 .552 0 1-.447 1-1v-1c0-.553-.448-1-1-1m10 0c-.553 0-1 .447-1 1v1c0 .553.447 1 1 1 .552 0 1-.447 1-1v-1c0-.553-.448-1-1-1m10 0c-.553 0-1 .447-1 1v1c0 .553.447 1 1 1 .552 0 1-.447 1-1v-1c0-.553-.448-1-1-1m49.083 1.3799c0-1.103.897-2 2-2 1.104 0 2 .897 2 2s-.896 2-2 2c-1.103 0-2-.897-2-2m6 0c0-2.206-1.794-4-4-4-2.205 0-4 1.794-4 4s1.795 4 4 4c2.206 0 4-1.794 4-4m-15 2c-1.103 0-2-.897-2-2s.897-2 2-2c1.104 0 2 .897 2 2s-.896 2-2 2m0-6c-2.205 0-4 1.794-4 4s1.795 4 4 4c2.206 0 4-1.794 4-4s-1.794-4-4-4m-11 6c-1.103 0-2-.897-2-2s.897-2 2-2c1.104 0 2 .897 2 2s-.896 2-2 2m0-6c-2.205 0-4 1.794-4 4s1.795 4 4 4c2.206 0 4-1.794 4-4s-1.794-4-4-4m-54.083 20.6201c-.553 0-1 .447-1 1v1c0 .553.447 1 1 1 .552 0 1-.447 1-1v-1c0-.553-.448-1-1-1m10 0c-.553 0-1 .447-1 1v1c0 .553.447 1 1 1 .552 0 1-.447 1-1v-1c0-.553-.448-1-1-1m10 0c-.553 0-1 .447-1 1v1c0 .553.447 1 1 1 .552 0 1-.447 1-1v-1c0-.553-.448-1-1-1m10 0c-.553 0-1 .447-1 1v1c0 .553.447 1 1 1 .552 0 1-.447 1-1v-1c0-.553-.448-1-1-1m-25 0c-.553 0-1 .447-1 1v1c0 .553.447 1 1 1 .552 0 1-.447 1-1v-1c0-.553-.448-1-1-1m10 0c-.553 0-1 .447-1 1v1c0 .553.447 1 1 1 .552 0 1-.447 1-1v-1c0-.553-.448-1-1-1m10 0c-.553 0-1 .447-1 1v1c0 .553.447 1 1 1 .552 0 1-.447 1-1v-1c0-.553-.448-1-1-1m51.083 3.3799c-1.103 0-2-.897-2-2s.897-2 2-2c1.104 0 2 .897 2 2s-.896 2-2 2m0-6c-2.205 0-4 1.794-4 4s1.795 4 4 4c2.206 0 4-1.794 4-4s-1.794-4-4-4m-11 6c-1.103 0-2-.897-2-2s.897-2 2-2c1.104 0 2 .897 2 2s-.896 2-2 2m0-6c-2.205 0-4 1.794-4 4s1.795 4 4 4c2.206 0 4-1.794 4-4s-1.794-4-4-4m-11 6c-1.103 0-2-.897-2-2s.897-2 2-2c1.104 0 2 .897 2 2s-.896 2-2 2m0-6c-2.205 0-4 1.794-4 4s1.795 4 4 4c2.206 0 4-1.794 4-4s-1.794-4-4-4m-100.2314-13c0-.553-.448-1-1-1h-.001c-.834 0-1.51-.676-1.51-1.51 0-.553-.447-1-1-1-.551 0-1 .447-1 1 0 .834-.676 1.51-1.51 1.51-.551 0-1 .447-1 1 0 .552.449 1 1 1 .834 0 1.51.676 1.51 1.51 0 .553.449 1 1 1 .553 0 1-.447 1-1 0-.834.676-1.51 1.51-1.51h.001c.552 0 1-.448 1-1" fill="#000"/><path d="m167.0203 71.0373h-.001c-.834 0-1.51-.676-1.51-1.51 0-.552-.447-1-1-1-.552 0-1 .448-1 1 0 .834-.676 1.51-1.51 1.51-.551 0-1 .448-1 1 0 .553.449 1 1 1 .834 0 1.51.676 1.51 1.51v.001c0 .551.448 1 1 1 .553 0 1-.449 1-1v-.001c0-.834.676-1.51 1.51-1.51h.001c.552 0 1-.447 1-1 0-.552-.448-1-1-1" fill="#7b80d6"/><path d="m13.9363 43.0617c.256 0 .512-.098.707-.293l1.183-1.184c.39-.39.39-1.024 0-1.414-.391-.39-1.025-.39-1.414 0l-1.183 1.184c-.391.391-.391 1.023 0 1.414.195.195.451.293.707.293m-5.916 5.916c.256 0 .512-.098.707-.293l1.183-1.184c.39-.39.39-1.023 0-1.414-.391-.39-1.024-.39-1.414 0l-1.183 1.184c-.391.391-.391 1.023 0 1.414.195.195.451.293.707.293m6.3916-.2929c.195.195.451.293.707.293s.512-.098.707-.293c.391-.391.391-1.023 0-1.414l-1.183-1.184c-.39-.39-1.023-.39-1.414 0-.39.391-.39 1.024 0 1.414zm-5.916-5.9161c.195.195.451.293.707.293s.512-.098.707-.293c.391-.391.391-1.023 0-1.414l-1.183-1.184c-.39-.39-1.023-.39-1.414 0-.39.39-.39 1.024 0 1.414z" fill="#fff"/><g fill="#7b80d6"><path d="m65.577 46.026h4v-14h-4z"/><path d="m74.577 46.026h4v-14h-4z"/><path d="m83.577 46.026h4v-14h-4z"/></g><path d="m34.1629 62.4279c3.309 0 6-2.691 6-6s-2.691-6-6-6-6 2.691-6 6 2.691 6 6 6" fill="#acb0ff"/><path d="m119.1678 21.4279c.925 0 1.79-.451 2.32-1.208l12.755-18.22h-60.645l-13.6 19.428z" fill="#236136"/><path d="m136.163 2.744-13.079 18.684h12.079 14.079z" fill="#62c483"/><path d="m33.209 14.056v-8.975l-10.538 4.488z" fill="#d3d6ed"/><path d="m33.2088 6.5939v5.949c0 .717-.732 1.201-1.392.92l-6.986-2.974c-.81-.346-.81-1.496 0-1.84l6.986-2.975c.66-.281 1.392.203 1.392.92zm103.954 65.834c0 .552-.447 1-1 1h-29.995-1-58.009c-.553 0-1-.448-1-1v-14c0-.553.447-1 1-1h11 47.009 14 16.995c.553 0 1 .447 1 1zm-114 3h19.996c.552 0 1 .447 1 1v14c0 .552-.448 1-1 1h-19.996c-.552 0-1-.448-1-1v-14c0-.553.448-1 1-1zm0-18h3.069c.496 3.939 3.86 7 7.931 7 4.072 0 7.437-3.061 7.931-7h1.065c.552 0 1 .447 1 1v14c0 .552-.448 1-1 1h-19.996c-.552 0-1-.448-1-1v-14c0-.553.448-1 1-1zm110.159-54.113-11.834 16.905c-.53.757-1.395 1.208-2.32 1.208h-57.39c-.75 0-1.189-.845-.758-1.459l12.329-17.612c.156-.224.412-.357.684-.357h58.605c.675 0 1.072.761.684 1.315zm1.841 18.113h-10.158c-.809 0-1.283-.911-.819-1.573l11.158-15.941c.398-.568 1.241-.568 1.638 0l11.159 15.941c.464.662-.01 1.573-.82 1.573zm3 34h-19.995-12-44.505c-1.383 0-2.504-1.121-2.504-2.504v-9.523c0-.553-.448-1-1-1-.553 0-1 .447-1 1v10.889c0 .628-.51 1.138-1.138 1.138h-10.862-2.124c-.519 0-.976-.352-1.097-.856-.697-2.921-2.998-5.222-5.918-5.919-.505-.121-.857-.578-.857-1.097v-22.99c0-.629.51-1.138 1.138-1.138h19.72c.628 0 1.138.509 1.138 1.138v5.674c0 .552.447 1 1 1 .552 0 1-.448 1-1v-4.308c0-1.383 1.121-2.504 2.504-2.504h56.505 2.995 15 11.718c1.261 0 2.282 1.021 2.282 2.282v27.436c0 1.26-1.021 2.282-2.282 2.282zm-110 1c0-3.309 2.692-6 6-6 3.309 0 6 2.691 6 6s-2.691 6-6 6c-3.308 0-6-2.691-6-6zm77.005 35h-58.009c-.553 0-1-.448-1-1v-14c0-.553.447-1 1-1h58.009 1 29.995c.553 0 1 .447 1 1v14c0 .552-.447 1-1 1zm34.995-34h11c.553 0 1-.448 1-1v-11-2-21c0-.009-.005-.016-.005-.024-.003-.117-.025-.231-.068-.34-.011-.027-.026-.049-.038-.074-.023-.046-.04-.093-.07-.135l-15-21.428c-.012-.019-.035-.024-.049-.042-.183-.228-.453-.385-.77-.385h-63.086c-.326 0-.632.159-.819.426l-12.935 18.478c-1.106 1.582-2.916 2.524-4.847 2.524h-17.313c-1.104 0-2-.896-2-2v-3.575c.027-.092.046-.187.046-.284v-12c0-.336-.169-.65-.449-.834-.28-.187-.636-.219-.943-.086l-14.09 6c-.37.157-.609.519-.609.92 0 .4.239.762.609.92l13.436 5.721v6.218 26.069c-3.611.453-6.476 3.32-6.931 6.931h-5.069c-.552 0-1 .447-1 1v18 12.155c0 2.676-2.169 4.845-4.845 4.845h-8.063c-.552 0-1 .447-1 1s.448 1 1 1h13.908 23.996 61.009 31.995 13.092c.553 0 1-.447 1-1s-.447-1-1-1h-7.247c-2.676 0-4.845-2.169-4.845-4.845v-6.155-2-4-5-2-4-2-3c0-.553.448-1 1-1z" fill="#000"/></g></svg>