<svg enable-background="new 0 0 18 18" viewBox="0 0 18 18" xmlns="http://www.w3.org/2000/svg"><g fill="#fff"><path d="m5.8.1.8 1.4c-1.5.8-2.5 2.3-2.5 3.9h4.9 4.8c0-1.7-1-3.1-2.5-3.9l.8-1.4v-.1c-.1 0-.1 0-.1 0l-.8 1.5c-.8-.3-1.5-.4-2.2-.4-.8 0-1.5.2-2.1.4l-.9-1.5s0-.1-.1 0-.1.1-.1.1zm.9 2.8c.3 0 .5.2.5.5s-.2.5-.5.5-.5-.3-.5-.5.2-.5.5-.5zm4.6 0c.3 0 .5.2.5.5s-.2.5-.5.5-.5-.2-.5-.5.2-.5.5-.5z"/><path d="m4.1 6v7.3c0 .4.4.8.8.8h1.1v2.5c0 .6.5 1.2 1 1.2.6 0 1-.5 1-1.2v-2.5h1.7v2.5c0 .6.5 1.2 1 1.2.6 0 1-.5 1-1.2v-2.5h1.3c.4 0 .8-.5.8-.8v-7.3z"/><path d="m2.5 5.8c.6 0 1 .5 1 1.2v4.4c0 .6-.5 1.2-1 1.2-.6 0-1-.5-1-1.2v-4.4c-.1-.6.4-1.2 1-1.2z"/><path d="m15.4 5.8c.6 0 1 .5 1 1.2v4.4c0 .6-.5 1.2-1 1.2-.6 0-1-.5-1-1.2v-4.4c0-.6.5-1.2 1-1.2z"/></g></svg>