<svg width="190" height="111" viewBox="0 0 190 111" fill="none" xmlns="http://www.w3.org/2000/svg">
<g clip-path="url(#clip0)">
<path d="M0 8C0 3.58172 3.58172 0 8 0H190V111H0V8Z" fill="#36393F"/>
<path d="M0 8C0 3.58172 3.58172 0 8 0H190V111H0V8Z" fill="#4F545C" fill-opacity="0.16"/>
<g filter="url(#filter0_d)">
<path d="M0 8C0 3.58172 3.58172 0 8 0H190V34H0V8Z" fill="#36393F"/>
<path d="M0 8C0 3.58172 3.58172 0 8 0H190V34H0V8Z" fill="#4F545C" fill-opacity="0.16"/>
</g>
<path d="M0 8C0 3.58172 3.58172 0 8 0H175V111H0V8Z" fill="#2F3136"/>
<g filter="url(#filter1_d)">
<path d="M0 8C0 3.58172 3.58172 0 8 0H175V34H0V8Z" fill="#2F3136"/>
</g>
<path d="M73.434 19.186C73.434 17.898 72.72 17.198 71.642 16.862C72.482 16.512 73.042 15.854 73.042 14.846C73.042 13.32 72.006 12.34 69.836 12.34H67.022V22H69.794C72.062 22 73.434 21.09 73.434 19.186ZM71.32 15C71.32 15.826 70.746 16.316 69.654 16.316H68.8V13.754H69.738C70.858 13.754 71.32 14.23 71.32 15ZM71.656 19.13C71.656 20.096 70.97 20.586 69.794 20.586H68.8V17.632H69.766C70.998 17.632 71.656 18.15 71.656 19.13ZM77.5127 16.26C78.3247 16.26 78.7447 16.848 78.8567 17.898H76.1547C76.2807 16.806 76.8407 16.26 77.5127 16.26ZM80.4807 21.314L80.2847 19.998C79.5427 20.516 78.8287 20.838 77.9607 20.838C76.9247 20.838 76.2107 20.264 76.1407 18.948H80.4807C80.4807 18.85 80.4947 18.682 80.4947 18.542C80.4947 16.624 79.5847 15.098 77.5547 15.098C75.7907 15.098 74.4747 16.428 74.4747 18.626C74.4747 21.062 75.8887 22.14 77.7787 22.14C78.8707 22.14 79.7527 21.818 80.4807 21.314ZM86.864 20.012C86.864 18.738 86.178 18.262 84.428 17.814C83.42 17.548 83.168 17.338 83.168 16.974C83.168 16.61 83.476 16.358 84.106 16.358C84.778 16.358 85.576 16.596 86.248 16.974L86.472 15.574C85.8 15.28 84.988 15.098 84.106 15.098C82.538 15.098 81.614 15.924 81.614 17.1C81.614 18.332 82.3 18.808 83.938 19.228C85.016 19.494 85.31 19.69 85.31 20.166C85.31 20.614 84.918 20.88 84.19 20.88C83.35 20.88 82.454 20.558 81.726 20.082L81.502 21.482C82.146 21.832 83.154 22.14 84.134 22.14C85.912 22.14 86.864 21.342 86.864 20.012ZM91.8085 22L91.5985 20.586C91.4445 20.628 91.2625 20.642 91.0665 20.642C90.4225 20.642 90.1845 20.348 90.1845 19.802V16.61H91.7665L91.5565 15.238H90.1845V12.844L88.5185 13.096V15.238H87.5665V16.61H88.5185V20.082C88.5185 21.622 89.4145 22.112 90.7445 22.112C91.2345 22.112 91.5425 22.056 91.8085 22ZM101.629 13.95V12.34H96.2251V22H98.0731V18.01H101.055L100.789 16.414H98.0731V13.95H101.629ZM106.653 16.764L106.387 15.098C105.337 15.154 104.665 15.812 104.217 16.596L104.007 15.238H102.579V22H104.259V18.122C104.749 17.394 105.603 16.834 106.653 16.764ZM109.637 13.152C109.637 12.578 109.189 12.172 108.643 12.172C108.083 12.172 107.635 12.578 107.635 13.152C107.635 13.712 108.083 14.104 108.643 14.104C109.189 14.104 109.637 13.712 109.637 13.152ZM109.469 22V15.238H107.789V22H109.469ZM113.935 16.26C114.747 16.26 115.167 16.848 115.279 17.898H112.577C112.703 16.806 113.263 16.26 113.935 16.26ZM116.903 21.314L116.707 19.998C115.965 20.516 115.251 20.838 114.383 20.838C113.347 20.838 112.633 20.264 112.563 18.948H116.903C116.903 18.85 116.917 18.682 116.917 18.542C116.917 16.624 116.007 15.098 113.977 15.098C112.213 15.098 110.897 16.428 110.897 18.626C110.897 21.062 112.311 22.14 114.201 22.14C115.293 22.14 116.175 21.818 116.903 21.314ZM124.042 22V17.128C124.042 15.868 123.37 15.098 122.11 15.098C121.2 15.098 120.486 15.588 119.856 16.19L119.702 15.238H118.274V22H119.954V17.436C120.444 16.918 120.976 16.582 121.494 16.582C122.11 16.582 122.362 16.988 122.362 17.576V22H124.042ZM127.083 18.71C127.083 17.226 127.713 16.512 128.595 16.512C129.169 16.512 129.491 16.61 129.911 16.806V19.704C129.463 20.278 128.987 20.642 128.371 20.642C127.629 20.642 127.083 20.026 127.083 18.71ZM125.389 18.808C125.389 21.09 126.523 22.14 127.937 22.14C128.875 22.14 129.533 21.636 130.009 21.062L130.149 22H131.591V11.892L129.911 12.158V15.42C129.505 15.28 128.987 15.168 128.343 15.168C126.775 15.168 125.389 16.288 125.389 18.808ZM138.311 20.012C138.311 18.738 137.625 18.262 135.875 17.814C134.867 17.548 134.615 17.338 134.615 16.974C134.615 16.61 134.923 16.358 135.553 16.358C136.225 16.358 137.023 16.596 137.695 16.974L137.919 15.574C137.247 15.28 136.435 15.098 135.553 15.098C133.985 15.098 133.061 15.924 133.061 17.1C133.061 18.332 133.747 18.808 135.385 19.228C136.463 19.494 136.757 19.69 136.757 20.166C136.757 20.614 136.365 20.88 135.637 20.88C134.797 20.88 133.901 20.558 133.173 20.082L132.949 21.482C133.593 21.832 134.601 22.14 135.581 22.14C137.359 22.14 138.311 21.342 138.311 20.012Z" fill="white"/>
<path d="M0 8C0 3.58172 3.58172 0 8 0H38V111H0V8Z" fill="#292B2F"/>
<path d="M62 18.0001C62 18.7901 60.72 19.3801 60.48 20.0901C60.24 20.8001 60.92 22.0901 60.48 22.6801C60.04 23.2701 58.64 23.0301 58.02 23.4801C57.4 23.9301 57.23 25.3201 56.48 25.5701C55.73 25.8201 54.81 24.7701 54.01 24.7701C53.21 24.7701 52.26 25.7701 51.54 25.5701C50.82 25.3701 50.62 23.9301 50 23.4801C49.38 23.0301 48 23.3001 47.54 22.6801C47.08 22.0601 47.77 20.8401 47.54 20.0901C47.31 19.3401 46 18.7901 46 18.0001C46 17.2101 47.28 16.6201 47.52 15.9101C47.76 15.2001 47.08 13.9101 47.52 13.3201C47.96 12.7301 49.37 13.0001 50 12.5201C50.63 12.0401 50.78 10.6801 51.53 10.4301C52.28 10.1801 53.2 11.2301 54 11.2301C54.8 11.2301 55.75 10.2301 56.47 10.4301C57.19 10.6301 57.38 12.0701 58 12.5201C58.62 12.9701 60 12.7001 60.46 13.3201C60.92 13.9401 60.23 15.1601 60.46 15.9101C60.69 16.6601 62 17.2101 62 18.0001Z" fill="#4F545C"/>
<path d="M54 13L51 16V20L54 23L57 20V16L54 13ZM56 19.6L54 21.6L52 19.6V16.4L54 14.4L56 16.4V19.6Z" fill="white"/>
<path fill-rule="evenodd" clip-rule="evenodd" d="M162.06 14.7268L159 17.7801L155.94 14.7268L155 15.6668L159 19.6668L163 15.6668L162.06 14.7268Z" fill="#B9BBBE"/>
<path d="M46 46C46 43.7909 47.7909 42 50 42H163C165.209 42 167 43.7909 167 46V113H46V46Z" fill="#18191C"/>
<path d="M59.916 59.636C59.916 58.352 59.292 57.764 57.588 57.068C56.436 56.588 56.172 56.336 56.172 55.808C56.172 55.304 56.52 54.92 57.312 54.92C57.96 54.92 58.668 55.172 59.268 55.568L59.508 54.128C58.908 53.816 58.26 53.624 57.324 53.624C55.776 53.624 54.648 54.476 54.648 55.94C54.648 57.224 55.296 57.752 56.904 58.412C58.104 58.928 58.392 59.18 58.392 59.792C58.392 60.44 57.888 60.8 57.156 60.8C56.328 60.8 55.464 60.476 54.768 60.068L54.528 61.508C55.26 61.868 56.124 62.096 57.132 62.096C58.728 62.096 59.916 61.256 59.916 59.636ZM63.4344 57.08C64.1304 57.08 64.4904 57.584 64.5864 58.484H62.2704C62.3784 57.548 62.8584 57.08 63.4344 57.08ZM65.9784 61.412L65.8104 60.284C65.1744 60.728 64.5624 61.004 63.8184 61.004C62.9304 61.004 62.3184 60.512 62.2584 59.384H65.9784C65.9784 59.3 65.9904 59.156 65.9904 59.036C65.9904 57.392 65.2104 56.084 63.4704 56.084C61.9584 56.084 60.8304 57.224 60.8304 59.108C60.8304 61.196 62.0424 62.12 63.6624 62.12C64.5984 62.12 65.3544 61.844 65.9784 61.412ZM70.6459 57.512L70.4179 56.084C69.5179 56.132 68.9419 56.696 68.5579 57.368L68.3779 56.204H67.1539V62H68.5939V58.676C69.0139 58.052 69.7459 57.572 70.6459 57.512ZM76.5041 56.204H75.0641L73.8161 60.236L72.5441 56.12L71.0321 56.312L73.0361 62.036H74.4761L76.5041 56.204ZM79.5712 57.08C80.2672 57.08 80.6272 57.584 80.7232 58.484H78.4072C78.5152 57.548 78.9952 57.08 79.5712 57.08ZM82.1152 61.412L81.9472 60.284C81.3112 60.728 80.6992 61.004 79.9552 61.004C79.0672 61.004 78.4552 60.512 78.3952 59.384H82.1152C82.1152 59.3 82.1272 59.156 82.1272 59.036C82.1272 57.392 81.3472 56.084 79.6072 56.084C78.0952 56.084 76.9672 57.224 76.9672 59.108C76.9672 61.196 78.1792 62.12 79.7992 62.12C80.7352 62.12 81.4912 61.844 82.1152 61.412ZM86.7826 57.512L86.5546 56.084C85.6546 56.132 85.0786 56.696 84.6946 57.368L84.5146 56.204H83.2906V62H84.7306V58.676C85.1506 58.052 85.8826 57.572 86.7826 57.512ZM95.9033 59.588C95.9033 58.484 95.2913 57.884 94.3673 57.596C95.0873 57.296 95.5673 56.732 95.5673 55.868C95.5673 54.56 94.6793 53.72 92.8193 53.72H90.4073V62H92.7833C94.7273 62 95.9033 61.22 95.9033 59.588ZM94.0913 56C94.0913 56.708 93.5993 57.128 92.6633 57.128H91.9313V54.932H92.7353C93.6953 54.932 94.0913 55.34 94.0913 56ZM94.3793 59.54C94.3793 60.368 93.7913 60.788 92.7833 60.788H91.9313V58.256H92.7593C93.8153 58.256 94.3793 58.7 94.3793 59.54ZM102.255 59.096C102.255 57.212 101.103 56.084 99.5193 56.084C97.9473 56.084 96.7953 57.224 96.7953 59.108C96.7953 60.992 97.9353 62.12 99.5073 62.12C101.091 62.12 102.255 60.98 102.255 59.096ZM100.851 59.108C100.851 60.188 100.395 60.944 99.5073 60.944C98.6673 60.944 98.1993 60.164 98.1993 59.096C98.1993 58.028 98.6553 57.26 99.5073 57.26C100.371 57.26 100.851 58.04 100.851 59.108ZM108.583 59.096C108.583 57.212 107.431 56.084 105.847 56.084C104.275 56.084 103.123 57.224 103.123 59.108C103.123 60.992 104.263 62.12 105.835 62.12C107.419 62.12 108.583 60.98 108.583 59.096ZM107.179 59.108C107.179 60.188 106.723 60.944 105.835 60.944C104.995 60.944 104.527 60.164 104.527 59.096C104.527 58.028 104.983 57.26 105.835 57.26C106.699 57.26 107.179 58.04 107.179 59.108ZM114.048 60.296C114.048 59.204 113.46 58.796 111.96 58.412C111.096 58.184 110.88 58.004 110.88 57.692C110.88 57.38 111.144 57.164 111.684 57.164C112.26 57.164 112.944 57.368 113.52 57.692L113.712 56.492C113.136 56.24 112.44 56.084 111.684 56.084C110.34 56.084 109.548 56.792 109.548 57.8C109.548 58.856 110.136 59.264 111.54 59.624C112.464 59.852 112.716 60.02 112.716 60.428C112.716 60.812 112.38 61.04 111.756 61.04C111.036 61.04 110.268 60.764 109.644 60.356L109.452 61.556C110.004 61.856 110.868 62.12 111.708 62.12C113.232 62.12 114.048 61.436 114.048 60.296ZM118.286 62L118.106 60.788C117.974 60.824 117.818 60.836 117.65 60.836C117.098 60.836 116.894 60.584 116.894 60.116V57.38H118.25L118.07 56.204H116.894V54.152L115.466 54.368V56.204H114.65V57.38H115.466V60.356C115.466 61.676 116.234 62.096 117.374 62.096C117.794 62.096 118.058 62.048 118.286 62Z" fill="white"/>
<path d="M151 52L147 56V60L151 64L155 60V56L151 52ZM154 59.59L151 62.59L148 59.59V56.41L151 53.41L154 56.41V59.59Z" fill="#FF73FA"/>
<path d="M149 56.8301V59.1701L151 61.1701L153 59.1701V56.8301L151 54.8301L149 56.8301Z" fill="#FF73FA"/>
<rect x="54" y="73" width="105" height="10" rx="5" fill="white" fill-opacity="0.06"/>
<rect x="54" y="91" width="105" height="10" rx="5" fill="white" fill-opacity="0.06"/>
<rect x="54" y="108" width="105" height="10" rx="5" fill="white" fill-opacity="0.06"/>
<g filter="url(#filter2_d)">
<g clip-path="url(#clip1)">
<path d="M26.7397 59.0685L28.9315 57.3881C30.0902 56.4856 31.5176 55.9969 32.9863 56H40.5114V72H29.516C28.7797 72 28.0735 71.7075 27.5529 71.1869C27.0322 70.6662 26.7397 69.9601 26.7397 69.2238V59.0685Z" fill="white"/>
<path d="M34.6665 56H46.6482C47.1811 56 47.6921 56.2117 48.0689 56.5885C48.4457 56.9652 48.6574 57.4763 48.6574 58.0091C48.6478 58.5356 48.4319 59.0373 48.0562 59.4062C47.6804 59.7752 47.1748 59.9818 46.6482 59.9817H34.6665V56Z" fill="#D4E4FF"/>
<path d="M41.2423 59.9819H37.2606C36.151 59.9819 35.2515 60.8765 35.2515 61.9801C35.2515 63.0837 36.151 63.9783 37.2606 63.9783H41.2423C42.3519 63.9783 43.2515 63.0837 43.2515 61.9801C43.2515 60.8765 42.3519 59.9819 41.2423 59.9819Z" fill="#D4E4FF"/>
<path d="M41.2423 64H37.2606C36.151 64 35.2515 64.8946 35.2515 65.9982C35.2515 67.1017 36.151 67.9963 37.2606 67.9963H41.2423C42.3519 67.9963 43.2515 67.1017 43.2515 65.9982C43.2515 64.8946 42.3519 64 41.2423 64Z" fill="#D4E4FF"/>
<path d="M41.2423 67.9817H37.2606C36.151 67.9817 35.2515 68.8763 35.2515 69.9799C35.2515 71.0834 36.151 71.978 37.2606 71.978H41.2423C42.3519 71.978 43.2515 71.0834 43.2515 69.9799C43.2515 68.8763 42.3519 67.9817 41.2423 67.9817Z" fill="#D4E4FF"/>
<path d="M29.9909 67.5069C29.9208 67.5058 29.8526 67.4845 29.7943 67.4456C29.736 67.4068 29.6901 67.352 29.6621 67.2878C29.6248 67.2004 29.6231 67.1019 29.6572 67.0133C29.6913 66.9246 29.7585 66.8527 29.8448 66.8129C33.4977 65.169 35.0685 63.0138 35.0685 59.6165C35.0685 59.5196 35.107 59.4267 35.1755 59.3582C35.244 59.2897 35.3369 59.2512 35.4338 59.2512C35.5307 59.2512 35.6236 59.2897 35.6921 59.3582C35.7606 59.4267 35.7991 59.5196 35.7991 59.6165C35.7991 63.3425 34.1187 65.6804 30.137 67.4704L29.9909 67.5069Z" fill="#D4E4FF"/>
<path d="M37.7355 63.0502L33.498 58.8128V56H34.667C35.7312 56.0112 36.7508 56.4295 37.5163 57.1689L40.5848 60.2374C40.9529 60.613 41.1591 61.1179 41.1591 61.6438C41.1591 62.1697 40.9529 62.6747 40.5848 63.0502V63.0502C40.4007 63.2425 40.1795 63.3955 39.9347 63.5C39.6898 63.6046 39.4264 63.6585 39.1601 63.6585C38.8939 63.6585 38.6305 63.6046 38.3856 63.5C38.1408 63.3955 37.9196 63.2425 37.7355 63.0502Z" fill="white"/>
<path d="M27.1779 58.7397H26.4473V70.7032H27.1779V58.7397Z" fill="#D4E4FF"/>
<path d="M25.2053 71.927H25.2418C25.9076 71.927 26.4473 71.3873 26.4473 70.7215V58.7215C26.4473 58.0558 25.9076 57.516 25.2418 57.516H25.2053C24.5395 57.516 23.9998 58.0558 23.9998 58.7215V70.7215C23.9998 71.3873 24.5395 71.927 25.2053 71.927Z" fill="white"/>
</g>
</g>
</g>
<defs>
<filter id="filter0_d" x="-1" y="0" width="192" height="36" filterUnits="userSpaceOnUse" color-interpolation-filters="sRGB">
<feFlood flood-opacity="0" result="BackgroundImageFix"/>
<feColorMatrix in="SourceAlpha" type="matrix" values="0 0 0 0 0 0 0 0 0 0 0 0 0 0 0 0 0 0 127 0"/>
<feOffset dy="1"/>
<feGaussianBlur stdDeviation="0.5"/>
<feColorMatrix type="matrix" values="0 0 0 0 0 0 0 0 0 0 0 0 0 0 0 0 0 0 0.2 0"/>
<feBlend mode="normal" in2="BackgroundImageFix" result="effect1_dropShadow"/>
<feBlend mode="normal" in="SourceGraphic" in2="effect1_dropShadow" result="shape"/>
</filter>
<filter id="filter1_d" x="-1" y="0" width="177" height="36" filterUnits="userSpaceOnUse" color-interpolation-filters="sRGB">
<feFlood flood-opacity="0" result="BackgroundImageFix"/>
<feColorMatrix in="SourceAlpha" type="matrix" values="0 0 0 0 0 0 0 0 0 0 0 0 0 0 0 0 0 0 127 0"/>
<feOffset dy="1"/>
<feGaussianBlur stdDeviation="0.5"/>
<feColorMatrix type="matrix" values="0 0 0 0 0 0 0 0 0 0 0 0 0 0 0 0 0 0 0.2 0"/>
<feBlend mode="normal" in2="BackgroundImageFix" result="effect1_dropShadow"/>
<feBlend mode="normal" in="SourceGraphic" in2="effect1_dropShadow" result="shape"/>
</filter>
<filter id="filter2_d" x="8" y="48" width="56.621" height="48" filterUnits="userSpaceOnUse" color-interpolation-filters="sRGB">
<feFlood flood-opacity="0" result="BackgroundImageFix"/>
<feColorMatrix in="SourceAlpha" type="matrix" values="0 0 0 0 0 0 0 0 0 0 0 0 0 0 0 0 0 0 127 0"/>
<feOffset dy="8"/>
<feGaussianBlur stdDeviation="8"/>
<feColorMatrix type="matrix" values="0 0 0 0 0 0 0 0 0 0 0 0 0 0 0 0 0 0 0.2 0"/>
<feBlend mode="normal" in2="BackgroundImageFix" result="effect1_dropShadow"/>
<feBlend mode="normal" in="SourceGraphic" in2="effect1_dropShadow" result="shape"/>
</filter>
<clipPath id="clip0">
<path d="M0 0H190V111H0V0Z" fill="white"/>
</clipPath>
<clipPath id="clip1">
<rect x="24" y="56" width="24.621" height="16" fill="white"/>
</clipPath>
</defs>
</svg>
