<svg xmlns="http://www.w3.org/2000/svg" width="24" height="24" viewBox="0 0 24 24">
  <g fill="none" fill-rule="evenodd">
    <path fill="#4F545C" fill-rule="nonzero" d="M21,10.5826987 C20.0735686,10.2070255 19.0609004,10 18,10 C16.5966102,10 15.276144,10.3628371 14.1279823,11 L7,11 L7,13 L11.7574567,13 C11.2746938,13.6015805 10.8769599,14.2743353 10.5826987,15 L7,15 L7,17 L10.0620401,17 C10.0210962,17.3275942 10,17.6613397 10,18 C10,19.0601671 10.2070636,20.0730114 10.5830326,21 L5,21 C3.8954305,21 3,20.1045695 3,19 L3,5 C3,3.89 3.89,3 5,3 L19,3 C20.1,3 21,3.89 21,5 L21,10.5826987 Z M17,9 L17,7 L7,7 L7,9 L17,9 Z" opacity=".6"/>
    <rect width="24" height="24"/>
  </g>
</svg>
