<svg fill="none" height="24" viewBox="0 0 24 24" width="24" xmlns="http://www.w3.org/2000/svg"><path d="m22.737 12c0 5.93-4.807 10.737-10.737 10.737s-10.737-4.807-10.737-10.737 4.807-10.737 10.737-10.737 10.737 4.807 10.737 10.737z" fill="#b9bbbe"/><path d="m12 13.895c-2.288 0-3.806-.267-5.684-.632-.429-.083-1.263 0-1.263 1.263 0 2.527 2.902 5.684 6.947 5.684s6.947-3.157 6.947-5.684c0-1.263-.834-1.346-1.263-1.263-1.877.365-3.396.632-5.684.632zm-5.053-5.053s0-1.263 1.264-1.263c1.263 0 1.263 1.263 1.263 1.263v1.263s0 1.263-1.263 1.263c-1.264 0-1.264-1.263-1.264-1.263zm7.579 0s0-1.263 1.264-1.263c1.263 0 1.263 1.263 1.263 1.263v1.263s0 1.263-1.264 1.263c-1.263 0-1.263-1.263-1.263-1.263z" fill="#4f545c"/><path d="m6.316 14.526s1.895.632 5.684.632c3.79 0 5.684-.632 5.684-.632s-1.263 2.527-5.684 2.527-5.684-2.527-5.684-2.527z" fill="#fff"/></svg>