<svg fill="none" height="180" viewBox="0 0 320 180" width="320" xmlns="http://www.w3.org/2000/svg" xmlns:xlink="http://www.w3.org/1999/xlink"><linearGradient id="a" gradientUnits="userSpaceOnUse" x1="160" x2="160" y1="0" y2="180"><stop offset="0" stop-color="#202225" stop-opacity=".5"/><stop offset="1" stop-color="#202225"/></linearGradient><clipPath id="b"><path d="m0 0h320v180h-320z"/></clipPath><clipPath id="c"><path d="m-240-400h800v800h-800z"/></clipPath><g clip-path="url(#b)"><path d="m0 0h320v180h-320z" fill="#2f3136"/><g clip-path="url(#c)"><path d="m339.92 120.16v13.6c0 1.76-1.44 3.2-3.2 3.2h-15.2v-3.76c-1.28.4-2.64.56-4 .56s-2.72-.24-4-.56v9.36h8v-2.4h15.2c3.52 0 6.4-2.88 6.4-6.4v-13.6c-1.12 0-2.16 0-3.2 0z" fill="#040505"/><path d="m321.52 96.96c0-3.44.88-6.64 2.4-9.44-1.92-1.12-4.08-1.76-6.4-1.76-7.04 0-12.8 5.76-12.8 12.8v6.4h18.48c-1.12-2.48-1.68-5.2-1.68-8z" fill="#040505"/><path d="m321.52 133.2c6-1.76 10.4-7.28 10.4-13.84v-4.88c-2.24-1.2-4.16-2.8-5.76-4.72h-23.04v9.6c0 6.56 4.4 12.08 10.4 13.84 1.28.4 2.64.56 4 .56s2.72-.24 4-.56zm-4-17.04c2.24 0 4 1.76 4 4s-1.76 4-4 4-4-1.76-4-4 1.76-4 4-4z" fill="#4f545c"/><path d="m326.08 109.76c-1.2-1.44-2.24-3.04-2.96-4.8h-18.48-1.6v4.8z" fill="#72767d"/><path d="m307.92 142.56v6.4h19.2v-6.4h-5.6-8z" fill="#72767d"/><path d="m317.52 124.16c2.209 0 4-1.791 4-4s-1.791-4-4-4-4 1.791-4 4 1.791 4 4 4z" fill="#b9bbbe"/><path d="m302.32 171.04c2.209 0 4-1.791 4-4s-1.791-4-4-4-4 1.791-4 4 1.791 4 4 4z" fill="#4f545c"/><path d="m287.12.319946 11.2 19.359954-11.2 19.36h16l11.2-19.36-11.2-19.359954zm21.04 19.440054c0 1.76-1.44 3.2-3.2 3.2s-3.2-1.44-3.2-3.2 1.44-3.2 3.2-3.2 3.2 1.44 3.2 3.2z" fill="#040405"/><path d="m298.32 19.76-11.2-19.360037h-6.4-16l-11.2 19.360037 11.2 19.36h16 6.4zm-19.2 0c0 1.76-1.44 3.2-3.2 3.2s-3.2-1.44-3.2-3.2 1.44-3.2 3.2-3.2 3.2 1.44 3.2 3.2zm-14.4-8c0-1.76002 1.44-3.20002 3.2-3.20002s3.2 1.44 3.2 3.20002c0 1.76-1.44 3.2-3.2 3.2-1.84 0-3.2-1.44-3.2-3.2zm19.2 19.2c-1.76 0-3.2-1.44-3.2-3.2s1.44-3.2 3.2-3.2 3.2 1.44 3.2 3.2-1.44 3.2-3.2 3.2z" fill="#4f545c"/><path d="m301.76 19.7601c0 1.76 1.44 3.2 3.2 3.2s3.2-1.44 3.2-3.2-1.44-3.2-3.2-3.2-3.2 1.44-3.2 3.2z" fill="#4f545c"/><path d="m239.12 72.96c5.52 0 10.16 3.76 11.52 8.8h16.24c-1.6-13.92-13.44-24.8-27.84-24.8s-26.24 10.88-27.84 24.8h16.24c1.52-5.12 6.16-8.8 11.68-8.8z" fill="#72767d"/><path d="m239.12 96.96c-5.52 0-10.16-3.76-11.52-8.8h-16.24c1.6 13.92 13.44 24.8 27.84 24.8s26.24-10.88 27.84-24.8h-16.24c-1.6 5.04-6.24 8.8-11.68 8.8z" fill="#040505"/><path d="m251.12 84.96c0 1.12-.16 2.16-.48 3.2h16.24 2.56v-6.4h-2.56-16.24c.24.96.48 2.08.48 3.2z" fill="#36393f"/><path d="m227.52 88.16c-.32-1.04-.48-2.08-.48-3.2s.16-2.16.48-3.2h-16.24-2.56v6.4h2.56z" fill="#36393f"/><path d="m239.12 96.96c5.52 0 10.16-3.76 11.52-8.8.32-1.04.48-2.08.48-3.2s-.16-2.16-.48-3.2c-1.44-5.04-6-8.8-11.52-8.8s-10.16 3.76-11.52 8.8c-.32 1.04-.48 2.08-.48 3.2s.16 2.16.48 3.2c1.36 5.04 6 8.8 11.52 8.8zm-6.4-12c0-3.52 2.88-6.4 6.4-6.4s6.4 2.88 6.4 6.4-2.88 6.4-6.4 6.4c-3.6 0-6.4-2.88-6.4-6.4z" fill="#4f545c"/><path d="m239.12 91.36c3.535 0 6.4-2.8654 6.4-6.4s-2.865-6.4-6.4-6.4-6.4 2.8654-6.4 6.4 2.865 6.4 6.4 6.4z" fill="#b9bbbe"/><path d="m33.6 47.76h36.8c8.8 0 16-7.2 16-16v-49.6h-52.8zm35.2-19.2c-1.76 0-3.2-1.44-3.2-3.2s1.44-3.2 3.2-3.2 3.2 1.44 3.2 3.2-1.44 3.2-3.2 3.2zm8 8c-1.76 0-3.2-1.44-3.2-3.2s1.44-3.2 3.2-3.2 3.2 1.44 3.2 3.2-1.44 3.2-3.2 3.2zm-36.8-48h6.4 27.2 6.4v25.6h-6.4-27.2-6.4zm0 37.6h4.8v-4.8h6.4v4.8h4.8v6.4h-4.8v4.8h-6.4v-4.8h-4.8z" fill="#4f545c"/><path d="m46.4-11.4399h-6.4v25.6h6.4z" fill="#36393f"/><path d="m80.0001-11.4399h-6.4v25.6h6.4z" fill="#36393f"/><path d="m44.8 37.36h6.4v-4.8h4.8v-6.4h-4.8v-4.8h-6.4v4.8h-4.8v6.4h4.8z" fill="#040405"/><path d="m73.6-11.4399h-27.2v25.6h27.2z" fill="#72767d"/><path d="m68.8001 28.56c1.7673 0 3.2-1.4327 3.2-3.2s-1.4327-3.2-3.2-3.2-3.2 1.4327-3.2 3.2 1.4327 3.2 3.2 3.2z" fill="#b9bbbe"/><path d="m76.8001 36.5601c1.7673 0 3.2-1.4327 3.2-3.2001 0-1.7673-1.4327-3.2-3.2-3.2s-3.2 1.4327-3.2 3.2c0 1.7674 1.4327 3.2001 3.2 3.2001z" fill="#b9bbbe"/><path d="m112 81.28h-17.6001v10h17.6001z" fill="#b9bbbe"/><path d="m80.8 112.08v39.2h12 20.8 12v-39.2l-12-8v-6.4h-20.8v6.4zm37.6 7.2v24.8h-30.4v-24.8zm-14-7.92c1.36 0 2.4 1.04 2.4 2.4s-1.04 2.4-2.4 2.4-2.4-1.04-2.4-2.4 1.04-2.4 2.4-2.4z" fill="#4f545c"/><path d="m88 144.08h30.4v-24.8h-30.4zm22.4-20.8c2.24 0 4 1.76 4 4s-1.76 4-4 4-4-1.76-4-4 1.76-4 4-4z" fill="#18191c"/><path d="m117.6 97.68v-6.4h-5.6-17.6-5.6v6.4h4 20.8z" fill="#72767d"/><path d="m110.4 131.28c2.209 0 4-1.791 4-4s-1.791-4-4-4-4 1.791-4 4 1.791 4 4 4z" fill="#4f545c"/><path d="m104.4 116.16c1.325 0 2.4-1.074 2.4-2.4 0-1.325-1.075-2.4-2.4-2.4s-2.4 1.075-2.4 2.4c0 1.326 1.075 2.4 2.4 2.4z" fill="#18191c"/><path d="m272.72 19.7601c0 1.76 1.44 3.2 3.2 3.2s3.2-1.44 3.2-3.2-1.44-3.2-3.2-3.2c-1.84 0-3.2 1.44-3.2 3.2z" fill="#b9bbbe"/><path d="m283.92 30.96c1.768 0 3.2-1.4327 3.2-3.2s-1.432-3.1999-3.2-3.1999c-1.767 0-3.2 1.4326-3.2 3.1999s1.433 3.2 3.2 3.2z" fill="#b9bbbe"/><path d="m267.92 14.96c1.767 0 3.2-1.4327 3.2-3.2 0-1.76726-1.433-3.19994-3.2-3.19994s-3.2 1.43268-3.2 3.19994c0 1.7673 1.433 3.2 3.2 3.2z" fill="#b9bbbe"/><path d="m177.6 160.16h6.4v-4.8h4.8v-6.4h-4.8v-4.8h-6.4v4.8h-4.8v6.4h4.8z" fill="#040405"/><path d="m206.4 151.36c1.767 0 3.2-1.433 3.2-3.2s-1.433-3.2-3.2-3.2-3.2 1.433-3.2 3.2 1.433 3.2 3.2 3.2z" fill="#b9bbbe"/><path d="m214.4 159.36c1.767 0 3.2-1.433 3.2-3.2s-1.433-3.2-3.2-3.2-3.2 1.433-3.2 3.2 1.433 3.2 3.2 3.2z" fill="#b9bbbe"/><path d="m188 170.24c2.209 0 4-1.791 4-4s-1.791-4-4-4-4 1.791-4 4 1.791 4 4 4z" fill="#202225"/><path d="m202.4 170.24c2.209 0 4-1.791 4-4s-1.791-4-4-4-4 1.791-4 4 1.791 4 4 4z" fill="#202225"/><path d="m179.2 30.16h-1.36l-.4 4.8h1.76c3.12 0 5.6 2.48 5.6 5.6s-2.48 5.6-5.6 5.6h-2.64l-.4 4.8001h3.04c5.76 0 10.4-4.6401 10.4-10.4001s-4.64-10.4-10.4-10.4z" fill="#040405"/><path d="m131.2 46.16c-3.12 0-5.6-2.48-5.6-5.6s2.48-5.6 5.6-5.6h1.76l-.4-4.8h-1.36c-5.76 0-10.4 4.64-10.4 10.4s4.64 10.4001 10.4 10.4001h3.04l-.4-4.8001z" fill="#040405"/><path d="m159.2 68.5601h-8v13.1999h8z" fill="#040405"/><path d="m143.2 81.76v6.4h24v-6.4h-8-8z" fill="#4f545c"/><path d="m147.2 68.56h4 8 4v-5.6h-16z" fill="#36393f"/><path d="m177.44 34.96.4-4.8.32-4h-45.92l.32 4 .4 4.8.88 11.2.4 4.8.16 1.68c.48 5.84 5.36 10.32 11.2 10.32h1.68 16 1.68c5.84 0 10.72-4.48 11.2-10.32l.16-1.68.4-4.8z" fill="#4f545c"/><path d="m183.2 26.16v-8h-56v8h5.04 45.92z" fill="#72767d"/><path d="m29.28 120.16v13.6c0 1.76-1.44 3.2-3.2 3.2h-15.2v-3.76c-1.27999.4-2.63999.56-3.99999.56s-2.72-.24-4.00001-.56v9.36h8v-2.4h15.2c3.52 0 6.4-2.88 6.4-6.4v-13.6c-1.04 0-2.16 0-3.2 0z" fill="#040505"/><path d="m30.8801 116.96c-1.68 0-3.28-.24-4.8-.56v3.76h3.2 3.2 3.2v-3.76c-1.6.32-3.2.56-4.8.56z" fill="#4f545c"/><path d="m10.8801 96.96c0-3.44.88-6.64 2.4-9.44-1.92-1.12-4.08002-1.76-6.40002-1.76-7.040003 0-12.8 5.76-12.8 12.8v6.4h18.48002c-1.12-2.48-1.68-5.2-1.68-8z" fill="#040505"/><path d="m6.87999 133.76c1.36 0 2.72-.24 4.00001-.56 6-1.76 10.4-7.28 10.4-13.84v-4.88c-2.24-1.2-4.16-2.8-5.76-4.72h-23.04002v9.6c0 6.56 4.4 12.08 10.40001 13.84 1.28.32 2.56.56 4 .56zm0-17.6c2.24 0 4.00001 1.76 4.00001 4s-1.76001 4-4.00001 4-4-1.76-4-4 1.76-4 4-4z" fill="#4f545c"/><path d="m15.52 109.76c-1.2-1.44-2.24-3.04-2.96-4.8h-18.48002-1.6v4.8z" fill="#72767d"/><path d="m-2.71997 142.56v6.4h19.20007v-6.4h-5.6001-7.99996z" fill="#72767d"/><path d="m6.87999 124.16c2.20913 0 4.00001-1.791 4.00001-4s-1.79088-4-4.00001-4-3.99999 1.791-3.99999 4 1.79086 4 3.99999 4z" fill="#b9bbbe"/><g fill="#18191c"><path d="m33.1086 91.2461-1.1313 1.1314 1.1313 1.1314 1.1314-1.1314z"/><path d="m35.342 107.149-1.1313 1.131 1.1313 1.132 1.1314-1.132z"/><path d="m30.8358 93.5117-1.1313 1.1314 1.1313 1.1313 1.1314-1.1313z"/><path d="m30.8485 107.117-1.1313 1.131 1.1313 1.132 1.1314-1.132z"/><path d="m28.559 91.2705-1.1314 1.1314 1.1314 1.1314 1.1313-1.1314z"/><path d="m26.3208 98.0509-1.1313 1.1314 1.1313 1.1317 1.1313-1.1317z"/><path d="m37.6685 104.838-1.1314 1.131 1.1314 1.132 1.1314-1.132z"/><path d="m26.2825 93.5476-1.1314 1.1314 1.1314 1.1314 1.1313-1.1314z"/><path d="m39.938 102.584-1.1314 1.131 1.1314 1.131 1.1313-1.131z"/><path d="m28.5801 95.832-1.1314 1.1314 1.1314 1.1314 1.1314-1.1314z"/><path d="m21.8353 88.9761-1.1313 1.1313 1.1313 1.1314 1.1314-1.1314z"/><path d="m24.0877 86.7798-1.1314 1.1314 1.1314 1.1314 1.1313-1.1314z"/><path d="m13.2001 87.44c-1.5201 2.8-2.4001 6.08-2.4001 9.44 0 2.88.5601 5.52 1.6801 8 .8 1.76 1.7599 3.36 2.9599 4.8 1.6 1.92 3.5201 3.52 5.7601 4.72 1.52.8 3.12 1.44 4.8 1.84 1.52.4 3.12.56 4.8.56s3.28-.24 4.8-.56c8.72-2.16 15.2-10 15.2-19.4399 0-11.04-8.96-20.0001-20-20.0001-7.6.16-14.16 4.4-17.6 10.64zm5.0399 2.5601c.24-.48.56-.9601.8801-1.3601l.4.4 1.1199-1.1199-.5599-.56c.32-.4.72-.8001 1.12-1.1201l.56.5601 1.12-1.1201-.4-.4c.48-.32.8799-.6399 1.3599-.8799l.1601.16.48-.4801c1.12-.56 2.24-.96 3.44-1.2l-.56.56 1.12 1.1201 1.12-1.1201-.72-.7199c.56-.08 1.2-.16 1.84-.16s1.2.08 1.84.16l-.72.7199 1.12 1.1201 1.12-1.1201-.56-.56c1.2.24 2.4.64 3.44 1.2l.48.4801.16-.16c.48.24.96.5599 1.36.8799l-.4.4 1.12 1.1201.56-.5601c.4.32.8.7201 1.12 1.1201l-.56.56 1.12 1.1199.4-.4c.32.48.64.8801.88 1.3601l-.16.16.48.4799c.56 1.1201.96 2.24 1.2 3.44l-.56-.5599-1.12 1.12 1.12 1.12.72-.72c.08.56.16 1.1999.16 1.8399s-.08 1.2001-.16 1.8401l-.72-.72-1.12 1.12 1.12 1.1199.56-.56c-.24 1.2-.64 2.4-1.2 3.44l-.48.48.16.16c-.24.48-.56.96-.88 1.36l-.4-.4-1.12 1.12.56.56c-.32.4-.72.8-1.12 1.12l-.56-.56-1.12 1.12.4.4c-.48.32-.88.64-1.36.88l-.16-.16-.48.48c-1.12.56-2.24.96-3.44 1.2l.56-.56-1.12-1.12-1.12 1.12.72.72c-.56.08-1.2.16-1.84.16s-1.2-.08-1.84-.16l.72-.72-1.12-1.12-1.12 1.12.56.56c-1.2-.24-2.4-.64-3.44-1.2l-.48-.48-.1601.16c-.48-.24-.9599-.56-1.3599-.88l.4-.4-1.12-1.12-.56.56c-.4-.32-.8-.72-1.12-1.12l.5599-.56-1.1199-1.12-.4.4c-.3201-.48-.6401-.88-.8801-1.36l.1601-.16-.4801-.48c-.56-1.12-.96-2.24-1.2-3.44l.5601.56 1.12-1.1199-1.12-1.12-.72.72c-.08-.56-.16-1.2001-.16-1.8401s.08-1.1999.16-1.8399l.72.72 1.12-1.12-1.12-1.12-.5601.5599c.24-1.2.64-2.4 1.2-3.44l.4801-.4799z"/><path d="m26.3357 84.489-1.1314 1.1315 1.1316 1.1313 1.1313-1.1315z"/><path d="m30.8567 98.0733-1.1314 1.1314 1.1314 1.1313 1.1313-1.1313z"/><path d="m28.5479 100.325-1.1314 1.132 1.1314 1.131 1.1313-1.131z"/><path d="m30.8858 84.4644-1.1314 1.1315 1.1315 1.1314 1.1314-1.1315z"/><path d="m33.0977 100.301-1.1314 1.131 1.1314 1.132 1.1313-1.132z"/><path d="m37.6872 86.7402-1.1313 1.1314 1.1313 1.1314 1.1314-1.1314z"/><path d="m33.1264 95.8193-1.1313 1.1314 1.1313 1.1314 1.1314-1.1314z"/><path d="m35.3501 98.1057-1.1313 1.1314 1.1313 1.1309 1.1314-1.1309z"/><path d="m35.3392 93.5087-1.1313 1.1314 1.1313 1.1314 1.1314-1.1314z"/><path d="m35.3792 84.4963-1.1314 1.1315 1.1315 1.1314 1.1314-1.1316z"/><path d="m42.1694 95.8271-1.1313 1.1314 1.1313 1.1314 1.1314-1.1314z"/><path d="m42.1373 100.321-1.1313 1.131 1.1313 1.131 1.1313-1.131z"/><path d="m42.1452 91.2773-1.1314 1.1313 1.1314 1.1314 1.1313-1.1314z"/><path d="m39.9209 88.991-1.1313 1.1314 1.1313 1.1314 1.1314-1.1314z"/><path d="m33.115 104.874-1.1314 1.132 1.1314 1.131 1.1314-1.131z"/><path d="m26.3345 102.636-1.1314 1.131 1.1314 1.132 1.1314-1.132z"/><path d="m19.5055 91.2976-1.1314 1.1314 1.1314 1.1313 1.1313-1.1313z"/><path d="m33.1342 86.7762-1.1314 1.1313 1.1314 1.1314 1.1313-1.1314z"/><path d="m24.0589 91.2616-1.1314 1.1313 1.1314 1.1314 1.1313-1.1314z"/><path d="m37.6519 91.2451-1.1314 1.1314 1.1314 1.1313 1.1313-1.1313z"/><path d="m35.3648 89.0389-1.1314 1.1314 1.1314 1.1314 1.1314-1.1314z"/><path d="m39.8889 93.4841-1.1313 1.1314 1.1313 1.1314 1.1314-1.1314z"/><path d="m21.8278 98.0188-1.1314 1.1314 1.1314 1.1318 1.1314-1.1318z"/><path d="m21.7891 93.5153-1.1314 1.1314 1.1314 1.1314 1.1313-1.1314z"/><path d="m24.0474 100.317-1.1314 1.131 1.1314 1.131 1.1314-1.131z"/><path d="m26.2986 107.141-1.1314 1.131 1.1314 1.132 1.1313-1.132z"/><path d="m28.5844 86.8006-1.1314 1.1313 1.1314 1.1314 1.1314-1.1314z"/><path d="m26.325 89.0196-1.1314 1.1314 1.1314 1.1314 1.1313-1.1314z"/><path d="m30.8748 88.9951-1.1314 1.1314 1.1314 1.1314 1.1314-1.1314z"/><path d="m37.6763 95.7949-1.1314 1.1314 1.1314 1.1313 1.1313-1.1313z"/><path d="m24.0755 104.855-1.1314 1.131 1.1314 1.131 1.1313-1.131z"/><path d="m28.565 104.899-1.1314 1.131 1.1314 1.131 1.1313-1.131z"/><path d="m30.888 102.6-1.1313 1.131 1.1313 1.132 1.1314-1.132z"/><path d="m21.8486 102.58-1.1313 1.132 1.1313 1.131 1.1314-1.131z"/><path d="m19.5086 100.306-1.1314 1.131 1.1314 1.132 1.1313-1.132z"/><path d="m37.644 100.288-1.1313 1.132 1.1313 1.131 1.1314-1.131z"/><path d="m39.9 98.0815-1.1313 1.1314 1.1313 1.1311 1.1314-1.1311z"/><path d="m24.0833 95.8114-1.1314 1.1314 1.1314 1.1314 1.1314-1.1314z"/><path d="m19.5335 95.8358-1.1314 1.1314 1.1314 1.1314 1.1313-1.1314z"/><path d="m35.3813 102.632-1.1313 1.131 1.1313 1.132 1.1314-1.132z"/></g><path d="m16.72 94.08.56-.5599 1.12 1.1199-1.12 1.1201-.72-.7201c-.08.56-.16 1.2-.16 1.84s.08 1.2001.16 1.8401l.72-.7201 1.12 1.1201-1.12 1.1199-.56-.56c.24 1.2.64 2.4 1.2 3.44l.48.48-.16.16c.24.48.56.96.88 1.36l.4-.4 1.12 1.12-.56.56c.32.4.72.8 1.12 1.12l.56-.56 1.12 1.12-.4.4c.48.32.88.64 1.36.88l.16-.16.48.48c1.12.56 2.24.96 3.44 1.2l-.56-.56 1.12-1.12 1.12 1.12-.72.72c.56.08 1.2.16 1.84.16s1.2-.08 1.84-.16l-.72-.72 1.12-1.12 1.12 1.12-.56.56c1.2-.24 2.4-.64 3.44-1.2l.48-.48.16.16c.48-.24.96-.56 1.36-.88l-.4-.4 1.12-1.12.56.56c.4-.32.8-.72 1.12-1.12l-.56-.56 1.12-1.12.4.4c.32-.48.64-.88.88-1.36l-.16-.16.48-.48c.56-1.12.96-2.24 1.2-3.44l-.56.56-1.12-1.1199 1.12-1.1201.72.7201c.08-.56.16-1.2001.16-1.8401s-.08-1.2-.16-1.84l-.72.7201-1.12-1.1201 1.12-1.1199.56.5599c-.24-1.2-.64-2.4-1.2-3.44l-.48-.4799.16-.1601c-.24-.48-.56-.96-.88-1.36l-.4.4-1.12-1.1199.56-.56c-.32-.4-.72-.8001-1.12-1.1201l-.56.56-1.12-1.12.4-.4c-.48-.32-.88-.64-1.36-.88l-.16.1601-.48-.4801c-1.12-.56-2.24-.96-3.44-1.2l.56.56-1.12 1.1201-1.12-1.1201.72-.7199c-.56-.08-1.2-.16-1.84-.16s-1.2.08-1.84.16l.72.7199-1.12 1.1201-1.12-1.1201.56-.56c-1.2.24-2.4.64-3.44 1.2l-.48.4801-.16-.1601c-.48.24-.96.56-1.36.88l.4.4-1.12 1.12-.56-.56c-.4.32-.8.7201-1.12 1.1201l.56.56-1.12 1.1199-.4-.4c-.32.48-.64.88-.88 1.36l.16.1601-.48.4799c-.56 1.12-.96 2.24-1.2 3.44zm3.92 9.68 1.12-1.12 1.12 1.12-1.12 1.12zm2.32-2.32 1.12-1.12 1.12 1.12-1.12 1.12zm4.48-2.24-1.12 1.12-1.12-1.12 1.12-1.12zm0-2.2399 1.12-1.1201 1.12 1.1201-1.12 1.1199zm1.12 3.3599 1.12 1.12-1.12 1.12-1.12-1.12zm1.2-1.12 1.12-1.12 1.12 1.12-1.12 1.12zm3.36 1.12 1.12 1.12-1.12 1.12-1.12-1.12zm1.12-1.12 1.12-1.12 1.12 1.12-1.12 1.12zm-1.12-1.12-1.12-1.1199 1.12-1.1201 1.12 1.1201zm1.12-3.44 1.12-1.1199 1.12 1.1199-1.12 1.1201zm-1.12-1.1199-1.12-1.1201 1.12-1.12 1.12 1.12zm-1.12 1.1199-1.12 1.1201-1.12-1.1201 1.12-1.1199zm-3.44-1.1199-1.12-1.1201 1.12-1.12 1.12 1.12zm-1.12 1.1199-1.12 1.1201-1.12-1.1201 1.12-1.1199zm-2.24 2.3201-1.12 1.1199-1.12-1.1199 1.12-1.1201zm-2.24 2.2399-1.12 1.12-1.12-1.12 1.12-1.12zm3.36 3.36 1.12 1.12-1.12 1.12-1.12-1.12zm2.24 2.32 1.12 1.12-1.12 1.12-1.12-1.12zm1.2-1.12 1.12-1.12 1.12 1.12-1.12 1.12zm3.36 1.12 1.12 1.12-1.12 1.12-1.12-1.12zm1.12-1.12 1.12-1.12 1.12 1.12-1.12 1.12zm2.24-2.32 1.12-1.12 1.12 1.12-1.12 1.12zm2.32-2.24 1.12-1.12 1.12 1.12-1.12 1.12zm-1.12-1.12-1.12-1.1199 1.12-1.1201 1.12 1.1201zm1.12-3.44 1.12-1.1199 1.12 1.1199-1.12 1.1201zm-1.12-1.1199-1.12-1.1201 1.12-1.12 1.12 1.12zm-2.32-2.2401-1.12-1.1199 1.12-1.1201 1.12 1.1201zm-2.24-2.24-1.12-1.1199 1.12-1.1201 1.12 1.1201zm-1.12 1.1201-1.12 1.1199-1.12-1.1199 1.12-1.1201zm-3.44-1.1201-1.12-1.1199 1.12-1.1201 1.12 1.1201zm-1.12 1.1201-1.12 1.1199-1.12-1.1199 1.12-1.1201zm-2.24 2.2399-1.12 1.1201-1.12-1.1201 1.12-1.12zm-2.24 2.24-1.12 1.1201-1.12-1.1201 1.12-1.1199zm-3.44-1.1199-1.12-1.1201 1.12-1.12 1.12 1.12zm-1.12 3.44 1.12-1.1201 1.12 1.1201-1.12 1.1199zm0 4.4799 1.12-1.12 1.12 1.12-1.12 1.12zm4.56 4.56 1.12-1.12 1.12 1.12-1.12 1.12zm3.36 3.36-1.12-1.12 1.12-1.12 1.12 1.12zm4.56 0-1.12-1.12 1.12-1.12 1.12 1.12zm4.48 0-1.12-1.12 1.12-1.12 1.12 1.12zm2.32-2.24-1.12-1.12 1.12-1.12 1.12 1.12zm2.24-2.24-1.12-1.12 1.12-1.12 1.12 1.12zm3.36-3.44-1.12 1.12-1.12-1.12 1.12-1.12zm0-4.4799-1.12 1.1199-1.12-1.1199 1.12-1.1201zm0-4.5601-1.12 1.1201-1.12-1.1201 1.12-1.12zm-2.24-2.2399-1.12 1.1199-1.12-1.1199 1.12-1.1201zm-2.24-2.24-1.12 1.1199-1.12-1.1199 1.12-1.1201zm-3.44-3.4401 1.12 1.12-1.12 1.1201-1.12-1.1201zm-4.48 0 1.12 1.12-1.12 1.1201-1.12-1.1201zm-4.56 0 1.12 1.12-1.12 1.1201-1.12-1.1201zm-2.24 2.2401 1.12 1.1199-1.12 1.1201-1.12-1.1201zm-2.24 2.3199 1.12 1.1201-1.12 1.1199-1.12-1.1199z" fill="#040405"/><path d="m264.72 134.56-2.4 5.6-5.6 2.4 5.6 2.32 2.4 5.68 2.32-5.68 5.68-2.32-5.68-2.4z" fill="#36393f"/><path d="m180 100.96-2.4 5.6-5.6 2.4 5.6 2.32 2.4 5.68 2.32-5.68 5.68-2.32-5.68-2.4z" fill="#36393f"/><path d="m120.8 1.91998 2.32-5.59998 5.68-2.39999-5.68-2.31998-2.32-5.68003-2.4 5.68003-5.6 2.31998 5.6 2.39999z" fill="#4f545c"/><path d="m72 73.7601c2.2092 0 4-1.7909 4-4.0001 0-2.2091-1.7908-4-4-4-2.2091 0-4 1.7909-4 4 0 2.2092 1.7909 4.0001 4 4.0001z" fill="#36393f"/><path d="m230.32 33.36c2.209 0 4-1.7909 4-4s-1.791-4-4-4-4 1.7909-4 4 1.791 4 4 4z" fill="#36393f"/><path d="m211.2 18.96c2.209 0 4-1.7909 4-4s-1.791-4-4-4-4 1.7909-4 4 1.791 4 4 4z" fill="#4f545c"/><path d="m-23.52.319946 11.2 19.359954-11.2 19.36h15.99999l11.2-19.36-11.2-19.359954zm21.03998 19.440054c0 1.76-1.44 3.2-3.2 3.2s-3.2-1.44-3.2-3.2 1.44-3.2 3.2-3.2 3.2 1.44 3.2 3.2z" fill="#040405"/><path d="m86.4 226.56v-49.6h-52.8v65.6h36.8c8.8 0 16-7.2 16-16zm-30.4.8h-4.8v4.8h-6.4v-4.8h-4.8v-6.4h4.8v-4.8h6.4v4.8h4.8zm12.8-4c-1.76 0-3.2-1.44-3.2-3.2s1.44-3.2 3.2-3.2 3.2 1.44 3.2 3.2-1.44 3.2-3.2 3.2zm8 8c-1.76 0-3.2-1.44-3.2-3.2s1.44-3.2 3.2-3.2 3.2 1.44 3.2 3.2-1.44 3.2-3.2 3.2zm3.2-22.4h-6.4-27.2-6.4v-25.6h6.4 27.2 6.4z" fill="#4f545c"/><path d="m212.8 179.36h19.2l-12-40h-49.6l-12 40h19.2l4.88-9.84c1.12 1.84 3.12 3.12 5.52 3.12 2.88 0 5.36-1.92 6.16-4.56h2.16c.8 2.64 3.2 4.56 6.16 4.56 2.32 0 4.4-1.28 5.52-3.12zm1.6-26.4c1.76 0 3.2 1.44 3.2 3.2s-1.44 3.2-3.2 3.2-3.2-1.44-3.2-3.2 1.44-3.2 3.2-3.2zm-41.6-4h4.8v-4.8h6.4v4.8h4.8v6.4h-4.8v4.8h-6.4v-4.8h-4.8zm15.2 21.28c-2.24 0-4-1.76-4-4s1.76-4 4-4 4 1.76 4 4-1.76 4-4 4zm14.4 0c-2.24 0-4-1.76-4-4s1.76-4 4-4 4 1.76 4 4-1.76 4-4 4zm4-18.88c-1.76 0-3.2-1.44-3.2-3.2s1.44-3.2 3.2-3.2 3.2 1.44 3.2 3.2-1.44 3.2-3.2 3.2z" fill="#72767d"/><path d="m0 0h320v180h-320z" fill="url(#a)"/></g></g></svg>