<svg xmlns="http://www.w3.org/2000/svg" viewBox="0 0 31.43 22">
  <path d="M21.26 16h-1.67A3.64 3.64 0 0 1 16 12.32V10.6a1.45 1.45 0 0 1 1.43-1.47h7.88V7.08h-14c-1.27 2.86-2.57 5.83-3 7a3.65 3.65 0 0 1-3.37 2.31v1.23a6 6 0 0 0 4.16 1.7h12.58a3.64 3.64 0 0 0 3.63-3.63v-.26a3.45 3.45 0 0 1-1.9.57zm-8.43-2.8a1.24 1.24 0 1 1 1.24-1.2 1.24 1.24 0 0 1-1.24 1.2z" fill="#aabff2"/>
  <path d="M12.83 10.72a1.24 1.24 0 0 0 0 2.48 1.24 1.24 0 0 0 0-2.48z"/>
  <path d="M25.56 9.13h-8.13A1.45 1.45 0 0 0 16 10.6v1.72A3.64 3.64 0 0 0 19.59 16h3.82a3.45 3.45 0 0 0 1.9-.57.53.53 0 0 0 .1-.06 3.69 3.69 0 0 0 1.59-3V10.6a1.46 1.46 0 0 0-1.44-1.47zM22 14.4h-1.61a.61.61 0 1 1 0-1.21H22a.61.61 0 1 1 0 1.21zm2.85 0h-.65a.61.61 0 1 1 0-1.21h.61a.61.61 0 0 1 0 1.21z" fill="#cbdaf7"/>
  <path d="M22 13.19h-1.61a.61.61 0 1 0 0 1.21H22a.61.61 0 1 0 0-1.21zM24.81 13.19h-.61a.61.61 0 1 0 0 1.21h.61a.61.61 0 0 0 0-1.21z" fill="#aabff2"/>
  <path d="M2.23 15.37a3.75 3.75 0 0 1-.44-.24v5.78L3.34 22l1.55-1.09v-4.55a3.76 3.76 0 0 1-2.66-.99z" fill="#ef8843"/>
  <path d="M7.29 13.41a3.75 3.75 0 0 1-5.06 2 3.76 3.76 0 0 0 2.66 1 3.65 3.65 0 0 0 3.37-2.31c.45-1.14 1.75-4.11 3-7H10s-1.74 3.84-2.71 6.31z" fill="#d0d9ea"/>
  <path d="M14.46 0l.85.07zM11.32.11A16.07 16.07 0 0 1 13.19 0a16.07 16.07 0 0 0-1.87.11zM21.83 4.3a23 23 0 0 1 3.59.36c-.79-.93-3.82-4-10.11-4.55 4.55 1.09 6.23 3.68 6.52 4.19zM7.29 13.41C8.26 10.94 10 7.08 10 7.08s3.08-2.33 9.41-2.73c-2.2-3-5.83-4-8.08-4.24C3.61.94 0 6.8 0 11.48a4.08 4.08 0 0 0 1.79 3.65 3.77 3.77 0 0 0 5.5-1.72zM.77 10.57A2.86 2.86 0 0 1 3.7 7.85a2.85 2.85 0 0 1 2.18 3.35A2.84 2.84 0 0 1 3 13.92a2.84 2.84 0 0 1-2.23-3.35z" fill="#ebeff7"/>
  <path d="M19.39 4.35c.46 0 .93 0 1.42-.06h1c-.29-.51-2-3.1-6.52-4.19l-.83-.1h-1.27a16.07 16.07 0 0 0-1.87.11c2.24.27 5.87 1.19 8.07 4.24z" fill="#fc964b"/>
  <path d="M20.81 4.29c-.49 0-1 0-1.42.06-6.33.4-9.39 2.73-9.39 2.73h21.43a13.46 13.46 0 0 0-6-2.42 23 23 0 0 0-3.59-.36zM3 13.92a2.84 2.84 0 0 0 2.88-2.72A2.85 2.85 0 0 0 3.7 7.85a2.86 2.86 0 0 0-2.93 2.72A2.84 2.84 0 0 0 3 13.92zm-1.76-3.24a1.9 1.9 0 0 1 2-1.81 1.9 1.9 0 0 1 1.4 2.23 1.89 1.89 0 0 1-1.95 1.8 1.89 1.89 0 0 1-1.45-2.22z" fill="#647096"/>
  <path d="M2.69 12.9a1.89 1.89 0 0 0 1.95-1.8 1.9 1.9 0 0 0-1.45-2.23 1.9 1.9 0 0 0-1.95 1.81 1.89 1.89 0 0 0 1.45 2.22z" fill="#fc964b"/>
</svg>
