<svg width="254" height="144" viewBox="0 0 254 144" fill="none" xmlns="http://www.w3.org/2000/svg">
<path d="M0 8C0 3.58173 3.58172 0 8 0H246C250.418 0 254 3.58172 254 8V144H0V8Z" fill="#808AFF"/>
<g clip-path="url(#clip0_618_63815)">
<path d="M120.412 76.515C112.422 76.4035 108.722 71.5387 108.722 71.5387C112.053 72.636 113.982 71.8203 113.982 71.8203C111.247 69.6256 110.388 64.9486 110.388 64.9486C115.859 70.4413 120.833 70.9166 120.833 70.9166L120.412 76.515Z" fill="#5960FA"/>
<path d="M120.927 70.0598C120.927 70.0598 119.173 83.6448 121.324 96.2675" stroke="#373BE1" stroke-width="1.87" stroke-miterlimit="10" stroke-linecap="round"/>
<path d="M133.903 135.784L130.624 144H142.104C142.217 143.546 142.212 143.071 142.092 142.62C141.971 142.168 141.737 141.755 141.413 141.419C141.089 141.083 140.685 140.835 140.24 140.7C139.794 140.564 139.321 140.545 138.866 140.643C137.598 140.964 136.302 141.16 134.996 141.23L137.182 135.784H133.903Z" fill="#66BCFF"/>
<path d="M114.298 120.762L105.647 118.972L107.108 133.021C109.137 133.162 110.937 129.729 110.388 127.534C109.984 125.902 109.178 123.426 109.113 122.81L114.877 123.984L114.298 120.762Z" fill="#66BCFF"/>
<path d="M138.451 96.2149C138.825 95.6926 141.011 90.7515 136.639 90.1999C129.846 89.349 131.664 94.6422 123.195 93.5213C114.725 92.4005 113.562 98.4859 118.805 101.479L138.451 96.2149Z" fill="#FFE734"/>
<path d="M111.644 86.491C111.11 86.6918 110.625 87.0053 110.222 87.4102C109.818 87.8151 109.506 88.302 109.306 88.8383C110.475 88.8383 118.074 90.5988 118.659 99.4011L119.243 98.8143C119.243 98.8143 116.905 87.0778 111.644 86.491Z" fill="#22C774"/>
<path d="M118.857 100.516C118.857 100.516 117.191 90.8042 110.124 85.9042C110.124 85.9042 109.306 80.6228 115.385 81.4443C115.385 81.4443 121.546 92.8288 120.903 101.261L118.857 100.516Z" fill="#57EBA0"/>
<path d="M119.758 100.663C119.758 100.663 118.659 89.425 122.166 85.3172C122.166 85.3172 126.257 84.7304 126.474 88.4744C122.709 92.1948 121.464 97.4117 121.301 101.49L119.758 100.663Z" fill="#FF6CBA"/>
<path d="M120.529 100.375C120.529 100.375 120.301 87.4651 125.088 83.5569C125.518 83.9087 125.887 84.329 126.181 84.801C126.848 85.8181 127.085 87.0589 126.842 88.2515C126.842 88.2515 123.797 90.1587 121.815 97.4236L120.529 100.375Z" fill="#FF85C6"/>
<path d="M124.27 96.3731C123.412 96.2853 122.545 96.4313 121.762 96.7956C119.822 97.7052 116.081 99.5068 114.836 100.446C114.166 100.885 113.62 101.49 113.249 102.202C112.879 102.914 112.696 103.709 112.72 104.512V106.208L111.311 107.059C109.967 107.869 109.306 108.82 110.142 111.126C110.925 113.256 111.814 116.225 114.234 117.1C116.654 117.974 129.151 114.436 130.092 113.808L130.641 111.061L133.856 97.3355L124.27 96.3731Z" fill="#FFE734"/>
<path d="M164.877 70.0011L161.194 68.8274C160.943 68.7451 160.669 68.7596 160.427 68.868C160.185 68.9764 159.992 69.1711 159.885 69.4143C159.518 70.3811 159.253 71.3843 159.096 72.4071C158.734 71.8203 158.821 70.1185 158.915 69.1091C158.923 69.0125 158.91 68.9154 158.876 68.8244C158.843 68.7335 158.79 68.6509 158.722 68.5827C158.653 68.5144 158.571 68.4621 158.48 68.4294C158.389 68.3966 158.292 68.3843 158.196 68.3932L157.284 68.4753C157.153 68.483 157.027 68.5301 156.922 68.6107C156.818 68.6914 156.74 68.8016 156.699 68.9272C156.203 70.453 156.647 74.4492 156.647 74.4492L155.478 73.2286C155.421 73.175 155.354 73.1333 155.281 73.1059C155.208 73.0786 155.13 73.0662 155.052 73.0695C154.975 73.0727 154.898 73.0916 154.828 73.125C154.757 73.1584 154.694 73.2056 154.642 73.2639L154.11 73.8976C154.03 74.0007 153.986 74.1278 153.986 74.2585C153.986 74.3893 154.03 74.5163 154.11 74.6194L155.279 76.1452C155.547 76.5058 155.708 76.9348 155.744 77.3832C155.781 77.8316 155.69 78.2811 155.484 78.6803L152.994 83.4922C151.644 86.1079 149.741 88.3962 147.419 90.1974C145.097 91.9985 142.411 93.269 139.55 93.9201L131.746 95.6806L135.546 101.162L143.922 97.8754C148.396 96.112 152.095 92.8033 154.356 88.5448L159.616 78.6861H159.698L163.544 76.0571L165.526 71.3625C165.581 71.2311 165.608 71.0894 165.604 70.9469C165.601 70.8043 165.567 70.6641 165.506 70.5355C165.445 70.4069 165.357 70.2927 165.249 70.2006C165.14 70.1085 165.013 70.0405 164.877 70.0011V70.0011Z" fill="#1A9AF5"/>
<path d="M143.372 92.6175C142.137 93.186 140.846 93.6226 139.52 93.9202L134.318 95.0939L136.072 100.076L137.568 100.369L143.922 97.8754C144.629 97.5972 145.32 97.2779 145.991 96.9189C146.476 93.4977 143.705 92.4708 143.372 92.6175Z" fill="#373BE1"/>
<path d="M134.523 110.24C134.523 110.24 140.461 113.808 142.653 117.652C144.091 120.175 140.04 131.976 138.696 135.72C138.57 136.069 138.358 136.38 138.078 136.624C137.799 136.867 137.462 137.035 137.1 137.111L131.717 137.41C128.432 137.41 134.996 123.69 137.182 120.392L130.624 115.451L125.702 111.613L134.523 110.24Z" fill="#0822A5"/>
<path d="M123.294 108.333C121.438 109.127 119.487 109.675 117.49 109.964C117.49 109.964 123.224 105.352 125.147 102.277C125.977 100.95 126.316 99.853 126.24 98.9845C126.158 97.8108 125.696 96.2381 124.603 96.6078C122.528 97.3062 117.864 100.716 113.456 108.779C109.213 116.542 117.811 113.966 123.978 111.408" fill="#1A9AF5"/>
<path d="M138.825 94.0435C138.825 94.0435 126.55 96.1971 124.796 96.5609H124.72H124.592C123.124 97.0539 120.371 98.9082 117.332 102.781C117.332 102.781 118.577 104.976 121.879 106.003C122.671 105.25 123.422 104.454 124.13 103.62L125.685 111.566L134.505 110.193L137.55 105.85C138.966 103.844 139.718 101.443 139.702 98.9845C139.596 97.3095 139.302 95.6519 138.825 94.0435Z" fill="#373BE1"/>
<path d="M127.888 106.93V104.513C127.887 104.258 127.944 104.007 128.055 103.778C128.165 103.55 128.326 103.349 128.525 103.192L130.185 101.854C130.457 101.643 130.785 101.52 131.128 101.501C131.47 101.482 131.81 101.569 132.103 101.749V101.749C132.744 102.135 133.248 102.714 133.542 103.404C133.837 104.094 133.908 104.86 133.745 105.592L133.5 106.719C133.363 107.334 133.022 107.885 132.532 108.279C132.042 108.674 131.433 108.889 130.805 108.89H129.18L127.888 106.93Z" fill="#1A9AF5"/>
<path d="M121.049 70.4414C121.805 70.4414 122.417 69.8266 122.417 69.0682C122.417 68.3099 121.805 67.6951 121.049 67.6951C120.294 67.6951 119.682 68.3099 119.682 69.0682C119.682 69.8266 120.294 70.4414 121.049 70.4414Z" fill="#373BE1"/>
<path d="M126.637 96.2148C126.637 96.2148 130.437 98.3333 130.612 104.049C130.611 104.172 130.576 104.291 130.511 104.395C130.446 104.499 130.354 104.582 130.244 104.636C130.158 104.679 130.064 104.703 129.968 104.706C129.873 104.709 129.777 104.691 129.689 104.653C129.601 104.615 129.522 104.558 129.459 104.486C129.395 104.414 129.348 104.329 129.32 104.237C128.736 102.365 126.795 96.7606 123.235 97.2418C123.235 97.2711 123.919 95.2935 126.637 96.2148Z" fill="#FFB800"/>
<path d="M137.013 94.3662C138.1 95.2465 141.058 98.028 138.825 103.591C138.825 103.591 144.021 99.2134 139.216 93.9026C138.977 93.6444 137.948 92.9461 137.013 94.3662Z" fill="#FFB800"/>
<path d="M123.989 111.408C127.058 110.134 129.525 108.867 129.525 108.867L128.981 105.575C127.146 106.615 125.246 107.536 123.294 108.333" fill="#1A9AF5"/>
<path d="M129.694 96.9425C129.735 97.8873 130.074 98.9847 131.717 100.082C131.717 100.082 133.903 98.9847 133.903 97.8873C133.903 97.8873 134.996 99.5363 136.639 99.5363C136.639 99.5363 137.182 95.141 133.389 94.7889C132.97 94.7575 132.55 94.7575 132.132 94.7889C130.717 94.8593 129.63 95.5224 129.694 96.9425Z" fill="#0822A5"/>
<path d="M131.927 94.8183C132.448 93.8383 132.974 92.7468 133.459 91.6846C133.944 90.6224 134.394 89.5251 134.832 88.4277C135.696 86.2373 136.449 84.0045 137.089 81.7379C137.428 80.6171 137.673 79.4727 137.971 78.3402C138.106 77.7533 138.211 77.2017 138.334 76.6266L138.509 75.7757L138.649 74.9131C139.034 72.6399 139.278 70.3449 139.38 68.0414V67.9357C139.422 67.2081 139.75 66.527 140.292 66.0423C140.834 65.5575 141.546 65.3087 142.271 65.3508C142.995 65.3928 143.674 65.7221 144.157 66.2663C144.639 66.8105 144.887 67.525 144.845 68.2526C144.845 68.3113 144.845 68.3817 144.845 68.4463C144.548 70.9669 144.091 73.466 143.478 75.9283L143.261 76.8496L143.004 77.7592C142.829 78.346 142.665 78.9681 142.484 79.5666C142.092 80.7403 141.724 81.9492 141.28 83.0876C140.42 85.4349 139.462 87.7294 138.357 89.9593C137.814 91.0802 137.252 92.1834 136.662 93.2749L136.259 94.0084C135.785 94.8535 135.306 95.675 134.762 96.5318C134.529 96.8934 134.166 97.151 133.748 97.2512C133.331 97.3514 132.891 97.2866 132.52 97.0701C132.149 96.8536 131.875 96.5021 131.754 96.0883C131.634 95.6746 131.677 95.2303 131.875 94.8476L131.927 94.8183Z" fill="#1A9AF5"/>
<path d="M124.147 103.667C124.72 102.867 125.239 102.03 125.702 101.162C126.246 103.356 124.603 105.985 124.603 105.985L124.147 103.667Z" fill="black"/>
<path d="M144.109 73.1347C144.272 72.0843 141.04 70.9869 140.461 70.4412C140.461 70.4412 141.56 74.279 143.717 75.1358C143.846 74.5666 143.986 73.8976 144.109 73.1347Z" fill="black"/>
<path d="M144.84 73.1818C147.858 73.1818 150.305 70.7252 150.305 67.695C150.305 64.6647 147.858 62.2081 144.84 62.2081C141.821 62.2081 139.374 64.6647 139.374 67.695C139.374 70.7252 141.821 73.1818 144.84 73.1818Z" fill="#1A9AF5"/>
<path d="M146.474 72.0149C147.676 71.6626 148.303 70.1815 147.875 68.7069C147.446 67.2322 146.124 66.3223 144.921 66.6746C143.719 67.0269 143.092 68.508 143.52 69.9827C143.949 71.4574 145.271 72.3672 146.474 72.0149Z" fill="#99E4FF"/>
<path d="M152.769 68.9819C153.138 67.6018 152.639 66.2685 151.656 66.0039C150.673 65.7393 149.577 66.6436 149.208 68.0237C148.84 69.4038 149.338 70.7371 150.322 71.0017C151.305 71.2663 152.401 70.362 152.769 68.9819Z" fill="#99E4FF"/>
<path d="M144.506 69.2325C144.713 69.0845 144.951 68.9879 145.202 68.9508C145.467 68.9167 145.737 68.951 145.985 69.0506C146.223 69.1557 146.439 69.305 146.622 69.4907C146.794 69.6689 146.944 69.8658 147.072 70.0775C147.115 70.1419 147.145 70.2141 147.16 70.2901C147.176 70.366 147.176 70.4442 147.161 70.5203C147.146 70.5963 147.116 70.6686 147.073 70.7331C147.031 70.7976 146.976 70.853 146.912 70.8961C146.848 70.9393 146.776 70.9694 146.7 70.9846C146.624 70.9999 146.546 71 146.471 70.985C146.395 70.97 146.323 70.9402 146.259 70.8973C146.194 70.8543 146.139 70.7991 146.096 70.7348C146.067 70.6909 146.044 70.6436 146.026 70.5939C145.98 70.4436 145.919 70.2982 145.845 70.1597C145.777 70.039 145.69 69.9301 145.588 69.8369C145.484 69.7552 145.361 69.7008 145.231 69.6785C145.086 69.6622 144.938 69.6761 144.799 69.7196H144.74C144.678 69.7405 144.611 69.7381 144.551 69.7128C144.49 69.6875 144.441 69.641 144.413 69.5821C144.384 69.5232 144.378 69.4558 144.395 69.3925C144.412 69.3293 144.452 69.2745 144.506 69.2384V69.2325Z" fill="black"/>
<path d="M151.789 68.3641C151.642 68.361 151.497 68.3911 151.363 68.4521C151.24 68.5062 151.135 68.5936 151.059 68.7045C150.983 68.8237 150.928 68.9545 150.895 69.0918C150.862 69.2481 150.845 69.4073 150.843 69.5671C150.801 69.6854 150.722 69.7872 150.619 69.8575C150.515 69.9278 150.392 69.9629 150.267 69.9576C150.142 69.9524 150.022 69.9071 149.925 69.8283C149.827 69.7496 149.758 69.6416 149.726 69.5202C149.721 69.4773 149.721 69.4339 149.726 69.3911C149.789 69.1608 149.873 68.9369 149.977 68.7221C150.097 68.4984 150.258 68.2993 150.451 68.1353C150.655 67.966 150.898 67.851 151.158 67.8008C151.406 67.7598 151.661 67.7779 151.901 67.8536C151.935 67.863 151.967 67.8792 151.994 67.9013C152.022 67.9234 152.045 67.9509 152.062 67.9821C152.079 68.0133 152.089 68.0477 152.093 68.0831C152.096 68.1185 152.092 68.1542 152.082 68.1881C152.065 68.2454 152.031 68.2959 151.983 68.3319C151.936 68.3678 151.878 68.3874 151.819 68.3876L151.789 68.3641Z" fill="black"/>
<path d="M151.684 58.9102C150.48 58.9102 149.346 59.0217 148.668 60.0075L147.3 61.6917C146.295 62.9593 144.156 65.0953 143.162 66.0753C144.534 65.6069 145.862 65.0178 147.131 64.3148C147.542 64.0847 148.027 64.0247 148.482 64.1474C148.937 64.2701 149.327 64.5659 149.568 64.9721V64.9721C150.98 64.1381 152.181 62.9872 153.075 61.6096C153.239 61.3498 153.332 61.0516 153.345 60.7445C153.359 60.4375 153.292 60.1323 153.151 59.8593C153.01 59.5863 152.801 59.3551 152.544 59.1885C152.286 59.022 151.99 58.9261 151.684 58.9102Z" fill="#FF4DAB"/>
<path d="M146.161 61.6622H144.84C142.11 61.6622 139.854 64.2208 139.444 66.8498C140.637 66.7587 141.814 66.5243 142.951 66.1515L143.162 66.081C144.156 65.101 146.295 62.965 147.3 61.6974L146.161 61.6622Z" fill="#FF85C6"/>
<path d="M133.535 103.327C133.576 103.781 133.485 104.238 133.272 104.641C132.931 105.178 132.407 105.572 131.799 105.75C131.666 105.778 131.548 105.855 131.468 105.966C131.389 106.077 131.354 106.214 131.37 106.35C131.386 106.485 131.452 106.61 131.555 106.699C131.659 106.788 131.791 106.835 131.927 106.83C131.97 106.836 132.013 106.836 132.056 106.83C132.673 106.657 133.236 106.33 133.693 105.88L133.757 105.586C133.93 104.829 133.852 104.036 133.535 103.327V103.327Z" fill="#0087E8"/>
<path d="M115.222 109.964C115.578 110.014 115.937 110.037 116.297 110.035C116.696 110.033 117.094 110.009 117.49 109.964C117.606 109.87 118.331 109.278 119.307 108.427C118.045 108.867 116.702 109.023 115.374 108.884C115.303 108.872 115.23 108.874 115.16 108.89C115.09 108.906 115.024 108.936 114.966 108.978C114.908 109.02 114.858 109.073 114.821 109.135C114.783 109.196 114.759 109.265 114.748 109.336C114.737 109.409 114.741 109.483 114.759 109.554C114.777 109.625 114.81 109.691 114.854 109.75C114.898 109.808 114.953 109.857 115.016 109.894C115.079 109.931 115.149 109.955 115.222 109.964V109.964Z" fill="black"/>
<path d="M131.98 112.711C131.98 112.711 135.078 114.295 136.405 119.817L130.624 115.451L131.98 112.711Z" fill="black"/>
<path d="M112.357 123.385C112.065 121.114 111.644 118.767 113.123 118.767C114.766 118.767 122.967 119.864 127.339 121.513L125.702 111.631L131.717 112.176C133.763 116.091 133.149 122.094 132.664 125.087C132.26 127.557 130.519 128.525 127.596 127.815C124.673 127.105 116.531 126.642 114.602 126.19C112.673 125.738 112.527 124.705 112.357 123.385Z" fill="#0822A5"/>
<path d="M129.291 121.29C128.603 120.857 127.877 120.488 127.123 120.187L127.339 121.478C127.809 121.691 128.264 121.936 128.701 122.211C128.79 122.267 128.893 122.297 128.999 122.299C129.117 122.3 129.233 122.263 129.328 122.192C129.424 122.121 129.493 122.02 129.526 121.906C129.559 121.791 129.554 121.669 129.512 121.558C129.469 121.447 129.392 121.353 129.291 121.29V121.29Z" fill="black"/>
<path d="M130.624 144H142.104C142.194 143.641 142.212 143.268 142.157 142.903H131.051L130.624 144Z" fill="#B0EAFF"/>
<path d="M107.108 133.021C107.535 133.039 107.956 132.922 108.312 132.686L107.015 119.254L105.647 118.972L107.108 133.021Z" fill="#B0EAFF"/>
<path d="M140.835 69.1032C140.835 69.9012 140.976 71.7498 142.794 71.2392C142.818 71.2318 142.84 71.2184 142.858 71.2002C142.876 71.182 142.889 71.1597 142.896 71.1352C142.903 71.1106 142.903 71.0848 142.898 71.0599C142.892 71.035 142.88 71.0119 142.864 70.9927C142.496 70.5702 141.554 69.5022 141.11 69.0034C141.091 68.9766 141.063 68.9568 141.032 68.9471C141 68.9373 140.966 68.9381 140.935 68.9494C140.904 68.9607 140.878 68.9818 140.86 69.0095C140.842 69.0372 140.833 69.0701 140.835 69.1032V69.1032Z" fill="black"/>
<path d="M141.286 70.4411C141.202 70.4321 141.118 70.4321 141.034 70.4411C141.13 70.7493 141.342 71.008 141.624 71.1624C141.907 71.3168 142.238 71.3549 142.548 71.2686C142.442 71.0211 142.266 70.8106 142.041 70.6634C141.817 70.5162 141.554 70.4389 141.286 70.4411V70.4411Z" fill="#FF85C6"/>
<path d="M134.721 141.336C134.137 141.388 133.956 140.749 133.903 140.162C133.821 139.247 134.002 137.744 136.639 139.065C137.732 139.616 137.942 139.734 135.756 141.13C135.619 141.218 135.462 141.271 135.3 141.283L134.721 141.336Z" fill="#B0EAFF"/>
<path d="M109.125 122.962C108.985 122.376 109.598 122.111 110.165 121.982C110.99 121.789 112.346 121.982 111.259 123.743C111.101 123.991 111.026 124.282 111.042 124.576C111.112 125.404 109.774 125.591 109.289 123.508L109.125 122.962Z" fill="#B0EAFF"/>
<path d="M115.935 71.9202C115.163 72.507 113.491 73.3755 110.534 73.264C111.072 73.6764 111.639 74.0509 112.229 74.3849C115.818 74.0504 117.285 72.284 117.361 72.1843L117.799 71.6385L117.18 71.304C115.838 70.5801 114.765 69.4396 114.123 68.053C113.585 67.6892 113.024 67.2784 112.451 66.8148C112.927 68.8979 114.172 70.7223 115.935 71.9202Z" fill="#4950FA"/>
<path d="M203.461 116.266C203.489 116.095 203.479 115.919 203.431 115.752C203.383 115.585 203.298 115.431 203.184 115.301C203.069 115.17 202.927 115.067 202.768 114.999C202.609 114.93 202.436 114.898 202.263 114.905L196.693 114.97C194.44 114.985 192.274 115.836 190.608 117.358C190.362 117.587 190.222 117.739 190.222 117.739C188.958 119.254 187.994 120.997 187.381 122.874C187.329 123.029 187.305 123.192 187.311 123.355C187.327 123.52 187.397 123.674 187.51 123.793C187.624 123.912 187.774 123.99 187.937 124.013C188.505 124.047 189.075 124.047 189.643 124.013C190.228 124.048 190.538 124.658 191.216 124.482C191.335 124.454 191.446 124.396 191.538 124.314C191.629 124.232 191.7 124.128 191.742 124.013L192.414 121.601L192.765 122.639C192.795 122.742 192.858 122.833 192.943 122.898C193.028 122.964 193.131 123 193.238 123.003C193.451 122.997 193.66 122.942 193.849 122.843C194.038 122.743 194.202 122.602 194.328 122.429C194.454 122.257 194.54 122.057 194.578 121.847C194.616 121.636 194.605 121.419 194.547 121.213L194.179 120.368C194.093 120.046 194.077 119.709 194.13 119.38C194.184 119.051 194.307 118.737 194.492 118.459C194.676 118.182 194.917 117.947 195.199 117.77C195.48 117.593 195.796 117.479 196.126 117.434L202.304 117.305C202.59 117.304 202.866 117.198 203.079 117.006C203.293 116.815 203.429 116.552 203.461 116.266V116.266Z" fill="#FF85C6"/>
<path d="M202.246 114.905L199.224 114.94C198.768 115.9 198.105 116.746 197.283 117.417L202.287 117.311C202.444 117.308 202.599 117.275 202.744 117.212C202.888 117.149 203.019 117.058 203.128 116.944C203.237 116.831 203.323 116.696 203.381 116.549C203.439 116.402 203.467 116.246 203.464 116.088C203.462 115.93 203.428 115.774 203.365 115.629C203.303 115.484 203.212 115.353 203.099 115.243C202.986 115.133 202.852 115.047 202.706 114.989C202.559 114.931 202.403 114.902 202.246 114.905Z" fill="black"/>
<path d="M189.678 122.592C189.678 122.592 190.222 120.392 191.315 119.294" stroke="#FF6CBA" stroke-width="1.87" stroke-miterlimit="10" stroke-linecap="round"/>
<path d="M208.266 89.6541C208.266 89.6541 220.845 85.8103 216.362 98.8437L208.266 89.6541Z" fill="#F6C649" stroke="#FFC42B" stroke-width="0.94" stroke-miterlimit="10"/>
<path d="M213.352 92.0833C216.759 97.1535 221.319 103.644 215.526 104.348C212.346 104.729 207.927 103.491 204.549 98.421C201.17 93.3508 200.025 89.7184 203.193 85.9803C206.361 82.2422 209.961 87.0072 213.352 92.0833Z" fill="#FFE734"/>
<path d="M227.509 127.786C227.064 127.909 226.592 127.894 226.155 127.742C225.719 127.59 225.339 127.308 225.066 126.935C223.861 125.321 221.371 126.506 221.097 126.489C221.19 126.401 223.289 125.485 224.183 123.39C225.405 120.527 224.656 119.042 224.124 118.426C224.091 118.387 224.048 118.358 223.999 118.34C223.951 118.323 223.899 118.319 223.848 118.328C223.798 118.336 223.75 118.358 223.711 118.391C223.671 118.424 223.64 118.466 223.622 118.514C222.95 120.274 220.652 121.178 220.652 121.178C218.478 122.052 218.735 123.995 218.94 125.397C219.05 126.17 218.893 126.957 218.496 127.627C218.145 128.214 214.117 132.158 212.65 133.595C212.489 133.756 212.285 133.865 212.063 133.911C211.841 133.957 211.61 133.937 211.399 133.854L208.985 132.944C208.825 132.888 208.678 132.798 208.556 132.679C208.433 132.561 208.338 132.417 208.277 132.258C208.216 132.098 208.19 131.928 208.201 131.757C208.213 131.587 208.261 131.421 208.342 131.272C209.038 129.928 210.47 127.533 210.47 127.533C210.47 127.533 214.842 119.846 214.842 111.613C215.392 97.887 209.921 89.1022 204.455 90.1996C201.533 90.7864 200.866 93.5914 200.89 96.0678C200.89 96.2145 200.89 96.3612 200.89 96.5079V97.1945C200.89 97.6053 200.849 98.0161 200.808 98.4269C200.671 100.069 200.303 101.683 199.715 103.221C199.273 104.317 199.056 105.49 199.078 106.672C199.098 107.497 199.258 108.312 199.551 109.084C200.232 110.762 200.511 112.577 200.364 114.384C200.218 116.19 199.651 117.936 198.709 119.482C197.81 120.894 196.663 122.13 195.325 123.132C188.714 128.085 188.609 130.274 194.074 139.059H214.304C214.304 139.059 219.127 130.79 220.313 129.822C220.711 129.499 221.067 129.382 221.313 129.628C223.937 132.275 226.749 129.758 227.889 128.39C227.944 128.33 227.978 128.254 227.986 128.173C227.993 128.092 227.974 128.01 227.93 127.941C227.887 127.872 227.822 127.82 227.746 127.792C227.67 127.763 227.586 127.761 227.509 127.786V127.786Z" fill="#FF85C6"/>
<path d="M210.458 127.533H191.865C197.879 133.02 208.003 131.911 208.331 131.272C209.026 129.916 210.458 127.533 210.458 127.533Z" fill="black"/>
<path d="M195.302 123.133C193.326 124.611 191.935 125.844 191.099 127.076C194.279 128.889 203.894 132.469 212.095 128.631C212.516 127.909 214.708 120.058 214.825 111.953C214.825 111.953 199.82 117.722 198.686 119.482C197.786 120.894 196.64 122.131 195.302 123.133V123.133Z" fill="#FFC42B"/>
<path d="M207.232 104.771C207.3 104.771 207.367 104.75 207.423 104.709C207.478 104.669 207.519 104.612 207.54 104.546C207.561 104.481 207.56 104.41 207.539 104.345C207.517 104.28 207.475 104.223 207.419 104.184C206.314 103.562 205.864 102.353 205.461 101.414C205.097 100.376 204.817 99.3105 204.625 98.2274C204.368 97.1594 203.836 94.4776 202.146 94.8297C201.293 95.0116 201.158 96.1677 200.831 97.7638C200.831 97.9927 200.831 98.2274 200.784 98.4563C200.656 99.8647 203.999 104.272 207.232 104.771Z" fill="black"/>
<path d="M210.408 99.8772C210.526 98.6872 210.195 97.6797 209.668 97.6268C209.141 97.5739 208.618 98.4957 208.5 99.6857C208.381 100.876 208.712 101.883 209.239 101.936C209.766 101.989 210.289 101.067 210.408 99.8772Z" fill="white"/>
<path d="M209.465 99.712C209.541 98.8963 209.336 98.2098 208.991 98.0983C208.711 98.5825 208.543 99.1241 208.5 99.6827C208.427 100.174 208.413 100.673 208.459 101.167C208.511 101.183 208.564 101.194 208.617 101.203C209.307 101.273 209.377 100.575 209.465 99.712Z" fill="black"/>
<path d="M212.057 103.809C212.158 102.793 211.876 101.933 211.426 101.888C210.976 101.842 210.53 102.629 210.429 103.645C210.328 104.661 210.61 105.521 211.06 105.566C211.509 105.611 211.956 104.824 212.057 103.809Z" fill="white"/>
<path d="M211.247 103.662C211.318 102.969 211.136 102.382 210.844 102.288C210.605 102.703 210.463 103.166 210.429 103.644C210.364 104.061 210.352 104.485 210.394 104.906C210.438 104.921 210.483 104.933 210.528 104.941C211.119 104.999 211.177 104.401 211.247 103.662Z" fill="black"/>
<path d="M214.79 134.523C214.841 134.386 214.836 134.234 214.775 134.101C214.715 133.968 214.605 133.864 214.468 133.812L212.989 133.255L212.639 133.595C212.5 133.729 212.33 133.827 212.144 133.879C211.958 133.931 211.763 133.937 211.575 133.895L214.082 134.839C214.144 134.862 214.209 134.874 214.275 134.875C214.386 134.875 214.495 134.842 214.587 134.779C214.679 134.716 214.749 134.627 214.79 134.523V134.523Z" fill="black"/>
<path d="M198.639 124.353C197.036 125.546 195.612 126.965 194.413 128.567C194.758 128.696 195.12 128.819 195.494 128.942C196.604 127.54 197.891 126.289 199.323 125.222C202.363 122.845 203.117 118.866 203.304 116.789C202.895 116.977 202.503 117.165 202.135 117.376C201.848 119.353 201.042 122.475 198.639 124.353Z" fill="#FFB800"/>
<path d="M210.897 118.209C210.826 118.222 210.759 118.249 210.699 118.289C210.639 118.329 210.587 118.381 210.547 118.441C210.508 118.501 210.48 118.569 210.467 118.64C210.454 118.711 210.455 118.784 210.47 118.854C211.183 122.446 208.623 127.393 206.963 130.127C207.436 130.063 207.916 129.975 208.395 129.869C210.108 126.935 212.259 122.24 211.54 118.637C211.526 118.566 211.498 118.499 211.458 118.439C211.418 118.38 211.367 118.328 211.307 118.289C211.247 118.249 211.18 118.221 211.11 118.207C211.039 118.194 210.967 118.194 210.897 118.209Z" fill="#FFB800"/>
<path d="M207.892 117.129C207.824 117.106 207.752 117.097 207.68 117.103C207.608 117.108 207.538 117.128 207.474 117.161C207.41 117.193 207.353 117.239 207.306 117.294C207.26 117.349 207.224 117.413 207.203 117.481C207.203 117.54 205.244 123.579 203.976 125.591C203.298 126.677 201.983 128.578 200.884 130.145C201.299 130.192 201.714 130.233 202.135 130.268C203.152 128.807 204.274 127.176 204.905 126.161C206.238 124.03 208.161 118.051 208.243 117.798C208.283 117.663 208.269 117.517 208.204 117.392C208.138 117.267 208.026 117.173 207.892 117.129V117.129Z" fill="#FFB800"/>
<path d="M215.924 121.495C214.831 118.197 214.831 116.002 214.831 111.613C214.889 110.175 214.877 108.802 214.831 107.505C212.118 106.695 206.647 115.474 200.095 110.944C200.244 112.45 200.244 113.968 200.095 115.474C199.382 117.821 196.336 120.169 196.266 120.415C201.544 123.971 212.095 123.69 215.924 121.495Z" fill="#2F33E1"/>
<path d="M214.831 112.118L212.416 112.399C212.416 112.399 212.603 115.873 215.006 117.323C214.855 115.592 214.796 113.855 214.831 112.118V112.118Z" fill="black"/>
<path d="M212.416 112.4C212.463 112.642 212.561 112.872 212.704 113.074C212.847 113.275 213.032 113.443 213.245 113.567C213.459 113.69 213.696 113.766 213.941 113.79C214.187 113.813 214.434 113.783 214.667 113.702L221.623 111.267C223.391 110.653 225.008 109.666 226.366 108.374C227.724 107.082 228.791 105.513 229.496 103.773C229.619 103.468 229.683 103.292 229.683 103.292C230.735 100.146 231.28 96.8515 231.297 93.533C231.297 93.2967 231.256 93.0622 231.174 92.8406C231.072 92.6261 230.901 92.452 230.69 92.3457C230.478 92.2394 230.237 92.207 230.005 92.2537C229.42 92.3007 228.532 92.8406 227.696 93.0577C226.86 93.2748 226.182 92.5882 225.358 93.134C225.21 93.23 225.088 93.3599 225 93.513C224.913 93.6661 224.863 93.8379 224.855 94.0142L224.984 98.8908C224.98 98.9573 224.955 99.021 224.914 99.0733C224.873 99.1257 224.817 99.1644 224.754 99.1841C224.691 99.2038 224.623 99.2037 224.559 99.1838C224.496 99.1639 224.44 99.1252 224.399 99.0727L223.581 97.7112C223.522 97.6146 223.43 97.5434 223.322 97.5119C223.213 97.4804 223.097 97.4908 222.996 97.5411V97.5411C222.705 97.6824 222.446 97.8846 222.239 98.1342C222.031 98.3838 221.879 98.675 221.793 98.9884C221.707 99.3017 221.688 99.63 221.738 99.9512C221.789 100.272 221.907 100.579 222.084 100.851L223.224 102.611C223.485 103.01 223.658 103.459 223.731 103.93C223.805 104.4 223.778 104.881 223.652 105.34C223.526 105.8 223.303 106.227 223 106.593C222.696 106.959 222.318 107.256 221.892 107.464L213.545 110.469C213.163 110.609 212.841 110.879 212.636 111.231C212.43 111.583 212.352 111.996 212.416 112.4V112.4Z" fill="#FF85C6"/>
<path d="M227.965 94.5952C228.262 96.9929 228.073 99.4261 227.409 101.749" stroke="#FF6CBA" stroke-width="1.87" stroke-miterlimit="10" stroke-linecap="round"/>
<path d="M227.509 127.786C227.064 127.909 226.592 127.894 226.155 127.742C225.719 127.59 225.339 127.309 225.066 126.935C224.072 125.609 222.207 126.172 221.424 126.407C221.371 126.407 221.342 126.348 221.389 126.319C222.61 125.668 223.59 124.639 224.183 123.385C225.405 120.515 224.651 119.031 224.124 118.42C224.091 118.382 224.048 118.352 223.999 118.335C223.951 118.318 223.899 118.313 223.848 118.322C223.798 118.331 223.75 118.353 223.711 118.385C223.671 118.418 223.64 118.46 223.622 118.508C222.95 120.269 220.652 121.173 220.652 121.173C218.478 122.047 218.735 123.989 218.94 125.392C219.05 126.164 218.893 126.951 218.496 127.622C218.356 127.83 218.2 128.027 218.028 128.209C218.615 127.796 219.235 127.431 219.881 127.117C219.94 127.092 220.006 127.083 220.07 127.091C220.134 127.099 220.195 127.124 220.247 127.163C220.298 127.203 220.339 127.255 220.364 127.315C220.389 127.375 220.398 127.44 220.389 127.504C220.255 128.596 218.987 130.89 219.127 131.295C219.464 130.772 219.856 130.286 220.296 129.846C220.693 129.523 221.05 129.406 221.295 129.652C223.92 132.299 226.731 129.781 227.871 128.414C227.936 128.358 227.978 128.281 227.992 128.196C228.006 128.111 227.99 128.024 227.948 127.95C227.905 127.876 227.838 127.819 227.758 127.789C227.678 127.759 227.59 127.758 227.509 127.786V127.786Z" fill="#FF5EB3"/>
<path d="M205.753 108.163C205.753 108.163 207.67 109.407 208.465 106.989" stroke="#FF6CBA" stroke-width="1.65" stroke-miterlimit="10" stroke-linecap="round"/>
<path d="M205.168 109.964C205.168 109.964 206.337 110.551 206.7 108.732" stroke="#FF6CBA" stroke-width="1.65" stroke-miterlimit="10" stroke-linecap="round"/>
<path d="M201.842 99.4012C201.842 99.4012 204.058 97.318 203.152 100.716L201.842 99.4012Z" fill="white"/>
<path d="M202.719 101.438C202.719 101.438 204.935 99.3544 204.029 102.752L202.719 101.438Z" fill="white"/>
<path d="M207.723 104.477C207.653 105.14 205.537 105.023 202.801 100.082C201.006 96.8427 199.522 98.2686 199.744 100.082C199.874 101.02 199.808 101.975 199.551 102.887C199.222 104.116 199.055 105.382 199.054 106.654C199.054 107.206 206.653 106.654 206.653 106.654L209.359 105.005L207.723 104.477Z" fill="#FF85C6"/>
<path d="M200.223 134.124C200.223 134.124 198.785 136.712 196.588 134.452" stroke="#FF6CBA" stroke-width="1.65" stroke-miterlimit="10" stroke-linecap="round"/>
<path d="M202.024 135.362C202.024 135.362 200.632 136.577 199.621 135.063" stroke="#FF6CBA" stroke-width="1.65" stroke-miterlimit="10" stroke-linecap="round"/>
<path d="M208.383 114.072C208.383 115.204 206.554 117.299 204.292 117.299C203.901 117.325 203.51 117.267 203.143 117.129C202.777 116.991 202.444 116.775 202.168 116.498C201.891 116.22 201.676 115.886 201.539 115.518C201.401 115.15 201.343 114.757 201.369 114.365C201.439 113.233 202.029 114.365 204.292 114.365C206.554 114.365 208.383 112.939 208.383 114.072Z" fill="#4247FF"/>
<path d="M173.662 63.3759C173.304 63.1431 172.998 62.8365 172.767 62.4764C172.535 62.1162 172.382 61.7108 172.318 61.2868L172.102 59.8256C172.095 59.7908 172.077 59.7592 172.051 59.7358C172.024 59.7124 171.991 59.6986 171.956 59.6965V59.6965C171.92 59.6986 171.887 59.7124 171.86 59.7358C171.834 59.7592 171.816 59.7908 171.809 59.8256L171.593 61.2868C171.529 61.7108 171.376 62.1162 171.144 62.4764C170.913 62.8365 170.607 63.1431 170.249 63.3759L170.062 63.4992C170.039 63.5106 170.021 63.5283 170.008 63.5502C169.996 63.5721 169.99 63.5972 169.992 63.6224V63.6224C169.991 63.6482 169.997 63.6737 170.009 63.6964C170.022 63.7191 170.04 63.7381 170.062 63.7515L170.249 63.8689C170.608 64.1023 170.914 64.4099 171.146 64.7711C171.377 65.1323 171.53 65.5389 171.593 65.9638L171.809 67.425C171.816 67.4592 171.834 67.4901 171.861 67.5126C171.887 67.535 171.921 67.5476 171.956 67.5483V67.5483C171.99 67.5476 172.024 67.535 172.05 67.5126C172.077 67.4901 172.095 67.4592 172.102 67.425L172.318 65.9521C172.381 65.5271 172.534 65.1205 172.766 64.7593C172.997 64.3981 173.303 64.0906 173.662 63.8571L173.855 63.7398C173.875 63.7249 173.892 63.7054 173.903 63.683C173.914 63.6605 173.92 63.6358 173.92 63.6107V63.6107C173.92 63.5863 173.915 63.5621 173.904 63.5405C173.892 63.5189 173.876 63.5006 173.855 63.4874L173.662 63.3759Z" fill="#FF6CBA"/>
<path d="M203.169 74.4844C202.923 74.3253 202.713 74.1152 202.554 73.8684C202.395 73.6215 202.29 73.3434 202.246 73.0526L202.094 72.0491C202.091 72.0247 202.079 72.0023 202.061 71.986C202.042 71.9698 202.019 71.9609 201.994 71.9611V71.9611C201.97 71.9621 201.947 71.9714 201.929 71.9874C201.911 72.0034 201.899 72.0252 201.895 72.0491L201.749 73.0526C201.705 73.3433 201.599 73.6212 201.44 73.868C201.281 74.1149 201.071 74.325 200.825 74.4844L200.697 74.5666C200.682 74.5762 200.67 74.5893 200.662 74.6047C200.654 74.62 200.65 74.6372 200.65 74.6546V74.6546C200.65 74.6712 200.654 74.6876 200.662 74.702C200.67 74.7165 200.682 74.7284 200.697 74.7368L200.825 74.8248C201.072 74.9837 201.282 75.1936 201.441 75.4405C201.6 75.6875 201.705 75.9657 201.749 76.2566L201.895 77.2601C201.899 77.2834 201.911 77.3045 201.93 77.3195C201.948 77.3346 201.971 77.3426 201.994 77.3423V77.3423C202.018 77.3439 202.042 77.3364 202.06 77.3211C202.079 77.3058 202.091 77.284 202.094 77.2601L202.246 76.2566C202.288 75.9661 202.392 75.688 202.55 75.441C202.709 75.1941 202.918 74.984 203.163 74.8248L203.298 74.7368C203.312 74.7284 203.324 74.7165 203.332 74.702C203.34 74.6876 203.345 74.6712 203.345 74.6546C203.345 74.6372 203.34 74.62 203.332 74.6047C203.324 74.5893 203.312 74.5762 203.298 74.5666L203.169 74.4844Z" fill="#73DAFF"/>
<path d="M149.054 81.4738C148.854 81.3439 148.685 81.1714 148.558 80.9686C148.432 80.7658 148.352 80.5376 148.323 80.3001L148.2 79.5021C148.198 79.4833 148.189 79.4661 148.175 79.4533C148.161 79.4404 148.143 79.4328 148.124 79.4316V79.4316C148.105 79.4314 148.085 79.4385 148.07 79.4514C148.055 79.4644 148.045 79.4824 148.043 79.5021L147.926 80.3001C147.895 80.5376 147.813 80.7656 147.686 80.9682C147.559 81.1708 147.389 81.3433 147.189 81.4738L147.084 81.5384C147.073 81.5462 147.064 81.5568 147.058 81.5691C147.051 81.5814 147.048 81.595 147.049 81.6088V81.6088C147.048 81.6225 147.051 81.6362 147.058 81.6485C147.064 81.6608 147.073 81.6713 147.084 81.6792L147.189 81.7437C147.389 81.8742 147.559 82.0467 147.686 82.2494C147.813 82.452 147.895 82.6799 147.926 82.9174L148.043 83.7155C148.045 83.7352 148.055 83.7532 148.07 83.7661C148.085 83.7791 148.105 83.7861 148.124 83.7859C148.143 83.7847 148.161 83.7771 148.175 83.7643C148.189 83.7514 148.198 83.7342 148.2 83.7155L148.323 82.9174C148.352 82.68 148.432 82.4517 148.558 82.2489C148.685 82.0461 148.854 81.8736 149.054 81.7437L149.159 81.6792C149.17 81.6713 149.179 81.6608 149.186 81.6485C149.192 81.6362 149.195 81.6225 149.194 81.6088V81.6088C149.195 81.595 149.192 81.5814 149.186 81.5691C149.179 81.5568 149.17 81.5462 149.159 81.5384L149.054 81.4738Z" fill="#FBE573"/>
<path d="M222.95 87.512C222.691 87.3441 222.47 87.1228 222.303 86.8627C222.136 86.6027 222.025 86.31 221.979 86.0039L221.821 84.9476C221.817 84.9227 221.804 84.9002 221.785 84.8841C221.766 84.8679 221.741 84.8592 221.716 84.8596V84.8596C221.691 84.8579 221.666 84.8661 221.646 84.8825C221.626 84.8989 221.614 84.9222 221.611 84.9476L221.453 86.0039C221.407 86.31 221.297 86.6027 221.13 86.8627C220.962 87.1228 220.742 87.3441 220.483 87.512L220.348 87.6001C220.334 87.6097 220.322 87.6228 220.314 87.6382C220.306 87.6535 220.302 87.6707 220.302 87.6881V87.6881C220.302 87.7055 220.306 87.7226 220.314 87.738C220.322 87.7533 220.334 87.7664 220.348 87.7761L220.483 87.8641C220.742 88.0321 220.962 88.2534 221.13 88.5134C221.297 88.7734 221.407 89.0662 221.453 89.3723L221.611 90.4286C221.614 90.454 221.626 90.4773 221.646 90.4937C221.666 90.5101 221.691 90.5183 221.716 90.5166V90.5166C221.741 90.5169 221.766 90.5083 221.785 90.4921C221.804 90.476 221.817 90.4534 221.821 90.4286L221.979 89.3723C222.025 89.0662 222.136 88.7734 222.303 88.5134C222.47 88.2534 222.691 88.0321 222.95 87.8641L223.084 87.7761C223.098 87.7664 223.11 87.7533 223.118 87.738C223.127 87.7226 223.131 87.7055 223.131 87.6881C223.131 87.6707 223.127 87.6535 223.118 87.6382C223.11 87.6228 223.098 87.6097 223.084 87.6001L222.95 87.512Z" fill="#8086FF"/>
<path d="M158.991 113.808L156.653 120.263C156.101 121.814 155.97 123.485 156.273 125.104L158.74 138.531H169.349C169.144 137.58 168.834 136.184 168.495 134.623C167.192 128.696 165.573 123.156 168.869 117.118L158.991 113.808Z" fill="#0822A5"/>
<path d="M166.163 116.419L166.66 121.906C166.758 124.581 167.43 127.203 168.63 129.593L173.89 138.543H185.68L179.11 128.156C177.745 125.823 177.133 123.123 177.357 120.427L177.509 118.59L166.163 116.419Z" fill="#0822A5"/>
<path d="M159.575 116.419C159.575 116.419 164.877 123.168 178.73 126.982L180.916 122.663C180.916 122.663 160.113 118.972 159.575 116.419Z" fill="black"/>
<path d="M156.068 115.246C163.385 120.398 172.002 123.372 180.928 123.825L181.431 121.56L159.055 112.711L156.068 115.246Z" fill="#4247FF"/>
<path d="M168.343 98.4329C168.343 98.4329 167.25 88.005 169.115 82.2131C170.744 81.4064 172.582 81.1276 174.376 81.415C174.376 81.415 173.832 84.7129 174.376 85.8103C174.376 85.8103 177.123 79.4491 181.799 77.1018C181.799 77.1018 189.69 78.6745 191.876 85.8103C191.876 85.8103 188.597 86.9077 187.504 90.1998C187.504 90.1998 190.234 88.005 193.519 88.005C195.155 89.1024 196.798 92.3945 196.248 96.8074C194.354 96.4591 192.398 96.8517 190.783 97.9048C190.783 97.9048 194.062 97.9048 195.705 99.0022C195.309 101.121 194.57 103.161 193.519 105.041C193.519 105.041 188.34 102.846 182.997 105.041L168.343 98.4329Z" fill="#40E991"/>
<path d="M178.192 122.041C178.192 122.041 164.778 118.767 157.822 113.902C157.377 113.594 157.017 113.178 156.777 112.692C156.537 112.206 156.425 111.667 156.45 111.125C156.476 110.583 156.639 110.057 156.924 109.596C157.209 109.135 157.607 108.755 158.079 108.491C161.002 106.924 164.456 104.841 167.8 98.4331L185.294 108.867C185.294 108.867 185.294 114.354 178.192 122.041Z" fill="#2F33E1"/>
<path d="M187.048 119.353C187.862 118.128 188.393 116.735 188.602 115.277C188.81 113.819 188.691 112.332 188.252 110.926L188.217 110.803C187.498 108.483 186.066 106.451 184.125 104.999C180.034 101.965 176.638 99.0313 166.537 96.6664C165.922 96.521 165.367 96.1879 164.948 95.7129C164.53 95.2379 164.268 94.6444 164.199 94.0139C163.951 90.9171 164.061 87.8018 164.526 84.7303C165.07 79.7892 169.992 77.0429 169.992 77.0429C169.448 73.1992 163.977 72.1018 163.977 72.1018C162.334 73.7508 160.657 77.5945 160.657 77.5945C160.113 76.4971 160.657 74.2965 160.657 74.2965L158.512 74.8482C158.512 74.8482 154.683 94.0608 156.32 99.0019C158.184 104.612 165.087 103.943 165.087 103.943C165.087 103.943 183.681 112.745 183.523 112.892C177.813 118.813 176.147 123.725 175.667 126.254C175.565 126.799 175.648 127.363 175.902 127.856C176.156 128.348 176.568 128.741 177.07 128.971C182.068 131.266 184.774 128.097 184.774 128.097C184.692 127.991 184.616 127.88 184.546 127.768C184.113 127.041 183.897 126.204 183.924 125.357C183.95 124.51 184.219 123.689 184.698 122.991L187.048 119.353Z" fill="#2F33E1"/>
<path d="M164.526 84.7306C165.07 79.7896 169.992 77.0432 169.992 77.0432C169.448 73.1995 163.977 71.5564 163.977 71.5564C161.241 73.7511 160.657 77.5948 160.657 77.5948C160.113 76.4975 160.657 74.2969 160.657 74.2969L158.512 74.8485C157.519 76.9942 157.102 79.363 157.302 81.7202C162.334 81.4327 164.515 84.8069 164.515 84.8069L164.526 84.7306Z" fill="#40E991"/>
<path d="M176.345 94.2783C175.761 97.2535 175.761 99.7651 175.077 99.6243C174.393 99.4835 173.247 96.743 173.849 93.756C174.452 90.7691 176.562 88.7035 177.251 88.8443C177.941 88.9851 176.942 91.309 176.345 94.2783Z" fill="white"/>
<path d="M175.942 89.8947C175.885 89.8676 175.824 89.8516 175.761 89.8478C174.901 90.8518 174.281 92.0402 173.949 93.3218C174.012 93.4476 174.115 93.5487 174.241 93.6093C174.779 93.8617 175.603 93.2279 176.071 92.2068C176.538 91.1857 176.492 90.1412 175.942 89.8947Z" fill="black"/>
<path d="M180.998 96.4668C179.023 98.7554 177.813 100.956 177.281 100.492C176.749 100.029 177.099 97.083 179.075 94.7944C181.051 92.5057 183.915 91.737 184.447 92.2006C184.979 92.6642 182.956 94.1782 180.998 96.4668Z" fill="white"/>
<path d="M181.688 92.9461C181.64 92.8968 181.585 92.8553 181.524 92.8229C180.597 93.3233 179.768 93.9873 179.075 94.7829C178.724 95.1861 178.413 95.6224 178.146 96.0856C178.145 96.1013 178.145 96.1169 178.146 96.1326C178.608 96.649 179.771 96.3556 180.741 95.4753C181.711 94.5951 182.156 93.4743 181.688 92.9461Z" fill="black"/>
<path d="M180.928 100.199C180.928 100.199 184.172 96.0912 186.376 98.1569C188.579 100.223 183.868 102.552 180.928 100.199Z" fill="black"/>
<path d="M182.635 101.039C184.388 101.479 186.247 100.822 186.785 99.865C186.317 99.6592 185.811 99.5552 185.3 99.5598C183.997 99.5364 182.91 100.176 182.635 101.039Z" fill="#FF85C6"/>
<path d="M168.343 98.4329L182.956 105.023C184.266 104.489 185.821 105.023 186.773 104.107C185.271 98.9845 181.992 101.76 179.806 98.9845C174.948 92.8932 171.038 93.4977 168.033 93.7559C167.574 95.3016 167.684 96.9619 168.343 98.4329V98.4329Z" fill="#2F33E1"/>
<path d="M188.001 97.3239C188.345 97.695 188.57 98.161 188.649 98.6619C188.727 99.1628 188.654 99.6758 188.439 100.135" stroke="#22C774" stroke-width="1.87" stroke-miterlimit="10" stroke-linecap="round"/>
<path d="M185.347 104.683C184.115 103.482 182.695 102.491 181.144 101.749C181.014 101.706 180.872 101.713 180.747 101.77C180.622 101.827 180.523 101.928 180.469 102.055C180.414 102.181 180.409 102.324 180.454 102.454C180.499 102.584 180.591 102.692 180.712 102.758C181.837 103.294 182.888 103.974 183.839 104.782C184.348 104.73 184.862 104.73 185.347 104.683Z" fill="black"/>
<path d="M167.905 97.0539C168.525 97.2183 169.117 97.4776 169.658 97.8226C169.748 97.8843 169.854 97.9171 169.962 97.9165C170.053 97.9162 170.142 97.8936 170.221 97.8506C170.301 97.8076 170.368 97.7456 170.418 97.6701C170.459 97.6106 170.487 97.5437 170.501 97.4731C170.515 97.4026 170.515 97.33 170.501 97.2595C170.487 97.1889 170.459 97.122 170.418 97.0625C170.378 97.003 170.326 96.9522 170.266 96.9131C169.494 96.4301 168.646 96.0809 167.759 95.8802C167.776 96.2747 167.825 96.6672 167.905 97.0539V97.0539Z" fill="black"/>
<path d="M166.835 118.332C166.486 117.995 166.166 117.63 165.877 117.241C165.419 116.575 165.165 115.79 165.146 114.981C165.133 114.605 165.196 114.229 165.333 113.878C165.689 113.01 166.584 112.487 167.531 111.936C167.905 111.719 168.285 111.496 168.641 111.243C170.243 110.12 171.34 108.408 171.693 106.478C171.773 105.973 171.826 105.464 171.85 104.953C171.885 104.507 171.915 104.09 171.979 103.673C172.06 102.873 172.43 102.13 173.019 101.584C173.221 101.439 173.434 101.311 173.657 101.203C174.152 100.989 174.587 100.656 174.925 100.234C175.213 99.7679 175.386 99.2386 175.428 98.6911C175.428 98.5503 175.463 98.4153 175.492 98.2803C175.671 97.3639 176.155 96.5359 176.866 95.933C176.562 95.6865 176.281 95.4694 175.96 95.2699C175.164 96.0159 174.623 96.9958 174.416 98.0691C174.416 98.2158 174.364 98.3683 174.34 98.5209C174.319 98.897 174.216 99.2638 174.036 99.5948C173.789 99.8675 173.486 100.084 173.148 100.229C172.872 100.364 172.608 100.523 172.359 100.704C171.53 101.414 171.008 102.42 170.903 103.509C170.827 103.973 170.792 104.436 170.763 104.888C170.737 105.36 170.686 105.83 170.611 106.296C170.313 107.939 169.383 109.398 168.022 110.357C167.7 110.58 167.35 110.786 166.981 110.997C165.923 111.619 164.824 112.259 164.322 113.467C164.128 113.96 164.037 114.487 164.053 115.017C164.075 115.944 164.346 116.848 164.836 117.634C165.555 117.939 166.28 118.221 167.005 118.514L166.835 118.332Z" fill="#4247FF"/>
<path d="M180.373 116.026C181.313 114.624 182.628 113.515 184.166 112.828" stroke="black" stroke-width="1.87" stroke-miterlimit="10" stroke-linecap="round"/>
<path d="M181.478 114.354C180.379 112.159 181.232 109.242 181.232 109.242" stroke="black" stroke-width="1.87" stroke-miterlimit="10" stroke-linecap="round"/>
<path d="M184.675 122.986L185.078 122.399C185.078 122.399 184.125 118.203 179.122 118.291C179.122 118.291 178.222 119.717 177.859 120.38C177.452 121.147 176.912 121.835 176.264 122.411C175.324 123.202 174.213 123.763 173.019 124.048L174.364 126.43C174.81 126.328 175.251 126.203 175.685 126.055C175.685 126.178 175.638 126.295 175.621 126.407C175.53 126.893 175.601 127.395 175.822 127.837C176.042 128.279 176.401 128.636 176.842 128.854C181.974 131.336 184.757 128.079 184.757 128.079C184.683 127.985 184.615 127.887 184.552 127.786C184.107 127.06 183.882 126.22 183.904 125.368C183.926 124.515 184.194 123.688 184.675 122.986V122.986Z" fill="#40E991"/>
<path d="M178.683 125.58C178.716 125.515 178.735 125.445 178.74 125.374C178.745 125.302 178.735 125.23 178.713 125.162C178.69 125.093 178.654 125.031 178.607 124.976C178.56 124.922 178.502 124.878 178.438 124.846C178.374 124.813 178.304 124.793 178.233 124.788C178.161 124.782 178.089 124.792 178.021 124.814C177.953 124.837 177.89 124.874 177.836 124.922C177.782 124.969 177.738 125.028 177.707 125.093C177.666 125.163 177.041 126.477 177.187 129.013C177.554 129.177 177.931 129.318 178.315 129.435C178.081 126.906 178.672 125.609 178.683 125.58Z" fill="#22C774"/>
<path d="M182.009 126.542C182.024 126.471 182.024 126.399 182.01 126.328C181.996 126.257 181.969 126.19 181.929 126.13C181.89 126.07 181.839 126.019 181.779 125.979C181.72 125.939 181.653 125.91 181.583 125.896C181.441 125.867 181.293 125.896 181.173 125.977C181.052 126.057 180.968 126.182 180.94 126.325C180.731 127.465 180.731 128.635 180.94 129.775C181.302 129.753 181.662 129.698 182.015 129.611C181.834 128.596 181.832 127.557 182.009 126.542Z" fill="#22C774"/>
<path d="M171.634 138.513C171.634 138.513 173.604 133.437 178.742 136.312C180.765 137.461 182.99 138.208 185.294 138.513H171.634Z" fill="#1A9AF5"/>
<path d="M167.127 73.0703C166.781 72.8395 166.442 72.6341 166.11 72.4541C165.034 73.3475 164.142 74.444 163.486 75.6816C163.43 75.8137 163.423 75.9619 163.469 76.0982C163.514 76.2344 163.607 76.3493 163.731 76.421C163.808 76.4572 163.892 76.4771 163.977 76.4797C164.078 76.4759 164.176 76.4458 164.262 76.3923C164.349 76.3388 164.419 76.2638 164.468 76.1746C165.122 74.9598 166.029 73.901 167.127 73.0703V73.0703Z" fill="#22C774"/>
<path d="M169.425 75.4235C169.244 75.1005 169.033 74.7959 168.793 74.5139C167.703 75.0636 166.761 75.8687 166.046 76.8612C165.992 76.9445 165.962 77.0408 165.959 77.1399C165.955 77.239 165.978 77.3373 166.025 77.4244C166.072 77.5115 166.142 77.5842 166.227 77.6348C166.312 77.6855 166.409 77.7122 166.508 77.7121C166.599 77.7117 166.688 77.6884 166.768 77.6443C166.848 77.6002 166.915 77.5368 166.964 77.4598C167.601 76.5843 168.447 75.884 169.425 75.4235V75.4235Z" fill="#22C774"/>
<path d="M164.094 103.943L165.999 101.479C165.999 101.479 163.977 102.828 159.605 102.828C160.973 103.6 162.525 103.985 164.094 103.943V103.943Z" fill="black"/>
<path d="M154.133 138.513C154.133 138.513 156.068 133.437 161.241 136.312C163.271 137.455 165.499 138.202 167.805 138.513H154.133Z" fill="#1A9AF5"/>
<path d="M158.494 144C159.701 144 160.68 143.018 160.68 141.805C160.68 140.593 159.701 139.611 158.494 139.611C157.287 139.611 156.308 140.593 156.308 141.805C156.308 143.018 157.287 144 158.494 144Z" fill="black"/>
<path d="M197.499 144C198.707 144 199.685 143.018 199.685 141.805C199.685 140.593 198.707 139.611 197.499 139.611C196.292 139.611 195.313 140.593 195.313 141.805C195.313 143.018 196.292 144 197.499 144Z" fill="black"/>
<path d="M228.684 131.923H225.223C224.722 131.923 224.23 132.055 223.795 132.305C223.361 132.555 222.999 132.915 222.745 133.349L221.991 134.646C221.308 135.822 220.331 136.798 219.155 137.477C217.98 138.155 216.648 138.513 215.292 138.513H160.025C158.669 138.513 157.336 138.156 156.159 137.477C154.983 136.799 154.004 135.823 153.321 134.646L152.427 133.103C152.217 132.745 151.918 132.449 151.559 132.243C151.2 132.037 150.794 131.929 150.381 131.929H146.634C146.225 131.929 145.822 132.033 145.464 132.232C145.106 132.432 144.804 132.72 144.588 133.068C144.371 133.417 144.247 133.816 144.226 134.226C144.206 134.637 144.29 135.046 144.471 135.415C145.775 138.085 148.475 141.424 151.439 141.424H223.873C225.714 141.424 227.45 140.133 228.818 138.519C229.616 137.571 230.295 136.529 230.841 135.415C231.023 135.046 231.108 134.637 231.089 134.226C231.069 133.815 230.946 133.416 230.73 133.067C230.514 132.717 230.212 132.428 229.854 132.228C229.496 132.028 229.094 131.923 228.684 131.923V131.923Z" fill="#40E991"/>
<path d="M178 144C179.207 144 180.186 143.018 180.186 141.805C180.186 140.593 179.207 139.611 178 139.611C176.792 139.611 175.813 140.593 175.813 141.805C175.813 143.018 176.792 144 178 144Z" fill="black"/>
<path d="M178 142.686C178.484 142.686 178.876 142.291 178.876 141.805C178.876 141.319 178.484 140.925 178 140.925C177.515 140.925 177.123 141.319 177.123 141.805C177.123 142.291 177.515 142.686 178 142.686Z" fill="#40E991"/>
<path d="M216.824 144C218.031 144 219.01 143.018 219.01 141.805C219.01 140.593 218.031 139.611 216.824 139.611C215.616 139.611 214.638 140.593 214.638 141.805C214.638 143.018 215.616 144 216.824 144Z" fill="black"/>
<path d="M216.824 142.686C217.308 142.686 217.701 142.291 217.701 141.805C217.701 141.319 217.308 140.925 216.824 140.925C216.34 140.925 215.947 141.319 215.947 141.805C215.947 142.291 216.34 142.686 216.824 142.686Z" fill="#40E991"/>
</g>
<defs>
<clipPath id="clip0_618_63815">
<rect width="140.286" height="98" fill="white" transform="translate(97.6157 46)"/>
</clipPath>
</defs>
</svg>
