<svg xmlns="http://www.w3.org/2000/svg" xmlns:xlink="http://www.w3.org/1999/xlink" width="144" height="113" viewBox="0 0 144 113">
  <defs>
    <polygon id="roboillo-a" points="0 .975 108 .975 108 88.974 0 88.974"/>
    <polygon id="roboillo-c" points="0 .975 144 .975 144 27 0 27"/>
  </defs>
  <g fill="none" fill-rule="evenodd" transform="translate(0 -1)">
    <path stroke="#202225" stroke-linecap="round" stroke-linejoin="round" stroke-width="2" d="M129.0001 66.3332L129.0001 16.9992M15.0001 66.3332L15.0001 16.9992"/>
    <g transform="translate(0 .025)">
      <path fill="#DCDDDE" d="M132.0001,47.3082 L12.0001,47.3082 C9.7911,47.3082 8.0001,53.1282 8.0001,60.3082 C8.0001,67.4882 9.7911,73.3082 12.0001,73.3082 L132.0001,73.3082 C134.2091,73.3082 136.0001,67.4882 136.0001,60.3082 C136.0001,53.1282 134.2091,47.3082 132.0001,47.3082"/>
      <g transform="translate(18)">
        <mask id="roboillo-b" fill="#fff">
          <use xlink:href="#roboillo-a"/>
        </mask>
        <path fill="#B9BBBE" d="M108.0001,88.9742 L0.0001,88.9742 L0.0001,54.9742 C0.0001,25.1512 24.1771,0.9742 54.0001,0.9742 C83.8231,0.9742 108.0001,25.1512 108.0001,54.9742 L108.0001,88.9742 Z" mask="url(#roboillo-b)"/>
      </g>
      <path fill="#202225" d="M82.9683,43.6187 C77.5923,51.1447 66.4073,51.1447 61.0313,43.6187 C58.5013,40.0767 54.4163,37.9737 50.0633,37.9737 L37.9663,37.9737 C33.0143,37.9737 29.0003,41.9887 29.0003,46.9407 L29.0003,78.9737 L115.0003,78.9737 L115.0003,46.9407 C115.0003,41.9887 110.9863,37.9737 106.0333,37.9737 L93.9363,37.9737 C89.5833,37.9737 85.4983,40.0767 82.9683,43.6187"/>
      <path fill="#72767D" d="M78.0001,35.3912 C78.0001,32.0782 75.3131,29.3912 72.0001,29.3912 C68.6861,29.3912 66.0001,32.0782 66.0001,35.3912 C66.0001,38.7042 68.6861,41.3912 72.0001,41.3912 C75.3131,41.3912 78.0001,38.7042 78.0001,35.3912"/>
      <path fill="#DCDDDE" d="M53.0001 59.9742C53.0001 56.1092 49.8661 52.9742 46.0001 52.9742 42.1341 52.9742 39.0001 56.1092 39.0001 59.9742 39.0001 63.8402 42.1341 66.9742 46.0001 66.9742 49.8661 66.9742 53.0001 63.8402 53.0001 59.9742M105.0001 59.9742C105.0001 56.1092 101.8661 52.9742 98.0001 52.9742 94.1341 52.9742 91.0001 56.1092 91.0001 59.9742 91.0001 63.8402 94.1341 66.9742 98.0001 66.9742 101.8661 66.9742 105.0001 63.8402 105.0001 59.9742"/>
      <g transform="translate(0 87)">
        <mask id="roboillo-d" fill="#fff">
          <use xlink:href="#roboillo-c"/>
        </mask>
        <path fill="#4F545C" d="M85.4683,26.9635 C103.2823,26.9505 121.1233,27.0515 138.9633,26.9635 L144.0003,0.9745 L0.0003,0.9745 L5.6983,26.9635 C32.2863,26.8005 58.8923,26.9825 85.4683,26.9635" mask="url(#roboillo-d)"/>
      </g>
      <path fill="#B9BBBE" d="M118.0001 99.8404C118.0001 98.1844 116.6571 96.8404 115.0001 96.8404 113.3431 96.8404 112.0001 98.1844 112.0001 99.8404 112.0001 101.4974 113.3431 102.8404 115.0001 102.8404 116.6571 102.8404 118.0001 101.4974 118.0001 99.8404M108.0001 99.8404C108.0001 98.1844 106.6571 96.8404 105.0001 96.8404 103.3431 96.8404 102.0001 98.1844 102.0001 99.8404 102.0001 101.4974 103.3431 102.8404 105.0001 102.8404 106.6571 102.8404 108.0001 101.4974 108.0001 99.8404M98.0001 99.8404C98.0001 98.1844 96.6571 96.8404 95.0001 96.8404 93.3431 96.8404 92.0001 98.1844 92.0001 99.8404 92.0001 101.4974 93.3431 102.8404 95.0001 102.8404 96.6571 102.8404 98.0001 101.4974 98.0001 99.8404"/>
    </g>
  </g>
</svg>
