<svg width="90" height="64" viewBox="0 0 90 64" fill="none" xmlns="http://www.w3.org/2000/svg">
<g clip-path="url(#clip0_1175_451994)">
<path d="M45.5295 22.7948C47.3427 45.1223 61.0004 41.0533 73.5363 34.3987C77.7624 32.1708 81.2822 26.0574 80.1374 18.2909C79.5074 13.6193 77.0389 7.78306 70.3005 5.84311C59.7372 2.87828 43.6459 -0.0220851 45.5295 22.7948Z" fill="#EB459F"/>
<path d="M47.9055 50.0456C47.3799 41.9746 47.0262 40.5357 52.2624 36.2935C57.4986 32.0513 61.3242 25.5494 57.1216 15.149C52.919 4.74856 42.1574 3.27632 31.8558 5.35477C32.2545 4.1175 31.8303 2.18929 27.6997 1.55293C23.569 0.916572 16.6422 2.68963 17.6022 11.1459C15.3056 11.9418 14.1856 14.8676 15.1918 19.64C11.8424 23.1108 10.8209 27.6759 13.6008 31.8482C18.0713 38.4897 24.2999 43.5861 33.6319 41.1135C33.5392 52.2447 34.2906 63.7365 42.8096 62.7933C49.4508 62.0862 48.1761 54.5537 47.9055 50.0456Z" fill="#FFC619"/>
<path d="M46.8581 55.2075C46.2622 56.9296 46.6619 58.4479 47.6606 58.9844C48.1526 57.0732 48.2963 55.0821 48.09 53.1182C47.493 53.6907 47.0715 54.4111 46.8581 55.2075Z" fill="#FFE75C"/>
<path d="M22.6995 21.7183C23.1989 21.9865 23.8233 21.838 24.1384 21.3646C24.4341 20.9129 24.2994 20.3123 23.854 20.0182C23.8477 20.0166 23.8414 20.0149 23.8305 20.0052C21.2609 18.3086 18.2524 16.4944 17.6269 11.5552C17.5978 11.413 17.6314 11.2876 17.6023 11.1454C16.8091 11.3966 16.1403 11.9365 15.7187 12.6569C16.7328 17.9018 20.1757 20.1012 22.6995 21.7183Z" fill="black"/>
<path d="M20.3594 30.7021C20.7902 31.0259 21.3995 30.9338 21.7233 30.5031C21.7442 30.4751 21.7652 30.4471 21.7815 30.4111C22.0903 29.9361 21.9576 29.3024 21.4905 28.989C18.9041 27.3551 15.975 25.495 15.2868 20.539C15.273 20.2396 15.2403 19.9352 15.1917 19.6399C14.539 20.3454 13.9514 21.1086 13.4369 21.9251C14.5013 26.9819 17.8816 29.1645 20.3594 30.7021Z" fill="black"/>
<path d="M28.1641 4.83504C28.6957 5.05814 28.9438 5.66226 28.7207 6.19388C28.6075 6.46597 28.3898 6.67646 28.1158 6.77105L24.2762 7.55677C23.7951 7.6967 23.2895 7.4268 23.1433 6.94407C23.1312 6.91395 23.127 6.87923 23.1229 6.84452C23.0106 6.3104 23.3282 5.77722 23.8519 5.62856L27.6916 4.84284L28.1641 4.83504Z" fill="black"/>
</g>
<defs>
<clipPath id="clip0_1175_451994">
<rect width="88.6094" height="64" fill="white" transform="translate(0.695301)"/>
</clipPath>
</defs>
</svg>
