<svg width="40" height="40" viewBox="0 0 40 40" fill="none" xmlns="http://www.w3.org/2000/svg">
<g clip-path="url(#clip0_161_65448)">
<path d="M40 20C40 23.9556 38.827 27.8224 36.6294 31.1114C34.4318 34.4004 31.3082 36.9638 27.6537 38.4776C23.9992 39.9913 19.9778 40.3874 16.0982 39.6157C12.2186 38.844 8.65492 36.9392 5.85787 34.1421C3.06082 31.3451 1.15601 27.7814 0.384303 23.9018C-0.387401 20.0222 0.00866572 16.0009 1.52242 12.3463C3.03617 8.69181 5.59962 5.56824 8.8886 3.37061C12.1776 1.17298 16.0444 0 20 0C25.3043 0 30.3914 2.10714 34.1421 5.85786C37.8929 9.60859 40 14.6957 40 20Z" fill="#FFD836"/>
<path d="M14.2083 16.1332C14.2083 14.8308 13.1543 13.7749 11.8542 13.7749C10.554 13.7749 9.5 14.8308 9.5 16.1332V18.5832C9.5 19.8857 10.554 20.9416 11.8542 20.9416C13.1543 20.9416 14.2083 19.8857 14.2083 18.5832V16.1332Z" fill="#A63A0C"/>
<path d="M30.5001 16.1332C30.5001 14.8308 29.4461 13.7749 28.1459 13.7749C26.8457 13.7749 25.7917 14.8308 25.7917 16.1332V18.5832C25.7917 19.8857 26.8457 20.9416 28.1459 20.9416C29.4461 20.9416 30.5001 19.8857 30.5001 18.5832V16.1332Z" fill="#A63A0C"/>
<path d="M12.7049 23.6841C15.0129 24.6614 17.4937 25.1651 20 25.1651C22.5064 25.1651 24.9872 24.6614 27.2952 23.6841C27.2113 25.0915 26.7224 26.4447 25.8873 27.5807C25.0522 28.7167 23.9066 29.5871 22.5884 30.0871C21.2701 30.5871 19.8354 30.6955 18.457 30.399C17.0786 30.1026 15.8153 29.4141 14.8191 28.4164C13.5486 27.158 12.7945 25.4701 12.7049 23.6841V23.6841Z" fill="#A89339"/>
</g>
<defs>
<clipPath id="clip0_161_65448">
<rect width="40" height="40" fill="white"/>
</clipPath>
</defs>
</svg>
