<svg fill="none" height="224" viewBox="0 0 717 224" width="717" xmlns="http://www.w3.org/2000/svg" xmlns:xlink="http://www.w3.org/1999/xlink"><linearGradient id="a"><stop offset="0" stop-color="#4e1bf5"/><stop offset=".58" stop-color="#5e4eee"/><stop offset=".92" stop-color="#6668eb"/></linearGradient><linearGradient id="b" gradientUnits="userSpaceOnUse" x1="352" x2="352" xlink:href="#a" y1="2.5168" y2="677.997"/><linearGradient id="c" gradientUnits="userSpaceOnUse" x1="6674.7" x2="6674.7" xlink:href="#a" y1="37934.4" y2="-5789.41"/><linearGradient id="d" gradientUnits="userSpaceOnUse" x1="59728.8" x2="59728.8" xlink:href="#a" y1="94217" y2="-14312.4"/><linearGradient id="e" gradientUnits="userSpaceOnUse" x1="266.533" x2="-422.051" y1="-17.3056" y2="509.829"><stop offset="0" stop-color="#5625f7"/><stop offset=".3" stop-color="#5930f9"/><stop offset=".81" stop-color="#624dfd"/><stop offset="1" stop-color="#6659ff"/></linearGradient><linearGradient id="f" gradientUnits="userSpaceOnUse" x1="97789.6" x2="97789.6" xlink:href="#a" y1="68742.5" y2="-10329.2"/><linearGradient id="g" gradientUnits="userSpaceOnUse" x1="937.354" x2="450.779" y1="-20.0096" y2="287.997"><stop offset="0" stop-color="#5323f5"/><stop offset="1" stop-color="#5946f5"/></linearGradient><linearGradient id="h" gradientUnits="userSpaceOnUse" x1="2107.5" x2="2107.5" xlink:href="#a" y1="20071.1" y2="-3084.33"/><linearGradient id="i" gradientUnits="userSpaceOnUse" x1="68816.7" x2="32116.9" y1="-56155.9" y2="-26224.9"><stop offset="0" stop-color="#5323f5"/><stop offset="1" stop-color="#5330f5"/></linearGradient><clipPath id="j"><rect height="224" rx="8" width="717"/></clipPath><g clip-path="url(#j)"><path d="m45.9488 486.845c83.6782-33.114 211.8482-18.45 292.2612 28.205 85.28-34.029 187.2-30.348 250.203-10.92 37.44-49.192 94.453-80.788 153.587-91.52v-275.351c-183.29 97.24-329.098 176.259-329.098 176.259 44.325-39.395 130.25-104.79 221.604-169.478h-115.066c21.341-12.605 58.677-15.142 76.731-7.509 8.924-5.553 18.927-9.143 29.345-10.531 10.419-1.388 21.013-.542 31.079 2.482 28.6-20.031 57.408-39.77 85.405-58.4484v-109.0336h-281.362c-86.132 56.3264-182.707 120.64-280.03 186.181 4.979 1.128 9.8 2.868 14.352 5.179h-22.048c-71.302 48.006-142.8752 96.512-210.912 142.834v132.808c34.84 5.699 65.4784 23.878 83.9488 58.843zm524.8052-376.085h-76.274c37.44-27.04 76.274 0 76.274 0z" fill="url(#b)"/><path d="m56.4736-39c-29.6192 22.1173-61.1104 45.8848-94.4736 71.3024v63.336l167.107-134.6384z" fill="url(#c)"/><path d="m74.32 152.36c16.8688-15.85 45.344-15.558 63.669-5.013 9.921-3.765 27.643-3.806 42.619-.166 97.323-65.541 193.898-129.8546 280.03-186.181h-331.531l-167.107 134.6384v199.5556c68.0368-46.322 139.61-94.828 210.912-142.834z" fill="url(#d)"/><path d="m74.32 152.36c16.8688-15.85 45.344-15.558 63.669-5.013 9.921-3.765 27.643-3.806 42.619-.166 97.323-65.541 193.898-129.8546 280.03-186.181h-331.531l-167.107 134.6384v199.5556c68.0368-46.322 139.61-94.828 210.912-142.834z" fill="url(#e)"/><path d="m681.93 144.04h-47.424c-91.354 64.688-177.279 130.083-221.604 169.478 0 0 145.808-79.04 329.098-176.259v-67.2254c-27.997 18.72-56.805 38.4174-85.405 58.4484 9.633 2.943 18.353 8.298 25.335 15.558z" fill="url(#f)"/><path d="m681.93 144.04h-47.424c-91.354 64.688-177.279 130.083-221.604 169.478 0 0 145.808-79.04 329.098-176.259v-67.2254c-27.997 18.72-56.805 38.4174-85.405 58.4484 9.633 2.943 18.353 8.298 25.335 15.558z" fill="url(#g)"/><path d="m656.595 128.482c-10.066-3.024-20.66-3.87-31.079-2.482-10.418 1.388-20.421 4.978-29.345 10.531-18.054-7.633-55.39-5.096-76.731 7.509h162.49c-6.982-7.26-15.703-12.615-25.335-15.558z" fill="#7466ff"/><path d="m137.989 147.347c-18.325-10.545-46.8004-10.836-63.6692 5.013h120.6402c-4.552-2.311-9.373-4.051-14.352-5.179-14.976-3.64-32.698-3.598-42.619.166z" fill="#7466ff"/><path d="m-38-39v71.3024c33.28-25.34827 64.7712-49.1157 94.4736-71.3024z" fill="url(#h)"/><path d="m-38-39v71.3024c33.28-25.34827 64.7712-49.1157 94.4736-71.3024z" fill="url(#i)"/><path d="m494.48 110.76h76.274s-38.834-27.04-76.274 0z" fill="#7466ff"/></g></svg>