<svg xmlns="http://www.w3.org/2000/svg" width="272" height="222" viewBox="0 0 272 222">
  <g fill="none" fill-rule="evenodd" transform="translate(8 14)">
    <path fill="#F6F6F7" fill-opacity=".9" d="M255.4999,24.8557 L255.4999,24.8557 C255.4999,38.4047 244.5169,49.3887 230.9669,49.3887 L201.8599,49.3887 C192.5489,49.3887 184.9999,56.9377 184.9999,66.2487 C184.9999,75.5607 192.5489,83.1087 201.8599,83.1087 L233.4719,83.1087 C243.9799,83.1087 252.4999,91.6277 252.4999,102.1377 C252.4999,112.6467 243.9799,121.1657 233.4719,121.1657 L171.9169,121.1657 C161.7459,121.1657 153.4999,129.4117 153.4999,139.5827 C153.4999,149.7537 145.2549,157.9997 135.0829,157.9997 L43.5869,157.9997 C19.5149,157.9997 -0.0001,138.4857 -0.0001,114.4137 C-0.0001,90.3407 19.5149,70.8267 43.5869,70.8267 L70.6819,70.8267 C78.8649,70.8267 85.4999,64.1917 85.4999,56.0077 C85.4999,47.8237 78.8649,41.1887 70.6819,41.1887 L24.4339,41.1887 C13.1479,41.1887 3.9999,32.0407 3.9999,20.7557 C3.9999,9.4707 13.1479,0.3227 24.4339,0.3227 L230.9669,0.3227 C244.5169,0.3227 255.4999,11.3067 255.4999,24.8557" transform="translate(0 35.531)"/>
    <path fill="#B9BBBE" d="M56.9482 28.9863L57.6702 28.9863C58.2222 28.9863 58.6702 28.5383 58.6702 27.9863 58.6702 27.4343 58.2222 26.9863 57.6702 26.9863L56.9482 26.9863C56.3952 26.9863 55.9482 27.4343 55.9482 27.9863 55.9482 28.5383 56.3952 28.9863 56.9482 28.9863M61.4404 28.9863L185.9264 28.9863C186.7034 28.9863 187.3354 29.6183 187.3354 30.3943L187.3354 62.0313C187.3354 62.5843 187.7824 63.0313 188.3354 63.0313 188.8874 63.0313 189.3354 62.5843 189.3354 62.0313L189.3354 30.3943C189.3354 28.5153 187.8054 26.9863 185.9264 26.9863L61.4404 26.9863C60.8874 26.9863 60.4404 27.4343 60.4404 27.9863 60.4404 28.5383 60.8874 28.9863 61.4404 28.9863"/>
    <polygon fill="#FFFFFF" points="81.514 137.069 83.185 131.432 74.858 131.432 73.187 137.069"/>
    <path fill="#FFFFFF" d="M123.7587,124.9697 L110.6187,124.9697 L109.0577,130.6967 C108.9387,131.1307 108.5437,131.4327 108.0927,131.4327 L96.2247,131.4327 L94.6937,137.0697 L107.3397,137.0697 C107.6427,137.0697 107.9297,137.2067 108.1187,137.4437 C108.2037,137.5487 108.2567,137.6717 108.2927,137.7987 L125.1667,137.7987 L125.1667,126.3777 C125.1667,125.6017 124.5347,124.9697 123.7587,124.9697"/>
    <path fill="#FFFFFF" d="M126.7773,108.2324 L126.3283,108.3694 C125.6663,108.5704 125.4043,109.3684 125.8183,109.9224 L126.1293,110.3404 C126.4573,110.7804 126.3693,111.4024 125.9313,111.7334 L125.6263,111.9664 C125.1833,112.3024 124.5533,112.2134 124.2203,111.7704 L123.8403,111.2634 C123.4353,110.7234 122.6243,110.7314 122.2293,111.2794 L121.8723,111.7744 C121.5523,112.2184 120.9353,112.3234 120.4873,112.0104 L120.1473,111.7724 C119.6853,111.4494 119.5813,110.8084 119.9183,110.3564 L120.2623,109.8914 C120.6733,109.3384 120.4153,108.5444 119.7563,108.3404 L119.2563,108.1854 C118.7363,108.0244 118.4413,107.4764 118.5913,106.9524 L118.7073,106.5544 C118.8633,106.0134 119.4353,105.7084 119.9713,105.8794 L120.5453,106.0624 C121.1893,106.2684 121.8483,105.7864 121.8483,105.1094 L121.8483,104.5984 C121.8483,104.0464 122.2973,103.5984 122.8483,103.5984 L123.2483,103.5984 C123.8003,103.5984 124.2483,104.0464 124.2483,104.5984 L124.2483,105.1344 C124.2483,105.8114 124.9073,106.2924 125.5513,106.0864 L126.0613,105.9234 C126.5943,105.7534 127.1643,106.0544 127.3243,106.5894 L127.4433,106.9894 C127.6013,107.5164 127.3033,108.0714 126.7773,108.2324 M113.6733,89.6184 L113.2253,89.7544 C112.5623,89.9564 112.3003,90.7534 112.7143,91.3084 L113.0253,91.7264 C113.3533,92.1664 113.2653,92.7884 112.8283,93.1194 L112.5223,93.3524 C112.0803,93.6884 111.4503,93.5994 111.1173,93.1554 L110.7373,92.6494 C110.3323,92.1094 109.5203,92.1174 109.1263,92.6654 L108.7683,93.1604 C108.4493,93.6044 107.8323,93.7094 107.3833,93.3964 L107.0443,93.1584 C106.5823,92.8354 106.4773,92.1944 106.8143,91.7424 L107.1593,91.2774 C107.5703,90.7244 107.3113,89.9304 106.6533,89.7264 L106.1533,89.5704 C105.6323,89.4094 105.3383,88.8614 105.4883,88.3384 L105.6033,87.9404 C105.7593,87.3994 106.3323,87.0934 106.8683,87.2654 L107.4413,87.4474 C108.0863,87.6534 108.7453,87.1724 108.7453,86.4954 L108.7453,85.9834 C108.7453,85.4314 109.1933,84.9834 109.7453,84.9834 L110.1443,84.9834 C110.6973,84.9834 111.1443,85.4314 111.1443,85.9834 L111.1443,86.5194 C111.1443,87.1964 111.8033,87.6784 112.4483,87.4724 L112.9593,87.3094 C113.4913,87.1394 114.0603,87.4404 114.2203,87.9754 L114.3393,88.3754 C114.4983,88.9014 114.1993,89.4574 113.6733,89.6184 M100.5703,89.6184 L100.1233,89.7544 C99.4613,89.9564 99.1983,90.7534 99.6123,91.3084 L99.9233,91.7264 C100.2513,92.1664 100.1633,92.7884 99.7253,93.1194 L99.4203,93.3524 C98.9773,93.6884 98.3473,93.5994 98.0143,93.1554 L97.6343,92.6494 C97.2303,92.1094 96.4183,92.1174 96.0233,92.6654 L95.6663,93.1604 C95.3463,93.6044 94.7303,93.7094 94.2823,93.3964 L93.9413,93.1584 C93.4793,92.8354 93.3763,92.1944 93.7123,91.7424 L94.0563,91.2774 C94.4673,90.7244 94.2093,89.9304 93.5503,89.7264 L93.0503,89.5704 C92.5303,89.4094 92.2353,88.8614 92.3853,88.3384 L92.5013,87.9404 C92.6573,87.3994 93.2293,87.0934 93.7653,87.2654 L94.3393,87.4474 C94.9833,87.6534 95.6423,87.1724 95.6423,86.4954 L95.6423,85.9834 C95.6423,85.4314 96.0903,84.9834 96.6423,84.9834 L97.0423,84.9834 C97.5943,84.9834 98.0423,85.4314 98.0423,85.9834 L98.0423,86.5194 C98.0423,87.1964 98.7013,87.6784 99.3453,87.4724 L99.8563,87.3094 C100.3883,87.1394 100.9583,87.4404 101.1183,87.9754 L101.2373,88.3754 C101.3953,88.9014 101.0973,89.4574 100.5703,89.6184 M119.9713,87.2654 L120.5453,87.4474 C121.1893,87.6534 121.8483,87.1724 121.8483,86.4954 L121.8483,85.9834 C121.8483,85.4314 122.2973,84.9834 122.8483,84.9834 L123.2483,84.9834 C123.8003,84.9834 124.2483,85.4314 124.2483,85.9834 L124.2483,86.5194 C124.2483,87.1964 124.9073,87.6784 125.5513,87.4724 L126.0623,87.3094 C126.5943,87.1394 127.1643,87.4404 127.3243,87.9754 L127.4433,88.3754 C127.6013,88.9014 127.3023,89.4574 126.7763,89.6184 L126.3293,89.7544 C125.6663,89.9564 125.4043,90.7534 125.8183,91.3084 L126.1293,91.7264 C126.4573,92.1664 126.3693,92.7884 125.9313,93.1194 L125.6263,93.3524 C125.1833,93.6884 124.5533,93.5994 124.2203,93.1554 L123.8403,92.6494 C123.4353,92.1094 122.6243,92.1174 122.2293,92.6654 L121.8723,93.1604 C121.5523,93.6044 120.9353,93.7094 120.4873,93.3964 L120.1473,93.1584 C119.6853,92.8354 119.5813,92.1944 119.9183,91.7424 L120.2623,91.2774 C120.6733,90.7244 120.4153,89.9304 119.7563,89.7264 L119.2563,89.5704 C118.7363,89.4094 118.4413,88.8614 118.5913,88.3384 L118.7073,87.9404 C118.8633,87.3994 119.4353,87.0934 119.9713,87.2654 M133.0763,87.2654 L133.6493,87.4474 C134.2943,87.6534 134.9533,87.1724 134.9533,86.4954 L134.9533,85.9834 C134.9533,85.4314 135.4013,84.9834 135.9533,84.9834 L136.3523,84.9834 C136.9053,84.9834 137.3523,85.4314 137.3523,85.9834 L137.3523,86.5194 C137.3523,87.1964 138.0113,87.6784 138.6563,87.4724 L139.1673,87.3094 C139.6993,87.1394 140.2683,87.4404 140.4283,87.9754 L140.5483,88.3754 C140.7063,88.9014 140.4073,89.4574 139.8813,89.6184 L139.4333,89.7544 C138.7703,89.9564 138.5083,90.7534 138.9233,91.3084 L139.2333,91.7264 C139.5613,92.1664 139.4733,92.7884 139.0363,93.1194 L138.7303,93.3524 C138.2883,93.6884 137.6583,93.5994 137.3253,93.1554 L136.9453,92.6494 C136.5403,92.1094 135.7283,92.1174 135.3343,92.6654 L134.9763,93.1604 C134.6573,93.6044 134.0403,93.7094 133.5913,93.3964 L133.2523,93.1584 C132.7903,92.8354 132.6853,92.1944 133.0223,91.7424 L133.3673,91.2774 C133.7783,90.7244 133.5193,89.9304 132.8613,89.7264 L132.3613,89.5704 C131.8403,89.4094 131.5463,88.8614 131.6963,88.3384 L131.8113,87.9404 C131.9673,87.3994 132.5403,87.0934 133.0763,87.2654 M146.1793,87.2654 L146.7533,87.4474 C147.3973,87.6534 148.0563,87.1724 148.0563,86.4954 L148.0563,85.9834 C148.0563,85.4314 148.5053,84.9834 149.0563,84.9834 L149.4563,84.9834 C150.0083,84.9834 150.4563,85.4314 150.4563,85.9834 L150.4563,86.5194 C150.4563,87.1964 151.1153,87.6784 151.7593,87.4724 L152.2703,87.3094 C152.8023,87.1394 153.3723,87.4404 153.5323,87.9754 L153.6513,88.3754 C153.8093,88.9014 153.5103,89.4574 152.9843,89.6184 L152.5373,89.7544 C151.8743,89.9564 151.6123,90.7534 152.0263,91.3084 L152.3373,91.7264 C152.6653,92.1664 152.5773,92.7884 152.1393,93.1194 L151.8343,93.3524 C151.3913,93.6884 150.7613,93.5994 150.4283,93.1554 L150.0483,92.6494 C149.6433,92.1094 148.8323,92.1174 148.4373,92.6654 L148.0803,93.1604 C147.7603,93.6044 147.1433,93.7094 146.6953,93.3964 L146.3553,93.1584 C145.8933,92.8354 145.7893,92.1944 146.1263,91.7424 L146.4703,91.2774 C146.8813,90.7244 146.6233,89.9304 145.9643,89.7264 L145.4643,89.5704 C144.9443,89.4094 144.6493,88.8614 144.7993,88.3384 L144.9153,87.9404 C145.0713,87.3994 145.6433,87.0934 146.1793,87.2654 M159.2843,87.2654 L159.8573,87.4474 C160.5023,87.6534 161.1613,87.1724 161.1613,86.4954 L161.1613,85.9834 C161.1613,85.4314 161.6093,84.9834 162.1613,84.9834 L162.5603,84.9834 C163.1133,84.9834 163.5603,85.4314 163.5603,85.9834 L163.5603,86.5194 C163.5603,87.1964 164.2193,87.6784 164.8643,87.4724 L165.3753,87.3094 C165.9073,87.1394 166.4763,87.4404 166.6363,87.9754 L166.7563,88.3754 C166.9143,88.9014 166.6153,89.4574 166.0893,89.6184 L165.6413,89.7544 C164.9783,89.9564 164.7163,90.7534 165.1313,91.3084 L165.4413,91.7264 C165.7693,92.1664 165.6813,92.7884 165.2443,93.1194 L164.9383,93.3524 C164.4963,93.6884 163.8663,93.5994 163.5333,93.1554 L163.1533,92.6494 C162.7483,92.1094 161.9363,92.1174 161.5423,92.6654 L161.1843,93.1604 C160.8653,93.6044 160.2483,93.7094 159.7993,93.3964 L159.4603,93.1584 C158.9983,92.8354 158.8933,92.1944 159.2303,91.7424 L159.5753,91.2774 C159.9863,90.7244 159.7273,89.9304 159.0693,89.7264 L158.5693,89.5704 C158.0483,89.4094 157.7543,88.8614 157.9043,88.3384 L158.0193,87.9404 C158.1753,87.3994 158.7483,87.0934 159.2843,87.2654 M172.3873,87.2654 L172.9613,87.4474 C173.6053,87.6534 174.2643,87.1724 174.2643,86.4954 L174.2643,85.9834 C174.2643,85.4314 174.7133,84.9834 175.2643,84.9834 L175.6643,84.9834 C176.2163,84.9834 176.6643,85.4314 176.6643,85.9834 L176.6643,86.5194 C176.6643,87.1964 177.3233,87.6784 177.9673,87.4724 L178.4783,87.3094 C179.0103,87.1394 179.5803,87.4404 179.7403,87.9754 L179.8593,88.3754 C180.0173,88.9014 179.7183,89.4574 179.1923,89.6184 L178.7453,89.7544 C178.0823,89.9564 177.8203,90.7534 178.2343,91.3084 L178.5453,91.7264 C178.8733,92.1664 178.7853,92.7884 178.3473,93.1194 L178.0423,93.3524 C177.5993,93.6884 176.9693,93.5994 176.6363,93.1554 L176.2563,92.6494 C175.8513,92.1094 175.0403,92.1174 174.6453,92.6654 L174.2883,93.1604 C173.9683,93.6044 173.3513,93.7094 172.9033,93.3964 L172.5633,93.1584 C172.1013,92.8354 171.9973,92.1944 172.3343,91.7424 L172.6783,91.2774 C173.0903,90.7244 172.8313,89.9304 172.1733,89.7264 L171.6733,89.5704 C171.1523,89.4094 170.8573,88.8614 171.0073,88.3384 L171.1233,87.9404 C171.2793,87.3994 171.8513,87.0934 172.3873,87.2654 M185.4923,87.2654 L186.0653,87.4474 C186.7103,87.6534 187.3693,87.1724 187.3693,86.4954 L187.3693,85.9834 C187.3693,85.4314 187.8173,84.9834 188.3693,84.9834 L188.7683,84.9834 C189.3213,84.9834 189.7683,85.4314 189.7683,85.9834 L189.7683,86.5194 C189.7683,87.1964 190.4273,87.6784 191.0723,87.4724 L191.5833,87.3094 C192.1153,87.1394 192.6843,87.4404 192.8443,87.9754 L192.9643,88.3754 C193.1223,88.9014 192.8233,89.4574 192.2973,89.6184 L191.8493,89.7544 C191.1863,89.9564 190.9243,90.7534 191.3393,91.3084 L191.6493,91.7264 C191.9773,92.1664 191.8893,92.7884 191.4523,93.1194 L191.1463,93.3524 C190.7043,93.6884 190.0743,93.5994 189.7413,93.1554 L189.3613,92.6494 C188.9563,92.1094 188.1443,92.1174 187.7503,92.6654 L187.3923,93.1604 C187.0733,93.6044 186.4563,93.7094 186.0073,93.3964 L185.6683,93.1584 C185.2063,92.8354 185.1013,92.1944 185.4383,91.7424 L185.7833,91.2774 C186.1943,90.7244 185.9353,89.9304 185.2773,89.7264 L184.7773,89.5704 C184.2563,89.4094 183.9623,88.8614 184.1123,88.3384 L184.2273,87.9404 C184.3833,87.3994 184.9563,87.0934 185.4923,87.2654 M197.2153,106.9524 L197.3313,106.5544 C197.4873,106.0134 198.0593,105.7084 198.5953,105.8794 L199.1693,106.0624 C199.8133,106.2684 200.4723,105.7864 200.4723,105.1094 L200.4723,104.5984 C200.4723,104.0464 200.9213,103.5984 201.4723,103.5984 L201.8723,103.5984 C202.4243,103.5984 202.8723,104.0464 202.8723,104.5984 L202.8723,105.1344 C202.8723,105.8114 203.5313,106.2924 204.1753,106.0864 L204.6853,105.9234 C205.2183,105.7534 205.7883,106.0544 205.9483,106.5894 L206.0673,106.9894 C206.2253,107.5164 205.9273,108.0714 205.4013,108.2324 L204.9523,108.3694 C204.2903,108.5704 204.0283,109.3684 204.4423,109.9224 L204.7533,110.3404 C205.0813,110.7804 204.9933,111.4024 204.5553,111.7334 L204.2503,111.9664 C203.8073,112.3024 203.1773,112.2134 202.8443,111.7704 L202.4653,111.2634 C202.0593,110.7234 201.2483,110.7314 200.8533,111.2794 L200.4963,111.7744 C200.1763,112.2184 199.5593,112.3234 199.1113,112.0104 L198.7713,111.7724 C198.3093,111.4494 198.2053,110.8084 198.5423,110.3564 L198.8863,109.8914 C199.2983,109.3384 199.0393,108.5444 198.3813,108.3404 L197.8813,108.1854 C197.3603,108.0244 197.0653,107.4764 197.2153,106.9524 M197.2153,88.3384 L197.3313,87.9404 C197.4873,87.3994 198.0593,87.0934 198.5953,87.2654 L199.1693,87.4474 C199.8133,87.6534 200.4723,87.1724 200.4723,86.4954 L200.4723,85.9834 C200.4723,85.4314 200.9213,84.9834 201.4723,84.9834 L201.8723,84.9834 C202.4243,84.9834 202.8723,85.4314 202.8723,85.9834 L202.8723,86.5194 C202.8723,87.1964 203.5313,87.6784 204.1753,87.4724 L204.6863,87.3094 C205.2183,87.1394 205.7883,87.4404 205.9483,87.9754 L206.0673,88.3754 C206.2253,88.9014 205.9263,89.4574 205.4003,89.6184 L204.9533,89.7544 C204.2903,89.9564 204.0283,90.7534 204.4423,91.3084 L204.7533,91.7264 C205.0813,92.1664 204.9933,92.7884 204.5553,93.1194 L204.2503,93.3524 C203.8073,93.6884 203.1773,93.5994 202.8443,93.1554 L202.4653,92.6494 C202.0593,92.1094 201.2483,92.1174 200.8533,92.6654 L200.4963,93.1604 C200.1763,93.6044 199.5593,93.7094 199.1113,93.3964 L198.7713,93.1584 C198.3093,92.8354 198.2053,92.1944 198.5423,91.7424 L198.8863,91.2774 C199.2983,90.7244 199.0393,89.9304 198.3813,89.7264 L197.8813,89.5704 C197.3603,89.4094 197.0653,88.8614 197.2153,88.3384 M192.2973,108.2324 L191.8473,108.3694 C191.1853,108.5704 190.9233,109.3684 191.3383,109.9224 L191.6483,110.3404 C191.9763,110.7804 191.8883,111.4024 191.4513,111.7334 L191.1453,111.9664 C190.7033,112.3024 190.0733,112.2134 189.7403,111.7704 L189.3603,111.2634 C188.9553,110.7234 188.1433,110.7314 187.7493,111.2794 L187.3913,111.7744 C187.0723,112.2184 186.4553,112.3234 186.0063,112.0104 L185.6673,111.7724 C185.2053,111.4494 185.1003,110.8084 185.4373,110.3564 L185.7823,109.8914 C186.1933,109.3384 185.9343,108.5444 185.2763,108.3404 L184.7763,108.1854 C184.2563,108.0244 183.9613,107.4764 184.1113,106.9524 L184.2263,106.5544 C184.3823,106.0134 184.9553,105.7084 185.4913,105.8794 L186.0643,106.0624 C186.7093,106.2684 187.3683,105.7864 187.3683,105.1094 L187.3683,104.5984 C187.3683,104.0464 187.8163,103.5984 188.3683,103.5984 L188.7673,103.5984 C189.3203,103.5984 189.7673,104.0464 189.7673,104.5984 L189.7673,105.1344 C189.7673,105.8114 190.4263,106.2924 191.0713,106.0864 L191.5813,105.9234 C192.1143,105.7534 192.6833,106.0544 192.8433,106.5894 L192.9633,106.9894 C193.1213,107.5164 192.8233,108.0714 192.2973,108.2324 M179.1933,108.2324 L178.7443,108.3694 C178.0823,108.5704 177.8203,109.3684 178.2343,109.9224 L178.5453,110.3404 C178.8733,110.7804 178.7853,111.4024 178.3473,111.7334 L178.0423,111.9664 C177.5993,112.3024 176.9693,112.2134 176.6363,111.7704 L176.2563,111.2634 C175.8513,110.7234 175.0403,110.7314 174.6453,111.2794 L174.2883,111.7744 C173.9683,112.2184 173.3513,112.3234 172.9033,112.0104 L172.5633,111.7724 C172.1013,111.4494 171.9973,110.8084 172.3343,110.3564 L172.6783,109.8914 C173.0903,109.3384 172.8313,108.5444 172.1733,108.3404 L171.6733,108.1854 C171.1523,108.0244 170.8573,107.4764 171.0073,106.9524 L171.1233,106.5544 C171.2793,106.0134 171.8513,105.7084 172.3873,105.8794 L172.9613,106.0624 C173.6053,106.2684 174.2643,105.7864 174.2643,105.1094 L174.2643,104.5984 C174.2643,104.0464 174.7133,103.5984 175.2643,103.5984 L175.6643,103.5984 C176.2163,103.5984 176.6643,104.0464 176.6643,104.5984 L176.6643,105.1344 C176.6643,105.8114 177.3233,106.2924 177.9673,106.0864 L178.4773,105.9234 C179.0103,105.7534 179.5803,106.0544 179.7403,106.5894 L179.8593,106.9894 C180.0173,107.5164 179.7193,108.0714 179.1933,108.2324 M166.0893,108.2324 L165.6393,108.3694 C164.9773,108.5704 164.7153,109.3684 165.1303,109.9224 L165.4403,110.3404 C165.7683,110.7804 165.6803,111.4024 165.2433,111.7334 L164.9373,111.9664 C164.4953,112.3024 163.8653,112.2134 163.5323,111.7704 L163.1523,111.2634 C162.7473,110.7234 161.9353,110.7314 161.5413,111.2794 L161.1833,111.7744 C160.8643,112.2184 160.2473,112.3234 159.7983,112.0104 L159.4593,111.7724 C158.9973,111.4494 158.8923,110.8084 159.2293,110.3564 L159.5743,109.8914 C159.9853,109.3384 159.7263,108.5444 159.0683,108.3404 L158.5683,108.1854 C158.0483,108.0244 157.7533,107.4764 157.9033,106.9524 L158.0183,106.5544 C158.1743,106.0134 158.7473,105.7084 159.2833,105.8794 L159.8563,106.0624 C160.5013,106.2684 161.1603,105.7864 161.1603,105.1094 L161.1603,104.5984 C161.1603,104.0464 161.6083,103.5984 162.1603,103.5984 L162.5593,103.5984 C163.1123,103.5984 163.5593,104.0464 163.5593,104.5984 L163.5593,105.1344 C163.5593,105.8114 164.2183,106.2924 164.8633,106.0864 L165.3733,105.9234 C165.9063,105.7534 166.4753,106.0544 166.6353,106.5894 L166.7553,106.9894 C166.9133,107.5164 166.6153,108.0714 166.0893,108.2324 M152.9853,108.2324 L152.5363,108.3694 C151.8743,108.5704 151.6123,109.3684 152.0263,109.9224 L152.3373,110.3404 C152.6653,110.7804 152.5773,111.4024 152.1393,111.7334 L151.8343,111.9664 C151.3913,112.3024 150.7613,112.2134 150.4283,111.7704 L150.0483,111.2634 C149.6433,110.7234 148.8323,110.7314 148.4373,111.2794 L148.0803,111.7744 C147.7603,112.2184 147.1433,112.3234 146.6953,112.0104 L146.3553,111.7724 C145.8933,111.4494 145.7893,110.8084 146.1263,110.3564 L146.4703,109.8914 C146.8813,109.3384 146.6233,108.5444 145.9643,108.3404 L145.4643,108.1854 C144.9443,108.0244 144.6493,107.4764 144.7993,106.9524 L144.9153,106.5544 C145.0713,106.0134 145.6433,105.7084 146.1793,105.8794 L146.7533,106.0624 C147.3973,106.2684 148.0563,105.7864 148.0563,105.1094 L148.0563,104.5984 C148.0563,104.0464 148.5053,103.5984 149.0563,103.5984 L149.4563,103.5984 C150.0083,103.5984 150.4563,104.0464 150.4563,104.5984 L150.4563,105.1344 C150.4563,105.8114 151.1153,106.2924 151.7593,106.0864 L152.2693,105.9234 C152.8023,105.7534 153.3723,106.0544 153.5323,106.5894 L153.6513,106.9894 C153.8093,107.5164 153.5113,108.0714 152.9853,108.2324 M139.8813,108.2324 L139.4313,108.3694 C138.7693,108.5704 138.5073,109.3684 138.9223,109.9224 L139.2323,110.3404 C139.5603,110.7804 139.4723,111.4024 139.0353,111.7334 L138.7293,111.9664 C138.2873,112.3024 137.6573,112.2134 137.3243,111.7704 L136.9443,111.2634 C136.5393,110.7234 135.7273,110.7314 135.3333,111.2794 L134.9753,111.7744 C134.6563,112.2184 134.0393,112.3234 133.5903,112.0104 L133.2513,111.7724 C132.7893,111.4494 132.6843,110.8084 133.0213,110.3564 L133.3663,109.8914 C133.7773,109.3384 133.5183,108.5444 132.8603,108.3404 L132.3603,108.1854 C131.8393,108.0244 131.5453,107.4764 131.6953,106.9524 L131.8103,106.5544 C131.9663,106.0134 132.5393,105.7084 133.0753,105.8794 L133.6483,106.0624 C134.2933,106.2684 134.9523,105.7864 134.9523,105.1094 L134.9523,104.5984 C134.9523,104.0464 135.4003,103.5984 135.9523,103.5984 L136.3513,103.5984 C136.9043,103.5984 137.3513,104.0464 137.3513,104.5984 L137.3513,105.1344 C137.3513,105.8114 138.0103,106.2924 138.6553,106.0864 L139.1653,105.9234 C139.6983,105.7534 140.2673,106.0544 140.4273,106.5894 L140.5473,106.9894 C140.7053,107.5164 140.4073,108.0714 139.8813,108.2324 M131.6563,136.7984 L220.1743,136.7984 C220.9513,136.7984 221.5833,136.1674 221.5833,135.3904 L221.5833,108.4784 C221.5833,108.1614 221.7333,107.8634 221.9883,107.6744 L234.8193,98.1734 L221.9883,88.6714 C221.7333,88.4834 221.5833,88.1854 221.5833,87.8684 L221.5833,69.9064 C221.5833,69.1294 220.9513,68.4984 220.1743,68.4984 L66.8483,68.4984 C66.0723,68.4984 65.4403,69.1294 65.4403,69.9064 L65.4403,119.0624 L65.4473,119.0624 C66.8193,114.4804 68.1793,109.8484 69.3953,105.6234 C69.5183,105.1944 69.9113,104.8994 70.3563,104.8994 L81.4603,104.8994 C81.7743,104.8994 82.0713,105.0474 82.2593,105.2994 C82.4493,105.5514 82.5073,105.8784 82.4203,106.1804 L78.6503,119.0624 L86.9803,119.0624 L90.9123,105.6194 C91.0373,105.1924 91.4273,104.8994 91.8723,104.8994 L102.8643,104.8994 C103.1803,104.8994 103.4783,105.0494 103.6673,105.3034 C103.8563,105.5574 103.9133,105.8864 103.8213,106.1894 L99.9193,119.0624 L110.9223,119.0624 C111.2333,119.0624 111.5273,119.2084 111.7163,119.4554 C111.9063,119.7034 111.9683,120.0254 111.8863,120.3264 L111.1653,122.9694 L123.7583,122.9694 C125.6373,122.9694 127.1673,124.4994 127.1673,126.3784 L127.1673,137.7984 L130.6563,137.7984 C130.6563,137.2464 131.1033,136.7984 131.6563,136.7984"/>
    <path fill="#B9BBBE" d="M237.0947,97.3701 L223.5827,87.3641 L223.5827,69.9061 C223.5827,68.0241 222.0567,66.4981 220.1747,66.4981 L66.8487,66.4981 C64.9657,66.4981 63.4407,68.0241 63.4407,69.9061 L63.4407,83.2871 C63.4407,85.4961 61.6497,87.2871 59.4407,87.2871 L35.1937,87.2871 C32.9837,87.2871 31.1937,85.4961 31.1937,83.2871 L31.1937,67.9171 C31.1937,67.6001 31.0427,67.3021 30.7877,67.1141 L17.9557,57.6111 L30.7877,48.1101 C31.0427,47.9211 31.1937,47.6221 31.1937,47.3061 L31.1937,30.3941 C31.1937,29.6171 31.8237,28.9861 32.6017,28.9861 L50.0327,28.9861 C50.5857,28.9861 51.0327,28.5381 51.0327,27.9861 C51.0327,27.4341 50.5857,26.9861 50.0327,26.9861 L32.6017,26.9861 C30.7187,26.9861 29.1937,28.5121 29.1937,30.3941 L29.1937,46.8021 L15.6807,56.8071 C15.4257,56.9961 15.2757,57.2941 15.2757,57.6111 C15.2757,57.9281 15.4257,58.2261 15.6807,58.4151 L29.1937,68.4211 L29.1937,85.8791 C29.1937,87.7611 30.7187,89.2871 32.6017,89.2871 L61.4407,89.2871 C62.5447,89.2871 63.4407,90.1831 63.4407,91.2871 L63.4407,119.0621 L51.4847,119.0621 C51.0107,119.0621 50.6027,119.3941 50.5057,119.8571 L48.3367,130.2271 C48.2757,130.5221 48.3497,130.8291 48.5387,131.0631 C48.7297,131.2971 49.0147,131.4331 49.3157,131.4331 L58.0817,131.4331 C60.0057,131.4331 61.3527,133.3331 60.7157,135.1491 L60.6997,135.1941 C60.3057,136.3171 59.2447,137.0691 58.0537,137.0691 L47.9937,137.0691 C47.5187,137.0691 47.1087,137.4051 47.0147,137.8711 L44.9417,148.1471 C44.8817,148.4421 44.9577,148.7471 45.1487,148.9791 C45.3377,149.2111 45.6217,149.3461 45.9217,149.3461 L53.3247,149.3461 C54.8477,149.3461 55.9427,150.8081 55.5147,152.2681 L52.5467,162.4021 C52.4587,162.7051 52.5177,163.0311 52.7057,163.2831 C52.8957,163.5351 53.1917,163.6831 53.5067,163.6831 L64.5157,163.6831 C64.9607,163.6831 65.3527,163.3891 65.4767,162.9601 L68.5517,152.2741 C69.0517,150.5401 70.6377,149.3461 72.4427,149.3461 C75.1357,149.3461 77.0777,151.9261 76.3327,154.5141 L74.0607,162.4071 C73.9737,162.7091 74.0327,163.0341 74.2227,163.2851 C74.4107,163.5361 74.7067,163.6831 75.0217,163.6831 L85.9017,163.6831 C86.3467,163.6831 86.7387,163.3901 86.8617,162.9621 C87.2177,161.7261 87.6427,160.2871 88.1507,158.5841 C88.3087,158.0551 88.0067,157.4981 87.4777,157.3411 L87.4777,157.3411 C86.9487,157.1831 86.3917,157.4841 86.2347,158.0141 C85.8217,159.4001 85.4617,160.6131 85.1507,161.6831 L76.3497,161.6831 L80.1107,148.6221 C80.1977,148.3201 80.1377,147.9951 79.9487,147.7441 C79.7597,147.4931 79.4637,147.3461 79.1497,147.3461 L68.6427,147.3461 C68.1967,147.3461 67.8047,147.6411 67.6817,148.0691 L63.7627,161.6831 L54.8417,161.6831 L58.6657,148.6271 C58.7537,148.3241 58.6957,147.9981 58.5067,147.7461 C58.3177,147.4941 58.0217,147.3461 57.7057,147.3461 L47.1437,147.3461 L48.8137,139.0691 L60.6217,139.0691 C61.0617,139.0691 61.5437,138.7311 61.6957,138.3181 C62.7127,135.5441 63.3857,133.7091 64.1447,130.6761 C64.2197,130.3771 64.1527,130.0601 63.9627,129.8171 C63.7737,129.5741 63.4827,129.4331 63.1747,129.4331 L50.5457,129.4331 L52.2967,121.0621 L66.1917,121.0621 C66.6327,121.0621 67.0217,120.7741 67.1487,120.3511 C68.5167,115.7901 69.8797,111.1571 71.1097,106.8991 L80.1247,106.8991 L76.3557,119.7811 C76.2677,120.0841 76.3257,120.4101 76.5157,120.6621 C76.7037,120.9141 77.0007,121.0621 77.3157,121.0621 L87.7297,121.0621 C88.1737,121.0621 88.5647,120.7691 88.6897,120.3431 L92.6207,106.8991 L101.5167,106.8991 L97.6147,119.7721 C97.5227,120.0751 97.5787,120.4041 97.7687,120.6581 C97.9567,120.9121 98.2547,121.0621 98.5717,121.0621 L109.6127,121.0621 L107.3287,129.4331 L95.4597,129.4331 C95.0087,129.4331 94.6137,129.7351 94.4947,130.1711 L92.4207,137.8081 C92.3387,138.1071 92.4027,138.4301 92.5917,138.6771 C92.7807,138.9241 93.0737,139.0691 93.3857,139.0691 L106.0957,139.0691 L104.2727,147.3461 L90.1797,147.3461 C89.7387,147.3461 89.3487,147.6351 89.2217,148.0581 L88.3867,150.8321 C88.2277,151.3601 88.5277,151.9181 89.0567,152.0781 C89.5867,152.2341 90.1427,151.9361 90.3027,151.4081 C90.6707,150.1841 91.7977,149.3461 93.0757,149.3461 L105.0747,149.3461 C105.5447,149.3461 105.9507,149.0191 106.0527,148.5601 L108.3167,138.2841 C108.3527,138.1201 108.3377,137.9561 108.2927,137.7991 C108.2567,137.6721 108.2037,137.5481 108.1187,137.4431 C107.9297,137.2071 107.6427,137.0691 107.3397,137.0691 L98.3787,137.0691 C96.5217,137.0691 95.1727,135.3041 95.6587,133.5121 C95.9927,132.2851 97.1077,131.4331 98.3787,131.4331 L108.0927,131.4331 C108.5437,131.4331 108.9387,131.1311 109.0577,130.6961 L110.6187,124.9701 L123.7587,124.9701 C124.5357,124.9701 125.1667,125.6001 125.1667,126.3781 L125.1667,137.7991 L125.1667,174.8621 C125.1667,175.6401 124.5357,176.2701 123.7587,176.2701 L32.6017,176.2701 C31.8237,176.2701 31.1937,175.6401 31.1937,174.8621 L31.1937,158.9001 C31.1937,158.5831 31.0427,158.2861 30.7877,158.0971 L17.9557,148.5951 L30.7877,139.0941 C31.0427,138.9051 31.1937,138.6061 31.1937,138.2891 L31.1937,126.3781 C31.1937,125.6001 31.8237,124.9701 32.6017,124.9701 L44.1667,124.9701 C44.7197,124.9701 45.1667,124.5221 45.1667,123.9701 C45.1667,123.4171 44.7197,122.9701 44.1667,122.9701 L32.6017,122.9701 C30.7187,122.9701 29.1937,124.4951 29.1937,126.3781 L29.1937,137.7861 L15.6807,147.7911 C15.4257,147.9791 15.2757,148.2771 15.2757,148.5951 C15.2757,148.9121 15.4257,149.2101 15.6807,149.3981 L29.1937,159.4041 L29.1937,174.8621 C29.1937,176.7451 30.7187,178.2701 32.6017,178.2701 L123.7587,178.2701 C125.6407,178.2701 127.1667,176.7451 127.1667,174.8621 L127.1667,137.7991 L127.1667,126.3781 C127.1667,124.4951 125.6407,122.9701 123.7587,122.9701 L111.1647,122.9701 L111.8867,120.3261 C111.9687,120.0251 111.9067,119.7031 111.7167,119.4551 C111.5277,119.2081 111.2337,119.0621 110.9217,119.0621 L103.9627,119.0621 C101.9487,119.0621 100.5077,117.1191 101.0917,115.1921 L103.8217,106.1891 C103.9127,105.8871 103.8567,105.5581 103.6667,105.3041 C103.4787,105.0501 103.1807,104.8991 102.8647,104.8991 L91.8717,104.8991 C91.4277,104.8991 91.0357,105.1921 90.9117,105.6191 L87.6117,116.9051 C87.2377,118.1831 86.0647,119.0621 84.7317,119.0621 L82.6537,119.0621 C80.6527,119.0621 79.2127,117.1411 79.7747,115.2201 L82.4197,106.1811 C82.5077,105.8781 82.4487,105.5521 82.2597,105.3001 C82.0717,105.0481 81.7747,104.8991 81.4597,104.8991 L70.3567,104.8991 C69.9097,104.8991 69.5207,105.1871 69.3977,105.6161 C68.8437,107.5401 67.9737,110.4991 67.1907,113.1531 C66.8987,114.1421 65.4407,113.9291 65.4407,112.8971 L65.4407,69.9061 C65.4407,69.1281 66.0707,68.4981 66.8487,68.4981 L220.1747,68.4981 C220.9517,68.4981 221.5827,69.1281 221.5827,69.9061 L221.5827,87.8681 C221.5827,88.1841 221.7337,88.4831 221.9887,88.6721 L234.8197,98.1741 L221.9887,107.6751 C221.7337,107.8641 221.5827,108.1621 221.5827,108.4791 L221.5827,135.3911 C221.5827,136.1681 220.9517,136.7991 220.1747,136.7991 L131.6567,136.7991 C131.1037,136.7991 130.6567,137.2461 130.6567,137.7991 C130.6567,138.3511 131.1037,138.7991 131.6567,138.7991 L220.1747,138.7991 C222.0567,138.7991 223.5827,137.2731 223.5827,135.3911 L223.5827,108.9821 L237.0947,98.9771 C237.3497,98.7891 237.4997,98.4911 237.4997,98.1741 C237.4997,97.8571 237.3497,97.5581 237.0947,97.3701"/>
    <path fill="#B9BBBE" d="M50.2616 44.9893L49.8626 44.9893C49.3106 44.9893 48.8626 45.4373 48.8626 45.9893L48.8626 46.5003C48.8626 47.1773 48.2026 47.6593 47.5586 47.4533L46.9856 47.2703C46.4486 47.0993 45.8766 47.4043 45.7206 47.9463L45.6056 48.3433C45.4546 48.8673 45.7496 49.4153 46.2706 49.5763L46.7706 49.7313C47.4286 49.9363 47.6876 50.7293 47.2766 51.2823L46.9316 51.7473C46.5956 52.1993 46.6986 52.8403 47.1606 53.1633L47.5016 53.4013C47.9486 53.7153 48.5666 53.6103 48.8856 53.1663L49.2426 52.6703C49.6376 52.1223 50.4496 52.1143 50.8546 52.6553L51.2346 53.1613C51.5676 53.6053 52.1976 53.6933 52.6396 53.3583L52.9456 53.1253C53.3826 52.7933 53.4706 52.1713 53.1426 51.7313L52.8316 51.3143C52.4176 50.7593 52.6796 49.9613 53.3426 49.7603L53.7896 49.6233C54.3166 49.4633 54.6156 48.9073 54.4566 48.3803L54.3376 47.9813C54.1776 47.4453 53.6086 47.1453 53.0756 47.3153L52.5656 47.4773C51.9206 47.6833 51.2616 47.2023 51.2616 46.5253L51.2616 45.9893C51.2616 45.4373 50.8146 44.9893 50.2616 44.9893M59.3739 49.5762L59.8739 49.7312C60.5319 49.9362 60.7909 50.7292 60.3799 51.2832L60.0349 51.7472C59.6989 52.2002 59.8029 52.8402 60.2649 53.1632L60.6049 53.4012C61.0529 53.7152 61.6699 53.6102 61.9889 53.1662L62.3469 52.6702C62.7409 52.1222 63.5539 52.1152 63.9579 52.6552L64.3379 53.1612C64.6709 53.6052 65.3009 53.6932 65.7429 53.3582L66.0489 53.1252C66.4859 52.7932 66.5739 52.1712 66.2459 51.7312L65.9359 51.3142C65.5209 50.7592 65.7829 49.9612 66.4459 49.7602L66.8939 49.6232C67.4199 49.4632 67.7189 48.9072 67.5609 48.3802L67.4409 47.9812C67.2809 47.4452 66.7119 47.1452 66.1799 47.3152L65.6689 47.4772C65.0239 47.6832 64.3649 47.2022 64.3649 46.5252L64.3649 45.9892C64.3649 45.4372 63.9179 44.9892 63.3649 44.9892L62.9659 44.9892C62.4139 44.9892 61.9659 45.4372 61.9659 45.9892L61.9659 46.5002C61.9659 47.1782 61.3069 47.6592 60.6619 47.4532L60.0889 47.2702C59.5529 47.0992 58.9799 47.4042 58.8239 47.9462L58.7089 48.3442C58.5589 48.8672 58.8529 49.4152 59.3739 49.5762M79.5507 49.7598L79.9977 49.6238C80.5247 49.4628 80.8227 48.9068 80.6647 48.3808L80.5457 47.9808C80.3857 47.4458 79.8167 47.1448 79.2837 47.3148L78.7737 47.4778C78.1287 47.6838 77.4697 47.2018 77.4697 46.5248L77.4697 45.9888C77.4697 45.4368 77.0227 44.9888 76.4697 44.9888L76.0707 44.9888C75.5187 44.9888 75.0707 45.4368 75.0707 45.9888L75.0707 46.5008C75.0707 47.1778 74.4107 47.6588 73.7667 47.4528L73.1937 47.2708C72.6567 47.0988 72.0847 47.4048 71.9287 47.9458L71.8137 48.3438C71.6627 48.8668 71.9577 49.4148 72.4787 49.5758L72.9787 49.7318C73.6367 49.9358 73.8957 50.7298 73.4847 51.2828L73.1397 51.7478C72.8037 52.1998 72.9067 52.8408 73.3687 53.1638L73.7097 53.4018C74.1567 53.7148 74.7747 53.6098 75.0937 53.1658L75.4507 52.6708C75.8457 52.1228 76.6577 52.1148 77.0627 52.6548L77.4427 53.1608C77.7757 53.6048 78.4047 53.6938 78.8477 53.3578L79.1537 53.1248C79.5907 52.7938 79.6787 52.1718 79.3507 51.7318L79.0397 51.3138C78.6257 50.7588 78.8877 49.9618 79.5507 49.7598M92.6542 49.7598L93.1012 49.6238C93.6282 49.4628 93.9262 48.9068 93.7682 48.3808L93.6492 47.9808C93.4892 47.4458 92.9202 47.1448 92.3872 47.3148L91.8772 47.4778C91.2322 47.6838 90.5732 47.2018 90.5732 46.5248L90.5732 45.9888C90.5732 45.4368 90.1262 44.9888 89.5732 44.9888L89.1742 44.9888C88.6222 44.9888 88.1742 45.4368 88.1742 45.9888L88.1742 46.5008C88.1742 47.1778 87.5142 47.6588 86.8702 47.4528L86.2972 47.2708C85.7602 47.0988 85.1882 47.4048 85.0322 47.9458L84.9172 48.3438C84.7662 48.8668 85.0612 49.4148 85.5822 49.5758L86.0822 49.7318C86.7402 49.9358 86.9992 50.7298 86.5882 51.2828L86.2432 51.7478C85.9072 52.1998 86.0102 52.8408 86.4722 53.1638L86.8132 53.4018C87.2602 53.7148 87.8782 53.6098 88.1972 53.1658L88.5542 52.6708C88.9492 52.1228 89.7612 52.1148 90.1662 52.6548L90.5462 53.1608C90.8792 53.6048 91.5082 53.6938 91.9512 53.3578L92.2572 53.1248C92.6942 52.7938 92.7822 52.1718 92.4542 51.7318L92.1432 51.3138C91.7292 50.7588 91.9912 49.9618 92.6542 49.7598M105.7587 49.7598L106.2057 49.6238C106.7327 49.4628 107.0307 48.9068 106.8727 48.3808L106.7537 47.9808C106.5937 47.4458 106.0247 47.1448 105.4917 47.3148L104.9817 47.4778C104.3367 47.6838 103.6777 47.2018 103.6777 46.5248L103.6777 45.9888C103.6777 45.4368 103.2307 44.9888 102.6777 44.9888L102.2787 44.9888C101.7267 44.9888 101.2787 45.4368 101.2787 45.9888L101.2787 46.5008C101.2787 47.1778 100.6187 47.6588 99.9747 47.4528L99.4017 47.2708C98.8647 47.0988 98.2927 47.4048 98.1367 47.9458L98.0217 48.3438C97.8707 48.8668 98.1657 49.4148 98.6867 49.5758L99.1867 49.7318C99.8447 49.9358 100.1037 50.7298 99.6927 51.2828L99.3477 51.7478C99.0117 52.1998 99.1147 52.8408 99.5767 53.1638L99.9177 53.4018C100.3647 53.7148 100.9827 53.6098 101.3017 53.1658L101.6587 52.6708C102.0537 52.1228 102.8657 52.1148 103.2707 52.6548L103.6507 53.1608C103.9837 53.6048 104.6127 53.6938 105.0557 53.3578L105.3617 53.1248C105.7987 52.7938 105.8867 52.1718 105.5587 51.7318L105.2477 51.3138C104.8337 50.7588 105.0957 49.9618 105.7587 49.7598M118.8622 49.7598L119.3092 49.6238C119.8362 49.4628 120.1342 48.9068 119.9762 48.3808L119.8572 47.9808C119.6972 47.4458 119.1282 47.1448 118.5952 47.3148L118.0852 47.4778C117.4402 47.6838 116.7812 47.2018 116.7812 46.5248L116.7812 45.9888C116.7812 45.4368 116.3342 44.9888 115.7812 44.9888L115.3822 44.9888C114.8302 44.9888 114.3822 45.4368 114.3822 45.9888L114.3822 46.5008C114.3822 47.1778 113.7222 47.6588 113.0782 47.4528L112.5052 47.2708C111.9682 47.0988 111.3962 47.4048 111.2402 47.9458L111.1252 48.3438C110.9742 48.8668 111.2692 49.4148 111.7902 49.5758L112.2902 49.7318C112.9482 49.9358 113.2072 50.7298 112.7962 51.2828L112.4512 51.7478C112.1142 52.1998 112.2182 52.8408 112.6802 53.1638L113.0202 53.4018C113.4682 53.7148 114.0862 53.6098 114.4052 53.1658L114.7622 52.6708C115.1572 52.1228 115.9682 52.1148 116.3742 52.6548L116.7542 53.1608C117.0872 53.6048 117.7162 53.6938 118.1592 53.3578L118.4652 53.1248C118.9022 52.7938 118.9902 52.1718 118.6622 51.7318L118.3512 51.3138C117.9372 50.7588 118.1992 49.9618 118.8622 49.7598M131.9667 49.7598L132.4137 49.6238C132.9407 49.4628 133.2387 48.9068 133.0807 48.3808L132.9617 47.9808C132.8017 47.4458 132.2327 47.1448 131.6997 47.3148L131.1897 47.4778C130.5447 47.6838 129.8857 47.2018 129.8857 46.5248L129.8857 45.9888C129.8857 45.4368 129.4387 44.9888 128.8857 44.9888L128.4867 44.9888C127.9347 44.9888 127.4867 45.4368 127.4867 45.9888L127.4867 46.5008C127.4867 47.1778 126.8267 47.6588 126.1827 47.4528L125.6097 47.2708C125.0727 47.0988 124.5007 47.4048 124.3447 47.9458L124.2297 48.3438C124.0787 48.8668 124.3737 49.4148 124.8947 49.5758L125.3947 49.7318C126.0527 49.9358 126.3117 50.7298 125.9007 51.2828L125.5557 51.7478C125.2187 52.1998 125.3227 52.8408 125.7847 53.1638L126.1247 53.4018C126.5727 53.7148 127.1907 53.6098 127.5097 53.1658L127.8667 52.6708C128.2617 52.1228 129.0727 52.1148 129.4787 52.6548L129.8587 53.1608C130.1917 53.6048 130.8207 53.6938 131.2637 53.3578L131.5697 53.1248C132.0067 52.7938 132.0947 52.1718 131.7667 51.7318L131.4557 51.3138C131.0417 50.7588 131.3037 49.9618 131.9667 49.7598M145.0702 49.7598L145.5172 49.6238C146.0442 49.4628 146.3422 48.9068 146.1842 48.3808L146.0652 47.9808C145.9052 47.4458 145.3362 47.1448 144.8032 47.3148L144.2932 47.4778C143.6482 47.6838 142.9892 47.2018 142.9892 46.5248L142.9892 45.9888C142.9892 45.4368 142.5422 44.9888 141.9892 44.9888L141.5902 44.9888C141.0382 44.9888 140.5902 45.4368 140.5902 45.9888L140.5902 46.5008C140.5902 47.1778 139.9302 47.6588 139.2862 47.4528L138.7132 47.2708C138.1762 47.0988 137.6042 47.4048 137.4482 47.9458L137.3332 48.3438C137.1822 48.8668 137.4772 49.4148 137.9982 49.5758L138.4982 49.7318C139.1562 49.9358 139.4152 50.7298 139.0042 51.2828L138.6592 51.7478C138.3222 52.1998 138.4262 52.8408 138.8882 53.1638L139.2282 53.4018C139.6762 53.7148 140.2942 53.6098 140.6132 53.1658L140.9702 52.6708C141.3652 52.1228 142.1762 52.1148 142.5822 52.6548L142.9622 53.1608C143.2952 53.6048 143.9242 53.6938 144.3672 53.3578L144.6732 53.1248C145.1102 52.7938 145.1982 52.1718 144.8702 51.7318L144.5592 51.3138C144.1452 50.7588 144.4072 49.9618 145.0702 49.7598M158.1747 49.7598L158.6217 49.6238C159.1487 49.4628 159.4467 48.9068 159.2887 48.3808L159.1697 47.9808C159.0097 47.4458 158.4407 47.1448 157.9077 47.3148L157.3977 47.4778C156.7527 47.6838 156.0937 47.2018 156.0937 46.5248L156.0937 45.9888C156.0937 45.4368 155.6467 44.9888 155.0937 44.9888L154.6947 44.9888C154.1427 44.9888 153.6947 45.4368 153.6947 45.9888L153.6947 46.5008C153.6947 47.1778 153.0347 47.6588 152.3907 47.4528L151.8177 47.2708C151.2807 47.0988 150.7087 47.4048 150.5527 47.9458L150.4377 48.3438C150.2867 48.8668 150.5817 49.4148 151.1027 49.5758L151.6027 49.7318C152.2607 49.9358 152.5197 50.7298 152.1087 51.2828L151.7637 51.7478C151.4267 52.1998 151.5307 52.8408 151.9927 53.1638L152.3327 53.4018C152.7807 53.7148 153.3987 53.6098 153.7177 53.1658L154.0747 52.6708C154.4697 52.1228 155.2807 52.1148 155.6867 52.6548L156.0667 53.1608C156.3997 53.6048 157.0287 53.6938 157.4717 53.3578L157.7777 53.1248C158.2147 52.7938 158.3027 52.1718 157.9747 51.7318L157.6637 51.3138C157.2497 50.7588 157.5117 49.9618 158.1747 49.7598M171.2782 49.7598L171.7252 49.6238C172.2522 49.4628 172.5502 48.9068 172.3922 48.3808L172.2732 47.9808C172.1132 47.4458 171.5442 47.1448 171.0112 47.3148L170.5012 47.4778C169.8562 47.6838 169.1972 47.2018 169.1972 46.5248L169.1972 45.9888C169.1972 45.4368 168.7502 44.9888 168.1972 44.9888L167.7982 44.9888C167.2462 44.9888 166.7982 45.4368 166.7982 45.9888L166.7982 46.5008C166.7982 47.1778 166.1382 47.6588 165.4942 47.4528L164.9212 47.2708C164.3842 47.0988 163.8122 47.4048 163.6562 47.9458L163.5412 48.3438C163.3902 48.8668 163.6852 49.4148 164.2062 49.5758L164.7062 49.7318C165.3642 49.9358 165.6232 50.7298 165.2122 51.2828L164.8672 51.7478C164.5302 52.1998 164.6342 52.8408 165.0962 53.1638L165.4362 53.4018C165.8842 53.7148 166.5022 53.6098 166.8212 53.1658L167.1782 52.6708C167.5732 52.1228 168.3842 52.1148 168.7902 52.6548L169.1702 53.1608C169.5032 53.6048 170.1322 53.6938 170.5752 53.3578L170.8812 53.1248C171.3182 52.7938 171.4062 52.1718 171.0782 51.7318L170.7672 51.3138C170.3532 50.7588 170.6152 49.9618 171.2782 49.7598M114.3398 88.375L114.2208 87.976C114.0608 87.44 113.4908 87.14 112.9588 87.31L112.4478 87.472C111.8038 87.678 111.1448 87.197 111.1448 86.52L111.1448 85.984C111.1448 85.432 110.6968 84.984 110.1448 84.984L109.7448 84.984C109.1938 84.984 108.7448 85.432 108.7448 85.984L108.7448 86.495C108.7448 87.172 108.0858 87.654 107.4418 87.448L106.8678 87.265C106.3318 87.094 105.7598 87.399 105.6038 87.94L105.4878 88.338C105.3378 88.862 105.6328 89.41 106.1528 89.571L106.6528 89.726C107.3118 89.931 107.5698 90.724 107.1588 91.277L106.8148 91.742C106.4778 92.194 106.5818 92.835 107.0438 93.158L107.3838 93.396C107.8318 93.709 108.4488 93.604 108.7688 93.161L109.1258 92.665C109.5208 92.117 110.3318 92.109 110.7368 92.649L111.1168 93.156C111.4498 93.6 112.0798 93.688 112.5228 93.353L112.8278 93.12C113.2658 92.788 113.3538 92.166 113.0258 91.726L112.7148 91.309C112.3008 90.753 112.5628 89.956 113.2258 89.754L113.6728 89.618C114.1988 89.458 114.4978 88.902 114.3398 88.375M118.707 87.9404L118.592 88.3384C118.441 88.8614 118.736 89.4094 119.257 89.5704L119.757 89.7264C120.415 89.9304 120.674 90.7244 120.263 91.2774L119.918 91.7424C119.581 92.1944 119.686 92.8354 120.147 93.1584L120.487 93.3964C120.936 93.7094 121.553 93.6044 121.872 93.1604L122.229 92.6654C122.624 92.1174 123.436 92.1094 123.841 92.6494L124.221 93.1554C124.554 93.5994 125.184 93.6884 125.626 93.3524L125.932 93.1194C126.369 92.7884 126.457 92.1664 126.129 91.7264L125.818 91.3084C125.404 90.7534 125.666 89.9564 126.329 89.7544L126.776 89.6184C127.303 89.4574 127.602 88.9014 127.443 88.3754L127.324 87.9754C127.164 87.4404 126.595 87.1394 126.062 87.3094L125.552 87.4724C124.907 87.6784 124.248 87.1964 124.248 86.5194L124.248 85.9834C124.248 85.4314 123.801 84.9834 123.248 84.9834L122.849 84.9834C122.297 84.9834 121.849 85.4314 121.849 85.9834L121.849 86.4954C121.849 87.1724 121.189 87.6534 120.545 87.4474L119.972 87.2654C119.436 87.0934 118.863 87.3984 118.707 87.9404M101.2372 88.375L101.1182 87.976C100.9582 87.44 100.3882 87.14 99.8562 87.31L99.3452 87.472C98.7012 87.678 98.0422 87.197 98.0422 86.52L98.0422 85.984C98.0422 85.432 97.5942 84.984 97.0422 84.984L96.6422 84.984C96.0912 84.984 95.6422 85.432 95.6422 85.984L95.6422 86.495C95.6422 87.172 94.9832 87.654 94.3392 87.448L93.7652 87.265C93.2292 87.094 92.6572 87.399 92.5012 87.94L92.3852 88.338C92.2352 88.862 92.5302 89.41 93.0502 89.571L93.5502 89.726C94.2092 89.931 94.4672 90.724 94.0562 91.277L93.7122 91.742C93.3762 92.194 93.4792 92.835 93.9412 93.158L94.2822 93.396C94.7302 93.709 95.3462 93.604 95.6662 93.161L96.0232 92.665C96.4182 92.117 97.2302 92.109 97.6342 92.649L98.0142 93.156C98.3472 93.6 98.9772 93.688 99.4202 93.353L99.7252 93.12C100.1632 92.788 100.2512 92.166 99.9232 91.726L99.6122 91.309C99.1982 90.753 99.4612 89.956 100.1232 89.754L100.5702 89.618C101.0972 89.458 101.3952 88.902 101.2372 88.375M131.8114 87.9404L131.6964 88.3384C131.5454 88.8614 131.8404 89.4094 132.3614 89.5704L132.8614 89.7264C133.5194 89.9304 133.7784 90.7244 133.3674 91.2774L133.0224 91.7424C132.6854 92.1944 132.7904 92.8354 133.2514 93.1584L133.5914 93.3964C134.0404 93.7094 134.6574 93.6044 134.9764 93.1604L135.3334 92.6654C135.7284 92.1174 136.5404 92.1094 136.9454 92.6494L137.3254 93.1554C137.6584 93.5994 138.2884 93.6884 138.7304 93.3524L139.0364 93.1194C139.4734 92.7884 139.5614 92.1664 139.2334 91.7264L138.9224 91.3084C138.5084 90.7534 138.7704 89.9564 139.4334 89.7544L139.8804 89.6184C140.4074 89.4574 140.7064 88.9014 140.5474 88.3754L140.4284 87.9754C140.2684 87.4404 139.6994 87.1394 139.1664 87.3094L138.6564 87.4724C138.0114 87.6784 137.3524 87.1964 137.3524 86.5194L137.3524 85.9834C137.3524 85.4314 136.9054 84.9834 136.3524 84.9834L135.9534 84.9834C135.4014 84.9834 134.9534 85.4314 134.9534 85.9834L134.9534 86.4954C134.9534 87.1724 134.2934 87.6534 133.6494 87.4474L133.0764 87.2654C132.5404 87.0934 131.9674 87.3984 131.8114 87.9404M144.915 87.9404L144.8 88.3384C144.649 88.8614 144.944 89.4094 145.465 89.5704L145.965 89.7264C146.623 89.9304 146.882 90.7244 146.471 91.2774L146.126 91.7424C145.789 92.1944 145.894 92.8354 146.355 93.1584L146.695 93.3964C147.144 93.7094 147.761 93.6044 148.08 93.1604L148.437 92.6654C148.832 92.1174 149.644 92.1094 150.049 92.6494L150.429 93.1554C150.762 93.5994 151.392 93.6884 151.834 93.3524L152.14 93.1194C152.577 92.7884 152.665 92.1664 152.337 91.7264L152.026 91.3084C151.612 90.7534 151.874 89.9564 152.537 89.7544L152.984 89.6184C153.511 89.4574 153.81 88.9014 153.651 88.3754L153.532 87.9754C153.372 87.4404 152.803 87.1394 152.27 87.3094L151.76 87.4724C151.115 87.6784 150.456 87.1964 150.456 86.5194L150.456 85.9834C150.456 85.4314 150.009 84.9834 149.456 84.9834L149.057 84.9834C148.505 84.9834 148.057 85.4314 148.057 85.9834L148.057 86.4954C148.057 87.1724 147.397 87.6534 146.753 87.4474L146.18 87.2654C145.644 87.0934 145.071 87.3984 144.915 87.9404M158.0195 87.9404L157.9045 88.3384C157.7535 88.8614 158.0485 89.4094 158.5695 89.5704L159.0695 89.7264C159.7275 89.9304 159.9865 90.7244 159.5755 91.2774L159.2305 91.7424C158.8935 92.1944 158.9985 92.8354 159.4595 93.1584L159.7995 93.3964C160.2485 93.7094 160.8655 93.6044 161.1845 93.1604L161.5415 92.6654C161.9365 92.1174 162.7485 92.1094 163.1535 92.6494L163.5335 93.1554C163.8665 93.5994 164.4965 93.6884 164.9385 93.3524L165.2445 93.1194C165.6815 92.7884 165.7695 92.1664 165.4415 91.7264L165.1305 91.3084C164.7165 90.7534 164.9785 89.9564 165.6415 89.7544L166.0885 89.6184C166.6155 89.4574 166.9145 88.9014 166.7555 88.3754L166.6365 87.9754C166.4765 87.4404 165.9075 87.1394 165.3745 87.3094L164.8645 87.4724C164.2195 87.6784 163.5605 87.1964 163.5605 86.5194L163.5605 85.9834C163.5605 85.4314 163.1135 84.9834 162.5605 84.9834L162.1615 84.9834C161.6095 84.9834 161.1615 85.4314 161.1615 85.9834L161.1615 86.4954C161.1615 87.1724 160.5015 87.6534 159.8575 87.4474L159.2845 87.2654C158.7485 87.0934 158.1755 87.3984 158.0195 87.9404M171.123 87.9404L171.008 88.3384C170.857 88.8614 171.152 89.4094 171.673 89.5704L172.173 89.7264C172.831 89.9304 173.09 90.7244 172.679 91.2774L172.334 91.7424C171.997 92.1944 172.102 92.8354 172.563 93.1584L172.903 93.3964C173.352 93.7094 173.969 93.6044 174.288 93.1604L174.645 92.6654C175.04 92.1174 175.852 92.1094 176.257 92.6494L176.637 93.1554C176.97 93.5994 177.6 93.6884 178.042 93.3524L178.348 93.1194C178.785 92.7884 178.873 92.1664 178.545 91.7264L178.234 91.3084C177.82 90.7534 178.082 89.9564 178.745 89.7544L179.192 89.6184C179.719 89.4574 180.018 88.9014 179.859 88.3754L179.74 87.9754C179.58 87.4404 179.011 87.1394 178.478 87.3094L177.968 87.4724C177.323 87.6784 176.664 87.1964 176.664 86.5194L176.664 85.9834C176.664 85.4314 176.217 84.9834 175.664 84.9834L175.265 84.9834C174.713 84.9834 174.265 85.4314 174.265 85.9834L174.265 86.4954C174.265 87.1724 173.605 87.6534 172.961 87.4474L172.388 87.2654C171.852 87.0934 171.279 87.3984 171.123 87.9404M184.2275 87.9404L184.1125 88.3384C183.9615 88.8614 184.2565 89.4094 184.7775 89.5704L185.2775 89.7264C185.9355 89.9304 186.1945 90.7244 185.7835 91.2774L185.4385 91.7424C185.1015 92.1944 185.2065 92.8354 185.6675 93.1584L186.0075 93.3964C186.4565 93.7094 187.0735 93.6044 187.3925 93.1604L187.7495 92.6654C188.1445 92.1174 188.9565 92.1094 189.3615 92.6494L189.7415 93.1554C190.0745 93.5994 190.7045 93.6884 191.1465 93.3524L191.4525 93.1194C191.8895 92.7884 191.9775 92.1664 191.6495 91.7264L191.3385 91.3084C190.9245 90.7534 191.1865 89.9564 191.8495 89.7544L192.2965 89.6184C192.8235 89.4574 193.1225 88.9014 192.9635 88.3754L192.8445 87.9754C192.6845 87.4404 192.1155 87.1394 191.5825 87.3094L191.0725 87.4724C190.4275 87.6784 189.7685 87.1964 189.7685 86.5194L189.7685 85.9834C189.7685 85.4314 189.3215 84.9834 188.7685 84.9834L188.3695 84.9834C187.8175 84.9834 187.3695 85.4314 187.3695 85.9834L187.3695 86.4954C187.3695 87.1724 186.7095 87.6534 186.0655 87.4474L185.4925 87.2654C184.9565 87.0934 184.3835 87.3984 184.2275 87.9404M197.8808 89.5708L198.3808 89.7258C199.0388 89.9308 199.2978 90.7238 198.8868 91.2778L198.5418 91.7418C198.2048 92.1948 198.3098 92.8348 198.7718 93.1578L199.1108 93.3958C199.5598 93.7098 200.1768 93.6048 200.4958 93.1608L200.8538 92.6648C201.2478 92.1168 202.0598 92.1098 202.4648 92.6498L202.8448 93.1558C203.1778 93.5998 203.8078 93.6878 204.2498 93.3528L204.5558 93.1198C204.9928 92.7878 205.0808 92.1658 204.7528 91.7258L204.4428 91.3088C204.0278 90.7538 204.2898 89.9558 204.9528 89.7548L205.4008 89.6178C205.9268 89.4578 206.2258 88.9018 206.0678 88.3748L205.9478 87.9758C205.7878 87.4398 205.2188 87.1398 204.6868 87.3098L204.1758 87.4718C203.5308 87.6778 202.8718 87.1968 202.8718 86.5198L202.8718 85.9838C202.8718 85.4318 202.4248 84.9838 201.8718 84.9838L201.4728 84.9838C200.9208 84.9838 200.4728 85.4318 200.4728 85.9838L200.4728 86.4948C200.4728 87.1728 199.8138 87.6538 199.1688 87.4478L198.5958 87.2648C198.0598 87.0938 197.4868 87.3988 197.3308 87.9408L197.2158 88.3388C197.0658 88.8618 197.3598 89.4098 197.8808 89.5708M127.3241 106.5899C127.1641 106.0539 126.5951 105.7539 126.0611 105.9239L125.5521 106.0869C124.9071 106.2929 124.2481 105.8109 124.2481 105.1339L124.2481 104.5989C124.2481 104.0469 123.8011 103.5989 123.2481 103.5989L122.8481 103.5989C122.2971 103.5989 121.8481 104.0469 121.8481 104.5989L121.8481 105.1099C121.8481 105.7869 121.1891 106.2679 120.5451 106.0619L119.9711 105.8799C119.4351 105.7079 118.8631 106.0129 118.7071 106.5549L118.5921 106.9529C118.4411 107.4759 118.7361 108.0239 119.2571 108.1849L119.7571 108.3399C120.4151 108.5449 120.6741 109.3389 120.2621 109.8919L119.9181 110.3569C119.5811 110.8089 119.6851 111.4489 120.1471 111.7729L120.4871 112.0099C120.9351 112.3239 121.5531 112.2189 121.8721 111.7749L122.2291 111.2789C122.6241 110.7319 123.4351 110.7239 123.8411 111.2639L124.2201 111.7699C124.5531 112.2139 125.1831 112.3019 125.6261 111.9669L125.9311 111.7339C126.3691 111.4019 126.4571 110.7799 126.1291 110.3399L125.8181 109.9229C125.4041 109.3679 125.6661 108.5709 126.3281 108.3689L126.7771 108.2329C127.3031 108.0719 127.6011 107.5169 127.4431 106.9889L127.3241 106.5899zM140.4277 106.5899C140.2677 106.0539 139.6987 105.7539 139.1647 105.9239L138.6557 106.0869C138.0107 106.2929 137.3517 105.8109 137.3517 105.1339L137.3517 104.5989C137.3517 104.0469 136.9047 103.5989 136.3517 103.5989L135.9517 103.5989C135.4007 103.5989 134.9517 104.0469 134.9517 104.5989L134.9517 105.1099C134.9517 105.7869 134.2927 106.2679 133.6487 106.0619L133.0747 105.8799C132.5387 105.7079 131.9667 106.0129 131.8107 106.5549L131.6957 106.9529C131.5447 107.4759 131.8397 108.0239 132.3607 108.1849L132.8607 108.3399C133.5187 108.5449 133.7777 109.3389 133.3657 109.8919L133.0217 110.3569C132.6847 110.8089 132.7887 111.4489 133.2507 111.7729L133.5907 112.0099C134.0387 112.3239 134.6567 112.2189 134.9757 111.7749L135.3327 111.2789C135.7277 110.7319 136.5387 110.7239 136.9447 111.2639L137.3237 111.7699C137.6567 112.2139 138.2867 112.3019 138.7297 111.9669L139.0347 111.7339C139.4727 111.4019 139.5607 110.7799 139.2327 110.3399L138.9217 109.9229C138.5077 109.3679 138.7697 108.5709 139.4317 108.3689L139.8807 108.2329C140.4067 108.0719 140.7047 107.5169 140.5467 106.9889L140.4277 106.5899zM153.5322 106.5899C153.3722 106.0539 152.8032 105.7539 152.2692 105.9239L151.7602 106.0869C151.1152 106.2929 150.4562 105.8109 150.4562 105.1339L150.4562 104.5989C150.4562 104.0469 150.0092 103.5989 149.4562 103.5989L149.0562 103.5989C148.5052 103.5989 148.0562 104.0469 148.0562 104.5989L148.0562 105.1099C148.0562 105.7869 147.3972 106.2679 146.7532 106.0619L146.1792 105.8799C145.6432 105.7079 145.0712 106.0129 144.9152 106.5549L144.8002 106.9529C144.6492 107.4759 144.9442 108.0239 145.4652 108.1849L145.9652 108.3399C146.6232 108.5449 146.8822 109.3389 146.4702 109.8919L146.1262 110.3569C145.7892 110.8089 145.8932 111.4489 146.3552 111.7729L146.6952 112.0099C147.1432 112.3239 147.7612 112.2189 148.0802 111.7749L148.4372 111.2789C148.8322 110.7319 149.6432 110.7239 150.0492 111.2639L150.4282 111.7699C150.7612 112.2139 151.3912 112.3019 151.8342 111.9669L152.1392 111.7339C152.5772 111.4019 152.6652 110.7799 152.3372 110.3399L152.0262 109.9229C151.6122 109.3679 151.8742 108.5709 152.5362 108.3689L152.9852 108.2329C153.5112 108.0719 153.8092 107.5169 153.6512 106.9889L153.5322 106.5899zM166.6357 106.5899C166.4757 106.0539 165.9067 105.7539 165.3727 105.9239L164.8637 106.0869C164.2187 106.2929 163.5597 105.8109 163.5597 105.1339L163.5597 104.5989C163.5597 104.0469 163.1127 103.5989 162.5597 103.5989L162.1597 103.5989C161.6087 103.5989 161.1597 104.0469 161.1597 104.5989L161.1597 105.1099C161.1597 105.7869 160.5007 106.2679 159.8567 106.0619L159.2827 105.8799C158.7467 105.7079 158.1747 106.0129 158.0187 106.5549L157.9037 106.9529C157.7527 107.4759 158.0477 108.0239 158.5687 108.1849L159.0687 108.3399C159.7267 108.5449 159.9857 109.3389 159.5737 109.8919L159.2297 110.3569C158.8927 110.8089 158.9967 111.4489 159.4587 111.7729L159.7987 112.0099C160.2467 112.3239 160.8647 112.2189 161.1837 111.7749L161.5407 111.2789C161.9357 110.7319 162.7467 110.7239 163.1527 111.2639L163.5317 111.7699C163.8647 112.2139 164.4947 112.3019 164.9377 111.9669L165.2427 111.7339C165.6807 111.4019 165.7687 110.7799 165.4407 110.3399L165.1297 109.9229C164.7157 109.3679 164.9777 108.5709 165.6397 108.3689L166.0887 108.2329C166.6147 108.0719 166.9127 107.5169 166.7547 106.9889L166.6357 106.5899zM179.7402 106.5899C179.5802 106.0539 179.0112 105.7539 178.4772 105.9239L177.9682 106.0869C177.3232 106.2929 176.6642 105.8109 176.6642 105.1339L176.6642 104.5989C176.6642 104.0469 176.2172 103.5989 175.6642 103.5989L175.2642 103.5989C174.7132 103.5989 174.2642 104.0469 174.2642 104.5989L174.2642 105.1099C174.2642 105.7869 173.6052 106.2679 172.9612 106.0619L172.3872 105.8799C171.8512 105.7079 171.2792 106.0129 171.1232 106.5549L171.0082 106.9529C170.8572 107.4759 171.1522 108.0239 171.6732 108.1849L172.1732 108.3399C172.8312 108.5449 173.0902 109.3389 172.6782 109.8919L172.3342 110.3569C171.9972 110.8089 172.1012 111.4489 172.5632 111.7729L172.9032 112.0099C173.3512 112.3239 173.9692 112.2189 174.2882 111.7749L174.6452 111.2789C175.0402 110.7319 175.8512 110.7239 176.2572 111.2639L176.6362 111.7699C176.9692 112.2139 177.5992 112.3019 178.0422 111.9669L178.3472 111.7339C178.7852 111.4019 178.8732 110.7799 178.5452 110.3399L178.2342 109.9229C177.8202 109.3679 178.0822 108.5709 178.7442 108.3689L179.1932 108.2329C179.7192 108.0719 180.0172 107.5169 179.8592 106.9889L179.7402 106.5899zM192.8437 106.5899C192.6837 106.0539 192.1147 105.7539 191.5807 105.9239L191.0717 106.0869C190.4267 106.2929 189.7677 105.8109 189.7677 105.1339L189.7677 104.5989C189.7677 104.0469 189.3207 103.5989 188.7677 103.5989L188.3677 103.5989C187.8167 103.5989 187.3677 104.0469 187.3677 104.5989L187.3677 105.1099C187.3677 105.7869 186.7087 106.2679 186.0647 106.0619L185.4907 105.8799C184.9547 105.7079 184.3827 106.0129 184.2267 106.5549L184.1117 106.9529C183.9607 107.4759 184.2557 108.0239 184.7767 108.1849L185.2767 108.3399C185.9347 108.5449 186.1937 109.3389 185.7817 109.8919L185.4377 110.3569C185.1007 110.8089 185.2047 111.4489 185.6667 111.7729L186.0067 112.0099C186.4547 112.3239 187.0727 112.2189 187.3917 111.7749L187.7487 111.2789C188.1437 110.7319 188.9547 110.7239 189.3607 111.2639L189.7397 111.7699C190.0727 112.2139 190.7027 112.3019 191.1457 111.9669L191.4507 111.7339C191.8887 111.4019 191.9767 110.7799 191.6487 110.3399L191.3377 109.9229C190.9237 109.3679 191.1857 108.5709 191.8477 108.3689L192.2967 108.2329C192.8227 108.0719 193.1207 107.5169 192.9627 106.9889L192.8437 106.5899zM197.8808 108.1851L198.3808 108.3401C199.0388 108.5451 199.2978 109.3381 198.8868 109.8921L198.5418 110.3561C198.2048 110.8091 198.3098 111.4491 198.7718 111.7721L199.1108 112.0101C199.5598 112.3241 200.1768 112.2191 200.4958 111.7751L200.8538 111.2791C201.2478 110.7311 202.0598 110.7241 202.4648 111.2641L202.8448 111.7701C203.1778 112.2141 203.8078 112.3021 204.2498 111.9671L204.5558 111.7341C204.9928 111.4021 205.0808 110.7801 204.7528 110.3401L204.4428 109.9231C204.0278 109.3681 204.2898 108.5711 204.9518 108.3691L205.4018 108.2321C205.9278 108.0721 206.2258 107.5171 206.0678 106.9891L205.9478 106.5901C205.7878 106.0541 205.2188 105.7541 204.6858 105.9241L204.1758 106.0871C203.5308 106.2921 202.8718 105.8111 202.8718 105.1341L202.8718 104.5991C202.8718 104.0461 202.4248 103.5991 201.8718 103.5991L201.4728 103.5991C200.9208 103.5991 200.4728 104.0461 200.4728 104.5991L200.4728 105.1091C200.4728 105.7871 199.8138 106.2681 199.1688 106.0621L198.5958 105.8791C198.0598 105.7081 197.4868 106.0131 197.3308 106.5551L197.2158 106.9531C197.0658 107.4761 197.3598 108.0241 197.8808 108.1851"/>
    <path fill="#DCDDDE" d="M82.2607,139.0693 L71.8477,139.0693 C71.5317,139.0693 71.2357,138.9213 71.0457,138.6683 C70.8577,138.4153 70.7987,138.0883 70.8887,137.7853 L73.1517,130.1483 C73.2777,129.7233 73.6677,129.4323 74.1107,129.4323 L84.5237,129.4323 C84.8387,129.4323 85.1357,129.5813 85.3247,129.8343 C85.5137,130.0873 85.5727,130.4143 85.4827,130.7163 L83.2197,138.3533 C83.0937,138.7783 82.7027,139.0693 82.2607,139.0693 M88.3867,150.8323 L89.2217,148.0573 C89.3497,147.6343 89.7387,147.3453 90.1797,147.3453 L104.2727,147.3453 L106.0957,139.0693 L93.3857,139.0693 C93.0737,139.0693 92.7807,138.9233 92.5917,138.6763 C92.4027,138.4293 92.3387,138.1073 92.4207,137.8073 L94.4947,130.1713 C94.6137,129.7353 95.0087,129.4323 95.4597,129.4323 L107.3287,129.4323 L109.6127,121.0623 L98.5717,121.0623 C98.2547,121.0623 97.9567,120.9123 97.7687,120.6583 C97.5787,120.4043 97.5227,120.0753 97.6147,119.7723 L101.5167,106.8993 L92.6207,106.8993 L88.6897,120.3423 C88.5647,120.7693 88.1737,121.0623 87.7297,121.0623 L77.3157,121.0623 C77.0007,121.0623 76.7037,120.9143 76.5157,120.6623 C76.3257,120.4103 76.2677,120.0843 76.3557,119.7813 L80.1247,106.8993 L71.1097,106.8993 C69.8807,111.1563 68.5177,115.7893 67.1497,120.3493 C67.0227,120.7723 66.6327,121.0623 66.1917,121.0623 L52.2967,121.0623 L50.5457,129.4323 L63.1747,129.4323 C63.4827,129.4323 63.7737,129.5743 63.9627,129.8173 C64.1527,130.0603 64.2197,130.3773 64.1447,130.6753 C63.3847,133.7133 62.7117,135.5483 61.6927,138.3283 C61.5487,138.7223 61.1427,139.0693 60.7227,139.0693 L48.8137,139.0693 L47.1437,147.3453 L57.7057,147.3453 C58.0217,147.3453 58.3177,147.4943 58.5067,147.7463 C58.6957,147.9983 58.7537,148.3243 58.6657,148.6273 L54.8417,161.6833 L63.7627,161.6833 L67.6817,148.0693 C67.8047,147.6403 68.1977,147.3453 68.6427,147.3453 L79.1497,147.3453 C79.4637,147.3453 79.7597,147.4933 79.9477,147.7443 C80.1377,147.9953 80.1977,148.3203 80.1107,148.6223 L76.3497,161.6833 L85.1507,161.6833 C85.4617,160.6133 85.8217,159.4003 86.2347,158.0133 C86.3917,157.4843 86.9477,157.1823 87.4777,157.3403 L87.4777,157.3413 C87.9387,155.8003 88.4627,154.0533 89.0567,152.0783 C88.5277,151.9183 88.2277,151.3603 88.3867,150.8323"/>
    <path fill="#B9BBBE" d="M82.8036 132.7168L81.7256 136.3538C81.5996 136.7788 81.2096 137.0698 80.7666 137.0698L74.5256 137.0698C73.8576 137.0698 73.3766 136.4258 73.5666 135.7848L74.6446 132.1488C74.7706 131.7238 75.1606 131.4328 75.6036 131.4328L81.8446 131.4328C82.5136 131.4328 82.9926 132.0758 82.8036 132.7168L82.8036 132.7168zM85.4826 130.7168C85.5726 130.4138 85.5136 130.0868 85.3246 129.8338 85.1356 129.5808 84.8386 129.4328 84.5236 129.4328L74.1106 129.4328C73.6676 129.4328 73.2776 129.7238 73.1516 130.1488L70.8886 137.7848C70.7986 138.0878 70.8576 138.4148 71.0456 138.6678 71.2356 138.9208 71.5326 139.0698 71.8476 139.0698L82.2606 139.0698C82.7026 139.0698 83.0936 138.7788 83.2196 138.3538L85.4826 130.7168zM217.7314 48.2857L217.7314 48.2857C216.8974 48.2857 216.2214 47.6097 216.2214 46.7757 216.2214 46.2227 215.7734 45.7757 215.2214 45.7757 214.6684 45.7757 214.2214 46.2227 214.2214 46.7757 214.2214 47.6097 213.5454 48.2857 212.7114 48.2857 212.1594 48.2857 211.7114 48.7327 211.7114 49.2857 211.7114 49.8387 212.1594 50.2857 212.7114 50.2857 213.5454 50.2857 214.2214 50.9617 214.2214 51.7957 214.2214 52.3477 214.6684 52.7957 215.2214 52.7957 215.7734 52.7957 216.2214 52.3477 216.2214 51.7957 216.2214 50.9617 216.8974 50.2857 217.7314 50.2857 218.2844 50.2857 218.7314 49.8387 218.7314 49.2857 218.7314 48.7327 218.2844 48.2857 217.7314 48.2857M169.3085 166.9468L169.3075 166.9468C168.4735 166.9468 167.7975 166.2708 167.7975 165.4368 167.7975 164.8838 167.3505 164.4368 166.7975 164.4368 166.2455 164.4368 165.7975 164.8838 165.7975 165.4368 165.7975 166.2708 165.1215 166.9468 164.2875 166.9468 163.7365 166.9468 163.2875 167.3938 163.2875 167.9468 163.2875 168.4998 163.7365 168.9468 164.2875 168.9468 165.1215 168.9468 165.7975 169.6228 165.7975 170.4568 165.7975 171.0088 166.2455 171.4568 166.7975 171.4568 167.3505 171.4568 167.7975 171.0088 167.7975 170.4568 167.7975 169.6228 168.4735 168.9468 169.3075 168.9468L169.3085 168.9468C169.8605 168.9468 170.3085 168.4998 170.3085 167.9468 170.3085 167.3938 169.8605 166.9468 169.3085 166.9468M148.5927 152.9356C148.8487 152.9356 149.1047 152.8376 149.2997 152.6426L150.4837 151.4596C150.8737 151.0706 150.8737 150.4366 150.4847 150.0456 150.0937 149.6556 149.4597 149.6556 149.0697 150.0456L147.8857 151.2286C147.4947 151.6186 147.4947 152.2516 147.8857 152.6426 148.0807 152.8376 148.3367 152.9356 148.5927 152.9356M142.6767 158.8525C142.9327 158.8525 143.1897 158.7545 143.3837 158.5595L144.5677 157.3755C144.9577 156.9855 144.9577 156.3525 144.5677 155.9615 144.1767 155.5715 143.5427 155.5715 143.1537 155.9615L141.9697 157.1455C141.5787 157.5365 141.5787 158.1685 141.9697 158.5595 142.1647 158.7545 142.4207 158.8525 142.6767 158.8525M149.2997 155.9619C148.9087 155.5709 148.2767 155.5709 147.8857 155.9619 147.4947 156.3529 147.4947 156.9849 147.8857 157.3759L149.0697 158.5599C149.2647 158.7549 149.5207 158.8529 149.7767 158.8529 150.0317 158.8529 150.2877 158.7549 150.4837 158.5599 150.8737 158.1689 150.8737 157.5359 150.4837 157.1459L149.2997 155.9619zM143.1532 152.6426C143.3482 152.8376 143.6042 152.9356 143.8602 152.9356 144.1162 152.9356 144.3722 152.8376 144.5672 152.6426 144.9582 152.2516 144.9582 151.6196 144.5672 151.2286L143.3832 150.0456C142.9932 149.6556 142.3592 149.6556 141.9692 150.0456 141.5792 150.4366 141.5792 151.0696 141.9692 151.4596L143.1532 152.6426zM54.912 2.0005C55.744 2.0005 56.422 2.6785 56.422 3.5105 56.422 4.3435 55.744 5.0215 54.912 5.0215 54.079 5.0215 53.401 4.3435 53.401 3.5105 53.401 2.6785 54.079 2.0005 54.912 2.0005M54.912 7.0215C56.847 7.0215 58.422 5.4455 58.422 3.5105 58.422 1.5745 56.847.0005 54.912.0005 52.976.0005 51.401 1.5745 51.401 3.5105 51.401 5.4455 52.976 7.0215 54.912 7.0215"/>
  </g>
</svg>
