<svg width="24" height="24" fill="none" 
  xmlns="http://www.w3.org/2000/svg" viewBox="0 0 24 24">
  <path d="M22.737 12c0 5.93-4.807 10.737-10.737 10.737S1.263 17.93 1.263 12 6.07 1.263 12 1.263 22.737 6.07 22.737 12z" fill="#B9BBBE"/>
  <path d="M12 13.895c-2.288 0-3.806-.267-5.684-.632-.429-.083-1.263 0-1.263 1.263 0 2.527 2.902 5.684 6.947 5.684s6.947-3.157 6.947-5.684c0-1.263-.834-1.346-1.263-1.263-1.877.365-3.396.632-5.684.632zM6.947 8.842s0-1.263 1.264-1.263c1.263 0 1.263 1.263 1.263 1.263v1.263s0 1.263-1.263 1.263c-1.264 0-1.264-1.263-1.264-1.263V8.842zM14.526 8.842s0-1.263 1.264-1.263c1.263 0 1.263 1.263 1.263 1.263v1.263s0 1.263-1.264 1.263c-1.263 0-1.263-1.263-1.263-1.263V8.842z" fill="#4F545C"/>
  <path d="M6.316 14.526s1.895.632 5.684.632c3.79 0 5.684-.632 5.684-.632S16.421 17.053 12 17.053s-5.684-2.527-5.684-2.527z" fill="#fff"/>
</svg>
