<svg fill="none" height="79" viewBox="0 0 660 79" width="660" xmlns="http://www.w3.org/2000/svg"><path d="m622.57 52.26-17-15.41c-5.18-4.7098-11.929-7.3197-18.93-7.32h-59.39c-4.07-.0051-8.088-.9148-11.763-2.6633s-6.916-4.2921-9.487-7.4467l-.25-.31c-2.582-3.1653-5.837-5.7152-9.529-7.464-3.691-1.74893-7.726-2.65284-11.811-2.646h-58.41c-11.82-.00139-23.372 3.5221-33.18 10.12l-14.13 9.51c-9.807 6.5979-21.36 10.1214-33.18 10.12h-84.69c-7.865.0014-15.642 1.6552-22.828 4.8542-7.185 3.199-13.618 7.8719-18.882 13.7158l-19.54 21.68c153.477 0 306.953-.0012 460.43 0 0-7.4767 0-14.9533 0-22.43h-26.28c-4.123-.0022-8.098-1.5385-11.15-4.31z" fill="#3e70dd" opacity=".2"/><path d="m61.16 33.45h-7.8c-5.495.0018-10.9366-1.0792-16.0138-3.1811-5.0771-2.1019-9.6904-5.1835-13.5762-9.0689l-3.39-3.4c-3.7579-3.7512-8.8503-5.8587-14.16001-5.86h-6.21999588c0 22.3533.00025021 44.7067.00000012 67.06h127.00000576l-31.16-31.18c-4.5524-4.5571-9.9586-8.172-15.9093-10.6378-5.9508-2.4657-12.3293-3.734-18.7707-3.7322z" fill="#3e70dd" opacity=".2"/><path d="m462.71 63.67v15.33h-46.48v-15.33l7.1-7.09h32.29z" fill="#557ff2"/><path d="m416.23 63.67h34.42v-7.16h-27.32z" fill="#3261d2"/><path d="m441.02 79 .63-7.48 1.28-14.96.84-9.9h30.77l.84 9.9.35 4.1.08.8.17 2.04.1 1.26 1.22 14.24z" fill="#85a6fb"/><path d="m475.2 71.52h-68.63v7.48h68.63z" fill="#7398fb"/><path d="m474.78 71.53-.63 7.47h-1.78l.64-7.47z" fill="#557ff2"/><path d="m407.62 79h-18.89l1.21-14.22.11-1.28h16.24l.11 1.28.58 6.74z" fill="#7398fb"/><path d="m387.27 64.77h21.81v-4.09h-21.81z" fill="#7398fb"/><path d="m387.27 60.68h21.81v-4.1h-21.81z" fill="#557ff2"/><path d="m404.18 61.46h4.9v-4.89h-4.9z" fill="#7398fb"/><path d="m394.65 61.46h7.27v-4.89h-7.27z" fill="#7398fb"/><path d="m387.27 61.46h5.65v-4.89h-5.65z" fill="#7398fb"/><path d="m483.6 73c.238-.0008.475.0398.7.12.452.1887.811.548 1 1 .093.2214.137.4601.13.7v2.84h-3.66v-2.82c.001-.2402.049-.4779.14-.7.087-.219.22-.4167.39-.58.171-.1704.375-.3032.6-.39.219-.1033.458-.1611.7-.17z" fill="#4173d9"/><path d="m398.17 69.22c.234-.0026.466.0421.683.1315.217.0893.413.2215.577.3885.175.1606.316.3551.414.5717.098.2165.151.4507.156.6883v2.84h-3.6v-2.84c.003-.473.192-.9257.528-1.2593.335-.3335.789-.5207 1.262-.5207z" fill="#4173d9"/><path d="m493.05 79h-18.9l.64-7.48.58-6.76.11-1.26h16.25l.1 1.26z" fill="#7398fb"/><path d="m494.5 60.66h-21.8v4.1h21.8z" fill="#7398fb"/><path d="m494.5 56.57h-21.8v4.09h21.8z" fill="#557ff2"/><path d="m480 56.57h-7.3v4.89h7.3z" fill="#7398fb"/><path d="m489.49 56.57h-7.27v4.89h7.27z" fill="#7398fb"/><path d="m494.52 56.57h-3.3v4.89h3.3z" fill="#7398fb"/><path d="m447 46.65h24.3v-20.77h-24.3z" fill="#7398fb"/><path d="m409.4 79h-1.78l-.63-7.47h1.77z" fill="#557ff2"/><path d="m478.76 39.77h-39.21v6.88h39.21z" fill="#85a6fb"/><path d="m443.77 46.66-.19 2.33h31.16l-.2-2.33z" fill="#7398fb"/><path d="m478.76 35.67h-39.21v4.1h39.21z" fill="#7398fb"/><path d="m461.13 35.67h-14.13v4.89h14.13z" fill="#85a6fb"/><path d="m473.6 35.67h-8.77v4.89h8.77z" fill="#85a6fb"/><path d="m478.78 35.67h-3.3v4.89h3.3z" fill="#85a6fb"/><path d="m439.56 40.56h4.44v-4.89h-4.43z" fill="#85a6fb"/><path d="m459.16 16.17-8.51 9.72h17z" fill="#3261d2"/><path d="m483.6 69.22c.239-.0107.478.0303.7.12.226.0795.431.2094.6.38.174.1678.313.3683.41.59.093.2214.137.4601.13.7v2.84h-3.66v-2.85c.001-.2369.049-.4714.14-.69.089-.2207.222-.4212.39-.59.171-.1704.375-.3032.6-.39.221-.0816.455-.119.69-.11z" fill="#4173d9"/><path d="m459.82 2.05h-1.34v14.87h1.34z" fill="#85a6fb"/><path d="m459.16 2.49c.214.00198.424-.05967.603-.17713s.319-.28543.402-.4826c.083-.19716.106-.41462.065-.62477-.04-.210155-.142-.403527-.293-.555569-.15-.152043-.343-.2559-.553-.298389-.209-.042489-.427-.021694-.625.059747s-.367.219854-.486.397669-.183.387012-.183.601042c0 .28471.112.55791.313.76016.2.20226.472.3172.757.31984z" fill="#85a6fb"/><path d="m472.2 3.29h-12.38v10.71h12.38z" fill="#7196ff"/><path d="m480.89 6.16h-14.27v10.74h14.29z" fill="#7196ff"/><path d="m466.62 14h5.58l-5.58 2.88z" fill="#3261d2"/><g fill="#4173d9"><path d="m509.54 66.66c-.055-1.1946-.569-2.322-1.434-3.1478s-2.015-1.2866-3.211-1.2866-2.346.4608-3.211 1.2866-1.379 1.9532-1.434 3.1478v4c-.029.6281.069 1.2556.29 1.8446.22.5889.557 1.1271.992 1.5819.434.4548.956.8169 1.534 1.0642.578.2474 1.2.3749 1.829.3749s1.251-.1275 1.829-.3749c.578-.2473 1.1-.6094 1.534-1.0642.435-.4548.772-.993.992-1.5819.221-.589.319-1.2165.29-1.8446z" opacity=".2"/><path d="m505.49 68.1h-1.18v10.9h1.18z" opacity=".2"/><path d="m546.12 69c-.056-1.1946-.569-2.322-1.434-3.1478s-2.015-1.2866-3.211-1.2866-2.346.4608-3.211 1.2866-1.379 1.9532-1.434 3.1478v4c-.029.6281.069 1.2556.29 1.8446.22.5889.557 1.1271.992 1.5819.434.4548.956.8169 1.534 1.0642s1.2.3749 1.829.3749 1.251-.1276 1.829-.3749 1.1-.6094 1.534-1.0642c.435-.4548.772-.993.992-1.5819.221-.589.319-1.2165.29-1.8446z" opacity=".2"/><path d="m542.07 70.48h-1.18v8.52h1.18z" opacity=".2"/><path d="m381.59 67.58c0-1.2333-.49-2.416-1.362-3.288-.872-.8721-2.055-1.362-3.288-1.362s-2.416.4899-3.288 1.362c-.872.872-1.362 2.0547-1.362 3.288v4c0 1.2333.49 2.416 1.362 3.288.872.8721 2.055 1.362 3.288 1.362s2.416-.4899 3.288-1.362c.872-.872 1.362-2.0547 1.362-3.288z" opacity=".2"/><path d="m377.54 69h-1.18v10h1.18z" opacity=".2"/><path d="m514.2 73.54c.611-.0013 1.216.1181 1.781.3513s1.078.5757 1.51 1.0077c.432.4321.775.9452 1.008 1.51.233.5647.352 1.17.351 1.781v.81h-9.29v-.8c-.01-.6113.11-1.2179.35-1.78.351-.8497.946-1.5766 1.709-2.089.764-.5125 1.662-.7877 2.581-.791z" opacity=".2"/></g></svg>