<svg width="201" height="123" viewBox="0 0 201 123" fill="none" xmlns="http://www.w3.org/2000/svg">
<g clip-path="url(#clip0)">
<path d="M38.7354 51.2032L53.3843 62.7697V59.6665C52.5391 59.6665 51.9757 59.1023 51.9757 58.256V40.7651L38.7354 51.2032Z" fill="#202225"/>
<path d="M113.388 13.9643L99.7254 3.24414L80.9917 17.9139H120.854L115.36 13.6822C114.938 14.2464 114.093 14.3875 113.388 13.9643Z" fill="#202225"/>
<path d="M147.757 61.5002L160.856 51.2032L147.757 40.7651V61.5002Z" fill="#202225"/>
<path d="M81.1327 84.6333L98.8804 70.6688C99.4438 70.2457 100.148 70.2457 100.571 70.6688L118.459 84.6333L144.94 63.7571V20.7354H54.7928V58.1149C54.7928 58.9613 54.2294 59.5255 53.3843 59.5255V62.6287L81.1327 84.6333Z" fill="white"/>
<path d="M99.8663 73.6309L40.5664 120.179H159.166L99.8663 73.6309Z" fill="#4F545C"/>
<path d="M164.66 51.062V50.921C164.66 50.7799 164.66 50.6389 164.519 50.4978V50.3568C164.378 50.2157 164.378 50.0747 164.237 49.9336L147.898 37.0976V19.3246C147.898 18.4783 147.334 17.9141 146.489 17.9141H121.135H85.0765C83.668 17.9141 83.1045 16.2214 84.2314 15.3751L99.8663 3.10332L113.529 13.8235C114.093 14.2467 115.079 14.2467 115.501 13.5414C115.924 12.8361 115.924 11.9898 115.219 11.5666L100.711 0.282218C100.148 -0.140948 99.4437 -0.140948 99.0212 0.282218L79.1606 15.7983C77.4704 17.2088 75.2167 17.9141 73.1038 17.9141H53.3842C52.539 17.9141 51.9756 18.4783 51.9756 19.3246V31.0322C51.9756 34.8407 50.1445 38.5081 47.1865 40.9061L35.6364 49.9336C35.4956 50.0747 35.3547 50.2157 35.3547 50.3568C35.3547 50.3568 35.3547 50.3568 35.3547 50.4978C35.3547 50.6389 35.2139 50.7799 35.2139 50.921V51.062C35.2139 51.062 35.2139 51.062 35.2139 51.2031V121.59C35.2139 122.436 35.7773 123 36.6224 123H163.392C164.237 123 164.8 122.436 164.8 121.59L164.66 51.062ZM147.757 43.7272C147.757 42.5987 149.166 41.8935 150.011 42.5987L159.589 50.0746C160.293 50.6389 160.293 51.7673 159.589 52.3315L150.011 59.8075C149.025 60.5127 147.757 59.8074 147.757 58.679V43.7272ZM144.94 20.7352V63.757L120.149 83.2226C119.163 84.0689 117.755 84.0689 116.628 83.2226L100.571 70.6687C100.007 70.2455 99.3029 70.2455 98.8803 70.6687L82.9637 83.2226C81.9777 84.0689 80.5692 84.0689 79.4423 83.2226L54.7927 63.757V20.7352H144.94ZM40.1438 50.0746L49.7219 42.5987C50.7079 41.8935 51.9756 42.5987 51.9756 43.7272V61.6412L40.1438 52.3315C39.4395 51.7673 39.4395 50.6389 40.1438 50.0746ZM37.8901 115.806V56.9864C37.8901 55.8579 39.2987 55.1526 40.1438 55.8579L53.3842 66.296L76.0618 84.21C77.4703 85.3384 77.4703 87.4542 76.0618 88.5827L53.3842 106.497L40.1438 116.935C39.1578 117.64 37.8901 116.935 37.8901 115.806ZM150.997 120.179H48.7359C46.0597 120.179 44.9329 116.794 47.0457 115.101L99.8663 73.6308L152.687 115.101C154.8 116.794 153.673 120.179 150.997 120.179ZM161.842 115.806C161.842 116.935 160.434 117.64 159.589 116.935L146.348 106.497L123.53 88.5827C122.121 87.4542 122.121 85.3384 123.53 84.21L146.348 66.296L147.194 65.5907L147.334 65.4497L159.589 55.8579C160.575 55.1526 161.842 55.8579 161.842 56.9864V115.806Z" fill="black"/>
<path d="M180.013 10.8614C180.435 10.8614 180.717 10.7204 180.999 10.4383L182.689 8.74559C183.252 8.18137 183.252 7.33504 182.689 6.77082C182.125 6.2066 181.28 6.2066 180.717 6.77082L179.027 8.46348C178.463 9.0277 178.463 9.87403 179.027 10.4383C179.308 10.7204 179.59 10.8614 180.013 10.8614Z" fill="black"/>
<path d="M171.702 19.1837C172.125 19.1837 172.406 19.0426 172.688 18.7605L174.378 17.0679C174.942 16.5036 174.942 15.6573 174.378 15.0931C173.815 14.5289 172.97 14.5289 172.406 15.0931L170.716 16.7857C170.153 17.35 170.153 18.1963 170.716 18.7605C170.998 19.0426 171.279 19.1837 171.702 19.1837Z" fill="black"/>
<path d="M180.717 18.7605C180.999 19.0426 181.421 19.1837 181.703 19.1837C181.985 19.1837 182.407 19.0426 182.689 18.7605C183.252 18.1963 183.252 17.35 182.689 16.7857L180.999 15.0931C180.435 14.5289 179.59 14.5289 179.027 15.0931C178.463 15.6573 178.463 16.5036 179.027 17.0679L180.717 18.7605Z" fill="black"/>
<path d="M172.266 10.4383C172.547 10.7204 172.97 10.8614 173.252 10.8614C173.533 10.8614 173.956 10.7204 174.238 10.4383C174.801 9.87403 174.801 9.0277 174.238 8.46348L172.547 6.77082C171.984 6.2066 171.139 6.2066 170.575 6.77082C170.012 7.33504 170.012 8.18137 170.575 8.74559L172.266 10.4383Z" fill="black"/>
<path d="M1.40855 72.3611C2.53539 72.3611 3.52137 73.3485 3.52137 74.477C3.52137 75.3233 4.08479 75.8875 4.92992 75.8875C5.77505 75.8875 6.33847 75.3233 6.33847 74.477C6.33847 73.3485 7.32446 72.3611 8.4513 72.3611C9.29643 72.3611 9.85985 71.7969 9.85985 70.9506C9.85985 70.1043 9.29643 69.54 8.4513 69.54C7.32446 69.54 6.33847 68.5527 6.33847 67.4242C6.33847 66.5779 5.77505 66.0137 4.92992 66.0137C4.08479 66.0137 3.52137 66.5779 3.52137 67.4242C3.52137 68.5527 2.53539 69.54 1.40855 69.54C0.56342 69.54 0 70.1043 0 70.9506C0 71.7969 0.56342 72.3611 1.40855 72.3611Z" fill="white"/>
<path d="M166.913 100.572C172.359 100.572 176.773 96.1517 176.773 90.6986C176.773 85.2454 172.359 80.8247 166.913 80.8247C161.468 80.8247 157.053 85.2454 157.053 90.6986C157.053 96.1517 161.468 100.572 166.913 100.572Z" fill="white"/>
<path d="M166.913 100.572C172.359 100.572 176.773 96.1517 176.773 90.6986C176.773 85.2454 172.359 80.8247 166.913 80.8247C161.468 80.8247 157.053 85.2454 157.053 90.6986C157.053 96.1517 161.468 100.572 166.913 100.572Z" fill="#ACB0FF"/>
<path d="M166.913 101.983C160.715 101.983 155.645 96.9049 155.645 90.6985C155.645 84.4921 160.715 79.4141 166.913 79.4141C173.111 79.4141 178.181 84.4921 178.181 90.6985C178.181 96.9049 173.111 101.983 166.913 101.983ZM166.913 82.2352C162.265 82.2352 158.462 86.0437 158.462 90.6985C158.462 95.3533 162.265 99.1618 166.913 99.1618C171.561 99.1618 175.364 95.3533 175.364 90.6985C175.364 86.0437 171.561 82.2352 166.913 82.2352Z" fill="black"/>
<path d="M182.689 121.59L191.14 106.92L199.592 121.59H182.689Z" fill="white"/>
<path d="M199.592 123H182.689C182.126 123 181.703 122.718 181.421 122.295C181.14 121.871 181.14 121.307 181.421 120.884L189.873 106.214C190.436 105.368 191.845 105.368 192.267 106.214L200.718 120.884C201 121.307 201 121.871 200.718 122.295C200.437 122.718 200.014 123 199.592 123ZM185.083 120.179H197.056L190.999 109.741L185.083 120.179Z" fill="black"/>
<path d="M104.092 48.5232C104.655 48.5232 105.078 48.1 105.078 47.5358V40.7652V31.1734C105.078 30.6092 104.655 30.186 104.092 30.186H95.4997C94.9362 30.186 94.5137 30.6092 94.5137 31.1734V40.7652V47.5358C94.5137 48.1 94.9362 48.5232 95.4997 48.5232H104.092Z" fill="#7B80D6"/>
<path d="M105.078 62.3466V53.7423C105.078 53.178 104.655 52.7549 104.092 52.7549H95.4997C94.9362 52.7549 94.5137 53.178 94.5137 53.7423V62.3466C94.5137 62.9108 94.9362 63.334 95.4997 63.334H104.092C104.655 63.334 105.078 62.9108 105.078 62.3466Z" fill="#7B80D6"/>
</g>
<defs>
<clipPath id="clip0">
<rect width="201" height="123" fill="white"/>
</clipPath>
</defs>
</svg>
