<svg width="189" height="100" viewBox="0 0 189 100" fill="none" xmlns="http://www.w3.org/2000/svg">
<g opacity="0.1">
<path d="M129.88 200.834L49.397 44.3242L86.7501 200.834H129.88Z" fill="white"/>
<path d="M-62.9263 -174.103L49.3968 44.3243L-2.73338 -174.103H-62.9263Z" fill="url(#paint0_linear_4960_175418)"/>
<path d="M-90.0049 -46.036L49.3972 44.3243L-90.0049 -112.186V-46.036Z" fill="url(#paint1_linear_4960_175418)"/>
<path d="M-90.0049 44.3243H49.3972L-90.0049 2.38794V44.3243Z" fill="url(#paint2_linear_4960_175418)"/>
<path d="M-90.0049 134.685L49.3972 44.3242L-90.0049 86.2606V134.685Z" fill="url(#paint3_linear_4960_175418)"/>
<path d="M-31.0856 200.834L49.3972 44.3242L-90.0049 200.834H-31.0856Z" fill="url(#paint4_linear_4960_175418)"/>
<path d="M49.3971 200.834V44.3242L12.0439 200.834H49.3971Z" fill="white"/>
<path d="M49.397 -174.103V44.3243L101.527 -174.103H49.397Z" fill="url(#paint5_linear_4960_175418)"/>
<path d="M189.001 -112.413V-174.103H161.72L49.397 44.3243L189.001 -112.413Z" fill="url(#paint6_linear_4960_175418)"/>
<path d="M189.001 -46.1654L49.397 44.3244L189.001 2.32587V-46.1654Z" fill="url(#paint7_linear_4960_175418)"/>
<path d="M189.001 44.3242H49.397L189.001 86.3227V44.3242Z" fill="url(#paint8_linear_4960_175418)"/>
<path d="M189.001 134.814L49.397 44.3242L188.799 200.834H189.001V134.814Z" fill="url(#paint9_linear_4960_175418)"/>
</g>
<defs>
<linearGradient id="paint0_linear_4960_175418" x1="47.5005" y1="27" x2="31.5005" y2="-9.5" gradientUnits="userSpaceOnUse">
<stop stop-color="white"/>
<stop offset="1" stop-color="white" stop-opacity="0"/>
</linearGradient>
<linearGradient id="paint1_linear_4960_175418" x1="49.0007" y1="37.5001" x2="-0.499266" y2="-8.49987" gradientUnits="userSpaceOnUse">
<stop stop-color="white"/>
<stop offset="1" stop-color="white" stop-opacity="0"/>
</linearGradient>
<linearGradient id="paint2_linear_4960_175418" x1="29.0007" y1="40.5" x2="-16.9993" y2="33" gradientUnits="userSpaceOnUse">
<stop stop-color="white"/>
<stop offset="1" stop-color="white" stop-opacity="0"/>
</linearGradient>
<linearGradient id="paint3_linear_4960_175418" x1="47.5007" y1="44" x2="-11.4993" y2="67.5" gradientUnits="userSpaceOnUse">
<stop stop-color="white"/>
<stop offset="1" stop-color="white" stop-opacity="0"/>
</linearGradient>
<linearGradient id="paint4_linear_4960_175418" x1="43.0007" y1="53.5" x2="5.50074" y2="105" gradientUnits="userSpaceOnUse">
<stop stop-color="white"/>
<stop offset="1" stop-color="white" stop-opacity="0"/>
</linearGradient>
<linearGradient id="paint5_linear_4960_175418" x1="49.0007" y1="32" x2="57.0007" y2="-29.5" gradientUnits="userSpaceOnUse">
<stop stop-color="white"/>
<stop offset="1" stop-color="white" stop-opacity="0"/>
</linearGradient>
<linearGradient id="paint6_linear_4960_175418" x1="56.5227" y1="25.5482" x2="98.6712" y2="-35.6675" gradientUnits="userSpaceOnUse">
<stop stop-color="white"/>
<stop offset="1" stop-color="white" stop-opacity="0"/>
</linearGradient>
<linearGradient id="paint7_linear_4960_175418" x1="58.5297" y1="36.5871" x2="197.018" y2="-28.6427" gradientUnits="userSpaceOnUse">
<stop stop-color="white"/>
<stop offset="1" stop-color="white" stop-opacity="0"/>
</linearGradient>
<linearGradient id="paint8_linear_4960_175418" x1="55.5191" y1="44.6153" x2="194.007" y2="61.6754" gradientUnits="userSpaceOnUse">
<stop stop-color="white"/>
<stop offset="1" stop-color="white" stop-opacity="0"/>
</linearGradient>
<linearGradient id="paint9_linear_4960_175418" x1="72.5792" y1="59.6683" x2="343.534" y2="284.46" gradientUnits="userSpaceOnUse">
<stop stop-color="white"/>
<stop offset="1" stop-color="white" stop-opacity="0"/>
</linearGradient>
</defs>
</svg>
