<svg xmlns="http://www.w3.org/2000/svg" viewBox="0 0 180 200" width="42" height="33">
  <defs>
    <style>
      .cls-1{fill:#aabff2}.cls-3{fill:#7d94df}.cls-4{fill:#23d093}
    </style>
  </defs>
  <path d="M155 190v-25c0-27.5-24.38-50-54.17-50H79.17C49.38 115 25 137.5 25 165v25a36.86 36.86 0 0 0 1.38 10h127.24a36.86 36.86 0 0 0 1.38-10z" class="cls-1"/>
  <path d="M171.54 70.53c-2.33-7.19-8.77-7.21-15.08-6.9A53.37 53.37 0 0 0 152 49.56c-7.38-14.8-21.8-17.53-37-18.28-24.29-1.2-49.67-1.85-71.63 8.46C33.05 44.59 30 52.63 27.75 58.71c-.41 1.12-.73 2.33-1.08 3.5a8.68 8.68 0 0 0-.89-.14C9.5 61 5.5 74.12 5.71 88.06c.1 6.75.53 15.79 3.52 22 3.16 6.55 10.19 6 16.42 5.69a8.07 8.07 0 0 0 1.62-.26c5.18 14.73 18 20.44 32.92 22.39 22.89 3 48.64 3.81 71.45.12 14.21-2.31 20.56-10.79 23.4-22.27a21.88 21.88 0 0 0 5.5-.86c8-2.32 12.44-5.15 13.29-13.9.92-9.44.65-21.38-2.29-30.44z" class="cls-1"/>
  <path fill="#cbdaf7" d="M118.24 70.29c-6-4.63-14.35-4.83-21.53-5.27a135.72 135.72 0 0 0-30.13 1.58 9.88 9.88 0 0 0-2.66.86 8.65 8.65 0 0 0-7.12 6.76c-3.48 14.13-.66 32.13 14.47 38 13.11 5.11 33.08 5.06 43.94-4.21 9.79-8.33 14.79-28.57 3.03-37.72z"/>
  <path d="M79.7 93c-3.19 0-6.39 0-9.58.07a3.58 3.58 0 1 0 .45 7.15c3.19.07 6.39.06 9.59.08 4.71.05 4.24-7.3-.46-7.3zM105.79 94.74c-3.54-.22-7.09-.42-10.64-.57-4.06-.18-4.57 6.87-.48 7.15 3.86.28 7.72.51 11.58.72 2 .1 3.54-2.07 3.42-3.88-.13-2.16-1.9-3.3-3.88-3.42z" class="cls-1"/>
  <path d="M41 79.85c-8.86 0-7.94 13.71.86 13.71s7.96-13.71-.86-13.71zM138.19 80.48c-9.41 0-8.43 14.57.92 14.57s8.43-14.57-.92-14.57z"/>
  <path d="M23.76 79c0-2.85-3.45-3.85-5.47-2.65A3.52 3.52 0 0 0 13.74 79a50.9 50.9 0 0 0-.86 17.87c.57 4.23 1.46 9 6.33 9.9a3.69 3.69 0 0 0 4.35-3.8c-.23-7.97.08-15.97.2-23.97zM163 78.54a3 3 0 0 0-2.59-2.4 3.6 3.6 0 0 0-5.09 3.33c.1 7.48.56 15 1.06 22.44a3.79 3.79 0 0 0 2.94 3.36c11.45 3.09 4.91-21.96 3.68-26.73z" class="cls-3"/>
  <path d="M146.09 23.66a3.32 3.32 0 0 0-5.09 1.11c-2.12 5.69-3.81 11.57-.78 17.28 2.85 5.37 8.84 8.52 11 14.3a3.14 3.14 0 0 0 3.37 2.08c0 .32 0 .63.05.94.1 4.17 6.42 3.65 6.42-.45a49.93 49.93 0 0 0-14.97-35.26z" class="cls-4"/>
  <path d="M168.37-.37c-28.85 4.24-58.17 2.56-87 6.89a165.24 165.24 0 0 0-20.23 4.27c-6.45 1.81-9.76 4.36-13.7 9.25a135 135 0 0 0-18.82 31.22c-1.35 3.13 3.41 4.92 5.43 2.64a3.86 3.86 0 0 0 1.47-.51c6.06-3.62 14.78-3.39 21.71-3.71 7.62-.37 15.25-.42 22.87-.49 14.15-.12 28.62 0 42.67-2.14a51.46 51.46 0 0 0 30.44-15.8C161 23.2 169 13.89 172 3.48a3 3 0 0 0-3.63-3.85z" class="cls-4"/>
  <path fill="#ffc239" d="M163 61.88a3 3 0 0 0 1.66-3.81 36.16 36.16 0 0 0-15.15-19.22 30.32 30.32 0 0 0 6.8-6.11 3.23 3.23 0 0 0-.26-4.37 3.13 3.13 0 0 0-1-1.69c-16.7-12.75-34.48-21.46-55.92-16.61a79.13 79.13 0 0 0-29.23 14 39.27 39.27 0 0 0-1.81-21.39A3.34 3.34 0 0 0 63.9.63a44.67 44.67 0 0 0-28.66 45c-6.13-4.65-13.51-7.05-21.08-9.21A3.3 3.3 0 0 0 10.28 39C9.2 50.28 18.2 55.67 27.82 56.88c-5.3 8.69-7.51 19.23-9.34 29.11-2.5 13.57-3 27.42 1 40.75 1 3.27 5.63 2.62 6.35-.42 5.29-22.25 10.44-45 8.85-67.9.6-.85 1.23-1.69 1.92-2.49a3.29 3.29 0 0 0 .57-1 3.77 3.77 0 0 0 2.26-.54A22.51 22.51 0 0 0 52 50.21a3 3 0 0 0 .74.47C69.6 58.6 89 59.87 107.09 56.17a113.52 113.52 0 0 0 12-3.2c8.15 8.13 19.59 12 30.93 11.7-2.67 20.2-5.1 43.6 3.15 62.6 1.08 2.5 4.79 3.12 6.07.37 5.09-10.93 4-25.58 3-37.28a198.84 198.84 0 0 0-2.89-20.16c-.33-1.69-.49-4.27-1.08-6.57 1.07-.23 2.13-.5 3.17-.81a3.11 3.11 0 0 0 1.56-.94z"/>
</svg>
