<svg viewBox="0 0 88 60" xmlns="http://www.w3.org/2000/svg"><rect fill="#202225" height="56" rx="28" width="56" x="16" y="2"/><path clip-rule="evenodd" d="m46.4 18.795v5.6879c0 1.7254 1.3926 3.1176 3.1185 3.1176h5.6894c.7023 0 1.0593-.8448.5594-1.3446l-8.0223-8.0202c-.4999-.4998-1.345-.1547-1.345.5593zm3.0913 11.24c-3.0511 0-5.5278-2.4768-5.5278-5.5278v-6.4372h-9.572c-1.3162 0-2.393 1.0768-2.393 2.393v19.144c0 1.3161 1.0768 2.393 2.393 2.393h19.144c1.3162 0 2.393-1.0769 2.393-2.393v-9.572zm-3.0917 2.6306c0 1.3254-1.0745 2.3998-2.3999 2.3998-1.3253 0-2.3998-1.0744-2.3998-2.3998h-1.5999c0 2.209 1.7908 3.9997 3.9997 3.9997 2.209 0 3.9998-1.7907 3.9998-3.9997zm-9.0658 1.3332c0 .7363-.5969 1.3333-1.3332 1.3333-.7364 0-1.3333-.597-1.3333-1.3333s.5969-1.3332 1.3333-1.3332c.7363 0 1.3332.5969 1.3332 1.3332zm14.666 1.3333c.7364 0 1.3333-.597 1.3333-1.3333s-.5969-1.3332-1.3333-1.3332c-.7363 0-1.3332.5969-1.3332 1.3332s.5969 1.3333 1.3332 1.3333z" fill="#b9bbbe" fill-rule="evenodd"/><g fill="#b377f3"><path d="m83.003 1.0838c0-.59857-.4852-1.0838-1.0838-1.0838s-1.0838.48523-1.0838 1.0838v1.1019c0 .59856.4852 1.0838 1.0838 1.0838s1.0838-.48524 1.0838-1.0838z"/><path d="m83.003 9.8143c0-.59857-.4852-1.0838-1.0838-1.0838s-1.0838.48523-1.0838 1.0838v1.1018c0 .5986.4852 1.0838 1.0838 1.0838s1.0838-.4852 1.0838-1.0838z"/><path d="m86.916 7.1053c.5986 0 1.0838-.48523 1.0838-1.0838 0-.59856-.4852-1.0838-1.0838-1.0838h-1.1018c-.5986 0-1.0838.48524-1.0838 1.0838 0 .59857.4852 1.0838 1.0838 1.0838z"/><path d="m78.186 7.0453c.5986 0 1.0838-.48523 1.0838-1.0838 0-.59856-.4852-1.0838-1.0838-1.0838h-1.1018c-.5986 0-1.0838.48523-1.0838 1.0838s.4852 1.0838 1.0838 1.0838z"/></g><path d="m8.3626 55.843 3.1234-1.0417c.1534-.0703.2834-.1832.3745-.3252.0911-.1421.1395-.3073.1395-.4761s-.0484-.334-.1395-.4761c-.0911-.142-.2211-.2549-.3745-.3252l-3.1234-1.0417c-.21336-.0964-.38423-.2673-.48054-.4808l-1.1212-3.1251c-.05266-.1603-.15458-.2999-.2912-.3989-.13662-.0989-.30098-.1522-.46965-.1522-.16866 0-.33301.0533-.46963.1522-.13662.099-.23854.2386-.2912.3989l-1.1212 3.1251c-.09631.2135-.26718.3844-.48054.4808l-3.1234 1.0417c-.15336.0703-.28331.1832-.37442.3252-.091109.1421-.13953.3073-.13953.4761s.048425.334.13953.4761c.091109.142.22107.2549.37442.3252l3.1234 1.0417c.11344.0344.21664.0963.30046.1802.08382.0838.14567.1871.18008.3006l1.1212 3.1251c.05266.1603.15458.2999.2912.3989.13662.0989.30097.1522.46963.1522.16867 0 .33303-.0533.46965-.1522.13662-.099.23854-.2386.2912-.3989l1.1212-3.1251c.03441-.1135.09627-.2168.18008-.3006.08382-.0839.18702-.1458.30046-.1802z" fill="#ff73fa"/></svg>