<svg fill="none" height="54" width="96" xmlns="http://www.w3.org/2000/svg"><path d="m74.675 35.938v10.534h-29.59l-.819-1.8z" fill="#800820"/><path d="m74.675 46.462v-10.524l-7.597 2.187 7.597 8.338z" fill="#610618"/><path d="m59.47 9.427-15.203 15.065v20.18l7.647-2.137v-14.838l7.607-7.528 7.607 7.528v10.426l7.598-2.186v-11.445z" fill="#9e0b29"/><path d="m67.078 27.618v10.505l-15.215 4.363v-14.868l7.608-7.537z" fill="#ff6176"/><path d="m59.47 9.427v10.653l7.608 7.538 7.597-3.126z" fill="#d90d35"/><path d="m90.248 22.494c0-.366-.3-.663-.669-.663a.666.666 0 0 0 -.669.663v.663c0 .366.3.663.67.663.369 0 .668-.297.668-.663zm0 5.302c0-.366-.3-.663-.669-.663a.666.666 0 0 0 -.669.663v.663c0 .366.3.663.67.663.369 0 .668-.297.668-.663zm2.326-1.661c.37 0 .669-.297.669-.663s-.3-.663-.669-.663h-.669a.666.666 0 0 0 -.669.663c0 .366.3.663.67.663zm-5.341 0c.37 0 .67-.297.67-.663s-.3-.663-.67-.663h-.669a.666.666 0 0 0 -.668.663c0 .366.299.663.668.663h.67z" fill="#ff96a4"/><path d="m32.386 4.451-1.266 2.602a.707.707 0 0 0 .086.903.722.722 0 0 0 .912.086l2.626-1.246a.704.704 0 0 1 .628 0l2.566 1.207a.724.724 0 0 0 .912-.086.71.71 0 0 0 .086-.904l-1.288-2.562a.668.668 0 0 1 0-.613l1.288-2.602a.707.707 0 0 0 -.086-.903.722.722 0 0 0 -.912-.086l-2.605 1.286a.704.704 0 0 1 -.63 0l-2.625-1.246a.724.724 0 0 0 -.912.086.71.71 0 0 0 -.086.903l1.267 2.602a.737.737 0 0 1 .04.573z" fill="#e8234b"/><path d="m59.35 54 7.598-7.528h10.751l3.155 7.528h-21.503z" fill="#9e0b29"/><path d="m72.548 40.923h-15.204l7.607 7.528z" fill="#d90d35"/><path d="m12.131 38.935h29.27l7.369 15.065h-21.425z" fill="#9e0b29"/><path d="m45.085 46.472-3.684-7.537h-18.518l7.607 7.537z" fill="#d90d35"/><path d="m1 54h8.286v-8.21zm94 0-4.752-4.709-4.752 4.71h9.504z" fill="#96092c"/><path d="m41.401 38.935v7.537h3.684l-3.685-7.537z" fill="#ff6176"/><path d="m45.085 46.472h-3.685v7.528h7.368l-3.684-7.528z" fill="#800820"/><path d="m90.248 49.291 2.366 4.71h2.386z" fill="#7a132b"/></svg>