<svg width="297" height="237" viewBox="0 0 297 237" fill="none" xmlns="http://www.w3.org/2000/svg">
<g clip-path="url(#clip0)">
<path opacity="0.21" d="M251.6 164.4H246.4C237.2 164.3 229.8 156.9 229.8 147.7C229.7 138.6 222.3 131.2 213.2 131.2H177.8C171.5 131.2 166.4 136.3 166.4 142.6C166.4 148.9 161.3 154 155 154H127.2C111.3 154 98.5 166.8 98.5 182.7V184.8C98.5 195.9 89.5 204.9 78.4 204.9H70.4C56.6 204.9 43.6 211.7 35.7 223L26.2 236.6H289C293.4 236.6 297 233 297 228.6V209.7C297 184.7 276.7 164.4 251.6 164.4Z" fill="#547DF0"/>
<path d="M215.4 213.7L208.4 214.6L208.2 236.7H222L215.4 213.7Z" fill="#FF78B9"/>
<path d="M271.2 236.7H184.5C184.5 229.1 191 223 199.1 223H214.9C216.3 223 217.4 222 217.4 220.6C217.4 211.4 225.3 203.9 235.1 203.9H235.8C245.6 203.9 253.5 211.4 253.5 220.6V225.6C253.6 228.3 255.9 230.4 258.6 230.4H264.4C268 230.2 271.1 233.1 271.2 236.7Z" fill="white" fill-opacity="0.4"/>
<path d="M202 38.2998H266C265.9 31.8998 260.7 26.6998 254.2 26.6998H247.4C246.3 26.6998 245.4 25.7998 245.4 24.6998C245.3 16.8998 238.9 10.5998 231.1 10.5998H230.5C222.7 10.4998 216.3 16.7998 216.2 24.6998V28.8998C216.2 31.0998 214.3 32.8998 212.1 32.8998H207.4C204.5 32.8998 202.1 35.2998 202 38.2998Z" fill="white" fill-opacity="0.2"/>
<path d="M33.5 157C33.5 152.3 30.1 148.4 25.9 148.4H18C13.8 148.4 10.4 152.2 10.4 157C10.4 157.9 9.8 158.7 8.9 158.7H6.5C2.9 158.7 0 162 0 166H44C44 162.8 41.7 160.1 38.8 160.1H36.4C34.7 160.1 33.4 158.7 33.5 157C33.5 157.1 33.5 157 33.5 157Z" fill="white" fill-opacity="0.2"/>
<path d="M133.9 227.7C133.9 223 130.5 219.1 126.3 219.1H118.4C114.2 219.1 110.8 222.9 110.8 227.7C110.8 228.6 110.2 229.4 109.3 229.4H106.9C103.3 229.4 100.4 232.7 100.4 236.7H144.4C144.4 233.5 142.1 230.8 139.2 230.8H136.8C135.1 230.8 133.8 229.4 133.9 227.7Z" fill="white" fill-opacity="0.2"/>
<path d="M128 17.1997H84C84.1 13.1997 87.4 10.0997 91.4 10.1997H99.4C100.1 10.1997 100.7 9.69973 100.7 8.99973C100.8 4.19973 104.9 0.399733 109.7 0.499733H110.1C114.9 0.299733 118.9 4.09973 119.1 8.99973V11.4997C119.1 12.8997 120.3 13.9997 121.7 13.8997H124.6C126.4 13.7997 127.9 15.1997 128 17.1997C128 17.0997 128 17.0997 128 17.1997Z" fill="white" fill-opacity="0.2"/>
<path fill-rule="evenodd" clip-rule="evenodd" d="M196.8 49.2996L304.1 10.0996L286.1 45.2996C282.6 52.1996 276.6 57.4996 269.4 60.0996L184 91.3996L181 83.2996L196.8 49.2996Z" fill="#DAE2ED"/>
<path fill-rule="evenodd" clip-rule="evenodd" d="M172.2 45.6998L314.8 -6.40024C315.4 -6.60024 316 -6.30024 316.2 -5.80024C316.3 -5.50024 316.3 -5.20024 316.2 -5.00024L310.7 6.09976C310.1 7.39976 309 8.29976 307.7 8.79976L304.2 10.0998L196.8 49.2998L181 83.2998L183.9 91.3998L186.1 97.4998L150.2 110.6L145 96.3998L166 51.2998C167.3 48.6998 169.5 46.6998 172.2 45.6998Z" fill="#ECEFF6"/>
<path fill-rule="evenodd" clip-rule="evenodd" d="M181.1 83.2996L196.9 49.2996L304.2 10.0996L300.6 17.1996L200.7 53.6996L186.1 85.1996L187.9 89.9996L184.1 91.2996L181.1 83.2996Z" fill="#C5CEDD"/>
<path fill-rule="evenodd" clip-rule="evenodd" d="M141 80.3999C124.8 114.7 139.4 155.6 173.7 171.9C208 188.2 248.9 173.5 265.2 139.2C281.5 104.9 266.8 63.9999 232.5 47.6999C198.1 31.6999 157.3 46.2999 141 80.3999Z" fill="#4F5D7F"/>
<path fill-rule="evenodd" clip-rule="evenodd" d="M162.7 90.7996C152.2 113.1 161.7 139.7 184 150.2C206.3 160.7 232.9 151.2 243.4 128.9C253.9 106.6 244.4 79.9996 222.1 69.4996C199.9 59.0996 173.4 68.5996 162.7 90.7996Z" fill="#7687B2"/>
<path fill-rule="evenodd" clip-rule="evenodd" d="M157.2 55.4999C157.1 65.9999 184.7 91.6999 202.8 105.9C219.5 106 260.9 104.3 270.6 94.7999C271.5 93.9999 272.1 92.8999 272.2 91.6999C272.2 91.2999 272.1 90.8999 272 90.4999C266.2 69.7999 252.6 53.4999 233.8 44.5999C210.1 33.2999 181.9 36.4999 158.3 53.0999C157.6 53.5999 157.2 54.4999 157.2 55.4999Z" fill="#FF7F14"/>
<path fill-rule="evenodd" clip-rule="evenodd" d="M201.6 109.4C201.6 109.4 267.6 69.7997 260.9 61.5997C254 53.0997 245.2 46.1997 235.3 41.4997C208.6 28.7997 179.1 34.2997 156.4 50.2997C140.4 61.5997 201.6 109.4 201.6 109.4Z" fill="#FF903E"/>
<path fill-rule="evenodd" clip-rule="evenodd" d="M168.9 93.6998C160 112.6 168 135.1 186.9 144C205.8 152.9 228.3 144.9 237.2 126C246.1 107.1 238.1 84.5998 219.2 75.6998C200.3 66.8998 177.9 74.8998 168.9 93.6998Z" fill="#EBEFF7"/>
<path fill-rule="evenodd" clip-rule="evenodd" d="M174.4 96.3C166.9 112.2 173.7 131.1 189.5 138.6C205.3 146.1 224.3 139.3 231.8 123.5C239.3 107.7 232.5 88.7 216.7 81.2C200.8 73.7 181.9 80.5 174.4 96.3Z" fill="#DAE2ED"/>
<path fill-rule="evenodd" clip-rule="evenodd" d="M222 96.3999L204.8 86.0999C203.7 85.4999 202.4 85.4999 201.4 86.0999L183.9 95.8999C182.8 96.4999 182.1 97.6999 182.1 98.8999L181.9 119C181.9 120.2 182.5 121.4 183.6 122L200.8 132.3C201.9 132.9 203.2 132.9 204.2 132.3L221.7 122.4C222.8 121.8 223.5 120.6 223.5 119.4L223.7 99.2999C223.7 98.1999 223 96.9999 222 96.3999Z" fill="#C5CEDD"/>
<path fill-rule="evenodd" clip-rule="evenodd" d="M193.1 105.2C190.5 110.7 192.9 117.2 198.4 119.8C203.9 122.4 210.4 120 213 114.5C215.6 109 213.2 102.5 207.8 99.8999C202.3 97.3999 195.7 99.6999 193.1 105.2Z" fill="#B7C2CE"/>
<path fill-rule="evenodd" clip-rule="evenodd" d="M117.4 174.8H123.4C124.9 174.8 126.2 176 126.2 177.6V190.1C126.1 193.5 128.7 196.4 132.2 196.6C135.7 196.8 138.5 194.1 138.7 190.6C138.7 190.4 138.7 190.3 138.7 190.1V137.5C138.7 133.7 135.7 130.5 131.8 130.5C131.8 130.5 131.8 130.5 131.7 130.5H110.5C106.7 130.5 103.6 133.6 103.6 137.4C103.6 137.4 103.6 137.4 103.6 137.5V160.9C103.5 168.6 109.7 174.8 117.4 174.8ZM103 108.3H115C115 112.7 115 117.1 115 121.5H103.2C103.3 117.2 103.3 112.7 103 108.3Z" fill="#7196FF"/>
<path fill-rule="evenodd" clip-rule="evenodd" d="M107.3 137.1H157.9C158.5 137.1 159 136.6 159 136C159 135.4 158.5 134.9 157.9 134.9H107.3C106.7 134.9 106.2 134.4 106.2 133.8V125.7C106.2 125.1 105.7 124.6 105.1 124.6C104.5 124.6 104 125.1 104 125.7V133.8C104.1 135.6 105.5 137.1 107.3 137.1Z" fill="#E4E9F7"/>
<path fill-rule="evenodd" clip-rule="evenodd" d="M101.4 130.6H108.9C109.5 130.6 110 130.1 110 129.5V106.3C110 105.7 109.5 105.2 108.9 105.2H101.4C100.8 105.2 100.3 105.7 100.3 106.3V129.5C100.3 130.1 100.7 130.6 101.4 130.6C101.3 130.6 101.3 130.6 101.4 130.6Z" fill="black"/>
<path fill-rule="evenodd" clip-rule="evenodd" d="M103.1 108.3H98.7C98.1 108.3 97.6 108.8 97.6 109.4C97.6 113.1 97.6 116.8 97.6 120.5C97.6 121.1 98.1 121.6 98.7 121.6H102.8C106.1 121.6 108.9 119.3 109.5 116.1C110.1 112.5 107.7 109.1 104.1 108.4C103.8 108.4 103.4 108.3 103.1 108.3Z" fill="#7196FF"/>
<path fill-rule="evenodd" clip-rule="evenodd" d="M126.1 130.6H133.6C134.2 130.6 134.7 130.1 134.7 129.5V106.3C134.7 105.7 134.2 105.2 133.6 105.2H126.1C125.5 105.2 125 105.7 125 106.3V129.5C125 130.1 125.5 130.6 126.1 130.6Z" fill="black"/>
<path fill-rule="evenodd" clip-rule="evenodd" d="M109.4 113.4C115.1 105.6 124.2 100.9 133.9 100.9H174.9C184.9 101 193 109.1 193 119.2V152.8C193 159.5 187.6 165 180.9 165H121.8C111.7 164.9 103.6 156.8 103.6 146.7V131.4C103.5 124.9 105.6 118.6 109.4 113.4Z" fill="#AEC7FF"/>
<path fill-rule="evenodd" clip-rule="evenodd" d="M162.5 100.9H174.8C184.9 101 193 109.1 193 119.2V148.4C193 155.1 187.6 160.6 180.9 160.6H162.4C162.7 140.8 162.7 120.8 162.5 100.9ZM201.5 144.4L214.3 148.2C219.2 149.6 222 154.6 220.6 159.5C219.2 164.4 214.2 167.2 209.3 165.8C206.2 164.9 203.8 162.6 203 159.5L199.2 146.7C198.9 145.8 199.4 144.7 200.3 144.4C200.7 144.3 201.1 144.3 201.5 144.4Z" fill="#7196FF"/>
<path fill-rule="evenodd" clip-rule="evenodd" d="M171.8 174.8H177.8C179.3 174.8 180.6 176 180.6 177.6V190.1C180.5 193.5 183.1 196.4 186.6 196.6C190 196.7 192.9 194.1 193.1 190.6C193.1 190.4 193.1 190.3 193.1 190.1V127.7C193.1 123.9 190 120.7 186.2 120.7H165C161.2 120.7 158.1 123.9 158.1 127.7V160.9C157.9 168.6 164.1 174.8 171.8 174.8Z" fill="#7196FF"/>
<path fill-rule="evenodd" clip-rule="evenodd" d="M132.1 137.1H182.7C183.3 137.1 183.8 136.6 183.8 136C183.8 135.4 183.3 134.9 182.7 134.9H132.1C131.5 134.9 131 134.4 131 133.8V125.7C131.1 125.1 130.6 124.6 130 124.5C129.4 124.4 128.9 124.9 128.8 125.5C128.8 125.6 128.8 125.6 128.8 125.7V133.8C128.8 135.6 130.3 137 132.1 137.1Z" fill="#E4E9F7"/>
<path fill-rule="evenodd" clip-rule="evenodd" d="M126.1 130.6H133.6C134.2 130.6 134.7 130.1 134.7 129.5V106.3C134.7 105.7 134.2 105.2 133.6 105.2H126.1C125.5 105.2 125 105.7 125 106.3V129.5C125 130.1 125.5 130.6 126.1 130.6Z" fill="black"/>
<path fill-rule="evenodd" clip-rule="evenodd" d="M125.8 108.3H150.5C154.6 108.3 157.9 105 157.9 100.9H173.4V133.1H158C156.6 125 149.5 121.5 141 121.5H126C122.7 121.5 119.9 119.2 119.3 116C118.7 112.4 121.1 109 124.7 108.3C125 108.4 125.4 108.3 125.8 108.3Z" fill="#7196FF"/>
<path fill-rule="evenodd" clip-rule="evenodd" d="M182.6 101.3H126.2C116.1 101.3 107.9 93.0997 107.9 82.9997V48.9997C108 38.8997 116.1 30.6997 126.2 30.6997H182.6C192.7 30.6997 200.8 38.8997 200.9 48.9997V82.9997C200.8 93.0997 192.7 101.3 182.6 101.3Z" fill="#80A7FF"/>
<path fill-rule="evenodd" clip-rule="evenodd" d="M170.7 101.3H114.3C104.2 101.3 96 93.0996 96 82.8996V48.8996C96.1 38.7996 104.2 30.6996 114.3 30.5996H170.7C180.8 30.5996 189 38.7996 189 48.8996V82.8996C189 93.0996 180.8 101.3 170.7 101.3Z" fill="#9CB8FF"/>
<path fill-rule="evenodd" clip-rule="evenodd" d="M195.4 78.7998H181.9V45.7998H195.4C202.1 45.7998 207.6 51.2998 207.6 57.9998V66.5998C207.6 73.2998 202.1 78.7998 195.4 78.7998Z" fill="#9CB8FF"/>
<path fill-rule="evenodd" clip-rule="evenodd" d="M181.9 71.3999V53.0999C181.9 52.3999 182.4 51.8999 183.1 51.8999H195.3C198.7 51.8999 201.4 54.5999 201.4 57.9999V66.5999C201.4 69.9999 198.7 72.6999 195.3 72.6999H183.1C182.5 72.6999 181.9 72.0999 181.9 71.3999C181.9 71.4999 181.9 71.3999 181.9 71.3999Z" fill="#80A7FF"/>
<path fill-rule="evenodd" clip-rule="evenodd" d="M160.7 68.0996C157.4 68.0996 154.7 65.3996 154.7 62.0996C154.7 58.7996 157.4 56.0996 160.7 56.0996C164 56.0996 166.7 58.7996 166.7 62.0996C166.7 65.3996 164 68.0996 160.7 68.0996Z" fill="black"/>
<path fill-rule="evenodd" clip-rule="evenodd" d="M95.5 49H137C141 49 144.3 52.3 144.3 56.3V64.9C144.3 75 136.1 83.2 126 83.3H106.5C96.4 83.3 88.2 75.1 88.2 65V56.4C88.2 52.3 91.5 49 95.5 49Z" fill="#B8D0FF"/>
<path fill-rule="evenodd" clip-rule="evenodd" d="M117.5 83.2996H106.5C96.4 83.2996 88.2 75.0996 88.2 64.9996V56.3996C88.2 52.3996 91.5 49.0996 95.5 49.0996H128.4C132.4 49.0996 135.7 52.3996 135.7 56.3996V64.9996C135.7 74.9996 127.6 83.1996 117.5 83.2996Z" fill="#CBDAF7"/>
<path fill-rule="evenodd" clip-rule="evenodd" d="M112.6 69.3999H120.5C122.2 69.4999 123.5 70.8999 123.4 72.5999C123.3 74.1999 122.1 75.3999 120.5 75.4999H112.6C110.9 75.3999 109.6 73.9999 109.7 72.2999C109.8 70.6999 111 69.4999 112.6 69.3999ZM98.2 69.3999H101.2C102.9 69.4999 104.2 70.8999 104.1 72.5999C104 74.1999 102.8 75.3999 101.2 75.4999H98.2C96.5 75.3999 95.2 73.9999 95.3 72.2999C95.4 70.6999 96.7 69.4999 98.2 69.3999Z" fill="#9CB8FF"/>
<path fill-rule="evenodd" clip-rule="evenodd" d="M115.9 90.5H111C109.9 90.5 109 89.6 109 88.5C109 87.4 109.9 86.5 111 86.5H115.9C117 86.5 117.9 87.4 117.9 88.5C117.9 89.6 117 90.5 115.9 90.5Z" fill="#80A7FF"/>
<path opacity="0.4" fill-rule="evenodd" clip-rule="evenodd" d="M92.3 38.0996C92.3 38.0996 74.7 64.3996 93.6 94.6996L104.3 100.9L173.3 97.8996L190.1 75.4996L173.3 30.5996H114.3L92.3 38.0996Z" fill="#4871E5"/>
<path fill-rule="evenodd" clip-rule="evenodd" d="M147.3 13.2998C187.5 13.2998 209.7 40.4998 209.7 62.9998C209.7 85.4998 183.4 87.4998 177.2 71.5998L164.2 37.0998L106.8 44.5998L92.4 38.0998C97.7 29.2998 117.5 13.2998 147.3 13.2998Z" fill="#EBEFF7"/>
<path fill-rule="evenodd" clip-rule="evenodd" d="M181.5 75.5L145.1 94.7H93.6L98.6 103.1H182.5L189.8 86.5L181.5 75.5Z" fill="#EBEFF7"/>
<path fill-rule="evenodd" clip-rule="evenodd" d="M189.9 49.1L200.7 52.5L205.4 33.4C206 31 204.5 28.6 202.1 28.1C200 27.6 197.8 28.7 197 30.7L189.9 49.1Z" fill="#DAE2ED"/>
<path fill-rule="evenodd" clip-rule="evenodd" d="M203.7 40.1998L200.7 52.5998L189.9 49.1998L194.5 37.2998C197.5 38.2998 200.6 39.2998 203.7 40.1998Z" fill="#B7C2CE"/>
<path fill-rule="evenodd" clip-rule="evenodd" d="M183.5 139.7L225.5 149.4L229.1 133.4L187.1 123.7L183.5 139.7Z" fill="#B7C2CE"/>
<path fill-rule="evenodd" clip-rule="evenodd" d="M218.4 152.2L271.1 170.3C272.1 170.7 273.2 170.5 274.1 169.8C276.3 168.1 280.4 163.9 282.6 154.1C284.8 144.3 283 138.7 281.7 136.3C281.2 135.4 280.3 134.7 279.2 134.6L223.9 127.8C222.8 127.7 221.8 128.4 221.5 129.5L217 149.7C216.8 150.8 217.4 151.8 218.4 152.2Z" fill="#C5CEDD"/>
<path fill-rule="evenodd" clip-rule="evenodd" d="M233 137.1C232.7 138.5 233.6 139.9 234.9 140.2C236.3 140.5 237.7 139.6 238 138.3C238.3 136.9 237.4 135.5 236.1 135.2C234.7 134.8 233.3 135.7 233 137.1ZM245.2 138.8C244.9 140.2 245.8 141.6 247.1 141.9C248.5 142.2 249.9 141.3 250.2 140C250.5 138.6 249.6 137.2 248.3 136.9C246.9 136.5 245.5 137.4 245.2 138.8C245.1 138.8 245.1 138.8 245.2 138.8Z" fill="#B7C2CE"/>
<path fill-rule="evenodd" clip-rule="evenodd" d="M184 137L217.8 163.3L227.8 150.4L194 124L184 137Z" fill="#D0D9EA"/>
<path fill-rule="evenodd" clip-rule="evenodd" d="M210.3 162.8L250.6 201.5C251.4 202.2 252.4 202.6 253.5 202.3C256.2 201.7 261.7 199.6 267.8 191.7C273.9 183.8 274.6 177.9 274.5 175.2C274.5 174.1 273.9 173.2 273 172.6L225.7 143.1C224.8 142.5 223.5 142.7 222.9 143.6L210.3 160C209.4 160.8 209.5 162.1 210.3 162.8Z" fill="#EBEFF7"/>
<path fill-rule="evenodd" clip-rule="evenodd" d="M229.9 155.3C229 156.4 229.2 158 230.4 158.9C231.5 159.8 233.1 159.6 234 158.5C234.9 157.4 234.7 155.8 233.6 154.9C232.3 154 230.7 154.2 229.9 155.3ZM239.6 163.3C238.7 164.4 238.9 166 240.1 166.9C241.2 167.8 242.8 167.6 243.7 166.4C244.6 165.2 244.4 163.7 243.2 162.8C242 162 240.4 162.2 239.6 163.3Z" fill="#B7C2CE"/>
<path fill-rule="evenodd" clip-rule="evenodd" d="M173.7 69.5996C175.2 81.9996 184.9 91.0996 195.4 89.7996C205.9 88.4996 213.1 77.3996 211.5 64.8996C209.9 52.3996 200.3 43.4996 189.9 44.6996C179.5 45.8996 172.2 57.1996 173.7 69.5996Z" fill="#DAE2ED"/>
<path fill-rule="evenodd" clip-rule="evenodd" d="M181.6 68.8997C182.7 77.6997 189.6 84.1997 197 83.2997C204.4 82.3997 209.6 74.4997 208.5 65.5997C207.4 56.6997 200.5 50.2997 193.1 51.2997C185.7 52.2997 180.5 60.0997 181.6 68.8997Z" fill="#B7C2CE"/>
<path fill-rule="evenodd" clip-rule="evenodd" d="M185.9 68.4997C186.7 74.7997 191.6 79.3997 196.9 78.7997C202.2 78.1997 205.9 72.4997 205.1 66.0997C204.3 59.6997 199.4 55.1997 194.1 55.7997C188.8 56.3997 185.1 62.0997 185.9 68.4997Z" fill="#FF903E"/>
<path fill-rule="evenodd" clip-rule="evenodd" d="M197.6 73.0998L198.8 72.5998C199.1 72.4998 199.3 72.0998 199.2 71.6998L195 61.0998C194.9 60.7998 194.5 60.5998 194.1 60.6998L192.9 61.1998C192.6 61.2998 192.4 61.6998 192.5 62.0998L196.7 72.5998C196.9 72.9998 197.3 73.1998 197.6 73.0998Z" fill="#FF7F14"/>
<path fill-rule="evenodd" clip-rule="evenodd" d="M183.4 147.4H197.3V100.9H178V142C178 145 180.4 147.4 183.4 147.4Z" fill="black"/>
<path fill-rule="evenodd" clip-rule="evenodd" d="M243.1 49.2996L350.4 10.0996L332.4 45.2996C328.9 52.1996 322.9 57.4996 315.7 60.0996L230.3 91.2996L227.3 83.1996L243.1 49.2996Z" fill="#DAE2ED"/>
<path fill-rule="evenodd" clip-rule="evenodd" d="M218.5 45.6998L361 -6.40024C361.6 -6.60024 362.2 -6.30024 362.4 -5.80024C362.5 -5.50024 362.5 -5.20024 362.4 -5.00024L356.9 6.09976C356.3 7.39976 355.2 8.29976 353.9 8.79976L350.4 10.0998L243.1 49.2998L227.3 83.2998L230.3 91.3998L232.5 97.4998L196.6 110.6L191.4 96.3998L212.4 51.2998C213.6 48.6998 215.8 46.6998 218.5 45.6998Z" fill="#ECEFF6"/>
<path fill-rule="evenodd" clip-rule="evenodd" d="M227.4 83.2996L243.2 49.2996L350.5 10.0996L346.9 17.1996L247 53.6996L232.4 85.1996L234.2 89.9996L230.4 91.3996L227.4 83.2996Z" fill="#C5CEDD"/>
<path fill-rule="evenodd" clip-rule="evenodd" d="M351.2 5.79953C352.3 5.39953 352.9 4.19953 352.5 2.99953C352.1 1.89953 350.9 1.29953 349.7 1.69953C348.6 2.09953 348 3.29953 348.4 4.49953C348.8 5.69953 350 6.19953 351.2 5.79953ZM342.6 8.99953C343.7 8.59953 344.3 7.39953 343.9 6.19953C343.5 5.09953 342.3 4.49953 341.1 4.89953C339.9 5.29953 339.4 6.49953 339.8 7.69953C340.2 8.79953 341.4 9.39953 342.6 8.99953ZM220.1 53.6995C221.1 53.0995 221.5 51.7995 220.9 50.7995C220.4 49.9995 219.5 49.5995 218.6 49.6995C217.5 50.0995 216.9 51.3995 217.3 52.4995C217.8 53.5995 219 54.0995 220.1 53.6995Z" fill="#DAE2ED"/>
<path fill-rule="evenodd" clip-rule="evenodd" d="M186 110.9H208.3C210.2 110.9 211.7 109.3 211.7 107.5V95.4996C211.7 93.5996 210.2 92.0996 208.3 92.0996H186C184.1 92.0996 182.6 93.6996 182.6 95.4996V107.5C182.6 109.4 184.1 110.9 186 110.9Z" fill="#FF5C5C"/>
<path fill-rule="evenodd" clip-rule="evenodd" d="M177.9 117H195.4C200.2 117 204 113.1 204 108.4V94.7C204 89.9 200.1 86.1 195.4 86H177.9C176.1 86 174.7 87.5 174.7 89.2V113.7C174.6 115.5 176 116.9 177.9 117C177.8 117 177.8 117 177.9 117Z" fill="#D0D9EA"/>
<path fill-rule="evenodd" clip-rule="evenodd" d="M128.1 10L129.1 16.6C123.7 21 118.9 26.1 115 31.8L109 18.1C113.8 14.6 120.4 12.6 128.1 10Z" fill="#FF7F14"/>
<path fill-rule="evenodd" clip-rule="evenodd" d="M115 31.7996L109 18.0996L103.9 31.7996H115Z" fill="#FF903E"/>
<path d="M212.1 215.7C204.9 216.7 200.9 215.5 197.8 212.9C197.5 212.6 197.4 212.2 197.7 211.8C197.8 211.6 198 211.5 198.2 211.5L224.5 208C224.9 207.9 225.3 208.2 225.3 208.6C225.3 208.8 225.3 209 225.2 209.1C222.9 212.5 219.3 214.7 212.1 215.7Z" fill="white"/>
<path d="M209.6 197C211.5 196.7 213.3 198.1 213.6 200L214.3 205.5L207.3 206.4L206.6 200.9C206.3 199 207.7 197.3 209.6 197Z" fill="#83DDC5"/>
<path d="M210 200.3C210.8 200.2 211.5 200.8 211.6 201.5L211.8 202.7C211.9 203.5 211.4 204.2 210.6 204.3C209.8 204.4 209.1 203.8 209 203.1L208.8 201.9C208.7 201.1 209.3 200.4 210 200.3Z" fill="#4F5D7F"/>
<path d="M210.5 203.7C200.5 205.1 195.5 208.1 192.3 212.7C191.9 213.1 192 213.7 192.4 214.1C192.7 214.3 193 214.4 193.3 214.3L230 209.3C230.6 209.3 231 208.8 231 208.3C231 208 230.8 207.6 230.5 207.5C226.1 203.9 220.5 202.3 210.5 203.7Z" fill="#EBEFF7"/>
<path d="M196.7 212.5C197.087 212.5 197.4 212.186 197.4 211.8C197.4 211.413 197.087 211.1 196.7 211.1C196.313 211.1 196 211.413 196 211.8C196 212.186 196.313 212.5 196.7 212.5Z" fill="#FFD836"/>
<path d="M201 211.9C201.387 211.9 201.7 211.587 201.7 211.2C201.7 210.813 201.387 210.5 201 210.5C200.613 210.5 200.3 210.813 200.3 211.2C200.3 211.587 200.613 211.9 201 211.9Z" fill="#AEC7FF"/>
<path d="M224.5 208.7C224.887 208.7 225.2 208.386 225.2 208C225.2 207.613 224.887 207.3 224.5 207.3C224.113 207.3 223.8 207.613 223.8 208C223.8 208.386 224.113 208.7 224.5 208.7Z" fill="#F47FFF"/>
<path opacity="0.45" d="M211.3 222.3C211.7 221.6 212.6 221.4 213.3 221.9L213.7 222.2C214.4 222.6 214.6 223.5 214.1 224.2C213.7 224.9 212.8 225.1 212.1 224.6L211.7 224.3C211 223.8 210.8 222.9 211.3 222.3Z" fill="#4762B0"/>
</g>
<defs>
<clipPath id="clip0">
<rect width="297" height="236.7" fill="white"/>
</clipPath>
</defs>
</svg>
