<svg width="145" height="161" viewBox="0 0 145 161" fill="none" xmlns="http://www.w3.org/2000/svg">
  <path
    d="M132.074 15.1467C131.647 15.1467 131.22 15.1714 130.801 15.2126C130.916 14.5125 130.982 13.7959 130.982 13.0628C130.982 5.90542 125.193 0.0987549 118.057 0.0987549C113.138 0.0987549 108.859 2.85795 106.675 6.91849C104.491 2.85795 100.212 0.0987549 95.2936 0.0987549C88.1575 0.0987549 82.3682 5.90542 82.3682 13.0628C82.3682 13.7959 82.4338 14.5125 82.5488 15.2126C82.13 15.1714 81.7112 15.1467 81.276 15.1467C74.1399 15.1467 68.3506 20.9533 68.3506 28.1108C68.3506 35.2682 74.1399 41.0748 81.276 41.0748C81.6373 41.0748 81.9986 41.0584 82.3517 41.0254C81.9986 42.2032 81.8097 43.4552 81.8097 44.7483C81.8097 51.9057 87.5991 57.7124 94.7351 57.7124C100.114 57.7124 104.729 54.4096 106.675 49.7231C108.621 54.4178 113.236 57.7124 118.615 57.7124C125.751 57.7124 131.541 51.9057 131.541 44.7483C131.541 43.4552 131.352 42.2032 130.999 41.0254C131.352 41.0584 131.713 41.0748 132.074 41.0748C139.21 41.0748 145 35.2682 145 28.1108C145 20.9533 139.21 15.1467 132.074 15.1467Z"
    fill="#FFF2A6" />
  <path
    d="M84.1339 147.324C83.6822 147.324 83.2634 147.044 83.0992 146.591C82.3355 144.4 82.549 141.88 83.6494 139.846C83.9368 139.31 84.6019 139.121 85.1275 139.409C85.653 139.698 85.8501 140.365 85.5627 140.892C84.7497 142.391 84.5937 144.252 85.1521 145.867C85.3492 146.435 85.0536 147.061 84.4788 147.259C84.3638 147.3 84.2406 147.316 84.1174 147.316L84.1339 147.324Z"
    fill="black" />
  <path
    d="M89.1103 144.541C88.9789 144.541 88.8475 144.516 88.7243 144.466C86.4989 143.61 84.6266 141.897 83.5673 139.755C83.2963 139.212 83.5263 138.553 84.06 138.289C84.602 138.026 85.259 138.248 85.5217 138.783C86.3347 140.431 87.7882 141.757 89.4963 142.416C90.0629 142.63 90.3421 143.264 90.1286 143.832C89.9643 144.269 89.5455 144.532 89.1103 144.532V144.541Z"
    fill="black" />
  <path
    d="M88.8228 138.429C87.6239 138.429 86.4332 138.19 85.341 137.713C84.7908 137.474 84.5362 136.823 84.7744 136.271C85.0125 135.719 85.6613 135.464 86.2115 135.703C87.6075 136.312 89.2416 136.403 90.6951 135.966C91.2699 135.793 91.8776 136.123 92.0583 136.699C92.2307 137.276 91.9022 137.886 91.3274 138.067C90.5227 138.314 89.6686 138.429 88.8228 138.429Z"
    fill="black" />
  <path
    d="M68.5967 104.808C70.8714 103.968 73.0393 103.614 75.1497 103.375C76.2009 103.26 77.2355 103.21 78.262 103.169C78.7712 103.153 79.2803 103.136 79.7894 103.136C80.315 103.136 80.7502 103.136 81.3743 103.161C83.6982 103.276 86.1946 103.647 88.806 104.75C90.1035 105.302 91.4256 106.052 92.6491 107.048C93.8809 108.029 95.0059 109.305 95.8599 110.689C96.7222 112.064 97.3052 113.547 97.683 115.005C98.0607 116.463 98.2003 117.904 98.2085 119.304C98.2085 120.704 98.0443 122.055 97.7569 123.365C97.6091 124.024 97.4284 124.666 97.2231 125.3C97.1163 125.613 97.0014 125.934 96.8782 126.239L96.5087 127.112C95.4822 129.402 94.1519 131.338 92.7723 132.985C91.3763 134.624 89.9639 136.041 88.5268 137.268C86.3753 139.113 83.148 138.857 81.3086 136.699C79.8633 135.003 79.7073 132.631 80.7584 130.802V130.786C81.7028 129.163 82.6553 127.714 83.3944 126.322C84.1499 124.946 84.7329 123.669 85.086 122.508L85.2092 122.08C85.2338 121.948 85.2667 121.825 85.2995 121.701C85.3488 121.446 85.3981 121.19 85.4227 120.935C85.4884 120.424 85.5048 119.922 85.472 119.461C85.4227 118.53 85.1764 117.838 84.9464 117.451C84.7411 117.097 84.4291 116.759 83.6325 116.331C82.8524 115.919 81.6617 115.548 80.315 115.342C77.1124 114.873 73.6388 114.568 70.9781 114.634L70.4772 114.651C67.677 114.725 65.3531 112.501 65.2874 109.701C65.2299 107.468 66.6259 105.533 68.6049 104.8L68.5967 104.808Z"
    fill="url(#paint0_linear_493_15758)" />
  <path
    d="M75.3801 118.76C75.3801 118.76 75.3473 118.76 75.3309 118.76C74.9038 118.728 74.5754 118.357 74.6082 117.929C74.9695 112.558 75.9385 107.221 77.4906 102.074C77.6137 101.662 78.049 101.423 78.4596 101.555C78.8702 101.678 79.1083 102.115 78.9769 102.527C77.4577 107.567 76.5134 112.781 76.1603 118.036C76.1356 118.448 75.7907 118.769 75.3801 118.769V118.76Z"
    fill="#3F99F2" />
  <path
    d="M82.2367 119.041C82.0889 119.041 81.9411 118.999 81.8097 118.917C81.4484 118.678 81.3498 118.2 81.5797 117.838C85.3572 112.015 92.5097 108.737 99.3747 109.668C99.8018 109.725 100.097 110.121 100.04 110.549C99.9824 110.977 99.5883 111.274 99.1612 111.216C92.8792 110.359 86.3426 113.366 82.8772 118.686C82.7294 118.917 82.4748 119.041 82.2203 119.041H82.2367Z"
    fill="#3F99F2" />
  <path
    d="M94.3083 132.82C94.1604 132.82 94.0126 132.779 93.8812 132.688C89.9396 130.077 85.6037 128.199 81.0051 127.12C80.5863 127.022 80.3235 126.602 80.4221 126.181C80.5206 125.761 80.9394 125.498 81.3582 125.597C86.1375 126.717 90.6458 128.669 94.7435 131.387C95.1048 131.626 95.2033 132.112 94.9652 132.474C94.8174 132.705 94.571 132.828 94.3165 132.828L94.3083 132.82Z"
    fill="#3F99F2" />
  <path
    d="M55.8279 38.8758L54.5222 33.9834C53.7914 31.2489 51.0815 29.3133 48.4701 29.6593L35.0274 31.4548C29.895 32.1384 27.8913 35.3836 25.3867 42.1704L55.8279 38.884V38.8758Z"
    fill="#66BCFF" />
  <path
    d="M17.019 42.3349C22.5291 40.2676 30.5685 37.6237 43.0997 35.7541C55.672 34.0162 65.4358 34.6751 71.5536 35.2928C76.0373 35.7458 81.0875 38.5544 83.1569 42.582C85.0128 46.1978 87.1971 51.2961 88.8724 57.7535H88.8888C90.564 64.2108 91.4755 69.7539 91.2209 73.6168C90.7775 80.3047 85.7683 85.1395 82.812 87.6104C79.5437 90.3449 72.5308 93.5818 64.6147 95.8798C66.2488 94.1172 67.4724 92.1157 68.2607 90.0896C68.9341 88.3435 67.4067 87.6846 66.1585 88.0387L64.7214 88.4341C60.6976 89.5378 54.0871 90.6744 49.9401 91.1109L47.5094 91.3662C45.2266 91.7616 44.2576 92.5605 43.6088 94.3643C42.6398 97.0658 41.9583 98.1036 40.7018 99.3391C31.2418 99.8085 24.2618 99.4379 19.8438 98.0048C11.1886 95.2126 8.13379 84.7936 6.475 78.4104C4.81622 72.0189 2.84538 65.1086 3.64193 58.0335C4.12642 53.7424 7.64929 45.8519 17.0108 42.3349H17.019Z"
    fill="#FFA919" />
  <path
    d="M43.6165 94.356C44.2652 92.5522 45.226 91.7533 47.5171 91.358L49.9478 91.1026C54.0947 90.6661 60.7052 89.5295 64.729 88.4258L66.1661 88.0305C67.4143 87.6763 68.9417 88.3352 68.2683 90.0813C67.48 92.1075 66.2564 94.1089 64.6223 95.8715C60.0811 97.1893 55.2444 98.1942 50.6458 98.6142C47.0736 98.9354 43.7643 99.1743 40.7095 99.3308C41.9659 98.0953 42.6475 97.0576 43.6165 94.356Z"
    fill="#FFE75C" />
  <path
    d="M22.6603 49.5254C26.717 47.6886 33.968 45.1436 45.9901 43.3069C57.7576 41.5113 64.6884 42.1455 70.4449 42.9527C73.5818 43.3975 75.2488 45.3083 76.7269 48.1252C77.9833 50.522 79.7653 55.3485 81.6047 62.7777C83.4195 70.1328 82.738 73.4768 78.32 75.4453C79.6585 73.4109 79.5764 70.4129 78.4021 65.6769C76.6366 58.536 74.9285 53.9071 73.7132 51.6009C72.2925 48.8994 70.6912 47.0544 67.6775 46.6344C62.1427 45.8602 55.4911 45.2424 44.1835 46.9721C32.6377 48.7347 25.6823 51.1726 21.7817 52.9435C20.1311 53.693 18.8254 54.8378 18.0781 56.3039C18.0781 56.2216 18.0781 56.131 18.0781 56.0404C18.0945 53.0176 19.934 50.7526 22.6603 49.5171V49.5254Z"
    fill="#ED5F00" />
  <path
    d="M21.7895 52.9518C25.6901 51.1892 32.6455 48.743 44.1913 46.9804C55.4908 45.2508 62.1505 45.8685 67.6853 46.6427C70.699 47.0628 72.3003 48.9078 73.721 51.6093C74.9281 53.9155 76.6444 58.5443 78.4099 65.6853C79.576 70.413 79.6663 73.4193 78.3278 75.4537C78.2539 75.4866 78.1882 75.5196 78.1061 75.5525C74.0002 77.2822 67.1269 79.959 55.3429 81.6557C43.559 83.3524 35.3718 82.9735 30.6829 82.397C27.5377 82.0098 24.6882 80.0331 23.1937 77.2245C21.9865 74.943 20.5988 71.7555 19.5476 67.7279C18.5212 63.7909 18.0859 59.8869 18.0859 56.3123C18.8332 54.838 20.1471 53.6931 21.7895 52.9518Z"
    fill="black" />
  <path
    d="M64.1519 58.9688C64.992 57.7541 64.5886 56.0148 63.2508 55.084C61.9131 54.1531 60.1475 54.3833 59.3074 55.598C58.4672 56.8127 58.8706 58.5519 60.2084 59.4828C61.5462 60.4136 63.3117 60.1835 64.1519 58.9688Z"
    fill="#57F287" />
  <path
    d="M37.7398 63.0667C38.5799 61.852 38.1765 60.1127 36.8387 59.1819C35.501 58.251 33.7354 58.4812 32.8953 59.6959C32.0551 60.9106 32.4585 62.6498 33.7963 63.5807C35.134 64.5115 36.8996 64.2814 37.7398 63.0667Z"
    fill="#57F287" />
  <path
    d="M0.504573 74.2758C-0.899648 68.8068 0.726292 63.5767 4.15062 62.1518C4.29843 62.0859 4.44624 62.02 4.60227 61.9788C4.6269 61.9788 4.65975 61.9788 4.68439 61.9624C4.71723 61.9541 4.74187 61.9377 4.77472 61.9294V61.9459C7.56673 61.3941 10.9418 65.4134 12.4035 71.0801C13.8652 76.7549 12.8551 81.9521 10.1617 82.8746V82.8911C10.1617 82.8911 10.096 82.8993 10.0631 82.9075C10.0385 82.9075 10.0221 82.924 9.99743 82.9322C9.84141 82.9734 9.68538 82.9981 9.52114 83.0064C5.85046 83.4676 1.917 79.7283 0.504573 74.2593V74.2758Z"
    fill="#FFE75C" />
  <path
    d="M17.7497 144.005C18.5052 152.769 25.8301 160.124 35.2901 160.124H66.6018C76.0782 160.124 83.3867 152.76 84.1422 144.005C84.2079 143.272 84.2325 142.531 84.1915 141.773C84.1422 140.299 83.8876 138.808 83.436 137.317L77.0801 111.463C75.1749 105.203 69.4184 100.921 62.89 100.921H38.9855C32.4653 100.921 26.7006 105.195 24.7954 111.463L18.4395 137.317C17.9878 138.808 17.7333 140.299 17.684 141.773C17.6429 142.523 17.6594 143.264 17.7251 144.005H17.7497Z"
    fill="url(#paint1_linear_493_15758)" />
  <path
    d="M17.7495 144.005H84.1502C84.2159 143.272 84.2405 142.531 84.1995 141.773H17.7084C17.6674 142.523 17.6838 143.264 17.7495 144.005Z"
    fill="#ED5F00" />
  <path
    d="M47.5257 104.092L47.69 104.339C48.0266 104.866 48.2894 105.426 48.4783 106.019C48.7082 106.703 48.815 107.419 48.815 108.16V127.508C48.9792 129.254 50.4409 130.58 52.1818 130.58H69.6566C71.7998 130.58 73.4012 128.611 72.9741 126.511L69.4184 109.165C68.7368 105.854 65.8299 103.466 62.4466 103.466H47.8624C47.5421 103.466 47.3533 103.82 47.5257 104.092Z"
    fill="#FF8C19" />
  <path
    d="M48.4697 106.011C48.6997 106.694 48.8064 107.411 48.8064 108.152V127.5C48.9706 129.246 50.4324 130.572 52.1733 130.572H68.3177C69.1306 129.855 69.5741 128.702 69.3442 127.483L66.3386 111.62C65.6078 107.666 63.2756 106.011 59.9745 106.011H48.4697Z"
    fill="#FFE75C" />
  <path
    d="M52.4529 97.453C51.9438 97.14 51.4593 96.8106 50.9666 96.4893L49.5049 95.5257C49.0122 95.2127 48.5277 94.8997 48.0432 94.5703C47.5669 94.2326 47.0824 93.9031 46.6226 93.5078L46.5979 93.4831C45.9985 92.9642 45.9246 92.0499 46.4419 91.4487C46.8032 91.0286 47.3534 90.8639 47.8625 90.9792C48.5195 91.1274 49.1272 91.391 49.7184 91.6793C50.3097 91.9758 50.8763 92.3217 51.41 92.7006C51.952 93.0795 52.4694 93.4913 52.9621 93.9278C53.4466 94.3726 53.9147 94.8421 54.3252 95.361C54.818 95.9787 54.7112 96.8765 54.0953 97.3706C53.619 97.7495 52.9621 97.7742 52.4694 97.4777L52.4447 97.4612L52.4529 97.453Z"
    fill="black" />
  <path
    d="M55.9754 93.9032C56.6898 93.4007 57.4125 92.8819 58.1187 92.3383C58.8249 91.8029 59.5311 91.2428 60.2127 90.6827C60.8861 90.1062 61.5594 89.5296 62.1917 88.9449C62.8323 88.3601 63.4317 87.7588 63.9819 87.174L64.0394 87.1164C64.5732 86.5481 65.4683 86.5234 66.0349 87.0587C66.5029 87.4953 66.6015 88.1789 66.3305 88.7307C65.8378 89.7108 65.1973 90.518 64.5239 91.2675C63.8423 92.0088 63.1115 92.6842 62.3396 93.2937L61.7565 93.7467L61.1653 94.1832C60.7629 94.4715 60.3605 94.7433 59.9417 95.0069C59.1041 95.5257 58.2419 96.0035 57.3139 96.3988C56.5913 96.7035 55.7701 96.3576 55.4663 95.6411C55.2035 95.0151 55.4252 94.315 55.9508 93.9444L55.9754 93.9279V93.9032Z"
    fill="black" />
  <path
    d="M62.7337 99.8252C62.3231 99.8252 61.9125 99.644 61.6333 99.2981C61.2063 98.7627 61.2309 98.0132 61.6579 97.5108C61.1406 97.1072 60.9517 96.3824 61.2638 95.7647C61.6087 95.0728 62.4545 94.7845 63.1443 95.1305C63.9162 95.5176 64.4335 96.2918 64.5239 97.1978C64.6224 98.112 64.2775 98.9769 63.6041 99.5122C63.3496 99.7181 63.0375 99.817 62.7337 99.817V99.8252Z"
    fill="black" />
  <path
    d="M32.5225 105.08C33.2041 105.582 33.861 106.109 34.5098 106.637C35.1667 107.164 35.799 107.715 36.4396 108.251C37.7124 109.338 38.9524 110.466 40.1759 111.603L38.6732 110.376C38.8456 110.343 38.9277 110.277 39.0098 110.236C39.0838 110.195 39.1494 110.162 39.2151 110.145C39.2808 110.129 39.3301 110.104 39.3958 110.079C39.4122 110.071 39.4287 110.063 39.4451 110.046C39.4533 110.046 39.4615 110.038 39.4697 110.03H39.4779C39.4779 110.03 39.4779 110.03 39.5108 109.989L39.6504 109.799L40.7672 108.267C42.2617 106.225 43.7891 104.207 45.3904 102.238C46.9671 100.253 48.6012 98.3095 50.3422 96.4316C52.8714 93.7054 57.1169 93.5571 59.835 96.0939C62.0358 98.153 62.5449 101.349 61.3131 103.935C60.2045 106.241 58.9974 108.481 57.7328 110.672C56.4846 112.88 55.1707 115.046 53.824 117.187L52.8057 118.785L52.6743 118.983L52.4444 119.329C52.2719 119.584 52.0913 119.823 51.9024 120.07C51.5247 120.556 51.1141 121.009 50.687 121.454C48.9626 123.216 46.8111 124.567 44.4953 125.374C43.3375 125.778 42.1303 126.041 40.915 126.173C39.6914 126.289 38.4597 126.28 37.2443 126.116C34.8136 125.794 32.4568 124.864 30.4942 123.488L29.361 122.697L28.9996 122.261C27.9321 120.976 26.881 119.675 25.8627 118.34C25.3618 117.665 24.8445 117.006 24.3518 116.323C23.8591 115.639 23.3663 114.955 22.9065 114.247C20.8617 111.125 21.724 106.933 24.8363 104.874C27.2587 103.276 30.33 103.457 32.5389 105.08H32.5225Z"
    fill="url(#paint2_linear_493_15758)" />
  <path
    d="M22.2167 118.917C22.11 118.917 22.0032 118.892 21.8964 118.851C21.5023 118.678 21.3298 118.209 21.5023 117.821C24.0726 112.072 28.392 107.04 33.6804 103.647C34.0417 103.416 34.5262 103.523 34.7562 103.886C34.9861 104.248 34.8793 104.734 34.518 104.964C29.4842 108.193 25.3618 112.987 22.9229 118.464C22.7915 118.752 22.5123 118.925 22.2085 118.925L22.2167 118.917Z"
    fill="#3F99F2" />
  <path
    d="M36.5954 127.804C36.3573 127.804 36.1191 127.689 35.9631 127.483C33.9266 124.691 32.9165 121.248 33.1218 117.797C33.3271 114.346 34.7231 111.043 37.0717 108.506C37.3673 108.193 37.86 108.168 38.1721 108.465C38.4841 108.761 38.5088 109.256 38.2132 109.569C36.1438 111.809 34.8545 114.84 34.6739 117.887C34.4932 120.935 35.4211 124.098 37.2195 126.56C37.4741 126.906 37.4002 127.4 37.0471 127.656C36.9075 127.755 36.7432 127.804 36.5872 127.804H36.5954Z"
    fill="#3F99F2" />
  <path
    d="M56.2389 113.637C56.1978 113.637 56.1485 113.637 56.1075 113.629C50.507 112.649 45.5553 108.341 43.7898 102.922C43.6584 102.51 43.8801 102.074 44.2907 101.934C44.7013 101.802 45.1365 102.024 45.2761 102.436C46.8692 107.32 51.3282 111.199 56.3785 112.089C56.8055 112.163 57.0847 112.567 57.0108 112.995C56.9451 113.374 56.6166 113.646 56.2471 113.646L56.2389 113.637Z"
    fill="#3F99F2" />
  <path
    d="M53.923 69.408C51.0653 66.9701 46.8034 66.2782 43.3298 67.6784L42.4019 65.3557C46.7213 63.6178 52.0015 64.4827 55.5408 67.4972L53.923 69.408Z"
    fill="#57F287" />
  <path
    d="M103.407 68.7163C105.924 68.7163 107.964 66.6697 107.964 64.1451C107.964 61.6205 105.924 59.5739 103.407 59.5739C100.89 59.5739 98.8491 61.6205 98.8491 64.1451C98.8491 66.6697 100.89 68.7163 103.407 68.7163Z"
    fill="#FFF2A6" />
  <path
    d="M97.0425 77.3315C98.9065 77.3315 100.418 75.8159 100.418 73.9463C100.418 72.0767 98.9065 70.5612 97.0425 70.5612C95.1785 70.5612 93.6675 72.0767 93.6675 73.9463C93.6675 75.8159 95.1785 77.3315 97.0425 77.3315Z"
    fill="#FFF2A6" />
  <path
    d="M95.0967 33.3574C97.1603 33.3574 98.8331 31.6796 98.8331 29.6099C98.8331 27.5401 97.1603 25.8623 95.0967 25.8623C93.0332 25.8623 91.3604 27.5401 91.3604 29.6099C91.3604 31.6796 93.0332 33.3574 95.0967 33.3574Z"
    fill="#FFC619" />
  <path
    d="M106.683 33.3574C108.746 33.3574 110.419 31.6796 110.419 29.6099C110.419 27.5401 108.746 25.8623 106.683 25.8623C104.619 25.8623 102.946 27.5401 102.946 29.6099C102.946 31.6796 104.619 33.3574 106.683 33.3574Z"
    fill="#FFC619" />
  <path
    d="M118.262 33.3574C120.325 33.3574 121.998 31.6796 121.998 29.6099C121.998 27.5401 120.325 25.8623 118.262 25.8623C116.198 25.8623 114.525 27.5401 114.525 29.6099C114.525 31.6796 116.198 33.3574 118.262 33.3574Z"
    fill="#FFC619" />
  <defs>
    <linearGradient id="paint0_linear_493_15758" x1="93.3553" y1="136.93" x2="75.2432" y2="99.9007"
      gradientUnits="userSpaceOnUse">
      <stop stop-color="#3F99F2" />
      <stop offset="0.01" stop-color="#419BF2" />
      <stop offset="0.16" stop-color="#5CB1F6" />
      <stop offset="0.31" stop-color="#71C2FA" />
      <stop offset="0.48" stop-color="#80CEFD" />
      <stop offset="0.69" stop-color="#89D5FE" />
      <stop offset="1" stop-color="#8CD8FF" />
    </linearGradient>
    <linearGradient id="paint1_linear_493_15758" x1="50.9501" y1="186.941" x2="50.9501" y2="76.7055"
      gradientUnits="userSpaceOnUse">
      <stop offset="0.12" stop-color="#FFC619" />
      <stop offset="0.2" stop-color="#FFBB19" />
      <stop offset="0.33" stop-color="#FF9F19" />
      <stop offset="0.41" stop-color="#FF8C19" />
      <stop offset="0.83" stop-color="#ED5F00" />
    </linearGradient>
    <linearGradient id="paint2_linear_493_15758" x1="27.1684" y1="121.8" x2="61.3445" y2="94.2089"
      gradientUnits="userSpaceOnUse">
      <stop stop-color="#3F99F2" />
      <stop offset="0.01" stop-color="#419BF2" />
      <stop offset="0.16" stop-color="#5CB1F6" />
      <stop offset="0.31" stop-color="#71C2FA" />
      <stop offset="0.48" stop-color="#80CEFD" />
      <stop offset="0.69" stop-color="#89D5FE" />
      <stop offset="1" stop-color="#8CD8FF" />
    </linearGradient>
  </defs>
</svg>
