<svg height="84" viewBox="0 0 86 84" width="86" xmlns="http://www.w3.org/2000/svg"><g fill="none" fill-rule="evenodd" transform="translate(2 2)"><path d="m80 40c0 22.091-17.909 40-40 40s-40-17.909-40-40 17.909-40 40-40 40 17.909 40 40" fill="#2f3136"/><path d="m80 40c0 22.091-17.909 40-40 40s-40-17.909-40-40 17.909-40 40-40 40 17.909 40 40z" stroke="#4f545c" stroke-linecap="round" stroke-linejoin="round" stroke-width="4"/><path d="m22 41.6416c0 2.761-2.239 5-5 5s-5-2.239-5-5 2.239-5 5-5 5 2.239 5 5m46 0c0 2.761-2.239 5-5 5s-5-2.239-5-5 2.239-5 5-5 5 2.239 5 5" fill="#4f545c"/><path d="m50 59.4827c-5.846-4.677-14.154-4.677-20 0" stroke="#4f545c" stroke-linecap="round" stroke-linejoin="round" stroke-width="4"/><path d="m81.2071 66.9749c0 5.708-4.627 10.335-10.335 10.335-5.707 0-10.334-4.627-10.334-10.335s10.334-18.335 10.334-18.335 10.335 12.627 10.335 18.335" fill="#2f3136"/><path d="m81.2071 66.9749c0 5.708-4.627 10.335-10.335 10.335-5.707 0-10.334-4.627-10.334-10.335s10.334-18.335 10.334-18.335 10.335 12.627 10.335 18.335z" stroke="#4f545c" stroke-linecap="round" stroke-linejoin="round" stroke-width="4"/></g></svg>