<svg id="Layer_1" data-name="Layer 1" xmlns="http://www.w3.org/2000/svg" viewBox="0 0 175.34 100.29"><defs><style>.cls-1{fill:#fff}.cls-3{fill:#f6f6f7}.cls-4{fill:#dcddde}.cls-6{fill:#b9bbbe}</style></defs><g id="Error_-_Light" data-name="Error - Light"><path class="cls-1" d="M55.84 70.29v28h28.84v-18a12 12 0 0 1 5.38-10z"/><path d="M12.72 25.12a1.51 1.51 0 1 0-1.51-1.51 1.51 1.51 0 0 0 1.51 1.51z" fill="none"/><path class="cls-3" d="M117.16 13.17a46.83 46.83 0 0 0-71.63 24.17 1 1 0 0 1-.52.6 1 1 0 0 1-.79 0A31.13 31.13 0 0 0 8 85.36v-8.57a1 1 0 0 1 1-1h7V65.54a1 1 0 0 1 1-1h7V54.29a1 1 0 0 1 1-1h49.45l3.72-10.69v-.2l-.76-2.74a4.49 4.49 0 1 1 8.65-2.39l.76 2.73a5.87 5.87 0 0 0 1 2.06l1.54 2a6 6 0 0 1 1 2.07 6 6 0 0 1 .16 2.38c2.09-.3 4.3-.64 5.79-.88a1 1 0 0 1 .32 2c-.24 0-3.68.59-6.83 1a5.92 5.92 0 0 1-1.64 1.85l8.34.31a1 1 0 0 1 0 2l-9.34-.35v13.85h8.52a1.42 1.42 0 0 1 .2 0h.8a12 12 0 0 1 12 12v18h27.7a23.72 23.72 0 0 0 8.83-45.75 22.73 22.73 0 0 1-8.59 1.68 23 23 0 0 1-15.93-39.6c-.7-.58-1.41-1.14-2.15-1.68a1 1 0 0 1-1.38.23z"/><path class="cls-3" d="M78.2 49.48a4.54 4.54 0 0 1-.12-.53l-1.51 4.34h4.88a5.9 5.9 0 0 1-3.25-3.81z"/><path class="cls-1" d="M17.66 98.29h12.07V89H2v9.25h8.66a1 1 0 0 1 1 1h5a1 1 0 0 1 1-.96zM37.77 87.04v-9.25H10.04v9.25h27.73zM45.8 75.79V65.54a1 1 0 0 1 1-1h7v-9.25H26.11v9.25h14a1 1 0 0 1 0 2h-22v9.25H45.8z"/><path class="cls-4" d="M31.73 98.29h22.11V66.54h-6v10.25a1 1 0 0 1-1 1h-7V88a1 1 0 0 1-1 1h-7zM55.84 55.29v13h29.32v-13H55.84z"/><path d="M145.69 50.15a21 21 0 0 0-2.16-38.74 21.17 21.17 0 0 0-7-1.19 21 21 0 1 0 9.12 39.93zm-12.45-30.92h6.67a1.08 1.08 0 0 1 1.09 1.12l-.38 11.78a1.09 1.09 0 0 1-1.09 1.06h-5.89a1.09 1.09 0 0 1-1.09-1.06l-.38-11.78a1.08 1.08 0 0 1 1.07-1.12zM132.3 40a4.36 4.36 0 1 1 4.32 4.32A4.35 4.35 0 0 1 132.3 40z" fill="#ffe292"/><path class="cls-6" d="M172.45 46.72a1 1 0 0 0 1.42 0l1.18-1.18a1 1 0 0 0 0-1.42 1 1 0 0 0-1.41 0l-1.19 1.19a1 1 0 0 0 0 1.41zM167.72 50l-1.18 1.18a1 1 0 0 0 1.46 1.46l1.18-1.19a1 1 0 1 0-1.46-1.45zM173.87 50a1 1 0 0 0-1.42 0 1 1 0 0 0 0 1.41l1.19 1.19a1 1 0 0 0 .7.29 1 1 0 0 0 .71-.29 1 1 0 0 0 0-1.42zM168 44.12a1 1 0 0 0-1.41 0 1 1 0 0 0 0 1.42l1.18 1.18a1 1 0 0 0 .71.29 1 1 0 0 0 .7-1.7zM12.72 27.12a3.51 3.51 0 1 0-3.51-3.51 3.51 3.51 0 0 0 3.51 3.51zm0-5a1.51 1.51 0 1 1-1.51 1.51 1.52 1.52 0 0 1 1.51-1.53zM30.63 14.12h.51a1 1 0 0 1 1 1v.51a1 1 0 1 0 2 0v-.51a1 1 0 0 1 1-1h.51a1 1 0 0 0 0-2h-.51a1 1 0 0 1-1-1v-.51a1 1 0 0 0-2 0v.51a1 1 0 0 1-1 1h-.51a1 1 0 0 0 0 2zM148.94 50.63a23 23 0 0 0 6.13-33.11 22.29 22.29 0 0 0-7.16-6.33 23 23 0 0 0-34.26 18.13 21.86 21.86 0 0 0 .53 7.16 23 23 0 0 0 27.38 17.2 11.51 11.51 0 0 1 9.61 2.32A23.72 23.72 0 0 1 160 76.83c-1.16 12.26-11.79 21.46-24.11 21.46H110.1a1.42 1.42 0 0 1-1.42-1.42V80.29a12 12 0 0 0-12-12h-.8a1.42 1.42 0 0 0-.2 0h-5.55a3 3 0 0 1-3-3V54.41l9.34.35a1 1 0 0 0 0-2l-8.34-.31a5.92 5.92 0 0 0 1.64-1.85c3.15-.42 6.59-1 6.83-1a1 1 0 0 0-.32-2c-1.49.24-3.7.58-5.79.88a6 6 0 0 0-.16-2.38 6 6 0 0 0-1-2.07l-1.54-2a5.87 5.87 0 0 1-1-2.06l-.71-2.56A4.61 4.61 0 0 0 81 34a4.49 4.49 0 0 0-3.56 5.62l.76 2.74v.2l-3.75 10.73H25.11a1 1 0 0 0-1 1v10.25h-7a1 1 0 0 0-1 1v10.25H9a1 1 0 0 0-1 1v4.58a1.16 1.16 0 0 1-2.16.57 30.87 30.87 0 0 1-3.72-14.81A31.1 31.1 0 0 1 44.22 38a1 1 0 0 0 .79 0 1 1 0 0 0 .52-.6 46.83 46.83 0 0 1 71.63-24.17 1 1 0 0 0 1.38-.23 1 1 0 0 0-.24-1.4 48.85 48.85 0 0 0-73.19 21.05 3.65 3.65 0 0 1-4.17 2.23 32.49 32.49 0 0 0-7.66-.88A33.15 33.15 0 0 0 5.16 84.68 1.53 1.53 0 0 1 3.88 87H1a1 1 0 0 0-1 1v11.29a1 1 0 0 0 1 1h9.66a1 1 0 0 0 1-1 1 1 0 0 0-1-1H2.79A.79.79 0 0 1 2 97.5v-7.67a.79.79 0 0 1 .79-.83h26.15a.79.79 0 0 1 .79.79v7.71a.79.79 0 0 1-.79.79H17.66a1 1 0 0 0-1 1 1 1 0 0 0 1 1h118.21c13.51 0 25.1-10.21 26.17-23.68A25.76 25.76 0 0 0 149 52.13a.88.88 0 0 1-.06-1.5zm-31.27-10.3a21 21 0 0 1 18.9-30.11 21.17 21.17 0 0 1 7 1.19 21 21 0 1 1-25.86 28.92zM10 86.19v-7.55a.85.85 0 0 1 .85-.85h26a.85.85 0 0 1 .85.85v7.55a.85.85 0 0 1-.85.85h-26a.85.85 0 0 1-.85-.85zm41.17 12.1H32.61a.88.88 0 0 1-.88-.88v-7.49a.89.89 0 0 1 .88-.88h6.16a1 1 0 0 0 1-1v-9.42a.83.83 0 0 1 .82-.83h6.21a1 1 0 0 0 1-1v-9.42a.83.83 0 0 1 .83-.83H53a.83.83 0 0 1 .83.83v28.29a2.63 2.63 0 0 1-2.62 2.63zm1.51-33.75H46.8a1 1 0 0 0-1 1V75a.82.82 0 0 1-.82.82H18.89a.82.82 0 0 1-.82-.82v-7.6a.83.83 0 0 1 .82-.83h21.2a1 1 0 0 0 0-2H27.23a1.12 1.12 0 0 1-1.12-1.12v-7a1.12 1.12 0 0 1 1.12-1.12h25.49a1.12 1.12 0 0 1 1.12 1.12v7a1.12 1.12 0 0 1-1.12 1.09zM78.08 49a4.54 4.54 0 0 0 .12.53 5.9 5.9 0 0 0 3.25 3.81h-4.88zM55.84 65.54v-8.79a1.46 1.46 0 0 1 1.46-1.46h26.4a1.46 1.46 0 0 1 1.46 1.46v10.08a1.46 1.46 0 0 1-1.46 1.46H58.47a2.63 2.63 0 0 1-2.63-2.63zm28.84 14.75v14a4 4 0 0 1-4 4H58.47a2.63 2.63 0 0 1-2.63-2.63V72.92a2.63 2.63 0 0 1 2.63-2.63h31.59a12 12 0 0 0-5.38 10z"/><path class="cls-6" d="M136.62 35.59A4.36 4.36 0 1 0 141 40a4.35 4.35 0 0 0-4.38-4.41zM133.63 33.19h5.89a1.09 1.09 0 0 0 1.09-1.06l.39-11.78a1.08 1.08 0 0 0-1.08-1.12h-6.67a1.08 1.08 0 0 0-1.08 1.12l.38 11.78a1.09 1.09 0 0 0 1.08 1.06zM167.78 5.66a1 1 0 0 0-1.42 0L164 8.08a1 1 0 0 0 0 1.41 1 1 0 0 0 .71.29 1 1 0 0 0 .71-.29l2.41-2.41a1 1 0 0 0-.05-1.42zM156.63 5.26a1.09 1.09 0 0 0 .26 0 1 1 0 0 0 1-.75l.88-3.29A1 1 0 0 0 158 0a1 1 0 0 0-1.23.7l-.85 3.3a1 1 0 0 0 .71 1.26zM169.15 17.56a1.09 1.09 0 0 0 .25 0l3.3-.88a1 1 0 1 0-.52-1.93l-3.29.88a1 1 0 0 0 .26 2z"/></g></svg>