<svg fill="none" height="80" viewBox="0 0 80 80" width="80" xmlns="http://www.w3.org/2000/svg" xmlns:xlink="http://www.w3.org/1999/xlink"><linearGradient id="a"><stop offset="0" stop-color="#7196ff"/><stop offset="1" stop-color="#567ef7"/></linearGradient><linearGradient id="b" gradientUnits="userSpaceOnUse" x1="52.41" x2="75.93" xlink:href="#a" y1="56.25" y2="56.25"/><linearGradient id="c" gradientUnits="userSpaceOnUse" x1="3409.53" x2="4044.51" xlink:href="#a" y1="604.803" y2="403.984"/><clipPath id="d"><path d="m0 0h80v80h-80z"/></clipPath><g clip-path="url(#d)"><path d="m40 80c22.0914 0 40-17.9086 40-40s-17.9086-40-40-40-40 17.9086-40 40 17.9086 40 40 40z" fill="#a1c2ff"/><path d="m75.93 57.59c-5.74-1.47-10.26-3.55-15.8-9.23-.8341-.8553-1.9738-1.3443-3.1684-1.3593s-2.3463.4452-3.2016 1.2793-1.3443 1.9738-1.3593 3.1684.4452 2.3463 1.2793 3.2016c6 6.12 11.34 9 17.14 10.85 2.0071-2.4275 3.7222-5.0824 5.11-7.91z" fill="url(#b)"/><path d="m6.15995 46.81.21.15c6.14745 4.4464 13.52345 6.8748 21.11005 6.95.5463.0204 1.0912-.0671 1.6037-.2573.5125-.1903.9825-.4796 1.3832-.8515s.7242-.8191.9521-1.316c.2278-.4969.3556-1.0339.376-1.5802.0203-.5463-.0671-1.0912-.2574-1.6037-.1902-.5126-.4796-.9826-.8515-1.3832-.3719-.4007-.8191-.7242-1.316-.9521s-1.0338-.3556-1.5801-.376c-6.0172-.0138-11.8736-1.9437-16.72-5.51-.8948-.5902-1.98252-.8132-3.03738-.6227-1.05485.1905-1.99582.7799-2.62759 1.6459-.63177.8659-.90582 1.9419-.76524 3.0045.14057 1.0627.68496 2.0304 1.52016 2.7023z" fill="url(#c)"/><path d="m6.15995 46.81.21.15c6.14745 4.4464 13.52345 6.8748 21.11005 6.95.5463.0204 1.0912-.0671 1.6037-.2573.5125-.1903.9825-.4796 1.3832-.8515s.7242-.8191.9521-1.316c.2278-.4969.3556-1.0339.376-1.5802.0203-.5463-.0671-1.0912-.2574-1.6037-.1902-.5126-.4796-.9826-.8515-1.3832-.3719-.4007-.8191-.7242-1.316-.9521s-1.0338-.3556-1.5801-.376c-6.0172-.0138-11.8736-1.9437-16.72-5.51-.8948-.5902-1.98252-.8132-3.03738-.6227-1.05485.1905-1.99582.7799-2.62759 1.6459-.63177.8659-.90582 1.9419-.76524 3.0045.14057 1.0627.68496 2.0304 1.52016 2.7023z" fill="#7196ff"/><path d="m43.41 17.32c-.4144-.1321-.8216-.2856-1.22-.46-.593-.2526-1.1707-.5397-1.73-.86-2.13-1.22-2.83-4 0-4.92 0 0 2.65-2 6.27 1.69.2813.3459.6563.6035 1.0802.7418.4238.1383.8786.1516 1.3098.0382l-3.71 3.52z" fill="#03a79f"/><path d="m46.6399 15.92s-4.23-.09-7.71-8.27001" stroke="#03968f" stroke-linecap="round" stroke-miterlimit="10" stroke-width=".81"/><path d="m42.19 16.86c-.14-.06 2.11.95 5-2.62l1.26-1.57c1.16-1.39 3.87-4.40004 6.95-3.00004.3766.1948.7046.47174.9598.81034s.4311.7302.5146 1.1458c.0835.4157.0726.8448-.032 1.2557-.1047.4109-.3002.793-.5724 1.1182-.4651.7252-1.0871 1.3369-1.82 1.79-1.8006 1.1664-3.8596 1.8738-5.9968 2.0603-2.1373.1865-4.2877-.1535-6.2632-.9903z" fill="#00c0b5"/><path d="m46.1101 17.88c3.2148-.7392 6.0324-2.664 7.89-5.39.5804-.8854 1.0411-1.8437 1.37-2.84999h.1c.2171.12581.4185.27686.6.44999-.3409.9762-.801 1.9066-1.37 2.77-1.4703 2.2012-3.5574 3.9197-6 4.94-.8584.1137-1.7262.1405-2.59.08z" fill="#03a79f"/><path d="m28.25 40.87 31.65 4.72 3.78 13.83c.703 2.5725.5163 5.307-.53 7.76-.826 1.9442-2.1576 3.6317-3.8563 4.8873-1.6988 1.2556-3.7027 2.0334-5.8037 2.2527l-18.26 1.92c-2.1901.2376-4.3998-.2124-6.3225-1.2876-1.9228-1.0751-3.4632-2.7221-4.4075-4.7124-.9798-2.0715-1.2605-4.4052-.8-6.65z" fill="#7196ff"/><path d="m62.31 54.4-22.04-5.95-12.74-4.02 32.7 2.37z" fill="#4f79f0" opacity=".25"/><path d="m62.7305 26.2346 7.9564.8335c1.0551.1105 2.0231.6356 2.691 1.4598.6679.8243.9811 1.88.8705 2.9351l-.9376 8.9511c-.1105 1.055-.6356 2.023-1.4598 2.6909-.8243.6679-1.8801.9811-2.9351.8706l-7.9565-.8335z" fill="#7196ff"/><path d="m65.6582 29.5468 3.9782.4167c.5276.0552 1.0116.3178 1.3455.7299.334.4121.4906.94.4353 1.4676l-.7293 6.9619c-.0552.5275-.3178 1.0115-.7299 1.3455-.4121.3339-.94.4905-1.4676.4352l-3.9782-.4167z" fill="#bacfff"/><path d="m23.8884 39.2324-7.9564-.8335c-1.0551-.1105-2.0231-.6356-2.691-1.4599-.6679-.8242-.9811-1.88-.8705-2.935l.9376-8.9511c.1105-1.0551.6356-2.023 1.4599-2.6909.8242-.668 1.88-.9811 2.935-.8706l7.9565.8335z" fill="#7196ff"/><path d="m20.9626 35.9131-3.9782-.4167c-.5275-.0553-1.0115-.3179-1.3455-.73-.3339-.4121-.4905-.94-.4352-1.4675l.7292-6.9619c.0553-.5276.3179-1.0116.73-1.3455.4121-.334.94-.4905 1.4675-.4353l3.9782.4167z" fill="#bacfff"/><path d="m26.4271 45.6051 31.5176 3.3015c4.938.5173 9.3604-3.0665 9.8776-8.0045l1.4565-13.9039c.5173-4.938-3.0665-9.3604-8.0045-9.8777l-31.5176-3.3015c-4.938-.5172-9.3604 3.0665-9.8776 8.0045l-1.4565 13.9039c-.5173 4.9381 3.0665 9.3604 8.0045 9.8777z" fill="#7196ff"/><path d="m48.9526 40.5988-9.14-.9574c-.926-.097-1.8238-.3755-2.6422-.8194-.8184-.444-1.5413-1.0449-2.1275-1.7682-.5862-.7234-1.0242-1.5552-1.289-2.4478-.2647-.8926-.351-1.8287-.254-2.7547l.7292-6.9619c.0796-.7597.4577-1.4566 1.0511-1.9375.5935-.4809 1.3536-.7063 2.1133-.6268l18.1009 1.8961c.7597.0796 1.4567.4577 1.9376 1.0511.4809.5935.7063 1.3536.6267 2.1133l-.6678 6.3751c-.2119 2.0232-1.2188 3.8792-2.7993 5.16-1.5804 1.2807-3.6049 1.8811-5.628 1.6692z" fill="#bacfff"/><path d="m27.98 32.04c1.4912 0 2.7-1.2088 2.7-2.7s-1.2088-2.7-2.7-2.7c-1.4911 0-2.7 1.2088-2.7 2.7s1.2089 2.7 2.7 2.7z" fill="#202225"/><path d="m62.6399 35.67c1.4912 0 2.7001-1.2088 2.7001-2.7 0-1.4911-1.2089-2.7-2.7001-2.7-1.4911 0-2.7 1.2089-2.7 2.7 0 1.4912 1.2089 2.7 2.7 2.7z" fill="#202225"/><path d="m49.2432 36.3542 2.4765.2594c.6866.0719 1.3015-.4264 1.3734-1.113s-.4264-1.3015-1.113-1.3734l-2.4764-.2594c-.6866-.0719-1.3015.4264-1.3734 1.113-.072.6866.4263 1.3015 1.1129 1.3734z" fill="#9cb6f1"/><path d="m39.7189 35.3557 3.471.3636c.6866.0719 1.3015-.4264 1.3734-1.113.072-.6866-.4263-1.3015-1.1129-1.3734l-3.4711-.3636c-.6866-.0719-1.3015.4263-1.3734 1.1129s.4264 1.3015 1.113 1.3735z" fill="#9cb6f1"/><path clip-rule="evenodd" d="m6.56006 62c3.64004 5.5457 8.60214 10.099 14.43954 13.25s12.3669 4.8008 19.0005 4.8008c6.6335 0 13.163-1.6498 19.0004-4.8008s10.7995-7.7043 14.4396-13.25z" fill="#8c7dff" fill-rule="evenodd"/><path d="m52.6801 73.5h-15.61l-6.5-9.43h15.61z" fill="#d3cfff"/><path d="m37.1285 66.1098-.4787.1444-.1242-.4116.4787-.1445c.0558-.0168.1161-.0108.1675.0168s.0898.0745.1067.1303c.0138.0549.006.1131-.0219.1624-.028.0493-.0739.0859-.1281.1022z" fill="#f5872c"/><path d="m23.5 69.6035.2195.7276-1.9147.5778c-.0457.0137-.095.0088-.1371-.0138-.0421-.0225-.0734-.0609-.0872-.1066l-.1156-.3829c-.0138-.0457-.0088-.095.0137-.1371.0226-.0421.061-.0735.1067-.0873z" fill="#f5db8c"/><path d="m35.52 67.2 1.28-.94-.15-.49-1.58-.08-12.19 3.68c-.0365.0116-.0671.0367-.0857.0701-.0186.0335-.0237.0728-.0143.1099l.37 1.23c.0046.0188.013.0365.0247.0519s.0265.0282.0434.0376.0356.0151.0549.017c.0192.0018.0387-.0004.057-.0065z" fill="#ffb458"/><g fill="#f5db8c"><path d="m28.2801 69.47c.0152.0466.0208.0958.0164.1446-.0045.0489-.0188.0963-.0422.1393-.0235.0431-.0554.0809-.094.1112-.0385.0303-.0828.0524-.1302.0649l-2.89.87c-.0588.0166-.1212.016-.1796-.0017-.0585-.0177-.1107-.0518-.1504-.0983-.0298-.0291-.0667-.0499-.1071-.0604-.0403-.0106-.0827-.0104-.1229.0004l-.26.06c-.0252.0062-.0518.0023-.0742-.0107-.0223-.0131-.0388-.0343-.0458-.0593l-.46-1.53c-.0017-.0208.0031-.0417.0139-.0596.0108-.018.0269-.0321.0461-.0404l.53-.16c.0252-.0061.0517-.0023.0741.0108.0224.013.0389.0343.0459.0592l.42 1.41 3.24-.91c.0345-.0095.0713-.0055.1029.0112s.0556.0449.0671.0788z"/><path d="m35.5201 67.2 1.28-.94-.15-.49-1.58-.08z"/></g></g></svg>