<svg width="193" height="127" viewBox="0 0 193 127" fill="none" xmlns="http://www.w3.org/2000/svg">
<path fill-rule="evenodd" clip-rule="evenodd" d="M106.223 4.73044C105.88 4.6944 105.531 4.67593 105.178 4.67593H104.794C100.479 4.67593 96.7258 7.79949 96.0317 12.0896L96.0308 12.0947L88.4267 55.9639L86.6018 55.6483L94.2033 11.7944C94.2036 11.7926 94.2039 11.7908 94.2042 11.789C95.0482 6.58943 99.5883 2.82593 104.794 2.82593H105.409C105.758 2.82593 106.103 2.84895 106.443 2.8933C112.274 3.51795 116.856 8.41197 116.856 14.4682C116.856 16.0496 116.523 17.6236 115.942 19.0313L115.94 19.0358L115.938 19.0403C112.847 26.3059 111.009 32.4688 111.316 39.1904C111.624 45.9127 114.083 53.3037 119.8 62.9916C125.58 72.7865 130.175 82.9159 131.165 92.5812C132.162 102.308 129.502 111.544 120.856 119.414C104.792 134.078 83.7499 124.648 80.386 108.122C78.7212 99.9439 80.4763 93.1076 83.6753 86.8574C86.0314 82.2542 89.206 77.9136 92.3623 73.5981C93.4514 72.109 94.5383 70.6229 95.5886 69.1301C99.653 63.3533 101.401 58.2483 102.043 53.5566C102.668 48.9925 102.252 44.7891 101.84 40.6202C101.826 40.4813 101.813 40.3424 101.799 40.2036C100.93 31.3877 103.615 24.4255 106.968 19.8897L106.971 19.8856L110.512 15.2045L110.518 15.1973C112.737 12.3816 112.264 8.29835 109.45 6.09014C108.506 5.37159 107.393 4.88669 106.223 4.73044ZM113.568 9.35517C114.479 10.8386 115.004 12.587 115.004 14.4682C115.004 15.7941 114.724 17.1273 114.231 18.3212C111.103 25.6751 109.14 32.1421 109.466 39.2749C109.792 46.4085 112.402 54.0982 118.205 63.931C123.944 73.6568 128.374 83.5073 129.323 92.7695C130.265 101.97 127.78 110.609 119.607 118.048L119.606 118.049C104.643 131.709 85.2882 122.92 82.2009 107.754C80.6401 100.086 82.2642 93.6785 85.3244 87.6995C87.6077 83.2384 90.6548 79.0717 93.7847 74.7918C94.8908 73.2793 96.0072 71.7526 97.1039 70.1938C101.334 64.1817 103.195 58.7991 103.878 53.807C104.533 49.0229 104.098 44.6271 103.689 40.4966C103.673 40.3381 103.658 40.1801 103.642 40.0224C102.822 31.6935 105.358 25.1841 108.455 20.9927L111.979 16.3344C113.588 14.2879 114.093 11.7167 113.568 9.35517Z" fill="#57F287"/>
<path d="M123.457 82.5992C143.578 94.2351 168.308 101.201 192.5 104.187V70.1213C177.601 68.8965 155.943 65.4517 138.51 55.8827L123.457 82.5992Z" fill="url(#paint0_linear_826_55169)"/>
<path d="M126.837 76.6282L138.895 66.1406C135.823 72.3413 134.901 83.2882 134.671 88.4172C130.831 86.5799 127.067 84.6661 123.458 82.5992L126.837 76.6282Z" fill="black"/>
<path d="M100.8 85.5082C87.8207 78.2358 88.2815 69.5089 95.3471 51.3662C96.9599 47.0027 98.8031 42.7158 100.877 38.582L101.722 38.8882L120.845 35.2137L141.504 64.0737C139.354 69.4324 136.896 74.7144 134.131 79.7668C123.84 99.5938 113.779 92.7806 100.8 85.5082Z" fill="#EB459F"/>
<path d="M95.5793 22.2767C97.0385 20.8222 96.8849 19.7505 96.3473 18.1429C96.2705 17.8367 95.9633 17.6836 95.6561 17.6836H93.3521V22.2767H95.5793Z" fill="#57F287"/>
<path d="M55.5656 99.058L57.4856 101.048C58.484 102.12 59.9432 102.732 61.4024 102.732H70.2344V86.7332H55.5656L54.1832 94.4649C53.876 96.149 54.4136 97.8331 55.5656 99.058Z" fill="#8CD9FF"/>
<path d="M113.703 31.0801L115.777 33.2235C116.929 34.4484 117.466 36.209 117.159 37.8932L115.239 49.0697H103.949V31.0801H113.703Z" fill="#8CD9FF"/>
<path d="M56.1801 96.3787C55.5657 99.2111 57.4089 102.044 60.3273 102.656C60.7113 102.732 61.1721 102.809 61.5561 102.732H99.4953C103.182 102.579 106.33 99.9766 107.098 96.3787L117.159 37.9697C117.774 35.1373 115.93 32.3049 113.012 31.6925C112.628 31.6159 112.167 31.5394 111.783 31.6159H73.8441C70.1577 31.769 67.0089 34.3718 66.2409 37.9697L56.1801 96.3787Z" fill="#8CD9FF"/>
<path d="M54.2602 94.3118C53.6458 97.1442 55.4122 99.9001 58.177 100.512C58.6378 100.589 59.0986 100.666 59.6362 100.666H97.5754C101.262 100.589 104.411 97.9097 105.179 94.3118L115.239 35.9794C115.854 33.147 114.011 30.3145 111.092 29.7021C110.708 29.6256 110.247 29.549 109.863 29.6256H71.8474C68.161 29.7021 65.0122 32.3814 64.321 35.9794L54.2602 94.3118Z" fill="white"/>
<path d="M83.8282 35.1372C83.521 36.8214 84.5962 38.5055 86.2858 38.8117C86.5162 38.8883 86.8234 38.8883 87.0538 38.8883H91.5082C93.6586 38.8117 95.5018 37.2807 95.9626 35.1372L97.9594 23.731C98.2666 22.0469 97.1914 20.3627 95.5018 20.0565C95.2714 19.98 94.9642 19.98 94.7338 19.98H90.2794C88.129 20.0565 86.2858 21.5876 85.825 23.731L83.8282 35.1372Z" fill="black"/>
<path d="M61.7097 88.9532C61.4025 90.9435 62.7081 92.8573 64.7049 93.1635C65.0121 93.2401 65.2425 93.2401 65.5497 93.2401H93.5049C96.0393 93.1635 98.2665 91.4028 98.8041 88.9532C99.1881 86.9628 97.8825 85.049 95.8857 84.6663C95.5785 84.5897 95.2713 84.5897 94.9641 84.5897H67.0089C64.4745 84.6663 62.2473 86.427 61.7097 88.9532Z" fill="#395752"/>
<path d="M88.2553 35.5361C87.453 34.6633 87.6645 33.1685 88.7277 32.1973C89.791 31.2261 91.3034 31.1464 92.1058 32.0192C92.9081 32.8921 92.6966 34.3869 91.6334 35.358C90.5701 36.3292 89.0577 36.4089 88.2553 35.5361Z" fill="#5865F2"/>
<path d="M89.9731 21.9705C90.0499 22.1236 90.2035 22.2767 90.3571 22.2767H94.6578C94.8882 22.2767 94.965 22.1236 94.965 22.047C94.965 21.9705 94.965 21.9705 95.0418 21.9705V21.8174C95.0418 21.7408 95.0418 21.5877 94.965 21.5112C94.197 19.5974 94.7347 18.6788 95.6562 17.9898V17.6836H92.5075C92.2771 17.6836 92.0467 17.6836 91.8931 17.8367C90.3571 18.6788 89.0515 19.3677 89.9731 21.9705Z" fill="#57F287"/>
<path d="M93.044 14.8511H95.6552C95.8856 14.8511 96.0392 15.0807 95.9624 15.2338L95.5784 17.6835H92.5832L93.044 14.8511Z" fill="black"/>
<path d="M94.4517 16.0757C93.6469 16.035 93.0187 15.5228 93.0487 14.9316C93.0787 14.3405 93.7554 13.8943 94.5603 13.935C95.3651 13.9758 95.9933 14.488 95.9633 15.0791C95.9333 15.6703 95.2566 16.1164 94.4517 16.0757Z" fill="black"/>
<path d="M96.2699 33.0702C97.1147 35.0606 99.2651 36.1323 102.03 36.5916C106.868 37.4337 113.857 36.5151 119.771 35.9027C112.398 52.9737 114.702 66.753 123.457 75.2503C127.297 78.3889 132.212 79.7668 134.824 78.4654C143.195 62.313 145.192 55.7296 143.348 48.9165C141.275 40.8785 136.436 34.2951 135.208 32.5344C124.84 17.913 116.622 19.6737 102.184 23.042C96.9611 24.2668 93.9659 27.4054 96.2699 33.0702Z" fill="url(#paint1_linear_826_55169)"/>
<path d="M96.7306 26.4868C97.0378 27.4054 99.4954 27.4054 102.107 26.4868C104.718 25.5682 106.638 24.0371 106.254 23.042C105.87 22.0468 103.566 22.353 100.878 23.042C96.7306 24.1137 96.4234 25.4916 96.7306 26.4868Z" fill="#FFCCE5"/>
<path d="M98.6516 23.8076C98.2676 23.9607 98.0372 24.3435 98.0372 24.8028C97.8836 25.8745 98.5748 26.7931 99.65 27.0228C99.8804 27.0993 100.188 27.0228 100.418 26.9462C98.498 27.4055 96.962 27.1759 96.7316 26.4869C96.5012 25.798 96.6548 24.7262 98.6516 23.8076Z" fill="white"/>
<path fill-rule="evenodd" clip-rule="evenodd" d="M119.454 36.11C119.061 35.946 118.609 36.1315 118.445 36.5243C113.411 48.5673 110.99 62.6387 122.03 75.3722C122.309 75.694 122.796 75.7289 123.118 75.4502C123.44 75.1715 123.475 74.6847 123.196 74.3629C112.732 62.2936 114.919 48.9595 119.869 37.1183C120.033 36.7255 119.848 36.274 119.454 36.11Z" fill="black"/>
<path fill-rule="evenodd" clip-rule="evenodd" d="M124.302 36.2814C124.258 35.858 123.878 35.5509 123.454 35.5953L119.077 36.0547C118.653 36.0991 118.345 36.4784 118.39 36.9018C118.434 37.3252 118.814 37.6324 119.238 37.5879L123.615 37.1286C124.039 37.0841 124.347 36.7048 124.302 36.2814Z" fill="black"/>
<path d="M49.5745 14.9276C51.4945 13.7028 52.8001 11.7125 53.1841 9.41591L53.7217 5.51177C53.7985 5.35867 53.9521 5.20557 54.1057 5.20557C54.2593 5.20557 54.4897 5.35867 54.4897 5.51177L55.1041 9.41591C55.4113 11.7125 56.7169 13.7028 58.6369 14.9276L59.1745 15.2338C59.2513 15.3104 59.3281 15.4635 59.3281 15.54C59.3281 15.6166 59.2513 15.7697 59.1745 15.8463L58.6369 16.1525C56.7169 17.3773 55.4113 19.3676 55.1041 21.6642L54.4897 25.4918C54.4897 25.7214 54.3361 25.8745 54.1057 25.8745C53.9521 25.8745 53.7985 25.7214 53.7217 25.4918L53.1841 21.6642C52.8769 19.3676 51.5713 17.3773 49.5745 16.1525L49.1137 15.8463C49.0369 15.7697 48.9601 15.6932 48.9601 15.54C48.9601 15.3869 49.0369 15.3104 49.1137 15.2338L49.5745 14.9276Z" fill="#8CD9FF"/>
<path d="M138.74 20.3628C139.738 19.7504 140.353 18.7552 140.506 17.6069L140.813 15.7697C140.813 15.6166 140.89 15.54 141.044 15.54C141.121 15.54 141.197 15.6166 141.197 15.7697L141.505 17.6069C141.658 18.7552 142.273 19.7504 143.271 20.3628L143.501 20.5159C143.578 20.5925 143.578 20.5925 143.578 20.669C143.578 20.7456 143.578 20.8221 143.501 20.8221L143.271 21.0518C142.273 21.6642 141.658 22.5828 141.505 23.7311L141.197 25.6449C141.197 25.7214 141.121 25.798 141.044 25.798C140.89 25.798 140.813 25.7214 140.813 25.6449L140.506 23.7311C140.353 22.5828 139.738 21.6642 138.74 21.0518L138.509 20.8221C138.433 20.7456 138.433 20.7456 138.433 20.669C138.433 20.5925 138.509 20.5925 138.509 20.5159L138.74 20.3628Z" fill="#FFE75C"/>
<path d="M30.0679 35.8263C31.0663 35.2139 31.6807 34.2952 31.8343 33.147L32.1415 31.2332C32.1415 31.1566 32.2183 31.0801 32.3719 31.0801C32.4487 31.0801 32.5255 31.1566 32.5255 31.2332L32.8327 33.147C32.9863 34.2952 33.6006 35.2139 34.599 35.8263L34.8294 35.9794C34.9062 36.0559 34.9062 36.1325 34.9062 36.209C34.9062 36.2856 34.9062 36.2856 34.8294 36.3621L34.599 36.5152C33.6006 37.1277 32.9863 38.0463 32.8327 39.1946L32.5255 41.1083C32.5255 41.2614 32.4487 41.338 32.3719 41.338C32.2183 41.338 32.1415 41.2614 32.1415 41.1083L31.8343 39.1946C31.6807 38.0463 31.0663 37.1277 30.0679 36.5152L29.8375 36.3621C29.7607 36.2856 29.7607 36.2856 29.7607 36.209C29.7607 36.1325 29.7607 36.0559 29.8375 35.9794L30.0679 35.8263Z" fill="#57F287"/>
<path d="M47.8078 70.4277C48.5758 69.9684 49.1134 69.2029 49.267 68.2842L49.4974 66.7532C49.4974 66.6766 49.5742 66.6001 49.651 66.6001C49.7278 66.6001 49.8046 66.6766 49.8046 66.7532L50.035 68.2842C50.1118 69.2029 50.6494 69.9684 51.4174 70.4277L51.6478 70.5808C51.7246 70.6573 51.7246 70.6573 51.7246 70.7339V70.887H51.4942C50.7262 71.3463 50.1886 72.1884 50.1118 73.107L49.8814 74.638C49.8814 74.7146 49.8046 74.7146 49.7278 74.7146C49.651 74.7146 49.5742 74.7146 49.5742 74.638L49.3438 73.107C49.1902 72.1884 48.6526 71.4229 47.8846 70.887H47.731V70.7339C47.731 70.6573 47.731 70.5808 47.8078 70.5808V70.4277Z" fill="#808AFF"/>
<path d="M77.8379 51.5958C77.5307 51.3662 77.0699 51.4427 76.7627 51.7489C76.4555 52.0551 76.3019 52.4379 76.4555 52.8206L79.2971 58.7151L68.1611 60.9351C68.0843 61.1648 68.0843 61.3944 68.0075 61.6241C67.9307 61.8538 67.9307 62.0834 67.9307 62.3131L78.2219 64.5331L73.4603 70.4275C73.1531 70.7338 73.1531 71.1931 73.3835 71.4993C73.5371 71.6524 73.6907 71.7289 73.9211 71.7289C74.0747 71.7289 74.2283 71.6524 74.3819 71.5758L80.9099 67.7482L81.3707 78.3889C81.6011 78.3889 81.8315 78.3889 82.0619 78.3889C82.2923 78.3889 82.5227 78.3889 82.7531 78.3889L86.8235 67.7482L92.0459 71.5758C92.1995 71.6524 92.3531 71.7289 92.5067 71.7289C92.7371 71.7289 92.9675 71.6524 93.1211 71.4993C93.4283 71.1931 93.5819 70.8103 93.4283 70.4275L90.5867 64.5331L101.723 62.3131C101.8 62.0834 101.8 61.8538 101.876 61.6241C101.953 61.3944 101.953 61.1648 101.953 60.9351L91.5851 58.7151L96.4235 52.8206C96.6539 52.5144 96.7307 52.0551 96.5003 51.7489C96.2699 51.4427 95.8091 51.4427 95.4251 51.5958L88.8971 55.4234L88.5131 44.7827C88.2827 44.7827 88.0523 44.7827 87.8219 44.7827C87.5915 44.7827 87.3611 44.7827 87.1307 44.7827L83.0603 55.4234L77.8379 51.5958Z" fill="white"/>
<path d="M68.0081 62.3131C66.8561 71.04 72.6929 78.0827 81.4481 78.4655L80.9873 67.8248L74.4593 71.6524C74.3057 71.7289 74.1521 71.8055 73.9985 71.8055C73.7681 71.8055 73.5377 71.7289 73.4609 71.5758C73.2305 71.2696 73.2305 70.8869 73.5377 70.5041L78.3761 64.6096L68.0081 62.3131ZM83.0609 55.4234L77.8385 51.5958C77.5313 51.3662 77.0705 51.4427 76.7633 51.7489C76.4561 52.0551 76.3025 52.4379 76.4561 52.8206L79.2977 58.7151L68.1617 60.9351C70.0049 52.2082 78.2993 45.1655 87.1313 44.7827L83.0609 55.4234ZM88.9745 55.4234L88.5905 44.7827C97.2689 45.1655 103.183 52.2082 102.031 60.9351L91.6625 58.7151L96.5009 52.8206C96.7313 52.5144 96.8081 52.0551 96.5777 51.7489C96.3473 51.4427 95.8865 51.4427 95.5025 51.5958L88.9745 55.4234ZM93.1217 71.4227C93.4289 71.1165 93.5825 70.7338 93.4289 70.351L90.5873 64.4565L101.723 62.2365C99.8801 70.9634 91.5857 78.0062 82.7537 78.3889L86.8241 67.7482L92.0465 71.5758C92.2001 71.6524 92.3537 71.7289 92.5073 71.7289C92.7377 71.7289 92.9681 71.5758 93.1217 71.4227Z" fill="url(#paint2_linear_826_55169)"/>
<defs>
<linearGradient id="paint0_linear_826_55169" x1="133.227" y1="79.9798" x2="193.653" y2="80.1108" gradientUnits="userSpaceOnUse">
<stop stop-color="#EB459F"/>
<stop offset="1" stop-color="#FF78B9"/>
</linearGradient>
<linearGradient id="paint1_linear_826_55169" x1="110.043" y1="70.0333" x2="122.979" y2="33.6448" gradientUnits="userSpaceOnUse">
<stop stop-color="#EB459F"/>
<stop offset="1" stop-color="#FF78B9"/>
</linearGradient>
<linearGradient id="paint2_linear_826_55169" x1="94.855" y1="73.4927" x2="74.7956" y2="49.9128" gradientUnits="userSpaceOnUse">
<stop stop-color="#11A574"/>
<stop offset="1" stop-color="#169DD8"/>
</linearGradient>
</defs>
</svg>
