<svg fill="none" height="24" viewBox="0 0 24 24" width="24" xmlns="http://www.w3.org/2000/svg"><path clip-rule="evenodd" d="m16.1521 10.2145c-.898-1.33537-2.423-2.2145-4.1521-2.2145-2.76 0-5 2.24-5 5 0 .91.26 1.75.69 2.49l-1.31.76c-.56-.96-.88-2.07-.88-3.25 0-3.58 2.92-6.5 6.5-6.5 2.5005 0 4.6789 1.42447 5.7654 3.5034-.5537.0159-1.0933.0881-1.6133.2111zm5.0609.4569c-1.0374-4.12279-4.7665-7.1714-9.213-7.1714-5.25 0-9.5 4.25-9.5 9.5 0 1.73.47 3.35 1.27 4.74l-1.29.75c-.93-1.61-1.48-3.49-1.48-5.49 0-6.07 4.93-11 11-11 5.628 0 10.276 4.23823 10.9231 9.6937-.522-.408-1.0959-.7527-1.7101-1.0223zm-11.1456 6.2851c-.0444.3415-.0674.6898-.0674 1.0435 0 .6906.0875 1.3608.252 2h-1.752v-.5c0-1.0929.5951-2.0204 1.5674-2.5435zm.7015-2.3831c.5821-1.2261 1.4668-2.2806 2.5576-3.0671-.3537-.3146-.8188-.5063-1.3265-.5063-1.1 0-2 .9-2 2 0 .6367.3016 1.2065.7689 1.5734z" fill="#4f545c" fill-rule="evenodd" opacity=".6"/></svg>