<svg width="200" height="110" viewBox="0 0 200 110" fill="none" xmlns="http://www.w3.org/2000/svg">
<path opacity="0.2" d="M28.8818 110H0V105.68C0 98.793 5.7508 93.1583 12.7796 93.1583H15.3355C16.7412 93.1583 17.8914 92.0313 17.8914 90.6539V75.3148C17.8914 64.9217 26.4537 56.5322 37.0607 56.5322H70.8626C74.1214 56.5322 76.7412 53.9652 76.7412 50.7722V50.5217C76.7412 43.5722 82.492 38 89.5208 38C99.8722 38 114.313 38 124.665 38C131.693 38 137.444 43.6348 137.444 50.5217V75.5652H164.856C184.281 75.5652 200 90.967 200 110H28.8818Z" fill="#AEC7FF"/>
<path d="M48.2812 47.7953L47.4505 49.4587C47.2588 49.8426 47.6422 50.2904 48.0895 50.0985L49.7508 49.2668C49.8786 49.2028 50.0064 49.2028 50.1342 49.2668L51.7956 50.0985C52.1789 50.2904 52.6262 49.9065 52.4345 49.4587L51.6039 47.7953C51.54 47.6674 51.54 47.5394 51.6039 47.4114L52.4345 45.748C52.6262 45.3642 52.2428 44.9163 51.7956 45.1083L50.1342 45.94C50.0064 46.004 49.8786 46.004 49.7508 45.94L48.0895 45.1083C47.7061 44.9163 47.2588 45.3002 47.4505 45.748L48.2812 47.4114C48.3451 47.4754 48.3451 47.6674 48.2812 47.7953Z" fill="#AEC7FF"/>
<path d="M160.881 82.7377L160.051 84.4011C159.859 84.7849 160.242 85.2328 160.69 85.0409L162.351 84.2092C162.479 84.1452 162.607 84.1452 162.734 84.2092L164.396 85.0409C164.779 85.2328 165.226 84.8489 165.035 84.4011L164.204 82.7377C164.14 82.6097 164.14 82.4818 164.204 82.3538L165.035 80.6904C165.226 80.3066 164.843 79.8587 164.396 80.0507L162.734 80.8824C162.607 80.9463 162.479 80.9463 162.351 80.8824L160.69 80.0507C160.306 79.8587 159.859 80.2426 160.051 80.6904L160.881 82.3538C160.945 82.4178 160.945 82.6097 160.881 82.7377Z" fill="#AEC7FF"/>
<path d="M188.514 72.9193C188.131 72.9193 187.875 72.6634 187.875 72.2795V71.6398C187.875 71.2559 188.131 71 188.514 71C188.898 71 189.153 71.2559 189.153 71.6398V72.2795C189.153 72.5994 188.834 72.9193 188.514 72.9193Z" fill="#7196FF"/>
<path d="M188.514 78.0375C188.131 78.0375 187.875 77.7816 187.875 77.3977V76.7579C187.875 76.3741 188.131 76.1182 188.514 76.1182C188.898 76.1182 189.153 76.3741 189.153 76.7579V77.3977C189.153 77.7176 188.834 78.0375 188.514 78.0375Z" fill="#7196FF"/>
<path d="M190.112 74.5187C190.112 74.1348 190.367 73.8789 190.751 73.8789H191.39C191.773 73.8789 192.029 74.1348 192.029 74.5187C192.029 74.9025 191.773 75.1584 191.39 75.1584H190.751C190.367 75.1584 190.112 74.8386 190.112 74.5187Z" fill="#7196FF"/>
<path d="M185 74.5187C185 74.1348 185.256 73.8789 185.639 73.8789H186.278C186.661 73.8789 186.917 74.1348 186.917 74.5187C186.917 74.9025 186.661 75.1584 186.278 75.1584H185.639C185.256 75.1584 185 74.8386 185 74.5187Z" fill="#7196FF"/>
<path d="M29.5144 68.9193C29.131 68.9193 28.8754 68.6634 28.8754 68.2795V67.6398C28.8754 67.2559 29.131 67 29.5144 67C29.8978 67 30.1534 67.2559 30.1534 67.6398V68.2795C30.1534 68.6634 29.8978 68.9193 29.5144 68.9193Z" fill="#D4E4FF"/>
<path d="M29.5144 74.0375C29.131 74.0375 28.8754 73.7816 28.8754 73.3977V72.7579C28.8754 72.3741 29.131 72.1182 29.5144 72.1182C29.8978 72.1182 30.1534 72.3741 30.1534 72.7579V73.3977C30.1534 73.7816 29.8978 74.0375 29.5144 74.0375Z" fill="#D4E4FF"/>
<path d="M31.1118 70.5187C31.1118 70.1348 31.3674 69.8789 31.7508 69.8789H32.3898C32.7732 69.8789 33.0288 70.1348 33.0288 70.5187C33.0288 70.9025 32.7732 71.1584 32.3898 71.1584H31.7508C31.3674 71.1584 31.1118 70.9025 31.1118 70.5187Z" fill="#D4E4FF"/>
<path d="M26 70.5187C26 70.1348 26.2556 69.8789 26.639 69.8789H27.278C27.6614 69.8789 27.9169 70.1348 27.9169 70.5187C27.9169 70.9025 27.6614 71.1584 27.278 71.1584H26.639C26.2556 71.1584 26 70.9025 26 70.5187Z" fill="#D4E4FF"/>
<path d="M168.514 31.9193C168.131 31.9193 167.875 31.6634 167.875 31.2795V30.6398C167.875 30.2559 168.131 30 168.514 30C168.898 30 169.153 30.2559 169.153 30.6398V31.2795C169.153 31.6634 168.898 31.9193 168.514 31.9193Z" fill="#D4E4FF"/>
<path d="M168.514 37.0375C168.131 37.0375 167.875 36.7816 167.875 36.3977V35.7579C167.875 35.3741 168.131 35.1182 168.514 35.1182C168.898 35.1182 169.153 35.3741 169.153 35.7579V36.3977C169.153 36.7816 168.898 37.0375 168.514 37.0375Z" fill="#D4E4FF"/>
<path d="M170.112 33.5187C170.112 33.1348 170.367 32.8789 170.751 32.8789H171.39C171.773 32.8789 172.029 33.1348 172.029 33.5187C172.029 33.9025 171.773 34.1584 171.39 34.1584H170.751C170.367 34.1584 170.112 33.9025 170.112 33.5187Z" fill="#D4E4FF"/>
<path d="M165 33.5187C165 33.1348 165.256 32.8789 165.639 32.8789H166.278C166.661 32.8789 166.917 33.1348 166.917 33.5187C166.917 33.9025 166.661 34.1584 166.278 34.1584H165.639C165.256 34.1584 165 33.9025 165 33.5187Z" fill="#D4E4FF"/>
<path d="M116.202 28.3569C123.28 28.3569 129.017 22.6195 129.017 15.542C129.017 8.4645 123.28 2.72705 116.202 2.72705C109.125 2.72705 103.387 8.4645 103.387 15.542C103.387 22.6195 109.125 28.3569 116.202 28.3569Z" fill="#57F287"/>
<path d="M130.858 25.6299C137.936 25.6299 143.673 19.8924 143.673 12.8149C143.673 5.73745 137.936 0 130.858 0C123.781 0 118.043 5.73745 118.043 12.8149C118.043 19.8924 123.781 25.6299 130.858 25.6299Z" fill="#57F287"/>
<path d="M139.844 34.9849C146.921 34.9849 152.658 29.2474 152.658 22.1699C152.658 15.0924 146.921 9.35498 139.844 9.35498C132.766 9.35498 127.029 15.0924 127.029 22.1699C127.029 29.2474 132.766 34.9849 139.844 34.9849Z" fill="#57F287"/>
<path d="M65.9739 9.13232H140.507L165.474 50.3758L161.055 60.6867H86.4484L61.555 19.4432L65.9739 9.13232Z" fill="#FF78B9"/>
<path d="M88.9522 9.13232H82.6184C82.7725 9.85298 83.173 10.4974 83.7511 10.9544C84.3292 11.4115 85.0486 11.6527 85.7853 11.6364C86.5186 11.6389 87.2311 11.3926 87.8064 10.9378C88.3816 10.483 88.7856 9.84646 88.9522 9.13232Z" fill="#FFBADB"/>
<path d="M98.6737 17.5293C97.8665 17.5261 97.0678 17.6952 96.3311 18.0255C95.5945 18.3557 94.9368 18.8394 94.4021 19.4442H102.872C102.351 18.8413 101.707 18.358 100.982 18.0275C100.258 17.6969 99.4702 17.527 98.6737 17.5293Z" fill="#FFBADB"/>
<path d="M73.9277 17.5293C73.1204 17.5261 72.3218 17.6952 71.5851 18.0255C70.8484 18.3557 70.1908 18.8394 69.6561 19.4442H78.1257C77.6054 18.8413 76.9608 18.358 76.2362 18.0275C75.5116 17.6969 74.7241 17.527 73.9277 17.5293Z" fill="#FFBADB"/>
<path d="M132.11 9.13232C132.264 9.85298 132.665 10.4974 133.243 10.9544C133.821 11.4115 134.541 11.6527 135.277 11.6364C136.011 11.6389 136.723 11.3926 137.298 10.9378C137.874 10.483 138.278 9.84646 138.444 9.13232H132.11Z" fill="#FFBADB"/>
<path d="M113.698 9.13232H107.364C107.518 9.85298 107.919 10.4974 108.497 10.9544C109.075 11.4115 109.795 11.6527 110.531 11.6364C111.265 11.6389 111.977 11.3926 112.552 10.9378C113.128 10.483 113.532 9.84646 113.698 9.13232Z" fill="#FFBADB"/>
<path d="M123.42 17.5293C122.612 17.5261 121.814 17.6952 121.077 18.0255C120.34 18.3557 119.683 18.8394 119.148 19.4442H127.618C127.097 18.8413 126.453 18.358 125.728 18.0275C125.004 17.6969 124.216 17.527 123.42 17.5293Z" fill="#FFBADB"/>
<path d="M94.476 9.13232H108.101L103.682 19.4432H90.057L94.476 9.13232Z" fill="#57F287"/>
<path d="M61.555 19.4434H136.088L161.055 60.6869H86.4484L61.555 19.4434Z" fill="black"/>
<path d="M140.506 9.13232L136.087 19.4432L161.054 60.6867L165.473 50.3758L140.506 9.13232Z" fill="#EB459F"/>
<path d="M150.155 42.644L153.764 48.6096V47.9468C153.778 46.7996 153.44 45.6757 152.794 44.7272C152.149 43.7787 151.228 43.0515 150.155 42.644Z" fill="#FFBADB"/>
<path d="M161.055 60.6857L162.896 56.4141C162.62 55.8893 162.207 55.4485 161.702 55.1376C161.197 54.8267 160.617 54.6571 160.024 54.6465C159.237 54.6483 158.478 54.9363 157.888 55.4566L161.055 60.6857Z" fill="#FFBADB"/>
<path d="M142.496 23.2003C142.496 23.9416 142.643 24.6755 142.929 25.3594C143.215 26.0434 143.633 26.6637 144.161 27.1845C144.689 27.7052 145.314 28.1159 146.002 28.3929C146.69 28.6698 147.425 28.8074 148.167 28.7976C149.456 28.8116 150.709 28.368 151.702 27.5456L145.883 17.9712C144.87 18.4169 144.009 19.1496 143.407 20.0788C142.805 21.008 142.488 22.0931 142.496 23.2003Z" fill="#FFBADB"/>
<path d="M151.922 27.9126L157.961 38.0025L153.542 48.3134L147.429 38.2235L151.922 27.9126Z" fill="#29CC7A"/>
<path d="M73.9278 27.3242C76.2109 46.7676 85.3434 58.7724 85.3434 58.7724" stroke="#5865F2" stroke-width="19" stroke-miterlimit="10" stroke-linecap="round"/>
<path d="M116.497 28.4297C112.151 32.1122 110.384 32.1122 110.384 32.1122L125.482 32.9959C125.553 32.2828 125.478 31.5628 125.263 30.8792C125.048 30.1956 124.696 29.5628 124.23 29.0189C123.763 28.4685 123.192 28.0163 122.55 27.6884C121.907 27.3604 121.206 27.1633 120.486 27.1085C119.767 27.0537 119.044 27.1423 118.359 27.3691C117.674 27.5959 117.041 27.9564 116.497 28.4297Z" fill="#57F287"/>
<path d="M98.8948 31.3735L115.908 32.4046C115.834 32.4046 113.33 32.11 107.88 25.3343C107.011 24.3198 105.8 23.6598 104.476 23.4796C103.153 23.2993 101.809 23.6114 100.701 24.3565C99.592 25.1016 98.7956 26.2279 98.4627 27.5215C98.1299 28.815 98.2836 30.1858 98.8948 31.3735Z" fill="#29CC7A"/>
<path d="M83.6398 41.9475L85.8454 42.0786C86.3524 42.1087 86.8266 42.339 87.1638 42.7187C87.501 43.0985 87.6735 43.5967 87.6434 44.1036L86.7305 59.4692C86.7154 59.7266 86.6485 59.9782 86.5338 60.2091C86.4191 60.4399 86.259 60.6453 86.063 60.8127C85.867 60.9802 85.6393 61.1064 85.3934 61.1837C85.1474 61.2611 84.8885 61.288 84.6319 61.2628L82.4263 61.1318C81.2174 61.0599 80.0865 60.5108 79.2825 59.6052C78.4784 58.6996 78.0671 57.5117 78.1389 56.3027L78.7373 46.2306C78.8091 45.0217 79.3583 43.8908 80.2639 43.0868C81.1695 42.2827 82.3574 41.8713 83.5663 41.9432L83.6398 41.9475Z" fill="#7196FF"/>
<path d="M128.921 33.206L93.043 31.0744C87.4397 30.7415 82.6275 35.0141 82.2946 40.6174L81.3542 56.4461C81.0213 62.0494 85.2938 66.8617 90.8971 67.1946L126.775 69.3261C132.378 69.659 137.19 65.3865 137.523 59.7832L138.463 43.9544C138.796 38.3511 134.524 33.5389 128.921 33.206Z" fill="#7196FF"/>
<path d="M88.8787 48.2402C90.587 48.2402 91.9719 46.8553 91.9719 45.147C91.9719 43.4386 90.587 42.0537 88.8787 42.0537C87.1703 42.0537 85.7854 43.4386 85.7854 45.147C85.7854 46.8553 87.1703 48.2402 88.8787 48.2402Z" fill="black"/>
<path d="M131.82 44.7993L140.863 45.3366C142.053 45.4072 143.165 45.9475 143.956 46.8385C144.747 47.7295 145.152 48.8983 145.081 50.0877L144.474 60.3069C144.404 61.4963 143.863 62.6089 142.972 63.4C142.081 64.1911 140.913 64.5958 139.723 64.5251L130.68 63.9879L131.82 44.7993Z" fill="#7196FF"/>
<path d="M136.61 47.3022L139.184 47.4551C139.729 47.4876 140.24 47.7356 140.603 48.1445C140.966 48.5535 141.152 49.09 141.12 49.636L140.652 57.5026C140.62 58.0485 140.372 58.5592 139.963 58.9223C139.554 59.2855 139.018 59.4712 138.472 59.4388L135.898 59.2859L136.61 47.3022Z" fill="#B8CDFF"/>
<path d="M123.052 50.5239C124.882 50.5239 126.366 49.0401 126.366 47.2097C126.366 45.3793 124.882 43.8955 123.052 43.8955C121.221 43.8955 119.737 45.3793 119.737 47.2097C119.737 49.0401 121.221 50.5239 123.052 50.5239Z" fill="black"/>
<path d="M94.6128 39.7995L114.022 40.9526C114.447 40.9779 114.862 41.0865 115.245 41.2724C115.628 41.4583 115.971 41.7178 116.253 42.036C116.536 42.3542 116.753 42.725 116.892 43.1271C117.031 43.5292 117.09 43.9549 117.065 44.3797L116.593 52.3198C116.467 54.4451 115.501 56.4333 113.909 57.8468C112.317 59.2604 110.229 59.9836 108.103 59.8573L97.1488 59.2065C96.2316 59.152 95.3341 58.9174 94.5076 58.516C93.6811 58.1147 92.9417 57.5545 92.3316 56.8674C91.7216 56.1803 91.2529 55.3798 90.9522 54.5116C90.6516 53.6433 90.5249 52.7244 90.5794 51.8072L91.1079 42.9113C91.1238 42.4735 91.2283 42.0435 91.4152 41.6472C91.602 41.2509 91.8672 40.8967 92.1948 40.6058C92.5224 40.3149 92.9056 40.0935 93.3212 39.9549C93.7368 39.8164 94.1762 39.7635 94.6128 39.7995Z" fill="#B8CDFF"/>
<path d="M96.6855 55.0149H95.2862C95.099 55.016 94.9136 54.9775 94.7424 54.9019C94.5711 54.8263 94.4178 54.7152 94.2926 54.5761C94.1673 54.4369 94.073 54.2728 94.0158 54.0946C93.9585 53.9163 93.9397 53.728 93.9605 53.5419C93.9593 53.3547 93.9978 53.1694 94.0735 52.9981C94.1491 52.8269 94.2602 52.6736 94.3993 52.5483C94.5385 52.4231 94.7026 52.3287 94.8808 52.2715C95.0591 52.2143 95.2474 52.1954 95.4335 52.2162H96.8328C97.02 52.2151 97.2053 52.2536 97.3766 52.3292C97.5479 52.4048 97.7011 52.5159 97.8264 52.655C97.9516 52.7942 98.046 52.9583 98.1032 53.1365C98.1604 53.3148 98.1793 53.5031 98.1585 53.6892C98.1596 53.8764 98.1211 54.0617 98.0455 54.233C97.9699 54.4043 97.8588 54.5576 97.7197 54.6828C97.5805 54.808 97.4164 54.9024 97.2382 54.9596C97.0599 55.0169 96.8716 55.0357 96.6855 55.0149Z" fill="#7196FF"/>
<path d="M105.818 55.6056L103.167 55.3847C102.979 55.3858 102.794 55.3473 102.623 55.2717C102.451 55.1961 102.298 55.085 102.173 54.9459C102.048 54.8067 101.953 54.6426 101.896 54.4644C101.839 54.2861 101.82 54.0978 101.841 53.9117C101.85 53.7279 101.896 53.5477 101.975 53.3815C102.054 53.2153 102.165 53.0664 102.302 52.9432C102.439 52.8201 102.599 52.7251 102.772 52.6638C102.946 52.6025 103.13 52.5761 103.314 52.586L105.965 52.7333C106.149 52.7427 106.329 52.7883 106.495 52.8675C106.662 52.9467 106.811 53.0579 106.934 53.1947C107.057 53.3315 107.152 53.4913 107.213 53.6649C107.274 53.8385 107.301 54.0225 107.291 54.2063C107.256 54.5781 107.087 54.9246 106.816 55.1818C106.546 55.439 106.191 55.5895 105.818 55.6056Z" fill="#7196FF"/>
<path d="M152.88 54.4258H55V109.574H152.88V54.4258Z" fill="url(#paint0_linear_2624_17353)"/>
<path d="M152.806 54.4258H128.649V109.574H152.806V54.4258Z" fill="#EB459F"/>
<path d="M99.1157 82.9299C102.248 82.9299 104.787 80.3909 104.787 77.2589C104.787 74.1269 102.248 71.5879 99.1157 71.5879C95.9837 71.5879 93.4447 74.1269 93.4447 77.2589C93.4447 80.3909 95.9837 82.9299 99.1157 82.9299Z" fill="#FFBADB"/>
<path d="M110.974 83.9593C110.312 83.9448 109.661 84.1286 109.105 84.4871C108.549 84.8456 108.113 85.3623 107.853 85.9708C107.593 86.5793 107.521 87.2517 107.647 87.9014C107.772 88.5511 108.089 89.1483 108.557 89.6162C109.025 90.0841 109.623 90.4012 110.272 90.5267C110.922 90.6523 111.594 90.5804 112.203 90.3205C112.811 90.0606 113.328 89.6245 113.687 89.0683C114.045 88.5121 114.229 87.8614 114.214 87.1999C114.214 86.7743 114.13 86.3529 113.968 85.9597C113.805 85.5666 113.566 85.2094 113.265 84.9084C112.964 84.6075 112.607 84.3688 112.214 84.206C111.821 84.0431 111.399 83.9593 110.974 83.9593Z" fill="#FFBADB"/>
<path d="M110.973 59.2139C110.114 59.2139 109.289 59.5553 108.682 60.163C108.074 60.7707 107.732 61.595 107.732 62.4544C107.732 63.3139 108.074 64.1381 108.682 64.7458C109.289 65.3536 110.114 65.695 110.973 65.695C111.832 65.695 112.657 65.3536 113.264 64.7458C113.872 64.1381 114.214 63.3139 114.214 62.4544C114.214 61.595 113.872 60.7707 113.264 60.163C112.657 59.5553 111.832 59.2139 110.973 59.2139Z" fill="#FFBADB"/>
<path d="M99.1157 107.674C102.248 107.674 104.787 105.135 104.787 102.003C104.787 98.8715 102.248 96.3325 99.1157 96.3325C95.9837 96.3325 93.4447 98.8715 93.4447 102.003C93.4447 105.135 95.9837 107.674 99.1157 107.674Z" fill="#FFBADB"/>
<path d="M99.1152 58.1092C100.269 58.1075 101.394 57.7542 102.342 57.0962C103.289 56.4383 104.013 55.507 104.418 54.4268H93.8125C94.217 55.507 94.9413 56.4383 95.8887 57.0962C96.8362 57.7542 97.9617 58.1075 99.1152 58.1092Z" fill="#FFBADB"/>
<path d="M86.2269 65.695C88.0166 65.695 89.4674 64.2441 89.4674 62.4544C89.4674 60.6647 88.0166 59.2139 86.2269 59.2139C84.4372 59.2139 82.9863 60.6647 82.9863 62.4544C82.9863 64.2441 84.4372 65.695 86.2269 65.695Z" fill="#FFBADB"/>
<path d="M86.2269 90.4411C88.0166 90.4411 89.4674 88.9902 89.4674 87.2005C89.4674 85.4108 88.0166 83.96 86.2269 83.96C84.4372 83.96 82.9863 85.4108 82.9863 87.2005C82.9863 88.9902 84.4372 90.4411 86.2269 90.4411Z" fill="#FFBADB"/>
<path d="M123.862 58.1092C125.015 58.1075 126.141 57.7542 127.088 57.0962C128.036 56.4383 128.76 55.507 129.165 54.4268H118.559C118.964 55.507 119.688 56.4383 120.635 57.0962C121.583 57.7542 122.708 58.1075 123.862 58.1092Z" fill="#FFBADB"/>
<path d="M135.719 65.695C137.509 65.695 138.96 64.2441 138.96 62.4544C138.96 60.6647 137.509 59.2139 135.719 59.2139C133.929 59.2139 132.478 60.6647 132.478 62.4544C132.478 64.2441 133.929 65.695 135.719 65.695Z" fill="#FFBADB"/>
<path d="M148.608 58.1092C149.415 58.1125 150.214 57.9433 150.951 57.6131C151.687 57.2829 152.345 56.7992 152.88 56.1943V54.4268H143.305C143.71 55.507 144.434 56.4383 145.381 57.0962C146.329 57.7542 147.454 58.1076 148.608 58.1092Z" fill="#FFBADB"/>
<path d="M135.719 90.4411C137.509 90.4411 138.96 88.9902 138.96 87.2005C138.96 85.4108 137.509 83.96 135.719 83.96C133.929 83.96 132.478 85.4108 132.478 87.2005C132.478 88.9902 133.929 90.4411 135.719 90.4411Z" fill="#FFBADB"/>
<path d="M125.167 82.7366C128.215 82.0161 130.101 78.9611 129.381 75.9131C128.66 72.8651 125.605 70.9783 122.557 71.6988C119.509 72.4193 117.623 75.4743 118.343 78.5223C119.064 81.5703 122.119 83.4571 125.167 82.7366Z" fill="#FFBADB"/>
<path d="M127.87 105.99C130.084 103.775 130.084 100.185 127.87 97.97C125.655 95.7553 122.064 95.7553 119.85 97.97C117.635 100.185 117.635 103.775 119.85 105.99C122.064 108.205 125.655 108.205 127.87 105.99Z" fill="#FFBADB"/>
<path d="M55 75.4902V78.9517C55.1756 78.4033 55.2748 77.8333 55.2946 77.2578C55.2742 76.6583 55.1752 76.064 55 75.4902V75.4902Z" fill="#FFBADB"/>
<path d="M110.973 108.707C110.153 108.717 109.365 109.032 108.764 109.59H113.183C112.581 109.032 111.794 108.717 110.973 108.707Z" fill="#FFBADB"/>
<path d="M74.3696 71.5879C73.248 71.5879 72.1516 71.9205 71.219 72.5436C70.2864 73.1668 69.5595 74.0524 69.1303 75.0887C68.7011 76.1249 68.5888 77.2652 68.8076 78.3652C69.0264 79.4653 69.5665 80.4758 70.3596 81.2689C71.1527 82.062 72.1632 82.6021 73.2632 82.8209C74.3633 83.0397 75.5035 82.9274 76.5398 82.4982C77.576 82.069 78.4617 81.3421 79.0848 80.4095C79.708 79.4769 80.0406 78.3805 80.0406 77.2589C80.0406 75.7548 79.4431 74.3124 78.3796 73.2489C77.3161 72.1854 75.8736 71.5879 74.3696 71.5879Z" fill="#FFBADB"/>
<path d="M135.719 108.707C134.899 108.717 134.111 109.032 133.51 109.59H137.929C137.327 109.032 136.54 108.717 135.719 108.707Z" fill="#FFBADB"/>
<path d="M61.4811 108.707C60.6606 108.717 59.8734 109.032 59.2717 109.59H63.6906C63.0817 109.044 62.2989 108.731 61.4811 108.707Z" fill="#FFBADB"/>
<path d="M148.608 96.3326C147.225 96.491 145.948 97.1527 145.021 98.1917C144.095 99.2308 143.582 100.574 143.582 101.967C143.582 103.359 144.095 104.703 145.021 105.742C145.948 106.781 147.225 107.442 148.608 107.601C149.408 107.6 150.199 107.436 150.933 107.12C151.668 106.803 152.33 106.34 152.88 105.76V98.2474C152.345 97.6426 151.687 97.1589 150.951 96.8287C150.214 96.4984 149.415 96.3293 148.608 96.3326Z" fill="#FFBADB"/>
<path d="M148.608 71.5879C147.225 71.7463 145.948 72.4081 145.021 73.4471C144.095 74.4861 143.582 75.8298 143.582 77.2221C143.582 78.6144 144.095 79.9581 145.021 80.9971C145.948 82.0361 147.225 82.6978 148.608 82.8562C149.415 82.8595 150.214 82.6904 150.951 82.3601C151.687 82.0299 152.345 81.5462 152.88 80.9414V73.5028C152.345 72.898 151.687 72.4143 150.951 72.084C150.214 71.7538 149.415 71.5847 148.608 71.5879Z" fill="#FFBADB"/>
<path d="M86.2272 108.707C85.4067 108.717 84.6194 109.032 84.0177 109.59H88.4366C87.835 109.032 87.0477 108.717 86.2272 108.707Z" fill="#FFBADB"/>
<path d="M74.3693 58.1092C75.5228 58.1075 76.6483 57.7542 77.5958 57.0962C78.5432 56.4383 79.2675 55.507 79.672 54.4268H69.0665C69.471 55.507 70.1953 56.4383 71.1427 57.0962C72.0902 57.7542 73.2158 58.1075 74.3693 58.1092Z" fill="#FFBADB"/>
<path d="M74.3696 96.3325C73.248 96.3325 72.1516 96.6651 71.219 97.2883C70.2864 97.9114 69.5595 98.7971 69.1303 99.8333C68.7011 100.87 68.5888 102.01 68.8076 103.11C69.0264 104.21 69.5665 105.22 70.3596 106.013C71.1527 106.807 72.1632 107.347 73.2632 107.566C74.3633 107.784 75.5035 107.672 76.5398 107.243C77.576 106.814 78.4617 106.087 79.0848 105.154C79.708 104.222 80.0406 103.125 80.0406 102.003C80.0406 100.499 79.4431 99.057 78.3796 97.9935C77.3161 96.93 75.8736 96.3325 74.3696 96.3325Z" fill="#FFBADB"/>
<path d="M61.4809 65.695C63.2706 65.695 64.7214 64.2441 64.7214 62.4544C64.7214 60.6647 63.2706 59.2139 61.4809 59.2139C59.6911 59.2139 58.2403 60.6647 58.2403 62.4544C58.2403 64.2441 59.6911 65.695 61.4809 65.695Z" fill="#FFBADB"/>
<path d="M61.4809 90.4411C63.2706 90.4411 64.7214 88.9902 64.7214 87.2005C64.7214 85.4108 63.2706 83.96 61.4809 83.96C59.6911 83.96 58.2403 85.4108 58.2403 87.2005C58.2403 88.9902 59.6911 90.4411 61.4809 90.4411Z" fill="#FFBADB"/>
<path d="M55 100.238V103.699C55.1756 103.151 55.2748 102.581 55.2946 102.005C55.2742 101.406 55.1752 100.812 55 100.238V100.238Z" fill="#FFBADB"/>
<path d="M98.8946 54.4258H84.9013V109.574H98.8946V54.4258Z" fill="#57F287"/>
<path d="M146.251 54.4258H139.549V109.574H146.251V54.4258Z" fill="#29CC7A"/>
<path d="M154.868 32.1125L154.721 31.8179L154.868 32.1125Z" fill="#C5ECFF"/>
<defs>
<linearGradient id="paint0_linear_2624_17353" x1="103.925" y1="109.479" x2="103.925" y2="56.3038" gradientUnits="userSpaceOnUse">
<stop stop-color="#EB459F"/>
<stop offset="1" stop-color="#FF78B9"/>
</linearGradient>
</defs>
</svg>
