<svg width="41" height="27" viewBox="0 0 41 27" fill="none" xmlns="http://www.w3.org/2000/svg">
<path d="M20.5126 0.808594L14.333 7.03585V15.7992L20.5126 22.0013L26.6922 15.7741V7.03585L20.5126 0.808594ZM23.6024 14.4935L20.5126 17.6071L17.4228 14.4935V8.31646L20.5126 5.20282L23.6024 8.31646V14.4935Z" fill="#FA6EF6"/>
<path d="M20.5117 0.808594V5.20282L23.6015 8.31646L26.6913 7.03585L20.5117 0.808594Z" fill="#FFADFB"/>
<path d="M17.4228 14.4932L14.333 15.7989L20.5126 22.001V17.6068L17.4228 14.4932Z" fill="#E655D4"/>
<path d="M17.4224 8.31726V14.4943L20.5121 17.6079L23.602 14.4943V8.31726L20.5121 5.20361L17.4224 8.31726Z" fill="#FFCFF9"/>
<path d="M23.602 8.31714V8.34224L17.4473 14.5192H17.4224V12.8369L22.7547 7.46338L23.602 8.31714Z" fill="white"/>
<path d="M23.6022 10.6531V12.3605L19.4658 16.5539L18.6187 15.675L23.6022 10.6531Z" fill="white"/>
<path d="M15.4296 4.92772L14.4329 5.40481C14.3083 5.48014 14.1338 5.40481 14.0591 5.27926C14.0342 5.20393 14.0342 5.10349 14.0591 5.02816L14.5326 4.02377C14.5824 3.94844 14.5824 3.848 14.5326 3.77267L14.0591 2.76828C13.9844 2.61761 14.0591 2.46696 14.1837 2.39163C14.2585 2.36652 14.3332 2.36652 14.4079 2.39163L15.4047 2.86871C15.4794 2.91893 15.5791 2.91893 15.6538 2.86871L16.6505 2.39163C16.8001 2.3163 16.9496 2.39163 17.0243 2.51717C17.0493 2.5925 17.0493 2.66784 17.0243 2.74317L16.5509 3.74756C16.5011 3.82289 16.5011 3.92333 16.5509 3.99866L17.0243 5.00305C17.0991 5.1286 17.0243 5.30437 16.8997 5.3797C16.825 5.40481 16.7253 5.40481 16.6505 5.3797L15.6538 4.90261C15.604 4.8775 15.5043 4.8775 15.4296 4.92772Z" fill="#FFCFF9"/>
<path d="M31.401 10.2512C32.1735 9.92474 33.0456 10.3014 33.3446 11.0547L35.8613 17.2066L33.0954 18.3617L30.5788 12.2349C30.2548 11.4565 30.6286 10.5776 31.401 10.2512Z" fill="#AEC7FF"/>
<path d="M33.6182 4.60176C34.3906 4.27534 35.2628 4.65198 35.5618 5.40528L38.3276 12.1096L35.5618 13.2647L32.8208 6.58545C32.4969 5.80704 32.8707 4.92819 33.6182 4.60176Z" fill="#AEC7FF"/>
<path d="M31.7505 7.16208C32.523 6.83563 33.3951 7.21228 33.6941 7.96559L36.2357 14.1175L33.4698 15.2725L30.9531 9.14575C30.6292 8.36734 31.003 7.48848 31.7505 7.16208Z" fill="#AEC7FF"/>
<path d="M34.8637 14.6937L33.4683 15.2712L31.4001 10.2493C31.2755 10.2995 31.151 10.3748 31.0513 10.4501L33.0945 15.4219C33.1693 15.5725 33.2939 15.673 33.4683 15.673C33.5181 15.673 33.568 15.673 33.6178 15.6479L35.0132 15.0704L34.8637 14.6937Z" fill="#7196FF"/>
<path d="M35.8614 13.1627L35.5873 13.2882L33.0955 7.23679C32.946 7.13634 32.7716 7.08609 32.5723 7.03589L35.2135 13.4389C35.2883 13.5895 35.4129 13.69 35.5873 13.69C35.6371 13.69 35.687 13.69 35.7368 13.6649L36.0109 13.5393L35.8614 13.1627Z" fill="#7196FF"/>
<path d="M37.1825 21.3232H27.938V24.1858H37.1825V21.3232Z" fill="#EBF0F7"/>
<path d="M38.1294 11.7073C38.7026 12.2849 38.7026 13.239 38.1294 13.8417L33.8436 18.1606L31.7256 16.0262L36.0114 11.7073C36.6094 11.1298 37.5564 11.1298 38.1294 11.7073Z" fill="#D9E8FC"/>
<path d="M39.4247 5.22803C40.247 5.22803 40.9198 5.906 40.9198 6.7346V12.2588H37.9297V6.7346C37.9297 5.906 38.5775 5.22803 39.4247 5.22803Z" fill="#D9E8FC"/>
<path d="M27.938 24.1617V21.3243C27.938 18.6375 29.5576 16.2018 32.0245 15.1723L34.915 13.967L37.1825 19.5163V24.1617H27.938Z" fill="#D9E8FC"/>
<path d="M39.9987 16.5272L38.3541 19.3395C37.6065 20.6452 37.2079 22.1016 37.2079 23.6082V24.1606H27.9634L37.9305 14.0664V9.87305H40.9206V13.0871C40.8957 14.2924 40.5967 15.4725 39.9987 16.5272Z" fill="#D9E8FC"/>
<path d="M38.4041 11.4556C37.6566 10.7023 36.4854 10.7023 35.7379 11.4556L36.012 11.7318C36.61 11.1292 37.5569 11.1543 38.13 11.7318C38.728 12.3345 38.7031 13.2886 38.13 13.8662L35.6133 16.4022C35.5884 16.4273 35.5635 16.4776 35.5635 16.5278V18.7124C35.5635 18.8128 35.6382 18.9132 35.7379 18.9132C35.8376 18.9132 35.9373 18.8379 35.9373 18.7375C35.9373 18.7375 35.9373 18.7375 35.9373 18.7124V16.6282L38.3792 14.1675C39.1517 13.3891 39.1517 12.1838 38.4041 11.4556Z" fill="#AEC7FF"/>
<path d="M27.938 22.4023V23.1556L35.6874 24.16H37.1825V23.6076L27.938 22.4023Z" fill="#AEC7FF"/>
<path d="M27.9369 22.8294L37.2064 24.0347C37.9539 24.1351 38.502 24.8382 38.4024 25.5915C38.3027 26.3448 37.605 26.8972 36.8575 26.7968L27.5881 25.5915C26.8406 25.4911 26.2924 24.788 26.3921 24.0347C26.4668 23.2814 27.1645 22.729 27.9369 22.8294Z" fill="#D9E8FC"/>
<path d="M7.90406 18.3603L5.13818 17.2053L7.65488 11.0785C7.97878 10.3 8.85092 9.94855 9.59846 10.2749C10.3709 10.6014 10.7197 11.4803 10.3958 12.2335L7.90406 18.3603Z" fill="#AEC7FF"/>
<path d="M5.46163 13.2885L2.6958 12.1334L5.46163 5.42906C5.78557 4.65065 6.65772 4.29912 7.4052 4.62554C8.17766 4.95197 8.52653 5.8308 8.20258 6.58411L5.46163 13.2885Z" fill="#AEC7FF"/>
<path d="M7.55592 15.2709L4.79004 14.1159L7.30674 7.96395C7.63068 7.18555 8.50278 6.83404 9.25031 7.16045C10.0228 7.4869 10.3716 8.36571 10.0477 9.11901L7.55592 15.2709Z" fill="#AEC7FF"/>
<path d="M9.97169 10.4501C9.87199 10.3748 9.74743 10.2995 9.62282 10.2493L7.55468 15.2712L6.15925 14.6937L6.00977 15.0704L7.40514 15.6479C7.45499 15.673 7.50483 15.673 7.55468 15.673C7.72909 15.673 7.8537 15.5725 7.92842 15.4219L9.97169 10.4501Z" fill="#7196FF"/>
<path d="M7.92908 7.26242L5.43731 13.3139L5.16321 13.1884L5.01367 13.565L5.28777 13.6905C5.33762 13.7157 5.38746 13.7157 5.43731 13.7157C5.61172 13.7157 5.73628 13.6152 5.81105 13.4646L8.42744 7.08667C8.25298 7.08667 8.07857 7.16197 7.92908 7.26242Z" fill="#7196FF"/>
<path d="M13.0867 21.2979H3.84229V24.1604H13.0867V21.2979Z" fill="#EBF0F7"/>
<path d="M9.27409 16.026L7.15611 18.1603L2.89516 13.8666C2.32205 13.289 2.32205 12.3348 2.89516 11.7322C3.46829 11.1547 4.41515 11.1547 5.01315 11.7322L9.27409 16.026Z" fill="#D9E8FC"/>
<path d="M3.12002 12.2588H0.10498V6.7346C0.10498 5.906 0.777755 5.22803 1.60004 5.22803C2.42233 5.22803 3.0951 5.906 3.0951 6.7346L3.12002 12.2588Z" fill="#D9E8FC"/>
<path d="M13.0867 24.1617V21.3243C13.0867 18.6375 11.4671 16.2018 9.00025 15.1723L6.10981 13.967L3.84229 19.5163V24.1617H13.0867Z" fill="#D9E8FC"/>
<path d="M1.02646 16.5272L2.67103 19.3395C3.41856 20.6452 3.81727 22.1016 3.81727 23.6082V24.1606H13.0617L3.09461 14.0664V9.87305H0.0795898V13.0871C0.104508 14.2924 0.428439 15.4725 1.02646 16.5272Z" fill="#D9E8FC"/>
<path d="M2.62154 11.4556C3.34416 10.7023 4.54021 10.7023 5.28774 11.4556L5.01364 11.7318C4.41559 11.1292 3.46873 11.1543 2.89565 11.7318C2.29761 12.3345 2.32253 13.2886 2.89565 13.8662L5.4123 16.4022C5.43722 16.4273 5.46215 16.4776 5.46215 16.5278V18.7124C5.46215 18.8128 5.38738 18.9132 5.28774 18.9132C5.18805 18.9132 5.08841 18.8379 5.08841 18.7375C5.08841 18.7375 5.08841 18.7375 5.08841 18.7124V16.6282L2.64646 14.1675C1.87401 13.3891 1.87401 12.1838 2.62154 11.4556Z" fill="#AEC7FF"/>
<path d="M13.0867 22.4023V23.1556L5.33735 24.16H3.84229V23.6076L13.0867 22.4023Z" fill="#AEC7FF"/>
<path d="M13.4598 25.5915L4.19041 26.7968C3.44287 26.8972 2.74519 26.3448 2.6455 25.5915C2.54584 24.8382 3.09401 24.1351 3.84154 24.0347L13.111 22.8294C13.8585 22.729 14.5562 23.2814 14.6559 24.0347C14.7555 24.8131 14.2073 25.5162 13.4598 25.5915Z" fill="#D9E8FC"/>
</svg>
