<svg fill="none" height="128" viewBox="0 0 235 128" width="235" xmlns="http://www.w3.org/2000/svg" xmlns:xlink="http://www.w3.org/1999/xlink"><clipPath id="a"><path d="m0 0h234.182v128h-234.182z"/></clipPath><g clip-path="url(#a)"><path d="m0 121.891c0-16.218 13.0909-29.3094 29.3091-29.3094h3.4909c1.9636 0 3.4909-1.6 3.4909-3.4909v-40c.0727-13.0909 10.6182-23.6364 23.6364-23.6364h96.7997c13.018 0 23.564 10.5455 23.564 23.5637v3.2727c0 2.6909 2.182 4.8727 4.873 4.8727h16.363c17.964 0 32.582 22.5455 32.582 40.5819v24.0727h-234.109z" fill="#aec7ff" opacity=".2"/><path d="m115.055 127.854c32.145 0 58.181-26.036 58.181-58.1815 0-32.1454-26.036-58.1818-58.181-58.1818-32.1459 0-58.1823 26.0364-58.1823 58.1818 0 32.1455 26.0364 58.1815 58.1823 58.1815z" fill="#3e70dd"/><path d="m164.8 43.9999 47.055-8.2909-14.546 19.2c-2.836 3.7818-6.982 6.2545-11.636 7.1273l-33.091 5.8181-.946-5.1636z" fill="#dae2ed"/><path d="m150.4 39.1998 69.6-12.2909c.582-.0727 1.018.5818.655 1.0182l-4.437 6.0363c-.509.6546-1.236 1.1637-2.109 1.3091l-2.254.3637-47.055 8.2909-13.018 18.6182.945 5.1636.655 3.8545-14.691 21.0182-8.218-16.9454-1.6-9.0182 17.382-24.8c.872-1.3091 2.4-2.2546 4.145-2.6182z" fill="#eceff6"/><path d="m151.709 62.6181 13.091-18.6182 47.055-8.2909-2.91 3.8545-42.327 7.4909-12.073 17.2364.51 3.1273-2.4.4363z" fill="#c5cedd"/><path d="m211.2 34.4c1.236 0 2.182-.9454 2.182-2.1818s-.946-2.1818-2.182-2.1818-2.182.9454-2.182 2.1818.946 2.1818 2.182 2.1818z" fill="#dae2ed"/><path d="m155.927 49.9635c1.237 0 2.182-.9455 2.182-2.1818 0-1.2364-.945-2.1818-2.182-2.1818-1.236 0-2.182.9454-2.182 2.1818 0 1.2363.946 2.1818 2.182 2.1818z" fill="#dae2ed"/><path d="m151.782 55.8546c1.236 0 2.182-.9455 2.182-2.1818 0-1.2364-.946-2.1818-2.182-2.1818-1.237 0-2.182.9454-2.182 2.1818 0 1.2363.945 2.1818 2.182 2.1818z" fill="#dae2ed"/><path d="m65.3818 43.9999-47.0545-8.2909 14.5454 19.2c2.8364 3.7818 6.9818 6.2545 11.6364 7.1273l33.0909 5.8181.9455-5.1636z" fill="#dae2ed"/><path d="m79.7818 39.1998-69.6-12.2181c-.58181-.0728-1.01817.5818-.65453 1.0181l4.43633 6.0364c.5091.6545 1.2364 1.1636 2.1091 1.3091l2.2546.3636 47.0545 8.2909 13.0182 18.6182-.9455 5.1637-.6545 3.8545 14.6909 21.0182 8.2182-16.9455 1.5999-9.0182-17.3817-24.8c-.8727-1.3818-2.4-2.3272-4.1455-2.6909z" fill="#eceff6"/><path d="m78.4 62.6181-13.0182-18.6182-47.0545-8.2909 2.9091 3.8545 42.2545 7.4909 12.1455 17.2364-.5818 3.1273 2.4727.4363z" fill="#c5cedd"/><path d="m18.9818 34.4c1.2364 0 2.1818-.9454 2.1818-2.1818s-.9454-2.1818-2.1818-2.1818-2.1818.9454-2.1818 2.1818.9454 2.1818 2.1818 2.1818z" fill="#dae2ed"/><path d="m74.2546 49.9635c1.2363 0 2.1818-.9455 2.1818-2.1818 0-1.2364-.9455-2.1818-2.1818-2.1818-1.2364 0-2.1818.9454-2.1818 2.1818 0 1.2363.9454 2.1818 2.1818 2.1818z" fill="#dae2ed"/><path d="m78.4 55.8546c1.2364 0 2.1818-.9455 2.1818-2.1818 0-1.2364-.9454-2.1818-2.1818-2.1818-1.2363 0-2.1818.9454-2.1818 2.1818 0 1.2363.9455 2.1818 2.1818 2.1818z" fill="#dae2ed"/><path d="m51.5636 6.25443-1.8181 3.85457c-.4364.8727.5091 1.8182 1.3818 1.3818l3.8545-1.81819c.2909-.14546.6546-.14546.9455 0l3.8545 1.81819c.8728.4364 1.8182-.5091 1.3818-1.3818l-1.8181-3.85457c-.1455-.29091-.1455-.65455 0-.94546l1.7454-3.78181c.4364-.872732-.5091-1.818186-1.3818-1.381823l-3.8545 1.818183c-.291.14545-.6546.14545-.9455 0l-3.8545-1.818183c-.8728-.436363-1.8182.509091-1.3819 1.381823l1.8182 3.85454c.2182.29091.2182.58182.0727.87273z" fill="#aec7ff"/><path d="m183.418 101.454-1.818 3.855c-.436.873.509 1.818 1.382 1.382l3.854-1.818c.291-.146.655-.146.946 0l3.854 1.818c.873.436 1.819-.509 1.382-1.382l-1.818-3.855c-.145-.291-.145-.654 0-.945l1.818-3.8547c.437-.8727-.509-1.8181-1.382-1.3818l-3.854 1.8182c-.291.1455-.655.1455-.946 0l-3.854-1.8182c-.873-.4363-1.818.5091-1.382 1.3818l1.818 3.8547c.146.291.146.654 0 .945z" fill="#7196ff"/><g fill="#aec7ff"><path d="m205.6 75.4908c-.8 0-1.455-.6545-1.455-1.4545v-1.4546c0-.8.655-1.4545 1.455-1.4545s1.455.6545 1.455 1.4545v1.4546c0 .8-.655 1.4545-1.455 1.4545z"/><path d="m205.6 87.1273c-.8 0-1.455-.6545-1.455-1.4545v-1.4546c0-.8.655-1.4545 1.455-1.4545s1.455.6545 1.455 1.4545v1.4546c0 .8-.655 1.4545-1.455 1.4545z"/><path d="m209.236 79.1272c0-.8.655-1.4546 1.455-1.4546h1.454c.8 0 1.455.6546 1.455 1.4546s-.655 1.4545-1.455 1.4545h-1.454c-.8 0-1.455-.6545-1.455-1.4545z"/><path d="m197.6 79.1272c0-.8.655-1.4546 1.455-1.4546h1.454c.8 0 1.455.6546 1.455 1.4546s-.655 1.4545-1.455 1.4545h-1.454c-.8 0-1.455-.6545-1.455-1.4545z"/></g><path d="m10.9818 70.4c-.8 0-1.45452-.6545-1.45452-1.4545v-1.4546c0-.8.65452-1.4545 1.45452-1.4545s1.4546.6545 1.4546 1.4545v1.4546c0 .8-.6546 1.4545-1.4546 1.4545z" fill="#3e70dd"/><path d="m10.9818 82.0362c-.8 0-1.45452-.6545-1.45452-1.4545v-1.4545c0-.8.65452-1.4546 1.45452-1.4546s1.4546.6546 1.4546 1.4546v1.4545c0 .8-.6546 1.4545-1.4546 1.4545z" fill="#3e70dd"/><path d="m14.6182 74.0363c0-.8.6545-1.4545 1.4545-1.4545h1.4546c.8 0 1.4545.6545 1.4545 1.4545s-.6545 1.4546-1.4545 1.4546h-1.4546c-.8 0-1.4545-.6546-1.4545-1.4546z" fill="#3e70dd"/><path d="m2.98181 74.0363c0-.8.65455-1.4545 1.45455-1.4545h1.45454c.8 0 1.45455.6545 1.45455 1.4545s-.65455 1.4546-1.45455 1.4546h-1.45454c-.8 0-1.45455-.6546-1.45455-1.4546z" fill="#3e70dd"/><path d="m114.909 18.3999-29.9636 29.9636v42.1818l29.9636 29.9637 29.964-29.9637v-42.1818zm15.055 65.8182-15.055 15.0545-14.9818-14.9818v-29.8182l14.9818-14.9091 14.982 14.9819z" fill="#fa6ef6"/><path d="m114.909 18.3999v21.1636l14.982 14.9819 14.982-6.2546z" fill="#ffadfb"/><path d="m99.9272 84.2908-14.9818 6.1818 29.9636 29.9634v-21.1634z" fill="#e655d4"/><path d="m99.9272 54.5453v29.7454l14.9818 14.9819 14.982-14.9819v-29.7454l-14.982-14.9818z" fill="#ffcff9"/><path d="m129.891 54.5451v.0728l-29.891 29.7454h-.0728v-8.0727l25.8908-25.8182z" fill="#fff"/><path d="m129.891 65.8181v8.2182l-20.073 20.0727-4.145-4.1454z" fill="#fff"/></g></svg>