<svg width="660" height="190" viewBox="0 0 660 190" fill="none" xmlns="http://www.w3.org/2000/svg">
<g clip-path="url(#clip0_206_9924)">
<g opacity="0.2">
<path opacity="0.6" d="M811.203 277.439L810.163 279.6L810.082 280.08L810.243 280L810.603 280.72L810.763 280.881L811.203 281.081L810.763 281.521L810.683 282.121L810.883 283.802V284.682L810.763 285.443L810.563 286.123L809.962 287.404L809.802 287.644L809.522 287.924L809.242 288.044L808.522 288.164H808.402L808.122 288.724L807.801 290.085L807.721 290.005L806.321 289.364L805.801 288.564L805.24 288.164L804.64 287.844L801.078 286.843L799.918 287.003L798.797 287.404L798.477 287.684L798.277 288.044V288.244L798.397 288.484L798.517 289.404L798.837 289.885L798.917 290.325L798.837 290.845L798.397 291.805L798.237 292.286L798.157 292.766L798.237 294.206L798.157 294.727L797.997 295.087L797.837 295.367L797.757 295.647L797.557 296.728L797.077 297.528L793.715 300.449L792.555 301.09L787.833 301.93L784.271 303.331L783.711 303.731L782.43 304.971L781.31 305.572L780.789 306.012V306.132L778.949 306.492L778.428 306.772L778.108 307.132L777.468 308.133L777.028 308.653L775.667 309.613L775.547 309.773L775.067 310.534L774.867 310.614H774.627L774.427 310.694L774.227 311.054L774.146 311.734L774.307 312.415L774.627 313.015L774.947 313.535L777.348 316.056L777.868 317.177L777.948 317.737V317.817L778.148 318.337L778.428 318.737L779.229 319.218L779.909 319.938L780.189 320.098L780.749 320.658L781.91 323.339L782.63 324.46L782.79 324.62L780.589 328.142L780.389 328.542L780.309 328.862V329.182L780.229 329.502L780.029 329.862L779.389 330.863L779.949 331.423L781.87 331.783L782.39 331.703L783.271 331.303L783.791 331.383L784.231 331.703L784.631 332.223L785.311 333.384L785.592 334.104L785.672 334.745V335.345L785.592 335.945L785.512 336.065L785.111 337.066V337.226L784.551 337.946H784.471V339.066H784.551V339.107L784.231 339.907L784.151 340.027V341.227L784.271 341.508L784.391 341.748L784.471 342.068V342.468L783.511 343.629L783.271 343.829H782.91L782.71 343.709L782.51 343.508L782.19 343.348H781.83L781.55 343.508L781.27 343.629L780.909 343.468L779.229 342.188L777.668 340.467L777.388 340.227L777.068 340.107L776.548 340.027L775.707 339.347L775.507 338.106L775.907 336.945L776.828 336.465L776.147 335.825L775.267 335.225L774.747 334.584L775.107 333.704L774.507 333.784L772.586 333.304H771.385L770.185 333.584L769.544 333.904L768.344 334.985L768.024 335.265L767.504 335.505L766.783 335.665H766.063L765.583 335.425L764.582 334.625L764.302 334.304L764.102 333.904L763.742 332.824L763.582 332.544L763.021 332.424L761.661 332.944L761.101 333.024L759.14 332.584L758.38 332.704L757.619 333.104H757.259L756.939 332.864L756.739 332.304L756.859 331.943L757.059 331.623L757.179 331.223L757.259 330.703L757.379 330.463H757.299L756.819 330.703L756.539 330.903L755.698 331.583L755.138 331.783L755.218 332.184L755.338 332.464L755.578 332.784L755.858 333.064L756.018 333.184L756.098 333.464V334.825V335.305L755.978 335.625L755.018 336.866H754.738L746.894 336.585L744.013 337.186L743.613 337.426L743.253 338.266L742.892 338.386L740.972 337.986H738.17L736.69 337.666H736.049L735.929 337.786L734.969 338.626L734.729 339.147L734.449 340.307L734.289 340.787L733.648 341.468L732.888 341.748L731.287 342.028L730.527 341.788L729.687 341.668L728.926 341.868L727.326 343.709L727.766 343.829L728.126 344.069L728.246 344.429L727.966 344.949L727.406 345.189H725.925L725.285 345.429L724.604 346.03L724.164 346.63L723.684 347.15L722.924 347.51L722.083 347.43L722.163 346.07L721.443 345.79L720.563 346.03L718.322 347.59L717.641 347.79H714.08L713.6 347.47L713.239 346.79H713.319L713.439 346.55L713.519 346.19V345.87L713.399 345.629L711.679 343.789L709.918 342.988L709.678 342.588L710.798 341.828L711.078 341.468L710.278 340.867L709.918 340.667H709.438L708.957 340.787L707.597 341.428L706.596 341.548L706.316 341.468L706.156 341.227L706.036 340.987L705.916 340.827L701.394 339.107H700.554L700.073 339.427L699.393 340.387L698.953 340.747L698.553 340.827L697.112 340.587L696.592 340.347L696.312 340.147L696.112 339.907L696.032 339.467L696.152 339.147L696.312 338.906V338.706L696.192 338.226L696.072 338.146L695.792 338.266L695.231 338.386L694.711 338.586V339.027L695.071 339.587L695.311 340.147V340.627L694.911 342.628L695.391 342.908L695.671 343.228L695.872 343.669L696.032 344.309V345.389L695.712 346.51L695.231 347.51L694.671 348.271L694.391 348.471L693.671 348.711L693.31 348.951L693.11 349.271L692.35 350.792L691.75 351.632L691.069 352.232L689.549 353.153L688.788 353.433L686.587 353.713L686.067 353.793L685.907 353.713L686.027 353.393L686.347 352.833L686.467 352.753L686.908 352.633L687.068 352.472L687.148 352.152V351.832L687.068 351.512L687.668 349.631V348.711L687.068 348.391L685.547 348.671L685.147 349.111L684.987 349.231H684.827L684.467 349.031H684.306L683.866 349.231L683.586 349.431H683.346L683.026 349.111L682.826 348.631V348.07L682.706 347.55L682.346 347.11L683.106 346.51L683.266 345.99L682.986 345.389L681.305 342.908L680.905 343.068L680.585 343.348L680.265 343.468L679.904 343.228V342.948L679.824 342.788V342.628L679.504 341.948L679.064 341.508L678.704 341.027L678.624 340.187L678.224 340.507L677.703 340.627L676.703 340.547L675.663 340.147H675.502L675.062 340.467H674.782L674.102 340.147L673.982 339.627L674.062 339.027L673.942 338.426L673.542 337.986L673.061 337.826H672.541L672.061 338.146L671.301 339.027L670.86 339.947L670.38 340.707L669.46 341.147H667.259L665.258 340.627H665.098L665.018 340.547L655.654 334.705L654.333 334.384H653.052L652.572 333.664H650.691L646.89 333.224L646.249 333.464L645.689 334.064L644.449 334.464L643.088 334.584L642.248 334.344L641.247 333.584L640.767 333.064V332.704L641.407 332.544L640.527 331.703L639.406 331.063H638.486L638.166 332.023L638.446 332.343H636.645L636.565 332.023L636.485 331.623L636.205 331.303L636.045 330.903L636.165 330.583L636.605 329.902L636.685 329.702L636.445 329.182L636.125 329.102L635.765 329.182L635.405 329.102L635.164 328.702L634.884 328.102L634.564 327.621L634.124 327.461L633.804 327.781L633.644 328.902L633.204 329.182L632.883 328.942L632.763 328.342V327.701L632.683 327.341L632.043 327.061H631.203L630.642 327.341L630.963 328.142L630.442 328.422L628.601 328.782H628.201L627.921 328.942L627.441 329.622L627.281 329.982L627.041 330.983L626.681 331.343L625.8 331.823L625.48 332.223V332.584L625.6 332.944L625.68 333.384L625.48 333.944L626 334.144H626.16L627.041 334.825L627.761 335.225H628.361L628.882 334.945L629.362 334.625L629.882 334.384L631.523 334.104L632.003 334.184L632.403 334.344L632.563 334.424H632.883L632.683 335.665L632.443 335.545V335.225L632.403 335.145H632.243L632.043 335.225L631.923 335.345L631.843 335.625V335.865L631.963 336.065V336.225V336.585V336.945V337.306L631.803 337.546L631.723 337.666L631.283 337.826L630.963 337.466L630.883 337.386L630.482 336.705L629.962 336.225L628.922 336.345L627.881 337.026L627.481 337.906V338.146L626.481 338.306H626.361H624.16L622.879 337.946L622.559 337.746L622.319 337.266L622.119 336.786L621.919 336.585H621.518L620.638 336.265H620.038L618.197 336.585L618.037 336.705L617.877 336.945L617.637 337.186L616.996 337.386L616.236 337.786L615.956 337.986L615.676 338.306L615.556 338.546L615.396 338.746L615.075 338.986L613.555 339.347H609.113L609.033 339.147L608.953 338.666L608.833 338.186L608.633 337.986L606.432 337.866L605.951 337.626L605.311 338.586L604.751 339.227L604.111 339.587L602.75 339.867L601.269 340.187L600.509 340.107L600.029 339.827L598.748 339.147H598.828H599.629L599.989 338.786L600.429 337.506L599.669 337.586L597.908 338.106L598.028 337.586L598.108 337.386L598.028 336.906L597.828 336.625L597.628 336.425L597.428 336.185L596.667 334.665L596.187 334.024L595.667 333.744L595.547 333.504L595.427 332.944L595.347 331.863L595.467 331.543L596.027 330.943L596.227 330.623V329.782L595.827 328.022L595.907 327.301L596.387 325.661L596.587 325.42L597.067 325.18L597.148 324.62L596.987 323.66V323.42V323.3V323.179V322.979L597.107 322.739L597.348 322.539L597.468 322.299L597.668 321.779L597.748 321.539V320.698L597.908 320.018L598.828 319.058L599.148 318.457L599.068 316.857L597.588 314.255L597.468 312.134L597.668 311.134L597.908 310.374L598.148 309.933L598.388 309.613L598.548 309.213L598.628 308.493L598.868 307.853L601.029 304.811L601.389 304.051L601.589 303.171L601.67 302.13L601.91 301.049L602.47 300.609L603.11 300.249L603.59 299.489V298.769L603.47 298.088L603.23 297.448L603.11 296.848V296.167L603.39 294.807L603.55 294.206L603.79 293.726L604.031 293.406L604.191 292.886L604.271 291.925L604.431 291.445L604.831 291.045L605.671 290.365V290.005L605.271 288.924V287.123L605.551 285.443L606.992 283.202L607.392 282.921L607.952 282.721L608.473 282.281L609.393 281.161L609.793 280.881L610.233 280.44L610.593 279.96L610.754 279.56V278.559L610.994 278.079L611.394 277.959H612.354L612.634 277.839L612.834 277.679L612.915 277.399L612.995 276.919L613.155 276.639L613.315 276.479L613.395 276.359H613.715L614.955 275.678L615.156 275.518L615.596 274.798L617.156 270.516L618.237 268.475L618.957 267.675L618.557 267.275L615.196 266.594L609.753 263.713L609.153 263.633L607.192 263.833L604.351 262.993L603.991 263.113L603.19 263.553L602.79 263.673H602.47L601.75 263.353L601.389 263.273L600.949 263.353L600.549 263.513L600.149 263.633H600.029L599.669 263.513L599.348 263.233L599.028 262.552L598.788 262.232L598.028 261.832L596.547 261.552L595.787 261.072L595.347 260.511L594.586 259.271L594.106 258.751L594.186 258.591L594.266 258.471L594.506 258.31L594.266 257.55L593.666 257.31L592.185 257.23L592.025 256.63H591.345L590.665 256.79H590.545L589.984 257.15L589.824 257.39L589.584 258.15L589.424 258.43L589.184 258.551L588.504 258.631L588.184 258.751L587.983 259.031L587.623 259.751L587.423 259.951H587.223L586.303 259.471H583.341L582.821 259.271L582.301 258.991L580.98 258.03H580.78L580.46 258.31V258.591L580.58 258.871V259.151L579.46 259.831L578.699 259.231L578.299 257.79V255.949H577.579L575.458 254.749H575.098H574.097L572.657 254.429L572.296 254.509L572.096 255.229L572.336 256.069L572.456 256.95L571.856 257.75L571.416 257.83L570.095 257.35H568.575L568.175 257.15L567.734 256.43L567.814 255.789L567.974 255.109L567.774 254.269H567.654L567.214 254.589H567.054L566.974 254.429L566.894 254.029V253.908L566.734 253.708L566.454 252.748L566.294 252.588L565.813 252.428L565.613 252.268V252.068V251.547V251.307L563.292 249.106L562.732 248.426L562.532 247.826L562.732 247.346H563.332L563.492 246.905L563.372 246.585L561.692 244.824L561.452 244.464H561.532V244.144L561.452 243.704L561.251 243.264L560.651 242.703L557.53 241.143L557.17 241.063L556.89 241.183L556.249 241.623L555.889 241.703H555.609V241.303L555.489 239.702L555.729 238.021L555.809 237.501V235.82L556.009 235.26L556.529 234.46L557.41 233.379L557.77 232.659L558.01 232.259L558.09 232.019V231.659L557.85 231.458L557.65 231.298L557.57 231.138L558.09 230.378L560.611 228.737L560.531 228.617L560.291 228.337L560.411 228.097L560.571 228.017L560.851 228.137L560.611 227.817L560.451 227.457L560.371 227.016V226.536L560.731 226.256V226.056L560.651 225.816V225.456L560.811 224.295H560.851V223.815L560.931 223.735L560.731 223.535H560.611L559.571 223.215H557.93L557.33 223.055L556.77 222.695L555.769 221.774L555.209 221.414H554.889L554.368 221.734H554.088V221.534L553.888 220.974L553.768 220.614L553.608 220.334L553.128 220.013L551.967 219.493L551.447 218.933L550.327 216.212L549.726 215.251L549.366 215.972L549.086 215.491L548.566 214.011L547.966 213.13L547.805 212.69L547.886 212.09L547.685 210.969L547.445 210.529L547.085 210.329L547.405 209.729L547.525 209.569H547.445H547.245H547.165L547.365 208.048L547.525 207.328L547.765 206.567L548.086 206.207L548.166 205.847L548.046 205.527L547.685 205.247L547.765 204.967L547.886 204.366L547.966 204.206L548.246 204.006H548.926L549.166 203.766L549.366 203.246V202.646L549.206 202.045L548.766 201.525L549.126 201.045L549.886 200.485L550.207 199.964L550.927 199.644L552.408 199.244L553.048 198.684L552.888 198.204L552.968 197.683L553.208 197.163L553.528 196.763L554.008 196.483H554.408L554.809 196.683L555.249 196.763L556.169 196.603L556.609 196.163V195.762L556.529 195.442L555.329 193.362V192.721L555.529 192.001L555.769 190.72V189.84L555.649 189.64H555.409L555.129 189.12L554.929 188.559L554.849 188.079L554.929 187.639L555.329 187.279H554.689L553.208 186.919L552.688 186.678L552.608 186.598H552.528H552.448L552.368 186.678L551.207 187.039H550.887L550.607 186.799L550.327 186.198L550.046 185.958L550.327 185.478H549.926L549.646 185.318V185.078L549.886 184.678L549.326 183.957L549.966 182.957L551.047 182.076L551.807 181.636V181.436L552.207 180.956L552.448 180.476L552.368 180.156H550.006L549.286 179.715L548.886 178.955L549.326 178.675L547.245 175.474L546.605 174.833H546.045L544.684 175.153H544.244L544.124 174.633L544.244 174.073V173.553L543.644 173.272V173.152L543.604 173.072V172.992L543.684 172.912L543.764 172.192L543.524 171.872L543.203 171.632L542.923 171.192L542.763 170.511L543.284 170.631L543.764 170.191L543.924 169.551L543.844 169.071V168.59L544.124 168.03L544.604 167.75L545.364 167.83L545.765 167.39L545.965 166.83V166.389L545.684 165.269L545.765 164.909L545.965 164.629L546.045 164.429L544.924 164.028L544.124 163.508L543.844 163.228L543.764 162.788V161.987L543.844 161.547L544.044 161.107L543.964 160.827L542.723 160.987L541.843 160.707L541.363 160.627L540.882 160.747L540.002 161.187L539.522 161.267V159.907L538.962 158.346L538.761 157.065L539.722 156.545L540.202 156.825L540.602 157.345L541.042 157.746L541.683 157.666L542.123 157.185L542.763 155.785L543.203 155.264L546.365 152.783L548.326 151.743L548.846 151.063L548.126 150.382L548.926 149.742L549.206 149.582L548.406 149.302L546.685 150.462L545.885 150.022L545.645 149.022L545.725 147.821L546.005 146.741L546.365 146.14L547.085 145.26L548.846 142.019L549.206 141.658L550.086 141.058L550.407 140.578L550.607 139.898L550.727 138.697L550.927 138.217L550.407 137.617V136.616L550.727 135.456L550.847 134.375L550.687 133.375L550.447 131.574L549.086 129.973L546.805 126.852L546.645 126.171L546.845 125.371L547.245 124.131L544.924 123.13L544.124 122.13L544.564 120.569L544.204 120.209L543.443 119.649L543.043 119.449H542.043L541.723 119.328V118.728L541.963 118.528L542.523 117.968L542.603 116.847L542.163 115.767L541.403 115.167L541.523 114.686L542.083 114.286L543.484 114.046L544.164 113.766L544.884 113.246L545.364 112.966L546.765 112.605L547.886 112.886L548.686 113.086L549.246 113.206L548.806 112.485L547.525 111.125L547.085 110.805L548.246 110.164L549.366 110.685L550.447 111.565L551.607 112.045L552.688 111.805H552.968L553.208 112.085L553.568 112.765L553.728 112.966L555.049 113.166L555.609 113.486L555.729 114.326L557.01 113.966L557.17 113.406L556.89 112.165L559.09 112.806H559.771L560.331 112.565L562.012 111.285L565.413 110.124L568.455 110.044L569.375 109.524L570.176 108.564L570.976 107.163L571.256 106.843H571.536L571.696 106.643V105.962L571.656 105.602L571.496 105.322L570.616 104.402L568.375 103.161L567.614 102.921L567.054 102.521L566.974 101.681L567.214 101.12L567.534 100.96H567.894L568.295 100.72L568.575 100.36L568.855 99.6396L569.015 99.3195L569.575 98.7192L570.135 98.3991H570.336L572.376 98.159L572.817 97.7588L573.577 96.1982L574.257 95.5178L575.738 94.8775L576.418 94.2773L577.219 92.9566L577.579 92.5165L579.099 91.596L579.18 91.316L579.099 91.1559L578.899 90.7957L578.579 89.5951V88.5547L578.859 87.7143L579.54 86.1136L579.82 84.0728L579.34 82.632L577.259 79.2305L577.058 79.3505L576.858 79.7107L576.538 80.0309L575.698 80.271L574.817 80.351L573.857 80.191L572.096 79.5107L569.375 79.1104L568.455 78.6703L567.774 77.8699L567.574 77.0296V76.0291L567.414 75.0287L566.974 74.1483H567.534L569.415 73.1478L568.295 72.1874L568.054 71.8272V71.347L568.215 70.8668L568.295 70.3465L568.015 69.7463L568.615 69.3062L569.215 68.8659L570.376 68.5057H573.617L575.418 68.9859L577.099 68.7458L577.619 68.9459L578.819 69.3461L579.46 68.1456L579.7 66.1447L580.02 60.062L580.3 58.1812L580.66 57.2207L580.94 56.5004L583.742 52.0585L584.502 50.1776L584.822 48.3768V46.3358L584.542 42.254L584.422 41.7738L584.262 41.4937L584.142 41.1335V40.4532L584.222 40.013L584.702 38.7725L584.942 37.812L585.062 36.9316V36.0113L584.942 34.4106L585.262 34.2104L585.662 33.8102L585.982 33.4101L586.303 32.8098L586.423 32.1295L586.183 31.4892L587.063 30.1687L587.543 29.9285H588.344L589.104 30.1286L590.264 30.889L590.905 31.1691L590.064 29.9685L588.704 29.4883L580.9 29.2082L579.62 28.5679L579.099 26.9672V22.7253L579.219 21.7649L579.9 20.0442L580.06 19.2037L580.34 18.6835H581.02L582.381 19.0037L582.581 18.5235L582.901 18.3634L583.141 17.8031L583.061 17.0828L582.741 16.6826L581.741 16.1624L581.3 15.7222L581.22 14.9618L581.701 14.3215L582.821 13.5612L584.062 12.1606L584.742 11.6803L586.023 10.3598L588.704 9.31929L593.946 8.71905L594.306 8.95914L594.666 9.47939L595.467 9.67944L600.509 8.63905L610.754 7.19835L613.475 7.99875V8.43889L613.235 10.0397L614.195 12.1206L615.596 13.9213L616.756 14.7217V15.0819L616.476 15.8022L616.996 16.0424L617.757 16.2424L618.157 16.8427L618.037 17.8832L617.717 18.4034L616.996 18.9636L616.396 19.2838L615.035 19.4039L614.435 19.764L615.075 21.6848L615.396 22.4052L615.876 22.8854L616.316 22.6852L616.716 22.5253H617.276L617.677 22.7654L618.317 23.5257L618.557 23.6857L618.837 23.9258L619.117 24.446L619.477 24.9663L619.958 25.2064H620.518L620.918 25.0863L621.278 24.8462L621.678 24.446L622.399 23.2455L623.159 21.2847L623.359 19.3238L622.359 18.1633L620.998 18.5235L620.278 18.4034L620.358 17.563L620.638 16.6026L620.878 14.6417L621.158 13.8413L621.598 13.3611L622.159 13.121L623.599 13.041L624.24 13.3611L624.76 14.0814L625.16 14.8818L625.56 15.442L626.921 16.1624L629.842 16.7226L631.163 17.3629V17.8031L630.362 18.5235L629.602 19.4438L629.042 20.6843L628.842 22.3652V25.5665L629.082 26.9672L629.562 28.0077L629.642 26.607L629.282 23.0455V21.3647L629.842 20.1242L630.642 19.5639L631.363 18.8836L631.683 17.2429L631.523 16.9627L630.642 14.7217L630.362 14.4016L630.002 13.6413L629.682 12.7609L629.442 11.6803L628.962 10.3598L628.842 9.3994L628.922 8.43889L629.122 7.59855L630.402 4.39717L631.323 0.915512L631.923 -0.645119L632.403 -1.36541L633.083 -2.00571L633.844 -2.44598L634.604 -2.60596H635.325L635.725 -2.36586L636.565 -1.40547L637.766 -0.364967L639.046 0.315269L641.727 0.995628H643.208L645.689 0.315269L647.05 0.435318L647.69 -0.325035L650.411 -1.00526H653.132L653.733 -1.40547L654.213 -1.04533L654.773 -0.925278H655.934L656.214 -0.765167L656.974 0.235275L660.296 6.1179L661.656 7.75865L662.617 8.55894L663.097 9.1593L663.577 10.92L665.938 14.4016L666.458 14.8818L667.099 15.162L667.899 15.242L668.339 15.442L670.38 16.8427L672.701 17.3629L674.582 17.7631L675.022 17.563L674.582 16.8026L673.301 16.0424L670.22 15.6821L668.979 15.162L666.498 13.5612L665.378 12.2807L664.978 10.4398L664.858 8.87915L664.738 7.8787L664.377 7.55849L662.777 6.67809L662.257 6.47805L661.416 5.7177L660.616 3.99696L660.056 2.11612V0.955566L658.775 0.475372L656.614 -1.40547L655.334 -2.20588L654.053 -2.52596L649.691 -2.60596L648.37 -3.20632L647.49 -3.44642L647.09 -3.20632L646.73 -2.60596L645.929 -2.88611L644.729 -3.80656L643.568 -5.20721L640.727 -10.9697L642.048 -11.57H642.688L643.488 -11.4099L644.849 -10.4895L645.569 -10.2494L646.329 -10.6095L646.61 -11.2498L646.89 -12.4104L647.09 -13.6509V-14.5313L646.69 -15.1316L646.049 -15.6919L645.569 -16.2921L645.649 -16.9724V-17.3326L644.809 -17.5727L643.608 -17.3326L642.488 -16.7723L641.887 -16.0921H641.647L640.727 -17.7327L640.127 -19.0534L640.047 -19.3335L640.327 -20.4939L640.847 -21.4944L641.207 -22.4148L640.967 -23.2952V-23.6954L641.367 -24.0155L642.808 -24.4157H643.408L643.768 -24.7759L644.289 -25.4962L644.809 -26.4166L645.169 -27.297L644.369 -27.1369L643.088 -26.0164L642.368 -25.6963L642.448 -25.8964L642.528 -26.2966L642.608 -26.4966L641.567 -26.3766L639.767 -25.8164L638.726 -25.6963L637.485 -25.8964L636.965 -25.6963L635.845 -24.6158L635.445 -24.4957L634.524 -24.8159L633.564 -25.6963L632.843 -26.9768L632.763 -28.4975L633.244 -29.0979L634.164 -29.538L635.205 -29.7381H636.005V-30.0983L635.405 -30.2583L634.924 -30.6986L634.484 -30.8586L633.924 -30.1383L633.644 -30.7786L633.764 -31.4589L634.084 -32.0592L634.444 -32.5394L635.164 -32.2193L637.926 -32.9795H641.687L642.568 -33.2197L643.288 -33.6599L644.729 -34.9405L646.049 -35.5808L646.61 -36.0209L646.85 -36.9813V-38.422L645.969 -39.7826L643.168 -42.7839L642.768 -43.4242L642.608 -44.0645L642.288 -44.3447H641.567L640.847 -44.1046L640.447 -43.8244L640.207 -44.2646L641.367 -45.065L640.167 -48.2664L639.726 -49.1068L638.726 -49.7071L636.885 -51.3478L635.725 -51.908V-52.3082L635.925 -53.3886L635.485 -54.5892L634.804 -55.7897L634.364 -56.8302L634.164 -58.3909L634.324 -59.7515L634.804 -61.4723L636.005 -61.1122H637.285L639.606 -61.9525L640.407 -62.0726L643.128 -61.5924L645.809 -60.4719L653.052 -58.751L653.613 -58.2309L653.773 -57.6305L653.893 -56.7902L654.133 -56.0699L654.733 -55.8298H657.214L657.734 -55.9098L658.055 -56.2699L658.535 -56.39L658.895 -56.7102L659.495 -56.8702L660.176 -56.23L660.736 -56.1499L661.256 -56.31H661.736L663.777 -57.3505L664.418 -58.1508L665.258 -58.471L665.698 -59.2313L666.138 -59.5915L666.258 -57.4705L667.899 -56.8702L669.98 -56.7501L671.421 -56.1099L672.021 -55.6697L672.901 -55.2695L673.702 -54.7093L674.062 -53.6688L674.462 -53.1086L675.342 -53.2686L676.903 -53.8688L676.783 -55.1095H677.583L678.704 -54.4692L679.504 -53.4687L679.984 -51.4679L680.185 -50.9875L680.505 -50.5474L681.145 -49.867L680.705 -49.547H680.265L679.824 -49.7871L679.504 -49.867V-49.747L678.664 -49.0668H678.544L678.344 -48.9067H678.184L678.104 -48.7866V-48.2264H678.584L679.464 -48.5065H680.345L680.865 -47.8661L681.225 -48.1864H681.625L681.825 -47.8661L681.585 -47.0258L681.745 -46.2255V-45.065L681.585 -42.6238L681.425 -41.5834L681.185 -40.743L680.865 -40.0627L680.425 -39.4224L679.304 -38.3819L677.944 -37.6216L676.463 -37.1414L675.022 -36.9813V-36.5812L676.503 -35.8209L684.747 -37.7817L685.387 -37.5416L687.468 -35.7407L686.787 -35.0605V-34.4202L687.068 -33.6999L687.268 -32.7394L687.068 -31.9391L686.587 -31.2188L685.987 -30.6986L685.387 -30.5385L685.467 -30.4184L685.587 -30.3384V-30.1383L685.387 -29.7381L685.747 -29.338L685.867 -28.8577L685.747 -28.2975L685.427 -27.7372L686.187 -28.0173L686.747 -28.7376L687.548 -30.5785L687.988 -32.5394L688.228 -33.0196L688.588 -33.2597L689.869 -33.3797L690.349 -33.6599L690.589 -33.9799L690.749 -34.3002L691.069 -34.6202L691.47 -34.7403L692.91 -34.6202L693.671 -34.2601L695.751 -32.5794L701.154 -30.1783L704.195 -27.297L705.596 -26.9369L707.157 -27.217L708.317 -27.9373L710.278 -29.7781L711.398 -30.4984L712.559 -30.9786L715.4 -31.3389V-30.9387H714.8L713.96 -30.8986L714.56 -30.6185L715.16 -30.8186L715.961 -30.2583L718.362 -31.739L719.442 -31.3389L718.161 -29.8982L717.801 -29.338L717.601 -29.498L717.081 -29.7381L717.441 -28.7777L717.761 -26.4567L718.041 -25.3362L717.801 -24.6158V-23.6153L718.041 -21.9347L717.881 -20.9342L717.561 -20.414L717.241 -20.0538L717.081 -19.5336L713.119 -16.9324L711.759 -15.1716L711.158 -14.7714L709.758 -14.2912H709.478L709.198 -14.0511L708.957 -14.2112L708.717 -14.4913H708.397L708.117 -14.3313L707.997 -14.1712L706.676 -12.1302L706.316 -11.73V-11.3699L706.756 -10.2494L707.237 -9.40904L707.877 -8.84873L708.797 -8.5687L710.118 -8.68875L710.438 -8.5687L710.678 -7.96833V-7.2881L710.838 -6.76785L711.359 -6.60774H711.479H711.879H712.039L712.479 -6.96789L713.479 -8.00839L714.04 -8.24849L714.68 -8.36854L716.481 -9.36898L720.643 -9.92929L720.963 -9.80925L721.203 -9.48903L721.443 -8.68875L721.683 -8.28855L722.884 -7.96833L723.084 -7.6883L722.924 -6.36765L723.004 -5.7674L723.444 -5.52731L724.444 -5.44731L724.724 -5.52731L726.125 -6.72779L726.405 -6.56781L726.765 -5.72735L726.965 -5.52731H728.406V-5.32726L729.727 -3.68652L729.967 -3.52641H730.367V-4.12666L730.767 -5.04711L731.047 -6.20766L730.887 -7.128L731.127 -7.56825L731.447 -7.80835L731.728 -7.88834L731.647 -8.12844L731.567 -8.76874L731.487 -9.0489L732.648 -10.2494V-10.6896H732.408V-11.0498L733.288 -10.6896H733.568L734.249 -11.2099L734.849 -12.7705L735.289 -13.0907L735.569 -13.1707L735.809 -13.4108L735.969 -13.771L736.129 -14.2112V-14.4913L735.889 -14.6914V-14.9715L736.009 -15.2516L736.17 -15.4518L736.29 -15.6118L737.13 -17.1325L738.21 -17.8928L739.531 -18.093L742.372 -17.5727L750.536 -19.3335L751.817 -20.1739L751.977 -18.4931L751.857 -16.8924L751.937 -15.5318L752.737 -14.6113L752.417 -15.3317L752.257 -16.8523L752.057 -17.4126L752.417 -18.093L753.417 -18.6532L753.697 -19.4536H753.297H752.937L752.577 -19.2935L752.257 -19.0534L752.497 -19.6135L753.657 -21.1342L754.338 -21.7745L755.138 -23.1351L755.618 -23.4554L756.058 -23.5754L758.62 -24.9759L759.9 -26.0565L760.42 -26.6567L761.661 -29.0578L763.702 -32.0592L763.942 -32.6194L765.343 -35.0605L765.903 -36.5812L766.303 -37.1015L766.983 -37.4616V-37.1015H766.743L767.464 -35.9409L768.944 -35.3407H776.748L778.028 -34.7004L778.829 -35.1405L779.829 -34.9004L780.269 -34.2601L779.429 -33.4598L778.548 -33.2597L774.867 -33.5799L773.426 -34.1401L772.506 -34.2601L772.226 -34.1401L771.865 -33.6198L771.665 -33.4598H770.985L770.105 -33.6198L769.784 -33.4198L769.584 -32.6194L769.384 -33.0596L769.184 -32.9396L768.864 -32.6594L768.664 -32.5794L768.744 -32.0592L768.904 -31.8191L769.104 -31.739H769.384L769.264 -31.659H769.184L769.144 -31.579V-31.3389L768.504 -31.699L767.784 -31.6189L767.183 -31.2188L766.863 -30.5385L766.303 -31.2588L765.623 -31.6189L764.382 -31.739L763.822 -31.4589L763.342 -30.7786L763.102 -29.8982L763.302 -28.9777L762.821 -29.0578L762.621 -29.1378L762.381 -29.338L762.141 -28.9378L762.381 -28.2574L762.221 -27.5772L761.781 -27.0569L761.221 -26.9369L761.461 -26.1365L761.741 -25.4962L761.821 -24.9759L761.421 -24.4957L762.901 -23.4554L763.742 -23.2552L764.462 -23.6954H763.942L763.542 -23.8554L762.821 -24.4558L763.062 -25.136L763.382 -25.6563L764.222 -26.4966L764.422 -26.6167L764.782 -26.7367L764.942 -26.8568L765.062 -27.1369V-27.8572L765.182 -28.0974L765.743 -28.5776L767.984 -29.6581L767.504 -30.0182H767.303V-30.4585L767.944 -30.6986H768.184L768.464 -30.4585V-30.8586L769.104 -30.2984L770.105 -30.5785L771.986 -31.659L771.905 -31.859L771.825 -32.2993L771.745 -32.4993L772.106 -32.7795L772.506 -32.9396H772.946H773.386V-32.4993L772.866 -32.3793L772.506 -31.8991L772.306 -31.2188L772.226 -30.4984L772.666 -31.2588L772.826 -31.659L772.946 -32.1392L773.266 -31.579L773.626 -31.0587L774.026 -30.8586L774.387 -31.2988L774.787 -30.9387H775.147L775.467 -31.2188L775.787 -31.659L775.867 -31.2188L776.027 -30.7786L776.227 -30.4184L776.828 -29.6581L776.948 -29.538L777.068 -29.618L777.428 -29.6981H778.068L778.428 -29.7381L778.829 -30.0983L779.109 -30.5785L779.469 -31.5389L779.789 -32.0992L780.669 -32.9795L782.03 -33.8599L783.391 -34.3801L784.271 -34.1401L783.831 -33.6999V-33.0196L784.071 -32.2592L784.471 -31.699L785.952 -30.9387L786.352 -30.5385L785.712 -29.3779L785.832 -28.4576L786.792 -26.8968L786.872 -26.2565V-25.6162L786.952 -25.136L787.312 -24.936H788.833V-24.4957H788.513L788.273 -24.3757L787.873 -24.1356L788.993 -24.2556L790.794 -23.2552L791.994 -22.975L792.875 -22.4948L793.995 -20.1739L794.916 -19.3735L794.396 -19.0133L793.995 -18.6131H794.836L796.116 -19.2534L796.797 -18.9732L796.517 -18.293L796.356 -18.0129L796.076 -17.7728L796.476 -17.5327L796.717 -17.6527L796.957 -17.8528L797.277 -17.7728L797.477 -17.4926L797.957 -16.1721L798.397 -15.3317L798.917 -14.6514L799.558 -14.2512H800.358V-14.6514L800.078 -14.9315L799.678 -15.6118L799.398 -15.8519V-16.2521L803.64 -17.0925L804.64 -17.5727L806.401 -18.7732L807.361 -19.0934L807.521 -18.7732L807.441 -18.5331L807.241 -18.3331L806.881 -18.253V-17.8928L807.922 -17.3726L810.643 -15.0916V-14.6914L810.163 -13.851L809.882 -12.7305L809.482 -11.6901L808.562 -11.1298L808.962 -10.8097L809.962 -9.52909L810.323 -8.92885L810.523 -8.76874L811.483 -8.36854L811.723 -8.20856L811.883 -7.80835L812.003 -7.3681L812.123 -7.08806V-6.88789V-6.60774V-6.36765L812.243 -6.28765H812.724H812.844L813.044 -6.12755L813.244 -6.0075L813.444 -5.92751H813.644L814.084 -5.64735V-5.08717L813.924 -4.44687L813.524 -3.88656L811.083 -1.8456L810.723 -1.08538L811.043 -0.364967L811.683 -0.0448761L812.323 0.115227L812.604 0.315269L812.804 0.955566L813.324 1.67587L813.884 2.15618L814.244 2.07607L816.766 4.19701L817.886 4.4371L818.446 5.11746L818.566 5.23751L819.407 5.15752L819.647 5.23751L820.487 5.75776L820.887 5.91775L823.649 6.1179L824.609 5.83775L825.009 5.03747L825.249 4.87737L825.809 4.99741L826.29 5.47761L826.37 6.39806L826.09 6.8382L824.489 7.99875L824.929 8.23885L825.449 8.39896L826.01 8.47895H826.29V10.1197L826.21 11.0001L826.73 12.1206L827.45 14.3616L827.53 14.9218L827.45 17.0428V18.3233L827.73 19.5239L828.571 20.8044L828.931 22.005L829.651 23.2055L830.011 26.1669L830.732 29.4883L830.972 30.5688V31.0491L831.052 32.0895L831.172 32.6498L831.372 33.0099L831.892 33.4501L832.012 33.7703L832.452 34.1705L831.572 35.9311L831.332 36.2914L830.972 36.4914L830.612 37.0117L830.372 37.6919L830.292 38.4523L830.412 39.3727L830.612 40.1731L830.692 41.0135L829.651 44.2149L829.571 44.6951L829.131 45.7356L828.091 46.8561L826.09 48.4567L824.009 49.5373L822.368 50.7779V51.138L822.568 51.6982L822.968 53.6991L823.048 54.4195L822.888 55.4999L822.528 56.1803L821.608 56.9806L822.008 57.781L822.608 58.2612L823.328 58.5013H824.089L824.769 58.8614L825.89 60.1821L826.81 60.6623L830.452 63.3434L830.972 63.9837L832.132 66.3048L832.493 66.6649L833.133 66.985L834.133 68.3456L836.174 69.146L838.175 71.387L838.375 71.6271L839.456 72.5075L838.495 74.5084L838.215 75.8289L838.855 76.4293L839.015 77.0296L838.455 78.3501L837.615 79.6708L835.854 81.2314L836.054 83.4724L836.854 85.9135L837.575 87.5543L837.375 88.5547L838.135 89.4351L839.296 90.0354L840.256 90.2755L841.216 90.6757L841.737 91.6361V92.7566L841.056 93.6369V93.9971L841.537 94.7574L841.417 95.5579L841.056 96.5583L840.856 97.9989L841.216 98.7993L843.457 100.48L842.817 101.28L842.537 101.761L842.417 102.241L842.337 102.761L842.177 103.281L841.456 104.642L841.256 105.162L841.136 108.524L840.856 109.604L840.336 110.604L839.696 111.445L837.735 113.446L837.295 114.406L837.415 115.567L837.975 116.407L838.575 116.847L839.055 117.488L839.175 118.928L839.536 120.329L840.296 121.249L841.977 122.65L842.417 123.61L842.737 125.011V126.452L842.377 127.532L841.697 128.573L841.417 129.653L841.497 130.053L841.617 130.613L842.377 131.414L844.618 132.174L845.338 132.694L846.139 133.135L847.739 133.615L848.5 133.975L849.02 134.375L849.66 135.055L850.02 135.816L849.74 136.496L849.86 137.937L850.06 140.258L850.22 141.298L850.301 141.658L850.941 142.779L851.701 143.699L852.181 144.78L852.021 146.38L852.141 146.541L852.301 146.701L851.701 147.861L851.221 149.302L850.941 150.823V152.183L850.821 152.863L850.581 153.224L850.301 153.464L850.1 153.824L850.02 154.344V155.384L849.9 156.025L848.38 159.907L846.659 164.028L845.458 165.389L844.978 166.189V167.19L844.418 168.63L844.098 169.271L843.778 169.671L843.217 169.831H842.457L841.176 169.511L839.856 168.51L839.376 168.23L838.175 167.91L838.015 167.51L838.135 166.549L838.695 165.189L838.895 164.469L838.695 163.868H838.295L836.414 164.629L836.014 164.309L836.214 163.668L836.614 162.908L836.895 162.268L836.975 161.467L836.854 160.947L836.574 160.507L836.174 159.987L835.774 159.666L834.854 159.426L834.413 159.146L834.093 158.706L833.973 158.386L833.893 158.066L833.693 157.625L833.413 158.386L833.013 158.586L831.772 158.506L830.812 158.946H830.452L830.091 158.746L829.851 158.466L829.691 158.146L829.451 157.906L828.171 157.505L827.09 157.666L826.29 158.506L825.809 160.067L825.409 160.627L825.809 160.907L826.97 161.067L827.65 161.347V161.467L827.29 161.667V162.228L828.131 163.108L829.411 163.468L830.332 163.988L830.132 165.349L829.131 166.189L826.45 165.989L825.209 166.229L824.849 166.59L824.209 167.55L823.809 167.95L818.486 170.391H817.846L816.605 170.271L815.925 170.431L815.565 170.711L815.045 171.392L814.685 171.672L814.244 171.752L813.924 171.632H813.644L813.324 172.032L813.164 172.552V172.992L813.284 173.353V173.633L813.044 173.953L812.844 174.033H812.644L811.643 174.673L811.043 174.793L809.482 174.633L808.762 174.713L807.441 175.193L806.801 175.313H803.72L802.159 175.594L800.758 176.434L801.158 177.274L801.038 177.995L800.598 178.595L800.038 179.035L800.238 179.475V179.795L799.998 180.036L799.678 180.236L799.078 180.996L798.517 181.516L797.877 181.676L797.117 181.316L796.877 181.036L796.396 180.236L796.196 180.036L795.796 179.875L795.716 179.956V180.156L795.476 180.396L794.195 181.316L793.995 181.676L793.635 182.757L792.915 183.117L792.355 182.877L791.794 182.477L791.114 182.397L789.994 185.438L789.513 186.318L788.673 186.959L786.872 186.839L785.912 187.159L785.592 187.239H785.271H784.951L784.671 187.159L784.391 186.959L784.111 186.879L783.831 186.959L783.551 187.159L783.311 189.36L783.07 190.32L782.59 190.88L781.83 191.601L781.55 191.881L780.389 191.801L777.228 189.88L776.948 189.8L776.628 189.88L776.147 190.2L775.947 190.28L775.347 190.2H774.787L774.227 190.44L773.786 190.88L773.026 192.041L772.626 192.401H772.186L770.345 192.121L767.784 192.321L766.423 192.721L765.463 193.522L765.223 193.762L765.102 194.042L765.022 194.322L764.942 194.562V194.682L764.982 194.882V195.082L764.942 195.282L764.822 195.362H764.502L764.382 195.442L763.982 195.803L762.982 196.363L762.621 196.723L761.541 198.644L761.141 199.044L760.741 199.324L760.46 199.724L760.38 200.565L759.7 201.445L759.5 201.965L759.38 202.926L759.5 203.606L759.7 204.166V204.646L759.22 205.007L758.62 204.927L758.259 204.366L757.859 202.886V202.606L757.779 202.285L757.619 201.925L757.459 201.725L756.859 201.125L756.779 201.005V200.885V200.765L756.859 200.645H756.899L756.939 200.565H756.979H757.019L757.179 200.245V200.004L757.099 199.804L756.859 199.684H755.858L755.378 199.524L754.978 199.204L754.858 198.804V197.883L754.658 197.403L754.017 196.923L752.377 196.803L751.496 196.723L752.297 197.563L752.577 198.044L752.697 198.804L752.617 199.484L752.377 199.724L752.017 199.964L751.576 200.605L751.937 201.245L753.617 202.285L754.458 203.206L754.858 203.806L755.138 204.446L755.218 205.247L754.978 206.447V207.248L755.298 208.048L755.778 208.488L756.339 208.808L756.819 209.249L757.139 209.769L757.219 210.329V210.809L757.339 211.129L762.501 213.891L763.021 214.411L764.262 214.531L764.822 215.091L764.902 215.852L764.662 216.572V217.132L766.023 217.972L766.503 218.173L766.703 218.573L766.583 219.613L766.303 220.414L765.503 221.854L765.263 222.655L764.582 222.454L764.382 223.215V224.335L764.262 225.216L763.702 225.776L762.301 226.376L761.901 227.177L762.061 227.737L762.421 228.417L763.142 229.418L763.622 229.858L764.142 230.218L765.263 230.778L765.743 231.018L766.023 231.579V232.259L765.743 232.899L765.823 232.979L766.103 233.099L765.943 233.499V233.619L766.263 234.06L767.063 234.5L767.423 234.9L767.664 235.46L767.824 236.621L767.944 237.221L768.144 237.861L768.344 238.342L768.624 238.742L768.984 239.142L769.384 239.262H769.745L769.985 239.422V240.302L770.145 242.023L770.305 242.864L770.705 243.624L771.385 244.184L772.946 244.944L773.626 245.665L774.747 248.186L775.307 248.746L775.987 248.986L777.988 249.266L778.629 249.186L778.468 248.506L778.949 248.346L780.269 248.706L780.829 249.026L781.31 249.426L782.27 250.467L782.87 250.707L783.07 251.147V251.667L783.271 252.148L784.351 253.428L784.791 253.668L787.993 258.03L788.433 259.071L788.993 259.951L789.954 260.511L792.034 260.591L792.715 260.872L793.115 261.232L794.155 262.632L795.596 264.113L795.996 265.033V266.474L796.517 267.275L797.517 268.195L798.597 268.955L799.398 269.355L799.758 268.435L800.078 267.875L800.558 267.675H800.758L801.319 267.835L801.919 268.195L802.479 268.675L803.079 268.995L803.72 268.915L803.8 269.916L804.16 270.876L804.68 271.676L805.28 272.277L805.921 272.597L807.201 272.797L807.681 273.077L808.482 274.318L810.123 277.599L810.803 278.279L811.203 277.439ZM824.689 -5.48725L824.089 -3.92661L823.809 -3.72646L823.488 -3.64646L824.089 -2.92617L824.369 -2.00571L820.487 -1.56557L819.727 -1.68562L819.167 -2.08583L818.366 -1.20543L817.366 -0.605064L815.405 -0.0849304H813.244L812.043 -0.405022L811.403 -1.24536L811.843 -1.40547L812.564 -1.96566L813.684 -2.20588L814.885 -2.88611L815.205 -3.24625L815.445 -4.92706L814.164 -7.32816L814.244 -8.8088L815.965 -8.68875L816.565 -8.44865L816.325 -8.00839L816.405 -7.6883L816.125 -6.56781V-5.64735L816.605 -6.60774L817.046 -6.84784H818.446L818.286 -6.68786L818.166 -6.52775L818.086 -6.32771V-6.0075L819.207 -5.64735L818.926 -6.4077L819.367 -7.84829L819.287 -9.40904L818.806 -10.3694L818.006 -10.0493L817.726 -11.0097L817.366 -11.8101L816.886 -12.4104L816.325 -12.8505L815.645 -13.0106L814.965 -12.8505L814.605 -12.4104L814.925 -11.6901V-11.2498L814.645 -11.0898L814.324 -10.7296L814.084 -10.2894L813.964 -9.84918L813.764 -9.72913L812.564 -9.28899L812.644 -10.0493L812.884 -10.5295L813.164 -10.8897L813.244 -11.2498L813.084 -11.9701L812.844 -12.0502L812.564 -11.8501L811.483 -11.3699L810.963 -10.6896L810.483 -10.2094L809.802 -10.4895L810.082 -11.61L811.003 -13.5309L811.203 -15.0516L810.883 -15.932L809.482 -17.4126L809.042 -18.0529L809.362 -18.6932L809.882 -19.2534L810.523 -19.4935L811.163 -19.2135L811.483 -18.6532L812.163 -16.7323L812.564 -15.9719L813.484 -15.0516L815.725 -13.7309L817.006 -13.2507L818.046 -12.6104L824.049 -6.0075L824.649 -5.56736L824.689 -5.48725ZM571.176 13.8013L570.416 13.9213L569.215 14.4416L568.575 14.6017V14.9618L568.975 15.1219L569.255 15.322L569.495 15.6821L569.735 16.2424L569.415 16.0823L568.975 15.5621L568.695 15.442L568.335 15.5221L567.814 15.8022L567.614 15.8823L567.014 15.5621L566.534 14.8818L566.414 14.2015L566.814 13.8814L569.415 13.081L570.696 13.001L571.136 13.8814L571.176 13.8013ZM573.777 9.87959L575.058 9.2393L579.7 8.63905L581.02 9.03925L573.777 9.87959ZM582.661 7.83865L584.222 6.91819L586.062 6.59811L589.944 6.67809V6.95825V7.03836H589.864L588.264 7.67854L584.102 8.23885L582.701 7.83865H582.661ZM590.625 6.67809L591.185 6.27802L591.865 6.15797L592.505 6.31795L592.946 6.67809L592.826 6.91819L592.705 6.99831L592.425 7.0783L591.065 6.63816H590.545L590.625 6.67809ZM616.396 7.11835L616.836 6.358L617.517 6.07785L618.277 6.1979L618.997 6.71815H618.517L618.197 6.8382L617.637 7.35845L617.477 7.4785L617.197 7.39851L616.996 7.27846H616.796L616.436 7.4785V7.0783L616.396 7.11835ZM595.787 4.75732H598.828L599.509 5.15752V5.39761V5.43755H599.429L599.348 5.47761L596.867 5.39761L595.707 5.67765L595.627 6.67809H594.626L594.306 6.438L594.186 5.67765L594.346 4.99741L594.786 4.71725H595.827L595.787 4.75732ZM600.709 4.71725L601.589 3.63682L603.03 3.31661L605.911 3.51677V3.91685H605.431L604.671 4.39717L603.71 4.79725H602.71L601.87 4.31705L601.55 4.75732L601.229 4.99741H600.949L600.669 4.75732L600.709 4.71725ZM607.992 3.87691L607.352 3.39672L607.512 3.03658L608.112 2.79636L608.833 2.71636H609.393L609.913 2.9164L610.834 3.47672L610.513 3.39672H610.153L608.713 3.11657H608.112L608.072 3.83686L607.992 3.87691ZM727.766 -8.00839L728.286 -9.32905L729.527 -10.4095L730.927 -10.8897L731.968 -10.4095L730.967 -7.3681L730.607 -6.84784H730.167V-7.24805L730.407 -8.24849L730.247 -8.92885H729.967L729.767 -8.44865L729.927 -7.64825L729.406 -7.20811H728.846L728.286 -7.56825L727.766 -8.00839ZM733.008 -13.4108V-13.5309L733.208 -13.971L735.529 -15.0916L736.009 -15.5718L735.449 -14.7714L733.849 -13.3308L733.408 -12.4104H733.208L733.008 -13.4509V-13.4108ZM645.249 -39.6625L645.089 -39.5825L645.009 -39.4224V-39.1423V-38.8222L644.369 -38.222L643.928 -37.5015L643.448 -36.8213L642.648 -36.4211L641.167 -36.3011L640.447 -36.5411L640.087 -37.2215L640.447 -37.4215L640.527 -37.7416L640.367 -38.1019L640.087 -38.3819L641.167 -39.4224L642.368 -39.9826L643.728 -40.0627L645.249 -39.6625ZM723.644 -37.0213L725.645 -33.2197L721.363 -33.94L720.723 -33.5799L720.883 -33.3398L721.043 -33.2197L719.682 -33.1396L718.802 -33.2997L718.402 -33.7799L718.482 -34.9804L718.322 -35.4207L717.841 -35.6207H716.961L716.601 -35.5407L716.361 -35.1806H716.121L716 -35.6207L715.88 -35.8608H715.68L715.28 -35.6207L715.2 -36.4211L716.161 -38.7821L717.521 -40.1028L719.162 -40.3828L722.083 -39.1023L722.964 -38.342L723.244 -37.9817L723.764 -36.9813L723.644 -37.0213ZM788.233 -44.0645L787.392 -43.3842L787.192 -42.4238V-41.2632L786.832 -40.0627L786.592 -39.7425L786.112 -39.3024L785.912 -38.8621L785.792 -38.3019L785.712 -37.7017V-36.4612H785.431V-37.2614L785.512 -38.622L786.592 -42.5038L786.832 -43.9844L787.072 -44.3846L787.633 -44.5447H788.113L788.513 -44.5047L788.713 -44.1445V-43.5042V-43.5843L788.633 -43.7044H788.513V-42.904H788.313V-44.1046L788.233 -44.0645ZM807.201 -31.9391L808.122 -30.2583L808.722 -29.498L809.562 -29.1779L809.122 -28.8577L808.682 -28.2975L808.362 -27.5371L808.242 -26.5767V-25.6563L808.122 -25.2961H807.762L807.001 -25.5763H807.401L807.721 -25.7363L807.842 -26.1365L807.721 -26.7768H807.481L807.121 -26.3766L806.601 -26.1765H806.041L805.641 -26.3766V-26.7768L806.921 -27.3371L807.441 -27.7372L807.721 -28.4175L805.961 -28.2975L805.16 -28.0574L804.48 -27.5772L806.361 -28.8977L807.001 -29.1779V-29.5781L806.081 -29.6581H805.601L805.28 -29.3779L804.8 -28.8177L804.52 -28.9378L804.24 -29.338L803.84 -29.5781L800.438 -29.1779L799.838 -28.7777L798.037 -27.177L797.637 -26.5767L797.237 -25.6963L796.396 -25.5362L795.636 -25.136L795.516 -23.5754L795.996 -23.9755V-24.2556L795.916 -24.3358H795.836L795.796 -24.4157L797.437 -24.6959L797.677 -24.5758L797.917 -23.2552L797.837 -22.6549L797.317 -22.3748L796.356 -22.5349L795.276 -22.9351L794.075 -23.7354L794.356 -24.0556L794.556 -24.7358L794.916 -25.6162L794.396 -25.3362L794.155 -25.0961L793.955 -24.7759L794.075 -24.6158L794.155 -24.4157L793.475 -24.4957L793.115 -24.4157L792.875 -24.2157L792.555 -24.0556L792.235 -24.2957L791.914 -24.6558L791.714 -24.8159L791.194 -24.8959L790.594 -25.1761L790.234 -25.6963L790.434 -26.4567L789.954 -26.6167L788.913 -26.0965H788.553L788.313 -26.4966L788.513 -26.8968L788.953 -27.0569L789.473 -26.8568V-27.217L787.352 -28.8577L787.833 -30.0983L788.513 -31.1387L789.393 -31.5389L790.434 -30.8586L790.674 -31.2588L791.074 -30.8586L791.554 -30.9387L792.555 -31.6189H792.034L791.634 -32.0592L791.474 -32.6194L791.634 -33.2197V-33.5799H791.154L790.914 -33.9L790.714 -34.2202L790.354 -34.3801L788.833 -33.9799L789.433 -35.2206L789.673 -35.5407L790.594 -35.7808L791.634 -36.3411L792.355 -36.4612V-36.8612H792.395L792.595 -36.9813L792.795 -37.2614L791.834 -37.6216L791.434 -37.9017L791.154 -38.422L791.274 -38.542L791.394 -38.622V-38.8222V-39.2224L790.394 -38.8222L789.793 -38.7421L789.513 -39.0222L789.433 -39.2224H789.273L789.113 -39.4224L789.033 -39.8626V-40.3828L788.873 -40.703L788.633 -40.8231H788.313L789.113 -41.1832L791.714 -41.5834L792.275 -41.4634L792.475 -41.1032L792.875 -40.9431L793.275 -40.6229L793.475 -39.8626L793.635 -39.4625L793.915 -39.7026L794.035 -40.3828L793.755 -41.3033L794.235 -41.9835L794.876 -42.6238L795.516 -43.1041L796.076 -43.3042L795.676 -42.1037L795.436 -41.5834L795.156 -41.2632H795.356H795.556L795.716 -41.1432L795.876 -40.863L795.716 -40.583L795.396 -39.7425H795.876L796.276 -39.8626L796.596 -40.2228L796.797 -40.863L796.517 -40.9431L796.196 -41.2233L795.916 -41.3033V-41.7035L796.396 -42.1436L796.797 -41.3433L797.397 -40.583L797.797 -39.7826L797.557 -38.9022L798.237 -37.9017L799.078 -37.5816H800.838L800.598 -38.0618L800.918 -38.8222L801.078 -39.0623L801.319 -39.2623V-39.7026L801.038 -40.5029L800.838 -40.9031L800.558 -41.2233V-41.6234L800.758 -41.7835L800.878 -41.9035L800.999 -42.0236L801.279 -42.1037V-42.4638H800.838L800.558 -42.1837L800.358 -41.8635L800.118 -41.6634L799.758 -41.5834L798.597 -41.6634L798.397 -41.8635L798.197 -42.2637L797.957 -42.6639L797.637 -42.8639L797.117 -42.984L796.917 -43.2641L796.797 -43.6643L796.556 -44.0645L796.156 -44.6648L796.076 -44.9049L795.636 -44.5047L795.356 -44.2246L794.796 -43.4643L793.995 -42.984L793.395 -42.3438L792.795 -41.8635L792.115 -42.0636L791.994 -42.7439L792.235 -43.8244L792.675 -44.8249L793.155 -45.265L793.275 -45.5051L793.435 -46.0654L793.515 -46.6256L793.435 -46.8657L791.914 -46.4656L791.394 -46.1055L791.194 -46.1855V-46.8657L791.394 -47.2659L791.754 -47.6661L792.154 -47.9463L796.837 -49.3069H797.797L798.717 -48.8267V-48.4665L798.197 -48.0263L797.477 -47.6261L796.837 -47.0659L796.556 -46.2255L796.676 -45.185L796.957 -44.3447L797.397 -43.7044L797.957 -43.2242L799.398 -42.7439L803.84 -43.5843L805.36 -43.2641L806.401 -42.1037L806.641 -40.583L805.761 -39.1423L804.24 -38.1418L803.48 -37.4215L803.159 -36.5411L803.28 -35.5407L803.6 -34.5002L804 -33.6198L804.36 -33.0997L805.08 -32.7394L806.681 -32.3393L807.401 -31.8191L807.201 -31.9391ZM623.679 -49.7071L625.4 -46.4656L626.04 -46.1055L625.56 -45.7053L624.4 -45.265L623.599 -45.9853L622.959 -47.1459L622.279 -48.0663L623.279 -49.9472L623.879 -50.6274L624.64 -50.9075V-50.6274L624.6 -50.5474H624.52L624.44 -50.5073L624.079 -50.1073L623.719 -49.667L623.679 -49.7071ZM629.322 -53.3886L631.243 -53.2686L632.003 -52.7884L632.603 -51.7479V-51.3478L632.323 -50.8675L631.923 -49.747L631.643 -49.3469L631.163 -49.1868L630.602 -49.2668L630.082 -49.467L629.802 -49.7071L628.922 -49.3868L627.801 -49.747L625.8 -50.9875L626.481 -52.2282L627.241 -52.9884L628.161 -53.3487L629.322 -53.4287V-53.3886ZM624.64 -64.7537L624.44 -62.6328L625.6 -61.5523L627.241 -61.1521L634.684 -61.5123L633.844 -60.832L629.562 -61.0721L629.042 -60.792L628.081 -60.0316L627.561 -59.8715H625.2L624.96 -59.9916L624.68 -60.5118L624.4 -60.6719H624.079L623.839 -60.5519L622.799 -59.8316L622.639 -59.6715L622.559 -59.2313V-58.0708L622.399 -57.8307L622.519 -54.5892L622.439 -53.5487L622.279 -52.7483L622.079 -52.5884L621.838 -53.4287V-54.9893L622.199 -61.4323L622.519 -62.7129L625.12 -69.996L626.561 -71.7969L628.201 -70.9165L626.12 -70.7964L625.84 -70.5163L626.801 -70.4363L627.081 -69.716L626.761 -68.9156L625.36 -68.1153L624.72 -67.1548L624.36 -65.9543L624.68 -64.8338L624.64 -64.7537ZM634.004 -40.783L636.205 -41.7035L636.285 -41.0632L636.005 -39.6225L635.205 -38.3819L634.244 -37.8218H633.484L633.044 -38.222L632.683 -39.0623L632.883 -40.0227L633.484 -40.5029L633.724 -40.6229L633.964 -40.783H634.004ZM609.033 -19.5736L608.873 -19.4536V-19.6937L608.673 -19.7336L608.553 -20.0138L608.393 -20.2139L608.192 -20.414H608.713L608.913 -20.2139L609.033 -19.6135V-19.5736ZM609.313 -20.2538L609.913 -20.414L610.033 -20.0939L609.473 -19.9338L609.273 -20.2538H609.313Z" fill="white" stroke="white" stroke-width="0.3" stroke-miterlimit="10"/>
<path d="M424.869 154.419L425.549 153.899L426.83 153.458L431.472 149.937L438.595 145.735L445.478 141.213L453.162 138.732L453.442 140.813L453.282 142.173V143.454L453.722 144.815L454.562 145.735L454.802 145.855L455.603 146.215L456.683 146.335L458.284 146.095L458.364 145.575L458.284 144.895L458.364 144.254L458.724 143.854L459.245 143.734H459.805L461.165 143.414H462.006L462.886 143.494L467.088 144.895L467.728 145.335L467.888 146.055V146.655V147.216L468.409 147.816L468.849 148.016H472.891L473.651 147.736L475.212 146.495L479.453 144.374L481.134 143.054L482.495 141.213L482.695 140.653L482.935 139.372V139.132H482.975L483.615 139.732L483.895 140.293L484.136 141.293L484.696 141.973L485.336 142.534L485.736 143.054L485.856 143.414V143.734L485.816 144.134L485.576 144.534L485.496 144.654L485.896 144.454L486.176 144.134L486.657 143.094L485.496 142.614L485.216 142.414L485.096 141.933V140.733L485.016 140.173L484.776 139.732L484.296 139.132H484.976H485.296L486.537 139.812L487.217 140.052L488.818 140.173L489.458 139.812L489.618 138.852L489.418 138.332L488.658 137.411L488.378 136.931V136.371L488.618 135.931L488.698 135.53L488.297 135.09L490.098 134.05L491.939 133.369L492.939 133.209L493.38 133.289L493.66 133.73V134.65L493.34 135.33L493.26 135.851L493.9 136.331H494.34L495.341 136.211L496.421 136.491H496.941L497.382 136.291L497.742 136.011L500.383 132.769L501.503 132.169H501.984L502.624 132.449L503.184 132.809L503.544 133.289L503.624 134.13L503.424 134.93L503.264 135.771L503.504 136.731L502.024 136.051H501.623L501.423 136.771L502.144 137.091L504.545 137.171L505.185 137.331L506.506 137.932L507.226 137.731L508.106 136.891L508.907 135.811L509.427 134.93L509.667 134.25L509.787 133.73L509.987 133.409L510.507 133.289L510.587 133.409L511.628 134.09L512.308 135.37L512.188 136.291L511.788 137.171L511.668 138.372L511.868 138.892L513.028 140.213L513.229 140.693L513.589 141.893L513.749 142.253L514.349 142.574L515.67 142.454L516.31 142.534L516.91 143.294V145.255L517.511 145.415H517.751L518.831 145.095L522.873 145.255L523.593 144.975L525.034 143.974L525.714 143.654L526.434 143.734L527.235 144.254L527.875 145.095L528.115 146.135L528.235 147.376L528.435 147.536L528.996 148.016L530.916 148.616L531.397 148.936L531.717 149.297L532.077 149.577H532.677L534.118 149.257H534.558L535.118 149.657L535.839 150.657L536.279 151.057L537.319 150.777H537.92L538.24 151.498L538.32 151.778L537.84 152.258L537.719 152.898L538.48 153.739L538.16 153.939L537.799 154.059H537.439H537.079L537.159 154.459V154.619L537.319 154.819L537.079 155.579L536.879 155.979L536.639 156.34L536.239 155.979L535.959 156.14L535.799 156.66L535.719 157.38L536.199 158.02L535.639 159.341L534.278 161.502L535.038 161.302H535.358L535.679 161.502L535.278 162.142L534.678 163.383L534.238 164.063L534.078 164.183L533.678 164.343L533.278 164.503L530.796 167.265L530.876 168.465L531.437 169.306L531.997 169.706L532.197 169.826L532.917 170.186L533.438 170.346L533.358 170.986L532.997 172.227L533.638 172.587L533.998 172.667L534.358 172.587L534.518 172.347L534.878 171.787L535.198 171.547L535.558 171.667L536.279 172.427L536.639 172.667L539.6 172.587L540.001 172.707L540.361 172.827L542.842 172.907L543.522 172.787V172.867L543.442 172.947V173.027L543.482 173.147L544.042 173.427V173.948L543.922 174.508L544.042 174.948H544.483L545.843 174.628H546.403L547.044 175.348L549.125 178.55L548.684 178.83L549.085 179.59L549.805 179.95H552.166L552.246 180.35L552.006 180.831L551.606 181.311V181.511L550.845 181.951L549.765 182.832L549.125 183.832L549.685 184.552L549.405 184.953V185.193L549.725 185.313H550.125L549.845 185.793L550.125 186.033L550.405 186.633L550.685 186.833H551.005L552.166 186.473L552.246 186.393H552.326H552.406L552.486 186.473L553.006 186.713L554.487 187.073H555.127L554.727 187.474L554.647 187.914L554.727 188.394L554.927 188.954L555.207 189.434H555.447L555.567 189.675V190.555L555.287 191.836L555.047 192.556V193.196L556.288 195.277V195.597L556.368 195.997L555.928 196.438L555.007 196.598L554.567 196.518L554.167 196.358H553.767L553.286 196.598L552.966 196.998L552.726 197.518L552.646 198.038L552.806 198.519L552.166 199.079L550.685 199.479L549.965 199.799L549.645 200.319L548.885 200.88L548.524 201.36L548.965 201.88L549.165 202.48V203.081L548.924 203.601L548.684 203.761H548.004L547.724 204.001L547.644 204.161L547.524 204.761L547.444 205.041L547.804 205.322L547.924 205.642L547.844 206.002L547.524 206.362L547.004 206.122L546.924 205.682V205.161L546.804 204.681L546.363 204.241H546.083L545.843 204.521L545.563 204.721L544.803 204.841H544.403L544.242 204.721L543.922 204.561L543.722 204.161L543.602 203.641L543.402 203.401L542.882 203.841L542.162 203.921L541.881 204.401L541.721 205.122L541.441 205.882L540.921 206.402L539.64 207.042L539.08 207.563L538.96 207.883L538.88 208.763L538.8 209.123L538.6 209.443L538.12 209.884L537.92 210.204V210.804V211.284L537.84 211.684L537.599 211.965L536.919 212.285L536.719 212.565V213.285L536.919 213.565L537.039 213.845L536.679 214.566L536.399 214.846L535.879 214.966L535.639 215.126L535.358 215.486L535.238 215.766L535.158 216.046L535.038 216.367L533.838 218.407L533.718 218.928L534.118 219.128L534.878 219.688L535.198 220.168L534.318 220.088V220.408L534.278 220.568L534.198 220.688L534.118 220.888L534.438 221.209L534.038 221.489L533.878 222.009V222.649L534.118 223.33L534.478 223.93L534.838 224.09L535.198 224.17L535.639 224.45L535.879 224.77L536.679 226.371V226.611L536.799 227.331V227.451L536.999 227.612L537.479 227.772L537.679 227.892H537.88H538.08H538.32L538.52 228.212V228.332L538.56 228.612L538.44 228.812L538.28 229.012V229.292L538.2 229.652L538.08 229.813V230.013L538.16 230.413L538.4 230.573L539.08 230.653L539.32 230.853L539.52 231.613L539.32 232.053L538.96 232.374L538.68 232.694L538.24 233.894L537.96 234.415L537.559 234.775L538.12 235.095L537.799 235.935L536.999 236.776L536.199 237.176L535.799 237.096L535.038 236.616H534.678L534.318 236.776L533.878 237.376L533.438 237.576L532.717 237.456L531.997 237.096L531.237 236.936L530.396 237.376L529.996 237.936L529.916 238.296L529.796 238.496L529.276 238.576L528.996 238.496L527.915 237.976L527.275 238.256L526.434 238.937L525.554 239.457L524.834 239.257L524.634 238.776V238.296L524.794 237.816V237.256L524.674 236.776L523.033 233.774L522.673 233.454L522.393 233.214L521.352 232.814L520.952 232.574H520.752L520.632 232.694L520.472 232.974L520.312 233.254L520.072 233.334L519.511 233.214L519.351 233.014L519.271 232.534L519.391 231.773L519.671 231.613L519.832 231.413L519.591 230.613L518.911 229.813L518.191 229.092H517.47L515.91 229.532L515.109 229.292L514.469 228.812L513.949 228.332L512.508 226.211L512.108 225.811L510.907 225.451L510.227 225.05L508.947 223.81L508.346 223.45H508.266H507.626L506.145 223.97L505.385 224.09L504.505 223.97L504.185 223.57V221.609L504.105 221.289L503.784 220.728L503.704 220.448L503.784 220.128L504.105 219.768L504.225 219.488L504.425 218.848L504.585 218.407L504.665 217.967L504.585 217.287L504.064 216.327L502.464 215.646L502.024 214.886L502.184 214.045L503.504 210.764V210.204V209.764V209.283L504.185 207.883H504.385L504.745 208.243L504.825 207.322L505.025 206.242V205.322L504.745 204.921L503.664 205.161L503.264 205.001L503.104 204.201L502.184 204.641L498.542 208.323L498.342 208.723L498.262 209.243L498.342 209.563L498.462 209.844V210.204L498.222 211.884L497.982 212.725L497.662 213.325L497.301 213.565L495.861 213.805L491.099 216.166L490.098 216.327L489.858 216.247L484.736 214.846L482.615 215.166L482.095 215.246L481.654 215.126L479.734 214.086H479.974V213.325L479.734 212.525L479.574 212.445L479.734 211.804L479.894 211.404L480.134 211.084L480.774 210.484L481.574 209.924L482.415 209.523V209.163L482.175 208.723L481.975 208.243L481.414 205.962L481.094 205.802H480.734L480.054 206.162L479.574 205.922L479.654 204.961L480.294 202.841L480.494 201.88L480.654 201.44L481.014 200.92L481.815 200.279L482.135 199.879L482.215 199.319L482.015 198.959L481.574 198.599L481.134 198.318L480.814 198.198L480.374 198.398V198.759V199.119L480.134 199.359L479.494 199.079L478.573 197.078L477.853 196.438L477.133 195.997L476.012 194.757L475.332 194.437L474.611 194.517L472.45 195.437H471.69L471.09 195.157L470.49 194.757L469.769 194.397L468.329 194.237L466.848 194.357L466.368 194.517L466.088 194.837L465.487 195.877L465.327 196.318L465.247 196.478L465.087 196.598H465.047H465.007L464.887 196.958L463.686 195.837L463.366 193.636V191.155L463.086 189.074L462.526 188.074L461.846 187.434L461.085 187.073L460.325 186.913H458.124L457.684 186.593L458.004 185.993V185.553L457.844 185.273L457.364 185.113H456.883L456.523 185.393L456.203 185.753L455.723 186.113L454.242 186.673L453.402 186.753L452.802 186.593L451.321 185.833L450.881 185.473L450.361 184.792L450.2 184.192V182.471L449.24 179.43L448.96 177.869L449.44 176.989L449.04 175.708L448.76 175.228L448.32 175.068L447.839 174.988L447.559 174.668L447.159 173.627L446.679 172.787L446.119 171.747L445.558 171.186L444.678 170.906L441.957 171.747L440.156 172.307L439.356 172.787L438.715 173.467L437.675 175.268L437.235 175.628L436.714 175.508L436.554 175.428L433.833 174.188L433.193 173.667L432.993 173.347L432.553 172.267L432.353 171.907L431.072 170.706L430.832 170.306L430.712 169.946L430.552 169.626L430.112 169.386H429.791L429.151 169.426H428.871L428.351 169.306L428.111 169.185L427.91 168.865L427.63 168.185L427.47 168.025L427.07 167.825L426.95 167.625V167.385L427.27 166.784V166.424L426.63 164.063L426.83 163.583L427.63 162.783L427.83 162.462L427.71 161.382L427.19 160.582L425.95 159.221L425.629 158.181L425.269 155.779L424.749 154.539L424.869 154.419Z" fill="white" stroke="white" stroke-width="0.3" stroke-miterlimit="10"/>
</g>
<path opacity="0.8" d="M584.699 34.3669L584.779 35.9676V36.8881L584.699 37.7684L584.459 38.7288L583.979 39.9694L583.899 40.4096V41.0899L584.059 41.45L584.219 41.7302L584.339 42.2104L584.659 46.2923V48.3331L584.299 50.1339L583.538 52.0148L580.737 56.4567L580.457 57.1771L580.097 58.1375L579.817 60.0184L579.497 66.101L579.256 68.1019L578.616 69.3025L577.416 68.9023L576.895 68.7022L575.215 68.9423L573.414 68.3821H570.172L569.012 68.7823L568.412 69.2224L567.811 69.6627L568.091 70.2629L568.011 70.7832L567.851 71.2634V71.7436L568.091 72.1037L569.212 73.0642L567.331 74.0246H566.771L567.211 74.945L567.331 75.9454V76.9458L567.571 77.7863L568.252 78.5866L569.172 79.0268L571.893 79.4271L573.654 80.1073L574.614 80.2674L575.495 80.1874L576.335 79.9472L576.655 79.6271L576.855 79.2669L577.055 79.1469L579.136 82.5484L579.617 83.989L579.336 86.03L578.656 87.6307L578.416 88.471V89.5115L578.696 90.712L578.896 91.0723L578.976 91.2322L578.896 91.5124L577.376 92.4329L577.015 92.873L576.215 94.1936L575.535 94.7939L574.054 95.4342L573.374 96.1144L572.614 97.6752L572.173 98.0754L570.132 98.3155H569.932L569.372 98.6356L568.812 99.2358L568.652 99.556L568.372 100.276L568.091 100.636L567.691 100.837H567.331L567.011 100.997L566.771 101.557L566.851 102.397L567.411 102.797L568.172 103.038L570.413 104.278L571.293 105.199L571.453 105.479L571.533 105.839V106.519L571.333 106.679H571.053L570.773 107.039L569.972 108.44L569.172 109.4L568.252 109.921L565.21 110.001L561.809 111.161L560.128 112.442L559.568 112.682H558.887L556.686 112.042L556.966 113.282L556.806 113.842L555.526 114.203L555.406 113.362L554.846 113.042L553.525 112.842L553.365 112.642L553.005 111.961L552.765 111.721H552.485L551.404 111.922L550.244 111.441L549.163 110.561L548.042 110.041L546.882 110.681L547.322 111.001L548.603 112.362L549.043 113.082L548.483 112.962L547.682 112.762L546.562 112.482L545.161 112.842L544.681 113.122L543.961 113.642L543.28 113.922L541.88 114.163L541.32 114.563L541.199 115.043L541.96 115.643L542.4 116.724L542.32 117.844L541.76 118.404L541.56 118.604V119.205L541.88 119.325H542.88L543.28 119.485L544.041 120.045L544.401 120.405L543.961 121.966L544.761 122.966L547.082 123.967L546.682 125.207L546.482 126.008L546.642 126.688L548.923 129.81L550.284 131.41L550.524 133.211L550.684 134.212L550.564 135.292L550.284 136.452V137.453L550.764 138.053L550.564 138.533L550.444 139.734L550.244 140.414L549.923 140.894L549.043 141.495L548.683 141.855L546.922 145.096L546.202 145.977L545.842 146.577L545.561 147.657L545.481 148.858L545.721 149.858L546.522 150.299L548.243 149.138L549.043 149.418L548.763 149.578L547.962 150.219L548.683 150.899L548.163 151.579L546.202 152.62L543.04 155.101L542.6 155.621L541.96 157.022L541.52 157.502L540.879 157.582L540.439 157.182L540.039 156.661L539.559 156.381L538.598 156.902L538.798 158.182L539.319 159.743V161.104L539.839 161.023L540.719 160.583L541.199 160.463L541.68 160.543L542.56 160.823L543.801 160.663L543.881 160.943L543.681 161.384L543.56 161.824V162.624L543.681 163.064L543.961 163.344L544.761 163.865L545.882 164.265L545.801 164.465L545.601 164.745L545.521 165.105L545.801 166.226V166.666L545.601 167.226L545.201 167.666L544.441 167.586L543.961 167.866L543.641 168.427V168.907L543.761 169.387L543.601 170.027L543.12 170.468L542.6 170.348L542.76 171.028L543.04 171.468L543.36 171.708L543.601 172.028L543.521 172.749L542.84 172.869L540.359 172.789L539.999 172.669L539.599 172.549L536.637 172.629L536.277 172.388L535.557 171.628L535.197 171.508L534.877 171.748L534.517 172.308L534.356 172.549L533.996 172.629L533.636 172.549L532.996 172.188L533.356 170.948L533.436 170.308L532.916 170.147L532.195 169.787L531.995 169.667L531.435 169.267L530.875 168.427L530.795 167.226L533.276 164.465L533.676 164.305L534.076 164.145L534.236 164.025L534.677 163.344L535.277 162.104L535.677 161.464L535.357 161.264H535.037L534.276 161.464L535.637 159.303L536.197 157.982L535.717 157.342L535.797 156.621L535.957 156.101L536.237 155.941L536.637 156.301L536.878 155.941L537.078 155.541L537.318 154.781L537.238 154.581V154.42L537.118 154.02H537.478H537.838L538.198 153.9L538.518 153.7L537.758 152.86L537.878 152.22L538.358 151.739L538.278 151.459L537.958 150.779H537.358L536.317 151.019L535.877 150.619L535.157 149.618L534.597 149.298H534.156L532.716 149.538H532.115L531.755 149.298L531.435 148.938L530.955 148.618L529.034 148.018L528.474 147.537L528.274 147.377L528.154 146.137L527.913 145.096L527.273 144.256L526.473 143.736L525.753 143.656L525.072 143.976L523.632 144.976L522.911 145.256L518.87 145.096L517.789 145.376H517.549L516.949 145.296V143.336L516.348 142.575L515.708 142.495L514.388 142.615L513.787 142.295L513.627 141.935L513.267 140.734L513.067 140.254L511.906 138.934L511.706 138.413L511.826 137.213L512.227 136.332L512.347 135.412L511.666 134.131L510.626 133.451L510.546 133.331L510.026 133.451L509.825 133.771L509.705 134.291L509.465 134.972L508.945 135.852L508.145 136.933L507.264 137.773L506.544 137.973L505.223 137.373L504.583 137.213L502.182 137.133L501.462 136.813L501.662 136.172H502.062L503.543 136.813L503.303 135.852L503.463 135.012L503.663 134.212L503.583 133.371L503.223 132.891L502.662 132.531L502.022 132.291H501.542L500.421 132.811L497.78 136.052L497.42 136.332L496.98 136.492H496.46L495.379 136.252L494.379 136.452H493.938L493.298 135.932L493.378 135.412L493.658 134.732V133.811L493.418 133.371L492.978 133.291L491.978 133.451L490.137 134.131L488.336 135.172L488.736 135.612L488.656 136.012L488.416 136.452V137.013L488.656 137.493L489.416 138.413L489.616 138.934L489.456 139.894L488.816 140.254L487.215 140.134L486.535 139.894L485.294 139.214H484.974H484.294L484.174 139.054L483.894 138.413L483.814 137.733V137.173L483.774 136.733L483.414 136.492L483.013 137.013L482.253 137.253L479.172 137.173L478.451 136.933L477.771 136.492L475.89 134.852L475.33 134.612L473.889 134.452L473.409 134.732L472.409 136.653L472.009 137.213L471.488 137.493L470.248 137.613L469.808 137.893L469.447 137.973L469.087 137.813L468.167 136.813L466.086 135.772L464.765 134.492L464.245 134.412L462.845 134.932H462.084L460.163 134.532L459.563 134.212L459.043 133.451L458.603 132.571L458.202 131.93L457.082 130.93L456.722 130.33L456.602 129.449L456.962 128.969L460.483 126.808L469.647 125.808L470.408 125.928L470.928 126.208L471.488 126.728L471.969 127.408L472.289 128.209L471.929 128.369L471.328 128.769L471.088 128.969V129.289L474.37 129.649L476.05 130.33L477.451 131.57L477.891 132.411L478.572 134.291L479.092 134.972L479.892 135.212L481.693 134.972L482.373 135.332L483.054 135.092H484.174L484.534 135.052L485.215 134.892L485.695 133.651L485.415 132.451L484.694 131.57L483.734 131.01H483.414L482.173 130.73L480.772 130.09H480.252L479.172 130.17L478.652 130.09L477.811 129.609L475.09 127.088L476.891 126.208L477.811 125.968L480.893 126.128L481.773 126.408L482.573 127.088L482.413 126.088L481.973 125.688H481.853L480.492 125.608L480.132 125.448L479.772 125.207L479.492 124.887L479.332 124.407L479.212 123.767V123.126L479.292 122.646L479.732 122.166L480.332 121.926L481.493 121.846L481.133 121.486L480.252 120.885L477.891 120.165L477.411 119.445L477.211 117.604L476.651 116.444L475.81 115.683L474.85 115.003L474.21 115.483L473.329 115.763H472.449L471.768 115.963L471.648 116.203H471.408H471.088L470.768 114.683L471.768 114.002L473.929 113.362L474.21 112.962H474.89L476.05 113.162L477.011 113.682H477.171H477.411L477.771 113.522L478.171 113.162L477.931 112.642L477.051 111.441L476.811 111.241L476.611 111.001L476.531 110.641L476.611 110.201L476.771 109.881L476.931 109.681L477.011 109.52L476.891 108.68L476.251 106.519L475.85 105.599L476.05 105.199L476.29 104.838L477.891 105.199L479.212 104.998L480.372 104.238L485.255 98.2754L489.416 92.1126L492.898 85.8298L494.979 79.7471L495.259 78.1465V77.7462L495.939 76.3057L497.38 65.4208L497.98 62.6195L498.06 61.7792L498.38 60.0184L499.821 56.2567L500.141 54.4159V53.3754L500.301 52.0148L500.541 50.8542L500.941 50.374L503.062 50.6941L503.383 50.374L503.623 50.8142L503.102 52.535L503.903 53.5754L505.303 53.9756L506.664 53.8956L507.424 53.4554L508.865 52.1749L509.585 51.8947L510.946 51.7346L512.307 51.1344L519.19 44.9716L519.71 44.3714L520.35 43.8511L521.911 43.491L522.591 43.0508L523.311 41.6502L524.232 37.7684L524.912 36.0077L526.113 34.607L526.833 33.9667L528.074 33.4065L528.634 32.7662L529.154 32.0059L529.754 31.3656L530.435 31.1255L532.075 30.8453L533.276 29.8048L538.758 27.6039L539.999 26.7235L540.799 26.6435L543.08 25.4429L546.362 25.2829L550.083 25.1628L553.085 25.0827L553.445 25.2028L554.045 25.723L554.365 25.8431L554.646 25.7631L555.526 25.0827L560.608 23.6021L568.692 22.3615L572.053 22.9217L572.774 23.2419L573.374 23.8422L574.534 28.5643L574.694 28.6444L575.535 29.2446L575.615 29.4047L575.775 29.5248L575.935 29.8048L576.175 30.085L577.256 30.4451L578.616 31.2055L579.216 31.0054L579.497 31.3255L579.897 31.4456L580.297 31.3255L580.577 31.0054H580.817V31.4056L580.537 31.6457L580.417 31.8057V32.0459L580.577 32.5261L580.657 33.4464L581.698 34.0468L584.179 34.687H584.579L584.699 34.3669ZM453.16 138.733L458.683 136.933L459.203 136.532L459.723 136.452L461.884 137.853L465.206 138.814L466.286 139.774L467.006 140.094H468.407L469.728 140.454L470.568 140.334L473.889 138.894L474.33 138.333L474.53 137.253L474.85 136.773H475.57L476.371 137.133L476.851 137.453L477.091 137.813L477.491 138.653L477.811 138.974L478.211 139.094L479.052 139.214L479.412 139.494L479.652 139.574L480.853 139.654L481.453 138.773L481.653 138.573L482.333 138.653L483.094 139.094V139.334L482.813 140.614L482.613 141.175L481.253 143.015L479.572 144.336L475.33 146.457L473.769 147.698L473.009 147.938H468.967L468.527 147.818L468.007 147.217V146.657V146.057L467.847 145.336L467.206 144.896L463.005 143.496L462.124 143.336H461.284L459.923 143.696H459.363L458.843 143.856L458.483 144.256L458.402 144.896L458.483 145.577L458.402 146.097L456.802 146.337L455.721 146.217L454.921 145.857L454.681 145.737L453.841 144.816L453.36 143.456V142.175L453.52 140.814L453.24 138.693L453.16 138.733ZM476.651 121.686L478.091 122.086L478.732 122.566L478.812 123.447L478.451 124.007L477.891 124.407L477.291 124.647L474.65 125.167H474.049L472.769 124.647L472.049 124.127L471.729 123.367L471.528 122.646L471.008 122.206L469.647 121.686L469.407 121.446L469.207 121.166L468.927 120.926H468.487L467.647 121.886L467.447 122.086L465.926 122.166L465.206 121.966L464.765 121.286L464.845 119.525L466.086 118.724L468.967 118.324H469.127H469.688L470.128 118.565L473.409 118.645L474.17 118.805L474.73 119.245L476.01 120.806L476.17 121.086L476.371 121.366L476.731 121.646L476.651 121.686ZM505.944 41.9703V42.3304H506.664L506.424 43.0908L505.984 43.9712L505.023 45.4518L503.423 46.7725L502.662 48.2531L501.502 48.5732L500.301 48.093L499.661 46.6524L499.861 45.1718L500.541 43.491L501.382 42.1304L502.982 40.7297L503.783 39.009L504.623 37.6083H505.704L505.824 38.0085L505.904 38.2887V38.5687L505.704 38.8489L506.184 39.6493L506.544 40.6497V41.5301L505.944 41.9703ZM505.464 35.7275L506.904 33.8467L509.145 31.7658L511.466 30.4052L513.187 30.6453V31.0455H512.267L511.826 31.2856L510.826 31.6857L508.145 34.3268L507.384 35.4473L506.504 36.2077L505.423 35.7275H505.464ZM524.112 23.7622L524.552 23.4021L529.634 22.4016L528.834 23.5221L527.874 23.8422L525.873 23.9222L525.953 24.1223L526.033 24.5225L526.113 24.7226L525.673 24.9627L524.232 25.0827L522.711 25.7631L521.511 26.0832L516.789 28.1642H515.828L515.428 27.2838L515.828 26.2833L517.669 25.643L518.269 25.0827H519.03L523.632 24.1624L524.192 23.7221L524.112 23.7622ZM532.676 21.6012L540.879 21.2411L542.28 21.9613L538.878 22.7618H535.357L534.476 23.0018L532.836 23.7622L531.955 23.562L531.355 22.7217L531.555 21.8814L532.115 21.4012L532.636 21.6413L532.676 21.6012ZM551.084 19.2402L554.485 18.9199L555.446 19.2402V19.6404H554.966L549.083 21.5611L548.403 22.4415L548.203 22.0814V21.8814L548.403 21.6012L548.042 20.8008L548.883 20.0406L550.164 19.4803L551.084 19.2402ZM558.927 16.4789L559.408 16.3989L561.288 17.2393H561.128L561.008 17.3193L560.888 17.4794L560.808 17.6794L559.568 17.2793L558.967 16.8791L558.887 16.4789H558.927Z" fill="white"/>
<path d="M405.051 166.85L398.005 167.756L397.804 190H411.694L405.051 166.85Z" fill="#FF78B9"/>
<path d="M401.728 168.864C394.481 169.87 390.455 168.662 387.334 166.045C387.033 165.743 386.932 165.341 387.234 164.938C387.334 164.737 387.536 164.636 387.737 164.636L414.209 161.113C414.612 161.013 415.014 161.315 415.014 161.717C415.014 161.918 415.014 162.12 414.914 162.22C412.599 165.643 408.975 167.857 401.728 168.864Z" fill="white"/>
<path d="M399.213 150.041C401.125 149.739 402.937 151.148 403.239 153.06L403.943 158.596L396.898 159.502L396.193 153.966C395.891 152.054 397.3 150.343 399.213 150.041Z" fill="#83DDC5"/>
<path d="M399.614 153.362C400.419 153.261 401.124 153.865 401.224 154.57L401.426 155.778C401.526 156.583 401.023 157.288 400.218 157.388C399.413 157.489 398.708 156.885 398.607 156.18L398.406 154.973C398.305 154.167 398.909 153.463 399.614 153.362Z" fill="#4F5D7F"/>
<path d="M400.118 156.785C390.053 158.194 385.02 161.213 381.799 165.843C381.396 166.246 381.497 166.85 381.9 167.253C382.202 167.454 382.504 167.555 382.806 167.454L419.746 162.421C420.349 162.421 420.752 161.918 420.752 161.415C420.752 161.113 420.551 160.71 420.249 160.609C415.82 156.986 410.183 155.375 400.118 156.785Z" fill="#EBEFF7"/>
<path d="M386.227 165.641C386.616 165.641 386.931 165.326 386.931 164.937C386.931 164.547 386.616 164.232 386.227 164.232C385.837 164.232 385.522 164.547 385.522 164.937C385.522 165.326 385.837 165.641 386.227 165.641Z" fill="#FFD836"/>
<path d="M390.556 165.038C390.945 165.038 391.26 164.723 391.26 164.333C391.26 163.944 390.945 163.629 390.556 163.629C390.167 163.629 389.851 163.944 389.851 164.333C389.851 164.723 390.167 165.038 390.556 165.038Z" fill="#AEC7FF"/>
<path d="M414.21 161.817C414.599 161.817 414.914 161.502 414.914 161.113C414.914 160.724 414.599 160.408 414.21 160.408C413.821 160.408 413.505 160.724 413.505 161.113C413.505 161.502 413.821 161.817 414.21 161.817Z" fill="#F47FFF"/>
<path opacity="0.45" d="M400.925 175.506C401.327 174.801 402.233 174.6 402.938 175.103L403.34 175.405C404.045 175.808 404.246 176.714 403.743 177.418C403.34 178.123 402.434 178.324 401.73 177.821L401.327 177.519C400.623 177.016 400.421 176.11 400.925 175.506Z" fill="#4762B0"/>
</g>
<defs>
<clipPath id="clip0_206_9924">
<rect width="660" height="190" rx="16" fill="white"/>
</clipPath>
</defs>
</svg>
