<svg height="24" viewBox="0 0 24 24" width="24" xmlns="http://www.w3.org/2000/svg"><g fill="none" fill-rule="evenodd"><g transform="translate(12 12)"><path d="m8.08958333 2.91041667c-.66458333-.66458334-1.57666666-1.07708334-2.58958333-1.07708334-2.02583333 0-3.66208333 1.64083334-3.66208333 3.66666667s1.63625 3.66666667 3.66208333 3.66666667c1.70958333 0 3.135-1.16875 3.54291667-2.75h-.95333334c-.37583333 1.06791666-1.39333333 1.83333333-2.58958333 1.83333333-1.51708333 0-2.75-1.23291667-2.75-2.75s1.23291667-2.75 2.75-2.75c.76083333 0 1.43916667.31625 1.93416667.81583333l-1.47583334 1.47583334h3.20833334v-3.20833334z" fill="#faa61a" fill-rule="nonzero"/><path d="m0 0h11v11h-11z" transform="matrix(-1 0 0 1 11 0)"/></g><path d="m0 0h24v24h-24z"/></g></svg>