<svg width="135" height="121" viewBox="0 0 135 121" fill="none" xmlns="http://www.w3.org/2000/svg">
<g clip-path="url(#clip0_1473_119344)">
<path opacity="0.2" d="M44.6491 30.562C44.6491 27.2491 42.2489 24.5 39.2839 24.5H33.707C30.742 24.5 28.3418 27.1786 28.3418 30.562C28.3418 31.1964 27.9182 31.7604 27.2829 31.7604H25.5886C23.0472 31.7604 21 34.0865 21 36.906H52.0615C52.0615 34.6504 50.4378 32.7472 48.3906 32.7472H46.6963C45.4962 32.7472 44.5785 31.7604 44.6491 30.562C44.6491 30.562 44.6491 30.6325 44.6491 30.562Z" fill="white"/>
<path opacity="0.2" d="M113.562 85.027H82.5C82.5706 82.2074 84.9002 80.0222 87.724 80.0927H93.3715C93.8657 80.0927 94.2893 79.7403 94.2893 79.2469C94.3599 75.8634 97.2542 73.1848 100.643 73.2553H100.925C104.314 73.1143 107.137 75.7929 107.279 79.2469V81.0091C107.279 81.9959 108.126 82.7713 109.114 82.7008H111.161C112.432 82.6303 113.491 83.6172 113.562 85.027C113.562 84.9565 113.562 84.9565 113.562 85.027Z" fill="white"/>
<path opacity="0.1" d="M38.5615 107.527H7.5C7.57059 104.707 9.90021 102.522 12.724 102.593H18.3715C18.8657 102.593 19.2893 102.24 19.2893 101.747C19.3599 98.3634 22.2542 95.6848 25.6427 95.7553H25.9251C29.3137 95.6143 32.1374 98.2929 32.2786 101.747V103.509C32.2786 104.496 33.1258 105.271 34.1141 105.201H36.1613C37.432 105.13 38.4909 106.117 38.5615 107.527C38.5615 107.456 38.5615 107.456 38.5615 107.527Z" fill="white"/>
<path opacity="0.1" d="M197.25 20.75H97.5C97.5 12.4085 104.978 5.71342 114.298 5.71342H132.476C134.086 5.71342 135.352 4.61587 135.352 3.07928C135.352 -7.01828 144.441 -15.25 155.716 -15.25H156.522C167.797 -15.25 176.886 -7.01828 176.886 3.07928V8.56708C177.001 11.5305 179.647 13.8354 182.753 13.8354H189.426C193.568 13.6159 197.135 16.7988 197.25 20.75Z" fill="white"/>
<path fill-rule="evenodd" clip-rule="evenodd" d="M58.2111 43.7233L95.3148 30.21L89.0905 42.3444C87.8803 44.723 85.8055 46.55 83.3158 47.4463L53.7849 58.2362L52.7476 55.4439L58.2111 43.7233Z" fill="#DAE2ED"/>
<path fill-rule="evenodd" clip-rule="evenodd" d="M49.7066 42.4818L99.0169 24.5216C99.2244 24.4527 99.4318 24.5561 99.501 24.7284C99.5356 24.8318 99.5356 24.9353 99.501 25.0042L97.5991 28.8307C97.3917 29.2788 97.0113 29.5891 96.5618 29.7614L95.3515 30.2096L58.2132 43.7228L52.7496 55.4435L53.7524 58.2358L54.5132 60.3386L42.0992 64.8545L40.301 59.9594L47.5627 44.4123C48.0122 43.516 48.773 42.8265 49.7066 42.4818Z" fill="#ECEFF6"/>
<path fill-rule="evenodd" clip-rule="evenodd" d="M52.782 55.4439L58.2455 43.7233L95.3493 30.21L94.1044 32.6576L59.5595 45.2401L54.511 56.0989L55.1334 57.7536L53.8194 58.2018L52.782 55.4439Z" fill="#C5CEDD"/>
<path fill-rule="evenodd" clip-rule="evenodd" d="M38.9165 54.4433C33.3146 66.2674 38.3632 80.3667 50.224 85.9857C62.0847 91.6047 76.2277 86.5373 81.8641 74.7132C87.5006 62.8891 82.4174 48.7898 70.5567 43.1708C58.6613 37.6552 44.5529 42.6881 38.9165 54.4433Z" fill="#4F5D7F"/>
<path fill-rule="evenodd" clip-rule="evenodd" d="M46.4196 58.0278C42.7888 65.7152 46.0738 74.8849 53.785 78.5045C61.4962 82.1242 70.6944 78.8493 74.3252 71.1619C77.9561 63.4745 74.671 54.3048 66.9598 50.6852C59.2832 47.1 50.1196 50.3749 46.4196 58.0278Z" fill="#7687B2"/>
<path fill-rule="evenodd" clip-rule="evenodd" d="M44.5186 45.8588C44.4841 49.4784 54.028 58.3379 60.2869 63.233C66.0616 63.2675 80.3775 62.6814 83.7317 59.4065C84.0429 59.1308 84.2504 58.7516 84.285 58.3379C84.285 58.2 84.2504 58.0621 84.2158 57.9242C82.2102 50.7884 77.5074 45.1694 71.0065 42.1013C62.8112 38.2059 53.0598 39.309 44.899 45.0315C44.657 45.2038 44.5186 45.5141 44.5186 45.8588Z" fill="#FF7F14"/>
<path fill-rule="evenodd" clip-rule="evenodd" d="M59.8717 64.4406C59.8717 64.4406 82.6941 50.7895 80.3773 47.9627C77.9913 45.0326 74.9483 42.654 71.525 41.0337C62.2923 36.6557 52.0913 38.5517 44.2418 44.0673C38.7091 47.9627 59.8717 64.4406 59.8717 64.4406Z" fill="#FF903E"/>
<path fill-rule="evenodd" clip-rule="evenodd" d="M48.5645 59.0294C45.4869 65.5447 48.2533 73.301 54.7888 76.3691C61.3243 79.4372 69.1047 76.6794 72.1822 70.164C75.2598 63.6487 72.4934 55.8924 65.9579 52.8243C59.4224 49.7907 51.6766 52.5486 48.5645 59.0294Z" fill="#EBEFF7"/>
<path fill-rule="evenodd" clip-rule="evenodd" d="M50.4655 59.9248C47.8721 65.406 50.2235 71.9213 55.687 74.5067C61.1506 77.0922 67.7207 74.748 70.3141 69.3014C72.9076 63.8547 70.5562 57.3049 65.0926 54.7195C59.5945 52.134 53.059 54.4782 50.4655 59.9248Z" fill="#DAE2ED"/>
<path fill-rule="evenodd" clip-rule="evenodd" d="M66.9259 59.9592L60.9783 56.4085C60.5979 56.2016 60.1484 56.2016 59.8026 56.4085L53.7512 59.7868C53.3708 59.9936 53.1287 60.4073 53.1287 60.821L53.0596 67.75C53.0596 68.1636 53.2671 68.5773 53.6474 68.7841L59.5951 72.3348C59.9755 72.5416 60.425 72.5416 60.7708 72.3348L66.8222 68.922C67.2026 68.7152 67.4446 68.3015 67.4446 67.8879L67.5138 60.9589C67.5138 60.5797 67.2717 60.166 66.9259 59.9592Z" fill="#C5CEDD"/>
<path fill-rule="evenodd" clip-rule="evenodd" d="M56.9325 62.9923C56.0334 64.8883 56.8633 67.129 58.7652 68.0253C60.6671 68.9216 62.9147 68.0942 63.8138 66.1983C64.7129 64.3023 63.8829 62.0615 62.0157 61.1653C60.1138 60.3034 57.8315 61.0963 56.9325 62.9923Z" fill="#B7C2CE"/>
<path fill-rule="evenodd" clip-rule="evenodd" d="M30.7568 86.9863H32.8316C33.3502 86.9863 33.7998 87.3999 33.7998 87.9515V92.2606C33.7652 93.4326 34.6643 94.4323 35.8745 94.5013C37.0848 94.5702 38.053 93.6395 38.1222 92.4329C38.1222 92.364 38.1222 92.3295 38.1222 92.2606V74.128C38.1222 72.818 37.0848 71.7149 35.7362 71.7149C35.7362 71.7149 35.7362 71.7149 35.7016 71.7149H28.3708C27.0568 71.7149 25.9848 72.7836 25.9848 74.0935C25.9848 74.0935 25.9848 74.0935 25.9848 74.128V82.1946C25.9502 84.849 28.0942 86.9863 30.7568 86.9863ZM25.7773 64.062H29.9269C29.9269 65.5788 29.9269 67.0956 29.9269 68.6124H25.8465C25.8811 67.1301 25.8811 65.5788 25.7773 64.062Z" fill="#7196FF"/>
<path fill-rule="evenodd" clip-rule="evenodd" d="M27.2627 73.9899H44.7599C44.9674 73.9899 45.1403 73.8175 45.1403 73.6107C45.1403 73.4038 44.9674 73.2315 44.7599 73.2315H27.2627C27.0552 73.2315 26.8823 73.0591 26.8823 72.8523V70.06C26.8823 69.8531 26.7094 69.6808 26.502 69.6808C26.2945 69.6808 26.1216 69.8531 26.1216 70.06V72.8523C26.1562 73.4728 26.6403 73.9899 27.2627 73.9899Z" fill="#E4E9F7"/>
<path fill-rule="evenodd" clip-rule="evenodd" d="M25.2236 71.7497H27.8171C28.0246 71.7497 28.1975 71.5773 28.1975 71.3705V63.3729C28.1975 63.166 28.0246 62.9937 27.8171 62.9937H25.2236C25.0162 62.9937 24.8433 63.166 24.8433 63.3729V71.3705C24.8433 71.5773 24.9816 71.7497 25.2236 71.7497C25.1891 71.7497 25.1891 71.7497 25.2236 71.7497Z" fill="black"/>
<path fill-rule="evenodd" clip-rule="evenodd" d="M25.8115 64.062H24.29C24.0826 64.062 23.9097 64.2344 23.9097 64.4412C23.9097 65.7167 23.9097 66.9922 23.9097 68.2677C23.9097 68.4745 24.0826 68.6469 24.29 68.6469H25.7078C26.8489 68.6469 27.8171 67.854 28.0246 66.7509C28.2321 65.5099 27.4022 64.3378 26.1573 64.0965C26.0536 64.0965 25.9153 64.062 25.8115 64.062Z" fill="#7196FF"/>
<path fill-rule="evenodd" clip-rule="evenodd" d="M33.7649 71.7497H36.3584C36.5658 71.7497 36.7387 71.5773 36.7387 71.3705V63.3729C36.7387 63.166 36.5658 62.9937 36.3584 62.9937H33.7649C33.5574 62.9937 33.3845 63.166 33.3845 63.3729V71.3705C33.3845 71.5773 33.5574 71.7497 33.7649 71.7497Z" fill="black"/>
<path fill-rule="evenodd" clip-rule="evenodd" d="M27.9907 65.8202C29.9617 63.1313 33.1084 61.5111 36.4626 61.5111H50.6402C54.0981 61.5456 56.8991 64.3379 56.8991 67.8196V79.4024C56.8991 81.712 55.0318 83.608 52.715 83.608H32.2785C28.786 83.5735 25.9851 80.7813 25.9851 77.2995V72.0252C25.9505 69.7845 26.6767 67.6128 27.9907 65.8202Z" fill="#AEC7FF"/>
<path fill-rule="evenodd" clip-rule="evenodd" d="M46.3525 61.5111H50.6057C54.0982 61.5456 56.8992 64.3379 56.8992 67.8196V77.8856C56.8992 80.1952 55.0319 82.0912 52.7151 82.0912H46.3179C46.4216 75.2657 46.4216 68.3711 46.3525 61.5111ZM59.8384 76.5067L64.2646 77.8166C65.959 78.2992 66.9272 80.0229 66.4431 81.712C65.959 83.4012 64.23 84.3664 62.5356 83.8838C61.4637 83.5736 60.6338 82.7807 60.3571 81.712L59.0431 77.2995C58.9394 76.9893 59.1123 76.6101 59.4235 76.5067C59.5618 76.4722 59.7001 76.4722 59.8384 76.5067Z" fill="#7196FF"/>
<path fill-rule="evenodd" clip-rule="evenodd" d="M49.5671 86.9864H51.6419C52.1606 86.9864 52.6101 87.4001 52.6101 87.9517V92.2608C52.5755 93.4328 53.4746 94.4325 54.6849 94.5015C55.8606 94.5359 56.8634 93.6397 56.9325 92.4331C56.9325 92.3642 56.9325 92.3297 56.9325 92.2608V70.7499C56.9325 69.4399 55.8606 68.3368 54.5466 68.3368H47.2157C45.9017 68.3368 44.8298 69.4399 44.8298 70.7499V82.1948C44.7606 84.8491 46.9045 86.9864 49.5671 86.9864Z" fill="#7196FF"/>
<path fill-rule="evenodd" clip-rule="evenodd" d="M35.8381 73.9894H53.3353C53.5428 73.9894 53.7157 73.817 53.7157 73.6102C53.7157 73.4033 53.5428 73.231 53.3353 73.231H35.8381C35.6307 73.231 35.4578 73.0586 35.4578 72.8518V70.0595C35.4923 69.8527 35.3195 69.6803 35.112 69.6458C34.9045 69.6114 34.7316 69.7837 34.697 69.9906C34.697 70.025 34.697 70.025 34.697 70.0595V72.8518C34.697 73.4723 35.2157 73.9549 35.8381 73.9894Z" fill="#E4E9F7"/>
<path fill-rule="evenodd" clip-rule="evenodd" d="M33.7649 71.7497H36.3584C36.5658 71.7497 36.7387 71.5773 36.7387 71.3705V63.3729C36.7387 63.166 36.5658 62.9937 36.3584 62.9937H33.7649C33.5574 62.9937 33.3845 63.166 33.3845 63.3729V71.3705C33.3845 71.5773 33.5574 71.7497 33.7649 71.7497Z" fill="black"/>
<path fill-rule="evenodd" clip-rule="evenodd" d="M33.6608 64.0621H42.2019C43.6197 64.0621 44.7608 62.9245 44.7608 61.5111H50.1206V72.6113H44.7954C44.3113 69.819 41.8561 68.6125 38.9169 68.6125H33.7299C32.5888 68.6125 31.6206 67.8196 31.4131 66.7165C31.2056 65.4755 32.0355 64.3034 33.2804 64.0621C33.3841 64.0966 33.5225 64.0621 33.6608 64.0621Z" fill="#7196FF"/>
<path fill-rule="evenodd" clip-rule="evenodd" d="M53.3018 61.6486H33.799C30.3065 61.6486 27.4709 58.8219 27.4709 55.3401V43.6195C27.5055 40.1377 30.3065 37.311 33.799 37.311H53.3018C56.7943 37.311 59.5952 40.1377 59.6298 43.6195V55.3401C59.5952 58.8219 56.7943 61.6486 53.3018 61.6486Z" fill="#80A7FF"/>
<path fill-rule="evenodd" clip-rule="evenodd" d="M49.1873 61.6479H29.6845C26.192 61.6479 23.3564 58.8212 23.3564 55.305V43.5843C23.391 40.1026 26.192 37.3103 29.6845 37.2758H49.1873C52.6798 37.2758 55.5153 40.1026 55.5153 43.5843V55.305C55.5153 58.8212 52.6798 61.6479 49.1873 61.6479Z" fill="#9CB8FF"/>
<path fill-rule="evenodd" clip-rule="evenodd" d="M57.7278 53.8928H53.0596V42.5168H57.7278C60.0446 42.5168 61.9465 44.4128 61.9465 46.7225V49.6871C61.9465 51.9968 60.0446 53.8928 57.7278 53.8928Z" fill="#9CB8FF"/>
<path fill-rule="evenodd" clip-rule="evenodd" d="M53.0596 51.3414V45.0329C53.0596 44.7916 53.2325 44.6192 53.4745 44.6192H57.6932C58.8689 44.6192 59.8026 45.55 59.8026 46.722V49.6867C59.8026 50.8587 58.8689 51.7895 57.6932 51.7895H53.4745C53.2671 51.7895 53.0596 51.5827 53.0596 51.3414C53.0596 51.3414 53.0596 51.3758 53.0596 51.3414Z" fill="#80A7FF"/>
<path fill-rule="evenodd" clip-rule="evenodd" d="M45.7281 50.2029C44.587 50.2029 43.6533 49.2722 43.6533 48.1346C43.6533 46.997 44.587 46.0662 45.7281 46.0662C46.8692 46.0662 47.8029 46.997 47.8029 48.1346C47.8029 49.2722 46.8692 50.2029 45.7281 50.2029Z" fill="black"/>
<path fill-rule="evenodd" clip-rule="evenodd" d="M23.182 43.6189H37.5325C38.9157 43.6189 40.0568 44.7565 40.0568 46.1354V49.1C40.0568 52.5818 37.2213 55.4085 33.7287 55.443H26.9858C23.4932 55.443 20.6577 52.6162 20.6577 49.1345V46.1699C20.6577 44.7565 21.7988 43.6189 23.182 43.6189Z" fill="#CBDAF7"/>
<path fill-rule="evenodd" clip-rule="evenodd" d="M30.7895 55.4443H26.9857C23.4932 55.4443 20.6577 52.6175 20.6577 49.1358V46.1712C20.6577 44.7923 21.7988 43.6547 23.182 43.6547H34.5586C35.9418 43.6547 37.0829 44.7923 37.0829 46.1712V49.1358C37.0829 52.5831 34.282 55.4098 30.7895 55.4443Z" fill="#CBDAF7"/>
<path fill-rule="evenodd" clip-rule="evenodd" d="M29.0974 50.6514H31.8292C32.417 50.6859 32.8665 51.1685 32.832 51.7545C32.7974 52.3061 32.3824 52.7198 31.8292 52.7543H29.0974C28.5095 52.7198 28.06 52.2372 28.0946 51.6511C28.1292 51.0996 28.5441 50.6859 29.0974 50.6514ZM24.118 50.6514H25.1553C25.7432 50.6859 26.1927 51.1685 26.1581 51.7545C26.1236 52.3061 25.7086 52.7198 25.1553 52.7543H24.118C23.5301 52.7198 23.0806 52.2372 23.1151 51.6511C23.1497 51.0996 23.5993 50.6859 24.118 50.6514Z" fill="#9CB8FF"/>
<path fill-rule="evenodd" clip-rule="evenodd" d="M30.2378 57.9249H28.5434C28.163 57.9249 27.8518 57.6147 27.8518 57.2355C27.8518 56.8563 28.163 56.546 28.5434 56.546H30.2378C30.6182 56.546 30.9294 56.8563 30.9294 57.2355C30.9294 57.6147 30.6182 57.9249 30.2378 57.9249Z" fill="#80A7FF"/>
<path opacity="0.4" fill-rule="evenodd" clip-rule="evenodd" d="M22.0764 39.8613C22.0764 39.8613 15.9905 48.9275 22.526 59.3727L26.226 61.51L50.0858 60.4759L55.8951 52.754L50.0858 37.2758H29.6839L22.0764 39.8613Z" fill="#4871E5"/>
<path fill-rule="evenodd" clip-rule="evenodd" d="M41.0942 31.3122C54.9952 31.3122 62.6718 40.6887 62.6718 48.4451C62.6718 56.2014 53.5774 56.8908 51.4335 51.4097L46.9381 39.5167L27.0895 42.1021L22.1101 39.8614C23.9428 36.8278 30.7895 31.3122 41.0942 31.3122Z" fill="#EBEFF7"/>
<path fill-rule="evenodd" clip-rule="evenodd" d="M52.9207 52.754L40.3338 59.3727H22.5254L24.2544 62.2684H53.2665L55.7908 56.5459L52.9207 52.754Z" fill="#EBEFF7"/>
<path fill-rule="evenodd" clip-rule="evenodd" d="M55.8271 43.6536L59.5617 44.8257L61.187 38.2414C61.3944 37.4141 60.8758 36.5867 60.0458 36.4144C59.3197 36.242 58.5589 36.6212 58.2823 37.3106L55.8271 43.6536Z" fill="#DAE2ED"/>
<path fill-rule="evenodd" clip-rule="evenodd" d="M60.5991 40.586L59.5617 44.8606L55.8271 43.6885L57.4178 39.5863C58.4552 39.931 59.5271 40.2758 60.5991 40.586Z" fill="#B7C2CE"/>
<path fill-rule="evenodd" clip-rule="evenodd" d="M53.6128 74.8862L68.1361 78.23L69.381 72.7144L54.8577 69.3706L53.6128 74.8862Z" fill="#B7C2CE"/>
<path fill-rule="evenodd" clip-rule="evenodd" d="M65.6814 79.1951L83.9048 85.4346C84.2506 85.5725 84.631 85.5036 84.9422 85.2623C85.7029 84.6762 87.1207 83.2284 87.8814 79.8501C88.6422 76.4718 88.0197 74.5413 87.5702 73.714C87.3973 73.4037 87.0861 73.1624 86.7057 73.1279L67.5833 70.7838C67.2029 70.7493 66.8571 70.9906 66.7534 71.3698L65.1973 78.3333C65.1282 78.7125 65.3356 79.0572 65.6814 79.1951Z" fill="#C5CEDD"/>
<path fill-rule="evenodd" clip-rule="evenodd" d="M70.7297 73.9891C70.626 74.4717 70.9372 74.9543 71.3868 75.0577C71.8709 75.1612 72.355 74.8509 72.4587 74.4028C72.5625 73.9201 72.2512 73.4375 71.8017 73.3341C71.3176 73.1962 70.8335 73.5065 70.7297 73.9891ZM74.9484 74.5751C74.8447 75.0577 75.1559 75.5404 75.6054 75.6438C76.0896 75.7472 76.5737 75.4369 76.6774 74.9888C76.7811 74.5062 76.4699 74.0236 76.0204 73.9201C75.5363 73.7823 75.0522 74.0925 74.9484 74.5751C74.9139 74.5751 74.9139 74.5751 74.9484 74.5751Z" fill="#B7C2CE"/>
<path fill-rule="evenodd" clip-rule="evenodd" d="M53.7847 73.9549L65.4725 83.0212L68.9305 78.5743L57.2426 69.4735L53.7847 73.9549Z" fill="#D0D9EA"/>
<path fill-rule="evenodd" clip-rule="evenodd" d="M62.8805 82.8485L76.8161 96.1894C77.0927 96.4307 77.4385 96.5686 77.8189 96.4652C78.7525 96.2584 80.6544 95.5344 82.7637 92.8111C84.8731 90.0878 85.1151 88.0539 85.0805 87.1231C85.0805 86.7439 84.8731 86.4337 84.5618 86.2269L68.2058 76.0574C67.8946 75.8506 67.445 75.9195 67.2376 76.2298L62.8805 81.8833C62.5693 82.1591 62.6039 82.6072 62.8805 82.8485Z" fill="#EBEFF7"/>
<path fill-rule="evenodd" clip-rule="evenodd" d="M69.6568 80.2635C69.3456 80.6427 69.4147 81.1943 69.8297 81.5045C70.2101 81.8148 70.7633 81.7458 71.0745 81.3666C71.3858 80.9874 71.3166 80.4359 70.9362 80.1256C70.4867 79.8154 69.9334 79.8843 69.6568 80.2635ZM73.011 83.0213C72.6998 83.4005 72.7689 83.9521 73.1839 84.2623C73.5643 84.5726 74.1175 84.5036 74.4287 84.09C74.74 83.6763 74.6708 83.1592 74.2559 82.849C73.8409 82.5732 73.2876 82.6421 73.011 83.0213Z" fill="#B7C2CE"/>
<path fill-rule="evenodd" clip-rule="evenodd" d="M50.2246 50.7213C50.7433 54.9959 54.0975 58.1329 57.7283 57.6847C61.3591 57.2366 63.8489 53.4102 63.2956 49.1011C62.7423 44.792 59.4227 41.724 55.8264 42.1376C52.2302 42.5513 49.7059 46.4467 50.2246 50.7213Z" fill="#DAE2ED"/>
<path fill-rule="evenodd" clip-rule="evenodd" d="M52.9556 50.479C53.336 53.5126 55.7219 55.7533 58.2808 55.443C60.8397 55.1328 62.6378 52.4095 62.2574 49.3414C61.8771 46.2733 59.4911 44.0671 56.9322 44.4118C54.3733 44.7565 52.5752 47.4454 52.9556 50.479Z" fill="#B7C2CE"/>
<path fill-rule="evenodd" clip-rule="evenodd" d="M54.4417 50.3418C54.7183 52.5136 56.4127 54.0993 58.2454 53.8925C60.0781 53.6857 61.3576 51.7207 61.0809 49.5145C60.8043 47.3082 59.1099 45.757 57.2772 45.9638C55.4445 46.1706 54.165 48.1356 54.4417 50.3418Z" fill="#FF903E"/>
<path fill-rule="evenodd" clip-rule="evenodd" d="M58.4896 51.9276L58.9045 51.7552C59.0083 51.7208 59.0774 51.5829 59.0429 51.445L57.5905 47.7909C57.5559 47.6875 57.4176 47.6185 57.2793 47.653L56.8644 47.8254C56.7606 47.8598 56.6915 47.9977 56.726 48.1356L58.1784 51.7552C58.2475 51.8931 58.3859 51.9621 58.4896 51.9276Z" fill="#FF7F14"/>
<path fill-rule="evenodd" clip-rule="evenodd" d="M53.5777 77.5408H58.3843V61.5111H51.7104V75.6793C51.7104 76.7135 52.5404 77.5408 53.5777 77.5408Z" fill="black"/>
<path fill-rule="evenodd" clip-rule="evenodd" d="M74.2219 43.7233L111.326 30.21L105.101 42.3444C103.891 44.723 101.816 46.55 99.3265 47.4463L69.7957 58.2018L68.7583 55.4095L74.2219 43.7233Z" fill="#DAE2ED"/>
<path fill-rule="evenodd" clip-rule="evenodd" d="M65.7143 42.4818L114.99 24.5216C115.197 24.4527 115.405 24.5561 115.474 24.7284C115.509 24.8318 115.509 24.9353 115.474 25.0042L113.572 28.8307C113.365 29.2788 112.984 29.5891 112.535 29.7614L111.325 30.2096L74.2208 43.7228L68.7573 55.4435L69.7947 58.2358L70.5554 60.3386L58.1414 64.8545L56.3433 59.9594L63.6049 44.4123C64.0199 43.516 64.7806 42.8265 65.7143 42.4818Z" fill="#ECEFF6"/>
<path fill-rule="evenodd" clip-rule="evenodd" d="M68.7925 55.4439L74.256 43.7233L111.36 30.21L110.115 32.6576L75.5701 45.2401L70.5215 56.0989L71.1439 57.7536L69.8299 58.2362L68.7925 55.4439Z" fill="#C5CEDD"/>
<path fill-rule="evenodd" clip-rule="evenodd" d="M111.603 28.7287C111.983 28.5908 112.191 28.1771 112.052 27.7635C111.914 27.3843 111.499 27.1774 111.084 27.3153C110.704 27.4532 110.496 27.8669 110.635 28.2806C110.773 28.6942 111.188 28.8666 111.603 28.7287ZM108.629 29.8318C109.009 29.6939 109.217 29.2803 109.079 28.8666C108.94 28.4874 108.525 28.2806 108.11 28.4184C107.695 28.5563 107.523 28.97 107.661 29.3837C107.799 29.7629 108.214 29.9697 108.629 29.8318ZM66.2693 45.2411C66.6151 45.0342 66.7534 44.5861 66.5459 44.2414C66.373 43.9656 66.0618 43.8277 65.7506 43.8622C65.3702 44 65.1627 44.4482 65.3011 44.8274C65.4739 45.2066 65.8889 45.3789 66.2693 45.2411Z" fill="#DAE2ED"/>
<path fill-rule="evenodd" clip-rule="evenodd" d="M54.4762 64.9586H62.1875C62.8445 64.9586 63.3632 64.407 63.3632 63.7865V59.6498C63.3632 58.9948 62.8445 58.4777 62.1875 58.4777H54.4762C53.8192 58.4777 53.3005 59.0293 53.3005 59.6498V63.7865C53.3005 64.4415 53.8192 64.9586 54.4762 64.9586Z" fill="#FF5C5C"/>
<path fill-rule="evenodd" clip-rule="evenodd" d="M51.6757 67.062H57.7271C59.3869 67.062 60.7009 65.7176 60.7009 64.0974V59.3747C60.7009 57.72 59.3523 56.41 57.7271 56.3755H51.6757C51.0532 56.3755 50.5691 56.8926 50.5691 57.4787V65.9244C50.5345 66.5449 51.0187 67.0276 51.6757 67.062C51.6411 67.062 51.6411 67.062 51.6757 67.062Z" fill="#D0D9EA"/>
<path fill-rule="evenodd" clip-rule="evenodd" d="M34.4565 30.1743L34.8023 32.4495C32.935 33.9663 31.2752 35.7244 29.9266 37.6893L27.8518 32.9666C29.5116 31.7601 31.7939 31.0706 34.4565 30.1743Z" fill="#FF7F14"/>
<path fill-rule="evenodd" clip-rule="evenodd" d="M29.9252 37.6912L27.8505 32.9684L26.0869 37.6912H29.9252Z" fill="#FF903E"/>
</g>
<defs>
<clipPath id="clip0_1473_119344">
<rect width="135" height="120" fill="white" transform="translate(0 0.5)"/>
</clipPath>
</defs>
</svg>
