<svg xmlns="http://www.w3.org/2000/svg" xmlns:xlink="http://www.w3.org/1999/xlink" viewBox="0 0 242 200"><defs><style>.cls-1{opacity:0.7;fill:url(#linear-gradient);}.cls-2{fill:#718cf6;}.cls-3{fill:#bacafa;}.cls-4{fill:url(#linear-gradient-2);}.cls-5{fill:#fff;}.cls-6{fill:#62c780;}.cls-7{fill:#83ed90;}.cls-8{fill:#3d8a46;}.cls-9{fill:#747f8d;}.cls-10{fill:url(#linear-gradient-3);}.cls-11{fill:#fedb5e;}.cls-12{fill:#d8529b;}.cls-13{fill:url(#linear-gradient-4);}.cls-14{fill:#7393f9;}.cls-15{fill:#fbab42;}.cls-16{fill:#ccd6dc;}.cls-17{fill:#ee9845;}.cls-18{fill:#3e721d;}.cls-19{fill:none;}.cls-20{fill:#fecb4d;}.cls-21{fill:#292f33;}.cls-22{fill:#f4f7f9;}.cls-23{fill:#e0e7ec;}.cls-24{fill:#414447;}.cls-25{fill:#f1f0f0;}.cls-26{fill:#e4e4e5;}.cls-27{fill:#a88576;}.cls-28{fill:#3d3e40;}.cls-29{fill:#c0694f;}.cls-30{fill:#d89d81;}.cls-31{fill:#66baff;}.cls-32{fill:#8fffab;}</style><linearGradient id="linear-gradient" x1="-934.86" y1="163.62" x2="-925.62" y2="163.62" gradientTransform="matrix(0.11, -0.73, 0.99, 0.14, 0.13, -592.6)" gradientUnits="userSpaceOnUse"><stop offset="0" stop-color="#718cf6"/><stop offset="1" stop-color="#4c70e0"/></linearGradient><linearGradient id="linear-gradient-2" x1="65.41" y1="42" x2="70.36" y2="98.54" gradientUnits="userSpaceOnUse"><stop offset="0.67" stop-color="#718cf6"/><stop offset="0.78" stop-color="#6986f1"/><stop offset="0.96" stop-color="#5275e4"/><stop offset="1" stop-color="#4c70e0"/></linearGradient><linearGradient id="linear-gradient-3" x1="60.86" y1="152.05" x2="64.48" y2="131.51" gradientUnits="userSpaceOnUse"><stop offset="0.2" stop-color="#ff78b9"/><stop offset="0.45" stop-color="#f973b5"/><stop offset="0.79" stop-color="#e964aa"/><stop offset="1" stop-color="#db58a0"/></linearGradient><linearGradient id="linear-gradient-4" x1="32.35" y1="212.6" x2="18.36" y2="229.18" gradientTransform="translate(80.21 -114.58) rotate(10.92)" gradientUnits="userSpaceOnUse"><stop offset="0" stop-color="#8af"/><stop offset="0" stop-color="#86a8fe"/><stop offset="0" stop-color="#7e9ffc"/><stop offset="0" stop-color="#7393f9"/><stop offset="1" stop-color="#4c70e0"/></linearGradient></defs><g id="Illustration"><path class="cls-1" d="M57.67,112.54c-1.32.29-1.9,1.26-1.29,2.18a3.54,3.54,0,0,0,3.49,1.13l8.71-1.9-.2-.41-.26-.55h0c0-.09-.07-.18-.1-.27l0-.09a1.13,1.13,0,0,1,0-.18.43.43,0,0,1,0-.11c0-.06,0-.11,0-.17v-.1l0-.22a.06.06,0,0,1,0,0,11.3,11.3,0,0,0,.21-1.42Z"/><path class="cls-2" d="M108.09,56.82c-2.29-.06-4.07-.07-6.36,0a1,1,0,0,0-1,1l1,24.59a1,1,0,0,0,1.07.94c2.29-.09,4.06-.24,6.34-.5a7.83,7.83,0,0,0,7-7.42,76,76,0,0,0-.49-11.87A7.84,7.84,0,0,0,108.09,56.82Z"/><path class="cls-3" d="M108.05,61a27.5,27.5,0,0,0-3.38,0,1.21,1.21,0,0,0-1.07,1.33l.54,13.14a1.22,1.22,0,0,0,1.18,1.24,29.69,29.69,0,0,0,3.37-.33,3,3,0,0,0,2.48-2.81,66,66,0,0,0-.41-9.94A2.94,2.94,0,0,0,108.05,61Z"/><path class="cls-4" d="M29.59,71.52h0a74.41,74.41,0,0,0,1.27,13.15,15.17,15.17,0,0,0,12,12.65c5,.92,17.21,1.07,25.71.85s20.7-1,25.64-2.18a15.16,15.16,0,0,0,11.38-13.25,72.55,72.55,0,0,0,.58-13.19h0A73.54,73.54,0,0,0,105,56.4a15.17,15.17,0,0,0-12-12.65,160.29,160.29,0,0,0-25.71-1.7,160.56,160.56,0,0,0-25.64,3A15.16,15.16,0,0,0,30.18,58.33a73.39,73.39,0,0,0-.59,13.19"/><path class="cls-2" d="M27.79,60.15c2.28-.25,4.06-.39,6.35-.48a1,1,0,0,1,1.06.95l.93,24.59a1,1,0,0,1-1,1c-2.29.09-4.07.08-6.36,0a7.83,7.83,0,0,1-7.62-6.83,75.94,75.94,0,0,1-.45-11.87A7.84,7.84,0,0,1,27.79,60.15Z"/><path class="cls-3" d="M27.29,65a28,28,0,0,1,3.37-.33,1.21,1.21,0,0,1,1.18,1.23l.55,13.15a1.2,1.2,0,0,1-1.08,1.32,27.58,27.58,0,0,1-3.38,0,2.93,2.93,0,0,1-2.7-2.58,66,66,0,0,1-.42-9.94A2.93,2.93,0,0,1,27.29,65Z"/><path class="cls-3" d="M62.82,90.7l13.31-.38c8.25-.48,10.76-3.88,11.67-8.6.86-4.46.65-7.5,0-12.39-.49-3.94-3.53-5.55-7-5.46l-22.58.64A6.35,6.35,0,0,0,52.05,71l.26,9C52.53,87.16,56.25,90.89,62.82,90.7Z"/><path class="cls-2" d="M76.54,80.14l2.87-.08A2.49,2.49,0,1,1,79.55,85l-2.87.08a2.49,2.49,0,1,1-.14-4.94Z"/><path class="cls-2" d="M63.07,80.52l2.87-.08a2.49,2.49,0,1,1,.14,4.94l-2.88.08a2.49,2.49,0,1,1-.13-4.94Z"/><rect x="41.4" y="68.29" width="7.65" height="10.25" rx="3.83" transform="translate(-4.64 3.07) rotate(-3.7)"/><rect x="89.77" y="65.16" width="7.65" height="10.25" rx="3.83" transform="translate(-4.34 6.19) rotate(-3.7)"/><path class="cls-5" d="M93.85,70a2.37,2.37,0,0,0,1-1.63l.17-1.13a.12.12,0,0,1,.12-.1h0a.12.12,0,0,1,.11.1l.17,1.13A2.35,2.35,0,0,0,96.51,70l.15.09a.12.12,0,0,1,0,.1h0a.12.12,0,0,1,0,.1l-.15.1A2.31,2.31,0,0,0,95.46,72l-.17,1.13a.12.12,0,0,1-.11.1h0a.12.12,0,0,1-.12-.1L94.89,72a2.33,2.33,0,0,0-1-1.62l-.15-.1a.12.12,0,0,1,0-.1h0a.12.12,0,0,1,0-.1Z"/><path class="cls-5" d="M44.91,72.42A2.35,2.35,0,0,0,46,70.79l.17-1.13a.12.12,0,0,1,.12-.1h0a.12.12,0,0,1,.11.1l.17,1.13a2.35,2.35,0,0,0,1,1.63l.14.09a.11.11,0,0,1,.06.1h0a.11.11,0,0,1-.06.1l-.14.1a2.31,2.31,0,0,0-1,1.62l-.17,1.13a.12.12,0,0,1-.11.1h0a.12.12,0,0,1-.12-.1L46,74.43a2.31,2.31,0,0,0-1.05-1.62l-.14-.1a.11.11,0,0,1-.06-.1h0a.11.11,0,0,1,.06-.1Z"/><circle class="cls-5" cx="43.98" cy="76.08" r="0.85"/><circle class="cls-5" cx="92.46" cy="72.68" r="0.85"/><path class="cls-6" d="M64.78,32.77l1.58,1.69Z"/><path class="cls-6" d="M66.36,34.46l.33.35Z"/><path class="cls-6" d="M68.14,36.32h0L67.87,36Z"/><path class="cls-7" d="M80.31,30.74a11.15,11.15,0,0,0-3.18-.13l-.31,0c-4.2.54-6.2,2.64-8.68,5.68,4.62,4.81,7.46,7.43,7.46,7.43a5.88,5.88,0,0,0,3.61,1.62,27.71,27.71,0,0,0,4.54-2.17,6.62,6.62,0,0,0,3-3.85c0-.05,0-.1,0-.15A6.17,6.17,0,0,0,87,36.93C86.56,33.79,83.84,31.41,80.31,30.74Z"/><path class="cls-6" d="M67.87,36l-1.18-1.23Z"/><path class="cls-8" d="M71,45.79a1.42,1.42,0,0,1-1.29-.54,1.4,1.4,0,0,1,.26-2,24.1,24.1,0,0,0,9.21-18,1.4,1.4,0,0,1,2.8.14,26.9,26.9,0,0,1-10.3,20.11A1.5,1.5,0,0,1,71,45.79Z"/><path class="cls-8" d="M68.57,47.21C58.75,42.8,55.24,36.89,54.19,34.55a1.4,1.4,0,0,0-2.55,1.15c2,4.45,6.1,8.63,11.52,11.86A49.87,49.87,0,0,0,69,47.49,1.49,1.49,0,0,0,68.57,47.21Z"/><path class="cls-6" d="M75.43,43.6c-.74-.7-4-3.76-8.74-8.79l-.33-.35-1.58-1.69c-3-3.17-6-6.88-12.19-6.17-5.32.61-8.88,4.69-8.62,9,.37,5.94,4.14,9.09,11.45,11a46,46,0,0,0,7.74,1c-5.4-3.22-9.49-7.38-11.51-11.82A1.43,1.43,0,0,1,52.14,34a1.4,1.4,0,0,1,2,.59c1.05,2.34,4.56,8.25,14.38,12.66a1.49,1.49,0,0,1,.41.28A38.21,38.21,0,0,0,77.48,46l1.73-.59A7.78,7.78,0,0,1,75.43,43.6Z"/><path class="cls-9" d="M88.42,148.86a5.41,5.41,0,0,0-5.35-4.6H42.12a5.41,5.41,0,0,0-5.35,4.6l-2.86,18.71a9.78,9.78,0,0,0,7,10.9c4.47,1.26,11.26,2.33,21.39,2.33h.63c10.13,0,16.92-1.07,21.4-2.33a9.78,9.78,0,0,0,7-10.9Z"/><path class="cls-10" d="M78.49,149.5l-1.73.27a90.94,90.94,0,0,1-28.33,0l-1.73-.27A3.53,3.53,0,0,1,43.18,146v-7.47a4.66,4.66,0,0,1,5.26-4.62l5,.64a71.88,71.88,0,0,0,18.42,0l4.94-.64A4.66,4.66,0,0,1,82,138.51V146A3.53,3.53,0,0,1,78.49,149.5Z"/><rect class="cls-9" x="58.21" y="155.76" width="15.03" height="16.28"/><path class="cls-7" d="M49.36,155.92v16A2.67,2.67,0,0,0,52,174.55h1.33V153.26H52A2.67,2.67,0,0,0,49.36,155.92Z"/><path class="cls-7" d="M73.32,153.26H56v21.29h17.3A2.66,2.66,0,0,0,76,171.89v-16A2.66,2.66,0,0,0,73.32,153.26ZM72,166.56a2.67,2.67,0,1,1-2.66-2.66v-3.48L64,162.2v5.69a2.66,2.66,0,1,1-2.66-2.66v-4a1.33,1.33,0,0,1,.91-1.26l8-2.66a1.32,1.32,0,0,1,1.2.18,1.35,1.35,0,0,1,.55,1.08Z"/><path class="cls-11" d="M4.19,48.87a13.67,13.67,0,0,0,6.11-9.45l1-6.61a.65.65,0,0,1,.65-.56h0a.67.67,0,0,1,.66.56l1,6.61a13.64,13.64,0,0,0,6.11,9.45l.85.56a.66.66,0,0,1,.31.56v0a.66.66,0,0,1-.31.55l-.85.56a13.64,13.64,0,0,0-6.11,9.45l-1,6.61a.67.67,0,0,1-.66.56h0a.65.65,0,0,1-.65-.56l-1-6.61a13.67,13.67,0,0,0-6.11-9.45l-.86-.56A.65.65,0,0,1,3,50v0a.65.65,0,0,1,.3-.56Z"/><path class="cls-12" d="M71.7,134.54c-1.3.17-2.6.29-3.9.39-.79.72-3,2.19-8.61,4.08a1.77,1.77,0,1,0,1.11,3.36C70.09,139.1,71.93,136.33,71.7,134.54Z"/><ellipse class="cls-13" cx="63.25" cy="107.12" rx="9.06" ry="13.13" transform="translate(-34.3 29.93) rotate(-21.09)"/><path class="cls-14" d="M62.77,101.33c-1.69-2.91-6-5.3-10.35-6.16A39.47,39.47,0,0,0,31.83,97a11.84,11.84,0,0,0-7.49,12.17c.64,5.17,2.56,8.09,3.62,12.16.63,2.42,1.58,5.29,2.57,8,2.71,7.52,9.56,14.25,20,12.11,2.86-.59,9.83-1.88,14.48-4.44,5.64-3.12,6.33-9.79,4.24-14.75l-4.9-11.67a1.87,1.87,0,0,1-.16-1.19,10.43,10.43,0,0,0-1.15-7.64Z"/><path class="cls-15" d="M162.08,100.83c4.49-1.91,9.16-3.35,13.75-5,1.29-.46,2.23-.81,2.07-2.61-.15-1.64,1.1-2.74,2.66-3.25a3.47,3.47,0,0,1,4.17,1.28c1,1.48,2,.46,3,.27s1.34-.72,1.27-1.83a3.87,3.87,0,0,1,7-2.26c.54.82,1.05.93,1.76.48s2.42-.07,2.34-1.91a3.71,3.71,0,0,1,2.64-4c1.76-.57,3.18-.12,4.5,1.57.41.53.74.75,1.41.5,3-1.12,6.09-2.11,9.07-3.32,4.71-1.91,7.09-5.88,8.81-10.37.37-1,.71-2,1.17-2.88a1.63,1.63,0,0,1,3-.23,4.55,4.55,0,0,1,.59,1.26q3.71,10.35,7.39,20.7a3.36,3.36,0,0,1,.31,1.82c-.27,1.25-1.32,1.72-2.66,1.14-2.66-1.17-5.17-2.66-8-3.52a14.33,14.33,0,0,0-7.31-.55,28.4,28.4,0,0,1,1.76,3.54,11.64,11.64,0,0,1-5.59,14.22,2,2,0,0,0-1.41,2.2,3.6,3.6,0,0,1-2.71,3.58,3.43,3.43,0,0,1-4.16-1.26c-1-1.65-2-.47-3-.28s-1.25.72-1.18,1.75a3.55,3.55,0,0,1-2.55,3.69,3.49,3.49,0,0,1-4.31-1.18c-1-1.62-2-.51-3.07-.31s-1.27.7-1.19,1.74a3.87,3.87,0,0,1-6.87,2.52,1.84,1.84,0,0,0-2.22-.75,11.6,11.6,0,0,1-14.11-10c-.19-1.42-.64-1.4-1.73-1a19.14,19.14,0,0,1-4,1.31C166,104.78,165.16,102.43,162.08,100.83Zm43.41,1.22a10.69,10.69,0,0,0-.27-1.11c-.46-1.32-.93-2.64-1.4-4-.91-2.57-.9-2.53-3.43-1.64-.92.32-1.23.67-.82,1.65.63,1.53,1.09,3.12,1.7,4.66.2.5.09,1.48.93,1.35A23.06,23.06,0,0,0,205.49,102.05ZM191.81,98.7c-.17,0-.28-.11-.36-.09a11.61,11.61,0,0,0-3,1.15c-.64.47.18,1.3.36,1.95.27,1,.68,2,1,2.93.92,2.58.91,2.54,3.46,1.64.85-.3,1.17-.59.79-1.53-.71-1.73-1.27-3.5-1.9-5.26C192.06,99.21,191.92,98.94,191.81,98.7Zm21.34-6.78a6.66,6.66,0,0,0-.82-.25c-1.73-.32-2.06.07-1.48,1.71s1.19,3.19,1.7,4.82c.33,1.06.78,1,1.52.4A4,4,0,0,0,213.15,91.92Zm-32.81,17.8c.37.09.76.22,1.17.28,1.53.21,1.8-.11,1.3-1.52-.6-1.71-1.24-3.42-1.82-5.14-.29-.86-.73-.88-1.37-.38a3.84,3.84,0,0,0-1.54,3.55A4.13,4.13,0,0,0,180.34,109.72Z"/><path class="cls-16" d="M162.08,100.83c3.08,1.6,3.91,4,2.54,7.14-.88,1.52-2.67,2.17-3.42,3.91-.44,1-2.44.58-2.92-.64-1.15-2.95-2.18-5.94-3.19-8.94a1.64,1.64,0,0,1,.62-1.93,1.59,1.59,0,0,1,2-.22C159.07,101.12,160.7,100.1,162.08,100.83Z"/><path class="cls-16" d="M197.74,78.16a1.6,1.6,0,0,1,.94-1c1.27-.45,2.53-.94,3.81-1.35A1.8,1.8,0,0,1,205,77a1.9,1.9,0,0,1-1.21,2.51c-1.25.51-2.53.95-3.82,1.34a1.7,1.7,0,0,1-2-.54A2,2,0,0,1,197.74,78.16Z"/><path class="cls-16" d="M176.28,88.59a2,2,0,0,1-1.05-1.74,1.67,1.67,0,0,1,1.15-1.68,31.36,31.36,0,0,1,4.11-1.46,1.83,1.83,0,0,1,2.25,1.2,1.7,1.7,0,0,1-.86,2.37c-1.42.62-2.91,1.09-4.38,1.6C177.14,89,176.79,88.83,176.28,88.59Z"/><path class="cls-16" d="M187.64,84.67c-1.58-.76-1.77-2.49-.32-3.32a14,14,0,0,1,4.5-1.6,1.94,1.94,0,0,1,1,3.68c-1.25.49-2.52.91-3.78,1.38A1.62,1.62,0,0,1,187.64,84.67Z"/><g id="OKf5KK.tif"><path class="cls-11" d="M194.91,58.07l-.25,1.12a30.37,30.37,0,0,1-5.34,3.93c-3.6,2.31-7.25,4.54-10.75,7a6.21,6.21,0,0,1-6.41.91,27.79,27.79,0,0,1-3.29-2.74,8.26,8.26,0,0,0-3.3-1.91,19.21,19.21,0,0,1-10.88-7.68C149.18,50.38,143.82,42,138.4,33.61a3.81,3.81,0,0,1-.61-3.14c.11-.68.66-1.13,1-1.73,1.67-1,3.37-1.76,5.09-.15a9,9,0,0,1,1.35,1.66c2.76,4.24,5.5,8.49,8.26,12.73.24.37.47,1,1.08.6A1.09,1.09,0,0,0,155,42.1a11.12,11.12,0,0,0-.67-1.1c-3.84-5.93-7.66-11.87-11.53-17.78a7.45,7.45,0,0,1-1.39-4l1-1.77a1.86,1.86,0,0,0,.51-.25c2.19-1.91,4.5-.94,5.95,1.38,2.53,4,5.24,8,7.87,12,1.26,1.91,2.49,3.84,3.74,5.76.2.31.38.76.86.56a1.85,1.85,0,0,0,.9-.65c.28-.51-.22-.88-.46-1.26q-6.64-10.29-13.31-20.55a6.05,6.05,0,0,1-1.16-3.31,5.23,5.23,0,0,1,1.63-2.49c2.76-1.19,4.26-.75,5.91,1.79l13.29,20.53c.67,1,1.38,1.13,1.95.29.45-.66-.11-1.08-.4-1.52q-6-9.17-12-18.29a7.27,7.27,0,0,1-1.38-4,4.4,4.4,0,0,1,1.06-1.85c2-1.95,4.52-1.63,6.2.82,2.1,3.08,3.93,6.33,6.17,9.31,2.94,4.92,6.12,9.69,9.32,14.44a11,11,0,0,0,2.39,2.65,1.85,1.85,0,0,0,1.74.56c-.35-.57-.61-1-.9-1.45-2.23-3.45-4.45-6.91-6.7-10.34a5.3,5.3,0,0,1-.87-4.22c2.59-3.28,5.18-3.16,7.48.36,1.07,1.63,2.12,3.28,3.19,4.92,1.94,3,3.82,6,5.86,9,4.05,5.81,5.26,12.08,3.25,18.88A11,11,0,0,0,194.91,58.07Z"/><path class="cls-17" d="M172.16,71c-2,1.4-4.14,1.33-6.5-.28-.82-.57-1.53-1.29-2.3-1.92A9.26,9.26,0,0,0,159.7,67a18.94,18.94,0,0,1-11-7.49q-8.5-12-16.82-24c-1.91-2.75-.37-6,2.82-6.22,1.28-.09,2.13.7,3.1,1.27a3.81,3.81,0,0,0,.61,3.14c5.42,8.37,10.78,16.77,16.29,25.09a19.21,19.21,0,0,0,10.88,7.68,8.26,8.26,0,0,1,3.3,1.91A27.79,27.79,0,0,0,172.16,71Z"/><path class="cls-17" d="M138.74,28.74c-1.05-1.48-2.11-2.94-3.14-4.43-1.64-2.37-1.59-4.25.15-5.72s3.53-1.33,5.66.64a7.45,7.45,0,0,0,1.39,4c3.87,5.91,7.69,11.85,11.53,17.78a11.12,11.12,0,0,1,.67,1.1,1.09,1.09,0,0,1-.48,1.48c-.61.39-.84-.23-1.08-.6-2.76-4.24-5.5-8.49-8.26-12.73a9,9,0,0,0-1.35-1.66C142.11,27,140.41,27.75,138.74,28.74Z"/><path class="cls-17" d="M142.36,17.46c-.51-.73-1.06-1.45-1.54-2.21-1.33-2-1.08-4,.66-5.29s3.62-1.16,5.3.61l.48.52a6.05,6.05,0,0,0,1.16,3.31Q155.11,24.66,161.73,35c.24.38.74.75.46,1.26a1.85,1.85,0,0,1-.9.65c-.48.2-.66-.25-.86-.56-1.25-1.92-2.48-3.85-3.74-5.76-2.63-4-5.34-7.91-7.87-11.95-1.45-2.32-3.76-3.29-5.95-1.38A1.86,1.86,0,0,1,142.36,17.46Z"/><path class="cls-17" d="M148.89,8.6a3.62,3.62,0,0,1,2.79-3.21,3.43,3.43,0,0,1,3.82,1.19c.26.27.5.56.75.84a7.27,7.27,0,0,0,1.38,4q6,9.13,12,18.29c.29.44.85.86.4,1.52-.57.84-1.28.74-1.95-.29L154.8,10.39C153.15,7.85,151.65,7.41,148.89,8.6Z"/><path class="cls-17" d="M169.68,15.7c2.09-.82,3.19-.45,5,1.64a5.3,5.3,0,0,0,.87,4.22c2.25,3.43,4.47,6.89,6.7,10.34.29.43.55.88.9,1.45a1.85,1.85,0,0,1-1.74-.56A11,11,0,0,1,179,30.14C175.8,25.39,172.62,20.62,169.68,15.7Z"/><path class="cls-17" d="M202.14,14.76A2.31,2.31,0,0,1,201,16.39c-2.44,1.57-4.87,3.17-7.33,4.73-1.24.79-2.36.6-3-.43s-.3-2,.9-2.78q3.7-2.43,7.44-4.82a1.92,1.92,0,0,1,2.39,0A1.81,1.81,0,0,1,202.14,14.76Z"/><path class="cls-17" d="M138.38,56.11a2.59,2.59,0,0,1-1.2,1.49c-2.4,1.54-4.8,3.11-7.21,4.65-1.28.81-2.35.67-3-.34s-.35-2.06.9-2.88q3.7-2.43,7.44-4.81a1.88,1.88,0,0,1,2.27,0A1.93,1.93,0,0,1,138.38,56.11Z"/><path class="cls-17" d="M140.35,67.14a1.9,1.9,0,0,1-1.44-2.74q1.41-2.58,3.05-5a1.71,1.71,0,0,1,2.53-.47,1.76,1.76,0,0,1,.65,2.5c-.93,1.66-2,3.27-3,4.88A1.79,1.79,0,0,1,140.35,67.14Z"/><path class="cls-17" d="M185,16.82A1.89,1.89,0,0,1,183.64,14c.93-1.67,1.93-3.29,3-4.88a1.73,1.73,0,0,1,2.51-.57,1.78,1.78,0,0,1,.68,2.6c-.92,1.62-1.91,3.19-2.9,4.77A1.84,1.84,0,0,1,185,16.82Z"/><path class="cls-17" d="M194.13,29.91c-1.06-.3-1.61-.83-1.69-1.74a1.66,1.66,0,0,1,1.29-2,48.62,48.62,0,0,1,5.64-.74A1.7,1.7,0,0,1,201.13,27a1.63,1.63,0,0,1-1,2A32.17,32.17,0,0,1,194.13,29.91Z"/><path class="cls-17" d="M134.67,45.56c1,.28,1.58.8,1.67,1.71a1.66,1.66,0,0,1-1.27,2,44.74,44.74,0,0,1-5.78.72,1.86,1.86,0,0,1-.51-3.58A36.55,36.55,0,0,1,134.67,45.56Z"/></g><path class="cls-18" d="M173.49,135.46a11.47,11.47,0,0,0-1.42-1l-.1-.06c-.27-.16-.55-.3-.83-.44a16,16,0,0,0-8.74-1.33h0a9.3,9.3,0,0,0-7.83,7.39,5.89,5.89,0,0,0,3.52,5.28,11.16,11.16,0,0,1,2.63,1.43c.89.75.8,1.44-.24,1.94a9.08,9.08,0,0,1-2.68.61c-.41.06-.93-.07-1.1.52a9.25,9.25,0,0,1-2.2,6c-2,2.54-4.18,5-6.29,7.46.06.74.65.57,1.08.57,1.08,0,2.17,0,3.25-.09a31.49,31.49,0,0,0,8.17-1.38c.85-.28,1.54-.69,1.61-1.71v-.06l.12,0,.16-.76a9.67,9.67,0,0,1,2.61-3.55c1.77-1.71,3.62-3.34,5.4-5a20.07,20.07,0,0,0,5.12-7.1A7.25,7.25,0,0,0,173.49,135.46Z"/><path class="cls-19" d="M142.91,144a2.59,2.59,0,0,0,.17.38C143,144.27,143,144.14,142.91,144Z"/><path class="cls-19" d="M158.21,145.06l.21.09Z"/><path class="cls-19" d="M155.91,149.52c-.26,0-.53,0-.79-.06C155.38,149.49,155.65,149.51,155.91,149.52Z"/><path class="cls-20" d="M161.69,147.72c0-1.09-2.42-2.21-3.27-2.57l-.21-.09-.09,0h0c-2.11-.94-3-2.81-3.59-5-.16.32-.34.64-.48,1-.88,2-1.5,2.35-3.62,1.91a13.88,13.88,0,0,1-4.67-1.85c-1.38-.87-1.72-1-2.45.06a3.67,3.67,0,0,0-.4,2.9c.05.13.11.26.17.38v0h0a6.79,6.79,0,0,0,3.27,2.81,25.65,25.65,0,0,0,8.57,2.22l.19,0c.26,0,.53,0,.79.06,3,.16,5.5-.42,5.76-1.66C161.68,147.82,161.68,147.77,161.69,147.72Z"/><path class="cls-20" d="M158.21,145.06l-.09,0h0Z"/><path class="cls-20" d="M143.08,144.39v0h0Z"/><path class="cls-19" d="M172,134.39c-.28-.16-.55-.31-.83-.44C171.42,134.09,171.7,134.23,172,134.39Z"/><path class="cls-19" d="M162.36,132.63h0Z"/><path class="cls-18" d="M172.07,134.45l-.1-.06Z"/><circle class="cls-21" cx="162.23" cy="138.88" r="2.51"/><path class="cls-22" d="M162.41,164.62a10.8,10.8,0,0,1,0-4.18c0-.19.08-.38.11-.57a3.45,3.45,0,0,1-2.71,2.46,50,50,0,0,1-11.23,1.22c-.21,0-.4-.05-.44-.3a10.09,10.09,0,0,0-2.78,5.1s0,0,0,0c.21-.5.72-.37,1.67-.32l.2.06a27.5,27.5,0,0,0,11.78-1.34,10,10,0,0,0,1.74-.77h0a7.23,7.23,0,0,1,.89-.42l.95-.37Z"/><polygon class="cls-19" points="186.32 195.7 186.32 195.7 186.32 195.7 186.32 195.7"/><path class="cls-23" d="M153.64,188.7v0h0Z"/><path class="cls-24" d="M199.78,189.68a.33.33,0,0,0,.25.07l-.13-.19Z"/><polygon class="cls-25" points="147.09 164.99 147.09 164.99 147.09 164.99 147.09 164.99 147.09 164.99"/><path class="cls-26" d="M186.32,195.7v0h0Z"/><polygon class="cls-26" points="186.32 195.7 186.32 195.7 186.32 195.7 186.32 195.7"/><path class="cls-26" d="M186.32,195.7l0-.06,0,0Z"/><path class="cls-27" d="M187.28,176.72a3.85,3.85,0,0,1,.48,0A.67.67,0,0,0,187.28,176.72Z"/><path class="cls-27" d="M189.15,176.94h0a1.08,1.08,0,0,0,.07.18,18.78,18.78,0,0,1,2.68.68h0C191.07,177.23,190,177.28,189.15,176.94Z"/><path class="cls-28" d="M189.13,176.93v0h0Z"/><path class="cls-28" d="M189.13,176.93h0l0,0h-.05Z"/><path class="cls-28" d="M188.74,176.85h-.29c.22,0,.46,0,.69.1h0v0Z"/><path class="cls-28" d="M188.31,176.79l.14.05h.29Z"/><path class="cls-28" d="M189.15,176.94h0Z"/><polygon class="cls-18" points="162.64 165.18 162.63 165.18 162.63 165.18 162.64 165.18"/><path class="cls-18" d="M160.54,166a.39.39,0,0,0-.31,0l.21,0h0Z"/><path class="cls-29" d="M162.64,165.18l-1.34.5-1.07.4a30.09,30.09,0,0,1-12.72,1.74h-1a1.06,1.06,0,0,0-1.13.57,1.15,1.15,0,0,0-.1.36h0a21.84,21.84,0,0,0-.82,9.67,13.51,13.51,0,0,0,3.23,7.25l0,0c1.31,1.5,2.13,1.57,2.13,1.57l-.63-3.46a4.18,4.18,0,0,0-.69.16,7.5,7.5,0,0,1,.18-1.31c.69-3.22,2.58-5.78,4.5-8.31a61.33,61.33,0,0,1,5.1-5.71,19.63,19.63,0,0,1,4.32-3.46Z"/><path class="cls-30" d="M189.68,176.63c5.85.11,11.68.4,17.33,2.18a5.67,5.67,0,0,1,1.6.83h0a9,9,0,0,0-1.94-3.42c-5.06-6.56-11.49-11.14-19.63-13a35.92,35.92,0,0,0-15.91.35c-2.21.51-4.29,1.39-6.46,2-.72.21-1.51.47-2-.42h0a19.63,19.63,0,0,0-4.32,3.46,61.33,61.33,0,0,0-5.1,5.71c-1.92,2.53-3.81,5.09-4.5,8.31a5.89,5.89,0,0,0,.18,3.55h0a2.16,2.16,0,0,0,1,1.06,14.13,14.13,0,0,0,2.55,1.06,2.72,2.72,0,0,1-.11-.25c-.6-1.58-.32-2.21,1.44-3.41A34.78,34.78,0,0,1,163,180.5a75.73,75.73,0,0,1,22.52-3.92c.56,0,1.11.09,1.67.13h0c.13-.7.57-.15.85-.2h0l1.69.12"/><path class="cls-9" d="M198.23,191.64a77,77,0,0,0,8.68-8.69c.25-.32.5-.63.77-.94.49-.56,1.28-1.64.93-2.37-.5-1-2.17-1.59-9.82-2.77a81.17,81.17,0,0,0-16.34-.44Z"/><path class="cls-23" d="M183.44,195.08a18.48,18.48,0,0,0,9.92-.54c2.91-1,5.88-2.91,7.06-6.44,2.63-7.86-6.64-10.71-13.79-11.57s-20.24,2.27-27.54,5.17-10.42,5.88-5.45,7C157.62,189.57,176.22,193.54,183.44,195.08Z"/><path class="cls-31" d="M208.41,44.83a12.07,12.07,0,0,0,5.42-8.39l.88-5.87a.59.59,0,0,1,.59-.5h0a.58.58,0,0,1,.58.5l.88,5.87a12.07,12.07,0,0,0,5.42,8.39l.76.49a.6.6,0,0,1,.27.5v0a.58.58,0,0,1-.27.49l-.76.49a12.11,12.11,0,0,0-5.42,8.4l-.88,5.87a.58.58,0,0,1-.58.5h0a.59.59,0,0,1-.59-.5l-.88-5.87a12.11,12.11,0,0,0-5.42-8.4l-.76-.49a.58.58,0,0,1-.27-.49v0a.6.6,0,0,1,.27-.5Z"/><path class="cls-32" d="M190.37,139a8.5,8.5,0,0,0,3.82-5.91l.62-4.13a.42.42,0,0,1,.41-.35h0a.41.41,0,0,1,.41.35l.62,4.13a8.53,8.53,0,0,0,3.82,5.91l.53.35a.43.43,0,0,1,.2.35v0a.4.4,0,0,1-.2.35l-.53.35a8.53,8.53,0,0,0-3.82,5.91l-.62,4.13a.41.41,0,0,1-.41.36h0a.42.42,0,0,1-.41-.36l-.62-4.13a8.5,8.5,0,0,0-3.82-5.91l-.53-.35a.39.39,0,0,1-.19-.35v0a.42.42,0,0,1,.19-.35Z"/><path class="cls-7" d="M134.36,82.85a4.3,4.3,0,0,0,1.47-5.9l-.07-.12a4.32,4.32,0,0,0-6.35-1c-8.13,6.54-28.74,26.4-43.22,51.13C86.19,126.92,114.81,96.2,134.36,82.85Z"/><path class="cls-7" d="M89.74,133.22c-.28.12,28.1-16.64,51.1-24.85a3.85,3.85,0,0,1,5.13,3.32h0a3.53,3.53,0,0,1-3.06,4.09A326,326,0,0,0,89.74,133.22Z"/><path class="cls-7" d="M123.79,149.47a3.38,3.38,0,0,0,4.51-2.39h0a3.37,3.37,0,0,0-2.65-4,216.23,216.23,0,0,0-34-3.51S103.87,142.68,123.79,149.47Z"/></g></svg>