<svg fill="none" height="48" viewBox="0 0 48 48" width="48" xmlns="http://www.w3.org/2000/svg"><circle cx="25.5" cy="26.5" fill="#60cfac" r="17.5"/><rect fill="#007aff" height="8" rx="1" width="21" x="12" y="33"/><rect fill="#f85ff6" height="8" rx=".5" width="4.5" x="29" y="11"/><g fill="#000"><circle cx="31" cy="12" r=".5"/><circle cx="32.5" cy="12" r=".5"/><path d="m26.2495 19.617-.65-2c-.3186-.989-1.0169-1.811-1.9413-2.2854-.9245-.4744-1.9994-.5624-2.9887-.2446-.9857.3148-1.807 1.0066-2.2847 1.9246-.4777.9179-.573 1.9874-.2653 2.9754l.64 2c.4079 1.3021.4079 2.6979 0 4-.4763 1.5479-.3403 3.2195.38 4.67.5719 1.1828 1.5048 2.1534 2.6641 2.7717s2.485.8523 3.7859.6683c1.2333-.1655 2.39-.6926 3.3242-1.5147.9341-.8221 1.6039-1.9024 1.9248-3.1047.3208-1.2023.2785-2.4727-.1217-3.6509-.4003-1.1783-1.1405-2.2116-2.1273-2.9697-1.098-.8103-1.916-1.9429-2.34-3.24z"/><path d="m15.9995 33.9671c-.116-.0002-.231-.0205-.34-.06-.2493-.0903-.4525-.2758-.565-.5158-.1125-.2401-.1251-.5149-.035-.7642 1.0926-3.0246 2.3751-5.9772 3.84-8.84.0636-.115.1493-.2163.2521-.2981s.2208-.1426.3471-.1788.2585-.0472.389-.0323c.1306.0149.2569.0554.3718.1192.1149.0636.2162.1493.298.2521.0819.1028.1426.2207.1788.347s.0472.2585.0323.3891c-.0149.1305-.0554.2569-.1191.3718-1.4048 2.774-2.6436 5.6291-3.71 8.55-.0699.1932-.1976.3603-.3658.4784s-.3687.1815-.5742.1816z"/><path d="m30.5595 39.447c-.2412.0028-.4752-.0818-.659-.238-.1837-.1562-.3048-.3735-.341-.612l-.09-.54c-.53-3.44-.85-4.85-3.6-5.08-.1315-.0101-.2597-.0461-.3772-.1059s-.222-.1423-.3075-.2427c-.0855-.1003-.1503-.2166-.1907-.3422-.0404-.1255-.0555-.2578-.0446-.3892.0229-.2637.1494-.5076.3519-.6782.2024-.1706.4643-.2539.7281-.2318 4.43.37 4.91 3.47 5.42 6.76l.08.54c.0214.1301.0169.2631-.0133.3914s-.0854.2494-.1626.3562c-.0771.1069-.1746.1975-.2869.2665-.1122.0691-.237.1153-.3672.1359z"/><path d="m36.1996 39.447c-.2258.0078-.4475-.0612-.6291-.1955-.1816-.1344-.3123-.3263-.3709-.5445-.54-2-2-5.39-6.06-5.73-.2638-.0229-.5077-.1494-.6782-.3519-.1706-.2024-.254-.4643-.2318-.7281.0229-.2637.1494-.5076.3519-.6782.2024-.1706.4643-.2539.7281-.2318 3.82.32 6.67 2.94 7.82 7.2.0675.2546.0318.5255-.0993.7539-.131.2284-.3469.3959-.6007.4661-.0744.024-.1519.0375-.23.04z"/><path d="m26.6096 24.2771c-.1314.019-.2651.012-.3938-.0207-.1286-.0326-.2495-.0903-.3558-.1697s-.196-.179-.2638-.293c-.0679-.114-.1126-.2403-.1316-.3716-.0191-.1314-.0121-.2652.0206-.3938s.0903-.2495.1697-.3558.179-.196.293-.2638c.1141-.0679.2403-.1126.3717-.1316 3.256-.9918 3.8778-2.4302 4.2786-4.6805.0994-.558.5959-.9591 1.1614-.9195.5512.0826.9339.5992.8373 1.1482-.4695 2.6697-1.3054 5.035-5.6773 6.3618-.0973.048-.2022.0785-.31.09z"/></g><path clip-rule="evenodd" d="m25 3c.5523 0 1 .44772 1 1v6.5.5 2.2757c0 .2673-.3231.4012-.5121.2122l-2.4879-2.4879h-9c-.5523 0-1-.4477-1-1v-6c0-.55228.4477-1 1-1z" fill="#fff" fill-rule="evenodd"/><circle fill="#fa6ef6" r="1" transform="matrix(-1 0 0 1 23 7)"/><circle fill="#fa6ef6" r="1" transform="matrix(-1 0 0 1 19.5 7)"/><circle fill="#fa6ef6" r="1" transform="matrix(-1 0 0 1 16 7)"/></svg>