<svg width="134" height="71" viewBox="0 0 134 71" fill="none" xmlns="http://www.w3.org/2000/svg">
<g clip-path="url(#clip0_6215_282581)">
<g clip-path="url(#clip1_6215_282581)">
<path d="M121.173 33L98.7023 32.8879C97.7547 32.8823 97 32.1255 97 31.1894L97.1135 11.6761C97.1192 10.7456 97.8909 10 98.8328 10L121.303 10.1121C122.245 10.1121 123.006 10.8745 123 11.8106L122.887 31.3239C122.887 32.2544 122.115 33.0056 121.167 33H121.173Z" fill="#D3D7DB"/>
<path d="M115.975 15.7456H104.03C103.404 15.7456 102.896 16.2476 102.896 16.8667V26.1329C102.896 26.7521 103.404 27.254 104.03 27.254H115.975C116.602 27.254 117.11 26.7521 117.11 26.1329V16.8667C117.11 16.2476 116.602 15.7456 115.975 15.7456Z" fill="#7F88FD"/>
<path d="M106.851 23.8907V19.1091C106.851 18.868 107.1 18.6999 107.327 18.7952L113.189 21.1888C113.473 21.3065 113.473 21.7045 113.189 21.8222L107.327 24.2158C107.1 24.3111 106.851 24.143 106.851 23.9019V23.8907Z" fill="#5765F0"/>
</g>
<g clip-path="url(#clip2_6215_282581)">
<path d="M34.2906 4.05298L2.3788 11.8087C1.41479 12.043 0.819333 13.0308 1.04881 14.015L6.54713 37.5962C6.77661 38.5804 7.74413 39.1883 8.70814 38.954L40.62 31.1983C41.584 30.964 42.1795 29.9762 41.95 28.992L36.4517 5.41082C36.2222 4.42662 35.2547 3.81869 34.2906 4.05298Z" fill="#D3D7DB"/>
<path d="M23.6816 28.9828C23.5385 28.9828 23.4014 28.9158 23.312 28.8002L16.2362 19.9148L11.3482 28.1429C11.2111 28.3742 10.919 28.4472 10.6925 28.3072C10.466 28.1673 10.3944 27.8691 10.5315 27.6378L15.7713 18.8193C15.8488 18.6854 15.9918 18.5941 16.1468 18.5881C16.3018 18.582 16.4508 18.6428 16.5522 18.7646L23.3418 27.2909L24.9274 13.3177C24.9453 13.1351 25.0705 12.9769 25.2374 12.916C25.4043 12.8551 25.601 12.8977 25.7262 13.0256L32.951 20.1339C33.1417 20.3225 33.1477 20.6268 32.9629 20.8216C32.7781 21.0163 32.4801 21.0224 32.2893 20.8338L25.756 14.4071L24.1525 28.5507C24.1286 28.7454 23.9975 28.9097 23.8127 28.9645C23.771 28.9767 23.7233 28.9828 23.6816 28.9828Z" fill="#5765F0"/>
<path d="M10.9432 30.7171C12.4707 30.7171 13.7091 29.4528 13.7091 27.8932C13.7091 26.3336 12.4707 25.0693 10.9432 25.0693C9.41559 25.0693 8.17725 26.3336 8.17725 27.8932C8.17725 29.4528 9.41559 30.7171 10.9432 30.7171Z" fill="#7F88FD"/>
<path d="M25.5652 16.1658C27.0928 16.1658 28.3312 14.9015 28.3312 13.3419C28.3312 11.7824 27.0928 10.5181 25.5652 10.5181C24.0377 10.5181 22.7993 11.7824 22.7993 13.3419C22.7993 14.9015 24.0377 16.1658 25.5652 16.1658Z" fill="#7F88FD"/>
<path d="M23.7234 31.0945C25.251 31.0945 26.4894 29.8302 26.4894 28.2706C26.4894 26.7111 25.251 25.4468 23.7234 25.4468C22.1959 25.4468 20.9575 26.7111 20.9575 28.2706C20.9575 29.8302 22.1959 31.0945 23.7234 31.0945Z" fill="#7F88FD"/>
<path d="M32.6233 23.5051C34.1509 23.5051 35.3893 22.2409 35.3893 20.6813C35.3893 19.1217 34.1509 17.8574 32.6233 17.8574C31.0958 17.8574 29.8574 19.1217 29.8574 20.6813C29.8574 22.2409 31.0958 23.5051 32.6233 23.5051Z" fill="#7F88FD"/>
<path d="M16.1829 21.8987C17.7105 21.8987 18.9488 20.6344 18.9488 19.0748C18.9488 17.5153 17.7105 16.251 16.1829 16.251C14.6553 16.251 13.417 17.5153 13.417 19.0748C13.417 20.6344 14.6553 21.8987 16.1829 21.8987Z" fill="#7F88FD"/>
</g>
<g clip-path="url(#clip3_6215_282581)">
<path d="M93.683 72.7676C90.4984 73.9264 87.3303 73.4792 86.6532 71.7795C85.976 70.0799 87.8186 67.75 90.642 65.8878C94.118 63.5945 97.0891 64.0824 97.9837 66.6197C98.8168 68.9902 97.3723 71.4298 93.6871 72.7717L93.683 72.7676Z" fill="#66BCFF"/>
<path d="M37.0094 77.8135C36.8452 83.1156 40.7602 88.0397 46.4973 88.7065L65.4815 90.9225C71.2268 91.5934 76.1842 87.7022 77.2635 82.5098C77.3579 82.0747 77.4235 81.6315 77.4523 81.1802C77.5261 80.2938 77.481 79.383 77.3127 78.4559L75.3019 62.5209C74.5919 58.6378 71.4074 55.6655 67.4513 55.206L52.9608 53.5145C49.0048 53.051 45.2087 55.206 43.6083 58.8208L37.9163 73.8572C37.5347 74.7192 37.2761 75.5893 37.1407 76.4716C37.0668 76.9189 37.0217 77.3662 37.0094 77.8094V77.8135Z" fill="url(#paint0_linear_6215_282581)"/>
<path d="M57.906 56.0112L57.9881 56.1698C58.1564 56.5113 58.2754 56.861 58.3451 57.231C58.4354 57.658 58.4518 58.0971 58.3985 58.5362L57.0196 70.1246C56.995 71.1818 57.787 72.0804 58.8417 72.2064L69.4377 73.4425C70.7345 73.593 71.8507 72.5276 71.7399 71.2387L70.8207 60.6018C70.6442 58.5688 69.0478 56.9342 67 56.6984L58.1564 55.6656C57.9635 55.6412 57.8198 55.8445 57.906 56.0153V56.0112Z" fill="#FF8C19"/>
<path d="M58.3451 57.231C58.4354 57.6579 58.4518 58.097 58.3985 58.5362L57.0196 70.1245C56.995 71.1817 57.787 72.0803 58.8417 72.2064L68.6292 73.3489C69.175 72.9789 69.5239 72.3161 69.4746 71.572L68.7811 61.8582C68.6169 59.4388 67.3201 58.2841 65.3175 58.0482L58.341 57.235L58.3451 57.231Z" fill="#FFE75C"/>
<path d="M50.2657 61.5103C50.6758 59.0397 49.7211 56.827 48.1332 56.5682C46.5454 56.3095 44.9257 58.1026 44.5156 60.5733C44.1054 63.044 45.0602 65.2566 46.648 65.5154C48.2359 65.7742 49.8556 63.981 50.2657 61.5103Z" fill="black"/>
<path d="M76.8187 22.9998L56.8763 19.3661L57.4441 16.3069C57.974 13.4516 60.7455 11.5587 63.6272 12.0837L73.7296 13.9244C76.2805 14.3892 77.9702 16.818 77.5011 19.3454L76.8228 23.0005L76.8187 22.9998Z" fill="#66BCFF"/>
<path d="M36.0903 32.2085C35.8851 37.3155 35.7948 41.715 38.4664 43.8863C41.4294 46.2894 42.6769 46.5293 46.6904 48.1028C53.199 50.6563 69.5116 51.433 77.7808 52.3722C89.4479 53.6978 92.1564 35.2825 89.9485 27.252C88.8364 22.702 86.1771 20.4209 82.1964 19.4857C75.6796 17.9569 57.4342 14.2242 52.0254 14.9764C48.1637 15.5132 40.941 17.3307 38.7906 21.8156C37.4241 24.6497 36.2175 29.098 36.0903 32.2085Z" fill="url(#paint1_linear_6215_282581)"/>
<path d="M52.8419 33.5257C52.1853 39.1451 53.006 46.5576 60.0276 47.1065L79.2662 48.5296C81.7983 48.7166 83.3167 47.4358 84.3795 45.6589C87.2932 41.9954 90.4532 24.56 82.3974 23.5598L63.602 20.4614C56.0059 18.9854 53.5067 27.7722 52.8419 33.5257Z" fill="#ED5B00"/>
<path d="M52.8011 34.0257C52.2183 39.4011 53.1088 46.5696 59.7119 47.0778L78.2241 48.4359C80.8874 48.6595 82.7834 46.5289 83.9448 44.0527C86.4522 38.7017 87.4084 25.6984 82.213 24.633C82.213 24.633 66.0276 21.7664 61.0045 21.0671C55.9815 20.3677 53.2443 28.4186 52.8011 34.0216V34.0257Z" fill="black"/>
<path d="M45.5865 39.4785C43.2227 42.4264 39.8658 41.3977 38.134 37.1853L37.9452 36.7299C36.2134 32.5215 37.3214 26.8371 40.4116 24.1006C43.5017 21.3641 46.8997 22.4945 47.9585 26.6175C49.0172 30.7405 47.9502 36.5266 45.5824 39.4745L45.5865 39.4785Z" fill="url(#paint2_linear_6215_282581)"/>
<path d="M41.9419 30.947C42.2608 28.5695 41.5668 26.5168 40.3917 26.3621C39.2167 26.2074 38.0056 28.0092 37.6868 30.3867C37.3679 32.7641 38.0619 34.8168 39.237 34.9716C40.412 35.1263 41.623 33.3244 41.9419 30.947Z" fill="#FFE75C"/>
<path d="M74.2555 52.0263L74.5879 51.0016C74.8259 50.2616 74.3129 49.4931 73.5332 49.424L65.2599 48.688C64.4802 48.6189 63.8359 49.2858 63.9385 50.0542L64.0821 51.1318L74.2472 52.0263H74.2555Z" fill="url(#paint3_linear_6215_282581)"/>
<path d="M51.9966 59.1099C52.1731 59.9191 52.407 60.6469 52.7189 61.2893C52.7886 61.452 52.8871 61.6024 52.9651 61.7569C53.002 61.8342 53.0513 61.9074 53.1005 61.9765C53.1457 62.0497 53.1908 62.1188 53.2318 62.192C53.2811 62.2611 53.3344 62.3262 53.3837 62.3912C53.437 62.4563 53.4699 62.5295 53.5314 62.5864C53.6422 62.7084 53.7284 62.8385 53.8474 62.9442C54.2824 63.3956 54.7379 63.7656 55.2386 64.0177C55.3699 64.0705 55.4807 64.1559 55.6161 64.1966C55.6818 64.221 55.7434 64.2495 55.8049 64.2779C55.8706 64.3023 55.9403 64.3145 56.0019 64.343C56.0676 64.3633 56.1291 64.3958 56.1989 64.4121C56.2686 64.4284 56.3384 64.4446 56.4041 64.4609C56.5354 64.5097 56.6872 64.5137 56.8268 64.5422C56.8637 64.5463 56.8965 64.5625 56.9335 64.5625L57.0443 64.5707C57.1181 64.5788 57.192 64.5869 57.2659 64.5951C57.3397 64.6113 57.4218 64.5991 57.4957 64.6032C57.5737 64.6032 57.6516 64.6032 57.7296 64.6113C57.8896 64.6113 58.0538 64.5951 58.2179 64.5951C58.3862 64.5829 58.5586 64.5503 58.7268 64.5381C59.4204 64.4446 60.1714 64.2413 60.9511 63.9567C61.3409 63.8266 61.7349 63.6395 62.1371 63.4688L62.7403 63.1719C62.8429 63.1191 62.9455 63.0784 63.044 63.0215L63.3477 62.8507C64.1684 62.4238 64.981 61.883 65.8387 61.3666L66.0931 61.2121C67.9891 60.0654 70.4637 60.6591 71.6168 62.5376C72.5853 64.1112 72.3186 66.0873 71.0916 67.36C70.1846 68.3033 69.2079 69.206 68.0917 70.007L67.6772 70.312C67.5418 70.4136 67.3858 70.5031 67.2422 70.6007C66.9467 70.7877 66.6553 70.9788 66.3558 71.1618L65.416 71.6782L65.178 71.8042C65.0959 71.8449 65.0138 71.8815 64.9318 71.9222L64.4311 72.1499C63.0933 72.7516 61.6241 73.2152 60.04 73.4591C59.6379 73.5079 59.2398 73.5567 58.8335 73.5893C58.4231 73.6055 58.0128 73.6258 57.5983 73.6218L56.9704 73.5893C56.7611 73.573 56.5518 73.573 56.3425 73.5364L55.7105 73.451L55.3945 73.4022C55.2878 73.3859 55.1852 73.3575 55.0785 73.3372C54.66 73.2355 54.2373 73.1542 53.8269 73.0078L53.2113 72.8045C53.0061 72.7354 52.805 72.6419 52.604 72.5605C52.4029 72.4751 52.2018 72.3898 52.0089 72.2922L51.4303 71.9832L51.143 71.8246C51.0486 71.7717 50.9583 71.7107 50.8681 71.6497C50.6834 71.5318 50.5028 71.4098 50.3264 71.2878C50.1417 71.1699 49.9816 71.0276 49.8093 70.8934C49.641 70.7593 49.4728 70.6251 49.3086 70.4828C49.1486 70.3364 48.9926 70.19 48.8408 70.0396C48.6848 69.8891 48.533 69.7427 48.3935 69.576C48.1103 69.2548 47.823 68.9417 47.585 68.592C47.4619 68.4213 47.3347 68.2505 47.2198 68.0756L46.8915 67.543C46.7807 67.3641 46.6781 67.1852 46.5878 66.9981L46.3128 66.4411C46.2185 66.2581 46.1487 66.0629 46.0748 65.8718C46.001 65.6807 45.9271 65.4896 45.8573 65.2985C45.607 64.5259 45.41 63.7412 45.3197 62.9483C45.1227 61.3707 45.2376 59.789 45.685 58.3333C46.202 56.654 47.9913 55.7066 49.6862 56.2149C50.8393 56.5605 51.6519 57.4916 51.8899 58.5813L52.0007 59.0937L51.9966 59.1099Z" fill="url(#paint4_linear_6215_282581)"/>
<path d="M63.4769 45.7137L60.5669 48.0327L71.4722 61.4668L74.3822 59.1478L63.4769 45.7137Z" fill="#FFE75C"/>
<path d="M62.3733 46.2775L61.3564 47.0879L72.4058 60.6994L73.4227 59.889L62.3733 46.2775Z" fill="#FFC619"/>
<path d="M60.9346 42.5849L62.4613 44.4675L59.5517 46.7852L58.0251 44.9026C57.7009 44.5041 57.7665 43.9226 58.1687 43.6014L59.6214 42.4426C60.0236 42.1214 60.6104 42.1864 60.9346 42.5849Z" fill="#FF78B9"/>
<path d="M62.3109 44.2777L59.4009 46.5967L60.5686 48.0351L63.4786 45.7161L62.3109 44.2777Z" fill="#808AFF"/>
<path d="M73.5703 62.9356L75.3842 61.4922L76.5209 64.1636C76.6687 64.5052 76.2665 64.8223 75.9628 64.6109L73.5703 62.9356Z" fill="black"/>
<path d="M73.5702 62.9356L73.7672 63.0738L75.4743 61.7117L75.38 61.4921L74.3827 59.146L71.4731 61.4677L73.5702 62.9356Z" fill="#FFF2A6"/>
<path d="M70.3281 63.7938C70.2542 63.7938 70.1762 63.7857 70.1023 63.7694C69.4868 63.6474 69.0846 63.0497 69.2077 62.4398C69.2447 62.265 70.1147 58.0972 73.0407 56.7554C73.6152 56.4952 74.2923 56.7391 74.5591 57.3084C74.8258 57.8776 74.5755 58.5486 74.0009 58.8128C72.4497 59.5244 71.6331 61.9966 71.4525 62.8871C71.3417 63.4238 70.8657 63.7938 70.3322 63.7938H70.3281Z" fill="black"/>
<path d="M69.4418 63.0416C68.9453 63.0416 68.4857 62.7163 68.342 62.2162C68.3256 62.1593 67.9357 60.7809 67.9727 59.2154C68.026 56.9181 68.9945 55.2713 70.7017 54.5841C71.2844 54.3483 71.9534 54.6248 72.1914 55.2063C72.4294 55.7877 72.1462 56.4464 71.5635 56.6822C69.4459 57.5361 70.5334 61.5575 70.5417 61.5981C70.714 62.1999 70.3611 62.8261 69.7537 62.9969C69.6511 63.0253 69.5444 63.0416 69.4418 63.0416Z" fill="black"/>
<path d="M94.1669 48.3345H93.3092C93.9248 46.9764 93.3256 45.8867 91.9468 45.8867C90.5679 45.8867 88.9223 46.9764 88.2328 48.3345H87.1043C85.7664 48.3345 84.1701 49.408 83.5299 50.7335C82.8938 52.059 82.6188 54.8728 83.9567 54.8728H91.0193C92.3571 54.8728 94.7948 52.055 95.4309 50.7335C96.067 49.408 95.5007 48.3345 94.1669 48.3345Z" fill="#8CD9FF"/>
<path d="M99.1409 51.2212H79.1964C77.8011 51.2212 76.5207 51.9978 75.8887 53.2339L64.3653 75.7519C63.7415 76.9717 64.6361 78.4192 66.0191 78.4192H85.9636C87.3589 78.4192 88.6392 77.6426 89.2712 76.4065L100.795 53.8885C101.418 52.6687 100.524 51.2212 99.1409 51.2212Z" fill="#FF78B9"/>
<path d="M95.9115 68.6896C95.7679 68.6896 95.6201 68.6611 95.4765 68.6042C95.456 68.5961 93.359 67.7462 91.0608 67.1445C90.4494 66.9859 90.0841 66.3678 90.2483 65.762C90.4083 65.1561 91.0321 64.7943 91.6436 64.9569C94.0976 65.5953 96.2562 66.4736 96.3465 66.5102C96.9293 66.7501 97.2083 67.4088 96.9662 67.9861C96.7856 68.4253 96.3588 68.6896 95.9074 68.6896H95.9115Z" fill="black"/>
<path d="M96.0348 68.3112C95.5177 68.3112 95.0499 67.9615 94.9227 67.4411C94.9186 67.4248 94.3523 65.2372 92.5261 64.1272C91.9885 63.8019 91.8161 63.1025 92.1485 62.5699C92.4768 62.0372 93.1827 61.8665 93.7203 62.1958C96.3754 63.8019 97.1182 66.7905 97.1511 66.9165C97.2988 67.5264 96.9171 68.1364 96.3057 68.2787C96.2154 68.299 96.1292 68.3112 96.0389 68.3112H96.0348Z" fill="black"/>
<path d="M96.289 68.1853C96.1535 68.1853 96.0181 68.1609 95.8868 68.1122C95.2958 67.8926 94.9963 67.242 95.2179 66.6565C95.2261 66.6321 96.1617 64.0623 95.1399 62.0374C94.8567 61.4763 95.0865 60.7973 95.6488 60.5167C96.211 60.2361 96.9004 60.4638 97.1836 61.0209C98.6568 63.9403 97.4134 67.303 97.36 67.4453C97.1877 67.9007 96.7527 68.1813 96.289 68.1813V68.1853Z" fill="black"/>
<mask id="mask0_6215_282581" style="mask-type:alpha" maskUnits="userSpaceOnUse" x="45" y="56" width="28" height="18">
<path d="M51.9966 59.1099C52.1731 59.9191 52.407 60.6469 52.7189 61.2893C52.7886 61.452 52.8871 61.6024 52.9651 61.7569C53.002 61.8342 53.0513 61.9074 53.1005 61.9765C53.1457 62.0497 53.1908 62.1188 53.2318 62.192C53.2811 62.2611 53.3344 62.3262 53.3837 62.3912C53.437 62.4563 53.4699 62.5295 53.5314 62.5864C53.6422 62.7084 53.7284 62.8385 53.8474 62.9442C54.2824 63.3956 54.7379 63.7656 55.2386 64.0177C55.3699 64.0705 55.4807 64.1559 55.6161 64.1966C55.6818 64.221 55.7434 64.2495 55.8049 64.2779C55.8706 64.3023 55.9403 64.3145 56.0019 64.343C56.0676 64.3633 56.1291 64.3958 56.1989 64.4121C56.2686 64.4284 56.3384 64.4446 56.4041 64.4609C56.5354 64.5097 56.6872 64.5137 56.8268 64.5422C56.8637 64.5463 56.8965 64.5625 56.9335 64.5625L57.0443 64.5707C57.1181 64.5788 57.192 64.5869 57.2659 64.5951C57.3397 64.6113 57.4218 64.5991 57.4957 64.6032C57.5737 64.6032 57.6516 64.6032 57.7296 64.6113C57.8896 64.6113 58.0538 64.5951 58.2179 64.5951C58.3862 64.5829 58.5586 64.5503 58.7268 64.5381C59.4204 64.4446 60.1714 64.2413 60.9511 63.9567C61.3409 63.8266 61.7349 63.6395 62.1371 63.4688L62.7403 63.1719C62.8429 63.1191 62.9455 63.0784 63.044 63.0215L63.3477 62.8507C64.1684 62.4238 64.981 61.883 65.8387 61.3666L66.0931 61.2121C67.9891 60.0654 70.4637 60.6591 71.6168 62.5376C72.5853 64.1112 72.3186 66.0873 71.0916 67.36C70.1846 68.3033 69.2079 69.206 68.0917 70.007L67.6772 70.312C67.5418 70.4136 67.3858 70.5031 67.2422 70.6007C66.9467 70.7877 66.6553 70.9788 66.3558 71.1618L65.416 71.6782L65.178 71.8042C65.0959 71.8449 65.0138 71.8815 64.9318 71.9222L64.4311 72.1499C63.0933 72.7516 61.6241 73.2152 60.04 73.4591C59.6379 73.5079 59.2398 73.5567 58.8335 73.5893C58.4231 73.6055 58.0128 73.6258 57.5983 73.6218L56.9704 73.5893C56.7611 73.573 56.5518 73.573 56.3425 73.5364L55.7105 73.451L55.3945 73.4022C55.2878 73.3859 55.1852 73.3575 55.0785 73.3372C54.66 73.2355 54.2373 73.1542 53.8269 73.0078L53.2113 72.8045C53.0061 72.7354 52.805 72.6419 52.604 72.5605C52.4029 72.4751 52.2018 72.3898 52.0089 72.2922L51.4303 71.9832L51.143 71.8246C51.0486 71.7717 50.9583 71.7107 50.8681 71.6497C50.6834 71.5318 50.5028 71.4098 50.3264 71.2878C50.1417 71.1699 49.9816 71.0276 49.8093 70.8934C49.641 70.7593 49.4728 70.6251 49.3086 70.4828C49.1486 70.3364 48.9926 70.19 48.8408 70.0396C48.6848 69.8891 48.533 69.7427 48.3935 69.576C48.1103 69.2548 47.823 68.9417 47.585 68.592C47.4619 68.4213 47.3347 68.2505 47.2198 68.0756L46.8915 67.543C46.7807 67.3641 46.6781 67.1852 46.5878 66.9981L46.3128 66.4411C46.2185 66.2581 46.1487 66.0629 46.0748 65.8718C46.001 65.6807 45.9271 65.4896 45.8573 65.2985C45.607 64.5259 45.41 63.7412 45.3197 62.9483C45.1227 61.3707 45.2376 59.789 45.685 58.3333C46.202 56.654 47.9913 55.7066 49.6862 56.2149C50.8393 56.5605 51.6519 57.4916 51.8899 58.5813L52.0007 59.0937L51.9966 59.1099Z" fill="url(#paint5_linear_6215_282581)"/>
</mask>
<g mask="url(#mask0_6215_282581)">
<path d="M65.346 73.0276C63.4336 73.0276 61.4843 71.7467 60.3763 69.7503C59.0959 67.4489 59.2108 64.8263 60.6964 62.5574C60.8975 62.2524 61.3078 62.163 61.6197 62.3622C61.9275 62.5614 62.0178 62.9681 61.8167 63.2771C60.6102 65.1231 60.5117 67.2537 61.5459 69.116C62.4118 70.6733 63.9384 71.7101 65.3501 71.7101C65.3665 71.7101 65.3788 71.7101 65.3911 71.7101C65.7563 71.7101 66.0518 71.9988 66.0559 72.3607C66.06 72.7267 65.7646 73.0235 65.3993 73.0276C65.3829 73.0276 65.3665 73.0276 65.346 73.0276Z" fill="#3F99F2"/>
<path d="M54.0728 74.3656C53.9333 74.3656 53.7897 74.3209 53.6707 74.2314C52.2425 73.1539 51.5326 70.9257 51.8568 68.5511C52.2302 65.8065 53.8225 63.6271 56.1083 62.7203C56.4489 62.5862 56.8388 62.7488 56.9742 63.0863C57.1096 63.4238 56.9455 63.8101 56.6049 63.9442C54.7705 64.6721 53.4901 66.4611 53.1782 68.726C52.9197 70.6086 53.445 72.3976 54.4791 73.1783C54.7705 73.3979 54.8279 73.8126 54.6063 74.1054C54.475 74.2762 54.278 74.3656 54.0769 74.3656H54.0728Z" fill="#3F99F2"/>
<path d="M45.968 67.5914C45.6479 67.5914 45.3648 67.3596 45.3114 67.0343C44.8846 64.3954 46.0829 61.5776 48.1554 60.3293C49.2347 59.6788 51.4794 58.9103 54.389 61.045C54.6845 61.2605 54.7461 61.6752 54.5286 61.968C54.3111 62.2607 53.8925 62.3217 53.597 62.1062C51.8816 60.8457 50.2401 60.6221 48.8489 61.4597C47.2197 62.4396 46.284 64.6963 46.6288 66.8269C46.6862 67.1888 46.44 67.5263 46.0747 67.5832C46.0378 67.5873 46.005 67.5914 45.968 67.5914Z" fill="#3F99F2"/>
</g>
<path d="M64.5524 31.3322C64.5973 30.3654 63.8609 29.5464 62.9077 29.5031C61.9546 29.4597 61.1455 30.2083 61.1007 31.1751C61.0559 32.142 61.7922 32.9609 62.7454 33.0043C63.6986 33.0477 64.5076 32.2991 64.5524 31.3322Z" fill="#57F287"/>
<path d="M80.3698 33.2116C80.4147 32.2448 79.6783 31.4258 78.7251 31.3824C77.7719 31.3391 76.9629 32.0877 76.9181 33.0545C76.8733 34.0214 77.6096 34.8403 78.5628 34.8837C79.516 34.9271 80.325 34.1785 80.3698 33.2116Z" fill="#57F287"/>
<path d="M71.5676 41.1743C70.8577 41.1743 70.0985 41.0604 69.3023 40.7799C65.1657 39.3161 64.6609 35.5427 64.6445 35.3842L65.966 35.2256C65.9824 35.3516 66.4092 38.3524 69.7496 39.5356C72.8891 40.6457 75.4744 38.4297 75.5032 38.4093L76.3855 39.4015C76.2829 39.4909 74.3172 41.1783 71.5676 41.1783V41.1743Z" fill="#57F287"/>
<path d="M69.3231 40.5438C68.0058 41.9182 65.9047 42.7111 64.8828 41.2473C64.1236 40.1616 65.1372 38.7385 66.0319 37.8887L69.3231 40.5438Z" fill="#57F287"/>
</g>
</g>
<defs>
<linearGradient id="paint0_linear_6215_282581" x1="54.0812" y1="105.874" x2="61.7915" y2="39.8299" gradientUnits="userSpaceOnUse">
<stop offset="0.12" stop-color="#FFC619"/>
<stop offset="0.2" stop-color="#FFBB19"/>
<stop offset="0.33" stop-color="#FF9F19"/>
<stop offset="0.41" stop-color="#FF8C19"/>
<stop offset="0.83" stop-color="#ED5F00"/>
</linearGradient>
<linearGradient id="paint1_linear_6215_282581" x1="89.9675" y1="27.266" x2="36.7523" y2="41.5251" gradientUnits="userSpaceOnUse">
<stop stop-color="#FFC618"/>
<stop offset="0.31" stop-color="#FFAD19"/>
<stop offset="1" stop-color="#FF7D12"/>
</linearGradient>
<linearGradient id="paint2_linear_6215_282581" x1="47.5925" y1="26.364" x2="38.0004" y2="37.8641" gradientUnits="userSpaceOnUse">
<stop stop-color="#FFE75C"/>
<stop offset="1" stop-color="#FFC619"/>
</linearGradient>
<linearGradient id="paint3_linear_6215_282581" x1="68.9357" y1="52.0565" x2="69.5352" y2="48.957" gradientUnits="userSpaceOnUse">
<stop offset="0.02" stop-color="#FFB619"/>
<stop offset="1" stop-color="#FFC619"/>
</linearGradient>
<linearGradient id="paint4_linear_6215_282581" x1="65.5227" y1="55.3447" x2="50.0355" y2="71.4104" gradientUnits="userSpaceOnUse">
<stop stop-color="#8CD9FF"/>
<stop offset="0.8" stop-color="#66BCFF"/>
</linearGradient>
<linearGradient id="paint5_linear_6215_282581" x1="65.5227" y1="55.3447" x2="50.0355" y2="71.4104" gradientUnits="userSpaceOnUse">
<stop stop-color="#8CD9FF"/>
<stop offset="0.8" stop-color="#66BCFF"/>
</linearGradient>
<clipPath id="clip0_6215_282581">
<rect width="134" height="71" fill="white"/>
</clipPath>
<clipPath id="clip1_6215_282581">
<rect width="26" height="23" fill="white" transform="translate(97 10)"/>
</clipPath>
<clipPath id="clip2_6215_282581">
<rect width="41" height="35" fill="white" transform="translate(1 4)"/>
</clipPath>
<clipPath id="clip3_6215_282581">
<rect width="65" height="79" fill="white" transform="translate(36 12)"/>
</clipPath>
</defs>
</svg>
