<svg xmlns="http://www.w3.org/2000/svg" xmlns:xlink="http://www.w3.org/1999/xlink" viewBox="0 0 256 192"><defs><style>.cls-1{isolation:isolate;}.cls-2{fill:#ffd01a;}.cls-3{fill:#ebf0f7;}.cls-4{fill:#270813;}.cls-5{fill:url(#linear-gradient);}.cls-6{fill:url(#linear-gradient-2);}.cls-14,.cls-7{fill:#00e0a7;}.cls-8,.cls-9{fill:#00ad94;}.cls-14,.cls-9{stroke:#00e0a7;}.cls-13,.cls-14,.cls-15,.cls-16,.cls-9{stroke-miterlimit:10;}.cls-9{stroke-width:2px;}.cls-10{fill:#ffa600;}.cls-11,.cls-15,.cls-16{fill:#fff;}.cls-12{fill:#4e1ceb;}.cls-13{fill:#fa4e89;stroke:#fa4e89;}.cls-15{stroke:#fff;}.cls-16{stroke:#00ad94;stroke-width:3px;}.cls-17{fill:#6045ff;}.cls-18{fill:#ff87ff;mix-blend-mode:multiply;}</style><linearGradient id="linear-gradient" x1="221.16" y1="237.42" x2="121.48" y2="105.03" gradientUnits="userSpaceOnUse"><stop offset="0.21" stop-color="#4e1ceb"/><stop offset="0.31" stop-color="#582ef0"/><stop offset="0.52" stop-color="#694ff8"/><stop offset="0.7" stop-color="#7364fd"/><stop offset="0.81" stop-color="#776bff"/></linearGradient><linearGradient id="linear-gradient-2" x1="211.22" y1="78.29" x2="280.04" y2="134.11" gradientUnits="userSpaceOnUse"><stop offset="0.21" stop-color="#4e1ceb"/><stop offset="0.27" stop-color="#423ae1"/><stop offset="0.41" stop-color="#2b75cc"/><stop offset="0.54" stop-color="#18a3bc"/><stop offset="0.65" stop-color="#0bc4b1"/><stop offset="0.75" stop-color="#03d9aa"/><stop offset="0.81" stop-color="#00e0a7"/></linearGradient></defs><title>friends 2</title><g class="cls-1"><g id="art"><rect class="cls-2" width="256" height="192"/><circle class="cls-3" cx="222.13" cy="45.06" r="15.87"/><circle class="cls-3" cx="222.13" cy="25.65" r="10.58"/><circle class="cls-4" cx="219.13" cy="25.65" r="4.41"/><rect class="cls-5" x="75" y="135" width="181" height="57"/><path class="cls-6" d="M193,42.5h63a0,0,0,0,1,0,0v85a0,0,0,0,1,0,0H183a0,0,0,0,1,0,0v-75A10,10,0,0,1,193,42.5Z"/><path class="cls-7" d="M193,42.5h35a10,10,0,0,1,10,10v75a0,0,0,0,1,0,0H183a0,0,0,0,1,0,0v-75a10,10,0,0,1,10-10Z"/><circle class="cls-8" cx="210.5" cy="68.5" r="18"/><circle class="cls-9" cx="210.5" cy="69" r="11"/><circle class="cls-8" cx="210.5" cy="106.5" r="11"/><circle class="cls-9" cx="210.5" cy="106.5" r="5"/><path class="cls-10" d="M64.5,17.5c-26,0-47,8.06-47,18,0,5.72,7,10.82,17.85,14.11a46.17,46.17,0,0,1-8.84,14.26A1.9,1.9,0,0,0,28.25,67c12.14-2,20.16-10.15,23.49-14.2a118.74,118.74,0,0,0,12.76.68c26,0,47-8.06,47-18S90.46,17.5,64.5,17.5Z"/><path class="cls-11" d="M71.29,28.63h0a5.57,5.57,0,0,0-7.87,0l-.67.67-.67-.67a5.56,5.56,0,0,0-7.86,0h0a5.56,5.56,0,0,0,0,7.86L62.73,45l0,0,0,0,8.51-8.51A5.56,5.56,0,0,0,71.29,28.63Z"/><path class="cls-12" d="M256,125.5H41s5,26,39,26H256Z"/><path class="cls-11" d="M0,192H103.42a31.27,31.27,0,0,0,1.58-9.79,32.17,32.17,0,0,0-3.69-14.85l22.22-25a2.25,2.25,0,0,0-2.37-3.64L84.82,150.38c-1.24-.76-2.52-1.49-3.85-2.17a67.49,67.49,0,0,0-30.47-7c-22.85,0-42.4,10.58-50.5,25.58Z"/><path class="cls-10" d="M92.89,192A42,42,0,0,0,71,156.58a38.44,38.44,0,0,0-5,9.92h-30a38.76,38.76,0,0,0-5-9.92A42,42,0,0,0,9,192Z"/><circle class="cls-12" cx="34.5" cy="175.5" r="3"/><path class="cls-13" d="M50.94,185.5h0a6,6,0,0,1-6-6l3-2,3-3,3,3,3,2A6,6,0,0,1,50.94,185.5Z"/><rect class="cls-14" x="131.5" y="168.5" width="106" height="4"/><path class="cls-15" d="M190.5,168.5h50a2,2,0,0,1,2,2v0a2,2,0,0,1-2,2h-50a0,0,0,0,1,0,0v-4A0,0,0,0,1,190.5,168.5Z"/><circle class="cls-16" cx="188.5" cy="170.5" r="8"/><path class="cls-17" d="M80.05,175.62c-8.72,7.91-20.52,4.33-28.23-3a1.27,1.27,0,0,0-1.77,0c-7.7,7.33-19.51,10.9-28.23,3-1.19-1.08-3,.68-1.77,1.76,9.8,8.89,23,5.33,31.77-3H50.05c8.75,8.33,22,11.89,31.77,3,1.2-1.08-.58-2.84-1.77-1.76Z"/><path class="cls-17" d="M61.62,175.38a6.83,6.83,0,0,0,9.76,0c1.19-1.09-.59-2.86-1.76-1.76a4.32,4.32,0,0,1-6.24,0c-1.15-1.13-2.92.64-1.76,1.76Z"/><path class="cls-17" d="M49.69,174.06v6.44a1.25,1.25,0,0,0,2.5,0v-6.44a1.25,1.25,0,0,0-2.5,0Z"/><path d="M157.5,36.58a9.35,9.35,0,0,0-5.31-8.43,9.52,9.52,0,0,0-2.42-.78,3.08,3.08,0,0,0-3.19,1.49l-6.88,11.7-4.76,8.1c-2.19-1.81-5.93-2.07-9.39-.4-4.36,2.1-6.62,6.45-5,9.72s6.39,4.22,10.75,2.12a10.58,10.58,0,0,0,4.38-3.78h0L142.28,45l.47-.81,5.5-9.35A2.09,2.09,0,0,1,150.8,34a7.26,7.26,0,0,1,4.62,6.77v0a.51.51,0,0,0,1,.25A9.26,9.26,0,0,0,157.5,36.58Z"/><path class="cls-11" d="M177.77,78.87h0a22.91,22.91,0,0,0-.93-2.32c-7.47-15.67-31.8-19.67-54.34-8.93s-34.77,32.15-27.3,47.83,31.8,19.67,54.34,8.93c12.77-6.08,22.23-15.6,26.67-25.55h0c13.22-2.83,26.33-18,31.89-25.27a1.32,1.32,0,0,0-1.68-2C190.46,80.43,177.77,78.87,177.77,78.87Z"/><circle class="cls-18" cx="109.31" cy="78.35" r="11"/><path d="M166.21,77.5h-26a4.2,4.2,0,0,0-3.62,2.07l-12.28,20.9c-2.24-1.85-6.06-2.12-9.6-.42-4.46,2.15-6.77,6.6-5.16,9.94s6.53,4.32,11,2.17a10.86,10.86,0,0,0,4.48-3.87h0l10.3-17.52a1.05,1.05,0,0,1,.91-.53H153.9a1.06,1.06,0,0,1,.92,1.6l-5.07,8.63c-2.24-1.85-6.06-2.12-9.6-.42-4.46,2.15-6.76,6.6-5.15,9.94s6.52,4.32,11,2.17a10.86,10.86,0,0,0,4.48-3.87h0l16.91-28.76a1.35,1.35,0,0,0-1.16-2Z"/><path class="cls-2" d="M114.24,74.09h0a3.21,3.21,0,0,0-4.55,0l-.38.39-.39-.39a3.21,3.21,0,0,0-4.55,0h0a3.23,3.23,0,0,0,0,4.55l4.92,4.92,0,0v0l4.92-4.92A3.21,3.21,0,0,0,114.24,74.09Z"/><path d="M79.73,96.5h0a2.13,2.13,0,0,0-1.85,1.06l-12.1,20.57c-2.1-1.74-5.7-2-9-.39-4.2,2-6.38,6.22-4.86,9.36s6.15,4.07,10.35,2.05a10.26,10.26,0,0,0,4.21-3.65h0L81.59,99.75A2.15,2.15,0,0,0,79.73,96.5Z"/></g></g></svg>