<svg fill="none" height="96" viewBox="0 0 121 96" width="121" xmlns="http://www.w3.org/2000/svg"><circle cx="60.5" cy="48" fill="#e3e5e8" r="40"/><path d="m60.5 45.8c-1.22 0-2.2.98-2.2 2.2s.98 2.2 2.2 2.2 2.2-.98 2.2-2.2-.98-2.2-2.2-2.2zm0-17.8c-11.04 0-20 8.96-20 20s8.96 20 20 20 20-8.96 20-20-8.96-20-20-20zm4.38 24.38-16.38 7.62 7.62-16.38 16.38-7.62z" fill="#4f5660"/><g fill="#58f287"><path d="m104.17 1.80634c0-.997616-.808-1.80634-1.806-1.80634s-1.806.808724-1.806 1.80634v1.83644c0 .99761.808 1.80633 1.806 1.80633s1.806-.80872 1.806-1.80633z"/><path d="m104.17 16.3571c0-.9976-.808-1.8063-1.806-1.8063s-1.806.8087-1.806 1.8063v1.8365c0 .9976.808 1.8063 1.806 1.8063s1.806-.8087 1.806-1.8063z"/><path d="m110.694 11.8412c.997 0 1.806-.8087 1.806-1.8063 0-.99766-.809-1.80638-1.806-1.80638h-1.837c-.997 0-1.806.80872-1.806 1.80638 0 .9976.809 1.8063 1.806 1.8063z"/><path d="m96.1429 11.7416c.9976 0 1.8063-.8087 1.8063-1.80636 0-.99761-.8087-1.80633-1.8063-1.80633h-1.8365c-.9976 0-1.8063.80872-1.8063 1.80633 0 .99766.8087 1.80636 1.8063 1.80636z"/></g><path d="m19.6501 90.4573 4.1646-1.3889c.2045-.0937.3778-.2443.4993-.4337.1214-.1893.186-.4097.186-.6347s-.0646-.4454-.186-.6347c-.1215-.1894-.2948-.34-.4993-.4337l-4.1646-1.3889c-.2844-.1285-.5123-.3565-.6407-.6411l-1.4949-4.1668c-.0703-.2138-.2062-.3999-.3883-.5318-.1822-.132-.4013-.203-.6262-.203s-.444.071-.6262.203c-.1821.1319-.318.318-.3883.5318l-1.4949 4.1668c-.1284.2846-.3563.5126-.6407.6411l-4.16462 1.3889c-.20448.0937-.37776.2443-.49924.4337-.12147.1893-.18604.4097-.18604.6347s.06457.4454.18604.6347c.12148.1894.29476.34.49924.4337l4.16462 1.3889c.1512.0459.2888.1285.4006.2403.1117.1118.1942.2495.2401.4008l1.4949 4.1668c.0703.2138.2062.3999.3883.5318.1822.132.4013.203.6262.203s.444-.071.6262-.203c.1821-.1319.318-.318.3883-.5318l1.4949-4.1668c.0459-.1513.1284-.289.2401-.4008.1118-.1118.2494-.1944.4006-.2403z" fill="#ffd01a"/></svg>