<svg width="40" height="40" viewBox="0 0 40 40" fill="none" xmlns="http://www.w3.org/2000/svg">
<path d="M40 20C40 23.9556 38.827 27.8224 36.6294 31.1114C34.4318 34.4004 31.3082 36.9638 27.6537 38.4776C23.9992 39.9913 19.9778 40.3874 16.0982 39.6157C12.2186 38.844 8.65492 36.9392 5.85787 34.1421C3.06082 31.3451 1.15601 27.7814 0.384303 23.9018C-0.387401 20.0222 0.00866572 16.0009 1.52242 12.3463C3.03617 8.69181 5.59962 5.56824 8.8886 3.37061C12.1776 1.17298 16.0444 0 20 0C25.3043 0 30.3914 2.10714 34.1421 5.85786C37.8929 9.60859 40 14.6957 40 20Z" fill="#FFD836"/>
<path d="M28 34.042L12 34.042L12 32.1503C12 29.9888 12.8429 27.9158 14.3431 26.3874C15.8434 24.859 17.8783 24.0003 20 24.0003C22.1217 24.0003 24.1566 24.859 25.6569 26.3874C27.1571 27.9158 28 29.9888 28 32.1503L28 34.042Z" fill="#A63A0C"/>
<path d="M30.8666 21.4502H25.3166C24.7873 21.4502 24.3583 21.8774 24.3583 22.4044C24.3583 22.9313 24.7873 23.3585 25.3166 23.3585H30.8666C31.3959 23.3585 31.8249 22.9313 31.8249 22.4044C31.8249 21.8774 31.3959 21.4502 30.8666 21.4502Z" fill="#A63A0C"/>
<path d="M14.6834 21.4502H9.13338C8.60411 21.4502 8.17505 21.8774 8.17505 22.4044C8.17505 22.9313 8.60411 23.3585 9.13338 23.3585H14.6834C15.2127 23.3585 15.6417 22.9313 15.6417 22.4044C15.6417 21.8774 15.2127 21.4502 14.6834 21.4502Z" fill="#A63A0C"/>
<path d="M8.63578 16.5576C9.01357 15.5197 10.1613 14.9845 11.1992 15.3623L17.1506 17.5284C17.4966 17.6543 17.675 18.0369 17.549 18.3829V18.3829C16.9194 20.1128 15.0066 21.0047 13.2767 20.3751L9.83113 19.121C8.79317 18.7432 8.258 17.5956 8.63578 16.5576V16.5576Z" fill="#A63A0C"/>
<path d="M31.093 16.5571C30.7152 15.5192 29.5675 14.984 28.5296 15.3618L22.5782 17.5279C22.2322 17.6538 22.0538 18.0364 22.1797 18.3824V18.3824C22.8094 20.1123 24.7222 21.0043 26.4521 20.3746L29.8976 19.1205C30.9356 18.7428 31.4708 17.5951 31.093 16.5571V16.5571Z" fill="#A63A0C"/>
<mask id="mask0_161_65464" style="mask-type:alpha" maskUnits="userSpaceOnUse" x="12" y="24" width="16" height="11">
<path d="M28 34.0415L12 34.0415L12 32.1498C12 29.9883 12.8429 27.9153 14.3431 26.3869C15.8434 24.8585 17.8783 23.9998 20 23.9998C22.1217 23.9998 24.1566 24.8585 25.6569 26.3869C27.1571 27.9153 28 29.9883 28 32.1498L28 34.0415Z" fill="#A63A0C"/>
</mask>
<g mask="url(#mask0_161_65464)">
<ellipse cx="20" cy="34.0419" rx="8" ry="5.93103" fill="#A89339"/>
</g>
</svg>
