<svg width="311" height="206" viewBox="0 0 311 206" fill="none" xmlns="http://www.w3.org/2000/svg">
<path d="M12.44 0H298.56C305.402 0 311 5.58621 311 12.4138V167.586C311 174.414 305.402 180 298.56 180H12.44C5.598 180 0 174.414 0 167.586V12.4138C0 5.58621 5.598 0 12.44 0Z" fill="url(#paint0_linear_3964_230469)"/>
<path d="M311 61.4484C275.795 48.2898 234.867 50.7725 213.719 81.807C192.571 112.841 171.05 113.959 146.917 104.028C122.783 94.0967 39.3107 107.876 54.8607 180H298.56C305.402 180 311 174.414 311 167.586V61.4484Z" fill="#3442D9"/>
<path d="M12.44 0C5.598 0 0 5.58621 0 12.4138V74.731C14.928 86.7724 32.966 86.6483 44.784 80.069C61.3292 70.8828 64.8124 47.669 48.2672 32.4C38.4396 23.0897 33.588 8.68966 41.4252 0H12.44Z" fill="#3442D9"/>
<path fill-rule="evenodd" clip-rule="evenodd" d="M139.75 7.67091C140.306 7.61247 140.871 7.58252 141.443 7.58252H142.065C149.055 7.58252 155.134 12.6477 156.258 19.6046L156.26 19.6129L168.577 90.7522L171.533 90.2404L159.22 19.1259C159.219 19.123 159.219 19.1201 159.218 19.1172C157.851 10.6855 150.497 4.58252 142.065 4.58252H141.069C140.504 4.58252 139.945 4.61986 139.393 4.69177C129.949 5.70472 122.527 13.641 122.527 23.4618C122.527 26.0263 123.066 28.5788 124.008 30.8616L124.011 30.8689L124.014 30.8761C129.022 42.6582 131.998 52.6521 131.5 63.552C131.003 74.4529 127.019 86.4384 117.758 102.148C108.395 118.032 100.953 134.458 99.3493 150.132C97.7351 165.905 102.044 180.882 116.048 193.645C142.068 217.424 176.152 202.132 181.601 175.333C184.297 162.071 181.455 150.985 176.273 140.85C172.457 133.385 167.314 126.346 162.202 119.348C160.438 116.934 158.677 114.524 156.976 112.103C150.392 102.735 147.56 94.4566 146.521 86.8484C145.509 79.4472 146.182 72.6309 146.85 65.8706C146.872 65.6453 146.894 65.4201 146.916 65.195C148.323 50.8988 143.975 39.6088 138.544 32.2536L138.539 32.2469L132.803 24.6559L132.794 24.6442C129.198 20.0782 129.965 13.4567 134.523 9.87583C136.053 8.71063 137.856 7.9243 139.75 7.67091ZM127.853 15.1705C126.378 17.5761 125.527 20.4113 125.527 23.4618C125.527 25.6119 125.981 27.774 126.779 29.71C131.846 41.6353 135.026 52.1222 134.497 63.6889C133.969 75.2569 129.742 87.7267 120.343 103.672C111.046 119.443 103.871 135.417 102.334 150.437C100.807 165.356 104.833 179.365 118.071 191.429L118.072 191.43C142.31 213.582 173.66 199.33 178.661 174.735C181.189 162.301 178.559 151.911 173.602 142.215C169.903 134.981 164.968 128.224 159.898 121.284C158.106 118.831 156.298 116.356 154.521 113.828C147.67 104.078 144.655 95.3498 143.548 87.2546C142.488 79.4966 143.193 72.3682 143.855 65.6701C143.88 65.4131 143.905 65.1568 143.931 64.9011C145.26 51.3947 141.152 40.839 136.136 34.0422L130.427 26.4881C127.82 23.1694 127.002 19 127.853 15.1705Z" fill="#57F287"/>
<path d="M111.836 133.945C79.2428 152.814 39.186 164.11 0 168.952V113.71C24.1336 111.724 59.2144 106.138 87.4532 90.6206L111.836 133.945Z" fill="url(#paint1_linear_3964_230469)"/>
<path d="M106.362 124.262L86.8311 107.255C91.8071 117.311 93.2999 135.062 93.6731 143.38C99.8931 140.4 105.989 137.297 111.835 133.945L106.362 124.262Z" fill="black"/>
<path d="M148.534 138.662C169.557 126.869 168.811 112.717 157.366 83.2966C154.754 76.2208 151.768 69.269 148.409 62.5656L147.041 63.0621L116.065 57.1035L82.6016 103.904C86.0848 112.593 90.0656 121.159 94.544 129.352C111.214 161.504 127.51 150.455 148.534 138.662Z" fill="#EB459F"/>
<path d="M156.993 36.1241C154.629 33.7654 154.878 32.0275 155.749 29.4206C155.873 28.9241 156.371 28.6758 156.868 28.6758H160.6V36.1241H156.993Z" fill="#57F287"/>
<path d="M221.804 160.634L218.694 163.862C217.077 165.6 214.714 166.593 212.35 166.593H198.044V140.648H221.804L224.044 153.186C224.541 155.917 223.67 158.648 221.804 160.634Z" fill="#8CD9FF"/>
<path d="M127.634 50.3999L124.276 53.8758C122.41 55.862 121.539 58.7171 122.036 61.4482L125.146 79.5723H143.433V50.3999H127.634Z" fill="#8CD9FF"/>
<path d="M220.81 156.289C221.805 160.883 218.819 165.476 214.092 166.469C213.47 166.593 212.724 166.717 212.102 166.593H150.648C144.677 166.345 139.576 162.124 138.332 156.289L122.036 61.5722C121.041 56.979 124.026 52.3859 128.754 51.3928C129.376 51.2687 130.122 51.1446 130.744 51.2687H192.198C198.169 51.517 203.269 55.7377 204.513 61.5722L220.81 156.289Z" fill="#8CD9FF"/>
<path d="M223.92 152.938C224.915 157.531 222.054 162 217.576 162.993C216.829 163.117 216.083 163.241 215.212 163.241H153.758C147.787 163.117 142.687 158.772 141.443 152.938L125.146 58.3446C124.151 53.7515 127.137 49.1584 131.864 48.1653C132.486 48.0412 133.232 47.917 133.854 48.0412H195.432C201.404 48.1653 206.504 52.5101 207.624 58.3446L223.92 152.938Z" fill="white"/>
<path d="M176.026 56.9792C176.524 59.7102 174.782 62.4413 172.045 62.9378C171.672 63.062 171.174 63.062 170.801 63.062H163.586C160.103 62.9378 157.117 60.4551 156.371 56.9792L153.136 38.4827C152.639 35.7516 154.38 33.0206 157.117 32.524C157.49 32.3999 157.988 32.3999 158.361 32.3999H165.576C169.06 32.524 172.045 35.0068 172.792 38.4827L176.026 56.9792Z" fill="black"/>
<path d="M211.853 144.248C212.351 147.476 210.236 150.579 207.001 151.076C206.504 151.2 206.131 151.2 205.633 151.2H160.351C156.246 151.076 152.639 148.221 151.768 144.248C151.146 141.021 153.261 137.917 156.495 137.296C156.993 137.172 157.49 137.172 157.988 137.172H203.269C207.374 137.297 210.982 140.152 211.853 144.248Z" fill="#FFC619"/>
<path d="M168.856 57.6256C170.155 56.2102 169.813 53.7862 168.091 52.2113C166.368 50.6365 163.919 50.5072 162.619 51.9226C161.319 53.338 161.662 55.762 163.384 57.3368C165.106 58.9117 167.556 59.041 168.856 57.6256Z" fill="#5865F2"/>
<path d="M166.074 35.6275C165.949 35.8758 165.701 36.1241 165.452 36.1241H158.485C158.112 36.1241 157.988 35.8758 157.988 35.7516C157.988 35.6275 157.988 35.6275 157.863 35.6275V35.3792C157.863 35.2551 157.863 35.0068 157.988 34.8827C159.232 31.7792 158.361 30.2896 156.868 29.1723V28.6758H161.969C162.342 28.6758 162.715 28.6758 162.964 28.9241C165.452 30.2896 167.567 31.4068 166.074 35.6275Z" fill="#57F287"/>
<path d="M161.097 24.0825H156.868C156.495 24.0825 156.246 24.4549 156.37 24.7032L156.992 28.6756H161.844L161.097 24.0825Z" fill="black"/>
<path d="M158.818 26.0686C160.121 26.0025 161.139 25.1719 161.09 24.2133C161.042 23.2547 159.945 22.5312 158.642 22.5972C157.338 22.6633 156.321 23.4939 156.369 24.4525C156.418 25.4111 157.514 26.1346 158.818 26.0686Z" fill="black"/>
<path d="M155.873 53.6274C154.505 56.855 151.021 58.5929 146.543 59.3378C138.706 60.7033 127.385 59.2136 117.806 58.2205C129.749 85.9033 126.017 108.248 111.835 122.027C105.615 127.117 97.6537 129.352 93.4241 127.241C79.8645 101.048 76.6301 90.3722 79.6157 79.324C82.9745 66.2895 90.8117 55.6136 92.8021 52.7584C109.596 29.0481 122.907 31.9033 146.294 37.3653C154.753 39.3515 159.605 44.4412 155.873 53.6274Z" fill="url(#paint2_linear_3964_230469)"/>
<path d="M155.127 42.9517C154.629 44.4413 150.649 44.4413 146.419 42.9517C142.189 41.462 139.079 38.9793 139.701 37.3655C140.323 35.7517 144.055 36.2482 148.409 37.3655C155.127 39.1034 155.625 41.3379 155.127 42.9517Z" fill="#FFCCE5"/>
<path d="M152.016 38.6069C152.638 38.8552 153.012 39.4759 153.012 40.2207C153.26 41.9587 152.141 43.4483 150.399 43.8207C150.026 43.9449 149.528 43.8207 149.155 43.6966C152.265 44.4414 154.753 44.069 155.126 42.9518C155.5 41.8345 155.251 40.0966 152.016 38.6069Z" fill="white"/>
<path fill-rule="evenodd" clip-rule="evenodd" d="M118.32 58.5568C118.958 58.2908 119.69 58.5916 119.956 59.2287C128.11 78.7578 132.031 101.576 114.149 122.225C113.697 122.747 112.908 122.804 112.386 122.352C111.864 121.9 111.807 121.11 112.259 120.589C129.209 101.017 125.666 79.3938 117.649 60.1919C117.383 59.5549 117.683 58.8228 118.32 58.5568Z" fill="black"/>
<path fill-rule="evenodd" clip-rule="evenodd" d="M110.468 58.8348C110.54 58.1483 111.155 57.6502 111.842 57.7223L118.932 58.4671C119.619 58.5392 120.117 59.1543 120.045 59.8408C119.973 60.5274 119.358 61.0255 118.671 60.9534L111.58 60.2086C110.894 60.1365 110.396 59.5214 110.468 58.8348Z" fill="black"/>
<path d="M231.509 24.2069C228.399 22.2207 226.284 18.9931 225.662 15.269L224.791 8.93796C224.667 8.68968 224.418 8.44141 224.169 8.44141C223.92 8.44141 223.547 8.68968 223.547 8.93796L222.552 15.269C222.054 18.9931 219.94 22.2207 216.83 24.2069L215.959 24.7035C215.834 24.8276 215.71 25.0759 215.71 25.2C215.71 25.3242 215.834 25.5724 215.959 25.6966L216.83 26.1931C219.94 28.1793 222.054 31.4069 222.552 35.1311L223.547 41.338C223.547 41.7104 223.796 41.9586 224.169 41.9586C224.418 41.9586 224.667 41.7104 224.791 41.338L225.662 35.1311C226.16 31.4069 228.274 28.1793 231.509 26.1931L232.255 25.6966C232.38 25.5724 232.504 25.4483 232.504 25.2C232.504 24.9517 232.38 24.8276 232.255 24.7035L231.509 24.2069Z" fill="#8CD9FF"/>
<path d="M87.0804 33.0209C85.4632 32.0278 84.468 30.414 84.2192 28.5519L83.7216 25.5726C83.7216 25.3243 83.5972 25.2002 83.3484 25.2002C83.224 25.2002 83.0996 25.3243 83.0996 25.5726L82.602 28.5519C82.3532 30.414 81.358 32.0278 79.7408 33.0209L79.3676 33.2692C79.2432 33.3933 79.2432 33.3933 79.2432 33.5174C79.2432 33.6416 79.2432 33.7657 79.3676 33.7657L79.7408 34.1381C81.358 35.1312 82.3532 36.6209 82.602 38.483L83.0996 41.5864C83.0996 41.7105 83.224 41.8347 83.3484 41.8347C83.5972 41.8347 83.7216 41.7105 83.7216 41.5864L84.2192 38.483C84.468 36.6209 85.4632 35.1312 87.0804 34.1381L87.4536 33.7657C87.578 33.6416 87.578 33.6416 87.578 33.5174C87.578 33.3933 87.4536 33.3933 87.4536 33.2692L87.0804 33.0209Z" fill="#FFE75C"/>
<path d="M263.107 58.0964C261.49 57.1033 260.494 55.6137 260.246 53.7516L259.748 50.6482C259.748 50.524 259.624 50.3999 259.375 50.3999C259.25 50.3999 259.126 50.524 259.126 50.6482L258.628 53.7516C258.38 55.6137 257.384 57.1033 255.767 58.0964L255.394 58.3447C255.27 58.4689 255.27 58.593 255.27 58.7171C255.27 58.8413 255.27 58.8413 255.394 58.9654L255.767 59.2137C257.384 60.2068 258.38 61.6964 258.628 63.5585L259.126 66.662C259.126 66.9102 259.25 67.0344 259.375 67.0344C259.624 67.0344 259.748 66.9102 259.748 66.662L260.246 63.5585C260.494 61.6964 261.49 60.2068 263.107 59.2137L263.48 58.9654C263.604 58.8413 263.604 58.8413 263.604 58.7171C263.604 58.593 263.604 58.4689 263.48 58.3447L263.107 58.0964Z" fill="#57F287"/>
<path d="M234.37 114.207C233.126 113.462 232.255 112.221 232.006 110.731L231.633 108.248C231.633 108.124 231.509 108 231.384 108C231.26 108 231.135 108.124 231.135 108.248L230.762 110.731C230.638 112.221 229.767 113.462 228.523 114.207L228.15 114.455C228.025 114.579 228.025 114.579 228.025 114.703V114.952H228.399C229.643 115.697 230.513 117.062 230.638 118.552L231.011 121.034C231.011 121.159 231.135 121.159 231.26 121.159C231.384 121.159 231.509 121.159 231.509 121.034L231.882 118.552C232.131 117.062 233.001 115.821 234.245 114.952H234.494V114.703C234.494 114.579 234.494 114.455 234.37 114.455V114.207Z" fill="#808AFF"/>
<path d="M185.73 83.6689C186.227 83.2965 186.974 83.4206 187.471 83.9172C187.969 84.4137 188.218 85.0344 187.969 85.6551L183.366 95.2137L201.404 98.8137C201.528 99.1861 201.528 99.5585 201.653 99.931C201.777 100.303 201.777 100.676 201.777 101.048L185.108 104.648L192.82 114.207C193.318 114.703 193.318 115.448 192.945 115.945C192.696 116.193 192.447 116.317 192.074 116.317C191.825 116.317 191.576 116.193 191.328 116.069L180.754 109.862L180.007 127.117C179.634 127.117 179.261 127.117 178.888 127.117C178.514 127.117 178.141 127.117 177.768 127.117L171.175 109.862L162.716 116.069C162.467 116.193 162.218 116.317 161.969 116.317C161.596 116.317 161.223 116.193 160.974 115.945C160.476 115.448 160.228 114.828 160.476 114.207L165.079 104.648L147.041 101.048C146.917 100.676 146.917 100.303 146.792 99.931C146.668 99.5585 146.668 99.1861 146.668 98.8137L163.462 95.2137L155.625 85.6551C155.252 85.1585 155.127 84.4137 155.5 83.9172C155.874 83.4206 156.62 83.4206 157.242 83.6689L167.816 89.8758L168.438 72.6206C168.811 72.6206 169.184 72.6206 169.558 72.6206C169.931 72.6206 170.304 72.6206 170.677 72.6206L177.27 89.8758L185.73 83.6689Z" fill="white"/>
<path d="M201.653 101.048C203.519 115.2 194.064 126.621 179.883 127.241L180.629 109.986L191.203 116.193C191.452 116.317 191.701 116.441 191.95 116.441C192.323 116.441 192.696 116.317 192.82 116.069C193.194 115.572 193.194 114.952 192.696 114.331L184.859 104.772L201.653 101.048ZM177.27 89.8758L185.73 83.6689C186.227 83.2965 186.974 83.4206 187.471 83.9172C187.969 84.4137 188.218 85.0344 187.969 85.6551L183.366 95.2137L201.404 98.8137C198.418 84.662 184.983 73.2413 170.677 72.6206L177.27 89.8758ZM167.692 89.8758L168.314 72.6206C154.256 73.2413 144.678 84.662 146.544 98.8137L163.338 95.2137L155.5 85.6551C155.127 85.1585 155.003 84.4137 155.376 83.9172C155.749 83.4206 156.496 83.4206 157.118 83.6689L167.692 89.8758ZM160.974 115.821C160.476 115.324 160.228 114.703 160.476 114.083L165.079 104.524L147.041 100.924C150.027 115.076 163.462 126.496 177.768 127.117L171.175 109.862L162.716 116.069C162.467 116.193 162.218 116.317 161.969 116.317C161.596 116.317 161.223 116.069 160.974 115.821Z" fill="url(#paint3_linear_3964_230469)"/>
<defs>
<linearGradient id="paint0_linear_3964_230469" x1="155.5" y1="170.851" x2="155.5" y2="6.23173" gradientUnits="userSpaceOnUse">
<stop stop-color="#5865F2"/>
<stop offset="1" stop-color="#3442D9"/>
</linearGradient>
<linearGradient id="paint1_linear_3964_230469" x1="96.0096" y1="129.697" x2="-1.86836" y2="129.909" gradientUnits="userSpaceOnUse">
<stop stop-color="#EB459F"/>
<stop offset="1" stop-color="#FF78B9"/>
</linearGradient>
<linearGradient id="paint2_linear_3964_230469" x1="133.563" y1="113.568" x2="112.568" y2="54.574" gradientUnits="userSpaceOnUse">
<stop stop-color="#EB459F"/>
<stop offset="1" stop-color="#FF78B9"/>
</linearGradient>
<linearGradient id="paint3_linear_3964_230469" x1="158.166" y1="119.177" x2="190.701" y2="80.9759" gradientUnits="userSpaceOnUse">
<stop stop-color="#11A574"/>
<stop offset="1" stop-color="#169DD8"/>
</linearGradient>
</defs>
</svg>
