<svg width="96" height="54" fill="none" xmlns="http://www.w3.org/2000/svg">
  <path d="M74.675 35.938v10.534h-29.59l-.819-1.8 30.409-8.734z" fill="#800820"/>
  <path d="M74.675 46.462V35.938l-7.597 2.187 7.597 8.338z" fill="#610618"/>
  <path d="M59.47 9.427L44.267 24.492v20.18l7.647-2.137V27.697l7.607-7.528 7.607 7.528v10.426l7.598-2.186V24.492L59.47 9.427z" fill="#9E0B29"/>
  <path d="M67.078 27.618v10.505l-15.215 4.363V27.618l7.608-7.537 7.607 7.537z" fill="#FF6176"/>
  <path d="M59.47 9.427V20.08l7.608 7.538 7.597-3.126L59.47 9.427z" fill="#D90D35"/>
  <path d="M90.248 22.494c0-.366-.3-.663-.669-.663a.666.666 0 00-.669.663v.663c0 .366.3.663.67.663.369 0 .668-.297.668-.663v-.663zM90.248 27.796c0-.366-.3-.663-.669-.663a.666.666 0 00-.669.663v.663c0 .366.3.663.67.663.369 0 .668-.297.668-.663v-.663zM92.574 26.135c.37 0 .669-.297.669-.663 0-.366-.3-.663-.669-.663h-.669a.666.666 0 00-.669.663c0 .366.3.663.67.663h.668zM87.233 26.135c.37 0 .67-.297.67-.663 0-.366-.3-.663-.67-.663h-.669a.666.666 0 00-.668.663c0 .366.299.663.668.663h.67z" fill="#FF96A4"/>
  <path d="M32.386 4.451L31.12 7.053a.707.707 0 00.086.903.722.722 0 00.912.086l2.626-1.246a.704.704 0 01.628 0l2.566 1.207a.724.724 0 00.912-.086.71.71 0 00.086-.904l-1.288-2.562a.668.668 0 010-.613l1.288-2.602a.707.707 0 00-.086-.903.722.722 0 00-.912-.086l-2.605 1.286a.704.704 0 01-.63 0L32.078.287a.724.724 0 00-.912.086.71.71 0 00-.086.903l1.267 2.602a.737.737 0 01.04.573z" fill="#E8234B"/>
  <path d="M59.35 54l7.598-7.528h10.751L80.854 54H59.351z" fill="#9E0B29"/>
  <path d="M72.548 40.923H57.344l7.607 7.528 7.597-7.528z" fill="#D90D35"/>
  <path d="M12.131 38.935h29.27L48.77 54H27.345L12.131 38.935z" fill="#9E0B29"/>
  <path d="M45.085 46.472l-3.684-7.537H22.883l7.607 7.537h14.595z" fill="#D90D35"/>
  <path d="M1 54h8.286v-8.21L1 54zM95 54l-4.752-4.709-4.752 4.71H95z" fill="#96092C"/>
  <path d="M41.401 38.935v7.537h3.684L41.4 38.935z" fill="#FF6176"/>
  <path d="M45.085 46.472H41.4V54h7.368l-3.684-7.528z" fill="#800820"/>
  <path d="M90.248 49.291l2.366 4.71H95l-4.752-4.71z" fill="#7A132B"/>
</svg>
