<svg width="18" height="18" viewBox="0 0 18 18" fill="none" xmlns="http://www.w3.org/2000/svg">
<path fill-rule="evenodd" clip-rule="evenodd" d="M3.18344 7.8257C3.29096 7.7321 3.42921 7.6846 3.56969 7.69297V7.68823C4.39283 7.68823 6.04141 8.81903 7.61181 10.533C9.49262 12.5813 10.5526 14.6911 9.98467 15.2435C9.87833 15.3397 9.73964 15.3891 9.59839 15.381C9.5769 15.381 9.55486 15.3802 9.53227 15.3787L0.865497 17.9765C0.745846 18.009 0.61992 18.0077 0.500916 17.9728C0.381912 17.9379 0.274211 17.8706 0.189102 17.778C0.103992 17.6854 0.0446077 17.5709 0.0171714 17.4465C-0.0102649 17.3221 -0.00474257 17.1924 0.0331596 17.0709L0.493884 15.7187L0.492989 15.7175L1.07471 14.0106L1.07542 14.0118L1.61996 12.4135L1.61959 12.4129L2.28868 10.4476L2.28925 10.4491L3.03144 8.27072C3.03114 8.07686 3.07997 7.92537 3.18288 7.82624L3.18317 7.8254L3.18344 7.8257ZM3.4916 8.15302C3.48488 8.16584 3.47974 8.18186 3.47626 8.20098L3.4799 8.20492C3.4377 8.41156 3.60648 9.0135 4.11807 9.8833C4.49884 10.5293 5.06893 11.3218 5.88285 12.2092C7.48774 13.9587 8.99607 14.907 9.59848 14.907C9.61516 14.9099 9.63206 14.9109 9.6489 14.9102L9.65575 14.9091H9.66364C9.66876 14.9086 9.67387 14.9079 9.67895 14.907C9.81691 14.6439 9.29037 13.0342 7.28771 10.8508C5.68281 9.10128 4.17449 8.15302 3.56978 8.15302C3.54391 8.14842 3.51747 8.14842 3.4916 8.15302Z" fill="#2E3338"/>
<path fill-rule="evenodd" clip-rule="evenodd" d="M14.0605 2.09484C13.9028 2.16262 13.7328 2.19442 13.5621 2.18808C13.3565 2.18533 13.1534 2.14104 12.9643 2.05769C12.9341 2.03937 12.899 2.03153 12.8642 2.03533C12.8294 2.03914 12.7967 2.0544 12.7709 2.07884C12.7451 2.10329 12.7277 2.13563 12.7211 2.1711C12.7145 2.20656 12.7192 2.24327 12.7344 2.27579C12.8779 2.65455 13.127 2.98099 13.4503 3.21389C13.7735 3.4468 14.1565 3.57572 14.5508 3.58439C14.7768 3.58563 15.0006 3.53776 15.2075 3.4439C15.4144 3.35004 15.5998 3.2123 15.7517 3.03965C15.9035 2.86699 16.0184 2.6633 16.0888 2.44183C16.1592 2.22036 16.1835 1.98608 16.1603 1.75425C16.128 1.35303 15.979 0.971191 15.7329 0.658636C15.4868 0.346081 15.1549 0.117351 14.7807 0.00233924C14.7501 -0.00298454 14.7186 0.000822559 14.69 0.013313C14.6614 0.0258034 14.6368 0.046458 14.6192 0.0728493C14.6015 0.0992407 14.5916 0.130272 14.5905 0.162296C14.5894 0.19432 14.5971 0.226005 14.6129 0.253628C14.7062 0.430202 14.7633 0.624667 14.7807 0.824956C14.8007 0.99985 14.7838 1.17714 14.7311 1.34465C14.6784 1.51217 14.5912 1.66595 14.4754 1.79544C14.3597 1.92493 14.2181 2.02707 14.0605 2.09484ZM10.7051 13.2469L10.684 14.2821C10.683 14.3314 10.6958 14.3798 10.7206 14.421C10.7454 14.4621 10.781 14.494 10.8227 14.5124L14.2432 16.006C14.2758 16.0201 14.3109 16.0255 14.3458 16.0219C14.3806 16.0182 14.4141 16.0056 14.4436 15.9849C14.4732 15.9643 14.4978 15.9364 14.5156 15.9033C14.5333 15.8702 14.5437 15.8331 14.5458 15.7948L14.5689 14.7617C14.57 14.7121 14.557 14.6634 14.5318 14.6221C14.5066 14.5809 14.4705 14.5492 14.4282 14.5314L11.0077 13.0357C10.9751 13.0216 10.94 13.0162 10.9052 13.0198C10.8704 13.0235 10.8368 13.0362 10.8073 13.0568C10.7778 13.0774 10.7531 13.1053 10.7354 13.1384C10.7176 13.1715 10.7073 13.2087 10.7051 13.2469ZM15.1025 12.1308C15.3324 12.1545 15.4428 12.0028 15.3186 11.8345L14.4955 10.7393L13.6746 9.62979C13.6102 9.54734 13.5222 9.48788 13.4232 9.4598C13.3242 9.43172 13.2191 9.43645 13.1228 9.47332L10.3361 11.2347C10.1429 11.3556 10.3637 11.6567 10.6718 11.6875L15.1025 12.1308ZM8.47843 3.16983L7.20112 6.07582L6.10533 6.57136C6.04806 6.59743 5.9984 6.63849 5.96129 6.69048C5.92418 6.74247 5.90091 6.80356 5.8938 6.86769L5.5834 9.76226C5.57689 9.82629 5.58661 9.89097 5.61159 9.94997C5.63658 10.009 5.67598 10.0603 5.72595 10.0989L6.79741 10.9097C6.84801 10.9474 6.90724 10.9709 6.9693 10.978C7.03136 10.985 7.09414 10.9754 7.1515 10.95L9.73589 9.79071C9.7959 9.76478 9.84782 9.72229 9.88595 9.66793C9.92408 9.61356 9.94694 9.54941 9.95202 9.48252L10.2624 6.59033C10.2686 6.5256 10.2581 6.46033 10.2318 6.40119C10.2056 6.34204 10.1645 6.29115 10.113 6.2537L9.17711 5.54402L10.0879 3.47565C10.105 3.43498 10.1124 3.39066 10.1093 3.34645C10.1062 3.30224 10.0928 3.25945 10.0702 3.22173C10.0476 3.18401 10.0165 3.15248 9.97958 3.12982C9.94263 3.10716 9.90092 3.09405 9.85799 3.0916L8.73595 3.011C8.68236 3.00676 8.62882 3.01976 8.5827 3.04821C8.53658 3.07666 8.50015 3.11915 8.47843 3.16983ZM5.51318 4.71769L4.98601 4.83405L4.97975 4.84546C4.96431 4.87277 4.95432 4.90298 4.95037 4.93433C4.94642 4.96568 4.94859 4.99753 4.95676 5.028L5.1453 5.61592C5.15344 5.64951 5.15435 5.68453 5.14796 5.71851C5.14157 5.7525 5.12803 5.78463 5.10831 5.81265C5.08859 5.84067 5.06315 5.86389 5.03379 5.88069C5.00443 5.89749 4.97186 5.90745 4.93836 5.90988L4.39573 5.82217C4.36729 5.81922 4.33858 5.82352 4.31212 5.83468C4.28567 5.84584 4.26227 5.86352 4.24398 5.88617L3.78413 6.38875C3.76672 6.41729 3.74047 6.43892 3.70963 6.45012C3.67879 6.46132 3.64519 6.46143 3.61428 6.45044C3.58337 6.43945 3.55698 6.41801 3.53939 6.38959C3.5218 6.36117 3.51405 6.32746 3.51741 6.29393V5.61829C3.51875 5.58988 3.51288 5.56159 3.50038 5.53623C3.48788 5.51087 3.46918 5.48931 3.44613 5.47368L2.98628 5.19869C2.87131 5.13231 2.8989 4.92369 3.02996 4.84546L3.57259 4.52305C3.62583 4.4872 3.66432 4.43232 3.68066 4.36896L3.84391 3.69569C3.88069 3.53212 4.05314 3.461 4.13361 3.57242L4.46931 4.04655C4.48448 4.06855 4.50589 4.08515 4.53061 4.09407C4.53584 4.09596 4.54116 4.09748 4.54654 4.09864L4.92686 1.35373C4.93277 1.31306 4.95076 1.27526 4.97834 1.24555C5.00593 1.21584 5.04176 1.19566 5.08091 1.18779L5.89486 1.00525C5.9264 0.998752 5.95901 1.00039 5.98979 1.01C6.02058 1.01961 6.04858 1.03691 6.07133 1.06036C6.09407 1.08382 6.11085 1.11269 6.12017 1.14443C6.1295 1.17617 6.13108 1.20979 6.12478 1.24231L5.66493 4.56122C5.65748 4.59985 5.63908 4.63534 5.61207 4.66319C5.58506 4.69104 5.55064 4.71 5.51318 4.71769ZM16.5211 5.16846L16.4728 3.98313C16.4613 3.69628 16.0888 3.62753 15.8359 3.83378L14.8127 4.78204C14.7162 4.87065 14.5901 4.91736 14.4609 4.91243L13.1825 4.8176C12.879 4.79626 12.6054 5.12578 12.7227 5.36285L13.2101 6.38223C13.2323 6.43545 13.2403 6.49377 13.2335 6.55125C13.2266 6.60873 13.2051 6.6633 13.1711 6.70938L12.4238 7.83781C12.2444 8.10569 12.4491 8.3878 12.7687 8.31194L14.0931 7.99664C14.1494 7.98033 14.2087 7.97828 14.2659 7.99066C14.3232 8.00304 14.3767 8.02949 14.4219 8.06776L15.2404 8.85719C15.2996 8.8972 15.367 8.92257 15.4373 8.93133C15.5076 8.94008 15.5789 8.93199 15.6456 8.90767C15.7124 8.88335 15.7728 8.84346 15.8222 8.79112C15.8715 8.73878 15.9085 8.67539 15.9302 8.6059L16.2682 7.39687C16.286 7.33597 16.3156 7.2794 16.3551 7.23053C16.3946 7.18166 16.4432 7.14148 16.4981 7.11239L17.7443 6.47231C18.0501 6.31348 18.0892 5.94603 17.8202 5.83935L16.7004 5.40552C16.651 5.38904 16.6074 5.35764 16.5755 5.31537C16.5435 5.27311 16.5246 5.22193 16.5211 5.16846Z" fill="#2E3338"/>
</svg>
