<svg enable-background="new 0 0 426.086 519.378" height="519.378" viewBox="0 0 426.086 519.378" width="426.086" xmlns="http://www.w3.org/2000/svg" xmlns:xlink="http://www.w3.org/1999/xlink"><clipPath id="a"><path d="m0-3.624h426.086v536.125h-426.086z"/></clipPath><path clip-path="url(#a)" d="m0 0h425.722v425.717h-425.722z" fill="#f5a200"/><path clip-path="url(#a)" d="m149.873 365.254h-66.412v-230.749h-43.427v-39.166c29.805.422 49.386-11.931 60.027-40.877h49.812z" fill="#fff"/><path clip-path="url(#a)" d="m376.351 302.241v63.022h-162.632v-66.003c74.071-100.894 97.922-117.924 97.922-156.664 0-15.755-5.973-25.117-17.457-25.117-15.751 0-19.164 12.338-19.164 26.396v18.296h-62.159v-20.429c0-48.11 23.41-87.276 81.323-87.276 55.343 0 85.569 34.905 85.569 90.685 0 66.411-56.196 109.838-94.514 157.09z" fill="#fff"/><path clip-path="url(#a)" d="m.01 519.378h425.712v-519.378h-425.712m417.199 417.194h-408.691v-408.686h408.691z"/><path clip-path="url(#a)" d="m381.26 17.031v3.159h-6.73v21.33h-3.969v-21.33h-6.729v-3.159zm27.436 24.489h-3.959v-19.289h-.115l-6.778 19.288h-3.24l-6.441-19.288h-.115v19.289h-3.969v-24.489h6.288l6.107 18.219h.114l5.935-18.219h6.174v24.489z"/><g fill="#fff"><path clip-path="url(#a)" d="m27.039 487.455h7.229l6.633-32.288h.149l6.931 32.288h6.783l9.356-39.526h-6.48l-6.117 32.316h-.158l-6.557-32.316h-7.29l-6.716 32.316h-.149l-6.341-32.316h-6.49z"/><path clip-path="url(#a)" d="m74.838 487.455h7.224l6.638-32.288h.158l6.932 32.288h6.763l9.376-39.526h-6.491l-6.116 32.316h-.158l-6.567-32.316h-7.295l-6.701 32.316h-.149l-6.341-32.316h-6.49z"/><path clip-path="url(#a)" d="m122.632 487.455h7.223l6.639-32.288h.149l6.936 32.288h6.777l9.362-39.526h-6.476l-6.126 32.316h-.148l-6.567-32.316h-7.296l-6.715 32.316h-.144l-6.341-32.316h-6.5z"/><path clip-path="url(#a)" d="m163.212 479.651h6.773v7.804h-6.773z"/><path clip-path="url(#a)" clip-rule="evenodd" d="m185.328 467.706c0-9.012 1.107-15.492 7.972-15.492 5.752 0 7.223 6.06 7.223 14.744 0 10.182-1.471 16.221-7.223 16.221-6.639 0-7.972-7.813-7.972-15.473m-5.824 32.729h6.184v-17.467h.158c1.404 3.385 4.721 5.522 8.259 5.522 10.248 0 12.908-12.539 12.908-21.532 0-11.715-3.538-20.055-12.908-20.055-4.28 0-7.736 2.962-8.551 5.905h-.148v-4.88h-5.901v52.507z" fill-rule="evenodd"/><path clip-path="url(#a)" clip-rule="evenodd" d="m219.04 463.564v-1.476c0-2.34.733-10.315 7.223-10.315 5.465 0 6.864 5.225 6.864 9.653v2.138zm20.567 4.871v-2.502c0-8.484-1.111-19.029-13.195-19.029-12.166 0-14.088 11.428-14.088 21.32 0 13.565 4.055 20.267 13.724 20.267 10.761 0 13.263-9.808 13.263-14.006h-6.184c0 2.942-.824 9.146-6.715 9.146-7.588 0-7.588-9.146-7.588-15.195h20.783z" fill-rule="evenodd"/><path clip-path="url(#a)" clip-rule="evenodd" d="m258.628 452.214c6.644 0 7.966 7.813 7.966 15.492 0 8.092-1.322 14.447-8.043 14.447-6.174 0-7.142-8.043-7.142-14.447 0-9.433 1.467-15.492 7.219-15.492m13.785-4.285h-5.886v5.033h-.154c-.805-3.105-4.275-6.059-8.551-6.059-10.027 0-12.894 10.104-12.894 20.803 0 5.234.729 19.749 12.232 19.749 3.901 0 7.583-1.994 8.925-5.302h.153v5.167c0 2.723.288 8.839-7.688 8.839-3.24 0-6.039-1.399-6.327-5.004h-6.193c1.017 9.874 10.546 9.874 12.962 9.874 7.966 0 13.421-4.275 13.421-16.077z" fill-rule="evenodd"/><path clip-path="url(#a)" clip-rule="evenodd" d="m280.926 487.455h6.184v-39.517h-6.184zm0-45.556h6.184v-7.095h-6.184z" fill-rule="evenodd"/><path clip-path="url(#a)" d="m296.974 479.651h6.787v7.804h-6.787z"/><path clip-path="url(#a)" clip-rule="evenodd" d="m313.654 487.455h6.203v-39.517h-6.203zm0-45.556h6.203v-7.095h-6.203z" fill-rule="evenodd"/><path clip-path="url(#a)" d="m328.322 487.455h6.174v-27.274c0-5.752 4.515-7.967 7.842-7.967 5.589 0 5.81 4.947 5.81 7.967v27.274h6.192v-28.022c0-4.63 0-12.529-10.392-12.529-3.825 0-7.957 2.07-9.577 5.694h-.163v-4.669h-5.886z"/><path clip-path="url(#a)" d="m364.311 487.455h6.212v-34.646h6.768v-4.88h-6.768v-4.63c0-2.732 1.323-3.758 3.979-3.758h2.866v-5.312h-4.496c-5.973 0-8.561 3.097-8.561 9.069v4.63h-5.743v4.88h5.743z"/><path clip-path="url(#a)" clip-rule="evenodd" d="m379.64 467.706c0 11.121 2.818 20.784 14.235 20.784 11.36 0 14.227-9.663 14.227-20.784 0-11.149-2.799-20.803-14.227-20.803-11.341 0-14.235 9.654-14.235 20.803m14.082 15.934c-6.337 0-7.573-7.401-7.573-15.934 0-8.57 1.323-15.933 7.573-15.933 6.644 0 7.909 7.362 7.909 15.933 0 8.532-1.333 15.934-7.909 15.934" fill-rule="evenodd"/></g></svg>