<svg width="275" height="160" viewBox="0 0 275 160" fill="none" xmlns="http://www.w3.org/2000/svg">
<g clip-path="url(#clip0)">
<path d="M66.6878 12.5852C69.4916 10.4602 70.1093 6.5538 68.0677 3.86012C66.026 1.16644 62.0981 0.705473 59.2944 2.83053C56.4906 4.95558 55.8729 8.86195 57.9145 11.5556C59.9562 14.2493 63.8841 14.7103 66.6878 12.5852Z" fill="#EB459F"/>
<path d="M82.7464 11.8742C83.2771 5.91658 78.5253 0.625381 72.1331 0.0560135C65.7408 -0.513354 60.1287 3.85472 59.598 9.81238C59.0674 15.77 63.8191 21.0612 70.2114 21.6306C76.6036 22.2 82.2157 17.8319 82.7464 11.8742Z" fill="#8CD9FF"/>
<path d="M72.1001 0.0500118C74.5159 0.259337 76.8142 1.18561 78.7001 2.71001C78.4801 2.99001 77.8301 4.76001 79.1501 7.14001L76.4001 8.45001C76.4001 8.45001 71.7301 -0.289988 63.3201 2.73001C65.7759 0.708302 68.9339 -0.255648 72.1001 0.0500118Z" fill="#3F99F2"/>
<path d="M84.98 1.17001L83.62 11.43L87.25 14.21L73.53 12.65L84.98 1.17001Z" fill="black"/>
<path d="M74.86 9.60001C75.5543 8.00251 76.6971 6.64078 78.15 5.68001L85 1.17001L74.54 12.17L87.27 14.24L81.74 15C80.0933 15.2417 78.4118 14.9876 76.91 14.27L73.53 12.65L74.86 9.60001Z" fill="#FFE75C"/>
<path d="M67.4299 6.05C67.0999 6.16 66.7999 6.2 66.5699 6.26C66.3956 6.3027 66.225 6.35956 66.0599 6.43C65.9168 6.4723 65.784 6.5438 65.6699 6.64C65.4899 6.77 65.3099 6.98 65.0399 7.22L64.9999 7.28C64.9136 7.3661 64.7968 7.41446 64.6749 7.41446C64.553 7.41446 64.4361 7.3661 64.3499 7.28C64.3125 7.23119 64.2822 7.17732 64.2599 7.12C64.1009 6.7116 64.1009 6.2584 64.2599 5.85C64.4362 5.36886 64.7957 4.977 65.2599 4.76C65.7055 4.55737 66.2084 4.51842 66.6799 4.65C67.0794 4.7761 67.4291 5.02445 67.6799 5.36C67.7484 5.45478 67.7773 5.5725 67.7605 5.68823C67.7437 5.80396 67.6825 5.90861 67.5899 5.98C67.551 6.01082 67.507 6.03452 67.4599 6.05H67.4299Z" fill="black"/>
<path d="M66.2801 10.5C66.6901 12.32 66.9401 14.31 67.8101 14.11C68.6801 13.91 69.8101 11.61 69.4201 9.79001C69.2692 9.09668 68.8693 8.48274 68.2962 8.06441C67.7231 7.64608 67.0164 7.45239 66.3101 7.52001C65.4401 7.71001 65.8701 8.68001 66.2801 10.5Z" fill="white"/>
<path d="M77.2369 8.35419C77.4637 7.90571 77.4878 7.46132 77.2907 7.36161C77.0936 7.2619 76.7499 7.54463 76.523 7.99311C76.2962 8.44159 76.2721 8.88597 76.4692 8.98568C76.6664 9.08539 77.0101 8.80266 77.2369 8.35419Z" fill="#FFAB18"/>
<mask id="mask0" style="mask-type:alpha" maskUnits="userSpaceOnUse" x="58" y="0" width="9" height="16">
<path d="M66.81 0.730009C66.81 0.730009 58.72 6.73001 60.58 15.16C59.9113 14.8498 59.3457 14.3542 58.9504 13.732C58.5551 13.1098 58.3467 12.3872 58.35 11.65C58.3138 9.67226 58.7407 7.71345 59.5968 5.93019C60.4528 4.14693 61.7142 2.58868 63.28 1.38001C63.7024 1.05722 64.1868 0.824929 64.703 0.697612C65.2191 0.570295 65.756 0.550686 66.28 0.640009L66.81 0.730009Z" fill="#FF78B9"/>
</mask>
<g mask="url(#mask0)">
<path d="M66.81 0.730009C66.81 0.730009 58.72 6.73001 60.58 15.16C59.9113 14.8498 59.3457 14.3542 58.9504 13.732C58.5551 13.1098 58.3467 12.3872 58.35 11.65C58.3138 9.67226 58.7407 7.71345 59.5968 5.93019C60.4528 4.14693 61.7142 2.58868 63.28 1.38001C63.7024 1.05722 64.1868 0.824929 64.703 0.697612C65.2191 0.570295 65.756 0.550686 66.28 0.640009L66.81 0.730009Z" fill="#FF78B9"/>
<path d="M65.8799 3.06001C65.8799 3.06001 63.0699 1.62001 60.8799 3.06001" stroke="#EB459F" stroke-width="0.82" stroke-miterlimit="10" stroke-linecap="round"/>
<path d="M63.7201 6.08002L59.8201 4.65002" stroke="#EB459F" stroke-width="0.82" stroke-miterlimit="10" stroke-linecap="round"/>
<path d="M62.11 9.50002C61.93 9.43002 59.45 8.67002 58.51 7.02002" stroke="#EB459F" stroke-width="0.82" stroke-miterlimit="10" stroke-linecap="round"/>
<path d="M58 9.90002C58.9131 11.2646 60.141 12.3895 61.58 13.18" stroke="#EB459F" stroke-width="0.82" stroke-miterlimit="10" stroke-linecap="round"/>
</g>
<path d="M69.4899 10.73C69.2799 10.17 68.9599 9.79999 68.5899 9.79999C67.9499 9.79999 67.4399 10.86 67.4399 12.17C67.4141 12.8318 67.5771 13.4874 67.9099 14.06C68.6099 13.78 69.4399 12.25 69.4899 10.73Z" fill="black"/>
<path d="M30.6301 72.31C33.6435 73.4535 36.3933 75.1972 38.7127 77.4353C41.0321 79.6734 42.8727 82.3593 44.1229 85.33C45.3731 88.3008 46.0068 91.4946 45.9857 94.7176C45.9646 97.9407 45.2891 101.126 44.0001 104.08C42.7766 107.018 40.9434 109.663 38.6218 111.84C36.3003 114.016 33.5431 115.676 30.5327 116.708C27.5222 117.74 24.3269 118.122 21.158 117.827C17.9892 117.533 14.9189 116.569 12.1501 115C7.01385 112.087 3.13172 107.383 1.24622 101.787C-0.639282 96.1917 -0.395802 90.0974 1.93009 84.67C4.21316 79.3198 8.46629 75.0526 13.8088 72.7517C19.1514 70.4509 25.1741 70.2927 30.6301 72.31Z" fill="#FF78B8"/>
<path d="M20.6492 80.0207C21.6054 77.667 19.8047 74.7125 16.6272 73.4216C13.4497 72.1307 10.0987 72.9923 9.14251 75.346C8.1863 77.6997 9.98699 80.6542 13.1645 81.9451C16.3419 83.236 19.693 82.3744 20.6492 80.0207Z" fill="white" stroke="#5865F2" stroke-width="1.79" stroke-miterlimit="10"/>
<path d="M16.033 91.2193C17.0412 88.7376 15.237 85.6609 12.0033 84.3471C8.7695 83.0334 5.33072 83.9801 4.32254 86.4617C3.31436 88.9433 5.11855 92.0201 8.35232 93.3338C11.5861 94.6476 15.0249 93.7009 16.033 91.2193Z" fill="white" stroke="#5865F2" stroke-width="1.79" stroke-miterlimit="10"/>
<path d="M13.6397 88.0589C13.7549 87.3502 13.097 86.6536 12.1702 86.503C11.2435 86.3524 10.3989 86.8048 10.2837 87.5135C10.1686 88.2222 10.8265 88.9188 11.7532 89.0694C12.6799 89.22 13.5245 88.7676 13.6397 88.0589Z" fill="black"/>
<path d="M18.9013 78.7508C19.1919 78.1737 18.7478 77.3635 17.9092 76.9412C17.0707 76.5189 16.1553 76.6444 15.8646 77.2215C15.574 77.7986 16.0182 78.6088 16.8567 79.0311C17.6953 79.4534 18.6107 79.3279 18.9013 78.7508Z" fill="black"/>
<path d="M10.5701 83.72L11.6901 81.13" stroke="#5865F2" stroke-width="1.79" stroke-miterlimit="10"/>
<path d="M18.0001 87.2L20.0701 83.2C20.1258 83.0965 20.2032 83.0062 20.297 82.9352C20.3907 82.8642 20.4986 82.8142 20.6134 82.7886C20.7281 82.763 20.8471 82.7624 20.9621 82.7868C21.0771 82.8112 21.1856 82.86 21.2801 82.93C22.9501 84.19 26.1501 87.28 18.8301 88.37C18.6827 88.3935 18.5317 88.3753 18.3941 88.3175C18.2566 88.2597 18.1379 88.1646 18.0516 88.0429C17.9652 87.9212 17.9146 87.7777 17.9055 87.6288C17.8964 87.4798 17.9292 87.3313 18.0001 87.2Z" fill="black"/>
<path d="M21.3801 85.69C20.6658 86.387 20.1277 87.2439 19.8101 88.19C23.8701 87.37 23.8101 85.79 22.8601 84.49C22.3177 84.8254 21.8204 85.2287 21.3801 85.69Z" fill="#E53794"/>
<path d="M243.84 16H31.8401C27.4218 16 23.8401 19.5817 23.8401 24V152C23.8401 156.418 27.4218 160 31.8401 160H243.84C248.258 160 251.84 156.418 251.84 152V24C251.84 19.5817 248.258 16 243.84 16Z" fill="#292B2F"/>
<path d="M117.19 16H57.51V160H117.19V16Z" fill="#202225"/>
<path d="M57.6 16H31.5C29.3783 16 27.3434 16.8429 25.8431 18.3431C24.3429 19.8434 23.5 21.8783 23.5 24V152C23.5 154.122 24.3429 156.157 25.8431 157.657C27.3434 159.157 29.3783 160 31.5 160H57.6V16Z" fill="#18191C"/>
<path d="M23.5 57.74H24.83C25.005 57.7387 25.1786 57.7722 25.3405 57.8385C25.5025 57.9049 25.6497 58.0028 25.7734 58.1266C25.8972 58.2503 25.9951 58.3975 26.0615 58.5595C26.1278 58.7214 26.1613 58.895 26.16 59.07V77.71C26.1496 78.0558 26.0049 78.3839 25.7566 78.6247C25.5083 78.8655 25.1759 79.0002 24.83 79H23.5V57.74Z" fill="white"/>
<path d="M45.93 57.74H35.29C32.3463 57.74 29.96 60.1263 29.96 63.07V73.71C29.96 76.6537 32.3463 79.04 35.29 79.04H45.93C48.8736 79.04 51.26 76.6537 51.26 73.71V63.07C51.26 60.1263 48.8736 57.74 45.93 57.74Z" fill="#EB459E"/>
<path d="M40.61 51.85C46.4918 51.85 51.26 47.0818 51.26 41.2C51.26 35.3182 46.4918 30.55 40.61 30.55C34.7281 30.55 29.96 35.3182 29.96 41.2C29.96 47.0818 34.7281 51.85 40.61 51.85Z" fill="#2F3136"/>
<path d="M134.59 46.01C140.472 46.01 145.24 41.2418 145.24 35.36C145.24 29.4782 140.472 24.71 134.59 24.71C128.708 24.71 123.94 29.4782 123.94 35.36C123.94 41.2418 128.708 46.01 134.59 46.01Z" fill="#2F3136"/>
<path d="M40.61 106.22C46.4918 106.22 51.26 101.452 51.26 95.57C51.26 89.6882 46.4918 84.92 40.61 84.92C34.7281 84.92 29.96 89.6882 29.96 95.57C29.96 101.452 34.7281 106.22 40.61 106.22Z" fill="#2F3136"/>
<path d="M31.5 16C30.9896 15.9989 30.4803 16.0491 29.98 16.15C30.082 18.915 31.2572 21.5316 33.2562 23.4447C35.2553 25.3577 37.9209 26.4168 40.6878 26.3973C43.4546 26.3778 46.1051 25.2812 48.0769 23.3401C50.0488 21.3991 51.1869 18.7662 51.25 16H31.5Z" fill="#2F3136"/>
<path d="M55 52.37H117.17" stroke="#18191C" stroke-width="3" stroke-miterlimit="10"/>
<path d="M240.68 131.81H128.38C125.994 131.81 124.06 133.744 124.06 136.13V148.41C124.06 150.796 125.994 152.73 128.38 152.73H240.68C243.066 152.73 245 150.796 245 148.41V136.13C245 133.744 243.066 131.81 240.68 131.81Z" fill="white" fill-opacity="0.06"/>
<path d="M211.8 24.7H155.33C153.226 24.7 151.52 26.4036 151.52 28.505C151.52 30.6065 153.226 32.31 155.33 32.31H211.8C213.904 32.31 215.61 30.6065 215.61 28.505C215.61 26.4036 213.904 24.7 211.8 24.7Z" fill="white" fill-opacity="0.06"/>
<path d="M211.8 74.59H155.33C153.226 74.59 151.52 76.2936 151.52 78.395C151.52 80.4964 153.226 82.2 155.33 82.2H211.8C213.904 82.2 215.61 80.4964 215.61 78.395C215.61 76.2936 213.904 74.59 211.8 74.59Z" fill="white" fill-opacity="0.06"/>
<path d="M105.35 29.89H82.0599C79.6354 29.89 77.6699 31.8555 77.6699 34.28V34.29C77.6699 36.7145 79.6354 38.68 82.0599 38.68H105.35C107.774 38.68 109.74 36.7145 109.74 34.29V34.28C109.74 31.8555 107.774 29.89 105.35 29.89Z" fill="white" fill-opacity="0.06"/>
<path d="M105.51 62.92H69.69C67.2655 62.92 65.3 64.8855 65.3 67.31V67.32C65.3 69.7445 67.2655 71.71 69.69 71.71H105.51C107.935 71.71 109.9 69.7445 109.9 67.32V67.31C109.9 64.8855 107.935 62.92 105.51 62.92Z" fill="white" fill-opacity="0.06"/>
<path d="M105.51 80.53H69.69C67.2655 80.53 65.3 82.4955 65.3 84.92V84.93C65.3 87.3545 67.2655 89.32 69.69 89.32H105.51C107.935 89.32 109.9 87.3545 109.9 84.93V84.92C109.9 82.4955 107.935 80.53 105.51 80.53Z" fill="white" fill-opacity="0.06"/>
<path d="M105.51 98.14H69.69C67.2655 98.14 65.3 100.105 65.3 102.53V102.54C65.3 104.965 67.2655 106.93 69.69 106.93H105.51C107.935 106.93 109.9 104.965 109.9 102.54V102.53C109.9 100.105 107.935 98.14 105.51 98.14Z" fill="white" fill-opacity="0.06"/>
<path d="M134.59 95.89C140.472 95.89 145.24 91.1218 145.24 85.24C145.24 79.3582 140.472 74.59 134.59 74.59C128.708 74.59 123.94 79.3582 123.94 85.24C123.94 91.1218 128.708 95.89 134.59 95.89Z" fill="#2F3136"/>
<path d="M69.5799 38.72C72.032 38.72 74.0199 36.7321 74.0199 34.28C74.0199 31.8279 72.032 29.84 69.5799 29.84C67.1278 29.84 65.1399 31.8279 65.1399 34.28C65.1399 36.7321 67.1278 38.72 69.5799 38.72Z" fill="white" fill-opacity="0.06"/>
<path opacity="0.2" d="M29.96 68.06L41.46 57.74H37.54L29.96 64.54V68.06Z" fill="white"/>
<path opacity="0.2" d="M45.94 57.74H43L30 69.4V73.71C30.008 73.9612 30.0314 74.2117 30.07 74.46L48.17 58.22C47.4698 57.9016 46.7092 57.7378 45.94 57.74Z" fill="white"/>
<path d="M111.136 9.62876L52.4082 19.6674L58.4485 55.0048L117.177 44.9662L111.136 9.62876Z" fill="#EB459E"/>
<path d="M220.14 89.32H157.57C154.897 89.32 152.73 91.487 152.73 94.16V121.75C152.73 124.423 154.897 126.59 157.57 126.59H220.14C222.813 126.59 224.98 124.423 224.98 121.75V94.16C224.98 91.487 222.813 89.32 220.14 89.32Z" fill="#EB459E"/>
<path d="M195.11 106L184.62 101.32C184.355 101.202 184.064 101.151 183.775 101.174C183.485 101.196 183.206 101.291 182.963 101.449C182.719 101.607 182.519 101.824 182.381 102.079C182.242 102.334 182.17 102.62 182.17 102.91V112.27C182.169 112.56 182.241 112.846 182.379 113.102C182.518 113.357 182.718 113.573 182.962 113.731C183.206 113.888 183.486 113.982 183.776 114.002C184.066 114.023 184.356 113.971 184.62 113.85L195.11 109.18C195.417 109.043 195.679 108.82 195.862 108.538C196.046 108.256 196.143 107.927 196.143 107.59C196.143 107.253 196.046 106.924 195.862 106.642C195.679 106.36 195.417 106.137 195.11 106Z" fill="#FEE75C"/>
<path opacity="0.2" d="M152.73 108.41L174.01 89.32H170.08L152.73 104.89V108.41Z" fill="white"/>
<path opacity="0.2" d="M152.73 114.88L181.21 89.32H175.5L152.73 109.76V114.88Z" fill="white"/>
<path opacity="0.2" d="M203.32 126.58L224.98 107.15V102.02L197.61 126.58H203.32Z" fill="white"/>
<path opacity="0.2" d="M95.7001 48.64L113.88 25.73L113.29 22.26L91.8201 49.3L95.7001 48.64Z" fill="white"/>
<path opacity="0.2" d="M102.81 47.42L114.97 32.09L114.11 27.05L97.1699 48.39L102.81 47.42Z" fill="white"/>
<path opacity="0.2" d="M54.9099 34.27L56.2999 42.42L77.7999 15.32L68.7199 16.88L54.9099 34.27Z" fill="white"/>
<path d="M4.85999 104.07C5.30999 107.95 7.48999 119.18 8.68999 121.69C9.88999 124.2 13.13 125.63 16.49 123.24C18.33 121.94 31.35 111.72 37.75 106.69C38.7436 105.923 39.4202 104.817 39.6508 103.583C39.8813 102.35 39.6497 101.074 39 100C38.6275 99.3833 38.1287 98.8524 37.5365 98.442C36.9443 98.0317 36.272 97.7512 35.5638 97.619C34.8555 97.4868 34.1273 97.5058 33.427 97.6749C32.7266 97.844 32.0699 98.1592 31.5 98.6L15.4 111.06C14.2357 107.656 13.2839 104.182 12.55 100.66C12 98.11 9.79999 96.13 6.81999 98C4.30999 99.6 4.60999 101.91 4.85999 104.07Z" fill="#FFD635"/>
<path d="M34.1001 104C34.7837 104.57 35.6508 104.873 36.5408 104.853C37.4307 104.833 38.2831 104.491 38.9401 103.89L43.1401 100.04L37.4501 95.28L34.0001 98.43C33.6063 98.7826 33.293 99.2159 33.0816 99.7004C32.8703 100.185 32.7658 100.709 32.7753 101.238C32.7847 101.766 32.908 102.287 33.1366 102.763C33.3652 103.24 33.6939 103.662 34.1001 104Z" fill="#D01582"/>
<path d="M37.2099 96.23C37.2099 96.23 43.7199 92.41 44.3599 92.37C44.8009 92.331 45.2425 92.4394 45.6153 92.6783C45.9881 92.9171 46.2711 93.273 46.4199 93.69C47.0499 95.44 47.3299 96.45 47.6199 97.27C47.9599 98.27 47.3399 99.54 45.8799 100.69C44.4199 101.84 44.2299 102.37 41.0299 102.31L37.6399 102C37.2729 101.97 36.9188 101.851 36.6086 101.652C36.2985 101.454 36.0419 101.182 35.8612 100.861C35.6805 100.54 35.5814 100.18 35.5724 99.8121C35.5635 99.4439 35.645 99.0793 35.8099 98.75C36.2081 97.8737 36.6763 97.031 37.2099 96.23Z" fill="#D01582"/>
<path d="M39.4973 99.7286L36.0379 99.6658C35.971 99.6645 35.9049 99.6501 35.8435 99.6234C35.7821 99.5966 35.7266 99.5581 35.6801 99.5099C35.6336 99.4616 35.597 99.4048 35.5725 99.3424C35.548 99.2801 35.536 99.2135 35.5373 99.1466L35.6601 92.3777C35.6698 91.8473 35.8897 91.3425 36.2715 90.9743C36.6533 90.6061 37.1658 90.4047 37.6961 90.4143C38.2265 90.424 38.7313 90.6439 39.0995 91.0257C39.4677 91.4075 39.6691 91.92 39.6595 92.4503L39.5273 99.7291L39.4973 99.7286Z" fill="#D01582"/>
<path d="M47.1901 96C47.0401 95.52 46.8601 95 46.6101 94.27C46.4111 94.5739 46.1685 94.8468 45.8901 95.08L44.0001 96.65C43.843 96.7839 43.7446 96.974 43.7259 97.1796C43.7072 97.3852 43.7697 97.5899 43.9001 97.75C43.9656 97.8293 44.0462 97.8949 44.1371 97.9429C44.2281 97.991 44.3276 98.0206 44.4301 98.03C44.5323 98.0395 44.6354 98.0285 44.7333 97.9976C44.8312 97.9666 44.9219 97.9165 45.0001 97.85L46.9301 96.25L47.1901 96Z" fill="black"/>
<path d="M98.6101 12L98.3401 11.47C98.0361 10.8713 97.5465 10.387 96.9444 10.0896C96.3424 9.79216 95.6603 9.69759 95.0001 9.82L90.4501 10.75C89.7301 10.9077 89.0614 11.244 88.5057 11.7281C87.9499 12.2122 87.525 12.8285 87.2701 13.52C86.9001 14.67 87.2701 15.19 88.0801 15.4C88.6001 15.54 89.1401 15.28 89.6101 14.4C89.6101 14.52 89.6101 15.4 89.6101 15.49C89.5593 15.8722 89.6007 16.261 89.7306 16.624C89.8606 16.987 90.0754 17.3137 90.3572 17.5768C90.6389 17.84 90.9795 18.032 91.3505 18.137C91.7215 18.2419 92.1122 18.2566 92.4901 18.18L96.0001 17.44C96.8045 17.2674 97.5314 16.839 98.0722 16.219C98.613 15.5989 98.9385 14.8204 99.0001 14C99.053 13.3103 98.9183 12.6192 98.6101 12Z" fill="#FFE75C"/>
<path d="M53.2099 18.92L53.2799 18.33C53.3585 17.6543 53.6579 17.0235 54.1316 16.5353C54.6053 16.0471 55.2269 15.7289 55.8999 15.63L60.4899 14.94C61.2206 14.8405 61.9646 14.9267 62.6532 15.1906C63.3418 15.4545 63.9529 15.8876 64.4299 16.45C65.1699 17.4 64.9599 18.03 64.3099 18.45C63.8699 18.76 63.3099 18.7 62.5399 18.02C62.5399 18.15 62.8699 18.93 62.9299 19.02C63.1076 19.3613 63.2015 19.74 63.2035 20.1248C63.2056 20.5095 63.1159 20.8893 62.9419 21.2324C62.7679 21.5756 62.5145 21.8723 62.2029 22.098C61.8912 22.3237 61.5302 22.4718 61.1499 22.53L57.5699 23.07C56.7539 23.1837 55.923 23.0297 55.2018 22.6313C54.4806 22.2328 53.908 21.6114 53.5699 20.86C53.2793 20.2569 53.1551 19.5872 53.2099 18.92Z" fill="#FFE75C"/>
<path d="M154.77 55.59C154.08 51.9194 154.877 48.1252 156.985 45.0421C159.093 41.959 162.339 39.8396 166.01 39.15C169.681 38.4604 173.475 39.2573 176.558 41.3652C179.641 43.4731 181.76 46.7194 182.45 50.39C182.705 51.7277 182.762 53.0956 182.62 54.45L167.4 67C164.337 66.7387 161.445 65.4818 159.164 63.4214C156.883 61.3609 155.34 58.6103 154.77 55.59Z" fill="#EB459E"/>
<path d="M152.73 56C151.934 51.787 152.845 47.4306 155.261 43.8889C157.678 40.3473 161.402 37.9107 165.615 37.115C169.828 36.3194 174.185 37.2299 177.726 39.6463C181.268 42.0627 183.704 45.787 184.5 50C184.659 50.8817 184.75 51.7743 184.77 52.67L182.62 54.44C182.762 53.0856 182.705 51.7178 182.45 50.38C181.967 47.8025 180.774 45.411 179.006 43.4751C177.237 41.5391 174.962 40.1355 172.439 39.4226C169.915 38.7096 167.243 38.7155 164.723 39.4397C162.202 40.1638 159.934 41.5775 158.174 43.5213C156.414 45.4651 155.231 47.8618 154.76 50.4414C154.289 53.021 154.547 55.681 155.506 58.1217C156.465 60.5623 158.087 62.6866 160.188 64.2553C162.29 65.8239 164.787 66.7745 167.4 67L165.25 68.78C162.137 68.1182 159.289 66.5526 157.062 64.2793C154.834 62.0059 153.328 59.1259 152.73 56Z" fill="white"/>
<path d="M181.29 52.92L184.82 52.63L182.39 54.63L168.11 66.43L165.18 68.85L166.68 64.35C167.727 61.2229 169.671 58.4725 172.268 56.4405C174.865 54.4084 178.003 53.1842 181.29 52.92Z" fill="white"/>
<path opacity="0.2" d="M166 39.15C165.391 39.2734 164.79 39.4337 164.2 39.63L154.59 51.63C154.463 52.9415 154.52 54.2644 154.76 55.56C154.76 55.79 154.86 56.01 154.92 56.23L168.78 38.88C167.847 38.8808 166.916 38.9712 166 39.15Z" fill="white"/>
<path opacity="0.2" d="M155.33 57.66C155.876 59.217 156.692 60.6658 157.74 61.94L174.93 40.42C173.462 39.6766 171.874 39.196 170.24 39L155.33 57.66Z" fill="white"/>
<path d="M124 24.29C123.564 24.0105 123.193 23.641 122.912 23.2063C122.631 22.7717 122.446 22.282 122.37 21.77L122.13 20C122.123 19.9576 122.101 19.9192 122.068 19.8917C122.035 19.8642 121.993 19.8494 121.95 19.85C121.909 19.8517 121.869 19.8676 121.838 19.8949C121.807 19.9222 121.787 19.9593 121.78 20L121.51 21.77C121.437 22.2832 121.254 22.7744 120.973 23.2096C120.691 23.6448 120.318 24.0134 119.88 24.29L119.66 24.44C119.632 24.4536 119.609 24.475 119.593 24.5016C119.577 24.5282 119.569 24.559 119.57 24.59C119.569 24.621 119.577 24.6517 119.593 24.6784C119.609 24.705 119.632 24.7264 119.66 24.74L119.88 24.89C120.316 25.1685 120.688 25.5378 120.969 25.9726C121.25 26.4074 121.435 26.8976 121.51 27.41L121.78 29.18C121.787 29.2207 121.807 29.2578 121.838 29.2851C121.869 29.3124 121.909 29.3283 121.95 29.33C121.993 29.3306 122.035 29.3158 122.068 29.2883C122.101 29.2608 122.123 29.2224 122.13 29.18L122.39 27.41C122.468 26.9022 122.651 26.4165 122.929 25.9841C123.206 25.5517 123.571 25.1824 124 24.9L124.23 24.75C124.255 24.7335 124.275 24.7112 124.289 24.685C124.303 24.6589 124.31 24.6297 124.31 24.6C124.31 24.5703 124.303 24.5411 124.289 24.515C124.275 24.4888 124.255 24.4665 124.23 24.45L124 24.29Z" fill="#FFE75C"/>
<path d="M236 95.84C235.565 95.5574 235.195 95.1859 234.914 94.7498C234.633 94.3137 234.447 93.8229 234.37 93.31L234.11 91.55C234.105 91.5067 234.083 91.4669 234.05 91.439C234.016 91.4111 233.973 91.3971 233.93 91.4C233.888 91.3997 233.848 91.4148 233.816 91.4425C233.785 91.4702 233.765 91.5085 233.76 91.55L233.49 93.31C233.416 93.8241 233.232 94.3163 232.951 94.753C232.67 95.1896 232.298 95.5604 231.86 95.84L231.64 95.98C231.613 95.9953 231.591 96.0171 231.575 96.0433C231.56 96.0696 231.551 96.0994 231.55 96.13C231.549 96.161 231.557 96.1917 231.573 96.2184C231.589 96.245 231.612 96.2664 231.64 96.28L231.86 96.43C232.3 96.7149 232.674 97.0924 232.953 97.5363C233.233 97.9801 233.413 98.4796 233.48 99L233.75 100.77C233.755 100.812 233.775 100.85 233.806 100.877C233.838 100.905 233.878 100.92 233.92 100.92C233.963 100.923 234.006 100.909 234.04 100.881C234.073 100.853 234.095 100.813 234.1 100.77L234.36 99C234.434 98.4809 234.619 97.9838 234.902 97.5422C235.185 97.1006 235.56 96.7248 236 96.44L236.23 96.29C236.256 96.274 236.278 96.2521 236.293 96.226C236.309 96.1999 236.318 96.1704 236.32 96.14C236.317 96.1098 236.308 96.0806 236.292 96.0546C236.277 96.0286 236.255 96.0065 236.23 95.99L236 95.84Z" fill="#FFE75C"/>
<path d="M136.05 103.21C135.615 102.93 135.244 102.56 134.963 102.126C134.682 101.691 134.497 101.202 134.42 100.69L134.16 98.92C134.153 98.8776 134.131 98.8392 134.098 98.8117C134.065 98.7842 134.023 98.7694 133.98 98.77C133.937 98.7694 133.895 98.7842 133.862 98.8117C133.829 98.8392 133.807 98.8776 133.8 98.92L133.54 100.69C133.463 101.202 133.278 101.691 132.997 102.126C132.716 102.56 132.345 102.93 131.91 103.21L131.68 103.36C131.655 103.376 131.635 103.399 131.621 103.425C131.607 103.451 131.6 103.48 131.6 103.51C131.6 103.54 131.607 103.569 131.621 103.595C131.635 103.621 131.655 103.644 131.68 103.66L131.91 103.81C132.347 104.088 132.719 104.457 133 104.892C133.282 105.327 133.466 105.817 133.54 106.33L133.8 108.09C133.807 108.133 133.829 108.173 133.861 108.202C133.894 108.231 133.936 108.248 133.98 108.25C134.024 108.248 134.066 108.231 134.099 108.202C134.131 108.173 134.153 108.133 134.16 108.09L134.42 106.33C134.495 105.817 134.679 105.327 134.96 104.892C135.241 104.457 135.613 104.088 136.05 103.81L136.28 103.66C136.305 103.644 136.325 103.621 136.339 103.595C136.353 103.569 136.36 103.54 136.36 103.51C136.36 103.48 136.353 103.451 136.339 103.425C136.325 103.399 136.305 103.376 136.28 103.36L136.05 103.21Z" fill="white"/>
<path d="M54.5401 52.88C54.1048 52.6 53.7343 52.2304 53.4533 51.7958C53.1722 51.3613 52.987 50.8718 52.9101 50.36L52.6401 48.59C52.6351 48.5485 52.6151 48.5102 52.5837 48.4825C52.5524 48.4549 52.5119 48.4397 52.4701 48.44C52.4265 48.4371 52.3836 48.4511 52.3501 48.479C52.3166 48.507 52.2951 48.5467 52.2901 48.59L52.0001 50.36C51.9213 50.8712 51.7353 51.3599 51.4544 51.7942C51.1735 52.2285 50.804 52.5985 50.3701 52.88L50.1401 53.03C50.1154 53.0465 50.0952 53.0688 50.0812 53.095C50.0673 53.1211 50.06 53.1503 50.0601 53.18C50.0608 53.2095 50.0685 53.2384 50.0823 53.2644C50.0962 53.2905 50.116 53.3129 50.1401 53.33L50.3701 53.47C50.8051 53.7526 51.1754 54.1241 51.4563 54.5602C51.7373 54.9963 51.9226 55.487 52.0001 56L52.2601 57.76C52.2651 57.8033 52.2866 57.843 52.3201 57.871C52.3536 57.8989 52.3965 57.9129 52.4401 57.91C52.4819 57.9103 52.5224 57.8952 52.5537 57.8675C52.5851 57.8398 52.6051 57.8015 52.6101 57.76L52.9101 56C52.9856 55.4865 53.1702 54.995 53.4513 54.5587C53.7325 54.1223 54.1037 53.7511 54.5401 53.47L54.7701 53.33C54.7941 53.3129 54.8139 53.2905 54.8278 53.2644C54.8417 53.2384 54.8493 53.2095 54.8501 53.18C54.8501 53.1503 54.8428 53.1211 54.8289 53.095C54.8149 53.0688 54.7947 53.0465 54.7701 53.03L54.5401 52.88Z" fill="#91FFAD"/>
<path d="M120.29 8.46999C119.7 8.08973 119.197 7.58802 118.816 6.99829C118.435 6.40856 118.184 5.74437 118.08 5.04999L117.73 2.65999C117.719 2.60435 117.689 2.55424 117.645 2.51789C117.602 2.48154 117.547 2.46112 117.49 2.45999C117.433 2.46112 117.379 2.48154 117.335 2.51789C117.291 2.55424 117.261 2.60435 117.25 2.65999L116.89 5.04999C116.788 5.74372 116.538 6.40763 116.159 6.99739C115.78 7.58715 115.279 8.08919 114.69 8.46999L114.38 8.66999C114.347 8.69158 114.319 8.72116 114.3 8.75608C114.281 8.79099 114.27 8.83014 114.27 8.86999C114.269 8.91002 114.279 8.94952 114.298 8.9846C114.318 9.01968 114.346 9.04911 114.38 9.06999L114.69 9.26999C115.279 9.65079 115.78 10.1528 116.159 10.7426C116.538 11.3324 116.788 11.9963 116.89 12.69L117.25 15.08C117.26 15.1365 117.289 15.1877 117.333 15.2244C117.377 15.2611 117.433 15.2808 117.49 15.28C117.547 15.2808 117.603 15.2611 117.647 15.2244C117.691 15.1877 117.721 15.1365 117.73 15.08L118.08 12.69C118.184 11.9956 118.435 11.3314 118.816 10.7417C119.197 10.152 119.7 9.65025 120.29 9.26999L120.6 9.06999C120.634 9.04911 120.662 9.01968 120.682 8.9846C120.701 8.94952 120.711 8.91002 120.71 8.86999C120.71 8.83014 120.7 8.79099 120.68 8.75608C120.661 8.72116 120.634 8.69158 120.6 8.66999L120.29 8.46999Z" fill="#3F99F2"/>
<path d="M231.54 83.68C230.949 83.3002 230.447 82.7986 230.065 82.2088C229.684 81.619 229.434 80.9546 229.33 80.26L229 77.87C228.991 77.8125 228.962 77.7601 228.918 77.7218C228.874 77.6834 228.818 77.6616 228.76 77.66C228.702 77.6616 228.646 77.6834 228.602 77.7218C228.558 77.7601 228.529 77.8125 228.52 77.87L228.17 80.26C228.062 80.9532 227.81 81.6159 227.429 82.2052C227.048 82.7944 226.548 83.2969 225.96 83.68L225.65 83.88C225.616 83.9009 225.588 83.9303 225.569 83.9654C225.549 84.0005 225.539 84.04 225.54 84.08C225.54 84.1214 225.549 84.1622 225.569 84.1989C225.588 84.2355 225.616 84.2668 225.65 84.29L225.96 84.49C226.55 84.8682 227.052 85.3681 227.434 85.9562C227.815 86.5443 228.066 87.207 228.17 87.9L228.52 90.29C228.529 90.3475 228.558 90.3999 228.602 90.4382C228.646 90.4766 228.702 90.4984 228.76 90.5C228.818 90.4984 228.874 90.4766 228.918 90.4382C228.962 90.3999 228.991 90.3475 229 90.29L229.36 87.9C229.462 87.2064 229.713 86.5429 230.094 85.9546C230.475 85.3662 230.979 84.8667 231.57 84.49L231.88 84.29C231.913 84.2657 231.94 84.2341 231.959 84.1977C231.978 84.1613 231.989 84.1211 231.99 84.08C231.988 84.0405 231.977 84.0019 231.958 83.9673C231.939 83.9326 231.912 83.9028 231.88 83.88L231.54 83.68Z" fill="#3F99F2"/>
<path d="M144.89 113.21C144.299 112.83 143.796 112.329 143.415 111.739C143.034 111.149 142.783 110.485 142.68 109.79L142.32 107.4C142.311 107.343 142.282 107.29 142.238 107.252C142.194 107.213 142.138 107.192 142.08 107.19C142.022 107.192 141.966 107.213 141.922 107.252C141.878 107.29 141.849 107.343 141.84 107.4L141.49 109.79C141.382 110.483 141.13 111.146 140.749 111.735C140.368 112.324 139.868 112.827 139.28 113.21L138.97 113.41C138.936 113.431 138.908 113.46 138.888 113.495C138.869 113.53 138.859 113.57 138.86 113.61C138.859 113.651 138.869 113.692 138.888 113.729C138.908 113.766 138.936 113.797 138.97 113.82L139.28 114.02C139.869 114.399 140.371 114.899 140.752 115.487C141.133 116.075 141.384 116.737 141.49 117.43L141.84 119.82C141.849 119.877 141.878 119.93 141.922 119.968C141.966 120.007 142.022 120.028 142.08 120.03C142.138 120.028 142.194 120.007 142.238 119.968C142.282 119.93 142.311 119.877 142.32 119.82L142.68 117.43C142.784 116.737 143.034 116.074 143.416 115.486C143.797 114.897 144.299 114.398 144.89 114.02L145.2 113.82C145.233 113.796 145.26 113.764 145.279 113.728C145.298 113.691 145.309 113.651 145.31 113.61C145.308 113.57 145.297 113.532 145.278 113.497C145.259 113.463 145.232 113.433 145.2 113.41L144.89 113.21Z" fill="#FF78B8"/>
<path d="M256 119.9C254.951 119.306 253.823 118.865 252.65 118.59C252.392 118.528 252.122 118.535 251.867 118.61C251.613 118.686 251.382 118.827 251.2 119.02C250.13 120.259 248.779 121.222 247.26 121.83L247.87 119.83C247.979 119.611 247.996 119.358 247.918 119.127C247.84 118.895 247.674 118.704 247.455 118.595C247.236 118.486 246.983 118.469 246.751 118.547C246.52 118.625 246.329 118.791 246.22 119.01L244.39 121.83L243.39 123.24C243.39 123.24 228.89 139.39 227.39 141.86L229.79 147.49L246.89 127.06L247.47 126.48C248.459 126.791 249.508 126.862 250.53 126.688C251.553 126.514 252.519 126.1 253.35 125.48C254.571 124.467 255.642 123.285 256.53 121.97C256.634 121.8 256.703 121.611 256.732 121.414C256.762 121.217 256.752 121.016 256.702 120.823C256.653 120.63 256.565 120.449 256.445 120.29C256.324 120.132 256.173 119.999 256 119.9Z" fill="#FFD635"/>
<path d="M208 141L203.19 144.82C202.913 145.046 202.577 145.187 202.223 145.226C201.868 145.265 201.509 145.2 201.19 145.04C198.58 143.78 191.19 140.27 191.19 140.27L189.59 139.62L186.53 138.23C186.321 138.117 186.077 138.089 185.848 138.152C185.619 138.215 185.423 138.365 185.302 138.569C185.18 138.773 185.142 139.016 185.196 139.247C185.25 139.479 185.391 139.68 185.59 139.81L186.38 140.42C186.074 140.588 185.73 140.676 185.38 140.676C185.031 140.676 184.687 140.588 184.38 140.42C183.431 139.768 182.427 139.2 181.38 138.72C181.259 138.673 181.127 138.663 181.001 138.691C180.874 138.72 180.759 138.786 180.67 138.88C179.952 139.572 179.405 140.421 179.07 141.36C178.95 141.75 178.15 144.28 178.76 144.69C179.37 145.1 180.56 145.69 184.56 146.22C185.128 146.285 185.702 146.285 186.27 146.22C187.142 146.137 187.976 145.827 188.69 145.32C188.92 145.151 189.2 145.064 189.486 145.075C189.771 145.086 190.044 145.194 190.26 145.38C193.09 147.81 198.08 151.81 201.26 151.98C205.52 152.22 212.7 145.48 218.26 139.27C213.15 136.58 212 137.83 208 141Z" fill="#FFD635"/>
<path d="M202.6 102.18C202.169 101.896 201.804 101.523 201.528 101.087C201.252 100.651 201.072 100.161 201 99.65L200.73 97.89C200.725 97.8485 200.705 97.8102 200.674 97.7825C200.642 97.7548 200.602 97.7397 200.56 97.74C200.516 97.7371 200.473 97.7511 200.44 97.779C200.406 97.8069 200.385 97.8467 200.38 97.89L200.12 99.65C200.042 100.163 199.857 100.654 199.576 101.09C199.295 101.526 198.925 101.897 198.49 102.18L198.26 102.32C198.236 102.337 198.216 102.36 198.202 102.386C198.188 102.412 198.181 102.44 198.18 102.47C198.18 102.5 198.187 102.529 198.201 102.555C198.215 102.581 198.235 102.604 198.26 102.62L198.49 102.77C198.924 103.051 199.293 103.421 199.574 103.856C199.855 104.29 200.041 104.779 200.12 105.29L200.38 107.06C200.385 107.103 200.406 107.143 200.44 107.171C200.473 107.199 200.516 107.213 200.56 107.21C200.602 107.21 200.642 107.195 200.674 107.167C200.705 107.14 200.725 107.102 200.73 107.06L201 105.29C201.077 104.778 201.262 104.289 201.543 103.854C201.824 103.42 202.195 103.05 202.63 102.77L202.86 102.62C202.885 102.604 202.905 102.581 202.919 102.555C202.933 102.529 202.94 102.5 202.94 102.47C202.939 102.44 202.932 102.412 202.918 102.386C202.904 102.36 202.884 102.337 202.86 102.32L202.6 102.18Z" fill="#D01582"/>
<path d="M215.35 138.42L227.16 138.02C232.47 145.08 230.25 148.34 228.27 152.77H210.74C210.74 152.77 210.15 150.63 209.67 148.77C208.73 145 209.59 142.09 215.35 138.42Z" fill="white"/>
<path d="M218.67 126.53L235.45 122.87C230.25 134.59 225.97 136.81 222.91 136.37C219.85 135.93 218.26 131.74 218.67 126.53Z" fill="#D11583"/>
<path d="M218.67 126.53L209.11 116.75C208.81 129.61 211.31 132.36 213.52 133.13C215.73 133.9 217.6 131.58 218.67 126.53Z" fill="#D11583"/>
<path d="M208.34 126.15C210.42 120.77 223.54 116.89 226.27 117.89C229 118.89 236.2 127.82 234.99 133.57C233.78 139.32 226.99 142.05 219.11 140.11C211.23 138.17 206.1 131.94 208.34 126.15Z" fill="#FFE75C"/>
<path d="M225.57 122.3C230.07 118.65 234.31 116.94 239.95 115.24C244.22 113.95 244.15 109.97 239.24 109.78C234.33 109.59 228.57 113.59 225.24 117.78C222.24 109.65 221.96 106.85 217.93 106.94C213.9 107.03 211.75 110.94 211.06 112.76C210.52 114.22 210.53 115.41 212.72 115.95C214.91 116.49 216.56 115.06 217.72 113.16C218.868 116.131 220.263 119.001 221.89 121.74C223 123.48 223.54 124 225.57 122.3Z" fill="#FFE75C"/>
<path d="M222.12 117.6L219.55 111.35" stroke="#FFC619" stroke-width="0.82" stroke-miterlimit="10" stroke-linecap="round"/>
<path d="M218.66 126.53C218.25 131.74 219.85 135.93 222.91 136.37C225.6 136.76 229.24 135.08 233.62 126.68C233.106 125.641 232.521 124.639 231.87 123.68L218.66 126.53Z" fill="#FF8C19"/>
<path d="M209.35 124.5C210.01 130.84 211.85 132.55 213.52 133.13C215.73 133.9 217.6 131.58 218.66 126.53L213.53 121.27C211.952 122.084 210.536 123.178 209.35 124.5Z" fill="#FF8C19"/>
<path d="M213.76 126.45L213.02 125.03" stroke="black" stroke-width="0.82" stroke-linecap="round" stroke-linejoin="round"/>
<path d="M213.46 127.2L212.07 125.89" stroke="black" stroke-width="0.82" stroke-linecap="round" stroke-linejoin="round"/>
<path d="M224.77 129.38L226.09 127.9" stroke="black" stroke-width="0.82" stroke-linecap="round" stroke-linejoin="round"/>
<path d="M224.65 130.21L227.52 129.15" stroke="black" stroke-width="0.82" stroke-linecap="round" stroke-linejoin="round"/>
<path d="M224.566 132.766C225.769 132.147 226.144 130.479 225.404 129.04C224.664 127.601 223.088 126.936 221.885 127.555C220.682 128.174 220.307 129.842 221.047 131.281C221.787 132.72 223.362 133.385 224.566 132.766Z" fill="white"/>
<path d="M212.84 127.49C212.67 126 213.47 124.79 214.63 124.74C215.304 124.801 215.936 125.093 216.419 125.567C216.902 126.041 217.206 126.667 217.28 127.34C217.58 128.93 216.77 130.34 215.48 130.34C214.19 130.34 213 129.06 212.84 127.49Z" fill="white"/>
<path d="M215.518 127.308C215.646 126.731 215.392 126.184 214.95 126.085C214.508 125.987 214.045 126.374 213.917 126.951C213.788 127.528 214.042 128.076 214.484 128.174C214.926 128.272 215.389 127.885 215.518 127.308Z" fill="black"/>
<path d="M223.52 129.266C223.649 128.689 223.395 128.141 222.953 128.043C222.511 127.944 222.048 128.332 221.92 128.909C221.791 129.486 222.045 130.033 222.487 130.132C222.929 130.23 223.392 129.842 223.52 129.266Z" fill="black"/>
<path d="M215.35 134.91C216.35 138.33 218.18 136.64 219.05 135.52C219.106 135.444 219.142 135.356 219.154 135.262C219.166 135.169 219.154 135.074 219.119 134.987C219.083 134.9 219.027 134.823 218.953 134.764C218.88 134.705 218.793 134.666 218.7 134.65L215.96 134.21C215.868 134.193 215.773 134.201 215.685 134.232C215.596 134.262 215.517 134.316 215.456 134.386C215.394 134.457 215.352 134.542 215.334 134.634C215.315 134.726 215.321 134.821 215.35 134.91Z" fill="black"/>
<path d="M219.73 110.28C219.767 110.237 219.812 110.201 219.862 110.175C219.913 110.149 219.968 110.133 220.025 110.129C220.081 110.124 220.138 110.131 220.192 110.148C220.247 110.165 220.297 110.193 220.34 110.23C220.383 110.267 220.419 110.312 220.445 110.362C220.471 110.413 220.487 110.468 220.491 110.525C220.496 110.581 220.489 110.638 220.472 110.692C220.455 110.746 220.427 110.797 220.39 110.84C219.571 111.883 218.816 112.975 218.13 114.11L217.75 113.11C218.36 112.133 219.021 111.188 219.73 110.28Z" fill="black"/>
<path d="M239.46 113.27C234.321 113.864 229.529 116.163 225.85 119.8" stroke="#FFC619" stroke-width="0.82" stroke-miterlimit="10" stroke-linecap="round"/>
<path d="M218.92 131.39C218.37 128.52 218.53 128.09 217.25 130.85L217 130.78L218.05 126.5H218.66L219.87 127.13L219.24 131.38L218.92 131.39Z" fill="#FF8C19"/>
<path d="M217 135.39C216.533 135.38 216.074 135.509 215.68 135.76C216.57 137.63 217.79 136.9 218.62 136.02C218.408 135.809 218.155 135.644 217.876 135.536C217.597 135.427 217.299 135.378 217 135.39Z" fill="#FF78B8"/>
</g>
<defs>
<clipPath id="clip0">
<rect width="275" height="160" fill="white"/>
</clipPath>
</defs>
</svg>
