<svg viewBox="0 0 256 192" xmlns="http://www.w3.org/2000/svg" xmlns:xlink="http://www.w3.org/1999/xlink"><linearGradient id="a" gradientUnits="userSpaceOnUse" x1="221.16" x2="121.48" y1="237.42" y2="105.03"><stop offset=".21" stop-color="#4e1ceb"/><stop offset=".31" stop-color="#582ef0"/><stop offset=".52" stop-color="#694ff8"/><stop offset=".7" stop-color="#7364fd"/><stop offset=".81" stop-color="#776bff"/></linearGradient><linearGradient id="b" gradientUnits="userSpaceOnUse" x1="211.22" x2="280.04" y1="78.29" y2="134.11"><stop offset=".21" stop-color="#4e1ceb"/><stop offset=".27" stop-color="#423ae1"/><stop offset=".41" stop-color="#2b75cc"/><stop offset=".54" stop-color="#18a3bc"/><stop offset=".65" stop-color="#0bc4b1"/><stop offset=".75" stop-color="#03d9aa"/><stop offset=".81" stop-color="#00e0a7"/></linearGradient><path d="m0 0h256v192h-256z" fill="#ffd01a"/><circle cx="222.13" cy="45.06" fill="#ebf0f7" r="15.87"/><circle cx="222.13" cy="25.65" fill="#ebf0f7" r="10.58"/><circle cx="219.13" cy="25.65" fill="#270813" r="4.41"/><path d="m75 135h181v57h-181z" fill="url(#a)"/><path d="m193 42.5h63a0 0 0 0 1 0 0v85a0 0 0 0 1 0 0h-73a0 0 0 0 1 0 0v-75a10 10 0 0 1 10-10z" fill="url(#b)"/><path d="m193 42.5h35a10 10 0 0 1 10 10v75a0 0 0 0 1 0 0h-55a0 0 0 0 1 0 0v-75a10 10 0 0 1 10-10z" fill="#00e0a7"/><g fill="#00ad94"><circle cx="210.5" cy="68.5" r="18"/><circle cx="210.5" cy="69" r="11" stroke="#00e0a7" stroke-miterlimit="10" stroke-width="2"/><circle cx="210.5" cy="106.5" r="11"/><circle cx="210.5" cy="106.5" r="5" stroke="#00e0a7" stroke-miterlimit="10" stroke-width="2"/></g><path d="m64.5 17.5c-26 0-47 8.06-47 18 0 5.72 7 10.82 17.85 14.11a46.17 46.17 0 0 1 -8.84 14.26 1.9 1.9 0 0 0 1.74 3.13c12.14-2 20.16-10.15 23.49-14.2a118.74 118.74 0 0 0 12.76.68c26 0 47-8.06 47-18s-21.04-17.98-47-17.98z" fill="#ffa600"/><path d="m71.29 28.63a5.57 5.57 0 0 0 -7.87 0l-.67.67-.67-.67a5.56 5.56 0 0 0 -7.86 0 5.56 5.56 0 0 0 0 7.86l8.51 8.51 8.51-8.51a5.56 5.56 0 0 0 .05-7.86z" fill="#fff"/><path d="m256 125.5h-215s5 26 39 26h176z" fill="#4e1ceb"/><path d="m0 192h103.42a31.27 31.27 0 0 0 1.58-9.79 32.17 32.17 0 0 0 -3.69-14.85l22.22-25a2.25 2.25 0 0 0 -2.37-3.64l-36.34 11.66c-1.24-.76-2.52-1.49-3.85-2.17a67.49 67.49 0 0 0 -30.47-7c-22.85 0-42.4 10.58-50.5 25.58z" fill="#fff"/><path d="m92.89 192a42 42 0 0 0 -21.89-35.42 38.44 38.44 0 0 0 -5 9.92h-30a38.76 38.76 0 0 0 -5-9.92 42 42 0 0 0 -22 35.42z" fill="#ffa600"/><circle cx="34.5" cy="175.5" fill="#4e1ceb" r="3"/><path d="m50.94 185.5a6 6 0 0 1 -6-6l3-2 3-3 3 3 3 2a6 6 0 0 1 -6 6z" fill="#fa4e89" stroke="#fa4e89" stroke-miterlimit="10"/><path d="m131.5 168.5h106v4h-106z" fill="#00e0a7" stroke="#00e0a7" stroke-miterlimit="10"/><path d="m190.5 168.5h50a2 2 0 0 1 2 2 2 2 0 0 1 -2 2h-50a0 0 0 0 1 0 0v-4a0 0 0 0 1 0 0z" fill="#fff" stroke="#fff" stroke-miterlimit="10"/><circle cx="188.5" cy="170.5" fill="#fff" r="8" stroke="#00ad94" stroke-miterlimit="10" stroke-width="3"/><path d="m80.05 175.62c-8.72 7.91-20.52 4.33-28.23-3a1.27 1.27 0 0 0 -1.77 0c-7.7 7.33-19.51 10.9-28.23 3-1.19-1.08-3 .68-1.77 1.76 9.8 8.89 23 5.33 31.77-3h-1.77c8.75 8.33 22 11.89 31.77 3 1.2-1.08-.58-2.84-1.77-1.76z" fill="#6045ff"/><path d="m61.62 175.38a6.83 6.83 0 0 0 9.76 0c1.19-1.09-.59-2.86-1.76-1.76a4.32 4.32 0 0 1 -6.24 0c-1.15-1.13-2.92.64-1.76 1.76z" fill="#6045ff"/><path d="m49.69 174.06v6.44a1.25 1.25 0 0 0 2.5 0v-6.44a1.25 1.25 0 0 0 -2.5 0z" fill="#6045ff"/><path d="m157.5 36.58a9.35 9.35 0 0 0 -5.31-8.43 9.52 9.52 0 0 0 -2.42-.78 3.08 3.08 0 0 0 -3.19 1.49l-6.88 11.7-4.76 8.1c-2.19-1.81-5.93-2.07-9.39-.4-4.36 2.1-6.62 6.45-5 9.72s6.39 4.22 10.75 2.12a10.58 10.58 0 0 0 4.38-3.78l6.6-11.32.47-.81 5.5-9.35a2.09 2.09 0 0 1 2.55-.84 7.26 7.26 0 0 1 4.62 6.77.51.51 0 0 0 1 .25 9.26 9.26 0 0 0 1.08-4.44z"/><path d="m177.77 78.87a22.91 22.91 0 0 0 -.93-2.32c-7.47-15.67-31.8-19.67-54.34-8.93s-34.77 32.15-27.3 47.83 31.8 19.67 54.34 8.93c12.77-6.08 22.23-15.6 26.67-25.55 13.22-2.83 26.33-18 31.89-25.27a1.32 1.32 0 0 0 -1.68-2c-15.96 8.87-28.65 7.31-28.65 7.31z" fill="#fff"/><circle cx="109.31" cy="78.35" fill="#ff87ff" r="11"/><path d="m166.21 77.5h-26a4.2 4.2 0 0 0 -3.62 2.07l-12.28 20.9c-2.24-1.85-6.06-2.12-9.6-.42-4.46 2.15-6.77 6.6-5.16 9.94s6.53 4.32 11 2.17a10.86 10.86 0 0 0 4.48-3.87l10.3-17.52a1.05 1.05 0 0 1 .91-.53h17.66a1.06 1.06 0 0 1 .92 1.6l-5.07 8.63c-2.24-1.85-6.06-2.12-9.6-.42-4.46 2.15-6.76 6.6-5.15 9.94s6.52 4.32 11 2.17a10.86 10.86 0 0 0 4.48-3.87l16.91-28.76a1.35 1.35 0 0 0 -1.16-2z"/><path d="m114.24 74.09a3.21 3.21 0 0 0 -4.55 0l-.38.39-.39-.39a3.21 3.21 0 0 0 -4.55 0 3.23 3.23 0 0 0 0 4.55l4.92 4.92 4.92-4.92a3.21 3.21 0 0 0 .03-4.55z" fill="#ffd01a"/><path d="m79.73 96.5a2.13 2.13 0 0 0 -1.85 1.06l-12.1 20.57c-2.1-1.74-5.7-2-9-.39-4.2 2-6.38 6.22-4.86 9.36s6.15 4.07 10.35 2.05a10.26 10.26 0 0 0 4.21-3.65l15.11-25.75a2.15 2.15 0 0 0 -1.86-3.25z"/></svg>