<svg width="280" height="168" viewBox="0 0 280 168" fill="none" xmlns="http://www.w3.org/2000/svg">
<g clip-path="url(#clip0_1835_37536)">
<path d="M280 0H0V168H280V0Z" fill="#EBEDEF"/>
<path d="M202.935 85.9098C206.692 84.307 210.6 83.0985 214.441 81.7139C215.52 81.3278 216.307 81.0341 216.173 79.5235C216.047 78.1473 217.093 77.2241 218.399 76.7962C219.015 76.5479 219.698 76.5191 220.333 76.7146C220.968 76.9101 221.517 77.318 221.888 77.8703C222.725 79.1123 223.562 78.2564 224.399 78.0969C225.235 77.9375 225.52 77.4927 225.461 76.5612C225.464 75.8766 225.683 75.2104 226.085 74.6577C226.488 74.1051 227.055 73.6943 227.705 73.4839C228.354 73.2736 229.054 73.2745 229.703 73.4865C230.352 73.6986 230.917 74.1109 231.319 74.6646C231.771 75.3527 232.197 75.4451 232.792 75.0674C233.386 74.6898 234.817 75.0087 234.75 73.4645C234.663 72.7334 234.837 71.995 235.241 71.3804C235.646 70.7658 236.254 70.3149 236.959 70.1078C238.431 69.6294 239.62 70.0071 240.724 71.4253C241.067 71.8701 241.343 72.0547 241.904 71.8449C244.414 70.905 247 70.0742 249.494 69.0588C253.435 67.4559 255.427 64.1243 256.866 60.3563C257.175 59.5171 257.46 58.6779 257.845 57.9394C257.929 57.683 258.087 57.4574 258.299 57.2909C258.511 57.1245 258.768 57.0246 259.036 57.004C259.304 56.9834 259.573 57.0428 259.808 57.175C260.042 57.3071 260.233 57.5059 260.355 57.7464C260.573 58.0714 260.739 58.428 260.849 58.8038C262.919 64.5942 264.98 70.3847 267.033 76.1752C267.26 76.65 267.35 77.1791 267.292 77.7025C267.066 78.7515 266.188 79.1459 265.066 78.6592C262.84 77.6773 260.74 76.4269 258.372 75.7052C256.407 75.0221 254.3 74.863 252.255 75.2436C252.814 76.1984 253.306 77.191 253.728 78.2144C254.515 80.4348 254.474 82.8655 253.615 85.0585C252.755 87.2515 251.134 89.059 249.05 90.1478C248.666 90.2625 248.335 90.512 248.118 90.8509C247.902 91.1898 247.814 91.5955 247.87 91.994C247.888 92.6784 247.673 93.3484 247.261 93.8942C246.849 94.44 246.264 94.8293 245.603 94.9983C244.99 95.2525 244.308 95.286 243.674 95.0932C243.039 94.9005 242.491 94.4933 242.122 93.941C241.285 92.5563 240.448 93.5465 239.611 93.706C238.775 93.8654 238.565 94.3102 238.624 95.1746C238.678 95.8582 238.495 96.5395 238.106 97.1037C237.718 97.6678 237.147 98.0802 236.49 98.2712C235.868 98.5553 235.167 98.6118 234.508 98.4309C233.849 98.2499 233.274 97.843 232.884 97.281C232.047 95.9215 231.21 96.853 230.315 97.0208C229.419 97.1886 229.252 97.6082 229.319 98.481C229.332 99.1569 229.135 99.8201 228.754 100.378C228.374 100.936 227.829 101.361 227.196 101.594C226.564 101.827 225.874 101.856 225.224 101.677C224.574 101.498 223.996 101.12 223.57 100.596C223.382 100.291 223.093 100.061 222.754 99.9462C222.415 99.8313 222.047 99.8385 221.713 99.9664C220.381 100.272 219 100.291 217.66 100.025C216.321 99.758 215.052 99.2107 213.938 98.4186C212.823 97.6265 211.888 96.6075 211.193 95.4281C210.498 94.2487 210.06 92.9355 209.905 91.5744C209.746 90.3828 209.37 90.3995 208.458 90.7352C207.386 91.224 206.263 91.5926 205.111 91.8346C206.215 89.2247 205.512 87.2526 202.935 85.9098ZM239.26 86.9337C239.201 86.6193 239.126 86.3084 239.034 86.0022C238.649 84.8944 238.256 83.7867 237.862 82.6454C237.101 80.4886 237.109 80.5222 234.992 81.2691C234.222 81.5376 233.963 81.8313 234.306 82.6537C234.833 83.9377 235.218 85.272 235.729 86.5644C235.896 86.984 235.804 87.8064 236.507 87.6973C237.442 87.5113 238.362 87.2561 239.26 86.9337ZM227.813 84.1223C227.67 84.1223 227.578 84.03 227.511 84.0468C226.634 84.2503 225.789 84.5751 225.001 85.0119C224.466 85.4063 225.152 86.1029 225.302 86.6483C225.528 87.4875 225.871 88.3267 226.139 89.1072C226.909 91.2723 226.901 91.2387 229.034 90.4835C229.746 90.2317 230.013 89.9883 229.695 89.1995C229.101 87.7477 228.633 86.2623 228.106 84.7853C228.022 84.5503 227.905 84.3238 227.813 84.1223ZM245.67 78.4326C245.446 78.3479 245.216 78.2779 244.983 78.2228C243.536 77.9542 243.26 78.2815 243.745 79.6578C244.23 81.0341 244.741 82.3349 245.168 83.7027C245.444 84.5923 245.82 84.5419 246.44 84.0384C246.868 83.673 247.197 83.2053 247.398 82.6784C247.598 82.1516 247.663 81.5826 247.586 81.024C247.509 80.4654 247.294 79.9351 246.959 79.4822C246.624 79.0293 246.18 78.6683 245.67 78.4326ZM218.215 93.3703C218.524 93.4458 218.851 93.5549 219.194 93.6053C220.474 93.7815 220.7 93.513 220.282 92.3297C219.78 90.8947 219.244 89.4596 218.759 88.0162C218.516 87.2945 218.148 87.2777 217.612 87.6973C217.154 88.035 216.793 88.4888 216.566 89.0122C216.34 89.5356 216.256 90.11 216.324 90.6765C216.391 91.2476 216.599 91.7929 216.93 92.2631C217.26 92.7334 217.701 93.1139 218.215 93.3703Z" fill="#FBAB42"/>
<path d="M202.935 85.9097C205.512 87.2524 206.207 89.2665 205.06 91.9015C204.324 93.1771 202.826 93.7226 202.199 95.1828C201.83 96.022 200.157 95.6695 199.755 94.6457C198.793 92.1701 197.931 89.6609 197.086 87.1433C196.979 86.8541 196.972 86.5372 197.066 86.2434C197.16 85.9497 197.35 85.6962 197.605 85.5236C197.82 85.3041 198.104 85.1657 198.409 85.1321C198.714 85.0984 199.021 85.1715 199.278 85.339C200.416 86.153 201.78 85.2971 202.935 85.9097Z" fill="#CCD6DC"/>
<path d="M232.775 66.8855C232.835 66.6959 232.937 66.5222 233.074 66.377C233.21 66.2319 233.376 66.1189 233.561 66.0463C234.624 65.6687 235.678 65.2575 236.749 64.9134C236.95 64.8188 237.17 64.7699 237.392 64.7704C237.614 64.7708 237.833 64.8206 238.034 64.916C238.235 65.0115 238.412 65.1502 238.553 65.3224C238.694 65.4946 238.795 65.696 238.85 65.912C238.93 66.1164 238.967 66.3351 238.958 66.5544C238.95 66.7738 238.897 66.9891 238.802 67.1868C238.707 67.3846 238.572 67.5605 238.406 67.7036C238.24 67.8467 238.046 67.9539 237.837 68.0184C236.791 68.4464 235.72 68.8157 234.641 69.1429C234.351 69.2629 234.03 69.2835 233.727 69.2015C233.424 69.1196 233.157 68.9397 232.967 68.6898C232.766 68.4392 232.641 68.1359 232.607 67.816C232.573 67.4961 232.631 67.1731 232.775 66.8855Z" fill="#CCD6DC"/>
<path d="M214.817 75.6379C214.554 75.4955 214.334 75.2849 214.179 75.0281C214.025 74.7713 213.942 74.4777 213.939 74.1777C213.922 73.8692 214.007 73.5637 214.181 73.3087C214.355 73.0538 214.608 72.8636 214.901 72.7679C216.018 72.2799 217.167 71.8705 218.34 71.5427C218.723 71.4319 219.134 71.4751 219.485 71.6632C219.837 71.8512 220.101 72.1692 220.223 72.5497C220.316 72.7259 220.371 72.9196 220.385 73.1185C220.399 73.3173 220.371 73.5169 220.303 73.7043C220.235 73.8917 220.129 74.0627 219.991 74.2064C219.854 74.3501 219.687 74.4633 219.503 74.5386C218.315 75.0589 217.068 75.4533 215.838 75.8813C215.537 75.982 215.244 75.8394 214.817 75.6379Z" fill="#CCD6DC"/>
<path d="M224.323 72.3482C223.001 71.7104 222.842 70.2586 224.056 69.5621C225.225 68.9015 226.499 68.4473 227.821 68.2194C228.198 68.1891 228.575 68.292 228.884 68.5104C229.194 68.7288 229.418 69.0489 229.517 69.4153C229.616 69.7817 229.585 70.1714 229.428 70.5169C229.271 70.8625 228.999 71.1422 228.658 71.3076C227.612 71.7188 226.549 72.0713 225.495 72.4657C225.303 72.5357 225.099 72.5615 224.896 72.5412C224.693 72.5208 224.497 72.4549 224.323 72.3482Z" fill="#CCD6DC"/>
<path d="M205.13 59.1049L204.921 60.0448C203.556 61.3044 202.058 62.4103 200.453 63.3428C197.44 65.2814 194.386 67.1528 191.457 69.2172C190.72 69.8269 189.829 70.2208 188.882 70.3555C187.936 70.4902 186.971 70.3606 186.093 69.9809C185.118 69.2865 184.198 68.5178 183.34 67.6815C182.557 66.9385 181.612 66.3896 180.579 66.0786C176.875 65.0877 173.646 62.8019 171.475 59.6336C166.864 52.6514 162.379 45.619 157.844 38.5781C157.573 38.2022 157.387 37.7719 157.299 37.3169C157.211 36.8619 157.223 36.3931 157.333 35.943C157.425 35.3724 157.885 34.9947 158.17 34.4912C159.567 33.652 160.99 33.0142 162.429 34.3653C162.86 34.783 163.239 35.2507 163.559 35.7584C165.868 39.3166 168.161 42.8832 170.471 46.4414C170.671 46.7519 170.864 47.2806 171.374 46.9449C171.586 46.828 171.743 46.6315 171.811 46.3986C171.878 46.1657 171.851 45.9155 171.734 45.7029C171.565 45.3846 171.378 45.0764 171.174 44.7798C167.96 39.8033 164.764 34.8185 161.525 29.8589C160.822 28.8763 160.418 27.7103 160.362 26.5021L161.199 25.0167C161.351 24.9691 161.495 24.8983 161.626 24.8069C163.458 23.204 165.391 24.018 166.605 25.965C168.722 29.3218 170.989 32.6786 173.19 36.0353C174.245 37.6382 175.274 39.2579 176.32 40.8691C176.487 41.1293 176.638 41.5069 177.039 41.3391C177.34 41.2389 177.603 41.0485 177.793 40.7936C178.027 40.3656 177.608 40.0551 177.408 39.7362C173.703 33.9793 169.991 28.2308 166.27 22.4907C165.68 21.6812 165.342 20.7147 165.299 19.713C165.543 18.8987 166.016 18.1727 166.663 17.6234C168.973 16.6247 170.228 16.994 171.609 19.1255L182.73 36.3542C183.29 37.1934 183.884 37.3025 184.361 36.5976C184.738 36.0437 184.269 35.6913 184.027 35.322C180.679 30.1917 177.332 25.0754 173.985 19.9731C173.277 18.9938 172.875 17.8253 172.83 16.6163C172.995 16.0337 173.299 15.5006 173.717 15.0638C175.391 13.4274 177.5 13.6959 178.905 15.752C180.663 18.3367 182.194 21.0641 184.068 23.5649C186.529 27.6937 189.19 31.6967 191.867 35.6829C192.409 36.5284 193.084 37.2796 193.867 37.9068C194.048 38.1048 194.278 38.2523 194.533 38.3347C194.788 38.417 195.061 38.4315 195.323 38.3767C195.03 37.8984 194.813 37.5375 194.57 37.1599C192.704 34.2646 190.846 31.361 188.964 28.4826C188.602 27.9763 188.35 27.3995 188.225 26.7894C188.099 26.1793 188.103 25.5497 188.236 24.9412C190.403 22.1886 192.57 22.2893 194.495 25.2433C195.39 26.6112 196.269 27.9958 197.164 29.3721C198.787 31.8897 200.361 34.4073 202.068 36.9249C205.457 41.8006 206.469 47.0624 204.787 52.7689C204.151 54.8552 204.273 57.0999 205.13 59.1049Z" fill="#FEDB5E"/>
<path d="M186.093 69.9558C184.42 71.1307 182.629 71.0719 180.654 69.7208C179.968 69.2425 179.374 68.6383 178.73 68.1096C177.833 67.384 176.787 66.868 175.667 66.599C171.942 65.6894 168.671 63.4563 166.462 60.3134C161.721 53.5998 157.029 46.8863 152.388 40.1727C150.789 37.8649 152.078 35.1375 154.747 34.9529C155.818 34.8774 156.53 35.5403 157.341 36.0187C157.231 36.4687 157.219 36.9375 157.308 37.3925C157.396 37.8475 157.581 38.2779 157.852 38.6538C162.387 45.6778 166.872 52.7271 171.483 59.7092C173.654 62.8775 176.883 65.1633 180.587 66.1542C181.62 66.4652 182.565 67.0141 183.349 67.7571C184.207 68.5584 185.124 69.2934 186.093 69.9558Z" fill="#EE9845"/>
<path d="M158.128 34.4914C157.25 33.2494 156.363 32.0242 155.501 30.7738C154.128 28.7849 154.17 27.2072 155.626 25.9736C157.082 24.7399 158.58 24.8574 160.362 26.5106C160.418 27.7188 160.822 28.8849 161.526 29.8674C164.764 34.8271 167.96 39.8119 171.174 44.7884C171.378 45.0849 171.565 45.3932 171.734 45.7115C171.79 45.8192 171.825 45.9371 171.835 46.0583C171.845 46.1794 171.831 46.3014 171.793 46.417C171.756 46.5326 171.696 46.6397 171.617 46.7318C171.538 46.8239 171.441 46.8993 171.333 46.9535C170.822 47.2808 170.63 46.7605 170.429 46.45C168.119 42.8918 165.827 39.3252 163.517 35.767C163.197 35.2592 162.818 34.7916 162.387 34.3739C160.948 33.0312 159.526 33.6606 158.128 34.4914Z" fill="#EE9845"/>
<path d="M161.157 25.0255C160.73 24.4129 160.27 23.8086 159.868 23.1708C158.756 21.4924 158.965 19.8141 160.421 18.7315C161.877 17.6489 163.45 17.758 164.856 19.2434L165.257 19.6798C165.3 20.6815 165.638 21.648 166.228 22.4575C169.96 28.1976 173.673 33.9601 177.366 39.745C177.566 40.0639 177.985 40.3744 177.751 40.8024C177.561 41.0572 177.298 41.2476 176.997 41.3478C176.596 41.5157 176.445 41.138 176.278 40.8779C175.232 39.2666 174.203 37.647 173.148 36.0441C170.948 32.6873 168.68 29.4061 166.563 26.0157C165.349 24.0688 163.416 23.2548 161.584 24.8576C161.451 24.9344 161.307 24.991 161.157 25.0255Z" fill="#EE9845"/>
<path d="M166.622 17.5898C166.678 16.9511 166.933 16.3466 167.353 15.8628C167.772 15.3789 168.333 15.0405 168.956 14.8959C169.526 14.706 170.141 14.7003 170.715 14.8794C171.288 15.0586 171.791 15.4136 172.153 15.8946C172.37 16.1212 172.571 16.3645 172.78 16.5995C172.825 17.8085 173.227 18.9769 173.935 19.9563C177.282 25.0642 180.629 30.1805 183.977 35.3052C184.219 35.6745 184.688 36.0269 184.311 36.5808C183.834 37.2857 183.24 37.2018 182.679 36.3374L171.567 19.0919C170.186 16.9604 168.931 16.5911 166.622 17.5898Z" fill="#EE9845"/>
<path d="M184.018 23.5483C185.767 22.8601 186.687 23.1706 188.202 24.9246C188.069 25.5331 188.066 26.1627 188.191 26.7728C188.316 27.3829 188.568 27.9597 188.93 28.466C190.813 31.3444 192.67 34.248 194.536 37.1433C194.779 37.5041 194.997 37.8818 195.29 38.3601C195.027 38.4149 194.755 38.4004 194.5 38.3181C194.244 38.2357 194.015 38.0882 193.834 37.8902C193.045 37.2643 192.363 36.5131 191.817 35.6663C189.139 31.6801 186.478 27.6771 184.018 23.5483Z" fill="#EE9845"/>
<path d="M211.18 22.7594C211.133 23.0443 211.023 23.315 210.858 23.5516C210.693 23.7883 210.477 23.985 210.226 24.1273C208.185 25.4449 206.151 26.7876 204.093 28.0967C203.055 28.7597 202.118 28.6003 201.582 27.7359C201.047 26.8715 201.331 26.0575 202.335 25.4029C204.399 24.0434 206.475 22.6951 208.561 21.358C208.845 21.1313 209.198 21.0079 209.561 21.0079C209.924 21.0079 210.277 21.1313 210.561 21.358C210.779 21.5155 210.951 21.7284 211.06 21.9746C211.169 22.2209 211.21 22.4918 211.18 22.7594Z" fill="#EE9845"/>
<path d="M157.827 57.4597C157.664 57.9897 157.304 58.4371 156.823 58.7101C154.814 60.0025 152.806 61.32 150.789 62.6124C149.718 63.2921 148.823 63.1746 148.279 62.327C147.735 61.4795 147.986 60.5983 149.032 59.9102C151.096 58.5507 153.172 57.2051 155.258 55.8736C155.531 55.666 155.865 55.5537 156.208 55.5537C156.551 55.5537 156.884 55.666 157.157 55.8736C157.406 56.0481 157.601 56.2895 157.72 56.57C157.838 56.8506 157.875 57.1589 157.827 57.4597Z" fill="#EE9845"/>
<path d="M159.475 66.716C159.224 66.6818 158.985 66.5879 158.777 66.4421C158.569 66.2962 158.4 66.1028 158.282 65.8778C158.164 65.6528 158.101 65.4027 158.099 65.1486C158.097 64.8944 158.156 64.6434 158.27 64.4166C159.057 62.9732 159.907 61.5745 160.822 60.2206C160.926 60.0447 161.067 59.8932 161.234 59.7761C161.401 59.659 161.591 59.5792 161.792 59.5418C161.992 59.5045 162.198 59.5105 162.396 59.5596C162.594 59.6086 162.779 59.6995 162.939 59.8262C163.118 59.9224 163.275 60.0547 163.401 60.2147C163.526 60.3747 163.617 60.559 163.668 60.756C163.72 60.953 163.729 61.1584 163.698 61.3595C163.666 61.5605 163.593 61.7527 163.483 61.9242C162.705 63.3172 161.81 64.6683 160.973 66.0194C160.819 66.27 160.595 66.4695 160.328 66.5934C160.062 66.7172 159.765 66.7598 159.475 66.716Z" fill="#EE9845"/>
<path d="M196.838 24.4883C196.582 24.4508 196.339 24.3509 196.131 24.1974C195.922 24.0439 195.755 23.8415 195.642 23.608C195.53 23.3744 195.477 23.1168 195.487 22.8577C195.497 22.5986 195.57 22.346 195.7 22.1218C196.478 20.7203 197.315 19.3608 198.21 18.0265C198.309 17.8486 198.444 17.6935 198.607 17.5714C198.769 17.4493 198.956 17.3628 199.154 17.3177C199.352 17.2726 199.557 17.2698 199.757 17.3095C199.956 17.3492 200.144 17.4305 200.31 17.5482C200.501 17.643 200.67 17.7778 200.805 17.9436C200.939 18.1094 201.037 18.3022 201.091 18.5091C201.145 18.7159 201.154 18.932 201.117 19.1426C201.081 19.3533 201 19.5536 200.879 19.7301C200.109 21.0896 199.281 22.4071 198.453 23.7331C198.295 24.0113 198.055 24.2335 197.765 24.3688C197.476 24.5041 197.152 24.5459 196.838 24.4883Z" fill="#EE9845"/>
<path d="M204.477 35.4731C203.59 35.2214 203.13 34.7766 203.063 34.0129C203.022 33.8315 203.017 33.6435 203.049 33.4601C203.081 33.2767 203.149 33.1016 203.25 32.9451C203.35 32.7887 203.481 32.654 203.635 32.5491C203.788 32.4443 203.961 32.3713 204.143 32.3345C205.702 32.0354 207.278 31.828 208.862 31.7135C209.23 31.6995 209.589 31.8288 209.863 32.0745C210.138 32.3202 210.307 32.6631 210.335 33.0311C210.435 33.3651 210.404 33.7249 210.249 34.0369C210.093 34.3488 209.825 34.5894 209.498 34.7095C207.852 35.1221 206.171 35.3778 204.477 35.4731Z" fill="#EE9845"/>
<path d="M154.722 48.6064C155.559 48.8413 156.044 49.2777 156.12 50.0414C156.161 50.2217 156.167 50.4085 156.136 50.591C156.105 50.7735 156.038 50.9479 155.939 51.1042C155.84 51.2605 155.711 51.3954 155.56 51.5011C155.408 51.6068 155.237 51.6811 155.057 51.7198C153.459 52.0263 151.844 52.2282 150.22 52.324C149.873 52.2907 149.546 52.141 149.294 51.8991C149.041 51.6572 148.877 51.3371 148.828 50.9903C148.778 50.6436 148.847 50.2902 149.022 49.9872C149.197 49.6842 149.469 49.4491 149.794 49.3197C151.414 48.948 153.063 48.7094 154.722 48.6064Z" fill="#EE9845"/>
<path d="M177.703 96.4863C177.328 96.1769 176.931 95.8963 176.515 95.6471L176.431 95.5968C176.205 95.4625 175.971 95.345 175.736 95.2275C173.451 94.174 170.917 93.7872 168.423 94.1114C166.824 94.336 165.335 95.0535 164.161 96.1646C162.987 97.2758 162.187 98.7255 161.871 100.313C161.889 101.257 162.176 102.175 162.698 102.96C163.22 103.746 163.955 104.364 164.816 104.744C165.6 105.043 166.34 105.447 167.017 105.944C167.762 106.573 167.686 107.153 166.816 107.572C166.099 107.856 165.343 108.028 164.574 108.084C164.231 108.134 163.795 108.025 163.653 108.52C163.655 110.365 163.003 112.15 161.812 113.556C160.139 115.687 158.314 117.752 156.549 119.816C156.599 120.437 157.093 120.294 157.453 120.294C158.356 120.294 159.268 120.294 160.172 120.219C162.492 120.136 164.791 119.747 167.009 119.061C167.72 118.826 168.297 118.482 168.356 117.626V117.575H168.456L168.59 116.938C169.08 115.789 169.827 114.77 170.774 113.958C172.255 112.523 173.803 111.155 175.293 109.762C177.141 108.117 178.604 106.082 179.577 103.804C180.133 102.551 180.25 101.146 179.91 99.8181C179.57 98.4898 178.792 97.3157 177.703 96.4863Z" fill="#3E721D"/>
<path d="M167.829 106.775C167.829 105.86 165.804 104.921 165.092 104.618L164.917 104.543H164.841C163.076 103.754 162.331 102.185 161.837 100.347C161.703 100.615 161.553 100.884 161.436 101.186C160.699 102.864 160.18 103.158 158.406 102.789C157.021 102.514 155.696 101.988 154.499 101.236C153.344 100.506 153.059 100.397 152.449 101.287C152.229 101.648 152.086 102.05 152.029 102.469C151.971 102.887 152 103.313 152.114 103.72C152.156 103.83 152.206 103.939 152.256 104.039C152.889 105.103 153.849 105.93 154.992 106.398C157.257 107.431 159.684 108.061 162.164 108.261H162.323C162.54 108.261 162.766 108.261 162.984 108.311C165.494 108.445 167.586 107.958 167.804 106.918C167.82 106.859 167.82 106.817 167.829 106.775Z" fill="#FECB4D"/>
<path d="M168.281 101.462C169.44 101.462 170.381 100.519 170.381 99.356C170.381 98.1927 169.44 97.2496 168.281 97.2496C167.121 97.2496 166.18 98.1927 166.18 99.356C166.18 100.519 167.121 101.462 168.281 101.462Z" fill="#292F33"/>
<path d="M168.431 120.957C168.203 119.799 168.203 118.607 168.431 117.449C168.431 117.29 168.498 117.13 168.523 116.971C168.376 117.494 168.086 117.964 167.685 118.329C167.284 118.695 166.789 118.939 166.256 119.035C163.172 119.731 160.019 120.075 156.859 120.059C156.683 120.059 156.524 120.017 156.49 119.807C155.313 120.974 154.504 122.463 154.164 124.087C154.34 123.668 154.767 123.777 155.561 123.819L155.729 123.869C159.057 124.217 162.421 123.834 165.586 122.745C166.091 122.576 166.578 122.36 167.042 122.098C167.282 121.964 167.531 121.846 167.787 121.746L168.582 121.435L168.431 120.957Z" fill="#F4F7F9"/>
<path d="M199.702 141.988C199.731 142.011 199.764 142.029 199.8 142.039C199.836 142.049 199.874 142.052 199.911 142.047L199.802 141.887L199.702 141.988Z" fill="#414447"/>
<path d="M189.242 131.111C189.376 131.103 189.51 131.103 189.644 131.111C189.515 131.061 189.371 131.061 189.242 131.111Z" fill="#A88576"/>
<path d="M190.807 131.297C190.822 131.349 190.841 131.399 190.865 131.448C191.626 131.582 192.375 131.773 193.108 132.018C192.413 131.54 191.518 131.582 190.807 131.297Z" fill="#A88576"/>
<path d="M190.464 131.221H190.221C190.405 131.221 190.606 131.221 190.799 131.305L190.464 131.221Z" fill="#3D3E40"/>
<path d="M190.104 131.17L190.221 131.212H190.464L190.104 131.17Z" fill="#3D3E40"/>
<path d="M166.866 122.115C166.825 122.098 166.781 122.088 166.737 122.088C166.692 122.088 166.648 122.098 166.607 122.115H166.783H166.866Z" fill="#3E721D"/>
<path d="M168.624 121.428L167.502 121.847L166.607 122.183C163.205 123.432 159.574 123.93 155.963 123.643H155.126C154.938 123.61 154.745 123.639 154.574 123.725C154.404 123.811 154.266 123.95 154.181 124.122C154.137 124.217 154.108 124.319 154.097 124.424C153.264 127.043 153.03 129.816 153.411 132.539C153.684 134.792 154.626 136.912 156.114 138.623C157.21 139.882 157.896 139.94 157.896 139.94L157.369 137.037C157.173 137.065 156.98 137.11 156.791 137.171C156.809 136.801 156.86 136.433 156.942 136.072C157.519 133.369 159.101 131.221 160.708 129.098C162.029 127.413 163.455 125.813 164.975 124.306C166.037 123.172 167.254 122.194 168.59 121.403L168.624 121.428Z" fill="#C0694F"/>
<path d="M191.25 131.036C196.146 131.128 201.024 131.371 205.752 132.865C206.232 133.024 206.684 133.259 207.091 133.562C206.767 132.497 206.213 131.517 205.467 130.692C201.233 125.186 195.853 121.343 189.041 119.782C184.637 118.88 180.088 118.981 175.728 120.076C173.879 120.504 172.138 121.242 170.322 121.754C169.72 121.93 169.059 122.149 168.649 121.402C167.313 122.193 166.096 123.171 165.034 124.305C163.513 125.812 162.088 127.412 160.766 129.097C159.16 131.22 157.578 133.369 157.001 136.071C156.744 137.056 156.796 138.096 157.151 139.05C157.319 139.435 157.615 139.749 157.988 139.94C158.669 140.305 159.383 140.603 160.122 140.829C160.088 140.761 160.057 140.691 160.03 140.619C159.528 139.293 159.762 138.765 161.235 137.758C163.616 136.231 166.207 135.061 168.925 134.283C175.004 132.237 181.358 131.128 187.769 130.994C188.238 130.994 188.698 131.069 189.167 131.103C189.276 130.515 189.644 130.977 189.878 130.935L191.292 131.036" fill="#D89D81"/>
<path d="M198.405 143.632C201.016 141.399 203.444 138.961 205.668 136.34C205.877 136.071 206.086 135.811 206.312 135.551C206.722 135.081 207.383 134.174 207.09 133.562C206.672 132.723 205.275 132.228 198.873 131.237C194.34 130.653 189.759 130.529 185.2 130.868L198.405 143.632Z" fill="#747F8D"/>
<path d="M186.029 146.519C188.785 147.131 191.656 146.974 194.329 146.066C196.764 145.227 199.25 143.624 200.237 140.662C202.438 134.066 194.681 131.674 188.698 130.952C182.715 130.23 171.761 132.857 165.653 135.291C159.544 137.725 156.934 140.225 161.092 141.165C164.423 141.895 179.987 145.227 186.029 146.519Z" fill="#E0E7EC"/>
<path d="M226.846 29.6514C228.037 28.8537 229.05 27.7992 229.818 26.5588C230.585 25.3184 231.09 23.9208 231.297 22.46L232.02 17.4286C232.037 17.3083 232.096 17.1986 232.185 17.1199C232.274 17.0412 232.387 16.9986 232.504 17C232.62 16.9989 232.732 17.0417 232.82 17.1206C232.907 17.1995 232.964 17.309 232.98 17.4286L233.703 22.46C233.91 23.9208 234.415 25.3184 235.182 26.5588C235.95 27.7992 236.963 28.8537 238.154 29.6514L238.778 30.0714C238.846 30.1182 238.902 30.1818 238.941 30.2566C238.98 30.3314 239 30.415 239 30.5C239 30.5838 238.98 30.6663 238.941 30.7397C238.902 30.8132 238.846 30.8752 238.778 30.92L238.154 31.34C236.964 32.1403 235.951 33.1966 235.184 34.4382C234.416 35.6799 233.911 37.0783 233.703 38.54L232.98 43.5714C232.964 43.691 232.907 43.8005 232.82 43.8794C232.732 43.9583 232.62 44.0011 232.504 44C232.387 44.0014 232.274 43.9588 232.185 43.8801C232.096 43.8014 232.037 43.6917 232.02 43.5714L231.297 38.54C231.089 37.0783 230.584 35.6799 229.816 34.4382C229.049 33.1966 228.036 32.1403 226.846 31.34L226.222 30.92C226.154 30.8752 226.098 30.8132 226.059 30.7397C226.02 30.6663 226 30.5838 226 30.5C226 30.415 226.02 30.3314 226.059 30.2566C226.098 30.1818 226.154 30.1182 226.222 30.0714L226.846 29.6514Z" fill="#66BAFF"/>
<path d="M239.581 124.896C240.406 124.335 241.108 123.593 241.64 122.721C242.172 121.848 242.521 120.864 242.665 119.836L243.165 116.3C243.178 116.217 243.219 116.141 243.279 116.086C243.34 116.031 243.417 116.001 243.496 116C243.576 115.999 243.654 116.029 243.714 116.084C243.775 116.139 243.815 116.216 243.827 116.3L244.327 119.836C244.472 120.864 244.823 121.847 245.354 122.719C245.886 123.592 246.587 124.334 247.411 124.896L247.839 125.196C247.887 125.228 247.926 125.272 247.954 125.325C247.983 125.377 247.998 125.436 248 125.496C248 125.556 247.986 125.616 247.957 125.669C247.929 125.721 247.888 125.765 247.839 125.795L247.411 126.095C246.587 126.657 245.886 127.4 245.354 128.272C244.823 129.145 244.472 130.128 244.327 131.155L243.827 134.692C243.817 134.777 243.778 134.856 243.717 134.913C243.656 134.97 243.577 135.001 243.496 135C243.415 134.999 243.338 134.967 243.277 134.911C243.216 134.854 243.177 134.777 243.165 134.692L242.665 131.155C242.521 130.127 242.172 129.144 241.64 128.271C241.108 127.398 240.406 126.656 239.581 126.095L239.154 125.795C239.105 125.765 239.065 125.721 239.038 125.668C239.011 125.615 238.998 125.556 239 125.496C239 125.436 239.015 125.378 239.041 125.325C239.068 125.273 239.107 125.229 239.154 125.196L239.581 124.896Z" fill="#8FFFAB"/>
<path opacity="0.7" d="M67.2572 91.4433C66.1526 91.6867 65.6673 92.5007 66.1777 93.2728C66.5317 93.6833 66.991 93.9887 67.5059 94.1559C68.0207 94.3231 68.5714 94.3456 69.0981 94.2211L76.3865 92.6266L76.2191 92.2825L76.0016 91.821C76.0016 91.7454 75.943 91.6699 75.9179 91.5944V91.5189C75.9139 91.4686 75.9139 91.4181 75.9179 91.3678C75.9139 91.3372 75.9139 91.3061 75.9179 91.2755C75.9179 91.2251 75.9179 91.1832 75.9179 91.1328V91.0489V90.8643C76.0016 90.4712 76.0603 90.0732 76.0936 89.6726L67.2572 91.4433Z" fill="url(#paint0_linear_1835_37536)"/>
<path d="M109.448 44.6832C107.532 44.6328 106.043 44.6244 104.126 44.6832C103.904 44.6832 103.692 44.7716 103.535 44.929C103.378 45.0864 103.29 45.2998 103.29 45.5224L104.126 66.1582C104.133 66.2693 104.161 66.3779 104.21 66.4779C104.258 66.5778 104.326 66.6671 104.409 66.7405C104.493 66.8139 104.59 66.87 104.695 66.9054C104.8 66.9409 104.911 66.955 105.022 66.9471C106.938 66.8716 108.419 66.7457 110.327 66.5275C111.884 66.3627 113.331 65.6442 114.405 64.5019C115.48 63.3597 116.111 61.8693 116.184 60.3006C116.307 56.9746 116.17 53.644 115.774 50.3394C115.557 48.7986 114.802 47.3849 113.644 46.3493C112.486 45.3138 110.999 44.7234 109.448 44.6832Z" fill="#718CF6"/>
<path d="M109.414 48.1911C108.472 48.1329 107.528 48.1329 106.586 48.1911C106.32 48.2207 106.076 48.3547 105.909 48.5638C105.741 48.773 105.663 49.0403 105.691 49.3072L106.143 60.3343C106.138 60.603 106.239 60.8627 106.424 61.0574C106.608 61.2521 106.862 61.3661 107.13 61.3749C108.074 61.3364 109.016 61.244 109.95 61.0979C110.511 60.9995 111.023 60.7124 111.4 60.2839C111.777 59.8553 111.998 59.3108 112.025 58.7398C112.12 55.9546 112.006 53.1661 111.682 50.3982C111.623 49.8218 111.363 49.2848 110.948 48.8812C110.534 48.4777 109.991 48.2334 109.414 48.1911Z" fill="#BACAFA"/>
<path d="M43.7605 57.0196C43.7878 60.7224 44.1434 64.4154 44.8232 68.055C45.2051 70.6454 46.3742 73.0546 48.1711 74.9543C49.9681 76.8541 52.3054 78.1519 54.8646 78.6709C59.0485 79.443 69.2657 79.5688 76.3783 79.3842C83.491 79.1996 93.6998 78.545 97.8335 77.5548C100.37 76.9125 102.647 75.4992 104.352 73.5086C106.057 71.518 107.106 69.0474 107.356 66.4354C107.853 62.7682 108.015 59.0632 107.841 55.3664C107.846 51.6659 107.518 47.9726 106.862 44.331C106.48 41.7406 105.311 39.3314 103.514 37.4317C101.718 35.5319 99.3802 34.2341 96.821 33.7151C89.6995 32.6614 82.5051 32.1843 75.3073 32.2885C68.0997 32.5488 60.9248 33.3907 53.8521 34.8061C51.2975 35.4363 49.0015 36.8474 47.2819 38.8441C45.5623 40.8408 44.5043 43.3242 44.2542 45.9506C43.7583 49.6179 43.5931 53.3226 43.7605 57.0196Z" fill="url(#paint1_linear_1835_37536)"/>
<path d="M42.2542 47.4776C44.162 47.2678 45.6515 47.1503 47.5678 47.0748C47.6784 47.068 47.7892 47.0833 47.8939 47.1198C47.9985 47.1563 48.0949 47.2133 48.1774 47.2874C48.2599 47.3616 48.3269 47.4515 48.3745 47.5518C48.4222 47.6522 48.4494 47.761 48.4548 47.872L49.233 68.5078C49.233 68.7304 49.1448 68.9439 48.9879 69.1013C48.8309 69.2586 48.6181 69.347 48.3962 69.347C46.4799 69.4226 44.9905 69.4142 43.0742 69.347C41.5026 69.3176 39.9938 68.7225 38.8233 67.6703C37.6527 66.6181 36.8984 65.1789 36.6979 63.6153C36.3133 60.3099 36.1874 56.9793 36.3214 53.6541C36.4105 52.0832 37.058 50.5963 38.1464 49.4632C39.2349 48.33 40.6922 47.6256 42.2542 47.4776Z" fill="#718CF6"/>
<path d="M41.8357 51.5475C42.7692 51.3983 43.7109 51.3058 44.6556 51.2706C44.9227 51.2772 45.1764 51.3894 45.3613 51.5827C45.5463 51.7761 45.6475 52.0349 45.643 52.3028L46.1033 63.3383C46.1171 63.4706 46.1047 63.6044 46.0667 63.7319C46.0287 63.8595 45.9658 63.9781 45.8818 64.0812C45.7977 64.1842 45.6942 64.2694 45.5771 64.3321C45.46 64.3947 45.3317 64.4334 45.1995 64.446C44.2576 64.504 43.3131 64.504 42.3712 64.446C41.8023 64.405 41.2654 64.1664 40.853 63.7712C40.4406 63.376 40.1786 62.849 40.1119 62.2809C39.7856 59.5132 39.6682 56.7247 39.7604 53.9392C39.7694 53.3591 39.9826 52.8009 40.3624 52.3632C40.7421 51.9255 41.264 51.6366 41.8357 51.5475Z" fill="#BACAFA"/>
<path d="M71.5667 73.1149L82.7043 72.796C89.6078 72.3932 91.7081 69.5399 92.4696 65.5789C93.1893 61.8361 93.0135 59.2849 92.4696 55.1813C92.0596 51.8748 89.5158 50.5237 86.6121 50.5993L67.7175 51.1363C66.314 51.1759 64.9832 51.7709 64.0158 52.7914C63.0484 53.812 62.5231 55.175 62.5546 56.5827L62.7721 64.1355C62.9562 70.1441 66.0691 73.2744 71.5667 73.1149Z" fill="#BACAFA"/>
<path d="M83.0475 64.2534L85.4491 64.1862C85.741 64.1414 86.0391 64.1593 86.3236 64.2388C86.608 64.3182 86.8724 64.4574 87.0992 64.6471C87.326 64.8369 87.5099 65.0727 87.6389 65.3392C87.7679 65.6056 87.8389 65.8965 87.8473 66.1925C87.8556 66.4886 87.8011 66.783 87.6874 67.0564C87.5737 67.3297 87.4034 67.5757 87.1877 67.7779C86.972 67.9802 86.7159 68.1342 86.4363 68.2297C86.1568 68.3252 85.8602 68.36 85.5662 68.3319L83.1647 68.399C82.8727 68.4438 82.5747 68.4259 82.2902 68.3465C82.0057 68.267 81.7413 68.1278 81.5145 67.9381C81.2878 67.7484 81.1038 67.5125 80.9748 67.246C80.8458 66.9796 80.7748 66.6887 80.7665 66.3927C80.7581 66.0966 80.8126 65.8022 80.9263 65.5288C81.04 65.2555 81.2104 65.0095 81.426 64.8073C81.6417 64.605 81.8979 64.451 82.1774 64.3555C82.4569 64.26 82.7535 64.2252 83.0475 64.2534Z" fill="#718CF6"/>
<path d="M71.7763 64.5722L74.1778 64.5051C74.4697 64.4603 74.7678 64.4782 75.0523 64.5577C75.3368 64.6371 75.6012 64.7763 75.828 64.966C76.0547 65.1557 76.2387 65.3916 76.3677 65.6581C76.4966 65.9245 76.5677 66.2154 76.576 66.5114C76.5844 66.8075 76.5299 67.1019 76.4162 67.3753C76.3025 67.6486 76.1321 67.8946 75.9164 68.0968C75.7007 68.2991 75.4446 68.4531 75.1651 68.5486C74.8855 68.6441 74.589 68.6789 74.295 68.6507L71.885 68.7179C71.593 68.7623 71.2948 68.7439 71.0104 68.6639C70.726 68.5839 70.4618 68.4442 70.2353 68.2541C70.0088 68.0639 69.8252 67.8276 69.6967 67.5608C69.5682 67.2941 69.4977 67.003 69.49 66.7068C69.4822 66.4107 69.5373 66.1163 69.6516 65.8431C69.766 65.57 69.9369 65.3243 70.1531 65.1225C70.3693 64.9206 70.6258 64.7671 70.9057 64.6723C71.1855 64.5774 71.4823 64.5433 71.7763 64.5722Z" fill="#718CF6"/>
<path d="M59.9704 57.3169C59.8561 55.5455 58.3335 54.2022 56.5695 54.3166C54.8055 54.431 53.4681 55.9598 53.5823 57.7312L53.7222 59.9002C53.8364 61.6716 55.359 63.0149 57.123 62.9005C58.887 62.7861 60.2244 61.2573 60.1102 59.4859L59.9704 57.3169Z" fill="black"/>
<path d="M100.444 54.6944C100.329 52.923 98.8067 51.5797 97.0427 51.6941C95.2787 51.8085 93.9412 53.3373 94.0555 55.1087L94.1953 57.2777C94.3095 59.0491 95.8321 60.3924 97.5962 60.278C99.3602 60.1636 100.698 58.6348 100.583 56.8634L100.444 54.6944Z" fill="black"/>
<path d="M97.5323 55.7436C97.7589 55.5864 97.9503 55.3835 98.0944 55.148C98.2385 54.9125 98.332 54.6495 98.3691 54.3757L98.5114 53.4274C98.5154 53.4037 98.5277 53.3822 98.5461 53.3668C98.5645 53.3514 98.5878 53.3431 98.6118 53.3435C98.6343 53.3451 98.6556 53.3542 98.6723 53.3694C98.689 53.3846 98.7001 53.4051 98.7038 53.4274L98.8461 54.3757C98.8909 54.6561 98.9956 54.9235 99.1531 55.1596C99.3105 55.3957 99.5169 55.5949 99.7582 55.7436L99.8837 55.8191C99.8897 55.8323 99.8928 55.8466 99.8928 55.8611C99.8928 55.8756 99.8897 55.8899 99.8837 55.903C99.8897 55.9162 99.8928 55.9305 99.8928 55.945C99.8928 55.9595 99.8897 55.9738 99.8837 55.9869L99.7582 56.0709C99.5236 56.2196 99.3237 56.4173 99.1721 56.6504C99.0205 56.8836 98.9207 57.1467 98.8796 57.422L98.7373 58.3703C98.7336 58.3926 98.7225 58.413 98.7058 58.4282C98.6891 58.4435 98.6678 58.4526 98.6453 58.4542C98.6213 58.4545 98.598 58.4463 98.5796 58.4309C98.5612 58.4155 98.5488 58.394 98.5448 58.3703L98.4026 57.422C98.3664 57.1491 98.2732 56.8869 98.129 56.6526C97.9848 56.4183 97.7929 56.2172 97.5658 56.0625L97.4403 55.9786C97.4343 55.9654 97.4312 55.9511 97.4312 55.9366C97.4312 55.9221 97.4343 55.9078 97.4403 55.8946C97.4343 55.8815 97.4312 55.8672 97.4312 55.8527C97.4312 55.8382 97.4343 55.8239 97.4403 55.8107L97.5323 55.7436Z" fill="white"/>
<path d="M56.5802 57.7746C56.8215 57.6259 57.0279 57.4267 57.1853 57.1906C57.3427 56.9545 57.4474 56.6871 57.4923 56.4067L57.6345 55.4584C57.6385 55.4347 57.6509 55.4132 57.6693 55.3978C57.6877 55.3824 57.711 55.3741 57.735 55.3745C57.7575 55.3761 57.7788 55.3852 57.7955 55.4004C57.8122 55.4157 57.8233 55.4361 57.827 55.4584L57.9693 56.4067C58.0053 56.6808 58.0985 56.9442 58.2426 57.1799C58.3868 57.4155 58.5787 57.6181 58.806 57.7746L58.9232 57.8501C58.9386 57.858 58.9514 57.87 58.9603 57.8849C58.9692 57.8997 58.9737 57.9167 58.9734 57.934C58.9737 57.9513 58.9692 57.9684 58.9603 57.9832C58.9514 57.9981 58.9386 58.0101 58.9232 58.018L58.806 58.1019C58.5782 58.2558 58.3858 58.4567 58.2415 58.6912C58.0972 58.9256 58.0044 59.1882 57.9693 59.4614L57.827 60.4097C57.8233 60.432 57.8122 60.4524 57.7955 60.4676C57.7788 60.4829 57.7575 60.492 57.735 60.4936C57.711 60.4939 57.6877 60.4856 57.6693 60.4703C57.6509 60.4549 57.6385 60.4334 57.6345 60.4097L57.4923 59.4614C57.4523 59.1846 57.353 58.9198 57.2014 58.6852C57.0497 58.4505 56.8492 58.2515 56.6137 58.1019L56.4965 58.018C56.4811 58.0101 56.4683 57.9981 56.4594 57.9832C56.4505 57.9684 56.446 57.9513 56.4463 57.934C56.446 57.9167 56.4505 57.8997 56.4594 57.8849C56.4683 57.87 56.4811 57.858 56.4965 57.8501L56.5802 57.7746Z" fill="white"/>
<path d="M55.8016 61.5597C56.1944 61.5597 56.5129 61.2404 56.5129 60.8464C56.5129 60.4524 56.1944 60.1331 55.8016 60.1331C55.4088 60.1331 55.0903 60.4524 55.0903 60.8464C55.0903 61.2404 55.4088 61.5597 55.8016 61.5597Z" fill="white"/>
<path d="M96.369 58.7065C96.7618 58.7065 97.0802 58.3871 97.0802 57.9932C97.0802 57.5992 96.7618 57.2799 96.369 57.2799C95.9762 57.2799 95.6577 57.5992 95.6577 57.9932C95.6577 58.3871 95.9762 58.7065 96.369 58.7065Z" fill="white"/>
<path d="M86.2022 22.7968C85.325 22.633 84.4289 22.5963 83.5412 22.6877H83.2818C79.7674 23.1409 78.0938 24.9032 76.0186 27.4544C79.8845 31.4909 82.261 33.6896 82.261 33.6896C83.0811 34.4791 84.1485 34.9595 85.2818 35.0491C86.6005 34.5589 87.8721 33.9494 89.0808 33.228C90.2973 32.511 91.1952 31.3555 91.5911 29.9971C91.5911 29.9552 91.5911 29.9132 91.5911 29.8713C91.7753 29.2629 91.8463 28.6256 91.8003 27.9915C91.4321 25.3564 89.1561 23.3591 86.2022 22.7968Z" fill="#83ED90"/>
<path d="M78.4115 35.4269C78.2079 35.4512 78.0015 35.4223 77.8123 35.3428C77.6231 35.2634 77.4577 35.1363 77.3321 34.9738C77.2336 34.8504 77.161 34.7084 77.1185 34.5562C77.0761 34.404 77.0647 34.2449 77.085 34.0882C77.1053 33.9315 77.1569 33.7805 77.2367 33.6443C77.3166 33.5081 77.423 33.3894 77.5496 33.2954C79.8485 31.4876 81.7283 29.2005 83.059 26.5923C84.3897 23.9842 85.1394 21.1172 85.2564 18.1898C85.2719 17.8782 85.4103 17.5856 85.641 17.3763C85.8716 17.1669 86.1758 17.0581 86.4865 17.0737C86.7972 17.0893 87.089 17.228 87.2977 17.4593C87.5064 17.6907 87.6149 17.9957 87.5994 18.3073C87.4691 21.5788 86.6307 24.7828 85.1424 27.6969C83.6541 30.6111 81.5515 33.1657 78.9805 35.1836C78.8141 35.311 78.6185 35.3947 78.4115 35.4269Z" fill="#3D8A46"/>
<path d="M76.3782 36.6183C68.161 32.9174 65.2239 27.9578 64.3453 25.994C64.2093 25.7238 63.9745 25.5167 63.6899 25.4158C63.4054 25.3149 63.093 25.328 62.8178 25.4524C62.5427 25.5769 62.326 25.803 62.2131 26.0837C62.1001 26.3644 62.0995 26.678 62.2115 26.9591C63.885 30.6936 67.3158 34.2014 71.8512 36.912C73.4799 36.9882 75.1116 36.9686 76.738 36.8533C76.6326 36.7547 76.5108 36.6751 76.3782 36.6183Z" fill="#3D8A46"/>
<path d="M82.1187 33.5889C81.4994 33.0014 78.7715 30.4335 74.8052 26.2123L74.529 25.9186L73.2069 24.5004C70.6965 21.8401 68.1862 18.7267 63.0065 19.3225C58.5548 19.8344 55.5758 23.2583 55.7934 26.8753C56.103 31.8601 59.2577 34.5036 65.3746 36.1065C67.5059 36.5697 69.6726 36.8504 71.8513 36.9456C67.3327 34.2434 63.9102 30.7524 62.2199 27.0263C62.1012 26.7689 62.0773 26.4776 62.1523 26.2042C62.2274 25.9308 62.3966 25.6928 62.6299 25.5326C62.77 25.4458 62.9267 25.3896 63.0899 25.3677C63.2531 25.3458 63.4191 25.3586 63.577 25.4053C63.7349 25.452 63.8812 25.5316 64.0064 25.6388C64.1316 25.7461 64.2328 25.8786 64.3035 26.0277C65.1821 27.9914 68.1192 32.9511 76.3365 36.6519C76.4631 36.7105 76.5791 36.7899 76.6796 36.8869C79.1053 36.733 81.5056 36.3023 83.8341 35.6029L85.2817 35.1078C84.1087 34.9012 83.0146 34.3758 82.1187 33.5889Z" fill="#62C780"/>
<path d="M92.9885 121.922C92.8263 120.848 92.2854 119.868 91.464 119.16C90.6425 118.451 89.595 118.062 88.5117 118.062H54.2454C53.1621 118.062 52.1146 118.451 51.2931 119.16C50.4717 119.868 49.9308 120.848 49.7686 121.922L47.3754 137.624C47.0712 139.603 47.4987 141.625 48.5775 143.31C49.6563 144.994 51.312 146.225 53.2329 146.771C56.9733 147.828 62.6551 148.726 71.1317 148.726H71.6589C80.1355 148.726 85.8173 147.828 89.5661 146.771C91.4869 146.225 93.1426 144.994 94.2214 143.31C95.3003 141.625 95.7278 139.603 95.4236 137.624L92.9885 121.922Z" fill="#747F8D"/>
<path d="M84.6792 122.46L83.2316 122.686C75.378 123.928 67.379 123.928 59.5254 122.686L58.0778 122.46C57.3002 122.457 56.5548 122.148 56.0033 121.598C55.4519 121.048 55.1389 120.302 55.1323 119.522V113.254C55.1325 112.698 55.2508 112.148 55.4795 111.642C55.7082 111.135 56.0419 110.683 56.4584 110.316C56.875 109.95 57.3647 109.676 57.895 109.514C58.4254 109.352 58.984 109.305 59.5338 109.377L63.7177 109.914C68.8343 110.577 74.0147 110.577 79.1313 109.914L83.265 109.377C83.8095 109.313 84.3613 109.365 84.8844 109.53C85.4074 109.694 85.89 109.967 86.3006 110.332C86.7112 110.696 87.0406 111.143 87.2673 111.644C87.494 112.144 87.6129 112.687 87.6163 113.237V119.522C87.6097 120.301 87.2979 121.045 86.7483 121.595C86.1986 122.145 85.4554 122.455 84.6792 122.46Z" fill="url(#paint2_linear_1835_37536)"/>
<path d="M80.2863 127.713H67.7095V141.375H80.2863V127.713Z" fill="#747F8D"/>
<path d="M60.3037 127.847V141.275C60.3124 141.859 60.5482 142.416 60.9608 142.829C61.3735 143.241 61.9304 143.475 62.5128 143.482H63.6257V125.615H62.5128C61.9261 125.622 61.3655 125.86 60.9521 126.277C60.5388 126.695 60.3059 127.259 60.3037 127.847Z" fill="#83ED90"/>
<path d="M80.353 125.615H65.8599V143.482H80.3362C80.6313 143.486 80.9244 143.432 81.1983 143.322C81.4722 143.211 81.7216 143.048 81.9318 142.84C82.1421 142.632 82.309 142.385 82.423 142.112C82.5369 141.839 82.5956 141.545 82.5956 141.249V127.822C82.5889 127.232 82.3492 126.668 81.9289 126.254C81.5085 125.841 80.9419 125.611 80.353 125.615ZM79.2484 136.777C79.2501 137.22 79.1202 137.655 78.8754 138.025C78.6305 138.394 78.2817 138.683 77.8731 138.853C77.4645 139.024 77.0146 139.069 76.5804 138.983C76.1462 138.897 75.7474 138.683 75.4344 138.369C75.1214 138.055 74.9085 137.655 74.8225 137.22C74.7366 136.785 74.7815 136.333 74.9517 135.924C75.1218 135.514 75.4095 135.164 75.7782 134.918C76.1469 134.673 76.58 134.543 77.0226 134.544V131.624L72.5541 133.118V137.893C72.5541 138.334 72.4236 138.766 72.179 139.133C71.9344 139.5 71.5868 139.786 71.1801 139.955C70.7734 140.124 70.3258 140.168 69.8941 140.082C69.4623 139.996 69.0657 139.783 68.7544 139.471C68.4431 139.159 68.2311 138.761 68.1452 138.328C68.0593 137.895 68.1034 137.446 68.2719 137.038C68.4403 136.631 68.7256 136.282 69.0917 136.037C69.4577 135.791 69.8881 135.66 70.3283 135.66V132.304C70.3286 132.07 70.4023 131.842 70.539 131.652C70.6756 131.462 70.8683 131.32 71.0898 131.246L77.784 129.014C77.9513 128.957 78.1297 128.941 78.3044 128.967C78.4792 128.993 78.6451 129.061 78.7882 129.165C78.93 129.27 79.0455 129.406 79.1254 129.564C79.2053 129.721 79.2474 129.895 79.2484 130.071V136.777Z" fill="#83ED90"/>
<path d="M22.5061 38.0115C23.8707 37.1292 25.0324 35.9658 25.9139 34.5984C26.7955 33.231 27.3767 31.6911 27.6189 30.0811L28.4557 24.534C28.4739 24.4028 28.5392 24.2827 28.6393 24.1963C28.7394 24.1098 28.8675 24.0628 28.9996 24.0641C29.1322 24.0642 29.2604 24.1116 29.3615 24.1976C29.4626 24.2836 29.5301 24.4028 29.5519 24.534L30.3886 30.0811C30.6293 31.6916 31.2098 33.2322 32.0915 34.5997C32.9732 35.9673 34.1357 37.1305 35.5014 38.0115L36.2127 38.4815C36.2921 38.5313 36.3576 38.6006 36.403 38.6828C36.4483 38.765 36.4721 38.8574 36.4721 38.9514C36.4707 39.044 36.4463 39.1347 36.401 39.2153C36.3556 39.2959 36.2909 39.3639 36.2127 39.413L35.5014 39.8829C34.1357 40.764 32.9732 41.9271 32.0915 43.2947C31.2098 44.6623 30.6293 46.2028 30.3886 47.8133L29.5519 53.3604C29.5301 53.4916 29.4626 53.6108 29.3615 53.6968C29.2604 53.7829 29.1322 53.8302 28.9996 53.8304C28.8675 53.8317 28.7394 53.7847 28.6393 53.6982C28.5392 53.6117 28.4739 53.4916 28.4557 53.3604L27.6189 47.8133C27.3767 46.2033 26.7955 44.6634 25.9139 43.296C25.0324 41.9287 23.8707 40.7652 22.5061 39.8829L21.7865 39.413C21.7058 39.3673 21.638 39.3017 21.5897 39.2224C21.5414 39.1431 21.5141 39.0527 21.5103 38.9598C21.5086 38.8665 21.5308 38.7743 21.5747 38.692C21.6187 38.6097 21.6829 38.5401 21.7614 38.4899L22.5061 38.0115Z" fill="#FEDB5E"/>
<path d="M78.9975 109.905C77.9097 110.048 76.8219 110.149 75.7341 110.232C75.073 110.837 73.2237 112.07 68.5294 113.656C68.3397 113.713 68.1633 113.808 68.0107 113.934C67.8581 114.061 67.7323 114.217 67.6408 114.393C67.5493 114.569 67.4939 114.762 67.478 114.96C67.462 115.158 67.4858 115.357 67.5479 115.545C67.61 115.734 67.7092 115.908 67.8396 116.057C67.97 116.207 68.1289 116.329 68.307 116.415C68.4851 116.502 68.6787 116.552 68.8765 116.563C69.0742 116.573 69.272 116.544 69.4582 116.476C77.6503 113.732 79.19 111.407 78.9975 109.905Z" fill="#D8529B"/>
<path d="M75.8872 97.171C79.7937 95.66 81.1906 89.8324 79.0071 84.1545C76.8237 78.4767 71.8867 75.0988 67.9802 76.6098C64.0736 78.1208 62.6768 83.9485 64.8602 89.6263C67.0437 95.3041 71.9806 98.682 75.8872 97.171Z" fill="url(#paint3_linear_1835_37536)"/>
<path d="M71.5252 82.0355C70.111 79.5935 66.5045 77.5878 62.8645 76.8661C57.0873 75.8339 51.1402 76.364 45.6351 78.4018C43.6237 79.1871 41.923 80.6096 40.7917 82.4531C39.6604 84.2966 39.1603 86.4602 39.3675 88.6148C39.9031 92.9535 41.5097 95.4039 42.3967 98.8195C42.9239 100.85 43.7188 103.259 44.5472 105.533C46.8149 111.844 52.5469 117.492 61.2829 115.696C63.6761 115.201 69.5085 114.118 73.3996 111.97C78.119 109.351 78.6964 103.754 76.9475 99.5915L72.8473 89.7981C72.6944 89.489 72.6474 89.138 72.7134 88.7995C73.2229 86.6176 72.8784 84.3228 71.7511 82.388L71.5252 82.0355Z" fill="#7393F9"/>
<path d="M131.43 66.5271C132.248 66.0341 132.837 65.2355 133.068 64.307C133.298 63.3785 133.152 62.3961 132.661 61.5759L132.602 61.4752C132.326 61.0483 131.963 60.6845 131.538 60.4075C131.112 60.1305 130.633 59.9464 130.132 59.8672C129.631 59.7881 129.118 59.8156 128.628 59.9481C128.139 60.0805 127.682 60.3149 127.288 60.636C120.485 66.1243 103.239 82.7908 91.1226 103.544C91.1226 103.511 115.071 77.7304 131.43 66.5271Z" fill="#83ED90"/>
<path d="M94.093 108.798C93.8587 108.899 117.607 94.8338 136.853 87.944C137.318 87.7776 137.816 87.7209 138.307 87.7783C138.798 87.8357 139.269 88.0056 139.684 88.275C140.099 88.5444 140.447 88.9059 140.7 89.3317C140.954 89.7574 141.106 90.2359 141.145 90.7301C141.212 91.1253 141.197 91.5298 141.103 91.9193C141.009 92.3087 140.837 92.675 140.598 92.9958C140.358 93.3167 140.056 93.5855 139.71 93.786C139.365 93.9866 138.982 94.1146 138.585 94.1624C123.363 97.7531 108.478 102.65 94.093 108.798Z" fill="#83ED90"/>
<path d="M122.586 122.435C122.963 122.581 123.368 122.644 123.772 122.62C124.177 122.596 124.571 122.485 124.929 122.295C125.286 122.105 125.599 121.84 125.846 121.518C126.093 121.196 126.268 120.825 126.36 120.429C126.436 120.062 126.44 119.684 126.37 119.316C126.299 118.948 126.157 118.598 125.951 118.286C125.744 117.973 125.478 117.705 125.168 117.497C124.857 117.289 124.509 117.144 124.142 117.072C114.751 115.339 105.238 114.354 95.6914 114.127C95.6914 114.127 105.917 116.737 122.586 122.435Z" fill="#83ED90"/>
</g>
<defs>
<linearGradient id="paint0_linear_1835_37536" x1="68.6037" y1="91.6234" x2="69.4074" y2="85.9562" gradientUnits="userSpaceOnUse">
<stop stop-color="#718CF6"/>
<stop offset="1" stop-color="#4C70E0"/>
</linearGradient>
<linearGradient id="paint1_linear_1835_37536" x1="73.7341" y1="32.2465" x2="77.8999" y2="79.6926" gradientUnits="userSpaceOnUse">
<stop offset="0.67" stop-color="#718CF6"/>
<stop offset="0.78" stop-color="#6986F1"/>
<stop offset="0.96" stop-color="#5275E4"/>
<stop offset="1" stop-color="#4C70E0"/>
</linearGradient>
<linearGradient id="paint2_linear_1835_37536" x1="69.9267" y1="124.6" x2="72.9728" y2="107.365" gradientUnits="userSpaceOnUse">
<stop offset="0.2" stop-color="#FF78B9"/>
<stop offset="0.45" stop-color="#F973B5"/>
<stop offset="0.79" stop-color="#E964AA"/>
<stop offset="1" stop-color="#DB58A0"/>
</linearGradient>
<linearGradient id="paint3_linear_1835_37536" x1="76.4767" y1="78.9979" x2="67.3645" y2="94.7434" gradientUnits="userSpaceOnUse">
<stop stop-color="#7393F9"/>
<stop offset="1" stop-color="#4C70E0"/>
</linearGradient>
<clipPath id="clip0_1835_37536">
<rect width="280" height="168" rx="8" fill="white"/>
</clipPath>
</defs>
</svg>
