<svg height="192" viewBox="0 0 294 192" width="294" xmlns="http://www.w3.org/2000/svg" xmlns:xlink="http://www.w3.org/1999/xlink"><mask id="a" fill="#fff"><path d="m0 175.313v-174.501h293.368v174.501z" fill="#fff" fill-rule="evenodd"/></mask><mask id="b" fill="#fff"><path d="m.108 110h178.745v-109.253h-178.745z" fill="#fff" fill-rule="evenodd"/></mask><g fill="none" fill-rule="evenodd"><path d="m227.4617 24.1086c0 12.865 10.43 23.296 23.296 23.296h3.443c21.632 0 39.167 17.535 39.167 39.167s-17.535 39.168-39.167 39.168h-15.96c-13.689 0-24.786 11.098-24.786 24.786 0 13.689-11.097 24.787-24.787 24.787h-152.923c-19.741 0-35.745-16.004-35.745-35.745s16.004-35.745 35.745-35.745h8.455c10.883 0 19.706-8.822 19.706-19.706s-8.823-19.706-19.707-19.706l-4.459.001c-17.037.001-30.848-13.81-30.848-30.847v-.798c0-17.719 14.232-31.956 31.795-31.955 40.274.001 127.741.001 163.483.001 12.866 0 23.292 10.43 23.292 23.296" fill="#f7f7f8" fill-opacity=".9" mask="url(#a)" transform="translate(0 .189)"/><path d="m236.6297 55.0887h-34.022c-.604 0-1.093.489-1.093 1.093v13.929c0 3.314 2.686 6 6 6h24.208c3.314 0 6-2.686 6-6v-13.929c0-.604-.489-1.093-1.093-1.093m-77.686 51.3232h-12.999l6.253 3.609c1.752-1.088 4.082-2.351 6.746-3.609m17.5937 15.2813c-.85.374-1.631.72-2.324 1.039l8.062 4.655h21.484c.604 0 1.093-.49 1.093-1.093v-12.882c0-3.315-2.686-6-6-6h-.789c-.552 0-1-.448-1-1h-4.875c.054.178.117.348.162.535 1.697 7.036-8.84 11.676-15.813 14.746" fill="#dcddde"/><path d="m175.7313 119.8631c5.977-2.632 15.979-7.036 14.674-12.447-.085-.356-.196-.686-.32-1.004h-26.253c-3.755 1.54-7.173 3.255-9.676 4.74l17.964 10.372c.965-.492 2.195-1.038 3.611-1.661m-59.5415-12.4512h-5.196c-3.313 0-6 2.686-6 6v10.615l24.661-14.448v-3.167h-12.465c0 .553-.448 1-1 1m-63.1675-52.3232h-7.013c-.604 0-1.093.489-1.093 1.093v18.836c0 .603.49 1.093 1.094 1.093h60.601c2.762 0 5-2.239 5-5v-11.022c0-2.762-2.238-5-5-5h-45c-.552 0-1-.447-1-1v-.001h-6.589v.001c0 .553-.448 1-1 1" fill="#dcddde"/><g fill="#f7f7f8"><path d="m33.371 136.414-2.204 1.425.977.564 2.32-1.359z"/><path d="m30.134 140.531 1.079.622v-.978l-1.036-.598z"/><path d="m33.213 144.408 5.177 2.989v-3.154l-5.177-2.989z"/><path d="m40.39 147.3836 2.28-1.335c-.168-.084-.335-.162-.503-.248-.491-.253-.685-.855-.432-1.347.252-.491.854-.684 1.346-.432.412.211.822.394 1.232.591v-2.671l-3.923 2.297z"/><path d="m38.139 137.21-3.937 2.307 5.184 2.992 3.938-2.307z"/></g><path d="m151.629 187.444 45.978-26.936v-20.792l-45.978 26.936z" fill="#dcddde"/><path d="m159.9246 134.2439c0-.002.001-.003.001-.004.001-1.72 1.088-3.292 3.06-4.431 3.746-2.162 9.614-2.162 13.361 0 1.974 1.14 3.06 2.714 3.06 4.435v6.798c.001 1.721-1.086 3.296-3.06 4.435-1.873 1.081-4.277 1.622-6.68 1.622-2.405 0-4.808-.541-6.681-1.622-1.974-1.139-3.061-2.713-3.061-4.434zm-19.627 17.291c-.44.258-.932.387-1.422.387-.483 0-.965-.125-1.395-.373l-5.122-2.957c-.871-.504-1.394-1.406-1.397-2.411-.004-1.007.513-1.913 1.381-2.421.873-.512 1.949-.514 2.817-.014l5.122 2.957c.872.504 1.394 1.405 1.397 2.411.004 1.007-.513 1.912-1.381 2.421zm-12.232-7.104c-.44.257-.932.386-1.423.386-.483 0-.964-.125-1.395-.373l-5.121-2.957c-.872-.504-1.394-1.405-1.398-2.411-.003-1.007.513-1.912 1.382-2.421.872-.512 1.949-.514 2.817-.014l5.122 2.957c.871.504 1.394 1.406 1.397 2.412s-.513 1.912-1.381 2.421zm12.331-38.631v9.982c2.27.454 4.406 1.193 6.218 2.239 3.442 1.988 5.016 4.639 4.755 7.24 1.248.268 2.43.681 3.449 1.27 1.973 1.14 3.06 2.714 3.06 4.435v6.798c0 1.721-1.087 3.295-3.06 4.435-1.873 1.082-4.278 1.623-6.681 1.623-2.404 0-4.808-.541-6.681-1.623-1.973-1.14-3.06-2.715-3.06-4.434v-3.797c-5.234.632-10.897-.219-14.96-2.565-6.401-3.695-6.401-9.686 0-13.382 1.813-1.046 3.949-1.785 6.218-2.239v-3.885l-35.175 20.609 56.146 32.416 45.992-26.945-55.955-32.305c-.089.043-.176.087-.266.128z" fill="#f7f7f8"/><path d="m93.49 155.046 56.14 32.411v-20.801l-56.14-32.411z" fill="#dcddde"/><path d="m123.4369 131.4031c4.063 2.346 9.726 3.197 14.959 2.564v-3.001c0-.543.121-1.069.331-1.574-3.787.808-8.204.339-11.246-1.417-4.167-2.405-4.167-6.305 0-8.712.664-.382 1.4-.698 2.174-.96v-2.521c-2.269.454-4.406 1.193-6.218 2.239-6.401 3.695-6.401 9.687 0 13.382m21.8989-6.2168c1.974-.362 4.084-.345 6.034.074.26-2.6-1.313-5.252-4.755-7.239-1.812-1.046-3.948-1.785-6.218-2.239v2.521c.774.262 1.51.577 2.174.961 2.78 1.605 3.694 3.874 2.765 5.922" fill="#dcddde"/><path d="m131.6551 106.5144v15.077c0 1.256 1.022 2.277 2.278 2.277h2.185c1.256 0 2.278-1.021 2.278-2.277v-15.077c-1.077.29-2.203.459-3.37.459s-2.294-.169-3.371-.459" fill="#dcddde"/><path d="m146.0448 93.9539c0-6.075-4.943-11.019-11.019-11.019s-11.019 4.944-11.019 11.019c0 6.076 4.943 11.02 11.019 11.02s11.019-4.944 11.019-11.02" fill="#fff"/><path d="m163.9852 143.7449c3.079 1.777 8.282 1.777 11.361 0 1.329-.767 2.061-1.727 2.061-2.703v-3.098c-.321.259-.668.508-1.06.735-1.873 1.081-4.277 1.622-6.681 1.622s-4.808-.541-6.681-1.622c-.393-.228-.74-.476-1.061-.735v3.099c0 .975.732 1.935 2.061 2.702" fill="#f7f7f8"/><path d="m163.9852 136.9461c3.079 1.777 8.283 1.777 11.362 0 1.328-.767 2.06-1.727 2.06-2.702 0-.976-.732-1.936-2.06-2.702-1.54-.889-3.611-1.333-5.681-1.333-2.071 0-4.141.444-5.681 1.333-1.329.766-2.06 1.726-2.06 2.702 0 .975.731 1.935 2.06 2.702" fill="#fff"/><path d="m148.1375 137.0232c-2.404 0-4.808-.541-6.681-1.622-.392-.228-.739-.476-1.06-.734v3.097c0 .976.731 1.936 2.06 2.702 3.078 1.78 8.281 1.78 11.362 0 1.329-.766 2.06-1.726 2.06-2.703v-3.096c-.321.258-.668.506-1.06.734-1.873 1.081-4.277 1.622-6.681 1.622" fill="#f7f7f8"/><path d="m142.4564 128.2635c-1.329.767-2.06 1.727-2.06 2.702 0 .976.731 1.936 2.06 2.703 3.08 1.778 8.282 1.78 11.362 0 1.328-.767 2.06-1.727 2.06-2.703 0-.975-.732-1.935-2.06-2.702-1.54-.889-3.611-1.334-5.681-1.334-2.071 0-4.141.445-5.681 1.334" fill="#fff"/><path d="m127.0492 141.3308-5.121-2.957c-.123-.071-.26-.106-.398-.106-.139 0-.277.036-.401.108-.363.213-.401.556-.4.693 0 .138.04.48.397.686l5.121 2.957c.247.143.554.142.8-.003.363-.212.4-.555.399-.692 0-.138-.04-.48-.397-.686m12.2324 7.1045-5.121-2.957c-.123-.071-.26-.106-.398-.106-.139 0-.278.036-.402.109-.363.212-.4.555-.399.692 0 .138.04.48.397.686l5.121 2.957c.247.144.553.142.8-.002.362-.213.4-.556.399-.693 0-.138-.04-.48-.397-.686" fill="#f7f7f8"/><path d="m165.6278 56.0725c1.333.765 1.34 2.683.014 3.459l-36.493 21.379c-4.033 2.363-9.023 2.379-13.071.042l-46.62-26.916c-1.329-.768-1.335-2.683-.011-3.458l30.703-17.987c.666-.391 1.505.089 1.505.862v2.14 2.521c-.774.262-1.509.577-2.173.961-4.167 2.405-4.167 6.306 0 8.711 3.041 1.756 7.458 2.224 11.245 1.417.456-1.095 1.379-2.081 2.73-2.861 1.134-.656 2.473-1.087 3.879-1.345.929-2.048.015-4.318-2.765-5.922-.664-.384-1.4-.699-2.174-.961v-2.521-8.283c0-.764.823-1.246 1.489-.87 7.526 4.263 41.423 23.71 51.742 29.632zm3.979 6.944v15.583c0 1.066-.564 2.05-1.483 2.589l-39.978 23.42c-2 1.172-4.517-.27-4.517-2.588v-13.838c0-1.065.565-2.05 1.484-2.589l41.484-24.302c1.333-.782 3.01.18 3.01 1.725zm-47.978 39.055c0 2.31-2.5 3.753-4.5 2.598l-50.139-28.948c-.928-.535-1.5-1.525-1.5-2.597v-15.605c0-1.54 1.667-2.502 3-1.732l51.139 29.524c1.238.715 2 2.035 2 3.465zm-11.232-60.392c0 1.105-.895 2-2 2h-2.742c-1.104 0-2-.895-2-2v-14.114c0-.62.558-1.088 1.168-.978.716.127 1.451.197 2.203.197s1.487-.07 2.203-.197c.61-.11 1.168.358 1.168.978zm-14.39-27.915c0-6.075 4.943-11.018 11.019-11.018s11.019 4.943 11.019 11.018c0 6.077-4.943 11.02-11.019 11.02s-11.019-4.943-11.019-11.02zm31.668 16.331c2.293-1.262 5.114-2.625 8.157-3.873 7.684-3.152 16.757-5.564 22.178-3.735 2.028.685 3.366 1.915 4.075 3.735.124.319.235.649.321 1.004 1.305 5.411-8.698 9.816-14.674 12.448l-.042.018c-2.288 1.007-4.917.863-7.082-.386l-12.941-7.471c-.673-.389-.673-1.365.008-1.74zm-111.362 34.328c-.41-.196-.82-.38-1.231-.591-.493-.252-1.095-.059-1.347.432-.253.492-.059 1.094.433 1.347.168.086.335.164.502.247l-.774.454c-.667.391-1.506-.09-1.506-.862v-.827c0-.356.189-.684.495-.864l1.923-1.125c.666-.391 1.505.089 1.505.862zm-5.934-2.686-2.687-1.551c-.665-.384-.668-1.342-.006-1.728l1.45-.85c.621-.363 1.388-.366 2.011-.007l2.688 1.551c.664.384.667 1.342.005 1.73l-1.45.849c-.62.363-1.388.365-2.011.006zm.011 3.738c0 .77-.833 1.251-1.5.867l-3.177-1.835c-.309-.179-.5-.509-.5-.866v-.844c0-.77.833-1.251 1.5-.867l3.177 1.834c.31.18.5.51.5.867zm-7.222-7.826 2.203-1.425 1.093.63-2.32 1.36zm.045 3.315-1.079-.622.043-.955 1.036.598zm169.64-35.742h-2.789c-.553 0-1 .448-1 1 0 .553.447 1 1 1h.789c3.314 0 6 2.687 6 6v12.883c0 .604-.489 1.093-1.093 1.093h-16.929c-2.984 0-5.915-.786-8.5-2.277l-1.948-1.125c-.907-.525-.835-1.857.124-2.279l.031-.013c6.972-3.071 17.509-7.71 15.812-14.746-.045-.187-.107-.357-.161-.536-.828-2.764-2.681-4.665-5.54-5.629-7.086-2.393-19.115 1.573-27.705 5.629-2.35 1.11-4.441 2.224-6.103 3.218-.401.24-.894.247-1.299.014l-5.597-3.232-.872-.504c-1.112-.642-1.393-2.168-.518-3.109 2.726-2.928 4.126-7.101 3.211-11.571-1.048-5.121-5.228-9.172-10.375-10.082-8.215-1.455-15.384 4.855-15.384 12.808 0 4.87 2.692 9.114 6.663 11.345.616.347.985 1.011.985 1.719v1.415c0 .71-.376 1.367-.988 1.725l-20.662 12.105c-1.333.781-3.011-.18-3.011-1.726v-7.125c0-3.313 2.687-6 6-6h5.196c.552 0 1-.447 1-1 0-.552-.448-1-1-1h-7.196c-3.313 0-6 2.687-6 6v13.787l-11.01 6.451c-.003.002-.005.006-.009.008-.099.06-.181.138-.252.226-.019.023-.036.044-.053.068-.064.094-.117.194-.146.305-.001.006-.001.012-.002.018-.019.077-.032.156-.032.238v9.566c-3.162 1.84-22.61 12.244-43.921 3.947-.761-.296-1.256-1.046-1.256-1.863v-3.966-.002-.001c0-.121-.029-.236-.071-.346-.01-.026-.019-.05-.031-.075-.05-.107-.114-.206-.199-.289-.001-.002-.002-.004-.003-.005-.006-.006-.014-.008-.02-.014-.054-.05-.111-.098-.176-.135l-7.178-4.144c-.311-.179-.694-.178-1.005.004l-.177.103c-.62.364-1.388.366-2.011.007l-1.601-.924c-.324-.187-.727-.177-1.043.027l-4.09 2.645c-.027.018-.047.041-.072.061-.033.026-.067.051-.096.082-.03.03-.055.064-.08.097-.026.034-.052.067-.073.104-.021.036-.035.074-.051.112-.017.04-.034.079-.045.12-.012.041-.016.082-.022.124-.005.033-.016.062-.017.095l-.143 3.206c-.017.373.176.725.499.911l1.605.926c.619.357 1 1.018 1 1.732v.368c0 .357.191.687.5.866l7.177 4.144c.155.089.327.134.5.134.175 0 .35-.046.506-.138l2.42-1.418c1.574-.922 3.476-1.057 5.184-.42 5.929 2.209 11.709 3.043 17.051 3.043 12.859 0 23.177-4.813 26.939-6.832v11.258c0 .358.191.688.5.867l58.139 33.566c.002.001.004.001.006.002.053.029.11.049.166.068.025.009.049.024.075.031.064.016.13.021.197.025.019.001.037.008.056.008h.001c.124 0 .247-.032.366-.079.045-.018.091-.031.133-.055.001-.001.002-.002.002-.002.002 0 .003-.001.004-.001l47.978-28.107c.307-.18.494-.509.494-.864v-23.11c0-.086-.012-.17-.033-.252-.001-.003 0-.006-.001-.009-.03-.11-.084-.21-.148-.303-.017-.025-.035-.047-.055-.071-.071-.086-.153-.164-.252-.222-.004-.002-.006-.007-.011-.009l-13.367-7.718h18.02c1.708 0 3.093-1.385 3.093-3.094v-14.882c0-3.313-2.686-6-6-6z" fill="#b9bbbe" mask="url(#b)" transform="translate(28 80.189)"/><path d="m71.8065 108.5047v15.883c0 1.656-1.343 3-3 3h-12.89c-1.657 0-3-1.344-3-3v-15.883c0-.604.489-1.093 1.093-1.093h16.704c.604 0 1.093.489 1.093 1.093m-20.89 0v17.79c0 1.705 1.387 3.093 3.093 3.093h16.704c1.706 0 3.093-1.388 3.093-3.093v-17.79c0-1.705-1.387-3.093-3.093-3.093h-16.704c-1.706 0-3.093 1.388-3.093 3.093m111.1243-18.0518c-1.156 0-2.093.937-2.093 2.093s.937 2.093 2.093 2.093 2.093-.937 2.093-2.093-.937-2.093-2.093-2.093m10.4644 4.1856c1.156 0 2.093-.937 2.093-2.093s-.937-2.093-2.093-2.093-2.093.937-2.093 2.093.937 2.093 2.093 2.093m-33.4868-54.4161c0 1.155.937 2.093 2.093 2.093s2.093-.938 2.093-2.093c0-1.156-.937-2.093-2.093-2.093s-2.093.937-2.093 2.093m14.6504 0c0-1.156-.937-2.093-2.093-2.093s-2.093.937-2.093 2.093c0 1.155.937 2.093 2.093 2.093s2.093-.938 2.093-2.093m10.4648 0c0-1.156-.937-2.093-2.093-2.093s-2.093.937-2.093 2.093c0 1.155.937 2.093 2.093 2.093s2.093-.938 2.093-2.093m8.3716 2.0928c1.156 0 2.093-.937 2.093-2.093s-.937-2.093-2.093-2.093-2.093.937-2.093 2.093.937 2.093 2.093 2.093m10.4648 52.3233c1.156 0 2.093-.937 2.093-2.093s-.937-2.093-2.093-2.093-2.093.937-2.093 2.093.937 2.093 2.093 2.093m-52.3232-25.1153c-1.156 0-2.093.937-2.093 2.093s.937 2.094 2.093 2.094 2.093-.938 2.093-2.094-.937-2.093-2.093-2.093m0-10.4648c-1.156 0-2.093.937-2.093 2.094 0 1.155.937 2.093 2.093 2.093s2.093-.938 2.093-2.093c0-1.157-.937-2.094-2.093-2.094m0-10.4649c-1.156 0-2.093.937-2.093 2.094 0 1.155.937 2.093 2.093 2.093s2.093-.938 2.093-2.093c0-1.157-.937-2.094-2.093-2.094m-104.647 31.3946c-1.156 0-2.093.937-2.093 2.093s.937 2.093 2.093 2.093 2.093-.937 2.093-2.093-.937-2.093-2.093-2.093m0-10.4649c-1.156 0-2.093.937-2.093 2.093s.937 2.094 2.093 2.094 2.093-.938 2.093-2.094-.937-2.093-2.093-2.093m0-10.4648c-1.156 0-2.093.937-2.093 2.094 0 1.155.937 2.093 2.093 2.093s2.093-.938 2.093-2.093c0-1.157-.937-2.094-2.093-2.094m0-10.4649c-1.156 0-2.093.937-2.093 2.094 0 1.155.937 2.093 2.093 2.093s2.093-.938 2.093-2.093c0-1.157-.937-2.094-2.093-2.094m156.9702 35.5801c1.156 0 2.093-.937 2.093-2.093 0-1.155-.937-2.093-2.093-2.093s-2.093.938-2.093 2.093c0 1.156.937 2.093 2.093 2.093m0-10.4638c1.156 0 2.093-.937 2.093-2.094 0-1.155-.937-2.093-2.093-2.093s-2.093.938-2.093 2.093c0 1.157.937 2.094 2.093 2.094m0-10.4649c1.156 0 2.093-.937 2.093-2.093s-.937-2.094-2.093-2.094-2.093.938-2.093 2.094.937 2.093 2.093 2.093m0-10.4648c1.156 0 2.093-.937 2.093-2.093s-.937-2.094-2.093-2.094-2.093.938-2.093 2.094.937 2.093 2.093 2.093m73.2525 27.208c-1.156 0-2.093.937-2.093 2.093s.937 2.093 2.093 2.093 2.093-.937 2.093-2.093-.937-2.093-2.093-2.093m0-10.4649c-1.156 0-2.093.937-2.093 2.093s.937 2.094 2.093 2.094 2.093-.938 2.093-2.094-.937-2.093-2.093-2.093m0-10.4648c-1.156 0-2.093.937-2.093 2.094 0 1.155.937 2.093 2.093 2.093s2.093-.938 2.093-2.093c0-1.157-.937-2.094-2.093-2.094m0-10.4649c-1.156 0-2.093.937-2.093 2.094 0 1.155.937 2.093 2.093 2.093s2.093-.938 2.093-2.093c0-1.157-.937-2.094-2.093-2.094m-190.4565-8.3711c0 1.155.937 2.093 2.093 2.093s2.093-.938 2.093-2.093c0-1.156-.937-2.093-2.093-2.093s-2.093.937-2.093 2.093m10.4643 0c0 1.155.937 2.093 2.093 2.093s2.093-.938 2.093-2.093c0-1.156-.937-2.093-2.093-2.093s-2.093.937-2.093 2.093m10.4649 0c0 1.155.937 2.093 2.093 2.093s2.093-.938 2.093-2.093c0-1.156-.937-2.093-2.093-2.093s-2.093.937-2.093 2.093m12.5576 2.0928c1.156 0 2.093-.937 2.093-2.093s-.937-2.093-2.093-2.093-2.093.937-2.093 2.093.937 2.093 2.093 2.093m10.4648 0c1.156 0 2.093-.937 2.093-2.093s-.937-2.093-2.093-2.093-2.093.937-2.093 2.093.937 2.093 2.093 2.093m10.4644 0c1.156 0 2.093-.937 2.093-2.093s-.937-2.093-2.093-2.093-2.093.937-2.093 2.093.937 2.093 2.093 2.093m10.4648-4.1855c-1.156 0-2.093.937-2.093 2.093 0 1.155.937 2.093 2.093 2.093s2.093-.938 2.093-2.093c0-1.156-.937-2.093-2.093-2.093m-75.3457 2.0927c0 1.155.937 2.093 2.093 2.093s2.093-.938 2.093-2.093c0-1.156-.937-2.093-2.093-2.093s-2.093.937-2.093 2.093m-8.3716 2.0928c1.156 0 2.093-.937 2.093-2.093s-.937-2.093-2.093-2.093-2.093.937-2.093 2.093.937 2.093 2.093 2.093m-10.4648-4.1855c-1.156 0-2.093.937-2.093 2.093 0 1.155.937 2.093 2.093 2.093s2.093-.938 2.093-2.093c0-1.156-.937-2.093-2.093-2.093m-10.4649 0c-1.156 0-2.093.937-2.093 2.093 0 1.155.937 2.093 2.093 2.093s2.093-.938 2.093-2.093c0-1.156-.937-2.093-2.093-2.093m190.4571 2.0927c0-1.156-.937-2.093-2.093-2.093s-2.093.937-2.093 2.093c0 1.155.937 2.093 2.093 2.093s2.093-.938 2.093-2.093m10.4648 0c0-1.156-.937-2.093-2.093-2.093s-2.093.937-2.093 2.093c0 1.155.937 2.093 2.093 2.093s2.093-.938 2.093-2.093m10.4644 0c0-1.156-.937-2.093-2.093-2.093s-2.093.937-2.093 2.093c0 1.155.937 2.093 2.093 2.093s2.093-.938 2.093-2.093m8.372-2.0927c-1.156 0-2.093.937-2.093 2.093 0 1.155.937 2.093 2.093 2.093s2.093-.938 2.093-2.093c0-1.156-.937-2.093-2.093-2.093m10.4644 0c-1.156 0-2.093.937-2.093 2.093 0 1.155.937 2.093 2.093 2.093s2.093-.938 2.093-2.093c0-1.156-.937-2.093-2.093-2.093m-50.23 2.0927c0-1.156-.937-2.093-2.093-2.093s-2.093.937-2.093 2.093c0 1.155.937 2.093 2.093 2.093s2.093-.938 2.093-2.093m-12.5576 2.0928c1.156 0 2.093-.937 2.093-2.093s-.937-2.093-2.093-2.093-2.093.937-2.093 2.093.937 2.093 2.093 2.093m-10.4649 0c1.156 0 2.093-.937 2.093-2.093s-.937-2.093-2.093-2.093-2.093.937-2.093 2.093.937 2.093 2.093 2.093m-73.2524-10.4648c1.156 0 2.093-.937 2.093-2.093s-.937-2.093-2.093-2.093-2.093.937-2.093 2.093.937 2.093 2.093 2.093m0-10.4649c1.156 0 2.093-.937 2.093-2.093s-.937-2.093-2.093-2.093-2.093.937-2.093 2.093.937 2.093 2.093 2.093m73.2524 10.4649c1.156 0 2.093-.937 2.093-2.093s-.937-2.093-2.093-2.093-2.093.937-2.093 2.093.937 2.093 2.093 2.093m0-10.4649c1.156 0 2.093-.937 2.093-2.093s-.937-2.093-2.093-2.093-2.093.937-2.093 2.093.937 2.093 2.093 2.093m-73.2524-10.4648c1.156 0 2.093-.937 2.093-2.093 0-1.155-.937-2.093-2.093-2.093s-2.093.938-2.093 2.093c0 1.156.937 2.093 2.093 2.093m73.2524 0c1.156 0 2.093-.937 2.093-2.093 0-1.155-.937-2.093-2.093-2.093s-2.093.938-2.093 2.093c0 1.156.937 2.093 2.093 2.093m10.4649 83.7178c1.156 0 2.093-.937 2.093-2.093s-.937-2.093-2.093-2.093-2.093.937-2.093 2.093.937 2.093 2.093 2.093m15.5571 1.0937c-1.756 0-3.186-1.43-3.186-3.187 0-1.756 1.43-3.185 3.186-3.185 1.757 0 3.186 1.429 3.186 3.185 0 1.757-1.429 3.187-3.186 3.187m0-8.372c-2.859 0-5.186 2.326-5.186 5.185 0 2.86 2.327 5.187 5.186 5.187s5.186-2.327 5.186-5.187c0-2.859-2.327-5.185-5.186-5.185m15.8369 3.0927c-1.156 0-2.093.937-2.093 2.093s.937 2.093 2.093 2.093 2.093-.937 2.093-2.093-.937-2.093-2.093-2.093m0 10.4649c-1.156 0-2.093.937-2.093 2.093s.937 2.093 2.093 2.093 2.093-.937 2.093-2.093-.937-2.093-2.093-2.093m0 10.4648c-1.156 0-2.093.937-2.093 2.093s.937 2.093 2.093 2.093 2.093-.937 2.093-2.093-.937-2.093-2.093-2.093m0 10.4648c-1.156 0-2.093.937-2.093 2.093 0 1.155.937 2.093 2.093 2.093s2.093-.938 2.093-2.093c0-1.156-.937-2.093-2.093-2.093m10.4644-31.3945c-1.156 0-2.093.937-2.093 2.093s.937 2.093 2.093 2.093 2.093-.937 2.093-2.093-.937-2.093-2.093-2.093m-127.6689 2.0928c0 1.156.937 2.093 2.093 2.093s2.093-.937 2.093-2.093-.937-2.093-2.093-2.093-2.093.937-2.093 2.093m-10.4644 0c0 1.156.937 2.093 2.093 2.093s2.093-.937 2.093-2.093-.937-2.093-2.093-2.093-2.093.937-2.093 2.093m-8.3721-2.0928c-1.156 0-2.093.937-2.093 2.093s.937 2.093 2.093 2.093 2.093-.937 2.093-2.093-.937-2.093-2.093-2.093m177.8994 0c-1.156 0-2.093.937-2.093 2.093s.937 2.093 2.093 2.093 2.093-.937 2.093-2.093-.937-2.093-2.093-2.093m-10.4648 0c-1.156 0-2.093.937-2.093 2.093s.937 2.093 2.093 2.093 2.093-.937 2.093-2.093-.937-2.093-2.093-2.093m-10.4644 0c-1.156 0-2.093.937-2.093 2.093s.937 2.093 2.093 2.093 2.093-.937 2.093-2.093-.937-2.093-2.093-2.093m-230.3759.1533c-1.156 0-2.093.937-2.093 2.093s.937 2.093 2.093 2.093 2.093-.937 2.093-2.093-.937-2.093-2.093-2.093m10.4648 0c-1.156 0-2.093.937-2.093 2.093s.937 2.093 2.093 2.093 2.093-.937 2.093-2.093-.937-2.093-2.093-2.093m10.4644 4.1856c1.156 0 2.093-.937 2.093-2.093s-.937-2.093-2.093-2.093-2.093.937-2.093 2.093.937 2.093 2.093 2.093m8.372-2.0928c0 1.156.937 2.093 2.093 2.093s2.093-.937 2.093-2.093-.937-2.093-2.093-2.093-2.093.937-2.093 2.093m44.1045 8.2188c-1.156 0-2.093.937-2.093 2.093s.937 2.093 2.093 2.093 2.093-.937 2.093-2.093-.937-2.093-2.093-2.093m0 10.4648c-1.156 0-2.093.937-2.093 2.093s.937 2.093 2.093 2.093 2.093-.937 2.093-2.093-.937-2.093-2.093-2.093m0 10.4648c-1.156 0-2.093.937-2.093 2.093 0 1.155.937 2.093 2.093 2.093s2.093-.938 2.093-2.093c0-1.156-.937-2.093-2.093-2.093m-52.3232-20.9296c-1.156 0-2.093.937-2.093 2.093s.937 2.093 2.093 2.093 2.093-.937 2.093-2.093-.937-2.093-2.093-2.093m0 10.4648c-1.156 0-2.093.937-2.093 2.093s.937 2.093 2.093 2.093 2.093-.937 2.093-2.093-.937-2.093-2.093-2.093m0 10.4648c-1.156 0-2.093.937-2.093 2.093 0 1.155.937 2.093 2.093 2.093s2.093-.938 2.093-2.093c0-1.156-.937-2.093-2.093-2.093m22.8691-29.1484c0-1.156-.937-2.093-2.093-2.093s-2.093.937-2.093 2.093.937 2.093 2.093 2.093 2.093-.937 2.093-2.093m20.689 3.0352-5.071-2.506c-.65-.32-.753-1.204-.196-1.666l4.36-3.612c.464-.385.494-1.098.051-1.505-1.722-1.58-4.112-2.441-6.698-2.108-3.711.478-6.705 3.527-7.125 7.245-.565 5.005 3.335 9.244 8.225 9.244 2.855 0 5.366-1.448 6.853-3.647.335-.496.138-1.18-.399-1.445m-37.1065-39.5528v18.836c0 1.708 1.385 3.094 3.094 3.094h62.601c2.762 0 5-2.24 5-5v-15.023c0-2.761-2.238-5-5-5h-47c-.552 0-1 .447-1 .999v.001c0 .553.448 1 1 1h45c2.762 0 5 2.239 5 5v11.023c0 2.76-2.238 5-5 5h-60.602c-.604 0-1.093-.49-1.093-1.093v-18.837c0-.604.489-1.093 1.093-1.093h7.013c.552 0 1-.447 1-1v-.001c0-.552-.448-.999-1-.999h-7.013c-1.708 0-3.093 1.385-3.093 3.093m122.0645 12.0391c0 4.357-3.532 7.891-7.89 7.891h-.009c-4.358 0-7.891-3.534-7.891-7.891v-5.242c0-4.358 3.533-7.89 7.891-7.89h.009c4.358 0 7.89 3.532 7.89 7.89zm2 2v-9.242c0-4.358-3.532-7.89-7.89-7.89h-4.009c-4.358 0-7.891 3.532-7.891 7.89v9.242c0 4.357 3.533 7.891 7.891 7.891h4.009c4.358 0 7.89-3.534 7.89-7.891zm-34.7896-42.5557h27.79c3.866 0 7-3.135 7-7v-10.022c0-.553-.448-1-1-1-.553 0-1 .447-1 1v9.022c0 3.313-2.686 6-6 6h-25.79c-3.313 0-6-2.687-6-6v-.022c0-.553-.448-1-1-1s-1 .447-1 1v1.022c0 3.865 3.134 7 7 7m105.5313 42.4463c0 3.313-2.686 6-6 6h-24.208c-3.313 0-6-2.687-6-6v-13.93c0-.603.489-1.092 1.093-1.092h34.022c.604 0 1.093.489 1.093 1.092zm-1.093-17.022h-34.022c-1.708 0-3.093 1.384-3.093 3.092v15.93c0 3.313 2.687 6 6 6h28.208c3.314 0 6-2.687 6-6v-15.93c0-1.708-1.385-3.092-3.093-3.092zm-36.115-32.8364c.552 0 1-.447 1-1v-3.61c0-.553-.448-1-1-1s-1 .447-1 1v3.61c0 .553.448 1 1 1m48.1152 5.4121h-44.858c-1.039 0-1.878-.671-2.383-1.578-.17-.308-.498-.515-.874-.515-.552 0-1 .447-1 1 0 1.705 1.387 3.093 3.093 3.093h46.022c.552 0 1-.447 1-1s-.448-1-1-1m-213.7246 2h8.849c.552 0 1-.447 1-1s-.448-1-1-1h-8.849c-.552 0-1 .447-1 1s.448 1 1 1m15.2485 0h1.219c.552 0 1-.447 1-1s-.448-1-1-1h-1.219c-.552 0-1 .447-1 1s.448 1 1 1m5.2364 0h33.538c1.708 0 3.092-1.385 3.092-3.093v-5.929c0-.553-.447-1-1-1-.552 0-1 .447-1 1v4.022c0 1.656-1.342 3-3 3h-31.63c-.552 0-1 .447-1 1s.448 1 1 1m106.5346 110.2793c.321.259.668.507 1.061.734 1.873 1.081 4.276 1.622 6.68 1.622 2.405 0 4.808-.541 6.681-1.622.393-.226.74-.475 1.06-.734v3.098c.001.976-.731 1.936-2.06 2.703-3.079 1.777-8.282 1.777-11.361 0-1.329-.767-2.061-1.727-2.061-2.702zm2.061-6.402c1.539-.889 3.61-1.333 5.68-1.333 2.071 0 4.142.444 5.681 1.333 1.329.766 2.06 1.726 2.06 2.702 0 .975-.731 1.935-2.06 2.702-3.079 1.777-8.282 1.777-11.361 0-1.329-.767-2.061-1.727-2.061-2.702 0-.976.732-1.936 2.061-2.702zm-1 13.935c1.873 1.081 4.276 1.622 6.681 1.622 2.403 0 4.807-.541 6.68-1.622 1.974-1.139 3.061-2.715 3.06-4.435v-6.798c0-1.721-1.086-3.295-3.06-4.435-3.747-2.162-9.615-2.162-13.361 0-1.972 1.139-3.059 2.711-3.06 4.431 0 .001-.001.002-.001.004v6.799c0 1.72 1.087 3.295 3.061 4.434zm-22.5893-10.8103c.321.259.668.507 1.06.734 1.873 1.081 4.277 1.622 6.681 1.622s4.808-.541 6.681-1.622c.392-.227.739-.475 1.06-.734v3.097c0 .976-.731 1.936-2.06 2.703-3.081 1.779-8.283 1.779-11.362 0-1.329-.767-2.06-1.727-2.06-2.702zm2.06-6.403c1.54-.889 3.61-1.334 5.681-1.334s4.141.445 5.681 1.334c1.328.766 2.06 1.726 2.06 2.702 0 .975-.732 1.935-2.06 2.703-3.08 1.779-8.282 1.777-11.362 0-1.329-.768-2.06-1.728-2.06-2.703 0-.976.731-1.936 2.06-2.702zm-3.73 1.129c-.21.504-.33 1.03-.33 1.573v3.002 3.797c0 1.719 1.087 3.295 3.06 4.434 1.873 1.082 4.277 1.623 6.681 1.623s4.808-.541 6.681-1.623c1.974-1.139 3.06-2.714 3.06-4.435v-6.798c0-1.721-1.087-3.295-3.06-4.435-1.019-.589-2.201-1.002-3.448-1.27-1.951-.419-4.061-.437-6.035-.074-1.406.257-2.744.689-3.879 1.344-1.351.781-2.274 1.767-2.73 2.862zm-11.6791 13.316c-.246.146-.553.146-.8.003l-5.121-2.957c-.357-.206-.397-.548-.397-.686-.001-.137.037-.48.4-.693.124-.072.262-.108.401-.108.138 0 .275.035.398.106l5.121 2.957c.357.206.397.548.397.686.001.137-.036.48-.399.692m1.002-3.11-5.122-2.957c-.868-.5-1.944-.498-2.817.013-.868.509-1.385 1.414-1.381 2.421.003 1.006.526 1.907 1.397 2.411l5.122 2.957c.43.248.912.373 1.395.373.49 0 .982-.129 1.422-.386.868-.509 1.385-1.414 1.381-2.421-.003-1.006-.525-1.907-1.397-2.411m11.2299 10.2154c-.246.145-.552.146-.799.002l-5.121-2.957c-.358-.206-.397-.548-.398-.686 0-.137.037-.48.4-.692.124-.073.263-.109.402-.109.137 0 .275.035.397.106l5.121 2.957c.358.206.397.548.398.686 0 .137-.037.48-.4.693m1.002-3.111-5.121-2.957c-.868-.5-1.944-.498-2.818.013-.868.509-1.384 1.414-1.381 2.421.004 1.006.526 1.907 1.398 2.411l5.121 2.957c.431.248.912.373 1.395.373.491 0 .983-.128 1.422-.386.869-.509 1.385-1.414 1.382-2.421-.004-1.006-.526-1.907-1.398-2.411" fill="#b9bbbe"/><path d="m0 0h294v192h-294z"/></g></svg>