<svg height="527.02002" width="389.41" xmlns="http://www.w3.org/2000/svg"><g transform="matrix(10 0 0 -10 -4862.4 3263.28)"><path d="m486.523 326.046h38.377v-52.138h-38.377z" fill="#1b1615"/><g fill="#fff"><path d="m524.616 274.192h-37.809v51.571h37.809zm.565 52.136h-.565-37.809-.567v-.565-51.571-.566h.567 37.809.565v.566 51.571z"/><path d="m522.581 323.834h-33.723v-7.866h33.723z"/><path d="m488.922 314.025h33.663v-30.674h-33.663z"/><g><path d="m488.9595 276.6566v4.612h6.78v-1.078h-4.057v-.658h3.434v-1.077h-3.434v-.722h4.217v-1.077z"/><path d="m501.6544 279.9275c-.04.154-.192.253-.389.311-.194.06-.434.084-.705.084-.599 0-.865-.096-.865-.268 0-.682 4.78-.255 4.78-1.932 0-1.069-1.607-1.59-3.891-1.59-2.195 0-3.623.712-3.681 1.545h2.605c.061-.168.223-.286.453-.364.22-.077.506-.116.776-.116.681 0 1.135.12 1.135.339 0 .698-4.784.218-4.784 1.976 0 .981 1.523 1.472 3.605 1.472 2.302 0 3.358-.653 3.554-1.457z"/><path d="m508.5527 279.27h1.069c.845 0 1.299.121 1.299.437 0 .326-.46.483-1.099.483h-1.269zm0-1.006v-1.607h-2.722v4.612h3.921c2.769 0 3.683-.422 3.683-1.318 0-.533-.425-.976-1.396-1.13.876-.176 1.407-.286 1.407-1.217 0-.6-.033-.808.29-.808v-.139h-2.761c-.069.102-.137.397-.137.805 0 .606-.183.802-1.453.802z"/><path d="m517.8348 280.1903v-.773h1.132c.54 0 .937.141.937.404 0 .36-.536.369-1.109.369zm0-1.607v-.85h1.185c.673 0 1.181.076 1.181.421 0 .403-.631.429-1.504.429zm-2.724-1.927v4.613h3.97c1.875 0 3.362-.248 3.362-1.164 0-.475-.555-.819-1.084-1.001.895-.129 1.383-.561 1.383-1.058 0-1.028-1.418-1.39-3.581-1.39z"/></g></g><g fill="#1b1615"><path d="m489.6344 317.1413v5.31h1.548l.722-3.612h.013l.762 3.612h1.495v-5.31h-.934v4.096h-.011l-.885-4.096h-.922l-.837 4.096h-.016v-4.096z"/><path d="m494.6065 317.1413 1.275 5.31h1.27l1.246-5.31h-1.012l-.253 1.175h-1.314l-.262-1.175zm1.853 4.288h-.015l-.436-2.296h.92z"/><path d="m501.2065 322.4517v-.882h-1.07v-4.428h-.963v4.428h-1.067v.882z"/><path d="m504.7592 322.4517v-3.767c0-.202-.027-.398-.079-.593-.054-.193-.143-.367-.259-.522-.122-.154-.283-.279-.485-.374-.196-.096-.445-.144-.735-.144-.534 0-.926.147-1.184.442-.254.293-.385.69-.385 1.191v3.767h.961v-3.694c0-.327.055-.561.163-.702.111-.14.253-.209.43-.209.213 0 .368.078.464.234.099.157.149.383.149.677v3.694z"/><path d="m506.4858 317.1413h-.961v5.31h1.774c.332 0 .598-.116.789-.352.194-.236.29-.582.29-1.037 0-.339-.066-.625-.194-.862-.131-.236-.349-.383-.659-.442v-.014c.05-.009.125-.024.218-.044.092-.019.185-.064.276-.132.091-.07.17-.171.24-.306.067-.134.102-.322.102-.564 0-.082 0-.2.004-.351 0-.153.006-.31.013-.473.008-.16.019-.31.033-.448.014-.136.034-.232.055-.285h-.941c-.066.16-.096.329-.101.507-.004.175-.004.35-.004.521 0 .158 0 .307-.002.449s-.023.267-.063.372-.108.19-.204.253c-.096.064-.235.097-.416.097h-.249zm0 3.015h.428c.09 0 .172.024.233.075.065.048.115.109.152.187.04.076.065.16.081.253.015.093.023.181.023.264 0 .256-.044.436-.129.54-.089.107-.207.16-.36.16h-.428z"/><path d="m509.083 317.1413v5.31h2.509v-.816h-1.545v-1.31h1.425v-.816h-1.425v-1.553h1.597v-.815z"/><path d="m513.5919 321.6538c.163.108.318.226.466.359.147.133.28.289.395.468h.853v-5.34h-.961v4.108c-.115-.118-.236-.225-.363-.323-.126-.096-.257-.187-.39-.274z"/><path d="m518.6925 321.463-1.08-4.322h-1.002l1.219 4.513h-1.522v.827h2.385z"/><path d="m520.1782 321.4214h.707v-1.45h1.076v-.817h-1.076v-1.449h-.707v1.449h-1.082v.817h1.082z"/></g><path d="m491.1145 307.0044 9.677 2.6 5.514-12.956.047.015-1.666 13.982 9.674 2.596 6.038-22.622-5.899-1.579-4.314 16.175-.049-.02 1.831-16.832-6.38-1.717-6.804 15.502-.05-.014 4.311-16.173-5.893-1.578z" fill="#1b1615"/><path d="m519.7061 286.2836c.319.008.396.137.396.284 0 .154-.077.233-.348.233h-.405v-.517zm-.357-.317v-.865h-.338v2.016h.703c.396 0 .802-.102.802-.557 0-.231-.143-.417-.436-.474v-.006c.294-.054.333-.183.368-.4.029-.187.053-.399.128-.579h-.432c-.027.113-.06.246-.073.36-.022.173-.022.338-.121.431-.085.074-.201.065-.317.074zm1.907.117c0 .777-.672 1.406-1.514 1.406s-1.524-.629-1.524-1.406c0-.779.682-1.416 1.524-1.416s1.514.637 1.514 1.416m-3.366 0c0 .944.824 1.709 1.852 1.709 1.016 0 1.84-.765 1.84-1.709 0-.948-.824-1.716-1.84-1.716-1.028 0-1.852.768-1.852 1.716" fill="#1b1615"/></g></svg>