<svg xmlns="http://www.w3.org/2000/svg" width="272" height="212" viewBox="0 0 272 212" xmlns:xlink="http://www.w3.org/1999/xlink">
  <defs>
    <polygon id="a" points="256.121 .625 256.121 163.555 .02 163.555 .02 .625"/>
    <polygon id="c" points="181.247 .442 .607 .442 .607 204 181.247 204 181.247 .442"/>
  </defs>
  <g fill="none" fill-rule="evenodd">
    <g transform="translate(4 4)">
      <g transform="translate(7 20.558)">
        <mask id="b" fill="white">
          <use xlink:href="#a"/>
        </mask>
        <path fill="#F7F7F8" fill-opacity=".9" d="M16.1411,0.625 L127.1741,0.625 C144.2121,0.625 158.0241,14.437 158.0241,31.475 L158.0241,31.479 C158.0241,48.517 171.8361,62.329 188.8741,62.329 L205.5111,62.329 C233.4621,62.329 256.1211,84.987 256.1211,112.938 L256.1211,112.945 C256.1211,140.896 233.4621,163.555 205.5111,163.555 L35.0161,163.555 C15.6881,163.555 0.0201,147.887 0.0201,128.56 C0.0201,109.232 15.6881,93.564 35.0161,93.564 L39.3571,93.564 C57.6101,93.564 72.4071,78.768 72.4071,60.515 L72.4071,60.511 C72.4071,42.258 57.6101,27.461 39.3571,27.461 L16.1411,27.461 C8.7311,27.461 2.7231,21.453 2.7231,14.043 C2.7231,6.632 8.7311,0.625 16.1411,0.625" mask="url(#b)"/>
      </g>
      <path fill="#FFFFFF" d="M153.6944,88.8471 C153.5364,88.6941 153.3804,88.5541 153.2224,88.4061 C152.6554,88.1461 150.0054,87.0411 145.6354,86.9071 C145.0134,86.8891 144.3334,86.8941 143.6064,86.9231 C146.4204,90.1381 148.6974,93.8301 150.3004,97.8641 C153.2124,96.4781 154.3614,95.0161 154.7934,93.9411 C155.8014,91.4311 153.9004,89.0891 153.6944,88.8471"/>
      <path fill="#DCDDDE" d="M78.0513,104.9906 C79.3353,97.9336 82.5773,91.5526 87.2043,86.4416 C87.2373,86.3726 87.2543,86.2956 87.3033,86.2336 C87.5553,85.9156 93.6043,78.4086 104.9653,74.6756 C106.6863,74.1096 108.4033,73.6766 110.1113,73.3556 C109.7113,71.3776 109.7033,69.2336 110.6773,67.3956 C112.0873,64.7346 115.1973,63.3026 119.9193,63.1396 C125.0163,62.9566 128.6863,64.2736 130.8003,67.0346 C132.7953,69.6406 132.9183,72.9156 132.6833,75.1786 C135.7683,76.1816 138.7373,77.4306 141.5553,78.8326 C141.5723,78.5536 141.5863,78.2756 141.5933,77.9996 C141.8913,66.3596 134.7213,56.5006 123.7513,53.4666 C121.0203,52.7106 118.3693,52.3336 115.8033,52.3336 C108.9043,52.3336 102.6213,55.0596 97.0493,60.4876 C91.2733,66.1136 88.4643,72.6856 88.4373,72.7516 C88.3463,72.9676 88.1823,73.1436 87.9743,73.2516 C87.9253,73.2776 82.9483,75.8816 78.6943,80.2596 C73.1393,85.9736 71.3683,91.8756 73.4293,97.8026 C74.4903,100.8516 75.9683,103.2336 78.0513,104.9906"/>
      <path fill="#FFFFFF" d="M130.7241,74.5766 C130.8671,72.6906 130.6891,70.1746 129.2051,68.2426 C127.6151,66.1716 124.7951,65.1236 120.8171,65.1236 C120.5451,65.1236 120.2701,65.1286 119.9881,65.1386 C116.0331,65.2746 113.4951,66.3486 112.4441,68.3326 C111.7321,69.6776 111.7541,71.3776 112.0981,73.0326 C118.5341,72.1586 124.8211,72.8896 130.7241,74.5766"/>
      <path fill="#F7F7F8" d="M150.9634,111.766 C150.9634,102.223 147.1984,93.547 141.0864,87.127 C136.7014,87.644 130.9744,89.162 124.2074,92.888 C121.9024,94.158 118.9314,94.658 115.6794,94.658 C105.1694,94.658 91.7394,89.437 88.4294,88.08 C82.8364,94.395 79.4304,102.688 79.4304,111.766 C79.4304,131.488 95.4754,147.533 115.1964,147.533 C134.9184,147.533 150.9634,131.488 150.9634,111.766"/>
      <path fill="#DCDDDE" d="M110.8936,75.2562 C110.5526,75.3202 110.2126,75.3872 109.8776,75.4582 C109.8696,75.4602 109.8616,75.4622 109.8536,75.4642 C107.9726,75.8642 106.2016,76.3712 104.5396,76.9432 C96.7866,79.7472 91.7286,84.4152 89.7776,86.4632 C95.0206,88.5412 114.7556,95.8092 123.2426,91.1362 C134.5806,84.8922 143.2416,84.4152 148.5006,85.1092 C135.3616,76.5732 122.5396,73.2252 110.8936,75.2562"/>
      <path fill="#FFFFFF" d="M81.6348,177.5912 C83.0798,178.1932 84.0538,179.6152 84.0538,181.1962 C84.0538,183.3562 82.2978,185.1122 80.1378,185.1122 C79.0018,185.1122 77.9478,184.6152 77.2208,183.7962 C76.4938,184.6152 75.4398,185.1122 74.3038,185.1122 C72.1448,185.1122 70.3878,183.3562 70.3878,181.1962 C70.3878,179.6132 71.3618,178.1912 72.8058,177.5902 C73.5988,176.2252 75.3088,175.3352 77.2208,175.3352 C79.1328,175.3352 80.8418,176.2252 81.6348,177.5912 M63.6098,171.5022 C52.8868,171.5022 52.8868,166.0512 52.8868,160.7792 C52.8868,154.8672 57.6978,150.0572 63.6098,150.0572 C69.5218,150.0572 74.3318,154.8672 74.3318,160.7792 C74.3318,166.0512 74.3318,171.5022 63.6098,171.5022 M88.2738,138.3442 C87.0118,138.3442 85.7768,138.1312 84.6148,137.7312 C78.6978,141.9982 71.4448,144.5222 63.6098,144.5222 C60.6518,144.5222 57.7798,144.1552 55.0278,143.4802 C50.0188,148.7592 47.1098,156.0842 47.1098,164.6692 C47.1098,174.7962 47.1098,182.9452 55.9518,187.3662 C57.6608,188.2222 58.7758,189.9342 58.7758,191.8462 L58.7758,197.5092 C58.7758,200.0312 60.6148,202.2892 63.1258,202.5342 C66.0078,202.8162 68.4428,200.5492 68.4428,197.7252 L68.4428,191.5902 C68.4428,191.3112 68.5598,191.0432 68.7658,190.8542 C68.9718,190.6642 69.2498,190.5632 69.5268,190.5942 C70.1468,190.6462 70.7878,190.6902 71.4398,190.7292 C71.9688,190.7602 72.3868,191.1962 72.3868,191.7272 L72.3868,197.5102 C72.3868,200.0322 74.2268,202.2892 76.7378,202.5342 C79.6178,202.8162 82.0538,200.5492 82.0538,197.7252 L82.0538,191.7272 C82.0538,191.1952 82.4738,190.7602 83.0038,190.7282 C83.6568,190.6902 84.2958,190.6462 84.9148,190.5942 C84.9428,190.5912 84.9698,190.5902 84.9978,190.5902 C85.2478,190.5902 85.4898,190.6842 85.6748,190.8542 C85.8808,191.0432 85.9978,191.3112 85.9978,191.5902 L85.9978,197.5092 C85.9978,200.0312 87.8378,202.2892 90.3478,202.5342 C93.2298,202.8162 95.6648,200.5492 95.6648,197.7252 L95.6648,191.8492 C95.6648,189.9262 96.7938,188.2182 98.5118,187.3562 C101.6728,185.7702 103.6998,183.7062 105.0008,181.2452 C100.9468,178.6122 97.4478,175.1922 94.7368,171.1922 C93.6238,171.3912 92.3368,171.5022 90.8318,171.5022 C80.1098,171.5022 80.1098,166.0512 80.1098,160.7792 C80.1098,155.6432 83.7428,151.3412 88.5728,150.3012 C88.6458,146.7502 89.2288,143.3242 90.2618,140.0952 C89.6188,139.5282 88.9918,138.9452 88.3888,138.3372 C88.3508,138.3372 88.3118,138.3442 88.2738,138.3442"/>
      <path fill="#DCDDDE" d="M74.4429,178.7807 C74.3259,179.0647 74.0849,179.2797 73.7889,179.3627 C72.9639,179.5937 72.3879,180.3487 72.3879,181.1967 C72.3879,182.2537 73.2479,183.1127 74.3039,183.1127 C75.1099,183.1127 75.8329,182.5957 76.1019,181.8267 C76.2469,181.4137 76.6459,181.1017 77.0789,181.1577 C77.0989,181.1577 77.1959,181.1647 77.2159,181.1667 C77.2359,181.1647 77.3429,181.1577 77.3629,181.1577 C77.3749,181.1567 77.3849,181.1567 77.3969,181.1567 C77.8199,181.1567 78.1989,181.4247 78.3399,181.8267 C78.6099,182.5957 79.3319,183.1127 80.1379,183.1127 C81.1939,183.1127 82.0539,182.2537 82.0539,181.1967 C82.0539,180.3497 81.4769,179.5957 80.6499,179.3617 C80.3549,179.2787 80.1139,179.0647 79.9969,178.7807 C79.6459,177.9297 78.5049,177.3357 77.2209,177.3357 C75.9359,177.3357 74.7939,177.9297 74.4429,178.7807"/>
      <path fill="#FFFFFF" d="M151.1079 100.0922C152.0339 99.4172 152.9919 98.7862 153.9809 98.2012 153.8929 98.1962 153.8049 98.1902 153.7169 98.1832 152.9419 98.7462 152.0339 99.2702 150.9929 99.7532 151.0309 99.8662 151.0709 99.9782 151.1079 100.0922M155.8027 80.8305C155.8027 79.6935 156.7217 78.7755 157.8587 78.7755L159.9137 78.7755C161.0507 78.7755 161.9697 79.6935 161.9697 80.8305 161.9697 81.9675 161.0507 82.8875 159.9137 82.8875L157.8587 82.8875C156.7217 82.8875 155.8027 81.9675 155.8027 80.8305 155.8027 81.9675 154.8817 82.8875 153.7477 82.8875L151.6917 82.8875C150.5567 82.8875 149.6357 81.9675 149.6357 80.8305 149.6357 79.6935 150.5567 78.7755 151.6917 78.7755L153.7477 78.7755C154.8817 78.7755 155.8027 79.6935 155.8027 80.8305L155.8027 80.8305zM158.9137 64.3865C158.9137 61.5675 161.2067 59.2745 164.0257 59.2745 166.8437 59.2745 169.1357 61.5675 169.1357 64.3865L169.1357 70.5535C169.1357 73.3715 166.8437 75.6645 164.0257 75.6645 161.2067 75.6645 158.9137 73.3715 158.9137 70.5535L158.9137 64.3865zM142.4697 69.4025L142.4697 64.3865C142.4697 61.5675 144.7617 59.2745 147.5807 59.2745 150.3987 59.2745 152.6917 61.5675 152.6917 64.3865L152.6917 70.5535C152.6917 73.3715 150.3987 75.6645 147.5807 75.6645 145.8117 75.6645 144.2527 74.7615 143.3347 73.3925 143.5437 74.9075 143.6337 76.4635 143.5927 78.0515 143.5777 78.6385 143.5387 79.2325 143.4857 79.8305 143.7997 79.9985 144.1137 80.1665 144.4227 80.3375 147.7937 81.6055 151.4067 83.8185 155.1207 87.4435 155.1367 87.4595 155.1527 87.4765 155.1667 87.4925 155.1957 87.5235 155.3697 87.7265 155.5997 88.0535L168.6257 88.0535C168.7427 88.0535 168.8607 88.0735 168.9707 88.1145L169.7087 88.3865C169.7447 88.3985 169.7797 88.4145 169.8137 88.4325L170.9427 89.0015C171.2577 89.1605 171.4657 89.4745 171.4897 89.8255L171.5857 91.2355C171.5867 91.9515 171.3107 92.6185 170.8547 93.2405 171.3167 93.2235 171.7797 93.2055 172.2467 93.2055 172.7137 93.2055 173.1757 93.2235 173.6377 93.2405 177.3737 87.9395 179.4697 80.5705 179.4697 71.7095 179.4697 60.7455 177.4187 53.6335 174.2517 49.0425 172.9747 50.3395 171.4757 51.5545 169.7077 52.6155 169.2277 52.9015 168.6857 53.0525 168.1387 53.0525 167.7917 53.0525 167.4457 52.9905 167.1147 52.8725 166.7887 52.9905 166.4407 53.0525 166.0827 53.0525 164.9177 53.0525 163.8697 52.4045 163.3467 51.3635 162.9697 50.6065 162.9237 49.7425 163.2037 48.9655 163.1957 48.9435 163.1887 48.9215 163.1807 48.8985 162.6507 47.3095 163.5157 45.5765 165.1117 45.0415 165.1077 45.0415 166.0327 44.6215 167.5017 43.2035 163.8207 41.4215 159.7107 40.9755 155.8027 40.9755 151.9687 40.9755 147.9397 41.4015 144.3127 43.1005 145.7997 44.6375 146.6907 45.0835 146.7107 45.0935 148.1837 45.6585 148.9397 47.3505 148.3897 48.9335 148.6817 49.7195 148.6407 50.5945 148.2607 51.3605 147.7367 52.4045 146.6887 53.0525 145.5227 53.0525 145.1737 53.0525 144.8237 52.9905 144.4927 52.8715 143.6377 53.1795 142.6747 53.0825 141.8977 52.6165 140.1287 51.5555 138.6297 50.3405 137.3537 49.0435 135.9867 51.0235 134.8327 53.4825 133.9567 56.5115 138.0087 59.8125 140.9637 64.2775 142.4697 69.4025L142.4697 69.4025z"/>
      <path fill="#DCDDDE" d="M142.9253 50.9008C143.2503 51.0958 143.6533 51.1048 144.0003 50.9048 144.1543 50.8168 144.3253 50.7728 144.4973 50.7728 144.6503 50.7728 144.8033 50.8078 144.9443 50.8788 144.9663 50.8888 145.0443 50.9328 145.0653 50.9458 145.5353 51.1798 146.2173 50.9708 146.4703 50.4668 146.6303 50.1468 146.6163 49.7668 146.4313 49.4538 146.2493 49.1448 146.2463 48.7628 146.4233 48.4518 146.4533 48.3998 146.4773 48.3438 146.4983 48.2848 146.6973 47.7278 146.4533 47.1348 145.9403 46.9378 145.9013 46.9228 140.8793 44.9248 134.3893 31.2198 134.2983 31.1458 134.2023 31.0528 134.1193 30.9268 134.0823 30.8718 134.0303 30.7988 133.9773 30.7458 133.9163 30.6848 133.8173 30.6198 133.7023 30.5618 133.6303 30.5488 133.5693 30.5358 133.5133 30.5188 133.4463 30.4988 133.3183 30.4578 133.2383 30.4498 133.1743 30.4658 133.1183 30.4788 133.0623 30.4868L132.8693 30.5058 132.8653 30.4968C132.8513 30.5038 132.8363 30.5088 132.8223 30.5148L132.8223 30.5158 132.6583 30.6278C132.6503 30.6328 132.5623 30.6848 132.5543 30.6898 132.5233 30.7088 132.4913 30.7248 132.4633 30.7468L132.3693 30.8878C132.3043 30.9738 132.2703 31.0118 132.2463 31.0568 132.2433 31.0688 132.2133 31.2078 132.2103 31.2178 132.1843 31.3088 132.1573 31.4038 132.1553 31.4448 132.1533 31.4838 132.1463 31.5358 132.1373 31.5868 132.1553 32.8358 132.6083 44.7098 142.9253 50.9008M165.8198 46.9105C165.1958 47.1225 164.8968 47.7225 165.0808 48.2735 165.1058 48.3485 165.1308 48.4065 165.1588 48.4535 165.3458 48.7655 165.3488 49.1545 165.1658 49.4705 164.9878 49.7765 164.9768 50.1495 165.1358 50.4695 165.3878 50.9725 166.0298 51.2015 166.5538 50.9385 166.5778 50.9225 166.6268 50.8945 166.6798 50.8695 166.8158 50.8055 166.9628 50.7725 167.1088 50.7725 167.2808 50.7725 167.4518 50.8165 167.6058 50.9045 167.9488 51.1015 168.3518 51.0965 168.6818 50.8985 178.9648 44.7275 179.4478 32.9095 179.4688 31.5965 179.4608 31.5525 179.4538 31.5035 179.4508 31.4485L179.4508 31.4465C179.4478 31.3955 179.4178 31.2915 179.4008 31.2355L179.3608 31.0805C179.3418 31.0235 179.3138 30.9915 179.2868 30.9575L179.1538 30.7755C179.1208 30.7295 179.0898 30.7135 179.0588 30.6945 179.0538 30.6915 178.9668 30.6385 178.9618 30.6355L178.8438 30.5585C178.8148 30.5475 178.7768 30.5275 178.7368 30.5055L178.5628 30.4885C178.4918 30.4775 178.4298 30.4645 178.3698 30.4485 178.2988 30.4515 178.1758 30.4895 178.0768 30.5215 178.0458 30.5325 177.9818 30.5485 177.9268 30.5605 177.7188 30.6635 177.5428 30.8485 177.4458 31.0765 171.8878 44.0425 166.4248 46.6545 165.8198 46.9105"/>
      <path fill="#FFFFFF" d="M156.6489,94.6859 C156.4259,95.2409 156.1119,95.7679 155.7259,96.2739 C155.7519,96.2739 155.7769,96.2759 155.8029,96.2759 C156.5159,96.2759 157.2349,96.2369 157.9499,96.1739 C160.9209,94.8829 164.0999,93.9859 167.4199,93.5389 C168.7589,92.7909 169.5879,91.9989 169.5879,91.3039 L169.5339,90.5309 L168.9639,90.2439 L168.4469,90.0529 L167.8369,90.0529 C168.0229,90.3629 168.1359,90.7209 168.1359,91.1089 C168.1359,92.2459 167.2169,93.1649 166.0809,93.1649 C164.9439,93.1649 164.0249,92.2459 164.0249,91.1089 C164.0249,90.7209 164.1389,90.3629 164.3249,90.0529 L161.6699,90.0529 C161.8559,90.3629 161.9699,90.7209 161.9699,91.1089 L161.9699,93.1649 C161.9699,94.3009 161.0509,95.2199 159.9139,95.2199 C158.7769,95.2199 157.8579,94.3009 157.8579,93.1649 L157.8579,91.1089 C157.8579,90.7209 157.9719,90.3629 158.1579,90.0529 L156.6479,90.0529 C157.1129,91.3229 157.3469,92.9489 156.6489,94.6859"/>
      <path fill="#DCDDDE" d="M122.1416 51.0199C122.1436 49.3459 122.1436 47.5949 122.1436 45.7349 122.1436 32.1329 116.8876 22.3879 109.8666 16.1199L66.4096 16.1199C58.7126 23.5209 54.7076 34.2749 54.2456 42.9529 54.1916 43.9379 54.1656 44.8479 54.1656 45.7339 54.1656 46.4009 54.1616 47.1679 54.1566 48.0189 54.1226 53.9989 54.0566 65.9609 55.7556 73.3949 58.2856 72.8299 60.9116 72.5219 63.6096 72.5219 66.9316 72.5219 70.1466 72.9839 73.2026 73.8309 66.0356 67.8439 61.4466 57.8869 60.9596 46.7479 60.9576 46.7099 60.9586 46.6739 60.9606 46.6369 61.3156 41.2699 63.8816 39.1979 66.8526 36.7989 67.8636 35.9829 68.9096 35.1389 69.9536 34.0939L76.5146 27.5339C76.8396 27.2109 77.3426 27.1469 77.7356 27.3829 77.8436 27.4479 88.5386 33.8009 96.9026 33.8009 105.2896 33.8009 114.6346 37.8929 115.3326 46.8759 115.3356 46.9179 115.3366 46.9599 115.3346 47.0029 115.2776 48.1449 115.1646 49.2689 115.0236 50.3819 117.2596 50.3099 119.6266 50.4939 122.1416 51.0199M96.9014 12.932C95.6924 12.932 94.7144 11.953 94.7144 10.745 94.7144 9.537 95.6924 8.558 96.9014 8.558 98.1104 8.558 99.0884 9.537 99.0884 10.745 99.0884 11.953 98.1104 12.932 96.9014 12.932L96.9014 12.932zM88.1544 12.932C86.9474 12.932 85.9674 11.464 85.9674 9.652 85.9674 7.839 86.9474 6.371 88.1544 6.371 89.3634 6.371 90.3404 7.839 90.3404 9.652 90.3404 11.464 89.3634 12.932 88.1544 12.932L88.1544 12.932zM79.4074 12.932C78.2004 12.932 77.2204 11.953 77.2204 10.745 77.2204 9.537 78.2004 8.558 79.4074 8.558 80.6144 8.558 81.5934 9.537 81.5934 10.745 81.5934 11.953 80.6144 12.932 79.4074 12.932L79.4074 12.932zM109.0224 13.654L103.1454 11.695C102.9344 11.624 102.7534 11.486 102.6304 11.301L98.6804 5.376 92.8444 7.321C92.4844 7.442 92.0884 7.347 91.8204 7.079L88.1544 3.413 84.4874 7.079C84.2204 7.347 83.8244 7.443 83.4644 7.321L77.6284 5.376 73.6784 11.301C73.5554 11.486 73.3744 11.624 73.1634 11.695L67.2864 13.654 67.2864 14.119 109.0224 14.119 109.0224 13.654zM172.2471 95.2055C164.5381 95.2055 157.4221 97.7885 151.7131 102.1295 152.5261 105.2075 152.9631 108.4355 152.9631 111.7665 152.9631 116.7405 151.9871 121.4885 150.2311 125.8425 154.4751 130.1655 157.6351 135.5515 159.2781 141.5595L186.6591 141.5595C187.7971 141.5595 188.7171 142.4785 188.7171 143.6175 188.7171 144.7565 187.7971 145.6765 186.6591 145.6765L160.1531 145.6765C160.4161 147.4285 160.5551 149.2195 160.5551 151.0425 160.5551 154.3575 160.0951 157.5665 159.2511 160.6185 163.2581 162.2825 167.6461 163.2055 172.2471 163.2055 190.9951 163.2055 206.2471 147.9535 206.2471 129.2055 206.2471 110.4575 190.9951 95.2055 172.2471 95.2055"/>
      <path fill="#FFFFFF" d="M51.667 92.0121C51.286 92.0901 42.388 94.0301 38.756 103.1111 38.433 103.9151 37.661 104.4041 36.844 104.4061 36.588 104.4061 36.331 104.3581 36.08 104.2571 35.023 103.8351 34.511 102.6371 34.933 101.5801 39.413 90.3811 50.389 88.0671 50.852 87.9761 51.972 87.7561 53.053 88.4751 53.275 89.5901 53.498 90.7011 52.777 91.7851 51.667 92.0121M77.669 107.5671C77.136 107.5201 76.567 107.4921 75.962 107.4921 70.938 107.4921 68.365 109.3311 68.34 109.3501 67.959 109.6231 67.443 109.6141 67.083 109.3211 66.72 109.0291 66.597 108.5311 66.786 108.1041 66.888 107.8751 68.921 103.4281 73.034 101.8621 72.471 100.8201 71.97 99.6941 71.541 98.4581 68.54 89.8321 73.31 82.6571 78.329 77.8761 73.873 75.7271 68.879 74.5221 63.609 74.5221 44.862 74.5221 29.609 89.7741 29.609 108.5221 29.609 111.9891 30.134 115.3341 31.103 118.4891 34.667 113.3891 40.258 107.3701 43.131 106.2701 44.486 104.2571 47.162 101.3161 51.256 101.3161 57.346 101.3161 60.309 107.8261 60.433 108.1041 60.622 108.5331 60.5 109.0341 60.134 109.3261 59.947 109.4751 59.718 109.5511 59.492 109.5511 59.277 109.5511 59.059 109.4841 58.878 109.3481 58.82 109.3071 56.251 107.4921 51.256 107.4921 49.035 107.4921 47.296 107.8521 46.041 108.2541 46.907 109.9661 47.739 112.5301 48.422 115.3301 53.144 116.1841 57.548 116.7571 63.609 116.7571 69.165 116.7571 73.328 116.2761 77.62 115.5371 77.496 114.2971 77.431 113.0391 77.431 111.7661 77.431 110.3461 77.516 108.9471 77.669 107.5671M82.5288 136.7562C80.7968 135.7322 79.3338 134.2542 78.3448 132.4312 74.4758 135.3582 69.4028 137.3462 63.6098 137.3462 57.7998 137.3462 52.7168 135.3472 48.8438 132.4072 47.8588 134.2342 46.3998 135.7152 44.6698 136.7442 50.0868 140.3912 56.6028 142.5222 63.6098 142.5222 70.6068 142.5222 77.1158 140.3952 82.5288 136.7562"/>
      <path fill="#DCDDDE" d="M47.9136 129.3373C49.2066 124.2383 45.3256 109.8863 43.7126 108.1173 41.4506 108.9003 31.1916 119.6603 29.8976 124.7623 29.2866 127.1693 29.6486 129.6693 30.9186 131.8033 32.1876 133.9373 34.2116 135.4463 36.6176 136.0563 41.5846 137.3183 46.6516 134.3043 47.9136 129.3373M79.2637 129.3373C80.1657 132.8873 83.0127 135.4283 86.3767 136.1353 83.2177 132.4043 80.7677 128.0573 79.2387 123.2993 78.9467 125.7213 78.8987 127.8983 79.2637 129.3373"/>
      <path fill="#B9BBBE" d="M63.6094 169.5023C54.8874 169.5023 54.8874 166.2193 54.8874 160.7793 54.8874 155.9703 58.7994 152.0573 63.6094 152.0573 68.4194 152.0573 72.3314 155.9703 72.3314 160.7793 72.3314 166.2193 72.3314 169.5023 63.6094 169.5023M74.3314 160.7793C74.3314 154.8673 69.5214 150.0573 63.6094 150.0573 57.6974 150.0573 52.8874 154.8673 52.8874 160.7793 52.8874 166.0513 52.8874 171.5023 63.6094 171.5023 74.3314 171.5023 74.3314 166.0513 74.3314 160.7793M80.1377 183.1127C79.3317 183.1127 78.6097 182.5957 78.3397 181.8267 78.1997 181.4247 77.8197 181.1567 77.3967 181.1567 77.3857 181.1567 77.3747 181.1567 77.3637 181.1577 77.3437 181.1577 77.2367 181.1647 77.2167 181.1667 77.1967 181.1647 77.0987 181.1577 77.0787 181.1577 76.6457 181.1017 76.2467 181.4137 76.1017 181.8267 75.8327 182.5957 75.1097 183.1127 74.3047 183.1127 73.2477 183.1127 72.3877 182.2537 72.3877 181.1967 72.3877 180.3487 72.9637 179.5937 73.7887 179.3627 74.0847 179.2797 74.3257 179.0647 74.4427 178.7807 74.7937 177.9297 75.9357 177.3357 77.2207 177.3357 78.5047 177.3357 79.6457 177.9297 79.9967 178.7807 80.1137 179.0647 80.3547 179.2787 80.6497 179.3617 81.4767 179.5957 82.0547 180.3497 82.0547 181.1967 82.0547 182.2537 81.1947 183.1127 80.1377 183.1127M81.6347 177.5917C80.8417 176.2247 79.1327 175.3357 77.2207 175.3357 75.3087 175.3357 73.5987 176.2247 72.8057 177.5907 71.3617 178.1907 70.3877 179.6137 70.3877 181.1967 70.3877 183.3557 72.1447 185.1127 74.3047 185.1127 75.4397 185.1127 76.4937 184.6157 77.2207 183.7967 77.9487 184.6157 79.0017 185.1127 80.1377 185.1127 82.2977 185.1127 84.0547 183.3557 84.0547 181.1967 84.0547 179.6157 83.0797 178.1927 81.6347 177.5917M159.9141 78.7758L157.8581 78.7758C156.7221 78.7758 155.8031 79.6938 155.8031 80.8308 155.8031 81.9668 156.7221 82.8868 157.8581 82.8868L159.9141 82.8868C161.0511 82.8868 161.9701 81.9668 161.9701 80.8308 161.9701 79.6938 161.0511 78.7758 159.9141 78.7758M153.7476 78.7758L151.6916 78.7758C150.5576 78.7758 149.6366 79.6938 149.6366 80.8308 149.6366 81.9668 150.5576 82.8868 151.6916 82.8868L153.7476 82.8868C154.8816 82.8868 155.8026 81.9668 155.8026 80.8308 155.8026 79.6938 154.8816 78.7758 153.7476 78.7758M167.1362 70.5531C167.1362 72.2691 165.7402 73.6641 164.0252 73.6641 162.3092 73.6641 160.9142 72.2691 160.9142 70.5531L160.9142 64.3861C160.9142 62.6701 162.3092 61.2751 164.0252 61.2751 165.7402 61.2751 167.1362 62.6701 167.1362 64.3861L167.1362 70.5531zM164.0252 59.2751C161.2072 59.2751 158.9142 61.5681 158.9142 64.3861L158.9142 70.5531C158.9142 73.3711 161.2072 75.6641 164.0252 75.6641 166.8442 75.6641 169.1362 73.3711 169.1362 70.5531L169.1362 64.3861C169.1362 61.5681 166.8442 59.2751 164.0252 59.2751L164.0252 59.2751zM90.3413 54.4818L85.9673 54.4818C84.7603 54.4818 83.7803 55.4598 83.7803 56.6688 83.7803 57.8778 84.7603 58.8558 85.9673 58.8558L90.3413 58.8558C91.5503 58.8558 92.5283 57.8778 92.5283 56.6688 92.5283 55.4598 91.5503 54.4818 90.3413 54.4818M77.2202 43.5482C76.0132 43.5482 75.0332 44.5262 75.0332 45.7352L75.0332 50.1082C75.0332 51.3182 76.0132 52.2952 77.2202 52.2952 78.4282 52.2952 79.4072 51.3182 79.4072 50.1082L79.4072 45.7352C79.4072 44.5262 78.4282 43.5482 77.2202 43.5482M99.0884 43.5482C97.8794 43.5482 96.9014 44.5262 96.9014 45.7352L96.9014 50.1082C96.9014 51.3182 97.8794 52.2952 99.0884 52.2952 100.2974 52.2952 101.2754 51.3182 101.2754 50.1082L101.2754 45.7352C101.2754 44.5262 100.2974 43.5482 99.0884 43.5482M88.1543 6.3715C86.9473 6.3715 85.9673 7.8395 85.9673 9.6515 85.9673 11.4645 86.9473 12.9325 88.1543 12.9325 89.3633 12.9325 90.3413 11.4645 90.3413 9.6515 90.3413 7.8395 89.3633 6.3715 88.1543 6.3715M79.4072 8.558C78.2002 8.558 77.2202 9.537 77.2202 10.746 77.2202 11.953 78.2002 12.932 79.4072 12.932 80.6142 12.932 81.5942 11.953 81.5942 10.746 81.5942 9.537 80.6142 8.558 79.4072 8.558M96.9014 8.558C95.6924 8.558 94.7144 9.537 94.7144 10.746 94.7144 11.953 95.6924 12.932 96.9014 12.932 98.1104 12.932 99.0884 11.953 99.0884 10.746 99.0884 9.537 98.1104 8.558 96.9014 8.558M159.8652 120.517C157.6562 120.517 155.8652 123.025 155.8652 126.118 155.8652 129.212 157.6562 131.717 159.8652 131.717 162.0742 131.717 163.8652 129.212 163.8652 126.118 163.8652 123.025 162.0742 120.517 159.8652 120.517M185.6294 120.517C183.4204 120.517 181.6294 123.025 181.6294 126.118 181.6294 129.212 183.4204 131.717 185.6294 131.717 187.8384 131.717 189.6294 129.212 189.6294 126.118 189.6294 123.025 187.8384 120.517 185.6294 120.517"/>
      <g transform="translate(27 .558)">
        <mask id="d" fill="white">
          <use xlink:href="#c"/>
        </mask>
        <path fill="#B9BBBE" d="M148.8189,162.4629 C142.9179,163.0709 137.2829,162.1509 132.2519,160.0609 C133.0949,157.0089 133.5549,153.7999 133.5549,150.4839 C133.5549,148.6609 133.4159,146.8699 133.1529,145.1179 L159.5449,145.1179 C160.6219,145.1179 161.6019,144.3419 161.7069,143.2699 C161.8289,142.0359 160.8669,141.0009 159.6589,141.0009 L132.2779,141.0009 C130.7929,135.5699 128.0689,130.6489 124.4239,126.5599 C123.7199,125.7699 123.4959,124.6519 123.8459,123.6539 C125.2139,119.7549 125.9639,115.5679 125.9639,111.2079 C125.9639,108.5429 125.6829,105.9429 125.1539,103.4329 C124.9029,102.2399 125.4229,101.0189 126.4369,100.3429 C131.8279,96.7479 138.2959,94.6479 145.2469,94.6479 C164.7679,94.6479 180.4999,111.1839 179.1689,130.9839 C178.0689,147.3429 165.1279,160.7809 148.8189,162.4629 L148.8189,162.4629 Z M94.1309,184.3159 C79.0359,182.8309 66.5959,171.2399 64.0489,156.2879 C63.4159,152.5729 63.4089,148.9519 63.9239,145.4989 C64.2429,143.3609 66.6369,142.2619 68.4779,143.3949 C71.9579,145.5339 75.8099,147.1259 79.9129,148.0479 C80.0709,148.1579 80.2409,148.2549 80.4329,148.3189 C80.7989,148.4419 81.1709,148.4469 81.5209,148.3719 C83.6899,148.7609 85.9179,148.9749 88.1969,148.9749 C92.2359,148.9749 96.1269,148.3299 99.7779,147.1499 C99.9989,147.6829 100.4319,148.1229 101.0219,148.3189 C102.1089,148.6809 103.2639,148.0969 103.6239,147.0179 C103.6809,146.8479 103.7769,146.5999 103.9079,146.3039 C104.1849,145.6769 104.6889,145.1829 105.2989,144.8709 C105.8779,144.5759 106.4479,144.2659 107.0089,143.9419 C108.4579,143.1059 110.3049,143.5739 111.1429,145.0219 C111.5959,145.8039 111.9199,146.5659 112.0729,147.0179 C112.3599,147.8799 113.1629,148.4259 114.0249,148.4259 C114.2409,148.4259 114.4599,148.3909 114.6759,148.3189 C115.7549,147.9609 116.3369,146.7949 115.9769,145.7169 C115.8279,145.2679 114.9479,142.8059 113.1829,140.8069 C112.8189,140.3959 112.8699,139.7749 113.2799,139.4089 C116.0049,136.9839 118.3759,134.1709 120.3079,131.0579 C121.4469,129.2219 124.0729,129.1329 125.3219,130.8969 C129.2449,136.4369 131.5549,143.1939 131.5549,150.4839 C131.5549,170.3619 114.4089,186.3099 94.1309,184.3159 L94.1309,184.3159 Z M65.3279,166.5049 C65.8829,167.6179 65.1079,168.9429 63.8629,168.9439 L63.8319,168.9439 C55.1099,168.9439 55.1099,165.6609 55.1099,160.2219 C55.1099,157.1089 56.7499,154.3789 59.2099,152.8369 C60.2559,152.1829 61.6219,152.8809 61.7459,154.1089 C62.1889,158.5239 63.4309,162.7039 65.3279,166.5049 L65.3279,166.5049 Z M70.9639,187.0629 C69.5609,187.7159 68.6649,189.1299 68.6649,190.6769 L68.6649,196.9509 C68.6649,199.4739 66.8259,201.7319 64.3149,201.9769 C61.4339,202.2579 58.9979,199.9909 58.9979,197.1669 L58.9979,191.0319 C58.9979,190.7529 58.8809,190.4849 58.6749,190.2959 C58.4899,190.1259 58.2479,190.0319 57.9979,190.0319 C57.9699,190.0319 57.9429,190.0329 57.9149,190.0359 C57.2959,190.0879 56.6569,190.1319 56.0039,190.1699 C55.4739,190.2019 55.0539,190.6379 55.0539,191.1689 L55.0539,196.9509 C55.0539,199.4749 53.2139,201.7319 50.7029,201.9769 C47.8219,202.2579 45.3869,199.9909 45.3869,197.1669 L45.3869,191.1689 C45.3869,190.6389 44.9689,190.2019 44.4399,190.1709 C43.7879,190.1319 43.1469,190.0879 42.5269,190.0359 C42.2499,190.0049 41.9719,190.1069 41.7659,190.2959 C41.5599,190.4849 41.4429,190.7529 41.4429,191.0319 L41.4429,196.9509 C41.4429,199.4739 39.6039,201.7319 37.0929,201.9769 C34.2119,202.2579 31.7759,199.9909 31.7759,197.1669 L31.7759,190.6779 C31.7759,189.1389 30.8969,187.7209 29.5009,187.0729 C20.1099,182.7179 20.1099,174.4429 20.1099,164.1109 C20.1099,155.5259 23.0189,148.2009 28.0269,142.9219 C30.7789,143.5979 33.6519,143.9639 36.6099,143.9639 C44.4449,143.9639 51.6979,141.4409 57.6149,137.1729 C58.7769,137.5729 60.0119,137.7859 61.2739,137.7859 C61.3119,137.7859 61.3509,137.7789 61.3889,137.7789 C61.9919,138.3879 62.6189,138.9709 63.2619,139.5369 C62.2289,142.7669 61.6459,146.1919 61.5729,149.7429 C56.7429,150.7829 53.1099,155.0849 53.1099,160.2219 C53.1099,165.4929 53.1099,170.9439 63.8319,170.9439 C65.3369,170.9439 66.6239,170.8329 67.7369,170.6339 C70.4479,174.6339 73.9459,178.0539 78.0009,180.6879 C76.6259,183.2879 74.4409,185.4439 70.9639,187.0629 L70.9639,187.0629 Z M19.7989,134.5549 C20.1629,134.2009 20.5039,133.8219 20.8189,133.4189 C21.4529,132.6069 22.5929,132.4229 23.4629,132.9769 C27.0899,135.2879 31.5779,136.7879 36.6099,136.7879 C41.6289,136.7879 46.1079,135.2959 49.7309,132.9929 C50.5989,132.4419 51.7349,132.6239 52.3689,133.4329 C52.6849,133.8349 53.0259,134.2129 53.3889,134.5659 C54.3649,135.5129 54.1409,137.1159 52.9489,137.7719 C48.0969,140.4419 42.5279,141.9639 36.6099,141.9639 C30.6799,141.9639 25.0999,140.4379 20.2419,137.7569 C19.0529,137.1019 18.8259,135.5019 19.7989,134.5549 L19.7989,134.5549 Z M9.6169,135.4979 C7.2119,134.8889 5.1879,133.3789 3.9189,131.2449 C2.6489,129.1109 2.2869,126.6109 2.8979,124.2039 C3.9439,120.0799 10.8479,112.2579 14.6509,108.9979 C15.7119,108.0889 17.3389,108.5019 17.8369,109.8079 C19.6229,114.4869 21.9599,124.6569 20.9139,128.7789 C19.6519,133.7459 14.5849,136.7609 9.6169,135.4979 L9.6169,135.4979 Z M50.8309,119.2309 C50.6049,120.5379 50.4229,121.8249 50.2939,123.0389 C47.4139,124.8549 43.0379,126.4929 36.6099,126.4929 C30.1479,126.4929 25.7599,124.8369 22.8809,123.0109 C22.7519,121.8029 22.5699,120.5229 22.3449,119.2229 C25.4279,119.7589 30.1719,120.3169 36.6099,120.3169 C43.0169,120.3169 47.7469,119.7639 50.8309,119.2309 L50.8309,119.2309 Z M2.8359,104.0079 C4.6719,87.9439 17.9079,75.2549 34.0319,74.0599 C39.1679,73.6789 44.0889,74.4469 48.5639,76.1329 C49.8889,76.6329 50.2999,78.2939 49.3569,79.3519 C45.1779,84.0329 41.9399,90.4219 44.5409,97.8999 C44.9699,99.1359 45.4709,100.2619 46.0339,101.3039 C41.9219,102.8699 39.8879,107.3169 39.7859,107.5459 C39.5969,107.9729 39.7199,108.4709 40.0829,108.7629 C40.4429,109.0559 40.9599,109.0659 41.3399,108.7919 C41.3649,108.7739 43.9389,106.9349 48.9629,106.9349 C49.5679,106.9349 50.1359,106.9619 50.6699,107.0089 C50.5159,108.3889 50.4309,109.7879 50.4309,111.2079 C50.4309,111.8769 50.4489,112.5409 50.4839,113.1999 C50.5379,114.2299 49.8019,115.1229 48.7849,115.2789 C45.1109,115.8449 41.3709,116.1989 36.6099,116.1989 C31.0979,116.1989 26.9569,115.7259 22.7009,114.9969 C21.9319,114.8659 21.3079,114.2909 21.1069,113.5369 C20.4899,111.2259 19.7779,109.1529 19.0409,107.6959 C20.2959,107.2939 22.0349,106.9349 24.2559,106.9349 C29.2509,106.9349 31.8199,108.7489 31.8779,108.7899 C32.0589,108.9259 32.2769,108.9929 32.4919,108.9929 C32.7179,108.9929 32.9469,108.9169 33.1339,108.7689 C33.5009,108.4769 33.6219,107.9749 33.4329,107.5459 C33.3089,107.2689 30.3459,100.7579 24.2559,100.7579 C20.1619,100.7579 17.4859,103.6989 16.1319,105.7119 C13.8719,106.5769 9.9319,110.4839 6.6179,114.5939 C5.5299,115.9419 3.3759,115.3579 3.0869,113.6489 C2.5619,110.5559 2.4569,107.3219 2.8359,104.0079 L2.8359,104.0079 Z M27.1569,47.4609 C27.1619,46.6099 27.1659,45.8429 27.1659,45.1759 C27.1659,44.2899 27.1919,43.3799 27.2449,42.3949 C27.5059,37.4959 28.8959,31.9369 31.4419,26.6919 C34.7619,19.8489 41.7669,15.5619 49.3729,15.5619 L73.2709,15.5619 C81.0109,15.5619 88.0899,20.0079 91.3649,27.0219 C93.7199,32.0649 95.1439,38.0989 95.1439,45.1769 C95.1439,46.6019 95.1439,47.9629 95.1429,49.2749 C95.1429,49.8949 94.5799,50.3439 93.9679,50.2389 C92.2979,49.9539 90.6939,49.8199 89.1509,49.8099 C88.5529,49.8059 88.0919,49.2989 88.1549,48.7049 C88.2339,47.9579 88.2969,47.2059 88.3349,46.4459 C88.3339,46.4039 88.3339,46.3619 88.3329,46.3209 C87.6369,37.3359 78.2909,33.2429 69.9019,33.2429 C61.5389,33.2429 50.8429,26.8899 50.7359,26.8249 C50.3419,26.5889 49.8399,26.6529 49.5149,26.9759 L42.9539,33.5359 C41.9089,34.5809 40.8639,35.4249 39.8529,36.2409 C36.8829,38.6389 34.3179,40.7109 33.9609,46.0749 C33.9609,46.1119 33.9599,46.1519 33.9599,46.1909 C34.3429,54.9609 37.2699,62.9999 41.9959,68.9429 C43.0889,70.3169 41.9729,72.3249 40.2269,72.1479 C39.0369,72.0259 37.8309,71.9639 36.6099,71.9639 C34.5719,71.9639 32.5749,72.1399 30.6299,72.4689 C29.5639,72.6499 28.5479,71.9329 28.3629,70.8669 C27.0679,63.4299 27.1259,52.9369 27.1569,47.4609 L27.1569,47.4609 Z M40.2869,13.0959 L46.1629,11.1369 C46.3739,11.0669 46.5559,10.9279 46.6789,10.7419 L49.7809,6.0889 C50.2809,5.3389 51.2219,5.0159 52.0779,5.3009 L56.4649,6.7629 C56.8239,6.8849 57.2199,6.7889 57.4879,6.5219 L59.7399,4.2699 C60.5209,3.4879 61.7879,3.4879 62.5689,4.2699 L64.8199,6.5209 C65.0889,6.7889 65.4849,6.8829 65.8439,6.7629 L70.2309,5.3009 C71.0869,5.0159 72.0269,5.3389 72.5269,6.0889 L75.6299,10.7429 C75.7529,10.9279 75.9339,11.0669 76.1449,11.1369 L82.0219,13.0959 L82.0219,13.5619 L40.2869,13.5619 L40.2869,13.0959 Z M97.1419,50.2949 C98.3709,49.0989 100.1219,47.7319 102.6109,46.1759 C102.8679,46.0159 103.0379,45.7459 103.0729,45.4439 C103.1089,45.1439 103.0059,44.8419 102.7929,44.6259 C101.6989,43.5159 99.6719,40.8159 100.3819,39.5539 C100.5899,39.1849 101.3909,38.4209 104.4239,38.3859 C105.0279,40.3089 105.9169,42.4239 107.2199,44.5039 C108.1839,46.0419 108.2399,47.9619 107.3849,49.5639 C106.9189,50.4369 106.4829,51.3769 106.0819,52.3879 C105.6259,53.5369 104.2839,54.0069 103.2039,53.4029 C101.3759,52.3829 99.3959,51.5649 97.2839,50.9809 C97.2359,50.9669 97.1899,50.9589 97.1419,50.9459 L97.1419,50.2949 L97.1419,50.2949 Z M105.1549,30.8869 C105.1579,30.8459 105.1839,30.7509 105.2099,30.6599 C105.2129,30.6499 105.2439,30.5109 105.2469,30.4989 C105.2709,30.4539 105.3049,30.4159 105.3699,30.3299 L105.4629,30.1889 C105.4909,30.1669 105.5239,30.1509 105.5539,30.1319 C105.5629,30.1269 105.6499,30.0749 105.6579,30.0689 L105.8219,29.9579 L105.8219,29.9569 C105.8369,29.9509 105.8509,29.9449 105.8659,29.9389 L105.8699,29.9479 L106.0619,29.9289 C106.1189,29.9209 106.1739,29.9079 106.2379,29.8919 C106.3179,29.8999 106.4459,29.9409 106.5129,29.9609 C106.5689,29.9779 106.6299,29.9909 106.7019,30.0039 C106.8179,30.0619 106.9159,30.1269 106.9769,30.1879 C107.0309,30.2409 107.0819,30.3139 107.1189,30.3689 C107.2019,30.4949 107.2979,30.5879 107.3899,30.6619 C113.8789,44.3669 118.9019,46.3649 118.9409,46.3799 C119.4529,46.5769 119.6969,47.1699 119.4979,47.7269 C119.4769,47.7859 119.4529,47.8419 119.4229,47.8939 C119.2469,48.2049 119.2499,48.5869 119.4319,48.8959 C119.6159,49.2089 119.6309,49.5889 119.4709,49.9089 C119.2179,50.4129 118.5359,50.6219 118.0659,50.3879 C118.0439,50.3749 117.9659,50.3309 117.9439,50.3199 C117.8029,50.2499 117.6499,50.2149 117.4969,50.2149 C117.3259,50.2149 117.1539,50.2589 117.0009,50.3469 C116.6529,50.5469 116.2499,50.5379 115.9249,50.3429 C105.6089,44.1509 105.1559,32.2769 105.1369,31.0279 C105.1459,30.9779 105.1529,30.9259 105.1549,30.8869 L105.1549,30.8869 Z M116.2399,40.1349 C116.5369,40.2029 116.8499,40.1349 117.0899,39.9449 C117.3299,39.7559 117.4699,39.4669 117.4699,39.1609 C117.4699,36.1339 118.2299,29.8829 120.5809,29.8829 C123.1199,29.8829 126.4229,34.5879 127.9089,37.5529 C128.2479,38.2309 129.3589,38.2309 129.6969,37.5529 C131.1829,34.5879 134.4859,29.8829 137.0259,29.8829 C139.3709,29.8829 140.1339,36.1339 140.1359,39.1609 C140.1359,39.4669 140.2759,39.7549 140.5149,39.9439 C140.7529,40.1339 141.0659,40.2049 141.3619,40.1349 C141.9349,40.0019 142.4799,39.8819 143.0119,39.7669 L143.0009,39.7809 C142.4199,40.5529 141.3889,40.8299 140.5019,40.4509 C136.6569,38.8079 132.5239,38.4169 128.8029,38.4169 C125.0909,38.4169 120.9679,38.8049 117.1309,40.4379 C116.3989,40.7489 115.5429,40.5119 115.0659,39.8749 C115.0619,39.8709 115.0589,39.8659 115.0549,39.8609 C115.4399,39.9479 115.8349,40.0389 116.2399,40.1349 L116.2399,40.1349 Z M150.4459,30.5189 C150.5429,30.2899 150.7189,30.1059 150.9269,30.0029 C150.9819,29.9899 151.0459,29.9749 151.0769,29.9639 C151.1759,29.9319 151.2989,29.8939 151.3699,29.8909 C151.4299,29.9059 151.4919,29.9199 151.5629,29.9309 L151.7359,29.9469 C151.7769,29.9699 151.8149,29.9889 151.8439,30.0009 L151.9619,30.0769 C151.9669,30.0799 152.0539,30.1339 152.0589,30.1369 C152.0899,30.1549 152.1209,30.1719 152.1539,30.2179 L152.2869,30.3999 C152.3139,30.4339 152.3419,30.4659 152.3609,30.5229 L152.4009,30.6779 C152.4179,30.7339 152.4479,30.8379 152.4509,30.8889 L152.4509,30.8909 C152.4539,30.9449 152.4609,30.9939 152.4689,31.0379 C152.4479,32.3519 151.9649,44.1699 141.6819,50.3409 C141.3519,50.5379 140.9489,50.5439 140.6059,50.3469 C140.4519,50.2589 140.2809,50.2149 140.1089,50.2149 C139.9629,50.2149 139.8159,50.2469 139.6799,50.3119 C139.6269,50.3369 139.5779,50.3639 139.5539,50.3809 C139.0299,50.6439 138.3879,50.4139 138.1359,49.9109 C137.9769,49.5919 137.9879,49.2189 138.1659,48.9119 C138.3489,48.5969 138.3459,48.2079 138.1589,47.8959 C138.1309,47.8489 138.1059,47.7909 138.0809,47.7159 C137.8969,47.1639 138.1959,46.5649 138.8199,46.3529 C139.4249,46.0969 144.8879,43.4839 150.4459,30.5189 L150.4459,30.5189 Z M117.4699,69.9949 L117.4699,63.8279 C117.4699,62.1119 118.8649,60.7169 120.5809,60.7169 C122.2969,60.7169 123.6919,62.1119 123.6919,63.8279 L123.6919,69.9949 C123.6919,71.7109 122.2969,73.1069 120.5809,73.1069 C118.8649,73.1069 117.4699,71.7109 117.4699,69.9949 L117.4699,69.9949 Z M137.0249,89.4949 C137.0249,90.6319 137.9439,91.5509 139.0809,91.5509 C140.2169,91.5509 141.1359,90.6319 141.1359,89.4949 L137.0249,89.4949 Z M141.4469,89.4949 L141.9649,89.6859 L142.5339,89.9729 L142.5889,90.7459 C142.5889,91.4419 141.7589,92.2339 140.4209,92.9809 C137.0999,93.4279 133.9219,94.3249 130.9499,95.6159 C130.2349,95.6789 129.5159,95.7179 128.8029,95.7179 C128.7769,95.7179 128.7519,95.7159 128.7259,95.7159 C129.1119,95.2099 129.4259,94.6829 129.6489,94.1279 C130.3469,92.3909 130.1129,90.7649 129.6479,89.4949 L131.1579,89.4949 C130.9719,89.8049 130.8589,90.1629 130.8589,90.5509 L130.8589,91.6059 C130.8589,92.7419 131.7769,93.6609 132.9139,93.6609 C134.0509,93.6609 134.9699,92.7419 134.9699,91.6059 L134.9699,90.5509 C134.9699,90.1629 134.8559,89.8049 134.6699,89.4949 L141.4469,89.4949 Z M124.3049,96.7879 C123.7809,97.0809 123.1209,96.8499 122.8829,96.2979 C121.5589,93.2299 119.8399,90.3709 117.7899,87.7859 C117.2849,87.1499 117.7259,86.2169 118.5369,86.1789 C120.6119,86.0809 123.9209,86.2339 126.2219,87.8479 C126.3799,87.9959 126.5369,88.1359 126.6939,88.2889 C126.8999,88.5309 128.8019,90.8729 127.7929,93.3829 C127.4149,94.3239 126.4859,95.5639 124.3049,96.7879 L124.3049,96.7879 Z M52.4779,113.0619 C52.0859,105.3409 54.1609,98.1169 57.9799,92.1039 C59.7139,89.3729 63.1339,88.2489 66.1839,89.3289 C71.9039,91.3559 81.0589,94.0999 88.6789,94.0999 C91.9309,94.0999 94.9029,93.5999 97.2079,92.3299 C101.8949,89.7489 106.0829,88.2279 109.6719,87.3639 C112.3649,86.7169 115.2239,87.6599 116.8799,89.8799 C121.3249,95.8379 123.9639,103.2189 123.9639,111.2079 C123.9639,131.7719 106.5199,148.3369 85.6529,146.8859 C67.7669,145.6429 53.3879,130.9679 52.4779,113.0619 L52.4779,113.0619 Z M52.2379,122.7409 C53.7679,127.4989 56.2179,131.8469 59.3769,135.5769 C56.0129,134.8699 53.1659,132.3289 52.2639,128.7789 C51.8989,127.3399 51.9459,125.1629 52.2379,122.7409 L52.2379,122.7409 Z M85.4439,67.7749 C86.4949,65.7909 89.0329,64.7169 92.9879,64.5799 C93.2699,64.5699 93.5459,64.5659 93.8169,64.5659 C97.7949,64.5659 100.6149,65.6129 102.2059,67.6849 C103.3609,69.1889 103.7239,71.0469 103.7609,72.6859 C103.7769,73.3589 103.1519,73.8539 102.4989,73.6839 C97.2479,72.3159 91.7109,71.7249 86.0479,72.3579 C85.5039,72.4179 85.0019,72.0409 84.9359,71.4959 C84.7739,70.1639 84.8719,68.8549 85.4439,67.7749 L85.4439,67.7749 Z M114.9829,80.7279 C116.7399,81.6469 116.2579,84.2889 114.2859,84.4959 C109.4519,85.0029 103.3769,86.6489 96.2429,90.5779 C88.9519,94.5919 73.3619,89.7949 65.7869,87.0459 C64.3409,86.5209 64.0059,84.6449 65.1709,83.6399 C67.8069,81.3649 71.9809,78.3969 77.5399,76.3859 C79.2009,75.8139 80.9729,75.3069 82.8539,74.9059 C82.8609,74.9039 82.8689,74.9019 82.8779,74.8999 C83.2129,74.8289 83.5519,74.7629 83.8939,74.6979 C93.6049,73.0039 104.1339,75.0519 114.9829,80.7279 L114.9829,80.7279 Z M60.9749,72.6929 C61.1819,72.5859 61.3459,72.4089 61.4369,72.1929 C61.4649,72.1279 64.2729,65.5559 70.0489,59.9299 C75.6209,54.5019 81.9039,51.7749 88.8039,51.7749 C91.3689,51.7749 94.0199,52.1519 96.7509,52.9079 C106.9459,55.7279 113.8599,64.4419 114.5459,75.0029 C114.6439,76.5019 113.1039,77.5549 111.7299,76.9449 C110.2269,76.2789 108.6859,75.6619 107.1129,75.1069 C106.3059,74.8209 105.7559,74.0709 105.7689,73.2159 C105.8019,71.1229 105.4119,68.5819 103.7999,66.4769 C101.6859,63.7159 98.0159,62.3989 92.9199,62.5819 C88.1969,62.7439 85.0879,64.1769 83.6769,66.8379 C82.9779,68.1579 82.7849,69.6359 82.8799,71.0969 C82.9429,72.0689 82.3049,72.9449 81.3559,73.1669 C80.2279,73.4299 79.0969,73.7449 77.9649,74.1169 C66.6039,77.8509 60.5549,85.3579 60.3029,85.6759 C60.2539,85.7369 60.2369,85.8149 60.2049,85.8839 C56.8999,89.5339 54.3009,93.8329 52.6179,98.5639 C51.6959,101.1539 48.1199,101.3209 47.0309,98.7959 C46.8169,98.2999 46.6159,97.7819 46.4289,97.2439 C44.3679,91.3169 46.1399,85.4159 51.6939,79.7009 C55.9489,75.3229 60.9249,72.7199 60.9749,72.6929 L60.9749,72.6929 Z M85.9869,49.9659 C75.6709,51.0809 68.5259,57.9149 64.2979,63.5799 C63.7879,64.2639 63.0309,64.7169 62.1829,64.8059 C61.8609,64.8389 61.5189,64.8589 61.1539,64.8589 C57.8809,64.8589 56.2319,63.3929 56.1179,63.2899 C55.2629,62.4589 53.8939,62.4639 53.0479,63.3119 C52.1929,64.1669 52.1929,65.5489 53.0479,66.4039 C53.3279,66.6859 55.8639,69.0679 60.6889,69.2179 C60.2289,70.0669 59.9099,70.7249 59.7409,71.0889 C59.0149,71.4939 57.1139,72.6079 54.8609,74.3189 C53.9259,75.0299 52.6619,75.0999 51.6249,74.5489 C51.3989,74.4289 51.1729,74.3039 50.9489,74.1749 C42.2529,69.1669 36.5129,58.4349 35.9599,46.1569 C36.2699,41.7039 38.3019,40.0639 41.1099,37.7969 C42.1119,36.9869 43.2489,36.0699 44.3679,34.9499 L48.2959,31.0239 C49.5109,29.8079 51.3659,29.4979 52.9019,30.2699 C56.8639,32.2579 63.8229,35.2429 69.9019,35.2429 C77.3789,35.2429 85.6939,38.7379 86.3339,46.4099 C86.2719,47.6129 86.1469,48.7969 85.9869,49.9659 L85.9869,49.9659 Z M144.4899,89.2689 C144.4659,88.9159 144.2579,88.6029 143.9429,88.4429 L142.8139,87.8739 C142.7789,87.8569 142.7449,87.8409 142.7089,87.8279 L141.9709,87.5569 C141.8609,87.5159 141.7429,87.4949 141.6259,87.4949 L128.5999,87.4949 C128.3699,87.1679 128.1949,86.9659 128.1669,86.9349 C128.1519,86.9179 128.1369,86.9009 128.1209,86.8859 C124.3929,83.2469 120.7669,81.0309 117.3859,79.7659 C117.0949,79.3169 116.8389,78.9229 116.5479,78.4759 C116.5689,78.1469 116.5849,77.8179 116.5929,77.4929 C116.6329,75.9049 116.5439,74.3499 116.3349,72.8339 C117.3129,74.2919 119.0189,75.2229 120.9289,75.0949 C123.6519,74.9129 125.6919,72.4999 125.6919,69.7729 L125.6919,64.0559 C125.6919,61.3879 123.7459,59.0009 121.0909,58.7419 C118.0449,58.4439 115.4699,60.8419 115.4699,63.8279 L115.4699,68.8449 C114.0899,64.1479 111.4909,60.0039 107.9469,56.8029 C107.3599,56.2719 107.0939,55.4579 107.3439,54.7069 C107.8389,53.2169 108.4059,51.8769 109.0359,50.6749 C109.6179,49.5659 111.0779,49.2359 112.0419,50.0359 C112.9059,50.7539 113.8549,51.4329 114.8979,52.0589 C115.6749,52.5249 116.6379,52.6209 117.4929,52.3139 C117.8229,52.4329 118.1729,52.4939 118.5229,52.4939 C119.6889,52.4939 120.7359,51.8469 121.2599,50.8029 C121.6409,50.0359 121.6819,49.1609 121.3899,48.3749 C121.9399,46.7919 121.1839,45.1009 119.7109,44.5349 C119.7039,44.5319 119.6029,44.4819 119.4179,44.3599 C118.3299,43.6499 118.5559,41.9699 119.7979,41.5849 C122.7309,40.6739 125.8259,40.4169 128.8029,40.4169 C131.8139,40.4169 134.9459,40.6829 137.9089,41.6189 C139.2139,42.0319 139.3619,43.8519 138.1409,44.4689 C138.1209,44.4789 138.1109,44.4839 138.1109,44.4839 C136.5159,45.0189 135.6509,46.7519 136.1809,48.3409 C136.1889,48.3629 136.1959,48.3859 136.2039,48.4069 C135.9229,49.1849 135.9689,50.0489 136.3469,50.8059 C136.8699,51.8469 137.9179,52.4939 139.0829,52.4939 C139.4409,52.4939 139.7889,52.4329 140.1149,52.3149 C140.4449,52.4329 140.7919,52.4939 141.1389,52.4939 C141.6859,52.4939 142.2279,52.3439 142.7079,52.0579 C143.7519,51.4319 144.7009,50.7519 145.5669,50.0329 C146.5219,49.2399 147.9799,49.5519 148.5589,50.6499 C150.9719,55.2239 152.4699,61.7799 152.4699,71.1509 C152.4699,79.7609 150.4909,86.9619 146.9529,92.2259 C146.7589,92.5139 146.4279,92.6739 146.0819,92.6629 C145.8049,92.6529 145.5269,92.6479 145.2469,92.6479 C144.7799,92.6479 144.3169,92.6649 143.8549,92.6829 C144.3109,92.0609 144.5869,91.3939 144.5859,90.6779 L144.4899,89.2689 Z M153.1669,38.4289 C156.2199,38.4699 157.0219,39.2369 157.2279,39.6079 C157.9259,40.8599 155.9049,43.5269 154.8169,44.6229 C154.6019,44.8389 154.4979,45.1409 154.5319,45.4419 C154.5679,45.7449 154.7369,46.0149 154.9959,46.1759 C162.0139,50.5629 163.2539,53.4829 163.0579,55.1589 C162.7759,57.5719 159.3529,58.7569 159.3199,58.7689 C159.0149,58.8699 158.7769,59.1109 158.6819,59.4189 C158.5859,59.7259 158.6439,60.0599 158.8369,60.3169 C162.9329,65.7779 164.4479,69.9729 163.2179,72.4439 C161.8889,75.1139 157.6219,75.1619 157.5789,75.1619 C157.1159,75.1639 156.7149,75.4839 156.6089,75.9339 C156.5029,76.3839 156.7189,76.8489 157.1329,77.0569 C157.2099,77.0949 164.8029,80.9699 164.8029,86.4399 C164.8029,87.6659 164.5359,88.5119 163.9859,89.0249 C162.8229,90.1089 160.1619,89.9229 157.3439,89.7289 C156.0899,89.6409 154.7919,89.5509 153.4699,89.5509 C153.0879,89.5509 152.7389,89.7689 152.5709,90.1109 C152.4039,90.4539 152.4459,90.8629 152.6799,91.1649 C152.8319,91.3599 152.9759,91.5489 153.1119,91.7329 C153.6639,92.4729 153.0209,93.4859 152.1149,93.3099 C151.5699,93.2029 151.0219,93.1089 150.4689,93.0269 C149.7899,92.9279 149.4139,92.1669 149.7519,91.5699 C152.7929,86.1959 154.4699,79.2599 154.4699,71.1509 C154.4699,61.3549 152.8339,54.4569 150.2479,49.6079 C149.3839,47.9879 149.4179,46.0489 150.3919,44.4929 C151.6819,42.4329 152.5649,40.3379 153.1669,38.4289 L153.1669,38.4289 Z M159.1089,95.4319 C157.9219,94.9349 156.9619,94.0409 156.3179,92.9269 C156.0749,92.5079 155.7989,92.0699 155.4859,91.6119 C156.0649,91.6449 156.6399,91.6849 157.2059,91.7239 C160.6109,91.9609 163.5509,92.1639 165.3499,90.4869 C166.3279,89.5749 166.8029,88.2509 166.8029,86.4399 C166.8029,81.9529 163.0389,78.5509 160.4379,76.7359 C162.0829,76.2769 164.0139,75.3239 165.0039,73.3449 C166.5339,70.2839 165.2469,65.8419 161.1779,60.1309 C162.5899,59.4019 164.7459,57.8979 165.0429,55.4019 C165.4169,52.2569 162.8019,48.8879 157.0579,45.1209 C158.2689,43.6639 160.1929,40.8229 158.9769,38.6359 C158.2249,37.2839 156.5039,36.5519 153.7189,36.4329 C154.4459,33.3899 154.4699,31.1609 154.4699,30.9359 C154.4699,30.8699 154.4589,30.7769 154.4419,30.6959 C154.4209,30.4669 154.3659,30.2679 154.3059,30.0579 C154.2819,29.9579 154.2459,29.8079 154.1699,29.6459 C154.0749,29.4429 153.9579,29.2909 153.8719,29.1799 L153.7989,29.0799 C153.7329,28.9839 153.6409,28.8519 153.4969,28.7159 C153.3489,28.5789 153.2009,28.4899 153.0929,28.4249 L152.4959,29.2319 L152.9549,28.3369 C152.8679,28.2789 152.7559,28.2039 152.6079,28.1379 C152.5509,28.1059 152.4899,28.0759 152.4359,28.0569 C152.2189,27.9809 152.0289,27.9659 151.8609,27.9519 C151.7569,27.9219 151.5389,27.8529 151.2679,27.8949 C150.9859,27.9099 150.7309,27.9769 150.5009,28.0489 C150.4169,28.0659 150.2809,28.1029 150.2149,28.1309 C149.4849,28.4419 148.9129,29.0119 148.6069,29.7339 C147.2489,32.9009 145.9019,35.4079 144.6469,37.3919 C143.8299,37.5499 142.9909,37.7199 142.1019,37.9169 C141.9529,34.8999 141.1609,27.8829 137.0259,27.8829 C133.5229,27.8829 130.3259,32.4569 128.8029,35.0309 C127.2809,32.4569 124.0839,27.8829 120.5809,27.8829 C116.4469,27.8829 115.6539,34.8929 115.5039,37.9119 C114.7729,37.7469 114.0739,37.5999 113.3919,37.4609 C112.1149,35.4839 110.7009,32.9819 109.2039,29.8199 C109.1049,29.4839 108.8609,29.2719 108.7109,29.1559 C108.6139,29.0229 108.5019,28.8839 108.3869,28.7689 C108.1319,28.5179 107.7989,28.2989 107.4079,28.1269 C107.2569,28.0649 107.1239,28.0479 107.1029,28.0499 C106.8809,27.9809 106.6399,27.9139 106.3519,27.8959 C106.0829,27.8569 105.8699,27.9199 105.7179,27.9539 C105.5879,27.9639 105.3899,27.9799 105.1489,28.0659 C105.1089,28.0809 105.0599,28.1039 105.0149,28.1289 C104.8609,28.1969 104.7419,28.2769 104.6529,28.3369 L104.5369,28.4099 C104.4179,28.4809 104.2559,28.5759 104.1089,28.7179 C103.9749,28.8419 103.8859,28.9689 103.8269,29.0529 L103.7439,29.1639 C103.6549,29.2809 103.5329,29.4419 103.4409,29.6409 C103.3619,29.8049 103.3249,29.9559 103.2829,30.1249 C103.2389,30.2799 103.1859,30.4699 103.1649,30.6949 C103.1479,30.7759 103.1359,30.8719 103.1359,30.9389 C103.1359,31.1629 103.1599,33.3699 103.8759,36.3889 C101.1099,36.5019 99.3939,37.2299 98.6379,38.5749 C97.4029,40.7739 99.3399,43.6499 100.5519,45.1179 C99.2539,45.9689 98.1239,46.7989 97.1439,47.6109 L97.1439,45.1769 C97.1439,31.5079 92.0659,21.5399 85.1319,14.9259 C84.4379,14.2649 84.0219,13.3629 84.0219,12.4039 L84.0219,12.3749 C84.0219,11.9449 83.7469,11.5629 83.3389,11.4269 L78.2289,9.7239 C78.1629,9.6849 78.0969,9.6469 78.0299,9.6089 C77.2529,9.1589 76.5759,8.5569 76.0779,7.8099 L72.9209,3.0739 C72.6709,2.6979 72.1999,2.5369 71.7719,2.6799 L69.1139,3.5659 C67.0819,4.2419 64.8409,3.7139 63.3259,2.1989 L61.8609,0.7339 C61.4709,0.3439 60.8379,0.3439 60.4469,0.7339 L58.9829,2.1989 C57.4669,3.7139 55.2269,4.2419 53.1949,3.5659 L50.5359,2.6799 C50.1079,2.5369 49.6379,2.6979 49.3879,3.0729 L46.2469,7.7859 C45.7319,8.5589 45.0459,9.2019 44.2419,9.6669 L44.2299,9.6739 L38.9699,11.4269 C38.5619,11.5629 38.2869,11.9439 38.2869,12.3749 L38.2869,12.4079 C38.2869,13.3399 37.9129,14.2319 37.2359,14.8699 C31.8519,19.9459 25.9799,28.5549 25.2479,42.2869 C25.1929,43.3089 25.1659,44.2539 25.1659,45.1759 C25.1659,45.8389 25.1619,46.6039 25.1569,47.4489 C25.1169,54.4379 25.0539,65.7789 26.8269,73.3249 C11.7169,77.5999 0.6099,91.5039 0.6099,107.9639 C0.6099,112.2049 1.3519,116.2749 2.7049,120.0579 C1.8269,121.4939 1.1989,122.7689 0.9599,123.7119 C0.2169,126.6369 0.6569,129.6749 2.1999,132.2679 C3.7429,134.8599 6.2019,136.6959 9.1259,137.4379 C10.0549,137.6729 10.9859,137.7859 11.9039,137.7859 C13.1759,137.7859 14.4189,137.5679 15.5899,137.1619 C18.6729,139.3889 22.1169,141.1449 25.8219,142.3119 C20.9299,147.8709 18.1099,155.3809 18.1099,164.1109 C18.1099,173.2749 18.1099,182.0049 25.7519,187.2429 C28.3019,188.9909 29.7759,191.9299 29.7759,195.0219 L29.7759,196.8989 C29.7759,200.5439 32.5169,203.7479 36.1549,203.9849 C38.4569,204.1349 40.5389,203.1369 41.8819,201.5089 C42.6839,200.5359 44.1879,200.6099 45.0019,201.5729 C46.2559,203.0569 48.1299,203.9999 50.2199,203.9999 C52.3109,203.9999 54.1849,203.0569 55.4389,201.5729 C56.2529,200.6099 57.7569,200.5359 58.5589,201.5089 C59.9019,203.1369 61.9839,204.1349 64.2859,203.9849 C67.9239,203.7479 70.6649,200.5439 70.6649,196.8989 L70.6649,195.0219 C70.6649,191.8409 72.2959,188.9369 74.8919,187.0999 C76.0889,186.2539 77.0919,185.3189 77.9349,184.3099 C79.0739,182.9419 80.9879,182.4799 82.6069,183.2219 C87.1619,185.3139 92.2229,186.4839 97.5549,186.4839 C112.1179,186.4839 124.6799,177.7879 130.3429,165.3189 C131.1549,163.5299 133.1739,162.6139 135.0589,163.1729 C139.5269,164.4969 144.3519,164.9789 149.3569,164.4159 C165.9049,162.5569 179.1909,149.2779 181.0209,132.7279 C182.8619,116.0779 173.2659,101.3609 159.1089,95.4319 L159.1089,95.4319 Z" mask="url(#d)"/>
      </g>
      <path fill="#B9BBBE" d="M36.0796 104.2572C36.3306 104.3582 36.5886 104.4052 36.8436 104.4052 37.6606 104.4032 38.4336 103.9152 38.7566 103.1112 42.3876 94.0292 51.2866 92.0902 51.6666 92.0122 52.7766 91.7852 53.4976 90.7012 53.2746 89.5902 53.0526 88.4752 51.9716 87.7562 50.8516 87.9762 50.3886 88.0672 39.4126 90.3812 34.9336 101.5802 34.5106 102.6372 35.0236 103.8352 36.0796 104.2572M106.0249 156.2191C104.5869 156.2191 103.2059 156.8301 102.2369 157.8971 101.2689 158.9621 100.7939 160.3991 100.9319 161.8391 101.1799 164.4271 103.4959 166.4541 106.2039 166.4541 107.7919 166.4541 109.0839 165.1621 109.0839 163.5741L109.0839 159.0991C109.0839 157.5111 107.7919 156.2191 106.2039 156.2191L106.0249 156.2191zM114.0819 156.2191C112.4939 156.2191 111.2019 157.5111 111.2019 159.0991L111.2019 163.5741C111.2019 165.1621 112.4939 166.4541 114.0819 166.4541L120.6159 166.4541C122.2039 166.4541 123.4959 165.1621 123.4959 163.5741L123.4959 159.0991C123.4959 157.5111 122.2039 156.2191 120.6159 156.2191L114.0819 156.2191zM128.4929 156.2191C126.9049 156.2191 125.6129 157.5111 125.6129 159.0991L125.6129 163.5741C125.6129 165.1621 126.9049 166.4541 128.4929 166.4541L135.0279 166.4541C136.6159 166.4541 137.9079 165.1621 137.9079 163.5741L137.9079 159.0991C137.9079 157.5111 136.6159 156.2191 135.0279 156.2191L128.4929 156.2191zM142.9049 156.2191C141.3169 156.2191 140.0249 157.5111 140.0249 159.0991L140.0249 163.5741C140.0249 165.1621 141.3169 166.4541 142.9049 166.4541 145.6129 166.4541 147.9289 164.4271 148.1779 161.8391 148.3159 160.3991 147.8399 158.9621 146.8719 157.8971 145.9029 156.8301 144.5229 156.2191 143.0839 156.2191L142.9049 156.2191zM106.0249 168.5731C102.0349 168.5731 98.7899 165.3261 98.7899 161.3361 98.7899 157.3471 102.0349 154.1021 106.0249 154.1021L143.0839 154.1021C147.0739 154.1021 150.3189 157.3471 150.3189 161.3361 150.3189 165.3261 147.0739 168.5731 143.0839 168.5731L106.0249 168.5731zM113.8794 114.1225C116.0884 114.1225 117.8794 111.6165 117.8794 108.5215 117.8794 105.4295 116.0884 102.9225 113.8794 102.9225 111.6704 102.9225 109.8794 105.4295 109.8794 108.5215 109.8794 111.6165 111.6704 114.1225 113.8794 114.1225M139.9951 114.1225C142.2041 114.1225 143.9951 111.6165 143.9951 108.5215 143.9951 105.4295 142.2041 102.9225 139.9951 102.9225 137.7851 102.9225 135.9951 105.4295 135.9951 108.5215 135.9951 111.6165 137.7851 114.1225 139.9951 114.1225M111.2188 126.4467C111.7228 126.4467 113.0858 132.0147 119.7278 130.1587 120.4638 129.9537 121.2718 130.0747 121.8428 130.5837 124.0238 132.5287 129.2848 134.5027 133.1758 130.6987 133.7358 130.1497 134.5738 129.9657 135.3228 130.1987 140.8868 131.9337 142.0368 126.4467 142.4648 126.4467 144.6918 126.4467 146.4968 124.3327 146.4968 121.7247 146.4968 120.7467 145.8648 119.6657 145.3288 118.9247 145.0128 118.4877 144.4228 118.5237 144.1578 119.0067 143.4688 120.2617 141.8678 122.1947 138.7268 121.5557 137.4148 121.1927 136.2368 120.3997 134.9318 120.0087 132.9538 119.4157 132.1618 119.3847 130.4398 119.9517 130.0478 120.0817 129.6198 120.1127 129.2188 120.0157 126.5808 119.3827 122.4408 119.3927 120.0388 120.0087 118.5118 120.3997 117.1328 121.1927 115.5958 121.5557 112.9758 122.0107 111.2708 121.1617 110.2148 120.1807 108.9538 119.0097 106.7778 119.7037 106.5218 121.4057 106.5058 121.5127 106.4968 121.6197 106.4968 121.7247 106.4968 124.3327 108.6108 126.4467 111.2188 126.4467M213.8457 66.9525L213.3357 66.9525C212.7837 66.9525 212.3357 66.5055 212.3357 65.9525L212.3357 65.4415C212.3357 64.8895 211.8877 64.4415 211.3357 64.4415 210.7827 64.4415 210.3357 64.8895 210.3357 65.4415L210.3357 65.9525C210.3357 66.5055 209.8877 66.9525 209.3357 66.9525L208.8257 66.9525C208.2737 66.9525 207.8257 67.3995 207.8257 67.9525 207.8257 68.5055 208.2737 68.9525 208.8257 68.9525L209.3357 68.9525C209.8877 68.9525 210.3357 69.3995 210.3357 69.9525L210.3357 70.4625C210.3357 71.0145 210.7827 71.4625 211.3357 71.4625 211.8877 71.4625 212.3357 71.0145 212.3357 70.4625L212.3357 69.9525C212.3357 69.3995 212.7837 68.9525 213.3357 68.9525L213.8457 68.9525C214.3977 68.9525 214.8457 68.5055 214.8457 67.9525 214.8457 67.3995 214.3977 66.9525 213.8457 66.9525M6.02 66.9525L5.51 66.9525C4.958 66.9525 4.51 66.5055 4.51 65.9525L4.51 65.4415C4.51 64.8895 4.062 64.4415 3.51 64.4415 2.957 64.4415 2.51 64.8895 2.51 65.4415L2.51 65.9525C2.51 66.5055 2.062 66.9525 1.51 66.9525L1 66.9525C.448 66.9525 0 67.3995 0 67.9525 0 68.5055.448 68.9525 1 68.9525L1.51 68.9525C2.062 68.9525 2.51 69.3995 2.51 69.9525L2.51 70.4625C2.51 71.0145 2.957 71.4625 3.51 71.4625 4.062 71.4625 4.51 71.0145 4.51 70.4625L4.51 69.9525C4.51 69.3995 4.958 68.9525 5.51 68.9525L6.02 68.9525C6.572 68.9525 7.02 68.5055 7.02 67.9525 7.02 67.3995 6.572 66.9525 6.02 66.9525M20.0401 142.5326L20.0401 142.5326C19.2061 142.5326 18.5301 141.8566 18.5301 141.0226 18.5301 140.4696 18.0821 140.0226 17.5301 140.0226 16.9771 140.0226 16.5301 140.4696 16.5301 141.0226 16.5301 141.8566 15.8541 142.5326 15.0201 142.5326 14.4681 142.5326 14.0201 142.9796 14.0201 143.5326 14.0201 144.0856 14.4681 144.5326 15.0201 144.5326 15.8541 144.5326 16.5301 145.2086 16.5301 146.0426 16.5301 146.5946 16.9771 147.0426 17.5301 147.0426 18.0821 147.0426 18.5301 146.5946 18.5301 146.0426 18.5301 145.2086 19.2061 144.5326 20.0401 144.5326L20.0401 144.5326C20.5921 144.5326 21.0401 144.0856 21.0401 143.5326 21.0401 142.9796 20.5921 142.5326 20.0401 142.5326M32.6465 48.6791C32.9025 48.6791 33.1585 48.5811 33.3535 48.3861L34.5375 47.2021C34.9275 46.8121 34.9275 46.1791 34.5375 45.7881 34.1465 45.3981 33.5135 45.3981 33.1235 45.7881L31.9395 46.9721C31.5485 47.3631 31.5485 47.9951 31.9395 48.3861 32.1345 48.5811 32.3905 48.6791 32.6465 48.6791M28.6206 51.7055C28.2296 51.3145 27.5976 51.3145 27.2066 51.7055L26.0236 52.8885C25.6326 53.2785 25.6326 53.9115 26.0236 54.3025 26.2186 54.4975 26.4746 54.5955 26.7306 54.5955 26.9866 54.5955 27.2426 54.4975 27.4376 54.3025L28.6206 53.1195C29.0116 52.7285 29.0116 52.0965 28.6206 51.7055M33.1231 54.3021C33.3181 54.4971 33.5741 54.5951 33.8301 54.5951 34.0861 54.5951 34.3421 54.4971 34.5381 54.3021 34.9281 53.9111 34.9281 53.2781 34.5371 52.8881L33.3531 51.7051C32.9631 51.3151 32.3301 51.3151 31.9391 51.7051 31.5491 52.0961 31.5491 52.7301 31.9391 53.1191L33.1231 54.3021zM27.2066 48.3861C27.4016 48.5811 27.6576 48.6791 27.9136 48.6791 28.1696 48.6791 28.4256 48.5811 28.6206 48.3861 29.0116 47.9951 29.0116 47.3631 28.6206 46.9721L27.4376 45.7881C27.0466 45.3981 26.4146 45.3981 26.0236 45.7881 25.6326 46.1791 25.6326 46.8121 26.0236 47.2021L27.2066 48.3861zM218.9258 91.9652C218.0928 91.9652 217.4158 91.2872 217.4158 90.4552 217.4158 89.6222 218.0928 88.9442 218.9258 88.9442 219.7588 88.9442 220.4358 89.6222 220.4358 90.4552 220.4358 91.2872 219.7588 91.9652 218.9258 91.9652M218.9258 86.9442C216.9898 86.9442 215.4158 88.5202 215.4158 90.4552 215.4158 92.3912 216.9898 93.9652 218.9258 93.9652 220.8618 93.9652 222.4358 92.3912 222.4358 90.4552 222.4358 88.5202 220.8618 86.9442 218.9258 86.9442"/>
    </g>
    <rect width="272" height="212" y="1"/>
  </g>
</svg>
