<svg xmlns="http://www.w3.org/2000/svg" viewBox="0 0 32 32"><linearGradient id="a" gradientUnits="userSpaceOnUse" x1="3.084" y1="3.738" x2="26.448" y2="25.919"><stop offset=".105" stop-color="#939bcc"/><stop offset=".11" stop-color="#949ccd"/><stop offset=".256" stop-color="#aac3de"/><stop offset=".372" stop-color="#b7dbe9"/><stop offset=".444" stop-color="#bce4ed"/><stop offset=".618" stop-color="#c9dae8"/><stop offset=".939" stop-color="#ebbed9"/><stop offset=".944" stop-color="#ecbed9"/></linearGradient><path d="M31.89 15.72L16.28.11a.392.392 0 0 0-.55 0L.11 15.72A.43.43 0 0 0 0 16c0 .1.04.2.11.28l15.61 15.61c.08.07.18.11.28.11.1 0 .2-.04.28-.11l15.61-15.61A.43.43 0 0 0 32 16c0-.1-.04-.2-.11-.28zm-6.77-3.49l-3 5.88c-.07.14.03.31.19.31h1.79c.21 0 .29.26.12.38l-8.1 5.81c-.07.05-.17.05-.25 0l-8.1-5.81c-.17-.12-.08-.38.12-.38h1.79c.16 0 .26-.17.19-.31l-3-5.88c-.1-.19.12-.39.3-.27l7.23 4.75c.12.08.23.2.29.33l1.1 2.21c.08.16.3.16.38 0l1.1-2.21c.07-.13.17-.25.29-.33l7.23-4.75c.21-.12.43.08.33.27z" fill="url(#a)"/></svg>