<svg width="223" height="128" viewBox="0 0 223 128" fill="none" xmlns="http://www.w3.org/2000/svg">
<path opacity="0.6" fill-rule="evenodd" clip-rule="evenodd" d="M113.876 10H154.169C175.748 10 193.242 27.2974 193.242 48.6338C193.242 69.9712 175.748 87.2686 154.169 87.2686H141.93C138.039 87.2686 134.885 90.3876 134.885 94.2351C134.885 98.0826 138.039 101.202 141.93 101.202H187.449C194.933 101.202 201 107.201 201 114.601C201 122.002 194.933 128 187.449 128H34.114C15.2733 128 0 112.898 0 94.2692C0 75.6413 15.2733 60.5395 34.114 60.5395H62.7619C76.8765 60.5395 88.3187 49.2258 88.3187 35.2698C88.3187 21.3126 99.7609 10 113.876 10Z" fill="#4F545C"/>
<path d="M131.417 49.9166V37.5833C131.417 18.0545 115.522 2.16663 95.9998 2.16663C76.464 2.16663 60.5832 18.0545 60.5832 37.5833V49.9166C52.7703 49.9166 46.4165 56.2633 46.4165 64.0833V113.667C46.4165 121.48 52.7703 127.833 60.5832 127.833H131.417C139.229 127.833 145.583 121.48 145.583 113.667V64.0833C145.583 56.2633 139.229 49.9166 131.417 49.9166ZM117.25 49.9166H74.7498V37.5833C74.7498 25.8675 84.284 16.3333 95.9998 16.3333C107.716 16.3333 117.25 25.8675 117.25 37.5833V49.9166Z" fill="#B9BBBE"/>
<path d="M82.9482 77L108.405 102.646" stroke="#36393F" stroke-width="10" stroke-linecap="round"/>
<path d="M82.8535 102.552L108.5 77.0948" stroke="#36393F" stroke-width="10" stroke-linecap="round"/>
<path d="M163.949 4.40909C163.081 4.40909 162.491 3.81889 162.491 2.95096V1.45813C162.491 0.590196 163.081 0 163.949 0C164.817 0 165.407 0.590196 165.407 1.45813V2.91625C165.407 3.8189 164.817 4.40909 163.949 4.40909Z" fill="#9099A4"/>
<path d="M163.949 16.0393C163.081 16.0393 162.491 15.4491 162.491 14.5812V13.123C162.491 12.2551 163.081 11.6649 163.949 11.6649C164.817 11.6649 165.407 12.2551 165.407 13.123V14.5812C165.407 15.4838 164.817 16.0393 163.949 16.0393Z" fill="#9099A4"/>
<path d="M167.594 8.0545C167.594 7.18657 168.184 6.59637 169.052 6.59637H170.51C171.378 6.59637 171.968 7.18657 171.968 8.0545C171.968 8.92243 171.378 9.51263 170.51 9.51263H169.052C168.323 9.47791 167.594 8.92243 167.594 8.0545Z" fill="#9099A4"/>
<path d="M155.93 8.0545C155.93 7.18657 156.52 6.59637 157.388 6.59637H158.846C159.714 6.59637 160.304 7.18657 160.304 8.0545C160.304 8.92243 159.714 9.51263 158.846 9.51263H157.388C156.659 9.47791 155.93 8.92243 155.93 8.0545Z" fill="#9099A4"/>
<path d="M15.8707 32.3769C14.8379 32.3769 14.1356 31.6746 14.1356 30.6418V28.9068C14.1356 27.874 14.8379 27.1718 15.8707 27.1718C16.9034 27.1718 17.6057 27.874 17.6057 28.9068V30.6418C17.6057 31.7159 16.9034 32.3769 15.8707 32.3769Z" fill="#9099A4"/>
<path d="M15.8707 46.2574C14.8379 46.2574 14.1356 45.5551 14.1356 44.5223V42.7873C14.1356 41.7545 14.8379 41.0522 15.8707 41.0522C16.9034 41.0522 17.6057 41.7545 17.6057 42.7873V44.5223C17.6057 45.5964 16.9034 46.2574 15.8707 46.2574Z" fill="#9099A4"/>
<path d="M20.2079 36.7144C20.2079 35.6817 20.9102 34.9794 21.9429 34.9794H23.678C24.7107 34.9794 25.413 35.6817 25.413 36.7144C25.413 37.7472 24.7107 38.4495 23.678 38.4495H21.9429C21.0754 38.4495 20.2079 37.7885 20.2079 36.7144Z" fill="#9099A4"/>
<path d="M6.32764 36.7144C6.32764 35.6817 7.02992 34.9794 8.06268 34.9794H9.79772C10.8305 34.9794 11.5328 35.6817 11.5328 36.7144C11.5328 37.7472 10.8305 38.4495 9.79772 38.4495H8.06268C7.19516 38.4495 6.32764 37.7885 6.32764 36.7144Z" fill="#9099A4"/>
<path opacity="0.5" d="M215.99 64.1324L214.233 58.8641C213.69 57.6098 212.143 57.8188 211.767 58.8641L210.01 64.1324C210.01 64.4669 209.676 64.8432 209.132 65.0105L203.864 66.7666C202.61 67.3101 202.819 68.8571 203.864 69.2334L209.132 70.9895C209.467 70.9895 209.843 71.324 210.01 71.8676L211.767 77.1359C212.31 78.3902 213.857 78.1812 214.233 77.1359L215.99 71.8676C215.99 71.5331 216.324 71.1568 216.868 70.9895L222.136 69.2334C223.39 68.6899 223.181 67.1429 222.136 66.7666L216.868 65.0105C216.324 64.8014 216.157 64.6342 215.99 64.1324Z" fill="#9099A4"/>
</svg>
