<svg height="33" viewBox="0 0 180 200" width="42" xmlns="http://www.w3.org/2000/svg"><path d="m155 165c0-27.5-24.37-50-54.17-50h-21.66c-29.79 0-54.17 22.5-54.17 50v25a36.86 36.86 0 0 0 1.38 10h127.24a36.86 36.86 0 0 0 1.38-10z" fill="#aabff2"/><path d="m171.54 70.53c-2.33-7.19-8.77-7.21-15.08-6.9a53.37 53.37 0 0 0 -4.46-14.07c-7.38-14.8-21.8-17.53-37-18.28-24.29-1.2-49.67-1.85-71.63 8.46-10.32 4.85-13.37 12.89-15.62 18.97-.41 1.12-.73 2.33-1.08 3.5a8.68 8.68 0 0 0 -.89-.14c-16.28-1.07-20.28 12.05-20.07 25.99.1 6.75.53 15.79 3.52 22 3.16 6.55 10.19 6 16.42 5.69a8.07 8.07 0 0 0 1.62-.26c5.18 14.73 18 20.44 32.92 22.39 22.89 3 48.64 3.81 71.45.12 14.21-2.31 20.56-10.79 23.4-22.27a21.88 21.88 0 0 0 5.5-.86c8-2.32 12.44-5.15 13.29-13.9.92-9.44.65-21.38-2.29-30.44z" fill="#aabff2"/><path d="m116.24 70.29c-6-4.63-14.35-4.83-21.53-5.27a135.72 135.72 0 0 0 -30.13 1.58 9.88 9.88 0 0 0 -2.66.86 8.65 8.65 0 0 0 -7.12 6.76c-3.48 14.13-.66 32.13 14.47 38 13.11 5.11 33.08 5.06 43.94-4.21 9.79-8.33 14.79-28.57 3.03-37.72z" fill="#cbdaf7"/><path d="m77.7 93c-3.19 0-6.39 0-9.58.07a3.58 3.58 0 1 0 .45 7.15c3.19.07 6.39.06 9.59.08 4.71.05 4.24-7.3-.46-7.3zm26.09 1.74c-3.54-.22-7.09-.42-10.64-.57-4.06-.18-4.57 6.87-.48 7.15 3.86.28 7.72.51 11.58.72 2 .1 3.54-2.07 3.42-3.88-.13-2.16-1.9-3.3-3.88-3.42z" fill="#aabff2"/><path d="m37 79.85c-8.86 0-7.94 13.71.86 13.71s7.96-13.71-.86-13.71zm101.19.63c-9.41 0-8.43 14.57.92 14.57s8.43-14.57-.92-14.57z"/><path d="m23.76 79c0-2.85-3.45-3.85-5.47-2.65a3.52 3.52 0 0 0 -4.55 2.65 50.9 50.9 0 0 0 -.86 17.87c.57 4.23 1.46 9 6.33 9.9a3.69 3.69 0 0 0 4.35-3.8c-.23-7.97.08-15.97.2-23.97zm139.24-.46a3 3 0 0 0 -2.59-2.4 3.6 3.6 0 0 0 -5.09 3.33c.1 7.48.56 15 1.06 22.44a3.79 3.79 0 0 0 2.94 3.36c11.45 3.09 4.91-21.96 3.68-26.73z" fill="#7d94df"/></svg>