<svg viewBox="0 0 272 93" xmlns="http://www.w3.org/2000/svg"><path d="m266 83h-7.73a5.82 5.82 0 0 1 -1.47 1.54v7.46h9.2z" fill="#72767d" opacity=".2"/><path d="m188 74v6h10v6h8v-5h-2v-2h1.78a3 3 0 1 1 4.44 0h1.78v2h4.29a5.59 5.59 0 0 1 -.19-1.3 6.5 6.5 0 0 1 .8-3.1 11.75 11.75 0 0 0 1.5-6.1 3.88 3.88 0 0 1 4.5-3.8 4.07 4.07 0 0 1 3.3 4 13.2 13.2 0 0 0 1.3 6 5.47 5.47 0 0 1 .8 2.9 6.46 6.46 0 0 1 -.16 1.4h3.15a5.59 5.59 0 0 1 -.19-1.3 6.5 6.5 0 0 1 .8-3.1 11.75 11.75 0 0 0 1.5-6.1 3.88 3.88 0 0 1 4.5-3.8 4.07 4.07 0 0 1 3.3 4 13.2 13.2 0 0 0 1.3 6 5.47 5.47 0 0 1 .8 2.9 6.46 6.46 0 0 1 -.16 1.4h4.15a5.59 5.59 0 0 1 -.19-1.3 6.5 6.5 0 0 1 .8-3.1 11.75 11.75 0 0 0 1.5-6.1 3.88 3.88 0 0 1 4.5-3.8 4.07 4.07 0 0 1 3.3 4 13.2 13.2 0 0 0 1.3 6 5.47 5.47 0 0 1 .8 2.9 6.46 6.46 0 0 1 -.16 1.4h4.86v-2h1.78a3 3 0 0 1 2.22-5v-11a18.05 18.05 0 0 0 -18-18h-25.7a10.15 10.15 0 0 1 -8.3-4.3l-10.5-15.2a21.89 21.89 0 0 0 -18.1-9.5h-7.4v58zm5.3-38.4-1.3-2.6a.75.75 0 0 1 1-1l2.6 1.4a.64.64 0 0 0 .6 0l2.6-1.3a.75.75 0 0 1 1 1l-1.3 2.6a.64.64 0 0 0 0 .6l1.3 2.6a.75.75 0 0 1 -1 1l-2.6-1.3a.64.64 0 0 0 -.6 0l-2.6 1.3a.75.75 0 0 1 -1-1l1.3-2.6a.85.85 0 0 0 0-.7z" fill="#72767d" opacity=".2"/><path d="m252.9 85.7a6 6 0 0 1 -1.4-.27v6.57h3.5v-6.56a5.86 5.86 0 0 1 -2.1.26z" fill="#72767d" opacity=".2"/><path d="m36 74v-13l-10-10v-20l10-10v-5h-8.4a12.55 12.55 0 0 0 -12.6 12.6v32.6a3.8 3.8 0 0 1 -3.8 3.8h-.2a11 11 0 0 0 -11 11v16h36z" fill="#72767d" opacity=".2"/><path d="m221.9 85.7a6 6 0 0 1 -1.4-.27v6.57h3.5v-6.56a5.86 5.86 0 0 1 -2.1.26z" fill="#72767d" opacity=".2"/><path d="m236.9 85.7a6 6 0 0 1 -1.4-.27v6.57h3.5v-6.56a5.86 5.86 0 0 1 -2.1.26z" fill="#72767d" opacity=".2"/><path d="m232.2 83h-4.93a5.82 5.82 0 0 1 -1.47 1.54v7.46h7.9v-7.47a6.41 6.41 0 0 1 -1.5-1.53z" fill="#72767d" opacity=".2"/><path d="m248.2 83h-5.93a5.82 5.82 0 0 1 -1.47 1.54v7.46h8.9v-7.47a6.41 6.41 0 0 1 -1.5-1.53z" fill="#72767d" opacity=".2"/><path d="m217.2 83h-7.2v9h8.7v-7.47a6.41 6.41 0 0 1 -1.5-1.53z" fill="#72767d" opacity=".2"/><path d="m242.5 76.7a13.2 13.2 0 0 1 -1.3-6 4.07 4.07 0 0 0 -3.3-4 3.88 3.88 0 0 0 -4.5 3.8 11.75 11.75 0 0 1 -1.5 6.1 6.5 6.5 0 0 0 -.8 3.1 5.59 5.59 0 0 0 .19 1.3h11.85a6.46 6.46 0 0 0 .16-1.4 5.47 5.47 0 0 0 -.8-2.9z" fill="#040505"/><path d="m242.27 83h-10.07a6.41 6.41 0 0 0 1.5 1.53v7.57a.9.9 0 0 0 1.8 0v-6.67a6 6 0 0 0 1.4.27 5.86 5.86 0 0 0 2.1-.26v6.66a.9.9 0 0 0 1.8 0v-7.56a5.82 5.82 0 0 0 1.47-1.54z" fill="#040505"/><path d="m258.27 83h-10.07a6.41 6.41 0 0 0 1.5 1.53v7.57a.9.9 0 0 0 1.8 0v-6.67a6 6 0 0 0 1.4.27 5.86 5.86 0 0 0 2.1-.26v6.66a.9.9 0 0 0 1.8 0v-7.56a5.82 5.82 0 0 0 1.47-1.54z" fill="#040505"/><path d="m258.5 76.7a13.2 13.2 0 0 1 -1.3-6 4.07 4.07 0 0 0 -3.3-4 3.88 3.88 0 0 0 -4.5 3.8 11.75 11.75 0 0 1 -1.5 6.1 6.5 6.5 0 0 0 -.8 3.1 5.59 5.59 0 0 0 .19 1.3h11.85a6.46 6.46 0 0 0 .16-1.4 5.47 5.47 0 0 0 -.8-2.9z" fill="#040505"/><path d="m227.27 83h-10.07a6.41 6.41 0 0 0 1.5 1.53v7.57a.9.9 0 0 0 1.8 0v-6.67a6 6 0 0 0 1.4.27 5.86 5.86 0 0 0 2.1-.26v6.66a.9.9 0 0 0 1.8 0v-7.56a5.82 5.82 0 0 0 1.47-1.54z" fill="#040505"/><path d="m227.5 76.7a13.2 13.2 0 0 1 -1.3-6 4.07 4.07 0 0 0 -3.3-4 3.88 3.88 0 0 0 -4.5 3.8 11.75 11.75 0 0 1 -1.5 6.1 6.5 6.5 0 0 0 -.8 3.1 5.59 5.59 0 0 0 .19 1.3h11.85a6.46 6.46 0 0 0 .16-1.4 5.47 5.47 0 0 0 -.8-2.9z" fill="#040505"/><path d="m192 38.9a.75.75 0 0 0 1 1l2.6-1.3a.64.64 0 0 1 .6 0l2.6 1.3a.75.75 0 0 0 1-1l-1.3-2.6a.64.64 0 0 1 0-.6l1.3-2.6a.75.75 0 0 0 -1-1l-2.6 1.3a.64.64 0 0 1 -.6 0l-2.6-1.4a.75.75 0 0 0 -1 1l1.3 2.6a.85.85 0 0 1 0 .7z" fill="#fff"/><path d="m220.8 14.3a.94.94 0 0 0 1-1v-1a1 1 0 0 0 -2 0v1a.94.94 0 0 0 1 1z" fill="#72767d"/><path d="m220.8 22.3a.94.94 0 0 0 1-1v-1a1 1 0 0 0 -2 0v1a.94.94 0 0 0 1 1z" fill="#72767d"/><path d="m224.3 17.8h1a1 1 0 0 0 0-2h-1a.94.94 0 0 0 -1 1 1 1 0 0 0 1 1z" fill="#72767d"/><path d="m216.3 17.8h1a1 1 0 0 0 0-2h-1a.94.94 0 0 0 -1 1 1 1 0 0 0 1 1z" fill="#72767d"/><path d="m74 86v-6h-10v-80h-28v74 18h48v-6zm-30-16a1 1 0 1 1 1-1 1 1 0 0 1 -1 1zm0-6a1 1 0 1 1 1-1 1 1 0 0 1 -1 1zm0-6a1 1 0 1 1 1-1 1 1 0 0 1 -1 1zm0-6a1 1 0 1 1 1-1 1 1 0 0 1 -1 1zm0-6a1 1 0 1 1 1-1 1 1 0 0 1 -1 1zm0-6a1 1 0 1 1 1-1 1 1 0 0 1 -1 1zm0-6a1 1 0 1 1 1-1 1 1 0 0 1 -1 1zm0-6a1 1 0 1 1 1-1 1 1 0 0 1 -1 1zm0-6a1 1 0 1 1 1-1 1 1 0 0 1 -1 1zm0-6a1 1 0 1 1 1-1 1 1 0 0 1 -1 1zm4 54a1 1 0 1 1 1-1 1 1 0 0 1 -1 1zm0-6a1 1 0 1 1 1-1 1 1 0 0 1 -1 1zm0-6a1 1 0 1 1 1-1 1 1 0 0 1 -1 1zm0-6a1 1 0 1 1 1-1 1 1 0 0 1 -1 1zm0-6a1 1 0 1 1 1-1 1 1 0 0 1 -1 1zm0-6a1 1 0 1 1 1-1 1 1 0 0 1 -1 1zm0-6a1 1 0 1 1 1-1 1 1 0 0 1 -1 1zm0-6a1 1 0 1 1 1-1 1 1 0 0 1 -1 1zm0-6a1 1 0 1 1 1-1 1 1 0 0 1 -1 1zm0-6a1 1 0 1 1 1-1 1 1 0 0 1 -1 1zm4 54a1 1 0 1 1 1-1 1 1 0 0 1 -1 1zm0-6a1 1 0 1 1 1-1 1 1 0 0 1 -1 1zm0-6a1 1 0 1 1 1-1 1 1 0 0 1 -1 1zm0-6a1 1 0 1 1 1-1 1 1 0 0 1 -1 1zm0-6a1 1 0 1 1 1-1 1 1 0 0 1 -1 1zm0-6a1 1 0 1 1 1-1 1 1 0 0 1 -1 1zm0-6a1 1 0 1 1 1-1 1 1 0 0 1 -1 1zm0-6a1 1 0 1 1 1-1 1 1 0 0 1 -1 1zm0-6a1 1 0 1 1 1-1 1 1 0 0 1 -1 1zm0-6a1 1 0 1 1 1-1 1 1 0 0 1 -1 1zm4 54a1 1 0 1 1 1-1 1 1 0 0 1 -1 1zm0-6a1 1 0 1 1 1-1 1 1 0 0 1 -1 1zm0-6a1 1 0 1 1 1-1 1 1 0 0 1 -1 1zm0-6a1 1 0 1 1 1-1 1 1 0 0 1 -1 1zm0-6a1 1 0 1 1 1-1 1 1 0 0 1 -1 1zm0-6a1 1 0 1 1 1-1 1 1 0 0 1 -1 1zm0-6a1 1 0 1 1 1-1 1 1 0 0 1 -1 1zm0-6a1 1 0 1 1 1-1 1 1 0 0 1 -1 1zm0-6a1 1 0 1 1 1-1 1 1 0 0 1 -1 1zm0-6a1 1 0 1 1 1-1 1 1 0 0 1 -1 1zm1-6h-14v-2h14z" fill="#72767d"/><path d="m97 74h51v-10h-7.2-5.7-51.5-9.6v-1.7-11.4-5.7-35.2h35.3 5.7 11.5 11.3 32.2v19.3 5.7 5 24 10h10v-58-16h-116v74z" fill="#b9bbbe"/><path d="m115 10-26.5 26.5c-5 4.9-9.9 9.8-14.5 14.4v11.4c17.7-17.6 38.4-38.2 52.5-52.3z" fill="#202225"/><path d="m74 10v35.2c12.3-12.3 25.5-25.4 35.3-35.2z" fill="#202225"/><path d="m165 40h5v-5l-1.5 1.5z" fill="#202225"/><path d="m148 40h11.28l10.72-10.7v-19.3h-32.2l-1.2 1.2c-7.3 7.3-17 17-26.8 26.7-9.5 9.5-19 18.9-26.2 26.1h51.5l12.9-12.79z" fill="#202225"/><path d="m140.8 64h7.2v-7.13z" fill="#202225"/><path d="m115 10h-5.7c-9.8 9.8-23 22.9-35.3 35.2v5.7c4.6-4.6 9.5-9.5 14.5-14.4z" fill="#2e3238"/><path d="m136.6 11.2 1.2-1.2h-11.3c-14.1 14.1-34.8 34.7-52.5 52.3v1.7h9.6c7.2-7.2 16.7-16.6 26.2-26.1 9.8-9.7 19.5-19.4 26.8-26.7z" fill="#2e3238"/><path d="m148 51.21-12.9 12.79h5.7l7.2-7.13z" fill="#2e3238"/><path d="m165 40 3.53-3.5 1.47-1.5v-5.7l-10.72 10.7z" fill="#2e3238"/><path d="m26 51 10 10v-40l-10 10z" fill="#202225"/><path d="m188 74h-8-10-22-51-33v6h10 114z" fill="#4f545c"/><path d="m188 80h-114v6h10 114v-6z" fill="#2e3238"/><path d="m206 92v-6h-8-114v6h13 111z" fill="#202225"/><path d="m170 64v-24h-22v34h22zm-16-5.5a2 2 0 1 1 2-2 2 2 0 0 1 -2 2z" fill="#f6f6f7"/><circle cx="154" cy="56.5" fill="#2e3238" r="2"/><path d="m266 92h2 2v-9h-4z" fill="#72767d"/><path d="m265 77a3 3 0 0 0 .78 2h4.44a3 3 0 1 0 -5.22-2z" fill="#72767d"/><path d="m270.22 79h-4.44-1.78v2h6 2v-2z" fill="#b9bbbe"/><path d="m206 92h2 2v-9h-4v3z" fill="#72767d"/><path d="m211 77a3 3 0 1 0 -5.22 2h4.44a3 3 0 0 0 .78-2z" fill="#72767d"/><path d="m210.22 79h-4.44-1.78v2h2 6v-2z" fill="#b9bbbe"/><g fill="#4f545c"><path d="m259.14 81h-11.85-4.15-11.85-3.15-11.85-4.29-6v2h4 7.2 10.07 4.93 10.07 5.93 10.07 7.73 4v-2h-6z"/><circle cx="44" cy="15" r="1"/><circle cx="48" cy="15" r="1"/><circle cx="52" cy="15" r="1"/><circle cx="56" cy="15" r="1"/><circle cx="44" cy="21" r="1"/><circle cx="48" cy="21" r="1"/><circle cx="52" cy="21" r="1"/><circle cx="56" cy="21" r="1"/><circle cx="44" cy="27" r="1"/><circle cx="48" cy="27" r="1"/><circle cx="52" cy="27" r="1"/><circle cx="56" cy="27" r="1"/><circle cx="44" cy="33" r="1"/><circle cx="48" cy="33" r="1"/><circle cx="52" cy="33" r="1"/><circle cx="56" cy="33" r="1"/><circle cx="44" cy="39" r="1"/><circle cx="48" cy="39" r="1"/><circle cx="52" cy="39" r="1"/><circle cx="56" cy="39" r="1"/><circle cx="44" cy="45" r="1"/><circle cx="48" cy="45" r="1"/><circle cx="52" cy="45" r="1"/><circle cx="56" cy="45" r="1"/><circle cx="44" cy="51" r="1"/><circle cx="48" cy="51" r="1"/><circle cx="52" cy="51" r="1"/><circle cx="56" cy="51" r="1"/><circle cx="44" cy="57" r="1"/><circle cx="48" cy="57" r="1"/><circle cx="52" cy="57" r="1"/><circle cx="56" cy="57" r="1"/><circle cx="44" cy="63" r="1"/><circle cx="48" cy="63" r="1"/><circle cx="52" cy="63" r="1"/><circle cx="56" cy="63" r="1"/><circle cx="44" cy="69" r="1"/><circle cx="48" cy="69" r="1"/><circle cx="52" cy="69" r="1"/><circle cx="56" cy="69" r="1"/><path d="m43 8h14v2h-14z"/></g></svg>