<svg xmlns="http://www.w3.org/2000/svg" viewBox="0 0 433 200">
  <defs>
    <linearGradient id="a" x1="251.35" y1="-75.45" x2="251.35" y2="-189.1" gradientTransform="matrix(1 0 0 -1 -179.5 -4)" gradientUnits="userSpaceOnUse">
      <stop offset="0" stop-color="#72767d"/>
      <stop offset="1" stop-color="#fff" stop-opacity="0"/>
    </linearGradient>
  </defs>
  <path d="M.5 198.62v-10.19a15.29 15.29 0 0 1 4.55-10.88l21.21-21.21A19.6 19.6 0 0 0 32 142.42V116a22.11 22.11 0 0 1 22-22h305.59a22.11 22.11 0 0 1 22 22v49.59a8.29 8.29 0 0 0 8.26 8.26h20.8a18.61 18.61 0 0 1 18.6 18.59v6.2z" fill="#72767d" opacity=".2" style="isolation:isolate"/>
  <path d="M150.91 102.2H111v96.42h39.94z" fill="#36393f"/>
  <path d="M349.26 102.2H150.91v96.42h198.35z" fill="#4f545c"/>
  <path d="M192.24 143.53h-41.33v55.09h41.33z" fill="#b9bbbe"/>
  <path d="M197.74 135.26h-46.83v8.27h46.83z" fill="#dcddde"/>
  <path d="M150.91 135.26h-26.17v8.27h26.17z" fill="#72767d"/>
  <path d="M186.73 121.49h-35.82v13.77h35.82z" fill="#f6f6f7"/>
  <path d="M150.91 121.49h-12.39v13.77h12.39z" fill="#b9bbbe"/>
  <path d="M185.35 150.41H157.8v2.76h27.55z" fill="#72767d"/>
  <path d="M185.35 153.17H157.8v2.75h27.55z" fill="#4f545c"/>
  <path d="M185.35 155.92H157.8v2.76h27.55z" fill="#72767d"/>
  <path d="M185.35 158.68H157.8v2.75h27.55z" fill="#4f545c"/>
  <path d="M185.35 161.43H157.8v2.76h27.55z" fill="#72767d"/>
  <path d="M185.35 164.19H157.8v2.75h27.55z" fill="#4f545c"/>
  <path d="M185.35 166.94H157.8v2.76h27.55z" fill="#72767d"/>
  <path d="M185.35 169.7H157.8v2.75h27.55z" fill="#4f545c"/>
  <path d="M188.1 172.45H155V178h33.1z" fill="#dcddde"/>
  <path d="M150.91 143.53h-22v55.09h22z" fill="#202225"/>
  <path d="M135.76 172.45H144v-17.91a4.14 4.14 0 0 0-8.27 0z" fill="#36393f"/>
  <path d="M335.49 135.26h-30.31v46.83h30.31z" fill="#72767d"/>
  <path d="M331.35 139.39h-22V178h22z" fill="#b9bbbe"/>
  <path d="M208.69 198.57h82.64V129.7h-82.64z" fill="#72767d"/>
  <path d="M214.2 198.57h71.62v-63.36H214.2z" fill="#040405"/>
  <path d="M252.84 133.88h-5.51v64.74h5.51z" fill="#72767d"/>
  <path d="M261.11 167.63h-22v11h22zM217 48.48h-66.09A16.58 16.58 0 0 0 134.38 65v16.54H217z" fill="#72767d"/>
  <path d="M201.88 48.48h103.3A16.58 16.58 0 0 1 321.71 65v16.54H185.35V65a16.49 16.49 0 0 1 16.53-16.52z" fill="#b9bbbe"/>
  <path d="M190.86 81.54V65a11.05 11.05 0 0 1 11-11h103.3a11.05 11.05 0 0 1 11 11v16.54z" fill="#72767d"/>
  <path d="M354.77 69.15H150.91v39.94h203.86z" fill="#dcddde"/>
  <path d="M150.84 103.53h198.34v-6.89H150.84zM349.26 85.67H150.91v6.89h198.35zM150.84 81.49h198.34V74.6H150.84z" fill="#f6f6f7"/>
  <path d="M150.91 69.15h-45.45v39.94h45.45z" fill="#b9bbbe"/>
  <path d="M110.89 103.53h40v-6.89h-40zM110.89 92.51h40v-6.89h-40zM110.89 81.49h40V74.6h-40z" fill="#dcddde"/>
  <path d="M378.74 3.86a18.76 18.76 0 0 1 .41-3.86 20.83 20.83 0 1 0 24.24 24.24 17.14 17.14 0 0 1-3.85.42 20.78 20.78 0 0 1-20.8-20.8zM11.66 134.3l-1.79 3.58a1 1 0 0 0 1.37 1.38l3.59-1.79a.85.85 0 0 1 .82 0l3.58 1.79a1 1 0 0 0 1.38-1.38l-1.79-3.58a.87.87 0 0 1 0-.83l1.79-3.58a1 1 0 0 0-1.38-1.38l-3.58 1.79a.85.85 0 0 1-.82 0l-3.59-1.79a1 1 0 0 0-1.37 1.38l1.79 3.58a.93.93 0 0 1 0 .83z" fill="#b9bbbe"/>
  <path d="M345.54 55.1l-1.79 3.58a1 1 0 0 0 1.38 1.38l3.58-1.8a.93.93 0 0 1 .83 0l3.58 1.8a1 1 0 0 0 1.37-1.38l-1.79-3.58a.93.93 0 0 1 0-.83l1.79-3.58a1 1 0 0 0-1.37-1.38l-3.58 1.79a.87.87 0 0 1-.83 0l-3.58-1.79a1 1 0 0 0-1.38 1.38l1.79 3.58a.87.87 0 0 1 0 .83z" fill="#4f545c"/>
  <path d="M425.43 47.8a1.31 1.31 0 0 1-1.38-1.38V45a1.38 1.38 0 0 1 2.76 0v1.38a1.48 1.48 0 0 1-1.38 1.42zM425.43 58.82a1.31 1.31 0 0 1-1.38-1.38v-1.38a1.38 1.38 0 0 1 2.76 0v1.38a1.48 1.48 0 0 1-1.38 1.38zM428.88 51.24a1.3 1.3 0 0 1 1.37-1.38h1.38a1.38 1.38 0 0 1 0 2.76h-1.38a1.38 1.38 0 0 1-1.37-1.38zM417.86 51.24a1.3 1.3 0 0 1 1.37-1.38h1.38a1.38 1.38 0 0 1 0 2.76h-1.38a1.38 1.38 0 0 1-1.37-1.38z" fill="#dcddde"/>
  <path d="M67.58 169.28a5.62 5.62 0 0 0-4.58-5.51 5.34 5.34 0 0 0-6.16 5.23 16.15 16.15 0 0 1-2.07 8.4 8.92 8.92 0 0 0-1.1 4.27 8.64 8.64 0 0 0 8 8.27 8.37 8.37 0 0 0 8.81-8.41 7.51 7.51 0 0 0-1.1-4 18.59 18.59 0 0 1-1.8-8.25z" fill="#040505"/>
  <path d="M58.49 200a1.23 1.23 0 0 1-1.24-1.24v-15.15a1.24 1.24 0 1 1 2.48 0v15.15a1.23 1.23 0 0 1-1.24 1.24zM65.93 200a1.23 1.23 0 0 1-1.24-1.24v-15.15a1.24 1.24 0 1 1 2.48 0v15.15a1.46 1.46 0 0 1-1.24 1.24zM329.84 169.28a5.62 5.62 0 0 0-4.55-5.51 5.34 5.34 0 0 0-6.19 5.23 16.24 16.24 0 0 1-2.07 8.4 8.92 8.92 0 0 0-1.1 4.27 8.64 8.64 0 0 0 8 8.27 8.37 8.37 0 0 0 8.81-8.41 7.51 7.51 0 0 0-1.1-4 18.59 18.59 0 0 1-1.8-8.25z" fill="#040505"/>
  <path d="M320.75 200a1.23 1.23 0 0 1-1.24-1.24v-15.15a1.24 1.24 0 0 1 2.48 0v15.15a1.23 1.23 0 0 1-1.24 1.24zM328.19 200a1.23 1.23 0 0 1-1.24-1.24v-15.15a1.24 1.24 0 0 1 2.48 0v15.15a1.46 1.46 0 0 1-1.24 1.24z" fill="#040505"/>
  <path d="M30.53 198.62h82.64L80.11 80.17H63.59z" fill="url(#a)"/>
  <path d="M59.45 80.17h24.8v-2.76a5.53 5.53 0 0 0-5.51-5.51H65a5.53 5.53 0 0 0-5.51 5.51z" fill="#dcddde"/>
  <path d="M71.85 76V60a10.88 10.88 0 1 1 21.76 0v138.62" fill="none" stroke="#dcddde" stroke-miterlimit="10" stroke-width="2"/>
</svg>
