<svg xmlns="http://www.w3.org/2000/svg" width="24" height="24" viewBox="0 0 24 24">
  <g fill="none" fill-rule="evenodd">
    <path fill="#FFFFFF" d="M16,10.2528087 L16,9 L4,9 L4,11 L14.1279823,11 C14.7114074,10.676233 15.3393223,10.4232983 16,10.2528087 Z M11.7574567,13 L4,13 L4,15 L10.5826987,15 C10.8769599,14.2743353 11.2746938,13.6015805 11.7574567,13 Z M10.0620401,17 L4,17 L4,19 L10.0621141,19 C10.021119,18.67233 10,18.3385783 10,18 C10,17.6613397 10.0210962,17.3275942 10.0620401,17 Z M4,5 L20,5 L20,7 L4,7 L4,5 Z" opacity=".6"/>
    <rect width="24" height="24"/>
  </g>
</svg>
