<svg width="40" height="40" viewBox="0 0 40 40" fill="none" xmlns="http://www.w3.org/2000/svg">
<rect width="40" height="40" rx="20" fill="url(#paint0_linear_691_89571)"/>
<path d="M27 14.0004C23.56 14.0004 20.826 10.4354 20.799 10.3984C20.421 9.89844 19.579 9.89844 19.201 10.3984C19.174 10.4354 16.44 14.0004 13 14.0004C12.447 14.0004 12 14.4484 12 15.0004V22.0004C12 25.8074 18.764 29.4784 19.534 29.8844C19.68 29.9614 19.84 29.9984 20 29.9984C20.16 29.9984 20.32 29.9604 20.466 29.8844C21.236 29.4784 28 25.8074 28 22.0004V15.0004C28 14.4484 27.553 14.0004 27 14.0004ZM23 24.0004L20 22.0004L17 24.0004L18 21.0004L16 19.0004H19L20 16.0004L21 19.0004H24L22 21.0004L23 24.0004Z" fill="white"/>
<defs>
<linearGradient id="paint0_linear_691_89571" x1="20" y1="0" x2="20" y2="40" gradientUnits="userSpaceOnUse">
<stop stop-color="#FFE75C"/>
<stop offset="1" stop-color="#FF8C19"/>
</linearGradient>
</defs>
</svg>
