<svg width="280" height="120" viewBox="0 0 280 120" fill="none" xmlns="http://www.w3.org/2000/svg">
<path d="M251.18 91.39V30.67C251.18 27.3643 250.529 24.0909 249.263 21.0371C247.997 17.9832 246.142 15.2087 243.804 12.8721C241.465 10.5356 238.689 8.6827 235.634 7.41946C232.58 6.15623 229.306 5.50739 226 5.51002H92.3C85.8976 5.51433 79.6304 7.35211 74.2395 10.806C68.8487 14.2599 64.5598 19.1854 61.88 25L60.47 28C59.834 29.3768 58.8169 30.5425 57.5392 31.3595C56.2615 32.1765 54.7766 32.6104 53.26 32.61H43.9C41.0211 32.6113 38.1706 33.18 35.5115 34.2836C32.8525 35.3871 30.437 37.0039 28.4031 39.0415C26.3693 41.079 24.7569 43.4975 23.6582 46.1585C22.5595 48.8196 21.9961 51.6711 22 54.55V93.06L4.51 103.24C3.13802 104.038 1.99944 105.182 1.20803 106.558C0.416611 107.934 6.36116e-05 109.493 0 111.08L0 120H280V103.87C280 100.56 278.685 97.3858 276.345 95.0453C274.004 92.7049 270.83 91.39 267.52 91.39H251.18Z" fill="#D6E3FF"/>
<path d="M144.81 28.5801L143.72 24.4001C143.458 23.3935 143.001 22.4483 142.373 21.6186C141.746 20.7888 140.962 20.0908 140.064 19.5643C139.167 19.0378 138.175 18.6931 137.145 18.55C136.115 18.4068 135.067 18.468 134.06 18.7301C133.053 18.9909 132.106 19.4478 131.276 20.0746C130.445 20.7013 129.746 21.4857 129.218 22.3829C128.691 23.28 128.345 24.2723 128.201 25.3031C128.057 26.3338 128.118 27.3828 128.38 28.3901L129.44 32.3901C130.106 35.0758 129.924 37.9016 128.92 40.4801C127.772 43.5551 127.855 46.9542 129.15 49.9701C130.159 52.4386 131.931 54.5201 134.207 55.9107C136.482 57.3013 139.143 57.9282 141.8 57.7001C144.315 57.5172 146.72 56.5921 148.708 55.0418C150.697 53.4915 152.182 51.3859 152.973 48.9915C153.764 46.5971 153.827 44.0217 153.154 41.5915C152.48 39.1613 151.101 36.9857 149.19 35.3401C147.076 33.5849 145.548 31.2266 144.81 28.5801Z" fill="black"/>
<path d="M140.07 54.4199L137.86 76.3299" stroke="black" stroke-width="3.4307" stroke-miterlimit="10" stroke-linecap="round"/>
<path d="M30.4701 115.49H36.7201L33.2801 120H29.0701L30.4701 115.49Z" fill="#B1805B"/>
<path d="M57.86 120H53.65L50.21 115.49H56.47L57.86 120Z" fill="#B1805B"/>
<path d="M15.88 115.49H22.12L18.69 120H14.47L15.88 115.49Z" fill="#303338"/>
<path d="M39.39 115.49H45.64L42.21 120H37.99L39.39 115.49Z" fill="#303338"/>
<path d="M34.4086 54.3048C34.538 54.1754 34.7135 54.1027 34.8965 54.1027C35.0795 54.1027 35.255 54.1754 35.3844 54.3048L41.1119 60.0324L40.1432 61.0011L34.4156 55.2735C34.2862 55.1441 34.2135 54.9686 34.2135 54.7856C34.2135 54.6026 34.2862 54.4271 34.4156 54.2977L34.4086 54.3048Z" fill="#202225"/>
<path d="M148.25 115.06H141.08V120H148.25V115.06Z" fill="#8B574F"/>
<path d="M232.3 115.06H225.13V120H232.3V115.06Z" fill="#8B574F"/>
<path d="M148.25 115.06H141.08V118.09H148.25V115.06Z" fill="#51303F"/>
<path d="M232.3 115.06H225.13V118.09H232.3V115.06Z" fill="#51303F"/>
<path d="M171.18 115.06H164.01V120H171.18V115.06Z" fill="#784343"/>
<path d="M255.24 115.06H248.07V120H255.24V115.06Z" fill="#784343"/>
<path d="M171.18 115.06H164.01V120H171.18V115.06Z" fill="#303338"/>
<path d="M255.24 115.06H248.07V120H255.24V115.06Z" fill="#303338"/>
<path d="M171.19 76.3301H142.36V115.4H171.19V76.3301Z" fill="#305DCE"/>
<path d="M170.08 62.1799H250.14V98.9999H165.29V66.9999C165.285 66.368 165.405 65.7413 165.643 65.1561C165.882 64.5709 166.234 64.0388 166.679 63.5905C167.125 63.1423 167.655 62.7868 168.238 62.5447C168.822 62.3026 169.448 62.1786 170.08 62.1799V62.1799Z" fill="#4A76E6"/>
<path opacity="0.5" d="M209.3 62.19C208.669 62.1886 208.044 62.3123 207.461 62.5538C206.878 62.7953 206.348 63.1498 205.903 63.597C205.458 64.0442 205.105 64.5751 204.866 65.1592C204.627 65.7433 204.506 66.3689 204.51 67V99H201.51V67C201.51 65.7322 202.014 64.5164 202.91 63.62C203.806 62.7236 205.022 62.22 206.29 62.22L209.3 62.19Z" fill="#305DCE"/>
<path d="M250.14 62.1799C250.771 62.1799 251.396 62.3049 251.979 62.5476C252.561 62.7903 253.09 63.146 253.534 63.5941C253.979 64.0422 254.33 64.5739 254.568 65.1584C254.806 65.743 254.925 66.3689 254.92 66.9999V82.4599H245.35V66.9999C245.345 66.368 245.465 65.7413 245.703 65.1561C245.942 64.5709 246.294 64.0388 246.739 63.5905C247.185 63.1423 247.715 62.7868 248.298 62.5447C248.882 62.3026 249.508 62.1786 250.14 62.1799V62.1799Z" fill="#305DCE"/>
<path d="M265.42 87.7901V105.2C265.42 107.901 264.348 110.491 262.439 112.402C260.53 114.313 257.941 115.387 255.24 115.39H231V76.3301H254C257.032 76.3407 259.937 77.5527 262.078 79.7007C264.218 81.8488 265.42 84.7576 265.42 87.7901V87.7901Z" fill="#4A76E6"/>
<path d="M242.49 87.7901V105.2C242.49 107.903 241.416 110.495 239.505 112.406C237.594 114.317 235.002 115.39 232.3 115.39H141.08C138.377 115.39 135.785 114.317 133.874 112.406C131.963 110.495 130.89 107.903 130.89 105.2V87.7901C130.89 86.2843 131.187 84.7933 131.763 83.4022C132.34 82.0112 133.185 80.7474 134.25 79.6831C135.315 78.6188 136.58 77.7749 137.971 77.1996C139.363 76.6242 140.854 76.3288 142.36 76.3301C145.4 76.3301 148.316 77.5372 150.467 79.686C152.618 81.8349 153.827 84.7498 153.83 87.7901V99.0001H219.55V87.7901C219.553 84.7533 220.759 81.8414 222.906 79.6931C225.052 77.5448 227.963 76.3354 231 76.3301C232.507 76.3275 234 76.6219 235.393 77.1965C236.786 77.7711 238.053 78.6147 239.12 79.679C240.187 80.7433 241.034 82.0074 241.612 83.3992C242.19 84.7909 242.489 86.283 242.49 87.7901Z" fill="#718EF7"/>
<path d="M231.02 90.35C232.434 90.35 233.58 89.2038 233.58 87.79C233.58 86.3761 232.434 85.23 231.02 85.23C229.606 85.23 228.46 86.3761 228.46 87.79C228.46 89.2038 229.606 90.35 231.02 90.35Z" fill="#4A76E6"/>
<path d="M142.36 90.35C143.774 90.35 144.92 89.2038 144.92 87.79C144.92 86.3761 143.774 85.23 142.36 85.23C140.946 85.23 139.8 86.3761 139.8 87.79C139.8 89.2038 140.946 90.35 142.36 90.35Z" fill="#4A76E6"/>
<path d="M25.28 94.6399H11.48V115.49H25.28V94.6399Z" fill="#C9CDE0"/>
<path d="M61.66 94.6399H25.28V115.49H61.66V94.6399Z" fill="white"/>
<path d="M57.8601 98.0601H29.0701V112.08H57.8601V98.0601Z" fill="#C9DBF7"/>
<path d="M57.8601 104.72H29.0701V105.77H57.8601V104.72Z" fill="#36393F"/>
<path d="M48.4 104.72H39L40 106.53C40.0987 106.706 40.2447 106.851 40.4214 106.948C40.5982 107.045 40.7986 107.091 41 107.08H46.45C46.6514 107.091 46.8518 107.045 47.0286 106.948C47.2053 106.851 47.3513 106.706 47.45 106.53L48.4 104.72Z" fill="#36393F"/>
<path d="M40.0601 60C29.9301 70.13 29.0601 76.43 29.0601 91.33" stroke="#C9CDE0" stroke-width="2.10716" stroke-miterlimit="10"/>
<path d="M40.8101 60.7101C40.0394 61.48 39.4279 62.3943 39.0108 63.4006C38.5936 64.407 38.3789 65.4857 38.3789 66.5751C38.3789 67.6645 38.5936 68.7432 39.0108 69.7496C39.4279 70.7559 40.0394 71.6702 40.8101 72.4401L52.5501 60.7101C51.78 59.9379 50.8651 59.3252 49.8578 58.9072C48.8505 58.4891 47.7707 58.2739 46.6801 58.2739C45.5895 58.2739 44.5096 58.4891 43.5023 58.9072C42.4951 59.3252 41.5802 59.9379 40.8101 60.7101V60.7101Z" fill="#EC7DF7"/>
<path d="M35.3202 58.4594L38.5729 55.2067C38.8542 54.9254 39.2357 54.7673 39.6336 54.7673C40.0314 54.7673 40.4129 54.9254 40.6942 55.2067L45.849 60.3615L40.468 65.7426L35.3202 60.5948C35.1788 60.4553 35.0665 60.289 34.9899 60.1058C34.9132 59.9225 34.8738 59.7258 34.8738 59.5271C34.8738 59.3284 34.9132 59.1317 34.9899 58.9484C35.0665 58.7651 35.1788 58.5989 35.3202 58.4594V58.4594Z" fill="#EC7DF7"/>
<path d="M39.76 94.6399H18.38V92.2699C18.38 92.0047 18.4854 91.7503 18.6729 91.5628C18.8605 91.3752 19.1148 91.2699 19.38 91.2699H38.78C39.0452 91.2699 39.2996 91.3752 39.4871 91.5628C39.6747 91.7503 39.78 92.0047 39.78 92.2699V94.6399H39.76Z" fill="#EC7DF7"/>
<path d="M46.58 21.9099L45.22 24.7299C45.1644 24.8697 45.151 25.0227 45.1814 25.17C45.2118 25.3173 45.2847 25.4525 45.3911 25.5589C45.4974 25.6652 45.6326 25.7381 45.7799 25.7685C45.9272 25.7989 46.0802 25.7855 46.22 25.7299L49.04 24.3699C49.1429 24.3203 49.2557 24.2946 49.37 24.2946C49.4843 24.2946 49.5971 24.3203 49.7 24.3699L52.52 25.7299C52.6598 25.7855 52.8128 25.7989 52.9601 25.7685C53.1074 25.7381 53.2426 25.6652 53.349 25.5589C53.4553 25.4525 53.5282 25.3173 53.5586 25.17C53.589 25.0227 53.5756 24.8697 53.52 24.7299L52.17 21.9099C52.1157 21.8066 52.0873 21.6917 52.0873 21.5749C52.0873 21.4582 52.1157 21.3433 52.17 21.2399L53.52 18.4299C53.5756 18.2902 53.589 18.1372 53.5586 17.9899C53.5282 17.8425 53.4553 17.7074 53.349 17.601C53.2426 17.4946 53.1074 17.4217 52.9601 17.3913C52.8128 17.3609 52.6598 17.3744 52.52 17.4299L49.7 18.7799C49.5971 18.8296 49.4843 18.8553 49.37 18.8553C49.2557 18.8553 49.1429 18.8296 49.04 18.7799L46.25 17.3999C46.1102 17.3444 45.9572 17.3309 45.8099 17.3613C45.6626 17.3917 45.5274 17.4646 45.4211 17.571C45.3147 17.6773 45.2418 17.8125 45.2114 17.9599C45.181 18.1072 45.1944 18.2602 45.25 18.3999L46.61 21.2099C46.6592 21.3211 46.6821 21.442 46.6769 21.5634C46.6716 21.6849 46.6385 21.8034 46.58 21.9099V21.9099Z" fill="#A9C2FF"/>
<path d="M172.74 12.2901L171.68 12.6701C171.623 12.6859 171.573 12.7199 171.538 12.7669C171.502 12.8138 171.483 12.8711 171.483 12.9301C171.483 12.989 171.502 13.0463 171.538 13.0932C171.573 13.1402 171.623 13.1742 171.68 13.1901L172.74 13.5601C172.779 13.5746 172.814 13.5973 172.844 13.6266C172.873 13.6559 172.896 13.6912 172.91 13.7301L173.28 14.7901C173.296 14.8468 173.33 14.8968 173.377 14.9324C173.424 14.968 173.481 14.9872 173.54 14.9872C173.599 14.9872 173.656 14.968 173.703 14.9324C173.75 14.8968 173.784 14.8468 173.8 14.7901L174.17 13.7301C174.185 13.6912 174.207 13.6559 174.237 13.6266C174.266 13.5973 174.301 13.5746 174.34 13.5601L175.4 13.1901C175.457 13.1742 175.507 13.1402 175.542 13.0932C175.578 13.0463 175.597 12.989 175.597 12.9301C175.597 12.8711 175.578 12.8138 175.542 12.7669C175.507 12.7199 175.457 12.6859 175.4 12.6701L174.34 12.2901C174.3 12.2775 174.264 12.2555 174.234 12.2259C174.205 12.1963 174.183 12.16 174.17 12.1201L173.8 11.1201C173.784 11.0633 173.75 11.0133 173.703 10.9777C173.656 10.9421 173.599 10.9229 173.54 10.9229C173.481 10.9229 173.424 10.9421 173.377 10.9777C173.33 11.0133 173.296 11.0633 173.28 11.1201L172.91 12.1201C172.898 12.16 172.876 12.1963 172.846 12.2259C172.816 12.2555 172.78 12.2775 172.74 12.2901V12.2901Z" fill="#60CFAC"/>
<path d="M229.72 47.7799C229.72 47.2884 229.321 46.8899 228.83 46.8899C228.338 46.8899 227.94 47.2884 227.94 47.7799V48.6799C227.94 49.1714 228.338 49.5699 228.83 49.5699C229.321 49.5699 229.72 49.1714 229.72 48.6799V47.7799Z" fill="#CFDFFF"/>
<path d="M229.72 54.92C229.72 54.4285 229.321 54.03 228.83 54.03C228.338 54.03 227.94 54.4285 227.94 54.92V55.82C227.94 56.3116 228.338 56.71 228.83 56.71C229.321 56.71 229.72 56.3116 229.72 55.82V54.92Z" fill="#CFDFFF"/>
<path d="M232.85 52.6899C233.342 52.6899 233.74 52.2914 233.74 51.7999C233.74 51.3084 233.342 50.9099 232.85 50.9099H231.95C231.458 50.9099 231.06 51.3084 231.06 51.7999C231.06 52.2914 231.458 52.6899 231.95 52.6899H232.85Z" fill="#CFDFFF"/>
<path d="M225.72 52.6899C226.212 52.6899 226.61 52.2914 226.61 51.7999C226.61 51.3084 226.212 50.9099 225.72 50.9099H224.82C224.329 50.9099 223.93 51.3084 223.93 51.7999C223.93 52.2914 224.329 52.6899 224.82 52.6899H225.72Z" fill="#CFDFFF"/>
<g opacity="0.25">
<path opacity="0.25" d="M12.7001 75.56C12.7001 75.1071 12.3329 74.74 11.8801 74.74C11.4272 74.74 11.0601 75.1071 11.0601 75.56V76.38C11.0601 76.8329 11.4272 77.2 11.8801 77.2C12.3329 77.2 12.7001 76.8329 12.7001 76.38V75.56Z" fill="#AEC7FF"/>
<path opacity="0.25" d="M12.7001 82.12C12.7001 81.6672 12.3329 81.3 11.8801 81.3C11.4272 81.3 11.0601 81.6672 11.0601 82.12V82.94C11.0601 83.3929 11.4272 83.76 11.8801 83.76C12.3329 83.76 12.7001 83.3929 12.7001 82.94V82.12Z" fill="#AEC7FF"/>
<path opacity="0.25" d="M15.5701 80.0699C16.023 80.0699 16.3901 79.7028 16.3901 79.2499C16.3901 78.7971 16.023 78.4299 15.5701 78.4299H14.7501C14.2973 78.4299 13.9301 78.7971 13.9301 79.2499C13.9301 79.7028 14.2973 80.0699 14.7501 80.0699H15.5701Z" fill="#AEC7FF"/>
<path opacity="0.25" d="M9.01008 80.0699C9.46295 80.0699 9.83008 79.7028 9.83008 79.2499C9.83008 78.7971 9.46295 78.4299 9.01008 78.4299H8.19007C7.7372 78.4299 7.37007 78.7971 7.37007 79.2499C7.37007 79.7028 7.7372 80.0699 8.19007 80.0699H9.01008Z" fill="#AEC7FF"/>
</g>
<path d="M30.4701 115.49H36.7201L35.8201 116.67H30.1001L30.4701 115.49Z" fill="#8B574F"/>
<path d="M56.84 116.67H51.11L50.21 115.49H56.47L56.84 116.67Z" fill="#8B574F"/>
<path d="M234.28 35.3999H232.08V44.6199H234.28V35.3999Z" fill="#C9CDE0"/>
<path d="M186.53 35.3999H184.33V44.6199H186.53V35.3999Z" fill="#C9CDE0"/>
<path d="M227.89 35.3999L234.28 44.6199H231.4L225 35.3999H227.89Z" fill="#ADB2C6"/>
<path d="M180.13 35.3999L186.53 44.6199H183.65L177.25 35.3999H180.13Z" fill="#ADB2C6"/>
<path d="M234.29 31.8401H169.85V35.4001H234.29V31.8401Z" fill="#B1805B"/>
<path d="M232.33 19.14L226.4 17.28H218.71L212.77 19.14C212.58 19.2065 212.414 19.3289 212.294 19.4913C212.175 19.6537 212.107 19.8485 212.1 20.05V31.84H233V20.06C232.995 19.8567 232.928 19.6598 232.809 19.4954C232.689 19.331 232.522 19.2071 232.33 19.14Z" fill="#D1D5E6"/>
<path d="M188 24.46H203.78C203.638 26.4555 202.745 28.323 201.281 29.6864C199.817 31.0498 197.891 31.8078 195.89 31.8078C193.889 31.8078 191.963 31.0498 190.499 29.6864C189.035 28.323 188.142 26.4555 188 24.46V24.46Z" fill="#ADB2C6"/>
<path d="M203.79 23.3901H188C188.142 21.3946 189.035 19.5271 190.499 18.1637C191.963 16.8003 193.889 16.0422 195.89 16.0422C197.891 16.0422 199.817 16.8003 201.281 18.1637C202.745 19.5271 203.638 21.3946 203.78 23.3901H203.79Z" fill="#4A76E6"/>
<path d="M203.79 23.3999H188V24.4599H203.79V23.3999Z" fill="#303338"/>
<path d="M193.88 26.12C195.089 26.12 196.07 25.1395 196.07 23.93C196.07 22.7205 195.089 21.74 193.88 21.74C192.67 21.74 191.69 22.7205 191.69 23.93C191.69 25.1395 192.67 26.12 193.88 26.12Z" fill="#303338"/>
<path d="M193.88 25.32C194.648 25.32 195.27 24.6977 195.27 23.93C195.27 23.1624 194.648 22.54 193.88 22.54C193.112 22.54 192.49 23.1624 192.49 23.93C192.49 24.6977 193.112 25.32 193.88 25.32Z" fill="white"/>
<path d="M201.46 18.3099C200.071 19.2325 198.772 20.2838 197.58 21.4499C197.411 21.6121 197.185 21.7018 196.95 21.6999C196.829 21.7014 196.709 21.6783 196.597 21.6319C196.485 21.5855 196.384 21.5167 196.3 21.4299C196.215 21.3453 196.148 21.2448 196.102 21.1341C196.056 21.0234 196.032 20.9048 196.032 20.7849C196.032 20.665 196.056 20.5463 196.102 20.4356C196.148 20.325 196.215 20.2244 196.3 20.1399C197.432 19.0414 198.653 18.0381 199.95 17.1399C200.5 17.4662 201.007 17.8592 201.46 18.3099V18.3099Z" fill="#EC7DF7"/>
<path d="M191.84 21.5601C191.635 21.6881 191.388 21.7305 191.153 21.6781C190.917 21.6257 190.711 21.4828 190.58 21.2801C190.175 20.6368 189.811 19.9688 189.49 19.2801C189.882 18.7429 190.339 18.2559 190.85 17.8301C191.205 18.6868 191.63 19.5129 192.12 20.3001C192.248 20.5048 192.29 20.7517 192.238 20.9874C192.186 21.2231 192.043 21.4288 191.84 21.5601V21.5601Z" fill="#EC7DF7"/>
<path d="M226.57 19.3501H232.36C232.445 19.3501 232.529 19.367 232.607 19.3997C232.686 19.4325 232.757 19.4806 232.816 19.5411C232.876 19.6016 232.923 19.6733 232.954 19.7521C232.986 19.8309 233.001 19.9152 233 20.0001V31.8401H226V19.8401C226.013 19.7004 226.079 19.5711 226.186 19.4796C226.292 19.3882 226.43 19.3417 226.57 19.3501V19.3501Z" fill="#C1C5D4"/>
<path d="M226.03 23.6201H212.1V31.8401H226.03V23.6201Z" fill="#ADB2C6"/>
<path d="M233 23.6201H226.03V31.8401H233V23.6201Z" fill="#9A9FB3"/>
<path d="M217.51 22.6201H220.62C220.822 22.6201 221.015 22.7002 221.157 22.8427C221.3 22.9852 221.38 23.1786 221.38 23.3801V31.8401H216.76V23.3801C216.76 23.1803 216.839 22.9885 216.979 22.8462C217.119 22.704 217.31 22.6227 217.51 22.6201V22.6201Z" fill="#4A76E6"/>
<path d="M229.4 22.6201H230.69C230.849 22.6201 231.002 22.6833 231.114 22.7959C231.227 22.9084 231.29 23.061 231.29 23.2201V31.8401H228.8V23.2201C228.8 23.061 228.863 22.9084 228.976 22.7959C229.088 22.6833 229.241 22.6201 229.4 22.6201V22.6201Z" fill="#4A76E6"/>
<path d="M220.26 23.6201H217.88C217.62 23.6201 217.41 23.8305 217.41 24.0901C217.41 24.3497 217.62 24.5601 217.88 24.5601H220.26C220.519 24.5601 220.73 24.3497 220.73 24.0901C220.73 23.8305 220.519 23.6201 220.26 23.6201Z" fill="#FFD836"/>
<path d="M230.66 23.6201H229.43C229.297 23.6201 229.19 23.7276 229.19 23.8601V24.3201C229.19 24.4527 229.297 24.5601 229.43 24.5601H230.66C230.792 24.5601 230.9 24.4527 230.9 24.3201V23.8601C230.9 23.7276 230.792 23.6201 230.66 23.6201Z" fill="#FFD836"/>
<path d="M220.26 25.05H217.88C217.62 25.05 217.41 25.2605 217.41 25.5201C217.41 25.7796 217.62 25.99 217.88 25.99H220.26C220.519 25.99 220.73 25.7796 220.73 25.5201C220.73 25.2605 220.519 25.05 220.26 25.05Z" fill="#303338"/>
<path d="M230.66 25.05H229.43C229.297 25.05 229.19 25.1575 229.19 25.2901V25.75C229.19 25.8826 229.297 25.99 229.43 25.99H230.66C230.792 25.99 230.9 25.8826 230.9 25.75V25.2901C230.9 25.1575 230.792 25.05 230.66 25.05Z" fill="#303338"/>
<path d="M220.26 26.48H217.88C217.62 26.48 217.41 26.6904 217.41 26.95C217.41 27.2096 217.62 27.42 217.88 27.42H220.26C220.519 27.42 220.73 27.2096 220.73 26.95C220.73 26.6904 220.519 26.48 220.26 26.48Z" fill="#303338"/>
<path d="M230.66 26.48H229.43C229.297 26.48 229.19 26.5874 229.19 26.72V27.18C229.19 27.3125 229.297 27.42 229.43 27.42H230.66C230.792 27.42 230.9 27.3125 230.9 27.18V26.72C230.9 26.5874 230.792 26.48 230.66 26.48Z" fill="#303338"/>
<path d="M225.85 16.51H219.26C218.956 16.51 218.71 16.7563 218.71 17.06C218.71 17.3638 218.956 17.61 219.26 17.61H225.85C226.154 17.61 226.4 17.3638 226.4 17.06C226.4 16.7563 226.154 16.51 225.85 16.51Z" fill="#9A9FB3"/>
<path d="M205 20.44L206.47 23C206.526 23.0955 206.601 23.1785 206.691 23.2439C206.78 23.3092 206.882 23.3556 206.99 23.38L209.85 23.99C209.985 24.021 210.11 24.0867 210.212 24.1806C210.315 24.2745 210.391 24.3933 210.433 24.5254C210.475 24.6576 210.483 24.7985 210.454 24.9342C210.425 25.07 210.362 25.1961 210.27 25.3L208.27 27.47C208.196 27.5542 208.14 27.6526 208.106 27.7593C208.071 27.8659 208.059 27.9784 208.07 28.09L208.37 30.99C208.386 31.1287 208.365 31.2692 208.309 31.3971C208.253 31.525 208.164 31.6358 208.051 31.7181C207.938 31.8005 207.805 31.8514 207.667 31.8658C207.528 31.8802 207.387 31.8574 207.26 31.8L204.59 30.62C204.487 30.5757 204.377 30.5528 204.265 30.5528C204.153 30.5528 204.043 30.5757 203.94 30.62L201.27 31.8C201.143 31.8574 201.003 31.8802 200.864 31.8658C200.725 31.8514 200.592 31.8005 200.479 31.7181C200.366 31.6358 200.277 31.525 200.221 31.3971C200.165 31.2692 200.144 31.1287 200.16 30.99L200.46 28.09C200.471 27.9784 200.459 27.8659 200.424 27.7593C200.39 27.6526 200.334 27.5542 200.26 27.47L198.31 25.3C198.215 25.1972 198.149 25.0711 198.119 24.9345C198.089 24.7979 198.095 24.6557 198.138 24.5224C198.181 24.3892 198.258 24.2696 198.362 24.1761C198.466 24.0825 198.593 24.0183 198.73 23.99L201.59 23.38C201.698 23.3556 201.8 23.3092 201.889 23.2439C201.979 23.1785 202.054 23.0955 202.11 23L203.57 20.47C203.634 20.3359 203.734 20.2222 203.858 20.1416C203.983 20.0611 204.127 20.0167 204.276 20.0136C204.424 20.0105 204.571 20.0487 204.698 20.124C204.826 20.1993 204.931 20.3087 205 20.44V20.44Z" fill="#FFD836"/>
<path d="M203.79 25.88C203.79 25.6757 203.624 25.51 203.42 25.51C203.216 25.51 203.05 25.6757 203.05 25.88V26.81C203.05 27.0144 203.216 27.18 203.42 27.18C203.624 27.18 203.79 27.0144 203.79 26.81V25.88Z" fill="#36393F"/>
<path d="M205.58 25.88C205.58 25.6757 205.414 25.51 205.21 25.51C205.006 25.51 204.84 25.6757 204.84 25.88V26.81C204.84 27.0144 205.006 27.18 205.21 27.18C205.414 27.18 205.58 27.0144 205.58 26.81V25.88Z" fill="#36393F"/>
<path d="M234.29 31.8401H217.6V35.4001H234.29V31.8401Z" fill="#8B574F"/>
<path d="M146.26 50.25C158.5 50.78 167.14 62.82 167.14 62.82" stroke="black" stroke-width="3.4307" stroke-miterlimit="10" stroke-linecap="round"/>
<path d="M146.37 36.0499C156.16 36.0499 165.02 30.8799 165.02 30.8799" stroke="black" stroke-width="3.4307" stroke-miterlimit="10" stroke-linecap="round"/>
<path d="M135.52 39.3101C121 42.4501 117.08 54.0001 117.08 54.0001" stroke="black" stroke-width="3.4307" stroke-miterlimit="10" stroke-linecap="round"/>
<path d="M165.34 11.55L161.92 16.85L163.64 24.81L168.94 28.23L172.35 22.93L170.64 14.97L165.34 11.55Z" fill="#4BB494"/>
<path d="M166 14.6201L164.18 17.4501L165.45 23.3401L168.27 25.1601L170.09 22.3301L168.82 16.4501L166 14.6201Z" fill="#60CFAC"/>
<path d="M172.35 22.9301L170.09 22.3301L168.27 25.1601L165.45 23.3401L163.64 24.8101L168.94 28.2301L172.35 22.9301Z" fill="#28977B"/>
<path d="M165.34 11.55L166 14.62L168.82 16.45L170.64 14.97L165.34 11.55Z" fill="#7CE2C2"/>
<path d="M172.2 26.4399L165.22 27.9499L165.02 30.8799L173.59 29.0299L172.2 26.4399Z" fill="#303338"/>
<path d="M167.37 26.9699L169.83 26.4399L171.22 29.0299L168.32 29.6599L167.37 26.9699Z" fill="#212326"/>
<path d="M165.45 23.33L169.09 17.69L168.82 16.45L165.18 22.09L165.45 23.33Z" fill="#9DEFD6"/>
<path d="M164.81 20.39L167.79 15.78L167.03 15.29L164.55 19.15L164.81 20.39Z" fill="#9DEFD6"/>
<path d="M117.25 94.6399H103.6V120H117.25V94.6399Z" fill="#E77002"/>
<path d="M74.1899 101.63H87.8399L94.6499 94.6399H80.9999L74.1899 101.63Z" fill="#E77002"/>
<path d="M103.6 94.6399H81V120H103.6V94.6399Z" fill="#F5B312"/>
<path d="M95.1799 94.6399H89.4299V99.7299H95.1799V94.6399Z" fill="#F7D036"/>
<path d="M124.07 101.63H110.42L103.6 94.6399H117.25L124.07 101.63Z" fill="#F5B312"/>
<path d="M90.1524 99.0099L89.4312 99.7312L90.1524 100.452L90.8737 99.7312L90.1524 99.0099Z" fill="#F7D036"/>
<path d="M91.5906 99.0117L90.8694 99.7329L91.5906 100.454L92.3119 99.7329L91.5906 99.0117Z" fill="#F7D036"/>
<path d="M93.022 99.0205L92.3008 99.7417L93.022 100.463L93.7433 99.7417L93.022 99.0205Z" fill="#F7D036"/>
<path d="M94.46 99.0124L93.7388 99.7336L94.46 100.455L95.1813 99.7336L94.46 99.0124Z" fill="#F7D036"/>
<path opacity="0.3" d="M112.06 114.04H106V117.98H112.06V114.04Z" fill="#F5B312"/>
<path opacity="0.3" d="M85.59 98.5H83.27V100.58H85.59V98.5Z" fill="#EF5D28"/>
<path opacity="0.3" d="M84.42 96.3601L82.27 98.5001H86.57L84.42 96.3601Z" fill="#EF5D28"/>
<path d="M82.6001 119C82.2276 118.643 81.7313 118.443 81.2151 118.443C80.6988 118.443 80.2025 118.643 79.8301 119" stroke="#7196FF" stroke-width="2" stroke-miterlimit="10" stroke-linecap="round"/>
<path d="M122.93 118.44C123.302 118.797 123.799 118.997 124.315 118.997C124.831 118.997 125.327 118.797 125.7 118.44" stroke="#B2C1D1" stroke-width="2" stroke-miterlimit="10" stroke-linecap="round"/>
<path d="M90.1499 119C90.1499 118.768 90.104 118.538 90.015 118.324C89.9259 118.11 89.7954 117.916 89.6309 117.752C89.4664 117.588 89.2712 117.459 89.0565 117.371C88.8418 117.283 88.6118 117.239 88.3799 117.24" stroke="#EF769E" stroke-width="2" stroke-miterlimit="10" stroke-linecap="round"/>
</svg>
