<svg width="444" height="140" viewBox="0 0 444 140" fill="none" xmlns="http://www.w3.org/2000/svg">
<g clip-path="url(#clip0_53_9452)">
<g opacity="0.1">
<path d="M553.603 449.08L350.972 57.4253L445.016 449.08H553.603Z" fill="white"/>
<path d="M68.1763 -489.172L350.972 57.4249L219.724 -489.172H68.1763Z" fill="url(#paint0_radial_53_9452)"/>
<path d="M0 -168.695L350.972 57.4247L0 -334.23V-168.695Z" fill="url(#paint1_radial_53_9452)"/>
<path d="M0 57.4252H350.972L0 -47.5175V57.4252Z" fill="url(#paint2_radial_53_9452)"/>
<path d="M0 283.545L350.972 57.4253L0 162.368V283.545Z" fill="white"/>
<path d="M148.341 449.08L350.972 57.4253L0 449.08H148.341Z" fill="white"/>
<path d="M350.973 449.08V57.4253L256.929 449.08H350.973Z" fill="white"/>
<path d="M350.972 -489.172V57.4249L482.22 -489.172H350.972Z" fill="url(#paint3_linear_53_9452)"/>
<path d="M702.452 -334.8V-489.172H633.767L350.972 57.4249L702.452 -334.8Z" fill="url(#paint4_radial_53_9452)"/>
<path d="M702.452 -169.019L350.972 57.4247L702.452 -47.6735V-169.019Z" fill="url(#paint5_radial_53_9452)"/>
<path d="M702.452 57.4253H350.972L702.452 162.523V57.4253Z" fill="url(#paint6_radial_53_9452)"/>
<path d="M702.452 283.869L350.972 57.4253L701.944 449.08H702.452V283.869Z" fill="white"/>
</g>
</g>
<defs>
<radialGradient id="paint0_radial_53_9452" cx="0" cy="0" r="1" gradientUnits="userSpaceOnUse" gradientTransform="translate(351 42.0001) rotate(-110.395) scale(124.825 64.5812)">
<stop stop-color="white"/>
<stop offset="1" stop-color="white" stop-opacity="0"/>
</radialGradient>
<radialGradient id="paint1_radial_53_9452" cx="0" cy="0" r="1" gradientUnits="userSpaceOnUse" gradientTransform="translate(329 57.0001) rotate(-166.993) scale(337.664 302.59)">
<stop stop-color="white"/>
<stop offset="1" stop-color="white" stop-opacity="0"/>
</radialGradient>
<radialGradient id="paint2_radial_53_9452" cx="0" cy="0" r="1" gradientUnits="userSpaceOnUse" gradientTransform="translate(336 56.9998) rotate(-169.834) scale(294.625 985.35)">
<stop stop-color="white"/>
<stop offset="1" stop-color="white" stop-opacity="0"/>
</radialGradient>
<linearGradient id="paint3_linear_53_9452" x1="351" y1="44.0001" x2="367" y2="-114" gradientUnits="userSpaceOnUse">
<stop stop-color="white"/>
<stop offset="1" stop-color="white" stop-opacity="0"/>
</linearGradient>
<radialGradient id="paint4_radial_53_9452" cx="0" cy="0" r="1" gradientUnits="userSpaceOnUse" gradientTransform="translate(351 46.5001) rotate(-50.1232) scale(154.413 99.2924)">
<stop stop-color="white"/>
<stop offset="1" stop-color="white" stop-opacity="0"/>
</radialGradient>
<radialGradient id="paint5_radial_53_9452" cx="0" cy="0" r="1" gradientUnits="userSpaceOnUse" gradientTransform="translate(353 57) rotate(-27.6676) scale(278.889 432.884)">
<stop stop-color="white"/>
<stop offset="1" stop-color="white" stop-opacity="0"/>
</radialGradient>
<radialGradient id="paint6_radial_53_9452" cx="0" cy="0" r="1" gradientUnits="userSpaceOnUse" gradientTransform="translate(355.5 63.5) rotate(6.93899) scale(248.319 830.453)">
<stop stop-color="white"/>
<stop offset="1" stop-color="white" stop-opacity="0"/>
</radialGradient>
<clipPath id="clip0_53_9452">
<rect width="444" height="140" fill="white"/>
</clipPath>
</defs>
</svg>
