<svg fill="none" height="88" viewBox="0 0 178 88" width="178" xmlns="http://www.w3.org/2000/svg" xmlns:xlink="http://www.w3.org/1999/xlink"><clipPath id="a"><path d="m.5 0h177v88h-177z"/></clipPath><g clip-path="url(#a)"><path d="m169.5 45.7h-161c-4.41828 0-8 3.5817-8 8v26.29c0 4.4183 3.58172 8 8 8h161c4.418 0 8-3.5817 8-8v-26.29c0-4.4183-3.582-8-8-8z" fill="#18191c"/><path d="m53.0998 8.8c-.8641-.56192-1.6032-1.29592-2.1709-2.1562-.5678-.86027-.9522-1.82835-1.1291-2.8438l-.5-3.5c0-.079565-.0316-.155871-.0879-.212132-.0563-.0562609-.1326-.087868-.2121-.087868-.2 0-.3.1-.4.3l-.5 3.5c-.1594 1.00917-.5259 1.97442-1.0767 2.83494-.5507.86053-1.2737 1.59769-2.1233 2.16506l-.5.3c-.1 0-.1.2-.1.3-.0046.05418.0019.10872.0191.1603s.0447.09912.0809.1397l.5.3c.8581.558 1.5875 1.2927 2.1393 2.1549s.9134 1.8321 1.0607 2.8451l.5 3.5c.1.1.2.3.4.3.0689-.025.1315-.0648.1834-.1166.0518-.0518.0916-.1145.1166-.1834l.5-3.5c.1651-1.0194.5446-1.9922 1.1134-2.8541.5689-.8619 1.3141-1.5933 2.1866-2.1459l.4-.3.2-.3c0-.1-.1-.3-.2-.3z" fill="#fff48c"/><path d="m123.1 11.4c-.426-.2583-.791-.6072-1.067-1.0219-.277-.41476-.459-.88523-.533-1.3781l-.2-1.7h-.4l-.2 1.7c-.075.49287-.256.96334-.533 1.3781-.276.4147-.641.7636-1.067 1.0219h-.2v.2c0 .1 0 .1.1.1l.2.2c.426.2583.791.6072 1.067 1.0219.277.4148.458.8852.533 1.3781l.2 1.7h.4l.2-1.7c.074-.4929.256-.9633.533-1.3781.276-.4147.641-.7636 1.067-1.0219l.2-.2c.026 0 .052-.0105.071-.0293.018-.0187.029-.0442.029-.0707v-.2z" fill="#66bcff"/><path d="m128.8 63.5h-72.3v19.1h80.7c-1.088-6.9897-3.984-13.5738-8.4-19.1z" fill="#78df8b"/><path d="m137.9 82.5h-1.4c-1.162-6.7982-4.017-13.1946-8.3-18.6-.1-.153-.145-.3357-.127-.5177.019-.1819.098-.3521.227-.4823.153-.1001.336-.1448.518-.1266s.352.0982.482.2266c4.484 5.6216 7.445 12.3025 8.6 19.4z" fill="#5b59a4"/><path d="m86.5999 3.8c25.3001-1 41.6001 22.1 38.7001 50.7 9.7 4.8 7.4 9.1 5.7 11.4s-11.1 2.4-16.3 0c-3.6 3.1-7.6 2.8-10 1-4.7001 3.5-11.6001 9-16.1001.2-3.4 7-9.4 7.5-12.7.2-2 5.3-6.4 6-10.4 4-1.2027-.635-2.2377-1.5461-3.0199-2.6587-.7823-1.1125-1.2895-2.3947-1.4801-3.7413-3.1 1.3-5.7.6-7.3-1.8s-.3-5.9-.3-5.9c-8.1-1.9-7.3-9.5-.1-10.5-3.1-23.3 9.1-41.8 33.3-42.9z" fill="#ffb55c"/><path d="m81.9997 73.3h-.1c-2.3-.1-4.4-1.6-6-4.4-.7535 1.6463-2.1155 2.9366-3.8 3.6-1.1253.3814-2.3155.5337-3.5006.4479-1.1851-.0859-2.3409-.4082-3.3994-.9479-1.1766-.6432-2.2038-1.5282-3.0138-2.5968-.8101-1.0686-1.3848-2.2966-1.6862-3.6032-3.1 1-5.7.2-7.3-2.4-.4854-.8575-.7971-1.8023-.9172-2.7804-.1201-.978-.0463-1.9701.2172-2.9196-4.2-1.3-5.7-4-5.6-6.1s1.9-4.7 5.7-5.5c-1.6-12.3 1.2-23.3 7.7-31.1 6.5-7.80001 15.2-11.40001 26.3-11.90001 5.1476-.28481 10.295.56137 15.0803 2.47903 4.786 1.91767 9.093 4.86028 12.62 8.62098 9 9.6 13.2 24.1 11.7 39.9 4.4 2.2 6.8 4.6 7.3 7.3.129.9019.032 1.8219-.282 2.6771-.314.8553-.836 1.6192-1.518 2.2229-3.4 3.6-11.7 2.5-16.7.4-3.6 2.9-7.5 2.6-10 1h-.1c-3.3 2.4-7.5003 5.5-11.4003 4.5-1.9911-.5696-3.6789-1.8983-4.7-3.7-1.8 3.1-4.1 4.8-6.6 4.8zm-6.1-6.7c.3 0 .5.2.7.5 1.4 3 3.3 4.8 5.4 4.8 2.2 0 4.4-1.9 6-5.1 0-.1591.0632-.3118.1757-.4243s.2651-.1757.4243-.1757c.1591 0 .3117.0632.4242.1757.1126.1125.1758.2652.1758.4243 1.2 2.4 2.7 3.8 4.4 4.2 3.3.8 7.2003-2.1 10.3003-4.4l.4-.3c.132-.0903.289-.1386.45-.1386.16 0 .317.0483.45.1386 1.9 1.5 5.5 2.1 9.1-1 .104-.0631.219-.1044.339-.1216.121-.0172.243-.0099.361.0216 5.1 2.4 12.9 3 15.6.2.49-.4939.861-1.0924 1.086-1.7506s.298-1.3589.214-2.0494c-.4-2.2-2.8-4.5-6.9-6.5-.131-.0612-.24-.1613-.311-.2866-.072-.1253-.103-.2697-.089-.4134 1.6-15.5-2.5-29.8-11.4-39.2-3.366-3.6408-7.498-6.48918-12.098-8.33953-4.5997-1.85035-9.553-2.65657-14.5023-2.36048-10.6.5-19.4 4.4-25.2 11.40001-5.8 7-9 18.5-7.4 30.7.1.4-.2.7-.6.8-3.4.4-5 2.5-5.1 4.2s1.3 4 5.3 4.9l.4.4c.072.1565.1063.3278.1.5-.3292.8505-.4812 1.7593-.4468 2.6706.0344.9114.2545 1.8061.6468 2.6294 1.4 2.2 3.6 2.7 6.5 1.6h.6c.096.0415.1766.112.2304.2017s.0782.194.0696.2983c.1684 1.2375.6277 2.4175 1.3404 3.443.7127 1.0256 1.6585 1.8676 2.7596 2.457.8765.4885 1.8466.7856 2.8464.8718.9997.0862 2.0064-.0406 2.9536-.3718 1.6-.6 2.8-2 3.7-4.1.1-.3.3-.4.6-.5z" fill="#5b59a4"/><path d="m98.7997 45.3c3.6453 0 6.6003-2.9549 6.6003-6.6s-2.955-6.6-6.6003-6.6c-3.6451 0-6.6 2.9549-6.6 6.6s2.9549 6.6 6.6 6.6z" fill="#5b59a4"/><path d="m64.7997 41.9c3.6451 0 6.6-2.9549 6.6-6.6s-2.9549-6.6-6.6-6.6-6.6 2.9549-6.6 6.6 2.9549 6.6 6.6 6.6z" fill="#5b59a4"/><path d="m80.7 32.1c8.5.7 8.7 2.4 8.5 4s-3 5-7.7 10.5c-1.2 1.4-2.5 1.3-3.8-1.3-1.6905-3.1912-3.0638-6.5406-4.1-10-.9-2.9.6-3.8 7.1-3.2z" fill="#fff48c"/><path d="m65.8998 31.4.4 2.4 2.5.2c.092-.0131.1856-.008.2755.015.09.0231.1745.0636.2488.1193s.1369.1255.1842.2054.0784.1684.0915.2603c.0132.0919.0081.1855-.015.2755-.023.0899-.0636.1745-.1193.2488s-.1255.1368-.2054.1842c-.0799.0473-.1683.0784-.2603.0915l-2.1 1.2.5 2.4c.0671.1569.0746.3329.021.495-.0536.162-.1645.2989-.3119.3848-.1474.086-.3212.1152-.4886.0821s-.3169-.1263-.4205-.2619l-1.8-1.7-2.1 1.2c-.1288.0804-.2803.1167-.4316.1034s-.2942-.0754-.4071-.177-.1897-.2372-.2188-.3863c-.0291-.149-.0089-.3035.0575-.4401l1-2.2-1.8-1.7c-.6-.4-.2-1.3.6-1.2l2.4.2 1-2.2c.0855-.1176.2015-.2097.3355-.2664.1339-.0566.2808-.0757.4248-.0552.1439.0206.2796.08.3923.1719s.1983.2128.2474.3497z" fill="#fff"/><path d="m98.7998 34.7 1 2.2 2.4002-.3c.148.0045.293.0503.417.1324.124.082.223.197.285.332s.086.2847.068.4323-.077.2873-.17.4033l-1.8 1.6 1 2.2c.132.1326.207.3125.207.5s-.075.3674-.207.5c-.066.0657-.144.1177-.23.1533-.085.0355-.177.0538-.27.0538-.188 0-.368-.0745-.5-.2071l-2.1002-1.2-1.8 1.6c-.1036.1356-.2531.2288-.4205.2619s-.3412.0039-.4886-.0821c-.1474-.0859-.2583-.2228-.3119-.3848-.0536-.1621-.0461-.3381.021-.495l.4-2.3-2.1-1.2c-.1162-.0928-.2043-.2161-.2543-.3562-.05-.14-.06-.2912-.0288-.4366.0311-.1454.1022-.2792.2052-.3865s.2339-.1837.3779-.2207l2.4-.3.5-2.3c-.0131-.0919-.008-.1855.015-.2755.023-.0899.0636-.1745.1193-.2488.0557-.0742.1255-.1368.2054-.1841.0799-.0474.1684-.0785.2603-.0916s.1855-.008.2755.015c.0899.0231.1745.0636.2487.1193.0743.0557.1369.1255.1842.2054s.0785.1684.0916.2603z" fill="#fff"/><path d="m95.5 48.4c3.1-6.2 7.1-9.5 14.9-9.2l-9 8.3z" fill="#ffb55c"/><path d="m57.5996 39.2c5.7-1.2 11-1.2 13.2 4.6l-12-2.6z" fill="#ffb55c"/><path d="m129.2 82.6c-.4-11.1-5.7-18-9.7-23.1s-6.1-7-6.7-9.7-.6-4.6-2.8-4.5-6 1.6-7.7 6.6-2.3001 9.5-2.5001 15.8-.4 14.9-.4 14.9z" fill="#78df8b"/><path d="m129.9 82.5h-1.4c-.4-10.8-5.6-17.5-9.6-22.5-.9-1.2-1.7-2.3-2.5-3.2-2.3-2.9-3.8-4.6-4.3-6.8l-.3-1.4c-.5-2.2-.7-2.6-1.8-2.6s-5.4 1.4-7 6.1-2.3 9.9-2.5 15.6c-.2 3.8-.3 10.4-.4 14.8h-1.3002c0-4.4.1-11 .3-14.9.0505-5.4343.9272-10.8293 2.6002-16 1.8-5.3 6-6.9 8.2-7s2.8 1.7 3.2 3.7l.3 1.3c.5 1.9 1.9 3.6 4.1 6.4l2.5 3.1c3.8 4.9 9.5 12.1 9.9 23.4z" fill="#5b59a4"/><path d="m65.9999 69.1c.1-5.5 1.7-12.2 1.6-15.3.1447-2.6934-.6702-5.3508-2.3-7.5-1.9-2.5-4.6-3.3-6.7-2.5s-.8 3.4-2.8 6.6c-5 7.8-14.1 13.1-13.8 32.2h28c-1.7-4.1-4-8.1-4-13.5z" fill="#78df8b"/><path d="m68.0998 78.3c-.3.2-.7 0-.9-.4-1.2072-2.8145-1.8526-5.8379-1.9-8.9.1-3 .6-6.4 1-9.4.3951-1.9082.5961-3.8514.6-5.8.1387-2.5535-.6418-5.0723-2.2-7.1-1.6-2.1-3.9-3-5.8-2.3s-.9.8-1.1 2.2c-.1614 1.4525-.6393 2.8521-1.4 4.1-1.2 1.9-2.6 3.6-4 5.4-4.7 5.7-9.9 12.1-9.7 26.4h-1.4c-.2-14.8 5.2-21.4 10-27.3 1.3951-1.66 2.6971-3.396 3.9-5.2.6384-1.1429 1.0461-2.4 1.2-3.7.3-1.4.5-2.6 2-3.2s5.5.2 7.4 2.8c1.7775 2.2357 2.6677 5.0487 2.5 7.9 0 1.4-.3 3.5-.6 6s-.9 6.3-1 9.3c.0368 2.8594.6489 5.6822 1.8 8.3.1.4 0 .8-.4.9z" fill="#5b59a4"/><path d="m142 28.9c-1.247-.7911-2.304-1.8457-3.099-3.0896-.795-1.244-1.307-2.647-1.501-4.1104l-.8-5c0-.1326-.053-.2598-.147-.3536-.093-.0937-.221-.1464-.353-.1464-.133 0-.26.0527-.354.1464-.094.0938-.146.221-.146.3536l-.8 5c-.194 1.4634-.707 2.8664-1.501 4.1104-.795 1.2439-1.853 2.2985-3.099 3.0896l-.7.4c-.123.1385-.193.3152-.2.5 0 .0776.018.1542.053.2236.034.0694.085.1298.147.1764l.7.4c1.24.8215 2.291 1.8972 3.084 3.1557s1.31 2.6711 1.516 4.1443l.8 5c0 .3.2.4.5.4.2 0 .5-.1.5-.4l.8-5c.206-1.4732.722-2.8858 1.515-4.1443s1.845-2.3342 3.085-3.1557l.7-.4c.062-.0466.112-.107.147-.1764s.053-.146.053-.2236c-.007-.1848-.078-.3615-.2-.5z" fill="#fff48c"/><path d="m15.4001 76.6h-2.8l2.5.9-1.1 1.8 3.3-1.4 5.9 4.3c1.2.9 1.5.3 7.5-7.3l-11.5.5z" fill="#dd3e59"/><path d="m19.6002 76.9c-8.9.3-14.00005-5-11.50005-12.2-1.5-8 .5-10.6.9-11.1s2.50005 1.3 4.60005 2.9c5.4-4.2 12.2-4.7 17.1.5 5.3-2.3 6.3-1.8 6.9-1.8s.8 3.2.3 5.9c-.3233 1.6608-1.0059 3.2309-2 4.6 1 4.5-.6 10.7-16.3 11.2z" fill="#f6ca9d"/><path d="m33.4003 68.1c-1.1-1.3-2.9-1.5-6.2-1.1s-4.3-.3-5.4-1.8c-.3515-.5489-.8419-.9953-1.4213-1.2938-.5795-.2985-1.2276-.4386-1.8787-.4062-1.1 0-2.5.4-3.2 3.1-5.59996 0-7.59996 4.3-6.39996 6.2 1.19996 1.9 5.69996 4.3 10.69996 4.1 6.8-.2 10.9-1.5 13.4-3.2.4147-.3274.7565-.7376 1.0037-1.2045s.3943-.9803.4319-1.5072c.0377-.527-.035-1.056-.2133-1.5533s-.4583-.952-.8223-1.335z" fill="#fff"/><path d="m35.0001 63.9c-.8555-2.0525-2.0005-3.972-3.4-5.7 1.5413-.9973 3.2819-1.6458 5.1-1.9.3.1 1 3.2-1.7 7.6z" fill="#fff"/><path d="m24.0272 58.7391c.1177-.483-.4393-1.0335-1.2442-1.2297-.8048-.1962-1.5527.0362-1.6704.5191-.1178.483.4393 1.0335 1.2441 1.2297.8049.1962 1.5528-.0362 1.6705-.5191z" fill="#fff"/><path d="m15.4938 59.8416c.659-.502.9762-1.1939.7085-1.5454-.2678-.3514-1.019-.2294-1.678.2726s-.9762 1.1939-.7085 1.5454c.2678.3515 1.0191.2294 1.678-.2726z" fill="#fff"/><path d="m22.7002 64.1c.0484-.1933.1484-.3698.2893-.5107s.3174-.2409.5107-.2893c.3744-.1786.8012-.2142 1.2-.1.3646.0706.7116.2131 1.0206.4191.309.2061.574.4715.7794.7809 0 .1 0 .3-.1.3h-.2c-.5064-.359-1.0876-.5984-1.7-.7h-.7c-.2928.007-.5747.1127-.8.3-.2 0-.3 0-.3-.1s-.1-.1 0-.1z" fill="#5f131d"/><path d="m11.4004 65.3c.1094-.3239.3197-.6043.6-.8l.9-.5c.3782-.0393.7598.0301 1.1.2.1614.069.3018.1792.4072.3196.1053.1405.1718.3061.1928.4804.1.2 0 .3-.2.3h-.1c-.1731-.1298-.3836-.2-.6-.2h-1.2l-.7.4c-.0254.017-.0543.0279-.0845.032-.0303.0041-.0611.0012-.09-.0084-.029-.0097-.0553-.0259-.0771-.0473-.0217-.0214-.0383-.0475-.0484-.0763-.1 0-.1 0-.1-.1z" fill="#5f131d"/><path d="m18.4003 66.2c.8836 0 1.6-.4029 1.6-.9 0-.497-.7164-.9-1.6-.9-.8837 0-1.6.403-1.6.9 0 .4971.7163.9 1.6.9z" fill="#892b25"/><path d="m14.2001 69.6c-.2014.0167-.404-.0105-.5938-.0795-.1899-.0691-.3626-.1784-.5062-.3205-.1383-.2227-.2197-.476-.2372-.7375-.0174-.2616.0297-.5234.1372-.7625.0434-.0896.1188-.1597.2113-.1967.0924-.037.1954-.0382.2887-.0033.1033.1116.1727.2504.2.4-.2.4-.2.7-.1.8s.5.2.9.2l2.3-.8 1.2-.3 1.5.3 3 .6c1.2.2 2.1.1 2.3-.2s.2-.2 0-.6.1-.4.2-.4c.0932-.0349.1962-.0337.2887.0033.0924.037.1678.1071.2113.1967.0884.1975.1165.4167.0809.6302-.0355.2134-.1333.4116-.2809.5698-.4.5-1.3.7-2.9.5l-3.1-.7-1.3-.3-.9.4c-.8156.2926-1.6511.5265-2.5.7z" fill="#892b25"/><path d="m18.0002 68.4c-.0796 0-.1559-.0316-.2121-.0879-.0563-.0562-.0879-.1325-.0879-.2121v-1.9c.1-.2.2-.3.4-.3s.3.2.3.4l-.2 1.8c.0037.0649-.0138.1293-.0499.1834s-.0888.095-.1501.1166z" fill="#892b25"/><path d="m155.1 51.7c1.4 2.1 3.4 8 1.9 8.9s-5.9-3.4-7.3-5.5-.7-3.8.8-4.8 3.3-.7 4.6 1.4z" fill="#7dd6af"/><path d="m156.5 61.1c-1 0-2.3-1-3.4-1.9-1.388-1.1518-2.6-2.4992-3.6-4-.32-.4235-.547-.9092-.668-1.4259-.12-.5167-.131-1.0529-.032-1.5741.108-.4413.305-.8556.581-1.217.275-.3613.622-.6619 1.019-.883.378-.253.803-.4276 1.249-.5135.447-.0859.906-.0813 1.351.0135 1.006.3175 1.86.9937 2.4 1.9 1.2 2 3.5 8.3 1.7 9.4zm-4.2-11c-.576-.0311-1.144.1464-1.6.5-.344.1636-.647.4007-.889.6945-.242.2937-.416.637-.511 1.0055-.092.9231.157 1.8478.7 2.6.991 1.4472 2.168 2.7583 3.5 3.9 1.6 1.3 2.8 1.9 3.3 1.6s.6-1.7 0-3.7c-.398-1.715-1.038-3.3648-1.9-4.9-.461-.8111-1.211-1.4183-2.1-1.7z" fill="#378a84"/><path d="m163.9 58.6c-2 1.5-7.6 4.1-8.7 2.7s2.8-6.2 4.7-7.7 3.8-1.1 4.9.2 1.1 3.2-.9 4.8z" fill="#7dd6af"/><path d="m156.3 62c-.6 0-1.1-.1-1.3-.5s3-6.8 4.8-8.2c.816-.6704 1.845-1.0253 2.9-1 .46.0586.903.2135 1.299.4548.397.2412.738.5633 1.001.9452.297.3377.513.7377.635 1.1704.121.4327.143.8871.065 1.3296-.078.5187-.26 1.0163-.535 1.4631-.275.4467-.637.8334-1.065 1.1369-1.488 1.0322-3.101 1.8722-4.8 2.5-.95.4099-1.966.647-3 .7zm6.1-9.1c-.842.0499-1.647.3649-2.3.9-1.31 1.1637-2.484 2.472-3.5 3.9-1.1 1.7-1.6 3-1.2 3.5s1.8.3 3.7-.4c1.642-.5723 3.192-1.3808 4.6-2.4.784-.5384 1.324-1.3653 1.5-2.3.045-.38.006-.7652-.115-1.1282s-.321-.6948-.585-.9718c-.44-.5796-1.083-.9723-1.8-1.1z" fill="#378a84"/><path d="m157 60.9h-.3l-4.5-7.5c0-.1 0-.3.1-.3s.3-.1.4 0l4.5 7.5c.053.0133.099.0471.127.0939.028.0469.036.1031.023.1561s-.047.0986-.094.1268c-.047.0281-.103.0365-.156.0232z" fill="#378a84"/><path d="m155.5 61.5h-.2c-.049-.055-.076-.1262-.076-.2s.027-.145.076-.2l6.6-5.7h.4c.049.055.076.1262.076.2s-.027.145-.076.2l-6.6 5.7z" fill="#378a84"/><path d="m156.7 59.1c-6.3-5.3-14.2-.5-13.8 7.5s5.6 15.4 14.1 15.4c6.8 0 13.4-6.6 13.8-15.4s-9.1-12.8-14.1-7.5z" fill="#ffc194"/><path d="m157 82.3c-1.983.0007-3.941-.449-5.725-1.3151-1.784-.8662-3.349-2.1261-4.575-3.6849-2.376-3.0933-3.8-6.8111-4.1-10.7-.162-1.8297.216-3.6666 1.087-5.2839.871-1.6172 2.196-2.9439 3.813-3.8161 1.485-.7129 3.145-.979 4.778-.7659 1.633.213 3.17.896 4.422 1.9659 1.133-1.1247 2.581-1.8797 4.152-2.1653s3.191-.0885 4.648.5653c1.825.7791 3.352 2.1212 4.36 3.8304 1.007 1.7092 1.442 3.6959 1.24 5.6696-.4 8.5-6.8 15.7-14.1 15.7zm-6-25.1c-1.12-.0322-2.227.2445-3.2.8-3.1 1.5-4.8 4.8-4.6 8.6.6 9.8 7.5 15.2 13.8 15.2s13.2-7 13.6-15.2c.2-4.9-2.6-7.9-5.4-9-1.386-.6304-2.935-.8055-4.427-.5-1.491.3054-2.847 1.0756-3.873 2.2-.055.0492-.126.0764-.2.0764s-.145-.0272-.2-.0764c-1.529-1.3253-3.477-2.0688-5.5-2.1z" fill="#f46d59"/><g fill="#632b26"><path d="m150.4 67.9h-4.4c-.079 0-.156-.0316-.212-.0879-.056-.0562-.088-.1325-.088-.2121 0-.2.1-.4.3-.4h4.4c.053 0 .105.0103.153.0304.049.0201.093.0496.13.0868.037.0371.067.0812.087.1297.02.0486.03.1006.03.1531 0 .2-.2.3-.4.3z"/><path d="m149 69.4c-.477 0-.935-.1896-1.273-.5272-.337-.3376-.527-.7954-.527-1.2728 0-.0525.011-.1045.031-.1531.02-.0485.049-.0926.086-.1297.037-.0372.082-.0667.13-.0868.049-.0201.101-.0304.153-.0304h2.8c.053 0 .105.0103.153.0304.049.0201.093.0496.13.0868.037.0371.067.0812.087.1297.02.0486.03.1006.03.1531 0 .4774-.189.9352-.527 1.2728s-.795.5272-1.273.5272z"/><path d="m163.7 67.9h-4.4c-.2 0-.4-.1-.4-.3 0-.0525.01-.1045.03-.1531.02-.0485.05-.0926.087-.1297.037-.0372.081-.0667.13-.0868.048-.0201.1-.0304.153-.0304h4.4c.052 0 .104.0103.153.0304s.093.0496.13.0868c.037.0371.066.0812.086.1297.021.0486.031.1006.031.1531 0 .2-.2.3-.4.3z"/><path d="m162.3 69.4c-.487.0007-.956-.1857-1.309-.5207-.354-.335-.565-.7929-.591-1.2793 0-.0525.01-.1045.03-.1531.02-.0485.05-.0926.087-.1297.037-.0372.081-.0667.13-.0868.048-.0201.1-.0304.153-.0304h2.9c.052 0 .104.0103.153.0304s.093.0496.13.0868c.037.0371.066.0812.086.1297.021.0486.031.1006.031.1531 0 .4774-.19.9352-.527 1.2728-.338.3376-.796.5272-1.273.5272z"/><path d="m155.4 70.3c-.493.0186-.978-.129-1.377-.4192s-.689-.706-.823-1.1808c-.035-.0933-.034-.1962.003-.2887s.108-.1678.197-.2113c.104-.0086.209.0158.298.0696.09.0538.161.1344.202.2304.104.3168.305.5932.574.7904s.593.3055.926.3096c.316-.024.618-.1414.867-.3373.25-.1958.435-.4613.533-.7627.042-.096.112-.1766.202-.2304s.194-.0782.298-.0696c.09.0435.16.1188.197.2113s.038.1954.003.2887c-.114.4667-.385.8801-.767 1.1713-.382.2911-.853.4425-1.333.4287z"/></g><path d="m164.3 71.7c.994 0 1.8-.4029 1.8-.9 0-.497-.806-.9-1.8-.9s-1.8.403-1.8.9c0 .4971.806.9 1.8.9z" fill="#ff9d7e"/><path d="m146.6 71.7c.994 0 1.8-.4029 1.8-.9 0-.497-.806-.9-1.8-.9s-1.8.403-1.8.9c0 .4971.806.9 1.8.9z" fill="#ff9d7e"/><path d="m151.1 78.7h-.2c-.1-.1-.1-.2 0-.4 2.3-2.8 2.5-3.9 2.1-4.6l-.5-.2c-.8-.2-2.3.6-3.8 2h-.4c-.049-.055-.076-.1262-.076-.2s.027-.145.076-.2c1.6-1.5 3.3-2.3 4.3-2.2.179.0036.355.0511.512.1382.157.0872.29.2114.388.3618.6 1.1.1 2.5-2.2 5.3 0 0-.1 0-.2 0z" fill="#f46d59"/><path d="m157.5 73.5c-.161.3128-.236.6623-.218 1.0134.017.3512.127.6914.318.9866l-.7.2h-.3l-4.5-.9c-.193-.0201-.379-.0833-.545-.1848s-.306-.2389-.412-.402c-.105-.163-.173-.3477-.198-.5403-.025-.1927-.006-.3884.055-.5729.05-.3271.222-.6229.482-.8273s.588-.3019.918-.2727h.3l4.5.9.7.4c-.2-.1-.3 0-.4.2z" fill="#fff"/><path d="m159.6 78.7h-.2c-2.3-2.8-2.8-4.2-2.1-5.3.082-.1427.198-.263.337-.3503.14-.0872.299-.1386.463-.1497 1.1-.1 2.7.7 4.3 2.2.053-.0133.109-.0049.156.0232.047.0282.081.0738.094.1268s.005.1092-.023.1561c-.028.0468-.074.0806-.127.0939h-.4c-1.5-1.4-3-2.2-3.9-2l-.5.2c-.4.7-.2 1.8 2.1 4.6.1.2.1.3 0 .4z" fill="#f46d59"/><path d="m154.7 62h-.1c-.1-.1-.2-.2-.1-.4.501-1.0117 1.178-1.926 2-2.7.056-.0267.119-.0355.18-.025s.117.0397.161.0836c.044.0438.073.1002.084.1614.01.0611.002.124-.025.18-.807.7251-1.454 1.6106-1.9 2.6z" fill="#f46d59"/></g></svg>