
<svg width="600" height="406" viewBox="0 0 600 406" fill="none" xmlns="http://www.w3.org/2000/svg">
<g clip-path="url(#clip0_2_2)">
<path d="M0 25C0 11.1929 11.1929 0 25 0H575C588.807 0 600 11.1929 600 25V380.882C600 394.69 588.807 405.882 575 405.882H25C11.1929 405.882 0 394.689 0 380.882V25Z" fill="#168CC7"/>
<path d="M102 203.722C101.793 200.364 102.751 197.04 104.7 194.355C105.778 193.466 106.996 192.78 108.3 192.326C109.615 191.67 111.043 191.299 112.5 191.233H129.15C130.696 191.051 132.262 191.239 133.728 191.783C135.193 192.328 136.52 193.214 137.605 194.374C138.691 195.534 139.507 196.938 139.992 198.477C140.476 200.016 140.616 201.65 140.4 203.253V227.606C140.382 229.003 140.079 230.38 139.51 231.645C138.941 232.91 138.119 234.035 137.1 234.943C135.036 236.978 132.293 238.098 129.45 238.066H113.7V255.706H102V203.722ZM128.7 206.063C128.743 205.69 128.708 205.311 128.599 204.952C128.49 204.593 128.309 204.262 128.068 203.982C127.827 203.701 127.531 203.477 127.2 203.325C126.87 203.172 126.512 203.095 126.15 203.097H117C116.541 203.043 116.076 203.1 115.641 203.264C115.207 203.428 114.815 203.694 114.495 204.042C114.176 204.389 113.938 204.809 113.8 205.268C113.662 205.727 113.628 206.213 113.7 206.688V222.923C113.7 225.109 115.05 226.201 117.3 226.357H125.7C126.093 226.361 126.483 226.279 126.844 226.118C127.206 225.957 127.531 225.719 127.8 225.421C128.079 225.203 128.306 224.92 128.462 224.595C128.619 224.27 128.7 223.911 128.7 223.548V206.063ZM176.55 205.751C176.55 204.034 175.65 203.097 173.55 203.097H150V191.233H176.4C184.1 191.441 188 195.136 188.1 202.317V227.294C188.108 230.202 187.032 233 185.1 235.1C184.125 236.132 182.956 236.942 181.665 237.479C180.374 238.017 178.99 238.27 177.6 238.222H161.55C153.85 238.222 149.9 234.683 149.7 227.606V218.084C149.8 210.799 153.6 207.052 161.1 206.844H176.55V205.751ZM161.55 224.484C161.506 224.837 161.552 225.197 161.684 225.525C161.815 225.854 162.028 226.141 162.3 226.357C162.604 226.64 162.961 226.855 163.348 226.989C163.735 227.123 164.144 227.174 164.55 227.138H173.55C175.5 227.138 176.55 226.201 176.55 224.484V220.894C176.55 219.02 175.5 217.928 173.4 217.928H164.4C163.556 217.859 162.714 218.078 162 218.552C161.489 219.386 161.277 220.381 161.4 221.362L161.55 224.484ZM220.95 243.842C221.777 243.786 222.565 243.458 223.2 242.905C223.499 242.695 223.749 242.417 223.931 242.093C224.112 241.769 224.222 241.406 224.25 241.032V238.222H209.25C207.667 238.268 206.089 238.003 204.6 237.441C203.197 236.889 201.92 236.038 200.85 234.943C199.761 233.826 198.906 232.487 198.338 231.009C197.771 229.532 197.502 227.948 197.55 226.357V191.233H209.25V222.455C209.25 225.109 210.3 226.357 212.25 226.357H220.65C221.582 226.386 222.492 226.052 223.2 225.421C223.519 225.195 223.781 224.893 223.963 224.54C224.146 224.186 224.244 223.793 224.25 223.391V191.233H235.8V243.061C235.885 246.405 234.822 249.671 232.8 252.271C231.795 253.412 230.563 254.311 229.19 254.904C227.817 255.497 226.336 255.771 224.85 255.706H197.55V243.842H220.95ZM244.95 226.357H265.65C267.6 226.357 268.65 225.577 268.65 224.016V223.079C268.638 222.695 268.535 222.32 268.35 221.986C268.236 221.611 268.019 221.278 267.726 221.029C267.433 220.779 267.076 220.624 266.7 220.581H256.35C253.472 220.561 250.699 219.451 248.55 217.459C247.526 216.684 246.684 215.677 246.086 214.514C245.489 213.352 245.152 212.064 245.1 210.747V201.848C245.2 194.98 249 191.441 256.5 191.233H280.5V203.097H260.1C257.7 203.097 256.5 203.878 256.5 205.283V206.532C256.5 207.989 257.75 208.717 260.25 208.717H270.45C273.092 208.796 275.604 209.923 277.473 211.868C279.341 213.812 280.425 216.427 280.5 219.176V227.762C280.315 230.55 279.138 233.166 277.2 235.1C276.291 236.176 275.164 237.029 273.9 237.597C272.443 238.06 270.923 238.271 269.4 238.222H244.95V226.357ZM315.6 205.751C315.6 204.034 314.7 203.097 312.6 203.097H289.05V191.233H315.45C323.15 191.441 327.05 195.136 327.15 202.317V227.294C327.158 230.202 326.083 233 324.15 235.1C323.175 236.132 322.006 236.942 320.715 237.479C319.424 238.017 318.04 238.27 316.65 238.222H300.6C292.9 238.222 288.95 234.683 288.75 227.606V218.084C288.85 210.799 292.65 207.052 300.15 206.844H315.6V205.751ZM300.6 224.484C300.556 224.837 300.602 225.197 300.734 225.525C300.866 225.854 301.078 226.141 301.35 226.357C301.928 226.889 302.68 227.168 303.45 227.138H312.45C314.55 227.138 315.45 226.201 315.6 224.484V220.894C315.6 219.02 314.55 217.928 312.45 217.928H303.45C302.605 217.847 301.759 218.067 301.05 218.552C300.539 219.386 300.327 220.381 300.45 221.362L300.6 224.484ZM336.6 184.52C336.577 183.018 336.89 181.53 337.515 180.175C338.139 178.821 339.059 177.636 340.2 176.715C342.792 174.711 345.977 173.717 349.2 173.905H356.7V185.301H352.2C349.65 185.301 348.3 186.55 348.3 188.735V191.233H356.55V203.253H348.3V238.222H336.6V184.52ZM375.3 222.299V223.079C375.271 223.881 375.539 224.664 376.05 225.265C376.168 225.581 376.374 225.853 376.641 226.047C376.908 226.242 377.224 226.35 377.55 226.357H401.55V238.222H376.05C374.23 238.292 372.411 238.082 370.65 237.597C369.248 237.117 367.967 236.317 366.9 235.256C365.778 234.234 364.904 232.95 364.35 231.509C363.805 229.745 363.551 227.898 363.6 226.045V202.317C363.6 195.032 367.35 191.389 374.85 191.389H390.6C392.065 191.219 393.547 191.392 394.94 191.894C396.332 192.397 397.599 193.216 398.649 194.293C399.698 195.37 400.503 196.678 401.005 198.12C401.507 199.562 401.693 201.102 401.55 202.629V211.995L375.3 222.299ZM389.7 205.907V205.595C389.706 205.269 389.642 204.945 389.512 204.648C389.382 204.351 389.19 204.088 388.95 203.878C388.404 203.394 387.716 203.119 387 203.097H378.9C378.424 203.077 377.95 203.165 377.51 203.353C377.07 203.542 376.674 203.827 376.35 204.19C375.977 204.481 375.675 204.858 375.467 205.292C375.258 205.725 375.15 206.203 375.15 206.688V212.308L389.7 205.907ZM426.3 238.222C424.689 238.224 423.082 238.067 421.5 237.753C419.735 237.433 418.077 236.649 416.686 235.474C415.294 234.299 414.215 232.773 413.55 231.041C412.848 229.203 412.492 227.242 412.5 225.265V202.941C412.439 201.356 412.642 199.771 413.1 198.258C413.568 196.721 414.392 195.327 415.5 194.199C416.755 192.892 418.301 191.927 420 191.389C421.621 190.981 423.282 190.772 424.95 190.765H442.95V193.575H425.4C422.824 193.411 420.261 194.064 418.05 195.448C417.063 196.318 416.3 197.43 415.828 198.684C415.357 199.937 415.193 201.293 415.35 202.629V224.796C415.36 226.338 415.613 227.868 416.1 229.324C416.59 230.76 417.414 232.047 418.5 233.07C419.617 233.917 420.896 234.502 422.25 234.787C423.63 235.097 425.038 235.253 426.45 235.256H442.95V238.066H426.3V238.222ZM491.55 225.421C491.579 226.988 491.479 228.555 491.25 230.104C490.804 231.743 489.98 233.243 488.85 234.475C487.683 235.717 486.279 236.691 484.73 237.336C483.18 237.981 481.518 238.283 479.85 238.222H465.9C462.624 238.441 459.395 237.321 456.9 235.1C455.712 233.987 454.784 232.608 454.186 231.066C453.589 229.524 453.337 227.86 453.45 226.201V219.02C453.277 217.329 453.475 215.62 454.029 214.02C454.583 212.42 455.479 210.972 456.649 209.785C457.818 208.598 459.232 207.702 460.782 207.165C462.333 206.629 463.98 206.466 465.6 206.688H488.85V203.566C488.876 201.123 488.08 198.748 486.6 196.853C485.782 195.642 484.632 194.717 483.3 194.199C481.825 193.847 480.313 193.689 478.8 193.731H453.6V190.921H477.6C479.609 190.911 481.615 191.067 483.6 191.389C484.511 191.575 485.377 191.947 486.15 192.482C487.027 193.054 487.791 193.796 488.4 194.667C490.486 197.301 491.603 200.621 491.55 204.034V225.421ZM488.7 209.498H465.3C464.096 209.441 462.893 209.633 461.761 210.061C460.628 210.49 459.588 211.147 458.7 211.995C457.859 212.933 457.212 214.04 456.799 215.249C456.387 216.457 456.217 217.741 456.3 219.02V226.045C456.287 227.309 456.439 228.57 456.75 229.792C457.129 231.073 457.925 232.177 459 232.914C460.859 234.51 463.19 235.392 465.6 235.412H480C481.223 235.595 482.47 235.478 483.642 235.072C484.814 234.666 485.879 233.982 486.752 233.073C487.626 232.163 488.284 231.055 488.674 229.835C489.064 228.615 489.176 227.318 489 226.045L488.7 209.498ZM517.8 193.731C516.447 193.561 515.074 193.724 513.793 194.208C512.512 194.691 511.357 195.482 510.423 196.514C509.489 197.547 508.801 198.794 508.415 200.155C508.029 201.515 507.955 202.951 508.2 204.346V238.222H505.35V204.346C505.066 202.516 505.204 200.642 505.751 198.878C506.299 197.114 507.242 195.511 508.501 194.2C509.761 192.889 511.301 191.909 512.996 191.339C514.691 190.768 516.492 190.625 518.25 190.921H521.25V193.731H517.8ZM567.75 225.109C567.45 234.059 562.65 238.43 553.35 238.222H543C541.04 238.265 539.081 238.108 537.15 237.753C535.196 237.161 533.434 236.028 532.05 234.475C530.876 233.155 530.05 231.542 529.65 229.792C529.244 228.109 529.092 226.371 529.2 224.64V204.502C529.3 195.448 533.9 190.973 543 191.077H564.9V175.622H567.75V225.109ZM564.9 193.887H543C541.537 193.855 540.076 194.013 538.65 194.355C537.208 194.739 535.904 195.553 534.9 196.697C533.854 197.662 533.077 198.902 532.65 200.287C532.182 201.691 531.978 203.175 532.05 204.658V226.201C531.902 227.622 532.132 229.057 532.714 230.35C533.296 231.644 534.207 232.747 535.35 233.538C536.43 234.175 537.592 234.648 538.8 234.943C540.226 235.288 541.687 235.445 543.15 235.412H552.75C555.878 235.561 558.973 234.688 561.6 232.914C562.763 231.988 563.687 230.775 564.289 229.386C564.892 227.996 565.153 226.473 565.05 224.952L564.9 193.887Z" fill="white"/>
<path d="M37.2 189.516C38.1173 189.105 39.0722 188.791 40.05 188.579C40.9683 184.549 43.1758 180.963 46.3103 178.41C49.4447 175.857 53.32 174.488 57.3 174.529C61.3056 174.453 65.2158 175.805 68.3811 178.36C71.5464 180.916 73.7762 184.522 74.7 188.579C77.0863 188.978 79.3193 190.059 81.15 191.701C81.2277 190.243 81.1775 188.78 81 187.33C80.3298 181.316 77.5308 175.777 73.149 171.794C68.7672 167.811 63.1168 165.669 57.3 165.787C51.3077 165.654 45.4974 167.934 41.0815 172.151C36.6656 176.369 33.9853 182.198 33.6 188.423C33.5406 189.567 33.5406 190.714 33.6 191.857C34.6884 190.905 35.9003 190.117 37.2 189.516" fill="#E3001B"/>
<path d="M71.25 191.233H42.75C41.2935 191.299 39.8648 191.67 38.55 192.326C37.2354 192.827 36.0165 193.567 34.95 194.511C33.0356 197.155 32.0794 200.416 32.25 203.722V225.733C32.0432 229.091 33.0013 232.415 34.95 235.1C36.0146 236.046 37.234 236.787 38.55 237.285C39.878 237.879 41.3048 238.197 42.75 238.222H71.25C72.7962 238.404 74.362 238.216 75.8276 237.671C77.2932 237.127 78.6196 236.241 79.7054 235.081C80.7911 233.921 81.6075 232.517 82.0919 230.978C82.5762 229.439 82.7159 227.805 82.5 226.201V203.253C82.7159 201.65 82.5762 200.016 82.0919 198.477C81.6075 196.938 80.7911 195.534 79.7054 194.374C78.6196 193.214 77.2932 192.328 75.8276 191.783C74.362 191.239 72.7962 191.051 71.25 191.233" fill="#E3001B"/>
</g>
<defs>
<clipPath id="clip0_2_2">
<rect width="600" height="405.882" fill="white"/>
</clipPath>
</defs>
</svg>
