<svg xmlns="http://www.w3.org/2000/svg" width="42" height="32" viewBox="0 0 42 32" xmlns:xlink="http://www.w3.org/1999/xlink">
  <defs>
    <rect id="a" width="42" height="32"/>
    <polygon id="c" points="0 .095 0 3.02 3.798 3.02 3.798 .095 0 .095"/>
    <polygon id="e" points=".136 29.681 37.097 29.681 37.097 .307 .136 .307"/>
  </defs>
  <g fill="none" fill-rule="evenodd">
    <mask id="b" fill="white">
      <use xlink:href="#a"/>
    </mask>
    <g transform="translate(0 1)" mask="url(#b)">
      <g transform="translate(0 7.671)">
        <mask id="d" fill="white">
          <use xlink:href="#c"/>
        </mask>
        <path fill="#4F5D7F" d="M3.79846047,1.55738298 C3.79846047,0.759510638 3.12027442,0.0947234043 2.30632093,0.0947234043 L1.49236744,0.0947234043 C0.678413953,0.0947234043 -9.76744186e-05,0.759510638 -9.76744186e-05,1.55738298 C-9.76744186e-05,2.35525532 0.678413953,3.02004255 1.49236744,3.02004255 L2.30632093,3.02004255 C3.12027442,3.02004255 3.79846047,2.35525532 3.79846047,1.55738298" mask="url(#d)"/>
      </g>
      <g transform="translate(4.884 .012)">
        <mask id="f" fill="white">
          <use xlink:href="#e"/>
        </mask>
        <path fill="#4F5D7F" d="M35.6782837,8.81802128 C33.2364233,3.63185106 28.081493,0.573446809 22.6550279,0.307276596 L7.32567907,0.307276596 C5.9689814,0.307276596 5.01926047,1.37131915 5.01926047,2.56812766 C5.01926047,3.89770213 6.10474884,4.82865957 7.32567907,4.82865957 L11.2596791,4.82865957 C12.0736326,4.82865957 12.7518186,5.49344681 12.7518186,6.29131915 C12.7518186,7.08919149 12.0736326,7.75429787 11.2596791,7.75429787 L1.62800465,7.75429787 C0.814051163,7.75429787 0.135539535,8.41908511 0.135539535,9.21695745 C0.135539535,10.0148298 0.814051163,10.679617 1.62800465,10.679617 L8.5466093,10.679617 C9.36056279,10.679617 10.0387488,11.3447234 10.0387488,12.1425957 C10.0387488,12.9404681 9.36056279,13.6052553 8.5466093,13.6052553 L4.20530698,13.6052553 C3.39135349,13.6052553 2.71316744,14.2700426 2.71316744,15.0679149 C2.71316744,15.8657872 3.39135349,16.5308936 4.20530698,16.5308936 L7.18991163,16.5308936 C7.32567907,18.1266383 7.73265581,19.722383 8.41084186,21.1850426 C11.8024233,28.4989787 20.7559116,31.6904681 28.2169349,28.3658936 C35.949493,24.9085532 39.205307,16.1319574 35.6782837,8.81802128" mask="url(#f)"/>
      </g>
      <path fill="#ECEFF8" d="M23.4174744,7.36289362 C27.7070093,5.43204255 32.7811953,7.27576596 34.7509628,11.4805532 C36.7207302,15.6853404 34.8401721,20.6592766 30.5503116,22.5901277 C26.2607767,24.5209787 21.1865907,22.6772553 19.2168233,18.4724681 C17.2470558,14.2676809 19.1279395,9.29374468 23.4174744,7.36289362"/>
      <path fill="#B7C2CE" d="M30.2519488,10.1595638 L32.9650186,14.6809468 C33.100786,14.9467979 33.100786,15.079883 32.9650186,15.345734 L30.2519488,19.867117 C30.1161814,20.1329681 29.8449721,20.1329681 29.7092047,20.1329681 L24.418507,20.1329681 C24.1472977,20.1329681 24.0115302,19.999883 23.8760884,19.867117 L21.162693,15.345734 C21.0272512,15.079883 21.0272512,14.9467979 21.162693,14.6809468 L23.8760884,10.1595638 C24.0115302,9.89371277 24.2830651,9.89371277 24.418507,9.89371277 L29.7092047,9.89371277 C29.9807395,9.76062766 30.1161814,9.89371277 30.2519488,10.1595638"/>
    </g>
  </g>
</svg>
