<svg width="222" height="108" viewBox="0 0 222 108" fill="none" xmlns="http://www.w3.org/2000/svg">
<rect width="222" height="108" rx="8" fill="#18191C"/>
<path d="M19.596 16.712C19.596 17.288 19.508 17.792 19.332 18.224C19.156 18.648 18.912 19.004 18.6 19.292C18.288 19.572 17.92 19.784 17.496 19.928C17.072 20.064 16.608 20.132 16.104 20.132C15.6 20.132 15.136 20.064 14.712 19.928C14.288 19.792 13.924 19.584 13.62 19.304C13.316 19.016 13.08 18.66 12.912 18.236C12.744 17.804 12.66 17.3 12.66 16.724V11.72H14.724V16.712C14.724 17.248 14.84 17.664 15.072 17.96C15.312 18.256 15.664 18.404 16.128 18.404C16.6 18.404 16.952 18.26 17.184 17.972C17.416 17.676 17.532 17.264 17.532 16.736V11.72H19.596V16.712ZM26.4177 16.904C26.4177 17.464 26.3497 17.944 26.2137 18.344C26.0777 18.736 25.8937 19.06 25.6617 19.316C25.4297 19.572 25.1617 19.76 24.8577 19.88C24.5617 20 24.2537 20.06 23.9337 20.06C23.6697 20.06 23.4377 20.04 23.2377 20C23.0457 19.96 22.8657 19.912 22.6977 19.856V21.956L20.8857 22.232V14.12H22.4817L22.6017 14.888C22.8017 14.664 23.0377 14.46 23.3097 14.276C23.5897 14.092 23.9177 14 24.2937 14C24.5977 14 24.8777 14.06 25.1337 14.18C25.3977 14.292 25.6217 14.468 25.8057 14.708C25.9977 14.948 26.1457 15.252 26.2497 15.62C26.3617 15.98 26.4177 16.408 26.4177 16.904ZM24.5937 17.024C24.5937 16.528 24.5097 16.172 24.3417 15.956C24.1737 15.732 23.9617 15.62 23.7057 15.62C23.5057 15.62 23.3257 15.676 23.1657 15.788C23.0137 15.892 22.8577 16.036 22.6977 16.22V18.452C22.8257 18.516 22.9497 18.564 23.0697 18.596C23.1897 18.62 23.3417 18.632 23.5257 18.632C23.8297 18.632 24.0817 18.508 24.2817 18.26C24.4897 18.012 24.5937 17.6 24.5937 17.024ZM33.4249 19.964C33.2809 20.004 33.1289 20.032 32.9689 20.048C32.8169 20.072 32.6209 20.084 32.3809 20.084C32.0689 20.084 31.7809 20.052 31.5169 19.988C31.2529 19.924 31.0249 19.82 30.8329 19.676C30.6489 19.524 30.5049 19.324 30.4009 19.076C30.2969 18.82 30.2449 18.504 30.2449 18.128V15.596H29.4649V14.12H30.2449V12.368L32.0449 12.08V14.12H33.1609L33.3889 15.596H32.0449V17.84C32.0449 18.304 32.2849 18.536 32.7649 18.536C32.9169 18.536 33.0649 18.516 33.2089 18.476L33.4249 19.964ZM39.5974 17.06C39.5974 17.532 39.5254 17.956 39.3814 18.332C39.2374 18.708 39.0374 19.028 38.7814 19.292C38.5334 19.556 38.2334 19.76 37.8814 19.904C37.5374 20.048 37.1614 20.12 36.7534 20.12C36.3454 20.12 35.9694 20.052 35.6254 19.916C35.2894 19.772 34.9934 19.568 34.7374 19.304C34.4894 19.04 34.2934 18.72 34.1494 18.344C34.0134 17.968 33.9454 17.544 33.9454 17.072C33.9454 16.6 34.0134 16.176 34.1494 15.8C34.2934 15.416 34.4894 15.092 34.7374 14.828C34.9934 14.564 35.2934 14.36 35.6374 14.216C35.9814 14.072 36.3574 14 36.7654 14C37.1734 14 37.5494 14.072 37.8934 14.216C38.2374 14.36 38.5334 14.564 38.7814 14.828C39.0374 15.092 39.2374 15.412 39.3814 15.788C39.5254 16.164 39.5974 16.588 39.5974 17.06ZM37.8454 17.072C37.8454 16.592 37.7534 16.208 37.5694 15.92C37.3854 15.624 37.1174 15.476 36.7654 15.476C36.4134 15.476 36.1454 15.62 35.9614 15.908C35.7854 16.196 35.6974 16.58 35.6974 17.06C35.6974 17.54 35.7894 17.928 35.9734 18.224C36.1574 18.512 36.4214 18.656 36.7654 18.656C37.1174 18.656 37.3854 18.512 37.5694 18.224C37.7534 17.936 37.8454 17.552 37.8454 17.072ZM48.3973 18.38V20H46.5133V18.38H42.7573V17.132L46.1773 11.876H48.3973V17.024H49.5373V18.38H48.3973ZM46.5133 13.808L44.4373 17.024H46.5133V13.808ZM56.9455 15.944C56.9455 16.624 56.8655 17.228 56.7055 17.756C56.5455 18.276 56.3175 18.716 56.0215 19.076C55.7255 19.428 55.3695 19.696 54.9535 19.88C54.5455 20.064 54.0895 20.156 53.5855 20.156C53.0815 20.156 52.6215 20.064 52.2055 19.88C51.7895 19.696 51.4335 19.428 51.1375 19.076C50.8415 18.716 50.6095 18.276 50.4415 17.756C50.2815 17.228 50.2015 16.624 50.2015 15.944C50.2015 15.264 50.2815 14.664 50.4415 14.144C50.6095 13.616 50.8415 13.176 51.1375 12.824C51.4335 12.464 51.7895 12.192 52.2055 12.008C52.6215 11.824 53.0815 11.732 53.5855 11.732C54.0895 11.732 54.5455 11.824 54.9535 12.008C55.3695 12.192 55.7255 12.464 56.0215 12.824C56.3175 13.176 56.5455 13.616 56.7055 14.144C56.8655 14.664 56.9455 15.264 56.9455 15.944ZM54.9655 15.944C54.9655 15.072 54.8535 14.408 54.6295 13.952C54.4055 13.488 54.0575 13.256 53.5855 13.256C53.1135 13.256 52.7615 13.488 52.5295 13.952C52.3055 14.408 52.1935 15.072 52.1935 15.944C52.1935 16.816 52.3055 17.484 52.5295 17.948C52.7615 18.404 53.1135 18.632 53.5855 18.632C54.0575 18.632 54.4055 18.404 54.6295 17.948C54.8535 17.484 54.9655 16.816 54.9655 15.944ZM64.551 15.944C64.551 16.624 64.471 17.228 64.311 17.756C64.151 18.276 63.923 18.716 63.627 19.076C63.331 19.428 62.975 19.696 62.559 19.88C62.151 20.064 61.695 20.156 61.191 20.156C60.687 20.156 60.227 20.064 59.811 19.88C59.395 19.696 59.039 19.428 58.743 19.076C58.447 18.716 58.215 18.276 58.047 17.756C57.887 17.228 57.807 16.624 57.807 15.944C57.807 15.264 57.887 14.664 58.047 14.144C58.215 13.616 58.447 13.176 58.743 12.824C59.039 12.464 59.395 12.192 59.811 12.008C60.227 11.824 60.687 11.732 61.191 11.732C61.695 11.732 62.151 11.824 62.559 12.008C62.975 12.192 63.331 12.464 63.627 12.824C63.923 13.176 64.151 13.616 64.311 14.144C64.471 14.664 64.551 15.264 64.551 15.944ZM62.571 15.944C62.571 15.072 62.459 14.408 62.235 13.952C62.011 13.488 61.663 13.256 61.191 13.256C60.719 13.256 60.367 13.488 60.135 13.952C59.911 14.408 59.799 15.072 59.799 15.944C59.799 16.816 59.911 17.484 60.135 17.948C60.367 18.404 60.719 18.632 61.191 18.632C61.663 18.632 62.011 18.404 62.235 17.948C62.459 17.484 62.571 16.816 62.571 15.944ZM72.1565 15.944C72.1565 16.624 72.0765 17.228 71.9165 17.756C71.7565 18.276 71.5285 18.716 71.2325 19.076C70.9365 19.428 70.5805 19.696 70.1645 19.88C69.7565 20.064 69.3005 20.156 68.7965 20.156C68.2925 20.156 67.8325 20.064 67.4165 19.88C67.0005 19.696 66.6445 19.428 66.3485 19.076C66.0525 18.716 65.8205 18.276 65.6525 17.756C65.4925 17.228 65.4125 16.624 65.4125 15.944C65.4125 15.264 65.4925 14.664 65.6525 14.144C65.8205 13.616 66.0525 13.176 66.3485 12.824C66.6445 12.464 67.0005 12.192 67.4165 12.008C67.8325 11.824 68.2925 11.732 68.7965 11.732C69.3005 11.732 69.7565 11.824 70.1645 12.008C70.5805 12.192 70.9365 12.464 71.2325 12.824C71.5285 13.176 71.7565 13.616 71.9165 14.144C72.0765 14.664 72.1565 15.264 72.1565 15.944ZM70.1765 15.944C70.1765 15.072 70.0645 14.408 69.8405 13.952C69.6165 13.488 69.2685 13.256 68.7965 13.256C68.3245 13.256 67.9725 13.488 67.7405 13.952C67.5165 14.408 67.4045 15.072 67.4045 15.944C67.4045 16.816 67.5165 17.484 67.7405 17.948C67.9725 18.404 68.3245 18.632 68.7965 18.632C69.2685 18.632 69.6165 18.404 69.8405 17.948C70.0645 17.484 70.1765 16.816 70.1765 15.944ZM80.1458 19.592C79.8658 19.768 79.5738 19.9 79.2698 19.988C78.9658 20.068 78.6338 20.108 78.2738 20.108C77.8498 20.108 77.4618 20.04 77.1098 19.904C76.7658 19.768 76.4658 19.572 76.2098 19.316C75.9618 19.06 75.7698 18.748 75.6338 18.38C75.4978 18.004 75.4298 17.58 75.4298 17.108C75.4298 16.596 75.5058 16.148 75.6578 15.764C75.8178 15.372 76.0298 15.048 76.2938 14.792C76.5578 14.536 76.8658 14.344 77.2178 14.216C77.5778 14.088 77.9578 14.024 78.3578 14.024C78.7178 14.024 79.0378 14.064 79.3178 14.144C79.6058 14.224 79.8658 14.332 80.0978 14.468L79.8578 16.016C79.6258 15.872 79.4058 15.764 79.1978 15.692C78.9978 15.62 78.7778 15.584 78.5378 15.584C78.1618 15.584 77.8538 15.708 77.6138 15.956C77.3818 16.196 77.2658 16.564 77.2658 17.06C77.2658 17.564 77.3938 17.94 77.6498 18.188C77.9058 18.428 78.2178 18.548 78.5858 18.548C78.8018 18.548 79.0178 18.516 79.2338 18.452C79.4498 18.38 79.6818 18.264 79.9298 18.104L80.1458 19.592ZM84.5515 20V16.316C84.5515 16.108 84.5035 15.94 84.4075 15.812C84.3195 15.676 84.1675 15.608 83.9515 15.608C83.7755 15.608 83.6035 15.656 83.4355 15.752C83.2755 15.848 83.1155 15.976 82.9555 16.136V20H81.1435V11.624L82.9555 11.336V14.852C83.2035 14.612 83.4675 14.412 83.7475 14.252C84.0275 14.084 84.3475 14 84.7075 14C85.2595 14 85.6755 14.16 85.9555 14.48C86.2355 14.8 86.3755 15.248 86.3755 15.824V20H84.5515ZM90.8648 20L90.7448 19.268C90.5048 19.524 90.2368 19.732 89.9408 19.892C89.6528 20.044 89.3048 20.12 88.8968 20.12C88.4248 20.12 88.0408 19.984 87.7448 19.712C87.4488 19.432 87.3008 19.024 87.3008 18.488C87.3008 17.8 87.5728 17.284 88.1168 16.94C88.6608 16.588 89.5088 16.36 90.6608 16.256V16.148C90.6608 15.652 90.3648 15.404 89.7728 15.404C89.4368 15.404 89.1128 15.444 88.8008 15.524C88.4968 15.604 88.1888 15.712 87.8768 15.848L87.6608 14.48C87.9968 14.344 88.3568 14.236 88.7408 14.156C89.1328 14.068 89.5688 14.024 90.0488 14.024C90.8648 14.024 91.4728 14.176 91.8728 14.48C92.2728 14.784 92.4728 15.312 92.4728 16.064V20H90.8648ZM90.6608 17.132C90.3488 17.18 90.0928 17.24 89.8928 17.312C89.6928 17.384 89.5328 17.468 89.4128 17.564C89.2928 17.66 89.2088 17.768 89.1608 17.888C89.1128 18 89.0888 18.12 89.0888 18.248C89.0888 18.432 89.1408 18.576 89.2448 18.68C89.3488 18.776 89.4888 18.824 89.6648 18.824C89.9928 18.824 90.3248 18.676 90.6608 18.38V17.132ZM97.4629 15.848C97.0229 15.88 96.6389 15.976 96.3109 16.136C95.9829 16.296 95.7069 16.496 95.4829 16.736V20H93.6709V14.12H95.2549L95.4469 15.284C95.6229 14.948 95.8429 14.66 96.1069 14.42C96.3789 14.172 96.7309 14.032 97.1629 14L97.4629 15.848ZM101.259 20L101.139 19.268C100.899 19.524 100.631 19.732 100.335 19.892C100.047 20.044 99.6994 20.12 99.2914 20.12C98.8194 20.12 98.4354 19.984 98.1394 19.712C97.8434 19.432 97.6954 19.024 97.6954 18.488C97.6954 17.8 97.9674 17.284 98.5114 16.94C99.0554 16.588 99.9034 16.36 101.055 16.256V16.148C101.055 15.652 100.759 15.404 100.167 15.404C99.8314 15.404 99.5074 15.444 99.1954 15.524C98.8914 15.604 98.5834 15.712 98.2714 15.848L98.0554 14.48C98.3914 14.344 98.7514 14.236 99.1354 14.156C99.5274 14.068 99.9634 14.024 100.443 14.024C101.259 14.024 101.867 14.176 102.267 14.48C102.667 14.784 102.867 15.312 102.867 16.064V20H101.259ZM101.055 17.132C100.743 17.18 100.487 17.24 100.287 17.312C100.087 17.384 99.9274 17.468 99.8074 17.564C99.6874 17.66 99.6034 17.768 99.5554 17.888C99.5074 18 99.4834 18.12 99.4834 18.248C99.4834 18.432 99.5354 18.576 99.6394 18.68C99.7434 18.776 99.8834 18.824 100.059 18.824C100.387 18.824 100.719 18.676 101.055 18.38V17.132ZM108.493 19.592C108.213 19.768 107.921 19.9 107.617 19.988C107.313 20.068 106.981 20.108 106.621 20.108C106.197 20.108 105.809 20.04 105.457 19.904C105.113 19.768 104.813 19.572 104.557 19.316C104.309 19.06 104.117 18.748 103.981 18.38C103.845 18.004 103.777 17.58 103.777 17.108C103.777 16.596 103.853 16.148 104.005 15.764C104.165 15.372 104.377 15.048 104.641 14.792C104.905 14.536 105.213 14.344 105.565 14.216C105.925 14.088 106.305 14.024 106.705 14.024C107.065 14.024 107.385 14.064 107.665 14.144C107.953 14.224 108.213 14.332 108.445 14.468L108.205 16.016C107.973 15.872 107.753 15.764 107.545 15.692C107.345 15.62 107.125 15.584 106.885 15.584C106.509 15.584 106.201 15.708 105.961 15.956C105.729 16.196 105.613 16.564 105.613 17.06C105.613 17.564 105.741 17.94 105.997 18.188C106.253 18.428 106.565 18.548 106.933 18.548C107.149 18.548 107.365 18.516 107.581 18.452C107.797 18.38 108.029 18.264 108.277 18.104L108.493 19.592ZM112.995 19.964C112.851 20.004 112.699 20.032 112.539 20.048C112.387 20.072 112.191 20.084 111.951 20.084C111.639 20.084 111.351 20.052 111.087 19.988C110.823 19.924 110.595 19.82 110.403 19.676C110.219 19.524 110.075 19.324 109.971 19.076C109.867 18.82 109.815 18.504 109.815 18.128V15.596H109.035V14.12H109.815V12.368L111.615 12.08V14.12H112.731L112.959 15.596H111.615V17.84C111.615 18.304 111.855 18.536 112.335 18.536C112.487 18.536 112.635 18.516 112.779 18.476L112.995 19.964ZM118.88 19.46C118.56 19.668 118.204 19.832 117.812 19.952C117.428 20.064 117.004 20.12 116.54 20.12C116.1 20.12 115.692 20.06 115.316 19.94C114.948 19.82 114.628 19.636 114.356 19.388C114.092 19.14 113.884 18.824 113.732 18.44C113.588 18.056 113.516 17.604 113.516 17.084C113.516 16.604 113.584 16.176 113.72 15.8C113.864 15.416 114.056 15.092 114.296 14.828C114.544 14.556 114.836 14.352 115.172 14.216C115.516 14.072 115.888 14 116.288 14C116.744 14 117.136 14.08 117.464 14.24C117.792 14.392 118.06 14.608 118.268 14.888C118.484 15.16 118.64 15.484 118.736 15.86C118.84 16.228 118.892 16.624 118.892 17.048C118.892 17.136 118.888 17.224 118.88 17.312C118.88 17.4 118.876 17.468 118.868 17.516H115.316C115.364 17.988 115.516 18.32 115.772 18.512C116.028 18.704 116.36 18.8 116.768 18.8C117.096 18.8 117.416 18.744 117.728 18.632C118.048 18.52 118.372 18.368 118.7 18.176L118.88 19.46ZM116.24 15.176C115.984 15.176 115.772 15.288 115.604 15.512C115.436 15.728 115.336 16.064 115.304 16.52H117.164C117.1 15.624 116.792 15.176 116.24 15.176ZM123.654 15.848C123.214 15.88 122.83 15.976 122.502 16.136C122.174 16.296 121.898 16.496 121.674 16.736V20H119.862V14.12H121.446L121.638 15.284C121.814 14.948 122.034 14.66 122.298 14.42C122.57 14.172 122.922 14.032 123.354 14L123.654 15.848ZM128.911 18.188C128.911 18.812 128.703 19.288 128.287 19.616C127.879 19.944 127.283 20.108 126.499 20.108C126.027 20.108 125.579 20.052 125.155 19.94C124.739 19.828 124.379 19.692 124.075 19.532L124.291 18.14C124.643 18.356 125.015 18.528 125.407 18.656C125.807 18.776 126.175 18.836 126.511 18.836C126.767 18.836 126.955 18.796 127.075 18.716C127.195 18.628 127.255 18.516 127.255 18.38C127.255 18.308 127.239 18.244 127.207 18.188C127.183 18.132 127.135 18.08 127.063 18.032C126.991 17.984 126.891 17.936 126.763 17.888C126.635 17.84 126.467 17.792 126.259 17.744C125.891 17.648 125.575 17.548 125.311 17.444C125.047 17.34 124.827 17.216 124.651 17.072C124.483 16.928 124.359 16.76 124.279 16.568C124.199 16.368 124.159 16.128 124.159 15.848C124.159 15.296 124.355 14.852 124.747 14.516C125.139 14.18 125.699 14.012 126.427 14.012C126.827 14.012 127.211 14.052 127.579 14.132C127.947 14.204 128.283 14.308 128.587 14.444L128.359 15.836C128.039 15.66 127.707 15.524 127.363 15.428C127.027 15.332 126.715 15.284 126.427 15.284C126.219 15.284 126.063 15.32 125.959 15.392C125.855 15.464 125.803 15.556 125.803 15.668C125.803 15.732 125.815 15.788 125.839 15.836C125.871 15.884 125.923 15.932 125.995 15.98C126.067 16.028 126.167 16.076 126.295 16.124C126.423 16.172 126.591 16.224 126.799 16.28C127.191 16.384 127.519 16.492 127.783 16.604C128.055 16.708 128.275 16.832 128.443 16.976C128.611 17.12 128.731 17.292 128.803 17.492C128.875 17.684 128.911 17.916 128.911 18.188ZM131.598 16.904L130.494 17.144L129.906 11.72H132.162L131.598 16.904ZM130.05 20V17.936H132.006V20H130.05Z" fill="white"/>
<rect x="12" y="32" width="198" height="64" rx="8" fill="#40444B"/>
<path d="M45.068 52V43.72H46.196V52H45.068ZM54.3463 52V48.1C54.3463 47.804 54.2783 47.568 54.1423 47.392C54.0063 47.208 53.7823 47.116 53.4703 47.116C53.1903 47.116 52.9063 47.2 52.6183 47.368C52.3383 47.536 52.0703 47.76 51.8143 48.04V52H50.7463V43.504L51.8143 43.336V47.032C51.9343 46.928 52.0623 46.824 52.1983 46.72C52.3423 46.616 52.4943 46.524 52.6543 46.444C52.8143 46.356 52.9863 46.288 53.1703 46.24C53.3543 46.184 53.5503 46.156 53.7583 46.156C54.3023 46.156 54.7143 46.308 54.9943 46.612C55.2743 46.908 55.4143 47.316 55.4143 47.836V52H54.3463ZM60.5424 52L60.4224 51.232C60.1904 51.464 59.9144 51.672 59.5944 51.856C59.2744 52.032 58.8784 52.12 58.4064 52.12C57.8864 52.12 57.4744 51.976 57.1704 51.688C56.8744 51.4 56.7264 51.012 56.7264 50.524C56.7264 50.164 56.8024 49.86 56.9544 49.612C57.1064 49.356 57.3344 49.14 57.6384 48.964C57.9424 48.788 58.3184 48.648 58.7664 48.544C59.2144 48.432 59.7384 48.344 60.3384 48.28V48.04C60.3384 47.68 60.2384 47.428 60.0384 47.284C59.8464 47.14 59.5824 47.068 59.2464 47.068C58.8944 47.068 58.5544 47.116 58.2264 47.212C57.8984 47.308 57.5784 47.424 57.2664 47.56L57.1224 46.636C57.4664 46.5 57.8104 46.388 58.1544 46.3C58.4984 46.204 58.8944 46.156 59.3424 46.156C60.0464 46.156 60.5664 46.304 60.9024 46.6C61.2384 46.888 61.4064 47.352 61.4064 47.992V52H60.5424ZM60.3384 49.096C59.8104 49.144 59.3784 49.216 59.0424 49.312C58.7144 49.408 58.4544 49.516 58.2624 49.636C58.0784 49.756 57.9504 49.888 57.8784 50.032C57.8144 50.176 57.7824 50.32 57.7824 50.464C57.7824 50.696 57.8544 50.884 57.9984 51.028C58.1504 51.164 58.3624 51.232 58.6344 51.232C58.9464 51.232 59.2464 51.16 59.5344 51.016C59.8304 50.872 60.0984 50.676 60.3384 50.428V49.096ZM65.4652 52.036H64.4212L62.4052 46.36L63.4972 46.192L64.9612 50.716L66.3772 46.276H67.4932L65.4652 52.036ZM73.0733 51.352C72.7693 51.592 72.4293 51.78 72.0533 51.916C71.6853 52.052 71.2613 52.12 70.7813 52.12C70.4053 52.12 70.0573 52.064 69.7373 51.952C69.4173 51.832 69.1373 51.652 68.8973 51.412C68.6573 51.164 68.4693 50.852 68.3333 50.476C68.1973 50.1 68.1293 49.648 68.1293 49.12C68.1293 48.664 68.1933 48.252 68.3213 47.884C68.4493 47.516 68.6253 47.204 68.8493 46.948C69.0733 46.692 69.3373 46.496 69.6413 46.36C69.9533 46.224 70.2893 46.156 70.6493 46.156C71.0653 46.156 71.4253 46.232 71.7293 46.384C72.0413 46.536 72.2973 46.74 72.4973 46.996C72.6973 47.252 72.8453 47.556 72.9413 47.908C73.0373 48.26 73.0853 48.632 73.0853 49.024V49.252H69.1973C69.2133 49.916 69.3693 50.412 69.6653 50.74C69.9613 51.06 70.3613 51.216 70.8653 51.208C71.2813 51.208 71.6493 51.136 71.9693 50.992C72.2893 50.84 72.6053 50.64 72.9173 50.392L73.0733 51.352ZM70.6373 46.996C70.3013 46.996 70.0053 47.116 69.7493 47.356C69.5013 47.596 69.3333 47.96 69.2453 48.448H72.0053C71.9413 47.984 71.8013 47.628 71.5853 47.38C71.3693 47.124 71.0533 46.996 70.6373 46.996ZM80.5463 52L80.4263 51.232C80.1943 51.464 79.9183 51.672 79.5983 51.856C79.2783 52.032 78.8823 52.12 78.4103 52.12C77.8903 52.12 77.4783 51.976 77.1743 51.688C76.8783 51.4 76.7303 51.012 76.7303 50.524C76.7303 50.164 76.8063 49.86 76.9583 49.612C77.1103 49.356 77.3383 49.14 77.6423 48.964C77.9463 48.788 78.3223 48.648 78.7703 48.544C79.2183 48.432 79.7423 48.344 80.3423 48.28V48.04C80.3423 47.68 80.2423 47.428 80.0423 47.284C79.8503 47.14 79.5863 47.068 79.2503 47.068C78.8983 47.068 78.5583 47.116 78.2303 47.212C77.9023 47.308 77.5823 47.424 77.2703 47.56L77.1263 46.636C77.4703 46.5 77.8143 46.388 78.1583 46.3C78.5023 46.204 78.8983 46.156 79.3463 46.156C80.0503 46.156 80.5703 46.304 80.9063 46.6C81.2423 46.888 81.4103 47.352 81.4103 47.992V52H80.5463ZM80.3423 49.096C79.8143 49.144 79.3823 49.216 79.0463 49.312C78.7183 49.408 78.4583 49.516 78.2663 49.636C78.0823 49.756 77.9543 49.888 77.8823 50.032C77.8183 50.176 77.7863 50.32 77.7863 50.464C77.7863 50.696 77.8583 50.884 78.0023 51.028C78.1543 51.164 78.3663 51.232 78.6383 51.232C78.9503 51.232 79.2503 51.16 79.5383 51.016C79.8343 50.872 80.1023 50.676 80.3423 50.428V49.096ZM89.9993 51.532C89.7353 51.732 89.4433 51.88 89.1233 51.976C88.8113 52.072 88.4513 52.12 88.0433 52.12C87.6593 52.12 87.3033 52.056 86.9753 51.928C86.6553 51.792 86.3753 51.6 86.1353 51.352C85.8953 51.096 85.7073 50.784 85.5713 50.416C85.4433 50.048 85.3793 49.624 85.3793 49.144C85.3793 48.656 85.4473 48.228 85.5833 47.86C85.7273 47.484 85.9233 47.172 86.1713 46.924C86.4193 46.668 86.7073 46.476 87.0353 46.348C87.3713 46.22 87.7313 46.156 88.1153 46.156C88.5313 46.156 88.8913 46.212 89.1953 46.324C89.4993 46.428 89.7473 46.548 89.9393 46.684L89.7833 47.728C89.5353 47.528 89.2753 47.372 89.0033 47.26C88.7393 47.148 88.4393 47.092 88.1033 47.092C87.6073 47.092 87.2073 47.268 86.9033 47.62C86.6073 47.964 86.4593 48.468 86.4593 49.132C86.4593 49.828 86.6193 50.344 86.9393 50.68C87.2593 51.016 87.6593 51.184 88.1393 51.184C88.4273 51.184 88.7113 51.14 88.9913 51.052C89.2793 50.956 89.5633 50.788 89.8433 50.548L89.9993 51.532ZM94.5088 47.176C94.2688 47.192 94.0408 47.24 93.8248 47.32C93.6088 47.4 93.4088 47.504 93.2248 47.632C93.0408 47.76 92.8768 47.908 92.7328 48.076C92.5888 48.244 92.4688 48.424 92.3728 48.616V52H91.3048V46.276H92.1568L92.3368 47.44C92.5448 47.112 92.8128 46.824 93.1408 46.576C93.4688 46.32 93.8688 46.18 94.3408 46.156L94.5088 47.176ZM98.8627 52L98.7427 51.232C98.5107 51.464 98.2347 51.672 97.9147 51.856C97.5947 52.032 97.1987 52.12 96.7267 52.12C96.2067 52.12 95.7947 51.976 95.4907 51.688C95.1947 51.4 95.0467 51.012 95.0467 50.524C95.0467 50.164 95.1227 49.86 95.2747 49.612C95.4267 49.356 95.6547 49.14 95.9587 48.964C96.2627 48.788 96.6387 48.648 97.0867 48.544C97.5347 48.432 98.0587 48.344 98.6587 48.28V48.04C98.6587 47.68 98.5587 47.428 98.3587 47.284C98.1667 47.14 97.9027 47.068 97.5667 47.068C97.2147 47.068 96.8747 47.116 96.5467 47.212C96.2187 47.308 95.8987 47.424 95.5867 47.56L95.4427 46.636C95.7867 46.5 96.1307 46.388 96.4747 46.3C96.8187 46.204 97.2147 46.156 97.6627 46.156C98.3667 46.156 98.8867 46.304 99.2227 46.6C99.5587 46.888 99.7267 47.352 99.7267 47.992V52H98.8627ZM98.6587 49.096C98.1307 49.144 97.6987 49.216 97.3627 49.312C97.0347 49.408 96.7747 49.516 96.5827 49.636C96.3987 49.756 96.2707 49.888 96.1987 50.032C96.1347 50.176 96.1027 50.32 96.1027 50.464C96.1027 50.696 96.1747 50.884 96.3187 51.028C96.4707 51.164 96.6827 51.232 96.9547 51.232C97.2667 51.232 97.5667 51.16 97.8547 51.016C98.1507 50.872 98.4187 50.676 98.6587 50.428V49.096ZM100.963 52V51.16L104.167 47.164H101.251L101.107 46.276H105.391V47.116L102.175 51.112H105.391L105.535 52H100.963ZM109.149 52.6C109.029 52.92 108.901 53.18 108.765 53.38C108.629 53.588 108.481 53.752 108.321 53.872C108.161 53.992 107.989 54.072 107.805 54.112C107.621 54.16 107.425 54.184 107.217 54.184C107.105 54.184 107.013 54.18 106.941 54.172C106.877 54.164 106.817 54.152 106.761 54.136L106.605 53.164C106.693 53.188 106.785 53.208 106.881 53.224C106.985 53.24 107.081 53.248 107.169 53.248C107.409 53.248 107.613 53.184 107.781 53.056C107.949 52.928 108.089 52.712 108.201 52.408L108.345 52.024L106.257 46.36L107.337 46.192L108.873 50.728L110.373 46.276H111.489L109.149 52.6ZM115.33 52V43.504L116.398 43.336V52H115.33ZM123.132 49.144C123.132 49.616 123.064 50.036 122.928 50.404C122.8 50.772 122.616 51.084 122.376 51.34C122.136 51.596 121.852 51.792 121.524 51.928C121.204 52.056 120.852 52.12 120.468 52.12C120.084 52.12 119.732 52.056 119.412 51.928C119.092 51.792 118.816 51.596 118.584 51.34C118.352 51.084 118.168 50.772 118.032 50.404C117.904 50.036 117.84 49.616 117.84 49.144C117.84 48.672 117.904 48.252 118.032 47.884C118.168 47.516 118.352 47.204 118.584 46.948C118.816 46.692 119.092 46.496 119.412 46.36C119.732 46.224 120.084 46.156 120.468 46.156C120.852 46.156 121.204 46.224 121.524 46.36C121.852 46.496 122.136 46.692 122.376 46.948C122.616 47.204 122.8 47.516 122.928 47.884C123.064 48.252 123.132 48.672 123.132 49.144ZM122.052 49.144C122.052 48.848 122.016 48.572 121.944 48.316C121.88 48.06 121.78 47.84 121.644 47.656C121.516 47.464 121.352 47.316 121.152 47.212C120.952 47.1 120.724 47.044 120.468 47.044C120.212 47.044 119.984 47.1 119.784 47.212C119.592 47.316 119.432 47.46 119.304 47.644C119.176 47.828 119.08 48.052 119.016 48.316C118.952 48.572 118.92 48.848 118.92 49.144C118.92 49.44 118.952 49.716 119.016 49.972C119.088 50.22 119.188 50.44 119.316 50.632C119.444 50.816 119.604 50.964 119.796 51.076C119.988 51.18 120.212 51.232 120.468 51.232C120.732 51.232 120.96 51.18 121.152 51.076C121.352 50.972 121.516 50.828 121.644 50.644C121.78 50.452 121.88 50.232 121.944 49.984C122.016 49.728 122.052 49.448 122.052 49.144ZM128.092 52V48.1C128.092 47.804 128.024 47.568 127.888 47.392C127.752 47.208 127.528 47.116 127.216 47.116C126.936 47.116 126.652 47.2 126.364 47.368C126.084 47.536 125.816 47.76 125.56 48.04V52H124.492V46.276H125.344L125.476 47.104C125.748 46.856 126.052 46.636 126.388 46.444C126.724 46.252 127.096 46.156 127.504 46.156C128.048 46.156 128.46 46.308 128.74 46.612C129.02 46.908 129.16 47.316 129.16 47.836V52H128.092ZM135.656 52.42C135.656 52.724 135.58 52.984 135.428 53.2C135.276 53.424 135.072 53.608 134.816 53.752C134.56 53.896 134.26 54.004 133.916 54.076C133.58 54.148 133.228 54.184 132.86 54.184C132.484 54.184 132.132 54.152 131.804 54.088C131.484 54.032 131.204 53.944 130.964 53.824C130.724 53.704 130.532 53.552 130.388 53.368C130.252 53.184 130.184 52.964 130.184 52.708C130.184 52.412 130.284 52.148 130.484 51.916C130.684 51.676 130.988 51.448 131.396 51.232C131.156 51.064 131.036 50.864 131.036 50.632C131.036 50.36 131.236 50.1 131.636 49.852C131.308 49.692 131.048 49.468 130.856 49.18C130.664 48.884 130.568 48.54 130.568 48.148C130.568 47.836 130.628 47.56 130.748 47.32C130.868 47.072 131.028 46.864 131.228 46.696C131.428 46.52 131.66 46.388 131.924 46.3C132.196 46.204 132.476 46.156 132.764 46.156C133.044 46.156 133.308 46.2 133.556 46.288C133.812 46.368 134.04 46.488 134.24 46.648L135.692 46.192L135.848 47.152L134.756 47.26C134.908 47.54 134.984 47.836 134.984 48.148C134.984 48.452 134.924 48.728 134.804 48.976C134.684 49.216 134.524 49.42 134.324 49.588C134.124 49.756 133.888 49.888 133.616 49.984C133.352 50.072 133.076 50.116 132.788 50.116C132.628 50.116 132.484 50.104 132.356 50.08C132.268 50.136 132.196 50.196 132.14 50.26C132.092 50.316 132.068 50.372 132.068 50.428C132.068 50.476 132.084 50.52 132.116 50.56C132.148 50.592 132.208 50.624 132.296 50.656C132.384 50.688 132.504 50.72 132.656 50.752C132.816 50.776 133.024 50.812 133.28 50.86L133.688 50.932C134.296 51.044 134.776 51.208 135.128 51.424C135.48 51.64 135.656 51.972 135.656 52.42ZM132.884 51.7C132.724 51.668 132.592 51.644 132.488 51.628C132.384 51.612 132.276 51.588 132.164 51.556C131.524 51.884 131.204 52.24 131.204 52.624C131.204 52.856 131.348 53.044 131.636 53.188C131.924 53.34 132.348 53.416 132.908 53.416C133.468 53.416 133.896 53.332 134.192 53.164C134.496 52.996 134.648 52.792 134.648 52.552C134.648 52.376 134.568 52.228 134.408 52.108C134.256 51.988 133.976 51.892 133.568 51.82L132.884 51.7ZM133.952 48.136C133.952 47.792 133.844 47.508 133.628 47.284C133.412 47.052 133.124 46.936 132.764 46.936C132.404 46.936 132.12 47.056 131.912 47.296C131.704 47.536 131.6 47.832 131.6 48.184C131.6 48.52 131.704 48.8 131.912 49.024C132.12 49.248 132.404 49.36 132.764 49.36C133.132 49.36 133.42 49.244 133.628 49.012C133.844 48.772 133.952 48.48 133.952 48.136ZM143.5 50.404C143.5 50.932 143.308 51.352 142.924 51.664C142.548 51.968 141.988 52.12 141.244 52.12C140.86 52.12 140.476 52.064 140.092 51.952C139.716 51.84 139.404 51.716 139.156 51.58L139.312 50.572C139.584 50.756 139.888 50.912 140.224 51.04C140.568 51.168 140.936 51.232 141.328 51.232C141.696 51.232 141.98 51.168 142.18 51.04C142.388 50.904 142.492 50.716 142.492 50.476C142.492 50.348 142.468 50.236 142.42 50.14C142.38 50.044 142.308 49.96 142.204 49.888C142.1 49.816 141.96 49.752 141.784 49.696C141.608 49.632 141.392 49.568 141.136 49.504C140.8 49.424 140.512 49.336 140.272 49.24C140.032 49.136 139.836 49.016 139.684 48.88C139.54 48.744 139.432 48.584 139.36 48.4C139.288 48.216 139.252 47.996 139.252 47.74C139.252 47.284 139.432 46.908 139.792 46.612C140.152 46.308 140.644 46.156 141.268 46.156C141.628 46.156 141.964 46.192 142.276 46.264C142.588 46.328 142.88 46.42 143.152 46.54L142.984 47.548C142.728 47.404 142.448 47.288 142.144 47.2C141.848 47.104 141.548 47.056 141.244 47.056C140.916 47.056 140.668 47.116 140.5 47.236C140.34 47.348 140.26 47.508 140.26 47.716C140.26 47.908 140.344 48.068 140.512 48.196C140.688 48.316 141 48.432 141.448 48.544C141.8 48.632 142.104 48.728 142.36 48.832C142.624 48.936 142.84 49.06 143.008 49.204C143.176 49.34 143.3 49.508 143.38 49.708C143.46 49.9 143.5 50.132 143.5 50.404ZM147.561 52.024C147.473 52.04 147.361 52.056 147.225 52.072C147.097 52.088 146.941 52.096 146.757 52.096C146.253 52.096 145.849 51.988 145.545 51.772C145.241 51.556 145.089 51.16 145.089 50.584V47.176H144.225V46.276H145.089V44.368L146.133 44.212V46.276H147.369L147.513 47.176H146.133V50.392C146.133 50.624 146.189 50.808 146.301 50.944C146.413 51.08 146.621 51.148 146.925 51.148C147.117 51.148 147.281 51.136 147.417 51.112L147.561 52.024ZM153.777 49.144C153.777 49.616 153.709 50.036 153.573 50.404C153.445 50.772 153.261 51.084 153.021 51.34C152.781 51.596 152.497 51.792 152.169 51.928C151.849 52.056 151.497 52.12 151.113 52.12C150.729 52.12 150.377 52.056 150.057 51.928C149.737 51.792 149.461 51.596 149.229 51.34C148.997 51.084 148.813 50.772 148.677 50.404C148.549 50.036 148.485 49.616 148.485 49.144C148.485 48.672 148.549 48.252 148.677 47.884C148.813 47.516 148.997 47.204 149.229 46.948C149.461 46.692 149.737 46.496 150.057 46.36C150.377 46.224 150.729 46.156 151.113 46.156C151.497 46.156 151.849 46.224 152.169 46.36C152.497 46.496 152.781 46.692 153.021 46.948C153.261 47.204 153.445 47.516 153.573 47.884C153.709 48.252 153.777 48.672 153.777 49.144ZM152.697 49.144C152.697 48.848 152.661 48.572 152.589 48.316C152.525 48.06 152.425 47.84 152.289 47.656C152.161 47.464 151.997 47.316 151.797 47.212C151.597 47.1 151.369 47.044 151.113 47.044C150.857 47.044 150.629 47.1 150.429 47.212C150.237 47.316 150.077 47.46 149.949 47.644C149.821 47.828 149.725 48.052 149.661 48.316C149.597 48.572 149.565 48.848 149.565 49.144C149.565 49.44 149.597 49.716 149.661 49.972C149.733 50.22 149.833 50.44 149.961 50.632C150.089 50.816 150.249 50.964 150.441 51.076C150.633 51.18 150.857 51.232 151.113 51.232C151.377 51.232 151.605 51.18 151.797 51.076C151.997 50.972 152.161 50.828 152.289 50.644C152.425 50.452 152.525 50.232 152.589 49.984C152.661 49.728 152.697 49.448 152.697 49.144ZM158.341 47.176C158.101 47.192 157.873 47.24 157.657 47.32C157.441 47.4 157.241 47.504 157.057 47.632C156.873 47.76 156.709 47.908 156.565 48.076C156.421 48.244 156.301 48.424 156.205 48.616V52H155.137V46.276H155.989L156.169 47.44C156.377 47.112 156.645 46.824 156.973 46.576C157.301 46.32 157.701 46.18 158.173 46.156L158.341 47.176ZM161.778 52.6C161.658 52.92 161.53 53.18 161.394 53.38C161.258 53.588 161.11 53.752 160.95 53.872C160.79 53.992 160.618 54.072 160.434 54.112C160.25 54.16 160.054 54.184 159.846 54.184C159.734 54.184 159.642 54.18 159.57 54.172C159.506 54.164 159.446 54.152 159.39 54.136L159.234 53.164C159.322 53.188 159.414 53.208 159.51 53.224C159.614 53.24 159.71 53.248 159.798 53.248C160.038 53.248 160.242 53.184 160.41 53.056C160.578 52.928 160.718 52.712 160.83 52.408L160.974 52.024L158.886 46.36L159.966 46.192L161.502 50.728L163.002 46.276H164.118L161.778 52.6ZM170.623 52.024C170.535 52.04 170.423 52.056 170.287 52.072C170.159 52.088 170.003 52.096 169.819 52.096C169.315 52.096 168.911 51.988 168.607 51.772C168.303 51.556 168.151 51.16 168.151 50.584V47.176H167.287V46.276H168.151V44.368L169.195 44.212V46.276H170.431L170.575 47.176H169.195V50.392C169.195 50.624 169.251 50.808 169.363 50.944C169.475 51.08 169.683 51.148 169.987 51.148C170.179 51.148 170.343 51.136 170.479 51.112L170.623 52.024ZM176.839 49.144C176.839 49.616 176.771 50.036 176.635 50.404C176.507 50.772 176.323 51.084 176.083 51.34C175.843 51.596 175.559 51.792 175.231 51.928C174.911 52.056 174.559 52.12 174.175 52.12C173.791 52.12 173.439 52.056 173.119 51.928C172.799 51.792 172.523 51.596 172.291 51.34C172.059 51.084 171.875 50.772 171.739 50.404C171.611 50.036 171.547 49.616 171.547 49.144C171.547 48.672 171.611 48.252 171.739 47.884C171.875 47.516 172.059 47.204 172.291 46.948C172.523 46.692 172.799 46.496 173.119 46.36C173.439 46.224 173.791 46.156 174.175 46.156C174.559 46.156 174.911 46.224 175.231 46.36C175.559 46.496 175.843 46.692 176.083 46.948C176.323 47.204 176.507 47.516 176.635 47.884C176.771 48.252 176.839 48.672 176.839 49.144ZM175.759 49.144C175.759 48.848 175.723 48.572 175.651 48.316C175.587 48.06 175.487 47.84 175.351 47.656C175.223 47.464 175.059 47.316 174.859 47.212C174.659 47.1 174.431 47.044 174.175 47.044C173.919 47.044 173.691 47.1 173.491 47.212C173.299 47.316 173.139 47.46 173.011 47.644C172.883 47.828 172.787 48.052 172.723 48.316C172.659 48.572 172.627 48.848 172.627 49.144C172.627 49.44 172.659 49.716 172.723 49.972C172.795 50.22 172.895 50.44 173.023 50.632C173.151 50.816 173.311 50.964 173.503 51.076C173.695 51.18 173.919 51.232 174.175 51.232C174.439 51.232 174.667 51.18 174.859 51.076C175.059 50.972 175.223 50.828 175.351 50.644C175.487 50.452 175.587 50.232 175.651 49.984C175.723 49.728 175.759 49.448 175.759 49.144ZM183.584 52.024C183.496 52.04 183.384 52.056 183.248 52.072C183.12 52.088 182.964 52.096 182.78 52.096C182.276 52.096 181.872 51.988 181.568 51.772C181.264 51.556 181.112 51.16 181.112 50.584V47.176H180.248V46.276H181.112V44.368L182.156 44.212V46.276H183.392L183.536 47.176H182.156V50.392C182.156 50.624 182.212 50.808 182.324 50.944C182.436 51.08 182.644 51.148 182.948 51.148C183.14 51.148 183.304 51.136 183.44 51.112L183.584 52.024ZM189.452 51.352C189.148 51.592 188.808 51.78 188.432 51.916C188.064 52.052 187.64 52.12 187.16 52.12C186.784 52.12 186.436 52.064 186.116 51.952C185.796 51.832 185.516 51.652 185.276 51.412C185.036 51.164 184.848 50.852 184.712 50.476C184.576 50.1 184.508 49.648 184.508 49.12C184.508 48.664 184.572 48.252 184.7 47.884C184.828 47.516 185.004 47.204 185.228 46.948C185.452 46.692 185.716 46.496 186.02 46.36C186.332 46.224 186.668 46.156 187.028 46.156C187.444 46.156 187.804 46.232 188.108 46.384C188.42 46.536 188.676 46.74 188.876 46.996C189.076 47.252 189.224 47.556 189.32 47.908C189.416 48.26 189.464 48.632 189.464 49.024V49.252H185.576C185.592 49.916 185.748 50.412 186.044 50.74C186.34 51.06 186.74 51.216 187.244 51.208C187.66 51.208 188.028 51.136 188.348 50.992C188.668 50.84 188.984 50.64 189.296 50.392L189.452 51.352ZM187.016 46.996C186.68 46.996 186.384 47.116 186.128 47.356C185.88 47.596 185.712 47.96 185.624 48.448H188.384C188.32 47.984 188.18 47.628 187.964 47.38C187.748 47.124 187.432 46.996 187.016 46.996ZM190.904 52V43.504L191.972 43.336V52H190.904ZM193.822 52V43.504L194.89 43.336V52H193.822ZM196.728 53.596L196.14 53.452L196.74 50.572H197.976L196.728 53.596ZM48.308 68L48.188 67.232C47.956 67.464 47.68 67.672 47.36 67.856C47.04 68.032 46.644 68.12 46.172 68.12C45.652 68.12 45.24 67.976 44.936 67.688C44.64 67.4 44.492 67.012 44.492 66.524C44.492 66.164 44.568 65.86 44.72 65.612C44.872 65.356 45.1 65.14 45.404 64.964C45.708 64.788 46.084 64.648 46.532 64.544C46.98 64.432 47.504 64.344 48.104 64.28V64.04C48.104 63.68 48.004 63.428 47.804 63.284C47.612 63.14 47.348 63.068 47.012 63.068C46.66 63.068 46.32 63.116 45.992 63.212C45.664 63.308 45.344 63.424 45.032 63.56L44.888 62.636C45.232 62.5 45.576 62.388 45.92 62.3C46.264 62.204 46.66 62.156 47.108 62.156C47.812 62.156 48.332 62.304 48.668 62.6C49.004 62.888 49.172 63.352 49.172 63.992V68H48.308ZM48.104 65.096C47.576 65.144 47.144 65.216 46.808 65.312C46.48 65.408 46.22 65.516 46.028 65.636C45.844 65.756 45.716 65.888 45.644 66.032C45.58 66.176 45.548 66.32 45.548 66.464C45.548 66.696 45.62 66.884 45.764 67.028C45.916 67.164 46.128 67.232 46.4 67.232C46.712 67.232 47.012 67.16 47.3 67.016C47.596 66.872 47.864 66.676 48.104 66.428V65.096ZM54.4283 68V64.1C54.4283 63.804 54.3603 63.568 54.2243 63.392C54.0883 63.208 53.8643 63.116 53.5523 63.116C53.2723 63.116 52.9883 63.2 52.7003 63.368C52.4203 63.536 52.1523 63.76 51.8963 64.04V68H50.8283V62.276H51.6803L51.8123 63.104C52.0843 62.856 52.3883 62.636 52.7243 62.444C53.0603 62.252 53.4323 62.156 53.8403 62.156C54.3843 62.156 54.7963 62.308 55.0763 62.612C55.3563 62.908 55.4963 63.316 55.4963 63.836V68H54.4283ZM61.0804 68L60.9484 67.172C60.7324 67.428 60.4724 67.652 60.1684 67.844C59.8724 68.028 59.5124 68.12 59.0884 68.12C58.7764 68.12 58.4844 68.064 58.2124 67.952C57.9404 67.84 57.7004 67.668 57.4924 67.436C57.2924 67.196 57.1324 66.9 57.0124 66.548C56.8924 66.196 56.8324 65.78 56.8324 65.3C56.8324 64.78 56.9004 64.328 57.0364 63.944C57.1804 63.552 57.3684 63.228 57.6004 62.972C57.8404 62.716 58.1164 62.524 58.4284 62.396C58.7404 62.268 59.0724 62.204 59.4244 62.204C59.7044 62.204 59.9684 62.228 60.2164 62.276C60.4644 62.324 60.6804 62.384 60.8644 62.456V59.504L61.9324 59.336V68H61.0804ZM60.8644 63.428C60.6404 63.316 60.4244 63.236 60.2164 63.188C60.0164 63.132 59.7644 63.104 59.4604 63.104C59.0044 63.104 58.6324 63.284 58.3444 63.644C58.0564 64.004 57.9124 64.54 57.9124 65.252C57.9124 65.884 58.0364 66.364 58.2844 66.692C58.5404 67.012 58.8604 67.172 59.2444 67.172C59.5804 67.172 59.8764 67.08 60.1324 66.896C60.3884 66.712 60.6324 66.468 60.8644 66.164V63.428ZM69.8502 68V64.1C69.8502 63.804 69.7822 63.568 69.6462 63.392C69.5102 63.208 69.2862 63.116 68.9742 63.116C68.6942 63.116 68.4102 63.2 68.1222 63.368C67.8422 63.536 67.5742 63.76 67.3182 64.04V68H66.2502V62.276H67.1022L67.2342 63.104C67.5062 62.856 67.8102 62.636 68.1462 62.444C68.4822 62.252 68.8542 62.156 69.2622 62.156C69.8062 62.156 70.2182 62.308 70.4982 62.612C70.7782 62.908 70.9182 63.316 70.9182 63.836V68H69.8502ZM77.5463 65.144C77.5463 65.616 77.4783 66.036 77.3423 66.404C77.2143 66.772 77.0303 67.084 76.7903 67.34C76.5503 67.596 76.2663 67.792 75.9383 67.928C75.6183 68.056 75.2663 68.12 74.8823 68.12C74.4983 68.12 74.1463 68.056 73.8263 67.928C73.5063 67.792 73.2303 67.596 72.9983 67.34C72.7663 67.084 72.5823 66.772 72.4463 66.404C72.3183 66.036 72.2543 65.616 72.2543 65.144C72.2543 64.672 72.3183 64.252 72.4463 63.884C72.5823 63.516 72.7663 63.204 72.9983 62.948C73.2303 62.692 73.5063 62.496 73.8263 62.36C74.1463 62.224 74.4983 62.156 74.8823 62.156C75.2663 62.156 75.6183 62.224 75.9383 62.36C76.2663 62.496 76.5503 62.692 76.7903 62.948C77.0303 63.204 77.2143 63.516 77.3423 63.884C77.4783 64.252 77.5463 64.672 77.5463 65.144ZM76.4663 65.144C76.4663 64.848 76.4303 64.572 76.3583 64.316C76.2943 64.06 76.1943 63.84 76.0583 63.656C75.9303 63.464 75.7663 63.316 75.5663 63.212C75.3663 63.1 75.1383 63.044 74.8823 63.044C74.6263 63.044 74.3983 63.1 74.1983 63.212C74.0063 63.316 73.8463 63.46 73.7183 63.644C73.5903 63.828 73.4943 64.052 73.4303 64.316C73.3663 64.572 73.3343 64.848 73.3343 65.144C73.3343 65.44 73.3663 65.716 73.4303 65.972C73.5023 66.22 73.6023 66.44 73.7303 66.632C73.8583 66.816 74.0183 66.964 74.2103 67.076C74.4023 67.18 74.6263 67.232 74.8823 67.232C75.1463 67.232 75.3743 67.18 75.5663 67.076C75.7663 66.972 75.9303 66.828 76.0583 66.644C76.1943 66.452 76.2943 66.232 76.3583 65.984C76.4303 65.728 76.4663 65.448 76.4663 65.144ZM84.4061 68.024H83.5061L82.2341 63.704L80.9741 68.024H80.0861L78.2501 62.36L79.2941 62.192L80.5421 66.512L81.8021 62.276H82.7021L83.9621 66.512L85.1741 62.276H86.2421L84.4061 68.024ZM90.2789 68V59.72H91.4069V68H90.2789ZM100.253 67.532C99.9892 67.732 99.6972 67.88 99.3772 67.976C99.0652 68.072 98.7052 68.12 98.2972 68.12C97.9132 68.12 97.5572 68.056 97.2292 67.928C96.9092 67.792 96.6292 67.6 96.3892 67.352C96.1492 67.096 95.9612 66.784 95.8252 66.416C95.6972 66.048 95.6332 65.624 95.6332 65.144C95.6332 64.656 95.7012 64.228 95.8372 63.86C95.9812 63.484 96.1772 63.172 96.4252 62.924C96.6732 62.668 96.9612 62.476 97.2892 62.348C97.6252 62.22 97.9852 62.156 98.3692 62.156C98.7852 62.156 99.1452 62.212 99.4492 62.324C99.7532 62.428 100.001 62.548 100.193 62.684L100.037 63.728C99.7892 63.528 99.5292 63.372 99.2572 63.26C98.9932 63.148 98.6932 63.092 98.3572 63.092C97.8612 63.092 97.4612 63.268 97.1572 63.62C96.8612 63.964 96.7132 64.468 96.7132 65.132C96.7132 65.828 96.8732 66.344 97.1932 66.68C97.5132 67.016 97.9132 67.184 98.3932 67.184C98.6812 67.184 98.9652 67.14 99.2452 67.052C99.5332 66.956 99.8172 66.788 100.097 66.548L100.253 67.532ZM105.027 68L104.907 67.232C104.675 67.464 104.399 67.672 104.079 67.856C103.759 68.032 103.363 68.12 102.891 68.12C102.371 68.12 101.959 67.976 101.655 67.688C101.359 67.4 101.211 67.012 101.211 66.524C101.211 66.164 101.287 65.86 101.439 65.612C101.591 65.356 101.819 65.14 102.123 64.964C102.427 64.788 102.803 64.648 103.251 64.544C103.699 64.432 104.223 64.344 104.823 64.28V64.04C104.823 63.68 104.723 63.428 104.523 63.284C104.331 63.14 104.067 63.068 103.731 63.068C103.379 63.068 103.039 63.116 102.711 63.212C102.383 63.308 102.063 63.424 101.751 63.56L101.607 62.636C101.951 62.5 102.295 62.388 102.639 62.3C102.983 62.204 103.379 62.156 103.827 62.156C104.531 62.156 105.051 62.304 105.387 62.6C105.723 62.888 105.891 63.352 105.891 63.992V68H105.027ZM104.823 65.096C104.295 65.144 103.863 65.216 103.527 65.312C103.199 65.408 102.939 65.516 102.747 65.636C102.563 65.756 102.435 65.888 102.363 66.032C102.299 66.176 102.267 66.32 102.267 66.464C102.267 66.696 102.339 66.884 102.483 67.028C102.635 67.164 102.847 67.232 103.119 67.232C103.431 67.232 103.731 67.16 104.019 67.016C104.315 66.872 104.583 66.676 104.823 66.428V65.096ZM111.147 68V64.1C111.147 63.804 111.079 63.568 110.943 63.392C110.807 63.208 110.583 63.116 110.271 63.116C109.991 63.116 109.707 63.2 109.419 63.368C109.139 63.536 108.871 63.76 108.615 64.04V68H107.547V62.276H108.399L108.531 63.104C108.803 62.856 109.107 62.636 109.443 62.444C109.779 62.252 110.151 62.156 110.559 62.156C111.103 62.156 111.515 62.308 111.795 62.612C112.075 62.908 112.215 63.316 112.215 63.836V68H111.147ZM119.26 68.024C119.172 68.04 119.06 68.056 118.924 68.072C118.796 68.088 118.64 68.096 118.456 68.096C117.952 68.096 117.548 67.988 117.244 67.772C116.94 67.556 116.788 67.16 116.788 66.584V63.176H115.924V62.276H116.788V60.368L117.832 60.212V62.276H119.068L119.212 63.176H117.832V66.392C117.832 66.624 117.888 66.808 118 66.944C118.112 67.08 118.32 67.148 118.624 67.148C118.816 67.148 118.98 67.136 119.116 67.112L119.26 68.024ZM122.789 68.6C122.669 68.92 122.541 69.18 122.405 69.38C122.269 69.588 122.121 69.752 121.961 69.872C121.801 69.992 121.629 70.072 121.445 70.112C121.261 70.16 121.065 70.184 120.857 70.184C120.745 70.184 120.653 70.18 120.581 70.172C120.517 70.164 120.457 70.152 120.401 70.136L120.245 69.164C120.333 69.188 120.425 69.208 120.521 69.224C120.625 69.24 120.721 69.248 120.809 69.248C121.049 69.248 121.253 69.184 121.421 69.056C121.589 68.928 121.729 68.712 121.841 68.408L121.985 68.024L119.897 62.36L120.977 62.192L122.513 66.728L124.013 62.276H125.129L122.789 68.6ZM131.35 64.976C131.35 65.496 131.278 65.952 131.134 66.344C130.998 66.728 130.81 67.048 130.57 67.304C130.338 67.56 130.062 67.752 129.742 67.88C129.43 68.008 129.102 68.072 128.758 68.072C128.478 68.072 128.214 68.048 127.966 68C127.718 67.952 127.502 67.892 127.318 67.82V70.076L126.25 70.232V62.276H127.102L127.234 63.104C127.45 62.848 127.706 62.628 128.002 62.444C128.306 62.252 128.67 62.156 129.094 62.156C129.406 62.156 129.698 62.216 129.97 62.336C130.242 62.448 130.478 62.62 130.678 62.852C130.886 63.084 131.05 63.376 131.17 63.728C131.29 64.08 131.35 64.496 131.35 64.976ZM130.27 65.024C130.27 64.4 130.142 63.924 129.886 63.596C129.638 63.268 129.318 63.104 128.926 63.104C128.598 63.104 128.306 63.196 128.05 63.38C127.794 63.564 127.55 63.808 127.318 64.112V66.86C127.534 66.972 127.742 67.052 127.942 67.1C128.15 67.148 128.406 67.172 128.71 67.172C129.166 67.172 129.538 66.992 129.826 66.632C130.122 66.272 130.27 65.736 130.27 65.024ZM137.327 67.352C137.023 67.592 136.683 67.78 136.307 67.916C135.939 68.052 135.515 68.12 135.035 68.12C134.659 68.12 134.311 68.064 133.991 67.952C133.671 67.832 133.391 67.652 133.151 67.412C132.911 67.164 132.723 66.852 132.587 66.476C132.451 66.1 132.383 65.648 132.383 65.12C132.383 64.664 132.447 64.252 132.575 63.884C132.703 63.516 132.879 63.204 133.103 62.948C133.327 62.692 133.591 62.496 133.895 62.36C134.207 62.224 134.543 62.156 134.903 62.156C135.319 62.156 135.679 62.232 135.983 62.384C136.295 62.536 136.551 62.74 136.751 62.996C136.951 63.252 137.099 63.556 137.195 63.908C137.291 64.26 137.339 64.632 137.339 65.024V65.252H133.451C133.467 65.916 133.623 66.412 133.919 66.74C134.215 67.06 134.615 67.216 135.119 67.208C135.535 67.208 135.903 67.136 136.223 66.992C136.543 66.84 136.859 66.64 137.171 66.392L137.327 67.352ZM134.891 62.996C134.555 62.996 134.259 63.116 134.003 63.356C133.755 63.596 133.587 63.96 133.499 64.448H136.259C136.195 63.984 136.055 63.628 135.839 63.38C135.623 63.124 135.307 62.996 134.891 62.996ZM142.628 60.452C142.628 60.636 142.56 60.796 142.424 60.932C142.296 61.06 142.14 61.124 141.956 61.124C141.772 61.124 141.612 61.06 141.476 60.932C141.34 60.796 141.272 60.636 141.272 60.452C141.272 60.268 141.34 60.108 141.476 59.972C141.612 59.836 141.772 59.768 141.956 59.768C142.14 59.768 142.296 59.836 142.424 59.972C142.56 60.108 142.628 60.268 142.628 60.452ZM141.416 68V62.276H142.484V68H141.416ZM146.998 68.024C146.91 68.04 146.798 68.056 146.662 68.072C146.534 68.088 146.378 68.096 146.194 68.096C145.69 68.096 145.286 67.988 144.982 67.772C144.678 67.556 144.526 67.16 144.526 66.584V63.176H143.662V62.276H144.526V60.368L145.57 60.212V62.276H146.806L146.95 63.176H145.57V66.392C145.57 66.624 145.626 66.808 145.738 66.944C145.85 67.08 146.058 67.148 146.362 67.148C146.554 67.148 146.718 67.136 146.854 67.112L146.998 68.024ZM154.398 68L154.278 67.232C154.046 67.464 153.77 67.672 153.45 67.856C153.13 68.032 152.734 68.12 152.262 68.12C151.742 68.12 151.33 67.976 151.026 67.688C150.73 67.4 150.582 67.012 150.582 66.524C150.582 66.164 150.658 65.86 150.81 65.612C150.962 65.356 151.19 65.14 151.494 64.964C151.798 64.788 152.174 64.648 152.622 64.544C153.07 64.432 153.594 64.344 154.194 64.28V64.04C154.194 63.68 154.094 63.428 153.894 63.284C153.702 63.14 153.438 63.068 153.102 63.068C152.75 63.068 152.41 63.116 152.082 63.212C151.754 63.308 151.434 63.424 151.122 63.56L150.978 62.636C151.322 62.5 151.666 62.388 152.01 62.3C152.354 62.204 152.75 62.156 153.198 62.156C153.902 62.156 154.422 62.304 154.758 62.6C155.094 62.888 155.262 63.352 155.262 63.992V68H154.398ZM154.194 65.096C153.666 65.144 153.234 65.216 152.898 65.312C152.57 65.408 152.31 65.516 152.118 65.636C151.934 65.756 151.806 65.888 151.734 66.032C151.67 66.176 151.638 66.32 151.638 66.464C151.638 66.696 151.71 66.884 151.854 67.028C152.006 67.164 152.218 67.232 152.49 67.232C152.802 67.232 153.102 67.16 153.39 67.016C153.686 66.872 153.954 66.676 154.194 66.428V65.096ZM157.002 68V59.504L158.07 59.336V68H157.002ZM159.92 68V59.504L160.988 59.336V68H159.92ZM166.687 60.452C166.687 60.636 166.619 60.796 166.483 60.932C166.355 61.06 166.199 61.124 166.015 61.124C165.831 61.124 165.671 61.06 165.535 60.932C165.399 60.796 165.331 60.636 165.331 60.452C165.331 60.268 165.399 60.108 165.535 59.972C165.671 59.836 165.831 59.768 166.015 59.768C166.199 59.768 166.355 59.836 166.483 59.972C166.619 60.108 166.687 60.268 166.687 60.452ZM165.475 68V62.276H166.543V68H165.475ZM171.909 68V64.1C171.909 63.804 171.841 63.568 171.705 63.392C171.569 63.208 171.345 63.116 171.033 63.116C170.753 63.116 170.469 63.2 170.181 63.368C169.901 63.536 169.633 63.76 169.377 64.04V68H168.309V62.276H169.161L169.293 63.104C169.565 62.856 169.869 62.636 170.205 62.444C170.541 62.252 170.913 62.156 171.321 62.156C171.865 62.156 172.277 62.308 172.557 62.612C172.837 62.908 172.977 63.316 172.977 63.836V68H171.909ZM180.022 68.024C179.934 68.04 179.822 68.056 179.686 68.072C179.558 68.088 179.402 68.096 179.218 68.096C178.714 68.096 178.31 67.988 178.006 67.772C177.702 67.556 177.55 67.16 177.55 66.584V63.176H176.686V62.276H177.55V60.368L178.594 60.212V62.276H179.83L179.974 63.176H178.594V66.392C178.594 66.624 178.65 66.808 178.762 66.944C178.874 67.08 179.082 67.148 179.386 67.148C179.578 67.148 179.742 67.136 179.878 67.112L180.022 68.024ZM184.917 68V64.1C184.917 63.804 184.849 63.568 184.713 63.392C184.577 63.208 184.353 63.116 184.041 63.116C183.761 63.116 183.477 63.2 183.189 63.368C182.909 63.536 182.641 63.76 182.385 64.04V68H181.317V59.504L182.385 59.336V63.032C182.505 62.928 182.633 62.824 182.769 62.72C182.913 62.616 183.065 62.524 183.225 62.444C183.385 62.356 183.557 62.288 183.741 62.24C183.925 62.184 184.121 62.156 184.329 62.156C184.873 62.156 185.285 62.308 185.565 62.612C185.845 62.908 185.985 63.316 185.985 63.836V68H184.917ZM192.265 67.352C191.961 67.592 191.621 67.78 191.245 67.916C190.877 68.052 190.453 68.12 189.973 68.12C189.597 68.12 189.249 68.064 188.929 67.952C188.609 67.832 188.329 67.652 188.089 67.412C187.849 67.164 187.661 66.852 187.525 66.476C187.389 66.1 187.321 65.648 187.321 65.12C187.321 64.664 187.385 64.252 187.513 63.884C187.641 63.516 187.817 63.204 188.041 62.948C188.265 62.692 188.529 62.496 188.833 62.36C189.145 62.224 189.481 62.156 189.841 62.156C190.257 62.156 190.617 62.232 190.921 62.384C191.233 62.536 191.489 62.74 191.689 62.996C191.889 63.252 192.037 63.556 192.133 63.908C192.229 64.26 192.277 64.632 192.277 65.024V65.252H188.389C188.405 65.916 188.561 66.412 188.857 66.74C189.153 67.06 189.553 67.216 190.057 67.208C190.473 67.208 190.841 67.136 191.161 66.992C191.481 66.84 191.797 66.64 192.109 66.392L192.265 67.352ZM189.829 62.996C189.493 62.996 189.197 63.116 188.941 63.356C188.693 63.596 188.525 63.96 188.437 64.448H191.197C191.133 63.984 190.993 63.628 190.777 63.38C190.561 63.124 190.245 62.996 189.829 62.996ZM48.836 82.404C48.836 82.932 48.644 83.352 48.26 83.664C47.884 83.968 47.324 84.12 46.58 84.12C46.196 84.12 45.812 84.064 45.428 83.952C45.052 83.84 44.74 83.716 44.492 83.58L44.648 82.572C44.92 82.756 45.224 82.912 45.56 83.04C45.904 83.168 46.272 83.232 46.664 83.232C47.032 83.232 47.316 83.168 47.516 83.04C47.724 82.904 47.828 82.716 47.828 82.476C47.828 82.348 47.804 82.236 47.756 82.14C47.716 82.044 47.644 81.96 47.54 81.888C47.436 81.816 47.296 81.752 47.12 81.696C46.944 81.632 46.728 81.568 46.472 81.504C46.136 81.424 45.848 81.336 45.608 81.24C45.368 81.136 45.172 81.016 45.02 80.88C44.876 80.744 44.768 80.584 44.696 80.4C44.624 80.216 44.588 79.996 44.588 79.74C44.588 79.284 44.768 78.908 45.128 78.612C45.488 78.308 45.98 78.156 46.604 78.156C46.964 78.156 47.3 78.192 47.612 78.264C47.924 78.328 48.216 78.42 48.488 78.54L48.32 79.548C48.064 79.404 47.784 79.288 47.48 79.2C47.184 79.104 46.884 79.056 46.58 79.056C46.252 79.056 46.004 79.116 45.836 79.236C45.676 79.348 45.596 79.508 45.596 79.716C45.596 79.908 45.68 80.068 45.848 80.196C46.024 80.316 46.336 80.432 46.784 80.544C47.136 80.632 47.44 80.728 47.696 80.832C47.96 80.936 48.176 81.06 48.344 81.204C48.512 81.34 48.636 81.508 48.716 81.708C48.796 81.9 48.836 82.132 48.836 82.404ZM53.6166 84L53.4966 83.232C53.2646 83.464 52.9886 83.672 52.6686 83.856C52.3486 84.032 51.9526 84.12 51.4806 84.12C50.9606 84.12 50.5486 83.976 50.2446 83.688C49.9486 83.4 49.8006 83.012 49.8006 82.524C49.8006 82.164 49.8766 81.86 50.0286 81.612C50.1806 81.356 50.4086 81.14 50.7126 80.964C51.0166 80.788 51.3926 80.648 51.8406 80.544C52.2886 80.432 52.8126 80.344 53.4126 80.28V80.04C53.4126 79.68 53.3126 79.428 53.1126 79.284C52.9206 79.14 52.6566 79.068 52.3206 79.068C51.9686 79.068 51.6286 79.116 51.3006 79.212C50.9726 79.308 50.6526 79.424 50.3406 79.56L50.1966 78.636C50.5406 78.5 50.8846 78.388 51.2286 78.3C51.5726 78.204 51.9686 78.156 52.4166 78.156C53.1206 78.156 53.6406 78.304 53.9766 78.6C54.3126 78.888 54.4806 79.352 54.4806 79.992V84H53.6166ZM53.4126 81.096C52.8846 81.144 52.4526 81.216 52.1166 81.312C51.7886 81.408 51.5286 81.516 51.3366 81.636C51.1526 81.756 51.0246 81.888 50.9526 82.032C50.8886 82.176 50.8566 82.32 50.8566 82.464C50.8566 82.696 50.9286 82.884 51.0726 83.028C51.2246 83.164 51.4366 83.232 51.7086 83.232C52.0206 83.232 52.3206 83.16 52.6086 83.016C52.9046 82.872 53.1726 82.676 53.4126 82.428V81.096ZM63.1929 84V80.1C63.1929 79.804 63.1289 79.568 63.0009 79.392C62.8809 79.208 62.6649 79.116 62.3529 79.116C62.0729 79.116 61.7969 79.2 61.5249 79.368C61.2529 79.536 60.9889 79.76 60.7329 80.04V84H59.6649V80.1C59.6649 79.804 59.6009 79.568 59.4729 79.392C59.3529 79.208 59.1369 79.116 58.8249 79.116C58.5449 79.116 58.2689 79.2 57.9969 79.368C57.7249 79.536 57.4609 79.76 57.2049 80.04V84H56.1369V78.276H56.9889L57.1209 79.104C57.3929 78.856 57.6889 78.636 58.0089 78.444C58.3369 78.252 58.7049 78.156 59.1129 78.156C59.5369 78.156 59.8649 78.24 60.0969 78.408C60.3369 78.576 60.5129 78.808 60.6249 79.104C60.8809 78.856 61.1769 78.636 61.5129 78.444C61.8569 78.252 62.2329 78.156 62.6409 78.156C63.1929 78.156 63.6009 78.308 63.8649 78.612C64.1289 78.908 64.2609 79.316 64.2609 79.836V84H63.1929ZM70.542 83.352C70.238 83.592 69.898 83.78 69.522 83.916C69.154 84.052 68.73 84.12 68.25 84.12C67.874 84.12 67.526 84.064 67.206 83.952C66.886 83.832 66.606 83.652 66.366 83.412C66.126 83.164 65.938 82.852 65.802 82.476C65.666 82.1 65.598 81.648 65.598 81.12C65.598 80.664 65.662 80.252 65.79 79.884C65.918 79.516 66.094 79.204 66.318 78.948C66.542 78.692 66.806 78.496 67.11 78.36C67.422 78.224 67.758 78.156 68.118 78.156C68.534 78.156 68.894 78.232 69.198 78.384C69.51 78.536 69.766 78.74 69.966 78.996C70.166 79.252 70.314 79.556 70.41 79.908C70.506 80.26 70.554 80.632 70.554 81.024V81.252H66.666C66.682 81.916 66.838 82.412 67.134 82.74C67.43 83.06 67.83 83.216 68.334 83.208C68.75 83.208 69.118 83.136 69.438 82.992C69.758 82.84 70.074 82.64 70.386 82.392L70.542 83.352ZM68.106 78.996C67.77 78.996 67.474 79.116 67.218 79.356C66.97 79.596 66.802 79.96 66.714 80.448H69.474C69.41 79.984 69.27 79.628 69.054 79.38C68.838 79.124 68.522 78.996 68.106 78.996ZM81.603 84V80.1C81.603 79.804 81.539 79.568 81.411 79.392C81.291 79.208 81.075 79.116 80.763 79.116C80.483 79.116 80.207 79.2 79.935 79.368C79.663 79.536 79.399 79.76 79.143 80.04V84H78.075V80.1C78.075 79.804 78.011 79.568 77.883 79.392C77.763 79.208 77.547 79.116 77.235 79.116C76.955 79.116 76.679 79.2 76.407 79.368C76.135 79.536 75.871 79.76 75.615 80.04V84H74.547V78.276H75.399L75.531 79.104C75.803 78.856 76.099 78.636 76.419 78.444C76.747 78.252 77.115 78.156 77.523 78.156C77.947 78.156 78.275 78.24 78.507 78.408C78.747 78.576 78.923 78.808 79.035 79.104C79.291 78.856 79.587 78.636 79.923 78.444C80.267 78.252 80.643 78.156 81.051 78.156C81.603 78.156 82.011 78.308 82.275 78.612C82.539 78.908 82.671 79.316 82.671 79.836V84H81.603ZM88.9522 83.352C88.6482 83.592 88.3082 83.78 87.9322 83.916C87.5642 84.052 87.1402 84.12 86.6602 84.12C86.2842 84.12 85.9362 84.064 85.6162 83.952C85.2962 83.832 85.0162 83.652 84.7762 83.412C84.5362 83.164 84.3482 82.852 84.2122 82.476C84.0762 82.1 84.0082 81.648 84.0082 81.12C84.0082 80.664 84.0722 80.252 84.2002 79.884C84.3282 79.516 84.5042 79.204 84.7282 78.948C84.9522 78.692 85.2162 78.496 85.5202 78.36C85.8322 78.224 86.1682 78.156 86.5282 78.156C86.9442 78.156 87.3042 78.232 87.6082 78.384C87.9202 78.536 88.1762 78.74 88.3762 78.996C88.5762 79.252 88.7242 79.556 88.8202 79.908C88.9162 80.26 88.9642 80.632 88.9642 81.024V81.252H85.0762C85.0922 81.916 85.2482 82.412 85.5442 82.74C85.8402 83.06 86.2402 83.216 86.7442 83.208C87.1602 83.208 87.5282 83.136 87.8482 82.992C88.1682 82.84 88.4842 82.64 88.7962 82.392L88.9522 83.352ZM86.5162 78.996C86.1802 78.996 85.8842 79.116 85.6282 79.356C85.3802 79.596 85.2122 79.96 85.1242 80.448H87.8842C87.8202 79.984 87.6802 79.628 87.4642 79.38C87.2482 79.124 86.9322 78.996 86.5162 78.996ZM94.3165 82.404C94.3165 82.932 94.1245 83.352 93.7405 83.664C93.3645 83.968 92.8045 84.12 92.0605 84.12C91.6765 84.12 91.2925 84.064 90.9085 83.952C90.5325 83.84 90.2205 83.716 89.9725 83.58L90.1285 82.572C90.4005 82.756 90.7045 82.912 91.0405 83.04C91.3845 83.168 91.7525 83.232 92.1445 83.232C92.5125 83.232 92.7965 83.168 92.9965 83.04C93.2045 82.904 93.3085 82.716 93.3085 82.476C93.3085 82.348 93.2845 82.236 93.2365 82.14C93.1965 82.044 93.1245 81.96 93.0205 81.888C92.9165 81.816 92.7765 81.752 92.6005 81.696C92.4245 81.632 92.2085 81.568 91.9525 81.504C91.6165 81.424 91.3285 81.336 91.0885 81.24C90.8485 81.136 90.6525 81.016 90.5005 80.88C90.3565 80.744 90.2485 80.584 90.1765 80.4C90.1045 80.216 90.0685 79.996 90.0685 79.74C90.0685 79.284 90.2485 78.908 90.6085 78.612C90.9685 78.308 91.4605 78.156 92.0845 78.156C92.4445 78.156 92.7805 78.192 93.0925 78.264C93.4045 78.328 93.6965 78.42 93.9685 78.54L93.8005 79.548C93.5445 79.404 93.2645 79.288 92.9605 79.2C92.6645 79.104 92.3645 79.056 92.0605 79.056C91.7325 79.056 91.4845 79.116 91.3165 79.236C91.1565 79.348 91.0765 79.508 91.0765 79.716C91.0765 79.908 91.1605 80.068 91.3285 80.196C91.5045 80.316 91.8165 80.432 92.2645 80.544C92.6165 80.632 92.9205 80.728 93.1765 80.832C93.4405 80.936 93.6565 81.06 93.8245 81.204C93.9925 81.34 94.1165 81.508 94.1965 81.708C94.2765 81.9 94.3165 82.132 94.3165 82.404ZM99.5782 82.404C99.5782 82.932 99.3862 83.352 99.0022 83.664C98.6262 83.968 98.0662 84.12 97.3222 84.12C96.9382 84.12 96.5542 84.064 96.1702 83.952C95.7942 83.84 95.4822 83.716 95.2342 83.58L95.3902 82.572C95.6622 82.756 95.9662 82.912 96.3022 83.04C96.6462 83.168 97.0142 83.232 97.4062 83.232C97.7742 83.232 98.0582 83.168 98.2582 83.04C98.4662 82.904 98.5702 82.716 98.5702 82.476C98.5702 82.348 98.5462 82.236 98.4982 82.14C98.4582 82.044 98.3862 81.96 98.2822 81.888C98.1782 81.816 98.0382 81.752 97.8622 81.696C97.6862 81.632 97.4702 81.568 97.2142 81.504C96.8782 81.424 96.5902 81.336 96.3502 81.24C96.1102 81.136 95.9142 81.016 95.7622 80.88C95.6182 80.744 95.5102 80.584 95.4382 80.4C95.3662 80.216 95.3302 79.996 95.3302 79.74C95.3302 79.284 95.5102 78.908 95.8702 78.612C96.2302 78.308 96.7222 78.156 97.3462 78.156C97.7062 78.156 98.0422 78.192 98.3542 78.264C98.6662 78.328 98.9582 78.42 99.2302 78.54L99.0622 79.548C98.8062 79.404 98.5262 79.288 98.2222 79.2C97.9262 79.104 97.6262 79.056 97.3222 79.056C96.9942 79.056 96.7462 79.116 96.5782 79.236C96.4182 79.348 96.3382 79.508 96.3382 79.716C96.3382 79.908 96.4222 80.068 96.5902 80.196C96.7662 80.316 97.0782 80.432 97.5262 80.544C97.8782 80.632 98.1822 80.728 98.4382 80.832C98.7022 80.936 98.9182 81.06 99.0862 81.204C99.2542 81.34 99.3782 81.508 99.4582 81.708C99.5382 81.9 99.5782 82.132 99.5782 82.404ZM104.359 84L104.239 83.232C104.007 83.464 103.731 83.672 103.411 83.856C103.091 84.032 102.695 84.12 102.223 84.12C101.703 84.12 101.291 83.976 100.987 83.688C100.691 83.4 100.543 83.012 100.543 82.524C100.543 82.164 100.619 81.86 100.771 81.612C100.923 81.356 101.151 81.14 101.455 80.964C101.759 80.788 102.135 80.648 102.583 80.544C103.031 80.432 103.555 80.344 104.155 80.28V80.04C104.155 79.68 104.055 79.428 103.855 79.284C103.663 79.14 103.399 79.068 103.063 79.068C102.711 79.068 102.371 79.116 102.043 79.212C101.715 79.308 101.395 79.424 101.083 79.56L100.939 78.636C101.283 78.5 101.627 78.388 101.971 78.3C102.315 78.204 102.711 78.156 103.159 78.156C103.863 78.156 104.383 78.304 104.719 78.6C105.055 78.888 105.223 79.352 105.223 79.992V84H104.359ZM104.155 81.096C103.627 81.144 103.195 81.216 102.859 81.312C102.531 81.408 102.271 81.516 102.079 81.636C101.895 81.756 101.767 81.888 101.695 82.032C101.631 82.176 101.599 82.32 101.599 82.464C101.599 82.696 101.671 82.884 101.815 83.028C101.967 83.164 102.179 83.232 102.451 83.232C102.763 83.232 103.063 83.16 103.351 83.016C103.647 82.872 103.915 82.676 104.155 82.428V81.096ZM111.715 84.42C111.715 84.724 111.639 84.984 111.487 85.2C111.335 85.424 111.131 85.608 110.875 85.752C110.619 85.896 110.319 86.004 109.975 86.076C109.639 86.148 109.287 86.184 108.919 86.184C108.543 86.184 108.191 86.152 107.863 86.088C107.543 86.032 107.263 85.944 107.023 85.824C106.783 85.704 106.591 85.552 106.447 85.368C106.311 85.184 106.243 84.964 106.243 84.708C106.243 84.412 106.343 84.148 106.543 83.916C106.743 83.676 107.047 83.448 107.455 83.232C107.215 83.064 107.095 82.864 107.095 82.632C107.095 82.36 107.295 82.1 107.695 81.852C107.367 81.692 107.107 81.468 106.915 81.18C106.723 80.884 106.627 80.54 106.627 80.148C106.627 79.836 106.687 79.56 106.807 79.32C106.927 79.072 107.087 78.864 107.287 78.696C107.487 78.52 107.719 78.388 107.983 78.3C108.255 78.204 108.535 78.156 108.823 78.156C109.103 78.156 109.367 78.2 109.615 78.288C109.871 78.368 110.099 78.488 110.299 78.648L111.751 78.192L111.907 79.152L110.815 79.26C110.967 79.54 111.043 79.836 111.043 80.148C111.043 80.452 110.983 80.728 110.863 80.976C110.743 81.216 110.583 81.42 110.383 81.588C110.183 81.756 109.947 81.888 109.675 81.984C109.411 82.072 109.135 82.116 108.847 82.116C108.687 82.116 108.543 82.104 108.415 82.08C108.327 82.136 108.255 82.196 108.199 82.26C108.151 82.316 108.127 82.372 108.127 82.428C108.127 82.476 108.143 82.52 108.175 82.56C108.207 82.592 108.267 82.624 108.355 82.656C108.443 82.688 108.563 82.72 108.715 82.752C108.875 82.776 109.083 82.812 109.339 82.86L109.747 82.932C110.355 83.044 110.835 83.208 111.187 83.424C111.539 83.64 111.715 83.972 111.715 84.42ZM108.943 83.7C108.783 83.668 108.651 83.644 108.547 83.628C108.443 83.612 108.335 83.588 108.223 83.556C107.583 83.884 107.263 84.24 107.263 84.624C107.263 84.856 107.407 85.044 107.695 85.188C107.983 85.34 108.407 85.416 108.967 85.416C109.527 85.416 109.955 85.332 110.251 85.164C110.555 84.996 110.707 84.792 110.707 84.552C110.707 84.376 110.627 84.228 110.467 84.108C110.315 83.988 110.035 83.892 109.627 83.82L108.943 83.7ZM110.011 80.136C110.011 79.792 109.903 79.508 109.687 79.284C109.471 79.052 109.183 78.936 108.823 78.936C108.463 78.936 108.179 79.056 107.971 79.296C107.763 79.536 107.659 79.832 107.659 80.184C107.659 80.52 107.763 80.8 107.971 81.024C108.179 81.248 108.463 81.36 108.823 81.36C109.191 81.36 109.479 81.244 109.687 81.012C109.903 80.772 110.011 80.48 110.011 80.136ZM117.452 83.352C117.148 83.592 116.808 83.78 116.432 83.916C116.064 84.052 115.64 84.12 115.16 84.12C114.784 84.12 114.436 84.064 114.116 83.952C113.796 83.832 113.516 83.652 113.276 83.412C113.036 83.164 112.848 82.852 112.712 82.476C112.576 82.1 112.508 81.648 112.508 81.12C112.508 80.664 112.572 80.252 112.7 79.884C112.828 79.516 113.004 79.204 113.228 78.948C113.452 78.692 113.716 78.496 114.02 78.36C114.332 78.224 114.668 78.156 115.028 78.156C115.444 78.156 115.804 78.232 116.108 78.384C116.42 78.536 116.676 78.74 116.876 78.996C117.076 79.252 117.224 79.556 117.32 79.908C117.416 80.26 117.464 80.632 117.464 81.024V81.252H113.576C113.592 81.916 113.748 82.412 114.044 82.74C114.34 83.06 114.74 83.216 115.244 83.208C115.66 83.208 116.028 83.136 116.348 82.992C116.668 82.84 116.984 82.64 117.296 82.392L117.452 83.352ZM115.016 78.996C114.68 78.996 114.384 79.116 114.128 79.356C113.88 79.596 113.712 79.96 113.624 80.448H116.384C116.32 79.984 116.18 79.628 115.964 79.38C115.748 79.124 115.432 78.996 115.016 78.996Z" fill="#DCDDDE"/>
<path d="M29 41.5007C24.8645 41.5007 21.5 44.8652 21.5 49.0007C21.5 53.1362 24.8645 56.5007 29 56.5007C33.1355 56.5007 36.5 53.1362 36.5 49.0007C36.5 44.8652 33.1355 41.5007 29 41.5007ZM32.75 49.7507H29.75V52.7507H28.25V49.7507H25.25V48.2507H28.25V45.2507H29.75V48.2507H32.75V49.7507Z" fill="#B9BBBE"/>
<g clip-path="url(#clip0_313_29413)">
<path d="M133.494 75.8069C132.918 75.0472 131.719 75.254 131.423 76.1597L130.575 78.752C130.54 78.8603 130.449 78.9411 130.338 78.9643L128.914 79.2573C128.795 79.2817 128.673 79.2363 128.599 79.1412L126.912 76.9692C126.473 76.4052 125.579 76.5744 125.378 77.259L124.452 80.4185C124.427 80.5877 123.647 82.8117 123.532 83.3016C123.163 84.8941 123.578 86.6846 124.528 88.0503H130.216H131.067H131.438H136.06C139.408 87.3603 135.899 78.9787 133.494 75.8069Z" fill="#F9CDF8"/>
<path d="M133.451 82.6171C133.424 82.4623 133.317 82.3208 133.199 82.2245C133.077 82.1239 132.918 82.0487 132.756 82.0498C132.443 82.0531 132.102 82.2445 132.023 82.5663C131.998 82.6625 131.967 82.762 131.976 82.8615C131.996 83.0683 132.028 83.2386 132.177 83.3979C132.302 83.5317 132.512 83.6379 132.7 83.6357C132.894 83.6335 133.097 83.577 133.238 83.4355C133.279 83.3868 133.32 83.3371 133.361 83.2884C133.433 83.1745 133.472 83.0495 133.476 82.9146C133.493 82.8162 133.467 82.7156 133.451 82.6171Z" fill="#9C5CE0"/>
<path d="M134.506 82.5915C132.677 82.9686 133.262 85.802 135.095 85.4248C136.922 85.0477 136.339 82.2133 134.506 82.5915Z" fill="#FF8FC2"/>
<path d="M124.625 85.0036C122.795 85.3807 123.379 88.2163 125.213 87.838C127.044 87.4609 126.458 84.6254 124.625 85.0036Z" fill="#FF8FC2"/>
<path d="M127.052 84.3081C127.025 84.1532 126.917 84.0117 126.8 83.9155C126.678 83.8148 126.519 83.7396 126.357 83.7407C126.044 83.7441 125.703 83.9354 125.623 84.2572C125.599 84.3534 125.568 84.4529 125.577 84.5525C125.597 84.7593 125.629 84.9296 125.778 85.0888C125.903 85.2226 126.113 85.3288 126.3 85.3266C126.495 85.3244 126.698 85.268 126.839 85.1264C126.88 85.0778 126.921 85.028 126.962 84.9793C127.034 84.8654 127.073 84.7405 127.077 84.6055C127.094 84.5071 127.068 84.4065 127.052 84.3081Z" fill="#9C5CE0"/>
<path d="M130.495 83.5139C130.53 83.8457 130.276 84.2383 130.013 83.8424C129.869 83.6267 129.5 83.6333 129.393 83.8833C129.305 84.0912 129.174 84.5192 128.781 84.277C128.651 84.1973 128.555 83.9585 128.486 83.8346C128.261 83.4332 127.667 83.8346 127.891 84.2349C128.125 84.6552 128.453 85.0876 128.984 85.1042C129.343 85.1152 129.599 84.9206 129.787 84.6585C130.01 84.8255 130.275 84.8742 130.603 84.6972C131.049 84.4572 131.265 83.9618 131.212 83.473C131.165 83.0162 130.448 83.055 130.495 83.5139Z" fill="#9C5CE0"/>
<path d="M124.938 86.0972C124.963 86.0961 124.989 86.0939 125.012 86.0895C125.213 86.0485 125.326 85.8616 125.323 85.6836C125.318 85.479 125.172 85.3386 124.969 85.3441C124.447 85.3563 123.919 85.3397 123.397 85.2932C123.263 85.2811 123.144 85.3341 123.071 85.4381C122.99 85.552 122.978 85.7101 123.038 85.8395C123.094 85.9601 123.205 86.0353 123.343 86.0474C123.87 86.0928 124.407 86.1105 124.938 86.0972Z" fill="#9C5CE0"/>
<path d="M125.054 86.595C124.601 86.8184 124.146 87.0496 123.703 87.2829C123.489 87.3957 123.466 87.6313 123.552 87.795C123.625 87.931 123.774 88.0283 123.945 87.9929C123.98 87.9863 124.015 87.973 124.052 87.9542C124.494 87.722 124.946 87.4908 125.397 87.2685C125.518 87.2088 125.592 87.1016 125.601 86.9733C125.61 86.8328 125.539 86.6913 125.421 86.6127C125.31 86.5409 125.177 86.5342 125.054 86.595Z" fill="#9C5CE0"/>
<path d="M134.506 83.8058C134.538 83.7992 134.572 83.7881 134.605 83.7716C135.098 83.5294 135.591 83.2695 136.069 83.0007C136.284 82.8791 136.301 82.638 136.208 82.4732C136.119 82.3162 135.921 82.2178 135.716 82.3328C135.241 82.6004 134.752 82.8581 134.263 83.0981C134.048 83.2042 134.018 83.4276 134.101 83.5946C134.172 83.7373 134.326 83.8423 134.506 83.8058Z" fill="#9C5CE0"/>
<path d="M136.908 84.2759C136.825 84.1554 136.694 84.0935 136.547 84.1045C135.938 84.1532 135.301 84.1819 134.655 84.1897C134.512 84.1908 134.391 84.2627 134.323 84.3843C134.252 84.5104 134.251 84.6674 134.321 84.7847C134.382 84.8875 134.493 84.9461 134.623 84.945C135.287 84.9373 135.977 84.9041 136.674 84.8488C136.692 84.8477 136.708 84.8455 136.725 84.8411C136.828 84.8201 136.907 84.7603 136.95 84.6697C137.008 84.5502 136.99 84.3954 136.908 84.2759Z" fill="#9C5CE0"/>
<path d="M137.998 72.7888H134.002V88.0502H137.998V72.7888Z" fill="#92CEFF"/>
<path d="M137.999 78.9455V78.6137H138V74.8912H137.999V74.5672H135.517V72.5312H134.851V74.5672H134.002V75.2307H137.334V78.2819H134.002V78.9455H134.851V81.9955H134.002V82.6591H137.334V85.7102H134.002V86.3738H134.851V88.1786H135.517V86.3738H137.999V86.042H138V82.3196H137.999V81.9955H135.517V78.9455H137.999Z" fill="#826CEF"/>
</g>
<defs>
<clipPath id="clip0_313_29413">
<rect width="15" height="15" fill="white" transform="translate(123 73)"/>
</clipPath>
</defs>
</svg>
