<svg fill="none" height="20" viewBox="0 0 20 20" width="20" xmlns="http://www.w3.org/2000/svg"><g fill="#b9bbbe"><path clip-rule="evenodd" d="m11.0749 1.66667h-6.07488c-1.84095 0-3.33333 1.49239-3.33333 3.33334v9.99999c0 1.841 1.49238 3.3333 3.33333 3.3333h9.99998c1.841 0 3.3334-1.4923 3.3334-3.3333v-6.07489c-.5281.15716-1.0876.24156-1.6667.24156-3.2217 0-5.8333-2.61167-5.8333-5.83333 0-.57915.0844-1.13858.2415-1.66667zm-4.40821 3.33334c.91933 0 1.66666.746 1.66666 1.66666 0 .92134-.74733 1.66667-1.66666 1.66667-.92134 0-1.66667-.74533-1.66667-1.66667 0-.92066.74533-1.66666 1.66667-1.66666zm-1.66667 9.99999 2.5-3.3333 1.66667 1.6666 3.33331-4.16663 2.5 5.83333z" fill-rule="evenodd"/><path d="m17.5 0v2.5h2.5v1.66667h-2.5v2.5h-1.6667v-2.5h-2.5v-1.66667h2.5v-2.5z"/></g></svg>