<svg fill="none" height="109" viewBox="0 0 222 109" width="222" xmlns="http://www.w3.org/2000/svg" xmlns:xlink="http://www.w3.org/1999/xlink"><clipPath id="a"><path d="m123 73.874h15v15h-15z"/></clipPath><rect fill="#fff" height="108" rx="8" width="222" y=".874023"/><path d="m19.596 17.586c0 .576-.088 1.08-.264 1.512-.176.424-.42.78-.732 1.068-.312.28-.68.492-1.104.636-.424.136-.888.204-1.392.204s-.968-.068-1.392-.204-.788-.344-1.092-.624c-.304-.288-.54-.644-.708-1.068-.168-.432-.252-.936-.252-1.512v-5.004h2.064v4.992c0 .536.116.952.348 1.248.24.296.592.444 1.056.444.472 0 .824-.144 1.056-.432.232-.296.348-.708.348-1.236v-5.016h2.064zm6.8217.192c0 .56-.068 1.04-.204 1.44-.136.392-.32.716-.552.972s-.5.444-.804.564c-.296.12-.604.18-.924.18-.264 0-.496-.02-.696-.06-.192-.04-.372-.088-.54-.144v2.1l-1.812.276v-8.112h1.596l.12.768c.2-.224.436-.428.708-.612.28-.184.608-.276.984-.276.304 0 .584.06.84.18.264.112.488.288.672.528.192.24.34.544.444.912.112.36.168.788.168 1.284zm-1.824.12c0-.496-.084-.852-.252-1.068-.168-.224-.38-.336-.636-.336-.2 0-.38.056-.54.168-.152.104-.308.248-.468.432v2.232c.128.064.252.112.372.144.12.024.272.036.456.036.304 0 .556-.124.756-.372.208-.248.312-.66.312-1.236zm8.8312 2.94c-.144.04-.296.068-.456.084-.152.024-.348.036-.588.036-.312 0-.6-.032-.864-.096s-.492-.168-.684-.312c-.184-.152-.328-.352-.432-.6-.104-.256-.156-.572-.156-.948v-2.532h-.78v-1.476h.78v-1.752l1.8-.288v2.04h1.116l.228 1.476h-1.344v2.244c0 .464.24.696.72.696.152 0 .3-.02.444-.06zm6.1725-2.904c0 .472-.072.896-.216 1.272s-.344.696-.6.96c-.248.264-.548.468-.9.612-.344.144-.72.216-1.128.216s-.784-.068-1.128-.204c-.336-.144-.632-.348-.888-.612-.248-.264-.444-.584-.588-.96-.136-.376-.204-.8-.204-1.272s.068-.896.204-1.272c.144-.384.34-.708.588-.972.256-.264.556-.468.9-.612s.72-.216 1.128-.216.784.072 1.128.216.64.348.888.612c.256.264.456.584.6.96s.216.8.216 1.272zm-1.752.012c0-.48-.092-.864-.276-1.152-.184-.296-.452-.444-.804-.444s-.62.144-.804.432c-.176.288-.264.672-.264 1.152s.092.868.276 1.164c.184.288.448.432.792.432.352 0 .62-.144.804-.432s.276-.672.276-1.152zm10.5519 1.308v1.62h-1.884v-1.62h-3.756v-1.248l3.42-5.256h2.22v5.148h1.14v1.356zm-1.884-4.572-2.076 3.216h2.076zm10.4322 2.136c0 .68-.08 1.284-.24 1.812-.16.52-.388.96-.684 1.32-.296.352-.652.62-1.068.804-.408.184-.864.276-1.368.276s-.964-.092-1.38-.276-.772-.452-1.068-.804c-.296-.36-.528-.8-.696-1.32-.16-.528-.24-1.132-.24-1.812s.08-1.28.24-1.8c.168-.528.4-.968.696-1.32.296-.36.652-.632 1.068-.816s.876-.276 1.38-.276.96.092 1.368.276c.416.184.772.456 1.068.816.296.352.524.792.684 1.32.16.52.24 1.12.24 1.8zm-1.98 0c0-.872-.112-1.536-.336-1.992-.224-.464-.572-.696-1.044-.696s-.824.232-1.056.696c-.224.456-.336 1.12-.336 1.992s.112 1.54.336 2.004c.232.456.584.684 1.056.684s.82-.228 1.044-.684c.224-.464.336-1.132.336-2.004zm9.5855 0c0 .68-.08 1.284-.24 1.812-.16.52-.388.96-.684 1.32-.296.352-.652.62-1.068.804-.408.184-.864.276-1.368.276s-.964-.092-1.38-.276-.772-.452-1.068-.804c-.296-.36-.528-.8-.696-1.32-.16-.528-.24-1.132-.24-1.812s.08-1.28.24-1.8c.168-.528.4-.968.696-1.32.296-.36.652-.632 1.068-.816s.876-.276 1.38-.276.96.092 1.368.276c.416.184.772.456 1.068.816.296.352.524.792.684 1.32.16.52.24 1.12.24 1.8zm-1.98 0c0-.872-.112-1.536-.336-1.992-.224-.464-.572-.696-1.044-.696s-.824.232-1.056.696c-.224.456-.336 1.12-.336 1.992s.112 1.54.336 2.004c.232.456.584.684 1.056.684s.82-.228 1.044-.684c.224-.464.336-1.132.336-2.004zm9.5855 0c0 .68-.08 1.284-.24 1.812-.16.52-.388.96-.684 1.32-.296.352-.652.62-1.068.804-.408.184-.864.276-1.368.276s-.964-.092-1.38-.276-.772-.452-1.068-.804c-.296-.36-.528-.8-.696-1.32-.16-.528-.24-1.132-.24-1.812s.08-1.28.24-1.8c.168-.528.4-.968.696-1.32.296-.36.652-.632 1.068-.816s.876-.276 1.38-.276.96.092 1.368.276c.416.184.772.456 1.068.816.296.352.524.792.684 1.32.16.52.24 1.12.24 1.8zm-1.98 0c0-.872-.112-1.536-.336-1.992-.224-.464-.572-.696-1.044-.696s-.824.232-1.056.696c-.224.456-.336 1.12-.336 1.992s.112 1.54.336 2.004c.232.456.584.684 1.056.684s.82-.228 1.044-.684c.224-.464.336-1.132.336-2.004zm9.9693 3.648c-.28.176-.572.308-.876.396-.304.08-.636.12-.996.12-.424 0-.812-.068-1.164-.204-.344-.136-.644-.332-.9-.588-.248-.256-.44-.568-.576-.936-.136-.376-.204-.8-.204-1.272 0-.512.076-.96.228-1.344.16-.392.372-.716.636-.972s.572-.448.924-.576c.36-.128.74-.192 1.14-.192.36 0 .68.04.96.12.288.08.548.188.78.324l-.24 1.548c-.232-.144-.452-.252-.66-.324-.2-.072-.42-.108-.66-.108-.376 0-.684.124-.924.372-.232.24-.348.608-.348 1.104 0 .504.128.88.384 1.128.256.24.568.36.936.36.216 0 .432-.032.648-.096.216-.072.448-.188.696-.348zm4.4057.408v-3.684c0-.208-.048-.376-.144-.504-.088-.136-.24-.204-.456-.204-.176 0-.348.048-.516.144-.16.096-.32.224-.48.384v3.864h-1.812v-8.376l1.812-.288v3.516c.248-.24.512-.44.792-.6.28-.168.6-.252.96-.252.552 0 .968.16 1.248.48s.42.768.42 1.344v4.176zm6.3133 0-.12-.732c-.24.256-.508.464-.804.624-.288.152-.636.228-1.044.228-.472 0-.856-.136-1.152-.408-.296-.28-.444-.688-.444-1.224 0-.688.272-1.204.816-1.548.544-.352 1.392-.58 2.544-.684v-.108c0-.496-.296-.744-.888-.744-.336 0-.66.04-.972.12-.304.08-.612.188-.924.324l-.216-1.368c.336-.136.696-.244 1.08-.324.392-.088.828-.132 1.308-.132.816 0 1.424.152 1.824.456s.6.832.6 1.584v3.936zm-.204-2.868c-.312.048-.568.108-.768.18s-.36.156-.48.252-.204.204-.252.324c-.048.112-.072.232-.072.36 0 .184.052.328.156.432.104.096.244.144.42.144.328 0 .66-.148.996-.444zm6.8021-1.284c-.44.032-.824.128-1.152.288s-.604.36-.828.6v3.264h-1.812v-5.88h1.584l.192 1.164c.176-.336.396-.624.66-.864.272-.248.624-.388 1.056-.42zm3.7961 4.152-.12-.732c-.24.256-.508.464-.804.624-.288.152-.6356.228-1.0436.228-.472 0-.856-.136-1.152-.408-.296-.28-.444-.688-.444-1.224 0-.688.272-1.204.816-1.548.544-.352 1.392-.58 2.5436-.684v-.108c0-.496-.296-.744-.888-.744-.3356 0-.6596.04-.9716.12-.304.08-.612.188-.924.324l-.216-1.368c.336-.136.696-.244 1.08-.324.392-.088.828-.132 1.3076-.132.816 0 1.424.152 1.824.456s.6.832.6 1.584v3.936zm-.204-2.868c-.312.048-.568.108-.768.18s-.3596.156-.4796.252-.204.204-.252.324c-.048.112-.072.232-.072.36 0 .184.052.328.156.432.104.096.244.144.4196.144.328 0 .66-.148.996-.444zm7.438 2.46c-.28.176-.572.308-.876.396-.304.08-.636.12-.996.12-.424 0-.812-.068-1.164-.204-.344-.136-.644-.332-.9-.588-.248-.256-.44-.568-.576-.936-.136-.376-.204-.8-.204-1.272 0-.512.076-.96.228-1.344.16-.392.372-.716.636-.972s.572-.448.924-.576c.36-.128.74-.192 1.14-.192.36 0 .68.04.96.12.288.08.548.188.78.324l-.24 1.548c-.232-.144-.452-.252-.66-.324-.2-.072-.42-.108-.66-.108-.376 0-.684.124-.924.372-.232.24-.348.608-.348 1.104 0 .504.128.88.384 1.128.256.24.568.36.936.36.216 0 .432-.032.648-.096.216-.072.448-.188.696-.348zm4.502.372c-.144.04-.296.068-.456.084-.152.024-.348.036-.588.036-.312 0-.6-.032-.864-.096s-.492-.168-.684-.312c-.184-.152-.328-.352-.432-.6-.104-.256-.156-.572-.156-.948v-2.532h-.78v-1.476h.78v-1.752l1.8-.288v2.04h1.116l.228 1.476h-1.344v2.244c0 .464.24.696.72.696.152 0 .3-.02.444-.06zm5.885-.504c-.32.208-.676.372-1.068.492-.384.112-.808.168-1.272.168-.44 0-.848-.06-1.224-.18-.368-.12-.688-.304-.96-.552-.264-.248-.472-.564-.624-.948-.144-.384-.216-.836-.216-1.356 0-.48.068-.908.204-1.284.144-.384.336-.708.576-.972.248-.272.54-.476.876-.612.344-.144.716-.216 1.116-.216.456 0 .848.08 1.176.24.328.152.596.368.804.648.216.272.372.596.468.972.104.368.156.764.156 1.188 0 .088-.004.176-.012.264 0 .088-.004.156-.012.204h-3.552c.048.472.2.804.456.996s.588.288.996.288c.328 0 .648-.056.96-.168.32-.112.644-.264.972-.456zm-2.64-4.284c-.256 0-.468.112-.636.336-.168.216-.268.552-.3 1.008h1.86c-.064-.896-.372-1.344-.924-1.344zm7.414.672c-.44.032-.824.128-1.152.288s-.604.36-.828.6v3.264h-1.812v-5.88h1.584l.192 1.164c.176-.336.396-.624.66-.864.272-.248.624-.388 1.056-.42zm5.257 2.34c0 .624-.208 1.1-.624 1.428-.408.328-1.004.492-1.788.492-.472 0-.92-.056-1.344-.168-.416-.112-.776-.248-1.08-.408l.216-1.392c.352.216.724.388 1.116.516.4.12.768.18 1.104.18.256 0 .444-.04.564-.12.12-.088.18-.2.18-.336 0-.072-.016-.136-.048-.192-.024-.056-.072-.108-.144-.156s-.172-.096-.3-.144-.296-.096-.504-.144c-.368-.096-.684-.196-.948-.3s-.484-.228-.66-.372c-.168-.144-.292-.312-.372-.504-.08-.2-.12-.44-.12-.72 0-.552.196-.996.588-1.332s.952-.504 1.68-.504c.4 0 .784.04 1.152.12.368.072.704.176 1.008.312l-.228 1.392c-.32-.176-.652-.312-.996-.408-.336-.096-.648-.144-.936-.144-.208 0-.364.036-.468.108s-.156.164-.156.276c0 .064.012.12.036.168.032.048.084.096.156.144s.172.096.3.144.296.1.504.156c.392.104.72.212.984.324.272.104.492.228.66.372s.288.316.36.516c.072.192.108.424.108.696zm2.687-1.284-1.104.24-.588-5.424h2.256zm-1.548 3.096v-2.064h1.956v2.064z" fill="#060607"/><rect fill="#ebedef" height="64" rx="8" width="198" x="12" y="32.874"/><path d="m45.068 52.874v-8.28h1.128v8.28zm9.2783 0v-3.9c0-.296-.068-.532-.204-.708-.136-.184-.36-.276-.672-.276-.28 0-.564.084-.852.252-.28.168-.548.392-.804.672v3.96h-1.068v-8.496l1.068-.168v3.696c.12-.104.248-.208.384-.312.144-.104.296-.196.456-.276.16-.088.332-.156.516-.204.184-.056.38-.084.588-.084.544 0 .956.152 1.236.456.28.296.42.704.42 1.224v4.164zm6.1961 0-.12-.768c-.232.232-.508.44-.828.624-.32.176-.716.264-1.188.264-.52 0-.932-.144-1.236-.432-.296-.288-.444-.676-.444-1.164 0-.36.076-.664.228-.912.152-.256.38-.472.684-.648s.68-.316 1.128-.42c.448-.112.972-.2 1.572-.264v-.24c0-.36-.1-.612-.3-.756-.192-.144-.456-.216-.792-.216-.352 0-.692.048-1.02.144s-.648.212-.96.348l-.144-.924c.344-.136.688-.248 1.032-.336.344-.096.74-.144 1.188-.144.704 0 1.224.148 1.56.444.336.288.504.752.504 1.392v4.008zm-.204-2.904c-.528.048-.96.12-1.296.216-.328.096-.588.204-.78.324-.184.12-.312.252-.384.396-.064.144-.096.288-.096.432 0 .232.072.42.216.564.152.136.364.204.636.204.312 0 .612-.072.9-.216.296-.144.564-.34.804-.588zm5.1268 2.94h-1.044l-2.016-5.676 1.092-.168 1.464 4.524 1.416-4.44h1.116zm7.6081-.684c-.304.24-.644.428-1.02.564-.368.136-.792.204-1.272.204-.376 0-.724-.056-1.044-.168-.32-.12-.6-.3-.84-.54-.24-.248-.428-.56-.564-.936s-.204-.828-.204-1.356c0-.456.064-.868.192-1.236s.304-.68.528-.936.488-.452.792-.588c.312-.136.648-.204 1.008-.204.416 0 .776.076 1.08.228.312.152.568.356.768.612s.348.56.444.912.144.724.144 1.116v.228h-3.888c.016.664.172 1.16.468 1.488.296.32.696.476 1.2.468.416 0 .784-.072 1.104-.216.32-.152.636-.352.948-.6zm-2.436-4.356c-.336 0-.632.12-.888.36-.248.24-.416.604-.504 1.092h2.76c-.064-.464-.204-.82-.42-1.068-.216-.256-.532-.384-.948-.384zm9.909 5.004-.12-.768c-.232.232-.508.44-.828.624-.32.176-.716.264-1.188.264-.52 0-.932-.144-1.236-.432-.296-.288-.444-.676-.444-1.164 0-.36.076-.664.228-.912.152-.256.38-.472.684-.648s.68-.316 1.128-.42c.448-.112.972-.2 1.572-.264v-.24c0-.36-.1-.612-.3-.756-.192-.144-.456-.216-.792-.216-.352 0-.692.048-1.02.144s-.648.212-.96.348l-.144-.924c.344-.136.688-.248 1.032-.336.344-.096.74-.144 1.188-.144.704 0 1.224.148 1.56.444.336.288.504.752.504 1.392v4.008zm-.204-2.904c-.528.048-.96.12-1.296.216-.328.096-.588.204-.78.324-.184.12-.312.252-.384.396-.064.144-.096.288-.096.432 0 .232.072.42.216.564.152.136.364.204.636.204.312 0 .612-.072.9-.216.296-.144.564-.34.804-.588zm9.657 2.436c-.264.2-.556.348-.876.444-.312.096-.672.144-1.08.144-.384 0-.74-.064-1.068-.192-.32-.136-.6-.328-.84-.576-.24-.256-.428-.568-.564-.936-.128-.368-.192-.792-.192-1.272 0-.488.068-.916.204-1.284.144-.376.34-.688.588-.936.248-.256.536-.448.864-.576.336-.128.696-.192 1.08-.192.416 0 .776.056 1.08.168.304.104.552.224.744.36l-.156 1.044c-.248-.2-.508-.356-.78-.468-.264-.112-.564-.168-.9-.168-.496 0-.896.176-1.2.528-.296.344-.444.848-.444 1.512 0 .696.16 1.212.48 1.548s.72.504 1.2.504c.288 0 .572-.044.852-.132.288-.096.572-.264.852-.504zm4.5095-4.356c-.24.016-.468.064-.684.144s-.416.184-.6.312-.348.276-.492.444-.264.348-.36.54v3.384h-1.068v-5.724h.852l.18 1.164c.208-.328.476-.616.804-.864.328-.256.728-.396 1.2-.42zm4.3539 4.824-.12-.768c-.232.232-.508.44-.828.624-.32.176-.716.264-1.188.264-.52 0-.932-.144-1.236-.432-.296-.288-.444-.676-.444-1.164 0-.36.076-.664.228-.912.152-.256.38-.472.684-.648s.68-.316 1.128-.42c.448-.112.972-.2 1.572-.264v-.24c0-.36-.1-.612-.3-.756-.192-.144-.456-.216-.792-.216-.352 0-.692.048-1.02.144s-.648.212-.96.348l-.144-.924c.344-.136.688-.248 1.032-.336.344-.096.74-.144 1.188-.144.704 0 1.224.148 1.56.444.336.288.504.752.504 1.392v4.008zm-.204-2.904c-.528.048-.96.12-1.296.216-.328.096-.588.204-.78.324-.184.12-.312.252-.384.396-.064.144-.096.288-.096.432 0 .232.072.42.216.564.152.136.364.204.636.204.312 0 .612-.072.9-.216.296-.144.564-.34.804-.588zm2.3043 2.904v-.84l3.204-3.996h-2.916l-.144-.888h4.284v.84l-3.216 3.996h3.216l.144.888zm8.186.6c-.12.32-.248.58-.384.78-.136.208-.284.372-.444.492s-.332.2-.516.24c-.184.048-.38.072-.588.072-.112 0-.204-.004-.276-.012-.064-.008-.124-.02-.18-.036l-.156-.972c.088.024.18.044.276.06.104.016.2.024.288.024.24 0 .444-.064.612-.192s.308-.344.42-.648l.144-.384-2.088-5.664 1.08-.168 1.536 4.536 1.5-4.452h1.116zm6.181-.6v-8.496l1.068-.168v8.664zm7.802-2.856c0 .472-.068.892-.204 1.26-.128.368-.312.68-.552.936s-.524.452-.852.588c-.32.128-.672.192-1.056.192s-.736-.064-1.056-.192c-.32-.136-.596-.332-.828-.588s-.416-.568-.552-.936c-.128-.368-.192-.788-.192-1.26s.064-.892.192-1.26c.136-.368.32-.68.552-.936s.508-.452.828-.588.672-.204 1.056-.204.736.068 1.056.204c.328.136.612.332.852.588s.424.568.552.936c.136.368.204.788.204 1.26zm-1.08 0c0-.296-.036-.572-.108-.828-.064-.256-.164-.476-.3-.66-.128-.192-.292-.34-.492-.444-.2-.112-.428-.168-.684-.168s-.484.056-.684.168c-.192.104-.352.248-.48.432s-.224.408-.288.672c-.064.256-.096.532-.096.828s.032.572.096.828c.072.248.172.468.3.66.128.184.288.332.48.444.192.104.416.156.672.156.264 0 .492-.052.684-.156.2-.104.364-.248.492-.432.136-.192.236-.412.3-.66.072-.256.108-.536.108-.84zm6.04 2.856v-3.9c0-.296-.068-.532-.204-.708-.136-.184-.36-.276-.672-.276-.28 0-.564.084-.852.252-.28.168-.548.392-.804.672v3.96h-1.068v-5.724h.852l.132.828c.272-.248.576-.468.912-.66s.708-.288 1.116-.288c.544 0 .956.152 1.236.456.28.296.42.704.42 1.224v4.164zm7.564.42c0 .304-.076.564-.228.78-.152.224-.356.408-.612.552s-.556.252-.9.324c-.336.072-.688.108-1.056.108-.376 0-.728-.032-1.056-.096-.32-.056-.6-.144-.84-.264s-.432-.272-.576-.456c-.136-.184-.204-.404-.204-.66 0-.296.1-.56.3-.792.2-.24.504-.468.912-.684-.24-.168-.36-.368-.36-.6 0-.272.2-.532.6-.78-.328-.16-.588-.384-.78-.672-.192-.296-.288-.64-.288-1.032 0-.312.06-.588.18-.828.12-.248.28-.456.48-.624.2-.176.432-.308.696-.396.272-.096.552-.144.84-.144.28 0 .544.044.792.132.256.08.484.2.684.36l1.452-.456.156.96-1.092.108c.152.28.228.576.228.888 0 .304-.06.58-.18.828-.12.24-.28.444-.48.612s-.436.3-.708.396c-.264.088-.54.132-.828.132-.16 0-.304-.012-.432-.036-.088.056-.16.116-.216.18-.048.056-.072.112-.072.168 0 .048.016.092.048.132.032.032.092.064.18.096s.208.064.36.096c.16.024.368.06.624.108l.408.072c.608.112 1.088.276 1.44.492s.528.548.528.996zm-2.772-.72c-.16-.032-.292-.056-.396-.072s-.212-.04-.324-.072c-.64.328-.96.684-.96 1.068 0 .232.144.42.432.564.288.152.712.228 1.272.228s.988-.084 1.284-.252c.304-.168.456-.372.456-.612 0-.176-.08-.324-.24-.444-.152-.12-.432-.216-.84-.288zm1.068-3.564c0-.344-.108-.628-.324-.852-.216-.232-.504-.348-.864-.348s-.644.12-.852.36-.312.536-.312.888c0 .336.104.616.312.84s.492.336.852.336c.368 0 .656-.116.864-.348.216-.24.324-.532.324-.876zm9.548 2.268c0 .528-.192.948-.576 1.26-.376.304-.936.456-1.68.456-.384 0-.768-.056-1.152-.168-.376-.112-.688-.236-.936-.372l.156-1.008c.272.184.576.34.912.468.344.128.712.192 1.104.192.368 0 .652-.064.852-.192.208-.136.312-.324.312-.564 0-.128-.024-.24-.072-.336-.04-.096-.112-.18-.216-.252s-.244-.136-.42-.192c-.176-.064-.392-.128-.648-.192-.336-.08-.624-.168-.864-.264-.24-.104-.436-.224-.588-.36-.144-.136-.252-.296-.324-.48s-.108-.404-.108-.66c0-.456.18-.832.54-1.128.36-.304.852-.456 1.476-.456.36 0 .696.036 1.008.108.312.064.604.156.876.276l-.168 1.008c-.256-.144-.536-.26-.84-.348-.296-.096-.596-.144-.9-.144-.328 0-.576.06-.744.18-.16.112-.24.272-.24.48 0 .192.084.352.252.48.176.12.488.236.936.348.352.088.656.184.912.288.264.104.48.228.648.372.168.136.292.304.372.504.08.192.12.424.12.696zm4.061 1.62c-.088.016-.2.032-.336.048-.128.016-.284.024-.468.024-.504 0-.908-.108-1.212-.324s-.456-.612-.456-1.188v-3.408h-.864v-.9h.864v-1.908l1.044-.156v2.064h1.236l.144.9h-1.38v3.216c0 .232.056.416.168.552s.32.204.624.204c.192 0 .356-.012.492-.036zm6.216-2.88c0 .472-.068.892-.204 1.26-.128.368-.312.68-.552.936s-.524.452-.852.588c-.32.128-.672.192-1.056.192s-.736-.064-1.056-.192c-.32-.136-.596-.332-.828-.588s-.416-.568-.552-.936c-.128-.368-.192-.788-.192-1.26s.064-.892.192-1.26c.136-.368.32-.68.552-.936s.508-.452.828-.588.672-.204 1.056-.204.736.068 1.056.204c.328.136.612.332.852.588s.424.568.552.936c.136.368.204.788.204 1.26zm-1.08 0c0-.296-.036-.572-.108-.828-.064-.256-.164-.476-.3-.66-.128-.192-.292-.34-.492-.444-.2-.112-.428-.168-.684-.168s-.484.056-.684.168c-.192.104-.352.248-.48.432s-.224.408-.288.672c-.064.256-.096.532-.096.828s.032.572.096.828c.072.248.172.468.3.66.128.184.288.332.48.444.192.104.416.156.672.156.264 0 .492-.052.684-.156.2-.104.364-.248.492-.432.136-.192.236-.412.3-.66.072-.256.108-.536.108-.84zm5.644-1.968c-.24.016-.468.064-.684.144s-.416.184-.6.312-.348.276-.492.444-.264.348-.36.54v3.384h-1.068v-5.724h.852l.18 1.164c.208-.328.476-.616.804-.864.328-.256.728-.396 1.2-.42zm3.437 5.424c-.12.32-.248.58-.384.78-.136.208-.284.372-.444.492s-.332.2-.516.24c-.184.048-.38.072-.588.072-.112 0-.204-.004-.276-.012-.064-.008-.124-.02-.18-.036l-.156-.972c.088.024.18.044.276.06.104.016.2.024.288.024.24 0 .444-.064.612-.192s.308-.344.42-.648l.144-.384-2.088-5.664 1.08-.168 1.536 4.536 1.5-4.452h1.116zm8.845-.576c-.088.016-.2.032-.336.048-.128.016-.284.024-.468.024-.504 0-.908-.108-1.212-.324s-.456-.612-.456-1.188v-3.408h-.864v-.9h.864v-1.908l1.044-.156v2.064h1.236l.144.9h-1.38v3.216c0 .232.056.416.168.552s.32.204.624.204c.192 0 .356-.012.492-.036zm6.216-2.88c0 .472-.068.892-.204 1.26-.128.368-.312.68-.552.936s-.524.452-.852.588c-.32.128-.672.192-1.056.192s-.736-.064-1.056-.192c-.32-.136-.596-.332-.828-.588s-.416-.568-.552-.936c-.128-.368-.192-.788-.192-1.26s.064-.892.192-1.26c.136-.368.32-.68.552-.936s.508-.452.828-.588.672-.204 1.056-.204.736.068 1.056.204c.328.136.612.332.852.588s.424.568.552.936c.136.368.204.788.204 1.26zm-1.08 0c0-.296-.036-.572-.108-.828-.064-.256-.164-.476-.3-.66-.128-.192-.292-.34-.492-.444-.2-.112-.428-.168-.684-.168s-.484.056-.684.168c-.192.104-.352.248-.48.432s-.224.408-.288.672c-.064.256-.096.532-.096.828s.032.572.096.828c.072.248.172.468.3.66.128.184.288.332.48.444.192.104.416.156.672.156.264 0 .492-.052.684-.156.2-.104.364-.248.492-.432.136-.192.236-.412.3-.66.072-.256.108-.536.108-.84zm7.825 2.88c-.088.016-.2.032-.336.048-.128.016-.284.024-.468.024-.504 0-.908-.108-1.212-.324s-.456-.612-.456-1.188v-3.408h-.864v-.9h.864v-1.908l1.044-.156v2.064h1.236l.144.9h-1.38v3.216c0 .232.056.416.168.552s.32.204.624.204c.192 0 .356-.012.492-.036zm5.868-.672c-.304.24-.644.428-1.02.564-.368.136-.792.204-1.272.204-.376 0-.724-.056-1.044-.168-.32-.12-.6-.3-.84-.54-.24-.248-.428-.56-.564-.936s-.204-.828-.204-1.356c0-.456.064-.868.192-1.236s.304-.68.528-.936.488-.452.792-.588c.312-.136.648-.204 1.008-.204.416 0 .776.076 1.08.228.312.152.568.356.768.612s.348.56.444.912.144.724.144 1.116v.228h-3.888c.016.664.172 1.16.468 1.488.296.32.696.476 1.2.468.416 0 .784-.072 1.104-.216.32-.152.636-.352.948-.6zm-2.436-4.356c-.336 0-.632.12-.888.36-.248.24-.416.604-.504 1.092h2.76c-.064-.464-.204-.82-.42-1.068-.216-.256-.532-.384-.948-.384zm3.888 5.004v-8.496l1.068-.168v8.664zm2.918 0v-8.496l1.068-.168v8.664zm2.906 1.596-.588-.144.6-2.88h1.236zm-148.42 14.404-.12-.768c-.232.232-.508.44-.828.624-.32.176-.716.264-1.188.264-.52 0-.932-.144-1.236-.432-.296-.288-.444-.676-.444-1.164 0-.36.076-.664.228-.912.152-.256.38-.472.684-.648s.68-.316 1.128-.42c.448-.112.972-.2 1.572-.264v-.24c0-.36-.1-.612-.3-.756-.192-.144-.456-.216-.792-.216-.352 0-.692.048-1.02.144s-.648.212-.96.348l-.144-.924c.344-.136.688-.248 1.032-.336.344-.096.74-.144 1.188-.144.704 0 1.224.148 1.56.444.336.288.504.752.504 1.392v4.008zm-.204-2.904c-.528.048-.96.12-1.296.216-.328.096-.588.204-.78.324-.184.12-.312.252-.384.396-.064.144-.096.288-.096.432 0 .232.072.42.216.564.152.136.364.204.636.204.312 0 .612-.072.9-.216.296-.144.564-.34.804-.588zm6.3243 2.904v-3.9c0-.296-.068-.532-.204-.708-.136-.184-.36-.276-.672-.276-.28 0-.564.084-.852.252-.28.168-.548.392-.804.672v3.96h-1.068v-5.724h.852l.132.828c.272-.248.576-.468.912-.66s.708-.288 1.116-.288c.544 0 .956.152 1.236.456.28.296.42.704.42 1.224v4.164zm6.6521 0-.132-.828c-.216.256-.476.48-.78.672-.296.184-.656.276-1.08.276-.312 0-.604-.056-.876-.168s-.512-.284-.72-.516c-.2-.24-.36-.536-.48-.888s-.18-.768-.18-1.248c0-.52.068-.972.204-1.356.144-.392.332-.716.564-.972.24-.256.516-.448.828-.576s.644-.192.996-.192c.28 0 .544.024.792.072s.464.108.648.18v-2.952l1.068-.168v8.664zm-.216-4.572c-.224-.112-.44-.192-.648-.24-.2-.056-.452-.084-.756-.084-.456 0-.828.18-1.116.54s-.432.896-.432 1.608c0 .632.124 1.112.372 1.44.256.32.576.48.96.48.336 0 .632-.092.888-.276s.5-.428.732-.732zm8.9858 4.572v-3.9c0-.296-.068-.532-.204-.708-.136-.184-.36-.276-.672-.276-.28 0-.564.084-.852.252-.28.168-.548.392-.804.672v3.96h-1.068v-5.724h.852l.132.828c.272-.248.576-.468.912-.66s.708-.288 1.116-.288c.544 0 .956.152 1.236.456.28.296.42.704.42 1.224v4.164zm7.6961-2.856c0 .472-.068.892-.204 1.26-.128.368-.312.68-.552.936s-.524.452-.852.588c-.32.128-.672.192-1.056.192s-.736-.064-1.056-.192c-.32-.136-.596-.332-.828-.588s-.416-.568-.552-.936c-.128-.368-.192-.788-.192-1.26s.064-.892.192-1.26c.136-.368.32-.68.552-.936s.508-.452.828-.588.672-.204 1.056-.204.736.068 1.056.204c.328.136.612.332.852.588s.424.568.552.936c.136.368.204.788.204 1.26zm-1.08 0c0-.296-.036-.572-.108-.828-.064-.256-.164-.476-.3-.66-.128-.192-.292-.34-.492-.444-.2-.112-.428-.168-.684-.168s-.484.056-.684.168c-.192.104-.352.248-.48.432s-.224.408-.288.672c-.064.256-.096.532-.096.828s.032.572.096.828c.072.248.172.468.3.66.128.184.288.332.48.444.192.104.416.156.672.156.264 0 .492-.052.684-.156.2-.104.364-.248.492-.432.136-.192.236-.412.3-.66.072-.256.108-.536.108-.84zm7.9398 2.88h-.9l-1.272-4.32-1.26 4.32h-.888l-1.836-5.664 1.044-.168 1.248 4.32 1.26-4.236h.9l1.26 4.236 1.212-4.236h1.068zm5.8728-.024v-8.28h1.128v8.28zm9.9741-.468c-.2638.2-.5558.348-.8758.444-.312.096-.672.144-1.08.144-.384 0-.74-.064-1.068-.192-.32-.136-.6-.328-.84-.576-.24-.256-.428-.568-.564-.936-.128-.368-.192-.792-.192-1.272 0-.488.068-.916.204-1.284.144-.376.34-.688.588-.936.248-.256.536-.448.864-.576.336-.128.696-.192 1.08-.192.416 0 .776.056 1.08.168.304.104.5518.224.7438.36l-.156 1.044c-.2478-.2-.5078-.356-.7798-.468-.264-.112-.564-.168-.9-.168-.496 0-.896.176-1.2.528-.296.344-.444.848-.444 1.512 0 .696.16 1.212.48 1.548s.72.504 1.2.504c.288 0 .572-.044.852-.132.288-.096.572-.264.8518-.504zm4.774.468-.12-.768c-.232.232-.508.44-.828.624-.32.176-.716.264-1.188.264-.52 0-.932-.144-1.236-.432-.296-.288-.444-.676-.444-1.164 0-.36.076-.664.228-.912.152-.256.38-.472.684-.648s.68-.316 1.128-.42c.448-.112.972-.2 1.572-.264v-.24c0-.36-.1-.612-.3-.756-.192-.144-.456-.216-.792-.216-.352 0-.692.048-1.02.144s-.648.212-.96.348l-.144-.924c.344-.136.688-.248 1.032-.336.344-.096.74-.144 1.188-.144.704 0 1.224.148 1.56.444.336.288.504.752.504 1.392v4.008zm-.204-2.904c-.528.048-.96.12-1.296.216-.328.096-.588.204-.78.324-.184.12-.312.252-.384.396-.064.144-.096.288-.096.432 0 .232.072.42.216.564.152.136.364.204.636.204.312 0 .612-.072.9-.216.296-.144.564-.34.804-.588zm6.324 2.904v-3.9c0-.296-.068-.532-.204-.708-.136-.184-.36-.276-.672-.276-.28 0-.564.084-.852.252-.28.168-.548.392-.804.672v3.96h-1.068v-5.724h.852l.132.828c.272-.248.576-.468.912-.66s.708-.288 1.116-.288c.544 0 .956.152 1.236.456.28.296.42.704.42 1.224v4.164zm8.113.024c-.088.016-.2.032-.336.048-.128.016-.284.024-.468.024-.504 0-.908-.108-1.212-.324s-.456-.612-.456-1.188v-3.408h-.864v-.9h.864v-1.908l1.044-.156v2.064h1.236l.144.9h-1.38v3.216c0 .232.056.416.168.552s.32.204.624.204c.192 0 .356-.012.492-.036zm3.529.576c-.12.32-.248.58-.384.78-.136.208-.284.372-.444.492s-.332.2-.516.24c-.184.048-.38.072-.588.072-.112 0-.204-.004-.276-.012-.064-.008-.124-.02-.18-.036l-.156-.972c.088.024.18.044.276.06.104.016.2.024.288.024.24 0 .444-.064.612-.192s.308-.344.42-.648l.144-.384-2.088-5.664 1.08-.168 1.536 4.536 1.5-4.452h1.116zm8.561-3.624c0 .52-.072.976-.216 1.368-.136.384-.324.704-.564.96-.232.256-.508.448-.828.576-.312.128-.64.192-.984.192-.28 0-.544-.024-.792-.072s-.464-.108-.648-.18v2.256l-1.068.156v-7.956h.852l.132.828c.216-.256.472-.476.768-.66.304-.192.668-.288 1.092-.288.312 0 .604.06.876.18.272.112.508.284.708.516.208.232.372.524.492.876s.18.768.18 1.248zm-1.08.048c0-.624-.128-1.1-.384-1.428-.248-.328-.568-.492-.96-.492-.328 0-.62.092-.876.276s-.5.428-.732.732v2.748c.216.112.424.192.624.24.208.048.464.072.768.072.456 0 .828-.18 1.116-.54.296-.36.444-.896.444-1.608zm7.057 2.328c-.304.24-.644.428-1.02.564-.368.136-.792.204-1.272.204-.376 0-.724-.056-1.044-.168-.32-.12-.6-.3-.84-.54-.24-.248-.428-.56-.564-.936s-.204-.828-.204-1.356c0-.456.064-.868.192-1.236s.304-.68.528-.936.488-.452.792-.588c.312-.136.648-.204 1.008-.204.416 0 .776.076 1.08.228.312.152.568.356.768.612s.348.56.444.912.144.724.144 1.116v.228h-3.888c.016.664.172 1.16.468 1.488.296.32.696.476 1.2.468.416 0 .784-.072 1.104-.216.32-.152.636-.352.948-.6zm-2.436-4.356c-.336 0-.632.12-.888.36-.248.24-.416.604-.504 1.092h2.76c-.064-.464-.204-.82-.42-1.068-.216-.256-.532-.384-.948-.384zm7.737-2.544c0 .184-.068.344-.204.48-.128.128-.284.192-.468.192s-.344-.064-.48-.192c-.136-.136-.204-.296-.204-.48s.068-.344.204-.48.296-.204.48-.204.34.068.468.204c.136.136.204.296.204.48zm-1.212 7.548v-5.724h1.068v5.724zm5.582.024c-.088.016-.2.032-.336.048-.128.016-.284.024-.468.024-.504 0-.908-.108-1.212-.324s-.456-.612-.456-1.188v-3.408h-.864v-.9h.864v-1.908l1.044-.156v2.064h1.236l.144.9h-1.38v3.216c0 .232.056.416.168.552s.32.204.624.204c.192 0 .356-.012.492-.036zm7.4-.024-.12-.768c-.232.232-.508.44-.828.624-.32.176-.716.264-1.188.264-.52 0-.932-.144-1.236-.432-.296-.288-.444-.676-.444-1.164 0-.36.076-.664.228-.912.152-.256.38-.472.684-.648s.68-.316 1.128-.42c.448-.112.972-.2 1.572-.264v-.24c0-.36-.1-.612-.3-.756-.192-.144-.456-.216-.792-.216-.352 0-.692.048-1.02.144s-.648.212-.96.348l-.144-.924c.344-.136.688-.248 1.032-.336.344-.096.74-.144 1.188-.144.704 0 1.224.148 1.56.444.336.288.504.752.504 1.392v4.008zm-.204-2.904c-.528.048-.96.12-1.296.216-.328.096-.588.204-.78.324-.184.12-.312.252-.384.396-.064.144-.096.288-.096.432 0 .232.072.42.216.564.152.136.364.204.636.204.312 0 .612-.072.9-.216.296-.144.564-.34.804-.588zm2.808 2.904v-8.496l1.068-.168v8.664zm2.918 0v-8.496l1.068-.168v8.664zm6.767-7.548c0 .184-.068.344-.204.48-.128.128-.284.192-.468.192s-.344-.064-.48-.192c-.136-.136-.204-.296-.204-.48s.068-.344.204-.48.296-.204.48-.204.34.068.468.204c.136.136.204.296.204.48zm-1.212 7.548v-5.724h1.068v5.724zm6.434 0v-3.9c0-.296-.068-.532-.204-.708-.136-.184-.36-.276-.672-.276-.28 0-.564.084-.852.252-.28.168-.548.392-.804.672v3.96h-1.068v-5.724h.852l.132.828c.272-.248.576-.468.912-.66s.708-.288 1.116-.288c.544 0 .956.152 1.236.456.28.296.42.704.42 1.224v4.164zm8.113.024c-.088.016-.2.032-.336.048-.128.016-.284.024-.468.024-.504 0-.908-.108-1.212-.324s-.456-.612-.456-1.188v-3.408h-.864v-.9h.864v-1.908l1.044-.156v2.064h1.236l.144.9h-1.38v3.216c0 .232.056.416.168.552s.32.204.624.204c.192 0 .356-.012.492-.036zm4.895-.024v-3.9c0-.296-.068-.532-.204-.708-.136-.184-.36-.276-.672-.276-.28 0-.564.084-.852.252-.28.168-.548.392-.804.672v3.96h-1.068v-8.496l1.068-.168v3.696c.12-.104.248-.208.384-.312.144-.104.296-.196.456-.276.16-.088.332-.156.516-.204.184-.056.38-.084.588-.084.544 0 .956.152 1.236.456.28.296.42.704.42 1.224v4.164zm7.348-.648c-.304.24-.644.428-1.02.564-.368.136-.792.204-1.272.204-.376 0-.724-.056-1.044-.168-.32-.12-.6-.3-.84-.54-.24-.248-.428-.56-.564-.936s-.204-.828-.204-1.356c0-.456.064-.868.192-1.236s.304-.68.528-.936.488-.452.792-.588c.312-.136.648-.204 1.008-.204.416 0 .776.076 1.08.228.312.152.568.356.768.612s.348.56.444.912.144.724.144 1.116v.228h-3.888c.016.664.172 1.16.468 1.488.296.32.696.476 1.2.468.416 0 .784-.072 1.104-.216.32-.152.636-.352.948-.6zm-2.436-4.356c-.336 0-.632.12-.888.36-.248.24-.416.604-.504 1.092h2.76c-.064-.464-.204-.82-.42-1.068-.216-.256-.532-.384-.948-.384zm-140.993 19.408c0 .528-.192.948-.576 1.26-.376.304-.936.456-1.68.456-.384 0-.768-.056-1.152-.168-.376-.112-.688-.236-.936-.372l.156-1.008c.272.184.576.34.912.468.344.128.712.192 1.104.192.368 0 .652-.064.852-.192.208-.136.312-.324.312-.564 0-.128-.024-.24-.072-.336-.04-.096-.112-.18-.216-.252s-.244-.136-.42-.192c-.176-.064-.392-.128-.648-.192-.336-.08-.624-.168-.864-.264-.24-.104-.436-.224-.588-.36-.144-.136-.252-.296-.324-.48s-.108-.404-.108-.66c0-.456.18-.832.54-1.128.36-.304.852-.456 1.476-.456.36 0 .696.036 1.008.108.312.064.604.156.876.276l-.168 1.008c-.256-.144-.536-.26-.84-.348-.296-.096-.596-.144-.9-.144-.328 0-.576.06-.744.18-.16.112-.24.272-.24.48 0 .192.084.352.252.48.176.12.488.236.936.348.352.088.656.184.912.288.264.104.48.228.648.372.168.136.292.304.372.504.08.192.12.424.12.696zm4.7806 1.596-.12-.768c-.232.232-.508.44-.828.624-.32.176-.716.264-1.188.264-.52 0-.932-.144-1.236-.432-.296-.288-.444-.676-.444-1.164 0-.36.076-.664.228-.912.152-.256.38-.472.684-.648s.68-.316 1.128-.42c.448-.112.972-.2 1.572-.264v-.24c0-.36-.1-.612-.3-.756-.192-.144-.456-.216-.792-.216-.352 0-.692.048-1.02.144s-.648.212-.96.348l-.144-.924c.344-.136.688-.248 1.032-.336.344-.096.74-.144 1.188-.144.704 0 1.224.148 1.56.444.336.288.504.752.504 1.392v4.008zm-.204-2.904c-.528.048-.96.12-1.296.216-.328.096-.588.204-.78.324-.184.12-.312.252-.384.396-.064.144-.096.288-.096.432 0 .232.072.42.216.564.152.136.364.204.636.204.312 0 .612-.072.9-.216.296-.144.564-.34.804-.588zm9.7803 2.904v-3.9c0-.296-.064-.532-.192-.708-.12-.184-.336-.276-.648-.276-.28 0-.556.084-.828.252s-.536.392-.792.672v3.96h-1.068v-3.9c0-.296-.064-.532-.192-.708-.12-.184-.336-.276-.648-.276-.28 0-.556.084-.828.252s-.536.392-.792.672v3.96h-1.068v-5.724h.852l.132.828c.272-.248.568-.468.888-.66.328-.192.696-.288 1.104-.288.424 0 .752.084.984.252.24.168.416.4.528.696.256-.248.552-.468.888-.66.344-.192.72-.288 1.128-.288.552 0 .96.152 1.224.456.264.296.396.704.396 1.224v4.164zm7.3491-.648c-.304.24-.644.428-1.02.564-.368.136-.792.204-1.272.204-.376 0-.724-.056-1.044-.168-.32-.12-.6-.3-.84-.54-.24-.248-.428-.56-.564-.936s-.204-.828-.204-1.356c0-.456.064-.868.192-1.236s.304-.68.528-.936.488-.452.792-.588c.312-.136.648-.204 1.008-.204.416 0 .776.076 1.08.228.312.152.568.356.768.612s.348.56.444.912.144.724.144 1.116v.228h-3.888c.016.664.172 1.16.468 1.488.296.32.696.476 1.2.468.416 0 .784-.072 1.104-.216.32-.152.636-.352.948-.6zm-2.436-4.356c-.336 0-.632.12-.888.36-.248.24-.416.604-.504 1.092h2.76c-.064-.464-.204-.82-.42-1.068-.216-.256-.532-.384-.948-.384zm13.497 5.004v-3.9c0-.296-.064-.532-.192-.708-.12-.184-.336-.276-.648-.276-.28 0-.556.084-.828.252s-.536.392-.792.672v3.96h-1.068v-3.9c0-.296-.064-.532-.192-.708-.12-.184-.336-.276-.648-.276-.28 0-.556.084-.828.252s-.536.392-.792.672v3.96h-1.068v-5.724h.852l.132.828c.272-.248.568-.468.888-.66.328-.192.696-.288 1.104-.288.424 0 .752.084.984.252.24.168.416.4.528.696.256-.248.552-.468.888-.66.344-.192.72-.288 1.128-.288.552 0 .96.152 1.224.456.264.296.396.704.396 1.224v4.164zm7.3492-.648c-.304.24-.644.428-1.02.564-.368.136-.792.204-1.272.204-.376 0-.724-.056-1.044-.168-.32-.12-.6-.3-.84-.54-.24-.248-.428-.56-.564-.936s-.204-.828-.204-1.356c0-.456.064-.868.192-1.236s.304-.68.528-.936.488-.452.792-.588c.312-.136.648-.204 1.008-.204.416 0 .776.076 1.08.228.312.152.568.356.768.612s.348.56.444.912.144.724.144 1.116v.228h-3.888c.016.664.172 1.16.468 1.488.296.32.696.476 1.2.468.416 0 .784-.072 1.104-.216.32-.152.636-.352.948-.6zm-2.436-4.356c-.336 0-.632.12-.888.36-.248.24-.416.604-.504 1.092h2.76c-.064-.464-.204-.82-.42-1.068-.216-.256-.532-.384-.948-.384zm7.8003 3.408c0 .528-.192.948-.576 1.26-.376.304-.936.456-1.68.456-.384 0-.768-.056-1.152-.168-.376-.112-.688-.236-.936-.372l.156-1.008c.272.184.576.34.912.468.344.128.712.192 1.104.192.368 0 .652-.064.852-.192.208-.136.312-.324.312-.564 0-.128-.024-.24-.072-.336-.04-.096-.112-.18-.216-.252s-.244-.136-.42-.192c-.176-.064-.392-.128-.648-.192-.336-.08-.624-.168-.864-.264-.24-.104-.436-.224-.588-.36-.144-.136-.252-.296-.324-.48s-.108-.404-.108-.66c0-.456.18-.832.54-1.128.36-.304.852-.456 1.476-.456.36 0 .696.036 1.008.108.312.064.604.156.876.276l-.168 1.008c-.256-.144-.536-.26-.84-.348-.296-.096-.596-.144-.9-.144-.328 0-.576.06-.744.18-.16.112-.24.272-.24.48 0 .192.084.352.252.48.176.12.488.236.936.348.352.088.656.184.912.288.264.104.48.228.648.372.168.136.292.304.372.504.08.192.12.424.12.696zm5.2617 0c0 .528-.192.948-.576 1.26-.376.304-.936.456-1.68.456-.384 0-.768-.056-1.152-.168-.376-.112-.688-.236-.936-.372l.156-1.008c.272.184.576.34.912.468.344.128.712.192 1.104.192.368 0 .652-.064.852-.192.208-.136.312-.324.312-.564 0-.128-.024-.24-.072-.336-.04-.096-.112-.18-.216-.252s-.244-.136-.42-.192c-.176-.064-.392-.128-.648-.192-.336-.08-.624-.168-.864-.264-.24-.104-.436-.224-.588-.36-.144-.136-.252-.296-.324-.48s-.108-.404-.108-.66c0-.456.18-.832.54-1.128.36-.304.852-.456 1.476-.456.36 0 .696.036 1.008.108.312.064.604.156.876.276l-.168 1.008c-.256-.144-.536-.26-.84-.348-.296-.096-.596-.144-.9-.144-.328 0-.576.06-.744.18-.16.112-.24.272-.24.48 0 .192.084.352.252.48.176.12.488.236.936.348.352.088.656.184.912.288.264.104.48.228.648.372.168.136.292.304.372.504.08.192.12.424.12.696zm4.7808 1.596-.12-.768c-.232.232-.508.44-.828.624-.32.176-.716.264-1.188.264-.52 0-.932-.144-1.236-.432-.296-.288-.444-.676-.444-1.164 0-.36.076-.664.228-.912.152-.256.38-.472.684-.648s.68-.316 1.128-.42c.448-.112.972-.2 1.572-.264v-.24c0-.36-.1-.612-.3-.756-.192-.144-.456-.216-.792-.216-.352 0-.692.048-1.02.144s-.648.212-.96.348l-.144-.924c.344-.136.688-.248 1.032-.336.344-.096.74-.144 1.188-.144.704 0 1.224.148 1.56.444.336.288.504.752.504 1.392v4.008zm-.204-2.904c-.528.048-.96.12-1.296.216-.328.096-.588.204-.78.324-.184.12-.312.252-.384.396-.064.144-.096.288-.096.432 0 .232.072.42.216.564.152.136.364.204.636.204.312 0 .612-.072.9-.216.296-.144.564-.34.804-.588zm7.56 3.324c0 .304-.076.564-.228.78-.152.224-.356.408-.612.552s-.556.252-.9.324c-.336.072-.688.108-1.056.108-.376 0-.728-.032-1.056-.096-.32-.056-.6-.144-.84-.264s-.432-.272-.576-.456c-.136-.184-.204-.404-.204-.66 0-.296.1-.56.3-.792.2-.24.504-.468.912-.684-.24-.168-.36-.368-.36-.6 0-.272.2-.532.6-.78-.328-.16-.588-.384-.78-.672-.192-.296-.288-.64-.288-1.032 0-.312.06-.588.18-.828.12-.248.28-.456.48-.624.2-.176.432-.308.696-.396.272-.096.552-.144.84-.144.28 0 .544.044.792.132.256.08.484.2.684.36l1.452-.456.156.96-1.092.108c.152.28.228.576.228.888 0 .304-.06.58-.18.828-.12.24-.28.444-.48.612s-.436.3-.708.396c-.264.088-.54.132-.828.132-.16 0-.304-.012-.432-.036-.088.056-.16.116-.216.18-.048.056-.072.112-.072.168 0 .048.016.092.048.132.032.032.092.064.18.096s.208.064.36.096c.16.024.368.06.624.108l.408.072c.608.112 1.088.276 1.44.492s.528.548.528.996zm-2.772-.72c-.16-.032-.292-.056-.396-.072s-.212-.04-.324-.072c-.64.328-.96.684-.96 1.068 0 .232.144.42.432.564.288.152.712.228 1.272.228s.988-.084 1.284-.252c.304-.168.456-.372.456-.612 0-.176-.08-.324-.24-.444-.152-.12-.432-.216-.84-.288zm1.068-3.564c0-.344-.108-.628-.324-.852-.216-.232-.504-.348-.864-.348s-.644.12-.852.36-.312.536-.312.888c0 .336.104.616.312.84s.492.336.852.336c.368 0 .656-.116.864-.348.216-.24.324-.532.324-.876zm7.441 3.216c-.304.24-.644.428-1.02.564-.368.136-.792.204-1.272.204-.376 0-.724-.056-1.044-.168-.32-.12-.6-.3-.84-.54-.24-.248-.428-.56-.564-.936s-.204-.828-.204-1.356c0-.456.064-.868.192-1.236s.304-.68.528-.936.488-.452.792-.588c.312-.136.648-.204 1.008-.204.416 0 .776.076 1.08.228.312.152.568.356.768.612s.348.56.444.912.144.724.144 1.116v.228h-3.888c.016.664.172 1.16.468 1.488.296.32.696.476 1.2.468.416 0 .784-.072 1.104-.216.32-.152.636-.352.948-.6zm-2.436-4.356c-.336 0-.632.12-.888.36-.248.24-.416.604-.504 1.092h2.76c-.064-.464-.204-.82-.42-1.068-.216-.256-.532-.384-.948-.384z" fill="#2e3338"/><path d="m29 42.3748c-4.1355 0-7.5 3.3645-7.5 7.5s3.3645 7.5 7.5 7.5 7.5-3.3645 7.5-7.5-3.3645-7.5-7.5-7.5zm3.75 8.25h-3v3h-1.5v-3h-3v-1.5h3v-3h1.5v3h3z" fill="#4f5660"/><g clip-path="url(#a)"><path d="m133.494 76.681c-.576-.7598-1.774-.553-2.071.3528l-.848 2.5922c-.035.1084-.126.1891-.237.2123l-1.424.2931c-.119.0243-.241-.021-.315-.1161l-1.687-2.172c-.438-.564-1.333-.3948-1.534.2897l-.925 3.1596c-.026.1692-.806 2.3932-.92 2.8831-.37 1.5925.045 3.3829.995 4.7487h5.688.851.371 4.622c3.348-.6901-.161-9.0717-2.566-12.2434z" fill="#f9cdf8"/><path d="m133.451 83.4911c-.027-.1548-.134-.2964-.252-.3926-.122-.1006-.281-.1758-.443-.1747-.313.0033-.654.1946-.733.5164-.025.0962-.056.1958-.047.2953.02.2068.052.3771.201.5363.125.1338.335.24.523.2378.194-.0022.397-.0586.538-.2002.041-.0486.082-.0984.123-.147.072-.114.111-.2389.115-.3738.017-.0985-.009-.1991-.025-.2975z" fill="#9c5ce0"/><path d="m134.506 83.4656c-1.829.3771-1.244 3.2104.588 2.8333 1.828-.3771 1.244-3.2116-.588-2.8333z" fill="#ff8fc2"/><path d="m124.624 85.8776c-1.83.3771-1.245 3.2126.588 2.8344 1.831-.3771 1.246-3.2127-.588-2.8344z" fill="#ff8fc2"/><g fill="#9c5ce0"><path d="m127.051 85.1821c-.027-.1548-.135-.2964-.252-.3926-.122-.1006-.281-.1758-.443-.1747-.313.0033-.654.1946-.734.5164-.024.0962-.055.1958-.046.2953.02.2068.052.3771.201.5364.125.1338.335.2399.522.2377.195-.0022.398-.0586.539-.2001.041-.0487.082-.0985.123-.1471.072-.1139.111-.2389.115-.3738.017-.0985-.009-.1991-.025-.2975z"/><path d="m130.494 84.3879c.035.3318-.22.7244-.483.3285-.143-.2157-.512-.209-.619.0409-.089.2079-.22.6359-.612.3937-.13-.0796-.226-.3185-.296-.4424-.224-.4014-.819 0-.595.4004.235.4202.563.8526 1.094.8692.359.0111.614-.1836.803-.4457.223.167.487.2157.816.0387.446-.2399.661-.7354.609-1.2242-.048-.4567-.765-.418-.717.0409z"/><path d="m124.938 86.9713c.025-.0011.051-.0033.074-.0078.201-.0409.314-.2278.311-.4058-.005-.2046-.151-.3451-.354-.3395-.522.0121-1.05-.0045-1.572-.0509-.134-.0122-.253.0409-.326.1449-.081.1139-.093.272-.033.4014.056.1206.167.1958.305.2079.527.0454 1.064.0631 1.595.0498z"/><path d="m125.054 87.4691c-.452.2234-.907.4545-1.35.6878-.214.1128-.238.3484-.151.5121.072.136.222.2333.393.1979.034-.0066.07-.0199.106-.0387.442-.2322.895-.4633 1.345-.6856.121-.0598.196-.167.205-.2953.008-.1405-.063-.282-.18-.3605-.111-.0719-.244-.0786-.368-.0177z"/><path d="m134.506 84.6799c.032-.0066.066-.0177.099-.0343.493-.2422.986-.5021 1.464-.7708.215-.1216.232-.3627.139-.5275-.089-.157-.287-.2555-.492-.1404-.475.2676-.964.5253-1.453.7652-.215.1062-.245.3296-.162.4966.071.1426.225.2477.405.2112z"/><path d="m136.908 85.15c-.083-.1206-.214-.1825-.36-.1714-.61.0486-1.247.0774-1.893.0851-.143.0011-.264.073-.331.1947-.072.126-.073.2831-.003.4003.061.1028.172.1614.302.1603.664-.0077 1.354-.0409 2.051-.0962.018-.0011.034-.0033.051-.0077.103-.021.182-.0807.225-.1714.058-.1195.04-.2743-.042-.3937z"/></g><path d="m137.997 73.6628h-3.995v15.2614h3.995z" fill="#92ceff"/><path d="m137.998 79.8195v-.3318h.001v-3.7224h-.001v-.3241h-2.481v-2.0359h-.666v2.0359h-.849v.6636h3.332v3.0511h-3.332v.6636h.849v3.0501h-.849v.6635h3.332v3.0512h-3.332v.6635h.849v1.8048h.666v-1.8048h2.481v-.3318h.001v-3.7224h-.001v-.324h-2.481v-3.0501z" fill="#826cef"/></g></svg>