<svg height="202" width="530" xmlns="http://www.w3.org/2000/svg" xmlns:xlink="http://www.w3.org/1999/xlink"><mask id="a" fill="#fff"><path d="m0 0h530v202h-530z" fill="#fff" fill-rule="evenodd"/></mask><mask id="b" fill="#fff"><path d="m.029668.55632187c-.01643167.54015186-.02470705 1.08235663-.02470705 1.62649513 0 .54416996.00827538 1.08640502.02470707 1.62658603v-3.25308116z" fill="#fff" fill-rule="evenodd"/></mask><g fill="none" fill-rule="evenodd" mask="url(#a)"><path d="m123.705647 237.533944c-.671233 0-1.174657 0-1.84589-.167788-4.5308221-1.005053-7.3835618-5.535342-6.3767125-10.067308l14.4315065-63.591827c1.00685-4.530288 5.537672-7.381014 10.068494-6.375961 4.530821 1.00673 7.383561 5.537019 6.376712 10.067307l-14.431507 63.593505c-.839041 3.857457-4.363014 6.542072-8.222603 6.542072" fill="#80b1c7"/><path d="m146.527733 146.258028h-5.034247c-9.229452 0-16.780822 7.550481-16.780822 16.778846v6.040385c0 1.845673 1.510274 3.355769 3.356165 3.355769h21.815068v-22.819231c0-1.845673-1.510274-3.355769-3.356164-3.355769" fill="#5c8f9e"/><path d="m191.835952 230.152259h-57.054794c-1.00685 0-1.678083-.671154-1.678083-1.677885v-62.081731c0-9.228365 7.55137-16.778846 16.780822-16.778846h26.849315c9.229452 0 16.780822 7.550481 16.780822 16.778846v62.081731c0 .838942-.839041 1.677885-1.678082 1.677885" fill="#a2c9d6"/><path d="m159.95239 158.842163c-3.859589 0-6.712328-3.020193-6.712328-6.711539v-20.134615c0-3.691347 3.020548-6.711539 6.712328-6.711539h.167809c3.69178 0 6.712328 3.020192 6.712328 6.711539v20.302404c-.167808 3.523557-3.188356 6.54375-6.880137 6.54375" fill="#e5d5c7"/><path d="m132.096058 142.230434c-3.523972 0-6.376712-2.852404-6.376712-6.375962v-47.316346h20.136986l-7.55137 48.323077c-.503424 3.187981-3.188356 5.369231-6.208904 5.369231" fill="#5c8f9e"/><path d="m161.79761 142.902259h-3.020548c-14.431507 0-26.178083-11.745193-26.178083-26.1750003v-22.4836539c0-10.2350961 8.390411-18.4567308 18.458905-18.4567308h18.458904c10.068493 0 18.458904 8.2216347 18.458904 18.4567308v22.4836539c0 14.4298073-11.746576 26.1750003-26.178082 26.1750003" fill="#f9e2cf"/><path d="m197.876377 88.538126v47.316346c0 3.523558-2.85274 6.375962-6.376713 6.375962h-6.712328c-3.188357 0-5.70548-2.349039-6.208904-5.369231l-5.369864-34.2288463c-.503424-3.1879807-3.356164-5.7048077-6.712328-5.7048077h-40.945206v-8.389423c0-12.9197116 10.571918-23.4903847 23.493151-23.4903847h25.171233c13.089041 0 23.660959 10.5706731 23.660959 23.4903847" fill="#80b1c7"/><path d="m153.240062 114.5453375h-9.565069c-2.85274 0-5.034246-2.3490385-5.034246-5.0336538v-4.3625c0-2.8524039 2.181506-5.0336539 5.034246-5.0336539h9.565069c2.852739 0 5.034246 2.18125 5.034246 5.0336539v4.3625c0 2.8524038-2.349315 5.0336538-5.034246 5.0336538" fill="#e5d5c7"/><path d="m188.479788 111.022451h-62.760274c-1.845891 0-3.356165-1.5100962-3.356165-3.3557693v-11.4096154c0-5.8725961 3.020548-11.2418269 7.886987-14.2620192l10.068493-6.2081731c.839041-.5033653 1.84589-.6711538 2.684931-.3355769l33.393836 9.5639423c7.215753 2.0134616 12.082192 8.725 12.082192 16.1076923z" fill="#a2c9d6"/><path d="m187.472771 101.1222606c4.633184 0 8.390411 3.7567836 8.390411 8.3894231 0 4.6343173-3.757227 8.389423-8.390411 8.389423-4.634863 0-8.390411-3.7551057-8.390411-8.389423 0-4.6326395 3.755548-8.3894231 8.390411-8.3894231" fill="#b2dbe8"/><path d="m187.472771 106.1559144c1.852602 0 3.356164 1.5033846 3.356164 3.3557693 0 1.8540625-1.503562 3.3557692-3.356164 3.3557692-1.852603 0-3.356165-1.5017067-3.356165-3.3557692 0-1.8523847 1.503562-3.3557693 3.356165-3.3557693" fill="#80b1c7"/><path d="m153.743151 125.28447h-8.726028c-1.510274 0-2.684931-1.174519-2.684931-2.684615s1.174657-2.6846156 2.684931-2.6846156h8.726028c1.510274 0 2.684931 1.1745196 2.684931 2.6846156.167808 1.510096-1.174657 2.684615-2.684931 2.684615" fill="#fff"/><path d="m129.578935 105.6528846c-1.174658 0-2.181507-1.0067308-2.181507-2.18125v-12.4163461c0-1.1745193 1.006849-2.18125 2.181507-2.18125 1.174657 0 2.181507 1.0067307 2.181507 2.18125v12.4163461c-.167808 1.1745192-1.00685 2.18125-2.181507 2.18125m8.558387 0c-1.174658 0-2.181507-1.0067308-2.181507-2.18125v-17.45c0-1.1745192 1.006849-2.18125 2.181507-2.18125 1.174657 0 2.181507 1.0067308 2.181507 2.18125v17.45c0 1.1745192-1.00685 2.18125-2.181507 2.18125m8.557548 0c-1.174658 0-2.181507-1.0067308-2.181507-2.18125v-17.45c0-1.1745192 1.006849-2.18125 2.181507-2.18125 1.174657 0 2.181507 1.0067308 2.181507 2.18125v17.45c0 1.1745192-1.00685 2.18125-2.181507 2.18125m8.558387 0c-1.174658 0-2.181507-1.0067308-2.181507-2.18125v-14.0942308c0-1.1745192 1.006849-2.18125 2.181507-2.18125 1.174657 0 2.181507 1.0067308 2.181507 2.18125v14.0942308c0 1.1745192-1.00685 2.18125-2.181507 2.18125m8.726363 0c-1.174658 0-2.181507-1.0067308-2.181507-2.18125v-12.4163461c0-1.1745193 1.006849-2.18125 2.181507-2.18125 1.174657 0 2.181507 1.0067307 2.181507 2.18125v12.4163461c-.167809 1.1745192-1.00685 2.18125-2.181507 2.18125m8.558387 0c-1.174658 0-2.181507-1.0067308-2.181507-2.18125v-9.0605769c0-1.1745192 1.006849-2.18125 2.181507-2.18125 1.174657 0 2.181507 1.0067308 2.181507 2.18125v9.0605769c0 1.1745192-1.00685 2.18125-2.181507 2.18125" fill="#80b1c7"/><path d="m195.192116 231.158318-34.568493 19.63125c-1.174657.672832-2.684931.503366-3.691781-.16611l-25.842465-19.46514c-.839041-.669476-1.342466-1.677884-1.342466-2.684615v-62.081731c0-9.228365 7.55137-16.778846 16.780822-16.778846h33.561644c9.229452 0 16.780822 7.550481 16.780822 16.778846v61.746154c0 1.342308-.671233 2.350716-1.678083 3.020192" fill="#a2c9d6"/><path d="m102.5616438 228.977404 21.4794522-27.013942-99.00684942-78.692789c-1.51027398-1.174519-3.69178083-.167788-3.69178083 1.677885l-1.34246575 35.90673c0 1.510097.50342466 2.852404 1.6780822 3.859135z" fill="#fff"/><path d="m26.54485616 152.297741 1.00684932-27.013942 96.48972652 76.681005-14.7671238 18.456731-81.05136984-64.432447c-1.00684932-.838943-1.6780822-2.18125-1.6780822-3.691347" fill="#eff1f4"/><path d="m105.7498322 236.024855 25.8424658-32.383173c.839041-1.006731.671233-2.516827-.335616-3.187981l-7.215754-5.706486c-1.006849-.838942-2.517123-.669476-3.188356.337255l-25.8424658 32.381495c-.8390411 1.008409-.6712329 2.516827.3356164 3.189659l7.2157534 5.704808c1.0068493.838942 2.5171233.671154 3.1883562-.335577" fill="#5d6989"/><path d="m123.705647 241.897451c-2.013698 0-3.8595888-.671154-5.537671-2.013462-3.5239726-3.020192-3.859589-8.389423-.8390411-11.91298l67.1232881-76.34375c3.020548-3.523558 8.390411-3.859135 11.914383-.838943 3.523973 3.020193 3.859589 8.389423.839041 11.912981l-67.123287 76.34375c-1.678083 2.013462-4.027398 2.852404-6.376713 2.852404" fill="#80b1c7"/><path d="m155.757185 184.346344-7.215753 8.219957c4.195205 3.693024 8.222602 7.550481 12.082191 11.579082l7.55137-8.725c-4.027397-3.693024-8.222603-7.38437-12.417808-11.074039m34.400685-10.571176-16.109589-12.751923c-2.181507-1.677885-2.517123-4.865866-.839041-7.047116l2.013698-2.684615c5.202055-6.54375 14.599315-7.718269 21.143836-2.516827l.335616.335577c6.544521 5.201442 7.719178 14.597596 2.517124 21.141346l-2.013699 2.684615c-1.678082 2.18125-4.866438 2.516827-7.047945.838943" fill="#5c8f9e"/><path d="m176.733212 195.586829-15.94178 17.617788c-2.517124 2.686294-6.712329 3.02187-9.565069.505044l-4.363014-3.860813c-.671233-.669476-.671233-1.677885-.167808-2.347361l22.821918-25.002158c.671233-.671154 1.678082-.671154 2.349315-.166111l4.363014 3.857457c2.684931 2.350716 3.020548 6.711538.503424 9.396154" fill="#5c8f9e"/><path d="m404.449301 84.1762971-16.950308 9.7317308c-3.186678 1.8456731-7.214075.6711538-9.059966-2.3490385l-.505102-.8389423c-1.844213-3.1879808-.669555-7.2149038 2.350993-9.0605769l16.946952-9.7317308c3.190034-1.8456731 7.217431-.6711538 9.063322 2.3490385l.501746.8389423c2.015377 3.1879808.839041 7.3826923-2.347637 9.0605769" fill="#495672"/><path d="m402.435267 174.110241c14.767123 0 26.849315-12.080769 26.849315-26.846153v-15.100962c0-11.074038-9.061644-20.1346154-20.136986-20.1346154h-13.424658c-11.07702 0-20.136986 9.0605774-20.136986 20.1346154v15.100962c0 14.765384 12.082192 26.846153 26.849315 26.846153" fill="#4f5256"/><path d="m424.245469 137.532692c1.852603-.003355 3.357843 1.496673 3.361199 3.350736.003356 1.852384-1.49685 3.357447-3.349452 3.360803-1.854281.003356-3.359521-1.496673-3.362877-3.349058-.003356-1.854062 1.498527-3.359125 3.35113-3.362481m-21.815068 0c1.852602-.003355 3.357842 1.496673 3.361198 3.350736.003356 1.852384-1.496849 3.357447-3.349452 3.360803-1.854281.003356-3.35952-1.496673-3.362876-3.350736-.003357-1.852384 1.498527-3.357447 3.35113-3.360803" fill="#ebeffc"/><path d="m402.266452 70.2493514c-4.025719 0-7.719178 2.3490385-9.39726 6.2081731l-22.316815 51.0076925 63.767123-.167789-22.487979-50.8399035c-1.844213-3.6913461-5.537672-6.2081731-9.565069-6.2081731" fill="#5d6989"/><path d="m377.6 111.022-7.217 16.444 63.767-.168-7.216-16.443m-51.012096 36.074014h7.046267c.169487-.335577.335617-.503365.335617-1.006731v-10.067308c0-1.00673-.669555-1.677884-1.678083-1.677884h-2.347637c-3.52565 0-6.712328 2.516827-7.047945 6.040384-.169486 3.020193 1.342466 5.53702 3.691781 6.711539" fill="#495672"/><path d="m412.839712 110.1835087c-2.013698-2.0134616-3.022226-4.1947116-3.69178-6.54375-.335617-1.1745193-1.847569-1.6778847-2.85274-.8389424-4.363014 4.1947116-6.041096 10.7384616-3.356165 16.7788462 2.85274 6.7115385 10.234624 10.4028845 17.282569 8.7249995 6.376712-1.510096 10.741404-6.711538 11.580445-12.7519226.16613-1.3423077-1.174657-2.3490384-2.350993-1.8456731-2.179829.8389424-4.530822 1.3423077-7.381884.8389424-3.52565-.1677885-6.712328-1.8456731-9.229452-4.3625" fill="#fff24a"/><path d="m437.674993 133.002068-70.479452.167789c-1.847568 0-3.356164-1.510096-3.356164-3.355769 0-1.845674 1.508596-3.35577 3.356164-3.35577l70.479452-.167788c1.845891 0 3.356165 1.510096 3.356165 3.355769s-1.510274 3.355769-3.356165 3.355769m10.571582 174.332883c2.013699 0 3.523973-1.847351 3.356165-3.859135l-16.277398-123.660096c-1.174657-8.221634-8.222602-14.429807-16.613013-14.429807h-34.400685c-8.558219 0-15.606165 6.375961-16.613014 14.765384l-15.10274 123.324519c-.167808 2.011784 1.342466 3.689669 3.356165 3.689669h92.29452z" fill="#5d6989"/><path d="m424.632 262.381 49.467-97.207 4.485 2.282-49.465 97.209" fill="#a2c9d6"/><path d="m465.671 181.671 8.371-16.45 4.487 2.284-8.37 16.45" fill="#80b1c7"/><path d="m466.94964 162.555992c2.52048-4.956471 8.583391-6.929663 13.538768-4.407803 4.955376 2.520183 6.930479 8.58238 4.408321 13.538851-2.522157 4.956472-8.58339 6.927986-13.540445 4.406125-4.955376-2.520182-6.928801-8.582379-4.406644-13.537173" fill="#ff966c"/><path d="m486.003425 166.727717c-1.845891 3.355769-6.041096 4.698077-9.565069 3.020192-3.523972-1.845673-4.866438-6.040384-3.188356-9.563942.671233-1.342308 1.84589-2.516827 3.188356-3.020192-3.859589-.167789-7.719178 1.845673-9.565068 5.537019-2.517124 5.033654-.503425 11.074038 4.363013 13.590865 5.034247 2.516827 11.075343.503366 13.592466-4.3625.839041-1.845673 1.174658-3.523558 1.174658-5.201442" fill="#f27a51"/><path d="m479.458233 182.164591-17.953801-9.060577c-.839042-.503365-1.174658-1.510096-.672911-2.18125.503424-.838942 1.511952-1.174519 2.181506-.671154l17.95548 9.060577c.839041.503365 1.176335 1.510096.672911 2.18125-.335617.838942-1.344144 1.174519-2.183185.671154" fill="#a2c9d6"/><path d="m427.103411 234.85c.333938-1.845673.839041-3.691346 1.84589-5.369231 1.340788-2.349038 2.517124-4.698077 3.857911-7.047115-33.561644-6.879327-39.265445-37.416827-39.434931-38.926923-.669555-4.530289-5.034247-7.718269-9.565069-6.879327-4.529144.671154-7.7175 5.033654-7.046267 9.563942 2.517123 15.604327 15.941781 43.625 49.503425 52.014423.167808-1.174519.503425-2.349038.839041-3.355769" fill="#495672"/><path d="m429.787671 149.780914h-6.54452c-1.678083 0-3.020548 1.17452-3.356165 2.852404l-2.013698 12.248558h-5.369863l-1.342466-12.080769c-.167808-1.677885-1.678082-3.020193-3.356164-3.020193h-31.547946c-2.684931 0-4.195205 3.020193-2.852739 5.201443l10.068493 15.604327 19.969178 8.389423c-.167808 2.684615 2.684931 5.033654 5.369863 4.194711 2.517123-.838942 4.363014-2.18125 5.705479-4.3625.335617-.671154.503425-1.342307.503425-2.013461l12.585616-6.208173 5.369863-16.275481c.839041-2.349039-.839041-4.530289-3.188356-4.530289" fill="#5d6989"/><path d="m375.417137 164.042934h55.376712c1.008528 0 1.678083.671153 1.678083 1.677884v1.677885c0 1.006731-.669555 1.677884-1.678083 1.677884h-55.376712c-1.006849 0-1.678082-.671153-1.678082-1.677884v-1.677885c0-1.006731.839041-1.677884 1.678082-1.677884" fill="#495672"/><path d="m339.004096 62.3637971c3.859589 3.8591346 10.402431 3.8591346 14.263699 0l11.410958-11.4096154c3.859589-3.8591346 3.859589-10.4028846 0-14.2620192s-10.404109-3.8591346-14.263698 0l-11.410959 11.4096154c-3.861267 3.8591346-3.861267 10.2350961 0 14.2620192" fill="#d8b39a"/><path d="m343.199301 58.0011293c1.508596 1.5100962 4.195206 1.5100962 5.703802 0l11.410959-11.4096154c1.511952-1.5100961 1.511952-4.1947115 0-5.7048077-1.508596-1.5100961-4.195206-1.5100961-5.703802 0l-11.410959 11.4096154c-1.510274 1.5100962-1.510274 4.1947116 0 5.7048077" fill="#f4d8c6"/><path d="m303.428418 62.3637971c-3.859589 3.8591346-10.40411 3.8591346-14.263699 0l-11.410959-11.4096154c-3.861267-3.8591346-3.861267-10.4028846 0-14.2620192 3.859589-3.8591346 10.402432-3.8591346 14.263699 0l11.410959 11.4096154c4.025719 3.8591346 4.025719 10.2350961 0 14.2620192" fill="#d8b39a"/><path d="m299.233212 58.0011293c-1.510274 1.5100962-4.195205 1.5100962-5.705479 0l-11.410959-11.4096154c-1.511952-1.5100961-1.511952-4.1947115 0-5.7048077 1.510274-1.5100961 4.195205-1.5100961 5.705479 0l11.410959 11.4096154c1.508596 1.5100962 1.508596 4.1947116 0 5.7048077" fill="#f4d8c6"/><path d="m394.044856 265.723748-19.633561-190.1043268c-2.350994-22.3175433-18.962329-39.9353318-40.273973-44.2961539 2.013699-1.84567307 3.691781-4.19471153 4.69863-6.54542788.839041-2.1795721-2.015377-4.19471153-3.859589-2.85072596-2.517123 1.67788462-4.868116 3.68966827-7.38524 5.2014423l-1.005171.5033654c.503425-.8389423 1.005171-1.67788462 1.510274-2.34903847.839041-1.5100962-1.344144-3.3557693-2.517123-2.0134616-2.85274 3.3557692-6.208904 5.36923074-9.734555 7.21490382-24.833938.8389423-45.308219 19.7990385-48.159281 44.4639423l-21.815068 189.93653879c-2.013699 17.112745 9.39726 33.052649 26.344212 36.743995l2.517123.503365c30.878391 6.545428 62.594144 6.37764 93.303048-.333899 16.445206-3.691346 27.688356-19.127884 26.010274-36.074519" fill="#d8b39a"/><path d="m349.575678 52.631563c3.336027 0 6.041096 2.70475 6.041096 6.0403846s-2.705069 6.0403846-6.041096 6.0403846-6.042774-2.70475-6.042774-6.0403846 2.706747-6.0403846 6.042774-6.0403846m-56.551705 0c3.336027 0 6.041095 2.70475 6.041095 6.0403846s-2.705068 6.0403846-6.041095 6.0403846c-3.336028 0-6.041096-2.70475-6.041096-6.0403846s2.705068-6.0403846 6.041096-6.0403846m18.794856 21.4774264c-1.174658 0-2.013699-.8389423-2.013699-2.0134615s.839041-2.0134616 2.013699-2.0134616c6.376712 0 7.381883-6.8793269 7.381883-7.0471153.169487-1.1745193 1.176336-1.8456731 2.183185-1.6778847 1.17298.1677885 1.845891 1.1745193 1.678082 2.18125-.335616 3.6913462-3.356164 10.5706731-11.24315 10.5706731" fill="#4f5256"/><path d="m330.613685 74.1089894c-7.886986 0-10.907534-6.8793269-11.412637-10.5706731-.16613-1.1745192.672911-2.18125 1.678082-2.18125 1.174658-.1677884 2.183185.6711539 2.183185 1.6778847.167808.6711538 1.17298 7.0471153 7.381884 7.0471153 1.176335 0 2.015376.8389424 2.015376 2.0134616s-.672911 2.0134615-1.84589 2.0134615" fill="#4f5256"/><path d="m279.096226 127.968414-16.94863 138.928847c-1.510274 13.255288 7.383562 25.673312 20.472603 28.35625l2.013698.503365c23.828767 5.033654 48.496576 4.865865 72.323665-.335577 12.922911-2.850726 21.648938-14.933173 20.306472-28.018995l-15.272226-138.930524c-1.844212-19.9668271-18.625034-35.0677887-38.76202-35.0677887h-5.369863c-19.80137 0-36.416062 14.9331731-38.763699 34.5644227" fill="#f4d8c6"/><path d="m302.756514 198.942598c-.839041-4.52861-4.69863-7.550481-8.054795-10.235096-6.039418-4.696399-11.073664-9.396154-14.599315-16.275481-8.726027-17.114423 7.55137-58.0531297-15.438356-67.1153845-.839041.8389423-1.174658 2.0134616-1.510274 3.1896587-4.027397 22.1463988-19.465753 40.7709178-14.934932 64.2613028 3.85959 19.968505 20.136987 34.396635 40.273973 36.074519 1.174658.167789 2.013699-.16611 2.68661-.671154 6.375034.671154 13.255171-1.342307 11.577089-9.228365" fill="#d8b39a"/><path d="m325.243486 106.8277394c36.144213 0 65.445206 29.2975436 65.445206 65.4374996 0 36.139957-29.300993 65.4375-65.445206 65.4375-36.144212 0-65.445205-29.297543-65.445205-65.4375 0-36.139956 29.300993-65.4374996 65.445205-65.4374996" fill="#eff1f4"/><path d="m325.243486 119.7469476c29.007329 0 52.523973 23.5138754 52.523973 52.5177884 0 29.003914-23.516644 52.517789-52.523973 52.517789-29.009007 0-52.523972-23.513875-52.523972-52.517789 0-29.003913 23.514965-52.5177884 52.523972-52.5177884" fill="#a38069"/><g fill="#937260"><path d="m-1.33782534-4.35656738c-.83777532 0-1.50632002.6706717-1.50632002 1.50901132v39.90496586c.83777532 1.510688 1.84143015 2.8503547 2.84843608 4.1916981v-44.09666396c.16587952-.83833962-.50434074-1.50901132-1.34211606-1.50901132" mask="url(#b)" transform="translate(272.515 170.622)"/><path d="m316.7524871 149.666853c-.8377753 0-1.50632.6706717-1.50632 1.5090113v51.1387168c0 .8383396.6685447 1.5090113 1.50632 1.5090113.8377754 0 1.5079956-.6706717 1.5079956-1.5090113v-51.1387168c0-.8383396-.6702202-1.5090113-1.5079956-1.5090113m23.7931542 59.1872801c-1.3404405-3.0180226-3.3511013-5.7007094-5.6968721-8.0480603-5.026652-5.0300378-7.707533-11.7367547-7.707533-18.7788075v-16.4314565c1.5079956 3.0180226 3.3511013 5.7007094 5.6968722 8.0480603 5.0266519 5.0300377 7.7075329 11.7367547 7.7075329 18.7788075zm-13.4044051-56.1687545v-13.9164377c0-.8383396-.6702202-1.5090113-1.5079956-1.5090113-.8377753 0-1.5079955.6706717-1.5079955 1.5090113v43.0906565c0 7.8803924 3.0159911 15.257781 8.7128633 20.7908225 5.0266519 5.0300377 7.7075329 11.7367547 7.7075329 18.7788071v1.507335c1.0053304-.333659 2.0106608-.668995 2.8484361-1.004331v-.503004c0-1.1736751-.1675551-2.5150185-.3351101-3.6886939.167555-.167668.3351101-.5030038.3351101-.8383396v-24.6471849c0-7.8820691-3.0159911-15.257781-8.5453082-20.7908225-5.026652-5.0300377-7.707533-11.7367547-7.707533-18.7788075zm13.7398504-24.8153557c2.3440953 0 4.5239867-1.00600756 6.1995373-2.6826868-1.0053304-.50300377-2.0106607-.83833962-3.0176667-1.3413434-.8377753.6706717-2.0089852 1.00600756-3.1818706 1.00600756-2.3457709 0-4.3581073-1.50901132-5.1958826-3.5210264-1.0036548-.16766793-2.1765402-.33533585-3.1818706-.50300378.8377753 4.02403018 4.1888766 7.0420528 8.3777532 7.0420528m-52.9484056 67.06800792c-.8377753 0-1.50632.668995-1.50632 1.5073346v12.0737672c1.0036549 1.0043309 1.8414302 2.0120151 2.8484361 2.8503547v-14.9241219c.1658795-.8383396-.5043407-1.5073346-1.3421161-1.5073346m5.3620972-5.3657089c-.8377753 0-1.50632.668995-1.50632 1.5073346s.6685447 1.510688 1.50632 1.510688c2.1782158 0 3.8537665 1.6766792 3.8537665 3.8563622v16.5991245c0 1.3413434-.6702203 2.5150189-1.6755507 3.1840139.8377754.5046804 1.6755507 1.1753521 2.513326 1.6766792 1.3421161-1.1719988 2.0106608-3.0163459 2.0106608-4.8606931v-16.5991245c.1692306-3.8563622-2.8484361-6.8743848-6.7022026-6.8743848"/><path d="m296.4789946 180.3505861c-5.5293171 0-9.8857487 4.5270339-9.8857487 9.8907308 0 .8383396.6702202 1.510688 1.5079955 1.510688.8377754 0 1.5063201-.6723484 1.5063201-1.510688 0-3.8546856 3.1852217-7.0403761 7.0389882-7.0403761 3.8520909 0 7.0373127 3.1856905 7.0373127 7.0403761v6.3730578c0 .8383396.6702202 1.5090113 1.5079956 1.5090113.8377753 0 1.5079955-.6706717 1.5079955-1.5090113v-6.3730578c-.167555-5.3636969-4.6915418-9.8907308-10.2208589-9.8907308m-16.25317627 19.7844796v4.1916981c0 .8383396.67022026 1.5090113 1.50799558 1.5090113.8377753 0 1.3404405-.6706717 1.5079956-1.3413433v-63.2108073c-1.0053304 1.3413434-2.0106608 2.8503547-2.8484361 4.359366l-.167555 54.4920752zm25.46870477-36.3842748c0 4.359366-3.5203318 7.8803924-7.875088 7.8803924-4.3564316 0-7.875088-3.5210264-7.875088-7.8803924v-30.0125583c-1.0053303.8383396-2.0123363 1.8443471-2.8501116 2.8503547v26.9945357c0 5.8683773 4.8607724 10.7307471 10.7251996 10.7307471 5.8644273 0 10.7235241-4.8623698 10.7235241-10.7307471v-40.57563757c-1.0053303.33533584-2.0106607.6706717-2.8484361 1.00600754z"/><path d="m297.8191 165.0926373c2.3457709 0 4.3564317-2.0120151 4.3564317-4.359366v-27.6652074c0-.8383397-.6702203-1.5090114-1.5079956-1.5090114s-1.5079956.6706717-1.5079956 1.5090114v27.6652074c0 .8383396-.6702202 1.3413434-1.3404405 1.3413434-.6702202 0-1.3404405-.6706717-1.3404405-1.3413434v-31.85690554c-1.0053304.6706717-2.0106607 1.3413434-2.8484361 2.01201514v29.8448904c-.167555 2.3473509 1.6755507 4.359366 4.1888766 4.359366m17.4263969-22.1325013c0 .8383397.6685447 1.5090113 1.50632 1.5090113s1.5096711-.6706716 1.5096711-1.5090113v-22.13216592c-1.0070059.16766793-2.0106607.33533585-2.848436.50300378zm38.5376647 73.7747249c1.0053304-.6706717 2.0089852-1.3430201 2.8467605-2.0120151v-83.6679707c-1.0036548-.668995-1.8414301-1.3396667-2.8467605-2.0103384zm-7.2062082-74.9478973c-1.50632-1.3413434-3.5186563-2.179683-5.5293171-2.179683s-4.1888766.8383396-5.5293171 2.179683c0-3.0180227 2.5133259-5.5330415 5.5293171-5.5330415 3.0159911 0 5.5293171 2.3473509 5.5293171 5.5330415m-11.2245137 6.0360452c.1658795-3.0180226 2.5133259-5.3653735 5.5293171-5.3653735 3.0143156 0 5.361762 2.3473509 5.5276415 5.3653735-.1658795 3.0180227-2.5133259 5.3653736-5.5276415 5.3653736-3.0159912 0-5.3634376-2.3473509-5.5293171-5.3653736m11.2245137 6.2037132c0 3.0180226-2.513326 5.5330415-5.5293171 5.5330415-3.0159912 0-5.5293171-2.5150189-5.5293171-5.5330415v-.1676679c1.5096711 1.3413434 3.5186563 2.179683 5.5293171 2.179683s4.0229971-.8383396 5.5293171-2.0120151m-5.6951966-20.7908225c-4.6915418 0-8.5469838 3.8563622-8.5469838 8.5510641v12.4074263c0 4.6947019 3.855442 8.5510641 8.5469838 8.5510641 4.6898662 0 8.5436327-3.8563622 8.5436327-8.5510641v-12.4074263c0-4.8623698-3.8537665-8.5510641-8.5436327-8.5510641m22.6192634 38.8982876c-.8377753 0-1.5079956.6706717-1.5079956 1.5090113v36.3856162c1.0053304-1.0076842 2.0106608-2.0136918 2.8484361-3.1873672v-33.198249c.1658795-.8383396-.5026652-1.5090113-1.3404405-1.5090113m-1.5086658-12.5750943c0 .8383396.6702202 1.5090113 1.5079956 1.5090113.8377753 0 1.5079955-.6706717 1.5079955-1.5090113v-20.7908225c-1.0053303-1.1736755-1.8431057-2.179683-2.8467605-3.1856906zm8.7131984-.5026684c-.8377753 0-1.5079956.6706717-1.5079956 1.5090113v16.7667924c0 .8383396.6702203 1.5090113 1.5079956 1.5090113s1.5079956-.6706717 1.5079956-1.5090113v-16.7667924c0-.8383396-.6702203-1.5090113-1.5079956-1.5090113m0 25.8215309c-.8377753 0-1.5079956.6689951-1.5079956 1.5073347v14.4211181c1.0053304-1.6766792 2.0106608-3.3533585 2.8484361-5.1993823v-9.2217358c.1675551-.8383396-.5026652-1.5073347-1.3404405-1.5073347m-22.7868184-18.1086387c-.8377754 0-1.5079956.6706716-1.5079956 1.5090113v5.1977056c0 .8383396.6702202 1.5090113 1.5079956 1.5090113.8377753 0 1.50632-.6706717 1.50632-1.5090113v-5.1977056c0-.8383397-.6685447-1.5090113-1.50632-1.5090113"/></g><path d="m325.243486 159.345192c9.637226 0 17.450377 7.812231 17.450377 17.45 0 9.63777-7.813151 17.45-17.450377 17.45-9.638904 0-17.452054-7.81223-17.452054-17.45 0-9.637769 7.81315-17.45 17.452054-17.45z" fill="#826356"/><path d="m325.243486 154.814568c9.637226 0 17.450377 7.812231 17.450377 17.45s-7.813151 17.45-17.450377 17.45c-9.638904 0-17.452054-7.812231-17.452054-17.45s7.81315-17.45 17.452054-17.45" fill="#eff1f4"/><path d="m325.243486 162.197932c5.559487 0 10.068493 4.506798 10.068493 10.067307 0 5.558832-4.509006 10.067308-10.068493 10.067308-5.559486 0-10.068493-4.508476-10.068493-10.067308 0-5.560509 4.509007-10.067307 10.068493-10.067307" fill="#fff"/><path d="m325.243486 125.619544c28.023973 0 50.845891 21.980288 52.356165 49.665384 0-1.00673.167808-2.013461.167808-2.852403 0-29.027404-23.493151-52.517789-52.523973-52.517789s-52.523972 23.490385-52.523972 52.517789c0 1.00673.167808 2.013461.167808 2.852403 1.510274-27.685096 24.332192-49.665384 52.356164-49.665384" fill="#826356"/><path d="m265.671568 268.910722c.503425 0 .839042 0 1.342466-.167788 4.530822-.671154 7.7175-5.033654 7.047945-9.563943l-13.256849-83.390865c-.671233-4.530288-5.034246-7.718269-9.565068-7.047115-4.530822.671153-7.719178 5.033653-7.047946 9.563942l13.25685 83.390865c.503424 4.3625 4.027397 7.214904 8.222602 7.214904" fill="#937260"/><path d="m200.058387 121.256876c-.839041 0-1.510274.671154-1.510274 1.510096v121.98389c0 .838942.671233 1.508418 1.510274 1.508418s1.510274-.669476 1.510274-1.508418v-121.98389c0-.838942-.671233-1.510096-1.510274-1.510096" fill="#a38069"/><path d="m198.380305 127.297428-6.544521-6.54375c-1.006849-1.00673-2.684931-.335577-2.684931 1.006731v3.691346c0 .335577 0 .503366.167808.671154l2.85274 5.201442-3.020548-2.349038v3.020192c0 .838943.335616 1.510096.839041 2.18125l8.222603 8.221635v-15.100962z" fill="#ff966c"/><path d="m201.568493 127.297428 6.544521-6.54375c1.006849-1.00673 2.684931-.335577 2.684931 1.006731v3.691346c0 .335577 0 .503366-.167808.671154l-2.85274 5.201442 3.020548-2.349038v3.020192c0 .838943-.335616 1.510096-.839041 2.18125l-8.222603 8.221635v-15.100962z" fill="#738bd7"/><path d="m192.674993 256.829617h24.5c1.342466 0 2.517123-1.172841 2.517123-2.516827v-108.054091c0-1.343986-1.174657-2.516827-2.517123-2.516827h-24.5c-1.342466 0-2.517123 1.172841-2.517123 2.516827v108.054091c0 1.343986 1.174657 2.516827 2.517123 2.516827" fill="#d8b39a"/><path d="m190.158 175.621h29.534v-19.632h-29.534" fill="#a38069"/><path d="m190.158 168.406h29.534v-4.866h-29.534" fill="#937260"/><path d="m198.380305 248.944902h70.479452l-4.027397-66.445909c-.503425-8.89111-7.886987-15.770437-16.780822-15.770437h-32.05137c-7.047945 0-12.921233 5.537019-13.424658 12.584134z" fill="#8fd171"/><path d="m233.788007 175.956082c3.859589 0 6.712329-3.020192 6.712329-6.711538v-20.302404c0-3.691346-3.020548-6.711539-6.712329-6.711539h-.167808c-3.691781 0-6.712329 3.020193-6.712329 6.711539v20.302404c.335616 3.691346 3.356164 6.711538 6.880137 6.711538" fill="#e5d5c7"/><path d="m234.12312 160.687164h3.020548c14.431507 0 26.178082-11.745192 26.178082-26.175v-29.1951919c0-6.54375-5.202055-11.7451923-11.746575-11.7451923h-31.883562c-6.376712 0-11.746575 5.2014423-11.746575 11.7451923v29.1951919c0 14.429808 11.746575 26.175 26.178082 26.175" fill="#f9e2cf"/><path d="m256.777229 122.767643c1.852603 0 3.356165 1.501707 3.356165 3.355769 0 1.852385-1.503562 3.35577-3.356165 3.35577-1.852602 0-3.356164-1.503385-3.356164-3.35577 0-1.854062 1.503562-3.355769 3.356164-3.355769" fill="#4f5256"/><path d="m218.013363 84.3434144h45.811644c6.54452 0 11.914383 5.3692308 11.914383 11.9129808s-5.369863 11.9129808-11.914383 11.9129808h-41.280822c-4.69863 0-8.390411 3.691346-8.390411 8.389423v25.671635c0 3.020192-2.013699 5.872596-5.034247 6.54375-4.195205.838942-7.886986-2.349039-7.886986-6.375962v-41.2759614c0-9.2283654 7.55137-16.7788462 16.780822-16.7788462" fill="#ffc44d"/><path d="m231.605997 122.767643c1.852602 0 3.356164 1.501707 3.356164 3.355769 0 1.852385-1.503562 3.35577-3.356164 3.35577-1.852603 0-3.356165-1.503385-3.356165-3.35577 0-1.854062 1.503562-3.355769 3.356165-3.355769" fill="#4f5256"/><path d="m214.15411 122.767643h-2.349315c-3.523973 0-6.712329 2.516827-7.047946 6.040385-.335616 4.026923 2.684932 7.382692 6.712329 7.382692h2.684932c1.006849 0 1.678082-.671154 1.678082-1.677884v-10.067308c0-.838942-.671233-1.677885-1.678082-1.677885" fill="#f9e2cf"/><path d="m215.832192 126.794399h-2.181507c-1.510274 0-2.684932 1.174519-2.684932 2.684615s1.174658 2.684615 2.684932 2.684615h2.181507z" fill="#e5d5c7"/><path d="m225.22962 118.908005h8.893835c1.174658 0 2.181507-1.00673 2.181507-2.18125v-.503365c0-1.174519-1.006849-2.18125-2.181507-2.18125h-8.893835c-1.174658 0-2.181507 1.006731-2.181507 2.18125v.335577c0 1.342308 1.006849 2.349038 2.181507 2.349038m31.379633 0h4.866439c1.006849 0 1.84589-.838942 1.84589-1.845673v-1.510096c0-1.006731-.839041-1.845673-1.84589-1.845673h-4.866439c-1.006849 0-1.84589.838942-1.84589 1.845673v1.510096c.167808 1.006731.839041 1.845673 1.84589 1.845673" fill="#ffc44d"/><path d="m201.904445 227.466637h.335617c50.174657-10.401207 52.523972-60.23438 52.523972-60.739424 0-1.00673-.671233-1.677884-1.678082-1.677884-.839041 0-1.678082.671154-1.678082 1.677884 0 2.013462-2.181507 47.82139-49.839041 57.553121-.839041.16611-1.510274 1.005053-1.342466 2.013461.167808.669476.839041 1.172842 1.678082 1.172842" fill="#4f5256"/><path d="m209.455815 276.629998c.671233 0 1.174658 0 1.84589-.169466 4.530822-1.005053 7.383562-5.535342 6.376713-10.067308-7.886986-34.396635 3.691781-85.402649 3.859589-85.906014 1.006849-4.530289-1.845891-9.060577-6.376712-10.067308-4.530822-1.006731-9.061644 1.845673-10.068494 6.375961-.503424 2.516827-12.585616 55.370193-3.859589 93.290385 1.00685 3.857457 4.363014 6.54375 8.222603 6.54375" fill="#8fd171"/><path d="m245.19863 142.902259c2.517123 0 4.530822-2.013462 4.530822-4.530289s-2.013699-4.530288-4.530822-4.530288-4.530822 2.013461-4.530822 4.530288 2.013699 4.530289 4.530822 4.530289" fill="#fff"/><path d="m194.688188 34.1748322c1.018596 0 1.845891.8271971 1.845891 1.8456731 0 1.0201538-.827295 1.8456731-1.845891 1.8456731s-1.84589-.8255193-1.84589-1.8456731c0-1.018476.827294-1.8456731 1.84589-1.8456731m258.592634 41.2761293c1.018596 0 1.84589.8271972 1.84589 1.8456731 0 1.0201539-.827294 1.8456731-1.84589 1.8456731s-1.84589-.8255192-1.84589-1.8456731c0-1.0184759.827294-1.8456731 1.84589-1.8456731" fill="#eff1f4"/><path d="m285.305466 8.33557692c1.018596 0 1.84589.82719712 1.84589 1.84567308 0 1.02015385-.827294 1.84567308-1.84589 1.84567308s-1.847569-.82551923-1.847569-1.84567308c0-1.01847596.828973-1.84567308 1.847569-1.84567308" fill="#ff966c"/><path d="m401.427411 49.9467798c1.575719 0 2.85274 1.2768702 2.85274 2.8524039 0 1.5755336-1.277021 2.8524038-2.85274 2.8524038-1.574041 0-2.851062-1.2768702-2.851062-2.8524038 0-1.5755337 1.277021-2.8524039 2.851062-2.8524039" fill="#8ca7ea"/><path d="m108.6029075 159.345192c1.5757192 0 2.8527398 1.27687 2.8527398 2.852404s-1.2770206 2.852404-2.8527398 2.852404c-1.5757191 0-2.8527397-1.27687-2.8527397-2.852404s1.2770206-2.852404 2.8527397-2.852404" fill="#a2c9d6"/><path d="m213.818158 14.04021683h-.167809c-.503424 0-.839041-.33557693-.839041-.8389423v-2.18125c0-.5033654.335617-.83894232.839041-.83894232h.167809c.503424 0 .839041.335577.839041.8389424v2.18125c0 .50336538-.335617.8389423-.839041.8389423m0 7.55048078h-.167809c-.503424 0-.839041-.3355769-.839041-.8389423v-2.18125c0-.5033654.335617-.8389423.839041-.8389423h.167809c.503424 0 .839041.3355769.839041.8389423v2.18125c0 .5033654-.335617.8389423-.839041.8389423m1.846058-5.53668365v-.16778846c0-.5033654.335616-.8389423.839041-.8389423h2.181507c.503424 0 .839041.3355769.839041.8389423v.16778846c0 .5033654-.335617.8389423-.839041.8389423h-2.181507c-.503425 0-.839041-.3355769-.839041-.8389423m-7.719346 0v-.16778848c0-.5033654.335616-.8389423.839041-.8389423h2.181507c.503424 0 .839041.3355769.839041.8389423v.16778845c0 .5033654-.335617.8389423-.839041.8389423h-2.181507c-.503425 0-.839041-.3355769-.839041-.8389423" fill="#eff1f4"/><path d="m101.7226027 80.9876452c-.6712328 0-1.0068493-.3355769-1.0068493-.8389423v-2.18125c0-.5033654.3356165-.8389423.8390411-.8389423h.1678082c.5034247 0 .8390411.3355769.8390411.8389423v2.18125c0 .5033654-.3356164.8389423-.8390411.8389423m0 7.718437c-.6712328 0-1.0068493-.3355769-1.0068493-.8389423v-2.18125c0-.5033654.3356165-.8389423.8390411-.8389423h.1678082c.5034247 0 .8390411.3355769.8390411.8389423v2.18125c0 .3355769-.3356164.8389423-.8390411.8389423m1.8460583-5.7046399c0-.6711538.3356164-1.0067308.8390411-1.0067308h2.1815068c.5034247 0 .8390411.335577.8390411.8389423v.1677885c0 .5033654-.3356164.8389423-.8390411.8389423h-2.1815068c-.5034247 0-.8390411-.3355769-.8390411-.8389423m-7.7193459 0c0-.6711538.3356164-1.0067308.8390411-1.0067308h2.1815068c.5034247 0 .8390411.335577.8390411.8389423v.1677885c0 .5033654-.3356164.8389423-.8390411.8389423h-2.1815068c-.3356165 0-.8390411-.3355769-.8390411-.8389423" fill="#ff966c"/><path d="m231.438021 25.9533654h-.167809c-.503424 0-.839041-.3355769-.839041-.8389423v-2.18125c0-.5033654.335617-.8389423.839041-.8389423h.167809c.503424 0 .839041.3355769.839041.8389423v2.18125c.167808.5033654-.335617.8389423-.839041.8389423m0 7.718437h-.167809c-.503424 0-.839041-.3355769-.839041-.8389423v-2.18125c0-.5033654.335617-.8389423.839041-.8389423h.167809c.503424 0 .839041.3355769.839041.8389423v2.0134615c.167808.5033654-.335617 1.0067308-.839041 1.0067308m1.846058-5.7046399c0-.6711538.335616-1.0067308.839041-1.0067308h2.181507c.503424 0 .839041.335577.839041.8389423v.1677885c0 .5033654-.335617.8389423-.839041.8389423h-2.181507c-.503425 0-.839041-.3355769-.839041-.8389423m-7.55137 0c0-.6711538.335616-1.0067308.839041-1.0067308h2.181507c.503425 0 .839041.335577.839041.8389423v.1677885c0 .5033654-.335616.8389423-.839041.8389423h-2.181507c-.503425 0-.839041-.3355769-.839041-.8389423m207.24399 25.5033428c-.505103-.5033654-.505103-1.0067308-.169487-1.3423077l1.511952-1.5100962c.335617-.3355769.839041-.3355769 1.174658 0l.167808.1677885c.335617.3355769.335617.8389423 0 1.1745192l-1.511952 1.5100962c-.333938.3355769-.839041.3355769-1.172979 0m-5.370199 5.3695663c-.503425-.5033654-.503425-1.0067307-.169486-1.3423077l1.511952-1.5100961c.335616-.3355769.839041-.3355769 1.174657 0l.167809.1677884c.335616.335577.335616.8389424 0 1.1745193l-1.510274 1.5100961c-.335617.335577-.839042.335577-1.174658 0m5.201384-2.6847831c.503424-.5033654 1.008527-.5033654 1.342465-.1677885l1.510274 1.5100962c.335617.3355769.335617.8389423 0 1.1745192l-.16613.1677884c-.337294.335577-.839041.335577-1.176335 0l-1.510274-1.5100961c-.335617-.3355769-.335617-.8389423 0-1.1745192m-5.370199-5.3695664c.505103-.5033654 1.008527-.5033654 1.344144-.1677884l1.508596 1.5100961c.335616.3355769.335616.8389423 0 1.1745192l-.16613.1677885c-.337295.3355769-.839042.3355769-1.176336 0l-1.510274-1.5100962c-.333938-.3355769-.333938-.8389423 0-1.1745192" fill="#8fd171"/><path d="m507.818493 152.130624c1.018596 0 1.845891.825519 1.845891 1.845673s-.827295 1.845673-1.845891 1.845673-1.84589-.825519-1.84589-1.845673.827294-1.845673 1.84589-1.845673" fill="#ff966c"/><path d="m459.15411 141.89536c1.018595 0 1.84589.825519 1.84589 1.845673s-.827295 1.845673-1.84589 1.845673c-1.018596 0-1.845891-.825519-1.845891-1.845673s.827295-1.845673 1.845891-1.845673" fill="#8fd171"/><path d="m503.95924 166.224687c1.574041 0 2.852739 1.27687 2.852739 2.852404s-1.278698 2.852404-2.852739 2.852404c-1.575719 0-2.85274-1.27687-2.85274-2.852404s1.277021-2.852404 2.85274-2.852404" fill="#ff966c"/><path d="m232.445038 62.1958409c1.575719 0 2.852739 1.2768702 2.852739 2.8524038 0 1.5755337-1.27702 2.8524039-2.852739 2.8524039-1.57572 0-2.85274-1.2768702-2.85274-2.8524039 0-1.5755336 1.27702-2.8524038 2.85274-2.8524038" fill="#8ca7ea"/><path d="m496.239055 201.795337c-.503425 0-1.00685-.335576-1.00685-1.00673v-7.71827c0-.503365.337295-1.00673 1.00685-1.00673.505103 0 1.008527.335577 1.008527 1.00673v7.71827c0 .503365-.503424 1.00673-1.008527 1.00673" fill="#fff24a"/><path d="m491.54076 197.097596c0-.503365.335617-1.006731 1.008528-1.006731h7.7175c.503424 0 1.006849.335577 1.006849 1.006731 0 .503366-.333938 1.006731-1.006849 1.006731h-7.7175c-.672911-.167789-1.008528-.503365-1.008528-1.006731m-15.605828-61.074832h-.167809c-.503424 0-.839041-.335577-.839041-.838942v-2.18125c0-.503366.335617-.838943.839041-.838943h.167809c.503424 0 .839041.335577.839041.838943v2.18125c0 .503365-.335617.838942-.839041.838942m0 7.718437h-.167809c-.503424 0-.839041-.335577-.839041-.838942v-2.18125c0-.503366.335617-.838943.839041-.838943h.167809c.503424 0 .839041.335577.839041.838943v2.18125c0 .503365-.335617.838942-.839041.838942m1.845219-5.705479c0-.671154.335616-1.006731.839041-1.006731h2.183185c.503424 0 .839041.335577.839041.838943v.167788c0 .503366-.335617.838942-.839041.838942h-2.183185c-.503425.167789-.839041-.335576-.839041-.838942m-7.718507 0c0-.671154.335616-1.006731.839041-1.006731h2.181507c.503424 0 .839041.335577.839041.838943v.167788c0 .503366-.335617.838942-.839041.838942h-2.181507c-.503425.167789-.839041-.335576-.839041-.838942" fill="#fff24a"/><path d="m94.6743219 140.217475c-.5034246-.503365-.5034246-1.00673-.1678082-1.342307l1.510274-1.510096c.3356164-.335577.8390411-.335577 1.1746575 0l.1678082.167788c.3356165.335577.3356165.838942 0 1.174519l-1.5102739 1.510096c-.3356165.335577-.8390411.335577-1.1746576 0m-5.3693596 5.368728c-.5034246-.503366-.5034246-1.006731-.1678082-1.342308l1.510274-1.510096c.3356164-.335577.8390411-.335577 1.1746575 0l.1678082.167788c.3356165.335577.3356165.838943 0 1.17452l-1.5102739 1.510096c-.3356165.335577-.8390411.335577-1.1746576 0m5.2022226-2.683944c.5034247-.503366 1.0068493-.503366 1.3424658-.167789l1.510274 1.510096c.3356164.335577.3356164.838943 0 1.17452l-.1678083.167788c-.3356164.335577-.8390411.335577-1.1746575 0l-1.510274-1.510096c-.3356164-.335577-.3356164-.838942 0-1.174519m-5.3701986-5.369567c.5034247-.503365 1.0068493-.503365 1.3424658-.167788l1.5102739 1.510096c.3356165.335577.3356165.838942 0 1.174519l-.1678082.167789c-.3356164.335577-.8390411.335577-1.1746575 0l-1.510274-1.510096c-.3356164-.335577-.3356164-.838943 0-1.17452" fill="#eff1f4"/><path d="m317.523301 58.0011293c-1.172979 0-1.84589 1.3423077-1.006849 2.3490385 1.176336 1.5100961 2.854418 2.8524038 4.69863 2.8524038 1.847569 0 3.525651-1.3423077 4.69863-2.8524038.671233-.8389423.169487-2.3490385-1.006849-2.3490385z" fill="#4f5256"/></g></svg>