<svg xmlns="http://www.w3.org/2000/svg" width="130" height="80" viewBox="0 0 130 80">
  <g fill="none" fill-rule="evenodd">
    <path fill="#4F545C" d="M47.857,21.989 L47.857,25.454 C48.1112857,25.3811429 48.3734286,25.3268571 48.642,25.2932857 C49.1405714,20.9975714 52.4112857,17.5411429 56.6148571,16.759 L56.6148571,12.4297143 C56.6148571,11.044 58.1284286,10.0947143 60.1448571,9.60471429 L60.1448571,6.82685714 C58.2684286,8.19471429 54.8212857,8.91614286 51.5112857,8.91614286 C48.2005714,8.91614286 44.7541429,8.19471429 42.8777143,6.82685714 L42.8777143,16.4682857 C42.8777143,16.8625714 42.5584286,17.1825714 42.1634286,17.1825714 L42.1634286,19.5218571 C42.3512857,19.5125714 42.5398571,19.5061429 42.7277143,19.5061429 C45.277,19.5061429 47.857,20.359 47.857,21.989"/>
    <path fill="#36393E" d="M51.5111429 1.4285C46.5697143 1.4285 42.8775714 3.02778571 42.8775714 4.45778571 42.8775714 5.8885 46.5697143 7.48778571 51.5111429 7.48778571 56.4525714 7.48778571 60.1447143 5.8885 60.1447143 4.45778571 60.1447143 3.02778571 56.4525714 1.4285 51.5111429 1.4285M58.0436429 12.4298571C58.0436429 13.1405714 60.2479286 14.2155714 63.5715 14.2155714 66.8943571 14.2155714 69.0993571 13.1405714 69.0993571 12.4298571 69.0993571 11.7191429 66.8943571 10.6441429 63.5715 10.6441429 60.2479286 10.6441429 58.0436429 11.7191429 58.0436429 12.4298571"/>
    <path fill="#4F545C" d="M58.4189286 16.5855L69.0989286 16.5855 69.0989286 14.4526429C67.7610714 15.2383571 65.6610714 15.6440714 63.5710714 15.6440714 61.4817857 15.6440714 59.3825 15.2383571 58.0439286 14.4526429L58.0439286 16.6047857C58.1689286 16.5997857 58.2925 16.5855 58.4189286 16.5855M44.0278571 37.6935L44.0278571 30.5277857C44.0278571 28.6777857 44.985 27.0506429 46.4285714 26.1070714L46.4285714 23.7549286C45.4478571 24.2270714 44.0857143 24.4713571 42.7278571 24.4713571 41.3707143 24.4713571 40.0085714 24.2270714 39.0271429 23.7549286L39.0271429 37.6935 44.0278571 37.6935z"/>
    <path fill="#36393E" d="M39.0271429,21.989 C39.0271429,22.2597143 40.2992857,23.0432857 42.7278571,23.0432857 C45.1564286,23.0432857 46.4285714,22.2597143 46.4285714,21.989 C46.4285714,21.7182857 45.1564286,20.9347143 42.7278571,20.9347143 C40.2992857,20.9347143 39.0271429,21.7182857 39.0271429,21.989"/>
    <path fill="#4F545C" d="M59.9646429,18.0140714 L58.4189286,18.0140714 C54.1803571,18.0140714 50.6732143,21.1655 50.0925,25.2462143 L54.4460714,25.2462143 C54.8753571,21.9869286 57.0310714,19.2533571 59.9646429,18.0140714"/>
    <path fill="#72767D" d="M80.5366429,32.4222143 C80.5366429,31.2157857 81.1359286,30.1493571 82.0445,29.4829286 L79.9273571,29.4829286 C78.3066429,29.4829286 76.9880714,30.8015 76.9880714,32.4222143 L76.9880714,36.3807857 C76.9880714,36.8279286 77.0337857,37.2643571 77.1009286,37.6936429 L80.6430714,37.6936429 C80.5802143,37.2636429 80.5366429,36.8272143 80.5366429,36.3807857 L80.5366429,32.4222143 Z"/>
    <path fill="#72767D" d="M66.9872143,33.8186429 C66.9872143,32.6229286 67.9657857,31.6443571 69.1622143,31.6443571 L69.3793571,31.6443571 C70.5757857,31.6443571 71.5543571,32.6229286 71.5543571,33.8186429 L71.5543571,34.0365 C71.5543571,35.2322143 70.5757857,36.2115 69.3793571,36.2115 L69.1622143,36.2115 C67.9657857,36.2115 66.9872143,35.2322143 66.9872143,34.0365 L66.9872143,33.8186429 Z M45.4565,30.5279286 L45.4565,37.6936429 L48.8386429,37.6936429 C48.8215,37.5729286 48.8022143,37.4529286 48.8022143,37.3279286 L48.8022143,31.0350714 C48.8022143,29.6336429 49.9379286,28.4979286 51.3393571,28.4979286 L54.6886429,28.4979286 C55.2486429,28.4979286 55.7036429,28.9522143 55.7036429,29.5129286 L55.7036429,37.6936429 L59.2857857,37.6936429 L75.6579286,37.6936429 C75.6000714,37.2629286 75.5593571,36.8265 75.5593571,36.3800714 L75.5593571,32.4222143 C75.5593571,30.0136429 77.5193571,28.0543571 79.9279286,28.0543571 L85.4086429,28.0543571 C85.8029286,28.0543571 86.1229286,28.3736429 86.1229286,28.7686429 L90.5572143,28.7686429 C90.5572143,28.3736429 90.8772143,28.0543571 91.2715,28.0543571 L99.6672143,28.0543571 L99.6672143,26.4343571 C99.6672143,21.7915 95.8900714,18.0143571 91.2472143,18.0143571 L59.9643571,18.0143571 C57.0315,19.2529286 54.8750714,21.9872143 54.4465,25.2465 L56.7186429,25.2465 C57.1129286,25.2465 57.4329286,25.5657857 57.4329286,25.9607857 C57.4329286,26.3550714 57.1129286,26.6750714 56.7186429,26.6750714 L49.3093571,26.6750714 C47.1850714,26.6750714 45.4565,28.4029286 45.4565,30.5279286 Z"/>
    <path fill="#4F545C" d="M54.6884286,28.4977857 L51.3398571,28.4977857 C49.9384286,28.4977857 48.802,29.6335 48.802,31.0349286 L48.802,37.3277857 C48.802,37.4527857 48.8212857,37.5735 48.8391429,37.6935 L55.7034286,37.6935 L55.7034286,29.5127857 C55.7034286,28.9520714 55.2491429,28.4977857 54.6884286,28.4977857"/>
    <path fill="#B9BBBE" d="M86.1225714,28.7684286 C86.1225714,29.1627143 85.8025714,29.4827143 85.4082857,29.4827143 L82.0447143,29.4827143 C81.1361429,30.1491429 80.5368571,31.2155714 80.5368571,32.422 L80.5368571,36.3805714 C80.5368571,36.827 80.5804286,37.2634286 80.6432857,37.6934286 L87.6275714,37.6934286 L90.5711429,37.6934286 L102.445429,37.6934286 L103.458286,37.6934286 C103.526143,37.2648571 103.571143,36.8284286 103.571143,36.3805714 L103.571143,32.422 C103.571143,30.8012857 102.252571,29.4827143 100.631857,29.4827143 L91.2711429,29.4827143 C90.8768571,29.4827143 90.5568571,29.1627143 90.5568571,28.7684286 L86.1225714,28.7684286 Z"/>
    <polygon fill="#36393E" points="33.571 60.033 33.571 40.132 13.671 60.033"/>
    <path fill="#4F545C" d="M59.9998571,73.4562857 L59.9998571,78.4077143 L97.1427143,78.4077143 C100.222,78.4077143 102.799857,76.2298571 103.424857,73.3348571 C103.089143,73.3784286 102.750571,73.4077143 102.407714,73.4077143 L75.4491429,73.4077143 C73.1577143,73.4077143 70.9855714,72.4112857 69.492,70.6734286 C67.9977143,68.9355714 67.3377143,66.6398571 67.6805714,64.3734286 L69.6398571,51.4441429 C69.907,49.6848571 71.3912857,48.4077143 73.1705714,48.4077143 L103.571286,48.4077143 L103.571286,44.5055714 C102.211286,44.0412857 101.223429,42.7655714 101.223429,41.2498571 L101.223429,39.122 L92.9641429,39.122 C93.1805714,39.5141429 93.3148571,39.9584286 93.3148571,40.4377143 L93.3148571,41.2498571 C93.3148571,43.1548571 91.7655714,44.7041429 89.8605714,44.7041429 C87.9555714,44.7041429 86.4055714,43.1548571 86.4055714,41.2498571 L86.4055714,39.122 L59.9998571,39.122 L59.9998571,69.9934286 C59.9998571,70.3877143 59.6798571,70.7077143 59.2855714,70.7077143 L59.2855714,72.742 C59.6798571,72.742 59.9998571,73.062 59.9998571,73.4562857"/>
    <path fill="#36393E" d="M39.6427143,43.5895 C39.6427143,43.1952143 39.9627143,42.8752143 40.357,42.8752143 L54.6427143,42.8752143 C55.037,42.8752143 55.357,43.1952143 55.357,43.5895 L55.357,58.2530714 C55.357,62.5852143 51.832,66.1102143 47.4998571,66.1102143 C43.1677143,66.1102143 39.6427143,62.5852143 39.6427143,58.2530714 L39.6427143,43.5895 Z M41.4284286,78.4080714 L58.5712857,78.4080714 L58.5712857,73.4559286 C58.5712857,73.0616429 58.8912857,72.7416429 59.2855714,72.7416429 L59.2855714,70.7073571 C58.8912857,70.7073571 58.5712857,70.3880714 58.5712857,69.9930714 L58.5712857,39.1223571 L57.6634286,39.1223571 L34.9998571,39.1223571 L34.9998571,71.9795 C34.9998571,75.5237857 37.8841429,78.4080714 41.4284286,78.4080714 Z"/>
    <path fill="#4F545C" d="M41.0712857,49.8363571 L41.0712857,58.2527857 C41.0712857,61.7977857 43.9555714,64.6813571 47.4998571,64.6813571 C51.0441429,64.6813571 53.9284286,61.7977857 53.9284286,58.2527857 L53.9284286,49.8363571 L41.0712857,49.8363571 Z"/>
    <polygon fill="#4F545C" points="41.071 48.408 53.929 48.408 53.929 44.304 41.071 44.304"/>
    <path fill="#4F545C" d="M108.7635,64.5877143 L107.2485,54.5891429 L106.494929,58.6248571 C106.179214,60.3148571 104.702786,61.5405714 102.984214,61.5405714 L101.937786,61.5405714 L101.937786,62.2548571 C101.937786,63.8305714 100.656357,65.112 99.0806429,65.112 C97.5056429,65.112 96.2235,63.8305714 96.2235,62.2548571 L96.2235,61.5405714 L90.5092143,61.5405714 L90.5092143,62.2548571 C90.5092143,63.8305714 89.2277857,65.112 87.6520714,65.112 C86.0770714,65.112 84.7949286,63.8305714 84.7949286,62.2548571 L84.7949286,61.5405714 L79.8470714,61.5405714 C77.5806429,61.5405714 75.5927857,60.0105714 75.0135,57.8191429 L72.9085,49.8598571 C71.9613571,49.9748571 71.1992143,50.6912857 71.0527857,51.6584286 L69.0935,64.5877143 C68.8120714,66.4412857 69.3527857,68.3205714 70.5749286,69.742 C71.7977857,71.1641429 73.5742143,71.9791429 75.4492143,71.9791429 L102.407786,71.9791429 C104.282786,71.9791429 106.059214,71.1641429 107.282071,69.742 C108.504214,68.3205714 109.044929,66.4412857 108.7635,64.5877143"/>
    <path fill="#72767D" d="M104.686,49.8363571 L74.3802857,49.8363571 L76.3945714,57.4542143 C76.8081429,59.0192143 78.2281429,60.1120714 79.8474286,60.1120714 L84.7952857,60.1120714 L84.7952857,59.3977857 C84.7952857,57.8227857 86.0767143,56.5406429 87.6524286,56.5406429 C89.2274286,56.5406429 90.5095714,57.8227857 90.5095714,59.3977857 L90.5095714,60.1120714 L96.2238571,60.1120714 L96.2238571,59.3977857 C96.2238571,57.8227857 97.5052857,56.5406429 99.081,56.5406429 C100.656,56.5406429 101.938143,57.8227857 101.938143,59.3977857 L101.938143,60.1120714 L102.983857,60.1120714 C104.015286,60.1120714 104.901,59.3763571 105.090286,58.3627857 L106.441,51.1335 C106.456714,51.0470714 106.492429,50.9692143 106.536,50.8985 C106.163143,50.2549286 105.473857,49.8363571 104.686,49.8363571"/>
    <path fill="#B9BBBE" d="M99.0808571 57.9694286C98.293 57.9694286 97.6522857 58.6101429 97.6522857 59.398L97.6522857 62.2551429C97.6522857 63.043 98.293 63.6837143 99.0808571 63.6837143 99.8687143 63.6837143 100.509429 63.043 100.509429 62.2551429L100.509429 59.398C100.509429 58.6101429 99.8687143 57.9694286 99.0808571 57.9694286M87.6522857 57.9694286C86.8644286 57.9694286 86.2237143 58.6101429 86.2237143 59.398L86.2237143 62.2551429C86.2237143 63.043 86.8644286 63.6837143 87.6522857 63.6837143 88.4401429 63.6837143 89.0808571 63.043 89.0808571 62.2551429L89.0808571 59.398C89.0808571 58.6101429 88.4401429 57.9694286 87.6522857 57.9694286"/>
    <path fill="#72767D" d="M103.571286 39.1220714L102.652 39.1220714 102.652 41.2499286C102.652 42.3663571 103.561286 43.2756429 104.678429 43.2756429L105.388429 43.2756429C106.114143 43.2756429 106.704143 42.6856429 106.704143 41.9599286L106.704143 40.4377857C106.704143 39.7120714 106.114143 39.1220714 105.388429 39.1220714L103.571286 39.1220714zM87.8343571 41.2496429C87.8343571 42.3667857 88.7429286 43.2753571 89.8600714 43.2753571 90.9772143 43.2753571 91.8865 42.3667857 91.8865 41.2496429L91.8865 40.4375C91.8865 39.7125 91.2965 39.1217857 90.5707857 39.1217857L87.8343571 39.1217857 87.8343571 41.2496429z"/>
    <path fill="#202225" d="M69.1621429,36.2112143 L69.3792857,36.2112143 C70.5757143,36.2112143 71.5542857,35.2326429 71.5542857,34.0362143 L71.5542857,33.8183571 C71.5542857,32.6226429 70.5757143,31.6440714 69.3792857,31.6440714 L69.1621429,31.6440714 C67.9657143,31.6440714 66.9871429,32.6226429 66.9871429,33.8183571 L66.9871429,34.0362143 C66.9871429,35.2326429 67.9657143,36.2112143 69.1621429,36.2112143"/>
    <path fill="#202225" d="M97.1427143 78.4077857L63.3505714 78.4077857C61.5005714 78.4077857 59.9998571 76.9070714 59.9998571 75.0570714L59.9998571 73.4563571C59.9998571 73.0620714 59.6798571 72.7420714 59.2855714 72.7420714 58.8912857 72.7420714 58.5712857 73.0620714 58.5712857 73.4563571L58.5712857 75.0570714C58.5712857 76.9070714 57.0712857 78.4077857 55.2205714 78.4077857L41.4284286 78.4077857C37.8784286 78.4077857 34.9998571 75.5299286 34.9998571 71.9792143L34.9998571 44.6992143C34.9998571 41.6192143 37.497 39.1220714 40.577 39.1220714L56.9227143 39.1220714C57.8334286 39.1220714 58.5712857 39.8599286 58.5712857 40.7706429L58.5712857 69.9935C58.5712857 70.3877857 58.8912857 70.7077857 59.2855714 70.7077857 59.6798571 70.7077857 59.9998571 70.3877857 59.9998571 69.9935L59.9998571 40.7706429C59.9998571 39.8599286 60.7377143 39.1220714 61.6484286 39.1220714L84.432 39.1220714C85.522 39.1220714 86.4055714 40.0056429 86.4055714 41.0956429 86.4055714 42.8992143 87.7212857 44.5120714 89.5155714 44.6877857 91.5748571 44.8877857 93.3148571 43.2685 93.3148571 41.2499286L93.3148571 40.4377857C93.3148571 39.9585 93.1805714 39.5142143 92.9641429 39.1220714L99.2498571 39.1220714C100.340571 39.1220714 101.223429 40.0056429 101.223429 41.0956429L101.223429 41.2499286C101.223429 42.7656429 102.211286 44.0413571 103.571286 44.5056429L103.571286 45.6820714C103.571286 47.1877857 102.351286 48.4077857 100.845571 48.4077857L73.1705714 48.4077857C71.4055714 48.4077857 69.9048571 49.6985 69.6398571 51.4442143L67.7098571 64.1799286C67.447 65.9185 67.687 67.7206429 68.5241429 69.2670714 69.9291429 71.8627857 72.5962857 73.4077857 75.4491429 73.4077857 75.4491429 73.4077857 92.4884286 73.3899286 99.972 73.3606429 101.819143 73.3535 102.715571 75.6670714 101.311286 76.8670714 100.189143 77.8277857 98.7327143 78.4077857 97.1427143 78.4077857zM39.027 24.5727857C39.027 24.1906429 39.3962857 23.9270714 39.7605714 24.0449286 40.6348571 24.3270714 41.6827143 24.4713571 42.7277143 24.4713571 43.7734286 24.4713571 44.8212857 24.3270714 45.6955714 24.0449286 46.0591429 23.9270714 46.4284286 24.1913571 46.4284286 24.5735L46.4284286 26.1070714C44.9848571 27.0506429 44.0277143 28.6777857 44.0277143 30.5277857L44.0277143 35.1935C44.0277143 36.5742143 42.9084286 37.6935 41.5277143 37.6935 40.147 37.6935 39.027 36.5742143 39.027 35.1935L39.027 24.5727857zM42.7277143 20.9349286C45.1562857 20.9349286 46.4284286 21.7177857 46.4284286 21.9892143 46.4284286 22.2599286 45.1562857 23.0427857 42.7277143 23.0427857 40.2991429 23.0427857 39.027 22.2599286 39.027 21.9892143 39.027 21.7177857 40.2991429 20.9349286 42.7277143 20.9349286zM91.8862857 40.4377857L91.8862857 41.2499286C91.8862857 42.3663571 90.9777143 43.2756429 89.8605714 43.2756429 88.7434286 43.2756429 87.8341429 42.3663571 87.8341429 41.2499286L87.8341429 39.1220714 90.5705714 39.1220714C91.2962857 39.1220714 91.8862857 39.7120714 91.8862857 40.4377857zM49.3091429 26.6749286L56.7184286 26.6749286C57.1127143 26.6749286 57.4327143 26.3549286 57.4327143 25.9606429 57.4327143 25.5656429 57.1127143 25.2463571 56.7184286 25.2463571L54.4462857 25.2463571 53.1184286 25.2463571C51.4541429 25.2463571 50.3941429 23.4156429 51.2712857 22.0020714 52.7555714 19.6106429 55.402 18.0142143 58.4191429 18.0142143L59.9648571 18.0142143 91.247 18.0142143C95.8977143 18.0142143 99.667 21.7842143 99.667 26.4342143 99.667 27.3285 98.942 28.0542143 98.047 28.0542143L91.2712857 28.0542143C90.877 28.0542143 90.557 28.3742143 90.557 28.7685 90.557 29.1627857 90.877 29.4827857 91.2712857 29.4827857L100.632 29.4827857C102.252714 29.4827857 103.571286 30.8013571 103.571286 32.4220714 103.571286 32.4220714 103.564143 33.1849286 103.551286 34.1327857 103.524857 36.1063571 101.917714 37.6935 99.9434286 37.6935L90.5705714 37.6935 87.6277143 37.6935 80.6427143 37.6935 78.3027143 37.6935C77.577 37.6935 76.9891429 37.1056429 76.9884286 36.3806429L76.9884286 32.4220714C76.9884286 30.7985 78.3041429 29.4827857 79.9277143 29.4827857L82.0441429 29.4827857 85.4084286 29.4827857C85.8027143 29.4827857 86.1227143 29.1627857 86.1227143 28.7685 86.1227143 28.3742143 85.8027143 28.0542143 85.4084286 28.0542143L79.9277143 28.0542143C77.5155714 28.0542143 75.5598571 30.0099286 75.5598571 32.4220714L75.5598571 36.3806429C75.5598571 36.8270714 75.5998571 37.2627857 75.6577143 37.6935L59.2855714 37.6935 55.7034286 37.6935 48.8391429 37.6935 45.4562857 37.6935 45.4562857 30.5277857C45.4562857 28.3999286 47.1812857 26.6749286 49.3091429 26.6749286zM58.0434286 14.4527857C59.382 15.2377857 61.482 15.6442143 63.5712857 15.6442143 65.6605714 15.6442143 67.7605714 15.2377857 69.0991429 14.4527857 69.0991429 15.6313571 68.1462857 16.5870714 66.9677143 16.5885 65.0134286 16.5913571 62.1334286 16.5949286 60.1777143 16.5985 58.9962857 16.6013571 58.0434286 15.6442143 58.0434286 14.4635L58.0434286 14.4527857zM63.5712857 10.6442143C66.8941429 10.6442143 69.0991429 11.7192143 69.0991429 12.4299286 69.0991429 13.1406429 66.8941429 14.2156429 63.5712857 14.2156429 60.2484286 14.2156429 58.0434286 13.1406429 58.0434286 12.4299286 58.0434286 11.7192143 60.2484286 10.6442143 63.5712857 10.6442143zM51.5112857 7.48778571C46.5698571 7.48778571 42.8777143 5.8885 42.8777143 4.45778571 42.8777143 3.02778571 46.5698571 1.4285 51.5112857 1.4285 56.4527143 1.4285 60.1448571 3.02778571 60.1448571 4.45778571 60.1448571 5.8885 56.4527143 7.48778571 51.5112857 7.48778571zM105.388429 39.1220714C106.114143 39.1220714 106.704143 39.7120714 106.704143 40.4377857L106.704143 41.9599286C106.704143 42.6856429 106.114143 43.2756429 105.388429 43.2756429L104.678429 43.2756429C103.561286 43.2756429 102.652 42.3663571 102.652 41.2499286L102.652 39.1220714 103.571286 39.1220714 105.388429 39.1220714zM106.535571 50.8985C106.492714 50.9692143 106.457 51.0470714 106.440571 51.1335L105.090571 58.3627857C104.901286 59.3770714 104.016286 60.1120714 102.984143 60.1120714L101.937714 60.1120714 101.937714 59.5249286C101.937714 58.0342143 100.850571 56.6992143 99.3662857 56.5549286 97.6634286 56.3885 96.2234286 57.7285 96.2234286 59.3977857L96.2234286 60.1120714 90.5091429 60.1120714 90.5091429 59.5249286C90.5091429 58.0342143 89.422 56.6992143 87.9377143 56.5549286 86.2348571 56.3885 84.7948571 57.7285 84.7948571 59.3977857L84.7948571 60.1120714 79.847 60.1120714C78.227 60.1120714 76.8091429 59.0206429 76.3948571 57.4542143L74.8384286 51.5699286C74.607 50.6942143 75.2677143 49.8363571 76.1734286 49.8363571L104.686286 49.8363571C105.474143 49.8363571 106.162714 50.2549286 106.535571 50.8985zM97.652 62.2549286L97.652 59.3977857C97.652 58.6099286 98.2927143 57.9692143 99.0805714 57.9692143 99.8684286 57.9692143 100.509143 58.6099286 100.509143 59.3977857L100.509143 62.2549286C100.509143 63.0427857 99.8684286 63.6835 99.0805714 63.6835 98.2927143 63.6835 97.652 63.0427857 97.652 62.2549286zM86.2234286 62.2549286L86.2234286 59.3977857C86.2234286 58.6099286 86.8641429 57.9692143 87.652 57.9692143 88.4398571 57.9692143 89.0805714 58.6099286 89.0805714 59.3977857L89.0805714 62.2549286C89.0805714 63.0427857 88.4398571 63.6835 87.652 63.6835 86.8641429 63.6835 86.2234286 63.0427857 86.2234286 62.2549286zM107.665571 57.3413571L108.740571 64.4370714C108.931286 65.6927857 108.812 66.9935 108.290571 68.1520714 107.216286 70.5399286 104.898429 71.9792143 102.407714 71.9792143L75.6027143 71.9792143C74.3327143 71.9792143 73.0655714 71.6677857 71.9984286 70.9792143 69.797 69.5592143 68.7198571 67.0513571 69.0934286 64.5877857L71.0527143 51.6585C71.0541429 51.6485 71.0555714 51.6392143 71.057 51.6292143 71.2598571 50.4020714 73.0455714 50.3785 73.3641429 51.5813571L75.0134286 57.8192143C75.5941429 60.0127857 77.5784286 61.5406429 79.8477143 61.5406429L84.7948571 61.5406429 84.7948571 62.1277857C84.7948571 63.6192143 85.8827143 64.9535 87.367 65.0985 89.0698571 65.2649286 90.5091429 63.9249286 90.5091429 62.2549286L90.5091429 61.5406429 96.2234286 61.5406429 96.2234286 62.1277857C96.2234286 63.6192143 97.3112857 64.9535 98.7955714 65.0985 100.498429 65.2649286 101.937714 63.9249286 101.937714 62.2549286L101.937714 61.5406429 102.984143 61.5406429C104.703429 61.5406429 106.179143 60.3156429 106.494857 58.6249286L106.737714 57.3256429C106.834857 56.8042143 107.586286 56.8170714 107.665571 57.3413571zM21.7291429 60.0327857L18.3462857 60.0327857C16.6212857 60.0327857 15.757 57.9463571 16.977 56.7263571L32.2012857 41.5020714C32.707 40.9970714 33.5712857 41.3542143 33.5712857 42.0699286L33.5712857 48.1906429C33.5712857 54.7313571 28.2698571 60.0327857 21.7291429 60.0327857zM33.5712857 67.5842143C33.5712857 68.5199286 32.812 69.2792143 31.8762857 69.2792143L21.192 69.2792143C17.5405714 69.2792143 14.4205714 66.9713571 13.2077143 63.7385 12.7948571 62.6370714 13.6298571 61.4613571 14.8062857 61.4613571L31.8762857 61.4613571C32.812 61.4613571 33.5712857 62.2206429 33.5712857 63.1563571L33.5712857 67.5842143zM129.285571 78.4077857L101.646286 78.4077857C103.408429 77.1692143 104.637714 75.2277857 104.927 72.9920714 106.895571 72.3263571 108.580571 70.8870714 109.532 68.8727857 110.217714 67.4213571 110.389143 65.7785 110.148429 64.1913571L108.217 51.4442143C107.966286 49.7906429 106.635571 48.5777857 104.999857 48.4363571L104.999857 44.7042143 105.388429 44.7042143C106.904857 44.7042143 108.132714 43.4756429 108.132714 41.9599286L108.132714 40.4377857C108.132714 38.9220714 106.904857 37.6935 105.388429 37.6935L104.902 37.6935C104.959857 37.2627857 104.999857 36.8270714 104.999857 36.3806429L104.999857 32.4220714C104.999857 30.1699286 103.287 28.3120714 101.095571 28.0799286L101.095571 26.4342143C101.095571 20.9949286 96.6862857 16.5856429 91.247 16.5856429L72.882 16.5856429C71.582 16.5856429 70.5277143 15.5313571 70.5277143 14.2306429L70.5277143 12.4299286C70.5277143 10.3199286 67.0277143 9.21564286 63.5712857 9.21564286 62.8977143 9.21564286 62.2234286 9.2585 61.5734286 9.34207143L61.5734286 4.45778571C61.5734286 1.56278571 56.3891429-.0000714285716 51.5112857-.0000714285716 46.6334286-.0000714285716 41.4491429 1.56278571 41.4491429 4.45778571L41.4491429 16.4677857C41.4491429 16.8620714 41.7691429 17.1820714 42.1634286 17.1820714 42.5584286 17.1820714 42.8777143 16.8620714 42.8777143 16.4677857L42.8777143 8.00921429C42.8777143 7.51564286 43.3941429 7.18207143 43.8341429 7.40492857 45.797 8.39707143 48.7034286 8.91635714 51.5112857 8.91635714 54.3191429 8.91635714 57.2255714 8.39707143 59.1877143 7.40492857 59.6277143 7.18207143 60.1448571 7.51564286 60.1448571 8.00921429L60.1448571 9.60492857C58.1284286 10.0949286 56.6148571 11.0435 56.6148571 12.4299286L56.6148571 16.7585C52.4112857 17.5413571 49.1405714 20.9970714 48.642 25.2935 48.3734286 25.3270714 48.1112857 25.3813571 47.857 25.4542143L47.857 21.9892143C47.857 20.3592143 45.277 19.5063571 42.7277143 19.5063571 42.5398571 19.5063571 42.3512857 19.5127857 42.1634286 19.5220714 39.812 19.6385 37.5984286 20.4799286 37.5984286 21.9892143L37.5984286 35.5435C37.5984286 36.7306429 36.6362857 37.6935 35.4484286 37.6935L34.2855714 37.6935C34.1905714 37.6935 34.097 37.7127857 34.0105714 37.7492143 33.9241429 37.7849286 33.8455714 37.8377857 33.7805714 37.9027857L11.4412857 60.2420714C11.4412857 60.2427857 11.4405714 60.2427857 11.4405714 60.2435 11.3805714 60.3035 11.337 60.3735 11.3027143 60.4470714 11.2927143 60.4692143 11.287 60.4913571 11.2791429 60.5142143 11.2577143 60.5763571 11.2448571 60.6385 11.2405714 60.7035 11.2398571 60.7185 11.232 60.7313571 11.232 60.7470714L11.232 61.4620714C11.232 66.7327857 15.5134286 70.7077857 21.192 70.7077857L32.2998571 70.7077857C33.002 70.7077857 33.5712857 71.2770714 33.5712857 71.9792143 33.5712857 74.6363571 34.9005714 76.9849286 36.9248571 78.4077857L.714142857 78.4077857C.319857143 78.4077857-.000142857143 78.7277857-.000142857143 79.1220714-.000142857143 79.5163571.319857143 79.8363571.714142857 79.8363571L41.4284286 79.8363571 59.2855714 79.8363571 97.1427143 79.8363571 129.285571 79.8363571C129.679857 79.8363571 129.999857 79.5163571 129.999857 79.1220714 129.999857 78.7277857 129.679857 78.4077857 129.285571 78.4077857zM8.62221429 22.7807143C8.80507143 22.7807143 8.98792857 22.7107143 9.12721429 22.5714286L9.97221429 21.7264286C10.2515 21.4478571 10.2515 20.9957143 9.97221429 20.7164286 9.69364286 20.4378571 9.2415 20.4378571 8.96221429 20.7164286L8.11721429 21.5614286C7.83792857 21.8407143 7.83792857 22.2921429 8.11721429 22.5714286 8.2565 22.7107143 8.43935714 22.7807143 8.62221429 22.7807143M4.3965 27.0071429C4.57935714 27.0071429 4.76221429 26.9371429 4.9015 26.7978571L5.7465 25.9521429C6.02578571 25.6735714 6.02578571 25.2214286 5.7465 24.9421429 5.46792857 24.6635714 5.01507143 24.6635714 4.7365 24.9421429L3.8915 25.7878571C3.61221429 26.0671429 3.61221429 26.5185714 3.8915 26.7978571 4.03078571 26.9371429 4.21364286 27.0071429 4.3965 27.0071429M8.96228571 26.7978571C9.10157143 26.9371429 9.28442857 27.0071429 9.46728571 27.0071429 9.65014286 27.0071429 9.833 26.9371429 9.97228571 26.7978571 10.2515714 26.5185714 10.2515714 26.0671429 9.97228571 25.7878571L9.12728571 24.9421429C8.848 24.6635714 8.39657143 24.6635714 8.11728571 24.9421429 7.838 25.2214286 7.838 25.6735714 8.11728571 25.9521429L8.96228571 26.7978571zM4.73657143 22.5714286C4.87585714 22.7107143 5.05871429 22.7807143 5.24157143 22.7807143 5.42442857 22.7807143 5.60728571 22.7107143 5.74657143 22.5714286 6.02585714 22.2921429 6.02585714 21.8407143 5.74657143 21.5614286L4.90157143 20.7164286C4.62228571 20.4378571 4.17014286 20.4378571 3.89157143 20.7164286 3.61228571 20.9957143 3.61228571 21.4478571 3.89157143 21.7264286L4.73657143 22.5714286zM21.0019286 27.6897143C21.5969286 27.6897143 22.0805 28.1732857 22.0805 28.7682857 22.0805 29.3625714 21.5969286 29.8468571 21.0019286 29.8468571 20.4069286 29.8468571 19.9233571 29.3625714 19.9233571 28.7682857 19.9233571 28.1732857 20.4069286 27.6897143 21.0019286 27.6897143M21.0019286 31.2754286C22.3847857 31.2754286 23.5090714 30.1504286 23.5090714 28.7682857 23.5090714 27.3861429 22.3847857 26.2611429 21.0019286 26.2611429 19.6197857 26.2611429 18.4947857 27.3861429 18.4947857 28.7682857 18.4947857 30.1504286 19.6197857 31.2754286 21.0019286 31.2754286M118.358214 33.5811429L118.7225 33.5811429C119.116786 33.5811429 119.436786 33.9011429 119.436786 34.2954286L119.436786 34.6604286C119.436786 35.0547143 119.756786 35.3747143 120.151071 35.3747143 120.545357 35.3747143 120.865357 35.0547143 120.865357 34.6604286L120.865357 34.2954286C120.865357 33.9011429 121.185357 33.5811429 121.579643 33.5811429L121.943929 33.5811429C122.338214 33.5811429 122.658214 33.2618571 122.658214 32.8668571 122.658214 32.4718571 122.338214 32.1525714 121.943929 32.1525714L121.579643 32.1525714C121.185357 32.1525714 120.865357 31.8325714 120.865357 31.4382857L120.865357 31.074C120.865357 30.6797143 120.545357 30.3597143 120.151071 30.3597143 119.756786 30.3597143 119.436786 30.6797143 119.436786 31.074L119.436786 31.4382857C119.436786 31.8325714 119.116786 32.1525714 118.7225 32.1525714L118.358214 32.1525714C117.963929 32.1525714 117.643929 32.4718571 117.643929 32.8668571 117.643929 33.2618571 117.963929 33.5811429 118.358214 33.5811429"/>
    <path fill="#202225" d="M52.7202857,48.4077857 L42.2795714,48.4077857 C41.6124286,48.4077857 41.071,47.8670714 41.071,47.1999286 L41.071,45.5120714 C41.071,44.8449286 41.6124286,44.3035 42.2795714,44.3035 L52.7202857,44.3035 C53.3874286,44.3035 53.9281429,44.8449286 53.9281429,45.5120714 L53.9281429,47.1999286 C53.9281429,47.8670714 53.3874286,48.4077857 52.7202857,48.4077857 Z M53.9281429,58.2527857 C53.9281429,61.9435 50.8024286,64.9177857 47.0595714,64.6670714 C43.6467143,64.4377857 41.071,61.4463571 41.071,58.0256429 L41.071,52.4677857 C41.071,51.0142143 42.2495714,49.8363571 43.7024286,49.8363571 L51.2974286,49.8363571 C52.7502857,49.8363571 53.9281429,51.0142143 53.9281429,52.4677857 L53.9281429,58.2527857 Z M54.6424286,42.8749286 L40.3567143,42.8749286 C39.9624286,42.8749286 39.6424286,43.1949286 39.6424286,43.5892143 L39.6424286,58.2527857 C39.6424286,62.5856429 43.1674286,66.1099286 47.4995714,66.1099286 C51.8324286,66.1099286 55.3567143,62.5856429 55.3567143,58.2527857 L55.3567143,43.5892143 C55.3567143,43.1949286 55.0374286,42.8749286 54.6424286,42.8749286 Z"/>
  </g>
</svg>
