<svg width="320" height="90" viewBox="0 0 320 90" fill="none" xmlns="http://www.w3.org/2000/svg">
<path d="M7 4.72857e-09H160.29V90H7C5.15383 90.0001 3.38239 89.2708 2.07135 87.971C0.760302 86.6712 0.0158243 84.9061 0 83.06V6.94C0.0158243 5.0939 0.760302 3.3288 2.07135 2.02899C3.38239 0.729188 5.15383 -6.78053e-05 7 4.72857e-09Z" fill="#C9DBF7"/>
<path d="M138.78 57.49C138.71 57.61 138.63 57.73 138.55 57.85C132.28 67.07 125.21 74.48 111.1 80.67C110.294 81.0414 109.422 81.2486 108.534 81.2796C107.647 81.3106 106.763 81.1647 105.933 80.8505C105.103 80.5363 104.343 80.06 103.699 79.4494C103.055 78.8388 102.538 78.1061 102.18 77.294C101.822 76.4819 101.629 75.6066 101.612 74.7191C101.595 73.8316 101.756 72.9497 102.083 72.1247C102.411 71.2997 102.899 70.5482 103.52 69.9138C104.141 69.2795 104.882 68.7751 105.7 68.43C116.97 63.49 122.21 58.06 127.46 50.35C128.448 48.9426 129.939 47.969 131.625 47.6308C133.312 47.2925 135.063 47.6156 136.518 48.533C137.972 49.4504 139.018 50.8919 139.439 52.5593C139.86 54.2266 139.624 55.992 138.78 57.49Z" fill="url(#paint0_linear)"/>
<path d="M50.6 74.89C49.9703 74.8248 49.3455 74.7179 48.73 74.57C48.4816 74.7206 48.2412 74.8842 48.01 75.06C42.7137 79.3425 38.0714 84.3756 34.23 90H48.44L49.7 81.23L50.6 74.89Z" fill="url(#paint1_linear)"/>
<path d="M49.7002 81.23L48.4502 90H111.11L109.26 82.44L106.82 72.46L49.7002 81.23ZM53.5402 74.87C52.5627 74.9699 51.5776 74.9699 50.6002 74.87L49.7002 81.21L106.82 72.44L105.89 68.65C104.893 69.0002 103.86 69.2384 102.81 69.36L53.5402 74.87Z" fill="#6192FF"/>
<path d="M53.5402 74.87C52.5627 74.9699 51.5776 74.9699 50.6002 74.87L49.7002 81.21L106.82 72.44L105.89 68.65C104.893 69.0002 103.86 69.2384 102.81 69.36L53.5402 74.87Z" fill="url(#paint2_linear)"/>
<path d="M102 19.75L100.76 19.89C102.752 20.1718 104.659 20.8773 106.355 21.9589C108.051 23.0405 109.495 24.473 110.59 26.16C113.466 26.4423 116.206 27.523 118.5 29.28C117.424 25.0557 114.859 21.3622 111.276 18.8797C107.693 16.3972 103.333 15.2928 99.0001 15.77L46.1401 21.67L97.2201 16C98.3496 15.8726 99.4839 16.1944 100.378 16.896C101.272 17.5976 101.855 18.6226 102 19.75Z" fill="white"/>
<path d="M112.79 32.2L115.17 53.46C116.396 52.0909 117.438 50.5681 118.27 48.93C118.642 48.1707 118.976 47.393 119.27 46.6C119.39 46.28 119.5 45.95 119.6 45.6V45.45L119.7 45.08C119.849 44.5345 119.962 43.98 120.04 43.42C120.29 41.2 123.71 41.75 123.46 43.96C123.373 44.7516 123.219 45.5344 123 46.3C122.463 48.1257 121.718 49.8838 120.78 51.54C122.158 49.9595 123.198 48.113 123.834 46.1147C124.47 44.1165 124.69 42.0089 124.479 39.9224C124.268 37.836 123.631 35.8149 122.608 33.9844C121.585 32.1538 120.197 30.5527 118.53 29.28C116.236 27.523 113.496 26.4423 110.62 26.16C111.801 27.9781 112.544 30.0458 112.79 32.2ZM35.53 35.76C35.6632 35.75 35.7969 35.75 35.93 35.76C36.639 32.9976 38.1748 30.5175 40.3318 28.6518C42.4889 26.7861 45.1643 25.6236 48 25.32L97.27 19.82C98.4484 19.6977 99.6374 19.7212 100.81 19.89L102.05 19.75C101.905 18.6129 101.316 17.5796 100.41 16.8767C99.5047 16.1737 98.3575 15.8585 97.22 16L46.09 21.67L44.36 21.87C40.4647 22.2921 36.8124 23.9702 33.9549 26.651C31.0973 29.3317 29.1897 32.8695 28.52 36.73C30.5664 35.3671 32.9074 34.5102 35.35 34.23L35.53 35.76Z" fill="white"/>
<path d="M31.0001 51C30.0901 43 32.1101 36.17 35.5001 35.79L35.3201 34.26C31.2767 34.6927 27.5691 36.7092 25.0085 39.8684C22.448 43.0275 21.2427 47.0722 21.6565 51.1177C22.0703 55.1632 24.0695 58.8801 27.2166 61.4554C30.3638 64.0308 34.4028 65.2549 38.4501 64.86C35.1901 64.78 31.9001 58.74 31.0001 51Z" fill="white"/>
<path d="M50.6 74.89C51.5775 74.9899 52.5625 74.9899 53.54 74.89L102.81 69.4C103.86 69.2784 104.893 69.0402 105.89 68.69C108.157 67.8987 110.185 66.5406 111.779 64.7448C113.374 62.949 114.483 60.7751 115 58.43C110 62.61 103.59 64.71 97.11 65.43C96.6674 65.4617 96.2295 65.3221 95.8869 65.0401C95.5443 64.7581 95.3232 64.3552 95.2692 63.9147C95.2153 63.4742 95.3327 63.0299 95.5971 62.6735C95.8615 62.3171 96.2528 62.076 96.69 62C100.827 61.5902 104.855 60.4349 108.58 58.59C111.073 57.2905 113.307 55.545 115.17 53.44L112.79 32.2C112.435 29.1091 111.064 26.2234 108.892 23.9955C106.721 21.7676 103.871 20.3236 100.79 19.89C99.6174 19.7212 98.4284 19.6977 97.25 19.82L48 25.32C45.1755 25.6378 42.5145 26.8077 40.371 28.6744C38.2275 30.541 36.7029 33.0159 36 35.77C39.26 35.9 42.5 41.9 43.36 49.6C44.26 57.6 42.25 64.43 38.86 64.81H38.54C39.2351 67.1946 40.5499 69.3524 42.3505 71.0634C44.151 72.7744 46.373 73.9774 48.79 74.55C49.3854 74.7021 49.99 74.8156 50.6 74.89ZM86.52 59.51L72.24 61.1C69.0836 61.4485 65.9178 60.5317 63.4361 58.5505C60.9544 56.5693 59.3592 53.6852 59 50.53L57.88 40.53C57.8106 39.9384 57.8593 39.339 58.0233 38.7664C58.1873 38.1938 58.4633 37.6594 58.8354 37.1943C59.2075 36.7292 59.6682 36.3426 60.1908 36.0569C60.7135 35.7712 61.2876 35.5921 61.88 35.53L90.18 32.37C90.7716 32.3006 91.371 32.3493 91.9436 32.5133C92.5162 32.6773 93.0506 32.9533 93.5157 33.3254C93.9808 33.6975 94.3674 34.1582 94.6531 34.6808C94.9388 35.2035 95.1179 35.7776 95.18 36.37L96.4 47.24C96.565 48.6957 96.4396 50.1697 96.0312 51.5767C95.6228 52.9837 94.9393 54.2957 94.0205 55.4368C93.1017 56.5779 91.9657 57.5254 90.6782 58.2246C89.3907 58.9237 87.9774 59.3606 86.52 59.51ZM104.77 44.68C103.944 44.769 103.11 44.6116 102.373 44.2276C101.637 43.8436 101.03 43.2502 100.63 42.5222C100.23 41.7941 100.054 40.9639 100.124 40.1361C100.195 39.3083 100.509 38.52 101.027 37.8703C101.545 37.2206 102.243 36.7386 103.034 36.4851C103.825 36.2315 104.674 36.2177 105.473 36.4454C106.272 36.6731 106.986 37.1321 107.524 37.7647C108.063 38.3972 108.402 39.1749 108.5 40C108.564 40.5525 108.518 41.1121 108.365 41.6468C108.212 42.1815 107.955 42.6806 107.608 43.1156C107.261 43.5505 106.832 43.9126 106.345 44.1811C105.858 44.4496 105.323 44.6191 104.77 44.68ZM45.87 47.38C45.7742 46.5502 45.9268 45.7106 46.3085 44.9676C46.6903 44.2246 47.2839 43.6116 48.0143 43.2062C48.7447 42.8008 49.5789 42.6214 50.4114 42.6905C51.2439 42.7596 52.0371 43.0743 52.6906 43.5945C53.3441 44.1148 53.8285 44.8174 54.0824 45.6131C54.3364 46.4089 54.3484 47.2622 54.1171 48.0648C53.8857 48.8675 53.4213 49.5834 52.7828 50.122C52.1442 50.6605 51.3602 50.9974 50.53 51.09C49.9804 51.1526 49.4238 51.1063 48.8921 50.9537C48.3604 50.8012 47.8639 50.5453 47.4312 50.2007C46.9984 49.8562 46.6377 49.4297 46.3699 48.9457C46.102 48.4617 45.9321 47.9297 45.87 47.38Z" fill="#6A94FF"/>
<path d="M95.1002 36.41C95.0381 35.8176 94.859 35.2435 94.5733 34.7208C94.2876 34.1982 93.901 33.7375 93.4359 33.3654C92.9708 32.9933 92.4364 32.7173 91.8638 32.5533C91.2912 32.3893 90.6918 32.3406 90.1002 32.41L61.8002 35.57C61.2078 35.6321 60.6337 35.8112 60.1111 36.0969C59.5884 36.3826 59.1277 36.7692 58.7556 37.2343C58.3835 37.6994 58.1075 38.2338 57.9435 38.8064C57.7795 39.379 57.7308 39.9784 57.8002 40.57L58.9202 50.57C59.1026 52.1363 59.5919 53.6514 60.3602 55.0285C61.1285 56.4056 62.1607 57.6178 63.3977 58.5957C64.6348 59.5737 66.0525 60.2982 67.5697 60.7279C69.087 61.1576 70.6741 61.284 72.2402 61.1L86.5202 59.51C87.9668 59.3507 89.3679 58.9079 90.6433 58.207C91.9188 57.5061 93.0436 56.5608 93.9537 55.4251C94.8638 54.2894 95.5412 52.9855 95.9472 51.588C96.3533 50.1904 96.48 48.7265 96.3202 47.28L95.1002 36.41ZM77.7202 53.67L71.5702 54.34C71.3086 54.3841 71.0407 54.3743 70.783 54.3113C70.5252 54.2483 70.2831 54.1334 70.0713 53.9735C69.8595 53.8137 69.6826 53.6123 69.5514 53.3817C69.4201 53.1511 69.3373 52.8962 69.308 52.6325C69.2787 52.3688 69.3036 52.1019 69.381 51.8481C69.4584 51.5943 69.5868 51.359 69.7583 51.1566C69.9298 50.9541 70.1409 50.7888 70.3785 50.6708C70.6161 50.5527 70.8753 50.4844 71.1402 50.47L76.5702 49.87C77.0808 49.8239 77.5896 49.9756 77.9916 50.2938C78.3935 50.612 78.658 51.0724 78.7302 51.58C78.8502 52.65 78.7802 53.55 77.7202 53.67ZM89.1302 52.57L85.2502 53C84.9886 53.0441 84.7207 53.0343 84.463 52.9713C84.2052 52.9083 83.9631 52.7934 83.7513 52.6335C83.5395 52.4737 83.3626 52.2723 83.2314 52.0417C83.1001 51.8111 83.0173 51.5562 82.988 51.2925C82.9587 51.0288 82.9836 50.7619 83.061 50.5081C83.1384 50.2543 83.2668 50.019 83.4383 49.8166C83.6098 49.6141 83.8209 49.4488 84.0585 49.3308C84.2961 49.2127 84.5553 49.1444 84.8202 49.13L88.7002 48.69C88.9837 48.5928 89.2854 48.5606 89.583 48.5957C89.8807 48.6309 90.1666 48.7324 90.4197 48.8929C90.6728 49.0534 90.8866 49.2687 91.0452 49.5229C91.2039 49.7772 91.3035 50.0638 91.3365 50.3617C91.3695 50.6595 91.3351 50.961 91.236 51.2438C91.1368 51.5266 90.9753 51.7835 90.7635 51.9955C90.5517 52.2075 90.295 52.3692 90.0123 52.4687C89.7295 52.5681 89.4281 52.6027 89.1302 52.57Z" fill="#A2C6FF"/>
<path d="M103.83 36.31C103.003 36.4067 102.223 36.7465 101.589 37.2865C100.955 37.8265 100.495 38.5423 100.268 39.3436C100.041 40.1448 100.057 40.9954 100.313 41.7877C100.57 42.58 101.055 43.2785 101.709 43.7948C102.362 44.3111 103.154 44.622 103.984 44.6882C104.814 44.7544 105.645 44.5729 106.372 44.1667C107.099 43.7605 107.689 43.1478 108.068 42.4061C108.447 41.6644 108.597 40.8271 108.5 40C108.37 38.8915 107.804 37.8802 106.929 37.1883C106.053 36.4963 104.938 36.1804 103.83 36.31ZM50.5299 51.09C51.3571 50.9957 52.1377 50.6584 52.7731 50.1205C53.4086 49.5827 53.8703 48.8685 54.0999 48.0683C54.3296 47.2681 54.3168 46.4178 54.0633 45.6249C53.8097 44.8319 53.3268 44.1319 52.6755 43.6134C52.0242 43.0949 51.2338 42.7811 50.4042 42.7117C49.5746 42.6423 48.743 42.8205 48.0146 43.2236C47.2862 43.6267 46.6937 44.2367 46.312 44.9766C45.9302 45.7164 45.7764 46.5528 45.8699 47.38C45.9308 47.9302 46.0998 48.4629 46.3673 48.9476C46.6348 49.4322 46.9954 49.8592 47.4285 50.204C47.8615 50.5488 48.3585 50.8045 48.8907 50.9566C49.423 51.1086 49.9801 51.154 50.5299 51.09Z" fill="#202225"/>
<path d="M88.7 48.69L84.82 49.13C84.5551 49.1444 84.2959 49.2127 84.0583 49.3308C83.8206 49.4488 83.6096 49.6141 83.4381 49.8166C83.2666 50.019 83.1382 50.2543 83.0608 50.5081C82.9834 50.7619 82.9585 51.0288 82.9878 51.2925C83.0171 51.5562 83.0999 51.8111 83.2312 52.0417C83.3624 52.2723 83.5393 52.4737 83.7511 52.6335C83.9629 52.7934 84.205 52.9083 84.4628 52.9713C84.7205 53.0343 84.9884 53.0441 85.25 53L89.13 52.57C89.4279 52.6027 89.7293 52.5681 90.012 52.4687C90.2948 52.3692 90.5515 52.2075 90.7633 51.9955C90.9751 51.7835 91.1366 51.5266 91.2358 51.2438C91.3349 50.961 91.3693 50.6595 91.3363 50.3617C91.3033 50.0638 91.2037 49.7772 91.045 49.5229C90.8864 49.2687 90.6726 49.0534 90.4195 48.8929C90.1664 48.7324 89.8805 48.6309 89.5828 48.5958C89.2852 48.5606 88.9835 48.5928 88.7 48.69ZM76.57 49.87L71.14 50.47C70.8751 50.4844 70.6159 50.5527 70.3783 50.6708C70.1406 50.7888 69.9296 50.9541 69.7581 51.1566C69.5866 51.359 69.4582 51.5943 69.3808 51.8481C69.3034 52.1019 69.2785 52.3688 69.3078 52.6325C69.3371 52.8962 69.4199 53.1511 69.5512 53.3817C69.6824 53.6123 69.8593 53.8137 70.0711 53.9735C70.2829 54.1334 70.525 54.2483 70.7828 54.3113C71.0405 54.3743 71.3084 54.3841 71.57 54.34L77.72 53.67C78.78 53.55 78.85 52.67 78.72 51.58C78.6478 51.0743 78.3848 50.6154 77.985 50.2975C77.5853 49.9795 77.079 49.8266 76.57 49.87Z" fill="#6A94FF"/>
<path d="M123.51 44C123.76 41.79 120.34 41.24 120.09 43.46C120.012 44.02 119.899 44.5745 119.75 45.12L119.65 45.49V45.64C119.55 45.97 119.44 46.3 119.32 46.64C119.026 47.433 118.692 48.2107 118.32 48.97C117.488 50.6081 116.445 52.1309 115.22 53.5C113.356 55.605 111.123 57.3505 108.63 58.65C104.885 60.4799 100.84 61.615 96.6899 62C96.464 62.0256 96.2454 62.0955 96.0465 62.2055C95.8477 62.3156 95.6724 62.4638 95.5308 62.6417C95.3892 62.8195 95.284 63.0235 95.2212 63.2419C95.1584 63.4604 95.1393 63.6891 95.1649 63.915C95.1905 64.1409 95.2604 64.3595 95.3705 64.5584C95.4806 64.7572 95.6288 64.9325 95.8066 65.0741C95.9844 65.2157 96.1884 65.3209 96.4069 65.3837C96.6253 65.4465 96.854 65.4656 97.0799 65.44C103.56 64.69 109.94 62.59 114.97 58.44C115.51 58.0138 116.027 57.5599 116.52 57.08C119.569 54.1018 121.8 50.3896 123 46.3C123.234 45.5489 123.404 44.7795 123.51 44ZM35.5299 35.76C32.1399 36.14 30.1199 43 30.9999 51C31.8699 58.77 35.1599 64.81 38.4399 64.84H38.7599C42.1499 64.46 44.1599 57.65 43.2599 49.63C42.3999 41.93 39.1599 35.93 35.8999 35.8C35.7668 35.79 35.6331 35.79 35.4999 35.8L35.5299 35.76Z" fill="white"/>
<path d="M159.71 4.72857e-09H313C314.846 -6.78053e-05 316.618 0.729188 317.929 2.02899C319.24 3.3288 319.984 5.0939 320 6.94V83.06C319.984 84.9061 319.24 86.6712 317.929 87.971C316.618 89.2708 314.846 90.0001 313 90H159.71V4.72857e-09Z" fill="#D954E6"/>
<path d="M229.73 63.66H251.94C252.569 63.6613 253.192 63.5387 253.774 63.2992C254.356 63.0597 254.884 62.708 255.33 62.2641C255.776 61.8203 256.13 61.2929 256.372 60.7123C256.614 60.1316 256.739 59.509 256.74 58.88V53.18L262.87 56.18C263.202 56.346 263.569 56.4316 263.94 56.43C264.384 56.4302 264.82 56.3091 265.2 56.08C265.542 55.8689 265.826 55.5751 266.025 55.2256C266.225 54.8761 266.333 54.4822 266.34 54.08V39.73C266.339 39.3219 266.233 38.9209 266.034 38.5649C265.834 38.209 265.547 37.9097 265.2 37.6955C264.853 37.4813 264.456 37.3592 264.049 37.3407C263.641 37.3223 263.235 37.4081 262.87 37.59L256.74 40.65V36.72L229.73 63.66ZM243 30.16H223.14C221.87 30.1626 220.652 30.6678 219.752 31.5653C218.853 32.4627 218.345 33.6795 218.34 34.95V54.71L243 30.16ZM213.54 66L257.66 22L261.06 25.38L216.94 69.38L213.54 66Z" fill="white"/>
<defs>
<linearGradient id="paint0_linear" x1="89.2599" y1="83.51" x2="132.26" y2="57.74" gradientUnits="userSpaceOnUse">
<stop stop-color="#316EE5"/>
<stop offset="0.64" stop-color="#5989F7"/>
<stop offset="1" stop-color="#6A94FF"/>
</linearGradient>
<linearGradient id="paint1_linear" x1="1109.58" y1="1099.74" x2="648.212" y2="1548.64" gradientUnits="userSpaceOnUse">
<stop stop-color="#316EE5"/>
<stop offset="0.64" stop-color="#5989F7"/>
<stop offset="1" stop-color="#6A94FF"/>
</linearGradient>
<linearGradient id="paint2_linear" x1="3315.82" y1="1117.28" x2="4036.43" y2="-376.484" gradientUnits="userSpaceOnUse">
<stop stop-color="#316EE5"/>
<stop offset="0.64" stop-color="#5989F7"/>
<stop offset="1" stop-color="#6A94FF"/>
</linearGradient>
</defs>
</svg>
