<svg xmlns="http://www.w3.org/2000/svg" width="40" height="26" fill="none" viewBox="0 0 40 26">
  <path fill="#fff" d="M0 0h40v26H0z" />
  <path
    fill="#00AED6"
    d="M5.93 9.22a3.96 3.96 0 013.93 3.99c0 2.2-1.76 3.99-3.93 3.99A3.96 3.96 0 012 13.21c0-2.2 1.76-3.99 3.93-3.99z" />
  <path
    fill="#fff"
    fill-rule="evenodd"
    d="M8.22 13.09a.92.92 0 00-.96-.88H4.78a.16.16 0 01-.16-.16c0-.1.07-.17.16-.17H7.3a.8.8 0 00-.58-.73 6.27 6.27 0 00-2.21 0c-.42.1-.73.45-.79.89a8.04 8.04 0 000 2.36c.1.45.45.8.9.89.9.11 1.83.11 2.74 0a1 1 0 00.76-.84c.08-.45.11-.9.1-1.36zm-.82.55v.15c0 .1-.07.17-.16.17a.16.16 0 01-.16-.17v-.15a.25.25 0 01-.09-.18.25.25 0 11.5 0c0 .07-.03.14-.09.18z"
    clip-rule="evenodd" />
  <path
    fill="#00AED6"
    d="M5.93 9.22a3.96 3.96 0 013.93 3.99c0 2.2-1.76 3.99-3.93 3.99A3.96 3.96 0 012 13.21c0-2.2 1.76-3.99 3.93-3.99z" />
  <path
    fill="#fff"
    fill-rule="evenodd"
    d="M8.22 13.09a.92.92 0 00-.96-.88H4.78a.16.16 0 01-.16-.16c0-.1.07-.17.16-.17H7.3a.8.8 0 00-.58-.73 6.27 6.27 0 00-2.21 0c-.42.1-.73.45-.79.89a8.04 8.04 0 000 2.36c.1.45.45.8.9.89.9.11 1.83.11 2.74 0a1 1 0 00.76-.84c.08-.45.11-.9.1-1.36zm-.82.55v.15c0 .1-.07.17-.16.17a.16.16 0 01-.16-.17v-.15a.25.25 0 01-.09-.18.25.25 0 11.5 0c0 .07-.03.14-.09.18z"
    clip-rule="evenodd" />
  <path
    fill="#000"
    d="M12.96 15.2c.34.48.9.75 1.47.72.69 0 1.19-.44 1.19-1.04v-.32h-.02c-.37.37-.88.57-1.4.54a2.3 2.3 0 01-2.36-2.26 2.3 2.3 0 012.31-2.38 1.9 1.9 0 011.45.52h.02v-.44h1.17v4.32c0 1.26-.98 2.13-2.36 2.13a2.8 2.8 0 01-2.34-1.06l.87-.73zm2.61-2.7c0-.5-.56-.96-1.19-.96-.79 0-1.32.5-1.32 1.22A1.17 1.17 0 0014.33 14c.69 0 1.24-.44 1.24-.98v-.52zm4.29-2.09c1.43 0 2.47 1.03 2.47 2.35 0 1.31-1.04 2.34-2.47 2.34a2.33 2.33 0 01-2.46-2.19 2.34 2.34 0 012.46-2.5zm0 1.1c-.68 0-1.23.56-1.23 1.26s.56 1.25 1.25 1.25a1.26 1.26 0 001.23-1.26 1.2 1.2 0 00-1.25-1.26zm3.13-.97h1.17v.4h.02c.38-.36.89-.55 1.4-.53 1.28.03 2.3 1.1 2.27 2.4a2.33 2.33 0 01-2.26 2.3 2.1 2.1 0 01-1.36-.47h-.02v2.22h-1.22v-6.32zm2.4.97c-.64 0-1.18.46-1.18.96v.57c0 .53.53.98 1.2.98.68 0 1.23-.57 1.22-1.26 0-.7-.55-1.25-1.23-1.25zm4.77.82c.8-.1 1.03-.22 1.03-.45 0-.3-.3-.47-.77-.47-.5-.04-.97.3-1.09.8l-1.15-.25c.16-.9 1.08-1.55 2.2-1.55 1.28 0 2.08.67 2.08 1.75v2.82h-1.1v-.49h-.02a1.8 1.8 0 01-1.47.61c-.97 0-1.64-.53-1.64-1.32 0-.83.55-1.26 1.93-1.45zm1.13.47h-.01c-.11.16-.34.25-.93.36-.72.13-.98.28-.98.54 0 .27.22.38.68.38.7 0 1.24-.32 1.24-.75v-.53zm3.38 1.94l-2.02-4.2h1.34l1.33 2.9h.02l1.3-2.9H38l-3.03 6.32h-1.34l1.04-2.12z" />
</svg>
