<svg width="168" height="156" viewBox="0 0 168 156" fill="none" xmlns="http://www.w3.org/2000/svg">
  <g clip-path="url(#clip0_493_15798)">
    <path
      d="M110.555 98.8556L116.116 100.288C117.531 100.733 118.998 100.987 120.478 101.043C122.295 101.09 124.095 100.699 125.731 99.9028C127.367 99.107 128.791 97.9295 129.884 96.4681C130.039 96.225 130.246 96.0166 130.375 95.7648L130.815 95.0269C130.936 94.7664 131.048 94.5059 131.177 94.2542C131.246 94.1273 131.301 93.9934 131.341 93.8548L131.479 93.4554L135.195 82.8201C135.931 80.7098 137.469 78.9804 139.472 78.0125C141.474 77.0445 143.776 76.9173 145.872 77.6587C147.967 78.4001 149.685 79.9495 150.646 81.966C151.607 83.9825 151.733 86.3009 150.997 88.4112C150.892 88.7069 150.771 88.9967 150.635 89.2794L148.135 94.4886L146.885 97.0932L146.256 98.3954L145.945 99.0466L145.488 99.9148L145.014 100.783C144.866 101.085 144.696 101.375 144.505 101.651C144.143 102.224 143.773 102.797 143.402 103.388C143.031 103.978 142.54 104.464 142.143 104.985C141.747 105.506 141.238 105.983 140.781 106.478C138.902 108.377 136.748 109.978 134.393 111.227C129.722 113.657 124.417 114.568 119.211 113.832C118.573 113.771 117.944 113.597 117.314 113.476C117.004 113.406 116.685 113.354 116.375 113.268L115.461 112.99C114.107 112.582 113.366 112.252 112.443 111.913L107.081 109.856C105.728 109.314 104.628 108.277 104.003 106.953C103.377 105.629 103.272 104.116 103.708 102.717C104.145 101.318 105.091 100.137 106.356 99.411C107.621 98.6852 109.112 98.4682 110.53 98.8035L110.555 98.8556Z"
      fill="url(#paint0_linear_493_15798)" />
    <mask id="mask0_493_15798" style="mask-type:alpha" maskUnits="userSpaceOnUse" x="103" y="77" width="49" height="38">
      <path
        d="M110.555 98.8556L116.116 100.288C117.531 100.733 118.998 100.987 120.478 101.043C122.295 101.09 124.095 100.699 125.731 99.9028C127.367 99.107 128.791 97.9295 129.884 96.4681C130.039 96.225 130.246 96.0166 130.375 95.7648L130.815 95.0269C130.936 94.7664 131.048 94.5059 131.177 94.2542C131.246 94.1273 131.301 93.9934 131.341 93.8548L131.479 93.4554L135.195 82.8201C135.931 80.7098 137.469 78.9804 139.472 78.0125C141.474 77.0445 143.776 76.9173 145.872 77.6587C147.967 78.4001 149.685 79.9495 150.646 81.966C151.607 83.9825 151.733 86.3009 150.997 88.4112C150.892 88.7069 150.771 88.9967 150.635 89.2794L148.135 94.4886L146.885 97.0932L146.256 98.3954L145.945 99.0466L145.488 99.9148L145.014 100.783C144.866 101.085 144.696 101.375 144.505 101.651C144.143 102.224 143.773 102.797 143.402 103.388C143.031 103.978 142.54 104.464 142.143 104.985C141.747 105.506 141.238 105.983 140.781 106.478C138.902 108.377 136.748 109.978 134.393 111.227C129.722 113.657 124.417 114.568 119.211 113.832C118.573 113.771 117.944 113.597 117.314 113.476C117.004 113.406 116.685 113.354 116.375 113.268L115.461 112.99C114.107 112.582 113.366 112.252 112.443 111.913L107.081 109.856C105.728 109.314 104.628 108.277 104.003 106.953C103.377 105.629 103.272 104.116 103.708 102.717C104.145 101.318 105.091 100.137 106.356 99.411C107.621 98.6852 109.112 98.4682 110.53 98.8035L110.555 98.8556Z"
        fill="url(#paint1_linear_493_15798)" />
    </mask>
    <g mask="url(#mask0_493_15798)">
      <path
        d="M128.548 114.978C128.29 114.98 128.04 114.891 127.841 114.726C125.485 112.701 123.571 110.205 122.221 107.397C120.87 104.59 120.113 101.53 119.995 98.4128C119.988 98.121 120.096 97.8381 120.294 97.6253C120.493 97.4125 120.766 97.2868 121.056 97.2755V97.2755C121.34 97.2775 121.612 97.3896 121.816 97.5885C122.02 97.7874 122.14 98.0577 122.151 98.3434C122.254 101.152 122.935 103.908 124.152 106.437C125.369 108.965 127.095 111.212 129.22 113.033C129.44 113.223 129.577 113.493 129.601 113.784C129.625 114.074 129.535 114.363 129.349 114.587C129.251 114.706 129.128 114.802 128.99 114.869C128.852 114.936 128.701 114.974 128.548 114.978V114.978Z"
        fill="#3F99F2" />
      <path
        d="M144.031 106.73C140.393 106.702 136.819 105.76 133.633 103.989C130.448 102.218 127.752 99.675 125.789 96.5896C125.645 96.3423 125.603 96.0486 125.671 95.7705C125.739 95.4925 125.911 95.2519 126.152 95.0996C126.393 94.9474 126.683 94.8954 126.961 94.9547C127.239 95.014 127.484 95.18 127.642 95.4175C129.458 98.2724 131.972 100.609 134.944 102.202C137.915 103.796 141.243 104.593 144.609 104.516C144.899 104.506 145.182 104.612 145.394 104.811C145.607 105.011 145.732 105.287 145.743 105.58C145.753 105.872 145.647 106.157 145.449 106.371C145.251 106.585 144.977 106.711 144.686 106.721L144.031 106.73Z"
        fill="#3F99F2" />
      <path
        d="M150.721 90.8944C144.482 90.8941 138.313 89.5688 132.617 87.0049C132.381 86.8717 132.202 86.655 132.115 86.3967C132.028 86.1385 132.039 85.857 132.147 85.6066C132.254 85.3562 132.449 85.1547 132.695 85.0409C132.941 84.9272 133.221 84.9093 133.479 84.9907C141.256 88.4997 149.909 89.5472 158.291 87.9947C158.566 87.9619 158.843 88.0356 159.067 88.2009C159.291 88.3662 159.444 88.6107 159.495 88.8851C159.546 89.1596 159.493 89.4435 159.344 89.6794C159.196 89.9154 158.964 90.0859 158.696 90.1565C156.066 90.6497 153.396 90.8967 150.721 90.8944V90.8944Z"
        fill="#3F99F2" />
    </g>
    <path
      d="M96.6841 28.2022L71.0535 30.6592L71.769 26.1359C72.1225 23.9307 74.8123 22.0902 78.2263 21.795L87.9595 20.8573C91.408 20.5361 94.365 21.8297 95.1237 23.9307L96.6841 28.2022Z"
      fill="url(#paint2_linear_493_15798)" />
    <path
      d="M133.746 51.409L134.453 58.8754C134.678 61.136 134.121 63.4054 132.876 65.3C132.133 66.4887 131.136 67.4954 129.958 68.2464C128.78 68.9974 127.45 69.4739 126.065 69.641C120.289 70.1966 115.021 64.5534 114.306 57.0262C113.59 49.499 117.702 42.9702 123.487 42.4232C124.88 42.3254 126.276 42.5429 127.574 43.0597C128.872 43.5765 130.038 44.3795 130.988 45.4098C132.569 47.0279 133.544 49.148 133.746 51.409V51.409Z"
      fill="url(#paint3_linear_493_15798)" />
    <path
      d="M132.151 48.7088C131.291 47.2204 130.213 45.8711 128.953 44.7065C128.739 44.5135 128.489 44.3659 128.217 44.2725C127.945 44.1791 127.657 44.1419 127.371 44.1629C127.084 44.184 126.805 44.263 126.549 44.3952C126.294 44.5273 126.068 44.71 125.884 44.9322C125.733 45.1178 125.628 45.3368 125.577 45.5713C125.526 45.8057 125.531 46.0489 125.592 46.281C125.652 46.5131 125.767 46.7274 125.925 46.9064C126.084 47.0855 126.282 47.2241 126.504 47.311C128.087 47.9117 129.574 48.7424 130.918 49.7767C131.08 49.8984 131.28 49.9589 131.481 49.9478C131.683 49.9367 131.874 49.8546 132.022 49.7159V49.7159C132.146 49.583 132.225 49.4142 132.248 49.2334C132.271 49.0527 132.237 48.8691 132.151 48.7088V48.7088Z"
      fill="url(#paint4_linear_493_15798)" />
    <path
      d="M39 60.5076L39.707 67.974C39.9004 70.2382 40.8731 72.3633 42.4571 73.9819C43.4065 75.0122 44.573 75.8152 45.8709 76.332C47.1688 76.8488 48.5652 77.0663 49.9575 76.9685C55.7423 76.4128 59.8459 69.8667 59.139 62.3395C58.4321 54.8122 53.1559 49.169 47.3798 49.7246C45.9952 49.8918 44.6651 50.3682 43.4868 51.1193C42.3085 51.8703 41.3116 52.8769 40.5691 54.0656C39.3186 55.9641 38.7638 58.2419 39 60.5076V60.5076Z"
      fill="url(#paint5_linear_493_15798)" />
    <path
      d="M40.0173 57.5471C40.581 55.9218 41.3893 54.3933 42.414 53.0151C42.5854 52.7836 42.8018 52.5897 43.05 52.4451C43.2982 52.3006 43.5731 52.2084 43.8578 52.1743C44.1425 52.1402 44.4312 52.1648 44.7062 52.2467C44.9812 52.3286 45.2367 52.466 45.4572 52.6505V52.6505C45.6396 52.8045 45.7835 52.9994 45.8772 53.2197C45.9709 53.44 46.0119 53.6794 45.9968 53.9185C45.9817 54.1577 45.9109 54.3899 45.7902 54.5965C45.6696 54.803 45.5023 54.9781 45.3021 55.1075C43.8604 55.9994 42.5562 57.0992 41.4312 58.3719C41.2942 58.5239 41.1083 58.6221 40.9062 58.6491C40.7042 58.6761 40.4993 58.6302 40.3277 58.5195V58.5195C40.1805 58.4112 40.0712 58.2588 40.0155 58.0841C39.9597 57.9094 39.9604 57.7214 40.0173 57.5471Z"
      fill="url(#paint6_linear_493_15798)" />
    <path
      d="M126.729 38.308C126.069 35.5146 124.645 32.9633 122.618 30.9438C120.592 28.9242 118.043 27.5173 115.263 26.8826C94.2654 22.0075 72.2651 24.1091 52.5526 32.8731C49.944 34.0344 47.7103 35.908 46.1044 38.2816C44.4985 40.6553 43.5845 43.4343 43.4659 46.304C43.2762 51.042 43.4058 55.7874 43.8538 60.5077C44.2861 65.2338 45.0408 69.9245 46.1126 74.5463C46.7735 77.34 48.1978 79.8916 50.2242 81.9123C52.2506 83.9331 54.7982 85.3422 57.5787 85.9804C68.0138 88.3946 78.7659 89.1069 89.4252 88.0901C100.077 87.063 110.497 84.3254 120.289 79.9812C122.907 78.8287 125.152 76.9585 126.766 74.5838C128.38 72.2092 129.299 69.4255 129.419 66.5503C129.616 61.8126 129.489 57.0668 129.039 52.3467C128.585 47.6199 127.813 42.9295 126.729 38.308V38.308Z"
      fill="url(#paint7_linear_493_15798)" />
    <g opacity="0.67">
      <path
        d="M77.0105 27.716L76.4157 27.8983L75.8122 28.072L74.6225 28.4192L72.2344 29.0877L71.0533 29.4003L69.8636 29.7389C69.467 29.8604 69.0705 29.9646 68.6739 30.0775L67.4842 30.4248L66.3031 30.7633L65.1047 31.1367L63.9236 31.4839L62.7339 31.8399L60.3631 32.5431L59.1734 32.8731L58.5785 33.0554L57.9751 33.2116C57.9162 33.2286 57.8545 33.2336 57.7937 33.2261C57.7329 33.2186 57.6742 33.1989 57.6212 33.1681C57.5681 33.1373 57.5217 33.0961 57.4847 33.0469C57.4478 32.9977 57.421 32.9415 57.4061 32.8817C57.3833 32.78 57.3937 32.6736 57.4356 32.5782C57.4775 32.4829 57.5488 32.4036 57.6388 32.3521C58.3889 31.9701 59.1562 31.6315 59.9148 31.2843L61.0787 30.7981L62.2425 30.3379C63.027 30.0428 63.8202 29.7736 64.6133 29.4697C65.4065 29.1659 66.2169 28.9662 67.0186 28.7318C67.8204 28.4974 68.6308 28.2977 69.4498 28.1067C70.2688 27.9157 71.0533 27.7768 71.9154 27.6639L73.1483 27.4382L74.3897 27.2472C75.2518 27.143 76.045 27.0301 76.8812 26.9694C76.934 26.9646 76.9872 26.9706 77.0377 26.9869C77.0881 27.0032 77.1348 27.0295 77.175 27.0643C77.2152 27.0991 77.248 27.1417 77.2716 27.1895C77.2952 27.2373 77.309 27.2894 77.3123 27.3427C77.3168 27.4339 77.2914 27.5242 77.24 27.5995C77.1886 27.6748 77.114 27.731 77.0278 27.7594L77.0105 27.716Z"
        fill="white" />
    </g>
    <path
      d="M116.323 38.2646C115.896 36.8128 115.087 35.5049 113.98 34.4805C112.873 33.456 111.51 32.7534 110.038 32.4477C92.8285 28.9351 74.971 30.6422 58.7251 37.353C57.3302 37.9354 56.1194 38.8899 55.2232 40.1138C54.3269 41.3376 53.7791 42.7844 53.6386 44.2985C52.9915 51.0846 53.555 57.9325 55.3025 64.5187C55.6876 65.9964 56.4727 67.3373 57.5702 68.392C58.6677 69.4467 60.0346 70.1737 61.5183 70.4919C70.1895 72.3079 79.0831 72.7967 87.899 71.9418C96.7115 71.0967 105.348 68.9252 113.521 65.4998C114.92 64.9029 116.127 63.9273 117.008 62.6813C117.889 61.4352 118.41 59.9676 118.513 58.4414C118.744 55.0388 118.678 51.6223 118.314 48.2314C117.945 44.8563 117.279 41.5209 116.323 38.2646V38.2646Z"
      fill="#ED5B00" />
    <path
      d="M116.961 40.791C116.547 39.3217 115.74 37.9949 114.629 36.9554C113.518 35.9159 112.145 35.2036 110.659 34.896C93.191 31.3309 75.0652 33.0683 58.5787 39.8881C57.1745 40.4702 55.9564 41.4302 55.0577 42.6629C54.159 43.8956 53.6145 45.3535 53.4836 46.8771C53.1976 50.2665 53.2178 53.6752 53.544 57.0609C53.8614 60.4513 54.4876 63.805 55.4147 67.0799C55.8251 68.5488 56.6296 69.8754 57.7398 70.9139C58.8501 71.9524 60.2232 72.6625 61.7082 72.9662C70.3989 74.7457 79.3034 75.2197 88.1319 74.3727C96.9524 73.5248 105.6 71.3717 113.797 67.9828C115.195 67.4052 116.409 66.4521 117.306 65.2273C118.203 64.0024 118.749 62.5531 118.884 61.0373C119.168 57.6479 119.151 54.2396 118.832 50.8534C118.513 47.449 117.887 44.081 116.961 40.791V40.791Z"
      fill="black" />
    <path
      d="M99.8306 85.7025L100.244 81.1705C100.275 80.8525 100.231 80.5317 100.116 80.2338C100.001 79.9359 99.8189 79.6691 99.5835 79.4548C99.3481 79.2406 99.0662 79.0847 98.7603 78.9997C98.4545 78.9147 98.1331 78.9029 97.8219 78.9653C94.8034 79.5726 91.7562 80.0246 88.6921 80.3197C85.6204 80.6134 82.5357 80.7467 79.4503 80.7191C79.1359 80.7197 78.826 80.7934 78.5446 80.9343C78.2631 81.0752 78.0178 81.2797 77.8276 81.5317C77.6374 81.7837 77.5075 82.0765 77.4481 82.3873C77.3886 82.6981 77.4011 83.0185 77.4846 83.3237L78.7433 87.6646C78.8089 87.897 78.9479 88.1015 79.1392 88.2472C79.3306 88.3929 79.5639 88.4718 79.8037 88.472C83.0194 88.472 86.2351 88.3331 89.4249 88.0206C92.6147 87.708 95.7873 87.2566 98.9082 86.6402C99.1407 86.6024 99.3553 86.4912 99.5211 86.3227C99.6869 86.1542 99.7953 85.937 99.8306 85.7025V85.7025Z"
      fill="url(#paint8_linear_493_15798)" />
    <path
      d="M80.9678 55.2898L92.8305 54.1525C93.3822 60.4382 91.7442 66.7412 88.0716 67.0885C84.399 67.4358 81.6144 61.5668 80.9678 55.2898Z"
      fill="#57F287" />
    <path
      d="M94.9253 51.3743C95.646 50.3994 96.5551 49.5813 97.5978 48.9694C98.6216 48.3451 99.7399 47.8934 100.908 47.6324C102.09 47.3686 103.305 47.2867 104.512 47.3893C105.762 47.4963 106.984 47.8193 108.124 48.3443L106.529 51.4524C104.969 50.5293 103.156 50.1366 101.357 50.3325C99.4974 50.4723 97.7487 51.2758 96.4254 52.5984L94.9253 51.3743Z"
      fill="#57F287" />
    <path
      d="M75.3639 55.012C73.8917 53.8549 72.0568 53.2667 70.1912 53.3538C68.3854 53.3781 66.6353 53.9869 65.1996 55.0902L63.2512 52.1991C64.3151 51.55 65.4814 51.089 66.6997 50.836C67.8822 50.5946 69.094 50.5332 70.2947 50.6537C71.4831 50.7544 72.6475 51.0476 73.7431 51.5219C74.8487 52.0043 75.8458 52.7072 76.6743 53.5882L75.3639 55.012Z"
      fill="#57F287" />
    <path
      d="M62.915 105.628C58.3336 101.683 54.0621 97.3867 50.1385 92.7784C46.2005 88.1431 42.6236 83.2087 39.4396 78.0191C36.2505 72.8057 33.4607 67.355 31.0944 61.7145C28.741 56.0367 26.8243 50.1852 25.3613 44.2117V44.2117C24.8597 42.0576 25.2199 39.7912 26.3643 37.9025C27.5086 36.0137 29.3451 34.6544 31.4767 34.1183C33.6083 33.5822 35.8638 33.9124 37.7556 35.0376C39.6473 36.1628 41.0234 37.9925 41.5863 40.1312C41.5863 40.2614 41.6553 40.4177 41.6811 40.548C42.6886 45.7509 44.0923 50.8681 45.8796 55.8542C47.6875 60.8549 49.8692 65.7104 52.4058 70.379C54.9499 75.0571 57.8495 79.5301 61.0787 83.7578C64.3357 88.0074 67.9125 91.9984 71.7775 95.6955V95.6955C73.0854 96.879 73.8728 98.5373 73.9666 100.305C74.0603 102.074 73.4528 103.807 72.2775 105.124C71.1023 106.441 69.4556 107.234 67.6998 107.329C65.944 107.423 64.2228 106.811 62.915 105.628Z"
      fill="url(#paint9_linear_493_15798)" />
    <mask id="mask1_493_15798" style="mask-type:alpha" maskUnits="userSpaceOnUse" x="25" y="33" width="49" height="75">
      <path
        d="M62.915 105.628C58.3336 101.683 54.0621 97.3867 50.1385 92.7784C46.2005 88.1431 42.6236 83.2087 39.4396 78.0191C36.2505 72.8057 33.4607 67.355 31.0944 61.7145C28.741 56.0367 26.8243 50.1852 25.3613 44.2117V44.2117C24.8597 42.0576 25.2199 39.7912 26.3643 37.9025C27.5086 36.0137 29.3451 34.6544 31.4767 34.1183C33.6083 33.5822 35.8638 33.9124 37.7556 35.0376C39.6473 36.1628 41.0234 37.9925 41.5863 40.1312C41.5863 40.2614 41.6553 40.4177 41.6811 40.548C42.6886 45.7509 44.0923 50.8681 45.8796 55.8542C47.6875 60.8549 49.8692 65.7104 52.4058 70.379C54.9499 75.0571 57.8495 79.5301 61.0787 83.7578C64.3357 88.0074 67.9125 91.9984 71.7775 95.6955V95.6955C73.0854 96.879 73.8728 98.5373 73.9666 100.305C74.0603 102.074 73.4528 103.807 72.2775 105.124C71.1023 106.441 69.4556 107.234 67.6998 107.329C65.944 107.423 64.2228 106.811 62.915 105.628Z"
        fill="url(#paint10_linear_493_15798)" />
    </mask>
    <g mask="url(#mask1_493_15798)">
      <path
        d="M45.9918 105.541C45.7668 105.54 45.5478 105.469 45.3644 105.337C45.181 105.206 45.0422 105.021 44.9668 104.808C44.8915 104.594 44.8832 104.363 44.9432 104.144C45.0032 103.926 45.1285 103.732 45.3021 103.588C52.2677 97.9192 58.8114 91.7443 64.8807 85.1125C65.0773 84.8972 65.3508 84.7694 65.641 84.7572C65.9312 84.745 66.2144 84.8494 66.4282 85.0474C66.642 85.2454 66.7689 85.5208 66.781 85.8131C66.7931 86.1054 66.6895 86.3905 66.4928 86.6058C60.3426 93.3129 53.7155 99.5602 46.6642 105.298C46.4737 105.453 46.2367 105.539 45.9918 105.541V105.541Z"
        fill="#3F99F2" />
      <path
        d="M34.9653 87.8988C34.7211 87.9033 34.4823 87.8255 34.2871 87.6776C34.0919 87.5297 33.9513 87.3203 33.8879 87.0827C33.8245 86.8452 33.8417 86.5931 33.937 86.3665C34.0322 86.14 34.2 85.952 34.4136 85.8325C42.1375 81.2765 49.5223 76.161 56.5095 70.5263C56.6227 70.4357 56.7526 70.3684 56.8916 70.3283C57.0306 70.2882 57.1762 70.276 57.3199 70.2926C57.4636 70.3091 57.6026 70.354 57.7291 70.4246C57.8556 70.4953 57.967 70.5903 58.057 70.7043C58.147 70.8183 58.2138 70.9491 58.2537 71.0891C58.2935 71.2291 58.3056 71.3757 58.2891 71.5204C58.2727 71.6651 58.2282 71.8051 58.158 71.9325C58.0879 72.0599 57.9935 72.1721 57.8803 72.2627C50.808 77.9691 43.3339 83.1513 35.5171 87.7686C35.3469 87.8578 35.1571 87.9026 34.9653 87.8988Z"
        fill="#3F99F2" />
      <path
        d="M26.3871 66.9847C26.1221 66.9884 25.8647 66.8951 25.6627 66.7221C25.4607 66.5492 25.328 66.3083 25.289 66.0442C25.25 65.7802 25.3075 65.5108 25.4508 65.2862C25.5941 65.0616 25.8135 64.897 26.0682 64.8229C34.6297 62.147 42.9857 58.8448 51.0694 54.9428C51.3312 54.8162 51.6323 54.7995 51.9063 54.8964C52.1804 54.9932 52.405 55.1958 52.5307 55.4594C52.6565 55.7231 52.6731 56.0262 52.5769 56.3022C52.4807 56.5782 52.2796 56.8044 52.0178 56.931C43.8349 60.8772 35.3784 64.2199 26.7147 66.9326C26.6088 66.9667 26.4983 66.9843 26.3871 66.9847V66.9847Z"
        fill="#3F99F2" />
    </g>
    <path
      d="M72.4329 90.6338L106.478 93.6464C108.664 93.8396 110.732 94.7328 112.378 96.1951C114.024 97.6574 115.162 99.612 115.625 101.773L121.737 130.171C122.439 133.435 122.369 136.819 121.533 140.051C120.698 143.282 119.12 146.271 116.927 148.776C114.735 151.281 111.988 153.232 108.909 154.471C105.83 155.711 102.505 156.205 99.2015 155.913L68.881 153.222C65.5824 152.931 62.3978 151.864 59.5832 150.107C56.7687 148.351 54.4029 145.953 52.6762 143.108C50.9495 140.263 49.91 137.049 49.6415 133.726C49.3729 130.402 49.8828 127.061 51.1301 123.972L62.0013 97.0584C62.8286 95.0044 64.2884 93.2719 66.1661 92.1154C68.0438 90.959 70.2403 90.4397 72.4329 90.6338V90.6338Z"
      fill="url(#paint11_linear_493_15798)" />
    <path d="M49.3293 133.656L49.1094 136.173L121.712 142.608L121.932 140.091L49.3293 133.656Z" fill="#ED5F00" />
    <path
      d="M81.7006 95.1658L96.529 96.4768C97.5781 96.5723 98.5616 97.0326 99.3104 97.7788C100.059 98.525 100.527 99.5105 100.633 100.566L102.883 123.504C102.947 124.169 102.866 124.84 102.644 125.469C102.421 126.099 102.064 126.671 101.598 127.146C101.131 127.621 100.566 127.987 99.9437 128.217C99.3209 128.447 98.6554 128.536 97.9946 128.478L74.8209 126.429C74.1617 126.371 73.5233 126.167 72.951 125.832C72.3786 125.497 71.8863 125.04 71.5088 124.493C71.1313 123.945 70.8779 123.321 70.7664 122.664C70.655 122.007 70.6882 121.333 70.8638 120.691L76.9504 98.491C77.2308 97.4647 77.8597 96.5698 78.7276 95.9622C79.5956 95.3547 80.6476 95.0728 81.7006 95.1658V95.1658Z"
      fill="#FFC619" />
    <path
      d="M150.419 31.0672C152.122 30.1645 154.097 29.9312 155.961 30.4125C157.825 30.8938 159.445 32.0554 160.506 33.6718C164.671 40.1067 167.188 47.4801 167.834 55.1335C168.002 57.079 167.44 59.0172 166.259 60.5663C165.078 62.1154 163.364 63.163 161.455 63.5029L127.711 67.4965C125.433 67.7647 123.132 67.2401 121.191 66.0099C119.249 64.7797 117.784 62.9178 117.038 60.7333C116.295 58.547 116.317 56.1701 117.101 53.9981C117.885 51.8261 119.384 49.9901 121.349 48.7957L150.419 31.0672Z"
      fill="#3442D9" />
    <path
      d="M162.487 59.1022C165.261 58.1445 165.59 51.7276 163.222 44.7696C160.854 37.8116 156.685 32.9475 153.91 33.9052C151.136 34.8629 150.807 41.2798 153.175 48.2378C155.543 55.1958 159.712 60.0599 162.487 59.1022Z"
      fill="#808AFF" />
    <path
      d="M153.954 41.3727C154.492 45.5309 155.856 49.5376 157.963 53.1541C159.174 52.3859 160.092 51.2286 160.568 49.8696C161.044 48.5107 161.05 47.0297 160.587 45.6664C160.123 44.3032 159.215 43.1376 158.012 42.3583C156.808 41.579 155.378 41.2318 153.954 41.3727Z"
      fill="#3442D9" />
    <path
      d="M140.773 76.8818C139.047 76.88 137.361 76.3633 135.928 75.3968C134.494 74.4303 133.377 73.0575 132.718 71.4519C132.059 69.8463 131.888 68.08 132.225 66.3763C132.563 64.6725 133.395 63.1078 134.615 61.8799C135.836 60.652 137.39 59.8161 139.082 59.4778C140.774 59.1395 142.528 59.3139 144.122 59.9792C145.716 60.6445 147.078 61.7706 148.036 63.2153C148.994 64.66 149.506 66.3583 149.506 68.0957C149.504 70.4267 148.582 72.6614 146.945 74.3089C145.307 75.9564 143.087 76.8818 140.773 76.8818V76.8818ZM140.773 61.5148C139.48 61.5148 138.217 61.9007 137.142 62.6239C136.067 63.347 135.23 64.3748 134.735 65.5773C134.241 66.7798 134.111 68.103 134.363 69.3795C134.616 70.6561 135.238 71.8287 136.152 72.7491C137.066 73.6694 138.23 74.2962 139.498 74.5501C140.765 74.804 142.079 74.6737 143.273 74.1756C144.467 73.6775 145.488 72.834 146.206 71.7518C146.924 70.6696 147.307 69.3972 147.307 68.0957C147.301 66.3532 146.61 64.6842 145.385 63.4529C144.161 62.2217 142.503 61.528 140.773 61.5235V61.5148Z"
      fill="#3442D9" />
    <path
      d="M17.3093 13.7729C16.1327 10.697 15.8662 7.34375 16.542 4.11858C19.4013 2.30378 22.6261 1.15306 25.9821 0.75C25.8198 2.10099 25.788 3.46465 25.8873 4.82182C25.999 6.40367 26.2882 7.96769 26.7494 9.48401C29.1024 7.81633 31.7937 6.69545 34.6291 6.20224C34.4912 8.06017 36.5689 14.016 37.1551 15.1099L43.0433 5.79419C44.5864 6.08096 46.0812 6.58665 47.4832 7.29616C49.1456 8.13233 50.6602 9.23812 51.9662 10.5692C51.0006 14.8697 50.0408 19.1614 49.0868 23.4445L55.8371 30.6592L54.4146 35.0001L51.4058 44.1596L44.1037 42.4232L46.9832 46.5384C44.3677 51.2229 40.1047 54.7509 35.0343 56.4271L27.9477 48.8478L26.6028 56.4271C24.2455 56.7151 21.8648 56.7559 19.499 56.5487C17.4012 56.3705 15.3236 56.0014 13.2918 55.4461V42.4232C12.106 42.8516 10.9813 43.4355 9.94681 44.1596C7.92544 45.5858 6.29447 47.503 5.20518 49.7334C2.90179 47.4032 1.23316 44.5148 0.360107 41.3466C1.72887 36.5118 4.31557 32.1154 7.86911 28.5842C6.34823 27.9483 4.92338 27.1008 3.63614 26.0665C2.40352 25.0817 1.3024 23.9407 0.360107 22.6718C1.90616 19.1122 3.44647 15.5671 4.98104 12.0365C6.6221 12.7019 8.32646 13.1964 10.0675 13.5124C12.4566 13.948 14.8954 14.0357 17.3093 13.7729V13.7729Z"
      fill="#5865F2" />
    <path
      d="M133.505 76.656C132.169 75.7183 131.048 74.4594 132.048 73.2961C132.281 73.0221 132.593 72.8281 132.941 72.741C133.288 72.6539 133.654 72.6779 133.988 72.8099C134.933 73.1922 135.807 73.7322 136.574 74.4073C136.626 73.2961 136.281 72.671 136.419 71.0822C136.514 69.9709 138.143 69.5107 139.255 69.7452C140.367 69.9796 140.721 71.4815 141.566 73.0269C141.971 71.933 141.566 69.9882 142.643 69.5542C143.253 69.3968 143.897 69.4469 144.476 69.6966C145.054 69.9463 145.534 70.3815 145.842 70.9346C146.42 72.064 146.739 73.3105 146.773 74.581C146.911 76.0048 146.928 77.7238 145.755 78.5486C145.369 78.7977 144.921 78.9301 144.462 78.9301C144.004 78.9301 143.555 78.7977 143.169 78.5486C142.454 78.0453 141.947 77.2943 141.747 76.4389C141.881 76.9143 141.851 77.4216 141.661 77.8775C141.472 78.3334 141.134 78.7109 140.703 78.948C140.083 79.2692 139.057 78.948 138.419 78.8351C137.547 78.6423 136.7 78.351 135.893 77.9669C135.06 77.6017 134.261 77.163 133.505 76.656Z"
      fill="black" />
    <path
      d="M30.3704 23.6355C30.3704 23.6355 30.7583 15.379 32.4912 13.6687C32.4912 13.6687 38.776 12.6095 43.3365 17.0807L37.8794 26.926"
      fill="url(#paint12_linear_493_15798)" />
    <path
      d="M23.4734 35.0869C23.4734 35.0869 20.206 42.1453 19.6284 47.2416C19.6284 47.2416 26.2322 51.3395 32.4653 48.8391C32.4653 48.8391 32.9136 38.5684 30.4135 35.0782"
      fill="url(#paint13_linear_493_15798)" />
    <path
      d="M31.9998 26.1533C31.3897 23.706 30.5437 21.3245 29.4738 19.0428C29.2624 18.4713 28.8873 17.9758 28.3961 17.619C27.731 17.322 26.9834 17.2698 26.284 17.4714C23.7322 17.9152 21.2055 18.4948 18.7146 19.2078L23.9907 28.8187"
      fill="url(#paint14_linear_493_15798)" />
  </g>
  <defs>
    <linearGradient id="paint0_linear_493_15798" x1="100.46" y1="95.6172" x2="151.273" y2="95.6172"
      gradientUnits="userSpaceOnUse">
      <stop stop-color="#3F99F2" />
      <stop offset="0.01" stop-color="#419BF2" />
      <stop offset="0.16" stop-color="#5DB1F7" />
      <stop offset="0.31" stop-color="#72C2FB" />
      <stop offset="0.48" stop-color="#81CFFD" />
      <stop offset="0.69" stop-color="#89D6FF" />
      <stop offset="1" stop-color="#8CD8FF" />
    </linearGradient>
    <linearGradient id="paint1_linear_493_15798" x1="100.46" y1="95.6172" x2="151.273" y2="95.6172"
      gradientUnits="userSpaceOnUse">
      <stop stop-color="#3F99F2" />
      <stop offset="0.01" stop-color="#419BF2" />
      <stop offset="0.16" stop-color="#5DB1F7" />
      <stop offset="0.31" stop-color="#72C2FB" />
      <stop offset="0.48" stop-color="#81CFFD" />
      <stop offset="0.69" stop-color="#89D6FF" />
      <stop offset="1" stop-color="#8CD8FF" />
    </linearGradient>
    <linearGradient id="paint2_linear_493_15798" x1="-340.292" y1="204.255" x2="-339.768" y2="210.045"
      gradientUnits="userSpaceOnUse">
      <stop stop-color="#66BCFF" />
      <stop offset="1" stop-color="#3F99F2" />
    </linearGradient>
    <linearGradient id="paint3_linear_493_15798" x1="-300.304" y1="227.123" x2="-298.74" y2="244.381"
      gradientUnits="userSpaceOnUse">
      <stop stop-color="#FFE75C" />
      <stop offset="1" stop-color="#FFC619" />
    </linearGradient>
    <linearGradient id="paint4_linear_493_15798" x1="165.231" y1="115.364" x2="157.084" y2="109.553"
      gradientUnits="userSpaceOnUse">
      <stop stop-color="#FFE75C" />
      <stop offset="1" stop-color="#FFF7DE" />
    </linearGradient>
    <linearGradient id="paint5_linear_493_15798" x1="-379.558" y1="229.628" x2="-377.994" y2="246.885"
      gradientUnits="userSpaceOnUse">
      <stop stop-color="#FFE75C" />
      <stop offset="1" stop-color="#FFC619" />
    </linearGradient>
    <linearGradient id="paint6_linear_493_15798" x1="233.868" y1="-115.707" x2="240.732" y2="-122.961"
      gradientUnits="userSpaceOnUse">
      <stop stop-color="#FFE75C" />
      <stop offset="1" stop-color="#FFF7DE" />
    </linearGradient>
    <linearGradient id="paint7_linear_493_15798" x1="-346.625" y1="214.789" x2="-325.787" y2="270.443"
      gradientUnits="userSpaceOnUse">
      <stop stop-color="#FFC618" />
      <stop offset="0.31" stop-color="#FFAD19" />
      <stop offset="1" stop-color="#FF7D12" />
    </linearGradient>
    <linearGradient id="paint8_linear_493_15798" x1="-334.189" y1="272.546" x2="-334.872" y2="265.011"
      gradientUnits="userSpaceOnUse">
      <stop offset="0.02" stop-color="#FFB619" />
      <stop offset="1" stop-color="#FFC619" />
    </linearGradient>
    <linearGradient id="paint9_linear_493_15798" x1="49.4746" y1="109.083" x2="49.4746" y2="33.9584"
      gradientUnits="userSpaceOnUse">
      <stop stop-color="#3F99F2" />
      <stop offset="0.01" stop-color="#419BF2" />
      <stop offset="0.16" stop-color="#5DB1F7" />
      <stop offset="0.31" stop-color="#72C2FB" />
      <stop offset="0.48" stop-color="#81CFFD" />
      <stop offset="0.69" stop-color="#89D6FF" />
      <stop offset="1" stop-color="#8CD8FF" />
    </linearGradient>
    <linearGradient id="paint10_linear_493_15798" x1="49.4746" y1="109.083" x2="49.4746" y2="33.9584"
      gradientUnits="userSpaceOnUse">
      <stop stop-color="#3F99F2" />
      <stop offset="0.01" stop-color="#419BF2" />
      <stop offset="0.16" stop-color="#5DB1F7" />
      <stop offset="0.31" stop-color="#72C2FB" />
      <stop offset="0.48" stop-color="#81CFFD" />
      <stop offset="0.69" stop-color="#89D6FF" />
      <stop offset="1" stop-color="#8CD8FF" />
    </linearGradient>
    <linearGradient id="paint11_linear_493_15798" x1="84.0847" y1="155.405" x2="89.7638" y2="92.7466"
      gradientUnits="userSpaceOnUse">
      <stop offset="0.12" stop-color="#FFC619" />
      <stop offset="0.2" stop-color="#FFBB19" />
      <stop offset="0.33" stop-color="#FF9F19" />
      <stop offset="0.41" stop-color="#FF8C19" />
      <stop offset="0.83" stop-color="#ED5F00" />
    </linearGradient>
    <linearGradient id="paint12_linear_493_15798" x1="33.1722" y1="25.0072" x2="38.5521" y2="14.0718"
      gradientUnits="userSpaceOnUse">
      <stop stop-color="#5865F2" />
      <stop offset="1" stop-color="#3442D9" />
    </linearGradient>
    <linearGradient id="paint13_linear_493_15798" x1="27.4305" y1="34.7744" x2="25.8745" y2="49.4966"
      gradientUnits="userSpaceOnUse">
      <stop stop-color="#5865F2" />
      <stop offset="0.32" stop-color="#525FEE" />
      <stop offset="0.75" stop-color="#414FE2" />
      <stop offset="1" stop-color="#3442D9" />
    </linearGradient>
    <linearGradient id="paint14_linear_493_15798" x1="28.1806" y1="27.9418" x2="23.1049" y2="17.1341"
      gradientUnits="userSpaceOnUse">
      <stop stop-color="#5865F2" />
      <stop offset="1" stop-color="#3442D9" />
    </linearGradient>
    <clipPath id="clip0_493_15798">
      <rect width="167.5" height="155.25" fill="white" transform="translate(0.360107 0.75)" />
    </clipPath>
  </defs>
</svg>
