<svg width="240" height="105" viewBox="0 0 240 105" fill="none" xmlns="http://www.w3.org/2000/svg">
<path d="M50.9 53.5C60.0127 53.5 67.4 46.1127 67.4 37C67.4 27.8873 60.0127 20.5 50.9 20.5C41.7873 20.5 34.4 27.8873 34.4 37C34.4 46.1127 41.7873 53.5 50.9 53.5Z" fill="#B32FB3"/>
<path d="M78.1 22C77.5127 21.9941 76.9463 21.7817 76.5 21.4L75.9 20.8C73.6991 18.5837 71.0819 16.8244 68.1987 15.6231C65.3156 14.4218 62.2234 13.8022 59.1 13.8C58.5165 13.8 57.9569 13.5682 57.5444 13.1556C57.1318 12.743 56.9 12.1835 56.9 11.6C56.9257 11.034 57.1688 10.4998 57.5787 10.1086C57.9885 9.71742 58.5334 9.49941 59.1 9.49999C62.7939 9.48656 66.454 10.2042 69.8694 11.6115C73.2847 13.0189 76.3879 15.0881 79 17.7L79.6 18.3C79.9865 18.7237 80.2007 19.2765 80.2007 19.85C80.2007 20.4235 79.9865 20.9763 79.6 21.4C79.1942 21.783 78.658 21.9975 78.1 22Z" fill="#270813"/>
<path d="M118.2 6.3C108.163 6.2938 98.2563 8.57344 89.2314 12.966C80.2066 17.3586 72.3006 23.7487 66.1131 31.6517C59.9257 39.5548 55.6192 48.7631 53.5204 58.5782C51.4216 68.3934 51.5856 78.5577 54 88.3H182.3C192.6 46.6 161.1 6.3 118.2 6.3Z" fill="#B32FB3"/>
<path d="M118.2 6.3C103.71 6.25499 89.6123 11.0012 78.1 19.8C97.7903 39.708 113.924 62.8427 125.8 88.2H182.3C192.6 46.6 161.1 6.3 118.2 6.3Z" fill="url(#paint0_linear)"/>
<path d="M176.6 78.2L177.2 77.7C178.395 76.8617 179.811 76.3955 181.27 76.3599C182.729 76.3243 184.166 76.721 185.4 77.5C193.9 82.8 196.1 93.1 196.1 98.6C196.1 100.297 195.426 101.925 194.225 103.125C193.025 104.326 191.397 105 189.7 105C187.993 105 186.355 104.329 185.139 103.132C183.923 101.934 183.226 100.307 183.2 98.6C183.2 98.5 183 91 178.3 88.3H171.8V87.8C171.815 85.9398 172.256 84.1077 173.088 82.4438C173.92 80.7799 175.121 79.3283 176.6 78.2Z" fill="#EB3EEB"/>
<path d="M201.9 105H202C203.697 105 205.325 104.326 206.526 103.125C207.726 101.925 208.4 100.297 208.4 98.6C208.4 93 206 82.2 196.9 77C195.4 76.173 193.634 75.9716 191.986 76.4398C190.338 76.908 188.941 78.0077 188.1 79.5C187.673 80.2337 187.396 81.045 187.286 81.8867C187.176 82.7284 187.234 83.5836 187.457 84.4026C187.681 85.2215 188.065 85.9879 188.587 86.657C189.109 87.3261 189.76 87.8846 190.5 88.3C195.2 91 195.5 98.5 195.5 98.6C195.5 100.297 196.174 101.925 197.375 103.125C198.575 104.326 200.203 105 201.9 105Z" fill="#EB3EEB"/>
<path d="M214.2 105C215.907 105 217.545 104.329 218.761 103.132C219.977 101.934 220.674 100.307 220.7 98.6C220.7 93 218.2 82.2 209.1 77C207.62 76.356 205.954 76.2854 204.425 76.8019C202.896 77.3184 201.614 78.3852 200.829 79.7947C200.043 81.2042 199.809 82.8556 200.174 84.4276C200.538 85.9997 201.474 87.38 202.8 88.3C207.5 91 207.7 98.5 207.7 98.6C207.751 100.298 208.456 101.912 209.666 103.104C210.877 104.296 212.501 104.975 214.2 105Z" fill="#EB3EEB"/>
<path d="M196.1 102.7C195.543 102.7 195.009 102.479 194.615 102.085C194.221 101.691 194 101.157 194 100.6V98.6C193.907 93.5456 192.381 88.6214 189.6 84.4C189.429 84.1727 189.306 83.913 189.239 83.6368C189.171 83.3605 189.16 83.0734 189.207 82.7929C189.254 82.5123 189.357 82.2442 189.511 82.0048C189.664 81.7654 189.865 81.5596 190.1 81.4C190.568 81.081 191.141 80.955 191.7 81.0481C192.259 81.1413 192.761 81.4464 193.1 81.9C196.4 86.8521 198.206 92.6496 198.3 98.6V100.6C198.3 100.884 198.243 101.166 198.131 101.427C198.019 101.689 197.856 101.925 197.65 102.121C197.444 102.318 197.201 102.47 196.934 102.57C196.668 102.669 196.384 102.714 196.1 102.7Z" fill="#270813"/>
<path d="M208.4 102.7C208.116 102.714 207.832 102.669 207.566 102.57C207.299 102.47 207.056 102.318 206.85 102.121C206.644 101.925 206.481 101.689 206.369 101.427C206.257 101.166 206.2 100.884 206.2 100.6V98.6C206.152 93.5384 204.623 88.6017 201.8 84.4C201.557 84.1791 201.367 83.9066 201.243 83.6026C201.119 83.2986 201.065 82.9707 201.084 82.643C201.104 82.3153 201.196 81.9961 201.355 81.7088C201.514 81.4214 201.735 81.1733 202.002 80.9825C202.269 80.7917 202.575 80.6631 202.899 80.6061C203.222 80.5491 203.554 80.5652 203.87 80.6532C204.186 80.7412 204.479 80.8988 204.726 81.1145C204.974 81.3303 205.17 81.5987 205.3 81.9C208.667 86.8259 210.511 92.6338 210.6 98.6V100.6C210.6 100.884 210.543 101.166 210.431 101.427C210.319 101.689 210.156 101.925 209.95 102.121C209.744 102.318 209.501 102.47 209.234 102.57C208.968 102.669 208.684 102.714 208.4 102.7Z" fill="#270813"/>
<path d="M35.1 78.2L35.8 77.7C36.9947 76.8617 38.4107 76.3955 39.8697 76.3599C41.3288 76.3243 42.7658 76.721 44 77.5C52.4 82.8 54.7 93.1 54.7 98.6C54.7 100.297 54.0257 101.925 52.8255 103.125C51.6252 104.326 49.9974 105 48.3 105H48.2C46.5026 105 44.8747 104.326 43.6745 103.125C42.4743 101.925 41.8 100.297 41.8 98.6C41.8 98.5 41.5 91 36.8 88.3H30.4V87.8C30.3959 85.9468 30.8176 84.1174 31.6325 82.4529C32.4474 80.7884 33.6337 79.3334 35.1 78.2Z" fill="#EB3EEB"/>
<path d="M60.5 105C62.2067 105 63.8451 104.329 65.0612 103.132C66.2774 101.934 66.9738 100.307 67 98.6C67 93 64.5 82.2 55.4 77C53.9204 76.356 52.2541 76.2854 50.7252 76.8019C49.1964 77.3184 47.9144 78.3852 47.1286 79.7947C46.3428 81.2042 46.1094 82.8556 46.4737 84.4276C46.8381 85.9997 47.7742 87.38 49.1 88.3C53.8 91 54 98.5 54 98.6C54.0513 100.298 54.7557 101.912 55.9664 103.104C57.1772 104.296 58.8011 104.975 60.5 105Z" fill="#EB3EEB"/>
<path d="M72.8 105C74.4974 105 76.1252 104.326 77.3255 103.125C78.5257 101.925 79.2 100.297 79.2 98.6C79.2 93 76.8 82.2 67.7 77C66.1997 76.173 64.4336 75.9716 62.7857 76.4398C61.1378 76.908 59.7414 78.0077 58.9 79.5C58.4731 80.2337 58.1964 81.045 58.0861 81.8867C57.9757 82.7284 58.0339 83.5836 58.2573 84.4026C58.4806 85.2215 58.8647 85.9879 59.3871 86.657C59.9094 87.3261 60.5597 87.8846 61.3 88.3C66 91 66.3 98.5 66.3 98.6C66.3263 100.307 67.0226 101.934 68.2388 103.132C69.4549 104.329 71.0933 105 72.8 105Z" fill="#EB3EEB"/>
<path d="M54.7 102.7C54.1431 102.7 53.6089 102.479 53.2151 102.085C52.8213 101.691 52.6 101.157 52.6 100.6V98.6C52.5112 93.53 50.9476 88.5957 48.1 84.4C47.9338 84.1665 47.8171 83.9015 47.7572 83.6212C47.6973 83.3409 47.6954 83.0514 47.7516 82.7703C47.8078 82.4893 47.9209 82.2227 48.0841 81.9871C48.2472 81.7514 48.4568 81.5516 48.7 81.4C49.1682 81.081 49.7415 80.955 50.3003 81.0481C50.8592 81.1413 51.3605 81.4464 51.7 81.9C55.0004 86.8521 56.8056 92.6496 56.9 98.6V100.6C56.9003 100.884 56.8429 101.166 56.7311 101.427C56.6194 101.689 56.4557 101.925 56.25 102.121C56.0443 102.318 55.8008 102.47 55.5344 102.57C55.2679 102.669 54.9841 102.714 54.7 102.7Z" fill="#270813"/>
<path d="M67 102.7C66.7159 102.714 66.4321 102.669 66.1656 102.57C65.8992 102.47 65.6557 102.318 65.45 102.121C65.2443 101.925 65.0806 101.689 64.9689 101.427C64.8571 101.166 64.7997 100.884 64.8 100.6V98.6C64.7072 93.5456 63.1814 88.6214 60.4 84.4C60.2291 84.1727 60.1062 83.913 60.0386 83.6368C59.9711 83.3605 59.9604 83.0734 60.0071 82.7929C60.0539 82.5123 60.1572 82.2442 60.3106 82.0048C60.4641 81.7654 60.6646 81.5596 60.9 81.4C61.3682 81.081 61.9415 80.955 62.5003 81.0481C63.0592 81.1413 63.5605 81.4464 63.9 81.9C67.2427 86.8319 69.0519 92.6423 69.1 98.6V100.6C69.1 101.157 68.8788 101.691 68.4849 102.085C68.0911 102.479 67.557 102.7 67 102.7Z" fill="#270813"/>
<path d="M150.1 74.3H159.9C163.3 74.3 166.1 76.3 166.1 78.8C166.1 81.3 163.3 83.2 159.9 83.2H150.1C146.7 83.2 143.9 81.2 143.9 78.8C143.9 76.4 146.7 74.3 150.1 74.3Z" fill="white"/>
<path d="M161.1 74.4C161.748 75.7769 162.089 77.2782 162.1 78.8C162.102 80.2911 161.759 81.7626 161.1 83.1H152.2C151.552 81.7231 151.211 80.2218 151.2 78.7C151.199 77.1448 151.541 75.6085 152.2 74.2H161.1V74.4Z" fill="#270813"/>
<path d="M102.2 74.3H111.9C115.4 74.3 118.2 76.3 118.2 78.8C118.2 81.3 115.4 83.2 111.9 83.2H102.2C98.7 83.2 95.9 81.2 95.9 78.8C95.9 76.4 98.7 74.3 102.2 74.3Z" fill="white"/>
<path d="M113.2 74.4C113.848 75.7769 114.189 77.2782 114.2 78.8C114.202 80.2911 113.859 81.7626 113.2 83.1H104.3C103.576 81.7466 103.198 80.235 103.2 78.7C103.186 77.1317 103.564 75.5847 104.3 74.2H113.2V74.4Z" fill="#270813"/>
<path d="M78.1 19.9C88.2 11.6 102.9 6.1 118.2 6.1C145.7 6.1 169.6 23.2 178.6 45.7C140.5 45.7 103 44.8 78.1 19.9Z" fill="#FFE75C"/>
<path d="M130.416 7.44561L139.512 9.81506C141.329 10.2884 143.186 9.19902 143.66 7.38188L143.662 7.37221C144.135 5.55507 143.046 3.69829 141.229 3.22496L132.132 0.855508C130.315 0.38218 128.458 1.47155 127.985 3.28869L127.983 3.29836C127.509 5.1155 128.599 6.97228 130.416 7.44561Z" fill="#270813"/>
<path d="M57.4 38.9C57.067 38.8885 56.7409 38.8015 56.4464 38.6456C56.1519 38.4897 55.8967 38.269 55.7 38L47 27C46.8186 26.7851 46.6823 26.536 46.599 26.2674C46.5157 25.9989 46.4872 25.7163 46.5152 25.4365C46.5432 25.1567 46.627 24.8854 46.7619 24.6386C46.8967 24.3919 47.0797 24.1747 47.3 24C47.5231 23.8159 47.7804 23.6775 48.057 23.5929C48.3337 23.5084 48.6243 23.4792 48.9122 23.507C49.2002 23.5349 49.4798 23.6193 49.7351 23.7553C49.9904 23.8914 50.2163 24.0765 50.4 24.3L59.1 35.4C59.4414 35.8442 59.6004 36.402 59.5447 36.9595C59.4889 37.5169 59.2226 38.0322 58.8 38.4C58.398 38.7106 57.9078 38.8857 57.4 38.9Z" fill="#270813"/>
<path d="M150.8 36.8C153.782 36.8 156.2 34.3823 156.2 31.4C156.2 28.4177 153.782 26 150.8 26C147.818 26 145.4 28.4177 145.4 31.4C145.4 34.3823 147.818 36.8 150.8 36.8Z" fill="#00CD9D"/>
<path d="M164.7 68.8H164.2C158.991 67.6989 153.609 67.6989 148.4 68.8C148.118 68.8749 147.823 68.8928 147.534 68.8526C147.244 68.8125 146.966 68.7151 146.715 68.5661C146.463 68.4172 146.244 68.2197 146.07 67.9851C145.896 67.7506 145.77 67.4837 145.7 67.2C145.578 66.6438 145.677 66.0622 145.976 65.5773C146.274 65.0924 146.749 64.7421 147.3 64.6C153.196 63.3011 159.304 63.3011 165.2 64.6C165.693 64.7501 166.117 65.0684 166.4 65.4995C166.682 65.9305 166.804 66.4469 166.744 66.9586C166.685 67.4704 166.448 67.945 166.074 68.2998C165.7 68.6545 165.214 68.867 164.7 68.9V68.8Z" fill="#270813"/>
<path d="M101.4 68.8C100.906 68.809 100.424 68.6435 100.04 68.3326C99.6562 68.0216 99.3941 67.5852 99.3 67.1C99.1744 66.5572 99.2593 65.987 99.5377 65.5044C99.8161 65.0219 100.267 64.6629 100.8 64.5C106.729 63.1992 112.871 63.1992 118.8 64.5C119.333 64.6629 119.784 65.0219 120.062 65.5044C120.341 65.987 120.426 66.5572 120.3 67.1C120.242 67.3798 120.127 67.6447 119.963 67.8786C119.798 68.1125 119.588 68.3104 119.345 68.4602C119.101 68.61 118.83 68.7085 118.547 68.7497C118.264 68.791 117.976 68.774 117.7 68.7C112.491 67.5989 107.109 67.5989 101.9 68.7L101.4 68.8Z" fill="#270813"/>
<path d="M238.4 65.7L239.9 68.8C239.957 68.8709 239.988 68.9591 239.988 69.05C239.988 69.1409 239.957 69.2291 239.9 69.3C239.893 69.4848 239.822 69.6615 239.7 69.8L239.3 70H238.8L235.7 68.6H234.9L231.9 70H231.4C231.322 70 231.246 69.9819 231.176 69.9472C231.107 69.9125 231.047 69.8621 231 69.8C230.9 69.6 230.8 69.5 230.8 69.3C230.743 69.2291 230.712 69.1409 230.712 69.05C230.712 68.9591 230.743 68.8709 230.8 68.8L232.3 65.7C232.3 65.6 232.4 65.5 232.4 65.4C232.4 65.3 232.3 65.1 232.3 65L230.8 61.9C230.705 61.7518 230.669 61.5733 230.7 61.4C230.8 61.3 230.8 61.1 231 61L231.4 60.7H231.9L235 62.2H235.7L238.8 60.7H239.3L239.8 61C239.903 61.1116 239.973 61.2504 240 61.4C240.031 61.5733 239.995 61.7518 239.9 61.9L238.4 65C238.4 65.1 238.3 65.3 238.3 65.4C238.3 65.5 238.4 65.6 238.4 65.7Z" fill="#57F287"/>
<path d="M180.9 11.3L176.4 9.8C176.186 9.70665 176.004 9.55285 175.876 9.35745C175.748 9.16206 175.68 8.93357 175.68 8.7C175.68 8.46643 175.748 8.23793 175.876 8.04254C176.004 7.84715 176.186 7.69334 176.4 7.6L180.9 6C181.06 5.93982 181.205 5.84626 181.326 5.72554C181.446 5.60483 181.54 5.45975 181.6 5.3L183.2 0.799997C183.2 0.508259 183.316 0.22847 183.522 0.0221795C183.728 -0.184111 184.008 -0.300003 184.3 -0.300003C184.592 -0.300003 184.872 -0.184111 185.078 0.0221795C185.284 0.22847 185.4 0.508259 185.4 0.799997L187 5.3C187.046 5.46739 187.135 5.61996 187.257 5.74269C187.38 5.86543 187.533 5.9541 187.7 6L192.2 7.6C192.414 7.69334 192.596 7.84715 192.724 8.04254C192.852 8.23793 192.92 8.46643 192.92 8.7C192.92 8.93357 192.852 9.16206 192.724 9.35745C192.596 9.55285 192.414 9.70665 192.2 9.8L187.7 11.3C187.525 11.3633 187.369 11.4699 187.247 11.6098C187.125 11.7497 187.04 11.9184 187 12.1L185.4 16.5C185.4 16.7917 185.284 17.0715 185.078 17.2778C184.872 17.4841 184.592 17.6 184.3 17.6C184.008 17.6 183.728 17.4841 183.522 17.2778C183.316 17.0715 183.2 16.7917 183.2 16.5L181.6 12.1C181.481 11.7517 181.229 11.4643 180.9 11.3Z" fill="#5865F2"/>
<path d="M14.4886 42.8869L14.5593 42.9577C15.4965 43.8949 17.0161 43.8949 17.9534 42.9577L19.7424 41.1687C20.6796 40.2314 20.6796 38.7118 19.7424 37.7746L19.6717 37.7039C18.7344 36.7666 17.2148 36.7666 16.2776 37.7038L14.4886 39.4928C13.5513 40.4301 13.5513 41.9497 14.4886 42.8869Z" fill="#66BCFF"/>
<path d="M0.704737 56.6869L0.775447 56.7577C1.71271 57.6949 3.2323 57.6949 4.16956 56.7577L5.95854 54.9687C6.8958 54.0314 6.8958 52.5118 5.95854 51.5746L5.88783 51.5038C4.95057 50.5666 3.43098 50.5666 2.49372 51.5038L0.704738 53.2928C-0.232521 54.2301 -0.232521 55.7497 0.704737 56.6869Z" fill="#66BCFF"/>
<path d="M5.84503 42.9533L5.91574 42.8826C6.85299 41.9454 6.853 40.4258 5.91574 39.4885L4.12676 37.6995C3.1895 36.7623 1.6699 36.7623 0.732645 37.6995L0.661935 37.7702C-0.275323 38.7075 -0.275325 40.2271 0.661933 41.1644L2.45092 42.9533C3.38817 43.8906 4.90777 43.8906 5.84503 42.9533Z" fill="#66BCFF"/>
<path d="M19.6289 56.7533L19.6996 56.6826C20.6368 55.7454 20.6368 54.2258 19.6996 53.2885L17.9106 51.4995C16.9733 50.5623 15.4537 50.5623 14.5165 51.4995L14.4458 51.5702C13.5085 52.5075 13.5085 54.0271 14.4458 54.9644L16.2348 56.7533C17.172 57.6906 18.6916 57.6906 19.6289 56.7533Z" fill="#66BCFF"/>
<path d="M51.7 49.1C52.915 49.1 53.9 48.115 53.9 46.9C53.9 45.685 52.915 44.7 51.7 44.7C50.485 44.7 49.5 45.685 49.5 46.9C49.5 48.115 50.485 49.1 51.7 49.1Z" fill="white"/>
<path d="M44.3 41.9H43.9C43.6219 41.8522 43.3563 41.7489 43.119 41.5962C42.8817 41.4435 42.6776 41.2445 42.5189 41.0111C42.3602 40.7778 42.2502 40.5149 42.1954 40.238C42.1406 39.9612 42.1422 39.6762 42.2 39.4C43.1 33.9 46.6 30.2 52.3 28.8C52.8428 28.6743 53.413 28.7593 53.8956 29.0377C54.3781 29.3161 54.7371 29.7672 54.9 30.3C54.9749 30.5824 54.9928 30.8769 54.9526 31.1663C54.9125 31.4557 54.8151 31.7341 54.6662 31.9855C54.5172 32.2368 54.3197 32.456 54.0851 32.6302C53.8506 32.8044 53.5837 32.9301 53.3 33C49.3 34 47.1 36.2 46.4 40.1C46.3274 40.6035 46.0744 41.0635 45.6882 41.3945C45.302 41.7256 44.8087 41.9052 44.3 41.9Z" fill="#270813"/>
<path d="M168.3 45.8L216.3 45.8C218.288 45.8 219.9 44.1882 219.9 42.2V42.11C219.9 40.1218 218.288 38.51 216.3 38.51L168.3 38.51C166.312 38.51 164.7 40.1218 164.7 42.11V42.2C164.7 44.1882 166.312 45.8 168.3 45.8Z" fill="#66BCFF"/>
<defs>
<linearGradient id="paint0_linear" x1="151.31" y1="109.03" x2="131.49" y2="42.36" gradientUnits="userSpaceOnUse">
<stop offset="0.06" stop-color="#B32FB3"/>
<stop offset="1" stop-color="#3D0A27"/>
</linearGradient>
</defs>
</svg>