<svg fill="none" height="240" viewBox="0 0 660 240" width="660" xmlns="http://www.w3.org/2000/svg"><path d="m660 0h-660v240h660z" fill="#a1c2ff"/><path d="m646.06 190.27c-12.91-.73-10.53 12-10.53 12-34.31-22.27-47.72 13.73-47.72 13.73-14-27.52-32-12-32-12-16.5-43-44.34-13-44.34-13-27.84-11-34 14-34 14-25-32.84-56.36-11.84-56.36-11.84-16.78-12.09-28.9-6-34.39-1.59 0 0 .28-22.57-14.64-13.07-7.71-7.33-19.67-13.58-36.95-9.79-30.38 6.69-28.25 31.29-27.13 37.78-12.89-13.93-29.8-9.69-33.1-8.68l-.67-.12c-6.35-23.75-31.37-7.42-31.37-7.42-31.46-20.73-52.3 2.89-52.3 2.89-27.62-21.16-41 5.84-41 5.84-23.36-16.84-39.38-4.24-39.38-4.24s-13.21-33.76-48.3-26-26.88 39.3-26.88 39.3c-14.42-7.06-18.26 6-18.26 6-6.89-16.93-16.74-16.43-16.74-16.43v42.37h660v-84.3c-19.59 4.3-13.94 34.57-13.94 34.57z" fill="#d0e3ff"/><path clip-rule="evenodd" d="m480.53 164.5-2.34 1c-.013 0-.026.005-.035.015-.01.009-.015.022-.015.035s.005.026.015.035c.009.01.022.015.035.015l2.34 1 1 2.35c.005.008.013.015.022.02.008.004.018.007.028.007s.02-.003.028-.007c.009-.005.016-.012.022-.02l1-2.35 2.34-1c.013 0 .026-.005.035-.015.01-.009.015-.022.015-.035s-.005-.026-.015-.035c-.009-.01-.022-.015-.035-.015l-2.34-1-1-2.34c-.006-.008-.013-.015-.022-.02-.008-.004-.018-.007-.028-.007s-.02.003-.028.007c-.009.005-.017.012-.022.02l-1 2.34s.01 0 0 0z" fill="#a594ff" fill-rule="evenodd"/><path d="m525.39 64.33c-3.86-1.93-13.4-3.67-22.68-.38-.844.308-1.775.2707-2.591-.1038-.816-.3744-1.452-1.0558-1.769-1.8962-3.17-8.65-10.29-15.8-14.53-17.4-.401-.1562-.765-.3932-1.07-.6964s-.544-.6659-.703-1.0656c-.158-.3997-.233-.8278-.218-1.2576.014-.4298.116-.852.301-1.2404l7.51-10.47 43.36 20.38-3.37 12.65c-.176.3798-.427.7203-.738 1.0014-.31.2811-.674.497-1.069.635-.396.138-.815.1953-1.232.1684-.418-.0269-.827-.1373-1.201-.3248z" fill="#ffbe6e"/><path d="m530.31 60.21-24.31-7.54 26.98-2.47z" fill="#ffbe6e" opacity=".43"/><path d="m521.2 17.67-43.63-1c-.214-.0376-.435-.0045-.628.0944-.194.0989-.35.2582-.445.4537s-.123.4167-.081.6299c.042.2133.152.407.314.552l28.2 33.79c.132.1557.295.2811.48.3674s.386.1316.59.1326l44 .2c.215.0331.435-.0049.627-.1083.191-.1033.344-.2664.434-.4643.091-.198.114-.4201.067-.6326s-.162-.4038-.328-.5448l-28.59-33c-.129-.1411-.285-.2552-.458-.3359-.173-.0806-.361-.1262-.552-.1341z" fill="#fffebd"/><path d="m520.561 35.0342c.708-1.5042-1.161-3.8731-4.175-5.291-3.013-1.418-6.03-1.3481-6.737.1561-.708 1.5041 1.161 3.873 4.174 5.291 3.013 1.4179 6.03 1.348 6.738-.1561z" fill="#ffbe6e"/><path d="m518.68 34.73 19.61 18.09.69 23.8" stroke="#ffbe6e" stroke-miterlimit="10" stroke-width="1.37"/><path d="m541.21 81.32-.85-3.1c.169-.1592.303-.3515.394-.5648.091-.2134.137-.4432.136-.6752.003-.2864-.065-.5691-.198-.8225-.134-.2534-.329-.4695-.567-.6285-.238-.1591-.512-.2562-.797-.2824-.286-.0262-.573.0192-.836.1321-.263.113-.494.2899-.672.5147-.177.2248-.296.4903-.345.7726-.049.2822-.026.5722.065.8436.092.2713.25.5156.46.7104l-.85 3.1c-.029.1078-.033.2209-.012.3304.022.1096.068.2128.136.3017.067.0888.155.161.254.2109.1.0499.21.0763.322.077h2.69c.109-.0052.216-.0348.312-.0866s.179-.1245.243-.2128c.065-.0883.108-.1899.128-.2973s.016-.2179-.013-.3233z" fill="#fffebd"/><path d="m97.25 127.35-2.93 1.3c-.0104.006-.019.015-.0249.026-.006.01-.0091.022-.0091.034s.0031.024.0091.034c.0059.011.0145.02.0249.026l2.93 1.3 1.3 2.93c.0062.01.015.019.0255.025s.0224.009.0345.009c.012 0 .0239-.003.0344-.009s.0193-.015.0256-.025l1.3-2.93 2.93-1.3c.01-.006.019-.015.025-.026.006-.01.009-.022.009-.034s-.003-.024-.009-.034c-.006-.011-.015-.02-.025-.026l-2.93-1.3-1.3-2.93c-.0063-.01-.0151-.019-.0256-.025s-.0224-.009-.0344-.009c-.0121 0-.024.003-.0345.009s-.0193.015-.0255.025z" fill="#fffebd"/><path d="m115.46 87.14c-.02.026-.03.0576-.03.09 0 .0325.01.064.03.09l3.54 6.08c0 .08.08.08.1 0l3.54-6.08c.023-.0242.036-.0564.036-.09 0-.0335-.013-.0658-.036-.09l-3.54-6.08c0-.08-.08-.08-.1 0z" fill="#ffcf5e"/><path d="m161.65 137s6.17 14.21 26 11.69" stroke="#d0e3ff" stroke-miterlimit="10" stroke-width="1.65"/><path d="m133.7 122.36c-1.381-3.836-1.628-7.989-.712-11.962.917-3.973 2.958-7.598 5.88-10.4421 2.922-2.8438 6.601-4.7861 10.597-5.5946 3.997-.8085 8.141-.4492 11.939 1.0352 3.797 1.4843 7.087 4.0308 9.476 7.3355 2.389 3.304 3.776 7.226 3.995 11.298.219 4.071-.74 8.119-2.76 11.661-2.021 3.541-5.019 6.426-8.635 8.309l2.55 3.23-7.82 2.77-.1-4.11c-5.017 1.082-10.257.306-14.746-2.182s-7.922-6.52-9.664-11.348z" fill="#00b5ab"/><path d="m146.46 95.19c4.507-1.6324 9.434-1.6894 13.977-.1616s8.435 4.55 11.039 8.5736c2.605 4.024 3.769 8.812 3.303 13.582-.466 4.771-2.535 9.242-5.869 12.686-2.235.561-4.538.8-6.84.71-6.487-.25-12.609-3.066-17.02-7.829-4.411-4.764-6.749-11.084-6.5-17.571.091-1.981.427-3.942 1-5.84 2.018-1.8109 4.363-3.2195 6.91-4.15z" fill="#83f9d4" opacity=".44"/><path d="m429.08 121.37s-2.23 12-11.55 18.51" stroke="#d0e3ff" stroke-miterlimit="10" stroke-width="2.09"/><path clip-rule="evenodd" d="m452.27 105.11c.734-3.531.436-7.199-.86-10.5648-1.296-3.3659-3.533-6.2872-6.446-8.4145-2.912-2.1272-6.376-3.3704-9.977-3.5806-3.6-.2102-7.185.6213-10.325 2.3952-3.141 1.7738-5.703 4.4148-7.382 7.607s-2.402 6.8005-2.084 10.3927c.319 3.593 1.666 7.018 3.879 9.865 2.214 2.847 5.202 4.996 8.605 6.19l-1.82 3.15 7.19 1.47-.43-3.61c4.523.31 9.005-1.029 12.617-3.768s6.111-6.693 7.033-11.132z" fill="#8693e7" fill-rule="evenodd"/><path d="m452.05 94.23s-6.4-.59-11.48 26.1c-4.18 21.92-26.65 19-26.65 19" stroke="#d0e3ff" stroke-miterlimit="10" stroke-width="2.09"/><path clip-rule="evenodd" d="m481.88 84.34c1.943-4.786 2.466-10.0304 1.508-15.106-.959-5.0756-3.359-9.7677-6.914-13.5152s-8.114-6.3918-13.132-7.6167-10.283-.9786-15.165.7095c-4.882 1.688-9.174 4.7464-12.363 8.8095-3.19 4.063-5.142 8.9587-5.622 14.1017-.481 5.1429.53 10.3155 2.911 14.8992s6.033 8.3845 10.517 10.948l-3.39 4 9.76 3.95.32-5.21c6.304 1.612 12.978.881 18.784-2.0559 5.806-2.937 10.349-7.881 12.786-13.9141z" fill="#8d7ce6" fill-rule="evenodd"/><path clip-rule="evenodd" d="m483.77 72.27c-.316-4.3491-1.685-8.556-3.989-12.2582-2.304-3.7023-5.473-6.7887-9.236-8.9932-3.762-2.2045-8.004-3.4611-12.36-3.6613s-8.695.662-12.644 2.5121c-3.948 1.8501-7.387 4.6328-10.021 8.108-2.634 3.4753-4.383 7.539-5.097 11.8407-.713 4.3018-.37 8.7125 1 12.8521 1.371 4.1396 3.727 7.8838 6.867 10.9098 8.851 1.5428 17.963.3255 26.099-3.4866 8.136-3.8122 14.902-10.0347 19.381-17.8234z" fill="#b699ff" fill-rule="evenodd" opacity=".35"/><path d="m221.935 12.232-75.164 24.3205c-1.403.454-2.172 1.9594-1.718 3.3623l30.927 95.5812c.454 1.403 1.959 2.172 3.362 1.718l75.164-24.32c1.403-.454 2.172-1.96 1.718-3.363l-30.927-95.5806c-.454-1.403-1.959-2.1724-3.362-1.7184z" fill="#a594ff"/><path d="m247.95 107.28-66.51 21.78-28.66-88.56 66.59-21.55z" fill="#fffee0"/><path d="m174.84 108.36 66.58-21.55" opacity=".5" stroke="#9385ff" stroke-miterlimit="10" stroke-width="1.58"/><path clip-rule="evenodd" d="m189.76 112.72-12.34 4.04 16.32 8.27z" fill="#856eff" fill-rule="evenodd"/><path clip-rule="evenodd" d="m177.42 116.76 16.32 8.27-13.31 6.44z" fill="#a594ff" fill-rule="evenodd"/><path d="m180.33 52.87-1.68-.85-6.26 12.35-3.65-1.85-.85 1.68 5.33 2.7z" fill="#7bc0bb"/><path d="m185.41 68.35-1.69-.85-6.26 12.35-3.65-1.85-.85 1.69 5.33 2.7z" fill="#7bc0bb"/><path d="m203.05 13-13.4 4.33-.25-.76c-.256-.9686-.707-1.8748-1.326-2.6633-.618-.7884-1.391-1.4424-2.27-1.9222-.88-.4797-1.848-.7751-2.846-.868-.997-.0929-2.003.0186-2.956.3277s-1.834.8092-2.587 1.4699-1.364 1.468-1.794 2.3727c-.431.9047-.673 1.8876-.711 2.8889-.038 1.0012.129 1.9996.49 2.9343l.25.76-13.4 4.34c-.636.1983-1.226.5217-1.735.9512-.51.4295-.928.9564-1.231 1.5498-.302.5935-.484 1.2414-.532 1.9058-.049.6644.035 1.3319.248 1.9632l3.13 9.72 50.4-16.3-3.13-9.72c-.195-.6364-.516-1.2274-.943-1.7383-.426-.5109-.951-.9315-1.542-1.237-.592-.3055-1.238-.4898-1.902-.5421-.664-.0524-1.331.0284-1.963.2374zm-20 7.78c-.606.1961-1.256.2083-1.869.035-.612-.1734-1.16-.5244-1.573-1.0088-.413-.4843-.673-1.0803-.748-1.7126-.074-.6323.04-1.2724.329-1.8396.29-.5672.74-1.0359 1.296-1.347.555-.311 1.191-.4504 1.825-.4005.635.0498 1.241.2867 1.741.6807s.872.9274 1.069 1.5328c.134.4076.186.8379.152 1.2658-.034.4278-.153.8445-.351 1.2256-.197.381-.469.7187-.799.9933-.33.2745-.711.4803-1.122.6053z" fill="#d0e3ff"/><path d="m162.12 42.3 50.41-16.31-1.94-5.81-50.46 15.92z" fill="#c4dbff"/><path d="m170.248 74.4897-2.144-.9387.803-1.832 2.143.9387c.243.1064.434.3049.53.5519.097.2471.091.5223-.015.7653-.106.2429-.305.4336-.552.5302-.247.0965-.522.091-.765-.0154z" fill="#f5872c"/><path d="m101.275 44.2087.754-1.7221c.087-.1992.25-.3556.453-.4348.202-.0792.428-.0746.627.0126l8.482 3.7146-1.416 3.2336-8.473-3.7107c-.201-.0883-.36-.253-.44-.4581-.08-.205-.075-.4335.013-.6351z" fill="#f5db8c"/><path d="m164.25 66.79 5.35 5-.95 2.21-7.32-.52-54.16-23.72c-.164-.0724-.292-.2065-.358-.3731-.065-.1666-.063-.3524.008-.5169l2.38-5.45c.074-.1645.21-.2932.379-.3587.168-.0654.355-.0623.521.0087z" fill="#bc6d83"/><path d="m132.13 52.28c.175-.4114.18-.8751.015-1.2905-.164-.4155-.486-.7494-.895-.9295l-12.87-5.63c-.254-.1119-.535-.1469-.809-.1007s-.528.1716-.731.3607c-.15.1301-.333.2158-.529.2476s-.398.0084-.581-.0676l-1.17-.41c-.054-.0249-.113-.0387-.173-.0406s-.119.0082-.175.0296-.107.0538-.15.0952c-.044.0413-.078.0909-.102.1458l-3 6.81c-.025.0544-.039.1132-.041.173-.001.0598.009.1194.03.1753s.054.1069.095.1501c.042.0432.091.0778.146.1016l2.36 1c.055.0246.114.0379.175.0391.06.0012.12-.0097.176-.0321s.107-.0558.149-.0982c.043-.0424.077-.093.1-.1488l2.72-6.27 14.39 6c.078.0359.162.0556.248.0579.085.0022.171-.013.25-.0449.08-.0318.152-.0795.212-.1402.061-.0607.108-.1331.14-.2128z" fill="#f5db8c"/><path d="m164.25 66.79 5.35 5.03-.95 2.17-7.32-.52z" fill="#f5db8c"/><path d="m506.17 113-1.93-4.32c-.008-.017-.021-.031-.037-.041s-.034-.015-.053-.015-.037.005-.053.015-.029.024-.037.041l-1.92 4.32c-.011.021-.029.039-.05.05l-4.32 1.95c-.017.008-.031.021-.041.037s-.015.034-.015.053.005.037.015.053.024.029.041.037l4.32 1.93c.012.004.022.011.031.019.008.009.015.019.019.031l1.92 4.32c.008.017.021.031.037.041s.034.015.053.015.037-.005.053-.015.029-.024.037-.041l1.93-4.32c.002-.013.008-.024.017-.033s.02-.015.033-.017l4.32-1.93c.017-.008.031-.021.041-.037s.015-.034.015-.053-.005-.037-.015-.053-.024-.029-.041-.037l-4.32-2c-.016.005-.034.005-.05 0z" fill="#fffebd"/><g fill="#fff"><path d="m446.732 42.2642c.519-.5194.519-1.3615 0-1.8809-.52-.5194-1.362-.5194-1.881 0l-2.39 2.39c-.519.5194-.519 1.3615 0 1.8809s1.361.5194 1.881 0z"/><path d="m439.384 49.6213c.52-.5194.52-1.3615 0-1.8809-.519-.5194-1.361-.5194-1.88 0l-2.391 2.39c-.519.5194-.519 1.3615 0 1.8809.52.5194 1.362.5194 1.881 0z"/><path d="m444.849 52.0047c.519.5194 1.361.5193 1.88 0 .52-.5194.52-1.3615 0-1.8809l-2.39-2.3901c-.519-.5194-1.361-.5194-1.88 0-.52.5194-.52 1.3615 0 1.8809z"/><path d="m437.496 44.6717c.519.5194 1.361.5194 1.881 0 .519-.5194.519-1.3615 0-1.8809l-2.39-2.39c-.52-.5194-1.362-.5194-1.881 0-.52.5194-.519 1.3615 0 1.8809z"/></g></svg>