<svg width="1304" height="332" viewBox="0 0 1304 332" fill="none" xmlns="http://www.w3.org/2000/svg">
<g clip-path="url(#clip0)">
<g clip-path="url(#clip1)">
<path d="M1304.23 0H-1V333H1304.23V0Z" fill="url(#paint0_linear)"/>
<g clip-path="url(#clip2)">
<path d="M1303 0H-1V332H1303V0Z" fill="#5865F2"/>
<path d="M-0.209961 332.43H436.47C359.65 227.65 295.05 283.67 295.05 283.67C295.05 283.67 280.03 184.91 233.37 220.99C196.16 77.55 140.15 105.33 140.15 105.33C132.82 12.92 26.63 5.69001 -0.209961 28.16V332.43Z" fill="#6874F6"/>
<path d="M1303.45 332.43H872.45C930.52 291.98 987.11 300.92 987.11 300.92C987.11 300.92 1034.77 238.8 1081.43 274.88C1101.5 128.75 1172.54 146.62 1172.54 146.62C1221.17 65.56 1276.61 81.42 1303.45 103.89V332.43Z" fill="#6874F6"/>
<path d="M891.68 0.609999C891.68 0.609999 894.32 49.59 904.95 76.6C904.95 76.6 1057 196.19 1303.54 22.16V0.279999H1212.22C1212.21 0.279999 1048.86 109.07 891.68 0.609999Z" fill="#808AFF"/>
<path d="M145.65 119.86C145.65 119.86 178.77 117.22 205.35 77.1L214.83 87.83C214.83 87.83 176.43 150.18 138.96 148.93L145.65 119.86Z" fill="#EB459F"/>
<path d="M59.95 121.43C59.95 121.43 25.78 125.03 23.02 146.47C20.26 167.91 45.38 150.15 45.38 150.15L57.1 138.26L59.95 121.43Z" fill="#EB459F"/>
<path d="M70.5 44C44.9 49.18 51.38 67.71 58.7 79.65C56.44 77.41 54.06 75.31 51.61 73.3C50.35 72.27 49.07 71.26 47.77 70.27L45.8 68.8C45.12 68.31 44.49 67.85 43.71 67.33L43.46 67.16C42.91 66.8 42.3 66.52 41.64 66.34C38.12 65.35 34.47 67.41 33.49 70.92C32.5 74.44 34.56 78.09 38.07 79.07C39.34 79.43 40.83 79.94 42.21 80.42C43.61 80.92 45.02 81.44 46.41 82C49.19 83.11 51.94 84.32 54.59 85.68C55.54 86.17 56.47 86.68 57.4 87.21C48.16 84.93 35.31 84.17 36.78 98.17C39.04 119.79 58.8 120.82 70.11 117.32C70.11 117.32 99.33 97.55 102.42 81.7C102.39 81.68 109.18 36.18 70.5 44Z" fill="#FF63AF"/>
<path d="M88.5771 98.7793C95.301 96.615 98.5131 87.9052 95.7514 79.3255C92.9897 70.7457 85.3001 65.545 78.5762 67.7093C71.8522 69.8737 68.6401 78.5834 71.4018 87.1632C74.1635 95.7429 81.8531 100.944 88.5771 98.7793Z" fill="white" stroke="#FFAB18" stroke-width="2.6359" stroke-miterlimit="10"/>
<path d="M78.2602 77.28C79.0402 76.99 79.6702 76.84 80.3902 76.72C81.0902 76.6 81.8002 76.55 82.5202 76.54C83.9502 76.54 85.4002 76.83 86.7102 77.45C88.0002 78.08 89.1902 78.95 90.0302 80.07L90.3702 80.47L90.6502 80.9L91.2002 81.77C91.5202 82.37 91.7802 82.99 92.0702 83.59C92.2502 83.96 92.0902 84.41 91.7202 84.58C91.3702 84.75 90.9602 84.62 90.7602 84.29L90.7002 84.19C90.3902 83.67 90.1102 83.13 89.7802 82.64L89.2402 81.94L88.9702 81.59L88.6602 81.29C87.8802 80.42 86.8902 79.85 85.8702 79.45C84.8402 79.07 83.7202 78.94 82.6002 79.04C82.0402 79.1 81.4802 79.18 80.9402 79.33C80.4102 79.46 79.8202 79.68 79.4202 79.87L79.3702 79.9C78.6602 80.24 77.8102 79.94 77.4702 79.23C77.1302 78.52 77.4302 77.67 78.1402 77.33C78.1802 77.31 78.2202 77.3 78.2602 77.28Z" fill="black"/>
<path d="M150.817 82.1351C156.744 80.8022 159.946 72.5932 157.968 63.7999C155.991 55.0065 149.583 48.9586 143.656 50.2915C137.729 51.6244 134.527 59.8333 136.505 68.6267C138.482 77.42 144.89 83.4679 150.817 82.1351Z" fill="white" stroke="#FFAB18" stroke-width="2.6359" stroke-miterlimit="10"/>
<path d="M149.71 61.9C149.12 61.99 148.32 62.26 147.68 62.59C147.02 62.93 146.42 63.36 145.93 63.89C145.43 64.42 145.03 65.04 144.79 65.75C144.51 66.45 144.43 67.23 144.38 68.03V68.1C144.35 68.51 144 68.82 143.59 68.8C143.21 68.78 142.92 68.48 142.89 68.11C142.82 67.18 142.79 66.21 143.03 65.25C143.22 64.29 143.65 63.34 144.24 62.53C144.82 61.71 145.56 61.01 146.38 60.44C147.23 59.88 148.03 59.44 149.11 59.11C149.86 58.88 150.66 59.3 150.89 60.06C151.12 60.81 150.7 61.61 149.94 61.84C149.88 61.86 149.81 61.87 149.75 61.88L149.71 61.9Z" fill="black"/>
<path d="M112.8 157.62L130.51 183.07C157.4 174.59 176.5 151.13 176.5 151.13L145.39 209.12L160.42 217.18L199.39 144.54C208.03 128.44 189.93 111.21 174.27 120.63L112.8 157.62Z" fill="#242145"/>
<path d="M207.71 191.41C207.71 191.41 200.02 185.09 169.82 201.26L178.31 183.88L171.28 187.39C166.74 189.66 161.43 189.84 156.74 187.9L141.06 217.13C141.06 217.13 137.41 227.02 148.62 227.63L207.71 191.41Z" fill="#FF78B9"/>
<path d="M203.77 190.27C199.8 189.9 187.83 198.79 174.25 205.42C163.74 210.55 152.03 214.02 145.06 214.53C143.37 214.65 141.87 215.63 141.07 217.12C141.07 217.12 137.42 227.01 148.63 227.62L207.72 191.41C207.71 191.41 206.65 190.54 203.77 190.27Z" fill="#EB459F"/>
<path d="M208.12 191.79C209.9 194.7 198.08 205.17 181.72 215.17C165.36 225.17 146.74 229.52 144.68 226.8C137.42 217.17 159.22 216.77 176.09 207.66C193.05 198.5 206.34 188.88 208.12 191.79Z" fill="black"/>
<path d="M52.8197 147.95C52.8197 147.95 45.7597 127.67 70.3597 110.76C76.8797 106.28 82.9497 101.15 88.1397 95.17C94.0897 88.3 100.96 78.67 106.39 66.29C118.52 38.6 146.41 40.82 145.2 74.38C145.19 74.38 97.0897 152.81 52.8197 147.95Z" fill="url(#paint1_linear)"/>
<path d="M141.42 79.99C143.7 74.19 143.15 66.45 140.76 59.48C140.18 57.78 136.89 51.16 129.63 51.96C125.16 52.45 121.06 54.88 118.1 58.27C115.14 61.66 113.12 65.75 111.05 69.75C108.54 74.6 104 87.07 100.99 92.47C88.4797 114.82 85.7197 118.76 70.2397 128.16C70.2397 128.14 131.7 104.69 141.42 79.99Z" fill="black"/>
<path d="M140.54 79.64C141.48 77.15 141.87 74.43 141.87 71.71C141.87 68.99 141.5 66.25 140.86 63.59C140.54 62.27 140.13 60.92 139.69 59.68C139.23 58.53 138.52 57.37 137.69 56.4C136.04 54.41 133.72 53.12 131.22 53.07C129.99 53.02 128.67 53.26 127.42 53.6C126.17 53.97 124.95 54.48 123.81 55.14C121.51 56.46 119.57 58.28 117.96 60.45C116.33 62.61 114.99 65.01 113.7 67.49C113.07 68.72 112.39 70.01 111.81 71.22C111.23 72.46 110.67 73.74 110.13 75.03C107.95 80.2 105.96 85.46 103.52 90.65C102.91 91.94 102.19 93.26 101.5 94.46L99.4198 98.15C98.0198 100.6 96.6198 103.06 95.1498 105.48C93.6898 107.91 92.1498 110.32 90.4698 112.65C89.6398 113.82 88.7398 114.95 87.8198 116.07L86.3598 117.68C85.8698 118.21 85.3298 118.71 84.8198 119.22C80.5798 123.25 75.5998 126.15 70.5598 128.7L69.9998 127.56C76.7598 124.88 83.4198 121.9 89.9698 118.74C96.5198 115.56 102.97 112.17 109.22 108.45C115.46 104.73 121.53 100.7 127.09 96.08C129.86 93.76 132.5 91.29 134.85 88.58C137.19 85.86 139.25 82.89 140.54 79.64ZM142.31 80.33C140.88 83.87 138.68 86.96 136.25 89.76C133.79 92.55 131.07 95.06 128.23 97.41C122.53 102.08 116.36 106.1 110.05 109.81C103.72 113.51 97.2198 116.87 90.6098 120.02C83.9998 123.15 77.3098 126.09 70.4698 128.74L66.0298 130.46L69.9098 127.6C74.4598 124.27 79.0598 121.1 82.8998 117.23C86.7698 113.4 89.8398 108.76 92.7298 103.98C94.1798 101.59 95.5698 99.16 96.9598 96.71C98.3198 94.26 99.7998 91.82 100.96 89.38C103.34 84.37 105.41 79.13 107.65 73.93C108.22 72.63 108.79 71.33 109.42 70.03C110.08 68.7 110.72 67.51 111.39 66.24C112.72 63.73 114.16 61.22 115.96 58.89C119.48 54.2 125.07 50.62 131.32 50.73C132.89 50.8 134.46 51.23 135.85 51.98C137.24 52.73 138.42 53.78 139.39 54.95C140.36 56.14 141.14 57.42 141.71 58.88C142.19 60.31 142.58 61.65 142.91 63.07C143.55 65.89 143.91 68.78 143.88 71.69C143.84 74.62 143.4 77.57 142.31 80.33Z" fill="#FFAB18"/>
<path d="M59.5698 141.28C59.5698 141.28 59.9098 137.86 62.8998 132.68C66.3698 126.66 72.1298 122.4 78.7598 120.31C93.9398 115.54 100.73 104.03 118.27 88.09C135.81 72.15 157.27 66.98 165.21 70.54C169.48 72.45 171.33 82.79 158.42 96.37C148.1 107.22 147.8 124.7 144.51 139.88C141.47 153.96 131.03 168.24 118.52 168.57H62.9298L59.5698 141.28Z" fill="url(#paint2_linear)"/>
<path d="M116.82 104.96C90.7199 133.56 70.3099 140.02 59.6499 141.95L59.9099 144.03L126.47 157.88L139.6 152.8C141.86 148.77 143.55 144.32 144.5 139.89C147.78 124.71 148.09 107.23 158.41 96.38C163.95 90.55 166.77 85.32 167.85 81.09C160.22 77.63 142.21 77.14 116.82 104.96Z" fill="#FFC619"/>
<path d="M68.2399 141.02L40.1899 151.42C36.2299 152.89 31.8299 150.87 30.3599 146.91C28.8899 142.95 30.9099 138.55 34.8699 137.08L62.9199 126.68L68.2399 141.02Z" fill="#EB459F"/>
<path d="M27.7598 188.72L69.7598 170.05L61.8298 129.86C38.8598 142.16 27.7598 188.72 27.7598 188.72Z" fill="#242145"/>
<path d="M123.81 144.45C114.89 146.69 105.53 144.13 98.4602 138.25C89.0702 130.44 74.6802 132.97 74.6802 132.97L80.1802 168.57H118.52C131.04 168.24 141.47 153.96 144.51 139.88C145.47 135.46 146.17 130.85 146.94 126.26C139.91 137.58 131.41 142.55 123.81 144.45Z" fill="#EB459F"/>
<path d="M46.55 166.11L15.71 200.9L43.76 332.43H124.28L46.55 166.11Z" fill="#8CD9FF"/>
<path d="M142.95 166.11H46.5498L81.8998 332.37H178.31L142.95 166.11Z" fill="url(#paint3_linear)"/>
<path d="M138.07 212.02C140.7 227.7 130.45 240.4 115.19 240.4C99.9297 240.4 85.4197 227.7 82.7997 212.02C80.1697 196.34 90.4197 183.64 105.68 183.64C120.94 183.64 135.44 196.35 138.07 212.02Z" fill="url(#paint4_linear)"/>
<path d="M87.71 224.51C91.82 230.88 97.97 235.91 104.89 238.49L108.41 223.4L101.19 217.45L87.71 224.51Z" fill="#606DFF"/>
<path d="M122.602 227.631C129.36 221.339 128.784 209.733 121.314 201.71C113.843 193.686 102.309 192.282 95.5504 198.574C88.7918 204.867 89.3687 216.472 96.8388 224.496C104.309 232.519 115.843 233.923 122.602 227.631Z" stroke="black" stroke-width="2.8427" stroke-miterlimit="10" stroke-linecap="round"/>
<path d="M120.04 225.151C125.695 219.886 125.212 210.175 118.961 203.461C112.71 196.747 103.059 195.572 97.4038 200.837C91.7488 206.102 92.2318 215.812 98.4826 222.526C104.733 229.241 114.385 230.415 120.04 225.151Z" fill="white"/>
<path d="M117.718 216.626C120.774 213.781 120.515 208.536 117.139 204.91C113.763 201.284 108.549 200.651 105.494 203.496C102.438 206.341 102.697 211.587 106.073 215.213C109.448 218.838 114.662 219.471 117.718 216.626Z" fill="black"/>
<path d="M144.98 262.67C146.89 274.07 139.44 283.31 128.34 283.31C117.24 283.31 106.69 274.07 104.78 262.67C102.87 251.27 110.32 242.03 121.42 242.03C132.52 242.03 143.07 251.27 144.98 262.67Z" fill="url(#paint5_linear)"/>
<path d="M108.35 271.75C111.34 276.39 115.81 280.04 120.85 281.92L123.41 270.95L118.15 266.62L108.35 271.75Z" fill="#606DFF"/>
<path d="M133.735 274.021C138.65 269.445 138.229 261.003 132.795 255.166C127.361 249.329 118.971 248.307 114.056 252.883C109.14 257.459 109.561 265.901 114.995 271.738C120.429 277.575 128.819 278.597 133.735 274.021Z" stroke="black" stroke-width="2.8427" stroke-miterlimit="10" stroke-linecap="round"/>
<path d="M130.918 271.201C134.56 267.81 134.251 261.558 130.228 257.237C126.205 252.916 119.991 252.162 116.349 255.552C112.707 258.943 113.016 265.195 117.039 269.516C121.062 273.837 127.276 274.591 130.918 271.201Z" fill="white"/>
<path d="M129.423 265.719C131.388 263.89 131.217 260.513 129.042 258.177C126.867 255.841 123.511 255.429 121.546 257.258C119.582 259.087 119.753 262.464 121.928 264.8C124.103 267.137 127.459 267.548 129.423 265.719Z" fill="black"/>
<path d="M111.07 318.69C109.22 318.69 107.53 318.5 106.05 318.14C100.45 316.76 96.6297 312.53 95.3697 311.13C88.0997 303.07 86.3397 292.34 91.3697 286.71C93.2797 284.57 95.9397 283.44 99.0597 283.44C103.95 283.44 109.43 286.28 113.72 291.03C114.43 291.82 115.11 292.66 115.73 293.53C116.43 294.5 117.79 295.08 119.38 295.08C120.05 295.08 120.74 294.98 121.42 294.78C122.7 294.4 124 294.06 125.27 293.78C128.71 293.01 131.95 292.62 134.88 292.62C140.04 292.62 143.86 293.88 145.64 296.16C146.7 297.52 147.02 299.19 146.57 300.99C144.98 307.33 133.6 314.56 120.66 317.46C118.28 317.99 114.7 318.69 111.07 318.69Z" fill="black"/>
<path d="M99.0598 284.87C103.39 284.87 108.49 287.36 112.67 291.99C113.36 292.76 114 293.55 114.58 294.36C115.57 295.74 117.37 296.51 119.39 296.51C120.18 296.51 121.01 296.39 121.83 296.15C123.06 295.78 124.32 295.45 125.59 295.17C129.01 294.4 132.16 294.04 134.89 294.04C141.97 294.04 146.24 296.47 145.2 300.64C143.75 306.41 132.63 313.32 120.36 316.07C118.15 316.56 114.64 317.28 111.08 317.28C109.49 317.28 107.89 317.14 106.4 316.77C101.57 315.58 98.1798 312.12 96.4398 310.19C89.7498 302.78 87.9598 292.69 92.4398 287.67C94.1098 285.78 96.4498 284.87 99.0598 284.87ZM99.0598 282.03C95.5198 282.03 92.4998 283.32 90.3098 285.77C84.7998 291.94 86.5598 303.5 94.3198 312.09C95.6498 313.56 99.6898 318.04 105.71 319.52C107.31 319.91 109.11 320.11 111.07 320.11C114.85 320.11 118.53 319.38 120.97 318.84C132.57 316.24 145.97 309.22 147.95 301.33C148.51 299.09 148.1 297 146.76 295.28C144.68 292.61 140.57 291.2 134.88 291.2C131.85 291.2 128.51 291.6 124.96 292.4C123.65 292.69 122.32 293.04 121.01 293.43C120.46 293.59 119.92 293.67 119.38 293.67C118.27 293.67 117.31 293.3 116.88 292.71C116.23 291.8 115.52 290.92 114.77 290.09C110.22 285.04 104.34 282.03 99.0598 282.03Z" fill="#5865F2"/>
<path d="M144.12 296.59C141.4 293.9 134.39 293.2 125.58 295.17C124.31 295.45 123.06 295.78 121.82 296.15C118.9 297.02 115.96 296.29 114.57 294.37C113.99 293.56 113.35 292.76 112.66 292C106.84 285.55 99.2196 283.25 94.3896 286.07C95.4896 289 97.9796 291.36 101.1 292.18C101.01 296.15 103.21 300.12 107.01 302.13C110.43 303.94 114.26 303.67 117.12 301.79C118.1 303.35 119.44 304.67 121.08 305.54C125.82 308.08 131.21 305.99 133.13 300.87C133.29 300.44 133.41 300.01 133.52 299.57C133.55 299.59 133.58 299.61 133.6 299.62C137.6 301.97 142.03 300.58 144.12 296.59Z" fill="white"/>
<path d="M107.44 130.52C107.44 130.52 116.34 129.03 116.99 119.15C116.99 119.15 122.87 119.14 124.01 112.39" stroke="#FFAB18" stroke-width="2.8427" stroke-miterlimit="10" stroke-linecap="round"/>
<path d="M79.2301 127.98C72.7901 125.93 66.9901 126.92 61.8301 129.85L74.2701 230.71L77.2101 254.54L93.0801 258.15C93.3101 251.41 93.4901 245.02 93.6301 238.97C93.6501 238.28 93.6601 237.59 93.6801 236.91C95.8101 140.72 87.3101 130.56 79.2301 127.98Z" fill="#242145"/>
<path d="M74.27 230.71L78.75 268.63L120.74 287.13C121.99 287.68 123.32 286.51 122.91 285.2C120.89 278.79 114.21 264.46 93.79 257.11L93.68 238.96C87.22 239.83 80.73 237.54 76.25 232.8L74.27 230.71Z" fill="#FF78B9"/>
<path d="M122.91 285.21C122.85 285.02 122.78 284.81 122.71 284.6C109.34 278.89 85.7899 268.92 78.4199 265.8L78.7599 268.64L120.74 287.14C121.99 287.68 123.32 286.51 122.91 285.21Z" fill="#EB459F"/>
<path d="M129.28 118.2C129.28 118.2 138.82 118.02 137.52 106.31C137.52 106.31 143.17 105.61 143.75 100.37C143.75 100.37 149.27 100.03 151.05 95.29" stroke="#FFAB18" stroke-width="2.8427" stroke-miterlimit="10" stroke-linecap="round"/>
<path d="M127 136.73C127 136.73 132.79 134.1 132.77 128.88C132.77 128.88 137.96 127.92 138.95 122.72" stroke="#FFAB18" stroke-width="2.8427" stroke-miterlimit="10" stroke-linecap="round"/>
<path d="M136.62 137.69C132.08 135.76 132.55 142.76 122.88 144.54C115.56 145.25 109.87 138.61 106.36 139.86C99.2699 142.4 106.31 158.02 106.31 158.02C106.31 158.02 115.25 146.41 122.33 145.97C129.41 145.53 132.45 153.88 132.45 153.88C132.45 153.88 140.07 139.16 136.62 137.69Z" fill="white"/>
<path d="M38.4302 137.31L51.9302 130.77" stroke="black" stroke-width="2.8427" stroke-miterlimit="10" stroke-linecap="round"/>
<path d="M210.05 50.63L219.28 59.08C222.07 61.63 225.99 62.54 229.61 61.46L254.93 53.94C257.28 53.24 259.81 53.71 261.75 55.21C263.25 56.36 262.94 58.7 261.2 59.43L236.75 69.69L223.06 76.37L214.82 87.83L205.34 77.1L209.35 70.56C211.29 67.39 211.08 63.36 208.81 60.41L204.9 55.34C204.23 54.47 204.01 53.34 204.29 52.28C204.99 49.77 208.12 48.86 210.05 50.63Z" fill="#FFC619"/>
<path d="M239.97 73.7C241.92 70.37 239.71 66 236.11 66.07C231.39 66.15 225.8 66.27 222.55 66.42C220.96 66.49 219.53 67.52 218.83 69.09L216.15 75.09C215.24 77.13 215.76 79.6 217.4 80.99C218.96 82.31 221 84 222.97 85.61C226.13 88.2 230.43 87.78 233.14 84.91C233.66 84.36 234.31 83.93 235.02 83.83C236.25 83.65 237.84 82.18 238.98 80C240.17 77.74 240.51 75.41 239.95 74.18C239.89 74.02 239.89 73.84 239.97 73.7Z" fill="#FFAB18"/>
<path d="M227.32 70.48L219.41 68.12C219.19 68.41 218.99 68.73 218.83 69.09L218.11 70.7L226.51 73.21C226.65 73.25 226.78 73.27 226.92 73.27C227.53 73.27 228.1 72.87 228.28 72.25C228.5 71.5 228.07 70.71 227.32 70.48Z" fill="#E89300"/>
<path d="M224.51 75.83L216.84 73.54L216.15 75.09C215.99 75.45 215.89 75.83 215.81 76.2L223.69 78.55C223.83 78.59 223.96 78.61 224.1 78.61C224.71 78.61 225.28 78.21 225.46 77.59C225.69 76.85 225.26 76.06 224.51 75.83Z" fill="#E89300"/>
<path d="M86.1701 127.7C86.0901 127.24 84.6201 122.54 80.1101 122.41C79.2301 122.38 78.3901 122.45 77.6201 122.68C76.1301 121.61 73.8901 121.11 71.5001 121.46C68.4001 121.92 65.9701 123.69 65.2601 125.76C64.0001 125.51 62.5901 125.74 61.3601 126.54C59.1101 127.99 58.3001 130.72 59.4201 132.77C60.1401 134.77 61.9301 137.02 62.5701 139.05C64.4801 145.07 64.2001 148.22 66.9901 149.45C68.3801 150.07 70.9301 150.12 73.6401 149.86C76.3501 149.6 79.2201 149.03 81.2601 148.42C85.3301 147.19 86.6901 145.1 87.0801 138.6C87.3501 133.8 86.6201 130.16 86.1701 127.7Z" fill="#FFAB18"/>
<path d="M71.7702 149.99C72.3802 149.97 73.0002 149.92 73.6402 149.86C73.9702 149.83 74.3002 149.79 74.6302 149.75C75.0002 142.11 72.7402 137.38 72.6302 137.15C72.2802 136.44 71.4302 136.16 70.7302 136.5C70.0302 136.85 69.7302 137.7 70.0802 138.4C70.0902 138.46 72.1902 142.84 71.7702 149.99Z" fill="#E89300"/>
<path d="M81.2502 148.42C82.1102 148.16 82.8302 147.86 83.4702 147.49C83.8902 141.26 82.5102 136.89 82.4402 136.65C82.2002 135.9 81.4002 135.5 80.6502 135.74C79.9002 135.98 79.4902 136.78 79.7302 137.53C79.7502 137.59 81.2002 142.24 80.5102 148.63C80.7702 148.56 81.0102 148.49 81.2502 148.42Z" fill="#E89300"/>
<path d="M177.07 149.44L181.3 141.1" stroke="black" stroke-width="2.8427" stroke-miterlimit="10" stroke-linecap="round"/>
<g opacity="0.5">
<g opacity="0.5">
<path opacity="0.5" d="M39.3703 288.63C39.0203 288.27 38.8203 287.82 38.7903 287.36L38.3503 279.13C38.3203 278.58 38.5503 278.08 38.9803 277.76L44.8203 273.45C45.1103 273.24 45.4603 273.12 45.8403 273.12C46.4203 273.12 46.9903 273.37 47.4103 273.81L53.8403 280.51C54.1903 280.87 54.3903 281.32 54.4103 281.78L54.8403 289.99C54.8703 290.54 54.6403 291.04 54.2103 291.36L47.0503 296.64L39.3703 288.63Z" fill="white"/>
<path opacity="0.5" d="M45.8601 274.09C46.1601 274.09 46.4901 274.23 46.7301 274.49L53.1601 281.19C53.3401 281.38 53.4501 281.61 53.4701 281.84L53.9001 290.05C53.9101 290.27 53.8201 290.47 53.6601 290.59L47.1901 295.36L40.0701 287.96C39.8901 287.77 39.7701 287.53 39.7601 287.31L39.3201 279.08C39.3101 278.86 39.4001 278.66 39.5601 278.54L45.4001 274.23C45.5401 274.13 45.6901 274.09 45.8601 274.09ZM45.8601 272.15C45.2701 272.15 44.7201 272.33 44.2601 272.66L38.4201 276.97C37.7301 277.48 37.3501 278.3 37.3901 279.17L37.8301 287.4C37.8701 288.09 38.1701 288.76 38.6801 289.29L45.8001 296.69L46.9801 297.92L48.3501 296.91L54.8201 292.14C55.5101 291.63 55.8901 290.81 55.8501 289.94L55.4201 281.73C55.3801 281.04 55.0801 280.37 54.5801 279.84L48.1501 273.14C47.5301 272.51 46.7001 272.15 45.8601 272.15Z" fill="white"/>
</g>
<g opacity="0.5">
<path opacity="0.5" d="M46.0401 273.76L39.3101 278.73L39.7801 287.66L47.1901 295.36L53.9201 290.39L53.4501 281.49L46.0401 273.76ZM50.3101 288.4L46.9401 290.88L43.2401 287.02L42.9101 280.73L46.2801 278.25L49.9801 282.11L50.3101 288.4Z" fill="#FA6EF6"/>
<path opacity="0.5" d="M46.04 273.76L46.28 278.24L49.98 282.1L53.45 281.48L46.04 273.76Z" fill="#FFADFB"/>
<path opacity="0.5" d="M43.24 287.01L39.77 287.65L47.18 295.35L46.94 290.87L43.24 287.01Z" fill="#E655D4"/>
<path opacity="0.5" d="M42.9102 280.72L43.2402 287.01L46.9402 290.87L50.3102 288.39L49.9802 282.1L46.2802 278.24L42.9102 280.72Z" fill="#FFCFF9"/>
<path opacity="0.5" d="M49.9799 282.1V282.13L43.2699 287.05L43.2399 287.04L43.1499 285.33L48.9599 281.05L49.9799 282.1Z" fill="white"/>
<path opacity="0.5" d="M50.1099 284.48L50.1999 286.22L45.6899 289.57L44.6699 288.49L50.1099 284.48Z" fill="white"/>
</g>
</g>
<g opacity="0.5">
<g opacity="0.5">
<path opacity="0.5" d="M31.3001 231.32C29.4601 231.32 28.0801 230.06 27.8601 228.18C27.7401 227.15 27.9701 226.04 28.5101 225C27.7801 224.45 27.3101 223.59 27.1901 222.56C26.9101 220.18 28.5301 217.49 30.8901 216.42L32.2001 215.83C32.1301 215.71 32.0601 215.58 31.9801 215.44C29.9601 211.74 29.6601 209.27 31.0701 208.11C31.4201 207.82 31.8501 207.67 32.3001 207.67C33.6201 207.67 35.0001 208.98 36.5201 211.67C36.5401 211.49 36.5601 211.3 36.5801 211.11C37.3101 204.6 38.7401 203.56 39.7501 203.36C39.8601 203.34 39.9701 203.33 40.0801 203.33C40.5301 203.33 40.9501 203.52 41.2701 203.88C41.7801 204.45 42.4001 205.78 41.8501 210.67C41.8201 210.97 41.7801 211.25 41.7501 211.52L42.6801 211.1C43.3201 210.81 43.9701 210.66 44.6001 210.66C46.4401 210.66 47.8201 211.92 48.0401 213.8C48.1601 214.83 47.9301 215.94 47.3901 216.98C48.1201 217.53 48.5901 218.39 48.7101 219.42C48.9901 221.79 47.3701 224.49 45.0101 225.56L33.2301 230.9C32.5801 231.17 31.9301 231.32 31.3001 231.32Z" fill="white"/>
<path opacity="0.5" d="M40.0901 204.31C40.9201 204.31 41.3701 206.07 40.8601 210.53C40.7401 211.61 40.6001 212.48 40.4501 213.18L43.0901 211.98C43.6101 211.74 44.1301 211.63 44.6001 211.63C45.8901 211.63 46.8801 212.47 47.0501 213.88C47.1901 215.03 46.7501 216.3 45.9601 217.33C46.9001 217.58 47.5801 218.34 47.7201 219.49C47.9501 221.43 46.5501 223.72 44.6001 224.6L32.8201 229.94C32.3001 230.18 31.7801 230.29 31.3101 230.29C30.0201 230.29 29.0301 229.45 28.8601 228.04C28.7201 226.89 29.1601 225.62 29.9501 224.59C29.0101 224.34 28.3301 223.58 28.1901 222.43C27.9601 220.49 29.3601 218.2 31.3101 217.32L33.6501 216.26C33.4101 215.89 33.1501 215.46 32.8701 214.95C30.9801 211.47 30.8901 209.54 31.7201 208.87C31.8901 208.73 32.0901 208.65 32.3101 208.65C33.1501 208.65 34.3601 209.74 35.8601 212.5C36.3701 213.43 36.7001 214.18 36.9101 214.79L37.4201 214.56C37.3701 213.82 37.4101 212.75 37.5901 211.21C38.1201 206.52 39.0601 204.51 39.9701 204.32C40.0001 204.32 40.0401 204.31 40.0901 204.31ZM40.0901 202.31C39.9101 202.31 39.7301 202.33 39.5501 202.37C37.7201 202.75 36.5601 204.78 35.8801 208.88C34.6901 207.38 33.5201 206.67 32.3001 206.67C31.6201 206.67 30.9701 206.9 30.4401 207.34C28.6801 208.78 28.8101 211.48 30.8101 215.37L30.4801 215.52C27.7501 216.76 25.8701 219.91 26.2001 222.69C26.3201 223.69 26.7101 224.56 27.3101 225.24C26.9101 226.25 26.7501 227.31 26.8701 228.3C27.1501 230.67 28.9801 232.32 31.3101 232.32C32.0801 232.32 32.8701 232.14 33.6401 231.79L45.4201 226.45C48.1501 225.21 50.0301 222.06 49.7001 219.28C49.5801 218.28 49.1901 217.41 48.5901 216.73C48.9901 215.72 49.1501 214.66 49.0301 213.67C48.7501 211.31 46.9201 209.65 44.5901 209.65C44.0401 209.65 43.4801 209.74 42.9301 209.92C43.3501 205.4 42.7101 203.98 42.0101 203.21C41.5101 202.63 40.8201 202.31 40.0901 202.31Z" fill="white"/>
</g>
<path opacity="0.5" d="M40.8602 210.54C40.3302 215.23 39.5402 215.91 38.6302 216.1C37.7202 216.29 37.0502 215.91 37.5802 211.22C38.1102 206.53 39.0502 204.52 39.9602 204.33C40.8602 204.14 41.3902 205.85 40.8602 210.54Z" fill="#E9459D"/>
<path opacity="0.5" d="M39.8201 212.42C39.5101 215.63 39.1701 216.06 38.7901 216.15C38.4101 216.24 38.1401 215.94 38.4501 212.74C38.7601 209.54 39.1901 208.19 39.5701 208.11C39.9501 208.03 40.1301 209.21 39.8201 212.42Z" fill="#FF78B7"/>
<path opacity="0.5" d="M32.8603 214.96C34.7503 218.44 35.6403 218.29 36.4603 217.61C37.2803 216.93 37.7403 215.99 35.8403 212.51C33.9503 209.03 32.5303 208.2 31.7003 208.88C30.8903 209.56 30.9703 211.48 32.8603 214.96Z" fill="#E9459D"/>
<path opacity="0.5" d="M33.9403 215.07C34.9903 217 35.4403 216.95 35.8403 216.61C36.2403 216.28 36.4503 215.79 35.4003 213.86C34.3503 211.93 33.6103 211.44 33.2003 211.77C32.8103 212.11 32.9003 213.14 33.9403 215.07Z" fill="#FF78B7"/>
<path opacity="0.5" d="M43.9303 219.01L32.1503 224.35C30.1903 225.24 28.4203 224.38 28.1903 222.45C27.9603 220.51 29.3603 218.22 31.3103 217.34L43.0903 212C45.0503 211.11 46.8203 211.97 47.0503 213.9C47.2803 215.83 45.8803 218.12 43.9303 219.01Z" fill="#E9459D"/>
<path opacity="0.5" d="M44.6002 224.63L32.8202 229.97C30.8602 230.86 29.0902 230 28.8602 228.07C28.6302 226.13 30.0302 223.84 31.9802 222.96L43.7602 217.62C45.7202 216.73 47.4902 217.59 47.7202 219.52C47.9502 221.45 46.5502 223.74 44.6002 224.63Z" fill="#E9459D"/>
<path opacity="0.5" d="M41.3594 218.438C41.6523 217.728 41.6457 217.052 41.3445 216.928C41.0433 216.803 40.5617 217.278 40.2687 217.987C39.9758 218.697 39.9824 219.373 40.2836 219.497C40.5848 219.622 41.0664 219.147 41.3594 218.438Z" fill="#1C1927"/>
<path opacity="0.5" d="M35.6818 221.623C36.0939 221.366 36.174 220.751 35.8608 220.25C35.5475 219.749 34.9595 219.551 34.5474 219.809C34.1353 220.066 34.0552 220.681 34.3685 221.183C34.6817 221.684 35.2697 221.881 35.6818 221.623Z" fill="#1C1927"/>
<path opacity="0.5" d="M39.5201 221.01C38.3601 221.33 37.0601 222.2 37.0601 222.2C37.3501 223.28 37.7301 223.93 38.2601 223.79C38.8201 223.64 39.4301 222.89 39.5201 221.01Z" fill="#850035"/>
<path opacity="0.5" d="M38.2601 223.8C38.6001 223.71 38.9601 223.39 39.2101 222.74C39.0201 222.27 38.6801 222.01 38.2701 222.13C37.9201 222.23 37.5901 222.57 37.3501 223.04C37.5901 223.6 37.8901 223.9 38.2601 223.8Z" fill="#B8004A"/>
</g>
<path d="M56.6399 274.73L56.5399 274.72C55.9399 274.65 55.4499 274.17 55.3499 273.55L54.7599 270.01C54.4499 268.17 53.4399 266.44 51.9899 265.27L51.5599 264.93C51.2399 264.67 51.0399 264.28 51.0299 263.87C51.0099 263.36 51.2599 262.91 51.6599 262.68L52.0699 262.44C53.3699 261.68 54.2099 260.28 54.3999 258.59L54.7699 255.17C54.8399 254.51 55.3899 254.02 56.0399 254.02H56.0999L56.1999 254.03C56.7999 254.1 57.2899 254.58 57.3899 255.2L57.9799 258.74C58.2899 260.58 59.2999 262.31 60.7499 263.48L61.1799 263.82C61.5099 264.08 61.6999 264.47 61.7099 264.88C61.7299 265.39 61.4799 265.84 61.0799 266.07L60.6699 266.31C59.3699 267.07 58.5299 268.47 58.3399 270.16L57.9699 273.58C57.8999 274.24 57.3499 274.73 56.6999 274.73H56.6399V274.73Z" fill="#A3FFBA"/>
<path d="M56.0398 255.02C56.0498 255.02 56.0598 255.02 56.0798 255.02C56.2398 255.04 56.3798 255.18 56.4098 255.36L56.9998 258.9C57.3498 260.98 58.4898 262.93 60.1298 264.25L60.5598 264.59C60.6498 264.67 60.7098 264.78 60.7198 264.9V264.92C60.7198 265.04 60.6698 265.14 60.5798 265.2L60.1698 265.44C58.5998 266.36 57.5698 268.04 57.3498 270.05L56.9798 273.47C56.9598 273.63 56.8498 273.73 56.7098 273.73C56.6998 273.73 56.6898 273.73 56.6698 273.73C56.5098 273.71 56.3698 273.57 56.3398 273.39L55.7498 269.85C55.3998 267.77 54.2598 265.82 52.6198 264.5L52.1898 264.16C52.0998 264.08 52.0398 263.97 52.0298 263.85V263.83C52.0298 263.71 52.0798 263.61 52.1698 263.55L52.5798 263.31C54.1498 262.39 55.1798 260.71 55.3998 258.7L55.7698 255.28C55.7798 255.12 55.8898 255.02 56.0398 255.02ZM56.0398 253.02C54.8798 253.02 53.9098 253.9 53.7798 255.06L53.4098 258.48C53.2598 259.85 52.5898 260.98 51.5698 261.58L51.1598 261.82C50.4398 262.24 49.9998 263.03 50.0298 263.89C50.0498 264.62 50.3798 265.28 50.9298 265.72L51.3598 266.06C52.6198 267.08 53.4998 268.58 53.7698 270.18L54.3598 273.72C54.5298 274.76 55.3798 275.58 56.4098 275.71L56.5298 275.73H56.6898C57.8498 275.73 58.8198 274.85 58.9498 273.69L59.3198 270.27C59.4698 268.9 60.1398 267.77 61.1598 267.17L61.5698 266.93C62.2898 266.51 62.7298 265.72 62.6998 264.86C62.6798 264.13 62.3498 263.47 61.7998 263.03L61.3698 262.69C60.1098 261.67 59.2298 260.17 58.9598 258.57L58.3698 255.03C58.1998 253.99 57.3498 253.17 56.3198 253.04L56.1998 253.02H56.0398Z" fill="#CFF4FF"/>
<path d="M64.6998 152.98C64.5998 152.2 63.8998 151.64 63.1198 151.74C62.3398 151.84 61.7898 152.54 61.8798 153.32L63.4498 166.09H66.3098L64.6998 152.98Z" fill="black"/>
<path d="M368.26 259.45C368.06 257.64 366.84 256.1 365.16 255.42C364.57 255.18 363.92 254.95 363.25 254.76C360.29 253.94 357.18 255.48 355.94 258.28C354.72 261.04 353.01 264.75 351.78 266.95L344.32 266.1C342.97 265.95 341.65 266.57 340.9 267.7C336.7 274.05 335.81 281.9 336.51 286.05C336.73 287.37 337.82 288.37 339.15 288.53L357.02 290.61C358.52 290.79 359.97 290.03 360.72 288.71C362.52 285.55 363.06 282.66 363.18 280.78C363.29 279.13 363.67 277.5 364.36 275.99C367.48 269.18 368.81 264.52 368.26 259.45Z" fill="#2CCB7A"/>
<path d="M365.16 255.42C364.57 255.18 363.92 254.95 363.25 254.76C361.8 254.36 360.31 254.52 359.02 255.13C360.72 254.25 363.06 256.95 362.48 259.08C361.9 261.22 360.49 265.75 360.62 267.86C360.75 269.97 362.53 270.79 363.91 270.86C364.81 270.91 366.93 264.42 368.29 259.88C368.28 259.74 368.27 259.59 368.25 259.45C368.06 257.64 366.84 256.11 365.16 255.42Z" fill="#59F186"/>
<path d="M357.01 290.61C358.51 290.79 359.96 290.03 360.71 288.71C362.51 285.55 363.05 282.66 363.17 280.78C363.28 279.13 363.66 277.5 364.35 275.99C367.48 269.18 368.8 264.52 368.25 259.45C368.05 257.64 366.85 256.05 365.17 255.36C364.58 255.12 363.93 254.89 363.26 254.7C362.77 254.56 362.25 254.55 361.76 254.54C364.48 254.68 366.29 257.54 365.13 263.3C363.46 271.58 361.58 272.73 360.76 276.77C360.02 280.37 359.36 285.89 356.08 290.49L357.01 290.61Z" fill="black"/>
<path d="M354.47 280.94C354.66 280.43 354.8 279.89 354.88 279.32C355.52 274.97 352.5 270.92 348.15 270.29L306.96 264.27C303.24 263.73 299.64 265.86 298.34 269.39L292.94 283.99C291.41 288.12 293.52 292.7 297.65 294.22C301.78 295.75 306.36 293.64 307.88 289.51L311.04 280.96L345.85 286.04C349.64 286.6 353.2 284.39 354.47 280.94Z" fill="#FFC619"/>
<path d="M324.25 275.52C325.34 269.97 323.98 266.69 322.24 266.5L348.16 270.29C352.51 270.93 355.53 274.97 354.89 279.32C354.81 279.88 354.67 280.42 354.48 280.94C353.2 284.39 349.65 286.6 345.86 286.05L319.42 282.19C320.12 282.29 323.15 281.08 324.25 275.52Z" fill="white"/>
<path d="M329.46 276.28C330.55 270.73 329.19 267.52 327.45 267.26L331.25 267.81C332.99 268.08 334.35 271.28 333.26 276.83C332.17 282.39 329.13 283.6 328.42 283.49L324.62 282.94C325.33 283.05 328.37 281.85 329.46 276.28Z" fill="#5765F1"/>
<path d="M341.27 269.28C342.25 269.42 344.48 270.01 344.23 274.49C343.9 280.31 341.17 285.36 339.68 285.14L337.58 284.83L337.3 285.91L349.9 287.74L356.94 281.74L355.75 272.41L351.14 268.38L342.96 267.75L341.27 269.28Z" fill="#2CCB7A"/>
<path d="M193.39 283.95C192.24 284.82 190.68 284.93 189.44 284.18L181.7 279.49C179.8 278.34 178.71 276.23 179.13 274.32C179.15 274.23 179.17 274.13 179.2 274.04C179.79 271.65 179.48 269.03 178.32 266.62C176.04 261.89 175.25 257.57 176.83 253.79C178.95 248.74 181.73 245.02 187.1 246.45C191.75 247.69 191.49 251.06 195.55 259.54C196.32 261.14 197.54 262.49 199.06 263.4L201.09 264.63C202.2 265.31 202.87 266.54 202.8 267.85C202.49 273.47 199.09 279.63 193.39 283.95Z" fill="#2CCB7A"/>
<path d="M191.35 249.9C190.38 248.07 189.28 247.01 187.1 246.43C181.9 245.05 179.12 248.5 177.03 253.31C177.07 258.23 177.57 264.22 179.72 265.59C183.51 268 183.13 263.67 182.91 261.12C182.62 257.76 184.15 254.97 185.73 252.37C187.29 249.8 190.13 247.61 191.35 249.9Z" fill="#59F186"/>
<path d="M180.85 274.15C181.84 272.06 182.07 269.14 180.72 266.35C179.36 263.56 178.14 258.23 180.74 252.43C182.73 248 185.47 245.99 187.55 246.56C181.68 244.6 178.74 249.22 176.83 253.77C175.25 257.55 176.04 261.87 178.32 266.6C179.48 269.01 179.79 271.63 179.2 274.02C179.18 274.11 179.15 274.21 179.13 274.3C178.71 276.22 179.8 278.32 181.7 279.47C180.52 278.55 179.86 276.24 180.85 274.15Z" fill="black"/>
<path d="M189.05 267.81C191.63 265.74 195.34 265.43 198.29 267.31L221.81 282.23C223.98 283.61 225.35 285.95 225.49 288.52C225.63 291.09 224.52 293.57 222.51 295.17L215.54 300.74C212.11 303.49 207.09 302.93 204.35 299.5C202.06 296.64 203.05 294.6 204.31 290L189.75 280.76C186.04 278.4 184.94 273.48 187.29 269.77C187.79 269 188.39 268.35 189.05 267.81Z" fill="#FFC619"/>
<path d="M189.05 267.81C191.63 265.74 195.34 265.43 198.29 267.31L221.81 282.23C223.98 283.61 225.35 285.95 225.49 288.52C225.63 291.09 224.52 293.57 222.51 295.17L215.54 300.74C212.11 303.49 207.09 302.93 204.35 299.5C202.06 296.64 203.05 294.6 204.31 290L189.75 280.76C186.04 278.4 184.94 273.48 187.29 269.77C187.79 269 188.39 268.35 189.05 267.81Z" fill="#FFC619"/>
<path d="M203.76 291.98L209.23 295.45C209.69 295.74 210.3 295.6 210.59 295.15C210.88 294.69 210.75 294.08 210.29 293.79L204.32 290C204.12 290.72 203.94 291.37 203.76 291.98Z" fill="black"/>
<path d="M189.76 280.76L205.82 290.96C205.21 290.58 203.7 287.68 206.5 282.75C209.3 277.82 212.43 276.28 213.92 277.23L198.3 267.31C195.35 265.44 191.64 265.75 189.06 267.81C188.39 268.35 187.8 269 187.31 269.76C184.95 273.48 186.05 278.4 189.76 280.76Z" fill="white"/>
<path d="M197.87 285.91L201.45 288.18C200.84 287.8 199.33 284.9 202.13 279.97C204.93 275.04 208.06 273.5 209.55 274.45L205.97 272.18C204.48 271.24 201.35 272.78 198.55 277.7C195.75 282.63 197.27 285.52 197.87 285.91Z" fill="#5765F1"/>
<path d="M191.82 282.07C191.22 281.69 190.14 279.07 192.94 274.15C195.74 269.22 198.16 267.24 199.65 268.18L200.35 268.62L200.98 267.51L193.64 263.36L184.95 267.34L183.44 276.63L185.36 280.17L191.06 283.68L192.78 282.69L191.82 282.07Z" fill="#2CCB7A"/>
<path d="M291.1 274.91C299.85 294.93 290.19 319.01 268.82 327.07C247.45 335.14 225.15 323.13 219.47 301.95C214.24 282.44 225.21 262.08 243.62 255.13C262.03 248.18 283.04 256.47 291.1 274.91Z" fill="#FF78B8"/>
<path d="M270.03 262.77C267.4 259.03 262.6 256.81 259.31 257.8C259.17 257.84 259.04 257.9 258.91 257.95L258.9 257.94C257.4 258.5 256.64 259.68 255.77 261.83C255.36 262.85 254.26 263.45 253.32 263.17C251.17 262.52 247.96 262.12 244.92 263.27C241.24 264.66 239.64 269.17 241.34 273.35C243.04 277.53 247.4 279.79 251.07 278.41C251.27 278.33 251.48 278.24 251.68 278.14C251.72 278.12 251.77 278.09 251.81 278.07C253.97 276.93 256.02 274.46 257.78 271.21C258.18 270.46 259.09 270.03 259.81 270.26C264.36 271.75 267.48 271.84 268.82 271.34C272.13 270.35 272.66 266.51 270.03 262.77Z" fill="white"/>
<path d="M251.659 278.174C255.165 276.419 256.368 271.721 254.346 267.681C252.323 263.641 247.841 261.789 244.335 263.545C240.828 265.3 239.625 269.998 241.648 274.038C243.671 278.078 248.153 279.93 251.659 278.174Z" fill="white"/>
<path d="M270.829 270.039C272.788 267.625 271.351 263.213 267.619 260.186C263.888 257.159 259.275 256.663 257.316 259.077C255.357 261.492 256.794 265.904 260.525 268.931C264.257 271.958 268.87 272.454 270.829 270.039Z" fill="white"/>
<path d="M251.082 270.96C252.052 270.285 252.122 268.708 251.238 267.439C250.355 266.17 248.852 265.689 247.882 266.365C246.912 267.04 246.842 268.616 247.726 269.885C248.61 271.154 250.113 271.636 251.082 270.96Z" fill="black"/>
<path d="M264.412 265.826C265.257 265.186 265.185 263.668 264.251 262.435C263.317 261.203 261.874 260.723 261.029 261.363C260.184 262.004 260.256 263.522 261.19 264.755C262.124 265.987 263.567 266.467 264.412 265.826Z" fill="black"/>
<path d="M270.543 271.949C274.425 270.382 275.858 264.865 273.744 259.626C271.63 254.387 266.769 251.41 262.887 252.976C259.005 254.543 257.572 260.06 259.686 265.299C261.8 270.538 266.661 273.515 270.543 271.949Z" stroke="#5865F2" stroke-width="2.9513" stroke-miterlimit="10"/>
<path d="M252.009 279.303C256.096 277.653 257.666 271.999 255.517 266.673C253.368 261.346 248.312 258.366 244.226 260.015C240.139 261.664 238.568 267.319 240.717 272.645C242.867 277.971 247.922 280.952 252.009 279.303Z" stroke="#5865F2" stroke-width="2.9513" stroke-miterlimit="10"/>
<path d="M254.64 264.26L258.98 262.63" stroke="#5865F2" stroke-width="2.9513" stroke-miterlimit="10"/>
<path d="M259 276.99L266.1 274.87C266.89 274.64 267.69 275.17 267.8 275.98C268.23 279.39 268.24 286.72 258.57 279.31C257.71 278.66 257.96 277.3 259 276.99Z" fill="black"/>
<path d="M264.69 279.29C262.8 279.29 261.1 279.68 259.93 280.3C265.56 284.16 267.36 282.29 267.81 279.67C266.88 279.43 265.82 279.29 264.69 279.29Z" fill="#E53794"/>
<path d="M223.87 293.72C222.66 290.41 214.92 265.72 211.12 253.55C209.92 249.7 211.77 245.56 215.44 243.89C219.79 241.92 224.89 244.17 226.35 248.72L240.25 293.1L223.87 293.72Z" fill="#FFD635"/>
<path d="M218.9 254.9C215.54 255.51 212.24 253.53 211.19 250.28L207.95 240.22L221.5 237.78L224.18 246.1C225.45 250.02 222.96 254.16 218.9 254.9Z" fill="#D01582"/>
<path d="M221.67 236.92L214.62 229.96C214.24 228.48 213.98 226.57 213.84 224.79C213.73 223.33 213.03 221.93 211.81 221.11C210.03 219.92 207.75 220.09 206.2 221.42C202.98 224.18 201.26 225.88 199.77 227.19C197.97 228.78 197.75 232.01 199.34 235.96C200.94 239.94 200.73 241.17 207.18 244.67L214.23 247.96C217.54 249.51 221.37 247.22 221.57 243.57C221.87 238.3 221.67 236.92 221.67 236.92Z" fill="#D01582"/>
<path d="M219.47 246.11L212.72 242.43L220.47 228.22C221.64 226.08 224.32 225.29 226.46 226.46C228.6 227.63 229.39 230.31 228.22 232.45L221.02 245.66C220.72 246.21 220.03 246.41 219.47 246.11Z" fill="#D01582"/>
<path d="M342.91 310.31H314.35L282.7 289.34H311.25L342.91 310.31Z" fill="#3F99F2"/>
<path d="M305.39 289.34H193.46V332.42H305.39V289.34Z" fill="#3F99F2"/>
<path d="M311.25 289.34H236.19V332.42H311.25V289.34Z" fill="#8CD9FF"/>
<path d="M161.8 310.31H204.54L236.19 289.34H193.46L161.8 310.31Z" fill="#8CD9FF"/>
<path d="M311.3 296.92L306.61 289.34L293.93 268.86C292.45 266.46 289.81 265.03 286.99 265.09C284.17 265.15 281.6 266.69 280.22 269.15L275.48 277.58C273.93 280.34 272.79 285.05 273.54 289.33H287.87L297.75 305.29C300.07 309.03 304.97 310.18 308.71 307.87C309.9 307.14 310.82 306.14 311.46 305.01C312.84 302.58 312.88 299.48 311.3 296.92Z" fill="#FFD635"/>
<path d="M290.34 293.33C289.47 291.93 290 287.4 294.4 283.58C298.69 279.85 301.9 281.75 303.19 283.83L311.3 296.93C312.88 299.48 312.84 302.58 311.47 305.03C310.83 306.17 309.91 307.16 308.72 307.89C304.98 310.21 300.07 309.05 297.76 305.31L290.34 293.33Z" fill="white"/>
<path d="M292.64 297.05C291.77 295.65 292.3 291.12 296.7 287.3C300.99 283.57 304.2 285.47 305.49 287.55L307.34 290.54C306.05 288.46 302.84 286.56 298.55 290.29C294.15 294.11 293.62 298.64 294.49 300.04L292.64 297.05Z" fill="#5765F1"/>
<path d="M298.57 311.46C295.8 307.43 294.97 305.64 300.61 298.47C306.25 291.3 310.8 292.5 311.82 294.11C312.26 294.8 313.2 296.49 313.2 296.49C315.9 292.8 319.72 289.7 324.14 292.14C328.96 294.81 332.23 300.09 325.11 309.46C317.99 318.84 312.41 322.1 309.21 322.06C306.02 322.01 303.18 318.16 298.57 311.46Z" fill="#2CCB7A"/>
<path d="M312.71 305.03C310.52 302.87 309.81 301.14 313.2 296.49C315.9 292.8 319.72 289.7 324.14 292.14C327.79 294.16 330.54 297.69 328.57 303.35C323.09 304.73 314.41 306.7 312.71 305.03Z" fill="#59F186"/>
<path d="M309.21 322.06C308.86 322.06 308.52 322.01 308.18 321.91C305.78 321.25 304.54 318.55 305.36 316.2C306.16 313.92 308.46 313.04 310.54 309.68C312.83 305.98 313.66 300.68 317.25 296.58C318.74 294.88 320.26 293.86 321.65 293.31C323.91 292.42 326.73 293.42 328.14 295.4C330.32 298.46 330.1 302.89 325.11 309.47C318 318.84 312.41 322.1 309.21 322.06Z" fill="black"/>
<path d="M287.859 289.34L284.139 282.71C283.739 282 282.839 281.75 282.129 282.15C281.419 282.55 281.169 283.45 281.569 284.16L284.479 289.34H287.149H287.859Z" fill="black"/>
<path d="M209.34 236.94C209.72 236.94 210.09 236.8 210.38 236.52C210.98 235.94 210.99 234.99 210.42 234.4C209.16 233.09 208.3 231.41 207.95 229.53C207.31 226.16 205.95 224.09 204.62 222.81C203.77 223.56 203.03 224.23 202.39 224.82C203.36 225.69 204.47 227.26 205.01 230.09C205.47 232.55 206.6 234.76 208.28 236.48C208.55 236.79 208.95 236.94 209.34 236.94Z" fill="black"/>
<path d="M1268.07 112.03C1260.01 122.8 1257.6 124.2 1252.69 126.35C1248.77 128.07 1245.05 127.48 1241.25 125.51C1230.76 120.08 1202.74 105.6 1187.69 98.14C1183.05 95.84 1180.11 94.22 1177.75 89.62C1175 84.27 1165.08 75.53 1136.99 77.49C1136.99 77.49 1129.73 77.99 1121.9 76.83C1121.17 76.72 1121.14 75.69 1121.85 75.53L1125.41 74.75C1132.43 73.18 1139.28 70.85 1145.77 67.81C1152.25 64.75 1158.37 61.01 1164.03 56.73C1165.47 55.69 1166.82 54.55 1168.19 53.43C1169.58 52.33 1170.86 51.12 1172.18 49.94L1175.83 46.63C1177.01 45.59 1178.2 44.57 1179.42 43.62C1184.27 39.78 1189.54 36.6 1194.87 35.18C1197.53 34.48 1200.16 34.26 1202.66 34.6C1205.16 34.95 1207.56 35.86 1209.78 37.32C1212 38.76 1214.04 40.73 1215.81 43C1216.7 44.13 1217.52 45.35 1218.26 46.61C1218.63 47.24 1218.99 47.88 1219.32 48.53C1219.49 48.85 1219.64 49.18 1219.79 49.49L1220.16 50.33L1220.33 50.72C1221.48 53.3 1224.6 54.46 1227.22 53.1C1229.5 51.91 1230.4 49.1 1229.48 46.7L1229.25 46.09L1228.97 45.41C1228.78 44.96 1228.58 44.53 1228.38 44.1C1227.97 43.24 1227.54 42.41 1227.09 41.58C1226.18 39.93 1225.17 38.34 1224.04 36.8C1221.79 33.73 1219.06 30.87 1215.73 28.56C1212.43 26.24 1208.48 24.55 1204.37 23.86C1200.25 23.16 1196.08 23.44 1192.24 24.33C1188.39 25.23 1184.83 26.68 1181.54 28.41C1178.23 30.13 1175.19 32.14 1172.31 34.28C1170.86 35.35 1169.47 36.46 1168.11 37.6L1164.22 40.92C1163.01 41.93 1161.82 42.99 1160.55 43.92C1159.3 44.88 1158.07 45.87 1156.76 46.74C1151.62 50.37 1146.15 53.46 1140.44 55.93C1134.72 58.39 1128.76 60.19 1122.68 61.35C1116.6 62.47 1110.4 62.96 1104.23 62.72H1104.15C1099.53 62.55 1095.08 60.93 1091.44 58.07L1079.9 49.02L1063.6 54.39C1063.6 54.39 1071.65 57.87 1074.83 63.84C1074.61 63.89 1067.9 64.96 1067.68 65.01C1063.84 65.97 1060.1 67.28 1056.59 69.03C1054.79 69.82 1053.14 70.87 1051.44 71.83C1050.58 72.3 1049.82 72.91 1049 73.44C1048.2 74 1047.39 74.53 1046.61 75.11C1045.13 76.35 1043.57 77.52 1042.17 78.83L1040.1 80.84C1039.42 81.52 1038.7 82.16 1038.1 82.9C1036.87 84.35 1035.57 85.76 1034.41 87.25L1031.09 91.83C1029.25 94.53 1027.42 97.18 1025.38 99.67C1021.38 104.68 1016.86 109.22 1011.92 112.82C1009.45 114.6 1006.85 116.12 1004.25 117.18L1003.27 117.57L1002.3 117.88C1001.65 118.12 1001.02 118.23 1000.39 118.4C999.16 118.62 997.92 118.81 996.88 118.7C995.83 118.62 994.93 118.41 994.2 118.06C993.47 117.72 992.92 117.22 992.41 116.53C991.38 115.18 990.73 112.78 990.74 110.05L990.8 104.9L990.82 103.51C990.81 103.04 990.77 102.57 990.75 102.11L990.58 99.31C990.55 98.38 990.39 97.43 990.26 96.5C990.12 95.56 990.01 94.62 989.85 93.68C989.4 91.8 989.1 89.92 988.44 88.06C987.31 84.34 985.66 80.67 983.31 77.34C982.69 76.53 982.09 75.7 981.41 74.92C980.71 74.15 980.04 73.37 979.25 72.67C978.5 71.94 977.66 71.27 976.79 70.62C976.33 70.3 975.91 69.98 975.4 69.68C975.14 69.53 974.92 69.38 974.64 69.23L974.21 69L973.97 68.88L973.62 68.72C971.09 67.61 968.14 68.75 967.03 71.28C965.92 73.81 967.06 76.76 969.59 77.87L969.53 77.85C969.51 77.84 969.56 77.87 969.57 77.88L969.7 77.96L970.04 78.18C970.27 78.31 970.52 78.54 970.77 78.71C971.26 79.11 971.76 79.52 972.22 80.01C972.71 80.45 973.13 81.01 973.58 81.51C974.01 82.04 974.4 82.63 974.81 83.18C976.35 85.52 977.49 88.22 978.26 91.1C978.73 92.5 978.9 94.04 979.23 95.51L979.48 97.8C979.56 98.57 979.68 99.32 979.67 100.11L979.74 102.45C979.75 102.84 979.77 103.23 979.77 103.62L979.72 104.81L979.51 109.97C979.44 110.99 979.55 112.08 979.59 113.14C979.63 113.68 979.73 114.23 979.8 114.78C979.87 115.33 979.95 115.87 980.1 116.44C980.55 118.66 981.49 120.99 982.92 123.12C984.35 125.25 986.37 127.18 988.71 128.41C991.03 129.66 993.52 130.3 995.88 130.53C1000.63 130.95 1004.85 129.93 1008.64 128.54C1012.44 127.12 1015.86 125.22 1019.03 123.08C1025.34 118.78 1030.72 113.61 1035.47 108.04C1037.88 105.28 1040.04 102.33 1042.16 99.42L1045 95.74C1045.98 94.55 1047.06 93.47 1048.08 92.33C1048.57 91.74 1049.17 91.27 1049.72 90.75L1051.39 89.21C1052.52 88.21 1053.76 87.36 1054.93 86.42C1055.54 85.99 1056.18 85.61 1056.8 85.2C1057.44 84.81 1058.03 84.35 1058.69 84.02C1060.01 83.35 1061.27 82.56 1062.65 82.02C1065.32 80.77 1068.15 79.9 1070.98 79.28C1071.15 79.24 1071.59 79.18 1072.17 79.1C1075.32 78.68 1078.52 79.54 1081 81.54C1086.85 86.24 1098.74 94.64 1108.45 94.16C1131.76 93.01 1140.82 93.5 1144.34 96.25C1146.17 97.68 1146.27 100.42 1144.64 102.06L1112.07 134.76C1107.56 139.29 1101.15 141.39 1094.85 140.36C1088.31 139.3 1080.16 136.65 1074.14 130.26C1068.04 123.8 1062.81 123.13 1060.33 125.65C1057.85 128.17 1060.01 134.32 1065.15 139.39C1067.74 141.95 1070.6 143.73 1073.12 144.56C1073.37 144.7 1073.62 144.83 1073.9 144.95L1108.69 159.69L1160.89 117C1166.96 112.04 1175.34 111 1182.44 114.34L1250.62 146.4L1272.19 125.2C1274.17 123.26 1275.92 121.1 1277.4 118.75C1279.71 115.07 1280.83 112.83 1280.88 109.25C1280.95 104.61 1276.47 100.81 1268.07 112.03Z" fill="white"/>
<path d="M1277.4 118.79C1279.71 115.11 1280.83 112.87 1280.88 109.28C1280.95 104.61 1276.46 100.8 1268.06 112.03C1260 122.8 1257.59 124.2 1252.68 126.35C1248.76 128.07 1245.04 127.48 1241.24 125.51C1230.75 120.08 1202.73 105.6 1187.68 98.14C1183.04 95.84 1180.1 94.22 1177.74 89.62C1177.29 88.74 1176.63 87.76 1175.74 86.75C1165.93 80.95 1150.03 82.98 1143.5 95.73C1143.83 95.92 1144.13 96.11 1144.4 96.32C1146.18 97.75 1146.32 100.41 1144.71 102.02L1112.07 134.79C1107.56 139.32 1101.15 141.42 1094.85 140.39C1088.31 139.33 1080.16 136.68 1074.14 130.29C1068.04 123.83 1062.81 123.16 1060.33 125.68C1057.85 128.2 1060.01 134.35 1065.15 139.42C1067.74 141.98 1070.6 143.76 1073.12 144.59C1073.37 144.73 1073.62 144.86 1073.9 144.98L1108.69 159.72L1160.89 117.03C1166.96 112.07 1175.34 111.03 1182.44 114.37L1250.62 146.43L1272.19 125.23C1274.16 123.3 1275.92 121.14 1277.4 118.79Z" fill="black"/>
<path d="M1133.27 139.62C1132.49 137.09 1122.13 137.49 1122.13 137.49C1122.13 137.49 1122.32 128.21 1119.38 127.46L1112.07 134.79C1107.56 139.32 1101.15 141.42 1094.85 140.39C1088.31 139.33 1080.16 136.68 1074.14 130.29C1068.04 123.83 1062.81 123.16 1060.33 125.68C1057.85 128.2 1060.01 134.35 1065.15 139.42C1067.74 141.98 1070.6 143.76 1073.12 144.59C1073.37 144.73 1073.62 144.86 1073.9 144.98L1108.69 159.72L1133.27 139.62Z" fill="#EB459F"/>
<path d="M1071.67 135.34C1066.02 127.91 1062.13 126.31 1059.9 126.23C1058.14 129.01 1060.33 134.69 1065.14 139.43C1067.73 141.99 1070.59 143.77 1073.11 144.6C1073.36 144.74 1073.61 144.87 1073.89 144.99L1090.36 151.97C1083.08 147.74 1076.77 142.04 1071.67 135.34Z" fill="black"/>
<path d="M1222.15 133.05L1250.62 146.44L1271.79 125.64C1273.9 123.57 1275.83 121.3 1277.4 118.8C1279.72 115.12 1280.84 112.88 1280.89 109.29C1280.96 104.62 1276.47 100.81 1268.07 112.04C1260.01 122.81 1257.6 124.21 1252.69 126.36C1248.77 128.08 1245.05 127.49 1241.25 125.52C1238.64 124.17 1234.95 122.26 1230.64 120.04C1230.64 120.04 1230.29 126.2 1233.17 129.22C1227.75 129.7 1222.15 133.05 1222.15 133.05Z" fill="#EB459F"/>
<path d="M1205.13 191.84C1218.07 191.84 1228.56 181.757 1228.56 169.32C1228.56 156.883 1218.07 146.8 1205.13 146.8C1192.19 146.8 1181.7 156.883 1181.7 169.32C1181.7 181.757 1192.19 191.84 1205.13 191.84Z" fill="#EB459F"/>
<path d="M1303.59 309.66C1296.2 309.51 1288.87 309.54 1282.34 309.88C1278.73 310.06 1275.91 310.33 1273.2 310.68C1270.81 311 1268.67 312.34 1267.38 314.39C1266.73 315.42 1266.1 316.5 1265.5 317.62C1262.63 322.98 1260.96 328.28 1260.59 332.4H1273.95H1303.58V309.66H1303.59Z" fill="#8CD9FF"/>
<path d="M1051.04 332.4L1041.14 305.76C1040.04 302.81 1041.97 299.6 1045.1 299.2C1057.96 297.56 1088 294.83 1103.17 302.55L1248.14 302.82C1248.14 302.82 1269.78 297.45 1290 300.16C1292.38 300.48 1293.85 302.93 1292.99 305.17L1282.49 332.39H1051.04V332.4Z" fill="#29CC7A"/>
<path d="M1187.84 296.12C1212.4 296.12 1232.31 277.894 1232.31 255.41C1232.31 232.926 1212.4 214.7 1187.84 214.7C1163.28 214.7 1143.37 232.926 1143.37 255.41C1143.37 277.894 1163.28 296.12 1187.84 296.12Z" fill="#8CD9FF"/>
<path d="M1073.98 206.45C1069.63 211.14 1068.4 217.95 1070.9 223.83C1076.58 237.18 1089.16 260.24 1111.26 270.29C1143.33 284.86 1164.23 220.17 1116.98 231.81C1116.98 231.81 1118.47 216.06 1104.43 216.89L1122.04 171.79C1123.53 167.96 1121.6 163.65 1117.75 162.22L1074.94 146.31C1071.58 145.06 1067.82 146.08 1065.53 148.83C1059.1 156.5 1052.9 171.96 1102.45 175.8L1073.98 206.45Z" fill="url(#paint6_linear)"/>
<path d="M1290.2 207.83C1293.85 212.19 1294.64 218.26 1292.24 223.41C1285.78 237.28 1270.73 263.69 1246.31 273.28C1212.56 286.53 1216.18 211.41 1249.36 227.68C1249.36 227.68 1248.65 214.47 1263.84 214.99L1240.7 167.6C1239.1 164.08 1239.68 159.95 1242.2 157.01L1266.01 129.21C1269.95 124.61 1277.03 124.46 1281.12 128.91C1288.14 136.54 1291.72 150.56 1258.52 170.05L1290.2 207.83Z" fill="url(#paint7_linear)"/>
<path d="M1148.76 235.93C1146.89 236.47 1144.95 236.87 1143.04 237.33C1141.54 237.69 1140.14 238.36 1138.93 239.31C1134.89 242.47 1127.06 251.35 1120.96 275.03C1120.96 275.03 1106.7 285.01 1103.17 302.56C1103.17 302.56 1167.15 344.7 1248.14 302.83L1241.37 274.61C1239.82 273.82 1238.38 272.73 1237.05 271.61C1232.51 267.81 1229.04 262.77 1227.35 257.07C1224.48 247.4 1227.24 238.1 1230.84 229.08C1227.82 229.96 1224.47 229.51 1221.84 231.31C1218.32 233.71 1215.62 237.26 1212.97 240.53C1209.45 244.86 1205.86 249.13 1202.19 253.33C1194.27 262.41 1185.61 271.44 1174.41 275.91C1170.09 277.63 1165.39 278.63 1160.78 278.02C1156.17 277.41 1151.68 275.04 1149.15 271.14C1148.06 269.46 1147.37 267.56 1146.85 265.63C1145.5 260.57 1145.39 255.27 1146 250.09C1146.31 247.54 1146.84 241.45 1148.76 235.93Z" fill="#3442D9"/>
<path d="M1051.04 332.4H1065.61C1065.24 328.27 1063.57 322.98 1060.7 317.62C1055.27 307.46 1047.66 300.94 1043.69 303.06C1043.25 303.3 1042.88 303.63 1042.56 304.05C1041.65 305.28 1041.55 306.93 1042.08 308.36L1051.04 332.4Z" fill="black"/>
<path d="M1056.25 318.3C1056.09 318 1055.93 317.71 1055.76 317.41C1053.9 314.1 1050.59 311.84 1046.82 311.43C1044.84 311.21 1042.72 311.04 1040.19 310.92C1019.98 309.89 991.76 311.89 979.59 312.89C976.18 313.17 973.02 311.09 971.96 307.84C967.07 292.9 956.92 271.88 956.92 271.88L962.7 332.42H1048.19H1060.94C1060.58 328.47 1058.98 323.42 1056.25 318.3Z" fill="#FFE75C"/>
<path d="M968.16 311.65C967.51 307.16 966.7 302.69 965.66 298.29C964.63 293.89 963.46 289.52 962.13 285.19C961.46 283.02 960.77 280.86 960.02 278.7C959.65 277.62 959.27 276.54 958.87 275.45C958.46 274.33 958.09 273.33 957.56 272.05L957.37 271.59C957.1 270.94 956.76 270.3 956.36 269.69C952.87 264.28 945.82 262.43 940.61 265.57C935.4 268.71 934.01 275.64 937.5 281.05C937.92 281.71 938.47 282.65 938.96 283.5C939.46 284.37 939.96 285.26 940.44 286.15C941.42 287.94 942.37 289.75 943.3 291.58C943.8 292.58 944.28 293.6 944.76 294.6C942.67 292.84 940.51 291.15 938.28 289.54C936.23 288.06 934.12 286.66 931.95 285.3C930.84 284.64 929.75 283.97 928.59 283.33C928.03 283.01 927.43 282.69 926.82 282.37C926.52 282.21 926.22 282.05 925.88 281.89C925.54 281.73 925.26 281.58 924.73 281.35C918.78 279.11 912.45 282 910.59 287.8C908.73 293.6 912.05 300.12 918 302.36C917.99 302.33 918.23 302.41 918.41 302.46C918.59 302.51 918.8 302.58 919.01 302.65C919.43 302.78 919.86 302.93 920.31 303.09C921.19 303.39 922.1 303.77 923 304.12C924.81 304.87 926.63 305.69 928.42 306.59C932.02 308.38 935.54 310.44 938.9 312.76L940.17 313.62L941.4 314.54C942.21 315.16 943.06 315.75 943.85 316.39C945.41 317.71 947.05 318.98 948.52 320.41C951.61 323.16 954.33 326.26 957.01 329.45L957.3 329.79C959.44 332.34 963.07 333.19 965.92 331.64C968.06 330.48 969.22 328.25 969.16 325.92C969.18 325.71 969.18 325.5 969.18 325.29C969.13 320.71 968.79 316.15 968.16 311.65Z" fill="black"/>
<path d="M1026.57 332.4H1048.17H1060.92C1060.57 328.46 1058.97 323.41 1056.24 318.3C1056.07 317.99 1055.9 317.68 1055.73 317.37C1053.88 314.09 1050.6 311.84 1046.86 311.43C1044.87 311.21 1042.73 311.04 1040.18 310.91C1033.78 310.58 1026.58 310.56 1019.34 310.72C1022.5 315.61 1026.15 323.06 1026.57 332.4Z" fill="#8CD9FF"/>
<path d="M1258.53 170.07C1291.73 150.57 1288.15 136.55 1281.13 128.93C1277.03 124.48 1269.95 124.64 1266.02 129.23L1242.21 157.03C1239.69 159.97 1239.11 164.1 1240.71 167.62L1252.33 191.42L1268.32 181.74L1258.53 170.07Z" fill="#FFE75C"/>
<path d="M1114 192.38L1122.04 171.79C1123.53 167.96 1121.6 163.65 1117.75 162.22L1074.94 146.31C1071.58 145.06 1067.82 146.08 1065.53 148.83C1059.1 156.5 1052.9 171.96 1102.45 175.8L1092.16 186.88L1114 192.38Z" fill="#FFE75C"/>
<path d="M1083.75 149.58C1082.75 152.15 1082.15 155.49 1083.7 158.64C1086.42 164.18 1094.74 167.1 1108.42 167.3C1108.43 167.3 1108.43 167.3 1108.44 167.3C1109.26 167.3 1109.93 166.64 1109.94 165.82C1109.95 164.99 1109.29 164.31 1108.46 164.3C1092.94 164.08 1087.9 160.38 1086.39 157.32C1085.29 155.08 1085.76 152.59 1086.54 150.62L1083.75 149.58Z" fill="#FFAB18"/>
<path d="M1254.08 159.37C1254.41 159.37 1254.74 159.26 1255.02 159.04C1262.15 153.32 1265.52 147.85 1265.05 142.78C1264.71 139.12 1262.44 136.64 1260.8 135.31L1258.85 137.59C1260.06 138.56 1261.81 140.39 1262.06 143.06C1262.43 147 1259.35 151.72 1253.14 156.7C1252.49 157.22 1252.39 158.16 1252.91 158.81C1253.21 159.18 1253.64 159.37 1254.08 159.37Z" fill="#FFAB18"/>
<path d="M1226.59 243.32C1221.66 242.1 1216.86 241.4 1212.56 241.02C1210.21 243.91 1207.81 246.76 1205.4 249.59C1213.41 249.81 1220.44 251.07 1226.45 252.82C1226 249.61 1226.11 246.45 1226.59 243.32Z" fill="#FF78B9"/>
<path d="M1131.2 248.66C1129.52 251.46 1127.75 254.97 1126 259.33C1133.24 256.04 1139.97 254.34 1145.72 253.56C1145.78 252.4 1145.87 251.25 1146.01 250.1C1146.14 249.02 1146.31 247.31 1146.6 245.28C1141.14 245.75 1135.91 247.04 1131.2 248.66Z" fill="#FF78B9"/>
<path d="M1174.97 237.43C1175.06 237.45 1175.15 237.45 1175.23 237.45C1175.94 237.45 1176.58 236.94 1176.71 236.21C1176.85 235.39 1176.31 234.62 1175.49 234.47C1166.79 232.94 1160.92 228.17 1158.01 225.21C1157.23 225.86 1156.48 226.53 1155.76 227.23C1158.93 230.51 1165.31 235.73 1174.97 237.43Z" fill="#3F99F2"/>
<path d="M1241.36 274.61C1239.81 273.82 1238.37 272.72 1237.04 271.61C1233.38 268.55 1230.43 264.67 1228.54 260.3C1228.91 264.48 1231.57 287.33 1246.13 294.47C1244.14 286.19 1241.36 274.61 1241.36 274.61Z" fill="black"/>
<path d="M1131.43 289.09C1131.43 289.09 1153.08 273.89 1183.42 296.17" stroke="#2130D9" stroke-width="3" stroke-miterlimit="10" stroke-linecap="round"/>
<path d="M1225.03 230.05C1223.9 230.28 1222.81 230.64 1221.83 231.31C1218.31 233.71 1215.61 237.26 1212.96 240.53C1209.44 244.86 1205.85 249.13 1202.18 253.33C1194.26 262.41 1185.6 271.44 1174.4 275.91C1170.08 277.63 1165.38 278.63 1160.77 278.02C1156.16 277.41 1151.67 275.04 1149.14 271.14C1148.05 269.46 1147.36 267.56 1146.84 265.63C1145.49 260.57 1145.38 255.27 1145.99 250.09C1146.29 247.54 1146.82 241.45 1148.74 235.93C1147.68 236.24 1146.59 236.5 1145.5 236.75C1142.34 247.12 1134.99 278.1 1158.86 280.95C1189.18 284.58 1218.5 240.79 1225.03 230.05Z" fill="#1E2ED9"/>
<path d="M1187.48 236.15C1211.08 236.15 1230.22 218.318 1230.22 196.32C1230.22 174.322 1211.08 156.49 1187.48 156.49C1163.88 156.49 1144.74 174.322 1144.74 196.32C1144.74 218.318 1163.88 236.15 1187.48 236.15Z" fill="#8CD9FF"/>
<path d="M1187.64 156.44C1178.27 156.44 1169.62 159.26 1162.57 164.03C1163.29 165.14 1165.1 171.84 1159.47 180.11L1169.14 185.83C1169.14 185.83 1189.09 155.33 1218.92 169.13C1211.11 161.32 1199.99 156.44 1187.64 156.44Z" fill="#3F99F2"/>
<path d="M1140.07 156.33L1141.69 194.38L1127.5 203.36L1178.28 202.15L1140.07 156.33Z" fill="black"/>
<path d="M1174.38 190.53C1172.35 184.46 1168.6 179.1 1163.6 175.11L1140.07 156.34L1174.82 199.95L1127.49 203.37L1147.41 208.09C1153.36 209.5 1159.6 209.11 1165.33 206.98L1178.27 202.16L1174.38 190.53Z" fill="#FFE75C"/>
<path d="M1201.75 177.15C1202.9 175.89 1204.22 175.23 1205.83 174.91C1207.4 174.61 1209.29 174.79 1211.01 175.76C1212.71 176.7 1214.06 178.43 1214.45 180.09C1214.51 180.3 1214.57 180.51 1214.62 180.72C1214.65 180.92 1214.67 181.13 1214.68 181.33C1214.71 181.74 1214.73 182.14 1214.72 182.53C1214.62 183.31 1214.46 184.05 1214.15 184.76C1213.78 185.61 1212.79 186 1211.94 185.63C1211.76 185.55 1211.59 185.44 1211.46 185.31L1211.16 185.03C1210.65 184.55 1210.34 184.08 1209.99 183.68C1209.8 183.5 1209.63 183.32 1209.48 183.15C1209.4 183.06 1209.33 182.98 1209.27 182.89L1209.03 182.71C1208.48 182.14 1208.06 182.01 1207.66 181.78C1207.25 181.57 1206.69 181.29 1205.85 181.01C1205.03 180.72 1203.94 180.45 1202.79 179.97L1202.32 179.77C1201.49 179.42 1201.09 178.45 1201.45 177.62C1201.53 177.44 1201.63 177.28 1201.75 177.15Z" fill="black"/>
<path d="M1205.54 196.64C1203.43 203.18 1201.88 210.37 1198.77 209.36C1195.66 208.36 1192.16 199.54 1194.26 193C1196.37 186.46 1203.29 184.67 1206.4 185.68C1209.52 186.69 1207.65 190.1 1205.54 196.64Z" fill="white"/>
<path d="M1168.69 187.737C1169.44 187.438 1169.49 185.803 1168.81 184.085C1168.12 182.366 1166.96 181.215 1166.21 181.513C1165.46 181.812 1165.41 183.447 1166.1 185.166C1166.78 186.884 1167.94 188.036 1168.69 187.737Z" fill="#FFAB18"/>
<path d="M1201.29 191.76C1201.84 189.56 1202.25 187.44 1202.37 185.68C1199.23 186.39 1195.67 188.63 1194.26 193C1193.82 194.36 1193.64 195.81 1193.63 197.28C1194.3 198.72 1195.26 199.69 1196.24 199.93C1198.51 200.5 1200.01 196.91 1201.29 191.76Z" fill="black"/>
<mask id="mask0" style="mask-type:alpha" maskUnits="userSpaceOnUse" x="1178" y="151" width="53" height="35">
<path d="M1178.46 157.36C1178.46 157.36 1215.55 157.05 1228.77 185.84L1228.78 185.82C1231.38 180.93 1230.88 174.99 1227.53 170.59C1221.47 162.63 1209.62 151.65 1190.23 151.44C1186.27 151.4 1182.47 153.06 1179.77 155.96L1178.46 157.36Z" fill="#FF78B9"/>
</mask>
<g mask="url(#mask0)">
<path d="M1178.46 157.36C1178.46 157.36 1215.55 157.05 1228.77 185.84L1228.78 185.82C1231.38 180.93 1230.88 174.99 1227.53 170.59C1221.47 162.63 1209.62 151.65 1190.23 151.44C1186.27 151.4 1182.47 153.06 1179.77 155.96L1178.46 157.36Z" fill="#FF78B9"/>
<path d="M1186.36 162.11C1186.36 162.11 1191.39 151.68 1200.9 150.92" stroke="#EB459F" stroke-width="3" stroke-miterlimit="10" stroke-linecap="round"/>
<path d="M1199.38 166.18L1207.64 153.34" stroke="#EB459F" stroke-width="3" stroke-miterlimit="10" stroke-linecap="round"/>
<path d="M1211.72 172.62C1212.08 172.05 1217.64 164.29 1216.76 157.37" stroke="#EB459F" stroke-width="3" stroke-miterlimit="10" stroke-linecap="round"/>
<path d="M1224.81 164.54C1224.81 164.54 1225.59 173.94 1221.58 182.12" stroke="#EB459F" stroke-width="3" stroke-miterlimit="10" stroke-linecap="round"/>
</g>
<path d="M993.78 117.89C993.26 117.57 992.82 117.14 992.41 116.6C991.38 115.25 990.73 112.85 990.74 110.12L990.8 104.97L990.82 103.58C990.81 103.11 990.77 102.64 990.75 102.18L990.58 99.38C990.55 98.45 990.39 97.5 990.26 96.57C990.12 95.63 990.01 94.69 989.85 93.75C989.4 91.87 989.1 89.99 988.44 88.13C987.31 84.41 985.66 80.74 983.31 77.41C982.69 76.6 982.09 75.77 981.41 74.99C980.71 74.22 980.04 73.44 979.25 72.74C978.5 72.01 977.66 71.34 976.79 70.69C976.33 70.37 975.91 70.05 975.4 69.75C975.14 69.6 974.92 69.45 974.64 69.3L974.21 69.07L973.97 68.95L973.62 68.79C971.09 67.68 968.14 68.82 967.03 71.35C965.92 73.88 967.06 76.83 969.59 77.94L969.53 77.92C969.51 77.91 969.56 77.94 969.57 77.95L969.7 78.03L970.04 78.25C970.27 78.38 970.52 78.61 970.77 78.78C971.26 79.18 971.76 79.59 972.22 80.08C972.71 80.52 973.13 81.08 973.58 81.58C974.01 82.11 974.4 82.7 974.81 83.25C976.35 85.59 977.49 88.29 978.26 91.17C978.73 92.57 978.9 94.11 979.23 95.58L979.48 97.87C979.56 98.64 979.68 99.39 979.67 100.18L979.74 102.52C979.75 102.91 979.77 103.3 979.77 103.69L979.72 104.88L979.51 110.04C979.44 111.06 979.55 112.15 979.59 113.21C979.63 113.75 979.73 114.3 979.8 114.85C979.87 115.4 979.95 115.94 980.1 116.51C980.55 118.73 981.49 121.06 982.92 123.19C984.21 125.11 985.99 126.87 988.05 128.1C987.92 124.52 988.96 120.27 993.78 117.89Z" fill="#91FFAD"/>
<path d="M1229.24 46.12L1228.96 45.44C1228.77 44.99 1228.57 44.56 1228.37 44.13C1227.96 43.27 1227.53 42.44 1227.08 41.61C1226.17 39.96 1225.16 38.37 1224.03 36.83C1221.78 33.76 1219.05 30.9 1215.72 28.59C1212.42 26.27 1208.47 24.58 1204.36 23.89C1200.24 23.19 1196.07 23.47 1192.23 24.36C1188.38 25.26 1184.82 26.71 1181.53 28.44C1178.22 30.16 1175.18 32.17 1172.3 34.31C1170.85 35.38 1169.46 36.49 1168.1 37.63L1165.67 39.7C1169.18 40.58 1172.75 42.88 1173.95 48.34L1175.83 46.63C1177.01 45.59 1178.2 44.57 1179.42 43.62C1184.27 39.78 1189.54 36.6 1194.87 35.18C1197.53 34.48 1200.16 34.26 1202.66 34.6C1205.16 34.95 1207.56 35.86 1209.78 37.32C1212 38.76 1214.04 40.73 1215.81 43C1216.7 44.13 1217.52 45.35 1218.26 46.61C1218.63 47.24 1218.99 47.88 1219.32 48.53C1219.49 48.85 1219.64 49.18 1219.79 49.49L1220.16 50.33L1220.33 50.72C1221.48 53.3 1224.6 54.46 1227.22 53.1C1229.5 51.91 1230.4 49.1 1229.48 46.7L1229.24 46.12Z" fill="#91FFAD"/>
<path d="M1084.26 52.49C1097.97 43.34 1107.29 28.01 1108.07 10.29C1108.07 10.27 1108.07 10.25 1108.07 10.23C1108.15 8.41999 1105.78 7.69999 1104.78 9.20999C1091.76 28.91 1069.02 41.47 1043.71 40.36C1030.97 39.8 1019.19 35.83 1009.19 29.39C1007.64 28.39 1005.78 30.05 1006.59 31.69C1008.69 35.92 1011.32 39.83 1014.42 43.34C1015.83 44.94 1017.34 46.46 1018.94 47.89C1020.05 48.88 1021.2 49.83 1022.39 50.73C1030.73 57.02 1041 60.94 1052.22 61.43C1057.97 61.68 1063.54 61.01 1068.8 59.56C1070.83 61.53 1073.07 63.42 1074.81 63.88C1092.95 61.4 1102.06 62.57 1102.06 62.57C1098.11 62.04 1094.37 60.42 1091.22 57.95L1084.26 52.49Z" fill="url(#paint8_linear)"/>
<path d="M1030.46 54.74C1035.3 53.07 1038.51 49.58 1037.59 46.83C1036.67 44.09 1031.99 43.18 1027.14 44.8C1025.28 45.42 1023.25 44.99 1021.78 43.7C1019.43 41.63 1016.13 39.06 1014.94 39.88C1014.25 40.35 1013.95 41.22 1013.96 42.34C1014.06 42.59 1014.21 42.96 1014.31 43.21C1015.76 44.86 1017.3 46.42 1018.94 47.89C1020.05 48.88 1021.2 49.83 1022.39 50.73C1024.53 52.34 1026.79 53.79 1029.16 55.07C1029.67 54.98 1030.11 54.86 1030.46 54.74Z" fill="black"/>
<path d="M1030.46 54.74C1031.41 54.41 1032.3 54.01 1033.11 53.56C1031.24 51.27 1026.94 49.78 1022.9 51.09C1024.89 52.55 1026.98 53.89 1029.17 55.07C1029.66 54.98 1030.11 54.86 1030.46 54.74Z" fill="#FF78B9"/>
<path d="M1072.57 47.41C1072.57 47.41 1070.29 52.28 1065.79 54.08C1061.29 55.88 1056.28 53.94 1056.28 53.94C1056.28 53.94 1058.56 49.07 1063.06 47.27C1067.55 45.47 1072.57 47.41 1072.57 47.41Z" fill="white"/>
<path d="M1056.27 53.95C1056.27 53.95 1058.32 54.74 1060.96 54.84C1061.53 54.35 1062.09 53.75 1062.59 53.05C1064.22 50.78 1064.72 48.26 1063.89 46.98C1063.61 47.06 1063.33 47.16 1063.05 47.27C1058.55 49.08 1056.27 53.95 1056.27 53.95Z" fill="black"/>
<path d="M1090.62 33.8C1090.62 33.8 1089.97 39.14 1086.26 42.26C1082.55 45.38 1077.18 45.1 1077.18 45.1C1077.18 45.1 1077.83 39.76 1081.54 36.64C1085.25 33.52 1090.62 33.8 1090.62 33.8Z" fill="white"/>
<path d="M1077.18 45.1C1077.18 45.1 1079.37 45.21 1081.92 44.48C1082.31 43.83 1082.65 43.09 1082.91 42.28C1083.75 39.61 1083.43 37.07 1082.25 36.11C1082.01 36.28 1081.77 36.46 1081.54 36.65C1077.83 39.76 1077.18 45.1 1077.18 45.1Z" fill="black"/>
<path d="M1074.02 79.06C1076.55 79.12 1079.01 79.98 1081 81.58C1086.85 86.28 1098.74 94.68 1108.45 94.2C1119.73 93.64 1127.67 93.47 1133.26 93.75C1126.83 82.53 1118.17 87.98 1118.17 87.98C1118.17 87.98 1107.03 95.3 1099.9 83.25C1094.6 74.28 1079.02 76.8 1074.02 79.06Z" fill="#8CD9FF"/>
<path d="M382.96 70.31L390.9 53.65C393.84 47.47 398.07 42 403.3 37.58L428.08 16.65C429.82 15.18 432.48 16.14 432.9 18.37C433.93 23.78 433.55 33.04 422.53 40.81H428.04C430.51 40.81 431.92 43.68 430.37 45.59C427.16 49.56 421.44 54.29 413.18 52.45L416.22 54.96C417.88 56.33 417.57 58.96 415.64 59.9C412.91 61.23 408.79 62.37 403.75 61.02C401.21 60.34 398.5 60.64 396.27 62.03L382.96 70.31Z" fill="white"/>
<path d="M359.28 67.06L352.9 56.51C350.54 52.6 349.03 48.23 348.49 43.69L345.93 22.31C345.74 20.75 347.31 19.55 348.75 20.16C352.15 21.61 357.07 25.23 357.36 34.14L359.29 31.21C360.24 29.76 362.46 30.06 362.97 31.72C363.97 34.97 364.4 39.78 360.42 43.63L362.82 42.89C364.26 42.45 365.67 43.65 365.46 45.15C365.18 47.16 364.26 49.83 361.67 52.1C360.41 53.21 359.6 54.74 359.55 56.42L359.28 67.06Z" fill="white"/>
<path d="M366.86 107.82C366.93 107.87 367.03 107.89 367.14 107.88C367.23 107.87 367.32 107.82 367.38 107.74C369.4 105.21 370.82 105.04 371.92 105.58C372.67 105.94 373.56 107.34 374.04 109.08C374.1 109.25 374.21 109.41 374.35 109.51C374.52 109.61 374.7 109.66 374.88 109.64C375.01 109.63 375.12 109.58 375.23 109.51C375.34 109.44 375.41 109.34 375.47 109.23C376.46 107.39 377.02 106.49 378.06 105.82C378.83 105.42 379.72 105.26 380.58 105.34C381.44 105.43 382.27 105.77 382.95 106.31L385.56 100.95C382.19 99.66 379.42 97.22 377.74 94.09C375.97 91.08 375.15 91.54 372.5 95.27C369.81 98.93 367.85 103.04 366.65 107.4C366.61 107.48 366.63 107.57 366.67 107.64C366.72 107.73 366.77 107.79 366.86 107.82Z" fill="#808AFF"/>
<path d="M349.18 78.79C354.83 76.64 361.73 80.54 364.58 87.5C367.45 94.46 365.19 101.83 359.54 103.97L375.93 102.92C389.73 97.63 396.44 90.31 391.02 76.74C387.05 66.74 377.87 63.53 365.36 68.32C352.84 73.12 349.18 78.79 349.18 78.79Z" fill="black"/>
<path d="M360.07 75.35C365.2 81.78 368.18 85.52 369.51 86.46C370.82 87.39 370.93 86.6 370.15 83.16C369.36 79.71 366.95 67.56 366.95 67.56L360.07 75.35Z" fill="white"/>
<path d="M351.76 82.85C355.51 87.58 357.72 90.33 358.68 91.01C359.66 91.69 359.73 91.13 359.16 88.59C358.59 86.06 356.82 77.13 356.82 77.13L351.76 82.85Z" fill="#808AFF"/>
<path d="M376.5 100.86C376 94.88 375.73 91.39 375.98 90.3C376.22 89.21 376.66 89.52 377.99 91.77C379.31 94.02 384.15 101.77 384.15 101.77L376.5 100.86Z" fill="white"/>
<path d="M353.03 101.73C353.38 100.66 353.97 99.69 354.78 98.89C355.57 98.09 356.55 97.49 357.63 97.13C360.56 96.12 364.07 95.52 371.5 97.24C374.04 97.86 376.71 97.69 379.15 96.76C386.34 94 390.87 85.66 389.32 78.13C387.77 70.59 380.65 66.72 373.48 69.49C369.93 70.83 367.02 73.4 365.27 76.71C360.39 85.63 358.44 88.02 354.25 89.94C352.32 90.84 350.11 90.95 348.11 90.25C343.35 88.5 341.17 82.66 344.04 75.44C345.38 72.08 347.43 69.04 350.04 66.5C352.65 63.96 355.76 61.98 359.18 60.69C363.28 59.12 367.72 58.57 372.09 59.09C376.45 59.61 380.63 61.17 384.23 63.65C387.84 66.13 390.76 69.44 392.77 73.3C394.76 77.16 395.77 81.44 395.68 85.76C395.59 90.09 394.43 94.32 392.28 98.1C390.13 101.88 387.07 105.07 383.36 107.41C379.66 109.75 375.43 111.15 371.03 111.5C366.65 111.85 362.24 111.12 358.21 109.4C352.84 107.11 352.31 104.09 353.03 101.73Z" fill="#91FFAD"/>
<path d="M384.58 66.73C382.69 65.75 380.61 65.18 378.47 65.09C376.34 64.99 374.2 65.36 372.23 66.17C367.89 67.9 364.3 71.08 362.13 75.16C358.98 80.65 354.27 87.98 349.44 88.21C348.32 88.26 347.2 88.06 346.17 87.61C345.14 87.16 344.22 86.48 343.52 85.62C343.52 85.7 343.58 85.8 343.61 85.89C344.07 86.98 344.82 87.92 345.82 88.6C346.81 89.27 347.97 89.64 349.17 89.67H349.54C353.84 89.45 358.13 85.2 363.47 75.88C365.46 72.09 368.77 69.12 372.8 67.53C374.58 66.8 376.5 66.47 378.43 66.56C380.34 66.64 382.22 67.15 383.93 68.02C385.71 69.03 387.24 70.41 388.44 72.07C389.62 73.73 390.41 75.62 390.76 77.62C392.62 86.4 387.45 96.11 379.24 99.25C376.46 100.26 373.43 100.43 370.54 99.74C362.56 98.16 357.24 98.6 354.33 101.08L353.96 101.42C353.43 101.96 353.08 102.66 352.97 103.41C352.86 104.16 352.99 104.93 353.36 105.6C353.43 104.92 353.64 104.27 353.97 103.68C354.32 103.09 354.78 102.57 355.31 102.16C357.81 100.02 362.85 99.68 370.25 101.2C373.43 101.93 376.76 101.71 379.83 100.58C388.66 97.19 394.25 86.75 392.25 77.29C391.85 75.09 390.94 73 389.62 71.18C388.3 69.36 386.57 67.82 384.58 66.73Z" fill="white"/>
<path d="M383.05 94.52C383.05 94.52 396.91 91.46 396.74 108.9C396.59 124.55 417.7 113 407.4 95.8C399.61 82.79 389.41 84.16 389.41 84.16C389.41 84.16 388 83.77 387.37 87.17C387.17 88.27 386.53 89.26 385.6 89.89C383.28 91.42 382.69 92.69 383.05 94.52Z" fill="#FF78B9"/>
<path d="M396.39 89.68C393.44 87.63 390.13 87.01 387.42 86.92C387.4 87 387.38 87.08 387.37 87.17C387.18 88.17 386.63 89.07 385.84 89.69C388.34 89.58 391.88 89.89 394.85 91.96C398.07 94.21 399.99 98.09 400.56 103.51C400.63 104.22 401.23 104.74 401.93 104.74C401.98 104.74 402.03 104.74 402.07 104.73C402.83 104.65 403.38 103.97 403.3 103.22C402.63 96.95 400.31 92.4 396.39 89.68Z" fill="#FF54A6"/>
<path d="M385.319 52.0141C386.318 50.3917 383.709 46.9705 379.49 44.3726C375.272 41.7747 371.042 40.9839 370.043 42.6064C369.044 44.2288 371.654 47.6501 375.872 50.2479C380.09 52.8458 384.32 53.6365 385.319 52.0141Z" stroke="#FFF2A6" stroke-width="3" stroke-miterlimit="10" stroke-linecap="round"/>
<path d="M247.4 28.14C244.55 26.3 242.62 23.33 242.12 19.97L241.27 14.26C241.23 13.98 240.99 13.77 240.7 13.77C240.42 13.77 240.17 13.98 240.13 14.26L239.28 19.97C238.78 23.33 236.85 26.3 234 28.14L233.26 28.62C233.1 28.72 233 28.9 233 29.1V29.14C233 29.34 233.1 29.52 233.26 29.62L234 30.1C236.85 31.94 238.78 34.91 239.28 38.27L240.13 43.98C240.17 44.26 240.41 44.47 240.7 44.47C240.98 44.47 241.23 44.26 241.27 43.98L242.12 38.27C242.62 34.91 244.55 31.94 247.4 30.1L248.14 29.62C248.3 29.51 248.4 29.33 248.4 29.14V29.1C248.4 28.9 248.3 28.72 248.14 28.62L247.4 28.14Z" fill="#8CD9FF"/>
<path d="M310.58 91.32C307.73 89.48 305.8 86.51 305.3 83.15L304.45 77.44C304.41 77.16 304.17 76.95 303.88 76.95C303.6 76.95 303.35 77.16 303.31 77.44L302.46 83.15C301.96 86.51 300.03 89.48 297.18 91.32L296.44 91.8C296.28 91.91 296.18 92.09 296.18 92.28V92.32C296.18 92.52 296.28 92.7 296.44 92.8L297.18 93.28C300.03 95.12 301.96 98.09 302.46 101.45L303.31 107.16C303.35 107.44 303.59 107.65 303.88 107.65C304.16 107.65 304.41 107.44 304.45 107.16L305.3 101.45C305.8 98.09 307.73 95.12 310.58 93.28L311.32 92.8C311.48 92.69 311.58 92.51 311.58 92.32V92.28C311.58 92.08 311.48 91.9 311.32 91.8L310.58 91.32Z" fill="white"/>
<path d="M886.23 88.69C883.96 87.23 882.43 84.86 882.04 82.2L881.36 77.66C881.33 77.44 881.13 77.27 880.91 77.27C880.68 77.27 880.49 77.44 880.46 77.66L879.78 82.2C879.38 84.87 877.85 87.23 875.59 88.69L875 89.07C874.87 89.15 874.79 89.3 874.79 89.45V89.48C874.79 89.64 874.87 89.78 875 89.86L875.59 90.24C877.86 91.7 879.39 94.07 879.78 96.73L880.46 101.27C880.49 101.49 880.69 101.66 880.91 101.66C881.14 101.66 881.33 101.49 881.36 101.27L882.04 96.73C882.44 94.06 883.97 91.7 886.23 90.24L886.82 89.86C886.95 89.78 887.03 89.63 887.03 89.48V89.45C887.03 89.29 886.95 89.15 886.82 89.07L886.23 88.69Z" fill="white"/>
<path d="M1258.42 87.02C1255.57 85.18 1253.64 82.21 1253.14 78.85L1252.29 73.14C1252.25 72.86 1252.01 72.65 1251.72 72.65C1251.44 72.65 1251.19 72.86 1251.15 73.14L1250.3 78.85C1249.8 82.21 1247.87 85.18 1245.02 87.02L1244.28 87.5C1244.12 87.61 1244.02 87.79 1244.02 87.98V88.02C1244.02 88.22 1244.12 88.4 1244.28 88.5L1245.02 88.98C1247.87 90.82 1249.8 93.79 1250.3 97.15L1251.15 102.86C1251.19 103.14 1251.43 103.35 1251.72 103.35C1252 103.35 1252.25 103.14 1252.29 102.86L1253.14 97.15C1253.64 93.79 1255.57 90.82 1258.42 88.98L1259.16 88.5C1259.32 88.39 1259.42 88.21 1259.42 88.02V87.98C1259.42 87.78 1259.32 87.6 1259.16 87.5L1258.42 87.02Z" fill="url(#paint9_linear)"/>
<path d="M853.29 52.88C850.35 50.99 848.37 47.92 847.85 44.46L846.97 38.58C846.93 38.29 846.68 38.08 846.38 38.08C846.09 38.08 845.84 38.29 845.79 38.58L844.91 44.46C844.39 47.92 842.41 50.98 839.47 52.88L838.71 53.37C838.54 53.48 838.44 53.67 838.44 53.87V53.91C838.44 54.11 838.54 54.3 838.71 54.41L839.47 54.9C842.41 56.79 844.39 59.86 844.91 63.32L845.79 69.2C845.83 69.49 846.08 69.7 846.38 69.7C846.67 69.7 846.92 69.49 846.97 69.2L847.85 63.32C848.37 59.86 850.35 56.8 853.29 54.9L854.05 54.41C854.22 54.3 854.32 54.11 854.32 53.91V53.87C854.32 53.67 854.22 53.48 854.05 53.37L853.29 52.88Z" fill="#FFE75C"/>
<path d="M1046.61 254.45C1042.91 252.07 1040.42 248.21 1039.77 243.86L1038.66 236.46C1038.61 236.1 1038.29 235.83 1037.92 235.83C1037.55 235.83 1037.24 236.1 1037.18 236.46L1036.07 243.86C1035.42 248.21 1032.93 252.07 1029.23 254.45L1028.27 255.07C1028.06 255.21 1027.93 255.44 1027.93 255.7V255.75C1027.93 256 1028.06 256.24 1028.27 256.38L1029.23 257C1032.93 259.38 1035.42 263.24 1036.07 267.59L1037.18 274.99C1037.23 275.35 1037.55 275.62 1037.92 275.62C1038.29 275.62 1038.6 275.35 1038.66 274.99L1039.77 267.59C1040.42 263.24 1042.91 259.38 1046.61 257L1047.57 256.38C1047.78 256.24 1047.91 256.01 1047.91 255.75V255.7C1047.91 255.45 1047.78 255.21 1047.57 255.07L1046.61 254.45Z" fill="#FF78B9"/>
<path d="M380.42 306.48C377.57 304.64 375.64 301.67 375.14 298.31L374.29 292.6C374.25 292.32 374.01 292.11 373.72 292.11C373.44 292.11 373.19 292.32 373.15 292.6L372.3 298.31C371.8 301.67 369.87 304.64 367.02 306.48L366.28 306.96C366.12 307.07 366.02 307.25 366.02 307.44V307.48C366.02 307.68 366.12 307.86 366.28 307.96L367.02 308.44C369.87 310.28 371.8 313.25 372.3 316.61L373.15 322.32C373.19 322.6 373.43 322.81 373.72 322.81C374 322.81 374.25 322.6 374.29 322.32L375.14 316.61C375.64 313.25 377.57 310.28 380.42 308.44L381.16 307.96C381.32 307.85 381.42 307.67 381.42 307.48V307.44C381.42 307.24 381.32 307.06 381.16 306.96L380.42 306.48Z" fill="white"/>
<path d="M228.22 150.77C226.53 149.68 225.39 147.92 225.09 145.93L224.58 142.55C224.56 142.38 224.41 142.26 224.24 142.26C224.07 142.26 223.93 142.38 223.9 142.55L223.39 145.93C223.09 147.92 221.95 149.68 220.26 150.77L219.82 151.05C219.72 151.11 219.66 151.22 219.66 151.34V151.36C219.66 151.48 219.72 151.58 219.82 151.65L220.26 151.93C221.95 153.02 223.09 154.78 223.39 156.77L223.9 160.15C223.92 160.32 224.07 160.44 224.24 160.44C224.41 160.44 224.55 160.32 224.58 160.15L225.09 156.77C225.39 154.78 226.53 153.02 228.22 151.93L228.66 151.65C228.76 151.59 228.82 151.48 228.82 151.36V151.34C228.82 151.22 228.76 151.12 228.66 151.05L228.22 150.77Z" fill="#91FFAD"/>
<path d="M22.02 304.46C20.33 303.37 19.19 301.61 18.89 299.62L18.38 296.24C18.36 296.07 18.21 295.95 18.04 295.95C17.87 295.95 17.73 296.07 17.7 296.24L17.19 299.62C16.89 301.61 15.75 303.37 14.06 304.46L13.62 304.74C13.52 304.8 13.46 304.91 13.46 305.03V305.05C13.46 305.17 13.52 305.27 13.62 305.34L14.06 305.62C15.75 306.71 16.89 308.47 17.19 310.46L17.7 313.84C17.72 314.01 17.87 314.13 18.04 314.13C18.21 314.13 18.35 314.01 18.38 313.84L18.89 310.46C19.19 308.47 20.33 306.71 22.02 305.62L22.46 305.34C22.56 305.28 22.62 305.17 22.62 305.05V305.03C22.62 304.91 22.56 304.81 22.46 304.74L22.02 304.46Z" fill="#FFD635"/>
<path d="M262.21 209.22C260.52 208.13 259.38 206.37 259.08 204.38L258.57 201C258.55 200.83 258.4 200.71 258.23 200.71C258.06 200.71 257.92 200.83 257.89 201L257.38 204.38C257.08 206.37 255.94 208.13 254.25 209.22L253.81 209.5C253.71 209.56 253.65 209.67 253.65 209.79V209.81C253.65 209.93 253.71 210.03 253.81 210.1L254.25 210.38C255.94 211.47 257.08 213.23 257.38 215.22L257.89 218.6C257.91 218.77 258.06 218.89 258.23 218.89C258.4 218.89 258.54 218.77 258.57 218.6L259.08 215.22C259.38 213.23 260.52 211.47 262.21 210.38L262.65 210.1C262.75 210.04 262.81 209.93 262.81 209.81V209.79C262.81 209.67 262.75 209.57 262.65 209.5L262.21 209.22Z" fill="#3442D9"/>
<path d="M603.23 41.26C600.85 39.72 599.24 37.24 598.82 34.43L598.11 29.66C598.07 29.42 597.87 29.25 597.64 29.25C597.4 29.25 597.2 29.42 597.17 29.66L596.46 34.43C596.04 37.24 594.43 39.72 592.05 41.26L591.43 41.66C591.29 41.75 591.21 41.9 591.21 42.06V42.09C591.21 42.25 591.29 42.41 591.43 42.49L592.05 42.89C594.43 44.43 596.04 46.91 596.46 49.72L597.17 54.49C597.21 54.73 597.41 54.9 597.64 54.9C597.88 54.9 598.08 54.73 598.11 54.49L598.82 49.72C599.24 46.91 600.85 44.43 603.23 42.89L603.85 42.49C603.99 42.4 604.07 42.25 604.07 42.09V42.06C604.07 41.9 603.99 41.74 603.85 41.66L603.23 41.26Z" fill="#FF78B9"/>
<path d="M574.13 70.74C572.54 69.72 571.47 68.06 571.19 66.19L570.71 63.01C570.69 62.85 570.55 62.74 570.39 62.74C570.23 62.74 570.1 62.86 570.07 63.01L569.59 66.19C569.31 68.06 568.24 69.72 566.65 70.74L566.24 71.01C566.15 71.07 566.09 71.17 566.09 71.28V71.3C566.09 71.41 566.15 71.51 566.24 71.57L566.65 71.84C568.24 72.86 569.31 74.52 569.59 76.39L570.07 79.57C570.09 79.73 570.23 79.84 570.39 79.84C570.55 79.84 570.68 79.72 570.71 79.57L571.19 76.39C571.47 74.52 572.54 72.86 574.13 71.84L574.54 71.57C574.63 71.51 574.69 71.41 574.69 71.3V71.28C574.69 71.17 574.63 71.07 574.54 71.01L574.13 70.74Z" fill="white"/>
<path d="M726.26 115.66C723.88 114.12 722.27 111.64 721.85 108.83L721.14 104.06C721.1 103.82 720.9 103.65 720.67 103.65C720.43 103.65 720.23 103.82 720.2 104.06L719.49 108.83C719.07 111.64 717.46 114.12 715.08 115.66L714.46 116.06C714.32 116.15 714.24 116.3 714.24 116.46V116.49C714.24 116.65 714.32 116.81 714.46 116.89L715.08 117.29C717.46 118.83 719.07 121.31 719.49 124.12L720.2 128.89C720.24 129.13 720.44 129.3 720.67 129.3C720.91 129.3 721.11 129.13 721.14 128.89L721.85 124.12C722.27 121.31 723.88 118.83 726.26 117.29L726.88 116.89C727.02 116.8 727.1 116.65 727.1 116.49V116.46C727.1 116.3 727.02 116.14 726.88 116.06L726.26 115.66Z" fill="#91FFAD"/>
<path d="M875.9 278.95C873.13 277.17 871.27 274.28 870.78 271.03L869.95 265.49C869.91 265.22 869.67 265.02 869.4 265.02C869.12 265.02 868.89 265.22 868.85 265.49L868.02 271.03C867.53 274.28 865.67 277.17 862.9 278.95L862.18 279.41C862.02 279.51 861.92 279.69 861.92 279.88V279.91C861.92 280.1 862.02 280.28 862.18 280.38L862.9 280.84C865.67 282.62 867.53 285.51 868.02 288.76L868.85 294.3C868.89 294.57 869.13 294.77 869.4 294.77C869.68 294.77 869.91 294.57 869.95 294.3L870.78 288.76C871.27 285.51 873.13 282.62 875.9 280.84L876.62 280.38C876.78 280.28 876.88 280.1 876.88 279.91V279.88C876.88 279.69 876.78 279.51 876.62 279.41L875.9 278.95Z" fill="#EB459F"/>
<path d="M1015.26 273.78C1013.43 272.6 1012.2 270.69 1011.88 268.54L1011.33 264.88C1011.3 264.7 1011.15 264.57 1010.97 264.57C1010.79 264.57 1010.63 264.7 1010.61 264.88L1010.06 268.54C1009.74 270.69 1008.51 272.6 1006.68 273.78L1006.21 274.09C1006.1 274.16 1006.04 274.27 1006.04 274.4V274.42C1006.04 274.55 1006.1 274.66 1006.21 274.73L1006.68 275.04C1008.51 276.22 1009.74 278.13 1010.06 280.28L1010.61 283.94C1010.64 284.12 1010.79 284.25 1010.97 284.25C1011.15 284.25 1011.31 284.12 1011.33 283.94L1011.88 280.28C1012.2 278.13 1013.43 276.22 1015.26 275.04L1015.73 274.73C1015.84 274.66 1015.9 274.55 1015.9 274.42V274.4C1015.9 274.27 1015.84 274.16 1015.73 274.09L1015.26 273.78Z" fill="white"/>
</g>
</g>
</g>
<defs>
<linearGradient id="paint0_linear" x1="651.613" y1="22.1549" x2="651.613" y2="382.633" gradientUnits="userSpaceOnUse">
<stop stop-color="#4E1BF5"/>
<stop offset="0.58" stop-color="#5E4EEE"/>
<stop offset="0.92" stop-color="#6668EB"/>
</linearGradient>
<linearGradient id="paint1_linear" x1="131.86" y1="42.379" x2="84.6507" y2="129.483" gradientUnits="userSpaceOnUse">
<stop stop-color="#FFE75C"/>
<stop offset="1" stop-color="#FFC619"/>
</linearGradient>
<linearGradient id="paint2_linear" x1="148.109" y1="56.2685" x2="97.701" y2="149.275" gradientUnits="userSpaceOnUse">
<stop stop-color="#FFE75C"/>
<stop offset="1" stop-color="#FFC619"/>
</linearGradient>
<linearGradient id="paint3_linear" x1="126.874" y1="356.66" x2="91.5942" y2="94.3809" gradientUnits="userSpaceOnUse">
<stop stop-color="white"/>
<stop offset="1" stop-color="#8BD8FF"/>
</linearGradient>
<linearGradient id="paint4_linear" x1="108.531" y1="235.353" x2="115.116" y2="189.376" gradientUnits="userSpaceOnUse">
<stop stop-color="#5765F1"/>
<stop offset="1" stop-color="#2536D3"/>
</linearGradient>
<linearGradient id="paint5_linear" x1="123.502" y1="279.633" x2="128.292" y2="246.19" gradientUnits="userSpaceOnUse">
<stop stop-color="#5765F1"/>
<stop offset="1" stop-color="#2536D3"/>
</linearGradient>
<linearGradient id="paint6_linear" x1="1093.25" y1="276.071" x2="1103.11" y2="201.519" gradientUnits="userSpaceOnUse">
<stop stop-color="#66BCFF"/>
<stop offset="1" stop-color="#8CD9FF"/>
</linearGradient>
<linearGradient id="paint7_linear" x1="1251.25" y1="285.697" x2="1263.85" y2="190.379" gradientUnits="userSpaceOnUse">
<stop stop-color="#66BCFF"/>
<stop offset="1" stop-color="#8CD9FF"/>
</linearGradient>
<linearGradient id="paint8_linear" x1="1094.86" y1="59.5361" x2="1052.23" y2="17.7131" gradientUnits="userSpaceOnUse">
<stop stop-color="#57F287"/>
<stop offset="1" stop-color="#91FFAD"/>
</linearGradient>
<linearGradient id="paint9_linear" x1="1249.49" y1="104.864" x2="1252" y2="85.86" gradientUnits="userSpaceOnUse">
<stop stop-color="#66BCFF"/>
<stop offset="1" stop-color="#8CD9FF"/>
</linearGradient>
<clipPath id="clip0">
<rect width="1304" height="332" fill="white"/>
</clipPath>
<clipPath id="clip1">
<rect width="1305.23" height="333" fill="white" transform="translate(-1)"/>
</clipPath>
<clipPath id="clip2">
<rect width="1304.59" height="332.43" fill="white" transform="translate(-1)"/>
</clipPath>
</defs>
</svg>
