<svg fill="none" height="64" viewBox="0 0 80 64" width="80" xmlns="http://www.w3.org/2000/svg"><rect fill="#202225" height="40" rx="8" width="40" x="20" y="12"/><path d="m40 30.9c-.61 0-1.1.49-1.1 1.1s.49 1.1 1.1 1.1 1.1-.49 1.1-1.1-.49-1.1-1.1-1.1zm0-8.9c-5.52 0-10 4.48-10 10s4.48 10 10 10 10-4.48 10-10-4.48-10-10-10zm2.19 12.19-8.19 3.81 3.81-8.19 8.19-3.81z" fill="#fff"/><g fill="#adf3ff"><path d="m73.3369 1.44506c0-.798086-.647-1.44506-1.4451-1.44506-.798 0-1.445.646974-1.445 1.44506v1.46914c0 .79808.647 1.44506 1.445 1.44506.7981 0 1.4451-.64698 1.4451-1.44506z"/><path d="m73.3369 13.0858c0-.7981-.647-1.4451-1.4451-1.4451-.798 0-1.445.647-1.445 1.4451v1.4691c0 .7981.647 1.4451 1.445 1.4451.7981 0 1.4451-.647 1.4451-1.4451z"/><path d="m78.5549 9.47291c.7981 0 1.4451-.64697 1.4451-1.44506 0-.79808-.647-1.44506-1.4451-1.44506h-1.4691c-.7981 0-1.4451.64698-1.4451 1.44506 0 .79809.647 1.44506 1.4451 1.44506z"/><path d="m66.9143 9.39289c.7981 0 1.4451-.64697 1.4451-1.44505 0-.79809-.647-1.44506-1.4451-1.44506h-1.4691c-.7981 0-1.4451.64697-1.4451 1.44506 0 .79808.647 1.44505 1.4451 1.44505z"/></g><path d="m8.36261 59.843 3.12339-1.0417c.1534-.0703.2834-.1832.3745-.3252.0911-.1421.1395-.3073.1395-.4761s-.0484-.334-.1395-.4761c-.0911-.142-.2211-.2549-.3745-.3252l-3.12339-1.0417c-.21336-.0964-.38423-.2673-.48054-.4808l-1.12123-3.1251c-.05266-.1603-.15458-.2999-.2912-.3989-.13662-.0989-.30098-.1522-.46965-.1522-.16866 0-.33301.0533-.46963.1522-.13662.099-.23854.2386-.2912.3989l-1.12123 3.1251c-.09631.2135-.26718.3844-.48054.4808l-3.123433 1.0417c-.153355.0703-.283314.1832-.374423.3252-.0911093.1421-.139534.3073-.139534.4761s.0484247.334.139534.4761c.091109.142.221068.2549.374423.3252l3.123433 1.0417c.11344.0344.21664.0963.30046.1802.08382.0838.14567.1871.18008.3006l1.12123 3.1251c.05266.1603.15458.2999.2912.3989.13662.0989.30097.1522.46963.1522.16867 0 .33303-.0533.46965-.1522.13662-.099.23854-.2386.2912-.3989l1.12123-3.1251c.03441-.1135.09626-.2168.18008-.3006.08382-.0839.18702-.1458.30046-.1802z" fill="#ffd01a"/></svg>