<svg width="660" height="190" viewBox="0 0 660 190" fill="none" xmlns="http://www.w3.org/2000/svg">
<path d="M395.806 171.48L390.17 172.204L390.009 190H401.121L395.806 171.48Z" fill="#FF78B9"/>
<path d="M393.148 173.091C387.351 173.896 384.13 172.93 381.634 170.836C381.392 170.594 381.312 170.272 381.553 169.95C381.634 169.789 381.795 169.709 381.956 169.709L403.133 166.89C403.455 166.81 403.777 167.052 403.777 167.374C403.777 167.535 403.777 167.696 403.697 167.776C401.845 170.514 398.946 172.285 393.148 173.091Z" fill="white"/>
<path d="M391.136 158.033C392.665 157.791 394.115 158.918 394.356 160.448L394.92 164.877L389.284 165.602L388.72 161.173C388.478 159.643 389.606 158.274 391.136 158.033Z" fill="#83DDC5"/>
<path d="M391.457 160.689C392.101 160.609 392.665 161.092 392.746 161.655L392.907 162.622C392.987 163.266 392.585 163.83 391.94 163.91C391.296 163.991 390.733 163.508 390.652 162.944L390.491 161.978C390.41 161.333 390.894 160.77 391.457 160.689Z" fill="#4F5D7F"/>
<path d="M391.86 163.429C383.808 164.556 379.782 166.971 377.205 170.675C376.883 170.998 376.963 171.481 377.286 171.803C377.527 171.964 377.769 172.044 378.01 171.964L407.562 167.938C408.045 167.938 408.367 167.535 408.367 167.133C408.367 166.891 408.206 166.569 407.964 166.488C404.421 163.59 399.912 162.301 391.86 163.429Z" fill="#EBEFF7"/>
<path d="M380.747 170.513C381.058 170.513 381.311 170.261 381.311 169.95C381.311 169.638 381.058 169.386 380.747 169.386C380.436 169.386 380.183 169.638 380.183 169.95C380.183 170.261 380.436 170.513 380.747 170.513Z" fill="#FFD836"/>
<path d="M384.21 170.03C384.521 170.03 384.774 169.778 384.774 169.467C384.774 169.155 384.521 168.903 384.21 168.903C383.899 168.903 383.646 169.155 383.646 169.467C383.646 169.778 383.899 170.03 384.21 170.03Z" fill="#AEC7FF"/>
<path d="M403.133 167.454C403.444 167.454 403.696 167.201 403.696 166.89C403.696 166.579 403.444 166.326 403.133 166.326C402.821 166.326 402.569 166.579 402.569 166.89C402.569 167.201 402.821 167.454 403.133 167.454Z" fill="#F47FFF"/>
<path opacity="0.45" d="M392.506 178.404C392.828 177.841 393.552 177.68 394.116 178.082L394.438 178.324C395.002 178.646 395.163 179.371 394.76 179.934C394.438 180.498 393.713 180.659 393.15 180.256L392.828 180.015C392.264 179.612 392.103 178.887 392.506 178.404Z" fill="#4762B0"/>
<path opacity="0.8" d="M584.026 83.1306L583.908 83.111L583.81 82.6311L583.194 82.5058H582.578L582.372 81.8791L581.852 81.62L581.031 81.1186L581.332 80.8595H581.948L582.989 81.1186L583.509 81.762H584.125H584.645L585.261 82.1296L585.685 82.8817H585.48L584.85 83.0069L584.439 83.1322L584.026 83.1306ZM578.856 79.0869L578.446 78.8697L578.321 78.4353L578.517 77.6532L578.66 77.0664L579.3 76.8273L580.084 76.9578V78.5874L579.372 78.8481L578.856 79.0869ZM573.576 81.2357L573.387 83.6696L570.584 84.735L567.103 88.2203L566.122 90.2846L565.216 92.9142L564.548 95.8258L564.311 98.7036L564.58 101.785L564.257 103.118L562.996 103.67L562.187 104.28L561.271 107.157L560.689 108.076L558.641 108.673L554.242 108.719L552.55 109.166L551.397 110.374L550.028 112.238L548.443 113.931L546.632 114.679L542.407 115.729L538.569 117.593L535.465 118.288L533.47 115.88L533.341 120.407L529.59 122.736L519.748 124.782L517.764 125.719L516.568 126.526L514.918 127.627L513 127.994L503.46 126.88L493.963 127.994L491.915 128.545L490.039 129.843L483.895 135.551L482.536 138.27H479.238L476.431 138.652L475.5 139.784L474.583 139.16L474.378 136.897L475.911 135.508L476.527 136.389H479.114L478.813 131.996L474.466 131.363L472.817 133.003L471.995 134.517L471.16 133.751L469.504 133.002L469.03 134.106L465.167 133.087L462.664 131.134L461.978 129.703L461.88 127.615L461.095 127.794H460.065H459.379L458.692 127.734L458.251 127.555L457.613 128.271L456.976 129.106L456.534 129.703L454.769 130.001L453.788 132.386L451.14 132.028L449.571 131.551L448.688 132.684L448.763 135.242L447.243 135.786L441.703 136.5L436.194 135.413L430.955 133.106L424.175 128.866L421.739 127.81L418.979 127.135L413.352 126.538L411.035 125.581L408.803 124.185L403.521 119.974L402.756 119.089L401.926 114.424L401.387 113.675L401.3 112.159L398.229 103.67L396.741 102.39L393.928 100.518L392.731 99.2564L391.643 97.6402L390.845 95.7018L390.759 93.6119L391.901 91.5348L389.358 87.3263L389.11 85.6296V82.1041L388.527 79.0581L385.649 74.0499L384.582 71.5616L384 67.5055L384.453 64.5547L385.973 63.5665L388.657 65.4372L392.602 69.7838L394.812 71.5351L397.324 72.5753L402.821 72.3251L407.607 69.7707L411.542 65.8654L414.496 61.6164L416.469 56.595L417.891 53.866L419.993 52.3364L420.252 51.5717L420.619 50.8004L421.384 50.4641L422.041 50.6486L423.044 51.3277L423.27 51.4794L424.133 51.6708L425.469 51.361L426.503 53.2085L428.475 54.3472L430.425 54.7155L431.979 54.3472L433.636 53.2085L434.567 51.065L435.404 49L439.608 49.5472L440.467 53.8365L441.275 55.9964L442.411 57.6372L444.478 58.767L447.997 59.9053L450.694 61.4116L453.391 62.6834L454.835 63.9466L455.335 66.3558V67.8444L456.074 69.1322L457.416 69.7511H458.552L462.057 68.756L463.706 67.5935L464.137 66.8575L464.959 65.0843L465.999 64.4569L467.245 65.0843L468.066 66.2305L470.127 67.5938H471.886L473.631 66.4814L476.109 63.9466L478.498 61.6792L480.88 60.5327L483.96 58.6329L485.411 57.2603L486.657 56.9924L489.957 57.3859L493.475 58.1393H496.767L498.629 57.2603L499.471 56.6159L500.293 55.2264L503.496 52.9576H505.564L507.33 53.7113L509.096 54.3475L510.738 54.4646L512.08 55.1008L513.86 57.1265L515.188 58.8841L517.365 60.1562L520.363 60.9092L521.404 60.5327L522.013 59.6541L522.225 58.3905L523.874 57.1265L526.565 54.2134L527.701 53.8365L529.878 54.0878L533.273 53.7109L535.559 53.3341L536.284 53.8365V55.8626L536.695 58.2649L537.736 59.2776L539.173 60.9095L541.035 62.9343L541.241 63.9466L541.446 66.7322L541.241 69.3749V72.5439L540.406 76.197L539.584 79.0971L539.995 81.2363L541.241 82.882H542.692L544.869 82.2556L545.786 79.7238L546.299 75.0688L547.068 74.2939L548.058 73.2966L549.291 72.151L550.331 73.2966V77.2084L551.153 79.3561L552.795 80.1L555.191 79.0971L556.218 76.9578L557.368 76.0635L558.819 76.3144L560.339 77.334L561.489 77.0831L562.529 76.565L563.96 77.0831L565.212 77.7098L568.101 79.2309L569.758 79.4814L571.202 79.7238L573.262 81.1192L573.576 81.2357ZM599.43 69.3746L601.072 70.0016L602.523 70.6454L603.756 71.0216H605.631L607.904 70.0013H610.286L611.532 70.8959L613.188 71.6486L614.503 71.3895L615.242 70.8963L615.834 70.0641L617.68 71.6535L619.686 73.9445L621.162 78.3673L622.65 81.2095L624.461 83.8276L626.056 84.9195L624.213 85.051L620.796 84.6827L617.497 83.7354L616.031 82.1041L614.457 81.2883L607.267 82.2094L601.026 84.1102L599.668 84.9192L598.599 86.0532L594.967 85.2702L592.503 85.7965L591.476 85.1534L593.119 83.6497L594.255 83.3824V80.6086L591.777 80.358L590.326 79.0964L590.436 75.5611L589.395 74.4241L586.301 73.0532L587.013 71.2724L588.259 70.2607L590.025 69.3743L591.052 70.1269L591.887 71.0216L593.735 70.6454L595.391 69.4999L596.322 68.3625L597.048 67.4676L599.43 69.3746Z" fill="white"/>
</svg>
