<svg xmlns="http://www.w3.org/2000/svg" width="240" height="132" viewBox="0 0 240 132">
  <g fill="none" fill-rule="evenodd">
    <path fill="#F6F6F7" fill-opacity=".9" d="M0,95.2603969 L0,95.262229 C0,110.648489 12.4732824,123.121771 27.859542,123.121771 L213.773435,123.121771 C228.05313,123.121771 239.629924,111.545588 239.629924,97.2652824 L239.629924,95.400855 C239.629924,81.1205496 228.05313,69.5443664 213.773435,69.5443664 L213.772824,69.5443664 C204.012214,69.5443664 196.099542,61.6316947 196.099542,51.871084 L196.099542,51.8692519 C196.099542,42.1086412 204.012214,34.1959695 213.772824,34.1959695 L220.348702,34.1959695 C227.741679,34.1959695 233.734962,28.202687 233.734962,20.8097099 L233.734962,20.8048244 C233.734962,13.4118473 227.741679,7.41856489 220.348702,7.41856489 L89.1535878,7.41856489 C72.5899237,7.41856489 59.1627481,20.8457405 59.1627481,37.4094046 L59.1627481,37.4100153 C59.1627481,53.9736794 45.7355725,67.400855 29.1719084,67.400855 L27.859542,67.400855 C12.4732824,67.400855 0,79.8741374 0,95.2603969"/>
    <polygon fill="#DCDDDE" points="151.601 115.346 169.831 115.346 169.831 112.903 151.601 112.903"/>
    <g transform="translate(9 .537)">
      <path fill="#DCDDDE" d="M164.800366,129.465649 L164.800366,122.964885 L164.104183,122.964885 C163.46113,122.964885 162.864489,122.771908 162.357618,122.450076 L162.357618,126.412214 C162.357618,126.749313 162.084031,127.022901 161.746931,127.022901 L127.555786,127.022901 C127.218687,127.022901 126.945099,126.749313 126.945099,126.412214 L126.945099,118.274809 L124.502351,118.274809 L124.502351,129.465649 L164.800366,129.465649 Z"/>
      <path fill="#F6F6F7" d="M144.498626,117.721527 C146.259847,117.721527 147.692519,119.154809 147.692519,120.916031 C147.692519,122.677252 146.259847,124.109924 144.498626,124.109924 C142.737405,124.109924 141.304122,122.677252 141.304122,120.916031 C141.304122,119.154809 142.737405,117.721527 144.498626,117.721527 L144.498626,117.721527 Z M153.972214,117.721527 C155.733435,117.721527 157.166718,119.154809 157.166718,120.916031 C157.166718,122.677252 155.733435,124.109924 153.972214,124.109924 C152.210382,124.109924 150.77771,122.677252 150.77771,120.916031 C150.77771,119.154809 152.210382,117.721527 153.972214,117.721527 L153.972214,117.721527 Z M161.136183,125.801527 L161.136183,121.052824 C160.944427,120.636947 160.830229,120.178321 160.830229,119.690992 L160.830229,117.560305 L160.830229,116.030534 L142.601221,116.030534 L142.601221,117.664122 C142.601221,118.001221 142.327634,118.274809 141.990534,118.274809 L136.818015,118.274809 C137.663206,118.850076 138.219542,119.819237 138.219542,120.916031 C138.219542,122.677252 136.78687,124.109924 135.025038,124.109924 C133.263817,124.109924 131.830534,122.677252 131.830534,120.916031 C131.830534,119.819237 132.38687,118.850076 133.232061,118.274809 L128.166412,118.274809 L128.166412,125.801527 L161.136183,125.801527 Z"/>
      <path fill="#FFF" d="M135.025221 122.888855C136.112855 122.888855 136.99774 122.003969 136.99774 120.916336 136.99774 119.828092 136.112855 118.943206 135.025221 118.943206 133.936977 118.943206 133.052092 119.828092 133.052092 120.916336 133.052092 122.003969 133.936977 122.888855 135.025221 122.888855M142.525496 120.916031C142.525496 122.003664 143.410382 122.88855 144.498626 122.88855 145.58626 122.88855 146.471145 122.003664 146.471145 120.916031 146.471145 119.827786 145.58626 118.942901 144.498626 118.942901 143.410382 118.942901 142.525496 119.827786 142.525496 120.916031M153.972031 122.888855C155.060275 122.888855 155.94516 122.003969 155.94516 120.916336 155.94516 119.828092 155.060275 118.943206 153.972031 118.943206 152.883786 118.943206 151.998901 119.828092 151.998901 120.916336 151.998901 122.003969 152.883786 122.888855 153.972031 122.888855M169.468824 95.5808855C169.131725 95.5808855 168.858137 95.3072977 168.858137 94.9701985L168.858137 80.3137099C168.858137 79.9766107 169.131725 79.7030229 169.468824 79.7030229L193.896305 79.7030229C194.233405 79.7030229 194.506992 79.9766107 194.506992 80.3137099L194.506992 94.9701985C194.506992 95.3072977 194.233405 95.5808855 193.896305 95.5808855L169.468824 95.5808855zM181.682565 77.8947786C182.019664 77.8947786 182.293252 78.1683664 182.293252 78.5054656 182.293252 78.8425649 182.019664 79.1161527 181.682565 79.1161527 181.345466 79.1161527 181.071878 78.8425649 181.071878 78.5054656 181.071878 78.1683664 181.345466 77.8947786 181.682565 77.8947786L181.682565 77.8947786zM189.621496 96.8022595L201.30455 96.8022595 201.30455 91.4605802C200.719511 91.4111145 200.257221 90.9243969 200.257221 90.327145L200.257221 88.8077557C200.22974 88.7381374 200.212031 88.6636336 200.212031 88.5842443L200.212031 86.376C200.212031 86.2398168 200.26516 86.1201221 200.340275 86.0187481 200.497832 85.626687 200.866076 85.345771 201.30455 85.3085191L201.30455 79.2859237C201.30455 78.1537099 200.383634 77.2334046 199.252031 77.2334046L164.095389 77.2334046C162.963786 77.2334046 162.04287 78.1537099 162.04287 79.2859237L162.04287 96.8022595 185.735695 96.8022595C186.072794 96.8022595 186.346382 97.0758473 186.346382 97.4129466L189.010809 97.4129466C189.010809 97.0758473 189.284397 96.8022595 189.621496 96.8022595L189.621496 96.8022595z"/>
      <polygon fill="#FFF" points="180.461 125.872 182.904 125.872 182.904 122.965 180.461 122.965"/>
      <polygon fill="#DCDDDE" points="175.102 129.334 188.263 129.334 188.263 127.094 175.102 127.094"/>
      <polygon fill="#DCDDDE" points="170.08 94.36 193.286 94.36 193.286 80.925 170.08 80.925"/>
      <path fill="#F6F6F7" d="M167.399084,105.671511 C167.399084,104.829985 166.713893,104.144794 165.872366,104.144794 C165.03084,104.144794 164.345649,104.829985 164.345649,105.671511 C164.345649,106.513038 165.03084,107.198229 165.872366,107.198229 C166.713893,107.198229 167.399084,106.513038 167.399084,105.671511"/>
      <path fill="#FFF" d="M170.690198,102.298443 C170.690198,101.961344 170.963786,101.687756 171.300885,101.687756 L192.064244,101.687756 C192.401344,101.687756 192.674931,101.961344 192.674931,102.298443 L192.674931,116.954931 C192.674931,117.292031 192.401344,117.565618 192.064244,117.565618 L171.300885,117.565618 C170.963786,117.565618 170.690198,117.292031 170.690198,116.954931 L170.690198,102.298443 Z M199.159206,108.797374 C198.484397,108.797374 197.937832,108.250198 197.937832,107.576 C197.937832,106.901191 198.484397,106.354626 199.159206,106.354626 C199.833405,106.354626 200.38058,106.901191 200.38058,107.576 C200.38058,108.250198 199.833405,108.797374 199.159206,108.797374 L199.159206,108.797374 Z M197.021802,110.934779 C196.346992,110.934779 195.800427,110.387603 195.800427,109.713405 C195.800427,109.038595 196.346992,108.492031 197.021802,108.492031 C197.696,108.492031 198.243176,109.038595 198.243176,109.713405 C198.243176,110.387603 197.696,110.934779 197.021802,110.934779 L197.021802,110.934779 Z M195.800427,105.438595 C195.800427,104.763786 196.346992,104.217221 197.021802,104.217221 C197.696,104.217221 198.243176,104.763786 198.243176,105.438595 C198.243176,106.112794 197.696,106.659969 197.021802,106.659969 C196.346992,106.659969 195.800427,106.112794 195.800427,105.438595 L195.800427,105.438595 Z M194.884397,108.797374 C194.209588,108.797374 193.663023,108.250198 193.663023,107.576 C193.663023,106.901191 194.209588,106.354626 194.884397,106.354626 C195.558595,106.354626 196.105771,106.901191 196.105771,107.576 C196.105771,108.250198 195.558595,108.797374 194.884397,108.797374 L194.884397,108.797374 Z M177.389435,120.834626 L176.676763,120.834626 C176.339664,120.834626 176.066076,120.561038 176.066076,120.223939 C176.066076,119.886229 176.339664,119.613252 176.676763,119.613252 L177.389435,119.613252 C177.726534,119.613252 178.000122,119.886229 178.000122,120.223939 C178.000122,120.561038 177.726534,120.834626 177.389435,120.834626 L177.389435,120.834626 Z M163.124397,105.671267 C163.124397,104.156153 164.356763,102.923176 165.872489,102.923176 C167.387603,102.923176 168.62058,104.156153 168.62058,105.671267 C168.62058,107.186992 167.387603,108.419359 165.872489,108.419359 C164.356763,108.419359 163.124397,107.186992 163.124397,105.671267 L163.124397,105.671267 Z M169.515847,113.351267 C169.515847,113.519817 169.379053,113.656611 169.210504,113.656611 L167.98913,113.656611 C167.82058,113.656611 167.683786,113.793405 167.683786,113.961954 L167.683786,115.183328 C167.683786,115.351878 167.546992,115.488672 167.378443,115.488672 L166.157069,115.488672 C165.988519,115.488672 165.851725,115.351878 165.851725,115.183328 L165.851725,113.961954 C165.851725,113.793405 165.714931,113.656611 165.546382,113.656611 L164.325008,113.656611 C164.156458,113.656611 164.019664,113.519817 164.019664,113.351267 L164.019664,112.129893 C164.019664,111.961344 164.156458,111.82455 164.325008,111.82455 L165.546382,111.82455 C165.714931,111.82455 165.851725,111.687756 165.851725,111.519206 L165.851725,110.297832 C165.851725,110.129282 165.988519,109.992489 166.157069,109.992489 L167.378443,109.992489 C167.546992,109.992489 167.683786,110.129282 167.683786,110.297832 L167.683786,111.519206 C167.683786,111.687756 167.82058,111.82455 167.98913,111.82455 L169.210504,111.82455 C169.379053,111.82455 169.515847,111.961344 169.515847,112.129893 L169.515847,113.351267 Z M162.05142,117.560122 C162.05142,118.692336 162.972336,119.613252 164.10455,119.613252 L173.827298,119.613252 C174.164397,119.613252 174.437985,119.886229 174.437985,120.223939 C174.437985,120.561038 174.164397,120.834626 173.827298,120.834626 L164.10455,120.834626 C163.346687,120.834626 162.657221,120.565313 162.102107,120.131725 C162.304244,121.05142 163.123786,121.743328 164.10455,121.743328 L196.716458,121.743328 L196.716458,120.834626 L182.293252,120.834626 C181.956153,120.834626 181.682565,120.561038 181.682565,120.223939 C181.682565,119.886229 181.956153,119.613252 182.293252,119.613252 L196.716458,119.613252 L196.716458,112.976916 C196.716458,112.639817 196.989435,112.366229 197.327145,112.366229 L201.31371,112.366229 L201.31371,102.879206 L201.31371,100.466382 L162.05142,100.466382 L162.05142,102.879206 L162.05142,117.560122 Z"/>
      <polygon fill="#DCDDDE" points="171.912 116.344 191.454 116.344 191.454 102.909 171.912 102.909"/>
      <path fill="#DCDDDE" d="M160.919206,99.2450076 L202.445924,99.2450076 C202.782412,99.2450076 203.056611,98.9708092 203.056611,98.6343206 C203.056611,98.2978321 202.782412,98.0236336 202.445924,98.0236336 L189.621496,98.0236336 C189.284397,98.0236336 189.010809,97.7500458 189.010809,97.4129466 L186.346382,97.4129466 C186.346382,97.7500458 186.072794,98.0236336 185.735695,98.0236336 L160.919206,98.0236336 C160.582718,98.0236336 160.308519,98.2978321 160.308519,98.6343206 C160.308519,98.9708092 160.582718,99.2450076 160.919206,99.2450076"/>
      <path fill="#F6F6F7" d="M206.091847,113.587786 L197.937344,113.587786 L197.937344,126.412214 C197.937344,128.095878 199.307725,129.465649 200.990779,129.465649 L208.319023,129.465649 C210.002687,129.465649 211.372458,128.095878 211.372458,126.412214 L211.372458,113.587786 L208.457649,113.587786 C208.119939,113.587786 207.846962,113.314198 207.846962,112.977099 L207.846962,112.977099 L206.702534,112.977099 L206.702534,112.977099 C206.702534,113.314198 206.428947,113.587786 206.091847,113.587786"/>
      <polygon fill="#DCDDDE" points="79.094 43.673 81.537 43.673 81.537 41.66 79.094 41.66"/>
      <path fill="#DCDDDE" d="M80.3156641,33.3939542 C81.8790229,33.3939542 83.151084,34.6660153 83.151084,36.229374 C83.151084,37.7927328 81.8790229,39.0647939 80.3156641,39.0647939 C78.7523053,39.0647939 77.4802443,37.7927328 77.4802443,36.229374 C77.4802443,34.6660153 78.7523053,33.3939542 80.3156641,33.3939542 M84.5251298,39.5661679 L84.5251298,32.0199084 L76.1061985,32.0199084 L76.1061985,40.4388397 L83.652458,40.4388397 C84.1342901,40.4388397 84.5251298,40.048 84.5251298,39.5661679"/>
      <path fill="#FFF" d="M80.3156641,37.8432366 C81.2060458,37.8432366 81.9297099,37.1189618 81.9297099,36.2291908 C81.9297099,35.3394198 81.2060458,34.615145 80.3156641,34.615145 C79.4258931,34.615145 78.7016183,35.3394198 78.7016183,36.2291908 C78.7016183,37.1189618 79.4258931,37.8432366 80.3156641,37.8432366"/>
      <polygon fill="#F6F6F7" points="71.766 122.269 91.918 122.269 91.918 118.275 71.766 118.275"/>
      <polygon fill="#DCDDDE" points="141.99 43.771 141.99 43.673 82.759 43.673 81.537 43.673 79.094 43.673 77.873 43.673 19.863 43.673 19.863 43.771 19.863 43.771"/>
      <path fill="#FFF" d="M135.272733,110.946443 L135.272733,51.0991145 L26.5802137,51.0991145 L26.5802137,78.5867481 C29.4718168,76.6759084 32.9331908,75.5595725 36.6510534,75.5595725 C46.7530382,75.5595725 54.9716641,83.7781985 54.9716641,93.8801832 C54.9716641,101.63713 50.1234198,108.278351 43.3002137,110.946443 L135.272733,110.946443 Z"/>
      <polygon fill="#FFF" points="112.612 125.322 115.054 125.322 115.054 123.49 111.39 123.49 111.39 125.322"/>
      <path fill="#FFF" d="M113.222412,126.543389 L113.222412,128.37545 C113.222412,129.049649 113.769588,129.596824 114.443786,129.596824 L115.66516,129.596824 C116.339359,129.596824 116.886534,129.049649 116.886534,128.37545 L116.886534,126.543389 L113.222412,126.543389 Z"/>
      <polygon fill="#DCDDDE" points="52.774 123.49 52.774 125.322 55.217 125.322 62.606 125.322 73.598 125.322 76.87 125.322 83.081 125.322 93.135 125.322 99.242 125.322 110.169 125.322 110.169 123.49"/>
      <path fill="#FFF" d="M55.8276641,129.596824 L63.2163664,129.596824 L74.2087328,129.596824 L92.524458,129.596824 L98.6313282,129.596824 L110.779725,129.596824 C111.453924,129.596824 112.001099,129.049649 112.001099,128.37545 L112.001099,126.543389 L98.6313282,126.543389 L92.524458,126.543389 L83.0814046,126.543389 L76.8701069,126.543389 L74.2087328,126.543389 L63.2163664,126.543389 L55.8276641,126.543389 L50.9421679,126.543389 L50.9421679,128.37545 C50.9421679,129.049649 51.4893435,129.596824 52.163542,129.596824 L55.8276641,129.596824 Z"/>
      <path fill="#DCDDDE" d="M207.535634,23.4419542 C208.547542,23.4419542 209.367695,24.2621069 209.367695,25.2740153 L209.367695,50.9228702 C209.367695,51.9347786 208.547542,52.7549313 207.535634,52.7549313 L179.444031,52.7549313 C178.432122,52.7549313 177.611969,51.9347786 177.611969,50.9228702 L177.611969,25.2740153 C177.611969,24.2621069 178.432122,23.4419542 179.444031,23.4419542 L207.535634,23.4419542 Z M202.650137,20.3885191 L176.390595,20.3885191 C175.378687,20.3885191 174.558534,21.2086718 174.558534,22.2205802 L174.558534,53.9763053 C174.558534,54.9882137 175.378687,55.8083664 176.390595,55.8083664 L210.589069,55.8083664 C211.600977,55.8083664 212.42113,54.9882137 212.42113,53.9763053 L212.42113,22.2205802 C212.42113,21.2086718 211.600977,20.3885191 210.589069,20.3885191 L205.622351,20.3885191 C205.285252,20.3885191 205.011664,20.1149313 205.011664,19.7778321 L203.260824,19.7778321 C203.261435,20.1149313 202.987847,20.3885191 202.650137,20.3885191 L202.650137,20.3885191 Z"/>
      <path fill="#F6F6F7" d="M191.271328,41.4774962 C191.271328,39.9507786 192.513466,38.7092519 194.039573,38.7092519 C195.56629,38.7092519 196.807817,39.9507786 196.807817,41.4774962 L196.807817,42.9571908 C196.807817,44.4832977 195.56629,45.7254351 194.039573,45.7254351 C192.513466,45.7254351 191.271328,44.4832977 191.271328,42.9571908 L191.271328,41.4774962 Z M198.294229,40.8869618 C198.294229,39.6857405 199.271328,38.7092519 200.471939,38.7092519 C201.67316,38.7092519 202.65026,39.6857405 202.65026,40.8869618 L202.65026,43.5477252 C202.65026,44.7483359 201.67316,45.7254351 200.471939,45.7254351 C199.271328,45.7254351 198.294229,44.7483359 198.294229,43.5477252 L198.294229,40.8869618 Z M182.497588,47.5574962 C182.834687,47.5574962 183.108275,47.8304733 183.108275,48.1681832 L183.108275,48.6261985 C183.108275,48.9632977 182.834687,49.2368855 182.497588,49.2368855 L182.497588,51.5336794 L203.871634,51.5336794 L203.871634,39.3199389 C203.871634,33.5953588 199.214534,28.9382595 193.489954,28.9382595 C187.765374,28.9382595 183.108275,33.5953588 183.108275,39.3199389 L183.108275,45.9544427 C183.108275,46.291542 182.834687,46.5651298 182.497588,46.5651298 L182.497588,47.5574962 Z"/>
      <path fill="#FFF" d="M200.472183 44.5041221C200.999817 44.5041221 201.428519 44.0748092 201.428519 43.5477863L201.428519 40.8870229C201.428519 40.3593893 200.999817 39.930687 200.472183 39.930687 199.94455 39.930687 199.515847 40.3593893 199.515847 40.8870229L199.515847 43.5477863C199.515847 44.0748092 199.94455 44.5041221 200.472183 44.5041221M194.039695 44.5041221C194.892824 44.5041221 195.586565 43.8103817 195.586565 42.9572519L195.586565 41.4775573C195.586565 40.6244275 194.892824 39.930687 194.039695 39.930687 193.186565 39.930687 192.492824 40.6244275 192.492824 41.4775573L192.492824 42.9572519C192.492824 43.8103817 193.186565 44.5041221 194.039695 44.5041221M111.684336 26.4614351C106.770748 27.0379237 104.957008 28.8907481 104.561893 29.3750229L104.561893 31.2180763 106.928305 31.2180763 111.684336 26.4614351zM161.966412 25.8340153C160.040305 26.285313 154.602137 27.4596641 147.64458 28.1295878L150.627176 31.2178321 161.966412 31.2178321 161.966412 25.8340153z"/>
      <polygon fill="#DCDDDE" points="129.143 10.731 108.655 31.218 148.929 31.218"/>
      <polygon fill="#FFF" points="17.787 99.433 11.757 93.867 11.757 99.433"/>
      <path fill="#FFF" d="M11.7568244 92.2048244L19.0447634 98.9321527C18.583084 97.3260458 18.3308702 95.6326107 18.3308702 93.8799389 18.3308702 93.493374 18.3467481 93.1104733 18.3705649 92.7294046L13.3501069 88.0955115C12.3730076 88.9987176 11.7568244 90.2860458 11.7568244 91.7187176L11.7568244 92.2048244zM18.9165802 86.778687L16.6961221 86.778687C15.8521527 86.778687 15.0576489 86.9924275 14.3620763 87.3667786L18.5269618 91.2116641C18.7498626 89.6904427 19.1602443 88.2290687 19.7342901 86.8525802 19.4674198 86.8073893 19.1956641 86.778687 18.9165802 86.778687"/>
      <path fill="#DCDDDE" d="M23.8563053 128.133618C23.8563053 127.398962 23.2584427 126.80171 22.5243969 126.80171L13.0886718 126.80171C12.354626 126.80171 11.7567634 127.398962 11.7567634 128.133618 11.7567634 128.868275 12.354626 129.465527 13.0886718 129.465527L22.5243969 129.465527C23.2584427 129.465527 23.8563053 128.868275 23.8563053 128.133618M17.8064122 103.922382C19.9798473 103.922382 21.7477863 105.690321 21.7477863 107.863145 21.7477863 110.035969 19.9798473 111.803908 17.8064122 111.803908 15.6335878 111.803908 13.8656489 110.035969 13.8656489 107.863145 13.8656489 105.690321 15.6335878 103.922382 17.8064122 103.922382M14.4763359 116.607573L21.1370992 116.607573C23.5548092 116.607573 25.5212214 114.64055 25.5212214 112.22284L25.5212214 108.41826C22.9196947 106.421924 20.8690076 103.744672 19.6341985 100.654595L10.591145 100.654595C10.3157252 100.654595 10.0916031 100.878718 10.0916031 101.154137L10.0916031 112.22284C10.0916031 114.64055 12.058626 116.607573 14.4763359 116.607573M39.370687 111.997557C38.4827481 112.130076 37.5752672 112.200916 36.6512977 112.200916 35.7273282 112.200916 34.8192366 112.130076 33.9319084 111.997557L33.9319084 114.247939 39.370687 114.247939 39.370687 111.997557z"/>
      <path fill="#F6F6F7" d="M36.6512366,108.231145 C28.7379542,108.231145 22.3000916,101.793282 22.3000916,93.88 C22.3000916,85.9667176 28.7379542,79.528855 36.6512366,79.528855 C37.8365802,79.528855 39.0158168,79.6735878 40.1553588,79.96 C40.4820763,80.0418321 40.6811603,80.3740458 40.5987176,80.7007634 C40.5968855,80.7068702 40.5932214,80.7105344 40.5913893,80.7160305 C41.3974962,80.9566412 42.172458,81.271145 42.9089466,81.6485496 C42.912,81.6430534 42.9113893,81.6369466 42.9144427,81.6314504 C43.081771,81.3377099 43.4542901,81.2351145 43.7474198,81.4030534 C44.2750534,81.7041221 44.7904733,82.0430534 45.2784122,82.410687 C45.5477252,82.6134351 45.6020763,82.9963359 45.3993282,83.2656489 C45.3962748,83.269313 45.3913893,83.2705344 45.3883359,83.2748092 C45.7352061,83.5612214 46.0674198,83.8641221 46.3849771,84.1829008 C46.3886412,84.1792366 46.3898626,84.1743511 46.3935267,84.1712977 C46.642687,83.9441221 47.0292519,83.9618321 47.2558168,84.2109924 C49.6716947,86.8583206 51.0023817,90.2928244 51.0023817,93.88 C51.0023817,101.793282 44.5645191,108.231145 36.6512366,108.231145 M53.7504733,93.88 C53.7504733,84.4516031 46.0796336,76.7807634 36.6512366,76.7807634 C27.2228397,76.7807634 19.552,84.4516031 19.552,93.88 C19.552,103.308397 27.2228397,110.979237 36.6512366,110.979237 C46.0796336,110.979237 53.7504733,103.308397 53.7504733,93.88"/>
      <path fill="#B9BBBE" d="M144.498626 118.942901C145.58626 118.942901 146.471145 119.827786 146.471145 120.916031 146.471145 122.003664 145.58626 122.88855 144.498626 122.88855 143.410382 122.88855 142.525496 122.003664 142.525496 120.916031 142.525496 119.827786 143.410382 118.942901 144.498626 118.942901M144.498626 124.109924C146.259847 124.109924 147.692519 122.677252 147.692519 120.916031 147.692519 119.154809 146.259847 117.721527 144.498626 117.721527 142.737405 117.721527 141.304122 119.154809 141.304122 120.916031 141.304122 122.677252 142.737405 124.109924 144.498626 124.109924M153.972031 118.942901C155.060275 118.942901 155.94516 119.827786 155.94516 120.916031 155.94516 122.003664 155.060275 122.88855 153.972031 122.88855 152.883786 122.88855 151.998901 122.003664 151.998901 120.916031 151.998901 119.827786 152.883786 118.942901 153.972031 118.942901M153.972031 124.109924C155.733252 124.109924 157.166534 122.677252 157.166534 120.916031 157.166534 119.154809 155.733252 117.721527 153.972031 117.721527 152.210809 117.721527 150.777527 119.154809 150.777527 120.916031 150.777527 122.677252 152.210809 124.109924 153.972031 124.109924M181.682565 79.1158473C182.019664 79.1158473 182.293252 78.8428702 182.293252 78.5051603 182.293252 78.1680611 182.019664 77.8944733 181.682565 77.8944733 181.345466 77.8944733 181.071878 78.1680611 181.071878 78.5051603 181.071878 78.8428702 181.345466 79.1158473 181.682565 79.1158473M192.674931 94.3595115L170.690198 94.3595115C170.353099 94.3595115 170.079511 94.0859237 170.079511 93.7488244L170.079511 81.535084C170.079511 81.1979847 170.353099 80.9243969 170.690198 80.9243969L192.674931 80.9243969C193.012031 80.9243969 193.285618 81.1979847 193.285618 81.535084L193.285618 93.7488244C193.285618 94.0859237 193.012031 94.3595115 192.674931 94.3595115M194.506992 94.9701985L194.506992 80.3137099C194.506992 79.9766107 194.233405 79.7030229 193.896305 79.7030229L169.468824 79.7030229C169.131725 79.7030229 168.858137 79.9766107 168.858137 80.3137099L168.858137 94.9701985C168.858137 95.3072977 169.131725 95.5808855 169.468824 95.5808855L193.896305 95.5808855C194.233405 95.5808855 194.506992 95.3072977 194.506992 94.9701985M177.389557 119.612947L176.676885 119.612947C176.339786 119.612947 176.066198 119.886534 176.066198 120.223634 176.066198 120.560733 176.339786 120.834321 176.676885 120.834321L177.389557 120.834321C177.726656 120.834321 178.000244 120.560733 178.000244 120.223634 178.000244 119.886534 177.726656 119.612947 177.389557 119.612947M164.345649 105.671511C164.345649 104.829985 165.03084 104.144794 165.872366 104.144794 166.713893 104.144794 167.399084 104.829985 167.399084 105.671511 167.399084 106.513038 166.713893 107.198229 165.872366 107.198229 165.03084 107.198229 164.345649 106.513038 164.345649 105.671511M168.620458 105.671511C168.620458 104.156397 167.387481 102.92342 165.872366 102.92342 164.357252 102.92342 163.124275 104.156397 163.124275 105.671511 163.124275 107.186626 164.357252 108.419603 165.872366 108.419603 167.387481 108.419603 168.620458 107.186626 168.620458 105.671511M168.904916 111.824611L168.904916 111.824611C168.230718 111.824611 167.683542 111.277435 167.683542 110.603237 167.683542 110.266137 167.410565 109.99255 167.072855 109.99255L166.462168 109.99255C166.125069 109.99255 165.851481 110.266137 165.851481 110.603237 165.851481 111.277435 165.304916 111.824611 164.630107 111.824611L164.630107 111.824611C164.293008 111.824611 164.01942 112.098198 164.01942 112.435298L164.01942 113.045985C164.01942 113.383084 164.293008 113.656672 164.630107 113.656672L164.630107 113.656672C165.304916 113.656672 165.851481 114.203847 165.851481 114.878046 165.851481 115.215145 166.125069 115.488733 166.462168 115.488733L167.072855 115.488733C167.410565 115.488733 167.683542 115.215145 167.683542 114.878046 167.683542 114.203847 168.230718 113.656672 168.904916 113.656672 169.242626 113.656672 169.515603 113.383084 169.515603 113.045985L169.515603 112.435298C169.515603 112.098198 169.242626 111.824611 168.904916 111.824611M197.021618 106.659725C197.695817 106.659725 198.242992 106.11255 198.242992 105.438351 198.242992 104.764153 197.695817 104.216977 197.021618 104.216977 196.346809 104.216977 195.800244 104.764153 195.800244 105.438351 195.800244 106.11255 196.346809 106.659725 197.021618 106.659725M197.021618 108.491786C196.346809 108.491786 195.800244 109.038962 195.800244 109.71316 195.800244 110.387359 196.346809 110.934534 197.021618 110.934534 197.695817 110.934534 198.242992 110.387359 198.242992 109.71316 198.242992 109.038962 197.695817 108.491786 197.021618 108.491786M199.159023 108.79713C199.833221 108.79713 200.380397 108.249954 200.380397 107.575756 200.380397 106.901557 199.833221 106.354382 199.159023 106.354382 198.484214 106.354382 197.937649 106.901557 197.937649 107.575756 197.937649 108.249954 198.484214 108.79713 199.159023 108.79713M194.884214 108.79713C195.558412 108.79713 196.105588 108.249954 196.105588 107.575756 196.105588 106.901557 195.558412 106.354382 194.884214 106.354382 194.209405 106.354382 193.66284 106.901557 193.66284 107.575756 193.66284 108.249954 194.209405 108.79713 194.884214 108.79713M190.232183 115.732947L173.132947 115.732947C172.458748 115.732947 171.911573 115.186382 171.911573 114.511573L171.911573 103.519817C171.911573 103.182718 172.18516 102.90913 172.52226 102.90913L190.84287 102.90913C191.179969 102.90913 191.453557 103.182718 191.453557 103.519817L191.453557 114.511573C191.453557 115.186382 190.906382 115.732947 190.232183 115.732947M192.674931 116.954931L192.674931 102.298443C192.674931 101.961344 192.401344 101.687756 192.064244 101.687756L171.300885 101.687756C170.963786 101.687756 170.690198 101.961344 170.690198 102.298443L170.690198 116.954931C170.690198 117.292031 170.963786 117.565618 171.300885 117.565618L192.064244 117.565618C192.401344 117.565618 192.674931 117.292031 192.674931 116.954931M224.124397 129.465649L223.046534 129.465649C222.709435 129.465649 222.435847 129.739237 222.435847 130.076336 222.435847 130.413435 222.709435 130.687023 223.046534 130.687023L224.124397 130.687023C224.461496 130.687023 224.735084 130.413435 224.735084 130.076336 224.735084 129.739237 224.461496 129.465649 224.124397 129.465649M80.3156641 37.8432366C79.4258931 37.8432366 78.7016183 37.1189618 78.7016183 36.2291908 78.7016183 35.3394198 79.4258931 34.615145 80.3156641 34.615145 81.2060458 34.615145 81.9297099 35.3394198 81.9297099 36.2291908 81.9297099 37.1189618 81.2060458 37.8432366 80.3156641 37.8432366M80.3156641 33.393771C78.7523053 33.393771 77.4802443 34.6658321 77.4802443 36.2291908 77.4802443 37.7925496 78.7523053 39.0646107 80.3156641 39.0646107 81.8790229 39.0646107 83.151084 37.7925496 83.151084 36.2291908 83.151084 34.6658321 81.8790229 33.393771 80.3156641 33.393771M175.169221 57.0297405L211.810443 57.0297405C212.822351 57.0297405 213.642504 56.2095878 213.642504 55.1976794L213.642504 20.9992061C213.642504 19.9872977 212.822351 19.167145 211.810443 19.167145L205.622351 19.167145C205.285252 19.167145 205.011664 19.4407328 205.011664 19.7778321 205.011664 20.1149313 205.285252 20.3885191 205.622351 20.3885191L210.589069 20.3885191C211.600977 20.3885191 212.42113 21.2086718 212.42113 22.2205802L212.42113 53.9763053C212.42113 54.9882137 211.600977 55.8083664 210.589069 55.8083664L176.390595 55.8083664C175.378687 55.8083664 174.558534 54.9882137 174.558534 53.9763053L174.558534 22.2205802C174.558534 21.2086718 175.378687 20.3885191 176.390595 20.3885191L202.650137 20.3885191C202.987847 20.3885191 203.260824 20.1149313 203.260824 19.7778321 203.260824 19.4407328 202.987847 19.167145 202.650137 19.167145L175.169221 19.167145C174.157313 19.167145 173.33716 19.9872977 173.33716 20.9992061L173.33716 55.1976794C173.33716 56.2095878 174.157313 57.0297405 175.169221 57.0297405"/>
      <path fill="#B9BBBE" d="M180.665405,24.6633282 L206.31426,24.6633282 C207.326168,24.6633282 208.146321,25.4834809 208.146321,26.4953893 L208.146321,44.2010382 C208.146321,45.2129466 207.326168,46.0330992 206.31426,46.0330992 C205.640061,46.0330992 205.092885,45.4865344 205.092885,44.8117252 L205.092885,39.6050076 C205.092885,33.3216489 200.21655,27.9628702 193.937466,27.725313 C187.33655,27.475542 181.886779,32.7732519 181.886779,39.3198168 L181.886779,45.9543206 C181.886779,46.2914198 182.160366,46.5650076 182.497466,46.5650076 C182.834565,46.5650076 183.108153,46.2914198 183.108153,45.9543206 L183.108153,39.594626 C183.108153,33.7876031 187.859908,28.8422595 193.666321,28.9393588 C199.309679,29.0340153 203.871511,33.6544733 203.871511,39.3198168 L203.871511,49.0908092 C203.871511,50.4398168 202.777771,51.5335573 201.428763,51.5335573 L182.497466,51.5335573 L180.665405,51.5335573 C179.653496,51.5335573 178.833344,50.7134046 178.833344,49.7014962 L178.833344,26.4953893 C178.833344,25.4834809 179.653496,24.6633282 180.665405,24.6633282 M177.611969,25.2740153 L177.611969,50.9228702 C177.611969,51.9347786 178.432122,52.7549313 179.444031,52.7549313 L207.535634,52.7549313 C208.547542,52.7549313 209.367695,51.9347786 209.367695,50.9228702 L209.367695,25.2740153 C209.367695,24.2621069 208.547542,23.4419542 207.535634,23.4419542 L179.444031,23.4419542 C178.432122,23.4419542 177.611969,24.2621069 177.611969,25.2740153"/>
      <path fill="#B9BBBE" d="M183.108153 48.6262595L183.108153 48.1682443C183.108153 47.8305344 182.834565 47.5575573 182.497466 47.5575573 182.160366 47.5575573 181.886779 47.8305344 181.886779 48.1682443L181.886779 48.6262595C181.886779 48.9633588 182.160366 49.2369466 182.497466 49.2369466 182.834565 49.2369466 183.108153 48.9633588 183.108153 48.6262595M199.515603 40.8867786C199.515603 40.3597557 199.944916 39.9304427 200.471939 39.9304427 200.999573 39.9304427 201.428885 40.3597557 201.428885 40.8867786L201.428885 43.547542C201.428885 44.0751756 200.999573 44.5038779 200.471939 44.5038779 199.944916 44.5038779 199.515603 44.0751756 199.515603 43.547542L199.515603 40.8867786zM200.471939 45.7252519C201.67316 45.7252519 202.65026 44.7481527 202.65026 43.547542L202.65026 40.8867786C202.65026 39.6861679 201.67316 38.7090687 200.471939 38.7090687 199.271328 38.7090687 198.294229 39.6861679 198.294229 40.8867786L198.294229 43.547542C198.294229 44.7481527 199.271328 45.7252519 200.471939 45.7252519L200.471939 45.7252519zM192.492702 41.4774962C192.492702 40.6243664 193.186443 39.930626 194.039573 39.930626 194.892702 39.930626 195.586443 40.6243664 195.586443 41.4774962L195.586443 42.9571908C195.586443 43.8103206 194.892702 44.5040611 194.039573 44.5040611 193.186443 44.5040611 192.492702 43.8103206 192.492702 42.9571908L192.492702 41.4774962zM194.039573 45.7254351C195.56629 45.7254351 196.807817 44.4832977 196.807817 42.9571908L196.807817 41.4774962C196.807817 39.9507786 195.56629 38.7092519 194.039573 38.7092519 192.513466 38.7092519 191.271328 39.9507786 191.271328 41.4774962L191.271328 42.9571908C191.271328 44.4832977 192.513466 45.7254351 194.039573 45.7254351L194.039573 45.7254351zM99.6763359 36.7139542L111.524885 36.7139542C111.862595 36.7139542 112.135573 36.4403664 112.135573 36.1032672 112.135573 35.7661679 111.862595 35.4925802 111.524885 35.4925802L102.729771 35.4925802C101.380763 35.4925802 100.287023 34.3988397 100.287023 33.0498321L100.287023 3.73746565C100.287023 2.38845802 101.380763 1.29471756 102.729771 1.29471756L163.798473 1.29471756C165.147481 1.29471756 166.241221 2.38845802 166.241221 3.73746565L166.241221 33.0498321C166.241221 34.3988397 165.147481 35.4925802 163.798473 35.4925802L119.692824 35.4925802C119.355725 35.4925802 119.082137 35.7661679 119.082137 36.1032672 119.082137 36.4403664 119.355725 36.7139542 119.692824 36.7139542L166.851908 36.7139542C167.189008 36.7139542 167.462595 36.4403664 167.462595 36.1032672L167.462595.684030534C167.462595.346931298 167.189008.0733435115 166.851908.0733435115L99.6763359.0733435115C99.3392366.0733435115 99.0656489.346931298 99.0656489.684030534L99.0656489 36.1032672C99.0656489 36.4403664 99.3392366 36.7139542 99.6763359 36.7139542"/>
      <path fill="#B9BBBE" d="M116.181313 35.4925802C115.844214 35.4925802 115.570626 35.7661679 115.570626 36.1032672 115.570626 36.4403664 115.844214 36.7139542 116.181313 36.7139542L117.517496 36.7139542C117.854595 36.7139542 118.128183 36.4403664 118.128183 36.1032672 118.128183 35.7661679 117.854595 35.4925802 117.517496 35.4925802L116.181313 35.4925802zM142.779603 15.2516641C142.424794 15.3176183 142.068763 15.3872366 141.710901 15.458687 141.026321 15.5948702 140.330137 15.768916 139.583878 15.989374 139.260214 16.0852519 139.075786 16.4247939 139.171053 16.748458 139.249832 17.0141069 139.492885 17.1857099 139.756702 17.1857099 139.814107 17.1857099 139.872122 17.177771 139.930137 17.1606718 140.640977 16.9505954 141.30174 16.7857099 141.949679 16.6562443 142.302656 16.5860153 142.653802 16.5176183 143.003725 16.4522748 143.335328 16.3899847 143.553954 16.0712061 143.492275 15.7396031 143.429985 15.408 143.109374 15.1887634 142.779603 15.2516641"/>
      <path fill="#B9BBBE" d="M161.966412 11.8371298C154.411603 9.41758779 145.461985 10.6188092 136.941069 12.7024733 134.836641 13.2166718 132.617405 12.5705649 131.112061 11.0114809L129.589008 9.43529771C129.47542 9.31743511 129.319084 9.25025954 129.15542 9.24903817 128.970382 9.23010687 128.834198 9.31193893 128.718168 9.42796947L124.504427 13.6417099C122.198473 15.9470534 118.939847 17.0487328 115.712977 16.584 109.920611 15.7504122 105.609771 13.0676641 104.561832 12.3647634L104.561832 6.7910229C104.561832 6.11682443 105.109008 5.56964885 105.783206 5.56964885L160.745038 5.56964885C161.419237 5.56964885 161.966412 6.11682443 161.966412 6.7910229L161.966412 11.8371298zM161.966412 18.8899542C155.81374 14.1229313 150.192366 14.1223206 145.019847 14.8752977 144.686412 14.923542 144.454962 15.233771 144.503817 15.5672061 144.552061 15.9012519 144.864733 16.1302595 145.196336 16.0838473 149.949313 15.3919389 155.096794 15.3687328 160.697405 19.4646107 161.505954 20.0557557 161.966412 21.0120916 161.966412 22.0136183 161.966412 23.5421679 160.882443 24.843542 159.383817 25.1476641 157.421679 25.5464427 154.608855 25.764458 151.254351 26.0197252 148.263206 26.2475115 145.316031 25.1708702 143.178626 23.0664427L134.553282 14.5754504C142.323053 12.5058321 150.606412 10.9504122 157.867481 12.1204885 160.232061 12.5015573 161.966412 14.5510229 161.966412 16.9461374L161.966412 18.8899542zM160.745038 31.2178931L152.96 31.2178931C151.469313 31.2178931 150.042137 30.6120916 149.006412 29.5397252L147.64458 28.1296489C153.273893 27.5879695 157.909008 26.7152977 160.493435 26.1632366 161.25374 26.0007939 161.966412 26.5809466 161.966412 27.3583511L161.966412 29.9965191C161.966412 30.6707176 161.419237 31.2178931 160.745038 31.2178931L160.745038 31.2178931zM109.69771 30.1754504L126.50626 13.3669008C127.954809 11.9183511 130.309618 11.9391145 131.732519 13.4127023L147.929771 30.1827786C148.303511 30.5705649 148.029313 31.2178931 147.490076 31.2178931L110.129466 31.2178931C109.585954 31.2178931 109.312977 30.5601832 109.69771 30.1754504L109.69771 30.1754504zM104.561832 29.9965191L104.561832 29.9965191C104.561832 29.5568244 104.748702 29.1391145 105.082748 28.853313 105.959084 28.1033893 107.904122 26.9046107 111.684275 26.4612519L107.370992 30.775145C107.087634 31.0585038 106.702901 31.2178931 106.30229 31.2178931L105.783206 31.2178931C105.109008 31.2178931 104.561832 30.6707176 104.561832 29.9965191L104.561832 29.9965191zM104.561832 15.924458C104.561832 15.0114809 105.52916 14.4148397 106.338931 14.8368244 109.067481 16.2597252 113.612824 18.0759084 119.036947 18.0759084 119.385649 18.0759084 119.739847 18.0655267 120.095878 18.0496489L119.113282 19.032855C117.432672 20.712855 115.036947 21.4981985 112.698626 21.0743817 110.335267 20.6469008 108.429924 20.094229 107.003359 19.5904122 106.685802 19.4774351 106.335878 19.6441527 106.224122 19.9623206 106.111756 20.2804885 106.278473 20.6291908 106.596031 20.7421679 108.626565 21.4597252 111.592061 22.2719389 115.434504 22.7116336L113.035115 25.1104122C109.933435 25.2856794 107.772824 25.9262901 106.298015 26.6298015 105.490687 27.015145 104.561832 26.4191145 104.561832 25.524458L104.561832 15.924458zM163.187786 31.8285802L163.187786 4.95896183C163.187786 4.6218626 162.914198 4.34827481 162.577099 4.34827481L103.951145 4.34827481C103.614046 4.34827481 103.340458 4.6218626 103.340458 4.95896183L103.340458 31.8285802C103.340458 32.1656794 103.614046 32.4392672 103.951145 32.4392672L162.577099 32.4392672C162.914198 32.4392672 163.187786 32.1656794 163.187786 31.8285802L163.187786 31.8285802zM7.07883969 64.7289771L7.39029008 64.7289771C7.72738931 64.7289771 8.0009771 65.0025649 8.0009771 65.3396641L8.0009771 65.6511145C8.0009771 65.9882137 8.27456489 66.2618015 8.61166412 66.2618015 8.94937405 66.2618015 9.22235115 65.9882137 9.22235115 65.6511145L9.22235115 65.3396641C9.22235115 65.0019542 9.49593893 64.7289771 9.83303817 64.7289771L10.1444885 64.7289771C10.4815878 64.7289771 10.7551756 64.4553893 10.7551756 64.1182901 10.7551756 63.7805802 10.4815878 63.5076031 10.1444885 63.5076031L9.83303817 63.5076031C9.49593893 63.5076031 9.22235115 63.2340153 9.22235115 62.896916L9.22235115 62.5854656C9.22235115 62.2483664 8.94937405 61.9747786 8.61166412 61.9747786 8.27456489 61.9747786 8.0009771 62.2483664 8.0009771 62.5854656L8.0009771 62.896916C8.0009771 63.2340153 7.72738931 63.5076031 7.39029008 63.5076031L7.07883969 63.5076031C6.74174046 63.5076031 6.46815267 63.7811908 6.46815267 64.1182901 6.46815267 64.4553893 6.74174046 64.7289771 7.07883969 64.7289771M56.229313 4.95798473L57.1514504 4.95798473 57.1514504 5.88012214C57.1514504 6.21783206 57.4250382 6.49080916 57.7621374 6.49080916 58.0992366 6.49080916 58.3728244 6.21783206 58.3728244 5.88012214L58.3728244 4.95798473 59.2949618 4.95798473C59.6320611 4.95798473 59.9056489 4.68439695 59.9056489 4.34729771 59.9056489 4.01019847 59.6320611 3.73661069 59.2949618 3.73661069L58.3728244 3.73661069 58.3728244 2.81447328C58.3728244 2.47737405 58.0992366 2.20378626 57.7621374 2.20378626 57.4250382 2.20378626 57.1514504 2.47737405 57.1514504 2.81447328L57.1514504 3.73661069 56.229313 3.73661069C55.8922137 3.73661069 55.618626 4.01019847 55.618626 4.34729771 55.618626 4.68439695 55.8922137 4.95798473 56.229313 4.95798473M39.5532214 22.6034809C39.7095573 22.6034809 39.8658931 22.5436336 39.9849771 22.4245496L40.7074198 21.7021069C40.9461985 21.4633282 40.9461985 21.0767634 40.7074198 20.8385954 40.4692519 20.5998168 40.082687 20.5998168 39.8439084 20.8385954L39.1214656 21.5610382C38.882687 21.7998168 38.882687 22.185771 39.1214656 22.4245496 39.2405496 22.5436336 39.3968855 22.6034809 39.5532214 22.6034809M35.9403359 26.2163053C36.0966718 26.2163053 36.2530076 26.156458 36.3720916 26.037374L37.0945344 25.3149313C37.333313 25.0761527 37.333313 24.6895878 37.0945344 24.4514198 36.8563664 24.2126412 36.4698015 24.2126412 36.2310229 24.4514198L35.5085802 25.1738626C35.2698015 25.4126412 35.2698015 25.7985954 35.5085802 26.037374 35.6276641 26.156458 35.784 26.2163053 35.9403359 26.2163053M39.8439084 26.037374C39.9629924 26.156458 40.1193282 26.2163053 40.2756641 26.2163053 40.432 26.2163053 40.5883359 26.156458 40.7074198 26.037374 40.9461985 25.7985954 40.9461985 25.4126412 40.7074198 25.1738626L39.9849771 24.4514198C39.7461985 24.2126412 39.3602443 24.2126412 39.1214656 24.4514198 38.882687 24.6895878 38.882687 25.0761527 39.1214656 25.3149313L39.8439084 26.037374zM36.231084 22.4245496C36.3501679 22.5436336 36.5065038 22.6034809 36.6628397 22.6034809 36.8191756 22.6034809 36.9755115 22.5436336 37.0945954 22.4245496 37.333374 22.185771 37.333374 21.7998168 37.0945954 21.5610382L36.3721527 20.8385954C36.133374 20.5998168 35.7474198 20.5998168 35.5086412 20.8385954 35.2698626 21.0767634 35.2698626 21.4633282 35.5086412 21.7021069L36.231084 22.4245496zM164.171237 57.1818626C163.932458 56.943084 163.545893 56.943084 163.307725 57.1818626L162.585282 57.904916C162.346504 58.143084 162.346504 58.5302595 162.585282 58.7684275 162.704366 58.8875115 162.860702 58.9473588 163.017038 58.9473588 163.173374 58.9473588 163.32971 58.8875115 163.448794 58.7684275L164.171237 58.045374C164.410015 57.8065954 164.410015 57.4200305 164.171237 57.1818626M159.69484 60.7949924L158.972397 61.5174351C158.733618 61.7562137 158.733618 62.1427786 158.972397 62.3809466 159.091481 62.5000305 159.247817 62.5598779 159.404153 62.5598779 159.560489 62.5598779 159.716824 62.5000305 159.835908 62.3809466L160.558351 61.6585038C160.79713 61.4197252 160.79713 61.033771 160.558351 60.7949924 160.319573 60.5562137 159.933618 60.5562137 159.69484 60.7949924M163.448733 60.7949924C163.209954 60.5562137 162.824 60.5562137 162.585221 60.7949924 162.346443 61.033771 162.346443 61.4197252 162.585221 61.6585038L163.307664 62.3809466C163.426748 62.5000305 163.583084 62.5598779 163.73942 62.5598779 163.895756 62.5598779 164.052092 62.5000305 164.171176 62.3809466 164.409954 62.1427786 164.409954 61.7562137 164.171176 61.5174351L163.448733 60.7949924zM160.558412 57.9046107L159.835969 57.1815573C159.597191 56.9433893 159.210626 56.9433893 158.972458 57.1815573 158.733679 57.4203359 158.733679 57.8069008 158.972458 58.0450687L159.694901 58.7681221C159.813985 58.8872061 159.970321 58.9470534 160.126656 58.9470534 160.282992 58.9470534 160.439328 58.8872061 160.558412 58.7681221 160.797191 58.5299542 160.797191 58.1433893 160.558412 57.9046107M72.7392977 14.7170076C73.248 14.7170076 73.6614351 15.1304427 73.6614351 15.639145 73.6614351 16.1472366 73.248 16.5612824 72.7392977 16.5612824 72.2305954 16.5612824 71.8171603 16.1472366 71.8171603 15.639145 71.8171603 15.1304427 72.2305954 14.7170076 72.7392977 14.7170076M72.7392977 17.7826565C73.9215878 17.7826565 74.8828092 16.8208244 74.8828092 15.639145 74.8828092 14.4574656 73.9215878 13.4956336 72.7392977 13.4956336 71.5576183 13.4956336 70.5957863 14.4574656 70.5957863 15.639145 70.5957863 16.8208244 71.5576183 17.7826565 72.7392977 17.7826565M17.8064122 105.143756C19.3062595 105.143756 20.5264122 106.363908 20.5264122 107.863145 20.5264122 109.362992 19.3062595 110.582534 17.8064122 110.582534 16.3065649 110.582534 15.0870229 109.362992 15.0870229 107.863145 15.0870229 106.363908 16.3065649 105.143756 17.8064122 105.143756M17.8064122 111.803908C19.9798473 111.803908 21.7477863 110.035969 21.7477863 107.863145 21.7477863 105.690321 19.9798473 103.922382 17.8064122 103.922382 15.6335878 103.922382 13.8656489 105.690321 13.8656489 107.863145 13.8656489 110.035969 15.6335878 111.803908 17.8064122 111.803908M36.6512366 108.231145C44.5645191 108.231145 51.0023817 101.793282 51.0023817 93.88 51.0023817 90.2928244 49.6716947 86.8583206 47.2558168 84.2109924 47.0292519 83.9618321 46.642687 83.9441221 46.3935267 84.1712977 46.3898626 84.1743511 46.3886412 84.1792366 46.3849771 84.1829008 46.1455878 84.4112977 46.1297099 84.7880916 46.3538321 85.0335878 48.5639084 87.4561832 49.7810076 90.5975573 49.7810076 93.88 49.7810076 101.119695 43.8909313 107.009771 36.6512366 107.009771 29.411542 107.009771 23.5214656 101.119695 23.5214656 93.88 23.5214656 86.6403053 29.411542 80.750229 36.6512366 80.750229 37.7364275 80.750229 38.8155115 80.8827481 39.8573435 81.1447328 40.1785649 81.2235115 40.502229 81.0329771 40.5913893 80.7160305 40.5932214 80.7105344 40.5968855 80.7068702 40.5987176 80.7007634 40.6811603 80.3740458 40.4820763 80.0418321 40.1553588 79.96 39.0158168 79.6735878 37.8365802 79.528855 36.6512366 79.528855 28.7379542 79.528855 22.3000916 85.9667176 22.3000916 93.88 22.3000916 101.793282 28.7379542 108.231145 36.6512366 108.231145"/>
      <path fill="#B9BBBE" d="M43.1427786,82.4642443 C43.6258321,82.7396641 44.0966718,83.0498931 44.5436947,83.3863817 C44.654229,83.4694351 44.783084,83.5091298 44.9107176,83.5091298 C45.0914809,83.5091298 45.2679695,83.426687 45.3882748,83.274626 C45.3913282,83.2709618 45.3962137,83.2697405 45.3992672,83.2654656 C45.6020153,82.9961527 45.5476641,82.6132519 45.2789618,82.4105038 C44.7904122,82.0428702 44.2749924,81.7039389 43.7473588,81.4034809 C43.454229,81.2349313 43.0817099,81.3381374 42.9143817,81.6312672 C42.9113282,81.6367634 42.9119389,81.6428702 42.9088855,81.6483664 C42.7549924,81.9390534 42.855145,82.2999695 43.1427786,82.4642443"/>
      <path fill="#B9BBBE" d="M189.484336,128.854962 L189.484336,126.482443 C189.484336,126.145344 189.210748,125.871756 188.873649,125.871756 L185.578382,125.871756 C184.775939,125.871756 184.125557,125.221374 184.125557,124.418321 L184.125557,124.418321 C184.125557,123.615267 184.775939,122.964885 185.578382,122.964885 L196.716092,122.964885 L196.716092,126.412214 C196.716092,127.197557 196.929221,127.932824 197.30113,128.565496 C197.535023,128.964275 197.227237,129.465649 196.764336,129.465649 L190.095023,129.465649 C189.757924,129.465649 189.484336,129.192061 189.484336,128.854962 L189.484336,128.854962 Z M175.102046,129.334351 L188.262962,129.334351 L188.262962,127.09374 L175.102046,127.09374 L175.102046,129.334351 Z M173.880672,126.482443 L173.880672,128.854962 C173.880672,129.192061 173.607084,129.465649 173.269985,129.465649 L166.02174,129.465649 L166.02174,122.964885 L177.786626,122.964885 C178.589069,122.964885 179.240061,123.615267 179.240061,124.418321 L179.240061,124.418321 C179.240061,125.221374 178.589069,125.871756 177.786626,125.871756 L174.491359,125.871756 C174.15426,125.871756 173.880672,126.145344 173.880672,126.482443 L173.880672,126.482443 Z M182.904183,123.575573 L182.904183,125.261069 C182.904183,125.598168 182.630595,125.871756 182.293496,125.871756 L181.072122,125.871756 C180.734412,125.871756 180.461435,125.598168 180.461435,125.261069 L180.461435,123.575573 C180.461435,123.238473 180.734412,122.964885 181.072122,122.964885 L182.293496,122.964885 C182.630595,122.964885 182.904183,123.238473 182.904183,123.575573 L182.904183,123.575573 Z M164.104183,121.743511 C163.124031,121.743511 162.304489,121.051603 162.10174,120.131298 C162.657466,120.564885 163.346931,120.834198 164.104183,120.834198 L173.827542,120.834198 C174.164641,120.834198 174.438229,120.560611 174.438229,120.223511 C174.438229,119.886412 174.164641,119.612824 173.827542,119.612824 L164.104183,119.612824 C162.970748,119.612824 162.051664,118.69374 162.051664,117.560305 L162.051664,102.879389 L162.051664,101.687939 C162.051664,101.01313 162.59884,100.466565 163.273038,100.466565 L200.091969,100.466565 C200.766779,100.466565 201.313344,101.01313 201.313344,101.687939 L201.313344,102.879389 L201.313344,111.145038 C201.313344,111.819237 200.766779,112.366412 200.091969,112.366412 L197.326779,112.366412 C196.989679,112.366412 196.716092,112.64 196.716092,112.977099 L196.716092,119.612824 L182.293496,119.612824 C181.956397,119.612824 181.682809,119.886412 181.682809,120.223511 C181.682809,120.560611 181.956397,120.834198 182.293496,120.834198 L196.716092,120.834198 L196.716092,121.743511 L164.104183,121.743511 Z M163.578992,129.465649 L125.723725,129.465649 C125.049527,129.465649 124.502351,128.918473 124.502351,128.244275 L124.502351,119.496183 C124.502351,118.821374 125.049527,118.274809 125.723725,118.274809 C126.398534,118.274809 126.945099,118.821374 126.945099,119.496183 L126.945099,126.412214 C126.945099,126.749313 127.218687,127.022901 127.555786,127.022901 L161.746931,127.022901 C162.084031,127.022901 162.357618,126.749313 162.357618,126.412214 L162.357618,124.152672 C162.357618,123.406412 163.01716,122.865344 163.759145,122.945954 C163.872733,122.958779 163.988153,122.964885 164.104183,122.964885 L164.800366,122.964885 L164.800366,128.244275 C164.800366,128.918473 164.253802,129.465649 163.578992,129.465649 L163.578992,129.465649 Z M123.280977,129.465649 L119.329221,129.465649 C118.655023,129.465649 118.107847,128.918473 118.107847,128.244275 L118.107847,125.932824 C118.107847,125.595725 117.83426,125.322137 117.49716,125.322137 L116.275786,125.322137 L116.275786,122.879389 C116.275786,122.54229 116.002198,122.268702 115.665099,122.268702 L110.779603,122.268702 L95.9124275,122.268702 C94.3814351,122.268702 93.1399084,121.027176 93.1399084,119.496183 L93.1399084,118.885496 C93.1399084,118.548397 93.4134962,118.274809 93.7505954,118.274809 L123.280977,118.274809 L123.280977,129.465649 Z M115.665099,129.596947 L114.443725,129.596947 C113.769527,129.596947 113.222351,129.049771 113.222351,128.375573 L113.222351,126.543511 L116.886473,126.543511 L116.886473,128.375573 C116.886473,129.049771 116.339908,129.596947 115.665099,129.596947 L115.665099,129.596947 Z M111.39029,125.322137 L111.39029,124.71145 C111.39029,124.036641 111.937466,123.490076 112.611664,123.490076 L113.833038,123.490076 C114.507847,123.490076 115.054412,124.036641 115.054412,124.71145 L115.054412,125.322137 L112.611664,125.322137 L111.39029,125.322137 Z M110.779603,129.596947 L52.1634198,129.596947 C51.4892214,129.596947 50.9420458,129.049771 50.9420458,128.375573 L50.9420458,126.543511 L112.000977,126.543511 L112.000977,128.375573 C112.000977,129.049771 111.454412,129.596947 110.779603,129.596947 L110.779603,129.596947 Z M49.7206718,125.932824 L49.7206718,128.244275 C49.7206718,128.918473 49.1741069,129.465649 48.4992977,129.465649 L26.3863206,129.465649 C25.7988397,129.465649 25.2950229,129.047939 25.1857099,128.47145 L25.0562443,127.785038 C24.8144122,126.50626 23.696855,125.580458 22.3960916,125.580458 L22.3954809,125.580458 C21.7310534,125.580458 21.1924275,125.041832 21.1924275,124.376794 L21.1924275,122.433588 L31.1008244,122.433588 C33.6492214,122.433588 35.8360916,120.876336 36.7716641,118.665038 C36.8699847,118.432977 37.0873893,118.274809 37.3389924,118.274809 L69.9338015,118.274809 C70.2715115,118.274809 70.5444885,118.548397 70.5444885,118.885496 L70.5444885,119.496183 C70.5444885,121.027176 69.3035725,122.268702 67.7719695,122.268702 L52.1634198,122.268702 C51.8263206,122.268702 51.5527328,122.54229 51.5527328,122.879389 L51.5527328,125.322137 L50.3313588,125.322137 C49.9942595,125.322137 49.7206718,125.595725 49.7206718,125.932824 L49.7206718,125.932824 Z M22.5243359,129.465649 L13.0886107,129.465649 C12.3545649,129.465649 11.7567023,128.867786 11.7567023,128.13374 C11.7567023,127.399084 12.3545649,126.801832 13.0886107,126.801832 L22.5243359,126.801832 C23.2589924,126.801832 23.8562443,127.399084 23.8562443,128.13374 C23.8562443,128.867786 23.2589924,129.465649 22.5243359,129.465649 L22.5243359,129.465649 Z M19.9710534,122.433588 L19.9710534,124.167939 C19.9710534,124.842748 19.4238779,125.389313 18.7496794,125.389313 L16.8632672,125.389313 C16.1890687,125.389313 15.6418931,124.842748 15.6418931,124.167939 L15.6418931,122.433588 L19.9710534,122.433588 Z M15.6418931,121.212824 L19.9710534,121.212824 L19.9710534,117.829008 L15.6418931,117.829008 L15.6418931,121.212824 Z M10.0919695,112.222901 L10.0919695,101.154198 C10.0919695,100.878168 10.3154809,100.654656 10.5909008,100.654656 L19.6345649,100.654656 C20.869374,103.744733 22.9194504,106.421985 25.5215878,108.418321 L25.5215878,112.222901 C25.5215878,114.640611 23.5545649,116.607634 21.136855,116.607634 L14.4760916,116.607634 C12.0583817,116.607634 10.0919695,114.640611 10.0919695,112.222901 L10.0919695,112.222901 Z M12.7814351,94.8128244 L16.639145,98.3737405 C17.0476947,98.751145 16.7808244,99.4332824 16.2250992,99.4332824 L12.9780763,99.4332824 C12.3038779,99.4332824 11.7567023,98.8861069 11.7567023,98.2119084 L11.7567023,95.2616794 C11.7567023,94.729771 12.3905954,94.4519084 12.7814351,94.8128244 L12.7814351,94.8128244 Z M12.4290687,89.239084 C12.8199084,88.5728244 13.737771,88.4531298 14.3050992,88.9770992 L17.4678473,91.8961832 C18.0180763,92.4042748 18.3307481,93.1193893 18.3307481,93.8680916 L18.3307481,93.8803053 C18.3307481,94.96 18.426626,96.0177099 18.608,97.0467176 C18.709374,97.619542 18.0229618,97.9896183 17.5954809,97.5945038 L12.4614351,92.8549618 C12.0107481,92.4396947 11.7951756,91.8259542 11.8947176,91.2207634 C12.008916,90.5245802 12.1909008,89.6464122 12.4290687,89.239084 L12.4290687,89.239084 Z M16.6965496,86.778626 L18.9163969,86.778626 C19.1954809,86.778626 19.4678473,86.8073282 19.7347176,86.8525191 C19.2974656,87.900458 18.9548702,88.9984733 18.7185344,90.1343511 C18.6214351,90.5978626 18.0583817,90.7792366 17.7102901,90.4580153 L15.0660153,88.0164885 C14.7179237,87.6964885 14.8492214,87.1132824 15.3023511,86.979542 C15.7444885,86.848855 16.2122748,86.778626 16.6965496,86.778626 L16.6965496,86.778626 Z M36.6513588,76.7810687 C46.0797557,76.7810687 53.7505954,84.4512977 53.7505954,93.8803053 C53.7505954,103.308702 46.0797557,110.979542 36.6513588,110.979542 C27.2223511,110.979542 19.5521221,103.308702 19.5521221,93.8803053 C19.5521221,84.4512977 27.2223511,76.7810687 36.6513588,76.7810687 L36.6513588,76.7810687 Z M45.679145,109.811908 C51.6425038,106.420763 55.528916,99.7832061 54.906626,92.3181679 C54.1518168,83.2574046 46.6745649,76.0421374 37.5942595,75.5835115 C34.2617405,75.4149618 31.1105954,76.1447328 28.3576183,77.5499237 C27.5435725,77.9651908 26.5805191,77.381374 26.5805191,76.4671756 L26.5805191,53.5419847 C26.5805191,52.1929771 27.6742595,51.0992366 29.0232672,51.0992366 L132.83029,51.0992366 C134.178687,51.0992366 135.273038,52.1929771 135.273038,53.5419847 L135.273038,108.503817 C135.273038,109.852824 134.178687,110.946565 132.83029,110.946565 L45.989374,110.946565 C45.3683053,110.946565 45.1392977,110.119084 45.679145,109.811908 L45.679145,109.811908 Z M33.9319695,113.026565 L33.9319695,111.997557 C34.8192977,112.130076 35.7273893,112.200916 36.6513588,112.200916 C37.5753282,112.200916 38.4828092,112.130076 39.3707481,111.997557 L39.3707481,113.026565 C39.3707481,113.701374 38.8235725,114.247939 38.149374,114.247939 L35.1533435,114.247939 C34.4785344,114.247939 33.9319695,113.701374 33.9319695,113.026565 L33.9319695,113.026565 Z M35.6125802,118.274809 C34.8425038,120.003053 33.1118168,121.212214 31.1008244,121.212214 L21.1924275,121.212214 L21.1924275,120.10687 C21.1924275,119.094962 22.0125802,118.274809 23.0244885,118.274809 L35.6125802,118.274809 Z M23.968,117.053435 C24.0223511,117.021069 24.0767023,116.988702 24.1298321,116.955115 C25.696855,115.959695 26.7429618,114.21313 26.7429618,112.222901 L26.7429618,112.167939 L32.7105954,112.167939 L32.7105954,114.303511 C32.7105954,114.947786 33.2321221,115.469313 33.8757863,115.469313 L36.0406718,115.469313 C36.0406718,115.469313 36.018687,116.01771 35.999145,116.469618 C35.9857099,116.796336 35.7163969,117.053435 35.3890687,117.053435 L23.968,117.053435 Z M110.168916,124.71145 L110.168916,125.322137 L52.7741069,125.322137 L52.7741069,124.71145 C52.7741069,124.036641 53.3212824,123.490076 53.9954809,123.490076 L108.947542,123.490076 C109.622351,123.490076 110.168916,124.036641 110.168916,124.71145 L110.168916,124.71145 Z M90.6971603,122.268702 L72.9872366,122.268702 C72.3130382,122.268702 71.7658626,121.721527 71.7658626,121.047328 L71.7658626,119.496183 C71.7658626,118.821374 72.3130382,118.274809 72.9872366,118.274809 L90.6971603,118.274809 C91.3719695,118.274809 91.9185344,118.821374 91.9185344,119.496183 L91.9185344,121.047328 C91.9185344,121.721527 91.3719695,122.268702 90.6971603,122.268702 L90.6971603,122.268702 Z M37.2620458,115.469313 L39.4263206,115.469313 C40.0699847,115.469313 40.5921221,114.947786 40.5921221,114.303511 L40.5921221,112.167939 L134.051664,112.167939 C135.400061,112.167939 136.494412,111.074198 136.494412,109.725191 L136.494412,52.3206107 C136.494412,50.9716031 135.400061,49.8778626 134.051664,49.8778626 L27.8018931,49.8778626 C26.4528855,49.8778626 25.359145,50.9716031 25.359145,52.3206107 L25.359145,78.8928244 C25.359145,79.2580153 25.1912061,79.5981679 24.9109008,79.8326718 C23.6449466,80.8916031 22.5243359,82.1178626 21.5820458,83.4772519 C21.2412824,83.9694656 20.4736489,83.730687 20.4736489,83.1322137 L20.4736489,46.2137405 C20.4736489,45.5389313 21.0202137,44.9923664 21.6950229,44.9923664 L140.158534,44.9923664 C140.832733,44.9923664 141.379908,45.5389313 141.379908,46.2137405 L141.379908,115.832061 C141.379908,116.50626 140.832733,117.053435 140.158534,117.053435 L37.839145,117.053435 C37.4934962,117.053435 37.216855,116.767023 37.2290687,116.421374 L37.2620458,115.469313 Z M79.0941069,41.6598473 L81.536855,41.6598473 L81.536855,42.5496183 C81.536855,43.2238168 80.9902901,43.7709924 80.3154809,43.7709924 C79.6412824,43.7709924 79.0941069,43.2238168 79.0941069,42.5496183 L79.0941069,41.6598473 Z M76.106626,36.2308397 L76.106626,36.2277863 C76.106626,33.9041221 77.9905954,32.0201527 80.3142595,32.0201527 L80.317313,32.0201527 C82.6409771,32.0201527 84.5249466,33.9041221 84.5249466,36.2277863 L84.5249466,36.2308397 C84.5249466,38.5545038 82.6409771,40.4384733 80.317313,40.4384733 L80.3142595,40.4384733 C77.9905954,40.4384733 76.106626,38.5545038 76.106626,36.2308397 L76.106626,36.2308397 Z M135.025099,118.942901 C136.112733,118.942901 136.998229,119.827786 136.998229,120.916031 C136.998229,122.003664 136.112733,122.88855 135.025099,122.88855 C133.937466,122.88855 133.051969,122.003664 133.051969,120.916031 C133.051969,119.827786 133.937466,118.942901 135.025099,118.942901 L135.025099,118.942901 Z M142.601282,117.664122 L142.601282,116.030534 L160.83029,116.030534 L160.83029,117.560305 L160.83029,119.690992 C160.83029,120.178321 160.944489,120.636947 161.136244,121.052824 L161.136244,125.801527 L128.166473,125.801527 L128.166473,118.274809 L131.809832,118.274809 C132.280061,118.274809 132.593344,118.795725 132.338687,119.190229 C131.898992,119.872366 131.710901,120.731603 131.909985,121.636031 C132.171969,122.82626 133.138687,123.784427 134.331359,124.036641 C136.39426,124.473282 138.219603,122.903817 138.219603,120.916031 C138.219603,120.28458 138.035176,119.695878 137.717618,119.2 C137.46113,118.799389 137.762198,118.274809 138.237924,118.274809 L141.990595,118.274809 C142.327695,118.274809 142.601282,118.001221 142.601282,117.664122 L142.601282,117.664122 Z M143.822656,112.366412 L159.608916,112.366412 C160.283725,112.366412 160.83029,112.913588 160.83029,113.587786 C160.83029,114.261985 160.283725,114.80916 159.608916,114.80916 L143.822656,114.80916 C143.147847,114.80916 142.601282,114.261985 142.601282,113.587786 C142.601282,112.913588 143.147847,112.366412 143.822656,112.366412 L143.822656,112.366412 Z M160.308763,98.6345038 C160.308763,98.2974046 160.582351,98.0238168 160.91945,98.0238168 L185.735939,98.0238168 C186.073038,98.0238168 186.346626,97.750229 186.346626,97.4131298 C186.346015,97.0754198 186.073038,96.8024427 185.735939,96.8024427 L165.095939,96.8024427 C163.409832,96.8024427 162.042504,95.4351145 162.042504,93.7490076 L162.042504,79.2861069 C162.042504,78.1520611 162.961588,77.2329771 164.095634,77.2329771 L199.251664,77.2329771 C200.38571,77.2329771 201.304183,78.1520611 201.304183,79.2861069 L201.304183,85.3087023 C200.866321,85.3459542 200.497466,85.6268702 200.340519,86.0189313 C200.264794,86.1203053 200.211664,86.2393893 200.211664,86.3755725 L200.211664,88.5844275 C200.211664,88.6638168 200.229374,88.7383206 200.256855,88.8073282 L200.256855,90.3273282 C200.256855,90.9245802 200.719145,91.4112977 201.304183,91.4607634 L201.304183,93.7490076 C201.304183,95.4351145 199.937466,96.8024427 198.250748,96.8024427 L189.62174,96.8024427 C189.284031,96.8024427 189.011053,97.0754198 189.011053,97.4131298 C189.011053,97.750229 189.284031,98.0238168 189.62174,98.0238168 L202.446168,98.0238168 C202.782656,98.0238168 203.056855,98.2974046 203.056855,98.6345038 C203.056855,98.9709924 202.782656,99.2451908 202.446168,99.2451908 L160.91945,99.2451908 C160.582351,99.2451908 160.308763,98.9709924 160.308763,98.6345038 L160.308763,98.6345038 Z M74.8852519,38.9557252 L72.3771603,38.9557252 C71.7023511,38.9557252 71.1557863,38.4085496 71.1557863,37.7343511 L71.1557863,34.7242748 C71.1557863,34.0500763 71.7023511,33.5029008 72.3771603,33.5029008 L74.8852519,33.5029008 L74.8852519,38.9557252 Z M85.7463206,33.5029008 L88.2538015,33.5029008 C88.9286107,33.5029008 89.4751756,34.0500763 89.4751756,34.7242748 L89.4751756,37.7343511 C89.4751756,38.4085496 88.9286107,38.9557252 88.2538015,38.9557252 L85.7463206,38.9557252 L85.7463206,33.5029008 Z M202.543878,87.9737405 L203.031206,87.9737405 L203.031206,86.9862595 L202.543878,86.9862595 L202.543878,87.9737405 Z M213.815328,116.641221 L213.815328,116.641221 C214.490137,116.641221 215.036702,117.188397 215.036702,117.862595 L215.036702,122.748092 C215.036702,123.42229 214.490137,123.969466 213.815328,123.969466 C213.14113,123.969466 212.593954,123.42229 212.593954,122.748092 L212.593954,117.862595 C212.593954,117.188397 213.14113,116.641221 213.815328,116.641221 L213.815328,116.641221 Z M219.240672,129.465649 L212.54571,129.465649 C212.08342,129.465649 211.775634,128.964275 212.009527,128.565496 C212.380824,127.932824 212.593954,127.197557 212.593954,126.412214 C212.593954,125.738015 213.14113,125.19084 213.815328,125.19084 C215.164336,125.19084 216.258076,124.097099 216.258076,122.748092 L216.258076,117.862595 C216.258076,116.513588 215.164336,115.419847 213.815328,115.419847 C213.14113,115.419847 212.593954,114.872672 212.593954,114.198473 L212.593954,112.977099 C212.593954,112.64 212.320977,112.366412 211.983267,112.366412 L208.45716,112.366412 C208.120061,112.366412 207.846473,112.64 207.846473,112.977099 L207.846473,112.977099 C207.846473,113.314198 208.120061,113.587786 208.45716,113.587786 L210.761893,113.587786 C211.099603,113.587786 211.37258,113.861374 211.37258,114.198473 L211.37258,126.412214 C211.37258,128.098321 210.005863,129.465649 208.319145,129.465649 L200.990901,129.465649 C199.304794,129.465649 197.937466,128.098321 197.937466,126.412214 L197.937466,114.198473 C197.937466,113.861374 198.211053,113.587786 198.548153,113.587786 L206.091969,113.587786 C206.429069,113.587786 206.702656,113.314198 206.702656,112.977099 L206.702656,112.977099 C206.702046,112.64 206.429069,112.366412 206.091969,112.366412 L204.366779,112.366412 C203.35487,112.366412 202.534718,111.54626 202.534718,110.534351 L202.534718,102.268702 L202.534718,101.433893 C202.534718,100.955725 202.783267,100.490382 203.216855,100.289466 C203.842809,100 204.278229,99.3685496 204.278229,98.6345038 C204.278229,97.8980153 203.840366,97.2647328 203.211969,96.9758779 C202.77655,96.7761832 202.525557,96.3090076 202.525557,95.8296183 L202.525557,90.9483969 C202.530443,90.9178626 202.543878,90.8909924 202.543878,90.8598473 L202.543878,89.7606107 C202.543878,89.4485496 202.796702,89.1951145 203.109374,89.1951145 C203.740824,89.1951145 204.25258,88.6833588 204.25258,88.0519084 L204.25258,86.9080916 C204.25258,86.2772519 203.740824,85.7648855 203.109374,85.7648855 L203.091053,85.7648855 C202.778992,85.7648855 202.525557,85.5120611 202.525557,85.2 L202.525557,79.2861069 C202.525557,77.4778626 201.059908,76.0116031 199.251664,76.0116031 L164.095023,76.0116031 C162.286779,76.0116031 160.82113,77.4772519 160.82113,79.2854962 L160.82113,95.8393893 C160.82113,96.3157252 160.574412,96.780458 160.142656,96.9819847 C159.519756,97.2732824 159.087389,97.9022901 159.087389,98.6345038 C159.087389,99.3685496 159.522198,100 160.148153,100.289466 C160.58174,100.490382 160.83029,100.955725 160.83029,101.433893 L160.83029,102.268702 L160.83029,111.145038 L142.601282,111.145038 L142.601282,44.3816794 C142.601282,44.0445802 142.327695,43.7709924 141.990595,43.7709924 L83.9796031,43.7709924 C83.3054046,43.7709924 82.758229,43.2238168 82.758229,42.5496183 L82.758229,41.6598473 L85.1356336,41.6598473 C85.4733435,41.6598473 85.7463206,41.3868702 85.7463206,41.0491603 C85.7463206,40.5673282 86.1371603,40.1770992 86.6189924,40.1770992 L90.0858626,40.1770992 C90.4235725,40.1770992 90.6965496,39.9035115 90.6965496,39.5664122 L90.6965496,32.8922137 C90.6965496,32.5551145 90.4235725,32.2815267 90.0858626,32.2815267 L86.6189924,32.2815267 C86.1371603,32.2815267 85.7463206,31.8912977 85.7463206,31.4094656 C85.7463206,31.0717557 85.4733435,30.7987786 85.1356336,30.7987786 L75.4959389,30.7987786 C75.1588397,30.7987786 74.8852519,31.0717557 74.8852519,31.4094656 C74.8852519,31.8912977 74.4944122,32.2815267 74.0125802,32.2815267 L70.5450992,32.2815267 C70.208,32.2815267 69.9344122,32.5551145 69.9344122,32.8922137 L69.9344122,39.5664122 C69.9344122,39.9035115 70.208,40.1770992 70.5450992,40.1770992 L74.0125802,40.1770992 C74.4944122,40.1770992 74.8852519,40.5673282 74.8852519,41.0491603 C74.8852519,41.3868702 75.1588397,41.6598473 75.4959389,41.6598473 L77.8727328,41.6598473 L77.8727328,42.5496183 C77.8727328,43.2238168 77.3261679,43.7709924 76.6513588,43.7709924 L19.8629618,43.7709924 L19.8623511,43.7709924 C19.5252519,43.7709924 19.2522748,44.0445802 19.2522748,44.3816794 L19.2522748,83.0167939 C19.2522748,84.4244275 18.1078473,85.5633588 16.7002137,85.5572519 L16.6965496,85.5572519 C13.2980763,85.5419847 10.5353282,88.2925191 10.5353282,91.6909924 L10.5353282,99.4387786 C9.61258015,99.4687023 8.87059542,100.224122 8.87059542,101.154198 L8.87059542,112.222901 C8.87059542,114.834198 10.6660153,117.032672 13.0861679,117.651908 C13.8867786,117.856489 14.4205191,118.615573 14.4205191,119.441832 L14.4205191,124.376794 C14.4205191,125.041832 13.8818931,125.580458 13.2174656,125.580458 C11.9160916,125.580458 10.7985344,126.50626 10.5567023,127.785038 L10.4272366,128.47145 C10.3179237,129.047939 9.81410687,129.465649 9.22723664,129.465649 L1.25410687,129.465649 C0.917007634,129.465649 0.643419847,129.739237 0.643419847,130.076336 C0.643419847,130.413435 0.917007634,130.687023 1.25410687,130.687023 L13.0886107,130.687023 L22.5243359,130.687023 L165.411053,130.687023 L200.990901,130.687023 L208.319145,130.687023 L219.240672,130.687023 C219.577771,130.687023 219.851359,130.413435 219.851359,130.076336 C219.851359,129.739237 219.577771,129.465649 219.240672,129.465649 L219.240672,129.465649 Z"/>
    </g>
  </g>
</svg>
