<svg fill="none" height="20" viewBox="0 0 20 20" width="20" xmlns="http://www.w3.org/2000/svg"><g fill="#58f287"><path d="m11.6713 1.80634c0-.997616-.8088-1.80634-1.80637-1.80634-.99761 0-1.80634.808724-1.80634 1.80634v1.83644c0 .99761.80873 1.80633 1.80634 1.80633.99757 0 1.80637-.80872 1.80637-1.80633z"/><path d="m11.6713 16.3571c0-.9976-.8088-1.8063-1.80637-1.8063-.99761 0-1.80634.8087-1.80634 1.8063v1.8365c0 .9976.80873 1.8063 1.80634 1.8063.99757 0 1.80637-.8087 1.80637-1.8063z"/><path d="m18.1937 11.8412c.9976 0 1.8063-.8087 1.8063-1.8063 0-.99766-.8087-1.80638-1.8063-1.80638h-1.8365c-.9976 0-1.8063.80872-1.8063 1.80638 0 .9976.8087 1.8063 1.8063 1.8063z"/><path d="m3.64288 11.7416c.99761 0 1.80634-.8087 1.80634-1.80636 0-.99761-.80873-1.80633-1.80634-1.80633h-1.83644c-.997609 0-1.80633319.80872-1.80633319 1.80633 0 .99766.80872419 1.80636 1.80633319 1.80636z"/></g></svg>