<svg fill="none" height="145" viewBox="0 0 272 145" width="272" xmlns="http://www.w3.org/2000/svg" xmlns:xlink="http://www.w3.org/1999/xlink"><clipPath id="a"><path d="m0 0h272v145h-272z"/></clipPath><g clip-path="url(#a)"><path d="m253 96h-123v49h123z" fill="#d8dbdf"/><path d="m40 21h-2v15h2z" fill="#7c8794"/><path d="m24 20h-3v16h3z" fill="#828c98"/><path d="m31 25c6.6274 0 12-5.3726 12-12 0-6.62742-5.3726-12-12-12s-12 5.37258-12 12c0 6.6274 5.3726 12 12 12z" fill="#c8cfd6"/><path d="m40.2939 6c-.9186 3.75252-3.1393 7.0956-6.2989 9.4828-3.1597 2.3872-7.0714 3.6772-11.0959 3.6593l-2.8991-.1851c1.3181 2.2709 3.3848 4.0595 5.8769 5.0863 2.4921 1.0267 5.2692 1.2337 7.8971.5887 2.628-.6451 4.9588-2.1059 6.6279-4.1541 1.6692-2.0482 2.5827-4.5683 2.5978-7.1665.0196-2.6653-.9379-5.25279-2.7058-7.3114z" fill="#aab3bd"/><path d="m32 21c.2652 0 .5196.1253.7071.3483.1875.2229.2929.5254.2929.8407v13.811h-2v-13.811c0-.3153.1054-.6178.2929-.8407.1875-.223.4419-.3483.7071-.3483z" fill="#7c8794"/><path d="m188 76h-3v15h3z" fill="#4f5660"/><path d="m163.443 89h48.017c.409 0 .8.1573 1.089.4374.289.28.451.6599.451 1.0559v5.5067h-51v-5.5067c-.001-.3804.148-.7467.416-1.0242.269-.2776.636-.4453 1.027-.4691z" fill="#a1adba"/><path d="m180.532 89h30.936c.406 0 .796.1573 1.083.4374.288.28.449.6599.449 1.0559v5.5067h-34v-5.5067c0-.396.161-.7759.449-1.0559.287-.2801.677-.4374 1.083-.4374z" fill="#97a1ae"/><path d="m186.5 77c5.799 0 10.5-4.701 10.5-10.5s-4.701-10.5-10.5-10.5-10.5 4.701-10.5 10.5 4.701 10.5 10.5 10.5z" fill="#bcc2c8"/><path d="m181 75.5591c1.174.6985 2.484 1.1561 3.85 1.344 1.366.1878 2.757.102 4.087-.2522 1.351-.3091 2.624-.8733 3.747-1.66 1.122-.7867 2.071-1.7801 2.792-2.9227.721-1.1425 1.199-2.4115 1.406-3.7333.208-1.3219.141-2.6702-.197-3.9669-.541-2.0806-1.728-3.953-3.402-5.368 1.04 7.8246-6.33 14.1025-12.283 16.5591z" fill="#a6adb6"/><path d="m182.944 62.2955c.747-.7472.989-1.7164.541-2.1648-.448-.4483-1.418-.206-2.165.5412-.747.7473-.989 1.7165-.541 2.1648s1.418.206 2.165-.5412z" fill="#fff"/><path d="m12.6427 69h80.7146c.9661 0 1.8926.3813 2.5758 1.06.6831.6787 1.0669 1.5992 1.0669 2.559v72.381h-88v-72.381c0-.9598.38378-1.8803 1.0669-2.559.6832-.6787 1.6097-1.06 2.5758-1.06z" fill="#9ba3ad"/><path d="m47 69.0013c-.4707-.0126-.9392.0683-1.3778.2379-.4385.1697-.8383.4246-1.1757.7498s-.6055.714-.7885 1.1435-.2772.8909-.277 1.357v14.9902c.0017.215-.0431.4279-.1313.6244s-.2178.372-.3801.5149c-.1624.1428-.3537.2497-.5612.3133-.2074.0637-.4262.0827-.6417.0559l-32.6667-3.5826v-12.9161c-.00017-.4661.09403-.9275.27705-1.357.18301-.4295.45112-.8183.78845-1.1435.3374-.3252.7372-.5801 1.1758-.7498.4386-.1696.907-.2505 1.3777-.2379z" fill="#828c98"/><path d="m156 145h-96v-73.3333c0-.9725.3813-1.9051 1.06-2.5927.6787-.6877 1.5992-1.074 2.5591-1.074h88.7619c.96 0 1.88.3863 2.559 1.074.679.6876 1.06 1.6202 1.06 2.5927z" fill="#747f8d"/><path d="m63.9595 72h88.0815c.254 0 .498.1017.678.2827s.281.4266.281.6826v24.0347h-90v-24.0347c0-.256.1011-.5016.281-.6826.18-.181.424-.2827.6785-.2827z" fill="#87919d"/><path d="m126 93c1.105 0 2-.8954 2-2s-.895-2-2-2-2 .8954-2 2 .895 2 2 2z" fill="#687282"/><path d="m135.5 93c1.381 0 2.5-.8954 2.5-2s-1.119-2-2.5-2-2.5.8954-2.5 2 1.119 2 2.5 2z" fill="#687282"/><path d="m145 93c1.105 0 2-.8954 2-2s-.895-2-2-2-2 .8954-2 2 .895 2 2 2z" fill="#687282"/><path d="m126 85c1.105 0 2-.8954 2-2s-.895-2-2-2-2 .8954-2 2 .895 2 2 2z" fill="#687282"/><path d="m135.5 85c1.381 0 2.5-.8954 2.5-2s-1.119-2-2.5-2-2.5.8954-2.5 2 1.119 2 2.5 2z" fill="#687282"/><path d="m145 85c1.105 0 2-.8954 2-2s-.895-2-2-2-2 .8954-2 2 .895 2 2 2z" fill="#687282"/><path d="m63 100h90v31.033c0 .257-.101.503-.281.684-.179.181-.423.283-.677.283h-88.0835c-.2542 0-.498-.102-.6778-.283-.1797-.181-.2807-.427-.2807-.684z" fill="#87919d"/><path d="m144.927 104h-21.854c-.593 0-1.073.475-1.073 1.061v21.878c0 .586.48 1.061 1.073 1.061h21.854c.593 0 1.073-.475 1.073-1.061v-21.878c0-.586-.48-1.061-1.073-1.061z" fill="#747f8d"/><path d="m153 97h-90v3h90z" fill="#687282"/><path d="m39.6494 36h-38.29881c-.745911 0-1.35059.5879-1.35059 1.313v29.374c0 .7251.604679 1.313 1.35059 1.313h38.29881c.7459 0 1.3506-.5879 1.3506-1.313v-29.374c0-.7251-.6047-1.313-1.3506-1.313z" fill="#c5cdd4"/><path d="m37.3359 69h97.3281c.738 0 1.336-.6062 1.336-1.354v-30.292c0-.7478-.598-1.354-1.336-1.354h-97.3281c-.7378 0-1.3359.6062-1.3359 1.354v30.292c0 .7478.5981 1.354 1.3359 1.354z" fill="#b1b9c2"/><path d="m70.1608 41h-27.3216c-.4635 0-.8392.3898-.8392.8707v20.2586c0 .4809.3757.8707.8392.8707h27.3216c.4635 0 .8392-.3898.8392-.8707v-20.2586c0-.4809-.3757-.8707-.8392-.8707z" fill="#828c98"/><path d="m57.9032 60c-1.5903 0-2.6193-2.1011-3.6484-7.4494-.6548-3.2472-1.5903-7.6405-2.2451-7.6405-.6549 0-1.7774 1.9101-2.1516 2.6742-.3742.764-.2807.382-.2807.573-1.5903 2.9607-3.1806 5.1573-7.5774 5.1573v-1.9101c3.4613 0 4.4903-1.5281 5.8936-4.2023l.2806-.4775c.7484-1.5281 1.9645-3.7247 3.8355-3.7247 1.8709 0 2.8064 3.0562 4.0226 9.1685.9354 4.4888 1.6838 5.6349 1.9645 5.9214.2806.2865 1.029-1.4326 2.1516-6.0169 1.1226-4.5842 2.1516-6.0168 3.8355-6.3033 1.6838-.2866 2.1516.2865 3.1806 1.6236l.9355 1.4325c.9355 1.6236 1.5903 2.5787 2.9 2.5787v1.9101c-2.5258 0-3.6484-2.0056-4.5839-3.5337-.1712-.4296-.4257-.8195-.7484-1.1461-.5612-.764-1.029-1.0505-1.3096-1.0505-.2807 0-1.3097.4775-2.4323 4.9663-1.1226 4.4887-2.4323 7.4494-4.0226 7.4494z" fill="#9aa2ac"/><path d="m85 54c3.3137 0 6-2.9101 6-6.5s-2.6863-6.5-6-6.5-6 2.9101-6 6.5 2.6863 6.5 6 6.5z" fill="#687282"/><path d="m81.5 63c1.3807 0 2.5-1.1193 2.5-2.5s-1.1193-2.5-2.5-2.5-2.5 1.1193-2.5 2.5 1.1193 2.5 2.5 2.5z" fill="#ffc9ff"/><path d="m88.5 63c1.3807 0 2.5-1.1193 2.5-2.5s-1.1193-2.5-2.5-2.5-2.5 1.1193-2.5 2.5 1.1193 2.5 2.5 2.5z" fill="#ffc9ff"/><path d="m100.368 41h-.7364c-.3488 0-.6316.2632-.6316.5878v13.8244c0 .3246.2828.5878.6316.5878h.7364c.349 0 .632-.2632.632-.5878v-13.8244c0-.3246-.283-.5878-.632-.5878z" fill="#687282"/><path d="m110.368 41h-.736c-.349 0-.632.2632-.632.5878v13.8244c0 .3246.283.5878.632.5878h.736c.349 0 .632-.2632.632-.5878v-13.8244c0-.3246-.283-.5878-.632-.5878z" fill="#687282"/><path d="m120.368 41h-.736c-.349 0-.632.2632-.632.5878v13.8244c0 .3246.283.5878.632.5878h.736c.349 0 .632-.2632.632-.5878v-13.8244c0-.3246-.283-.5878-.632-.5878z" fill="#687282"/><path d="m130.368 41h-.736c-.349 0-.632.2632-.632.5878v13.8244c0 .3246.283.5878.632.5878h.736c.349 0 .632-.2632.632-.5878v-13.8244c0-.3246-.283-.5878-.632-.5878z" fill="#687282"/><path d="m102.053 50h-4.1056c-.5232 0-.9474.3754-.9474.8385v1.323c0 .4631.4242.8385.9474.8385h4.1056c.523 0 .947-.3754.947-.8385v-1.323c0-.4631-.424-.8385-.947-.8385z" fill="#d5dbe3"/><path d="m112.053 44h-4.106c-.523 0-.947.5006-.947 1.118v1.764c0 .6174.424 1.118.947 1.118h4.106c.523 0 .947-.5006.947-1.118v-1.764c0-.6174-.424-1.118-.947-1.118z" fill="#d5dbe3"/><path d="m122.053 52h-4.106c-.523 0-.947.3754-.947.8385v1.323c0 .4631.424.8385.947.8385h4.106c.523 0 .947-.3754.947-.8385v-1.323c0-.4631-.424-.8385-.947-.8385z" fill="#d5dbe3"/><path d="m132.053 50h-4.106c-.523 0-.947.3754-.947.8385v1.323c0 .4631.424.8385.947.8385h4.106c.523 0 .947-.3754.947-.8385v-1.323c0-.4631-.424-.8385-.947-.8385z" fill="#d5dbe3"/><path d="m40.7471 6.98983c-.6238-1.99097-1.9646-3.67835-3.7617-4.7339-.9669-.55748-2.0053-.98003-3.0864-1.25593 2.4673 1.44625 4.2685 3.80556 5.0155 6.56949.3059 1.07603.1859 2.22879-.335 3.21851-.521.9896-1.4029 1.74-2.4621 2.095-1.0493.3411-2.1899.2596-3.1802-.2274-.9902-.4869-1.7523-1.3409-2.1246-2.381-.7716-1.93223-2.7971-6.85935-6.1729-8.01867l-1.6397 1.15932c2.99.38644 4.8226 4.44407 5.98 7.53555.5664 1.4933 1.6798 2.7142 3.1133 3.4142s3.0795.8264 4.6028.3536c1.544-.5106 2.8296-1.602 3.5854-3.0441.7558-1.442.9227-3.12172.4656-4.68467z" fill="#a6afbd"/><path d="m97.1415 75h-29.283c-.4742 0-.8585.3959-.8585.8843v16.2314c0 .4884.3843.8843.8585.8843h29.283c.4742 0 .8585-.3959.8585-.8843v-16.2314c0-.4884-.3843-.8843-.8585-.8843z" fill="#4f5660"/><path d="m74.5 90c3.0376 0 5.5-2.4624 5.5-5.5s-2.4624-5.5-5.5-5.5-5.5 2.4624-5.5 5.5 2.4624 5.5 5.5 5.5z" fill="#3e444d"/><path d="m74 86c1.1046 0 2-.8954 2-2s-.8954-2-2-2-2 .8954-2 2 .8954 2 2 2z" fill="#323740"/><path d="m75 81.7654c0 .1961-.1818.2942-.3636.1961h-1.3637c-.1818.0981-.2727 0-.2727-.1961v-.1962l.1818-1.3731.1818-.1961h1.1819l.1818.1961.1818 1.3731z" fill="#323740"/><path d="m76.1858 86.658c-.0385.0113-.0792.0042-.1132-.0198-.034-.0241-.0585-.0631-.0681-.1084-.0097-.0454-.0036-.0934.0168-.1335s.0535-.0689.092-.0803l.2175-.2565c.0726-.0855.1451-.171.1451-.2565.0749-.0954.1253-.214.145-.342.0263-.0347.0463-.0753.0587-.1194.0125-.0441.0172-.0907.0139-.1371 0-.171.145-.2565.2901-.171h.0725l.8703.7695c.0263.0347.0462.0754.0587.1195s.0172.0907.0139.137l-.2176.513-.2901.4275h-.2176l-1.0154-.513z" fill="#323740"/><path d="m71.0687 85.0267c.0188-.0134.0402-.0221.0626-.0253.0225-.0032.0453-.0009.0668.0067.0214.0076.041.0204.0571.0373s.0284.0375.0359.0602c.0502.0966.0758.2054.0741.3157.0742.079.0742.2368.1483.3158.0742.0789.1483.1578.1483.2368l.2224.2368c.0195.0052.0378.0144.0539.0271.0162.0127.0298.0287.0401.047s.0172.0387.0201.0598c.003.0211.002.0427-.0029.0634-.0048.0207-.0135.0402-.0254.0574-.012.0172-.027.0317-.0442.0427s-.0363.0183-.0561.0214c-.0199.0031-.0401.0021-.0596-.0031h-.0742l-1.0379.4736h-.2224l-.2225-.3947-.2224-.4736c-.0741-.0789 0-.1578.0742-.2368l.8155-.7103z" fill="#323740"/><path d="m90.5 90c3.0376 0 5.5-2.4624 5.5-5.5s-2.4624-5.5-5.5-5.5-5.5 2.4624-5.5 5.5 2.4624 5.5 5.5 5.5z" fill="#3e444d"/><path d="m90.5 86c.8284 0 1.5-.8954 1.5-2s-.6716-2-1.5-2-1.5.8954-1.5 2 .6716 2 1.5 2z" fill="#323740"/><path d="m93.335 83.0559c-.0368-.0358-.0867-.0559-.1388-.0559-.052 0-.1019.0201-.1387.0559-.0368.0357-.0575.0843-.0575.1348 0 .0506.0207.0992.0575.1349 0 .0899.0925.1799.0925.2698v.8092c.0042.0487-.0018.0978-.0177.1442-.0159.0463-.0414.0891-.0748.1256-.0368.0358-.0575.0843-.0575.1349 0 .0505.0207.0991.0575.1348.0368.0358.0867.0559.1387.0559.0521 0 .102-.0201.1388-.0559h.0925l1.3875-.1798c.0491 0 .0961-.0189.1308-.0527.0347-.0337.0542-.0794.0542-.1271v-1.169c0-.0477-.0195-.0934-.0542-.1271s-.0817-.0527-.1308-.0527l-1.3875-.1798z" fill="#323740"/><path d="m88.5183 81.8623c0 .1662.2328.1662.3104.0831l.1553-.2492.3104-.1662.3105-.1662h.2329c.1552 0 .2328-.1662.0776-.3323h-.0776l-.6986-.914c0-.0831-.0776-.1662-.1552-.0831s-.3105.0831-.4657.2493l-.4657.2492c-.0166.0156-.0298.0348-.0388.0563-.0091.0215-.0138.0448-.0138.0684 0 .0235.0047.0469.0138.0683.009.0215.0222.0407.0388.0563l.3881 1.1632z" fill="#323740"/><path d="m89.9684 87.3119c.0805-.2251 0-.4502-.161-.4502h-.2416c-.0625 0-.1242-.0203-.1801-.0594s-.1045-.0958-.142-.1657l-.3221-.2251-.1611-.3376c-.0805-.1125-.3221-.1125-.3221.1126v.225l-.4026 1.4631c-.0805.1125 0 .2251 0 .3376l.4831.4502.4832.2251c0 .0298.0085.0584.0236.0795s.0356.033.0569.033c.0214 0 .0419-.0119.057-.033s.0236-.0497.0236-.0795l.8052-1.3505z" fill="#323740"/><path d="m109 93c3.314 0 6-2.6863 6-6s-2.686-6-6-6-6 2.6863-6 6 2.686 6 6 6z" fill="#626b7a"/><path d="m86.8387 104h-18.6774c-.6414 0-1.1613.496-1.1613 1.107v9.786c0 .611.5199 1.107 1.1613 1.107h18.6774c.6414 0 1.1613-.496 1.1613-1.107v-9.786c0-.611-.5199-1.107-1.1613-1.107z" fill="#9de4d1"/><path d="m96.106 116h17.788c.611 0 1.106-.496 1.106-1.107v-9.786c0-.611-.495-1.107-1.106-1.107h-17.788c-.6108 0-1.106.496-1.106 1.107v9.786c0 .611.4952 1.107 1.106 1.107z" fill="#9de4d1"/><path d="m100 116h10c-.444-.896-1.157-1.655-2.052-2.187-.895-.531-1.936-.814-2.999-.813-1.048.006-2.072.292-2.95.824s-1.572 1.287-1.999 2.176z" fill="#747f8d"/><path d="m72 116h10c-.4418-.896-1.1474-1.654-2.0333-2.186-.886-.532-1.9154-.814-2.9667-.814s-2.0807.282-2.9667.814c-.8859.532-1.5915 1.29-2.0333 2.186z" fill="#747f8d"/><path d="m104 115.455-1.12.545-2.88-7.636.72-.364z" fill="#747f8d"/><path d="m78.4516 116-1.4516-.293 2.0323-8.707.9677.196z" fill="#747f8d"/><path d="m71 128c2.2091 0 4-1.791 4-4s-1.7909-4-4-4-4 1.791-4 4 1.7909 4 4 4z" fill="#747f8d"/><path d="m83.5 128c2.4853 0 4.5-1.791 4.5-4s-2.0147-4-4.5-4-4.5 1.791-4.5 4 2.0147 4 4.5 4z" fill="#747f8d"/><path d="m99 128c2.209 0 4-1.791 4-4s-1.791-4-4-4c-2.2091 0-4 1.791-4 4s1.7909 4 4 4z" fill="#747f8d"/><path d="m111 128c2.209 0 4-1.791 4-4s-1.791-4-4-4-4 1.791-4 4 1.791 4 4 4z" fill="#747f8d"/><path d="m84.5726 100.806h-8.132c-1.435-9.0887-9.0887-16.7423-17.8903-18.5601 1.3188-.3003 2.6657-.4606 4.0181-.4783 10.4281 0 20.3778 8.6103 22.0042 19.0384z" fill="#687282"/><path d="m88.782 144.815c9.28 0 15.594-7.558 14.064-16.838-1.531-9.28-10.2372-16.838-19.5172-16.838h-6.5056l5.3576 33.676z" fill="#4f5660"/><path d="m88.6862 112h-10.428l-1.8178-11.194h10.4281z" fill="#687282"/><path d="m88.6861 112h-2.2961l-1.8177-11.194h2.2961z" fill="#bec3cc"/><path d="m92.8384 140.362c5.8048-6.29 4.5296-16.909-2.8483-23.717-7.3778-6.808-18.0645-7.228-23.8692-.937-5.8048 6.291-4.5296 16.909 2.8482 23.717 7.3779 6.808 18.0645 7.228 23.8693.937z" fill="#40464f"/><path d="m86.2297 134.264c2.9382-3.184 2.2982-8.554-1.4296-11.994-3.7277-3.44-9.1316-3.647-12.0698-.463s-2.2982 8.554 1.4296 11.994c3.7277 3.44 9.1316 3.647 12.0698.463z" fill="#323740"/><path d="m84.6639 135.895c2.9259-.912 4.2024-5.167 2.8511-9.506-1.3512-4.338-4.8186-7.116-7.7445-6.205s-4.2024 5.167-2.8512 9.505c1.3513 4.339 4.8187 7.117 7.7446 6.206z" fill="#2c3038"/><path d="m55.1057 144.815c9.2801 0 15.5943-7.558 14.1592-16.838-1.435-9.28-10.3323-16.838-19.5167-16.838h-6.6012l5.4532 33.676z" fill="#4f5660"/><path d="m48.9829 114.965h-10.428l-2.2961-14.159h10.428z" fill="#e4e6e8"/><path d="m48.5045 112h-2.2004l-1.8178-11.194h2.2004z" fill="#bec3cc"/><path d="m59.2549 140.263c5.8048-6.291 4.5296-16.909-2.8483-23.718-7.3778-6.808-18.0645-7.227-23.8692-.937-5.8048 6.291-4.5296 16.91 2.8482 23.718 7.3779 6.808 18.0645 7.227 23.8693.937z" fill="#e4e6e8"/><path d="m44.4866 100.806h-8.132c-1.9134-11.6716 6.1229-21.2386 17.7947-21.2386h8.0363c-11.5761 0-19.6124 9.567-17.699 21.2386z" fill="#e4e6e8"/><path d="m51.7928 136.224c3.8699-4.193 3.0093-11.282-1.9223-15.833-4.9315-4.55-12.0664-4.84-15.9363-.646-3.8698 4.194-3.0092 11.282 1.9223 15.833s12.0665 4.84 15.9363.646z" fill="#bdc5cf"/><path d="m41.6167 135.056-4.4009-3.349c-.287-.191-.0956-.574.287-.574h7.4623c.3827 0 .4784.479.1914.766l-3.0615 3.061c-.1913.096-.3827.191-.4783.096z" fill="#fff"/><path d="m86.8684 100.806h-2.2961c-1.6264-10.4279-11.5761-19.0382-22.0041-19.0382s-17.6033 8.6103-15.8812 19.0382h-2.2005c-1.9134-11.6716 6.1229-21.2386 17.699-21.2386s22.7695 9.567 24.6829 21.2386z" fill="#e9ebed"/><path d="m86.8684 100.806h-2.2961c-1.6264-10.4279-11.5761-19.0382-22.0041-19.0382s-17.6033 8.6103-15.8812 19.0382h-2.2005c-1.9134-11.6716 6.1229-21.2386 17.699-21.2386s22.7695 9.567 24.6829 21.2386z" fill="#bec3cc"/><path d="m269.746 123h-.483l-31.54-13.657c-.271-.142-.486-.371-.609-.651s-.147-.592-.068-.887c.051-.161.137-.308.252-.432s.256-.222.412-.286c.157-.064.326-.093.495-.086.17.008.335.052.486.131l31.539 13.56c.149.053.285.136.401.243s.208.237.272.381c.063.144.096.3.097.457s-.031.313-.093.458c-.095.227-.257.422-.463.559-.207.137-.449.21-.698.21z" fill="#e9ebed"/><path d="m165.641 142c-4.939-.012-9.717-1.748-13.5-4.904-3.783-3.157-6.33-7.533-7.198-12.366-1.139-6.323-1.804-12.363-2.469-17.743l-.19-2.17c-.396-3.429-2.047-6.593-4.638-8.8901-2.591-2.2972-5.942-3.5669-9.414-3.5675h-2.089c-.302 0-.592-.1194-.805-.3318-.214-.2123-.334-.5004-.334-.8007-.013-.1565.007-.314.058-.4625.051-.1484.133-.2847.24-.4001.107-.1153.237-.2073.382-.27s.301-.0948.459-.0943h2.089c4.055-.0035 7.97 1.4756 10.999 4.1556 3.029 2.6801 4.961 6.3744 5.427 10.3784l.19 2.17c.665 5.285 1.329 11.325 2.469 17.648.457 2.891 1.623 5.625 3.395 7.962 1.771 2.337 4.094 4.205 6.764 5.439 2.684 1.315 5.647 1.968 8.639 1.902s5.923-.848 8.546-2.279c9.495-5.191 18.705-5.568 28.105-5.568.157-.013.316.006.465.057s.286.133.402.239c.117.107.209.236.272.38s.096.299.095.456c0 .326-.13.638-.362.868-.231.23-.545.359-.872.359-11.204 0-18.8.849-26.965 5.285-3.124 1.667-6.614 2.542-10.16 2.548z" fill="#42454d"/><path d="m269.002 126-1.157-.283-9.254-3.869-3.373 2.359c-.163.122-.353.202-.555.235-.201.033-.408.017-.602-.046l-19.376-8.209c-.14-.061-.266-.149-.371-.258s-.187-.238-.24-.378c-.054-.141-.079-.29-.073-.44s.042-.297.106-.434c.053-.145.136-.278.244-.391.107-.113.237-.203.382-.265.144-.061.3-.094.457-.095.158 0 .314.03.459.091l18.701 7.926 3.374-2.453c.188-.108.398-.172.615-.188s.435.016.638.093l9.832 4.152c.063.03.131.047.201.049s.139-.011.204-.038c.064-.027.121-.067.168-.118s.081-.111.102-.176c.031-.062.048-.129.05-.197s-.011-.136-.039-.199c-.027-.063-.068-.119-.12-.165-.052-.045-.113-.08-.18-.1l-31.425-13.304c-.271-.139-.485-.365-.607-.639-.123-.274-.147-.581-.068-.871.051-.157.137-.302.252-.423.114-.122.254-.218.41-.281.157-.063.325-.091.494-.084.168.008.333.051.483.128l31.425 13.304c.374.137.714.351.997.628s.502.61.642.976c.148.346.216.721.2 1.096-.017.375-.118.742-.297 1.074-.213.53-.585.985-1.066 1.305-.482.319-1.051.49-1.633.488z" fill="#a8b0b5"/><path d="m231.052 126.883-5.052-1.923 3.402-6.96 5.052 1.923c.141.045.266.124.36.227.095.103.157.227.178.359s.001.266-.057.389c-.059.123-.154.229-.275.307-.83.561-1.485 1.302-1.9 2.152s-.577 1.78-.471 2.702c.048.144.045.297-.008.439s-.153.266-.288.355c-.135.09-.297.141-.465.147-.169.005-.335-.036-.476-.117z" fill="#4f5660"/><path d="m235.151 122.62-26.296-11.555c-2.355-1.055-4.208-3.012-5.16-5.449-.951-2.437-.925-5.158.073-7.5756.501-1.2101 1.234-2.3061 2.154-3.2242.921-.9181 2.012-1.6397 3.209-2.1229 1.198-.4832 2.477-.7182 3.764-.6912 1.288.0269 2.557.3152 3.733.8481l28.697 12.6328c.636.289 1.199.725 1.642 1.274.444.548.757 1.194.915 1.886.159.693.157 1.414-.004 2.106-.16.692-.476 1.336-.922 1.883l-7.102 8.911c-.556.686-1.319 1.164-2.171 1.359-.851.195-1.742.096-2.532-.282z" fill="#8e97a3"/><path d="m211.983 139.635v.953c-.003.274-.086.542-.239.771-.152.229-.368.409-.621.52s-.533.146-.806.103-.527-.163-.733-.346l-8.254-6.194c-.359-.27-.66-.61-.884-.998-.225-.388-.368-.818-.422-1.262-.054-.445-.017-.896.109-1.326.125-.43.337-.831.622-1.178l12.188-14.674c.242-.265.415-.585.504-.932s.09-.71.005-1.058-.255-.67-.494-.937c-.24-.268-.541-.473-.879-.599l-3.551-1.619 1.344-2.859 22.168 9.433.96 3.907-1.344-.572c-.256-.074-.529-.057-.774.047-.245.105-.446.29-.569.525l-2.111 4.86c-.189.398-.517.714-.923.889s-.863.198-1.285.063l-1.919-.857c-.45-.179-.95-.191-1.409-.034-.458.158-.844.474-1.086.891-2.015 3.462-4.65 6.53-7.774 9.053-1.035.863-1.689 2.094-1.823 3.43z" fill="#8e97a3"/><path d="m260.541 108.003c.387 0 .758.183 1.032.509.273.326.427.768.427 1.229v35.259h-3v-35.259c0-.236.04-.471.118-.688.079-.218.193-.414.338-.576.144-.163.315-.289.501-.371.187-.081.385-.116.584-.103z" fill="#747f8d"/><path d="m200.536 141h66.928c.407 0 .798.169 1.086.469s.45.707.45 1.131v2.4h-70v-2.4c0-.424.162-.831.45-1.131s.679-.469 1.086-.469z" fill="#747f8d"/><path d="m203.362 98.5497c-.846 2.3513-.769 4.9443.217 7.2383s2.804 4.112 5.074 5.075l3.496 1.539c.333.126.63.334.865.604.236.27.403.595.487.946s.082.718-.005 1.068c-.088.351-.258.674-.497.941l-11.999 14.815 1.134.769c.453.353 1.023.51 1.589.438.565-.072 1.081-.367 1.434-.822l12.945-15.2c.883-1.003 1.509-2.213 1.822-3.522s.304-2.676-.027-3.981l-.567-2.212c-.184-.588-.14-1.225.124-1.78.263-.555.726-.985 1.293-1.203l1.984-.962c.687-.291 1.271-.786 1.676-1.422.404-.635.611-1.3799.592-2.1369v-2.0201l-8.787-3.9441c-1.212-.5228-2.516-.7874-3.831-.7776-1.316.0098-2.616.2938-3.82.8345-1.204.5408-2.286 1.3268-3.18 2.3097s-1.581 2.1418-2.019 3.4052z" fill="#747f8d"/><path d="m238.227 109.41-9.219-3.989c-.922-.399-1.992.025-2.391.946l-.034.079c-.398.921.025 1.991.947 2.39l9.219 3.99c.921.398 1.991-.025 2.39-.947l.034-.079c.399-.921-.025-1.991-.946-2.39z" fill="#ffd836"/><path d="m19.8504 33h22.2992c.2255 0 .4418.1054.6013.2929s.2491.4419.2491.7071v2h-24v-2c0-.2652.0896-.5196.2491-.7071s.3758-.2929.6013-.2929z" fill="#9aa2ac"/><g fill="#8a939f"><path d="m36.3718 16h-.0742c-.0911-.0466-.1693-.135-.2228-.2518-.0536-.1169-.0796-.2559-.0741-.3962.2282-.8587.3047-1.7869.2227-2.6998-.0285-.07-.0429-.1503-.0414-.2317.0015-.0813.0187-.1604.0498-.2281.031-.0678.0745-.1213.1256-.1546.051-.0333.1075-.0449.1629-.0336.0942.0065.1854.0501.2638.1262.0785.0761.1412.1818.1815.3058.0861 1.0907.0101 2.1955-.2226 3.2398-.0423.0897-.0973.165-.1613.2209-.0641.0559-.1356.0911-.2099.1031z"/><path d="m32.3941 15c-.1576 0-.2365 0-.3153-.1309-.031-.0344-.0536-.0735-.0665-.1152-.0128-.0416-.0157-.085-.0083-.1275.0073-.0426.0246-.0835.051-.1205s.0612-.0693.1026-.0951c.5202-.2756.9099-.6918 1.1035-1.1784.0059-.0433.0247-.0848.0548-.1205.0301-.0358.0705-.0647.1175-.0843.0469-.0195.0991-.0289.1516-.0275.0525.0015.1037.0139.149.0359.2364 0 .3153.1964.2364.3928-.2208.6167-.6949 1.1495-1.3399 1.5057z"/><path d="m29.4336 13c-.115 0-.2253-.0555-.3066-.1542s-.127-.2325-.127-.3721.0457-.2735.127-.3722.1916-.1541.3066-.1541c.6776-.1145 1.3277-.4014 1.9076-.8421.092-.0838.2076-.1197.3214-.1s.2166.0936.2855.2052c.0868.3158.0868.6316-.1734.7369-.6895.597-1.4976.9603-2.3411 1.0526z"/><path d="m28.4483 10c-.1159 0-.2271-.0362-.3091-.10065-.082-.06444-.128-.15184-.128-.24298-.0137-.04134-.0148-.08461-.0035-.12638.0114-.04176.035-.08086.0689-.11421.034-.03335.0773-.06002.1267-.07791.0493-.01788.1033-.02649.1576-.02512l2.0985-.27491c.0502-.02319.107-.03614.1653-.03768.0582-.00154.116.00838.1681.02886.0522.02049.097.05088.1303.08843.0334.03755.0543.08106.0609.12657.029.08206.0183.16969-.0302.24588-.0484.07619-.1312.13552-.2321.16647z"/><path d="m26.4444 8c-.2222 0-.4444-.14944-.4444-.44831 0-.29888 0-.89663.3333-.89663.9806-.56061 2.0531-.76667 3.1111-.59775.1474 0 .2887.07872.3929.21884.1042.14013.1627.33018.1627.52835 0 .19816-.0585.38822-.1627.52834-.1042.14013-.2455.21885-.3929.21885-.9392-.15888-1.8931-.00493-2.7777.44831z"/><path d="m25.4315 5c-.1644 0-.3287 0-.4109-.14238-.028-.08814-.0275-.18124.0015-.26914.029-.08789.0853-.16719.1629-.2292.7569-.34449 1.6303-.44538 2.465-.28477.2465.07119.4108.28477.3286.42715-.0821.14238-.2465.35596-.493.28477-.6381-.14338-1.3155-.06682-1.8898.21357z"/><path d="m39.5077 14c-.1305 0-.2557-.0454-.3481-.1262-.0923-.0808-.1441-.1904-.1441-.3046-.0214-.68-.3383-1.3272-.886-1.8096-.0453-.0453-.0799-.0979-.1019-.1549-.022-.0569-.031-.1172-.0264-.1772.0092-.1212.073-.2342.1775-.3142.1044-.08.2409-.1204.3794-.1123.1384.0081.2676.064.3589.1554.6526.6453 1.0345 1.4659 1.0829 2.3266.002.1234-.0465.2434-.1368.3382s-.2163.1582-.3554.1788z"/><path d="m40.4119 10.9984c-.1164.0082-.2329-.0151-.333-.0668-.1002-.0516-.179-.1289-.2253-.2211-.2598-.74479-.8124-1.3891-1.5635-1.82292-.335-.09594-.335-.47973-.2233-.67162.0973-.0905.2217-.15628.3595-.19012.1379-.03384.284-.03445.4222-.00176.9944.57792 1.7399 1.42076 2.1218 2.39862.1117.1919-.1117.4797-.335.5757z"/><path d="m40.5833 8h-.25c-.2683-.28212-.5685-.47514-.8832-.56784-.3147-.09271-.6377-.08328-.9501.02776-.1057-.00804-.2081-.06255-.2962-.15769s-.1585-.22732-.2038-.38238c0-.40506.0833-.81012.3333-.81012.4339-.15197.8833-.14602 1.3156.01742s.8368.4803 1.1844.92772c.0884.10742.1469.26735.1625.4446.0156.17724-.0128.35729-.0791.50053z"/><path d="m39.4556 5h-.4676c-.335-.13972-.7164-.23639-1.1192-.28371-.4029-.04732-.8182-.04422-1.2189.00909-.2339 0-.5846-.13731-.5846-.27462-.0449-.04451-.0675-.09557-.0651-.14729.0023-.05172.0295-.102.0783-.14505.0489-.04305.1175-.07711.1979-.09827s.1693-.02855.2566-.02132c.5724-.06118 1.1605-.04996 1.7249.03292.5645.08287 1.0923.23549 1.5484.44766.2338.06866.2338.34328.1169.48059z"/></g><path d="m132 66c1.105 0 2-.8954 2-2s-.895-2-2-2-2 .8954-2 2 .895 2 2 2z" fill="#9ba3ad"/><path d="m150.257 83.9961h-5.027c-.158.013-.316-.0065-.465-.0572-.149-.0506-.286-.1314-.402-.2372s-.209-.2342-.272-.3772c-.063-.1429-.095-.2973-.095-.4532 0-.3232.13-.6331.362-.8616.231-.2285.545-.3569.872-.3569h5.027c4.838 0 8.159-1.7809 9.676-5.0616.524-1.191.737-2.4925.621-3.7859-.116-1.2933-.557-2.5375-1.285-3.619-.782-1.1615-1.839-2.1181-3.078-2.7874-1.239-.6694-2.624-1.0316-4.036-1.0556h-20.017c-.302 0-.591-.1185-.805-.3294-.213-.211-.333-.4971-.333-.7954-.001-.3076.116-.6041.327-.8301s.501-.3647.811-.3884h20.017c1.818.0048 3.606.4626 5.197 1.3309 1.592.8683 2.937 2.1192 3.91 3.6369.964 1.3855 1.55 2.9941 1.7 4.6694.149 1.6753-.142 3.3603-.847 4.8913-1.897 4.218-6.071 6.4676-11.858 6.4676z" fill="#585f6a"/><path d="m209.5 106c1.381 0 2.5-1.119 2.5-2.5s-1.119-2.5-2.5-2.5-2.5 1.119-2.5 2.5 1.119 2.5 2.5 2.5z" fill="#626b7a"/><path d="m135.948 4.17906c0-1.00391-.793-1.81773-1.77-1.81773-.978 0-1.77.81382-1.77 1.81773v3.37716c0 1.0039.792 1.81773 1.77 1.81773.977 0 1.77-.81383 1.77-1.81773z" fill="#7e9fff"/><path d="m135.948 19.9647c0-1.0039-.793-1.8177-1.77-1.8177-.978 0-1.77.8138-1.77 1.8177v3.3772c0 1.0039.792 1.8177 1.77 1.8177.977 0 1.77-.8138 1.77-1.8177z" fill="#7e9fff"/><path d="m143.697 15.5637c1.004 0 1.818-.7924 1.818-1.7699s-.814-1.7699-1.818-1.7699h-3.377c-1.004 0-1.818.7924-1.818 1.7699s.814 1.7699 1.818 1.7699z" fill="#7e9fff"/><path d="m127.911 15.5637c1.004 0 1.818-.7924 1.818-1.7699s-.814-1.7699-1.818-1.7699h-3.377c-1.004 0-1.818.7924-1.818 1.7699s.814 1.7699 1.818 1.7699z" fill="#7e9fff"/></g></svg>