<svg fill="none" height="464" viewBox="0 0 640 464" width="640" xmlns="http://www.w3.org/2000/svg" xmlns:xlink="http://www.w3.org/1999/xlink"><linearGradient id="a" gradientUnits="userSpaceOnUse" x1="320.19" x2="320.19" y1="466.109" y2="133.982"><stop offset="0" stop-color="#7796f7"/><stop offset=".12" stop-color="#6c8df1"/><stop offset=".47" stop-color="#5075e1"/><stop offset=".77" stop-color="#3f67d7"/><stop offset="1" stop-color="#3962d4"/></linearGradient><linearGradient id="b"><stop offset=".34" stop-color="#a37ecd" stop-opacity="0"/><stop offset="1" stop-color="#9cb5f7"/></linearGradient><linearGradient id="c" gradientUnits="userSpaceOnUse" x1="259.808" x2="291.85" xlink:href="#b" y1="193.009" y2="-79.7723"/><linearGradient id="d" gradientUnits="userSpaceOnUse" x1="35347.1" x2="37180.30000000001" xlink:href="#b" y1="20745.6" y2="-9403.02"/><linearGradient id="e" gradientUnits="userSpaceOnUse" x1="153.921" x2="135.821" y1="381.84" y2="381.171"><stop offset="0" stop-color="#9cb5f7"/><stop offset=".85" stop-color="#a37ecd" stop-opacity="0"/></linearGradient><clipPath id="f"><path d="m0 0h640v464h-640z"/></clipPath><g clip-path="url(#f)"><path d="m640 .339996h-639.620117v463.660004h639.620117z" fill="url(#a)"/><g fill="#fff"><path d="m310.976 101.196 2.249 4.996c0 .027.01.052.029.071s.044.029.071.029c.026 0 .052-.01.071-.029.018-.019.029-.044.029-.071l2.248-4.996c.005-.014.013-.027.023-.038.01-.01.023-.018.037-.022l4.997-2.2385c.019-.0103.035-.0255.046-.044.011-.0184.016-.0395.016-.0609s-.005-.0424-.016-.0609c-.011-.0184-.027-.0336-.046-.044l-4.997-2.2484c-.012-.0038-.024-.0103-.035-.0188-.01-.0086-.018-.0192-.025-.0311l-2.248-4.9964c-.009-.0191-.023-.0353-.041-.0467-.017-.0113-.038-.0174-.059-.0174s-.042.0061-.059.0174c-.018.0114-.032.0276-.041.0467l-2.249 4.9964c-.006.0119-.014.0225-.025.0311-.01.0085-.022.015-.035.0188l-4.997 2.2484c-.018.0104-.034.0256-.045.044-.011.0185-.017.0395-.017.0609s.006.0425.017.0609c.011.0185.027.0337.045.044l4.997 2.2385c.014.004.027.012.038.022.01.011.018.024.022.038z" opacity=".7"/><path d="m503.862 282.363 1.319 2.998c.007.01.017.019.028.024.012.006.024.009.037.009s.025-.003.036-.009c.012-.005.021-.014.029-.024l1.319-2.998 2.998-1.319c.011-.006.019-.015.025-.025.006-.011.009-.023.009-.035s-.003-.024-.009-.034c-.006-.011-.014-.02-.025-.026l-2.998-1.329-1.319-2.998c-.008-.01-.017-.018-.029-.024-.011-.006-.023-.009-.036-.009s-.025.003-.037.009c-.011.006-.021.014-.028.024l-1.319 2.998-2.998 1.329c-.011.006-.019.015-.025.026-.006.01-.009.022-.009.034s.003.024.009.035c.006.01.014.019.025.025z" opacity=".49"/><path d="m519.972 303.248.709 1.589h.06l.71-1.589 1.589-.71v-.06l-1.589-.709-.71-1.589h-.06l-.709 1.589-1.589.709v.06l1.589.71c0-.01 0 0 0 0z" opacity=".27"/><path d="m366.183 361.095 1.13 2.559c.006.008.015.015.024.019.01.005.02.007.031.007.01 0 .021-.002.03-.007.01-.004.018-.011.025-.019l1.129-2.559 2.548-1.129c.011-.004.02-.012.027-.022.006-.01.009-.021.009-.033 0-.011-.003-.023-.009-.033-.007-.009-.016-.017-.027-.022l-2.518-1.119-1.129-2.548c-.005-.011-.013-.02-.022-.026-.01-.007-.022-.01-.033-.01-.012 0-.023.003-.033.01-.01.006-.018.015-.022.026l-1.13 2.548-2.548 1.129c-.011.005-.02.013-.026.022-.007.01-.01.022-.01.033 0 .012.003.023.01.033.006.01.015.018.026.022l2.548 1.129z" opacity=".47"/><path d="m323.909 91.5829.459.9993h.05l.46-.9993 1-.4597-1-.4596-.46-1.0493h-.05l-.459 1.0493-1.05.4596 1.05.4597c0-.01 0 0 0 0z" opacity=".33"/><path d="m328.866 350.403-.61 1.579 1.579-.599 1.579.599s.05 0 0 0l-.599-1.579.599-1.579-1.579.61-1.579-.61z" opacity=".33"/><path d="m588.211 37.1328-.609 1.5788 1.579-.5995 1.579.5995s.05 0 0 0l-.6-1.5788.6-1.5788-1.579.6095-1.579-.6095z" opacity=".21"/><path d="m629.477 29.4085-1.549.6795v.0699l1.549.6895.68 1.5489h.07l.689-1.5489 1.55-.6895s0-.05 0-.0699l-1.55-.6795-.689-1.5489s-.05 0-.07 0z" opacity=".33"/><path d="m410.627 316.178.68-1.549h.07l.689 1.549 1.549.68v.07l-1.549.689-.689 1.549s0 0-.07 0l-.68-1.549-1.549-.689s0-.05 0-.07z" opacity=".33"/><path d="m586.712 280.954-.749 1.949.06.05 1.949-.74 1.938.74.06-.05-.749-1.949.749-1.948s0-.06-.06-.05l-1.938.749-1.949-.749s-.07 0-.06.05z" opacity=".27"/><path d="m595.807 234.588-2.998 1.329c-.011.006-.019.015-.025.026-.006.01-.009.022-.009.034s.003.024.009.035c.006.01.014.019.025.025l2.998 1.319 1.319 2.998c.008.01.017.019.029.024.011.006.024.009.036.009.013 0 .025-.003.037-.009.011-.005.021-.014.028-.024l1.319-2.998 2.999-1.319c.01-.006.019-.015.024-.025.006-.011.01-.023.01-.035s-.004-.024-.01-.034c-.005-.011-.014-.02-.024-.026l-2.999-1.329-1.319-2.998c-.007-.01-.017-.018-.028-.024-.012-.006-.024-.009-.037-.009-.012 0-.025.003-.036.009-.012.006-.021.014-.029.024z" opacity=".6"/></g><path d="m449.604 126.447-1.329.8h67.31s-7.646-14.839-17.58-4.667c0 0-13.991-19.835-27.124-2.508z" fill="#7d9df5"/><path d="m536.223 75.2848s2.998-4.9963 4.997-2.9978c0 0 2.998-5.9956 4.997-.9992l-1 3.997z" fill="#4e7d8c"/><path d="m595.188 75.2848s-1.629-3.2676-3.269-1.6288c0 0-3.268-5.7258-4.907-1.6388l-.819 2.4482z" fill="#4e7d8c"/><path d="m558.739 65.9417 1.829-2.4282 2.638-.2199 1.999-5.9956 5.997-2.9978 4.567 3.7373h3.648l2.428 6.6851-3.378 10.4023h-20.617z" fill="#2f52b3"/><path d="m566.035 67.7704s-.6-5.476-2.429-6.6951l-2.998 1.2191c.023-.696.273-1.3653.711-1.9064.438-.541 1.041-.9243 1.717-1.0914 0 0-4.257-2.4383-6.076-1.2191 0 0 1.819-3.6474 6.686-2.4283 0 0 1.219-2.9978 3.648-2.9978 0 0-1.219 2.9978-.61 4.8665 0 0 2.998-1.8187 5.477 0l-4.337 1.7387c.383.0206.754.1436 1.074.3562.32.2127.577.5072.744.8529h-2.998s1.999 6.845 1.889 8.5937l-.709 1.7487-1.829-1.2191z" fill="#233d85"/><path d="m578.197 60.2259s.22-5.1762 1.749-4.7965c.744.2482 1.472.5419 2.179.8793-.011-.506-.188-.9943-.504-1.3897-.316-.3955-.754-.6761-1.245-.7987l3.908.2698s-1.379-2.0884-4.867-1.2191c0 0-1.299-1.8186-2.998-1.8186 0 0 1.219.5995 1.389 1.4689 0 0-2.609-.2598-3.828 1.5688l2.998-.2698c-.469.4259-.861.9296-1.159 1.489l1.999-.6096s-1.409 4.8964-1.359 6.1555l.489 1.2491 1.299-.8694z" fill="#233d85"/><path d="m594.618 61.6848 1.699-.8494c.222-.1088.41-.278.54-.4883.131-.2103.2-.4532.199-.7008v-2.8279l2.429-1.8587-.51-3.997c-.028-.2282.016-.4594.125-.6617s.279-.3657.485-.4675l.569-.2898c.767-.3794 1.591-.6293 2.439-.7395l3.588 1.5489 3.997-1.9985s5.997.9992 1.999 6.9948c-.23.3498-5.796.6196-7.635.4397-.422-.0387-.846.0419-1.224.2328-.379.1908-.696.4841-.915.8464l-1.089 1.8287-2.339.4597c-.211.0455-.405.1492-.561.2993-.155.1501-.266.3406-.318.55l-.43 1.7288-3.048.6095z" fill="#7d9df5"/><path d="m595.637 61.6748c-.201-.3278-.515-.5712-.883-.6852-.367-.1139-.764-.0906-1.116.0657l-5.277 2.1984c.013-.3009-.037-.6011-.145-.8823-.108-.2811-.272-.5371-.483-.7524-.21-.2152-.463-.3852-.741-.4993-.279-.1141-.578-.1701-.879-.1644.559-9.6029-4.527-1.1291-4.527-1.1291-2.829-.5696-3.998 1.1291-3.998 1.1291-10.734-3.3875-7.346 9.0434-7.346 9.0434l1.13 5.6559h13.572c2.308-.6595 3.268-2.8579 3.667-4.5767.357-1.477 1.03-2.8587 1.974-4.0494.944-1.1906 2.136-2.1616 3.493-2.8455.3-.1599.59-.2898.84-.4097.189-.0852.36-.2084.5-.362.14-.1537.247-.3344.315-.5312.067-.1967.093-.4052.077-.6125-.016-.2074-.075-.4091-.173-.5928zm-22.526 5.536c-1.699-6.2155 3.388-4.5167 3.388-4.5167-1.678 1.004-2.894 2.6257-3.388 4.5167z" fill="#8a91fa"/><path d="m542.589 75.6945s9.604-24.3021 18.089-8.4837c0 0 4.517-3.3876 6.776 1.6987 0 0 4.527-1.1292 5.657 7.3446z" fill="#707afa"/><path d="m556.83 67.2108c-2.139 0-9.704-.4397-15.371-5.0863-6.226-5.0863 8.785 1.5588 8.785 1.5588s5.347-6.6451 10.434 3.5275z" fill="#b79bdb"/><path d="m549.455 75.125s3.308-10.7322 4.227 0z" fill="#5763fa"/><path d="m555.671 75.125s1.609-6.2155 3.308 0z" fill="#5763fa"/><path d="m564.066 71.7374c.624 0 1.129-.5055 1.129-1.1291 0-.6237-.505-1.1292-1.129-1.1292s-1.129.5055-1.129 1.1292c0 .6236.505 1.1291 1.129 1.1291z" fill="#b79bdb"/><path d="m585.433 68.6097c-.409-.2398-1.129.1899-1.739.9993l-.999-.8993c.11-.1599.21-.3198.31-.4997 1.249-2.1584 1.499-4.3568.549-4.9064-.949-.5496-2.728.7695-3.997 2.9279-1.27 2.1584-1.499 4.3568-.55 4.9064.71.4197 1.909-.2398 2.998-1.5089l1.06.9993c-.49.9992-.55 1.9985-.09 2.2483.459.2498 1.459-.4097 2.139-1.5788.679-1.1692.829-2.3483.319-2.6881z" fill="#737bfa"/><path d="m531.845 75.8444 1.579 3.1577c.289.5702.758 1.0285 1.335 1.3034.577.2748 1.229.3506 1.853.2155 2.599-.5296 6.996-.4897 9.625 4.7565 0 0 8.395 1.1092 8.994 7.9942l5.997.9992 5.936 10.8921s15.321-.67 14.662-.67c-.66 0 2.658-14.6588 2.658-14.6588l5.327-2.6581v-4.6666s8.135-1.9985 10.134-6.6651z" fill="#5d4c82"/><path d="m553.952 75.1349s2.868 2.1485 2.149 7.8843c0 0 4.307 1.4289 4.997 4.2968l1.999.3398c.692.1148 1.342.4098 1.884.8554.542.4455.957 1.0259 1.204 1.6827l1.339 3.5774 4.298 7.8847 6.326-.39-4.887-7.4947-1.439-3.5874 2.868-7.1647-1.359-.2299c-.898-.1486-1.743-.5266-2.452-1.0973s-1.259-1.3148-1.596-2.1603l-.33-.8194 2.159-3.5774z" fill="#59477d"/><path d="m599.805 75.8444h-68.07l1.24-.8294c.593-.3907 1.288-.5991 1.998-.5995h61.404c1.285.012 2.515.5246 3.428 1.4289z" fill="#569299"/><path d="m514.235 95.2702h52.089s-12.112-13.9198-23.985-4.5367c-4.712-1.5058-9.712-1.8798-14.595-1.0916-4.882.7883-9.511 2.7165-13.509 5.6283z" fill="#7d9df5"/><path d="m705.122 115.256h-159.905s30.982-27.98 52.969-10.992c0 0 24.985-40.9704 51.969-29.9784 0 0-10.994-55.6393 40.976-74.2856h13.991z" fill="#d4deff"/><path d="m650.155 74.2858c-26.984-10.9919-51.969 29.9782-51.969 29.9782-21.987-16.9877-52.969 10.992-52.969 10.992s36.978-18.9863 58.965-4.997c0 0 17.99-38.971 55.967-25.9805 0 0 9.994-56.9583 44.973-56.4586v-27.479904h-14.891c-50.91 18.966104-40.076 73.945804-40.076 73.945804z" fill="#fff" opacity=".5"/><path d="m326.347 411.039s9.994-8.994 19.988-11.991c0 0 10.994-37.973 21.987-24.982 0 0 9.994-16.988 16.99 3.787 0 0 3.998-3.787 8.995 1.999 0 0 8.994-36.763 44.973-13.99l-19.988-29.768s7.565-54.51 67.96-46.966c15.99 1.999 28.932 16.858 31.981 24.982 0 0 14.991-22.983 28.982 9.992 0 0 0-5.995 5.997 4.997 0 0 26.984-39.971 48.061 74.945z" fill="#fff" opacity=".7"/><path d="m522.181 224.396s4.517-10.992 21.037-8.214c11.993 1.998 22.987-10.992 22.987-10.992s0 16.987-14.992 21.984c0 0 9.995 3.997 13.992-2.998 0 0-1.999 13.989-20.987 15.988-5.485.56-10.764 2.386-15.423 5.334-4.658 2.948-8.568 6.937-11.421 11.654z" fill="#bd94fa"/><path d="m524.229 245.16c2.819-3.637 11.464-10.162 22.147-11.291.17 0 .34 0 .51-.06-2.698-1.879-11.753-3.947-11.753-3.947 4.607 1.289 15.261-9.643 15.261-9.643-4.607 3.867-7.815 0-12.053-.8-7.855-1.529-9.744 4.907-9.744 4.907z" fill="#b78afa"/><path d="m523.81 213.244-22.807 155.556" stroke="#e08055" stroke-linecap="round" stroke-miterlimit="10" stroke-width="4"/><path d="m540.22 327.1c-.999 0-33.98-21.984-44.973 23.983 0 0-26.984-1.999-23.986 34.974 0 0-5.997-17.987-26.984-8.993l-45.973 27.979h141.916z" fill="#54a18a"/><path d="m540.22 327.1c-.999 0-33.98-21.984-44.973 23.983 0 0-26.984-1.999-23.986 34.974 0 0-5.997-17.987-26.984-8.993l-1.629.999-2.369 10.992c21.987-6.995 33.98 1.998 33.98 1.998 2.998-37.972 22.986-34.974 22.986-34.974 8.995-20.985 38.977-12.99 38.977-12.99l2.999-6.995.999-1.329z" fill="#5eb58b"/><path d="m345.286 383.049s-5.127 1.709-8.545 11.102l3.418 4.267 4.267-5.996-2.558 18.597h6.086l4.997-10.053 2.369 10.053h8.145l-3.658-20.305s9.394 1.708 13.662-5.127l-4.268-2.558s-8.544 2.558-13.671-2.558z" fill="#e6d7b5"/><path d="m356.519 381.351-.37-.3-1.839-.26-2.198.55v6.835l-6.067-5.317-.759.19c-1.518.682-2.856 1.709-3.908 2.998 1.459.68 3.628 2.368 3.048 6.425l-.789 6.636 16.86-3.668-.69-4.676c-.13-3.396-1.275-6.675-3.288-9.413z" fill="#243b6c"/><path d="m339.251 360.528-.008.005c-.977.503-1.36 1.703-.856 2.679l3.959 7.672c.504.976 1.703 1.359 2.679.856l.009-.005c.976-.503 1.359-1.703.856-2.679l-3.959-7.673c-.504-.976-1.703-1.359-2.68-.855z" fill="#f781aa"/><path d="m350.239 358.401-.009-.002c-1.085-.171-2.104.569-2.276 1.654l-1.349 8.527c-.172 1.085.569 2.104 1.654 2.275l.01.002c1.084.171 2.103-.569 2.275-1.654l1.349-8.527c.172-1.085-.569-2.103-1.654-2.275z" fill="#f781aa"/><path d="m347.444 368.73 2.159-6.645c.023-.056.065-.101.118-.13.053-.028.114-.037.173-.025s.112.043.15.09c.038.046.059.105.059.165l-.57 6.775z" fill="#f7aac5"/><path d="m343.187 371.028-2.738-7.374c-.018-.05-.017-.103.001-.152.019-.049.054-.089.1-.115.045-.025.098-.033.149-.023.051.011.097.039.13.08l4.817 6.365z" fill="#f7aac5"/><path d="m356.706 366.037-20.096 4.381c-2.329.507-3.807 2.805-3.299 5.132.507 2.327 2.807 3.801 5.137 3.293l20.095-4.381c2.33-.508 3.807-2.805 3.3-5.132s-2.807-3.801-5.137-3.293z" fill="#f781aa"/><path d="m357.972 371.888-20.095 4.38c-2.33.508-3.807 2.806-3.3 5.133s2.807 3.801 5.137 3.293l20.096-4.381c2.329-.508 3.807-2.806 3.299-5.132-.507-2.327-2.807-3.801-5.137-3.293z" fill="#f781aa"/><path d="m345.396 375.725c.168-.32.233-.685.184-1.043-.048-.358-.207-.692-.454-.956-.5-.669-1.189-.879-1.549-.459-.164.32-.226.684-.178 1.041s.205.691.448.957c.5.66 1.199.859 1.549.46z" fill="#1e1c2a"/><path d="m353.332 372.617c.05-.839-.29-1.569-.76-1.649s-.89.56-.95 1.389c-.06.83.29 1.579.76 1.649s.89-.55.95-1.389z" fill="#1e1c2a"/><path d="m347.954 375.725 2.589-.57s.349 4.727-2.589.57z" fill="#000"/><path d="m341.868 411.039h6.126l4.977-10.063 2.359 10.063h8.155l-3.188-16.968-16.391 2.728z" fill="#1c1b28"/><path d="m343.957 411.039 2.448-21.704s-4.887 5.706-5.706 7.334l-2.449-1.628s1.519-9.184 6.876-11.522l9.994-2.178s5.936 6.365 15.721 2.288c.879.436 1.699.983 2.438 1.629 0 0-3.258 5.706-13.862 4.896l1.09 20.885h-3.558l-4.058-10.333-6.376 10.293z" fill="#243b6c" opacity=".08"/><path d="m338.45 400.986c1.413 0 2.559-1.722 2.559-3.847s-1.146-3.847-2.559-3.847-2.558 1.722-2.558 3.847 1.145 3.847 2.558 3.847z" fill="#f781aa"/><path d="m371.76 386.467c1.413 0 2.559-1.723 2.559-3.847 0-2.125-1.146-3.848-2.559-3.848s-2.558 1.723-2.558 3.848c0 2.124 1.145 3.847 2.558 3.847z" fill="#f781aa"/><path d="m336.611 370.429c-.825.181-1.579.6-2.168 1.206-.59.605-.988 1.37-1.147 2.2-.158.83-.07 1.688.255 2.468.324.78.87 1.447 1.571 1.92-.585.949-.778 2.088-.54 3.178v.159c.789-1.771 2.026-3.307 3.588-4.456-1.799-2.399-.07-5.676.999-7.245z" fill="#f797b8"/><path d="m353.701 393.412 2.448-6.525 2.449 3.267z" fill="#243b6c" opacity=".08"/><path d="m341.798 386.986c.355 0 .696.142.947.393s.392.591.392.946v18.267h-2.679v-18.267c0-.355.142-.695.393-.946s.592-.393.947-.393z" fill="#9a533b"/><path d="m364.075 386.986c.355 0 .696.142.947.393s.392.591.392.946v18.267h-2.668v-18.267c0-.353.139-.692.388-.943s.587-.393.941-.396z" fill="#9a533b"/><path d="m363.625 392.333h-21.387v2.668h21.387z" fill="#9a533b"/><path d="m363.625 399.457h-21.387v2.668h21.387z" fill="#9a533b"/><path d="m338.45 400.986c1.413 0 2.559-1.722 2.559-3.847s-1.146-3.847-2.559-3.847-2.558 1.722-2.558 3.847 1.145 3.847 2.558 3.847z" fill="#f781aa"/><path d="m322.35 423.03s-8.995 44.967 15.99 22.983" stroke="#7756a6" stroke-miterlimit="10" stroke-width="2"/><path d="m505.241 415.036-39.976-9.993 2.998-6.995 52.968-23.982 25.046-67.411 3.587-2.388 15.341.849 34.98-14.989 10.993-34.974 1.999-11.991 14.991-10.992 2.998-16.988 6.996-11.991 66.96-14.989v222.487z" fill="#874a52"/><path d="m322.349 406.042-4.727 1.309c-.394.106-.762.292-1.08.548-.318.255-.579.574-.767.936s-.298.759-.325 1.166c-.026.407.033.815.173 1.198l6.686 17.827 7.996 7.994v8.993l14.991 4.997 3.997 12.99h355.789v-58.957z" fill="#964b55"/><path d="m388.31 413.037-1.998 19.986 13.991 18.986 9.994 11.991h128.924l-2.998-36.973-22.987-13.99h-67.91l-32.03-1.998z" fill="#964b55"/><path d="m497.245 464 1.999-19.985-19.988-16.988-6.996-14.989 24.985.999c1.54-1.998 42.405 25.512 41.976 22.983l-2.999-4.996 2.999 8.994-1 14.499-3.998 9.483z" fill="#9e525c"/><path d="m375.318 415.036 4.997 15.988s9.834 14.569 9.994 16.988l3.998 9.992 6.496 5.996h17.329l-9.724-8.993c-.664-.621-1.193-1.372-1.556-2.205-.363-.834-.551-1.733-.553-2.642v-.12l-7.995-2.998-9.994-16.987 1-16.988z" fill="#ab616b" opacity=".73"/><path d="m607.18 412.038-28.983 4.996-10.993 1.999-11.483-1.999-17.5 28.979 15.721 17.987h74.626l-4.398-29.978-4.997-9.993 6.996-1.998 2.998-5.996 7.995-6.995-18.988 1z" fill="#a1525c"/><path d="m506.24 412.038-15.99.999 8.994 18.986c1.629 3.248 12.543 5.716 10.994 8.994l11.993 14.989-3.998 7.994h5.687 53.278s-31.981-6.995-24.985-7.994c1.399-.2.999-14.989.999-14.989l1-9.993 5.996-1.998 6.996-8.994-37.358-5.416z" fill="#ab5964"/><path d="m543.888 419.033c-1.921 2.017-3.134 4.603-3.459 7.369-.324 2.766.258 5.563 1.66 7.97l2.129 3.647 5.996 9.993-1.179 5.925c-.232 1.169-.074 2.382.45 3.452.523 1.07 1.383 1.939 2.448 2.474l5.277 1.139 10.993 2.998h10.994l-15.991-5.996-7.995-3.997 1-6.995 3.997-4.996s-.709-8.843 1-9.993l2.998-1.998 9.994-10.992z" fill="#b36570"/><path d="m360.327 464-1.999-4.996-2.998-6.995 6.996-6.995.999-2.998-16.99 5.996-15.99-1.999 14.991 4.997 3.997 12.99z" fill="#70375a" opacity=".53"/><path d="m628.218 408.88 70.907-2.838-12.992 32.976-71.957-.999-2.998-16.988z" fill="#964a54"/><path d="m420.291 412.038s-24.985 26.98-28.982.999c0 0-51.969 58.957-40.976 1.999 0 0-80.952 70.948-30.982-1.999" stroke="#9069c9" stroke-miterlimit="10" stroke-width="2"/><path d="m644.858 166.228c.477-.294.892-.68 1.22-1.135s.563-.97.691-1.516.147-1.112.056-1.665c-.091-.554-.291-1.084-.588-1.56l-7.256 4.527c.602.957 1.558 1.637 2.66 1.89 1.101.253 2.259.058 3.217-.541z" fill="#c9547e"/><path d="m322.709 406.042 382.413-2.338v4.317s-59.964 1.999-74.955 1.999-50.97 9.992-65.961 9.992-46.972-5.995-59.964-5.995c-12.993 0-82.951-1-82.951-1l-32.98 1c-2.626.815-5.295 1.482-7.996 1.998-4.997.999-63.252-.999-63.252-.999l-2.089-5.536c-.06-.162-.086-.335-.076-.508s.056-.342.135-.496.189-.29.324-.399c.134-.11.29-.19.457-.236l6.156-1.699c.241-.066.49-.1.739-.1z" fill="#81c793"/><path d="m322.699 406.042 382.423-5.336v4.317s-59.964 1.999-74.955 1.999c-14.992 0-50.97 9.992-65.961 9.992s-46.972-5.995-59.965-5.995c-12.992 0-82.95-.999-82.95-.999l-32.981.999c-2.625.815-5.295 1.482-7.995 1.998-4.997 1-64.462-1.329-64.462-1.329l-.829-2.228c-.062-.162-.089-.336-.08-.509.01-.173.055-.343.135-.497.079-.155.19-.291.325-.4s.291-.188.459-.233l6.156-1.699c.222-.061.451-.088.68-.08z" fill="#a3faa8"/><path d="m315.706 436.02 1.586 2.914c.761 1.397.935 3.038.485 4.563s-1.488 2.809-2.885 3.57l-7.305-13.42c1.392-.758 3.028-.934 4.549-.489 1.522.445 2.805 1.474 3.57 2.862z" fill="#a075e0"/><path d="m302.252 459.483c7.87 0 14.251-6.379 14.251-14.249s-6.381-14.25-14.251-14.25c-7.871 0-14.252 6.38-14.252 14.25s6.381 14.249 14.252 14.249z" fill="#b78afa"/><path d="m297.414 431.844c-.45 2.997 1.719 6.655 5.557 8.883 4.587 2.668 9.794 2.268 11.633-.889.168-.291.302-.599.4-.92-.08-.159-.15-.329-.24-.499-1.631-2.987-4.276-5.292-7.458-6.497-3.183-1.206-6.691-1.234-9.892-.078z" fill="#c4a0fa"/><path d="m295.695 449.381c-1.839-3.388-4.897-5.276-6.826-4.227-.34.185-.629.453-.839.779.105 2.378.81 4.69 2.049 6.722 1.238 2.032 2.971 3.717 5.037 4.9.146-.038.289-.085.429-.14 1.929-1.059 1.999-4.647.15-8.034z" fill="#9069c9"/><path d="m306.359 458.884c.774-.243 1.526-.551 2.248-.92 1.808-2.199 3.016-4.829 3.504-7.633.488-2.805.241-5.688-.717-8.368-.959-2.681-2.596-5.067-4.752-6.926-2.155-1.86-4.756-3.129-7.549-3.683-.786.173-1.555.413-2.299.719 3.031.177 5.943 1.243 8.372 3.064 2.429 1.82 4.269 4.316 5.289 7.175s1.175 5.956.447 8.903c-.729 2.946-2.309 5.614-4.543 7.669z" fill="#a075e0" opacity=".46"/><path d="m361.756 455.176c7.871 0 14.252-6.379 14.252-14.249s-6.381-14.25-14.252-14.25-14.252 6.38-14.252 14.25 6.381 14.249 14.252 14.249z" fill="#b78afa"/><path d="m347.525 440.987c2.658 1.429 6.836.609 10.224-2.248 4.047-3.428 5.416-8.474 3.058-11.272-.224-.247-.468-.474-.73-.68-.18 0-.37 0-.55.06-3.36.535-6.417 2.255-8.619 4.848-2.202 2.594-3.402 5.89-3.383 9.292z" fill="#c4a0fa"/><path d="m363.465 448.481c-3.807.6-6.616 2.848-6.276 4.997.069.384.226.746.46 1.059 2.27.691 4.677.799 7 .315 2.323-.483 4.486-1.544 6.292-3.083.015-.15.015-.3 0-.45-.3-2.168-3.668-3.437-7.476-2.838z" fill="#9069c9"/><path d="m363.825 431.024c-3.702.018-7.291 1.279-10.191 3.58-2.899 2.302-4.942 5.51-5.8 9.111.149.761.356 1.509.62 2.238.304-3.014 1.486-5.873 3.4-8.222 1.914-2.35 4.475-4.085 7.366-4.993 2.891-.907 5.985-.947 8.898-.113s5.517 2.505 7.49 4.804c-.192-.746-.446-1.474-.76-2.178-3.021-2.729-6.951-4.236-11.023-4.227z" fill="#a075e0" opacity=".46"/><path d="m326.687 458.484c3.129 0 5.666-2.537 5.666-5.666s-2.537-5.666-5.666-5.666c-3.13 0-5.667 2.537-5.667 5.666s2.537 5.666 5.667 5.666z" fill="#b78afa"/><path d="m321.97 449.671c.429.6 1.022 1.065 1.707 1.339.686.275 1.435.347 2.16.209 2.099-.219 3.678-1.568 3.528-2.997-.019-.133-.049-.263-.09-.39l-.2-.1c-1.22-.579-2.608-.701-3.911-.346-1.304.356-2.437 1.166-3.194 2.285z" fill="#c4a0fa"/><path d="m638.162 203.191 66.96-14.989v4.217l-18.429 5.996c-1.64.529-3.019 1.661-3.857 3.167l-1.56 2.798c-.637 1.144-1.591 2.079-2.747 2.694-1.155.615-2.464.884-3.769.774l-5.996-.5c-1.054-.089-2.115.068-3.098.46l-8.505 3.397-5.057 2.249c-1.178.524-2.479.703-3.755.518-1.275-.186-2.472-.729-3.451-1.568-1.085-.93-2.435-1.496-3.859-1.616-1.425-.12-2.851.211-4.076.947l-5.787 3.467z" fill="#81c793"/><path d="m551.213 402.705-12.992-32.636s60.964-34.975 104.938-125.908c0 0 39.976 9.993 61.963 2.998v155.546z" fill="#d56b95"/><path d="m641.16 311.112s-27.983 19.985-37.977 19.985 0-18.986 0-18.986l-19.929 19.926c-8.065 8.578-16.67 16.632-25.764 24.112l18.709 4.926-6.996 28.979-5.907 12.651 2.059.05h15.831l1.998-17.647 13.992-15.988 5.947 33.585 21.047.34z" fill="#923963" opacity=".25"/><path d="m620.252 402.705s22.907-77.603 22.907-135.561c0 0 4.357 101.236 25.165 135.561z" fill="#59374b"/><path d="m570.202 442.686 1.349 2.638 3.648 6.685 8.995 1.998 3.688 9.993h117.24v-20.985z" fill="#633150" opacity=".53"/><path d="m587.702 444.224s25.095-24.192 46.082-15.198c0 0 12.993-17.987 29.982-7.995 0 0 3.998-10.991 16.99-4.996 0 0-.999-33.975 24.336-40.62v68.6z" fill="#54a18a"/><path d="m680.757 416.035c-12.993-5.995-16.99 4.996-16.99 4.996-16.99-9.992-29.982 7.995-29.982 7.995-20.988-8.994-46.113 15.198-46.113 15.198h7.885v-.309s28.623-8.884 43.614-4.887c0 0 11.993-23.982 25.985-10.992 0 0 2.998-17.986 18.989-5.995 0 0 6.995-31.977 20.987-30.978v-15.648c-25.375 6.645-24.375 40.62-24.375 40.62z" fill="#5eb58b"/><path d="m639.931 444.314 6.486 19.666h58.705v-20.965z" fill="#703443" opacity=".53"/><path d="m619.173 448.012 5.997 3.997-1.999 4.996 1.999 1.999 2.998 4.996h29.982l-2.998-3.997-4.078-1.999c-2.138-.529-2.918-8.993-2.918-8.993l-2.398-4.787-19.429 2.449z" fill="#8c4c55"/><path d="m623.171 447.012 2.998 4.997-1.089 2.188c-.281.567-.432 1.19-.442 1.822-.01.633.12 1.26.382 1.836l2.998 6.145h-3.138l-1.759-4.996-3.998-3.997s2.259-3.698 1.999-4.997l-3.997-2.998z" fill="#a65e67"/><path d="m571.551 445.324-.629-1.1-.72-1.538 134.92.329v2.948l-61.963.05-23.986 1.999z" fill="#81c793"/><path d="m570.922 444.224-.72-1.538 134.92-.67v2.948l-61.963-.949-21.987 1.998z" fill="#a3faa8"/><path d="m503.242 367.071h-6.996v31.977h6.996z" fill="#837c8a"/><path d="m483.334 395.051h43.824c1.081 0 2.118.429 2.883 1.194.765.764 1.194 1.801 1.194 2.883v2.708c0 .85-.338 1.666-.939 2.268-.602.601-1.418.939-2.269.939h-45.743c-.795 0-1.557-.316-2.12-.878-.562-.562-.878-1.325-.878-2.12v-2.897c-.005-1.08.418-2.118 1.177-2.886s1.791-1.204 2.871-1.211z" fill="#bab5bf"/><path d="m479.256 398.578h51.97v3.997c0 .649-.258 1.272-.718 1.731-.459.459-1.082.717-1.731.717h-47.072c-.65 0-1.272-.258-1.731-.717-.46-.459-.718-1.082-.718-1.731z" fill="#978ca2"/><path d="m479.256 398.578h10.994v6.465h-8.175c-.748 0-1.465-.297-1.993-.825-.529-.529-.826-1.245-.826-1.993z" fill="#877d91"/><path d="m481.575 353.251c.021-.941.287-1.86.77-2.667.484-.808 1.169-1.476 1.988-1.939 1.088-.516 2.057-1.251 2.848-2.159 1.599-1.938 4.338-4.337 5.347.19 0 0 2.918 12.411-5.836 12.411 0 0-4.388.729-5.117-5.836z" fill="#f3c46b"/><path d="m485.743 352.422c0 .766-.151 1.524-.445 2.231-.293.708-.723 1.351-1.265 1.892-.543.541-1.186.97-1.894 1.262s-1.467.442-2.233.44c-3.218 0-7.445-2.698-6.666-5.825 1.669-6.665 4.997-2.498 5.837-3.338 3.797-3.767 6.666.12 6.666 3.338z" fill="#e29391"/><path d="m466.264 355.08h33.98s-15.991 23.982-33.98 0z" fill="#e4e4e4"/><path d="m476.998 347.006c.07-.27 1.659 0 1.659 2.498" stroke="#c28988" stroke-linecap="round" stroke-miterlimit="10" stroke-width=".83"/><path d="m474.259 387.056s5.997-10.992 12.993-10.992c0 0-8.995-3.997-12.993 1z" fill="#5eb58b"/><path d="m503.242 375.065-6.996-1.998v-5.996h6.996z" fill="#736e78"/><path d="m473.15 355.08c.11 0 3.108 7.994 9.105 8.993 0 0 9.994.999 16.989-8.993z" fill="#d6d6d6"/><path d="m443.278 362.075h65.961c1.06 0 2.077.421 2.826 1.17.75.75 1.171 1.767 1.171 2.827s-.421 2.077-1.171 2.826c-.749.75-1.766 1.171-2.826 1.171h-65.961z" fill="#9b93a2"/><path d="m416.294 393.222 1.999 6.995-2.089 3.137c-.185.278-.291.601-.306.934-.016.333.059.664.217.957.158.294.393.539.68.709.287.171.615.26.948.258h15.881l-8.335-13.989z" fill="#4d47bf"/><path d="m455.399 383.929-7.518 3.054c-.737.299-1.091 1.138-.792 1.874l1.174 2.889c.299.736 1.138 1.091 1.875.791l7.518-3.054c.736-.299 1.091-1.138.792-1.874l-1.174-2.889c-.299-.736-1.139-1.09-1.875-.791z" fill="#4a4675"/><path d="m476.258 320.275s4.997-16.987 6.996-8.993 0 15.988-5.996 13.99z" fill="#716be8"/><path d="m442.278 350.253c4.857-.539 6.816.46 10.994-.999 4.427-1.539 9.864-7.325 12.992-8.993 4.767-2.528 12.992-2.998 12.992-12.281l-1.179-9.833c-.065-.432-.252-.837-.539-1.167s-.661-.572-1.08-.698-.865-.13-1.286-.012-.8.353-1.093.678c-7.785 8.154-13.781 11.152-23.775 13.15z" fill="#b84646"/><path d="m467.263 324.272c-4.096 4.089-9.313 6.871-14.991 7.995l-8.615 15.478.59 2.338c3.508-.149 5.457.39 8.995-.859 2.508-.869 5.356-3.118 7.915-5.196 1.079-2.798.08-6.795.08-6.795z" fill="#b84646"/><path d="m450.274 344.258c2.211-1.439 4.075-3.35 5.458-5.597 1.383-2.246 2.249-4.772 2.537-7.394 0 0 19.988-5.995 7.995-15.988 0 0-1.999-8.993-8.994-9.993l-14.992 4.997-4.997 9.992s2.999 8.994-2.998 13.99" fill="#716be8"/><path d="m464.265 324.272c.552 0 .999-.671.999-1.499 0-.827-.447-1.498-.999-1.498s-.999.671-.999 1.498c0 .828.447 1.499.999 1.499z" fill="#fffcca"/><path d="m436.332 321.624s-4.298-22.983 21.987-17.807c-.01-.04-7.996 17.877-21.987 17.807z" fill="#f0a23f"/><path d="m458.98 320.481c.55-.281.655-1.178.234-2.004-.422-.826-1.21-1.267-1.76-.987-.551.281-.656 1.179-.234 2.005.421.825 1.209 1.267 1.76.986z" fill="#000"/><path d="m460.268 322.274s5.556 1.998 9.774 0c0 0 .22 5.995-11.773 8.993 0 0-1 9.993-7.995 12.991l-3.998-5.996s3.998 0 3.998-3.997c0 0 4.997-1.998 4.997-4.996 0 0 4.997-1 4.997-6.995z" fill="#5d56e8"/><path d="m468.263 320.145c.239-.138.209-.637-.067-1.115s-.694-.754-.933-.616-.209.638.067 1.116.693.753.933.615z" fill="#5d56e8"/><path d="m405.3 384.228s-10.993 11.992-20.987 5.996c-6.247-3.747-7.416-.859-7.416 1.839.02 1.941.653 3.826 1.809 5.386 3.998 5.506 16.92 17.987 43.584-2.229l1.999 3.997-1.309 4.617c-.081.278-.096.571-.044.856.053.285.171.554.346.785s.401.418.661.546.546.194.836.191h27.113c.122.001.242-.034.344-.101.101-.067.181-.162.229-.274s.062-.236.04-.356c-.022-.119-.078-.23-.163-.318-1.679-1.769-5.357-5.206-8.994-5.946 0 0 3.997-3.997-1-16.987z" fill="#716be8"/><path d="m452.312 405.163c-1.679-1.769-5.356-5.206-8.994-5.945 0 0 3.997-3.998-1-16.988l-22.566 1.219c-.17.15-.33.3-.48.46-4.677 4.606-9.554 9.173-15.431 12.131-.3.16-.619.3-.929.439.159.207.272.446.33.7.319 1.629-1.849 3.407-4.828 3.997-.867.224-1.77.274-2.657.147s-1.74-.428-2.51-.886c.006.033.006.066 0 .1-.219.799-1.699 1.089-3.288.639s-2.708-1.459-2.488-2.248c.033-.11.087-.212.16-.3-.964-.194-1.91-.468-2.829-.819-2.348-.91-4.757-2.339-7.165-2.349.296.707.671 1.377 1.119 1.999 3.998 5.506 16.92 17.987 43.584-2.229l1.999 3.997-1.309 4.617c-.081.278-.096.571-.044.856.053.285.171.554.346.785s.401.418.661.546.546.194.836.191h27.064c.121-.003.239-.042.338-.111.1-.07.176-.167.221-.28s.055-.236.031-.355c-.025-.119-.084-.227-.171-.313z" fill="#5d56e8"/><path d="m392.398 399.048h-.05s.05.01.05 0z" fill="#21419c"/><path d="m405.98 387.226 10.833-1.509c2.255-.312 4.55.131 6.527 1.259l2.738 1.559c.788.448 1.701.624 2.598.5l12.603-1.809v-54.959l-38.557 48.194c-.489.613-.795 1.352-.883 2.132-.088.779.046 1.567.386 2.274s.873 1.303 1.538 1.72c.664.418 1.432.639 2.217.639z" fill="#b84646"/><path d="m441.279 374.835-3.998-29.578-6.896.63-21.467 26.84c4.148.49 14.331-.83 19.378-9.493 0 0 1.999 14.989 8.995 15.988l3.998 3.398z" fill="#ab4141"/><path d="m400.303 341.26s-11.993 1.998-8.995 12.99c2.999 10.992 19.988 12.991 26.984 10.992 6.996-1.998 8.995-18.986 8.995-18.986l7.995-10.992-4.997-5.995z" fill="#59374b"/><path d="m430.825 337.423c-.435-.619-.989-1.145-1.629-1.549-1.336-.872-2.877-1.381-4.469-1.478-1.593-.096-3.184.224-4.615.928-2.086 1.163-3.814 2.873-4.998 4.947-1.249 1.998-2.188 4.207-3.328 6.285-1.169 2.156-2.548 4.191-4.117 6.076-1.779 2.148-3.918 4.177-6.596 4.996-1.631.423-3.329.518-4.997.28-1.19-.129-2.364-.37-3.508-.72 4.927 8.434 19.428 9.893 25.755 8.084 4.887-1.389 8.495-11.991 10.993-15.988.27-1.259 1.759 1.369 1.999.11.647-3.023.819-6.128.51-9.203-.121-.986-.463-1.932-1-2.768z" fill="#482e41"/><path d="m411.437 347.196s4.087 7.174 15.99 5.615c-5.515-1.296-10.876-3.179-15.99-5.615z" fill="#33212e"/><path d="m408.918 343.139c3.006.445 6.068-.289 8.545-2.049 1.359-.889 2.559-1.998 3.938-2.818 1.381-.938 3.028-1.408 4.697-1.339 1.839.16 3.588 1.259 5.387.909.688-.175 1.327-.509 1.864-.974.538-.464.96-1.048 1.234-1.704.431-.868.677-1.817.721-2.785.045-.969-.112-1.936-.461-2.84-.74-1.809-3.498-1.669-5.527-2.269-1.279-.37-.999-.999-2.998-1.998-1.789-.89-3.998 0-5.637 1.449-2.818 2.488-5.686 5.066-9.444 5.825-1.749.36-3.618.08-5.307.62-1.999.639-3.358 1.599-3.598 3.467-.1.89 0 2.848 3.148 5.057 1.036.711 2.206 1.205 3.438 1.449z" fill="#79485d"/><path d="m441.143 362.136c6.323-.558 10.858-7.703 10.13-15.96-.728-8.258-6.445-14.499-12.768-13.942-6.323.558-10.858 7.703-10.13 15.961.729 8.257 6.445 14.499 12.768 13.941z" fill="#482e41"/><path d="m451.49 393.883c1.954-1.621 1.396-5.517-1.246-8.703-2.643-3.186-6.37-4.455-8.324-2.835-1.954 1.621-1.396 5.517 1.246 8.703 2.643 3.186 6.369 4.455 8.324 2.835z" fill="#716be8"/><path d="m452.122 380.611c-1.179-2.938-3.847-13.85-3.847-18.366 0-5.257.07-14.34-.39-18.517-.153-1.61-.772-3.141-1.782-4.405s-2.367-2.206-3.905-2.71c-1.111-.326-2.277-.423-3.427-.283s-2.259.514-3.259 1.098c-1.001.584-1.871 1.366-2.558 2.298-.688.932-1.177 1.995-1.439 3.123-.339 1.414-.297 2.893.12 4.287 0 0 2.648 10.112.649 24.102-1.719 12.051-3.438 18.906 3.138 19.985 2.102.292 4.241-.138 6.067-1.219l9.204-5.286c.696-.395 1.225-1.029 1.488-1.784.263-.756.242-1.581-.059-2.323z" fill="#cf5757"/><path d="m452.312 405.163c-1.3-1.379-2.733-2.628-4.277-3.727-.799.26-1.495.765-1.99 1.443s-.764 1.495-.769 2.334c.006.338.053.673.14.999h6.476c.12-.005.235-.044.332-.113.098-.069.173-.165.218-.276.044-.11.055-.232.032-.349s-.079-.225-.162-.311z" fill="#fff"/><path d="m398.583 399.164c1.6-.429 2.781-1.208 2.638-1.741s-1.555-.618-3.155-.19c-1.599.428-2.78 1.208-2.638 1.741.143.533 1.556.618 3.155.19z" fill="#5d56e8"/><path d="m399.772 395.02c.875-.234 1.52-.662 1.441-.955-.078-.293-.851-.341-1.725-.107-.875.234-1.52.661-1.441.955.078.293.851.341 1.725.107z" fill="#5d56e8"/><path d="m449.771 331.133c.956-.551 1.508-1.386 1.232-1.864s-1.275-.418-2.231.134-1.507 1.386-1.231 1.864 1.274.418 2.23-.134z" fill="#5d56e8"/><path d="m448.577 328.047c.564-.326.889-.819.726-1.101s-.752-.247-1.316.079-.89.819-.727 1.101.753.247 1.317-.079z" fill="#5d56e8"/><path d="m454.139 386.006.473 1.21c.071.18.274.268.453.198l1.21-.473c.18-.071.269-.274.199-.453l-.474-1.21c-.07-.18-.273-.269-.453-.198l-1.21.473c-.18.07-.269.273-.198.453z" fill="#3d3a61"/><path d="m411.296 334.265c.679.902 1.616 1.576 2.687 1.933s2.226.38 3.31.066c0 0-4.997 4.996-5.997-1.999z" fill="#59374b"/><path d="m406.3 340.261c-1.284.388-2.476 1.03-3.507 1.888-1.03.859-1.877 1.916-2.49 3.108l1 .999s2.998-3.997 5.996-4.996z" fill="#33212e"/><path d="m398.304 337.263v.999c.958.563 2.084.772 3.18.589s2.093-.745 2.817-1.588l-1-.999c-.666.599-1.482 1.008-2.361 1.184-.88.176-1.79.112-2.636-.185z" fill="#33212e"/><path d="m435.282 364.243s2.519 6.835 6.257 4.916c0 0-4.258 9.074-6.257-4.916z" fill="#b54545"/><path d="m436.282 321.285 7.885-1.579c.52-.27.999-.55 1.549-.86-4.258-3.477-4.787-9.313-4.687-12.76-5.907 4.686-5.017 13.38-4.747 15.199z" fill="#ee8d3a"/><path d="m435.462 322.763s18.18 0 22.847-18.936" stroke="#f3bd55" stroke-linecap="round" stroke-miterlimit="10" stroke-width="4.54"/><path d="m607.251 379.722c-.044-.073-.06-.159-.046-.243.014-.083.058-.159.122-.214.065-.055.146-.085.231-.086.085 0 .167.029.232.083l3.998 3.617c.22-.269.44-.529.649-.809 1.251-1.666 1.801-3.755 1.534-5.821s-1.33-3.947-2.963-5.241l-13.822-10.912-18.988 7.994 1.679 17.627c.102 1.034.524 2.009 1.206 2.792.682.782 1.592 1.333 2.601 1.575 1.08.25 2.379.5 3.818.7l-1.229-6.596c-.006-.063.009-.127.044-.18.035-.054.087-.094.147-.114.061-.019.127-.018.186.005.06.022.11.065.143.12l3.358 7.044c6.236.43 14.201-.559 20.188-6.565z" fill="#d8d8dd"/><path d="m610.149 294.884c4.547-10.093 7.645-21.085 7.055-32.137-.159-3.097-.549-6.245.12-9.283.33-1.509 1.49-3.277 2.999-2.848.629.246 1.145.716 1.449 1.319 1.209 2.195 1.925 4.626 2.099 7.125.634 5.08.634 10.219 0 15.299.252-3.273.958-6.495 2.098-9.573.284-1.109.825-2.136 1.579-2.998.391-.424.899-.721 1.46-.855.561-.133 1.149-.097 1.688.106.473.315.876.725 1.184 1.203.307.478.514 1.014.605 1.575 1.215 4.466 1.479 9.138.775 13.714-.704 4.575-2.36 8.951-4.862 12.846 1.519-1.998 2.908-4.107 4.427-6.105.69-.9 1.619-1.909 2.739-1.699 1.119.21 1.659 1.579 1.739 2.738.219 3.228-1.5 5.996-3.069 8.833-4.997 8.994-9.994 11.992-17.989 17.987-7.705 5.776-23.396 15.049-32.98 15.989 1.709-3.198 3.508-6.496 5.217-9.693 0 0 .289-.21.789-.56 3.188-2.328 15.701-11.501 20.878-22.983z" fill="#fff"/><path d="m622.641 279.325c-.076-.514-.287-.999-.612-1.404-.325-.406-.752-.718-1.237-.904-.471-.128-.964-.15-1.444-.065s-.936.274-1.334.555c-.771.552-1.446 1.227-1.999 1.998-.27.33-.53.7-.8 1.059-1.288 4.91-2.993 9.701-5.097 14.32-1.081 2.343-2.394 4.572-3.917 6.655 2.709-1.169 5.208-2.776 7.395-4.756 4.223-3.922 7.249-8.96 8.725-14.53.323-.94.432-1.94.32-2.928z" fill="#cacaca"/><path d="m573.131 331.537c-6.996 12.781-19.189 21.984-32.231 28.469-2.735 1.481-5.671 2.555-8.715 3.188-3.07.625-6.263.125-8.995-1.409-1.057-.61-1.92-1.508-2.488-2.588-.275-.543-.412-1.145-.4-1.753s.174-1.203.47-1.735c.722-.99 1.794-1.669 2.998-1.898 1.189-.3 2.069-.28 3.268-.55l.41-.1c-3.083.031-6.141-.553-8.995-1.719-2.865-1.179-5.304-3.2-6.996-5.795-.996-1.419-1.431-3.156-1.219-4.877.137-.863.576-1.65 1.238-2.221s1.506-.888 2.38-.896c1.829.11 3.058 1.808 4.407 3.047 1.321 1.168 2.911 1.988 4.628 2.389-1.874-.822-3.55-2.034-4.917-3.556s-2.392-3.318-3.009-5.268c-.579-1.859-.579-4.247 1.05-5.306.536-.297 1.14-.454 1.754-.454.613 0 1.217.157 1.754.454 1.057.621 1.997 1.422 2.778 2.368 3.718 3.997 7.555 8.434 12.822 9.993 4.997 1.479 10.374.12 15.141-1.949 8.075-3.527 16.52-8.673 20.988-16.288.679 1.809 0 2.998.999 4.677.703.915 1.148 2.002 1.289 3.148.022.132-.007.267-.079.379-.09.13-.23.33-.33.25z" fill="#fff"/><path d="m573.131 331.537c.099.08.239-.12.319-.23.073-.112.102-.247.08-.379-.141-1.146-.586-2.233-1.289-3.148-.899-1.469-.48-2.618-.869-4.137l-.55.12c-1.785 2.781-4.001 5.26-6.566 7.344 0 8.994-5.077 13.99-9.525 20.625 7.553-5.286 13.838-12.184 18.4-20.195z" fill="#e4e4e4"/><path d="m565.045 283.183c5.754 5.776 9.914 12.943 12.073 20.805 2.16 7.861 2.246 16.147.25 24.052" stroke="#fff" stroke-miterlimit="10" stroke-width="11.24"/><path d="m571.102 349.044s-9.695-15.548-.19-26.78l2.598-.86s1.589 6.046 2.449 6.046l2.238-7.345 10.994-2.258s0 7.255 6.996 6.256c0 0 2.998 4.996-3.998 26.98z" fill="#484482"/><path d="m575.979 327.29v.16l-1.759-6.345-4.997.999c-9.504 11.232 1.899 26.98 1.899 26.98h.29l5.296-7.664z" fill="#413d75"/><path d="m576.688 341.41 14.502 9.673-20.088-2.039z" fill="#3a385b"/><path d="m549.015 341.03c.3-.48.59-.999.85-1.479-4.668 1.999-9.915 3.228-14.762 1.789l-.309-.1c-1.207.061-2.416.038-3.618-.07-.728-.151-1.484-.092-2.179.17-.384.228-.692.564-.887.965-.196.401-.269.851-.212 1.293.138.887.567 1.702 1.219 2.319 1.654 1.482 3.777 2.334 5.996 2.408 1.998.185 4.012-.047 5.915-.681 1.903-.635 3.653-1.659 5.139-3.007 1.097-1.078 2.053-2.29 2.848-3.607z" fill="#cacaca"/><path d="m571.092 281.354-2.259.829-5.596 2.998-1.999 2.168c2.81 2.76 5.171 5.943 6.996 9.434.519-4.997 3.647-9.484 5.686-11.912-1.019-1.419-1.999-2.598-2.828-3.517z" fill="#e4e4e4"/><path d="m596.187 324.103c-6.996.999-6.996-6.256-6.996-6.256v7.255c-.23 5.586 2.998 8.993 6.846 11.072 1.689-9.503.15-12.071.15-12.071z" fill="#3a385b"/><path d="m567.954 254.583c.449 2.659-.57 12.331-.57 12.331s-4.118-8.803-4.567-11.471c-.45-2.668.34-4.997 1.759-5.256 1.419-.26 2.928 1.728 3.378 4.396z" fill="#cacaca"/><path d="m571.973 285.966c4.069-6.652 2.862-14.801-2.698-18.202-5.559-3.4-13.366-.765-17.436 5.887-4.069 6.652-2.862 14.801 2.698 18.202 5.559 3.4 13.366.765 17.436-5.887z" fill="#fff"/><path d="m580.816 257.152c-2.309 2.738-14.421 8.743-14.421 8.743s3.897-12.94 6.206-15.668c2.308-2.728 5.996-3.408 8.285-1.489 2.289 1.918 2.239 5.686-.07 8.414z" fill="#fff"/><path d="m579.626 266.325c-2.698.649-12.882-.7-12.882-.7s8.475-5.805 11.173-6.445c2.699-.639 5.257.43 5.727 2.408.47 1.979-1.329 4.097-4.018 4.737z" fill="#fff"/><path d="m552.902 282.963s9.435 10.992 8.275-2.618z" fill="#333"/><path d="m561.178 280.345c6.576-2.828 10.224-8.994 8.155-13.85-.48-1.084-1.214-2.037-2.139-2.778-5.177-1.289-11.273 1.479-14.691 7.115-1.887 3.02-2.684 6.596-2.259 10.132 3.591 1.189 7.5.967 10.934-.619z" fill="#5ae6dc"/><path d="m561.177 280.345c-1.488-1.281-3.215-2.253-5.081-2.862-1.867-.609-3.835-.842-5.792-.686 0 0-5.407 7.205-16.48 13.29-1.239.672-2.201 1.758-2.719 3.068l-.08.2z" fill="#f5cd1b"/><path d="m561.178 284.202c-.583-.133-1.182-.183-1.779-.15-1.389.023-2.713.59-3.688 1.579 2.169 1.688 4.907 2.838 5.467-1.429z" fill="#ff7baa"/><path d="m564.877 275.287c.63-1.228.444-2.58-.415-3.021-.86-.441-2.067.197-2.697 1.424-.63 1.228-.444 2.58.416 3.021.859.441 2.066-.197 2.696-1.424z" fill="#000"/><path d="m584.194 330.098c1.104 0 1.999-.895 1.999-1.998 0-1.104-.895-1.999-1.999-1.999s-1.999.895-1.999 1.999c0 1.103.895 1.998 1.999 1.998z" fill="#737093"/><path d="m584.194 350.083s4.997-11.991 11.383-11.901c.43 0-3.388 13.9-3.388 13.9l-18.489-.5z" fill="#3a385b" opacity=".32"/><path d="m554.462 406.332h15.99c.453 0 .888-.18 1.209-.5.32-.321.5-.755.5-1.208v-24.562l-5.307-2.239-.599 16.168c-.049 1.263-.495 2.479-1.276 3.473-.781.995-1.856 1.717-3.072 2.063-3.214.757-6.138 2.434-8.415 4.827-.148.179-.241.397-.268.628-.028.231.012.465.115.674.102.208.262.383.461.503.2.12.429.18.662.173z" fill="#3a3445"/><path d="m564.466 376.364-1.25 1.999c-.175.303-.272.645-.281.995s.07.697.23 1.009c.161.311.397.577.687.774.29.196.625.316.973.349l9.385 1c.317.027.636-.022.931-.143.294-.121.555-.311.761-.553.207-.243.352-.531.424-.841.073-.31.07-.633-.007-.941l-.12-1.909z" fill="#9395a6"/><path d="m595.967 382.72 4.897 12.86c.155.405.225.838.204 1.271s-.132.857-.325 1.245c-.194.389-.466.732-.8 1.009-.333.278-.721.483-1.138.602-2.458.69-5.666 1.999-7.495 4.467-.149.199-.239.436-.26.684-.022.248.027.497.139.719s.283.408.495.538.456.198.705.197h15.491c.31-.002.616-.079.89-.225s.509-.356.684-.612c.174-.257.285-.552.32-.86.036-.309-.004-.621-.115-.911l-8.495-21.854z" fill="#3a3445"/><path d="m592.509 381.011v1.399c.001.343.081.681.233.989s.373.577.645.786.588.354.924.422c.337.068.685.058 1.017-.029l6.386-1.709c.379-.102.726-.302 1.003-.58.278-.278.478-.625.579-1.005.101-.379.101-.779-.001-1.159-.103-.379-.303-.725-.582-1.003l-.709-.709z" fill="#b6b7c6"/><path d="m571.202 351.083c-.25.739-20.069 25.471-1.37 28.589 14.362 2.388 18.889-18.916 12.133-27.83z" fill="#9395a6"/><path d="m577.818 351.642s-2.589 31.977 18.988 29.369c0 0 14.682-.87 2.589-17.278l-3.428-10.202z" fill="#b6b7c6"/><path d="m603.683 355.35c-1.08-2.698-5.697-4.097-7.776-4.697l-.729-.32c-.871-.387-1.807-.604-2.759-.639l-21.467-.79c-.346-.012-.685.102-.953.321-.268.218-.448.527-.506.868l-.22 1.25c-.034.199-.026.404.025.601.051.196.142.379.269.538.126.158.284.288.465.381.18.093.378.147.58.158l22.037 1.199c-.301 1.787-.093 3.622.6 5.297 1.599 3.997 5.227 6.285 8.105 5.136s3.918-5.316 2.329-9.303z" fill="#ed9836"/><path d="m603.683 355.35c-1.08-2.698-5.697-4.097-7.776-4.697l-.06-.06c-.449 1.654-.344 3.409.3 4.996 1.379 3.528 4.787 5.506 7.616 4.397.227-.082.445-.189.649-.32.075-1.474-.174-2.948-.729-4.316z" fill="#e0851b"/><path d="m587.692 369.569s7.995 7.994 12.992.999c0 0-.999 12.991-12.992-.999z" fill="#aaacbe"/><path d="m594.358 368.62c-.47-.879 3.638 2.598 5.916.929 0 0-3.578 3.488-5.916-.929z" fill="#aaacbe"/><path d="m541.417 288.062c.507-.219.829-.601.72-.855s-.609-.282-1.116-.063c-.507.218-.829.601-.72.854.11.254.609.282 1.116.064z" fill="#bd9e15"/><path d="m-46.6201 97.2695h64.9614s4.997-30.9773-22.98634-25.981c0 0-4.99704-33.9751-21.98696-23.9824 0 0-2.9982-39.97074-19.9881-46.3061z" fill="#7d9df5"/><path d="m-47 125.658s34.3596 6.585 55.34713 60.546c0 0 26.98397-8.994 38.97687 32.975 0 0 30.9816-21.983 38.9768 23.983l13.9922 36.973h-146.9132z" fill="#7d9df5"/><path d="m164.255 48.3046s-23.986-32.9758-50.201 1.5189h-3.577c-7.614.0221-15.0737 2.1452-21.5576 6.1355l-2.6484 1.5988h133.92s-36.158-29.4984-55.936-9.2532z" fill="#b1c5fd"/><path d="m261.547.339996s-48.322 32.975804-78.304 131.903004c0 0 70.958-117.9133 182.892-131.903004z" fill="url(#c)" opacity=".25"/><path d="m117.282.339996s-66.9598 21.983904-106.9361 116.914004l30.9816-6.495s102.9385-104.4234 194.8845-110.419004z" fill="url(#d)" opacity=".25"/><path d="m251.233 310.113h-63.962s14.991-9.993 23.985-3.997c0 0 20.988-9.993 39.977 3.997z" fill="#b1c5fd"/><path d="m35.1912 154.247 1.1294 2.558c.0065.008.0148.015.0244.02.0095.004.0199.007.0305.007s.021-.003.0306-.007c.0095-.005.0178-.012.0244-.02l1.1293-2.558 2.5485-1.129c.0107-.005.0198-.013.0262-.022.0064-.01.0098-.021.0098-.033s-.0034-.023-.0098-.033-.0155-.017-.0262-.022l-2.5185-1.119-1.1293-2.548c-.0047-.011-.0124-.02-.0222-.027-.0097-.006-.0211-.009-.0328-.009s-.0231.003-.0329.009c-.0097.007-.0174.016-.0221.027l-1.1293 2.548-2.5485 1.129c-.0107.005-.0198.012-.0262.022s-.0098.021-.0098.033c0 .011.0034.023.0098.033.0064.009.0155.017.0262.022l2.5485 1.129z" fill="#fff" opacity=".7"/><path d="m105.809 321.424-.609 1.579 1.579-.599 1.579.599-.6-1.579.6-1.578-1.579.609-1.579-.609z" fill="#fff" opacity=".33"/><path d="m66.4627 373.067s26.2944 12.051 27.3938 42.728c0 0 15.3405-6.575 18.6285 10.992 0 0 31.772-18.626 37.248 29.579 0 0 11.414-4.387 17.21 7.664h-213.5631v-90.933z" fill="#fff" opacity=".58"/><path d="m71.3097 437.02s32.9803-27.98 37.9773-2.998c0 0 18.409-9.193 37.078 6.655-9.874-27.979-33.88-13.92-33.88-13.92-3.288-17.537-18.6287-10.992-18.6287-10.992-.9994-27.719-22.5466-40.22-26.7042-42.379l-43.814 13.67c.9994 1 47.9716 21.984 47.9716 49.964z" fill="#fff" opacity=".28"/><path d="m-1.64693 198.195c11.32032-5.855 24.49493-7.004 36.65823-3.198-12.3926-13.54-26.66416-8.793-26.66416-8.793-20.98754-53.961-55.34714-60.546-55.34714-60.546v5.816c11.0734 10.092 43.69406 41.849 45.35307 66.721z" fill="#fff" opacity=".13"/><path d="m52.321 391.053 6.3063 14.17c.2159.487.53.924.9227 1.284.3927.359.8554.634 1.3593.807.5038.172 1.0379.239 1.5687.196.5308-.044 1.047-.196 1.5161-.448l8.7548-4.707c.3746-.201.7798-.34 1.1993-.41l2.5885-.429c.8053-.138 1.5467-.526 2.119-1.109s.9464-1.331 1.0691-2.139l2.2486-14.989c.1061-.664.3829-1.29.8034-1.815.4204-.526.9701-.933 1.5952-1.183l2.9283-1.179 2.6084-7.794c.1217-.371.3289-.708.605-.984.276-.276.6131-.483.9841-.605l4.7971-1.609 7.9951-10.992h-34.8991z" fill="#613543"/><path d="m76.8665 300.14h-18.3291v54.02h17.3896v-52.091h.9994c.2118-.058.3987-.183.5319-.358.1333-.174.2055-.387.2055-.607 0-.219-.0722-.432-.2055-.607-.1332-.174-.3201-.299-.5319-.357z" fill="#b78afa"/><path d="m79.7547 335.834h7.7254v8.684h1.9289v1.928h2.8883v6.745h-20.258l3.5579-17.357z" fill="#857afa"/><path d="m52.7507 290.497v-17.367h-23.1562l4.8271 80.061h16.4003v1.929h8.6748v-64.623z" fill="#857afa"/><path d="m43.0866 326.87c-1.1493 6.256-1.739 18.607 4.997 26.321l20.5278 3.058c8.465-2.508 15.5908-10.722 17.5596-21.464 1.2623-6.423.3333-13.084-2.6384-18.916-.2425-.441-.6251-.788-1.0872-.987-.462-.198-.9772-.237-1.4638-.11-.4865.128-.9166.414-1.2222.813-.3055.4-.4689.89-.4643 1.393v.07c-.0999 4.476-2.5685 5.995-4.8371 5.406-2.2687-.59-4.1776-3.738-4.0776-8.224.0221-1.757.3888-3.491 1.0794-5.107.1907-.402.2895-.841.2891-1.286-.0004-.446-.0998-.885-.2912-1.287s-.4699-.756-.8153-1.037-.749-.481-1.1815-.586h-.0699c-11.893-2.149-23.676 7.634-26.3044 21.943zm28.713.21c.2399-.475.6154-.867 1.0788-1.129.4635-.261.9941-.379 1.5247-.339.5305.041 1.0372.237 1.4558.566.4185.328.7302.774.8955 1.279.1654.506.1769 1.049.0331 1.562-.1437.512-.4362.97-.8405 1.316s-.9022.564-1.4305.627c-.5284.063-1.0635-.033-1.5376-.274-.3158-.158-.5971-.377-.8277-.644-.2305-.268-.4057-.578-.5154-.914-.1097-.335-.1517-.689-.1236-1.041s.1258-.695.2874-1.009z" fill="#e39e29"/><path d="m41.6073 326.87c-1.1493 6.256-1.7389 18.607 4.9971 26.321l20.5278 3.058c8.455-2.508 15.5807-10.722 17.5596-21.464 1.2537-6.425.3214-13.083-2.6485-18.916-.2424-.441-.625-.788-1.0871-.987-.4621-.198-.9773-.237-1.4638-.11-.4866.128-.9167.414-1.2222.813-.3055.4-.4689.89-.4644 1.393v.07c-.0999 4.476-2.5684 5.995-4.8371 5.406-2.2686-.59-4.1775-3.738-4.0776-8.224.0222-1.757.3889-3.491 1.0794-5.107.1907-.402.2895-.841.2892-1.286-.0004-.446-.0999-.885-.2913-1.287s-.4699-.756-.8153-1.037c-.3453-.281-.7489-.481-1.1814-.586h-.04c-11.9129-2.149-23.6959 7.634-26.3244 21.943zm28.713.21c.2399-.475.6154-.867 1.0789-1.129.4635-.261.9941-.379 1.5246-.339.5306.041 1.0372.237 1.4558.566.4186.328.7303.774.8956 1.279.1653.506.1768 1.049.0331 1.562-.1438.512-.4363.97-.8406 1.316s-.9021.564-1.4305.627c-.5283.063-1.0635-.033-1.5376-.274-.3158-.158-.5971-.377-.8276-.644-.2306-.268-.4058-.578-.5154-.914-.1097-.335-.1517-.689-.1236-1.041s.1257-.695.2873-1.009z" fill="#f6cf56"/><path d="m55.7889 315.259c1.7689-.15 4.0576.1 3.4679 2.788-.2969 1.033-.9571 1.923-1.8589 2.508-.8461.602-1.549 1.384-2.0587 2.288-1.0594 1.779-2.9183 2.678-4.1576 1.999-1.2392-.68-1.3792-2.648-.3198-4.427.2707-.46.6074-.877.9994-1.239.5265-.515.9149-1.154 1.1294-1.859.2205-.574.6014-1.074 1.0974-1.439.4961-.365 1.0864-.58 1.7009-.619z" fill="#67e694" opacity=".55"/><path d="m41.3775 335.054c.8295 3.088 4.1176 2.569 7.1758 1.739 3.0581-.829 4.7172-1.619 3.8877-4.716-.1969-.727-.5349-1.407-.9948-2.003s-1.0326-1.095-1.6855-1.469c-1.3185-.756-2.8835-.958-4.3506-.56-1.4671.397-2.7161 1.361-3.4724 2.679-.7563 1.319-.9578 2.884-.5602 4.35z" fill="#bbb0d9"/><path d="m72.1991 344.747c1.5991-.09 2.1887-1.309 2.8983-2.258.3698-.49 0 0 1.2992-1.099 2.6784-2.248-2.1187-2.998-4.5273-2.878s-4.2874 1.629-4.1975 3.348c.0899 1.718 2.1187 3.017 4.5273 2.887z" fill="#ff82b3" opacity=".55"/><path d="m59.4168 337.363c-1.2497-.15-2.5076.203-3.4971.981s-1.6297 1.916-1.7798 3.166c-.2598 2.568 1.4392 7.185 4.0976 7.454 2.6584.27 5.2569-3.907 5.5167-6.465.2299-2.318-1.9388-.29-2.6684-1.209s-.2998-3.787-1.669-3.927z" fill="#ff8280" opacity=".55"/><path d="m13.4542 229.442c0 2.939-1.1677 5.758-3.2463 7.836-2.07851 2.078-4.89762 3.246-7.83713 3.246-2.939502 0-5.75862-1.168-7.83716-3.246s-3.24626-4.897-3.24626-7.836c0-5.306 8.335054-12.241 10.54374-13.99.15361-.121.34377-.188.53968-.188s.38608.067.53968.188c2.20869 1.749 10.54375 8.684 10.54375 13.99z" fill="#faea94"/><path d="m11.2855 235.997c-13.29213-1.659-16.12045-10.602-16.69011-13.56-1.84891 2.288-3.30804 4.787-3.30804 6.995.00267 2.331.74089 4.601 2.1095 6.488 1.36861 1.886 3.29779 3.293 5.51274 4.02 2.21495.726 4.60268.735 6.82303.025 2.22036-.709 4.16009-2.102 5.54288-3.978z" fill="#f2c377"/><path d="m1.84105 215.452c-2.229292 1.756-4.31163 3.691-6.2263 5.786l2.3486-.47c.13789-.033.28132-.037.42078-.011.13945.026.27172.082.38801.163.11629.082.21394.187.286439.309.0725.122.118197.258.134046.399l.309813 1.858c.005655.224.086455.44.229417.612.142962.173.3397895.293.558865.34.219076.047.447681.019.649098-.079.201412-.098.363952-.261.461492-.463l1.41916-2.129c.08908-.146.21451-.268.36419-.352.14967-.084.31854-.129.4903-.129.17177 0 .34064.045.49031.129.14968.084.2751.206.36419.352.11437.208.2988.368.52036.452.22156.085.46583.087.6892.008s.4113-.235.53024-.44.16115-.446.11909-.679v-.2c-.00495-.155.02632-.309.09134-.45s.162-.265.28324-.362.26341-.164.41524-.197c.15182-.032.30913-.029.45944.01l.27984.06c-1.57083-1.601-3.23973-3.103-4.99704-4.497-.15054-.126-.33976-.197-.53615-.2-.19639-.004-.3881.06-.54321.18z" fill="#ff6135" opacity=".49"/><path d="m11.2654 242.462h-16.64016l1.74897-4.556h13.14219z" fill="#fff0db"/><path d="m5.55879 242.462h-11.84297l1.81892-4.556h8.20513z" fill="#feccaf"/><path d="m11.6051 240.524h-18.46905c-3.19815 0-5.72665 3.287-5.48675 6.715l3.68782 56.958c.10709 1.782.89117 3.455 2.19172 4.677s3.0192 1.901 4.80413 1.898h6.93588c1.76239.006 3.46199-.654 4.75895-1.847 1.2971-1.193 2.0959-2.832 2.2369-4.588l4.7871-57.338c.1063-.793.046-1.6-.177-2.368-.2231-.769-.604-1.483-1.1184-2.096-.5145-.613-1.1511-1.112-1.8694-1.465-.7182-.353-1.5022-.553-2.3019-.586z" fill="#4972e5"/><path d="m14.3435 284.132-16.82005-43.608h-4.3874c-3.19815 0-5.72665 3.287-5.48675 6.715l3.68782 56.958c.10709 1.782.89117 3.455 2.19172 4.677s3.0192 1.901 4.80413 1.898h6.99584c1.00971.002 2.00774-.216 2.92552-.637.91778-.42 1.73357-1.035 2.39137-1.801l1.7089-4.267z" fill="#394ed4"/><path d="m42.6268 284.711h-35.69882v67.521h35.69882z" fill="#ffeacf"/><path d="m43.3264 352.232h-36.39842v-67.521h2.41856z" fill="#ffd4f8"/><path d="m41.6574 282.163-1.5191-1.059c-.8811-.621-1.707-1.316-2.4685-2.078l-12.9024-12.901-14.0416 14.05-2.83835 1.998z" fill="#c74e7e"/><path d="m9.45654 283.332 7.59546.41 8.2851-17.597-2.4985 1.199-13.38206 14.06" fill="#b83f6e"/><path d="m45.505 279.885h-41.47537c-1.60068 0-2.89828 1.295-2.89828 2.893 0 1.597 1.2976 2.893 2.89828 2.893h41.47537c1.6007 0 2.8983-1.296 2.8983-2.893 0-1.598-1.2976-2.893-2.8983-2.893z" fill="#e46a9b"/><path d="m24.7674 268.313c2.1305 0 3.8577-1.727 3.8577-3.857s-1.7272-3.857-3.8577-3.857c-2.1306 0-3.8577 1.727-3.8577 3.857s1.7271 3.857 3.8577 3.857z" fill="#e46a9b"/><path d="m23.8078 306.895h-55.9567v46.296h55.9567z" fill="#fec4a3"/><path d="m10.2959 332.936h-3.85767v20.255h3.85767z" fill="#f2a477"/><path d="m1.94096 332.936h-3.85771v20.255h3.85771z" fill="#f2a477"/><path d="m-46.6201 357.078v76.944l26.984 12.99 22.98631 2.998 11.99289-12.99 5.9964-1.499c1.8622-.468 3.5948-1.35 5.069-2.58s2.6521-2.777 3.446-4.525l12.4426-27.37 16.9899-5.995 2.3786-5.536c.409-.949 1.082-1.761 1.9388-2.339l6.1264-4.077c1.005-.668 1.7523-1.658 2.1187-2.808l7.4256-23.213z" fill="#69404f"/><path d="m26.2166 302.069h-60.7739c-1.8656 0-3.378 1.512-3.378 3.377 0 1.866 1.5124 3.378 3.378 3.378h60.7739c1.8656 0 3.378-1.512 3.378-3.378 0-1.865-1.5124-3.377-3.378-3.377z" fill="#749af7"/><path d="m-13.4639 330.758h37.038c.4109 0 .8049.163 1.0954.453.2905.291.4537.685.4537 1.095 0 .411-.1632.805-.4537 1.096-.2905.29-.6845.453-1.0954.453h-37.038z" fill="#e46a9b"/><path d="m13.674 319.046c.3843 0 .7529.153 1.0247.425.2718.271.4244.64.4244 1.024v3.757h-2.8982v-3.757c0-.384.1526-.753.4244-1.024.2718-.272.6404-.425 1.0247-.425z" fill="#f2a477"/><path d="m8.85673 312.301c.19116.001.38016.041.55614.115.17598.075.33544.184.46921.32.13382.137.23922.298.31022.476.071.177.1062.367.1036.558v3.757h-2.8983v-3.757c-.00267-.193.03318-.384.10544-.563s.17948-.341.31537-.478.29773-.245.47603-.319c.17829-.073.36945-.11.56229-.109z" fill="#f2a477"/><path d="m18.5011 312.301c.1928-.001.384.036.5622.109.1783.074.3402.182.4761.319s.2431.299.3153.478c.0723.179.1081.37.1055.563v3.757h-2.8983v-3.757c-.0026-.191.0326-.381.1036-.558.071-.178.1764-.339.3102-.476.1338-.136.2932-.245.4692-.32.176-.074.365-.114.5562-.115z" fill="#f2a477"/><path d="m23.668 341.75c.8809.01 1.7217.369 2.3381.999.6163.629.958 1.477.95 2.358v7.125h-6.6161v-7.125c-.004-.439.0792-.875.2447-1.282.1654-.408.4099-.778.7194-1.09.3094-.312.6776-.56 1.0834-.729.4057-.169.8409-.256 1.2805-.256z" fill="#e46a9b"/><path d="m33.1725 341.75c.8827 0 1.7292.35 2.3533.974s.9747 1.471.9747 2.353v7.125h-6.656v-7.125c0-.882.3506-1.729.9747-2.353.6242-.624 1.4707-.974 2.3533-.974z" fill="#e46a9b"/><path d="m42.6667 341.75c.8826 0 1.7291.35 2.3532.974.6242.624.9748 1.471.9748 2.353v7.125h-6.6461v-7.125c0-.881.3493-1.726.9713-2.349.6219-.624 1.4658-.976 2.3468-.978z" fill="#e46a9b"/><path d="m3.35019 450.01 3.54789-15.938c.1365-.587.07056-1.202-.1871-1.746-.25766-.545-.69188-.986-1.23206-1.252l-1.18929-.599c-.35509-.178-.66623-.432-.9109-.745s-.41676-.676-.5038-1.063c-.08705-.388-.08688-.789.00051-1.177.08738-.387.25978-.75.50473-1.062l8.43503-10.733c.3492-.439.5489-.978.5696-1.538l1.8789-41.32c.0259-.528.2064-1.037.5192-1.464.3127-.426.7438-.751 1.2398-.934l8.6148-3.128c.4594-.168.8638-.458 1.1693-.84l3.3281-4.156c.1354-.168.2896-.318.4597-.45l6.2363-4.807h-29.45251l1.91886 14.58c.04492.271.04492.548 0 .819l-6.72601 37.483c-.12934.694-.52359 1.31-1.099344 1.718l-7.945286 5.556c-.35468.247-.64445.576-.84458.958-.20013.383-.30468.809-.30473 1.241v5.676c.00102.598-.19968 1.178-.56966 1.648l-14.44144 18.357 3.9976 1.918z" fill="#613544"/><path d="m42.3269 401.046 8.9947-26.98 2.9982 5.995-2.4985 17.638z" fill="#613544"/><path d="m-46.6201 352.082h145.9134c1.3257 0 2.5967.526 3.5337 1.463s1.463 2.208 1.463 3.533h-150.9101z" fill="#81c793"/><path d="m-46.6201 464v-80.941s21.9869-4.396 21.9869 34.975c0 0 17.98935-1.269 17.98935 24.981 0 0 24.46545 5.476 36.39835 20.985z" fill="#fff"/><path d="m5.34898 354.081h-5.996441l12.992261 4.996 11.9929 1.998 13.9917-5.995z" fill="#81c793"/><path d="m79.8547 242.752v-11.312c.0007-1.605.4974-3.172 1.4222-4.485.9249-1.313 2.2327-2.308 3.7447-2.849l7.9053-2.818v-15.879h10.2741v13.99h2.179c.451 0 .897.089 1.314.262.416.173.795.426 1.113.746.318.319.571.698.742 1.115.172.417.26.864.258 1.315v26.45h-28.9823z" fill="#b587fa"/><path d="m103.201 205.409h-10.274v32.677h10.274z" fill="#feccaf"/><path d="m96.6648 205.409h-3.7378v29.879h3.7378z" fill="#f2b08a"/><path d="m103.211 204.48h-10.284c-.5133 0-.9294.416-.9294.929v.01c0 .514.4161.93.9294.93h10.284c.513 0 .929-.416.929-.93v-.01c0-.513-.416-.929-.929-.929z" fill="#e484ab"/><path d="m101.333 211.015h-.93v1.869h.93z" fill="#f2b08a"/><path d="m101.333 214.753h-.93v1.868h.93z" fill="#f2b08a"/><path d="m101.333 218.48h-.93v1.869h.93z" fill="#f2b08a"/><path d="m115.823 214.753h3.688c.377 0 .738.149 1.004.415s.415.627.415 1.004v22.853h-6.526v-22.853c0-.377.15-.738.416-1.004s.627-.415 1.003-.415z" fill="#7c70fa"/><path d="m122.339 228.692c.867 0 1.698.345 2.311.957.613.613.957 1.444.957 2.311v17.267h-6.536v-17.277c.003-.865.348-1.693.961-2.304s1.442-.954 2.307-.954z" fill="#857afa"/><path d="m115.344 225.954h-6.537v24.273h6.537z" fill="#ed988d"/><path d="m108.807 225.015h6.536c.247 0 .483.098.658.272.174.175.272.411.272.657 0 .247-.098.483-.272.658-.175.174-.411.272-.658.272h-6.536v-1.869z" fill="#e484ab"/><path d="m114.404 233.419h3.558c.53 0 1.039.211 1.414.585.374.375.585.883.585 1.413v.76h-5.557v-2.798z" fill="#335dd4"/><path d="m116.273 235.288h8.705c1.405 0 2.752.558 3.745 1.551.994.993 1.552 2.34 1.552 3.745v8.703h-13.992v-13.989z" fill="#335dd4"/><path d="m73.4585 249.287s1.729-12.131 5.4667-6.535c0 0 2.7984-13.99 5.5967-5.596 0 0 .9395-3.737 2.8084-.939 0 0 5.5966-18.666 13.0717-2.798l-1.8684 15.868z" fill="#4a849a"/><path d="m98.6035 240.893h-14.9411v8.404h14.9411z" fill="#feccaf"/><path d="m87.4001 240.893h-3.7377v8.404h3.7377z" fill="#f2b08a"/><path d="m94.7959 240.893h-12.1428c-.5133 0-.9295.417-.9295.93v.01c0 .513.4162.929.9295.929h12.1428c.5133 0 .9294-.416.9294-.929v-.01c0-.513-.4161-.93-.9294-.93z" fill="#e484ab"/><path d="m97.3042 250.866c-1.528-1.881-2.4897-4.157-2.773-6.564-.2833-2.406.1236-4.844 1.1731-7.028s2.6984-4.025 4.7547-5.308c2.056-1.283 4.434-1.955 6.858-1.938 2.423.017 4.792.723 6.829 2.035 2.038 1.312 3.661 3.176 4.679 5.375 1.019 2.199 1.391 4.642 1.073 7.044-.317 2.402-1.311 4.665-2.865 6.524z" fill="#a0f995"/><path d="m100.972 245.71c3.118.769 3.118 4.667 3.118 4.667h3.898c0-2.339-2.339-6.995-6.236-6.995-3.0484 0-5.6169-3.338-6.5863-4.787-.3568 1.01-.5818 2.061-.6696 3.128 1.6155 2.057 3.9118 3.471 6.4759 3.987z" fill="#fff"/><path d="m114.224 244.931c.414 0 .81.164 1.103.456.292.292.456.689.456 1.102v4.677h-3.118v-4.677c0-.413.165-.81.457-1.102s.689-.456 1.102-.456z" fill="#86d17d"/><path d="m69.311 252.155 5.9965 18.986 1.3492 4.697c.2039.716.5694 1.376 1.0684 1.928.499.553 1.1182.984 1.8099 1.26l7.7654 3.107 9.5143 10.463c.3168.344.7262.591 1.1793.709l5.357 1.339c.551.137 1.133.082 1.649-.156s.935-.645 1.189-1.153l5.817-11.621c.828-1.663 2.22-2.976 3.927-3.708l11.344-4.866 6.995-20.985z" fill="#6c4c78"/><path d="m126.837 241.823h-.67v2.798h.67z" fill="#2c4fb5"/><path d="m127.847 241.823h-.67v2.798h.67z" fill="#2c4fb5"/><path d="m78.3057 251.156 4.997 15.988 4.997 3.997v5.996l2.6385 8.993 2.9782 3.278 1.3792-10.273 4.9974-11.991-2.9986-7.994 3.9976-8.993z" fill="#63496e"/><path d="m117.283 251.156-1.999 8.993v14.989l4.997-13.989v-2.998l2.998-2.998.999-3.997z" fill="#63496e"/><path d="m72.3093 249.157h58.9647c.795 0 1.558.316 2.12.878.563.563.878 1.325.878 2.12h-64.961c0-.795.3159-1.557.8782-2.12.5623-.562 1.3249-.878 2.1201-.878z" fill="#7eceb8"/><path d="m138.77 85.1476h.759c.329 0 .644.1306.877.3629.232.2324.363.5476.363.8762v6.2554h-1.999z" fill="#3458bf"/><path d="m139.269 82.1498h-3.498v10.4923h3.498z" fill="#3458bf"/><path d="m142.268 92.6421h-10.994l1 5.496 2.098 1.7287c.265.1752.478.4162.62.6992l.779 1.569.86 2.578c.019.053.048.102.086.144s.084.076.135.1.106.038.163.041c.056.003.112-.006.166-.025l2.088-.839.5-3.997c.41-.884.912-1.7214 1.499-2.4985z" fill="#3057bd"/><path d="m135.771 89.1447c-.927 0-1.817.3685-2.473 1.0244s-1.025 1.5454-1.025 2.473h6.996c0-.9276-.368-1.8171-1.024-2.473s-1.546-1.0244-2.474-1.0244z" fill="#395fcc"/><path d="m154.051 380.261v3.178l-34.91-3.178z" fill="url(#e)" opacity=".55"/><path d="m157.419 380.261.749-7.684 3.908 7.674z" fill="#8ca7f5"/><path d="m162.346 380.251v-3.997l3.238 3.638z" fill="#8ca7f5"/><path d="m155.11 379.892 3.608.579v-6.015z" fill="#8ca7f5"/><path d="m152.991 379.202 14.262.32-3.678 1.799-1.499 1.079c-1.185.97-2.666 1.506-4.198 1.519h-3.558c-.246 0-.487-.065-.701-.187-.213-.122-.391-.298-.515-.51s-.191-.453-.193-.699.06-.488.18-.703z" fill="#3c36a8"/><path d="m162.735 381.85-9.504-.37-.19.34c-.12.215-.182.457-.18.703s.069.487.193.699.302.388.515.51c.214.122.455.187.701.187h3.608c1.549-.002 3.049-.538 4.248-1.519z" fill="#322ca8"/><path d="m153.951 381.6 1.239 1.729h.779l-.599-1.729z" fill="#2b25a8"/><path d="m155.969 381.271h-4.027v.65h4.027z" fill="#244cbf"/><path d="m114.284 121.251c3.312 0 5.997-2.684 5.997-5.995 0-3.312-2.685-5.996-5.997-5.996-3.311 0-5.996 2.684-5.996 5.996 0 3.311 2.685 5.995 5.996 5.995z" fill="#2f4fad"/><path d="m105.29 115.256h16.989l1.999 8.993-1.999 3.997-2.998 2.998-.709 3.567c-.078.387-.3.729-.621.957-.322.228-.718.326-1.108.272l-5.557-.799-2.998-9.993-1.539.39c-.32.086-.655.105-.982.056-.328-.049-.642-.165-.923-.34s-.523-.406-.711-.679c-.188-.272-.319-.581-.383-.906l-.509-2.518z" fill="#2c56c7"/><path d="m114.284 112.258c1.06 0 2.077-.421 2.827-1.171s1.171-1.766 1.171-2.826h-7.995c0 1.06.421 2.076 1.17 2.826.75.75 1.767 1.171 2.827 1.171z" fill="#2f4fad"/><path d="m111.996 268.144h45.263s-2.919-4.907-7.226-3.848c0 0 0-4.526-5.467-2.428 0 0-6.486-11.641-17.11 1.669 0 0-9.914 1.109-15.46 4.607z" fill="#fff"/><path d="m49.8225 74.2856h1.5291c1.4499 0 2.8404.5758 3.8656 1.6009s1.6012 2.4154 1.6012 3.8651v8.9934h-6.9959z" fill="#707afa"/><path d="m53.3204 90.2738h-77.9537l5.9964 7.9942 6.9959 1.999 2.6684 4.656c.86391 1.514 2.27751 2.638 3.94766 3.138l10.41381 3.197.99941 4.997 4.99702 5.995 1.9988 5.996 11.9929 3.997 3.9976-.999 1.9988-8.994 45.9727-18.986-2.9982-9.9924z" fill="#464878"/><path d="m29.9544 90.2739-2.3287 1.6587c-.9206.6591-1.5902 1.6113-1.8988 2.7006-.3087 1.0892-.2382 2.2511.1999 3.295l1.4091 3.2878 14.9911 10.992 2.8084 4.297 32.1708-13.291-2.9982-9.9923-10.9934-2.9978z" fill="#3f4170"/><path d="m-3.32593 90.2738.99941 2.3383c.45265 1.0671 1.26638 1.9408 2.2986336 2.4682l6.3762164 3.1877 2.82832 3.537c.14813.184.33338.335.54364.442.21025.108.44081.169.67661.182.2358.012.4715-.026.6917-.111.2203-.085.4202-.215.5866-.383.4975-.494 1.1287-.832 1.8159-.972.6871-.14 1.4003-.077 2.0518.183l2.7983 1.119.9994 9.993 4.997 7.994.9995 11.991 3.9976-.999 1.9988-8.994-3.9976-7.994-2.1088-2.108c-.5768-.576-.9698-1.31-1.1293-2.109l-1.759-8.773-2.9982-6.9951 1.1393-3.9971z" fill="#3f4170"/><path d="m11.0854 35.9736h6.7261c.9383 0 1.8381.3727 2.5016 1.0361s1.0363 1.5632 1.0363 2.5013v7.6544h-10.264z" fill="#db86c7"/><path d="m5.96847 25.7211h-.64962l-1.34919-7.1947c-.02013-.0883-.06966-.1671-.14047-.2236-.07082-.0565-.15872-.0873-.2493-.0873-.09059 0-.17849.0308-.2493.0873s-.12034.1353-.14047.2236l-1.21928 7.1947h-.69958c-.6715-.0013-1.3366642.1298-1.957424.3859-.620756.256-1.184926.6319-1.660216 1.1062-.47528.4743-.85235 1.0376-1.10962 1.6578-.25728.6202-.3897 1.285-.3897 1.9564v.9993c0 .6714.13242 1.3362.3897 1.9564.25727.6201.63434 1.1835 1.10962 1.6578.47529.4743 1.03946.8502 1.660216 1.1062.6207598.256 1.285924.3871 1.957424.3858h4.69721c.6715.0013 1.33666-.1298 1.95742-.3858s1.18493-.6319 1.66021-1.1062c.4753-.4743.8524-1.0377 1.1096-1.6578.2573-.6202.3897-1.285.3897-1.9564v-.9993c0-.6714-.1324-1.3362-.3897-1.9564-.2572-.6202-.6343-1.1835-1.1096-1.6578-.47528-.4743-1.03945-.8502-1.66021-1.1062-.62076-.2561-1.28592-.3872-1.95742-.3859z" fill="#db86c7"/><path d="m13.8738 31.317h-20.51784v27.9795h20.51784z" fill="#dba6d0"/><path d="m38.0496 61.6948h2.8083c1.3233-.0026 2.6341.2557 3.8575.7602 1.2233.5045 2.3351 1.2453 3.2718 2.18.9366.9347 1.6797 2.0448 2.1867 3.267s.768 2.5323.768 3.8554v16.5979h-12.8923z" fill="#7a87fa"/><path d="m39.8884 44.3075h-41.37546v44.0477h41.37546z" fill="#d0daf5"/><path d="m39.8884 78.2427h-41.37546v10.1126h41.37546z" fill="#1b3a85"/><path d="m35.2912 48.8242h-31.26141v24.8218h31.26141z" fill="#2d2687"/><path d="m10.0061 62.6141h-11.95288v25.7412h11.95288z" fill="#69c9c9"/><path d="m10.4659 61.6948h-12.87238c-.5078 0-.91945.4116-.91945.9193s.41165.9193.91945.9193h12.87238c.5078 0 .9194-.4116.9194-.9193s-.4116-.9193-.9194-.9193z" fill="#54baba"/><path d="m-2.40649 62.6141 5.3768-5.396c.25476-.2539.59977-.3964.95943-.3964.35967 0 .70467.1425.95943.3964l4.99703 4.9963z" fill="#54baba"/><path d="m-10.8416 88.5451s6.59613-8.4638 8.43504-5.7058c0 0 2.75836-8.2739 5.51672-.9193 0 0 2.75837-1.8387 4.59727 3.6773 0 0 7.35567-1.449 11.49317 2.9978z" fill="#4a849a"/><path d="m-22.6345 88.2753h80.9519v1.9985h-82.9507c0-.2624.0517-.5223.1522-.7648.1004-.2424.2476-.4627.4332-.6483s.406-.3328.6485-.4333c.2425-.1004.5024-.1521.7649-.1521z" fill="#6fc0ce"/><path d="m21.3293 73.646h7.2258l6.7759-7.0748v-7.6943z" fill="#7196ff" opacity=".46"/><path d="m.501906 70.2685h-9.314466c-.36429 0-.65961.2955-.65961.66v.01c0 .3645.29532.66.65961.66h9.314466c.364292 0 .659604-.2955.659604-.66v-.01c0-.3645-.295312-.66-.659604-.66z" fill="#54baba"/><path d="m85.3614 96.3594-5.4367-11.0619c-.6024-1.2264-1.667-2.1636-2.96-2.6058-1.2929-.4421-2.7086-.3531-3.936.2475-.7159.3491-1.5021.5302-2.2986.5296l-12.1728-.0799c-.7955-.0003-1.5797-.1886-2.2886-.5496-.6049-.3065-1.2643-.4906-1.9405-.542-.6762-.0513-1.3558.0312-2.0001.2428-.6442.2116-1.2404.5482-1.7544.9905-.5139.4423-.9356.9816-1.2409 1.587l-5.5567 10.992c-.3271.6448-.5238 1.3477-.5788 2.0686-.055.721.0329 1.4456.2585 2.1328.2256.687.5845 1.322 1.0562 1.87s1.0469.998 1.6927 1.323c.6456.327 1.3494.524 2.0712.579.7217.055 1.4473-.032 2.1351-.258.6878-.225 1.3244-.584 1.8734-1.056.5489-.472.9995-1.047 1.3259-1.693l2.4185-4.7766 17.0799.1 2.3586 4.8066c.6452 1.311 1.7842 2.312 3.167 2.784 1.3827.472 2.8963.376 4.2086-.266 1.3084-.645 2.3079-1.782 2.7799-3.162.472-1.3806.378-2.8915-.2614-4.2026z" fill="#cbd6f5"/><path d="m56.1687 87.8656h-1.1093v-1.1192c0-.3127-.1243-.6126-.3455-.8337-.2211-.2212-.5211-.3454-.8338-.3454-.3128 0-.6128.1242-.8339.3454-.2212.2211-.3454.521-.3454.8337v1.1092h-1.1094c-.3128 0-.6127.1243-.8339.3454-.2211.2211-.3454.521-.3454.8338 0 .3127.1243.6126.3454.8337.2212.2212.5211.3454.8339.3454h1.1094v1.1192c-.0151.1633.004.3279.0562.4834.0521.1555.1362.2984.2467.4195.1105.1212.2451.218.3951.2842s.3122.1004.4763.1004c.164 0 .3262-.0342.4762-.1004.1501-.0662.2846-.163.3951-.2842.1106-.1211.1946-.264.2467-.4195.0522-.1555.0713-.3201.0563-.4834v-1.1192h1.1093c.1536.0013.3059-.0276.4482-.0852.1424-.0575.2721-.1425.3816-.2502.1095-.1076.1967-.2358.2567-.3771s.0915-.2931.0928-.4467c.0013-.1548-.0279-.3084-.0859-.452-.0581-.1435-.1438-.2743-.2524-.3847s-.2379-.1984-.3805-.2588c-.1425-.0605-.2956-.0923-.4505-.0936z" fill="#4561b0"/><path d="m74.5877 88.3353c.7452 0 1.3492-.604 1.3492-1.349 0-.7451-.604-1.3491-1.3492-1.3491-.7451 0-1.3492.604-1.3492 1.3491 0 .745.6041 1.349 1.3492 1.349z" fill="#5c56a8"/><path d="m74.5677 92.6221c.7451 0 1.3492-.6039 1.3492-1.349 0-.745-.6041-1.349-1.3492-1.349s-1.3492.604-1.3492 1.349c0 .7451.6041 1.349 1.3492 1.349z" fill="#4561b0"/><path d="m76.7166 90.4837c.7452 0 1.3492-.604 1.3492-1.349 0-.7451-.604-1.349-1.3492-1.349-.7451 0-1.3492.6039-1.3492 1.349 0 .745.6041 1.349 1.3492 1.349z" fill="#db86c7"/><path d="m72.429 90.4637c.7452 0 1.3492-.604 1.3492-1.349s-.604-1.349-1.3492-1.349c-.7451 0-1.3492.604-1.3492 1.349s.6041 1.349 1.3492 1.349z" fill="#6dbfbf"/><path d="m58.4773 92.9919h12.1528c.3207 0 .6283.1273.8551.3541.2268.2267.3542.5343.3542.855v2.1584h-14.5713v-2.1584c0-.1588.0312-.316.092-.4627s.1499-.28.2622-.3923c.1122-.1123.2456-.2013.3923-.2621s.3039-.092.4627-.092z" fill="#2d4ca6" opacity=".36"/><path d="m41.3276 102.245 8.9947 15.009 7.9953-.999 4.997 6.995 8.2151-2.618 2.7784-4.377 4.1375-.999 3.5979-1.19 5.2469-11.821z" fill="#544c82"/><path d="m74.3079 116.255 3.9976-10.992.1399 9.993z" fill="#4c4478"/><path d="m59.4269 117.804.8895-3.548-2.9983-4.996.9994-2.998-1.9988-.999-1.2492-2.998h-10.164l1.4192 2.998 2.9982.999 3.9976.999 2.9982 2.998-.5197 1.789 3.518 3.208-.9995.999" fill="#4c4478"/><path d="m67.312 101.266-1.9988 1.998.9994 4.547-.9994 2.448 3.9977 5.996 3.9976-4.997 1.9988-4.996 2.9982-4.996z" fill="#4c4478"/><path d="m43.3264 100.267h41.9751c.5302 0 1.0386.21 1.4134.585.3749.375.5854.883.5854 1.413h-45.9727c0-.53.2106-1.038.5855-1.413.3748-.375.8832-.585 1.4133-.585z" fill="#6fc0ce"/><path d="m35.3312 82.2797h-2.9982v2.9978h2.9982z" fill="#1e3f91"/><path d="m30.3342 82.2797h-2.9983v2.9978h2.9983z" fill="#1e3f91"/><path d="m40.3282 82.2797c.5301 0 1.0385.2106 1.4133.5854.3749.3748.5855.8831.5855 1.4131v3.9971h-3.9977v-3.9971c0-.53.2106-1.0383.5855-1.4131.3748-.3748.8832-.5854 1.4134-.5854z" fill="#707afa"/><path d="m117.682 30.3178h-56.3663s16.9899-14.989 25.9846-4.9964c0 0 14.9907-5.9956 30.3817 4.9964z" fill="#b1c5fd"/><path d="m31.3334 76.9836c.5519 0 .9994-.4474.9994-.9993s-.4475-.9992-.9994-.9992c-.552 0-.9994.4473-.9994.9992s.4474.9993.9994.9993z" fill="#a1b2e3"/><path d="m34.3317 76.9836c.5519 0 .9994-.4474.9994-.9993s-.4475-.9992-.9994-.9992c-.552 0-.9994.4473-.9994.9992s.4474.9993.9994.9993z" fill="#a1b2e3"/><path d="m28.3353 76.9836c.552 0 .9994-.4474.9994-.9993s-.4474-.9992-.9994-.9992c-.5519 0-.9994.4473-.9994.9992s.4475.9993.9994.9993z" fill="#a1b2e3"/><path d="m37.3299 290.127h-3.9976v3.997h3.9976z" fill="#ffdeb3"/><path d="m37.3299 297.122h-3.9976v3.997h3.9976z" fill="#ffdeb3"/><path d="m37.3299 312.111h-3.9976v3.997h3.9976z" fill="#ffdeb3"/><path d="m61.3157 290.127h-13.9917v1.999h13.9917z" fill="#6152fa"/></g></svg>