<svg viewBox="0 0 120 90" xmlns="http://www.w3.org/2000/svg" xmlns:xlink="http://www.w3.org/1999/xlink"><linearGradient id="a" gradientUnits="userSpaceOnUse" x1="35.37" x2="52.77" y1="10.71" y2="31.55"><stop offset="0" stop-color="#4788ff"/><stop offset="1" stop-color="#365dec"/></linearGradient><linearGradient id="b" gradientUnits="userSpaceOnUse" x1="48.13" x2="106.86" y1="55.69" y2="85.26"><stop offset="0" stop-color="#ffd01a"/><stop offset="1" stop-color="#ffa600"/></linearGradient><path d="m83.7 65.31h-47.4v-41.6a23.7 23.7 0 0 1 47.4 0zm-34.49-12.9h21.58v-28.7a10.79 10.79 0 0 0 -21.58 0z" fill="url(#a)"/><path d="m9.13 17.87 3.39-1.19a.89.89 0 0 0 0-1.68l-3.39-1.18a.88.88 0 0 1 -.55-.55l-1.18-3.39a.89.89 0 0 0 -1.68 0l-1.19 3.39a.89.89 0 0 1 -.54.55l-3.4 1.18a.89.89 0 0 0 0 1.68l3.41 1.19a.9.9 0 0 1 .54.54l1.18 3.39a.89.89 0 0 0 1.68 0l1.18-3.39a.89.89 0 0 1 .55-.54z" fill="#776bff"/><rect fill="#00e0a7" height="4.29" rx="1.43" transform="matrix(.70710678 -.70710678 .70710678 .70710678 17.64 83.79)" width="2.86" x="108.54" y="18.46"/><rect fill="#00e0a7" height="4.29" rx="1.43" transform="matrix(.70710678 -.70710678 .70710678 .70710678 14.29 91.89)" width="2.86" x="116.63" y="26.55"/><rect fill="#00e0a7" height="4.29" rx="1.43" transform="matrix(.70710678 .70710678 -.70710678 .70710678 49.15 -77.45)" width="2.86" x="116.63" y="18.46"/><rect fill="#00e0a7" height="4.29" rx="1.43" transform="matrix(.70710678 .70710678 -.70710678 .70710678 52.5 -69.35)" width="2.86" x="108.54" y="26.55"/><circle cx="110.16" cy="71.6" fill="#ff87ff" r="2.22"/><rect fill="url(#b)" height="56.67" rx="3.23" width="85.13" x="17.43" y="33.33"/><rect fill="#ffd01a" height="56.67" rx="3.23" width="66.95" x="17.43" y="33.33"/><g fill="none" stroke-miterlimit="10"><path d="m17.43 81.75h85.14" stroke="#ffa600" stroke-width="2.262054"/><path d="m17.43 41.58h66.95" stroke="#ffa600" stroke-width="2.262054"/><path d="m84.38 75.05h18.19" stroke="#ffa600" stroke-width="2.262054"/><path d="m84.38 68.36h18.19" stroke="#ffa600" stroke-width="2.262054"/><path d="m84.38 61.66h18.19" stroke="#ffa600" stroke-width="2.262054"/><path d="m84.38 54.97h18.19" stroke="#ffa600" stroke-width="2.262054"/><path d="m84.38 48.28h18.19" stroke="#ffa600" stroke-width="2.262054"/><path d="m84.38 41.58h18.19" stroke="#ffa600" stroke-width="2.262054"/><path d="m43.24 15.61a18.72 18.72 0 0 1 10.44-9.41" stroke="#9ecdff" stroke-linecap="round" stroke-width="4.095565"/></g><circle cx="50.91" cy="55.98" fill="#270813" r="5.96"/><path d="m50.91 56-5.36 11.83a2.05 2.05 0 0 0 1.87 2.89h7a2.05 2.05 0 0 0 1.87-2.89z" fill="#270813"/></svg>