<svg xmlns="http://www.w3.org/2000/svg" width="22" height="23" viewBox="0 0 22 23">
  <g fill="#7289DA">
    <path d="M4.3231,4.4332 C4.3231,4.4332 4.5811,4.0472 4.6881,3.8762 C4.7951,3.7052 4.4111,3.3012 4.2621,3.1732 C4.1131,3.0452 3.8781,3.1092 3.8781,3.1092 C2.0031,3.9402 1.0651,5.6452 0.9371,5.9862 C0.8091,6.3272 1.2631,6.6992 1.5981,6.8812 C1.7521,6.9652 1.9971,6.7792 2.1481,6.6412 L2.1991,6.5892 L2.2781,6.5092 L2.2791,6.5082 L7.3801,11.5892 L8.0771,10.8922 L9.3581,9.6112 L4.3161,4.4402 L4.3231,4.4332 Z"/>
    <path d="M16.3738,9.7931 L16.6428,9.5371 L19.0598,11.9311 C19.0768,11.9461 19.0948,11.9521 19.1108,11.9521 C19.1568,11.9521 19.1948,11.9101 19.1948,11.9101 C19.1948,11.9101 21.8708,9.2551 21.8798,9.2461 C21.9588,9.1681 21.8798,9.1251 21.8798,9.1251 L19.8158,7.0471 L19.8128,7.0501 L19.5298,6.7731 L19.6878,6.6211 L20.0258,6.6601 L19.9618,6.2121 L20.0468,6.1261 L19.9198,5.4801 C19.4788,4.8551 18.2708,3.8541 18.2708,3.8541 L17.6388,3.7401 L17.5748,3.8251 L17.0988,3.7541 L17.1448,4.1601 L17.1748,4.1901 L17.0338,4.3321 L16.2538,3.5691 C16.2538,3.5691 11.7278,1.1111 11.4868,0.9971 C11.3508,0.9341 11.2508,0.8921 11.1548,0.8921 C11.0808,0.8921 11.0088,0.9171 10.9258,0.9761 C10.7338,1.1111 10.8468,1.3831 10.8468,1.3831 L13.6608,6.5831 L14.2238,7.1411 L14.0478,7.3171 L14.0478,7.3171 L13.9828,7.3821 L13.5328,7.3201 L13.6018,7.7661 L13.4718,7.8961 L13.4488,7.8731 C13.4278,7.8521 13.3988,7.8411 13.3708,7.8411 C13.3428,7.8411 13.3148,7.8521 13.2928,7.8731 C13.2498,7.9161 13.2498,7.9861 13.2928,8.0291 L13.3158,8.0521 L13.2538,8.1151 L13.2378,8.0981 C13.2158,8.0771 13.1878,8.0661 13.1598,8.0661 C13.1308,8.0661 13.1028,8.0771 13.0818,8.0981 C13.0388,8.1411 13.0388,8.2111 13.0818,8.2541 L13.0988,8.2711 L11.9148,9.4611 L11.8878,9.4341 C11.8658,9.4131 11.8378,9.4021 11.8098,9.4021 C11.7818,9.4021 11.7538,9.4131 11.7318,9.4341 C11.6888,9.4771 11.6888,9.5471 11.7318,9.5901 L11.7598,9.6171 L11.6968,9.6801 L11.6758,9.6601 C11.6548,9.6381 11.6258,9.6271 11.5988,9.6271 C11.5698,9.6271 11.5418,9.6381 11.5198,9.6601 C11.4778,9.7031 11.4778,9.7721 11.5198,9.8151 L11.5408,9.8361 L11.3868,9.9921 L11.3658,10.1901 L11.4468,10.2731 L11.4448,10.2741 L11.3468,10.3741 L4.9578,16.7621 L4.8748,16.6931 L4.6098,16.7311 L4.4598,16.8831 L4.4498,16.8731 C4.4278,16.8511 4.3998,16.8401 4.3718,16.8401 C4.3438,16.8401 4.3148,16.8511 4.2938,16.8731 C4.2508,16.9161 4.2508,16.9851 4.2938,17.0281 L4.3058,17.0401 L4.2438,17.1041 L4.2378,17.0981 C4.2168,17.0761 4.1878,17.0651 4.1598,17.0651 C4.1318,17.0651 4.1038,17.0761 4.0818,17.0981 C4.0398,17.1411 4.0398,17.2101 4.0818,17.2531 L4.0888,17.2611 L2.9198,18.4501 L2.8958,18.4261 C2.8738,18.4041 2.8468,18.3941 2.8178,18.3941 C2.7898,18.3941 2.7618,18.4041 2.7398,18.4261 C2.6968,18.4691 2.6968,18.5391 2.7398,18.5821 L2.7658,18.6071 L2.7038,18.6701 L2.6848,18.6511 C2.6628,18.6301 2.6348,18.6191 2.6058,18.6191 C2.5788,18.6191 2.5498,18.6301 2.5288,18.6511 C2.4858,18.6941 2.4858,18.7641 2.5288,18.8071 L2.5488,18.8281 L2.4618,18.9171 L2.0088,18.8361 L2.0428,19.3421 L1.8998,19.4881 L2.0238,20.1701 C2.0238,20.1701 2.2138,20.7641 2.6048,21.1581 C2.9838,21.5401 3.5618,21.7231 3.5868,21.7421 L4.2398,21.8561 L4.4008,21.6981 L4.8508,21.7711 L4.7768,21.3261 L4.9138,21.1921 L4.9768,21.2551 C4.9978,21.2761 5.0258,21.2871 5.0538,21.2871 C5.0818,21.2871 5.1108,21.2761 5.1318,21.2551 C5.1748,21.2111 5.1748,21.1421 5.1318,21.0991 L5.0698,21.0371 L5.1338,20.9751 L5.1878,21.0291 C5.2088,21.0511 5.2378,21.0621 5.2658,21.0621 C5.2938,21.0621 5.3218,21.0511 5.3438,21.0291 C5.3868,20.9861 5.3868,20.9171 5.3438,20.8741 L5.2908,20.8201 L6.4778,19.6491 L6.5298,19.7011 C6.5508,19.7231 6.5798,19.7331 6.6078,19.7331 C6.6358,19.7331 6.6638,19.7231 6.6858,19.7011 C6.7278,19.6581 6.7278,19.5881 6.6858,19.5451 L6.6348,19.4951 L6.6978,19.4321 L6.7418,19.4761 C6.7628,19.4971 6.7908,19.5081 6.8188,19.5081 C6.8478,19.5081 6.8758,19.4971 6.8968,19.4761 C6.9398,19.4331 6.9398,19.3631 6.8968,19.3201 L6.8538,19.2771 L6.9868,19.1471 L7.0348,18.8621 L6.9638,18.7911 L6.9648,18.7901 L7.0938,18.6621 L13.4398,12.3141 L13.4368,12.3081 L13.5608,12.4361 L13.7598,12.4141 L13.9388,12.2341 L13.9678,12.2631 C13.9898,12.2841 14.0178,12.2951 14.0458,12.2951 C14.0738,12.2951 14.1028,12.2841 14.1238,12.2631 C14.1668,12.2201 14.1668,12.1501 14.1238,12.1071 L14.0948,12.0781 L14.1578,12.0161 L14.1798,12.0381 C14.2008,12.0591 14.2288,12.0701 14.2578,12.0701 C14.2858,12.0701 14.3138,12.0591 14.3348,12.0381 C14.3778,11.9951 14.3778,11.9251 14.3348,11.8821 L14.3128,11.8591 L15.4988,10.6711 L15.5298,10.7021 C15.5508,10.7231 15.5788,10.7341 15.6068,10.7341 C15.6358,10.7341 15.6638,10.7231 15.6848,10.7021 C15.7278,10.6591 15.7278,10.5891 15.6848,10.5461 L15.6538,10.5151 L15.7168,10.4521 L15.7408,10.4771 C15.7628,10.4981 15.7908,10.5091 15.8188,10.5091 C15.8468,10.5091 15.8748,10.4981 15.8968,10.4771 C15.9398,10.4331 15.9398,10.3641 15.8968,10.3211 L15.8728,10.2961 L16.0048,10.1641 L16.4458,10.2331 L16.3738,9.7931 Z"/>
    <polygon points="17.255 16.968 14.442 14.836 13.941 14.32 12 16.261 12.488 16.727 14.321 19.476 16.793 22.183 19.642 19.525"/>
  </g>
</svg>
