<svg xmlns="http://www.w3.org/2000/svg" width="24" height="24" viewBox="0 0 24 24">
  <g fill="none" fill-rule="evenodd">
    <path fill="#4F545C" fill-rule="nonzero" d="M21,10.5826987 L21,4 L18,4 L18,3 C18,2.45 17.55,2 17,2 L5,2 C4.45,2 4,2.45 4,3 L4,7 C4,7.55 4.45,8 5,8 L17,8 C17.55,8 18,7.55 18,7 L18,6 L19,6 L19,10 L9,10 L9,21 C9,21.55 9.45,22 10,22 L11.0725703,22 C10.3904597,20.8224229 10,19.4558297 10,18 C10,13.581722 13.5907123,10 18,10 C19.0609004,10 20.0735686,10.2070255 21,10.5826987 Z" opacity=".6"/>
    <rect width="24" height="24"/>
  </g>
</svg>
