<svg fill="none" height="80" viewBox="0 0 88 80" width="88" xmlns="http://www.w3.org/2000/svg"><rect fill="#e3e5e8" height="56" rx="8" width="56" x="16" y="12"/><path d="m55.6667 29.9999c-5.7333 0-10.29-5.9417-10.335-6.0033-.63-.8334-2.0333-.8334-2.6633 0-.045.0616-4.6017 6.0033-10.335 6.0033-.9217 0-1.6667.7467-1.6667 1.6667v11.6666c0 6.345 11.2734 12.4634 12.5567 13.14.2433.1284.51.19.7767.19.2666 0 .5333-.0633.7766-.19 1.2834-.6766 12.5567-6.795 12.5567-13.14v-11.6666c0-.92-.745-1.6667-1.6667-1.6667zm-6.6666 16.6667-5-3.3334-5 3.3334 1.6666-5-3.3333-3.3334h5l1.6667-5 1.6666 5h5l-3.3333 3.3334z" fill="#060607"/><g fill="#ff785f"><path d="m83.0026 1.0838c0-.598567-.4853-1.0838-1.0838-1.0838-.5986 0-1.0838.485233-1.0838 1.0838v1.10186c0 .59856.4852 1.0838 1.0838 1.0838.5985 0 1.0838-.48524 1.0838-1.0838z"/><path d="m83.0026 9.81427c0-.59857-.4853-1.0838-1.0838-1.0838-.5986 0-1.0838.48523-1.0838 1.0838v1.10183c0 .5986.4852 1.0838 1.0838 1.0838.5985 0 1.0838-.4852 1.0838-1.0838z"/><path d="m86.9162 7.10509c.5986 0 1.0838-.48523 1.0838-1.08379 0-.59857-.4852-1.0838-1.0838-1.0838h-1.1019c-.5985 0-1.0838.48523-1.0838 1.0838 0 .59856.4853 1.08379 1.0838 1.08379z"/><path d="m78.1857 7.04504c.5986 0 1.0838-.48524 1.0838-1.0838 0-.59857-.4852-1.0838-1.0838-1.0838h-1.1018c-.5986 0-1.0838.48523-1.0838 1.0838 0 .59856.4852 1.0838 1.0838 1.0838z"/></g><path d="m8.36261 75.843 3.12339-1.0417c.1534-.0703.2834-.1832.3745-.3252.0911-.1421.1395-.3073.1395-.4761s-.0484-.334-.1395-.4761c-.0911-.142-.2211-.2549-.3745-.3252l-3.12339-1.0417c-.21336-.0964-.38423-.2673-.48054-.4808l-1.12123-3.1251c-.05266-.1603-.15458-.2999-.2912-.3989-.13662-.0989-.30098-.1522-.46965-.1522-.16866 0-.33301.0533-.46963.1522-.13662.099-.23854.2386-.2912.3989l-1.12123 3.1251c-.09631.2135-.26718.3844-.48054.4808l-3.123433 1.0417c-.153355.0703-.283314.1832-.374423.3252-.0911093.1421-.139534.3073-.139534.4761s.0484247.334.139534.4761c.091109.142.221068.2549.374423.3252l3.123433 1.0417c.11344.0344.21664.0963.30046.1802.08382.0838.14567.1871.18008.3006l1.12123 3.1251c.05266.1603.15458.2999.2912.3989.13662.0989.30097.1522.46963.1522.16867 0 .33303-.0533.46965-.1522.13662-.099.23854-.2386.2912-.3989l1.12123-3.1251c.03441-.1135.09627-.2168.18008-.3006.08382-.0839.18702-.1458.30046-.1802z" fill="#ffd01a"/></svg>