<svg width="182" height="108" viewBox="0 0 182 108" fill="none" xmlns="http://www.w3.org/2000/svg">
<rect width="182" height="108" rx="8" fill="#36393F"/>
<path d="M27.9701 36.784V48H31.9701V45.088H35.0901C38.4501 45.088 40.1621 43.344 40.1621 40.912C40.1621 38.448 38.6741 36.784 35.7141 36.784H27.9701ZM31.9701 42.544V39.552H34.2741C35.4261 39.552 36.0661 40.112 36.0661 41.024C36.0661 41.968 35.3621 42.544 34.0501 42.544H31.9701ZM45.5013 36.8H41.5013V48H51.7893V44.736H45.5013V36.8ZM62.1198 43.744L58.3278 36.8H53.0638V48H56.6158V40.928L60.5518 48H65.6558V36.8H62.1198V43.744ZM80.6104 43.488V37.344H75.6824L71.2664 43.184V45.792H77.1704V48H80.6104V45.792H82.3704V43.488H80.6104ZM77.1704 39.728V43.488H74.4664L77.1704 39.728ZM85.4934 48.32C86.7894 48.32 87.7334 47.504 87.7334 46.448C87.7334 45.408 86.7894 44.592 85.4934 44.592C84.1974 44.592 83.2374 45.408 83.2374 46.448C83.2374 47.488 84.1974 48.32 85.4934 48.32ZM94.1633 37.04C90.8513 37.04 88.8033 38.768 88.8033 41.136C88.8033 43.296 90.4513 44.576 92.7073 44.576C94.3233 44.576 95.4753 43.824 95.9233 42.592V42.768C95.9233 44.624 94.8673 45.744 92.7393 45.744C91.3633 45.744 90.1153 45.296 89.3473 44.672V47.312C90.2753 47.936 91.8113 48.368 93.4433 48.368C97.0273 48.368 99.5713 46.24 99.5713 42.32C99.5713 38.64 97.1713 37.04 94.1633 37.04ZM94.0993 42.688C93.0913 42.688 92.4353 42.08 92.4353 41.2C92.4353 40.304 93.1073 39.632 94.1313 39.632C95.0913 39.632 95.7953 40.288 95.7953 41.168C95.7953 42.08 95.0913 42.688 94.0993 42.688ZM106.148 37.04C102.836 37.04 100.788 38.768 100.788 41.136C100.788 43.296 102.436 44.576 104.692 44.576C106.308 44.576 107.46 43.824 107.908 42.592V42.768C107.908 44.624 106.852 45.744 104.724 45.744C103.348 45.744 102.1 45.296 101.332 44.672V47.312C102.26 47.936 103.796 48.368 105.428 48.368C109.012 48.368 111.556 46.24 111.556 42.32C111.556 38.64 109.156 37.04 106.148 37.04ZM106.084 42.688C105.076 42.688 104.42 42.08 104.42 41.2C104.42 40.304 105.092 39.632 106.116 39.632C107.076 39.632 107.78 40.288 107.78 41.168C107.78 42.08 107.076 42.688 106.084 42.688ZM118.304 49.92L123.728 35.2H122.224L116.8 49.92H118.304ZM139.481 38.528C138.025 38.528 137.033 39.2 136.505 40.528C136.057 39.28 135.065 38.528 133.737 38.528C132.377 38.528 131.433 39.184 130.889 40.624V38.88H129.385V48H130.889V42.88C130.889 41.136 131.753 39.92 133.193 39.92C134.505 39.92 135.257 40.832 135.257 42.224V48H136.761V42.528C136.761 41.008 137.545 39.92 139.033 39.92C140.377 39.92 141.097 40.832 141.097 42.512V48H142.617V42.256C142.617 39.888 141.465 38.528 139.481 38.528ZM149.498 48.24C152.426 48.24 154.346 46.096 154.346 43.376C154.346 40.64 152.426 38.528 149.498 38.528C146.602 38.528 144.65 40.64 144.65 43.376C144.65 46.096 146.602 48.24 149.498 48.24ZM149.498 46.816C147.466 46.816 146.218 45.344 146.218 43.376C146.218 41.392 147.466 39.952 149.498 39.952C151.53 39.952 152.778 41.392 152.778 43.376C152.778 45.344 151.53 46.816 149.498 46.816Z" fill="white"/>
<path d="M33.924 61.186V71H37.424V68.452H40.154C43.094 68.452 44.592 66.926 44.592 64.798C44.592 62.642 43.29 61.186 40.7 61.186H33.924ZM37.424 66.226V63.608H39.44C40.448 63.608 41.008 64.098 41.008 64.896C41.008 65.722 40.392 66.226 39.244 66.226H37.424ZM49.2638 61.2H45.7638V71H54.7658V68.144H49.2638V61.2ZM63.805 67.276L60.487 61.2H55.881V71H58.989V64.812L62.433 71H66.899V61.2H63.805V67.276ZM78.2903 65.988C79.5503 65.75 80.1803 64.994 80.1803 64C80.1803 62.544 78.6963 61.438 75.9383 61.438C74.4963 61.438 73.1523 61.732 72.1863 62.18V64.49C72.7043 64.154 73.7403 63.776 75.0843 63.776C76.3023 63.776 76.8203 64.112 76.8203 64.616C76.8203 65.092 76.4843 65.414 75.4483 65.414H73.3483L72.9283 67.276H75.6023C76.6243 67.276 76.9463 67.626 76.9463 68.074C76.9463 68.69 76.3303 69.082 75.1123 69.082C73.7123 69.082 72.6903 68.732 72.1723 68.41V70.398C73.0403 70.888 74.2723 71.252 75.8823 71.252C78.6683 71.252 80.4603 70.076 80.4603 68.354C80.4603 67.164 79.7183 66.282 78.2903 65.988ZM83.3683 71.28C84.5023 71.28 85.3283 70.566 85.3283 69.642C85.3283 68.732 84.5023 68.018 83.3683 68.018C82.2343 68.018 81.3943 68.732 81.3943 69.642C81.3943 70.552 82.2343 71.28 83.3683 71.28ZM94.2304 67.052V61.676H89.9184L86.0544 66.786V69.068H91.2204V71H94.2304V69.068H95.7704V67.052H94.2304ZM91.2204 63.762V67.052H88.8544L91.2204 63.762ZM101.345 61.41C98.447 61.41 96.655 62.922 96.655 64.994C96.655 66.884 98.097 68.004 100.071 68.004C101.485 68.004 102.493 67.346 102.885 66.268V66.422C102.885 68.046 101.961 69.026 100.099 69.026C98.895 69.026 97.803 68.634 97.131 68.088V70.398C97.943 70.944 99.287 71.322 100.715 71.322C103.851 71.322 106.077 69.46 106.077 66.03C106.077 62.81 103.977 61.41 101.345 61.41ZM101.289 66.352C100.407 66.352 99.833 65.82 99.833 65.05C99.833 64.266 100.421 63.678 101.317 63.678C102.157 63.678 102.773 64.252 102.773 65.022C102.773 65.82 102.157 66.352 101.289 66.352ZM111.981 72.68L116.727 59.8H115.411L110.665 72.68H111.981ZM130.512 62.712C129.238 62.712 128.37 63.3 127.908 64.462C127.516 63.37 126.648 62.712 125.486 62.712C124.296 62.712 123.47 63.286 122.994 64.546V63.02H121.678V71H122.994V66.52C122.994 64.994 123.75 63.93 125.01 63.93C126.158 63.93 126.816 64.728 126.816 65.946V71H128.132V66.212C128.132 64.882 128.818 63.93 130.12 63.93C131.296 63.93 131.926 64.728 131.926 66.198V71H133.256V65.974C133.256 63.902 132.248 62.712 130.512 62.712ZM139.277 71.21C141.839 71.21 143.519 69.334 143.519 66.954C143.519 64.56 141.839 62.712 139.277 62.712C136.743 62.712 135.035 64.56 135.035 66.954C135.035 69.334 136.743 71.21 139.277 71.21ZM139.277 69.964C137.499 69.964 136.407 68.676 136.407 66.954C136.407 65.218 137.499 63.958 139.277 63.958C141.055 63.958 142.147 65.218 142.147 66.954C142.147 68.676 141.055 69.964 139.277 69.964Z" fill="#A3A6AA"/>
<line x1="33" y1="65.5" x2="149" y2="65.5" stroke="#A3A6AA"/>
</svg>
