<svg fill="none" height="48" viewBox="0 0 48 48" width="48" xmlns="http://www.w3.org/2000/svg"><path d="m23.5 41c9.665 0 17.5-7.835 17.5-17.5s-7.835-17.5-17.5-17.5-17.5 7.835-17.5 17.5 7.835 17.5 17.5 17.5z" fill="#f7d036"/><g fill="#7196ff"><path d="m4.38241 31.3512-.00389.0039c-.12458.125-.12458.3276 0 .4526l.22945.2302c.12457.125.32655.125.45112 0l.00389-.0039c.12458-.125.12458-.3276 0-.4526l-.22945-.2302c-.12457-.125-.32655-.125-.45112 0z"/><path d="m6.19723 33.176-.00389.0039c-.12458.125-.12458.3277 0 .4527l.22945.2302c.12457.1249.32655.1249.45112 0l.00389-.0039c.12458-.125.12458-.3277 0-.4526l-.22945-.2303c-.12457-.1249-.32655-.1249-.45112 0z"/><path d="m6.87789 31.3573-.00389-.0039c-.12457-.125-.32655-.125-.45113 0l-.22945.2302c-.12457.125-.12457.3276 0 .4526l.00389.0039c.12458.125.32655.125.45113 0l.22945-.2302c.12457-.125.12457-.3276 0-.4526z"/><path d="m5.06856 33.1821-.00389-.0039c-.12457-.125-.32655-.125-.45112 0l-.22945.2302c-.12458.125-.12458.3276 0 .4526l.00389.0039c.12457.125.32655.125.45112 0l.22945-.2302c.12458-.125.12458-.3276 0-.4526z"/></g><path d="m41.5718 35.8554c0-.2468-.1983-.447-.4428-.447s-.4427.2002-.4427.447v.4415c0 .2468.1982.4469.4427.4469s.4428-.2001.4428-.4469z" fill="#f47fff"/><path d="m41.5718 39.4146c0-.2468-.1983-.4469-.4428-.4469s-.4427.2001-.4427.4469v.4414c0 .2469.1982.447.4427.447s.4428-.2001.4428-.447z" fill="#f47fff"/><path d="m43.1173 38.2944c.246 0 .4454-.1989.4454-.4442s-.1994-.4442-.4454-.4442h-.44c-.2461 0-.4455.1989-.4455.4442s.1994.4442.4455.4442z" fill="#f47fff"/><path d="m39.5753 38.2999c.246 0 .4455-.1989.4455-.4442s-.1995-.4442-.4455-.4442h-.44c-.2461 0-.4455.1989-.4455.4442s.1994.4442.4455.4442z" fill="#f47fff"/><path d="m8.51741 9.09313-.51699 1.07047c-.02702.0548-.03622.1168-.02632.1771.0099.0604.0384.1161.08151.1593.0431.0433.09863.0719.15878.0818.06014.0099.12188.0007.17652-.0264l1.06698-.4856c.03799-.0174.07925-.0264.121-.0264s.08301.009.121.0264l1.06701.5132c.0546.0271.1163.0363.1765.0264.0601-.0099.1157-.0385.1588-.0818.0431-.0432.0716-.0989.0815-.1593.0099-.0603.0007-.1223-.0263-.1771l-.5115-1.07048c-.019-.03959-.0289-.08297-.0289-.12691 0-.04395.0099-.08733.0289-.12692l.5115-1.07049c.0302-.0524.0435-.11295.0381-.17327-.0055-.06032-.0296-.11745-.0688-.16348s-.0918-.07871-.1503-.0935c-.0586-.0148-.1202-.011-.1765.01088l-1.10001.51318c-.03946.01907-.0827.02897-.1265.02897s-.08704-.0099-.1265-.02897l-1.06698-.51318c-.05464-.0271-.11638-.03634-.17652-.02641-.06015.00993-.11568.03853-.15878.08178-.04311.04324-.07161.09896-.08151.1593-.0099.06035-.00069.12229.02632.17711l.51699 1.07049c.02074.03876.0325.08171.03441.12566.0019.04394-.0061.08776-.02341.12817z" fill="#60cfac"/><path d="m14.2593 23.5117-1.9745-1.1423v15.3566l1.9745 1.1423z" fill="#9ea5b8"/><path d="m12.2848 22.3694 16.4997-9.5571v15.3566l-16.4997 9.5571z" fill="#9ea5b8"/><path d="m20.5346 5.73818c-4.5374 2.62657-8.2498 10.11452-8.2498 16.63122l16.4997-9.5406c0-6.5333-3.685-9.71719-8.2499-7.09062z" fill="#9ea5b8"/><path d="m14.2593 23.5116 16.4942-9.5571v15.3566l-16.4942 9.5571z" fill="#fff"/><path d="m22.5036 6.88043c-4.5319 2.62657-8.2498 10.11447-8.2498 16.63127l16.4997-9.5793c0-6.49465-3.7125-9.67854-8.2499-7.05197z" fill="#fff"/><path d="m22.5035 9.77186c-3.4539 1.99754-6.2754 8.02314-6.2754 13.33154v3.0514l12.5563-7.2562v-3.068c0-5.3359-2.8269-8.06177-6.2809-6.05874z" fill="#0e0d33"/><path d="m16.2281 24.4276 12.5563-7.2727v13.2984l-12.5563 7.2727z" fill="#0e0d33"/><path d="m37.2268 18.7275-8.4424-1.5726-1.3969.8056v13.2984l9.1408 1.7051.6985-.9381z" fill="#8c5950"/><path d="m36.5283 19.6656-9.1408-1.705v13.2984l9.1408 1.705z" fill="#61393f"/><path d="m37.2268 7.95645v10.77115l-9.1409-1.6996c0-5.9263 4.114-10.00409 9.1409-9.07155z" fill="#784343"/><path d="m20.2487 19.9084v22.4031l-2.8985-4.8558v-13.2984c0-5.0104 1.3035-6.9141 2.8985-4.2489z" fill="#784343"/><path d="m36.5283 8.89445v10.77115l-9.1354-1.7051c0-5.9208 4.114-9.9986 9.1354-9.06605z" fill="#61393f"/><path d="m20.6336 32.8757-.5225-2.0582" stroke="#9ea5b8" stroke-linecap="round" stroke-miterlimit="10" stroke-width="2"/><path d="m17.1796 23.8759 3.069 5.1372v13.2984l-1.122.2704-2.8985-4.8559v-13.2983z" fill="#8c5950"/><path d="m16.2281 24.4277 2.8985 4.8558v13.2984l-2.8985-4.8558z" fill="#9c685c"/><path d="m19.1267 20.1788 1.122-.2704v22.4031l-1.122.2704z" fill="#ad7556"/><path d="m17.6086 18.9979 1.122-.2759 1.518 1.1864-1.122.2704z" fill="#784343"/><path d="m36.5283 8.89448.6985-.93806v24.06948l-.6985.9381z" fill="#ad7556"/><path d="m19.1266 20.1788v22.4031l-2.8985-4.8558v-13.3094c0-4.9663 1.3035-6.9086 2.8985-4.2379z" fill="#8b574f"/><path d="m34.7133 8.76758v23.85982l-.814-.149v-23.61702c.2695-.04555.5412-.07686.814-.0938z" fill="#542c33"/><path d="m31.7599 9.60077v22.47483l-.8085-.149v-21.8127c.2574-.18958.5275-.36105.8085-.51313z" fill="#542c33"/><path d="m29.1859 11.9073v19.6827l-.7865-.1435v-18.1597c.2163-.4847.4797-.9468.7865-1.3795z" fill="#542c33"/><path d="m18.5327 19.3787v22.1989l-.462-.7725v-21.7685c.1756.0812.3328.1976.462.3421z" fill="#784343"/><path d="m17.2952 19.169v20.3394l-.4455-.745v-18.8771c.0976-.2673.2493-.5116.4455-.7173z" fill="#784343"/><path d="m33.9107 26.8811c.9174-.2264 1.4669-1.2016 1.2274-2.1782-.2394-.9765-1.1771-1.5846-2.0945-1.3583-.9173.2264-1.4668 1.2016-1.2274 2.1782.2395.9766 1.1772 1.5847 2.0945 1.3583z" stroke="#9ea5b8" stroke-miterlimit="10" stroke-width="2"/><path d="m33.6793 23.7434v-.9656" stroke="#9ea5b8" stroke-linecap="round" stroke-miterlimit="10" stroke-width="2"/></svg>