<svg xmlns="http://www.w3.org/2000/svg" width="181" height="82" viewBox="0 0 181 82">
  <g fill="none" fill-rule="evenodd">
    <path fill="#FFFFFF" d="M113.0934,59.2275 L113.0934,21.5075 C112.4364,21.7745 111.6584,21.9335 110.7994,21.9335 C109.9404,21.9335 109.1624,21.7745 108.5054,21.5075 L108.5054,26.4735 C108.5054,27.0255 108.0574,27.4735 107.5054,27.4735 L107.5054,31.1745 C108.0574,31.1745 108.5054,31.6225 108.5054,32.1745 L108.5054,59.2275 C108.5054,59.3065 108.4964,59.3845 108.4774,59.4615 L106.7484,66.6495 L106.7484,78.8125 C106.7484,79.6625 107.4394,80.3525 108.2894,80.3525 C109.0754,80.3525 109.7344,79.7635 109.8204,78.9815 L111.3344,65.3065 C111.3954,64.7565 111.9024,64.3675 112.4384,64.4215 C112.4964,64.4285 112.5444,64.4565 112.5974,64.4725 L113.8234,60.1735 C113.4054,60.0535 113.0934,59.6845 113.0934,59.2275"/>
    <path fill="#F6F6F7" d="M141.1187,76.7168 C141.1187,78.7218 142.7497,80.3528 144.7547,80.3528 C146.7597,80.3528 148.3907,78.7218 148.3907,76.7168 C148.3907,76.6958 148.3847,76.6758 148.3847,76.6548 L141.1247,76.6548 C141.1247,76.6758 141.1187,76.6958 141.1187,76.7168"/>
    <polygon fill="#DCDDDE" points="142.973 70.946 146.536 70.946 146.536 42.309 142.973 42.309"/>
    <path fill="#FFFFFF" d="M140.1187,72.9458 C139.6477,72.9458 139.2647,73.3288 139.2647,73.7998 C139.2647,74.2718 139.6477,74.6548 140.1187,74.6548 L149.3907,74.6548 C149.8617,74.6548 150.2447,74.2718 150.2447,73.7998 C150.2447,73.3288 149.8617,72.9458 149.3907,72.9458 L140.1187,72.9458 Z"/>
    <path fill="#F6F6F7" d="M149.379,19.6133 C148.012,18.6893 146.413,18.2013 144.755,18.2013 C140.193,18.2013 136.483,21.9123 136.483,26.4733 C136.483,31.0343 140.193,34.7453 144.755,34.7453 C148.893,34.7453 152.419,31.6563 152.956,27.5603 C153.025,27.0343 153.494,26.6723 154.015,26.7033 C154.017,26.6263 154.027,26.5503 154.027,26.4733 C154.027,25.8963 153.967,25.3333 153.866,24.7853 C153.791,24.8033 153.715,24.8193 153.641,24.8193 C153.21,24.8193 152.812,24.5383 152.683,24.1043 C152.52,23.5583 152.3,23.0283 152.027,22.5283 C151.773,22.0603 151.938,21.4873 152.383,21.2083 C151.914,20.5293 151.357,19.9163 150.727,19.3853 C150.408,19.8013 149.821,19.9113 149.379,19.6133"/>
    <path fill="#FFFFFF" d="M140.1187,36.7451 C139.1367,36.7451 138.3367,37.5441 138.3367,38.5271 C138.3367,39.5091 139.1367,40.3081 140.1187,40.3081 L149.3907,40.3081 C150.3727,40.3081 151.1727,39.5091 151.1727,38.5271 C151.1727,37.5441 150.3727,36.7451 149.3907,36.7451 L140.1187,36.7451 Z"/>
    <path fill="#DCDDDE" d="M110.7994,18.2011 C109.2944,18.2011 108.5054,18.8451 108.5054,19.0671 C108.5054,19.2901 109.2944,19.9331 110.7994,19.9331 C112.3044,19.9331 113.0934,19.2901 113.0934,19.0671 C113.0934,18.8451 112.3044,18.2011 110.7994,18.2011"/>
    <path fill="#F6F6F7" d="M124.69,26.6811 C124.616,26.5981 124.402,26.5311 124.047,26.5311 C123.671,26.5311 123.139,26.6061 122.446,26.8231 C121.149,27.2281 119.948,27.9111 119.432,28.3751 C118.506,29.2091 118.432,30.6411 119.265,31.5671 C120.099,32.4921 121.53,32.5671 122.457,31.7331 C123.787,30.5351 125.227,27.2771 124.69,26.6811"/>
    <path fill="#DCDDDE" d="M31.9537,33.1206 C31.9537,32.5686 32.4017,32.1206 32.9537,32.1206 C33.5057,32.1206 33.9537,32.5686 33.9537,33.1206 L33.9537,34.7156 C33.9537,35.2676 33.5057,35.7156 32.9537,35.7156 C32.4017,35.7156 31.9537,35.2676 31.9537,34.7156 L31.9537,33.1206 Z M31.9537,59.6276 L31.9537,39.9276 C31.9537,39.3756 32.4017,38.9276 32.9537,38.9276 C33.5057,38.9276 33.9537,39.3756 33.9537,39.9276 L33.9537,59.6276 L40.2987,59.6276 L40.2987,27.9656 L32.9537,18.8006 L25.6087,27.9656 L25.6087,59.6276 L31.9537,59.6276 Z"/>
    <path fill="#FFFFFF" d="M36.5899 70.5371L36.5899 66.4161 29.3179 66.4161 29.3179 74.7891 37.5899 74.7891 37.5899 71.5371C37.0379 71.5371 36.5899 71.0891 36.5899 70.5371M27.2847 76.7895C26.8717 76.7895 26.5357 77.1255 26.5357 77.5385L26.5357 79.6045C26.5357 80.0175 26.8717 80.3525 27.2847 80.3525L38.6227 80.3525C39.0357 80.3525 39.3717 80.0175 39.3717 79.6045L39.3717 77.5385C39.3717 77.1255 39.0357 76.7895 38.6227 76.7895L27.2847 76.7895zM45.397 61.6279L20.511 61.6279C19.743 61.6279 19.118 62.2529 19.118 63.0199 19.118 63.7919 19.743 64.4159 20.511 64.4159L25.609 64.4159 28.318 64.4159 37.59 64.4159 40.299 64.4159 45.397 64.4159C46.165 64.4159 46.789 63.7919 46.789 63.0239 46.789 62.2529 46.165 61.6279 45.397 61.6279"/>
    <path fill="#B9BBBE" d="M142.9732,69.1645 L142.9732,44.0895 C142.9732,43.1055 143.7712,42.3085 144.7552,42.3085 C145.7392,42.3085 146.5362,43.1055 146.5362,44.0895 L146.5362,69.1645 C146.5362,70.1485 145.7392,70.9455 144.7552,70.9455 C143.7712,70.9455 142.9732,70.1485 142.9732,69.1645 M148.3902,76.7165 C148.3902,78.7215 146.7602,80.3525 144.7552,80.3525 C142.7502,80.3525 141.1192,78.7215 141.1192,76.7165 C141.1192,76.6955 141.1242,76.6755 141.1252,76.6545 L148.3842,76.6545 C148.3852,76.6755 148.3902,76.6955 148.3902,76.7165 M150.2452,73.8005 C150.2452,74.2715 149.8622,74.6545 149.3902,74.6545 L140.1192,74.6545 C139.6472,74.6545 139.2642,74.2715 139.2642,73.8005 C139.2642,73.3295 139.6472,72.9455 140.1192,72.9455 L149.3902,72.9455 C149.8622,72.9455 150.2452,73.3295 150.2452,73.8005 M151.1722,38.5265 C151.1722,39.5095 150.3732,40.3085 149.3902,40.3085 L140.1192,40.3085 C139.1362,40.3085 138.3372,39.5095 138.3372,38.5265 C138.3372,37.5445 139.1362,36.7455 140.1192,36.7455 L149.3902,36.7455 C150.3732,36.7455 151.1722,37.5445 151.1722,38.5265 M154.9392,27.8205 C155.0112,27.2725 154.6252,26.7705 154.0772,26.6985 C154.0562,26.6955 154.0362,26.7045 154.0152,26.7035 C153.4942,26.6715 153.0252,27.0345 152.9562,27.5605 C152.3282,32.3475 147.6182,35.7595 142.6192,34.4715 C139.5562,33.6825 137.1752,31.1035 136.6192,27.9915 C135.6832,22.7655 139.6962,18.2015 144.7552,18.2015 C146.4132,18.2015 148.0122,18.6895 149.3792,19.6135 C149.8212,19.9115 150.4082,19.8015 150.7262,19.3855 C150.7392,19.3695 150.7562,19.3615 150.7672,19.3445 C151.0772,18.8865 150.9562,18.2655 150.4992,17.9565 C148.3612,16.5115 145.7672,15.9235 143.1472,16.3245 C138.6172,17.0165 135.0312,20.7895 134.5432,25.3465 C134.1182,29.3175 135.9732,32.8975 138.9592,34.9455 C137.2532,35.5005 136.0662,37.2165 136.3902,39.1685 C136.6972,41.0135 138.3932,42.3085 140.2642,42.3085 L140.2682,42.3085 C140.6582,42.3085 140.9732,42.6245 140.9732,43.0135 L140.9732,70.2405 C140.9732,70.6295 140.6582,70.9455 140.2682,70.9455 C138.7672,70.9455 137.4142,72.0385 137.2772,73.5335 C137.1542,74.8725 137.9672,76.0355 139.1312,76.4685 C139.1282,76.5515 139.1192,76.6325 139.1192,76.7165 C139.1192,79.8245 141.6472,82.3525 144.7552,82.3525 C147.8622,82.3525 150.3902,79.8245 150.3902,76.7165 C150.3902,76.6325 150.3822,76.5515 150.3782,76.4685 C151.6402,75.9985 152.4902,74.6735 152.1822,73.1935 C151.9022,71.8475 150.6172,70.9455 149.2422,70.9455 C148.8522,70.9455 148.5362,70.6295 148.5362,70.2405 L148.5362,43.0135 C148.5362,42.6245 148.8522,42.3085 149.2422,42.3085 L149.2452,42.3085 C150.9682,42.3085 152.5872,41.2285 153.0332,39.5645 C153.6012,37.4465 152.3662,35.5305 150.5392,34.9425 C152.8812,33.3405 154.5492,30.7985 154.9392,27.8205"/>
    <path fill="#B9BBBE" d="M152.0274 22.5278C152.2994 23.0278 152.5204 23.5578 152.6824 24.1038 152.8124 24.5378 153.2104 24.8188 153.6404 24.8188 153.7154 24.8188 153.7914 24.8028 153.8664 24.7858 153.8864 24.7808 153.9064 24.7828 153.9264 24.7768 154.4564 24.6188 154.7574 24.0618 154.5994 23.5328 154.3974 22.8538 154.1224 22.1938 153.7844 21.5718 153.5204 21.0858 152.9124 20.9078 152.4274 21.1718 152.4104 21.1808 152.4004 21.1978 152.3834 21.2088 151.9384 21.4868 151.7734 22.0608 152.0274 22.5278M111.3346 65.3061L109.8206 78.9821C109.7336 79.7641 109.0756 80.3531 108.2896 80.3531 107.4396 80.3531 106.7486 79.6621 106.7486 78.8121L106.7486 66.6491 108.4776 59.4611C108.4966 59.3851 108.5056 59.3061 108.5056 59.2271L108.5056 32.1741C108.5056 31.6221 108.0576 31.1741 107.5056 31.1741 106.9536 31.1741 106.5056 31.6221 106.5056 32.1741L106.5056 59.1091 104.7766 66.2971C104.7576 66.3731 104.7486 66.4521 104.7486 66.5311L104.7486 78.8121C104.7486 80.7641 106.3366 82.3531 108.2896 82.3531 110.0966 82.3531 111.6096 80.9981 111.8086 79.2021L113.3226 65.5261C113.3766 65.0351 113.0576 64.6051 112.5976 64.4731 112.5436 64.4571 112.4966 64.4281 112.4386 64.4221 111.9026 64.3671 111.3956 64.7571 111.3346 65.3061"/>
    <path fill="#B9BBBE" d="M122.4566 31.7334C121.5296 32.5664 120.0986 32.4914 119.2656 31.5664 118.4316 30.6414 118.5066 29.2094 119.4316 28.3754 119.9476 27.9114 121.1486 27.2284 122.4466 26.8234 123.1386 26.6064 123.6716 26.5304 124.0466 26.5304 124.4026 26.5304 124.6166 26.5984 124.6896 26.6814 125.2276 27.2774 123.7866 30.5354 122.4566 31.7334M110.7996 19.9334C109.2936 19.9334 108.5056 19.2904 108.5056 19.0674 108.5056 18.8444 109.2936 18.2014 110.7996 18.2014 112.3046 18.2014 113.0936 18.8444 113.0936 19.0674 113.0936 19.2904 112.3046 19.9334 110.7996 19.9334M118.0936 26.8894C116.5646 28.2674 116.2686 30.5084 117.2746 32.2164L116.0196 33.3934C115.6676 33.7224 115.0936 33.4734 115.0936 32.9924L115.0936 19.0554C115.0936 19.0454 115.0876 19.0364 115.0876 19.0264 115.0556 17.4134 113.2266 16.2014 110.7996 16.2014 108.3736 16.2014 106.5426 17.4134 106.5116 19.0264 106.5116 19.0364 106.5056 19.0454 106.5056 19.0554L106.5056 26.4734C106.5056 27.0254 106.9536 27.4734 107.5056 27.4734 108.0576 27.4734 108.5056 27.0254 108.5056 26.4734L108.5056 24.0994C108.5056 22.8614 109.5366 21.9294 110.7736 21.9334L110.7996 21.9334 110.8256 21.9334C112.0626 21.9294 113.0936 22.8614 113.0936 24.0994L113.0936 59.2274C113.0936 59.6844 113.4056 60.0534 113.8236 60.1734 113.9116 60.1984 113.9976 60.2274 114.0936 60.2274 114.6456 60.2274 115.0936 59.7794 115.0936 59.2274L115.0936 40.2684C115.0936 38.1854 115.9556 36.1944 117.4756 34.7704L118.6806 33.6404C119.3696 34.0744 120.1526 34.3124 120.9466 34.3124 121.9626 34.3124 122.9816 33.9514 123.7946 33.2194 124.6096 32.4854 125.5566 31.0674 126.1506 29.6904 126.9856 27.7544 126.9946 26.2514 126.1766 25.3424 124.3076 23.2654 119.4386 25.6784 118.0936 26.8894M32.9537 35.7153C33.5057 35.7153 33.9537 35.2673 33.9537 34.7153L33.9537 33.1203C33.9537 32.5683 33.5057 32.1203 32.9537 32.1203 32.4017 32.1203 31.9537 32.5683 31.9537 33.1203L31.9537 34.7153C31.9537 35.2673 32.4017 35.7153 32.9537 35.7153"/>
    <path fill="#B9BBBE" d="M39.3717 77.5381L39.3717 79.6041C39.3717 80.0171 39.0357 80.3531 38.6227 80.3531L27.2847 80.3531C26.8717 80.3531 26.5367 80.0171 26.5367 79.6041L26.5367 77.5381C26.5367 77.1251 26.8717 76.7891 27.2847 76.7891L38.6227 76.7891C39.0357 76.7891 39.3717 77.1251 39.3717 77.5381zM32.9537 18.8001L37.9497 25.0341C39.4707 26.9311 40.2987 29.2901 40.2987 31.7221L40.2987 56.4551C40.2987 58.2071 38.8787 59.6281 37.1267 59.6281L37.1257 59.6281C35.3737 59.6281 33.9537 58.2071 33.9537 56.4551L33.9537 39.9281C33.9537 39.3751 33.5057 38.9281 32.9537 38.9281 32.4017 38.9281 31.9537 39.3751 31.9537 39.9281L31.9537 56.4551C31.9537 58.2071 30.5337 59.6281 28.7817 59.6281 27.0297 59.6281 25.6087 58.2071 25.6087 56.4551L25.6087 31.7221C25.6087 29.2901 26.4377 26.9311 27.9577 25.0341L32.9537 18.8001zM45.3967 64.4161L40.2987 64.4161 37.5897 64.4161 28.3177 64.4161 25.6087 64.4161 20.5107 64.4161C19.7427 64.4161 19.1187 63.7911 19.1187 63.0201 19.1187 62.2521 19.7427 61.6281 20.5107 61.6281L45.3967 61.6281C46.1647 61.6281 46.7887 62.2521 46.7887 63.0241 46.7887 63.7911 46.1647 64.4161 45.3967 64.4161zM45.3067 59.6281L43.8327 59.6281C42.9857 59.6281 42.2987 58.9411 42.2987 58.0941L42.2987 27.6141C42.2987 27.3871 42.2217 27.1661 42.0797 26.9891L33.7337 16.5761C33.3337 16.0761 32.5737 16.0761 32.1737 16.5761L23.8287 26.9891C23.6867 27.1661 23.6087 27.3871 23.6087 27.6141L23.6087 58.0941C23.6087 58.9411 22.9227 59.6281 22.0757 59.6281L20.6127 59.6281C18.9927 59.6281 17.5177 60.7231 17.1917 62.3091 16.7447 64.4911 18.4067 66.4161 20.5107 66.4161L24.6087 66.4161 27.3177 66.4161 27.3177 74.7891 27.2847 74.7891C25.7677 74.7891 24.5367 76.0201 24.5367 77.5381L24.5367 79.6041C24.5367 81.1221 25.7677 82.3531 27.2847 82.3531L38.6227 82.3531C40.1417 82.3531 41.3717 81.1221 41.3717 79.6041L41.3717 77.5381C41.3717 76.0201 40.1417 74.7891 38.6227 74.7891L37.5897 74.7891 31.2857 74.7891C30.1987 74.7891 29.3177 73.9091 29.3177 72.8221L29.3177 68.3831C29.3177 67.2971 30.1987 66.4161 31.2857 66.4161L34.6227 66.4161C35.7087 66.4161 36.5897 67.2971 36.5897 68.3831L36.5897 70.5371C36.5897 71.0891 37.0377 71.5371 37.5897 71.5371 38.1427 71.5371 38.5897 71.0891 38.5897 70.5371L38.5897 66.4161 41.2987 66.4161 45.3967 66.4161C47.4987 66.4161 49.1597 64.4961 48.7177 62.3131 48.3967 60.7261 46.9257 59.6281 45.3067 59.6281zM93.9591 25.6494C81.2781 21.3954 67.3111 21.3964 54.6301 25.6494 54.2231 25.7864 53.9481 26.1684 53.9481 26.5984L53.9481 43.7944C53.9481 57.5204 61.5731 69.8644 73.8471 76.0084 73.9881 76.0794 74.1421 76.1144 74.2951 76.1144 74.4481 76.1144 74.6021 76.0794 74.7431 76.0084 77.3111 74.7234 79.7211 73.1324 81.9061 71.2804 82.3271 70.9234 82.3791 70.2934 82.0221 69.8714 82.0161 69.8644 82.0071 69.8614 82.0011 69.8554 81.6421 69.4534 81.0281 69.4034 80.6131 69.7554 78.6771 71.3954 76.5541 72.8194 74.2951 73.9924 62.9651 68.1154 55.9481 56.5904 55.9481 43.7944L55.9491 27.3214C67.8091 23.5034 80.7811 23.5034 92.6421 27.3224L92.6421 43.7944C92.6421 51.6794 89.8761 59.3724 84.8561 65.4564 84.5121 65.8734 84.5681 66.4814 84.9691 66.8374 84.9781 66.8454 84.9821 66.8564 84.9911 66.8644 85.4171 67.2164 86.0481 67.1554 86.3991 66.7294 91.7141 60.2874 94.6421 52.1424 94.6421 43.7944L94.6411 26.5974C94.6411 26.1684 94.3671 25.7864 93.9591 25.6494"/>
    <path fill="#B9BBBE" d="M88.0055 43.7939C88.0055 53.2799 83.6005 61.9289 76.0925 67.4359 75.0285 68.2159 73.5625 68.2159 72.4975 67.4359 64.9895 61.9289 60.5845 53.2799 60.5845 43.7939L60.5845 33.2519C60.5845 31.7869 61.6205 30.5289 63.0565 30.2319 70.4435 28.7009 78.1495 28.7009 85.5345 30.2319 86.9695 30.5289 88.0055 31.7869 88.0055 33.2519L88.0055 43.7939zM90.0055 30.0349C90.0055 29.5839 89.7035 29.1879 89.2675 29.0699 79.5225 26.4239 69.0695 26.4229 59.3225 29.0699 58.8865 29.1879 58.5845 29.5839 58.5845 30.0349L58.5845 43.7939C58.5845 54.9249 64.2655 64.9789 73.7805 70.6869 73.9395 70.7819 74.1165 70.8299 74.2955 70.8299 74.4735 70.8299 74.6515 70.7819 74.8095 70.6869 84.3245 64.9789 90.0055 54.9249 90.0055 43.7939L90.0055 30.0349zM7.3922 44.6958L6.2092 45.8788C5.8182 46.2688 5.8182 46.9018 6.2092 47.2928 6.4042 47.4878 6.6602 47.5858 6.9162 47.5858 7.1722 47.5858 7.4282 47.4878 7.6232 47.2928L8.8062 46.1098C9.1972 45.7188 9.1972 45.0868 8.8062 44.6958 8.4152 44.3048 7.7832 44.3048 7.3922 44.6958M1.4762 50.6118L.2932 51.7958C-.0978 52.1858-.0978 52.8188.2932 53.2098.4882 53.4048.7442 53.5028 1.0002 53.5028 1.2562 53.5028 1.5122 53.4048 1.7072 53.2098L2.8902 52.0258C3.2812 51.6348 3.2812 51.0028 2.8902 50.6118 2.4992 50.2208 1.8662 50.2208 1.4762 50.6118M7.6231 50.6118C7.2321 50.2208 6.6001 50.2208 6.2091 50.6118 5.8181 51.0028 5.8181 51.6348 6.2091 52.0258L7.3921 53.2098C7.5871 53.4048 7.8431 53.5028 8.0991 53.5028 8.3551 53.5028 8.6111 53.4048 8.8061 53.2098 9.1971 52.8188 9.1971 52.1858 8.8061 51.7958L7.6231 50.6118zM1.7071 44.6958C1.3161 44.3048.6831 44.3048.2931 44.6958-.0979 45.0868-.0979 45.7188.2931 46.1098L1.4761 47.2928C1.6711 47.4878 1.9271 47.5858 2.1831 47.5858 2.4391 47.5858 2.6951 47.4878 2.8901 47.2928 3.2811 46.9018 3.2811 46.2688 2.8901 45.8788L1.7071 44.6958zM169.4776 52.9707L168.2946 54.1537C167.9036 54.5437 167.9036 55.1767 168.2946 55.5677 168.4896 55.7627 168.7456 55.8607 169.0016 55.8607 169.2576 55.8607 169.5136 55.7627 169.7086 55.5677L170.8916 54.3847C171.2826 53.9937 171.2826 53.3617 170.8916 52.9707 170.5006 52.5797 169.8686 52.5797 169.4776 52.9707M163.5616 58.8867L162.3786 60.0707C161.9876 60.4607 161.9876 61.0937 162.3786 61.4847 162.5736 61.6797 162.8296 61.7777 163.0856 61.7777 163.3416 61.7777 163.5976 61.6797 163.7926 61.4847L164.9756 60.3007C165.3666 59.9097 165.3666 59.2777 164.9756 58.8867 164.5846 58.4957 163.9516 58.4957 163.5616 58.8867M169.7086 58.8867C169.3176 58.4957 168.6856 58.4957 168.2946 58.8867 167.9036 59.2777 167.9036 59.9097 168.2946 60.3007L169.4776 61.4847C169.6726 61.6797 169.9286 61.7777 170.1846 61.7777 170.4406 61.7777 170.6966 61.6797 170.8916 61.4847 171.2826 61.0937 171.2826 60.4607 170.8916 60.0707L169.7086 58.8867zM163.7926 52.9707C163.4016 52.5797 162.7686 52.5797 162.3786 52.9707 161.9876 53.3617 161.9876 53.9937 162.3786 54.3847L163.5616 55.5677C163.7566 55.7627 164.0126 55.8607 164.2686 55.8607 164.5246 55.8607 164.7806 55.7627 164.9756 55.5677 165.3666 55.1767 165.3666 54.5437 164.9756 54.1537L163.7926 52.9707zM67.7584 2C68.5914 2 69.2684 2.677 69.2684 3.51 69.2684 4.342 68.5914 5.02 67.7584 5.02 66.9254 5.02 66.2484 4.342 66.2484 3.51 66.2484 2.677 66.9254 2 67.7584 2M67.7584 7.02C69.6944 7.02 71.2684 5.445 71.2684 3.51 71.2684 1.575 69.6944-.42108547e-14 67.7584-.42108547e-14 65.8234-.42108547e-14 64.2484 1.575 64.2484 3.51 64.2484 5.445 65.8234 7.02 67.7584 7.02M81.4757 11.5298L81.9857 11.5298C82.5377 11.5298 82.9857 11.9778 82.9857 12.5298L82.9857 13.0408C82.9857 13.5928 83.4337 14.0408 83.9857 14.0408 84.5377 14.0408 84.9857 13.5928 84.9857 13.0408L84.9857 12.5298C84.9857 11.9778 85.4337 11.5298 85.9857 11.5298L86.4957 11.5298C87.0477 11.5298 87.4957 11.0828 87.4957 10.5298 87.4957 9.9768 87.0477 9.5298 86.4957 9.5298L85.9857 9.5298C85.4337 9.5298 84.9857 9.0818 84.9857 8.5298L84.9857 8.0198C84.9857 7.4678 84.5377 7.0198 83.9857 7.0198 83.4337 7.0198 82.9857 7.4678 82.9857 8.0198L82.9857 8.5298C82.9857 9.0818 82.5377 9.5298 81.9857 9.5298L81.4757 9.5298C80.9237 9.5298 80.4757 9.9768 80.4757 10.5298 80.4757 11.0828 80.9237 11.5298 81.4757 11.5298M180.2686 41.4023L179.7586 41.4023C179.2066 41.4023 178.7586 40.9543 178.7586 40.4023L178.7586 39.8923C178.7586 39.3393 178.3106 38.8923 177.7586 38.8923 177.2056 38.8923 176.7586 39.3393 176.7586 39.8923L176.7586 40.4023C176.7586 40.9543 176.3106 41.4023 175.7586 41.4023L175.2486 41.4023C174.6966 41.4023 174.2486 41.8493 174.2486 42.4023 174.2486 42.9553 174.6966 43.4023 175.2486 43.4023L175.7586 43.4023C176.3106 43.4023 176.7586 43.8503 176.7586 44.4023L176.7586 44.9133C176.7586 45.4653 177.2056 45.9133 177.7586 45.9133 178.3106 45.9133 178.7586 45.4653 178.7586 44.9133L178.7586 44.4023C178.7586 43.8503 179.2066 43.4023 179.7586 43.4023L180.2686 43.4023C180.8206 43.4023 181.2686 42.9553 181.2686 42.4023 181.2686 41.8493 180.8206 41.4023 180.2686 41.4023"/>
    <path fill="#DCDDDE" d="M74.8097,70.687 C74.6507,70.782 74.4737,70.83 74.2947,70.83 C74.1167,70.83 73.9387,70.782 73.7807,70.687 C64.2657,64.979 58.5847,54.925 58.5847,43.794 L58.5847,30.035 C58.5847,29.583 58.8867,29.188 59.3227,29.07 C69.0697,26.423 79.5217,26.424 89.2677,29.07 C89.7037,29.188 90.0057,29.583 90.0057,30.035 L90.0057,43.794 C90.0057,54.925 84.3247,64.979 74.8097,70.687 M84.8557,65.457 C89.8767,59.372 92.6417,51.679 92.6417,43.794 L92.6417,27.322 C80.7817,23.504 67.8097,23.503 55.9487,27.322 L55.9487,43.794 C55.9487,56.591 62.9647,68.115 74.2947,73.992 C76.5537,72.819 78.6767,71.395 80.6127,69.755 C81.0277,69.404 81.6427,69.453 82.0017,69.855 C83.0567,68.909 84.0417,67.897 84.9697,66.837 C84.5687,66.481 84.5127,65.873 84.8557,65.457"/>
    <path fill="#F6F6F7" d="M60.5845,30.8047 L60.5845,43.7937 C60.5845,54.0137 65.6975,63.2627 74.2945,68.6567 C82.8925,63.2627 88.0055,54.0137 88.0055,43.7937 L88.0055,30.8047 C79.0635,28.5107 69.5295,28.5097 60.5845,30.8047"/>
  </g>
</svg>
