<svg xmlns="http://www.w3.org/2000/svg" xmlns:xlink="http://www.w3.org/1999/xlink" width="130" height="98"><defs><path id="a" d="M0 .415h100.763v76.121H0z"/></defs><g fill="none" fill-rule="evenodd"><g transform="translate(15 11.049)"><mask id="b" fill="#fff"><use xlink:href="#a"/></mask><path fill="#7196FF" d="M100.007 45.756C96.785 35.58 85.457 34.17 76.568 31.868a91.3 91.3 0 0 1-.718-.19c-4.082-2.157-7.11-3.586-8.903-7.886-3.54-8.492-6.604-17.295-15.73-21.178C46.661.676 41.59.16 36.65.523c-11.607.85-24.545 6.936-30.8 16.922-6.144 9.814-7.713 22.56-3.444 33.397 2.933 7.444 6.616 11.527 13.527 15.443 6.559 3.717 13.677 6.435 21.028 8.116 15.339 3.507 34.781 3.108 48.99-4.33 8.83-4.623 17.447-13.601 14.055-24.315" mask="url(#b)" opacity=".08"/></g><path fill="#4871E5" d="M82.876 27.514H44.548L27.094 53.026l17.454 25.512h38.328l17.454-25.512z"/><path fill="#7196FF" d="M82.876 27.514h-31.65L33.772 53.026l17.454 25.512h31.65l17.454-25.512z"/><path fill="#FFF" d="M92.195 33.102L71.951 46.35c-.35.23-.633.546-.819.92l-3.087 6.17a.592.592 0 0 1-1.059 0L63.9 47.27a2.361 2.361 0 0 0-.82-.92L42.837 33.102c-.508-.332-1.128.222-.853.76l8.393 16.42a.59.59 0 0 1-.527.857h-5.023c-.575 0-.812.735-.345 1.069l22.69 16.198a.592.592 0 0 0 .688 0l22.69-16.198c.467-.334.23-1.07-.345-1.07h-5.023a.59.59 0 0 1-.528-.857l8.393-16.418c.276-.54-.344-1.093-.852-.761"/><path fill="#7196FF" d="M107.154 37.509h-.233a1.394 1.394 0 0 1-1.396-1.392v-.232a.697.697 0 0 0-1.396 0v.232c0 .769-.626 1.392-1.397 1.392h-.232a.697.697 0 0 0-.699.696c0 .384.313.695.699.695h.232c.771 0 1.397.624 1.397 1.392v.232a.697.697 0 0 0 1.396 0v-.232c0-.768.625-1.392 1.396-1.392h.233a.697.697 0 0 0 .698-.695.697.697 0 0 0-.698-.696M17.958 66.292a.697.697 0 0 1-.494-.203l-.658-.657a.694.694 0 0 1 0-.983.7.7 0 0 1 .987 0l.659.655a.695.695 0 0 1-.494 1.188m4.279 4.264a.697.697 0 0 1-.494-.203l-.658-.657a.694.694 0 0 1 0-.984.7.7 0 0 1 .987 0l.658.656a.695.695 0 0 1-.493 1.188m-.659-4.264a.697.697 0 0 1-.493-1.188l.658-.655a.7.7 0 0 1 .987 0 .694.694 0 0 1 0 .983l-.658.657a.697.697 0 0 1-.494.203M17.3 70.556a.697.697 0 0 1-.494-1.188l.659-.656a.7.7 0 0 1 .987 0 .694.694 0 0 1 0 .984l-.658.657a.697.697 0 0 1-.494.203"/><path fill="#B0CDFF" d="M22.23 42.103c-.641 0-1.163.52-1.163 1.16a1.163 1.163 0 0 0 2.327 0c0-.64-.521-1.16-1.163-1.16m0 3.71a2.559 2.559 0 0 1-2.56-2.55 2.559 2.559 0 0 1 2.56-2.552 2.559 2.559 0 0 1 2.56 2.551 2.559 2.559 0 0 1-2.56 2.551"/></g></svg>