<svg width="50" height="30" viewBox="0 0 50 30" fill="none" xmlns="http://www.w3.org/2000/svg">
<g clip-path="url(#clip0_104_677)">
<path fill-rule="evenodd" clip-rule="evenodd" d="M2 0H48C48.5304 0 49.0391 0.210714 49.4142 0.585786C49.7893 0.960859 50 1.46957 50 2V28C50 28.5304 49.7893 29.0391 49.4142 29.4142C49.0391 29.7893 48.5304 30 48 30H2C1.46957 30 0.960859 29.7893 0.585786 29.4142C0.210714 29.0391 0 28.5304 0 28V2C0 0.9 0.9 0 2 0Z" fill="#0066B2"/>
<path fill-rule="evenodd" clip-rule="evenodd" d="M42.4 19.66C42.4 19.4995 42.4637 19.3457 42.5772 19.2322C42.6907 19.1187 42.8445 19.055 43.005 19.055C43.1655 19.055 43.3193 19.1187 43.4328 19.2322C43.5463 19.3457 43.61 19.4995 43.61 19.66C43.61 19.8191 43.5468 19.9717 43.4343 20.0843C43.3217 20.1968 43.1691 20.26 43.01 20.26C42.9304 20.2613 42.8513 20.2468 42.7773 20.2172C42.7034 20.1877 42.636 20.1437 42.5793 20.0878C42.5225 20.032 42.4774 19.9654 42.4466 19.8919C42.4158 19.8185 42.4 19.7396 42.4 19.66ZM43 20.11C43.26 20.11 43.46 19.91 43.46 19.66C43.46 19.41 43.26 19.21 43 19.21C42.75 19.21 42.54 19.41 42.54 19.66C42.54 19.91 42.74 20.11 43 20.11ZM42.92 19.92H42.8V19.4H43.02C43.07 19.4 43.12 19.4 43.16 19.42C43.2 19.45 43.22 19.5 43.22 19.56C43.22 19.62 43.19 19.67 43.13 19.69L43.23 19.92H43.09L43.01 19.72H42.92V19.92ZM42.92 19.62H43.06C43.0731 19.6139 43.0839 19.6039 43.0911 19.5913C43.0983 19.5788 43.1014 19.5644 43.1 19.55C43.0989 19.54 43.0956 19.5304 43.0905 19.5217C43.0853 19.5131 43.0783 19.5057 43.07 19.5H42.92V19.63V19.62ZM39.4 20.3L39.06 18.66H35.34L34.72 20.3H31.67L36.04 10.08C36.04 10.08 36.31 9.26 37.39 9.26H39.75L42.09 20.3H39.4ZM36.18 16.4H38.58L37.72 12.26L36.18 16.39V16.4ZM31.9 11.92L32.32 9.55C32.32 9.55 31.02 9.06 29.68 9.06C28.23 9.06 24.78 9.69 24.78 12.72C24.78 15.57 28.83 15.6 28.83 17.1C28.83 18.6 25.19 18.33 23.99 17.39L23.56 19.86C23.56 19.86 24.86 20.49 26.86 20.49C28.86 20.49 31.88 19.47 31.88 16.71C31.88 13.84 27.79 13.57 27.79 12.33C27.79 11.08 30.65 11.23 31.9 11.92ZM21.75 20.3H18.82L20.65 9.26H23.59L21.75 20.3ZM8.55 9.26H6.24L6.19 9.45C6.19 9.45 8.41 9.9 10.54 11.59C11.7478 12.5373 12.6801 13.7907 13.24 15.22L13.56 16.85L16.36 9.26H19.51L14.85 20.3H11.8L9.25 10.7C8.30135 10.1336 7.27331 9.71226 6.2 9.45L6.25 9.26H8.55Z" fill="white"/>
<path fill-rule="evenodd" clip-rule="evenodd" d="M13.23 15.22L12.25 10.26C12.25 10.26 12.13 9.26001 10.85 9.26001H6.25001L6.20001 9.45001C6.20001 9.45001 8.42001 9.90001 10.55 11.59C12.58 13.2 13.25 15.22 13.25 15.22" fill="#F9A533"/>
</g>
<defs>
<clipPath id="clip0_104_677">
<rect width="50" height="30" fill="white"/>
</clipPath>
</defs>
</svg>
