<svg fill="none" height="113" viewBox="0 0 193 113" width="193" xmlns="http://www.w3.org/2000/svg" xmlns:xlink="http://www.w3.org/1999/xlink"><filter id="a" color-interpolation-filters="sRGB" filterUnits="userSpaceOnUse" height="36" width="195" x="-1" y="0"><feFlood flood-opacity="0" result="BackgroundImageFix"/><feColorMatrix in="SourceAlpha" type="matrix" values="0 0 0 0 0 0 0 0 0 0 0 0 0 0 0 0 0 0 127 0"/><feOffset dy="1"/><feGaussianBlur stdDeviation=".5"/><feColorMatrix type="matrix" values="0 0 0 0 0 0 0 0 0 0 0 0 0 0 0 0 0 0 0.2 0"/><feBlend in2="BackgroundImageFix" mode="normal" result="effect1_dropShadow"/><feBlend in="SourceGraphic" in2="effect1_dropShadow" mode="normal" result="shape"/></filter><filter id="b" color-interpolation-filters="sRGB" filterUnits="userSpaceOnUse" height="36" width="177" x="-1" y="0"><feFlood flood-opacity="0" result="BackgroundImageFix"/><feColorMatrix in="SourceAlpha" type="matrix" values="0 0 0 0 0 0 0 0 0 0 0 0 0 0 0 0 0 0 127 0"/><feOffset dy="1"/><feGaussianBlur stdDeviation=".5"/><feColorMatrix type="matrix" values="0 0 0 0 0 0 0 0 0 0 0 0 0 0 0 0 0 0 0.2 0"/><feBlend in2="BackgroundImageFix" mode="normal" result="effect1_dropShadow"/><feBlend in="SourceGraphic" in2="effect1_dropShadow" mode="normal" result="shape"/></filter><filter id="c" color-interpolation-filters="sRGB" filterUnits="userSpaceOnUse" height="48" width="56.621" x="8" y="48"><feFlood flood-opacity="0" result="BackgroundImageFix"/><feColorMatrix in="SourceAlpha" type="matrix" values="0 0 0 0 0 0 0 0 0 0 0 0 0 0 0 0 0 0 127 0"/><feOffset dy="8"/><feGaussianBlur stdDeviation="8"/><feColorMatrix type="matrix" values="0 0 0 0 0 0 0 0 0 0 0 0 0 0 0 0 0 0 0.2 0"/><feBlend in2="BackgroundImageFix" mode="normal" result="effect1_dropShadow"/><feBlend in="SourceGraphic" in2="effect1_dropShadow" mode="normal" result="shape"/></filter><clipPath id="d"><path d="m0 0h193v105c0 4.418-3.582 8-8 8h-185z"/></clipPath><clipPath id="e"><path d="m24 56h24.621v16h-24.621z"/></clipPath><g clip-path="url(#d)"><path d="m0 8c0-4.41827 3.58172-8 8-8h185v113h-193z" fill="#36393f"/><path d="m0 8c0-4.41827 3.58172-8 8-8h185v113h-193z" fill="#4f545c" fill-opacity=".16"/><g filter="url(#a)"><path d="m0 8c0-4.41828 3.58172-8 8-8h185v34h-193z" fill="#36393f"/><path d="m0 8c0-4.41828 3.58172-8 8-8h185v34h-193z" fill="#4f545c" fill-opacity=".16"/></g><path d="m0 8c0-4.41827 3.58172-8 8-8h167v113h-175z" fill="#2f3136"/><g filter="url(#b)"><path d="m0 8c0-4.41828 3.58172-8 8-8h167v34h-175z" fill="#2f3136"/></g><path d="m73.434 19.186c0-1.288-.714-1.988-1.792-2.324.84-.35 1.4-1.008 1.4-2.016 0-1.526-1.036-2.506-3.206-2.506h-2.814v9.66h2.772c2.268 0 3.64-.91 3.64-2.814zm-2.114-4.186c0 .826-.574 1.316-1.666 1.316h-.854v-2.562h.938c1.12 0 1.582.476 1.582 1.246zm.336 4.13c0 .966-.686 1.456-1.862 1.456h-.994v-2.954h.966c1.232 0 1.89.518 1.89 1.498zm5.8567-2.87c.812 0 1.232.588 1.344 1.638h-2.702c.126-1.092.686-1.638 1.358-1.638zm2.968 5.054-.196-1.316c-.742.518-1.456.84-2.324.84-1.036 0-1.75-.574-1.82-1.89h4.34c0-.098.014-.266.014-.406 0-1.918-.91-3.444-2.94-3.444-1.764 0-3.08 1.33-3.08 3.528 0 2.436 1.414 3.514 3.304 3.514 1.092 0 1.974-.322 2.702-.826zm6.3833-1.302c0-1.274-.686-1.75-2.436-2.198-1.008-.266-1.26-.476-1.26-.84s.308-.616.938-.616c.672 0 1.47.238 2.142.616l.224-1.4c-.672-.294-1.484-.476-2.366-.476-1.568 0-2.492.826-2.492 2.002 0 1.232.686 1.708 2.324 2.128 1.078.266 1.372.462 1.372.938 0 .448-.392.714-1.12.714-.84 0-1.736-.322-2.464-.798l-.224 1.4c.644.35 1.652.658 2.632.658 1.778 0 2.73-.798 2.73-2.128zm4.9445 1.988-.21-1.414c-.154.042-.336.056-.532.056-.644 0-.882-.294-.882-.84v-3.192h1.582l-.21-1.372h-1.372v-2.394l-1.666.252v2.142h-.952v1.372h.952v3.472c0 1.54.896 2.03 2.226 2.03.49 0 .798-.056 1.064-.112zm9.8205-8.05v-1.61h-5.4039v9.66h1.848v-3.99h2.9819l-.266-1.596h-2.7159v-2.464zm5.024 2.814-.266-1.666c-1.05.056-1.722.714-2.17 1.498l-.21-1.358h-1.428v6.762h1.68v-3.878c.49-.728 1.344-1.288 2.394-1.358zm2.984-3.612c0-.574-.448-.98-.994-.98-.56 0-1.008.406-1.008.98 0 .56.448.952 1.008.952.546 0 .994-.392.994-.952zm-.168 8.848v-6.762h-1.68v6.762zm4.466-5.74c.812 0 1.232.588 1.344 1.638h-2.702c.126-1.092.686-1.638 1.358-1.638zm2.968 5.054-.196-1.316c-.742.518-1.456.84-2.324.84-1.036 0-1.75-.574-1.82-1.89h4.34c0-.098.014-.266.014-.406 0-1.918-.91-3.444-2.94-3.444-1.764 0-3.08 1.33-3.08 3.528 0 2.436 1.414 3.514 3.304 3.514 1.092 0 1.974-.322 2.702-.826zm7.139.686v-4.872c0-1.26-.672-2.03-1.932-2.03-.91 0-1.624.49-2.254 1.092l-.154-.952h-1.428v6.762h1.68v-4.564c.49-.518 1.022-.854 1.54-.854.616 0 .868.406.868.994v4.424zm3.041-3.29c0-1.484.63-2.198 1.512-2.198.574 0 .896.098 1.316.294v2.898c-.448.574-.924.938-1.54.938-.742 0-1.288-.616-1.288-1.932zm-1.694.098c0 2.282 1.134 3.332 2.548 3.332.938 0 1.596-.504 2.072-1.078l.14.938h1.442v-10.108l-1.68.266v3.262c-.406-.14-.924-.252-1.568-.252-1.568 0-2.954 1.12-2.954 3.64zm12.922 1.204c0-1.274-.686-1.75-2.436-2.198-1.008-.266-1.26-.476-1.26-.84s.308-.616.938-.616c.672 0 1.47.238 2.142.616l.224-1.4c-.672-.294-1.484-.476-2.366-.476-1.568 0-2.492.826-2.492 2.002 0 1.232.686 1.708 2.324 2.128 1.078.266 1.372.462 1.372.938 0 .448-.392.714-1.12.714-.84 0-1.736-.322-2.464-.798l-.224 1.4c.644.35 1.652.658 2.632.658 1.778 0 2.73-.798 2.73-2.128z" fill="#fff"/><path d="m0 8c0-4.41827 3.58172-8 8-8h30v113h-38z" fill="#202225"/><path d="m62 18.0001c0 .79-1.28 1.38-1.52 2.09s.44 2 0 2.59-1.84.35-2.46.8-.79 1.84-1.54 2.09-1.67-.8-2.47-.8-1.75 1-2.47.8-.92-1.64-1.54-2.09-2-.18-2.46-.8.23-1.84 0-2.59-1.54-1.3-1.54-2.09 1.28-1.38 1.52-2.09-.44-2 0-2.59 1.85-.32 2.48-.8.78-1.84 1.53-2.09 1.67.8 2.47.8 1.75-1 2.47-.8.91 1.64 1.53 2.09 2 .18 2.46.8-.23 1.84 0 2.59 1.54 1.3 1.54 2.09z" fill="#4f545c"/><path d="m54 13-3 3v4l3 3 3-3v-4zm2 6.6-2 2-2-2v-3.2l2-2 2 2z" fill="#fff"/><path clip-rule="evenodd" d="m162.06 14.7268-3.06 3.0533-3.06-3.0533-.94.94 4 4 4-4z" fill="#b9bbbe" fill-rule="evenodd"/><path d="m46 46c0-2.2091 1.7909-4 4-4h113c2.209 0 4 1.7909 4 4v69h-121z" fill="#18191c"/><path d="m59.916 59.636c0-1.284-.624-1.872-2.328-2.568-1.152-.48-1.416-.732-1.416-1.26 0-.504.348-.888 1.14-.888.648 0 1.356.252 1.956.648l.24-1.44c-.6-.312-1.248-.504-2.184-.504-1.548 0-2.676.852-2.676 2.316 0 1.284.648 1.812 2.256 2.472 1.2.516 1.488.768 1.488 1.38 0 .648-.504 1.008-1.236 1.008-.828 0-1.692-.324-2.388-.732l-.24 1.44c.732.36 1.596.588 2.604.588 1.596 0 2.784-.84 2.784-2.46zm3.5184-2.556c.696 0 1.056.504 1.152 1.404h-2.316c.108-.936.588-1.404 1.164-1.404zm2.544 4.332-.168-1.128c-.636.444-1.248.72-1.992.72-.888 0-1.5-.492-1.56-1.62h3.72c0-.084.012-.228.012-.348 0-1.644-.78-2.952-2.52-2.952-1.512 0-2.64 1.14-2.64 3.024 0 2.088 1.212 3.012 2.832 3.012.936 0 1.692-.276 2.316-.708zm4.6675-3.9-.228-1.428c-.9.048-1.476.612-1.86 1.284l-.18-1.164h-1.224v5.796h1.44v-3.324c.42-.624 1.152-1.104 2.052-1.164zm5.8582-1.308h-1.44l-1.248 4.032-1.272-4.116-1.512.192 2.004 5.724h1.44zm3.0671.876c.696 0 1.056.504 1.152 1.404h-2.316c.108-.936.588-1.404 1.164-1.404zm2.544 4.332-.168-1.128c-.636.444-1.248.72-1.992.72-.888 0-1.5-.492-1.56-1.62h3.72c0-.084.012-.228.012-.348 0-1.644-.78-2.952-2.52-2.952-1.512 0-2.64 1.14-2.64 3.024 0 2.088 1.212 3.012 2.832 3.012.936 0 1.692-.276 2.316-.708zm4.6674-3.9-.228-1.428c-.9.048-1.476.612-1.86 1.284l-.18-1.164h-1.224v5.796h1.44v-3.324c.42-.624 1.152-1.104 2.052-1.164zm9.1207 2.076c0-1.104-.612-1.704-1.536-1.992.72-.3 1.2-.864 1.2-1.728 0-1.308-.888-2.148-2.748-2.148h-2.412v8.28h2.376c1.944 0 3.12-.78 3.12-2.412zm-1.812-3.588c0 .708-.492 1.128-1.428 1.128h-.732v-2.196h.804c.96 0 1.356.408 1.356 1.068zm.288 3.54c0 .828-.588 1.248-1.596 1.248h-.852v-2.532h.828c1.056 0 1.62.444 1.62 1.284zm7.8757-.444c0-1.884-1.152-3.012-2.7357-3.012-1.572 0-2.724 1.14-2.724 3.024s1.14 3.012 2.712 3.012c1.5837 0 2.7477-1.14 2.7477-3.024zm-1.404.012c0 1.08-.456 1.836-1.3437 1.836-.84 0-1.308-.78-1.308-1.848s.456-1.836 1.308-1.836c.8637 0 1.3437.78 1.3437 1.848zm7.732-.012c0-1.884-1.152-3.012-2.736-3.012-1.572 0-2.724 1.14-2.724 3.024s1.14 3.012 2.712 3.012c1.584 0 2.748-1.14 2.748-3.024zm-1.404.012c0 1.08-.456 1.836-1.344 1.836-.84 0-1.308-.78-1.308-1.848s.456-1.836 1.308-1.836c.864 0 1.344.78 1.344 1.848zm6.869 1.188c0-1.092-.588-1.5-2.088-1.884-.864-.228-1.08-.408-1.08-.72s.264-.528.804-.528c.576 0 1.26.204 1.836.528l.192-1.2c-.576-.252-1.272-.408-2.028-.408-1.344 0-2.136.708-2.136 1.716 0 1.056.588 1.464 1.992 1.824.924.228 1.176.396 1.176.804 0 .384-.336.612-.96.612-.72 0-1.488-.276-2.112-.684l-.192 1.2c.552.3 1.416.564 2.256.564 1.524 0 2.34-.684 2.34-1.824zm4.238 1.704-.18-1.212c-.132.036-.288.048-.456.048-.552 0-.756-.252-.756-.72v-2.736h1.356l-.18-1.176h-1.176v-2.052l-1.428.216v1.836h-.816v1.176h.816v2.976c0 1.32.768 1.74 1.908 1.74.42 0 .684-.048.912-.096z" fill="#fff"/><path d="m151 52-4 4v4l4 4 4-4v-4zm3 7.59-3 3-3-3v-3.18l3-3 3 3z" fill="#ff73fa"/><path d="m149 56.8301v2.34l2 2 2-2v-2.34l-2-2z" fill="#ff73fa"/><g fill="#fff" fill-opacity=".06"><rect height="10" rx="5" width="105" x="54" y="73"/><rect height="10" rx="5" width="105" x="54" y="91"/><rect height="10" rx="5" width="105" x="54" y="108"/></g><g clip-path="url(#e)" filter="url(#c)"><path d="m26.7397 59.0685 2.1918-1.6804c1.1587-.9025 2.5861-1.3912 4.0548-1.3881h7.5251v16h-10.9954c-.7363 0-1.4425-.2925-1.9631-.8131-.5207-.5207-.8132-1.2268-.8132-1.9631z" fill="#fff"/><g fill="#d4e4ff"><path d="m34.6665 56h11.9817c.5329 0 1.0439.2117 1.4207.5885.3768.3767.5885.8878.5885 1.4206-.0096.5265-.2255 1.0282-.6012 1.3971-.3758.369-.8814.5756-1.408.5755h-11.9817z"/><path d="m41.2423 59.9819h-3.9817c-1.1096 0-2.0091.8946-2.0091 1.9982s.8995 1.9982 2.0091 1.9982h3.9817c1.1096 0 2.0092-.8946 2.0092-1.9982s-.8996-1.9982-2.0092-1.9982z"/><path d="m41.2423 64h-3.9817c-1.1096 0-2.0091.8946-2.0091 1.9982 0 1.1035.8995 1.9981 2.0091 1.9981h3.9817c1.1096 0 2.0092-.8946 2.0092-1.9981 0-1.1036-.8996-1.9982-2.0092-1.9982z"/><path d="m41.2423 67.9817h-3.9817c-1.1096 0-2.0091.8946-2.0091 1.9982 0 1.1035.8995 1.9981 2.0091 1.9981h3.9817c1.1096 0 2.0092-.8946 2.0092-1.9981 0-1.1036-.8996-1.9982-2.0092-1.9982z"/><path d="m29.9909 67.5069c-.0701-.0011-.1383-.0224-.1966-.0613-.0583-.0388-.1042-.0936-.1322-.1578-.0373-.0874-.039-.1859-.0049-.2745.0341-.0887.1013-.1606.1876-.2004 3.6529-1.6439 5.2237-3.7991 5.2237-7.1964 0-.0969.0385-.1898.107-.2583s.1614-.107.2583-.107.1898.0385.2583.107.107.1614.107.2583c0 3.726-1.6804 6.0639-5.6621 7.8539z"/></g><path d="m37.7355 63.0502-4.2375-4.2374v-2.8128h1.169c1.0642.0112 2.0838.4295 2.8493 1.1689l3.0685 3.0685c.3681.3756.5743.8805.5743 1.4064s-.2062 1.0309-.5743 1.4064c-.1841.1923-.4053.3453-.6501.4498-.2449.1046-.5083.1585-.7746.1585-.2662 0-.5296-.0539-.7745-.1585-.2448-.1045-.466-.2575-.6501-.4498z" fill="#fff"/><path d="m27.1779 58.7397h-.7306v11.9635h.7306z" fill="#d4e4ff"/><path d="m25.2053 71.927h.0365c.6658 0 1.2055-.5397 1.2055-1.2055v-12c0-.6657-.5397-1.2055-1.2055-1.2055h-.0365c-.6658 0-1.2055.5398-1.2055 1.2055v12c0 .6658.5397 1.2055 1.2055 1.2055z" fill="#fff"/></g></g></svg>