<svg fill="none" height="40" viewBox="0 0 40 40" width="40" xmlns="http://www.w3.org/2000/svg"><path d="m3.575 0h32.85c.9481 0 1.8575.376651 2.5279 1.04709.6705.67045 1.0471 1.57976 1.0471 2.52791v5.725h-40v-5.725c0-.94815.376651-1.85746 1.04709-2.52791.67045-.670439 1.57976-1.04709 2.52791-1.04709z" fill="#98b7f7"/><path d="m0 9.29993h40v27.12497c0 .9482-.3766 1.8575-1.0471 2.5279-.6704.6705-1.5798 1.0471-2.5279 1.0471h-32.85c-.94815 0-1.85746-.3766-2.52791-1.0471-.670439-.6704-1.04709-1.5797-1.04709-2.5279z" fill="#c9dbf7"/><g fill="#fff"><path d="m4.6499 6.6549c1.10733 0 2.005-.89767 2.005-2.005s-.89767-2.005-2.005-2.005-2.005.89767-2.005 2.005.89767 2.005 2.005 2.005z"/><path d="m11.715 6.6549c1.1073 0 2.005-.89767 2.005-2.005s-.8977-2.005-2.005-2.005c-1.1074 0-2.00504.89767-2.00504 2.005s.89764 2.005 2.00504 2.005z"/><path d="m33.3451 2.6449h-12.37c-1.1073 0-2.005.89767-2.005 2.005s.8977 2.005 2.005 2.005h12.37c1.1073 0 2.005-.89767 2.005-2.005s-.8977-2.005-2.005-2.005z"/></g><path d="m21.43 13.62h-16.78498v21.845h16.78498z" fill="#718ef7"/><path d="m35.3549 13.62h-11.065v10.725h11.065z" fill="#d954e6"/><path d="m35.3549 27.21h-11.065v2.545h11.065z" fill="#718ef7"/><path d="m35.3549 32.615h-11.065v2.855h11.065z" fill="#718ef7"/></svg>