<svg height="130" width="158" xmlns="http://www.w3.org/2000/svg" xmlns:xlink="http://www.w3.org/1999/xlink"><defs><rect id="a" height="80" rx="40" width="80"/></defs><g fill="none" fill-rule="evenodd"><g stroke-linecap="round" stroke-width="2.252"><path d="m151.113 82.556a4.556 4.556 0 1 1 -9.113 0 4.556 4.556 0 0 1 9.113 0zm-45.113-63a4.556 4.556 0 1 0 9.113 0 4.556 4.556 0 0 0 -9.113 0zm-78 16a4.556 4.556 0 1 0 9.113 0 4.556 4.556 0 0 0 -9.113 0zm-5 76a4.556 4.556 0 1 0 9.113 0 4.556 4.556 0 0 0 -9.113 0zm-21-29a4.556 4.556 0 1 0 9.113 0 4.556 4.556 0 0 0 -9.113 0z" stroke="#595d63"/><path d="m42.927 43.17 1.235 1.234m6.266 6.266 1.235 1.235m-8.736.001 1.235-1.235m6.266-6.266 1.235-1.235" stroke="#494c51"/><path d="m124 60h3.341m3.659 0h3.341m-5.341-2.913v-1.087m0 8.087v-1.087" stroke="#494c51"/><path d="m131.532 112.483v-3.341m0-4.507v-3.34m-2.836 5.594h-1.087m7.847 0h-1.087" stroke="#595d63"/><path d="m40.468 128.753v-3.341m0-4.507v-3.34m2.836 5.594h1.087m-7.847 0h1.087" stroke="#595d63"/><path d="m140.662 53.228v-3.341m0-4.507v-3.34m-2.837 5.594h-1.087m7.848 0h-1.087" stroke="#494c51"/><path d="m95.662 13.228v-3.341m0-4.507v-3.34m-2.837 5.594h-1.087m7.848 0h-1.087" stroke="#494c51"/><path d="m121.338 125.958v-3.341m0-4.507v-3.34m2.837 5.594h1.087m-7.848 0h1.087" stroke="#494c51"/><path d="m48.152 11.155v3.34m0 4.508v3.34m2.837-5.593h1.087m-7.848 0h1.087" stroke="#494c51"/><path d="m156.841 94.36-1.235 1.234m-6.266 6.266-1.234 1.235m8.735 0-1.235-1.235m-6.266-6.266-1.234-1.234" stroke="#494c51"/></g><path d="m151.353 98.727a1.12 1.12 0 1 0 2.24 0 1.12 1.12 0 0 0 -2.24 0" fill="#494c51"/><path d="m127.841 33.36-1.234 1.234m-6.267 6.266-1.234 1.235m8.735 0-1.234-1.235m-6.267-6.266-1.234-1.235" stroke="#494c51" stroke-linecap="round" stroke-width="2.252"/><path d="m122.353 37.727a1.12 1.12 0 1 0 2.24 0 1.12 1.12 0 0 0 -2.24 0" fill="#494c51"/><path d="m34.842 77.36-1.235 1.234m-6.267 6.266-1.234 1.235m8.736 0-1.235-1.235m-6.267-6.266-1.234-1.234" stroke="#494c51" stroke-linecap="round" stroke-width="2.252"/><path d="m29.353 81.727a1.12 1.12 0 1 0 2.24 0 1.12 1.12 0 0 0 -2.24 0" fill="#494c51"/><path d="m85 17v1.747m0 8.253v1.747m-6-5.747h1.747m9.253 0h1.747" stroke="#595d63" stroke-linecap="round" stroke-width="2.252"/><path d="m85.912 23.913a1.119 1.119 0 1 1 -1.584-1.584 1.119 1.119 0 1 1 1.584 1.584" fill="#494c51"/><path d="m147.729 118.365a1.365 1.365 0 1 1 -2.73 0 1.365 1.365 0 0 1 2.73 0m-130.729-19a1.365 1.365 0 1 0 2.73 0 1.365 1.365 0 0 0 -2.73 0" fill="#494c51"/><path d="m61.729 29.365a1.365 1.365 0 1 1 -2.73 0 1.365 1.365 0 0 1 2.73 0m6-17a1.365 1.365 0 1 1 -2.73 0 1.365 1.365 0 0 1 2.73 0m21 35a1.365 1.365 0 1 1 -2.73 0 1.365 1.365 0 0 1 2.73 0m22-6a1.365 1.365 0 1 1 -2.73 0 1.365 1.365 0 0 1 2.73 0m42 28a1.365 1.365 0 1 1 -2.73 0 1.365 1.365 0 0 1 2.73 0m-137.729 53a1.365 1.365 0 1 0 2.73 0 1.365 1.365 0 0 0 -2.73 0" fill="#595d63"/><path d="m19.54 50.917v2.128m0 8.861v1.747m-6.177-6.178h1.747m8.86 0h1.748" stroke="#494c51" stroke-linecap="round" stroke-width="2.252"/><path d="m20.333 58.268a1.119 1.119 0 1 1 -1.584-1.584 1.119 1.119 0 1 1 1.584 1.584" fill="#494c51"/><g transform="translate(40 43)"><use stroke="#fff" stroke-opacity=".2" stroke-width="6" xlink:href="#a"/><use xlink:href="#a"/></g><path d="m62.77 81.24-5.17 5.28 13.785 14.08 31.015-29.92-5.17-5.28-25.845 24.64-8.616-8.8z" fill="#3ba55c"/></g></svg>