<svg width="485" height="151" viewBox="0 0 485 151" fill="none" xmlns="http://www.w3.org/2000/svg">
<g clip-path="url(#clip0_37_8435)">
<path d="M485 66.5V150.974H27L0 119C19.4396 118.442 -1.29798 106.233 16 109.5C29.4644 112.043 27.6033 116.731 36 120C46.4746 124.078 118.445 126.422 134 125.5C139.653 125.166 160.347 125.166 166 125.5C167.073 125.563 182.94 126.409 184 126.5C199.886 127.841 222.5 124 222.5 124C222.5 124 252.137 119.582 271.216 120.098C273.023 120.147 274.035 120.24 275.842 120.27C276.324 120.278 276.606 120.388 277.077 120.284C277.118 120.275 277.183 120.258 277.183 120.258C287.124 120.158 293.538 116.723 302.5 112.5C310.201 108.871 333.019 87.3249 342.5 86C361.554 83.3299 359.175 87.4284 362.5 80.5C372.916 80.6976 400.766 93.7591 410.5 95.5C424.41 98.0119 411.272 78.4626 422 75.5C429.324 73.4776 452.072 70.1427 458.5 66.5C466.344 62.0548 472.749 65.6515 485 66.5Z" fill="white"/>
<path d="M391.589 100.705C402.185 100.84 411.972 101.638 422.304 99.5992C423.143 99.4335 424.223 99.117 424.908 98.4614C425.476 97.9189 425.361 96.8835 424.857 96.2777C423.699 94.8731 419.701 94.4692 418.014 94.0864C418.014 94.0864 407.476 97.9852 391.589 100.705Z" fill="#BACDFF"/>
<path d="M347.03 36.0121L347.688 40.5649L347.638 40.5423C347.548 40.4996 347.469 40.435 347.41 40.3545C347.351 40.274 347.313 40.1801 347.299 40.0811L346.636 35.4982C346.629 35.4551 346.634 35.411 346.651 35.3707C346.668 35.3304 346.695 35.2955 346.73 35.2697C346.766 35.2439 346.807 35.2282 346.851 35.2244C346.894 35.2206 346.938 35.2287 346.977 35.248L347.854 35.6655C347.944 35.7091 348.022 35.7741 348.082 35.8547C348.141 35.9354 348.179 36.0292 348.194 36.1281L348.223 36.321L347.25 35.8614C347.226 35.8486 347.199 35.8426 347.171 35.8442C347.144 35.8458 347.117 35.8548 347.095 35.8703C347.072 35.8859 347.054 35.9073 347.042 35.9322C347.031 35.9572 347.027 35.9848 347.03 36.0121V36.0121Z" fill="#FF7700"/>
<path d="M420.894 65.7402H365.821L363.307 77.6791C362.463 81.6876 363.074 85.865 365.031 89.4652C366.988 93.0654 370.164 95.8539 373.991 97.3326V97.3326C386.453 102.148 400.267 102.148 412.73 97.3326C416.556 95.8534 419.732 93.0649 421.689 89.4648C423.646 85.8647 424.257 81.6875 423.414 77.6791L420.894 65.7402Z" fill="url(#paint0_linear_37_8435)"/>
<path d="M393.354 71.3511C408.581 71.3511 420.924 68.9524 420.924 65.9935C420.924 63.0346 408.581 60.6359 393.354 60.6359C378.128 60.6359 365.785 63.0346 365.785 65.9935C365.785 68.9524 378.128 71.3511 393.354 71.3511Z" fill="#7090FF"/>
<path d="M393.354 88.7876C376.831 88.7876 363.384 85.6741 362.942 81.7934C362.964 82.5001 363.03 83.2047 363.138 83.9033H363.158C363.158 83.9545 363.158 84.0058 363.165 84.054L363.215 84.3418C364.174 88.1095 377.3 91.0904 393.354 91.0904C409.408 91.0904 422.533 88.1065 423.492 84.3418L423.542 84.054C423.542 84.0028 423.549 83.9515 423.549 83.9033H423.569C423.678 83.2047 423.743 82.5001 423.765 81.7934C423.323 85.6741 409.878 88.7876 393.354 88.7876Z" fill="#5865F2"/>
<path d="M416.689 64.6326C416.689 67.0348 406.241 68.9835 393.354 68.9835C380.468 68.9835 370.018 67.0348 370.018 64.6326V61.0383H416.689V64.6326Z" fill="#DBE5FF"/>
<path d="M393.354 65.0108C406.242 65.0108 416.689 63.2322 416.689 61.0382C416.689 58.8442 406.242 57.0656 393.354 57.0656C380.467 57.0656 370.02 58.8442 370.02 61.0382C370.02 63.2322 380.467 65.0108 393.354 65.0108Z" fill="white"/>
<path d="M393.354 63.8308C405.455 63.8308 415.265 62.4799 415.265 60.8136C415.265 59.1473 405.455 57.7965 393.354 57.7965C381.254 57.7965 371.444 59.1473 371.444 60.8136C371.444 62.4799 381.254 63.8308 393.354 63.8308Z" fill="url(#paint1_linear_37_8435)"/>
<path d="M357.929 0.971527C351.268 4.07305 345.333 10.4991 346.455 20.6401L363.887 6.80534L357.929 0.971527Z" fill="#FFC619"/>
<path d="M357.929 0.971527L357.42 8.18731L365.039 5.07072L357.929 0.971527Z" fill="#FFAF19"/>
<path d="M358.553 2.04306L358.139 7.89647L364.321 5.36763L358.553 2.04306Z" fill="#FF7700"/>
<path d="M358.503 2.74689L358.089 8.60179L364.271 6.07296L358.503 2.74689Z" fill="#FF8C00"/>
<path d="M398.834 21.9376L360.182 52.3696C353.759 47.1703 347.394 41.6409 344.895 29.4624C342.43 17.4587 351.908 5.0767 366.501 3.68117C370.552 3.29536 374.023 3.53047 377.175 4.36689V5.52731C383.13 7.95217 387.712 11.1125 393.365 17.6561C394.052 17.7179 393.72 19.1632 394.41 19.2837L396.273 18.8859C397.377 20.1412 397.659 20.518 398.834 21.9376Z" fill="white"/>
<path d="M347.216 33.3745L346.083 36.9481L331.612 32.3796C331.49 32.3411 331.377 32.2791 331.279 32.1969C331.181 32.1148 331.1 32.0142 331.041 31.9009C330.982 31.7876 330.946 31.6639 330.935 31.5367C330.924 31.4095 330.938 31.2814 330.977 31.1597L331.524 29.434C331.562 29.3123 331.624 29.1993 331.707 29.1016C331.789 29.0039 331.89 28.9233 332.003 28.8645C332.117 28.8056 332.241 28.7697 332.368 28.7587C332.495 28.7477 332.624 28.7618 332.746 28.8003L347.217 33.3687L347.216 33.3745Z" fill="white"/>
<path d="M344.598 32.55L343.468 36.1165C343.434 36.2224 343.36 36.3107 343.261 36.3619C343.163 36.4131 343.047 36.4231 342.941 36.3896L338.9 35.114C338.6 35.019 338.349 34.8086 338.203 34.5291C338.058 34.2496 338.03 33.9239 338.125 33.6236L338.79 31.5229C338.886 31.2226 339.096 30.9723 339.376 30.8271C339.656 30.6819 339.983 30.6537 340.284 30.7487L344.326 32.0247C344.432 32.0585 344.52 32.1328 344.571 32.2313C344.622 32.3297 344.632 32.4444 344.598 32.55V32.55Z" fill="#CCDAFF"/>
<path d="M347.216 33.3775L346.084 36.9482C346.051 37.0542 345.976 37.1425 345.878 37.1937C345.779 37.2449 345.664 37.2549 345.557 37.2214L341.511 35.9439C341.21 35.849 340.959 35.6386 340.814 35.3591C340.668 35.0796 340.64 34.7539 340.735 34.4536L341.402 32.3485C341.497 32.0482 341.708 31.7979 341.988 31.6527C342.268 31.5075 342.595 31.4793 342.895 31.5743L346.942 32.8517C347.048 32.8852 347.137 32.9594 347.188 33.0581C347.239 33.1567 347.249 33.2716 347.216 33.3775V33.3775Z" fill="#98AAD9"/>
<path d="M393.365 17.6547C385.722 17.4015 373.888 22.1351 364.286 31.6537L351.766 27.6419L350.673 19.335C355.582 9.66878 367.432 4.3353 377.175 4.36545V5.52588C383.13 7.95073 387.714 11.111 393.365 17.6547Z" fill="#7196FF"/>
<path d="M353.614 32.5051C356.502 36.2969 357.185 41.439 354.896 44.0477C352.417 46.8704 347.61 45.5276 344.46 40.9929C341.428 36.6224 341.428 31.4065 344.158 29.3343C346.696 27.4098 350.821 28.8355 353.614 32.5051Z" fill="#CCDAFF"/>
<path d="M343.905 29.9928C344.048 29.8031 344.221 29.6381 344.418 29.5046C344.626 29.3715 344.849 29.2628 345.082 29.1805C345.564 29.0159 346.073 28.9438 346.582 28.968C347.074 29.0107 347.554 29.142 347.999 29.3554C348.436 29.5483 348.855 29.7771 349.254 30.0396C349.643 30.3 350.016 30.5844 350.37 30.8911C350.717 31.1984 351.046 31.5255 351.356 31.8706C351.661 32.2145 351.946 32.5763 352.209 32.9542C352.473 33.3283 352.712 33.719 352.926 34.1237L352.944 34.1583C352.997 34.2624 353.007 34.3828 352.973 34.4944C352.939 34.606 352.863 34.7002 352.761 34.7572C352.659 34.8142 352.539 34.8297 352.426 34.8004C352.313 34.771 352.216 34.6992 352.154 34.5999C351.705 33.8677 351.192 33.1772 350.619 32.5368C350.049 31.8937 349.408 31.3168 348.709 30.8172C348.013 30.3129 347.235 29.933 346.409 29.6945C345.994 29.5814 345.562 29.5421 345.134 29.5784C344.701 29.622 344.289 29.7808 343.939 30.0381C343.937 30.0409 343.934 30.0432 343.931 30.0448C343.927 30.0464 343.923 30.0472 343.92 30.0472C343.916 30.0472 343.912 30.0464 343.909 30.0448C343.905 30.0432 343.902 30.0409 343.9 30.0381C343.896 30.0333 343.894 30.0275 343.894 30.0215C343.894 30.0155 343.896 30.0097 343.9 30.0049L343.905 29.9928Z" fill="white"/>
<path d="M349.734 35.9096C351.455 38.1701 352.126 41.0335 351.108 42.3281C350.006 43.7251 347.448 42.6913 345.546 40.0072C343.716 37.4241 343.393 34.5562 344.672 33.5857C345.858 32.686 348.07 33.7228 349.734 35.9096Z" fill="#FFAF19"/>
<path d="M361.585 20.4532C361.781 21.5172 361.118 22.5631 360.036 22.9519C358.837 23.3845 357.295 22.9519 356.614 21.7764C355.785 20.3417 356.646 18.6855 358.447 18.4232C360.011 18.1957 361.354 19.2084 361.585 20.4532Z" fill="black"/>
<path d="M377.175 5.52586V4.36392C367.432 4.33378 355.325 9.46379 350.415 19.1331L351.774 27.6419L352.621 27.9132L351.629 19.7947C358.613 9.4427 367.935 6.28692 377.175 5.52586Z" fill="#CCDAFF"/>
<path d="M363.556 15.92C363.267 15.6196 363.05 15.2565 362.923 14.859C362.797 14.4614 362.764 14.0401 362.827 13.6278C363.199 11.2798 364.337 10.4177 367.349 9.19552C371.608 7.46693 374.445 6.73299 376.462 6.93494C378.48 7.13688 380.806 8.47364 382.764 9.7471C384.723 11.0206 384.591 11.3943 384.591 12.3603C384.591 13.9759 383.844 14.431 380.237 16.2968C376.63 18.1625 373.302 19.5219 370.243 19.4329C367.45 19.3576 366.383 18.8663 363.556 15.92Z" fill="#B8CDFF"/>
<path d="M376.011 13.2389C376.322 13.5042 376.671 14.1989 375.875 14.5651C375.215 14.8665 374.572 15.1514 373.912 15.397C372.742 15.8386 371.628 15.9305 370.971 15.4694C370.425 15.0836 370.401 14.6073 371.666 14.0859C372.546 13.7212 373.176 13.471 373.943 13.1817C375.051 12.7491 375.698 12.9737 376.011 13.2389Z" fill="#7196FF"/>
<path d="M381.403 11.9474C380.988 12.1595 380.563 12.3502 380.128 12.5186C379.301 12.8366 378.677 12.8893 378.043 12.4101C377.409 11.9309 377.876 11.5134 378.407 11.2738C378.88 11.0647 379.363 10.8796 379.855 10.7192C380.548 10.4856 381.082 10.5489 381.526 10.7885C382.059 11.0763 382.212 11.527 381.403 11.9474Z" fill="#7196FF"/>
<path d="M397.028 20.0735C399.43 25.6797 391.346 36.9374 379.594 44.7515C368.492 52.1361 358.287 53.613 356.272 48.4498C354.27 43.3258 360.94 33.1728 371.672 25.3602C383.033 17.0986 394.644 14.514 397.028 20.0735Z" fill="white"/>
<path d="M399.389 22.8675C401.409 27.874 393.128 38.5741 381.51 46.2917C370.533 53.5889 360.709 55.4425 359.036 50.8129C357.375 46.2254 364.253 36.6134 374.898 28.9425C386.159 20.836 397.387 17.9018 399.389 22.8675Z" fill="#DBE5FF"/>
<path d="M398.077 23.9225C399.451 27.8273 391.867 37.9849 381.042 45.181C370.816 51.9869 361.487 53.4442 360.386 49.8258C359.294 46.2345 366.104 37.8839 376.07 30.8098C386.613 23.3272 396.714 20.0509 398.077 23.9225Z" fill="url(#paint2_linear_37_8435)"/>
<path d="M348.508 40.9627L347.638 40.5453C347.548 40.5025 347.47 40.438 347.41 40.3575C347.351 40.277 347.313 40.1831 347.299 40.0841L346.636 35.5012C346.63 35.458 346.635 35.4141 346.652 35.3739C346.669 35.3338 346.697 35.2989 346.732 35.2731C346.767 35.2473 346.809 35.2315 346.852 35.2273C346.895 35.2232 346.939 35.2308 346.979 35.2495L347.848 35.6669C347.939 35.7097 348.017 35.7742 348.076 35.8547C348.136 35.9352 348.174 36.0292 348.188 36.1281L348.851 40.7111C348.857 40.7542 348.851 40.7982 348.834 40.8383C348.817 40.8785 348.79 40.9133 348.755 40.9391C348.72 40.9649 348.678 40.9808 348.635 40.9849C348.591 40.9891 348.547 40.9814 348.508 40.9627Z" fill="#FF8C00"/>
<path d="M428.508 50.6426C427.785 50.1782 427.17 49.5652 426.704 48.8445C426.237 48.1238 425.93 47.3121 425.804 46.4635L425.366 43.5474C425.354 43.4784 425.318 43.4157 425.265 43.37C425.212 43.3244 425.144 43.2986 425.074 43.2972V43.2972C425.004 43.2986 424.937 43.3244 424.884 43.37C424.83 43.4157 424.795 43.4784 424.783 43.5474L424.345 46.4681C424.218 47.3164 423.911 48.1279 423.444 48.8485C422.978 49.5691 422.363 50.1823 421.641 50.6471L421.262 50.8913C421.221 50.9183 421.187 50.9549 421.163 50.998C421.14 51.0411 421.127 51.0893 421.126 51.1384V51.1565C421.127 51.2056 421.14 51.2538 421.163 51.2969C421.187 51.34 421.221 51.3766 421.262 51.4037L421.641 51.6478C422.363 52.112 422.978 52.7248 423.445 53.4452C423.911 54.1656 424.218 54.9771 424.345 55.8254L424.783 58.746C424.793 58.8158 424.828 58.8795 424.882 58.9255C424.935 58.9715 425.004 58.9966 425.074 58.9962V58.9962C425.144 58.9948 425.212 58.969 425.265 58.9234C425.318 58.8777 425.354 58.815 425.366 58.746L425.804 55.8254C425.931 54.9771 426.238 54.1656 426.704 53.4452C427.17 52.7248 427.785 52.112 428.508 51.6478L428.887 51.4037C428.927 51.3765 428.961 51.3397 428.984 51.2967C429.008 51.2536 429.02 51.2055 429.021 51.1565V51.1384C429.02 51.0894 429.008 51.0413 428.984 50.9982C428.961 50.9552 428.927 50.9184 428.887 50.8913L428.508 50.6426Z" fill="#FF78B9"/>
<path d="M353.865 68.786C353.368 68.4663 352.945 68.0447 352.625 67.5491C352.304 67.0536 352.093 66.4955 352.005 65.9121L351.703 63.9032C351.696 63.8552 351.671 63.8115 351.634 63.78C351.598 63.7484 351.551 63.7312 351.502 63.7314V63.7314C351.454 63.7312 351.407 63.7485 351.37 63.7801C351.334 63.8117 351.31 63.8554 351.303 63.9032L351.001 65.9121C350.913 66.4956 350.702 67.0538 350.381 67.5494C350.061 68.0449 349.638 68.4665 349.141 68.786L348.879 68.9533C348.851 68.9718 348.828 68.9971 348.812 69.0268C348.796 69.0566 348.787 69.0898 348.787 69.1236V69.1357C348.787 69.1695 348.796 69.2027 348.812 69.2324C348.828 69.2622 348.851 69.2874 348.879 69.306L349.141 69.4732C349.638 69.7927 350.061 70.2143 350.381 70.7099C350.702 71.2055 350.913 71.7637 351.001 72.3472L351.303 74.3561C351.31 74.4039 351.334 74.4476 351.37 74.4792C351.407 74.5107 351.454 74.528 351.502 74.5279V74.5279C351.551 74.5281 351.598 74.5108 351.634 74.4793C351.671 74.4477 351.696 74.404 351.703 74.3561L352.005 72.3472C352.092 71.763 352.303 71.204 352.624 70.7076C352.944 70.2113 353.368 69.7889 353.865 69.4687L354.126 69.3014C354.154 69.2829 354.178 69.2577 354.194 69.2279C354.21 69.1982 354.218 69.1649 354.218 69.1311V69.1191C354.218 69.0853 354.21 69.052 354.194 69.0223C354.178 68.9926 354.154 68.9673 354.126 68.9488L353.865 68.786Z" fill="#57F287"/>
<path d="M406.199 20.2226C405.893 20.0255 405.632 19.7657 405.435 19.4603C405.237 19.155 405.107 18.8113 405.053 18.4519L404.867 17.2146C404.862 17.1851 404.847 17.1584 404.824 17.139C404.802 17.1197 404.773 17.1091 404.743 17.1091V17.1091C404.713 17.1091 404.685 17.1198 404.662 17.1391C404.64 17.1585 404.625 17.1853 404.621 17.2146L404.435 18.4519C404.381 18.8113 404.251 19.155 404.053 19.4603C403.855 19.7657 403.595 20.0255 403.289 20.2226L403.128 20.3266C403.11 20.3379 403.096 20.3534 403.086 20.3715C403.077 20.3897 403.072 20.41 403.072 20.4306V20.4306C403.072 20.4514 403.077 20.4719 403.087 20.4903C403.096 20.5086 403.11 20.5244 403.128 20.5361L403.289 20.6386C403.595 20.8357 403.855 21.0956 404.053 21.4009C404.251 21.7062 404.381 22.05 404.435 22.4094L404.624 23.6542C404.628 23.6835 404.643 23.7103 404.665 23.7296C404.688 23.749 404.716 23.7597 404.746 23.7597V23.7597C404.776 23.7597 404.805 23.7491 404.827 23.7298C404.85 23.7104 404.865 23.6836 404.87 23.6542L405.056 22.4169C405.109 22.0567 405.238 21.7119 405.435 21.4055C405.632 21.0991 405.892 20.8382 406.199 20.6401L406.359 20.5376C406.376 20.5261 406.391 20.5105 406.401 20.4921C406.411 20.4737 406.416 20.4531 406.416 20.4321V20.4321C406.416 20.4114 406.411 20.3909 406.401 20.3727C406.391 20.3545 406.376 20.3392 406.359 20.3281L406.199 20.2226Z" fill="#EBF3FF"/>
<path d="M388.674 29.268C388.425 29.1084 388.214 28.8978 388.053 28.6501C387.893 28.4024 387.787 28.1234 387.744 27.8318L387.593 26.8266C387.589 26.8029 387.577 26.7813 387.559 26.7656C387.54 26.7499 387.517 26.7411 387.493 26.7407C387.469 26.7411 387.446 26.7499 387.428 26.7656C387.409 26.7813 387.397 26.8029 387.393 26.8266L387.243 27.8318C387.199 28.1234 387.093 28.4024 386.933 28.6501C386.772 28.8978 386.561 29.1084 386.312 29.268L386.183 29.3524C386.168 29.3615 386.157 29.374 386.149 29.3888C386.14 29.4035 386.136 29.42 386.136 29.4368C386.136 29.4536 386.14 29.4701 386.149 29.4848C386.157 29.4995 386.168 29.512 386.183 29.5212L386.312 29.6056C386.561 29.7651 386.772 29.9758 386.933 30.2235C387.093 30.4711 387.199 30.7501 387.243 31.0418L387.393 32.047C387.397 32.0707 387.409 32.0923 387.428 32.108C387.446 32.1237 387.469 32.1325 387.493 32.1329C387.517 32.1325 387.54 32.1237 387.559 32.108C387.577 32.0923 387.589 32.0707 387.593 32.047L387.744 31.0418C387.787 30.7501 387.893 30.4711 388.053 30.2235C388.214 29.9758 388.425 29.7651 388.674 29.6056L388.804 29.5212C388.818 29.5123 388.83 29.4999 388.838 29.4851C388.846 29.4703 388.851 29.4537 388.85 29.4368C388.851 29.4199 388.846 29.4032 388.838 29.3884C388.83 29.3736 388.818 29.3612 388.804 29.3524L388.674 29.268Z" fill="#FFE75C"/>
<path d="M397.25 57.4545C396.4 58.8282 395.283 60.0181 393.966 60.9541C392.648 61.89 391.156 62.553 389.577 62.904C387.898 63.2886 386.156 63.3076 384.469 62.9598C379.832 62.0088 376.165 58.4582 375.126 53.9174C374.927 53.0273 374.833 52.1168 374.847 51.2047L373.909 51.0133C373.422 50.9157 372.976 50.6701 372.633 50.3101C372.291 49.9502 372.068 49.4934 371.995 49.0023C371.922 48.5111 372.003 48.0094 372.226 47.5659C372.45 47.1223 372.805 46.7583 373.244 46.5238L369.445 45.7432C369.134 45.6793 368.838 45.5549 368.575 45.3771C368.312 45.1992 368.086 44.9713 367.911 44.7065C367.558 44.1716 367.432 43.5186 367.561 42.8911C367.69 42.2635 368.064 41.7129 368.6 41.3603C369.136 41.0078 369.79 40.8821 370.419 41.011L376.198 42.191C376.103 42.0882 376.016 41.9789 375.936 41.864C375.595 41.3708 375.411 40.7873 375.406 40.1887C375.401 39.59 375.576 39.0036 375.908 38.505C376.24 38.0064 376.714 37.6184 377.269 37.3912C377.824 37.1639 378.434 37.1077 379.022 37.2298L389.769 39.4331L389.835 39.4482C394.272 40.5905 397.665 44.0161 398.693 48.388C399.071 49.9189 399.138 51.5098 398.89 53.0669C398.642 54.6241 398.084 56.1159 397.25 57.4545V57.4545Z" fill="white"/>
<path d="M370.284 44.539L369.714 44.4215C369.436 44.3645 369.193 44.1999 369.037 43.9637C368.881 43.7276 368.825 43.4393 368.882 43.1623C368.939 42.8853 369.104 42.6423 369.341 42.4867C369.578 42.3311 369.866 42.2757 370.144 42.3327L370.715 42.4502C370.992 42.5072 371.236 42.6719 371.391 42.908C371.547 43.1441 371.603 43.4324 371.546 43.7094C371.489 43.9864 371.324 44.2294 371.087 44.385C370.851 44.5406 370.562 44.596 370.284 44.539V44.539ZM397.377 48.706C396.427 44.6536 393.262 41.7284 389.497 40.7593L378.75 38.5575C378.325 38.4796 377.887 38.5709 377.529 38.8119C377.171 39.053 376.922 39.4245 376.835 39.8467C376.748 40.269 376.831 40.7083 377.065 41.0705C377.299 41.4328 377.666 41.6889 378.087 41.7841L380.844 42.3493C381.122 42.406 381.365 42.5705 381.521 42.8065C381.677 43.0425 381.733 43.3307 381.676 43.6077C381.619 43.8847 381.454 44.1277 381.218 44.2835C380.981 44.4392 380.693 44.4948 380.415 44.438L373.663 43.0546C373.526 43.0264 373.384 43.0254 373.247 43.0518C373.109 43.0782 372.978 43.1314 372.861 43.2084C372.744 43.2854 372.643 43.3846 372.565 43.5004C372.486 43.6162 372.431 43.7464 372.403 43.8834C372.374 44.0205 372.373 44.1618 372.4 44.2992C372.426 44.4366 372.48 44.5675 372.557 44.6843C372.634 44.8012 372.733 44.9017 372.849 44.9802C372.965 45.0587 373.096 45.1136 373.233 45.1418L378.083 46.1365C378.344 46.2084 378.568 46.3766 378.709 46.6072C378.85 46.8377 378.899 47.1133 378.844 47.3781C378.79 47.6429 378.636 47.8771 378.415 48.0333C378.194 48.1895 377.922 48.256 377.654 48.2192L374.61 47.5953C374.473 47.5672 374.331 47.5664 374.193 47.5929C374.056 47.6195 373.924 47.6728 373.807 47.7499C373.69 47.827 373.59 47.9264 373.511 48.0423C373.432 48.1583 373.377 48.2886 373.349 48.4257C373.321 48.5629 373.32 48.7042 373.347 48.8417C373.373 48.9791 373.427 49.11 373.504 49.2269C373.581 49.3437 373.681 49.4443 373.797 49.5227C373.913 49.6012 374.044 49.656 374.181 49.6841L376.272 50.1121C376.13 51.2794 376.188 52.4625 376.446 53.61C377.749 59.3187 383.557 62.8829 389.279 61.5823C395.204 60.2305 398.775 54.4328 397.377 48.706Z" fill="url(#paint3_linear_37_8435)"/>
<path d="M392.914 49.7625C392.64 48.5863 392.024 47.5174 391.142 46.6911C390.26 45.8648 389.152 45.318 387.959 45.1201C386.765 44.9221 385.54 45.0817 384.438 45.5788C383.335 46.0759 382.405 46.8881 381.765 47.9128C381.125 48.9374 380.804 50.1284 380.842 51.3353C380.881 52.5421 381.276 53.7105 381.98 54.6928C382.683 55.6751 383.663 56.4271 384.794 56.8537C385.926 57.2804 387.159 57.3625 388.337 57.0898C389.12 56.9088 389.859 56.5757 390.513 56.1095C391.166 55.6432 391.722 55.053 392.147 54.3726C392.572 53.6921 392.858 52.9347 392.99 52.1437C393.121 51.3527 393.095 50.5435 392.914 49.7625ZM391.094 52.2657L388.528 55.1035C388.477 55.1617 388.41 55.2035 388.335 55.2233C388.26 55.2432 388.181 55.2403 388.108 55.215L384.398 54.4615C384.325 54.4449 384.256 54.4123 384.197 54.3659C384.138 54.3195 384.09 54.2605 384.057 54.1932L382.819 50.5763C382.787 50.4962 382.779 50.4086 382.797 50.3242C382.814 50.2398 382.856 50.1624 382.917 50.1015L385.484 47.2638C385.535 47.2055 385.602 47.1638 385.677 47.1439C385.751 47.124 385.83 47.1269 385.904 47.1522L389.613 47.9058C389.806 47.9449 389.899 47.9645 389.954 48.174L391.192 51.791C391.224 51.871 391.232 51.9586 391.215 52.043C391.197 52.1274 391.155 52.2048 391.094 52.2657V52.2657Z" fill="white"/>
<path d="M416.4 41.4511C416.2 43.0525 415.681 44.5977 414.872 45.9954C414.064 47.3932 412.983 48.6151 411.694 49.5892C410.329 50.6364 408.753 51.3772 407.074 51.7608C402.46 52.8158 397.645 51.1158 394.81 47.416C394.257 46.6896 393.791 45.9005 393.424 45.065L392.491 45.2805C392.007 45.3942 391.499 45.3559 391.037 45.1709C390.576 44.9858 390.182 44.6629 389.911 44.2464C389.641 43.8298 389.505 43.34 389.524 42.8437C389.542 42.3474 389.714 41.869 390.015 41.4737L386.24 42.3433C385.931 42.4145 385.61 42.4242 385.297 42.3717C384.983 42.3193 384.683 42.2058 384.414 42.0376C384.145 41.8695 383.911 41.65 383.727 41.3918C383.542 41.1335 383.41 40.8416 383.339 40.5325C383.268 40.2235 383.258 39.9034 383.311 39.5907C383.363 39.2779 383.477 38.9785 383.645 38.7096C383.814 38.4407 384.034 38.2076 384.292 38.0235C384.551 37.8394 384.844 37.708 385.153 37.6367L390.906 36.312C390.776 36.2586 390.65 36.1957 390.53 36.1236C390.015 35.8162 389.605 35.3621 389.351 34.8198C389.097 34.2775 389.012 33.6718 389.106 33.0807C389.2 32.4896 389.47 31.9402 389.879 31.5033C390.289 31.0663 390.821 30.7618 391.405 30.6289L402.092 28.1754L402.158 28.1619C406.668 27.3586 411.181 29.0661 413.935 32.6137C414.916 33.848 415.639 35.2658 416.063 36.7835C416.486 38.3013 416.601 39.8883 416.4 41.4511V41.4511Z" fill="white"/>
<path d="M386.506 40.9025L385.938 41.0336C385.802 41.0657 385.66 41.0706 385.521 41.048C385.383 41.0254 385.25 40.9757 385.13 40.9019C385.011 40.8281 384.907 40.7315 384.825 40.6177C384.743 40.5039 384.685 40.3751 384.653 40.2387C384.62 40.1022 384.616 39.9608 384.638 39.8224C384.661 39.6841 384.711 39.5515 384.785 39.4324C384.859 39.3132 384.955 39.2098 385.069 39.1279C385.183 39.0461 385.312 38.9875 385.449 38.9554L386.017 38.8258C386.153 38.7937 386.295 38.7888 386.433 38.8114C386.572 38.834 386.705 38.8835 386.824 38.9573C386.943 39.031 387.047 39.1275 387.129 39.2412C387.211 39.3549 387.269 39.4837 387.302 39.62C387.334 39.7564 387.339 39.8977 387.316 40.036C387.293 40.1742 387.244 40.3067 387.17 40.4257C387.096 40.5448 386.999 40.6482 386.885 40.73C386.771 40.8119 386.643 40.8705 386.506 40.9025V40.9025ZM412.872 33.4501C410.319 30.1587 406.229 28.8129 402.395 29.4956L391.704 31.9431C391.282 32.0453 390.917 32.3095 390.689 32.6785C390.461 33.0474 390.388 33.4913 390.485 33.9139C390.583 34.3364 390.843 34.7035 391.21 34.9355C391.577 35.1675 392.021 35.2457 392.446 35.1531L395.189 34.5216C395.328 34.4848 395.472 34.4761 395.614 34.4962C395.756 34.5163 395.893 34.5647 396.016 34.6385C396.138 34.7123 396.245 34.8101 396.329 34.9259C396.414 35.0418 396.474 35.1734 396.506 35.3129C396.538 35.4524 396.542 35.5969 396.517 35.7379C396.492 35.8789 396.439 36.0134 396.361 36.1335C396.283 36.2536 396.181 36.3568 396.062 36.4369C395.944 36.517 395.81 36.5724 395.669 36.5999L388.952 38.1506C388.675 38.2142 388.435 38.3848 388.285 38.6249C388.134 38.865 388.086 39.1549 388.149 39.4309C388.213 39.7069 388.384 39.9463 388.624 40.0965C388.865 40.2467 389.155 40.2954 389.432 40.2319L394.263 39.1212C394.54 39.0578 394.83 39.1065 395.07 39.2566C395.31 39.4067 395.48 39.6458 395.544 39.9214C395.607 40.197 395.558 40.4865 395.408 40.7261C395.258 40.9658 395.018 41.1361 394.742 41.1994L391.722 41.8957C391.446 41.9592 391.207 42.1296 391.057 42.3692C390.907 42.6089 390.859 42.8983 390.922 43.1737C390.986 43.449 391.157 43.6879 391.397 43.8377C391.637 43.9875 391.927 44.0359 392.203 43.9724L394.285 43.4947C394.641 44.6155 395.186 45.6671 395.899 46.6037C399.463 51.253 406.23 52.0834 410.888 48.5252C415.7 44.8254 416.532 38.0708 412.872 33.4501Z" fill="url(#paint4_linear_37_8435)"/>
<path d="M409.255 36.2577C408.516 35.3016 407.51 34.5856 406.363 34.2003C405.217 33.815 403.982 33.7777 402.814 34.0931C401.646 34.4084 400.598 35.0623 399.803 35.9721C399.008 36.8818 398.5 38.0066 398.345 39.2041C398.19 40.4016 398.395 41.6181 398.932 42.6997C399.47 43.7813 400.317 44.6795 401.366 45.2807C402.415 45.8819 403.619 46.1591 404.826 46.0773C406.033 45.9954 407.188 45.5582 408.146 44.8208C409.431 43.8318 410.269 42.3741 410.477 40.7683C410.684 39.1625 410.245 37.5401 409.255 36.2577ZM408.651 39.2899L407.493 42.9355C407.471 43.0097 407.427 43.0757 407.367 43.1248C407.308 43.174 407.235 43.2041 407.157 43.2113L403.467 44.0598C403.394 44.0753 403.318 44.0744 403.245 44.0569C403.172 44.0394 403.104 44.0059 403.046 43.9588L400.413 41.1828C400.351 41.1234 400.307 41.0472 400.287 40.9634C400.268 40.8796 400.273 40.7919 400.303 40.7111L401.453 37.067C401.475 36.9932 401.519 36.9277 401.578 36.8786C401.638 36.8295 401.71 36.7991 401.787 36.7912L405.477 35.9428C405.67 35.899 405.761 35.8779 405.9 36.0452L408.533 38.8197C408.595 38.8791 408.638 38.9551 408.658 39.0385C408.677 39.122 408.672 39.2093 408.643 39.2899H408.651Z" fill="white"/>
</g>
<defs>
<linearGradient id="paint0_linear_37_8435" x1="369.081" y1="70.6608" x2="401.252" y2="83.0431" gradientUnits="userSpaceOnUse">
<stop stop-color="#6688FF"/>
<stop offset="1" stop-color="#5278FF"/>
</linearGradient>
<linearGradient id="paint1_linear_37_8435" x1="371.442" y1="60.8136" x2="415.265" y2="60.8136" gradientUnits="userSpaceOnUse">
<stop stop-color="#242145"/>
<stop offset="1"/>
</linearGradient>
<linearGradient id="paint2_linear_37_8435" x1="393.527" y1="25.4748" x2="366.55" y2="49.2329" gradientUnits="userSpaceOnUse">
<stop/>
<stop offset="1" stop-color="#242145"/>
</linearGradient>
<linearGradient id="paint3_linear_37_8435" x1="368.862" y1="50.189" x2="397.68" y2="50.189" gradientUnits="userSpaceOnUse">
<stop stop-color="#B473F5"/>
<stop offset="1" stop-color="#E292D6"/>
</linearGradient>
<linearGradient id="paint4_linear_37_8435" x1="392.802" y1="48.5945" x2="410.454" y2="30.9085" gradientUnits="userSpaceOnUse">
<stop stop-color="#B473F5"/>
<stop offset="1" stop-color="#E292D6"/>
</linearGradient>
<clipPath id="clip0_37_8435">
<rect width="485" height="151" fill="white"/>
</clipPath>
</defs>
</svg>
