<svg fill="none" height="160" viewBox="0 0 266 160" width="266" xmlns="http://www.w3.org/2000/svg" xmlns:xlink="http://www.w3.org/1999/xlink"><linearGradient id="a" gradientUnits="userSpaceOnUse" x1=".100098" x2="265.009" y1="153.964" y2="153.964"><stop offset="0" stop-color="#cccfde"/><stop offset=".89" stop-color="#d2d4e2"/><stop offset="1" stop-color="#d3d5e3"/></linearGradient><linearGradient id="b" gradientUnits="userSpaceOnUse" x1="94.9688" x2="95.6331" y1="101.03" y2="108.313"><stop offset="0" stop-color="#ffc285"/><stop offset="1" stop-color="#db8d6b"/></linearGradient><linearGradient id="c" gradientUnits="userSpaceOnUse" x1="88.8967" x2="101.977" y1="108.526" y2="102.257"><stop offset="0" stop-color="#d67569"/><stop offset="1" stop-color="#e39e7f"/></linearGradient><clipPath id="d"><path d="m90.0034 19.5679h8.30766v8.46308h-8.30766z"/></clipPath><clipPath id="e"><path d="m109.388 37.5519h34.6153v7.05256h-34.6153z"/></clipPath><clipPath id="f"><path d="m109.388 71.4042h34.6153v7.05257h-34.6153z"/></clipPath><clipPath id="g"><path d="m109.388 99.6145h34.6153v7.05257h-34.6153z"/></clipPath><clipPath id="h"><path d="m109.388 120.772h34.6153v7.05256h-34.6153z"/></clipPath><mask id="i" height="139" maskUnits="userSpaceOnUse" width="215" x="25" y="5"><path d="m239.317 5.64467h-213.525v137.84633h213.525z" fill="#36393f"/></mask><mask id="j" height="15" maskUnits="userSpaceOnUse" width="14" x="90" y="37"><ellipse cx="96.9265" cy="44.6045" fill="#c4c4c4" rx="6.92305" ry="7.05256"/></mask><mask id="k" height="15" maskUnits="userSpaceOnUse" width="14" x="90" y="71"><ellipse cx="96.9265" cy="78.4568" fill="#c4c4c4" rx="6.92305" ry="7.05257"/></mask><mask id="l" height="15" maskUnits="userSpaceOnUse" width="14" x="90" y="99"><ellipse cx="96.9265" cy="106.667" fill="#c4c4c4" rx="6.92305" ry="7.05257"/></mask><mask id="m" height="15" maskUnits="userSpaceOnUse" width="14" x="90" y="120"><ellipse cx="96.9265" cy="127.825" fill="#c4c4c4" rx="6.92305" ry="7.05256"/></mask><path d="m236.933.787918h-208.8015c-3.9739 0-7.1955 3.281792-7.1955 7.330092v139.07799c0 4.049 3.2216 7.33 7.1955 7.33h208.8015c3.974 0 7.195-3.281 7.195-7.33v-139.07799c0-4.0483-3.221-7.330092-7.195-7.330092z" fill="#11111a"/><path d="m236.933 2.13701c1.561-.00004 3.059.62866 4.167 1.74904s1.737 2.64158 1.748 4.23196v139.04699c0 1.598-.623 3.131-1.732 4.261-1.11 1.13-2.614 1.765-4.183 1.765h-208.7573c-1.5689 0-3.0735-.635-4.1828-1.765s-1.7325-2.663-1.7325-4.261v-139.04699c.0116-1.59038.64-3.11158 1.748-4.23196 1.1081-1.12038 2.606-1.74908 4.1673-1.74904zm0-1.349092h-208.7573c-1.9125-.000036-3.7473.770802-5.1037 2.144182s-2.1243 3.23772-2.136 5.18591v139.04699c0 1.956.7628 3.832 2.1205 5.215s3.1991 2.16 5.1192 2.16h208.7573c1.92 0 3.761-.777 5.119-2.16s2.121-3.259 2.121-5.215v-139.04699c-.012-1.94819-.78-3.81253-2.136-5.18591-1.357-1.37338-3.192-2.144218-5.104-2.144182z" fill="#b8b9c9"/><path d="m265.009 151.347h-264.908902v5.212h264.908902z" fill="url(#a)"/><path d="m150.675 152.696h-36.242c-.348-.011-.678-.157-.924-.407-.246-.251-.389-.588-.4-.942h38.891c-.011.354-.154.691-.4.942-.246.25-.577.396-.925.407z" fill="#b8b9c9"/><path d="m.100098 156.563c5.397922 1.327 10.888002 2.229 16.421602 2.699h232.0653c5.534-.47 11.024-1.372 16.422-2.699z" fill="#acadbf"/><g mask="url(#i)"><rect fill="#292841" height="186.893" rx="6.63796" width="262.037" x="25.9648" y="5.46274"/><path d="m25.9648 12.1007c0-3.66605 2.972-6.63796 6.638-6.63796h47.708v186.89326h-47.708c-3.666 0-6.638-2.972-6.638-6.638z" fill="#1c1b29"/><g clip-path="url(#d)"><path clip-rule="evenodd" d="m92.2405 26.9731c-.2118 0-.3723-.191-.336-.3996l.1762-1.011h-.9663c-.2186 0-.3845-.1968-.3475-.4123.0291-.1692.1758-.2929.3475-.2929h1.0874l.367-2.1158h-.9663c-.2186 0-.3845-.1969-.3475-.4123.029-.1692.1758-.2929.3475-.2929h1.0874l.1966-1.1281c.0284-.1633.1702-.2825.3359-.2825.2118 0 .3723.191.336.3996l-.1762 1.011h2.0769l.1966-1.1281c.0284-.1633.1702-.2825.3359-.2825.2118 0 .3723.191.336.3996l-.1762 1.011h.9663c.2186 0 .3845.1968.3475.4123-.0291.1692-.1758.2929-.3475.2929h-1.0874l-.3669 2.1158h.9662c.2186 0 .3845.1969.3475.4123-.029.1693-.1758.2929-.3475.2929h-1.0874l-.1965 1.1281c-.0285.1633-.1702.2825-.336.2825-.2117 0-.3723-.191-.336-.3996l.1762-1.011h-2.0769l-.1966 1.1281c-.0284.1633-.1702.2825-.3359.2825zm1.0208-4.2316-.3669 2.1158h2.0769l.3669-2.1158z" fill="#b9bbbe" fill-rule="evenodd"/></g><g fill="#fff"><path d="m103.981 25.2663c0-.6417-.339-.8815-1.204-1.1072-.499-.134-.624-.2398-.624-.4232 0-.1833.153-.3103.464-.3103.333 0 .727.1199 1.06.3103l.11-.7052c-.332-.1481-.734-.2398-1.17-.2398-.775 0-1.232.4161-1.232 1.0085 0 .6206.339.8604 1.149 1.072.533.134.679.2327.679.4725 0 .2257-.194.3597-.554.3597-.416 0-.859-.1622-1.219-.402l-.11.7053c.318.1763.817.3314 1.301.3314.879 0 1.35-.402 1.35-1.072z"/><path d="m106.426 26.2678-.104-.7123c-.076.0212-.166.0282-.263.0282-.318 0-.436-.1481-.436-.4231v-1.608h.782l-.103-.6912h-.679v-1.206l-.824.127v1.079h-.471v.6912h.471v1.749c0 .7758.443 1.0226 1.101 1.0226.242 0 .395-.0282.526-.0564z"/><path d="m107.033 22.8614v2.4473c0 .6417.325 1.0296.955 1.0296.443 0 .803-.2468 1.115-.5501l.076.4796h.706v-3.4064h-.831v2.2992c-.242.2538-.505.4231-.761.4231-.305 0-.43-.1975-.43-.4937v-2.2286z"/><path d="m111.403 24.6105c0-.7476.311-1.1073.747-1.1073.284 0 .443.0494.651.1481v1.4599c-.221.2891-.457.4725-.761.4725-.367 0-.637-.3103-.637-.9732zm-.838.0493c0 1.1496.561 1.6785 1.26 1.6785.464 0 .789-.2539 1.025-.543l.069.4725h.713v-5.0919l-.831.134v1.6432c-.201-.0705-.457-.1269-.775-.1269-.776 0-1.461.5642-1.461 1.8336z"/><path d="m114.83 27.5514c.602 0 .99-.2469 1.274-1.065l1.28-3.625h-.837l-.748 2.3979-.762-2.4472-.865.1128 1.212 3.3359-.028.0987c-.111.3667-.332.4937-.609.4937-.146 0-.263-.0212-.367-.0494l.11.7123c.077.0212.16.0353.34.0353z"/><path d="m119.533 24.6457v-.8181h-1.8v.8181z"/><path d="m122.091 23.9687c0 .3738-.221.6488-.588.6488-.36 0-.582-.268-.582-.6206 0-.3738.215-.663.582-.663.353 0 .588.2751.588.6348zm1.184 2.4402c0-.5219-.429-.7406-1.115-.8393l-.429-.0423c-.519-.0776-.623-.1058-.623-.2186 0-.0565.056-.1199.139-.1834.083.0141.173.0212.27.0212.72 0 1.336-.4373 1.336-1.1708 0-.1551-.028-.3103-.09-.4443l.609-.0423-.111-.677-.817.2962c-.242-.2046-.56-.3174-.948-.3174-.748 0-1.343.4584-1.343 1.206 0 .4513.235.804.63.9944-.277.1693-.423.3526-.423.543 0 .134.063.261.194.3668-.415.2398-.63.4866-.63.804 0 .5642.686.8463 1.593.8463.969 0 1.758-.4091 1.758-1.1425zm-1.703.6417c-.63 0-.928-.1833-.928-.4372 0-.1763.111-.3385.353-.5149.167.0353.27.0565.499.0847l.45.0564c.415.0635.561.1693.561.3526 0 .2539-.34.4584-.935.4584z"/><path d="m125.882 23.6302-.132-.8393c-.519.0282-.851.3597-1.073.7546l-.103-.6841h-.707v3.4064h.831v-1.9536c.242-.3667.665-.6488 1.184-.684z"/><path d="m129.298 24.5611c0-1.1073-.664-1.7702-1.578-1.7702-.907 0-1.572.67-1.572 1.7772 0 1.1073.658 1.7702 1.565 1.7702.914 0 1.585-.67 1.585-1.7772zm-.81.007c0 .6348-.263 1.0791-.775 1.0791-.485 0-.755-.4584-.755-1.0861s.264-1.0791.755-1.0791c.499 0 .775.4585.775 1.0861z"/><path d="m129.959 22.8614v2.4473c0 .6417.325 1.0296.955 1.0296.443 0 .803-.2468 1.115-.5501l.076.4796h.706v-3.4064h-.831v2.2992c-.242.2538-.505.4231-.761.4231-.305 0-.43-.1975-.43-.4937v-2.2286z"/><path d="m135.886 24.5188c0 .7475-.325 1.1072-.754 1.1072-.284 0-.443-.0493-.644-.1481v-1.4599c.221-.2891.457-.4795.754-.4795.374 0 .644.3244.644.9803zm.838-.0494c0-1.1425-.561-1.6785-1.26-1.6785-.464 0-.789.2609-1.025.536l-.076-.4655h-.706v4.7182l.831-.127v-1.2835c.201.0776.457.134.775.134.769 0 1.461-.5642 1.461-1.8337z"/></g><g mask="url(#j)"><g fill="#f7e5bc"><ellipse cx="96.9265" cy="44.6045" rx="6.92305" ry="7.05256"/><path d="m104.889 49.019-.941 2.2106c-.074.1746-.181.3323-.315.4638-.135.1316-.294.2343-.468.3022-.174.0678-.36.0994-.546.0928-.187-.0066-.37-.0512-.539-.1312l-3.516-1.63 1.751-2.8123 2.143 1.2173.316-.9515c1.105.4478 1.696.8395 2.115 1.2383z"/><path d="m100.802 47.9486c1.415.2378 1.545.5387 1.923 1.2942l-1.518-.1749z"/></g><path d="m94.1414 35.9649c-.2813.0893-.5188.2844-.6642.5455-.1453.2611-.1878.5688-.1186.8607l1.4078 5.8554 2.5203-.5317-1.6963-5.9324c-.0424-.1501-.1138-.29-.21-.4117s-.2152-.2226-.3501-.2968c-.135-.0743-.283-.1204-.4357-.1357-.1526-.0152-.3066.0006-.4532.0467z" fill="#d6569b"/><path d="m95.5418 41.8553.9958-.0419-1.0576-3.5259c-.0146-.0507-.0394-.0978-.0726-.1383-.0333-.0405-.0744-.0736-.1208-.0972-.0464-.0237-.0971-.0373-.1489-.0401-.0517-.0028-.1035.0053-.1521.0238-.0853.0331-.1555.0971-.1973.1797s-.0523.178-.0294.268z" fill="#e374b0"/><path d="m99.9716 35.9369c.2824.0865.5224.2792.6694.5391.148.2599.194.5674.127.8601l-1.3458 5.8624-2.5272-.4967 1.6344-5.9534c.0411-.1505.1112-.2913.2063-.4139s.2132-.2247.3475-.3003.282-.1231.4346-.1398c.1525-.0167.3068-.0022.4538.0425z" fill="#d6569b"/><path d="m99.0172 41.8413-.9889-.035 1.0164-3.5398c.0145-.0507.0392-.0977.0726-.138s.0747-.0731.1213-.0961c.0466-.0231.0974-.036.1491-.0378.0518-.0019.1034.0074.1514.0271.0851.0317.1557.094.1988.1752.043.0812.0553.1756.0347.2655z" fill="#e374b0"/><path d="m101.84 50.3762-.412 1.3292-.055.1678-.509 1.6231h-9.4489c-.0893-.3568.0206-.4268.261-.8255.2403-.3988.1167-.2939.1511-1.2593.0274-.6786.2678-1.3082 1.1262-2.0917.2609-.2309.3227-.3218.5906-.5736l.0824-.077.0412-.042.0549-.042 6.4555-1.0353 1.298 2.2036z" fill="#f7e5bc"/><path d="m101.427 51.7054c-.041.6366-.096 1.2382-.164 1.7909h-6.9433c.0069-.2869.0137-.6436.0275-1.0774-.0012-.0467.0011-.0935.0068-.1399v-.5387c-.048-1.2802-.4051-2.1547-1.4009-2.4205.1854-.1889.3777-.3778.5906-.5736l.0824-.077.0962-.084 6.4557-1.0353c.508.1889.844.3218 1.229.7205.041.5037.062 1.0004.068 1.4831.007.6786-.013 1.3292-.048 1.9519z" fill="#1f3a70"/><path d="m100.807 44.7809-7.4917.3053c-.9861.0402-1.7535.8871-1.7141 1.8917l.0001.0028c.0395 1.0045.8708 1.7863 1.8569 1.7461l7.4918-.3053c.987-.0401 1.754-.8871 1.714-1.8916v-.0028c-.039-1.0046-.87-1.7863-1.857-1.7462z" fill="#f06ea8"/><path d="m100.417 41.3972-7.2802.3108c-1.042.0445-1.8514.9412-1.8077 2.0027l.0026.0637c.0437 1.0615.9239 1.886 1.9659 1.8415l7.2794-.3108c1.042-.0445 1.852-.9411 1.808-2.0027l-.002-.0636c-.044-1.0616-.924-1.8861-1.966-1.8416z" fill="#f06ea8"/><path d="m100.926 48.3614c.961-.042 1.751-.8325 1.751-1.8119.003-.3562-.097-.7053-.287-1.004-.191-.2986-.464-.5334-.784-.675.241-.1877.435-.4319.564-.712s.19-.5878.177-.897v-.063c-.01-.2527-.07-.5008-.175-.7301-.104-.2293-.253-.4353-.436-.6062s-.397-.3033-.63-.3897c-.234-.0864-.482-.1251-.73-.1139l-6.4962.2799c-.5837 1.1403-.5013 2.3645-.0686 3.246.0631.1334.0987.2786.1046.4266s-.018.2957-.0703.4339c-.6249 1.6929.1992 2.9172.1992 2.9172z" fill="#e05fa3"/><path d="m95.68 44.9319c.1651-.11.1743-.3931.0206-.6324-.1537-.2392-.4121-.344-.5771-.234-.165.1101-.1742.3932-.0205.6324.1536.2393.412.344.577.234z" fill="#1b1926"/><path d="m98.9342 44.4095c.0714-.2605-.0129-.5121-.1882-.562-.1754-.0498-.3754.1209-.4468.3814s.0129.5121.1882.562c.1754.0498.3754-.1209.4468-.3814z" fill="#1b1926"/><path d="m96.4002 45.7729c.4532.7836 1.1194.9655 1.5657-.0489.0053-.0091.008-.0195.0077-.0301-.0003-.0105-.0035-.0207-.0092-.0295-.0058-.0088-.0138-.0157-.0233-.02-.0094-.0044-.0199-.0059-.0301-.0044l-1.4627.042c-.0099.0012-.0194.0047-.0276.0104-.0083.0057-.015.0134-.0198.0223-.0047.0089-.0072.0189-.0073.029-.0002.0102.0021.0202.0066.0292z" fill="#751b40"/><path d="m97.3135 45.661-.8652.021c-.0099.0012-.0194.0047-.0276.0104-.0083.0057-.015.0134-.0198.0223-.0047.0089-.0072.0189-.0073.029-.0002.0102.0021.0202.0066.0292.3914.6716.9339.9025 1.3666.3149-.1074-.184-.2648-.3322-.4533-.4268z" fill="#9c2455"/></g><g clip-path="url(#e)"><rect fill="#fdd171" height="7.05256" rx="3.31898" width="16.6153" x="109.388" y="37.5519"/><rect fill="#72767d" height="4.23154" rx="2.11577" width="16.6153" x="127.388" y="40.3729"/></g><path d="m109.388 49.334c0-1.8331 1.486-3.319 3.319-3.319h59.823c1.833 0 3.319 1.4859 3.319 3.319v13.1092c0 1.833-1.486 3.319-3.319 3.319h-59.823c-1.833 0-3.319-1.486-3.319-3.319z" fill="#1c1b29"/><path d="m123.234 54.976c0-1.833 1.486-3.319 3.319-3.319h43.208c1.833 0 3.319 1.486 3.319 3.319v1.8251c0 1.833-1.486 3.319-3.319 3.319h-43.208c-1.833 0-3.319-1.486-3.319-3.319z" fill="#dcddde"/><path d="m115.965 59.7675c-1.003 0-1.731-.8156-1.731-1.9395v-2.9973c0-1.4074.967-2.4684 2.25-2.4684s2.25 1.061 2.25 2.4684v2.4684h-.692v-2.4684c0-1.0219-.656-1.7632-1.558-1.7632-.903 0-1.558.7413-1.558 1.7632v2.9973c0 .6147.321 1.2342 1.039 1.2342.717 0 1.038-.6195 1.038-1.2342v-2.6447c0-.2123-.05-.7052-.519-.7052s-.519.4929-.519.7052v2.4684h-.693v-2.4684c0-.8438.487-1.4105 1.212-1.4105.724 0 1.211.5667 1.211 1.4105v2.6447c0 1.1239-.728 1.9395-1.73 1.9395z" fill="#b9bbbe"/><g mask="url(#k)"><ellipse cx="96.9265" cy="78.4568" fill="#ffb869" rx="6.92305" ry="7.05257"/><path d="m93.3735 80.76c.808 2.8622 4.0584 4.8452 6.6665 2.9745 2.607-1.8708.018-5.7058.018-5.7058s1.414-3.6292-2.1303-4.4897c-3.5442-.8605-4.4256.7109-4.5542 7.221z" fill="#4d7ae8"/><path d="m98.6259 78.6648c-.3956 0-.7162-.4355-.7162-.9728 0-.5372.3206-.9727.7162-.9727.3955 0 .7161.4355.7161.9727 0 .5373-.3206.9728-.7161.9728z" fill="#dbe7ff"/><path d="m98.9329 78.4307c-.1012-.007-.1724-.1715-.1594-.3673.013-.1959.1058-.349.207-.3419.1012.007.1726.1715.1594.3673-.0131.1959-.1058.3489-.207.3419z" fill="#201e2f"/><path d="m99.4522 75.8774c-.0476-.1453-.1387-.2717-.2606-.3612-.1221-.0896-.2685-.1377-.4189-.1377s-.2969.0481-.4188.1377c-.1219.0895-.2131.2159-.2606.3612z" fill="#201e2f"/><path d="m99.3788 80.0117c-.6978.1871-1.4508.0187-2.0751-.6735-.0816-.0948-.1961-.1536-.3194-.1641-.1234-.0104-.2459.0283-.3417.108-.1045.0722-.1766.1835-.2007.3097s.0018.257.0721.3638c.9549 1.5901 2.4424 1.8333 3.3606.9354.063-.0577.1098-.1314.1354-.2136.026-.0822.03-.1699.012-.2541-.013-.0716-.0405-.1397-.0804-.2-.04-.0603-.092-.1114-.1524-.1501-.0604-.0388-.1282-.0642-.1989-.0748s-.1427-.0061-.2115.0133z" fill="#590942"/><path d="m98.8456 80.0866c.1801.0015.3596-.0237.5325-.0749h.1653v.4677s-.2754.2058-1.3038.0935v-.2618l-1.7997-.6174c.0007-.0771.0194-.1529.0545-.2212s.0857-.1272.1475-.1716c0-.005.002-.0098.0054-.0133.0035-.0035.0081-.0054.013-.0054.0755-.0527.1657-.079.2571-.0749.0184-.0187.0551 0 .0735 0h.1652c.0184.0187.0368.0187.0368.0374s.0367 0 .0367.0187l.0734.0562c.1087.1268.232.2399.3673.3367l.2571.1683c.1197.0752.2497.1319.3856.1684.1716.0601.3513.0917.5326.0936z" fill="#dbe7ff"/><path d="m96.6419 79.2822c0-.005.002-.0098.0054-.0133.0035-.0035.0081-.0054.013-.0054.0755-.0527.1657-.079.2571-.0749.0184-.0187.0551 0 .0735 0h.1652c.0184.0187.0368.0187.0368.0374s.0367 0 .0367.0187l.0734.0562c.0578.0776.1258.1469.202.2058l-.5141.318-.551-.1871c.0062-.0707.0275-.1391.0624-.2005s.0826-.1143.1396-.1549z" fill="#b5cdff"/><path d="m94.1265 74.8485c.6611-1.4965 1.818-1.7959 3.8013-1.3095.3993.0909.7832.2422 1.1385.449.1102.5986-.7896.7857-2.4607.2432.5509 1.0102-.5877 2.8061-2.4791.6173z" fill="#201e2f"/><path d="m96.4402 73.4829.0919-1.2347c.0082-.1127-.0076-.2259-.0462-.3318s-.0992-.2021-.1776-.2821c-.0785-.0799-.1729-.1416-.2769-.1809-.104-.0394-.2151-.0554-.3257-.047-.1246.0072-.2457.0451-.3528.1104-.1071.0654-.197.1562-.262.2648-.065.1085-.1032.2315-.1113.3584-.008.1269.0143.2539.065.3701l.5509 1.2721z" fill="#201e2f"/><path d="m91.6658 80.0866.5509.2057 1.1569-.767v.9541l.9549.767c.2006.168.3658.3756.4857.6103.1199.2346.1921.4916.2121.7553l.0367.767c1.3957 1.1786 3.3055 1.5527 4.977.3555.271-.1849.513-.4122.716-.6735l.569.2058s-1.157 4.9575-3.085 5.8554c-1.9282.898-3.2688 0-3.2688 0-2.02-6.9966-1.4323-8.3061-6.4273-6.2857l-.2387-1.4217z" fill="#ef6767"/><path d="m95.6687 77.8604-3.636-3.4609-.3306.4303 2.8097 5.3316z" fill="#4d7ae8"/><path d="m94.3469 77.0747-1.4323-1.0289 1.1018 2.0204-.202-.7858z" fill="#3366e0"/></g><g clip-path="url(#f)"><rect fill="#fdd171" height="16.5949" rx="3.31898" width="39.8278" x="109.388" y="71.4042"/></g><path d="m109.388 83.1863c0-1.833 1.486-3.319 3.319-3.319h59.824c1.833 0 3.318 1.486 3.318 3.319v.4146c0 1.833-1.485 3.319-3.318 3.319h-63.143z" fill="#dcddde"/><path d="m109.388 86.9199h33.231v3.7336c0 1.833-1.486 3.3189-3.319 3.3189h-26.593c-1.833 0-3.319-1.4859-3.319-3.3189z" fill="#dcddde"/><g mask="url(#l)"><ellipse cx="96.9265" cy="106.667" fill="#ff82a6" rx="6.92305" ry="7.05257"/><path d="m100.854 101.252-.021.06-.061.147-.02.06-.048.107c-1.0443 2.45-3.036 4.262-4.3557 5.521-1.3667 1.297-2.9033 2.396-4.5652 3.266-1.6367.803-2.3721.091-2.184-1.265l.1666-.682.8198-3.434.035-.167c.5547-2.238 1.4005-3.525 4.1359-4.231l4.1623-1.0541.0132-.0066c1.4531-.3624 2.4611.1294 1.9221 1.6787z" fill="url(#b)"/><path d="m100.434 99.5936c-1.3192.229-3.7949 1.8504-6.2537 4.2264-2.4587 2.377-4.3412 4.996-4.5151 6.278.2285.683.9369.892 2.1224.315 1.6613-.868 3.1972-1.967 4.5633-3.264 1.3191-1.258 3.31-3.068 4.3541-5.516l.048-.107.02-.06.061-.147.021-.06c.32-.908.11-1.4496-.421-1.6654z" fill="url(#c)"/><path d="m96.4916 106.268c2.3807-2.301 3.9634-4.54 3.5364-4.999-.4282-.459-2.7049 1.034-5.0856 3.336-2.3806 2.302-3.9638 4.54-3.536 4.999s2.7045-1.034 5.0852-3.336z" fill="#6b3143"/><path d="m96.0131 110.286-.6322.466c-.1525.103-.2807.24-.3751.399-.0943.16-.1526.338-.1704.523l-.1093.837-1.114 1.04c-.2331.233-.3714.546-.3867.876l.0033.797s6.0517 3.257 9.3163 2.653c3.264-.604 1.304-6.277 1.304-6.277-.029-.055-.072-.102-.125-.134s-.114-.048-.176-.048l-.968-.063-.409-1.027c-.038-.095-.098-.179-.176-.244-.077-.066-.169-.111-.268-.132l-2.8541-.6z" fill="#ef6270"/><path d="m96.1347 111.981c-.8684-.164-.8093-.143-.5603-.551.1426-.252.3505-.46.601-.601z" fill="#bd3c53"/><path d="m97.4896 103.804c-.1043-.115-.9844.526-1.9605 1.448-.976.922-1.6802 1.758-1.5759 1.872 1.1603 1.803 1.9318 3.516 2.1661 4.865l4.7457.923c-.238-4.28-2.1967-7.199-3.3754-9.108z" fill="#ffb685"/><path d="m99.2686 107.609c-.0392-.152-.1542-.252-.2569-.224s-.1541.174-.1149.326.1542.252.2569.224.1541-.174.1149-.326z" fill="#543247"/><path d="m97.7126 108.507c.0745-.109.0215-.278-.1185-.376-.1399-.099-.3138-.09-.3883.019-.0746.11-.0216.278.1184.377.1399.099.3138.09.3884-.02z" fill="#543247"/><path d="m98.6881 109.995c.3978-.2.7627-.399.9334-.352.1707.048.0943.369-.0947.729-.189.361-.1343.201-.5677.085-.4334-.115-.576-.31-.271-.462z" fill="#c74153"/><path d="m98.854 109.928-.3059.219c.0116.128.188.255.4114.31.2234.054.4802.075.5679-.085l.0812-.174c-.1108-.094-.4178-.323-.7546-.27z" fill="#a82c3c"/><path d="m99.4552 109.642c-.2653.094-.5221.211-.7674.351-.1721.086-.1601.179-.0824.273l.9131-.423c.053-.027-.0116-.127-.0633-.201z" fill="#fff"/><path d="m100.607 108.378c.007-.02-.006-.047.001-.067-.015-.135-.071-.262-.161-.363s-.208-.171-.339-.2c.032.029.056.064.072.104s.023.084.02.127-.016.085-.038.123c-.021.037-.051.069-.086.094-.1274.074-.27.117-.4163.125-.1905.023-.3741.087-.538.189s-.3041.24-.4106.402c-.671-.029-.9068.404-1.3837.643-.1286.068-.267.115-.4098.139-.4684.085-.545-.109-.5549-.37-.5187.426-.1971 1.028.2026 1.177.2355.114.5522.055.8846-.211.8203.204 1.1113.091 1.5884-.695.7809.19 1.2847-.129 1.3267-.864.066-.034.123-.084.165-.146.042-.061.069-.133.077-.207z" fill="#6b3143"/><path d="m99.0386 109.595c.7807.19 1.2844-.128 1.3264-.863.066-.034.123-.084.165-.146.042-.061.069-.133.077-.207.007-.02-.006-.047.001-.067-.013-.069-.035-.136-.064-.2.009.11-.023.221-.09.309-.067.089-.163.149-.271.17-.237.534-.7121.639-1.257.53 0 0-.6162.872-1.4628.682-.5984.499-1.236.436-1.3682-.045-.013.16.0261.319.1112.453.0851.135.2116.236.3599.29.2355.114.5521.055.8845-.21.82.203 1.111.09 1.588-.696z" fill="#5e2737"/></g><g clip-path="url(#g)"><rect fill="#ffa78b" height="7.05257" rx="3.31898" width="16.6153" x="109.388" y="99.6145"/><rect fill="#72767d" height="4.23154" rx="2.11577" width="16.6153" x="127.388" y="102.436"/></g><path d="m109.388 111.397c0-1.833 1.486-3.319 3.319-3.319h59.824c1.833 0 3.318 1.486 3.318 3.319v.414c0 1.833-1.485 3.319-3.318 3.319h-59.824c-1.833 0-3.319-1.486-3.319-3.319z" fill="#dcddde"/><g mask="url(#m)"><g fill="#f7e5bc"><ellipse cx="96.9265" cy="127.825" rx="6.92305" ry="7.05256"/><path d="m104.889 132.239-.941 2.211c-.074.174-.181.332-.315.464-.135.131-.294.234-.468.302s-.36.099-.546.093c-.187-.007-.37-.052-.539-.132l-3.516-1.63 1.751-2.812 2.143 1.217.316-.951c1.105.448 1.696.839 2.115 1.238z"/><path d="m100.802 131.169c1.415.238 1.545.539 1.923 1.294l-1.518-.175z"/></g><path d="m94.1414 119.185c-.2813.09-.5188.285-.6642.546-.1453.261-.1878.569-.1186.86l1.4078 5.856 2.5203-.532-1.6963-5.932c-.0424-.15-.1138-.29-.21-.412s-.2152-.223-.3501-.297c-.135-.074-.2831-.12-.4357-.135-.1526-.016-.3066 0-.4532.046z" fill="#d6569b"/><path d="m95.5418 125.076.9958-.042-1.0576-3.526c-.0146-.051-.0394-.098-.0726-.139-.0333-.04-.0744-.073-.1208-.097-.0464-.023-.0971-.037-.1489-.04-.0517-.003-.1035.005-.1521.024-.0853.033-.1555.097-.1973.18-.0418.082-.0523.178-.0294.268z" fill="#e374b0"/><path d="m99.9716 119.157c.2824.087.5224.279.6694.539.148.26.194.568.127.86l-1.3458 5.863-2.5272-.497 1.6344-5.953c.0411-.151.1112-.292.2063-.414.0951-.123.2132-.225.3475-.301.1343-.075.282-.123.4346-.139.1525-.017.3068-.003.4538.042z" fill="#d6569b"/><path d="m99.0172 125.062-.9889-.035 1.0164-3.54c.0145-.051.0392-.098.0726-.138.0334-.041.0747-.073.1213-.096s.0974-.036.1491-.038c.0518-.002.1034.007.1514.027.0851.032.1557.094.1988.175.043.081.0553.176.0347.266z" fill="#e374b0"/><path d="m101.84 133.596-.412 1.33-.055.168-.509 1.623h-9.4489c-.0893-.357.0206-.427.261-.826.2403-.399.1167-.294.1511-1.259.0274-.679.2678-1.308 1.1262-2.092.2609-.231.3227-.322.5906-.574l.0824-.077.0412-.042.0549-.041 6.4555-1.036 1.298 2.204z" fill="#f7e5bc"/><path d="m101.427 134.926c-.041.636-.096 1.238-.164 1.791h-6.9433c.0069-.287.0137-.644.0275-1.078-.0012-.047.0011-.093.0068-.14v-.538c-.048-1.281-.4051-2.155-1.4009-2.421.1854-.189.3777-.378.5906-.574l.0824-.077.0962-.083 6.4547-1.036c.509.189.845.322 1.23.721.041.503.062 1 .068 1.483.007.678-.013 1.329-.048 1.952z" fill="#1f3a70"/><path d="m100.807 128.001-7.4917.306c-.9861.04-1.7535.887-1.7141 1.891l.0001.003c.0395 1.004.8708 1.786 1.8569 1.746l7.4918-.305c.987-.04 1.754-.887 1.714-1.892v-.003c-.039-1.004-.87-1.786-1.857-1.746z" fill="#f06ea8"/><path d="m100.417 124.617-7.2802.311c-1.042.045-1.8514.941-1.8077 2.003l.0026.064c.0437 1.061.9239 1.886 1.9659 1.841l7.2794-.311c1.042-.044 1.852-.941 1.808-2.002l-.002-.064c-.044-1.061-.924-1.886-1.966-1.842z" fill="#f06ea8"/><path d="m100.926 131.582c.961-.042 1.751-.833 1.751-1.812.003-.356-.097-.706-.287-1.004-.191-.299-.464-.534-.784-.675.241-.188.435-.432.564-.712s.19-.588.177-.897v-.063c-.01-.253-.07-.501-.175-.73-.104-.23-.253-.436-.436-.607-.183-.17-.397-.303-.63-.389-.234-.087-.482-.125-.73-.114l-6.4962.28c-.5837 1.14-.5013 2.364-.0686 3.246.0631.133.0987.278.1046.426s-.018.296-.0703.434c-.6249 1.693.1992 2.917.1992 2.917z" fill="#e05fa3"/><path d="m95.68 128.152c.1651-.11.1743-.393.0206-.632s-.4121-.344-.5771-.234-.1742.393-.0205.632c.1536.239.412.344.577.234z" fill="#1b1926"/><path d="m98.9342 127.63c.0714-.261-.0129-.512-.1882-.562-.1754-.05-.3754.121-.4468.381-.0714.261.0129.512.1882.562.1754.05.3754-.121.4468-.381z" fill="#1b1926"/><path d="m96.4002 128.993c.4532.784 1.1194.966 1.5657-.049.0053-.009.008-.019.0077-.03-.0003-.01-.0035-.021-.0092-.029-.0058-.009-.0138-.016-.0233-.02-.0094-.005-.0199-.006-.0301-.005l-1.4627.042c-.0099.001-.0194.005-.0276.011-.0083.005-.015.013-.0198.022-.0047.009-.0072.019-.0073.029-.0002.01.0021.02.0066.029z" fill="#751b40"/><path d="m97.3135 128.881-.8652.021c-.0099.001-.0194.005-.0276.011-.0083.005-.015.013-.0198.022-.0047.009-.0072.019-.0073.029-.0002.01.0021.02.0066.029.3914.672.9339.903 1.3666.315-.1074-.184-.2648-.332-.4533-.427z" fill="#9c2455"/></g><g clip-path="url(#h)"><rect fill="#bed3ff" height="7.05256" rx="3.31898" width="16.6153" x="109.388" y="120.772"/><rect fill="#72767d" height="4.23154" rx="2.11577" width="16.6153" x="127.388" y="123.593"/></g><path d="m109.388 132.554c0-1.833 1.486-3.319 3.319-3.319h59.824c1.833 0 3.318 1.486 3.318 3.319v3.734h-66.461z" fill="#dcddde"/><path d="m109.388 136.288h66.461v3.733c0 1.833-1.485 3.319-3.318 3.319h-59.824c-1.833 0-3.319-1.486-3.319-3.319z" fill="#dcddde"/><path clip-rule="evenodd" d="m33.74 29.7941c-.2118 0-.3723-.191-.336-.3996l.1762-1.0109h-.9662c-.2187 0-.3846-.1969-.3476-.4124.0291-.1692.1758-.2929.3476-.2929h1.0873l.367-2.1158h-.9663c-.2186 0-.3845-.1968-.3475-.4123.0291-.1692.1758-.2929.3475-.2929h1.0874l.1966-1.128c.0284-.1633.1702-.2825.3359-.2825.2118 0 .3723.1909.336.3995l-.1762 1.011h2.0769l.1966-1.128c.0284-.1633.1702-.2825.3359-.2825.2118 0 .3723.1909.336.3995l-.1762 1.011h.9663c.2186 0 .3845.1969.3475.4123-.0291.1693-.1758.2929-.3475.2929h-1.0874l-.3669 2.1158h.9662c.2186 0 .3846.1969.3475.4123-.029.1693-.1758.293-.3475.293h-1.0874l-.1965 1.128c-.0285.1633-.1702.2825-.336.2825-.2117 0-.3723-.191-.3359-.3996l.1761-1.0109h-2.0769l-.1966 1.128c-.0284.1633-.1702.2825-.3359.2825zm1.0208-4.2316-.3669 2.1158h2.0769l.367-2.1158z" fill="#b9bbbe" fill-rule="evenodd"/><rect fill="#b9bbbe" height="8.46307" rx="3.31898" width="31.4999" x="43.272" y="22.3889"/><path clip-rule="evenodd" d="m33.74 46.7202c-.2118 0-.3723-.1909-.336-.3995l.1762-1.011h-.9662c-.2187 0-.3846-.1969-.3476-.4123.0291-.1692.1758-.2929.3476-.2929h1.0873l.367-2.1158h-.9663c-.2186 0-.3845-.1969-.3475-.4123.0291-.1693.1758-.293.3475-.293h1.0874l.1966-1.128c.0284-.1633.1702-.2825.3359-.2825.2118 0 .3723.191.336.3996l-.1762 1.0109h2.0769l.1966-1.128c.0284-.1633.1702-.2825.3359-.2825.2118 0 .3723.191.336.3996l-.1762 1.0109h.9663c.2186 0 .3845.1969.3475.4124-.0291.1692-.1758.2929-.3475.2929h-1.0874l-.3669 2.1158h.9662c.2186 0 .3846.1968.3475.4123-.029.1692-.1758.2929-.3475.2929h-1.0874l-.1965 1.1281c-.0285.1632-.1702.2824-.336.2824-.2117 0-.3723-.1909-.3359-.3995l.1761-1.011h-2.0769l-.1966 1.1281c-.0284.1632-.1702.2824-.3359.2824zm1.0208-4.2315-.3669 2.1158h2.0769l.367-2.1158z" fill="#b9bbbe" fill-rule="evenodd"/><rect fill="#b9bbbe" height="8.46307" rx="3.31898" width="28.7307" x="43.272" y="39.315"/><path clip-rule="evenodd" d="m33.74 63.6464c-.2118 0-.3723-.191-.336-.3996l.1762-1.0109h-.9662c-.2187 0-.3846-.1969-.3476-.4124.0291-.1692.1758-.2929.3476-.2929h1.0873l.367-2.1157h-.9663c-.2186 0-.3845-.1969-.3475-.4124.0291-.1692.1758-.2929.3475-.2929h1.0874l.1966-1.128c.0284-.1633.1702-.2825.3359-.2825.2118 0 .3723.1909.336.3995l-.1762 1.011h2.0769l.1966-1.128c.0284-.1633.1702-.2825.3359-.2825.2118 0 .3723.1909.336.3995l-.1762 1.011h.9663c.2186 0 .3845.1969.3475.4123-.0291.1693-.1758.293-.3475.293h-1.0874l-.3669 2.1157h.9662c.2186 0 .3846.1969.3475.4124-.029.1692-.1758.2929-.3475.2929h-1.0874l-.1965 1.128c-.0285.1633-.1702.2825-.336.2825-.2117 0-.3723-.191-.3359-.3996l.1761-1.0109h-2.0769l-.1966 1.128c-.0284.1633-.1702.2825-.3359.2825zm1.0208-4.2315-.3669 2.1157h2.0769l.367-2.1157z" fill="#b9bbbe" fill-rule="evenodd"/><rect fill="#b9bbbe" height="8.46307" rx="3.31898" width="31.4999" x="43.272" y="56.2412"/><path clip-rule="evenodd" d="m33.74 80.5726c-.2118 0-.3723-.191-.336-.3996l.1762-1.011h-.9662c-.2187 0-.3846-.1968-.3476-.4123.0291-.1692.1758-.2929.3476-.2929h1.0873l.367-2.1158h-.9663c-.2186 0-.3845-.1969-.3475-.4123.0291-.1693.1758-.2929.3475-.2929h1.0874l.1966-1.1281c.0284-.1633.1702-.2825.3359-.2825.2118 0 .3723.191.336.3996l-.1762 1.011h2.0769l.1966-1.1281c.0284-.1633.1702-.2825.3359-.2825.2118 0 .3723.191.336.3996l-.1762 1.011h.9663c.2186 0 .3845.1968.3475.4123-.0291.1692-.1758.2929-.3475.2929h-1.0874l-.3669 2.1158h.9662c.2186 0 .3846.1969.3475.4123-.029.1692-.1758.2929-.3475.2929h-1.0874l-.1965 1.1281c-.0285.1633-.1702.2825-.336.2825-.2117 0-.3723-.191-.3359-.3996l.1761-1.011h-2.0769l-.1966 1.1281c-.0284.1633-.1702.2825-.3359.2825zm1.0208-4.2316-.3669 2.1158h2.0769l.367-2.1158z" fill="#b9bbbe" fill-rule="evenodd"/><rect fill="#b9bbbe" height="8.46308" rx="3.31898" width="23.1922" x="43.272" y="73.1674"/><path clip-rule="evenodd" d="m33.74 97.4987c-.2118 0-.3723-.1909-.336-.3995l.1762-1.011h-.9662c-.2187 0-.3846-.1969-.3476-.4123.0291-.1693.1758-.293.3476-.293h1.0873l.367-2.1157h-.9663c-.2186 0-.3845-.1969-.3475-.4124.0291-.1692.1758-.2929.3475-.2929h1.0874l.1966-1.128c.0284-.1633.1702-.2825.3359-.2825.2118 0 .3723.1909.336.3995l-.1762 1.011h2.0769l.1966-1.128c.0284-.1633.1702-.2825.3359-.2825.2118 0 .3723.1909.336.3995l-.1762 1.011h.9663c.2186 0 .3845.1969.3475.4123-.0291.1693-.1758.293-.3475.293h-1.0874l-.3669 2.1157h.9662c.2186 0 .3846.1969.3475.4124-.029.1692-.1758.2929-.3475.2929h-1.0874l-.1965 1.128c-.0285.1633-.1702.2825-.336.2825-.2117 0-.3723-.1909-.3359-.3995l.1761-1.011h-2.0769l-.1966 1.128c-.0284.1633-.1702.2825-.3359.2825zm1.0208-4.2315-.3669 2.1157h2.0769l.367-2.1157z" fill="#b9bbbe" fill-rule="evenodd"/><rect fill="#b9bbbe" height="8.46308" rx="3.31898" width="31.4999" x="43.272" y="90.0935"/></g></svg>