<svg width="96" height="54" viewBox="0 0 96 54" fill="none" xmlns="http://www.w3.org/2000/svg">
  <path d="M47.6032 0L34.7184 12.9334V31.1341L47.6032 44.0154L60.488 31.0819V12.9334L47.6032 0ZM54.0456 28.4222L47.6032 34.889L41.1608 28.4222V15.5931L47.6032 9.12641L54.0456 15.5931V28.4222Z" fill="#FA6EF6"/>
  <path d="M47.6033 0V9.12641L54.0457 15.5931L60.488 12.9334L47.6033 0Z" fill="#FFADFB"/>
  <path d="M41.1608 28.4219L34.7184 31.1337L47.6032 44.015V34.8886L41.1608 28.4219Z" fill="#E655D4"/>
  <path d="M41.161 15.5938V28.423L47.6034 34.8897L54.0458 28.423V15.5938L47.6034 9.12714L41.161 15.5938Z" fill="#FFCFF9"/>
  <path d="M54.0458 15.5936V15.6458L41.213 28.4749H41.161V24.9808L52.2793 13.8205L54.0458 15.5936Z" fill="white"/>
  <path d="M54.0452 20.4453V23.9915L45.4208 32.7007L43.6543 30.8754L54.0452 20.4453Z" fill="white"/>
  <path d="M37.0046 8.55458L34.9264 9.54545C34.6666 9.7019 34.303 9.54545 34.1471 9.28469C34.0951 9.12824 34.0951 8.91963 34.1471 8.76318L35.1342 6.67715C35.2381 6.52069 35.2381 6.31209 35.1342 6.15564L34.1471 4.0696C33.9912 3.75669 34.1471 3.44379 34.4069 3.28734C34.5627 3.23519 34.7186 3.23519 34.8744 3.28734L36.9526 4.2782C37.1085 4.38251 37.3163 4.38251 37.4722 4.2782L39.5504 3.28734C39.8621 3.13088 40.1738 3.28734 40.3297 3.54809C40.3816 3.70454 40.3816 3.861 40.3297 4.01745L39.3426 6.10349C39.2386 6.25994 39.2386 6.46854 39.3426 6.62499L40.3297 8.71103C40.4856 8.97179 40.3297 9.33684 40.0699 9.4933C39.9141 9.54545 39.7062 9.54545 39.5504 9.4933L37.4722 8.50243C37.3683 8.45028 37.1605 8.45028 37.0046 8.55458Z" fill="#FFCFF9"/>
  <path d="M70.307 19.6106C71.9176 18.9327 73.736 19.7149 74.3595 21.2795L79.6069 34.0564L73.8399 36.4554L68.5925 23.7305C67.9171 22.1139 68.6964 20.2886 70.307 19.6106Z" fill="#AEC7FF"/>
  <path d="M74.9313 7.87716C76.5418 7.1992 78.3603 7.98147 78.9837 9.54599L84.7507 23.4703L78.9837 25.8692L73.2687 11.9971C72.5933 10.3804 73.3726 8.55513 74.9313 7.87716Z" fill="#AEC7FF"/>
  <path d="M71.0344 13.1947C72.645 12.5168 74.4634 13.299 75.0869 14.8636L80.3863 27.6405L74.6193 30.0395L69.3718 17.3147C68.6964 15.698 69.4758 13.8727 71.0344 13.1947Z" fill="#AEC7FF"/>
  <path d="M77.529 28.8378L74.6195 30.0373L70.3073 19.6071C70.0475 19.7114 69.7877 19.8679 69.5799 20.0243L73.8402 30.3502C73.9961 30.6631 74.2558 30.8717 74.6195 30.8717C74.7234 30.8717 74.8273 30.8717 74.9312 30.8196L77.8407 29.6201L77.529 28.8378Z" fill="#7196FF"/>
  <path d="M79.6071 25.658L79.0356 25.9188L73.8401 13.3504C73.5284 13.1418 73.1647 13.0375 72.7491 12.9332L78.2563 26.2317C78.4122 26.5446 78.6719 26.7532 79.0356 26.7532C79.1395 26.7532 79.2434 26.7532 79.3473 26.701L79.9188 26.4403L79.6071 25.658Z" fill="#7196FF"/>
  <path d="M82.3605 42.607H63.0853V48.5522H82.3605V42.607Z" fill="#EBF0F7"/>
  <path d="M84.3349 22.6354C85.5299 23.8349 85.5299 25.8166 84.3349 27.0682L75.3987 36.0382L70.9825 31.6053L79.9188 22.6354C81.1657 21.4359 83.14 21.4359 84.3349 22.6354Z" fill="#EBF0F7"/>
  <path d="M87.0366 9.17883C88.7511 9.17883 90.1539 10.5869 90.1539 12.3079V23.7811H83.9193V12.3079C83.9193 10.5869 85.2701 9.17883 87.0366 9.17883Z" fill="#EBF0F7"/>
  <path d="M63.0853 48.5015V42.6084C63.0853 37.0283 66.4624 31.9696 71.6059 29.8314L77.6326 27.3282L82.3605 38.8535V48.5015H63.0853Z" fill="#EBF0F7"/>
  <path d="M88.2318 32.6462L84.8027 38.4871C83.2441 41.199 82.4128 44.2237 82.4128 47.3528V48.5001H63.1376L83.9195 27.5354V18.8262H90.1541V25.5016C90.1021 28.0048 89.4787 30.4559 88.2318 32.6462Z" fill="#EBF0F7"/>
  <path d="M84.9067 22.1125C83.3481 20.548 80.9062 20.548 79.3476 22.1125L79.9191 22.6862C81.166 21.4346 83.1403 21.4867 84.3352 22.6862C85.5821 23.9378 85.5302 25.9196 84.3352 27.119L79.0878 32.3863C79.0358 32.4384 78.9839 32.5427 78.9839 32.647V37.1842C78.9839 37.3928 79.1398 37.6014 79.3476 37.6014C79.5554 37.6014 79.7632 37.4449 79.7632 37.2363C79.7632 37.2363 79.7632 37.2363 79.7632 37.1842V32.8556L84.8548 27.7448C86.4654 26.1282 86.4654 23.6249 84.9067 22.1125Z" fill="#AEC7FF"/>
  <path d="M63.0853 44.8492V46.4138L79.2432 48.4998H82.3605V47.3525L63.0853 44.8492Z" fill="#AEC7FF"/>
  <path d="M63.0852 45.7358L82.4124 48.239C83.971 48.4476 85.114 49.9078 84.9062 51.4724C84.6984 53.0369 83.2436 54.1842 81.685 53.9756L62.3578 51.4724C60.7992 51.2638 59.6562 49.8035 59.864 48.239C60.0199 46.6745 61.4746 45.5272 63.0852 45.7358Z" fill="#EBF0F7"/>
  <path d="M21.3138 36.4536L15.5469 34.0547L20.7943 21.3298C21.4697 19.7132 23.2881 18.9831 24.8468 19.661C26.4574 20.339 27.1847 22.1643 26.5093 23.7288L21.3138 36.4536Z" fill="#AEC7FF"/>
  <path d="M16.2217 25.9191L10.4548 23.5201L16.2217 9.59584C16.8972 7.97916 18.7156 7.24905 20.2742 7.92701C21.8848 8.60497 22.6122 10.4303 21.9368 11.9948L16.2217 25.9191Z" fill="#AEC7FF"/>
  <path d="M20.587 30.0376L14.82 27.6387L20.0674 14.8617C20.7428 13.245 22.5613 12.5149 24.1199 13.1929C25.7305 13.8708 26.4579 15.6961 25.7825 17.2606L20.587 30.0376Z" fill="#AEC7FF"/>
  <path d="M25.6263 20.0243C25.4185 19.8679 25.1587 19.7114 24.8989 19.6071L20.5867 30.0373L17.6772 28.8378L17.3655 29.6201L20.2749 30.8196C20.3788 30.8717 20.4828 30.8717 20.5867 30.8717C20.9504 30.8717 21.2101 30.6631 21.366 30.3502L25.6263 20.0243Z" fill="#7196FF"/>
  <path d="M21.366 13.4037L16.1705 25.9721L15.599 25.7113L15.2873 26.4936L15.8588 26.7543C15.9627 26.8065 16.0666 26.8065 16.1705 26.8065C16.5342 26.8065 16.794 26.5979 16.9498 26.285L22.4051 13.0386C22.0414 13.0386 21.6777 13.1951 21.366 13.4037Z" fill="#7196FF"/>
  <path d="M32.1202 42.5547H12.845V48.5H32.1202V42.5547Z" fill="#EBF0F7"/>
  <path d="M24.1715 31.6049L19.7554 36.0377L10.8711 27.1199C9.67617 25.9204 9.67617 23.9387 10.8711 22.6871C12.0661 21.4876 14.0404 21.4876 15.2873 22.6871L24.1715 31.6049Z" fill="#EBF0F7"/>
  <path d="M11.3388 23.7811H5.05231V12.3079C5.05231 10.5869 6.45508 9.17883 8.16959 9.17883C9.88409 9.17883 11.2869 10.5869 11.2869 12.3079L11.3388 23.7811Z" fill="#EBF0F7"/>
  <path d="M32.1202 48.5015V42.6084C32.1202 37.0283 28.7431 31.9696 23.5996 29.8314L17.5728 27.3282L12.845 38.8535V48.5015H32.1202Z" fill="#EBF0F7"/>
  <path d="M6.97428 32.6463L10.4033 38.4872C11.9619 41.199 12.7932 44.2238 12.7932 47.3528V48.5002H32.0684L11.2865 27.5355V18.8263H5V25.5016C5.05195 28.0049 5.72737 30.4559 6.97428 32.6463Z" fill="#EBF0F7"/>
  <path d="M10.2994 22.1125C11.8061 20.548 14.2999 20.548 15.8586 22.1125L15.2871 22.6862C14.0401 21.4346 12.0659 21.4867 10.8709 22.6862C9.624 23.9378 9.67595 25.9196 10.8709 27.119L16.1183 32.3863C16.1703 32.4384 16.2222 32.5427 16.2222 32.647V37.1842C16.2222 37.3928 16.0664 37.6014 15.8586 37.6014C15.6507 37.6014 15.4429 37.4449 15.4429 37.2363C15.4429 37.2363 15.4429 37.2363 15.4429 37.1842V32.8556L10.3514 27.7448C8.74077 26.1282 8.74076 23.6249 10.2994 22.1125Z" fill="#AEC7FF"/>
  <path d="M32.1202 44.8492V46.4138L15.9623 48.4998H12.845V47.3525L32.1202 44.8492Z" fill="#AEC7FF"/>
  <path d="M32.8992 51.4724L13.5721 53.9756C12.0134 54.1842 10.5587 53.0369 10.3509 51.4724C10.1431 49.9078 11.2861 48.4476 12.8447 48.239L32.1719 45.7358C33.7305 45.5272 35.1852 46.6745 35.3931 48.239C35.6009 49.8557 34.4579 51.3159 32.8992 51.4724Z" fill="#EBF0F7"/>
</svg>
