<svg width="274" height="178" viewBox="0 0 274 178" fill="none" xmlns="http://www.w3.org/2000/svg">
<g clip-path="url(#clip0_2670_293234)">
<path d="M71.3698 111.27C63.1098 111.57 38.7998 110.99 16.5998 100.2C10.9998 97.4801 8.76982 90.6701 11.7198 85.2001C13.6998 81.5301 18.1498 79.9801 21.9898 81.6201C23.2098 82.1401 24.4098 82.6301 25.5898 83.0901C28.0398 81.1801 33.5998 78.2801 37.5698 87.0101C52.4398 90.9401 63.6598 90.4101 70.1998 90.1401C70.2098 90.1401 71.7698 110.18 71.3698 111.28V111.27Z" fill="url(#paint0_linear_2670_293234)"/>
<path d="M90.9396 140.75C89.1396 148.95 88.1896 156.98 87.3296 167.07C86.6596 174.98 78.3496 179.83 71.1296 176.52L70.8796 176.41C66.5496 174.43 63.8696 170.11 63.9996 165.42C64.2596 156.08 65.7196 145.14 68.6096 135.25C68.6696 135.04 68.8896 134.91 69.1096 134.97L90.6396 140.26C90.8596 140.31 90.9896 140.53 90.9396 140.75Z" fill="#4F6FE7"/>
<path d="M96.6098 140.94C98.5098 149.12 99.5598 157.14 100.54 167.21C101.31 175.11 109.68 179.86 116.85 176.46L117.1 176.34C121.4 174.3 124.03 169.96 123.84 165.27C123.46 155.93 121.87 145.01 118.86 135.16C118.8 134.95 118.57 134.83 118.36 134.88L96.8998 140.44C96.6798 140.5 96.5498 140.71 96.6098 140.93V140.94Z" fill="#4F6FE7"/>
<path d="M66.7601 85.08C60.4701 106.51 51.3201 133.17 70.7201 139.72C85.5401 144.72 104.78 143.19 117.37 138.36C129.96 133.53 128.51 119.04 124.96 103.49C121.41 87.94 116.24 71.77 116.24 71.77L66.7601 85.07V85.08Z" fill="url(#paint1_linear_2670_293234)"/>
<path d="M165.62 73.5999C161.98 68.8599 158.11 67.0299 153.15 71.4999C148.5 67.5999 143.51 70.7499 143.78 76.8799C133.12 84.0699 122.17 85.0599 112.96 83.7799C112.95 83.7799 112.09 109.72 112.63 110.76C135.4 110.69 159.13 91.2799 159.13 91.2799C166.3 86.4299 169.22 78.3099 165.62 73.6099V73.5999Z" fill="#698FFF"/>
<path d="M64.8896 88.0298C64.8896 88.0298 74.3896 119.7 122.7 84.0698L64.8896 88.0298Z" fill="#4677F7"/>
<path d="M104.18 19.29C94.9899 19.5 85.6299 20.34 76.7299 21.85C55.4099 25.46 40.8699 44.69 44.4099 64.82C44.4399 65.01 44.4799 65.19 44.5099 65.38C46.8499 78.19 58.9799 87.25 72.7399 86.69C84.5899 86.21 97.7399 85.22 109.99 83.42C124.53 81.28 134.95 68.89 133.87 55.05C133.51 50.4 132.95 45.7 132.2 41.17C130.05 28.23 118.05 18.98 104.18 19.3V19.29Z" fill="#698FFF"/>
<path d="M61.2529 61.2353C63.2139 61.094 64.6509 58.8584 64.4624 56.2418C64.2739 53.6252 62.5314 51.6186 60.5703 51.7599C58.6093 51.9011 57.1723 54.1368 57.3608 56.7533C57.5493 59.3699 59.2918 61.3766 61.2529 61.2353Z" fill="#141226"/>
<path d="M117.706 53.9877C119.667 53.8465 121.104 51.6108 120.916 48.9943C120.727 46.3777 118.985 44.371 117.023 44.5123C115.062 44.6536 113.625 46.8892 113.814 49.5058C114.002 52.1224 115.745 54.129 117.706 53.9877Z" fill="#141226"/>
<path d="M99.8798 42.31C91.7698 42.29 83.1898 43.2 76.1198 45.41C71.6498 46.81 68.5698 50.75 68.6298 55.18C68.6598 57.24 68.7898 59.32 69.0698 61.41C70.0998 69.12 77.4298 74.57 85.6598 73.99C89.5498 73.72 93.6498 73.32 97.6298 72.75C106.27 71.53 112.39 63.91 111.13 55.77C110.81 53.72 110.41 51.69 109.92 49.76C108.82 45.37 104.66 42.31 99.8798 42.29V42.31Z" fill="#B6CBFF"/>
<path d="M86.139 64.1681L80.0132 64.9051C78.8781 65.0416 78.0687 66.0725 78.2053 67.2075C78.3418 68.3426 79.3726 69.152 80.5077 69.0155L86.6335 68.2785C87.7686 68.1419 88.578 67.1111 88.4414 65.9761C88.3049 64.841 87.2741 64.0316 86.139 64.1681Z" fill="#698FFF"/>
<path d="M96.1898 67.2091L102.325 66.5546C103.462 66.4333 104.285 65.4134 104.164 64.2766C104.042 63.1399 103.023 62.3167 101.886 62.4379L95.7506 63.0925C94.6138 63.2138 93.7906 64.2337 93.9119 65.3704C94.0332 66.5072 95.053 67.3304 96.1898 67.2091Z" fill="#698FFF"/>
<path d="M86.0296 12.0099C58.7896 15.0599 38.3996 36.8099 40.4896 60.5899C41.5696 72.8899 48.4496 83.3099 58.5996 90.0999C60.0496 91.0699 61.7996 91.4599 63.5296 91.2599L121.92 84.7199C123.62 84.5299 125.21 83.7699 126.42 82.5599C135.24 73.6499 140.2 61.8699 139.12 49.5399C137.03 25.7599 113.26 8.94995 86.0196 11.9999L86.0296 12.0099ZM110.09 78.3699L70.4696 82.8099C66.0296 83.3099 61.5896 81.8499 58.3096 78.8299L49.7396 70.9299C46.6296 68.0699 45.6596 63.5699 47.3096 59.6799L54.6796 42.2899C56.9496 36.9399 62.7596 34.0299 68.3996 35.4299L86.6196 39.9399C88.1996 40.3299 89.8696 40.1299 91.3096 39.3799L106.36 31.5099C111.69 28.7199 118.26 30.3799 121.63 35.3699L131.11 49.4199C133.67 53.2099 133.33 58.2499 130.29 61.6699L119.9 73.3299C117.37 76.1699 113.88 77.9699 110.11 78.3899L110.09 78.3699Z" fill="#DCE4FF"/>
<path fill-rule="evenodd" clip-rule="evenodd" d="M78.3394 14.3799L79.8794 27.8399C79.9794 28.6899 80.7494 29.2999 81.5994 29.1999L92.0294 28.0099C92.8794 27.9099 93.4894 27.1399 93.3894 26.2899L91.8494 12.8299C91.7894 12.2999 91.5394 11.8099 91.1394 11.4599L85.6994 6.56991C84.8694 5.81991 83.5594 5.96991 82.9194 6.88991L78.7194 12.8899C78.4094 13.3299 78.2794 13.8599 78.3394 14.3899V14.3799Z" fill="#FF7700"/>
<path fill-rule="evenodd" clip-rule="evenodd" d="M84.3793 20.95L80.2793 28.71C80.5993 29.06 81.0793 29.26 81.5893 29.2L92.0193 28.01C92.5293 27.95 92.9493 27.65 93.1893 27.23L87.4493 20.6C86.5893 19.61 84.9993 19.79 84.3793 20.95Z" fill="#FF871D"/>
<path d="M72.5195 74.39C69.5495 73.67 67.9995 71.99 66.4395 70.73C64.8795 69.47 63.2095 69.97 62.6395 70.99C62.0695 72.01 62.1795 74.79 64.4195 77.03C66.6695 79.26 71.1695 78.63 72.9595 77.51C74.7495 76.39 74.4395 74.85 72.5195 74.38V74.39Z" fill="#D01582"/>
<path d="M62.3599 72.5898C62.4099 73.8698 62.9599 75.5698 64.4299 77.0298C66.6599 79.2498 71.1099 78.6398 72.9299 77.5398C70.8999 74.9198 67.8499 73.3198 62.3599 72.5998V72.5898Z" fill="#FF78B8"/>
<path d="M145.65 41.6098L136.85 41.6698L138.44 26.4798C138.58 25.0998 139.75 24.0398 141.14 24.0298C142.53 24.0298 143.71 25.0598 143.87 26.4398L145.66 41.6098H145.65Z" fill="#B5C3F3"/>
<path d="M141.18 30.8796C139.89 30.8796 138.73 31.3996 137.84 32.1996L136.85 41.6696L145.65 41.6096L144.54 32.1496C143.64 31.3596 142.47 30.8696 141.18 30.8696V30.8796Z" fill="#B5C3F3"/>
<path d="M144.402 39.5459L146.062 39.5352C148.382 39.5202 150.284 41.398 150.299 43.7179L150.39 57.7976C150.405 60.1176 148.527 62.0197 146.207 62.0347L144.547 62.0454L144.402 39.5459Z" fill="#FF871D"/>
<path d="M146.286 40.1839C146.268 37.3949 143.993 35.1486 141.204 35.1666C138.415 35.1846 136.168 37.4601 136.186 40.2491L136.323 61.4487C136.341 64.2377 138.617 66.484 141.406 66.466C144.195 66.4479 146.441 64.1724 146.423 61.3834L146.286 40.1839Z" fill="#DCE4FF"/>
<path d="M32.3597 54.4598L40.9497 52.5398L35.9997 38.0898C35.5497 36.7698 34.1797 36.0098 32.8197 36.3098C31.4597 36.6098 30.5497 37.8898 30.6997 39.2698L32.3597 54.4498V54.4598Z" fill="#B5C3F3"/>
<path d="M34.3198 42.9999C35.5798 42.7199 36.8298 42.95 37.8698 43.54L40.9598 52.5499L32.3698 54.47L31.3398 45.0099C32.0398 44.0399 33.0698 43.2999 34.3298 43.0099L34.3198 42.9999Z" fill="#B5C3F3"/>
<path d="M38.0005 74.1235L36.3803 74.4848C34.1159 74.9897 31.8599 73.5563 31.355 71.2919L28.2907 57.5494C27.7858 55.285 29.2192 53.029 31.4836 52.5241L33.1038 52.1628L38.0005 74.1235Z" fill="#FF871D"/>
<path d="M36.023 73.8951C36.63 76.6173 39.3288 78.332 42.051 77.725C44.7732 77.118 46.4879 74.4192 45.8809 71.697L41.2671 51.0052C40.6601 48.283 37.9613 46.5683 35.2391 47.1753C32.517 47.7822 30.8022 50.4811 31.4092 53.2032L36.023 73.8951Z" fill="#DCE4FF"/>
<path d="M38.1297 133.58C41.6297 132.26 49.3697 133.45 54.6497 134.53C57.2497 135.06 58.4097 138.13 56.8097 140.25C53.5597 144.55 48.5397 150.56 45.0497 151.88C39.4797 153.98 33.4197 151.59 31.5097 146.54C29.5997 141.49 32.5697 135.69 38.1397 133.58H38.1297Z" fill="#698FFF"/>
<path d="M167.97 12.94C165.4 11.29 163.67 8.6 163.22 5.58L162.45 0.44C162.41 0.19 162.19 0 161.94 0C161.68 0 161.47 0.19 161.43 0.44L160.66 5.58C160.21 8.6 158.48 11.28 155.91 12.94L155.24 13.37C155.09 13.47 155 13.63 155 13.8V13.83C155 14.01 155.09 14.17 155.24 14.26L155.91 14.69C158.48 16.34 160.21 19.03 160.66 22.05L161.43 27.19C161.47 27.44 161.69 27.63 161.94 27.63C162.2 27.63 162.41 27.44 162.45 27.19L163.22 22.05C163.67 19.03 165.4 16.35 167.97 14.69L168.64 14.26C168.79 14.16 168.88 14 168.88 13.83V13.8C168.88 13.62 168.79 13.46 168.64 13.37L167.97 12.94Z" fill="#86D3FF"/>
<path d="M12.97 57.94C10.4 56.29 8.67 53.6 8.22 50.58L7.45 45.44C7.41 45.19 7.19 45 6.94 45C6.68 45 6.47 45.19 6.43 45.44L5.66 50.58C5.21 53.6 3.48 56.28 0.91 57.94L0.24 58.37C0.09 58.47 0 58.63 0 58.8V58.83C0 59.01 0.09 59.17 0.24 59.26L0.91 59.69C3.48 61.34 5.21 64.03 5.66 67.05L6.43 72.19C6.47 72.44 6.69 72.63 6.94 72.63C7.2 72.63 7.41 72.44 7.45 72.19L8.22 67.05C8.67 64.03 10.4 61.35 12.97 59.69L13.64 59.26C13.79 59.16 13.88 59 13.88 58.83V58.8C13.88 58.62 13.79 58.46 13.64 58.37L12.97 57.94Z" fill="#E54599"/>
<path d="M273.13 97.11C271.02 95.75 269.6 93.56 269.23 91.08L268.6 86.86C268.57 86.65 268.39 86.5 268.18 86.5C267.97 86.5 267.79 86.65 267.76 86.86L267.13 91.08C266.76 93.56 265.34 95.75 263.23 97.11L262.68 97.46C262.56 97.54 262.49 97.67 262.49 97.82V97.85C262.49 97.99 262.56 98.13 262.68 98.21L263.23 98.56C265.34 99.92 266.76 102.11 267.13 104.59L267.76 108.81C267.79 109.02 267.97 109.17 268.18 109.17C268.39 109.17 268.57 109.02 268.6 108.81L269.23 104.59C269.6 102.11 271.02 99.92 273.13 98.56L273.68 98.21C273.8 98.13 273.87 98 273.87 97.85V97.82C273.87 97.68 273.8 97.54 273.68 97.46L273.13 97.11Z" fill="#53EC81"/>
<path d="M251.23 119.11C249.38 117.92 248.14 115.99 247.81 113.82L247.26 110.12C247.23 109.94 247.08 109.8 246.89 109.8C246.71 109.8 246.55 109.93 246.52 110.12L245.97 113.82C245.64 115.99 244.4 117.92 242.55 119.11L242.07 119.42C241.96 119.49 241.9 119.61 241.9 119.73V119.75C241.9 119.88 241.96 119.99 242.07 120.06L242.55 120.37C244.4 121.56 245.64 123.49 245.97 125.66L246.52 129.36C246.55 129.54 246.7 129.68 246.89 129.68C247.07 129.68 247.23 129.55 247.26 129.36L247.81 125.66C248.14 123.49 249.38 121.56 251.23 120.37L251.71 120.06C251.82 119.99 251.88 119.87 251.88 119.75V119.73C251.88 119.6 251.82 119.49 251.71 119.42L251.23 119.11Z" fill="#FFE15C"/>
<path d="M222.07 100.14C249.723 100.14 272.14 77.7229 272.14 50.07C272.14 22.4171 249.723 0 222.07 0C194.417 0 172 22.4171 172 50.07C172 77.7229 194.417 100.14 222.07 100.14Z" fill="#3640D3"/>
<path d="M217.112 39.7707L216.632 29.6691C216.533 27.5782 218.044 25.7556 220.121 25.459C222.085 25.1764 224.685 25.2188 227.425 26.349C229.191 27.0696 230.194 28.9627 229.855 30.8418L227.906 41.4802L217.112 39.7848V39.7707Z" fill="#FFC518"/>
<path d="M228.936 35.829C225.983 32.7067 220.035 33.0458 216.856 34.388L217.111 39.7566L227.184 41.339C227.467 41.226 227.735 41.1271 227.975 40.9999L228.922 35.8149L228.936 35.829Z" fill="#FFF1A5"/>
<path d="M233.583 40.8922C233.678 39.4753 228.662 37.9849 222.379 37.5632C216.097 37.1415 210.926 37.9482 210.831 39.3651C210.736 40.782 215.752 42.2725 222.035 42.6942C228.318 43.1159 233.488 42.3091 233.583 40.8922Z" fill="#FFC518"/>
<path d="M231.101 41.3604C231.155 40.5507 227.223 39.6275 222.319 39.2983C217.414 38.9691 213.394 39.3586 213.34 40.1682C213.285 40.9779 217.217 41.9012 222.122 42.2304C227.027 42.5596 231.047 42.1701 231.101 41.3604Z" fill="black"/>
<path d="M201.656 33.5957C199.536 33.8783 197.572 34.9662 196.569 38.4417C196.061 40.2359 195.849 42.6801 195.905 45.9013C198.222 47.0457 198.463 45.534 201.034 45.1949C203.605 44.8558 203.619 44.9547 206.177 44.6298C208.734 44.3048 209.045 45.1667 211.333 43.9658C210.74 42.2563 210.034 40.6174 209.271 39.2611C208.338 37.6081 207.293 36.2518 206.205 35.2629C204.75 33.9631 203.196 33.3697 201.641 33.5816L201.656 33.5957Z" fill="#2BBC9B"/>
<path d="M234.191 43.642C235.18 40.9436 236.198 38.9939 237.3 37.5246C238.938 35.3488 240.761 34.4164 243.135 34.3881C245.508 34.3599 247.429 35.7303 248.32 38.6689C248.871 40.4915 249.012 42.9074 248.828 45.9025C245.24 46.8067 245.197 44.9559 241.496 44.8429C237.794 44.7299 237.37 45.5493 234.191 43.642Z" fill="#2BBC9B"/>
<path d="M203.986 39.9266C202.799 39.4462 200.835 39.8842 200.779 43.1619L206.176 42.8652C206.176 42.8652 205.173 40.3928 203.972 39.9124L203.986 39.9266Z" fill="black"/>
<path d="M243.275 40.5338C241.552 40.1382 239.687 41.1837 238.246 43.5855L244.363 44.7864C244.716 43.3594 244.942 40.9153 243.275 40.5338Z" fill="black"/>
<path d="M256.232 61.783C257.023 59.8474 257.885 58.0249 257.857 56.16C257.828 54.2951 257.348 52.19 256.19 50.4663C255.229 49.0253 253.435 48.0646 251.541 46.8637C250.086 45.9312 248.546 44.6314 246.469 43.8968C244.802 43.3034 242.853 42.9219 240.748 42.4698C238.982 42.0884 237.046 41.6645 234.955 41.3961C233.133 41.1559 231.14 41.4102 229.064 41.269C227.213 41.1418 225.263 41.0005 223.2 40.944C221.138 40.8875 219.004 40.4778 216.942 40.5202C214.879 40.5625 212.717 40.7745 210.697 40.9581C208.535 41.1559 206.459 41.4385 204.495 41.8058C202.333 42.2155 200.341 42.8796 198.49 43.5294C196.371 44.2782 194.337 44.914 192.74 46.0301C190.932 47.2875 189.533 48.9264 188.572 50.7207C187.612 52.5149 187.513 54.507 187.541 56.8099C187.555 58.9008 187.951 60.6245 188.685 62.2492C189.477 63.9869 190.437 65.5693 191.907 66.8408C193.277 68.0417 194.803 69.2426 196.611 70.0903C198.25 70.8673 200.044 71.6585 201.966 72.1954C203.746 72.704 205.752 72.4921 207.674 72.8311C209.595 73.1702 211.375 73.5941 213.297 73.806C215.19 74.0038 217.097 74.1874 218.99 74.2863C220.883 74.3852 222.946 74.7102 224.966 74.7102C226.987 74.7102 228.979 74.7808 230.957 74.6395C232.935 74.4983 234.955 74.0885 236.891 73.7636C238.826 73.4386 240.818 72.7887 242.669 72.2378C244.661 71.6444 246.554 71.0227 248.25 70.1609C250.1 69.2143 251.994 68.3384 253.364 66.9962C254.734 65.6541 255.483 63.6479 256.26 61.7688L256.232 61.783Z" fill="#2BBC9B"/>
<path d="M241.779 53.2628C241.864 54.0398 242.076 55.1559 241.016 56.597C240.465 57.3599 239.688 58.2359 238.191 58.9423C236.99 59.5074 235.69 59.465 234.32 59.4933C233.048 59.5215 231.762 59.4368 230.392 59.239C229.106 59.0553 227.722 59.2672 226.394 59.0694C225.066 58.8716 223.794 58.4478 222.466 58.4195C221.421 58.3913 220.135 58.7445 218.708 58.8999C217.507 59.027 216.236 59.239 214.95 59.3944C213.664 59.5498 212.35 59.3661 211.135 59.465C209.751 59.578 208.479 59.3944 207.377 59.3096C205.837 59.1966 204.368 59.3379 203.308 58.6032C202.249 57.8685 201.853 56.5122 201.302 55.0288C200.893 53.9127 200.412 52.7542 200.313 51.1436C198.844 52.6976 199.141 52.9237 198.152 54.8169C197.163 56.7242 197.276 56.7807 196.287 58.688C195.298 60.5953 195.312 60.5953 194.323 62.5026C193.786 63.548 193.56 64.7348 193.913 65.752C194.266 66.7692 195.284 67.3202 196.357 67.8006C197.488 68.3233 198.561 69.1004 199.833 69.5242C201.034 69.9057 202.334 70.0611 203.619 70.3578C204.905 70.6545 206.063 71.2196 207.363 71.4315C208.663 71.6434 209.977 71.3467 211.277 71.5022C212.576 71.6576 213.834 71.8977 215.12 71.9966C216.405 72.0955 217.705 72.1662 218.991 72.2368C220.29 72.3075 221.59 72.7737 222.918 72.8019C224.246 72.8302 225.546 72.7313 226.86 72.703C228.174 72.6748 229.488 72.4911 230.802 72.4063C232.116 72.3216 233.444 72.3075 234.743 72.152C236.043 71.9966 237.343 71.6152 238.615 71.3891C239.886 71.1631 241.242 70.9653 242.486 70.6403C243.63 70.3295 244.407 69.5383 245.128 68.7189C245.848 67.8995 246.766 66.9953 246.922 65.8792C247.077 64.763 246.865 63.5339 246.357 62.4602C245.876 61.4712 245.085 60.567 244.591 59.4791C244.096 58.3913 243.658 57.3882 243.206 56.3286C242.754 55.269 242.245 54.3082 241.836 53.2628H241.779Z" fill="#A9F9E6"/>
<path d="M242.457 53.178C242.598 53.6866 242.739 54.28 242.739 54.9158C242.739 55.5374 242.612 56.2014 242.372 56.7948C242.118 57.3882 241.751 57.9251 241.327 58.4054C240.903 58.8575 240.437 59.2672 239.928 59.5922L239.561 59.8465C239.433 59.9313 239.306 59.9878 239.179 60.0725C238.925 60.2138 238.671 60.3692 238.374 60.4823C237.809 60.7507 237.23 60.9202 236.636 61.0615C235.449 61.3299 234.263 61.3299 233.132 61.2452C230.858 61.0615 228.753 60.5246 226.648 60.1149C225.602 59.9171 224.557 59.7617 223.511 59.677C222.466 59.5922 221.463 59.6204 220.403 59.7193C218.298 59.9313 216.179 60.3551 214.031 60.68C212.957 60.8496 211.87 61.0191 210.768 61.118C209.666 61.231 208.549 61.2734 207.377 61.2028C206.218 61.118 205.003 60.8637 203.873 60.2986C202.757 59.7335 201.768 58.8434 201.118 57.7979C200.454 56.7524 200.087 55.6081 199.861 54.4919C199.663 53.3617 199.578 52.2314 199.606 51.1295C199.606 50.7762 199.903 50.5078 200.242 50.5078C200.553 50.5078 200.807 50.748 200.85 51.0447C201.005 52.1043 201.175 53.1356 201.471 54.0964C201.754 55.0712 202.164 55.9754 202.7 56.7242C203.788 58.2359 205.526 58.9705 207.504 59.0694C208.493 59.1401 209.538 59.0977 210.584 59.0412C211.629 58.9705 212.689 58.8999 213.763 58.801C215.896 58.6032 218.044 58.363 220.248 58.2076C220.799 58.1652 221.349 58.137 221.915 58.137C222.48 58.137 223.045 58.1652 223.596 58.1935C224.698 58.2783 225.8 58.4054 226.874 58.5608C229.035 58.8434 231.154 59.2107 233.203 59.2531C234.22 59.2531 235.223 59.239 236.142 58.9988C236.594 58.8858 237.046 58.7586 237.47 58.5608C237.682 58.4761 237.894 58.363 238.12 58.25C238.233 58.1935 238.346 58.137 238.445 58.0805L238.755 57.8968C239.165 57.6425 239.532 57.3599 239.886 57.0633C240.196 56.7524 240.507 56.4275 240.733 56.0602C240.959 55.6928 241.115 55.2831 241.214 54.8451C241.313 54.393 241.327 53.9127 241.355 53.3476C241.355 53.0367 241.623 52.7966 241.934 52.8107C242.188 52.8107 242.386 52.9944 242.457 53.2204V53.178Z" fill="#521348"/>
<path d="M248.319 51.0032C249.619 53.3909 248.602 56.2306 246.525 56.6545C245.423 56.8805 243.855 56.5556 242.696 55.8209C241.679 55.171 240.888 53.9419 240.28 52.8258C238.98 50.4381 239.715 48.1211 241.792 47.6973C242.894 47.4712 244.151 47.8668 245.31 48.6015C246.327 49.2513 247.726 49.8871 248.333 51.0032H248.319Z" fill="#5765F1"/>
<path d="M197.685 54.2945C195.481 55.0716 194.294 53.7577 194.648 51.8504C194.972 50.1409 196.371 48.1629 198.208 47.3011C200.172 46.3828 202.107 46.8914 202.178 48.6574C202.22 49.717 201.782 51.2146 200.892 52.246C200.101 53.1643 198.815 53.8848 197.685 54.2804V54.2945Z" fill="#5765F1"/>
<path d="M228.809 65.2995C228.809 66.3026 225.672 67.5883 222.465 67.5883C219.258 67.5883 216.475 66.2885 216.475 65.2995C216.475 64.3105 219.272 63.6606 222.465 63.6606C225.658 63.6606 228.809 64.2964 228.809 65.2995Z" fill="#59DAD2"/>
<path d="M219.1 56.4205C219.46 56.147 219.412 55.4768 218.993 54.9234C218.573 54.3701 217.941 54.1431 217.58 54.4165C217.22 54.69 217.267 55.3602 217.687 55.9136C218.107 56.4669 218.739 56.6939 219.1 56.4205Z" fill="#1B2940"/>
<path d="M226.011 55.936C226.431 55.3826 226.478 54.7124 226.118 54.4389C225.757 54.1655 225.125 54.3924 224.705 54.9458C224.285 55.4991 224.238 56.1694 224.598 56.4428C224.959 56.7163 225.591 56.4893 226.011 55.936Z" fill="#1B2940"/>
</g>
<defs>
<linearGradient id="paint0_linear_2670_293234" x1="78.935" y1="111.239" x2="22.2888" y2="85.7298" gradientUnits="userSpaceOnUse">
<stop stop-color="#4F6FE7"/>
<stop offset="0.79" stop-color="#698FFF"/>
</linearGradient>
<linearGradient id="paint1_linear_2670_293234" x1="93.7301" y1="76.23" x2="93.0301" y2="138.95" gradientUnits="userSpaceOnUse">
<stop offset="0.52" stop-color="#698FFF"/>
<stop offset="0.83" stop-color="#597BF0"/>
<stop offset="1" stop-color="#4F6FE7"/>
</linearGradient>
<clipPath id="clip0_2670_293234">
<rect width="273.88" height="177.57" fill="white"/>
</clipPath>
</defs>
</svg>
