<svg width="100" height="90" viewBox="0 0 100 90" fill="none" xmlns="http://www.w3.org/2000/svg">
<path d="M94.9346 34L38.9391 38.5L38.3122 42.735L38.2376 43.235L35.3766 62.68L33.0182 78.285C32.951 78.7356 32.9858 79.1955 33.1199 79.6307C33.2541 80.0659 33.4842 80.465 33.793 80.7985C34.1019 81.1319 34.4817 81.3911 34.904 81.5567C35.3263 81.7223 35.7804 81.7901 36.2324 81.755L44.8452 81.08C44.8452 81.08 42.4569 87.85 42.0389 88.995C42.01 89.1308 42.016 89.2718 42.0565 89.4045C42.097 89.5373 42.1706 89.6575 42.2703 89.7537C42.37 89.8498 42.4925 89.9188 42.6261 89.954C42.7598 89.9893 42.9002 89.9896 43.0341 89.955C43.0938 89.955 45.8851 88.165 49.4377 85.9L51.0597 84.865L51.3483 84.68L51.0796 79.62L81.6199 76.92L82.3016 78.105L87.4364 77.66C88.7908 77.5531 90.0692 76.9882 91.0631 76.0575C92.0571 75.1268 92.7079 73.8851 92.9096 72.535L98.134 37.44C98.2016 36.9921 98.1675 36.5346 98.034 36.1018C97.9006 35.669 97.6714 35.2722 97.3635 34.9412C97.0557 34.6102 96.6772 34.3536 96.2565 34.1906C95.8359 34.0275 95.3839 33.9624 94.9346 34V34Z" fill="url(#paint0_linear_954_31633)"/>
<path d="M88.0981 64.5C87.3319 62 85.6103 61.035 84.5207 59.5C83.8141 57.82 83.028 55.29 81.4557 52.18C79.3311 48.04 77.6743 44.535 77.4752 43.97C76.9478 42.31 77.5001 38.195 75.1765 36.01C73.4898 34.415 70.2258 34.01 68.2106 33.37L67.3499 33.475L67.0264 32.925V32.855C68.1808 29.525 69.8725 25.575 70.3352 20.7C70.9174 14.605 70.3352 8.20001 65.9816 4.87501C61.6279 1.55001 56.3189 -0.52999 50.9005 0.12501C45.482 0.78001 40.1731 3.31001 37.2275 7.82001C35.7348 10.12 34.1576 17.975 36.2324 24.54C38.4217 31.54 41.0936 37.92 41.0936 37.92C41.0936 37.92 33.1674 40.635 31.212 43.58C28.9083 47.05 28.361 49.745 27.5002 51.17C24.4302 56.25 19.0417 63.265 19.0417 63.265L19.4397 85.97C24.0073 86.565 27.5052 82.445 31.0777 77.335C32.1474 75.805 33.3764 73.905 34.5606 72L34.6551 71.85C34.9984 71.315 36.3269 66.76 36.3269 66.76L37.6554 45.045L59.2098 42.5L71.4547 73L68.2007 79C71.4 81.855 74.5098 83.435 77.2364 82.84C80.172 82.2 82.0876 79.25 84.0032 75.525C85.9188 71.8 88.7699 66.705 88.0981 64.5Z" fill="#3343D8"/>
<path d="M78.326 78.465L58.7122 80L51.0796 84.875C50.388 82.835 49.2486 80.015 49.2486 80.015C41.9494 79.37 39.168 78.195 37.1131 75.145C35.9189 73.38 35.282 68.86 35.3766 62.69C35.3766 61.69 35.4114 60.6383 35.4811 59.535C35.8692 51.77 36.7847 43.335 36.7847 43.335L38.2376 43.245H38.3122L72.5494 41.115L78.326 78.465Z" fill="url(#paint1_linear_954_31633)"/>
<path d="M58.8018 23C57.8465 19.335 57.6325 16.055 59.1849 12.71C56.5329 12.06 52.4628 10.91 50.6219 6.88C48.6814 9.945 45.2084 11.7 42.223 12.45C43.3724 14.95 43.248 18.5 41.7752 21.65C44.7606 22.575 46.3827 24.675 49.1342 27.245C51.6966 24.5 55.1546 23.705 58.8018 23Z" fill="url(#paint2_linear_954_31633)"/>
<path d="M81.9085 61.5C81.814 61.503 81.7201 61.4842 81.6339 61.4453C81.5476 61.4063 81.4714 61.348 81.4109 61.275C78.7341 58.055 74.7187 56.835 70.4994 55.775C70.42 55.755 70.3454 55.7194 70.2796 55.6704C70.2139 55.6214 70.1585 55.5598 70.1164 55.4892C70.0744 55.4187 70.0466 55.3404 70.0346 55.2591C70.0226 55.1777 70.0267 55.0948 70.0466 55.015C70.0666 54.9352 70.102 54.8602 70.1507 54.7941C70.1995 54.7281 70.2608 54.6723 70.331 54.6301C70.4013 54.5878 70.4791 54.5599 70.56 54.5479C70.641 54.5358 70.7236 54.54 70.8029 54.56C75.2312 55.67 79.4456 56.96 82.3663 60.475C82.4376 60.5673 82.4814 60.678 82.4928 60.7943C82.5042 60.9106 82.4827 61.0278 82.4307 61.1324C82.3786 61.2369 82.2983 61.3245 82.1989 61.3851C82.0994 61.4458 81.985 61.4769 81.8687 61.475L81.9085 61.5Z" fill="black"/>
<path d="M47.328 20C48.07 19.0203 49.0319 18.2307 50.1352 17.6955C51.2385 17.1603 52.452 16.8945 53.6769 16.92C53.9679 16.9205 54.2587 16.9389 54.5476 16.975C54.5502 16.9434 54.5502 16.9116 54.5476 16.88C54.4779 14.615 52.632 14.645 50.3731 14.645C48.1141 14.645 46.1886 14.615 46.1886 17.02C46.1796 18.092 46.564 19.1298 47.2683 19.935L47.328 20Z" fill="black"/>
<path d="M54.5476 17C54.5676 18.1348 54.1387 19.2312 53.3552 20.0486C52.5716 20.8661 51.4973 21.3377 50.3681 21.36C49.7798 21.3608 49.1982 21.2339 48.6632 20.988C48.1282 20.742 47.6524 20.3828 47.2683 19.935C47.9877 18.9427 48.9355 18.1401 50.0307 17.5959C51.1259 17.0517 52.336 16.7821 53.5575 16.81C53.8901 16.809 54.2225 16.829 54.5526 16.87C54.5531 16.9134 54.5514 16.9568 54.5476 17V17Z" fill="#D01582"/>
<path d="M27.3111 68.07C25.5 58.95 23.4152 51.12 20.9722 49.625C18.9471 48.39 15.2851 50.165 9.93131 52.025C4.9756 53.75 2.78136 54.29 1.8957 58C1.12946 61.215 2.28877 64.04 6.11999 68.29C9.95121 72.54 12.5087 76.085 12.842 77.41C13.1754 78.735 14.887 85.38 19.4496 85.98C22.3007 86.35 24.7337 84.885 27.0325 82.48C28.4107 81.03 28.8983 76.04 27.3111 68.07Z" fill="url(#paint3_linear_954_31633)"/>
<path d="M4.04515 55.675C3.29383 53.55 2.30369 49.715 3.45305 48C4.68203 46.185 15.1308 43.615 16.9967 45.27C18.5491 46.65 18.9869 49.62 19.0914 51.35C19.2208 53.21 16.4444 54.805 12.9415 55.8C10.0507 56.635 4.75666 57.685 4.04515 55.675Z" fill="#8089FF"/>
<path d="M4.15463 47.44C4.35365 48.57 4.88107 49.565 7.59277 49.035C10.3045 48.505 13.6232 47.535 14.5984 46.535C15.4244 45.65 16.6434 44 17.34 43.125C18.0366 42.25 20.3254 34.825 20.3254 34.825L7.5679 26.375C7.5679 26.375 4.30887 32.09 3.91082 36.67C3.63382 40.2592 3.71549 43.8672 4.15463 47.44V47.44Z" fill="#FFC518"/>
<path d="M12.3395 38.88C12.2428 38.8808 12.1473 38.8586 12.0608 38.8151C11.9743 38.7717 11.8993 38.7082 11.8419 38.63C11.7443 38.497 11.7025 38.3306 11.7258 38.1669C11.7491 38.0032 11.8355 37.8553 11.9663 37.755C14.882 35.56 17.2654 34.345 20.196 33.56C20.3515 33.5271 20.5137 33.5553 20.6492 33.6387C20.7848 33.7222 20.8833 33.8546 20.9247 34.0088C20.9661 34.1631 20.9472 34.3274 20.8718 34.468C20.7964 34.6086 20.6703 34.7149 20.5194 34.765C17.753 35.51 15.494 36.665 12.7127 38.765C12.6038 38.8426 12.473 38.8829 12.3395 38.88V38.88Z" fill="#EC5F00"/>
<path d="M36.9041 29.955L31.8986 20.785L8.22467 29.405C8.22467 29.405 17.6783 35.755 18.7282 36.35C19.7474 36.9999 20.9122 37.3832 22.1166 37.465C22.9833 37.4924 23.8449 37.3207 24.6356 36.9628C25.4263 36.605 26.1252 36.0704 26.6792 35.4C26.703 35.3698 26.7332 35.3454 26.7677 35.3286C26.8021 35.3119 26.8399 35.3032 26.8782 35.3032C26.9165 35.3032 26.9543 35.3119 26.9888 35.3286C27.0233 35.3454 27.0535 35.3698 27.0773 35.4C27.6125 36.0478 28.2832 36.5692 29.0417 36.927C29.8002 37.2848 30.6278 37.4702 31.4657 37.47C32.8689 37.47 37.4365 37.345 37.4365 37.345C37.4365 37.345 37.3071 33.26 37.1827 31.345C37.1499 30.8715 37.0563 30.4043 36.9041 29.955Z" fill="#D01582"/>
<path d="M26.6743 17.17C25.1871 16.9944 23.6839 17.3179 22.3987 18.0902C21.1136 18.8625 20.1187 20.0403 19.5691 21.44C19.5364 21.54 19.4731 21.6271 19.3882 21.6889C19.3033 21.7506 19.2012 21.7839 19.0964 21.7839C18.9916 21.7839 18.8895 21.7506 18.8046 21.6889C18.7198 21.6271 18.6564 21.54 18.6237 21.44C18.0444 19.9611 16.9696 18.7318 15.5847 17.9641C14.1999 17.1963 12.5918 16.9384 11.038 17.2346C9.48409 17.5309 8.08184 18.3629 7.07309 19.587C6.06434 20.8111 5.51236 22.3506 5.51236 23.94C5.51236 25.5294 6.06434 27.0689 7.07309 28.293C8.08184 29.5171 9.48409 30.3491 11.038 30.6454C12.5918 30.9416 14.1999 30.6837 15.5847 29.916C16.9696 29.1482 18.0444 27.9189 18.6237 26.44C18.6552 26.3381 18.7183 26.249 18.8038 26.1857C18.8893 26.1224 18.9927 26.0883 19.0989 26.0883C19.2051 26.0883 19.3085 26.1224 19.394 26.1857C19.4795 26.249 19.5426 26.3381 19.5741 26.44C20.0127 27.5651 20.7407 28.5529 21.6837 29.3027C22.6267 30.0524 23.7509 30.5371 24.9414 30.7072C26.1318 30.8774 27.3459 30.7269 28.4595 30.2711C29.5732 29.8153 30.5464 29.0706 31.2798 28.1131C32.0132 27.1555 32.4805 26.0195 32.6339 24.821C32.7873 23.6226 32.6214 22.4046 32.153 21.2917C31.6846 20.1788 30.9306 19.2109 29.968 18.4867C29.0055 17.7625 27.8688 17.3082 26.6743 17.17V17.17Z" fill="#FF78B8"/>
<path d="M9.33425 27.235L15.5488 20.925C15.1447 20.4788 14.6545 20.1199 14.108 19.8702C13.5615 19.6205 12.9701 19.4852 12.3699 19.4725C11.7697 19.4599 11.1732 19.5701 10.6168 19.7966C10.0603 20.023 9.55557 20.361 9.13326 20.7898C8.71095 21.2185 8.37993 21.7292 8.16034 22.2907C7.94076 22.8522 7.83722 23.4528 7.85602 24.0558C7.87483 24.6587 8.01558 25.2516 8.26972 25.7982C8.52386 26.3447 8.88605 26.8336 9.33425 27.235V27.235Z" fill="#423D80"/>
<path d="M15.4244 27.095C16.2539 26.2606 16.7198 25.1294 16.7198 23.95C16.7198 22.7705 16.2539 21.6394 15.4244 20.805L9.18002 27.095C10.0097 27.9239 11.1322 28.3892 12.3022 28.3892C13.4722 28.3892 14.5947 27.9239 15.4244 27.095Z" fill="black"/>
<path d="M23.0122 27.33L29.2118 21.03C28.8137 20.5637 28.3237 20.1854 27.7728 19.919C27.2219 19.6525 26.6221 19.5038 26.0111 19.482C25.4001 19.4603 24.7912 19.5661 24.2229 19.7927C23.6547 20.0194 23.1393 20.3619 22.7094 20.7988C22.2795 21.2356 21.9444 21.7573 21.7253 22.3308C21.5061 22.9044 21.4076 23.5174 21.4361 24.1311C21.4645 24.7448 21.6193 25.3459 21.8906 25.8965C22.1618 26.4471 22.5437 26.9352 23.0122 27.33V27.33Z" fill="#423D80"/>
<path d="M29.0078 27.095C29.4197 26.6825 29.7466 26.1923 29.9696 25.6526C30.1926 25.1129 30.3074 24.5343 30.3074 23.95C30.3074 23.3656 30.1926 22.787 29.9696 22.2473C29.7466 21.7076 29.4197 21.2175 29.0078 20.805L22.7485 27.095C23.5788 27.9285 24.7045 28.3967 25.8782 28.3967C27.0518 28.3967 28.1775 27.9285 29.0078 27.095V27.095Z" fill="black"/>
<path d="M38.5958 35.36C37.1085 34.8352 35.5492 34.5451 33.9735 34.5C31.1274 34.37 29.4954 35.43 29.1471 36.625C28.8685 37.625 29.3461 39.415 32.3862 39.48C35.4263 39.545 39.9591 41.8 40.8 42.53L38.5958 35.36Z" fill="#FFC518"/>
<path d="M52.0698 42.125L45.3925 50C45.3925 50 38.5261 43.715 37.8594 42.925C35.3169 39.925 37.2325 32.6 36.6702 30.97C36.1727 29.47 34.0083 24.905 33.4013 23.83L31.4807 20.065C31.4807 20.065 33.7297 19.25 35.0532 20.115C36.0483 20.76 36.7399 21.115 36.7399 21.115L36.8195 21.05L37.6554 20.83L37.949 20.255C38.2627 20.0777 38.5969 19.94 38.9441 19.845C40.6706 19.395 48.7361 22.345 50.3382 24.925C51.4428 26.665 48.3331 34 47.4076 38L52.0698 42.125Z" fill="#FFE65C"/>
<path d="M9.87158 42.43C9.87158 42.43 13.5884 36.55 19.7531 35.13C22.5246 34.5 24.3357 34.915 24.9527 36C25.4502 36.91 25.4502 38.755 22.5146 39.57C20.4343 40.1277 18.6076 41.3861 17.34 43.135L9.87158 42.43Z" fill="#FFC518"/>
<path d="M44.2382 27.18C44.1671 27.2093 44.0911 27.2246 44.0142 27.225C43.8892 27.2244 43.7672 27.1859 43.6642 27.1145C43.5613 27.0432 43.4821 26.9423 43.4371 26.825C42.4768 24.325 39.4566 22.52 36.8195 21.05C37.1632 20.7408 37.5424 20.4739 37.949 20.255C40.6159 21.755 43.5515 23.665 44.5964 26.375C44.626 26.4515 44.6401 26.533 44.6381 26.615C44.6361 26.697 44.6179 26.7778 44.5845 26.8527C44.5512 26.9275 44.5034 26.995 44.444 27.0512C44.3845 27.1074 44.3146 27.1512 44.2382 27.18V27.18Z" fill="#FF8B18"/>
<path d="M45.6811 53.545C45.6811 53.545 41.6508 50.09 41.6508 47.545C41.6508 45.35 48.2435 38.81 50.7065 39.175C53.8112 39.64 55.6821 42.675 55.6821 42.675L45.6811 53.545Z" fill="#8089FF"/>
<path d="M44.1436 55.675C45.0044 63.91 56.6821 67.425 62.5534 73.415C69.758 80.79 72.007 82.915 76.301 82.115C80.0178 81.425 82.9384 73.035 81.0328 67.995C79.2714 63.34 74.873 56.605 71.2806 51.6C68.6574 47.9451 65.3602 44.8304 61.5682 42.425C58.6923 40.65 54.3635 40.465 49.4078 45.51C44.686 50.305 43.7854 52.1 44.1436 55.675Z" fill="url(#paint4_linear_954_31633)"/>
<path d="M35.7199 70.18C35.7085 70.2044 35.6952 70.2278 35.6801 70.25C35.3467 70.78 35.0183 71.315 34.685 71.85C33.9202 65.8755 33.9052 59.8282 34.6402 53.85C34.6633 53.6855 34.7504 53.5371 34.8825 53.4372C34.9478 53.3878 35.0223 53.3517 35.1015 53.3312C35.1807 53.3107 35.2632 53.306 35.3442 53.3175C35.4252 53.329 35.5032 53.3564 35.5737 53.3982C35.6442 53.4399 35.7058 53.4953 35.755 53.5609C35.8042 53.6266 35.84 53.7014 35.8605 53.7811C35.8809 53.8607 35.8856 53.9436 35.8741 54.025C35.2298 59.3878 35.1781 64.8058 35.7199 70.18V70.18Z" fill="black"/>
<path d="M68.2405 33.35C67.32 34.85 65.3248 37.09 61.2746 37.625H61.2C61.035 37.6356 60.8726 37.5799 60.7485 37.4702C60.6244 37.3605 60.5488 37.2058 60.5382 37.04C60.5277 36.8742 60.5831 36.7111 60.6922 36.5863C60.8014 36.4616 60.9554 36.3856 61.1204 36.375C64.5088 35.925 66.1806 34.21 67.0364 32.875C67.4278 33.0577 67.8299 33.2163 68.2405 33.35V33.35Z" fill="black"/>
<path d="M5.84636 8.06C5.40572 7.77585 5.03045 7.40052 4.74559 6.95907C4.46074 6.51763 4.27285 6.0202 4.19446 5.5L3.9208 3.685C3.91629 3.6404 3.89492 3.59923 3.86109 3.57C3.83305 3.53305 3.79219 3.50806 3.74665 3.5C3.70267 3.50388 3.66095 3.52135 3.62724 3.55C3.59636 3.58086 3.57703 3.62148 3.57251 3.665L3.29387 5.5C3.21829 6.02373 3.03164 6.52504 2.74656 6.97C2.45869 7.40731 2.08231 7.77872 1.64197 8.06L1.40812 8.21C1.38328 8.2265 1.36279 8.2488 1.34841 8.275C1.32865 8.32993 1.32865 8.39007 1.34841 8.445C1.36279 8.4712 1.38328 8.4935 1.40812 8.51L1.64197 8.66C2.08435 8.94707 2.46088 9.32545 2.74656 9.77C3.03164 10.215 3.21829 10.7163 3.29387 11.24L3.57251 13.035C3.57822 13.0778 3.59948 13.117 3.63221 13.145C3.66458 13.1713 3.70504 13.1854 3.74665 13.185C3.78813 13.1846 3.82834 13.1706 3.86109 13.145C3.89382 13.117 3.91509 13.0778 3.9208 13.035L4.19446 11.24C4.27016 10.7163 4.4568 10.2149 4.74177 9.76984C5.02674 9.32477 5.40341 8.9463 5.84636 8.66L6.08519 8.51C6.11003 8.4935 6.13052 8.4712 6.1449 8.445C6.16466 8.39007 6.16466 8.32993 6.1449 8.275C6.13052 8.2488 6.11003 8.2265 6.08519 8.21L5.84636 8.06Z" fill="#66BBFF"/>
<path d="M81.2865 22.6C80.8413 22.3175 80.4628 21.9407 80.1774 21.496C79.8921 21.0512 79.7069 20.5492 79.6346 20.025L79.356 18.23C79.3515 18.1865 79.3322 18.1459 79.3013 18.115C79.2676 18.0864 79.2258 18.0689 79.1819 18.065C79.1394 18.0689 79.0992 18.0865 79.0674 18.115C79.0336 18.1443 79.0122 18.1854 79.0077 18.23L78.7341 20.025C78.6564 20.5475 78.469 21.0474 78.1841 21.4914C77.8993 21.9354 77.5236 22.3133 77.0821 22.6L76.8433 22.755C76.8178 22.7692 76.7983 22.7924 76.7886 22.82C76.7812 22.8479 76.7812 22.8772 76.7886 22.905C76.7816 22.9329 76.7816 22.9621 76.7886 22.99C76.7997 23.0169 76.8188 23.0396 76.8433 23.055L77.0821 23.205C77.5242 23.4908 77.8993 23.8695 78.1818 24.315C78.4675 24.7583 78.6558 25.2578 78.7341 25.78L79.0077 27.58C79.0154 27.6222 79.0363 27.6607 79.0674 27.69C79.1002 27.7156 79.1404 27.7297 79.1819 27.73C79.2249 27.7297 79.2667 27.7157 79.3013 27.69C79.3308 27.6603 79.35 27.6217 79.356 27.58L79.6346 25.78C79.7093 25.2568 79.8942 24.7557 80.177 24.31C80.466 23.8679 80.844 23.4915 81.2865 23.205L81.5254 23.055C81.5536 23.0419 81.579 23.0232 81.6 23C81.607 22.9721 81.607 22.9429 81.6 22.915C81.6074 22.8872 81.6074 22.8579 81.6 22.83C81.5872 22.8043 81.5684 22.782 81.5453 22.765L81.2865 22.6Z" fill="#59F186"/>
<path d="M93.0439 9.80497C92.3972 9.38843 91.8471 8.83717 91.4307 8.18848C91.0144 7.53978 90.7416 6.8088 90.6307 6.04497L90.2327 3.41997C90.2233 3.35459 90.1917 3.2945 90.1431 3.24997C90.1209 3.2276 90.0946 3.20984 90.0655 3.19773C90.0365 3.18562 90.0054 3.17938 89.9739 3.17938C89.9425 3.17938 89.9114 3.18562 89.8824 3.19773C89.8533 3.20984 89.827 3.2276 89.8048 3.24997C89.7577 3.29499 89.7278 3.35513 89.7202 3.41997L89.3172 6.04497C89.2023 6.80682 88.9293 7.5359 88.5161 8.18497C88.1006 8.83492 87.5508 9.38742 86.904 9.80497L86.5557 10.025C86.5201 10.0499 86.4924 10.0846 86.4761 10.125C86.4557 10.1634 86.4454 10.2064 86.4462 10.25C86.446 10.2919 86.4563 10.3331 86.4761 10.37C86.4924 10.4104 86.5201 10.4451 86.5557 10.47L86.904 10.69C87.5497 11.1089 88.0993 11.6611 88.5161 12.31C88.9293 12.959 89.2023 13.6881 89.3172 14.45L89.7202 17.075C89.7288 17.1366 89.7588 17.1933 89.8048 17.235C89.8522 17.2753 89.9118 17.2982 89.9739 17.3C90.0364 17.3 90.0966 17.2768 90.1431 17.235C90.1925 17.1953 90.2246 17.138 90.2327 17.075L90.6307 14.45C90.7416 13.6861 91.0144 12.9552 91.4307 12.3065C91.8471 11.6578 92.3972 11.1065 93.0439 10.69L93.3922 10.47C93.428 10.444 93.457 10.4097 93.4768 10.37C93.4867 10.3306 93.4867 10.2894 93.4768 10.25C93.4871 10.209 93.4871 10.166 93.4768 10.125C93.457 10.0853 93.428 10.051 93.3922 10.025L93.0439 9.80497Z" fill="#FFC518"/>
<defs>
<linearGradient id="paint0_linear_954_31633" x1="65.5736" y1="80.04" x2="65.5736" y2="-38.23" gradientUnits="userSpaceOnUse">
<stop stop-color="#FF78B8"/>
<stop offset="0.99" stop-color="#EA459E"/>
</linearGradient>
<linearGradient id="paint1_linear_954_31633" x1="56.8364" y1="108.295" x2="56.8364" y2="48.21" gradientUnits="userSpaceOnUse">
<stop offset="0.01" stop-color="#0A1BAC"/>
<stop offset="0.31" stop-color="#1D2DC0"/>
<stop offset="0.68" stop-color="#2D3DD2"/>
<stop offset="0.95" stop-color="#3343D8"/>
</linearGradient>
<linearGradient id="paint2_linear_954_31633" x1="50.4129" y1="10.825" x2="50.7747" y2="45.01" gradientUnits="userSpaceOnUse">
<stop stop-color="#FFC518"/>
<stop offset="1" stop-color="#FF8B18"/>
</linearGradient>
<linearGradient id="paint3_linear_954_31633" x1="11.0359" y1="54.375" x2="26.9423" y2="85.9977" gradientUnits="userSpaceOnUse">
<stop offset="0.05" stop-color="#5765F1"/>
<stop offset="0.65" stop-color="#3645DA"/>
<stop offset="0.69" stop-color="#3343D8"/>
</linearGradient>
<linearGradient id="paint4_linear_954_31633" x1="48.3231" y1="47.36" x2="79.6084" y2="72.1409" gradientUnits="userSpaceOnUse">
<stop offset="0.05" stop-color="#5765F1"/>
<stop offset="0.47" stop-color="#4857E7"/>
<stop offset="0.91" stop-color="#3343D8"/>
</linearGradient>
</defs>
</svg>
