<svg id="art" xmlns="http://www.w3.org/2000/svg" xmlns:xlink="http://www.w3.org/1999/xlink" viewBox="0 0 280 168"><defs><style>.cls-1,.cls-9{fill:none;}.cls-2{fill:#5865f2;}.cls-3{fill:#6874f6;}.cls-4{fill:#fff;}.cls-5{fill:#808aff;}.cls-6{fill:#91ffad;}.cls-7{fill:#ff78b9;}.cls-8{fill:#ff54a6;}.cls-9{stroke:#fff2a6;stroke-linecap:round;stroke-miterlimit:10;stroke-width:3.28px;}.cls-10{fill:#3442d9;}.cls-11{clip-path:url(#clip-path);}.cls-12{fill:#66bcff;}.cls-13{fill:#67bdff;}.cls-14{fill:#68beff;}.cls-15{fill:#69beff;}.cls-16{fill:#6abfff;}.cls-17{fill:#6bc0ff;}.cls-18{fill:#6cc1ff;}.cls-19{fill:#6dc1ff;}.cls-20{fill:#6ec2ff;}.cls-21{fill:#6fc3ff;}.cls-22{fill:#70c4ff;}.cls-23{fill:#71c5ff;}.cls-24{fill:#72c5ff;}.cls-25{fill:#73c6ff;}.cls-26{fill:#74c7ff;}.cls-27{fill:#75c8ff;}.cls-28{fill:#76c9ff;}.cls-29{fill:#77c9ff;}.cls-30{fill:#78caff;}.cls-31{fill:#7acbff;}.cls-32{fill:#7bccff;}.cls-33{fill:#7cccff;}.cls-34{fill:#7dcdff;}.cls-35{fill:#7eceff;}.cls-36{fill:#7fcfff;}.cls-37{fill:#80d0ff;}.cls-38{fill:#81d0ff;}.cls-39{fill:#82d1ff;}.cls-40{fill:#83d2ff;}.cls-41{fill:#84d3ff;}.cls-42{fill:#85d4ff;}.cls-43{fill:#86d4ff;}.cls-44{fill:#87d5ff;}.cls-45{fill:#88d6ff;}.cls-46{fill:#89d7ff;}.cls-47{fill:#8ad7ff;}.cls-48{fill:#8bd8ff;}.cls-49{fill:#8cd9ff;}.cls-50{clip-path:url(#clip-path-2);}.cls-51{fill:#eb459f;}.cls-52{fill:#ffc619;}.cls-53{fill:#4a57e0;}.cls-54{fill:#fa6ef6;}.cls-55{fill:#ffadfb;}.cls-56{fill:#e655d4;}.cls-57{fill:#ffcff9;}.cls-58{fill:#36393f;}</style><clipPath id="clip-path"><path class="cls-1" d="M275.51,112.12A14.85,14.85,0,0,1,280,107V94.75a26.57,26.57,0,0,0-10.44,1.72,26,26,0,0,0-8.93,5.68,25.11,25.11,0,0,0-5.86,8.73c-2.81,7.05-.69,12.76,4,14.47a8,8,0,0,0,6-.3C268.84,123.17,270.75,120.84,275.51,112.12Z"/></clipPath><clipPath id="clip-path-2"><path class="cls-1" d="M280,131.84c-6.19-1.25-9.33-.68-12,.23a6.86,6.86,0,0,0-2.78,1.72,6.79,6.79,0,0,0-1.71,2.77c-.7,2.31-.18,5.26,5.07,7.5A26.65,26.65,0,0,0,280,146.17Z"/></clipPath></defs><rect class="cls-2" width="280" height="168"/><path class="cls-3" d="M0,61.78H118c-12-12.3-25-8.06-25-8.06S82.13,36.27,68.42,45.5C62.52,8.12,37.2,20.43,37.2,20.43,31.18-.55,7.89-2.42,0,3.33Z"/><path class="cls-4" d="M280,5V0H249a56.76,56.76,0,0,0-3.79,6.67l-9.05,19,15.18-9.42a10.8,10.8,0,0,1,8.53-1.15,19,19,0,0,0,13.54-1.27,3.37,3.37,0,0,0,.67-5.63l-3.47-2.86A17.63,17.63,0,0,0,280,5Z"/><path class="cls-4" d="M198.58,33.45l-9.75-9.3a35.14,35.14,0,0,0-12.64-7.73L154,8.64a2.24,2.24,0,0,0-3,2.5c.74,4,3.45,10.08,12.89,12.49L160.33,25a2.25,2.25,0,0,0-.32,4.05c3.23,1.83,8.26,3.43,13.31.09L172,31.53a2.25,2.25,0,0,0,1.78,3.35,12.2,12.2,0,0,0,8.31-2.4,6.57,6.57,0,0,1,5.11-1.24Z"/><path class="cls-5" d="M218.61,66.65a.42.42,0,0,0,.3.07.43.43,0,0,0,.26-.15c2.21-2.76,3.76-2.95,5-2.36.82.39,1.79,1.92,2.31,3.83a.88.88,0,0,0,.92.61.89.89,0,0,0,.38-.15.63.63,0,0,0,.27-.31c1.08-2,1.69-3,2.83-3.72a4.95,4.95,0,0,1,5.35.54l2.85-5.86a16.27,16.27,0,0,1-8.54-7.5c-1.93-3.29-2.84-2.79-5.73,1.29a40.39,40.39,0,0,0-6.39,13.26.29.29,0,0,0,0,.27A.33.33,0,0,0,218.61,66.65Z"/><path d="M199.28,34.93c6.18-2.35,13.72,1.91,16.83,9.51s.67,15.67-5.51,18l17.92-1.15C243.6,55.52,250.94,47.52,245,32.69c-4.35-10.93-14.38-14.43-28-9.2S199.28,34.93,199.28,34.93Z"/><path class="cls-4" d="M211.19,31.16c5.61,7,8.86,11.12,10.31,12.14s1.55.16.71-3.61-3.5-17-3.5-17Z"/><path class="cls-5" d="M202.1,39.37c4.1,5.17,6.51,8.17,7.56,8.91s1.14.13.52-2.64-2.55-12.53-2.55-12.53Z"/><path class="cls-4" d="M229.14,59.05c-.54-6.54-.84-10.35-.56-11.54s.74-.85,2.19,1.6S237.51,60,237.51,60Z"/><path class="cls-6" d="M203.49,60a7.85,7.85,0,0,1,5-5c3.2-1.11,7-1.77,15.16.12a14.09,14.09,0,0,0,8.37-.52A18.53,18.53,0,0,0,243.16,34.2c-1.69-8.23-9.47-12.47-17.32-9.44a16.8,16.8,0,0,0-9,7.89c-5.33,9.75-7.46,12.36-12,14.46a8.92,8.92,0,0,1-6.71.33c-5.21-1.91-7.58-8.3-4.45-16.18a28.19,28.19,0,0,1,6.56-9.77,29,29,0,0,1,10-6.35,29.9,29.9,0,0,1,14.12-1.75,29.55,29.55,0,0,1,13.27,5,29,29,0,0,1,9.33,10.54A28.4,28.4,0,0,1,246.39,56a28.94,28.94,0,0,1-9.75,10.17,29.67,29.67,0,0,1-27.48,2.17C203.29,65.88,202.7,62.57,203.49,60Z"/><path class="cls-4" d="M238,21.74a16,16,0,0,0-13.49-.62,21.48,21.48,0,0,0-11,9.82c-3.44,6-8.59,14-13.87,14.27a8,8,0,0,1-3.58-.66,7.73,7.73,0,0,1-2.9-2.17.84.84,0,0,0,.1.29,6.7,6.7,0,0,0,2.41,3,6.87,6.87,0,0,0,3.66,1.17h.41c4.7-.24,9.39-4.89,15.22-15.07a19.62,19.62,0,0,1,10.19-9.13,14.55,14.55,0,0,1,12.17.53,15.46,15.46,0,0,1,4.92,4.43,14.86,14.86,0,0,1,2.53,6.07c2,9.6-3.61,20.2-12.58,23.63a16.58,16.58,0,0,1-9.51.54c-8.73-1.73-14.54-1.25-17.72,1.47l-.4.36a4,4,0,0,0-1.08,2.18,3.82,3.82,0,0,0,.42,2.39,5.55,5.55,0,0,1,.66-2.1A6,6,0,0,1,206,60.44c2.73-2.34,8.24-2.71,16.33-1a18.35,18.35,0,0,0,10.47-.68c9.65-3.7,15.77-15.12,13.57-25.45a16.31,16.31,0,0,0-2.87-6.68A16.91,16.91,0,0,0,238,21.74Z"/><path class="cls-7" d="M236.29,52.11s15.15-3.34,15,15.71c-.17,17.11,22.91,4.48,11.65-14.32-8.51-14.22-19.67-12.72-19.67-12.72s-1.54-.42-2.23,3.29a4.54,4.54,0,0,1-1.93,3C236.55,48.73,235.9,50.11,236.29,52.11Z"/><path class="cls-8" d="M250.88,46.82a18.14,18.14,0,0,0-9.81-3l-.06.27a4.56,4.56,0,0,1-1.67,2.76,16,16,0,0,1,9.84,2.47c3.52,2.46,5.62,6.7,6.24,12.62a1.5,1.5,0,0,0,1.49,1.35h.16a1.51,1.51,0,0,0,1.34-1.65C257.7,54.77,255.16,49.8,250.88,46.82Z"/><ellipse class="cls-9" cx="201.04" cy="9.96" rx="9.81" ry="3.77" transform="translate(26.07 109.46) rotate(-32.46)"/><path class="cls-3" d="M25.44,110.75s15.41-29.37,34.86-4.57c0,0,18.43-3,25,15.21H4.77S17.07,102.2,25.44,110.75Z"/><path class="cls-3" d="M209.16,129.46s9.13-49.74,34.43,9.57c0,0,10.55-11.34,25.47,10.38H173.75S186.21,116.9,209.16,129.46Z"/><path class="cls-10" d="M226,123.23a.91.91,0,0,0,.61.09.81.81,0,0,0,.51-.33c4.1-5.62,7.1-6.17,9.54-5.13,1.64.7,3.72,3.61,5,7.33a1.65,1.65,0,0,0,.72.88,1.72,1.72,0,0,0,1.13.22,1.77,1.77,0,0,0,.76-.32,1.68,1.68,0,0,0,.5-.62c1.84-4.06,3-6.07,5.2-7.61s6.68-2.15,10.66.51l5.07-11.81c-8.51-2.71-13.68-8-17.57-14-4.17-6.3-5.87-5.22-11.16,3.11a80.75,80.75,0,0,0-11.32,26.75.78.78,0,0,0,.05.5A.9.9,0,0,0,226,123.23Z"/><path d="M258,117.16a1.06,1.06,0,0,1-.79-.34,49.18,49.18,0,0,1-8.72-12.2,1.11,1.11,0,0,1,2-1,47.08,47.08,0,0,0,8.32,11.66,1.11,1.11,0,0,1,0,1.57A1.14,1.14,0,0,1,258,117.16Z"/><path d="M269.9,138.76l10.1-.65V102.55a36.41,36.41,0,0,0-4.42,1.38c-12.22,4.69-15.8,10.23-15.8,10.23,5.52-2.1,12.26,1.71,15.05,8.5S275.42,136.67,269.9,138.76Z"/><path class="cls-4" d="M280,117.19c-.94-4.37-2.86-14-2.86-14l-6.72,7.61c5,6.28,7.93,9.94,9.22,10.85a3.44,3.44,0,0,0,.36.23Z"/><path class="cls-4" d="M262.3,118.13c3.66,4.62,5.82,7.3,6.76,8s1,.11.46-2.37-2.28-11.19-2.28-11.19Z"/><g class="cls-11"><polygon class="cls-12" points="280 97.14 273.43 94.62 280 94.62 280 97.14"/><polygon class="cls-12" points="280 97.91 271.43 94.62 273.43 94.62 280 97.14 280 97.91"/><polygon class="cls-13" points="280 98.67 269.44 94.62 271.43 94.62 280 97.91 280 98.67"/><polygon class="cls-14" points="280 99.44 267.45 94.62 269.44 94.62 280 98.67 280 99.44"/><polygon class="cls-15" points="280 100.2 265.45 94.62 267.45 94.62 280 99.44 280 100.2"/><polygon class="cls-16" points="280 100.97 263.46 94.62 265.45 94.62 280 100.2 280 100.97"/><polygon class="cls-17" points="280 101.73 261.47 94.62 263.46 94.62 280 100.97 280 101.73"/><polygon class="cls-18" points="280 102.49 259.48 94.62 261.47 94.62 280 101.73 280 102.49"/><polygon class="cls-19" points="280 103.26 258.47 95 258.62 94.62 259.48 94.62 280 102.49 280 103.26"/><polygon class="cls-20" points="280 104.02 258.22 95.67 258.47 95 280 103.26 280 104.02"/><polygon class="cls-21" points="280 104.79 257.96 96.33 258.22 95.67 280 104.02 280 104.79"/><polygon class="cls-22" points="280 105.55 257.71 97 257.96 96.33 280 104.79 280 105.55"/><polygon class="cls-23" points="280 106.31 257.45 97.67 257.71 97 280 105.55 280 106.31"/><polygon class="cls-24" points="280 107.08 257.2 98.33 257.45 97.67 280 106.31 280 107.08"/><polygon class="cls-25" points="280 107.84 256.94 99 257.2 98.33 280 107.08 280 107.84"/><polygon class="cls-26" points="280 108.61 256.69 99.67 256.94 99 280 107.84 280 108.61"/><polygon class="cls-27" points="280 109.37 256.43 100.33 256.69 99.67 280 108.61 280 109.37"/><polygon class="cls-28" points="280 110.14 256.18 101 256.43 100.33 280 109.37 280 110.14"/><polygon class="cls-29" points="280 110.9 255.92 101.67 256.18 101 280 110.14 280 110.9"/><polygon class="cls-30" points="280 111.66 255.66 102.33 255.92 101.67 280 110.9 280 111.66"/><polygon class="cls-31" points="280 112.43 255.41 103 255.66 102.33 280 111.66 280 112.43"/><polygon class="cls-32" points="280 112.91 279.9 113.16 255.15 103.66 255.41 103 280 112.43 280 112.91"/><rect class="cls-33" x="267.04" y="95.49" width="0.71" height="26.51" transform="translate(70.13 319.48) rotate(-69.02)"/><rect class="cls-34" x="266.79" y="96.15" width="0.71" height="26.51" transform="translate(69.34 319.67) rotate(-69.02)"/><rect class="cls-35" x="266.53" y="96.82" width="0.71" height="26.51" transform="translate(68.55 319.86) rotate(-69.02)"/><rect class="cls-36" x="266.28" y="97.49" width="0.71" height="26.51" transform="translate(67.77 320.05) rotate(-69.02)"/><rect class="cls-37" x="266.02" y="98.15" width="0.71" height="26.51" transform="translate(66.98 320.24) rotate(-69.02)"/><rect class="cls-38" x="265.77" y="98.82" width="0.71" height="26.51" transform="translate(66.2 320.43) rotate(-69.02)"/><rect class="cls-39" x="265.51" y="99.49" width="0.71" height="26.51" transform="translate(65.41 320.62) rotate(-69.02)"/><rect class="cls-40" x="265.26" y="100.15" width="0.71" height="26.51" transform="translate(64.62 320.81) rotate(-69.02)"/><rect class="cls-41" x="265" y="100.82" width="0.71" height="26.51" transform="translate(63.84 321) rotate(-69.02)"/><rect class="cls-42" x="264.75" y="101.48" width="0.71" height="26.51" transform="translate(63.05 321.18) rotate(-69.02)"/><rect class="cls-43" x="264.49" y="102.15" width="0.71" height="26.51" transform="translate(62.27 321.37) rotate(-69.02)"/><rect class="cls-44" x="264.23" y="102.82" width="0.71" height="26.51" transform="translate(61.48 321.56) rotate(-69.02)"/><polygon class="cls-45" points="276.84 121.15 276.58 121.82 251.96 112.37 251.96 111.98 252.09 111.66 276.84 121.15"/><polygon class="cls-46" points="276.58 121.82 276.33 122.48 251.96 113.14 251.96 112.37 276.58 121.82"/><polygon class="cls-47" points="276.33 122.48 276.07 123.15 251.96 113.9 251.96 113.14 276.33 122.48"/><polygon class="cls-48" points="276.07 123.15 275.82 123.81 251.96 114.67 251.96 113.9 276.07 123.15"/><polygon class="cls-49" points="275.82 123.81 275.56 124.48 251.96 115.43 251.96 114.67 275.82 123.81"/><polygon class="cls-49" points="275.56 124.48 274.97 126.03 251.96 126.03 251.96 115.43 275.56 124.48"/></g><g class="cls-50"><polygon class="cls-12" points="280 132.87 274.07 130.59 280 130.59 280 132.87"/><polygon class="cls-12" points="280 133.19 273.21 130.59 274.07 130.59 280 132.87 280 133.19"/><polygon class="cls-13" points="280 133.52 272.36 130.59 273.21 130.59 280 133.19 280 133.52"/><polygon class="cls-14" points="280 133.85 271.5 130.59 272.36 130.59 280 133.52 280 133.85"/><polygon class="cls-15" points="280 134.18 270.65 130.59 271.5 130.59 280 133.85 280 134.18"/><polygon class="cls-16" points="280 134.5 269.8 130.59 270.65 130.59 280 134.18 280 134.5"/><polygon class="cls-17" points="280 134.83 268.94 130.59 269.8 130.59 280 134.5 280 134.83"/><polygon class="cls-18" points="280 135.16 268.09 130.59 268.94 130.59 280 134.83 280 135.16"/><polygon class="cls-19" points="280 135.49 267.24 130.59 268.09 130.59 280 135.16 280 135.49"/><polygon class="cls-20" points="280 135.81 266.38 130.59 267.24 130.59 280 135.49 280 135.81"/><polygon class="cls-21" points="280 136.14 265.53 130.59 266.38 130.59 280 135.81 280 136.14"/><polygon class="cls-22" points="280 136.47 264.67 130.59 265.53 130.59 280 136.14 280 136.47"/><polygon class="cls-23" points="280 136.8 263.82 130.59 264.67 130.59 280 136.47 280 136.8"/><polygon class="cls-24" points="280 137.12 263.42 130.77 263.49 130.59 263.82 130.59 280 136.8 280 137.12"/><polygon class="cls-25" points="280 137.45 263.31 131.05 263.42 130.77 280 137.12 280 137.45"/><polygon class="cls-26" points="280 137.78 263.2 131.34 263.31 131.05 280 137.45 280 137.78"/><polygon class="cls-27" points="280 138.11 263.09 131.62 263.2 131.34 280 137.78 280 138.11"/><polygon class="cls-28" points="280 138.43 262.99 131.91 263.09 131.62 280 138.11 280 138.43"/><polygon class="cls-29" points="280 138.76 262.88 132.19 262.99 131.91 280 138.43 280 138.76"/><polygon class="cls-30" points="280 139.09 262.84 132.51 262.84 132.29 262.88 132.19 280 138.76 280 139.09"/><polygon class="cls-31" points="280 139.42 262.84 132.84 262.84 132.51 280 139.09 280 139.42"/><polygon class="cls-32" points="280 139.74 262.84 133.16 262.84 132.84 280 139.42 280 139.74"/><polygon class="cls-33" points="280 140.07 262.84 133.49 262.84 133.16 280 139.74 280 140.07"/><polygon class="cls-34" points="280 140.4 262.84 133.82 262.84 133.49 280 140.07 280 140.4"/><polygon class="cls-35" points="280 140.73 262.84 134.15 262.84 133.82 280 140.4 280 140.73"/><polygon class="cls-36" points="280 141.05 262.84 134.47 262.84 134.15 280 140.73 280 141.05"/><polygon class="cls-37" points="280 141.38 262.84 134.8 262.84 134.47 280 141.05 280 141.38"/><polygon class="cls-38" points="280 141.71 262.84 135.13 262.84 134.8 280 141.38 280 141.71"/><polygon class="cls-39" points="280 142.04 262.84 135.46 262.84 135.13 280 141.71 280 142.04"/><polygon class="cls-40" points="280 142.36 262.84 135.78 262.84 135.46 280 142.04 280 142.36"/><polygon class="cls-41" points="280 142.69 262.84 136.11 262.84 135.78 280 142.36 280 142.69"/><polygon class="cls-42" points="280 143.02 262.84 136.44 262.84 136.11 280 142.69 280 143.02"/><polygon class="cls-43" points="280 143.35 262.84 136.76 262.84 136.44 280 143.02 280 143.35"/><polygon class="cls-44" points="280 143.67 262.84 137.09 262.84 136.76 280 143.35 280 143.67"/><polygon class="cls-45" points="280 144 262.84 137.42 262.84 137.09 280 143.67 280 144"/><polygon class="cls-46" points="280 144.33 262.84 137.75 262.84 137.42 280 144 280 144.33"/><polygon class="cls-47" points="280 144.66 262.84 138.07 262.84 137.75 280 144.33 280 144.66"/><polygon class="cls-48" points="280 144.98 262.84 138.4 262.84 138.07 280 144.66 280 144.98"/><polygon class="cls-49" points="280 145.31 262.84 138.73 262.84 138.4 280 144.98 280 145.31"/><polygon class="cls-49" points="262.84 138.73 280 145.31 280 146.31 262.84 146.31 262.84 138.73"/></g><path d="M242.87,126.21a1.12,1.12,0,0,1-1.1-.94c-1.26-8.29-.73-20.73-.71-21.25a1.11,1.11,0,1,1,2.21.1c0,.12-.54,12.74.69,20.82a1.11,1.11,0,0,1-.93,1.26Z"/><path d="M226.4,123.77a1.11,1.11,0,0,1-1-1.54,115.66,115.66,0,0,1,10.68-19.64,1.11,1.11,0,0,1,1.83,1.24,113,113,0,0,0-10.47,19.26A1.1,1.1,0,0,1,226.4,123.77Z"/><path class="cls-51" d="M273.73,111.3a17.42,17.42,0,0,1,6.27-6.73v-1.64a19.09,19.09,0,0,0-7.56,7.66c-3.08,5.37-7.68,12.53-12.41,12.76a7.2,7.2,0,0,1-3.2-.59,7.1,7.1,0,0,1-2.59-1.94.89.89,0,0,0,.09.26,6,6,0,0,0,5.43,3.69h.36C264.33,124.56,268.52,120.4,273.73,111.3Z"/><path class="cls-51" d="M280,134.49c-7.45-1.4-12.44-.93-15.2,1.43l-.36.33a3.48,3.48,0,0,0-.6,4.08,5,5,0,0,1,.6-1.88,5.17,5.17,0,0,1,1.31-1.48c2.4-2.06,7.22-2.4,14.25-1Z"/><path class="cls-7" d="M33.19,83.28a8.14,8.14,0,0,1-3.64-5.63L29,73.72a.39.39,0,0,0-.39-.34h0a.41.41,0,0,0-.39.34l-.59,3.93A8.13,8.13,0,0,1,24,83.28l-.51.33a.39.39,0,0,0-.18.33v0a.39.39,0,0,0,.18.33l.51.33a8.13,8.13,0,0,1,3.63,5.63l.59,3.93a.41.41,0,0,0,.39.34h0a.39.39,0,0,0,.39-.34l.59-3.93a8.14,8.14,0,0,1,3.64-5.63l.51-.33a.39.39,0,0,0,.18-.33v0a.39.39,0,0,0-.18-.33Z"/><path class="cls-52" d="M75.89,13.39a7.24,7.24,0,0,1-3.24-5l-.52-3.5a.35.35,0,0,0-.35-.3h0a.36.36,0,0,0-.35.3l-.52,3.5a7.26,7.26,0,0,1-3.23,5l-.46.29a.34.34,0,0,0-.16.29v0a.35.35,0,0,0,.16.3l.46.29a7.26,7.26,0,0,1,3.23,5l.52,3.5a.36.36,0,0,0,.35.3h0a.35.35,0,0,0,.35-.3l.52-3.5a7.24,7.24,0,0,1,3.24-5l.45-.29a.35.35,0,0,0,.16-.3v0a.34.34,0,0,0-.16-.29Z"/><path class="cls-6" d="M23.82,56.56a9.71,9.71,0,0,1-4.33-6.7l-.7-4.68a.46.46,0,0,0-.46-.4h0a.48.48,0,0,0-.47.4l-.7,4.68a9.66,9.66,0,0,1-4.32,6.7l-.61.39a.46.46,0,0,0-.21.39v0a.49.49,0,0,0,.21.4l.61.39a9.62,9.62,0,0,1,4.32,6.69l.7,4.68a.48.48,0,0,0,.47.4h0a.46.46,0,0,0,.46-.4l.7-4.68a9.67,9.67,0,0,1,4.33-6.69l.6-.39a.47.47,0,0,0,.22-.4v0a.44.44,0,0,0-.22-.39Z"/><polygon class="cls-53" points="79.1 29.5 76.5 32.1 76.5 35.77 79.1 38.36 79.1 38.36 81.7 35.76 81.7 32.1 79.1 29.5"/><polygon class="cls-53" points="100.22 14.72 97.62 17.32 97.62 20.98 100.22 23.57 100.22 23.57 102.83 20.97 102.83 17.32 100.22 14.72"/><polygon class="cls-53" points="258.67 21.95 254.76 25.86 254.76 31.37 258.67 35.27 258.67 35.27 262.59 31.36 262.59 25.86 258.67 21.95"/><path class="cls-54" d="M53.47,4.45l-8,8v11.3l8,8,8-8V12.48Zm4,17.65-4,4-4-4v-8l4-4,4,4Z"/><path class="cls-55" d="M53.47,4.45v5.67l4,4,4-1.65Z"/><path class="cls-56" d="M49.45,22.1l-4,1.68,8,8V26.12Z"/><path class="cls-57" d="M49.45,14.13v8l4,4,4-4v-8l-4-4Z"/><path class="cls-4" d="M57.48,14.13v0l-8,8h0V20L56.38,13Z"/><path class="cls-4" d="M57.48,17.14v2.21l-5.37,5.41L51,23.62Z"/><path class="cls-54" d="M36.24,27.23l-5.48,5.48v7.7l5.48,5.45,5.47-5.47V32.71Zm2.73,12L36.24,42,33.5,39.26V33.83l2.74-2.74L39,33.83Z"/><path class="cls-55" d="M36.24,27.23v3.86L39,33.83l2.74-1.12Z"/><path class="cls-56" d="M33.5,39.26l-2.74,1.15,5.48,5.45V42Z"/><path class="cls-57" d="M33.5,33.83v5.43L36.24,42,39,39.26V33.83l-2.73-2.74Z"/><path class="cls-4" d="M39,33.83v0l-5.45,5.43h0V37.8l4.72-4.72Z"/><path class="cls-4" d="M39,35.88v1.5l-3.66,3.69-.75-.77Z"/><path class="cls-54" d="M107.36,39.67,101,46v8.89l6.32,6.29,6.31-6.32V46Zm3.15,13.88-3.15,3.16-3.16-3.16V47.29l3.16-3.16,3.15,3.16Z"/><path class="cls-55" d="M107.36,39.67v4.46l3.15,3.16,3.16-1.3Z"/><path class="cls-56" d="M104.2,53.55,101,54.88l6.32,6.29V56.71Z"/><path class="cls-57" d="M104.2,47.29v6.26l3.16,3.16,3.15-3.16V47.29l-3.15-3.16Z"/><path class="cls-4" d="M110.51,47.29v0l-6.29,6.27h0V51.87l5.45-5.45Z"/><path class="cls-4" d="M110.51,49.66v1.73l-4.22,4.25-.87-.89Z"/><path class="cls-54" d="M252.65,145l-5,5v7l5,5,5-5v-7Zm2.51,11-2.51,2.5-2.5-2.5v-5l2.5-2.51,2.51,2.51Z"/><path class="cls-55" d="M252.65,145v3.53l2.51,2.51,2.5-1Z"/><path class="cls-56" d="M250.15,156l-2.51,1,5,5v-3.53Z"/><path class="cls-57" d="M250.15,151v5l2.5,2.5,2.51-2.5v-5l-2.51-2.51Z"/><path class="cls-4" d="M255.16,151v0l-5,5h0v-1.36l4.32-4.32Z"/><path class="cls-4" d="M255.16,152.9v1.37l-3.36,3.37-.68-.71Z"/><path class="cls-54" d="M266.09,24.23l-5.64,5.65v7.94l5.64,5.62,5.64-5.65V29.88Zm2.82,12.4-2.82,2.82-2.82-2.82V31l2.82-2.82L268.91,31Z"/><path class="cls-55" d="M266.09,24.23v4L268.91,31l2.82-1.16Z"/><path class="cls-56" d="M263.27,36.63l-2.82,1.19,5.64,5.62v-4Z"/><path class="cls-57" d="M263.27,31v5.59l2.82,2.82,2.82-2.82V31l-2.82-2.82Z"/><path class="cls-4" d="M268.91,31v0l-5.62,5.6h0V35.13l4.87-4.87Z"/><path class="cls-4" d="M268.91,33.15V34.7l-3.78,3.8-.77-.8Z"/><path class="cls-58" d="M237,168V63a12,12,0,0,0-12-12H55A12,12,0,0,0,43,63V168Z"/><path class="cls-4" d="M101.49,142H98.58l-2.32,4.46-2.4-4.57-2.91.4L94.77,149v4h2.74v-4.06Zm6.41,7.12a3.73,3.73,0,0,0-3.78-4.08c-2.16,0-3.76,1.58-3.76,4.1s1.59,4.06,3.75,4.06A3.75,3.75,0,0,0,107.9,149.08Zm-2.34,0c0,1.26-.51,2.11-1.44,2.11s-1.42-.87-1.42-2.13.49-2.11,1.42-2.11S105.56,147.83,105.56,149.1Zm3.58-3.94v5.58c0,1.52.76,2.42,2.22,2.42a3.51,3.51,0,0,0,2.45-1.23L114,153h2.13v-7.84H113.7v5.17a2,2,0,0,1-1.33.7c-.58,0-.82-.4-.82-1v-4.91Zm11.52-3.2h-2.74l-.33,4.7,1.47.34Zm5.92,5.5-.4-2.46a2.78,2.78,0,0,0-2.28,1.71l-.26-1.55h-2.11V153h2.41v-4.35A3.87,3.87,0,0,1,126.58,147.46Zm4.09-.89c.73,0,1.15.61,1.23,1.79h-2.47C129.5,147.14,130,146.57,130.67,146.57Zm3.52,5.71-.24-1.71a5.16,5.16,0,0,1-2.58.83,1.74,1.74,0,0,1-1.94-1.71h4.74a5.18,5.18,0,0,0,0-.63c0-2.27-1-4.06-3.47-4.06-2.13,0-3.7,1.55-3.7,4.11a3.68,3.68,0,0,0,4,4A5.73,5.73,0,0,0,134.19,152.28Zm7.29-9.44a1.38,1.38,0,1,0-1.38,1.3A1.3,1.3,0,0,0,141.48,142.84ZM141.32,153v-7.84h-2.43V153Zm8.68,0v-5.57c0-1.53-.76-2.43-2.22-2.43a3.47,3.47,0,0,0-2.45,1.23l-.18-1.07H143V153h2.41v-5.15a2,2,0,0,1,1.33-.71c.58,0,.8.39.8,1V153Zm8.65-7.84h-2.37L154.87,150l-1.45-4.94-2.6.3,2.69,7.68h2.42Zm3.59-2.32a1.3,1.3,0,0,0-1.37-1.33,1.32,1.32,0,1,0,0,2.63A1.28,1.28,0,0,0,162.24,142.84ZM162.09,153v-7.84h-2.44V153Zm6.37-.05-.28-2a2.27,2.27,0,0,1-.59.08c-.64,0-1-.31-1-.93v-3h1.8l-.31-2h-1.49v-2.72l-2.39.38v2.34h-1v2h1v3.37c0,2,1.16,2.61,2.84,2.61A4.64,4.64,0,0,0,168.46,153Zm4.33-6.38c.74,0,1.15.61,1.23,1.79h-2.46C171.62,147.14,172.12,146.57,172.79,146.57Zm3.52,5.71-.24-1.71a5.1,5.1,0,0,1-2.58.83,1.73,1.73,0,0,1-1.93-1.71h4.73a4.86,4.86,0,0,0,0-.63c0-2.27-1.06-4.06-3.48-4.06-2.12,0-3.69,1.55-3.69,4.11a3.67,3.67,0,0,0,4,4A5.73,5.73,0,0,0,176.31,152.28Zm3.39-3.15c0-1.51.61-2.13,1.41-2.13a2.37,2.37,0,0,1,1.13.22v3a1.89,1.89,0,0,1-1.34.8C180.21,151,179.7,150.47,179.7,149.13Zm-2.43.17c0,2.64,1.23,3.86,2.83,3.86a3,3,0,0,0,2.26-1.18l.16,1h2.14V141.45l-2.42.38v3.54a4.63,4.63,0,0,0-1.66-.27C178.85,145.1,177.27,146.31,177.27,149.3ZM189.36,142h-3l.78,7.23,1.47-.32Zm-.2,11v-2.75h-2.61V153Z"/><path class="cls-4" d="M138.5,67h1A31.5,31.5,0,0,1,171,98.5h0A31.5,31.5,0,0,1,139.5,130h-1A31.5,31.5,0,0,1,107,98.5h0A31.5,31.5,0,0,1,138.5,67Z"/><path class="cls-54" d="M140,76.42l-13,13V107.7l13,12.94,13-13V89.41ZM146.5,105l-6.5,6.49L133.5,105V92.09l6.5-6.5,6.5,6.5Z"/><path class="cls-55" d="M140,76.42v9.17l6.5,6.5L153,89.41Z"/><path class="cls-56" d="M133.5,105,127,107.7l13,12.94v-9.17Z"/><path class="cls-57" d="M133.5,92.09V105l6.5,6.49,6.5-6.49V92.09l-6.5-6.5Z"/><path class="cls-4" d="M146.5,92.09v0L133.56,105h-.06v-3.51l11.22-11.21Z"/><path class="cls-4" d="M146.5,97v3.56l-8.7,8.75L136,107.44Z"/></svg>