<svg width="240" height="110" viewBox="0 0 240 110" fill="none" xmlns="http://www.w3.org/2000/svg">
<g clip-path="url(#clip0)">
<path opacity="0.2" d="M0 109.243V103.636C0 101.364 0.917198 99.2425 2.52229 97.6516L14.293 85.9849C16.3567 83.9395 17.5032 81.2122 17.5032 78.3334V63.788C17.5032 57.1213 23.0064 51.6667 29.7325 51.6667H199.261C205.987 51.6667 211.49 57.1213 211.49 63.788V91.0607C211.49 93.5607 213.554 95.6061 216.076 95.6061H227.618C233.35 95.6061 237.936 100.227 237.936 105.833V109.243H0Z" fill="#72767D"/>
<path d="M83.465 56.2122H61.2994V109.242H83.465V56.2122Z" fill="#36393F"/>
<path d="M193.529 56.2122H83.465V109.242H193.529V56.2122Z" fill="#4F545C"/>
<path d="M106.395 78.9395H83.465V109.242H106.395V78.9395Z" fill="#B9BBBE"/>
<path d="M109.452 74.3938H83.465V78.9393H109.452V74.3938Z" fill="#DCDDDE"/>
<path d="M83.465 74.3938H68.9427V78.9393H83.465V74.3938Z" fill="#72767D"/>
<path d="M103.338 66.8181H83.465V74.3939H103.338V66.8181Z" fill="#F6F6F7"/>
<path d="M83.465 66.8181H76.586V74.3939H83.465V66.8181Z" fill="#B9BBBE"/>
<path d="M102.573 82.7273H87.2866V84.2424H102.573V82.7273Z" fill="#72767D"/>
<path d="M102.573 84.2424H87.2866V85.7576H102.573V84.2424Z" fill="#4F545C"/>
<path d="M102.573 85.7576H87.2866V87.2727H102.573V85.7576Z" fill="#72767D"/>
<path d="M102.573 87.2727H87.2866V88.7879H102.573V87.2727Z" fill="#4F545C"/>
<path d="M102.573 88.7878H87.2866V90.303H102.573V88.7878Z" fill="#72767D"/>
<path d="M102.573 90.303H87.2866V91.8181H102.573V90.303Z" fill="#4F545C"/>
<path d="M102.573 91.8181H87.2866V93.3333H102.573V91.8181Z" fill="#72767D"/>
<path d="M102.573 93.3333H87.2866V94.8484H102.573V93.3333Z" fill="#4F545C"/>
<path d="M104.102 94.8484H85.758V97.8787H104.102V94.8484Z" fill="#DCDDDE"/>
<path d="M83.465 78.9395H71.2357V109.242H83.465V78.9395Z" fill="#202225"/>
<path d="M75.0573 94.8485H79.6433V85C79.6433 83.7121 78.6497 82.7273 77.3503 82.7273C76.0509 82.7273 75.0573 83.7121 75.0573 85V94.8485Z" fill="#36393F"/>
<path d="M185.885 74.394H169.07V100.152H185.885V74.394Z" fill="#72767D"/>
<path d="M183.592 76.6667H171.363V97.8789H183.592V76.6667Z" fill="#B9BBBE"/>
<path d="M115.524 109.214H161.384V71.3351H115.524V109.214Z" fill="#72767D"/>
<path d="M118.582 109.214H158.327V74.3654H118.582V109.214Z" fill="#040405"/>
<path d="M140.025 73.6362H136.968V109.242H140.025V73.6362Z" fill="#72767D"/>
<path d="M144.611 92.1968H132.382V98.2574H144.611V92.1968Z" fill="#72767D"/>
<path d="M120.153 26.6667H83.465C78.4204 26.6667 74.293 30.7577 74.293 35.7577V44.8486H120.153V26.6667Z" fill="#72767D"/>
<path d="M111.745 26.6667H169.07C174.115 26.6667 178.242 30.7577 178.242 35.7577V44.8486H102.573V35.7577C102.573 30.7577 106.624 26.6667 111.745 26.6667Z" fill="#B9BBBE"/>
<path d="M105.631 44.8485V35.7576C105.631 32.4243 108.382 29.697 111.745 29.697H169.07C172.433 29.697 175.185 32.4243 175.185 35.7576V44.8485H105.631Z" fill="#72767D"/>
<path d="M196.586 38.0303H83.465V60H196.586V38.0303Z" fill="#DCDDDE"/>
<path d="M83.4224 56.9412L193.486 56.9412V53.1533L83.4224 53.1533V56.9412Z" fill="#F6F6F7"/>
<path d="M193.529 47.1213H83.465V50.9092H193.529V47.1213Z" fill="#F6F6F7"/>
<path d="M83.4224 44.8201L193.486 44.8201V41.0322L83.4224 41.0322V44.8201Z" fill="#F6F6F7"/>
<path d="M83.465 38.0303H58.2421V60H83.465V38.0303Z" fill="#B9BBBE"/>
<path d="M61.2568 56.9412H83.4224V53.1533H61.2568V56.9412Z" fill="#DCDDDE"/>
<path d="M61.2568 50.8806H83.4224V47.0927H61.2568V50.8806Z" fill="#DCDDDE"/>
<path d="M61.2568 44.8201H83.4224V41.0322H61.2568V44.8201Z" fill="#DCDDDE"/>
<path d="M209.885 2.12121C209.885 1.43939 209.962 0.681818 210.115 0C204.764 0.984848 200.637 5.68182 200.637 11.2879C200.637 17.6515 205.834 22.7273 212.178 22.7273C217.834 22.7273 222.573 18.7121 223.567 13.3333C222.879 13.4848 222.191 13.5606 221.427 13.5606C215.006 13.5606 209.885 8.40909 209.885 2.12121Z" fill="#B9BBBE"/>
<path d="M6.19112 73.8636L5.19749 75.8333C4.96819 76.2879 5.42679 76.8182 5.96182 76.5909L7.94908 75.6061C8.10195 75.5303 8.25481 75.5303 8.40768 75.6061L10.3949 76.5909C10.8535 76.8182 11.3886 76.3636 11.1593 75.8333L10.1656 73.8636C10.0892 73.7121 10.0892 73.5606 10.1656 73.4091L11.1593 71.4394C11.3886 70.9848 10.93 70.4545 10.3949 70.6818L8.40768 71.6667C8.25481 71.7424 8.10195 71.7424 7.94908 71.6667L5.96182 70.6818C5.50322 70.4545 4.96819 70.9091 5.19749 71.4394L6.19112 73.4091C6.26755 73.5606 6.26755 73.7121 6.19112 73.8636Z" fill="#B9BBBE"/>
<path d="M191.465 30.3031L190.471 32.2728C190.242 32.7273 190.701 33.2576 191.236 33.0304L193.223 32.0455C193.376 31.9698 193.529 31.9698 193.681 32.0455L195.669 33.0304C196.127 33.2576 196.662 32.8031 196.433 32.2728L195.439 30.3031C195.363 30.1516 195.363 30.0001 195.439 29.8485L196.433 27.8788C196.662 27.4243 196.204 26.894 195.669 27.1213L193.681 28.1061C193.529 28.1819 193.376 28.1819 193.223 28.1061L191.236 27.1213C190.777 26.894 190.242 27.3485 190.471 27.8788L191.465 29.8485C191.541 30.0001 191.541 30.1516 191.465 30.3031Z" fill="#4F545C"/>
<path d="M235.796 26.2879C235.338 26.2879 235.032 25.9848 235.032 25.5303V24.7727C235.032 24.3182 235.338 24.0151 235.796 24.0151C236.255 24.0151 236.56 24.3182 236.56 24.7727V25.5303C236.56 25.9091 236.178 26.2879 235.796 26.2879Z" fill="#DCDDDE"/>
<path d="M235.796 32.3484C235.338 32.3484 235.032 32.0454 235.032 31.5908V30.8333C235.032 30.3787 235.338 30.0757 235.796 30.0757C236.255 30.0757 236.56 30.3787 236.56 30.8333V31.5908C236.56 31.9696 236.178 32.3484 235.796 32.3484Z" fill="#DCDDDE"/>
<path d="M237.707 28.1819C237.707 27.7273 238.013 27.4243 238.471 27.4243H239.236C239.694 27.4243 240 27.7273 240 28.1819C240 28.6364 239.694 28.9395 239.236 28.9395H238.471C238.013 28.9395 237.707 28.5607 237.707 28.1819Z" fill="#DCDDDE"/>
<path d="M231.592 28.1819C231.592 27.7273 231.898 27.4243 232.357 27.4243H233.121C233.58 27.4243 233.885 27.7273 233.885 28.1819C233.885 28.6364 233.58 28.9395 233.121 28.9395H232.357C231.898 28.9395 231.592 28.5607 231.592 28.1819Z" fill="#DCDDDE"/>
<path d="M37.2229 93.106C37.2229 91.6666 36.1529 90.303 34.7006 90.0757C32.8662 89.7727 31.2611 91.212 31.2611 92.9545C31.2611 94.5454 30.9554 96.212 30.1146 97.5757C29.7325 98.2575 29.5032 99.0908 29.5032 99.9242C29.5796 102.348 31.5669 104.318 33.9363 104.47C36.6115 104.621 38.828 102.5 38.828 99.8484C38.828 99.0151 38.5987 98.2575 38.2166 97.6514C37.5287 96.2878 37.2229 94.6969 37.2229 93.106Z" fill="#040505"/>
<path d="M32.1783 110C31.7961 110 31.4904 109.697 31.4904 109.318V100.985C31.4904 100.606 31.7961 100.303 32.1783 100.303C32.5605 100.303 32.8662 100.606 32.8662 100.985V109.318C32.8662 109.697 32.5605 110 32.1783 110Z" fill="#040505"/>
<path d="M36.3057 110C35.9235 110 35.6178 109.697 35.6178 109.318V100.985C35.6178 100.606 35.9235 100.303 36.3057 100.303C36.6879 100.303 36.9936 100.606 36.9936 100.985V109.318C36.9172 109.697 36.6114 110 36.3057 110Z" fill="#040505"/>
<path d="M182.752 93.106C182.752 91.6666 181.682 90.303 180.229 90.0757C178.395 89.7727 176.79 91.212 176.79 92.9545C176.79 94.5454 176.484 96.212 175.643 97.5757C175.261 98.2575 175.032 99.0908 175.032 99.9242C175.108 102.348 177.096 104.318 179.465 104.47C182.14 104.621 184.357 102.5 184.357 99.8484C184.357 99.0151 184.127 98.2575 183.745 97.6514C183.057 96.2878 182.752 94.6969 182.752 93.106Z" fill="#040505"/>
<path d="M177.707 110C177.325 110 177.019 109.697 177.019 109.318V100.985C177.019 100.606 177.325 100.303 177.707 100.303C178.089 100.303 178.395 100.606 178.395 100.985V109.318C178.395 109.697 178.089 110 177.707 110Z" fill="#040505"/>
<path d="M181.834 110C181.452 110 181.146 109.697 181.146 109.318V100.985C181.146 100.606 181.452 100.303 181.834 100.303C182.217 100.303 182.522 100.606 182.522 100.985V109.318C182.446 109.697 182.14 110 181.834 110Z" fill="#040505"/>
<path d="M16.6624 109.242H62.5223L44.1783 44.0908H35.0064L16.6624 109.242Z" fill="url(#paint0_linear)"/>
<path d="M32.7134 44.0909H46.4713V42.5757C46.4713 40.909 45.0955 39.5454 43.414 39.5454H35.7707C34.0892 39.5454 32.7134 40.909 32.7134 42.5757V44.0909Z" fill="#DCDDDE"/>
<path d="M39.5923 41.8181V33.0303C39.5923 29.6969 42.2675 27.0454 45.6306 27.0454C48.9936 27.0454 51.6688 29.6969 51.6688 33.0303V109.242" stroke="#DCDDDE" stroke-width="2" stroke-miterlimit="10"/>
</g>
<defs>
<linearGradient id="paint0_linear" x1="39.567" y1="39.2948" x2="39.567" y2="101.804" gradientUnits="userSpaceOnUse">
<stop stop-color="#72767D"/>
<stop offset="1" stop-color="white" stop-opacity="0"/>
</linearGradient>
<clipPath id="clip0">
<rect width="240" height="110" fill="white"/>
</clipPath>
</defs>
</svg>
