<svg width="82" height="72" viewBox="0 0 82 72" fill="none" xmlns="http://www.w3.org/2000/svg">
<path d="M40.8474 69.6747C40.3279 69.6767 39.8131 69.5757 39.3324 69.3773C38.8518 69.179 38.4147 68.8872 38.0463 68.5188C37.6778 68.1504 37.3852 67.7125 37.1852 67.2302C36.9852 66.7479 36.8816 66.2306 36.8805 65.708C36.8705 61.9271 36.8554 56.2717 36.8486 52.5009C36.8469 51.4461 37.2613 50.4338 38.001 49.6863C38.7407 48.9387 39.7451 48.517 40.7937 48.5139C41.8421 48.5135 42.8477 48.9317 43.5897 49.6768C44.3316 50.4219 44.7491 51.4328 44.7505 52.4874C44.7505 56.2565 44.7723 61.9068 44.7824 65.6861C44.7837 66.2087 44.6826 66.7264 44.485 67.2098C44.2874 67.6931 43.997 68.1325 43.6305 68.5029C43.264 68.8733 42.8285 69.1674 42.349 69.3685C41.8694 69.5696 41.3552 69.6736 40.8357 69.6747H40.8474Z" fill="#7196FF"/>
<path d="M55.9575 64.8654C54.4466 61.4509 52.2005 56.3646 50.6812 52.9197C49.867 51.0723 50.4579 48.8399 52.177 47.7912C52.6579 47.4953 53.1961 47.306 53.7556 47.2362C54.3151 47.1663 54.8829 47.2174 55.4212 47.386C55.9595 47.5547 56.4557 47.837 56.8768 48.2141C57.2979 48.5912 57.6341 49.0544 57.8629 49.5727C59.3737 53.016 61.6635 58.185 63.1895 61.6349C63.4003 62.1128 63.5154 62.6278 63.5282 63.1504C63.5411 63.673 63.4514 64.1931 63.2643 64.6808C63.0772 65.1685 62.7964 65.6144 62.4379 65.9929C62.0794 66.3714 61.6503 66.6751 61.175 66.8867C60.2166 67.3142 59.1287 67.3414 58.1503 66.9624C57.172 66.5834 56.3832 65.8291 55.9575 64.8654Z" fill="#7196FF"/>
<path d="M22.9888 54.3449C22.9888 54.2706 22.9888 54.198 22.9888 54.122C23.3245 48.3501 24.4996 43.176 29.0961 36.678C29.6259 35.9281 30.4302 35.4205 31.332 35.2671C32.2338 35.1137 33.1593 35.3269 33.9048 35.8598C34.6504 36.3928 35.1549 37.2018 35.3074 38.109C35.46 39.0161 35.248 39.9471 34.7182 40.697C31.0451 45.8863 30.1621 49.6977 29.88 54.5239C29.8315 55.426 29.435 56.2734 28.7749 56.886C28.1148 57.4985 27.2432 57.8278 26.3454 57.8038C25.4476 57.7799 24.5946 57.4045 23.9677 56.7576C23.3408 56.1106 22.9896 55.2432 22.9888 54.3398V54.3449Z" fill="url(#paint0_linear_1745_107138)"/>
<path d="M29.6865 31.245L23.3663 33.2008C22.5284 33.4601 21.6224 33.374 20.8476 32.9613C20.0728 32.5487 19.4928 31.8434 19.235 31.0005L17.0478 23.8488C16.79 23.0059 16.8756 22.0946 17.2859 21.3152C17.6961 20.5359 18.3973 19.9524 19.2352 19.6931L25.5554 17.7372L29.687 31.2466L29.6865 31.245Z" fill="#7196FF"/>
<path d="M26.3857 29.6575L23.2296 30.6342C22.8105 30.7639 22.3572 30.7208 21.9697 30.5144C21.5821 30.3079 21.2919 29.9551 21.1629 29.5334L19.4619 23.9715C19.333 23.5499 19.3758 23.094 19.581 22.7041C19.7862 22.3142 20.137 22.0223 20.5562 21.8926L23.7123 20.9159L26.3857 29.6575Z" fill="#BACFFF"/>
<path d="M55.0479 8.60693L61.3681 6.65107C61.7832 6.52238 62.2194 6.47725 62.6519 6.51826C63.0843 6.55927 63.5045 6.68561 63.8884 6.89006C64.2722 7.09452 64.6123 7.37307 64.8891 7.7098C65.1659 8.04653 65.374 8.43484 65.5015 8.85251L67.6887 16.0043C67.9465 16.8471 67.8608 17.7585 67.4506 18.5378C67.0404 19.3171 66.3392 19.9006 65.5013 20.1599L59.1794 22.1163L55.0479 8.60693Z" fill="#7196FF"/>
<path d="M58.3481 10.1938L61.5075 9.21616C61.9266 9.08645 62.3799 9.12954 62.7674 9.33597C63.155 9.5424 63.4452 9.89524 63.5742 10.3169L65.2757 15.8804C65.4046 16.3021 65.3618 16.758 65.1566 17.1478C64.9513 17.5377 64.6006 17.8296 64.1814 17.9593L61.0221 18.937L58.3481 10.1938Z" fill="#BACFFF"/>
<path d="M55.9024 24.1565L30.9479 33.098L30.0867 45.0032C29.9273 47.2152 30.5147 49.4167 31.7536 51.2513C32.7354 52.7059 34.086 53.87 35.6654 54.6229C37.2449 55.3759 38.9957 55.6904 40.7366 55.5337L55.8722 54.1693C57.6924 54.0053 59.4167 53.2756 60.8059 52.0812C62.195 50.8869 63.1802 49.2872 63.6246 47.5041C64.0851 45.6539 63.9397 43.7037 63.21 41.9433L55.9024 24.1565Z" fill="#7196FF"/>
<path d="M30.3989 40.6716L57.7591 28.6888L57.0473 26.9495L30.8723 34.1314L30.3989 40.6716Z" fill="#4F79F0"/>
<path d="M50.5667 2.54375L25.392 10.1936C21.4481 11.392 19.2168 15.5796 20.4081 19.5467L23.7639 30.7212C24.9553 34.6883 29.1182 36.9329 33.0621 35.7345L58.2368 28.0846C62.1807 26.8862 64.412 22.6986 63.2206 18.7315L59.8649 7.55704C58.6735 3.58986 54.5106 1.34533 50.5667 2.54375Z" fill="#7196FF"/>
<path d="M31.1186 14.9143L45.5145 10.4594C46.1184 10.2725 46.7713 10.3346 47.3296 10.632C47.888 10.9293 48.306 11.4377 48.4918 12.0451L50.1958 17.6167C50.654 19.1149 50.5018 20.7349 49.7726 22.1202C49.0434 23.5055 47.797 24.5427 46.3076 25.0037L39.0438 27.2515C37.434 27.7497 35.6933 27.5842 34.2048 26.7914C32.7163 25.9986 31.6018 24.6434 31.1065 23.024L29.5422 17.9092C29.3565 17.3018 29.4182 16.645 29.7138 16.0833C30.0095 15.5217 30.5148 15.1012 31.1186 14.9143Z" fill="#BACFFF"/>
<path d="M53.8004 14.499C55.0326 14.499 56.0314 13.4942 56.0314 12.2547C56.0314 11.0153 55.0326 10.0105 53.8004 10.0105C52.5682 10.0105 51.5693 11.0153 51.5693 12.2547C51.5693 13.4942 52.5682 14.499 53.8004 14.499Z" fill="#202225"/>
<path d="M26.2354 23.0268C27.4676 23.0268 28.4665 22.022 28.4665 20.7826C28.4665 19.5431 27.4676 18.5383 26.2354 18.5383C25.0033 18.5383 24.0044 19.5431 24.0044 20.7826C24.0044 22.022 25.0033 23.0268 26.2354 23.0268Z" fill="#202225"/>
<path d="M37.5334 21.8463L35.5566 22.4581C35.0116 22.6267 34.7057 23.2078 34.8734 23.7561L34.8739 23.7577C35.0416 24.3059 35.6193 24.6136 36.1643 24.4449L38.1411 23.8332C38.686 23.6645 38.9919 23.0834 38.8243 22.5352L38.8238 22.5336C38.6561 21.9854 38.0784 21.6777 37.5334 21.8463Z" fill="#7196FF"/>
<path d="M45.0977 19.5039L42.3315 20.3599C41.7865 20.5286 41.4806 21.1097 41.6483 21.6579L41.6488 21.6595C41.8165 22.2077 42.3942 22.5154 42.9392 22.3468L45.7054 21.4907C46.2504 21.3221 46.5563 20.741 46.3886 20.1927L46.3881 20.1911C46.2204 19.6429 45.6427 19.3352 45.0977 19.5039Z" fill="#7196FF"/>
<path d="M74.8636 5.89334C74.8636 5.51376 74.5577 5.20605 74.1803 5.20605C73.803 5.20605 73.4971 5.51376 73.4971 5.89334V6.58063C73.4971 6.96021 73.803 7.26792 74.1803 7.26792C74.5577 7.26792 74.8636 6.96021 74.8636 6.58063V5.89334Z" fill="#7196FF"/>
<path d="M74.8636 11.3916C74.8636 11.0121 74.5577 10.7043 74.1803 10.7043C73.803 10.7043 73.4971 11.0121 73.4971 11.3916V12.0789C73.4971 12.4585 73.803 12.7662 74.1803 12.7662C74.5577 12.7662 74.8636 12.4585 74.8636 12.0789V11.3916Z" fill="#7196FF"/>
<path d="M77.2557 9.67268C77.6331 9.67268 77.939 9.36497 77.939 8.98539C77.939 8.60581 77.6331 8.2981 77.2557 8.2981H76.5725C76.1951 8.2981 75.8892 8.60581 75.8892 8.98539C75.8892 9.36497 76.1951 9.67268 76.5725 9.67268H77.2557Z" fill="#7196FF"/>
<path d="M71.7884 9.67439C72.1658 9.67439 72.4717 9.36668 72.4717 8.9871C72.4717 8.60752 72.1658 8.2998 71.7884 8.2998H71.1052C70.7278 8.2998 70.4219 8.60752 70.4219 8.9871C70.4219 9.36668 70.7278 9.67439 71.1052 9.67439H71.7884Z" fill="#7196FF"/>
<path d="M4.72052 46.7663L3.68137 48.9396C3.6275 49.0508 3.60941 49.176 3.62964 49.298C3.64986 49.42 3.70739 49.5325 3.79421 49.6201C3.88104 49.7076 3.99283 49.7657 4.11403 49.7863C4.23522 49.8069 4.35979 49.789 4.47038 49.735L6.63093 48.688C6.7112 48.6497 6.79893 48.6299 6.88778 48.6299C6.97662 48.6299 7.06435 48.6497 7.14462 48.688L9.30517 49.735C9.41583 49.7884 9.54025 49.806 9.66125 49.7852C9.78226 49.7645 9.89386 49.7064 9.98066 49.6191C10.0675 49.5318 10.1252 49.4195 10.1458 49.2978C10.1664 49.1761 10.149 49.051 10.0959 48.9396L9.05504 46.7663C9.01696 46.6856 8.99721 46.5973 8.99721 46.5079C8.99721 46.4186 9.01696 46.3303 9.05504 46.2496L10.0959 44.0745C10.149 43.9632 10.1664 43.8381 10.1458 43.7164C10.1252 43.5946 10.0675 43.4824 9.98066 43.3951C9.89386 43.3077 9.78226 43.2497 9.66125 43.2289C9.54025 43.2082 9.41583 43.2257 9.30517 43.2792L7.14462 44.3278C7.06459 44.367 6.97676 44.3873 6.88778 44.3873C6.79879 44.3873 6.71096 44.367 6.63093 44.3278L4.47038 43.2826C4.35979 43.2286 4.23522 43.2107 4.11403 43.2313C3.99283 43.2519 3.88104 43.31 3.79421 43.3975C3.70739 43.485 3.64986 43.5976 3.62964 43.7196C3.60941 43.8415 3.6275 43.9668 3.68137 44.0779L4.72052 46.2496C4.75942 46.3301 4.77963 46.4184 4.77963 46.5079C4.77963 46.5975 4.75942 46.6858 4.72052 46.7663Z" fill="#FFCDF9"/>
<path d="M5.39892 24.6394L5.3217 24.6107L2.19419 23.2598C2.0696 23.2064 1.95671 23.1288 1.86199 23.0315C1.76727 22.9341 1.69258 22.8189 1.64221 22.6925C1.59183 22.566 1.56676 22.4308 1.56844 22.2946C1.57011 22.1584 1.59849 22.0239 1.65196 21.8987C1.76226 21.6487 1.96517 21.4518 2.21755 21.35C2.46992 21.2481 2.75184 21.2493 3.00335 21.3533L6.13085 22.7042C6.37164 22.812 6.56224 23.0084 6.66349 23.2532C6.76474 23.498 6.76894 23.7724 6.67522 24.0202C6.58151 24.268 6.397 24.4703 6.15962 24.5854C5.92225 24.7006 5.65003 24.7199 5.39892 24.6394Z" fill="#F7E080"/>
<path d="M78.891 32.2386C78.6873 32.2385 78.4881 32.1776 78.3187 32.0637C78.1493 31.9497 78.0172 31.7878 77.9393 31.5984C77.8613 31.4091 77.8409 31.2007 77.8806 30.9996C77.9203 30.7986 78.0184 30.6139 78.1625 30.4689L78.8877 29.7394C79.0811 29.545 79.3434 29.4359 79.6169 29.436C79.8903 29.4362 80.1524 29.5456 80.3457 29.7402C80.5389 29.9348 80.6474 30.1986 80.6472 30.4737C80.6471 30.7487 80.5383 31.0124 80.3448 31.2068L79.6196 31.9346C79.5241 32.0311 79.4105 32.1076 79.2855 32.1597C79.1604 32.2119 79.0264 32.2387 78.891 32.2386Z" fill="#60CFAC"/>
<path d="M72.3269 24.7643C72.2967 24.8302 72.2664 24.8977 72.2329 24.9636C69.6157 30.1123 66.4781 34.3796 59.6691 38.473C59.2803 38.7065 58.8495 38.8607 58.4013 38.9267C57.9532 38.9927 57.4966 38.9693 57.0574 38.8578C56.6183 38.7464 56.2053 38.549 55.842 38.2769C55.4787 38.0049 55.1723 37.6635 54.9401 37.2723C54.708 36.8811 54.5547 36.4478 54.4891 35.997C54.4234 35.5462 54.4467 35.0869 54.5575 34.6452C54.6683 34.2034 54.8646 33.788 55.135 33.4225C55.4055 33.0571 55.7448 32.7488 56.1337 32.5153C61.5712 29.2494 63.9029 26.1186 66.0903 21.8125C66.5013 21.0161 67.203 20.4108 68.0481 20.1237C68.8933 19.8365 69.8161 19.8898 70.623 20.2724C71.4299 20.6549 72.0581 21.337 72.3758 22.1755C72.6935 23.014 72.6759 23.9436 72.3269 24.7694V24.7643Z" fill="#7196FF"/>
<path d="M67.8667 45.8998L64.7879 50.4694C64.7346 50.5513 64.7041 50.6461 64.6998 50.7439C64.6954 50.8417 64.7173 50.9389 64.7631 51.0252C64.809 51.1116 64.8771 51.1839 64.9603 51.2347C65.0435 51.2855 65.1388 51.3127 65.2361 51.3137H70.7256C71.2843 51.313 71.8345 51.1758 72.3289 50.914C72.8233 50.6523 73.2471 50.2737 73.5639 49.8108C73.8808 49.3479 74.0812 48.8146 74.1479 48.2566C74.2147 47.6986 74.1458 47.1327 73.9471 46.6074C73.7216 46.0145 73.3389 45.4952 72.8404 45.1059C72.342 44.7166 71.747 44.4722 71.1202 44.3992C70.4933 44.3263 69.8586 44.4276 69.285 44.6922C68.7114 44.9567 68.2208 45.3744 67.8667 45.8998Z" fill="#7196FF"/>
<defs>
<linearGradient id="paint0_linear_1745_107138" x1="37.4151" y1="43.1883" x2="20.9036" y2="49.767" gradientUnits="userSpaceOnUse">
<stop stop-color="#7196FF"/>
<stop offset="1" stop-color="#567EF7"/>
</linearGradient>
</defs>
</svg>
