<svg width="24" height="24" viewBox="0 0 24 24" fill="none" xmlns="http://www.w3.org/2000/svg">
<path d="M12 3.29999L4.45996 7.64999V16.35L12 20.71L19.54 16.35V7.64999L12 3.29999ZM16.93 14.85L12 17.69L7.07996 14.85V9.15999L12 6.30999L16.93 9.15999V14.85Z" fill="#FF6BFA"/>
<path d="M15.6901 8.44L7.07007 13.42V9.15L11.9901 6.31L15.6901 8.44Z" fill="#FFDEF9"/>
<path d="M16.9301 9.15002V10.67L8.40008 15.61L7.08008 14.84L16.9301 9.15002Z" fill="#FFDEF9"/>
<path d="M9.62012 16.31L16.9301 12.09V14.84L11.9901 17.7L9.62012 16.31Z" fill="#FFDEF9"/>
<path d="M12 3.28998V6.30998L16.93 9.14998L19.54 7.64998L12 3.28998Z" fill="#FFB0FF"/>
<path d="M7.06996 14.85L4.45996 16.35L12 20.71V17.69L7.06996 14.85Z" fill="#E34BD1"/>
<path d="M16.9301 9.15L15.6901 8.44L7.07007 13.42V14.85L16.9301 9.15Z" fill="white"/>
<path d="M16.9299 10.67V12.09L9.6199 16.31L8.3999 15.61L16.9299 10.67Z" fill="white"/>
</svg>
