<svg width="59" height="63" viewBox="0 0 59 63" fill="none" xmlns="http://www.w3.org/2000/svg">
<path fill-rule="evenodd" clip-rule="evenodd" d="M28.106 60.2074C20.5616 55.6469 14.2528 49.2124 9.84445 41.577C5.25615 33.6292 2.83057 24.5769 2.83057 15.3996V8.64516L28.106 2.4715L53.3814 8.64516V15.3996C53.3814 24.5769 50.9565 33.6292 46.3675 41.577C41.9592 49.2124 35.6503 55.6469 28.106 60.2074Z" fill="#C9D2F0"/>
<path fill-rule="evenodd" clip-rule="evenodd" d="M28.1057 60.2074V2.4715L53.3811 8.64516V15.3996C53.3811 24.5769 50.9562 33.6292 46.3672 41.577C41.9589 49.2124 35.6501 55.6469 28.1057 60.2074Z" fill="#7289DA"/>
<path fill-rule="evenodd" clip-rule="evenodd" d="M28.1058 8.06534L8.2644 12.9118V15.3991C8.2644 23.6241 10.438 31.737 14.5501 38.8596C17.9369 44.7262 22.5843 49.8097 28.1058 53.7167C33.6274 49.8097 38.2748 44.7262 41.6615 38.8596C45.7737 31.737 47.9473 23.6241 47.9473 15.3991V12.9118L28.1058 8.06534Z" fill="#F3F8FF"/>
<path d="M12.8598 6.1956L14.4846 5.79893M19.0702 4.67858L28.1055 2.47171L53.3815 8.64537V15.3998C53.3815 24.5771 50.956 33.6294 46.367 41.5772C41.9587 49.2119 35.6498 55.6471 28.1055 60.2076C20.5611 55.6471 14.2523 49.2119 9.84396 41.5772C5.25566 33.6294 2.83008 24.5771 2.83008 15.3998V8.64537L8.26404 7.31813L19.0702 4.67858Z" stroke="#1E2126" stroke-width="4" stroke-linecap="round" stroke-linejoin="round"/>
<path fill-rule="evenodd" clip-rule="evenodd" d="M55.147 49.0005L54.4719 49.84L55.147 49.0005ZM51.7492 52.5108L51.074 53.3503L51.7492 52.5108ZM55.2857 53.2438L54.5568 52.4389L55.2857 53.2438ZM51.6643 49.9112L50.9354 49.1063L51.6643 49.9112ZM4.59731 52.7224V56.2565V52.7224ZM6.36444 54.4895H2.83032H6.36444ZM57.7808 42.7215C57.7808 43.847 56.8686 44.7592 55.7431 44.7592C54.6176 44.7592 53.7053 43.847 53.7053 42.7215C53.7053 41.5966 54.6176 40.6837 55.7431 40.6837C56.8686 40.6837 57.7808 41.5966 57.7808 42.7215Z" stroke="#D5DBED" stroke-width="2" stroke-linecap="round" stroke-linejoin="round"/>
<path fill-rule="evenodd" clip-rule="evenodd" d="M16.1995 34.1273L28.106 14.0698L40.0124 34.1273H16.1995Z" fill="#FFD671"/>
<path fill-rule="evenodd" clip-rule="evenodd" d="M28.1057 34.1273V14.0698L40.0122 34.1273H28.1057Z" fill="#FFAD45"/>
<path fill-rule="evenodd" clip-rule="evenodd" d="M16.1995 34.1273L28.106 14.0698L40.0124 34.1273H16.1995Z" stroke="#1E2126" stroke-width="4" stroke-linecap="round" stroke-linejoin="round"/>
</svg>
