<?xml version="1.0" encoding="UTF-8"?><svg id="Layer_1" xmlns="http://www.w3.org/2000/svg" xmlns:xlink="http://www.w3.org/1999/xlink" viewBox="0 0 650 425"><defs><style>.cls-1{fill:url(#linear-gradient);}.cls-2{fill:#00f57a;}.cls-3{fill:#00cf71;}.cls-4{fill:#005ee4;}.cls-5{fill:#ffdef0;}.cls-6{fill:#f6b590;}.cls-7{fill:#ffe535;}.cls-8{fill:#fff;}.cls-9{fill:#fff0bf;}.cls-10{fill:#fff8c9;}.cls-11{fill:#ffa8d8;}.cls-12{fill:#ffc200;}.cls-13{fill:#ff2ea1;}.cls-14{fill:#ff6dba;}.cls-15{fill:#ff8300;}.cls-16{fill:#994237;}.cls-17{fill:#b4b4ca;}.cls-18{fill:#71daff;}.cls-19{fill:#742a33;}.cls-20{fill:#3043e1;}.cls-21{fill:#cef5e1;}.cls-22{fill:#da8552;}.cls-23{fill:#d9d9e6;}.cls-24{fill:#d6faff;}.cls-25{fill:#252147;}.cls-26{fill:#237aff;}.cls-27{fill:#4354ed;}.cls-28{fill:#433d83;}.cls-29{fill:#3fbeff;}.cls-30{fill:#5566fa;}.cls-31{fill:#5665fb;}.cls-32{fill:#62ffa4;}.cls-33{fill:#5d90ff;}.cls-34{fill:url(#linear-gradient-3);}.cls-35{fill:url(#linear-gradient-4);}.cls-36{fill:url(#linear-gradient-2);}</style><linearGradient id="linear-gradient" x1="273.84" y1="140.99" x2="368.93" y2="175.11" gradientTransform="matrix(1, 0, 0, 1, 0, 0)" gradientUnits="userSpaceOnUse"><stop offset=".23" stop-color="#ff6dba"/><stop offset=".31" stop-color="#ff76be"/><stop offset=".58" stop-color="#ff91cc"/><stop offset=".82" stop-color="#ffa2d5"/><stop offset="1" stop-color="#ffa8d8"/></linearGradient><linearGradient id="linear-gradient-2" x1="134.27" y1="305.83" x2="85.67" y2="380.65" gradientTransform="matrix(1, 0, 0, 1, 0, 0)" gradientUnits="userSpaceOnUse"><stop offset="0" stop-color="#ac5d45"/><stop offset=".79" stop-color="#da8552"/></linearGradient><linearGradient id="linear-gradient-3" x1="134.46" y1="230.85" x2="80.35" y2="234.23" gradientTransform="matrix(1, 0, 0, 1, 0, 0)" gradientUnits="userSpaceOnUse"><stop offset="0" stop-color="#ac5d45"/><stop offset="1" stop-color="#da8552"/></linearGradient><linearGradient id="linear-gradient-4" x1="176.44" y1="160.6" x2="171.91" y2="141.82" gradientTransform="matrix(1, 0, 0, 1, 0, 0)" gradientUnits="userSpaceOnUse"><stop offset=".12" stop-color="#ac5d45"/><stop offset=".71" stop-color="#da8552"/></linearGradient></defs><path class="cls-27" d="M617.5,293.5V94.85h-148.01v.19h-4.56v11.58h4.52l-.18,58.56h-180l-60.76,61.31-180.48,.13h-7.66v17.41h7.66v61.39h0c-26.53,0-48.03,21.51-48.03,48.03v71.55H650v-99c0-17.95-14.55-32.5-32.5-32.5h0Z"/><g><rect class="cls-31" x="514.76" y="114.23" width="87.1" height="62.71" transform="translate(1116.62 291.16) rotate(-180)"/><rect class="cls-31" x="514.76" y="190.38" width="87.1" height="62.71" transform="translate(1116.62 443.47) rotate(-180)"/><path class="cls-27" d="M513.77,126.36h11.87v52.17c0,.93-.76,1.69-1.69,1.69h-8.5c-.93,0-1.69-.76-1.69-1.69v-52.17h0Z" transform="translate(1039.41 306.58) rotate(-180)"/><path class="cls-27" d="M555.27,129.27h11.87v49.27c0,.93-.76,1.69-1.69,1.69h-8.5c-.93,0-1.69-.76-1.69-1.69v-49.27h0Z" transform="translate(1122.41 309.48) rotate(-180)"/><path class="cls-27" d="M525.64,132.27h11.87v46.26c0,.93-.76,1.69-1.69,1.69h-8.5c-.93,0-1.69-.76-1.69-1.69v-46.26h0Z" transform="translate(1063.15 312.49) rotate(-180)"/><path class="cls-27" d="M542.45,139.02h9.02v39.31c0,.93-.76,1.69-1.69,1.69h-5.64c-.93,0-1.69-.76-1.69-1.69v-39.31h0Z" transform="translate(1030.9 460.22) rotate(-164.4)"/><path class="cls-27" d="M567.14,126.36h11.87v52.17c0,.93-.76,1.69-1.69,1.69h-8.5c-.93,0-1.69-.76-1.69-1.69v-52.17h0Z" transform="translate(1146.16 306.58) rotate(-180)"/><path class="cls-27" d="M579.02,132.27h11.87v46.26c0,.93-.76,1.69-1.69,1.69h-8.5c-.93,0-1.69-.76-1.69-1.69v-46.26h0Z" transform="translate(1169.91 312.49) rotate(-180)"/><path class="cls-27" d="M590.89,128.89h8.33v49.64c0,.93-.76,1.69-1.69,1.69h-4.96c-.93,0-1.69-.76-1.69-1.69v-49.64h0Z" transform="translate(1190.11 309.11) rotate(-180)"/><path class="cls-27" d="M617.09,128.89h-16.18c-.93,0-1.69,.76-1.69,1.69v49.64h17.87v-49.64c0-.93,.93-1.69,0-1.69Z"/><path class="cls-27" d="M530.32,202.56h11.87v49.27c0,.93-.76,1.69-1.69,1.69h-8.5c-.93,0-1.69-.76-1.69-1.69v-49.27h0Z" transform="translate(1072.52 456.07) rotate(-180)"/><path class="cls-27" d="M542.19,199.66h11.87v52.17c0,.93-.76,1.69-1.69,1.69h-8.5c-.93,0-1.69-.76-1.69-1.69v-52.17h0Z" transform="translate(1096.26 453.17) rotate(-180)"/><path class="cls-27" d="M554.07,205.56h11.87v46.26c0,.93-.76,1.69-1.69,1.69h-8.5c-.93,0-1.69-.76-1.69-1.69v-46.26h0Z" transform="translate(1120.01 459.08) rotate(-180)"/><path class="cls-27" d="M565.94,202.19h8.33v49.64c0,.93-.76,1.69-1.69,1.69h-4.96c-.93,0-1.69-.76-1.69-1.69v-49.64h0Z" transform="translate(1140.21 455.7) rotate(-180)"/><path class="cls-27" d="M582.6,202.19h8.33v49.64c0,.93-.76,1.69-1.69,1.69h-4.96c-.93,0-1.69-.76-1.69-1.69v-49.64h0Z" transform="translate(1173.54 455.7) rotate(-180)"/><path class="cls-27" d="M574.27,202.19h8.33v49.64c0,.93-.76,1.69-1.69,1.69h-4.96c-.93,0-1.69-.76-1.69-1.69v-49.64h0Z" transform="translate(1156.87 455.7) rotate(-180)"/><rect class="cls-31" x="516.54" y="280.72" width="87.1" height="62.71"/><path class="cls-27" d="M594.45,292.86h8.5c.93,0,1.69,.76,1.69,1.69v52.17h-11.87v-52.17c0-.93,.76-1.69,1.69-1.69Z"/><path class="cls-27" d="M552.95,295.76h8.5c.93,0,1.69,.76,1.69,1.69v49.27h-11.87v-49.27c0-.93,.76-1.69,1.69-1.69Z"/><path class="cls-27" d="M582.58,298.77h8.5c.93,0,1.69,.76,1.69,1.69v46.26h-11.87v-46.26c0-.93,.76-1.69,1.69-1.69Z"/><path class="cls-27" d="M568.62,305.52h5.64c.93,0,1.69,.76,1.69,1.69v39.31h-9.02v-39.31c0-.93,.76-1.69,1.69-1.69Z" transform="translate(-66.61 165.63) rotate(-15.6)"/><path class="cls-27" d="M541.07,292.86h8.5c.93,0,1.69,.76,1.69,1.69v52.17h-11.87v-52.17c0-.93,.76-1.69,1.69-1.69Z"/><path class="cls-27" d="M529.2,298.77h8.5c.93,0,1.69,.76,1.69,1.69v46.26h-11.87v-46.26c0-.93,.76-1.69,1.69-1.69Z"/><path class="cls-27" d="M520.87,295.39h4.96c.93,0,1.69,.76,1.69,1.69v49.64h-8.33v-49.64c0-.93,.76-1.69,1.69-1.69Z"/><path class="cls-27" d="M501.32,295.39h16.18c.93,0,1.69,.76,1.69,1.69v49.64h-17.87v-49.64c0-.93-.93-1.69,0-1.69Z"/></g><g><g><rect class="cls-23" x="449.48" y="222.15" width="131.63" height="11.42" transform="translate(1030.59 455.73) rotate(180)"/><rect class="cls-23" x="493.78" y="233.58" width="80.67" height="191.42"/><g><rect class="cls-8" x="358.57" y="233.58" width="135.22" height="191.42" transform="translate(852.35 658.58) rotate(180)"/><rect class="cls-8" x="353.84" y="222.15" width="139.95" height="11.42" transform="translate(847.62 455.73) rotate(180)"/></g><rect class="cls-23" x="368.45" y="245.36" width="115.45" height="158.31"/><rect class="cls-27" x="432.25" y="245.36" width="51.66" height="158.31"/><rect class="cls-30" x="432.25" y="245.36" width="51.66" height="17.53"/><rect class="cls-8" x="361.7" y="319.57" width="128.96" height="9.88"/><g><rect class="cls-7" x="440.09" y="344.14" width="9.39" height="59.52"/><rect class="cls-7" x="425.04" y="359.26" width="16.04" height="44.4"/><polygon class="cls-12" points="481.5 344.14 481.5 403.66 455.32 403.66 455.32 403.73 455.3 403.73 455.3 403.66 448.65 403.66 448.65 344.14 481.5 344.14"/><polygon class="cls-18" points="471.73 356.4 471.66 403.66 453.71 403.66 453.78 356.4 471.73 356.4"/><rect class="cls-2" x="468.19" y="337.76" width="11.99" height="65.87"/><rect class="cls-3" x="477.82" y="337.76" width="6.09" height="66"/><rect class="cls-29" x="466.29" y="356.4" width="1.9" height="47.36"/><rect class="cls-12" x="438.07" y="359.26" width="1.9" height="44.5"/></g><rect class="cls-17" x="358.57" y="233.58" width="215.89" height="1.9"/><rect class="cls-17" x="358.57" y="413.02" width="215.89" height="1.9"/><g><path class="cls-2" d="M392.92,380.63c-1.75-7-.63-14.42,14.93-15.19,1.2-.06,1.56,.5,1.26,1.82-1.73,7.63-5.8,10.04-14.43,13.36-.18,.07-1.57-.07-1.76,0Z"/><path class="cls-3" d="M394.86,380.59c-.06,0-.12,0-.19-.02-.45-.1-.74-.55-.63-1.01,1.86-8.17,8.86-10.55,9.16-10.65,.44-.14,.92,.1,1.06,.54,.14,.44-.1,.92-.54,1.06-.26,.09-6.4,2.21-8.05,9.43-.09,.39-.44,.65-.82,.65Z"/><path class="cls-14" d="M394.79,379.76c-6.92-3.37-14.7,.21-13.45,8.5s5.85,15.41,9.73,15.41h8.53c2.7,0,8.47-9.72,8.33-16.86-.16-7.99-6.73-10.02-13.14-7.05Z"/><path class="cls-11" d="M384.05,387.42c-1.1-2.74,2.4-7.09,5.74-6.88,3.34,.21-4.9,8.97-5.74,6.88Z"/></g><rect class="cls-3" x="382.93" y="403.66" width=".03" height=".07"/><g><polygon class="cls-3" points="414.28 264.88 414.28 319.49 382.96 319.49 382.96 319.56 382.93 319.56 382.93 319.49 373.46 319.49 373.46 264.88 414.28 264.88"/><rect class="cls-12" x="394.1" y="276.22" width="34.06" height="43.34"/><rect class="cls-2" x="373.46" y="264.87" width="9.47" height="54.69"/><rect class="cls-7" x="384.99" y="276.22" width="10.21" height="43.34"/><rect class="cls-18" x="421.06" y="260.93" width="18.43" height="58.62"/><rect class="cls-18" x="438.21" y="255.61" width="12.24" height="63.94"/><polygon class="cls-29" points="474.18 255.61 474.18 319.48 454.39 319.48 454.39 319.56 454.37 319.56 454.37 319.48 448.68 319.48 448.68 255.61 474.18 255.61"/><polygon class="cls-14" points="470.78 276.78 470.71 319.56 456.23 319.56 456.3 276.78 470.78 276.78"/><rect class="cls-13" x="464.47" y="276.78" width="6.3" height="42.78"/><rect class="cls-2" x="466.29" y="261.02" width="15.79" height="58.54"/><rect class="cls-29" x="436.31" y="260.92" width="1.9" height="58.64"/><rect class="cls-3" x="480.06" y="261.02" width="3.84" height="58.54"/></g></g><g><rect class="cls-29" x="505.67" y="262.89" width="57.45" height="101.09"/><path class="cls-7" d="M524.97,327.91c-1.99,1.6-13.08,10.56-10.26,14.19s10.04-5.38,11.14-12.6l-.88-1.59Z"/><path class="cls-7" d="M523.54,287.85c-2.55-4.15-4.61-11.84-1.21-12.79,2.74-.76,3.48,4.59,3.45,11.04l-2.24,1.75Z"/><path class="cls-7" d="M522.93,290.31c-4.63-1.49-11.2-5.99-9.23-8.93,1.58-2.36,5.63,1.22,9.8,6.14l-.57,2.78Z"/><path class="cls-12" d="M543.37,301.01l1.44-4.31c-1.45-1.73-7.58,1.46-7.58,1.46l-.37,6.99,6.51-4.14Z"/><path class="cls-12" d="M554.21,318.32c-.61-.31-5.79,.57-14.01,1.7v-.04c-2.63-6.9-2.63-23.02-1.1-29.01,3.81-6.09,5.79-10.51,4.72-11.88-1.37-1.76-2.82-1.45-4.87,.61-1.84,1.84-3.63,3.78-3.63,3.78,0,0-3.57-2.4-7.33-.43-4.1,2.14-9.71,7.22-9.33,29.47,.11,6.58,1.93,13.39,5.27,18.64,5.94,9.35,15.03,15.09,15.99,15.28,1.57,.3,3.86-1.12,3.65-2.74-.2-1.62-6.38-13.67-6.38-13.67,4.4-1.57,14.61-5.27,17.44-6.68,2.03-1.02,.81-4.42-.41-5.02Z"/><polygon class="cls-8" points="555.8 259.23 565.87 269.29 566.13 266.86 568.62 266.54 558.55 256.48 558.57 259.2 555.8 259.23"/><polygon class="cls-8" points="502.01 269.71 512.08 259.64 509.64 259.38 509.33 256.89 499.26 266.96 501.98 266.94 502.01 269.71"/><path class="cls-12" d="M535.32,299.52c-2.58-1.65-5.77-1.05-7.03,.11-2.29,2.1-2.76,4.18-2.76,4.18l7.21,.99,2.58-5.28Z"/><path class="cls-7" d="M523.03,316.02c.07,.87-2.08,2.31-3.69,3.13-.3-1.53-.49-3.08-.59-4.63,2.01,.12,4.2,.59,4.28,1.5Z"/><path class="cls-7" d="M522.5,309.76c-.15,.77-2.16,1.51-3.86,1.9-.02-1.6,0-3.12,.04-4.54,1.93,.67,3.99,1.73,3.82,2.63Z"/><path class="cls-7" d="M524.53,322.68c.25,.84-1.6,2.7-3.02,3.82-.6-1.43-1.1-2.91-1.51-4.43,2-.27,4.27-.26,4.53,.62Z"/><path class="cls-8" d="M539.39,305.24c10.46-.11,19.22-6.39,23.73-10.37v-2.6c-3.76,3.54-12.92,10.95-23.75,11.07-12.43,.12-21.09-2.54-26.17-4.8-4.01-1.79-6.47-3.6-7.53-4.47v2.41c4,2.9,14.36,8.77,32.77,8.77,.31,0,.63,0,.95,0Z"/><path class="cls-7" d="M529.92,304.72c.51,2.93,1.91,6.58,3.4,6.77s2.73-.98,2.71-5.75-1.63-6.86-4.15-5.82c-2.19,.9-2.4,2.32-1.97,4.81Z"/><path class="cls-7" d="M539.79,300.14c-.36,2.95-.08,6.85,1.29,7.46s2.89-.15,4.26-4.72,.42-7.04-2.28-6.78c-2.36,.23-2.97,1.52-3.27,4.04Z"/><circle cx="526.71" cy="289.85" r=".79"/><circle cx="530.93" cy="285.94" r=".79"/></g><g><path class="cls-14" d="M347.41,330.74c-.64-5.05-.39-14.18,5.93-14.18,2.79,0,5.22,2.25,5.22,5.53,0,2.68,.03,4.15,.03,6.4,0,6.33-6.37,7.65-6.37,7.65l-4.82-5.4Z"/><path class="cls-14" d="M296.37,285.69c2.38-21.46,28.55-42.42,38.59-34.4,6.6,5.27-20.62,13.19-31.31,32.97l-7.28,1.42Z"/><path class="cls-11" d="M298.76,285.59c3.05-17.69,25.58-33.85,28.2-30.85,2.38,2.73-19.66,12.27-25.36,29.92l-2.84,.93Z"/><g><path class="cls-28" d="M269.95,290.76c-1.6-3.14-3.1-6.71,2.93-11.83s14.15-11.06,19.82-6.61c5.91-1.77,8.67,1.69,11.31,8.04l-34.06,10.4Z"/><path class="cls-12" d="M268.61,294.17c-1.83-3.17-.88-5.62,11.18-10.08,9.56-3.54,20.08-6.96,24.55-6.29,1.17,.17,2.14,.65,2.69,2.11,1.22,3.25,1.4,4.69,1.4,4.69l-39.82,9.57Z"/></g><path class="cls-14" d="M285.04,289.67c-2.62-27.07-28.2-44.18-35.32-37.87-5.13,4.54,22.94,23.59,29.12,39.5l6.2-1.63Z"/><path class="cls-11" d="M282.65,289.77c-2.71-17.34-19.81-34.33-22.45-31.35-2.06,2.33,15.13,15.32,20.39,32.08l2.06-.74Z"/><polygon class="cls-14" points="301.57 403.94 302.17 415.17 289.72 412.75 289.06 403.75 301.57 403.94"/><path class="cls-28" d="M275.45,417.18c.04,2.88,.55,3.52,1.46,3.52,2.99,0,27.03-.13,27.03-.13,0,0,.69-.81,.55-5.03-.12-3.64-.53-4.14-2.56-4.63l.13,2.49c.06,1.23-.68,1.01-1.49,.41-3.66-2.71-7.53-2.44-7.53-2.44l-5.19-1.05s-2.98,1.06-4,1.14c-7.15,.58-8.46,2.15-8.41,5.72Z"/><path class="cls-12" d="M276.54,420.45c-1.25,0-1.76,.41-1.23,2.48s.76,2.07,3.82,2.07h24.15c1.28,0,1.55-.02,1.49-2.41-.06-2.21-.62-2.14-1.71-2.14h-26.51Z"/><polygon class="cls-14" points="314.86 396.64 312.21 409.04 324.44 411.81 327.65 399.37 314.86 396.64"/><path class="cls-28" d="M337.89,420.64c.52-7.83-.21-8.44-8.07-8.69l-2.68-2.85s-3.36-.84-8.78-.46c-5.42,.37-5.77-1.11-5.55-2.4l.43-2.06c-1.92-.43-2.05,.44-3.41,3.93-1.66,4.26-1.86,6-1.86,6l9.2,7.49,20.73-.98Z"/><path class="cls-12" d="M308.42,413.89c-.79-.53-1.28-.27-2.19,1.92-.83,1.98-.72,2.4,1.14,3.7,3.84,2.68,7.03,5.49,8.31,5.49h21.54c1.34,0,2.1-.09,1.69-2.52-.39-2.27-1.1-2.24-2.24-2.24s-16.1-.05-18.01-.05-1.92-.73-10.24-6.31Z"/><path class="cls-8" d="M285.25,369.42c.49,15.69,1.51,27.91,2.03,32.23,.24,1.97,.27,2.59,1.7,2.92,4.46,1.03,11.1,1.03,13.39,.47,1.4-.34,1.98-.84,2.01-1.9l.86-24.59,8.8,6.75c-.76,1.95-.05,2.42,1.5,3.48,0,0-1.43,6.31-2.21,10.21-.35,1.73-.15,2.05,.16,2.32,1.54,1.33,8.85,3,14.32,3.32,1.4,.08,1.66-.27,1.96-1.5s2.62-13.4,3.28-16.77c.75-3.82,.19-6-1.73-9.02-2.79-4.39-9.78-12.15-9.78-12.15l-36.29,4.21Z"/><path class="cls-28" d="M290,370.43c7.74,1.22,25.42-1.18,32.06-4.8,1.16-.63,1.31-2.7-.15-6.27l-31.18,4.21-.73,6.86Z"/><path class="cls-12" d="M343.42,331.24c2.39-2.37,4.81-1.81,6.82,.26s3.98,5.6,2.03,7.68-4.47,2.55-4.47,2.55l-4.39-10.49Z"/><path class="cls-28" d="M311.72,327.83c4.08-1.71,9.45,1.16,17.31,7.99,10.12-5.91,13.42-6.56,16.41-2.99,2.98,3.58,8,11.31-4.39,17.41-12.38,6.1-21.82,5.5-26.83-6.13-4.24-9.84-2.5-16.28-2.5-16.28Z"/><path class="cls-12" d="M312.22,327.09c4.39,4.11,15.46,22.8,9.6,33.56-1.97,3.62-21.58,8.05-35.75,5.03-14.17-3.02-4.28-32.21-4.28-32.21l30.44-6.37Z"/><path class="cls-7" d="M308.96,363s-.04,0-.07,0c-.52-.04-.92-.49-.88-1.01,.58-8.51-1.29-16.18-5.54-22.8-.28-.44-.16-1.03,.29-1.31,.44-.28,1.03-.16,1.31,.29,4.48,6.97,6.44,15.03,5.83,23.96-.03,.5-.45,.89-.95,.89Z"/><path class="cls-28" d="M323.28,357.31c-2.61-5.19-5.48-8.3-8.94-11.58-.56-.54-.62-.68,0-1.75,.62-1.03,1.1-.97,1.98-.39,3.38,2.25,5.88,5.91,7.44,8.72,.08,1.75-.07,3.43-.48,5Z"/><path class="cls-28" d="M293.79,349.05c-1.71,4.75-2.79,7.53-6.03,11.28l3.08,2.34s5.5-6.61,6.21-13.1c.1-.87,.08-1.33-1.27-1.48-1.44-.16-1.72,.2-1.99,.95Z"/><path class="cls-28" d="M285.25,333.82c5.97,1.96,16.81,6.13,18.03,5.64,1.06-.42,6.6-7.17,7.39-11.74l-25.42,6.1Z"/><path class="cls-13" d="M292.07,332.12s8.84,3.29,9.57,2.99,5-4.57,5-6.89l-14.57,3.9Z"/><path class="cls-14" d="M279.35,368.74c.82,4.3,3.29,9.97,9.78,7.32,7.8-3.19,4.48-12.34,4.48-12.34,0,0,3.06-2.8,1.05-5.93-1.3-2.01-5.11-2.26-10.14,1.58l-5.18,9.38Z"/><path class="cls-12" d="M277.43,369.98c2.32,2.44,4.76,1.95,6.83-.06s3.38-6.25,1.49-8.38-3.62-1.92-3.62-1.92l-4.69,10.36Z"/><path class="cls-28" d="M282.73,335.12c-6.16,1.04-7.74,2.29-9.95,7.74-11.72,8.01-14.71,13.94-4.9,22.98,7.03,6.48,9.56,6.81,13.88,.72,2.91-4.09,4.2-6.64,3.17-9.25-.5-1.27-2.84-3.79-2.84-3.79,0,0,2.87-3.52,3.55-7.19,1.34-7.19-2.92-11.21-2.92-11.21Z"/><path class="cls-14" d="M305.91,283.81c-10.17,1.35-24.73,4.27-34.54,8.52-6.04,2.62-10.16,8.34-8.61,14.65s7.93,9.76,14.25,8.21l34.54-8.52c6.31-1.56,10.17-7.94,8.61-14.25-1.56-6.31-6.91-9.58-14.25-8.61Z"/><path class="cls-14" d="M312.7,303.42l-38.23,9.43c-6.31,1.56-10.17,7.94-8.61,14.25,1.56,6.31,6.99,9.65,14.76,8.53,14.47-2.09,26.21-4.63,37.72-9.36,7.54-3.1,10.17-7.94,8.61-14.25s-7.94-10.17-14.25-8.61Z"/><ellipse cx="289.1" cy="303.67" rx="1.76" ry="3.38" transform="translate(-124.41 372.99) rotate(-55.92)"/><ellipse cx="306.78" cy="299.4" rx="3.38" ry="1.76" transform="translate(-102.07 428.24) rotate(-61.79)"/><path d="M305.35,306.54c-1.33-.91-4.4,1.73-4.4,1.73,0,0-3.74-.82-4.7,.52-.67,.93,.32,2.73,2.15,3.97,.72,.49,2.45,1.32,3.89,.96s2.58-1.9,2.99-2.66c1.05-1.95,1.01-3.87,.06-4.52Z"/><path class="cls-13" d="M302.3,313.72c1.06-.26,1.95-1.16,2.52-1.92-1.11-1.04-3.12-1.77-5.26-1.77-1.25,0-2.33,.25-3.14,.66,.4,.71,1.09,1.46,2,2.07,.72,.49,2.45,1.32,3.89,.96Z"/><path class="cls-12" d="M283.86,411.47c-.27-.54,.52-1.21,2.76-2.13,1.19-.49,2.02-.82,2.77-.73,1.82,.23,4.56,1.67,5.12,2.74s.08,1.57-1.05,2.39c-1.91,1.36-2.81,1.19-3.31,.78-.93-.76-3.04-2.28-4.76-2.81-.65-.2-1.09-.27-1.53-.23Z"/><path class="cls-12" d="M329.81,411.95c.48-.38-.13-1.07-1.62-2.99-.85-1.1-1.38-1.47-2.1-1.71-1.74-.56-6.28,.18-7.53,.85-1.1,.59-1.02,1.19-.34,2.41,1.15,2.04,1.89,2.62,2.74,2.44,1.17-.25,3.91-1.11,5.88-1.52,1.46-.3,2.07-.12,2.96,.52Z"/><path class="cls-23" d="M313.18,373.49c-.11,.14-2.41,3.01-6.35,6.28l-1.56-1.18c4-3.27,6.38-6.26,6.41-6.29,.33-.41,.92-.48,1.34-.15,.41,.33,.48,.92,.15,1.34Z"/><path class="cls-23" d="M322.82,392.96c-.12,.42-.5,.68-.91,.68-.09,0-.17,0-.27-.04-1.85-.53-4.05-1.29-6.55-2.84,.26-1.19,.44-1.97,.44-1.97,2.53,1.65,4.68,2.41,6.64,2.98,.5,.15,.79,.67,.65,1.18Z"/></g><g><g><rect class="cls-8" x="399.16" y="192.5" width="63.19" height="10.33"/><path class="cls-2" d="M401.49,193.28h62.42v-2.62h-63.05c-1.38,0-3.25,.1-3.25,7.01s1.87,7.01,3.25,7.01h63.05v-2.62h-62.42c-.68,0-1.31-.73-1.31-4.39s.58-4.39,1.31-4.39Z"/></g><g><polygon class="cls-8" points="408.01 221.25 478.82 221.25 480.72 213.64 478.82 206.03 408.01 206.03 408.01 221.25"/><path class="cls-18" d="M476.85,207.29h-70.28v-2.62h70.91c1.38,0,4.59,2,4.59,8.91,0,6.9-3.21,8.91-4.59,8.91h-70.91v-2.62h70.28c.68,0,2.36-2.63,2.36-6.29s-1.63-6.29-2.36-6.29Z"/></g></g><g><rect class="cls-33" x="302.86" y="49.31" width="135.83" height="115.24"/><rect class="cls-20" x="308.78" y="49.44" width="123.99" height="119.13"/><path class="cls-14" d="M432.77,168.57v-34.63c-4.35-2.43-10.15-5.03-10.15-5.03,0,0-2.38-17.56-10.79-23.78-6.17-4.56-17.19,0-26.48,5.67l-25.73,13.29s-21.83-8.04-34.94-10.66c-11.58-2.32-14.77-.79-26.53,24.07l10.64,16.64v14.33l123.99,.1Z"/><path class="cls-8" d="M365.98,143.99c1.8-.36,4.09-2.1,9.12-7.86,2.71,4.85,5.49,10.15,7.46,11.61,2.1,1.55,10.61-31.37,6.86-37.13-5.46-8.39-6.58-8.6-11.85-5.67-3.32,1.84-35.79,25.24-35.79,25.24,0,0,1.1,17.74,6.4,21.31,1.65,.09,5.49-9.6,5.49-9.6,0,0,9.11,2.74,12.31,2.1Z"/><path class="cls-13" d="M407.21,140.2c-.05,0-.11,0-.16-.01-.52-.09-.86-.58-.78-1.1,.02-.1,1.76-10.48,.55-18.65-.08-.52,.28-1,.8-1.08,.51-.08,1,.28,1.08,.8,1.26,8.48-.48,18.82-.56,19.25-.08,.46-.48,.79-.94,.79Z"/><path class="cls-13" d="M325.22,150.14c-.06,0-.11,0-.17-.01-.52-.09-.86-.59-.77-1.1,.02-.13,2.25-12.98-2.33-19.9-.29-.44-.17-1.03,.27-1.32,.44-.29,1.03-.17,1.32,.27,5,7.56,2.72,20.73,2.62,21.29-.08,.46-.48,.78-.93,.78Z"/><polygon points="325.36 88.3 332.94 92.27 334.75 86.69 327.31 85.77 325.36 88.3"/><rect class="cls-33" x="297.94" y="156.36" width="145.67" height="23.21"/><path class="cls-26" d="M365.65,92.33c3.39-4.62,10.41-9.13,11.8-7.22,1.46,2.01-.79,12.01-5.91,15.48-2.83,1.92-8.32-4.94-5.88-8.26Z"/><path class="cls-26" d="M374,130.74c-3.86,5.76-8.85,9.38-9.6,9.41-.91,.06-4.31-.47-9.25-2.29-1.06-.39-3.42-1.37-3.42-1.37-7.32,0-11.15-1.28-15-3.84-6.98-4.65-9.82-15.09-2.41-25.34-3.2-12.16-1.98-18.19,1.14-21.39,4.46-4.59,10.29-8.05,16.87-8.96,8.16-1.14,9.15,3.48,16.46,17.19l4.52,4.58s7.85,7.29,8.37,10.52c.55,3.38-3.06,14.58-7.69,21.49Z"/><path class="cls-4" d="M353.67,127.79c-1.95-2.82-5.59-2.03-2.89,.68s5.18,2.64,2.89-.68Z"/><path class="cls-4" d="M368.85,95.1c-.21,.82,.59,2.7,2.47,.67s2.44-4.3,.98-4.08c-1.28,.19-3.05,1.83-3.44,3.41Z"/><path class="cls-7" d="M372.93,97.93c-.3,.55-.49,1.5,1.62,3.35,1.02,.9,2.82-.81,1.58-2.07s-2.66-2.27-3.19-1.28Z"/><rect class="cls-33" x="297.94" y="33.25" width="145.67" height="17.53"/><path d="M348.85,111.9c.59-.23,9.83-9.14,11.61-6.63s-5.76,9.6-9.37,11.61-14.49,.55-12.57-2.38c1.92-2.93,10.33-2.61,10.33-2.61Z"/><path class="cls-8" d="M351.9,99.75c.13,1.84-2.08,2.73-5.37,3.76-3.29,1.03-5.75,1.74-6.56-.02-.65-1.42,1.35-5.05,4.64-6.09s7.18,.78,7.29,2.35Z"/><path class="cls-14" d="M360.07,108.23c-1.79,.44-3.97,1.24-6.33,2.4-4.43,2.16-8.23,4.92-9.94,7.06,2.7,.29,5.71,.08,7.3-.81,2.6-1.45,7.25-5.54,8.97-8.65Z"/><path class="cls-8" d="M358.09,110.95c-1.08,1.23-2.38,2.47-3.63,3.52-1.06-1.86-1.59-4.03-1.71-5.78-.12-1.81,.17-3.19,.72-3.33,.54-.14,1.2,.38,1.95,1.34,.8,1.02,1.69,2.52,2.67,4.25Z"/><path class="cls-8" d="M345.02,117.78c-1.83-.09-3.64-.42-4.92-.92-.09-1.33,0-2.63,.23-3.74,.42-2.13,1.25-3.62,1.92-3.53,.6,.09,1.15,1.08,1.62,2.59,.48,1.51,.87,3.52,1.15,5.61Z"/><path d="M348.72,102.77c-.66,.25-1.39,.49-2.18,.74-1.21,.37-2.3,.71-3.24,.89-.18-.25-.32-.53-.42-.84-.49-1.58,.38-3.25,1.96-3.74,1.58-.49,3.25,.38,3.74,1.96,.1,.33,.14,.67,.14,.99Z"/><path class="cls-25" d="M350.75,91.14c-.2,1.63-3.56,1.98-6.98,2.46s-6.32,.78-6.8-.86c-.39-1.33,1.92-3.88,5.34-4.36s8.61,1.38,8.44,2.76Z"/><path class="cls-25" d="M353.33,80.9s3.36,9.35,6.68,11.61c2.01,1.37,5.04,.26,7.76-2.62l-.96-2.17c-2.67-5.49-6.52-10.13-10.43-10.79l-3.05,3.96Z"/><g><rect class="cls-8" x="420.26" y="50.78" width="1.9" height="39.14"/><path class="cls-8" d="M423.51,90.41c0,1.27-1.03,2.3-2.3,2.3s-2.3-1.03-2.3-2.3,1.03-1.29,2.3-1.29,2.3,.03,2.3,1.29Z"/><path class="cls-8" d="M418.92,95.03c0-2,1.03-3.62,2.3-3.62s2.3,1.62,2.3,3.62-1.03,2.04-2.3,2.04-2.3-.04-2.3-2.04Z"/></g><path d="M373.97,125.19c-4.08,6.79-10.25,10.96-18.82,12.67-1.06-.39-3.42-1.37-3.42-1.37,9.01-1.56,16.37-5.22,20.61-12.28,3.38-5.64,2.8-13.62,2.79-13.7-.04-.52,.35-.99,.87-1.03,.53-.04,.98,.35,1.02,.87,.03,.35,.65,8.65-3.06,14.83Z"/><g><ellipse cx="352.86" cy="69.89" rx="2.15" ry="2.86" transform="translate(256.31 416.4) rotate(-85.63)"/><path class="cls-2" d="M359.63,74.81l-.93,1.67-.62,1.1-2.57,4.59c-4.6,7.14-6.46,7.67-13.35,6.63-3.3-.49-5.93-.82-8-1.2-5.36-.98-6.48-.74-7-.18-1.17,1.26,2.56,2.43,5.67,3.68-.11,.53-.21,1.1-.27,1.7-1.86-.62-8.55-2.99-8.93-4.73-.69-3.24,5.08-5.85,11.49-7.49h.03l2.89-.69,19.27-4.54,2.31-.54Z"/><path class="cls-2" d="M352.74,70.12c3.56,.41,8.05,2.18,11.54,5.2,2.64,2.29,2.38,4.02,1.19,9.85,0,0-.36-.14-.97-.37-1.82-.68-5.85-2.1-8.94-2.71l-2.82-11.97Z"/><path class="cls-8" d="M355.56,82.09c-6.64-1.47-14.49-2.05-20.43-1.5,1.26-5.68,1.94-8.55,9.4-9.94,3.16-.59,5.8-.8,8.19-.51,1.24,.17,2.03,1.57,2.33,4.51,.25,2.53,.51,7.43,.51,7.43Z"/></g><g><path class="cls-1" d="M311.28,134.6c-11.36-1.45-19.07-1.89-25.93,7.53s-10.47,25.26,3.94,26.47c14.69,1.23,21.56-1.62,21.56-1.62,0,0,9.89,6.46,14.56,4.36,3.21-1.45,6.06-5.13,9.88-14.36,3.82-9.23,4.96-14.24-1.2-16.91-6.16-2.67-13.88-4.33-22.81-5.47Z"/><path d="M323.17,161.96c-1.14,6.3,.2,8.12,2.06,6.77,2.83-2.06,4.53-6.36,4.53-6.36l-6.58-.41Z"/><path class="cls-8" d="M331.55,143.04s-4.95,3.56-8.38,18.92c0,0,7.86,2.38,10.29,2.7,1.76,.23,2.11-.46,4.01-3.99s4.68-13.11,3.72-14.66c-.84-1.36-5.97-2.68-9.64-2.96Z"/><path class="cls-26" d="M332.63,161.46s5.97,2.41,9.37,2.89c1.09,3.82,2.96,5.51,2.96,5.51,0,0-5.23-1.09-6.2,.69s-1.47,3.87,2.41,5.62c3.88,1.74,10.25,4.25,12.52-.37,2.2,.23,2.88,2.13,7.49-4.65l.48,3.24s-5.02,6.88-3.19,8.94c2.11,2.38,4.58,3.16,8.97-2.45,4.04-5.17,3.79-5.87,4.24-14.66s0-9.27-6.86-12.07c-5.01-2.05-20.91-5.64-25.19-6.68-.71-.17-1.83-.27-2.38,.82-2.3,4.59-4.62,13.17-4.62,13.17Z"/><path class="cls-4" d="M355.42,176.17c-.53-.09-1.06-.3-1.73-.37-.11,.22-.23,.43-.35,.62,2.15-5.74,.35-9.41,.33-9.45-.24-.47-.05-1.04,.42-1.27s1.04-.05,1.27,.42c.1,.17,1.99,4.07,.06,10.06Z"/></g><g><path class="cls-26" d="M419.41,134.94c3.9,2.32,6.58,5.84,6.95,10.48l-11.46,1.6,4.51-12.08Z"/><path class="cls-7" d="M412.74,190.79c1.83,0,5.83,.13,8.41-6.44,4.23-10.74,5.8-28.25,5.8-28.25l-31.59,3.45s-2.75,12.46-1.37,23.59c-6.77,2.93-8.12,7.89-9.22,14.11-1.1,6.22-4.21,11.83-3.17,13.78,.98,1.83,3.45,.98,7.62-3.11,3.11-3.05,5.87-9.34,8.84-14.14,1.59-2.56,3.68-2.93,4.73-2.93,1.49,0,9.94-.05,9.94-.05Z"/><path class="cls-12" d="M394.1,146.22c-5.03,1.04-7.59,3.82-4.82,12.62,2.28,7.24,19.34,.08,19.34,.08,0,0,16.47,3.91,19.9-1.26,4.15-6.26,2.84-13.11-1.58-13.48-11.97-1-25.35,.49-32.85,2.05Z"/><path class="cls-14" d="M416.94,175.26c-2.08-1.63-5.01,.47-7.37,3.48-2.36,3.01-4.11,5-2.03,6.63s6.36,1.18,8.72-1.83,2.76-6.64,.68-8.27Z"/><path class="cls-14" d="M404.92,163.35c-2.62-1.15-6.18,1.97-7.65,5.3s-.94,6.22,1.68,7.37,5.93-.62,7.39-3.95,1.2-7.57-1.42-8.72Z"/><path class="cls-14" d="M389,191.21c-2.53-.79-5.33,2.35-6.47,6-1.14,3.65-.9,7.11,1.63,7.9s5.19-2.13,6.33-5.78c1.14-3.65,1.04-7.33-1.49-8.12Z"/><path class="cls-26" d="M400.57,137.65c-4.02-.12-10.26,.02-9.53,6.84s4.1,12.57,10.09,10.09c2.66,2.99,3.95,2.5,6.93,1.57,2.34-.73,2.32-3.17,2.32-3.17,1.43,.6,2.82-.04,4.35-1.77,3.82-4.29,8.02-14.33,4.67-16.28-3.82-2.22-5.37-1.18-8.23,2.38-1.4-3.29-3.04-4.18-6.64-2.5-2.91,1.35-3.96,2.83-3.96,2.83Z"/><path class="cls-4" d="M401.17,154.62s-.03-.03-.04-.04c-.67,.28-1.29,.45-1.89,.52-1.42-2.4-3.76-7.65-2.13-13.84,.13-.51,.66-.82,1.16-.67,.51,.13,.82,.65,.67,1.16-1.58,5.98,1.03,10.99,2.22,12.87Z"/><path class="cls-4" d="M410.4,152.97s-.02,.96-.54,1.81c-1.58-.57-2.86-1.93-3.56-3.72-.69-1.8-1.4-5.62,1.68-11.09,.26-.46,.84-.62,1.29-.36,.46,.26,.62,.84,.36,1.29-1.97,3.5-2.54,6.94-1.56,9.47,.51,1.33,1.63,2.22,2.32,2.59Z"/><path class="cls-26" d="M385.76,151.71c-3.84,.56-4.99,1.64-4.32,6.36s4.07,3.86,7.17,2.92,4.74-2.6,3.92-5.78c-.82-3.18-1.76-4.23-6.77-3.5Z"/></g></g><g><path class="cls-25" d="M171.8,284.82c14.36,7.32,34.74,13.75,44.86,10.58,10.12-3.17,11.83-17.13,12.31-41.55,12.56-22.34,15.24-32.58-5.24-40.88,5.97-11.42,24.14-46.25,20.97-51.59s-9.58-7.83-15.64-9.09c-11.91,25.57-59.1,122.98-59.1,122.98l1.84,9.54Z"/><path d="M202.76,198.71c11.1-27.43,17.19-38.41,19.51-42.31s4.27-5.36,9.51-3.29c5.24,2.07,8.17,1.59,1.83,15.97-6.34,14.39-19.26,42.43-19.26,42.43,0,0,15.12,2.19,13.66,14.39-1.46,12.19-9.51,18.78-9.51,18.78,0,0,.05,38.75-11.41,41.56-11.46,2.8-30.39-5.47-30.39-5.47l1.87-42.06,24.2-39.99Z"/><path d="M226.99,251.29c0-1.94-.72-4.48-.13-6.22s2.07-3.56,3.29-2.72-.97,3.76-.97,3.76l.24,5.17h-2.43Z"/><path d="M221.6,276.95c-1.37,1.37-2.93,2.29-3.75,3.93s-1.46,3.75,0,4.02,2.38-3.11,2.38-3.11l3.84-3.48-2.47-1.37Z"/><path class="cls-7" d="M225.92,317.77c-.36,0-.71-.21-.87-.56-7.36-16.34-4.55-32.74-3.72-36.66-.95-.44-1.69-1.11-1.8-1.21-.38-.36-.41-.96-.05-1.34,.36-.38,.96-.4,1.34-.05,.26,.24,1.1,.91,1.81,1.06,.25,.05,.47,.21,.61,.43,.14,.22,.18,.49,.12,.74-.05,.18-4.56,18.56,3.41,36.26,.22,.48,0,1.04-.48,1.26-.13,.06-.26,.08-.39,.08Z"/><g><path class="cls-8" d="M241.38,331.74l-7.69-15.6c-.38-.78-1.33-1.1-2.11-.71l-10.18,5.02c-.78,.38-1.1,1.33-.71,2.11l7.69,15.6c.38,.78,1.33,1.1,2.11,.71l10.18-5.02c.78-.38,1.1-1.33,.71-2.11Zm-11.46-10.92l-3.22,1.59c-.5,.25-1.1,.04-1.35-.46-.25-.5-.04-1.1,.46-1.34l3.22-1.59c.5-.25,1.1-.04,1.34,.46,.25,.5,.04,1.1-.46,1.34Z"/><polygon class="cls-12" points="229.15 320.15 226.68 321.38 223.87 317 227.4 315.26 229.15 320.15"/></g><path class="cls-28" d="M225.79,252.34c-.06-.67,.09-2.56,1.38-2.79s3.28-.43,3.77,.74c.71,1.67,1.94,10.25-1.39,20.54-3.02,9.33-6.19,9.16-7.51,8.48-2.99-1.55-2.1-2.35-.38-6.46,3.3-7.92,4.95-11.63,4.14-20.5Z"/><path class="cls-36" d="M104.01,356.37c-1.39,0-2.8-.38-4.07-1.18-3.54-2.25-4.59-6.95-2.34-10.49,24.94-39.28,48.27-67.23,49.25-68.4,2.7-3.22,7.49-3.64,10.71-.94,3.22,2.7,3.64,7.49,.94,10.71-.23,.28-23.7,28.4-48.07,66.79-1.45,2.28-3.91,3.53-6.42,3.53Z"/><path class="cls-8" d="M89.03,389.03s-10.6-8.01-14.16-9.44c.16-.2,16.75-28.71,16.75-28.71,0-6.56,1.81-7.66,4.8-5.75,3.93,2.51,13.27,8.8,14.37,9.55,3.66,2.51,2.43,4-4.43,6.55l-17.34,27.81Z"/><path class="cls-16" d="M90.51,390.71c.87-1.54,.21-3.17-9.66-8.05l-3.94-3.73-7.16,6.17-10.26,1.11c-9.05-8.17-11.77-6.64-14.96-4.51-2.59,1.73-5.41,4.67-5.41,4.67l29.17,24.42,11.1,.53c3.25-4.21,4.02-6.4,4.02-11.84,2.83-3.06,5.98-6.82,7.09-8.78Z"/><path d="M105.21,363.09l-2.01,3.22-14.88-9.75c.73-1.26,1.39-2.38,1.92-3.29l14.97,9.81Z"/><path d="M101.7,368.71l-2.01,3.22-14.8-9.5c.66-1.12,1.3-2.23,1.92-3.28l14.9,9.56Z"/><g><path class="cls-19" d="M59.49,386.21c3.63-1.46,9.22-2.57,9.22-2.57,0,0,2.72-5.99,4.79-8.9,.99-1.39,3.4-1.67,6.67,1.03,2.48,2.05,3.17,3.16,.68,6.9-1.64-.74-2.74-.43-4.99,2.8-1.61,2.33-2.02,2.31-4.97,2.86-6.19,1.16-7.53,1.13-8.38,.42-1.19-.99-3.02-2.54-3.02-2.54Z"/><path d="M71.33,388.24c-.13,.02-.28,.05-.44,.08-.5,.09-.98,.18-1.42,.27-.2-1.12-.9-3.31-3.45-4.08-.12-.04-.24-.1-.33-.18-.28-.24-.41-.63-.29-1.01,.15-.5,.68-.78,1.19-.63,.77,.24,1.43,.57,1.98,.98h0c1.74,1.25,2.52,3.15,2.76,4.58Z"/><path d="M66.56,389.05c-.78,.1-1.41,.16-1.91,.18-.31-1.18-1.12-2.95-3.09-3.54-.1-.03-.19-.08-.27-.13h0c-.32-.23-.48-.65-.36-1.04,.14-.5,.67-.8,1.18-.65,.71,.22,1.32,.53,1.83,.91,1.65,1.22,2.34,3.08,2.62,4.27Z"/></g><path class="cls-22" d="M194,367.98c-2.72,0-5.36-1.47-6.72-4.04-19.77-37.31-29.59-78.2-30-79.93-.97-4.08,1.56-8.18,5.64-9.15,4.08-.97,8.18,1.55,9.15,5.64,.1,.4,9.81,40.78,28.64,76.32,1.96,3.71,.55,8.31-3.16,10.27-1.13,.6-2.35,.89-3.55,.89Z"/><path class="cls-8" d="M217.7,387.14s-10.97,7.13-13.99,9.49c-.1-.24-16-27.87-16-27.87-5.67-3.29-5.72-5.42-2.57-7.04,4.14-2.14,14.27-7.07,15.48-7.64,4.01-1.91,4.67-.09,3.44,7.12l13.64,25.94Z"/><path class="cls-16" d="M219.84,385.8c-1.13-1.36-2.04-1.16-2.68-.79-2.16,1.23-4.69,3.23-8.54,6.78l-4.99,2.12,2.8,9.02-3.17,6.52c-6.89-2.53-11.17-2.03-11.58,3.66-.22,3.11,.06,6.81,.06,6.81l18.11,1.33,22.37-19.9c-1.83-4.27-4.57-7.25-9.57-8.84,0,0-.67-4.15-2.8-6.71Z"/><path class="cls-19" d="M190.09,425h20.36c.53,0,2.05-.37,3.26-1.22,5.24-3.66,21.15-17.54,22.04-18.65,.55-.69,.49-1.95-.79-3.66-1.66-2.22-2.26-2.62-3.23-1.95-1.5,1.03-19.97,19.49-23.81,19.63s-14.69-.33-16.73-.18c-.64,.05-2.26,0-2.5,2.81-.17,1.96,.3,3.22,1.4,3.22Z"/><path d="M206.69,366.2l-15.55,8.52c-.71-1.25-1.36-2.37-1.89-3.29l15.67-8.6,1.77,3.36Z"/><path d="M209.78,372.08l-15.25,8.54c-.65-1.12-1.28-2.23-1.89-3.29l15.37-8.62,1.77,3.36Z"/><g><path class="cls-19" d="M203.26,409.45c.64-3.29,1.22-7.13,1.22-7.13,0,0-3.9-4.39-5.75-7.45-.88-1.46-.48-3.29,3.29-5.21,2.87-1.46,4.16-1.65,6.59,2.13-1.34,1.21-1.49,2.35,.58,5.69,1.49,2.41,1.31,2.77,.64,5.7-1.41,6.14-2.35,7.73-3.24,7.47-.67-.2-3.35-1.19-3.35-1.19Z"/><path d="M210.22,401.44c-.08,.48-.22,1.03-.38,1.74,0,.05-.02,.1-.04,.14-.96-.43-3.32-1.17-5.44,.65-.05,.04-.1,.08-.15,.1-.14,.08-.3,.11-.47,.11-.27,0-.53-.1-.72-.33-.34-.4-.28-1,.11-1.34,.3-.26,.62-.48,.93-.66,2.22-1.34,4.6-1.02,6.16-.41Z"/><path d="M209.25,405.63c-.19,.72-.36,1.31-.53,1.81-1.07-.41-3.28-.93-5.03,.57-.06,.06-.12,.09-.19,.12h0c-.13,.08-.28,.11-.43,.11-.27,0-.53-.11-.72-.33-.34-.4-.29-1,.1-1.34,.47-.42,.98-.72,1.48-.94h0c2.01-.9,4.09-.45,5.31,0Z"/></g><path class="cls-2" d="M185.82,309.05c-3.49,2.45-13.51,5.88-21.18,6.45-2.28,.17-3.18-.74-3.71-2.83-1.03-4.08-2.6-10.35-3.82-16.11,0-.02,0-.03,0-.05-.24-1.1-.46-2.17-.65-3.16-.42,.82-.88,1.73-1.39,2.71-2.25,4.36-5.18,9.94-7.4,13.59-1.67,2.75-2.14,3.04-5,2.68-5.41-.68-14.72-7.31-16.88-10.26-1.35-1.85-1.04-2.37,.2-4.13,5.28-7.51,11.05-16.08,11.05-16.08-2.76-2.58-4.34-5.61-4.15-8.8,.52-8.89,12.69-14.4,27.3-14.4s25.02,5.51,25.61,14.4c.27,4.08-1.94,8.03-5.89,10.95,0,0,4.43,13.42,6.4,19.42,1.15,3.47,1.03,4.55-.48,5.61Z"/><path class="cls-34" d="M141.47,235.05s-8.42,11.37-15.48,18.76c-3.07,3.21-6.04,6.68-15.45-.73-9.42-7.41-20.87-19.51-20.87-19.51,0,0-13.25,2.21-15.9-2.63s-.79-16.88-.26-18.66c.74-2.45,4.21-2.19,5.12-.34,.75-2.8,1.41-3.84,4.15-3.48,4.63,.62,11.77,16.72,11.77,16.72l23.35,14.7,9.9-11.37,9.09-3.6,4.6,10.13Z"/><path class="cls-19" d="M36.74,389.47c2.25,3.55,7.05,7.87,12.16,11.38,4.17,2.86,9.1,3.66,14.54,8.46s11.88,6.61,13.03,6.63c.59,0,1.49-.33,3.11-2.51,1.48-1.99,.41-2.33-.05-2.56-.95-.48-5.62-1.88-9.92-4.98-6.26-4.53-12.67-7.13-17.28-10.74-6.56-5.14-10.63-9.49-11.06-9.92-.67-.66-1.57-1.32-3.2,.32-1.38,1.39-2.16,2.61-1.33,3.93Z"/><path class="cls-35" d="M134.73,158.32c.28-4.34,7.97-8.82,25.99-11.19,0,0,5.88-10.24,13.56-11,5.33-.53,9.39,1.23,13.66,6.17,12.81-4.36,24.09-3.89,25.23-.47s-.95,10.62-36.42,19.07c-31.69,7.54-42.3,1.8-42.02-2.56Z"/><path class="cls-16" d="M166.95,160.06c-13.55,2.36-31.11,1.64-24.54-2.91s25.99-3.76,25.99-3.76c0,0,26.27-10.91,37.12-10.15,9.85,.69-14.92,12.7-38.57,16.82Z"/><path class="cls-22" d="M165.43,157.28c13.42-1.52,20.56-5.43,20.56-5.43,0,0,4.77,15.49-1.08,42.96l-16.09,17.86-7.87-15.55c4.75-25.25,4.49-39.84,4.49-39.84Z"/><ellipse cx="184.39" cy="163.42" rx="2.21" ry="1.05" transform="translate(-51.38 234.97) rotate(-58.43)"/><ellipse cx="173.67" cy="164.74" rx="1.07" ry="2.27" transform="translate(-65.47 175.43) rotate(-46.05)"/><path d="M183.51,171.82c-.57,2.58-1.62,5.5-2.77,7.51-1.08-1.27-3.45-2.26-5.26-2.06-.2-1.34-.18-2.86,.16-4.38l7.88-1.07Z"/><path class="cls-16" d="M142.22,255.19l40.46,.46-.27,7.96-38.35-.26c-.67,0-1.24-.48-1.37-1.13-.68-3.33-.46-7.02-.46-7.02Z"/><path class="cls-3" d="M156.45,293.36c-.42,.82-.88,1.73-1.39,2.71l-2.67-13.26c-6.92-7.12-4.08-14.27-.36-20.34,.28-.45,.86-.59,1.31-.31,.45,.28,.59,.86,.31,1.3-3.53,5.78-5.95,11.98,.28,18.21,.13,.13,.22,.3,.26,.48l2.25,11.21Z"/><rect class="cls-8" x="146.92" y="253.85" width="16.23" height="11.52" rx="1.9" ry="1.9"/><rect class="cls-16" x="150.57" y="255.95" width="8.91" height="7.32" rx=".95" ry=".95"/><path class="cls-7" d="M130.2,220.63c9.32-16.37,14.35-23.05,20.02-22.86,6.28,.2,9.33,2.56,9.33,2.56l.82-6.54,3.81,.29c1.04,.18,2.07,.73,5.55,13.11,4.39-11.58,5-11.95,6.1-12.19l3.61-.47-.81,6.69s16.46-7.5,24.01-4.45c4.23,1.71,3.29,15.61,3.29,15.61,0,0,9.15,15.91,5.38,21.64-2.9,4.4-9.27,5.49-20.79,7.56l-4.63,15.91s-34.22-.85-42.62-.85-7.58-4.08-4.02-7.44l.13-17.61-9.16-10.95Z"/><path class="cls-8" d="M177.65,228.81c-1.2,2.5-.8,5.33,1.01,6.06,1.65,.66,2.93-.44,2.93-.44l1.43-8.6c-1.76-.85-4.16,.49-5.37,2.98Z"/><path class="cls-8" d="M151.4,221.08c-.9,2.38-.31,4.81,1.31,5.42,1.62,.61,3.66-.83,4.56-3.21,.9-2.38,.31-4.81-1.31-5.42-1.62-.61-3.66,.83-4.56,3.21Z"/><path class="cls-8" d="M144.59,203.84c1.51,1.02,4.39,.1,6.47-1.96,1.31-1.3,1.98-2.73,1.92-3.87-.84-.12-1.75-.22-2.76-.25-2.04-.07-3.99,.76-6.09,2.59-.66,1.44-.56,2.8,.45,3.49Z"/><path class="cls-8" d="M198.99,199.02c1.38-.59,2.49-1.47,3.17-2.43-2.66-.88-6.26-.62-9.85,.11-.06,.44-.02,.87,.16,1.27,.76,1.79,3.69,2.26,6.52,1.04Z"/><path class="cls-8" d="M192.18,217.96c1.82,.5,4.02-.83,5.12-3.17s.68-4.8-1.14-5.31-4.18,.99-5.28,3.33-.52,4.65,1.3,5.15Z"/><path class="cls-8" d="M165.86,205c.93,.25,1.97-.47,2.74-1.71-.93-3.08-1.64-5.12-2.22-6.47-.77,.65-1.46,1.77-1.83,3.15-.64,2.42-.06,4.67,1.3,5.03Z"/><path class="cls-8" d="M170.7,244.58c-1.37,2.09-1.11,4.79,.08,5.57,1.19,.79,3.58-.19,4.95-2.28,1.37-2.09,1.22-4.49,.03-5.28-1.19-.79-3.68-.1-5.06,1.99Z"/><path class="cls-8" d="M204.58,220.5c-1.81-.63-3.98,.87-4.84,3.34-.86,2.48-.09,4.99,1.73,5.62,1.81,.63,3.98-.87,4.84-3.34,.86-2.48,.09-4.99-1.73-5.62Z"/><path class="cls-14" d="M175.47,177.25c.37,2.56,1.53,4.49,2.7,4.57,.79,.06,1.71-.96,2.59-2.5-1-1.31-3.47-2.36-5.28-2.07Z"/><path class="cls-12" d="M140.05,229.95c-.06,0-.11,0-.17-.01-.52-.09-.86-.59-.77-1.1,.02-.1,1.79-9.88,5.11-17.89,.2-.49,.76-.72,1.24-.51,.48,.2,.71,.76,.51,1.24-3.24,7.81-4.98,17.4-5,17.5-.08,.46-.48,.78-.93,.78Z"/><path d="M199.84,236.56l1.52-3.66c3.51-.97,7.88-1.98,7.82-.7-.07,1.55-5.44,4.04-9.34,4.35Z"/><path class="cls-19" d="M143.77,156.37c-.49,.24-.95,.5-1.35,.78-1.92,1.33-1.77,2.33-.27,3.03,2.82,.13,8.13,.24,10.17-.63,1.6-.68-2.58-2.15-8.55-3.18Z"/><path class="cls-19" d="M207.68,144.06c-7.52,2.81-14,5.61-12.5,6.06,.8,.24,1.93,.38,3.12,.46,6.12-2.74,9.89-5.26,9.38-6.52Z"/><path class="cls-19" d="M189.55,149.24c2.85-.68,7.79-3.88,10.39-5.65-3.09,.46-6.61,1.3-10.15,2.31-.79,1.62-1.62,3.68-.23,3.34Z"/><path class="cls-19" d="M161.27,156.59c1.12-.13,.24-1.05-3.09-3.04-2.85,.18-5.92,.5-8.7,1.05,3.5,1.21,10.06,2.18,11.79,1.99Z"/><path class="cls-6" d="M185.17,143.54c.83-.41,1.12-1.71,1.2-2.93-2.62-2.58-5.23-3.98-8.18-4.42-3.64,2.04-2.98,3.7-.71,4.92,2.74,1.47,6,3.26,7.69,2.42Z"/><path class="cls-6" d="M154.68,148.07c-4.71,.86-8.51,1.89-11.48,3.02,.76,2.72,3.1,2.74,5.01,1.58,2.05-1.24,5.11-3,6.47-4.6Z"/><path class="cls-6" d="M170.59,145.49c1.67-1.89,.16-4.62-3.15-6.24-2.08,1.67-3.8,3.7-4.97,5.28,1.58,5.38,4.04,5.56,8.12,.96Z"/><path class="cls-6" d="M197.55,139.83c.9,.63,2.33,1.22,4.56,1.63,3.24,.59,5.45-.43,6.15-2.11-2.75-.38-6.47-.25-10.71,.48Z"/><path class="cls-12" d="M185.12,241.53c-.08,0-.16,0-.23-.03-1.8-.45-3.09-1.4-3.84-2.81-2.22-4.14,.44-11.74,4.12-22.26,.74-2.13,1.53-4.36,2.31-6.7,.17-.5,.71-.77,1.2-.6,.5,.17,.76,.71,.6,1.2-.79,2.34-1.58,4.59-2.32,6.72-3.39,9.68-6.07,17.33-4.24,20.73,.5,.93,1.36,1.54,2.64,1.86,.51,.13,.82,.65,.69,1.15-.11,.43-.5,.72-.92,.72Z"/><path class="cls-28" d="M138.63,234.07s0,7.68-.24,12.31c-.11,2.07,.85,2.8,.85,2.8,2.8-2.44,20.73-15.97,48.04-32.68,13.17-8.06,32.21-18.38,33.71-19.26,5.49-3.23,6.71-4.02,6.83-5.49,.11-1.36-1.76-.83-7.74,1.46-45.5,17.44-81.45,40.84-81.45,40.84Z"/><path class="cls-22" d="M143.14,239.09c-8.92-.46-17.97-5.4-17.97-5.4,0,0-12.82,2-14.22-1.46-1.05-2.61,2.79-3.83,4.71-3.83,1.46,0,23.18-.09,23.18-.09l4.3,10.78Z"/><path class="cls-32" d="M186.28,303.34c-4.12,2.47-13.74,7.33-25.84,7.38-.16-.61-.31-1.24-.48-1.91,12.12,.09,21.93-5.04,25.7-7.34,.23,.67,.44,1.31,.63,1.87Z"/><path class="cls-32" d="M149.33,306.79c-.33,.59-.66,1.16-.97,1.69-3.88-1.22-13.79-5-20.43-13.32,.38-.55,.76-1.1,1.14-1.64,6.48,8.46,16.87,12.23,20.26,13.27Z"/><path class="cls-12" d="M170.11,206.17c-1.16,3.26-1.95,6.42-1.96,6.45-.11,.44-.49,.72-.92,.72-.08,0-.15,0-.24-.03-.5-.12-.82-.64-.68-1.15,.04-.15,.96-3.87,2.34-7.5,.06-.14,.14-.28,.26-.37,.26,.88,.53,1.85,.83,2.9,.13-.35,.26-.68,.38-1.02Z"/><path class="cls-7" d="M173.89,173.08c-2.99,0-5.77-3.17-6.2-7.1-.25-2.31,.32-4.44,1.57-5.86,.88-.99,1.99-1.53,3.23-1.55,3-.06,5.83,3.14,6.26,7.1h0c.25,2.31-.32,4.44-1.57,5.86-.88,.99-1.99,1.53-3.23,1.55-.02,0-.04,0-.06,0Zm-1.33-13.08h-.05c-.83,.01-1.58,.38-2.19,1.07-.97,1.1-1.43,2.88-1.22,4.76,.36,3.23,2.49,5.83,4.78,5.83h.05c.83-.01,1.58-.38,2.19-1.07,.97-1.1,1.43-2.88,1.22-4.76-.36-3.23-2.49-5.83-4.78-5.83Z"/><path class="cls-7" d="M184.69,171.11c-1.18,0-2.27-.48-3.16-1.39-1.32-1.36-1.99-3.46-1.85-5.78,.25-3.98,2.9-7.29,5.92-7.39,1.23-.04,2.38,.44,3.3,1.39,1.32,1.36,1.99,3.46,1.85,5.78-.25,3.98-2.9,7.29-5.92,7.39-.05,0-.1,0-.14,0Zm1.05-13.14s-.06,0-.09,0c-2.3,.08-4.34,2.79-4.54,6.06-.12,1.89,.42,3.64,1.45,4.7,.64,.65,1.4,.98,2.23,.96,2.3-.08,4.34-2.79,4.54-6.06,.12-1.89-.42-3.64-1.44-4.7-.61-.63-1.35-.96-2.14-.96Z"/><path class="cls-7" d="M178.64,166.59c-.33,0-.62-.23-.7-.56-.08-.38,.16-.76,.55-.85l1.58-.34c.38-.09,.76,.16,.85,.55,.08,.38-.16,.76-.55,.85l-1.58,.34c-.05,.01-.1,.02-.15,.02Z"/><path class="cls-16" d="M179.79,170.81s5.25-4.93,14.99-4.55c5.94-3.23,9.8-5,11.19-3.41s-2.59,6.89-10.56,7.65c.38,2.78-1.39,5.82-15.56,2.4-8.41,5.63-16.13,5.63-12.65,.51-13.09,2.53-18.73-3.61-15.37-5.38,2.4-1.26,9.74,.89,9.74,.89,6.7-1.26,13.87,.62,18.21,1.9Z"/><rect class="cls-10" x="73.91" y="170.44" width="57.15" height="10.33"/><path class="cls-7" d="M76.24,171.22h56.38v-2.62h-57.02c-1.38,0-3.25,.1-3.25,7.01s1.87,7.01,3.25,7.01h57.02v-2.62h-56.38c-.68,0-1.31-.73-1.31-4.39s.58-4.39,1.31-4.39Z"/><rect class="cls-21" x="67.95" y="156.43" width="53.24" height="10.33"/><path class="cls-2" d="M70.27,157.21h52.47v-2.62h-53.1c-1.38,0-3.25,.1-3.25,7.01s1.87,7.01,3.25,7.01h53.1v-2.62h-52.47c-.68,0-1.31-.73-1.31-4.39s.58-4.39,1.31-4.39Z"/><rect class="cls-5" x="117.38" y="108.05" width="61.04" height="10.33"/><path class="cls-14" d="M119.71,108.82h60.27v-2.62h-60.9c-1.38,0-3.25,.1-3.25,7.01s1.87,7.01,3.25,7.01h60.9v-2.62h-60.27c-.68,0-1.31-.73-1.31-4.39s.58-4.39,1.31-4.39Z"/><rect class="cls-21" x="129.62" y="94.03" width="61.04" height="10.33"/><path class="cls-32" d="M131.94,94.81h60.27v-2.62h-60.9c-1.38,0-3.25,.1-3.25,7.01s1.87,7.01,3.25,7.01h60.9v-2.62h-60.27c-.68,0-1.31-.73-1.31-4.39s.58-4.39,1.31-4.39Z"/><rect class="cls-9" x="74.9" y="142.42" width="54.38" height="10.33"/><path class="cls-15" d="M126.95,143.2h-53.61v-2.62h54.24c1.38,0,3.25,.1,3.25,7.01,0,6.9-1.87,7.01-3.25,7.01h-54.24v-2.62h53.61c.68,0,1.31-.73,1.31-4.39s-.58-4.39-1.31-4.39Z"/><rect class="cls-10" x="90.63" y="132.21" width="54.38" height="6.53"/><path class="cls-7" d="M142.68,132.98h-53.61v-2.62h54.24c2.53,0,3.25,0,3.25,5.11s-.77,5.11-3.25,5.11h-54.24v-2.62h53.61c1.03,0,1.31,.02,1.31-2.49s-.21-2.49-1.31-2.49Z"/><rect class="cls-24" x="102.16" y="122.06" width="58.99" height="6.53"/><path class="cls-18" d="M158.82,122.83h-58.21v-2.62h58.85c2.53,0,3.25,0,3.25,5.11s-.77,5.11-3.25,5.11h-58.85v-2.62h58.21c1.03,0,1.31,.02,1.31-2.49s-.21-2.49-1.31-2.49Z"/><rect class="cls-24" x="82.17" y="202.22" width="55.6" height="10.33"/><path class="cls-18" d="M135.45,203h-54.83v-2.62h55.46c1.38,0,3.25,.1,3.25,7.01,0,6.9-1.87,7.01-3.25,7.01h-55.46v-2.62h54.83c.68,0,1.31-.73,1.31-4.39s-.58-4.39-1.31-4.39Z"/><rect class="cls-21" x="77.71" y="216.23" width="59.89" height="10.33"/><path class="cls-32" d="M135.27,217.01h-59.12v-2.62h59.75c1.38,0,3.25,.1,3.25,7.01,0,6.9-1.87,7.01-3.25,7.01h-59.75v-2.62h59.12c.68,0,1.31-.73,1.31-4.39s-.58-4.39-1.31-4.39Z"/><polygon class="cls-5" points="77.93 199.19 137.44 199.19 139.34 191.58 137.44 183.97 77.93 183.97 77.93 199.19"/><path class="cls-14" d="M135.47,185.23h-58.98v-2.62h59.61c1.38,0,4.59,2,4.59,8.91s-3.21,8.91-4.59,8.91h-59.61v-2.62h58.98c.68,0,2.36-2.63,2.36-6.29s-1.63-6.29-2.36-6.29Z"/><rect class="cls-18" x="121.18" y="83.85" width="116.56" height="8.34"/><path class="cls-18" d="M121.18,83.85l4.32,6.77,96.44-58.43c1.79-1.09,2.37-3.42,1.28-5.22l-2.35-3.88-99.69,60.76Z"/><path class="cls-12" d="M234.66,80.5c1.52-1.88,3.36-3.79,10.78-2.2,8.11,1.73,13.73,5.65,18.19,12.61,5.16,8.06,9.04,18.35,7.35,25.49-1.92,8.12-4.88,5.01-6.59,2.25-.87-1.39-.43-3.97-.03-4.92l-2.63-9.03-27.06-24.2Z"/><polygon points="237.74 83.85 200.17 83.85 204.51 92.18 237.74 92.19 237.74 83.85"/><path class="cls-7" d="M244.11,138.98l13.11-5.45s-3.7-13.62-9.45-24.58c-5.92-11.29-8.56-15.06-8.56-15.06,0,0,12.5,3.71,21.67,16.8,1.62,2.31,3.55,6,4.13,5.79,.81-.29,.76-1.95,.68-3-.98-14.44-12.6-28.86-22.36-32.05-11.48-3.75-36.04-1.56-36.04-1.56l8.83,12.02,10.84,38.3,17.14,8.8Z"/><path class="cls-12" d="M190,83.85h11.07c1.23,0,5.15-.1,8.13,5.57,1.58,3,3.08,7.98,5.05,15.72,5.18,20.3,6.85,32.07,20.53,36.12,14.64,4.33,26.17-1.84,25.67-5.52-.49-3.68-2.14-7.19-5.15-4.34s-10.85,5.39-19.21,2c-8.35-3.39-10.87-19.53-14.91-36.06-3.46-14.14-8.47-18.38-13.9-19.27-11.8-1.92-15.47,2.28-17.3,5.78Z"/><path class="cls-14" d="M230,98.71c-2.59,.52-3.09,4.38-2.33,8.13s2.76,5.49,5.35,4.97,3.58-3.45,2.82-7.2-3.25-6.42-5.84-5.9Z"/><path class="cls-14" d="M219.97,78.73c-1.3,1.69,2.35,4.24,5.78,5.94s6.51,2.47,7.81,.78-.75-4.73-4.18-6.43-8.11-1.97-9.4-.28Z"/><path class="cls-14" d="M237.66,117.33c-2.37,1.17-2.42,5.01-.83,8.22s4.01,4.69,6.38,3.52,3.01-4.73,1.42-7.94-4.6-4.98-6.97-3.81Z"/><path class="cls-14" d="M248.5,84.56c-1.59,1.32-.18,5.13,2.27,8.06,2.45,2.93,5.28,4.78,6.87,3.47s.3-4.89-2.15-7.83-5.4-5.02-7-3.7Z"/><path class="cls-22" d="M136.07,217.76c-2.29,.47-1.93,3.64,.51,10.9l-.95,3.32,4.3,5.84s15.9,14.41,27.17,24.09c9.43,8.09,15.63,12.72,19.73,6.18,4.51-7.2,11.86-25.05,14.52-35.18-8.31,2.41-14.57,4.27-14.57,4.27l-6.62,15.64s-17.03-11.45-32.37-22.86c0,0-1.18-1.78-4.67-7.29s-4.64-5.4-7.06-4.9Z"/><path class="cls-12" d="M164.18,194.07s-4.26-2.33-5.55-2.67c-1.32-.34-2.43,.46-3.66,4.53-1.33,4.39,0,6.55,.71,7.95,.98,1.9,2.76,4.21,4,3.94,1.14-.25,1.28-2.42,2.42-8.44,.76-4.02,1.42-5.48,2.07-5.3Z"/><path class="cls-12" d="M175.82,194.99c-1.03,.59,8.28-4.47,10.06-5.18s3.02-.46,4.44,4.71c1.02,3.73-1.05,5.72-8.23,12.25-1.95,1.78-2.73,1.31-3.11-.5-2.15-10.24-2.29-11.54-3.15-11.28Z"/><polygon points="136.68 83.85 129.62 88.13 146.78 83.85 136.68 83.85"/></g></g><path class="cls-27" d="M585.2,74.35c-1.73-1.11-2.9-2.92-3.2-4.96l-.52-3.46c-.03-.17-.17-.3-.34-.3h0c-.17,0-.32,.13-.34,.3l-.52,3.46c-.3,2.04-1.47,3.84-3.2,4.96l-.45,.29c-.1,.06-.16,.17-.16,.29v.02c0,.12,.06,.23,.16,.29l.45,.29c1.73,1.11,2.9,2.92,3.2,4.96l.52,3.46c.03,.17,.17,.3,.34,.3h0c.17,0,.32-.13,.34-.3l.52-3.46c.3-2.04,1.47-3.84,3.2-4.96l.45-.29c.1-.06,.16-.17,.16-.29v-.02c0-.12-.06-.23-.16-.29l-.45-.29Z"/><path class="cls-27" d="M65.73,317.94c-1.4-.9-2.34-2.36-2.58-4l-.42-2.8c-.02-.14-.14-.24-.28-.24h0c-.14,0-.26,.1-.28,.24l-.42,2.8c-.25,1.64-1.19,3.1-2.58,4l-.36,.23c-.08,.05-.13,.14-.13,.24v.02c0,.1,.05,.18,.13,.24l.36,.23c1.4,.9,2.34,2.36,2.58,4l.42,2.8c.02,.14,.14,.24,.28,.24h0c.14,0,.26-.1,.28-.24l.42-2.8c.25-1.64,1.19-3.1,2.58-4l.36-.23c.08-.05,.13-.14,.13-.24v-.02c0-.1-.05-.18-.13-.24l-.36-.23Z"/><path class="cls-14" d="M567.43,51.52c-2.82-1.82-4.73-4.76-5.22-8.08l-.85-5.65c-.04-.28-.28-.48-.56-.48h0c-.28,0-.52,.21-.56,.48l-.85,5.65c-.5,3.32-2.4,6.27-5.22,8.08l-.73,.47c-.16,.1-.26,.28-.26,.48v.03c0,.19,.1,.37,.26,.48l.73,.47c2.82,1.82,4.73,4.76,5.22,8.08l.85,5.65c.04,.28,.28,.48,.56,.48h0c.28,0,.52-.21,.56-.48l.85-5.65c.5-3.32,2.4-6.27,5.22-8.08l.73-.47c.16-.1,.26-.28,.26-.48v-.03c0-.19-.1-.37-.26-.48l-.73-.47Z"/><path class="cls-2" d="M259,44.39c-1.57-1.01-2.62-2.65-2.9-4.49l-.47-3.14c-.02-.15-.16-.27-.31-.27h0c-.16,0-.29,.11-.31,.27l-.47,3.14c-.28,1.84-1.33,3.48-2.9,4.49l-.41,.26c-.09,.06-.14,.16-.14,.27v.02c0,.11,.05,.21,.14,.27l.41,.26c1.57,1.01,2.62,2.65,2.9,4.49l.47,3.14c.02,.15,.16,.27,.31,.27h0c.16,0,.29-.11,.31-.27l.47-3.14c.28-1.84,1.33-3.48,2.9-4.49l.41-.26c.09-.06,.14-.16,.14-.27v-.02c0-.11-.05-.21-.14-.27l-.41-.26Z"/><path class="cls-29" d="M36.59,273.65c-2.44-1.57-4.08-4.11-4.51-6.98l-.73-4.88c-.04-.24-.24-.42-.49-.42h0c-.24,0-.45,.18-.49,.42l-.73,4.88c-.43,2.87-2.07,5.41-4.51,6.98l-.63,.41c-.14,.09-.22,.25-.22,.41v.03c0,.17,.08,.32,.22,.41l.63,.41c2.44,1.57,4.08,4.11,4.51,6.98l.73,4.88c.04,.24,.24,.42,.49,.42h0c.24,0,.45-.18,.49-.42l.73-4.88c.43-2.87,2.07-5.41,4.51-6.98l.63-.41c.14-.09,.22-.25,.22-.41v-.03c0-.17-.08-.32-.22-.41l-.63-.41Z"/><path class="cls-27" d="M92.79,87.22c-1.87-1.2-3.13-3.15-3.46-5.35l-.56-3.74c-.03-.18-.19-.32-.37-.32h0c-.19,0-.34,.14-.37,.32l-.56,3.74c-.33,2.2-1.59,4.15-3.46,5.35l-.49,.31c-.11,.07-.17,.19-.17,.32v.02c0,.13,.06,.25,.17,.32l.49,.31c1.87,1.2,3.13,3.15,3.46,5.35l.56,3.74c.03,.18,.19,.32,.37,.32h0c.19,0,.34-.14,.37-.32l.56-3.74c.33-2.2,1.59-4.15,3.46-5.35l.49-.31c.11-.07,.17-.19,.17-.32v-.02c0-.13-.06-.25-.17-.32l-.49-.31Z"/></svg>