<svg fill="none" height="60" width="95" xmlns="http://www.w3.org/2000/svg"><path d="m47.515 0-14.37 14.37v20.223l14.37 14.313 14.37-14.37v-20.166zm7.185 31.58-7.185 7.185-7.185-7.185v-14.254l7.185-7.186 7.185 7.186z" fill="#fa6ef6"/><path d="m47.515 0v10.14l7.185 7.186 7.185-2.956-14.369-14.37z" fill="#ffadfb"/><path d="m40.33 31.58-7.185 3.013 14.37 14.313v-10.14z" fill="#e655d4"/><path d="m40.33 17.326v14.254l7.185 7.185 7.185-7.185v-14.254l-7.185-7.186z" fill="#ffcff9"/><path d="m54.7 17.325v.058l-14.312 14.255h-.058v-3.883l12.4-12.4zm0 5.389v3.94l-9.619 9.677-1.97-2.028 11.59-11.589z" fill="#fff"/><path d="m35.695 9.503-2.318 1.101c-.29.174-.696 0-.87-.29a.987.987 0 0 1 0-.58l1.102-2.317a.526.526 0 0 0 0-.58l-1.101-2.317c-.174-.348 0-.696.29-.87a.804.804 0 0 1 .52 0l2.319 1.102a.526.526 0 0 0 .58 0l2.317-1.101c.348-.174.695 0 .869.29a.803.803 0 0 1 0 .52l-1.1 2.319a.526.526 0 0 0 0 .58l1.1 2.317c.174.29 0 .695-.29.87a.988.988 0 0 1 -.58 0l-2.317-1.102c-.116-.058-.348-.058-.521.058z" fill="#ffcff9"/><path d="m72.837 21.787c1.796-.753 3.824.116 4.52 1.855l5.852 14.196-6.432 2.665-5.853-14.138c-.753-1.796.116-3.824 1.912-4.578zm5.157-13.037c1.796-.754 3.824.115 4.52 1.854l6.432 15.47-6.432 2.666-6.374-15.413c-.754-1.796.116-3.824 1.854-4.578z" fill="#aec7ff"/><path d="m73.648 14.66c1.796-.754 3.824.116 4.52 1.854l5.91 14.197-6.432 2.665-5.852-14.139c-.754-1.796.116-3.824 1.854-4.577z" fill="#aec7ff"/><path d="m80.891 32.044-3.245 1.332-4.81-11.589c-.289.116-.579.29-.81.464l4.751 11.473c.174.348.464.58.87.58.115 0 .231 0 .347-.059l3.245-1.332-.348-.87zm2.318-3.535-.638.29-5.794-13.965c-.348-.232-.753-.348-1.217-.464l6.142 14.776c.174.348.464.58.87.58.115 0 .231 0 .347-.058l.638-.29-.348-.87z" fill="#7196ff"/><g fill="#ebf0f7"><path d="m86.28 47.341h-21.498v6.606h21.498v-6.607zm2.202-22.193c1.332 1.333 1.332 3.535 0 4.926l-9.967 9.966-4.925-4.925 9.966-9.967c1.391-1.332 3.593-1.332 4.926 0z"/><path d="m91.495 10.198a3.487 3.487 0 0 1 3.477 3.477v12.748h-6.954v-12.748a3.45 3.45 0 0 1 3.477-3.477zm-26.713 43.692v-6.55c0-6.2 3.767-11.82 9.503-14.196l6.722-2.782 5.273 12.808v10.72z"/><path d="m92.828 36.273-3.824 6.49c-1.739 3.013-2.666 6.374-2.666 9.85v1.276h-21.497l23.178-23.294v-9.677h6.953v7.417c-.058 2.781-.753 5.505-2.144 7.938z"/></g><path d="m89.12 24.569c-1.739-1.739-4.462-1.739-6.2 0l.637.637a3.48 3.48 0 0 1 4.925 0 3.48 3.48 0 0 1 0 4.925l-5.852 5.853a.443.443 0 0 0 -.116.29v5.04c0 .233.174.464.406.464.231 0 .463-.174.463-.405v-4.868l5.679-5.678c1.796-1.797 1.796-4.578.058-6.258zm-24.338 25.263v1.739l18.021 2.317h3.477v-1.274z" fill="#aec7ff"/><path d="m64.782 50.818 21.556 2.78c1.738.233 3.013 1.855 2.78 3.593-.23 1.739-1.853 3.014-3.592 2.782l-21.555-2.783c-1.738-.231-3.013-1.854-2.781-3.592.173-1.738 1.796-3.013 3.592-2.781z" fill="#ebf0f7"/><path d="m18.195 40.503-6.432-2.665 5.852-14.139c.754-1.796 2.782-2.607 4.52-1.854 1.796.753 2.607 2.782 1.854 4.52zm-5.679-11.704-6.432-2.665 6.432-15.472c.753-1.796 2.781-2.607 4.52-1.854 1.796.753 2.607 2.781 1.854 4.52z" fill="#aec7ff"/><path d="m17.384 33.376-6.432-2.665 5.853-14.197c.753-1.796 2.781-2.607 4.52-1.854 1.796.753 2.607 2.781 1.854 4.52z" fill="#aec7ff"/><path d="m23.004 22.25a3.69 3.69 0 0 0 -.811-.463l-4.81 11.59-3.244-1.333-.348.869 3.245 1.333c.116.057.232.057.348.057.405 0 .695-.231.869-.579l4.751-11.473zm-4.751-7.358-5.795 13.964-.637-.29-.348.87.638.29c.116.057.232.057.347.057.406 0 .696-.232.87-.58l6.084-14.717c-.406 0-.811.174-1.16.405z" fill="#7196ff"/><path d="m30.247 47.283h-21.497v6.606h21.497zm-8.865-12.168-4.925 4.925-9.909-9.909c-1.333-1.332-1.333-3.534 0-4.925 1.333-1.333 3.535-1.333 4.925 0z" fill="#ebf0f7"/><path d="m7.07 26.423h-7.013v-12.748a3.487 3.487 0 0 1 3.477-3.477 3.487 3.487 0 0 1 3.476 3.477l.058 12.748zm23.177 27.467v-6.55c0-6.2-3.766-11.82-9.503-14.196l-6.721-2.782-5.273 12.808v10.72z" fill="#ebf0f7"/><path d="m2.202 36.273 3.824 6.49c1.739 3.013 2.666 6.374 2.666 9.85v1.276h21.497l-23.178-23.294v-9.677h-7.011v7.417a16.685 16.685 0 0 0 2.202 7.938z" fill="#ebf0f7"/><path d="m5.91 24.569c1.68-1.739 4.462-1.739 6.2 0l-.637.637a3.48 3.48 0 0 0 -4.925 0 3.48 3.48 0 0 0 0 4.925l5.852 5.853a.443.443 0 0 1 .116.29v5.04c0 .233-.174.464-.405.464-.232 0-.464-.174-.464-.405v-4.868l-5.679-5.678c-1.796-1.797-1.796-4.578-.058-6.258zm24.337 25.263v1.739l-18.02 2.317h-3.477v-1.274z" fill="#aec7ff"/><path d="m31.116 57.191-21.556 2.783c-1.738.232-3.36-1.043-3.592-2.782-.232-1.738 1.043-3.36 2.781-3.592l21.556-2.781c1.738-.232 3.36 1.043 3.592 2.78.232 1.797-1.043 3.42-2.781 3.593z" fill="#ebf0f7"/></svg>