<svg xmlns="http://www.w3.org/2000/svg" width="40" height="26" fill="none" viewBox="0 0 40 26">
  <path fill="#fff" d="M0 0h40v26H0z" />
  <path fill="#1CB35E"
    d="M23.53 16.25v-6.1h.09c.7 0 1.4-.02 2.1 0 .43-.01.85.08 1.23.27.59.3.88.8.94 1.45.05.42-.02.85-.22 1.23-.26.45-.67.7-1.16.82-.28.07-.57.1-.86.1h-.73c-.1 0-.14.02-.13.12v2c0 .09-.03.11-.12.11h-1.14zm1.26-4.13V13c0 .06 0 .1.08.1.35-.02.7 0 1.05-.04a.77.77 0 00.7-.57c.08-.26.08-.53.01-.78a.7.7 0 00-.29-.41 1 1 0 00-.53-.17c-.31-.02-.63-.01-.94-.02-.07 0-.08.04-.08.1v.9zm6.24 3.64l-.1.1c-.23.27-.56.45-.92.49-.37.05-.74 0-1.09-.15a1.28 1.28 0 01-.74-1.28c.03-.68.43-1 .95-1.19.45-.16.92-.2 1.38-.27l.37-.05c.04-.01.08-.06.08-.09 0-.15-.03-.3-.08-.45-.09-.27-.3-.38-.57-.42a2.67 2.67 0 00-1.64.28c-.11.06-.13.05-.13-.08v-.7a.15.15 0 01.1-.15 3.54 3.54 0 012.3-.22c.76.19 1.12.7 1.18 1.47l.01.56v2.54c0 .06 0 .1-.08.1h-.85c-.06 0-.08-.01-.09-.07l-.08-.42zm-.06-1.62l-.69.11c-.2.03-.39.08-.57.14a.54.54 0 00-.4.55.54.54 0 00.42.55c.28.08.58.05.84-.08s.45-.3.4-.64c-.02-.2-.02-.41 0-.62zm1.98 3.96v-.91c0-.02.05-.06.08-.07l.36-.09a.94.94 0 00.6-.6l.12-.3a.25.25 0 000-.2l-1.27-3.22-.38-.97-.05-.13.13-.01h1.03a.11.11 0 01.12.09l.84 2.28.2.59.06.1a267.18 267.18 0 01.85-2.37l.22-.63c.01-.02.05-.06.07-.06H37l-.07.24-1.04 2.76c-.28.74-.55 1.49-.84 2.22a1.84 1.84 0 01-1.57 1.22c-.17.03-.34.04-.53.06zM7.79 10.9a4.84 4.84 0 00-.58-.2c-1.02-.23-1.97-.13-2.8.58a2.5 2.5 0 00-.92 1.96c0 .75.23 1.42.77 1.95.44.44 1.04.7 1.66.72a3 3 0 001.39-.24c.18-.09.35-.2.5-.32a.2.2 0 00.07-.15v-1.73c0-.1-.02-.12-.1-.12H6.03c-.1 0-.13-.02-.12-.12v-.29c0-.06.02-.08.08-.08h2.29c.06 0 .09.02.09.09v2.43c0 .04-.03.09-.06.12-.26.3-.59.52-.95.66-.92.34-1.84.35-2.72-.1a2.96 2.96 0 01-1.53-1.89 3.4 3.4 0 01-.1-1.31 2.9 2.9 0 011-1.87c.46-.42 1.04-.7 1.66-.81.4-.07.8-.08 1.19-.02.27.04.53.1.8.16a.13.13 0 01.12.1v.47zm7.23 4.71v.42a.15.15 0 01-.1.1c-.34.13-.72.15-1.09.07a2.34 2.34 0 01-1.5-1c-.26-.36-.4-.8-.4-1.24 0-.23-.02-.46 0-.69a2.28 2.28 0 011.1-1.82 2.35 2.35 0 013.62 2v2.67c0 .1-.02.14-.12.13h-.37v-2.81a1.87 1.87 0 00-1.73-1.86 1.9 1.9 0 00-2 1.61c-.05.47-.06.95.13 1.4a1.9 1.9 0 001.93 1.16l.42-.1.1-.04zm1.94-1.78v-.66c0-.03 0-.05.02-.07.44-.56.9-1.1 1.47-1.53a2.28 2.28 0 012.98.14 2.3 2.3 0 01.78 1.75c.02.34 0 .68-.08 1.01a2.32 2.32 0 01-1.61 1.67c-.84.26-1.6.07-2.26-.49-.23-.2-.41-.46-.51-.75a.14.14 0 01.02-.17l.27-.3c.1.2.2.39.32.58a1.84 1.84 0 002.64.34 1.86 1.86 0 00.71-1.57c.01-.25 0-.5-.05-.75a1.82 1.82 0 00-1.35-1.39c-.73-.2-1.33.06-1.86.55a13.29 13.29 0 00-1.46 1.66l-.03-.02z" />
  <path fill="#1CB35E"
    d="M7.55 13.7v1.37a.2.2 0 01-.07.13c-.2.16-.45.26-.7.3-.44.1-.89.1-1.32-.01a2.14 2.14 0 01-1.51-1.45A2.3 2.3 0 015.64 11c.68-.16 1.4-.1 2.04.2a.16.16 0 01.1.17v.44a.23.23 0 01-.05-.02c-.26-.2-.57-.32-.9-.35a2.8 2.8 0 00-1.04.03c-.76.2-1.3.65-1.44 1.44-.15.8.16 1.6.95 1.98.33.17.7.22 1.07.16.21-.03.41-.08.62-.13a.12.12 0 00.1-.14v-.5c0-.08-.02-.1-.1-.1h-.95c-.1 0-.12-.03-.12-.13v-.3c0-.03.04-.08.06-.08l1.57.01zm11.17-.09c.05.19.09.36.15.52a1.25 1.25 0 00.66.73 1 1 0 001.23-.49c.08-.14.12-.3.13-.47.02-.23.01-.46-.03-.69a1.02 1.02 0 00-1.63-.59c-.22.18-.43.38-.61.6l-1.6 1.91-.06.06v-.37a.83.83 0 01.24-.7c.48-.58.99-1.15 1.53-1.69.26-.27.6-.44.97-.5a1.42 1.42 0 011.15.38 1.49 1.49 0 01.54 1.2c-.01.26.02.53-.06.78a1.49 1.49 0 01-.95 1.04c-.75.28-1.52-.06-1.88-.8a1.3 1.3 0 01-.05-.1c-.13-.33-.13-.33.1-.6l.17-.22zm-3.7 1.09v.46a.11.11 0 01-.06.08c-.14.07-.29.12-.44.16a1.53 1.53 0 01-1.77-1.53c-.01-.24 0-.48.03-.72a1.54 1.54 0 012.94-.26c.07.17.1.36.1.56v2.7c0 .08-.02.11-.1.1h-.29c-.09.01-.11-.02-.11-.1v-2.17c0-.24 0-.48-.02-.71a.94.94 0 00-.67-.8 1 1 0 00-1.05.2 1 1 0 00-.35.79c0 .24.01.49.06.73a1.02 1.02 0 001.12.72c.2-.02.38-.09.54-.2h.07zm-2.54-3.3l-.32.35a.1.1 0 01-.09 0 1.69 1.69 0 00-.74-.18c-.84-.02-1.6.4-1.84 1.27a2.6 2.6 0 00-.1.67v2.61c0 .1-.02.14-.13.12h-.35V13.4a2.29 2.29 0 01.66-1.64 2.47 2.47 0 012.5-.55c.13.05.26.12.4.2z" />
  <path fill="#1CB35E"
    d="M10.22 16.25h-.4c-.06 0-.09-.03-.08-.09v-2.81A1.45 1.45 0 0110.76 12c.34-.11.7-.11 1.04 0 .14.04.15.06.07.19l-.07.15-.08.15a1.2 1.2 0 00-.86 0 .98.98 0 00-.64.92v2.85zm7.23-4.22V9.01h.48v2.41a.24.24 0 01-.07.18l-.31.33-.1.1zM18.3 9h.46v1.9a.15.15 0 01-.07.15l-.4.26V9z" />
</svg>
