<svg height="24" viewBox="0 0 24 24" width="24" xmlns="http://www.w3.org/2000/svg"><g fill="none" fill-rule="evenodd"><g transform="translate(12 12)"><path d="m0 0h11v11h-11z"/><path d="m5.95833333 3.20833333h-.91666666v1.83333334h-1.83333334v.91666666h1.83333334v1.83333334h.91666666v-1.83333334h1.83333334v-.91666666h-1.83333334zm-.45833333-2.29166666c-2.53 0-4.58333333 2.05333333-4.58333333 4.58333333s2.05333333 4.5833333 4.58333333 4.5833333 4.5833333-2.0533333 4.5833333-4.5833333-2.0533333-4.58333333-4.5833333-4.58333333zm0 8.25c-2.02125 0-3.66666667-1.64541667-3.66666667-3.66666667s1.64541667-3.66666667 3.66666667-3.66666667 3.66666667 1.64541667 3.66666667 3.66666667-1.64541667 3.66666667-3.66666667 3.66666667z" fill="#3ba55c" fill-rule="nonzero"/></g><path d="m0 0h24v24h-24z"/></g></svg>