<svg fill="none" height="88" width="117" xmlns="http://www.w3.org/2000/svg" xmlns:xlink="http://www.w3.org/1999/xlink"><mask id="a" height="26" maskUnits="userSpaceOnUse" width="29" x="36" y="62"><path clip-rule="evenodd" d="m36.944 62.837h27.164v25.114h-27.164z" fill="#fff" fill-rule="evenodd"/></mask><path clip-rule="evenodd" d="m69.475 23.495-44.988-16.501 7.542 14.84c1.473 2.9 3.98 5.13 7.017 6.244l35.806 13.135 1.236-3.422-6.613-14.294z" fill="#dae2ed" fill-rule="evenodd"/><path clip-rule="evenodd" d="m79.814 21.96-59.785-21.931c-.383-.14-.74.26-.56.629l2.282 4.66c.258.525.706.93 1.253 1.13l1.483.545 44.988 16.503 6.613 14.294-1.236 3.422-.927 2.566 15.067 5.527 2.163-5.988-8.793-19.003a4.53 4.53 0 0 0 -2.548-2.354z" fill="#eceff6" fill-rule="evenodd"/><path clip-rule="evenodd" d="m76.088 37.79-6.613-14.294-44.988-16.504 1.513 2.978 41.853 15.353 6.142 13.273-.734 2.032 1.591.584z" fill="#c5cedd" fill-rule="evenodd"/><path clip-rule="evenodd" d="m92.877 36.588c6.807 14.476.682 31.773-13.68 38.634-14.363 6.86-31.525.688-38.333-13.788-6.807-14.476-.682-31.772 13.68-38.634 14.363-6.86 31.525-.688 38.333 13.788z" fill="#4f5d7f" fill-rule="evenodd"/><path clip-rule="evenodd" d="m83.77 40.938c4.424 9.407.444 20.647-8.89 25.106-9.333 4.458-20.485.447-24.91-8.96-4.423-9.407-.443-20.647 8.89-25.106 9.334-4.458 20.487-.447 24.91 8.96z" fill="#7687b2" fill-rule="evenodd"/><path clip-rule="evenodd" d="m86.086 26.087c.053 4.44-11.546 15.242-19.133 21.242-6.989.053-24.374-.673-28.446-4.673-.585-.575-.657-1.017-.66-1.3a1.893 1.893 0 0 1 .074-.527c2.43-8.7 8.115-15.569 16.007-19.34 9.937-4.746 21.767-3.405 31.644 3.588.36.254.508.547.514 1.01z" fill="#ff7f14" fill-rule="evenodd"/><path clip-rule="evenodd" d="m67.454 48.774s-27.684-16.666-24.87-20.14a30.855 30.855 0 0 1 10.728-8.455c11.2-5.35 23.591-3.011 33.087 3.711 6.735 4.768-18.945 24.884-18.945 24.884z" fill="#ff903e" fill-rule="evenodd"/><path clip-rule="evenodd" d="m81.17 42.18c3.744 7.96.376 17.47-7.522 21.243-7.897 3.773-17.334.379-21.077-7.581s-.376-17.47 7.522-21.243 17.334-.379 21.078 7.581z" fill="#ebeff7" fill-rule="evenodd"/><path clip-rule="evenodd" d="m78.896 43.267c3.147 6.693.315 14.691-6.326 17.863-6.641 3.173-14.577.319-17.724-6.375-3.148-6.693-.316-14.691 6.325-17.863 6.641-3.173 14.577-.319 17.725 6.375z" fill="#dae2ed" fill-rule="evenodd"/><path clip-rule="evenodd" d="m58.926 43.316 7.233-4.328c.442-.264.99-.27 1.439-.017l7.334 4.15c.449.253.729.728.735 1.246l.102 8.477c.006.518-.263 1-.705 1.265l-7.232 4.327a1.43 1.43 0 0 1 -1.44.018l-7.334-4.15a1.452 1.452 0 0 1 -.734-1.247l-.102-8.477c-.007-.518.262-1 .704-1.264z" fill="#c5cedd" fill-rule="evenodd"/><path clip-rule="evenodd" d="m71.038 47.02c1.09 2.32.11 5.092-2.192 6.191-2.302 1.1-5.052.11-6.143-2.21-1.09-2.319-.11-5.09 2.192-6.19s5.052-.11 6.143 2.21z" fill="#b7c2ce" fill-rule="evenodd"/><path clip-rule="evenodd" d="m102.798 76.343h-2.499c-.642 0-1.162.524-1.162 1.171v5.273c0 1.45-1.177 2.637-2.616 2.637s-2.616-1.187-2.616-2.637v-22.579.416c0-1.617 1.301-2.93 2.907-2.93h8.892c1.606 0 2.907 1.313 2.907 2.93v9.86c0 3.236-2.603 5.859-5.813 5.859zm6.047-28.003h-5.053c-.003 1.858-.009 3.718-.019 5.577h4.981c-.041-1.86-.04-3.738.091-5.578z" fill="#80a7ff" fill-rule="evenodd"/><path clip-rule="evenodd" d="m107.03 60.436h-21.227a.453.453 0 0 1 -.452-.455c0-.252.202-.455.452-.455h21.227a.454.454 0 0 0 .452-.456v-3.423c0-.252.202-.456.452-.456.249 0 .451.204.451.456v3.423c0 .753-.608 1.366-1.355 1.366z" fill="#e4e9f7" fill-rule="evenodd"/><path clip-rule="evenodd" d="m109.514 57.705h-3.161a.453.453 0 0 1 -.452-.455v-9.787c0-.252.202-.455.452-.455h3.161c.25 0 .452.203.452.455v9.787a.453.453 0 0 1 -.452.455z" fill="#000" fill-rule="evenodd"/><path clip-rule="evenodd" d="m108.798 48.34h1.833c.25 0 .452.204.451.456-.008 1.556-.013 3.111-.015 4.666a.454.454 0 0 1 -.452.455h-1.73c-1.364 0-2.588-.958-2.814-2.314-.29-1.741 1.051-3.264 2.727-3.264z" fill="#80a7ff" fill-rule="evenodd"/><path clip-rule="evenodd" d="m99.126 57.705h-3.161a.453.453 0 0 1 -.452-.455v-9.787c0-.252.202-.455.452-.455h3.161c.25 0 .452.203.452.455v9.787a.453.453 0 0 1 -.452.455z" fill="#000" fill-rule="evenodd"/><path d="m97.546 55.647v3.423c0 .503-.405.91-.904.91h-21.227" stroke="#2f3849" stroke-width="8"/><g clip-rule="evenodd" fill-rule="evenodd"><path d="m106.143 50.486c-2.322-3.183-6.061-5.258-10.258-5.258h-17.175c-4.2 0-7.636 3.463-7.636 7.696v14.134c0 2.833 2.28 5.13 5.09 5.13h24.812c4.2 0 7.636-3.463 7.636-7.696v-6.438a12.81 12.81 0 0 0 -2.468-7.568z" fill="#9cb8ff"/><path d="m83.854 45.228h-5.144c-4.2 0-7.636 3.463-7.636 7.696v12.313c0 2.833 2.28 5.13 5.09 5.13h7.768c-.13-8.372-.125-16.757-.077-25.139zm-16.331 18.298-5.371 1.58a3.855 3.855 0 0 0 -2.748 3.414c-.178 2.36 1.77 4.324 4.111 4.144a3.84 3.84 0 0 0 3.388-2.77l1.567-5.413a.767.767 0 0 0 -.947-.954z" fill="#80a7ff"/><path d="m79.99 76.343h-2.5c-.642 0-1.162.524-1.162 1.171v5.273c0 1.45-1.178 2.637-2.616 2.637-1.44 0-2.616-1.187-2.616-2.637v-26.72.416c0-1.618 1.301-2.93 2.906-2.93h8.893c1.605 0 2.906 1.312 2.906 2.93v14c0 3.237-2.602 5.86-5.813 5.86z" fill="#80a7ff"/><path d="m96.642 60.436h-21.227a.453.453 0 0 1 -.452-.455c0-.252.202-.455.452-.455h21.227a.454.454 0 0 0 .452-.456v-3.423c0-.252.202-.456.452-.456.249 0 .451.204.451.456v3.423c0 .753-.608 1.366-1.355 1.366z" fill="#e4e9f7"/><path d="m99.126 57.705h-3.161a.453.453 0 0 1 -.452-.455v-9.787c0-.252.202-.455.452-.455h3.161c.25 0 .452.203.452.455v9.787a.453.453 0 0 1 -.452.455z" fill="#000"/><path d="m99.284 48.34h-10.344c-1.704 0-3.086-1.394-3.086-3.112h-6.507v13.575h6.458c.598-3.422 3.555-4.886 7.121-4.886h6.273c1.364 0 2.588-.958 2.814-2.314.29-1.741-1.051-3.264-2.728-3.264z" fill="#80a7ff"/><path d="m75.45 45.387h23.644c4.217 0 7.667-3.477 7.667-7.727v-14.299c0-4.25-3.45-7.727-7.667-7.727h-23.644c-4.217 0-7.667 3.477-7.667 7.727v14.3c0 4.25 3.45 7.726 7.667 7.726z" fill="#80a7ff"/><path d="m80.43 45.387h23.644c4.216 0 7.667-3.477 7.667-7.727v-14.299c0-4.25-3.451-7.727-7.667-7.727h-23.644c-4.217 0-7.667 3.477-7.667 7.727v14.3c0 4.25 3.45 7.726 7.667 7.726z" fill="#9cb8ff"/><path d="m70.084 35.899h5.643v-13.91h-5.643c-2.823 0-5.111 2.307-5.111 5.152v3.606c0 2.846 2.288 5.152 5.111 5.152z" fill="#9cb8ff"/><path d="m75.727 32.808v-7.727a.513.513 0 0 0 -.511-.515h-5.132a2.566 2.566 0 0 0 -2.555 2.575v3.606a2.566 2.566 0 0 0 2.555 2.576h5.132c.282 0 .51-.23.51-.515z" fill="#80a7ff"/><path d="m84.618 31.385c1.388 0 2.523-1.145 2.523-2.543 0-1.399-1.135-2.543-2.523-2.543s-2.523 1.144-2.523 2.543c0 1.398 1.135 2.543 2.523 2.543z" fill="#000"/><path d="m111.951 23.361h-17.379c-1.686 0-3.066 1.391-3.066 3.091v3.606c0 4.25 3.45 7.727 7.667 7.727h8.178c4.217 0 7.667-3.477 7.667-7.727v-3.606c0-1.7-1.38-3.09-3.067-3.09z" fill="#b8d0ff"/><path d="m102.751 37.785h4.6c4.217 0 7.667-3.477 7.667-7.727v-3.606c0-1.7-1.38-3.09-3.067-3.09h-13.8c-1.687 0-3.067 1.39-3.067 3.09v3.606c0 4.25 3.45 7.727 7.667 7.727z" fill="#cbdaf7"/><path d="m104.814 31.955h-3.323c-.703 0-1.278.58-1.278 1.288 0 .709.575 1.288 1.278 1.288h3.323c.702 0 1.277-.58 1.277-1.288s-.575-1.288-1.277-1.288zm6.005 0h-.766.255-.767c-.702 0-1.277.58-1.277 1.288 0 .709.575 1.288 1.277 1.288h.767-.255.766c.703 0 1.278-.58 1.278-1.288s-.575-1.288-1.278-1.288z" fill="#9cb8ff"/><path d="m103.411 40.847h2.045c.469 0 .85-.384.85-.857a.854.854 0 0 0 -.85-.857h-2.045a.854.854 0 0 0 -.85.857c0 .473.381.857.85.857z" fill="#80a7ff"/><path d="m113.313 18.751s7.363 11.072-.554 23.848l-4.495 2.63-28.918-1.256-7.03-9.442 7.03-18.91 24.728.013z" fill="#4871e5" fill-opacity=".4"/><path d="m90.247 8.32c-16.845 0-26.15 11.444-26.15 20.944s11.044 10.314 13.636 3.638l5.462-14.542 24.061 3.141 6.057-2.75c-2.26-3.705-10.571-10.43-23.066-10.43z" fill="#ebeff7"/><path d="m75.925 34.531 15.23 8.068h21.604l-2.107 3.528h-35.202l-3.046-7.004 3.52-4.592z" fill="#ebeff7"/><path d="m72.404 23.417-4.52 1.443-1.987-8.06a1.87 1.87 0 0 1 1.239-2.23 1.849 1.849 0 0 1 2.287 1.104z" fill="#dae2ed"/><path d="m66.603 19.664 1.28 5.196 4.521-1.443-1.922-4.992c-1.292.415-2.585.83-3.879 1.24zm8.476 41.899-17.595 4.067-1.532-6.727 17.595-4.067z" fill="#b7c2ce"/><path d="m60.434 66.806-22.107 7.621a1.34 1.34 0 0 1 -1.242-.192c-.933-.7-2.644-2.49-3.578-6.592-.934-4.103-.168-6.465.368-7.506a1.348 1.348 0 0 1 1.034-.718l23.19-2.87a.904.904 0 0 1 .99.7l1.933 8.492a.912.912 0 0 1 -.588 1.065z" fill="#c5cedd"/><path d="m54.317 60.452a1.088 1.088 0 0 1 -.81 1.303 1.079 1.079 0 0 1 -1.293-.817 1.088 1.088 0 0 1 .81-1.303c.581-.134 1.16.231 1.293.817zm-5.1.718a1.088 1.088 0 0 1 -.81 1.304 1.079 1.079 0 0 1 -1.293-.817 1.088 1.088 0 0 1 .81-1.303c.581-.134 1.16.232 1.293.817z" fill="#b7c2ce"/><path d="m74.84 60.405-14.178 11.07-4.195-5.456 14.178-11.07z" fill="#d0d9ea"/></g><g mask="url(#a)"><path clip-rule="evenodd" d="m63.83 71.292-16.883 16.279a1.34 1.34 0 0 1 -1.208.352c-1.138-.241-3.437-1.14-5.995-4.467s-2.848-5.796-2.795-6.966a1.36 1.36 0 0 1 .639-1.09l19.846-12.426a.899.899 0 0 1 1.19.216l5.295 6.886a.916.916 0 0 1 -.09 1.216z" fill="#ebeff7" fill-rule="evenodd"/></g><path clip-rule="evenodd" d="m55.63 68.117c.365.475.279 1.158-.192 1.525a1.073 1.073 0 0 1 -1.514-.193 1.093 1.093 0 0 1 .192-1.526 1.074 1.074 0 0 1 1.514.194zm-4.071 3.376c.365.475.279 1.158-.192 1.526a1.074 1.074 0 0 1 -1.514-.194 1.093 1.093 0 0 1 .192-1.526 1.073 1.073 0 0 1 1.514.194z" fill="#b7c2ce" fill-rule="evenodd"/><path clip-rule="evenodd" d="m79.158 32.041c-.64 5.241-4.71 9.05-9.088 8.506-4.38-.544-7.41-5.233-6.77-10.474.641-5.24 4.71-9.049 9.089-8.505 4.379.543 7.41 5.233 6.769 10.473z" fill="#dae2ed" fill-rule="evenodd"/><path clip-rule="evenodd" d="m75.864 31.756c-.455 3.724-3.346 6.43-6.457 6.044-3.112-.387-5.265-3.718-4.81-7.442s3.346-6.43 6.458-6.043c3.11.386 5.264 3.718 4.81 7.441z" fill="#b7c2ce" fill-rule="evenodd"/><path clip-rule="evenodd" d="m74.07 31.558c-.326 2.667-2.397 4.604-4.625 4.328-2.228-.277-3.77-2.663-3.444-5.33.325-2.666 2.396-4.604 4.624-4.327 2.228.276 3.77 2.662 3.444 5.33z" fill="#ff903e" fill-rule="evenodd"/><path clip-rule="evenodd" d="m69.13 33.494-.518-.214a.283.283 0 0 1 -.153-.368l1.801-4.442a.28.28 0 0 1 .365-.155l.519.214a.283.283 0 0 1 .153.368l-1.8 4.442a.28.28 0 0 1 -.366.155z" fill="#ff7f14" fill-rule="evenodd"/><path clip-rule="evenodd" d="m75.126 64.807h-5.836v-19.579h8.095v17.303a2.267 2.267 0 0 1 -2.259 2.276z" fill="#000" fill-rule="evenodd"/><path clip-rule="evenodd" d="m50.053 23.495-44.987-16.501 7.541 14.84c1.474 2.9 3.98 5.13 7.018 6.244l35.805 13.134 1.236-3.422-6.614-14.294z" fill="#dae2ed" fill-rule="evenodd"/><path clip-rule="evenodd" d="m60.393 21.96-59.785-21.931c-.383-.14-.74.26-.56.629l2.282 4.66c.258.525.706.93 1.253 1.13l1.483.545 44.987 16.503 6.614 14.294-1.236 3.422-.927 2.566 15.067 5.527 2.163-5.988-8.793-19.003a4.53 4.53 0 0 0 -2.548-2.354z" fill="#eceff6" fill-rule="evenodd"/><path clip-rule="evenodd" d="m56.667 37.79-6.614-14.294-44.987-16.504 1.513 2.978 41.853 15.353 6.142 13.273-.734 2.032 1.591.584z" fill="#c5cedd" fill-rule="evenodd"/><path clip-rule="evenodd" d="m4.758 5.184a.915.915 0 0 1 -.54-1.167.904.904 0 0 1 1.157-.544c.467.171.71.696.54 1.167a.904.904 0 0 1 -1.157.544zm3.607 1.323a.915.915 0 0 1 -.54-1.166.904.904 0 0 1 1.158-.544c.467.17.71.696.54 1.166a.904.904 0 0 1 -1.158.544zm51.354 18.839a.915.915 0 0 1 -.54-1.167.904.904 0 0 1 1.158-.544c.467.17.71.696.54 1.167a.904.904 0 0 1 -1.158.544z" fill="#dae2ed" fill-rule="evenodd"/><path clip-rule="evenodd" d="m74.033 49.437h-9.353c-.795 0-1.44-.649-1.44-1.45v-5.076c0-.8.645-1.45 1.44-1.45h9.353c.795 0 1.439.65 1.439 1.45v5.076c0 .801-.644 1.45-1.439 1.45z" fill="#ff5c5c" fill-rule="evenodd"/><path clip-rule="evenodd" d="m77.435 51.975h-7.357c-1.996 0-3.613-1.63-3.613-3.641v-5.77c0-2.01 1.617-3.641 3.613-3.641h7.357a1.36 1.36 0 0 1 1.355 1.365v10.322a1.36 1.36 0 0 1 -1.355 1.365z" fill="#d0d9ea" fill-rule="evenodd"/><path clip-rule="evenodd" d="m98.276 6.926-.405 2.766a30.024 30.024 0 0 1 5.937 6.408l2.482-5.766c-2.011-1.452-4.758-2.316-8.014-3.408z" fill="#ff7f14" fill-rule="evenodd"/><path clip-rule="evenodd" d="m103.808 16.1 2.482-5.767 2.154 5.767z" fill="#ff903e" fill-rule="evenodd"/></svg>