<svg xmlns="http://www.w3.org/2000/svg" width="195" height="84" viewBox="0 0 195 84">
  <g fill="none" fill-rule="evenodd">
    <path fill="#72767D" d="M13.708,78.2421 C13.332,79.0541 13.314,79.9901 13.66,80.8141 L13.76,80.9731 C13.774,80.9951 13.787,81.0191 13.797,81.0431 C14.163,81.8891 14.877,82.5341 15.756,82.8121 C16.088,82.9181 16.431,82.9671 16.772,82.9611 C16.798,78.9941 15.075,77.6451 14.407,77.2771 C14.119,77.5501 13.878,77.8751 13.708,78.2421"/>
    <path fill="#4F545C" d="M61.3008,68.1156 L60.4628,66.6626 C60.2038,66.6176 59.9468,66.5616 59.6938,66.4886 C59.6968,66.5206 59.7028,66.5516 59.7048,66.5836 L59.8838,69.3866 C60.4808,69.3126 61.0858,69.2816 61.6938,69.2796 C61.6388,68.8746 61.5098,68.4786 61.3008,68.1156"/>
    <path fill="#72767D" d="M60.0229,71.5482 L60.0839,72.4922 C60.7689,72.1132 61.2949,71.4932 61.5539,70.7442 C61.7169,70.2682 61.7599,69.7672 61.6939,69.2792 C61.0859,69.2812 60.4809,69.3122 59.8839,69.3872 L59.8869,69.4282 C59.9049,69.7152 59.6889,69.9622 59.4019,69.9802 L59.4719,71.0632 C59.7539,71.0472 60.0039,71.2622 60.0229,71.5482"/>
    <path fill="#4F545C" d="M58.3696 80.3334C57.9356 80.7954 57.4476 81.1834 56.9246 81.5064L60.8996 81.5064C62.0126 81.5064 62.9186 80.6004 62.9186 79.4864 62.9186 78.3734 62.0126 77.4664 60.8996 77.4664L59.9926 77.4664C59.6926 78.5234 59.1486 79.5024 58.3696 80.3334M34.3965 70.4135C34.5195 70.4005 34.6445 70.3935 34.7705 70.3935L35.5265 70.3935C37.1615 70.3935 38.6535 70.9995 39.8025 71.9935L40.0845 70.1585C40.0185 70.1625 39.9535 70.1675 39.8865 70.1675 38.2975 70.1675 37.0075 68.8775 37.0075 67.2905L37.0075 65.8335C37.0075 64.2465 38.2975 62.9565 39.8845 62.9565 40.1715 62.9565 40.4045 63.1885 40.4045 63.4755 40.4045 63.7625 40.1725 63.9945 39.8865 63.9945 38.8705 63.9945 38.0455 64.8195 38.0455 65.8335L38.0455 66.1685C38.4785 65.6245 39.1405 65.2715 39.8845 65.2715L39.8865 65.2715C40.8915 65.2715 41.7445 65.9135 42.0815 66.8045 42.1335 66.7875 42.1865 66.7715 42.2445 66.7715L42.2445 65.7785C42.2445 65.0005 41.8585 64.3125 41.2725 63.8825 41.4525 63.4175 41.6635 62.9705 41.9115 62.5465L41.6705 62.3905C40.6075 61.7015 39.6565 60.8845 38.8265 59.9665 36.8745 61.2865 35.4785 63.3805 35.0945 65.8795L34.3965 70.4135zM37.0009 81.5063L39.6409 81.5063 44.2439 81.5063C44.8319 81.5063 45.3909 81.2473 45.7769 80.7963 46.1679 80.3403 46.3319 79.7613 46.2379 79.1643 46.0869 78.1963 45.1969 77.4663 44.1669 77.4663L41.5609 77.4663C41.2739 77.4663 41.0419 77.2343 41.0419 76.9473 41.0419 73.9063 38.5679 71.4323 35.5269 71.4323L34.7709 71.4323C33.3549 71.4323 32.2029 72.5843 32.2029 74.0003L32.2029 76.7083C32.2029 79.3543 34.3549 81.5063 37.0009 81.5063M67.7729 50.0141C68.1929 51.9851 68.1979 53.9751 67.8129 55.8861L68.5659 56.3741C68.6429 56.2201 68.7159 56.0631 68.7789 55.8991L68.8919 55.6121C69.4399 54.2041 69.4079 52.6681 68.8009 51.2851 68.5259 50.6581 68.1429 50.1001 67.6799 49.6231 67.7109 49.7531 67.7449 49.8821 67.7729 50.0141M54.5493 38.4633C54.5183 38.2923 54.5253 38.1643 54.5413 38.0843 54.5513 38.0343 54.5723 37.9873 54.5963 37.9423 52.9973 37.2833 51.2953 36.9393 49.5623 36.9393 49.1903 36.9393 48.8173 36.9593 48.4443 36.9903 48.4643 37.0103 48.4873 37.0263 48.5073 37.0473L49.9953 38.5153C51.4913 38.2513 53.0303 38.2303 54.5493 38.4633M41.9697 61.3378C38.5117 57.3868 37.5437 51.7118 39.5957 46.8068 39.4977 46.8948 39.3767 46.9428 39.2527 46.9428 39.1207 46.9428 38.9897 46.8938 38.8877 46.7938 38.2367 46.1498 37.7457 45.4048 37.4137 44.6088 36.1767 47.2328 35.8307 50.1818 36.4497 53.0858 37.1747 56.4838 39.1317 59.3998 41.9697 61.3378"/>
    <path fill="#72767D" d="M49.0659 48.7626C49.2509 48.4776 49.6349 48.3956 49.9199 48.5806 50.2049 48.7646 50.2869 49.1496 50.1019 49.4336 49.9179 49.7196 49.5329 49.8016 49.2479 49.6166 48.9629 49.4316 48.8809 49.0476 49.0659 48.7626M50.6199 49.7696C50.8049 49.4856 51.1889 49.4036 51.4739 49.5876 51.7589 49.7726 51.8409 50.1576 51.6559 50.4416 51.4709 50.7266 51.0869 50.8086 50.8019 50.6236 50.5169 50.4396 50.4349 50.0546 50.6199 49.7696M48.0899 50.0866C48.2079 50.6376 48.5299 51.1076 48.9989 51.4106L49.2649 51.5836C49.7329 51.8876 50.2939 51.9896 50.8449 51.8726 51.3959 51.7556 51.8659 51.4326 52.1699 50.9646L52.3429 50.6976C52.6469 50.2296 52.7489 49.6686 52.6319 49.1176 52.5139 48.5676 52.1909 48.0966 51.7239 47.7936L51.4569 47.6196C51.1049 47.3916 50.7089 47.2826 50.3179 47.2826 49.6289 47.2826 48.9539 47.6206 48.5519 48.2396L48.3789 48.5066C48.0749 48.9746 47.9729 49.5356 48.0899 50.0866M65.0542 40.765L67.0492 37.416 64.7972 38.329C64.5692 38.421 64.3172 38.402 64.1052 38.276 63.8932 38.15 63.7562 37.938 63.7292 37.693L63.3642 34.423 60.3152 35.66C60.0872 35.751 59.8352 35.733 59.6232 35.607 59.4112 35.481 59.2742 35.268 59.2472 35.023L58.9772 32.607 55.5812 38.309C55.6602 38.594 56.1472 39.672 59.1542 41.463 62.1612 43.254 63.3592 43.18 63.6552 43.113L64.1282 42.32C64.2742 42.074 64.5932 41.993 64.8392 42.14L64.8402 42.14 65.2352 41.476C64.9882 41.33 64.9082 41.011 65.0542 40.765M39.8847 69.1298C40.9007 69.1298 41.7247 68.3048 41.7247 67.2908 41.7247 67.0618 41.8757 66.8738 42.0817 66.8048 41.7447 65.9138 40.8907 65.2718 39.8857 65.2718L39.8847 65.2718C39.1397 65.2718 38.4777 65.6248 38.0457 66.1688L38.0457 67.2908C38.0457 68.3048 38.8707 69.1298 39.8847 69.1298"/>
    <path fill="#4F545C" d="M142.5971 9.3881C142.5661 9.3571 142.5251 9.3411 142.4831 9.3411 142.4421 9.3411 142.4011 9.3571 142.3691 9.3881L140.2711 11.4861C140.2091 11.5491 140.2091 11.6511 140.2711 11.7141L142.3691 13.8121C142.4321 13.8751 142.5351 13.8751 142.5971 13.8121L144.6951 11.7141C144.7341 11.6751 144.7431 11.6301 144.7431 11.6001 144.7431 11.5701 144.7341 11.5251 144.6961 11.4871L142.5971 9.3881zM154.9443 9.3881C154.9033 9.3471 154.8553 9.3411 154.8303 9.3411 154.8003 9.3411 154.7563 9.3491 154.7163 9.3881L152.6183 11.4861C152.5793 11.5251 152.5713 11.5701 152.5713 11.6001 152.5713 11.6301 152.5793 11.6751 152.6183 11.7141L154.7163 13.8121C154.7873 13.8831 154.8533 13.9031 154.9443 13.8121L157.0423 11.7141C157.0813 11.6751 157.0893 11.6301 157.0893 11.6001 157.0893 11.5701 157.0813 11.5251 157.0423 11.4871L154.9443 9.3881zM130.0229 13.8119C130.0939 13.8829 130.1589 13.9029 130.2509 13.8119L132.3489 11.7139C132.3869 11.6749 132.3959 11.6299 132.3959 11.5999 132.3959 11.5699 132.3869 11.5249 132.3489 11.4869L130.2509 9.3879C130.2099 9.3469 130.1619 9.3409 130.1369 9.3409 130.1059 9.3409 130.0619 9.3499 130.0229 9.3879L127.9249 11.4859C127.8859 11.5249 127.8769 11.5699 127.8769 11.5999 127.8769 11.6299 127.8859 11.6749 127.9239 11.7139L130.0229 13.8119zM160.1274 51.2733L160.9334 51.2733 162.2834 51.2733C167.1494 51.2733 171.1074 47.3153 171.1074 42.4483L171.1074 41.7563 166.4364 41.7563 166.4364 42.4483C166.4364 46.5253 163.7864 50.0053 160.1274 51.2733M165.9004 23.9003L170.5424 23.9003C169.2884 20.5503 166.0654 18.1553 162.2834 18.1553L160.1284 18.1553C162.8174 19.0883 164.9544 21.2163 165.9004 23.9003"/>
    <path fill="#72767D" d="M140.5088,51.2733 L140.9098,50.2803 C141.0628,49.8993 141.3508,49.6013 141.7178,49.4243 C141.6308,49.2683 141.5488,49.1073 141.4768,48.9393 C140.9708,47.7493 140.9598,46.4343 141.4438,45.2353 C141.7858,44.3863 142.3588,43.6563 143.0978,43.1233 C143.3308,42.9563 143.6548,43.0083 143.8218,43.2413 C143.8288,43.2503 143.8298,43.2613 143.8358,43.2713 C144.2458,43.0443 144.6908,42.8863 145.1528,42.8013 C145.1518,42.7893 145.1448,42.7793 145.1438,42.7673 C145.1258,42.4813 145.3428,42.2343 145.6288,42.2163 C146.2688,42.1773 146.8948,42.2693 147.4988,42.4773 C147.5028,42.2583 147.5428,42.0413 147.6268,41.8333 C147.6318,41.8193 147.6378,41.8073 147.6438,41.7943 C147.8078,41.3843 148.1518,41.0333 148.5958,40.8453 C148.9098,40.7113 149.2478,40.6753 149.5768,40.7263 C149.7508,40.3043 150.0488,39.9563 150.4188,39.7483 C150.8248,39.5203 151.2868,39.4813 151.6848,39.6423 L151.8418,39.7063 C152.2398,39.8663 152.5458,40.2143 152.6788,40.6603 C152.8008,41.0673 152.7738,41.5243 152.6058,41.9493 C153.2748,42.4213 153.5618,43.3063 153.2418,44.0983 C153.1578,44.3063 153.0358,44.4913 152.8868,44.6503 C155.1998,45.7303 156.2958,48.4473 155.3288,50.8413 C155.2678,50.9933 155.1898,51.1313 155.1148,51.2733 L158.6028,51.2733 L160.1278,51.2733 C163.7868,50.0053 166.4358,46.5253 166.4358,42.4483 L166.4358,41.7563 L164.0228,41.7563 C163.7368,41.7563 163.5038,41.5243 163.5038,41.2373 C163.5038,40.9513 163.7368,40.7183 164.0228,40.7183 L171.6018,40.7183 C173.8918,40.7183 175.7548,38.8553 175.7548,36.5653 L175.7548,29.0913 C175.7548,26.8013 173.8918,24.9383 171.6018,24.9383 L164.0228,24.9383 C163.7368,24.9383 163.5038,24.7063 163.5038,24.4193 C163.5038,24.1323 163.7368,23.9003 164.0228,23.9003 L165.9008,23.9003 C164.9548,21.2163 162.8178,19.0883 160.1278,18.1553 L128.7028,18.1553 C123.9068,18.1553 120.0008,22.0023 119.8888,26.7723 L128.6778,26.7723 C128.9648,26.7723 129.1968,27.0043 129.1968,27.2913 L134.1568,27.2913 C134.1568,27.0043 134.3888,26.7723 134.6758,26.7723 L140.2818,26.7723 C142.6288,26.7723 144.5388,28.6823 144.5388,31.0293 L144.5388,35.0773 C144.5388,40.5163 140.1138,44.9403 134.6758,44.9403 L124.7098,44.9403 C122.9978,44.9403 121.3868,44.5003 119.9828,43.7303 C120.6068,47.9893 124.2738,51.2733 128.7028,51.2733 L136.9048,51.2733 L140.5088,51.2733 Z"/>
    <path fill="#72767D" d="M139.6591,31.0287 L139.6591,35.0777 C139.6591,39.1537 137.0091,42.6337 133.3501,43.9027 L134.6761,43.9027 C139.5421,43.9027 143.5001,39.9437 143.5001,35.0777 L143.5001,31.0287 C143.5001,29.2547 142.0561,27.8107 140.2821,27.8107 L137.8081,27.8107 C138.9121,28.4617 139.6591,29.6607 139.6591,31.0287"/>
    <path fill="#4F545C" d="M169.5254,38.642 C170.9584,38.642 172.1204,37.48 172.1204,36.047 L172.1204,29.61 C172.1204,28.177 170.9584,27.015 169.5254,27.015 L166.0994,27.015 C165.5254,27.015 165.0614,27.479 165.0614,28.053 L165.0614,37.604 C165.0614,38.177 165.5254,38.642 166.0994,38.642 L169.5254,38.642 Z"/>
    <path fill="#B9BBBE" d="M132.8628,38.6147 C132.8628,39.4537 132.1758,40.1397 131.3378,40.1397 L128.2868,40.1397 C127.4468,40.1397 126.7608,39.4537 126.7608,38.6147 C126.7608,37.7757 127.4468,37.0887 128.2868,37.0887 L131.3378,37.0887 C132.1758,37.0887 132.8628,37.7757 132.8628,38.6147 M119.4558,38.6147 C119.4558,37.7757 120.1428,37.0887 120.9818,37.0887 L122.8118,37.0887 C123.6508,37.0887 124.3378,37.7757 124.3378,38.6147 C124.3378,39.4537 123.6508,40.1397 122.8118,40.1397 L120.9818,40.1397 C120.1428,40.1397 119.4558,39.4537 119.4558,38.6147 M128.6778,27.8107 L119.1038,27.8107 C117.3288,27.8107 115.8848,29.2547 115.8848,31.0297 L115.8848,35.0777 C115.8848,39.9437 119.8428,43.9027 124.7098,43.9027 L133.3508,43.9027 C137.0088,42.6337 139.6588,39.1547 139.6588,35.0777 L139.6588,31.0287 C139.6588,29.6607 138.9118,28.4617 137.8078,27.8107 L134.6758,27.8107 C134.3888,27.8107 134.1568,27.5777 134.1568,27.2917 L129.1968,27.2917 C129.1968,27.5777 128.9648,27.8107 128.6778,27.8107"/>
    <path fill="#4F545C" d="M128.2866 37.0888C127.4476 37.0888 126.7606 37.7758 126.7606 38.6148 126.7606 39.4538 127.4476 40.1398 128.2866 40.1398L131.3376 40.1398C132.1766 40.1398 132.8626 39.4538 132.8626 38.6148 132.8626 37.7758 132.1766 37.0888 131.3376 37.0888L128.2866 37.0888zM120.9814 40.14L122.8124 40.14C123.6504 40.14 124.3374 39.453 124.3374 38.615 124.3374 37.775 123.6504 37.089 122.8124 37.089L120.9814 37.089C120.1424 37.089 119.4564 37.775 119.4564 38.615 119.4564 39.453 120.1424 40.14 120.9814 40.14M120.813 72.9711L120.813 68.1131C119.182 69.1191 118.089 70.9181 118.089 72.9711L118.089 75.4631C118.089 76.4361 117.297 77.2271 116.324 77.2271L110.718 77.2271C109.459 77.2271 108.434 78.2521 108.434 79.5121 108.434 80.7711 109.459 81.7951 110.718 81.7951L126.297 81.7951C123.053 80.1791 120.813 76.8351 120.813 72.9711M123.083 59.1635L117.881 59.1635C116.622 59.1635 115.597 60.1875 115.597 61.4475 115.597 62.7065 116.622 63.7315 117.881 63.7315L121.232 63.7315C121.605 62.1275 122.228 60.5925 123.083 59.1635"/>
    <path fill="#72767D" d="M132.2007 79.3666C132.3007 79.1206 132.4287 78.8956 132.5757 78.6886L132.4527 78.6386C132.0487 78.4756 131.7317 78.1636 131.5607 77.7626 131.3907 77.3606 131.3867 76.9166 131.5497 76.5116L131.6537 76.2536C131.8177 75.8486 132.1287 75.5316 132.5307 75.3616 132.9317 75.1906 133.3757 75.1866 133.7817 75.3496L134.8507 75.7816 139.1707 65.0806C138.2067 65.0766 137.2927 64.6526 136.6607 63.9146 136.0287 63.1766 135.7527 62.1996 135.9027 61.2356 136.1517 59.6396 137.5987 58.4366 139.2687 58.4366L141.8527 58.4366 143.5227 54.2996 141.3957 53.4406C141.0277 53.2926 140.7377 53.0166 140.5587 52.6656L140.4997 52.6416 140.5187 52.5936C140.5147 52.5836 140.5077 52.5746 140.5037 52.5646 140.4687 52.4826 140.4447 52.3966 140.4237 52.3116L136.9047 52.3116C132.1477 52.3116 127.6127 54.6186 124.7707 58.4826 122.8607 61.0806 121.8507 64.1526 121.8507 67.3656L121.8507 72.9706C121.8507 77.8366 125.8097 81.7956 130.6757 81.7956L132.1857 81.7956C131.8817 81.0096 131.8837 80.1516 132.2007 79.3666M148.3203 57.7035C148.3203 57.2215 148.3793 56.7535 148.4803 56.3015L147.5873 55.9405 146.5793 58.4365 146.8203 58.4365 147.5933 58.4365C147.9933 58.4365 148.3203 58.1075 148.3203 57.7035M142.2832 67.6928C142.5492 67.7998 142.6782 68.1028 142.5702 68.3688L139.4122 76.1898 146.2512 76.1898C146.6522 76.1898 146.9782 75.8638 146.9782 75.4628L146.9782 72.9708C146.9782 69.2498 150.0052 66.2228 153.7262 66.2228L154.9172 66.2228C155.2322 66.2228 155.4882 65.9668 155.4882 65.6518 155.4882 65.3368 155.2322 65.0808 154.9172 65.0808L146.8212 65.0808 143.3372 65.0808 142.2832 67.6928zM175.8784 65.3461L173.9614 71.9191C173.8994 72.1321 174.0144 72.2771 174.0664 72.3291 174.1184 72.3811 174.2644 72.4971 174.4764 72.4341L181.0494 70.5161C182.7074 70.0331 183.9094 68.5521 184.0404 66.8301 184.1324 65.6161 183.6914 64.4261 182.8314 63.5641 182.0454 62.7791 180.9854 62.3431 179.8834 62.3431 179.7774 62.3431 179.6714 62.3471 179.5654 62.3551 177.8434 62.4861 176.3624 63.6881 175.8784 65.3461"/>
    <path fill="#4F545C" d="M161.9282 81.7953C162.3032 81.7953 162.6682 81.7143 163.0132 81.5553 163.0422 81.5423 163.0712 81.5313 163.1022 81.5233 167.0212 80.5233 169.7582 77.0063 169.7582 72.9713L169.7582 61.1363C169.7582 56.2703 165.8002 52.3113 160.9332 52.3113L158.6022 52.3113 154.7572 52.3113C154.6232 52.3113 154.4922 52.3213 154.3622 52.3313 153.7712 52.9593 153.0342 53.4213 152.2222 53.6643 152.3642 54.0473 152.3652 54.4623 152.2112 54.8423L151.7932 55.8773C151.5362 56.5123 150.9232 56.8993 150.2762 56.8993 150.0732 56.8993 149.8662 56.8603 149.6662 56.7803L149.4572 56.6953C149.3952 57.0233 149.3592 57.3593 149.3582 57.7043 149.3572 58.6803 148.5652 59.4743 147.5932 59.4743L146.8212 59.4743 139.2692 59.4743C138.1052 59.4743 137.0992 60.3003 136.9282 61.3953 136.8232 62.0693 137.0082 62.7243 137.4492 63.2393 137.8862 63.7503 138.5192 64.0433 139.1842 64.0433L146.8212 64.0433 154.9172 64.0433C155.8042 64.0433 156.5262 64.7643 156.5262 65.6513 156.5262 66.5393 155.8042 67.2613 154.9172 67.2613L153.7262 67.2613C150.5782 67.2613 148.0162 69.8223 148.0162 72.9713L148.0162 75.4623C148.0162 76.4363 147.2242 77.2273 146.2512 77.2273L138.9932 77.2273 138.9152 77.4223 139.9842 77.8543C140.8192 78.1913 141.2242 79.1463 140.8872 79.9813L140.7832 80.2393C140.5262 80.8753 139.9122 81.2623 139.2652 81.2623 139.0622 81.2623 138.8562 81.2233 138.6572 81.1433L138.6562 81.1433 138.5342 81.0933C138.4992 81.3273 138.4392 81.5583 138.3532 81.7843 138.3912 81.7863 138.4272 81.7953 138.4652 81.7953L158.6022 81.7953 161.9282 81.7953zM151.4531 40.6684L151.2961 40.6054C151.1541 40.5484 151.0041 40.6104 150.9281 40.6534 150.7771 40.7374 150.6491 40.8884 150.5631 41.0684L151.6541 41.5084C151.7171 41.3204 151.7341 41.1234 151.6841 40.9584 151.6591 40.8754 151.5961 40.7264 151.4531 40.6684"/>
    <path fill="#36393F" d="M143.7046 43.9652C143.1246 44.3832 142.6756 44.9572 142.4066 45.6242 142.0256 46.5662 142.0356 47.5992 142.4326 48.5332 142.5556 48.8232 142.7156 49.0912 142.9006 49.3372 142.9456 49.3502 142.9926 49.3592 143.0366 49.3772L145.1396 50.2262 147.7766 43.6932 147.3536 43.5222C146.8216 43.3072 146.2646 43.2162 145.6946 43.2522 145.4216 43.2712 145.1886 43.0692 145.1526 42.8012 144.6906 42.8862 144.2456 43.0442 143.8356 43.2712 143.9796 43.5002 143.9286 43.8042 143.7046 43.9652M154.3662 50.453C155.1512 48.509 154.2082 46.29 152.2642 45.505L151.8412 45.334 150.6932 48.179C150.6872 48.224 150.6852 48.268 150.6682 48.31L149.2282 51.877 151.3072 52.716C151.3502 52.733 151.3882 52.759 151.4302 52.78 152.7052 52.578 153.8482 51.735 154.3662 50.453"/>
    <path fill="#4F545C" d="M140.29,65.081 L135.813,76.17 L137.952,77.034 L141.607,67.979 C141.715,67.714 142.016,67.585 142.283,67.693 L143.337,65.081 L140.29,65.081 Z"/>
    <polygon fill="#4F545C" points="145.46 58.436 146.625 55.552 144.486 54.688 142.973 58.436"/>
    <path fill="#36393F" d="M137.3701,81.4535 C137.4701,81.2055 137.5171,80.9465 137.5271,80.6865 L133.5811,79.0945 C133.4101,79.2845 133.2651,79.5045 133.1631,79.7555 C132.9361,80.3175 132.9421,80.9335 133.1791,81.4915 C133.4161,82.0485 133.8561,82.4805 134.4171,82.7075 C135.5771,83.1755 136.9011,82.6135 137.3701,81.4535"/>
    <polygon fill="#4F545C" points="148.241 51.478 150.827 45.073 148.688 44.209 146.102 50.614"/>
    <path fill="#72767D" d="M140.5586 52.6654C140.5456 52.6414 140.5306 52.6184 140.5186 52.5934L140.4996 52.6424 140.5586 52.6654zM96.1225 72.4521C97.5535 72.4521 98.7175 71.2871 98.7175 69.8561L98.7175 64.6651 91.4505 64.6651 91.4505 69.8561C91.4505 71.2871 92.6155 72.4521 94.0455 72.4521L96.1225 72.4521zM82.8164 72.4521C84.2474 72.4521 85.4124 71.2871 85.4124 69.8561L85.4124 67.2611 79.7024 67.2611 79.7024 69.8561C79.7024 71.2871 80.8664 72.4521 82.2974 72.4521L82.8164 72.4521z"/>
    <polygon fill="#4F545C" points="77.185 81.795 79.262 81.795 79.262 78.162 77.185 78.162"/>
    <polygon fill="#4F545C" points="98.986 81.795 101.062 81.795 101.062 78.162 98.986 78.162"/>
    <path fill="#72767D" d="M29.226 81.6972L29.226 80.9512C29.226 80.6552 28.986 80.4162 28.69 80.4162L28.072 80.4162C27.819 80.4162 27.602 80.2332 27.56 79.9832 27.456 79.3682 26.91 78.9052 26.288 78.9052L25.176 78.9052C24.464 78.9052 23.885 79.4842 23.885 80.1962L23.885 81.6972C23.885 81.7502 23.93 81.7952 23.983 81.7952L26.272 81.7952 29.128 81.7952C29.18 81.7952 29.226 81.7492 29.226 81.6972M9.0092 81.6972L9.0092 81.5572C9.0092 80.9362 8.5042 80.4302 7.8832 80.4302 7.2602 80.4302 6.7552 80.9362 6.7552 81.5572L6.7552 81.6972C6.7552 81.7492 6.8012 81.7952 6.8532 81.7952L8.9112 81.7952C8.9642 81.7952 9.0092 81.7502 9.0092 81.6972"/>
    <path fill="#202225" d="M3.4726 81.7953L.5186 81.7953C.2326 81.7953-.0004 82.0273-.0004 82.3143-.0004 82.6013.2326 82.8333.5186 82.8333L3.4726 82.8333C3.7596 82.8333 3.9926 82.6013 3.9926 82.3143 3.9926 82.0273 3.7596 81.7953 3.4726 81.7953M163.1025 81.5233C163.0715 81.5313 163.0415 81.5423 163.0135 81.5553 162.6675 81.7143 162.3025 81.7953 161.9285 81.7953L158.6025 81.7953 138.4655 81.7953C138.4265 81.7953 138.3915 81.7863 138.3525 81.7843 138.4395 81.5583 138.4985 81.3273 138.5345 81.0933L138.6565 81.1433C138.8565 81.2233 139.0625 81.2623 139.2655 81.2623 139.9125 81.2623 140.5265 80.8753 140.7835 80.2393L140.8875 79.9813C141.2245 79.1463 140.8195 78.1913 139.9845 77.8543L138.9155 77.4223 138.9935 77.2273 146.2515 77.2273C147.2245 77.2273 148.0165 76.4363 148.0165 75.4623L148.0165 72.9713C148.0165 69.8223 150.5785 67.2613 153.7265 67.2613L154.9165 67.2613C155.8045 67.2613 156.5265 66.5393 156.5265 65.6513 156.5265 64.7643 155.8045 64.0433 154.9165 64.0433L146.8205 64.0433 139.1845 64.0433C138.5195 64.0433 137.8865 63.7503 137.4495 63.2393 137.0085 62.7243 136.8235 62.0693 136.9285 61.3953 137.0995 60.3003 138.1055 59.4743 139.2695 59.4743L146.8205 59.4743 147.5935 59.4743C148.5655 59.4743 149.3575 58.6803 149.3585 57.7043 149.3585 57.3593 149.3945 57.0233 149.4575 56.6953L149.6665 56.7803C149.8665 56.8603 150.0725 56.8983 150.2755 56.8983 150.9225 56.8983 151.5365 56.5123 151.7935 55.8773L152.2105 54.8423C152.3645 54.4613 152.3645 54.0473 152.2225 53.6643 153.0345 53.4213 153.7715 52.9593 154.3615 52.3313 154.4925 52.3213 154.6235 52.3113 154.7565 52.3113L158.6025 52.3113 160.9345 52.3113C165.7995 52.3113 169.7585 56.2703 169.7585 61.1363L169.7585 72.9713C169.7585 77.0063 167.0205 80.5233 163.1025 81.5233zM132.8415 77.6753C132.6945 77.6163 132.5785 77.5023 132.5165 77.3563 132.4545 77.2103 132.4535 77.0483 132.5125 76.9003L132.6165 76.6423C132.7395 76.3373 133.0875 76.1893 133.3925 76.3123L139.5955 78.8163C139.8995 78.9403 140.0475 79.2873 139.9245 79.5923L139.8205 79.8513C139.6975 80.1553 139.3505 80.3033 139.0445 80.1803L132.8415 77.6753zM136.7135 82.3133C136.0445 82.8433 135.1255 83.0233 134.3455 82.6773 133.8185 82.4433 133.4055 82.0243 133.1795 81.4913 132.9425 80.9333 132.9365 80.3173 133.1635 79.7553L133.1665 79.7483C133.3285 79.3503 133.8065 79.1853 134.2045 79.3453L136.9025 80.4353C137.3145 80.6013 137.5305 81.0733 137.3575 81.4833 137.2305 81.7833 137.0255 82.0653 136.7135 82.3133zM142.2835 67.6923C142.0155 67.5853 141.7145 67.7143 141.6075 67.9793L138.3835 75.9643C138.1455 76.5553 137.4735 76.8403 136.8825 76.6023 136.2915 76.3633 136.0065 75.6913 136.2455 75.1013L139.7065 66.5273C140.0595 65.6533 140.9075 65.0813 141.8505 65.0813L143.3375 65.0813 146.8205 65.0813 154.9165 65.0813C155.2315 65.0813 155.4875 65.3363 155.4875 65.6513 155.4875 65.9663 155.2315 66.2233 154.9165 66.2233L153.7265 66.2233C149.9995 66.2233 146.9785 69.2443 146.9785 72.9713L146.9785 75.4623C146.9785 75.8643 146.6525 76.1893 146.2515 76.1893L140.7015 76.1893C140.0855 76.1893 139.6645 75.5653 139.8945 74.9943L142.5705 68.3683C142.6775 68.1023 142.5495 67.7993 142.2835 67.6923zM132.2005 79.3663C131.8835 80.1513 131.8815 81.0093 132.1855 81.7953L130.6755 81.7953C125.8015 81.7953 121.8515 77.8443 121.8515 72.9713L121.8515 67.3653C121.8515 64.1523 122.8605 61.0813 124.7705 58.4823 127.6125 54.6183 132.1475 52.3113 136.9045 52.3113L140.4235 52.3113C140.4445 52.3973 140.4685 52.4823 140.5035 52.5653 140.5075 52.5753 140.5145 52.5833 140.5195 52.5933 140.5305 52.6183 140.5445 52.6393 140.5575 52.6633 140.7265 52.9873 140.9685 53.2683 141.3085 53.4053L142.6305 53.9393C143.1235 54.1383 143.3615 54.6993 143.1625 55.1923L141.8525 58.4363 139.2695 58.4363C137.5985 58.4363 136.1515 59.6393 135.9025 61.2353 135.7525 62.2003 136.0285 63.1763 136.6615 63.9153 137.2925 64.6523 138.2065 65.0763 139.1705 65.0803L134.8505 75.7813 133.8365 75.3723C133.5155 75.2423 133.1605 75.1903 132.8225 75.2673 132.2805 75.3903 131.8555 75.7543 131.6535 76.2533L131.5725 76.4553C131.4435 76.7763 131.3905 77.1323 131.4675 77.4703 131.5895 78.0123 131.9555 78.4373 132.4535 78.6383L132.5765 78.6883C132.4285 78.8953 132.3005 79.1203 132.2005 79.3663zM124.4745 81.7953L110.7175 81.7953C109.3835 81.7953 108.3125 80.6453 108.4455 79.2833 108.5605 78.0973 109.6275 77.2273 110.8195 77.2273L116.3245 77.2273C117.2985 77.2273 118.0885 76.4373 118.0885 75.4623L118.0885 72.9713C118.0885 71.3083 118.8065 69.8123 119.9455 68.7693 120.2765 68.4653 120.8125 68.7093 120.8125 69.1583L120.8125 72.9713C120.8125 76.2023 122.3785 79.0683 124.7885 80.8663 125.1855 81.1633 124.9705 81.7953 124.4745 81.7953zM120.8295 63.7313L117.8815 63.7313C116.5465 63.7313 115.4755 62.5813 115.6085 61.2193 115.7245 60.0323 116.7905 59.1633 117.9825 59.1633L122.1985 59.1633C122.5865 59.1633 122.8395 59.5753 122.6585 59.9183 122.0815 61.0083 121.6365 62.1543 121.3285 63.3393 121.2695 63.5693 121.0665 63.7313 120.8295 63.7313zM149.3485 51.5753L151.7205 45.6383C151.7875 45.4703 151.9775 45.3893 152.1445 45.4573 153.9605 46.1903 155.0345 48.1613 154.5045 50.0463 154.0815 51.5563 152.8355 52.5573 151.4305 52.7803 151.3885 52.7593 151.3505 52.7333 151.3075 52.7163L149.5295 51.9983C149.3625 51.9313 149.2825 51.7413 149.3485 51.5753zM149.7575 44.6413C150.3485 44.8793 150.6335 45.5513 150.3955 46.1423L148.2415 51.4783 146.1025 50.6143 148.2565 45.2793C148.4955 44.6883 149.1665 44.4023 149.7575 44.6413zM150.5625 41.0683C150.6485 40.8883 150.7775 40.7373 150.9285 40.6533 151.0045 40.6103 151.1535 40.5483 151.2955 40.6053L151.4535 40.6683C151.5965 40.7263 151.6595 40.8753 151.6845 40.9583 151.7335 41.1233 151.7175 41.3203 151.6545 41.5083L150.5625 41.0683zM151.8535 42.7093C152.2475 42.8673 152.4375 43.3163 152.2785 43.7103 152.2025 43.9013 152.0555 44.0503 151.8665 44.1303 151.6785 44.2103 151.4695 44.2123 151.2785 44.1353L149.0145 43.2213C148.8245 43.1453 148.6745 42.9983 148.5945 42.8093 148.5145 42.6203 148.5125 42.4113 148.5895 42.2213L148.5895 42.2203C148.6665 42.0293 148.8125 41.8803 149.0015 41.8003 149.0985 41.7593 149.2005 41.7383 149.3025 41.7383 149.3995 41.7383 149.4975 41.7573 149.5905 41.7953L151.8535 42.7093zM141.7845 52.4783C141.6365 52.4193 141.5215 52.3053 141.4585 52.1593 141.3965 52.0123 141.3955 51.8503 141.4555 51.7033L141.8725 50.6693C141.9325 50.5213 142.0455 50.4053 142.1915 50.3433 142.2665 50.3113 142.3455 50.2953 142.4245 50.2953 142.4995 50.2953 142.5755 50.3103 142.6475 50.3393L150.9185 53.6783C151.0655 53.7383 151.1815 53.8523 151.2435 53.9983 151.3065 54.1453 151.3075 54.3063 151.2485 54.4543L150.8305 55.4873C150.7075 55.7923 150.3595 55.9403 150.0555 55.8173L141.7845 52.4783zM144.8545 58.4363L144.3025 58.4363C143.6665 58.4363 143.2325 57.7933 143.4705 57.2033L144.0545 55.7573C144.2925 55.1673 144.9645 54.8813 145.5555 55.1203 146.1455 55.3583 146.4315 56.0303 146.1925 56.6213L145.6865 57.8753C145.5495 58.2143 145.2205 58.4363 144.8545 58.4363zM148.4805 56.3013C148.3795 56.7513 148.3215 57.2173 148.3205 57.6973 148.3195 58.1033 147.9995 58.4363 147.5935 58.4363L146.8205 58.4363 146.5795 58.4363 147.2275 56.8333C147.4255 56.3403 147.9875 56.1023 148.4805 56.3013zM128.7035 51.2733C125.0745 51.2733 121.9575 49.0693 120.6065 45.9313 120.2515 45.1093 121.0175 44.2663 121.8745 44.5243 122.7725 44.7943 123.7245 44.9403 124.7095 44.9403L134.6755 44.9403C140.1235 44.9403 144.5385 40.5243 144.5385 35.0773L144.5385 31.0293C144.5385 28.6783 142.6325 26.7723 140.2815 26.7723L134.6755 26.7723C134.3895 26.7723 134.1565 27.0043 134.1565 27.2913 134.1565 27.5783 134.3895 27.8103 134.6755 27.8103L137.8085 27.8103 140.2815 27.8103C142.0595 27.8103 143.5005 29.2513 143.5005 31.0293L143.5005 35.0773C143.5005 39.9513 139.5495 43.9023 134.6755 43.9023L133.3505 43.9023 124.7095 43.9023C119.8355 43.9023 115.8845 39.9513 115.8845 35.0773L115.8845 31.0293C115.8845 29.2513 117.3255 27.8103 119.1035 27.8103L128.6785 27.8103C128.9645 27.8103 129.1975 27.5783 129.1975 27.2913 129.1975 27.0043 128.9645 26.7723 128.6785 26.7723L121.0275 26.7723C120.3865 26.7723 119.8975 26.1953 120.0005 25.5623 120.6805 21.3683 124.3205 18.1553 128.7035 18.1553L160.1275 18.1553 162.2835 18.1553C165.4305 18.1553 168.1905 19.8143 169.7505 22.3003 170.1865 22.9953 169.6935 23.9003 168.8735 23.9003L165.9005 23.9003 164.0225 23.9003C163.7365 23.9003 163.5035 24.1323 163.5035 24.4193 163.5035 24.7063 163.7365 24.9383 164.0225 24.9383L171.6015 24.9383C173.8945 24.9383 175.7545 26.7973 175.7545 29.0913L175.7545 36.5653C175.7545 38.8593 173.8945 40.7183 171.6015 40.7183L164.0225 40.7183C163.7365 40.7183 163.5035 40.9513 163.5035 41.2373 163.5035 41.5243 163.7365 41.7563 164.0225 41.7563L166.4355 41.7563C169.5355 42.2153 170.9715 45.9443 168.8965 48.2913 167.2805 50.1203 164.9165 51.2733 162.2835 51.2733L160.9345 51.2733 160.1275 51.2733 158.6025 51.2733 155.1145 51.2733C155.1895 51.1313 155.2685 50.9933 155.3295 50.8413 156.2955 48.4473 155.1995 45.7303 152.8875 44.6503 153.0355 44.4913 153.1575 44.3063 153.2425 44.0983 153.5615 43.3063 153.2745 42.4213 152.6055 41.9493 152.7735 41.5243 152.8005 41.0673 152.6785 40.6603 152.5455 40.2143 152.2405 39.8663 151.8415 39.7063L151.6845 39.6423C151.2875 39.4813 150.8255 39.5203 150.4185 39.7483 150.0485 39.9563 149.7505 40.3043 149.5775 40.7263 149.2485 40.6753 148.9105 40.7113 148.5965 40.8453 148.1515 41.0333 147.8075 41.3843 147.6445 41.7943L147.6435 41.7943C147.6375 41.8073 147.6315 41.8193 147.6265 41.8333 147.5425 42.0413 147.5025 42.2583 147.4985 42.4773 146.8945 42.2693 146.2695 42.1773 145.6285 42.2163 145.3435 42.2343 145.1255 42.4813 145.1435 42.7673 145.1445 42.7793 145.1515 42.7893 145.1525 42.8013 145.1885 43.0713 145.4265 43.2743 145.7025 43.2523 146.0935 43.2183 146.9545 43.4483 147.4355 43.5893 147.6205 43.6433 147.7155 43.8453 147.6435 44.0233L145.2615 49.9233C145.1945 50.0903 145.0045 50.1713 144.8375 50.1043L143.0365 49.3773C142.9925 49.3583 142.9455 49.3503 142.9005 49.3363 142.7155 49.0913 142.5555 48.8233 142.4325 48.5333 141.9305 47.3513 142.0485 46.0113 142.7905 44.8983 143.0465 44.5143 143.4255 44.2383 143.7595 43.9193 143.9355 43.7513 143.9675 43.4803 143.8355 43.2713 143.8295 43.2613 143.8295 43.2503 143.8225 43.2413 143.6555 43.0083 143.3305 42.9563 143.0975 43.1233 142.3585 43.6563 141.7865 44.3863 141.4435 45.2353 140.9595 46.4343 140.9715 47.7493 141.4765 48.9393 141.5485 49.1073 141.6305 49.2683 141.7185 49.4243 141.3515 49.6013 141.0635 49.8993 140.9095 50.2803L140.5085 51.2733 136.9045 51.2733 128.7035 51.2733zM127.9245 11.7133C127.8855 11.6743 127.8775 11.6303 127.8775 11.6003 127.8775 11.5693 127.8855 11.5253 127.9245 11.4863L130.0225 9.3883C130.0615 9.3493 130.1065 9.3413 130.1365 9.3413 130.1615 9.3413 130.2095 9.3473 130.2505 9.3883L132.3485 11.4863C132.3875 11.5253 132.3955 11.5693 132.3955 11.6003 132.3955 11.6303 132.3875 11.6743 132.3485 11.7133L130.2505 13.8123C130.1595 13.9033 130.0935 13.8823 130.0225 13.8123L127.9245 11.7133zM98.4665 77.1233L79.7815 77.1233 76.6665 77.1233C75.8065 77.1233 75.1095 76.4263 75.1095 75.5663L75.1095 75.0473C75.1095 74.1873 75.8065 73.4903 76.6665 73.4903L82.2975 73.4903 82.8165 73.4903 94.0455 73.4903 96.1225 73.4903 101.5815 73.4903C102.4415 73.4903 103.1385 74.1873 103.1385 75.0473L103.1385 75.5663C103.1385 76.4263 102.4415 77.1233 101.5815 77.1233L98.4665 77.1233zM100.5425 81.7953L99.5045 81.7953C99.2185 81.7953 98.9855 81.5633 98.9855 81.2763L98.9855 79.2003C98.9855 78.6263 99.4505 78.1623 100.0235 78.1623 100.5975 78.1623 101.0615 78.6263 101.0615 79.2003L101.0615 81.2763C101.0615 81.5633 100.8295 81.7953 100.5425 81.7953zM97.4285 81.7953L80.8195 81.7953C80.5325 81.7953 80.3005 81.5633 80.3005 81.2763L80.3005 79.2003C80.3005 78.6263 80.7655 78.1623 81.3385 78.1623L96.9095 78.1623C97.4825 78.1623 97.9475 78.6263 97.9475 79.2003L97.9475 81.2763C97.9475 81.5633 97.7155 81.7953 97.4285 81.7953zM78.7435 81.7953L77.7055 81.7953C77.4175 81.7953 77.1855 81.5633 77.1855 81.2763L77.1855 79.2003C77.1855 78.6263 77.6505 78.1623 78.2245 78.1623 78.7975 78.1623 79.2625 78.6263 79.2625 79.2003L79.2625 81.2763C79.2625 81.5633 79.0295 81.7953 78.7435 81.7953zM79.7025 69.8563L79.7025 69.3373C79.7025 68.1903 80.6315 67.2613 81.7785 67.2613L83.3355 67.2613C84.4825 67.2613 85.4125 68.1903 85.4125 69.3373L85.4125 69.8563C85.4125 71.2903 84.2495 72.4523 82.8165 72.4523L82.2975 72.4523C80.8645 72.4523 79.7025 71.2903 79.7025 69.8563zM91.4505 69.8563L91.4505 66.2233C91.4505 65.3623 92.1475 64.6653 93.0075 64.6653L97.1605 64.6653C98.0205 64.6653 98.7175 65.3623 98.7175 66.2233L98.7175 69.8563C98.7175 71.2903 97.5555 72.4523 96.1225 72.4523L94.0455 72.4523C92.6125 72.4523 91.4505 71.2903 91.4505 69.8563zM60.8995 81.5063L56.9245 81.5063C57.4475 81.1833 57.9355 80.7953 58.3695 80.3333 59.1485 79.5023 59.6925 78.5233 59.9925 77.4663L60.8995 77.4663C62.0125 77.4663 62.9185 78.3733 62.9185 79.4863 62.9185 80.6003 62.0125 81.5063 60.8995 81.5063zM48.7175 81.5063L46.5325 81.5063C46.5435 81.4943 46.5555 81.4833 46.5655 81.4713 47.1475 80.7923 47.4025 79.8933 47.2645 79.0043 47.0355 77.5363 45.7035 76.4283 44.1665 76.4283L42.0605 76.4283C41.9205 74.6593 41.0715 73.0893 39.8025 71.9933 38.6535 71.0003 37.1615 70.3943 35.5265 70.3943L34.7705 70.3943C34.6445 70.3943 34.5195 70.4003 34.3965 70.4133L35.0945 65.8793C35.4265 63.7183 36.5155 61.8583 38.0675 60.5423 38.4685 60.2023 39.0675 60.2403 39.4435 60.6083 40.1185 61.2683 40.8615 61.8663 41.6705 62.3903L41.9115 62.5463 45.8565 65.1053C48.2065 66.6283 50.8935 67.4153 53.6425 67.4153 54.6575 67.4153 55.6805 67.3083 56.6985 67.0913 57.3305 66.9563 57.9465 66.7803 58.5445 66.5683 58.5965 66.6023 58.6165 66.6153 58.6685 66.6493L58.8505 69.4953C58.8695 69.7813 59.1185 70.0013 59.4015 69.9803L59.4025 69.9803C59.6885 69.9613 59.9055 69.7143 59.8865 69.4283L59.8845 69.3873 59.7045 66.5833C59.7025 66.5513 59.6965 66.5203 59.6935 66.4883 59.9465 66.5613 60.2035 66.6173 60.4625 66.6623L61.3005 68.1153C61.5105 68.4783 61.6395 68.8743 61.6935 69.2793 61.7605 69.7673 61.7175 70.2683 61.5535 70.7443 61.2955 71.4933 60.7695 72.1133 60.0835 72.4923L60.0225 71.5483C60.0045 71.2623 59.7535 71.0473 59.4715 71.0633 59.1855 71.0823 58.9685 71.3283 58.9865 71.6143L59.2025 74.9833C59.3095 76.6493 58.7965 78.3253 57.6715 79.5593 56.5265 80.8143 54.9575 81.5063 53.2635 81.5063L48.7175 81.5063zM45.7775 80.7963C45.3915 81.2473 44.8315 81.5063 44.2435 81.5063L39.6405 81.5063 37.0005 81.5063C34.3545 81.5063 32.2025 79.3543 32.2025 76.7083L32.2025 74.0003C32.2025 72.5843 33.3545 71.4323 34.7705 71.4323L35.5265 71.4323C38.5685 71.4323 41.0415 73.9063 41.0415 76.9473 41.0415 77.2343 41.2745 77.4663 41.5605 77.4663L44.1665 77.4663C45.1965 77.4663 46.0875 78.1963 46.2385 79.1643 46.3315 79.7613 46.1675 80.3403 45.7775 80.7963zM36.4505 53.0863C35.9645 50.8083 36.0725 48.5023 36.7385 46.3473 36.9505 45.6633 37.8415 45.5333 38.2775 46.1023 38.4625 46.3433 38.6655 46.5743 38.8885 46.7943 38.9895 46.8933 39.1215 46.9433 39.2525 46.9433 39.3765 46.9433 39.4975 46.8943 39.5965 46.8063 39.6035 46.7993 39.6145 46.7963 39.6225 46.7893 39.9835 46.3913 39.4345 45.8833 39.2025 45.5983 37.4055 43.3913 37.5205 40.1283 39.5645 38.0583L39.7825 37.8383C41.9775 35.6173 45.5585 35.5953 47.7805 37.7893L50.6335 40.6053C50.8375 40.8053 51.1665 40.8043 51.3685 40.6003 51.5695 40.3963 51.5675 40.0673 51.3635 39.8653L49.9955 38.5153C49.9955 38.5153 48.4645 37.0103 48.4435 36.9903 48.8175 36.9593 49.1905 36.9393 49.5625 36.9393 51.2945 36.9393 52.9975 37.2833 54.5965 37.9413 54.5725 37.9873 54.5515 38.0343 54.5415 38.0843 54.5255 38.1643 54.5185 38.2923 54.5495 38.4633 54.6675 39.1153 55.3795 40.4233 58.6235 42.3553 61.0885 43.8243 62.5475 44.1833 63.3845 44.1833 63.5085 44.1833 63.6145 44.1733 63.7125 44.1603 65.9985 46.7483 67.1665 50.1063 67.0555 53.4823 67.0275 54.3043 66.1005 54.7753 65.4105 54.3283 65.4405 54.2583 65.4595 54.1833 65.4625 54.1023 65.4675 53.9133 65.4705 53.7243 65.4705 53.5363 65.4705 53.2983 65.4665 53.0613 65.4575 52.8273 65.4455 52.4863 65.1695 52.2223 64.8185 52.2323 64.4775 52.2453 64.2115 52.5303 64.2235 52.8713 64.2315 53.0913 64.2355 53.3143 64.2355 53.5373 64.2355 53.5473 64.2355 53.5563 64.2355 53.5663L59.6805 50.6123C58.9515 50.1393 58.0795 49.9793 57.2235 50.1623 56.3675 50.3443 55.6355 50.8463 55.1635 51.5763L53.5435 54.0723C51.3235 57.4963 52.2985 62.0713 55.7225 64.2913 55.7225 64.2913 56.1925 64.5943 56.6965 64.9193 57.1675 65.2233 57.0445 65.9553 56.4965 66.0733L56.4815 66.0763C52.9785 66.8233 49.4055 66.1683 46.4215 64.2343L42.2355 61.5193C42.1445 61.4613 42.0585 61.3983 41.9695 61.3373 39.1315 59.3993 37.1745 56.4833 36.4505 53.0863zM68.0355 57.2673C68.5325 57.5893 68.8745 58.0883 68.9985 58.6723 69.1235 59.2573 69.0145 59.8523 68.6925 60.3493L67.0725 62.8463C66.1545 64.2633 64.7315 65.2383 63.0675 65.5933 61.4035 65.9483 59.7065 65.6373 58.2905 64.7193L56.2875 63.4203C53.3505 61.5153 52.5095 57.5753 54.4145 54.6383L56.0345 52.1413C56.3565 51.6443 56.8555 51.3013 57.4395 51.1773 58.0235 51.0523 58.6195 51.1613 59.1165 51.4833L68.0355 57.2673zM68.8015 51.2853C69.4085 52.6683 69.4405 54.2043 68.8915 55.6123L68.7795 55.8993C68.7155 56.0633 68.6435 56.2203 68.5655 56.3743L67.8125 55.8863C68.1975 53.9753 68.1925 51.9843 67.7725 50.0143 67.7445 49.8823 67.7105 49.7523 67.6795 49.6233 68.1425 50.1003 68.5255 50.6573 68.8015 51.2853zM29.2265 81.2763C29.2265 81.5623 28.9925 81.7953 28.7065 81.7953L26.2725 81.7953 24.4045 81.7953C24.1185 81.7953 23.8845 81.5623 23.8845 81.2763L23.8845 80.1963C23.8845 79.4833 24.4625 78.9053 25.1755 78.9053L26.1915 78.9053C26.7955 78.9053 27.4725 79.3723 27.5585 79.9703 27.5945 80.2273 27.8145 80.4163 28.0715 80.4163L28.6905 80.4163C28.9865 80.4163 29.2265 80.6553 29.2265 80.9513L29.2265 81.2763zM15.7665 82.8153C15.7625 82.8153 15.7595 82.8133 15.7555 82.8123 14.8775 82.5343 14.1635 81.8893 13.7965 81.0433 13.7865 81.0193 13.7745 80.9953 13.7605 80.9733L13.6605 80.8143C13.3145 79.9893 13.3315 79.0543 13.7075 78.2423 13.7605 78.1293 13.8195 78.0213 13.8845 77.9163 14.1405 77.5033 14.7225 77.4403 15.0755 77.7753 15.7495 78.4163 16.5725 79.6643 16.7415 81.9873 16.7805 82.5263 16.2815 82.9773 15.7665 82.8153zM154.7165 9.3883C154.7555 9.3493 154.8005 9.3413 154.8305 9.3413 154.8555 9.3413 154.9035 9.3473 154.9445 9.3883L157.0425 11.4863C157.0815 11.5253 157.0895 11.5693 157.0895 11.6003 157.0895 11.6303 157.0815 11.6743 157.0415 11.7133L154.9445 13.8123C154.8525 13.9033 154.7875 13.8823 154.7165 13.8123L152.6185 11.7133C152.5795 11.6743 152.5715 11.6303 152.5715 11.6003 152.5715 11.5693 152.5795 11.5253 152.6185 11.4863L154.7165 9.3883zM194.6465 81.7953L169.7285 81.7953C168.4075 81.7953 167.6945 80.2593 168.5385 79.2403 169.9605 77.5213 170.7965 75.3263 170.7965 72.9713L170.7965 61.1363C170.7965 57.7943 169.1245 54.8383 166.5745 53.0553 165.9125 52.5923 165.9845 51.6133 166.7065 51.2513 169.9325 49.6273 172.1515 46.2883 172.1455 42.4353 172.1455 42.0353 172.4355 41.7043 172.8245 41.6103 175.0985 41.0593 176.7925 39.0063 176.7925 36.5653L176.7925 29.0913C176.7925 26.4163 174.7575 24.2083 172.1555 23.9313 171.8505 23.8993 171.5825 23.6993 171.4715 23.4143 170.0395 19.7343 166.4635 17.1173 162.2835 17.1173L154.8305 17.1173 130.6555 17.1173 130.6555 14.7743C130.7755 14.7163 130.8875 14.6433 130.9845 14.5453L133.0815 12.4483C133.3095 12.2213 133.4335 11.9203 133.4335 11.6003 133.4335 11.2793 133.3095 10.9783 133.0825 10.7523L130.9845 8.6543C130.8885 8.5583 130.7755 8.4873 130.6555 8.4323L130.6555 1.9513C130.6555 1.9323 130.6555 1.8803 130.7225 1.8573 130.7895 1.8363 130.8205 1.8763 130.8325 1.8923L135.4045 7.9273C135.8585 8.5273 136.7615 8.5273 137.2155 7.9273L142.4055 1.0773C142.4485 1.0203 142.5195 1.0203 142.5615 1.0773L147.7505 7.9273C147.9675 8.2133 148.2985 8.3773 148.6575 8.3773 149.0165 8.3773 149.3465 8.2123 149.5625 7.9273L154.1355 1.8913C154.1465 1.8763 154.1775 1.8353 154.2445 1.8573 154.3115 1.8803 154.3115 1.9323 154.3115 1.9513L154.3115 8.4323C154.1915 8.4873 154.0785 8.5583 153.9825 8.6543L151.8845 10.7523C151.6585 10.9783 151.5335 11.2793 151.5335 11.6003 151.5335 11.9203 151.6585 12.2213 151.8845 12.4473L153.9825 14.5453C154.2085 14.7723 154.5105 14.8973 154.8305 14.8973 155.1505 14.8973 155.4515 14.7723 155.6785 14.5453L157.7755 12.4483C158.0025 12.2213 158.1275 11.9203 158.1275 11.6003 158.1275 11.2793 158.0025 10.9783 157.7765 10.7523L155.6785 8.6543C155.5825 8.5583 155.4695 8.4873 155.3495 8.4323L155.3495 2.0053C155.3495 1.5303 155.0835 1.0763 154.6435.8983 154.1525.7013 153.6205.8503 153.3075 1.2643L150.3115 5.2183C149.4015 6.4203 147.9125 6.4203 147.0015 5.2183L143.3895.4503C143.1725.1643 142.8425.0003 142.4835.0003 142.1245.0003 141.7945.1643 141.5785.4503L137.9655 5.2183C137.0545 6.4203 135.5655 6.4203 134.6555 5.2183L131.7075 1.3283C131.4125.9383 130.9105.7233 130.4405.8583 129.9425 1.0033 129.6175 1.4383 129.6175 1.9513L129.6175 8.4323C129.4985 8.4873 129.3845 8.5583 129.2895 8.6543L127.1905 10.7523C126.9645 10.9783 126.8395 11.2793 126.8395 11.6003 126.8395 11.9203 126.9645 12.2213 127.1905 12.4473L129.2895 14.5453C129.3855 14.6433 129.4985 14.7163 129.6175 14.7743L129.6175 17.1173 128.7035 17.1173C123.6075 17.1173 119.4085 21.0043 118.9005 25.9683 118.8555 26.4053 118.5545 26.7903 118.1255 26.8913 116.2485 27.3333 114.8465 29.0183 114.8465 31.0293L114.8465 35.0773C114.8465 38.1633 116.2775 40.9153 118.5035 42.7233 118.7325 42.9093 118.8745 43.1743 118.9055 43.4663 119.4175 48.4273 123.6095 52.3113 128.7035 52.3113L128.9045 52.3113C129.4355 52.3113 129.6315 53.0243 129.1665 53.2813 127.1385 54.3993 125.3415 55.9543 123.9345 57.8683 123.8735 57.9523 123.8205 58.0403 123.7605 58.1253L117.9975 58.1253C116.3095 58.1253 114.8025 59.3353 114.5875 61.0103 114.3275 63.0353 115.9055 64.7693 117.8815 64.7693L121.0235 64.7693C120.9085 65.4763 120.8505 66.1953 120.8305 66.9203 118.5955 68.0213 117.0505 70.3153 117.0505 72.9713L117.0505 75.4623C117.0505 75.8643 116.7255 76.1893 116.3245 76.1893L110.8605 76.1893C109.0125 76.1893 107.3755 77.7003 107.3955 79.5473 107.4055 80.4183 107.7535 81.2073 108.3115 81.7953L102.6195 81.7953C102.3325 81.7953 102.1005 81.5633 102.1005 81.2763L102.1005 79.2003C102.1005 78.6263 102.5645 78.1623 103.1385 78.1623L103.6575 78.1623C103.9445 78.1623 104.1765 77.9293 104.1765 77.6423L104.1765 72.9713C104.1765 72.6843 103.9445 72.4523 103.6575 72.4523L99.7145 72.4523C99.3215 72.4523 99.0605 72.0253 99.2595 71.6873 99.5745 71.1493 99.7555 70.5233 99.7555 69.8563L99.7555 65.1843C99.7555 64.3243 99.0585 63.6273 98.1985 63.6273L91.9695 63.6273C91.1095 63.6273 90.4125 64.3243 90.4125 65.1843L90.4125 69.8563C90.4125 70.5233 90.5935 71.1493 90.9095 71.6873 91.1085 72.0253 90.8465 72.4523 90.4535 72.4523L86.4095 72.4523C86.0165 72.4523 85.7545 72.0253 85.9535 71.6873 86.2695 71.1493 86.4505 70.5233 86.4505 69.8563L86.4505 68.2993C86.4505 67.1523 85.5205 66.2233 84.3735 66.2233L80.7405 66.2233C79.5935 66.2233 78.6645 67.1523 78.6645 68.2993L78.6645 69.8563C78.6645 70.5233 78.8455 71.1493 79.1605 71.6873 79.3595 72.0253 79.0985 72.4523 78.7055 72.4523L74.5905 72.4523C74.3035 72.4523 74.0715 72.6843 74.0715 72.9713L74.0715 77.6423C74.0715 77.9293 74.3035 78.1623 74.5905 78.1623L75.1095 78.1623C75.6825 78.1623 76.1475 78.6263 76.1475 79.2003L76.1475 81.2763C76.1475 81.5633 75.9145 81.7953 75.6285 81.7953L64.7895 81.7953C64.0785 81.7953 63.5895 81.1013 63.8095 80.4253 63.9695 79.9323 64.0065 79.3853 63.8855 78.8173 63.5815 77.3953 62.2445 76.4283 60.7895 76.4283 60.4855 76.4283 60.2405 76.1773 60.2555 75.8733 60.2685 75.6163 60.2675 75.3563 60.2505 75.0953L60.1785 73.9743C60.1645 73.7533 60.2915 73.5553 60.4875 73.4533 61.9575 72.6913 62.9055 71.1053 62.7515 69.2953 62.6975 68.6613 62.4645 68.0543 62.1455 67.5023 61.9565 67.1753 62.1655 66.7713 62.5415 66.7293 62.7895 66.7023 63.0375 66.6623 63.2845 66.6093 65.2195 66.1963 66.8745 65.0613 67.9435 63.4113L69.4785 61.0453C70.0025 60.2363 70.2235 59.2413 69.9785 58.3083 69.9185 58.0763 69.8325 57.8543 69.7255 57.6443 69.5375 57.2783 69.4985 56.8593 69.6615 56.4823 69.6915 56.4143 69.7195 56.3453 69.7465 56.2763L69.8005 56.1383C70.3645 54.6933 70.4845 53.0923 70.0275 51.6103 69.5345 50.0103 68.5065 48.7073 67.1395 47.8663 66.6335 46.5313 65.9375 45.2913 65.0745 44.1773 64.7775 43.7943 64.7625 43.2633 65.0195 42.8523L65.0195 42.8513C65.1665 42.6053 65.0855 42.2863 64.8395 42.1393 64.5925 41.9933 64.2745 42.0733 64.1275 42.3193L64.1265 42.3213C63.7955 42.8843 63.1355 43.1713 62.5035 43.0063 61.7905 42.8203 60.7165 42.3933 59.1545 41.4633 57.6105 40.5443 56.7305 39.8123 56.2295 39.2793 55.7805 38.8013 55.7165 38.0813 56.0525 37.5183L58.1865 33.9343C58.4415 33.5073 59.0935 33.6483 59.1485 34.1433L59.2475 35.0233C59.2745 35.2683 59.4115 35.4813 59.6235 35.6063 59.8345 35.7323 60.0865 35.7513 60.3155 35.6593L62.7295 34.6803C63.0485 34.5513 63.4025 34.7623 63.4405 35.1043L63.7285 37.6933C63.7565 37.9383 63.8935 38.1503 64.1045 38.2763 64.3165 38.4023 64.5685 38.4213 64.7975 38.3293L65.6175 37.9963C66.0785 37.8093 66.5135 38.3153 66.2585 38.7433L65.0545 40.7653C64.9075 41.0113 64.9885 41.3303 65.2345 41.4763 65.4805 41.6233 65.7995 41.5423 65.9465 41.2963L68.3345 37.2873C68.5065 36.9993 68.4755 36.6343 68.2565 36.3793 68.0385 36.1253 67.6825 36.0393 67.3715 36.1653L64.7225 37.2393 64.3585 33.9683C64.3315 33.7243 64.1935 33.5113 63.9815 33.3853 63.7705 33.2603 63.5185 33.2413 63.2895 33.3333L60.2415 34.5693 59.9245 31.7293C59.8875 31.3963 59.6425 31.1243 59.3145 31.0533 58.9875 30.9813 58.6505 31.1273 58.4785 31.4163L55.6525 36.1603C55.3585 36.6543 54.7585 36.8713 54.2155 36.6833 52.0015 35.9183 49.6275 35.7073 47.2625 36.0853 45.9225 35.2733 44.3315 34.9413 42.6975 35.2093 41.2575 35.4443 39.9505 36.1903 38.9255 37.2283L38.8265 37.3293C37.4115 38.7623 36.7825 40.6773 36.9255 42.5433 36.9595 42.9853 36.8435 43.4223 36.6435 43.8183 35.1715 46.7313 34.7405 50.0443 35.4345 53.3023 35.7965 55.0003 36.4455 56.5863 37.3405 58.0073 37.7475 58.6533 37.6625 59.4903 37.1015 60.0063 35.5215 61.4613 34.4185 63.4413 34.0685 65.7223L33.5375 69.1733C33.4145 69.9713 33.0515 70.7333 32.4365 71.2563 31.6595 71.9173 31.1645 72.9013 31.1645 74.0003L31.1645 76.7083C31.1645 78.1263 31.6735 79.4263 32.5175 80.4373 32.9695 80.9783 32.6115 81.7953 31.9075 81.7953L31.1085 81.7953C30.6425 81.7953 30.2645 81.4173 30.2645 80.9513 30.2645 80.0823 29.5595 79.3773 28.6905 79.3773L28.4675 79.3773C28.1335 78.4813 27.2765 77.8673 26.2885 77.8673L26.0555 77.8673C26.2175 77.2383 26.2155 76.5623 26.0005 75.9063 25.9455 75.7393 25.8105 75.6113 25.6405 75.5663 25.4695 75.5203 25.2895 75.5653 25.1585 75.6833 25.0385 75.7923 24.8945 75.8813 24.7305 75.9493 23.7765 76.3443 23.2485 75.6403 23.1085 75.4163 23.0275 75.2853 22.8935 75.1973 22.7415 75.1753 22.5895 75.1533 22.4355 75.2003 22.3215 75.3023 22.2025 75.4093 22.0605 75.4973 21.8985 75.5643 21.5255 75.7183 21.1775 75.7223 20.8625 75.5753 20.5155 75.4133 20.2285 75.0673 20.0975 74.6503 20.0115 74.3773 19.7205 74.2253 19.4465 74.3113 19.1755 74.3973 19.0245 74.6843 19.1065 74.9563 19.1075 74.9583 19.1065 74.9603 19.1075 74.9623 19.3275 75.6623 19.8075 76.2293 20.4235 76.5163 21.0055 76.7873 21.6525 76.7893 22.2955 76.5233 22.3865 76.4853 22.4745 76.4433 22.5595 76.3973 23.2225 77.0963 24.1825 77.3003 25.1285 76.9083L25.1355 76.9053C25.1485 77.2443 25.0895 77.5783 24.9685 77.8883 23.9345 77.9813 23.0905 78.7423 22.8925 79.7433L18.3775 82.4963C18.1955 82.6063 18.0045 82.6953 17.8085 82.7673 17.7835 79.3963 16.5645 77.6823 15.6065 76.8603 15.6385 76.7123 15.6445 76.6823 15.6775 76.5333L17.3855 76.0183C17.6595 75.9353 17.8145 75.6463 17.7315 75.3713 17.6485 75.0973 17.3605 74.9433 17.0845 75.0243L15.4545 75.5163C14.9045 75.6813 14.3785 75.9343 13.9355 76.2993 12.4075 77.5613 11.9975 79.5893 12.7225 81.2613 12.7325 81.2853 12.7455 81.3093 12.7595 81.3313L12.8605 81.4933C13.3515 82.5963 14.2905 83.4373 15.4415 83.8023 15.8595 83.9343 16.2905 84.0003 16.7195 84.0003 17.4865 84.0003 18.2485 83.7903 18.9175 83.3823L22.2405 81.3563C22.5015 81.1973 22.8505 81.3783 22.8475 81.6843 22.8395 82.3173 23.3515 82.8333 23.9825 82.8333L26.2725 82.8333 29.1275 82.8333 76.6665 82.8333 79.7815 82.8333 98.4665 82.8333 101.5815 82.8333 110.7175 82.8333 130.6755 82.8333 132.8385 82.8333C133.1675 83.1913 133.5645 83.4833 134.0295 83.6703 134.4335 83.8343 134.8505 83.9103 135.2625 83.9103 136.1855 83.9103 137.0705 83.5153 137.6975 82.8333L138.4655 82.8333 158.6025 82.8333 161.9285 82.8333 194.6465 82.8333C194.9335 82.8333 195.1655 82.6013 195.1655 82.3143 195.1655 82.0273 194.9335 81.7953 194.6465 81.7953z"/>
    <path fill="#202225" d="M55.5932 73.9418C55.3902 73.7388 55.0622 73.7388 54.8592 73.9418L54.0972 74.7028 53.3362 73.9418C53.1332 73.7388 52.8052 73.7388 52.6022 73.9418 52.3992 74.1448 52.3992 74.4728 52.6022 74.6758L53.3642 75.4368 52.6022 76.1988C52.3992 76.4008 52.3992 76.7298 52.6022 76.9328 52.7032 77.0338 52.8362 77.0848 52.9692 77.0848 53.1022 77.0848 53.2352 77.0338 53.3362 76.9328L54.0972 76.1708 54.8592 76.9328C54.9602 77.0338 55.0932 77.0848 55.2262 77.0848 55.3592 77.0848 55.4912 77.0338 55.5932 76.9328 55.7962 76.7298 55.7962 76.4008 55.5932 76.1988L54.8312 75.4368 55.5932 74.6758C55.7962 74.4728 55.7962 74.1448 55.5932 73.9418M63.1684 46.976C63.2514 47.238 63.4944 47.405 63.7554 47.405 63.8184 47.405 63.8814 47.395 63.9444 47.375 64.2694 47.271 64.4474 46.924 64.3434 46.599 64.1024 45.844 63.9154 45.401 63.9074 45.383 63.7744 45.069 63.4124 44.922 63.0994 45.055 62.7854 45.187 62.6384 45.549 62.7704 45.863 62.7724 45.867 62.9444 46.279 63.1684 46.976M63.7798 49.3026C63.8618 49.6946 63.9338 50.0936 63.9938 50.4856 64.0408 50.7906 64.3038 51.0096 64.6038 51.0096 64.6348 51.0096 64.6668 51.0066 64.6978 51.0016 65.0348 50.9496 65.2658 50.6356 65.2148 50.2986 65.1508 49.8836 65.0748 49.4646 64.9888 49.0506 64.9188 48.7166 64.5928 48.5026 64.2588 48.5726 63.9248 48.6416 63.7108 48.9686 63.7798 49.3026M41.4209 44.746C41.5549 44.746 41.6889 44.695 41.7909 44.592 41.9919 44.388 41.9899 44.059 41.7859 43.857 41.2979 43.376 41.0259 42.733 41.0219 42.047 41.0179 41.361 41.2799 40.715 41.7619 40.227L41.9789 40.007C42.4609 39.519 43.1039 39.247 43.7899 39.243 44.4659 39.242 45.1219 39.501 45.6099 39.983 45.8139 40.184 46.1419 40.183 46.3439 39.978 46.5459 39.774 46.5439 39.446 46.3389 39.244 45.6539 38.568 44.7389 38.193 43.7829 38.205 42.8189 38.211 41.9169 38.592 41.2399 39.278L41.0229 39.497C40.3469 40.183 39.9779 41.091 39.9839 42.054 39.9899 43.017 40.3709 43.92 41.0559 44.597 41.1579 44.697 41.2899 44.746 41.4209 44.746M48.3789 48.5063L48.5519 48.2393C48.9539 47.6203 49.6289 47.2823 50.3179 47.2823 50.7089 47.2823 51.1049 47.3923 51.4569 47.6203L51.7239 47.7933C52.1919 48.0973 52.5139 48.5673 52.6319 49.1183 52.7489 49.6693 52.6469 50.2303 52.3429 50.6973L52.1699 50.9643C51.8659 51.4323 51.3959 51.7553 50.8449 51.8733 50.2939 51.9893 49.7329 51.8873 49.2649 51.5843L48.9989 51.4113C48.5299 51.1073 48.2079 50.6373 48.0899 50.0863 47.9729 49.5363 48.0749 48.9743 48.3789 48.5063M48.4339 52.2823L48.7009 52.4553C49.2119 52.7873 49.7979 52.9583 50.3969 52.9583 50.6179 52.9583 50.8399 52.9353 51.0619 52.8883 51.8829 52.7133 52.5869 52.2303 53.0409 51.5293L53.2139 51.2623C54.1549 49.8113 53.7399 47.8633 52.2889 46.9223L52.0219 46.7493C50.5699 45.8073 48.6229 46.2233 47.6809 47.6743L47.5079 47.9423C47.0539 48.6423 46.8999 49.4813 47.0749 50.3023 47.2509 51.1253 47.7329 51.8273 48.4339 52.2823"/>
    <path fill="#202225" d="M49.248 49.6161C49.533 49.8011 49.917 49.7191 50.102 49.4341 50.287 49.1491 50.205 48.7651 49.92 48.5801 49.635 48.3951 49.251 48.4771 49.066 48.7621 48.881 49.0471 48.963 49.4311 49.248 49.6161M50.8022 50.6239C51.0872 50.8089 51.4712 50.7269 51.6562 50.4419 51.8412 50.1569 51.7592 49.7729 51.4732 49.5879 51.1892 49.4029 50.8042 49.4849 50.6202 49.7699 50.4352 50.0549 50.5172 50.4389 50.8022 50.6239M42.2441 66.7714C42.1861 66.7714 42.1341 66.7874 42.0811 66.8044 41.8761 66.8734 41.7251 67.0624 41.7251 67.2904 41.7251 68.3044 40.9001 69.1294 39.8851 69.1294 38.8701 69.1294 38.0451 68.3044 38.0451 67.2904L38.0451 66.1684 38.0451 65.8344C38.0451 64.8194 38.8701 63.9944 39.8861 63.9944 40.1731 63.9944 40.4041 63.7624 40.4041 63.4754 40.4041 63.1884 40.1711 62.9564 39.8851 62.9564 38.2981 62.9564 37.0071 64.2474 37.0071 65.8344L37.0071 67.2904C37.0071 68.8774 38.2981 70.1674 39.8861 70.1674 39.9531 70.1674 40.0181 70.1624 40.0841 70.1584 41.5781 70.0554 42.7641 68.8104 42.7641 67.2904 42.7641 67.0034 42.5311 66.7714 42.2441 66.7714M144.7426 11.6C144.7426 11.63 144.7346 11.675 144.6956 11.714L142.5966 13.812C142.5346 13.875 142.4326 13.875 142.3696 13.812L140.2716 11.714C140.2086 11.651 140.2086 11.549 140.2716 11.486L142.3696 9.388C142.4006 9.357 142.4426 9.341 142.4836 9.341 142.5246 9.341 142.5656 9.357 142.5966 9.388L144.6956 11.487C144.7346 11.525 144.7426 11.57 144.7426 11.6M141.6356 8.654L139.5376 10.752C139.0706 11.22 139.0706 11.98 139.5376 12.448L141.6356 14.546C141.8686 14.78 142.1766 14.897 142.4836 14.897 142.7906 14.897 143.0976 14.78 143.3316 14.546L145.4296 12.448C145.6566 12.222 145.7806 11.921 145.7806 11.6 145.7806 11.28 145.6566 10.978 145.4296 10.752L143.3316 8.654C142.8636 8.187 142.1026 8.187 141.6356 8.654M179.5654 62.3554C179.6714 62.3474 179.7774 62.3434 179.8834 62.3434 180.9854 62.3434 182.0454 62.7794 182.8314 63.5644 183.6914 64.4254 184.1324 65.6154 184.0404 66.8304 183.9094 68.5514 182.7074 70.0334 181.0494 70.5164L174.4764 72.4344C174.2644 72.4974 174.1184 72.3814 174.0664 72.3294 174.0144 72.2764 173.8994 72.1324 173.9614 71.9194L175.8784 65.3464C176.3624 63.6884 177.8434 62.4864 179.5654 62.3554M174.8814 65.0554L172.9644 71.6284C172.8154 72.1384 172.9574 72.6884 173.3324 73.0634 173.6084 73.3394 173.9804 73.4894 174.3594 73.4894 174.4954 73.4894 174.6324 73.4694 174.7674 73.4304L181.3404 71.5134C183.4104 70.9094 184.9114 69.0594 185.0754 66.9084 185.1904 65.3924 184.6404 63.9064 183.5654 62.8304 182.4894 61.7554 181.0034 61.2034 179.4864 61.3204 177.3364 61.4834 175.4854 62.9844 174.8814 65.0554M146.6645 52.3031C146.2365 52.1301 145.7485 52.3371 145.5765 52.7651 145.4035 53.1941 145.6105 53.6811 146.0385 53.8541 146.4665 54.0271 146.9545 53.8201 147.1265 53.3911 147.2995 52.9631 147.0925 52.4761 146.6645 52.3031M143.563 51.0507C143.135 50.8777 142.647 51.0847 142.475 51.5127 142.302 51.9417 142.509 52.4287 142.937 52.6017 143.365 52.7747 143.853 52.5677 144.025 52.1387 144.198 51.7107 143.991 51.2237 143.563 51.0507M149.7661 53.5551C149.3381 53.3821 148.8501 53.5891 148.6781 54.0171 148.5051 54.4461 148.7121 54.9331 149.1401 55.1061 149.5681 55.2791 150.0561 55.0721 150.2281 54.6431 150.4011 54.2151 150.1941 53.7281 149.7661 53.5551M9.0092 81.6972C9.0092 81.7502 8.9642 81.7952 8.9112 81.7952L6.8532 81.7952C6.8012 81.7952 6.7552 81.7492 6.7552 81.6972L6.7552 81.5572C6.7552 80.9362 7.2602 80.4302 7.8832 80.4302 8.5042 80.4302 9.0092 80.9362 9.0092 81.5572L9.0092 81.6972zM7.8812 79.3922C6.6882 79.3922 5.7172 80.3642 5.7172 81.5572L5.7172 81.6972C5.7172 82.3232 6.2262 82.8332 6.8532 82.8332L8.9112 82.8332C9.5372 82.8332 10.0482 82.3232 10.0482 81.6972L10.0482 81.5572C10.0482 80.3642 9.0762 79.3922 7.8812 79.3922zM71.9843 30.7519C72.4173 30.7519 72.7683 31.1029 72.7683 31.5359 72.7683 31.8229 73.0003 32.0549 73.2873 32.0549 73.5743 32.0549 73.8063 31.8229 73.8063 31.5359 73.8063 31.1029 74.1573 30.7519 74.5903 30.7519 74.8773 30.7519 75.1093 30.5199 75.1093 30.2329 75.1093 29.9459 74.8773 29.7139 74.5903 29.7139 74.1573 29.7139 73.8063 29.3629 73.8063 28.9299 73.8063 28.6439 73.5743 28.4109 73.2873 28.4109 73.0003 28.4109 72.7683 28.6439 72.7683 28.9299 72.7683 29.3629 72.4173 29.7139 71.9843 29.7139 71.6973 29.7139 71.4653 29.9459 71.4653 30.2329 71.4653 30.5199 71.6973 30.7519 71.9843 30.7519M83.0761 57.0819L83.3411 57.0819C83.6281 57.0819 83.8601 57.3139 83.8601 57.6009L83.8601 57.8659C83.8601 58.1519 84.0931 58.3849 84.3791 58.3849 84.6661 58.3849 84.8981 58.1519 84.8981 57.8659L84.8981 57.6009C84.8981 57.3139 85.1311 57.0819 85.4171 57.0819L85.6821 57.0819C85.9691 57.0819 86.2011 56.8499 86.2011 56.5619 86.2011 56.2759 85.9691 56.0429 85.6821 56.0429L85.4171 56.0429C85.1311 56.0429 84.8981 55.8109 84.8981 55.5239L84.8981 55.2599C84.8981 54.9729 84.6661 54.7409 84.3791 54.7409 84.0931 54.7409 83.8601 54.9729 83.8601 55.2599L83.8601 55.5239C83.8601 55.8109 83.6281 56.0429 83.3411 56.0429L83.0761 56.0429C82.7891 56.0429 82.5571 56.2759 82.5571 56.5619 82.5571 56.8499 82.7891 57.0819 83.0761 57.0819M102.7075 43.5004C102.8405 43.5004 102.9735 43.4494 103.0745 43.3484L103.6885 42.7334C103.8915 42.5314 103.8915 42.2024 103.6885 42.0004 103.4855 41.7974 103.1565 41.7974 102.9545 42.0004L102.3405 42.6144C102.1375 42.8174 102.1375 43.1464 102.3405 43.3484 102.4415 43.4494 102.5745 43.5004 102.7075 43.5004M99.6367 46.5712C99.7697 46.5712 99.9027 46.5202 100.0037 46.4192L100.6177 45.8052C100.8207 45.6022 100.8207 45.2742 100.6177 45.0712 100.4147 44.8682 100.0867 44.8682 99.8837 45.0712L99.2697 45.6852C99.0667 45.8882 99.0667 46.2162 99.2697 46.4192 99.3707 46.5202 99.5037 46.5712 99.6367 46.5712M102.9546 46.4193C103.0566 46.5203 103.1886 46.5713 103.3216 46.5713 103.4546 46.5713 103.5876 46.5203 103.6886 46.4193 103.8916 46.2163 103.8916 45.8883 103.6886 45.6853L103.0746 45.0713C102.8716 44.8683 102.5436 44.8683 102.3406 45.0713 102.1376 45.2733 102.1376 45.6023 102.3406 45.8053L102.9546 46.4193zM99.8838 43.3485C99.9848 43.4495 100.1178 43.5005 100.2508 43.5005 100.3838 43.5005 100.5158 43.4495 100.6178 43.3485 100.8208 43.1455 100.8208 42.8175 100.6178 42.6145L100.0038 41.9995C99.8008 41.7975 99.4718 41.7975 99.2698 41.9995 99.0668 42.2025 99.0668 42.5315 99.2698 42.7335L99.8838 43.3485zM101.479 58.3798C101.911 58.3798 102.263 58.7318 102.263 59.1638 102.263 59.5958 101.911 59.9468 101.479 59.9468 101.047 59.9468 100.695 59.5958 100.695 59.1638 100.695 58.7318 101.047 58.3798 101.479 58.3798M101.479 60.9848C102.484 60.9848 103.301 60.1678 103.301 59.1638 103.301 58.1588 102.484 57.3418 101.479 57.3418 100.475 57.3418 99.657 58.1588 99.657 59.1638 99.657 60.1678 100.475 60.9848 101.479 60.9848M151.1831 34.9047C152.4681 34.9047 153.5191 33.8537 153.5191 32.5687 153.5191 31.2837 152.4681 30.2327 151.1831 30.2327 149.8981 30.2327 148.8471 31.2837 148.8471 32.5687 148.8471 33.8537 149.8981 34.9047 151.1831 34.9047M155.4677 29.7743C155.7547 29.7743 155.9867 29.5423 155.9867 29.2553 155.9867 28.9683 155.7547 28.7363 155.4677 28.7363 153.9257 28.7363 153.3827 27.4223 153.3567 27.3573 153.2537 27.0903 152.9547 26.9583 152.6877 27.0593 152.4197 27.1613 152.2847 27.4613 152.3867 27.7293 152.4197 27.8123 153.1937 29.7743 155.4677 29.7743"/>
  </g>
</svg>
