<svg xmlns="http://www.w3.org/2000/svg" viewBox="0 0 171 108"><style>.st3{fill:#ffcff9}.st5{fill:#aec7ff}.st6{fill:#7196ff}.st7{fill:#ebf0f7}</style><path d="M85.5 0L59.7 25.9v36.4L85.5 88l25.9-25.9V25.9L85.5 0z" fill="#fa6ef6"/><path d="M85.5 0v18.3l12.9 12.9 12.9-5.3L85.5 0z" fill="#ffadfb"/><path d="M72.6 56.8l-12.9 5.4L85.5 88V69.8l-12.9-13z" fill="#e655d4"/><path class="st3" d="M72.6 31.2v25.7l12.9 12.9 12.9-12.9V31.2L85.5 18.3 72.6 31.2z"/><path d="M98.5 31.2v.1L72.7 56.9h-.1v-7l22.3-22.3 3.6 3.6zm0 9.7V48L81.1 65.4l-3.5-3.7 20.9-20.8z" fill="#fff"/><path class="st3" d="M64.2 17.1l-4.2 2c-.5.3-1.3 0-1.6-.5-.1-.3-.1-.7 0-1l2-4.2c.2-.3.2-.7 0-1l-2-4.2c-.3-.6 0-1.3.5-1.6.3-.1.6-.1.9 0l4.2 2c.3.2.7.2 1 0l4.2-2c.6-.3 1.3 0 1.6.5.2.3.2.6.1.9l-2 4.2c-.2.3-.2.7 0 1l2 4.2c.3.5 0 1.3-.5 1.6-.3.1-.7.1-1 0l-4.2-2c-.2-.1-.6-.1-1 .1z"/><path class="st5" d="M131.1 39.2c3.2-1.4 6.9.2 8.1 3.3l10.5 25.6-11.6 4.8-10.5-25.4c-1.3-3.3.3-6.9 3.5-8.3zm9.3-23.4c3.2-1.4 6.9.2 8.1 3.3l11.6 27.8-11.6 4.8L137.1 24c-1.4-3.2.2-6.9 3.3-8.2z"/><path class="st5" d="M132.6 26.4c3.2-1.4 6.9.2 8.1 3.3l10.6 25.6-11.6 4.8-10.5-25.5c-1.3-3.2.2-6.9 3.4-8.2z"/><path class="st6" d="M145.6 57.7l-5.8 2.4-8.7-20.9c-.5.2-1 .5-1.5.8l8.6 20.7c.3.6.8 1 1.6 1 .2 0 .4 0 .6-.1l5.8-2.4-.6-1.5zm4.2-6.4l-1.1.5-10.4-25.1c-.6-.4-1.4-.6-2.2-.8l11.1 26.6c.3.6.8 1 1.6 1 .2 0 .4 0 .6-.1l1.1-.5c-.1 0-.7-1.6-.7-1.6z"/><path class="st7" d="M155.3 85.2h-38.7v11.9h38.7V85.2zm4-39.9c2.4 2.4 2.4 6.4 0 8.9l-17.9 17.9-8.9-8.9 17.9-17.9c2.5-2.4 6.5-2.4 8.9 0z"/><path class="st7" d="M164.7 18.4c3.4 0 6.3 2.8 6.3 6.3v22.9h-12.5v-23c-.1-3.4 2.6-6.2 6.2-6.2zM116.6 97V85.2c0-11.2 6.8-21.3 17.1-25.6l12.1-5 9.5 23V97h-38.7z"/><path class="st7" d="M167.1 65.3L160.2 77c-3.1 5.4-4.8 11.5-4.8 17.7V97h-38.7l41.7-41.9V37.7h12.5V51c-.1 5-1.3 9.9-3.8 14.3z"/><path class="st5" d="M160.4 44.2c-3.1-3.1-8-3.1-11.2 0l1.1 1.1c2.5-2.5 6.5-2.4 8.9 0 2.5 2.5 2.4 6.5 0 8.9l-10.5 10.5c-.1.1-.2.3-.2.5v9.1c0 .4.3.8.7.8s.8-.3.8-.7v-8.8l10.2-10.2c3.3-3.1 3.3-8.2.2-11.2zm-43.8 45.5v3.1L149 97h6.3v-2.3l-38.7-5z"/><path class="st7" d="M116.6 91.5l38.8 5c3.1.4 5.4 3.3 5 6.5-.4 3.1-3.3 5.4-6.5 5l-38.8-5c-3.1-.4-5.4-3.3-5-6.5.4-3.2 3.3-5.4 6.5-5z"/><path class="st5" d="M32.8 72.9l-11.6-4.8 10.5-25.5c1.4-3.2 5-4.7 8.1-3.3 3.2 1.4 4.7 5 3.3 8.1L32.8 72.9zM22.5 51.8L11 47l11.6-27.9c1.4-3.2 5-4.7 8.1-3.3 3.2 1.4 4.7 5 3.3 8.1L22.5 51.8z"/><path class="st5" d="M31.3 60.1l-11.6-4.8 10.5-25.6c1.4-3.2 5-4.7 8.1-3.3 3.2 1.4 4.7 5 3.3 8.1L31.3 60.1z"/><path class="st6" d="M41.4 40.1c-.4-.3-.9-.6-1.5-.8l-8.7 20.9-5.8-2.4-.6 1.6 5.8 2.4c.2.1.4.1.6.1.7 0 1.3-.4 1.6-1 .1-.2 8.6-20.8 8.6-20.8zm-8.5-13.3L22.4 51.9l-1.1-.5-.6 1.6 1.1.5c.2.1.4.1.6.1.7 0 1.3-.4 1.6-1l10.9-26.5c-.7 0-1.4.3-2 .7z"/><path class="st7" d="M54.4 85.1H15.7V97h38.7V85.1zM38.5 63.2l-8.9 8.9-17.8-17.9c-2.4-2.4-2.4-6.4 0-8.9 2.4-2.4 6.4-2.4 8.9 0l17.8 17.9z"/><path class="st7" d="M12.7 47.6H.1v-23c0-3.4 2.8-6.3 6.3-6.3s6.3 2.8 6.3 6.3c-.1 0 0 23 0 23zM54.4 97V85.2c0-11.2-6.8-21.3-17.1-25.6l-12.1-5-9.5 23V97h38.7z"/><path class="st7" d="M4 65.3L10.8 77c3.1 5.4 4.8 11.5 4.8 17.7V97h38.7L12.6 55.1V37.7H0V51c.1 5 1.5 9.9 4 14.3z"/><path class="st5" d="M10.6 44.2c3-3.1 8-3.1 11.2 0l-1.1 1.1c-2.5-2.5-6.5-2.4-8.9 0-2.5 2.5-2.4 6.5 0 8.9l10.5 10.5c.1.1.2.3.2.5v9.1c0 .4-.3.8-.7.8s-.8-.2-.8-.6v-8.8L10.7 55.5c-3.2-3.2-3.2-8.3-.1-11.3zm43.8 45.5v3.1L22 97h-6.3v-2.3l38.7-5z"/><path class="st7" d="M56 102.9l-38.8 5c-3.1.4-6.1-1.9-6.5-5-.4-3.1 1.9-6.1 5-6.5l38.8-5c3.1-.4 6 1.9 6.5 5 .4 3.3-1.9 6.2-5 6.5z"/></svg>