<svg id="Layer_1" data-name="Layer 1" xmlns="http://www.w3.org/2000/svg" viewBox="0 0 48 48"><defs><style>.cls-1{fill:#4f81ff;}.cls-2{fill:#2f3136;}.cls-3{fill:#ffd836;}.cls-4,.cls-6{fill:#fff;}.cls-5{fill:#f47fff;}.cls-6{font-size:10.71px;font-family:Whitney-Bold, Whitney;font-weight:700;}</style></defs><circle class="cls-1" cx="24" cy="24" r="20"/><rect class="cls-2" x="15.5" y="11" width="17" height="26" rx="1.94"/><rect class="cls-2" x="17.39" y="13" width="13.22" height="22"/><path class="cls-2" d="M25.51,26.42,26,27a2.61,2.61,0,0,0,2.18-1.09,9.53,9.53,0,0,0-1-4.16,3.53,3.53,0,0,0-2-.75l-.1.11a4.84,4.84,0,0,1,1.77.91,5.58,5.58,0,0,0-2.15-.68,5.75,5.75,0,0,0-1.44,0H23.1a5.46,5.46,0,0,0-1.62.45l-.42.21a4.9,4.9,0,0,1,1.88-.94L22.86,21a3.53,3.53,0,0,0-2,.75,9.53,9.53,0,0,0-1,4.16A2.59,2.59,0,0,0,22,27l.48-.59a2.19,2.19,0,0,1-1.25-.85l.2.13,0,0,.07,0c.18.1.36.18.52.25a6.41,6.41,0,0,0,1.05.3,5,5,0,0,0,1.85,0A4.88,4.88,0,0,0,26,26a4.26,4.26,0,0,0,.82-.42A2.25,2.25,0,0,1,25.51,26.42Zm-2.85-1.17a.8.8,0,1,1,.73-.79A.76.76,0,0,1,22.66,25.25Zm2.61,0a.8.8,0,1,1,.73-.79A.77.77,0,0,1,25.27,25.25Z"/><rect class="cls-3" x="15.5" y="11" width="17" height="26" rx="1.94"/><rect class="cls-4" x="17.39" y="13" width="13.22" height="22"/><path class="cls-1" d="M25.51,26.42,26,27a2.61,2.61,0,0,0,2.18-1.09,9.53,9.53,0,0,0-1-4.16,3.53,3.53,0,0,0-2-.75l-.1.11a4.84,4.84,0,0,1,1.77.91,5.58,5.58,0,0,0-2.15-.68,5.75,5.75,0,0,0-1.44,0H23.1a5.46,5.46,0,0,0-1.62.45l-.42.21a4.9,4.9,0,0,1,1.88-.94L22.86,21a3.53,3.53,0,0,0-2,.75,9.53,9.53,0,0,0-1,4.16A2.59,2.59,0,0,0,22,27l.48-.59a2.19,2.19,0,0,1-1.25-.85l.2.13,0,0,.07,0c.18.1.36.18.52.25a6.41,6.41,0,0,0,1.05.3,5,5,0,0,0,1.85,0A4.88,4.88,0,0,0,26,26a4.26,4.26,0,0,0,.82-.42A2.25,2.25,0,0,1,25.51,26.42Zm-2.85-1.17a.8.8,0,1,1,.73-.79A.76.76,0,0,1,22.66,25.25Zm2.61,0a.8.8,0,1,1,.73-.79A.77.77,0,0,1,25.27,25.25Z"/><circle class="cls-5" cx="41" cy="11" r="7"/><text class="cls-6" transform="translate(38.63 14.61)">1</text></svg>