<svg xmlns="http://www.w3.org/2000/svg" width="160" height="160" viewBox="0 0 160 160" xmlns:xlink="http://www.w3.org/1999/xlink">
  <defs>
    <path id="a" d="M3.98948134,0.107116587 C3.7624259,0.793792649 3.55000844,1.52202517 3.354,2.295 C-8.30699457,48.2727909 23.1356293,88.5376789 54.3575092,97.6906807 L61.8074636,97.6906807 L61.8074636,72.9139621 C34.6904294,46.4900802 31.2616246,12.41303 30.9568456,0.107116587 L3.98948134,0.107116587 L3.98948134,0.107116587 Z"/>
    <path id="c" d="M30.5974926,60.8628843 C13.536926,37.0149198 11.1724968,11.0224757 10.9508036,0.8476 L0.852751624,0.8476 L0.852751624,60.8628842 L30.5974926,60.8628842 L30.5974926,60.8628843 Z"/>
    <path id="e" d="M10.3011343,11.4633674 C7.40290725,7.78434388 4.87773128,4.03102875 2.67795779,0.2716 L0.621739915,0.2716 L0.621739915,20.5862234 L10.3011343,20.5862234 L10.3011343,11.4633674 L10.3011343,11.4633674 Z"/>
    <path id="g" d="M0.265096872,11.5586 C2.2433479,6.13749334 3.94,0.618 3.94,0.618 C3.94,0.618 4.599,0.447 5.693,0.447 C8.173,0.447 12.889,1.325 17.23,7.064 L14.5638419,11.5586 L0.265096872,11.5586 L0.265096872,11.5586 Z"/>
    <path id="i" d="M0.2464,21.4284273 C1.27494699,21.358859 2.23367432,21.2807772 2.926,21.253 L7.642,21.543 C7.642,21.543 8.657,19.724 9.241,16.616 C9.853,13.352 9.868,9.092 9.868,9.092 L5.592,7.1 C3.995,5.753 2.028,2.11 0.428,0.808 C0.367369146,0.758690303 0.306835865,0.709342376 0.2464,0.659956443 L0.2464,21.4284273 L0.2464,21.4284273 Z"/>
  </defs>
  <g fill="none" fill-rule="evenodd">
    <g transform="translate(10 7)">
      <g transform="translate(0 .573)">
        <path stroke="#D5DBED" stroke-width="2" d="M96.3411,11.1256 C104.7681,14.5426 112.6631,19.6676 119.4981,26.5026 C146.8341,53.8386 146.8341,98.1606 119.4971,125.4976 C92.1601,152.8336 47.8391,152.8336 20.5021,125.4976 C-6.8339,98.1606 -6.8339,53.8396 20.5031,26.5026 C37.7041,9.3016 61.6311,2.9236 83.8191,7.3696" stroke-linecap="round" stroke-linejoin="round" stroke-dasharray="4 5"/>
        <path stroke="#D5DBED" stroke-width="2" d="M98.2844,104.2843 C82.6634,119.9053 57.3364,119.9053 41.7154,104.2843 C26.0944,88.6633 26.0954,63.3373 41.7154,47.7163 C57.3364,32.0953 82.6634,32.0953 98.2844,47.7153 C113.9054,63.3363 113.9054,88.6633 98.2844,104.2843 Z" stroke-linecap="round" stroke-linejoin="round" stroke-dasharray="4 5"/>
        <path fill="#FFD773" d="M72.9407,0.6178 C72.9407,0.6178 79.9747,-1.2062 86.2307,7.0648 L79.6257,18.1968 C77.2527,22.1978 75.9977,26.7628 75.9937,31.4148 C75.9937,31.4148 72.7417,81.7188 113.4277,114.8078 C115.0277,116.1098 116.9947,119.7528 118.5917,121.0998 L122.8677,123.0928 C122.8677,123.0928 122.8527,127.3518 122.2407,130.6168 C121.6577,133.7238 120.6427,135.5428 120.6427,135.5428 L115.9267,135.2538 C114.2807,135.3188 111.1317,135.6688 109.1157,135.5138 C75.1987,132.9138 35.4707,89.0908 48.3537,38.2948 C52.2717,22.8478 62.7407,25.2688 65.6297,20.1328 C68.5197,14.9968 72.9407,0.6178 72.9407,0.6178"/>
      </g>
      <g transform="translate(45 .573)">
        <g transform="translate(0 36)">
          <mask id="b" fill="white">
            <use xlink:href="#a"/>
          </mask>
          <path fill="#FFC043" d="M-3.7952,24.8307 C-3.7952,24.8307 4.3958,-4.2483 14.2258,0.6667 C24.0558,5.5817 17.1928,19.8667 26.0028,40.8037 C36.0548,64.6917 51.9058,78.0737 57.6398,82.5797 C63.3728,87.0847 66.2398,103.8767 45.3518,95.2757 C24.4648,86.6747 -1.7472,53.9097 -3.7952,24.8307" mask="url(#b)"/>
        </g>
        <g transform="translate(20 35)">
          <mask id="d" fill="white">
            <use xlink:href="#c"/>
          </mask>
          <path fill="#FFFFFF" d="M13.5755,19.6876 C13.5755,19.6876 11.0175,0.8476 5.2835,0.8476 C-0.4495,0.8476 -3.6265,36.4796 15.2135,59.0056 C22.8875,68.1806 17.5705,40.1656 35.1815,44.2616 C52.7935,48.3566 29.5485,65.1486 13.5755,19.6876" mask="url(#d)"/>
        </g>
        <g transform="translate(43 88)">
          <mask id="f" fill="white">
            <use xlink:href="#e"/>
          </mask>
          <path fill="#FFFFFF" d="M4.8098,0.2716 C4.8098,0.2716 -0.1052,10.5106 0.7138,15.0156 C1.5338,19.5216 6.0388,23.6166 8.9058,17.4736 C11.7718,11.3296 10.1338,0.6816 4.8098,0.2716" mask="url(#f)"/>
        </g>
        <path fill="#FFD773" d="M29.3797,6.359 L25.2837,23.561 L36.3417,8.817 C36.3417,8.817 33.0657,10.045 29.3797,6.359"/>
        <g transform="translate(24)">
          <mask id="h" fill="white">
            <use xlink:href="#g"/>
          </mask>
          <path fill="#FFC043" d="M-1.3913,0.9356 C-1.3913,0.9356 5.7577,10.3876 22.2677,11.5586 L27.1537,0.1046 L-0.0443,-10.5724 L-1.3913,0.9356 Z" mask="url(#h)"/>
        </g>
        <g transform="translate(68 114)">
          <mask id="j" fill="white">
            <use xlink:href="#i"/>
          </mask>
          <polygon fill="#FFC043" points="6.368 4.109 .246 24.837 11.366 26.218 22.467 .424" mask="url(#j)"/>
        </g>
        <path fill="#FFC043" d="M22.0076,30.7281 C22.0076,33.5551 19.6236,35.8481 16.6836,35.8481 C13.7426,35.8481 11.3586,33.5551 11.3586,30.7281 C11.3586,27.9001 13.7426,25.6081 16.6836,25.6081 C19.6236,25.6081 22.0076,27.9001 22.0076,30.7281"/>
      </g>
      <g transform="translate(12 .573)">
        <path stroke="#1E2126" stroke-width="2" d="M67.1624 59.5411C67.2574 59.9311 67.3554 60.3231 67.4564 60.7171 71.7314 77.4271 81.0904 98.2681 101.4274 114.8081 103.0274 116.1101 104.9954 119.7531 106.5914 121.1001L108.6664 122.0671C110.0234 122.6991 110.8664 124.0901 110.7864 125.5861 110.7064 127.0651 110.5494 128.9681 110.2404 130.6161 110.0864 131.4351 109.9034 132.1651 109.7164 132.7941 109.2324 134.4221 107.6714 135.4831 105.9764 135.3791L103.9264 135.2531C102.2814 135.3191 99.1314 135.6681 97.1164 135.5141 63.1984 132.9141 23.4714 89.0911 36.3534 38.2951 40.2714 22.8481 50.7404 25.2691 53.6304 20.1331 55.8994 16.0991 59.1134 6.3641 60.3884 2.3711 60.7694 1.1781 61.8994.4031 63.1504.4571 65.4414.5541 69.1984 1.4331 72.8794 5.4411 73.7094 6.3441 73.8634 7.6831 73.2374 8.7381L67.6254 18.1971C65.2524 22.1971 63.9974 26.7631 63.9934 31.4151 63.9934 31.4151 63.5144 38.8241 65.2244 49.8251M69.0549 9.1993C69.9019 9.3823 70.8209 9.5373 71.8179 9.6543M60.365 4.7682C60.365 4.7682 61.203 5.9182 63.362 7.1292M103.9265 134.6075C103.9265 134.6075 101.7255 131.0405 106.5915 121.1005" stroke-linecap="round" stroke-linejoin="round"/>
        <path fill="#7187DD" d="M49.8635,70.2091 C51.5655,76.7781 49.8455,82.9061 46.0245,83.8961 C42.2015,84.8861 37.7235,80.3641 36.0225,73.7941 C34.3205,67.2261 36.0395,61.0981 39.8615,60.1071 C43.6835,59.1181 48.1615,63.6401 49.8635,70.2091"/>
        <path stroke="#1E2126" stroke-width="2" d="M49.8635 70.2091C51.5655 76.7781 49.8455 82.9061 46.0245 83.8961 42.2015 84.8861 37.7235 80.3641 36.0225 73.7941 34.3205 67.2261 36.0395 61.0981 39.8615 60.1071 43.6835 59.1181 48.1615 63.6401 49.8635 70.2091zM74.6131 102.5616C76.9551 105.2676 79.6021 108.0356 82.5881 110.8036M57.7942 73.6031C57.7942 73.6031 60.7322 85.1711 71.8182 99.1851M65.9788 8.3199C66.1898 8.3969 66.4068 8.4719 66.6318 8.5459" stroke-linecap="round" stroke-linejoin="round"/>
        <path stroke="#D5DBED" stroke-width="2" d="M17.28 108.9898L17.28 114.0098M19.7903 111.5001L14.7703 111.5001M92.7976 24.4503L91.6136 25.6333M86.8811 30.3663L85.6981 31.5503M92.7976 31.5499L91.6136 30.3659M86.8811 25.6334L85.6981 24.4504M5.8162 96.8307C5.8162 98.2167 4.6922 99.3407 3.3062 99.3407 1.9202 99.3407.7952 98.2167.7952 96.8307.7952 95.4447 1.9202 94.3207 3.3062 94.3207 4.6922 94.3207 5.8162 95.4447 5.8162 96.8307z" stroke-linecap="round" stroke-linejoin="round"/>
      </g>
    </g>
    <rect width="160" height="160"/>
  </g>
</svg>
