<svg viewBox="0 0 48 48" xmlns="http://www.w3.org/2000/svg"><path d="m48 24a24 24 0 1 1 -24-24 24 24 0 0 1 24 24z" fill="#ffd836"/><path d="m29.93 39.35a15.22 15.22 0 0 0 -11.87 0 5.95 5.95 0 0 1 10.15-3.85 5.83 5.83 0 0 1 1.72 3.85z" fill="#36393f"/><rect fill="#a63a0c" height="2.29" rx="1.15" width="8.96" x="29.23" y="26.94"/><rect fill="#a63a0c" height="2.29" rx="1.15" width="8.96" x="9.81" y="26.94"/><path d="m9 9.39-2.52 5a2.82 2.82 0 0 0 2.52 4.1 2.81 2.81 0 0 0 2.51-4.07z" fill="#fff"/></svg>