<svg height="527.03003" width="389.42001" xmlns="http://www.w3.org/2000/svg"><g transform="matrix(10 0 0 -10 -3532.75 3263.27)"><path d="m353.559 326.045h38.374v-52.138h-38.374z" fill="#1b1615"/><g fill="#fff"><path d="m391.652 274.189h-37.811v51.571h37.811zm.565 52.138h-.565-37.811-.566v-.567-51.571-.565h.566 37.811.565v.565 51.571z"/><path d="m389.615 323.833h-33.721v-7.867h33.721z"/><path d="m355.957 314.023h33.663v-30.673h-33.663z"/><g><path d="m355.9955 276.6545v4.612h6.778v-1.079h-4.056v-.659h3.435v-1.075h-3.435v-.723h4.215v-1.076z"/><path d="m368.6925 279.9231c-.042.157-.196.256-.393.314-.193.057-.434.085-.704.085-.598 0-.866-.098-.866-.27 0-.682 4.779-.255 4.779-1.932 0-1.069-1.608-1.589-3.889-1.589-2.194 0-3.626.711-3.683 1.545h2.607c.059-.169.222-.287.454-.363.217-.079.504-.116.774-.116.681 0 1.132.118 1.132.336 0 .698-4.783.218-4.783 1.977 0 .981 1.527 1.473 3.604 1.473 2.307 0 3.361-.654 3.558-1.46z"/><path d="m375.5848 279.2679h1.071c.845 0 1.298.122 1.298.438 0 .326-.461.481-1.097.481h-1.272zm0-1.007v-1.606h-2.722v4.612h3.927c2.766 0 3.679-.423 3.679-1.318 0-.534-.425-.975-1.395-1.13.876-.177 1.409-.287 1.409-1.217 0-.601-.037-.808.288-.808v-.139h-2.759c-.069.103-.138.396-.138.807 0 .605-.186.799-1.456.799z"/><path d="m384.8653 280.1874v-.772h1.136c.543 0 .936.141.936.405 0 .359-.538.367-1.108.367zm0-1.607v-.85h1.19c.674 0 1.18.077 1.18.421 0 .404-.632.429-1.503.429zm-2.721-1.926v4.612h3.972c1.873 0 3.359-.248 3.359-1.163 0-.475-.555-.819-1.084-1 .898-.129 1.383-.562 1.383-1.058 0-1.027-1.417-1.391-3.578-1.391z"/></g></g><g fill="#1b1615"><path d="m356.7465 317.1413v5.31h2.92v-.816h-1.802v-1.31h1.659v-.816h-1.659v-1.553h1.858v-.815z"/><path d="m360.0215 322.4517h1.162l.829-3.862h.013l.933 3.862h1.105l-1.415-5.31h-1.309z"/><path d="m364.568 317.1413v5.31h2.917v-.816h-1.801v-1.31h1.661v-.816h-1.661v-1.553h1.86v-.815z"/><path d="m369.3663 317.1413h-1.119v5.31h2.065c.387 0 .69-.116.915-.352.224-.236.337-.582.337-1.037 0-.339-.075-.625-.226-.862-.151-.236-.407-.383-.767-.442v-.014c.06-.009.144-.024.252-.044.108-.019.217-.064.323-.132.105-.07.198-.171.276-.306.08-.134.12-.322.12-.564 0-.082 0-.2.002-.351.003-.153.01-.31.02-.473.009-.16.023-.31.039-.448.018-.136.039-.232.066-.285h-1.098c-.074.16-.112.329-.115.507-.001.175-.001.35-.001.521 0 .158-.003.307-.005.449-.003.142-.027.267-.074.372s-.127.19-.236.253c-.112.064-.274.097-.486.097h-.288zm0 3.015h.497c.106 0 .199.024.272.075.074.048.133.109.177.187.044.076.076.16.094.253.017.093.026.181.026.264 0 .256-.052.436-.153.54-.101.107-.239.16-.416.16h-.497z"/><path d="m373.2604 318.9787-1.4 3.473h1.223l.797-2.244.854 2.244h1.138l-1.493-3.473v-1.837h-1.119z"/><path d="m378.1856 317.0519c-.46 0-.816.077-1.068.231-.251.154-.434.361-.548.618-.113.258-.179.551-.2.879-.019.329-.031.668-.031 1.016 0 .353.012.694.031 1.022.021.329.087.621.2.876.114.256.297.46.548.615.252.154.608.231 1.068.231.457 0 .814-.077 1.065-.231.251-.155.434-.359.548-.615.112-.255.18-.547.199-.876.02-.328.031-.669.031-1.022 0-.348-.011-.687-.031-1.016-.019-.328-.087-.621-.199-.879-.114-.257-.297-.464-.548-.618s-.608-.231-1.065-.231m0 .795c.155 0 .282.037.377.114.093.076.165.192.213.349.051.157.082.359.097.607.015.247.021.54.021.879s-.006.632-.021.879c-.015.248-.046.45-.097.607-.048.157-.12.273-.213.35-.095.076-.222.113-.377.113-.16 0-.286-.037-.379-.113-.096-.077-.165-.193-.216-.35-.049-.157-.08-.359-.096-.607-.013-.247-.02-.54-.02-.879s.007-.632.02-.879c.016-.248.047-.45.096-.607.051-.157.12-.273.216-.349.093-.077.219-.114.379-.114"/><path d="m380.9258 317.1413v5.31h1.508l1.423-3.678h.015v3.678h1.044v-5.31h-1.474l-1.459 3.883h-.014v-3.883z"/><path d="m385.8551 317.1413v5.31h2.918v-.816h-1.8v-1.31h1.659v-.816h-1.659v-1.553h1.859v-.815z"/></g><path d="m386.7499 286.2836c.319.008.395.137.395.284 0 .154-.076.233-.348.233h-.404v-.517zm-.357-.317v-.865h-.339v2.016h.704c.397 0 .803-.102.803-.557 0-.231-.145-.417-.437-.474v-.006c.296-.054.333-.183.367-.4.031-.187.055-.399.125-.579h-.429c-.025.113-.059.246-.071.36-.023.173-.023.338-.121.431-.087.074-.201.065-.318.074zm1.907.117c0 .777-.676 1.406-1.514 1.406-.842 0-1.524-.629-1.524-1.406 0-.779.682-1.416 1.524-1.416.838 0 1.514.637 1.514 1.416m-3.365 0c0 .944.822 1.709 1.851 1.709 1.019 0 1.841-.765 1.841-1.709 0-.948-.822-1.716-1.841-1.716-1.029 0-1.851.768-1.851 1.716" fill="#1b1615"/><path d="m359.3315 307.5136 19.105 5.69 1.914-6.033-9.569-2.847.783-2.469 8.841 2.631 1.913-6.038-8.836-2.627.824-2.601 9.883 2.945 1.917-6.03-19.416-5.785z" fill="#1b1615"/></g></svg>