<svg height="24" viewBox="0 0 24 24" width="24" xmlns="http://www.w3.org/2000/svg"><g fill="none" fill-rule="evenodd"><path d="m22 11.0722236c-1.1766935-.6816686-2.5428514-1.0722236-4-1.0722236-2.8221425 0-5.3089494 1.4672796-6.7335684 3.6820583l-5.2664316-4.6820583v-2l5-5h2l9 8zm-4.2928932-8.36511682c.3905243-.39052429 1.0206048-.39360874 1.4208384.00662481l1.4009639 1.40096394c.3941831.39418308.3998718 1.02759142.0066248 1.42083838-.3905243.39052429-1.0206048.39360874-1.4208384-.00662481l-1.4009639-1.40096395c-.3941831-.39418307-.3998718-1.02759141-.0066248-1.42083837zm-9.34314577 10.29289322 2.12132037 2.1213203-6.36396106 6.3639611-2.12132034-2.1213204z" fill="#4f545c" opacity=".6"/><path d="m0 0h24v24h-24z"/></g></svg>