<svg fill="none" height="464" viewBox="0 0 240 464" width="240" xmlns="http://www.w3.org/2000/svg" xmlns:xlink="http://www.w3.org/1999/xlink"><clipPath id="a"><path d="m0 0h240v464h-240z"/></clipPath><g clip-path="url(#a)"><path d="m38 367h-7v32h7z" fill="#837c8a"/><path d="m12.08 395h43.84c1.0821 0 2.1198.43 2.885 1.195.7651.765 1.195 1.803 1.195 2.885v2.71c0 .851-.3382 1.668-.9402 2.27s-1.4185.94-2.2698.94h-45.79c-.7957 0-1.55872-.316-2.12133-.879-.56261-.562-.87868-1.325-.87868-2.121v-2.9c-.00264-.537.10095-1.07.30481-1.567.20386-.498.50397-.95.8831-1.331.37912-.381.8298-.683 1.3261-.89.4963-.206 1.0285-.312 1.566-.312z" fill="#bab5bf"/><path d="m8 398.53h52v4c.0026.323-.0588.644-.1807.944-.122.299-.302.572-.5298.801-.2277.23-.4987.412-.7973.537-.2985.124-.6188.188-.9422.188h-47.1c-.64978 0-1.27295-.258-1.73241-.718-.45947-.459-.71759-1.082-.71759-1.732v-4z" fill="#978ca2"/><path d="m8 398.53h11v6.47h-8.18c-.7479 0-1.46519-.297-1.99404-.826s-.82596-1.246-.82596-1.994z" fill="#877d91"/><path d="m16.32 353.16c.0214-.94.2871-1.859.771-2.665.4839-.807 1.1694-1.474 1.989-1.935 1.0871-.514 2.0546-1.25 2.84-2.16 1.61-1.94 4.35-4.34 5.36.19 0 0 2.92 12.42-5.85 12.42 0-.01-4.38.73-5.11-5.85z" fill="#f3c46b"/><path d="m20.49 352.34c-.0026 1.547-.6191 3.03-1.714 4.123-1.095 1.093-2.5789 1.707-4.126 1.707-3.22 0-7.45-2.71-6.67-5.83 1.67-6.67 5-2.5 5.84-3.34 3.77-3.77 6.67.11 6.67 3.34z" fill="#e29391"/><path d="m1 355h34s-16 24-34 0z" fill="#e4e4e4"/><path d="m11.73 346.92c.07-.28 1.67 0 1.67 2.5" stroke="#c28988" stroke-linecap="round" stroke-miterlimit="10" stroke-width=".83"/><path d="m38 375-7-2v-6h7z" fill="#736e78"/><path d="m7.89001 355c.11 0 3.10999 8 9.10999 9 0 0 10 1 17-9z" fill="#d6d6d6"/><path d="m0 362h45c1.0609 0 2.0783.421 2.8284 1.172.7502.75 1.1716 1.767 1.1716 2.828s-.4214 2.078-1.1716 2.828c-.7501.751-1.7675 1.172-2.8284 1.172h-45z" fill="#9b93a2"/><path d="m86 402.65-13-32.65s61-35 105-126c0 0 40 10 62 3v155.65z" fill="#d56b95"/><path d="m182 323c0 1 9 44 34 58 0 0-9 7-8.69 21.65h-10.9z" fill="#923963"/><path d="m184.15 265.74-.15 17.26 2.77-4.06s-2.98-10.94-2.62-13.2z" fill="#bd94fa"/><path d="m187 279.78s-1 23.22 2 28.22c0 0 2-8 6-11.36-4.435-4.596-7.245-10.517-8-16.86z" fill="#bd94fa"/><path d="m196.49 297.24 1.51 9.76s5.94-11.31 7-16.65c0 0-2 6.13-8.51 6.89z" fill="#a075e0"/><path d="m207.11 290.69s-5.11 16.31-2.11 31.31c0 0 3-9 6-12-3.224-5.894-4.58-12.628-3.89-19.31z" fill="#bd94fa"/><path d="m212 312 3 12 9-12s-7 7-12 0z" fill="#a075e0"/><path d="m224.44 312 1.56 4 1.58-6.52z" fill="#bd94fa"/><path d="m230.07 309.31s-2.07 19.69-.07 23.69l7.22-12.68s-4.08-.7-7.15-11.01z" fill="#a075e0"/><path d="m240 321.37c-8.74-3.67-9.95-13.45-10-13.93l-.13-1.09-.74.81c-5.54 6-10.14 8.39-13.65 7-8.38-3.27-8.48-26.45-8.48-26.68v-2.12l-.95 1.9c-3.42 6.83-6.58 10-9.4 9.49-10-1.91-14.11-47.35-14.15-47.81l-1 .08c.17 1.91 4.19 46.66 15 48.71 3.08.59 6.23-2.13 9.58-8.29.22 5.84 1.49 22.7 9.08 25.66 3.78 1.47 8.51-.73 14.06-6.55.59 2.82 2.92 10.73 10.82 13.87z" fill="#bd94fa"/><path d="m178 244s16 46.76 62 69.88v-67.88s-21 7-62-2z" fill="#af4a70"/><path d="m178 247.16c-.375.003-.738-.132-1.02-.379s-.463-.589-.51-.961l-.95-7.07c-.028-.219-.01-.441.055-.652.064-.211.173-.406.318-.572.146-.166.326-.298.527-.389s.419-.137.64-.137h1.88c.221 0 .439.046.64.137s.381.223.527.389c.145.166.254.361.319.572.064.211.083.433.054.652l-.95 7.07c-.047.372-.228.714-.51.961s-.645.382-1.02.379z" fill="#d58da9"/><path d="m176 311s-28 20-38 20 0-19 0-19l-19.94 19.94c-8.078 8.58-16.692 16.64-25.79 24.13l18.73 4.93-7 29-5.92 12.61h2.07 15.85l2-17.61 14-16 5.94 33.65h18.14z" fill="#923963" opacity=".25"/><path d="m155.08 402.65s22.92-77.65 22.92-135.65c0 0 4.36 101.31 25.18 135.65z" fill="#59374b"/><g fill="#923963"><path d="m199 351c-1.68-1.48 16 31 35 22-12.756-5.438-24.569-12.863-35-22z" opacity=".25"/><path d="m203 265s30 12 37 .8v32.2s-18-1-37-33z" opacity=".55"/></g></g></svg>