<svg viewBox="0 0 660 188" xmlns="http://www.w3.org/2000/svg"><path d="m393 107.3h-.7l-22.7-6.6a1.4 1.4 0 0 1 -1.1-1.6 1.6 1.6 0 0 1 1.4-1.3l7.8-.5-7.2-.8a1.6 1.6 0 0 1 -1.3-1.4 1.5 1.5 0 0 1 1.1-1.6l4.3-1.1-3.9.4a1.4 1.4 0 0 1 -1.6-1.1 1.5 1.5 0 0 1 .7-1.7h.1a1.3 1.3 0 0 1 -1.4-.8 1.4 1.4 0 0 1 .4-1.9l1.8-1.3-1.5.8a1.5 1.5 0 0 1 -1.8-2.3l1.5-1.7-1.3 1.1a1.5 1.5 0 0 1 -2.1-.2 1.4 1.4 0 0 1 .1-2.1l18.2-15.3a1.5 1.5 0 0 1 2 2.2l-10.3 11.2 12.3-6.8a1.7 1.7 0 0 1 2 .5 1.6 1.6 0 0 1 -.4 2.1l-10.7 8 12.8-4.6a1.4 1.4 0 0 1 1.9.8 1.5 1.5 0 0 1 -.7 1.9l-14.3 7.3 15.5-1.6a1.5 1.5 0 0 1 .5 2.9l-15.6 4.1 15.6 1.9a1.4 1.4 0 0 1 1.3 1.5 1.5 1.5 0 0 1 -1.4 1.5l-15.6 1 14.4 4.2a1.5 1.5 0 0 1 1.1 1.8 1.6 1.6 0 0 1 -1.2 1.1z" fill="#b3b9c0"/><path d="m375.8 105.2a2.4 2.4 0 0 1 -2.4-2.4c-.7-10.3 5.4-23.8 20.6-28.9a2.5 2.5 0 1 1 1.6 4.8c-14.6 4.9-17.7 17.7-17.3 23.8a2.3 2.3 0 0 1 -2.3 2.6c0 .1-.1.1-.2.1z" fill="#5b6775"/><path d="m370.8 85.2 3.2-.4v-4.3l-3.2-.4a13 13 0 0 0 -1.9-4.5l2-2.6-3.1-3-2.5 2a11.4 11.4 0 0 0 -4.5-1.9l-.4-3.2h-4.3l-.4 3.2a12.7 12.7 0 0 0 -4.5 1.9l-2.5-2-3.1 3 2 2.6a11.2 11.2 0 0 0 -1.8 4.5l-3.2.4v4.3l3.1.4h.1a11.4 11.4 0 0 0 1.8 4.4l-2 2.6 3.1 3.1 2.5-2a12.5 12.5 0 0 0 4.5 1.8l.4 3.2h4.3l.4-3.2a11.2 11.2 0 0 0 4.5-1.8l2.5 2 3.1-3.1-2-2.5a12.7 12.7 0 0 0 1.9-4.5zm-12.5 4.3a6.9 6.9 0 1 1 6.8-6.9 6.9 6.9 0 0 1 -6.8 6.9z" fill="#747f8d"/><path d="m109.2 49.7h-45.5l13.3-49.7h18.9z" fill="#ff9a15"/><path d="m95 34.7a11.1 11.1 0 0 0 -2.7-1.3 3 3 0 0 1 -2-3.4 6.7 6.7 0 0 0 0-2 5.2 5.2 0 0 0 -3.9-4 5.1 5.1 0 0 0 -6.2 5 5.2 5.2 0 0 0 1.1 3.2 3.1 3.1 0 0 1 -.3 4.1 11.2 11.2 0 0 0 -2.5 4.4 10.9 10.9 0 1 0 16.5-6z" fill="#ffd836"/><path d="m503.3 9.4v61.1h45.3v-61.1zm39.8 54.9h-34.3v-48.8h34.3z" fill="#9099a4"/><path d="m508.8 15.5h34.3v48.79h-34.3z" fill="#e3e5e8" transform="matrix(-1 0 0 -1 1051.9 79.9)"/><path d="m539.7 55 3.7-8.8v-12.5l-3.7-8.8 3.7-8.9v-.9h-2.6l-2.6 6.1-2.5-6.1h-3.1l4.1 9.8-4.7 11.4-4.8-11.4 4.1-9.8h-3.1l-2.5 6.1-2.5-6.1h-3.1l4.1 9.8-4.8 11.4-4.7-11.4 4.1-9.8h-3.1l-2.5 6.1-2.6-6.1h-2.1v2.1l3.2 7.7-3.2 7.6v7.3l4.7-11.3 4.7 11.4-4.7 11.5-4.7-11.4v7.3l3.2 7.7-3.2 7.7v2.1h2.1l2.6-6.1 2.5 6.1h3.1l-4.1-9.8 4.7-11.4 4.8 11.4-4.1 9.8h3.1l2.5-6.1 2.5 6.1h3.1l-4.1-9.8 4.8-11.4 4.7 11.4-4.1 9.8h3.1l2.5-6.1 2.6 6.1h2.6v-.9zm-14-3.6-4.7-11.5 4.7-11.4 4.7 11.4zm7.8-11.5 4.7-11.4 4.8 11.4-4.8 11.5z" fill="#9099a4"/><path d="m435.6 9.4v61.1h67.7v-61.1zm61.7 54.9h-55.6v-48.8h55.6z" fill="#a2a9b3"/><path d="m441.7 15.5h55.6v48.79h-55.6z" fill="#e3e5e8" transform="matrix(-1 0 0 -1 938.9 79.9)"/><circle cx="550.7" cy="24.3" fill="#fff" r="7.3"/><path d="m562.9 69.4a2.5 2.5 0 0 1 -2.5-2.5v-5.7a2.5 2.5 0 0 1 .8-1.8l25.5-25-33.4-13a2.4 2.4 0 0 1 -1.4-3.2 2.5 2.5 0 0 1 3.2-1.5l37.1 14.4a2.7 2.7 0 0 1 1.5 1.9 2.5 2.5 0 0 1 -.7 2.3l-27.6 27v4.6a2.5 2.5 0 0 1 -2.5 2.5z" fill="#5b6775" opacity=".3"/><path d="m144.9 128.7h128.9v50.84h-128.9z" fill="#d8dbdf"/><path d="m223.2 18h69.8v66.64h-69.8z" fill="#d8dbdf"/><circle cx="258.1" cy="51.3" fill="#b3b9c0" r="23"/><rect fill="#9ea6b3" height="58.07" rx="2.3" transform="matrix(.83098447 .55629562 -.55629562 .83098447 72.2 -135)" width="4.5" x="255.9" y="22.3"/><rect fill="#9ea6b3" height="58.07" rx="2.3" transform="matrix(-.03315518 .99945022 -.99945022 -.03315518 318 -205)" width="4.5" x="255.9" y="22.3"/><rect fill="#9ea6b3" height="58.07" rx="2.3" transform="matrix(-.76266833 .64678978 -.64678978 -.76266833 488.1 -76.7)" width="4.5" x="255.9" y="22.3"/><circle cx="258.1" cy="51.3" fill="#d8dbdf" r="13.5"/><path d="m260.4 94.2-41.3-6.2v-73.4l41.3-6.2z" fill="#a2a9b3"/><path d="m255.4 89-32.8-4.4v-66.6l32.8-4.4z" fill="#919aa5"/><path d="m222.6 30.9c13.7 1.3 17.1 17.5 17.1 17.5l15.7-3.2v-31.6l-32.8 4.4z" fill="#bcc2c8"/><path d="m231.1 71.5c-4.2 4.2-5.6 13.5-5.6 13.5l4.4.6z" fill="#515b66"/><path d="m260.4 8.4h3.9v85.79h-3.9z" fill="#747f8d"/><path d="m48.5 49.6h2.5v16.43h-2.5z" fill="#7c8794"/><path d="m31.3 48.8h2.5v17.2h-2.5z" fill="#828c98"/><circle cx="41.4" cy="41.8" fill="#c8cfd6" r="12.7"/><path d="m51.3 33.9a18.4 18.4 0 0 1 -18 14.2l-3-.2a12.7 12.7 0 0 0 23.8-6.1 12.3 12.3 0 0 0 -2.8-7.9z" fill="#aab3bd"/><path d="m42.7 49.6a1.3 1.3 0 0 1 1.3 1.3v15.1a0 0 0 0 1 0 0h-2.6a0 0 0 0 1 0 0v-15.1a1.3 1.3 0 0 1 1.3-1.3z" fill="#7c8794"/><path d="m406.2 70.5h142.4v108.98h-142.4z" fill="#d8dbdf"/><path d="m412.2 77h130.5v18.44h-130.5z" fill="#c7ccd1"/><path d="m412.2 77h130.5v3.31h-130.5z" fill="#b3b9c0"/><path d="m412.2 142.2h130.5v18.44h-130.5z" fill="#c7ccd1"/><path d="m412.2 142.2h130.5v3.31h-130.5z" fill="#b3b9c0"/><path d="m412.2 101.5h130.5v35.63h-130.5z" fill="#c7ccd1"/><path d="m412.2 101.5h130.5v3.31h-130.5z" fill="#b3b9c0"/><path d="m548.6 70.5h67.1v108.98h-67.1z" fill="#c7ccd1" transform="matrix(-1 0 0 -1 1164.3 250)"/><path d="m488.5 87a3.1 3.1 0 0 0 -3 2.2l-15.3 48.7a3.1 3.1 0 0 0 3 4 3.1 3.1 0 0 0 2.9-2.2l15.3-48.7a3.1 3.1 0 0 0 -2.9-4z" fill="#36393f"/><path d="m202.6 107.6h3.6v15.59h-3.6z" fill="#4f5660"/><path d="m180.3 121.2h49.9a1.6 1.6 0 0 1 1.6 1.6v5.9a0 0 0 0 1 0 0h-53a0 0 0 0 1 0 0v-5.9a1.6 1.6 0 0 1 1.5-1.6z" fill="#a1adba"/><path d="m197.9 121.2h32.3a1.6 1.6 0 0 1 1.6 1.6v5.9a0 0 0 0 1 0 0h-35.5a0 0 0 0 1 0 0v-5.9a1.6 1.6 0 0 1 1.6-1.6z" fill="#97a1ae"/><circle cx="204.4" cy="97.9" fill="#bcc2c8" r="11.2"/><path d="m198.7 107.5a10.6 10.6 0 0 0 8.4 1.2 11.1 11.1 0 0 0 8.2-13.5 11.6 11.6 0 0 0 -3.6-5.9c1.1 8.6-6.7 15.5-13 18.2z" fill="#a6adb6"/><path d="m525.6 106.8h79.8v7.64h-79.8z" fill="#fff"/><ellipse cx="199.6" cy="92.4" fill="#fff" rx="2" ry="1.2" transform="matrix(.70710678 -.70710678 .70710678 .70710678 -6.9 168.2)"/><circle cx="323.6" cy="173.5" fill="#8e97a3" r="3"/><path d="m316.8 112.8a30.8 30.8 0 0 1 -2.9-27 9.9 9.9 0 0 1 10.7-6.4c6.4 1 12.7 4.4 18 14.6z" fill="#8b939e"/><path d="m332.2 105.8c-3.4-1.6-7.1-2.7-10.3-.7l.2-8.4 8.2.5z" fill="#8b939e"/><path d="m312.8 89.6a15 15 0 0 1 1.9-4.6c.6-1 1.6-2.2 2.8-2.2s2.6.8 3.9 2.1c3 3 7.7 10.9 10.8 20.9l10.5-11.8c-5.4-10.2-11.7-13.6-18.1-14.6a9.9 9.9 0 0 0 -10.7 6.5 30.4 30.4 0 0 0 -1.1 3.7z" fill="#c7ccd1"/><path d="m414.5 112.8a30.4 30.4 0 0 0 2.9-27 9.8 9.8 0 0 0 -10.7-6.4c-6.4 1-12.6 4.4-18 14.6z" fill="#8b939e"/><path d="m319.6 128.6h-14.3c-1.9 0-3.4 4.9-3.4 11s1.5 11 3.4 11h14.3c2.2 0 4-4.9 4-11s-1.8-11-4-11z" fill="#747f8d"/><path d="m305.3 150.6h7.1v-8.1h-10.4c.4 4.7 1.7 8.1 3.3 8.1z" fill="#666c75"/><path d="m427.3 139.1c-.1.1-.1.1 0 .1s-.1 1.3-.2 2a13.6 13.6 0 0 1 -.2 2c-.1.3-.1.7-.2 1a3.6 3.6 0 0 1 -.2 1c-.2 1-.4 2-.7 3s-.7 1.9-1.1 2.8l-.7 1.8-.6 1a18.2 18.2 0 0 1 -1.5 2.7h-.1a9.1 9.1 0 0 1 -1.1 1.6l-.6.8-.5.7-.8.9-.7.8-.7.8-.8.7-.8.7a2.7 2.7 0 0 1 -.8.7l-.8.7-.9.6-.9.7-1.8 1.1h-88l-.9-.5-.9-.6-.8-.6-.9-.6h.1c-14.7-11.3-18-32.9-5.9-47.9a193.6 193.6 0 0 1 21.6-22.9c1.2-1.1 2.5-2.1 3.8-3.1h55.8l.3.2 3.5 2.9a193.6 193.6 0 0 1 21.6 22.9 37.3 37.3 0 0 1 3.3 4.8c.4.9.9 1.8 1.2 2.6l1.1 2.6.3 1 .2.7a35.3 35.3 0 0 1 1.3 10.3z" fill="#c7ccd1"/><path d="m427.3 139.1c-.1.1-.1.1 0 .1s-.1 1.3-.2 2a13.6 13.6 0 0 1 -.2 2c-.1.3-.1.7-.2 1a3.6 3.6 0 0 1 -.2 1c-.2 1-.4 2-.7 3s-.7 1.9-1.1 2.8l-.7 1.8-.6 1a18.2 18.2 0 0 1 -1.5 2.7h-.1a9.1 9.1 0 0 1 -1.1 1.6l-.6.8-.5.7-.8.9-.7.8-.7.8-.8.7-.8.7a2.7 2.7 0 0 1 -.8.7l-.8.7-.9.6-.9.7-1.8 1.1h-88l-.9-.5-.9-.6-.8-.6-.9-.6h58.4c11.9 0 22.4-8.4 24.3-20.2 2.3-14.4-3.6-29.7-19-53.7h11.7l.3.2 3.5 2.9a193.6 193.6 0 0 1 21.6 22.9 37.3 37.3 0 0 1 3.3 4.8c.4.9.9 1.8 1.2 2.6l1.1 2.6.3 1 .2.7a35.3 35.3 0 0 1 1.3 10.3z" fill="#a0a8b1"/><path d="m351.8 145.5 3.9 4.8a1.9 1.9 0 0 0 2.9 0l3.8-4.8a1.8 1.8 0 0 0 -1.4-3h-7.7a1.9 1.9 0 0 0 -1.5 3z" fill="#747f8d"/><rect fill="#4f5660" height="6.29" rx="3.1" transform="matrix(.46638664 -.88458098 .88458098 .46638664 84.1 401.5)" width="14.7" x="367.2" y="128"/><rect fill="#4f545c" height="6.29" rx="3.1" transform="matrix(-.42735786 -.90408255 .90408255 -.42735786 366.9 494.3)" width="14.7" x="332.6" y="127.9"/><rect fill="#3f444d" height="2.65" rx="1.3" transform="matrix(-.42735786 -.90408255 .90408255 -.42735786 366.9 494.3)" width="11" x="334.4" y="129.7"/><rect fill="#3f444d" height="2.65" rx="1.3" transform="matrix(.46638664 -.88458098 .88458098 .46638664 84.1 401.5)" width="11" x="369" y="129.8"/><rect fill="#a6aeba" height="3.14" rx="1.6" transform="matrix(.62660381 -.77933796 .77933796 .62660381 27.8 353.5)" width="7.4" x="378.9" y="146.2"/><rect fill="#a6aeba" height="3.14" rx="1.6" transform="matrix(.62660381 -.77933796 .77933796 .62660381 30.2 358.6)" width="7.4" x="385.6" y="146.2"/><rect fill="#a6aeba" height="3.14" rx="1.6" transform="matrix(-.62660381 -.77933796 .77933796 -.62660381 424.2 498.8)" width="7.4" x="328" y="146.2"/><rect fill="#a6aeba" height="3.14" rx="1.6" transform="matrix(-.62660381 -.77933796 .77933796 -.62660381 413.5 493.7)" width="7.4" x="321.4" y="146.2"/><path d="m322.6 167.4h88a0 0 0 0 1 0 0v10.1a2 2 0 0 1 -2 2h-84.1a2 2 0 0 1 -2-2v-10.1a0 0 0 0 1 .1 0z" fill="#747f8d"/><circle cx="357.1" cy="173.5" fill="#8e97a3" r="3"/><circle cx="409" cy="173.5" fill="#8e97a3" r="3"/><ellipse cx="419.2" cy="139.6" fill="#747f8d" rx="3.4" ry="11"/><ellipse cx="418.4" cy="139.6" fill="#202225" rx="2.6" ry="10.7"/><path d="m420.1 157h5.6a0 0 0 0 1 0 0v6.9a0 0 0 0 1 0 0h-5.6a3.4 3.4 0 0 1 -3.4-3.4 3.4 3.4 0 0 1 3.4-3.4z" fill="#6f7885" transform="matrix(.70710678 .70710678 -.70710678 .70710678 236.8 -250.8)"/><path d="m418.2 172.6c-1.6-1.6.7-6.3 5-10.6s9-6.5 10.6-5l6.5 6.5-15.6 15.6z" fill="#a1a8b2"/><path d="m421.2 164.1c-3 3.7-4.3 7.2-3 8.5l6.5 6.5 5.7-5.8z" fill="#828c98"/><ellipse cx="432.5" cy="171.3" fill="#36393f" rx="11" ry="3.6" transform="matrix(.70710678 -.70710678 .70710678 .70710678 5.5 356)"/><path d="m355.7 150.3a1.9 1.9 0 0 0 2.9 0l3.8-4.8h-10.6z" fill="#636f80"/><path d="m399.1 105.8c3.4-1.6 7.1-2.7 10.3-.7l-.2-8.4-8.1.5z" fill="#8b939e"/><path d="m418.5 89.6a12.9 12.9 0 0 0 -1.9-4.6c-.6-1-1.6-2.2-2.8-2.2s-2.5.8-3.8 2.1c-3 3-7.8 10.9-10.9 20.9l-10.4-11.8c5.3-10.2 11.6-13.6 18-14.6a10 10 0 0 1 10.8 6.5c.4 1.3.7 2.5 1 3.7z" fill="#c7ccd1"/><path d="m499.1 147.4h52.9v32.07h-52.9z" fill="#87919d"/><path d="m523 147.4h5.2l2-35.7a4.7 4.7 0 0 0 -4.6-4.9 4.6 4.6 0 0 0 -4.6 4.9z" fill="#fff"/><path d="m602.9 147.4h5.1l2-35.7a4.6 4.6 0 0 0 -4.6-4.9 4.7 4.7 0 0 0 -4.6 4.9z" fill="#fff"/><path d="m552.1 147.4h79.8v32.07h-79.8z" fill="#656f7d" transform="matrix(-1 0 0 -1 1183.9 326.9)"/><path d="m499.1 147.4h52.9v2h-52.9z" fill="#656f7d"/><path d="m552.1 147.4h79.8v2h-79.8z" fill="#4f5763" transform="matrix(-1 0 0 -1 1183.9 296.9)"/><path d="m552.1 137.7h79.8v9.72h-79.8z" fill="#656f7d" transform="matrix(-1 0 0 -1 1183.9 285.1)"/><path d="m540.2 125.8h-29.2l-11.9 11.9v9.7h53v-9.7z" fill="#87919d"/><path d="m517.8 125.8-3.5 53.7h-22.2l19.3-53.7z" fill="#5b6573"/><path d="m620 125.8h-79.8l11.9 11.9h79.8z" fill="#788390"/><path d="m513.2 118.8-6.2-5.6a3 3 0 0 0 -2.2-.8h-29.6a3.1 3.1 0 0 0 -3 2.2l-18.9 60.7a3.3 3.3 0 0 0 3.1 4.2h37.6a3.1 3.1 0 0 0 3-2.3l17.1-55.1a3.1 3.1 0 0 0 -.9-3.3z" fill="#3e70dd"/><path d="m502.4 112.4h-27.6a2.6 2.6 0 0 0 -2.5 1.8l-19.2 61.9a2.7 2.7 0 0 0 2.6 3.4h27.6a2.7 2.7 0 0 0 2.5-1.9l19.2-61.8a2.7 2.7 0 0 0 -2.6-3.4z" fill="#7196ff"/><ellipse cx="482.6" cy="132.6" fill="#5c83f2" rx="13.1" ry="10.9" transform="matrix(.73845534 -.67430239 .67430239 .73845534 36.7 359.9)"/><ellipse cx="482.6" cy="132.6" fill="#36393f" rx="2.1" ry="1.6" transform="matrix(.75011107 -.66131187 .66131187 .75011107 32.8 352)"/><ellipse cx="476.4" cy="137.6" fill="#36393f" rx="2.1" ry="1.6" transform="matrix(.75 -.66 .66 .75 27.9 349.14)"/><ellipse cx="489.9" cy="132.6" fill="#36393f" rx="2.1" ry="1.6" transform="matrix(.75011107 -.66131187 .66131187 .75011107 34.6 356.8)"/><ellipse cx="475.4" cy="132.6" fill="#36393f" rx="2.1" ry="1.6" transform="matrix(.75011107 -.66131187 .66131187 .75011107 31 347.2)"/><ellipse cx="484.5" cy="125.4" fill="#36393f" rx="2.1" ry="1.6" transform="matrix(.75011107 -.66131187 .66131187 .75011107 38 351.4)"/><ellipse cx="478.3" cy="127.2" fill="#36393f" rx="2.1" ry="1.6" transform="matrix(.75011107 -.66131187 .66131187 .75011107 35.3 347.8)"/><ellipse cx="487.1" cy="137.6" fill="#36393f" rx="2.1" ry="1.6" transform="matrix(.75011107 -.66131187 .66131187 .75011107 30.6 356.2)"/><ellipse cx="489.2" cy="127.2" fill="#36393f" rx="2.1" ry="1.6" transform="matrix(.75011107 -.66131187 .66131187 .75011107 38 355)"/><ellipse cx="480.8" cy="139.8" fill="#36393f" rx="2.1" ry="1.6" transform="matrix(.75011107 -.66131187 .66131187 .75011107 27.5 352.6)"/><path d="m465.3 154.5a1.2 1.2 0 0 0 -1.1.8l-6 19a1.2 1.2 0 0 0 1.2 1.5 1.1 1.1 0 0 0 1.1-.8l6-18.9a1.3 1.3 0 0 0 -1.2-1.6z" fill="#5c83f2"/><path d="m472.3 154.5a1.4 1.4 0 0 0 -1.2.8l-5.9 19a1.1 1.1 0 0 0 1.1 1.5 1.3 1.3 0 0 0 1.2-.8l5.9-18.9a1.2 1.2 0 0 0 -1.1-1.6z" fill="#5c83f2"/><path d="m479.2 154.5a1.2 1.2 0 0 0 -1.1.8l-6 19a1.2 1.2 0 0 0 1.1 1.5 1.2 1.2 0 0 0 1.2-.8l5.9-18.9a1.2 1.2 0 0 0 -1.1-1.6z" fill="#5c83f2"/><path d="m486.1 154.5a1.2 1.2 0 0 0 -1.1.8l-6 19a1.2 1.2 0 0 0 1.2 1.5 1.1 1.1 0 0 0 1.1-.8l6-18.9a1.3 1.3 0 0 0 -1.2-1.6z" fill="#5c83f2"/><path d="m465.1 160.4-3.3 10.6a1.4 1.4 0 0 1 -1.2.9 1.2 1.2 0 0 1 -1.1-1.6l3.3-10.6a1.2 1.2 0 0 1 1.2-.8 1.1 1.1 0 0 1 1.1 1.5z" fill="#3e70dd"/><path d="m472 160.4-3.3 10.6a1.2 1.2 0 1 1 -2.3-.7l3.4-10.6a1.1 1.1 0 0 1 1.1-.8 1.1 1.1 0 0 1 1.1 1.5z" fill="#3e70dd"/><path d="m479 160.4-3.4 10.6a1.2 1.2 0 0 1 -1.1.9 1.3 1.3 0 0 1 -1.2-1.6l3.4-10.6a1.1 1.1 0 0 1 1.1-.8 1.2 1.2 0 0 1 1.2 1.5z" fill="#3e70dd"/><path d="m485.9 160.4-3.3 10.6a1.4 1.4 0 0 1 -1.2.9 1.2 1.2 0 0 1 -1.1-1.6l3.3-10.6a1.2 1.2 0 0 1 1.2-.8 1.2 1.2 0 0 1 1.1 1.5z" fill="#3e70dd"/><path d="m505.3 142.6c-1.8 0-3.3-3.2-3.3-7s1.5-7 3.3-7h6.2v14z" fill="#d4d8dc"/><ellipse cx="511.5" cy="135.6" fill="#b3b9c0" rx="3.3" ry="7"/><path d="m22.5 99.8h84.2a3.8 3.8 0 0 1 3.8 3.8v76a0 0 0 0 1 0 0h-91.8a0 0 0 0 1 0 0v-76a3.8 3.8 0 0 1 3.8-3.8z" fill="#9ba3ad"/><path d="m58.6 99.8a3.7 3.7 0 0 0 -3.8 3.7v15.9a1.6 1.6 0 0 1 -1.8 1.6l-34.3-3.8v-13.7a3.7 3.7 0 0 1 3.8-3.7z" fill="#828c98"/><path d="m71.5 99.8h100.8a0 0 0 0 1 0 0v76a3.8 3.8 0 0 1 -3.8 3.8h-93.2a3.8 3.8 0 0 1 -3.8-3.8v-76a0 0 0 0 1 0 0z" fill="#747f8d" transform="matrix(-1 0 0 -1 243.8 279.3)"/><path d="m76 103.2h91.8a1 1 0 0 1 1 1v24.9a0 0 0 0 1 0 0h-93.8a0 0 0 0 1 0 0v-24.9a1 1 0 0 1 1-1z" fill="#87919d"/><circle cx="140.7" cy="123.1" fill="#687282" r="2.2"/><circle cx="150.8" cy="123.1" fill="#687282" r="2.2"/><circle cx="161" cy="123.1" fill="#687282" r="2.2"/><circle cx="140.7" cy="115.1" fill="#687282" r="2.2"/><circle cx="150.8" cy="115.1" fill="#687282" r="2.2"/><circle cx="161" cy="115.1" fill="#687282" r="2.2"/><path d="m75 132.7h93.9a0 0 0 0 1 0 0v32.1a1 1 0 0 1 -1 1h-91.9a1 1 0 0 1 -1-1v-32.1a0 0 0 0 1 0 0z" fill="#87919d"/><rect fill="#747f8d" height="24.88" rx="1.1" width="24.6" x="137" y="136.8"/><path d="m75 129.1h93.9v3.59h-93.9z" fill="#687282"/><rect fill="#c5cdd4" height="34.12" rx="1.4" width="42.5" x="9.2" y="65.6"/><rect fill="#b1b9c2" height="34.12" rx="1.4" transform="matrix(-1 0 0 -1 198.6 165.4)" width="104.8" x="46.9" y="65.6"/><rect fill="#828c98" height="22.74" rx=".9" width="31.1" x="52.6" y="71.3"/><path d="m69.6 90.7c-1.7 0-2.8-2.2-3.9-7.8-.7-3.4-1.7-8-2.4-8s-1.9 2-2.3 2.8-.3.4-.3.6c-1.7 3.1-3.4 5.4-8.1 5.4v-2c3.7 0 4.8-1.6 6.3-4.4l.3-.5c.8-1.6 2.1-3.9 4.1-3.9s3 3.2 4.3 9.6c1 4.7 1.8 5.9 2.1 6.2s1.1-1.5 2.3-6.3 2.3-6.3 4.1-6.6 2.3.3 3.4 1.7l1 1.5c1 1.7 1.7 2.7 3.1 2.7v2c-2.7 0-3.9-2.1-4.9-3.7a3.6 3.6 0 0 0 -.8-1.2c-.6-.8-1.1-1.1-1.4-1.1s-1.4.5-2.6 5.2-2.6 7.8-4.3 7.8z" fill="#9aa2ac"/><circle cx="98.3" cy="77.8" fill="#687282" r="6.5"/><circle cx="94.5" cy="91.3" fill="#ffc9ff" r="2.7"/><circle cx="102.1" cy="91.3" fill="#ffc9ff" r="2.7"/><rect fill="#687282" height="15.31" rx=".6" width="1.9" x="112.8" y="71.3"/><rect fill="#687282" height="15.31" rx=".6" width="1.9" x="123.2" y="71.3"/><rect fill="#687282" height="15.31" rx=".6" width="1.9" x="133.6" y="71.3"/><rect fill="#687282" height="15.31" rx=".6" width="1.9" x="144" y="71.3"/><rect fill="#d5dbe3" height="3.22" rx=".9" width="5.7" x="110.9" y="80.4"/><rect fill="#d5dbe3" height="3.22" rx=".9" width="5.7" x="121.3" y="74.6"/><rect fill="#d5dbe3" height="3.22" rx=".9" width="5.7" x="131.7" y="82"/><rect fill="#d5dbe3" height="3.22" rx=".9" width="5.7" x="142.1" y="80.4"/><circle cx="91.7" cy="8.3" fill="#ffd836" r="4.1"/><path d="m98.1 8.3-2.2-8.3h-18.9l-2.2 8.3z" fill="#c7cfd6"/><path d="m89.2 8.3-.5-8.3h7.2l2.2 8.3z" fill="#b1b9c2"/><path d="m109.2 49.7h-45.5l4.5 15.9h36.5z" fill="#c7cfd6"/><path d="m89.8 49.7h19.4l-4.5 15.9h-15.5z" fill="#b1b9c2"/><path d="m51.7 35.8a8.7 8.7 0 0 0 -3.9-4.9 12.7 12.7 0 0 0 -3.2-1.3 11.3 11.3 0 0 1 5.2 6.8 4.5 4.5 0 0 1 -2.9 5.5 4.4 4.4 0 0 1 -5.5-2.7c-.8-2-2.9-7.1-6.4-8.3l-1.7 1.2c3.1.4 5 4.6 6.2 7.8a6.5 6.5 0 0 0 8 3.9 6.5 6.5 0 0 0 4.2-8z" fill="#a6afbd"/><path d="m250.2 64.1-18.9 6.3a3.4 3.4 0 0 1 -4.3-2.9l-1.5-15.1a3.3 3.3 0 0 1 2.3-3.5l18.9-6.2a3.3 3.3 0 0 1 4.3 2.8l1.5 15.2a3.3 3.3 0 0 1 -2.3 3.4z" fill="#646e7a"/><path d="m250.4 88.3-20.5-2.7a145.5 145.5 0 0 1 1.7-17.7l16.9-5.2a191.7 191.7 0 0 1 1.9 25.6z" fill="#646e7a"/><path d="m248.8 64.6c-11.1 9.9-18 8.7-18 8.7l.4-2.9z" fill="#515b66"/><path d="m232.5 55.9 9.4-3.2a1.1 1.1 0 0 1 1.4.8l.5 3.1a3.2 3.2 0 0 1 -2.2 3.5l-7.9 2.2a1.2 1.2 0 0 1 -1.6-1.2l-.4-4.1a1.1 1.1 0 0 1 .8-1.1z" fill="#828c98"/><path d="m255.4 56.2a2 2 0 0 0 -1.4 1.5 17.7 17.7 0 0 1 -8.1 10.2l2.2 5.1a16.5 16.5 0 0 0 7.3-6.1z" fill="#646e7a"/><ellipse cx="246.7" cy="52.6" fill="#414952" rx="1.1" ry="1.4"/><ellipse cx="229.9" cy="57.8" fill="#414952" rx=".8" ry="1"/><path d="m232.9 60.1 2.2-.8v-.7l-2.2.7z" fill="#747f8d"/><path d="m236.8 58.8 2.9-.9v-.8l-2.9.9z" fill="#747f8d"/><path d="m230.8 47.9 5.2-1.7c-5.9-3.3-9.4-.6-5.2 1.7z" fill="#747f8d"/><path d="m236 46.2 7.5-2.5c1.1-6.3-5.2-6.1-7.5 2.5z" fill="#747f8d"/><ellipse cx="244.6" cy="25.3" fill="#d8dbdf" rx="6.3" ry="4.8" transform="matrix(.64678978 -.76266833 .76266833 .64678978 67.2 195.6)"/><path d="m79.1 8.3 1.4-8.3h3.8v8.3z" fill="#fff"/><path d="m72 49.7 3.6 15.9h3.8l-2.2-15.9z" fill="#fff"/><rect fill="#a2a9b3" height="4" rx="2" width="8.7" x="563.8" y="147.4"/><rect fill="#a2a9b3" height="4" rx="2" width="8.7" x="611.3" y="147.4"/><path d="m531.4 21 38.1 14.9a20.5 20.5 0 0 0 -38.1-14.9z" fill="#f47fff"/><path d="m540.1 62.1h45.7a2 2 0 0 1 2 2v6.4a0 0 0 0 1 0 0h-49.8a0 0 0 0 1 0 0v-6.3a2 2 0 0 1 2.1-2.1z" fill="#646e7a"/><rect fill="#f47fff" height="16.28" rx="4.3" transform="matrix(.93105582 .36487678 -.36487678 .93105582 41.9 -203)" width="16.8" x="549.5" y="1.2"/><rect fill="#4f5660" height="18.32" rx=".9" width="32.5" x="79" y="107"/><path d="m491.8 55 6-8.8v-12.5l-6-8.8 6-8.9v-.9h-4.3l-4.1 6.1-4.2-6.1h-4.9l6.6 9.8-7.7 11.4-7.7-11.4 6.6-9.8h-4.9l-4.1 6.1-4.2-6.1h-4.9l6.6 9.8-7.7 11.4-7.7-11.4 6.6-9.8h-4.9l-4.1 6.1-4.2-6.1h-3.5v2.1l5.2 7.7-5.2 7.6v7.3l7.7-11.3 7.7 11.4-7.7 11.5-7.7-11.4v7.3l5.2 7.7-5.2 7.7v2.1h3.5l4.2-6.1 4.1 6.1h4.9l-6.6-9.8 7.7-11.4 7.7 11.4-6.6 9.8h4.9l4.2-6.1 4.1 6.1h4.9l-6.6-9.8 7.7-11.4 7.7 11.4-6.6 9.8h4.9l4.2-6.1 4.1 6.1h4.3v-.9zm-22.7-3.6-7.7-11.5 7.7-11.4 7.7 11.4zm12.6-11.5 7.7-11.4 7.7 11.4-7.7 11.5z" fill="#a2a9b3"/><path d="m474.9 22.1h-37.9l-5.5 48.4h37.9z" fill="#5b6573"/><path d="m467.6 22.1h-38l-5.5 48.4h38z" fill="#5b6573"/><circle cx="591.2" cy="33.5" fill="#5f656e" r="3.9"/><path d="m466.9 70.5 5.2-46.3h-4.8l-5.2 46.3z" fill="#9099a4"/><path d="m469.1 28.5-.5 4.1h6.6l.4-4.1z" fill="#4f5660"/><path d="m467.6 40.8-.5 4h4l.5-4z" fill="#747f8d"/><path d="m465.8 46.9-.3 2.5h8.1l.3-2.5z" fill="#2e3136"/><ellipse cx="439.9" cy="41" fill="#a2a9b3" rx="15.1" ry="12.1" transform="matrix(.745476 -.66653247 .66653247 .745476 84.7 303.8)"/><ellipse cx="437.5" cy="41" fill="#d2d6da" rx="15.1" ry="12.1" transform="matrix(.745476 -.66653247 .66653247 .745476 84.1 302.2)"/><ellipse cx="437.5" cy="41" fill="#747f8d" rx="13.2" ry="10.6" transform="matrix(.75 -.67 .67 .75 84.12 302.22)"/><path d="m428.6 41a15.6 15.6 0 0 1 12.9-11.7h-1.4c-6.5 0-12.9 5.3-14.4 11.8s2.7 11.8 9.2 11.8h1.4c-5.7-.9-9.1-5.8-7.7-11.9z" fill="#a2a9b3"/><path d="m438.2 54.4h-4.9l-4 16.1h5.9z" fill="#2e3136"/><circle cx="86.7" cy="116.2" fill="#3e444d" r="5.7"/><circle cx="86.7" cy="116.2" fill="#323740" r="2"/><path d="m87.8 113.2c0 .2-.2.3-.4.2h-1.5c-.2.1-.3 0-.3-.2v-.2l.2-1.4.2-.2h1.3l.2.2.2 1.4z" fill="#323740"/><path d="m88.7 118.6a.2.2 0 0 1 -.1-.4l.3-.3c.1-.1.2-.2.2-.3a.8.8 0 0 0 .2-.4.4.4 0 0 0 .1-.3c0-.2.2-.3.4-.2h.1l1.2.9a.4.4 0 0 1 .1.3l-.3.6-.4.5h-.3l-1.4-.6z" fill="#323740"/><path d="m83.6 116.7a.2.2 0 0 1 .3.1.8.8 0 0 1 .1.4c.1.1.1.3.2.4s.2.2.2.3l.3.3a.2.2 0 0 1 -.1.4h-.1l-1.4.6h-.3l-.3-.5-.3-.6c-.1-.1 0-.2.1-.3l1.1-.9z" fill="#323740"/><circle cx="103.8" cy="116.2" fill="#3e444d" r="5.7"/><circle cx="103.8" cy="116.2" fill="#323740" r="2"/><path d="m106.8 115.1a.2.2 0 0 0 -.3.3c0 .1.1.2.1.3v.9a.4.4 0 0 1 -.1.3.2.2 0 0 0 .3.3h.1l1.5-.2a.2.2 0 0 0 .2-.2v-1.3a.2.2 0 0 0 -.2-.2l-1.5-.2z" fill="#323740"/><path d="m101.4 114.1c0 .2.3.2.4.1l.2-.3.4-.2.4-.2h.3c.2 0 .3-.2.1-.4h-.1l-.9-1.1c0-.1-.1-.2-.2-.1s-.4.1-.6.3l-.6.3a.2.2 0 0 0 0 .3l.5 1.4z" fill="#323740"/><path d="m103.3 119.3c.1-.2 0-.4-.2-.4h-.3a.5.5 0 0 1 -.4-.2l-.4-.2-.2-.3c-.1-.1-.4-.1-.4.1v.2l-.5 1.3c-.1.1 0 .2 0 .3l.6.4.6.2a.1.1 0 0 0 .2 0l1-1.2z" fill="#323740"/><circle cx="123.2" cy="118.8" fill="#626b7a" r="6.5"/><rect fill="#9de4d1" height="13.01" rx="1.2" width="21.7" x="79" y="136.8"/><rect fill="#9de4d1" height="13.01" rx="1.2" transform="matrix(-1 0 0 -1 237.7 286.6)" width="21.7" x="108" y="136.8"/><path d="m113.9 149.8h9.9a5.5 5.5 0 0 0 -5-3.2 5.4 5.4 0 0 0 -4.9 3.2z" fill="#747f8d"/><path d="m84.9 149.8h9.8a5.4 5.4 0 0 0 -9.8 0z" fill="#747f8d"/><path d="m118.4 149.2-1.4.6-3.6-8.4.9-.4z" fill="#747f8d"/><path d="m91.1 149.5-1.5-.3 2.1-8.9 1 .2z" fill="#747f8d"/><circle cx="83.3" cy="157.4" fill="#747f8d" r="4.3"/><circle cx="96.4" cy="157.4" fill="#747f8d" r="4.3"/><circle cx="112.3" cy="157.4" fill="#747f8d" r="4.3"/><circle cx="125.4" cy="157.4" fill="#747f8d" r="4.3"/><path d="m97.6 133.5h-8.5c-1.5-9.5-9.5-17.5-18.7-19.4a20.1 20.1 0 0 1 4.2-.5c10.9 0 21.3 9 23 19.9z" fill="#687282"/><path d="m102 179.5c9.7 0 16.3-7.9 14.7-17.6s-10.7-17.6-20.4-17.6h-6.8l5.6 35.2z" fill="#4f5660"/><path d="m101.9 145.2h-10.9l-1.9-11.7h10.9z" fill="#687282"/><path d="m101.9 145.2h-2.4l-1.9-11.7h2.4z" fill="#bec3cc"/><ellipse cx="92.3" cy="161.9" fill="#40464f" rx="16.2" ry="19" transform="matrix(.67815967 -.7349146 .7349146 .67815967 -89.3 120)"/><ellipse cx="92.3" cy="161.9" fill="#323740" rx="8.2" ry="9.6" transform="matrix(.67815967 -.7349146 .7349146 .67815967 -89.3 120)"/><ellipse cx="95.2" cy="161.9" fill="#2c3038" rx="5.8" ry="8.6" transform="matrix(.9547608 -.29737487 .29737487 .9547608 -43.9 35.7)"/><path d="m66.8 179.5c9.7 0 16.3-7.9 14.8-17.6s-10.8-17.6-20.4-17.6h-6.9l5.7 35.2z" fill="#4f5660"/><path d="m60.4 148.3h-10.9l-2.4-14.8h10.9z" fill="#e4e6e8"/><path d="m59.9 145.2h-2.3l-1.9-11.7h2.3z" fill="#bec3cc"/><ellipse cx="57.2" cy="161.9" fill="#e4e6e8" rx="16.2" ry="19" transform="matrix(.67815967 -.7349146 .7349146 .67815967 -100.6 94.1)"/><path d="m55.7 133.5h-8.5c-2-12.2 6.4-22.2 18.6-22.2h8.4c-12.1 0-20.5 10-18.5 22.2z" fill="#e4e6e8"/><ellipse cx="54" cy="161.9" fill="#bdc5cf" rx="10.8" ry="12.7" transform="matrix(.67815967 -.7349146 .7349146 .67815967 -101.6 91.8)"/><path d="m52.7 169.3-4.6-3.5c-.3-.2-.1-.6.3-.6h7.8c.4 0 .5.5.2.8l-3.2 3.2c-.2.1-.4.2-.5.1z" fill="#fff"/><path d="m100 133.5h-2.4c-1.7-10.9-12.1-19.9-23-19.9s-18.4 9-16.6 19.9h-2.3c-2-12.2 6.4-22.2 18.5-22.2s23.8 10 25.8 22.2z" fill="#e9ebed"/><path d="m100 133.5h-2.4c-1.7-10.9-12.1-19.9-23-19.9s-18.4 9-16.6 19.9h-2.3c-2-12.2 6.4-22.2 18.5-22.2s23.8 10 25.8 22.2z" fill="#bec3cc"/><path d="m291.1 156.5h-.5l-32.6-14.2a1.4 1.4 0 0 1 -.7-1.6 1.2 1.2 0 0 1 1.7-.7l32.6 14.1a1.2 1.2 0 0 1 .7 1.6 1.3 1.3 0 0 1 -1.2.8z" fill="#e9ebed"/><path d="m182.5 176.9a22.2 22.2 0 0 1 -21.8-18.3c-1.2-6.7-1.9-13.1-2.6-18.8l-.2-2.3a14.9 14.9 0 0 0 -14.8-13.2h-2.2a1.2 1.2 0 0 1 -1.2-1.2 1.2 1.2 0 0 1 1.2-1.3h2.2a17.4 17.4 0 0 1 17.3 15.4l.2 2.3c.7 5.6 1.4 12 2.6 18.7a18.9 18.9 0 0 0 10.7 14.2 19.6 19.6 0 0 0 18.1-.4c10-5.5 19.7-5.9 29.6-5.9a1.2 1.2 0 0 1 1.3 1.2 1.3 1.3 0 0 1 -1.3 1.3c-11.8 0-19.8.9-28.4 5.6a22.7 22.7 0 0 1 -10.7 2.7z" fill="#42454d"/><path d="m290.4 160-1.2-.3-9.6-4.1-3.5 2.5a1.3 1.3 0 0 1 -1.2.2l-20.1-8.7a1.2 1.2 0 0 1 -.6-1.6 1.2 1.2 0 0 1 1.6-.7l19.4 8.4 3.5-2.6a1.5 1.5 0 0 1 1.3-.1l10.2 4.4a.5.5 0 0 0 .7-.3.5.5 0 0 0 -.3-.7l-32.6-14.1a1.4 1.4 0 0 1 -.7-1.6 1.2 1.2 0 0 1 1.7-.7l32.6 14.1a2.9 2.9 0 0 1 1.7 1.7 2.7 2.7 0 0 1 -.1 2.3 3 3 0 0 1 -2.8 1.9z" fill="#a8b0b5"/><path d="m250.5 161.2-4.9-2.1 3.3-7.6 4.9 2.1a.8.8 0 0 1 .2 1.4 5.9 5.9 0 0 0 -2.3 5.3.8.8 0 0 1 -1.2.9z" fill="#4f5660"/><path d="m254.9 155.8-27.4-11.8a10.2 10.2 0 0 1 -5.3-13.3 10.1 10.1 0 0 1 13.4-5.3l29.9 12.9a4.7 4.7 0 0 1 1.7 7.3l-7.4 9.1a4.1 4.1 0 0 1 -4.9 1.1z" fill="#8e97a3"/><path d="m231.2 174.2v1a1.5 1.5 0 0 1 -2.5 1.1l-8.6-6.5a3.5 3.5 0 0 1 -.6-5l12.7-15.4a2.3 2.3 0 0 0 -.9-3.7l-3.7-1.7 1.4-3 23.1 9.9 1 4.1-1.4-.6a1.2 1.2 0 0 0 -1.4.6l-2.2 5.1a1.9 1.9 0 0 1 -2.3 1l-2-.9a2.1 2.1 0 0 0 -2.6.9 34.5 34.5 0 0 1 -8.1 9.5 5.4 5.4 0 0 0 -1.9 3.6z" fill="#8e97a3"/><path d="m281.4 141.2a1.8 1.8 0 0 1 1.8 1.8v36.5a0 0 0 0 1 0 0h-3.7a0 0 0 0 1 0 0v-36.5a1.8 1.8 0 0 1 1.9-1.8z" fill="#747f8d"/><path d="m218.6 175.5h69.7a1.6 1.6 0 0 1 1.6 1.6v2.4a0 0 0 0 1 0 0h-72.9a0 0 0 0 1 0 0v-2.4a1.6 1.6 0 0 1 1.6-1.6z" fill="#747f8d"/><path d="m221.9 131.3a10.1 10.1 0 0 0 5.6 12.8l3.7 1.6a2.3 2.3 0 0 1 .9 3.7l-12.7 15.4 1.2.8a2.3 2.3 0 0 0 3.2-.4l13.7-15.8a8.5 8.5 0 0 0 1.9-7.8l-.6-2.3a2.5 2.5 0 0 1 1.5-3.1l2.1-1a3.9 3.9 0 0 0 2.4-3.7v-2.1l-9.3-4.1a10.2 10.2 0 0 0 -13.6 6z" fill="#747f8d"/><rect fill="#ffd836" height="3.89" rx="1.9" transform="matrix(.91775463 .39714789 -.39714789 .91775463 77.2 -88.6)" width="14.3" x="245.5" y="140.2"/><path d="m29.6 62.9h23.6a.9.9 0 0 1 .9.9v1.8a0 0 0 0 1 0 0h-25.4a0 0 0 0 1 0 0v-1.8a.9.9 0 0 1 .9-.9z" fill="#9aa2ac"/><g fill="#8a939f"><path d="m47 44.8h-.1a.6.6 0 0 1 -.4-.6 5.1 5.1 0 0 0 .3-2.5.4.4 0 0 1 .4-.6.7.7 0 0 1 .6.4 7.1 7.1 0 0 1 -.3 3 .7.7 0 0 1 -.5.3z"/><path d="m42.9 44.3c-.2 0-.3 0-.4-.2a.5.5 0 0 1 .1-.7 3.4 3.4 0 0 0 1.4-1.8.4.4 0 0 1 .6-.3c.3 0 .4.3.3.6a4.2 4.2 0 0 1 -1.7 2.3z"/><path d="m39.9 41.9a.5.5 0 0 1 0-1 5.6 5.6 0 0 0 2.2-.8.5.5 0 0 1 .7.1c.1.3.1.6-.2.7a5.5 5.5 0 0 1 -2.7 1z"/><path d="m38.7 39a.5.5 0 0 1 -.5-.5.4.4 0 0 1 .4-.5l2.4-.4a.4.4 0 0 1 .6.3.5.5 0 0 1 -.3.6z"/><path d="m37.2 36.2c-.2 0-.4-.1-.4-.3s0-.6.3-.6a5.5 5.5 0 0 1 2.8-.4.5.5 0 0 1 0 1 5.2 5.2 0 0 0 -2.5.3z"/><path d="m35.5 33.7c-.2 0-.4 0-.5-.2a.7.7 0 0 1 .2-.7 4.4 4.4 0 0 1 3-.4c.3.1.5.4.4.6s-.3.5-.6.4a3.1 3.1 0 0 0 -2.3.3z"/><path d="m50.1 42.9a.5.5 0 0 1 -.5-.5 3.1 3.1 0 0 0 -.9-2.1.5.5 0 0 1 .8-.7 4.4 4.4 0 0 1 1.1 2.7.6.6 0 0 1 -.5.6z"/><path d="m51.6 40a.5.5 0 0 1 -.5-.3 3.5 3.5 0 0 0 -1.4-1.9c-.3-.1-.3-.5-.2-.7a.7.7 0 0 1 .7-.2 4.9 4.9 0 0 1 1.9 2.5c.1.2-.1.5-.3.6z"/><path d="m51.8 36.2h-.3a2.9 2.9 0 0 0 -2.2-.4.7.7 0 0 1 -.6-.4c0-.3.1-.6.4-.6a3.6 3.6 0 0 1 3 .7.5.5 0 0 1 .1.7z"/><path d="m50.2 33.4h-.4a2.5 2.5 0 0 0 -2-.4c-.2 0-.5-.2-.5-.4a.4.4 0 0 1 .4-.6 3.5 3.5 0 0 1 2.8.7c.2.1.2.5.1.7z"/></g><circle cx="147.2" cy="95.2" fill="#9ba3ad" r="2.2"/><path d="m166.3 116.3h-5.3a1.2 1.2 0 0 1 -1.3-1.2 1.3 1.3 0 0 1 1.3-1.3h5.3c5.1 0 8.6-1.9 10.2-5.4a8.3 8.3 0 0 0 -.7-7.9 9.2 9.2 0 0 0 -7.5-4.1h-21.1a1.2 1.2 0 0 1 -1.2-1.2 1.3 1.3 0 0 1 1.2-1.3h21.1a11.4 11.4 0 0 1 9.6 5.3 10.4 10.4 0 0 1 .9 10.2c-2 4.5-6.4 6.9-12.5 6.9z" fill="#585f6a"/><circle cx="228.3" cy="136" fill="#626b7a" r="2.5"/><path d="m498 166.2-4.7-1.5a1 1 0 0 1 -.6-1.3l5.6-18.1a1 1 0 0 1 1-.7h4.9l-.5 21.6z" fill="#a2a9b3"/><path d="m503.7 166.2-5.7-1.8 1.5-11 4.7-8.8 4.9 1.5a.6.6 0 0 1 .3.9l-4.8 8.4z" fill="#9099a4"/><path d="m364.4 91.2h-5.1a4.8 4.8 0 0 0 -2.1-.7 4.1 4.1 0 0 0 -3.7 2.1 112.8 112.8 0 0 1 -12.1 17.3 1.8 1.8 0 0 1 -1.5.7 2.2 2.2 0 0 1 -1.3-.4 2.1 2.1 0 0 1 -.2-2.9 110.7 110.7 0 0 0 11.6-16.6 7.8 7.8 0 0 1 7.4-4.1 8 8 0 0 1 7 4.6z" fill="#9ca4ae"/><path d="m336.6 113.2a1.1 1.1 0 0 1 -.7-.3 1 1 0 0 1 0-1.4l3-3.1a1.2 1.2 0 0 1 1.5-.1 1 1 0 0 1 0 1.4l-3.1 3.2a.9.9 0 0 1 -.7.3z" fill="#8b939e"/><path d="m339 113.3h-.3a1 1 0 0 1 -.6-1.3l1-3a1 1 0 0 1 1.2-.7 1.2 1.2 0 0 1 .7 1.3l-1 3a.9.9 0 0 1 -1 .7z" fill="#8b939e"/><path d="m335.9 111.4a1.1 1.1 0 0 1 -.9-.5 1 1 0 0 1 .5-1.3l3.1-1.6a1 1 0 1 1 .9 1.7l-3.1 1.6z" fill="#8b939e"/><path d="m362.4 93.3 5.9 3.9a10.8 10.8 0 0 0 9.1 1.3 10.8 10.8 0 0 0 1.3 9.1l3.9 5.9-5.8-3.9a10.7 10.7 0 0 0 -9.2-1.3 10.7 10.7 0 0 0 -1.3-9.2z" fill="#c7ccd1"/><path d="m575.9 53.8h-4.6l.7 8.3h3.2z" fill="#9099a4"/><path d="m319.2 20.3 4.1-1.8a.8.8 0 0 0 0-1.5l-4.1-1.8-.4-.4-1.8-4.1a.8.8 0 0 0 -1.5 0l-1.9 4.1-.4.4-4.1 1.8a.9.9 0 0 0 0 1.5l4.1 1.8.4.4 1.9 4.1a.8.8 0 0 0 1.5 0l1.8-4.1c.1-.1.2-.3.4-.4z" fill="#d4e4ff"/><path d="m393.6 52.5 4.3 1.7a.9.9 0 0 0 1.2-1.1l-1.7-4.4a.6.6 0 0 1 0-.6l1.7-4.4a.9.9 0 0 0 -1.2-1.1l-4.3 1.7a.6.6 0 0 1 -.6 0l-4.4-1.7a.8.8 0 0 0 -1.1 1.1l1.7 4.4v.6l-1.7 4.4a.9.9 0 0 0 1.1 1.1l4.4-1.7a.6.6 0 0 1 .6 0z" fill="#ffd836"/><rect fill="#7e9fff" height="7.33" rx="1.9" width="3.7" x="147.6" y="30.6"/><rect fill="#7e9fff" height="7.33" rx="1.9" width="3.7" x="147.6" y="47.1"/><rect fill="#7e9fff" height="7.33" rx="1.9" transform="matrix(0 1 -1 0 200.2 -115.1)" width="3.7" x="155.8" y="38.9"/><rect fill="#7e9fff" height="7.33" rx="1.9" transform="matrix(0 1 -1 0 183.7 -98.6)" width="3.7" x="139.3" y="38.9"/><rect fill="#51bc9d" height="5.81" rx="1.5" transform="matrix(.70710678 .70710678 -.70710678 .70710678 246.6 -426.6)" width="2.9" x="636.7" y="81.5"/><rect fill="#51bc9d" height="5.81" rx="1.5" transform="matrix(.70710678 .70710678 -.70710678 .70710678 250.4 -417.3)" width="2.9" x="627.5" y="90.7"/><rect fill="#51bc9d" height="5.81" rx="1.5" transform="matrix(-.70710678 .70710678 -.70710678 -.70710678 1155.7 -291.5)" width="2.9" x="636.7" y="90.7"/><rect fill="#51bc9d" height="5.81" rx="1.5" transform="matrix(-.70710678 .70710678 -.70710678 -.70710678 1133.4 -300.7)" width="2.9" x="627.5" y="81.5"/><path d="m0 179.5h660v8.5h-660z" fill="#b7bfc7"/></svg>