<svg viewBox="0 0 80 80" xmlns="http://www.w3.org/2000/svg"><circle cx="40" cy="40" fill="#b8d1ff" r="40"/><path d="m38.05 27.56a12.92 12.92 0 0 1 -1.29-.19 18 18 0 0 1 -1.88-.48c-2.33-.74-3.61-3.26-1-4.81 0 0 2.16-2.52 6.49.3a2.33 2.33 0 0 0 2.49.25l-2.86 4.23z" fill="#03a79f"/><path d="m40.91 25.5s-4.16.81-9.3-6.43" fill="none" stroke="#03968f" stroke-linecap="round" stroke-miterlimit="10" stroke-width=".81"/><path d="m36.76 27.37c-.15 0 2.27.47 4.36-3.64.29-.57.74-1.5.9-1.8.84-1.61 2.84-5.13 6.14-4.41a2.82 2.82 0 0 1 1.74 4 5.81 5.81 0 0 1 -1.4 2.13 13.1 13.1 0 0 1 -11.74 3.72z" fill="#00c0b5"/><path d="m40.8 27.52a13.07 13.07 0 0 0 6.53-6.95 11.75 11.75 0 0 0 .73-3.08h.1a2.87 2.87 0 0 1 .69.31 12.51 12.51 0 0 1 -.75 3 13.37 13.37 0 0 1 -4.79 6.11 12 12 0 0 1 -2.51.61z" fill="#03a79f"/><path d="m59.75 31.39h8a4 4 0 0 1 4 4v9a4 4 0 0 1 -4 4h-8a0 0 0 0 1 0 0v-17a0 0 0 0 1 0 0z" fill="#7196ff" transform="matrix(.99376792 -.11146893 .11146893 .99376792 -4.04 7.58)"/><path d="m63 34.36h4a2 2 0 0 1 2 2v7a2 2 0 0 1 -2 2h-4a0 0 0 0 1 0 0v-11a0 0 0 0 1 0 0z" fill="#bacfff" transform="matrix(.99376792 -.11146893 .11146893 .99376792 -4.03 7.61)"/><path d="m10.79 36.89h8a4 4 0 0 1 4 4v9a4 4 0 0 1 -4 4h-8a0 0 0 0 1 0 0v-17a0 0 0 0 1 0 0z" fill="#7196ff" transform="matrix(-.99376792 .11146893 -.11146893 -.99376792 38.52 88.6)"/><path d="m13.53 39.91h4a2 2 0 0 1 2 2v7a2 2 0 0 1 -2 2h-4a0 0 0 0 1 0 0v-11a0 0 0 0 1 0 0z" fill="#bacfff" transform="matrix(-.99376792 .11146893 -.11146893 -.99376792 38.01 88.69)"/><rect fill="#7196ff" height="31.96" rx="8.99" transform="matrix(-.99376792 .11146893 -.11146893 -.99376792 87.31 77.47)" width="49.67" x="16.66" y="25.2"/><path d="m38.93 32.65h9.19a7.09 7.09 0 0 1 7.09 7.09v7a2.88 2.88 0 0 1 -2.88 2.88h-18.2a2.88 2.88 0 0 1 -2.88-2.88v-6.41a7.67 7.67 0 0 1 7.67-7.67z" fill="#bacfff" transform="matrix(-.99376792 .11146893 -.11146893 -.99376792 90.78 77.2)"/><circle cx="25.56" cy="42.61" fill="#202225" r="2.7"/><circle cx="60.19" cy="38.72" fill="#202225" r="2.7"/><rect fill="#9cb6f1" height="2.5" rx="1.25" transform="matrix(-.99 .11 -.11 -.99 102.39 81.31)" width="4.99" x="46.42" y="42.27"/><rect fill="#9cb6f1" height="2.5" rx="1.25" transform="matrix(-.99376792 .11146893 -.11146893 -.99376792 84.54 84.33)" width="5.99" x="36.91" y="43.28"/><circle cx="40" cy="40" fill="none" r="40"/></svg>