<svg height="60" viewBox="0 0 60 60" width="60" xmlns="http://www.w3.org/2000/svg"><g fill="none" fill-rule="evenodd"><g transform="translate(7 1)"><path d="m2.0623 38.5629c-1.323-2.797-2.062-5.924-2.062-9.223 0-11.931 9.671-21.602 21.602-21.602 11.931 0 21.602 9.671 21.602 21.602 0 11.93-9.671 21.602-21.602 21.602-4.004 0-7.754-1.089-10.969-2.988m-4.8239-3.8747c-.371-.398-.728-.809-1.068-1.234" stroke="#faa61a" stroke-linecap="round" stroke-linejoin="round" stroke-width="2"/><path d="m21.6325 34.5733c2.369 0 4.272 1.904 4.272 4.272 0 2.326-1.903 4.188-4.272 4.188-2.326 0-4.187-1.862-4.187-4.188 0-2.368 1.861-4.272 4.187-4.272m-3.275-17.876h6.465c.594 0 1.071.488 1.057 1.081l-.374 12.435c-.013.574-.483 1.034-1.058 1.034h-5.714c-.575 0-1.044-.46-1.057-1.034l-.376-12.435c-.013-.593.464-1.081 1.057-1.081" fill="#faa61a"/><path d="m45.1902 6.2127-2.341 2.341m-5.6876-8.5537-.857 3.198m11.9007 11.9002 3.198-.857" stroke="#faa61a" stroke-linecap="round" stroke-linejoin="round" stroke-width="2"/></g><path d="m0 0h60v60h-60z"/></g></svg>