<svg fill="none" height="72" viewBox="0 0 72 72" width="72" xmlns="http://www.w3.org/2000/svg"><path d="m36 72c19.8823 0 36-16.1177 36-36s-16.1177-36-36-36-36 16.1177-36 36 16.1177 36 36 36z" fill="#9c84ef"/><path d="m32.48 38.8801 4.82-33.88004c.1426-1.16843.7212-2.2399 1.62-3 .896-.77977 2.0526-1.193873 3.24-1.16.6906.010257 1.3715.16348 2 .45.622.28903 1.1745.70852 1.62 1.23.4455.51974.7757 1.12808.9687 1.78484.1931.65676.2446 1.34701.1513 2.02516l-4.73 35.05004z" fill="#ee8baa"/><path d="m38 32.6 4.3-21.28c.0437-.1781.1502-.3344.3-.44.1485-.1036.3309-.1465.51-.12.37.09.65.36.56.72l-2.67 20.81z" fill="#df76a5"/><path d="m37.2999 5.00001c.1511-1.21494.7589-2.32686 1.7-3.11-.74 5.57-2.15 15.41999-4.11 31.84999l-1.73.3z" fill="#f2aeba"/><path d="m14.69 4.23006c-1.4139.58798-2.5495 1.69432-3.1742 3.0924-.6246 1.39807-.6911 2.98204-.1858 4.42764l10.24 28.64 12.61-3.91-11.7-29.00004c-.6068-1.4603-1.7656-2.62199-3.2244-3.23247s-3.0996-.62037-4.5656-.02753z" fill="#ee8baa"/><path d="m24.84 33.15 5-.8001-7.16-17.1199c-.095-.2516-.2376-.4825-.42-.68-.1952-.188-.4266-.3343-.68-.43-.2558-.0931-.5292-.1273-.8-.1-.2693.0235-.5294.109-.76.25-.4137.2101-.7345.5665-.9 1-.1746.4223-.1993.8916-.07 1.33z" fill="#df76a5"/><path d="m22.1101 33.19-10.11-26.64996c-.4927.76269-.804 1.6282-.91 2.53-.1173.9008-.0318 1.81646.25 2.67996l7.78 21.84z" fill="#f1a6b4"/><path d="m46.22 28.8-37.06001 5.34c-2.5525.3666-4.85545 1.7304-6.40386 3.7925-1.54842 2.062-2.21592 4.654-1.856137 7.2075v.26c.369107 2.5513 1.733597 4.8526 3.795007 6.4005 2.06141 1.548 4.65195 2.2165 7.205 1.8595l37.1-5.3c2.5495-.3715 4.8483-1.737 6.3942-3.7982 1.5458-2.0611 2.213-4.6503 1.8558-7.2018v-.26c-.1766-1.2704-.6024-2.4934-1.253-3.5988-.6505-1.1054-1.5129-2.0714-2.5378-2.8426-1.0248-.7712-2.1919-1.3324-3.4342-1.6513-1.2423-.319-2.5354-.3894-3.805-.2073z" fill="#ee8baa"/><path d="m50.3401 45-38.08 5.53c-1.1931.1733-2.3403.58-3.37621 1.1967s-1.9402 1.4314-2.66125 2.3976c-1.45622 1.9513-2.07764 4.4012-1.72755 6.8107s1.643 4.5812 3.59432 6.0374c1.95129 1.4562 4.40119 2.0777 6.81069 1.7276l38.1-5.53c2.3287-.4419 4.3967-1.7664 5.7719-3.697s1.9513-4.3178 1.608-6.6631c-.3434-2.3453-1.5796-4.4672-3.4505-5.9226-1.8709-1.4553-4.2317-2.1315-6.5894-1.8873z" fill="#ee8baa"/><path d="m33.33 48.0001c.77-.63.67-2.06-.26-3.19s-2.29-1.54-3.07-.91-.67 2.0599.24 3.1999 2.3 1.5401 3.09.9001z" fill="#1e1c2a"/><path d="m49.8699 43.9099c.23-1.34-.35-2.56-1.29-2.72s-1.89.79-2.12 2.13.34 2.55 1.28 2.72 1.89-.79 2.13-2.13z" fill="#1e1c2a"/><path d="m38 51.19 2.39 1.51c.371.2386.7918.3891 1.23.44.4352.058.8778.023 1.2984-.1029.4207-.1258.8098-.3396 1.1416-.6271.3241-.278.5893-.618.78-1l.71-1.56" stroke="#ab4a72" stroke-linecap="round" stroke-miterlimit="10" stroke-width="1.82"/><path d="m9.42999 51.8599c-2.2-.52-4.85-1.21-5.94-1.29 1.05293 1.1902 2.37689 2.1095 3.86 2.68l-.35.37 5.65001-.35c1.99-.27 1.16-.47-3.22001-1.41z" fill="#df79a8"/><path d="m7.15999 40.2099c1.42-1.57 2.07-3.28 1.48-3.82s-2.24.3001-3.64 1.8801-2.06 3.28-1.46 3.82 2.21-.3001 3.62-1.8801z" fill="#f1a5bc"/><path d="m65.6599 62.9-3.25-1.25c-.06 0-.12 0-.09.09l1.25 3.26-1.25 3.25c-.008.0129-.0116.0281-.0103.0432s.0075.0294.0177.0407.0237.019.0386.0219.0304.0009.044-.0058l3.25-1.25 3.34 1.29c.0137.0067.0291.0087.044.0058.015-.0029.0285-.0106.0387-.0219.0101-.0113.0163-.0256.0177-.0407.0013-.0151-.0023-.0303-.0104-.0432l-1.28-3.29v-.05l1.24-3.25c0-.05 0-.11-.09-.09l-3.25 1.29z" fill="#4de6ca"/><path d="m9.17007 62.5-1.42-3.18c-.00519-.013-.01416-.0241-.02574-.032-.01159-.0078-.02526-.012-.03926-.012-.01399 0-.02766.0042-.03925.012-.01158.0079-.02055.019-.02575.032l-1.41 3.18-3.21 1.5c-.01299.0052-.02413.0142-.03197.0258-.00785.0116-.01205.0252-.01205.0392s.0042.0277.01205.0393c.00784.0116.01898.0205.03197.0257l3.17 1.37 1.41 3.18c.0052.013.01417.0242.02575.032.01159.0078.02526.012.03925.012.014 0 .02767-.0042.03926-.012.01158-.0078.02055-.019.02574-.032l1.42-3.18 3.18003-1.42c.013-.0052.0241-.0141.032-.0257.0078-.0116.012-.0253.012-.0393s-.0042-.0276-.012-.0392c-.0079-.0116-.019-.0206-.032-.0258l-3.11003-1.41s-.03-.02-.03-.04z" fill="#dbd2ff"/><g fill="#fbcc00"><path d="m70.3 12.2c.9389 0 1.7-.7611 1.7-1.7 0-.93884-.7611-1.69995-1.7-1.69995h-4.32c-.9389 0-1.7.76111-1.7 1.69995 0 .9389.7611 1.7 1.7 1.7z"/><path d="m57.02 12.2001c.9389 0 1.7-.7612 1.7-1.7001 0-.93883-.7611-1.69995-1.7-1.69995h-4.32c-.9389 0-1.7.76112-1.7 1.69995 0 .9389.7611 1.7001 1.7 1.7001z"/><path d="m59.7999 19.3c0 .9389.7612 1.7 1.7001 1.7.9388 0 1.7-.7611 1.7-1.7v-4.32c0-.9389-.7612-1.7-1.7-1.7-.9389 0-1.7001.7611-1.7001 1.7z"/><path d="m59.7999 6.01997c0 .93888.7612 1.7 1.7001 1.7.9388 0 1.7-.76112 1.7-1.7v-4.32c0-.938884-.7612-1.69999909-1.7-1.69999909-.9389 0-1.7001.76111509-1.7001 1.69999909z"/></g></svg>