<svg height="24" viewBox="0 0 24 24" width="24" xmlns="http://www.w3.org/2000/svg"><g fill="none" fill-rule="evenodd"><path d="m22 11.0722236c-1.1766935-.6816686-2.5428514-1.0722236-4-1.0722236-2.5237915 0-4.7794015 1.1734429-6.24699 3.0055461-1.7298828.0746607-4.75301.903262-4.75301 2.4944539v1.5h3.0620401c-.0409439.3275942-.0620401.6613397-.0620401 1 0 .6902735.0877804 1.3604854.2528087 2h-6.2528087c-1.1 0-2-.9-2-2v-12c0-1.1.9-2 2-2h16c1.1 0 2 .9 2 2zm-10-4.3222236c-1.24 0-2.25 1.01-2.25 2.25s1.01 2.25 2.25 2.25 2.25-1.01 2.25-2.25-1.01-2.25-2.25-2.25z" fill="#4f545c" opacity=".6"/><path d="m0 0h24v24h-24z"/></g></svg>