<svg height="154" viewBox="0 0 254 154" width="254" xmlns="http://www.w3.org/2000/svg" xmlns:xlink="http://www.w3.org/1999/xlink"><mask id="a" fill="#fff"><path d="m.7942 147h203.416468v-146.15374522h-203.416468z" fill="#fff" fill-rule="evenodd"/></mask><g fill="none" fill-rule="evenodd"><g transform="translate(2 3)"><path d="m90.8451.7799h147.808c6.819 0 12.347 5.528 12.347 12.347s-5.528 12.348-12.347 12.348h-76.549c-6.603 0-11.956 5.353-11.956 11.956 0 6.603 5.353 11.956 11.956 11.956h46.477c15.419 0 27.919 12.5 27.919 27.92 0 15.419-12.5 27.919-27.919 27.919h-178.317c-16.714 0-30.264-13.55-30.264-30.264s13.55-30.264 30.264-30.264h16.663c12.127 0 21.959-9.832 21.959-21.959 0-12.128 9.832-21.959 21.959-21.959" fill="#4f545c" fill-opacity=".3" transform="translate(0 18.154)"/><path d="m66.9349 53.2166-2.88-4.778c-.285-.474-.133-1.088.34-1.373.001-.001.001-.001.001-.001l-1.691-2.807-.001.001c-.162.098-.34.144-.516.144-.338 0-.67-.172-.857-.484l-7.257-12.04c-1.236 12.311 5.786 22.527 5.862 22.637.155.222.214.497.163.764l-1.475 7.615c2.435-3.372 5.218-6.633 8.311-9.678" fill="#36393f"/><path d="m65.7679 47.4051 2.648 4.394c4.351-4.056 9.255-7.674 14.622-10.569-6.85-7.593-14.132-10.324-19.18-11.252-3.901-.717-7.058-.498-8.756-.269l7.942 13.176c.285.474.133 1.087-.339 1.373l1.691 2.807c.473-.285 1.087-.134 1.372.34" fill="#4f545c"/><path d="m162.8788 62.8953-1.474-7.616c-.051-.266.007-.541.162-.764.077-.109 7.092-10.345 5.862-22.636l-12.861 21.337c3.094 3.045 5.876 6.306 8.311 9.679" fill="#36393f"/><path d="m157.6454 29.9783c-5.047.928-12.331 3.659-19.18 11.252 5.367 2.895 10.271 6.513 14.621 10.569l13.315-22.091c-1.698-.228-4.855-.447-8.756.27" fill="#4f545c"/><path d="m174.121 118.9618c0-2-1.547-3.626-3.505-3.79.223 2.494.454 5.059.671 7.465 1.627-.439 2.834-1.912 2.834-3.675" fill="#4f545c"/><path d="m68.4071 132.8709.852-13.916c-1.511-.53-2.946-1.099-4.301-1.707.289.969.469 1.972.514 3.004.012.25-.011.496-.015.745l.441 8.77c.048 1.049-.046 2.086-.254 3.104z" fill="#72767d"/><path d="m151.0926 132.8709-.812-13.265c-10.046 3.172-23.225 4.775-39.529 4.775s-29.482-1.603-39.529-4.775l-.812 13.265z" fill="#72767d"/><path d="m152.2445 118.9554.852 13.916h17.108c-.336-3.712-1.411-15.555-2.122-23.602-3.654 4.035-8.941 7.263-15.838 9.686" fill="#72767d"/><path d="m87.8417 92.0448h-13.635c-.552 0-1-.447-1-1s.448-1 1-1h13.635c.552 0 1 .447 1 1s-.448 1-1 1zm41.616 0c-.553 0-1-.447-1-1s.447-1 1-1h13.634c.553 0 1 .447 1 1s-.447 1-1 1zm-26.703 13.229c-.25-.297-.305-.712-.141-1.065.165-.351.518-.577.907-.577h14.462c.388 0 .742.226.906.577.164.353.11.768-.14 1.065l-7.231 8.62c-.19.226-.471.357-.766.357-.296 0-.577-.131-.766-.357zm-49.052-23.95c.349 0 .673.182.854.48 3.523 5.787 3.523 12.696 0 18.482-.182.298-.505.48-.854.48h-3.136c.702 2.038 1.697 3.93 2.986 5.677 4.669 1.703 8.387 4.645 10.365 8.298 10.19 5.113 25.741 7.64 46.834 7.64 35.372 0 55.185-7.094 60.185-21.615h-3.136c-.349 0-.673-.182-.855-.48-3.522-5.786-3.522-12.695 0-18.482.182-.298.506-.48.855-.48h2.464c-5.12-16.05-19.952-34.007-39.807-41.601v.601c0 .417-.259.79-.649.937-5.967 2.237-12.512 3.355-19.057 3.355-6.546 0-13.091-1.118-19.057-3.355-.391-.147-.649-.52-.649-.937v-.601c-19.855 7.594-34.687 25.551-39.808 41.601z" fill="#4f545c"/><path d="m93.0453 39.6258c11.142 3.992 24.271 3.992 35.412 0v-4.142c-3.384 2.294-10.575 3.48-17.706 3.48-3.456 0-6.841-.275-9.79-.798-.544-.096-.907-.614-.811-1.158.001-.006.005-.009.006-.015-.899-.182-1.74-.386-2.515-.611-.003.008 0 .016-.003.024-.176.526-.741.806-1.266.631-1.465-.491-2.538-1.021-3.327-1.557z" fill="#4f545c"/><path d="m100.1561 36.993c.104-.535.61-.896 1.153-.796 2.837.501 6.101.767 9.442.767 10.809 0 17.706-2.669 17.706-4.506s-6.897-4.506-17.706-4.506c-10.808 0-17.706 2.669-17.706 4.506 0 .625 1.038 1.703 3.963 2.682.515.173.792.726.633 1.242.775.225 1.617.429 2.515.611" fill="#72767d"/><path d="m52.9159 91.0448c0 3.221-.753 5.973-1.96 7.721h2.174c2.752-4.873 2.752-10.568 0-15.442h-2.174c1.207 1.747 1.96 4.5 1.96 7.721" fill="#36393f"/><path d="m168.3729 98.7655h2.175c-1.206-1.748-1.96-4.5-1.96-7.721 0-3.22.754-5.973 1.96-7.72h-2.175c-2.752 4.874-2.752 10.568 0 15.441" fill="#36393f"/><path d="m115.8383 105.6317h-10.174l5.087 6.063z" fill="#b9bbbe"/><path d="m44.578 91.0448c0 4.419 1.673 7.721 3.169 7.721s3.169-3.302 3.169-7.721-1.673-7.721-3.169-7.721-3.169 3.302-3.169 7.721" fill="#4f545c"/><path d="m176.9247 91.0448c0-4.419-1.673-7.721-3.169-7.721-1.495 0-3.168 3.302-3.168 7.721s1.673 7.721 3.168 7.721c1.496 0 3.169-3.302 3.169-7.721" fill="#4f545c"/><path d="m87.6527 24.16c4.433 0 8.039-3.605 8.039-8.038s-3.606-8.039-8.039-8.039-8.039 3.606-8.039 8.039 3.606 8.038 8.039 8.038" fill="#4f545c"/><path d="m63.9007 129.8621-.134-2.666c-1.011 1.823-2.438 3.526-4.289 5.022-3.976 3.214-9.351 5.126-15.136 5.385-.448.021-.896.03-1.34.03-5.294 0-10.299-1.415-14.218-4.04-1.986-1.33-3.565-2.906-4.736-4.64l.12 2.688c.17 3.782 2.356 7.266 6.156 9.811 3.894 2.609 8.985 3.908 14.354 3.674 5.362-.241 10.323-1.995 13.969-4.942 3.558-2.876 5.423-6.541 5.254-10.322" fill="#4f545c"/><path d="m37.1825 118.5213 13.271-.049h.004c.551 0 .998.445 1 .996.002.553-.444 1.002-.996 1.004l-13.271.049h-.004c-.551 0-.998-.445-1-.996-.002-.553.444-1.002.996-1.004m-13.441 3.6c.17 3.781 2.356 7.265 6.156 9.81 3.894 2.61 8.988 3.91 14.354 3.674 5.362-.24 10.323-1.995 13.969-4.942 3.33-2.691 5.154-6.077 5.238-9.599l-.078-1.563c-.908-7.21-9.164-12.672-19.176-12.672-.411 0-.823.008-1.24.027-10.954.491-19.577 7.339-19.223 15.265" fill="#36393f"/><g fill="#202225"><path d="m114.4603 107.2743-2.943 3.508c-.399.476-1.132.476-1.532 0l-2.942-3.508c-.546-.651-.084-1.643.766-1.643h5.885c.849 0 1.312.992.766 1.643zm-4.475 6.619c.19.227.471.358.766.358s.576-.131.766-.358l7.231-8.619c.25-.298.304-.713.14-1.065s-.517-.578-.906-.578h-14.462c-.389 0-.742.226-.906.578s-.11.767.14 1.065z"/><path d="m143.0921 92.0448c.552 0 1-.447 1-1s-.448-1-1-1h-13.635c-.552 0-1 .447-1 1s.448 1 1 1z"/><path d="m87.8417 90.0448h-13.635c-.552 0-1 .447-1 1s.448 1 1 1h13.635c.552 0 1-.447 1-1s-.448-1-1-1"/><path d="m238.6874 132.8709h-20.487c-.553 0-1 .447-1 1s.447 1 1 1h20.487c.553 0 1-.447 1-1s-.447-1-1-1"/><path d="m213.6913 132.8709h-1.504c-.553 0-1 .447-1 1s.447 1 1 1h1.504c.553 0 1-.447 1-1s-.447-1-1-1"/><path d="m138.3602 22.7902c2.292-.421 4.578-.624 6.829-.624 17.842-.001 33.742 12.744 37.078 30.905 2.698 14.693-3.557 28.987-14.873 37.269-1.038.76-2.518.08-2.647-1.2-.173-1.731-.542-3.849-1.315-5.205-.868-1.523-.436-3.432.812-4.663 6.205-6.12 9.381-15.104 7.691-24.303-1.309-7.136-5.33-13.342-11.321-17.475-.454-.313-1.077-.199-1.391.256-.313.454-.199 1.077.256 1.391 5.55 3.829 9.276 9.578 10.489 16.189 1.576 8.579-1.415 16.954-7.237 22.626-1.845 1.796-4.898 1.269-5.965-1.074-1.422-3.121-3.394-7.244-5.025-9.875l-1.303-6.733c-.598-3.088-.141-6.273 1.221-9.109 2.326-4.839 5.197-13.21 3.332-22.539-.002-.009-.007-.017-.009-.025-.005-.025-.018-.047-.025-.072-.027-.088-.065-.17-.115-.246-.018-.029-.037-.055-.058-.082-.069-.086-.148-.162-.241-.221-.006-.004-.01-.011-.016-.014-.001-.001-.003-.001-.004-.002-.081-.049-.17-.087-.265-.111-.185-.046-4.6-1.143-10.87-.015-4.562.823-10.828 3.014-17.047 8.553-2.322 2.067-5.587 2.753-8.474 1.6-.072-.029-.145-.058-.217-.087-.716-.282-1.193-.964-1.193-1.733 0-.455.161-.899.462-1.24 5.399-6.125 12.806-10.555 21.441-12.141zm-86.888 97.308c0-.011-.001-.021-.001-.032-.061-1.279 1.16-2.242 2.358-1.787.064.024.129.049.194.073.729.274 1.203.982 1.155 1.759l-.725 11.848c-.026.426-.379.758-.805.758-.408 0-.751-.304-.802-.708 0 0-1.362-11.661-1.374-11.911zm-14.556-29.207c0 4.419-1.673 7.72-3.169 7.72s-3.169-3.301-3.169-7.72 1.673-7.721 3.169-7.721 3.169 3.302 3.169 7.721zm1.642 7.72c-.681 0-1.147-.697-.865-1.317.769-1.685 1.223-3.903 1.223-6.403 0-2.501-.454-4.72-1.223-6.404-.282-.619.184-1.317.865-1.317.351 0 .683.192.845.504 2.388 4.591 2.388 9.844 0 14.433-.162.312-.494.504-.845.504zm58.193 25.616c14.373 0 26.317-1.246 35.827-3.714 1.927-.5 3.823.903 3.944 2.889l.08 1.304c.266 4.342-3.184 8.011-7.535 8.011h-64.631c-4.351 0-7.801-3.669-7.535-8.011l.08-1.304c.121-1.986 2.018-3.389 3.944-2.889 9.51 2.468 21.454 3.714 35.826 3.714zm53.64 8.49h-6.299c-2.807 0-5.129-2.185-5.301-4.987l-.409-6.68c-.08-1.308.686-2.529 1.906-3.009 3.691-1.452 6.874-3.159 9.543-5.12 1.891-1.389 4.578-.118 4.787 2.219.365 4.074.751 8.355 1.063 11.795.281 3.109-2.168 5.782-5.29 5.782zm6.373-16.041c-.084-.937.968-1.515 1.737-.975.979.688 1.62 1.82 1.62 3.107 0 1.083-.455 2.056-1.184 2.748-.643.611-1.72.158-1.8-.726-.122-1.365-.248-2.763-.373-4.154zm-20.895-67.864c-2.83-2.351-5.86-4.511-9.069-6.414-1.188-.705-1.401-2.358-.41-3.321 6.263-6.087 12.678-8.412 17.255-9.253 2.22-.408 4.198-.513 5.804-.485 1.356.023 2.182 1.494 1.482 2.656l-9.561 15.861c-1.161 1.928-3.771 2.393-5.501.956zm11.698 5.549c-.155.223-.214.498-.163.764l.582 3.003c.219 1.133-1.216 1.816-1.948.925-.884-1.078-1.803-2.139-2.758-3.18-1.568-1.711-1.853-4.236-.655-6.224l8.548-14.18c.681-1.132 2.428-.596 2.361.723-.51 10.209-5.901 18.074-5.967 18.169zm9.021 36.53c0-4.419 1.672-7.721 3.168-7.721s3.168 3.302 3.168 7.721-1.672 7.72-3.168 7.72-3.168-3.301-3.168-7.72zm-1.643-7.721c.681 0 1.147.697.865 1.317-.768 1.684-1.222 3.903-1.222 6.404 0 2.5.454 4.718 1.222 6.403.282.62-.184 1.317-.865 1.317h-.001c-.351 0-.682-.192-.845-.504-2.387-4.589-2.387-9.842 0-14.433.163-.312.494-.504.846-.504zm-75.9-44.971c0-1.251 1.253-2.099 2.42-1.644.284.111.586.22.907.328.525.175 1.091-.106 1.266-.631.003-.008 0-.016.003-.024.159-.517-.118-1.069-.634-1.242-2.924-.979-3.962-2.057-3.962-2.682 0-1.837 6.898-4.506 17.706-4.506 10.809 0 17.706 2.669 17.706 4.506s-6.897 4.506-17.706 4.506c-3.341 0-6.605-.266-9.442-.767-.543-.1-1.05.261-1.153.796-.001.005-.005.009-.006.014-.096.544.267 1.063.811 1.159 2.949.522 6.335.798 9.79.798 5.727 0 11.492-.766 15.293-2.254 1.163-.456 2.413.395 2.413 1.644 0 .76-.48 1.447-1.201 1.684-10.473 3.442-22.537 3.442-33.009 0-.722-.237-1.202-.924-1.202-1.684zm-2 1.369v.602c0 .413.254.788.642.933 5.968 2.24 12.516 3.359 19.064 3.359s13.096-1.119 19.065-3.359c.387-.145.641-.52.641-.933v-.602c18.884 7.223 33.224 23.82 38.987 39.234.429 1.146-.42 2.368-1.644 2.368-.343 0-.669.177-.848.47-3.531 5.792-3.531 12.71 0 18.502.179.293.505.469.848.469h.002c1.544 0 2.552 1.648 1.829 3.012-6.619 12.491-26.046 18.604-58.88 18.604-19.527 0-34.305-2.166-44.476-6.545-1.313-.565-2.478-1.453-3.31-2.616-1.739-2.432-4.291-4.47-7.378-5.929-1.563-.739-2.867-1.93-3.682-3.453-.01-.019-.02-.038-.03-.057-.724-1.366.281-3.016 1.827-3.016.343 0 .67-.176.848-.469 3.532-5.791 3.532-12.71 0-18.503-.178-.293-.505-.469-.848-.469-1.223 0-2.072-1.222-1.643-2.368 5.763-15.414 20.103-32.011 38.986-39.234zm-31.109 14.793c-.067-.095-5.402-7.858-5.961-17.994-.075-1.366 1.74-1.92 2.446-.749l4.91 8.147c.187.311.518.483.857.483.176 0 .354-.046.515-.144l.001-.001c.473-.285.625-.898.34-1.372l-6.487-10.762c-.693-1.15.125-2.606 1.468-2.63 1.611-.029 3.6.075 5.833.485 5.047.928 12.33 3.659 19.18 11.252-3.871 2.089-7.502 4.553-10.858 7.287-2.034 1.656-5.058 1.135-6.412-1.112-.285-.474-.9-.626-1.372-.34 0 0 0 0-.001 0-.473.285-.625.9-.34 1.373l2.108 3.498c.454.753.33 1.711-.284 2.341-1.859 1.902-3.599 3.883-5.21 5.916-.517.653-1.556.178-1.398-.64l.827-4.274c.052-.267-.007-.542-.162-.764zm-15.731 52.314c10.011 0 18.267 5.462 19.175 12.673l.079 1.562c-.085 3.522-1.909 6.908-5.239 9.599-3.646 2.947-8.607 4.702-13.968 4.942-5.367.236-10.46-1.064-14.355-3.674-3.8-2.545-5.986-6.029-6.156-9.81-.354-7.926 8.269-14.774 19.223-15.265.417-.018.83-.027 1.241-.027zm14.442 33.355c-3.646 2.947-8.607 4.701-13.969 4.942-5.369.234-10.461-1.065-14.355-3.674-3.8-2.545-5.986-6.029-6.155-9.811l-.12-2.688c1.171 1.734 2.75 3.31 4.736 4.64 3.918 2.625 8.923 4.04 14.218 4.04.444 0 .891-.009 1.339-.03 5.785-.259 11.161-2.171 15.136-5.385 1.851-1.496 3.279-3.199 4.29-5.022l.134 2.666c.169 3.781-1.697 7.446-5.254 10.322zm29.005-132.101c4.433 0 8.039 3.606 8.039 8.039 0 4.432-3.606 8.038-8.039 8.038-4.432 0-8.038-3.606-8.038-8.038 0-4.433 3.606-8.039 8.038-8.039zm117.702 124.788h-25.013c-4.604 0-8.447-3.512-8.861-8.098l-.011-.109c2.652-.544 4.652-2.894 4.652-5.702 0-3.165-2.539-5.742-5.686-5.815l-.007-.071c-.311-3.492.388-6.966 1.784-10.182.313-.722.59-1.462.83-2.22.001-.001.002-.001.004-.002.231.055.467.093.71.093 1.608 0 2.999-1.247 3.931-3.28.92-2.008 2.47-3.653 4.278-4.922 3.812-2.675 7.16-6.035 9.886-9.988 6.03-8.741 8.296-19.293 6.383-29.711-3.463-18.857-19.883-32.544-39.042-32.544v2-2h-.003c-2.397 0-4.817.221-7.19.657-8.561 1.572-15.973 5.803-21.556 11.675.005-.064.014-.128.014-.194 0-3.247-5.726-5.316-12.773-6.122-1.544-.177-2.352-1.922-1.47-3.201l.144-.209c.62-.899 1.852-1.126 2.752-.505l1.631 1.126c.959.661 2.267.555 3.112-.254 4.744-4.57 10.228-8.119 16.297-10.554 1.078-.432 1.688-1.579 1.478-2.722l-.299-1.627c-.229-1.246.595-2.441 1.841-2.67l11.66-2.141c1.245-.229 2.441.595 2.669 1.841l.299 1.628c.21 1.143 1.188 1.999 2.351 2.02 6.535.117 12.922 1.487 18.983 4.073 1.08.456 2.336.089 2.998-.87l.517-.749c.956-1.387 2.855-1.736 4.241-.78l8.515 5.874c1.386.956 1.734 2.855.778 4.241l-.504.732c-.664.961-.587 2.271.224 3.112 4.579 4.751 8.137 10.243 10.572 16.322.431 1.076 1.584 1.678 2.724 1.469l.132-.024c2.07-.38 4.056.99 4.436 3.06l1.593 8.674c.38 2.07-.99 4.057-3.06 4.437l-.13.024c-1.14.209-2.004 1.182-2.025 2.341-.116 6.549-1.49 12.946-4.082 19.013-.459 1.075-.066 2.326.896 2.99l1.267.874c1.091.752 1.365 2.247.613 3.338l-6.61 9.583c-.753 1.091-2.247 1.366-3.339.613l-1.284-.885c-.963-.663-2.271-.554-3.111.253-4.743 4.568-10.226 8.118-16.296 10.552-1.079.432-1.69 1.581-1.48 2.724l.894 4.866c.101.543.615.909 1.164.803.543-.099.902-.621.803-1.164l-.894-4.867c-.04-.22.08-.435.287-.518 6.297-2.529 11.986-6.214 16.907-10.953.161-.155.407-.177.591-.05l4.083 2.816c.454.311 1.077.198 1.391-.256l10.47-15.181c.313-.454.199-1.077-.256-1.39l-4.083-2.817c-.184-.127-.251-.364-.163-.569 2.681-6.285 4.104-12.913 4.231-19.697.005-.222.163-.411.382-.451l4.867-.894c.261-.048.492-.197.643-.416.15-.218.208-.487.16-.748l-3.331-18.138c-.1-.543-.61-.906-1.164-.803l-4.867.894c-.216.036-.435-.079-.518-.286-2.528-6.297-6.214-11.985-10.954-16.907-.155-.161-.176-.408-.05-.591l2.817-4.083c.15-.218.208-.487.16-.748s-.198-.492-.416-.643l-15.181-10.47c-.454-.313-1.077-.2-1.391.255l-2.816 4.083c-.125.182-.365.252-.567.164-6.288-2.681-12.915-4.105-19.699-4.232-.223-.004-.412-.163-.452-.382l-.894-4.866c-.099-.543-.614-.904-1.164-.803l-18.138 3.331c-.26.048-.492.198-.642.416s-.208.488-.16.748l.894 4.867c.04.219-.08.434-.287.517-6.297 2.529-11.986 6.216-16.907 10.954-.161.155-.407.177-.59.05l-4.084-2.816c-.218-.152-.487-.205-.748-.16-.261.047-.493.197-.643.416l-4.567 6.622c-.361-.006-.723-.01-1.084-.01-9.792 0-19.706 2.234-19.706 6.506 0 .11.01.225.025.342-.005.043-.025.082-.025.126v3.392c0 .766-.469 1.454-1.183 1.733l-.041.017c-.561.22-1.169-.185-1.169-.788l.001-5.886c0-2.644 1.368-5.164 3.703-6.407 3.338-1.777 5.56-5.383 5.317-9.473-.301-5.077-4.539-9.225-9.621-9.424-5.716-.223-10.438 4.364-10.438 10.032 0 3.797 2.12 7.108 5.239 8.813 2.354 1.286 3.799 3.773 3.799 6.456v7.504c0 .33-.191.629-.49.769l-.018.008c-.762.356-1.658.165-2.233-.448-14.247-15.18-30.497-11.259-30.667-11.217-.094.025-.183.063-.264.111-.001.001-.002.001-.004.002-.005.003-.007.008-.012.011-.096.06-.176.138-.246.225-.021.026-.039.052-.057.081-.05.076-.088.158-.115.247-.008.024-.019.046-.025.071-.002.008-.007.016-.009.025-1.642 8.208.385 15.676 2.48 20.648 1.842 4.372 2.427 9.17 1.525 13.828-.477 2.463-1.369 4.824-2.58 7.021-2.036 3.694-3.644 7.42-4.765 11.047h-.313c-.142 0-.276.037-.402.093-.232-.055-.468-.093-.71-.093-2.947 0-5.169 4.179-5.169 9.721s2.222 9.72 5.169 9.72c.242 0 .478-.038.71-.093.002.001.003.001.005.002.547 1.73 1.287 3.367 2.219 4.91-2.444-.581-5.075-.846-7.806-.726-12.056.54-21.536 8.324-21.132 17.353 0 0 .096 1.952.207 4.186.176 3.521-2.632 6.474-6.156 6.474-.553 0-1 .447-1 1s.447 1 1 1h1.274c2.961 0 5.817 1.354 7.508 3.784 1.158 1.665 2.715 3.173 4.634 4.459 3.919 2.625 8.923 4.04 14.218 4.04.444 0 .891-.01 1.34-.03 5.784-.259 11.16-2.171 15.135-5.384 1.258-1.017 2.327-2.126 3.199-3.305 1.665-2.251 4.307-3.564 7.108-3.564 0 0 100.967.07 101.095.07.031 0 34.049-.07 34.049-.07.553 0 1-.447 1-1s-.447-1-1-1z" mask="url(#a)" transform="translate(14 .154)"/><path d="m37.1864 120.5213h.004l13.271-.049c.552-.002.998-.451.996-1.004-.002-.551-.449-.996-1-.996h-.004l-13.271.049c-.552.002-.998.451-.996 1.004.002.551.449.996 1 .996"/><path d="m218.2005 105.9608c.552 0 1-.448 1-1 0-.833.676-1.51 1.51-1.51.553 0 1-.448 1-1s-.447-1-1-1c-.834 0-1.51-.676-1.51-1.51 0-.552-.448-1-1-1s-1 .448-1 1c0 .834-.676 1.51-1.51 1.51-.552 0-1 .448-1 1s.448 1 1 1c.834 0 1.51.677 1.51 1.51 0 .552.448 1 1 1"/><path d="m29.6595 46.9354c.256 0 .512-.098.707-.293l1.183-1.183c.391-.391.391-1.024 0-1.414-.39-.391-1.023-.391-1.414 0l-1.183 1.183c-.391.391-.391 1.023 0 1.414.195.195.451.293.707.293"/><path d="m23.743 52.8519c.256 0 .512-.098.707-.293l1.184-1.183c.39-.39.39-1.024 0-1.414-.391-.391-1.024-.391-1.414 0l-1.184 1.183c-.391.39-.391 1.023 0 1.414.195.195.451.293.707.293"/><path d="m30.1356 52.5589c.195.195.451.293.707.293s.512-.098.707-.293c.391-.391.391-1.023 0-1.414l-1.183-1.183c-.391-.391-1.023-.391-1.414 0-.391.39-.391 1.023 0 1.414z"/><path d="m24.2196 46.6424c.195.195.451.293.707.293s.512-.098.707-.293c.391-.391.391-1.024 0-1.414l-1.184-1.183c-.39-.391-1.024-.391-1.414 0-.39.39-.39 1.024 0 1.414z"/></g></g><path d="m0 0h254v154h-254z"/></g></svg>