<svg width="82" height="90" viewBox="0 0 82 90" fill="none" xmlns="http://www.w3.org/2000/svg">
<g clip-path="url(#clip0_5164_107149)">
<path d="M74.6905 8.46315C74.4491 8.46315 74.2076 8.47705 73.9707 8.50021C74.0357 8.10647 74.0729 7.70346 74.0729 7.29119C74.0729 3.26577 70.7989 3.05176e-05 66.7633 3.05176e-05C63.9816 3.05176e-05 61.5621 1.55183 60.3268 3.83553C59.0916 1.55183 56.6721 3.05176e-05 53.8903 3.05176e-05C49.8548 3.05176e-05 46.5808 3.26577 46.5808 7.29119C46.5808 7.70346 46.6179 8.10647 46.6829 8.50021C46.4461 8.47705 46.2093 8.46315 45.9631 8.46315C41.9275 8.46315 38.6536 11.7289 38.6536 15.7543C38.6536 19.7797 41.9275 23.0455 45.9631 23.0455C46.1675 23.0455 46.3718 23.0362 46.5715 23.0177C46.3718 23.6801 46.265 24.3842 46.265 25.1115C46.265 29.1369 49.539 32.4026 53.5745 32.4026C56.6163 32.4026 59.2262 30.5451 60.3268 27.9093C61.4275 30.5497 64.0373 32.4026 67.0791 32.4026C71.1147 32.4026 74.3887 29.1369 74.3887 25.1115C74.3887 24.3842 74.2819 23.6801 74.0822 23.0177C74.2819 23.0362 74.4862 23.0455 74.6905 23.0455C78.7261 23.0455 82.0001 19.7797 82.0001 15.7543C82.0001 11.7289 78.7261 8.46315 74.6905 8.46315V8.46315Z" fill="#FFF2A6"/>
<path d="M47.5792 82.8015C47.3238 82.8015 47.0869 82.644 46.9941 82.3892C46.5622 81.157 46.6829 79.7396 47.3052 78.5954C47.4678 78.2943 47.8439 78.1878 48.1411 78.3499C48.4383 78.512 48.5498 78.8872 48.3873 79.1837C47.9275 80.0268 47.8393 81.0737 48.1551 81.9816C48.2665 82.3012 48.0993 82.6533 47.7743 82.7644C47.7092 82.7876 47.6396 82.7969 47.5699 82.7969L47.5792 82.8015Z" fill="black"/>
<path d="M50.3935 81.2358C50.3192 81.2358 50.2449 81.2219 50.1752 81.1941C48.9167 80.7124 47.8579 79.7489 47.2588 78.5445C47.1055 78.2388 47.2356 77.8682 47.5374 77.72C47.8439 77.5717 48.2154 77.6968 48.3641 77.9979C48.8238 78.9243 49.6458 79.6701 50.6117 80.0407C50.9322 80.1611 51.09 80.5178 50.9693 80.8375C50.8764 81.083 50.6396 81.2312 50.3935 81.2312V81.2358Z" fill="black"/>
<path d="M50.231 77.7987C49.553 77.7987 48.8796 77.6644 48.2619 77.3957C47.9508 77.2614 47.8068 76.8954 47.9415 76.585C48.0762 76.2747 48.4431 76.1311 48.7542 76.2654C49.5437 76.6082 50.4678 76.6592 51.2898 76.4137C51.6149 76.3164 51.9585 76.5017 52.0607 76.8259C52.1582 77.1502 51.9725 77.493 51.6474 77.5949C51.1923 77.7338 50.7093 77.7987 50.231 77.7987V77.7987Z" fill="black"/>
<path d="M38.793 58.8898C40.0794 58.4174 41.3054 58.2182 42.4989 58.0838C43.0933 58.019 43.6784 57.9912 44.2589 57.968C44.5468 57.9588 44.8348 57.9495 45.1227 57.9495C45.4199 57.9495 45.666 57.9495 46.019 57.9634C47.3332 58.0282 48.745 58.2367 50.2217 58.8574C50.9555 59.1678 51.7032 59.5893 52.3951 60.1498C53.0917 60.7011 53.7279 61.4191 54.2109 62.1973C54.6985 62.9709 55.0282 63.8047 55.2418 64.6246C55.4555 65.4445 55.5344 66.2551 55.5391 67.0426C55.5391 67.8301 55.4462 68.5898 55.2836 69.3263C55.2001 69.6969 55.0979 70.0582 54.9818 70.4149C54.9214 70.5909 54.8564 70.7716 54.7867 70.943L54.5778 71.434C53.9973 72.7217 53.245 73.8103 52.4648 74.7368C51.6753 75.6586 50.8765 76.4553 50.0639 77.1455C48.8471 78.1832 47.0221 78.0396 45.9818 76.8259C45.1645 75.8717 45.0763 74.5376 45.6707 73.5092V73.5C46.2047 72.5874 46.7434 71.7721 47.1614 70.9893C47.5886 70.2157 47.9184 69.4977 48.118 68.8445L48.1877 68.6037C48.2016 68.5296 48.2202 68.4601 48.2388 68.3906C48.2666 68.247 48.2945 68.1034 48.3084 67.9598C48.3456 67.6726 48.3549 67.39 48.3363 67.1306C48.3084 66.6072 48.1691 66.2181 48.0391 66.0003C47.923 65.8012 47.7465 65.6112 47.2961 65.3704C46.8549 65.1387 46.1815 64.9303 45.4199 64.8145C43.6088 64.5505 41.6444 64.3791 40.1398 64.4161L39.8565 64.4254C38.2729 64.4671 36.9587 63.2164 36.9215 61.6414C36.889 60.3861 37.6785 59.2975 38.7977 58.8852L38.793 58.8898Z" fill="url(#paint0_linear_5164_107149)"/>
<mask id="mask0_5164_107149" style="mask-type:alpha" maskUnits="userSpaceOnUse" x="36" y="57" width="20" height="21">
<path d="M38.793 58.8898C40.0794 58.4174 41.3054 58.2182 42.4989 58.0838C43.0933 58.019 43.6784 57.9912 44.2589 57.968C44.5468 57.9588 44.8348 57.9495 45.1227 57.9495C45.4199 57.9495 45.666 57.9495 46.019 57.9634C47.3332 58.0282 48.745 58.2367 50.2217 58.8574C50.9555 59.1678 51.7032 59.5893 52.3951 60.1498C53.0917 60.7011 53.7279 61.4191 54.2109 62.1973C54.6985 62.9709 55.0282 63.8047 55.2418 64.6246C55.4555 65.4445 55.5344 66.2551 55.5391 67.0426C55.5391 67.8301 55.4462 68.5898 55.2836 69.3263C55.2001 69.6969 55.0979 70.0582 54.9818 70.4149C54.9214 70.5909 54.8564 70.7716 54.7867 70.943L54.5778 71.434C53.9973 72.7217 53.245 73.8103 52.4648 74.7368C51.6753 75.6586 50.8765 76.4553 50.0639 77.1455C48.8471 78.1832 47.0221 78.0396 45.9818 76.8259C45.1645 75.8717 45.0763 74.5376 45.6707 73.5092V73.5C46.2047 72.5874 46.7434 71.7721 47.1614 70.9893C47.5886 70.2157 47.9184 69.4977 48.118 68.8445L48.1877 68.6037C48.2016 68.5296 48.2202 68.4601 48.2388 68.3906C48.2666 68.247 48.2945 68.1034 48.3084 67.9598C48.3456 67.6726 48.3549 67.39 48.3363 67.1306C48.3084 66.6072 48.1691 66.2181 48.0391 66.0003C47.923 65.8012 47.7465 65.6112 47.2961 65.3704C46.8549 65.1387 46.1815 64.9303 45.4199 64.8145C43.6088 64.5505 41.6444 64.3791 40.1398 64.4161L39.8565 64.4254C38.2729 64.4671 36.9587 63.2164 36.9215 61.6414C36.889 60.3861 37.6785 59.2975 38.7977 58.8852L38.793 58.8898Z" fill="url(#paint1_linear_5164_107149)"/>
</mask>
<g mask="url(#mask0_5164_107149)">
<path d="M42.6289 66.7369C42.6289 66.7369 42.6103 66.7369 42.601 66.7369C42.3595 66.7184 42.1737 66.5099 42.1923 66.269C42.3967 63.2488 42.9446 60.2471 43.8223 57.3519C43.892 57.1203 44.1381 56.986 44.3703 57.0601C44.6025 57.1296 44.7372 57.3751 44.6629 57.6067C43.8038 60.4417 43.2697 63.3739 43.07 66.3292C43.0561 66.5609 42.861 66.7415 42.6289 66.7415V66.7369Z" fill="#3F99F2"/>
<path d="M46.5065 66.8944C46.4229 66.8944 46.3393 66.8712 46.265 66.8249C46.0607 66.6906 46.005 66.4219 46.135 66.2181C48.2712 62.9431 52.3161 61.0994 56.1984 61.6229C56.4399 61.6553 56.6071 61.8777 56.5746 62.1185C56.5421 62.3594 56.3192 62.5262 56.0777 62.4937C52.5251 62.012 48.8285 63.7028 46.8688 66.6952C46.7852 66.8249 46.6412 66.8944 46.4972 66.8944H46.5065Z" fill="#3F99F2"/>
<path d="M53.3331 74.6441C53.2495 74.6441 53.1659 74.621 53.0916 74.57C50.8625 73.1016 48.4105 72.0454 45.8099 71.4386C45.5731 71.383 45.4245 71.1468 45.4802 70.9105C45.5359 70.6743 45.7728 70.526 46.0096 70.5816C48.7124 71.2116 51.2619 72.3095 53.5792 73.8381C53.7836 73.9724 53.8393 74.2457 53.7046 74.4496C53.621 74.5793 53.4817 74.6487 53.3378 74.6487L53.3331 74.6441Z" fill="#3F99F2"/>
</g>
<path d="M31.5717 21.8087L30.8333 19.0571C30.42 17.5192 28.8875 16.4306 27.4107 16.6252L19.8086 17.635C16.9061 18.0195 15.773 19.8446 14.3566 23.6616L31.5717 21.8133V21.8087Z" fill="#66BCFF"/>
<path d="M9.62434 23.7542C12.7404 22.5915 17.2868 21.1046 24.3735 20.0531C31.4834 19.0757 37.005 19.4462 40.4647 19.7937C43.0003 20.0484 45.8564 21.628 47.0266 23.8932C48.0762 25.9268 49.3115 28.7941 50.2588 32.4258H50.2681C51.2155 36.0575 51.7309 39.175 51.587 41.3475C51.3362 45.1089 48.5034 47.828 46.8316 49.2177C44.9833 50.7556 41.0174 52.5761 36.5406 53.8685C37.4648 52.8772 38.1567 51.7516 38.6025 50.612C38.9833 49.63 38.1196 49.2594 37.4137 49.4586L36.601 49.6809C34.3255 50.3017 30.5871 50.9409 28.2419 51.1864L26.8673 51.33C25.5763 51.5524 25.0283 52.0017 24.6614 53.0162C24.1134 54.5355 23.728 55.1192 23.0175 55.814C17.6676 56.0781 13.7203 55.8696 11.2219 55.0636C6.32714 53.4933 4.59959 47.6335 3.66152 44.0435C2.72344 40.4489 1.6089 36.5624 2.05936 32.5833C2.33335 30.1699 4.3256 25.7322 9.61969 23.7542H9.62434Z" fill="#FFA919"/>
<path d="M24.666 53.0115C25.0329 51.9971 25.5763 51.5477 26.8719 51.3254L28.2465 51.1818C30.5917 50.9363 34.3301 50.297 36.6056 49.6763L37.4183 49.454C38.1242 49.2548 38.988 49.6253 38.6072 50.6074C38.1613 51.7469 37.4694 52.8726 36.5452 53.8639C33.9771 54.605 31.2419 55.1701 28.6413 55.4064C26.6211 55.5871 24.7496 55.7214 23.0221 55.8094C23.7326 55.1146 24.1181 54.5309 24.666 53.0115V53.0115Z" fill="#FFE75C"/>
<path d="M12.8147 27.7982C15.1088 26.7652 19.2094 25.3338 26.0081 24.3008C32.6629 23.291 36.5824 23.6477 39.8378 24.1016C41.6118 24.3518 42.5545 25.4264 43.3904 27.0107C44.1009 28.3587 45.1087 31.0732 46.1489 35.2514C47.1752 39.388 46.7898 41.2687 44.2913 42.3759C45.0483 41.2317 45.0019 39.5455 44.3378 36.882C43.3393 32.8658 42.3734 30.2625 41.6861 28.9655C40.8827 27.4461 39.9771 26.4085 38.2728 26.1722C35.1428 25.7368 31.3812 25.3894 24.9865 26.3622C18.4571 27.3535 14.5237 28.7246 12.3178 29.7205C11.3844 30.1421 10.646 30.786 10.2234 31.6105C10.2234 31.5642 10.2234 31.5132 10.2234 31.4623C10.2327 29.7622 11.2729 28.4884 12.8147 27.7935V27.7982Z" fill="#ED5F00"/>
<path d="M12.3224 29.7252C14.5283 28.7339 18.4617 27.3581 24.9911 26.3668C31.3812 25.394 35.1474 25.7414 38.2774 26.1769C39.9818 26.4131 40.8873 27.4507 41.6907 28.9701C42.3734 30.2671 43.344 32.8705 44.3424 36.8866C45.0019 39.5455 45.0529 41.2363 44.296 42.3805C44.2542 42.399 44.217 42.4175 44.1706 42.4361C41.8486 43.4088 37.9616 44.9143 31.2976 45.8686C24.6335 46.8228 20.0035 46.6097 17.3518 46.2855C15.5732 46.0678 13.9618 44.956 13.1166 43.3764C12.4339 42.0933 11.6491 40.3006 11.0546 38.0354C10.4742 35.8212 10.228 33.6255 10.228 31.6151C10.6506 30.786 11.3937 30.1421 12.3224 29.7252V29.7252Z" fill="black"/>
<path d="M36.2793 33.1092C36.7544 32.4261 36.5263 31.4479 35.7697 30.9244C35.0132 30.4009 34.0147 30.5303 33.5396 31.2135C33.0645 31.8966 33.2926 32.8748 34.0492 33.3983C34.8057 33.9218 35.8041 33.7924 36.2793 33.1092Z" fill="#57F287"/>
<path d="M21.3429 35.4139C21.818 34.7308 21.5899 33.7526 20.8333 33.2291C20.0768 32.7056 19.0783 32.835 18.6032 33.5182C18.1281 34.2013 18.3562 35.1795 19.1128 35.703C19.8693 36.2265 20.8677 36.0971 21.3429 35.4139Z" fill="#57F287"/>
<path d="M0.285346 41.7181C-0.508768 38.6423 0.410732 35.7008 2.34726 34.8994C2.43085 34.8623 2.51444 34.8253 2.60267 34.8021C2.6166 34.8021 2.63518 34.8021 2.64911 34.7929C2.66769 34.7882 2.68162 34.779 2.7002 34.7743V34.7836C4.27913 34.4732 6.18779 36.7338 7.01442 39.9208C7.84104 43.1124 7.26983 46.0353 5.74662 46.5542V46.5634C5.74662 46.5634 5.70947 46.568 5.69089 46.5727C5.67696 46.5727 5.66767 46.5819 5.65374 46.5866C5.56551 46.6097 5.47727 46.6236 5.38439 46.6283C3.30855 46.8877 1.0841 44.7846 0.285346 41.7088V41.7181Z" fill="#FFE75C"/>
<path d="M10.0376 80.9347C10.4648 85.8634 14.6072 90 19.9571 90H37.6644C43.0235 90 47.1566 85.8588 47.5839 80.9347C47.621 80.5225 47.6349 80.1056 47.6117 79.6794C47.5839 78.8502 47.4399 78.0118 47.1845 77.1733L43.5901 62.6327C42.5127 59.1122 39.2573 56.7034 35.5653 56.7034H22.0468C18.3595 56.7034 15.0995 59.1076 14.0221 62.6327L10.4277 77.1733C10.1723 78.0118 10.0283 78.8502 10.0005 79.6794C9.97723 80.1009 9.98652 80.5178 10.0237 80.9347H10.0376Z" fill="url(#paint2_linear_5164_107149)"/>
<path d="M10.0377 80.9347H47.5886C47.6258 80.5225 47.6397 80.1055 47.6165 79.6794H10.0145C9.99127 80.1009 10.0006 80.5178 10.0377 80.9347Z" fill="#ED5F00"/>
<path d="M26.8765 58.4868L26.9694 58.6258C27.1598 58.9223 27.3084 59.2373 27.4152 59.5708C27.5452 59.9553 27.6056 60.3583 27.6056 60.7752V71.6563C27.6985 72.6384 28.5251 73.3842 29.5096 73.3842H39.3919C40.604 73.3842 41.5096 72.2771 41.2681 71.0958L39.2573 61.3403C38.8718 59.4781 37.2279 58.1348 35.3146 58.1348H27.0669C26.8858 58.1348 26.779 58.334 26.8765 58.4868V58.4868Z" fill="#FF8C19"/>
<path d="M27.4106 59.5661C27.5407 59.9506 27.601 60.3536 27.601 60.7705V71.6517C27.6939 72.6337 28.5205 73.3795 29.5051 73.3795H38.635C39.0948 72.9765 39.3456 72.328 39.2155 71.6424L37.5159 62.7207C37.1026 60.4972 35.7837 59.5661 33.9168 59.5661H27.4106V59.5661Z" fill="#FFE75C"/>
<path d="M29.663 54.7532C29.375 54.5772 29.101 54.3919 28.8224 54.2113L27.9958 53.6693C27.7171 53.4933 27.4431 53.3172 27.1692 53.1319C26.8998 52.942 26.6258 52.7567 26.3658 52.5344L26.3518 52.5205C26.0128 52.2287 25.971 51.7145 26.2636 51.3763C26.4679 51.1401 26.7791 51.0474 27.067 51.1123C27.4385 51.1957 27.7822 51.3439 28.1165 51.506C28.4509 51.6728 28.7713 51.8673 29.0732 52.0804C29.3797 52.2935 29.6722 52.5251 29.9509 52.7706C30.2249 53.0208 30.4896 53.2848 30.7218 53.5766C31.0004 53.9241 30.94 54.429 30.5917 54.7069C30.3224 54.92 29.9509 54.9339 29.6722 54.7671L29.6583 54.7579L29.663 54.7532Z" fill="black"/>
<path d="M31.6551 52.7567C32.0592 52.4742 32.4678 52.1823 32.8672 51.8766C33.2666 51.5755 33.666 51.2605 34.0514 50.9455C34.4322 50.6213 34.813 50.297 35.1706 49.9681C35.5328 49.6392 35.8718 49.3011 36.183 48.9722L36.2155 48.9398C36.5174 48.6201 37.0235 48.6062 37.344 48.9073C37.6087 49.1529 37.6644 49.5373 37.5112 49.8477C37.2325 50.3989 36.8703 50.8529 36.4895 51.2744C36.104 51.6913 35.6907 52.0712 35.2542 52.414L34.9245 52.6687L34.5901 52.9142C34.3626 53.0764 34.135 53.2292 33.8982 53.3775C33.4245 53.6693 32.9369 53.938 32.4121 54.1603C32.0034 54.3317 31.5391 54.1372 31.3672 53.7341C31.2186 53.3821 31.344 52.9884 31.6412 52.7799L31.6551 52.7706V52.7567Z" fill="black"/>
<path d="M35.4771 56.0873C35.2449 56.0873 35.0127 55.9854 34.8548 55.7909C34.6133 55.4898 34.6273 55.0682 34.8688 54.7857C34.5762 54.5587 34.4694 54.151 34.6458 53.8036C34.8409 53.4145 35.3192 53.2524 35.7093 53.4469C36.1458 53.6647 36.4384 54.1001 36.4895 54.6096C36.5452 55.1238 36.3502 55.6102 35.9694 55.9113C35.8254 56.0271 35.6489 56.0827 35.4771 56.0827V56.0873Z" fill="black"/>
<path d="M18.3921 59.0427C18.7775 59.3253 19.149 59.6218 19.5159 59.9182C19.8874 60.2147 20.245 60.525 20.6072 60.8261C21.327 61.4376 22.0283 62.0722 22.7202 62.7115L21.8704 62.0213C21.9679 62.0027 22.0143 61.9657 22.0608 61.9425C22.1026 61.9193 22.1397 61.9008 22.1769 61.8916C22.214 61.8823 22.2419 61.8684 22.279 61.8545C22.2883 61.8499 22.2976 61.8452 22.3069 61.836C22.3116 61.836 22.3162 61.8313 22.3208 61.8267H22.3255C22.3255 61.8267 22.3255 61.8267 22.3441 61.8035L22.423 61.697L23.0546 60.8354C23.8998 59.6866 24.7636 58.5517 25.6691 57.4446C26.5608 56.3282 27.4849 55.235 28.4694 54.1789C29.8998 52.6456 32.3007 52.5622 33.8378 53.9889C35.0824 55.147 35.3703 56.9443 34.6737 58.3988C34.0468 59.6959 33.3641 60.9558 32.649 62.188C31.9431 63.4295 31.2001 64.6477 30.4384 65.8521L29.8626 66.7508L29.7883 66.862L29.6583 67.0565C29.5607 67.2001 29.4586 67.3345 29.3518 67.4734C29.1381 67.7467 28.9059 68.0015 28.6645 68.2516C27.6892 69.2429 26.4725 70.0026 25.1629 70.4566C24.5081 70.6836 23.8255 70.8318 23.1382 70.9059C22.4462 70.9708 21.7496 70.9661 21.0623 70.8735C19.6877 70.6928 18.3549 70.1694 17.245 69.3958L16.6041 68.9511L16.3998 68.7056C15.7961 67.983 15.2017 67.2511 14.6258 66.5006C14.3425 66.1208 14.05 65.7502 13.7713 65.3657C13.4927 64.9813 13.2141 64.5968 12.954 64.1984C11.7977 62.4428 12.2853 60.085 14.0453 58.9269C15.4153 58.0283 17.1521 58.1302 18.4014 59.0427H18.3921Z" fill="url(#paint3_linear_5164_107149)"/>
<mask id="mask1_5164_107149" style="mask-type:alpha" maskUnits="userSpaceOnUse" x="12" y="52" width="24" height="19">
<path d="M18.3921 59.0427C18.7775 59.3253 19.149 59.6218 19.5159 59.9182C19.8874 60.2147 20.245 60.525 20.6072 60.8261C21.327 61.4376 22.0283 62.0722 22.7202 62.7115L21.8704 62.0213C21.9679 62.0027 22.0143 61.9657 22.0608 61.9425C22.1026 61.9193 22.1397 61.9008 22.1769 61.8916C22.214 61.8823 22.2419 61.8684 22.279 61.8545C22.2883 61.8499 22.2976 61.8452 22.3069 61.836C22.3116 61.836 22.3162 61.8313 22.3208 61.8267H22.3255C22.3255 61.8267 22.3255 61.8267 22.3441 61.8035L22.423 61.697L23.0546 60.8354C23.8998 59.6866 24.7636 58.5517 25.6691 57.4446C26.5608 56.3282 27.4849 55.235 28.4694 54.1789C29.8998 52.6456 32.3007 52.5622 33.8378 53.9889C35.0824 55.147 35.3703 56.9443 34.6737 58.3988C34.0468 59.6959 33.3641 60.9558 32.649 62.188C31.9431 63.4295 31.2001 64.6477 30.4384 65.8521L29.8626 66.7508L29.7883 66.862L29.6583 67.0565C29.5607 67.2001 29.4586 67.3345 29.3518 67.4734C29.1381 67.7467 28.9059 68.0015 28.6645 68.2516C27.6892 69.2429 26.4725 70.0026 25.1629 70.4566C24.5081 70.6836 23.8255 70.8318 23.1382 70.9059C22.4462 70.9708 21.7496 70.9661 21.0623 70.8735C19.6877 70.6928 18.3549 70.1694 17.245 69.3958L16.6041 68.9511L16.3998 68.7056C15.7961 67.983 15.2017 67.2511 14.6258 66.5006C14.3425 66.1208 14.05 65.7502 13.7713 65.3657C13.4927 64.9813 13.2141 64.5968 12.954 64.1984C11.7977 62.4428 12.2853 60.085 14.0453 58.9269C15.4153 58.0283 17.1521 58.1302 18.4014 59.0427H18.3921Z" fill="url(#paint4_linear_5164_107149)"/>
</mask>
<g mask="url(#mask1_5164_107149)">
<path d="M12.564 66.8249C12.5036 66.8249 12.4432 66.811 12.3828 66.7878C12.1599 66.6905 12.0624 66.4265 12.1599 66.2088C13.6135 62.9755 16.0562 60.1452 19.0469 58.2367C19.2512 58.107 19.5252 58.1672 19.6553 58.371C19.7853 58.5748 19.7249 58.8481 19.5206 58.9778C16.6738 60.7937 14.3426 63.4897 12.9633 66.5701C12.889 66.7322 12.7311 66.8295 12.5593 66.8295L12.564 66.8249Z" fill="#3F99F2"/>
<path d="M20.6955 71.8231C20.5608 71.8231 20.4261 71.7582 20.3379 71.6424C19.1862 70.0721 18.615 68.1358 18.7311 66.1949C18.8472 64.254 19.6367 62.3965 20.9648 60.9697C21.132 60.7937 21.4106 60.7798 21.5871 60.9466C21.7636 61.1133 21.7775 61.3913 21.6103 61.5673C20.4401 62.8273 19.711 64.5319 19.6088 66.2459C19.5066 67.9598 20.0314 69.7386 21.0484 71.1236C21.1924 71.3182 21.1506 71.5961 20.9509 71.7397C20.8719 71.7953 20.7791 71.8231 20.6908 71.8231H20.6955Z" fill="#3F99F2"/>
<path d="M31.8038 63.8556C31.7806 63.8556 31.7527 63.8556 31.7295 63.851C28.5623 63.2997 25.762 60.8771 24.7636 57.8291C24.6893 57.5974 24.8146 57.3519 25.0468 57.2732C25.279 57.1991 25.5252 57.3241 25.6041 57.5558C26.505 60.3027 29.0267 62.4845 31.8827 62.9848C32.1242 63.0264 32.2821 63.2534 32.2403 63.4943C32.2032 63.7074 32.0174 63.8602 31.8084 63.8602L31.8038 63.8556Z" fill="#3F99F2"/>
</g>
<path d="M30.4942 38.9804C28.8781 37.6093 26.4679 37.2201 24.5035 38.0076L23.9788 36.7013C26.4215 35.7239 29.4075 36.2103 31.4091 37.9057L30.4942 38.9804Z" fill="#57F287"/>
<path d="M58.4786 38.5913C59.9021 38.5913 61.056 37.4403 61.056 36.0204C61.056 34.6006 59.9021 33.4495 58.4786 33.4495C57.0552 33.4495 55.9012 34.6006 55.9012 36.0204C55.9012 37.4403 57.0552 38.5913 58.4786 38.5913Z" fill="#FFF2A6"/>
<path d="M54.8796 43.4366C55.9337 43.4366 56.7883 42.5843 56.7883 41.5328C56.7883 40.4813 55.9337 39.6289 54.8796 39.6289C53.8255 39.6289 52.9709 40.4813 52.9709 41.5328C52.9709 42.5843 53.8255 43.4366 54.8796 43.4366Z" fill="#FFF2A6"/>
<path d="M53.7789 18.7051C54.9459 18.7051 55.8919 17.7614 55.8919 16.5974C55.8919 15.4334 54.9459 14.4897 53.7789 14.4897C52.6119 14.4897 51.6659 15.4334 51.6659 16.5974C51.6659 17.7614 52.6119 18.7051 53.7789 18.7051Z" fill="#FFC619"/>
<path d="M60.3315 18.7051C61.4985 18.7051 62.4445 17.7614 62.4445 16.5974C62.4445 15.4334 61.4985 14.4897 60.3315 14.4897C59.1645 14.4897 58.2185 15.4334 58.2185 16.5974C58.2185 17.7614 59.1645 18.7051 60.3315 18.7051Z" fill="#FFC619"/>
<path d="M66.8795 18.7051C68.0464 18.7051 68.9925 17.7614 68.9925 16.5974C68.9925 15.4334 68.0464 14.4897 66.8795 14.4897C65.7125 14.4897 64.7665 15.4334 64.7665 16.5974C64.7665 17.7614 65.7125 18.7051 66.8795 18.7051Z" fill="#FFC619"/>
</g>
<defs>
<linearGradient id="paint0_linear_5164_107149" x1="52.7945" y1="76.9556" x2="42.6425" y2="56.0857" gradientUnits="userSpaceOnUse">
<stop stop-color="#3F99F2"/>
<stop offset="0.01" stop-color="#419BF2"/>
<stop offset="0.16" stop-color="#5CB1F6"/>
<stop offset="0.31" stop-color="#71C2FA"/>
<stop offset="0.48" stop-color="#80CEFD"/>
<stop offset="0.69" stop-color="#89D5FE"/>
<stop offset="1" stop-color="#8CD8FF"/>
</linearGradient>
<linearGradient id="paint1_linear_5164_107149" x1="52.7945" y1="76.9556" x2="42.6425" y2="56.0857" gradientUnits="userSpaceOnUse">
<stop stop-color="#3F99F2"/>
<stop offset="0.01" stop-color="#419BF2"/>
<stop offset="0.16" stop-color="#5CB1F6"/>
<stop offset="0.31" stop-color="#71C2FA"/>
<stop offset="0.48" stop-color="#80CEFD"/>
<stop offset="0.69" stop-color="#89D5FE"/>
<stop offset="1" stop-color="#8CD8FF"/>
</linearGradient>
<linearGradient id="paint2_linear_5164_107149" x1="28.8131" y1="105.083" x2="28.8131" y2="43.0846" gradientUnits="userSpaceOnUse">
<stop offset="0.12" stop-color="#FFC619"/>
<stop offset="0.2" stop-color="#FFBB19"/>
<stop offset="0.33" stop-color="#FF9F19"/>
<stop offset="0.41" stop-color="#FF8C19"/>
<stop offset="0.83" stop-color="#ED5F00"/>
</linearGradient>
<linearGradient id="paint3_linear_5164_107149" x1="15.3642" y1="68.4462" x2="34.6073" y2="52.8251" gradientUnits="userSpaceOnUse">
<stop stop-color="#3F99F2"/>
<stop offset="0.01" stop-color="#419BF2"/>
<stop offset="0.16" stop-color="#5CB1F6"/>
<stop offset="0.31" stop-color="#71C2FA"/>
<stop offset="0.48" stop-color="#80CEFD"/>
<stop offset="0.69" stop-color="#89D5FE"/>
<stop offset="1" stop-color="#8CD8FF"/>
</linearGradient>
<linearGradient id="paint4_linear_5164_107149" x1="15.3642" y1="68.4462" x2="34.6073" y2="52.8251" gradientUnits="userSpaceOnUse">
<stop stop-color="#3F99F2"/>
<stop offset="0.01" stop-color="#419BF2"/>
<stop offset="0.16" stop-color="#5CB1F6"/>
<stop offset="0.31" stop-color="#71C2FA"/>
<stop offset="0.48" stop-color="#80CEFD"/>
<stop offset="0.69" stop-color="#89D5FE"/>
<stop offset="1" stop-color="#8CD8FF"/>
</linearGradient>
<clipPath id="clip0_5164_107149">
<rect width="82.0001" height="90" fill="white"/>
</clipPath>
</defs>
</svg>
