<?xml version="1.0" encoding="UTF-8" standalone="no"?>
<svg width="77px" height="88px" viewBox="0 0 77 88" version="1.1" xmlns="http://www.w3.org/2000/svg" xmlns:xlink="http://www.w3.org/1999/xlink" xmlns:sketch="http://www.bohemiancoding.com/sketch/ns">
    <!-- Generator: Sketch 3.3.3 (12081) - http://www.bohemiancoding.com/sketch -->
    <title>Discord-Logo-Color</title>
    <desc>Created with Sketch.</desc>
    <defs></defs>
    <g id="Welcome" stroke="none" stroke-width="1" fill="none" fill-rule="evenodd" sketch:type="MSPage">
        <g id="Connecting-Accounts" sketch:type="MSArtboardGroup" transform="translate(-166.000000, -157.000000)">
            <g id="=-Button-+-Adding-your-Twitch-a-+-Discord-Logo-Color-+-Twitch_GlitchIcon_purple-+-Rectangle-2491" sketch:type="MSLayerGroup" transform="translate(100.000000, 157.000000)">
                <g id="Discord-Logo-Color-+-Twitch_GlitchIcon_purple-+-Rectangle-2491" transform="translate(60.000000, 0.000000)" sketch:type="MSShapeGroup">
                    <g id="Discord-Logo-Color-+-Twitch_GlitchIcon_purple">
                        <g id="Discord-Logo-Color">
                            <g id="Group">
                                <rect id="Rectangle-2517" x="0" y="0" width="88" height="88"></rect>
                                <path d="M36.536,36.916 C34.028,36.916 32.048,39.116 32.048,41.8 C32.048,44.484 34.072,46.684 36.536,46.684 C39.044,46.684 41.024,44.484 41.024,41.8 C41.068,39.116 39.044,36.916 36.536,36.916 L36.536,36.916 Z" id="Shape" fill="#FFFFFF"></path>
                                <path d="M52.596,36.916 C50.088,36.916 48.108,39.116 48.108,41.8 C48.108,44.484 50.132,46.684 52.596,46.684 C55.104,46.684 57.084,44.484 57.084,41.8 C57.084,39.116 55.104,36.916 52.596,36.916 L52.596,36.916 Z" id="Shape" fill="#FFFFFF"></path>
                                <path d="M73.98,0 L15.02,0 C10.048,0 6,4.048 6,9.064 L6,68.552 C6,73.568 10.048,77.616 15.02,77.616 L64.916,77.616 L62.584,69.476 L68.216,74.712 L73.54,79.64 L83,88 L83,68.552 L83,64.152 L83,9.064 C83,4.048 78.952,0 73.98,0 L73.98,0 Z M56.996,57.464 C56.996,57.464 55.412,55.572 54.092,53.9 C59.856,52.272 62.056,48.664 62.056,48.664 C60.252,49.852 58.536,50.688 56.996,51.26 C54.796,52.184 52.684,52.8 50.616,53.152 C46.392,53.944 42.52,53.724 39.22,53.108 C36.712,52.624 34.556,51.92 32.752,51.216 C31.74,50.82 30.64,50.336 29.54,49.72 C29.408,49.632 29.276,49.588 29.144,49.5 C29.056,49.456 29.012,49.412 28.968,49.368 C28.176,48.928 27.736,48.62 27.736,48.62 C27.736,48.62 29.848,52.14 35.436,53.812 C34.116,55.484 32.488,57.464 32.488,57.464 C22.764,57.156 19.068,50.776 19.068,50.776 C19.068,36.608 25.404,25.124 25.404,25.124 C31.74,20.372 37.768,20.504 37.768,20.504 L38.208,21.032 C30.288,23.32 26.636,26.796 26.636,26.796 C26.636,26.796 27.604,26.268 29.232,25.52 C33.94,23.452 37.68,22.88 39.22,22.748 C39.484,22.704 39.704,22.66 39.968,22.66 C42.652,22.308 45.688,22.22 48.856,22.572 C53.036,23.056 57.524,24.288 62.1,26.796 C62.1,26.796 58.624,23.496 51.144,21.208 L51.76,20.504 C51.76,20.504 57.788,20.372 64.124,25.124 C64.124,25.124 70.46,36.608 70.46,50.776 C70.46,50.776 66.72,57.156 56.996,57.464 L56.996,57.464 Z" id="Shape" fill="#FFFFFF"></path>
                            </g>
                        </g>
                    </g>
                </g>
            </g>
        </g>
    </g>
</svg>