<svg width="180" height="119" viewBox="0 0 180 119" fill="none" xmlns="http://www.w3.org/2000/svg">
<g clip-path="url(#clip0_634_105860)">
<path d="M57.4673 71.1387V79.7896L70.3345 96.1387H126.634L126.467 88.8052L57.4673 71.1387Z" fill="#3442D9"/>
<path d="M57.4673 71.2925H111.536L126.503 89.1023L70.9494 89.3141L57.4673 71.2925Z" fill="#5865F2"/>
<path d="M79.1888 76.3921L69.2019 75.7605L74.7605 66.9722L79.1888 76.3921Z" fill="#57F287"/>
<path d="M74.7603 66.9722L81.9086 72.599L79.1885 76.3921L74.7603 66.9722Z" fill="#91FFAD"/>
<path d="M84.539 83.0775L75.8871 85.2558C75.8428 85.2667 75.7967 85.2685 75.7517 85.2611C75.7067 85.2537 75.6636 85.2372 75.6251 85.2127L71.3943 82.4172C71.3221 82.3696 71.2715 82.2955 71.2534 82.211C71.2353 82.1264 71.2511 82.0381 71.2974 81.9651C71.3428 81.9003 71.4084 81.8523 71.484 81.8287L79.6371 79.471C79.6817 79.4587 79.7283 79.4558 79.7741 79.4626C79.8198 79.4694 79.8636 79.4857 79.9027 79.5105L84.6323 82.4854C84.7051 82.5325 84.7564 82.6063 84.7752 82.6909C84.794 82.7755 84.7788 82.8641 84.7328 82.9376C84.6877 83.0065 84.6187 83.0564 84.539 83.0775Z" fill="#FFE75C"/>
<path d="M75.5391 81.3406L69.2843 81.0535C69.2381 81.0517 69.1929 81.0402 69.1515 81.0198C69.1101 80.9994 69.0734 80.9705 69.0438 80.9351L66.8584 78.3083C66.8279 78.2779 66.8037 78.2418 66.7872 78.2021C66.7707 78.1624 66.7622 78.1198 66.7622 78.0768C66.7622 78.0338 66.7707 77.9912 66.7872 77.9515C66.8037 77.9117 66.8279 77.8757 66.8584 77.8453C66.894 77.8104 66.937 77.7839 66.9842 77.7677C67.0314 77.7516 67.0816 77.7462 67.1311 77.752L73.3859 78.0391C73.4766 78.046 73.5612 78.0871 73.6228 78.1539L75.8082 80.7843C75.87 80.8462 75.9047 80.9301 75.9047 81.0176C75.9047 81.1051 75.87 81.189 75.8082 81.2509C75.7718 81.2833 75.7291 81.308 75.6829 81.3234C75.6366 81.3389 75.5877 81.3447 75.5391 81.3406Z" fill="#FFC619"/>
<path d="M100.953 73.6363L107.33 73.5933C107.37 73.5931 107.409 73.6013 107.446 73.6173C107.482 73.6334 107.515 73.657 107.542 73.6866L109.942 76.2775C109.968 76.3051 109.988 76.3375 110.001 76.373C110.015 76.4085 110.02 76.4462 110.019 76.484C110.017 76.5218 110.008 76.5589 109.992 76.593C109.975 76.6272 109.953 76.6578 109.924 76.683C109.872 76.7306 109.805 76.7574 109.734 76.7583L103.361 76.8014C103.321 76.8015 103.281 76.7936 103.244 76.7782C103.207 76.7628 103.174 76.7402 103.146 76.7117L100.748 74.1172C100.71 74.0771 100.683 74.0265 100.673 73.9717C100.663 73.9168 100.669 73.8602 100.691 73.8088C100.713 73.7575 100.749 73.7138 100.796 73.6831C100.843 73.6524 100.897 73.6361 100.953 73.6363Z" fill="#91FFAD"/>
<path d="M97.9458 75.4844L104.976 75.4378C105.019 75.4374 105.063 75.4462 105.103 75.4635C105.143 75.4808 105.179 75.5062 105.209 75.5382L107.854 78.409C107.913 78.4682 107.945 78.5482 107.945 78.6315C107.945 78.7149 107.913 78.7949 107.854 78.854C107.797 78.9085 107.721 78.9392 107.642 78.9402L100.612 78.9868C100.568 78.987 100.524 78.9781 100.483 78.9609C100.443 78.9436 100.406 78.9182 100.375 78.8863L97.7305 76.0155C97.672 75.957 97.6392 75.8776 97.6392 75.7948C97.6392 75.712 97.672 75.6327 97.7305 75.5741C97.7585 75.5454 97.792 75.5227 97.829 75.5073C97.866 75.4919 97.9058 75.4841 97.9458 75.4844Z" fill="#8CD9FF"/>
<path d="M97.4757 86.7234C97.4063 86.7218 97.3382 86.7049 97.2761 86.6738C97.2141 86.6428 97.1597 86.5985 97.1168 86.5439L87.6395 73.8657C87.6042 73.8185 87.5785 73.7649 87.5638 73.7078C87.5492 73.6508 87.546 73.5914 87.5543 73.5331C87.5626 73.4748 87.5824 73.4187 87.6124 73.368C87.6424 73.3173 87.6821 73.273 87.7292 73.2377C87.7764 73.2023 87.83 73.1766 87.887 73.162C87.9441 73.1474 88.0035 73.1441 88.0618 73.1525C88.1201 73.1608 88.1762 73.1805 88.2269 73.2105C88.2776 73.2405 88.3219 73.2803 88.3572 73.3274L97.8345 86.0057C97.8697 86.053 97.8952 86.1068 97.9095 86.164C97.9238 86.2212 97.9267 86.2807 97.9181 86.339C97.9094 86.3973 97.8893 86.4534 97.859 86.5039C97.8286 86.5545 97.7886 86.5986 97.7412 86.6336C97.6649 86.6918 97.5716 86.7234 97.4757 86.7234Z" fill="#3442D9"/>
<path d="M87.855 87.8934L94.2569 86.7558L90.1588 80.5513L87.855 87.8934Z" fill="#57F287"/>
<path d="M90.1587 80.5513L85.7771 84.9939L87.8549 87.8934L90.1587 80.5513Z" fill="#91FFAD"/>
<path d="M59.5369 95.4868L60.4771 95.1065C60.7338 95.0037 60.9535 94.8256 61.1072 94.5957C61.2609 94.3658 61.3415 94.0947 61.3383 93.8182C61.3096 91.6651 61.7295 86.5909 66.5345 88.3887C68.1529 88.9952 69.6206 89.8241 70.9915 89.6698C71.748 89.5821 72.4798 89.3455 73.1446 88.9737C75.958 87.4342 80.1637 89.3863 78.7427 93.6962C79.3925 96.6203 79.4242 99.6479 78.836 102.585C78.6312 103.501 78.1996 104.351 77.5808 105.057C76.9619 105.763 76.1756 106.303 75.2941 106.626L71.6374 107.979C70.8342 108.28 69.9675 108.372 69.1188 108.247C68.2701 108.121 67.4672 107.782 66.7857 107.261L66.068 106.701C65.1536 105.996 64.0668 105.548 62.9209 105.406" fill="#66BCFF"/>
<path d="M79.1734 100.339C79.2164 99.8147 79.238 99.2872 79.2487 98.7561C78.1128 100.325 76.7414 101.708 75.1829 102.858C75.1358 102.894 75.0963 102.939 75.0666 102.991C75.037 103.042 75.0178 103.099 75.0101 103.158C75.0025 103.217 75.0065 103.277 75.022 103.335C75.0375 103.392 75.0641 103.446 75.1004 103.493C75.1367 103.54 75.1819 103.58 75.2335 103.609C75.285 103.639 75.3419 103.658 75.4009 103.666C75.4599 103.673 75.5198 103.669 75.5772 103.654C75.6346 103.638 75.6884 103.612 75.7356 103.575C76.9923 102.621 78.1447 101.536 79.1734 100.339Z" fill="#3F99F2"/>
<path d="M73.5931 99.7967C73.6872 99.7957 73.7787 99.7656 73.8551 99.7105C75.7779 98.3414 77.4982 96.7081 78.9651 94.8588C78.897 94.4641 78.8252 94.073 78.7355 93.6962C78.7406 93.665 78.7503 93.6348 78.7642 93.6064C77.2697 95.6943 75.4328 97.5142 73.3311 98.9892C73.2833 99.0234 73.2427 99.0668 73.2118 99.1168C73.1808 99.1668 73.16 99.2224 73.1507 99.2805C73.1413 99.3385 73.1436 99.3979 73.1573 99.4551C73.171 99.5123 73.196 99.5661 73.2307 99.6136C73.2718 99.6711 73.3263 99.7178 73.3894 99.7497C73.4525 99.7816 73.5224 99.7977 73.5931 99.7967Z" fill="#3F99F2"/>
<path d="M70.9912 89.6698C70.8049 89.6842 70.6178 89.6842 70.4314 89.6698L70.2843 90.4306C70.2175 90.7667 70.0203 91.0626 69.7358 91.2536C69.4513 91.4446 69.1027 91.5151 68.7664 91.4497C68.6915 91.4353 68.6182 91.4137 68.5475 91.3851L65.8596 90.3337C65.8047 90.3123 65.7462 90.3018 65.6872 90.303C65.6283 90.3042 65.5702 90.317 65.5162 90.3407C65.4622 90.3643 65.4134 90.3984 65.3726 90.4409C65.3318 90.4834 65.2998 90.5336 65.2783 90.5885C65.2569 90.6434 65.2465 90.702 65.2477 90.7609C65.2489 90.8198 65.2616 90.8779 65.2853 90.9319C65.309 90.9859 65.343 91.0347 65.3855 91.0755C65.4281 91.1163 65.4782 91.1484 65.5331 91.1698L68.2209 92.2177C68.4743 92.3191 68.7446 92.3715 69.0176 92.372C69.5257 92.3717 70.018 92.1953 70.4107 91.8727C70.8033 91.5501 71.0719 91.1013 71.1707 90.6028L71.368 89.6052C71.2365 89.6339 71.1109 89.6555 70.9912 89.6698Z" fill="#3F99F2"/>
<path d="M42.3298 53.4941C42.3298 53.4941 13.5032 78.5851 24.7891 92.6342C34.4171 104.634 26.6193 106.629 34.5033 115.83C42.4841 125.161 62.9172 105.391 62.9172 105.391C62.9172 105.391 65.3754 99.4345 59.5368 95.4871L47.9854 100.317C47.9854 100.317 56.6194 67.3997 52.9124 60.4523C49.7473 54.5097 42.3298 53.4941 42.3298 53.4941Z" fill="#242145"/>
<path d="M39.3873 113.832C34.3849 107.186 38.1134 97.6832 41.3251 90.8901C45.8861 81.1545 52.1876 66.0934 47.4256 55.579C46.752 54.1267 45.7316 52.8623 44.4543 51.8972L44.1672 51.707C45.5668 47.4008 49.0082 44.1029 52.4209 41.268C53.0237 40.7835 53.6481 40.3026 54.2797 39.8325C53.5878 39.0541 52.7627 38.4052 51.8431 37.9163C51.5775 37.7763 51.3084 37.6364 51.0357 37.5C49.5431 39.1255 48.1721 40.8586 46.934 42.6854C45.0105 45.5096 43.4926 48.6998 43.1266 52.1304C46.062 53.9247 47.1062 57.6209 47.3718 60.8864C47.9531 70.7298 43.2522 81.0145 38.9818 89.7167C35.1457 97.4069 31.3095 107.867 37.2665 115.525C38.1411 116.594 39.1605 117.534 40.2952 118.321C41.7045 118.286 43.101 118.044 44.44 117.603C42.4801 116.765 40.748 115.472 39.3873 113.832Z" fill="#57F287"/>
<path d="M137.22 83.2701C137.008 83.1301 131.328 70.8609 118.847 76.1181C106.366 81.3753 115.133 83.9016 122.076 84.465C129.02 85.0284 132.806 88.9507 132.806 88.9507L137.22 83.2701Z" fill="#FF78B9"/>
<path d="M128.866 95.7797C128.866 95.7797 136.309 99.2749 139.197 101.823C141.58 103.926 157.258 117.494 164.776 106.079C166.012 104.154 166.752 101.954 166.93 99.6732C167.231 96.3036 166.528 91.5309 165.548 83.0225C164.303 72.1815 164.112 52.764 151.987 54.9889C140.78 57.0415 142.51 74.4602 150.333 89.1947C150.333 89.1947 138.946 82.9363 138.559 82.8933C138.171 82.8502 129.39 80.7832 128.866 95.7797Z" fill="#FFE75C"/>
<path d="M133.485 96.1246C133.689 95.6573 133.278 95.0338 132.567 94.7319C131.856 94.4299 131.115 94.5639 130.911 95.0312C130.708 95.4984 131.119 96.122 131.83 96.4239C132.54 96.7258 133.281 96.5918 133.485 96.1246Z" fill="#FFC619"/>
<path d="M153.613 96.7558C153.531 96.756 153.451 96.734 153.381 96.6923C153.311 96.6506 153.253 96.5907 153.214 96.519L145.52 81.9352C145.465 81.83 145.453 81.7071 145.488 81.5933C145.523 81.4796 145.602 81.3844 145.707 81.3287C145.812 81.2731 145.935 81.2615 146.049 81.2965C146.163 81.3314 146.258 81.4102 146.313 81.5154L154.011 96.0991C154.065 96.2049 154.076 96.3279 154.04 96.4414C154.005 96.5549 153.926 96.6499 153.821 96.7056C153.757 96.7399 153.685 96.7572 153.613 96.7558Z" fill="#FFC619"/>
<path d="M119.012 82.1791C118.865 82.2257 115.247 81.1276 113.661 86.4566C112.585 90.1277 120.806 83.6109 125.252 84.9279C129.698 86.2449 119.012 82.1791 119.012 82.1791Z" fill="#FF78B9"/>
<path d="M144.473 85.9867L143.425 85.4197C137.224 88.0214 135.91 95.2523 135.681 99.3862C135.975 99.5621 136.266 99.7451 136.549 99.9209C136.693 95.9556 137.845 88.2331 144.473 85.9867Z" fill="#FFC619"/>
<path d="M46.3089 106.818C46.3517 106.833 46.3966 106.84 46.4417 106.84C46.5373 106.84 46.6304 106.81 46.7078 106.754C46.7852 106.698 46.8428 106.618 46.8723 106.528L48.9214 100L47.8448 100.452L46.0219 106.255C45.9855 106.367 45.9948 106.489 46.0479 106.595C46.1009 106.7 46.1935 106.781 46.3053 106.818H46.3089Z" fill="black"/>
</g>
<defs>
<clipPath id="clip0_634_105860">
<rect width="144.831" height="80.8324" fill="white" transform="translate(22.1689 37.5)"/>
</clipPath>
</defs>
</svg>
