<svg xmlns="http://www.w3.org/2000/svg" xmlns:xlink="http://www.w3.org/1999/xlink" width="280" height="165" viewBox="0 0 280 165">
  <defs>
    <polygon id="a" points="0 131.539 0 .384 234.499 .384 234.499 131.539"/>
  </defs>
  <g fill="none" fill-rule="evenodd">
    <g transform="translate(22 6)">
      <g transform="translate(0 .616)">
        <mask id="b" fill="white">
          <use xlink:href="#a"/>
        </mask>
        <path fill="#4F545C" fill-opacity=".3" d="M33.6654,131.5389 L205.8344,131.5389 C221.6654,131.5389 234.4994,118.7049 234.4994,102.8729 C234.4994,87.0419 221.6654,74.2079 205.8344,74.2079 L190.3084,74.2079 C169.9224,74.2079 153.3964,57.6819 153.3964,37.2959 C153.3964,16.9099 136.8704,0.3839 116.4844,0.3839 L91.7634,0.3839 C74.1384,0.3839 59.8514,14.6709 59.8514,32.2959 L59.8514,38.0229 C59.8514,52.4839 48.1274,64.2079 33.6654,64.2079 C15.0724,64.2079 -0.0006,79.2809 -0.0006,97.8729 C-0.0006,116.4669 15.0724,131.5389 33.6654,131.5389" mask="url(#b)"/>
      </g>
      <polygon fill="#36393F" points="96.229 104.824 106.229 104.824 106.229 94.824 96.229 94.824"/>
      <polygon fill="#72767D" points="96.229 82.824 106.229 82.824 106.229 76.824 96.229 76.824"/>
      <polygon fill="#36393F" points="28.229 82.824 38.229 82.824 38.229 76.824 28.229 76.824"/>
      <polygon fill="#4F545C" points="96.229 69.824 106.229 69.824 106.229 63.824 96.229 63.824"/>
      <polygon fill="#36393F" points="28.229 69.824 38.229 69.824 38.229 63.824 28.229 63.824"/>
      <polygon fill="#72767D" points="28.229 104.824 38.229 104.824 38.229 94.824 28.229 94.824"/>
      <g transform="translate(9 10.616)">
        <path fill="#36393F" d="M96.2294,41.7079 C96.7804,41.7079 97.2294,42.1559 97.2294,42.7079 C97.2294,43.2599 96.7804,43.7079 96.2294,43.7079 L20.2294,43.7079 C19.6784,43.7079 19.2294,43.2599 19.2294,42.7079 C19.2294,42.1559 19.6784,41.7079 20.2294,41.7079 L96.2294,41.7079 Z"/>
        <polygon fill="#72767D" points="53.229 59.208 63.229 59.208 63.229 53.208 53.229 53.208"/>
        <polygon fill="#72767D" points="53.229 72.208 63.229 72.208 63.229 66.208 53.229 66.208"/>
        <polygon fill="#4F545C" points="36.229 59.208 46.229 59.208 46.229 53.208 36.229 53.208"/>
        <polygon fill="#4F545C" points="53.229 94.208 63.229 94.208 63.229 84.208 53.229 84.208"/>
        <polygon fill="#4F545C" points="70.229 72.208 80.229 72.208 80.229 66.208 70.229 66.208"/>
        <polygon fill="#36393F" points="70.229 59.208 80.229 59.208 80.229 53.208 70.229 53.208"/>
        <polygon fill="#72767D" points="70.229 94.208 80.229 94.208 80.229 84.208 70.229 84.208"/>
        <polygon fill="#72767D" points="36.229 94.208 46.229 94.208 46.229 84.208 36.229 84.208"/>
        <polygon fill="#36393F" points="36.229 72.208 46.229 72.208 46.229 66.208 36.229 66.208"/>
        <path fill="#36393F" d="M179.3554,23.7079 C179.3554,22.0539 178.0094,20.7079 176.3554,20.7079 L172.5554,20.7079 C173.1894,21.5459 173.5804,22.5779 173.5804,23.7079 L173.5804,68.7079 C173.5804,70.3499 172.7744,71.7959 171.5494,72.7079 L172.5804,72.7079 L172.5804,71.7079 L176.3554,71.7079 C178.0094,71.7079 179.3554,70.3619 179.3554,68.7079 L179.3554,23.7079 Z"/>
        <polygon fill="#72767D" points="39.729 121.539 42.729 121.539 42.729 115.539 39.729 115.539"/>
        <polygon fill="#72767D" points="22.729 125.66 25.729 125.66 25.729 119.66 22.729 119.66"/>
        <polygon fill="#72767D" points="55.729 117.418 58.729 117.418 58.729 111.418 55.729 111.418"/>
        <polygon fill="#72767D" points="73.729 113.296 76.729 113.296 76.729 107.296 73.729 107.296"/>
        <path fill="#4F545C" d="M112.2294,71.7079 L117.0044,71.7079 L168.5804,71.7079 C170.2344,71.7079 171.5804,70.3619 171.5804,68.7079 L171.5804,23.7079 C171.5804,22.0539 170.2344,20.7079 168.5804,20.7079 L120.0044,20.7079 L112.2294,20.7079 C110.5754,20.7079 109.2294,22.0539 109.2294,23.7079 L109.2294,68.7079 C109.2294,70.3619 110.5754,71.7079 112.2294,71.7079"/>
        <path fill="#36393F" d="M119.7294 60.2079C118.3514 60.2079 117.2294 61.3289 117.2294 62.7079 117.2294 64.0869 118.3514 65.2079 119.7294 65.2079 121.1074 65.2079 122.2294 64.0869 122.2294 62.7079 122.2294 61.3289 121.1074 60.2079 119.7294 60.2079M161.0805 60.2079C159.7025 60.2079 158.5805 61.3289 158.5805 62.7079 158.5805 64.0869 159.7025 65.2079 161.0805 65.2079 162.4585 65.2079 163.5805 64.0869 163.5805 62.7079 163.5805 61.3289 162.4585 60.2079 161.0805 60.2079M132.0629 60.2079C130.6849 60.2079 129.5629 61.3289 129.5629 62.7079 129.5629 64.0869 130.6849 65.2079 132.0629 65.2079 133.4409 65.2079 134.5629 64.0869 134.5629 62.7079 134.5629 61.3289 133.4409 60.2079 132.0629 60.2079M144.3964 60.2079C143.0184 60.2079 141.8964 61.3289 141.8964 62.7079 141.8964 64.0869 143.0184 65.2079 144.3964 65.2079 145.7744 65.2079 146.8964 64.0869 146.8964 62.7079 146.8964 61.3289 145.7744 60.2079 144.3964 60.2079"/>
        <polygon fill="#72767D" points="117.229 52.708 163.58 52.708 163.58 28.708 117.229 28.708"/>
        <polygon fill="#72767D" points="90.729 117.219 93.729 117.219 93.729 111.219 90.729 111.219"/>
        <path fill="#36393F" d="M133.2255,91.493 C133.2255,95.435 131.2295,98.919 128.1965,100.991 L128.7315,100.991 C133.9685,100.991 138.2295,96.73 138.2295,91.493 C138.2295,86.257 133.9685,81.996 128.7315,81.996 L128.1975,81.996 C131.2295,84.068 133.2255,87.551 133.2255,91.493"/>
        <path fill="#4F545C" d="M119.3065,90.493 C119.8585,90.493 120.3065,90.94 120.3065,91.493 C120.3065,92.046 119.8585,92.493 119.3065,92.493 L112.2835,92.493 C112.7845,97.262 116.8275,100.991 121.7275,100.991 C126.9645,100.991 131.2255,96.73 131.2255,91.493 C131.2255,86.257 126.9645,81.996 121.7275,81.996 C116.8275,81.996 112.7845,85.725 112.2835,90.493 L119.3065,90.493 Z"/>
        <path fill="#36393F" d="M172.7504,91.493 C172.7504,86.257 168.4894,81.996 163.2524,81.996 L162.7174,81.996 C163.3024,82.394 163.8604,82.846 164.3784,83.363 C166.5504,85.535 167.7464,88.422 167.7464,91.494 C167.7464,94.565 166.5504,97.452 164.3784,99.624 C163.8604,100.142 163.3024,100.593 162.7174,100.991 L163.2524,100.991 C168.4894,100.991 172.7504,96.73 172.7504,91.493"/>
        <path fill="#4F545C" d="M149.5321,98.2098 C152.9961,101.6728 158.4921,101.8968 162.2201,98.8788 L157.2531,93.9118 C156.8631,93.5218 156.8631,92.8888 157.2531,92.4978 C157.6441,92.1068 158.2771,92.1068 158.6671,92.4978 L163.6331,97.4648 C165.0011,95.7788 165.7461,93.6948 165.7461,91.4938 C165.7461,88.9558 164.7581,86.5708 162.9641,84.7768 C161.1131,82.9258 158.6801,81.9998 156.2481,81.9998 C153.8161,81.9998 151.3841,82.9258 149.5321,84.7768 C145.8291,88.4808 145.8291,94.5068 149.5321,98.2098"/>
        <path fill="#36393F" d="M131.8012,114.951 C133.2812,117.642 133.6262,120.749 132.7692,123.698 C132.0162,126.294 130.4132,128.492 128.2062,129.991 L128.7322,129.991 C133.9682,129.991 138.2292,125.73 138.2292,120.493 C138.2292,115.257 133.9682,110.996 128.7322,110.996 L128.2022,110.996 C129.6792,112.001 130.9152,113.34 131.8012,114.951"/>
        <path fill="#4F545C" d="M120.4823,121.1776 C120.7493,121.6616 120.5723,122.2706 120.0883,122.5356 L113.9353,125.9216 C115.1723,127.7046 116.9673,129.0016 119.0803,129.6156 C121.5173,130.3236 124.0823,130.0376 126.3053,128.8156 C128.5283,127.5926 130.1423,125.5766 130.8493,123.1406 C131.5563,120.7036 131.2723,118.1386 130.0493,115.9156 C128.8263,113.6926 126.8113,112.0786 124.3753,111.3716 C123.5203,111.1236 122.6493,111.0026 121.7833,110.9956 L121.7273,110.9956 C121.7203,110.9956 121.7133,110.9916 121.7063,110.9916 C120.1293,110.9926 118.5693,111.3906 117.1493,112.1716 C114.9263,113.3946 113.3133,115.4096 112.6063,117.8466 C111.9923,119.9586 112.1283,122.1696 112.9713,124.1696 L119.1243,120.7836 C119.6083,120.5186 120.2163,120.6946 120.4823,121.1776"/>
        <path fill="#36393F" d="M172.7504,120.493 C172.7504,115.257 168.4894,110.996 163.2524,110.996 L162.6944,110.996 C164.9714,112.539 166.7134,114.886 167.4174,117.763 C168.5874,122.547 166.5554,127.367 162.7064,129.991 L163.2524,129.991 C168.4894,129.991 172.7504,125.73 172.7504,120.493"/>
        <path fill="#4F545C" d="M158.5048,129.7196 C163.5918,128.4756 166.7188,123.3236 165.4748,118.2376 C164.4188,113.9206 160.5488,111.0166 156.2938,110.9956 L156.2488,110.9956 C156.2458,110.9956 156.2438,110.9946 156.2408,110.9946 C155.8228,110.9946 155.4008,111.0306 154.9778,111.0886 L156.6448,117.9046 C156.7758,118.4406 156.4468,118.9816 155.9108,119.1136 C155.8308,119.1326 155.7508,119.1416 155.6718,119.1416 C155.2228,119.1416 154.8138,118.8356 154.7018,118.3786 L153.0338,111.5566 C148.5208,113.1776 145.8588,117.9906 147.0228,122.7496 C147.6248,125.2136 149.1508,127.2956 151.3198,128.6136 C153.4898,129.9286 156.0408,130.3226 158.5048,129.7196"/>
        <path fill="#202225" d="M156.0605 36.6629L142.9255 36.6629C142.0855 36.6629 141.4055 35.9829 141.4055 35.1429L141.4055 33.8069C141.4055 33.2539 140.9575 32.8069 140.4055 32.8069 139.8525 32.8069 139.4055 33.2539 139.4055 33.8069L139.4055 35.1429C139.4055 35.9829 138.7245 36.6629 137.8855 36.6629L124.7495 36.6629C123.9105 36.6629 123.2295 37.3439 123.2295 38.1829L123.2295 46.5519C123.2295 47.1039 123.6775 47.5519 124.2295 47.5519 124.7815 47.5519 125.2295 47.1039 125.2295 46.5519L125.2295 45.2279C125.2295 44.3889 125.9105 43.7079 126.7495 43.7079L132.0425 43.7079C132.8825 43.7079 133.5625 44.3889 133.5625 45.2279L133.5625 46.5519C133.5625 47.1039 134.0105 47.5519 134.5625 47.5519 135.1155 47.5519 135.5625 47.1039 135.5625 46.5519L135.5625 43.2279C135.5625 42.3889 134.8825 41.7079 134.0425 41.7079L126.7495 41.7079C125.9105 41.7079 125.2295 41.0279 125.2295 40.1879L125.2295 40.1829C125.2295 39.3439 125.9105 38.6629 126.7495 38.6629L146.3765 38.6629C147.2155 38.6629 147.8965 39.3439 147.8965 40.1829L147.8965 46.5519C147.8965 47.1039 148.3445 47.5519 148.8965 47.5519 149.4485 47.5519 149.8965 47.1039 149.8965 46.5519L149.8965 40.1829C149.8965 39.3439 150.5775 38.6629 151.4165 38.6629L154.0605 38.6629C154.8995 38.6629 155.5805 39.3439 155.5805 40.1829L155.5805 46.5519C155.5805 47.1039 156.0285 47.5519 156.5805 47.5519 157.1325 47.5519 157.5805 47.1039 157.5805 46.5519L157.5805 38.1829C157.5805 37.3439 156.8995 36.6629 156.0605 36.6629M43.2294 59.2079L39.2294 59.2079C37.5724 59.2079 36.2294 57.8649 36.2294 56.2079 36.2294 54.5509 37.5724 53.2079 39.2294 53.2079L43.2294 53.2079C44.8864 53.2079 46.2294 54.5509 46.2294 56.2079 46.2294 57.8649 44.8864 59.2079 43.2294 59.2079M45.2294 51.2079L37.2294 51.2079C35.5724 51.2079 34.2294 52.5509 34.2294 54.2079L34.2294 58.2079C34.2294 59.8649 35.5724 61.2079 37.2294 61.2079L45.2294 61.2079C46.8864 61.2079 48.2294 59.8649 48.2294 58.2079L48.2294 54.2079C48.2294 52.5509 46.8864 51.2079 45.2294 51.2079M39.2294 66.2079L43.2294 66.2079C44.8864 66.2079 46.2294 67.5509 46.2294 69.2079 46.2294 70.8649 44.8864 72.2079 43.2294 72.2079L39.2294 72.2079C37.5724 72.2079 36.2294 70.8649 36.2294 69.2079 36.2294 67.5509 37.5724 66.2079 39.2294 66.2079L39.2294 66.2079zM34.2294 71.2079C34.2294 72.8649 35.5724 74.2079 37.2294 74.2079L45.2294 74.2079C46.8864 74.2079 48.2294 72.8649 48.2294 71.2079L48.2294 67.2079C48.2294 65.5509 46.8864 64.2079 45.2294 64.2079L37.2294 64.2079C35.5724 64.2079 34.2294 65.5509 34.2294 67.2079L34.2294 71.2079zM37.2294 84.2079L45.2294 84.2079C45.7814 84.2079 46.2294 84.6559 46.2294 85.2079L46.2294 93.2079C46.2294 93.7599 45.7814 94.2079 45.2294 94.2079L37.2294 94.2079C36.6774 94.2079 36.2294 93.7599 36.2294 93.2079L36.2294 85.2079C36.2294 84.6559 36.6774 84.2079 37.2294 84.2079L37.2294 84.2079zM47.2294 96.2079C47.7814 96.2079 48.2294 95.7599 48.2294 95.2079L48.2294 83.2079C48.2294 82.6559 47.7814 82.2079 47.2294 82.2079L35.2294 82.2079C34.6774 82.2079 34.2294 82.6559 34.2294 83.2079L34.2294 95.2079C34.2294 95.7599 34.6774 96.2079 35.2294 96.2079L47.2294 96.2079zM41.2294 121.5389L41.2294 121.5389C40.4014 121.5389 39.7294 120.8669 39.7294 120.0389L39.7294 117.0389C39.7294 116.2109 40.4014 115.5389 41.2294 115.5389 42.0584 115.5389 42.7294 116.2109 42.7294 117.0389L42.7294 120.0389C42.7294 120.8669 42.0584 121.5389 41.2294 121.5389M43.7294 113.5389L43.7294 113.5389C42.9014 113.5389 42.2294 112.8679 42.2294 112.0389L42.2294 101.2079C42.2294 100.6549 41.7814 100.2079 41.2294 100.2079 40.6774 100.2079 40.2294 100.6549 40.2294 101.2079L40.2294 112.0389C40.2294 112.8679 39.5584 113.5389 38.7294 113.5389 38.1774 113.5389 37.7294 113.9869 37.7294 114.5389L37.7294 122.5389C37.7294 123.0919 38.1774 123.5389 38.7294 123.5389 39.5584 123.5389 40.2294 124.2109 40.2294 125.0389L40.2294 131.2079C40.2294 131.7609 40.6774 132.2079 41.2294 132.2079 41.7814 132.2079 42.2294 131.7609 42.2294 131.2079L42.2294 125.0389C42.2294 124.2109 42.9014 123.5389 43.7294 123.5389 44.2814 123.5389 44.7294 123.0919 44.7294 122.5389L44.7294 114.5389C44.7294 113.9869 44.2814 113.5389 43.7294 113.5389M26.2294 59.2079L22.2294 59.2079C20.5724 59.2079 19.2294 57.8649 19.2294 56.2079 19.2294 54.5509 20.5724 53.2079 22.2294 53.2079L26.2294 53.2079C27.8864 53.2079 29.2294 54.5509 29.2294 56.2079 29.2294 57.8649 27.8864 59.2079 26.2294 59.2079M28.2294 51.2079L20.2294 51.2079C18.5724 51.2079 17.2294 52.5509 17.2294 54.2079L17.2294 58.2079C17.2294 59.8649 18.5724 61.2079 20.2294 61.2079L28.2294 61.2079C29.8864 61.2079 31.2294 59.8649 31.2294 58.2079L31.2294 54.2079C31.2294 52.5509 29.8864 51.2079 28.2294 51.2079M26.2294 72.2079L22.2294 72.2079C20.5724 72.2079 19.2294 70.8649 19.2294 69.2079 19.2294 67.5509 20.5724 66.2079 22.2294 66.2079L26.2294 66.2079C27.8864 66.2079 29.2294 67.5509 29.2294 69.2079 29.2294 70.8649 27.8864 72.2079 26.2294 72.2079M28.2294 64.2079L20.2294 64.2079C18.5724 64.2079 17.2294 65.5509 17.2294 67.2079L17.2294 71.2079C17.2294 72.8649 18.5724 74.2079 20.2294 74.2079L28.2294 74.2079C29.8864 74.2079 31.2294 72.8649 31.2294 71.2079L31.2294 67.2079C31.2294 65.5509 29.8864 64.2079 28.2294 64.2079M28.2294 94.2079L20.2294 94.2079C19.6774 94.2079 19.2294 93.7599 19.2294 93.2079L19.2294 85.2079C19.2294 84.6559 19.6774 84.2079 20.2294 84.2079L28.2294 84.2079C28.7814 84.2079 29.2294 84.6559 29.2294 85.2079L29.2294 93.2079C29.2294 93.7599 28.7814 94.2079 28.2294 94.2079M30.2294 82.2079L18.2294 82.2079C17.6774 82.2079 17.2294 82.6559 17.2294 83.2079L17.2294 95.2079C17.2294 95.7599 17.6774 96.2079 18.2294 96.2079L30.2294 96.2079C30.7814 96.2079 31.2294 95.7599 31.2294 95.2079L31.2294 83.2079C31.2294 82.6559 30.7814 82.2079 30.2294 82.2079M24.2294 125.66L24.2294 125.66C23.4014 125.66 22.7294 124.988 22.7294 124.16L22.7294 121.16C22.7294 120.332 23.4014 119.66 24.2294 119.66 25.0584 119.66 25.7294 120.332 25.7294 121.16L25.7294 124.16C25.7294 124.988 25.0584 125.66 24.2294 125.66M26.7294 117.66L26.7294 117.66C25.9014 117.66 25.2294 116.988 25.2294 116.16L25.2294 101.208C25.2294 100.655 24.7814 100.208 24.2294 100.208 23.6774 100.208 23.2294 100.655 23.2294 101.208L23.2294 116.16C23.2294 116.988 22.5584 117.66 21.7294 117.66 21.1774 117.66 20.7294 118.108 20.7294 118.66L20.7294 126.66C20.7294 127.213 21.1774 127.66 21.7294 127.66 22.5584 127.66 23.2294 128.332 23.2294 129.16L23.2294 131.208C23.2294 131.761 23.6774 132.208 24.2294 132.208 24.7814 132.208 25.2294 131.761 25.2294 131.208L25.2294 129.16C25.2294 128.332 25.9014 127.66 26.7294 127.66 27.2814 127.66 27.7294 127.213 27.7294 126.66L27.7294 118.66C27.7294 118.108 27.2814 117.66 26.7294 117.66M60.2294 59.2079L56.2294 59.2079C54.5724 59.2079 53.2294 57.8649 53.2294 56.2079 53.2294 54.5509 54.5724 53.2079 56.2294 53.2079L60.2294 53.2079C61.8864 53.2079 63.2294 54.5509 63.2294 56.2079 63.2294 57.8649 61.8864 59.2079 60.2294 59.2079M62.2294 51.2079L54.2294 51.2079C52.5724 51.2079 51.2294 52.5509 51.2294 54.2079L51.2294 58.2079C51.2294 59.8649 52.5724 61.2079 54.2294 61.2079L62.2294 61.2079C63.8864 61.2079 65.2294 59.8649 65.2294 58.2079L65.2294 54.2079C65.2294 52.5509 63.8864 51.2079 62.2294 51.2079M96.2294 43.7079L20.2294 43.7079C19.6784 43.7079 19.2294 43.2599 19.2294 42.7079 19.2294 42.1559 19.6784 41.7079 20.2294 41.7079L96.2294 41.7079C96.7804 41.7079 97.2294 42.1559 97.2294 42.7079 97.2294 43.2599 96.7804 43.7079 96.2294 43.7079M96.2294 39.7079L20.2294 39.7079C18.5754 39.7079 17.2294 41.0539 17.2294 42.7079 17.2294 44.3619 18.5754 45.7079 20.2294 45.7079L96.2294 45.7079C97.8834 45.7079 99.2294 44.3619 99.2294 42.7079 99.2294 41.0539 97.8834 39.7079 96.2294 39.7079M60.2294 72.2079L56.2294 72.2079C54.5724 72.2079 53.2294 70.8649 53.2294 69.2079 53.2294 67.5509 54.5724 66.2079 56.2294 66.2079L60.2294 66.2079C61.8864 66.2079 63.2294 67.5509 63.2294 69.2079 63.2294 70.8649 61.8864 72.2079 60.2294 72.2079M62.2294 64.2079L54.2294 64.2079C52.5724 64.2079 51.2294 65.5509 51.2294 67.2079L51.2294 71.2079C51.2294 72.8649 52.5724 74.2079 54.2294 74.2079L62.2294 74.2079C63.8864 74.2079 65.2294 72.8649 65.2294 71.2079L65.2294 67.2079C65.2294 65.5509 63.8864 64.2079 62.2294 64.2079M62.2294 94.2079L54.2294 94.2079C53.6774 94.2079 53.2294 93.7599 53.2294 93.2079L53.2294 85.2079C53.2294 84.6559 53.6774 84.2079 54.2294 84.2079L62.2294 84.2079C62.7814 84.2079 63.2294 84.6559 63.2294 85.2079L63.2294 93.2079C63.2294 93.7599 62.7814 94.2079 62.2294 94.2079M64.2294 82.2079L52.2294 82.2079C51.6774 82.2079 51.2294 82.6559 51.2294 83.2079L51.2294 95.2079C51.2294 95.7599 51.6774 96.2079 52.2294 96.2079L64.2294 96.2079C64.7814 96.2079 65.2294 95.7599 65.2294 95.2079L65.2294 83.2079C65.2294 82.6559 64.7814 82.2079 64.2294 82.2079M57.2294 117.4178L57.2294 117.4178C56.4014 117.4178 55.7294 116.7458 55.7294 115.9178L55.7294 112.9178C55.7294 112.0898 56.4014 111.4178 57.2294 111.4178 58.0584 111.4178 58.7294 112.0898 58.7294 112.9178L58.7294 115.9178C58.7294 116.7458 58.0584 117.4178 57.2294 117.4178M59.7294 109.4178L59.7294 109.4178C58.9014 109.4178 58.2294 108.7468 58.2294 107.9178L58.2294 101.2078C58.2294 100.6548 57.7814 100.2078 57.2294 100.2078 56.6774 100.2078 56.2294 100.6548 56.2294 101.2078L56.2294 107.9178C56.2294 108.7468 55.5584 109.4178 54.7294 109.4178 54.1774 109.4178 53.7294 109.8658 53.7294 110.4178L53.7294 118.4178C53.7294 118.9708 54.1774 119.4178 54.7294 119.4178 55.5584 119.4178 56.2294 120.0898 56.2294 120.9178L56.2294 131.2078C56.2294 131.7608 56.6774 132.2078 57.2294 132.2078 57.7814 132.2078 58.2294 131.7608 58.2294 131.2078L58.2294 120.9178C58.2294 120.0898 58.9014 119.4178 59.7294 119.4178 60.2814 119.4178 60.7294 118.9708 60.7294 118.4178L60.7294 110.4178C60.7294 109.8658 60.2814 109.4178 59.7294 109.4178M77.2294 59.2079L73.2294 59.2079C71.5724 59.2079 70.2294 57.8649 70.2294 56.2079 70.2294 54.5509 71.5724 53.2079 73.2294 53.2079L77.2294 53.2079C78.8864 53.2079 80.2294 54.5509 80.2294 56.2079 80.2294 57.8649 78.8864 59.2079 77.2294 59.2079M79.2294 51.2079L71.2294 51.2079C69.5724 51.2079 68.2294 52.5509 68.2294 54.2079L68.2294 58.2079C68.2294 59.8649 69.5724 61.2079 71.2294 61.2079L79.2294 61.2079C80.8864 61.2079 82.2294 59.8649 82.2294 58.2079L82.2294 54.2079C82.2294 52.5509 80.8864 51.2079 79.2294 51.2079M77.2294 72.2079L73.2294 72.2079C71.5724 72.2079 70.2294 70.8649 70.2294 69.2079 70.2294 67.5509 71.5724 66.2079 73.2294 66.2079L77.2294 66.2079C78.8864 66.2079 80.2294 67.5509 80.2294 69.2079 80.2294 70.8649 78.8864 72.2079 77.2294 72.2079M79.2294 64.2079L71.2294 64.2079C69.5724 64.2079 68.2294 65.5509 68.2294 67.2079L68.2294 71.2079C68.2294 72.8649 69.5724 74.2079 71.2294 74.2079L79.2294 74.2079C80.8864 74.2079 82.2294 72.8649 82.2294 71.2079L82.2294 67.2079C82.2294 65.5509 80.8864 64.2079 79.2294 64.2079M79.2294 94.2079L71.2294 94.2079C70.6774 94.2079 70.2294 93.7599 70.2294 93.2079L70.2294 85.2079C70.2294 84.6559 70.6774 84.2079 71.2294 84.2079L79.2294 84.2079C79.7814 84.2079 80.2294 84.6559 80.2294 85.2079L80.2294 93.2079C80.2294 93.7599 79.7814 94.2079 79.2294 94.2079M81.2294 82.2079L69.2294 82.2079C68.6774 82.2079 68.2294 82.6559 68.2294 83.2079L68.2294 95.2079C68.2294 95.7599 68.6774 96.2079 69.2294 96.2079L81.2294 96.2079C81.7814 96.2079 82.2294 95.7599 82.2294 95.2079L82.2294 83.2079C82.2294 82.6559 81.7814 82.2079 81.2294 82.2079M75.2294 113.2958L75.2294 113.2958C74.4014 113.2958 73.7294 112.6248 73.7294 111.7958L73.7294 108.7958C73.7294 107.9678 74.4014 107.2958 75.2294 107.2958 76.0584 107.2958 76.7294 107.9678 76.7294 108.7958L76.7294 111.7958C76.7294 112.6248 76.0584 113.2958 75.2294 113.2958M77.7294 105.2958L77.7294 105.2958C76.9014 105.2958 76.2294 104.6248 76.2294 103.7958L76.2294 101.2078C76.2294 100.6548 75.7814 100.2078 75.2294 100.2078 74.6774 100.2078 74.2294 100.6548 74.2294 101.2078L74.2294 103.7958C74.2294 104.6248 73.5584 105.2958 72.7294 105.2958 72.1774 105.2958 71.7294 105.7438 71.7294 106.2958L71.7294 114.2958C71.7294 114.8478 72.1774 115.2958 72.7294 115.2958 73.5584 115.2958 74.2294 115.9678 74.2294 116.7958L74.2294 131.2078C74.2294 131.7608 74.6774 132.2078 75.2294 132.2078 75.7814 132.2078 76.2294 131.7608 76.2294 131.2078L76.2294 116.7958C76.2294 115.9678 76.9014 115.2958 77.7294 115.2958 78.2814 115.2958 78.7294 114.8478 78.7294 114.2958L78.7294 106.2958C78.7294 105.7438 78.2814 105.2958 77.7294 105.2958M94.2294 59.2079L90.2294 59.2079C88.5724 59.2079 87.2294 57.8649 87.2294 56.2079 87.2294 54.5509 88.5724 53.2079 90.2294 53.2079L94.2294 53.2079C95.8864 53.2079 97.2294 54.5509 97.2294 56.2079 97.2294 57.8649 95.8864 59.2079 94.2294 59.2079M96.2294 51.2079L88.2294 51.2079C86.5724 51.2079 85.2294 52.5509 85.2294 54.2079L85.2294 58.2079C85.2294 59.8649 86.5724 61.2079 88.2294 61.2079L96.2294 61.2079C97.8864 61.2079 99.2294 59.8649 99.2294 58.2079L99.2294 54.2079C99.2294 52.5509 97.8864 51.2079 96.2294 51.2079"/>
        <path fill="#202225" d="M163.5805 33.2674L163.5805 48.1484C163.5805 50.6664 161.5395 52.7074 159.0215 52.7074L121.7885 52.7074C119.2705 52.7074 117.2295 50.6664 117.2295 48.1484L117.2295 33.2674C117.2295 30.7494 119.2705 28.7074 121.7885 28.7074L159.0215 28.7074C161.5395 28.7074 163.5805 30.7494 163.5805 33.2674L163.5805 33.2674zM116.2295 26.7074C115.6775 26.7074 115.2295 27.1554 115.2295 27.7074L115.2295 53.7074C115.2295 54.2604 115.6775 54.7074 116.2295 54.7074L164.5805 54.7074C165.1325 54.7074 165.5805 54.2604 165.5805 53.7074L165.5805 27.7074C165.5805 27.1554 165.1325 26.7074 164.5805 26.7074L116.2295 26.7074zM94.2294 72.2079L90.2294 72.2079C88.5724 72.2079 87.2294 70.8649 87.2294 69.2079 87.2294 67.5509 88.5724 66.2079 90.2294 66.2079L94.2294 66.2079C95.8864 66.2079 97.2294 67.5509 97.2294 69.2079 97.2294 70.8649 95.8864 72.2079 94.2294 72.2079M96.2294 64.2079L88.2294 64.2079C86.5724 64.2079 85.2294 65.5509 85.2294 67.2079L85.2294 71.2079C85.2294 72.8649 86.5724 74.2079 88.2294 74.2079L96.2294 74.2079C97.8864 74.2079 99.2294 72.8649 99.2294 71.2079L99.2294 67.2079C99.2294 65.5509 97.8864 64.2079 96.2294 64.2079M96.2294 94.2079L88.2294 94.2079C87.6774 94.2079 87.2294 93.7599 87.2294 93.2079L87.2294 85.2079C87.2294 84.6559 87.6774 84.2079 88.2294 84.2079L96.2294 84.2079C96.7814 84.2079 97.2294 84.6559 97.2294 85.2079L97.2294 93.2079C97.2294 93.7599 96.7814 94.2079 96.2294 94.2079M98.2294 82.2079L86.2294 82.2079C85.6774 82.2079 85.2294 82.6559 85.2294 83.2079L85.2294 95.2079C85.2294 95.7599 85.6774 96.2079 86.2294 96.2079L98.2294 96.2079C98.7814 96.2079 99.2294 95.7599 99.2294 95.2079L99.2294 83.2079C99.2294 82.6559 98.7814 82.2079 98.2294 82.2079M92.2294 117.2186L92.2294 117.2186C91.4014 117.2186 90.7294 116.5466 90.7294 115.7186L90.7294 112.7186C90.7294 111.8906 91.4014 111.2186 92.2294 111.2186 93.0584 111.2186 93.7294 111.8906 93.7294 112.7186L93.7294 115.7186C93.7294 116.5466 93.0584 117.2186 92.2294 117.2186M94.7294 109.2186L94.7294 109.2186C93.9014 109.2186 93.2294 108.5476 93.2294 107.7186L93.2294 101.2076C93.2294 100.6556 92.7814 100.2076 92.2294 100.2076 91.6774 100.2076 91.2294 100.6556 91.2294 101.2076L91.2294 107.7186C91.2294 108.5476 90.5584 109.2186 89.7294 109.2186 89.1774 109.2186 88.7294 109.6666 88.7294 110.2186L88.7294 118.2186C88.7294 118.7716 89.1774 119.2186 89.7294 119.2186 90.5584 119.2186 91.2294 119.8906 91.2294 120.7186L91.2294 131.2076C91.2294 131.7606 91.6774 132.2076 92.2294 132.2076 92.7814 132.2076 93.2294 131.7606 93.2294 131.2076L93.2294 120.7186C93.2294 119.8906 93.9014 119.2186 94.7294 119.2186 95.2814 119.2186 95.7294 118.7716 95.7294 118.2186L95.7294 110.2186C95.7294 109.6666 95.2814 109.2186 94.7294 109.2186M161.0805 65.2079C159.7025 65.2079 158.5805 64.0869 158.5805 62.7079 158.5805 61.3289 159.7025 60.2079 161.0805 60.2079 162.4585 60.2079 163.5805 61.3289 163.5805 62.7079 163.5805 64.0869 162.4585 65.2079 161.0805 65.2079M161.0805 58.2079C158.5995 58.2079 156.5805 60.2269 156.5805 62.7079 156.5805 65.1889 158.5995 67.2079 161.0805 67.2079 163.5615 67.2079 165.5805 65.1889 165.5805 62.7079 165.5805 60.2269 163.5615 58.2079 161.0805 58.2079M119.7294 65.2079C118.3514 65.2079 117.2294 64.0869 117.2294 62.7079 117.2294 61.3289 118.3514 60.2079 119.7294 60.2079 121.1074 60.2079 122.2294 61.3289 122.2294 62.7079 122.2294 64.0869 121.1074 65.2079 119.7294 65.2079M119.7294 58.2079C117.2484 58.2079 115.2294 60.2269 115.2294 62.7079 115.2294 65.1889 117.2484 67.2079 119.7294 67.2079 122.2104 67.2079 124.2294 65.1889 124.2294 62.7079 124.2294 60.2269 122.2104 58.2079 119.7294 58.2079M132.0629 65.2079C130.6849 65.2079 129.5629 64.0869 129.5629 62.7079 129.5629 61.3289 130.6849 60.2079 132.0629 60.2079 133.4409 60.2079 134.5629 61.3289 134.5629 62.7079 134.5629 64.0869 133.4409 65.2079 132.0629 65.2079M132.0629 58.2079C129.5819 58.2079 127.5629 60.2269 127.5629 62.7079 127.5629 65.1889 129.5819 67.2079 132.0629 67.2079 134.5439 67.2079 136.5629 65.1889 136.5629 62.7079 136.5629 60.2269 134.5439 58.2079 132.0629 58.2079M144.3964 65.2079C143.0184 65.2079 141.8964 64.0869 141.8964 62.7079 141.8964 61.3289 143.0184 60.2079 144.3964 60.2079 145.7744 60.2079 146.8964 61.3289 146.8964 62.7079 146.8964 64.0869 145.7744 65.2079 144.3964 65.2079M144.3964 58.2079C141.9154 58.2079 139.8964 60.2269 139.8964 62.7079 139.8964 65.1889 141.9154 67.2079 144.3964 67.2079 146.8774 67.2079 148.8964 65.1889 148.8964 62.7079 148.8964 60.2269 146.8774 58.2079 144.3964 58.2079M121.7274 81.996C127.0664 81.996 131.3904 86.424 131.2204 91.799 131.0674 96.636 127.1214 100.695 122.2904 100.975 118.1334 101.216 114.5054 98.766 112.9874 95.208 112.4384 93.92 113.4364 92.493 114.8364 92.493L119.3064 92.493C119.8584 92.493 120.3064 92.046 120.3064 91.493 120.3064 90.94 119.8584 90.493 119.3064 90.493L114.8414 90.493C113.4254 90.493 112.4424 89.042 113.0034 87.742 114.4604 84.366 117.8224 81.996 121.7274 81.996M138.2294 91.493C138.2294 96.73 133.9684 100.991 128.7314 100.991L128.1964 100.991C131.2294 98.919 133.2254 95.435 133.2254 91.493 133.2254 87.551 131.2294 84.068 128.1974 81.996L128.7314 81.996C133.9684 81.996 138.2294 86.257 138.2294 91.493M121.7274 102.991L128.7314 102.991C135.0714 102.991 140.2294 97.833 140.2294 91.493 140.2294 85.153 135.0714 79.996 128.7314 79.996L121.7274 79.996C115.3874 79.996 110.2294 85.153 110.2294 91.493 110.2294 97.833 115.3874 102.991 121.7274 102.991M156.248 81.9999C158.681 81.9999 161.113 82.9259 162.964 84.7769 164.758 86.5709 165.747 88.9559 165.747 91.4939 165.747 92.1589 165.679 92.8129 165.546 93.4499 165.106 95.5549 162.483 96.3139 160.963 94.7939L158.667 92.4979C158.277 92.1069 157.644 92.1069 157.253 92.4979 156.863 92.8889 156.863 93.5209 157.253 93.9119L159.546 96.2059C161.092 97.7519 160.265 100.3739 158.121 100.8019 154.935 101.4369 151.485 100.4339 149.137 97.7909 145.883 94.1269 146.022 88.3839 149.439 84.8719 151.302 82.9569 153.775 81.9999 156.248 81.9999M164.378 99.6239C166.55 97.4519 167.747 94.5649 167.747 91.4939 167.747 88.4219 166.55 85.5349 164.378 83.3629 163.861 82.8459 163.302 82.3949 162.718 81.9959L163.252 81.9959C168.49 81.9959 172.75 86.2569 172.75 91.4929 172.75 96.7299 168.49 100.9909 163.252 100.9909L162.718 100.9909C163.302 100.5929 163.861 100.1419 164.378 99.6239M156.248 102.9859C156.724 102.9859 163.252 102.9909 163.252 102.9909 169.592 102.9909 174.75 97.8329 174.75 91.4929 174.75 85.1529 169.592 79.9959 163.252 79.9959L156.248 79.9959C156.236 79.9959 156.226 80.0029 156.214 80.0029 153.281 80.0119 150.351 81.1309 148.118 83.3629 143.635 87.8469 143.635 95.1409 148.118 99.6239 150.36 101.8659 153.304 102.9859 156.248 102.9859M138.2294 120.493C138.2294 125.73 133.9684 129.991 128.7314 129.991L128.2064 129.991C130.4134 128.492 132.0164 126.294 132.7694 123.698 133.6254 120.749 133.2814 117.642 131.8014 114.951 130.9154 113.34 129.6794 112.001 128.2024 110.996L128.7314 110.996C133.9684 110.996 138.2294 115.257 138.2294 120.493M112.6054 117.847C113.3124 115.41 114.9264 113.394 117.1494 112.172 118.5694 111.391 120.1294 110.993 121.7064 110.992 121.7134 110.992 121.7204 110.996 121.7274 110.996L121.7834 110.996C122.6494 111.002 123.5204 111.124 124.3754 111.372 126.8114 112.079 128.8264 113.692 130.0494 115.916 131.2714 118.139 131.5564 120.704 130.8494 123.14 130.1424 125.577 128.5284 127.593 126.3054 128.815 124.0824 130.038 121.5174 130.323 119.0804 129.615 117.5704 129.178 116.2244 128.39 115.1264 127.326 114.4534 126.674 114.6144 125.548 115.4364 125.096L120.0884 122.536C120.5724 122.27 120.7494 121.662 120.4824 121.178 120.2164 120.694 119.6084 120.518 119.1244 120.784L114.4734 123.344C113.6394 123.803 112.6064 123.311 112.4164 122.378 112.1124 120.891 112.1714 119.345 112.6054 117.847M118.5224 131.536C119.5844 131.845 120.6674 131.997 121.7434 131.997 122.2234 131.997 128.7314 131.991 128.7314 131.991 135.0714 131.991 140.2294 126.833 140.2294 120.493 140.2294 114.153 135.0714 108.996 128.7314 108.996L121.7274 108.996C121.7264 108.996 121.7244 108.997 121.7234 108.997 119.8074 108.995 117.9114 109.472 116.1854 110.42 113.4944 111.899 111.5414 114.339 110.6854 117.289 109.8294 120.238 110.1734 123.345 111.6534 126.036 113.1334 128.726 115.5734 130.68 118.5224 131.536M162.7065 129.9911C166.5555 127.3671 168.5875 122.5471 167.4165 117.7621 166.7135 114.8861 164.9715 112.5391 162.6945 110.9961L163.2525 110.9961C168.4895 110.9961 172.7505 115.2571 172.7505 120.4931 172.7505 125.7301 168.4895 129.9911 163.2525 129.9911L162.7065 129.9911zM147.0225 122.7501C146.0055 118.5931 147.9085 114.3931 151.4145 112.3181 152.1965 111.8551 153.2065 112.2621 153.4215 113.1451L154.7025 118.3791C154.8135 118.8361 155.2225 119.1411 155.6725 119.1411 155.7505 119.1411 155.8315 119.1331 155.9115 119.1131 156.4475 118.9811 156.7755 118.4401 156.6445 117.9041 156.6445 117.9041 155.5165 113.1581 155.2275 112.1091 154.9375 111.0591 156.2935 110.9961 156.2935 110.9961 161.0745 111.0191 165.3675 114.6811 165.7325 119.8961 166.0165 123.9531 163.5605 127.8311 159.7755 129.3161 156.9355 130.4301 153.8655 130.1561 151.3195 128.6131 149.1515 127.2961 147.6245 125.2141 147.0225 122.7501L147.0225 122.7501zM163.2525 108.9961L156.2485 108.9961C156.2275 108.9961 156.2095 109.0071 156.1875 109.0081 155.3055 109.0121 154.4115 109.1061 153.5165 109.3241 147.3585 110.8311 143.5735 117.0671 145.0805 123.2241 146.3625 128.4701 151.0745 131.9931 156.2485 131.9931 156.7245 131.9931 163.2525 131.9911 163.2525 131.9911 169.5925 131.9911 174.7505 126.8331 174.7505 120.4931 174.7505 114.1531 169.5925 108.9961 163.2525 108.9961L163.2525 108.9961zM205.1542 97.4066C205.1542 96.8546 204.7062 96.4066 204.1542 96.4066 203.6022 96.4066 203.1542 96.8546 203.1542 97.4066L203.1542 97.4066C203.1542 98.2406 202.4782 98.9166 201.6442 98.9166 201.0922 98.9166 200.6442 99.3646 200.6442 99.9166 200.6442 100.4696 201.0922 100.9166 201.6442 100.9166 202.4782 100.9166 203.1542 101.5936 203.1542 102.4266 203.1542 102.9786 203.6022 103.4266 204.1542 103.4266 204.7062 103.4266 205.1542 102.9786 205.1542 102.4266 205.1542 101.5936 205.8302 100.9166 206.6642 100.9166L206.6642 100.9166C207.2172 100.9166 207.6642 100.4696 207.6642 99.9166 207.6642 99.3646 207.2172 98.9166 206.6642 98.9166L206.6642 98.9166C205.8302 98.9166 205.1542 98.2406 205.1542 97.4066zM91.9809 14.183C92.2369 14.183 92.4929 14.085 92.6879 13.89L93.8709 12.707C94.2619 12.316 94.2619 11.683 93.8709 11.293 93.4809 10.902 92.8479 10.902 92.4569 11.293L91.2739 12.476C90.8829 12.867 90.8829 13.499 91.2739 13.89 91.4689 14.085 91.7249 14.183 91.9809 14.183M86.0644 20.0995C86.3204 20.0995 86.5764 20.0015 86.7714 19.8065L87.9554 18.6235C88.3454 18.2335 88.3454 17.5995 87.9554 17.2095 87.5644 16.8185 86.9314 16.8185 86.5414 17.2095L85.3574 18.3925C84.9664 18.7825 84.9664 19.4155 85.3574 19.8065 85.5524 20.0015 85.8084 20.0995 86.0644 20.0995M92.4569 19.8065C92.6519 20.0015 92.9079 20.0995 93.1639 20.0995 93.4199 20.0995 93.6759 20.0015 93.8709 19.8065 94.2619 19.4155 94.2619 18.7835 93.8709 18.3925L92.6879 17.2095C92.2969 16.8185 91.6649 16.8185 91.2739 17.2095 90.8829 17.5995 90.8829 18.2325 91.2739 18.6235L92.4569 19.8065zM86.5409 13.89C86.7359 14.085 86.9919 14.183 87.2479 14.183 87.5039 14.183 87.7599 14.085 87.9549 13.89 88.3459 13.499 88.3459 12.866 87.9549 12.476L86.7709 11.293C86.3809 10.902 85.7469 10.902 85.3569 11.293 84.9669 11.683 84.9669 12.317 85.3569 12.707L86.5409 13.89zM104.5658 2.9032C105.3988 2.9032 106.0758 3.5802 106.0758 4.4132 106.0758 5.2452 105.3988 5.9232 104.5658 5.9232 103.7328 5.9232 103.0558 5.2452 103.0558 4.4132 103.0558 3.5802 103.7328 2.9032 104.5658 2.9032M104.5658 7.9232C106.5008 7.9232 108.0758 6.3482 108.0758 4.4132 108.0758 2.4782 106.5008.9032 104.5658.9032 102.6298.9032 101.0558 2.4782 101.0558 4.4132 101.0558 6.3482 102.6298 7.9232 104.5658 7.9232"/>
        <path fill="#202225" d="M179.3554,60.7079 C179.3554,62.3649 178.0124,63.7079 176.3554,63.7079 C174.8154,63.7079 173.5704,62.4549 173.5794,60.9149 L173.5804,60.7079 L173.5804,23.7079 C173.5804,23.6879 173.5804,23.6689 173.5804,23.6489 C173.5614,22.0499 174.7554,20.7079 176.3554,20.7079 C178.0124,20.7079 179.3554,22.0509 179.3554,23.7079 L179.3554,60.7079 Z M117.0044,71.7079 L112.2294,71.7079 C110.5754,71.7079 109.2294,70.3619 109.2294,68.7079 L109.2294,23.7079 C109.2294,22.0539 110.5754,20.7079 112.2294,20.7079 L120.0044,20.7079 L168.5804,20.7079 C170.2344,20.7079 171.5804,22.0539 171.5804,23.7079 L171.5804,68.7079 C171.5804,70.3619 170.2344,71.7079 168.5804,71.7079 L117.0044,71.7079 Z M222.2504,140.9999 L210.0754,140.9999 C207.3574,140.9999 205.1434,138.7759 205.1544,136.0589 L205.1544,135.9999 L205.1544,112.9129 C205.1544,112.3599 204.7064,111.9129 204.1544,111.9129 C203.6024,111.9129 203.1544,112.3599 203.1544,112.9129 L203.1544,131.9999 C203.1544,134.7619 200.9164,136.9999 198.1544,136.9999 L193.5014,136.9999 C190.7834,136.9999 188.5694,134.7759 188.5804,132.0589 L188.5804,131.9999 L188.5804,37.9999 L188.5804,37.9409 C188.5694,35.2239 190.7834,32.9999 193.5014,32.9999 L198.1544,32.9999 C200.9164,32.9999 203.1544,35.2389 203.1544,37.9999 L203.1544,91.4929 C203.1544,92.0459 203.6024,92.4929 204.1544,92.4929 C204.7064,92.4929 205.1544,92.0459 205.1544,91.4929 L205.1544,37.9999 C205.1544,34.1339 202.0204,30.9999 198.1544,30.9999 L183.2214,30.9999 C182.1904,30.9999 181.3554,30.1649 181.3554,29.1339 L181.3554,23.7079 C181.3554,20.9469 179.1174,18.7079 176.3554,18.7079 L168.5804,18.7079 L120.0044,18.7079 L112.2294,18.7079 C109.4684,18.7079 107.2294,20.9469 107.2294,23.7079 L107.2294,31.9999 L107.2294,68.7079 C107.2294,71.4699 109.4684,73.7079 112.2294,73.7079 L116.0044,73.7079 L168.5804,73.7079 L176.3554,73.7079 C179.1174,73.7079 181.3554,71.4699 181.3554,68.7079 L181.3554,37.9199 C181.3554,34.7089 186.1964,34.2979 186.5524,37.4889 C186.5704,37.6569 186.5804,37.8279 186.5804,37.9999 L186.5804,135.9999 C186.5804,138.7619 184.3424,140.9999 181.5804,140.9999 L51.8034,140.9999 L16.2294,140.9999 C13.4684,140.9999 11.2294,138.7619 11.2294,135.9999 L11.2294,37.9999 C11.2294,35.2389 13.4684,32.9999 16.2294,32.9999 L102.7504,32.9999 C103.3024,32.9999 103.7504,32.5529 103.7504,31.9999 C103.7494,31.4469 103.3024,30.9999 102.7504,30.9999 L16.2294,30.9999 C12.3634,30.9999 9.2294,34.1339 9.2294,37.9999 L9.2294,135.9999 L9.2304,136.0589 C9.2414,138.7759 7.0264,140.9999 4.3094,140.9999 L1.2504,140.9999 C0.6974,140.9999 0.2504,141.4469 0.2504,141.9999 C0.2504,142.5529 0.6974,142.9999 1.2504,142.9999 L16.2294,142.9999 L51.8034,142.9999 L181.5804,142.9999 L198.1544,142.9999 L222.2504,142.9999 C222.8024,142.9999 223.2504,142.5529 223.2504,141.9999 C223.2504,141.4469 222.8024,140.9999 222.2504,140.9999 L222.2504,140.9999 Z"/>
      </g>
    </g>
    <rect width="280" height="165"/>
  </g>
</svg>
