<svg viewBox="0 0 256 192" xmlns="http://www.w3.org/2000/svg" xmlns:xlink="http://www.w3.org/1999/xlink"><linearGradient id="a" gradientUnits="userSpaceOnUse" x1="191.3" x2="123.56" y1="134.21" y2="199.93"><stop offset="0" stop-color="#cd1580"/><stop offset=".33" stop-color="#e93986"/><stop offset=".56" stop-color="#fa4e89"/></linearGradient><clipPath id="b"><path d="m136.5 134.5h64a0 0 0 0 1 0 0v32a0 0 0 0 1 0 0h-64a16 16 0 0 1 -16-16 16 16 0 0 1 16-16z"/></clipPath><linearGradient id="c" gradientTransform="matrix(1 0 .65 1 -70.94 0)" gradientUnits="userSpaceOnUse" x1="79.46" x2="90.37" y1="89.6" y2="105.62"><stop offset="0" stop-color="#eb33ff"/><stop offset="1" stop-color="#ffd01a"/></linearGradient><linearGradient id="d" x1="108.18" x2="119.08" xlink:href="#c" y1="70.05" y2="86.08"/><linearGradient id="e" gradientUnits="userSpaceOnUse" x1="179.03" x2="227.99" y1="74.95" y2="133.78"><stop offset=".2" stop-color="#eb33ff"/><stop offset=".32" stop-color="#f15ec0"/><stop offset=".44" stop-color="#f68685"/><stop offset=".56" stop-color="#faa657"/><stop offset=".67" stop-color="#fdbd36"/><stop offset=".75" stop-color="#fecb21"/><stop offset=".81" stop-color="#ffd01a"/></linearGradient><path d="m0 0h256v192h-256z" fill="#776bff"/><path d="m94.5 21h-94.5v87.47l42.5 83.53h139z" fill="#ebf0f7"/><path d="m0 108.47v23.58l30.5 59.95h12z"/><path d="m256 171.63a2 2 0 0 0 -.68.27c-6.37 4-15.54 2-17.87-5.7-.08-.26-.14-.53-.2-.8a12.07 12.07 0 0 0 6.75-3.4c1.77-2 2.09-5 0-7a5.79 5.79 0 0 0 -6.82-.67 9.17 9.17 0 0 0 -4 6.43 9.05 9.05 0 0 0 -.12.91 11.78 11.78 0 0 1 -7.11-3.15c-.16-.15-.31-.31-.46-.47.58-.21 1.16-.43 1.71-.69 4.41-2 8.7-7.21 6.3-12.29s-9.43-5-12.79-1c-2.73 3.24-2.85 7.49-1.48 11.27-7.07.63-14.62-2.3-17.66-9a2 2 0 0 0 -2.73-.72 2.05 2.05 0 0 0 -.72 2.74c3.89 8.56 14.09 12.15 23.1 10.74.21.28.42.56.63.82a15.73 15.73 0 0 0 11.37 5.69 15.16 15.16 0 0 0 6.57 9.93 16.5 16.5 0 0 0 16.19.49zm-33-23.73a4.86 4.86 0 0 1 3.63-2.81 3.37 3.37 0 0 1 3.37 1.91c1.19 3.27-2.8 6.12-5.33 7.11-.48.19-1 .36-1.49.51a7.88 7.88 0 0 1 -.18-6.72zm16.92 9.62c.94-.1 1.9.51 1.33 1.46-.78 1.3-2.59 2-4.09 2.35.29-1.39 1.07-3.62 2.75-3.81z"/><circle cx="200.5" cy="150.5" fill="#fa4e89" r="6"/><circle cx="182.13" cy="66.06" fill="#ebf0f7" r="15.87"/><path d="m146 64.3h74.6a10.39 10.39 0 0 1 10.4 10.39v48.81a0 0 0 0 1 0 0h-95.37a0 0 0 0 1 0 0v-48.81a10.39 10.39 0 0 1 10.37-10.39z" fill="#ffa600"/><path d="m145.67 64.3h69.14a10.67 10.67 0 0 1 10.67 10.7v48.5a0 0 0 0 1 0 0h-90.48a0 0 0 0 1 0 0v-48.5a10.67 10.67 0 0 1 10.67-10.7z" fill="#ffd01a"/><path d="m142.92 71.57h74.65v46.22h-74.65z"/><path d="m105.5 123.5h125.5a0 0 0 0 1 0 0v1a10 10 0 0 1 -10 10h-105.5a10 10 0 0 1 -10-10v-1a0 0 0 0 1 0 0z" fill="#ffa600"/><path d="m136.5 134.5h58.5a0 0 0 0 1 0 0v32a0 0 0 0 1 0 0h-58.5a16 16 0 0 1 -16-16 16 16 0 0 1 16-16z" fill="#fa4e89"/><path d="m171.67 168.5h8v15h-8z" fill="#cd1580"/><circle cx="233" cy="21" fill="#ffd01a" r="15"/><path d="m92.43 156.56a13.1 13.1 0 1 0 -24.11-4.13 4.16 4.16 0 0 1 -2.5 4.65 4.4 4.4 0 0 0 -.72 8.2c18.44 10.94 27.33-8.72 27.33-8.72z" fill="#ffd01a"/><path d="m83.7 145.72a7.55 7.55 0 0 1 -2.47-10.5l76.66-120.74a4.24 4.24 0 0 1 5.76-1.36 4.23 4.23 0 0 1 1.49 5.73l-71 124.15a7.54 7.54 0 0 1 -10.44 2.72z" fill="#4e1ceb"/><circle cx="182.13" cy="46.65" fill="#ebf0f7" r="10.58"/><circle cx="178.13" cy="46.65" r="4.41"/><path d="m161.17 182h29a10 10 0 0 1 10 10 0 0 0 0 1 0 0h-49a0 0 0 0 1 0 0 10 10 0 0 1 10-10z" fill="#cd1580"/><path d="m151 134.5h45a5 5 0 0 1 5 5v22a5 5 0 0 1 -5 5h-45a0 0 0 0 1 0 0v-32a0 0 0 0 1 0 0z" fill="url(#a)"/><circle cx="175.67" cy="166.5" fill="#fa4e89" r="9"/><g clip-path="url(#b)" fill="#cd1580"><circle cx="128" cy="150.38" r="3"/><circle cx="128" cy="140" r="3"/><circle cx="128" cy="161.5" r="3"/><circle cx="136" cy="155.67" r="3"/><circle cx="136" cy="166" r="3"/><circle cx="136" cy="145.33" r="3"/><circle cx="136" cy="135" r="3"/><circle cx="144" cy="150.38" r="3"/><circle cx="144" cy="140" r="3"/><circle cx="144" cy="161.5" r="3"/></g><circle cx="175.67" cy="166.5" fill="#cd1580" r="3.5"/><rect fill="#cd1580" height="39" rx="2" width="4" x="151" y="131"/><path d="m108.18 172.9.77 4.6c.18 1.07 2 2.19 2.78 1.68l3.15-2.22a1.29 1.29 0 0 1 1.1 0l6 2.22c1.41.51 1.8-.61.59-1.68l-5.2-4.6a2.07 2.07 0 0 1 -.71-1.09l-.77-4.6c-.18-1.07-2-2.19-2.77-1.68l-3.12 2.22a1.27 1.27 0 0 1 -1.09 0l-6-2.22c-1.41-.51-1.81.61-.59 1.68l5.19 4.6a2.07 2.07 0 0 1 .67 1.09z" fill="#eb33ff"/><path d="m34.45 124.06-6.4 2.9c-1.5.67.28 3.41 2.65 4.08l10.16 2.9a5.39 5.39 0 0 1 2.2 1.33l8.27 8.28c1.93 1.93 4.67 1.93 4.09 0l-2.48-8.28a1 1 0 0 1 .47-1.33l6.39-2.94c1.5-.67-.28-3.41-2.65-4.08l-10.15-2.86a5.29 5.29 0 0 1 -2.19-1.33l-8.28-8.28c-1.93-1.93-4.67-1.93-4.09 0l2.48 8.28a1 1 0 0 1 -.47 1.33z" fill="#ff87ff"/><path d="m54.28 55-10.39-16c-4.18-6.43-14.19-6.45-10 0l10.39 16c4.18 6.43 14.18 6.45 10 0z" fill="#eb33ff"/><path d="m86.75 105-10.39-16c-4.18-6.43-14.19-6.45-10 0l10.39 16c4.18 6.43 14.18 6.45 10 0z" fill="url(#c)"/><path d="m80.56 77h16c6.44 0 0-10-6.49-10h-16c-6.43 0 .05 10 6.49 10z" fill="url(#d)"/><path d="m30.56 77h16c6.44 0 0-10-6.49-10h-16c-6.43 0 .05 10 6.49 10z" fill="#eb33ff"/><path d="m217.56 82h-.06a35.5 35.5 0 0 0 -35.5 35.5v.29h35.55z" fill="url(#e)"/><path d="m196.77 112.47c3-3.68 7.5-3.68 10.46 0 2 2.51 5.54-1 3.54-3.53a11.15 11.15 0 0 0 -17.54 0c-2 2.48 1.52 6 3.54 3.53z" fill="#6045ff"/><g fill="#fff"><path d="m156 93.87-4.24 1.49a1.11 1.11 0 0 0 0 2.09l4.24 1.48a1.12 1.12 0 0 1 .68.68l1.49 4.24a1.11 1.11 0 0 0 2.09 0l1.48-4.24a1.17 1.17 0 0 1 .68-.68l4.24-1.48a1.11 1.11 0 0 0 0-2.09l-4.24-1.49a1.14 1.14 0 0 1 -.68-.68l-1.48-4.19a1.11 1.11 0 0 0 -2.09 0l-1.49 4.24a1.09 1.09 0 0 1 -.68.63z"/><path d="m169.4 108.14-1.77-.85a.49.49 0 0 0 -.65.65l.85 1.76a.47.47 0 0 1 0 .43l-.85 1.76a.49.49 0 0 0 .65.65l1.77-.85a.51.51 0 0 1 .42 0l1.77.85a.48.48 0 0 0 .64-.65l-.85-1.76a.54.54 0 0 1 0-.43l.85-1.76a.48.48 0 0 0 -.64-.65l-1.77.85a.51.51 0 0 1 -.42 0z"/><rect height="3.79" rx="1.26" width="2.52" x="181.04" y="76.21"/><rect height="3.79" rx="1.26" width="2.52" x="181.04" y="86.31"/><rect height="2.52" rx="1.26" width="3.79" x="185.46" y="81.89"/><rect height="2.52" rx="1.26" width="3.79" x="175.36" y="81.89"/><rect height="3.79" rx="1.26" width="2.52" x="181.04" y="76.21"/><rect height="3.79" rx="1.26" width="2.52" x="181.04" y="86.31"/><rect height="2.52" rx="1.26" width="3.79" x="185.46" y="81.89"/><rect height="2.52" rx="1.26" width="3.79" x="175.36" y="81.89"/></g></svg>