<svg fill="none" height="36" viewBox="0 0 41 36" width="41" xmlns="http://www.w3.org/2000/svg" xmlns:xlink="http://www.w3.org/1999/xlink"><clipPath id="a"><path d="m0 0h41v36h-41z"/></clipPath><g clip-path="url(#a)"><path d="m35.1414 7.37108c.3683.06585.7011.25828.9396.54325.2384.28496.3671.64406.3633 1.01375v5.14802c.0009 5.173-1.815 10.1861-5.1381 14.1842-3.323 3.9981-7.9473 6.7336-13.0841 7.7398-5.136-1.0078-9.75937-3.7437-13.08212-7.7415s-5.13931714-9.01-5.14014092-14.1825v-5.14802c-.0038333-.36969.12486692-.72879.36332092-1.01375.238453-.28497.57128-.4774.93957-.54325.33027-.05458.65609-.13279.97489-.234 1.15997-.36478 2.21454-.99889 3.07533-1.84918.86078-.85029 1.50272-1.89199 1.872-3.03782.10247-.31491.18164-.63676.23689-.963.06666-.363795.26147-.692563.54995-.928108.28848-.235545.65202-.36267635 1.02627-.35888979h18.36804c.3742-.00378656.7378.12334479 1.0263.35888979.2884.235545.4832.564313.5499.928108.0553.32624.1344.64809.2369.963.3693 1.14583 1.0112 2.18753 1.872 3.03782s1.9154 1.4844 3.0753 1.84918c.3188.10121.6446.17942.9749.234z" fill="#4f545c"/><path d="m35.1414 7.37108c.3683.06585.7011.25828.9396.54325.2384.28496.3671.64406.3633 1.01375v5.14802c.0009 5.173-1.815 10.1861-5.1381 14.1842-3.323 3.9981-7.9473 6.7336-13.0841 7.7398-5.136-1.0078-9.75937-3.7437-13.08212-7.7415s-5.13931714-9.01-5.14014092-14.1825v-5.14802c-.0038333-.36969.12486692-.72879.36332092-1.01375.238453-.28497.57128-.4774.93957-.54325.33027-.05458.65609-.13279.97489-.234 1.15997-.36478 2.21454-.99889 3.07533-1.84918.86078-.85029 1.50272-1.89199 1.872-3.03782.10247-.31491.18164-.63676.23689-.963.06666-.363795.26147-.692563.54995-.928108.28848-.235545.65202-.36267635 1.02627-.35888979h18.36804c.3742-.00378656.7378.12334479 1.0263.35888979.2884.235545.4832.564313.5499.928108.0553.32624.1344.64809.2369.963.3693 1.14583 1.0112 2.18753 1.872 3.03782s1.9154 1.4844 3.0753 1.84918c.3188.10121.6446.17942.9749.234z" fill="#36393f"/><path d="m25.8299 3.60008c.5602 1.59292 1.4783 3.03985 2.6855 4.23226 1.2071 1.19241 2.6719 2.09933 4.2845 2.65276v3.6c-.0021 4.2154-1.4417 8.3071-4.0865 11.6153-2.6448 3.3081-6.3406 5.6397-10.4913 6.6187-4.1476-.988-7.8391-3.3234-10.4825-6.6314-2.64342-3.308-4.08562-7.3972-4.09531-11.6116v-3.6c1.61228-.55133 3.07709-1.45648 4.28431-2.64742 1.20723-1.19094 2.1255-2.6367 2.6857-4.2286zm1.5762-3.59999779h-18.36804c-.37425-.00378656-.73779.12334479-1.02627.35888979s-.48329.564313-.54995.928108c-.05525.32624-.13442.64809-.23689.963-.36928 1.14583-1.01122 2.18753-1.872 3.03782-.86079.85029-1.91536 1.4844-3.07533 1.84918-.3188.10121-.64462.17942-.97489.234-.36829.06585-.701117.25828-.93957.54325-.238454.28496-.36715422.64406-.36332092 1.01375v5.14802c.00082378 5.1725 1.81739092 10.1847 5.14014092 14.1825s7.94612 6.7337 13.08212 7.7415c5.1368-1.0062 9.7611-3.7417 13.0841-7.7398 3.3231-3.9981 5.139-9.0112 5.1381-14.1842v-5.14802c.0038-.36969-.1249-.72879-.3633-1.01375-.2385-.28497-.5713-.4774-.9396-.54325-.3303-.05458-.6561-.13279-.9749-.234-1.1599-.36478-2.2145-.99889-3.0753-1.84918s-1.5027-1.89199-1.872-3.03782c-.1025-.31491-.1816-.63676-.2369-.963-.0667-.363795-.2615-.692563-.5499-.928108-.2885-.235545-.6521-.36267635-1.0263-.35888979z" fill="#4f545c"/><path d="m35.1233 36c3.2456 0 5.8766-2.599 5.8766-5.805s-2.631-5.805-5.8766-5.805-5.8767 2.599-5.8767 5.805 2.6311 5.805 5.8767 5.805z" fill="#5865f2"/><path d="m32.6814 30.582 1.5671 1.548 3.3165-3.861" stroke="#fff" stroke-linecap="round" stroke-linejoin="round" stroke-width="2"/><g fill="#fff"><path d="m9.11092 12.6721 3.16158 3.123c.0733.0703.16.1254.2551.162l2.0409.666c.099.0344.1892.0897.2642.162l8.61 8.505c.1244.1126.2869.1751.4556.1751s.3312-.0625.4555-.1751l.6196-.612c.114-.1228.1772-.2834.1772-.45s-.0632-.3271-.1772-.45l-8.5736-8.532c-.0732-.0741-.1292-.1632-.164-.261l-.6742-2.007c-.0347-.0977-.0907-.1868-.164-.261l-3.1615-3.12301c-.1223-.11659-.2856-.18174-.4556-.18174-.1699 0-.3333.06515-.4555.18174l-2.21408 2.16001c-.06116.0602-.10968.1318-.14279.2105-.03311.0788-.05016.1632-.05016.2485s.01705.1698.05016.2485c.03311.0788.08163.1503.14279.2105z"/><path d="m23.8983 26.1 1.8769-1.854c.118-.1208.184-.2821.184-.45s-.066-.3292-.184-.45c-.1244-.1126-.2869-.175-.4556-.175-.1686 0-.3312.0624-.4555.175l-1.8678 1.845c-.114.1228-.1772.2834-.1772.45s.0632.3272.1772.45c.1207.1151.2814.1803.4492.1819.1678.0017.3298-.0602.4528-.1729z"/><path d="m24.1887 10.6783-13.2394 13.078c-.3451.3409-.3451.8937 0 1.2346l.7731.7637c.3451.3409.9047.3409 1.2498 0l13.2394-13.078c.3452-.3409.3452-.8937 0-1.2346l-.7731-.7637c-.3451-.3409-.9047-.3409-1.2498 0z"/><path d="m19.68 12.6-1.2664-3.29399c-.0287-.07823-.0343-.16286-.0163-.24412.018-.08127.0588-.15584.1179-.21513s.1339-.10087.2159-.11993c.0819-.01907.1677-.01485.2473.01218l3.3438 1.251c.1715.07099.3289.17159.4647.29699l5.5578 5.499c.118.1208.1839.2821.1839.45s-.0659.3292-.1839.45l-1.8678 1.845c-.1223.1166-.2856.1817-.4556.1817-.1699 0-.3332-.0651-.4555-.1817l-5.5669-5.499c-.1382-.1182-.2472-.2659-.3189-.432z"/></g><path d="m18.7207 15.2394-1.1726 1.1582 3.7109 3.6657 1.1726-1.1583z" fill="#36393f"/><path d="m15.9873 17.9417-1.1726 1.1582 3.7109 3.6656 1.1726-1.1582z" fill="#36393f"/></g></svg>