<svg fill="none" height="120" viewBox="0 0 240 120" width="240" xmlns="http://www.w3.org/2000/svg" xmlns:xlink="http://www.w3.org/1999/xlink"><linearGradient id="a"><stop offset="0" stop-color="#3264f0"/><stop offset="1" stop-color="#578bfa"/></linearGradient><linearGradient id="b" gradientUnits="userSpaceOnUse" x1="124.156" x2="124.156" xlink:href="#a" y1="98.5728" y2="68.1024"/><linearGradient id="c" gradientUnits="userSpaceOnUse" x1="4737" x2="4790.45" xlink:href="#a" y1="4938.54" y2="4105.25"/><linearGradient id="d" gradientUnits="userSpaceOnUse" x1="124.147" x2="124.147" y1="26.688" y2="52.7904"><stop offset=".01" stop-color="#2951f0"/><stop offset="1" stop-color="#2951f0" stop-opacity="0"/></linearGradient><clipPath id="e"><path d="m0 0h240v120h-240z"/></clipPath><clipPath id="f"><path d="m4.7998 4.79999h230.4v115.2h-230.4z"/></clipPath><g clip-path="url(#e)"><g clip-path="url(#f)"><path d="m220.867 104.746c-1.528 0-2.993-.607-4.073-1.687-1.08-1.081-1.687-2.546-1.687-4.0734v-43.776c-.003-7.4042-2.942-14.505-8.174-19.7442-5.232-5.2391-12.329-8.1887-19.733-8.2014h-86.4c-4.4849-.0007-8.9061 1.0602-12.9022 3.0958s-7.4537 4.9881-10.09 8.6162l-11.7216 16.1376c-2.6327 3.6265-6.0871 6.5776-10.0802 8.6117s-8.4113 3.0933-12.8926 3.0907h-11.52c-3.5177-.0025-7.0014.6881-10.252 2.0325-3.2506 1.3445-6.2045 3.3162-8.6928 5.8027-2.4882 2.4865-4.46214 5.439-5.80888 8.6886-1.34674 3.2497-2.03992 6.7329-2.03992 10.2506v26.4096h230.4002v-.691c.026-2.162-.426-4.303-1.325-6.269-1.158-2.474-2.996-4.568-5.3-6.036-2.303-1.469-4.976-2.252-7.708-2.258z" fill="#c7caff"/><g fill="#5960fa"><path d="m197.261 110.851h-17.386v3.619h17.386z"/><path d="m184.464 101.155-3.456 18.845h-4.099l3.465-18.845z"/><path d="m200.227 120h-4.089l-3.456-18.845h4.118z"/></g><path d="m183.907 104.189-.883 4.877h-4.09l.893-4.877z" fill="#373be1"/><path d="m198.221 109.066h-4.08l-.903-4.877h4.099z" fill="#373be1"/><path d="m198.077 98.0832h-18.643c-.787.0439-1.526.3872-2.067.9594-.542.5722-.843 1.3294-.843 2.1174s.301 1.545.843 2.117c.541.573 1.28.916 2.067.96h18.643c.786-.044 1.526-.387 2.067-.96.541-.572.842-1.329.842-2.117s-.301-1.5452-.842-2.1174-1.281-.9155-2.067-.9594z" fill="#5960fa"/><path d="m120.259 9.36959c-.053 1.14311.347 2.26101 1.114 3.11041l7.267 7.968.394-10.76161c.021-.57558-.071-1.14977-.273-1.68938-.201-.5396-.508-1.03393-.901-1.45438-.394-.42046-.867-.75872-1.392-.99521-.525-.2365-1.092-.36655-1.668-.38263-.575-.02313-1.148.06739-1.687.26637-.54.19898-1.035.5025-1.457.89315-.421.39066-.762.86076-1.002 1.38334s-.374 1.08736-.395 1.66194z" fill="#801384"/><path d="m123.754 20.2656-4.848-5.3664-.183 5.1744z" fill="#801384"/><path d="m137.117 12.0192c.363-.6161.57-1.3113.604-2.02561.042-1.15546-.376-2.28024-1.163-3.12782-.786-.84757-1.876-1.34879-3.032-1.39378l-9.878-.3648-8.727-.3072-.278 7.58401c-.464-.4693-1.029-.8271-1.651-1.0464v-.2112l-4.243-.1632v1.2c-.439.3839-.794.8538-1.043 1.3806-.25.5268-.388 1.0992-.407 1.6818v.1344c-.039 1.1249.364 2.2204 1.123 3.0514s1.814 1.3313 2.938 1.3934l10.291.384-6.259-6.9504 7.91.144v.1344l5.511.2016-.173 4.5696-2.17 2.0736 10.291.384c.566.0218 1.13-.0682 1.661-.265s1.018-.4964 1.433-.8817c.414-.3853.749-.8487.984-1.3636s.367-1.0712.386-1.6369v-.1152c.042-1.1354-.366-2.2414-1.136-3.0773-.769-.836-1.837-1.3343-2.972-1.3867z" fill="#e30085"/><path d="m118.723 20.064 5.223-5.0016-.192 5.184z" fill="#801384"/><path d="m129.312 11.7216c-1.073-.0354-2.121.3309-2.938 1.0272l.135-.1248c.822-.7963 1.304-1.8801 1.344-3.024.033-1.15216-.39-2.27094-1.177-3.11252-.788-.84157-1.876-1.33771-3.028-1.38028-1.156-.04154-2.28.37673-3.128 1.16313-.847.78639-1.349 1.87674-1.394 3.03207l-.086 2.6496.096-2.6304c.02-.5737-.072-1.14583-.273-1.68365-.201-.53783-.506-1.0308-.897-1.45075-.391-.41994-.862-.75861-1.384-.99664-.523-.23802-1.087-.37074-1.66-.39056-.857-.02958-1.703.19348-2.434.64141s-1.314 1.10093-1.676 1.87768c-.362.77674-.488 1.6429-.361 2.4906.126.84771.499 1.63951 1.072 2.27671l.163.1728c-.589-.6062-1.344-1.0252-2.171-1.2046-.826-.1793-1.687-.111-2.475.1963-.788.3074-1.468.8401-1.954 1.5317-.487.6916-.759 1.5113-.782 2.3566v.1248c-.018.5656.076 1.1293.276 1.6585.201.5293.503 1.0139.891 1.4259s.854.7434 1.37.9752 1.073.3595 1.639.3756l10.262.3744 10.292.384c1.131.0286 2.227-.3897 3.052-1.1642s1.311-1.8428 1.354-2.9734v-.1248c.042-1.1395-.369-2.2493-1.142-3.0873-.774-.8381-1.847-1.3364-2.986-1.3863z" fill="#ff29a1"/><path d="m112.368 119.194c-.733-.066-1.445-.275-2.096-.615-.651-.341-1.229-.807-1.7-1.372-.471-.564-.826-1.216-1.044-1.918-.219-.702-.296-1.44-.229-2.172.48-5.299 1.2-13.229 1.68-18.509.136-1.4787.854-2.8429 1.995-3.7932s2.612-1.409 4.091-1.2756c1.479.1387 2.842.8585 3.791 2.0014.948 1.143 1.405 2.6156 1.268 4.0946l-1.68 18.4898c-.066.732-.276 1.445-.618 2.096-.342.652-.809 1.229-1.374 1.7s-1.218.825-1.92 1.044c-.703.218-1.441.296-2.174.229z" fill="#7196ff"/><path d="m134.294 114.451-5.875-17.4334c-.451-1.3041-.42-2.7269.089-4.0096.51-1.2826 1.462-2.3398 2.685-2.9792.717-.3521 1.501-.547 2.299-.5716.798-.0247 1.593.1215 2.33.4288.737.3072 1.4.7683 1.945 1.3526.544.5842.957 1.278 1.212 2.035l5.981 17.5964c.472 1.408.366 2.946-.294 4.276-.661 1.33-1.822 2.344-3.229 2.819-.7.242-1.44.344-2.179.298-.739-.045-1.462-.237-2.126-.564s-1.257-.782-1.744-1.34c-.487-.557-.859-1.206-1.094-1.908z" fill="#7196ff"/><path d="m89.2031 95.3664c0-.1056 0-.2016 0-.3072 1.2288-8.0448 3.552-15.1392 10.8859-23.6352.417-.4879.925-.8891 1.496-1.1806.571-.2916 1.194-.4678 1.833-.5186s1.282.0248 1.892.2225c.61.1976 1.175.5135 1.663.9295s.889.9241 1.18 1.4951c.292.5711.468 1.194.519 1.8332.051.6391-.025 1.282-.223 1.892-.197.6099-.513 1.175-.929 1.6629-5.856 6.7872-7.5937 12.0096-8.6401 18.7392-.1553 1.2845-.8145 2.4547-1.8326 3.2531-.5041.3957-1.0812.6877-1.6982.8597-.6171.173-1.262.222-1.898.145-1.2845-.156-2.4547-.8147-3.2531-1.8328-.7985-1.0181-1.1598-2.3117-1.0045-3.5962z" fill="#578bfa"/><path d="m101.664 63.8884-9.164 1.9077c-1.2139.2527-2.4785.0128-3.5155-.6668-1.0371-.6797-1.7617-1.7435-2.0144-2.9574l-2.1523-10.3384c-.2527-1.2139-.0128-2.4785.6669-3.5155.6796-1.0371 1.7434-1.7617 2.9573-2.0144l9.1636-1.9077z" fill="#4981fa"/><path d="m97.2212 61.2204-4.5771.9529c-.3009.0639-.6114.068-.9139.0119-.3024-.0561-.5909-.1712-.8488-.3388-.258-.1675-.4805-.3843-.6547-.6378s-.2967-.5389-.3607-.8398l-1.6689-8.0169c-.1267-.6082-.0065-1.2418.334-1.7614.3406-.5196.8736-.8826 1.4818-1.0092l4.5864-.9548z" fill="#bacfff"/><path d="m140.379 35.5126 9.163-1.9077c.602-.1251 1.221-.1306 1.825-.0162.603.1144 1.178.3465 1.691.683.514.3366.956.771 1.301 1.2784.346.5074.588 1.0779.713 1.679l2.153 10.3384c.244 1.2105-.001 2.4686-.681 3.4994s-1.74 1.7506-2.949 2.0023l-9.164 1.9077z" fill="#4981fa"/><path d="m144.813 38.1791 4.567-.9509c.608-.1267 1.242-.0065 1.762.3341.519.3405.882.8735 1.009 1.4817l1.669 8.0169c.124.6071.002 1.2385-.339 1.756-.34.5175-.872.879-1.479 1.0052l-4.577.9529-2.622-12.594z" fill="#bacfff"/><path d="m139.536 57.408-36.327 9.2256-2.774 16.5696c-.5143 3.0723.024 6.2282 1.526 8.9568 1.194 2.1691 2.945 3.9796 5.074 5.2439 2.128 1.2643 4.556 1.9363 7.032 1.9465l21.504.0768c2.585.0071 5.109-.789 7.223-2.2782 2.113-1.4893 3.712-3.5982 4.575-6.0354.89-2.531.941-5.2813.144-7.8432z" fill="url(#b)"/><path d="m164.4 60.48c-.068.096-.125.192-.192.2784-5.252 7.2-11.079 12.9312-22.483 17.5008-.652.2609-1.348.3911-2.049.383-.702-.0081-1.395-.1542-2.04-.4301s-1.229-.6762-1.719-1.1779-.877-1.0951-1.138-1.7462c-.261-.6512-.391-1.3473-.383-2.0488.008-.7014.154-1.3944.43-2.0394.276-.6449.676-1.2292 1.178-1.7195s1.095-.877 1.746-1.1379c9.111-3.6576 13.44-7.8528 17.818-13.872.825-1.0992 2.043-1.8381 3.399-2.0633 1.356-.2251 2.747.0808 3.884.8542s1.932 1.9549 2.22 3.2992c.288 1.3442.048 2.7479-.671 3.9195z" fill="url(#c)"/><path d="m140.793 61.4688-37.833 6.6144-1.488 8.88 40.089-12.96z" fill="#366feb"/><path d="m134.594 26.0573-36.3346 7.5642c-5.6942 1.1854-9.3492 6.7624-8.1638 12.4565l3.338 16.0339c1.1854 5.6941 6.7624 9.3491 12.4564 8.1637l36.335-7.5642c5.694-1.1854 9.349-6.7624 8.163-12.4565l-3.338-16.0339c-1.185-5.6941-6.762-9.3491-12.456-8.1637z" fill="#578bfa"/><path d="m149.539 33.6-2.515.5184c-.596-2.7189-2.242-5.0924-4.579-6.6044-2.337-1.5119-5.177-2.0399-7.901-1.4692l-36.288 7.5552c-1.5217.3183-2.9543.9686-4.1956 1.9046-1.2413.9359-2.2606 2.1344-2.9852 3.5098 26.8798 5.6064 54.1438 7.5936 66.1438 8.5056l-2.15-10.3008c-.254-1.2129-.979-2.2755-2.016-2.9541s-2.301-.9179-3.514-.6651z" fill="url(#d)"/><path d="m105.795 41.6154 20.896-4.2643c.875-.1787 1.786-.0023 2.532.4906s1.265 1.2619 1.444 2.1377l1.641 8.0438c.441 2.1608.006 4.4083-1.21 6.248-1.216 1.8398-3.114 3.1211-5.274 3.5621l-10.509 2.1446c-2.336.4766-4.765.006-6.753-1.3084-1.989-1.3144-3.373-3.3649-3.85-5.7004l-1.505-7.3758c-.179-.8758-.003-1.7868.49-2.5324.493-.7457 1.262-1.265 2.138-1.4438z" fill="#bacfff"/><path d="m138.134 43.6128c1.744 0 3.158-1.4141 3.158-3.1584s-1.414-3.1584-3.158-3.1584-3.158 1.4141-3.158 3.1584 1.414 3.1584 3.158 3.1584z" fill="#181a1c"/><path d="m98.1789 51.936c1.7443 0 3.1581-1.4141 3.1581-3.1584s-1.4138-3.1584-3.1581-3.1584-3.1584 1.4141-3.1584 3.1584 1.4141 3.1584 3.1584 3.1584z" fill="#181a1c"/><path d="m113.963 51.7562-2.866.5967c-.789.1643-1.296.937-1.132 1.726l.002.0094c.165.789.937 1.2954 1.726 1.1312l2.867-.5968c.789-.1642 1.295-.937 1.131-1.726l-.002-.0094c-.164-.7889-.937-1.2954-1.726-1.1311z" fill="#5f92ff"/><path d="m124.926 49.4673-4.014.8355c-.789.1643-1.295.937-1.131 1.726l.002.0094c.164.789.937 1.2954 1.726 1.1312l4.013-.8355c.789-.1643 1.296-.937 1.132-1.726l-.002-.0094c-.165-.789-.937-1.2954-1.726-1.1312z" fill="#5f92ff"/><path d="m153.6 89.4432-4.944 6c-.088.1082-.144.2381-.164.3759-.019.1378-.001.2783.054.4064.054.1282.142.2392.254.3212.113.0821.245.132.384.1445l7.68.72c.793.0779 1.594-.0395 2.331-.342.738-.3024 1.391-.7808 1.901-1.3934.51-.6125.863-1.3407 1.027-2.1208.164-.7802.135-1.5887-.085-2.355-.249-.8491-.724-1.6147-1.375-2.2148-.65-.6002-1.451-1.0124-2.317-1.1928-.867-.1804-1.766-.1221-2.602.1687-.836.2907-1.577.803-2.144 1.4821z" fill="#7196ff"/><path d="m140.822 80.928h24.192c.173 0 .339.0688.462.1912.122.1224.191.2884.191.4616v38.4002h-24.845z" fill="#ff29a1"/><path d="m157.392 80.928h-7.584v39.072h7.584z" fill="#e30085"/><path d="m140.778 20.907 25.01.9259c.509.0188.989.239 1.336.6122.346.3731.53.8686.512 1.3775l-.348 9.3919c-.019.5089-.239.9895-.612 1.336s-.869.5305-1.378.5117l-25.01-.9258z" fill="#ff29a1"/><path d="m79.5261 80.928h61.2959v39.072h-61.9487v-38.4c-.0025-.0874.0124-.1743.0441-.2557.0317-.0815.0793-.1557.1402-.2184s.1337-.1125.2142-.1465.167-.0515.2543-.0514z" fill="#ff6cba"/><path d="m113.875 80.928h-11.136v39.072h11.136z" fill="#ff29a1"/><path d="m141.462 20.9248-62.022-2.2959c-1.065-.0394-1.9602.792-1.9997 1.8569l-.3476 9.392c-.0395 1.065.7919 1.9602 1.8569 1.9997l62.0214 2.2959c1.065.0394 1.96-.792 2-1.8569l.347-9.392c.04-1.065-.792-1.9602-1.856-1.9997z" fill="#ff6cba"/><path d="m105.12 19.5744c-.532-.0184-1.05.1723-1.443.5312s-.63.8574-.66 1.3888l-.585 15.9936 5.76-4.56 5.385 4.9728.595-15.9936c.025-.5314.259-1.0314.651-1.3911.392-.3596.911-.5498 1.442-.5289z" fill="#ff29a1"/><path d="m158.323 21.5424-3.648-.192-3.936-.0864c.457.015.889.2103 1.202.5432.313.3328.482.776.469 1.2328l-.788 23.04 4.013-3.696 3.571 3.984.788-23.04c.01-.457-.159-.8999-.471-1.2337s-.743-.5319-1.2-.5519z" fill="#e30085"/><path d="m198.49 45.4752c-.891-.5733-1.649-1.3294-2.225-2.2182s-.957-1.89-1.116-2.937l-.538-3.6192c-.015-.0856-.06-.1631-.127-.2192s-.151-.0872-.238-.088c-.085.0012-.168.0326-.233.0888s-.108.1336-.122.2184l-.537 3.6192c-.157 1.0504-.536 2.0553-1.113 2.9476-.576.8923-1.335 1.6514-2.228 2.2268l-.471.2976c-.052.0324-.095.0776-.126.1313-.03.0538-.046.1143-.046.1759s.016.1221.046.1758c.031.0538.074.0989.126.1314l.471.3072c.888.5692 1.645 1.3206 2.221 2.2044.576.8837.957 1.8797 1.12 2.922l.537 3.6192c.014.0848.057.1621.122.2183s.148.0877.233.0889c.088.0011.173-.0293.24-.0857s.111-.1351.125-.2215l.538-3.6192c.157-1.0491.536-2.0526 1.112-2.9433s1.336-1.6481 2.229-2.2215l.47-.3072c.052-.0325.096-.0776.126-.1314.03-.0537.046-.1142.047-.1758-.001-.0616-.017-.1221-.047-.1759-.03-.0537-.074-.0989-.126-.1313z" fill="#5960fa"/><path d="m51.9932 82.3392c-.83-.5349-1.5377-1.2389-2.077-2.066-.5393-.8272-.898-1.7588-1.0526-2.734l-.5088-3.3888c-.0116-.0806-.0521-.1542-.1139-.2071-.0618-.053-.1407-.0818-.2221-.0809-.0808.0011-.1587.0305-.2201.0831-.0614.0527-.1024.1252-.1159.2049l-.5088 3.3888c-.1528.9758-.5108 1.9081-1.0502 2.7355-.5395.8273-1.2482 1.531-2.0794 2.0645l-.432.2784c-.048.0317-.0878.0744-.1161.1244-.0284.0501-.0445.1061-.0471.1636.0026.0575.0187.1135.0471.1636.0283.05.0681.0926.1161.1244l.432.2784c.8312.5335 1.5399 1.2371 2.0794 2.0645.5394.8274.8974 1.7597 1.0502 2.7355l.5088 3.3888c.0135.0797.0545.1522.1159.2048s.1393.0821.2201.0832c.0814.0008.1603-.0279.2221-.0809s.1023-.1266.1139-.2071l.5088-3.3408c.1546-.9752.5133-1.9069 1.0526-2.734s1.247-1.5311 2.077-2.066l.4416-.2784c.0468-.0322.0851-.0752.1119-.1253.0267-.0501.041-.1059.0417-.1627-.0007-.0568-.015-.1126-.0417-.1627-.0268-.0501-.0651-.0931-.1119-.1253z" fill="#fff29a"/><path d="m214.934 25.44c-.623-.4008-1.154-.9302-1.556-1.5527-.403-.6225-.667-1.3238-.777-2.0569l-.374-2.5152c-.009-.0603-.039-.1155-.085-.1559-.045-.0403-.104-.0633-.165-.0649-.062-.0007-.123.0213-.171.0618-.047.0406-.079.0971-.088.159l-.374 2.5152c-.11.7319-.373 1.4322-.774 2.0545-.4.6223-.929 1.1524-1.549 1.5551l-.327.2112c-.038.0207-.069.0513-.091.0884-.022.0372-.034.0796-.034.1228.001.0442.013.0875.035.126s.053.0711.09.0948l.327.2112c.621.3998 1.15.9278 1.55 1.5487.401.6209.664 1.3203.773 2.0513l.374 2.5248c.011.0601.044.1143.091.153.048.0386.107.0592.168.0582.06-.0012.117-.0228.163-.0613.045-.0385.076-.0914.087-.1499l.374-2.5248c.109-.7322.373-1.4326.775-2.0537.403-.6211.934-1.1484 1.558-1.5463l.327-.2112c.035-.0254.063-.0585.083-.0968s.031-.0808.032-.124c0-.0421-.011-.0835-.031-.1204s-.049-.0682-.084-.0908z" fill="#00f67a"/><path d="m41.7789 61.5456c-1.1572-.7361-2.1433-1.7116-2.8918-2.8609-.7485-1.1492-1.242-2.4455-1.4474-3.8015l-.7008-4.6656c-.0161-.1112-.0713-.2129-.1559-.2868-.0845-.074-.1926-.1153-.3049-.1164-.1134.0008-.2229.0417-.309.1155s-.1433.1757-.1614.2877l-.6912 4.6656c-.2021 1.3536-.6912 2.6483-1.4346 3.7974-.7435 1.1491-1.724 2.1259-2.8758 2.865l-.6048.3936c-.0669.0418-.1221.0998-.1607.1686s-.0593.1461-.0601.225c.0008.0788.0215.1562.0601.225s.0938.1268.1607.1686l.6048.3936c1.1585.7453 2.1431 1.7311 2.8869 2.8907.7437 1.1595 1.2292 2.4655 1.4235 3.8293l.6912 4.656c.0181.1119.0753.2138.1614.2876.0861.0739.1956.1148.309.1156.1123-.0012.2204-.0424.3049-.1164.0846-.0739.1398-.1757.1559-.2868l.7008-4.6752c.1942-1.3638.6797-2.6698 1.4235-3.8293.7437-1.1596 1.7283-2.1454 2.8869-2.8907l.6048-.3936c.0657-.0423.1195-.1007.1564-.1695.037-.0689.0558-.146.0548-.2241.001-.0781-.0178-.1553-.0548-.2241-.0369-.0689-.0907-.1272-.1564-.1695z" fill="#8086ff"/><path d="m139.745 90.67-2.909 1.9622 4.909 7.2748 2.908-1.9622z" fill="#62ffa4"/><path d="m174.209 64.6636-2.908 1.9622 4.908 7.2748 2.908-1.9623z" fill="#44bcff"/><path d="m69.5148 58.1434.8084-3.4095-8.5283-2.0223-.8084 3.4095z" fill="#62ffa4"/><path d="m77.834 63.2581-1.9951-1.7289-4.3128 4.977 1.9952 1.7289z" fill="#8086ff"/><path d="m116.949 110.134-1.792-1.553-3.879 4.477 1.792 1.553z" fill="#fff29a"/></g></g></svg>