<svg fill="none" height="96" viewBox="0 0 72 96" width="72" xmlns="http://www.w3.org/2000/svg"><path d="m72 29.3v60.3c0 2.24 0 3.36-.44 4.22-.38.74-1 1.36-1.74 1.74-.86.44-1.98.44-4.22.44h-59.2c-2.24 0-3.36 0-4.22-.44-.74-.38-1.36-1-1.74-1.74-.44-.86-.44-1.98-.44-4.22v-83.2c0-2.24 0-3.36.44-4.22.38-.74 1-1.36 1.74-1.74.86-.44 1.98-.44 4.22-.44h36.3c1.96 0 2.94 0 3.86.22.5.12.98.28 1.44.5v16.88c0 2.24 0 3.36.44 4.22.38.74 1 1.36 1.74 1.74.86.44 1.98.44 4.22.44h16.88c.22.46.38.94.5 1.44.22.92.22 1.9.22 3.86z" fill="#d3d6fd"/><path d="m68.26 20.26c1.38 1.38 2.06 2.06 2.56 2.88.18.28.32.56.46.86h-16.88c-2.24 0-3.36 0-4.22-.44-.74-.38-1.36-1-1.74-1.74-.44-.86-.44-1.98-.44-4.22v-16.880029c.3.14.58.28.86.459999.82.5 1.5 1.18 2.88 2.56z" fill="#939bf9"/><path clip-rule="evenodd" d="m22.06 66.96h8.42l1.5 5.04h5.84l-7.7-24h-7.64l-7.62 24h5.72zm4.14-14.24 3.02 10.02h-5.94zm18.34 11.92h11.88.02v-2.26c0-1.76-.32-3.26-.96-4.48s-1.56-2.16-2.8-2.78-2.7-.94-4.42-.94c-1.84 0-3.46.38-4.84 1.14s-2.44 1.82-3.18 3.2-1.1 2.94-1.1 4.72c0 1.88.4 3.52 1.22 4.92s1.98 2.46 3.48 3.22 3.26 1.14 5.3 1.14c1.38 0 2.64-.18 3.78-.52s2.06-.78 2.78-1.32v-3.92c-.72.48-1.54.86-2.46 1.14s-1.86.42-2.84.42c-1.66 0-2.98-.32-3.96-.96s-1.62-1.54-1.9-2.72zm.06-3.04c.16-1.06.54-1.88 1.18-2.48.64-.58 1.5-.88 2.56-.88s1.88.28 2.48.86.92 1.4.96 2.5z" fill="#5865f2" fill-rule="evenodd"/></svg>