<?xml version="1.0" encoding="UTF-8" standalone="no"?>
<svg width="40px" height="46px" viewBox="0 0 40 46" version="1.1" xmlns="http://www.w3.org/2000/svg" xmlns:xlink="http://www.w3.org/1999/xlink" xmlns:sketch="http://www.bohemiancoding.com/sketch/ns">
    <!-- Generator: Sketch 3.5.2 (25235) - http://www.bohemiancoding.com/sketch -->
    <title>Discord-Logo-White</title>
    <desc>Created with Sketch.</desc>
    <defs></defs>
    <g id="Bot-bot" stroke="none" stroke-width="1" fill="none" fill-rule="evenodd" sketch:type="MSPage">
        <g id="Desktop-HD---Auth" sketch:type="MSArtboardGroup" transform="translate(-700.000000, -438.000000)" fill="#FFFFFF">
            <g id="Discord-Logo-White" sketch:type="MSLayerGroup" transform="translate(700.000000, 438.000000)">
                <g id="Layer_1" sketch:type="MSShapeGroup">
                    <g id="Group">
                        <path d="M15.8628571,19.297 C14.56,19.297 13.5314286,20.447 13.5314286,21.85 C13.5314286,23.253 14.5828571,24.403 15.8628571,24.403 C17.1657143,24.403 18.1942857,23.253 18.1942857,21.85 C18.2171429,20.447 17.1657143,19.297 15.8628571,19.297 L15.8628571,19.297 Z" id="Shape"></path>
                        <path d="M24.2057143,19.297 C22.9028571,19.297 21.8742857,20.447 21.8742857,21.85 C21.8742857,23.253 22.9257143,24.403 24.2057143,24.403 C25.5085714,24.403 26.5371429,23.253 26.5371429,21.85 C26.5371429,20.447 25.5085714,19.297 24.2057143,19.297 L24.2057143,19.297 Z" id="Shape"></path>
                        <path d="M35.3142857,0 L4.68571429,0 C2.10285714,0 0,2.116 0,4.738 L0,35.834 C0,38.456 2.10285714,40.572 4.68571429,40.572 L30.6057143,40.572 L29.3942857,36.317 L32.32,39.054 L35.0857143,41.63 L40,46 L40,35.834 L40,33.534 L40,4.738 C40,2.116 37.8971429,0 35.3142857,0 L35.3142857,0 Z M26.4914286,30.038 C26.4914286,30.038 25.6685714,29.049 24.9828571,28.175 C27.9771429,27.324 29.12,25.438 29.12,25.438 C28.1828571,26.059 27.2914286,26.496 26.4914286,26.795 C25.3485714,27.278 24.2514286,27.6 23.1771429,27.784 C20.9828571,28.198 18.9714286,28.083 17.2571429,27.761 C15.9542857,27.508 14.8342857,27.14 13.8971429,26.772 C13.3714286,26.565 12.8,26.312 12.2285714,25.99 C12.16,25.944 12.0914286,25.921 12.0228571,25.875 C11.9771429,25.852 11.9542857,25.829 11.9314286,25.806 C11.52,25.576 11.2914286,25.415 11.2914286,25.415 C11.2914286,25.415 12.3885714,27.255 15.2914286,28.129 C14.6057143,29.003 13.76,30.038 13.76,30.038 C8.70857143,29.877 6.78857143,26.542 6.78857143,26.542 C6.78857143,19.136 10.08,13.133 10.08,13.133 C13.3714286,10.649 16.5028571,10.718 16.5028571,10.718 L16.7314286,10.994 C12.6171429,12.19 10.72,14.007 10.72,14.007 C10.72,14.007 11.2228571,13.731 12.0685714,13.34 C14.5142857,12.259 16.4571429,11.96 17.2571429,11.891 C17.3942857,11.868 17.5085714,11.845 17.6457143,11.845 C19.04,11.661 20.6171429,11.615 22.2628571,11.799 C24.4342857,12.052 26.7657143,12.696 29.1428571,14.007 C29.1428571,14.007 27.3371429,12.282 23.4514286,11.086 L23.7714286,10.718 C23.7714286,10.718 26.9028571,10.649 30.1942857,13.133 C30.1942857,13.133 33.4857143,19.136 33.4857143,26.542 C33.4857143,26.542 31.5428571,29.877 26.4914286,30.038 L26.4914286,30.038 Z" id="Shape"></path>
                    </g>
                </g>
            </g>
        </g>
    </g>
</svg>