<svg xmlns="http://www.w3.org/2000/svg" viewBox="0 0 272 93"><title>go-live-full-state</title><path d="M266,83h-7.73a5.82,5.82,0,0,1-1.47,1.54V92H266Z" fill="#72767d" opacity="0.2" style="isolation:isolate"/><path d="M188,74v6h10v6h8V81h-2V79h1.78a3,3,0,1,1,4.44,0H212v2h4.29a5.59,5.59,0,0,1-.19-1.3,6.5,6.5,0,0,1,.8-3.1,11.75,11.75,0,0,0,1.5-6.1,3.88,3.88,0,0,1,4.5-3.8,4.07,4.07,0,0,1,3.3,4,13.2,13.2,0,0,0,1.3,6,5.47,5.47,0,0,1,.8,2.9,6.46,6.46,0,0,1-.16,1.4h3.15a5.59,5.59,0,0,1-.19-1.3,6.5,6.5,0,0,1,.8-3.1,11.75,11.75,0,0,0,1.5-6.1,3.88,3.88,0,0,1,4.5-3.8,4.07,4.07,0,0,1,3.3,4,13.2,13.2,0,0,0,1.3,6,5.47,5.47,0,0,1,.8,2.9,6.46,6.46,0,0,1-.16,1.4h4.15a5.59,5.59,0,0,1-.19-1.3,6.5,6.5,0,0,1,.8-3.1,11.75,11.75,0,0,0,1.5-6.1,3.88,3.88,0,0,1,4.5-3.8,4.07,4.07,0,0,1,3.3,4,13.2,13.2,0,0,0,1.3,6,5.47,5.47,0,0,1,.8,2.9,6.46,6.46,0,0,1-.16,1.4H264V79h1.78A3,3,0,0,1,268,74V63a18.05,18.05,0,0,0-18-18H224.3a10.15,10.15,0,0,1-8.3-4.3L205.5,25.5A21.89,21.89,0,0,0,187.4,16H180V74Zm5.3-38.4L192,33a.75.75,0,0,1,1-1l2.6,1.4a.64.64,0,0,0,.6,0l2.6-1.3a.75.75,0,0,1,1,1l-1.3,2.6a.64.64,0,0,0,0,.6l1.3,2.6a.75.75,0,0,1-1,1l-2.6-1.3a.64.64,0,0,0-.6,0L193,39.9a.75.75,0,0,1-1-1l1.3-2.6A.85.85,0,0,0,193.3,35.6Z" fill="#72767d" opacity="0.2" style="isolation:isolate"/><path d="M252.9,85.7a6,6,0,0,1-1.4-.27V92H255V85.44A5.86,5.86,0,0,1,252.9,85.7Z" fill="#72767d" opacity="0.2" style="isolation:isolate"/><path d="M36,74V61L26,51V31L36,21V16H27.6A12.55,12.55,0,0,0,15,28.6V61.2A3.8,3.8,0,0,1,11.2,65H11A11,11,0,0,0,0,76V92H36V74Z" fill="#72767d" opacity="0.2" style="isolation:isolate"/><path d="M221.9,85.7a6,6,0,0,1-1.4-.27V92H224V85.44A5.86,5.86,0,0,1,221.9,85.7Z" fill="#72767d" opacity="0.2" style="isolation:isolate"/><path d="M236.9,85.7a6,6,0,0,1-1.4-.27V92H239V85.44A5.86,5.86,0,0,1,236.9,85.7Z" fill="#72767d" opacity="0.2" style="isolation:isolate"/><path d="M232.2,83h-4.93a5.82,5.82,0,0,1-1.47,1.54V92h7.9V84.53A6.41,6.41,0,0,1,232.2,83Z" fill="#72767d" opacity="0.2" style="isolation:isolate"/><path d="M248.2,83h-5.93a5.82,5.82,0,0,1-1.47,1.54V92h8.9V84.53A6.41,6.41,0,0,1,248.2,83Z" fill="#72767d" opacity="0.2" style="isolation:isolate"/><path d="M217.2,83H210v9h8.7V84.53A6.41,6.41,0,0,1,217.2,83Z" fill="#72767d" opacity="0.2" style="isolation:isolate"/><path d="M242.5,76.7a13.2,13.2,0,0,1-1.3-6,4.07,4.07,0,0,0-3.3-4,3.88,3.88,0,0,0-4.5,3.8,11.75,11.75,0,0,1-1.5,6.1,6.5,6.5,0,0,0-.8,3.1,5.59,5.59,0,0,0,.19,1.3h11.85a6.46,6.46,0,0,0,.16-1.4A5.47,5.47,0,0,0,242.5,76.7Z" fill="#040505"/><path d="M242.27,83H232.2a6.41,6.41,0,0,0,1.5,1.53V92.1a.9.9,0,0,0,1.8,0V85.43a6,6,0,0,0,1.4.27,5.86,5.86,0,0,0,2.1-.26V92.1a.9.9,0,0,0,1.8,0V84.54A5.82,5.82,0,0,0,242.27,83Z" fill="#040505"/><path d="M258.27,83H248.2a6.41,6.41,0,0,0,1.5,1.53V92.1a.9.9,0,0,0,1.8,0V85.43a6,6,0,0,0,1.4.27,5.86,5.86,0,0,0,2.1-.26V92.1a.9.9,0,0,0,1.8,0V84.54A5.82,5.82,0,0,0,258.27,83Z" fill="#040505"/><path d="M258.5,76.7a13.2,13.2,0,0,1-1.3-6,4.07,4.07,0,0,0-3.3-4,3.88,3.88,0,0,0-4.5,3.8,11.75,11.75,0,0,1-1.5,6.1,6.5,6.5,0,0,0-.8,3.1,5.59,5.59,0,0,0,.19,1.3h11.85a6.46,6.46,0,0,0,.16-1.4A5.47,5.47,0,0,0,258.5,76.7Z" fill="#040505"/><path d="M227.27,83H217.2a6.41,6.41,0,0,0,1.5,1.53V92.1a.9.9,0,0,0,1.8,0V85.43a6,6,0,0,0,1.4.27,5.86,5.86,0,0,0,2.1-.26V92.1a.9.9,0,0,0,1.8,0V84.54A5.82,5.82,0,0,0,227.27,83Z" fill="#040505"/><path d="M227.5,76.7a13.2,13.2,0,0,1-1.3-6,4.07,4.07,0,0,0-3.3-4,3.88,3.88,0,0,0-4.5,3.8,11.75,11.75,0,0,1-1.5,6.1,6.5,6.5,0,0,0-.8,3.1,5.59,5.59,0,0,0,.19,1.3h11.85a6.46,6.46,0,0,0,.16-1.4A5.47,5.47,0,0,0,227.5,76.7Z" fill="#040505"/><path d="M192,38.9a.75.75,0,0,0,1,1l2.6-1.3a.64.64,0,0,1,.6,0l2.6,1.3a.75.75,0,0,0,1-1l-1.3-2.6a.64.64,0,0,1,0-.6l1.3-2.6a.75.75,0,0,0-1-1l-2.6,1.3a.64.64,0,0,1-.6,0L193,32a.75.75,0,0,0-1,1l1.3,2.6a.85.85,0,0,1,0,.7Z" fill="#fff"/><path d="M220.8,14.3a.94.94,0,0,0,1-1v-1a1,1,0,0,0-2,0v1A.94.94,0,0,0,220.8,14.3Z" fill="#72767d"/><path d="M220.8,22.3a.94.94,0,0,0,1-1v-1a1,1,0,0,0-2,0v1A.94.94,0,0,0,220.8,22.3Z" fill="#72767d"/><path d="M224.3,17.8h1a1,1,0,0,0,0-2h-1a.94.94,0,0,0-1,1A1,1,0,0,0,224.3,17.8Z" fill="#72767d"/><path d="M216.3,17.8h1a1,1,0,0,0,0-2h-1a.94.94,0,0,0-1,1A1,1,0,0,0,216.3,17.8Z" fill="#72767d"/><path d="M74,86V80H64V0H36V74h0V92H84V86ZM44,70a1,1,0,1,1,1-1A1,1,0,0,1,44,70Zm0-6a1,1,0,1,1,1-1A1,1,0,0,1,44,64Zm0-6a1,1,0,1,1,1-1A1,1,0,0,1,44,58Zm0-6a1,1,0,1,1,1-1A1,1,0,0,1,44,52Zm0-6a1,1,0,1,1,1-1A1,1,0,0,1,44,46Zm0-6a1,1,0,1,1,1-1A1,1,0,0,1,44,40Zm0-6a1,1,0,1,1,1-1A1,1,0,0,1,44,34Zm0-6a1,1,0,1,1,1-1A1,1,0,0,1,44,28Zm0-6a1,1,0,1,1,1-1A1,1,0,0,1,44,22Zm0-6a1,1,0,1,1,1-1A1,1,0,0,1,44,16Zm4,54a1,1,0,1,1,1-1A1,1,0,0,1,48,70Zm0-6a1,1,0,1,1,1-1A1,1,0,0,1,48,64Zm0-6a1,1,0,1,1,1-1A1,1,0,0,1,48,58Zm0-6a1,1,0,1,1,1-1A1,1,0,0,1,48,52Zm0-6a1,1,0,1,1,1-1A1,1,0,0,1,48,46Zm0-6a1,1,0,1,1,1-1A1,1,0,0,1,48,40Zm0-6a1,1,0,1,1,1-1A1,1,0,0,1,48,34Zm0-6a1,1,0,1,1,1-1A1,1,0,0,1,48,28Zm0-6a1,1,0,1,1,1-1A1,1,0,0,1,48,22Zm0-6a1,1,0,1,1,1-1A1,1,0,0,1,48,16Zm4,54a1,1,0,1,1,1-1A1,1,0,0,1,52,70Zm0-6a1,1,0,1,1,1-1A1,1,0,0,1,52,64Zm0-6a1,1,0,1,1,1-1A1,1,0,0,1,52,58Zm0-6a1,1,0,1,1,1-1A1,1,0,0,1,52,52Zm0-6a1,1,0,1,1,1-1A1,1,0,0,1,52,46Zm0-6a1,1,0,1,1,1-1A1,1,0,0,1,52,40Zm0-6a1,1,0,1,1,1-1A1,1,0,0,1,52,34Zm0-6a1,1,0,1,1,1-1A1,1,0,0,1,52,28Zm0-6a1,1,0,1,1,1-1A1,1,0,0,1,52,22Zm0-6a1,1,0,1,1,1-1A1,1,0,0,1,52,16Zm4,54a1,1,0,1,1,1-1A1,1,0,0,1,56,70Zm0-6a1,1,0,1,1,1-1A1,1,0,0,1,56,64Zm0-6a1,1,0,1,1,1-1A1,1,0,0,1,56,58Zm0-6a1,1,0,1,1,1-1A1,1,0,0,1,56,52Zm0-6a1,1,0,1,1,1-1A1,1,0,0,1,56,46Zm0-6a1,1,0,1,1,1-1A1,1,0,0,1,56,40Zm0-6a1,1,0,1,1,1-1A1,1,0,0,1,56,34Zm0-6a1,1,0,1,1,1-1A1,1,0,0,1,56,28Zm0-6a1,1,0,1,1,1-1A1,1,0,0,1,56,22Zm0-6a1,1,0,1,1,1-1A1,1,0,0,1,56,16Zm1-6H43V8H57Z" fill="#72767d"/><polygon points="97 74 148 74 148 64 140.8 64 135.1 64 83.6 64 74 64 74 62.3 74 50.9 74 45.2 74 10 109.3 10 115 10 126.5 10 137.8 10 170 10 170 29.3 170 35 170 40 170 64 170 74 180 74 180 16 180 0 64 0 64 74 97 74" fill="#b9bbbe"/><path d="M115,10,88.5,36.5c-5,4.9-9.9,9.8-14.5,14.4V62.3C91.7,44.7,112.4,24.1,126.5,10Z" fill="#202225"/><path d="M74,10V45.2C86.3,32.9,99.5,19.8,109.3,10Z" fill="#202225"/><path d="M165,40h5V35l-1.5,1.5Z" fill="#202225"/><path d="M148,40h11.28L170,29.3V10H137.8l-1.2,1.2c-7.3,7.3-17,17-26.8,26.7-9.5,9.5-19,18.9-26.2,26.1h51.5L148,51.21Z" fill="#202225"/><path d="M140.8,64H148V56.87Z" fill="#202225"/><path d="M115,10h-5.7c-9.8,9.8-23,22.9-35.3,35.2v5.7c4.6-4.6,9.5-9.5,14.5-14.4Z" fill="#2e3238"/><path d="M136.6,11.2l1.2-1.2H126.5C112.4,24.1,91.7,44.7,74,62.3V64h9.6c7.2-7.2,16.7-16.6,26.2-26.1C119.6,28.2,129.3,18.5,136.6,11.2Z" fill="#2e3238"/><path d="M148,51.21,135.1,64h5.7l7.2-7.13Z" fill="#2e3238"/><path d="M165,40l3.53-3.5L170,35V29.3L159.28,40Z" fill="#2e3238"/><polygon points="26 51 36 61 36 21 26 31 26 51" fill="#202225"/><polygon points="188 74 180 74 170 74 148 74 97 74 64 74 64 80 74 80 188 80 188 74" fill="#4f545c"/><polygon points="188 80 74 80 74 86 84 86 198 86 198 80 188 80" fill="#2e3238"/><polygon points="206 92 206 86 198 86 84 86 84 92 97 92 208 92 208 92 206 92" fill="#202225"/><path d="M170,64V40H148V74h22Zm-16-5.5a2,2,0,1,1,2-2A2,2,0,0,1,154,58.5Z" fill="#f6f6f7"/><circle cx="154" cy="56.5" r="2" fill="#2e3238"/><polygon points="266 92 268 92 270 92 270 83 266 83 266 92" fill="#72767d"/><path d="M265,77a3,3,0,0,0,.78,2h4.44A3,3,0,1,0,265,77Z" fill="#72767d"/><polygon points="270.22 79 265.78 79 264 79 264 81 270 81 272 81 272 79 270.22 79" fill="#b9bbbe"/><polygon points="206 92 208 92 210 92 210 83 206 83 206 86 206 92" fill="#72767d"/><path d="M211,77a3,3,0,1,0-5.22,2h4.44A3,3,0,0,0,211,77Z" fill="#72767d"/><polygon points="210.22 79 205.78 79 204 79 204 81 206 81 212 81 212 79 210.22 79" fill="#b9bbbe"/><polygon points="259.14 81 247.29 81 243.14 81 231.29 81 228.14 81 216.29 81 212 81 206 81 206 83 210 83 217.2 83 227.27 83 232.2 83 242.27 83 248.2 83 258.27 83 266 83 270 83 270 81 264 81 259.14 81" fill="#4f545c"/><circle cx="44" cy="15" r="1" fill="#4f545c"/><circle cx="48" cy="15" r="1" fill="#4f545c"/><circle cx="52" cy="15" r="1" fill="#4f545c"/><circle cx="56" cy="15" r="1" fill="#4f545c"/><circle cx="44" cy="21" r="1" fill="#4f545c"/><circle cx="48" cy="21" r="1" fill="#4f545c"/><circle cx="52" cy="21" r="1" fill="#4f545c"/><circle cx="56" cy="21" r="1" fill="#4f545c"/><circle cx="44" cy="27" r="1" fill="#4f545c"/><circle cx="48" cy="27" r="1" fill="#4f545c"/><circle cx="52" cy="27" r="1" fill="#4f545c"/><circle cx="56" cy="27" r="1" fill="#4f545c"/><circle cx="44" cy="33" r="1" fill="#4f545c"/><circle cx="48" cy="33" r="1" fill="#4f545c"/><circle cx="52" cy="33" r="1" fill="#4f545c"/><circle cx="56" cy="33" r="1" fill="#4f545c"/><circle cx="44" cy="39" r="1" fill="#4f545c"/><circle cx="48" cy="39" r="1" fill="#4f545c"/><circle cx="52" cy="39" r="1" fill="#4f545c"/><circle cx="56" cy="39" r="1" fill="#4f545c"/><circle cx="44" cy="45" r="1" fill="#4f545c"/><circle cx="48" cy="45" r="1" fill="#4f545c"/><circle cx="52" cy="45" r="1" fill="#4f545c"/><circle cx="56" cy="45" r="1" fill="#4f545c"/><circle cx="44" cy="51" r="1" fill="#4f545c"/><circle cx="48" cy="51" r="1" fill="#4f545c"/><circle cx="52" cy="51" r="1" fill="#4f545c"/><circle cx="56" cy="51" r="1" fill="#4f545c"/><circle cx="44" cy="57" r="1" fill="#4f545c"/><circle cx="48" cy="57" r="1" fill="#4f545c"/><circle cx="52" cy="57" r="1" fill="#4f545c"/><circle cx="56" cy="57" r="1" fill="#4f545c"/><circle cx="44" cy="63" r="1" fill="#4f545c"/><circle cx="48" cy="63" r="1" fill="#4f545c"/><circle cx="52" cy="63" r="1" fill="#4f545c"/><circle cx="56" cy="63" r="1" fill="#4f545c"/><circle cx="44" cy="69" r="1" fill="#4f545c"/><circle cx="48" cy="69" r="1" fill="#4f545c"/><circle cx="52" cy="69" r="1" fill="#4f545c"/><circle cx="56" cy="69" r="1" fill="#4f545c"/><rect x="43" y="8" width="14" height="2" fill="#4f545c"/></svg>