<svg fill="none" height="40" viewBox="0 0 40 40" width="40" xmlns="http://www.w3.org/2000/svg" xmlns:xlink="http://www.w3.org/1999/xlink"><clipPath id="a"><path d="m0 0h40v40h-40z"/></clipPath><g clip-path="url(#a)"><path d="m30.6875 5.43752h-28.425c-1.24954 0-2.2625 1.01296-2.2625 2.2625v30.03748c0 1.2496 1.01296 2.2625 2.2625 2.2625h28.425c1.2495 0 2.2625-1.0129 2.2625-2.2625v-30.03748c0-1.24954-1.013-2.2625-2.2625-2.2625z" fill="#aec7ff"/><path d="m29.2751 8.82501h-25.6125v27.77499h25.6125z" fill="#fff"/><g fill="#d9e7ff"><path d="m22.575 13.6375h-5.275c-1.2357 0-2.2375 1.0017-2.2375 2.2375v.0125c0 1.2357 1.0018 2.2375 2.2375 2.2375h5.275c1.2357 0 2.2375-1.0018 2.2375-2.2375v-.0125c0-1.2358-1.0018-2.2375-2.2375-2.2375z"/><path d="m22.575 20.475h-5.275c-1.2357 0-2.2375 1.0017-2.2375 2.2375v.0125c0 1.2357 1.0018 2.2375 2.2375 2.2375h5.275c1.2357 0 2.2375-1.0018 2.2375-2.2375v-.0125c0-1.2358-1.0018-2.2375-2.2375-2.2375z"/><path d="m22.575 27.3125h-5.275c-1.2357 0-2.2375 1.0018-2.2375 2.2375v.0125c0 1.2358 1.0018 2.2375 2.2375 2.2375h5.275c1.2357 0 2.2375-1.0017 2.2375-2.2375v-.0125c0-1.2357-1.0018-2.2375-2.2375-2.2375z"/><path d="m24.8124 8.82502v1.68748h-16.98745v-1.68748l4.73755-4.7375.2249-.225h1.9001c0 .43429.1725.8508.4796 1.15789s.7236.47961 1.1579.47961c.4342 0 .8507-.17252 1.1578-.47961s.4796-.7236.4796-1.15789h1.9001l.2124.2125z"/><path d="m16.3249 0c-.9945 0-1.9484.395088-2.6516 1.09835-.7033.70326-1.0984 1.65709-1.0984 2.65165-.0123.1038-.0123.2087 0 .3125 0 .99456.3951 1.94839 1.0984 2.65165.7032.70326 1.6571 1.09835 2.6516 1.09835.9946 0 1.9484-.39509 2.6517-1.09835.7032-.70326 1.0983-1.65709 1.0983-2.65165.0121-.09964.0121-.20036 0-.3.0017-.49351-.0941-.98249-.2818-1.4389-.1878-.45642-.4637-.87129-.8121-1.22083-.3484-.34955-.7623-.626891-1.2181-.816127-.4558-.1892365-.9445-.28664574-1.438-.286643zm0 5.425c-.4225.00356-.8298-.15759-1.1355-.44929-.3057-.29169-.4857-.69099-.502-1.11321-.0061-.02885-.0061-.05865 0-.0875 0-.43761.1739-.85729.4833-1.16673.3094-.30943.7291-.48327 1.1667-.48327s.8573.17384 1.1667.48327c.3095.30944.4833.72912.4833 1.16673.0061.02885.0061.05865 0 .0875-.0163.42662-.1998.82969-.5109 1.12207s-.7248.45059-1.1516.44043z"/><path d="m12.1 13.6375h-4.48745v4.4875h4.48745z"/><path d="m12.1 20.475h-4.48745v4.4875h4.48745z"/><path d="m12.1 27.3125h-4.48745v4.4875h4.48745z"/></g><circle cx="28.5" cy="25.5" fill="#3e70dd" r="11.5"/><rect fill="#fff" height="10" rx="1.5" width="3" x="27" y="17"/><rect fill="#fff" height="8.77022" rx="1.5" transform="matrix(-.5 .8660254 -.8660254 -.5 77.365402 10.903264)" width="3" x="35.5352" y="27.7851"/></g></svg>