<svg width="357" height="250" fill="none" xmlns="http://www.w3.org/2000/svg"><path d="M0 271.832h357c-62.803-85.661-115.615-39.863-115.615-39.863s-12.28-80.739-50.426-51.242c-30.42-117.267-76.21-94.556-76.21-94.556C108.756 10.623 21.943 4.71 0 23.08v248.751z" fill="#6874F6"/><path d="M119.245 98.05s27.077-2.157 48.807-34.957l7.75 8.772s-31.393 50.973-62.026 49.952l5.469-23.766zM49.183 99.334s-27.935 2.943-30.191 20.471c-2.257 17.528 18.28 3.008 18.28 3.008l9.581-9.72 2.33-13.76z" fill="#EB459F"/><path d="M57.808 36.032c-20.929 4.235-15.631 19.384-9.647 29.145-1.848-1.831-3.793-3.548-5.796-5.191a116.114 116.114 0 0 0-3.14-2.477l-1.61-1.202c-.556-.4-1.071-.777-1.709-1.202l-.204-.139a5.222 5.222 0 0 0-1.488-.67 5.401 5.401 0 0 0-6.663 3.744 5.401 5.401 0 0 0 3.745 6.663c1.038.294 2.256.711 3.384 1.104 1.145.409 2.297.834 3.434 1.291 2.272.908 4.52 1.897 6.687 3.009.777.4 1.537.817 2.297 1.25-7.554-1.863-18.059-2.484-16.857 8.961 1.848 17.675 18.002 18.517 27.248 15.656 0 0 23.889-16.163 26.415-29.12-.025-.017 5.526-37.215-26.096-30.822z" fill="#FF63AF"/><path d="M72.586 80.815c5.497-1.769 8.123-8.89 5.866-15.904-2.258-7.014-8.545-11.266-14.042-9.496-5.497 1.769-8.123 8.89-5.865 15.904 2.258 7.014 8.544 11.266 14.041 9.496z" fill="#fff" stroke="#FFAB18" stroke-width="2.636" stroke-miterlimit="10"/><path d="M64.15 63.24a8.874 8.874 0 0 1 1.742-.457 11.209 11.209 0 0 1 1.741-.148c1.17 0 2.355.238 3.426.744 1.054.516 2.027 1.227 2.714 2.142l.278.327.229.352.45.711c.261.49.474.998.71 1.488a.603.603 0 0 1-.285.81.605.605 0 0 1-.785-.238l-.05-.081c-.253-.425-.482-.867-.751-1.268l-.442-.572-.22-.286-.254-.245c-.638-.712-1.447-1.178-2.281-1.505a6.148 6.148 0 0 0-2.673-.335c-.458.05-.916.115-1.358.237a7.089 7.089 0 0 0-1.242.442l-.041.024a1.164 1.164 0 1 1-1.006-2.1c.033-.017.066-.025.098-.041z" fill="#000"/><path d="M123.469 67.21c4.846-1.09 7.463-7.802 5.846-14.99-1.616-7.19-6.855-12.134-11.7-11.044-4.846 1.09-7.463 7.8-5.846 14.99 1.616 7.188 6.855 12.133 11.7 11.043z" fill="#fff" stroke="#FFAB18" stroke-width="2.636" stroke-miterlimit="10"/><path d="M122.565 50.666c-.483.073-1.137.294-1.66.564a5.14 5.14 0 0 0-1.431 1.063 4.15 4.15 0 0 0-.932 1.52c-.229.572-.294 1.21-.335 1.864v.057a.617.617 0 0 1-.646.573.608.608 0 0 1-.572-.564c-.057-.76-.082-1.554.114-2.339a5.73 5.73 0 0 1 .99-2.223 7.092 7.092 0 0 1 1.749-1.709c.695-.458 1.349-.817 2.232-1.087a1.163 1.163 0 0 1 1.455.776 1.163 1.163 0 0 1-.776 1.456c-.049.016-.107.024-.156.032l-.032.017z" fill="#000"/><path d="m92.39 128.92 14.478 20.807c21.983-6.933 37.598-26.112 37.598-26.112l-25.433 47.408 12.287 6.59 31.859-59.386c7.064-13.162-7.734-27.248-20.536-19.547l-50.254 30.24z" fill="#242145"/><path d="M169.98 156.545s-6.286-5.167-30.976 8.053l6.941-14.209-5.747 2.87a14.342 14.342 0 0 1-11.887.417l-12.819 23.896s-2.984 8.085 6.18 8.584l48.308-29.611z" fill="#FF78B9"/><path d="M166.759 155.613c-3.245-.303-13.031 6.965-24.133 12.386-8.593 4.194-18.166 7.03-23.864 7.447a4.025 4.025 0 0 0-3.262 2.118s-2.984 8.085 6.181 8.584l48.308-29.603c-.009 0-.875-.711-3.23-.932z" fill="#EB459F"/><path d="M170.316 156.856c1.456 2.379-8.208 10.938-21.583 19.114-13.374 8.175-28.597 11.731-30.281 9.508-5.935-7.873 11.887-8.2 25.679-15.648 13.865-7.489 24.73-15.353 26.185-12.974z" fill="#000"/><path d="M43.353 121.014s-5.772-16.579 14.34-30.404c5.33-3.662 10.293-7.856 14.535-12.745a93.673 93.673 0 0 0 14.92-23.61c9.917-22.638 32.718-20.823 31.729 6.613-.008 0-39.332 64.12-75.524 60.146z" fill="url(#a)"/><path d="M115.787 65.455c1.864-4.741 1.415-11.07-.539-16.767-.474-1.39-3.164-6.802-9.099-6.148-3.655.4-7.007 2.387-9.426 5.159-2.42 2.77-4.072 6.115-5.764 9.385-2.052 3.965-5.764 14.16-8.224 18.574-10.228 18.272-12.484 21.493-25.14 29.178 0-.017 50.246-19.188 58.192-39.38z" fill="#000"/><path d="M115.068 65.17c.768-2.036 1.087-4.26 1.087-6.483 0-2.224-.302-4.464-.825-6.639a32.966 32.966 0 0 0-.957-3.196 9.892 9.892 0 0 0-1.635-2.682c-1.349-1.627-3.246-2.681-5.29-2.722-1.005-.041-2.084.155-3.106.433-1.022.303-2.019.72-2.951 1.26-1.88 1.078-3.467 2.566-4.783 4.34-1.333 1.766-2.428 3.728-3.483 5.756-.515 1.005-1.07 2.06-1.545 3.05a83.217 83.217 0 0 0-1.373 3.114c-1.782 4.226-3.41 8.527-5.404 12.77a44.857 44.857 0 0 1-1.652 3.114l-1.7 3.017c-1.145 2.003-2.29 4.014-3.49 5.993-1.195 1.986-2.454 3.957-3.827 5.861a50.168 50.168 0 0 1-2.166 2.796l-1.194 1.317c-.4.433-.842.842-1.259 1.259-3.466 3.294-7.538 5.665-11.658 7.75l-.458-.932c5.527-2.191 10.972-4.627 16.326-7.21 5.355-2.6 10.628-5.372 15.738-8.413 5.101-3.041 10.064-6.336 14.609-10.113 2.265-1.897 4.423-3.916 6.344-6.132 1.913-2.223 3.597-4.651 4.652-7.308zm1.447.564c-1.169 2.894-2.968 5.42-4.954 7.71-2.011 2.28-4.235 4.332-6.557 6.253-4.66 3.818-9.704 7.105-14.863 10.138-5.175 3.025-10.489 5.771-15.892 8.347-5.404 2.559-10.874 4.962-16.466 7.129l-3.63 1.406 3.173-2.338c3.72-2.723 7.48-5.314 10.62-8.478 3.163-3.131 5.673-6.925 8.036-10.832a234.968 234.968 0 0 0 3.458-5.944c1.112-2.003 2.322-3.998 3.27-5.993 1.946-4.095 3.638-8.38 5.47-12.63.465-1.063.931-2.126 1.446-3.189.54-1.087 1.063-2.06 1.61-3.098 1.088-2.052 2.265-4.104 3.737-6.01 2.878-3.833 7.448-6.76 12.557-6.67a8.666 8.666 0 0 1 3.704 1.022c1.136.613 2.101 1.471 2.894 2.428.793.973 1.43 2.02 1.896 3.213.393 1.169.712 2.264.981 3.425.524 2.306.818 4.668.793 7.047-.032 2.396-.392 4.807-1.283 7.064z" fill="#FFAB18"/><path d="M48.873 115.562s.278-2.796 2.722-7.031c2.837-4.921 7.546-8.404 12.966-10.112 12.41-3.9 17.962-13.31 32.301-26.341 14.34-13.032 31.884-17.258 38.375-14.348 3.491 1.562 5.003 10.015-5.551 21.117-8.437 8.87-8.682 23.161-11.372 35.571-2.485 11.511-11.02 23.185-21.247 23.455H51.62l-2.747-22.311z" fill="url(#b)"/><path d="M95.676 85.869c-21.337 23.381-38.023 28.662-46.738 30.24l.212 1.701 54.415 11.323 10.735-4.154c1.847-3.294 3.229-6.932 4.006-10.554 2.681-12.41 2.935-26.7 11.371-35.57 4.53-4.767 6.835-9.043 7.718-12.5-6.238-2.83-20.962-3.23-41.719 19.514z" fill="#FFC619"/><path d="m55.96 115.349-22.932 8.502a6.25 6.25 0 0 1-8.036-3.687 6.251 6.251 0 0 1 3.687-8.036l22.932-8.503 4.35 11.724z" fill="#EB459F"/><path d="m22.866 154.346 34.337-15.264-6.483-32.856c-18.779 10.055-27.854 48.12-27.854 48.12z" fill="#242145"/><path d="M101.39 118.154c-7.292 1.831-14.944-.262-20.724-5.069-7.677-6.385-19.44-4.316-19.44-4.316l4.496 29.104h31.344c10.235-.27 18.762-11.944 21.247-23.455.785-3.614 1.357-7.383 1.987-11.135-5.747 9.254-12.696 13.318-18.91 14.871z" fill="#EB459F"/><path d="m38.228 135.862-25.213 28.442 22.932 107.53h65.828L38.228 135.862z" fill="#8CD9FF"/><path d="M117.038 135.862h-78.81l28.9 135.922h78.818l-28.908-135.922z" fill="url(#c)"/><path d="M113.049 173.394c2.15 12.819-6.23 23.202-18.705 23.202-12.476 0-24.338-10.383-26.48-23.202-2.15-12.819 6.23-23.202 18.705-23.202 12.475 0 24.33 10.391 26.48 23.202z" fill="url(#d)"/><path d="M71.878 183.605c3.36 5.207 8.388 9.32 14.045 11.429l2.878-12.337-5.903-4.864-11.02 5.772z" fill="#606DFF"/><path d="M100.404 186.156c5.525-5.144 5.053-14.631-1.054-21.191-6.107-6.56-15.537-7.707-21.062-2.563s-5.054 14.632 1.053 21.191c6.108 6.56 15.537 7.708 21.063 2.563z" stroke="#000" stroke-width="2.843" stroke-miterlimit="10" stroke-linecap="round"/><path d="M98.31 184.129c4.623-4.304 4.228-12.243-.882-17.732-5.11-5.489-13.001-6.449-17.624-2.145-4.623 4.304-4.228 12.243.882 17.732 5.11 5.489 13 6.449 17.624 2.145z" fill="#fff"/><path d="M96.41 177.16c2.498-2.326 2.287-6.615-.473-9.579-2.76-2.964-7.022-3.482-9.52-1.156-2.499 2.326-2.287 6.615.473 9.579 2.76 2.964 7.022 3.482 9.52 1.156z" fill="#000"/><path d="M118.698 214.803c1.561 9.319-4.53 16.873-13.604 16.873-9.075 0-17.7-7.554-19.261-16.873-1.562-9.32 4.529-16.874 13.603-16.874 9.075 0 17.7 7.554 19.262 16.874z" fill="url(#e)"/><path d="M88.752 222.225c2.444 3.793 6.099 6.777 10.219 8.314l2.093-8.968-4.3-3.54-8.012 4.194z" fill="#606DFF"/><path d="M109.504 224.081c4.019-3.741 3.675-10.642-.768-15.414-4.442-4.772-11.302-5.608-15.32-1.866-4.018 3.741-3.674 10.642.768 15.414 4.443 4.772 11.302 5.607 15.32 1.866z" stroke="#000" stroke-width="2.843" stroke-miterlimit="10" stroke-linecap="round"/><path d="M107.201 221.776c2.978-2.772 2.725-7.883-.564-11.416-3.288-3.532-8.368-4.149-11.346-1.377-2.977 2.772-2.725 7.883.564 11.416 3.29 3.532 8.369 4.149 11.346 1.377z" fill="#fff"/><path d="M105.98 217.295c1.606-1.495 1.466-4.256-.312-6.166-1.779-1.91-4.522-2.246-6.128-.751-1.606 1.495-1.467 4.256.312 6.166 1.778 1.91 4.521 2.246 6.128.751zM90.977 260.6c-1.513 0-2.895-.155-4.105-.45-4.578-1.128-7.7-4.586-8.73-5.73-5.944-6.59-7.383-15.362-3.27-19.965 1.56-1.749 3.735-2.673 6.286-2.673 3.998 0 8.478 2.322 11.985 6.205.58.646 1.136 1.333 1.643 2.044.573.793 1.684 1.267 2.984 1.267.548 0 1.112-.082 1.668-.245a45.453 45.453 0 0 1 3.148-.818c2.812-.629 5.461-.948 7.856-.948 4.218 0 7.341 1.03 8.797 2.894.866 1.112 1.128 2.477.76 3.949-1.3 5.183-10.603 11.094-21.182 13.464-1.946.434-4.873 1.006-7.84 1.006z" fill="#000"/><path d="M81.158 232.951c3.54 0 7.71 2.036 11.127 5.821a22.765 22.765 0 0 1 1.561 1.937c.81 1.129 2.281 1.758 3.932 1.758.646 0 1.325-.098 1.995-.294a42.199 42.199 0 0 1 3.074-.801c2.796-.63 5.371-.924 7.603-.924 5.788 0 9.279 1.986 8.429 5.396-1.185 4.717-10.276 10.366-20.308 12.614-1.806.401-4.676.989-7.586.989-1.3 0-2.608-.114-3.826-.417-3.949-.973-6.72-3.801-8.143-5.379-5.47-6.058-6.933-14.307-3.27-18.411 1.365-1.545 3.278-2.289 5.412-2.289zm0-2.322c-2.894 0-5.363 1.055-7.153 3.058-4.505 5.044-3.066 14.495 3.278 21.517 1.087 1.202 4.39 4.865 9.312 6.075 1.308.318 2.78.482 4.382.482 3.09 0 6.098-.597 8.093-1.038 9.484-2.126 20.438-7.865 22.057-14.315.458-1.832.123-3.54-.973-4.946-1.7-2.183-5.06-3.336-9.712-3.336-2.477 0-5.208.327-8.11.981a46.828 46.828 0 0 0-3.23.842c-.449.131-.89.196-1.332.196-.907 0-1.692-.302-2.044-.784a24.008 24.008 0 0 0-1.725-2.142c-3.72-4.129-8.526-6.59-12.843-6.59z" fill="#5865F2"/><path d="M117.996 242.533c-2.224-2.199-7.955-2.772-15.157-1.161-1.038.229-2.06.499-3.074.801-2.387.711-4.79.114-5.927-1.455a21.727 21.727 0 0 0-1.562-1.938c-4.758-5.273-10.987-7.153-14.936-4.848.9 2.396 2.935 4.325 5.486 4.995-.074 3.246 1.725 6.492 4.831 8.135 2.796 1.48 5.928 1.259 8.266-.278.8 1.275 1.896 2.354 3.237 3.066 3.875 2.076 8.282.368 9.851-3.818.131-.352.229-.703.319-1.063.025.016.049.033.066.041 3.27 1.921 6.891.785 8.6-2.477z" fill="#fff"/><path d="M88.008 106.765s7.276-1.218 7.807-9.295c0 0 4.807-.008 5.739-5.526" stroke="#FFAB18" stroke-width="2.843" stroke-miterlimit="10" stroke-linecap="round"/><path d="M64.946 104.689c-5.265-1.676-10.007-.867-14.225 1.529l10.17 82.456 2.403 19.482 12.975 2.951c.188-5.51.335-10.734.45-15.68.016-.564.024-1.128.04-1.684 1.742-78.639-5.208-86.945-11.813-89.054z" fill="#242145"/><path d="m60.89 188.674 3.663 31.001 34.329 15.124c1.021.45 2.109-.507 1.774-1.578-1.652-5.24-7.113-16.955-23.807-22.964l-.09-14.838a16.567 16.567 0 0 1-14.25-5.036l-1.618-1.709z" fill="#FF78B9"/><path d="M100.655 233.23a34.832 34.832 0 0 0-.163-.498c-10.93-4.668-30.183-12.819-36.209-15.37l.278 2.322 34.32 15.124c1.022.442 2.11-.515 1.774-1.578z" fill="#EB459F"/><path d="M105.863 96.694s7.799-.147 6.736-9.72c0 0 4.619-.573 5.093-4.857 0 0 4.513-.278 5.968-4.153M103.998 111.843s4.733-2.15 4.717-6.418c0 0 4.243-.785 5.052-5.036" stroke="#FFAB18" stroke-width="2.843" stroke-miterlimit="10" stroke-linecap="round"/><path d="M111.863 112.628c-3.712-1.578-3.327 4.145-11.233 5.6-5.984.58-10.636-4.848-13.506-3.826-5.796 2.076-.04 14.846-.04 14.846s7.308-9.491 13.096-9.851c5.788-.36 8.274 6.467 8.274 6.467s6.229-12.034 3.409-13.236z" fill="#fff"/><path d="m31.59 112.316 11.037-5.346" stroke="#000" stroke-width="2.843" stroke-miterlimit="10" stroke-linecap="round"/><path d="m171.895 41.452 7.545 6.908a8.796 8.796 0 0 0 8.446 1.946l20.7-6.148a6.202 6.202 0 0 1 5.575 1.038c1.226.94.973 2.854-.45 3.45l-19.988 8.388-11.192 5.462-6.737 9.368-7.75-8.772 3.278-5.346a7.324 7.324 0 0 0-.441-8.298l-3.197-4.145a2.889 2.889 0 0 1-.498-2.502c.572-2.052 3.131-2.796 4.709-1.349z" fill="#FFC619"/><path d="M196.355 60.313c1.595-2.722-.212-6.295-3.155-6.238-3.859.066-8.429.164-11.086.286-1.3.058-2.469.9-3.041 2.183l-2.191 4.906c-.744 1.667-.319 3.687 1.022 4.823 1.275 1.08 2.943 2.46 4.553 3.777 2.584 2.117 6.099 1.774 8.315-.572.425-.45.956-.801 1.537-.883 1.005-.147 2.305-1.35 3.237-3.131.973-1.848 1.251-3.753.793-4.758a.47.47 0 0 1 .016-.393z" fill="#FFAB18"/><path d="m186.013 57.68-6.467-1.929a4.044 4.044 0 0 0-.474.793l-.588 1.316 6.867 2.052a1.16 1.16 0 0 0 1.447-.785 1.173 1.173 0 0 0-.785-1.447zM183.717 62.054l-6.271-1.872-.564 1.267a4.595 4.595 0 0 0-.278.907l6.442 1.921a1.16 1.16 0 0 0 1.447-.785 1.156 1.156 0 0 0-.776-1.438z" fill="#E89300"/><path d="M70.618 104.46c-.065-.376-1.267-4.218-4.954-4.325-.72-.024-1.406.033-2.036.221-1.218-.875-3.05-1.283-5.003-.997-2.535.376-4.521 1.823-5.102 3.515a4.32 4.32 0 0 0-3.188.638c-1.84 1.185-2.502 3.417-1.586 5.093.589 1.635 2.052 3.474 2.575 5.134 1.562 4.922 1.333 7.497 3.614 8.502 1.136.507 3.22.548 5.436.336 2.216-.213 4.562-.679 6.23-1.178 3.327-1.005 4.44-2.714 4.758-8.028.22-3.924-.376-6.9-.744-8.911z" fill="#FFAB18"/><path d="M58.846 122.683a25.915 25.915 0 0 0 1.528-.107c.27-.024.54-.057.81-.09.302-6.246-1.545-10.113-1.635-10.301a1.163 1.163 0 0 0-1.554-.531 1.162 1.162 0 0 0-.531 1.553c.008.049 1.725 3.63 1.382 9.476zM66.595 121.4c.703-.213 1.291-.458 1.815-.761.343-5.093-.785-8.665-.842-8.862a1.158 1.158 0 0 0-1.464-.744 1.163 1.163 0 0 0-.752 1.464c.016.049 1.202 3.85.638 9.074.212-.057.409-.114.605-.171z" fill="#E89300"/><path d="m144.932 122.233 3.459-6.819" stroke="#000" stroke-width="2.843" stroke-miterlimit="10" stroke-linecap="round"/><g opacity=".5"><g opacity=".5" fill="#fff"><path opacity=".5" d="M32.357 236.025a1.646 1.646 0 0 1-.474-1.038l-.36-6.728c-.025-.45.163-.859.515-1.12l4.774-3.524c.237-.171.524-.27.834-.27.474 0 .94.205 1.284.565l5.257 5.477c.286.294.45.662.466 1.038l.351 6.712c.025.45-.163.859-.515 1.12l-5.854 4.317-6.278-6.549z"/><path opacity=".5" d="M37.663 224.139c.246 0 .516.114.712.327l5.256 5.477a.901.901 0 0 1 .254.532l.351 6.712a.515.515 0 0 1-.196.441l-5.29 3.9-5.82-6.05c-.147-.155-.245-.352-.254-.531l-.36-6.729a.514.514 0 0 1 .197-.441l4.774-3.524a.617.617 0 0 1 .376-.114zm0-1.586c-.482 0-.932.147-1.308.417l-4.774 3.523a2.102 2.102 0 0 0-.842 1.799l.36 6.728c.032.564.278 1.112.695 1.545l5.82 6.05.965 1.006 1.12-.826 5.29-3.9a2.1 2.1 0 0 0 .842-1.798l-.352-6.712a2.475 2.475 0 0 0-.687-1.545l-5.256-5.478a2.65 2.65 0 0 0-1.873-.809z"/></g><g opacity=".5"><path opacity=".5" d="m37.81 223.869-5.501 4.063.384 7.3 6.058 6.295 5.502-4.063-.385-7.276-6.057-6.319zm3.491 11.968-2.755 2.028-3.024-3.156-.27-5.142 2.755-2.028 3.025 3.156.27 5.142z" fill="#FA6EF6"/><path opacity=".5" d="m37.81 223.869.196 3.662 3.025 3.156 2.837-.507-6.058-6.311z" fill="#FFADFB"/><path opacity=".5" d="m35.52 234.701-2.836.524 6.058 6.295-.197-3.663-3.024-3.156z" fill="#E655D4"/><path opacity=".5" d="m35.251 229.559.27 5.142 3.025 3.156 2.755-2.028-.27-5.142-3.025-3.156-2.755 2.028z" fill="#FFCFF9"/><path opacity=".5" d="M41.03 230.687v.024l-5.485 4.022-.025-.008-.073-1.398 4.75-3.499.834.859zM41.138 232.633l.074 1.422-3.687 2.739-.834-.883 4.447-3.278z" fill="#fff"/></g></g><g opacity=".5"><g opacity=".5" fill="#fff"><path opacity=".5" d="M25.76 189.172c-1.505 0-2.633-1.03-2.813-2.567-.098-.842.09-1.749.532-2.6-.597-.449-.981-1.152-1.08-1.994-.228-1.946 1.096-4.145 3.026-5.02l1.07-.482c-.057-.099-.114-.205-.18-.319-1.65-3.025-1.896-5.044-.743-5.993a1.563 1.563 0 0 1 1.005-.359c1.08 0 2.208 1.07 3.45 3.27l.05-.458c.596-5.322 1.765-6.173 2.59-6.336a1.288 1.288 0 0 1 1.243.425c.418.466.924 1.553.475 5.551-.025.245-.057.474-.082.695l.76-.343a3.812 3.812 0 0 1 1.57-.36c1.504 0 2.632 1.03 2.812 2.567.098.842-.09 1.75-.531 2.6.597.449.98 1.152 1.079 1.995.229 1.937-1.096 4.144-3.025 5.019l-9.63 4.366c-.532.221-1.063.343-1.578.343z"/><path opacity=".5" d="M32.946 167.09c.678 0 1.046 1.439.629 5.085a22.087 22.087 0 0 1-.335 2.166l2.158-.981c.425-.196.85-.286 1.235-.286 1.054 0 1.864.687 2.003 1.84.114.94-.246 1.978-.892 2.82.769.204 1.325.826 1.44 1.766.187 1.586-.957 3.458-2.551 4.178l-9.63 4.365c-.426.196-.851.286-1.235.286-1.055 0-1.864-.686-2.003-1.839-.115-.94.245-1.979.89-2.821-.768-.204-1.324-.825-1.438-1.766-.188-1.586.956-3.458 2.55-4.177l1.914-.867a16.776 16.776 0 0 1-.638-1.071c-1.545-2.845-1.619-4.423-.94-4.97a.747.747 0 0 1 .482-.18c.687 0 1.676.891 2.902 3.147.417.761.687 1.374.859 1.873l.417-.189c-.041-.604-.008-1.479.139-2.738.433-3.834 1.201-5.478 1.945-5.633.025 0 .058-.008.099-.008zm0-1.635a2.01 2.01 0 0 0-.442.049c-1.496.31-2.444 1.97-3 5.322-.973-1.226-1.93-1.807-2.927-1.807-.556 0-1.087.188-1.52.548-1.44 1.177-1.333 3.384.302 6.565l-.27.122c-2.232 1.014-3.769 3.589-3.499 5.862.098.818.417 1.529.907 2.085-.326.825-.457 1.692-.36 2.501.23 1.938 1.726 3.287 3.63 3.287a4.61 4.61 0 0 0 1.905-.433l9.631-4.366c2.232-1.014 3.769-3.589 3.499-5.862-.098-.817-.417-1.529-.907-2.084.327-.826.457-1.693.36-2.502-.23-1.929-1.726-3.287-3.63-3.287-.45 0-.908.074-1.358.221.344-3.695-.18-4.856-.752-5.486a2.063 2.063 0 0 0-1.57-.735z"/></g><path opacity=".5" d="M33.576 172.184c-.434 3.834-1.08 4.39-1.823 4.546-.744.155-1.292-.156-.859-3.99.433-3.834 1.202-5.477 1.946-5.633.736-.155 1.169 1.243.736 5.077z" fill="#E9459D"/><path opacity=".5" d="M32.726 173.721c-.254 2.625-.532 2.976-.842 3.05-.311.073-.532-.172-.278-2.788.253-2.616.605-3.72.915-3.785.31-.066.458.899.205 3.523z" fill="#FF78B7"/><path opacity=".5" d="M27.035 175.797c1.545 2.845 2.273 2.722 2.943 2.166.67-.556 1.047-1.324-.507-4.169-1.545-2.845-2.706-3.524-3.384-2.968-.662.556-.597 2.126.948 4.971z" fill="#E9459D"/><path opacity=".5" d="M27.918 175.887c.858 1.578 1.226 1.537 1.553 1.259.327-.269.498-.67-.36-2.248-.858-1.578-1.463-1.978-1.799-1.709-.318.278-.245 1.12.605 2.698z" fill="#FF78B7"/><path opacity=".5" d="m36.085 179.108-9.63 4.366c-1.602.728-3.05.024-3.237-1.553-.189-1.586.956-3.459 2.55-4.178l9.63-4.366c1.603-.727 3.05-.024 3.238 1.554.188 1.578-.956 3.45-2.55 4.177z" fill="#E9459D"/><path opacity=".5" d="m36.633 183.703-9.63 4.365c-1.602.728-3.05.025-3.237-1.553-.188-1.586.956-3.458 2.55-4.178l9.63-4.365c1.603-.728 3.05-.025 3.238 1.553.188 1.578-.956 3.45-2.55 4.178z" fill="#E9459D"/><path opacity=".5" d="M33.984 178.641c.24-.581.234-1.133-.012-1.235-.247-.102-.64.286-.88.866-.24.58-.234 1.133.012 1.235.246.101.64-.286.88-.866zM29.343 181.245c.337-.211.402-.714.146-1.123-.256-.41-.737-.571-1.074-.361-.337.211-.402.714-.146 1.123.256.41.737.571 1.074.361z" fill="#1C1927"/><path opacity=".5" d="M32.48 180.743c-.948.261-2.011.973-2.011.973.237.883.548 1.414.981 1.3.458-.123.957-.736 1.03-2.273z" fill="#850035"/><path opacity=".5" d="M31.45 183.024c.277-.073.572-.335.776-.866-.155-.385-.433-.597-.768-.499-.287.082-.556.36-.753.744.197.458.442.703.744.621z" fill="#B8004A"/></g><path d="m46.476 224.662-.081-.008a1.137 1.137 0 0 1-.973-.957l-.482-2.894a6.417 6.417 0 0 0-2.265-3.875l-.352-.278a1.164 1.164 0 0 1-.433-.867 1.06 1.06 0 0 1 .515-.972l.335-.197c1.063-.621 1.75-1.765 1.905-3.147l.303-2.796c.057-.54.507-.94 1.038-.94h.049l.082.008c.49.057.89.45.973.956l.482 2.895a6.417 6.417 0 0 0 2.264 3.875l.352.278c.27.212.425.531.433.866a1.06 1.06 0 0 1-.515.973l-.335.196c-1.063.622-1.75 1.766-1.905 3.148l-.302 2.796c-.057.539-.507.94-1.038.94h-.05z" fill="#A3FFBA"/><path d="M45.986 208.548h.033a.33.33 0 0 1 .27.278l.482 2.894a7.22 7.22 0 0 0 2.559 4.374l.351.278a.382.382 0 0 1 .131.253v.017c0 .098-.04.18-.114.229l-.336.196c-1.283.752-2.125 2.125-2.305 3.769l-.302 2.796c-.017.13-.107.212-.221.212H46.5c-.13-.016-.245-.131-.27-.278l-.482-2.894a7.226 7.226 0 0 0-2.559-4.374l-.351-.278a.383.383 0 0 1-.131-.253v-.016c0-.098.04-.18.114-.229l.335-.196c1.284-.753 2.126-2.126 2.306-3.769l.302-2.796c.008-.131.099-.213.221-.213zm0-1.635c-.948 0-1.741.72-1.847 1.668l-.303 2.796c-.123 1.12-.67 2.044-1.504 2.534l-.336.196c-.588.344-.948.99-.923 1.693a1.97 1.97 0 0 0 .736 1.496l.351.278a5.587 5.587 0 0 1 1.97 3.368l.483 2.894c.139.85.834 1.521 1.676 1.627l.098.016h.13c.949 0 1.742-.719 1.848-1.667l.303-2.796c.122-1.12.67-2.044 1.504-2.535l.335-.196c.589-.343.948-.989.924-1.692a1.968 1.968 0 0 0-.736-1.496l-.352-.278a5.586 5.586 0 0 1-1.97-3.369l-.482-2.894a1.97 1.97 0 0 0-1.676-1.627l-.098-.016h-.13z" fill="#CFF4FF"/><path d="M53.066 125.127a1.16 1.16 0 0 0-1.292-1.014 1.165 1.165 0 0 0-1.014 1.292l1.284 10.44h2.338l-1.316-10.718z" fill="#000"/><path d="M301.238 212.168c-.163-1.479-1.161-2.738-2.534-3.294a14.947 14.947 0 0 0-1.562-.54c-2.42-.67-4.962.589-5.976 2.878-.997 2.256-2.395 5.289-3.401 7.088l-6.099-.695a2.964 2.964 0 0 0-2.796 1.308c-3.433 5.191-4.161 11.609-3.589 15.002.18 1.079 1.071 1.896 2.159 2.027l14.609 1.701c1.226.147 2.412-.475 3.025-1.554 1.471-2.583 1.913-4.946 2.011-6.483.09-1.349.401-2.681.965-3.916 2.55-5.567 3.638-9.377 3.188-13.522z" fill="#2CCB7A"/><path d="M298.703 208.873a15.08 15.08 0 0 0-1.561-.539 4.975 4.975 0 0 0-3.458.302c1.389-.719 3.302 1.488 2.828 3.23-.474 1.749-1.627 5.452-1.52 7.177.106 1.725 1.561 2.396 2.689 2.453.736.041 2.469-5.265 3.581-8.976-.008-.115-.016-.237-.033-.352-.155-1.48-1.152-2.731-2.526-3.295z" fill="#59F186"/><path d="M292.04 237.643c1.227.147 2.412-.474 3.025-1.554 1.472-2.583 1.913-4.946 2.011-6.483.09-1.349.401-2.681.965-3.916 2.559-5.567 3.638-9.377 3.188-13.522a4.131 4.131 0 0 0-2.518-3.343 14.848 14.848 0 0 0-1.561-.54c-.401-.114-.826-.123-1.226-.131 2.223.115 3.703 2.453 2.755 7.162-1.366 6.769-2.903 7.709-3.573 11.012-.605 2.943-1.144 7.456-3.826 11.217l.76.098z" fill="#000"/><path d="M289.964 229.737c.155-.417.269-.858.335-1.324a6.507 6.507 0 0 0-5.502-7.382l-33.674-4.922a6.512 6.512 0 0 0-7.048 4.186l-4.414 11.936a6.5 6.5 0 0 0 3.85 8.363 6.502 6.502 0 0 0 8.364-3.85l2.583-6.99 28.458 4.153a6.501 6.501 0 0 0 7.048-4.17z" fill="#FFC619"/><path d="M265.258 225.306c.891-4.538-.221-7.219-1.644-7.374l21.191 3.098c3.556.523 6.025 3.826 5.502 7.382-.066.458-.18.9-.335 1.325a6.52 6.52 0 0 1-7.048 4.177l-21.615-3.155c.572.081 3.049-.908 3.949-5.453z" fill="#fff"/><path d="M269.517 225.928c.891-4.538-.221-7.162-1.643-7.375l3.107.45c1.422.221 2.534 2.837 1.643 7.374-.891 4.546-3.377 5.535-3.957 5.445l-3.107-.45c.581.09 3.066-.891 3.957-5.444z" fill="#5765F1"/><path d="M279.172 220.205c.801.114 2.624.597 2.42 4.259-.27 4.758-2.502 8.887-3.72 8.707l-1.717-.253-.228.883 10.3 1.496 5.756-4.906-.973-7.627-3.769-3.295-6.687-.515-1.382 1.251zM158.274 232.197a2.877 2.877 0 0 1-3.229.189l-6.328-3.835c-1.553-.94-2.444-2.665-2.101-4.226.017-.074.033-.156.057-.229.483-1.954.229-4.096-.719-6.066-1.864-3.867-2.51-7.399-1.218-10.489 1.733-4.129 4.006-7.17 8.396-6.001 3.801 1.014 3.589 3.769 6.908 10.702a7.436 7.436 0 0 0 2.87 3.155l1.659 1.006a2.912 2.912 0 0 1 1.398 2.632c-.253 4.595-3.033 9.631-7.693 13.162z" fill="#2CCB7A"/><path d="M156.607 204.361c-.793-1.496-1.692-2.363-3.475-2.837-4.251-1.128-6.523 1.693-8.232 5.625.033 4.022.441 8.919 2.199 10.039 3.099 1.97 2.788-1.57 2.608-3.654-.237-2.747 1.014-5.028 2.305-7.154 1.276-2.101 3.598-3.891 4.595-2.019z" fill="#59F186"/><path d="M148.022 224.186c.81-1.709.998-4.096-.106-6.377-1.112-2.281-2.109-6.638.016-11.38 1.627-3.622 3.867-5.265 5.568-4.799-4.799-1.602-7.203 2.175-8.764 5.895-1.292 3.09-.646 6.622 1.218 10.488.948 1.971 1.202 4.113.719 6.067-.016.073-.04.155-.057.228-.343 1.57.548 3.287 2.101 4.227-.964-.752-1.504-2.641-.695-4.349z" fill="#000"/><path d="M154.726 219.002a6.494 6.494 0 0 1 7.554-.409l19.228 12.198a6.512 6.512 0 0 1 3.009 5.142 6.497 6.497 0 0 1-2.437 5.437l-5.698 4.553a6.507 6.507 0 0 1-9.148-1.013c-1.872-2.339-1.063-4.006-.033-7.767l-11.903-7.554a6.52 6.52 0 0 1-2.011-8.985 6.968 6.968 0 0 1 1.439-1.602z" fill="#FFC619"/><path d="M154.726 219.002a6.494 6.494 0 0 1 7.554-.409l19.228 12.198a6.512 6.512 0 0 1 3.009 5.142 6.497 6.497 0 0 1-2.437 5.437l-5.698 4.553a6.507 6.507 0 0 1-9.148-1.013c-1.872-2.339-1.063-4.006-.033-7.767l-11.903-7.554a6.52 6.52 0 0 1-2.011-8.985 6.968 6.968 0 0 1 1.439-1.602z" fill="#FFC619"/><path d="m166.751 238.763 4.472 2.836a.812.812 0 0 0 1.112-.245.805.805 0 0 0-.245-1.112l-4.881-3.098c-.163.588-.31 1.12-.458 1.619z" fill="#000"/><path d="m155.306 229.59 13.129 8.339c-.498-.311-1.733-2.682.556-6.712 2.289-4.031 4.848-5.29 6.066-4.513l-12.769-8.11a6.52 6.52 0 0 0-7.554.409 6.681 6.681 0 0 0-1.431 1.594 6.517 6.517 0 0 0 2.003 8.993z" fill="#fff"/><path d="m161.937 233.8 2.927 1.856c-.499-.311-1.734-2.682.556-6.712 2.289-4.031 4.848-5.29 6.066-4.513l-2.927-1.856c-1.218-.768-3.777.491-6.066 4.513-2.289 4.03-1.047 6.393-.556 6.712z" fill="#5765F1"/><path d="M156.991 230.66c-.49-.311-1.373-2.453.916-6.475 2.289-4.03 4.267-5.649 5.485-4.88l.573.359.515-.907-6.001-3.393-7.104 3.254-1.235 7.595 1.57 2.894 4.66 2.869 1.406-.809-.785-.507z" fill="#2CCB7A"/><path d="M238.156 224.808c7.153 16.367-.744 36.053-18.215 42.643-17.471 6.597-35.702-3.222-40.345-20.537-4.276-15.95 4.693-32.595 19.743-38.277 15.051-5.682 32.227 1.096 38.817 16.171z" fill="#FF78B8"/><path d="M220.929 214.884c-2.15-3.058-6.074-4.873-8.764-4.064-.114.033-.221.082-.327.123l-.008-.008c-1.226.458-1.848 1.422-2.559 3.18-.335.834-1.234 1.325-2.003 1.096-1.758-.532-4.382-.859-6.867.081-3.009 1.137-4.317 4.824-2.927 8.241 1.39 3.417 4.954 5.265 7.955 4.137.163-.066.335-.139.498-.221.033-.016.074-.041.107-.057 1.765-.932 3.441-2.951 4.88-5.608.327-.614 1.071-.965 1.66-.777 3.72 1.218 6.27 1.292 7.366.883 2.706-.809 3.139-3.949.989-7.006z" fill="#fff"/><path d="M205.912 227.476c2.867-1.435 3.85-5.276 2.197-8.579-1.654-3.302-5.318-4.816-8.185-3.381-2.866 1.435-3.85 5.276-2.196 8.579 1.653 3.302 5.318 4.816 8.184 3.381zM221.584 220.825c1.601-1.974.426-5.58-2.624-8.055-3.051-2.475-6.822-2.88-8.424-.906-1.601 1.974-.426 5.58 2.624 8.055 3.051 2.475 6.822 2.881 8.424.906z" fill="#fff"/><path d="M205.44 221.579c.793-.552.85-1.841.127-2.878-.722-1.038-1.951-1.431-2.744-.879-.793.552-.85 1.841-.127 2.878.722 1.038 1.951 1.431 2.744.879zM216.337 217.382c.691-.524.632-1.765-.132-2.773-.763-1.007-1.942-1.4-2.633-.876-.691.524-.632 1.765.131 2.772.764 1.008 1.943 1.4 2.634.877z" fill="#000"/><path d="M221.35 222.387c3.173-1.281 4.345-5.791 2.616-10.074-1.728-4.283-5.702-6.717-8.876-5.437-3.173 1.281-4.345 5.791-2.616 10.075 1.728 4.283 5.702 6.717 8.876 5.436zM206.198 228.4c3.341-1.349 4.625-5.972 2.868-10.326-1.757-4.354-5.89-6.791-9.231-5.443-3.341 1.348-4.625 5.971-2.868 10.326 1.757 4.354 5.89 6.791 9.231 5.443zM208.348 216.101l3.548-1.332" stroke="#5865F2" stroke-width="2.951" stroke-miterlimit="10"/><path d="m211.913 226.508 5.805-1.733c.646-.188 1.3.245 1.389.907.352 2.788.36 8.781-7.545 2.723-.703-.532-.499-1.643.351-1.897z" fill="#000"/><path d="M216.565 228.389c-1.545 0-2.935.319-3.892.825 4.603 3.156 6.075 1.627 6.442-.515-.76-.196-1.626-.31-2.55-.31z" fill="#E53794"/><path d="M183.192 240.185c-.99-2.706-7.317-22.891-10.424-32.84a6.537 6.537 0 0 1 3.532-7.898c3.556-1.61 7.726.229 8.919 3.949l11.364 36.282-13.391.507z" fill="#FFD635"/><path d="M179.129 208.448a5.583 5.583 0 0 1-6.303-3.777l-2.649-8.224 11.078-1.995 2.191 6.802c1.038 3.205-.998 6.589-4.317 7.194z" fill="#D01582"/><path d="m181.394 193.75-5.763-5.69c-.311-1.21-.524-2.772-.638-4.227-.09-1.194-.662-2.338-1.66-3.009a3.787 3.787 0 0 0-4.586.254c-2.633 2.256-4.039 3.646-5.257 4.717-1.471 1.3-1.651 3.94-.351 7.17 1.308 3.253 1.136 4.259 6.409 7.12l5.764 2.69c2.706 1.267 5.837-.605 6-3.589.246-4.308.082-5.436.082-5.436z" fill="#D01582"/><path d="m179.596 201.263-5.518-3.009 6.336-11.617a3.609 3.609 0 1 1 6.336 3.458l-5.887 10.8a.935.935 0 0 1-1.267.368z" fill="#D01582"/><path d="M280.513 253.748h-23.349l-25.875-17.143h23.341l25.883 17.143z" fill="#3F99F2"/><path d="M249.839 236.605h-91.507v35.219h91.507v-35.219z" fill="#3F99F2"/><path d="M254.629 236.605h-61.364v35.219h61.364v-35.219z" fill="#8CD9FF"/><path d="M132.449 253.748h34.941l25.875-17.143h-34.933l-25.883 17.143z" fill="#8CD9FF"/><path d="m254.67 242.801-3.834-6.197-10.366-16.743a6.498 6.498 0 0 0-5.674-3.082 6.496 6.496 0 0 0-5.534 3.319l-3.876 6.892c-1.267 2.256-2.199 6.107-1.586 9.606h11.716l8.077 13.048a6.51 6.51 0 0 0 8.96 2.109 6.465 6.465 0 0 0 2.248-2.338 6.486 6.486 0 0 0-.131-6.614z" fill="#FFD635"/><path d="M237.534 239.866c-.711-1.145-.278-4.848 3.319-7.971 3.507-3.05 6.132-1.496 7.186.204l6.63 10.71a6.52 6.52 0 0 1 .139 6.622 6.403 6.403 0 0 1-2.248 2.338 6.503 6.503 0 0 1-8.96-2.109l-6.066-9.794z" fill="#fff"/><path d="M239.415 242.908c-.711-1.145-.278-4.848 3.319-7.971 3.508-3.049 6.132-1.496 7.187.204l1.512 2.445c-1.055-1.701-3.679-3.254-7.186-.205-3.597 3.123-4.031 6.827-3.319 7.971l-1.513-2.444z" fill="#5765F1"/><path d="M244.263 254.688c-2.265-3.294-2.943-4.758 1.668-10.619 4.61-5.862 8.33-4.881 9.164-3.565.36.564 1.128 1.946 1.128 1.946 2.208-3.017 5.331-5.551 8.944-3.556 3.941 2.183 6.614 6.499.793 14.159-5.821 7.669-10.383 10.334-12.999 10.301-2.608-.041-4.929-3.188-8.698-8.666z" fill="#2CCB7A"/><path d="M255.822 249.432c-1.79-1.766-2.371-3.181.401-6.982 2.207-3.017 5.33-5.551 8.943-3.556 2.984 1.651 5.233 4.537 3.622 9.164-4.48 1.128-11.576 2.739-12.966 1.374z" fill="#59F186"/><path d="M252.961 263.354a2.95 2.95 0 0 1-.843-.123c-1.962-.54-2.975-2.747-2.305-4.668.654-1.864 2.534-2.584 4.235-5.33 1.872-3.025 2.551-7.358 5.486-10.71 1.218-1.39 2.46-2.224 3.597-2.673 1.847-.728 4.153.09 5.305 1.708 1.783 2.502 1.603 6.124-2.477 11.503-5.812 7.66-10.382 10.325-12.998 10.293zM235.507 236.605l-3.041-5.42a1.206 1.206 0 1 0-2.101 1.185l2.379 4.235h2.763zM171.314 193.766a1.227 1.227 0 0 0 .883-2.076c-1.03-1.071-1.733-2.444-2.019-3.981-.523-2.756-1.635-4.448-2.722-5.494-.695.613-1.3 1.161-1.823 1.643.793.711 1.7 1.995 2.141 4.308.377 2.011 1.3 3.818 2.674 5.224.221.254.548.376.866.376z" fill="#000"/><path d="M153.246 12.042a9.644 9.644 0 0 1-4.317-6.68l-.695-4.668a.468.468 0 0 0-.466-.4.474.474 0 0 0-.466.4l-.695 4.668a9.643 9.643 0 0 1-4.316 6.68l-.605.392a.46.46 0 0 0-.213.392v.033c0 .164.082.31.213.393l.605.392a9.643 9.643 0 0 1 4.316 6.68l.695 4.667c.033.23.229.4.466.4a.474.474 0 0 0 .466-.4l.695-4.668a9.644 9.644 0 0 1 4.317-6.68l.605-.392a.483.483 0 0 0 .212-.392v-.033a.461.461 0 0 0-.212-.392l-.605-.392z" fill="#8CD9FF"/><path d="M254.08 74.717a9.64 9.64 0 0 1-4.316-6.679l-.695-4.668a.468.468 0 0 0-.466-.4.473.473 0 0 0-.466.4l-.695 4.668a9.644 9.644 0 0 1-4.317 6.68l-.605.392a.48.48 0 0 0-.212.392v.033c0 .163.081.31.212.392l.605.393a9.644 9.644 0 0 1 4.317 6.679l.695 4.668c.032.229.229.4.466.4a.474.474 0 0 0 .466-.4l.695-4.668a9.64 9.64 0 0 1 4.316-6.68l.605-.392a.482.482 0 0 0 .213-.392v-.033a.46.46 0 0 0-.213-.392l-.605-.393zM311.177 250.618a9.64 9.64 0 0 1-4.316-6.679l-.695-4.669a.468.468 0 0 0-.466-.4.474.474 0 0 0-.466.4l-.695 4.669a9.645 9.645 0 0 1-4.317 6.679l-.605.392a.483.483 0 0 0-.212.393v.032c0 .164.082.311.212.393l.605.392a9.643 9.643 0 0 1 4.317 6.679l.695 4.668a.468.468 0 0 0 .466.401.474.474 0 0 0 .466-.401l.695-4.668a9.638 9.638 0 0 1 4.316-6.679l.605-.392a.482.482 0 0 0 .213-.393v-.032a.46.46 0 0 0-.213-.393l-.605-.392z" fill="#fff"/><path d="M186.749 123.319a5.72 5.72 0 0 1-2.559-3.956l-.417-2.764a.274.274 0 0 0-.278-.237.281.281 0 0 0-.278.237l-.417 2.764a5.72 5.72 0 0 1-2.559 3.956l-.359.229a.274.274 0 0 0-.131.237v.017c0 .098.049.18.131.237l.359.229a5.72 5.72 0 0 1 2.559 3.957l.417 2.763a.274.274 0 0 0 .278.237.281.281 0 0 0 .278-.237l.417-2.763a5.72 5.72 0 0 1 2.559-3.957l.36-.229a.275.275 0 0 0 .13-.237v-.017a.287.287 0 0 0-.13-.237l-.36-.229z" fill="#91FFAD"/><path d="M18.173 248.966a5.721 5.721 0 0 1-2.559-3.957l-.417-2.763a.275.275 0 0 0-.278-.237.28.28 0 0 0-.278.237l-.417 2.763a5.72 5.72 0 0 1-2.558 3.957l-.36.229a.274.274 0 0 0-.131.237v.017c0 .098.05.179.13.237l.36.229a5.72 5.72 0 0 1 2.56 3.956l.416 2.764a.275.275 0 0 0 .278.237.28.28 0 0 0 .278-.237l.417-2.764a5.721 5.721 0 0 1 2.56-3.956l.359-.229a.274.274 0 0 0 .13-.237v-.017a.284.284 0 0 0-.13-.237l-.36-.229z" fill="#FFD635"/><path d="M214.536 171.105a5.721 5.721 0 0 1-2.558-3.957l-.417-2.763a.276.276 0 0 0-.278-.238.281.281 0 0 0-.278.238l-.417 2.763a5.726 5.726 0 0 1-2.559 3.957l-.36.229a.274.274 0 0 0-.131.237v.016c0 .098.049.18.131.237l.36.229a5.726 5.726 0 0 1 2.559 3.957l.417 2.763a.274.274 0 0 0 .278.237.281.281 0 0 0 .278-.237l.417-2.763a5.721 5.721 0 0 1 2.558-3.957l.36-.229a.274.274 0 0 0 .131-.237v-.016a.284.284 0 0 0-.131-.237l-.36-.229z" fill="#3442D9"/><defs><linearGradient id="a" x1="107.971" y1="34.707" x2="69.376" y2="105.917" gradientUnits="userSpaceOnUse"><stop stop-color="#FFE75C"/><stop offset="1" stop-color="#FFC619"/></linearGradient><linearGradient id="b" x1="121.257" y1="46.063" x2="80.046" y2="122.098" gradientUnits="userSpaceOnUse"><stop stop-color="#FFE75C"/><stop offset="1" stop-color="#FFC619"/></linearGradient><linearGradient id="c" x1="103.896" y1="291.643" x2="75.053" y2="77.221" gradientUnits="userSpaceOnUse"><stop stop-color="#fff"/><stop offset="1" stop-color="#8BD8FF"/></linearGradient><linearGradient id="d" x1="88.9" y1="192.47" x2="94.284" y2="154.881" gradientUnits="userSpaceOnUse"><stop stop-color="#5765F1"/><stop offset="1" stop-color="#2536D3"/></linearGradient><linearGradient id="e" x1="101.139" y1="228.67" x2="105.055" y2="201.33" gradientUnits="userSpaceOnUse"><stop stop-color="#5765F1"/><stop offset="1" stop-color="#2536D3"/></linearGradient></defs></svg>