<?xml version="1.0" encoding="utf-8"?>
<!-- Generator: Adobe Illustrator 17.1.0, SVG Export Plug-In . SVG Version: 6.00 Build 0)  -->
<!DOCTYPE svg PUBLIC "-//W3C//DTD SVG 1.1//EN" "http://www.w3.org/Graphics/SVG/1.1/DTD/svg11.dtd">
<svg version="1.1" id="Layer_1" xmlns="http://www.w3.org/2000/svg" xmlns:xlink="http://www.w3.org/1999/xlink" x="0px" y="0px"
	 viewBox="0 0 17 17" enable-background="new 0 0 17 17" xml:space="preserve">
<g>
	<path fill="#FAA61B" d="M8.495,2c0.566,0,1.133,0.075,1.687,0.223c3.461,0.928,5.522,4.498,4.595,7.958
		C14.016,13.019,11.437,15,8.505,15c-0.566,0-1.134-0.075-1.687-0.223c-1.677-0.449-3.078-1.524-3.946-3.027
		c-0.868-1.503-1.098-3.254-0.649-4.931C2.984,3.981,5.562,2,8.495,2 M8.495,0C4.743,0,1.309,2.504,0.292,6.301
		c-1.215,4.533,1.475,9.193,6.009,10.408C7.037,16.906,7.777,17,8.505,17c3.752,0,7.186-2.504,8.203-6.301
		c1.215-4.533-1.476-9.193-6.009-10.408C9.963,0.094,9.223,0,8.495,0L8.495,0z"/>
</g>
</svg>
