<svg fill="none" height="48" viewBox="0 0 48 48" width="48" xmlns="http://www.w3.org/2000/svg"><path d="m23.5001 41c9.665 0 17.5-7.835 17.5-17.5s-7.835-17.5-17.5-17.5-17.49998 7.835-17.49998 17.5 7.83498 17.5 17.49998 17.5z" fill="#ebf0f7"/><g fill="#7196ff"><path d="m4.22945 36.5342-.00389.0039c-.12457.125-.12457.3276 0 .4526l.22946.2302c.12457.125.32655.125.45112 0l.00389-.0039c.12457-.125.12457-.3276 0-.4526l-.22945-.2302c-.12458-.125-.32655-.125-.45113 0z"/><path d="m6.04427 38.359-.00389.0039c-.12457.125-.12457.3277 0 .4526l.22946.2302c.12457.125.32655.125.45112 0l.00389-.0039c.12458-.1249.12458-.3276 0-.4526l-.22945-.2302c-.12458-.125-.32655-.125-.45113 0z"/><path d="m6.72494 36.5403-.00389-.0039c-.12458-.125-.32656-.125-.45113 0l-.22945.2302c-.12458.125-.12458.3276 0 .4526l.00389.0039c.12457.125.32655.125.45112 0l.22945-.2302c.12458-.125.12458-.3276.00001-.4526z"/><path d="m4.91561 38.3651-.00389-.0039c-.12457-.125-.32655-.125-.45113 0l-.22945.2302c-.12457.125-.12457.3276 0 .4526l.00389.0039c.12458.125.32655.125.45113 0l.22945-.2302c.12457-.125.12457-.3276 0-.4526z"/></g><path d="m41.4188 41.0384c0-.2469-.1982-.447-.4427-.447-.2446 0-.4428.2001-.4428.447v.4414c0 .2469.1982.447.4428.447.2445 0 .4427-.2001.4427-.447z" fill="#f47fff"/><path d="m41.4188 44.5976c0-.2469-.1982-.447-.4427-.447-.2446 0-.4428.2001-.4428.447v.4414c0 .2469.1982.447.4428.447.2445 0 .4427-.2001.4427-.447z" fill="#f47fff"/><path d="m42.9643 43.4774c.246 0 .4455-.1989.4455-.4442s-.1995-.4442-.4455-.4442h-.44c-.246 0-.4455.1989-.4455.4442s.1995.4442.4455.4442z" fill="#f47fff"/><path d="m39.4223 43.4829c.246 0 .4455-.1989.4455-.4442s-.1995-.4442-.4455-.4442h-.44c-.246 0-.4455.1989-.4455.4442s.1995.4442.4455.4442z" fill="#f47fff"/><path d="m38.3643 14.2761-.517 1.0704c-.027.0549-.0362.1168-.0263.1772.0099.0603.0384.116.0815.1593.0431.0432.0987.0718.1588.0817.0602.01.1219.0007.1765-.0264l1.067-.4856c.038-.0173.0793-.0263.121-.0263.0418 0 .083.009.121.0263l1.067.5132c.0546.0271.1164.0364.1765.0264.0602-.0099.1157-.0385.1588-.0818.0431-.0432.0716-.0989.0815-.1593.0099-.0603.0007-.1222-.0263-.1771l-.5115-1.0705c-.019-.0395-.0289-.0829-.0289-.1269 0-.0439.0099-.0873.0289-.1269l.5115-1.0705c.0303-.0524.0436-.1129.0381-.1732-.0055-.0604-.0295-.1175-.0688-.1635-.0392-.0461-.0917-.0787-.1503-.0935-.0585-.0148-.1202-.011-.1765.0109l-1.1.5131c-.0394.0191-.0827.029-.1265.029s-.087-.0099-.1265-.029l-1.067-.5131c-.0546-.0271-.1163-.0364-.1765-.0265-.0601.01-.1157.0386-.1588.0818-.0431.0433-.0716.099-.0815.1593-.0099.0604-.0007.1223.0263.1771l.517 1.0705c.0208.0388.0325.0817.0344.1257.0019.0439-.0061.0877-.0234.1282z" fill="#60cfac"/><path d="m18.5718 24.1036c-.1718-.0017-.3403-.0478-.4892-.1336s-.2731-.2086-.3608-.3564l-4-6.64c-.092-.2231-.1001-.472-.023-.7007.0772-.2287.2344-.4218.4427-.5436.2084-.1219.4538-.1642.6909-.1193s.45.174.5994.3636l4 6.64c.1361.2269.1767.4985.113.7552-.0637.2568-.2266.4779-.453.6148-.1592.0864-.339.1279-.52.12zm9.86-1.05c-.1595-.0019-.3163-.0419-.4572-.1167s-.2619-.1822-.3528-.3133c-.0804-.1075-.1383-.2301-.1703-.3604-.032-.1304-.0375-.2659-.016-.3984s.0694-.2593.1409-.3729.1652-.2117.2754-.2883c.9227-.657 1.6586-1.5427 2.1355-2.57.4769-1.0274.6783-2.1612.5845-3.29-.0371-.2652.0326-.5343.1939-.7481s.4009-.3548.6661-.3919.5343.0326.7481.1939.3548.4009.3919.6661c.1478 1.4923-.1018 2.9971-.7236 4.3618-.6217 1.3646-1.5934 2.5404-2.8164 3.4082-.1705.137-.3813.2143-.6.22z" fill="#000"/><path d="m26.9619 17.4136-.36-2.79c-.1523-1.139-.7461-2.1725-1.6533-2.8777-.9073-.7053-2.0554-1.0257-3.1967-.8923-.5699.0727-1.1198.2574-1.6182.5433-.4983.286-.9352.6676-1.2855 1.123-.3503.4553-.6072.9754-.7559 1.5304-.1487.5549-.1862 1.1338-.1104 1.7033l.35 2.75c.1532 1.2893-.1321 2.5927-.81 3.7-.644 1.1315-.9597 2.4201-.9117 3.7211.0481 1.301.458 2.5628 1.1837 3.6436.7257 1.0809 1.7385 1.9379 2.9245 2.4749 1.186.5369 2.4982.7325 3.7892.5647s2.5097-.6923 3.519-1.5146c1.0094-.8222 1.7694-1.9097 2.1948-3.1401.4253-1.2304.4991-2.5551.213-3.8252-.2861-1.27-.9207-2.4351-1.8325-3.3644-.9044-.9029-1.4815-2.0819-1.64-3.35z" fill="#000"/><path d="m30.6818 41.3036c-.2244.0083-.4451-.0592-.6265-.1916-.1815-.1324-.313-.3221-.3735-.5384-.896-3.2418-2.1259-6.3819-3.67-9.37-.0823-.1131-.1399-.2423-.1692-.3791-.0292-.1369-.0294-.2783-.0006-.4152.0289-.1369.0862-.2663.1681-.3797.082-.1134.1869-.2083.3078-.2786.121-.0704.2554-.1145.3945-.1297.1391-.0151.2798-.0009.4131.0418.1332.0427.2561.1128.3605.2059s.1882.2071.2458.3346c1.6514 3.1517 2.9621 6.4705 3.91 9.9.0349.1268.0445.2591.0282.3896-.0163.1304-.0582.2563-.1232.3706-.065.1142-.1519.2145-.2557.2951-.1038.0807-.2225.14-.3493.1747-.0875 0-.1747-.0101-.26-.03z" fill="#000"/><path d="m22.7518 42.6636c-.2652 0-.5195-.1054-.7071-.2929-.1875-.1875-.2929-.4419-.2929-.7071.2133-3.6873-.0659-7.3865-.83-11-.0451-.2652.0171-.5375.1727-.7569.1557-.2194.3921-.368.6573-.4131s.5375.017.7569.1727c.2194.1556.368.3921.4131.6573.7643 3.7419 1.0433 7.5668.83 11.38-.0103.2582-.1202.5024-.3066.6814-.1865.179-.4349.2788-.6934.2786z" fill="#000"/><path d="m11.2254 2.18462c.5345-.23397 1.1401-.24602 1.6835-.0335s.9801.63219 1.2141 1.16671l5.4053 12.34877-4.0308 1.7644-5.4053-12.34882c-.11584-.26467-.17842-.54956-.18417-.83841s.04545-.57601.15067-.84507c.1052-.26906.2624-.51476.4626-.72308.2002-.20831.4395-.37516.7041-.491z" fill="#ff9a15"/><path d="m9.43166 11.3237 4.86444-2.12924 3.2079 7.32864-7.0539 3.0876-2.25353-5.1484c-.25106-.5801-.26205-1.2361-.03057-1.8243.23147-.5882.68656-1.0608 1.26566-1.3143z" fill="#ff9a15"/><path d="m13.5385 11.4062.0882-.4802 3.8514.7074-.3474 1.8914-2.4402-.4482c-.3743-.0687-.7059-.2833-.9219-.5966-.2161-.3132-.2988-.6995-.2301-1.0738z" fill="#ffd836"/><path d="m17.6819 11.4336 1.85 4.24-4 1.76v-.1c-.3455-.7917-.3627-1.6882-.0477-2.4926s.9364-1.4508 1.7277-1.7974z" fill="#ffd836"/></svg>