<svg fill="none" height="464" viewBox="0 0 240 464" width="240" xmlns="http://www.w3.org/2000/svg" xmlns:xlink="http://www.w3.org/1999/xlink"><clipPath id="a"><path d="m0 0h240v464h-240z"/></clipPath><g clip-path="url(#a)"><path d="m0 405.13v8.47c16.82.21 33.33.4 39 .4 13 0 45 6 60 6s51-10 66-10 75-2 75-2v-4.32z" fill="#81c793"/><path d="m0 404v6.59c16.82.21 33.33.4 39 .4 13 0 45 6 60 6s51-10 66-10 75-2 75-2v-4.32z" fill="#a3faa8"/><path d="m105 442.67 1.35 2.64 3.65 6.69 9 2 3.68 10h117.32v-21z" fill="#633150" opacity=".53"/></g></svg>