<svg xmlns="http://www.w3.org/2000/svg" width="32" height="32"><path d="M31.63 15.73L16.27.37a.37.37 0 0 0-.52 0L.37 15.73a.37.37 0 0 0 0 .52l15.36 15.38a.37.37 0 0 0 .52 0l15.38-15.36a.37.37 0 0 0 0-.52zM25 12.29l-3 5.79a.22.22 0 0 0 .12.28h1.89a.2.2 0 0 1 .18.23.17.17 0 0 1-.07.14l-7.92 5.72a.26.26 0 0 1-.24 0L8 18.74a.22.22 0 0 1 0-.3.24.24 0 0 1 .13-.07H9.9a.22.22 0 0 0 .22-.22v-.07l-3-5.79a.22.22 0 0 1 .1-.29.17.17 0 0 1 .14 0l7.12 4.67a.65.65 0 0 1 .29.32l1.09 2.18a.19.19 0 0 0 .26.09.22.22 0 0 0 .1-.09L17.27 17a1 1 0 0 1 .29-.32L24.68 12a.21.21 0 0 1 .28.1.2.2 0 0 1 .04.19z" fill="#fff"/></svg>