<svg width="311" height="184" viewBox="0 0 311 184" fill="none" xmlns="http://www.w3.org/2000/svg">
<path d="M15.598 18.4665H296.616C299.836 18.4665 302.471 21.4343 302.471 25.0616V176.75C302.471 180.378 299.836 183.346 296.616 183.346H15.598C12.378 183.346 9.74341 180.378 9.74341 176.75V25.0616C9.74341 21.4343 12.378 18.4665 15.598 18.4665Z" fill="url(#paint0_linear_8352_427502)"/>
<path d="M179.467 103.874C172.383 108.622 170.685 112.118 169.455 119.504C168.226 126.891 165.24 141.796 171.68 144.632C169.69 160.394 169.455 174.706 170.041 183.346H296.616C299.836 183.346 302.471 180.378 302.471 176.75V75.7784C299.719 72.7447 297.377 73.4042 291.289 74.1956C290.996 72.0852 290.762 69.9747 290.703 67.8642C296.909 65.3581 297.612 61.2031 295.914 58.1034C294.216 55.0037 288.478 49.7275 281.629 49.134C274.779 48.5404 264.767 58.1034 267.519 62.4562C264.065 63.1157 261.548 65.2921 260.377 67.9962C258.737 61.8627 255.869 57.5098 237.661 59.4884C238.656 51.5742 235.202 41.3517 223.727 40.3624C212.252 39.3731 204.641 50.7828 205.11 58.7629C205.578 66.7431 211.374 71.2278 211.374 71.2278C205.988 76.2401 198.67 79.9994 197.557 89.8921C197.147 86.9243 194.981 84.7479 187.546 85.1436C178.94 85.6712 175.661 89.6942 175.251 94.3768C174.842 99.0594 175.895 102.357 179.467 103.874Z" fill="#3442D9"/>
<path d="M179.701 61.1372C173.788 62.1924 178.998 84.0884 179.174 91.0133L184.677 90.2878C186.551 70.2385 185.614 60.082 179.701 61.1372Z" fill="#3442D9"/>
<path d="M192.932 61.2691C187.488 60.8734 188.249 81.5162 187.195 87.7157L192.171 88.3093C197.382 70.8321 198.318 61.5989 192.932 61.2691Z" fill="#3442D9"/>
<path fill-rule="evenodd" clip-rule="evenodd" d="M239.107 66.0436C239.192 65.7417 239.478 65.5738 239.746 65.6687L241.795 66.3935C242.063 66.4884 242.212 66.8101 242.128 67.1121C242.044 67.4141 241.758 67.582 241.49 67.4871L239.44 66.7623C239.172 66.6674 239.023 66.3456 239.107 66.0436Z" fill="black"/>
<path fill-rule="evenodd" clip-rule="evenodd" d="M240.485 64.7317C240.695 64.5215 241.017 64.543 241.204 64.7797C241.659 65.3565 242.171 65.9341 242.683 66.4468C242.894 66.6572 242.912 67.0195 242.725 67.256C242.538 67.4925 242.217 67.5136 242.006 67.3032C241.465 66.7607 240.924 66.1512 240.442 65.5409C240.255 65.3042 240.274 64.9419 240.485 64.7317Z" fill="black"/>
<path d="M254.23 138.499C248.024 142.456 240.237 149.183 236.081 152.942C234.149 154.657 235.729 157.954 241.994 164.418C248.258 170.881 248.668 167.319 254.698 161.054C261.606 153.865 266.758 147.732 266.758 147.732L254.23 138.499Z" fill="#FFE75C"/>
<path d="M243.926 159.933C243.809 159.933 243.691 159.867 243.633 159.735C243.457 159.537 243.457 159.207 243.633 159.009C249.195 153.799 256.103 147.27 260.553 143.577C260.787 143.445 261.079 143.445 261.197 143.709C261.314 143.907 261.314 144.236 261.079 144.368C256.63 148.062 249.722 154.525 244.218 159.801L243.926 159.933Z" fill="#FFC619"/>
<path d="M236.256 153.667C237.427 152.612 239.066 152.414 241.759 155.712C243.926 158.416 245.916 161.318 247.614 164.418C248.492 166.066 247.555 166.858 246.033 166.462C244.511 166.066 242.169 163.692 240.647 162.043C239.125 160.394 234.792 154.92 236.256 153.667Z" fill="black"/>
<path d="M243.281 163.89C235.436 171.079 227.181 178.531 224.02 181.301C220.859 184.071 218.224 184.533 215.238 180.114C200.602 158.02 200.426 151.689 203.939 150.238C208.681 148.325 212.194 153.667 222.088 166.528C226.128 162.835 230.987 158.284 236.197 153.667H236.256C237.485 152.546 239.242 152.546 241.291 156.174C242.286 157.888 243.106 159.735 243.75 161.648C244.277 163.099 243.574 163.56 243.281 163.89Z" fill="#FF78B9"/>
<path d="M236.08 162.241C238.539 166.264 239.066 170.485 235.671 172.53C232.275 174.574 230.109 172.2 228.294 168.309C226.479 164.418 225.601 161.779 227.884 159.405C230.167 157.031 233.621 158.284 236.08 162.241Z" fill="white"/>
<path d="M233.914 172.398L224.02 181.301C221.093 183.873 218.224 184.533 215.238 180.114C200.602 158.02 200.426 151.689 203.939 150.238C208.681 148.325 212.194 153.667 222.088 166.528L227.591 161.516C230.519 158.812 233.797 163.56 234.734 165.605C235.671 167.649 236.022 170.485 233.914 172.398Z" fill="#66BCFF"/>
<path d="M208.096 154.855C204.7 151.029 202.885 150.238 202.3 151.953L202.183 152.282V152.414C201.48 155.844 204.349 163.56 215.238 180.048C217.346 183.148 219.395 183.741 221.444 182.95C221.971 182.752 222.381 182.224 222.381 181.565C222.439 180.312 221.678 178.267 220.332 175.102C217.521 168.902 211.667 159.009 208.096 154.855Z" fill="white"/>
<path d="M258.386 56.3228C257.567 52.6954 255.81 49.4638 253.351 46.9576C252.063 45.5726 251.127 45.3748 250.483 46.3641C249.839 47.3533 249.956 49.0021 250.248 50.9147C250.541 52.6954 251.009 54.4761 251.653 56.1909C249.077 58.4992 248.082 60.6756 249.487 62.9179C250.892 65.1603 255.81 62.3244 257.508 61.0713C259.206 59.8182 259.03 59.0927 258.386 56.3228Z" fill="#8CD9FF"/>
<path fill-rule="evenodd" clip-rule="evenodd" d="M252.452 51.7168C252.673 51.5215 252.993 51.565 253.167 51.8141L257.44 57.9476C257.563 58.1236 257.584 58.3638 257.493 58.5628C257.402 58.7618 257.217 58.8833 257.018 58.874C255.669 58.8106 254.308 59.0002 252.928 59.324C252.653 59.3887 252.383 59.1898 252.326 58.88C252.268 58.5701 252.445 58.2665 252.72 58.2019C253.801 57.9483 254.892 57.7687 255.991 57.7255L252.365 52.5215C252.192 52.2724 252.23 51.9121 252.452 51.7168Z" fill="#66BCFF"/>
<path d="M261.021 55.993C260.318 55.3335 259.382 55.1356 258.503 55.5313C257.684 55.8611 256.571 56.7844 256.103 59.2246C255.693 61.1372 256.747 62.9839 258.445 63.4455H258.503C260.084 63.7753 261.021 61.9287 261.431 60.082C261.841 58.2354 261.548 56.5206 261.021 55.993Z" fill="#66BCFF"/>
<path d="M288.889 147.138C288.889 147.138 284.205 141.203 279.58 134.212L272.789 144.83C283.561 157.756 286.547 162.043 291.113 161.318C293.924 160.856 296.09 157.493 298.08 153.667C301.125 163.428 302.413 166.66 305.867 166.66C309.321 166.66 312.482 162.967 310.258 155.25C308.033 147.534 303.993 140.609 301.827 138.037C299.661 135.465 296.851 136.124 294.86 138.762L288.889 147.138Z" fill="#FF78B9"/>
<path d="M296.734 156.108L298.08 153.667C301.125 163.428 302.413 166.66 305.867 166.66C309.321 166.66 312.482 162.967 310.258 155.25C308.033 147.534 303.993 140.609 301.827 138.037C299.661 135.465 296.851 136.124 294.86 138.762L289.357 146.413C290.586 144.698 293.397 145.951 294.977 147.798C296.558 149.644 298.139 153.601 296.734 156.108Z" fill="#66BCFF"/>
<path d="M298.666 149.842C299.778 153.865 298.256 157.69 295.387 158.614C292.518 159.537 290.001 157.163 288.596 153.206C287.191 149.249 287.366 144.632 290.586 143.577C293.806 142.522 297.436 145.489 298.666 149.842Z" fill="white"/>
<path d="M296.734 156.042C295.094 158.746 293.279 160.922 291.113 161.252C286.547 161.977 283.561 157.69 272.789 144.764L279.58 134.146C284.205 141.137 288.889 147.072 288.889 147.072L289.357 146.347H289.415C290.645 144.698 293.572 145.753 295.153 147.6C296.734 149.446 298.08 153.601 296.734 156.042Z" fill="#FF78B9"/>
<path d="M284.732 158.614C287.659 151.227 287.483 145.358 286.43 143.907L275.306 147.864C279.58 153.008 282.39 156.437 284.732 158.614Z" fill="black"/>
<path d="M268.456 147.996C270.33 150.963 273.198 155.91 274.486 157.756C275.774 159.603 279.463 161.911 284.263 153.997C289.064 146.083 286.898 143.775 285.551 141.664C284.205 139.554 279.346 132.827 279.346 132.827L268.456 147.996Z" fill="#FFE75C"/>
<path d="M242.638 68.7217C244.277 67.0069 244.335 65.556 242.696 65.6219C241.057 65.6879 238.832 67.0729 237.603 68.6557C236.373 70.2386 236.549 71.1619 237.72 71.2278C238.891 71.2938 241.174 70.2386 242.638 68.7217Z" fill="white"/>
<path d="M239.945 69.1833C240.706 68.1281 240.647 67.2048 239.769 67.2707C238.715 67.4686 237.837 68.1281 237.252 69.1174C236.725 69.9748 236.842 70.6343 237.486 70.7002C238.13 70.7662 239.242 70.1067 239.945 69.1833Z" fill="black"/>
<path d="M247.497 97.8063C239.125 97.4106 226.655 91.0793 211.199 78.4165L205.695 86.1988C215.121 96.0916 227.24 106.05 247.497 109.546V97.8063Z" fill="url(#paint1_linear_8352_427502)"/>
<path d="M247.497 109.546V97.8064C243.399 97.6085 238.247 95.9597 232.275 92.86C232.977 93.1897 233.212 95.6299 232.977 98.7956C232.743 101.961 231.397 104.863 230.226 104.336C235.788 106.776 241.584 108.556 247.497 109.546Z" fill="#0C1AAD"/>
<path fill-rule="evenodd" clip-rule="evenodd" d="M210.166 86.4126C210.352 86.3894 210.52 86.5405 210.541 86.7503C211.388 95.3423 212.803 103 214.885 108.582C216.977 114.19 219.686 117.56 223.053 117.871L223.054 117.871C224.497 118.009 226 117.403 227.667 116.157C229.334 114.91 231.128 113.05 233.145 110.745C234.365 109.351 235.665 107.795 237.062 106.123C240.269 102.285 243.99 97.8325 248.44 93.3021C248.579 93.1605 248.794 93.1726 248.92 93.3291C249.045 93.4856 249.035 93.7273 248.895 93.8688C244.466 98.3782 240.78 102.79 237.581 106.619C236.177 108.299 234.867 109.866 233.629 111.281C231.607 113.593 229.771 115.5 228.043 116.793C226.314 118.086 224.656 118.791 222.996 118.632C219.22 118.283 216.368 114.53 214.259 108.877C212.141 103.198 210.716 95.4559 209.866 86.8346C209.845 86.6248 209.979 86.4359 210.166 86.4126Z" fill="#57F287"/>
<path d="M267.871 64.237C265.939 65.6879 259.382 63.2477 259.382 60.7415C259.382 59.3565 259.557 57.9056 259.967 56.5866C260.435 55.3335 261.021 53.9485 265.646 50.7828C270.271 47.6171 271.559 49.0681 272.027 50.519C272.496 51.9699 271.208 55.0037 269.861 57.9056C271.032 60.9394 270.212 62.4563 267.871 64.237Z" fill="#8CD9FF"/>
<path fill-rule="evenodd" clip-rule="evenodd" d="M267.241 53.205C267.476 53.0317 267.792 53.106 267.946 53.371C268.1 53.6359 268.034 53.9911 267.798 54.1644L267.52 53.6847L267.241 53.205ZM262.693 58.3072C263.28 58.4114 263.87 58.5259 264.374 58.6274C264.786 58.7102 265.143 58.7848 265.396 58.8386C265.523 58.8656 265.625 58.8873 265.694 58.9024L265.774 58.9197L265.802 58.9258C266.078 58.9864 266.258 59.2876 266.204 59.5983C266.151 59.909 265.883 60.1116 265.607 60.0509L265.58 60.0451L265.502 60.0281C265.433 60.0133 265.333 59.9917 265.208 59.9651C264.956 59.9118 264.603 59.8379 264.195 59.7558C263.378 59.5914 262.347 59.3953 261.48 59.2651C261.288 59.2363 261.128 59.0874 261.066 58.8809C261.003 58.6744 261.051 58.4461 261.188 58.2919C262.013 57.3616 263.542 56.0819 264.832 55.055C265.484 54.5367 266.086 54.0745 266.524 53.7421C266.744 53.5758 266.922 53.4418 267.046 53.3492C267.108 53.303 267.157 53.267 267.19 53.2426L267.228 53.2147L267.241 53.205C267.241 53.2049 267.241 53.205 267.52 53.6847L267.798 54.1644L267.786 54.1732L267.75 54.2002C267.718 54.224 267.67 54.2592 267.609 54.3048C267.487 54.3959 267.31 54.5283 267.093 54.6928C266.659 55.0219 266.064 55.479 265.42 55.9911C264.486 56.7341 263.471 57.5765 262.693 58.3072Z" fill="#66BCFF"/>
<path d="M265.646 150.634C260.611 150.634 255.927 147.864 253 143.313C248.843 136.718 244.804 128.342 242.755 121.351C239.242 109.612 241.818 103.28 246.619 96.4873C245.272 93.1897 243.984 90.9474 245.975 89.4305C247.965 87.9136 254.23 84.8139 262.25 83.7586C270.271 82.7034 270.271 83.1651 269.978 92.3324C274.311 100.84 276.184 107.435 277.179 120.428C281.043 125.374 282.273 132.299 280.341 138.564C278.292 145.753 272.379 150.634 265.646 150.634Z" fill="#FFE75C"/>
<path d="M258.328 134.212C250.893 135.201 247.907 134.212 246.385 130.914C248.317 135.201 250.541 139.356 253 143.313C255.927 147.864 260.611 150.634 265.646 150.634C272.379 150.634 278.292 145.753 280.341 138.564C282.273 132.299 281.043 125.374 277.179 120.428C273.491 127.814 265.763 133.156 258.328 134.212Z" fill="#FFE75C"/>
<path d="M286.43 149.71C284.615 147.072 282.331 143.841 278.292 138.301C278.058 136.388 277.355 131.178 274.545 126.627C274.369 126.429 274.135 126.363 273.901 126.495C273.725 126.693 273.667 127.023 273.842 127.221C276.594 131.64 277.238 136.85 277.472 138.564C277.472 138.696 277.472 138.762 277.531 138.828C281.805 144.698 284.146 147.996 286.02 150.7L286.43 149.71Z" fill="#FFC619"/>
<path d="M277.882 121.483L277.179 120.428C273.491 127.814 265.763 133.156 258.328 134.212C250.893 135.267 247.907 134.212 246.385 130.914C246.794 131.837 247.204 132.761 247.673 133.684C249.136 136.586 252.473 137.509 258.386 136.916C264.299 136.322 275.423 130.65 277.882 121.483Z" fill="black"/>
<path d="M269.978 92.3324C270.271 83.1651 270.33 82.7034 262.25 83.7586C254.171 84.8139 247.907 87.9136 245.975 89.4305C244.043 90.9474 245.272 93.1897 246.619 96.4873C244.628 99.5211 242.228 108.227 245.038 116.405C248.551 116.603 255.401 116.075 260.435 114.03C259.382 99.8509 265.47 93.8492 269.978 92.3324Z" fill="#0C1AAD"/>
<path fill-rule="evenodd" clip-rule="evenodd" d="M203.834 78.1527C203.834 77.9417 203.986 77.7706 204.173 77.7706C206.491 77.7706 208.091 78.456 209.25 79.7543C210.394 81.0355 211.068 82.8703 211.628 85.0629C211.932 86.2581 212.206 87.5668 212.5 88.9742C213.294 92.7775 214.239 97.3019 216.363 102.256C217.709 105.37 219.378 107.883 221.684 109.478C223.985 111.069 226.962 111.772 230.972 111.178C239.022 109.988 251.14 103.592 270.02 88.9182C270.174 88.7983 270.385 88.8419 270.492 89.0155C270.599 89.1892 270.56 89.4271 270.406 89.5471C251.523 104.222 239.287 110.719 231.061 111.936C226.933 112.547 223.792 111.832 221.329 110.129C218.871 108.43 217.129 105.775 215.753 102.59L215.752 102.589C213.592 97.5518 212.62 92.8968 211.822 89.0775C211.533 87.6925 211.267 86.4174 210.975 85.2738C210.422 83.1054 209.786 81.4323 208.771 80.296C207.772 79.1768 206.363 78.5349 204.173 78.5349C203.986 78.5349 203.834 78.3638 203.834 78.1527Z" fill="#57F287"/>
<path d="M266.583 84.9458C266.29 85.6712 265.704 86.2648 265.06 86.5946C250.951 93.7173 248.375 93.7173 247.028 90.8155C246.033 88.8369 244.979 86.9903 243.75 85.2096C238.598 85.935 231.924 87.5838 228.645 84.3522C225.367 81.1206 228.938 78.8782 232.158 77.6251C225.484 74.1956 221.971 70.5683 224.664 67.6005C227.357 64.6327 232.275 66.941 238.774 69.9088C247.38 59.9501 256.044 57.5758 265.529 61.9286C266.934 60.1479 268.866 59.0927 270.974 58.8949C274.252 58.763 277.004 61.9946 275.423 65.3581C272.027 72.9426 270.388 76.1742 266.583 84.9458Z" fill="#FF78B9"/>
<path fill-rule="evenodd" clip-rule="evenodd" d="M257.34 64.6935C257.44 64.9895 257.308 65.3203 257.044 65.4325L254.878 66.3558C254.615 66.4679 254.321 66.3188 254.222 66.0228C254.122 65.7268 254.254 65.3959 254.518 65.2838L256.684 64.3605C256.947 64.2483 257.241 64.3974 257.34 64.6935Z" fill="black"/>
<path fill-rule="evenodd" clip-rule="evenodd" d="M253.72 66.941C253.72 66.6244 253.948 66.3678 254.229 66.3678H256.513C256.794 66.3678 257.022 66.6244 257.022 66.941C257.022 67.2575 256.794 67.5141 256.513 67.5141H254.229C253.948 67.5141 253.72 67.2575 253.72 66.941Z" fill="black"/>
<path fill-rule="evenodd" clip-rule="evenodd" d="M252.976 67.7184C253.047 67.4123 253.326 67.2294 253.598 67.31L255.823 67.9689C256.095 68.0494 256.257 68.3629 256.186 68.669C256.114 68.9752 255.836 69.158 255.564 69.0775L253.339 68.4186C253.067 68.338 252.904 68.0245 252.976 67.7184Z" fill="black"/>
<path d="M237.251 75.3828C231.104 72.5469 228.879 70.8981 226.947 70.8981C226.186 70.8981 225.776 71.2278 225.894 71.6235C226.069 73.0085 230.226 75.5147 234.266 77.6251C230.753 79.2739 228.879 80.7249 230.05 82.0439C231.221 83.3629 237.193 82.8353 244.394 81.1865C250.658 79.8015 256.63 77.0316 261.899 72.9426C255.283 77.3613 247.028 79.8015 237.251 75.3828Z" fill="black"/>
<path d="M266.231 73.734C266.758 75.2509 265.47 76.1742 263.421 75.9104C261.372 75.6466 259.323 74.3276 258.62 72.8766C257.918 71.4257 258.855 70.1726 261.021 70.3705C263.187 70.5683 265.646 72.1512 266.231 73.734Z" fill="#EB459F"/>
<path d="M250.014 71.4257C247.907 72.415 245.916 72.5469 243.106 71.6895C244.979 68.7217 247.146 66.0836 249.312 64.7646C251.478 63.4455 254.757 63.4455 255.166 65.49C255.576 67.5345 253.234 69.9747 250.014 71.4257Z" fill="white"/>
<path d="M239.593 77.2294C234.91 78.7463 234.91 79.9994 235.729 80.3951C236.549 80.7908 240.003 80.4611 244.336 78.2187C242.755 78.0868 241.116 77.757 239.593 77.2294Z" fill="#D11583"/>
<path d="M269.978 92.3324C267.285 93.9152 264.826 98.2021 264.007 103.412C262.894 110.073 265.002 115.415 268.573 115.284C271.208 115.218 273.959 112.184 275.54 107.831C274.428 102.357 272.554 97.1468 269.978 92.3324Z" fill="#0C1AAD"/>
<path d="M269.978 92.3324C278.467 89.1007 287.074 85.4734 292.752 86.001C298.431 86.5286 298.314 92.3983 296.031 97.6744C293.748 102.951 285.376 117.592 285.376 117.592L277.472 110.865C284.029 100.444 285.61 97.8063 285.61 97.8063C278.702 101.038 270.095 105.589 270.095 105.589L269.978 92.3324Z" fill="url(#paint2_linear_8352_427502)"/>
<path d="M256.396 130.782C250.249 131.376 247.848 126.693 246.033 121.351C245.975 121.285 246.092 121.153 246.15 121.153C251.478 121.285 256.747 120.889 262.016 119.9C262.133 119.834 262.25 119.9 262.25 120.032C263.48 126.034 260.845 130.321 256.396 130.782Z" fill="#FFC619"/>
<path d="M283.151 98.9935C282.039 99.5211 281.278 96.0257 282.273 92.2005C283.268 88.3753 284.79 87.1222 286.195 86.7265C281.336 87.8476 275.657 90.2219 269.978 92.3324L266.524 99.2573C265.646 101.104 265.997 103.346 267.344 104.797C268.632 106.116 270.564 106.314 272.086 105.259C272.906 104.731 273.725 104.072 274.428 103.346L283.151 98.9935Z" fill="#0C1AAD"/>
<path d="M269.803 105.721C269.217 109.941 269.568 111.722 270.447 111.854C271.325 111.986 273.901 103.61 273.901 103.61L269.803 105.721Z" fill="black"/>
<path fill-rule="evenodd" clip-rule="evenodd" d="M255.44 123.347C255.464 123.662 255.256 123.94 254.976 123.967C252.898 124.167 250.765 124.167 248.697 124.034C248.416 124.016 248.202 123.745 248.218 123.429C248.234 123.113 248.475 122.871 248.755 122.889C250.785 123.02 252.868 123.019 254.889 122.825C255.169 122.797 255.416 123.031 255.44 123.347Z" fill="black"/>
<path d="M243.044 118.892C243.789 118.648 244.188 117.656 243.936 116.677C243.683 115.697 242.874 115.101 242.129 115.345C241.384 115.589 240.984 116.581 241.237 117.56C241.489 118.539 242.298 119.136 243.044 118.892Z" fill="white"/>
<path d="M263.07 114.294C263.128 115.415 262.426 116.339 261.431 116.405C260.494 116.339 259.733 115.415 259.733 114.36C259.557 113.305 260.201 112.25 261.138 112.052C261.196 112.052 261.255 112.052 261.314 112.052C262.309 111.986 263.07 113.041 263.07 114.294Z" fill="white"/>
<path d="M257.508 122.802C257.215 121.945 255.869 120.626 254.288 122.34C253.176 121.549 252.415 121.747 251.946 123.066C251.478 124.385 251.244 127.221 253.059 127.88C254.874 128.54 256.044 127.023 256.103 123.33C257.391 123.264 257.625 123.198 257.508 122.802Z" fill="#FF78B9"/>
<path fill-rule="evenodd" clip-rule="evenodd" d="M261.695 122.422C261.752 122.732 261.575 123.035 261.3 123.099C259.58 123.5 257.859 123.767 256.138 123.901C255.857 123.922 255.614 123.684 255.595 123.368C255.576 123.053 255.787 122.779 256.068 122.757C257.742 122.627 259.418 122.367 261.093 121.977C261.369 121.913 261.638 122.112 261.695 122.422Z" fill="black"/>
<path d="M253.059 127.88C251.244 127.221 251.478 124.319 251.946 123.066C252.063 122.802 252.181 122.538 252.298 122.34L253.937 122.934L256.103 122.143C256.162 122.538 256.162 122.934 256.103 123.33C256.045 127.023 255.049 128.606 253.059 127.88Z" fill="#FF78B9"/>
<path d="M252.883 126.693C252.708 126.693 252.59 126.495 252.649 126.297C252.825 124.187 253.117 122.868 253.761 122.011L254.288 122.34C253.761 123 253.352 124.121 253.176 126.429C253.176 126.561 253.059 126.693 252.942 126.693H252.883Z" fill="#EB459F"/>
<path d="M255.108 143.115L251.302 140.543L250.483 141.071C251.888 142.192 254.581 143.907 254.698 143.972H254.932C255.108 143.972 255.225 143.841 255.283 143.709C255.342 143.511 255.283 143.247 255.108 143.115Z" fill="black"/>
<path d="M245.799 72.2171C246.794 71.6895 247.614 70.8981 248.199 69.8429C249.078 68.326 248.785 67.0729 247.497 67.0729H247.204C246.677 67.1388 246.15 67.4686 245.799 67.9303C244.804 69.1174 243.926 70.3705 243.106 71.6895C243.984 71.9533 244.862 72.1512 245.799 72.2171Z" fill="black"/>
<path d="M285.551 97.8723L287.249 95.1683C287.366 94.9045 287.308 94.6407 287.132 94.4428C286.898 94.3109 286.664 94.3769 286.488 94.5747L284.088 98.5318L285.551 97.8723Z" fill="black"/>
<path d="M278.467 125.11C273.198 125.836 272.32 123 271.618 121.153C270.33 122.077 268.866 122.736 267.227 122.011C265.587 121.285 264.475 120.428 265.178 117.328C265.822 114.096 267.285 111.129 269.334 108.754C271.676 106.05 275.247 106.908 280.458 110.073C285.668 113.239 289.591 115.547 289.767 118.317C289.942 121.087 287.249 124.978 285.376 126.825C283.502 128.672 281.57 129.397 278.467 125.11Z" fill="#FF78B9"/>
<path fill-rule="evenodd" clip-rule="evenodd" d="M274.149 115.047C274.395 115.201 274.483 115.55 274.346 115.826L273.901 115.547L273.456 115.268C273.593 114.992 273.903 114.893 274.149 115.047ZM273.508 117.557C273.019 118.585 272.393 119.93 271.841 121.206C271.718 121.491 271.413 121.609 271.161 121.471C270.908 121.332 270.802 120.989 270.925 120.705C271.486 119.409 272.119 118.05 272.61 117.016C272.856 116.499 273.068 116.063 273.217 115.755C273.292 115.601 273.352 115.48 273.393 115.397L273.44 115.301L273.456 115.268L273.901 115.547L274.346 115.826L274.33 115.858L274.284 115.952C274.244 116.034 274.185 116.154 274.111 116.306C273.962 116.611 273.752 117.044 273.508 117.557Z" fill="black"/>
<path fill-rule="evenodd" clip-rule="evenodd" d="M281.966 120.987C282.177 121.196 282.197 121.559 282.011 121.796C281.126 122.925 280.174 124.066 279.156 125.078C278.945 125.288 278.623 125.265 278.437 125.028C278.251 124.791 278.271 124.429 278.481 124.219C279.454 123.252 280.375 122.151 281.247 121.038C281.433 120.801 281.755 120.778 281.966 120.987Z" fill="black"/>
<path d="M213.189 93.2557V93.3876C214.711 94.6407 216.234 95.8938 217.931 97.1468C218.985 94.3769 219.629 91.409 219.746 88.3753L213.189 93.2557Z" fill="black"/>
<path d="M211.609 91.6728C206.222 92.3324 202.241 92.5962 200.134 87.1222C198.026 81.6482 197.089 78.8123 197.089 78.8123C192.874 75.6466 190.005 72.2831 188.366 69.1833C187.429 67.3367 187.078 65.3581 188.542 64.5008C190.005 63.6434 190.825 64.8305 193.928 67.9962C197.031 71.1619 199.724 72.8107 202.827 73.6021C205.93 74.3935 211.491 71.1619 213.189 78.3506C214.887 85.5393 219.571 90.6836 211.609 91.6728Z" fill="#EB459F"/>
<path d="M193.928 67.9962C190.825 64.8305 190.064 63.6434 188.542 64.5008C187.019 65.3581 187.429 67.3367 188.366 69.1833C190.005 72.2831 192.874 75.6466 197.089 78.8123L203.236 79.7356L202.827 73.6021C199.724 72.8107 197.44 71.5576 193.928 67.9962Z" fill="#FF78B9"/>
<path d="M213.482 84.3522C213.95 81.3844 212.252 78.5485 209.618 77.9549C209.267 77.889 208.857 77.823 208.447 77.889L199.431 78.0868C196.094 78.2847 193.342 81.0546 192.757 84.7479L189.947 107.633C189.537 110.799 191.469 113.767 194.279 114.228C194.513 114.294 194.806 114.294 195.04 114.294L203.88 114.558C207.218 114.492 210.028 111.788 210.555 108.095L213.482 84.3522Z" fill="white"/>
<path d="M206.398 88.8368C206.573 88.7049 206.749 88.7709 206.866 88.9028C206.983 89.0347 206.983 89.2985 206.866 89.4304L204.759 92.3982L209.442 93.5194C209.442 93.6513 209.442 93.7832 209.384 93.8491C209.384 93.981 209.325 94.1129 209.325 94.1789L204.349 95.3001L205.695 98.2679C205.754 98.3998 205.695 98.6636 205.578 98.7955C205.52 98.8615 205.403 98.9274 205.285 98.9274C205.227 98.9274 205.168 98.9274 205.11 98.8615L202.709 96.8829L201.012 102.291C200.895 102.291 200.778 102.291 200.719 102.291C200.602 102.291 200.485 102.291 200.426 102.291L200.075 96.8829L197.206 98.8615C197.148 98.9274 197.089 98.9274 196.972 98.9274C196.855 98.9274 196.796 98.8615 196.738 98.7955C196.621 98.6636 196.621 98.3998 196.738 98.2679L198.845 95.3001L194.162 94.1789C194.162 94.047 194.162 93.9151 194.22 93.8491C194.22 93.7172 194.279 93.5853 194.279 93.5194L199.255 92.3982L197.909 89.4304C197.85 89.2985 197.909 89.0347 198.026 88.9028C198.202 88.7709 198.377 88.7049 198.494 88.8368L200.895 90.8154L202.592 85.4073C202.709 85.4073 202.827 85.4073 202.885 85.4073C203.002 85.4073 203.119 85.4073 203.178 85.4073L203.529 90.8154L206.398 88.8368Z" fill="white"/>
<path d="M209.384 94.245C208.681 98.7297 205.051 102.291 201.07 102.489L202.768 97.0809L205.169 99.0594C205.227 99.1254 205.286 99.1254 205.344 99.1254C205.461 99.1254 205.52 99.0594 205.637 98.9935C205.754 98.8616 205.813 98.5978 205.754 98.4659L204.407 95.498L209.384 94.245ZM203.529 90.8155L206.398 88.8369C206.574 88.705 206.749 88.771 206.866 88.9029C206.983 89.0348 206.983 89.2986 206.866 89.4305L204.759 92.3983L209.442 93.5195C209.852 89.0348 207.101 85.4734 203.178 85.2755L203.529 90.8155ZM200.895 90.8155L202.593 85.4074C198.611 85.6053 194.982 89.1667 194.279 93.6514L199.255 92.5302L197.909 89.5624C197.85 89.4305 197.909 89.1667 198.026 89.0348C198.202 88.9029 198.377 88.8369 198.494 88.9688L200.895 90.8155ZM196.738 98.9275C196.621 98.7956 196.621 98.5318 196.738 98.3999L198.846 95.4321L194.162 94.3109C193.752 98.7297 196.504 102.357 200.426 102.555L200.075 97.1468L197.206 99.1254C197.148 99.1913 197.089 99.1913 196.972 99.1913C196.914 99.0594 196.797 98.9935 196.738 98.9275Z" fill="url(#paint3_linear_8352_427502)"/>
<path d="M205.578 109.744C206.574 109.744 207.452 108.952 207.569 107.831C207.686 106.908 207.101 106.05 206.281 105.852C206.222 105.852 206.105 105.852 206.047 105.852L194.63 105.721C193.635 105.721 192.757 106.512 192.64 107.633C192.523 108.556 193.167 109.414 193.986 109.546C194.045 109.546 194.103 109.546 194.162 109.546L205.578 109.744Z" fill="#FFC619"/>
<path d="M207.686 71.6235C205.52 68.6557 204.349 67.4026 201.89 67.8643C199.431 68.326 199.255 70.3045 198.494 74.5254C197.733 78.7463 198.084 80.3292 200.426 80.593C202.768 80.8568 204.817 76.7018 207.686 71.6235Z" fill="#FF78B9"/>
<path d="M219.044 83.363C216.819 81.912 215.531 80.2632 215.18 75.9764C214.828 71.6895 213.482 69.645 210.379 68.7876C207.276 67.9303 205.52 69.4471 203.588 74.0638C201.656 78.6804 200.485 82.3077 202.885 83.1651C205.286 84.0225 207.393 81.6482 210.613 75.8445C212.838 79.6037 214.184 81.5823 213.54 86.1329C210.028 88.5731 207.744 90.7495 208.623 92.9919C209.501 95.2343 212.311 96.0257 217.346 92.5962C222.381 89.1667 221.971 85.3415 219.044 83.363Z" fill="#FF78B9"/>
<path d="M215.18 75.9764C215.121 75.3168 215.004 74.6573 214.887 73.9978C214.009 69.7109 213.014 71.4257 210.613 75.8444C212.838 79.6037 214.185 81.5823 213.541 86.1329L214.243 85.6053C215.824 84.3522 216.526 81.978 215.824 79.9335C215.473 78.6804 215.238 77.2954 215.18 75.9764Z" fill="#EB459F"/>
<path fill-rule="evenodd" clip-rule="evenodd" d="M204.913 70.6597C205.127 70.865 205.153 71.2267 204.971 71.4677C203.357 73.5985 202.559 76.1867 201.861 79.8556C201.802 80.1651 201.531 80.3623 201.256 80.2961C200.981 80.2298 200.806 79.9251 200.865 79.6156C201.572 75.8979 202.413 73.078 204.195 70.7242C204.378 70.4833 204.699 70.4544 204.913 70.6597Z" fill="black"/>
<path d="M64.0736 183.346H98.2642C100.138 183.346 100.43 180.905 99.7863 179.652C99.1423 178.399 98.0885 177.806 95.454 178.004C92.8194 178.201 92.5852 178.267 91.9412 177.806C88.7212 175.036 86.0867 172.859 81.9885 171.013C81.9885 171.013 82.3398 166.99 82.6911 161.648L68.5816 160.131C67.8791 166.396 67.5863 171.079 67.5863 171.079C63.0783 175.3 60.6194 179.982 64.0736 183.346Z" fill="url(#paint4_linear_8352_427502)"/>
<path d="M52.2474 158.482C52.5401 164.022 53.1255 171.738 53.1255 171.738C57.2823 173.519 59.4485 174.904 61.7903 177.08C62.727 178.004 63.0783 178.004 64.6004 178.201C66.1226 178.399 67.5863 179.652 67.3521 181.235C67.1179 182.818 66.2983 183.346 64.0735 183.346H31.7564C29.7659 178.267 32.6932 175.761 35.679 172.661L35.5619 158.944L52.2474 158.482Z" fill="#FFE75C"/>
<path d="M88.4871 84.2203L28.6536 82.6374C28.8877 116.471 29.7659 137.113 31.4637 167.319C31.5808 170.023 35.035 169.957 46.6856 168.968C56.287 168.177 55.9943 165.473 55.9358 164.615C55.8772 163.758 55.5259 160.724 55.1747 157.559C55.8772 143.775 56.8139 133.156 58.3947 113.437C58.3947 113.437 63.0198 113.833 66.3569 113.041C66.2398 129.859 66.1812 147.204 64.659 163.164C64.2492 167.122 64.8932 167.715 75.1972 168.704C85.5012 169.694 85.5012 169.232 85.9111 164.945C88.5456 139.818 90.2434 115.547 88.4871 84.2203Z" fill="#57F287"/>
<path d="M83.7449 108.754C83.6278 108.82 70.8064 112.382 66.3569 113.107V114.096C70.7478 113.437 83.4522 109.875 83.9791 109.744C84.2133 109.678 84.3304 109.414 84.2719 109.216C84.2719 109.216 84.2719 109.216 84.2719 109.15C84.2133 108.886 83.9791 108.688 83.7449 108.754Z" fill="#29CC7A"/>
<path d="M48.2664 112.316C48.0322 112.25 47.798 112.448 47.7395 112.711C47.7395 112.975 47.9151 113.239 48.1493 113.305C48.2079 113.305 53.2428 114.096 58.3362 114.426C58.3362 114.096 58.3948 113.767 58.3948 113.437C53.3599 113.107 48.325 112.316 48.2664 112.316Z" fill="#29CC7A"/>
<path d="M71.8017 112.448C71.5675 112.514 71.3919 112.711 71.3919 112.975C71.9188 124.781 71.3334 149.974 70.865 168.243H71.7432C72.2115 150.04 72.797 124.715 72.2701 112.843C72.2115 112.579 72.0359 112.448 71.8017 112.448Z" fill="#29CC7A"/>
<path d="M61.6147 113.569L63.3711 113.437C65.9471 110.865 65.6544 104.995 65.186 95.0363C65.0689 94.7725 64.7762 94.6406 64.542 94.7725C64.4249 94.8385 64.3078 94.9704 64.3078 95.1023C64.8347 106.842 64.9518 111.986 61.6147 113.569Z" fill="#29CC7A"/>
<path fill-rule="evenodd" clip-rule="evenodd" d="M67.5627 94.9914C67.8437 94.9768 68.082 95.2213 68.095 95.5375C68.3026 100.58 67.6384 103.615 66.8831 105.413C66.5051 106.313 66.1057 106.9 65.786 107.269C65.6264 107.454 65.4878 107.583 65.3832 107.669C65.331 107.713 65.2874 107.745 65.254 107.768C65.2374 107.78 65.2233 107.789 65.212 107.796L65.1971 107.806L65.1913 107.809L65.1888 107.811L65.1877 107.811C65.1872 107.812 65.1866 107.812 64.9581 107.317L65.1866 107.812C64.9371 107.958 64.6296 107.849 64.4999 107.568C64.3714 107.289 64.4655 106.947 64.7099 106.799C64.7112 106.798 64.7138 106.796 64.7177 106.794C64.7287 106.786 64.7501 106.77 64.7803 106.745C64.8406 106.696 64.9367 106.608 65.0561 106.47C65.2944 106.194 65.6305 105.713 65.9623 104.923C66.6267 103.341 67.2799 100.506 67.0776 95.5905C67.0646 95.2743 67.2818 95.0061 67.5627 94.9914ZM64.7091 106.799C64.709 106.8 64.709 106.8 64.709 106.8L64.709 106.8C64.709 106.8 64.709 106.8 64.7091 106.799Z" fill="#29CC7A"/>
<path d="M36.6742 88.7709C36.44 88.7709 36.2644 88.9688 36.2644 89.2326V159.273C36.2644 159.339 36.7328 165.407 37.2011 169.562H38.1379C37.6109 165.407 37.1426 159.273 37.1426 159.273V89.2326C37.084 88.9688 36.9084 88.7709 36.6742 88.7709Z" fill="#29CC7A"/>
<path d="M88.8383 91.0133L88.487 84.2203L28.6536 82.6374C28.6536 84.2862 28.7121 85.935 28.7121 87.5178C31.5808 93.3216 49.7885 97.1468 64.7176 97.3446C78.183 97.4765 86.9063 94.179 88.8383 91.0133Z" fill="black"/>
<path fill-rule="evenodd" clip-rule="evenodd" d="M48.2078 88.1978C48.489 88.1978 48.717 88.4544 48.717 88.7709V96.6192C48.717 96.9357 48.489 97.1923 48.2078 97.1923C47.9265 97.1923 47.6985 96.9357 47.6985 96.6192V88.7709C47.6985 88.4544 47.9265 88.1978 48.2078 88.1978Z" fill="#57F287"/>
<path fill-rule="evenodd" clip-rule="evenodd" d="M34.1567 83.9769C34.438 83.9769 34.666 84.2335 34.666 84.55V92.3983C34.666 92.7148 34.438 92.9714 34.1567 92.9714C33.8755 92.9714 33.6475 92.7148 33.6475 92.3983V84.55C33.6475 84.2335 33.8755 83.9769 34.1567 83.9769Z" fill="#57F287"/>
<path fill-rule="evenodd" clip-rule="evenodd" d="M82.0471 87.0766C82.3284 87.0766 82.5564 87.3332 82.5564 87.6498V95.564C82.5564 95.8805 82.3284 96.1371 82.0471 96.1371C81.7659 96.1371 81.5378 95.8805 81.5378 95.564V87.6498C81.5378 87.3332 81.7659 87.0766 82.0471 87.0766Z" fill="#57F287"/>
<path d="M59.2144 97.0809C63.1369 97.4766 67.118 97.4766 71.0405 97.1468V89.9581H59.2144V97.0809Z" fill="#FF78B9"/>
<path d="M38.6064 5.8697C34.8009 3.89115 30.7613 2.1764 29.9416 2.0445C29.122 1.9126 29.122 1.9126 29.9416 7.51849C30.7613 13.1244 31.9322 15.1029 38.6064 5.8697Z" fill="black"/>
<path d="M121.741 62.0605C122.326 54.7399 119.282 48.5404 114.306 43.5281C118.697 28.2273 113.31 17.741 103.065 15.037L94.1074 57.9056C94.1074 69.3152 97.5616 72.8766 102.362 76.5039C101.894 88.5731 104.353 99.7189 113.603 101.829C122.853 103.94 130.815 92.9259 132.221 75.8444C133.626 58.7629 121.741 62.0605 121.741 62.0605Z" fill="url(#paint5_linear_8352_427502)"/>
<path fill-rule="evenodd" clip-rule="evenodd" d="M106.488 43.5056C106.628 43.2314 106.94 43.1373 107.183 43.2954C112.711 46.8827 115.303 52.9659 115.798 55.473C115.859 55.7821 115.686 56.0882 115.411 56.1568C115.137 56.2254 114.865 56.0305 114.804 55.7215C114.361 53.4801 111.919 47.692 106.674 44.2884C106.431 44.1303 106.347 43.7798 106.488 43.5056Z" fill="#FFC619"/>
<path d="M131.752 79.7356C131.986 78.4165 132.103 77.1634 132.221 75.8444C132.572 71.6235 132.103 68.6557 131.225 66.5452L119.633 66.9409C121.741 74.5913 127.537 78.4165 131.752 79.7356Z" fill="black"/>
<path fill-rule="evenodd" clip-rule="evenodd" d="M119.219 62.1027C119.425 62.3184 119.436 62.6811 119.245 62.9128L108.004 76.4988C107.812 76.7305 107.49 76.7434 107.284 76.5277C107.078 76.312 107.067 75.9493 107.259 75.7176L118.499 62.1316C118.691 61.8999 119.013 61.887 119.219 62.1027Z" fill="#FFA20D"/>
<path d="M38.6063 5.86971C67.8791 7.25469 78.71 9.29919 103.065 15.037C106.285 38.5158 98.7911 50.5849 91.4144 66.6771C91.9998 80.9227 92.5853 87.1221 84.506 90.024C74.846 93.5195 57.1653 93.3216 38.9576 88.4412C22.0965 83.9565 24.7896 80.3951 25.8434 63.3136C27.0729 43.0005 23.2089 19.5876 38.6063 5.86971Z" fill="white"/>
<path d="M55.2332 37.3286C62.9026 53.8825 76.0753 64.105 87.9015 59.2246C99.7277 54.3442 74.6117 19.6536 55.2332 37.3286Z" fill="#8CD9FF"/>
<path d="M72.3871 17.3453C83.8034 18.3346 85.7354 29.6783 79.998 57.246C78.7685 63.1817 78.5929 63.9072 79.0613 65.8198C79.5296 67.7324 81.0518 72.349 81.286 77.8889C81.4031 79.7356 81.2274 81.1205 82.3984 81.1205C83.5693 81.1205 86.9649 81.1205 93.1122 78.7463C94.4002 78.2846 94.6344 78.0208 94.81 64.6326C99.3765 58.631 110.559 41.8793 103.065 15.037C78.1245 8.24396 58.6289 5.93566 38.6063 5.86971C26.7216 12.0032 26.2532 28.8209 24.614 58.5651C23.97 70.2385 21.3354 74.8551 31.4638 77.9549C41.5921 81.0546 53.4183 81.1205 56.7554 81.1205C60.0925 81.1205 60.2096 80.6589 60.2096 75.7785C60.1511 72.5468 61.2634 49.7935 60.8536 37.9882C60.4438 26.1828 59.7998 16.2241 72.3871 17.3453Z" fill="black"/>
<path d="M60.8537 37.9882C61.0879 45.5067 60.7951 57.4439 60.5024 66.0176C58.746 58.8948 55.526 51.3763 54.6479 49.134C53.7697 46.8916 53.5355 46.2981 55.9359 43.5281C51.2522 40.8241 50.9595 41.1538 52.1889 37.5925C53.4184 34.0311 55.526 25.5892 61.7904 20.3131C62.61 19.6536 63.4882 19.1919 64.425 18.9281C60.0926 22.1598 60.5024 29.6123 60.8537 37.9882Z" fill="#5865F2"/>
<path d="M80.2322 19.6536L78.4758 19.5217C84.2718 24.0064 84.506 35.6798 79.998 57.246C78.9442 62.3243 78.6515 63.5774 78.8857 65.0283C80.4078 62.3243 85.794 54.1463 87.6675 51.1125C89.5409 48.0788 88.1944 48.0788 86.438 44.0557C90.5948 42.0112 91.5315 42.0112 91.1802 39.9667C90.8289 37.9222 88.5457 29.2166 80.2322 19.6536Z" fill="#5865F2"/>
<path d="M88.3113 32.3163C88.0772 27.5018 85.6182 23.2809 81.8713 20.445L81.6957 18.5324C80.9932 11.2118 78.183 5.47398 70.7477 5.47398C63.3124 5.47398 60.9121 10.4863 60.4437 18.2686C60.4437 18.7962 60.3851 19.3238 60.3851 19.8514C56.1699 22.6874 53.5353 27.304 53.3597 32.5801C53.1255 41.5495 61.6731 47.2873 71.2746 47.2873C80.8761 47.2873 88.7797 41.2857 88.3113 32.3163Z" fill="#FFE75C"/>
<path d="M78.6514 14.5753C79.5882 17.4112 81.7544 19.5217 83.2765 18.0048C84.7987 16.4879 82.6325 13.586 80.4078 10.948C82.2227 11.0799 83.5693 9.43109 81.8129 7.98016C80.0565 6.52922 76.9536 4.94638 70.8649 4.94638C64.7762 4.94638 61.7318 8.90348 59.39 12.267C57.0482 15.6305 57.0481 17.4772 58.1605 18.5324C59.2729 19.5876 63.3125 18.9941 65.3031 14.2456C65.83 15.9603 66.8838 16.9496 68.8158 16.6858C70.7478 16.422 72.0943 14.1137 72.3871 12.0032C73.8507 15.2348 74.4362 16.8836 76.4267 17.0815C78.4173 17.2793 78.5343 15.8284 78.6514 14.5753Z" fill="#EB459F"/>
<path d="M71.626 5.47399C71.5089 2.0445 71.8601 0 72.6798 0C73.4994 0 73.3238 1.84665 72.5041 4.74852C75.0216 1.78069 76.0754 1.64879 76.4267 2.11045C76.778 2.57211 76.6609 3.9571 71.626 5.47399Z" fill="#EB459F"/>
<path d="M77.4807 20.3131C79.0028 20.3791 79.5883 21.0386 79.4712 22.6874C79.2956 24.0064 78.3003 24.9297 77.1294 24.8638C75.7243 24.9297 74.4948 23.8745 74.2607 22.3576C74.0265 21.4343 73.6167 21.3024 73.3239 21.3024C73.0312 21.3024 72.6214 21.5002 72.3287 22.2917C71.9188 23.8086 70.6308 24.7319 69.2258 24.6C68.0548 24.6659 67.1181 23.6107 67.0596 22.2917V22.2257C67.1181 20.5769 67.8207 20.1153 69.2843 20.0493C72.2701 19.9834 75.7243 20.1153 77.4807 20.3131Z" fill="black"/>
<path d="M62.3174 25.3254C61.5563 26.5126 61.5563 28.1613 62.3174 29.3485C63.6054 31.1951 65.4788 30.7994 67.0595 29.8761C66.6497 31.5908 66.7668 33.8991 68.8744 34.7565C70.9821 35.6139 72.6214 34.5587 73.7337 32.712C74.085 34.097 74.9632 35.2841 76.7195 34.8225C78.1246 34.3608 78.9443 32.6461 78.5345 31.0632C78.4759 30.8654 78.4174 30.7335 78.3588 30.5356C79.1784 31.1292 80.5835 31.9206 81.813 30.8654C83.0425 29.8101 82.9839 28.1613 82.2228 26.7104C84.5061 26.8423 84.7988 24.9957 84.5061 24.0064C84.2134 23.0171 83.0424 22.2916 81.4032 23.2809C79.7639 24.2702 75.7828 27.1721 73.5581 28.689L63.6639 22.3576C61.3806 20.8407 60.4439 21.6321 60.0926 22.4895C59.7414 23.3469 59.7414 25.3914 62.3174 25.3254Z" fill="#EB459F"/>
<path fill-rule="evenodd" clip-rule="evenodd" d="M67.2619 39.0633C67.4787 38.8616 67.7997 38.8959 67.9789 39.1398C68.5633 39.9353 69.962 40.7053 71.682 40.8629C73.3755 41.018 75.2833 40.567 76.8591 39.0674C77.0738 38.863 77.3952 38.8933 77.5768 39.135C77.7584 39.3767 77.7315 39.7383 77.5167 39.9427C75.6968 41.6747 73.5065 42.1801 71.5994 42.0054C69.7189 41.8332 68.0147 40.9874 67.1939 39.8703C67.0147 39.6263 67.0452 39.265 67.2619 39.0633Z" fill="#FFC619"/>
<path d="M108.275 39.7688L112.198 36.1415C113.018 35.2182 112.608 34.6246 111.847 33.7013C111.086 32.778 108.451 29.5463 107.631 28.7549C106.812 27.9635 106.87 27.7656 107.28 27.238C109.622 23.6107 110.617 22.0938 110.617 21.6321C110.617 21.1705 109.446 20.445 107.105 18.9281C107.046 18.9281 107.046 18.8622 107.046 18.7962C108.861 16.0262 110.851 13.3882 110.5 13.0584C110.149 12.7287 107.339 13.586 103.065 15.037L94.9856 61.6648L98.7911 62.72C99.8449 63.0498 99.962 63.0498 100.079 62.3903C100.196 61.7307 100.43 59.2905 100.489 58.7629C100.547 58.2353 100.723 58.2353 101.367 58.3013L105.173 59.0267C106.636 59.2905 106.987 59.4884 106.695 58.3013C106.402 57.1141 105.29 53.9484 105.055 53.2889C104.821 52.6294 104.646 52.2997 105.29 52.0358C105.934 51.772 108.1 50.8487 109.798 49.9913C111.495 49.134 111.32 48.6064 110.969 47.5511C110.207 45.6385 109.388 43.7919 108.393 42.0112C107.631 40.6262 107.573 40.4943 108.275 39.7688Z" fill="black"/>
<path d="M38.6063 5.8697C26.019 5.47399 14.5441 11.4756 15.715 33.7013C8.51392 38.7136 6.05501 45.3088 7.92846 56.5865C2.3081 62.72 -2.37554 70.7661 1.31282 80.2632C5.00119 89.7602 16.0077 88.3752 25.4336 87.5179L38.9576 69.1833C35.7961 67.6005 32.1077 67.0069 28.595 65.6879C35.9717 61.467 39.0161 55.1356 38.6063 44.979C46.9198 34.6906 47.3296 15.3667 38.6063 5.8697Z" fill="url(#paint6_linear_8352_427502)"/>
<path fill-rule="evenodd" clip-rule="evenodd" d="M31.9088 42.341C32.1677 42.2173 32.4667 42.3532 32.5766 42.6446C33.116 44.0743 33.2476 45.8031 33.1874 47.3617C33.1271 48.9244 32.8712 50.3818 32.5891 51.2999C32.4972 51.599 32.2072 51.7577 31.9414 51.6542C31.6755 51.5508 31.5346 51.2244 31.6265 50.9252C31.8713 50.1285 32.113 48.783 32.1698 47.3119C32.2268 45.8367 32.0949 44.3009 31.639 43.0926C31.5291 42.8012 31.6499 42.4647 31.9088 42.341Z" fill="#FFB012"/>
<path fill-rule="evenodd" clip-rule="evenodd" d="M12.165 59.3543C12.1985 59.04 12.452 58.8157 12.7312 58.8533C18.1546 59.5838 23.4626 60.9787 28.5954 63.1055C28.8593 63.2148 28.9945 63.5443 28.8974 63.8414C28.8002 64.1384 28.5074 64.2906 28.2435 64.1812C23.1893 62.087 17.9592 60.712 12.6102 59.9915C12.3309 59.9539 12.1316 59.6686 12.165 59.3543Z" fill="#FFA20D"/>
<path d="M40.3628 45.5066L36.089 44.3855C35.5035 44.1876 35.445 43.9898 36.089 43.3302L39.8944 39.1753C40.3628 38.6477 40.3628 38.5158 39.6603 37.5925L35.6206 32.8439C35.0937 32.2504 35.0937 32.1185 35.6206 31.2611C36.1475 30.4037 39.1919 26.2488 39.7188 25.5233C40.2457 24.7978 40.1872 24.4021 39.3675 23.8086C38.5479 23.215 34.8595 20.5769 33.6886 19.7855C32.5177 18.9941 32.4592 18.7962 33.0446 18.0048L36.733 13.1244C37.2599 12.4649 37.2599 12.2011 36.2646 11.0799C35.2693 9.95871 30.6443 4.28686 29.4148 2.11046L38.6064 5.8697L50.0814 12.267L47.9152 40.956L40.3628 45.5066Z" fill="black"/>
<path fill-rule="evenodd" clip-rule="evenodd" d="M46.3223 29.3713C46.6024 29.4001 46.8087 29.679 46.7831 29.9942C46.3687 35.0951 44.9964 41.3864 43.7361 46.3805C43.1047 48.8823 42.4991 51.0674 42.0513 52.6274C41.8273 53.4074 41.6428 54.0314 41.5141 54.4608C41.4497 54.6755 41.3993 54.8415 41.365 54.9541L41.3257 55.0823L41.3122 55.1259C41.3122 55.126 41.312 55.1267 40.8312 54.9377C40.3504 54.7488 40.3504 54.7488 40.3504 54.7487L40.3535 54.7386L40.3632 54.7071L40.4017 54.5817C40.4354 54.471 40.4852 54.307 40.5489 54.0944C40.6764 53.6692 40.8596 53.0499 41.082 52.2749C41.527 50.7248 42.1289 48.5531 42.7563 46.0673C44.0134 41.0862 45.3634 34.8796 45.7687 29.8899C45.7943 29.5747 46.0422 29.3425 46.3223 29.3713ZM40.6633 55.4788C40.3977 55.3745 40.2577 55.0475 40.3504 54.7487L40.8312 54.9377L41.312 55.1267C41.2192 55.4256 40.9288 55.5832 40.6633 55.4788Z" fill="#0C1AAD"/>
<path d="M129.41 51.2444C132.104 53.6847 135.031 54.8718 136.729 52.5635C138.426 50.2552 136.202 48.0788 133.86 45.4407C132.162 38.252 128.649 37.7903 125.839 38.8455C123.029 39.9008 121.975 44.3855 121.975 50.0573C117.467 56.5206 114.189 62.2584 118.872 68.7216C128.005 68.3919 130.464 58.8289 129.41 51.2444Z" fill="#FFE75C"/>
<path d="M130.698 42.4729C120.043 57.5099 115.242 64.105 118.872 68.7216C122.502 73.3383 127.01 75.053 133.216 75.8444C139.422 76.6358 141.763 74.987 141.939 66.9409C143.754 66.9409 145.569 66.2814 146.506 64.2369C147.442 62.1924 147.267 60.2139 145.686 57.1142C148.086 55.5313 149.843 53.223 149.023 50.0573C148.203 46.8916 146.213 46.1662 142.173 45.111L130.698 42.4729Z" fill="#FFE75C"/>
<path d="M127.127 48.4085C125.254 45.1769 124.961 46.0343 124.902 47.2873C124.844 48.5404 128.825 58.4991 124.902 65.6879L133.801 52.1018L127.127 48.4085Z" fill="#FFC619"/>
<path d="M44.4023 46.6938H33.6299C32.2834 46.6938 31.1125 47.749 30.8198 49.2659L28.3608 63.6433H43.5241L46.0416 48.8702C46.2172 47.8809 45.6318 46.8916 44.695 46.6938C44.6365 46.6938 44.5194 46.6938 44.4023 46.6938Z" fill="#EB459F"/>
<path d="M44.9293 47.4193H34.0398C32.986 47.4193 32.1078 48.2107 31.9322 49.3978L29.3562 64.3688H43.4071L46.0417 48.8702C46.1588 48.2107 45.7489 47.5512 45.1049 47.4193C45.0464 47.4193 44.9878 47.4193 44.9293 47.4193Z" fill="#D11583"/>
<path d="M21.3938 63.7093C23.1502 57.9715 25.1992 57.7737 31.3465 55.927C37.4938 54.0804 39.8356 55.0696 43.5825 56.9822C47.3294 58.8948 47.0367 61.6648 46.8025 63.9072C46.5683 66.1495 46.2171 67.2048 43.6996 68.9854C45.9829 72.4149 46.5683 74.1297 42.9385 79.6696C43.9923 85.0117 43.6411 88.5731 38.6647 89.7602C33.6883 90.9473 26.4872 91.9366 22.916 87.7817C17.8225 81.7141 16.1832 80.9886 21.3938 63.7093Z" fill="#FFE75C"/>
<path d="M40.9482 116.668H34.6838C32.5761 116.603 30.9369 114.624 30.9954 112.25C31.054 109.875 32.8103 108.029 34.918 108.095C63.9565 109.084 86.438 103.148 103.592 89.9581C118.638 78.4825 129.703 61.1372 137.431 36.9989C138.134 34.7565 140.358 33.6354 142.349 34.4268C144.339 35.2182 145.335 37.7244 144.632 39.9667C136.26 65.8198 124.258 84.4841 107.866 97.0808C91.4729 109.678 68.6987 116.668 40.9482 116.668Z" fill="#66BCFF"/>
<path d="M144.281 47.1554C140.358 47.4852 138.602 48.8042 137.548 51.838C136.494 54.8718 138.251 56.3227 143.11 56.3887C147.969 56.4546 144.281 47.1554 144.281 47.1554Z" fill="#FFE75C"/>
<path d="M138.426 66.6771C135.616 66.6771 133.567 64.5667 132.572 63.1157C131.577 61.6648 131.811 59.8841 133.45 58.3672C135.089 56.8503 136.904 57.246 138.719 58.9608C140.534 60.6755 138.426 66.6771 138.426 66.6771Z" fill="#FFE75C"/>
<path d="M136.26 73.3383C133.45 73.3383 131.401 71.2938 130.406 69.8428C129.41 68.3919 129.645 66.5452 131.284 65.0943C132.923 63.6434 134.738 63.9731 136.553 65.6219C138.368 67.2707 136.26 73.3383 136.26 73.3383Z" fill="#FFE75C"/>
<path d="M128.883 50.519C131.635 53.0251 134.562 54.1463 136.26 51.838C137.958 49.5297 135.733 47.3533 133.391 44.7812C131.05 42.2091 127.712 42.5388 126.659 43.9898C125.605 45.4407 126.249 48.0788 128.883 50.519Z" fill="#FFE75C"/>
<path fill-rule="evenodd" clip-rule="evenodd" d="M125.611 46.3129C125.863 46.1715 126.169 46.2864 126.295 46.5696C127.299 48.8332 128.92 50.6619 130.883 51.862C131.13 52.0131 131.221 52.3611 131.087 52.6393C130.953 52.9174 130.644 53.0204 130.397 52.8692C128.261 51.5631 126.486 49.5666 125.383 47.0818C125.258 46.7986 125.36 46.4544 125.611 46.3129Z" fill="black"/>
<path fill-rule="evenodd" clip-rule="evenodd" d="M133.37 64.5253C133.52 64.2573 133.834 64.1768 134.073 64.3454C136.05 65.7452 138.314 66.5761 140.699 66.832C140.979 66.8621 141.185 67.1419 141.158 67.457C141.131 67.7721 140.883 68.0032 140.603 67.9732C138.071 67.7015 135.651 66.8176 133.53 65.3156C133.292 65.147 133.22 64.7932 133.37 64.5253Z" fill="black"/>
<path fill-rule="evenodd" clip-rule="evenodd" d="M138.244 55.9178C138.346 55.6226 138.641 55.476 138.903 55.5904C140.669 56.3606 142.491 56.8094 144.37 56.9377C144.651 56.9569 144.865 57.2286 144.848 57.5445C144.831 57.8605 144.589 58.1011 144.309 58.0819C142.324 57.9464 140.399 57.472 138.535 56.6593C138.273 56.5449 138.143 56.2129 138.244 55.9178Z" fill="black"/>
<path fill-rule="evenodd" clip-rule="evenodd" d="M110.657 73.0363C110.676 73.3521 110.463 73.6253 110.183 73.6463C109.348 73.7089 108.505 73.8975 107.646 74.1553C107.374 74.2369 107.095 74.0551 107.022 73.7492C106.95 73.4434 107.111 73.1293 107.383 73.0477C108.28 72.7784 109.193 72.5717 110.115 72.5025C110.396 72.4815 110.638 72.7205 110.657 73.0363Z" fill="#FFA20D"/>
<path fill-rule="evenodd" clip-rule="evenodd" d="M120.361 98.2341C120.507 98.5047 120.431 98.8572 120.19 99.0216C118.459 100.206 116.354 100.766 114.303 100.486C114.024 100.448 113.825 100.162 113.858 99.8478C113.892 99.5335 114.146 99.3097 114.425 99.3478C116.238 99.5953 118.114 99.1001 119.661 98.042C119.902 97.8776 120.215 97.9636 120.361 98.2341Z" fill="#FFA20D"/>
<path d="M15.7151 33.7013L14.837 34.3608C15.0126 36.6691 15.1882 38.6477 15.2468 39.3731C12.8464 41.2857 11.09 44.1217 10.329 47.3533C10.2704 47.6171 10.3875 47.8809 10.5631 47.9469C10.5631 47.9469 10.5631 47.9469 10.6217 47.9469H10.7388C10.9144 47.9469 11.09 47.815 11.1486 47.6171C11.8511 44.5833 13.4904 41.8793 15.8322 40.0986C16.0664 39.9667 16.1835 39.7029 16.125 39.4391C16.0664 38.9774 15.8322 36.4053 15.6566 33.5694C15.6566 33.6353 15.6566 33.6353 15.7151 33.7013Z" fill="#FFC619"/>
<path d="M8.04544 82.7693C8.27962 82.7693 8.45525 82.5715 8.45525 82.3077V82.2417C8.45525 81.9779 8.27962 81.7801 8.04544 81.7801C3.42034 82.0439 0.785795 79.2739 0.375977 77.0975C0.434522 77.5592 0.551613 78.0208 0.72725 78.4825C1.13707 80.0653 2.13234 81.3844 3.47889 81.9779C4.70834 82.5055 6.05489 82.7693 7.40143 82.7693H8.04544Z" fill="#FFA719"/>
<path d="M32.8104 81.7141C23.1504 84.616 19.6962 83.7586 18.7009 81.7141C19.4035 83.8246 20.8671 85.3414 22.9162 87.7817C26.4875 91.9366 33.63 90.8814 38.6649 89.7602C43.6999 88.639 43.9926 85.0117 42.9388 79.6696C46.5686 74.1297 45.9831 72.4149 43.6999 68.9854C46.2173 67.2047 46.6271 66.1495 46.8028 63.9072C46.9784 61.6648 47.3297 58.8289 43.5828 56.9822C42.1191 56.1249 40.5384 55.5313 38.8991 55.1356C40.8311 55.5313 41.0653 56.7844 41.5922 59.4224C42.1191 62.0605 40.8897 64.5007 36.5573 67.7983C41.1239 76.6358 35.6791 80.8567 32.8104 81.7141Z" fill="#FFC619"/>
<path fill-rule="evenodd" clip-rule="evenodd" d="M38.8132 67.3366C38.878 67.0285 39.1524 66.8379 39.4261 66.9108L39.3088 67.4686C39.4261 66.9108 39.426 66.9108 39.4261 66.9108L39.436 66.9134L39.4641 66.921L39.5712 66.95C39.6642 66.9754 39.7991 67.0126 39.9673 67.0598C40.3035 67.1542 40.7731 67.2891 41.3074 67.451C42.3718 67.7735 43.7078 68.2077 44.7554 68.6461C45.019 68.7564 45.1533 69.0863 45.0553 69.383C44.9573 69.6797 44.6641 69.8308 44.4004 69.7205C43.399 69.3015 42.1004 68.8784 41.0426 68.5579C40.5157 68.3982 40.0522 68.2651 39.7207 68.172C39.5549 68.1255 39.4222 68.0889 39.3312 68.0641L39.2269 68.0358L39.2002 68.0286L39.192 68.0264" fill="black"/>
<path fill-rule="evenodd" clip-rule="evenodd" d="M38.3475 77.8109C38.4182 77.5045 38.6961 77.3206 38.9684 77.4001L38.8405 77.9549L38.7125 78.5097C38.4403 78.4301 38.2769 78.1173 38.3475 77.8109ZM38.8405 77.9549L38.7125 78.5097L38.7478 78.52L38.8509 78.5504C38.9409 78.577 39.072 78.616 39.236 78.6653C39.564 78.7638 40.0234 78.9034 40.5482 79.0677C41.6 79.3968 42.9072 79.8224 43.9484 80.2133C44.2152 80.3135 44.5036 80.1513 44.5927 79.851C44.6817 79.5507 44.5376 79.2261 44.2707 79.1259C43.2043 78.7255 41.8769 78.2936 40.8211 77.9633C40.2921 77.7977 39.8293 77.6571 39.4987 77.5577C39.3334 77.5081 39.201 77.4687 39.1099 77.4418L39.0051 77.4109L38.969 77.4003L38.8405 77.9549Z" fill="black"/>
<path fill-rule="evenodd" clip-rule="evenodd" d="M17.2885 57.7745C17.4499 57.5153 17.7675 57.4524 17.9979 57.634C19.1847 58.5699 20.3172 59.5766 21.3926 60.7207C21.597 60.9381 21.606 61.3009 21.4128 61.5309C21.2196 61.761 20.8972 61.7712 20.6928 61.5537C19.6606 60.4554 18.5683 59.4835 17.4134 58.5728C17.183 58.3912 17.1271 58.0338 17.2885 57.7745Z" fill="#FFA20D"/>
<path fill-rule="evenodd" clip-rule="evenodd" d="M100.707 27.2588C100.988 27.2484 101.223 27.4965 101.232 27.8128C101.586 39.9649 99.5817 52.1151 95.4563 63.3349C95.3488 63.6274 95.0509 63.7664 94.791 63.6453C94.5311 63.5243 94.4076 63.1891 94.5152 62.8966C98.5861 51.8247 100.563 39.8366 100.214 27.8504C100.205 27.534 100.425 27.2691 100.707 27.2588Z" fill="#0C1AAD"/>
<path d="M79.7638 24.4021L78.71 25.1276C80.1151 25.5892 81.4616 26.3807 82.574 27.5018L82.2227 26.7104H83.1009C82.1056 25.7871 80.9932 24.9957 79.7638 24.4021Z" fill="#D11583"/>
<path d="M67.0594 29.8761C67.0008 30.1399 66.9423 30.4037 66.9423 30.6675C67.879 29.1507 68.9328 27.7657 70.1623 26.5126L69.3427 25.985C68.0547 27.304 66.9423 28.7549 65.947 30.4037L67.0594 29.8761Z" fill="#D11583"/>
<path d="M78.5929 31.7228C78.5929 31.3271 78.5343 30.9314 78.3587 30.5356C78.7099 30.7994 79.0612 30.9973 79.4125 31.1292C78.4758 29.5464 77.4219 28.0954 76.251 26.7764L75.4314 27.37C76.6609 28.689 77.7147 30.1399 78.5929 31.7228Z" fill="#D11583"/>
<path d="M73.031 28.3592V33.5694L73.675 32.712C73.7335 33.0418 73.8506 33.3716 73.9677 33.6354V28.3592L73.5579 28.689L73.031 28.3592Z" fill="#D11583"/>
<path d="M61.322 25.2595C61.6733 25.3254 61.966 25.3914 62.3173 25.3254C62.1417 25.5233 62.0246 25.7871 61.966 26.0509C63.0198 25.0616 64.2493 24.2043 65.4787 23.5448L64.542 22.8852C63.4297 23.5448 62.3173 24.3362 61.322 25.2595Z" fill="#D11583"/>
<path d="M68.9914 24.6L71.5674 20.0493H69.4012L67.4106 23.5448C67.8205 24.1383 68.3474 24.4681 68.9914 24.6Z" fill="#8CD9FF"/>
<path d="M76.6023 20.2472H75.5485L74.2605 22.4895C74.3776 22.8852 74.4947 23.2809 74.6703 23.6107L76.6023 20.2472Z" fill="#8CD9FF"/>
<path d="M78.1245 20.3791L75.7241 24.534C76.1925 24.7319 76.6609 24.8638 77.1292 24.8638H77.3048L79.2954 21.3024C79.0612 20.7748 78.6514 20.445 78.1245 20.3791Z" fill="#8CD9FF"/>
<path d="M70.865 20.3791C73.441 20.3791 76.017 20.511 77.4807 20.6429C78.9443 20.7748 79.2956 21.2364 79.1785 22.6214C79.0614 24.0064 78.2418 24.534 77.0708 24.534C75.8414 24.6 74.729 23.6767 74.4948 22.2917C74.3192 21.4343 73.9094 20.9726 73.3239 20.9726C72.7385 20.9726 72.3287 21.3684 72.0359 22.2257C71.6847 23.4788 70.6894 24.3362 69.5185 24.2702H69.2258C68.2305 24.3362 67.4108 23.4129 67.3523 22.2917V22.2257C67.4108 20.8407 67.8792 20.445 69.2843 20.3791H70.865ZM70.865 20.0493H69.2843C67.8207 20.1153 67.1181 20.5769 67.0596 22.2257C67.0596 23.5448 67.9963 24.6 69.1672 24.6H69.2258H69.5185C70.8065 24.6 71.9774 23.6767 72.3287 22.2917C72.6214 21.5003 72.9727 21.3024 73.3239 21.3024C73.6752 21.3024 74.0265 21.4343 74.2607 22.3576C74.4948 23.8745 75.7243 24.9297 77.0708 24.8638H77.1294C78.3003 24.9297 79.2956 24.0064 79.4712 22.6874C79.5883 21.0386 79.0028 20.3791 77.4807 20.3131C75.9585 20.2472 73.3825 20.0493 70.865 20.0493Z" fill="black"/>
<path d="M75.7241 5.34207C78.0074 5.73778 78.4172 7.91419 76.7194 7.12277C75.0216 6.33135 73.1481 6.13349 71.5674 8.3099C69.9867 10.4863 67.8791 10.1565 67.6449 7.71633C67.4107 5.27612 66.1227 5.73778 64.3078 6.92491C63.7223 7.32062 63.1954 7.71633 62.7271 8.17799C65.4787 5.67183 66.8838 6.3973 66.2983 8.5737C65.7129 10.7501 66.7667 12.3989 68.5816 12.4648C70.3965 12.5308 72.27 11.0799 73.3823 9.29917C74.4947 7.51848 76.0169 8.04609 77.5391 8.77156C79.0612 9.49703 80.5834 6.99086 77.7732 5.86968L75.7241 5.34207Z" fill="#FF78B9"/>
<path d="M41.0068 134.607C41.2995 135.597 42.9388 142.456 43.1144 143.115C43.29 143.775 43.2315 143.972 44.1682 143.379C44.8122 142.917 45.5148 142.587 46.2759 142.324C46.4515 142.324 47.9737 143.511 48.442 143.709C48.9104 143.907 49.086 143.643 49.7886 143.049L51.3693 141.928C51.4864 141.862 52.2475 134.146 52.306 133.552C52.3646 132.959 52.306 132.893 52.0133 133.156C51.7206 133.42 49.9057 135.003 49.73 135.135C49.5544 135.267 49.3202 134.937 48.2079 134.541C47.5053 134.278 46.8028 134.08 46.1002 134.08L44.1097 135.399C43.8755 135.597 43.6413 135.531 43.0559 135.135C42.4704 134.739 41.1239 134.344 41.0068 134.212C40.8897 134.08 40.8897 134.278 41.0068 134.607Z" fill="#FFE75C"/>
<path d="M76.1926 130.65C77.8319 131.112 78.8857 133.42 79.1784 134.212C79.4711 135.003 79.7639 135.069 80.0566 134.607C80.3493 134.146 81.286 130.914 81.4031 130.65C81.5202 130.386 81.6959 129.793 81.93 130.123C82.1642 130.452 84.0377 133.42 84.2133 133.75C84.3889 134.08 84.6231 134.014 84.7402 133.684C84.8573 133.354 85.5599 131.31 85.6769 131.046C85.794 130.782 85.7355 131.771 85.6769 132.959C85.6184 134.146 85.15 140.279 85.15 140.543C85.15 140.807 85.0915 140.939 84.6231 140.543L82.9839 139.422C82.8082 139.356 81.2275 140.939 80.9933 141.137C80.7591 141.334 80.5835 141.334 80.2322 141.137L78.1831 140.015C77.5391 140.279 76.8951 140.543 76.3097 140.939C76.134 141.071 75.8999 141.137 75.8999 140.675C75.8999 140.213 75.8999 137.773 75.8999 137.114C75.8413 136.454 75.7242 135.794 75.5486 135.135C75.3144 134.212 74.5533 130.98 74.4948 130.518C74.4362 130.057 74.4948 130.123 76.1926 130.65Z" fill="#FFE75C"/>
<path d="M85.677 131.046C85.5599 131.31 84.7988 133.42 84.7402 133.684C84.6817 133.948 84.4475 134.08 84.2133 133.75L83.8621 133.156C83.8035 135.465 83.6864 137.905 83.5693 139.818L84.6231 140.543C85.0915 140.939 85.1501 140.873 85.1501 140.543C85.1501 140.213 85.677 134.08 85.677 132.959C85.677 131.837 85.7941 130.782 85.677 131.046Z" fill="black"/>
<path d="M50.8423 142.258L51.3692 141.928C51.4863 141.862 52.2474 134.146 52.3059 133.552C52.3645 132.959 52.3059 132.893 52.0132 133.156L50.8423 134.212V142.258Z" fill="black"/>
<path d="M84.74 133.684C84.6229 134.014 84.4473 134.08 84.2131 133.75C83.9789 133.42 82.2226 130.452 81.9298 130.123C81.6371 129.793 81.4615 130.321 81.4029 130.65C81.3444 130.98 80.2906 134.146 80.0564 134.607C79.8222 135.069 79.5295 134.937 79.1782 134.212C78.8269 133.486 77.8317 131.112 76.1924 130.65C74.5531 130.189 74.3775 130.057 74.4946 130.518C74.6117 130.98 74.8458 132.233 75.1386 133.486L79.6466 136.454C79.9978 136.652 79.9978 136.454 80.5833 135.926L82.5153 133.816C82.5738 133.75 82.808 133.816 84.1546 134.805C84.5644 135.069 84.74 134.541 84.74 133.684Z" fill="black"/>
<path d="M49.73 135.135C49.613 135.267 49.3202 134.937 48.2079 134.541C47.5053 134.278 46.8028 134.08 46.1002 134.08L44.1097 135.399C43.8755 135.597 43.6413 135.531 43.0559 135.135C42.4704 134.739 41.1239 134.344 41.0068 134.212C40.8897 134.08 40.8897 134.278 41.0068 134.607L41.358 135.992C42.3533 136.52 43.4071 136.916 44.4609 137.245L47.7395 135.663C48.0322 135.597 50.4326 137.905 50.8424 138.169C51.2522 138.433 51.1937 135.926 51.2522 133.816C50.7839 134.278 50.257 134.739 49.73 135.135Z" fill="black"/>
<path d="M41.8262 44.3855H37.0255C36.3815 44.3855 35.796 44.8471 35.6204 45.5066L34.8007 48.0128C34.7422 48.1447 34.8593 48.2766 34.9764 48.2766H42.9971C43.1142 48.2766 43.2313 48.1447 43.2313 48.0128L42.8215 45.3088C42.7629 44.7812 42.2946 44.3195 41.8262 44.3855Z" fill="white"/>
<path d="M53.1256 183.346C53.5354 181.631 53.4769 180.246 52.8914 179.191C52.306 178.135 50.6667 177.146 48.442 177.014C48.2078 176.948 48.0322 177.146 47.9736 177.476C47.9736 177.74 48.1493 177.938 48.3834 178.004C50.3154 178.135 51.5449 178.729 52.1304 179.718C52.7158 180.708 52.6573 181.829 52.1889 183.346H53.1256Z" fill="#FFC619"/>
<path d="M61.205 183.346C61.7319 181.433 61.3221 180.18 60.8537 179.454C60.3853 178.729 58.3948 177.608 56.4628 177.872C56.2286 177.938 56.053 178.201 56.053 178.465C56.1115 178.729 56.3457 178.927 56.5799 178.861C58.1606 178.663 59.5072 179.125 60.1512 180.048C60.7952 180.971 60.6781 181.961 60.2683 183.346H61.205Z" fill="#FFC619"/>
<path d="M91.7071 183.346C91.9413 181.829 91.7657 180.708 91.1802 179.85C90.5948 178.993 88.5457 177.938 85.7355 177.872C84.7988 176.882 83.8621 176.025 82.8082 175.168C82.6326 175.036 82.3399 175.102 82.2228 175.3C82.1057 175.497 82.1642 175.827 82.3399 175.959C83.3351 176.685 85.2086 178.729 85.2671 178.729L85.3842 178.861H85.5599C88.1944 178.927 89.7751 179.389 90.4777 180.444C91.1802 181.499 91.0631 182.027 90.829 183.346H91.7071Z" fill="#FFC619"/>
<path d="M92.234 178.861C91.9998 178.993 91.8827 179.323 91.9998 179.586C92.0583 179.718 92.1754 179.85 92.2925 179.85C94.8685 179.652 96.2151 179.916 96.742 180.773C97.1518 181.565 97.1518 182.62 96.6249 183.346H97.6202C98.0885 182.356 98.03 181.169 97.5031 180.18C96.5663 178.729 94.4002 178.663 92.234 178.861Z" fill="#FFC619"/>
<path d="M146.506 122.802C147.735 122.802 148.73 123.923 148.73 125.308V183.28H144.281V125.374C144.222 123.989 145.218 122.868 146.447 122.802H146.506Z" fill="#8CD9FF"/>
<path d="M146.506 121.747C148.09 121.747 149.374 120.3 149.374 118.515C149.374 116.73 148.09 115.283 146.506 115.283C144.921 115.283 143.637 116.73 143.637 118.515C143.637 120.3 144.921 121.747 146.506 121.747Z" fill="#8CD9FF"/>
<path d="M147.969 183.346H157.161L157.337 182.884C157.454 182.62 157.337 182.29 157.102 182.224C157.044 182.224 156.985 182.158 156.927 182.158C154.995 182.093 153.063 181.697 151.248 180.971C149.726 180.312 148.73 178.663 148.73 176.816V174.97H147.969V183.346Z" fill="#8CD9FF"/>
<path d="M145.042 183.346H135.85L135.675 182.884C135.558 182.62 135.675 182.29 135.909 182.224C135.967 182.224 136.026 182.158 136.084 182.158C138.016 182.093 139.948 181.631 141.822 180.971C143.344 180.312 144.339 178.663 144.281 176.816V174.97H145.042V183.346Z" fill="#8CD9FF"/>
<path d="M21.0427 111.986C22.5064 111.986 23.6773 113.305 23.6773 114.954V183.346H18.4082V114.954C18.4082 113.305 19.5791 111.986 21.0427 111.986Z" fill="#8CD9FF"/>
<path d="M21.0427 110.601C22.8857 110.601 24.3798 108.918 24.3798 106.842C24.3798 104.766 22.8857 103.082 21.0427 103.082C19.1996 103.082 17.7056 104.766 17.7056 106.842C17.7056 108.918 19.1996 110.601 21.0427 110.601Z" fill="#8CD9FF"/>
<path d="M22.7405 183.346H33.6299L33.8056 182.752C33.9227 182.422 33.747 182.093 33.5128 182.027C33.4543 182.027 33.3958 182.027 33.3372 181.961C30.7027 181.697 28.3608 181.367 26.6045 180.576C24.8481 179.784 23.6772 177.872 23.6772 175.695V173.453H22.7405V183.346Z" fill="#8CD9FF"/>
<path d="M18.408 173.453V175.695C18.408 177.872 17.2371 179.784 15.4807 180.576C14.2513 181.103 12.9633 181.433 11.6753 181.565C12.7291 182.752 14.1342 183.346 15.5978 183.346H19.3448V173.453H18.408Z" fill="#8CD9FF"/>
<path d="M21.0427 111.986C20.2817 111.986 19.5206 112.382 18.9937 113.041C20.6915 114.69 23.6773 114.954 23.6773 114.954C23.6773 113.305 22.5064 111.986 21.0427 111.986Z" fill="black"/>
<path d="M146.506 122.802C145.803 122.802 145.159 123.198 144.749 123.791C146.154 125.176 148.73 125.374 148.73 125.374C148.73 123.989 147.735 122.868 146.506 122.802Z" fill="black"/>
<path d="M141.471 121.483H151.54C151.95 121.483 152.301 121.879 152.301 122.34C152.301 122.802 151.95 123.198 151.54 123.198H141.471C141.061 123.198 140.709 122.802 140.709 122.34C140.709 121.879 141.061 121.483 141.471 121.483Z" fill="#8CD9FF"/>
<path d="M22.4974 104.887C22.6035 104.621 22.3069 104.212 21.835 103.973C21.3632 103.734 20.8947 103.756 20.7887 104.021C20.6826 104.287 20.9792 104.696 21.4511 104.935C21.9229 105.174 22.3914 105.152 22.4974 104.887Z" fill="white"/>
<path d="M39.6601 108.095H34.918C32.8103 108.029 31.054 109.875 30.9954 112.25C30.9369 114.624 32.5761 116.603 34.6838 116.668H39.6601V108.095Z" fill="white"/>
<path fill-rule="evenodd" clip-rule="evenodd" d="M28.5366 109.98C27.5542 109.98 26.7568 110.877 26.7568 111.986C26.7568 113.094 27.5542 113.992 28.5366 113.992C29.519 113.992 30.3165 113.094 30.3165 111.986C30.3165 110.877 29.519 109.98 28.5366 109.98ZM25.3987 111.986C25.3987 110.035 26.803 108.452 28.5366 108.452C30.2703 108.452 31.6746 110.035 31.6746 111.986C31.6746 113.937 30.2703 115.52 28.5366 115.52C26.803 115.52 25.3987 113.937 25.3987 111.986Z" fill="white"/>
<path d="M143.11 44.4514C143.578 42.9345 144.105 41.4176 144.632 39.9008C145.335 37.6584 144.339 35.1522 142.349 34.3608C140.358 33.5694 138.134 34.6906 137.431 36.9329C136.963 38.5158 136.436 40.0327 135.909 41.5495L143.11 44.4514Z" fill="white"/>
<path fill-rule="evenodd" clip-rule="evenodd" d="M144.049 30.0007C143.109 29.6156 142.096 30.1434 141.758 31.1923C141.415 32.2529 141.885 33.3935 142.815 33.7746C143.755 34.1597 144.768 33.6318 145.106 32.583C145.234 32.1863 145.624 31.9815 145.976 32.1256C146.329 32.2698 146.511 32.7082 146.383 33.1049C145.785 34.9579 143.987 35.881 142.351 35.2108C140.705 34.5367 139.887 32.5116 140.481 30.6704C141.079 28.8174 142.877 27.8943 144.513 28.5644C144.866 28.7088 145.047 29.1473 144.919 29.5439C144.791 29.9405 144.401 30.145 144.049 30.0007Z" fill="white"/>
<path d="M15.0711 110.337H27.0143C27.4827 110.337 27.8925 110.799 27.8925 111.326C27.8925 111.854 27.4827 112.316 27.0143 112.316H15.0711C14.6027 112.316 14.1929 111.854 14.1929 111.326C14.1929 110.799 14.6027 110.337 15.0711 110.337Z" fill="#8CD9FF"/>
<path d="M264.943 14.1796C262.719 12.5968 261.196 9.95873 260.845 6.99091L260.143 1.91263C260.143 1.71478 259.908 1.51692 259.674 1.51692C259.499 1.51692 259.264 1.71478 259.264 1.91263L258.562 6.99091C258.211 9.95873 256.688 12.5968 254.464 14.1796L253.878 14.5753C253.761 14.7073 253.644 14.8392 253.644 15.037C253.644 15.2349 253.761 15.3668 253.878 15.4987L254.464 15.8944C256.688 17.4772 258.211 20.1153 258.562 23.0831L259.264 28.1614C259.264 28.3592 259.499 28.5571 259.674 28.5571C259.908 28.5571 260.143 28.3592 260.143 28.1614L260.845 23.0831C261.196 20.1153 262.719 17.4772 264.943 15.8944L265.529 15.4987C265.646 15.3668 265.763 15.2349 265.763 15.037C265.763 14.8392 265.646 14.7073 265.529 14.5753L264.943 14.1796Z" fill="#57F287"/>
<path d="M215.297 122.208C214.419 121.549 213.775 120.494 213.658 119.307L213.365 117.262C213.365 117.13 213.306 117.064 213.189 117.064C213.072 117.064 213.014 117.13 213.014 117.262L212.721 119.307C212.604 120.494 211.96 121.549 211.082 122.208L210.848 122.406C210.789 122.406 210.73 122.472 210.73 122.538L210.848 122.736L211.082 122.934C211.96 123.593 212.604 124.649 212.721 125.836L213.014 127.88L213.189 128.012C213.306 128.012 213.365 127.946 213.365 127.88L213.658 125.836C213.775 124.649 214.419 123.593 215.297 122.934L215.531 122.736L215.648 122.538C215.648 122.472 215.59 122.406 215.531 122.406L215.297 122.208Z" fill="#8CD9FF"/>
<path d="M200.309 46.9576C198.729 45.8364 197.675 43.9898 197.382 41.8793L196.855 38.252C196.855 38.1201 196.68 37.9882 196.562 37.9882C196.445 37.9882 196.27 38.1201 196.27 38.252L195.743 41.8793C195.45 43.9898 194.396 45.8364 192.815 46.9576L192.406 47.2874C192.347 47.3533 192.289 47.4193 192.289 47.5512C192.289 47.6831 192.347 47.749 192.406 47.815L192.815 48.1447C194.396 49.2659 195.509 51.1785 195.743 53.289L196.27 56.8504C196.27 56.9823 196.445 57.1142 196.562 57.1142C196.68 57.1142 196.855 56.9823 196.855 56.8504L197.382 53.289C197.616 51.1785 198.729 49.2659 200.309 48.1447L200.719 47.815C200.778 47.749 200.836 47.6831 200.836 47.5512C200.836 47.4193 200.778 47.3533 200.719 47.2874L200.309 46.9576Z" fill="#FFE75C"/>
<path d="M111.086 129.463C110.266 128.87 109.681 127.88 109.564 126.759L109.271 124.847C109.271 124.715 109.213 124.649 109.096 124.649L108.92 124.847L108.686 126.759C108.569 127.88 107.983 128.87 107.105 129.463L106.871 129.661C106.812 129.661 106.812 129.727 106.812 129.793C106.812 129.859 106.812 129.925 106.871 129.991L107.105 130.123C107.925 130.782 108.51 131.771 108.686 132.893L108.92 134.805C108.978 134.937 109.037 135.003 109.096 135.003C109.213 135.003 109.271 134.937 109.271 134.805L109.564 132.893C109.681 131.771 110.266 130.782 111.086 130.123L111.32 129.991L111.437 129.793L111.32 129.661L111.086 129.463Z" fill="#808AFF"/>
<path d="M17.5303 94.179C16.9448 93.7833 16.535 93.0578 16.4179 92.2664L16.2423 90.8814L16.1252 90.7495L16.0081 90.8814L15.8324 92.2664C15.7153 93.0578 15.3055 93.7833 14.7201 94.179L14.5444 94.3109V94.4428V94.5747H14.7201C15.3055 95.0364 15.7153 95.7618 15.8324 96.5533L16.0081 97.9382L16.1252 98.0701L16.2423 97.9382L16.4179 96.5533C16.535 95.7618 16.9448 95.0364 17.5303 94.5747H17.7059V94.4428C17.7059 94.3768 17.7059 94.3109 17.6473 94.3109L17.5303 94.179Z" fill="#3442D9"/>
<defs>
<linearGradient id="paint0_linear_8352_427502" x1="156.107" y1="18.4665" x2="156.107" y2="183.346" gradientUnits="userSpaceOnUse">
<stop stop-color="#3442D9"/>
<stop offset="1" stop-color="#808AFF"/>
</linearGradient>
<linearGradient id="paint1_linear_8352_427502" x1="209.63" y1="93.9811" x2="227.006" y2="93.9811" gradientUnits="userSpaceOnUse">
<stop stop-color="#EB459F"/>
<stop offset="1" stop-color="#FF78B9"/>
</linearGradient>
<linearGradient id="paint2_linear_8352_427502" x1="290.099" y1="115.397" x2="282.926" y2="99.6696" gradientUnits="userSpaceOnUse">
<stop stop-color="#EB459F"/>
<stop offset="1" stop-color="#FF78B9"/>
</linearGradient>
<linearGradient id="paint3_linear_8352_427502" x1="195.699" y1="99.9763" x2="209.283" y2="89.5924" gradientUnits="userSpaceOnUse">
<stop stop-color="#11A574"/>
<stop offset="1" stop-color="#169DD8"/>
</linearGradient>
<linearGradient id="paint4_linear_8352_427502" x1="96.3439" y1="171.738" x2="66.5501" y2="171.738" gradientUnits="userSpaceOnUse">
<stop stop-color="#FFE75C"/>
<stop offset="1" stop-color="#FFC619"/>
</linearGradient>
<linearGradient id="paint5_linear_8352_427502" x1="104.42" y1="48.8226" x2="126.945" y2="85.4725" gradientUnits="userSpaceOnUse">
<stop stop-color="#FFE75C"/>
<stop offset="1" stop-color="#FFC619"/>
</linearGradient>
<linearGradient id="paint6_linear_8352_427502" x1="15.1232" y1="31.4423" x2="31.09" y2="58.7231" gradientUnits="userSpaceOnUse">
<stop stop-color="#FFE75C"/>
<stop offset="1" stop-color="#FFC619"/>
</linearGradient>
</defs>
</svg>
