<svg fill="none" height="86" viewBox="0 0 154 86" width="154" xmlns="http://www.w3.org/2000/svg" xmlns:xlink="http://www.w3.org/1999/xlink"><clipPath id="a"><path d="m.598206 0h153.004v86h-153.004z"/></clipPath><g clip-path="url(#a)"><path d="m.598206 86v-5.0588c0-6.2977 2.374554-12.389 6.710684-17.0348 4.74911-5.0589 11.35651-7.9496 18.27371-7.9496h11.1501c4.5426 0 8.156-3.6135 8.156-8.1561v-12.4922c0-9.0852 7.4334-16.5186 16.5186-16.5186h56.3697c9.085 0 16.519 7.4334 16.519 16.5186v24.2617c0 2.1681 1.755 3.9232 3.923 3.9232h5.162c5.575 0 10.221 4.5426 10.221 10.2209v12.3889h-153.003794z" fill="#aec7ff" opacity=".2"/><path d="m128.721 19.4094-18.481-19.4094-18.3765 19.4094h5.1621l.1032 66.5906h26.4302v-66.5906z" fill="#ffd836"/><path d="m109.105 30.2496h-84.6581v55.7503h84.6581z" fill="#3e70dd"/><path d="m99.8131 81.3541h-66.0744c-1.1357 0-2.0649-.9292-2.0649-2.0648v-26.8428c0-1.1356.9292-2.0648 2.0649-2.0648h66.0744c1.1359 0 2.0649.9292 2.0649 2.0648v26.8428c0 1.1356-.929 2.0648-2.0649 2.0648z" fill="#7196ff"/><path d="m109.105 26.12h-84.6581v19.6158h84.6581z" fill="#7196ff"/><path d="m93.6186 41.2965-7.2269-7.2269 2.4778-2.3745 4.7491 4.7491 4.8524-4.7491 2.375 2.3745z" fill="#fff"/><path d="m129.753 51.9304-9.292 9.2917v15.4862l9.292 9.2917 9.292-9.2917v-15.4862zm4.646 22.9196-4.646 4.6458-4.646-4.6458v-11.6663l4.646-4.6458 4.646 4.6458z" fill="#ff73fa"/><path d="m126.656 63.8032v10.4273l3.097 3.0973 3.097-3.0973v-10.4273l-3.097-3.0973z" fill="#ff73fa"/><path d="m129.753 51.9304v6.6075l4.646 4.6458 4.646-1.9616z" fill="#ffc0ff"/><path d="m12.471 71.4429-1.3422 2.6843c-.3097.6194.3097 1.3421 1.0324 1.0324l2.6843-1.3421c.2065-.1033.413-.1033.6194 0l2.6843 1.3421c.6195.3097 1.3422-.3097 1.0324-1.0324l-1.3421-2.6843c-.1032-.2065-.1032-.413 0-.6194l1.3421-2.6843c.3098-.6195-.3097-1.3421-1.0324-1.0324l-2.6843 1.3421c-.2064.1033-.4129.1033-.6194 0l-2.6843-1.3421c-.6194-.3097-1.3421.3097-1.0324 1.0324l1.3422 2.6843c.1032.1032.1032.4129 0 .6194z" fill="#d4e4ff"/><path d="m145.239 44.91c-.619 0-1.032-.413-1.032-1.0324v-1.0324c0-.6195.413-1.0325 1.032-1.0325.62 0 1.033.413 1.033 1.0325v1.0324c0 .5162-.413 1.0324-1.033 1.0324z" fill="#aec7ff"/><path d="m145.239 53.1693c-.619 0-1.032-.413-1.032-1.0325v-1.0324c0-.6194.413-1.0324 1.032-1.0324.62 0 1.033.413 1.033 1.0324v1.0324c0 .5163-.413 1.0325-1.033 1.0325z" fill="#aec7ff"/><path d="m147.82 47.491c0-.6194.413-1.0324 1.033-1.0324h1.032c.619 0 1.032.413 1.032 1.0324 0 .6195-.413 1.0324-1.032 1.0324h-1.032c-.517 0-1.033-.5162-1.033-1.0324z" fill="#aec7ff"/><path d="m139.561 47.491c0-.6194.413-1.0324 1.032-1.0324h1.033c.619 0 1.032.413 1.032 1.0324 0 .6195-.413 1.0324-1.032 1.0324h-1.033c-.516 0-1.032-.5162-1.032-1.0324z" fill="#aec7ff"/><path d="m11.0256 43.6711c-.6195 0-1.03244-.413-1.03244-1.0324v-1.0324c0-.6195.41294-1.0324 1.03244-1.0324.6194 0 1.0324.4129 1.0324 1.0324v1.0324c0 .6194-.413 1.0324-1.0324 1.0324z" fill="#d4e4ff"/><path d="m11.0256 51.9304c-.6195 0-1.03244-.413-1.03244-1.0324v-1.0325c0-.6194.41294-1.0324 1.03244-1.0324.6194 0 1.0324.413 1.0324 1.0324v1.0325c0 .6194-.413 1.0324-1.0324 1.0324z" fill="#d4e4ff"/><path d="m13.6066 46.2521c0-.6194.4129-1.0324 1.0324-1.0324h1.0324c.6194 0 1.0324.413 1.0324 1.0324 0 .6195-.413 1.0325-1.0324 1.0325h-1.0324c-.5162 0-1.0324-.413-1.0324-1.0325z" fill="#d4e4ff"/><path d="m5.34729 46.2521c0-.6194.41297-1.0324 1.03241-1.0324h1.03242c.61944 0 1.03241.413 1.03241 1.0324 0 .6195-.41297 1.0325-1.03241 1.0325h-1.03242c-.5162 0-1.03241-.413-1.03241-1.0325z" fill="#d4e4ff"/><path d="m105.595 61.9448h-75.3665v1.0324h75.3665z" fill="#3e70dd"/><g fill="#aec7ff"><path d="m38.3845 58.6411c1.4255 0 2.581-1.1556 2.581-2.5811 0-1.4254-1.1555-2.581-2.581-2.581s-2.581 1.1556-2.581 2.581c0 1.4255 1.1555 2.5811 2.581 2.5811z"/><path d="m85.3593 54.5115h-41.2966v3.0972h41.2966z"/><path d="m38.3845 71.03c1.4255 0 2.581-1.1556 2.581-2.581 0-1.4255-1.1555-2.5811-2.581-2.5811s-2.581 1.1556-2.581 2.5811c0 1.4254 1.1555 2.581 2.581 2.581z"/><path d="m96.7158 66.9004h-52.6531v3.0972h52.6531z"/><path d="m38.3845 78.2569c1.4255 0 2.581-1.1556 2.581-2.581 0-1.4255-1.1555-2.5811-2.581-2.5811s-2.581 1.1556-2.581 2.5811c0 1.4254 1.1555 2.581 2.581 2.581z"/><path d="m75.0351 74.1273h-30.9724v3.0973h30.9724z"/></g></g></svg>