<svg width="48" height="48" viewBox="0 0 48 48" fill="none" xmlns="http://www.w3.org/2000/svg">
<path d="M23.5 41C33.165 41 41 33.165 41 23.5C41 13.835 33.165 6 23.5 6C13.835 6 6 13.835 6 23.5C6 33.165 13.835 41 23.5 41Z" fill="#F7D036"/>
<path d="M4.38241 31.3512L4.37852 31.3551C4.25394 31.4801 4.25394 31.6827 4.37852 31.8077L4.60797 32.0379C4.73254 32.1629 4.93452 32.1629 5.05909 32.0379L5.06298 32.034C5.18756 31.909 5.18756 31.7064 5.06298 31.5814L4.83353 31.3512C4.70896 31.2262 4.50698 31.2262 4.38241 31.3512Z" fill="#7196FF"/>
<path d="M6.19723 33.176L6.19334 33.1799C6.06876 33.3049 6.06876 33.5076 6.19334 33.6326L6.42279 33.8628C6.54736 33.9877 6.74934 33.9877 6.87391 33.8628L6.8778 33.8589C7.00238 33.7339 7.00238 33.5312 6.8778 33.4063L6.64835 33.176C6.52378 33.0511 6.3218 33.0511 6.19723 33.176Z" fill="#7196FF"/>
<path d="M6.87789 31.3573L6.874 31.3534C6.74943 31.2284 6.54745 31.2284 6.42287 31.3534L6.19342 31.5836C6.06885 31.7086 6.06885 31.9112 6.19342 32.0362L6.19731 32.0401C6.32189 32.1651 6.52386 32.1651 6.64844 32.0401L6.87789 31.8099C7.00246 31.6849 7.00246 31.4823 6.87789 31.3573Z" fill="#7196FF"/>
<path d="M5.06856 33.1821L5.06467 33.1782C4.9401 33.0532 4.73812 33.0532 4.61355 33.1782L4.3841 33.4084C4.25952 33.5334 4.25952 33.736 4.3841 33.861L4.38799 33.8649C4.51256 33.9899 4.71454 33.9899 4.83911 33.8649L5.06856 33.6347C5.19314 33.5097 5.19314 33.3071 5.06856 33.1821Z" fill="#7196FF"/>
<path d="M41.5718 35.8554C41.5718 35.6086 41.3735 35.4084 41.129 35.4084C40.8845 35.4084 40.6863 35.6086 40.6863 35.8554V36.2969C40.6863 36.5437 40.8845 36.7438 41.129 36.7438C41.3735 36.7438 41.5718 36.5437 41.5718 36.2969V35.8554Z" fill="#F47FFF"/>
<path d="M41.5718 39.4146C41.5718 39.1678 41.3735 38.9677 41.129 38.9677C40.8845 38.9677 40.6863 39.1678 40.6863 39.4146V39.856C40.6863 40.1029 40.8845 40.303 41.129 40.303C41.3735 40.303 41.5718 40.1029 41.5718 39.856V39.4146Z" fill="#F47FFF"/>
<path d="M43.1173 38.2944C43.3633 38.2944 43.5627 38.0955 43.5627 37.8502C43.5627 37.6049 43.3633 37.406 43.1173 37.406H42.6773C42.4312 37.406 42.2318 37.6049 42.2318 37.8502C42.2318 38.0955 42.4312 38.2944 42.6773 38.2944H43.1173Z" fill="#F47FFF"/>
<path d="M39.5753 38.2999C39.8213 38.2999 40.0208 38.101 40.0208 37.8557C40.0208 37.6104 39.8213 37.4115 39.5753 37.4115H39.1353C38.8892 37.4115 38.6898 37.6104 38.6898 37.8557C38.6898 38.101 38.8892 38.2999 39.1353 38.2999H39.5753Z" fill="#F47FFF"/>
<path d="M8.51741 9.09313L8.00042 10.1636C7.9734 10.2184 7.9642 10.2804 7.9741 10.3407C7.984 10.4011 8.0125 10.4568 8.05561 10.5C8.09871 10.5433 8.15424 10.5719 8.21439 10.5818C8.27453 10.5917 8.33627 10.5825 8.39091 10.5554L9.45789 10.0698C9.49588 10.0524 9.53714 10.0434 9.57889 10.0434C9.62064 10.0434 9.6619 10.0524 9.69989 10.0698L10.7669 10.583C10.8215 10.6101 10.8832 10.6193 10.9434 10.6094C11.0035 10.5995 11.0591 10.5709 11.1022 10.5276C11.1453 10.4844 11.1738 10.4287 11.1837 10.3683C11.1936 10.308 11.1844 10.246 11.1574 10.1912L10.6459 9.12072C10.6269 9.08113 10.617 9.03775 10.617 8.99381C10.617 8.94986 10.6269 8.90648 10.6459 8.86689L11.1574 7.7964C11.1876 7.744 11.2009 7.68345 11.1955 7.62313C11.19 7.56281 11.1659 7.50568 11.1267 7.45965C11.0875 7.41362 11.0349 7.38094 10.9764 7.36615C10.9178 7.35135 10.8562 7.35515 10.7999 7.37703L9.69989 7.89021C9.66043 7.90928 9.61719 7.91918 9.57339 7.91918C9.52959 7.91918 9.48635 7.90928 9.44689 7.89021L8.37991 7.37703C8.32527 7.34993 8.26353 7.34069 8.20339 7.35062C8.14324 7.36055 8.08771 7.38915 8.04461 7.4324C8.0015 7.47564 7.973 7.53136 7.9631 7.5917C7.9532 7.65205 7.96241 7.71399 7.98942 7.76881L8.50641 8.8393C8.52715 8.87806 8.53891 8.92101 8.54082 8.96496C8.54272 9.0089 8.53472 9.05272 8.51741 9.09313Z" fill="#60CFAC"/>
<path d="M14.2593 23.5117L12.2848 22.3694V37.726L14.2593 38.8683V23.5117Z" fill="#9EA5B8"/>
<path d="M12.2848 22.3694L28.7845 12.8123V28.1689L12.2848 37.726V22.3694Z" fill="#9EA5B8"/>
<path d="M20.5346 5.73818C15.9972 8.36475 12.2848 15.8527 12.2848 22.3694L28.7845 12.8288C28.7845 6.2955 25.0995 3.11161 20.5346 5.73818Z" fill="#9EA5B8"/>
<path d="M14.2593 23.5116L30.7535 13.9545V29.3111L14.2593 38.8682V23.5116Z" fill="white"/>
<path d="M22.5036 6.88043C17.9717 9.507 14.2538 16.9949 14.2538 23.5117L30.7535 13.9324C30.7535 7.43775 27.041 4.25386 22.5036 6.88043Z" fill="white"/>
<path d="M22.5035 9.77186C19.0496 11.7694 16.2281 17.795 16.2281 23.1034V26.1548L28.7844 18.8986V15.8306C28.7844 10.4947 25.9575 7.76883 22.5035 9.77186Z" fill="#0E0D33"/>
<path d="M16.2281 24.4276L28.7844 17.1549V30.4533L16.2281 37.726V24.4276Z" fill="#0E0D33"/>
<path d="M37.2268 18.7275L28.7844 17.1549L27.3875 17.9605V31.2589L36.5283 32.964L37.2268 32.0259V18.7275Z" fill="#8C5950"/>
<path d="M36.5283 19.6656L27.3875 17.9606V31.259L36.5283 32.964V19.6656Z" fill="#61393F"/>
<path d="M37.2268 7.95645V18.7276L28.0859 17.028C28.0859 11.1017 32.1999 7.02391 37.2268 7.95645Z" fill="#784343"/>
<path d="M20.2487 19.9084V42.3115L17.3502 37.4557V24.1573C17.3502 19.1469 18.6537 17.2432 20.2487 19.9084Z" fill="#784343"/>
<path d="M36.5283 8.89445V19.6656L27.3929 17.9605C27.3929 12.0397 31.5069 7.9619 36.5283 8.89445Z" fill="#61393F"/>
<path d="M20.6336 32.8757L20.1111 30.8175" stroke="#9EA5B8" stroke-width="2" stroke-miterlimit="10" stroke-linecap="round"/>
<path d="M17.1796 23.8759L20.2486 29.0131V42.3115L19.1266 42.5819L16.2281 37.726V24.4277L17.1796 23.8759Z" fill="#8C5950"/>
<path d="M16.2281 24.4277L19.1266 29.2835V42.5819L16.2281 37.7261V24.4277Z" fill="#9C685C"/>
<path d="M19.1267 20.1788L20.2487 19.9084V42.3115L19.1267 42.5819V20.1788Z" fill="#AD7556"/>
<path d="M17.6086 18.9979L18.7306 18.722L20.2486 19.9084L19.1266 20.1788L17.6086 18.9979Z" fill="#784343"/>
<path d="M36.5283 8.89448L37.2268 7.95642V32.0259L36.5283 32.964V8.89448Z" fill="#AD7556"/>
<path d="M19.1266 20.1788V42.5819L16.2281 37.7261V24.4167C16.2281 19.4504 17.5316 17.5081 19.1266 20.1788Z" fill="#8B574F"/>
<path d="M34.7133 8.76758V32.6274L33.8993 32.4784V8.86138C34.1688 8.81583 34.4405 8.78452 34.7133 8.76758Z" fill="#542C33"/>
<path d="M31.7599 9.60077V32.0756L30.9514 31.9266V10.1139C31.2088 9.92432 31.4789 9.75285 31.7599 9.60077Z" fill="#542C33"/>
<path d="M29.1859 11.9073V31.59L28.3994 31.4465V13.2868C28.6157 12.8021 28.8791 12.34 29.1859 11.9073Z" fill="#542C33"/>
<path d="M18.5327 19.3787V41.5776L18.0707 40.8051V19.0366C18.2463 19.1178 18.4035 19.2342 18.5327 19.3787Z" fill="#784343"/>
<path d="M17.2952 19.169V39.5084L16.8497 38.7634V19.8863C16.9473 19.619 17.099 19.3747 17.2952 19.169Z" fill="#784343"/>
<path d="M33.9107 26.8811C34.8281 26.6547 35.3776 25.6795 35.1381 24.7029C34.8987 23.7264 33.961 23.1183 33.0436 23.3446C32.1263 23.571 31.5768 24.5462 31.8162 25.5228C32.0557 26.4994 32.9934 27.1075 33.9107 26.8811Z" stroke="#9EA5B8" stroke-width="2" stroke-miterlimit="10"/>
<path d="M33.6793 23.7434V22.7778" stroke="#9EA5B8" stroke-width="2" stroke-miterlimit="10" stroke-linecap="round"/>
</svg>
