<svg fill="none" height="64" viewBox="0 0 64 64" width="64" xmlns="http://www.w3.org/2000/svg"><path d="m31.122 57.0184c-13.8563 0-25.08898-11.2697-25.08898-25.1715 0-13.9019 11.23268-25.17161 25.08898-25.17161 13.8562 0 25.0889 11.26971 25.0889 25.17161 0 13.9018-11.2327 25.1715-25.0889 25.1715z" fill="#f7d036"/><g fill="#7196ff"><path d="m59.6669 42.5238.0056.0057c.1809.1814.1809.4756 0 .6571l-.3331.3342c-.1809.1815-.4741.1815-.655 0l-.0056-.0056c-.1809-.1815-.1809-.4757 0-.6572l.3331-.3342c.1809-.1815.4741-.1815.655 0z"/><path d="m57.0321 45.1732.0057.0057c.1808.1814.1808.4756-.0001.6571l-.3331.3342c-.1808.1815-.4741.1815-.6549 0l-.0057-.0056c-.1809-.1815-.1809-.4757 0-.6572l.3331-.3342c.1809-.1814.4741-.1814.655 0z"/><path d="m56.0438 42.5325.0057-.0057c.1808-.1815.4741-.1815.6549 0l.3332.3342c.1808.1815.1808.4757 0 .6572l-.0057.0056c-.1808.1815-.4741.1815-.6549 0l-.3332-.3342c-.1808-.1815-.1808-.4757 0-.6571z"/><path d="m58.6708 45.1819.0056-.0057c.1809-.1814.4741-.1814.655 0l.3331.3342c.1809.1815.1809.4757 0 .6572l-.0056.0056c-.1809.1815-.4741.1815-.655 0l-.3331-.3342c-.1809-.1814-.1809-.4757 0-.6571z"/></g><path d="m5.67364 49.0632c0-.3584.28779-.649.64279-.649.35501 0 .6428.2906.6428.649v.6409c0 .3584-.28779.6489-.6428.6489-.355 0-.64279-.2905-.64279-.6489z" fill="#f47fff"/><path d="m5.67364 54.2305c0-.3584.28779-.649.64279-.649.35501 0 .6428.2906.6428.649v.6409c0 .3584-.28779.6489-.6428.6489-.355 0-.64279-.2905-.64279-.6489z" fill="#f47fff"/><path d="m3.42974 52.6042c-.35721 0-.64678-.2888-.64678-.645 0-.3561.28957-.6449.64678-.6449h.6388c.35721 0 .64679.2888.64679.6449 0 .3562-.28958.645-.64679.645z" fill="#f47fff"/><path d="m8.57208 52.6121c-.35721 0-.64679-.2887-.64679-.6449 0-.3561.28958-.6449.64679-.6449h.6388c.35721 0 .64679.2888.64679.6449 0 .3562-.28958.6449-.64679.6449z" fill="#f47fff"/><path d="m53.6637 10.2083.7506 1.5542c.0392.0796.0526.1695.0382.2571-.0143.0876-.0557.1685-.1183.2313s-.1432.1043-.2305.1187c-.0874.0145-.177.001-.2563-.0383l-1.5491-.705c-.0552-.0252-.1151-.0383-.1757-.0383s-.1205.0131-.1757.0383l-1.5491.745c-.0793.0394-.1689.0528-.2562.0384-.0874-.0144-.168-.0559-.2306-.1187s-.1039-.1437-.1183-.2313-.001-.1776.0382-.2572l.7426-1.5542c.0276-.0574.0419-.1204.0419-.1842s-.0143-.12679-.0419-.18427l-.7426-1.5542c-.044-.07608-.0633-.16399-.0553-.25157.008-.08757.0429-.17051.0998-.23734.057-.06683.1333-.11427.2182-.13576.085-.02148.1746-.01596.2563.01581l1.597.74505c.0573.02769.1201.04207.1837.04207s.1264-.01438.1837-.04207l1.549-.74505c.0794-.03935.169-.05276.2563-.03834.0874.01442.168.05594.2306.11872.0625.06279.1039.14368.1183.23129s.001.17754-.0382.25713l-.7506 1.5542c-.0301.05627-.0472.11863-.05.18243-.0027.0638.0089.1274.034.1861z" fill="#60cfac"/><path d="m45.327 31.1419 2.8666-1.6584v22.2955l-2.8666 1.6584z" fill="#9ea5b8"/><path d="m48.1936 29.4835-23.9551-13.8756v22.2955l23.9551 13.8756z" fill="#9ea5b8"/><path d="m36.2161 5.3374c6.5876 3.81339 11.9775 14.6848 11.9775 24.1461l-23.9551-13.8516c0-9.48536 5.35-14.10789 11.9776-10.2945z" fill="#9ea5b8"/><path d="m45.3271 31.1418-23.947-13.8756v22.2955l23.947 13.8757z" fill="#fff"/><path d="m33.3574 6.99575c6.5797 3.81335 11.9776 14.68475 11.9776 24.14615l-23.9551-13.9077c0-9.42931 5.3899-14.05184 11.9775-10.23845z" fill="#fff"/><path d="m33.3576 11.1937c5.0146 2.9001 9.1109 11.6485 9.1109 19.3554v4.4302l-18.2298-10.5349v-4.4543c0-7.7469 4.1043-11.7045 9.1189-8.7964z" fill="#0e0d33"/><path d="m42.4685 32.4717-18.2298-10.5589v19.3073l18.2298 10.5589z" fill="#0e0d33"/><path d="m11.9815 24.196 12.257-2.2832 2.0282 1.1696v19.3073l-13.2711 2.4755-1.0141-1.3619z" fill="#8c5950"/><path d="m12.9956 25.5579 13.2711-2.4755v19.3073l-13.2711 2.4755z" fill="#61393f"/><path d="m11.9818 8.55798v15.63812l13.2711-2.4675c0-8.6042-5.9728-14.52453-13.2711-13.17062z" fill="#784343"/><path d="m36.6312 25.9105v32.5259l4.2082-7.0499v-19.3073c0-7.2743-1.8925-10.0382-4.2082-6.1687z" fill="#784343"/><path d="m12.9958 9.9198v15.6381l13.2631-2.4755c0-8.5961-5.9728-14.51651-13.2631-13.1626z" fill="#61393f"/><path d="m36.0723 44.7371.7586-2.9883" stroke="#9ea5b8" stroke-linecap="round" stroke-miterlimit="10" stroke-width="5.16667"/><path d="m41.0871 31.6706-4.4557 7.4585v19.3073l1.629.3926 4.2081-7.05v-19.3073z" fill="#8c5950"/><path d="m42.4685 32.4717-4.2081 7.05v19.3073l4.2081-7.05z" fill="#9c685c"/><path d="m38.2603 26.303-1.629-.3925v32.5259l1.629.3926z" fill="#ad7556"/><path d="m40.4646 24.5886-1.6289-.4006-2.2039 1.7225 1.6289.3925z" fill="#784343"/><path d="m12.9956 9.91985-1.0141-1.36193v34.94538l1.0141 1.3619z" fill="#ad7556"/><path d="m38.2604 26.303v32.5259l4.2081-7.0499v-19.3233c0-7.2102-1.8924-10.0302-4.2081-6.1527z" fill="#8b574f"/><path d="m15.631 9.73566v34.64094l1.1817-.2163v-34.28845c-.3912-.06614-.7857-.1116-1.1817-.13619z" fill="#542c33"/><path d="m19.9187 10.9454v32.6301l1.1738-.2163v-31.6688c-.3736-.2753-.7658-.5242-1.1738-.745z" fill="#542c33"/><path d="m23.6557 14.294v28.5764l1.1419-.2083v-26.3653c-.314-.7037-.6965-1.3745-1.1419-2.0028z" fill="#542c33"/><path d="m39.1227 25.1414v32.2295l.6708-1.1216v-31.6046c-.255.1179-.4833.287-.6708.4967z" fill="#784343"/><path d="m40.9196 24.837v29.5297l.6468-1.0815v-27.4068c-.1417-.3882-.3619-.7428-.6468-1.0414z" fill="#784343"/><path d="m16.796 36.0338c-1.3318-.3287-2.1297-1.7446-1.782-3.1624.3476-1.4178 1.709-2.3007 3.0409-1.972 1.3318.3286 2.1296 1.7445 1.782 3.1623-.3477 1.4178-1.7091 2.3008-3.0409 1.9721z" stroke="#9ea5b8" stroke-miterlimit="10" stroke-width="5.16667"/><path d="m17.1318 31.4784v-1.402" stroke="#9ea5b8" stroke-linecap="round" stroke-miterlimit="10" stroke-width="5.16667"/></svg>