<svg xmlns="http://www.w3.org/2000/svg" id="Layer_1" enable-background="new 0 0 137.1 106.5" viewBox="0 0 137.1 106.5">
  <style>
    .st0{fill:#fff}
  </style>
  <g transform="translate(21 27)">
    <path d="M38.7 67.1c.4 0 .7-.3.7-.7 0-.4-.3-.7-.7-.7H22.1c-.4 0-.7.3-.7.7 0 .4.3.7.7.7h16.6zM19-21.6c-.1.1-.2.3-.2.5s.1.4.2.5l.1.1s.1 0 .1.1h.2c.2 0 .4-.1.5-.2.1-.1.2-.3.2-.5s-.1-.4-.2-.5c-.1-.3-.6-.3-.9 0zm5.6-.2c-.4 0-.7.3-.7.7 0 .4.3.7.7.7h16.7c.4 0 .7-.3.7-.7 0-.4-.3-.7-.7-.7H24.6zM10 61.5h35.1v10.6H42c0-.4-.3-.7-.7-.7H6c-1.2 0-2.2-1-2.2-2.2v-92.6c0-1.2 1-2.2 2.2-2.2h9.8c.4 0 .7-.3.7-.7h1.9c0 .4.3.7.7.7h35.6c1.2 0 2.2 1 2.2 2.2v13.8h-4.8v-2.9c.4 0 .7-.3.7-.7v-1c0-1.2-1-2.1-2.1-2.1H10c-1.2 0-2.1 1-2.1 2.1v73.6c0 1.2 1 2.1 2.1 2.1z" class="st0"/>
    <path d="M51.5-13.2v-1.7H9.3v75h35.8V-4.6c0-2.7 2.2-5 5-5h2.1v-2.9c-.4 0-.7-.3-.7-.7" class="st0"/>
    <defs>
      <filter id="Adobe_OpacityMaskFilter" width="1" height="7.9" x="92.3" y="9.5" filterUnits="userSpaceOnUse">
        <feColorMatrix values="1 0 0 0 0 0 1 0 0 0 0 0 1 0 0 0 0 0 1 0"/>
      </filter>
    </defs>
    <mask id="b_1_" width="1" height="7.9" x="92.3" y="9.5" maskUnits="userSpaceOnUse">
      <g filter="url(#Adobe_OpacityMaskFilter)">
        <path id="a_1_" d="M-21 79.5h137.1V-27H-21z" class="st0"/>
      </g>
    </mask>
    <path fill="#f7f7f8" d="M92.3 17.4h1V9.5h-1z" mask="url(#b_1_)"/>
    <defs>
      <filter id="Adobe_OpacityMaskFilter_1_" width="44.3" height="86.2" x="46.6" y="-8.1" filterUnits="userSpaceOnUse">
        <feColorMatrix values="1 0 0 0 0 0 1 0 0 0 0 0 1 0 0 0 0 0 1 0"/>
      </filter>
    </defs>
    <mask id="b_2_" width="44.3" height="86.2" x="46.6" y="-8.1" maskUnits="userSpaceOnUse">
      <g filter="url(#Adobe_OpacityMaskFilter_1_)">
        <path id="a_2_" d="M-21 79.5h137.1V-27H-21z" class="st0"/>
      </g>
    </mask>
    <path fill="#f7f7f8" d="M68.5 75.1c-1.9 0-3.5-1.6-3.5-3.5s1.6-3.5 3.5-3.5 3.5 1.6 3.5 3.5c0 2-1.5 3.5-3.5 3.5m22.4-.5V66h-7.3c-.4 0-.7-.3-.7-.7h-4.7c0 .4-.3.7-.7.7H46.6v8.6c0 2 1.6 3.5 3.5 3.5h37.2c2 0 3.6-1.6 3.6-3.5m-17-76.4h-6.5c-.4 0-.7-.3-.7-.7s.3-.7.7-.7h6.5c.4 0 .7.3.7.7s-.3.7-.7.7M63-2l-.1.1s-.1 0-.1.1h-.2c-.2 0-.4-.1-.5-.2-.1-.1-.2-.3-.2-.5s.1-.4.2-.5c.2-.2.4-.2.6-.2h.1s.1 0 .1.1l.1.1c.1.1.2.3.2.5s0 .4-.2.5m24.3-6.1H50.1c-2 0-3.5 1.6-3.5 3.5v7.2h44.3v-7.2c0-1.9-1.6-3.5-3.6-3.5" mask="url(#b_2_)"/>
    <defs>
      <filter id="Adobe_OpacityMaskFilter_2_" width="44.3" height="61.3" x="46.6" y="4" filterUnits="userSpaceOnUse">
        <feColorMatrix values="1 0 0 0 0 0 1 0 0 0 0 0 1 0 0 0 0 0 1 0"/>
      </filter>
    </defs>
    <mask id="b_3_" width="44.3" height="61.3" x="46.6" y="4" maskUnits="userSpaceOnUse">
      <g filter="url(#Adobe_OpacityMaskFilter_2_)">
        <path id="a_3_" d="M-21 79.5h137.1V-27H-21z" class="st0"/>
      </g>
    </mask>
    <path fill="#dcddde" d="M83.6 64.6h7.3V4H46.6v60.6h30.9c.4 0 .7.3.7.7h4.7c-.1-.4.3-.7.7-.7" mask="url(#b_3_)"/>
    <defs>
      <filter id="Adobe_OpacityMaskFilter_3_" width="69.6" height="102.1" x="2.4" y="-27" filterUnits="userSpaceOnUse">
        <feColorMatrix values="1 0 0 0 0 0 1 0 0 0 0 0 1 0 0 0 0 0 1 0"/>
      </filter>
    </defs>
    <mask id="b_4_" width="69.6" height="102.1" x="2.4" y="-27" maskUnits="userSpaceOnUse">
      <g filter="url(#Adobe_OpacityMaskFilter_3_)">
        <path id="a_4_" d="M-21 79.5h137.1V-27H-21z" class="st0"/>
      </g>
    </mask>
    <path fill="#b9bbbe" d="M68.5 68.1c-1.9 0-3.5 1.6-3.5 3.5s1.6 3.5 3.5 3.5 3.5-1.6 3.5-3.5-1.5-3.5-3.5-3.5m-27.1 3.3H6c-1.2 0-2.2-1-2.2-2.2v-92.6c0-1.2 1-2.2 2.2-2.2h9.8c.4 0 .7-.3.7-.7 0-.4-.3-.7-.7-.7H6c-2 0-3.6 1.6-3.6 3.6v92.6c0 2 1.6 3.6 3.6 3.6h35.3c.4 0 .7-.3.7-.7.1-.4-.3-.7-.6-.7" mask="url(#b_4_)"/>
    <defs>
      <filter id="Adobe_OpacityMaskFilter_4_" width="137.1" height="88.9" x="-21" y="-21.8" filterUnits="userSpaceOnUse">
        <feColorMatrix values="1 0 0 0 0 0 1 0 0 0 0 0 1 0 0 0 0 0 1 0"/>
      </filter>
    </defs>
    <mask id="b_5_" width="137.1" height="88.9" x="-21" y="-21.8" maskUnits="userSpaceOnUse">
      <g filter="url(#Adobe_OpacityMaskFilter_4_)">
        <path id="a_5_" d="M-21 79.5h137.1V-27H-21z" class="st0"/>
      </g>
    </mask>
    <path fill="#b9bbbe" d="M38.7 65.6H22.1c-.4 0-.7.3-.7.7 0 .4.3.7.7.7h16.7c.4 0 .7-.3.7-.7-.1-.3-.4-.7-.8-.7m-14.1-86h16.7c.4 0 .7-.3.7-.7 0-.4-.3-.7-.7-.7H24.6c-.4 0-.7.3-.7.7 0 .4.3.7.7.7m-5.5-.1s.1 0 .1.1h.2c.2 0 .4-.1.5-.2.1-.1.2-.3.2-.5s-.1-.4-.2-.5c-.3-.3-.7-.3-1 0-.1.1-.2.3-.2.5s.1.4.2.5c.2 0 .2 0 .2.1m-35.4 46.6c0-.4-.3-.7-.7-.7h-3.3c-.4 0-.7.3-.7.7 0 .4.3.7.7.7h3.3c.4 0 .7-.3.7-.7m1.6 13.7l-3.1 1.1c-.4.1-.6.5-.4.9.1.3.4.5.7.5h.2l3.1-1.1c.4-.1.6-.5.4-.9-.2-.4-.6-.6-.9-.5m7.1 12.8l-2.5 2.1c-.3.3-.3.7-.1 1 .1.2.3.3.5.3s.3-.1.5-.2l2.5-2.1c.3-.3.3-.7.1-1-.3-.3-.7-.3-1-.1M-9.2-3.6c-.3-.3-.7-.2-1 .1-.3.3-.2.7.1 1l2.5 2.1c.1.1.3.2.5.2s.4-.1.5-.3c.3-.3.2-.7-.1-1l-2.5-2.1zm-5.1 14.7l-3.1-1.1c-.4-.1-.8.1-.9.4-.1.4.1.8.4.9l3.1 1.1h.2c.3 0 .6-.2.7-.5.2-.3 0-.7-.4-.8m125.7 15c0-.4.3-.7.7-.7h3.3c.4 0 .7.3.7.7 0 .4-.3.7-.7.7h-3.3c-.4 0-.7-.3-.7-.7m-1.6 13.7l3.1 1.1c.4.1.6.5.4.9-.1.3-.4.5-.7.5h-.2l-3.1-1.1c-.4-.1-.6-.5-.4-.9.1-.4.6-.6.9-.5m-7.1 12.8l2.5 2.1c.3.3.3.7.1 1-.1.2-.3.3-.5.3s-.3-.1-.5-.2l-2.5-2.1c-.3-.3-.3-.7-.1-1 .3-.3.7-.3 1-.1m1.6-56.2c.3-.3.7-.2 1 .1.3.3.2.7-.1 1l-2.5 2.1c-.1.1-.3.2-.5.2s-.4-.1-.5-.3c-.3-.3-.2-.7.1-1l2.5-2.1zm5 14.7l3.1-1.1c.4-.1.8.1.9.4.1.4-.1.8-.4.9l-3.1 1.1h-.2c-.3 0-.6-.2-.7-.5-.1-.3.1-.7.4-.8m-73.7-.6c-.4 0-.8-.4-.8-.8s.4-.8.8-.8.8.4.8.8c0 .5-.3.8-.8.8m-8.7 0c-.4 0-.8-.4-.8-.8s.4-.8.8-.8.8.4.8.8c0 .5-.4.8-.8.8M36 6.3l1.5-2.7c.1-.1 0-.3-.1-.4-.1-.1-.3 0-.4.1l-1.2 2.2c-.2.3-.5.5-.9.3-1.1-.4-2.3-.7-3.6-.6-1.3 0-2.5.2-3.6.6-.3.1-.7 0-.9-.3l-1.2-2.2c-.1-.1-.3-.2-.4-.1-.2.1-.2.3-.1.4l1.1 2.1c.2.3.1.7-.2.9-2.4 1.4-4 3.8-4.3 6.6 0 .4.3.8.7.8h17.7c.4 0 .8-.4.7-.8A9.1 9.1 0 0 0 36 6.3m-17.2 8c-1.2 0-2.1 1-2.1 2.1v9.7c0 .2.1.4.2.5 1.8 1.8 4.1.6 4.1-1.2v-8.9c-.1-1.2-1-2.2-2.2-2.2m21.3.4H22.5c-.4 0-.7.3-.7.7v13.1c0 1.3 1 2.3 2.3 2.3h.8c.4 0 .7.3.7.7v4.7c0 .2.1.4.2.5 1.8 1.8 4.1.6 4.1-1.2v-4c0-.4.3-.7.7-.7H32c.4 0 .7.3.7.7v4.7c0 .2.1.4.2.5 1.8 1.8 4.1.6 4.1-1.2v-4c0-.4.3-.7.7-.7h.8c1.3 0 2.3-1 2.3-2.3V15.4c0-.3-.3-.7-.7-.7" mask="url(#b_5_)"/>
    <defs>
      <filter id="Adobe_OpacityMaskFilter_5_" width="86.8" height="106.5" x="7.9" y="-27" filterUnits="userSpaceOnUse">
        <feColorMatrix values="1 0 0 0 0 0 1 0 0 0 0 0 1 0 0 0 0 0 1 0"/>
      </filter>
    </defs>
    <mask id="b_6_" width="86.8" height="106.5" x="7.9" y="-27" maskUnits="userSpaceOnUse">
      <g filter="url(#Adobe_OpacityMaskFilter_5_)">
        <path id="a_6_" d="M-21 79.5h137.1V-27H-21z" class="st0"/>
      </g>
    </mask>
    <path fill="#b9bbbe" d="M92.8 9.5c.3 0 .5.2.5.5v6.9c0 .3-.2.5-.5.5s-.5-.2-.5-.5V10c0-.3.2-.5.5-.5zM88 2.6H49.4a2.8 2.8 0 0 1-2.8-2.8v-4.3c0-2 1.6-3.5 3.5-3.5h37.2c2 0 3.5 1.6 3.5 3.5v4.3c.1 1.5-1.2 2.8-2.8 2.8zM50.1 78.1c-2 0-3.5-1.6-3.5-3.5v-5.7c0-1.6 1.3-2.8 2.8-2.8h28.1c.4 0 .7-.3.7-.7s-.3-.7-.7-.7H48c-.8 0-1.4-.6-1.4-1.4V5.4c0-.8.6-1.4 1.4-1.4h41.5c.8 0 1.4.6 1.4 1.4v57.8c0 .8-.6 1.4-1.4 1.4h-5.9c-.4 0-.7.3-.7.7s.3.7.7.7H88c1.6 0 2.8 1.3 2.8 2.8v5.7c0 2-1.6 3.5-3.5 3.5H50.1zm43.4-70c-.7 0-1.2-.5-1.2-1.2V-4.6c0-2.7-2.2-5-5-5H61.2a2.8 2.8 0 0 1-2.8-2.8v-11c0-2-1.6-3.6-3.6-3.6H19.2c-.4 0-.7.3-.7.7 0 .4.3.7.7.7h35.6c1.2 0 2.2 1 2.2 2.2V-11c0 .8-.6 1.4-1.4 1.4h-5.5c-2.7 0-5 2.2-5 5v19.5c-.8-.7-2.2-.8-3.4.3-.1.1-.2.3-.2.5v10.4c0 .2.1.4.2.5 1.2 1.2 2.5 1.1 3.3.3v30.3c0 .8-.6 1.4-1.4 1.4H11c-.9 0-1.7-.8-1.7-1.7v-70.2c0-.9.8-1.7 1.7-1.7h38.8c.9 0 1.7.8 1.7 1.7 0 .4.3.7.7.7s.7-.3.7-.7v-1.4c0-.9-.8-1.7-1.7-1.7H9.6c-.9 0-1.7.8-1.7 1.7v74.4c0 .9.8 1.7 1.7 1.7h31.3c2.3 0 4.3 1.9 4.3 4.3v8.8c0 2.7 2.2 5 5 5h37.2c2.7 0 5-2.2 5-5V20c0-.7.5-1.2 1.2-1.2s1.2-.6 1.2-1.2V9.3c-.1-.7-.6-1.2-1.3-1.2z" mask="url(#b_6_)"/>
    <defs>
      <filter id="Adobe_OpacityMaskFilter_6_" width="12.8" height="1.4" x="61.8" y="-3.2" filterUnits="userSpaceOnUse">
        <feColorMatrix values="1 0 0 0 0 0 1 0 0 0 0 0 1 0 0 0 0 0 1 0"/>
      </filter>
    </defs>
    <mask id="b_7_" width="12.8" height="1.4" x="61.8" y="-3.2" maskUnits="userSpaceOnUse">
      <g filter="url(#Adobe_OpacityMaskFilter_6_)">
        <path id="a_7_" d="M-21 79.5h137.1V-27H-21z" class="st0"/>
      </g>
    </mask>
    <path fill="#b9bbbe" d="M73.9-3.2h-6.5c-.4 0-.7.3-.7.7s.3.7.7.7h6.5c.4 0 .7-.3.7-.7s-.3-.7-.7-.7m-11 .1s-.1 0-.1-.1h-.1c-.2 0-.5 0-.6.2-.1.1-.2.3-.2.5s.1.4.2.5c.1.1.3.2.5.2h.2s.1 0 .1-.1c.1 0 .1-.1.1-.1.1-.1.2-.3.2-.5s-.1-.4-.2-.5l-.1-.1" mask="url(#b_7_)"/>
    <defs>
      <filter id="Adobe_OpacityMaskFilter_7_" width="23" height="20.5" x="56.7" y="24.1" filterUnits="userSpaceOnUse">
        <feColorMatrix values="1 0 0 0 0 0 1 0 0 0 0 0 1 0 0 0 0 0 1 0"/>
      </filter>
    </defs>
    <mask id="b_8_" width="23" height="20.5" x="56.7" y="24.1" maskUnits="userSpaceOnUse">
      <g filter="url(#Adobe_OpacityMaskFilter_7_)">
        <path id="a_8_" d="M-21 79.5h137.1V-27H-21z" class="st0"/>
      </g>
    </mask>
    <path fill="#fff" d="M78.3 27.2c.4-.3.4-.8.1-1.1-1.3-1.3-3-2.1-4.6-2.1-2.4 0-3.4 1.2-5.1 1.2-1.7 0-3-1.1-5.1-1.1-2.1 0-4.2 1.2-5.6 3.4-2 3-1.6 8.7 1.5 13.5 1.1 1.7 2.6 3.7 4.6 3.7 1.8 0 2.3-1.1 4.6-1.1 2.4 0 2.8 1.1 4.6 1.1 2 0 3.6-2.2 4.7-3.9.8-1.2 1.1-1.9 1.7-3.3a5.93 5.93 0 0 1-1.4-10.3" mask="url(#b_8_)"/>
    <defs>
      <filter id="Adobe_OpacityMaskFilter_8_" width="5.5" height="6.3" x="67.8" y="17.9" filterUnits="userSpaceOnUse">
        <feColorMatrix values="1 0 0 0 0 0 1 0 0 0 0 0 1 0 0 0 0 0 1 0"/>
      </filter>
    </defs>
    <mask id="b_9_" width="5.5" height="6.3" x="67.8" y="17.9" maskUnits="userSpaceOnUse">
      <g filter="url(#Adobe_OpacityMaskFilter_8_)">
        <path id="a_9_" d="M-21 79.5h137.1V-27H-21z" class="st0"/>
      </g>
    </mask>
    <path fill="#fff" d="M68.6 24.2c1.3-.2 2.6-1 3.4-2.1.7-.9 1.3-2.2 1.4-3.5 0-.5-.4-.8-.9-.7-1.2.3-2.5 1.1-3.3 2.1-.8.9-1.4 2.2-1.4 3.5 0 .5.4.8.8.7" mask="url(#b_9_)"/>
  </g>
</svg>
