<svg xmlns="http://www.w3.org/2000/svg" width="24" height="24" viewBox="0 0 24 24">
  <g fill="none" fill-rule="evenodd">
    <path fill="#4F545C" d="M21.9544219,11.0460196 C21.2889049,10.6663024 20.563682,10.3793486 19.7963501,10.2029279 C18.9783156,6.6548203 15.7923545,4 12,4 C7.59,4 4,7.59 4,12 C4,15.7924252 6.6549193,18.9784344 10.2031263,19.7963958 C10.3795887,20.5633929 10.6665556,21.2886839 11.046389,21.9544573 C8.74419034,21.7339917 6.5781799,20.7203155 4.92893219,19.0710678 C3.0535684,17.195704 2,14.6521649 2,12 C2,6.4771525 6.4771525,2 12,2 L12,2 C14.6521649,2 17.195704,3.0535684 19.0710678,4.92893219 C20.7202273,6.57809169 21.7338833,8.74395863 21.9544219,11.0460196 Z M11,14.1273464 L11,11 L13,11 L13,11.7576565 C12.1893989,12.4079618 11.50769,13.2127544 11,14.1273464 Z M11,9 L11,7 L13,7 L13,9 L11,9 Z" opacity=".6"/>
    <rect width="24" height="24"/>
  </g>
</svg>
