<svg width="216" height="128" viewBox="0 0 216 128" fill="none" xmlns="http://www.w3.org/2000/svg">
<g clip-path="url(#clip0)">
<path d="M107.744 36.6295L82.0361 62.3375V98.5617L107.744 124.27L133.452 98.5617V62.3375L107.744 36.6295Z" fill="#E5E5E4"/>
<path d="M107.744 36.6295L82.0361 62.3375L94.8986 67.6715L107.744 54.8091L120.607 67.6715V93.2445L133.452 98.5617V62.3375L107.744 36.6295Z" fill="#D6D6D5"/>
<path d="M94.8986 93.2445L82.0361 98.5617L107.744 124.287V106.107L94.8986 93.2445Z" fill="#F1F1F1"/>
<path d="M94.8987 67.6715V93.2445L107.744 106.107L120.607 93.2445V67.6715L107.744 54.8091L94.8987 67.6715Z" fill="#DCDCDB"/>
<path d="M33.6417 85.8848V81.3273L31.9537 82.0531C30.8712 82.5185 29.9489 83.2909 29.3009 84.275C28.6529 85.259 28.3075 86.4114 28.3076 87.5897V90.7294C28.3047 92.2279 28.0048 93.711 27.4253 95.093C26.8459 96.475 25.9983 97.7285 24.9316 98.781L23.48 100.25V106.833H39.3808V103.457C39.3772 99.9538 38.2469 96.545 36.1568 93.734L36.0048 93.5145C34.4022 91.299 33.5719 88.6183 33.6417 85.8848Z" fill="#FF9A15"/>
<path d="M30.1473 116.15C35.2933 116.15 39.465 111.979 39.465 106.833C39.465 101.687 35.2933 97.515 30.1473 97.515C25.0013 97.515 20.8296 101.687 20.8296 106.833C20.8296 111.979 25.0013 116.15 30.1473 116.15Z" fill="#FF9A15"/>
<path d="M34.5192 98.5108H33.8609V94.8816C33.8609 94.2325 34.1188 93.6099 34.5778 93.1509C35.0368 92.6919 35.6593 92.434 36.3085 92.434H36.9668V96.0632C36.9668 96.7124 36.7089 97.3349 36.2499 97.7939C35.7909 98.2529 35.1683 98.5108 34.5192 98.5108Z" fill="#FFD836"/>
<path d="M30.1886 101.417L32.8742 104.102C33.5864 104.815 33.9866 105.781 33.9866 106.788C33.9866 107.795 33.5864 108.761 32.8742 109.473C32.1619 110.186 31.1959 110.586 30.1886 110.586C29.1813 110.586 28.2153 110.186 27.503 109.473C26.7908 108.761 26.3906 107.795 26.3906 106.788C26.3906 105.781 26.7908 104.815 27.503 104.102L30.1886 101.417Z" fill="#FFD836"/>
<path d="M38.8236 115.121C37.9438 116.646 36.6779 117.912 35.1534 118.792C33.6289 119.673 31.8994 120.136 30.1389 120.136C28.3784 120.136 26.6489 119.673 25.1244 118.792C23.5999 117.912 22.3341 116.646 21.4542 115.121H38.8236Z" fill="#B2C1D1"/>
<path d="M39.8026 112.926H20.492C19.8022 112.926 19.2429 113.485 19.2429 114.175V114.192C19.2429 114.882 19.8022 115.441 20.492 115.441H39.8026C40.4925 115.441 41.0517 114.882 41.0517 114.192V114.175C41.0517 113.485 40.4925 112.926 39.8026 112.926Z" fill="#DAE1EA"/>
<path d="M31.5146 117.18C31.5146 116.425 30.9024 115.813 30.1473 115.813C29.3922 115.813 28.78 116.425 28.78 117.18V126.633C28.78 127.388 29.3922 128 30.1473 128C30.9024 128 31.5146 127.388 31.5146 126.633V117.18Z" fill="#B2C1D1"/>
<path d="M188.835 85.8848V81.3273L187.147 82.0531C186.065 82.5185 185.142 83.2909 184.494 84.275C183.846 85.259 183.501 86.4114 183.501 87.5897V90.7294C183.498 92.2279 183.198 93.711 182.619 95.093C182.039 96.475 181.192 97.7285 180.125 98.781L178.673 100.25V106.833H194.574V103.457C194.571 99.9538 193.44 96.545 191.35 93.734L191.198 93.5145C189.596 91.299 188.765 88.6183 188.835 85.8848Z" fill="#FF9A15"/>
<path d="M185.341 116.15C190.487 116.15 194.658 111.979 194.658 106.833C194.658 101.687 190.487 97.515 185.341 97.515C180.195 97.515 176.023 101.687 176.023 106.833C176.023 111.979 180.195 116.15 185.341 116.15Z" fill="#FF9A15"/>
<path d="M189.713 98.5107H189.054V94.8816C189.054 94.2324 189.312 93.6099 189.771 93.1509C190.23 92.6919 190.853 92.434 191.502 92.434H192.177V96.0632C192.177 96.386 192.113 96.7057 191.989 97.0037C191.865 97.3018 191.683 97.5724 191.454 97.7999C191.225 98.0274 190.954 98.2073 190.655 98.3293C190.356 98.4513 190.036 98.513 189.713 98.5107Z" fill="#FFD836"/>
<path d="M185.396 101.414L188.082 104.1C188.771 104.827 189.146 105.796 189.123 106.798C189.101 107.799 188.684 108.752 187.963 109.447C187.25 110.159 186.284 110.559 185.277 110.559C184.27 110.559 183.304 110.159 182.592 109.447C181.879 108.735 181.479 107.769 181.479 106.761C181.479 105.754 181.879 104.788 182.592 104.076L185.325 101.343L185.396 101.414Z" fill="#FFD836"/>
<path d="M194.118 115.121C193.239 116.646 191.973 117.912 190.448 118.792C188.924 119.673 187.194 120.136 185.434 120.136C183.673 120.136 181.944 119.673 180.419 118.792C178.895 117.912 177.629 116.646 176.749 115.121H194.118Z" fill="#B2C1D1"/>
<path d="M194.996 112.926H175.686C174.996 112.926 174.436 113.485 174.436 114.175V114.192C174.436 114.882 174.996 115.441 175.686 115.441H194.996C195.686 115.441 196.245 114.882 196.245 114.192V114.175C196.245 113.485 195.686 112.926 194.996 112.926Z" fill="#DAE1EA"/>
<path d="M186.708 117.18C186.708 116.425 186.096 115.813 185.341 115.813C184.586 115.813 183.974 116.425 183.974 117.18V126.633C183.974 127.388 184.586 128 185.341 128C186.096 128 186.708 127.388 186.708 126.633V117.18Z" fill="#B2C1D1"/>
<path d="M153.962 33.9812L176.64 56.6594C177.691 57.7294 178.277 59.1713 178.27 60.6712C178.264 62.1712 177.665 63.6078 176.604 64.6683C175.537 65.7352 174.09 66.3345 172.582 66.3345C171.073 66.3345 169.626 65.7352 168.559 64.6683L152.291 48.3998C150.391 46.5004 149.324 43.9243 149.324 41.2383C149.324 38.5522 150.391 35.9761 152.291 34.0767C152.502 33.846 152.795 33.7068 153.107 33.689C153.419 33.6711 153.726 33.776 153.962 33.9812Z" fill="#AEC7FF"/>
<path d="M152.24 19.7495V33.7598C152.241 37.0371 153.54 40.1805 155.852 42.5036L167.111 53.7118C168.257 54.8145 169.791 55.421 171.381 55.3998H182.488C183.916 55.3998 185.286 54.8325 186.296 53.8226C187.306 52.8128 187.873 51.4432 187.873 50.0151C187.873 48.587 187.306 47.2174 186.296 46.2075C185.286 45.1977 183.916 44.6304 182.488 44.6304H177.239L167.685 35.0764V17.8252L152.24 19.7495Z" fill="#AEC7FF"/>
<path d="M156.443 12.8962L149.353 19.9857L163.043 31.6497V52.3275L160.966 59.4171L165.304 55.0789C168.513 51.851 172.873 50.0295 177.424 50.015H182.303C189.238 50.0129 196.036 48.0781 201.934 44.4277V6.34677H172.36C169.406 6.33212 166.478 6.90341 163.746 8.02759C161.013 9.15177 158.531 10.8065 156.443 12.8962Z" fill="#EBF0F7"/>
<path d="M160.882 33.1183C161.29 33.5259 161.614 34.0101 161.835 34.543C162.056 35.076 162.17 35.6472 162.17 36.2242C162.17 36.8012 162.056 37.3724 161.835 37.9054C161.614 38.4383 161.29 38.9225 160.882 39.3301L151.497 48.7153L161.523 58.7251L181.323 38.925L155.869 13.5039L126.903 42.4191C125.679 43.644 124.992 45.3045 124.992 47.0358C124.992 48.767 125.679 50.4275 126.903 51.6524C128.128 52.8759 129.788 53.5632 131.519 53.5632C133.251 53.5632 134.911 52.8759 136.136 51.6524L154.704 33.0845C155.532 32.2788 156.644 31.8307 157.8 31.837C158.955 31.8434 160.062 32.3035 160.882 33.1183Z" fill="#EBF0F7"/>
<path d="M162.131 46.4701H130.296L107.862 68.9034V100.739H139.698L162.131 78.3055V46.4701ZM135.039 89.4631H119.121V73.5623L135.039 57.729H150.957V73.6467L135.039 89.4631Z" fill="#FA6EF6"/>
<path d="M162.131 46.4701L150.872 57.729V73.6467L162.131 78.3055V46.4701Z" fill="#FFADFB"/>
<path d="M119.121 73.5625L107.862 68.8868V100.739L119.121 89.4802V73.5625Z" fill="#E655D4"/>
<path d="M134.954 57.7292L119.121 73.5626V89.4803H135.039L150.872 73.647V57.7292H134.954Z" fill="#FFCFF9"/>
<path d="M150.855 73.6298L150.822 73.6636L119.104 73.6298V73.5792L123.409 69.2917H150.889L150.855 73.6298Z" fill="white"/>
<path d="M144.88 79.6223L140.491 83.9941H119.138V79.6223H144.88Z" fill="white"/>
<path d="M187.512 32.9446L156.228 64.2285C154.895 65.5612 153.087 66.3099 151.203 66.3099C149.318 66.3099 147.51 65.5612 146.178 64.2285C144.845 62.8958 144.096 61.0882 144.096 59.2035C144.096 57.3187 144.845 55.5112 146.178 54.1785L177.462 22.8946L187.512 32.9446Z" fill="#EBF0F7"/>
<path d="M201.411 44.7652C200.25 45.4552 199.056 46.0861 197.832 46.6558V6.34668H201.411V44.7652Z" fill="#AEC7FF"/>
<path d="M200.432 43.8876C200.432 48.0454 203.802 51.416 207.96 51.416C212.118 51.416 215.488 48.0454 215.488 43.8876V7.52837C215.488 3.37054 212.118 -4.57764e-05 207.96 -4.57764e-05C203.802 -4.57764e-05 200.432 3.37054 200.432 7.52837V43.8876Z" fill="#EBF0F7"/>
<path d="M156.426 113.483C155.522 113.483 154.788 114.216 154.788 115.121C154.788 116.025 155.522 116.758 156.426 116.758H158.063C158.967 116.758 159.701 116.025 159.701 115.121C159.701 114.216 158.967 113.483 158.063 113.483H156.426Z" fill="#7196FF"/>
<path d="M143.327 113.483C142.423 113.483 141.689 114.216 141.689 115.121C141.689 116.025 142.423 116.758 143.327 116.758H144.964C145.868 116.758 146.602 116.025 146.602 115.121C146.602 114.216 145.868 113.483 144.964 113.483H143.327Z" fill="#7196FF"/>
<path d="M149.049 109.364C149.049 110.269 149.782 111.002 150.687 111.002C151.591 111.002 152.324 110.269 152.324 109.364V107.727C152.324 106.823 151.591 106.09 150.687 106.09C149.782 106.09 149.049 106.823 149.049 107.727V109.364Z" fill="#7196FF"/>
<path d="M149.049 122.497C149.049 123.401 149.782 124.135 150.687 124.135C151.591 124.135 152.324 123.401 152.324 122.497V120.86C152.324 119.956 151.591 119.222 150.687 119.222C149.782 119.222 149.049 119.956 149.049 120.86V122.497Z" fill="#7196FF"/>
<path d="M68.431 19.0743V19.0911C68.431 19.753 68.9676 20.2896 69.6295 20.2896H70.8448C71.5067 20.2896 72.0433 19.753 72.0433 19.0911V19.0743C72.0433 18.4124 71.5067 17.8758 70.8448 17.8758H69.6295C68.9676 17.8758 68.431 18.4124 68.431 19.0743Z" fill="#EBF0F7"/>
<path d="M58.7755 19.0572V19.0741C58.7755 19.736 59.3121 20.2726 59.974 20.2726H61.1893C61.8512 20.2726 62.3878 19.736 62.3878 19.0741V19.0572C62.3878 18.3953 61.8512 17.8588 61.1893 17.8588H59.974C59.3121 17.8588 58.7755 18.3953 58.7755 19.0572Z" fill="#EBF0F7"/>
<path d="M65.3926 16.0696H65.4094C66.0713 16.0696 66.6079 15.5331 66.6079 14.8712V13.6558C66.6079 12.9939 66.0713 12.4573 65.4094 12.4573H65.3926C64.7307 12.4573 64.1941 12.9939 64.1941 13.6558V14.8712C64.1941 15.5331 64.7307 16.0696 65.3926 16.0696Z" fill="#EBF0F7"/>
<path d="M65.3926 25.708H65.4094C66.0713 25.708 66.6079 25.1714 66.6079 24.5095V23.2942C66.6079 22.6323 66.0713 22.0957 65.4094 22.0957H65.3926C64.7307 22.0957 64.1941 22.6323 64.1941 23.2942V24.5095C64.1941 25.1714 64.7307 25.708 65.3926 25.708Z" fill="#EBF0F7"/>
<path d="M42.9929 52.7158L37.5576 55.3321C37.2795 55.4649 36.9669 55.5079 36.6632 55.4551C36.3596 55.4023 36.0799 55.2563 35.8629 55.0375C35.6459 54.8186 35.5023 54.5377 35.4521 54.2336C35.4019 53.9295 35.4475 53.6173 35.5827 53.3403L38.1822 47.9219C38.2817 47.7227 38.3335 47.5031 38.3335 47.2804C38.3335 47.0578 38.2817 46.8382 38.1822 46.639L35.5827 41.2037C35.4475 40.9267 35.4019 40.6145 35.4521 40.3104C35.5023 40.0063 35.6459 39.7254 35.8629 39.5065C36.0799 39.2876 36.3596 39.1417 36.6632 39.0889C36.9669 39.0361 37.2795 39.0791 37.5576 39.2119L42.9929 41.8282C43.1921 41.9278 43.4117 41.9796 43.6343 41.9796C43.857 41.9796 44.0766 41.9278 44.2758 41.8282L49.7111 39.2119C49.9892 39.0791 50.3018 39.0361 50.6054 39.0889C50.9091 39.1417 51.1888 39.2876 51.4058 39.5065C51.6228 39.7254 51.7664 40.0063 51.8166 40.3104C51.8668 40.6145 51.8212 40.9267 51.686 41.2037L49.0697 46.639C48.9783 46.8405 48.931 47.0592 48.931 47.2804C48.931 47.5017 48.9783 47.7204 49.0697 47.9219L51.686 53.3403C51.8212 53.6173 51.8668 53.9295 51.8166 54.2336C51.7664 54.5377 51.6228 54.8186 51.4058 55.0375C51.1888 55.2563 50.9091 55.4023 50.6054 55.4551C50.3018 55.5079 49.9892 55.4649 49.7111 55.3321L44.2758 52.7158C44.0743 52.6244 43.8556 52.5771 43.6343 52.5771C43.4131 52.5771 43.1944 52.6244 42.9929 52.7158Z" fill="#AEC7FF"/>
</g>
<defs>
<clipPath id="clip0">
<rect width="215.488" height="128" fill="white"/>
</clipPath>
</defs>
</svg>
