<svg width="100" height="130" viewBox="0 0 100 130" xmlns="http://www.w3.org/2000/svg"><title>icon-file-large-webcode</title><defs><filter x="-50%" y="-50%" width="200%" height="200%" filterUnits="objectBoundingBox" id="a"><feOffset dy="2" in="SourceAlpha" result="shadowOffsetOuter1"/><feGaussianBlur stdDeviation="7" in="shadowOffsetOuter1" result="shadowBlurOuter1"/><feColorMatrix values="0 0 0 0 0 0 0 0 0 0 0 0 0 0 0 0 0 0 0.07 0" in="shadowBlurOuter1" result="shadowMatrixOuter1"/><feMerge><feMergeNode in="shadowMatrixOuter1"/><feMergeNode in="SourceGraphic"/></feMerge></filter><filter x="-50%" y="-50%" width="200%" height="200%" filterUnits="objectBoundingBox" id="b"><feOffset dx="-1" dy="3" in="SourceAlpha" result="shadowOffsetOuter1"/><feGaussianBlur in="shadowOffsetOuter1" result="shadowBlurOuter1"/><feColorMatrix values="0 0 0 0 0 0 0 0 0 0 0 0 0 0 0 0 0 0 0.07 0" in="shadowBlurOuter1" result="shadowMatrixOuter1"/><feMerge><feMergeNode in="shadowMatrixOuter1"/><feMergeNode in="SourceGraphic"/></feMerge></filter></defs><g fill="none" fill-rule="evenodd"><path d="M0 6.993C0 3.683 2.68 1 5.99 1h44.287C54.852 1 70 15.79 70 20.19v74.816c0 3.31-2.68 5.994-5.998 5.994H5.998C2.686 101 0 98.312 0 95.007V6.993z" stroke="#7289DA" stroke-width="2" fill="#F4F6FC" filter="url(#a)" transform="translate(15 12)"/><path d="M51 3.997c0-3.312 1.895-4.102 4.242-1.755l13.516 13.516C71.1 18.1 70.313 20 67.003 20H54c-1.656 0-3-1.343-3-3V3.996z" stroke="#7289DA" stroke-width="2" fill="#F4F6FC" filter="url(#b)" transform="translate(15 12)"/><path d="M61 17H22.985c-2.76 0-4.997 2.23-4.997 5.002V29" stroke="#C9D2F0" stroke-width="2" opacity=".6"/><path d="M69 19v7.502C69 27.882 70.11 29 71.5 29H74" stroke-opacity=".6" stroke="#C9D2F0" stroke-width="2"/><path d="M39.37 89.8h-2.58l9.84-26.1h2.58l-9.84 26.1zm25.06-13.68l-11.31 7.56v-2.79l8.76-5.79v-.12l-8.76-5.79V66.4l11.31 7.56v2.16z" opacity=".8" fill="#697EC4"/></g></svg>