<svg fill="none" height="60" viewBox="0 0 47 60" width="47" xmlns="http://www.w3.org/2000/svg" xmlns:xlink="http://www.w3.org/1999/xlink"><clipPath id="a"><path d="m0 0h47v60h-47z"/></clipPath><g clip-path="url(#a)"><path d="m14.6554 54.202 14.0399-13.9211" stroke="#305dce" stroke-miterlimit="10"/><g fill="#4a76e6"><path d="m33.6195 41.9084h-1.0991v6.8588h1.0991z"/><path d="m25.1048 41.3417h-1.0992v6.8588h1.0992z"/><path d="m15.6959 12.4825h-13.30711v28.06h13.30711z"/><path d="m15.6959 12.4825h-13.30711v2.8045h13.30711z"/></g><path d="m41.6947 40.5425h-25.9988v-25.2555l12.9994-7.64351 12.9994 7.64351z" fill="#7196ff"/><path d="m15.6959 11.2182v4.0688l12.9994-7.64351 12.9994 7.64351v-4.0688l-12.9994-7.64349z" fill="#4a76e6"/><path d="m17.1469 10.7968h-2.8871v29.7457h2.8871z" fill="#305dce"/><path d="m43.1309 12.3371h-2.8871v28.2054h2.8871z" fill="#305dce"/><path d="m37.518 11.6978h-.8647v11.1164h.8647z" fill="#305dce"/><path d="m45.4905 13.4706-16.7951-9.89589-16.7951 9.89589" stroke="#e77002" stroke-linecap="round" stroke-linejoin="round" stroke-width="2"/><path d="m28.6953 10.7968c.6063 0 1.2066.1184 1.7667.3484.5601.2301 1.069.5672 1.4977.9923.4286.425.7687.9297 1.0007 1.485.232.5554.3514 1.1506.3514 1.7517v8.3265h-9.2329v-8.3265c0-.6011.1194-1.1963.3514-1.7517.232-.5553.572-1.06 1.0007-1.485.8657-.8584 2.04-1.3407 3.2643-1.3407z" fill="#fff"/><path d="m28.6953 11.6251c.5216 0 1.038.1019 1.5199.2998s.9197.4879 1.2885.8536.6613.7998.8609 1.2776.3023.9898.3023 1.507v7.2511h-7.9432v-7.1785c-.0097-.5232.0858-1.0431.281-1.5293.1953-.4862.4863-.9289.856-1.3023.3698-.3734.8109-.67 1.2976-.8724.4867-.2025 1.0092-.3067 1.537-.3066z" fill="#202225"/><path d="m24.7237 15.6357v7.1785h-3.9863v-11.1164c.5228-.002 1.0409.0985 1.5244.2955.4836.1971.9231.4868 1.2935.8527.3703.3659.6642.8006.8647 1.2794.2005.4787.3037.992.3037 1.5103z" fill="#1d48ad"/><path d="m32.667 15.6358v7.1784h3.9716v-11.1164c-1.0533 0-2.0635.4148-2.8083 1.1534-.7449.7385-1.1633 1.7401-1.1633 2.7846z" fill="#1d48ad"/><path d="m28.6953 38.7115c3.3833 0 6.126-2.7194 6.126-6.0741 0-3.3546-2.7427-6.0741-6.126-6.0741s-6.126 2.7195-6.126 6.0741c0 3.3547 2.7427 6.0741 6.126 6.0741z" fill="#ffd836"/><path d="m28.6953 37.7525c2.8491 0 5.1588-2.2901 5.1588-5.1151 0-2.8249-2.3097-5.115-5.1588-5.115-2.849 0-5.1587 2.2901-5.1587 5.115 0 2.825 2.3097 5.1151 5.1587 5.1151z" fill="#fff"/><path d="m14.6555 60c3.2295 0 5.8475-2.5959 5.8475-5.798 0-3.2022-2.618-5.798-5.8475-5.798s-5.84752 2.5958-5.84752 5.798c0 3.2021 2.61802 5.798 5.84752 5.798z" fill="#305dce"/><path d="m31.6411 30.2543-2.9457 2.3831-2.9458-2.3831" stroke="#36393f" stroke-linecap="round" stroke-linejoin="round" stroke-width=".75"/><path d="m45.4904 13.4706-20.1072-11.8431" stroke="#7196ff" stroke-linecap="round" stroke-linejoin="round" stroke-width="2"/><path d="m28.886 3.57471h-12.0761c-.2433-.00509-.4827.06058-.6888.1889l-15.725298 9.31459c-.097918.056-.182865.1318-.249324.2225-.0664598.0906-.1129463.1941-.1364413.3037-.023495.1097-.0234732.223.0000641.3326s.0700638.2131.1365582.3037c.082328.0927.18388.1667.297705.2168.113826.0502.237238.0754.36179.0739h12.032146l-.7621-1.0463z" fill="#aec7ff"/><path d="m16.1063 11.0874-1.3043.7702h-12.4425l1.30433-.7702z" fill="#7196ff" opacity=".5"/><path d="m21.0451 8.18115-1.3043.77016h-12.44246l1.30433-.77016z" fill="#7196ff" opacity=".5"/><path d="m25.9548 5.28943-1.3043.77016h-12.4571l1.3189-.77016z" fill="#7196ff" opacity=".5"/><path d="m11.9003 13.4706 20.1072-11.8431" stroke="#7196ff" stroke-linecap="round" stroke-linejoin="round" stroke-width="2"/><path d="m29.0178 18.0189c.0512-.0327.093-.078.1212-.1315.0283-.0535.042-.1133.04-.1737.0009-.0581-.0134-.1155-.0417-.1665s-.0695-.0937-.1195-.1241l-4.1036-2.7174c-.0626.2625-.1018.53-.1172.7993l3.4147 2.2087-3.4147 2.2379v.8719z" fill="#e77002"/><path d="m33.7076 21.2885c-.0677.0145-.1376.0145-.2052 0l-4.8949-3.2696c-.0513-.0327-.093-.078-.1213-.1315s-.042-.1133-.04-.1737c-.0009-.0581.0135-.1155.0417-.1665.0283-.051.0695-.0937.1196-.1241l4.9242-3.2114c.0624-.0357.1331-.0545.2052-.0545.072 0 .1428.0188.2051.0545l4.9243 3.2259c.05.0304.0912.0732.1195.1241.0283.051.0426.1084.0417.1666.002.0603-.0117.1202-.04.1737-.0282.0535-.07.0988-.1212.1314l-4.9243 3.2115c-.0732.0337-.1538.0487-.2344.0436zm-4.2501-3.5748 4.2501 2.7755 4.25-2.7755-4.25-2.7609z" fill="#e77002"/><path d="m26.9513 16.0717-2.0371-1.366c-.0626.2625-.1018.53-.1172.7993l2.2276 1.4531z" fill="#b93c00"/><path d="m26.9514 18.4984-2.2276 1.4532v.8718l2.2276-1.4531z" fill="#b93c00"/><path d="m35.8807 18.8838-.4766.4726 3.4612 3.432.4767-.4727z" fill="#2e3338"/><path d="m38.0447 18.8889-.4767.4726 3.4612 3.4319.4767-.4726z" fill="#2e3338"/><path d="m41.9439 18.295c.8963-.8929 1.451-2.0674 1.5687-3.3217.1177-1.2544-.209-2.5102-.9238-3.5516l-2.2423-3.2696h-2.6526v4.1705c0 .3623-.1452.7097-.4035.9659-.2584.2561-.6088.4-.9742.4h-4.2647v.9446c0 1.3888.5554 2.7208 1.5444 3.7042s2.331 1.5378 3.7316 1.5416h.7767c1.4391-.012 2.8167-.5802 3.8397-1.5839z" fill="#ffd836"/><path d="m43.7319 22.0732h-8.3683c-.4128 0-.7474.3285-.7474.7338s.3346.7338.7474.7338h8.3683c.4128 0 .7474-.3285.7474-.7338s-.3346-.7338-.7474-.7338z" fill="#ff9a15"/><path d="m40.3465 6.62631c.7035 0 1.3782.27711 1.8757.77036.4974.49326.7769 1.16225.7769 1.85982v.68297h-5.3053v-.6975c.0039-.69505.2851-1.36032.7822-1.85043.497-.49012 1.1695-.76523 1.8705-.76522z" fill="#ffd836"/><path d="m43.7758 8.96586c.1277.12521.2285.2747.2965.43951.068.1648.1018.34152.0992.51956h-2.5354c-.0942-.00186-.1859-.03099-.2636-.0838-.0778-.05281-.1383-.127-.1741-.21345-.0358-.08646-.0454-.1814-.0275-.27316s.0624-.17634.1281-.24334l.513-.5086v-.72657c-.0001-.09388.0365-.18415.102-.25188.0656-.06772.1551-.10765.2497-.1114.0966.00519.189.04082.2638.10171z" fill="#ff9a15"/><path d="m40.3464 6.6263h-.7768c-.956-.00119-1.8727-.37731-2.55-1.04626l-.3811-.42141v.26157c0 .84787.3397 1.66101.9444 2.26055.6046.59953 1.4247.93635 2.2798.93635h.469z" fill="#ffd836"/><path d="m36.58 7.81787h2.125v2.10705z" fill="#ffd836"/><path d="m33.2825 15.7229c.3963.8394 1.1035 1.4951 1.9747 1.8309s1.8394.326 2.7034-.0276c.864-.3535 1.5575-1.0235 1.9363-1.8708s.4138-1.8067.0978-2.6789z" fill="#ff9a15"/><path d="m29.7065 11.3635 1.6561 1.7147c.2174.2128.3902.4662.5084.7455.1183.2794.1796.5791.1804.882h1.1871v-.8282c-.0014-.4629-.1575-.9122-.4439-1.2777s-.6869-.6265-1.1389-.7422z" fill="#ffd836"/><path d="m32.8281 14.2117-.1319.1307c-.0541.0515-.1223.086-.1961.0992s-.1499.0046-.2187-.0249c-.0689-.0295-.1274-.0785-.1683-.1408s-.0624-.1352-.0617-.2096v-3.8217l.7767.7702c.4225.4266.6592 1.0005.6592 1.5984s-.2367 1.1719-.6592 1.5985z" fill="#ffd836"/><path d="m40.5076 8.61711c.1862 0 .3371-.14963.3371-.33422 0-.18458-.1509-.33422-.3371-.33422s-.3371.14964-.3371.33422c0 .18459.1509.33422.3371.33422z" fill="#202225"/><path d="m20.7375 11.6978h-.8647v11.1164h.8647z" fill="#305dce"/><path d="m27.435 44.9601h-5.7596v12.1046h5.7596z" fill="#7196ff"/><path d="m35.9498 47.9535h-5.7596v12.1191h5.7596z" fill="#7196ff"/><path d="m.80603 40.2083h45.27067v1.4531c0 .3469-.139.6795-.3863.9248-.2474.2453-.5829.383-.9327.383h-42.63268c-.34982 0-.68531-.1377-.93267-.383-.247355-.2453-.38632-.5779-.38632-.9248z" fill="#aec7ff"/><path d="m14.6555 27.3335h-7.09324l3.10694-8.1376c.0289-.0872.0849-.1631.1599-.217.075-.0538.1652-.0828.2578-.0828s.1828.029.2578.0828c.075.0539.131.1298.1599.217z" fill="#4bb494"/><path d="m14.6555 32.9571h-7.57688c-.13852 0-.27452-.0367-.39391-.1064-.11938-.0696-.21781-.1697-.28508-.2897-.06727-.1201-.10094-.2558-.09751-.3931s.04382-.2712.117-.3878l3.97158-6.6263h1.4656l3.7811 6.3066c.0928.1601.1392.3426.134.5272-.0051.1846-.0616.3642-.1632.519-.1015.1548-.2442.2788-.4123.3583-.1682.0795-.3552.1114-.5404.0922z" fill="#4bb494"/><path d="m12.3253 35.2095h-2.46214v4.9988h2.46214z" fill="#51303f"/><path d="m15.7546 37.0986h-9.33553l3.59063-9.7651h2.169z" fill="#4bb494"/><path d="m13.1019 27.3335h-4.03024l5.05614 1.7147z" fill="#28977b"/><path d="m14.2304 32.9571h-6.24322l7.13722 2.4122z" fill="#28977b"/><path d="m12.4571 21.6953-.9526-2.4994c-.0289-.0872-.0848-.1631-.1598-.217-.075-.0538-.1653-.0828-.2579-.0828s-.1828.029-.2578.0828c-.075.0539-.1309.1298-.1598.217l-.95265 2.4994z" fill="#aec7ff"/><path d="m7.32771 30.2543h1.59744c1.04875.0041 2.05395.4163 2.79915 1.148.7423-.7255 1.7424-1.1325 2.7846-1.1335h.3224l1.0112 1.7002c.0614.1054.0939.225.0943.3467s-.0314.2415-.0922.3473c-.0607.1058-.1484.1939-.2541.2557-.1058.0618-.2261.0951-.3489.0966h-8.61735c-.09239-.0005-.18305-.025-.26289-.0711-.07985-.0461-.14608-.1122-.19208-.1916-.046-.0795-.07015-.1695-.07004-.2611.00012-.0916.02449-.1816.07069-.2609z" fill="#aec7ff"/></g></svg>