<svg width="595" height="115" viewBox="0 0 595 115" fill="none" xmlns="http://www.w3.org/2000/svg">
<path d="M174.253 21.1137L178.009 19.7513C178.089 19.6832 178.089 19.6151 178.009 19.6151L174.253 18.1846L172.575 15.0511C172.575 14.983 172.495 14.983 172.415 15.0511L170.816 18.1846H170.736L167.06 19.6151C166.98 19.6151 166.98 19.6832 167.06 19.7513L170.736 21.1137H170.816L172.415 24.2471C172.495 24.3152 172.575 24.3152 172.575 24.2471L174.253 21.1137Z" fill="#F2F3F5"/>
<path d="M378.253 14.1137L382.009 12.7513C382.089 12.6832 382.089 12.6151 382.009 12.6151L378.253 11.1846L376.575 8.05109C376.575 7.98297 376.495 7.98297 376.415 8.05109L374.816 11.1846H374.736L371.06 12.6151C370.98 12.6151 370.98 12.6832 371.06 12.7513L374.736 14.1137H374.816L376.415 17.2471C376.495 17.3152 376.575 17.3152 376.575 17.2471L378.253 14.1137Z" fill="#F2F3F5"/>
<path d="M29.7745 95.2103L33.5308 93.848C33.6108 93.7798 33.6108 93.7117 33.5308 93.7117L29.7745 92.2812L28.0961 89.1478C28.0961 89.0797 28.0162 89.0797 27.9362 89.1478L26.3378 92.2812H26.2579L22.5814 93.7117C22.5015 93.7117 22.5015 93.7798 22.5814 93.848L26.2579 95.2103H26.3378L27.9362 98.3438C28.0162 98.4119 28.0961 98.4119 28.0961 98.3438L29.7745 95.2103Z" fill="#F2F3F5"/>
<path d="M7.25301 111.114L11.0094 109.751C11.0893 109.683 11.0893 109.615 11.0094 109.615L7.25301 108.185L5.5746 105.051C5.5746 104.983 5.49467 104.983 5.41474 105.051L3.81628 108.185H3.73638L0.0599422 109.615C-0.0199807 109.615 -0.0199807 109.683 0.0599422 109.751L3.73638 111.114H3.81628L5.41474 114.247C5.49467 114.315 5.5746 114.315 5.5746 114.247L7.25301 111.114Z" fill="#F2F3F5"/>
<path d="M566.253 9.11365L570.009 7.75128C570.089 7.68316 570.089 7.61505 570.009 7.61505L566.253 6.18456L564.575 3.05109C564.575 2.98297 564.495 2.98297 564.415 3.05109L562.816 6.18456H562.736L559.06 7.61505C558.98 7.61505 558.98 7.68316 559.06 7.75128L562.736 9.11365H562.816L564.415 12.2471C564.495 12.3152 564.575 12.3152 564.575 12.2471L566.253 9.11365Z" fill="#F2F3F5"/>
<path d="M408.099 24L405 27.1225V31.5166L408.099 34.6265L411.199 31.504V27.1225L408.099 24Z" fill="#F2F3F5"/>
<path d="M591.099 9L588 12.1225V16.5166L591.099 19.6265L594.199 16.504V12.1225L591.099 9Z" fill="#F2F3F5"/>
<path d="M3.0994 22L0 25.1225V29.5166L3.0994 32.6265L6.19881 29.504V25.1225L3.0994 22Z" fill="#F2F3F5"/>
<path d="M96.253 6.11365L100.009 4.75128C100.089 4.68316 100.089 4.61505 100.009 4.61505L96.253 3.18456L94.5746 0.0510891C94.5746 -0.0170297 94.4947 -0.0170297 94.4147 0.0510891L92.8163 3.18456H92.7364L89.0599 4.61505C88.98 4.61505 88.98 4.68316 89.0599 4.75128L92.7364 6.11365H92.8163L94.4147 9.24712C94.4947 9.31524 94.5746 9.31524 94.5746 9.24712L96.253 6.11365Z" fill="#F2F3F5"/>
</svg>
