<svg width="21" height="15" viewBox="0 0 21 15" fill="none" xmlns="http://www.w3.org/2000/svg">
<path d="M21 5.625V0H0V5.625C1.05 5.625 1.90909 6.46875 1.90909 7.5C1.90909 8.53125 1.05 9.375 0 9.375V15H21V9.375C19.95 9.375 19.0909 8.53125 19.0909 7.5C19.0909 6.46875 19.95 5.625 21 5.625ZM11.4545 11.25V13.125H9.54545V11.25H7.63636V9.375H11.4545C11.7123 9.375 11.9318 9.21562 11.9318 9.01875C11.9318 8.04375 7.15909 9.01875 7.15909 5.97187C7.15909 4.75312 8.22818 3.75 9.54545 3.75V1.875H11.4545V3.75H13.3636V5.625H9.54545C9.28773 5.625 9.06818 5.78438 9.06818 5.98125C9.06818 6.95625 13.8409 5.98125 13.8409 9.02812C13.8409 10.2469 12.7718 11.25 11.4545 11.25Z" fill="#46C46D"/>
</svg>
