<svg xmlns="http://www.w3.org/2000/svg" width="244" height="82" fill="none">
  <g clip-path="url(#a)">
    <path fill="#29CC7A"
      d="M243.35 59.1a114.894 114.894 0 0 1-13.2 12.7c5.7-9.2 8.2-13.7 11.6-19.4-1.7-3.7-7.5-10-10.5-12.8-5.7 10.3-9.5 18-9.5 18s2.7-8.6 5.8-20.5a38.614 38.614 0 0 0-7.2-3.2c-2.1 10.8-6.4 34.1-6.6 41.6-2.7-12.5-2.1-26.6-1.1-43.3a34.903 34.903 0 0 0-10.7.4c-1.7 13.4-2 34.3-2 34.3l-4.9-32.1a25.994 25.994 0 0 0-12.2 12.7c3.2 6.6 10.8 21 12.9 28.2 0 0-7.6-15.9-15.1-23.9a40.797 40.797 0 0 0 5.7 29.2h43.8c1.9-1.5 13.7-10.8 13.2-21.9Z" />
    <path fill="#D18D5E" d="M81.55 35.2 56.95 69l3.4 2.5 24.3-33.9-3.1-2.4Z" />
    <path fill="#AA5F44" d="m81.55 35.2-3.7 5.1.9 5.4 5.9-8.1-3.1-2.4Z" />
    <path fill="#D18D5E"
      d="m109.65 1.1-1.4-.9a.904.904 0 0 0-1.037-.054.896.896 0 0 0-.263.254l-7.3 10 2.9 2.2 7.2-10.1a1.202 1.202 0 0 0-.1-1.4Z" />
    <path fill="#EAE0D3"
      d="m110.45 14.7-12.4-9.5a4.9 4.9 0 0 0-6.8.9l-15.7 20.5a4.7 4.7 0 0 0 .9 6.8l12.3 9.5a4.8 4.8 0 0 0 6.7-.8.1.1 0 0 1 .1-.1l2.1-2.6a1.5 1.5 0 0 1 2.1-.5h.1a6.002 6.002 0 0 0 7.2 0 6.303 6.303 0 0 0 1.5-8.7l-1.1-1.6a2.002 2.002 0 0 1 .1-2.2l3.8-5a4.699 4.699 0 0 0-.8-6.6l-.1-.1Z" />
    <path fill="#AA5F44" d="M160.25 81a20.3 20.3 0 0 1 20.3-20.3h26.2v20.2l-46.5.1Z" />
    <path fill="#EDB997" d="M206.75 60.7a20.2 20.2 0 0 1 20.4 20.2h-40.7a20.303 20.303 0 0 1 20.3-20.2Z" />
    <path fill="#D18D5E"
      d="M223.15 81h-1.8a14.501 14.501 0 0 0-24.753-10.253A14.497 14.497 0 0 0 192.35 81h-1.8a16.3 16.3 0 1 1 32.6 0Z" />
    <path fill="#D18D5E"
      d="M196.45 81a10.603 10.603 0 0 1 11.2-9.6 10.403 10.403 0 0 1 9.5 9.6h-1.8a8.508 8.508 0 0 0-2.454-6.075 8.492 8.492 0 0 0-6.046-2.525h-.1a8.5 8.5 0 0 0-8.5 8.6h-1.8Z" />
    <path fill="#D18D5E" d="M203.25 81a3.6 3.6 0 0 1 3.5-3.6 3.501 3.501 0 0 1 3.7 3.5" />
    <path fill="#ADACAC"
      d="M172.95 74.9c-1.8-5.1-5.6-7.6-10-7.6h-59.9c-4.3.1-8 2.9-9.7 7.6a4.5 4.5 0 0 0 2.8 5.8c.476.195.985.297 1.5.3h73.2c2.5 0 3.1-2.9 2.1-6.1Z" />
    <path fill="url(#b)"
      d="m104.15 74.9 58.2.6c1.8-3.3 2.9-8.4-1-12.4s-5.3-3.7-5.3-8.6c0-4.9-2.2-7.9-6.8-8.8a6.5 6.5 0 0 1-1.8 7.4 4.4 4.4 0 0 1-6.2-.3c-1.7-1.9-.9-5.5-.5-8.7.4-3.2-1.2-8.3-5.4-10 .5 1.7.7 3.8-.5 5.2-1.2 1.4-3.5 2-5.1 3.8a14.002 14.002 0 0 0-2.4 4.3 2.789 2.789 0 0 1-1.325 1.744 2.804 2.804 0 0 1-2.175.256c-1.4-.5-1.6-3.5-.4-5-1.4 0-5.8 1.3-6.4 7-.6 5.7 1 6.4-.5 8.2a2.799 2.799 0 0 1-3.9.1c-1-1.2-.5-4.6-.5-4.6-2.6.5-6.7 3.5-8.4 8.3-1.7 4.8.4 11.5.4 11.5Z" />
    <path fill="#6B2F34"
      d="M129.45 65.6a5.5 5.5 0 0 0-4.6 6.1 5.292 5.292 0 0 0 2.071 3.598 5.296 5.296 0 0 0 4.029 1.002l27.1-3.8-1.6-10.7-27 3.8Z" />
    <path fill="#D18D5E"
      d="M151.95 67.9a5.294 5.294 0 0 0 2.071 3.598 5.304 5.304 0 0 0 4.029 1.002l-1.6-10.7a5.305 5.305 0 0 0-4.42 4.004 5.305 5.305 0 0 0-.08 2.096Z" />
    <path fill="#AA5F44"
      d="M157.25 71.1a4.002 4.002 0 0 1-3.9-3.4 3.793 3.793 0 0 1 .8-2.9 3.693 3.693 0 0 1 2.5-1.5l.2 1.1a2.696 2.696 0 0 0-1.8 1.1 2.9 2.9 0 0 0-.5 2 2.8 2.8 0 0 0 3.1 2.4l.2 1.1-.6.1Z" />
    <path fill="#AA5F44"
      d="M156.05 67.3a1.196 1.196 0 0 0 .924.99c.156.035.318.039.476.01l-.3-2.3a1.301 1.301 0 0 0-1.1 1.3Z" />
    <path fill="#8F473B"
      d="M119.95 63.6a5.405 5.405 0 0 0-2.362 3.417 5.393 5.393 0 0 0 .762 4.083 5.503 5.503 0 0 0 6.8 2l23.9-13.1-5.1-9.5-24 13.1Z" />
    <path fill="#EDB997"
      d="M141.75 57.8a5.303 5.303 0 0 0 5.287 2.843A5.303 5.303 0 0 0 149.05 60l-5.1-9.5a5.398 5.398 0 0 0-2.2 7.3Z" />
    <path fill="#D18D5E"
      d="m146.45 59.2-1.1-.2a3.901 3.901 0 0 1-2.3-1.9 4.002 4.002 0 0 1 1.6-5.3l.5 1.1a2.702 2.702 0 0 0-1.1 3.6 2.902 2.902 0 0 0 3.8 1.1l.5 1a4.1 4.1 0 0 1-1.9.6Z" />
    <path fill="#D18D5E" d="M145.45 55.8a1.2 1.2 0 0 0 1.6.5l-1.1-2.1a1.2 1.2 0 0 0-.5 1.6Z" />
    <path fill="#AA5F44"
      d="M141.85 78.6a5.401 5.401 0 0 0 6.1-4.6 5.299 5.299 0 0 0-4.1-6l-32.4-6-1.9 10.7 32.3 5.9Z" />
    <path fill="#EDB997" d="M115.85 68.3a5.501 5.501 0 0 0-4.4-6.3l-1.9 10.7a5.502 5.502 0 0 0 6.3-4.4Z" />
    <path fill="#D18D5E"
      d="M110.55 71.3h-.8l.3-1.1a2.9 2.9 0 0 0 2-.5 2.902 2.902 0 0 0 1.2-1.8 2.9 2.9 0 0 0-.5-2 2.498 2.498 0 0 0-1.7-1.1l.2-1.2c1 .211 1.889.78 2.5 1.6a4.103 4.103 0 0 1-1 5.5 4.402 4.402 0 0 1-2.2.6Z" />
    <path fill="#D18D5E"
      d="M111.65 67.6a1.194 1.194 0 0 0-.204-.911 1.209 1.209 0 0 0-.796-.489l-.4 2.3a1.2 1.2 0 0 0 1.4-.9Z" />
    <path fill="#ADACAC"
      d="M166.65 77.4c-1-5.5-4.7-8.9-9.2-8.9a8.598 8.598 0 0 0-7.2 3.9.6.6 0 0 1-1 .2h-.1a9.602 9.602 0 0 0-13.6.8.9.9 0 0 1-1.1.1c0-.1-.1-.1-.1-.2a10.099 10.099 0 0 0-14-3.2 8.308 8.308 0 0 0-2.3 1.9.799.799 0 0 1-1.1.1h-.1a8.407 8.407 0 0 0-6.8-3.5c-4.5 0-8.2 3.4-9.2 8.9a2.388 2.388 0 0 0 .409 1.822 2.396 2.396 0 0 0 1.591.978h61.4a2.4 2.4 0 0 0 2.4-2.4v-.5Z" />
    <path fill="#AA5F44" d="M61.45 80.9V55.8h-22.1a25.2 25.2 0 0 0-25.2 25.3l47.3-.2Z" />
    <path fill="#EDB997" d="M36.35 81h50.5a25.3 25.3 0 1 0-50.5 0Z" />
    <path fill="#D18D5E" d="M60.35 62a20.1 20.1 0 0 1 21.4 19h-2.2a18 18 0 1 0-36 0h-2.2a20.4 20.4 0 0 1 19-19Z" />
    <path fill="#D18D5E"
      d="M61.55 70.3h-.1A10.7 10.7 0 0 0 50.95 81h-2.2a12.9 12.9 0 0 1 12.8-12.9h.3A12.9 12.9 0 0 1 74.45 81h-2.2a10.8 10.8 0 0 0-10.7-10.7Z" />
    <path fill="#D18D5E" d="M66.05 81a4.5 4.5 0 0 0-4.5-4.5h-.1a4.5 4.5 0 0 0-4.4 4.5" />
    <path fill="#EAE0D3"
      d="m97.65 39.4-12.2.9 1.7 1.3a3 3 0 0 1 1 3.1c-.8 3.3.6 5.7 3.3 6.2 2.7.5 3.8-2.1 4.4-5.2.6-3.1.9-5.2 1.8-6.3Z" />
    <path fill="#C7BEB3"
      d="M100.45 28c2.8 1 8.9 2.1 9.2 5.9a6.203 6.203 0 0 0-1.1-3.7l-1.1-1.6a2.002 2.002 0 0 1 .1-2.2l3.8-5a4.681 4.681 0 0 0 .828-1.637 4.698 4.698 0 0 0-1.628-4.963h-.1l-4.1-3.1c-2.6-2-4.9 0-3.7 2.7 1.2 2.7 1.3 6.5-2 7.6-3.3 1.1-3.5 4.9-.2 6Z" />
    <path fill="#F7F7F7"
      d="M92.15 10.5c1.8-1.4 3.8-1.7 4.5-.8.7.9-.8 1.9-2.6 3.2-1.8 1.3-3.1 2.7-3.8 1.7-.7-1 .1-2.8 1.9-4.1Z" />
    <path fill="#ADACAC"
      d="M17.55 81.1H2.15c-.8 0-3.2-1.1 0-8.3 3.2-7.2 8.1-4.1 11.4-.9 5.5.2 6 .9 6.9 2.9.9 2 1.9 3.9 1.1 5.4-.8 1.5-2.2.9-4 .9Z" />
  </g>
  <defs>
    <linearGradient id="b" x1="133.49" x2="133.49" y1="71.94" y2="10.98" gradientUnits="userSpaceOnUse">
      <stop offset=".17" stop-color="#FFC619" />
      <stop offset=".28" stop-color="#FFB819" />
      <stop offset=".56" stop-color="#FF9819" />
      <stop offset=".71" stop-color="#FF8C19" />
    </linearGradient>
    <clipPath id="a">
      <path fill="#fff" d="M.55 0h242.9v81.1H.55z" />
    </clipPath>
  </defs>
</svg>
