<svg height="57" viewBox="0 0 103 57" width="103" xmlns="http://www.w3.org/2000/svg"><g fill="#dee0fc" fill-opacity=".3" fill-rule="evenodd"><path d="m33.1806461 52.011582-8.6246294-4.2907243c-2.7260492-1.3565368-4.8576249 2.9053466-2.1180309 4.2679552 2.8750438 1.4304101 5.7495858 2.8603142 8.6246295 4.2912303 2.7260491 1.3560308 4.8576249-2.9053466 2.1180308-4.2684612"/><path d="m101.389014 40.8325248c-4.0138239-1.4455896-8.0281495-2.8916851-12.0424751-4.3377807-2.8278871-1.018541-4.9875562 3.2342347-2.1180308 4.2679552 4.0143256 1.4460955 8.0286511 2.8921911 12.042475 4.3382866 2.8278869 1.0180351 4.9880579-3.2347406 2.1180309-4.2684611"/><path d="m57.5557594 4.02236006c-4.4402394-1.96472673-9.0766299-3.32429941-13.8810783-3.99573706-2.998955-.41945878-3.9857306 4.25024583-.9586823 4.67324648 4.4061261.61577966 8.6472044 1.78763315 12.7217298 3.59095174 2.7752123 1.22751147 4.917323-3.02981809 2.1180308-4.26846116"/><path d="m85.6725431 21.1076399c-2.2605038-2.1048837-4.5215092-4.2097673-6.7825146-6.314145-2.2374271-2.0841384-5.40444 1.460769-3.1655079 3.5454134 2.2610054 2.1048837 4.5220108 4.2097673 6.7825146 6.314651 2.2379288 2.0831264 5.4049417-1.461781 3.1655079-3.5459194"/><path d="m89.8144421 52.6919756c-3.7178413-2.7398907-7.7161136-4.7471198-12.1332764-6.0621661-2.9186886-.8692765-3.8673376 3.8070059-.959184 4.6732464 3.5633285 1.0610435 6.9259908 2.7231933 9.9264509 4.934839 2.4345816 1.7942109 5.6256744-1.7329871 3.1660095-3.5459193"/><path d="m64.2246468 26.740177c-3.0300583-1.3287078-6.0601166-2.6569097-9.0901749-3.9856175-2.7777206-1.2178978-4.9208347 3.0389258-2.1175291 4.2684612 3.0300582 1.3282018 6.0601165 2.6569096 9.0896731 3.9856174 2.7782224 1.2178978 4.9213364-3.0389257 2.1180309-4.2684611"/><path d="m12.1038818 31.5143668c-3.13540802-.8707944-6.05108663-2.206586-8.81425898-3.9324894-2.58457952-1.6140814-4.69408202 2.6589336-2.11803081 4.2679552 3.10881973 1.9414516 6.45041216 3.3602241 9.97360739 4.3377807 2.9357452.8156424 3.8889093-3.859628.9586824-4.6732465"/><path d="m30.6813999 9.5263778c-3.2086511-2.30727631-6.6892049-3.90870821-10.5655725-4.68437808-2.9834034-.59756432-3.9546274 4.07315225-.9586823 4.67324648 3.0130017.6036361 5.8479121 1.7522144 8.3587469 3.557557 2.4506349 1.7613221 5.644236-1.764358 3.1655079-3.5464254"/><path d="m31.4953518 25.872975-13.3528247-3.832305c-2.9282203-.8404355-3.8793776 3.8348349-.959184 4.6732465 4.451276 1.2776037 8.9020503 2.5552073 13.3528247 3.832305 2.9282202.8404355 3.8793776-3.8348349.959184-4.6732465"/><path d="m51.6139355 41.3715976c-3.2904226-1.1764073-6.5808452-2.3523087-9.8707661-3.529222-2.8293921-1.0114573-4.9900645 3.2413184-2.1180308 4.2679552 3.2904226 1.1764073 6.5808452 2.3528147 9.8707661 3.529728 2.8293921 1.0114573 4.9900645-3.2418244 2.1180308-4.2684612"/></g></svg>