<?xml version="1.0" encoding="UTF-8" standalone="no"?>
<svg xmlns="http://www.w3.org/2000/svg" height="527.03003" width="389.39999">
  <g transform="matrix(10,0,0,-10,-3975.93,3263.27)">
    <path d="m397.875 326.045h38.376v-52.138h-38.376v52.138z" fill="#1b1615"/>
    <path d="m435.967 274.189h-37.807v51.571h37.807v-51.571zm0.566 52.138h-0.566-37.807-0.567v-0.567-51.571-0.565h0.567 37.807 0.566v0.565 51.571 0.567z" fill="#fff"/>
    <path d="m433.932 323.833h-33.722v-7.867h33.722v7.867z" fill="#fff"/>
    <path d="m400.274 314.023h33.661v-30.673h-33.661v30.673z" fill="#fff"/>
    <g fill="#fff">
      <path d="m400.3113 276.6545v4.612h6.781v-1.079h-4.057v-0.659h3.431v-1.075h-3.431v-0.723h4.215v-1.076h-6.939z"/>
      <path d="m413.0083 279.9231c-0.043 0.157-0.195 0.256-0.392 0.314-0.196 0.057-0.435 0.085-0.705 0.085-0.599 0-0.864-0.098-0.864-0.27 0-0.682 4.777-0.255 4.777-1.932 0-1.069-1.606-1.589-3.888-1.589-2.194 0-3.624 0.711-3.683 1.545h2.609c0.057-0.169 0.221-0.287 0.45-0.363 0.22-0.079 0.505-0.116 0.776-0.116 0.681 0 1.135 0.118 1.135 0.336 0 0.698-4.786 0.218-4.786 1.977 0 0.981 1.526 1.473 3.605 1.473 2.304 0 3.358-0.654 3.556-1.46h-2.59z"/>
      <path d="m419.9022 279.2679h1.073c0.844 0 1.294 0.122 1.294 0.438 0 0.326-0.459 0.481-1.096 0.481h-1.271v-0.919zm0-1.007v-1.606h-2.721v4.612h3.924c2.768 0 3.679-0.423 3.679-1.318 0-0.534-0.423-0.975-1.392-1.13 0.875-0.177 1.407-0.287 1.407-1.217 0-0.601-0.036-0.808 0.286-0.808v-0.139h-2.758c-0.067 0.103-0.137 0.396-0.137 0.807 0 0.605-0.186 0.799-1.455 0.799h-0.833z"/>
      <path d="m429.1831 280.1874v-0.772h1.135c0.541 0 0.937 0.141 0.937 0.405 0 0.359-0.538 0.367-1.111 0.367h-0.961zm0-1.607v-0.85h1.188c0.676 0 1.182 0.077 1.182 0.421 0 0.404-0.633 0.429-1.505 0.429h-0.865zm-2.721-1.926v4.612h3.971c1.874 0 3.361-0.248 3.361-1.163 0-0.475-0.556-0.819-1.087-1 0.9-0.129 1.383-0.562 1.383-1.058 0-1.027-1.419-1.391-3.578-1.391h-4.05z"/>
    </g>
    <g fill="#1b1615">
      <path d="m401.1904 317.1413v5.31h2.131v-0.816h-1.315v-1.31h1.21v-0.816h-1.21v-1.553h1.358v-0.815h-2.174z"/>
      <path d="m403.5799 322.4517h0.848l0.606-3.862h0.011l0.68 3.862h0.807l-1.033-5.31h-0.957l-0.962 5.31z"/>
      <path d="m406.8997 317.1413v5.31h2.128v-0.816h-1.312v-1.31h1.21v-0.816h-1.21v-1.553h1.356v-0.815h-2.172z"/>
      <path d="m410.401 317.1413h-0.814v5.31h1.505c0.281 0 0.504-0.116 0.668-0.352s0.247-0.582 0.247-1.037c0-0.339-0.055-0.625-0.167-0.862-0.108-0.236-0.295-0.383-0.557-0.442v-0.014c0.042-0.009 0.104-0.024 0.184-0.044 0.078-0.019 0.155-0.064 0.234-0.132 0.078-0.07 0.145-0.171 0.203-0.306 0.057-0.134 0.085-0.322 0.085-0.564 0-0.082 0.003-0.2 0.004-0.351 0.001-0.153 0.006-0.31 0.014-0.473 0.008-0.16 0.015-0.31 0.03-0.448 0.012-0.136 0.027-0.232 0.046-0.285h-0.8c-0.055 0.16-0.084 0.329-0.085 0.507 0 0.175-0.004 0.35-0.004 0.521 0 0.158 0 0.307-0.001 0.449-0.002 0.142-0.02 0.267-0.054 0.372-0.035 0.105-0.092 0.19-0.174 0.253-0.081 0.064-0.199 0.097-0.353 0.097h-0.211v-2.199zm0 3.015h0.361c0.08 0 0.145 0.024 0.201 0.075 0.054 0.048 0.097 0.109 0.129 0.187 0.034 0.076 0.059 0.16 0.07 0.253s0.018 0.181 0.018 0.264c0 0.256-0.037 0.436-0.112 0.54-0.074 0.107-0.174 0.16-0.306 0.16h-0.361v-1.479z"/>
      <path d="m413.2451 318.9787-1.023 3.473h0.891l0.584-2.244 0.622 2.244h0.832l-1.09-3.473v-1.837h-0.816v1.837z"/>
      <path d="m416.8381 317.0519c-0.333 0-0.594 0.077-0.778 0.231s-0.318 0.361-0.401 0.618c-0.08 0.258-0.13 0.551-0.145 0.879-0.015 0.329-0.022 0.668-0.022 1.016 0 0.353 0.007 0.694 0.022 1.022 0.015 0.329 0.065 0.621 0.145 0.876 0.083 0.256 0.217 0.46 0.401 0.615 0.184 0.154 0.445 0.231 0.778 0.231 0.335 0 0.595-0.077 0.779-0.231 0.183-0.155 0.316-0.359 0.4-0.615 0.084-0.255 0.132-0.547 0.145-0.876 0.015-0.328 0.022-0.669 0.022-1.022 0-0.348-0.007-0.687-0.022-1.016-0.013-0.328-0.061-0.621-0.145-0.879-0.084-0.257-0.217-0.464-0.4-0.618-0.184-0.154-0.444-0.231-0.779-0.231m0 0.795c0.117 0 0.208 0.037 0.276 0.114 0.068 0.076 0.12 0.192 0.156 0.349 0.037 0.157 0.06 0.359 0.072 0.607 0.009 0.247 0.016 0.54 0.016 0.879s-0.007 0.632-0.016 0.879c-0.012 0.248-0.035 0.45-0.072 0.607-0.036 0.157-0.088 0.273-0.156 0.35-0.068 0.076-0.159 0.113-0.276 0.113-0.114 0-0.207-0.037-0.276-0.113-0.067-0.077-0.12-0.193-0.156-0.35s-0.059-0.359-0.069-0.607c-0.012-0.247-0.017-0.54-0.017-0.879s0.005-0.632 0.017-0.879c0.01-0.248 0.033-0.45 0.069-0.607s0.089-0.273 0.156-0.349c0.069-0.077 0.162-0.114 0.276-0.114"/>
      <path d="m418.8384 317.1413v5.31h1.103l1.039-3.678h0.009v3.678h0.763v-5.31h-1.076l-1.066 3.883h-0.01v-3.883h-0.762z"/>
      <path d="m422.4387 317.1413v5.31h2.13v-0.816h-1.314v-1.31h1.21v-0.816h-1.21v-1.553h1.356v-0.815h-2.172z"/>
      <path d="m426.2646 321.6106c0.137 0.107 0.268 0.225 0.396 0.356 0.124 0.132 0.236 0.285 0.333 0.462h0.726v-5.287h-0.817v4.068c-0.098-0.117-0.2-0.223-0.308-0.318-0.109-0.096-0.218-0.188-0.33-0.274v0.993z"/>
      <path d="m429.601 322.4973c0.229 0 0.416-0.046 0.561-0.137 0.145-0.09 0.256-0.24 0.333-0.453s0.13-0.491 0.155-0.835c0.028-0.343 0.043-0.767 0.043-1.272 0-0.415-0.01-0.79-0.028-1.126-0.02-0.336-0.065-0.623-0.138-0.86-0.075-0.237-0.185-0.421-0.33-0.55-0.145-0.127-0.345-0.192-0.596-0.192-0.257 0-0.457 0.065-0.602 0.192-0.143 0.129-0.253 0.313-0.327 0.55-0.073 0.237-0.119 0.524-0.136 0.86-0.019 0.336-0.027 0.711-0.027 1.126 0 0.505 0.013 0.929 0.039 1.272 0.027 0.344 0.079 0.622 0.157 0.835s0.188 0.363 0.33 0.453c0.143 0.091 0.331 0.137 0.566 0.137m0-0.773c-0.084 0-0.146-0.026-0.191-0.075-0.043-0.051-0.074-0.146-0.095-0.285-0.023-0.139-0.037-0.334-0.039-0.588-0.005-0.252-0.005-0.583-0.005-0.992 0-0.399 0.003-0.724 0.007-0.978 0.006-0.252 0.021-0.449 0.043-0.59 0.025-0.142 0.057-0.239 0.101-0.292 0.043-0.053 0.103-0.079 0.179-0.079 0.075 0 0.136 0.026 0.177 0.079 0.044 0.053 0.076 0.15 0.099 0.292 0.024 0.141 0.039 0.338 0.043 0.59 0.007 0.254 0.01 0.579 0.01 0.978 0 0.409-0.003 0.74-0.006 0.992-0.004 0.254-0.016 0.449-0.036 0.588-0.022 0.139-0.056 0.234-0.101 0.285-0.046 0.049-0.107 0.075-0.186 0.075"/>
      <path d="m431.8538 321.4214h0.6v-1.45h0.913v-0.817h-0.913v-1.449h-0.6v1.449h-0.92v0.817h0.92v1.45z"/>
    </g>
    <path d="m410.9115 290.952c0.013 2.643 1.065 3.256 2.268 3.254 1.348-0.007 2.113-1.011 2.103-3.329-0.007-1.445-0.399-3.219-2.125-3.209-1.689 0.008-2.256 1.353-2.246 3.284m8.1864-0.4074h-1.356v-0.745h1.356v-1.313h0.769v1.313h1.362v0.745h-1.362v1.316h-0.769v-1.316zm-2.162 0.333c0 2.619-1.407 4.169-3.74 4.169-3.157 0-3.932-2.149-3.932-4.169 0-2.466 1.24-4.169 3.837-4.169 2.591 0 3.835 1.703 3.835 4.169m-13.206 16.642 19.087 5.686 1.914-6.028-9.564-2.844 0.784-2.467 8.834 2.628 1.909-6.032-8.827-2.625 0.823-2.598 9.874 2.943 1.917-6.026-19.398-5.781-7.353 23.144zm0.726-15.248c0.933 0.272 1.866 0.67 2.373 1.141v-6.307h1.792v7.908h-1.746c-0.66-0.561-1.334-0.88-2.419-1.213v-1.529z" fill="#1b1615"/>
    <path d="m431.058 286.2836c0.316 0.008 0.392 0.137 0.392 0.284 0 0.154-0.076 0.233-0.348 0.233h-0.405v-0.517h0.361zm-0.361-0.317v-0.865h-0.339v2.016h0.705c0.396 0 0.803-0.102 0.803-0.557 0-0.231-0.146-0.417-0.435-0.474v-0.006c0.293-0.054 0.331-0.183 0.365-0.4 0.03-0.187 0.053-0.399 0.128-0.579h-0.432c-0.025 0.113-0.059 0.246-0.071 0.36-0.024 0.173-0.024 0.338-0.122 0.431-0.086 0.074-0.201 0.065-0.319 0.074h-0.283zm1.908 0.117c0 0.777-0.674 1.406-1.513 1.406-0.842 0-1.525-0.629-1.525-1.406 0-0.779 0.683-1.416 1.525-1.416 0.839 0 1.513 0.637 1.513 1.416m-3.365 0c0 0.944 0.821 1.709 1.852 1.709 1.016 0 1.838-0.765 1.838-1.709 0-0.948-0.822-1.716-1.838-1.716-1.031 0-1.852 0.768-1.852 1.716" fill="#1b1615"/>
  </g>
</svg>
