<svg fill="none" height="180" viewBox="0 0 320 180" width="320" xmlns="http://www.w3.org/2000/svg" xmlns:xlink="http://www.w3.org/1999/xlink"><linearGradient id="a" gradientUnits="userSpaceOnUse" x1="160" x2="160" y1="0" y2="180"><stop offset="0" stop-color="#fff" stop-opacity=".25"/><stop offset="1" stop-color="#fff" stop-opacity=".75"/></linearGradient><clipPath id="b"><path d="m0 0h320v180h-320z"/></clipPath><clipPath id="c"><path d="m-240-400h800v800h-800z"/></clipPath><g clip-path="url(#b)"><path d="m0 0h320v180h-320z" fill="#fff"/><g clip-path="url(#c)"><path d="m321.92 133.2c-1.28.4-2.64.56-4 .56s-2.72-.24-4-.56v9.36h8v-2.4-3.2z" fill="#9099a4"/><path d="m321.92 96.96c0-3.44.88-6.64 2.4-9.44-1.92-1.12-4.08-1.76-6.4-1.76-7.04 0-12.8 5.76-12.8 12.8v6.4h18.48c-1.12-2.48-1.68-5.2-1.68-8z" fill="#9099a4"/><path d="m321.92 133.2c6-1.76 10.4-7.28 10.4-13.84v-4.88c-2.24-1.2-4.16-2.8-5.76-4.72h-23.04v9.6c0 6.56 4.4 12.08 10.4 13.84 1.28.4 2.64.56 4 .56s2.72-.24 4-.56zm-4-17.04c2.24 0 4 1.76 4 4s-1.76 4-4 4-4-1.76-4-4 1.76-4 4-4z" fill="#c7ccd1"/><path d="m326.48 109.76c-1.2-1.44-2.24-3.04-2.96-4.8h-18.48-1.6v4.8z" fill="#e3e5e8"/><path d="m308.32 142.56v6.4h19.2v-6.4h-5.6-8z" fill="#c7ccd1"/><path d="m317.92 124.16c2.209 0 4-1.791 4-4s-1.791-4-4-4-4 1.791-4 4 1.791 4 4 4z" fill="#e3e5e8"/><path d="m302.72 171.04c2.209 0 4-1.791 4-4s-1.791-4-4-4-4 1.791-4 4 1.791 4 4 4z" fill="#e3e5e8"/><path d="m287.52.319946 11.2 19.359954-11.2 19.36h16l11.2-19.36-11.2-19.359954zm21.04 19.439954c0 1.76-1.44 3.2-3.2 3.2s-3.2-1.44-3.2-3.2 1.44-3.2 3.2-3.2 3.2 1.44 3.2 3.2z" fill="#4f5660"/><path d="m298.72 19.76-11.2-19.360037h-6.4-16l-11.2 19.360037 11.2 19.36h16 6.4zm-19.2 0c0 1.76-1.44 3.2-3.2 3.2s-3.2-1.44-3.2-3.2 1.44-3.2 3.2-3.2 3.2 1.44 3.2 3.2zm-14.4-8c0-1.76003 1.44-3.20003 3.2-3.20003s3.2 1.44 3.2 3.20003c0 1.76-1.44 3.2-3.2 3.2-1.84 0-3.2-1.44-3.2-3.2zm19.2 19.2c-1.76 0-3.2-1.44-3.2-3.2s1.44-3.2 3.2-3.2 3.2 1.44 3.2 3.2-1.44 3.2-3.2 3.2z" fill="#9099a4"/><path d="m302.16 19.76c0 1.76 1.44 3.2 3.2 3.2s3.2-1.44 3.2-3.2-1.44-3.2-3.2-3.2-3.2 1.44-3.2 3.2z" fill="#9099a4"/><path d="m239.52 72.96c5.52 0 10.16 3.76 11.52 8.7999h16.24c-1.6-13.9199-13.44-24.7999-27.84-24.7999s-26.24 10.88-27.84 24.7999h16.24c1.52-5.1199 6.16-8.7999 11.68-8.7999z" fill="#c7ccd1"/><path d="m239.52 96.96c-5.52 0-10.16-3.76-11.52-8.8h-16.24c1.6 13.92 13.44 24.8 27.84 24.8s26.24-10.88 27.84-24.8h-16.24c-1.6 5.04-6.24 8.8-11.68 8.8z" fill="#4f5660"/><path d="m251.52 84.96c0 1.12-.16 2.16-.48 3.2h16.24 2.56v-6.4h-2.56-16.24c.24.96.48 2.08.48 3.2z" fill="#747f8d"/><path d="m227.92 88.16c-.32-1.04-.48-2.08-.48-3.2s.16-2.16.48-3.2h-16.24-2.56v6.4h2.56z" fill="#747f8d"/><path d="m239.52 96.96c5.52 0 10.16-3.76 11.52-8.8.32-1.04.48-2.08.48-3.2s-.16-2.16-.48-3.2c-1.44-5.04-6-8.8-11.52-8.8s-10.16 3.76-11.52 8.8c-.32 1.04-.48 2.08-.48 3.2s.16 2.16.48 3.2c1.36 5.04 6 8.8 11.52 8.8zm-6.4-12c0-3.52 2.88-6.4 6.4-6.4s6.4 2.88 6.4 6.4-2.88 6.4-6.4 6.4c-3.6 0-6.4-2.88-6.4-6.4z" fill="#9099a4"/><path d="m239.52 91.36c3.535 0 6.4-2.8654 6.4-6.4s-2.865-6.4-6.4-6.4-6.4 2.8654-6.4 6.4 2.865 6.4 6.4 6.4z" fill="#e3e5e8"/><path d="m86.8 31.76v-49.6h-52.8v65.6h36.8c8.8 0 16-7.2 16-16zm-30.4.8h-4.8v4.8h-6.4v-4.8h-4.8v-6.4h4.8v-4.8h6.4v4.8h4.8zm12.8-4c-1.76 0-3.2-1.44-3.2-3.2s1.44-3.2 3.2-3.2 3.2 1.44 3.2 3.2-1.44 3.2-3.2 3.2zm8 8c-1.76 0-3.2-1.44-3.2-3.2s1.44-3.2 3.2-3.2 3.2 1.44 3.2 3.2-1.44 3.2-3.2 3.2zm3.2-22.4h-6.4-27.2-6.4v-25.6h6.4 27.2 6.4z" fill="#9099a4"/><path d="m46.7999-11.4401h-6.4v25.6h6.4z" fill="#747f8d"/><path d="m80.4-11.4401h-6.4v25.6h6.4z" fill="#747f8d"/><path d="m51.5999 21.36h-6.4v4.8h-4.8v6.4h4.8v4.8h6.4v-4.8h4.8v-6.4h-4.8z" fill="#4f5660"/><path d="m74.0001-11.4401h-27.2001v25.6h27.2001z" fill="#c7ccd1"/><path d="m69.2 28.56c1.7673 0 3.2-1.4327 3.2-3.2s-1.4327-3.2-3.2-3.2-3.2 1.4327-3.2 3.2 1.4327 3.2 3.2 3.2z" fill="#e3e5e8"/><path d="m77.2 36.56c1.7673 0 3.2-1.4327 3.2-3.2s-1.4327-3.2-3.2-3.2-3.2 1.4327-3.2 3.2 1.4327 3.2 3.2 3.2z" fill="#e3e5e8"/><path d="m112.4 81.28h-17.6v9.9999h17.6z" fill="#e3e5e8"/><path d="m114 151.28h12v-39.2l-12-8v-6.4001h-20.8v6.4001l-12 8v39.2h12zm-9.2-39.92c1.36 0 2.4 1.04 2.4 2.4s-1.04 2.4-2.4 2.4-2.4-1.04-2.4-2.4 1.04-2.4 2.4-2.4zm-16.4 7.92h30.4v24.8h-30.4z" fill="#9099a4"/><path d="m118.8 119.28h-30.4001v24.8h30.4001zm-8 12c-2.24 0-4-1.76-4-4s1.76-4 4-4 4 1.76 4 4c0 2.16-1.76 4-4 4z" fill="#4f5660"/><path d="m118 97.6799v-6.4h-5.6-17.6001-5.5999v6.4h3.9999 20.8001z" fill="#c7ccd1"/><path d="m110.8 131.28c2.209 0 4-1.791 4-4s-1.791-4-4-4-4 1.791-4 4 1.791 4 4 4z" fill="#9099a4"/><path d="m104.8 116.16c1.325 0 2.4-1.075 2.4-2.4s-1.075-2.4-2.4-2.4c-1.326 0-2.4 1.075-2.4 2.4s1.074 2.4 2.4 2.4z" fill="#4f5660"/><path d="m273.12 19.76c0 1.76 1.44 3.2 3.2 3.2s3.2-1.44 3.2-3.2-1.44-3.2-3.2-3.2c-1.84 0-3.2 1.44-3.2 3.2z" fill="#e3e5e8"/><path d="m284.32 30.96c1.767 0 3.2-1.4327 3.2-3.2s-1.433-3.2-3.2-3.2-3.2 1.4327-3.2 3.2 1.433 3.2 3.2 3.2z" fill="#e3e5e8"/><path d="m268.32 14.96c1.767 0 3.2-1.4327 3.2-3.2 0-1.76732-1.433-3.2-3.2-3.2s-3.2 1.43268-3.2 3.2c0 1.7673 1.433 3.2 3.2 3.2z" fill="#e3e5e8"/><path d="m178 160.16h6.4v-4.8h4.8v-6.4h-4.8v-4.8h-6.4v4.8h-4.8v6.4h4.8z" fill="#9099a4"/><path d="m206.8 151.36c1.767 0 3.2-1.433 3.2-3.2s-1.433-3.2-3.2-3.2-3.2 1.433-3.2 3.2 1.433 3.2 3.2 3.2z" fill="#e3e5e8"/><path d="m214.8 159.36c1.767 0 3.2-1.433 3.2-3.2s-1.433-3.2-3.2-3.2-3.2 1.433-3.2 3.2 1.433 3.2 3.2 3.2z" fill="#e3e5e8"/><path d="m188.4 170.24c2.209 0 4-1.791 4-4s-1.791-4-4-4-4 1.791-4 4 1.791 4 4 4z" fill="#4f5660"/><path d="m202.8 170.24c2.209 0 4-1.791 4-4s-1.791-4-4-4-4 1.791-4 4 1.791 4 4 4z" fill="#4f5660"/><path d="m131.6 46.16c-3.12 0-5.6-2.48-5.6-5.6s2.48-5.6 5.6-5.6h1.76l-.4-4.8h-1.36c-5.76 0-10.4 4.64-10.4 10.4s4.64 10.4 10.4 10.4h3.04l-.4-4.8z" fill="#4f5660"/><path d="m179.6 30.16h-1.36l-.4 4.8h1.76c3.12 0 5.6 2.48 5.6 5.6s-2.48 5.6-5.6 5.6h-2.64l-.4 4.8h3.04c5.76 0 10.4-4.64 10.4-10.4s-4.64-10.4-10.4-10.4z" fill="#4f5660"/><path d="m159.6 68.56h-8v13.2h8z" fill="#4f5660"/><path d="m143.6 81.76v6.4h24v-6.4h-8-8z" fill="#9099a4"/><path d="m147.6 68.56h4 8 4v-5.6h-16z" fill="#747f8d"/><path d="m177.84 34.96.4-4.8.32-4h-45.92l.32 4 .4 4.8.88 11.2.4 4.8.16 1.6799c.48 5.84 5.36 10.3201 11.2 10.3201h1.68 16 1.68c5.84 0 10.72-4.4801 11.2-10.3201l.16-1.6799.4-4.8z" fill="#9099a4"/><path d="m183.6 26.16v-8h-56v8h5.04 45.92z" fill="#c7ccd1"/><path d="m29.68 120.16v13.6c0 1.76-1.44 3.2-3.2 3.2h-15.2v3.2h15.2c3.52 0 6.4-2.88 6.4-6.4v-13.6c-1.04 0-2.16 0-3.2 0z" fill="#4f5660"/><path d="m31.28 116.96c-1.68 0-3.28-.24-4.8-.56v3.76h3.2 3.2 3.2v-3.76c-1.6.32-3.2.56-4.8.56z" fill="#9099a4"/><path d="m11.28 133.2c-1.28.4-2.63997.56-3.99997.56s-2.72-.24-4-.56v9.36h7.99997v-2.4-3.2z" fill="#9099a4"/><path d="m11.28 96.96c0-3.44.88-6.64 2.4-9.44-1.92-1.12-4.08001-1.76-6.40001-1.76-7.040006 0-12.80001 5.76-12.80001 12.8v6.4h18.48002c-1.12-2.48-1.68-5.2-1.68-8z" fill="#9099a4"/><path d="m7.27989 133.76c1.36 0 2.72-.24 4.00001-.56 6-1.76 10.4-7.28 10.4-13.84v-4.88c-2.24-1.2-4.16-2.8-5.76-4.72h-23.04002v9.6c0 6.56 4.40001 12.08 10.40001 13.84 1.28.32 2.56.56 4 .56zm0-17.6c2.24 0 4.00001 1.76 4.00001 4s-1.76001 4-4.00001 4-4-1.76-4-4 1.76-4 4-4z" fill="#c7ccd1"/><path d="m15.9199 109.76c-1.2-1.44-2.24-3.04-2.96-4.8h-18.48002-1.6v4.8z" fill="#e3e5e8"/><path d="m-2.32007 142.56v6.4h19.19997v-6.4h-5.6-7.99997z" fill="#c7ccd1"/><path d="m7.28003 124.16c2.20914 0 3.99997-1.791 3.99997-4s-1.79083-4-3.99997-4-4 1.791-4 4 1.79086 4 4 4z" fill="#e3e5e8"/><g fill="#4f5660"><path d="m22.189 93.5153-1.1314 1.1314 1.1314 1.1313 1.1313-1.1313z"/><path d="m24.4658 91.2385-1.1313 1.1314 1.1313 1.1313 1.1314-1.1313z"/><path d="m24.4761 95.8347-1.1314 1.1314 1.1314 1.1313 1.1314-1.1313z"/><path d="m26.7285 89.0081-1.1313 1.1313 1.1313 1.1313 1.1314-1.1313z"/><path d="m35.749 107.125-1.1313 1.132 1.1313 1.131 1.1314-1.131z"/><path d="m38.0684 104.838-1.1314 1.131 1.1314 1.132 1.1313-1.132z"/><path d="m31.265 107.063-1.1312 1.131 1.1315 1.131 1.1312-1.131z"/><path d="m26.7061 107.117-1.1314 1.132 1.1314 1.131 1.1314-1.131z"/><path d="m40.3313 102.608-1.1313 1.131 1.1313 1.131 1.1313-1.131z"/><path d="m28.9844 86.8006-1.1314 1.1313 1.1314 1.1313 1.1313-1.1313z"/><path d="m31.2715 89.0068-1.1314 1.1313 1.1314 1.1314 1.1314-1.1314z"/><path d="m42.5374 100.32-1.1314 1.132 1.1314 1.131 1.1314-1.131z"/><path d="m28.9688 104.887-1.1314 1.131 1.1314 1.132 1.1313-1.132z"/><path d="m22.2278 98.0188-1.1314 1.1313 1.1314 1.1309 1.1314-1.1309z"/><path d="m40.3069 98.0577-1.1314 1.1314 1.1314 1.1309 1.1313-1.1309z"/><path d="m42.5452 91.2773-1.1314 1.1313 1.1314 1.1314 1.1313-1.1314z"/><path d="m40.3147 89.0146-1.1314 1.1313 1.1314 1.1314 1.1314-1.1314z"/><path d="m31.2405 84.48-1.1314 1.1313 1.1314 1.1314 1.1313-1.1314z"/><path d="m26.7057 84.4518-1.1312 1.1316 1.1315 1.1312 1.1312-1.1315z"/><path d="m35.7484 84.4593-1.1312 1.1316 1.1315 1.1312 1.1312-1.1315z"/><path d="m24.4753 104.855-1.1313 1.131 1.1313 1.131 1.1314-1.131z"/><path d="m31.2952 102.576-1.1314 1.131 1.1314 1.132 1.1313-1.132z"/><path d="m26.731 102.648-1.1314 1.131 1.1314 1.131 1.1313-1.131z"/><path d="m35.7744 102.656-1.1313 1.131 1.1313 1.131 1.1314-1.131z"/><path d="m33.5115 104.886-1.1314 1.132 1.1314 1.131 1.1313-1.131z"/><path d="m38.044 100.288-1.1314 1.132 1.1314 1.131 1.1313-1.131z"/><path d="m38.084 86.7518-1.1314 1.1313 1.1314 1.1314 1.1313-1.1314z"/><path d="m33.5088 91.2461-1.1314 1.1313 1.1314 1.1314 1.1313-1.1314z"/><path d="m28.959 91.2706-1.1314 1.1314 1.1314 1.1314 1.1314-1.1314z"/><path d="m31.2637 98.0498-1.1314 1.1314 1.1314 1.1318 1.1313-1.1318z"/><path d="m26.6824 93.5477-1.1314 1.1314 1.1314 1.1313 1.1314-1.1313z"/><path d="m28.9834 95.8204-1.1313 1.1314 1.1313 1.1313 1.1314-1.1313z"/><path d="m28.9514 100.313-1.1313 1.132 1.1313 1.131 1.1314-1.131z"/><path d="m26.721 98.0509-1.1314 1.1314 1.1314 1.1317 1.1313-1.1317z"/><path d="m31.2324 93.5234-1.1313 1.1313 1.1313 1.1314 1.1314-1.1314z"/><path d="m22.2354 88.976-1.1314 1.1314 1.1314 1.1313 1.1313-1.1313z"/><path d="m33.5264 95.8193-1.1314 1.1314 1.1314 1.1313 1.1313-1.1313z"/><path d="m42.5696 95.8271-1.1314 1.1314 1.1314 1.1313 1.1313-1.1313z"/><path d="m22.2522 102.569-1.1314 1.131 1.1314 1.131 1.1314-1.131z"/><path d="m35.7324 93.5322-1.1313 1.1314 1.1313 1.1313 1.1314-1.1313z"/><path d="m24.4439 100.328-1.1314 1.131 1.1314 1.132 1.1313-1.132z"/><path d="m19.9407 95.8128-1.1314 1.1314 1.1314 1.1313 1.1313-1.1313z"/><path d="m33.5342 86.7762-1.1314 1.1314 1.1314 1.1313 1.1314-1.1313z"/><path d="m35.7712 89.0155-1.1313 1.1314 1.1313 1.1313 1.1314-1.1313z"/><path d="m38.0518 91.2451-1.1314 1.1314 1.1314 1.1313 1.1313-1.1313z"/><path d="m24.4844 86.7913-1.1314 1.1313 1.1314 1.1314 1.1314-1.1314z"/><path d="m19.892 100.359-1.1315 1.131 1.1312 1.132 1.1315-1.132z"/><path d="m19.9019 91.309-1.1314 1.1313 1.1314 1.1314 1.1313-1.1314z"/><path d="m33.4941 100.313-1.1313 1.131 1.1313 1.131 1.1314-1.131z"/><path d="m51.28 96.96c0-11.04-8.96-20-20-20-7.6 0-14.24 4.24-17.6 10.56-1.52 2.8-2.4 6.08-2.4 9.44 0 2.88.56 5.52 1.68 8 .8 1.76 1.76 3.36 2.96 4.8 1.6 1.92 3.52 3.52 5.76 4.72 1.52.8 3.12 1.44 4.8 1.84 1.52.4 3.12.56 4.8.56s3.28-.24 4.8-.56c8.72-2.08 15.2-10 15.2-19.36zm-7.12 6.32-.48.48.16.16c-.24.48-.56.96-.88 1.36l-.4-.4-1.12 1.12.56.56c-.32.4-.72.8-1.12 1.12l-.56-.56-1.12 1.12.4.4c-.48.32-.88.64-1.36.88l-.16-.16-.48.48c-1.12.56-2.24.96-3.44 1.2l.56-.56-1.12-1.12-1.12 1.12.72.72c-.56.08-1.2.16-1.84.16s-1.2-.08-1.84-.16l.72-.72-1.12-1.12-1.12 1.12.56.56c-1.2-.24-2.4-.64-3.44-1.2l-.48-.48-.16.16c-.48-.24-.96-.56-1.36-.88l.4-.4-1.12-1.12-.56.56c-.4-.32-.8-.72-1.12-1.12l.56-.56-1.12-1.12-.4.4c-.32-.48-.64-.88-.88-1.36l.16-.16-.48-.48c-.56-1.12-.96-2.24-1.2-3.44l.56.56 1.12-1.12-1.12-1.12-.72.72c-.08-.56-.16-1.2-.16-1.84s.08-1.2.16-1.84l.72.72 1.12-1.12-1.12-1.1201-.56.5601c.24-1.2.64-2.4 1.2-3.44l.48-.48-.16-.16c.24-.48.56-.96.88-1.36l.4.4 1.12-1.1201-.56-.5599c.32-.4.72-.8 1.12-1.12l.56.56 1.12-1.12-.4-.4001c.48-.3199.88-.6399 1.36-.8799l.16.16.48-.4801c1.12-.56 2.24-.96 3.44-1.2l-.56.5601 1.12 1.12 1.12-1.12-.72-.7201c.56-.08 1.2-.1599 1.84-.1599s1.2.0799 1.84.1599l-.72.7201 1.12 1.12 1.12-1.12-.56-.5601c1.2.24 2.4.64 3.44 1.2l.48.4801.16-.16c.48.24.96.56 1.36.8799l-.4.1601 1.12 1.12.56-.56c.4.32.8.7199 1.12 1.1199l-.56.5601 1.12 1.12.4-.4c.32.48.64.88.88 1.36l-.16.1599.48.4801c.56 1.12.96 2.24 1.2 3.44l-.56-.56-1.12 1.12 1.12 1.12.72-.72c.08.56.16 1.2.16 1.84s-.08 1.2-.16 1.84l-.72-.72-1.12 1.12 1.12 1.12.56-.56c-.24 1.44-.64 2.56-1.2 3.68z"/><path d="m38.0762 95.7949-1.1314 1.1314 1.1314 1.1313 1.1313-1.1313z"/><path d="m40.2741 93.538-1.1315 1.1312 1.1312 1.1315 1.1315-1.1312z"/><path d="m35.7655 98.0518-1.1312 1.1315 1.1315 1.1317 1.1312-1.132z"/></g><path d="m45.3601 99.76-.5601.56-1.1199-1.12 1.1199-1.12.72.72c.08-.56.1601-1.2.1601-1.84s-.0801-1.2-.1601-1.84l-.72.72-1.1199-1.12 1.1199-1.12.5601.56c-.24-1.2-.64-2.4-1.2-3.44l-.48-.48.1599-.16c-.24-.48-.5599-.96-.8799-1.36l-.4.4-1.1201-1.12.56-.56c-.32-.4-.7199-.8-1.1199-1.12l-.5601.56-1.12-1.28.4-.4c-.48-.32-.88-.64-1.36-.88l-.1599.16-.4801-.48c-1.12-.56-2.2399-.96-3.4399-1.2l.5599.56-1.12 1.12-1.1199-1.12.7199-.72c-.56-.08-1.1999-.16-1.8399-.16s-1.2001.08-1.8401.16l.72.72-1.12 1.12-1.12-1.12.5601-.56c-1.2.24-2.4001.64-3.4401 1.2l-.48.48-.1599-.16c-.48.24-.9601.56-1.3601.88l.4.4-1.12 1.12-.56-.56c-.4.32-.8.72-1.12 1.12l.5601.56-1.12 1.12-.4-.4c-.32.48-.64.88-.88 1.36l.1599.16-.4799.48c-.56 1.12-.96 2.24-1.2 3.44l.5599-.56 1.12 1.12-1.12 1.12-.72-.72c-.08.56-.16 1.2-.16 1.84s.08 1.2.16 1.84l.72-.72 1.12 1.12-1.12 1.12-.5599-.56c.24 1.2.64 2.4 1.2 3.44l.4799.48-.1599.16c.24.48.56.96.88 1.36l.4-.4 1.12 1.12-.5601.56c.32.4.72.8 1.12 1.12l.56-.56 1.12 1.12-.4.4c.48.32.8801.64 1.3601.88l.1599-.16.48.48c1.12.56 2.2401.96 3.4401 1.2l-.5601-.56 1.12-1.12 1.12 1.12-.72.72c.56.08 1.2001.16 1.8401.16s1.1999-.08 1.8399-.16l-.7199-.72 1.1199-1.12 1.12 1.12-.5599.56c1.2-.24 2.3999-.64 3.4399-1.2l.4801-.48.1599.16c.48-.24.96-.56 1.36-.88l-.4-.4 1.12-1.12.5601.56c.4-.32.7999-.72 1.1199-1.12l-.56-.56 1.1201-1.12.4.4c.32-.48.6399-.88.8799-1.36l-.1599-.16.48-.48c.56-.88.96-2 1.2-3.28zm-1.68-2.8-1.12 1.12-1.1201-1.12 1.1201-1.12zm-22.6401 6.8 1.1201-1.12 1.12 1.12-1.12 1.12zm2.3201-2.32 1.12-1.12 1.1199 1.12-1.1199 1.12zm11.2799-6.8 1.1201-1.12 1.12 1.12-1.12 1.12zm0 2.32-1.12 1.12-1.12-1.12 1.12-1.12zm-1.12-3.44-1.12-1.12 1.12-1.12 1.12 1.12zm-1.12 1.12-1.1199 1.12-1.12-1.12 1.12-1.12zm-3.4399-1.12-1.1201-1.12 1.1201-1.12 1.12 1.12zm-1.1201 1.12-1.12 1.12-1.12-1.12 1.12-1.12zm1.1201 1.2 1.12 1.12-1.12 1.12-1.1201-1.12zm-1.1201 3.36-1.12 1.12-1.12-1.12 1.12-1.12zm1.1201 1.12 1.12 1.12-1.12 1.12-1.1201-1.12zm1.2-1.12 1.12-1.12 1.1199 1.12-1.1199 1.12zm3.3599 1.12 1.12 1.12-1.12 1.12-1.12-1.12zm1.12-1.12 1.1201-1.12 1.12 1.12-1.12 1.12zm2.2401-2.24 1.1199-1.12 1.12 1.12-1.12 1.12zm2.3199-2.32 1.12-1.12 1.12 1.12-1.12 1.12zm-1.1199-1.12-1.12-1.12 1.12-1.12 1.1199 1.12zm-2.32-2.24-1.1201-1.12 1.1201-1.12 1.12 1.12zm-2.2401-2.24-1.12-1.12 1.12-1.12 1.12 1.12zm-1.12 1.12-1.1199 1.12-1.12-1.12 1.12-1.12zm-3.4399-1.12-1.1201-1.12 1.1201-1.12 1.12 1.12zm-1.1201 1.12-1.12 1.12-1.12-1.12 1.12-1.12zm-2.24 2.24-1.1199 1.12-1.12-1.12 1.12-1.12zm-2.2399 2.24-1.1201 1.12-1.12-1.12 1.12-1.12zm1.12 1.2 1.1199 1.12-1.1199 1.12-1.12-1.12zm-1.12 3.36-1.1201 1.12-1.12-1.12 1.12-1.12zm3.3599 3.36 1.12 1.12-1.12 1.12-1.12-1.12zm2.2401 2.32 1.12 1.12-1.12 1.12-1.1201-1.12zm1.2-1.12 1.12-1.12 1.1199 1.12-1.1199 1.12zm3.3599 1.12 1.12 1.12-1.12 1.12-1.12-1.12zm1.12-1.12 1.1201-1.12 1.12 1.12-1.12 1.12zm2.2401-2.32 1.1199-1.12 1.12 1.12-1.12 1.12zm2.3199-2.24 1.12-1.12 1.12 1.12-1.12 1.12zm4.4801-6.8-1.12 1.12-1.1201-1.12 1.1201-1.12zm-2.2401-2.24-1.12 1.12-1.12-1.12 1.12-1.12zm-2.24-2.24-1.1199 1.12-1.12-1.12 1.12-1.12zm-3.4399-3.44 1.12 1.12-1.12 1.12-1.1201-1.12zm-4.48 0 1.1199 1.12-1.1199 1.12-1.12-1.12zm-4.5601 0 1.12 1.12-1.12 1.12-1.12-1.12zm-2.2399 2.24 1.1199 1.12-1.1199 1.12-1.12-1.12zm-2.2401 2.32 1.1201 1.12-1.1201 1.12-1.12-1.12zm-1.2 3.36-1.12 1.12-1.12-1.12 1.12-1.12zm-2.24 4.56 1.12-1.12 1.12 1.12-1.12 1.12zm0 4.48 1.12-1.12 1.12 1.12-1.12 1.12zm4.5601 4.56 1.12-1.12 1.1199 1.12-1.1199 1.12zm3.3599 3.36-1.12-1.12 1.12-1.12 1.12 1.12zm4.5601 0-1.12-1.12 1.12-1.12 1.1199 1.12zm4.48 0-1.1201-1.12 1.1201-1.12 1.12 1.12zm2.32-2.24-1.12-1.12 1.12-1.12 1.1199 1.12zm2.2399-2.24-1.12-1.12 1.12-1.12 1.12 1.12zm2.2401-2.32-1.1201-1.12 1.1201-1.12 1.12 1.12z" fill="#9099a4"/><path d="m265.12 134.56-2.4 5.6-5.6 2.4 5.6 2.32 2.4 5.68 2.32-5.68 5.68-2.32-5.68-2.4z" fill="#747f8d"/><path d="m180.4 100.96-2.4 5.6-5.6 2.4 5.6 2.32 2.4 5.68 2.32-5.68 5.68-2.32-5.68-2.4z" fill="#e3e5e8"/><path d="m123.52-3.68008 5.68-2.4-5.68-2.31999-2.32-5.68003-2.4 5.68003-5.6 2.31999 5.6 2.4 2.4 5.6z" fill="#9099a4"/><path d="m72.3999 73.76c2.2091 0 4-1.7909 4-4 0-2.2092-1.7909-4.0001-4-4.0001s-4 1.7909-4 4.0001c0 2.2091 1.7909 4 4 4z" fill="#c7ccd1"/><path d="m230.72 33.36c2.209 0 4-1.7909 4-4 0-2.2092-1.791-4-4-4s-4 1.7908-4 4c0 2.2091 1.791 4 4 4z" fill="#747f8d"/><path d="m211.6 18.9599c2.209 0 4-1.7908 4-4 0-2.2091-1.791-3.9999-4-3.9999s-4 1.7908-4 3.9999c0 2.2092 1.791 4 4 4z" fill="#9099a4"/><path d="m86.8 226.56v-49.6h-52.8v65.6h36.8c8.8 0 16-7.2 16-16zm-30.4.8h-4.8v4.8h-6.4v-4.8h-4.8v-6.4h4.8v-4.8h6.4v4.8h4.8zm12.8-4c-1.76 0-3.2-1.44-3.2-3.2s1.44-3.2 3.2-3.2 3.2 1.44 3.2 3.2-1.44 3.2-3.2 3.2zm8 8c-1.76 0-3.2-1.44-3.2-3.2s1.44-3.2 3.2-3.2 3.2 1.44 3.2 3.2-1.44 3.2-3.2 3.2zm3.2-22.4h-6.4-27.2-6.4v-25.6h6.4 27.2 6.4z" fill="#9099a4"/><path d="m213.2 179.36h19.2l-12-40h-49.6l-12 40h19.2l4.88-9.84c1.12 1.84 3.12 3.12 5.52 3.12 2.88 0 5.36-1.92 6.16-4.56h2.16c.8 2.64 3.2 4.56 6.16 4.56 2.32 0 4.4-1.28 5.52-3.12zm1.6-26.4c1.76 0 3.2 1.44 3.2 3.2s-1.44 3.2-3.2 3.2-3.2-1.44-3.2-3.2 1.44-3.2 3.2-3.2zm-41.6-4h4.8v-4.8h6.4v4.8h4.8v6.4h-4.8v4.8h-6.4v-4.8h-4.8zm15.2 21.28c-2.24 0-4-1.76-4-4s1.76-4 4-4 4 1.76 4 4-1.76 4-4 4zm14.4 0c-2.24 0-4-1.76-4-4s1.76-4 4-4 4 1.76 4 4-1.76 4-4 4zm4-18.88c-1.76 0-3.2-1.44-3.2-3.2s1.44-3.2 3.2-3.2 3.2 1.44 3.2 3.2-1.44 3.2-3.2 3.2z" fill="#c7ccd1"/><path d="m-23.1201.319946 11.2 19.359954-11.2 19.36h15.99997l11.19999-19.36-11.19999-19.359954zm17.83996 16.239954c1.76 0 3.2 1.44 3.2 3.2s-1.44 3.2-3.2 3.2-3.2-1.44-3.2-3.2 1.44-3.2 3.2-3.2z" fill="#4f5660"/><path d="m-240-400.4v800.8h800.8v-800.8zm800 69.52v19.44 13.6 19.44 142.4 19.44 13.6 19.44 142.4 19.44 13.6 19.44 142.4 19.44 13.6 19.44 93.68h-162.56-6.4-6.4-27.2-6.4-6.4-35.52-16-22.08-5.44-6.08-172.72-6.4-6.4-27.2-6.4-6.4-35.59999-16.00001-22.08-5.36-6.08-172.72-6.4-6.4-2.56v-21.44-6.4-103.68-7.76-18.16-20.08-4.56-8.88-25.6-6.4-103.36-7.76-18.16-20.08-4.56-8.88-25.6-6.4-103.36-7.76-18.16-20.08-4.56-8.88-25.6-6.4-103.36-7.76-18.16-20.08-4.56-8.88-24.16h2.56 6.4 6.4 32.72 3.44 221.76 6.4 6.4 27.2 6.4 6.4 32.72 3.44 221.76 6.4 6.4 27.2 6.4 6.4 32.72 3.44 126.24z" fill="#37393e"/><path d="m0 0h320v180h-320z" fill="url(#a)"/></g></g></svg>