<svg width="193" height="121" viewBox="0 0 193 121" fill="none" xmlns="http://www.w3.org/2000/svg">
<path d="M121.034 28.0015L117.202 29.4485L120.135 41.1026L124.906 39.6165L121.034 28.0015Z" fill="#E0E8FF"/>
<path d="M118.414 87.6405C121.582 71.4498 132.845 57.9967 143.561 57.9576C154.276 57.9185 159.986 71.3325 156.349 87.5623C152.712 103.792 141.684 115.955 131.437 115.955C121.191 115.955 115.364 103.44 118.414 87.6405Z" fill="#8A91FF"/>
<path d="M108.599 87.758C112.314 68.7516 125.532 52.9911 138.086 52.9129C150.64 52.8347 157.405 68.6342 153.143 87.6798C148.88 106.725 135.935 121 123.89 121C111.845 121 105.001 106.295 108.599 87.758Z" fill="#424D80"/>
<path d="M139.533 76.9254L139.376 75.9868C144.812 73.2492 150.014 72.0369 154.198 72.4671L154.316 73.6794C150.248 73.0537 145.008 74.1487 139.533 76.9254Z" fill="#232145"/>
<path d="M122.991 114.547C125.533 117.636 129.913 118.575 134.801 117.284C133.95 117.863 133.062 118.386 132.142 118.849C131.48 118.938 130.815 118.99 130.147 119.005C126.706 119.005 123.773 117.793 121.856 115.446L122.991 114.547Z" fill="#232145"/>
<path d="M137.773 65.3885L137.304 64.6063C142.818 60.7738 147.472 60.1872 150.757 60.7738C151.031 61.2431 151.305 61.7515 151.539 62.2599C148.567 61.2431 143.679 61.204 137.773 65.3885Z" fill="#232145"/>
<path d="M130.343 60.6173L129.561 60.1089C133.119 56.5892 136.991 54.3209 140.745 53.5387L141.684 53.3823C142.65 53.6176 143.583 53.9723 144.461 54.4382C143.116 54.2899 141.756 54.3559 140.433 54.6338C136.991 55.3377 133.589 57.3713 130.343 60.6173Z" fill="#232145"/>
<path d="M139.807 106.647C137.022 106.648 134.266 106.076 131.712 104.966L132.611 103.91C136.974 105.756 141.849 106.005 146.377 104.614L145.595 105.865C143.707 106.371 141.762 106.634 139.807 106.647Z" fill="#232145"/>
<path d="M152.478 90.3003C151.07 90.3785 149.545 90.4567 148.059 90.4567C145.083 90.4744 142.112 90.2257 139.181 89.7137L139.924 88.6187C143.366 89.2835 148.411 89.4399 152.791 89.1662C152.673 89.5181 152.595 89.9092 152.478 90.3003Z" fill="#232145"/>
<path d="M105.313 87.6798C108.794 70.4723 120.644 56.1588 131.672 56.1197C142.7 56.0806 148.332 70.355 144.304 87.6016C140.276 104.848 128.739 117.832 118.18 117.832C107.621 117.832 101.872 104.496 105.313 87.6798Z" fill="#67729E"/>
<path d="M111.688 87.6018C113.135 80.2495 118.61 73.9922 123.812 73.7967C129.013 73.6011 131.868 79.5456 130.186 86.9369C128.505 94.3283 123.147 99.999 118.141 100.155C113.135 100.312 110.241 94.7585 111.688 87.6018Z" fill="#424D80"/>
<path d="M113.056 87.719C114.034 82.0874 118.023 77.4336 121.895 77.4336C125.767 77.4336 127.957 82.0483 126.783 87.6798C125.61 93.3114 121.699 97.4959 117.984 97.4959C114.269 97.4959 112.079 93.1941 113.056 87.719Z" fill="black"/>
<path d="M113.839 88.2273C114.504 84.4338 117.202 81.2661 119.862 81.2661C122.521 81.2661 123.968 84.3947 123.147 88.2273C122.326 92.0599 119.705 94.9148 117.202 94.9148C114.699 94.9148 113.135 91.9817 113.839 88.2273Z" fill="#FDE55C"/>
<path d="M123.889 31.2863C133.314 37.7391 130.459 43.2924 122.09 54.2426L114.19 48.572C113.33 33.5546 114.464 24.8335 123.889 31.2863Z" fill="#E0E8FF"/>
<path d="M127.331 29.9958C136.756 36.4877 133.901 42.002 125.532 52.9522L117.632 47.3206C116.733 32.2641 117.867 23.543 127.331 29.9958Z" fill="white"/>
<path d="M61.9421 104.692C51.2657 104.692 40.7848 96.1276 38.9858 85.6467C35.1924 63.5508 51.8523 43.5666 86.9712 42.3152C103.318 41.7285 125.884 45.2091 153.807 69.2996C161.902 76.2608 164.092 81.9706 160.494 91.2782C156.896 100.586 154.471 104.692 145.672 104.692H61.9421Z" fill="#E0E8FF"/>
<path d="M59.2438 48.6113C61.5134 48.1008 63.8442 47.9165 66.1659 48.0638C75.2389 48.7677 80.9486 55.6116 86.7366 65.7014C94.7537 79.7412 101.598 82.2441 116.928 82.2441H155.801C156.583 82.2441 157.991 82.1659 158.382 81.4228C158.773 80.6797 158.578 79.2719 157.092 76.8472C156.907 76.5409 156.846 76.176 156.921 75.8264C156.996 75.4768 157.201 75.1687 157.494 74.9647C157.788 74.7606 158.148 74.676 158.502 74.7278C158.856 74.7796 159.176 74.9641 159.399 75.2438L159.595 75.4784C161.394 78.4897 161.863 81.0317 160.846 82.7916C160.259 83.8475 158.93 85.0989 155.801 85.0989H116.928C101.441 85.0989 93.033 82.4787 84.2728 67.1093C78.7977 57.567 73.831 51.5053 65.9312 50.8795C58.9309 50.332 50.64 54.2428 47.355 57.215C50.7785 53.6673 54.8037 50.7544 59.2438 48.6113Z" fill="black"/>
<path d="M86.9708 42.3152C103.318 41.7285 125.883 45.2091 153.806 69.2996C156.544 71.6461 158.616 73.8752 159.985 76.1435C162.566 80.2889 160.728 83.6913 155.801 83.6913H116.927C101.363 83.6913 93.8538 81.032 85.4847 66.4056C79.9705 56.7851 74.6518 50.1367 66.0481 49.4719C58.3047 48.8853 51.5 53.1872 48.1758 56.3549C56.2711 48.3378 69.2549 42.9409 86.9708 42.3152Z" fill="#232145"/>
<path d="M148.175 93.2726C148.749 93.2677 149.316 93.4052 149.825 93.6728C150.333 93.9404 150.768 94.3298 151.089 94.8062C151.411 95.2825 151.609 95.8311 151.667 96.4028C151.725 96.9746 151.64 97.5518 151.421 98.0829C149.895 101.994 148.488 103.91 145.672 104.692H137.733C141.174 103.753 142.621 101.211 144.929 95.4626C145.201 94.8231 145.652 94.276 146.228 93.8873C146.804 93.4987 147.48 93.2852 148.175 93.2726Z" fill="#7B88BD"/>
<path d="M113.173 93.2725C113.745 93.2771 114.306 93.4207 114.809 93.6909C115.313 93.9611 115.743 94.3497 116.062 94.8233C116.382 95.2968 116.581 95.841 116.644 96.4089C116.706 96.9768 116.629 97.5513 116.419 98.0827C114.855 101.994 113.486 103.91 110.67 104.692H102.692C106.173 103.753 107.581 101.211 109.927 95.4625C110.191 94.817 110.64 94.2643 111.218 93.8744C111.796 93.4845 112.476 93.275 113.173 93.2725Z" fill="#7B88BD"/>
<path d="M42.8965 63.1594L43.6004 62.0252C45.769 61.9433 47.9362 62.2208 50.0141 62.8465C56.5451 64.8801 61.7465 70.3161 65.4617 79.0372C71.9536 94.2892 77.1941 100.625 84.8201 104.692H82.5128C75.5907 100.507 70.5067 93.8591 64.4058 79.4674C58.305 65.0756 49.8577 62.6901 42.8965 63.1594Z" fill="#A4B4EB"/>
<path d="M105.821 102.932C107.346 101.446 108.442 99.0996 109.928 95.4626C110.07 95.1076 110.268 94.7775 110.514 94.4849C112.313 94.8759 113.252 96.714 112.704 98.9823C112.157 101.251 109.81 103.48 107.62 103.48C106.978 103.491 106.348 103.3 105.821 102.932Z" fill="black"/>
<path d="M117.632 109.815C116.912 109.817 116.203 109.635 115.574 109.286C114.944 108.937 114.414 108.432 114.034 107.821C111.414 103.519 110.045 103.05 105.821 103.05C104.711 103.05 103.647 102.609 102.862 101.824C102.078 101.039 101.637 99.975 101.637 98.8652C101.637 97.7554 102.078 96.691 102.862 95.9063C103.647 95.1215 104.711 94.6807 105.821 94.6807C112.313 94.6807 116.693 96.0886 121.191 103.441C121.476 103.911 121.666 104.432 121.749 104.975C121.833 105.519 121.808 106.073 121.678 106.607C121.547 107.141 121.312 107.644 120.987 108.087C120.662 108.53 120.253 108.905 119.783 109.19C119.142 109.604 118.394 109.821 117.632 109.815Z" fill="#A7B8F0"/>
<path d="M114.034 107.821C113.721 107.273 113.369 106.765 113.095 106.335L119.861 101.485C120.291 102.072 120.721 102.737 121.191 103.441L114.034 107.821ZM107.933 103.128C107.231 103.058 106.526 103.032 105.821 103.05V94.6807C106.916 94.6807 107.855 94.7198 108.715 94.798L107.933 103.128Z" fill="#94A5E3"/>
<path d="M140.823 102.932C142.348 101.446 143.443 99.0996 144.929 95.4625C145.078 95.1227 145.275 94.8064 145.516 94.5239C147.276 94.8759 148.253 96.7531 147.706 98.9822C147.158 101.211 144.812 103.48 142.622 103.48C141.979 103.491 141.35 103.3 140.823 102.932Z" fill="black"/>
<path d="M82.9043 42.5497C93.659 41.6111 102.576 44.9353 111.727 53.8127C113.369 55.4162 115.207 57.2151 119.314 56.8632C121.699 56.6285 120.995 55.1033 119.47 53.8518C105.391 42.3541 94.9495 41.3373 82.9043 42.5497Z" fill="#5765F0"/>
<path d="M151.108 79.1935C150.897 79.1938 150.694 79.1126 150.541 78.967C150.388 78.8213 150.297 78.6223 150.287 78.4114C150.276 78.3034 150.287 78.1944 150.318 78.0906C150.35 77.9869 150.402 77.8904 150.471 77.8067C150.54 77.7231 150.625 77.654 150.721 77.6034C150.817 77.5528 150.922 77.5217 151.03 77.5119L164.405 76.5342C164.603 76.5541 164.789 76.6425 164.929 76.7841C165.07 76.9257 165.157 77.1119 165.176 77.3106C165.194 77.5093 165.143 77.7083 165.031 77.8734C164.919 78.0386 164.753 78.1596 164.561 78.2158L151.147 79.1935H151.108Z" fill="#7C8CC2"/>
<path d="M151.773 74.7741C151.602 74.7757 151.434 74.7239 151.294 74.6257C151.154 74.5275 151.048 74.388 150.991 74.2266C150.914 74.0243 150.92 73.7999 151.008 73.6022C151.096 73.4044 151.259 73.2494 151.46 73.1707L162.488 68.947C162.591 68.9101 162.7 68.8939 162.809 68.8995C162.918 68.9051 163.025 68.9324 163.123 68.9798C163.221 69.0271 163.309 69.0935 163.382 69.1752C163.454 69.2569 163.509 69.3521 163.544 69.4554C163.588 69.555 163.61 69.6626 163.61 69.7714C163.61 69.8801 163.587 69.9876 163.543 70.0869C163.499 70.1863 163.434 70.2754 163.354 70.3484C163.273 70.4215 163.178 70.477 163.075 70.5114L152.086 74.6959L151.773 74.7741Z" fill="#7C8CC2"/>
<path d="M114.425 79.1936H114.307L102.614 77.903C102.393 77.8736 102.191 77.7593 102.053 77.5841C101.914 77.4089 101.849 77.1867 101.871 76.9644C101.885 76.8561 101.921 76.7517 101.976 76.6574C102.032 76.5631 102.105 76.4808 102.192 76.4152C102.28 76.3497 102.379 76.3022 102.485 76.2756C102.591 76.2491 102.702 76.2439 102.81 76.2605L114.503 77.5119C114.694 77.5617 114.862 77.6755 114.979 77.8343C115.096 77.9932 115.154 78.1874 115.145 78.3844C115.136 78.5815 115.059 78.7694 114.928 78.9167C114.797 79.064 114.619 79.1617 114.425 79.1936Z" fill="#7C8CC2"/>
<path d="M113.956 74.7744C113.817 74.7726 113.682 74.7319 113.565 74.6571L103.162 68.7127C103.066 68.6598 102.981 68.5882 102.914 68.5022C102.846 68.4161 102.796 68.3173 102.766 68.2116C102.737 68.1059 102.73 67.9954 102.744 67.8867C102.758 67.778 102.794 67.6732 102.849 67.5785C102.902 67.4825 102.974 67.398 103.06 67.33C103.146 67.2621 103.245 67.212 103.35 67.1829C103.456 67.1537 103.566 67.146 103.675 67.1603C103.784 67.1745 103.889 67.2103 103.983 67.2657L114.386 73.2101C114.564 73.2907 114.708 73.4324 114.791 73.6094C114.874 73.7865 114.891 73.9874 114.839 74.176C114.787 74.3646 114.67 74.5285 114.508 74.6382C114.346 74.7479 114.15 74.7962 113.956 74.7744Z" fill="#7C8CC2"/>
<path d="M53.8077 78.0595C55.0982 84.1995 60.2213 88.9706 65.5009 88.9706C70.7805 88.9706 74.7304 83.9257 73.7918 77.3947C72.8532 70.8637 67.1434 65.2322 61.3555 65.6232C55.5675 66.0143 52.478 71.6849 53.8077 78.0595Z" fill="#7F88FD"/>
<path d="M56.5066 77.7466C57.2888 81.501 60.4565 84.4732 63.7025 84.4732C66.9484 84.4732 69.334 81.3446 68.7474 77.3556C68.1608 73.3665 64.6802 69.8859 61.1214 70.1206C57.5625 70.3552 55.6854 73.8358 56.5066 77.7466Z" fill="black"/>
<path d="M58.3838 77.4728C58.8922 79.9757 61.004 81.9702 63.194 81.9702C65.3841 81.9702 66.9875 79.8584 66.5964 77.199C66.2053 74.5397 63.8589 72.1933 61.4733 72.3497C59.0877 72.5061 57.8363 74.8526 58.3838 77.4728Z" fill="#FDE55C"/>
<path d="M59.7919 74.149C60.0131 74.2968 60.2793 74.3621 60.5438 74.3335C60.8083 74.3049 61.0544 74.1842 61.2389 73.9926C61.4592 73.7784 61.5866 73.4864 61.5939 73.1793C61.6013 72.8722 61.4878 72.5745 61.278 72.3501L52.3614 63.1988C52.1436 62.9758 51.8461 62.8485 51.5344 62.8448C51.2227 62.8411 50.9223 62.9615 50.6993 63.1793C50.4763 63.3971 50.349 63.6946 50.3453 64.0063C50.3416 64.318 50.4619 64.6184 50.6798 64.8414L59.5963 73.9926L59.7919 74.149Z" fill="#424D80"/>
<path d="M50.4451 66.4837C49.9593 66.4158 49.5143 66.1746 49.1923 65.8044C48.8702 65.4343 48.6929 64.9602 48.6929 64.4696C48.6929 63.979 48.8702 63.505 49.1923 63.1348C49.5143 62.7647 49.9593 62.5234 50.4451 62.4556H52.1659V66.4837H50.4451Z" fill="#424D80"/>
<path d="M26.1591 67.3441L26.3547 67.4615C36.4836 71.7242 45.4002 71.0203 51.4619 65.467C51.6448 65.2496 51.7425 64.9732 51.737 64.6892C51.7316 64.4052 51.6232 64.1328 51.4321 63.9226C51.2411 63.7124 50.9802 63.5787 50.698 63.5463C50.4158 63.5138 50.1314 63.5849 49.8976 63.7462C44.5398 68.6347 36.5227 69.1822 27.2541 65.3105C27.1135 65.247 26.9614 65.2128 26.8071 65.2101C26.6528 65.2074 26.4995 65.2362 26.3567 65.2948C26.214 65.3534 26.0846 65.4405 25.9767 65.5508C25.8687 65.6611 25.7844 65.7923 25.7289 65.9363C25.6292 66.1848 25.6175 66.46 25.6957 66.7161C25.774 66.9722 25.9375 67.1938 26.1591 67.3441Z" fill="#A4B4EB"/>
<path d="M52.1659 66.4837C53.2891 66.4837 54.1995 65.5733 54.1995 64.4501C54.1995 63.327 53.2891 62.4165 52.1659 62.4165C51.0428 62.4165 50.1323 63.327 50.1323 64.4501C50.1323 65.5733 51.0428 66.4837 52.1659 66.4837Z" fill="#424D80"/>
<path d="M52.4006 65.7017C52.9838 65.7017 53.4566 65.2289 53.4566 64.6458C53.4566 64.0626 52.9838 63.5898 52.4006 63.5898C51.8175 63.5898 51.3447 64.0626 51.3447 64.6458C51.3447 65.2289 51.8175 65.7017 52.4006 65.7017Z" fill="#232145"/>
<path d="M22.9904 84.1217C23.0056 84.952 23.2373 85.764 23.6626 86.4773C24.0878 87.1906 24.6919 87.7806 25.4151 88.1889C26.2404 88.5891 27.165 88.7387 28.0744 88.6191L62.5676 83.7697H62.6067C64.0537 83.6133 65.4615 82.4009 66.2046 80.4455C67.2605 77.6297 66.361 74.5011 64.2492 73.6016C63.7668 73.4038 63.2407 73.3364 62.724 73.4061H62.5676L27.7224 78.2555C25.024 78.6466 22.9122 81.2668 22.9904 84.1217Z" fill="#FDE55C"/>
<path d="M53.6904 74.6575L58.0314 74.0709H58.1878C58.7046 74.0011 59.2306 74.0686 59.7131 74.2664L59.9477 74.3837C61.9031 75.4005 62.6853 78.4118 61.6684 81.1103C60.9254 83.0657 59.5175 84.278 58.0705 84.4736H58.0314L53.7295 85.0602C54.1731 85.529 54.6878 85.925 55.2547 86.2334C55.9475 86.5964 56.7167 86.7892 57.4987 86.796C58.2808 86.8028 59.0532 86.6234 59.7522 86.2725C60.6688 85.8184 61.4863 85.1871 62.1576 84.4152C62.8288 83.6432 63.3405 82.7459 63.6629 81.7751C65.1099 77.9426 63.9367 73.758 61.0427 72.2719L60.6908 72.1155C59.9675 71.8183 59.1855 71.6919 58.4055 71.7461C57.6254 71.8004 56.8684 72.0339 56.1933 72.4283C55.189 72.9551 54.3295 73.7206 53.6904 74.6575Z" fill="#424D80"/>
<path d="M49.3101 75.2833L52.5169 74.8531H52.6733C53.1901 74.7834 53.7161 74.8508 54.1985 75.0486L54.4332 75.1269C56.3886 76.1437 57.1707 79.155 56.1539 81.8925C55.4109 83.8479 54.003 85.0603 52.556 85.2167H52.5169L49.3492 85.686C49.9842 86.2265 50.765 86.5669 51.5932 86.6643C52.4214 86.7617 53.2599 86.6119 54.003 86.2335C55.4891 85.5687 56.7405 84.1217 57.4054 82.3227C58.6959 78.8812 57.6791 75.166 55.098 73.8363L54.8243 73.6799C54.206 73.4341 53.5403 73.331 52.8767 73.3784C52.2131 73.4258 51.5687 73.6224 50.9917 73.9536C50.358 74.2955 49.7888 74.7455 49.3101 75.2833Z" fill="#424D80"/>
<path d="M43.9131 76.0265L47.1199 75.5963H47.2764C47.7931 75.5228 48.3201 75.5903 48.8016 75.7918L49.0362 75.9092C50.9916 76.8869 51.7738 79.8982 50.757 82.6357C50.0139 84.5911 48.606 85.8035 47.159 85.9599H47.1199L43.9522 86.4292C44.5879 86.9669 45.366 87.3085 46.1921 87.4126C47.0182 87.5167 47.8568 87.3789 48.606 87.0158C50.2064 86.1863 51.4251 84.7715 52.0084 83.0659C53.299 79.6244 52.2822 75.9092 49.7011 74.5795L49.4273 74.4622C48.8139 74.2018 48.1485 74.0874 47.4834 74.1282C46.8183 74.1689 46.1717 74.3636 45.5947 74.6968C44.9692 75.0511 44.402 75.4995 43.9131 76.0265Z" fill="#424D80"/>
<path d="M38.5161 76.7692L41.723 76.339H41.8794C42.3961 76.2655 42.9231 76.3331 43.4046 76.5346L43.6392 76.6519C45.5946 77.6687 46.3768 80.68 45.36 83.3785C44.6169 85.3339 43.2091 86.5462 41.7621 86.7417L38.5552 87.1719C38.797 87.3984 39.0745 87.5834 39.3765 87.7194C39.9679 88.0247 40.6226 88.1872 41.2881 88.194C41.9537 88.2008 42.6115 88.0517 43.2091 87.7585C44.8172 86.939 46.0391 85.5205 46.6115 83.8087C47.902 80.3672 46.8852 76.6519 44.3432 75.3222L44.0303 75.2049C43.415 74.9532 42.7508 74.8436 42.0872 74.8842C41.4236 74.9249 40.7778 75.1147 40.1977 75.4396C39.5723 75.7938 39.0051 76.2423 38.5161 76.7692Z" fill="#424D80"/>
<path d="M74.6523 52.3658C76.9597 50.8406 77.3116 51.9356 73.9092 40.9463C70.5069 29.9569 65.2273 25.968 56.428 32.5772C48.2154 38.7953 46.7684 45.4828 58.6181 54.4385C65.11 59.327 66.205 62.0254 68.5906 59.2488C70.9761 56.4721 73.0098 53.4217 74.6523 52.3658Z" fill="#B9C7F7"/>
<path d="M77.3896 52.0133C79.6969 50.4881 80.1271 49.5495 76.7247 38.5211C73.3224 27.4927 67.9255 24.5204 59.3608 30.2693C50.7962 36.0182 49.623 43.0576 61.4727 52.0133C67.9646 56.9018 68.4339 59.6784 70.8194 56.9018C73.205 54.1251 75.747 53.0692 77.3896 52.0133Z" fill="white"/>
<path d="M14.3086 85.5679C12.1185 68.3605 19.549 54.0861 30.8903 54.047C42.2316 54.0078 52.908 68.2431 54.5506 85.4897C56.1931 102.736 48.6453 115.642 37.7342 115.642C26.8231 115.642 16.3813 102.345 14.3086 85.5679Z" fill="#6F7CAB"/>
<path d="M3.90569 85.6853C1.36367 65.5057 10.0847 48.7284 23.4205 48.6502C36.7563 48.572 49.2317 65.3492 51.1871 85.6071C53.1425 105.865 44.2259 121 31.4376 121C18.6494 121 6.36948 105.396 3.90569 85.6853Z" fill="#424D80"/>
<path d="M33.0802 74.1875L32.5718 73.1708C37.4212 70.2377 42.5834 68.9471 47.159 69.4164C47.3546 69.8466 47.511 70.2768 47.6674 70.707C43.1309 70.0421 37.9687 71.2153 33.0802 74.1875Z" fill="#232145"/>
<path d="M28.2701 114.156C30.0813 115.742 32.2673 116.841 34.6214 117.347C36.9754 117.854 39.4198 117.751 41.7232 117.05C41.0101 117.666 40.2519 118.228 39.4549 118.731L37.3822 118.849C33.6981 118.864 30.1361 117.529 27.3706 115.094L28.2701 114.156Z" fill="#232145"/>
<path d="M27.2924 61.9077L26.5493 61.0864C31.0467 56.9801 35.857 56.3935 39.5331 57.0192C39.9633 57.5276 40.4326 58.036 40.8628 58.5835C37.3431 57.5276 32.1417 57.4885 27.2924 61.9077Z" fill="#232145"/>
<path d="M17.7502 56.8629L16.7725 56.3155C19.3536 52.5611 22.6778 50.1364 26.393 49.3151L27.3707 49.1587C28.5063 49.407 29.6089 49.7876 30.6558 50.2928C29.2598 50.1224 27.8452 50.1885 26.4712 50.4884C23.0688 51.2314 20.1357 53.3823 17.7502 56.8629Z" fill="#232145"/>
<path d="M43.4442 105.748C40.3078 105.728 37.2032 105.118 34.293 103.949L34.8796 102.814C40.7849 105.083 45.9471 104.848 49.7406 103.597C49.6233 104.027 49.4668 104.496 49.3104 104.926C47.4041 105.478 45.4287 105.754 43.4442 105.748Z" fill="#232145"/>
<path d="M51.3829 88.3448C49.8968 88.4621 48.3324 88.5404 46.729 88.5404C43.4797 88.5567 40.235 88.295 37.0303 87.7582L37.4605 86.585C41.3321 87.2889 46.7681 87.4844 51.3047 87.1716C51.3438 87.5627 51.3438 87.9537 51.3829 88.3448Z" fill="#232145"/>
<path d="M0.347091 85.6074C-1.76473 67.3049 5.97863 52.0919 17.6328 52.0528C29.2869 52.0137 40.198 67.1876 41.8014 85.5291C43.4049 103.871 35.5051 117.637 24.2811 117.637C13.0572 117.637 2.41981 103.48 0.347091 85.6074Z" fill="#8A91FF"/>
<path d="M6.56533 85.4897C5.9005 77.6681 9.81128 71.0198 15.3255 70.8242C20.8397 70.6287 25.6109 76.9642 26.002 84.8249C26.393 92.6855 22.4431 98.6691 17.2027 98.8646C11.9622 99.0601 7.19106 93.1157 6.56533 85.4897Z" fill="white"/>
<path d="M8.4035 83.5348C8.28617 78.7636 10.7109 75.0093 13.8395 75.0093C16.9681 75.0093 19.7448 78.7636 20.0185 83.4957C20.2923 88.2277 17.8285 92.4123 14.5825 92.4123C11.3366 92.4123 8.55993 88.3842 8.4035 83.5348Z" fill="#55F085"/>
<path d="M7.46484 87.4842L9.2247 89.2832L20.6833 78.4503L18.9626 76.6514L7.46484 87.4842Z" fill="white"/>
<path d="M138.125 103.05C137.015 103.07 135.942 102.649 135.143 101.879C134.344 101.109 133.883 100.053 133.862 98.9432C133.841 97.8334 134.262 96.7608 135.032 95.9613C135.802 95.1619 136.859 94.7012 137.968 94.6804C149.31 94.172 160.534 92.6468 165.696 85.099C170.154 78.6071 169.88 67.8915 164.953 53.2651C164.71 52.249 164.855 51.1786 165.361 50.2644C165.867 49.3503 166.697 48.6585 167.687 48.3251C168.678 47.9918 169.757 48.041 170.713 48.463C171.668 48.885 172.432 49.6494 172.853 50.6058C178.758 68.087 178.68 80.9144 172.618 89.7919C164.366 101.876 147.433 102.619 138.32 103.01L138.125 103.05Z" fill="#B1C0F2"/>
<path d="M138.32 103.01L137.968 94.6803L140.393 94.563L140.862 102.893L138.32 103.01ZM151.226 101.759L149.74 93.5462C150.522 93.3897 151.265 93.2724 152.008 93.0769L153.846 101.25L151.226 101.759ZM164.249 97.3787L160.142 90.1047C160.729 89.7527 161.316 89.4007 161.863 89.0096L166.713 95.7753C165.928 96.3635 165.104 96.8992 164.249 97.3787ZM174.378 86.7414L166.869 83.1044C167.157 82.5087 167.405 81.8946 167.612 81.2663L175.512 84.0038C175.198 84.9417 174.819 85.8564 174.378 86.7414ZM168.863 72.8972C168.863 72.1932 168.824 71.4502 168.785 70.668L177.115 70.1205C177.154 71.0591 177.193 71.9586 177.193 72.8581L168.863 72.8972ZM167.338 61.5559C167.182 60.8129 166.986 60.0698 166.752 59.2877L174.847 57.1367C175.082 57.9971 175.277 58.8184 175.473 59.6396L167.338 61.5559Z" fill="#94A5E3"/>
<path d="M102.693 104.692C106.173 103.753 107.581 101.211 109.928 95.4622C110.191 94.8168 110.64 94.2641 111.218 93.8742C111.796 93.4843 112.476 93.2748 113.174 93.2722V91.395H96.5918L102.693 104.692Z" fill="#E0E8FF"/>
<path d="M137.734 104.692C141.175 103.753 142.622 101.211 144.93 95.4622C145.285 94.6054 145.957 93.9188 146.807 93.546C147.224 93.3659 147.578 93.0645 147.822 92.681C148.066 92.2975 148.189 91.8494 148.176 91.395H137.108L128.622 101.133V104.692H137.734Z" fill="#E0E8FF"/>
<path d="M116.771 114.038C116.599 114.037 116.429 113.998 116.274 113.924C116.118 113.849 115.981 113.742 115.872 113.608C115.702 113.375 115.631 113.083 115.675 112.797C115.719 112.512 115.874 112.255 116.106 112.083C117.553 111.027 117.788 110.636 117.984 107.899C118.013 107.612 118.151 107.347 118.369 107.158C118.587 106.969 118.869 106.87 119.157 106.882C119.301 106.892 119.441 106.93 119.57 106.994C119.7 107.059 119.815 107.148 119.909 107.257C120.004 107.366 120.076 107.493 120.121 107.63C120.166 107.767 120.184 107.911 120.174 108.055C119.939 111.105 119.548 112.24 117.397 113.843C117.209 113.961 116.993 114.028 116.771 114.038Z" fill="black"/>
<path d="M120.056 114.899C119.893 114.897 119.732 114.857 119.587 114.782C119.323 114.662 119.117 114.443 119.014 114.172C118.911 113.9 118.92 113.599 119.039 113.335C119.822 111.653 119.587 110.167 118.257 108.681C118.162 108.575 118.088 108.45 118.042 108.315C117.996 108.179 117.978 108.036 117.989 107.893C118 107.751 118.04 107.612 118.106 107.485C118.172 107.358 118.264 107.246 118.375 107.156C118.589 106.968 118.868 106.871 119.153 106.885C119.438 106.9 119.706 107.025 119.9 107.234C121.738 109.385 122.129 111.81 121.034 114.234C120.952 114.427 120.816 114.592 120.643 114.71C120.469 114.828 120.266 114.894 120.056 114.899Z" fill="black"/>
<path d="M123.146 113.765C122.878 113.758 122.62 113.656 122.419 113.477C122.219 113.298 122.088 113.054 122.051 112.787C121.856 111.067 120.761 109.815 118.649 108.955C118.499 108.912 118.361 108.838 118.242 108.737C118.124 108.636 118.028 108.511 117.961 108.371C117.895 108.23 117.859 108.077 117.856 107.921C117.853 107.766 117.884 107.611 117.946 107.468C118.007 107.326 118.099 107.197 118.214 107.093C118.329 106.988 118.465 106.909 118.613 106.861C118.761 106.813 118.917 106.797 119.072 106.814C119.226 106.831 119.376 106.881 119.509 106.96C122.325 108.133 123.929 110.011 124.202 112.553C124.236 112.837 124.156 113.124 123.981 113.35C123.805 113.577 123.548 113.726 123.264 113.765H123.146Z" fill="black"/>
<path d="M33.8625 13.7269C32.5111 12.8599 31.3614 11.713 30.4911 10.3637C29.6208 9.01435 29.0501 7.49403 28.8176 5.90531L27.9963 0.469304C27.9774 0.338035 27.9115 0.218102 27.8108 0.131789C27.7101 0.0454754 27.5815 -0.00133052 27.4488 2.87964e-05C27.3162 -0.00133052 27.1876 0.0454754 27.0869 0.131789C26.9862 0.218102 26.9203 0.338035 26.9013 0.469304L26.0801 5.90531C25.8475 7.49403 25.2769 9.01435 24.4066 10.3637C23.5362 11.713 22.3866 12.8599 21.0351 13.7269L20.3312 14.1962C20.259 14.2423 20.1996 14.3059 20.1586 14.3811C20.1176 14.4563 20.0962 14.5407 20.0965 14.6264C20.0932 14.718 20.113 14.809 20.154 14.891C20.195 14.973 20.2559 15.0433 20.3312 15.0957L21.0351 15.565C22.3855 16.4239 23.535 17.5636 24.4055 18.9065C25.2761 20.2494 25.8472 21.7641 26.0801 23.3474L26.9013 28.8225C26.9203 28.9538 26.9862 29.0737 27.0869 29.16C27.1876 29.2464 27.3162 29.2932 27.4488 29.2918C27.5815 29.2932 27.7101 29.2464 27.8108 29.16C27.9115 29.0737 27.9774 28.9538 27.9963 28.8225L28.8176 23.3474C29.0505 21.7641 29.6216 20.2494 30.4921 18.9065C31.3627 17.5636 32.5122 16.4239 33.8625 15.565L34.5665 15.0957C34.6417 15.0433 34.7027 14.973 34.7437 14.891C34.7847 14.809 34.8044 14.718 34.8011 14.6264C34.8014 14.5407 34.7801 14.4563 34.739 14.3811C34.698 14.3059 34.6387 14.2423 34.5665 14.1962L33.8625 13.7269Z" fill="#FDF0A4"/>
<path d="M46.2211 32.3422C45.7372 32.0289 45.3262 31.6154 45.0159 31.1297C44.7055 30.6439 44.5031 30.0972 44.4221 29.5265L44.1093 27.5319C44.1093 27.4537 43.9919 27.3755 43.9137 27.3755C43.868 27.3746 43.8234 27.3897 43.7876 27.4183C43.7519 27.4469 43.7273 27.4871 43.7182 27.5319L43.4053 29.5265C43.3244 30.0972 43.1219 30.6439 42.8116 31.1297C42.5012 31.6154 42.0902 32.0289 41.6064 32.3422L41.3326 32.4987C41.2847 32.5528 41.2571 32.6219 41.2544 32.6942C41.2544 32.7245 41.2615 32.7545 41.275 32.7816C41.2886 32.8088 41.3083 32.8324 41.3326 32.8506L41.6064 33.007C42.0913 33.3283 42.5025 33.749 42.8126 34.2412C43.1228 34.7333 43.3248 35.2858 43.4053 35.8619L43.7182 37.8173C43.7182 37.8692 43.7388 37.9189 43.7755 37.9556C43.8121 37.9923 43.8619 38.0129 43.9137 38.0129C43.9656 38.0129 44.0153 37.9923 44.052 37.9556C44.0887 37.9189 44.1093 37.8692 44.1093 37.8173L44.4221 35.8619C44.5027 35.2858 44.7047 34.7333 45.0148 34.2412C45.325 33.749 45.7361 33.3283 46.2211 33.007L46.4948 32.8506C46.5191 32.8324 46.5388 32.8088 46.5524 32.7816C46.566 32.7545 46.5731 32.7245 46.5731 32.6942C46.5704 32.6219 46.5427 32.5528 46.4948 32.4987L46.2211 32.3422Z" fill="#E9459D"/>
<path d="M156.388 42.237C155.629 41.7502 154.983 41.1081 154.491 40.3531C153.999 39.5981 153.672 38.7473 153.533 37.8569L153.103 34.8065C153.093 34.7305 153.056 34.6606 152.998 34.6101C152.941 34.5597 152.867 34.5321 152.79 34.5327C152.713 34.5321 152.639 34.5597 152.582 34.6101C152.524 34.6606 152.487 34.7305 152.477 34.8065L152.008 37.8569C151.876 38.7448 151.556 39.5945 151.071 40.3496C150.585 41.1047 149.945 41.7481 149.192 42.237L148.801 42.5107C148.758 42.5349 148.722 42.5687 148.695 42.6094C148.668 42.6502 148.65 42.6968 148.645 42.7454C148.65 42.7994 148.667 42.8516 148.694 42.8987C148.721 42.9458 148.757 42.9869 148.801 43.0191L149.192 43.2538C149.945 43.7427 150.585 44.386 151.071 45.1412C151.556 45.8963 151.876 46.746 152.008 47.6339L152.477 50.6843C152.487 50.7603 152.524 50.8302 152.582 50.8806C152.639 50.9311 152.713 50.9586 152.79 50.958C152.867 50.9586 152.941 50.9311 152.998 50.8806C153.056 50.8302 153.093 50.7603 153.103 50.6843L153.533 47.6339C153.672 46.7435 153.999 45.8927 154.491 45.1377C154.983 44.3826 155.629 43.7406 156.388 43.2538L156.779 43.0191C156.817 42.9849 156.848 42.9426 156.868 42.8953C156.888 42.848 156.898 42.7968 156.896 42.7454C156.898 42.6996 156.888 42.6541 156.868 42.6131C156.847 42.5721 156.817 42.5369 156.779 42.5107L156.388 42.237Z" fill="#8088FD"/>
<path d="M191.585 101.524C190.56 100.864 189.688 99.9914 189.027 98.9663C188.366 97.9411 187.931 96.7866 187.753 95.58L187.127 91.4345C187.11 91.3305 187.058 91.2353 186.98 91.1644C186.902 91.0934 186.802 91.0508 186.697 91.0435C186.592 91.0508 186.492 91.0934 186.414 91.1644C186.336 91.2353 186.284 91.3305 186.267 91.4345L185.68 95.58C185.487 96.7868 185.043 97.9396 184.376 98.9636C183.709 99.9877 182.834 100.86 181.808 101.524L181.261 101.876C181.207 101.917 181.164 101.97 181.136 102.032C181.109 102.093 181.098 102.161 181.104 102.228C181.101 102.295 181.114 102.362 181.141 102.423C181.168 102.484 181.209 102.538 181.261 102.58L181.808 102.932C182.837 103.593 183.715 104.464 184.382 105.489C185.05 106.514 185.492 107.668 185.68 108.877L186.267 113.022C186.291 113.119 186.347 113.205 186.424 113.269C186.501 113.332 186.597 113.369 186.697 113.374C186.797 113.369 186.892 113.332 186.97 113.269C187.047 113.205 187.102 113.119 187.127 113.022L187.753 108.877C187.926 107.668 188.359 106.512 189.02 105.486C189.682 104.46 190.557 103.589 191.585 102.932L192.133 102.58C192.189 102.54 192.236 102.487 192.27 102.426C192.304 102.365 192.324 102.298 192.328 102.228C192.327 102.158 192.308 102.089 192.274 102.028C192.24 101.967 192.192 101.915 192.133 101.876L191.585 101.524Z" fill="#67BAFD"/>
<path d="M178.093 28.2753C177.773 28.0617 177.501 27.785 177.292 27.4621C177.084 27.1393 176.944 26.7772 176.88 26.3981L176.685 25.0685C176.685 25.0293 176.646 24.9902 176.568 24.9902C176.489 24.9902 176.45 25.0293 176.45 25.0685L176.255 26.3981C176.191 26.7772 176.051 27.1393 175.843 27.4621C175.634 27.785 175.362 28.0617 175.042 28.2753L174.847 28.3926C174.808 28.3926 174.808 28.4317 174.808 28.5099C174.806 28.5311 174.808 28.5525 174.815 28.5726C174.822 28.5928 174.833 28.6114 174.847 28.6273L175.042 28.7055C175.359 28.9224 175.629 29.2001 175.837 29.5223C176.045 29.8446 176.187 30.205 176.255 30.5827L176.45 31.9123C176.45 31.9435 176.463 31.9733 176.485 31.9953C176.507 32.0173 176.536 32.0297 176.568 32.0297C176.599 32.0297 176.629 32.0173 176.651 31.9953C176.673 31.9733 176.685 31.9435 176.685 31.9123L176.88 30.5827C176.948 30.205 177.09 29.8446 177.298 29.5223C177.506 29.2001 177.776 28.9224 178.093 28.7055L178.288 28.6273C178.302 28.6114 178.313 28.5928 178.32 28.5726C178.327 28.5525 178.329 28.5311 178.327 28.5099C178.327 28.4317 178.327 28.3926 178.288 28.3926L178.093 28.2753Z" fill="white"/>
<path d="M119.861 76.0651H119.744C119.501 76.0356 119.28 75.9129 119.127 75.7231C118.974 75.5333 118.9 75.2912 118.922 75.0482C119.118 72.9364 120.135 72.076 120.956 71.7241C122.755 70.9419 125.375 71.8805 128.465 74.3834C128.563 74.4598 128.645 74.555 128.707 74.6635C128.768 74.772 128.807 74.8917 128.822 75.0155C128.836 75.1392 128.826 75.2647 128.792 75.3845C128.757 75.5042 128.699 75.6159 128.621 75.7131C128.545 75.8075 128.451 75.8856 128.345 75.9429C128.238 76.0001 128.121 76.0353 128.001 76.0462C127.88 76.0572 127.759 76.0437 127.644 76.0066C127.528 75.9695 127.422 75.9096 127.331 75.8304C124.437 73.523 122.52 73.0929 121.699 73.4448C120.878 73.7968 120.878 74.227 120.76 75.2047C120.75 75.4364 120.651 75.6553 120.484 75.8156C120.316 75.9759 120.093 76.0653 119.861 76.0651Z" fill="#55F085"/>
<path d="M137.968 92.2168L137.068 92.1386C135.504 91.759 134.121 90.8463 133.158 89.5574C130.459 92.0995 127.018 92.9207 125.023 91.3173C124.476 90.8871 123.263 89.5183 124.476 86.8981C124.569 86.6958 124.739 86.539 124.948 86.4619C125.157 86.3849 125.388 86.3941 125.59 86.4875C125.792 86.5808 125.949 86.7507 126.026 86.9597C126.103 87.1687 126.094 87.3998 126.001 87.602C125.649 88.3842 125.336 89.4401 126.079 90.0267C127.643 91.2391 130.772 89.7921 132.649 87.6802C132.734 87.5789 132.843 87.5006 132.966 87.4528C133.089 87.4049 133.222 87.389 133.353 87.4065C133.483 87.4074 133.611 87.4444 133.721 87.5135C133.832 87.5825 133.921 87.6809 133.979 87.7976C134.8 89.1664 136.13 90.2223 137.381 90.496C137.767 90.5796 138.167 90.5774 138.552 90.4896C138.937 90.4017 139.299 90.2304 139.61 89.9876C140.353 89.401 141.096 88.3842 141.761 86.8981C141.855 86.6958 142.024 86.539 142.234 86.4619C142.443 86.3849 142.674 86.3941 142.876 86.4875C143.078 86.5808 143.235 86.7507 143.312 86.9597C143.389 87.1687 143.38 87.3998 143.286 87.602C142.465 89.3619 141.605 90.5742 140.588 91.3173C139.839 91.9005 138.917 92.217 137.968 92.2168Z" fill="#232145"/>
<path d="M137.851 76.0649H137.655C137.412 76.0175 137.197 75.8758 137.058 75.6706C136.919 75.4654 136.866 75.2135 136.912 74.9699C137.382 72.7798 138.555 71.9977 139.454 71.6848C141.331 71.0591 143.756 72.0368 146.494 74.4615C146.586 74.5434 146.662 74.6429 146.716 74.7542C146.771 74.8655 146.802 74.9864 146.81 75.11C146.817 75.2336 146.8 75.3574 146.759 75.4743C146.718 75.5912 146.654 75.6989 146.572 75.7911C146.408 75.9671 146.182 76.0733 145.942 76.0879C145.702 76.1024 145.465 76.0242 145.281 75.8694C143.091 73.9531 141.214 73.0536 140.041 73.4447C138.868 73.8357 138.985 74.305 138.75 75.3609C138.699 75.5609 138.583 75.7382 138.42 75.8655C138.257 75.9928 138.057 76.0628 137.851 76.0649Z" fill="#55F085"/>
<path d="M168.589 50.3713C168.377 50.3743 168.168 50.3218 167.983 50.2188C167.798 50.1159 167.643 49.9662 167.533 49.7847L163.193 42.8626C163.076 42.5865 163.063 42.2779 163.155 41.9927C163.246 41.7076 163.437 41.4648 163.693 41.3086C163.949 41.1524 164.252 41.0931 164.548 41.1414C164.843 41.1897 165.112 41.3425 165.304 41.572L169.645 48.4941C169.809 48.771 169.859 49.1001 169.786 49.4132C169.713 49.7262 169.523 49.9993 169.254 50.1757C169.06 50.3112 168.826 50.3798 168.589 50.3713Z" fill="black"/>
<path d="M168.59 50.3711H168.238C167.976 50.2945 167.747 50.1346 167.585 49.9158C167.422 49.697 167.336 49.4312 167.338 49.1587L167.456 40.6332C167.475 40.3113 167.614 40.0084 167.846 39.784C168.078 39.5596 168.385 39.4301 168.707 39.4209C168.872 39.4209 169.034 39.4533 169.186 39.5162C169.338 39.5791 169.476 39.6712 169.592 39.7874C169.708 39.9036 169.8 40.0416 169.863 40.1934C169.926 40.3453 169.959 40.508 169.959 40.6724L169.88 44.5831L170.506 43.5272C170.677 43.242 170.955 43.0364 171.277 42.9557C171.6 42.8751 171.942 42.9259 172.227 43.097C172.512 43.2682 172.718 43.5456 172.798 43.8683C172.879 44.191 172.828 44.5326 172.657 44.8178L169.646 49.8236C169.532 49.9979 169.375 50.1398 169.19 50.2357C169.005 50.3316 168.798 50.3783 168.59 50.3711Z" fill="black"/>
</svg>
