<svg width="80" height="64" viewBox="0 0 80 64" fill="none" xmlns="http://www.w3.org/2000/svg">
<rect x="20" y="12" width="40" height="40" rx="8" fill="#202225"/>
<path d="M40 30.9C39.39 30.9 38.9 31.39 38.9 32C38.9 32.61 39.39 33.1 40 33.1C40.61 33.1 41.1 32.61 41.1 32C41.1 31.39 40.61 30.9 40 30.9ZM40 22C34.48 22 30 26.48 30 32C30 37.52 34.48 42 40 42C45.52 42 50 37.52 50 32C50 26.48 45.52 22 40 22ZM42.19 34.19L34 38L37.81 29.81L46 26L42.19 34.19Z" fill="white"/>
<path d="M73.3369 1.44506C73.3369 0.646974 72.6899 0 71.8918 0C71.0938 0 70.4468 0.646974 70.4468 1.44506V2.9142C70.4468 3.71228 71.0938 4.35926 71.8918 4.35926C72.6899 4.35926 73.3369 3.71228 73.3369 2.9142V1.44506Z" fill="#ADF3FF"/>
<path d="M73.3369 13.0858C73.3369 12.2877 72.6899 11.6407 71.8918 11.6407C71.0938 11.6407 70.4468 12.2877 70.4468 13.0858V14.5549C70.4468 15.353 71.0938 16 71.8918 16C72.6899 16 73.3369 15.353 73.3369 14.5549V13.0858Z" fill="#ADF3FF"/>
<path d="M78.5549 9.47291C79.353 9.47291 80 8.82594 80 8.02785C80 7.22977 79.353 6.58279 78.5549 6.58279H77.0858C76.2877 6.58279 75.6407 7.22977 75.6407 8.02785C75.6407 8.82594 76.2877 9.47291 77.0858 9.47291H78.5549Z" fill="#ADF3FF"/>
<path d="M66.9143 9.39289C67.7124 9.39289 68.3594 8.74592 68.3594 7.94784C68.3594 7.14975 67.7124 6.50278 66.9143 6.50278H65.4452C64.6471 6.50278 64.0001 7.14975 64.0001 7.94784C64.0001 8.74592 64.6471 9.39289 65.4452 9.39289H66.9143Z" fill="#ADF3FF"/>
<path d="M8.36261 59.843L11.486 58.8013C11.6394 58.731 11.7694 58.6181 11.8605 58.4761C11.9516 58.334 12 58.1688 12 58C12 57.8312 11.9516 57.666 11.8605 57.5239C11.7694 57.3819 11.6394 57.269 11.486 57.1987L8.36261 56.157C8.14925 56.0606 7.97838 55.8897 7.88207 55.6762L6.76084 52.5511C6.70818 52.3908 6.60626 52.2512 6.46964 52.1522C6.33302 52.0533 6.16866 52 5.99999 52C5.83133 52 5.66698 52.0533 5.53036 52.1522C5.39374 52.2512 5.29182 52.3908 5.23916 52.5511L4.11793 55.6762C4.02162 55.8897 3.85075 56.0606 3.63739 56.157L0.513957 57.1987C0.360602 57.269 0.230643 57.3819 0.139534 57.5239C0.0484247 57.666 0 57.8312 0 58C0 58.1688 0.0484247 58.334 0.139534 58.4761C0.230643 58.6181 0.360602 58.731 0.513957 58.8013L3.63739 59.843C3.75083 59.8774 3.85403 59.9393 3.93785 60.0232C4.02167 60.107 4.08352 60.2103 4.11793 60.3238L5.23916 63.4489C5.29182 63.6092 5.39374 63.7488 5.53036 63.8478C5.66698 63.9467 5.83133 64 5.99999 64C6.16866 64 6.33302 63.9467 6.46964 63.8478C6.60626 63.7488 6.70818 63.6092 6.76084 63.4489L7.88207 60.3238C7.91648 60.2103 7.97833 60.107 8.06215 60.0232C8.14597 59.9393 8.24917 59.8774 8.36261 59.843Z" fill="#FFD01A"/>
</svg>
