<svg xmlns="http://www.w3.org/2000/svg" width="30" height="32" viewBox="0 0 30 32"><title>HypeSquad Badge: House of Bravery</title><path d="M29.09.25H.64A.44.44,0,0,0,.2.69h0V20.34a.46.46,0,0,0,.16.34l14.23,11a.44.44,0,0,0,.55,0l14.22-11a.44.44,0,0,0,.17-.34V.69a.44.44,0,0,0-.44-.44Zm-4,8.93L21.75,15.8a.24.24,0,0,0,.09.32h2.1a.21.21,0,0,1,.27.13h0a.23.23,0,0,1-.13.29L15,23.11a.24.24,0,0,1-.28,0L5.53,16.58a.22.22,0,0,1-.14-.28h0a.21.21,0,0,1,.27-.14h2a.25.25,0,0,0,.23-.25.2.2,0,0,0,0-.11L4.6,9.18a.23.23,0,0,1,.1-.29.24.24,0,0,1,.26,0l8.12,5.33a1.12,1.12,0,0,1,.34.38l1.23,2.49a.25.25,0,0,0,.35.08h0a.3.3,0,0,0,.08-.08l1.23-2.49a1.1,1.1,0,0,1,.33-.38l8.13-5.33a.25.25,0,0,1,.34,0,.28.28,0,0,1,0,.25Z" fill="#9c84ef"/></svg>