<svg width="48" height="48" viewBox="0 0 48 48" fill="none" xmlns="http://www.w3.org/2000/svg">
<circle cx="25.5" cy="26.5" r="17.5" fill="#60CFAC"/>
<rect x="12" y="33" width="21" height="8" rx="1" fill="#007AFF"/>
<rect x="29" y="11" width="4.5" height="8" rx="0.5" fill="#F85FF6"/>
<circle cx="31" cy="12" r="0.5" fill="black"/>
<circle cx="32.5" cy="12" r="0.5" fill="black"/>
<path d="M26.2495 19.617L25.5995 17.617C25.2809 16.628 24.5826 15.806 23.6582 15.3316C22.7337 14.8572 21.6588 14.7692 20.6695 15.087C19.6838 15.4018 18.8625 16.0936 18.3848 17.0116C17.9071 17.9295 17.8118 18.999 18.1195 19.987L18.7595 21.987C19.1674 23.2891 19.1674 24.6849 18.7595 25.987C18.2832 27.5349 18.4192 29.2065 19.1395 30.657C19.7114 31.8398 20.6443 32.8104 21.8036 33.4287C22.9629 34.047 24.2886 34.281 25.5895 34.097C26.8228 33.9315 27.9795 33.4044 28.9137 32.5823C29.8478 31.7602 30.5176 30.6799 30.8385 29.4776C31.1593 28.2753 31.117 27.0049 30.7168 25.8267C30.3165 24.6484 29.5763 23.6151 28.5895 22.857C27.4915 22.0467 26.6735 20.9141 26.2495 19.617Z" fill="black"/>
<path d="M15.9995 33.9671C15.8835 33.9669 15.7685 33.9466 15.6595 33.9071C15.4102 33.8168 15.207 33.6313 15.0945 33.3913C14.982 33.1512 14.9694 32.8764 15.0595 32.6271C16.1521 29.6025 17.4346 26.6499 18.8995 23.7871C18.9631 23.6721 19.0488 23.5708 19.1516 23.489C19.2544 23.4072 19.3724 23.3464 19.4987 23.3102C19.625 23.274 19.7572 23.263 19.8877 23.2779C20.0183 23.2928 20.1446 23.3333 20.2595 23.3971C20.3744 23.4607 20.4757 23.5464 20.5575 23.6492C20.6394 23.752 20.7001 23.8699 20.7363 23.9962C20.7725 24.1225 20.7835 24.2547 20.7686 24.3853C20.7537 24.5158 20.7132 24.6422 20.6495 24.7571C19.2447 27.5311 18.0059 30.3862 16.9395 33.3071C16.8696 33.5003 16.7419 33.6674 16.5737 33.7855C16.4055 33.9036 16.205 33.967 15.9995 33.9671Z" fill="black"/>
<path d="M30.5595 39.447C30.3183 39.4498 30.0843 39.3652 29.9005 39.209C29.7168 39.0528 29.5957 38.8355 29.5595 38.597L29.4695 38.057C28.9395 34.617 28.6195 33.207 25.8695 32.977C25.738 32.9669 25.6098 32.9309 25.4923 32.8711C25.3748 32.8113 25.2703 32.7288 25.1848 32.6284C25.0993 32.5281 25.0345 32.4118 24.9941 32.2862C24.9537 32.1607 24.9386 32.0284 24.9495 31.897C24.9724 31.6333 25.0989 31.3894 25.3014 31.2188C25.5038 31.0482 25.7657 30.9649 26.0295 30.987C30.4595 31.357 30.9395 34.457 31.4495 37.747L31.5295 38.287C31.5509 38.4171 31.5464 38.5501 31.5162 38.6784C31.486 38.8067 31.4308 38.9278 31.3536 39.0346C31.2765 39.1415 31.179 39.2321 31.0667 39.3011C30.9545 39.3702 30.8297 39.4164 30.6995 39.437L30.5595 39.447Z" fill="black"/>
<path d="M36.1996 39.447C35.9738 39.4548 35.7521 39.3858 35.5705 39.2515C35.3889 39.1171 35.2582 38.9252 35.1996 38.707C34.6596 36.707 33.1996 33.317 29.1396 32.977C28.8758 32.9541 28.6319 32.8276 28.4614 32.6251C28.2908 32.4227 28.2074 32.1608 28.2296 31.897C28.2525 31.6333 28.379 31.3894 28.5815 31.2188C28.7839 31.0482 29.0458 30.9649 29.3096 30.987C33.1296 31.307 35.9796 33.927 37.1296 38.187C37.1971 38.4416 37.1614 38.7125 37.0303 38.9409C36.8993 39.1693 36.6834 39.3368 36.4296 39.407C36.3552 39.431 36.2777 39.4445 36.1996 39.447Z" fill="black"/>
<path d="M26.6096 24.2771C26.4782 24.2961 26.3445 24.2891 26.2158 24.2564C26.0872 24.2238 25.9663 24.1661 25.86 24.0867C25.7537 24.0073 25.664 23.9077 25.5962 23.7937C25.5283 23.6797 25.4836 23.5534 25.4646 23.4221C25.4455 23.2907 25.4525 23.1569 25.4852 23.0283C25.5179 22.8997 25.5755 22.7788 25.6549 22.6725C25.7343 22.5662 25.8339 22.4765 25.9479 22.4087C26.062 22.3408 26.1882 22.2961 26.3196 22.2771C29.5756 21.2853 30.1974 19.8469 30.5982 17.5966C30.6976 17.0386 31.1941 16.6375 31.7596 16.6771C32.3108 16.7597 32.6935 17.2763 32.5969 17.8253C32.1274 20.495 31.2915 22.8603 26.9196 24.1871C26.8223 24.2351 26.7174 24.2656 26.6096 24.2771Z" fill="black"/>
<path fill-rule="evenodd" clip-rule="evenodd" d="M25 3C25.5523 3 26 3.44772 26 4V10.5V11V13.2757C26 13.543 25.6769 13.6769 25.4879 13.4879L23 11H14C13.4477 11 13 10.5523 13 10V4C13 3.44772 13.4477 3 14 3H25Z" fill="white"/>
<circle r="1" transform="matrix(-1 0 0 1 23 7)" fill="#FA6EF6"/>
<circle r="1" transform="matrix(-1 0 0 1 19.5 7)" fill="#FA6EF6"/>
<circle r="1" transform="matrix(-1 0 0 1 16 7)" fill="#FA6EF6"/>
</svg>
