<svg viewBox="0 0 300 120" xmlns="http://www.w3.org/2000/svg"><path d="m242.3 60v-13.36a46.64 46.64 0 0 0 -46.64-46.64h-92.79a53 53 0 0 0 -37.45 15.51l-4.3 4.3a22.44 22.44 0 0 1 -15.9 6.58 45.23 45.23 0 0 0 -45.22 45.23v48.38h300v-39.67a20.33 20.33 0 0 0 -20.33-20.33z" fill="#aec7ff" opacity=".2"/><path d="m112.68 73.39a.57.57 0 0 1 -.49-.27.58.58 0 0 1 .18-.8l6.23-3.88a.58.58 0 0 1 .8.18.58.58 0 0 1 -.19.8l-6.21 3.88a.59.59 0 0 1 -.32.09z"/><path d="m25.54 48.22 8.19 39.23a7 7 0 0 0 6.83 5.55h41l-9.14-43.89a7.66 7.66 0 0 0 -7.5-6.11h-35.15a4.32 4.32 0 0 0 -4.23 5.22z" fill="#dcddde"/><path d="m81.58 93h-41a7 7 0 0 1 -6.83-5.56l-.16-.8-8-38.42a4.32 4.32 0 0 1 4.18-5.22h35.15a7.64 7.64 0 0 1 7.49 6.09l7.85 37.53z" fill="#d4e4ff"/><path d="m35.74 52.36h-9.34l-.86-4.14a4.31 4.31 0 0 1 4.22-5.22h4zm16.74-9.34h-9.35l1.96 9.34h9.34zm-7.39 9.34h-9.35l1.96 9.34h9.34zm28 0h-9.32l-2-9.34h3.1a7.64 7.64 0 0 1 7.49 6.09zm-35.39 9.34h-9.35l1.95 9.35h9.35zm18.68 0h-9.34l1.95 9.35h9.34zm18.69 0h-9.35l1.96 9.35h9.34z" fill="#fff"/><path d="m63.77 52.36h-9.34l1.95 9.34h9.34zm-14.78 18.69h-9.34l1.95 9.34h9.34zm-7.39 9.34h-9.34l1.31 6.25h9.35zm18.68 0h-9.34l1.95 9.34h9.35zm18.69 0h-9.34l1.95 9.34h9.34zm-11.29-9.34h-9.35l1.95 9.34h9.35z" fill="#fff"/><path d="m25.54 48.22 8.19 39.23a7 7 0 0 0 6.83 5.55h41l-9.14-43.89a7.66 7.66 0 0 0 -7.5-6.11h-35.15a4.32 4.32 0 0 0 -4.23 5.22z" fill="none"/><path d="m115.91 89.82a3.18 3.18 0 0 1 -3.18 3.18h-72.17a7 7 0 0 1 -6.83-5.56l-.16-.8h79.16a3.18 3.18 0 0 1 3.18 3.18z" fill="#aec7ff"/><g fill="#7196ff"><path d="m73.82 120h-39.46a4 4 0 0 1 -3.9-4.81 1.16 1.16 0 0 1 1.37-.9 1.17 1.17 0 0 1 .9 1.38 1.67 1.67 0 0 0 1.63 2h39.46a2.57 2.57 0 0 0 2.5-2l8.86-42.3a1.16 1.16 0 0 1 1.14-.92h17.38a1.15 1.15 0 0 1 1.13.92l9 42.89a1.17 1.17 0 0 1 -2.28.48l-8.79-42h-15.5l-8.67 41.38a4.89 4.89 0 0 1 -4.77 3.88z"/><rect height="2.88" rx=".96" width="1.92" x="282.17" y="78.63"/><rect height="2.88" rx=".96" width="1.92" x="282.17" y="86.29"/><rect height="2.88" rx=".96" transform="matrix(0 1 -1 0 370.86 -203.06)" width="1.92" x="286" y="82.46"/><rect height="2.88" rx=".96" transform="matrix(0 1 -1 0 363.19 -195.4)" width="1.92" x="278.34" y="82.46"/></g><path d="m102.82 21.75-1.22 2.53a.7.7 0 0 0 .93.93l2.53-1.21a.72.72 0 0 1 .61 0l2.53 1.22a.7.7 0 0 0 .93-.93l-1.22-2.53a.7.7 0 0 1 0-.6l1.22-2.54a.69.69 0 0 0 -.93-.92l-2.53 1.22a.72.72 0 0 1 -.61 0l-2.53-1.22a.69.69 0 0 0 -.93.92l1.22 2.54a.7.7 0 0 1 0 .59z" fill="#aec7ff"/><rect fill="#d4e4ff" height="2.88" rx=".96" width="1.92" x="20.38" y="78.02"/><rect fill="#d4e4ff" height="2.88" rx=".96" width="1.92" x="20.38" y="85.69"/><rect fill="#d4e4ff" height="2.88" rx=".96" transform="matrix(0 1 -1 0 108.46 58.12)" width="1.92" x="24.21" y="81.85"/><rect fill="#d4e4ff" height="2.88" rx=".96" transform="matrix(0 1 -1 0 100.79 65.79)" width="1.92" x="16.54" y="81.85"/><path d="m110.76 120h-40.86a4.48 4.48 0 0 1 -4.37-3.55l-8.73-41.69h-16.44a1.16 1.16 0 0 1 0-2.32h17.38a1.17 1.17 0 0 1 1.14.92l8.93 42.64a2.14 2.14 0 0 0 2.09 1.7h40.86a.8.8 0 0 0 .78-1l-9-42.89a1.16 1.16 0 1 1 2.27-.48l9 42.89a3.14 3.14 0 0 1 -3.06 3.77z" fill="#fff"/><path d="m31.6 116.61h-.24a1.17 1.17 0 0 1 -.9-1.38l8.77-41.85a1.16 1.16 0 1 1 2.27.48l-8.77 41.85a1.14 1.14 0 0 1 -1.13.9z" fill="#7196ff"/><rect fill="#7196ff" height="4.65" rx="2.32" width="28.27" x="34.75" y="72.25"/><rect fill="#7196ff" height="4.65" rx="2.32" width="28.27" x="80.97" y="72.25"/><path d="m135.38 117.61a1.16 1.16 0 0 1 -1.15-1l-5.6-38.8a7.92 7.92 0 0 0 -4.49-6.06l-7.2-3.37a1.16 1.16 0 0 1 1-2.1l7.2 3.37a10.25 10.25 0 0 1 5.81 7.83l5.6 38.79a1.16 1.16 0 0 1 -1 1.32z" fill="#ff73fa"/><path d="m134.23 116.62-.83-5.75 2.3-.33.83 5.74zm-2.15-14.94-.83-5.74 2.29-.33.83 5.74zm-2.16-14.93-.83-5.75 2.3-.33.83 5.74zm-3.67-13.54a7.85 7.85 0 0 0 -2.11-1.45l-2.59-1.21 1-2.1 2.59 1.21a10 10 0 0 1 2.73 1.87z" fill="#fff"/><path d="m146.52 89.08h-22.69l3.76 30.92h15.16z" fill="#fff"/><path d="m148.26 89.08h-26.17l1.22-2.91h23.72z" fill="#d4e4ff"/><path d="m125.61 103.71 2 16.29h15.16l2.4-19.66c-6.49-2.86-13.65 1.25-19.56 3.37z" fill="#ffd836"/><circle cx="134.45" cy="102.51" fill="#ff9a15" r="5.75"/><path d="m75.65 77.15v-2a3.14 3.14 0 0 0 -3.19-3.08 3.14 3.14 0 0 0 -3.09 3.19v2a4.19 4.19 0 0 1 -.84 2.57 5 5 0 1 0 8-.15 4.16 4.16 0 0 1 -.88-2.53z"/><path d="m63.91 93h48.82a3.18 3.18 0 0 0 3.18-3.18 3.18 3.18 0 0 0 -3.18-3.17h-50.18z" fill="#aec7ff"/><path d="m77.3 93.37a.87.87 0 0 1 -.85-.71l-.45-2.43c-.61-3-.82-3.58-3.84-3.58a.86.86 0 1 1 0-1.72c4.11 0 4.81 1.44 5.53 5l.44 2.45a.86.86 0 0 1 -.7 1z"/><path d="m82.65 91.9a.88.88 0 0 1 -.83-.61c-1.23-4-2.41-4.64-5.35-4.64a.86.86 0 1 1 0-1.72c3.92 0 5.63 1.42 7 5.85a.86.86 0 0 1 -.57 1.08 1.09 1.09 0 0 1 -.25.04zm-15.65-4.15h-.2a.76.76 0 0 1 -.8-.75c0-.17.25-4.34 2.27-6.73a.75.75 0 1 1 1.14 1c-1.69 2-1.92 5.81-1.92 5.85a.75.75 0 0 1 -.49.63zm31.09 21.59-.33-1.92a3 3 0 0 0 -3.49-2.42 3 3 0 0 0 -2.47 3.49l.33 1.89a4.06 4.06 0 0 1 -.42 2.56 4.86 4.86 0 1 0 9.09 1.42 4.83 4.83 0 0 0 -1.48-2.74 3.94 3.94 0 0 1 -1.23-2.28zm14.91-38.98.15-1.94a3 3 0 0 0 -2.78-3.24 3 3 0 0 0 -3.27 2.82l-.1 1.87a4.05 4.05 0 0 1 -1 2.39 4.87 4.87 0 1 0 7.7.58 4 4 0 0 1 -.7-2.48z"/><path d="m106.68 120h-10.21a.68.68 0 1 1 0-1.35h10.21a.68.68 0 1 1 0 1.35z"/><path d="m104 119.83a.67.67 0 0 1 -.66-.56l-.61-3.47a.25.25 0 0 0 -.18-.21.26.26 0 0 0 -.27.07l-3.11 3.15a.68.68 0 0 1 -1 0 .69.69 0 0 1 0-1l3.11-3.15a1.63 1.63 0 0 1 2.76.86l.6 3.46a.69.69 0 0 1 -.55.79zm-15.23.1a.69.69 0 0 1 -.34-.09.67.67 0 0 1 -.25-.92l4-7.07a.68.68 0 0 1 1.18.67l-4 7.07a.69.69 0 0 1 -.59.34zm18.4-33.07h-.07a.58.58 0 0 1 -.51-.64l.91-7.62a.58.58 0 0 1 1.15.13l-.91 7.63a.57.57 0 0 1 -.57.5zm3.08.02a.58.58 0 0 1 -.55-.61l.35-7.66a.61.61 0 0 1 .61-.56.59.59 0 0 1 .55.61l-.35 7.67a.58.58 0 0 1 -.61.55z"/><path d="m208.91 97.49h24.91v22.52h-24.91z" fill="#747f8d"/><path d="m184 115.84h49.82v4.18h-49.82zm-27.1-101.52h105.97v85.61h-105.97z"/><path d="m262.88 14.32h8.5v85.61h-8.5z" fill="#747f8d"/><circle cx="251.17" cy="94.56" fill="#36393f" r="1.45"/><circle cx="245.6" cy="94.56" fill="#ff9a15" r="1.45"/><circle cx="240.03" cy="94.56" fill="#36393f" r="1.45"/><path d="m252.61 89.06h-85.45v-65.25h85.45z" fill="#88a7ff"/><path d="m209.94 23.81h-42.77v65.25l42.77-32.63z" fill="#3e70dd"/><circle cx="209.94" cy="56.43" fill="#aec7ff" opacity=".8" r="32.62"/><path d="m209.94 27.26a29.18 29.18 0 1 1 -29.18 29.17 29.21 29.21 0 0 1 29.18-29.17m0-3.45a32.63 32.63 0 1 0 32.62 32.62 32.62 32.62 0 0 0 -32.62-32.62z" fill="#d9e7ff"/><path d="m209.94 23.81a32.62 32.62 0 0 0 -25.94 52.4l25.94-19.78z" fill="#7196ff" opacity=".5"/><path d="m209.32 23.81h1.15v65.25h-1.15z" fill="#7196ff"/><path d="m167.17 55.86h85.45v1.15h-85.45z" fill="#7196ff"/><path d="m196.61 41.33h5.75v30.21h-5.75zm22.2 5.74a2.18 2.18 0 0 1 2.19 2.18v14.37a2.17 2.17 0 0 1 -2.17 2.17h-2a2.17 2.17 0 0 1 -2.17-2.17v-14.37a2.18 2.18 0 0 1 2.17-2.18h2m0-5.74h-2a7.92 7.92 0 0 0 -7.92 7.92v14.37a7.93 7.93 0 0 0 7.92 7.92h2a7.93 7.93 0 0 0 7.92-7.92v-14.37a7.92 7.92 0 0 0 -7.92-7.92z"/></svg>