<svg width="660" height="190" viewBox="0 0 660 190" fill="none" xmlns="http://www.w3.org/2000/svg">
<g clip-path="url(#clip0_3_6883)">
<path opacity="0.2" d="M736.087 247.45L738.351 247.751L770.845 -5.42332L511.08 -73.4932L509.42 -72.4363L510.93 -69.5678L513.647 -67.9075H522.554L522.856 -66.6995L521.95 -64.8879L520.44 -63.0763V-62.3216L517.572 -60.6607L513.496 -57.3394L511.08 -53.5652L513.194 -50.8479L512.288 -49.3381V-48.4323L513.345 -47.8284H514.855L513.798 -46.0168L514.855 -45.111L515.911 -42.8466L516.968 -41.9408H518.176L522.554 -43.2994L522.856 -43.6012H523.158H523.46L523.762 -43.2994L525.724 -42.3936L531.31 -41.035H533.726L532.216 -39.6763L531.914 -38.0155L532.216 -36.2039L532.971 -34.0901L534.028 -32.1279H534.934L535.387 -31.3728V-28.0515L534.481 -23.2208L533.726 -20.503V-18.0875L538.255 -10.2372L538.557 -9.02969V-7.51987L536.896 -5.85895L533.424 -5.25545L531.763 -5.5572L530.254 -6.3119H528.744L526.932 -5.25545L525.724 -3.74562L524.819 -1.78296L524.517 0.17971L525.12 1.99129L522.705 4.10504L517.119 5.61433L514.402 6.82241L513.194 8.78507L510.326 10.8984L508.927 12.8251L510.58 14.7778L511.328 17.0376V19.2974L510.43 21.2729L509.507 21.8714H506.948L505.904 22.7765L505.602 23.3805L505.149 25.645L504.847 26.7019L506.249 27.8069L506.703 29.0148L506.355 30.3103L504.847 31.7916L503.595 35.0363L502.991 37.7535L502.236 43.4905H502.538H503.293H503.595L503.142 44.0945L501.934 46.3589L503.293 47.1136L504.198 48.7744L504.953 53.0016L504.651 55.266L505.255 56.9269L507.52 60.2478L509.482 65.834L510.539 67.6455L511.898 64.9282L514.162 68.5513L518.389 78.8171L520.352 80.9309L524.73 82.8932L526.542 84.1011L527.146 85.158L527.599 86.5166L528.353 88.63V89.3851H529.41L531.373 88.1771H532.581L534.694 89.5358L538.469 93.0082L540.582 94.3669L542.846 94.9709H549.036L552.961 96.1784H553.414L554.169 96.9336L553.867 97.2353V99.0469H553.716L553.113 103.425V104.784L553.414 105.69V106.445L552.056 107.501V109.313L552.357 110.974L552.961 112.332L553.867 113.54L552.81 113.087L552.207 113.389L551.754 114.295L552.66 115.352L552.961 115.805L543.45 121.994L541.488 124.863L541.79 125.466L542.545 126.07L543.45 126.825V128.184L543.149 129.09L542.243 130.599L540.884 133.317L537.563 137.393L535.6 140.413L534.845 142.526V148.867L534.543 150.829L533.637 157.17L534.09 163.209V164.718H535.147L536.506 164.417L538.921 162.756L539.978 162.303L541.337 162.605L553.113 168.493L555.377 170.606L556.132 172.267L556.434 173.928V175.135H556.132L557.037 176.494L563.378 183.137L563.831 184.344L563.227 186.005H560.963L560.208 187.817L560.963 190.081L563.077 192.648L571.833 200.951V201.857V203.819V204.574L572.587 205.178L574.399 205.782L575.003 206.386L576.06 210.009L576.664 210.764V211.217L576.965 212.727L577.267 213.33H577.871L579.532 212.123H579.985L580.74 215.293L580.136 217.859L579.834 220.275L581.495 222.993L583.004 223.747H588.741L593.723 225.559L595.384 225.257L597.648 222.238L597.195 218.916L596.289 215.746L597.045 213.029L598.403 212.727L603.838 213.934H607.612H608.971L616.972 218.463H619.69V225.408L621.199 230.843L624.068 233.107L628.295 230.541V229.484L627.842 228.427V227.37L629.05 226.314H629.805L634.787 229.937L636.749 230.994L638.712 231.749H649.884L653.356 233.56H654.111L654.865 232.806L656.224 230.088L656.979 229.031L658.187 228.578L660.753 228.276L661.659 227.823L662.263 226.767L663.169 223.898L663.773 222.993L665.886 221.634H666.339L668.905 221.03H671.472L672.076 223.294L677.662 223.596L679.926 224.502L680.832 227.37L679.926 227.974L679.625 228.427L679.322 229.031L681.134 230.994L684.002 235.674L685.663 237.787L688.532 239.599L694.117 240.656L696.986 242.166L697.892 243.373L699.099 245.94L700.307 246.997L701.666 247.45H702.119L703.629 246.997L705.138 246.393L706.799 246.091L708.157 246.393L710.875 247.6H712.083L713.593 247.147L716.612 245.487L717.97 245.034L728.689 248.204L736.087 247.45Z" fill="white"/>
<path d="M42.4219 -164.266L44.9886 -166.228L49.8197 -167.889L67.3321 -181.174L94.2046 -197.026L120.171 -214.085L149.157 -223.446L150.214 -215.595L149.61 -210.462V-205.631L151.271 -200.498L154.441 -197.026L155.347 -196.573L158.366 -195.214L162.442 -194.761L168.481 -195.667L168.783 -197.63L168.481 -200.196L168.783 -202.612L170.142 -204.122L172.105 -204.575H174.218L179.351 -205.782H182.521L185.842 -205.48L201.694 -200.196L204.11 -198.535L204.713 -195.818V-193.554V-191.44L206.676 -189.175L208.337 -188.421H223.585L226.453 -189.478L232.341 -194.158L248.344 -202.159L254.685 -207.141L259.817 -214.085L260.572 -216.199L261.478 -221.03V-221.936H261.629L264.045 -219.671L265.101 -217.558L266.007 -213.783L268.121 -211.217L270.536 -209.103L272.046 -207.141L272.499 -205.782V-204.575L272.348 -203.065L271.442 -201.555L271.14 -201.102L272.649 -201.857L273.706 -203.065L275.518 -206.99L271.14 -208.802L270.083 -209.556L269.63 -211.368V-215.897L269.328 -218.011L268.422 -219.671L266.611 -221.936H269.177H270.385L275.065 -219.369L277.632 -218.463L283.67 -218.011L286.086 -219.369L286.69 -222.993L285.935 -224.955L283.066 -228.427L282.01 -230.239V-232.353L282.916 -234.013L283.217 -235.523L281.708 -237.183L288.501 -241.109L295.446 -243.675L299.22 -244.279L300.881 -243.977L301.937 -242.317V-238.844L300.73 -236.278L300.428 -234.315L302.843 -232.503H304.504L308.278 -232.956L312.354 -231.9H314.317L315.978 -232.655L317.337 -233.711L327.301 -245.94L331.528 -248.204H333.339L335.755 -247.147L337.868 -245.789L339.227 -243.977L339.529 -240.807L338.774 -237.787L338.17 -234.617L339.076 -230.994L333.49 -233.56H331.981L331.225 -230.843L333.943 -229.635L343.001 -229.333L345.417 -228.729L350.399 -226.465L353.116 -227.22L356.438 -230.39L359.457 -234.466L361.419 -237.787L362.325 -240.354L362.778 -242.317L363.533 -243.524L365.496 -243.977L365.797 -243.524L369.723 -240.958L372.289 -236.127L371.836 -232.655L370.326 -229.333L369.874 -224.804L370.629 -222.842L375.006 -217.859L375.762 -216.048L377.12 -211.519L377.724 -210.16L379.989 -208.952L384.97 -209.405L387.386 -209.103L389.65 -206.235V-198.838L391.915 -198.234H392.821L396.897 -199.441L412.145 -198.838L414.862 -199.895L420.297 -203.669L422.864 -204.876L425.581 -204.575L428.601 -202.612L431.016 -199.441L431.922 -195.516L432.375 -190.836L433.13 -190.232L435.243 -188.421L442.49 -186.156L444.302 -184.948L445.509 -183.59L446.868 -182.533H449.132L454.567 -183.741H456.228L458.342 -182.231L461.059 -178.457L462.72 -176.947L466.645 -178.004H468.909L470.117 -175.287L470.419 -174.23L468.607 -172.418L468.154 -170.003L471.023 -166.832L469.815 -166.077L468.456 -165.624H467.098H465.739L466.041 -164.115V-163.511L466.645 -162.756L465.739 -159.887L464.984 -158.378L464.078 -157.019L462.569 -158.378L461.512 -157.774L460.908 -155.811L460.606 -153.094L462.418 -150.679L460.304 -145.696L455.171 -137.544L458.039 -138.299H459.247L460.455 -137.544L458.946 -135.129L456.681 -130.449L455.02 -127.882L454.416 -127.429L452.906 -126.825L451.397 -126.222L442.037 -115.805L442.339 -111.275L444.452 -108.105L446.566 -106.595L447.321 -106.143L450.038 -104.784L452.001 -104.18L451.699 -101.765L450.34 -97.0843L452.756 -95.7256L454.114 -95.4239L455.473 -95.7256L456.077 -96.6314L457.436 -98.7452L458.643 -99.651L460.002 -99.1981L462.72 -96.3297L464.078 -95.4239L475.25 -95.7256L476.76 -95.2728L478.118 -94.8199L487.478 -94.5181L490.045 -94.971V-94.6692L489.743 -94.367V-94.0652L489.894 -93.6123L492.007 -92.5554V-90.5928L491.554 -88.4794L492.007 -86.8185H493.668L498.801 -88.0265H500.915L503.33 -85.3087L511.181 -73.2314L509.52 -72.1745L511.03 -69.3061L513.747 -67.9474H522.654L522.956 -66.4376L522.05 -64.6261L520.541 -62.8145V-62.0599L517.672 -60.399L513.596 -57.0776L511.181 -53.3034L513.294 -50.5861L512.238 -49.0763V-48.1705L513.445 -47.7176H514.955L513.898 -45.9061L514.955 -45.0003L516.012 -42.7359L517.068 -41.9807H518.276L522.654 -43.3394L522.956 -43.6416H523.258H523.56L523.862 -43.3394L525.825 -42.4336L531.41 -41.075H533.826L532.316 -39.5652L532.014 -37.9047L532.316 -36.0932L533.071 -33.9794L534.128 -32.1678H535.034L535.486 -31.2621V-27.9407L534.43 -23.1096L533.524 -20.3923V-17.9767L538.204 -10.1265V-8.9185L538.506 -7.40919L536.845 -5.74829L533.373 -5.14429L531.712 -5.44652L530.203 -6.05006H528.693L526.882 -5.14429L525.674 -3.63496L524.768 -1.6723L524.466 0.290375L525.07 2.10193L522.654 4.21571L517.068 5.72549L514.351 6.93304L513.143 8.89572L510.275 11.009L508.916 12.821L510.577 14.7833L511.332 17.0482V19.3126L510.426 21.2753L509.52 21.8788H506.954L505.897 22.7846L505.595 23.3886L505.142 25.653L504.84 26.7099L506.198 27.7668L506.692 29.0184L506.35 30.333L504.847 31.7617L502.877 30.8331V29.1255V27.1628L502.336 25.376L500.659 23.8837H499.602L498.801 24.7473L497.744 25.5024L494.876 25.9553L493.306 26.1059L492.702 25.653L491.494 25.049L490.74 23.5393L490.287 21.5766L489.532 20.6708L487.63 22.1811L484.912 22.4828L483.855 24.2944L483.251 27.0122L482.194 29.8802L480.232 31.8428L475.401 34.2584L473.287 36.221L472.834 37.4286L472.533 40.7499L472.23 42.1091L471.476 43.3166L469.664 44.9771L468.909 46.1851V48.4495V50.62L468.607 52.1298L467.702 53.1866L465.135 54.3942L464.38 55.0922V57.8095L465.135 58.8664L465.739 60.0884L464.38 62.8058L463.324 63.8626L461.361 64.3155L460.455 64.9195L459.398 66.2782L458.946 67.3346L458.644 68.3915L458.288 69.694L454.012 77.5088L453.758 79.0378L454.567 79.8513L457.436 81.9646L459.931 84.2733L456.61 83.9715V85.1791L456.459 85.7831L456.157 86.236L455.855 86.9906L457.063 88.1986L455.553 89.2555L454.949 91.2177V93.6333L455.855 96.2L457.214 98.4644L459.35 97.754L459.931 99.3702L460.304 99.93L461.21 101.138L465.744 107.086V107.992L466.196 110.709L464.682 111.253L465.437 111.857L467.249 112.46L468.003 112.913H468.758H469.513H470.419L471.174 114.121V114.574L471.325 115.631L470.872 116.385L470.268 117.14V118.197L469.966 119.556L469.513 120.16V120.914L469.815 122.424L470.721 123.028L473.287 123.33L474.193 124.085L474.948 126.954L474.193 128.614L472.834 129.822L471.777 131.03L470.117 135.558L469.06 137.521L467.55 138.88L469.664 140.088L468.456 143.258L465.437 146.428L462.418 147.938L460.908 147.636L458.039 145.825H456.681L455.322 146.428L453.662 148.693L452.001 149.448L449.283 148.995L446.566 147.636L443.698 147.032L440.527 148.693L439.018 150.806L438.715 152.165L438.262 152.92L436.3 153.222L435.243 152.92L431.167 150.958L428.752 152.014L425.581 154.581L422.26 156.543L419.542 155.789L418.788 153.977V152.165L419.391 150.354V148.24L418.938 146.428L412.749 135.105L411.39 133.898L410.334 132.992L406.408 131.482L404.898 130.577H404.144L403.691 131.03L403.087 132.086L402.483 133.143L401.577 133.445L399.464 132.992L398.86 132.237L398.558 130.426L399.011 127.557L400.067 126.954L400.671 126.198L399.766 123.179L397.199 120.16L394.482 117.442H391.764L385.876 119.103L382.857 118.197L380.441 116.385L378.479 114.574L373.044 106.573L371.534 105.063L367.005 103.704L364.439 102.194L359.608 97.5144L357.343 96.1557H357.042H354.626L349.04 98.1184L346.172 98.5713L342.85 98.1184L341.642 96.6086V89.2113L341.341 88.0033L340.133 85.89L339.831 84.8331L340.133 83.6255L341.341 82.2664L341.793 81.21L342.548 78.7944L343.152 77.1335L343.454 75.4731L343.152 72.9064L341.189 69.2833L335.151 66.7166L333.49 63.8482L334.094 60.6779L339.076 48.2984V46.1851V44.5242V42.7126L341.642 37.4286H342.397L343.756 38.7877L344.058 35.3153L344.813 31.2393V27.7668L343.756 26.257L339.68 27.1628L338.17 26.5588L337.566 23.5397L334.094 25.2002L320.356 39.0895L319.601 40.5993L319.299 42.562L319.601 43.7695L320.054 44.8264V46.1851L319.148 52.5255L318.242 55.6962L317.034 57.9606L315.676 58.8664L310.241 59.7722L292.276 68.6793L288.501 69.2833L287.596 68.9815L268.272 63.6975L260.27 64.9051L258.308 65.2073L256.647 64.7544L249.401 60.8291H250.306V57.9606L249.401 54.941L248.797 54.6393L249.401 52.2237L250.004 50.7139L250.91 49.5064L253.325 47.2419L256.345 45.1282L259.515 43.6184V42.2597L258.609 40.5993L257.855 38.7877L255.741 30.1824L254.533 29.5784H253.175L250.608 30.937L248.797 30.0313L249.098 26.4082L251.514 18.4068L252.269 14.7833L252.873 13.1228L254.231 11.1602L257.251 8.7446L258.459 7.23482L258.761 5.12149L258.005 3.76282L256.345 2.40416L254.685 1.34726L253.477 0.894379L251.816 1.64903V3.00771V4.36684L250.91 5.27261L248.495 4.21571L245.022 -3.33273L242.305 -5.74829L239.588 -7.40919L235.36 -12.0892L232.794 -13.2967L230.077 -12.995L221.924 -9.52252H219.056L216.791 -10.5794L214.527 -12.0892L211.809 -13.4479L206.374 -14.0514L200.789 -13.5985L198.977 -12.995L197.92 -11.787L195.656 -7.86208L195.052 -6.20119L194.75 -5.59717L194.146 -5.14429H193.995H193.844L193.391 -3.78561L188.862 -8.01273L187.654 -16.3163V-25.6763L186.597 -33.5265L184.484 -37.3007L181.917 -39.7163L179.049 -41.075L176.181 -41.679H167.877L166.217 -42.8865L167.424 -45.1514V-46.8119L166.821 -47.8687L165.009 -48.4723H163.197L161.838 -47.4159L160.631 -46.0572L158.819 -44.6981L153.233 -42.5847L150.063 -42.283L147.798 -42.8865L142.213 -45.755L140.552 -47.1136L138.589 -49.6803L137.985 -51.9447V-58.4363L134.362 -69.9101L133.305 -75.7981L135.117 -79.1194L133.607 -83.9501L132.55 -85.7616L130.89 -86.3656L129.078 -86.6679L128.021 -87.8754L126.512 -91.8008L124.7 -94.971L122.587 -98.8963L120.473 -101.01L117.152 -102.067L106.886 -98.8963L100.092 -96.7825L97.073 -94.971L94.6575 -92.4043L90.7321 -85.611L89.0717 -84.2523L87.109 -84.7052L86.505 -85.007L76.2392 -89.687L73.8237 -91.6496L73.0686 -92.8572L71.4081 -96.9337L70.6535 -98.2923L65.8223 -102.821L64.9166 -104.331L64.4637 -105.69L63.8597 -106.898L62.1992 -107.803H60.9912L58.5757 -107.652H57.5188L55.5566 -108.105L54.6508 -108.558L53.8957 -109.766L52.8388 -112.332L52.2352 -112.936L50.7254 -113.691L50.2726 -114.446V-115.352L51.4801 -117.616V-118.975L49.0646 -127.882L49.8197 -129.694L52.8388 -132.713L53.5939 -133.921L53.141 -137.997L51.1783 -141.016L46.4983 -146.149L45.2903 -150.075L43.9317 -159.133L41.969 -163.813L42.4219 -164.266Z" fill="white" fill-opacity="0.1"/>
<path opacity="0.8" d="M504.608 32.3322L503.703 35.2006L503.099 37.918L502.344 43.5042H502.646H503.4H503.703L503.25 44.2589L502.042 46.5233L503.4 47.2784L504.306 48.9389L505.061 53.166L504.759 55.4304L505.363 57.0913L507.627 60.4127L509.59 65.9984L510.647 67.81L512.006 65.0927L514.27 68.7158L518.497 78.9815L520.46 81.0953L524.838 83.058L526.65 84.2655L527.254 85.3224L527.707 86.6811L528.461 88.7949V89.3984H529.669L531.631 88.1909H532.839L534.953 89.5495L538.727 93.022L540.841 94.3807L543.105 94.9842H549.295L553.22 96.1922H553.673L554.428 96.9469L554.126 97.2491V98.9095H553.975L553.371 103.288V104.646L553.673 105.552V106.307L552.315 107.364V109.175L552.465 110.836L553.069 112.195L553.975 113.402L552.918 112.95L552.315 113.252L551.862 114.158L552.768 115.214L553.069 115.667L543.558 121.857L541.595 124.725L541.898 125.329L542.652 125.933L543.408 126.688V128.046L543.105 128.952L542.199 130.462L540.841 133.18L537.519 137.256L535.557 140.275L534.802 142.389V148.73L534.5 150.692L533.594 157.033L534.047 163.071V164.581L531.481 164.279L528.008 162.467L521.819 157.938H521.517L518.044 156.429L514.421 155.976L507.024 156.731L507.93 158.542L504.306 158.844L503.4 159.146L502.646 160.354V161.562L502.344 162.618L500.834 163.222L499.626 165.185L497.663 165.94L486.643 166.544L484.379 167.298L482.567 161.562L480.151 159.146L471.999 157.184L468.829 155.674L466.564 153.56L462.488 148.126L465.507 146.616L468.527 143.446L469.735 140.275L467.621 139.067L469.131 137.709L470.187 135.746L471.848 131.217L472.905 130.009L474.263 128.802L475.018 127.141L474.263 124.272L473.358 123.518L470.791 123.216L469.885 122.612L469.432 121.102V120.347L470.036 119.743V118.385L470.338 117.328L470.942 116.573L471.395 115.818V114.762L471.244 114.309L470.489 113.101H469.583L468.829 113.252H468.074L467.319 112.648L465.507 112.044L464.752 111.44V110.987L464.451 108.27V107.364L461.28 101.325L460.375 100.118L458.714 99.0607L457.355 98.7584L455.996 98.1549L454.638 95.8904L453.883 93.3238V90.9082L454.335 88.9455L455.845 87.8891L454.638 86.6811L454.939 85.9264L455.241 85.4735V84.8695L455.392 83.6615L458.714 83.9638L457.506 82.1522L454.638 80.0384L453.128 79.2838L453.581 77.3211L458.11 69.6215L458.563 68.414L458.865 67.3571L459.318 66.3002L460.375 64.9415L461.28 64.3375L463.243 63.8846L464.299 62.8282L465.658 60.1104L465.205 59.054L464.299 57.9971V55.2798L465.205 54.2229L467.772 53.0149L468.678 51.9584L468.979 50.4487V46.2215L469.583 45.0135L471.395 43.3531L472.15 42.1451L472.452 40.7864L472.754 37.4651L473.207 36.2575L475.32 34.2949L480.151 31.8793L482.114 29.9166L483.171 27.0482L483.775 24.3309L484.831 22.5193L487.549 22.2175L489.511 20.5566L490.266 21.4624L490.719 23.4251L491.474 24.9349L492.682 25.5389L493.286 25.8406H494.795L497.663 25.5389L498.72 24.7838L499.626 23.878H500.683L502.344 25.3878L502.947 27.1993V29.162V30.8224L504.91 31.7287L504.608 32.3322Z" fill="white"/>
<path d="M400.363 171.479L394.726 172.204L394.565 190H405.677L400.363 171.479Z" fill="#FF78B9"/>
<path d="M397.705 173.091C391.907 173.896 388.686 172.93 386.19 170.836C385.948 170.595 385.868 170.273 386.109 169.95C386.19 169.789 386.351 169.709 386.512 169.709L407.689 166.891C408.011 166.81 408.334 167.052 408.334 167.374C408.334 167.535 408.334 167.696 408.253 167.776C406.401 170.514 403.502 172.286 397.705 173.091Z" fill="white"/>
<path d="M395.692 158.033C397.222 157.791 398.671 158.918 398.913 160.448L399.477 164.877L393.84 165.602L393.276 161.173C393.035 159.643 394.162 158.274 395.692 158.033Z" fill="#83DDC5"/>
<path d="M396.014 160.689C396.658 160.608 397.221 161.092 397.302 161.655L397.463 162.622C397.544 163.266 397.141 163.829 396.497 163.91C395.853 163.99 395.289 163.507 395.208 162.944L395.047 161.977C394.967 161.333 395.45 160.77 396.014 160.689Z" fill="#4F5D7F"/>
<path d="M396.416 163.428C388.364 164.556 384.338 166.971 381.761 170.675C381.439 170.997 381.52 171.481 381.842 171.803C382.084 171.964 382.325 172.044 382.567 171.964L412.118 167.938C412.601 167.938 412.923 167.535 412.923 167.132C412.923 166.891 412.762 166.569 412.521 166.488C408.978 163.589 404.469 162.301 396.416 163.428Z" fill="#EBEFF7"/>
<path d="M385.303 170.513C385.615 170.513 385.867 170.261 385.867 169.949C385.867 169.638 385.615 169.386 385.303 169.386C384.992 169.386 384.74 169.638 384.74 169.949C384.74 170.261 384.992 170.513 385.303 170.513Z" fill="#FFD836"/>
<path d="M388.767 170.03C389.078 170.03 389.33 169.778 389.33 169.466C389.33 169.155 389.078 168.903 388.767 168.903C388.455 168.903 388.203 169.155 388.203 169.466C388.203 169.778 388.455 170.03 388.767 170.03Z" fill="#AEC7FF"/>
<path d="M407.689 167.454C408 167.454 408.253 167.202 408.253 166.89C408.253 166.579 408 166.327 407.689 166.327C407.378 166.327 407.125 166.579 407.125 166.89C407.125 167.202 407.378 167.454 407.689 167.454Z" fill="#F47FFF"/>
<path opacity="0.45" d="M397.062 178.404C397.384 177.84 398.109 177.679 398.672 178.082L398.995 178.324C399.558 178.646 399.719 179.37 399.317 179.934C398.995 180.498 398.27 180.659 397.706 180.256L397.384 180.015C396.82 179.612 396.659 178.887 397.062 178.404Z" fill="#4762B0"/>
</g>
<defs>
<clipPath id="clip0_3_6883">
<rect width="660" height="190" rx="16" fill="white"/>
</clipPath>
</defs>
</svg>
