<svg xmlns="http://www.w3.org/2000/svg" width="438" height="270" viewBox="0 0 438 270" xmlns:xlink="http://www.w3.org/1999/xlink">
  <defs>
    <polygon id="a" points="0 229 0 .916 438 .916 438 229 0 229"/>
  </defs>
  <g fill="none" fill-rule="evenodd">
    <g transform="translate(0 -1)">
      <g transform="translate(0 40.297)">
        <mask id="b" fill="white">
          <use xlink:href="#a"/>
        </mask>
        <path fill="#F7F7F8" fill-opacity=".9" d="M47.3298,0.9156 L394.9338,0.9156 C418.7188,0.9156 437.9998,20.1966 437.9998,43.9816 C437.9998,67.7666 418.7188,87.0476 394.9338,87.0476 L342.1668,87.0476 C321.8228,87.0476 305.3318,103.5396 305.3318,123.8836 C305.3318,144.2266 321.8228,160.7186 342.1668,160.7186 L352.6428,160.7186 C371.4978,160.7186 386.7838,176.0036 386.7838,194.8586 C386.7838,213.7146 371.4978,228.9996 352.6428,228.9996 L168.0868,228.9996 C140.4728,228.9996 118.0868,206.6146 118.0868,178.9996 L118.0868,145.5786 C118.0868,117.9646 95.7018,95.5786 68.0868,95.5786 L47.3298,95.5786 C21.1898,95.5786 -0.0002,74.3886 -0.0002,48.2486 L-0.0002,48.2456 C-0.0002,22.1056 21.1898,0.9156 47.3298,0.9156" mask="url(#b)"/>
      </g>
      <path fill="#F7F7F8" d="M368.3059 110.0563C365.8189 110.0563 363.7959 108.0333 363.7959 105.5463 363.7959 103.0593 365.8189 101.0363 368.3059 101.0363 370.7929 101.0363 372.8159 103.0593 372.8159 105.5463 372.8159 108.0333 370.7929 110.0563 368.3059 110.0563L368.3059 110.0563zM373.1859 97.0933L363.4249 97.0933 358.5449 105.5463 363.4249 113.9993 373.1859 113.9993 378.0659 105.5463 373.1859 97.0933zM368.3855 79.8342C369.5905 79.8342 370.5705 78.8542 370.5705 77.6492 370.5705 76.4442 369.5905 75.4642 368.3855 75.4642 367.1805 75.4642 366.2005 76.4442 366.2005 77.6492 366.2005 78.8542 367.1805 79.8342 368.3855 79.8342"/>
      <path fill="#DCDDDE" d="M287.0212,169.1652 L287.0212,38.3712 C287.0212,33.4092 282.9832,29.3712 278.0212,29.3712 L245.9692,29.3712 L100.9022,29.3712 C95.9392,29.3712 91.9022,33.4092 91.9022,38.3712 L91.9022,48.0822 C91.9022,48.6342 91.4542,49.0822 90.9022,49.0822 L90.9022,57.4152 C91.4542,57.4152 91.9022,57.8622 91.9022,58.4152 L91.9022,74.4632 C91.9022,75.0162 91.4542,75.4632 90.9022,75.4632 L90.9022,84.2702 C91.4542,84.2702 91.9022,84.7182 91.9022,85.2702 L91.9022,194.5552 C94.8162,192.8982 98.1442,191.8902 101.6912,191.7352 L101.6912,190.5822 C101.6912,190.1482 101.7802,189.7372 101.9212,189.3522 L101.9212,172.6042 L101.9212,150.1682 L101.9212,138.9502 L101.9212,52.4102 L101.9212,49.1712 C101.9212,43.7782 106.3092,39.3912 111.7022,39.3912 L267.2212,39.3912 C269.9072,39.3912 272.3432,40.4802 274.1122,42.2392 C274.1202,42.2462 274.1292,42.2482 274.1372,42.2552 C274.1442,42.2632 274.1462,42.2722 274.1532,42.2802 C275.9122,44.0492 277.0012,46.4852 277.0012,49.1712 L277.0012,204.6902 C277.0012,210.0832 272.6142,214.4712 267.2212,214.4712 L263.2292,214.4712 C263.2122,214.4722 263.1982,214.4802 263.1812,214.4802 L251.1612,214.4802 L183.0512,214.4802 L171.0312,214.4802 C171.0142,214.4802 171.0002,214.4722 170.9832,214.4712 L168.9602,214.4712 C169.1102,214.6062 169.2602,214.7432 169.3982,214.8932 C171.6872,217.3762 171.4332,220.8222 171.4212,220.9682 C171.3782,221.4912 170.9402,221.8862 170.4252,221.8862 C170.3982,221.8862 170.3712,221.8852 170.3432,221.8832 C169.7922,221.8382 169.3822,221.3552 169.4282,220.8052 C169.4292,220.7812 169.6122,218.0642 167.9162,216.2362 C166.8352,215.0712 165.1882,214.4802 163.0192,214.4802 C162.9592,214.4802 162.9072,214.4722 162.8492,214.4712 L149.3172,214.4712 C149.3452,214.7742 149.3642,215.0812 149.3642,215.3922 L149.3642,215.9432 C149.3642,219.5402 147.4722,222.6962 144.6362,224.4902 L245.9692,224.4902 L265.2692,224.4902 L278.0212,224.4902 C282.9832,224.4902 287.0212,220.4532 287.0212,215.4902 L287.0212,187.9782 C287.0212,187.4262 287.4692,186.9782 288.0212,186.9782 L288.0212,170.1652 C287.4692,170.1652 287.0212,169.7172 287.0212,169.1652"/>
      <path fill="#FFFFFF" d="M130.967 186.3073C134.392 186.3073 137.178 183.5203 137.178 180.0963L137.178 173.6043 124.755 173.6043 124.755 180.0963C124.755 183.5203 127.542 186.3073 130.967 186.3073M170.0315 205.6667L168.6275 205.6667C168.0755 205.6667 167.6275 205.2187 167.6275 204.6667L167.6275 201.8247C166.9465 201.9677 166.2605 202.0477 165.5785 202.0477 163.5565 202.0477 161.5705 201.4227 159.8435 200.2047 158.9675 199.5867 158.2275 198.8447 157.6085 198.0237L157.6085 206.6577C157.6185 206.8497 157.9485 212.3647 162.8805 212.4707L170.0315 212.4707 170.0315 205.6667zM245.5276 184.634C245.5276 184.082 245.9756 183.634 246.5276 183.634L250.9626 183.634 250.9626 123.504 249.4056 125.061C249.0156 125.451 248.3826 125.451 247.9916 125.061L245.4656 122.535C241.8596 124.814 237.9436 126.439 233.8046 127.373L233.8046 130.937C233.8046 131.489 233.3566 131.937 232.8046 131.937L220.7846 131.937 218.2356 131.937 217.2646 131.937C217.5126 131.944 217.7576 132.036 217.9466 132.225L223.9766 138.255C224.3666 138.645 224.3666 139.278 223.9766 139.669L222.7306 140.915C223.9406 142.893 224.8236 145.022 225.3656 147.264L227.1226 147.264C227.6746 147.264 228.1226 147.712 228.1226 148.264L228.1226 156.791C228.1226 157.343 227.6746 157.791 227.1226 157.791L225.3656 157.791C224.8236 160.033 223.9406 162.163 222.7306 164.141L223.9766 165.387C224.3666 165.778 224.3666 166.41 223.9766 166.801L217.9466 172.83C217.5566 173.221 216.9236 173.221 216.5326 172.83L215.2876 171.585C213.3086 172.795 211.1796 173.678 208.9376 174.22L208.9376 175.977C208.9376 176.529 208.4896 176.977 207.9376 176.977L199.4106 176.977C199.2746 176.977 199.1446 176.948 199.0266 176.899 198.8416 176.946 198.6506 176.977 198.4516 176.977L192.7386 176.977C191.4116 176.977 190.3316 175.897 190.3316 174.57L190.3316 173.08C190.0066 173.155 189.6536 173.084 189.4006 172.83L188.6536 172.084C188.2126 172.842 187.3846 173.297 186.5116 173.27L182.5516 173.141C181.9396 173.121 181.3626 172.871 180.9286 172.438L176.2876 167.796C175.3486 166.857 175.3486 165.331 176.2876 164.392 176.4456 164.234 176.4726 164.033 176.3806 163.877 175.3066 162.066 174.4986 160.117 173.9776 158.087 173.9326 157.913 173.7736 157.791 173.5896 157.791 172.2256 157.791 171.1466 156.712 171.1466 155.384L171.1466 149.672C171.1466 148.344 172.2256 147.264 173.5526 147.264 173.7736 147.264 173.9326 147.143 173.9776 146.968 174.4986 144.939 175.3066 142.99 176.3806 141.178 176.4726 141.022 176.4456 140.822 176.3166 140.692 175.3486 139.725 175.3496 138.198 176.2876 137.26L180.9356 132.612C181.3616 132.185 181.9276 131.936 182.5296 131.909L187.0976 131.704C187.8356 131.677 188.5176 131.963 188.9986 132.503 189.0166 132.522 189.0396 132.547 189.0586 132.568L189.4006 132.225C189.6536 131.972 190.0066 131.901 190.3316 131.976L190.3316 130.486C190.3316 129.159 191.4116 128.079 192.7386 128.079L198.4516 128.079C198.6506 128.079 198.8416 128.111 199.0276 128.156 199.1456 128.108 199.2746 128.079 199.4106 128.079L207.6196 128.079 207.6196 123.73C206.9876 123.384 206.3616 123.023 205.7466 122.639 205.6136 122.666 205.4836 122.704 205.3526 122.756L203.0476 125.061C202.7536 125.355 202.3226 125.427 201.9606 125.278 201.4856 125.497 200.9586 125.616 200.4066 125.605L193.6416 125.384C192.7746 125.356 191.9596 125.002 191.3466 124.389L183.4166 116.459C182.0896 115.132 182.0886 112.972 183.4156 111.645 183.9166 111.145 184.0056 110.449 183.6826 109.904 181.8826 106.864 180.5276 103.598 179.6536 100.196 179.4976 99.584 178.9426 99.157 178.3046 99.157 176.3666 99.157 174.8396 97.63 174.8396 95.753L174.8396 85.992C174.8396 84.184 176.2606 82.715 178.0426 82.608 178.0776 82.605 178.1076 82.588 178.1436 82.588L178.2436 82.588C178.9426 82.588 179.4976 82.161 179.6536 81.55 180.5276 78.147 181.8826 74.881 183.6826 71.841 184.0056 71.296 183.9166 70.6 183.4646 70.149 182.7946 69.478 182.4556 68.621 182.4336 67.765 182.4316 67.74 182.4196 67.719 182.4196 67.694 182.4196 67.668 182.4316 67.646 182.4336 67.621 182.4466 66.829 182.7396 66.053 183.2986 65.43L166.4226 65.43 166.4226 136.95C166.4226 138.605 165.0766 139.95 163.4226 139.95L157.6086 139.95 157.6086 149.169 163.4226 149.169C165.0766 149.169 166.4226 150.514 166.4226 152.169L166.4226 170.605C166.4226 172.259 165.0766 173.605 163.4226 173.605L161.6146 173.605 161.6146 178.025C161.6146 179.128 160.7176 180.025 159.6146 180.025L157.6086 180.025 157.6086 191.028C159.2196 192.562 161.1696 193.769 163.3816 194.507L167.6276 195.922 167.6276 193.448C167.6276 192.896 168.0756 192.448 168.6276 192.448L170.0316 192.448 170.0316 184.634C170.0316 184.082 170.4796 183.634 171.0316 183.634L183.0506 183.634 197.3816 183.634 234.5276 183.634C235.0796 183.634 235.5276 184.082 235.5276 184.634L245.5276 184.634z"/>
      <polygon fill="#FFFFFF" points="124.755 149.168 137.178 149.168 137.178 139.95 124.755 139.95"/>
      <path fill="#FFFFFF" d="M187.1877 133.7018L186.7287 133.7228C186.9457 133.8918 187.1567 134.0718 187.3617 134.2638L187.6427 133.9828C187.5977 133.9338 187.5467 133.8788 187.5057 133.8338 187.4257 133.7438 187.3107 133.6958 187.1877 133.7018M215.2868 133.4709L216.5328 132.2249C216.7218 132.0359 216.9678 131.9439 217.2148 131.9369L212.2848 131.9369C213.3178 132.3699 214.3208 132.8809 215.2868 133.4709M157.8117 193.8239C158.2397 195.7299 159.3447 197.4049 160.9967 198.5709 162.9587 199.9559 165.3397 200.3699 167.6277 199.7659L167.6277 198.0309 162.7487 196.4039C160.9387 195.8009 159.2807 194.9209 157.8117 193.8239M113.1946 139.9504L111.8986 139.9504C112.1556 140.1314 112.3356 140.4154 112.3356 140.7544L112.3356 149.1684 122.7556 149.1684 122.7556 139.9504 119.5486 139.9504C118.9966 139.9504 118.5486 139.5024 118.5486 138.9504L114.1946 138.9504C114.1946 139.5024 113.7466 139.9504 113.1946 139.9504M155.6081 180.0251L152.8081 180.0251C152.8491 183.2171 153.8611 186.2221 155.6081 188.7121L155.6081 180.0251z"/>
      <polygon fill="#FFFFFF" points="139.178 149.169 155.608 149.169 155.608 139.951 139.178 139.951"/>
      <path fill="#FFFFFF" d="M103.9216 139.9504L103.9216 149.1684 110.3356 149.1684 110.3356 140.7544C110.3356 140.4154 110.5136 140.1314 110.7716 139.9504L103.9216 139.9504zM148.9304 212.4709L157.9954 212.4709C156.3164 210.7489 155.6784 208.3029 155.6094 206.7009L155.6084 192.0449 155.6084 192.0319 155.6084 191.8579C152.6374 188.7309 150.8594 184.5429 150.8084 180.0249L149.5954 180.0249C148.4924 180.0249 147.5954 179.1279 147.5954 178.0249L147.5954 173.6049 139.1784 173.6049 139.1784 180.0959C139.1784 184.6239 135.4944 188.3069 130.9674 188.3069 126.4394 188.3069 122.7554 184.6239 122.7554 180.0959L122.7554 173.6049 112.3354 173.6049 112.3354 182.0819C112.3354 182.6339 111.8874 183.0819 111.3354 183.0819 110.7834 183.0819 110.3354 182.6339 110.3354 182.0819L110.3354 173.6049 103.9214 173.6049 103.9214 187.2529C104.3454 187.0769 104.8094 186.9769 105.2964 186.9769L118.8704 186.9769C120.8574 186.9769 122.4744 188.5949 122.4744 190.5819L122.4744 191.7349C131.3054 192.1219 138.7854 197.7779 141.8524 205.6289 145.2324 206.5319 147.9214 209.1359 148.9304 212.4709"/>
      <path fill="#F7F7F8" d="M111.7019 41.3908C107.4119 41.3908 103.9219 44.8808 103.9219 49.1708L103.9219 51.4108 163.4229 51.4108C165.0769 51.4108 166.4229 52.7558 166.4229 54.4108L166.4229 63.4298 185.2729 63.4298 191.3579 57.3448C191.9609 56.7418 192.7619 56.3888 193.6129 56.3508L201.4179 55.9998C202.4479 55.9488 203.4249 56.3658 204.1049 57.1278 204.4129 57.4738 204.8059 57.8978 205.2439 58.3288 205.6489 58.7268 206.0929 58.7578 206.4049 58.7098 206.7109 58.5268 207.0179 58.3478 207.3289 58.1738 207.4899 57.9718 207.6199 57.6968 207.6199 57.3148L207.6199 53.2118C207.6199 51.3348 209.1469 49.8078 211.0239 49.8078L218.2359 49.8078 220.7849 49.8078 232.8049 49.8078C233.3569 49.8078 233.8049 50.2558 233.8049 50.8078L233.8049 54.3718C237.9419 55.3068 241.8579 56.9308 245.4659 59.2098L247.9919 56.6838C248.3669 56.3088 249.0309 56.3088 249.4059 56.6838L253.8499 61.1288 271.9619 43.0158C270.6479 42.0008 269.0059 41.3908 267.2209 41.3908L111.7019 41.3908zM255.2639 62.5427L259.7079 66.9867C260.0979 67.3767 260.0979 68.0097 259.7079 68.4007L257.1819 70.9267C259.4609 74.5347 261.0859 78.4497 262.0209 82.5877L265.5849 82.5877C266.1369 82.5877 266.5849 83.0357 266.5849 83.5877L266.5849 98.1567C266.5849 98.7097 266.1369 99.1567 265.5849 99.1567L262.0209 99.1567C261.0859 103.2947 259.4609 107.2107 257.1819 110.8187L259.7079 113.3447C260.0979 113.7357 260.0979 114.3687 259.7079 114.7587L252.9629 121.5037 252.9629 183.6337 263.1809 183.6337C263.7329 183.6337 264.1809 184.0817 264.1809 184.6337L264.1809 212.4707 267.2209 212.4707C271.5119 212.4707 275.0019 208.9807 275.0019 204.6907L275.0019 49.1707C275.0019 47.3857 274.3909 45.7447 273.3759 44.4307L255.2639 62.5427z"/>
      <path fill="#F7F7F8" d="M200.0798,58.238 L200.2638,58.054 L199.8128,58.074 C199.9028,58.128 199.9918,58.181 200.0798,58.238"/>
      <path fill="#DCDDDE" d="M182.051,185.634 L172.031,185.634 L172.031,192.448 L176.641,192.448 C177.193,192.448 177.641,192.896 177.641,193.448 L177.641,204.667 C177.641,205.219 177.193,205.667 176.641,205.667 L172.031,205.667 L172.031,212.481 L182.051,212.481 L182.051,185.634 Z"/>
      <polygon fill="#FFFFFF" points="194.067 202.064 200.08 202.064 200.08 196.051 194.067 196.051"/>
      <polygon fill="#FFFFFF" points="209.693 202.064 215.706 202.064 215.706 196.051 209.693 196.051"/>
      <polygon fill="#FFFFFF" points="226.52 202.064 251.764 202.064 251.764 196.051 226.52 196.051"/>
      <polygon fill="#DCDDDE" points="169.628 203.667 175.641 203.667 175.641 194.449 169.628 194.449"/>
      <path fill="#DCDDDE" d="M185.4035 72.8605C183.7005 75.7365 182.4175 78.8275 181.5915 82.0465 181.5435 82.2345 181.4795 82.4155 181.4025 82.5885L185.4545 82.5885 189.0195 82.5885C189.9535 78.4495 191.5785 74.5335 193.8575 70.9265L191.6245 68.6935 184.8365 68.6935C185.9765 69.8395 186.1905 71.5305 185.4035 72.8605M205.5739 122.5349L205.3529 122.7559C205.4839 122.7039 205.6139 122.6659 205.7469 122.6389 205.6899 122.6029 205.6309 122.5709 205.5739 122.5349M176.8396 85.9919L176.8396 95.7529C176.8396 96.5269 177.4696 97.1569 178.2436 97.1569 178.7106 97.1569 179.1516 97.2539 179.5566 97.4139 179.7336 97.2589 179.9586 97.1569 180.2116 97.1569L184.4546 97.1569 184.4546 84.5879 178.3046 84.5879C177.4696 84.5879 176.8396 85.2179 176.8396 85.9919M238.9431 90.8727C238.9431 83.4707 232.9221 77.4497 225.5201 77.4497 225.3811 77.4497 225.2471 77.4657 225.1101 77.4697 229.7731 80.1257 232.9301 85.1337 232.9301 90.8727 232.9301 96.6117 229.7731 101.6197 225.1101 104.2747 225.2471 104.2797 225.3811 104.2957 225.5201 104.2957 232.9221 104.2957 238.9431 98.2747 238.9431 90.8727M209.6198 124.7531L209.6198 128.5331C209.6198 129.3071 210.2498 129.9371 211.0238 129.9371L217.2358 129.9371 217.2358 127.3731C214.5988 126.7781 212.0538 125.8991 209.6198 124.7531M181.5915 99.6984C182.4175 102.9174 183.7005 106.0084 185.4035 108.8844 186.1925 110.2164 185.9765 111.9124 184.8795 113.0104 184.8665 113.0224 184.8625 113.0384 184.8505 113.0524L191.6245 113.0524 193.8575 110.8184C191.5785 107.2114 189.9535 103.2954 189.0195 99.1564L185.4545 99.1564 181.4025 99.1564C181.4795 99.3294 181.5435 99.5104 181.5915 99.6984M193.7072 123.385L200.1692 123.596 191.6242 115.052 184.8372 115.052 192.7602 122.975C193.0132 123.228 193.3502 123.373 193.7072 123.385M193.7024 58.3488C193.3504 58.3648 193.0204 58.5098 192.7724 58.7588L184.8374 66.6938 191.6244 66.6938 200.0794 58.2378C199.9924 58.1808 199.9024 58.1278 199.8134 58.0748L193.7024 58.3488zM209.6198 53.2116L209.6198 56.9916C212.0538 55.8456 214.5988 54.9666 217.2358 54.3716L217.2358 51.8076 211.0238 51.8076C210.2498 51.8076 209.6198 52.4376 209.6198 53.2116"/>
      <path fill="#FFFFFF" d="M212.0964,90.8727 C212.0964,96.8797 216.0624,101.9767 221.5134,103.6847 C226.9644,101.9767 230.9304,96.8797 230.9304,90.8727 C230.9304,84.8657 226.9644,79.7687 221.5134,78.0607 C216.0624,79.7687 212.0964,84.8657 212.0964,90.8727"/>
      <path fill="#F7F7F8" d="M201.2824,90.8727 C201.2824,77.5077 212.1554,66.6347 225.5194,66.6347 C226.0724,66.6347 226.5194,67.0827 226.5194,67.6347 C226.5194,68.1867 226.0724,68.6347 225.5194,68.6347 C213.2584,68.6347 203.2824,78.6107 203.2824,90.8727 C203.2824,103.1347 213.2584,113.1097 225.5194,113.1097 C237.7814,113.1097 247.7574,103.1347 247.7574,90.8727 C247.7574,86.6527 246.5714,82.5477 244.3254,78.9997 C244.0314,78.5327 244.1694,77.9147 244.6364,77.6197 C245.1034,77.3237 245.7204,77.4637 246.0164,77.9307 C248.4634,81.7987 249.7574,86.2737 249.7574,90.8727 C249.7574,104.2367 238.8844,115.1097 225.5194,115.1097 C212.1554,115.1097 201.2824,104.2367 201.2824,90.8727 M240.8254,74.7407 C239.3954,73.3827 237.7914,72.2207 236.0594,71.2857 C235.5734,71.0237 235.3924,70.4167 235.6544,69.9317 C235.9164,69.4447 236.5224,69.2627 237.0094,69.5257 C238.8964,70.5437 240.6434,71.8107 242.2024,73.2897 C242.6034,73.6697 242.6194,74.3027 242.2394,74.7037 C242.0434,74.9107 241.7794,75.0157 241.5144,75.0157 C241.2664,75.0157 241.0194,74.9237 240.8254,74.7407 M210.0964,90.8727 C210.0964,82.3687 217.0154,75.4497 225.5194,75.4497 C234.0244,75.4497 240.9434,82.3687 240.9434,90.8727 C240.9434,99.3767 234.0244,106.2957 225.5194,106.2957 C217.0154,106.2957 210.0964,99.3767 210.0964,90.8727 M205.9904,61.3227 C205.5934,61.5847 205.0674,61.5317 204.7314,61.1957 L202.3404,58.8057 L193.4524,67.6937 L195.8434,70.0837 C196.1794,70.4207 196.2324,70.9467 195.9704,71.3437 C193.4474,75.1527 191.7104,79.3387 190.8074,83.7867 C190.7124,84.2527 190.3034,84.5877 189.8274,84.5877 L186.4544,84.5877 L186.4544,97.1567 L189.8274,97.1567 C190.3034,97.1567 190.7124,97.4917 190.8074,97.9577 C191.7104,102.4057 193.4474,106.5927 195.9704,110.4017 C196.2324,110.7987 196.1794,111.3257 195.8434,111.6617 L193.4524,114.0517 L202.3404,122.9397 L204.7314,120.5487 C205.0674,120.2137 205.5934,120.1597 205.9904,120.4227 C209.8004,122.9457 213.9864,124.6827 218.4344,125.5847 C218.9004,125.6797 219.2354,126.0897 219.2354,126.5647 L219.2354,129.9367 L220.7844,129.9367 L231.8044,129.9367 L231.8044,126.5647 C231.8044,126.0897 232.1394,125.6797 232.6054,125.5847 C237.0534,124.6827 241.2404,122.9447 245.0494,120.4227 C245.4454,120.1597 245.9724,120.2137 246.3084,120.5487 L248.6994,122.9397 L257.5864,114.0517 L255.1964,111.6617 C254.8594,111.3257 254.8064,110.7987 255.0694,110.4017 C257.5924,106.5917 259.3294,102.4047 260.2324,97.9577 C260.3274,97.4917 260.7374,97.1567 261.2124,97.1567 L264.5844,97.1567 L264.5844,84.5877 L261.2124,84.5877 C260.7374,84.5877 260.3274,84.2527 260.2324,83.7867 C259.3294,79.3397 257.5924,75.1527 255.0694,71.3437 C254.8064,70.9467 254.8594,70.4207 255.1964,70.0837 L257.5864,67.6937 L248.6994,58.8057 L246.3084,61.1957 C245.9724,61.5317 245.4464,61.5847 245.0494,61.3227 C241.2394,58.7997 237.0524,57.0627 232.6054,56.1597 C232.1394,56.0647 231.8044,55.6557 231.8044,55.1797 L231.8044,51.8077 L220.7844,51.8077 L219.2354,51.8077 L219.2354,55.1797 C219.2354,55.6557 218.9004,56.0647 218.4344,56.1597 C213.9874,57.0627 209.8014,58.7997 205.9904,61.3227"/>
      <path fill="#FFFFFF" d="M192.7385 174.9767L198.4105 174.9767 198.4105 174.2197C196.2695 173.7027 194.2345 172.8647 192.3315 171.7367L192.3315 174.5697C192.3315 174.7937 192.5145 174.9767 192.7385 174.9767M178.2068 165.0939L183.6648 165.0939 184.6168 164.1409C183.4068 162.1629 182.5238 160.0329 181.9818 157.7909L180.2248 157.7909C180.2188 157.7909 180.2148 157.7879 180.2088 157.7879 180.2038 157.7879 180.1988 157.7909 180.1938 157.7909L175.9748 157.7909C176.4488 159.5649 177.1598 161.2699 178.1008 162.8579 178.5128 163.5549 178.5358 164.3909 178.2068 165.0939M182.6174 171.1418L186.5764 171.2708C186.7154 171.2698 186.8704 171.1988 186.9384 171.0748 187.0124 170.9378 187.1004 170.7868 187.2004 170.6298L183.6644 167.0938 178.4134 167.0938 182.3424 171.0228C182.4154 171.0958 182.5134 171.1388 182.6174 171.1418M180.2248 147.2643L181.0258 147.2643 181.9818 147.2643C182.5238 145.0223 183.4068 142.8923 184.6168 140.9143L183.5968 139.8933C183.4908 139.9313 183.3798 139.9613 183.2618 139.9613L178.2158 139.9613C178.2098 139.9613 178.2048 139.9583 178.1988 139.9583 178.5348 140.6703 178.5118 141.5033 178.1008 142.1973 177.1598 143.7863 176.4488 145.4913 175.9738 147.2643L180.2248 147.2643zM182.6194 133.9069C182.5174 133.9109 182.4224 133.9539 182.3494 134.0259L178.4134 137.9619 183.2614 137.9619C183.3804 137.9619 183.4914 137.9909 183.5964 138.0299L187.3624 134.2629C187.1574 134.0719 186.9454 133.8919 186.7284 133.7219L182.6194 133.9069zM192.3318 130.486L192.3318 132.888C192.3318 133.05 192.2928 133.203 192.2618 133.359 194.1838 132.21 196.2428 131.36 198.4108 130.836L198.4108 130.079 192.7388 130.079C192.5148 130.079 192.3318 130.262 192.3318 130.486"/>
      <path fill="#F7F7F8" d="M214.4475,152.528 C214.4475,146.587 209.6145,141.754 203.6735,141.754 C203.0145,141.754 202.3715,141.822 201.7455,141.937 C205.9055,143.657 208.8415,147.754 208.8415,152.528 C208.8415,157.301 205.9055,161.399 201.7465,163.119 C202.3725,163.233 203.0145,163.301 203.6735,163.301 C209.6145,163.301 214.4475,158.468 214.4475,152.528"/>
      <path fill="#FFFFFF" d="M179.2248 155.7912L179.2248 149.2642 174.3428 149.2642C174.2468 149.2642 174.1608 149.2352 174.0738 149.2092 173.9158 149.2422 173.7548 149.2642 173.5888 149.2642 173.3288 149.2642 173.1458 149.4472 173.1458 149.6712L173.1458 155.3842C173.1458 155.6082 173.3288 155.7912 173.5528 155.7912 173.6418 155.7912 173.7278 155.8032 173.8138 155.8122 173.8498 155.8082 173.8818 155.7912 173.9198 155.7912L179.2248 155.7912zM206.841 152.528C206.841 147.664 203.15 143.65 198.423 143.129 195.132 144.975 192.9 148.493 192.9 152.528 192.9 156.562 195.132 160.081 198.424 161.927 203.151 161.406 206.841 157.391 206.841 152.528"/>
      <path fill="#DCDDDE" d="M190.9001 152.528C190.9001 145.485 196.6301 139.754 203.6731 139.754 210.7171 139.754 216.4471 145.485 216.4471 152.528 216.4471 159.571 210.7171 165.301 203.6731 165.301 196.6301 165.301 190.9001 159.571 190.9001 152.528L190.9001 152.528zM216.1341 135.452C215.7971 135.789 215.2731 135.841 214.8751 135.579 212.6901 134.132 210.2891 133.136 207.7381 132.618 207.2721 132.523 206.9371 132.113 206.9371 131.638L206.9371 130.079 200.4101 130.079 200.4101 131.638C200.4101 132.113 200.0751 132.523 199.6091 132.618 197.0591 133.136 194.6581 134.132 192.4731 135.579 192.0751 135.841 191.5501 135.789 191.2131 135.452L190.1081 134.346 185.4921 138.962 186.5981 140.068C186.9351 140.404 186.9871 140.93 186.7251 141.327 185.2771 143.512 184.2811 145.913 183.7641 148.463 183.6691 148.929 183.2591 149.264 182.7841 149.264L181.2251 149.264 181.2251 155.791 182.7841 155.791C183.2591 155.791 183.6691 156.126 183.7641 156.592 184.2811 159.143 185.2771 161.544 186.7251 163.729 186.9871 164.125 186.9351 164.652 186.5981 164.988L185.4921 166.094 190.1081 170.709 191.2131 169.603C191.5501 169.267 192.0771 169.213 192.4731 169.477 194.6581 170.924 197.0591 171.92 199.6091 172.438 200.0751 172.532 200.4101 172.942 200.4101 173.418L200.4101 174.977 206.9371 174.977 206.9371 173.418C206.9371 172.942 207.2721 172.532 207.7381 172.438 210.2891 171.92 212.6901 170.924 214.8751 169.477 215.2711 169.213 215.7971 169.267 216.1341 169.603L217.2401 170.709 221.8551 166.094 220.7491 164.988C220.4131 164.652 220.3601 164.125 220.6221 163.729 222.0691 161.544 223.0661 159.143 223.5841 156.592 223.6781 156.126 224.0881 155.791 224.5641 155.791L226.1221 155.791 226.1221 149.264 224.5641 149.264C224.0881 149.264 223.6781 148.929 223.5841 148.464 223.0661 145.913 222.0691 143.512 220.6221 141.327 220.3601 140.93 220.4131 140.403 220.7491 140.068L221.8551 138.962 217.2401 134.346 216.1341 135.452zM109.9343 60.423C109.9343 59.871 110.3823 59.423 110.9343 59.423L139.3613 59.423C139.9133 59.423 140.3613 59.871 140.3613 60.423L147.5953 60.423C147.5953 59.871 148.0423 59.423 148.5953 59.423L157.4093 59.423C157.9613 59.423 158.4093 59.871 158.4093 60.423L158.4093 130.937C158.4093 131.489 157.9613 131.937 157.4093 131.937L110.9343 131.937C110.3823 131.937 109.9343 131.489 109.9343 130.937L109.9343 60.423zM103.9213 137.95L113.1943 137.95C113.7473 137.95 114.1943 138.398 114.1943 138.95L118.5493 138.95C118.5493 138.398 118.9973 137.95 119.5493 137.95L163.4223 137.95C163.9743 137.95 164.4223 137.502 164.4223 136.95L164.4223 54.41C164.4223 53.859 163.9743 53.41 163.4223 53.41L103.9213 53.41 103.9213 137.95z"/>
      <path fill="#FFFFFF" d="M152.6018,89.8806 C152.6018,90.4326 152.1538,90.8806 151.6018,90.8806 L139.1788,90.8806 C138.6258,90.8806 138.1788,90.4326 138.1788,89.8806 L138.1788,86.2716 C138.1788,85.7186 138.6258,85.2716 139.1788,85.2716 L151.6018,85.2716 C152.1538,85.2716 152.6018,85.7186 152.6018,86.2716 L152.6018,89.8806 Z M142.1848,99.4956 C142.1848,100.0476 141.7368,100.4956 141.1848,100.4956 L134.3708,100.4956 C133.8188,100.4956 133.3708,100.0476 133.3708,99.4956 L133.3708,95.8866 C133.3708,95.3346 133.8188,94.8866 134.3708,94.8866 L141.1848,94.8866 C141.7368,94.8866 142.1848,95.3346 142.1848,95.8866 L142.1848,99.4956 Z M130.1648,99.4956 C130.1648,100.0476 129.7178,100.4956 129.1648,100.4956 L117.5428,100.4956 C116.9908,100.4956 116.5428,100.0476 116.5428,99.4956 L116.5428,95.8866 C116.5428,95.3346 116.9908,94.8866 117.5428,94.8866 L129.1648,94.8866 C129.7178,94.8866 130.1648,95.3346 130.1648,95.8866 L130.1648,99.4956 Z M135.7748,76.6556 C135.7748,76.1036 136.2228,75.6556 136.7748,75.6556 L145.1918,75.6556 C145.7438,75.6556 146.1918,76.1036 146.1918,76.6556 L146.1918,80.2646 C146.1918,80.8176 145.7438,81.2646 145.1918,81.2646 L136.7748,81.2646 C136.2228,81.2646 135.7748,80.8176 135.7748,80.2646 L135.7748,76.6556 Z M117.5428,71.6496 C116.9908,71.6496 116.5428,71.2016 116.5428,70.6496 L116.5428,67.0406 C116.5428,66.4876 116.9908,66.0406 117.5428,66.0406 L140.3838,66.0406 C140.9358,66.0406 141.3838,66.4876 141.3838,67.0406 L141.3838,70.6496 C141.3838,71.2016 140.9358,71.6496 140.3838,71.6496 L117.5428,71.6496 Z M127.7618,86.2716 C127.7618,85.7186 128.2088,85.2716 128.7618,85.2716 L133.9738,85.2716 C134.5258,85.2716 134.9738,85.7186 134.9738,86.2716 L134.9738,89.8806 C134.9738,90.4326 134.5258,90.8806 133.9738,90.8806 L128.7618,90.8806 C128.2088,90.8806 127.7618,90.4326 127.7618,89.8806 L127.7618,86.2716 Z M124.5568,86.2716 L124.5568,89.8806 C124.5568,90.4326 124.1088,90.8806 123.5568,90.8806 L117.5428,90.8806 C116.9908,90.8806 116.5428,90.4326 116.5428,89.8806 L116.5428,86.2716 C116.5428,85.7186 116.9908,85.2716 117.5428,85.2716 L123.5568,85.2716 C124.1088,85.2716 124.5568,85.7186 124.5568,86.2716 L124.5568,86.2716 Z M117.5428,81.2646 C116.9908,81.2646 116.5428,80.8176 116.5428,80.2646 L116.5428,76.6556 C116.5428,76.1036 116.9908,75.6556 117.5428,75.6556 L131.5698,75.6556 C132.1218,75.6556 132.5698,76.1036 132.5698,76.6556 L132.5698,80.2646 C132.5698,80.8176 132.1218,81.2646 131.5698,81.2646 L117.5428,81.2646 Z M139.3608,61.4226 L111.9348,61.4226 L111.9348,129.9376 L156.4098,129.9376 L156.4098,61.4226 L148.5948,61.4226 C148.0428,61.4226 147.5948,60.9756 147.5948,60.4226 L140.3608,60.4226 C140.3608,60.9756 139.9138,61.4226 139.3608,61.4226 L139.3608,61.4226 Z"/>
      <polygon fill="#FFFFFF" points="159.616 178.025 159.616 173.605 149.595 173.605 149.595 178.025"/>
      <path fill="#DCDDDE" d="M143.1394 171.6047C143.1244 171.5367 143.0984 171.4737 143.0984 171.4007L143.0984 151.1687 124.7554 151.1687 124.7554 171.6047 137.1784 171.6047 137.1784 158.3877C137.1784 157.8347 137.6264 157.3877 138.1784 157.3877 138.7304 157.3877 139.1784 157.8347 139.1784 158.3877L139.1784 171.6047 143.1394 171.6047zM163.4226 151.1686L145.0986 151.1686 145.0986 165.9956 164.2206 165.9956C164.2926 165.9956 164.3556 166.0226 164.4226 166.0366L164.4226 152.1686C164.4226 151.6176 163.9736 151.1686 163.4226 151.1686"/>
      <polygon fill="#DCDDDE" points="103.922 171.605 122.755 171.605 122.755 151.169 103.922 151.169"/>
      <path fill="#DCDDDE" d="M163.4226 171.6047C163.9736 171.6047 164.4226 171.1557 164.4226 170.6047L164.4226 167.9547C164.3556 167.9697 164.2926 167.9957 164.2206 167.9957L145.0986 167.9957 145.0986 171.4007C145.0986 171.4737 145.0716 171.5367 145.0576 171.6047L163.4226 171.6047zM281.9904 259.7702C282.1054 259.4162 282.0744 259.0362 281.9044 258.7002 281.7324 258.3652 281.4434 258.1162 281.0894 258.0012L272.8954 255.3392 272.0284 258.0092 280.2214 260.6712C280.5754 260.7872 280.9554 260.7552 281.2914 260.5842 281.6274 260.4142 281.8754 260.1242 281.9904 259.7702M271.7976 252.2458C272.0366 251.5098 271.6326 250.7158 270.8966 250.4768 270.7526 250.4298 270.6066 250.4078 270.4636 250.4078 269.8716 250.4078 269.3196 250.7858 269.1276 251.3778L266.6516 258.9988C266.4116 259.7348 266.8166 260.5288 267.5526 260.7678 268.2876 261.0068 269.0826 260.6028 269.3216 259.8668L271.7976 252.2458zM327.8 246.6896L326.526 244.1886 318.849 248.0996 318.849 248.0996C318.517 248.2686 318.271 248.5596 318.154 248.9176 318.038 249.2756 318.067 249.6556 318.236 249.9876 318.405 250.3196 318.696 250.5656 319.054 250.6826 319.411 250.7986 319.792 250.7716 320.124 250.6016L327.8 246.6896zM329.6277 239.6867L329.6277 239.6867C329.4587 239.3547 329.1687 239.1077 328.8097 238.9917 328.6657 238.9447 328.5177 238.9207 328.3697 238.9207 328.1527 238.9207 327.9377 238.9717 327.7397 239.0727 327.0497 239.4247 326.7747 240.2717 327.1267 240.9617L330.7647 248.1007C330.9337 248.4327 331.2237 248.6797 331.5827 248.7957 331.9407 248.9117 332.3197 248.8827 332.6517 248.7147 332.9837 248.5447 333.2307 248.2547 333.3477 247.8957 333.4637 247.5377 333.4347 247.1577 333.2657 246.8267L329.6277 239.6867zM141.3835 70.6491L141.3835 67.0401C141.3835 66.4881 140.9355 66.0401 140.3835 66.0401L117.5435 66.0401C116.9905 66.0401 116.5435 66.4881 116.5435 67.0401L116.5435 70.6491C116.5435 71.2011 116.9905 71.6491 117.5435 71.6491L140.3835 71.6491C140.9355 71.6491 141.3835 71.2011 141.3835 70.6491M132.5695 80.2648L132.5695 76.6558C132.5695 76.1028 132.1215 75.6558 131.5695 75.6558L117.5435 75.6558C116.9905 75.6558 116.5435 76.1028 116.5435 76.6558L116.5435 80.2648C116.5435 80.8168 116.9905 81.2648 117.5435 81.2648L131.5695 81.2648C132.1215 81.2648 132.5695 80.8168 132.5695 80.2648M136.7746 81.2648L145.1916 81.2648C145.7436 81.2648 146.1916 80.8168 146.1916 80.2648L146.1916 76.6558C146.1916 76.1028 145.7436 75.6558 145.1916 75.6558L136.7746 75.6558C136.2226 75.6558 135.7746 76.1028 135.7746 76.6558L135.7746 80.2648C135.7746 80.8168 136.2226 81.2648 136.7746 81.2648M117.5432 85.2712C116.9912 85.2712 116.5432 85.7192 116.5432 86.2712L116.5432 89.8802C116.5432 90.4332 116.9912 90.8802 117.5432 90.8802L123.5562 90.8802C124.1082 90.8802 124.5562 90.4332 124.5562 89.8802L124.5562 86.2712C124.5562 85.7192 124.1082 85.2712 123.5562 85.2712L117.5432 85.2712zM128.7614 90.8806L133.9734 90.8806C134.5254 90.8806 134.9734 90.4326 134.9734 89.8806L134.9734 86.2716C134.9734 85.7186 134.5254 85.2716 133.9734 85.2716L128.7614 85.2716C128.2094 85.2716 127.7614 85.7186 127.7614 86.2716L127.7614 89.8806C127.7614 90.4326 128.2094 90.8806 128.7614 90.8806M151.6018 85.2712L139.1788 85.2712C138.6258 85.2712 138.1788 85.7192 138.1788 86.2712L138.1788 89.8802C138.1788 90.4332 138.6258 90.8802 139.1788 90.8802L151.6018 90.8802C152.1538 90.8802 152.6018 90.4332 152.6018 89.8802L152.6018 86.2712C152.6018 85.7192 152.1538 85.2712 151.6018 85.2712M129.1653 94.8869L117.5433 94.8869C116.9913 94.8869 116.5433 95.3349 116.5433 95.8869L116.5433 99.4959C116.5433 100.0479 116.9913 100.4959 117.5433 100.4959L129.1653 100.4959C129.7173 100.4959 130.1653 100.0479 130.1653 99.4959L130.1653 95.8869C130.1653 95.3349 129.7173 94.8869 129.1653 94.8869M141.1848 94.8869L134.3708 94.8869C133.8188 94.8869 133.3708 95.3349 133.3708 95.8869L133.3708 99.4959C133.3708 100.0479 133.8188 100.4959 134.3708 100.4959L141.1848 100.4959C141.7368 100.4959 142.1848 100.0479 142.1848 99.4959L142.1848 95.8869C142.1848 95.3349 141.7368 94.8869 141.1848 94.8869"/>
      <path fill="#F7F7F8" d="M120.4748 191.7106L120.4748 190.5826C120.4748 189.6976 119.7548 188.9776 118.8708 188.9776L105.2958 188.9776C104.4118 188.9776 103.6908 189.6976 103.6908 190.5826L103.6908 191.7106 120.4748 191.7106zM147.5847 218.3806L148.0847 216.7136C149.3367 216.6836 149.6327 214.9896 148.1947 214.1136 147.5987 213.7516 147.7177 212.5196 147.5017 211.8806 147.0017 210.4026 145.3787 209.0556 144.2517 208.0276 143.8917 207.7846 143.0347 208.2116 142.6367 208.0276 143.0977 209.7916 143.3447 211.6406 143.3447 213.5476L143.3447 221.9636C143.3447 222.2956 143.3347 222.6246 143.3197 222.9536 143.4747 222.8626 144.1037 223.3996 144.2517 223.2996 146.0807 221.6326 147.5847 221.0496 147.5847 218.3806M76.6457 215.3923L76.6457 215.9433C76.6457 218.6133 78.4227 221.6453 80.2517 223.3123 80.3197 223.3583 80.7717 222.7593 80.8417 222.8033 80.8317 222.5243 80.8207 222.2453 80.8207 221.9633L80.8207 213.5473C80.8207 211.6883 81.0557 209.8843 81.4947 208.1613 81.1967 208.3123 80.1097 207.9753 79.8347 208.1613 78.0057 209.8283 76.6457 212.7233 76.6457 215.3923"/>
      <path fill="#DCDDDE" d="M82.8884 223.2995C83.5594 233.2935 91.6494 241.2635 101.6914 241.7505L101.6914 237.5325C92.9014 237.1295 85.5404 231.2995 82.8884 223.2995M141.2771 223.3C138.6251 231.3 131.2641 237.129 122.4751 237.533L122.4751 241.751C132.5171 241.263 140.6061 233.293 141.2771 223.3"/>
      <path fill="#F7F7F8" d="M122.0178,229.1901 L102.1488,229.1901 C94.4158,229.1901 88.1258,222.8991 88.1258,215.1681 L88.1258,213.0381 C88.1258,210.0521 89.0708,207.2881 90.6678,205.0111 C92.9308,206.2391 93.3338,203.1961 94.5978,202.0641 C96.8738,200.4671 99.1628,199.0151 102.1488,199.0151 C102.7008,199.0151 103.1488,199.4631 103.1488,200.0151 L106.3498,200.0151 C106.3498,199.4631 106.7968,199.0151 107.3498,199.0151 L112.0828,199.0151 C112.6358,199.0151 113.0828,199.4631 113.0828,200.0151 L121.0178,200.0151 C121.0178,199.4631 121.4658,199.0151 122.0178,199.0151 C125.0038,199.0151 127.1418,200.9501 129.4178,202.5471 C130.8248,203.4091 132.6358,203.6041 133.4978,205.0101 C135.0948,207.2871 136.0398,210.0521 136.0398,213.0381 L136.0398,215.1681 C136.0398,222.8991 129.7498,229.1901 122.0178,229.1901 M141.2768,223.3001 C141.3068,222.8561 141.3448,222.4141 141.3448,221.9631 L141.3448,213.5471 C141.3448,202.6091 132.4468,193.7111 121.5088,193.7111 L102.6578,193.7111 C91.7198,193.7111 82.8208,202.6091 82.8208,213.5471 L82.8208,221.9631 C82.8208,222.4141 82.8588,222.8561 82.8888,223.2991 C85.5398,231.2991 92.9018,237.1291 101.6908,237.5331 L101.6908,234.6671 C101.6908,233.3971 102.7238,232.3641 103.9938,232.3641 L120.1728,232.3641 C121.4418,232.3641 122.4748,233.3971 122.4748,234.6671 L122.4748,237.5331 C131.2638,237.1291 138.6248,231.2991 141.2768,223.3001"/>
      <path fill="#FFFFFF" d="M126.6658,217.779 L123.8788,214.8 L119.3688,220.789 C119.0998,221.146 118.6858,221.364 118.2388,221.384 C117.7928,221.404 117.3598,221.225 117.0598,220.894 L113.0098,216.434 L109.3518,220.844 C109.0648,221.19 108.6408,221.386 108.1978,221.386 C108.1368,221.386 108.0758,221.383 108.0158,221.376 C107.5078,221.313 107.0678,220.998 106.8458,220.537 L103.7538,214.114 L100.8378,220.508 C100.6158,220.998 100.1478,221.33 99.6128,221.38 C99.0818,221.436 98.5578,221.191 98.2478,220.751 L96.2918,217.977 L90.9018,217.977 C90.7438,217.977 90.5938,217.946 90.4508,217.901 C91.6938,223.216 96.4608,227.19 102.1488,227.19 L122.0178,227.19 C127.5788,227.19 132.2558,223.39 133.6238,218.255 L127.7618,218.255 C127.3468,218.255 126.9498,218.083 126.6658,217.779"/>
      <path fill="#FFFFFF" d="M102.1487,201.0153 C95.5197,201.0153 90.1257,206.4093 90.1257,213.0383 L90.1257,215.1673 C90.1257,215.1783 90.1277,215.1883 90.1277,215.1993 C90.3537,215.0613 90.6167,214.9773 90.9017,214.9773 L97.0697,214.9773 C97.5577,214.9773 98.0147,215.2143 98.2957,215.6133 L99.1927,216.8853 L102.3517,209.9563 C102.5927,209.4273 103.1187,209.0843 103.7007,209.0783 C104.2907,209.1083 104.8157,209.4043 105.0677,209.9283 L108.5357,217.1293 L111.8047,213.1883 C112.0817,212.8543 112.4907,212.6563 112.9247,212.6463 C113.3557,212.6463 113.7767,212.8163 114.0687,213.1383 L118.0627,217.5363 L122.5567,211.5693 C122.8237,211.2153 123.2327,210.9963 123.6757,210.9733 C124.1137,210.9583 124.5477,211.1223 124.8507,211.4473 L128.4127,215.2543 L134.0357,215.2543 C134.0357,215.2253 134.0407,215.1973 134.0407,215.1673 L134.0407,213.0383 C134.0407,206.4093 128.6477,201.0153 122.0177,201.0153 C121.4657,201.0153 121.0177,200.5673 121.0177,200.0153 L113.0837,200.0153 C113.0837,200.5673 112.6357,201.0153 112.0837,201.0153 L107.3497,201.0153 C106.7967,201.0153 106.3497,200.5673 106.3497,200.0153 L103.1487,200.0153 C103.1487,200.5673 102.7007,201.0153 102.1487,201.0153"/>
      <path fill="#F7F7F8" d="M120.4748,235.6677 C120.4748,235.5007 120.3388,235.3657 120.1728,235.3657 L103.9938,235.3657 C103.8268,235.3657 103.6908,235.5007 103.6908,235.6677 L103.6908,240.5847 L120.4748,240.5847 L120.4748,235.6677 Z"/>
      <polygon fill="#DCDDDE" points="103.691 241.8 120.475 241.8 120.475 239.584 103.691 239.584"/>
      <path fill="#F7F7F8" d="M375.4587,24.1247 L377.8627,24.1247 C380.6237,24.1247 382.8697,26.3707 382.8697,29.1317 C382.8697,31.8927 380.6237,34.1377 377.8627,34.1377 L375.4587,34.1377 C372.6977,34.1377 370.4527,31.8927 370.4527,29.1317 C370.4527,26.3707 372.6977,24.1247 375.4587,24.1247 L375.4587,24.1247 Z M357.1427,7.7327 C351.9467,7.7327 347.2257,9.7567 343.6857,13.0377 L348.0007,13.0377 C354.3057,13.0377 359.4357,18.1677 359.4357,24.4727 L359.4357,31.7777 C359.4357,38.0827 354.3057,43.2127 348.0007,43.2127 L339.8157,43.2127 C341.0097,45.3517 342.5827,47.2497 344.4507,48.8087 L359.3397,48.8087 C365.9087,48.8087 371.5747,45.0067 374.3007,39.4917 C368.8627,39.1647 364.5367,34.6497 364.5367,29.1317 C364.5367,25.6337 366.2797,22.3927 369.1997,20.4597 C369.6607,20.1547 370.2807,20.2807 370.5857,20.7417 C370.8907,21.2027 370.7647,21.8227 370.3037,22.1277 C367.9447,23.6887 366.5367,26.3077 366.5367,29.1317 C366.5367,33.7587 370.3007,37.5227 374.9277,37.5227 L378.3937,37.5227 C383.0207,37.5227 386.7857,33.7587 386.7857,29.1317 C386.7857,28.5977 387.2067,28.1707 387.7327,28.1427 C387.2717,23.7457 383.7797,20.2527 379.3827,19.7927 C379.3537,20.3187 378.9267,20.7397 378.3937,20.7397 L374.9277,20.7397 C374.3757,20.7397 373.9277,20.2917 373.9277,19.7397 C373.9277,19.1877 374.3757,18.7397 374.9277,18.7397 L376.0367,18.7397 L376.0367,15.4167 C376.0367,12.2307 375.1287,9.2657 373.5807,6.7327 L374.1927,6.7327 C374.1927,6.1807 374.6407,5.7327 375.1927,5.7327 C375.5177,5.7327 375.8407,5.7437 376.1627,5.7577 L376.1627,4.6037 C376.1627,3.7197 375.4417,2.9997 374.5577,2.9997 L360.9827,2.9997 C360.0987,2.9997 359.3787,3.7197 359.3787,4.6037 L359.3787,5.7327 L367.3957,5.7327 C367.9477,5.7327 368.3957,6.1807 368.3957,6.7327 C368.3957,7.2857 367.9477,7.7327 367.3957,7.7327 L357.1427,7.7327 Z"/>
      <path fill="#DCDDDE" d="M349.7404,25.4797 C351.4694,25.4797 352.8704,26.8817 352.8704,28.6097 C352.8704,30.3387 351.4694,31.7407 349.7404,31.7407 C348.0114,31.7407 346.6094,30.3387 346.6094,28.6097 C346.6094,26.8817 348.0114,25.4797 349.7404,25.4797 L349.7404,25.4797 Z M348.0004,41.2127 C353.2024,41.2127 357.4354,36.9797 357.4354,31.7777 L357.4354,24.4727 C357.4354,24.3747 357.4244,24.2787 357.4214,24.1807 C355.7464,20.6557 352.1634,18.2117 348.0004,18.2117 L339.6604,18.2117 C338.1614,21.0007 337.3064,24.1867 337.3064,27.5697 L337.3064,33.5817 C337.3064,36.2847 337.8534,38.8617 338.8374,41.2127 L348.0004,41.2127 Z"/>
      <path fill="#FFFFFF" d="M357.4211,24.1809 C357.2651,19.1139 353.1041,15.0379 348.0001,15.0379 L341.7821,15.0379 C340.9781,16.0219 340.2671,17.0839 339.6611,18.2119 L348.0001,18.2119 C352.1631,18.2119 355.7461,20.6559 357.4211,24.1809"/>
      <path fill="#F7F7F8" d="M349.7404,31.7409 C351.4694,31.7409 352.8704,30.3389 352.8704,28.6099 C352.8704,26.8819 351.4694,25.4799 349.7404,25.4799 C348.0114,25.4799 346.6094,26.8819 346.6094,28.6099 C346.6094,30.3389 348.0114,31.7409 349.7404,31.7409"/>
      <path fill="#DCDDDE" d="M376.0363,15.4162 L376.0363,18.7392 L378.3933,18.7392 C378.9463,18.7392 379.3933,19.1872 379.3933,19.7392 C379.3933,19.7582 379.3843,19.7742 379.3833,19.7922 C383.7793,20.2532 387.2723,23.7462 387.7323,28.1422 C387.7503,28.1412 387.7663,28.1312 387.7853,28.1312 C388.3373,28.1312 388.7853,28.5792 388.7853,29.1312 C388.7853,34.8612 384.1233,39.5232 378.3933,39.5232 L374.9283,39.5232 C374.7163,39.5232 374.5093,39.5042 374.3003,39.4912 C371.5753,45.0062 365.9083,48.8092 359.3403,48.8092 L344.4513,48.8092 C347.8933,51.6832 352.3183,53.4182 357.1423,53.4182 L375.1923,53.4182 C386.1303,53.4182 395.0293,44.5192 395.0293,33.5812 L395.0293,27.5692 C395.0293,16.6312 386.1303,7.7332 375.1923,7.7332 C374.6403,7.7332 374.1923,7.2852 374.1923,6.7332 L374.1923,6.7322 L373.5803,6.7322 C375.1283,9.2652 376.0363,12.2312 376.0363,15.4162"/>
      <path fill="#DCDDDE" d="M375.4587 32.1379L377.8627 32.1379C379.5207 32.1379 380.8697 30.7889 380.8697 29.1319 380.8697 27.4729 379.5207 26.1249 377.8627 26.1249L375.4587 26.1249C373.8007 26.1249 372.4527 27.4729 372.4527 29.1319 372.4527 30.7889 373.8007 32.1379 375.4587 32.1379M368.3059 103.0363C366.9219 103.0363 365.7959 104.1623 365.7959 105.5463 365.7959 106.9303 366.9219 108.0563 368.3059 108.0563 369.6899 108.0563 370.8159 106.9303 370.8159 105.5463 370.8159 104.1623 369.6899 103.0363 368.3059 103.0363M124.8508 211.447C124.5478 211.123 124.1138 210.959 123.6758 210.973 123.2328 210.997 122.8238 211.216 122.5568 211.569L118.0618 217.536 114.0688 213.138C113.7768 212.816 113.3548 212.646 112.9248 212.646 112.4908 212.656 112.0818 212.854 111.8048 213.188L108.5358 217.13 105.0678 209.928C104.8158 209.404 104.2908 209.108 103.7008 209.079 103.1188 209.085 102.5928 209.427 102.3518 209.957L99.1928 216.885 98.2958 215.613C98.0148 215.215 97.5578 214.977 97.0698 214.977L90.9018 214.977C90.6168 214.977 90.3538 215.061 90.1268 215.199 90.1298 216.129 90.2478 217.031 90.4508 217.901 90.5938 217.946 90.7438 217.977 90.9018 217.977L96.2918 217.977 98.2468 220.751C98.5578 221.191 99.0808 221.436 99.6128 221.38 100.1478 221.33 100.6158 220.998 100.8378 220.509L103.7538 214.114 106.8458 220.537C107.0678 220.998 107.5078 221.313 108.0158 221.376 108.0758 221.383 108.1368 221.386 108.1978 221.386 108.6408 221.386 109.0648 221.19 109.3518 220.844L113.0098 216.434 117.0598 220.894C117.3598 221.225 117.7928 221.404 118.2388 221.385 118.6848 221.364 119.0998 221.146 119.3688 220.789L123.8788 214.8 126.6658 217.779C126.9498 218.083 127.3468 218.255 127.7618 218.255L133.6238 218.255C133.8788 217.295 134.0278 216.292 134.0358 215.255L128.4128 215.255 124.8508 211.447z"/>
      <path fill="#B9BBBE" d="M90.9021 52.4108C90.3501 52.4108 89.9021 52.8588 89.9021 53.4108L89.9021 74.4638C89.9021 75.0158 90.3501 75.4638 90.9021 75.4638 91.4541 75.4638 91.9021 75.0158 91.9021 74.4638L91.9021 53.4108C91.9021 52.8588 91.4541 52.4108 90.9021 52.4108M229.5197 196.051L248.7637 196.051C250.4207 196.051 251.7637 197.394 251.7637 199.051L251.7637 199.064C251.7637 200.72 250.4207 202.064 248.7637 202.064L229.5197 202.064C227.8627 202.064 226.5197 200.72 226.5197 199.064L226.5197 199.051C226.5197 197.394 227.8627 196.051 229.5197 196.051M224.5197 197.051L224.5197 203.065C224.5197 204.722 225.8627 206.065 227.5197 206.065L250.7637 206.065C252.4207 206.065 253.7637 204.722 253.7637 203.065L253.7637 197.051C253.7637 195.394 252.4207 194.051 250.7637 194.051L227.5197 194.051C225.8627 194.051 224.5197 195.394 224.5197 197.051M197.0803 202.0637L197.0673 202.0637C195.4103 202.0637 194.0673 200.7207 194.0673 199.0637L194.0673 199.0507C194.0673 197.3947 195.4103 196.0507 197.0673 196.0507L197.0803 196.0507C198.7373 196.0507 200.0803 197.3947 200.0803 199.0507L200.0803 199.0637C200.0803 200.7207 198.7373 202.0637 197.0803 202.0637M199.0803 194.0507L195.0673 194.0507C193.4103 194.0507 192.0673 195.3947 192.0673 197.0507L192.0673 203.0647C192.0673 204.7217 193.4103 206.0647 195.0673 206.0647L199.0803 206.0647C200.7373 206.0647 202.0803 204.7217 202.0803 203.0647L202.0803 197.0507C202.0803 195.3947 200.7373 194.0507 199.0803 194.0507M212.7058 202.0637L212.6928 202.0637C211.0358 202.0637 209.6928 200.7207 209.6928 199.0637L209.6928 199.0507C209.6928 197.3947 211.0358 196.0507 212.6928 196.0507L212.7058 196.0507C214.3628 196.0507 215.7058 197.3947 215.7058 199.0507L215.7058 199.0637C215.7058 200.7207 214.3628 202.0637 212.7058 202.0637M214.7058 194.0507L210.6928 194.0507C209.0358 194.0507 207.6928 195.3947 207.6928 197.0507L207.6928 203.0647C207.6928 204.7217 209.0358 206.0647 210.6928 206.0647L214.7058 206.0647C216.3628 206.0647 217.7058 204.7217 217.7058 203.0647L217.7058 197.0507C217.7058 195.3947 216.3628 194.0507 214.7058 194.0507M225.5197 115.11C238.8847 115.11 249.7577 104.237 249.7577 90.873 249.7577 86.274 248.4637 81.798 246.0167 77.93 245.7207 77.464 245.1037 77.323 244.6367 77.62 244.1697 77.915 244.0307 78.533 244.3257 79 246.5707 82.547 247.7577 86.653 247.7577 90.873 247.7577 103.134 237.7817 113.11 225.5197 113.11 213.2577 113.11 203.2827 103.134 203.2827 90.873 203.2827 78.611 213.2577 68.635 225.5197 68.635 226.0717 68.635 226.5197 68.187 226.5197 67.635 226.5197 67.083 226.0717 66.635 225.5197 66.635 212.1557 66.635 201.2827 77.508 201.2827 90.873 201.2827 104.237 212.1557 115.11 225.5197 115.11M236.0598 71.2858C237.7908 72.2208 239.3948 73.3828 240.8258 74.7408 241.0188 74.9238 241.2668 75.0148 241.5148 75.0148 241.7788 75.0148 242.0428 74.9108 242.2398 74.7038 242.6198 74.3028 242.6028 73.6698 242.2028 73.2898 240.6438 71.8098 238.8958 70.5438 237.0088 69.5258 236.5228 69.2628 235.9158 69.4448 235.6548 69.9318 235.3928 70.4168 235.5738 71.0238 236.0598 71.2858"/>
      <path fill="#B9BBBE" d="M238.9431 90.8727C238.9431 98.2747 232.9221 104.2957 225.5201 104.2957 225.3811 104.2957 225.2471 104.2797 225.1101 104.2747 229.7731 101.6197 232.9301 96.6117 232.9301 90.8727 232.9301 85.1337 229.7731 80.1257 225.1101 77.4697 225.2471 77.4657 225.3811 77.4497 225.5201 77.4497 232.9221 77.4497 238.9431 83.4707 238.9431 90.8727M212.0961 90.8727C212.0961 88.6897 212.6201 86.6267 213.5491 84.8027 216.8321 78.3537 226.1941 78.3537 229.4781 84.8027 230.4061 86.6267 230.9301 88.6897 230.9301 90.8727 230.9301 93.0557 230.4061 95.1187 229.4781 96.9427 226.1941 103.3917 216.8321 103.3917 213.5491 96.9427 212.6201 95.1187 212.0961 93.0557 212.0961 90.8727M210.0961 90.8727C210.0961 99.3767 217.0151 106.2957 225.5201 106.2957 234.0241 106.2957 240.9431 99.3767 240.9431 90.8727 240.9431 82.3687 234.0241 75.4497 225.5201 75.4497 217.0151 75.4497 210.0961 82.3687 210.0961 90.8727M203.6736 163.3015C203.0146 163.3015 202.3726 163.2325 201.7466 163.1185 205.9056 161.3985 208.8406 157.3015 208.8406 152.5285 208.8406 147.7545 205.9046 143.6565 201.7456 141.9365 202.3716 141.8225 203.0146 141.7545 203.6736 141.7545 209.6146 141.7545 214.4476 146.5875 214.4476 152.5285 214.4476 158.4685 209.6146 163.3015 203.6736 163.3015M192.9006 152.5285C192.9006 150.3635 193.5426 148.3475 194.6466 146.6585 196.5376 143.7645 200.5506 142.9715 203.2576 145.1225 205.4396 146.8565 206.8406 149.5305 206.8406 152.5285 206.8406 155.5245 205.4396 158.1995 203.2576 159.9325 200.5506 162.0835 196.5386 161.2915 194.6466 158.3975 193.5426 156.7085 192.9006 154.6925 192.9006 152.5285M203.6736 139.7545C196.6306 139.7545 190.9006 145.4845 190.9006 152.5285 190.9006 159.5715 196.6306 165.3015 203.6736 165.3015 210.7166 165.3015 216.4476 159.5715 216.4476 152.5285 216.4476 145.4845 210.7166 139.7545 203.6736 139.7545M158.4094 130.9372L158.4094 60.4232C158.4094 59.8712 157.9614 59.4232 157.4094 59.4232L148.5954 59.4232C148.0424 59.4232 147.5954 59.8712 147.5954 60.4232 147.5954 60.9752 148.0424 61.4232 148.5954 61.4232L154.4094 61.4232C155.5134 61.4232 156.4094 62.3182 156.4094 63.4232L156.4094 125.9362C156.4094 127.0402 155.5134 127.9362 154.4094 127.9362L113.9344 127.9362C112.8294 127.9362 111.9344 127.0402 111.9344 125.9362L111.9344 63.4232C111.9344 62.3182 112.8294 61.4232 113.9344 61.4232L144.3654 61.4232C144.9174 61.4232 145.3654 60.9752 145.3654 60.4232 145.3654 59.8712 144.9174 59.4232 144.3654 59.4232L110.9344 59.4232C110.3824 59.4232 109.9344 59.8712 109.9344 60.4232L109.9344 130.9372C109.9344 131.4892 110.3824 131.9372 110.9344 131.9372L157.4094 131.9372C157.9614 131.9372 158.4094 131.4892 158.4094 130.9372M281.9904 259.7702C281.8754 260.1242 281.6274 260.4142 281.2914 260.5842 280.9554 260.7552 280.5754 260.7872 280.2214 260.6712L273.3634 258.4432C272.6254 258.2032 272.2214 257.4112 272.4614 256.6742 272.7014 255.9372 273.4924 255.5332 274.2304 255.7732L281.0894 258.0012C281.4434 258.1162 281.7324 258.3652 281.9044 258.7002 282.0744 259.0362 282.1054 259.4162 281.9904 259.7702M271.7974 252.2462L269.3214 259.8662C269.0824 260.6032 268.2874 261.0072 267.5524 260.7682 266.8164 260.5282 266.4114 259.7352 266.6514 258.9992L269.1274 251.3782C269.3194 250.7852 269.8714 250.4082 270.4634 250.4082 270.6064 250.4082 270.7524 250.4302 270.8964 250.4772 271.6324 250.7162 272.0364 251.5092 271.7974 252.2462M281.7074 256.0992L273.6994 252.8632C274.2794 251.0792 273.2994 249.1542 271.5144 248.5742 269.7324 247.9962 267.8054 248.9742 267.2244 250.7602L264.7484 258.3802C264.1684 260.1662 265.1494 262.0892 266.9344 262.6702 267.2824 262.7832 267.6364 262.8372 267.9844 262.8372 269.4184 262.8372 270.7564 261.9212 271.2234 260.4842L271.4094 259.9112 279.6034 262.5742C279.9514 262.6872 280.3054 262.7412 280.6534 262.7412 282.0884 262.7402 283.4254 261.8252 283.8924 260.3882 284.1734 259.5262 284.0994 258.6042 283.6854 257.7922 283.2724 256.9802 282.5694 256.3792 281.7074 256.0992M333.3474 247.8962C333.2304 248.2542 332.9844 248.5452 332.6524 248.7142 332.3204 248.8822 331.9404 248.9122 331.5824 248.7962 331.2234 248.6792 330.9334 248.4332 330.7644 248.1012L327.1264 240.9612C326.7744 240.2712 327.0504 239.4242 327.7404 239.0732 327.9374 238.9722 328.1524 238.9212 328.3694 238.9212 328.5174 238.9212 328.6654 238.9442 328.8094 238.9912 329.1684 239.1082 329.4584 239.3542 329.6274 239.6862L329.6274 239.6872 333.2654 246.8262C333.4344 247.1582 333.4644 247.5382 333.3474 247.8962L333.3474 247.8962zM320.1234 250.6012C319.7914 250.7712 319.4114 250.7982 319.0544 250.6832 318.6954 250.5662 318.4054 250.3192 318.2354 249.9872 318.0664 249.6562 318.0374 249.2752 318.1544 248.9172 318.2704 248.5592 318.5174 248.2692 318.8484 248.1002L318.8494 248.1002 325.2754 244.8252C325.9654 244.4742 326.8104 244.7482 327.1624 245.4382L327.1624 245.4392C327.5144 246.1292 327.2404 246.9752 326.5494 247.3272L320.1234 250.6012zM331.4104 238.7782C330.9984 237.9712 330.2944 237.3712 329.4284 237.0892 328.5604 236.8082 327.6394 236.8792 326.8314 237.2912 325.1594 238.1432 324.4924 240.1972 325.3444 241.8692L325.6174 242.4062 317.9414 246.3172C317.1334 246.7292 316.5334 247.4332 316.2524 248.2992 315.9704 249.1662 316.0424 250.0882 316.4534 250.8952 316.8654 251.7032 317.5694 252.3032 318.4354 252.5842 318.7844 252.6982 319.1404 252.7542 319.4954 252.7542 320.0244 252.7542 320.5484 252.6292 321.0324 252.3832L328.7084 248.4722 328.9824 249.0092C329.3934 249.8162 330.0974 250.4162 330.9644 250.6982 331.3124 250.8112 331.6694 250.8672 332.0244 250.8672 332.5534 250.8672 333.0764 250.7422 333.5594 250.4962 334.3684 250.0842 334.9684 249.3812 335.2494 248.5142 335.5314 247.6482 335.4594 246.7262 335.0484 245.9182L331.4104 238.7782zM395.0295 33.5812C395.0295 44.5372 386.1485 53.4182 375.1925 53.4182L357.1425 53.4182C352.3185 53.4182 347.8935 51.6832 344.4505 48.8092 343.0495 47.6392 341.8145 46.2792 340.7805 44.7692 340.3295 44.1112 340.8185 43.2122 341.6175 43.2122L348.0005 43.2122C354.3155 43.2122 359.4355 38.0922 359.4355 31.7772L359.4355 24.4732C359.4355 18.1572 354.3165 13.0382 348.0005 13.0382L346.5375 13.0382C345.5645 13.0382 345.1535 11.7722 345.9545 11.2202 349.1405 9.0262 352.9895 7.7332 357.1425 7.7332L367.3955 7.7332C367.9475 7.7332 368.3955 7.2852 368.3955 6.7332 368.3955 6.1812 367.9475 5.7332 367.3955 5.7332L359.3785 5.7332 359.3785 4.6042C359.3785 3.7182 360.0965 2.9992 360.9835 2.9992L374.5575 2.9992C375.4435 2.9992 376.1625 3.7182 376.1625 4.6042L376.1625 5.7572C375.8405 5.7432 375.5175 5.7332 375.1925 5.7332 374.6405 5.7332 374.1925 6.1812 374.1925 6.7322L374.1925 6.7332C374.1925 7.2852 374.6405 7.7332 375.1925 7.7332 386.1305 7.7332 395.0295 16.6312 395.0295 27.5692L395.0295 33.5812zM370.5705 77.6492C370.5705 78.8542 369.5905 79.8342 368.3855 79.8342 367.1805 79.8342 366.2005 78.8542 366.2005 77.6492 366.2005 76.4442 367.1805 75.4642 368.3855 75.4642 369.5905 75.4642 370.5705 76.4442 370.5705 77.6492L370.5705 77.6492zM371.7755 80.0962C372.1035 79.6422 372.7575 79.5802 373.2095 79.9112 375.6445 81.6932 379.4575 85.1372 380.5335 89.8332 381.2555 92.9852 380.6255 96.2642 378.6835 99.6042 378.2975 100.2692 377.3285 100.2692 376.9445 99.6022L374.6295 95.5932C374.4505 95.2842 374.1205 95.0932 373.7635 95.0932L362.8475 95.0932C362.4905 95.0932 362.1605 95.2842 361.9815 95.5932L359.6665 99.6022C359.2825 100.2692 358.3135 100.2692 357.9265 99.6042 355.9865 96.2642 355.3555 92.9852 356.0775 89.8332 357.1715 85.0612 361.0865 81.5852 363.5135 79.8302 363.9735 79.4972 364.6355 79.5692 364.9605 80.0352 365.7145 81.1212 366.9655 81.8342 368.3855 81.8342 369.7795 81.8342 371.0155 81.1472 371.7755 80.0962L371.7755 80.0962zM370.8765 113.9992L365.7345 113.9992C364.3055 113.9992 362.9845 113.2362 362.2705 111.9992L359.6995 107.5462C358.9855 106.3092 358.9855 104.7842 359.6995 103.5462L362.2705 99.0932C362.9845 97.8552 364.3055 97.0932 365.7345 97.0932L370.8765 97.0932C372.3055 97.0932 373.6265 97.8552 374.3415 99.0932L376.9115 103.5462C377.6265 104.7842 377.6255 106.3092 376.9115 107.5462L374.3415 111.9992C373.6265 113.2362 372.3055 113.9992 370.8765 113.9992L370.8765 113.9992zM337.3065 33.5812L337.3065 27.5692C337.3065 24.1862 338.1615 21.0012 339.6605 18.2112 339.9035 17.7612 340.1625 17.3202 340.4375 16.8912 341.1765 15.7382 342.4495 15.0382 343.8195 15.0382L348.0005 15.0382C353.1045 15.0382 357.2645 19.1142 357.4215 24.1812 357.4245 24.2782 357.4355 24.3742 357.4355 24.4732L357.4355 31.7772C357.4355 36.9882 353.2115 41.2122 348.0005 41.2122L341.7315 41.2122C339.9145 41.2122 338.2865 39.9982 337.8595 38.2312 337.4985 36.7402 337.3065 35.1832 337.3065 33.5812L337.3065 33.5812zM378.1625 5.9402L378.1625 4.6042C378.1625 2.6132 376.5485.9992 374.5575.9992L360.9835.9992C358.9925.9992 357.3785 2.6132 357.3785 4.6042L357.3785 5.7332 357.1425 5.7332C345.0825 5.7332 335.3065 15.5092 335.3065 27.5692L335.3065 33.5812C335.3065 45.6412 345.0835 55.4182 357.1435 55.4182L361.4195 55.4182C364.6705 55.4182 367.3055 58.0542 367.3055 61.3052L367.3055 73.4002C367.3055 73.4742 367.3325 73.5402 367.3485 73.6102 365.7705 74.0162 364.5545 75.3112 364.2725 76.9352 362.7625 77.8072 355.7885 82.1722 354.1315 89.3742 353.1335 93.7112 354.2765 98.1862 357.5275 102.6752 357.5935 102.7672 357.6855 102.8222 357.7725 102.8832L356.5245 105.0462C356.3455 105.3562 356.3455 105.7372 356.5245 106.0462L361.9815 115.4992C362.1605 115.8082 362.4905 115.9992 362.8475 115.9992L373.7635 115.9992C374.1205 115.9992 374.4505 115.8082 374.6295 115.4992L380.0875 106.0462C380.2655 105.7372 380.2655 105.3562 380.0875 105.0462L378.8385 102.8832C378.9255 102.8222 379.0175 102.7672 379.0835 102.6752 382.3355 98.1862 383.4775 93.7112 382.4805 89.3742 380.8835 82.4352 374.3345 78.1192 372.5085 77.0332 372.2515 75.3112 370.9565 73.9292 369.2725 73.5632 369.2825 73.5082 369.3055 73.4572 369.3055 73.4002L369.3055 61.3052C369.3055 58.0542 371.9415 55.4182 375.1925 55.4182 387.2525 55.4182 397.0295 45.6412 397.0295 33.5812L397.0295 27.5692C397.0295 16.5372 388.8025 7.3942 378.1625 5.9402L378.1625 5.9402z"/>
      <path fill="#B9BBBE" d="M387.7854 28.1315C387.7664 28.1315 387.7504 28.1415 387.7324 28.1425 387.2064 28.1715 386.7854 28.5975 386.7854 29.1315 386.7854 33.7585 383.0204 37.5235 378.3934 37.5235L374.9284 37.5235C370.3014 37.5235 366.5364 33.7585 366.5364 29.1315 366.5364 26.3075 367.9444 23.6885 370.3034 22.1275 370.7644 21.8225 370.8904 21.2025 370.5854 20.7415 370.2814 20.2805 369.6604 20.1545 369.2004 20.4595 366.2794 22.3925 364.5364 25.6335 364.5364 29.1315 364.5364 34.6495 368.8634 39.1645 374.3004 39.4915 374.5094 39.5045 374.7164 39.5235 374.9284 39.5235L378.3934 39.5235C384.1234 39.5235 388.7854 34.8615 388.7854 29.1315 388.7854 28.5795 388.3374 28.1315 387.7854 28.1315M374.9279 20.7394L378.3939 20.7394C378.9269 20.7394 379.3539 20.3184 379.3829 19.7924 379.3839 19.7744 379.3939 19.7584 379.3939 19.7394 379.3939 19.1874 378.9459 18.7394 378.3939 18.7394L376.0359 18.7394 374.9279 18.7394C374.3759 18.7394 373.9279 19.1874 373.9279 19.7394 373.9279 20.2914 374.3759 20.7394 374.9279 20.7394"/>
      <path fill="#B9BBBE" d="M375.4587 26.1247L377.8627 26.1247C379.5207 26.1247 380.8697 27.4737 380.8697 29.1317 380.8697 30.7897 379.5207 32.1377 377.8627 32.1377L375.4587 32.1377C373.8007 32.1377 372.4527 30.7897 372.4527 29.1317 372.4527 27.4737 373.8007 26.1247 375.4587 26.1247M375.4587 34.1377L377.8627 34.1377C380.6237 34.1377 382.8697 31.8927 382.8697 29.1317 382.8697 26.3707 380.6237 24.1247 377.8627 24.1247L375.4587 24.1247C372.6977 24.1247 370.4527 26.3707 370.4527 29.1317 370.4527 31.8927 372.6977 34.1377 375.4587 34.1377M368.3059 108.0563C366.9219 108.0563 365.7959 106.9303 365.7959 105.5463 365.7959 104.1623 366.9219 103.0363 368.3059 103.0363 369.6899 103.0363 370.8159 104.1623 370.8159 105.5463 370.8159 106.9303 369.6899 108.0563 368.3059 108.0563M368.3059 101.0363C365.8189 101.0363 363.7959 103.0593 363.7959 105.5463 363.7959 108.0333 365.8189 110.0563 368.3059 110.0563 370.7929 110.0563 372.8159 108.0333 372.8159 105.5463 372.8159 103.0593 370.7929 101.0363 368.3059 101.0363M107.3493 201.0153L119.0883 201.0153C119.6413 201.0153 120.0883 200.5673 120.0883 200.0153 120.0883 199.4633 119.6413 199.0153 119.0883 199.0153L107.3493 199.0153C106.7973 199.0153 106.3493 199.4633 106.3493 200.0153 106.3493 200.5673 106.7973 201.0153 107.3493 201.0153"/>
      <path fill="#B9BBBE" d="M130.0456 201.5578C127.7686 199.9608 125.0036 199.0158 122.0176 199.0158 121.4656 199.0158 121.0176 199.4628 121.0176 200.0158 121.0176 200.5678 121.4656 201.0158 122.0176 201.0158 128.6476 201.0158 134.0406 206.4088 134.0406 213.0378L134.0406 215.1678C134.0406 215.1968 134.0356 215.2248 134.0356 215.2548 134.0276 216.2918 133.8786 217.2948 133.6236 218.2548 132.2556 223.3908 127.5786 227.1898 122.0176 227.1898L102.1486 227.1898C96.4606 227.1898 91.6936 223.2158 90.4506 217.9008 90.2476 217.0308 90.1296 216.1288 90.1276 215.1988 90.1276 215.1878 90.1256 215.1778 90.1256 215.1678L90.1256 213.0378C90.1256 206.4088 95.5196 201.0158 102.1486 201.0158 102.7006 201.0158 103.1486 200.5678 103.1486 200.0158 103.1486 199.4628 102.7006 199.0158 102.1486 199.0158 99.1626 199.0158 96.3976 199.9608 94.1206 201.5578 92.7776 202.4988 91.6086 203.6688 90.6676 205.0108 89.0706 207.2878 88.1256 210.0528 88.1256 213.0378L88.1256 215.1678C88.1256 222.8998 94.4166 229.1898 102.1486 229.1898L122.0176 229.1898C129.7496 229.1898 136.0406 222.8998 136.0406 215.1678L136.0406 213.0378C136.0406 210.0528 135.0946 207.2868 133.4976 205.0108 132.5566 203.6678 131.3876 202.4998 130.0456 201.5578M40.6067 224.4904L38.7947 224.4904C38.2417 224.4904 37.7937 224.9384 37.7937 225.4904 37.7937 226.0424 38.2417 226.4904 38.7947 226.4904L40.6067 226.4904C41.1587 226.4904 41.6067 226.0424 41.6067 225.4904 41.6067 224.9384 41.1587 224.4904 40.6067 224.4904"/>
      <path fill="#B9BBBE" d="M143.3195,222.9533 C143.3345,222.6243 143.3445,222.2953 143.3445,221.9633 L143.3445,213.5473 C143.3445,211.6403 143.0975,209.7913 142.6365,208.0273 C143.0345,208.2113 143.4185,208.4183 143.7785,208.6613 C145.1445,209.5833 146.2075,210.9133 146.8115,212.4713 L147.3085,214.4713 C147.3425,214.7733 147.3645,215.0803 147.3645,215.3923 L147.3645,215.9433 C147.3645,218.7423 145.9405,221.2143 143.7785,222.6743 C143.6305,222.7743 143.4745,222.8633 143.3195,222.9533 L143.3195,222.9533 Z M141.8525,205.6293 C138.7855,197.7773 131.3045,192.1213 122.4745,191.7353 L122.4745,190.5823 C122.4745,188.5913 120.8605,186.9773 118.8695,186.9773 L105.2965,186.9773 C104.8095,186.9773 104.3455,187.0773 103.9215,187.2523 L103.9215,175.6043 C103.9215,174.5003 104.8175,173.6043 105.9215,173.6043 L106.3355,173.6043 C108.5445,173.6043 110.3355,175.3953 110.3355,177.6043 L110.3355,182.0813 C110.3355,182.6343 110.7825,183.0813 111.3355,183.0813 C111.8875,183.0813 112.3355,182.6343 112.3355,182.0813 L112.3355,177.6043 C112.3355,175.3953 114.1265,173.6043 116.3355,173.6043 L122.7555,173.6043 L122.7555,179.8053 C122.7555,184.1753 126.0445,187.9963 130.4045,188.2883 C135.1855,188.6083 139.1785,184.8093 139.1785,180.0963 L139.1785,173.6043 L145.7875,173.6043 C146.7855,173.6043 147.5955,174.4133 147.5955,175.4123 L147.5955,178.0253 C147.5955,179.1293 148.4905,180.0253 149.5955,180.0253 C150.2445,180.0253 150.8085,180.5123 150.8575,181.1603 C151.1675,185.2413 152.8875,188.9943 155.6085,191.8573 L155.6085,192.0323 L155.6085,192.0453 L155.6095,206.7013 C155.6785,208.3033 156.3165,210.7483 157.9955,212.4713 L148.9305,212.4713 C147.9215,209.1353 145.2325,206.5323 141.8525,205.6293 L141.8525,205.6293 Z M141.3445,221.9633 C141.3445,222.4143 141.3065,222.8563 141.2775,223.3003 C140.6065,233.2933 132.5165,241.2633 122.4745,241.7503 L122.4745,237.5333 L122.4745,234.6663 C122.4745,233.3973 121.4425,232.3643 120.1725,232.3643 L103.9935,232.3643 C102.7235,232.3643 101.6915,233.3973 101.6915,234.6663 L101.6915,237.5333 L101.6915,241.7503 C91.6495,241.2633 83.5595,233.2933 82.8885,223.2993 C82.8585,222.8553 82.8205,222.4143 82.8205,221.9633 L82.8205,213.5473 C82.8205,202.6093 91.7195,193.7103 102.6575,193.7103 L121.5085,193.7103 C132.4465,193.7103 141.3445,202.6093 141.3445,213.5473 L141.3445,221.9633 Z M120.4745,237.5813 L120.4745,241.7993 L103.6915,241.7993 L103.6915,237.5813 L103.6915,236.6683 C103.6915,236.5013 103.8265,236.3663 103.9935,236.3663 L120.1725,236.3663 C120.3395,236.3663 120.4745,236.5013 120.4745,236.6683 L120.4745,237.5813 Z M103.6915,190.5823 C103.6915,189.6973 104.4115,188.9773 105.2965,188.9773 L118.8705,188.9773 C119.7555,188.9773 120.4745,189.6973 120.4745,190.5823 L120.4745,191.7103 L103.6915,191.7103 L103.6915,190.5823 Z M103.9215,153.1683 C103.9215,152.0643 104.8175,151.1683 105.9215,151.1683 L122.7555,151.1683 L122.7555,169.6043 C122.7555,170.7093 121.8595,171.6043 120.7555,171.6043 L105.9215,171.6043 C104.8175,171.6043 103.9215,170.7093 103.9215,169.6043 L103.9215,153.1683 Z M103.9215,149.1683 L110.3355,149.1683 L110.3355,139.9503 L103.9215,139.9503 L103.9215,149.1683 Z M103.9215,57.4103 C103.9215,55.2013 105.7125,53.4103 107.9215,53.4103 L160.4225,53.4103 C162.6315,53.4103 164.4225,55.2013 164.4225,57.4103 L164.4225,133.9503 C164.4225,136.1593 162.6315,137.9503 160.4225,137.9503 L119.5495,137.9503 C118.9965,137.9503 118.5495,138.3983 118.5495,138.9503 C118.5495,139.5023 118.9965,139.9503 119.5495,139.9503 L120.7555,139.9503 C121.8595,139.9503 122.7555,140.8463 122.7555,141.9503 L122.7555,149.1683 L112.3355,149.1683 L112.3355,139.9503 L113.1945,139.9503 C113.7465,139.9503 114.1945,139.5023 114.1945,138.9503 C114.1945,138.3983 113.7465,137.9503 113.1945,137.9503 L107.9215,137.9503 C105.7125,137.9503 103.9215,136.1593 103.9215,133.9503 L103.9215,57.4103 Z M103.9215,49.1713 C103.9215,44.8743 107.4045,41.3913 111.7015,41.3913 L267.2205,41.3913 L267.2795,41.3913 C269.6065,41.3993 270.7655,44.2133 269.1195,45.8583 L255.7305,59.2473 C254.6925,60.2863 253.0075,60.2863 251.9685,59.2473 L249.4055,56.6843 C249.0175,56.2953 248.3805,56.2953 247.9915,56.6843 L245.4655,59.2103 C241.8585,56.9313 237.9425,55.3063 233.8045,54.3713 L233.8045,50.8073 C233.8045,50.2553 233.3565,49.8073 232.8045,49.8073 L220.7845,49.8073 L218.2355,49.8073 L211.0235,49.8073 C209.1435,49.8073 207.6195,51.3313 207.6195,53.2113 L207.6195,57.3153 C207.6195,57.6963 207.4895,57.9723 207.3285,58.1743 C207.0185,58.3483 206.7105,58.5273 206.4045,58.7093 C206.0925,58.7573 205.6485,58.7273 205.2435,58.3293 C204.8055,57.8983 204.4125,57.4743 204.1045,57.1283 C203.4245,56.3653 202.4475,55.9493 201.4185,56.0003 L193.6125,56.3503 C192.7635,56.3893 191.9595,56.7433 191.3585,57.3443 L185.8555,62.8473 C185.4825,63.2203 184.9765,63.4303 184.4485,63.4303 L170.4225,63.4303 C168.2135,63.4303 166.4225,61.6393 166.4225,59.4303 L166.4225,54.4103 C166.4225,52.7533 165.0795,51.4103 163.4225,51.4103 L103.9215,51.4103 L103.9215,49.1713 Z M275.0015,49.1133 L275.0015,49.1713 L275.0015,204.6903 C275.0015,208.9873 271.5185,212.4713 267.2205,212.4713 C265.5415,212.4713 264.1805,211.1093 264.1805,209.4313 L264.1805,184.6343 C264.1805,184.0813 263.7335,183.6343 263.1805,183.6343 L256.9625,183.6343 C254.7535,183.6343 252.9625,181.8433 252.9625,179.6343 L252.9625,121.5043 L259.7075,114.7593 C260.0975,114.3683 260.0975,113.7353 259.7075,113.3453 L257.1815,110.8183 C259.4615,107.2103 261.0865,103.2953 262.0205,99.1573 L265.5845,99.1573 C266.1365,99.1573 266.5845,98.7093 266.5845,98.1573 L266.5845,83.5883 C266.5845,83.0363 266.1365,82.5883 265.5845,82.5883 L262.0205,82.5883 C261.0865,78.4503 259.4615,74.5343 257.1815,70.9273 L259.7075,68.4003 C260.0985,68.0103 260.0975,67.3773 259.7075,66.9863 L257.1445,64.4233 C256.1055,63.3843 256.1055,61.7003 257.1445,60.6613 L270.4605,47.3463 C272.0975,45.7083 274.9845,46.7973 275.0015,49.1133 L275.0015,49.1133 Z M200.0795,58.2383 L191.6245,66.6933 L184.8375,66.6933 L192.7725,58.7583 C193.0205,58.5103 193.3505,58.3643 193.7025,58.3493 L199.8135,58.0743 L200.2635,58.0543 L200.0795,58.2383 Z M191.6245,115.0523 L200.1695,123.5963 L193.7075,123.3853 C193.3495,123.3733 193.0135,123.2273 192.7605,122.9743 L184.8375,115.0523 L191.6245,115.0523 Z M178.2435,97.1573 C177.4695,97.1573 176.8395,96.5273 176.8395,95.7533 L176.8395,85.9923 C176.8395,85.2183 177.4695,84.5883 178.3045,84.5883 L184.4545,84.5883 L184.4545,97.1573 L178.2435,97.1573 Z M185.4545,99.1573 L189.0195,99.1573 C189.9535,103.2953 191.5785,107.2113 193.8575,110.8183 L191.6245,113.0523 L184.8505,113.0523 C184.8625,113.0383 184.8665,113.0223 184.8795,113.0103 C185.9765,111.9123 186.1925,110.2163 185.4035,108.8843 C183.7005,106.0083 182.4175,102.9173 181.5915,99.6983 C181.5435,99.5103 181.4795,99.3293 181.4025,99.1573 L185.4545,99.1573 Z M211.0235,129.9373 C210.2495,129.9373 209.6195,129.3073 209.6195,128.5333 L209.6195,124.7533 C212.0535,125.8993 214.5985,126.7783 217.2355,127.3733 L217.2355,129.9373 L211.0235,129.9373 Z M192.2615,133.3583 C192.2925,133.2033 192.3315,133.0503 192.3315,132.8883 L192.3315,130.4863 C192.3315,130.2623 192.5145,130.0793 192.7385,130.0793 L198.4105,130.0793 L198.4105,130.8363 C196.2425,131.3593 194.1835,132.2103 192.2615,133.3583 L192.2615,133.3583 Z M183.6645,167.0943 L187.2005,170.6303 C187.1005,170.7863 187.0115,170.9373 186.9385,171.0743 C186.8705,171.1983 186.7155,171.2703 186.5765,171.2713 L182.6175,171.1413 C182.5135,171.1383 182.4155,171.0963 182.3425,171.0233 L178.4135,167.0943 L183.6645,167.0943 Z M179.2245,149.2643 L179.2245,155.7913 L173.9195,155.7913 C173.8815,155.7913 173.8505,155.8083 173.8145,155.8123 C173.7275,155.8033 173.6415,155.7913 173.5525,155.7913 C173.3285,155.7913 173.1465,155.6083 173.1465,155.3843 L173.1465,149.6713 C173.1465,149.4473 173.3285,149.2643 173.5895,149.2643 C173.7555,149.2643 173.9155,149.2423 174.0735,149.2093 C174.1605,149.2353 174.2475,149.2643 174.3425,149.2643 L179.2245,149.2643 Z M178.4135,137.9613 L182.3495,134.0253 C182.4225,133.9533 182.5175,133.9113 182.6195,133.9073 L186.7285,133.7223 L187.1875,133.7023 C187.3105,133.6953 187.4255,133.7443 187.5065,133.8333 C187.5465,133.8793 187.5975,133.9333 187.6425,133.9833 L187.3615,134.2633 L183.5965,138.0293 C183.4905,137.9913 183.3805,137.9613 183.2615,137.9613 L178.4135,137.9613 Z M178.1985,139.9583 C178.2045,139.9583 178.2095,139.9613 178.2155,139.9613 L183.2615,139.9613 C183.3805,139.9613 183.4905,139.9323 183.5965,139.8933 L184.6165,140.9143 C183.4065,142.8923 182.5235,145.0223 181.9815,147.2643 L181.0265,147.2643 L180.2245,147.2643 L175.9735,147.2643 C176.4485,145.4913 177.1595,143.7863 178.1005,142.1973 C178.5115,141.5033 178.5345,140.6703 178.1985,139.9583 L178.1985,139.9583 Z M178.1005,162.8583 C177.1595,161.2693 176.4485,159.5653 175.9745,157.7913 L180.1935,157.7913 C180.1985,157.7913 180.2035,157.7883 180.2095,157.7873 C180.2145,157.7883 180.2185,157.7913 180.2245,157.7913 L181.9815,157.7913 C182.5235,160.0333 183.4065,162.1623 184.6165,164.1413 L183.6645,165.0943 L178.2065,165.0943 C178.5355,164.3913 178.5125,163.5553 178.1005,162.8583 L178.1005,162.8583 Z M198.4105,174.2203 L198.4105,174.9763 L192.7385,174.9763 C192.5145,174.9763 192.3315,174.7943 192.3315,174.5693 L192.3315,171.7363 C194.2345,172.8643 196.2695,173.7033 198.4105,174.2203 L198.4105,174.2203 Z M220.6225,141.3273 C222.0695,143.5123 223.0655,145.9123 223.5835,148.4633 C223.6785,148.9293 224.0885,149.2643 224.5635,149.2643 L226.1225,149.2643 L226.1225,155.7913 L224.5635,155.7913 C224.0885,155.7913 223.6785,156.1263 223.5835,156.5923 C223.0655,159.1423 222.0695,161.5433 220.6225,163.7283 C220.3605,164.1253 220.4125,164.6523 220.7495,164.9883 L221.8555,166.0943 L217.2395,170.7093 L216.1335,169.6033 C215.7975,169.2673 215.2715,169.2133 214.8745,169.4763 C212.6895,170.9243 210.2885,171.9203 207.7385,172.4373 C207.2725,172.5323 206.9375,172.9423 206.9375,173.4173 L206.9375,174.9763 L200.4105,174.9763 L200.4105,173.4173 C200.4105,172.9423 200.0755,172.5323 199.6095,172.4373 C197.0585,171.9203 194.6575,170.9243 192.4725,169.4763 C192.0765,169.2133 191.5495,169.2673 191.2135,169.6033 L190.1075,170.7093 L185.4925,166.0943 L186.5985,164.9883 C186.9345,164.6513 186.9875,164.1253 186.7245,163.7283 C185.2775,161.5433 184.2815,159.1423 183.7635,156.5923 C183.6695,156.1263 183.2595,155.7913 182.7835,155.7913 L181.2245,155.7913 L181.2245,149.2643 L182.7835,149.2643 C183.2595,149.2643 183.6695,148.9293 183.7635,148.4633 C184.2815,145.9123 185.2775,143.5123 186.7245,141.3273 C186.9875,140.9303 186.9345,140.4043 186.5985,140.0673 L185.4925,138.9613 L190.1075,134.3463 L191.2135,135.4523 C191.5495,135.7893 192.0755,135.8413 192.4725,135.5793 C194.6575,134.1323 197.0595,133.1363 199.6095,132.6183 C200.0755,132.5233 200.4105,132.1133 200.4105,131.6383 L200.4105,130.0793 L206.9375,130.0793 L206.9375,131.6383 C206.9375,132.1133 207.2725,132.5233 207.7375,132.6183 C210.2885,133.1363 212.6895,134.1323 214.8745,135.5793 C215.2725,135.8413 215.7975,135.7893 216.1335,135.4523 L217.2395,134.3463 L221.8555,138.9613 L220.7495,140.0673 C220.4125,140.4033 220.3605,140.9303 220.6225,141.3273 L220.6225,141.3273 Z M209.6195,56.9923 L209.6195,53.2113 C209.6195,52.4373 210.2495,51.8073 211.0235,51.8073 L217.2355,51.8073 L217.2355,54.3713 C214.5985,54.9673 212.0535,55.8453 209.6195,56.9923 L209.6195,56.9923 Z M218.4225,56.1623 C218.8935,56.0663 219.2355,55.6613 219.2355,55.1803 L219.2355,53.3573 C219.2355,52.5013 219.9285,51.8073 220.7845,51.8073 L230.2555,51.8073 C231.1105,51.8073 231.8045,52.5013 231.8045,53.3573 L231.8045,55.1803 C231.8045,55.6613 232.1465,56.0663 232.6175,56.1623 C237.0555,57.0643 241.2345,58.7983 245.0385,61.3153 C245.4395,61.5813 245.9675,61.5363 246.3085,61.1963 L247.2845,60.2193 C248.0655,59.4383 249.3325,59.4383 250.1125,60.2193 L256.1725,66.2793 C256.9535,67.0603 256.9535,68.3273 256.1725,69.1073 L255.1955,70.0843 C254.8565,70.4243 254.8105,70.9533 255.0755,71.3533 C257.5935,75.1573 259.3275,79.3363 260.2305,83.7753 C260.3255,84.2463 260.7315,84.5883 261.2125,84.5883 L263.0355,84.5883 C263.8905,84.5883 264.5845,85.2813 264.5845,86.1373 L264.5845,95.6073 C264.5845,96.4633 263.8905,97.1573 263.0355,97.1573 L261.2125,97.1573 C260.7315,97.1573 260.3255,97.4983 260.2305,97.9703 C259.3275,102.4083 257.5935,106.5883 255.0755,110.3913 C254.8105,110.7923 254.8565,111.3213 255.1955,111.6613 L256.4905,112.9563 C257.0955,113.5613 257.0955,114.5423 256.4905,115.1473 L249.7945,121.8443 C249.1895,122.4493 248.2085,122.4493 247.6035,121.8443 L246.3085,120.5493 C245.9685,120.2093 245.4395,120.1633 245.0385,120.4293 C241.2365,122.9463 237.0565,124.6803 232.6175,125.5823 C232.1465,125.6783 231.8045,126.0843 231.8045,126.5653 L231.8045,129.9373 L220.7845,129.9373 C219.9285,129.9373 219.2355,129.2433 219.2355,128.3883 L219.2355,126.5653 C219.2355,126.0843 218.8935,125.6783 218.4225,125.5823 C213.9835,124.6803 209.8035,122.9463 206.0005,120.4293 C205.5995,120.1633 205.0705,120.2093 204.7315,120.5493 L203.4355,121.8443 C202.8305,122.4493 201.8495,122.4493 201.2445,121.8443 L194.5485,115.1473 C193.9435,114.5423 193.9435,113.5613 194.5485,112.9563 L195.8435,111.6613 C196.1835,111.3213 196.2285,110.7923 195.9635,110.3913 C193.4455,106.5883 191.7125,102.4093 190.8095,97.9703 C190.7145,97.4983 190.3085,97.1573 189.8275,97.1573 L188.0045,97.1573 C187.1485,97.1573 186.4545,96.4633 186.4545,95.6073 L186.4545,86.1373 C186.4545,85.2813 187.1485,84.5883 188.0045,84.5883 L189.8275,84.5883 C190.3085,84.5883 190.7145,84.2463 190.8095,83.7753 C191.7125,79.3353 193.4465,75.1563 195.9635,71.3533 C196.2285,70.9523 196.1835,70.4243 195.8435,70.0843 L194.5485,68.7883 C193.9435,68.1833 193.9435,67.2033 194.5485,66.5983 L201.2445,59.9013 C201.8495,59.2953 202.8305,59.2953 203.4365,59.9013 L204.7315,61.1963 C205.0705,61.5363 205.5995,61.5813 206.0015,61.3153 C209.8055,58.7983 213.9845,57.0643 218.4225,56.1623 L218.4225,56.1623 Z M184.8365,68.6933 L191.6245,68.6933 L193.8575,70.9273 C191.5785,74.5333 189.9535,78.4493 189.0195,82.5883 L185.4545,82.5883 L181.4025,82.5883 C181.4795,82.4153 181.5435,82.2343 181.5915,82.0463 C182.4175,78.8273 183.7005,75.7363 185.4035,72.8603 C186.1905,71.5313 185.9765,69.8393 184.8365,68.6933 L184.8365,68.6933 Z M262.1805,209.4803 C262.1805,211.1373 260.8375,212.4803 259.1805,212.4803 L250.1615,212.4803 L187.0505,212.4803 C185.3945,212.4803 184.0505,211.1373 184.0505,209.4803 L184.0505,188.6343 C184.0505,186.9773 185.3945,185.6343 187.0505,185.6343 L197.3815,185.6343 L239.5315,185.6343 C240.0835,185.6343 240.5315,185.1863 240.5315,184.6343 C240.5315,184.0813 240.0835,183.6343 239.5315,183.6343 L197.3815,183.6343 L183.0505,183.6343 L171.0315,183.6343 C170.4795,183.6343 170.0315,184.0813 170.0315,184.6343 L170.0315,191.0483 C170.0315,191.8213 169.4045,192.4483 168.6315,192.4483 L168.6275,192.4483 C168.0755,192.4483 167.6275,192.8963 167.6275,193.4483 L167.6275,194.3683 C167.6275,195.1323 166.8785,195.6723 166.1535,195.4303 L163.3815,194.5063 C161.1695,193.7693 159.2195,192.5613 157.6085,191.0273 L157.6085,181.2953 C157.6085,180.5933 158.1765,180.0253 158.8785,180.0253 L159.6145,180.0253 C160.7195,180.0253 161.6145,179.1293 161.6145,178.0253 L161.6145,175.4123 C161.6145,174.4133 162.4235,173.6043 163.4225,173.6043 C165.0795,173.6043 166.4225,172.2613 166.4225,170.6043 L166.4225,152.1683 C166.4225,150.5123 165.0795,149.1683 163.4225,149.1683 L159.6085,149.1683 C158.5035,149.1683 157.6085,148.2733 157.6085,147.1683 L157.6085,141.9503 C157.6085,140.8463 158.5035,139.9503 159.6085,139.9503 L163.4225,139.9503 C165.0795,139.9503 166.4225,138.6073 166.4225,136.9503 L166.4225,69.4303 C166.4225,67.2213 168.2135,65.4303 170.4225,65.4303 L180.3085,65.4303 C181.4985,65.4303 182.4545,66.4033 182.4345,67.5923 L182.4335,67.6203 C182.4315,67.6463 182.4195,67.6673 182.4195,67.6933 C182.4195,67.7193 182.4315,67.7403 182.4335,67.7653 C182.4565,68.6393 182.8085,69.5153 183.5085,70.1913 C183.9585,70.6263 183.9825,71.3333 183.6645,71.8713 C181.8735,74.9023 180.5245,78.1583 179.6535,81.5493 C179.4975,82.1613 178.9425,82.5883 178.2435,82.5883 L178.1435,82.5883 C178.1075,82.5883 178.0775,82.6043 178.0425,82.6083 C176.2605,82.7143 174.8395,84.1833 174.8395,85.9923 L174.8395,95.7533 C174.8395,97.6413 176.3855,99.1763 178.3415,99.1563 C178.9675,99.1503 179.4985,99.5903 179.6535,100.1963 C180.5275,103.5993 181.8825,106.8643 183.6825,109.9043 C183.9915,110.4253 183.9235,111.0843 183.4775,111.5783 C182.1945,113.0013 182.0615,115.1033 183.4165,116.4583 L191.3465,124.3893 C191.9575,124.9993 192.7775,125.3553 193.6415,125.3843 L200.4065,125.6053 C200.9585,125.6163 201.4865,125.4973 201.9605,125.2783 C202.3225,125.4273 202.7535,125.3543 203.0475,125.0603 L205.3525,122.7553 L205.5735,122.5353 C205.6315,122.5713 205.6895,122.6033 205.7465,122.6393 C206.3615,123.0233 206.9875,123.3843 207.6195,123.7293 L207.6195,128.0793 L199.4105,128.0793 C199.2745,128.0793 199.1455,128.1073 199.0275,128.1563 C198.8415,128.1103 198.6505,128.0793 198.4515,128.0793 L192.7385,128.0793 C191.4095,128.0793 190.3315,129.1573 190.3315,130.4863 L190.3315,131.9753 C190.0065,131.9003 189.6535,131.9723 189.4005,132.2253 L189.0585,132.5673 C189.0395,132.5473 189.0165,132.5223 188.9985,132.5023 C188.5175,131.9623 187.8355,131.6773 187.0975,131.7033 L182.5295,131.9093 C181.9295,131.9353 181.3605,132.1863 180.9355,132.6113 L176.2875,137.2603 C175.3515,138.1963 175.3485,139.7183 176.3095,140.6853 C176.4405,140.8173 176.4785,141.0113 176.3835,141.1713 C175.3085,142.9853 174.4985,144.9363 173.9775,146.9683 C173.9325,147.1423 173.7735,147.2643 173.5525,147.2643 C172.2255,147.2643 171.1465,148.3443 171.1465,149.6713 L171.1465,155.3843 C171.1465,156.7083 172.2205,157.7863 173.5795,157.7903 C173.7655,157.7913 173.9295,157.9013 173.9755,158.0813 C174.4965,160.1133 175.3055,162.0633 176.3805,163.8773 C176.4685,164.0283 176.4475,164.2193 176.3035,164.3753 C175.3915,165.3623 175.5615,167.0703 176.5115,168.0203 L180.9275,172.4363 C181.3595,172.8693 181.9405,173.1203 182.5515,173.1403 L186.5115,173.2703 C187.3845,173.2963 188.2125,172.8423 188.6535,172.0833 L189.4005,172.8303 C189.6535,173.0833 190.0065,173.1553 190.3315,173.0793 L190.3315,174.5693 C190.3315,175.8993 191.4095,176.9763 192.7385,176.9763 L198.4515,176.9763 C198.6505,176.9763 198.8415,176.9453 199.0265,176.8993 C199.1445,176.9483 199.2745,176.9763 199.4105,176.9763 L207.9375,176.9763 C208.4895,176.9763 208.9375,176.5293 208.9375,175.9763 L208.9375,174.2203 C211.1795,173.6783 213.3085,172.7943 215.2875,171.5843 L216.5325,172.8303 C216.9235,173.2213 217.5565,173.2213 217.9465,172.8303 L223.9765,166.8013 C224.3665,166.4113 224.3665,165.7773 223.9765,165.3873 L222.7305,164.1403 C223.9405,162.1623 224.8235,160.0333 225.3655,157.7913 L227.1225,157.7913 C227.6745,157.7913 228.1225,157.3433 228.1225,156.7913 L228.1225,148.2643 C228.1225,147.7123 227.6745,147.2643 227.1225,147.2643 L225.3655,147.2643 C224.8235,145.0223 223.9405,142.8923 222.7305,140.9143 L223.9765,139.6683 C224.3665,139.2783 224.3665,138.6453 223.9765,138.2543 L217.9465,132.2253 C217.7575,132.0363 217.5125,131.9433 217.2645,131.9373 L218.2355,131.9373 L220.7845,131.9373 L232.8045,131.9373 C233.3565,131.9373 233.8045,131.4893 233.8045,130.9373 L233.8045,127.3733 C237.9435,126.4383 241.8595,124.8143 245.4655,122.5353 L247.9915,125.0603 C248.3825,125.4513 249.0155,125.4513 249.4055,125.0603 L250.9625,123.5043 L250.9625,181.6343 C250.9625,182.7383 250.0675,183.6343 248.9625,183.6343 L244.5265,183.6343 C243.9735,183.6343 243.5265,184.0813 243.5265,184.6343 C243.5265,185.1863 243.9735,185.6343 244.5265,185.6343 L259.1805,185.6343 C260.8375,185.6343 262.1805,186.9773 262.1805,188.6343 L262.1805,209.4803 Z M182.0505,209.0733 C182.0505,210.9553 180.5255,212.4803 178.6435,212.4803 L175.4385,212.4803 C173.5565,212.4803 172.0315,210.9553 172.0315,209.0733 C172.0315,207.1923 173.5565,205.6663 175.4385,205.6663 L176.6405,205.6663 C177.1935,205.6663 177.6405,205.2193 177.6405,204.6663 L177.6405,193.4483 C177.6405,192.8963 177.1935,192.4483 176.6405,192.4483 L175.4385,192.4483 C173.5565,192.4483 172.0315,190.9233 172.0315,189.0413 L172.0315,189.0403 C172.0315,187.1593 173.5565,185.6343 175.4385,185.6343 L178.6435,185.6343 C180.5255,185.6343 182.0505,187.1593 182.0505,189.0403 L182.0505,209.0733 Z M169.6275,201.6663 L169.6275,196.4483 C169.6275,195.3443 170.5235,194.4483 171.6275,194.4483 L173.6405,194.4483 C174.7455,194.4483 175.6405,195.3443 175.6405,196.4483 L175.6405,201.6663 C175.6405,202.7713 174.7455,203.6663 173.6405,203.6663 L171.6275,203.6663 C170.5235,203.6663 169.6275,202.7713 169.6275,201.6663 L169.6275,201.6663 Z M157.8115,193.8243 C159.2805,194.9213 160.9385,195.8003 162.7485,196.4043 L166.8615,197.7753 C167.3195,197.9283 167.6275,198.3553 167.6275,198.8373 L167.6275,198.8433 C167.6275,199.4063 167.2095,199.8843 166.6525,199.9613 C164.6745,200.2333 162.6815,199.7603 160.9965,198.5703 C159.3445,197.4053 158.2395,195.7293 157.8115,193.8243 L157.8115,193.8243 Z M145.0985,169.7953 C145.0985,168.8013 145.9035,167.9953 146.8985,167.9953 L162.6225,167.9953 C163.6165,167.9953 164.4225,168.8013 164.4225,169.7953 L164.4225,169.8053 C164.4225,170.7983 163.6165,171.6043 162.6225,171.6043 L146.8985,171.6043 C145.9035,171.6043 145.0985,170.7983 145.0985,169.8053 L145.0985,169.7953 Z M163.4225,151.1683 C163.9745,151.1683 164.4225,151.6163 164.4225,152.1683 L164.4225,160.0173 C164.4225,163.3363 161.7335,166.0243 158.4145,166.0173 C156.0815,166.0133 153.4155,166.0083 151.0845,166.0043 C147.7745,165.9993 145.0985,163.3143 145.0985,160.0043 L145.0985,151.1683 L163.4225,151.1683 Z M139.1785,149.1683 L139.1785,141.9503 C139.1785,140.8463 140.0735,139.9503 141.1785,139.9503 L153.6085,139.9503 C154.7125,139.9503 155.6085,140.8463 155.6085,141.9503 L155.6085,147.1683 C155.6085,148.2733 154.7125,149.1683 153.6085,149.1683 L139.1785,149.1683 Z M124.7555,149.1683 L124.7555,141.9503 C124.7555,140.8463 125.6505,139.9503 126.7555,139.9503 L135.1785,139.9503 C136.2825,139.9503 137.1785,140.8463 137.1785,141.9503 L137.1785,149.1683 L124.7555,149.1683 Z M137.1785,175.6043 L137.1785,179.8793 C137.1785,183.0363 134.9155,185.8533 131.7845,186.2543 C127.9965,186.7413 124.7555,183.7893 124.7555,180.0963 L124.7555,175.6043 C124.7555,174.5003 125.6505,173.6043 126.7555,173.6043 L135.1785,173.6043 C136.2825,173.6043 137.1785,174.5003 137.1785,175.6043 L137.1785,175.6043 Z M138.1785,157.3873 C137.6265,157.3873 137.1785,157.8353 137.1785,158.3873 L137.1785,171.6043 L126.7555,171.6043 C125.6505,171.6043 124.7555,170.7093 124.7555,169.6043 L124.7555,151.1683 L143.0985,151.1683 L143.0985,171.4013 C143.0985,171.4733 143.1245,171.5363 143.1395,171.6043 L141.1785,171.6043 C140.0735,171.6043 139.1785,170.7093 139.1785,169.6043 L139.1785,158.3873 C139.1785,157.8353 138.7305,157.3873 138.1785,157.3873 L138.1785,157.3873 Z M155.6085,181.2953 L155.6085,188.7123 C154.1195,186.5903 153.1645,184.0953 152.8895,181.4283 C152.8125,180.6793 153.4055,180.0253 154.1595,180.0253 L154.3385,180.0253 C155.0395,180.0253 155.6085,180.5933 155.6085,181.2953 L155.6085,181.2953 Z M149.5955,175.8143 L149.5955,175.8143 C149.5955,174.5943 150.5845,173.6043 151.8055,173.6043 L157.4055,173.6043 C158.6265,173.6043 159.6155,174.5943 159.6165,175.8143 C159.6165,177.0353 158.6265,178.0253 157.4055,178.0253 L151.8055,178.0253 C150.5845,178.0253 149.5955,177.0353 149.5955,175.8143 L149.5955,175.8143 Z M170.0315,211.0713 C170.0315,211.8443 169.4045,212.4713 168.6315,212.4713 L162.8805,212.4713 C157.9485,212.3643 157.6185,206.8493 157.6085,206.6583 L157.6085,198.0243 C158.2275,198.8443 158.9665,199.5863 159.8425,200.2043 C161.5695,201.4233 163.5565,202.0483 165.5785,202.0483 C165.8465,202.0483 166.1155,202.0353 166.3835,202.0123 C167.0485,201.9533 167.6275,202.4533 167.6275,203.1213 L167.6275,204.6663 C167.6275,205.2193 168.0755,205.6663 168.6275,205.6663 L168.6315,205.6663 C169.4045,205.6663 170.0315,206.2933 170.0315,207.0663 L170.0315,211.0713 Z M80.8205,213.5473 L80.8205,221.9633 C80.8205,222.2453 80.8315,222.5243 80.8415,222.8033 C80.7725,222.7593 80.6985,222.7203 80.6295,222.6743 C78.4685,221.2143 77.0445,218.7423 77.0445,215.9433 L77.0445,215.3923 C77.0445,212.5933 78.4685,210.1213 80.6295,208.6613 C80.9045,208.4753 81.1965,208.3123 81.4945,208.1613 C81.0555,209.8843 80.8205,211.6883 80.8205,213.5473 L80.8205,213.5473 Z M74.5415,80.5813 L75.5445,80.5813 C76.6485,80.5813 77.5445,81.4773 77.5445,82.5813 L77.5445,84.5943 C77.5445,85.6993 76.6485,86.5943 75.5445,86.5943 L74.5415,86.5943 C72.8815,86.5943 71.5345,85.2483 71.5345,83.5883 C71.5345,81.9273 72.8815,80.5813 74.5415,80.5813 L74.5415,80.5813 Z M69.6265,86.5943 L68.9285,86.5943 C67.2705,86.5943 65.9225,85.2453 65.9225,83.5883 C65.9225,81.9303 67.2705,80.5813 68.9285,80.5813 L69.6265,80.5813 L69.6265,86.5943 Z M303.6045,224.4903 L297.5955,224.4903 C292.7355,224.4903 288.9715,220.4623 289.0205,215.6013 C289.0205,215.5643 289.0215,215.5273 289.0215,215.4903 L289.0215,178.9713 C289.0215,178.4183 288.5735,177.9713 288.0215,177.9713 C287.4685,177.9713 287.0215,178.4183 287.0215,178.9713 L287.0215,215.4903 C287.0215,220.4613 282.9915,224.4903 278.0215,224.4903 L265.2695,224.4903 L245.9685,224.4903 L144.6355,224.4903 C147.4715,222.6963 149.3645,219.5403 149.3645,215.9433 L149.3645,215.3923 C149.3645,215.0813 149.3455,214.7743 149.3175,214.4713 L162.8485,214.4713 C162.9075,214.4723 162.9595,214.4803 163.0185,214.4803 C165.1885,214.4803 166.8355,215.0713 167.9165,216.2363 C169.6125,218.0643 169.4295,220.7813 169.4275,220.8053 C169.3825,221.3553 169.7925,221.8383 170.3425,221.8833 C170.3705,221.8853 170.3985,221.8863 170.4255,221.8863 C170.9405,221.8863 171.3785,221.4913 171.4215,220.9683 C171.4335,220.8223 171.6865,217.3763 169.3985,214.8923 C169.2595,214.7433 169.1105,214.6063 168.9605,214.4713 L170.9835,214.4713 C171.0005,214.4723 171.0145,214.4803 171.0315,214.4803 L183.0505,214.4803 L251.1615,214.4803 L263.1805,214.4803 C263.1975,214.4803 263.2125,214.4723 263.2295,214.4713 L267.2205,214.4713 C272.6225,214.4713 277.0015,210.0923 277.0015,204.6903 L277.0015,49.1713 C277.0015,46.4853 275.9125,44.0493 274.1525,42.2803 C274.1465,42.2723 274.1445,42.2633 274.1365,42.2553 C274.1295,42.2483 274.1195,42.2463 274.1125,42.2393 C272.3425,40.4803 269.9065,39.3913 267.2205,39.3913 L111.7015,39.3913 C106.3005,39.3913 101.9215,43.7693 101.9215,49.1713 L101.9215,52.4103 L101.9215,138.9503 L101.9215,150.1683 L101.9215,172.6043 L101.9215,189.3513 C101.7805,189.7373 101.6915,190.1483 101.6915,190.5823 L101.6915,191.7353 C98.1435,191.8903 94.8165,192.8983 91.9025,194.5553 L91.9025,85.2703 C91.9025,84.7183 91.4545,84.2703 90.9025,84.2703 C90.3495,84.2703 89.9025,84.7183 89.9025,85.2703 L89.9025,195.8403 C86.4945,198.3013 83.8235,201.7193 82.2855,205.6983 C78.9005,206.7043 76.2495,209.4333 75.3635,212.8673 C75.1415,213.7263 74.4055,214.3513 73.5185,214.3513 L73.5165,214.3513 C72.4725,214.3513 71.6265,213.5053 71.6265,212.4613 L71.6265,92.5943 C71.6265,90.3853 73.4175,88.5943 75.6265,88.5943 L76.5445,88.5943 C78.2005,88.5943 79.5445,87.2513 79.5445,85.5943 L79.5445,81.5813 C79.5445,79.9253 78.2005,78.5813 76.5445,78.5813 L69.1515,78.5813 C66.5375,78.5813 64.1995,80.4873 63.9465,83.0883 C63.6555,86.0723 66.0025,88.5943 68.9285,88.5943 L69.6265,88.5943 L69.6265,215.3513 C69.6265,215.9033 70.0745,216.3513 70.6265,216.3513 L75.0645,216.3513 C75.2025,219.7773 77.0455,222.7653 79.7725,224.4903 L77.6465,224.4903 L68.8505,224.4903 C63.8795,224.4903 59.8505,220.4613 59.8505,215.4903 L59.8505,38.3713 C59.8505,33.4003 63.8795,29.3713 68.8505,29.3713 L89.9605,29.3713 C91.5615,29.3713 92.4795,31.1353 91.6185,32.4843 C90.5325,34.1863 89.9025,36.2053 89.9025,38.3713 L89.9025,48.0823 C89.9025,48.6343 90.3495,49.0823 90.9025,49.0823 C91.4545,49.0823 91.9025,48.6343 91.9025,48.0823 L91.9025,38.3713 C91.9025,33.4003 95.9315,29.3713 100.9025,29.3713 L245.9685,29.3713 L278.0215,29.3713 C282.9915,29.3713 287.0215,33.4003 287.0215,38.3713 L287.0215,169.1653 C287.0215,169.7173 287.4685,170.1653 288.0215,170.1653 C288.5735,170.1653 289.0215,169.7173 289.0215,169.1653 L289.0215,38.3713 C289.0215,32.2963 284.0965,27.3713 278.0215,27.3713 L245.9685,27.3713 L100.9025,27.3713 L68.8505,27.3713 C62.7755,27.3713 57.8505,32.2963 57.8505,38.3713 L57.8505,215.4903 L57.8505,215.6013 C57.8995,220.4623 54.1365,224.4903 49.2765,224.4903 L45.6045,224.4903 C45.0515,224.4903 44.6045,224.9383 44.6045,225.4903 C44.6045,226.0423 45.0515,226.4903 45.6045,226.4903 L68.8505,226.4903 L77.6465,226.4903 C79.7005,226.4903 81.5105,227.7823 82.2405,229.7023 C85.3705,237.9333 93.3405,243.7993 102.6575,243.7993 L121.5085,243.7993 C130.8245,243.7993 138.7955,237.9333 141.9255,229.7023 C142.6555,227.7823 144.4655,226.4903 146.5195,226.4903 L245.9685,226.4903 L265.2695,226.4903 L278.0215,226.4903 L303.6045,226.4903 C304.1565,226.4903 304.6045,226.0423 304.6045,225.4903 C304.6045,224.9383 304.1565,224.4903 303.6045,224.4903 L303.6045,224.4903 Z"/>
    </g>
    <rect width="438" height="270"/>
  </g>
</svg>
