<svg width="113" height="94" viewBox="0 0 113 94" fill="none" xmlns="http://www.w3.org/2000/svg">
<path d="M57.0068 93.337C80.8458 93.337 100.171 73.9313 100.171 49.9931C100.171 26.0549 80.8458 6.64919 57.0068 6.64919C33.1678 6.64919 13.8425 26.0549 13.8425 49.9931C13.8425 73.9313 33.1678 93.337 57.0068 93.337Z" fill="#718EF7"/>
<path d="M77.486 27.9173L69.5593 19.9576L64.6634 24.8739L72.5901 32.8336L77.486 27.9173Z" fill="#F7E080"/>
<path d="M77.49 27.9073L69.5632 19.9476L74.8798 19.5751L77.8609 22.5686L77.49 27.9073Z" fill="#F7E080"/>
<path d="M70.5113 10.029C71.3231 10.0324 72.1158 10.2765 72.7899 10.7306C73.4641 11.1847 73.9897 11.8286 74.3008 12.5816C74.6118 13.3345 74.6946 14.1629 74.5385 14.9629C74.3825 15.7629 73.9947 16.4988 73.4237 17.0782C72.6424 17.8092 71.6091 18.2072 70.5414 18.1883C69.4737 18.1694 68.4549 17.7351 67.6998 16.9768C66.9447 16.2186 66.5122 15.1956 66.4934 14.1235C66.4745 13.0513 66.8709 12.0137 67.5988 11.2291C68.3733 10.4579 69.4206 10.0263 70.5113 10.029V10.029ZM70.5113 4.78687C68.3503 4.78475 66.2555 5.53499 64.5836 6.9098C62.9116 8.2846 61.7661 10.1989 61.342 12.3267C60.918 14.4544 61.2417 16.664 62.2579 18.579C63.2742 20.494 64.9202 21.996 66.9155 22.8292C68.9109 23.6623 71.1321 23.775 73.201 23.1481C75.2698 22.5212 77.0582 21.1935 78.2615 19.3911C79.4648 17.5887 80.0087 15.4231 79.8004 13.2633C79.5921 11.1034 78.6445 9.08291 77.1192 7.54587C76.2533 6.67123 75.2237 5.97718 74.0896 5.50368C72.9556 5.03018 71.7394 4.78657 70.5113 4.78687V4.78687Z" fill="#F7E080"/>
<path d="M83.3011 22.8721C84.3937 22.8731 85.4413 23.3098 86.2135 24.0861C86.8873 24.7636 87.3064 25.6547 87.3992 26.6077C87.492 27.5607 87.2529 28.5165 86.7226 29.3122C86.1923 30.108 85.4036 30.6945 84.491 30.9718C83.5783 31.2491 82.5981 31.2 81.7174 30.8329C80.8367 30.4658 80.11 29.8035 79.6612 28.9587C79.2124 28.1139 79.0691 27.1389 79.2559 26.1999C79.4427 25.261 79.948 24.4161 80.6856 23.8093C81.4232 23.2025 82.3475 22.8713 83.3011 22.8721V22.8721ZM83.3011 17.63C81.1401 17.6279 79.0453 18.3782 77.3733 19.753C75.7014 21.1278 74.5559 23.0421 74.1318 25.1699C73.7078 27.2976 74.0315 29.5072 75.0477 31.4222C76.064 33.3372 77.71 34.8392 79.7053 35.6723C81.7007 36.5054 83.9219 36.6181 85.9907 35.9913C88.0596 35.3644 89.8479 34.0366 91.0513 32.2342C92.2546 30.4319 92.7985 28.2663 92.5902 26.1065C92.3819 23.9466 91.4343 21.9261 89.909 20.389C89.0449 19.5119 88.0157 18.8163 86.8812 18.3426C85.7467 17.8689 84.5297 17.6267 83.3011 17.63V17.63Z" fill="#F7E080"/>
<path d="M88.0131 5.24213C89.1058 5.2431 90.1534 5.67975 90.9256 6.45609C91.4965 7.03556 91.8843 7.77144 92.0404 8.57142C92.1964 9.37139 92.1137 10.1998 91.8026 10.9528C91.4915 11.7057 90.9659 12.3496 90.2918 12.8037C89.6176 13.2579 88.8249 13.5019 88.0131 13.5053C87.2013 13.5019 86.4086 13.2579 85.7345 12.8037C85.0603 12.3496 84.5347 11.7057 84.2236 10.9528C83.9126 10.1998 83.8298 9.37139 83.9859 8.57142C84.1419 7.77144 84.5297 7.03556 85.1007 6.45609C85.8729 5.67975 86.9204 5.2431 88.0131 5.24213V5.24213ZM88.0131 3.14244e-05C86.7571 -0.0483611 85.5043 0.158264 84.3297 0.607535C83.1551 1.05681 82.0829 1.73948 81.1772 2.61468C80.2716 3.48989 79.5511 4.53961 79.059 5.70101C78.5669 6.86241 78.3132 8.11158 78.3132 9.37374C78.3132 10.6359 78.5669 11.8851 79.059 13.0465C79.5511 14.2079 80.2716 15.2576 81.1772 16.1328C82.0829 17.008 83.1551 17.6907 84.3297 18.1399C85.5043 18.5892 86.7571 18.7958 88.0131 18.7474C89.8546 18.7402 91.6529 18.1867 93.182 17.1563C94.7111 16.1259 95.9029 14.6647 96.6075 12.9562C97.3121 11.2478 97.4982 9.36835 97.1423 7.55405C96.7864 5.73975 95.9045 4.07154 94.6073 2.75903C93.7449 1.88358 92.7178 1.18887 91.5859 0.715242C90.4539 0.241617 89.2395 -0.0014915 88.0131 3.14244e-05V3.14244e-05Z" fill="#F7E080"/>
<path d="M81.3536 60.3205L66.5104 75.2255C63.9933 77.753 60.5794 79.173 57.0197 79.173C53.46 79.173 50.0461 77.753 47.529 75.2255L37.6595 65.3148L72.504 30.3253L81.3536 39.2117C84.1412 42.0109 85.7072 45.8074 85.7072 49.7661C85.7072 53.7248 84.1412 57.5213 81.3536 60.3205V60.3205Z" fill="#EBF0F7"/>
<path d="M53.6687 46.0339L67.7637 43.606L67.5027 47.2893C66.9935 52.2962 67.6278 57.3537 69.3573 62.0775C70.2333 64.2549 70.4516 66.6429 69.985 68.944C69.5184 71.245 68.3875 73.3573 66.7334 75.0173L65.4421 76.3968C63.209 78.635 60.1828 79.8921 57.0276 79.8921C53.8725 79.8921 50.8463 78.635 48.6132 76.3968L36.0706 63.7881L53.6687 46.0339Z" fill="#B2C1D1"/>
<path d="M72.5583 32.8321L64.659 24.831L13.1833 76.5623L20.5606 83.9702C20.7071 84.1151 20.9044 84.1963 21.1101 84.1963C21.3157 84.1963 21.5131 84.1151 21.6596 83.9702L72.5583 32.8321Z" fill="#F7E080"/>
<path d="M29.3252 63.3329L14.6669 78.0522L0.407052 63.7329C0.194807 63.5184 0.0756836 63.2283 0.0756836 62.9259C0.0756836 62.6236 0.194807 62.3334 0.407052 62.1189L4.08879 58.4219C4.34468 58.1591 4.65027 57.9503 4.98762 57.8077C5.32498 57.6652 5.6873 57.5918 6.0533 57.5918C6.41931 57.5918 6.78163 57.6652 7.11898 57.8077C7.45634 57.9503 7.76193 58.1591 8.01781 58.4219L8.36126 58.7529C8.69593 59.1189 8.93508 59.5625 9.05734 60.0439C9.17961 60.5254 9.18117 61.0297 9.06189 61.512C8.84564 62.5548 8.9729 63.6399 9.42447 64.6037C9.87604 65.5676 10.6274 66.3579 11.5654 66.8554C12.5033 67.353 13.5769 67.5308 14.6243 67.3622C15.6717 67.1935 16.636 66.6875 17.372 65.9204C18.1079 65.1532 18.5756 64.1666 18.7043 63.1093C18.8331 62.052 18.6161 60.9814 18.086 60.0587C17.5558 59.1361 16.7413 58.4116 15.7653 57.9944C14.7893 57.5772 13.7046 57.49 12.6749 57.7459C12.2535 57.8703 11.8068 57.8809 11.3799 57.7768C10.953 57.6726 10.561 57.4574 10.2433 57.1527L9.48776 56.394C9.03895 55.9415 8.78695 55.3289 8.78695 54.6903C8.78695 54.0517 9.03895 53.4391 9.48776 52.9866L13.4855 49.0137C13.5901 48.9086 13.7143 48.8252 13.851 48.7683C13.9877 48.7114 14.1343 48.6821 14.2823 48.6821C14.4303 48.6821 14.5768 48.7114 14.7135 48.7683C14.8502 48.8252 14.9744 48.9086 15.0791 49.0137L29.3252 63.3329Z" fill="#F7E080"/>
<path d="M25.5346 80.0905L17.6079 72.1308L16.0925 73.6525L24.0192 81.6122L25.5346 80.0905Z" fill="#F5B312"/>
<path d="M38.9458 66.6154L31.019 58.6557L27.8328 61.8552L35.7595 69.8149L38.9458 66.6154Z" fill="#F5B312"/>
<path d="M65.8881 48.1767L65.8978 48.167C68.3979 45.6565 68.3979 41.5862 65.8978 39.0758L56.3391 29.4773C53.839 26.9668 49.7856 26.9668 47.2855 29.4773L47.2758 29.487C44.7757 31.9975 44.7757 36.0678 47.2758 38.5783L56.8345 48.1767C59.3346 50.6872 63.388 50.6872 65.8881 48.1767Z" fill="#CBD5E0"/>
<path d="M56.8307 57.2859L56.8404 57.2762C59.3405 54.7657 59.3405 50.6954 56.8404 48.1849L47.2817 38.5865C44.7817 36.076 40.7282 36.076 38.2282 38.5865L38.2185 38.5962C35.7184 41.1067 35.7184 45.177 38.2185 47.6875L47.7771 57.2859C50.2772 59.7964 54.3306 59.7964 56.8307 57.2859Z" fill="#CBD5E0"/>
<path d="M47.768 66.3814L47.7777 66.3716C50.2777 63.8611 50.2777 59.7908 47.7777 57.2804L38.219 47.6819C35.7189 45.1714 31.6655 45.1714 29.1654 47.6819L29.1557 47.6917C26.6556 50.2021 26.6556 54.2724 29.1557 56.7829L38.7144 66.3814C41.2145 68.8918 45.2679 68.8918 47.768 66.3814Z" fill="#CBD5E0"/>
<path d="M74.5364 35.0255V35.0117C74.5364 31.4614 71.6702 28.5833 68.1345 28.5833H56.9519C53.4163 28.5833 50.5501 31.4614 50.5501 35.0117V35.0255C50.5501 38.5759 53.4163 41.454 56.9519 41.454H68.1345C71.6702 41.454 74.5364 38.5759 74.5364 35.0255Z" fill="#EBF0F7"/>
<path d="M62.4698 81.5172L87.0659 56.8187L84.9094 54.6532L60.3132 79.3517L62.4698 81.5172Z" fill="url(#paint0_linear)"/>
<path d="M66.3906 85.4472L90.7439 60.9925C92.0154 59.7157 92.0176 57.6479 90.7488 56.3738C89.4799 55.0997 87.4206 55.1019 86.1491 56.3786L61.7958 80.8333C60.5243 82.1101 60.5222 84.178 61.791 85.452C63.0598 86.7261 65.1191 86.724 66.3906 85.4472Z" fill="#EBF0F7"/>
<path d="M104.389 17.8921C104.389 17.4198 104.01 17.0368 103.544 17.0368C103.077 17.0368 102.699 17.4198 102.699 17.8921V18.7336C102.699 19.206 103.077 19.5889 103.544 19.5889C104.01 19.5889 104.389 19.206 104.389 18.7336V17.8921Z" fill="#F7D036"/>
<path d="M104.389 24.6931C104.389 24.2207 104.01 23.8378 103.544 23.8378C103.077 23.8378 102.699 24.2207 102.699 24.6931V25.5346C102.699 26.0069 103.077 26.3899 103.544 26.3899C104.01 26.3899 104.389 26.0069 104.389 25.5346V24.6931Z" fill="#F7D036"/>
<path d="M107.342 22.5686C107.813 22.5686 108.194 22.1888 108.194 21.7202C108.194 21.2517 107.813 20.8719 107.342 20.8719H106.504C106.034 20.8719 105.653 21.2517 105.653 21.7202C105.653 22.1888 106.034 22.5686 106.504 22.5686H107.342Z" fill="#F7D036"/>
<path d="M100.57 22.5686C101.04 22.5686 101.421 22.1888 101.421 21.7202C101.421 21.2517 101.04 20.8719 100.57 20.8719H99.7316C99.2612 20.8719 98.8799 21.2517 98.8799 21.7202C98.8799 22.1888 99.2612 22.5686 99.7316 22.5686H100.57Z" fill="#F7D036"/>
<path d="M107.741 69.2924C107.741 68.6752 107.246 68.175 106.635 68.175C106.024 68.175 105.529 68.6752 105.529 69.2924V70.3959C105.529 71.0131 106.024 71.5133 106.635 71.5133C107.246 71.5133 107.741 71.0131 107.741 70.3959V69.2924Z" fill="#F47FFF"/>
<path d="M107.741 78.1901C107.741 77.573 107.246 77.0727 106.635 77.0727C106.024 77.0727 105.529 77.573 105.529 78.1901V79.2937C105.529 79.9108 106.024 80.4111 106.635 80.4111C107.246 80.4111 107.741 79.9108 107.741 79.2937V78.1901Z" fill="#F47FFF"/>
<path d="M111.615 75.3897C112.229 75.3897 112.728 74.8925 112.728 74.2792C112.728 73.6659 112.229 73.1687 111.615 73.1687H110.516C109.901 73.1687 109.403 73.6659 109.403 74.2792C109.403 74.8925 109.901 75.3897 110.516 75.3897H111.615Z" fill="#F47FFF"/>
<path d="M102.768 75.4035C103.382 75.4035 103.88 74.9063 103.88 74.293C103.88 73.6797 103.382 73.1825 102.768 73.1825H101.669C101.054 73.1825 100.556 73.6797 100.556 74.293C100.556 74.9063 101.054 75.4035 101.669 75.4035H102.768Z" fill="#F47FFF"/>
<path d="M6.53422 28.266L5.16044 31.2043C5.08413 31.3548 5.05722 31.5258 5.08357 31.6926C5.10991 31.8594 5.18816 32.0136 5.30711 32.133C5.42605 32.2525 5.57959 32.331 5.74573 32.3575C5.91186 32.384 6.08208 32.3569 6.23199 32.2803L9.15815 30.9008C9.2689 30.8534 9.38806 30.8289 9.50846 30.8289C9.62886 30.8289 9.74802 30.8534 9.85878 30.9008L12.7849 32.2803C12.9348 32.3569 13.1051 32.384 13.2712 32.3575C13.4373 32.331 13.5909 32.2525 13.7098 32.133C13.8288 32.0136 13.907 31.8594 13.9334 31.6926C13.9597 31.5258 13.9328 31.3548 13.8565 31.2043L12.4827 28.266C12.4355 28.1547 12.4111 28.0351 12.4111 27.9142C12.4111 27.7933 12.4355 27.6736 12.4827 27.5624L13.8565 24.6241C13.9328 24.4735 13.9597 24.3026 13.9334 24.1358C13.907 23.969 13.8288 23.8148 13.7098 23.6953C13.5909 23.5759 13.4373 23.4973 13.2712 23.4709C13.1051 23.4444 12.9348 23.4714 12.7849 23.5481L9.85878 24.9276C9.75001 24.9822 9.63007 25.0106 9.50846 25.0106C9.38685 25.0106 9.26691 24.9822 9.15815 24.9276L6.23199 23.5481C6.08208 23.4714 5.91186 23.4444 5.74573 23.4709C5.57959 23.4973 5.42605 23.5759 5.30711 23.6953C5.18816 23.8148 5.10991 23.969 5.08357 24.1358C5.05722 24.3026 5.08413 24.4735 5.16044 24.6241L6.53422 27.5624C6.58146 27.6736 6.60581 27.7933 6.60581 27.9142C6.60581 28.0351 6.58146 28.1547 6.53422 28.266V28.266Z" fill="#60CFAC"/>
<defs>
<linearGradient id="paint0_linear" x1="82.1672" y1="59.5792" x2="66.579" y2="75.089" gradientUnits="userSpaceOnUse">
<stop stop-color="#DAE1EA"/>
<stop offset="1" stop-color="#BECBD8"/>
</linearGradient>
</defs>
</svg>
