<?xml version="1.0" encoding="utf-8"?>
<!-- Generator: Adobe Illustrator 25.1.0, SVG Export Plug-In . SVG Version: 6.00 Build 0)  -->
<svg version="1.1" id="Layer_1" xmlns="http://www.w3.org/2000/svg" xmlns:xlink="http://www.w3.org/1999/xlink" x="0px" y="0px"
	 viewBox="0 0 279.3 168" style="enable-background:new 0 0 279.3 168;" xml:space="preserve">
<style type="text/css">
	.st0{fill:#202225;}
	.st1{fill:#FFFFFF;}
	.st2{fill:none;}
	.st3{fill:#FF78B8;}
	.st4{fill:#5865F2;}
	.st5{fill:#E53794;}
	.st6{fill:#FFFFFF;filter:url(#Adobe_OpacityMaskFilter);}
	.st7{mask:url(#mask0_463_19290_1_);}
	.st8{fill:#F9CDF8;}
	.st9{fill:#CCA1EE;filter:url(#Adobe_OpacityMaskFilter_1_);}
	.st10{mask:url(#mask1_463_19290_1_);}
	.st11{fill:#FF8FC2;}
	.st12{fill:#DB9BDD;}
	.st13{fill:#9C5CE0;}
	.st14{fill:#3442D9;}
	.st15{fill:#EB459F;}
	.st16{fill:#8CD9FF;}
	.st17{fill:#3F99F2;}
	.st18{fill:#FFE75C;}
	.st19{fill:#FFAB18;}
	.st20{fill:#FF78B9;filter:url(#Adobe_OpacityMaskFilter_2_);}
	.st21{mask:url(#mask2_463_19290_1_);}
	.st22{fill:#FF78B9;}
	.st23{fill:none;stroke:#EB459F;stroke-width:1.42;stroke-linecap:round;stroke-miterlimit:10;}
</style>
<g>
	<g>
		<path class="st0" d="M-0.7,168V0h280v168H-0.7z"/>
		<path class="st1" d="M96.7,37.3l-0.3-1.8c-0.2,0.1-0.4,0.1-0.7,0.1c-0.8,0-1.1-0.4-1.1-1.1v-4.1h2l-0.3-1.8h-1.8v-3.1l-2.1,0.3
			v2.8h-1.2v1.8h1.2v4.5c0,2,1.2,2.6,2.9,2.6C96,37.5,96.4,37.4,96.7,37.3z M103.1,34.9c-0.6,0.6-1.3,0.9-2,0.9
			c-0.7,0-1.1-0.4-1.1-1c0-0.8,0.6-1.6,3.1-1.9V34.9z M105.3,37.3v-6c0-2.1-1.1-2.9-3.4-2.9c-1.4,0-2.4,0.3-3.5,0.7l0.3,1.7
			c0.9-0.4,1.9-0.7,2.9-0.7c1,0,1.5,0.4,1.5,1.3v0.3c-3.5,0.3-5.2,1.3-5.2,3.4c0,1.5,1,2.4,2.5,2.4c1.3,0,2.2-0.6,2.9-1.3l0.2,1.1
			H105.3z M114.8,37.3V31c0-1.6-0.9-2.6-2.5-2.6c-1.2,0-2.1,0.6-2.9,1.4l-0.2-1.2h-1.8v8.7h2.2v-5.9c0.6-0.7,1.3-1.1,2-1.1
			c0.8,0,1.1,0.5,1.1,1.3v5.7H114.8z"/>
		<path class="st1" d="M98.7,58.9c0-2.5-1.5-4-3.6-4c-2,0-3.5,1.5-3.5,4s1.5,4,3.5,4C97.2,62.9,98.7,61.4,98.7,58.9z M97.3,58.9
			c0,1.6-0.7,2.8-2.1,2.8c-1.3,0-2.1-1.2-2.1-2.8c0-1.6,0.7-2.8,2.1-2.8S97.3,57.3,97.3,58.9z M111.4,62.7v-5.6
			c0-1.4-0.7-2.2-2.2-2.2c-1.1,0-2,0.6-2.7,1.3c-0.3-0.8-0.9-1.3-2-1.3c-1.1,0-1.9,0.6-2.7,1.3l-0.2-1.1h-1.1v7.6h1.4v-5.3
			c0.7-0.7,1.4-1.2,2.2-1.2c0.8,0,1.1,0.5,1.1,1.3v5.2h1.4v-5.3c0.7-0.7,1.4-1.2,2.2-1.2c0.8,0,1.1,0.5,1.1,1.3v5.2H111.4z
			 M117.7,57.5c0,0.9-0.6,1.6-1.6,1.6c-0.9,0-1.6-0.7-1.6-1.6c0-0.9,0.6-1.7,1.6-1.7C117.1,55.9,117.7,56.6,117.7,57.5z M120,63.3
			c0-1.2-1-1.7-2.6-2l-0.5-0.1c-1.3-0.2-1.6-0.3-1.6-0.6c0-0.1,0.2-0.3,0.4-0.5c0.2,0,0.4,0,0.6,0c1.6,0,2.9-1,2.9-2.6
			c0-0.4-0.1-0.8-0.3-1.2l1.5-0.1l-0.2-1.3l-1.9,0.6c-0.5-0.4-1.2-0.6-2-0.6c-1.6,0-2.9,1-2.9,2.7c0,1,0.6,1.8,1.4,2.3
			c-0.5,0.3-0.8,0.7-0.8,1c0,0.3,0.1,0.6,0.5,0.8c-1.1,0.6-1.6,1.2-1.6,2c0,1.3,1.6,2,3.6,2C118.3,65.6,120,64.9,120,63.3z
			 M116.3,64.6c-1.5,0-2.3-0.4-2.3-1.1c0-0.5,0.4-1,1.3-1.4c0.3,0.1,0.5,0.1,0.9,0.2l0.9,0.2c1.1,0.2,1.4,0.5,1.4,1
			C118.7,64.1,117.8,64.6,116.3,64.6z M131.4,62.7v-5.6c0-1.4-0.8-2.2-2.2-2.2c-1.1,0-2,0.6-2.7,1.3l-0.2-1.1h-1.1v7.6h1.4v-5.3
			c0.7-0.7,1.5-1.2,2.2-1.2c0.8,0,1.2,0.5,1.2,1.3v5.2H131.4z M135.3,52.6c0-0.5-0.4-0.9-0.9-0.9s-0.9,0.4-0.9,0.9s0.4,0.9,0.9,0.9
			S135.3,53.1,135.3,52.6z M135.1,62.7v-7.6h-1.4v7.6H135.1z M143.2,62.1l-0.2-1.3c-0.8,0.6-1.5,0.8-2.3,0.8c-1.3,0-2.2-0.9-2.2-2.7
			c0-1.8,0.9-2.7,2.2-2.7c0.9,0,1.6,0.3,2.2,0.8l0.2-1.4c-0.5-0.4-1.3-0.7-2.4-0.7c-2,0-3.6,1.4-3.6,4c0,2.5,1.5,4,3.6,4
			C141.7,62.9,142.5,62.6,143.2,62.1z M147.7,56c1.1,0,1.6,0.7,1.8,1.9h-3.7C146.1,56.7,146.8,56,147.7,56z M151,61.8l-0.2-1.3
			c-0.8,0.7-1.6,1.1-2.7,1.1c-1.3,0-2.2-0.8-2.2-2.6h5.2v-0.3c0-2.1-1-3.8-3.2-3.8c-1.9,0-3.4,1.5-3.4,4c0,2.8,1.6,4,3.5,4
			C149.2,62.9,150.1,62.5,151,61.8z M159.2,56c1.1,0,1.6,0.7,1.8,1.9h-3.7C157.6,56.7,158.3,56,159.2,56z M162.5,61.8l-0.2-1.3
			c-0.8,0.7-1.6,1.1-2.7,1.1c-1.3,0-2.2-0.8-2.2-2.6h5.2v-0.3c0-2.1-1-3.8-3.2-3.8c-1.9,0-3.4,1.5-3.4,4c0,2.8,1.6,4,3.5,4
			C160.7,62.9,161.6,62.5,162.5,61.8z M175.1,62.7v-5.6c0-1.4-0.7-2.2-2.2-2.2c-1.1,0-2,0.6-2.7,1.3c-0.3-0.8-0.9-1.3-2-1.3
			c-1.1,0-1.9,0.6-2.7,1.3l-0.2-1.1h-1.1v7.6h1.4v-5.3c0.7-0.7,1.4-1.2,2.2-1.2c0.8,0,1.1,0.5,1.1,1.3v5.2h1.4v-5.3
			c0.7-0.7,1.4-1.2,2.2-1.2c0.8,0,1.1,0.5,1.1,1.3v5.2H175.1z M184,58.9c0-2.5-1.5-4-3.6-4c-2,0-3.5,1.5-3.5,4s1.5,4,3.5,4
			C182.5,62.9,184,61.4,184,58.9z M182.5,58.9c0,1.6-0.7,2.8-2.1,2.8c-1.3,0-2.1-1.2-2.1-2.8c0-1.6,0.7-2.8,2.1-2.8
			C181.8,56.1,182.5,57.3,182.5,58.9z M187.5,52.6c0-0.5-0.4-0.9-0.9-0.9s-0.9,0.4-0.9,0.9s0.4,0.9,0.9,0.9S187.5,53.1,187.5,52.6z
			 M187.3,63.7v-8.6h-1.4v8.5c0,0.6-0.3,0.8-0.8,0.8c-0.2,0-0.5,0-0.7-0.1l0.2,1.3c0.1,0,0.4,0,0.7,0
			C186.5,65.6,187.3,65,187.3,63.7z M191.4,52.6c0-0.5-0.4-0.9-0.9-0.9s-0.9,0.4-0.9,0.9s0.4,0.9,0.9,0.9S191.4,53.1,191.4,52.6z
			 M191.2,62.7v-7.6h-1.4v7.6H191.2z"/>
		<path class="st2" d="M195.9,63.8h16v-16h-16V63.8z"/>
		<path class="st3" d="M46.6,78.8C64,78.8,78,64.7,78,47.4S64,16,46.6,16S15.3,30,15.3,47.4S29.3,78.8,46.6,78.8z"/>
		<path class="st1" d="M63.8,47.9c3.4-0.6,5.5-4.9,4.6-9.5c-0.9-4.6-4.3-7.8-7.8-7.2c-3.4,0.6-5.5,4.9-4.6,9.5
			C56.9,45.3,60.4,48.5,63.8,47.9z"/>
		<path class="st4" d="M62.9,49.2c-4.1,0-7.7-4.1-8.2-9.4c-0.2-1.4-0.1-2.8,0.3-4.1c0.4-1.3,1-2.6,1.9-3.7c0.6-0.7,1.3-1.2,2-1.6
			c0.8-0.4,1.6-0.6,2.5-0.6h0.1c4.1,0,7.7,4.1,8.2,9.4c0.2,1.4,0.1,2.8-0.3,4.1c-0.4,1.3-1,2.6-1.9,3.7c-0.6,0.7-1.3,1.2-2,1.6
			c-0.8,0.4-1.6,0.6-2.5,0.6H62.9z M61.5,32.3L61.5,32.3c-0.6,0-1.1,0.2-1.6,0.4c-0.5,0.2-0.9,0.6-1.2,1c-0.6,0.8-1.1,1.8-1.4,2.8
			c-0.3,1-0.3,2.1-0.2,3.1c0.4,3.9,3,7.2,5.8,7.2H63c0.5,0,1-0.2,1.5-0.4c0.5-0.2,0.9-0.6,1.2-1c0.6-0.8,1.1-1.8,1.4-2.8
			c0.3-1,0.3-2.1,0.2-3.1C67,35.6,64.3,32.3,61.5,32.3z"/>
		<path class="st1" d="M52.3,41.5c0.5-4.7-2-8.9-5.7-9.3c-3.6-0.4-7,3.1-7.5,7.9c-0.5,4.7,2,8.9,5.7,9.3
			C48.4,49.8,51.8,46.3,52.3,41.5z"/>
		<path class="st4" d="M45.3,50.7c-0.6,0-1.1-0.1-1.7-0.2c-4.1-1.1-6.7-6.3-5.6-11.6c0.2-1.4,0.7-2.7,1.5-3.9c0.8-1.2,1.8-2.2,2.9-3
			c0.8-0.5,1.6-0.8,2.5-1c0.9-0.1,1.8-0.1,2.7,0.1c4.2,1.1,6.7,6.3,5.6,11.6c-0.2,1.4-0.8,2.7-1.5,3.9c-0.8,1.2-1.8,2.2-2.9,2.9
			C47.8,50.3,46.6,50.6,45.3,50.7z M46.1,33.4c-0.8,0-1.6,0.2-2.3,0.7c-0.9,0.6-1.6,1.4-2.2,2.3c-0.6,0.9-0.9,1.9-1.1,2.9
			c-0.8,4,0.9,8,3.8,8.8c0.6,0.1,1.1,0.2,1.7,0.1c0.6-0.1,1.1-0.3,1.6-0.6c0.9-0.6,1.6-1.4,2.2-2.3c0.6-0.9,1-1.9,1.1-2.9
			c0.8-4-0.9-8-3.8-8.8C46.8,33.5,46.4,33.4,46.1,33.4z"/>
		<path d="M63,42.3c0.9,0,1.6-1.1,1.6-2.3c0-1.3-0.7-2.3-1.6-2.3c-0.9,0-1.6,1.1-1.6,2.3C61.4,41.3,62.1,42.3,63,42.3z"/>
		<path d="M48.8,41.4c0.2-1.3-0.3-2.4-1.1-2.6c-0.9-0.2-1.8,0.7-2,2c-0.2,1.3,0.3,2.4,1.1,2.6C47.6,43.5,48.5,42.6,48.8,41.4z"/>
		<path class="st4" d="M55.9,36.6l-3.9,0.3l0.2,2.4l3.9-0.3L55.9,36.6z"/>
		<path d="M52.6,49.2h6.2c0.2,0,0.3,0,0.5,0.1c0.1,0.1,0.3,0.2,0.4,0.3c0.1,0.1,0.2,0.3,0.2,0.4c0,0.2,0.1,0.3,0,0.5
			c-0.5,2.8-2.2,8.6-8.1,0.5c-0.1-0.2-0.2-0.4-0.2-0.6c0-0.2,0-0.4,0.1-0.6c0.1-0.2,0.2-0.3,0.4-0.4C52.2,49.3,52.4,49.2,52.6,49.2z
			"/>
		<path class="st5" d="M56.6,52.4c-1.3-0.4-2.7-0.5-4-0.3c3.6,4.4,5.4,3.3,6.4,1.4C58.3,53,57.4,52.7,56.6,52.4z"/>
		<path class="st1" d="M94.3,110.5v-13l-2.2,0.3v12.7H94.3z M100.1,103.2c1,0,1.6,0.8,1.7,2.1h-3.5
			C98.5,103.9,99.2,103.2,100.1,103.2z M103.9,109.7l-0.3-1.7c-1,0.7-1.9,1.1-3,1.1c-1.3,0-2.2-0.7-2.3-2.4h5.6c0-0.1,0-0.3,0-0.5
			c0-2.5-1.2-4.4-3.8-4.4c-2.3,0-4,1.7-4,4.5c0,3.1,1.8,4.5,4.2,4.5C101.8,110.7,102.9,110.3,103.9,109.7z M113.4,106.2
			c0-2.8-1.7-4.5-4.1-4.5c-2.4,0-4.1,1.7-4.1,4.5c0,2.8,1.7,4.5,4.1,4.5C111.6,110.7,113.4,109,113.4,106.2z M111.3,106.2
			c0,1.6-0.7,2.8-2,2.8c-1.3,0-2-1.2-2-2.8s0.7-2.8,2-2.8C110.5,103.4,111.3,104.6,111.3,106.2z M122.5,110.5v-6.3
			c0-1.6-0.9-2.6-2.5-2.6c-1.2,0-2.1,0.6-2.9,1.4l-0.2-1.2h-1.8v8.7h2.2v-5.9c0.6-0.7,1.3-1.1,2-1.1c0.8,0,1.1,0.5,1.1,1.3v5.7
			H122.5z"/>
		<path class="st1" d="M96.1,136l-0.2-1.2c-0.2,0-0.4,0-0.7,0c-0.8,0-1.1-0.4-1.1-1v-4.3H96l-0.2-1.2h-1.6v-2.8l-1.4,0.2v2.5h-1.2
			v1.2h1.2v4.5c0,1.5,0.9,2,2.2,2C95.5,136.1,95.8,136.1,96.1,136z M104,136v-5.6c0-1.4-0.8-2.2-2.2-2.2c-1.1,0-2,0.6-2.6,1.2v-4.9
			l-1.4,0.2V136h1.4v-5.3c0.7-0.7,1.5-1.2,2.2-1.2c0.8,0,1.2,0.5,1.2,1.3v5.2H104z M110.6,133.9c-0.6,0.7-1.4,1.1-2.3,1.1
			c-0.7,0-1.1-0.4-1.1-1c0-0.8,0.6-1.6,3.4-1.8V133.9z M112,136v-5.3c0-1.7-0.9-2.4-2.8-2.4c-1.2,0-2,0.3-3,0.6l0.2,1.2
			c0.8-0.4,1.7-0.7,2.6-0.7c0.9,0,1.5,0.3,1.5,1.3v0.3c-3.2,0.3-4.8,1.1-4.8,3c0,1.3,0.9,2.1,2.2,2.1c1.2,0,2.1-0.6,2.7-1.2l0.2,1
			H112z M120.4,136v-5.6c0-1.4-0.8-2.2-2.2-2.2c-1.1,0-2,0.6-2.7,1.3l-0.2-1.1h-1.1v7.6h1.4v-5.3c0.7-0.7,1.5-1.2,2.2-1.2
			c0.8,0,1.2,0.5,1.2,1.3v5.2H120.4z M127.5,136.1l1.6-0.2l-3.5-4.1l3.2-3.4H127l-3,3.2v-7.1l-1.4,0.2V136h1.4v-4L127.5,136.1z
			 M135.5,133.9c0-1.5-0.8-2-2.7-2.5c-1.2-0.3-1.6-0.6-1.6-1.1c0-0.5,0.4-0.9,1.3-0.9c0.8,0,1.6,0.3,2.3,0.7l0.2-1.3
			c-0.7-0.3-1.6-0.5-2.5-0.5c-1.7,0-2.7,0.9-2.7,2.1c0,1.4,0.7,1.9,2.5,2.4c1.4,0.3,1.8,0.6,1.8,1.3c0,0.6-0.6,1-1.6,1
			c-1,0-2-0.4-2.7-0.9l-0.2,1.3c0.7,0.4,1.8,0.7,2.8,0.7C134.5,136.2,135.5,135.3,135.5,133.9z M139.2,125h-1.7l0.4,7.8l0.9-0.2
			L139.2,125z M139.1,136v-1.9h-1.6v1.9H139.1z M143.6,125h-1.7l0.4,7.8l0.9-0.2L143.6,125z M143.5,136v-1.9h-1.6v1.9H143.5z
			 M151.2,125.9c0-0.5-0.4-0.9-0.9-0.9s-0.9,0.4-0.9,0.9s0.4,0.9,0.9,0.9S151.2,126.4,151.2,125.9z M151.1,136v-7.6h-1.4v7.6H151.1z
			 M167.8,136v-5.6c0-1.4-0.7-2.2-2.2-2.2c-1.1,0-2,0.6-2.7,1.3c-0.3-0.8-0.9-1.3-2-1.3c-1.1,0-1.9,0.6-2.7,1.3l-0.2-1.1h-1.1v7.6
			h1.4v-5.3c0.7-0.7,1.4-1.2,2.2-1.2c0.8,0,1.1,0.5,1.1,1.3v5.2h1.4v-5.3c0.7-0.7,1.4-1.2,2.2-1.2c0.8,0,1.1,0.5,1.1,1.3v5.2H167.8z
			 M174.3,133.9c-0.6,0.7-1.4,1.1-2.3,1.1c-0.7,0-1.1-0.4-1.1-1c0-0.8,0.6-1.6,3.4-1.8V133.9z M175.7,136v-5.3
			c0-1.7-0.9-2.4-2.8-2.4c-1.2,0-2,0.3-3,0.6l0.2,1.2c0.8-0.4,1.7-0.7,2.6-0.7c0.9,0,1.5,0.3,1.5,1.3v0.3c-3.2,0.3-4.8,1.1-4.8,3
			c0,1.3,0.9,2.1,2.2,2.1c1.2,0,2.1-0.6,2.7-1.2l0.2,1H175.7z M179,132.3c0-1.9,0.9-2.9,2.1-2.9c0.8,0,1.3,0.1,1.9,0.4v3.6
			c-0.6,0.8-1.3,1.3-2.2,1.3C179.7,134.9,179,134,179,132.3z M177.5,132.4c0,2.6,1.4,3.8,3,3.8c1.1,0,1.9-0.6,2.5-1.3l0.2,1.1h1.1
			v-11.6l-1.4,0.2v3.9c-0.5-0.2-1.2-0.3-1.9-0.3C179.1,128.3,177.5,129.6,177.5,132.4z M189.5,129.3c1.1,0,1.6,0.7,1.8,1.9h-3.7
			C187.8,130,188.6,129.3,189.5,129.3z M192.7,135.1l-0.2-1.3c-0.8,0.7-1.6,1.1-2.7,1.1c-1.3,0-2.2-0.8-2.2-2.6h5.2V132
			c0-2.1-1-3.8-3.2-3.8c-1.9,0-3.4,1.5-3.4,4c0,2.8,1.6,4,3.5,4C190.9,136.2,191.9,135.8,192.7,135.1z M199.8,125.9
			c0-0.5-0.4-0.9-0.9-0.9c-0.5,0-0.9,0.4-0.9,0.9s0.4,0.9,0.9,0.9C199.4,126.8,199.8,126.4,199.8,125.9z M199.6,136v-7.6h-1.4v7.6
			H199.6z M205.6,136l-0.2-1.2c-0.2,0-0.4,0-0.7,0c-0.8,0-1.1-0.4-1.1-1v-4.3h1.8l-0.2-1.2h-1.6v-2.8l-1.4,0.2v2.5h-1.2v1.2h1.2v4.5
			c0,1.5,0.9,2,2.2,2C205,136.1,205.4,136.1,205.6,136z"/>
		<defs>
			<filter id="Adobe_OpacityMaskFilter" filterUnits="userSpaceOnUse" x="208.8" y="123.2" width="23.8" height="17.9">
				<feColorMatrix  type="matrix" values="1 0 0 0 0  0 1 0 0 0  0 0 1 0 0  0 0 0 1 0"/>
			</filter>
		</defs>
		<mask maskUnits="userSpaceOnUse" x="208.8" y="123.2" width="23.8" height="17.9" id="mask0_463_19290_1_">
			<path class="st6" d="M230.3,120h-20v20.2h20V120z"/>
		</mask>
		<g class="st7">
			<path class="st8" d="M220.1,127.6h2c0.2,0,0.3-0.1,0.4-0.2l1.9-3.3c0.7-1.2,2.3-1.1,2.9,0.1c2.4,5.1,5.1,15.9,0.3,15.9h-6.1v0
				l-8.3,0c-0.5,0-1-0.4-1.3-0.8c-1.2-2.3-1.5-5.2-0.4-7.6c0.3-0.6,2-3.5,2.1-3.7l2.2-4.1c0.5-0.9,1.7-0.9,2.2,0l1.7,3.5
				C219.8,127.5,219.9,127.6,220.1,127.6z"/>
			<defs>
				<filter id="Adobe_OpacityMaskFilter_1_" filterUnits="userSpaceOnUse" x="208.8" y="132.5" width="23.8" height="8.6">
					<feColorMatrix  type="matrix" values="1 0 0 0 0  0 1 0 0 0  0 0 1 0 0  0 0 0 1 0"/>
				</filter>
			</defs>
			<mask maskUnits="userSpaceOnUse" x="208.8" y="132.5" width="23.8" height="8.6" id="mask1_463_19290_1_">
				<path class="st9" d="M220.1,127.6h2c0.2,0,0.3-0.1,0.4-0.2l1.9-3.3c0.7-1.2,2.3-1.1,2.9,0.1c2.4,5.1,5.1,15.9,0.3,15.9h-6.1v0
					l-8.3,0c-0.5,0-1-0.4-1.3-0.8c-1.2-2.3-1.5-5.2-0.4-7.6c0.3-0.6,2-3.5,2.1-3.7l2.2-4.1c0.5-0.9,1.7-0.9,2.2,0l1.7,3.5
					C219.8,127.5,219.9,127.6,220.1,127.6z"/>
			</mask>
			<g class="st10">
				<path class="st1" d="M220,134.3c-8.2,0.3-10.9,4-11.2,5.8h23.8C231.8,138,228.2,134,220,134.3z"/>
				<path class="st8" d="M214.7,136.9l-0.7,2.9l-0.2,0.5l1.9,0.8h1.3l0.2-2l-0.4-1.9l-1.3-0.7L214.7,136.9z"/>
				<path class="st8" d="M222.9,136.9l-0.7,2.9l-0.2,0.5l1.9,0.8h1.3l0.2-2l-0.4-1.9l-1.3-0.7L222.9,136.9z"/>
				<path class="st11" d="M227.1,134.3c-2.6,0-2.6,4.1,0,4.1C229.7,138.3,229.7,134.3,227.1,134.3z"/>
				<path class="st11" d="M212.7,134.1c-2.6,0-2.6,4.1,0,4.1C215.3,138.2,215.3,134.1,212.7,134.1z"/>
				<path class="st12" d="M215.6,136.2c-1.8-0.1-1.9,2.5-2,3.8h0.9c0-0.9,0.2-3.5,1.4-2.7c0.8,0.5,0.8,1.8,0.7,2.7h0.9
					C217.6,138.7,217.3,136.4,215.6,136.2z"/>
				<path class="st12" d="M223.7,136.2c-1.8-0.1-1.9,2.5-2,3.8h0.9c0-0.9,0.2-3.5,1.4-2.7c0.8,0.5,0.8,1.8,0.7,2.7h0.9
					C225.7,138.7,225.5,136.4,223.7,136.2z"/>
				<path class="st13" d="M221.1,133.7c0,0.5-0.5,0.9-0.8,0.3c-0.1-0.3-0.6-0.4-0.9-0.1c-0.2,0.3-0.5,0.8-0.9,0.4
					c-0.2-0.1-0.2-0.5-0.3-0.7c-0.2-0.6-1.1-0.2-0.9,0.4c0.2,0.6,0.5,1.3,1.2,1.5c0.5,0.1,0.9-0.1,1.2-0.4c0.3,0.3,0.6,0.4,1.1,0.3
					c0.7-0.2,1.1-0.8,1.2-1.5C222.1,133.2,221.2,133.1,221.1,133.7z"/>
				<path class="st13" d="M226.3,132.9c-0.1-0.7-1.1-0.6-1.1,0.2c0,0.4,0,1.3-0.6,1.3c-0.6,0-0.5-1-0.5-1.4c0-0.6-1-0.6-1,0
					c-0.1,1.1,0.3,2.5,1.6,2.5C226,135.4,226.4,134,226.3,132.9z"/>
				<path class="st13" d="M216.6,132.9c-0.1-0.7-1.1-0.6-1.1,0.2c0,0.4,0,1.3-0.6,1.3c-0.6,0-0.5-1-0.5-1.4c0-0.6-1-0.6-1,0
					c-0.1,1.1,0.3,2.5,1.6,2.5C216.3,135.4,216.7,134,216.6,132.9z"/>
			</g>
			<path class="st13" d="M212.8,135.7c0,0,0.1,0,0.1,0c0.3,0,0.5-0.2,0.5-0.5c0.1-0.3-0.1-0.5-0.4-0.6c-0.7-0.1-1.4-0.3-2.1-0.5
				c-0.2-0.1-0.4,0-0.5,0.1c-0.1,0.1-0.2,0.3-0.2,0.5c0,0.2,0.2,0.3,0.4,0.4C211.3,135.4,212.1,135.6,212.8,135.7z"/>
			<path class="st13" d="M212.8,136.4c-0.7,0.2-1.4,0.4-2,0.6c-0.3,0.1-0.4,0.4-0.4,0.7c0.1,0.2,0.2,0.4,0.5,0.4c0,0,0.1,0,0.2,0
				c0.7-0.2,1.3-0.4,2-0.6c0.2,0,0.3-0.2,0.4-0.3c0.1-0.2,0-0.4-0.1-0.5C213.2,136.4,213,136.4,212.8,136.4z"/>
			<path class="st13" d="M226.9,136c0,0,0.1,0,0.1,0c0.7-0.2,1.5-0.4,2.2-0.6c0.3-0.1,0.4-0.4,0.3-0.7c-0.1-0.2-0.3-0.4-0.6-0.3
				c-0.7,0.2-1.5,0.4-2.2,0.6c-0.3,0.1-0.4,0.4-0.4,0.6C226.5,135.8,226.7,136,226.9,136z"/>
			<path class="st13" d="M230.1,137.3c-0.1-0.2-0.2-0.3-0.4-0.3c-0.8-0.1-1.7-0.2-2.6-0.4c-0.2,0-0.4,0-0.5,0.2
				c-0.1,0.2-0.2,0.4-0.1,0.5c0.1,0.2,0.2,0.3,0.4,0.3c0.9,0.2,1.9,0.3,2.8,0.4c0,0,0,0,0.1,0c0.1,0,0.3-0.1,0.4-0.2
				C230.1,137.7,230.1,137.5,230.1,137.3z"/>
		</g>
		<path class="st14" d="M46.6,151.8c17.3,0,31.4-14,31.4-31.4S64,89,46.6,89s-31.4,14-31.4,31.4S29.3,151.8,46.6,151.8z"/>
		<path class="st15" d="M49.4,112c1.8-5.6-1.5-11.7-7.4-13.5s-12,1.2-13.8,6.8c-1.8,5.6,1.5,11.7,7.4,13.5
			C41.5,120.7,47.7,117.6,49.4,112z"/>
		<path class="st16" d="M46.6,151.8c2.9,0,5.8-0.4,8.6-1.2c-0.2-8.3-6.1-16.1-15.1-18.9c-3.5-1.2-7.3-1.4-11-0.7
			c-3.7,0.7-7.1,2.4-9.9,4.9c2.7,4.8,6.7,8.9,11.5,11.7C35.6,150.3,41.1,151.8,46.6,151.8z"/>
		<path class="st17" d="M42.7,143.8h-0.1c-0.2-0.1-0.3-0.2-0.4-0.3s-0.1-0.3-0.1-0.5c0-0.1,0-0.2,0.1-0.3c0-0.1,0.1-0.2,0.2-0.2
			c0.1-0.1,0.2-0.1,0.2-0.1c0.1,0,0.2,0,0.3,0c3.2,0.4,6.4-0.2,9.2-1.7c0.3,0.4,0.5,0.8,0.7,1.2C49.8,143.6,46.2,144.2,42.7,143.8z"
			/>
		<path class="st16" d="M62.3,129.5c3.1-9.9-3-20.7-13.6-24.1c-10.7-3.4-21.9,2-25,11.9c-3.1,9.9,3,20.7,13.6,24.1
			C47.9,144.7,59.1,139.4,62.3,129.5z"/>
		<path class="st17" d="M48.6,105.3c4,1.3,7.6,3.7,10.3,7c-0.5,0.4-2.3,3.2-0.9,7.7l-5.2,1.2c0,0-4.7-16.7-20.1-14.7
			C37.6,104,43.3,103.6,48.6,105.3z"/>
		<path d="M70.1,112l-6.5,14.2l5.4,8.9l-22.8-7.8L70.1,112z"/>
		<path class="st18" d="M49.7,122.6c1.8-2.5,4.2-4.3,7.1-5.4l13.3-5.1l-21.9,14.7l20.9,8.3l-9.7-0.7c-2.9-0.2-5.7-1.3-8-3.1l-5.2-4
			L49.7,122.6z"/>
		<path d="M38.4,113.8c-0.6,0-1.1,0-1.5,0c-0.3,0-0.6,0-0.9,0.1c-0.3,0-0.5,0.1-0.8,0.2c-0.2,0.1-0.4,0.2-0.6,0.3
			c-0.2,0.2-0.5,0.3-0.7,0.4l-0.2,0.1c-0.1,0-0.2,0.1-0.3,0.1c-0.1,0-0.2,0-0.3,0c-0.1,0-0.2-0.1-0.3-0.2c-0.1-0.1-0.1-0.2-0.2-0.2
			c0-0.1-0.1-0.2-0.1-0.3c0-0.4,0-0.7,0.1-1.1c0.1-0.4,0.3-0.7,0.5-1.1c0.3-0.4,0.6-0.7,0.9-0.9c0.4-0.2,0.8-0.4,1.2-0.5
			c0.8-0.2,1.7,0,2.5,0.4c0.7,0.3,1.2,0.9,1.5,1.6c0.1,0.2,0.1,0.4,0,0.6c-0.1,0.2-0.2,0.3-0.4,0.4c-0.1,0-0.2,0.1-0.2,0.1
			L38.4,113.8z"/>
		<path class="st19" d="M54.2,121.4c0.6-0.7,0.8-1.4,0.5-1.7c-0.3-0.2-1,0.1-1.5,0.8c-0.6,0.7-0.8,1.4-0.5,1.7
			C53,122.4,53.7,122,54.2,121.4z"/>
		<defs>
			<filter id="Adobe_OpacityMaskFilter_2_" filterUnits="userSpaceOnUse" x="25.7" y="100.2" width="26.9" height="12.6">
				<feColorMatrix  type="matrix" values="1 0 0 0 0  0 1 0 0 0  0 0 1 0 0  0 0 0 1 0"/>
			</filter>
		</defs>
		<mask maskUnits="userSpaceOnUse" x="25.7" y="100.2" width="26.9" height="12.6" id="mask2_463_19290_1_">
			<path class="st20" d="M52.7,107c0,0-16.7-5.4-26.8,5.7c-0.2-1.3-0.1-2.6,0.4-3.8c0.5-1.2,1.3-2.2,2.4-3c2.8-2,6-3.4,9.4-4
				c3.4-0.6,6.9-0.4,10.2,0.7c0.9,0.3,1.7,0.7,2.4,1.3c0.7,0.6,1.3,1.3,1.7,2.2L52.7,107z"/>
		</mask>
		<g class="st21">
			<path class="st22" d="M52.7,107c0,0-16.7-5.4-26.8,5.7c-0.2-1.3-0.1-2.6,0.4-3.8c0.5-1.2,1.3-2.2,2.4-3c2.8-2,6-3.4,9.4-4
				c3.4-0.6,6.9-0.4,10.2,0.7c0.9,0.3,1.7,0.7,2.4,1.3c0.7,0.6,1.3,1.3,1.7,2.2L52.7,107z"/>
			<path class="st23" d="M48.8,108c0,0-0.8-5.4-5-7.1"/>
			<path class="st23" d="M42.3,108l-1.9-7"/>
			<path class="st23" d="M35.8,109.2c-0.1-0.3-1.5-4.6-0.1-7.6"/>
			<path class="st23" d="M31.1,103.7c-1,2.7-1.4,5.6-1,8.4"/>
		</g>
		<path d="M31.5,119.8c1.1-0.3,2.2-0.4,3.3-0.3c1.2,0.1,2.3,0.5,3.2,1.1c1,0.6,1.8,1.4,2.5,2.4c0.3,0.5,0.6,1,0.9,1.5
			c0.2,0.5,0.4,1,0.7,1.6c0.1,0.3,0.1,0.7,0,1c-0.1,0.3-0.4,0.6-0.7,0.7c-0.3,0.1-0.7,0.1-1,0c-0.3-0.1-0.6-0.4-0.7-0.7
			c0,0,0-0.1,0-0.1v-0.1l-0.4-1.3c-0.2-0.4-0.3-0.8-0.6-1.2c-0.4-0.8-1-1.5-1.6-2c-0.7-0.5-1.5-0.9-2.4-1.1
			c-0.9-0.2-1.8-0.2-2.7-0.1h-0.1c-0.1,0-0.2,0-0.3,0c-0.1,0-0.2-0.1-0.3-0.1c-0.1-0.1-0.1-0.1-0.2-0.2c-0.1-0.1-0.1-0.2-0.1-0.3
			c0-0.1,0-0.2,0-0.3c0-0.1,0.1-0.2,0.1-0.3c0.1-0.1,0.1-0.1,0.2-0.2C31.4,119.8,31.5,119.8,31.5,119.8L31.5,119.8z"/>
	</g>
</g>
</svg>
