<svg width="200" height="140" viewBox="0 0 200 140" fill="none" xmlns="http://www.w3.org/2000/svg">
<path d="M156.572 96.28C155.63 95.6802 154.83 94.8838 154.225 93.9455C153.62 93.0072 153.225 91.9492 153.068 90.844L152.484 87.048C152.471 86.9575 152.427 86.8742 152.36 86.812C152.328 86.7781 152.29 86.7511 152.247 86.7326C152.204 86.7141 152.158 86.7046 152.112 86.7046C152.066 86.7046 152.02 86.7141 151.977 86.7326C151.934 86.7511 151.896 86.7781 151.864 86.812C151.797 86.8742 151.753 86.9575 151.74 87.048L151.16 90.844C150.995 91.9467 150.597 93.0017 149.993 93.9389C149.389 94.8761 148.592 95.6741 147.656 96.28L147.152 96.596C147.101 96.6317 147.059 96.6799 147.032 96.736C147.003 96.7915 146.989 96.8535 146.992 96.916C146.989 96.9785 147.003 97.0407 147.032 97.096C147.059 97.1521 147.101 97.2003 147.152 97.236L147.656 97.552C148.592 98.1593 149.388 98.9582 149.992 99.8959C150.596 100.834 150.994 101.889 151.16 102.992L151.74 106.784C151.756 106.872 151.801 106.952 151.868 107.012C151.938 107.067 152.025 107.097 152.114 107.097C152.203 107.097 152.29 107.067 152.36 107.012C152.427 106.953 152.471 106.872 152.484 106.784L153.068 102.992C153.225 101.886 153.619 100.827 154.224 99.888C154.829 98.949 155.63 98.152 156.572 97.552L157.076 97.236C157.126 97.1993 157.167 97.1514 157.196 97.096C157.223 97.0399 157.237 96.9783 157.236 96.916C157.236 96.8539 157.222 96.7927 157.194 96.7371C157.166 96.6816 157.126 96.6333 157.076 96.596L156.572 96.28Z" fill="#57F287"/>
<path d="M31.76 47.7121C30.8178 47.1121 30.0167 46.3151 29.4119 45.3761C28.807 44.437 28.4127 43.3781 28.256 42.2721L27.672 38.4801C27.6597 38.3881 27.6159 38.3033 27.548 38.2401C27.5156 38.2072 27.477 38.1811 27.4344 38.1632C27.3918 38.1454 27.3461 38.1362 27.3 38.1362C27.2538 38.1362 27.2081 38.1454 27.1656 38.1632C27.123 38.1811 27.0844 38.2072 27.052 38.2401C26.9856 38.3044 26.942 38.3887 26.928 38.4801L26.348 42.2721C26.182 43.3751 25.7838 44.4304 25.1798 45.3681C24.5758 46.3059 23.7796 47.1048 22.844 47.7121L22.34 48.0281C22.2888 48.0638 22.2475 48.112 22.22 48.1681C22.1907 48.2234 22.1769 48.2856 22.18 48.3481C22.1775 48.4106 22.1913 48.4726 22.22 48.5281C22.2466 48.5837 22.2881 48.6308 22.34 48.6641L22.844 48.9841C23.7801 49.59 24.5766 50.388 25.1807 51.3252C25.7848 52.2624 26.1827 53.3174 26.348 54.4201L26.928 58.2121C26.9431 58.3017 26.9882 58.3835 27.056 58.4441C27.1263 58.4989 27.2129 58.5287 27.302 58.5287C27.3911 58.5287 27.4777 58.4989 27.548 58.4441C27.6165 58.3847 27.6607 58.3021 27.672 58.2121L28.256 54.4201C28.4151 53.316 28.8093 52.2588 29.412 51.3201C30.0158 50.3802 30.8171 49.5831 31.76 48.9841L32.264 48.6641C32.3158 48.6308 32.3574 48.5837 32.384 48.5281C32.4112 48.472 32.4249 48.4104 32.424 48.3481C32.4249 48.2858 32.4112 48.2242 32.384 48.1681C32.3565 48.112 32.3152 48.0638 32.264 48.0281L31.76 47.7121Z" fill="#8CD9FF"/>
<path d="M169.716 111.008C169.05 110.586 168.483 110.023 168.056 109.36C167.637 108.694 167.364 107.947 167.256 107.168L166.856 104.492C166.848 104.428 166.817 104.369 166.769 104.327C166.721 104.284 166.658 104.26 166.594 104.26C166.53 104.26 166.467 104.284 166.419 104.327C166.371 104.369 166.34 104.428 166.332 104.492L165.932 107.168C165.816 107.947 165.535 108.692 165.109 109.354C164.683 110.016 164.121 110.58 163.46 111.008L163.1 111.232C163.065 111.259 163.036 111.293 163.016 111.332C162.997 111.372 162.987 111.416 162.988 111.46C162.987 111.504 162.997 111.547 163.017 111.586C163.036 111.625 163.065 111.658 163.1 111.684L163.46 111.908C164.121 112.336 164.683 112.9 165.109 113.562C165.535 114.224 165.816 114.969 165.932 115.748L166.332 118.428C166.341 118.49 166.372 118.547 166.42 118.588C166.468 118.629 166.53 118.652 166.594 118.652C166.658 118.652 166.719 118.629 166.768 118.588C166.816 118.547 166.847 118.49 166.856 118.428L167.256 115.748C167.364 114.969 167.637 114.222 168.056 113.556C168.484 112.894 169.05 112.332 169.716 111.908L170.072 111.684C170.107 111.658 170.136 111.625 170.155 111.586C170.175 111.547 170.185 111.504 170.184 111.46C170.185 111.416 170.175 111.372 170.156 111.332C170.136 111.293 170.107 111.259 170.072 111.232L169.716 111.008Z" fill="#FF78B9"/>
<path d="M125.068 20.256C124.404 19.831 123.839 19.2675 123.412 18.604C122.989 17.9418 122.716 17.195 122.612 16.416L122.212 13.736C122.202 13.672 122.171 13.6131 122.124 13.568C122.102 13.5438 122.074 13.5245 122.044 13.5113C122.014 13.498 121.981 13.4912 121.948 13.4912C121.915 13.4912 121.882 13.498 121.852 13.5113C121.822 13.5245 121.794 13.5438 121.772 13.568C121.724 13.6119 121.693 13.6714 121.684 13.736L121.284 16.416C121.169 17.1951 120.889 17.9406 120.462 18.6028C120.036 19.265 119.473 19.8286 118.812 20.256L118.456 20.48C118.421 20.505 118.392 20.5379 118.372 20.576C118.354 20.6162 118.344 20.6599 118.344 20.704C118.344 20.7482 118.354 20.7919 118.372 20.832C118.391 20.8709 118.42 20.9041 118.456 20.928L118.812 21.156C119.474 21.5825 120.038 22.1458 120.464 22.8082C120.89 23.4706 121.17 24.2166 121.284 24.996L121.684 27.672C121.696 27.7354 121.728 27.793 121.776 27.836C121.825 27.875 121.885 27.8962 121.948 27.8962C122.01 27.8962 122.071 27.875 122.12 27.836C122.168 27.793 122.2 27.7354 122.212 27.672L122.612 24.996C122.722 24.2155 123 23.468 123.427 22.8052C123.854 22.1423 124.419 21.5797 125.084 21.156L125.44 20.928C125.476 20.9041 125.505 20.8709 125.524 20.832C125.542 20.7919 125.552 20.7482 125.552 20.704C125.552 20.6599 125.542 20.6162 125.524 20.576C125.504 20.5379 125.475 20.505 125.44 20.48L125.068 20.256Z" fill="#FF78B9"/>
<path d="M46.8 89.2599C46.8 89.2599 57.64 87.4999 62.828 94.2639C68.016 101.028 70.332 115.94 51.712 116.96C51.712 116.96 54.212 115.384 54.676 111.032C54.676 111.032 44.02 121.776 30.404 113.532C30.404 113.532 34.004 111.708 37.076 101.584C39.832 92.5519 50.8 93.5199 50.8 93.5199C50.8 93.5199 49.76 91.2999 46.8 89.2599Z" fill="#EB459F"/>
<path d="M50.52 103.396C50.52 103.396 59.06 88.0519 64.96 94.9559C69.88 100.712 65.6 106.876 50.52 103.396Z" fill="#FF78B9"/>
<path d="M56.196 84.336C59.9456 82.411 64.3063 82.0545 68.3189 83.3447C72.3314 84.635 75.667 87.4664 77.592 91.216C79.5169 94.9656 79.8735 99.3264 78.5832 103.339C77.293 107.351 74.4616 110.687 70.712 112.612L70.616 112.66L56.1 84.4L56.196 84.336Z" fill="url(#paint0_linear_732_107803)"/>
<path d="M74.184 93.424C74.247 93.3981 74.3041 93.3597 74.3517 93.311C74.3993 93.2623 74.4365 93.2044 74.4609 93.1408C74.4854 93.0772 74.4965 93.0093 74.4938 92.9413C74.4911 92.8732 74.4744 92.8065 74.445 92.7451C74.4155 92.6837 74.3738 92.6289 74.3224 92.5842C74.271 92.5395 74.2111 92.5058 74.1462 92.4851C74.0813 92.4644 74.0129 92.4572 73.9451 92.4638C73.8773 92.4705 73.8116 92.491 73.752 92.524L62.952 97.724L63.408 98.612L74.184 93.424Z" fill="#ED5F00"/>
<path d="M58.664 89.38C61.688 88.26 67.32 86.736 72.716 88.332C72.779 88.3507 72.8451 88.3567 72.9105 88.3498C72.9759 88.343 73.0393 88.3232 73.097 88.2919C73.1548 88.2605 73.2058 88.218 73.2471 88.1669C73.2885 88.1158 73.3194 88.0571 73.338 87.994C73.3567 87.931 73.3627 87.8649 73.3558 87.7995C73.3489 87.7342 73.3292 87.6708 73.2978 87.613C73.2664 87.5553 73.224 87.5043 73.1729 87.4629C73.1218 87.4216 73.063 87.3907 73 87.372C67.2 85.66 61.308 87.292 58.2 88.472L58.664 89.38Z" fill="#ED5F00"/>
<path d="M77.528 96.092C77.5646 95.9642 77.5489 95.827 77.4844 95.7108C77.4199 95.5945 77.3118 95.5086 77.184 95.472C77.0562 95.4354 76.919 95.4511 76.8028 95.5156C76.6865 95.5801 76.6006 95.6882 76.564 95.816C74.964 101.416 70.396 105.444 67.872 107.312L68.34 108.224C70.944 106.336 75.792 102.148 77.528 96.092Z" fill="#ED5F00"/>
<path d="M109.136 51.488C112.104 51.544 115.396 51.208 119.328 50.808C119.848 50.7687 120.355 50.6255 120.819 50.387C121.283 50.1484 121.694 49.8193 122.029 49.4191C122.363 49.0189 122.614 48.5558 122.767 48.057C122.92 47.5581 122.971 47.0338 122.917 46.5149C122.864 45.9961 122.707 45.4932 122.456 45.0359C122.205 44.5787 121.864 44.1764 121.455 43.8529C121.046 43.5293 120.576 43.291 120.074 43.1521C119.571 43.0132 119.045 42.9764 118.528 43.044C111.94 43.716 108.364 44.028 105.412 43.176C102.568 42.376 99.776 40.26 95.108 35.436C94.7589 35.0392 94.3328 34.7174 93.8556 34.4901C93.3785 34.2629 92.8601 34.1349 92.332 34.1139C91.8039 34.0929 91.277 34.1794 90.7833 34.3681C90.2896 34.5568 89.8394 34.8437 89.4598 35.2116C89.0803 35.5794 88.7795 36.0205 88.5755 36.5081C88.3715 36.9957 88.2687 37.5196 88.2732 38.0481C88.2777 38.5766 88.3894 39.0987 88.6017 39.5827C88.8139 40.0668 89.1223 40.5026 89.508 40.864C94.356 45.872 98.348 49.264 103.26 50.676C105.174 51.205 107.15 51.478 109.136 51.488Z" fill="url(#paint1_linear_732_107803)"/>
<path d="M85.404 70.2759L72.244 61.5999C66.4842 57.8027 59.5172 56.2855 52.7 57.3439L47.1 58.2119C46.718 58.2723 46.3625 58.4449 46.0786 58.7077C45.7948 58.9705 45.5955 59.3117 45.5059 59.688C45.4163 60.0643 45.4405 60.4587 45.5755 60.8212C45.7105 61.1837 45.9501 61.4979 46.264 61.7239L66.876 76.4999L85.404 70.2759Z" fill="url(#paint2_linear_732_107803)"/>
<path d="M99.024 96.8L98.4 112.56C98.1324 119.454 95.3043 126 90.468 130.92L86.508 134.952C86.2361 135.227 85.8888 135.415 85.5099 135.492C85.1311 135.569 84.7379 135.532 84.3801 135.386C84.0223 135.239 83.7161 134.99 83.5003 134.669C83.2845 134.348 83.1689 133.971 83.168 133.584V108.22L99.024 96.8Z" fill="url(#paint3_linear_732_107803)"/>
<path d="M78.048 108.528L63.792 80.752C63.4685 80.1212 63.4086 79.3878 63.6253 78.7129C63.8421 78.0379 64.3177 77.4765 64.948 77.152L133.956 41.728C133.956 41.728 148.32 35 163.88 43.676C164.779 44.1728 165.51 44.9246 165.982 45.8364C166.454 46.7483 166.645 47.7795 166.532 48.8C164.588 65.516 150.66 74.248 150.66 74.248L81.652 109.688C81.3392 109.849 80.9978 109.946 80.6474 109.975C80.2969 110.003 79.9443 109.963 79.6096 109.855C79.2749 109.747 78.9647 109.574 78.6967 109.347C78.4288 109.119 78.2083 108.841 78.048 108.528Z" fill="url(#paint4_linear_732_107803)"/>
<path d="M124.472 79.336C131.201 79.336 136.656 73.8811 136.656 67.152C136.656 60.423 131.201 54.968 124.472 54.968C117.743 54.968 112.288 60.423 112.288 67.152C112.288 73.8811 117.743 79.336 124.472 79.336Z" fill="black"/>
<path d="M124.488 80.3441C121.256 80.3544 118.133 79.1789 115.711 77.0403C113.288 74.9017 111.734 71.9487 111.343 68.7408C110.952 65.5329 111.751 62.2931 113.59 59.6353C115.428 56.9775 118.177 55.0864 121.317 54.3203C124.456 53.5543 127.768 53.9666 130.624 55.479C133.479 56.9914 135.681 59.499 136.812 62.5264C137.942 65.5538 137.923 68.8907 136.757 71.9049C135.592 74.919 133.361 77.4008 130.488 78.8801C128.632 79.8356 126.576 80.3374 124.488 80.3441ZM124.452 55.968C122.01 55.9708 119.636 56.7715 117.692 58.2482C115.747 59.7248 114.338 61.7965 113.68 64.1478C113.021 66.4991 113.149 69.0012 114.044 71.273C114.939 73.5448 116.552 75.462 118.637 76.7325C120.722 78.003 123.166 78.5573 125.595 78.3109C128.024 78.0645 130.306 77.031 132.094 75.3678C133.882 73.7045 135.077 71.5026 135.497 69.0973C135.918 66.6921 135.541 64.2153 134.424 62.044C133.488 60.2068 132.06 58.6658 130.299 57.593C128.538 56.5201 126.514 55.9575 124.452 55.968Z" fill="#ED5F00"/>
<path d="M85.368 50.4001C88.168 48.9161 91.056 46.9001 94.512 44.4881C95.0005 44.1938 95.4233 43.8022 95.7541 43.3376C96.0849 42.8731 96.3167 42.3455 96.435 41.7876C96.5533 41.2297 96.5556 40.6534 96.4418 40.0946C96.328 39.5357 96.1005 39.0063 95.7735 38.539C95.4464 38.0718 95.0268 37.6769 94.5407 37.3787C94.0545 37.0804 93.5123 36.8854 92.9476 36.8056C92.3829 36.7258 91.8078 36.7629 91.2581 36.9147C90.7084 37.0666 90.1957 37.3298 89.752 37.6881C83.96 41.6961 80.8 43.8401 77.6 44.5761C74.524 45.2881 70.836 44.7801 64 42.7001C62.9589 42.429 61.8533 42.5719 60.9152 43.0986C59.9772 43.6253 59.2797 44.495 58.9691 45.525C58.6585 46.555 58.7591 47.6653 59.2496 48.6228C59.7402 49.5802 60.5826 50.3104 61.6 50.6601C68.708 52.8201 74.184 53.9081 79.496 52.6601C81.5443 52.1684 83.5186 51.4085 85.368 50.4001Z" fill="url(#paint5_linear_732_107803)"/>
<path d="M104.676 48.524C103.52 44 102.676 41.624 99.292 37.176L80.552 41.388C79.884 51.756 77.864 55.312 78.284 58.96C78.616 61.86 81.636 66.232 87.484 66.328C93.332 66.424 96.26 62.728 100.644 59.708C105.028 56.688 105.664 52.4 104.676 48.524Z" fill="#7196FF"/>
<path d="M76.876 12.9401C71.84 13.8081 75.676 19.1001 77.036 20.1401L88.856 17.2441C81.324 16.7121 80.8 12.2601 76.876 12.9401Z" fill="#55EF84"/>
<path d="M82.176 18.9239C82.1088 18.9245 82.0422 18.9113 81.9803 18.8852C81.9184 18.859 81.8625 18.8205 81.816 18.7719C81.76 18.7119 75.816 12.6639 71.712 13.9239C71.6487 13.9452 71.5817 13.9536 71.515 13.9486C71.4483 13.9436 71.3834 13.9253 71.3239 13.8947C71.2645 13.8642 71.2117 13.822 71.1689 13.7707C71.126 13.7194 71.0938 13.66 71.0743 13.5961C71.0548 13.5322 71.0483 13.465 71.0552 13.3985C71.0621 13.332 71.0822 13.2675 71.1144 13.209C71.1467 13.1504 71.1903 13.0989 71.2428 13.0575C71.2953 13.0161 71.3556 12.9856 71.42 12.9679C76.112 11.5319 82.276 17.8079 82.536 18.0759C82.5826 18.1224 82.6195 18.1775 82.6447 18.2383C82.6699 18.299 82.6829 18.3641 82.6829 18.4299C82.6829 18.4957 82.6699 18.5608 82.6447 18.6215C82.6195 18.6823 82.5826 18.7375 82.536 18.7839C82.4391 18.8762 82.3098 18.9265 82.176 18.9239Z" fill="black"/>
<path d="M92.284 15.5281C95.56 14.2841 98.416 6.6801 92.952 4.9081C91.8809 4.57844 90.7404 4.54526 89.652 4.8121C80.488 6.8841 87.116 17.1481 79.436 18.9361L92.284 15.5281Z" fill="#47C26E"/>
<path d="M86.888 18.504C86.7947 18.5033 86.7034 18.4768 86.6243 18.4274C86.5453 18.3779 86.4814 18.3075 86.44 18.224C86.4105 18.1655 86.393 18.1017 86.3883 18.0364C86.3836 17.971 86.3919 17.9054 86.4128 17.8433C86.4336 17.7812 86.4665 17.7238 86.5096 17.6745C86.5527 17.6252 86.6052 17.5849 86.664 17.556C90.792 15.496 91.02 9.32398 91.02 9.25998C91.021 9.19397 91.0352 9.12885 91.0619 9.06847C91.0886 9.00809 91.1272 8.95371 91.1753 8.90855C91.2235 8.86338 91.2802 8.82837 91.3422 8.8056C91.4041 8.78282 91.47 8.77275 91.536 8.77598C91.6015 8.77753 91.666 8.79204 91.7258 8.81866C91.7857 8.84529 91.8397 8.88351 91.8847 8.93111C91.9297 8.97871 91.9648 9.03476 91.988 9.09601C92.0112 9.15726 92.0221 9.22251 92.02 9.28798C92.02 9.56798 91.78 16.124 87.108 18.452C87.0397 18.4862 86.9644 18.504 86.888 18.504Z" fill="black"/>
<path d="M101.22 18.3639C106.02 17.6559 107.476 16.8959 108.652 24.7639C109.744 31.7719 108.716 31.5199 103.052 32.3279L101.22 18.3639Z" fill="url(#paint6_linear_732_107803)"/>
<path d="M102.156 19.9999C105.512 19.5039 106.588 18.3319 107.356 24.4679C107.976 29.3959 107.4 29.1999 103.428 29.7639L102.156 19.9999Z" fill="#B6CBFF"/>
<path d="M98.0256 40.3069L80.8827 43.2506C78.1814 43.7144 75.4065 43.0871 73.1674 41.5062C70.9284 39.9254 69.4084 37.5205 68.9414 34.8197L67.5678 26.8205C67.1965 24.6581 67.6994 22.4366 68.9659 20.645C70.2325 18.8533 72.1589 17.6381 74.3214 17.2668L94.3154 13.8335C96.4779 13.4621 98.6993 13.965 100.491 15.2316C102.283 16.4981 103.498 18.4245 103.869 20.587L105.452 29.8019C105.86 32.1797 105.307 34.6223 103.914 36.5923C102.522 38.5624 100.403 39.8985 98.0256 40.3069Z" fill="#7196FF"/>
<path d="M77.0116 28.9329C77.9139 28.7707 78.4876 27.7614 78.293 26.6786C78.0984 25.5959 77.2091 24.8496 76.3068 25.0117C75.4045 25.1739 74.8308 26.1832 75.0254 27.266C75.22 28.3488 76.1093 29.0951 77.0116 28.9329Z" fill="black"/>
<path d="M95.1561 33.5729L87.1195 34.9395C85.7327 35.1753 84.309 34.8505 83.1616 34.0366C82.0143 33.2227 81.2372 31.9864 81.0014 30.5996L80.5126 27.7249C80.3446 26.7365 80.576 25.7219 81.156 24.9042C81.7361 24.0866 82.6171 23.5328 83.6055 23.3647L94.647 21.4873C95.6353 21.3192 96.6499 21.5507 97.4676 22.1307C98.2853 22.7107 98.8391 23.5918 99.0072 24.5801L99.496 27.4549C99.7318 28.8417 99.407 30.2654 98.5931 31.4127C97.7793 32.5601 96.5429 33.3371 95.1561 33.5729Z" fill="#B6CBFF"/>
<path d="M101.825 24.6155C102.727 24.4533 103.301 23.4441 103.106 22.3613C102.911 21.2785 102.022 20.5322 101.12 20.6944C100.218 20.8566 99.6439 21.8658 99.8385 22.9486C100.033 24.0314 100.922 24.7777 101.825 24.6155Z" fill="black"/>
<path d="M85.404 36.9521C84.4284 36.7958 83.4657 36.5671 82.524 36.2681C82.4383 36.2415 82.3469 36.239 82.2598 36.2609C82.1728 36.2828 82.0935 36.3283 82.0306 36.3924C81.9678 36.4565 81.9238 36.5367 81.9036 36.6241C81.8834 36.7116 81.8877 36.8029 81.916 36.8881C82.508 38.5961 83.964 41.6881 85.768 37.6321C85.7992 37.5642 85.8142 37.49 85.8119 37.4154C85.8096 37.3407 85.7901 37.2676 85.7549 37.2017C85.7196 37.1359 85.6696 37.0791 85.6087 37.0358C85.5478 36.9924 85.4778 36.9638 85.404 36.9521Z" fill="black"/>
<path d="M85.236 38.648C83.976 40.62 82.932 39.256 82.296 37.848C82.807 37.6481 83.3688 37.618 83.8983 37.762C84.4277 37.9061 84.8967 38.2167 85.236 38.648Z" fill="#FF78B7"/>
<path d="M90.3473 31.1376L86.8338 31.7356C86.4505 31.8009 86.1927 32.1645 86.2579 32.5478L86.2599 32.5596C86.3252 32.9429 86.6888 33.2007 87.0721 33.1355L90.5855 32.5374C90.9688 32.4722 91.2267 32.1086 91.1614 31.7253L91.1594 31.7135C91.0942 31.3302 90.7306 31.0723 90.3473 31.1376Z" fill="#7FA0FF"/>
<path d="M95.7496 30.2695L92.9933 30.7387C92.6056 30.8047 92.3447 31.1715 92.4105 31.5581C92.4763 31.9446 92.8439 32.2045 93.2316 32.1385L95.9879 31.6694C96.3756 31.6034 96.6365 31.2365 96.5707 30.85C96.5049 30.4634 96.1373 30.2035 95.7496 30.2695Z" fill="#7FA0FF"/>
<path d="M69.3 23.6001C64.044 24.5241 62.328 24.2521 63.652 32.0761C64.792 39.0761 66.096 38.4481 71.736 37.4481L69.3 23.6001Z" fill="url(#paint7_linear_732_107803)"/>
<path d="M69.376 25.1321L71.284 35.0121C66.54 35.7561 66.544 35.4401 65.512 30.1161C64.676 25.7881 65.644 25.7001 69.376 25.1321Z" fill="#B6CBFF"/>
<path d="M92 54.904C104.588 51.068 107.6 54.704 105.86 65.652C104.988 71.192 105.128 76.536 100.064 76.452C92.1 76.316 94.98 69.596 95.208 63.58C95.208 63.58 92.676 64.112 90.564 64.476C88.452 64.84 86.512 63.096 86.88 59.736C87.248 56.376 89.512 55.66 92 54.904Z" fill="url(#paint8_linear_732_107803)"/>
<path d="M91.404 55.3799C91.2897 55.3796 91.1789 55.3402 91.0902 55.2682C91.0014 55.1962 90.94 55.096 90.9161 54.9842C90.8922 54.8724 90.9074 54.7559 90.9591 54.6539C91.0107 54.5519 91.0958 54.4708 91.2 54.4239C93.4356 53.4767 95.849 53.0224 98.276 53.0919C98.4086 53.095 98.5348 53.1499 98.6275 53.2448C98.7202 53.3398 98.772 53.4672 98.772 53.5999C98.7699 53.7311 98.7163 53.8562 98.6228 53.9483C98.5292 54.0403 98.4032 54.0919 98.272 54.0919C95.9844 54.0218 93.7086 54.4461 91.6 55.3359C91.538 55.3628 91.4715 55.3777 91.404 55.3799Z" fill="#5783FF"/>
<path d="M95.692 63.2C95.5849 63.2006 95.4807 63.1654 95.396 63.1C95.3432 63.0609 95.2985 63.0117 95.2647 62.9554C95.2309 62.899 95.2085 62.8366 95.1988 62.7715C95.1892 62.7065 95.1924 62.6402 95.2084 62.5765C95.2244 62.5127 95.2528 62.4528 95.292 62.4L97.292 59.74C97.3291 59.6823 97.3776 59.6328 97.4346 59.5947C97.4916 59.5566 97.5558 59.5306 97.6233 59.5183C97.6907 59.506 97.76 59.5078 97.8268 59.5235C97.8935 59.5391 97.9564 59.5683 98.0114 59.6093C98.0664 59.6503 98.1123 59.7021 98.1464 59.7616C98.1805 59.8211 98.202 59.887 98.2096 59.9551C98.2172 60.0233 98.2106 60.0923 98.1904 60.1578C98.1702 60.2233 98.1367 60.284 98.092 60.336L96.092 62.996C96.0454 63.0584 95.9851 63.1092 95.9158 63.1446C95.8464 63.1799 95.7698 63.1989 95.692 63.2Z" fill="#5783FF"/>
<path d="M79.892 52.9241C79.7909 52.9239 79.6922 52.8932 79.6087 52.8361C79.5253 52.7791 79.4609 52.6982 79.424 52.6041C79.4001 52.5427 79.3887 52.4771 79.3903 52.4112C79.3919 52.3454 79.4065 52.2804 79.4332 52.2202C79.46 52.16 79.4984 52.1057 79.5462 52.0603C79.5941 52.015 79.6504 51.9796 79.712 51.9561L83.34 50.5521C83.4012 50.5282 83.4665 50.5166 83.5322 50.5179C83.5978 50.5193 83.6626 50.5335 83.7228 50.5599C83.783 50.5863 83.8374 50.6242 83.8829 50.6716C83.9284 50.719 83.9641 50.7749 83.988 50.8361C84.0119 50.8973 84.0235 50.9626 84.0222 51.0283C84.0208 51.094 84.0066 51.1587 83.9802 51.2189C83.9538 51.2791 83.9158 51.3335 83.8685 51.379C83.8211 51.4245 83.7652 51.4602 83.704 51.4841L80.072 52.8881C80.0148 52.9116 79.9537 52.9238 79.892 52.9241Z" fill="#5783FF"/>
<path d="M163.88 43.6721C148.32 34.9961 133.956 41.7241 133.956 41.7241L141.78 56.9681L150.66 74.2641C150.66 74.2641 164.588 65.5321 166.532 48.8161C166.649 47.7924 166.46 46.7569 165.988 45.841C165.516 44.9252 164.782 44.1703 163.88 43.6721Z" fill="url(#paint9_linear_732_107803)"/>
<path d="M147.044 46.2399C149.872 46.2399 152.164 45.3104 152.164 44.1639C152.164 43.0173 149.872 42.0879 147.044 42.0879C144.216 42.0879 141.924 43.0173 141.924 44.1639C141.924 45.3104 144.216 46.2399 147.044 46.2399Z" fill="white"/>
<path d="M112.584 88.216L90.104 99.668C88.905 100.279 87.9977 101.341 87.5814 102.62C87.1651 103.9 87.274 105.293 87.884 106.492L119.26 90.4C118.965 89.818 118.559 89.2998 118.064 88.875C117.569 88.4502 116.995 88.1271 116.375 87.9243C115.755 87.7214 115.101 87.6428 114.45 87.6929C113.8 87.7429 113.166 87.9207 112.584 88.216Z" fill="#8E99A5"/>
<path d="M97 91.664C96.7692 91.1939 96.3738 90.825 95.8889 90.6273C95.404 90.4296 94.8634 90.4169 94.3698 90.5917C93.8761 90.7664 93.4639 91.1164 93.2114 91.5752C92.9588 92.0339 92.8836 92.5694 93 93.08L91.316 93.916C90.9812 93.5115 90.5095 93.2439 89.9905 93.164C89.4715 93.0841 88.9413 93.1975 88.5003 93.4826C88.0593 93.7677 87.7383 94.2048 87.5982 94.7108C87.458 95.2169 87.5084 95.7568 87.7399 96.2281C87.9714 96.6995 88.3678 97.0695 88.8539 97.268C89.3401 97.4665 89.8821 97.4797 90.3774 97.305C90.8726 97.1304 91.2865 96.7801 91.5406 96.3206C91.7947 95.8611 91.8714 95.3242 91.756 94.812L93.444 93.976C93.6935 94.2806 94.0232 94.5092 94.396 94.636C94.6614 94.728 94.9426 94.7659 95.2229 94.7474C95.5033 94.7288 95.777 94.6542 96.028 94.528C96.5357 94.2761 96.9228 93.8331 97.1042 93.2961C97.2857 92.7592 97.2468 92.1722 96.996 91.664H97ZM90.2 96.3C90.0663 96.3664 89.9208 96.4059 89.7719 96.4161C89.623 96.4264 89.4735 96.4071 89.332 96.3596C89.0461 96.2636 88.8102 96.058 88.676 95.788C88.5418 95.518 88.5203 95.2057 88.6164 94.9199C88.7124 94.6341 88.918 94.3982 89.188 94.264C89.3444 94.1853 89.5169 94.1442 89.692 94.144C89.8171 94.1441 89.9413 94.1643 90.06 94.204C90.2014 94.2508 90.3321 94.3255 90.4441 94.4238C90.5561 94.522 90.6472 94.6418 90.712 94.776C90.7781 94.9104 90.817 95.0565 90.8265 95.206C90.8359 95.3555 90.8157 95.5053 90.767 95.647C90.7183 95.7886 90.6421 95.9192 90.5427 96.0313C90.4433 96.1434 90.3228 96.2347 90.188 96.3H90.2ZM95.6 93.632C95.4665 93.6992 95.3208 93.7387 95.1717 93.7484C95.0226 93.758 94.873 93.7374 94.732 93.688C94.4832 93.6032 94.2716 93.4348 94.133 93.2115C93.9945 92.9881 93.9377 92.7237 93.9723 92.4632C94.0069 92.2027 94.1307 91.9622 94.3227 91.7827C94.5147 91.6033 94.763 91.496 95.0253 91.479C95.2875 91.4621 95.5475 91.5367 95.761 91.69C95.9745 91.8432 96.1282 92.0658 96.196 92.3197C96.2638 92.5736 96.2414 92.8432 96.1327 93.0825C96.0241 93.3217 95.8358 93.5159 95.6 93.632Z" fill="#8E99A5"/>
<defs>
<linearGradient id="paint0_linear_732_107803" x1="54.82" y1="103.992" x2="68.88" y2="95.064" gradientUnits="userSpaceOnUse">
<stop stop-color="#FFE75C"/>
<stop offset="1" stop-color="#FF8C19"/>
</linearGradient>
<linearGradient id="paint1_linear_732_107803" x1="114.506" y1="47.8306" x2="89.9059" y2="38.968" gradientUnits="userSpaceOnUse">
<stop stop-color="#7196FF"/>
<stop offset="0.2" stop-color="#6990FC"/>
<stop offset="0.49" stop-color="#547FF4"/>
<stop offset="0.67" stop-color="#4572EE"/>
</linearGradient>
<linearGradient id="paint2_linear_732_107803" x1="66.872" y1="62.5119" x2="47.464" y2="95.2439" gradientUnits="userSpaceOnUse">
<stop stop-color="#FF8C19"/>
<stop offset="0.55" stop-color="#FFE75C"/>
</linearGradient>
<linearGradient id="paint3_linear_732_107803" x1="50.316" y1="114.804" x2="96.748" y2="116.328" gradientUnits="userSpaceOnUse">
<stop offset="0.45" stop-color="#FFE75C"/>
<stop offset="0.95" stop-color="#FF8C19"/>
</linearGradient>
<linearGradient id="paint4_linear_732_107803" x1="129.388" y1="121.388" x2="113.896" y2="59.172" gradientUnits="userSpaceOnUse">
<stop offset="0.08" stop-color="#717F8E"/>
<stop offset="1" stop-color="#D3D7DB"/>
</linearGradient>
<linearGradient id="paint5_linear_732_107803" x1="88.9104" y1="44.5273" x2="61.3872" y2="49.1697" gradientUnits="userSpaceOnUse">
<stop offset="0.32" stop-color="#7196FF"/>
<stop offset="0.43" stop-color="#6A90FC"/>
<stop offset="0.74" stop-color="#5B84F6"/>
<stop offset="1" stop-color="#5680F4"/>
</linearGradient>
<linearGradient id="paint6_linear_732_107803" x1="106.131" y1="34.3263" x2="105.237" y2="22.7021" gradientUnits="userSpaceOnUse">
<stop stop-color="#4572EE"/>
<stop offset="1" stop-color="#7196FF"/>
</linearGradient>
<linearGradient id="paint7_linear_732_107803" x1="67.3171" y1="40.2871" x2="67.359" y2="28.5173" gradientUnits="userSpaceOnUse">
<stop stop-color="#4572EE"/>
<stop offset="1" stop-color="#7196FF"/>
</linearGradient>
<linearGradient id="paint8_linear_732_107803" x1="119.7" y1="67.084" x2="97.684" y2="64.676" gradientUnits="userSpaceOnUse">
<stop offset="0.32" stop-color="#4572F0"/>
<stop offset="0.52" stop-color="#4D79F3"/>
<stop offset="0.84" stop-color="#638BFA"/>
<stop offset="1" stop-color="#7196FF"/>
</linearGradient>
<linearGradient id="paint9_linear_732_107803" x1="169.584" y1="19.3401" x2="145.488" y2="55.7201" gradientUnits="userSpaceOnUse">
<stop offset="0.45" stop-color="#FFE75C"/>
<stop offset="1" stop-color="#FF8C19"/>
</linearGradient>
</defs>
</svg>
