<svg xmlns="http://www.w3.org/2000/svg" width="440" height="300" viewBox="0 0 440 300">
  <g fill="none" fill-rule="evenodd">
    <rect width="440" height="303" fill="#2F3136"/>
    <rect width="175.951" height="175.951" x="-123.559" y="32.441" fill="#18191C" transform="rotate(45 -35.584 120.416)"/>
    <circle cx="105.477" cy="-68.523" r="101.477" fill="#18191C"/>
    <circle cx="347.477" cy="378.114" r="101.477" fill="#18191C"/>
    <circle cx="260.484" cy="74.484" r="3.484" fill="#18191C"/>
    <circle cx="260.484" cy="95.484" r="3.484" fill="#18191C"/>
    <circle cx="239.097" cy="74.725" r="3.484" fill="#18191C"/>
    <circle cx="218.192" cy="74.725" r="3.484" fill="#18191C"/>
    <circle cx="197.287" cy="74.725" r="3.484" fill="#18191C"/>
    <circle cx="280.907" cy="74.725" r="3.484" fill="#18191C"/>
    <circle cx="301.812" cy="74.725" r="3.484" fill="#18191C"/>
    <circle cx="322.717" cy="74.725" r="3.484" fill="#18191C"/>
    <circle cx="239.097" cy="95.63" r="3.484" fill="#18191C"/>
    <circle cx="218.192" cy="95.63" r="3.484" fill="#18191C"/>
    <circle cx="197.287" cy="95.63" r="3.484" fill="#18191C"/>
    <circle cx="280.484" cy="95.484" r="3.484" fill="#18191C"/>
    <circle cx="301.812" cy="95.63" r="3.484" fill="#18191C"/>
    <circle cx="322.717" cy="95.63" r="3.484" fill="#18191C"/>
    <path fill="#18191C" d="M396.421239,-146.424134 L457.091836,-146.424134 L457.091836,200.924944 L396.421239,200.924944 C387.160531,200.924944 379.653243,193.417656 379.653243,184.156947 C379.653243,178.911333 382.108058,173.967982 386.287288,170.797728 L386.287288,170.797728 C402.92609,158.175972 406.182549,134.455603 393.560793,117.816801 C391.478904,115.072322 389.031767,112.625186 386.287288,110.543296 L384.64719,109.299161 C369.653622,97.9254364 366.71916,76.5505231 378.092884,61.5569558 C380.377104,58.5457518 383.146377,55.9355476 386.287288,53.8332426 L386.287288,53.8332426 C401.926702,43.3653194 406.119023,22.2011414 395.6511,6.56172791 C393.548795,3.42081668 390.93859,0.651544176 387.927386,-1.63267569 L384.64719,-4.12094621 C369.653622,-15.4946707 366.71916,-36.869584 378.092884,-51.8631513 C380.377104,-54.8743553 383.146377,-57.4845595 386.287288,-59.5868645 L386.287288,-59.5868645 C401.926702,-70.0547877 406.119023,-91.2189657 395.6511,-106.858379 C393.548795,-109.99929 390.93859,-112.768563 387.927386,-115.052783 L386.287288,-116.296918 C378.909195,-121.893745 377.465193,-132.411995 383.06202,-139.790089 C386.232273,-143.969319 391.175625,-146.424134 396.421239,-146.424134 Z" transform="rotate(-27 414.128 27.25)"/>
    <polygon fill="#18191C" points="314.876 142 369.751 251.751 260 251.751"/>
    <rect width="58" height="257.667" x="48.833" y="123.167" fill="#18191C" transform="rotate(90 77.833 252)"/>
    <circle cx="259.131" cy="12.009" r="3.484" fill="#18191C"/>
    <circle cx="238.226" cy="12.009" r="3.484" fill="#18191C"/>
    <circle cx="217.321" cy="12.009" r="3.484" fill="#18191C"/>
    <circle cx="196.416" cy="12.009" r="3.484" fill="#18191C"/>
    <circle cx="280.036" cy="12.009" r="3.484" fill="#18191C"/>
    <circle cx="300.941" cy="12.009" r="3.484" fill="#18191C"/>
    <circle cx="321.846" cy="12.009" r="3.484" fill="#18191C"/>
    <circle cx="259.131" cy="32.914" r="3.484" fill="#18191C"/>
    <circle cx="238.226" cy="32.914" r="3.484" fill="#18191C"/>
    <circle cx="217.321" cy="32.914" r="3.484" fill="#18191C"/>
    <circle cx="196.416" cy="32.914" r="3.484" fill="#18191C"/>
    <circle cx="280.036" cy="32.914" r="3.484" fill="#18191C"/>
    <circle cx="300.941" cy="32.914" r="3.484" fill="#18191C"/>
    <circle cx="321.846" cy="32.914" r="3.484" fill="#18191C"/>
    <circle cx="259.131" cy="53.819" r="3.484" fill="#18191C"/>
    <circle cx="238.226" cy="53.819" r="3.484" fill="#18191C"/>
    <circle cx="217.321" cy="53.819" r="3.484" fill="#18191C"/>
    <circle cx="196.416" cy="53.819" r="3.484" fill="#18191C"/>
    <circle cx="280.036" cy="53.819" r="3.484" fill="#18191C"/>
    <circle cx="300.941" cy="53.819" r="3.484" fill="#18191C"/>
    <circle cx="321.846" cy="53.819" r="3.484" fill="#18191C"/>
  </g>
</svg>
