<svg fill="none" height="332" viewBox="0 0 1064 332" width="1064" xmlns="http://www.w3.org/2000/svg" xmlns:xlink="http://www.w3.org/1999/xlink"><linearGradient id="a" gradientUnits="userSpaceOnUse" x1="531.5" x2="531.5" y1="22.1549" y2="382.633"><stop offset="0" stop-color="#4e1bf5"/><stop offset=".58" stop-color="#5e4eee"/><stop offset=".92" stop-color="#6668eb"/></linearGradient><linearGradient id="b" gradientUnits="userSpaceOnUse" x1="68.803" x2="91.2975" y1="105.223" y2="9.99476"><stop offset="0" stop-color="#5521ff"/><stop offset="1" stop-color="#4b1aeb"/></linearGradient><linearGradient id="c" gradientUnits="userSpaceOnUse" x1="482.768" x2="115.858" y1="11.4836" y2="290.754"><stop offset="0" stop-color="#5625f7"/><stop offset=".3" stop-color="#5930f9"/><stop offset=".81" stop-color="#624dfd"/><stop offset="1" stop-color="#6659ff"/></linearGradient><linearGradient id="d" gradientUnits="userSpaceOnUse" x1="843.056" x2="584.04" y1="16.9335" y2="179.953"><stop offset="0" stop-color="#5323f5"/><stop offset="1" stop-color="#5946f5"/></linearGradient><linearGradient id="e"><stop offset="0" stop-color="#5323f5"/><stop offset="1" stop-color="#5330f5"/></linearGradient><linearGradient id="f" gradientUnits="userSpaceOnUse" x1="758.458" x2="686.196" xlink:href="#e" y1="23.7353" y2="60.8454"/><linearGradient id="g" gradientUnits="userSpaceOnUse" x1="62563.9" x2="43002" xlink:href="#e" y1="1758.12" y2="17620.6"/><linearGradient id="h" gradientUnits="userSpaceOnUse" x1="87.68" x2="105.06" y1="250.8" y2="334.92"><stop offset="0" stop-color="#eb459f"/><stop offset=".38" stop-color="#dd2b90"/><stop offset=".73" stop-color="#d41b86"/><stop offset="1" stop-color="#d11583"/></linearGradient><linearGradient id="i" gradientUnits="userSpaceOnUse" x1="664.23" x2="571.65" y1="295.92" y2="295.92"><stop offset="0" stop-color="#6672ff"/><stop offset="1" stop-color="#808aff"/></linearGradient><linearGradient id="j" gradientUnits="userSpaceOnUse" x1="991.51" x2="970.22" y1="245.7" y2="245.7"><stop offset="0" stop-color="#ffe75c"/><stop offset="1" stop-color="#ffc619"/></linearGradient><linearGradient id="k"><stop offset="0" stop-color="#ff8c19"/><stop offset="1" stop-color="#ffc619"/></linearGradient><linearGradient id="l" gradientUnits="userSpaceOnUse" x1="988.63" x2="928.32" xlink:href="#k" y1="120.92" y2="259.6"/><linearGradient id="m" gradientUnits="userSpaceOnUse" x1="107889" x2="105350" xlink:href="#k" y1="2368.84" y2="7107.9"/><clipPath id="n"><path d="m0 7.99999c0-4.41827 3.58172-7.99999 8-7.99999h1048c4.42 0 8 3.58172 8 8v316c0 4.418-3.58 8-8 8h-1048.00003c-4.41828 0-7.99997-3.582-7.99997-8z"/></clipPath><clipPath id="o"><path d="m-1 0h1065v333h-1065z"/></clipPath><clipPath id="p"><path d="m0 0h1064v332h-1064z"/></clipPath><g clip-path="url(#n)"><g clip-path="url(#o)"><path d="m1064 0h-1065v333h1065z" fill="url(#a)"/><path d="m188.371 0c-102.7312 80.7324-189.371 198.446-189.371 198.446v-198.446z" fill="url(#b)"/><path d="m585.83 0c-194.283 127.784-488.5875 333-488.5875 333h-98.2425l410.925-333z" fill="url(#c)"/><path d="m913.757 0c-159.644 82.5942-353.25 188.122-353.25 188.122 51.493-46.036 208.85-158.5878 270.421-188.122z" fill="url(#d)"/><path d="m468.277 333c55.558-55.599 167.436-58.137 226.467-43.159 47.512-51.452 143.976-66.854 203.599-32.834 64.45 36.812 78.001 75.993 78.001 75.993z" fill="#7269ff"/><path d="m365.8 280.617c-23.29-44.259-83.167-38.42-122.464-11.34-70.972-19.379-192.5046 8.463-187.5078 63.723h500.8678c-20.58-51.96-128.817-77.094-190.896-52.383z" fill="#7269ff"/><path d="m649.01 333c-14.144-22.51-56.828-32.665-88.503-26.572-15.499-29.619-63.265-46.036-98.243-13.202-31.59-2.792-73.427 7.616-77.408 39.774z" fill="#7a73ff"/><path d="m686.698 319.714h-159.983c21.003-9.647 57.76-11.594 75.545-5.755 24.307-12.101 62.079-12.44 84.438 5.755z" fill="#8088ff"/><path d="m301.519 306.343h83.083c-18.717-8.039-57.336-7.447-83.083 0z" fill="#8088ff"/><path d="m685.766 73.37c53.61-42.905 86.132-64.14588 86.132-64.14588-40.906 7.53168-65.128 31.31128-86.132 64.14588z" fill="url(#f)"/><path d="m371.39 0c-44.209 33.1731-96.295 73.2854-155.155 120.337 28.964-45.1052 59.453-85.6407 94.092-120.337z" fill="url(#g)"/><path d="m762.074 41.8895 3.895-1.7772c.085 0 .085-.0846 0-.1692l-3.895-1.6925h-.085l-1.779-3.9774h-.169l-1.694 3.9774c-.022 0-.044.0089-.06.0248-.016.0158-.025.0374-.025.0598l-3.895 1.6925c-.085.0846-.085.1693 0 .1693l3.895 1.7771h.085l1.694 3.9774h.169l1.779-3.9774z" fill="#5047ff"/><path d="m676.027 263.015 3.98-1.693c.085-.084.085-.169 0-.169l-3.98-1.777-1.779-3.893c0-.084-.085-.084-.169 0l-1.694 3.893h-.085l-3.896 1.777c-.084 0-.084.085 0 .169l3.896 1.693h.085l1.694 3.893c.084.084.169.084.169 0z" fill="#8088ff"/><path d="m277.89 22.8488h-.254l-7.453 10.5782v.2538l7.453 10.5782h.254c2.541-3.6389 4.828-6.9393 7.453-10.5782v-.2538c-2.625-3.6389-4.912-6.9393-7.453-10.5782z" fill="#584fff"/><path d="m299.487 48.1517 2.456-1.1001c.084 0 .084-.0847 0-.0847l-2.456-1.1847-1.186-2.4541c0-.0847 0-.0847-.085 0l-1.101 2.4541-2.54 1.1847 2.54 1.1002 1.101 2.5387h.085l1.186-2.5387z" fill="#5047ff"/></g><g clip-path="url(#p)"><path d="m91.7988 188.613c7.4009-3.722 10.5642-12.379 7.0652-19.336s-12.3351-9.579-19.736-5.857-10.5641 12.38-7.0652 19.336c3.499 6.957 12.3351 9.579 19.736 5.857z" fill="#fff"/><path d="m92.4 188.3c-1.6813.91-3.5088 1.519-5.4 1.8h-.1c-.8916-.221-1.6942-.71-2.3-1.4-1-1.1-1.7-3.1 0-6.5s4-8.6 2.2-13.1c-.3784-.931-.9613-1.765-1.7057-2.44-.7443-.675-1.631-1.174-2.5943-1.46-1.3969-.435-2.8846-.488-4.3089-.154-1.4242.335-2.7332 1.044-3.7911 2.054.585-.649 1.2203-1.251 1.9-1.8h.1c.9599-.757 2.0824-1.281 3.2792-1.531 1.1969-.25 2.4353-.218 3.6179.092s2.2771.891 3.1973 1.696c.9201.805 1.6409 1.812 2.1056 2.943 2.1 5.2-.9 12-2.3 14.7s-1.3 3.2-.3 4.3 3.5 1.4 6.4.8z" fill="#66bcff"/><path d="m151.9 339.7c.2-10.5 5.9-15.6 8.5-17.6.284-.188.516-.445.673-.747.157-.303.234-.64.224-.981-.01-.34-.107-.673-.281-.965-.175-.293-.421-.536-.716-.707-1.6-1-5.2-1.4-13 .9-3 8.8 1.1 20.1 1.1 20.1z" fill="#000"/><path d="m135.1 247.7c8.8-16 17.8-25.6 13.6-45.7s-27.8-29.5-45.1-27.9-28.5 10.8-26.7 25.1c-4.2 1.4-17.7 3.3-7.3 37.6-14.5.3-33.6 1.8-39.8 18-3.4 9 .2 4.5 7.7 24.9-2 6.5-8 28.2-7.7 35.3-4.4 19.5-3 30.5-1.9 46.6h109.8c3.255-20.675 3.221-41.735-.1-62.4-5.1-26.9 37.8-8.8 37.8-21.5s-9.1-25.4-40.3-30z" fill="url(#h)"/><path d="m116.2 177.8c-.027 0-.052-.01-.071-.029-.018-.019-.029-.044-.029-.071-.114.001-.227-.023-.331-.069s-.197-.114-.273-.199c-.076-.086-.133-.186-.166-.295-.034-.109-.044-.224-.03-.337-.053-1.852-.566-3.662-1.491-5.268s-2.233-2.957-3.809-3.932c-.11-.061-.205-.145-.281-.245-.075-.101-.129-.216-.157-.338-.029-.123-.031-.25-.007-.373.024-.124.073-.241.145-.344.126-.218.33-.381.572-.455.241-.074.501-.055.728.055 2.904 1.807 4.985 4.679 5.8 8 1.245-1.44 3.003-2.337 4.9-2.5.131-.014.264-.001.391.036.127.038.244.101.347.185.102.083.187.186.249.303s.101.244.113.376c-.018.243-.116.473-.279.654s-.381.302-.621.346c-1.087.087-2.123.494-2.978 1.17-.854.677-1.489 1.592-1.822 2.63-.061.195-.18.366-.34.491-.161.125-.357.198-.56.209z" fill="#000"/><path d="m138.8 208.5c1.2 4.8 1 14.8 5 14.2s4-8.8 4-8.8z" fill="#000"/><path d="m98.3 232.4c-5.6-.6-9-2.3-12.3-5.4-1-1.5-1.8-2.9-2.5-4.2-2.1-4.2-4-9.6-1.2-12.3s3.3-1.8 5.4-.5c1.2336 1.273 2.4017 2.608 3.5 4 3.6 4.3 5.9 5 11.5 4.7 2.12-.139 4.226-.44 6.3-.9 2.9.3 5.2 1.4 5.7 4.5v.9c-1.4 3.5-8.2 10-16.4 9.2z" fill="#000"/><path d="m159.874 220.864c8.6-2.662 13.267-12.262 10.426-21.442-2.842-9.18-12.117-14.463-20.717-11.801-8.599 2.662-13.267 12.262-10.425 21.442 2.841 9.18 12.116 14.463 20.716 11.801z" fill="#fff"/><path d="m40.5 289.2c-39 3.7-50.5 2.8-54.8-6.8s-1.3-18.2 21.3-40.4c1.35093-1.316 2.39949-2.909 3.0729-4.671.6735-1.761.9557-3.648.8271-5.529-.3-4.2-1.4-8.6-3.5-14.6s-2.7-9.8-.6-11.5 5.1-1.1 7.5 2.6c3.4635 5.378 5.81 11.397 6.9 17.7 3.7-8.1 7.1-10 11-9s5.6 2.6 5.8 7.8c.047 4.477-.1868 8.952-.7 13.4l11.1 8.5z" fill="#eb459f"/><path d="m9.89999 279.9c-.16419-.011-.32311-.062-.46267-.15-.13955-.087-.25542-.207-.33733-.35-.07627-.097-.13181-.208-.16317-.328-.03135-.119-.03785-.243-.0191-.365.01876-.122.06237-.239.12813-.343.06576-.105.15226-.194.25414-.264 11.80001-7.8 23.70001-19.4 28.30001-24 .1811-.155.4116-.24.65-.24.2383 0 .4689.085.65.24.1771.185.284.426.3023.682s-.0533.51-.2023.718c-4.7 4.6-16.7 16.3-28.6 24.2z" fill="#000"/><path d="m181.9 246.1c7.5-1.8 12.4-1.8 14.9 2.2s1.2 7.5-1 10.9-10.3-.2-13.9-13.1z" fill="#eb459f"/><path d="m179.8 246.3c-3.8-4.5-5-8.4-6.1-13.9s-3.4-5.8-6-4.4-3.8 6.3-1.4 14z" fill="#eb459f"/><path d="m114.7 223.2c-9.8-6.8-21.2-3.7-28.7 3.8 2.7 4 6.7 7.9 12.3 8.5 8.2.9 16.6-6.2 16.4-12.3z" fill="#bf1378"/><path d="m94.6 230.9h-.4c-.236-.109-.4202-.306-.5135-.549-.0934-.242-.0885-.512.0135-.751 1.8-3.9 7.1-12.7 17.2-10.8.237.067.445.212.59.412.145.199.219.442.21.688-.024.133-.074.259-.148.372-.074.112-.17.209-.282.284-.112.074-.238.126-.37.15-.132.025-.268.023-.4-.006-8.4-1.6-13 5.4-15 9.7-.0978.15-.231.275-.3879.362s-.3327.134-.5121.138z" fill="#000"/><path d="m102.7 218c-5.6.4-7.5 0-11.1-4.4-1.1113-1.361-2.4269-2.542-3.9-3.5-.4 4.1 0 6 3.3 6.5.1 4.5 1.4 5.4 3.8 5.6s4.1-.4 4.9-2.1c.9 2.3 1.7 3.3 4.9 3s4.6-1.5 4.4-5.3c-2.102-.079-4.207-.012-6.3.2z" fill="#fff"/><path d="m108.7 208.7c-.9-1.6.1-3.6 2.6-5.3s6.3-2 8.8-.2 2.3 3.3 1.4 4.3-2.1.9-4.8.4c-1.93-.241-3.882.22-5.5 1.3-1.2.5-2.1.2-2.5-.5z" fill="#fff"/><path d="m90 194.3c3 .8 4.3 3.9 4.5 6s0 3.7-1.3 4-2.1-1.3-2.8-2.7-1.6-2.8-4.1-3.4c-.2922-.016-.5768-.099-.8317-.242-.2548-.144-.4731-.345-.6376-.587s-.271-.519-.311-.808c-.04-.29-.0125-.585.0803-.863.4-1.2 1.7-2.3 5.4-1.4z" fill="#fff"/><path d="m169.5 197.9c.548 1.396.761 2.902.622 4.395-.139 1.494-.626 2.934-1.422 4.205-.768 1.153-1.833 2.078-3.083 2.676-1.249.598-2.637.848-4.017.724-2.3-.3-6.4-1.9-9.1-9.7-1.6-4.4-4.7-7.3-8.3-7-1.5.1-3.3.9-4.5 3.5l-.6 1.6c.476-.928 1.19-1.712 2.068-2.275.879-.562 1.89-.881 2.932-.925 2.8-.1 5.3 2.1 6.6 5.7 3 8.8 8 10.6 10.6 11h1.1c1.423-.014 2.825-.344 4.105-.967 1.28-.622 2.406-1.522 3.295-2.633.462-.607.797-1.3.986-2.038.189-.739.228-1.508.114-2.262-.097-2.069-.572-4.102-1.4-6z" fill="#66bcff"/><path d="m116.7 207.9c2.7.5 4.1.5 4.8-.4l.2-.2c-.201-.773-.635-1.467-1.243-1.985-.609-.519-1.361-.838-2.157-.915-1.107-.155-2.232.107-3.156.735-.924.629-1.582 1.579-1.844 2.665v.4c1.096-.356 2.259-.459 3.4-.3z" fill="#000"/><path d="m89.6 200.3.8 1.3c.7 1.4 1.3 3.1 2.8 2.7s1.5-1.9 1.3-4c0-.3-.1-.6-.1-1l-1.4-.5c-.6478-.062-1.3006.043-1.8959.306s-1.1132.674-1.5041 1.194z" fill="#000"/><path d="m119.3 197c-.3.4-.9.2-2.2 0-1.116-.115-2.244.022-3.3.4-2.1.7-3.1.3-3.1-.6s1.8-2 5-2.1 3.9 1.7 3.6 2.3z" fill="#bf1378"/><path d="m90.6 190.4c-.1.5.6.7 1.8 1.3.9566.496 1.8062 1.176 2.5 2 1.5 1.8 2.5 2 3 1.2s-.5-2.6-3.1-4.5-4.2-.6-4.2 0z" fill="#bf1378"/><path d="m101.2 248.2c-1.8893.014-3.7722-.222-5.6-.7-3.2163-.86-6.2275-2.356-8.8555-4.4-2.6279-2.044-4.8193-4.594-6.4445-7.5-.0683-.109-.1123-.232-.129-.36s-.0057-.258.0322-.381c.038-.124.1019-.237.1877-.334.0857-.096.1911-.173.3091-.225.2156-.119.4675-.154.7073-.098.2399.055.4509.197.5927.398 1.4818 2.704 3.4946 5.081 5.9174 6.989 2.4229 1.907 5.2061 3.305 8.1826 4.111 5.9 1.5 12.2.3 18.1-3.4.111-.074.236-.125.367-.15s.266-.023.396.005c.131.028.254.082.364.158.109.077.202.174.273.287.099.22.124.466.07.701-.055.235-.184.445-.37.599-4.194 2.748-9.086 4.24-14.1 4.3z" fill="#d92c8c"/><path d="m27.7 230.6c-.2293-.012-.4491-.096-.6284-.239-.1794-.144-.3093-.34-.3716-.561-.3-2.3-.6-5.6-.6-5.8-.0141-.126-.0013-.254.0375-.375.0389-.121.1029-.233.188-.327.085-.095.1891-.17.3053-.221.1163-.052.2421-.078.3692-.077.5-.1.9.3 1 .9s.3 3.4.6 5.6c.03.251-.0358.503-.1842.707-.1483.204-.3683.344-.6158.393z" fill="#000"/><path d="m189 253.3h-.5c-.113-.071-.21-.164-.287-.273-.076-.11-.13-.233-.158-.364-.028-.13-.03-.265-.005-.396s.076-.256.15-.367l2.2-3c.061-.11.145-.205.245-.281.101-.075.216-.129.338-.157.123-.028.25-.031.373-.007.124.024.241.073.344.145.193.173.318.408.355.664.036.256-.018.516-.155.736l-2.1 3c-.098.112-.222.199-.362.251s-.29.069-.438.049z" fill="#000"/><path d="m170.9 295.1-20.3-17.5c-23.3 10.6-16.7 23.2-6.9 84h10.5c-6.2-50.8-9.1-61.2 16.7-66.5z" fill="#ffab19"/><path d="m148.5 304.8c-4.483-4.687-8.44-9.852-11.8-15.4-.311.75-.578 1.518-.8 2.3 3.252 5.187 7.003 10.043 11.2 14.5l3.8 3.7c.119-.71.286-1.412.5-2.1z" fill="#ff860d"/><path d="m238.4 304.5c-1.1 13.9-.2 23.7-11.6 40.9h7.9c10.9-16.3 13.3-22.6 13.8-36z" fill="#ffab19"/><path d="m242.1 319.8-4.8-1.3c-.121.626-.188 1.262-.2 1.9l4.6 1.2c1.6.5 3.3.8 5 1.2.1-.7.3-1.3.4-1.9z" fill="#ff860d"/><path d="m129.056 182.621c.312-.647-.848-1.851-2.59-2.689-1.741-.838-3.406-.993-3.717-.346-.312.647.848 1.851 2.59 2.689s3.406.993 3.717.346z" fill="#ff99ca"/><path d="m144.2 249.4-1.6-.4c-14.5 15.1-32.9 21.6-48 17s-22.7-21.6-25-29.2h-2c2.2 7.7 9.2 25.7 26.4 31 3.444 1.002 7.013 1.507 10.6 1.5 13.3 0 27.6-6.7 39.4-18.9.105-.142.177-.305.211-.478.035-.172.031-.351-.011-.522z" fill="#d92c8c"/><path d="m251 258.1c-.132.004-.262-.02-.383-.072s-.229-.13-.317-.228c-.794-1.032-1.265-2.275-1.354-3.574s.208-2.596.854-3.726c.126-.218.33-.381.572-.455.241-.074.501-.055.728.055.118.052.223.129.309.225.086.097.15.21.188.334.038.123.049.253.032.381s-.061.251-.129.36c-.438.786-.652 1.678-.616 2.578.035.9.317 1.772.816 2.522.082.091.144.197.183.312.04.116.055.238.046.359-.01.122-.044.24-.1.348-.057.109-.134.204-.229.281-.067.096-.157.174-.262.227-.105.052-.221.077-.338.073z" fill="#ffe75c"/><path d="m248.1 337.4c3.7-7.6 8.6-14.8 10.5-16.7s7.3-3 14.5 8.4c1.5 2.4-2.6 4.9-16.3 10.6z" fill="#000"/><path d="m68 337.9c-4.5-5.6-15.4-8.9-25.6-8.9-.3008 0-.5971-.072-.8647-.21-.2676-.137-.4987-.336-.6745-.58-.1757-.244-.291-.526-.3363-.823-.0454-.298-.0195-.602.0755-.887.139-.366.3422-.705.6-1 1.2784-1.328 2.8455-2.343 4.5797-2.967 1.7342-.625 3.5889-.841 5.4203-.633.3418.025.6752.118.9811.272.3059.155.5782.369.8012.629s.3924.562.4984.888c.1061.326.1466.669.1193 1.011 9.8 3.6 13.6 9.5 15.7 13.2z" fill="#000"/><path d="m53.5 306.7c.7 5.1-15.9 13.8-37.1 19.6-21.20001 5.8-38.8 6.3-39.5 1.2s16.29999-15.8 37.5-21.9c21.2-6.1 38.4-4 39.1 1.1z" fill="#000"/><path d="m422 308.2h-.3c-.197-.068-.36-.211-.454-.398-.093-.187-.11-.403-.046-.602 1.9-5.1 1.8-6-.8-10.7-.05-.098-.079-.205-.086-.314-.007-.11.009-.22.047-.323.037-.103.096-.198.171-.277.076-.08.167-.143.268-.186.086-.071.188-.12.297-.143.11-.023.223-.02.33.01.108.029.207.084.289.159s.145.169.184.274c2.8 5.1 2.9 6.5.9 12-.063.157-.175.291-.318.38-.144.09-.313.132-.482.12z" fill="#000"/><path d="m396.5 279.3c-2.193-2.544-3.98-5.411-5.3-8.5-1.334-2.982-1.951-6.236-1.8-9.5v-.2c-.001-.101.02-.201.061-.293s.102-.174.178-.241c.076-.066.166-.116.262-.144.097-.029.199-.036.299-.022.196-.002.386.069.533.198.148.129.243.308.267.502.34 2.87 1.295 5.633 2.8 8.1 1.622 2.425 3.537 4.642 5.7 6.6l.3.2c.465.406.755.975.811 1.59.056.614-.127 1.227-.511 1.71-.201.234-.446.426-.723.563-.276.137-.577.218-.885.236-.307.019-.616-.024-.907-.127-.29-.103-.558-.264-.785-.472z" fill="#000"/><path d="m430.4 283c-.182.006-.36-.051-.505-.16-.146-.109-.25-.264-.295-.44-1.6-5.5 1.2-12.9 7.9-15 .188-.032.382.005.545.103.164.098.287.252.348.433.06.181.054.378-.018.555-.072.176-.205.322-.375.409-2.584.913-4.724 2.775-5.987 5.207-1.263 2.433-1.553 5.254-.813 7.893.064.199.047.415-.046.602-.094.187-.257.33-.454.398z" fill="#ffe75c"/><path d="m442.7 284.8c-.132.004-.262-.02-.383-.072s-.229-.13-.317-.228c-1.8-2.4-3.1-3.9-3.8-4-.8 0-2 1.6-4 3.9-.135.155-.325.252-.53.27-.205.019-.409-.042-.57-.17-.092-.068-.168-.154-.224-.254-.055-.099-.089-.21-.098-.323-.01-.114.005-.228.044-.336.038-.107.099-.205.178-.287 2.5-3 3.7-4.4 5.2-4.4s2.7 1.5 5.1 4.6c.134.177.199.398.18.619-.018.222-.118.429-.28.581z" fill="#ffe75c"/><path d="m412.886 291.274c4.467-4.593 3.401-12.873-2.38-18.495-5.78-5.621-14.087-6.455-18.554-1.862-4.466 4.593-3.401 12.873 2.38 18.495 5.781 5.621 14.088 6.455 18.554 1.862z" fill="#000"/><path d="m413.2 276.4h-.1c.1.1.1.1.1 0z" fill="#ffe75c"/><path d="m398.6 272.5c8.9-2.2 12.6 1.4 14.2 3.3-3.4-4.9-9.2-8-14.6-7.4s-10.6 7.3-8.2 14.5c.631 2.033 1.688 3.907 3.1 5.5-.985-1.332-1.631-2.884-1.881-4.522-.251-1.637-.099-3.311.443-4.877.542-1.565 1.456-2.975 2.665-4.108s2.676-1.954 4.273-2.393z" fill="#ffe75c"/><path d="m415.7 284.4c-.046-1.458-.281-2.903-.7-4.3-.148-.375-.315-.742-.5-1.1-1.9-2.6-5.6-4-9.9-2s-6.1 6.6-5.8 10.7c.05.977.296 1.934.724 2.815.427.88 1.027 1.665 1.764 2.309.737.643 1.596 1.132 2.526 1.437.929.306 1.911.421 2.886.339 2.299-.183 4.458-1.179 6.089-2.81 1.632-1.632 2.628-3.791 2.811-6.09h-.3c.172-.42.306-.856.4-1.3z" fill="#ffe75c"/><path d="m413.5 252.2c4.691 8.446 5.841 18.407 3.2 27.7 0 0-12.6-5.4-17.8-12.6s-6.1-16.4-2.1-20.6 12.4-2.1 16.7 5.5z" fill="#fff"/><path d="m423.8 262.8c-3.232 5.138-5.059 11.035-5.3 17.1 0 0 6.2-3.2 9.5-7.7s5-10.1 3.9-12.7-5.1-1.4-8.1 3.3z" fill="#66bcff"/><path d="m298.4 310.1-.2.5c-2.1 6.6-11 10.9-23.2 12.1-3.2.4-4.9-2.4-5.8-4.2-.1 1.7-1.6 4.5-6.9 4.4-6.852-.427-13.649-1.498-20.3-3.2-5.721-1.441-11.335-3.279-16.8-5.5-2-.9-2-2.6-1.8-4.3-1.1 1.7-2.3 2.5-4.5 1.4-15.4-7.5-25.7-18.8-23-27.8s17.9-13.8 37-12.5c1.7.1 2.2 1 2.3 1.8.035.432-.088.862-.345 1.211-.257.35-.632.594-1.055.689l12.7 22.4 24.9-13c-.4-1.7.7-3.2 3.4-1.9 11.9 5.9 20.5 13.5 23 20.3.4 1.1-.5 2.1-2 2.4 1.02.364 1.861 1.108 2.345 2.077.485.969.576 2.088.255 3.123z" fill="#ffab19"/><path d="m290.2 305.1c-3 8.8-23.6 11.5-46.6 5.7s-40.1-18.4-36.8-27.6c2.2-6.2 13.1-9.2 27-8.5 9.3 6.2 12.3 17.5 12.7 22.4 3.7-6.5 16.4-12.8 24.9-13 13.2 6.3 21 14.5 18.8 21z" fill="#ffe75c"/><path d="m246.6 297h-.1c-9.3-7.3-22.8-11-40-11h-.1c.009.644.11 1.284.3 1.9 15.5 0 27.8 3.1 36.7 9.2-5.2.5-12.7 3.1-17.2 7.6l1.9.8c5.1-4.6 13.9-7 18-6.5s16.6 7 20.7 14.8h2.1c-3.4-7.5-12.5-13.1-18.9-15.6 14.2-2.5 29-.4 40.4 6.1.136-.725.17-1.466.1-2.2-12.5-6.7-28.8-8.6-43.9-5.1z" fill="#ff860d"/><path d="m207.737 322.518c13.63-11.933 8.194-40.436-12.142-63.665-20.335-23.229-47.87-32.388-61.5-20.455-13.63 11.932-8.194 40.436 12.142 63.665 20.335 23.229 47.87 32.387 61.5 20.455z" fill="#ffab19"/><path d="m213.7 326.1c.6 2.3-5.9 3.4-14.5 2.4s-14.8-2.8-16.6-5.9 4.9-5.7 15.2-3.6c8.7 1.7 15.3 4.8 15.9 7.1z" fill="#ff860d"/><path d="m204.526 311.033c9.839-9.046 4.025-31.375-12.984-49.873-17.009-18.497-38.773-26.158-48.611-17.112-9.839 9.047-4.025 31.376 12.984 49.873 17.009 18.498 38.773 26.159 48.611 17.112z" fill="#ffe75c"/><path d="m76.5 306c-29.3 8.6-57.2 4.5-61.7-9.3-3.4-10.7 3.9-21.1 19.5-29.5l.5-.2c3.7-1.9 5.4 1.5 4 3.4l27.3 12.4 21.4-27.5c-1.4-.4-1.3-2.9.8-3.2h.3c18.3-1 29.1 4.1 32.4 13.6 4.7 13.7-15.2 31.8-44.5 40.3z" fill="#ffab19"/><path d="m72.3 290.3-13.6 2.6c-2.5 16.8 1.8 26.6 10.6 53h7.1c-8-31.7-6.8-43.4-4.1-55.6z" fill="#ffab19"/><path d="m58.6 309.8.3 1.9c3.7333-.467 7.5333-1.167 11.4-2.1v-1.9c-4 .933-7.9 1.633-11.7 2.1z" fill="#ff860d"/><path d="m78.9 297.7c-25.2 8.3-50.5 6.4-56.5-4.2-4.2-7.6 2.9-17 16.4-23.1 8.5 0 20.2 6.3 27.3 12.4 3.8-10.8 12.6-23.2 21.4-27.5 13.1-1.1 22.7 1.6 26.3 8.1 6 10.6-9.6 26-34.9 34.3z" fill="#ffe75c"/><path d="m78.9 297.7c-25.2 8.3-50.5 6.4-56.5-4.2-4.2-7.6 2.9-17 16.4-23.1 8.5 0 20.2 6.3 27.3 12.4 3.8-10.8 12.6-23.2 21.4-27.5 13.1-1.1 22.7 1.6 26.3 8.1 6 10.6-9.6 26-34.9 34.3z" fill="#ffe75c"/><path d="m205.9 309.7c.511-.518.919-1.129 1.2-1.8-6.348-10.55-15.818-18.867-27.1-23.8 7.3-4.1 17.1-6.1 24-4.9-.327-.72-.694-1.421-1.1-2.1-7-.7-16.1 1.2-23.2 5 2.4-7 4.8-18.2 1.6-30.2l-2.5-1.9c4.2 12.7 1.4 24.9-1.1 32-8.4-13.9-20.7-25.1-37.6-34.1-.276.582-.51 1.184-.7 1.8 16.3 8.7 28.3 19.6 36.5 33.1-9.263-1.573-18.76-1.06-27.8 1.5l1.1 1.6c9.181-2.403 18.784-2.71 28.1-.9 3.1 4.1 4.7 17 3.4 27.2l1.8.7c1.2-8.7.4-20.5-2.3-26.7 12.9 5.9 21.7 15.9 25.7 23.5z" fill="#ff860d"/><path d="m66.1 282.7h-.1c-12.1-.6-29.1.5-44.3 9 .1902.584.4242 1.152.7 1.7h.1c13.5-7.7 28.7-9.3 40.2-9-5.1 3.2-12.2 9.8-15.7 18.3h2.1c4.2-9.4 13-16.3 17.4-18.1h.1c11.1-.4 19.8 3.5 24.5 8.1l1.8-.9c-4.3-4.5-12.4-8.9-23.6-9.1 13.6-9.5 33.1-14.2 45.7-13.5.083-.63.117-1.265.1-1.9-13.7-.7-35 4.7-49 15.4z" fill="#ff860d"/><path d="m403.6 363.1c-2.3.1-2.1-1.5-1.6-4 1.292-7.191 1.829-14.497 1.6-21.8-.446-7.422-1.997-14.735-4.6-21.7-.631-1.686-.668-3.536-.105-5.246.564-1.709 1.695-3.175 3.205-4.154 4-2.7 10-2.7 20.4-.5 12.4 2.8 17 5.7 15.6 10.7s-7.4 5-7.4 5c-1.332 8.027-5.021 15.477-10.6 21.4-5.6 5.8-10.3 10.3-13.7 17.4-.8 1.7-1.3 2.8-2.8 2.9z" fill="#ff860d"/><path d="m422.5 305.7c-10.4-2.2-16.4-2.2-20.4.5 2.9-1.8 6.6-.1 6.3 3.6-.158 1.525-.711 2.983-1.606 4.228s-2.099 2.235-3.494 2.872l27 6.3c.1-.6.3-1.2.4-1.8s6 0 7.4-5-3.2-7.9-15.6-10.7z" fill="#ffab19"/><path d="m430.7 321.4c-3.7-1.8-12.5-6.5-27.4-4.5 2.4 3.3 3.9 6.5 3.2 11.8s-1.3 8.5-.1 14.8c.518 3.191.208 6.462-.9 9.5-1.4 4.6-2.5 7.8-3 13.3s1.4 6 2.1 5.9 1.7-1.7 1.2-7c1.1-.3 1.9-1.7 2.6-4.8s3.6-7.7 6.7-10.9c6.2-6.2 14-13.6 15.6-28.1z" fill="#ffe75c"/><path d="m421.9 326.4c.124 1.162.392 2.304.8 3.4 1 2.7.5 4.8-1.9 4.8s-5.8-2.8-6.5-6.3.9-6.3 3.8-6.3 3.7 1.6 3.8 4.4z" fill="#eb459f"/><path d="m420.755 296.745c5.657-1.708 8.962-7.336 7.382-12.57s-7.448-8.093-13.105-6.385-8.962 7.336-7.382 12.57c1.581 5.235 7.448 8.093 13.105 6.385z" fill="#000"/><path d="m429.5 292.5c3.258 0 5.9-2.642 5.9-5.9s-2.642-5.9-5.9-5.9-5.9 2.642-5.9 5.9 2.642 5.9 5.9 5.9z" fill="#ffab19"/><path d="m414 307.2h-.4c-.093-.052-.174-.122-.239-.205-.065-.084-.113-.18-.141-.282s-.036-.209-.022-.315c.014-.105.049-.206.102-.298 3.3-6.2 3.9-7.7 1.3-10.9-.128-.161-.189-.365-.17-.57.018-.205.115-.395.27-.53.082-.079.18-.14.287-.178.108-.039.222-.054.336-.044.113.009.224.043.323.098.1.056.186.132.254.224 3.4 4.2 2.1 6.6-1.1 12.7-.221.195-.506.302-.8.3z" fill="#000"/><path d="m404.6 299.2h-1.5c-.101.001-.201-.02-.293-.061s-.174-.102-.241-.178c-.066-.076-.116-.165-.144-.262-.029-.097-.036-.199-.022-.299 0-.212.084-.416.234-.566s.354-.234.566-.234c5.5.2 5.6-.4 5.9-4.4-.016-.436.017-.872.1-1.3-.001-.114.023-.227.069-.331s.114-.197.199-.273c.086-.076.186-.133.295-.166.109-.034.224-.044.337-.03.4.1.8.5.7.9s-.1.9-.1 1.3c-.3 4.2-.8 5.9-6.1 5.9z" fill="#000"/><path d="m411 299.5h-.3c-.114.001-.227-.023-.331-.069s-.197-.114-.273-.199c-.076-.086-.133-.186-.166-.295-.034-.109-.044-.224-.03-.337.022-.205.113-.396.259-.541.145-.146.336-.237.541-.259 2 .1 2.3.1 2.8-3.3.048-.221.178-.416.363-.545.185-.13.413-.185.637-.155.194.061.366.18.491.34.125.161.198.357.209.56-.6 4.1-1.5 4.8-4.2 4.8z" fill="#000"/><path d="m49.1 232.5c2.9-1.1 4-3.1 2.7-5.6s-5.7-4.6-17-1.3-18.4 9-19.2 13.8.5 6.8 8.7 10.7c16.3 7.7 24.5 15.8 28.2 19.6s5.3 5.2 7.6 3.9 1.9-2.2.7-11.5-3.6-20.6-11.7-29.6z" fill="#ffab19"/><path d="m49.1 232.5c-9.5.1-17.4 3.4-25 11.3 2.4 3.8 4.1 5.5 8.9 6.9s6.7 2.9 8.3 5.4 1.9 6.6 3.2 10.2c.6 1.8 1.5 3.1 2.9 3.1s2.8-1.6 3.5-4.5c.967 1.958 2.3695 3.668 4.1 5 2.2914 1.51 4.1246 3.62 5.3 6.1.9 2 2.2 1.7 2.6 1.3s.6-1.4-.3-3.2c1.2-1.7 1.5-7.7-2-20s-7.2-18.4-11.5-21.6z" fill="#ffe75c"/><g fill="#eb459f"><path d="m30.2 217.7c.4737-.294 1.0093-.475 1.5647-.527.5553-.052 1.1151.026 1.6353.227 3.1 1 4.6 2.7 4.6 7.4s.7 14.2-5.2 13.9-3.4-4.1-4.5-12.2c-.7-5.7.5-7.9 1.9-8.8z"/><path d="m38 224.8c4-.6 5.2-.1 10.8 4.7 3.1 2.6 6.4 3.4 8.1 2s2.7-4.7-4.4-9.9c-10.3-7.4-13.7-7-17.8-2.7s-3 4.9 3.3 5.9z"/><path d="m196.4 251.9-.6 7.3c.7 6.6 2 7.8 3.8 8.1s3.5-.9 3.8-5.8-1.5-7.8-7-9.6z"/><path d="m196.8 248.3c2.6 4 1.4 7.6-1 10.9s-6.4 4.3-8.2 2.4-1.5-3.1 2.2-8.7 7-4.6 7-4.6z"/><path d="m265.9 289.5c-.6 1.2-3.8 1.4-6.8 2.4s-5.1 1.5-4.4.2 3.6-3.2 6.7-3.9 5.2.1 4.5 1.3z"/><path d="m224.5 282.6c.4 1.1 2.4 2.3 4.3 2.7 3.6.7 4.5-.5 4-1.6s-2.9-2.5-5.5-2.8-3.2.6-2.8 1.7z"/><path d="m279.5 290c.601.07 1.21.036 1.8-.1-1.4-1-3-2-4.7-3-.176.077-.326.202-.432.362-.107.159-.165.346-.168.538 0 1 1.5 1.9 3.5 2.2z"/><path d="m242.1 283.8c-.487.256-.854.693-1.022 1.216-.168.524-.125 1.092.122 1.584.256.788.73 1.488 1.367 2.019s1.411.871 2.233.981c-.65-2.04-1.557-3.989-2.7-5.8z"/><path d="m234 295.4c.2.9-2 1.1-4.6 1s-4.1-1.3-3.8-2.6 1.6-1.3 4.4-.6 4 1.6 4 2.2z"/><path d="m247.76 303.428c.159-1.093-1.616-2.257-3.966-2.6s-4.385.265-4.544 1.358c-.16 1.093 1.616 2.257 3.966 2.6s4.384-.265 4.544-1.358z"/><path d="m259.3 308.2c1.6 1.2 1.9 2.1.1 2.1s-3.3-.9-4.9-2.1-1.9-2.2-.6-2.2c1.96.253 3.821 1.011 5.4 2.2z"/><path d="m280.6 303.7c0 1.4-2.1 2.5-4.7 2.4s-5.1-1.3-5.5-2.9 2.5-2.6 5.6-2.2 4.6 1.3 4.6 2.7z"/></g><path d="m433.369 288.97c1.11-1.515 1.033-3.458-.17-4.338-1.204-.881-3.078-.367-4.187 1.149-1.109 1.515-1.033 3.457.171 4.338 1.203.881 3.077.366 4.186-1.149z" fill="#fff"/><path d="m431.917 287.907c.359-.49.324-1.126-.077-1.419-.401-.294-1.017-.135-1.376.356-.358.49-.324 1.125.077 1.419.401.293 1.017.134 1.376-.356z" fill="#000"/><path d="m247.4 273.4h-.2c-.12-.024-.233-.071-.334-.14s-.186-.157-.252-.26c-.065-.103-.109-.218-.129-.338-.019-.121-.014-.244.015-.362.9-4.4 1.6-5.3 5.4-7.6.227-.11.487-.129.728-.055.242.074.446.237.572.455.119.216.154.467.098.707-.055.24-.197.451-.398.593-3.4 2-3.7 2.4-4.5 6.3-.066.211-.2.394-.381.52-.181.127-.398.19-.619.18z" fill="#000"/><path d="m271.8 263.5c1.432.854 2.982 1.494 4.6 1.9 1.738.449 3.562.449 5.3 0h.3c.118-.029.241-.034.362-.015.12.02.235.064.338.129.103.066.191.151.26.252s.117.214.14.334c.07.187.067.392-.007.577-.073.185-.214.336-.393.423-1.731 1.15-3.728 1.838-5.8 2-2.03.285-4.093.217-6.1-.2l-1-.2c-.694-.169-1.296-.597-1.685-1.195-.389-.599-.534-1.324-.407-2.026.128-.703.519-1.33 1.094-1.753.575-.424 1.289-.612 1.998-.526z" fill="#000"/><path d="m249.7 257.9h-.5c-1.402-.625-2.623-1.595-3.55-2.819-.927-1.223-1.529-2.662-1.75-4.181-.029-.126-.031-.256-.005-.383.025-.126.078-.245.154-.35.076-.104.173-.191.285-.254.113-.064.237-.102.366-.113.25-.03.503.036.707.184.204.149.344.368.393.616.163 1.216.647 2.367 1.403 3.334s1.756 1.714 2.897 2.166c.203.14.352.345.425.581s.064.489-.025.719c-.074.149-.188.275-.329.363s-.304.136-.471.137z" fill="#ffe75c"/><path d="m276.175 269.098c.519-4.11-3.235-7.968-8.386-8.619-5.15-.651-9.747 2.153-10.266 6.263-.519 4.109 3.236 7.968 8.386 8.619 5.151.65 9.747-2.154 10.266-6.263z" fill="#000"/><path d="m273.1 266.5c-2.5-5.4-5.8-5.8-7.4-5.9 3.8-.2 7.7 1.5 9.6 4.5s.6 8.2-4 9.9c-1.28.475-2.635.712-4 .7 1.079-.019 2.136-.306 3.077-.835.94-.529 1.734-1.285 2.309-2.198.576-.912.915-1.954.987-3.031s-.125-2.154-.573-3.136z" fill="#ffe75c"/><path d="m260.2 262.6c.731-.55 1.54-.988 2.4-1.3l.8-.3c2.1-.1 4.3 1.3 5 4.3.261 1.372.105 2.792-.448 4.075-.552 1.283-1.476 2.371-2.652 3.125-.505.374-1.082.64-1.694.783-.612.142-1.247.158-1.866.046-.618-.113-1.207-.351-1.73-.7s-.969-.801-1.31-1.329h-.1c-.802-1.255-1.141-2.751-.959-4.23.183-1.479.876-2.847 1.959-3.87h.2c.116-.211.25-.412.4-.6z" fill="#ffe75c"/><path d="m271.4 247.2c-2.7 1.511-5.073 3.545-6.979 5.983-1.905 2.438-3.306 5.232-4.121 8.217 0 0 8.8 1.3 14.1-1s8.9-7 8.1-10.6-6.1-5.4-11.1-2.6z" fill="#fff"/><path d="m261.8 248.8c.721 4.404-.091 8.922-2.3 12.8 0 0-4.2-3.7-5.3-7.5s-.2-8.1 1.9-9.5 5.1.3 5.7 4.2z" fill="#66bcff"/><path d="m261.679 269.358c2.631-2.361 2.7-6.574.155-9.41-2.545-2.837-6.741-3.223-9.371-.862-2.631 2.361-2.701 6.574-.156 9.41s6.741 3.222 9.372.862z" fill="#000"/><path d="m251 263.6c2.099 0 3.8-1.701 3.8-3.8s-1.701-3.8-3.8-3.8-3.8 1.701-3.8 3.8 1.701 3.8 3.8 3.8z" fill="#ffab19"/><path d="m252.9 273.2c-.137.003-.273-.024-.398-.082-.124-.057-.234-.142-.321-.248s-.148-.23-.18-.364c-.031-.133-.032-.272-.001-.406.3-5 .4-7.4 4.4-8.8.118-.039.243-.055.367-.046s.246.042.357.098c.112.055.211.132.293.226.081.095.144.204.183.322s.055.243.046.367c-.009.125-.042.246-.097.357-.056.112-.133.211-.227.293-.095.081-.204.144-.322.183-2.6 1-2.8 1.8-3.1 7.2-.044.24-.165.458-.346.621s-.411.261-.654.279z" fill="#000"/><path d="m261 280.4c-.308-.025-.595-.169-.8-.4-2.8-4-2.3-7.2-.5-11.4.126-.221.324-.391.561-.482s.498-.098.739-.018c.221.126.391.324.482.561s.097.498.018.739c-1.9 4.3-1.8 6.5.3 9.4.137.22.191.48.155.736-.037.256-.162.491-.355.664z" fill="#000"/><path d="m256.7 277.7c-.2 0-.4 0-.5-.2-1.7-1.2-1.9-4.1-.5-7.8.09-.231.263-.42.484-.531.222-.111.477-.135.716-.069.126.045.241.114.34.204s.178.198.234.32c.056.121.087.252.091.385.005.134-.017.266-.065.391-1.2 2.9-1 5.1-.2 5.6.102.07.188.159.254.264.066.104.11.221.128.343.019.122.013.246-.019.365-.031.12-.087.231-.163.328-.087.131-.206.236-.347.306-.14.071-.296.103-.453.094z" fill="#000"/><path d="m249.867 261.922c.935-.08 1.61-1.126 1.506-2.337-.104-1.21-.946-2.127-1.882-2.046-.935.08-1.609 1.126-1.506 2.337.104 1.21.947 2.127 1.882 2.046z" fill="#fff"/><path d="m251.815 260.246c.331-.03.572-.367.537-.754s-.332-.676-.663-.646-.572.367-.537.754.332.676.663.646z" fill="#000"/><path d="m14 321.7c3.7 8.4 4.5 13 5 21.1h5.1c-.0609-8.018-1.0338-16.002-2.9-23.8z" fill="#000"/><path d="m193.9 323.3c.8 7.5-1.6 16.4-1.6 16.4h3.5c3.9-6.8 3.6-15.6 3.6-15.6z" fill="#ff860d"/><path d="m121.3 300.6c1.1-4.8-1.5-7.6-6.2-5.2s-8.6 12-8.2 21c.025.971.345 1.912.916 2.697.572.786 1.368 1.38 2.284 1.703 14.1 4.9 29.2 13.5 32.4 26.2h4.5c-4.3-23.1-13.4-38-25.7-46.4z" fill="#ff860d"/><path d="m115.8 318.5 2.4-1 3.1-16.9c1.1-4.8-1.5-7.6-6.2-5.2s-8 10.6-8.2 19.1c1.9-5.6 9.2-2.3 8.9 4z" fill="#ffab19"/><path d="m146 342.1c-4.6-20.3-13.3-33.7-24.7-41.5-3.041 5.526-4.913 11.619-5.5 17.9 5 3.5 11.1 3.6 15 7.4s10 9.5 11.5 16.2z" fill="#ffe75c"/><path d="m77.7 345.7c.1-3.8 5.4-17.9 18-26.4.4121-.275.7549-.641 1.0014-1.071.2465-.429.3899-.91.419-1.404.029-.495-.057-.989-.2514-1.444-.1944-.456-.4919-.86-.869-1.181-2.4-2.2-8.4-3.1-19.1-1.5-.6938.087-1.3401.399-1.8399.888s-.8256 1.128-.9277 1.82.0253 1.398.3626 2.011c.3372.612.8659 1.097 1.505 1.381-5 9.4-4.1 19.6-3 25.8z" fill="#ff860d"/><path d="m79.5 335.8c.6-2.9 1.6-5.8 6.2-9.2 3-2.3 1.9-5.2 7.3-7.9-5.2-1.3-12.4-.8-17 .1-4.3 8.1-4.2 16.8-3.4 22.9l5.2.9c.6837-2.236 1.2511-4.506 1.7-6.8z" fill="#ffab19"/><path d="m167.8 250.1c2.9.4 4.9 3.4 5 7s-3.1 1.1-5-1.3-3.5-6.2 0-5.7z" fill="#66bcff"/><path d="m171 287.5c-1.2-.4-5.2-1.1-5.2 2s4.2 5.5 6.9 5.1 3.4-5.3-1.7-7.1z" fill="#66bcff"/><path d="m188.2 272.2c.9-1 2.7-1.4 3.3-.4s.6 2.3-1.9 2.8-2.7-.8-1.4-2.4z" fill="#66bcff"/><path d="m199.8 289.2c-.192-.003-.379-.061-.538-.168-.16-.106-.285-.256-.362-.432-.3-.8-1.2-3.2-5.3-2.1-.118.033-.242.042-.363.027-.122-.015-.24-.053-.347-.114-.106-.06-.2-.141-.276-.238-.075-.096-.131-.207-.164-.325s-.042-.242-.027-.363c.015-.122.053-.24.114-.347.06-.106.141-.2.238-.276.096-.075.207-.131.325-.164 3.7-1.1 6.4.1 7.6 3.3.049.111.074.231.075.353.001.121-.022.242-.069.354s-.115.213-.202.298-.191.151-.304.195z" fill="#29cc7a"/><path d="m154.2 268.2c-1.797.04-3.574-.392-5.153-1.251-1.579-.86-2.905-2.118-3.847-3.649-.076-.097-.132-.208-.163-.328-.032-.119-.038-.244-.019-.365.018-.122.062-.239.128-.343.066-.105.152-.194.254-.264.22-.137.48-.191.736-.155.256.037.491.162.664.355.773 1.304 1.893 2.368 3.234 3.075 1.342.706 2.853 1.026 4.366.925.135-.016.272-.001.401.043.129.045.245.118.342.214.096.097.169.213.214.342.044.129.059.266.043.401-.018.243-.116.473-.279.654s-.381.302-.621.346z" fill="#29cc7a"/><path d="m96.8 272.8c2.9986-.562 5.875-1.645 8.5-3.2 1.9-1.3-.4-3.3-6.4-3.4s-11.9 1.7-14.2 2.2-2 .4-3.8-.8-3.1-2.1-2.8-.8.7 2.4.1 3.7-1 2-.8 3 .6.7 1.6-.2c.9221-.953 1.926-1.823 3-2.6.6-.4.7.1 2.4.7 3.882 1.764 8.2225 2.254 12.4 1.4z" fill="#5865f2"/><path d="m49.1 253.2c1.8521 1.747 4.1864 2.896 6.7 3.3 2 .3 2.1-3.4-.8-7.5s-6.2-5.7-7.4-6.6-1-.8-.7-2.4.3-2.5-.4-1.7c-.6754.908-1.5699 1.631-2.6 2.1-.9347.307-1.7889.82-2.5 1.5-.7.7-.4.8.6.6h3.1c.4 0 .1.4.2 1.8.2 3.4.9 6.1 3.8 8.9z" fill="#66bcff"/><path d="m42.2 289.3c2.8682-1.328 6.0187-1.932 9.1747-1.757 3.156.174 6.2209 1.121 8.9253 2.757 1 .6 2.4.1 4.1-.6s2.6-.4 1.5.9-3.5 3.2-4.4 5.1-1.8.8-2-.8-.5-1.7-3.1-1.2-4.7.8-9.8-.6-6.3-3-4.4-3.8z" fill="#66bcff"/><path d="m130 317.8c-.179-.004-.355-.051-.512-.138s-.29-.212-.388-.362c-1.8-4.2-3.9-5.5-7.1-4.2-.111.049-.231.074-.353.075-.121.001-.242-.022-.354-.069s-.213-.115-.298-.202-.151-.191-.195-.304c-.102-.239-.107-.509-.014-.751.094-.243.278-.44.514-.549 4.2-1.7 7.3 0 9.6 5.2.102.239.107.509.014.751-.094.243-.278.44-.514.549z" fill="#29cc7a"/><path d="m174.8 67.5c3.59 0 6.5-2.9101 6.5-6.5s-2.91-6.5-6.5-6.5-6.5 2.9101-6.5 6.5 2.91 6.5 6.5 6.5z" fill="#fff"/><path d="m196 46.7c4.418 0 8-3.5817 8-8s-3.582-8-8-8-8 3.5817-8 8 3.582 8 8 8z" fill="#fff"/><path d="m227 76.6c5.412 0 9.8-4.3876 9.8-9.8s-4.388-9.8-9.8-9.8-9.8 4.3876-9.8 9.8 4.388 9.8 9.8 9.8z" fill="#57f287"/><path d="m234.5 76.9c.537-.4159.89-1.0254.984-1.6981.093-.6728-.081-1.3555-.484-1.9019l-6-.7-.5 3z" fill="#808aff"/><path d="m165.6 64.9h-.1c-.352-.5625-.476-1.2384-.345-1.8891.13-.6507.504-1.227 1.045-1.6109l5.9 1.4-.5 2.9z" fill="#808aff"/><path d="m202.4 35.7h-.2c-.12-.0235-.233-.0711-.334-.1398-.101-.0688-.186-.1573-.252-.2601-.065-.1029-.109-.218-.129-.3383-.019-.1204-.014-.2435.015-.3618.9-5.6 1.1-13.7-1.3-20-.102-.2392-.107-.5087-.014-.7514.094-.2427.278-.4394.514-.5486.125-.0477.258-.07.391-.0655s.264.0356.385.0915c.122.0559.23.1355.32.2341s.159.2141.204.3399c2.5 6.6 2.3 15.2 1.3 21-.056.2064-.171.392-.331.5341s-.357.2345-.569.2659z" fill="#000"/><path d="m222.7 65.7c11.543 0 20.9-9.3572 20.9-20.9 0-11.5427-9.357-20.9-20.9-20.9s-20.9 9.3573-20.9 20.9c0 11.5428 9.357 20.9 20.9 20.9z" fill="#57f287"/><path d="m223.5 62.4c-.203-.0111-.399-.0841-.56-.2092-.16-.1251-.279-.2963-.34-.4908-1.5-4.8-4-8.2-7.5-9.8-1.519-.651-3.158-.9783-4.811-.9611-1.652.0172-3.284.3786-4.789 1.0611-.111.0487-.231.0743-.353.0754-.121.001-.242-.0225-.354-.0692-.112-.0468-.213-.1157-.298-.2027s-.151-.1902-.195-.3035c-.049-.1113-.074-.2313-.075-.3527-.001-.1215.022-.2419.069-.354.047-.1122.115-.2137.202-.2984.087-.0848.191-.1511.304-.1949 1.736-.8088 3.624-1.2362 5.539-1.2534 1.915-.0173 3.811.376 5.561 1.1534 4 1.9 6.9 5.6 8.5 10.9.062.2517.023.5175-.108.7414-.13.2239-.343.3883-.592.4586z" fill="#2bd981"/><path d="m202.4 43.1c4.639 0 8.4-3.7608 8.4-8.4s-3.761-8.4-8.4-8.4-8.4 3.7608-8.4 8.4 3.761 8.4 8.4 8.4z" fill="#d11583"/><path d="m210.3 81.7c7.069 0 12.8-5.7308 12.8-12.8 0-7.0693-5.731-12.8-12.8-12.8s-12.8 5.7307-12.8 12.8c0 7.0692 5.731 12.8 12.8 12.8z" fill="#57f287"/><path d="m189.9 73.7c10.493 0 19-8.5066 19-19s-8.507-19-19-19-19 8.5066-19 19 8.507 19 19 19z" fill="#fff"/><path d="m207.821 72.8286c5.743-.0902 10.352-3.1179 10.295-6.7625-.057-3.6447-4.759-6.5261-10.502-6.4359s-10.353 3.1179-10.295 6.7626c.057 3.6446 4.759 6.526 10.502 6.4358z" fill="#fff"/><path d="m213.3 126.8-44.6-7.7c3-2.7 5.9-7.4 7.2-14.6l35.5 6.2c-1.2 7.1 0 12.6 1.9 16.1z" fill="#808aff"/><path d="m214.169 111.599c.545-3.156-8.278-7.316-19.707-9.29-11.428-1.974-21.135-1.015-21.68 2.141-.546 3.157 8.277 7.316 19.706 9.29s21.136 1.016 21.681-2.141z" fill="#fff"/><path d="m130.2 56c2.9 5.6 3.7 14-6.7 13.4-.6 5.3-1.1 9.1-8 10.8l-7.4 1 20.1-25.9z" fill="#fff"/><path d="m62.7 40.6c-2.0926-1.3386-3.8725-3.1122-5.2184-5.2001s-2.2264-4.4413-2.5816-6.8999l-1.3-8.5c-.0217-.2047-.113-.3958-.2586-.5414s-.3367-.2369-.5414-.2586c-.2116.0314-.4094.1238-.5692.2659s-.2748.3277-.3308.5341l-1.2 8.5c-.3916 2.4591-1.2976 4.8079-2.6589 6.8929-1.3613 2.0851-3.1473 3.8594-5.2411 5.2071l-1.1.7c-.2315.2052-.3748.4918-.4.8-.0013.1417.0351.2811.1054.4041.0702.123.1719.2251.2946.2959l1.1.7c2.0884 1.3772 3.8686 3.1724 5.2284 5.2722 1.3597 2.0998 2.2694 4.4587 2.6716 6.9278l1.2 8.5c.0608.1945.1796.3657.3405.4908.1608.1251.356.1981.5595.2092.1959.0015.3856-.0689.5331-.1979.1474-.129.2424-.3077.2669-.5021l1.3-8.5c.3666-2.4685 1.2511-4.8316 2.5953-6.9341 1.3443-2.1026 3.118-3.8971 5.2047-5.2659l1.2-.7c.1042-.0825.1863-.1898.2386-.312.0524-.1222.0735-.2556.0614-.388.0059-.1466-.0176-.2929-.0692-.4303-.0515-.1374-.13-.2631-.2308-.3697z" fill="#4754eb"/><path d="m158.7 90.8c-.2-2.9-3.2-3.3-9.8-3.5-14.5-.4-37-.7-44-.8 5.9-11.7 10.5-20.5 14.1-27.6 4.8-9.3 7.6-14.8 9.1-18.4s1.8-5.7.2-7.5c-.357-.3435-.781-.6096-1.246-.7817-.464-.1721-.959-.2464-1.454-.2183-1.4 0-3.3.5-7.3 1.6-24.1 6.9-55.6 19.1-66 23.1l-1.1.5c-9.5 3.6-11.4 6.6-13.1 10s-10.5 24.2-19.4 46.4c-4.8 1-7.5 3-7.2 5.4s2.2 5.6 3.8 7.7c3.6 4.8 5.8 6.7 8 7h.4c2.6 0 4.6-2.1 6.1-6.5h8.2c16.2 0 36.7 1.1 45.5 1.9h1.2c2.3.2 4.1.4 5.8.4 4.4 0 7.4-1.2 14.8-5.1 10.2-5.2 28.9-16 47.7-27.4 3.6-2.2 6-3.7 5.7-6.2z" fill="#66bcff"/><path d="m27.1 123.7-5.4-7.1c6.6-15.9 16.1-36.8 19-42.3s4-8 12.7-11.6 39.9-15.3 64.8-23.4c6.1-2 5.8-2.2 10.2.8 2 1.4 5 4.2 5.8 5.8s.6 2.8-2.1 7.1-8.5 13.1-21.9 27.1c12.1-3.2 34.8-5.1 44.2-1 1.4.6 1.3 1.5 1 5.1-.2 1.6-.5 4.8-.7 6.1s0 1.2-1.5 2.1c-4.1 2.5-41 23.9-55.2 30.7-3.5 1.7-7.1 1.6-11.7 1.2s-39.3-1.6-59.2-.6z" fill="#ffe75c"/><path d="m26.5 119.7c-.234.005-.4621-.073-.6449-.219-.1827-.146-.3084-.352-.3551-.581-.0093-.247.0645-.489.2096-.688.1451-.2.353-.345.5904-.412l4.9-.7c14.3-2 25.6-3.6 46.1.2.5 0 .8.5.7 1.1-.0235.12-.0711.233-.1398.334-.0688.101-.1573.186-.2601.252-.1029.065-.218.109-.3384.129-.1203.019-.2434.014-.3617-.015-20.1-3.6-31.3-2.1-45.4-.1l-4.9.7z" fill="#ffc619"/><path d="m129.5 40.9c-16.1 5.5-58.4 21.1-66.1 24-9.6 3.6-11.3 4.5-14.2 8.9s-23.5 42.4-24.4 44.1c-.1046.212-.1212.458-.0464.682.0749.225.2353.411.4464.518l.4.2c.1794-.004.3552-.051.5121-.138s.2901-.212.3879-.362c.2-.4 21.5-39.8 24.2-44s4-4.7 13.3-8.2 52-19.1 67.2-24.2z" fill="#ffc619"/><path d="m131.7 91.6-10.1 6.3-.3 12.8 10-5.6z" fill="#000"/><path d="m128.5 58.5c-5.589 7.6177-11.704 14.8353-18.3 21.6 0 0-58.2 20.8-78.9 34.3 2.7721-2.422 5.378-5.028 7.8-7.8 8.7-10 16.2-20 21-29.4.9-1.7 2.5-2.3 6-3.7s55.9-21.6 59.9-23.1c6.9-2.6 6.1 2.6 2.5 8.1z" fill="#000"/><path d="m28.7 117c-1.6-2.1-4.6-2.2-7-.4l5.4 7.1c2.4-1.7 3.2-4.5 1.6-6.7z" fill="#000"/><path d="m155.5 80.3c.1.6-.5 1.5-2.6 2.5-3.7 1.9-37.9 18.1-54.9 26.4-3.5 1.7-5.4 1.9-7.2 1.5-18.4-4.4-45.7-2.8-59.5 3.7 20.7-13.5 78.9-34.3 78.9-34.3 12.1-3.2 34.8-5.1 44.2-1 .6.3 1 .6 1.1 1.2z" fill="#fff"/><path d="m121.6 97.9c-14.4-7.6-25.5-7.7-29.6-7.3l4.2-3.9 30.3 8.8-1.5 3.8z" fill="#000"/><path d="m135.1 55.9c-1.2 2.7-3.4 2.5-6.6 2.6-1.635-1.2839-3.173-2.6878-4.6-4.2.3 2 0 5.3-5.1 7.4s-9.5 1.1-12.5-1.5c.8 4.3-.1 7.9-5 10s-10.5 1-15.1-2.2c.7587 1.9105.7327 4.0432-.0725 5.9345-.8053 1.8913-2.3245 3.3883-4.2275 4.1655-3.8 1.5-8.1 1.6-14.6-1.3 1.5 4.1 2.5 7.3.7 8.7s-4.6 1.6-11.3 0c2.7 4.9-.8 8.8-2.8 10.6s-4.3 3.2-6.5 2.4c.6 1.2.4 3.7-2.1 6s-3.8 3.2-6.2 2.1c8.7-10 15.5-22.2 20.3-31.5.8-1.7 2.4-2.3 5.9-3.8l66.6-25c1.2-.5 2.4-.3 2.7.7v.2c.8 3.4 1.5 6.2.5 8.7z" fill="#fff"/><path d="m235.044 73.6247c.338-1.9592-14.873-6.2223-33.975-9.5218-19.102-3.2996-34.862-4.3861-35.201-2.4269-.338 1.9592 14.873 6.2223 33.975 9.5218 19.103 3.2995 34.863 4.3861 35.201 2.4269z" fill="#808aff"/><path d="m234.517 76.511c.282-1.6326-14.975-5.631-34.078-8.9305-19.102-3.2996-34.816-4.6508-35.098-3.0182-.282 1.6327 14.975 5.6311 34.077 8.9306 19.102 3.2996 34.817 4.6508 35.099 3.0181z" fill="#5865f2"/><path d="m230.691 75.593c.103-.6014-13.509-3.4408-30.404-6.342-16.895-2.9011-30.675-4.7654-30.778-4.164-.103.6015 13.509 3.4409 30.404 6.342 16.895 2.9012 30.675 4.7655 30.778 4.164z" fill="#808aff"/><path d="m222.9 100.6c-2.421 4.215-5.859 7.756-10 10.3l-38.5-6.7c-3.073-3.741-5.107-8.2242-5.9-13-1.5-9-.5-18.1 1-25.2l60.9 10.6c-1 7.2-3.1 16.1-7.5 24z" fill="#808aff"/><path d="m212.9 110.9c-2.2 1.4-10.3 1.3-19.8-.4s-17.1-4.2-18.7-6.3l21.8-11.5z" fill="#808aff"/><path d="m179.7 107.1c-.927-.295-1.83-.663-2.7-1.1-1.378-3.088-2.321-6.3526-2.8-9.7-1.3-8.2-1.4-18.5-.2-30.5-.001-.1271.025-.2529.077-.3692.051-.1163.126-.2203.221-.3054.094-.085.206-.149.327-.1879s.249-.0516.375-.0375c.132.0125.259.0509.376.1131s.22.1469.303.2492c.084.1023.147.2201.185.3467.037.1267.05.2595.036.391-1.1 11.8-1.1 22 .2 30 .561 3.8776 1.778 7.631 3.6 11.1z" fill="#5865f2"/><path d="m226.3 74.8c-3 11.7-6.5 21.4-10.5 28.7-1.604 2.977-3.587 5.733-5.9 8.2h-2.9c2.883-2.631 5.286-5.744 7.1-9.2 3.9-7.2 7.4-16.7 10.3-28.2.021-.1311.071-.2558.147-.3653.075-.1094.173-.2009.288-.2678s.243-.1076.375-.1192c.132-.0115.265.0063.39.0523.131.0213.256.0713.365.1465.11.0752.201.1737.268.2884s.108.2427.119.375c.012.1323-.006.2655-.052.3901z" fill="#5865f2"/><path d="m188.1 109.5-2.1-.5c-.44-3.616-.607-7.259-.5-10.9.369-10.0115 1.304-19.9941 2.8-29.9-.019-.1536-.001-.3094.05-.4552.052-.1458.137-.2776.248-.385.112-.1074.246-.1875.394-.234.148-.0466.304-.0582.457-.0341.152.0241.298.0834.424.1731s.229.2075.302.344.113.288.117.4426c.005.1547-.027.3082-.092.4486-1.45 9.8445-2.384 19.758-2.8 29.7-.155 3.781.079 7.567.7 11.3z" fill="#5865f2"/><path d="m212 72.3c-2.5 11.8-5 21.5-7.4 29.1-1.109 3.496-2.549 6.878-4.3 10.1l-2-.2c1.74-3.379 3.212-6.89 4.4-10.5 2.975-9.496 5.445-19.1429 7.4-28.9.024-.1197.071-.2333.14-.334s.157-.1864.26-.2518c.103-.0655.218-.1094.338-.129.121-.0196.244-.0146.362.0148.247.0486.467.189.616.393.148.204.214.4565.184.707z" fill="#5865f2"/><path d="m213.842 129.743c.855-4.952-8.951-10.781-21.904-13.018-12.952-2.237-24.146-.036-25.001 4.916-.856 4.953 8.951 10.781 21.903 13.018 12.953 2.238 24.146.037 25.002-4.916z" fill="#808aff"/><path d="m189.4 62.5-8.9 2.4v6.4c-1.2 9.6 1.8 11.5 4.5 10.9s3.6-4.2 3-9.5c-.104-1.2645-.104-2.5355 0-3.8.094-.4107.022-.8419-.2-1.2-.7-1.7-1-4.5 1.6-5.2z" fill="#000"/><path d="m190.9 62.5c-3.1-.4-4.7 1.7-4.9 9.4s-3.6 9.4-6.8 7.9-5.3-6 .5-20.6 12.3-.8 11.2 3.3z" fill="#fff"/><path d="m224.1 69.1c2.4.6-.5 5.8 3.2 8.1s6.4-.9 5.6-5.3-7.6-4.9-8.8-2.8z" fill="#57f287"/><path d="m71.7 94.9c11.6-4.6 31.3-7.9 51.2 2.3 22.8 11.7 47.1 11.9 66-11.5-6.7 2.7-11.7 4.4-11.7 4.4 4.4-4.9 6.3-10.7 6.3-14.5-5.1 7.7-16.8 18.9-30.7 19.1-17.2.1-41.2-17.9-65.5-7.7-13.3 5.7-15 5.9-15.6 7.9z" fill="#eb459f"/><path d="m141.4 112.8c5.5 1 16.7 7.2 11.5 11.9s-6.3-4.7-11.5-11.9z" fill="#8cd9ff"/><path d="m133.9 150.5c2.9 3.1 7.1 11.9 1.8 12.5s-1.8-5.7-1.8-12.5z" fill="#66bcff"/><path d="m151.6 43.9c2.2-1 5.6-3.9 6.6-6.4s-2.2-4.2-3.7-2.3-1.4 4.8-2.9 8.7z" fill="#8cd9ff"/><path d="m190.6 96.5c5.8-2.7 20.4-4.3 18.6 3.6s-9-.3-18.6-3.6z" fill="#8cd9ff"/><path d="m170.9 53.3v2.5c4-3.3 8.6-3 11.1-1 .2.1705.459.2556.72.2369.262-.0187.507-.1397.68-.3369.079-.105.136-.2246.169-.3518.032-.1272.04-.2596.021-.3896s-.063-.2551-.13-.3681c-.066-.113-.155-.2117-.26-.2905-2.9-2.3-7.8-2.9-12.3 0z" fill="#a6e2ff"/><path d="m207.788 35.5756c.74-.2235.965-1.6476.502-3.1809-.463-1.5332-1.438-2.595-2.179-2.3715-.74.2234-.965 1.6476-.502 3.1808.463 1.5333 1.439 2.5951 2.179 2.3716z" fill="#fff"/><path d="m230.4 59.9-.6-.2c-1.7-1.4-4.6-1.4-6.8-.1-.109.0683-.232.1123-.36.129s-.258.0057-.381-.0322c-.124-.038-.237-.102-.334-.1877-.096-.0857-.173-.1911-.225-.3091-.071-.095-.119-.2044-.142-.3205-.023-.116-.021-.2357.008-.3505.029-.1147.083-.2217.158-.3132s.169-.1652.276-.2158c1.36-.8359 2.933-1.2616 4.529-1.2262 1.597.0355 3.149.5307 4.471 1.4262.095.077.172.1725.229.2805.056.1081.09.2265.1.3481.009.1215-.006.2437-.046.3591-.039.1155-.101.2217-.183.3123-.071.1227-.173.2243-.296.2946s-.262.1067-.404.1054z" fill="#2bd981"/><path d="m206.9 59.9h-4.2c-.127.0008-.253-.0254-.369-.0767-.116-.0514-.221-.1267-.306-.2212s-.149-.2059-.187-.3269c-.039-.121-.052-.2489-.038-.3752 0-.2387.095-.4676.264-.6364.168-.1688.397-.2636.636-.2636h4.2c.239 0 .468.0948.636.2636.169.1688.264.3977.264.6364.014.1263.001.2542-.038.3752-.038.121-.102.2324-.187.3269s-.19.1698-.306.2212c-.116.0513-.242.0775-.369.0767z" fill="#a6e2ff"/><path d="m130.3 94.6h-.4c-14-6.8-31.5-12.5-55.4-2.1-.1113.0487-.2313.0743-.3527.0754-.1215.001-.2419-.0225-.354-.0692-.1122-.0467-.2137-.1157-.2984-.2026-.0848-.087-.1511-.1903-.1949-.3036-.0487-.1113-.0743-.2313-.0754-.3527-.001-.1215.0225-.2419.0692-.354.0468-.1121.1157-.2136.2027-.2984s.1902-.1511.3035-.1949c24.6-10.7 42.6-4.9 56.9 2.1.236.1092.42.306.514.5487.093.2427.088.5122-.014.7513-.109.1321-.247.2369-.403.3064-.156.0694-.326.1015-.497.0936z" fill="#000"/><path d="m136.7 106.7c.4-1.2-.6-2.1-5.4-1.6l-4.3 1.4-5.7 4.2c4.3.1 5.3.7 4.9 2.1z" fill="#000"/><path d="m206.921 98.1228c.285-.4077-.072-1.148-.797-1.6536s-1.543-.585-1.827-.1773.073 1.148.797 1.6536c.725.5055 1.543.5849 1.827.1773z" fill="#fff"/><path d="m665.5 269.8-4.1-3.1-24.4 10.2-18.8 1-32.1-11.1-14-1.4-3.7 4.5-11.5 42.6 31.8 13.9-4.4-16.6 60.8-6.6 28.9 10.8 2-3.6z" fill="url(#i)"/><path d="m584.5 266.8c-1.1 10.8 3.9 13.8 7.7 13.3s6.6-5.6 6.6-5.6c0 6.4 1.7 12.3 8 12.5s8.2-8.1 8.2-8.1c1.1 7.3 4.4 10.3 9.2 10.2s6.9-3.6 7.4-7.1c2.1 4.5 4.5 5.5 7 5s4.2-2.9 4.3-6.6c1.4 3.6 4.5 4.2 6.6 3.2s2.9-3.5 2.4-7.5c1.4 2.3 3.2 2.7 5 1.8s2-5.4.5-9.9c-14.4 6.3-24.3 13.3-42.8 7.5s-30.1-8.7-30.1-8.7z" fill="#fff"/><path d="m785.5 327c27.614 0 50-2.955 50-6.6s-22.386-6.6-50-6.6-50 2.955-50 6.6 22.386 6.6 50 6.6z" fill="#1d2cc2"/><path d="m827.4 329.8c9.996 0 18.1-1.477 18.1-3.3s-8.104-3.3-18.1-3.3-18.1 1.477-18.1 3.3 8.104 3.3 18.1 3.3z" fill="#1d2cc2"/><path d="m803.9 254.3h-25l-22.4 16.7 4.5 5.1c.123.148.276.268.448.354s.36.136.552.146h41.9z" fill="#fff2a6"/><path d="m586.8 328.3c-1.079-.037-2.137-.31-3.1-.8-5.6-2.6-18.3-8.2-27.7-12-.236-.092-.452-.229-.636-.405-.183-.175-.33-.385-.432-.617s-.157-.482-.163-.736c-.005-.253.039-.506.131-.742s.229-.452.405-.636c.175-.183.385-.33.617-.432s.482-.157.736-.163c.253-.005.506.039.742.131 9.5 3.9 22.3 9.5 27.9 12.2.57.244 1.18.379 1.8.4-.1-.1 0-.6-.3-1.8-5.378-16.077-11.587-31.865-18.6-47.3-1.5-3.4-1.5-6.6.2-8.9s4.7-3.3 8.5-2.9c8.5 1 17.5 3.4 33.4 8.6 19.2 6.4 27.3 3.3 47.8-6.7.832-.417 1.74-.658 2.669-.71s1.858.088 2.731.41c.874.342 1.666.867 2.321 1.54.655.672 1.159 1.477 1.479 2.36 4.763 12.688 8.247 25.82 10.4 39.2.7 4.2-.9 6.1-2 6.9s-3.4 1.9-7.2.1l-19.5-9c-2.231-1.096-4.734-1.513-7.2-1.2l-3.6.4-51.4 5.4c1.3 3.6 2.5 7.2 3.6 10.7s-.1 5-.8 5.7c-.765.69-1.771 1.049-2.8 1zm56.5-27.1c2.522-.018 5.017.529 7.3 1.6l19.5 9c1.4.7 2.7.8 3.3.4s.8-1.7.6-3.3c-2.105-13.12-5.557-25.988-10.3-38.4-.123-.385-.33-.738-.607-1.032s-.616-.522-.993-.668c-.751-.263-1.575-.227-2.3.1-20.7 10.1-29.9 13.8-50.7 6.9-15.6-5.1-24.4-7.4-32.6-8.4-2.3-.3-4.2.2-5 1.4s-.8 3 .2 5.1c5.3 11.9 9.9 22.9 13.7 33.3 17.3-1.7 39.2-4.1 52.4-5.5l3.6-.4z" fill="#8cd9ff"/><path d="m611.836 268.987c3.51-.412 5.954-4.17 5.458-8.394-.497-4.223-3.745-7.313-7.255-6.9-3.51.412-5.954 4.17-5.458 8.394.496 4.223 3.744 7.313 7.255 6.9z" fill="#fff"/><path d="m641.182 269.355c3.291-.387 5.582-3.902 5.119-7.851-.464-3.95-3.508-6.838-6.799-6.451-3.292.387-5.583 3.901-5.119 7.851.463 3.949 3.507 6.837 6.799 6.451z" fill="#fff"/><path d="m644.266 263.143c.05-1.49-.716-2.725-1.709-2.758-.994-.033-1.839 1.148-1.889 2.639-.049 1.49.716 2.725 1.71 2.758.993.033 1.839-1.149 1.888-2.639z" fill="#000"/><path d="m613.596 265.627c1.048-.036 1.858-1.229 1.808-2.664s-.941-2.569-1.99-2.532c-1.049.036-1.858 1.229-1.808 2.664s.941 2.569 1.99 2.532z" fill="#000"/><path d="m781.4 255.8c-2.7 7.9-9.1 15.3-17.4 19.6-.705.357-1.508.472-2.285.328-.778-.145-1.486-.541-2.015-1.128l-3.2-3.6 25.2-22z" fill="#fff2a6"/><path d="m797.6 323.2c18.612 0 33.7-15.088 33.7-33.7s-15.088-33.7-33.7-33.7-33.7 15.088-33.7 33.7 15.088 33.7 33.7 33.7z" fill="#1d2cc2"/><path d="m835.5 320.4h-100c2.8-9.5 17.4-20.9 33.6-24.9l56.3-.3.8-23.3c10.2 16.6 9.3 39.3 9.3 48.5z" fill="#1d2cc2"/><path d="m781.4 255.8c1.7 11.7 12.3 20.6 22.4 24.1h.7l30.9.3c.195.004.388-.039.562-.126.174-.088.324-.216.438-.374l4.1-5.1-23.5-20.3-2-4.7h-33.6z" fill="#fff2a6"/><path d="m783.108 252.041c.394.394.615.928.615 1.485s-.221 1.091-.615 1.485l-1.485 1.485-1.485-1.485c-.195-.195-.349-.426-.455-.681s-.16-.528-.16-.804.054-.549.16-.803c.105-.255.26-.487.455-.682.195-.195.427-.349.681-.455.255-.105.528-.16.804-.16s.549.055.804.16c.255.106.486.26.681.455z" fill="#000"/><path d="m841.7 272.8-21.9-18.5c3.3-4.8 3.1-7.8-1.6-8.7-10-1.9-29.2-2.1-36.5-1.9l.3 8 25.5 22.7c.318.319.75.499 1.2.5l32 .6c.186.009.371-.023.543-.092.173-.069.329-.174.457-.308.168-.141.303-.317.396-.515.093-.199.141-.416.141-.635s-.048-.436-.141-.635c-.093-.198-.228-.374-.396-.515z" fill="#ff78b9"/><path d="m809.2 274.3c.106-.118.187-.256.239-.405s.074-.308.065-.466c-.01-.158-.05-.312-.119-.455-.07-.142-.166-.269-.285-.374l-23-20.7c2.6-5 3.2-8.2-4.4-8.2s-6.8 2-5.1 8.2l-21.7 17.8c-.105.085-.192.191-.257.31-.064.119-.104.249-.118.384s-.002.271.037.4c.039.13.103.251.188.356s.191.192.31.257c.119.064.249.104.384.118s.271.002.4-.037c.13-.039.251-.103.356-.188l24.6-19.6c.165-.148.379-.229.6-.229s.435.081.6.229l25.5 22.7c.118.106.256.187.405.239s.308.074.466.065.312-.05.455-.119c.142-.07.269-.166.374-.285z" fill="#d11583"/><path d="m833.6 296.9-28.2 11s3.6 17.6 3.9 18.7l36.1-.3c-2.647-10.268-6.614-20.151-11.8-29.4z" fill="#1d2cc2"/><path d="m774.6 285.5h-.2l-4.8-.5c-.541-.098-1.022-.404-1.34-.853-.318-.448-.447-1.004-.36-1.547.024-.273.104-.538.235-.778.13-.241.309-.452.525-.621.215-.169.463-.291.728-.36s.541-.083.812-.041l4.5.6c.272.012.538.08.783.199.245.118.463.286.641.492s.312.446.394.705c.081.26.109.533.082.804-.048.505-.277.975-.644 1.324-.368.35-.849.554-1.356.576z" fill="#fff"/><path d="m796.8 286.4h-6.3c-.464-.114-.876-.384-1.166-.764s-.442-.848-.431-1.326c.012-.478.186-.938.495-1.304.309-.365.733-.614 1.202-.706h6.2c.276 0 .549.054.804.16.254.105.486.26.681.455s.35.427.455.681c.106.255.16.528.16.804-.026.539-.258 1.048-.649 1.421-.391.372-.911.58-1.451.579z" fill="#fff"/><path d="m785.5 297.3h-.2l-9.4-.8c-.435-.049-.855-.185-1.237-.398-.382-.214-.717-.501-.987-.845s-.469-.739-.585-1.161c-.116-.421-.147-.862-.091-1.296.036-.44.162-.868.371-1.257.21-.389.497-.73.844-1.003.348-.272.748-.469 1.176-.58.427-.11.873-.13 1.309-.06l9 .7c.442.013.877.114 1.28.298.402.184.763.447 1.062.774.298.326.528.71.675 1.127.148.417.21.859.183 1.301-.051.867-.432 1.681-1.064 2.276s-1.468.925-2.336.924z" fill="#ffc619"/><path d="m785.5 294.8-9.3-.8c-.221-.025-.425-.13-.573-.296-.147-.167-.228-.382-.227-.604.047-.229.172-.435.355-.581s.411-.224.645-.219c2.7.4 5.8.6 9.2.8.221.025.425.13.573.297.147.166.228.381.227.603-.043.213-.154.406-.316.551-.162.144-.367.232-.584.249z" fill="#000"/><path d="m769.9 285.3c1.326 0 2.4-1.075 2.4-2.4s-1.074-2.4-2.4-2.4c-1.325 0-2.4 1.075-2.4 2.4s1.075 2.4 2.4 2.4z" fill="#000"/><path d="m790.6 286.7c1.325 0 2.4-1.074 2.4-2.4 0-1.325-1.075-2.4-2.4-2.4-1.326 0-2.4 1.075-2.4 2.4 0 1.326 1.074 2.4 2.4 2.4z" fill="#000"/><path d="m809.2 326.2-2.5-11.7-1-5.1-1.8.3c1.2 6 .6 12.6-4.2 17z" fill="#000"/><path d="m772.7 306.8c-10.2 0-22.9 7.5-29.5 17.1 8.1 1.7 21.8 2.9 37.7 3.1l.6-.9c6.1-10.6 2.2-19.3-8.8-19.3z" fill="#66bcff"/><path d="m807.6 324.5c-.196.002-.386-.069-.533-.198-.148-.129-.243-.308-.267-.502-.2-1.1-.6-2.8-1-4.7-.9-4.6-2.1-10.4-2.7-13-.03-.105-.038-.215-.023-.324.014-.108.05-.212.107-.306.056-.093.131-.175.22-.238.088-.064.189-.109.296-.132.225-.063.466-.035.672.077.205.112.359.3.428.523.6 2.6 1.7 8.4 2.7 13.1.4 1.8.7 3.5.9 4.7.03.105.038.215.023.324-.014.108-.05.212-.107.306-.056.093-.131.175-.219.238-.089.064-.19.109-.297.132z" fill="#000"/><path d="m647.3 253.3c-.203-.011-.399-.084-.56-.209-.16-.125-.279-.296-.34-.491-1.4-4-3.5-6.5-6.4-7.2s-8.4 1-12.8 5.1c-.235.235-.517.419-.826.539-.31.121-.642.175-.974.161-.551-.08-1.051-.366-1.4-.8-2.4-3.4-4.9-5.2-7.9-5.5s-8.7 1.8-14 6.7c-.084.088-.185.158-.297.205-.111.048-.232.073-.353.073s-.242-.025-.353-.073c-.112-.047-.213-.117-.297-.205-.163-.197-.251-.445-.251-.7s.088-.503.251-.7c5.7-5.3 10.9-7.7 15.5-7.2s6.6 2.4 9.3 6.3c.062-.008.122-.03.174-.064.052-.035.095-.081.126-.136 4.8-4.5 10.2-6.6 14.5-5.6 2.5.7 5.8 2.6 7.8 8.5.047.118.068.244.063.37-.006.127-.038.251-.095.364-.056.113-.136.213-.234.294-.098.08-.212.139-.334.172z" fill="#000"/><path d="m679.5 284.2c4 .3 10.8-1.3 13.2-4.5s-.9-6.3-3.8-4.7-5 5.6-9.4 9.2z" fill="#66bcff"/><path d="m684.9 301.7c1.9-.3 5.3.2 6.6 1.7.238.252.381.579.405.924.024.346-.072.689-.272.972-.201.283-.493.488-.827.579-.334.092-.689.066-1.006-.075-1.3-.6-2.7-2.6-4.9-4.1z" fill="#91cfff"/><path d="m361.2 51.8c-2.889.2935-5.7 1.1065-8.3 2.4-1.9 1.1.1 3.1 5.8 3.7s11.5-.7 13.7-1 1.9-.2 3.6 1 2.7 2.3 2.6 1-.6-2.3.2-3.5c.628-.7944.947-1.7887.9-2.8-.1-.9-.5-.7-1.5.1-.988.8265-2.023 1.5945-3.1 2.3-.5.2-.6-.2-2.2-1-3.578-1.9287-7.666-2.6975-11.7-2.2z" fill="#3442d9"/><path d="m252 36.1.5.6c.1.1.3.2.4.1l.8-.5h-.1l1.2 1.7 9.4-.9c.738-.0964 1.451-.334 2.1-.7l2.2-1.5c2.9 2.3 6.1 3.4 7.9 3.4l9.9-.7 1.2-1.3h1.5c.17.0017.334-.0581.463-.1685.128-.1103.213-.2637.237-.4315-.006-.1269-.046-.2498-.117-.3555-.07-.1057-.168-.1902-.283-.2445-2.864-1.1604-5.556-2.7081-8-4.6l-1.2-.9-.5-.4-2-1.9c.298-.7797.532-1.5824.7-2.4 0-.1.1-.2 0-.3 0-.1 0-.2-.2-.3-.552-.1566-1.126-.2242-1.7-.2h-11.7c-1.1 0-1.6.5-1 2.7-3.4 3.8-9.4 7.7-11.6 9.1-.035.0196-.063.0491-.081.0847-.017.0356-.024.0758-.019.1153z" fill="#3442d9"/><path d="m335.6 90.7h-.4c-.169-.1205-.292-.2959-.346-.4964-.055-.2005-.039-.4138.046-.6036 6.1-12.9 14.7-18.7 30.6-20.6 11.3-1.3 15.8-6.8 20.6-12.7 2.34-3.0318 4.987-5.8133 7.9-8.3.173-.1169.385-.1614.591-.1241.205.0374.388.1537.509.3241.06.0716.106.1547.134.2442.027.0895.037.1837.028.277-.01.0932-.038.1837-.083.2659-.045.0823-.106.1547-.179.2129-2.844 2.4216-5.425 5.1367-7.7 8.1-5 6.1-9.7 11.9-21.6 13.3-15.3 1.7-23.5 7.3-29.4 19.7-.071.1227-.173.2243-.296.2946s-.262.1067-.404.1054z" fill="#8cd9ff"/><path d="m371.6 86.6h-.4c-.089-.0418-.169-.102-.233-.1766-.065-.0746-.112-.1619-.141-.2563-.028-.0944-.036-.1937-.023-.2914.012-.0978.045-.1917.097-.2757 5.2-10.2 9.9-14.4 13.5-16.8 1.8-1.3 3.5-2.2 5.1-3.2 4.9-2.7 9.5-5.3 14-14.1.103-.1615.261-.2806.444-.3356.184-.0551.381-.0425.556.0356.089.0417.169.1019.233.1765.065.0746.112.1619.141.2563.028.0944.036.1937.023.2915-.012.0977-.045.1917-.097.2757-4.7 9.2-9.4 11.9-14.5 14.8-1.718.911-3.387 1.9124-5 3-3.4 2.4-8 6.4-13.1 16.3-.072.0904-.163.1641-.267.2159s-.217.0805-.333.0841z" fill="#66bcff"/><path d="m384.8 70.1c-.2 0-.4-.2-.6-.4-.055-.0778-.094-.1662-.114-.2596s-.021-.19-.002-.2836c.019-.0937.056-.1826.111-.2611.054-.0786.124-.1452.205-.1957 1.8-1.3 3.5-2.2 5.1-3.2 4.9-2.7 9.5-5.3 14-14.1.103-.1615.261-.2806.444-.3356.184-.0551.381-.0424.556.0356.089.0418.169.1019.233.1765.065.0746.112.162.141.2564.028.0944.036.1937.023.2914-.012.0977-.045.1917-.097.2757-4.7 9.2-9.4 11.9-14.5 14.8-1.718.911-3.387 1.9124-5 3z" fill="#000"/><path d="m364.6 93.3c-.205-.0217-.396-.113-.541-.2586-.146-.1456-.237-.3367-.259-.5414.1-9.3 6.5-11.4 16.3-14.5h.3c12.5-4 18.3-5.8 22.8-12.2 2.1-3.1 4-7.4 6.4-14.3l1.7-4.9-.2 5.2c-.3 8.6-1.7 15.2-4.2 20.1s-7.9 9.8-16.5 12.9-11.9 4.8-14.6 6.9c-.08.0735-.175.1275-.279.1577-.105.0302-.214.0359-.321.0165s-.207-.0633-.294-.1282c-.087-.065-.157-.1492-.206-.246-.088-.1639-.117-.3535-.08-.536.037-.1826.136-.3466.28-.464 2.8-2.2 7.6-4.5 15-7.2s12.7-6.5 15.6-12.1c1.9-3.6 3.1-8.3 3.7-14.1-1.189 3.3895-2.802 6.6151-4.8 9.6-4.8 6.8-11 8.8-23.6 12.8h-.2c-10.3 3.2-15.2 5.1-15.2 13-.022.2047-.113.3958-.259.5414-.145.1456-.336.2369-.541.2586z" fill="#8cd9ff"/><path d="m403.8 66.9h-.5c-.155-.1354-.252-.3252-.27-.53-.019-.2048.042-.409.17-.57 2.1-3.1 4-7.4 6.4-14.3.086-.1839.231-.3334.413-.4241.181-.0908.388-.1176.587-.0759.197.0683.36.2113.454.3981.093.1869.11.4029.046.6019-2.4 7-4.4 11.4-6.7 14.7-.077.078-.172.1368-.276.1716-.104.0347-.215.0445-.324.0284z" fill="#000"/><path d="m352.6 85.1h-1c-.4-.1-.8-.4-.8-.8s.4-.8.8-.8c9.7.4 16-5.3 18.5-17.1 1.5-6.8 3.1-10.9 5.4-14.3s7.9-8 17-11.5c-3.436.3653-6.823 1.1029-10.1 2.2-6.4 2.3-10.9 6.5-15.3 13.9s-9.5 9.7-15.1 8.4c-.197-.0684-.36-.2113-.454-.3982-.093-.1869-.11-.4029-.046-.6018.023-.0941.065-.1824.123-.2593.059-.077.133-.141.217-.188.085-.047.178-.0759.275-.085.096-.0091.193.0019.285.0323 5.8 1.3 10.7-3.1 13.4-7.6 4.5-7.8 9.3-12.2 16-14.6 4.2-1.6 9.4-2.4 16.3-2.8l5.4-.2-5.1 1.7c-12.4 4.3-18.1 7.6-21.7 12.9-2.1 3.2-3.6 7.2-5.1 13.8-2.6 12-9.2 18.3-19 18.3z" fill="#66bcff"/><path d="m376.1 53.3h-.4c-.097-.0487-.181-.1192-.246-.206s-.109-.1875-.128-.2941c-.02-.1067-.014-.2164.016-.3205.031-.1041.085-.1997.158-.2794 3.2-4.7 7.9-8 17-11.5-3.436.3653-6.823 1.103-10.1 2.2-.097.0483-.204.0733-.312.0732-.109-.0002-.216-.0255-.313-.0739-.097-.0485-.181-.1188-.246-.2055-.065-.0866-.109-.1872-.129-.2938-.05-.0827-.079-.1764-.086-.2729-.006-.0966.012-.1932.051-.2816s.099-.166.175-.2261c.076-.0602.165-.1011.26-.1194 4.2-1.6 9.4-2.4 16.3-2.8l5.4-.2-5.1 1.7c-12.4 4.2-18.1 7.5-21.7 12.8-.067.0962-.157.1741-.262.2266-.105.0524-.221.0776-.338.0734z" fill="#000"/><path d="m412.511 65.6225c3.163-3.1632-.414-11.8693-7.99-19.4454-7.577-7.5762-16.283-11.1536-19.446-7.9903-3.163 3.1632.414 11.8692 7.99 19.4454 7.577 7.5762 16.283 11.1536 19.446 7.9903z" fill="#fff"/><path d="m418.4 46.3c7.787 0 14.1-6.3128 14.1-14.1s-6.313-14.1-14.1-14.1-14.1 6.3128-14.1 14.1 6.313 14.1 14.1 14.1z" fill="#ffc926"/><path d="m394.5 55.6 18.9 8.4 4.5-15.7-10.4-10.4z" fill="#fff"/><path d="m394.5 55.5999-7.7-18.3999 15.6-4.5 10.4 10.5z" fill="#fff"/><path d="m402.4 32.7c-.4 1.3 2.3 5.2 6.3 9.2s7.9 6.7 9.2 6.4l2.1-2.1-15.6-15.6z" fill="#000"/><path d="m420 46.2c-1.1.1-4.9-2.7-8.9-6.7s-6.8-7.7-6.7-8.9l14 1.6z" fill="#ffc926"/><path d="m421.3 34.4c-.4-3 2.7-6.2 6.9-8.5s7.6-1.7 10-.3 1.7 4.3-5 9.2c3.9 1.5 5.5 2.5 4.6 4.7s-3.9 2.1-9.7-.1-6.5-3.3-6.8-5z" fill="#ed5f00"/><path d="m424.8 33.3999c-.1 0-.2-.2-.1-.4 1.272-1.6189 2.874-2.9484 4.7-3.9 3.1-1.4 4.9-1.6 6.2-1.2s2 1.2 1.4 2.2c-1.339 1.8083-2.92 3.4234-4.7 4.8 1.395.4953 2.735 1.132 4 1.9.6.5.5.8-.3.8s-4-.6-11.2-4.2z" fill="#000"/><path d="m414.021 28.5305c1.065-1.6138.918-3.5874-.327-4.4083-1.245-.8208-3.117-.1781-4.181 1.4357-1.064 1.6137-.917 3.5874.328 4.4083 1.245.8208 3.116.178 4.18-1.4357z" fill="#fff"/><path d="m412.35 27.0749c.448-.6971.434-1.5041-.031-1.8025-.464-.2983-1.204.0249-1.652.722-.447.6972-.433 1.5042.032 1.8026.464.2983 1.204-.0249 1.651-.7221z" fill="#000"/><path d="m620.8 34.3c-5.621-.2728-11.244.4725-16.6 2.2-4.1 1.4-.8 6 10 8.8s22.2 1.9 26.5 2 3.8.2 6.5 3.1 4.7 5.1 4.8 2.7-.4-4.7 1.4-6.8 2.5-3.1 2.6-5.1-.7-1.5-2.9-.2c-2.11 1.3286-4.316 2.4985-6.6 3.5-1.1.3-1.1-.5-3.9-2.5-6.3-4.4-12-7.1-21.8-7.7z" fill="#66bcff"/><path d="m599 39.3 5.1-1.3-3.6-3.1" stroke="#66bcff" stroke-linecap="round" stroke-linejoin="round" stroke-width="2.22661"/><path d="m611.757 37.5913c.663-.007 1.197-.326 1.193-.7126-.004-.3865-.545-.6943-1.208-.6873-.662.0069-1.196.3259-1.192.7125s.544.6943 1.207.6874z" fill="#000"/><path d="m647.9 47.3999c-.196.0016-.386-.0688-.533-.1979-.148-.129-.243-.3077-.267-.5021-.005-.2077.062-.4109.189-.5749.128-.1641.308-.2789.511-.3251l2.7-.3c.107-.0319.22-.0379.33-.0174.109.0206.212.067.3.1355s.159.1571.206.2583.069.2122.064.3236c.014.1052.007.2121-.021.3146-.028.1024-.075.1983-.141.282-.065.0838-.146.1537-.238.2058-.093.0521-.195.0853-.3.0976l-2.7.3z" fill="#000"/><path d="m445.3 69.5c-4.428.4267-8.736 1.6819-12.7 3.7-2.9 1.6.2 4.7 8.8 5.6s17.5-1.2 20.9-1.6 2.9-.4 5.4 1.6 4.2 3.3 4 1.5-.8-3.6.3-5.4 1.6-2.8 1.4-4.3-.8-1.1-2.3.2c-1.471 1.2596-3.043 2.3968-4.7 3.4-.8.4-.9-.2-3.3-1.4-5.45-2.9129-11.668-4.0658-17.8-3.3z" fill="#3442d9"/><path d="m1035.6 90.6c-.2-1.5-.7-1.2-2.2.7-1.2 1.5848-2.54 3.0575-4 4.4-.6.5-.8 0-3.1-.8-5.7-1.8-10.6-2.5-17.3-.3-3.32 1.058-6.26 3.0344-8.5 5.7-1.2 1.7 3.2 3.6 10.1 3s13.1-3.4 15.8-4.3 2.4-.7 4.6.5 3.5 2 3.3.6-.8-2.8.1-4.7 1.4-3.1 1.2-4.8z" fill="#737eff"/><path d="m896.536 227.716c4.272-4.55 6.723-9.188 5.475-10.36s-5.723 1.566-9.995 6.116c-4.272 4.549-6.723 9.187-5.475 10.359s5.723-1.566 9.995-6.115z" fill="#ffe75c"/><path d="m876.392 248.942c4.172-4.716 6.515-9.458 5.232-10.592-1.282-1.135-5.703 1.768-9.875 6.484-4.172 4.715-6.515 9.457-5.232 10.592 1.282 1.134 5.703-1.769 9.875-6.484z" fill="#ffe75c"/><path d="m930.6 114.1s3.3 4.5 7.1 10.1c8.1-28.7 12.8-29.9 24.4-33-2.7 11.8-9.1 29.5-11.6 36.3s-6.5 13.6-13.1 13.6-12.7-9.9-18.2-18.9c-7.2 0-9.4.2-12.4-2.8s-3.7-6.6-.8-11.7 3.8-5.9 9.9-6.1 10.3.5 12.8 2.9 2.7 6.3 1.9 9.6z" fill="#66bcff"/><path d="m919.7 18.7.3.7h.3l.9-.4h-.1l.8 1.8 8.6 1 2-.3 2.3-.9c2.1 2.6 4.8 4.2 6.4 4.5s9.1 1.2 9.1 1.2l1.3-.9 1.4.2c.146.0322.298.009.427-.0649.13-.0739.227-.1934.273-.3351.034-.0507.056-.1085.064-.169s.002-.1221-.017-.18-.052-.1107-.094-.1542c-.043-.0435-.095-.0766-.153-.0968-2.313-1.6506-4.457-3.5264-6.4-5.6-.299-.342-.567-.7101-.8-1.1l-.5-.5-1.4-2.1c.401-.6471.768-1.3146 1.1-2v-.2c0-.0776-.018-.1542-.053-.2236s-.085-.1298-.147-.1764l-1.5-.5-2.2-.4h-.1l-.7-.2h-1.1l-.9-.2h-.2l-.7-.2h-.1l-.8-.2-.8-.2h-1.4l-1.4-.3c-1-.3-1.5.1-1.4 2.2-3.8 2.8-9.9 5.2-12.2 6-.1-.3-.2-.2-.1 0z" fill="#3442d9"/><path d="m738.9 71.9.3.7c0 .1.2.1.3.1l.8-.3.7 1.7 8.6 1c.673.0886 1.358.0201 2-.2l2.3-1c2.2 2.6 4.9 4.2 6.5 4.5s9.1 1.3 9.1 1.3l1.2-1 1.5.3c.152-.008.299-.0593.423-.1479.124-.0885.22-.2107.277-.3521-.019-.2311-.126-.4461-.3-.6-2.351-1.5629-4.472-3.448-6.3-5.6l-.9-1-.4-.6c-.535-.616-1.004-1.2863-1.4-2l1.1-2v-.2c.1-.1 0-.2-.2-.3s-.6-.3-1.5-.5l-2.1-.5h-1.2l-.7-.2h-.1l-.8-.2h-.2l-.8-.2h-.1l-.8-.2h-.9l-.7-.2h-.6l-1.4-.4c-1-.2-1.5.2-1.4 2.2-3.8 2.9-9.9 5.2-12.2 6.1.005-.0395-.002-.0796-.019-.1152-.018-.0357-.046-.0652-.081-.0848z" fill="#3442d9"/><path d="m892.9 34.5001 14.7.6c1.175.0694 2.348-.1721 3.4-.7 5.3-2.5 6.4-4.6 6.4-4.6l-8.6-9.8-17.8 11.6z" fill="#ffe75c"/><path d="m944.9 38.4-2.3 2.2s-11.4-.5-15.7-1-13.7-5.9-18.7-15.3c-5.5 8-12.9 10.1-15.3 10.2l-1.9-2.9 18.8-13.7z" fill="#ffc619"/><path d="m929.1 22.1s.9-2.5 1.2-3.7-.6-1.3-6.8-2.2l-14.6-2c-1.8-.3-2.6.4-1.7 4-5.5 5.4-15.1 10.3-18.6 12.1-.05.0299-.092.0701-.125.1179-.032.0478-.054.1021-.063.1591-.01.057-.007.1154.008.1712.016.0558.043.1076.08.1518l.8 1.2c.1.2.3.2.5.1 7.3-3.8 13.3-7.3 19-12.2 7.4 9.9 13.3 14.1 18.3 17.1.107.1009.232.1794.37.2309.137.0515.283.075.43.0691l19 1.6c.126.0142.254.0014.375-.0375.121-.0388.233-.1029.327-.1879.095-.085.17-.1891.221-.3054.052-.1162.078-.2421.077-.3692.004-.1947-.039-.3875-.126-.5617-.088-.1743-.216-.3247-.374-.4383-12.4-7-18.3-15-18.3-15z" fill="#eb459f"/><path d="m929.1 22.1001s.9-2.5 1.2-3.7-.6-1.3-6.8-2.2l-12.3-1.7c1.6.3 1.9.8-.1 4.5 2.3 4 7.9 10.3 16.3 16.1l20 2c-12.4-7-18.3-15-18.3-15z" fill="#ff78b9"/><path d="m908.4 23.6c-.239 0-.468-.0948-.636-.2636-.169-.1687-.264-.3977-.264-.6364v-1.2c.025-.2475.141-.4768.326-.6433.185-.1664.425-.2579.674-.2567.229.0468.435.1725.581.3552s.224.4109.219.6448v1.2c.001.1141-.023.227-.069.3312s-.114.1973-.2.2731c-.085.0757-.185.1324-.294.1661-.109.0338-.224.0439-.337.0296z" fill="#000"/><path d="m881.7 254.7-.5-.2-7.5-6.6c-.088-.084-.158-.185-.205-.297-.048-.111-.073-.232-.073-.353s.025-.242.073-.353c.047-.112.117-.213.205-.297.152-.162.359-.262.581-.28.221-.019.442.046.619.18l7.4 6.6c.094.077.172.173.229.281.056.108.09.226.1.348.009.121-.006.243-.046.359-.039.115-.101.221-.183.312-.088.098-.196.176-.317.228s-.251.076-.383.072z" fill="#ff8c19"/><path d="m901.8 232.8-.5-.2-7.5-6.6c-.169-.169-.273-.393-.291-.631-.018-.239.049-.476.191-.669.084-.088.185-.158.297-.205.111-.048.232-.073.353-.073s.242.025.353.073c.112.047.213.117.297.205l7.4 6.6c.092.068.168.154.224.254.055.099.089.21.098.323.01.114-.005.228-.044.336-.038.107-.099.205-.178.287-.088.098-.196.176-.317.228s-.251.076-.383.072z" fill="#ff8c19"/><path d="m953.8 263.8c.5-10.6 4.9-19.2 9.9-19.2s11.5 8.6 11 19.2-7.8 19.2-12.8 19.2-8.6-8.6-8.1-19.2z" fill="#ffc619"/><path d="m964.2 278.6c-.222.001-.437-.08-.604-.227-.166-.148-.271-.352-.296-.573-1.332-9.238-1.934-18.567-1.8-27.9 0-.239.095-.468.264-.636.168-.169.397-.264.636-.264.248.025.477.141.643.326.167.185.258.425.257.674-.125 9.233.476 18.462 1.8 27.6.03.224-.025.452-.155.637-.129.185-.324.315-.545.363z" fill="#000"/><path d="m1057.8 266.1c1.9-11-.6-19.9-5.6-19.9s-13.4 8.9-15.3 19.9 3.3 20 8.3 20 10.6-8.9 12.6-20z" fill="#ffe75c"/><path d="m1013.2 217.7h-.3c-.2-.089-.37-.25-.46-.454-.09-.203-.11-.433-.04-.646 3.3-8.8 9.1-10.1 11.4-10.2 1.7-.131 3.4.223 4.9 1.019 1.51.797 2.75 2.004 3.6 3.481.1.212.12.458.05.682-.08.225-.24.411-.45.518-.1.068-.22.112-.34.128s-.24.005-.36-.034c-.11-.038-.22-.103-.31-.189-.08-.085-.15-.19-.19-.305-.68-1.172-1.68-2.124-2.89-2.744-1.2-.62-2.56-.882-3.91-.756-4.2.2-7.8 3.5-9.8 9-.08.165-.21.302-.37.391-.16.09-.35.128-.53.109z" fill="#000"/><path d="m1047 310.3c.8-15.9-1.2-37.8-4.3-63.8s-18-31.4-33.8-31.2c-24.4.2-30.3 9.8-46.7 54-15.4 41.4-14.2 52.8-6.1 60.7 17.4 16.9 47.3 15.4 63.6 11.8 14-3.2 26.2-10.6 27.3-31.5z" fill="#ffe75c"/><path d="m991.6 267.7h-.3c-.223-.069-.411-.223-.523-.428-.112-.206-.14-.447-.077-.672.749-3.061 2.147-5.926 4.1-8.4.084-.088.185-.158.297-.205.111-.048.232-.073.353-.073s.242.025.353.073c.112.047.213.117.297.205.085.075.153.167.2.271.047.103.071.215.071.329 0 .113-.024.226-.071.329-.047.104-.115.196-.2.271-1.722 2.302-2.979 4.917-3.7 7.7-.045.176-.149.331-.295.44-.145.109-.323.166-.505.16z" fill="#ffc619"/><path d="m1005 258.9c1.1-6.5 5.4-11.5 9.6-11.5s7 5 6.3 11.5-4.1 13.2-10.2 12.8-7-5.9-5.7-12.8z" fill="#fff"/><path d="m977.5 256.9c1.6-6.6 5.6-11.6 9-11.6s5.3 4.3 4 11.6-4.6 13.3-9.6 13-5.1-6-3.4-13z" fill="#fff"/><path d="m1010.2 214c-9.2-.2-18.9 2.3-24.2 7.3s-.5 6.8 12.7.8c-4.2 7.8-2.2 13.2 5.3 11.1 4.1-1.2 8.3-5.7 10.9-10 8.8 7.4 12.9 10.1 17.7 10s4.7-6.7.2-11.5-10.2-7.4-22.6-7.7z" fill="#ff8c19"/><path d="m1010.6 290.7c-.25 2.347-.75 4.661-1.5 6.9-.79 2.212-1.83 4.326-3.1 6.3-1.29 2.143-2.91 4.067-4.8 5.7-2.123 1.846-4.662 3.15-7.4 3.8-1.572.32-3.194.307-4.762-.037-1.567-.345-3.045-1.013-4.338-1.963-1.227-.87-2.25-1.996-3-3.3l-.6-.9-.4-.9c-.309-.615-.576-1.249-.8-1.9-.638-2.38-.941-4.837-.9-7.3.017-.604.084-1.206.2-1.8.06-.573.16-1.141.3-1.7.051-.574.152-1.143.3-1.7l.5-1.6v-.3c.127-.475.348-.921.649-1.31s.677-.714 1.105-.956.901-.396 1.389-.454c.489-.057.984-.016 1.457.12.863.275 1.599.85 2.075 1.62.477.77.663 1.685.525 2.58-.328 1.713-.463 3.457-.4 5.2.037 1.565.307 3.115.8 4.6.336 1.076 1 2.021 1.9 2.7l.4.3h1.8c1.225-.385 2.352-1.033 3.3-1.9 1.215-1.096 2.29-2.339 3.2-3.7 1.93-2.931 3.23-6.236 3.8-9.7.31-.972.95-1.803 1.81-2.346s1.89-.762 2.9-.618 1.93.642 2.61 1.405c.67.762 1.06 1.74 1.08 2.759z" fill="#eb459f"/><path d="m1007.9 290.2c-.41 2.106-.98 4.178-1.7 6.2-.8 1.999-1.8 3.909-3 5.7-1.18 1.81-2.59 3.457-4.2 4.9-1.688 1.493-3.712 2.557-5.9 3.1-1.115.242-2.267.251-3.385.027-1.119-.224-2.179-.675-3.115-1.327-1.781-1.377-3.105-3.259-3.8-5.4-1.359-4.136-1.533-8.57-.5-12.8 0-.4.4-.6.8-.5.099-.006.198.013.287.055.09.042.168.105.228.184.059.079.098.172.113.27s.005.198-.028.291c-.808 3.954-.601 8.048.6 11.9.625 1.797 1.774 3.364 3.3 4.5.732.553 1.582.931 2.484 1.105.901.173 1.83.137 2.716-.105 1.863-.475 3.581-1.403 5-2.7 1.535-1.308 2.88-2.822 4-4.5 2.22-3.391 3.72-7.204 4.4-11.2.07-.202.21-.374.39-.484s.4-.151.61-.116c.2.046.38.161.51.325s.2.367.19.575z" fill="#000"/><path d="m1028.7 142.9-109.9 22.9c3.478 2.243 6.727 4.822 9.7 7.7 7.8 7.8 8.8 17-.3 26-33.3 32.8-69.4 69-72.6 105.9-2.1 24.6 9.2 41.4 33.2 43s39.3-14.3 51.2-30.5c21.7-29.4 35.7-39.7 53.7-43.4l1.4-10.5c-16.2-1.9-34 9.9-49.5 25.6-8.8 9-14 12-21 12.2s-14.6-8.5-5.6-26.9 30.2-37.6 65.7-63.8c42.1-31.1 43.1-45.2 44-68.2z" fill="url(#j)"/><path d="m918.8 165.8c3.478 2.243 6.727 4.822 9.7 7.7 7.8 7.8 8.8 17-.3 26-33.3 32.8-69.4 69-72.6 105.9l63.4-30.5c9.1-18.4 30.2-37.6 65.7-63.8 42.1-31.1 43.1-45.2 44-68.2z" fill="url(#l)"/><path d="m973.287 162.389c30.743-5.96 54.683-15.838 53.483-22.062-1.21-6.224-27.111-6.438-57.853-.478s-54.686 15.838-53.479 22.062 27.107 6.438 57.849.478z" fill="#ffe75c"/><path d="m970 165.2c-25 4.3-45.3 4.6-51 .6h-.2c1.8 1.2 3.5 2.4 5 3.6 4.089.752 8.243 1.087 12.4 1 11.441-.187 22.847-1.324 34.1-3.4 22.8-4 49.6-11.4 58.2-20.5.08-.998.12-1.999.1-3-4.7 7.8-27.5 16.3-58.6 21.7z" fill="#fa8014"/><path d="m974.584 159.84c28.106-5.36 50.186-13.356 49.326-17.859s-24.335-3.807-52.437 1.553c-28.101 5.361-50.186 13.357-49.327 17.86s24.336 3.807 52.438-1.554z" fill="url(#m)"/><path d="m970.9 160.7c16.2-2.9 30.8-6.8 40.6-10.5-5.2-1.3-18.6-.6-34.7 2.3-18.4 3.3-34.4 8.3-38.9 12 11.078-.459 22.108-1.729 33-3.8z" fill="#000"/><path d="m1002.8 80c-2.3-8.1899-5.765-16.0044-10.3-23.2l-3.9 25.1001c14.1 4 15.8 4.3999 14.2-1.9001z" fill="#b0e5ff"/><path d="m1014.9 148.8c-9.6 4.1-25.9 8.5-44 11.8-9.5 1.7-18.3 2.8-25.8 3.4-2.461-2.718-4.092-6.084-4.7-9.7-.204-.953-.304-1.925-.3-2.9-.5-7.2 2.1-15.3 7.3-23-1.8-22.7 1.8-33.9 14.7-37.3 20.4-5.4 32.5-7.4 40.7-1.5s7.1 17.9 6.1 36.1c1.6 2.6 4.9 7.2 6.1 13.5.58 3.177.54 6.435-.1 9.6z" fill="#eb459f"/><path d="m917.5 146.1c-2.5-2.9-8.1-6.3-11.8-5.8s-3.6 4.8-.6 5.7 7.1-.5 12.4.1z" fill="#459ff7"/><path d="m997.3 108.5h-.3l-4.5-1.5c-.213-.108-.38-.288-.472-.508-.091-.22-.101-.465-.028-.692.033-.11.088-.211.164-.298.075-.086.168-.155.272-.203.104-.047.218-.072.332-.072.115.001.228.025.332.073l4.5 1.6c.223.069.411.223.523.428.112.206.14.447.077.672-.091.157-.222.287-.381.375-.158.088-.338.131-.519.125z" fill="#000"/><path d="m982.8 158.3c-1.6-9.1-.3-21.6 5.9-33.5-5.3-18.9-7.1-39.5 5-38.5-7.6-.9-17.6 1.2-31.6 4.9h-.1c-8.1 2.4-9.1 18.2-3.3 38.2-4.2 10.6-6.3 24.3-2.4 33.5 4.6-.6 9.5-1.3 14.6-2.2s8-1.5 11.9-2.4z" fill="#fff"/><path d="m981.9 36.8c2.4-3.6 5.2-5.2 7.9-4.6s4.8 4.3 4.3 13.9 2.7 25.1.4 40.3c-1.8-.3-5.1-.2-7.1 2.4-8.3 11-13.1 16.4-19.1 16.7s-10.8-3.9-12.5-22.2c-1.375-16.044 1.2-32.1808 7.5-47 2.8-6.1 6.9-10.6 10.5-11.5s7.6 3 8.1 12z" fill="#66bcff"/><path d="m984.7 97.8c-5.5 7.3-11.2 10.8-17.4 10.8h-.1c-1.136.014-2.262-.22-3.299-.686-1.036-.467-1.958-1.154-2.701-2.014-1.5-1.9-3-5.6-2.5-12.6-.735.896-1.372 1.8682-1.9 2.9.1 4.7 1.1 8.4 3.1 10.8.874 1.089 1.988 1.962 3.253 2.551 1.266.59 2.651.88 4.047.849h.1c6.3 0 11.9-3.1 17.3-9.6 0-1 0-2 .1-3z" fill="#91ffad"/><path d="m981.9 36.8c.7 9 .6 19.3.6 19.3 4.5-7.6 7-13.2 8-17.4s-1.8-7.9-5-5.6c-1.416 1.003-2.636 2.2571-3.6 3.7z" fill="#000"/><path d="m983.4 66.3c.786-1.444 1.455-2.9489 2-4.5.7-1.6 1.5-2.8 3.1-2.8s3.4 2.7 2.2 6.1-4.2 6.1-6.6 6.1-2-2.1-.7-4.9z" fill="#fff"/><path d="m984.327 65.6671c.597-1.1179.648-2.2556.113-2.5411s-1.452.3892-2.049 1.5071c-.597 1.1178-.648 2.2554-.113 2.5409.535.2856 1.452-.3891 2.049-1.5069z" fill="#000"/><path d="m971.6 51.3c2-11-1.4-12.8-5.2-12.1s-5.8 4.2-7.1 8.5c-3.306 11.5582-4.491 23.6193-3.5 35.6 1.7 18.3 7.6 22.4 12.5 22.2 2.044-.147 4.012-.837 5.7-2-7.1-16.4-5.2-36.9-2.4-52.2z" fill="#459ff7"/><path d="m934.8 119.2h-4.8c-.142.001-.281-.035-.404-.105-.123-.071-.225-.172-.296-.295l-3.9-5.6c-.047-.062-.107-.112-.176-.147-.07-.035-.146-.053-.224-.053h-3.1c-.239 0-.468-.095-.636-.264-.169-.168-.264-.397-.264-.636s.095-.468.264-.636c.168-.169.397-.264.636-.264h3.1c.376-.009.748.077 1.08.253.333.175.615.432.82.747l3.6 5.2h4.3c.239 0 .468.095.636.264.169.168.264.397.264.636s-.095.468-.264.636c-.168.169-.397.264-.636.264z" fill="#000"/><path d="m934.8 125.3c-1.857 0-3.637-.737-4.95-2.05-1.312-1.313-2.05-3.093-2.05-4.95 0-1.856.738-3.637 2.05-4.95 1.313-1.312 3.093-2.05 4.95-2.05h9.1v14z" fill="#0c1aad"/><path d="m1015.92 254.941c.88-2.264.14-4.669-1.66-5.371s-3.98.564-4.86 2.828-.14 4.669 1.66 5.371 3.98-.564 4.86-2.828z" fill="#000"/><path d="m989.149 252.13c.616-2.236-.05-4.37-1.488-4.766s-3.102 1.096-3.718 3.332c-.616 2.237.05 4.37 1.487 4.766 1.438.396 3.103-1.095 3.719-3.332z" fill="#000"/><path d="m1043.6 269c-.16.009-.31-.023-.45-.094-.14-.07-.26-.175-.35-.306-.08-.158-.12-.337-.1-.515s.09-.347.2-.485c3.38-4.954 6.35-10.17 8.9-15.6.03-.11.09-.211.16-.298.08-.086.17-.155.28-.203.1-.047.21-.072.33-.072.11.001.23.025.33.073.11.044.22.11.3.195.09.085.16.186.21.298.04.112.07.233.07.354-.01.122-.03.242-.08.353-2.23 4.976-4.88 9.759-7.9 14.3 1.72-.246 3.46-.38 5.2-.4.24 0 .47.095.64.264.17.168.26.397.26.636s-.09.468-.26.636c-.17.169-.4.264-.64.264-2.34.029-4.68.23-7 .6z" fill="#000"/><path d="m1045.7 286.1c-1.35.261-2.72.428-4.1.5.6 2.6 1.9 6.5 4.1-.5z" fill="#000"/><path d="m994.7 239.1c0 1.8-2.6 3.3-5.9 3.3s-6-1.5-6-3.3 2.7-2.5 6-2.3 5.9.4 5.9 2.3z" fill="#000"/><path d="m1021.8 240.8c0 1.8-2.7 3.3-5.9 3.3s-6-1.5-6-3.3 2.7-2.5 6-2.3 5.9.5 5.9 2.3z" fill="#000"/><path d="m989.4 334.6h-.9c-2.857-.046-5.673-.682-8.272-1.87-2.599-1.187-4.924-2.9-6.828-5.03-1.654-2.002-2.88-4.321-3.602-6.815s-.926-5.109-.598-7.685c.047-.229.172-.435.355-.581s.411-.224.645-.219c.229.047.435.172.581.355s.224.411.219.645c-.318 2.328-.144 4.697.511 6.953.654 2.256 1.775 4.351 3.289 6.147 1.729 1.934 3.838 3.492 6.195 4.575 2.356 1.084 4.911 1.671 7.505 1.725 10.9.4 21.5-6.8 24.8-16.9.07-.223.22-.411.43-.523.2-.112.44-.14.67-.077.12.021.23.068.33.138s.18.161.24.267c.05.106.09.223.09.344.01.12-.01.24-.06.351-3.4 10.5-14.3 18.2-25.6 18.2z" fill="#ffc619"/><path d="m885.7 274.3c-.64.032-1.281-.036-1.9-.2-2.699-.807-5.286-1.949-7.7-3.4-.144-.142-.236-.328-.261-.528s.017-.403.121-.576.263-.306.452-.378c.188-.072.395-.078.588-.018 2.257 1.338 4.677 2.38 7.2 3.1 1.045.285 2.148.278 3.189-.022 1.04-.3 1.978-.88 2.711-1.678l39.5-43.4c.168-.125.375-.188.585-.177s.409.095.563.238c.154.142.254.334.282.542.027.208-.018.419-.13.597l-39.4 43.4c-.743.793-1.641 1.425-2.639 1.855s-2.074.65-3.161.645z" fill="#ff8c19"/><path d="m897.3 255.676c4.484-4.499 6.532-9.726 4.576-11.675s-7.176.118-11.659 4.617c-4.483 4.498-6.532 9.726-4.576 11.675s7.176-.118 11.659-4.617z" fill="#ffe75c"/><path d="m916.361 234.865c4.778-4.183 7.178-9.259 5.359-11.337s-7.168-.371-11.946 3.813c-4.779 4.183-7.179 9.259-5.36 11.337s7.168.371 11.947-3.813z" fill="#ffe75c"/><path d="m905.613 278.078c3.498-4.626 4.298-9.914 1.788-11.813-2.511-1.899-7.382.311-10.88 4.936s-4.299 9.914-1.788 11.813 7.382-.311 10.88-4.936z" fill="#ffe75c"/><path d="m925.092 257.221c3.755-4.491 4.841-9.769 2.426-11.788-2.415-2.02-7.417-.016-11.172 4.475-3.755 4.492-4.842 9.769-2.426 11.789 2.415 2.019 7.417.015 11.172-4.476z" fill="#ffe75c"/><path d="m975 133.7c7.2 0 16.8-.2 29.5-.6s19-3.1 15.4-15-8.9-22.2-17.1-28.4-14.7 4.6-8.7 13.7l10.8 16.5-29.9.6c-3.8-3.7-6.5-6.2-9.8-6.2-2.31.05-4.574.647-6.608 1.742s-3.779 2.657-5.092 4.558c-3.3 4.9-4.3 8 1.9 14.7s10.1 7.7 19.6-1.6z" fill="#66bcff"/><path d="m919.2 186.2c-3.931.429-7.756 1.546-11.3 3.3-2.6 1.5.1 4.3 7.9 5s15.6-1 18.6-1.4 2.7-.3 4.9 1.4 3.8 3 3.6 1.4-.8-3.2.2-4.9 1.4-2.4 1.3-3.8-.7-1-2.1.2c-1.315 1.144-2.719 2.181-4.2 3.1-.7.3-.8-.2-3-1.3-4.862-2.621-10.417-3.669-15.9-3z" fill="#3442d9"/><path d="m1003.7 118 1.2 1.9c3.4.284 6.63 1.651 9.2 3.9l.6.2c.14-.008.28-.048.4-.117.12-.07.22-.166.3-.283.07-.089.13-.192.16-.304.03-.111.04-.228.02-.342s-.07-.223-.13-.318c-.07-.096-.15-.176-.25-.236-3.21-2.758-7.27-4.314-11.5-4.4z" fill="#000"/><path d="m979.9 84.8c-.118 0-.235-.0233-.344-.0685-.11-.0452-.209-.1115-.292-.1951-.084-.0836-.15-.1828-.196-.292-.045-.1092-.068-.2262-.068-.3444-.014-.1131-.004-.228.03-.3369.033-.109.09-.2094.166-.2946s.169-.1533.273-.1996.217-.0698.331-.0689c4.8-.3 7.1-1.8 10.2-6.7.051-.1069.124-.2013.216-.2763.091-.075.198-.1288.313-.1575s.235-.0316.351-.0085c.116.0232.225.0718.32.1423.194.1238.333.3171.389.5403s.024.4592-.089.6597c-3 4.7-5.5 7.2-11.6 7.6z" fill="#459ff7"/><path d="m982.2 41.2c.2 3.9.2 7.6.3 10.3 6.3-10.8 6.5-14.7 6.1-15.8s-1.9-1-4.1 2.1z" fill="#eb459f"/><path d="m957.1 123.9c-10.3-11.5-21-22.6-32.2-33.1-11.279-10.4996-23.202-20.2852-35.7-29.3-12.52-8.9584-25.578-17.1404-39.1-24.5-13.6-7.3-27.6-13.9-41.8-19.8-.113-.0438-.217-.1101-.304-.1949-.087-.0847-.155-.1862-.202-.2984-.047-.1121-.07-.2325-.069-.354.001-.1214.026-.2414.075-.3527.044-.1133.11-.2165.195-.3035s.186-.1559.298-.2026c.112-.0468.233-.0703.354-.0692.122.001.242.0266.353.0753 14.3 5.8 28.5 12.2 42.2 19.4 13.712 7.2538 26.97 15.3354 39.7 24.2 12.689 8.9414 24.812 18.66 36.3 29.1 11.5 10.4 22.4 21.5 32.9 32.9.19.194.339.424.438.677.098.253.144.523.135.794-.009.272-.074.538-.19.784-.115.246-.28.465-.483.645-.403.36-.93.55-1.47.531-.54-.018-1.052-.244-1.43-.631z" fill="#000"/><path d="m943.9 125.3c3.866 0 7-3.134 7-7s-3.134-7-7-7-7 3.134-7 7 3.134 7 7 7z" fill="#fff"/><path d="m943.9 122c2.043 0 3.7-1.657 3.7-3.7s-1.657-3.7-3.7-3.7-3.7 1.657-3.7 3.7 1.657 3.7 3.7 3.7z" fill="#3ddb7f"/><path d="m1019.1 138-.3 1.7c3.6.5 5.4 1.5 5.1 3.1-1.2 4.8-24.9 12.6-53 17.7s-50 5.3-48.8.5c.3-1.4 2.2-2.9 5.5-4.6l-1-1.4c-5.5 2.7-8.9 5.4-9.4 7.7-1.5 6.7 22.2 7.8 53 2.5s56.9-15.1 58.4-21.9c.6-2.7-3-4.5-9.5-5.3z" fill="#ffe75c"/><path d="m920.8 239.1-.6-.2-7.5-6.7c-.094-.077-.172-.172-.229-.281-.056-.108-.09-.226-.1-.348-.009-.121.006-.243.046-.359.039-.115.101-.221.183-.312.075-.085.167-.153.271-.2.103-.047.216-.071.329-.071.114 0 .226.024.329.071.104.047.196.115.271.2l7.6 6.6c.088.084.158.185.205.297.048.111.073.232.073.353s-.025.242-.073.353c-.047.112-.117.213-.205.297-.067.096-.157.174-.262.227-.104.052-.221.077-.338.073z" fill="#ff8c19"/><path d="m901.3 260c-.109.016-.22.006-.324-.028-.104-.035-.199-.094-.276-.172l-7.1-6.3c-.125-.168-.188-.375-.177-.585s.095-.409.238-.563c.142-.154.334-.254.542-.282.208-.027.419.018.597.13l7.1 6.3c.092.068.168.154.224.254.055.099.089.21.098.323.01.114-.005.228-.044.336-.038.107-.099.205-.178.287-.19.18-.438.287-.7.3z" fill="#ff8c19"/><path d="m919.9 253.7c-.109.016-.22.006-.324-.028-.104-.035-.199-.094-.276-.172l-6.9-6.1c-.088-.084-.158-.185-.205-.297-.048-.111-.073-.232-.073-.353s.025-.242.073-.353c.047-.112.117-.213.205-.297.075-.085.167-.153.271-.2.103-.047.215-.071.329-.071s.226.024.329.071c.104.047.196.115.271.2l6.9 6.1c.092.068.168.154.224.254.055.099.089.21.098.323.01.114-.005.228-.043.336-.039.107-.1.205-.179.287-.088.098-.196.176-.317.228s-.251.076-.383.072z" fill="#ff8c19"/><path d="m901.2 275.8-.6-.2-7.1-6.3c-.088-.084-.158-.185-.205-.297-.048-.111-.073-.232-.073-.353s.025-.242.073-.353c.047-.112.117-.213.205-.297.075-.085.167-.153.271-.2.103-.047.215-.071.329-.071.113 0 .226.024.329.071.104.047.196.115.271.2l7.1 6.2c.094.077.172.173.229.281.056.108.09.226.1.348.009.121-.006.243-.046.359-.039.115-.101.221-.183.312-.19.18-.438.287-.7.3z" fill="#ff8c19"/><path d="m798.8 90.8h-.4c-.213-.1076-.38-.2876-.472-.5076-.091-.22-.101-.4656-.028-.6924 1.953-4.8959 3.491-9.9469 4.6-15.1.101-.2.26-.3647.456-.4719.197-.1072.421-.1519.644-.1281.12.0235.233.0711.334.1399.101.0687.186.1572.252.2601.065.1028.109.2179.129.3383.019.1203.014.2434-.015.3617-1.203 5.2048-2.773 10.3177-4.7 15.3-.2.2-.5.5-.8.5z" fill="#000"/><path d="m776.1 112.7 13.8-3.1c1.06-.295 2.047-.806 2.9-1.5 4.6-3.7 5.3-5.9 5.3-5.9l-9.3-6.9-14.7 15.2z" fill="#fff"/><path d="m824.6 103.2-1.7 2.6s-10.6 2.4-14.7 3-13.4-2-19.3-9.4c-4 8.8-10.5 12.6-12.8 13.3l-2-2.2 15.4-17.4z" fill="#fff2a6"/><path d="m807.8 92.1001s.5-2.5.6-3.7-.7-1.1-6.6-.3l-13.8 1.8c-1.7.2-2.2 1-.9 4.1-4.4 6.3999-12.4 13.3999-15.5 15.8999-.2.2-.2.5 0 .6l.9.9h.5c6.2-5.4 11.2-10.1 15.8-16.0999 8.2 7.1999 14.3 9.6999 19.3 11.1999h.8l17.7-3.3c.118-.012.233-.048.338-.105.104-.057.196-.135.271-.228.074-.093.13-.2.162-.314.033-.115.043-.235.029-.353-.01-.178-.072-.349-.179-.491s-.253-.25-.421-.309c-12.4-3.3999-19-9.2999-19-9.2999z" fill="#29cc7a"/><path d="m807.8 92.1001s.5-2.5.6-3.7-.7-1.1-6.6-.3l-11.5 1.5c1.5-.1 1.8.2.5 4.2 2.7 3.1 8.7 7.4999 17.3 10.6999l18.7-3.1c-12.4-3.3999-19-9.2999-19-9.2999z" fill="#57f287"/><path d="m788.8 98.5c-.239 0-.468-.0948-.636-.2636-.169-.1688-.264-.3977-.264-.6364v-2.3c0-.2387.095-.4676.264-.6364.168-.1688.397-.2636.636-.2636.239 0 .468.0948.636.2636.169.1688.264.3977.264.6364v2.3c0 .2387-.095.4676-.264.6364-.168.1688-.397.2636-.636.2636z" fill="#000"/><path d="m940.9 116.6-.4-.2c0-.1-4.5-6.8-13.7-22.2-13.3-2.7-37.5-11.6-51-40.9-14.5-1.6-32.2-5.7-40.9-23.2-2.3.1-16.9.5-25.7-9.9 1.096 18.3651-.692 36.7886-5.3 54.6-.1.2-.4.4-.6.3s-.4-.3-.3-.5c4.719-18.1659 6.475-36.9745 5.2-55.7-.009-.1042.016-.2085.07-.2982.053-.0897.134-.1603.23-.2018.2 0 .4 0 .5.2 9.1 12 26 10.6 26.1 10.6l.5.2c8.5 17.4 26.1 21.5 40.5 23.1l.4.2c13.4 29.2 37.5 38 50.7 40.7l.3.2c9.3 15.5 13.7 22.2 13.7 22.3.037.044.064.096.08.152.015.056.018.114.008.171-.009.057-.031.111-.063.159-.033.048-.076.088-.125.118z" fill="#fff"/><path d="m803.4 76.5c.994 0 1.8-.8059 1.8-1.8s-.806-1.8-1.8-1.8-1.8.8059-1.8 1.8.806 1.8 1.8 1.8z" fill="#000"/><path d="m800.4 92.3c-.601-.0135-1.187-.186-1.7-.5l-.4-.2c-.144-.1417-.236-.3276-.261-.5278s.017-.4031.121-.5761c.104-.1731.263-.3062.452-.378.188-.0718.395-.0782.588-.0181l.4.2c.213.1154.448.184.689.2012.242.0173.484-.0172.711-.1012.237-.0618.459-.1742.649-.3295.189-.1554.343-.35.451-.5705l2.1-4c.107-.2111.293-.3715.518-.4464.225-.0748.47-.0582.682.0464.195.1233.341.31.414.5287s.068.4558-.014.6713l-2.1 4c-.225.4336-.537.8169-.915 1.1263-.378.3095-.815.5387-1.285.6737z" fill="#000"/><path d="m805.7 89.1c-.195.0111-.388-.0415-.55-.1497-.163-.1082-.285-.2662-.35-.4503l-.4-1.4-1.4.5c-.227.0734-.472.0633-.692-.0284-.22-.0916-.4-.2589-.508-.4716-.067-.2388-.042-.4938.069-.7155s.3-.3944.531-.4845l2.3-.8h.7c.102.0456.191.1147.261.2016.069.087.117.1893.139.2984l.7 2.4c.063.2254.035.4663-.077.6716s-.3.359-.523.4284z" fill="#000"/><path d="m555.7 64.1c-1.123-.6977-2.08-1.6316-2.806-2.7369-.725-1.1053-1.201-2.3553-1.394-3.6631l-.7-4.5c0-.1061-.042-.2078-.117-.2829-.075-.075-.177-.1171-.283-.1171-.109.0221-.211.0699-.298.1395-.087.0695-.156.1589-.202.2605l-.6 4.5c-.193 1.3078-.669 2.5578-1.394 3.6631-.726 1.1053-1.683 2.0392-2.806 2.7369l-.6.4c-.062.0466-.113.107-.147.1764-.035.0694-.053.146-.053.2236s.018.1542.053.2236c.034.0694.085.1298.147.1764l.6.4c1.123.6976 2.08 1.6316 2.806 2.7369.725 1.1052 1.201 2.3553 1.394 3.6631l.6 4.5c.046.1016.115.1909.202.2605s.189.1174.298.1395c.106 0 .208-.0422.283-.1172s.117-.1767.117-.2828l.7-4.5c.193-1.3078.669-2.5579 1.394-3.6631.726-1.1053 1.683-2.0393 2.806-2.7369l.6-.4c.062-.0466.112-.107.147-.1764s.053-.146.053-.2236-.018-.1542-.053-.2236-.085-.1298-.147-.1764z" fill="#ffab19"/><path d="m257.9 92.4c-.872-.5427-1.612-1.2732-2.165-2.1382-.554-.865-.907-1.8427-1.035-2.8618l-.6-3.5c0-.0795-.032-.1558-.088-.2121s-.132-.0879-.212-.0879c-.2 0-.3.2-.4.3l-.5 3.5c-.147 1.013-.509 1.983-1.061 2.8452s-1.281 1.5968-2.139 2.1548l-.5.3c-.036.0406-.064.0882-.081.1397-.017.0516-.024.1062-.019.1603 0 .2 0 .3.1.3l.5.3c.85.5674 1.573 1.3046 2.123 2.1651.551.8605.918 1.8258 1.077 2.8349l.5 3.5c.1.2.2.3.4.3.08 0 .156-.032.212-.088s.088-.132.088-.212l.6-3.5c.134-1.0169.491-1.9919 1.044-2.856.553-.864 1.289-1.5959 2.156-2.144l.4-.3c.1 0 .2-.1.2-.3l-.2-.3z" fill="#ff78b9"/><path d="m453.2 23c-.689-.5053-1.155-1.2581-1.3-2.1l-.2-1.4c0-.0265-.011-.0519-.029-.0707-.019-.0187-.044-.0293-.071-.0293-.1 0-.2 0-.2.1l-.2 1.4c-.055.4223-.2.8279-.424 1.19s-.523.6723-.876.91c.353.2377.652.548.876.91.224.3621.369.7678.424 1.19l.2 1.4c0 .1.1.1.2.1.027 0 .052-.0105.071-.0293.018-.0187.029-.0442.029-.0707l.2-1.4c.145-.8419.611-1.5946 1.3-2.1h.2c.1 0 .1 0 .1-.1h-.3z" fill="#66bcff"/><path d="m204.9 183.6c-1.149-.774-2.124-1.778-2.864-2.948-.74-1.171-1.229-2.483-1.436-3.852l-.8-4.8c0-.053-.01-.105-.03-.153-.021-.049-.05-.093-.087-.13s-.081-.066-.13-.087c-.048-.02-.1-.03-.153-.03-.117-.002-.231.036-.322.109-.092.074-.155.176-.178.291l-.7 4.8c-.206 1.382-.706 2.703-1.465 3.876-.758 1.173-1.759 2.17-2.935 2.924l-.6.4c-.1 0-.2.2-.2.4 0 .078.018.154.053.224.035.069.085.129.147.176l.6.4c1.185.744 2.192 1.739 2.952 2.913.76 1.175 1.254 2.501 1.448 3.887l.7 4.7c.023.115.086.217.178.291.091.073.205.111.322.109.106 0 .208-.042.283-.117s.117-.177.117-.283l.8-4.7c.195-1.373.679-2.689 1.42-3.862.741-1.172 1.723-2.173 2.88-2.938l.7-.4c.062-.047.113-.107.147-.176.035-.07.053-.146.053-.224 0-.2-.1-.4-.2-.4z" fill="#3442d9"/><path d="m1032.5 11.8c-2-1.2915-3.7-2.99361-5-4.9935-1.29-1.99989-2.14-4.25184-2.5-6.606488l-1.2-8.200002c-.02-.1944-.12-.37306-.27-.50208-.14-.12903-.33-.19945-.53-.19792-.2-.00153-.39.06889-.53.19792-.15.12902-.25.30768-.27.50208l-1.3 8.200002c-.34 2.360648-1.18 4.620058-2.48 6.622618-1.29 2.00256-3.01 3.70067-5.02 4.97737l-1.1.7c-.1.0877-.18.1958-.23.3167-.05.121-.07.2518-.07.3833 0 .1171.02.2335.07.3383.06.1048.13.1948.23.2617l1.1.7c2.02 1.2974 3.73 3.0139 5.02 5.0328 1.3 2.0189 2.14 4.2929 2.48 6.6672l1.3 8.1c.02.1944.12.3731.27.5021.14.129.33.1994.53.1979.2.0015.39-.0689.53-.1979.15-.129.25-.3077.27-.5021l1.2-8.1c.36-2.3685 1.21-4.6351 2.5-6.6514s3-3.7367 5-5.0486l1.1-.7c.11-.0617.2-.1482.27-.2524s.11-.2232.13-.3476c-.01-.138-.06-.2716-.13-.3921s-.16-.2254-.27-.3079z" fill="#57f287"/><path d="m738.8 269.7c-1.415-.992-2.385-2.5-2.7-4.2l-.4-3c0-.1-.2-.2-.3-.2s-.3.1-.3.2l-.4 3c-.158.853-.487 1.666-.968 2.388-.482.722-1.105 1.338-1.832 1.812l-.3.2-.2.3c0 .053.021.104.059.141.037.038.088.059.141.059l.3.3c.735.465 1.364 1.079 1.847 1.802.482.724.807 1.541.953 2.398l.4 2.9c0 .08.032.156.088.212s.132.088.212.088c.08 0 .156-.032.212-.088s.088-.132.088-.212l.4-2.9c.146-.845.46-1.653.923-2.374.464-.722 1.068-1.343 1.777-1.826l.4-.3c.026 0 .052-.005.077-.015.024-.01.046-.025.064-.044.019-.018.034-.04.044-.064.01-.025.015-.051.015-.077l-.2-.3z" fill="#3442d9"/><path d="m843.9 241.6c-1.292-.897-2.188-2.258-2.5-3.8l-.4-2.7-.2-.2c-.2 0-.3.1-.3.2l-.4 2.7c-.115.777-.399 1.52-.83 2.176-.432.656-1.002 1.211-1.67 1.624l-.3.2c-.1 0-.1.1-.1.2s0 .2.1.2l.3.3c.682.397 1.263.946 1.697 1.606.434.659.709 1.41.803 2.194l.4 2.6c0 .08.032.156.088.212s.132.088.212.088c.1 0 .2-.1.2-.3l.4-2.6c.128-.773.416-1.511.847-2.165.43-.655.994-1.212 1.653-1.635l.3-.3c.1 0 .1-.1.1-.2s0-.2-.1-.2z" fill="#459ff7"/><path d="m937 63.5c-.659-.4135-1.216-.9696-1.632-1.6273-.415-.6576-.678-1.4001-.768-2.1727l-.4-2.6c0-.1-.1-.2-.3-.2-.053 0-.104.0211-.141.0586-.038.0375-.059.0884-.059.1414l-.4 2.6c-.109.7793-.389 1.5246-.822 2.1819-.432.6572-1.005 1.21-1.678 1.6181l-.3.2c-.036.0406-.064.0881-.081.1397s-.024.1061-.019.1603v.2l.3.2c.664.4185 1.23.9741 1.661 1.6295s.717 1.3955.839 2.1705l.4 2.6c0 .2.1.3.2.3.08 0 .156-.0316.212-.0878.056-.0563.088-.1326.088-.2122l.4-2.6c.104-.7686.372-1.5058.786-2.1615.414-.6558.965-1.2146 1.614-1.6385l.4-.2v-.2c.005-.0542-.002-.1087-.019-.1603s-.045-.0991-.081-.1397z" fill="#737eff"/><path d="m380 303.5c-.538-.341-.995-.795-1.341-1.33-.345-.535-.57-1.139-.659-1.77l-.3-2.2-.3-.2-.2.2-.3 2.2c-.089.631-.314 1.235-.659 1.77-.346.535-.803.989-1.341 1.33l-.3.2c-.1 0-.1.1-.1.2s0 .1.1.2l.3.2c.538.341.995.795 1.341 1.33.345.536.57 1.139.659 1.77l.3 2.2.2.2.3-.2.3-2.2c.089-.631.314-1.234.659-1.77.346-.535.803-.989 1.341-1.33l.3-.2c.1-.1.1-.1.1-.2s0-.2-.1-.2z" fill="#57f287"/><path d="m450.2 256.3c-.541-.362-.998-.834-1.343-1.385-.345-.552-.569-1.17-.657-1.815l-.3-2.2h-.5l-.3 2.2c-.088.645-.312 1.263-.657 1.815-.345.551-.802 1.023-1.343 1.385l-.3.2c-.1 0-.1.1-.1.2s0 .1.1.2h.3c.532.371.984.845 1.328 1.395.343.55.572 1.164.672 1.805l.3 2.2c0 .053.021.104.059.141.037.038.088.059.141.059.2 0 .2-.1.3-.2l.3-2.2c.1-.641.329-1.255.672-1.805.344-.55.796-1.024 1.328-1.395h.3c.1-.1.1-.1.1-.2s0-.2-.1-.2z" fill="#808aff"/><path d="m41.1 193c-.6467-.403-1.1969-.944-1.6117-1.583-.4147-.639-.6838-1.362-.7883-2.117l-.4-2.6c0-.1-.1-.2-.3-.2l-.2.2-.4 2.6c-.1044.755-.3736 1.478-.7883 2.117s-.965 1.18-1.6117 1.583l-.3.2v.2.2l.3.2c.6467.403 1.197.944 1.6117 1.583s.6839 1.362.7883 2.117l.4 2.6c0 .053.0211.104.0586.141.0375.038.0884.059.1414.059.2 0 .3-.1.3-.2l.4-2.6c.1045-.755.3736-1.478.7883-2.117.4148-.639.965-1.18 1.6117-1.583l.3-.2v-.2-.2z" fill="#fff2a6"/></g></g></svg>