<svg enable-background="new 0 0 425.292 519.372" height="519.372" viewBox="0 0 425.292 519.372" width="425.292" xmlns="http://www.w3.org/2000/svg" xmlns:xlink="http://www.w3.org/1999/xlink"><clipPath id="a"><path d="m0-3.624h426.082v536.12h-426.082z"/></clipPath><path clip-path="url(#a)" d="m0 0h425.717v425.712h-425.717z" fill="#e2011a"/><path clip-path="url(#a)" d="m149.866 365.25h-66.415v-230.747h-43.423v-39.166c29.805.422 49.39-11.93 60.031-40.876h49.807z" fill="#fff"/><path clip-path="url(#a)" d="m211.162 276.699c0-30.657 6.812-52.361 31.923-71.524-20.86-20.86-28.52-39.17-28.52-67.264 0-48.963 31.079-83.45 82.166-83.45 51.086 0 82.166 34.487 82.166 83.45 0 28.093-7.66 46.403-28.521 67.264 25.126 19.164 31.923 40.867 31.923 71.524 0 55.765-17.438 93.67-85.568 93.67-68.112 0-85.569-37.905-85.569-93.67m85.569-43.426c-15.329 0-19.164 10.641-19.164 39.597 0 29.368 3.835 39.587 19.164 39.587 15.319 0 19.163-10.219 19.163-39.587 0-28.956-3.844-39.597-19.163-39.597m0-122.611c-14.045 0-17.457 6.811-17.457 36.194 0 29.368 3.412 36.184 17.457 36.184 14.044 0 17.457-6.816 17.457-36.184 0-29.383-3.413-36.194-17.457-36.194" fill="#fff"/><path clip-path="url(#a)" d="m0 519.372h425.717v-519.372h-425.717m417.205 417.189h-408.683v-408.681h408.682v408.681z"/><path clip-path="url(#a)" d="m381.254 17.03v3.159h-6.739v21.33h-3.959v-21.33h-6.729v-3.159zm27.437 24.489h-3.959v-19.288h-.115l-6.787 19.288h-3.23l-6.451-19.288h-.115v19.288h-3.96v-24.489h6.289l6.106 18.219h.115l5.935-18.219h6.173v24.489z"/><g fill="#fff"><path clip-path="url(#a)" d="m27.039 487.449h7.223l6.639-32.287h.148l6.927 32.287h6.787l9.351-39.525h-6.475l-6.117 32.316h-.158l-6.557-32.316h-7.295l-6.716 32.316h-.143l-6.341-32.316h-6.491z"/><path clip-path="url(#a)" d="m74.837 487.449h7.224l6.633-32.287h.159l6.931 32.287h6.763l9.375-39.525h-6.49l-6.116 32.316h-.153l-6.567-32.316h-7.295l-6.706 32.316h-.149l-6.341-32.316h-6.485z"/><path clip-path="url(#a)" d="m122.625 487.449h7.229l6.634-32.287h.148l6.941 32.287h6.773l9.366-39.525h-6.481l-6.126 32.316h-.148l-6.567-32.316h-7.29l-6.716 32.316h-.148l-6.342-32.316h-6.5z"/><path clip-path="url(#a)" d="m163.21 479.646h6.773v7.804h-6.773z"/><path clip-path="url(#a)" clip-rule="evenodd" d="m185.321 467.701c0-9.012 1.112-15.492 7.971-15.492 5.752 0 7.228 6.059 7.228 14.744 0 10.181-1.476 16.221-7.228 16.221-6.633 0-7.971-7.814-7.971-15.473m-5.819 32.728h6.183v-17.466h.158c1.404 3.384 4.721 5.521 8.254 5.521 10.248 0 12.908-12.539 12.908-21.531 0-11.715-3.542-20.055-12.908-20.055-4.28 0-7.736 2.962-8.551 5.905h-.144v-4.88h-5.9z" fill-rule="evenodd"/><path clip-path="url(#a)" clip-rule="evenodd" d="m219.032 463.56v-1.477c0-2.339.738-10.314 7.229-10.314 5.455 0 6.864 5.225 6.864 9.653v2.138zm20.573 4.87v-2.502c0-8.484-1.112-19.029-13.201-19.029-12.16 0-14.087 11.427-14.087 21.32 0 13.564 4.055 20.266 13.723 20.266 10.766 0 13.259-9.807 13.259-14.006h-6.174c0 2.943-.824 9.146-6.721 9.146-7.587 0-7.587-9.146-7.587-15.194h20.788z" fill-rule="evenodd"/><path clip-path="url(#a)" clip-rule="evenodd" d="m258.625 452.209c6.634 0 7.957 7.813 7.957 15.492 0 8.091-1.323 14.446-8.034 14.446-6.174 0-7.151-8.043-7.151-14.446-.001-9.433 1.476-15.492 7.228-15.492m13.785-4.285h-5.886v5.033h-.163c-.806-3.106-4.267-6.059-8.552-6.059-10.018 0-12.894 10.104-12.894 20.803 0 5.234.729 19.748 12.232 19.748 3.911 0 7.593-1.994 8.935-5.302h.153v5.167c0 2.723.288 8.839-7.688 8.839-3.24 0-6.049-1.399-6.327-5.004h-6.192c1.016 9.874 10.535 9.874 12.951 9.874 7.967 0 13.431-4.275 13.431-16.076z" fill-rule="evenodd"/><path clip-path="url(#a)" clip-rule="evenodd" d="m280.913 487.449h6.184v-39.516h-6.184zm0-45.554h6.184v-7.095h-6.184z" fill-rule="evenodd"/><path clip-path="url(#a)" d="m296.97 479.646h6.787v7.804h-6.787z"/><path clip-path="url(#a)" clip-rule="evenodd" d="m313.641 487.449h6.203v-39.516h-6.203zm0-45.554h6.203v-7.095h-6.203z" fill-rule="evenodd"/><path clip-path="url(#a)" d="m328.318 487.449h6.174v-27.273c0-5.752 4.516-7.967 7.832-7.967 5.599 0 5.819 4.946 5.819 7.967v27.273h6.193v-28.021c0-4.63 0-12.529-10.401-12.529-3.815 0-7.947 2.07-9.567 5.694h-.163v-4.669h-5.887z"/><path clip-path="url(#a)" d="m364.306 487.449h6.212v-34.646h6.768v-4.88h-6.768v-4.63c0-2.732 1.313-3.758 3.979-3.758h2.866v-5.312h-4.496c-5.982 0-8.561 3.097-8.561 9.069v4.63h-5.742v4.88h5.742z"/><path clip-path="url(#a)" clip-rule="evenodd" d="m379.634 467.701c0 11.12 2.819 20.783 14.236 20.783 11.36 0 14.227-9.663 14.227-20.783 0-11.149-2.8-20.803-14.227-20.803-11.34 0-14.236 9.654-14.236 20.803m14.083 15.933c-6.337 0-7.573-7.401-7.573-15.933 0-8.57 1.323-15.933 7.573-15.933 6.644 0 7.909 7.362 7.909 15.933 0 8.531-1.342 15.933-7.909 15.933" fill-rule="evenodd"/></g></svg>