<svg fill="none" height="172" viewBox="0 0 357 172" width="357" xmlns="http://www.w3.org/2000/svg" xmlns:xlink="http://www.w3.org/1999/xlink"><linearGradient id="a" gradientUnits="userSpaceOnUse" x1="66.4161" x2="66.4161" y1="107.46" y2="177.812"><stop offset="0" stop-color="#e8827d"/><stop offset="1" stop-color="#e2a395"/></linearGradient><linearGradient id="b" gradientUnits="userSpaceOnUse" x1="42.2318" x2="34.8307" y1="1.80599" y2="20.8684"><stop offset="0" stop-color="#ffc285"/><stop offset="1" stop-color="#db8d6b"/></linearGradient><linearGradient id="c" gradientUnits="userSpaceOnUse" x1="17.6621" x2="58.5561" y1="12.9963" y2="12.9963"><stop offset="0" stop-color="#d67569"/><stop offset="1" stop-color="#e39e7f"/></linearGradient><linearGradient id="d"><stop offset="0" stop-color="#61c7c7"/><stop offset="1" stop-color="#54b9c7"/></linearGradient><linearGradient id="e" gradientUnits="userSpaceOnUse" x1="78.4526" x2="87.1944" xlink:href="#d" y1="40.5581" y2="38.4782"/><linearGradient id="f" gradientUnits="userSpaceOnUse" x1="4534.68" x2="4621.78" xlink:href="#d" y1="1138.85" y2="1138.85"/><clipPath id="g"><path d="m0 0h357v172h-357z"/></clipPath><clipPath id="h"><path d="m108.499 99.4043h81.9468v89.0471h-81.9468z"/></clipPath><clipPath id="i"><path d="m-219.371 0h396.828v188.285h-396.828z"/></clipPath><g clip-path="url(#g)"><path d="m262.734 162.644c-.573-31.887-38.883-79.0506-88.202-63.3295-19.982-92.54422-163.2292-98.20891-169.65657 27.3685-47.09163-6.301-117.09243.7-122.05643 65.812-26.791.573-60.01 3.755-66.819 37.425h358.532l228.713-.191c-28.446-48.818-56.383-86.943-140.511-67.085z" fill="#82a5ff" opacity=".5"/><g clip-path="url(#h)"><path d="m146.003 124.046h-37.507v64.409h37.507z" fill="#fff0db"/><path d="m141.743 188.452h27.399v-74.391h-27.399z" fill="#fff0db"/><path d="m139.695 178.135h13.282v-20.595h-13.282z" fill="#f7e5bc"/><path d="m186.893 154.287h-17.751v3.216h17.751z" fill="#f7e5bc"/><path d="m175.575 154.287h-16.247l-4.887-7.183h15.913z" fill="#f595ba"/><path d="m190.485 157.502h-21.343v30.941h21.343z" fill="#fff0db"/><g fill="#ffd191"><path d="m184.552 161.722c.377 0 .738.149 1.005.416.266.266.415.627.415 1.004v3.759h-2.84v-3.759c0-.377.15-.738.416-1.004.267-.267.628-.416 1.004-.416z"/><path d="m177.997 161.722c.377 0 .738.149 1.005.416.266.266.416.627.416 1.004v3.759h-2.841v-3.759c0-.377.15-.738.416-1.004.267-.267.628-.416 1.004-.416z"/><path d="m171.44 161.722c.376 0 .738.149 1.004.416.266.266.416.627.416 1.004v3.759h-2.84v-3.759c0-.377.149-.738.416-1.004.266-.267.627-.416 1.004-.416z"/></g><path d="m133.974 149.191c.186 0 .371.037.543.108s.329.176.461.308.236.288.308.461c.071.172.108.357.108.543v3.759h-2.841v-3.759c0-.186.037-.371.109-.543.071-.173.176-.329.307-.461.132-.132.289-.237.461-.308s.357-.108.544-.108z" fill="#f7e5bc"/><path d="m133.974 165.104c.186 0 .371.037.543.109.172.071.329.176.461.307.132.132.236.289.308.461.071.172.108.357.108.544v3.759h-2.841v-3.759c0-.377.15-.738.416-1.005.267-.266.628-.416 1.005-.416z" fill="#f7e5bc"/><path d="m166.468 118.033h-2.256v4.11h2.256z" fill="#ffd191"/><path d="m158.283 118.033h-2.256v4.11h2.256z" fill="#ffd191"/><path d="m149.177 124.046h-40.681v2.281h40.681z" fill="#f595ba"/><path d="m137.189 161.261h-6.432v.94h6.432z" fill="#bed3ff"/><path clip-rule="evenodd" d="m154.777 99.5719c.187-.1182.406-.1765.627-.1671.204-.0058.408.0303.598.1059s.363.1892.507.3339c.145.1447.259.3174.334.5074.076.19.112.394.106.598.002.215-.04.429-.125.627-.279.063-.57.05-.842-.038s-.515-.249-.704-.464c-.211-.182-.369-.417-.458-.682-.088-.265-.103-.5486-.043-.8211zm12.781 10.5681h2.632c.518-.012 1.02.177 1.401.528.382.35.613.835.645 1.352.012.264-.031.529-.125.776-.093.248-.236.475-.419.666-.184.191-.404.343-.648.447s-.506.157-.771.157h-29.696c-.265 0-.527-.053-.771-.157s-.464-.256-.648-.447c-.183-.191-.326-.418-.419-.666-.094-.247-.136-.512-.125-.776.032-.517.263-1.002.645-1.352.381-.351.884-.54 1.401-.528h2.632c2.412-.008 4.724-.969 6.432-2.673l5.68-5.722 5.722 5.722c1.708 1.704 4.02 2.665 6.432 2.673z" fill="#bed3ff" fill-rule="evenodd"/><path d="m154.441 147.104v7.267h4.887z" fill="#f7e5bc"/><path clip-rule="evenodd" d="m156.947 100.949c0 .854-.692 1.546-1.545 1.546-.056 0-.111-.003-.166-.009l-1.713 7.654h-10.233c2.412-.008 4.724-.969 6.432-2.673l5.063-5.1c-.547-.238-.929-.784-.929-1.418 0-.853.692-1.5452 1.546-1.5452.853 0 1.545.6922 1.545 1.5452z" fill="#abc5ff" fill-rule="evenodd"/><path d="m159.325 154.286h16.248l-.794-1.086h-16.164z" fill="#f08db4"/><path d="m156.903 150.695h16.081l-.794-1.045h-15.997z" fill="#f08db4"/><path d="m144.543 144.304c.41 0 .803.163 1.093.452.289.29.452.683.452 1.093v2.548h-3.09v-2.548c0-.41.162-.803.452-1.093.29-.289.683-.452 1.093-.452z" fill="#f7e5bc"/><path d="m125.247 133.612c.276 0 .542.11.738.306.196.195.306.461.306.738v3.007h-2.089v-3.049c.011-.269.126-.524.321-.711.194-.187.454-.291.724-.291z" fill="#f7e5bc"/></g><g clip-path="url(#i)"><path d="m108.247 27.106c1.044 1.5036 1.462 4.3437 1.88 7.2674.417 2.9237 1.002 7.6434.292 11.1518z" fill="#c2ffce"/><path d="m24.6743 64.9043c-.9606 3.3414-1.253 4.3855-.0417 5.6385 1.2112 1.253.0417-5.6385.0417-5.6385z" fill="#7d9fff"/><path d="m19.7869 35.2918c1.3365-2.8819 1.2948-3.0072 3.7172-3.8426l-3.216 4.5526z" fill="#ff707e"/><path d="m123.452 102.118h-188.2857v86.161h188.2857z" fill="#feccaf"/><path d="m70.1578 118.073c-1.4201 10.108-3.7173 7.811-5.7221 2.882-2.0048-4.928-3.2578-10.066-3.2996-6.933-.0418 3.132 2.5478 9.69-1.8795 13.031s-5.9727.418-7.6851-4.385c-1.7125-4.804-4.4691-9.523-6.3486-20.55h24.1831s2.1718 5.848.7518 15.955z" fill="#ed988d"/><path d="m-.470215 157 18.711615-17.918 1.4618 15.83-20.173415 22.596z" fill="#ffc3a5"/><path d="m79.4727 130.311 35.1263-14.075-6.182 14.075z" fill="#fec6a5"/><path d="m123.493 102.118h-188.3267v12.697l188.3267-8.52z" fill="#ed988d"/><path d="m85.9885 106.003.3342 4.887s20.7583-.96 27.2323-4.887z" fill="#ed988d"/><path d="m101.9 105.794c.71 2.381 1.253 2.799 3.508 3.759 2.255.961 6.39 2.757 2.297-4.803z" fill="#ed988d"/><path d="m92.7124 109.511c.4177 2.423.9189 2.924 3.0072 4.135 2.0884 1.212 6.0144 3.55 2.8819-4.469z" fill="#ed988d"/><path d="m123.495 139.792-47.3222-6.557-36.7967 8.812-1.2947 4.302-.1253-44.231h-5.5133v6.892h-17.5421v-6.892h-5.555l.33416 86.165h5.51324v-3.842h11.4441l-1.1694 3.842h98.0272zm-108.5943-27.524h17.5839v14.785h-17.5421zm.0418 18.043h17.6256v14.785h-17.5421zm.0835 18.043h17.5839v14.786h-17.5421zm.0836 32.829v-14.786h16.9573l-4.4273 14.786z" fill="url(#a)"/><path d="m88.2437 147.269c-1.7347 0-3.4305.514-4.8729 1.478s-2.5666 2.334-3.2305 3.937c-.6638 1.602-.8375 3.366-.4991 5.067.3384 1.702 1.1738 3.265 2.4004 4.491 1.2267 1.227 2.7895 2.062 4.491 2.401 1.7014.338 3.465.164 5.0677-.499 1.6027-.664 2.9725-1.789 3.9363-3.231s1.4782-3.138 1.4782-4.873c0-2.326-.9241-4.557-2.569-6.202s-3.8758-2.569-6.2021-2.569zm0 15.203c-1.2721 0-2.5157-.377-3.5735-1.084-1.0577-.707-1.8821-1.711-2.369-2.886-.4868-1.176-.6142-2.469-.366-3.717.2482-1.247.8608-2.394 1.7603-3.293.8996-.9 2.0457-1.512 3.2934-1.76 1.2477-.249 2.541-.121 3.7163.366 1.1753.486 2.1799 1.311 2.8866 2.369.7068 1.057 1.084 2.301 1.084 3.573 0 1.706-.6776 3.342-1.8839 4.548-1.2062 1.207-2.8423 1.884-4.5482 1.884z" fill="#cc8564"/><path d="m116.645 163.308v-21.928" stroke="#612d46" stroke-linecap="round" stroke-miterlimit="10" stroke-width="3.34136"/><path d="m55.916 163.308v-21.928" stroke="#612d46" stroke-linecap="round" stroke-miterlimit="10" stroke-width="3.34136"/><path d="m123.452 120.956h-188.2857v2.76h188.2857z" fill="#f8ab64"/><path d="m69.6581 120.957h-5.2208c.3704.953.8174 1.875 1.3365 2.756h3.049c.3798-.885.6599-1.809.8353-2.756z" fill="#db8669"/><path d="m61.846 120.956h-10.9012c.2089.585.4595 1.17.6265 1.713l.4177 1.044h9.5229c.2392-.899.3517-1.827.3341-2.757z" fill="#db8669"/><path d="m37.9983 120.957h-5.4714v2.756h5.5132z" fill="#db8669"/><path d="m9.42871 123.712h5.51329v-2.756h-5.51329z" fill="#db8669"/><path d="m153.902 128.975c-7.351 0-11.361 2.547-14.995 5.22l-1.127.878-1.253.96c-3.3 2.423-6.767 4.511-13.073 4.511-6.307 0-9.44-1.879-12.614-4.135l-1.754-1.336-.669-.502.502-.376c3.633-2.673 7.643-5.22 14.952-5.22z" fill="#de548c"/><path d="m117.104 137.663h10.108l4.302-3.091h-9.857z" fill="#de5b90"/><path d="m115.057 140.544 6.599-4.511h-13.616l-5.43 4.511z" fill="#d94c86"/><path d="m121.198 130.645h13.741l3.926-1.67h-12.697z" fill="#e85a94"/><path d="m123.452 143.467h-30.03c-7.351 0-11.3606-2.547-14.9943-5.262l-.4177-.293.6683-.584 1.6289-1.295c3.049-2.297 6.5992-4.135 12.6554-4.135s9.7734 2.047 13.0734 4.511l1.294.96 1.086.836c3.634 2.715 7.644 5.262 15.036 5.262z" fill="#b03a73"/><path d="m90.7072 133.11h-5.2209c-1.8662.703-3.6131 1.689-5.1791 2.924l-1.6289 1.295-.6683.585.4177.292 2.0883 1.462h19.547z" fill="#a3366b"/><path d="m62.9745 129.016c-8.1446 0-12.4466 3.007-16.1638 6.098l-6.8916 5.764c-.2974.245-.4862.597-.5253.98s.0746.767.3165 1.067c.1397.164.3122.297.5064.39.1942.094.4059.146.6213.152h29.9887c-.2105-.001-.4178-.051-.606-.145s-.3524-.23-.48-.397c-.2467-.295-.3675-.675-.3363-1.058.0313-.383.2121-.738.5034-.989l5.7221-4.762 1.2112-1.002 1.086-.919c3.4666-2.756 7.6851-5.179 15.0361-5.179z" fill="#de548c"/><path d="m69.9078 140.879h-29.9887c-.2974.245-.4862.597-.5253.98s.0746.767.3165 1.066c.1397.165.3122.298.5064.391.1942.094.4059.146.6213.152h29.9887c-.2105-.001-.4178-.051-.606-.145s-.3524-.23-.48-.398c-.2467-.294-.3675-.674-.3362-1.057.0312-.383.212-.738.5033-.989z" fill="#b03a73"/><path d="m63.0167 136.41-5.5133 4.26h-17.3332l5.1373-4.26z" fill="#d94c86"/><path d="m176.039 143.467h-21.719c-7.351 0-11.361-2.548-14.994-5.263l-.418-.292.585-.501h.041l1.671-1.253c3.007-2.172 6.182-3.968 11.57-4.219h2.255c6.432.251 9.899 2.715 13.157 5.43h.041l6.892 5.764c.259.214.583.332.919.334z" fill="#b03a73"/><path d="m149.643 137.872 3.633 3.007h21.51l-3.55-3.007z" fill="#a3366b"/><path d="m176.956 140.878-6.933-5.764c-3.676-3.091-7.978-6.098-16.122-6.098-7.351 0-11.361 2.506-14.995 5.179l-1.127.877-1.253.961c-3.3 2.422-6.767 4.511-13.115 4.511-6.349 0-9.398-1.88-12.572-4.135l-1.754-1.337-.669-.501c-3.717-2.798-7.768-5.555-15.4533-5.555-7.6851 0-11.5694 2.423-15.0361 5.179l-1.0859.919-1.2113 1.002-5.722 4.762c-.2913.251-.4721.606-.5034.989-.0312.383.0896.763.3363 1.058.1276.167.2917.303.48.397.1882.094.3955.144.6059.145.3356-.002.6601-.12.9189-.334l6.2651-5.221.6682-.584 1.6289-1.295c3.049-2.297 6.5992-4.135 12.6554-4.135s9.7733 2.047 13.0733 4.511l1.295.961 1.085.835c3.634 2.715 7.686 5.262 14.995 5.262s11.695-2.756 15.454-5.555l.668-.542 1.671-1.254c3.174-2.297 6.641-4.218 12.697-4.218 7.184 0 10.859 2.548 14.284 5.43l6.933 5.805c.259.214.584.332.919.334.211-.001.418-.051.606-.145s.353-.23.48-.397c.247-.295.368-.675.336-1.058-.031-.383-.212-.738-.503-.989z" fill="#f06fa2"/><path d="m-73.6874 81.8198h205.0754c.322 0 .63.1276.857.3548.227.2271.355.5352.355.8565v14.6184h-207.4987v-14.6184c0-.3213.1276-.6294.3548-.8565.2271-.2272.5352-.3548.8565-.3548z" fill="#e46a9b"/><path d="m118.941 97.6495h-30.9495s-.3342-3.2996-1.6707-15.8297h28.3602z" fill="#c84b8b"/><path d="m42.6744 81.8198s-.1253 4.8868 1.1277 6.9751c.5847 2.7149 2.0883 7.3092 2.0883 7.3092v1.5454h13.3654v-15.8297z" fill="#c84b8b"/><path d="m125.498 81.8198 2.172 5.555 4.928 2.339v-1.9631l-2.882-5.2208-1.67-.7101z" fill="#e86f9f"/><path d="m132.641 84.2422h-207.5397v1.3449h207.5397z" fill="#e49b9b"/><path d="m132.641 93.8071h-207.5397v1.3449h207.5397z" fill="#e49b9b"/><path d="m59.2572 84.2422v1.3365h-16.3726c-.0811-.4409-.1231-.8882-.1253-1.3365z" fill="#c46999"/><path d="m59.2568 93.8071v1.3366h-13.6577l-.4177-1.3366z" fill="#c46999"/><path d="m-73.6874 81.8198h81.02784c.32124 0 .62932.1276.85647.3548.22715.2271.35478.5352.35478.8565v14.6184h-83.45039v-14.6184c0-.3213.1276-.6294.3548-.8565.2271-.2272.5352-.3548.8565-.3548z" fill="#c45999"/><path d="m-74.8987 97.6494v.7936c2.6313 0 5.8474 1.2112 7.0586 3.675h193.3811c1.211-2.4638 4.427-3.675 7.059-3.675v-.7936z" fill="#c84b8b"/><path d="m132.599 98.4429h-130.56384v1.111h130.56384z" fill="#b03a73"/><path d="m-74.8987 97.6494v.7936c2.6313 0 5.8474 1.2112 7.0586 3.675h69.33316c1.21124-2.4638 4.42731-3.675 7.05863-3.675v-.7936z" fill="#b03a73"/><path d="m111.841 188.284h-48.1992c0-9.022 7.3093-16.456 16.2892-16.456h15.579c4.3462.022 8.506 1.767 11.568 4.852 3.061 3.084 4.774 7.258 4.763 11.604z" fill="#cc8564"/><path d="m97.0553 162.471h-18.6281c-6.2919 0-12.326 2.5-16.7751 6.949-4.449 4.449-6.9485 10.483-6.9485 16.775v2.088h2.339v-2.088c0-5.672 2.253-11.111 6.2634-15.121 4.0104-4.011 9.4497-6.264 15.1212-6.264h18.6281c5.6717 0 11.1107 2.253 15.1217 6.264 4.01 4.01 6.263 9.449 6.263 15.121v2.088h2.297v-2.088c0-6.285-2.494-12.313-6.934-16.761-4.44-4.447-10.463-6.952-16.7477-6.963z" fill="#cc8564"/><path d="m100.062 147.727h-4.72v11.912h4.72z" fill="#c95a3e"/><path d="m100.064 147.727h-2.7151v11.912h2.7151z" fill="#d15c42"/><path d="m76.1736 158.795h-4.8032v11.912h4.8032z" fill="#c95a3e"/><path d="m120.112 166.606h-4.804v11.912h4.804z" fill="#c95a3e"/><path d="m120.111 166.606h-2.381v11.912h2.381z" fill="#d4674c"/><path d="m76.171 158.795h-3.4249v11.912h3.4249z" fill="#d4704c"/><path d="m145.213 168.528h-4.803v11.912h4.803z" fill="#ce644a"/><path d="m154.109 155.454h-4.803v11.912h4.803z" fill="#ce644a"/><path d="m154.109 155.454h-1.963v11.912h1.963z" fill="#d17736"/><path d="m145.213 168.528h-2.965v11.912h2.965z" fill="#e38b4c"/><path d="m56.917 9.77094-.1253.12531-.3341.29235-.1253.1253-.2506.2089c-5.6386 4.8449-12.906 6.9333-17.7927 8.3951-6.3486 1.8795-11.6113 2.4643-15.5791 2.4643-5.1374-.0418-6.1398-2.7149-4.0096-5.931l1.253-1.5036 6.265-7.60155.2924-.3759c4.1349-4.88673 7.8522-7.10038 15.6626-5.387935l11.8618 2.547785h.0418c4.1349.91887 6.0979 3.42489 2.8401 6.64094z" fill="url(#b)"/><path d="m43.2603 1.50176c4.7615 1.16947 12.8643 3.55019 12.8643 3.55019l2.0048.29237c-.71-1.00241-2.1301-1.79598-4.0514-2.21365h-.0418l-11.8618-2.547787c-3.7172-.835339-6.4739-.751805-8.8128.083534 3.6337-.877106 5.722-.208835 9.8987.835343z" fill="#fffdc4"/><path d="m38.6232 19.5451c4.1767-1.253 13.073-4.8032 16.5397-8.2699-.7936.8354 0-.6265-1.5872.1253-8.1863 4.0097-26.8143 9.3976-30.8657 9.9823 3.9678.2506 11.653-.5847 15.9132-1.8377z" fill="#fffdc4"/><path d="m57.8795 5.0522c-3.6337-1.08594-11.9036-.1253-21.0505 2.75662-9.147 2.88188-17.1245 7.10038-19.1293 10.14938-.2506 1.963 1.2948 3.3831 5.012 3.4249 3.7173.0417 9.2305-.5848 15.5791-2.4643 4.8867-1.4618 12.1542-3.5502 17.7927-8.3951l.2506-.2089.1253-.1253.3342-.29233.1253-.1253c1.9212-1.87951 2.0465-3.50842.9606-4.71967z" fill="url(#c)"/><path d="m39.6906 16.8812c8.8707-2.78 15.6313-6.4075 15.1001-8.10241-.5311-1.6949-8.1528-.81532-17.0235 1.96461-8.8707 2.7799-15.6313 6.4074-15.1001 8.1023.5311 1.6949 8.1528.8154 17.0235-1.9645z" fill="#6b3143"/><path d="m54.7449 9.43752c.0894-.19593.1185-.41401.0836-.6265l-.1671-.25061-9.1887 3.92609 6.8915-4.51082c-.3048-.04179-.614-.04179-.9188 0l-6.3486 4.26022c-.371-.0857-.7567-.0857-1.1277 0l3.4666-3.84255-1.2947.2506-2.6731 3.63375-1.8796.3341 2.0049-3.42488-1.2113.29237-1.2948 3.25781-1.253.3341.9189-3.17424-1.4201.41764-.4594 3.0072h.1253l-.3341.1253-1.0024-2.6313-1.0442.3342 1.6707 2.3807-.8354.2923-2.4225-2.1301-1.253.4595 2.9655 1.9213-.8771.3341-3.7173-1.6707-1.5454.6265 4.5527 1.3366-1.0442.5012-6.4739-.4595-1.5454.7936h7.3092l-.5012.3341-8.8963 1.0442c-.3727.2774-.7095.6001-1.0024.9606l9.4393-1.6289c-.0418.1253-.0835.2089-.0418.2506.0418.0418.0836.1253.1671.1671l-9.8152 2.4225c.2464.2589.5677.4341.9188.5012l9.8153-2.8402c.5323-.0417 1.0621-.1114 1.5871-.2088l-7.8522 3.1325 1.2113-.1253 7.6433-3.216h.2924l-4.9285 2.7566 2.3389-.5012 3.5502-2.506 1.9213-.543 2.2554-.7936 3.0072.5848 2.882-1.1695-4.6362.0835h.0418l7.0586-1.253c.7936-.3759 1.5036-.7936 2.1301-1.1695l-7.8104 1.7125.5012-.2924z" fill="#7a384c"/><path d="m52.7402 52.2071-2.1718-9.2305-1.5036 3.4666-2.2972 6.7245z" fill="#1f40a1"/><path d="m20.4954 35.1243 31.367 4.2602c2.6731 1.253 3.5084 1.7542 4.8032 4.9703l.9606 2.3807c.9189.7518 1.0024.8771.7518 1.963l-6.7662 4.4691 3.7173 12.6971-28.6104 3.4667-6.0562-13.3654-9.2305-5.555c-.2068-.122-.3792-.2945-.5012-.5012-.3759-.7936-.2924-1.5454 1.1277-2.2137.8771-3.0072.8353-3.5502 1.5454-5.8891 1.5453-5.2209 2.7566-6.7663 6.8915-6.6827z" fill="#2347a1"/><path d="m46.3916 61.8133c-.9395-1.3405-1.396-2.9604-1.2947-4.5943.167-4.2185-1.7125-5.4297-2.2972-8.5623h-.4177l-1.0859.1253c.1253 3.1743-1.5036 4.7615-.4177 8.8546.4182 1.5805.3007 3.2549-.3341 4.7615-.9189 2.0883-.8354 4.2184.5012 5.9309l3.2996-.3342h.2923l2.5478-.2506c.9189-1.963.5848-4.0514-.7936-5.9309z" fill="#1a378a"/><path d="m52.1565 54.9638-9.8152-3.0073 1.5872 8.6458 10.9847 3.8008z" fill="#1a378a"/><path d="m23.9212 63.4008c-1.5871.0835-1.6707-.0418-2.506-1.3784-.7396-1.3854-1.4087-2.8072-2.0048-4.2602l.9189-1.0859z" fill="#7d9fff"/><path d="m43.5517 59.5987-10.5253-2.7149-.5847 2.7149 2.1301 1.9213 2.1719 6.5992-2.0048.2088-9.1888 1.796-.2506 1.3365-.6682-.9189c-.1909-.2614-.3232-.5608-.3881-.8779s-.0607-.6445.0122-.9598l.4594-2.4643-.7936-2.8401h-.3759c-.8353-.0835-.8353-.3341-1.4618-1.4201-1.0286-1.7823-1.9221-3.6391-2.6731-5.555l1.253-.4594 2.8819-6.2233c11.9871 4.1349 16.1638 5.9309 21.2594 8.3116s5.2209 2.3807 6.1397 3.1325c.9189.7518.4177.3759-7.3927-1.5871z" fill="#1a378a"/><path d="m34.5729 46.6943c-7.0586 6.3486-8.7293 10.943-10.6505 16.7068l.7935 2.8402c3.3832-6.641 4.845-9.3976 7.0586-11.6948 2.2137-2.2972 6.1815-5.8474 6.1815-5.8474z" fill="#242236"/><path d="m24.5892 37.0034-4.6361 2.5896 4.6361 5.8056 4.5944-3.7173z" fill="#2a52c2"/><path d="m33.5687 26.2285-2.1719.3759c-.5102.0757-.9981.2604-1.4305.5414-.4324.2811-.7992.652-1.0755 1.0875l-1.2948 2.0048-4.0932 1.2113c-.4347.1291-.8395.3433-1.1908.63-.3514.2868-.6422.6406-.8558 1.0407l-.9606 2.0048s11.4024 15.7879 20.4241 18.3774c9.0216 2.5896 10.9429-14.1172 10.9429-14.1172.0023-.1827-.0476-.3623-.1438-.5176-.0962-.1554-.2346-.2801-.3992-.3595l-2.3807-1.3783.2088-3.0908c.0201-.2861-.0304-.5728-.1469-.835-.1165-.2621-.2955-.4917-.5213-.6686l-6.5157-5.0538z" fill="#ef6270"/><path d="m26.6792 30.4884c.6683-1.5871.9606-3.4666 4.9703-4.2602l2.9237-.4177-.2506 2.3808-5.5551 3.6755z" fill="#ff707e"/><path d="m31.3968 26.6044c-.5102.0757-.9981.2604-1.4305.5414-.4324.2811-.7992.652-1.0755 1.0875l-1.2948 2.0048-4.0932 1.2113c-.4347.1291-.8395.3433-1.1908.63-.3514.2868-.6422.6406-.8558 1.0407l-.9606 2.0048c2.6942 3.6264 5.639 7.0597 8.8128 10.2746l1.2531-3.1742h7.3927s-.8771-3.049-1.1695-4.4273-.9606-2.1719 1.086-2.5061l-1.7125-8.6457-2.5895-.4177z" fill="#e05164"/><path d="m31.8167 30.6961c-2.0049-1.5036-1.8796-1.3783-.7519-2.0883.6683-.4535 1.4488-.7137 2.2555-.7518z" fill="#bd3c53"/><path d="m29.1859 32.1587c1.7125 2.5895 11.8618 13.5742 13.4072 14.6184s-.6265 2.506-.6265 2.506c-2.9197-1.4359-5.7385-3.0686-8.4369-4.8867-3.4249-2.4642-5.4715-4.0096-6.4321-4.9285-.9607-.9189-1.253-1.7124.6265-.5012 2.002 1.1663 4.1146 2.1316 6.3068 2.8819l.543-.6265-5.0538-7.1839z" fill="#e05164"/><path d="m45.8913 31.1987c2.2136 1.9213 3.3413 1.4201-1.9213 8.5623l-1.253-.7936-3.6337-4.1349 4.6361-5.8056z" fill="#c74153"/><path d="m45.2214 11.9443c-.1253-.4595-3.1325.0417-6.7245 1.1277-3.5919 1.0859-6.3903 2.2972-6.265 2.7148.7518 5.9727.6265 11.2353-.4177 14.9108l10.9012 8.2699c4.5943-11.0265 3.1743-20.8 2.506-27.0232z" fill="#ffb685"/><path d="m36.8689 28.8182c1.4618 1.6707 4.1767 1.253 5.3044.1253 1.4618 1.4201 2.2972 1.2113 3.2996-.0418 1.0024-1.253-4.4273-2.4642-4.4273-2.4642z" fill="#fe9b77"/><path d="m37.8704 35.2911c-.4506-3.5199-.7155-7.0611-.7936-10.6088-.167-3.4667-.2923-7.6016-.2506-11.11-2.7148.9188-4.6779 1.8377-4.5943 2.2136.7518 5.9727.6265 11.2353-.4177 14.9108z" fill="#fe9b77"/><path d="m45.2233 11.9443c-.1253-.4595-3.1325.0417-6.7245 1.1277-3.5919 1.0859-6.3903 2.2972-6.265 2.7148.1253.4177.167 1.5036.2506 2.2554 3.8843-.4594 9.314.1253 13.4072 1.3783-.1253-2.8401-.4595-5.3461-.6683-7.4762z" fill="#a8387e" opacity=".4"/><path d="m37.0362 29.778-1.1695-1.8377 1.1695-4.0096c.1059 1.3879.6802 2.6986 1.6289 3.7172.4594.4177.2506.5012 0 1.3783s-1.1277 2.6314-1.0442 4.135c.0836 1.5036-.5847-3.3832-.5847-3.3832z" fill="#fe9b77"/><path d="m36.0333 69.4564-2.4225 12.363h22.9301v6.4321h5.4297l.2088 4.3855h12.2377l-.4594-4.3437 1.8795-1.7543c.1479-.1459.2619-.3226.3341-.5174.0722-.1949.1007-.4032.0836-.6103l-1.1277-12.0706c-.1017-1.1255-.4318-2.2185-.9702-3.2121s-1.2738-1.867-2.1612-2.5667c-.8874-.6998-1.9082-1.2112-2.9999-1.5031-1.0918-.2918-2.2316-.358-3.3498-.1944z" fill="#232233"/><path d="m68.7791 113.313-.3341.292c-.1814.146-.3008.355-.3342.585l-.0835.585c-.0351.294.0392.592.2088.835.7936 1.086 1.6707 1.337 2.6731 1.671 1.1505.263 2.2233.793 3.1325 1.545 1.5336 1.139 3.3582 1.819 5.2627 1.963 2.1301.167 2.9654-.793 2.9236-1.587-.0417-.793-1.1276-1.545-1.1276-1.545z" fill="#4f2431"/><path d="m68.4454 111.222c.3342-2.882-1.253-4.594-3.216-8.437-1.9631-3.8421-2.8402-8.3529-3.5502-14.1585h10.4417s2.2554 13.9915 2.8819 16.9995c.3759 1.837.5848 4.761 2.5478 7.184 2.5896 3.257 4.4273 4.803 4.0097 5.93-.4177 1.128-1.8796 1.588-4.8032.418-.7936-.334-1.6707-.961-2.7149-1.545-1.0442-.585-2.4225-1.044-3.2578-1.462-2.1301-1.003-2.7149-1.504-2.339-4.929z" fill="#6b313f"/><path d="m76.7153 117.487c-1.6289-1.67-3.0072-2.881-3.2578-3.842s-.4595-2.506-.7518-3.884c-.2924-1.379-4.8868-13.8253-6.1398-20.7586l-1.1277-.3759h-3.759c.71 5.8056 1.5871 10.3164 3.5502 14.1585 1.963 3.843 3.5502 5.555 3.216 8.437-.3341 2.882.2089 3.926 2.339 4.929.8353.418 1.9213.71 3.2578 1.462s1.9213 1.211 2.7149 1.545c1.7124.668 2.8819.794 3.6754.585-1.3927-.463-2.6632-1.234-3.7172-2.256z" fill="#592534"/><path d="m64.8958 89.0034c.2088 5.7639 1.963 11.1936 3.216 13.5746 1.253 2.38 2.339 4.928 2.6731 9.982" stroke="#4f2431" stroke-linecap="round" stroke-miterlimit="10" stroke-width=".835339"/><path d="m76.0047 109.971c-.205-.512-.3589-1.044-.4595-1.587-.1986-.21-.4381-.378-.7038-.493s-.5521-.175-.8415-.175c-1.1277.083-1.9631.919-2.2972 2.297-.3342 1.378-.8771 2.506-1.4619 2.715-.5847.209-.9606-.042-1.6289-.501-.0323-.033-.0718-.058-.1153-.072-.0435-.015-.0899-.019-.1353-.012v.961c.4579.315.9912.502 1.5454.543l.6265-.084c.9189-.334 1.5454-1.42 2.0048-3.341.2506-1.003.7936-1.587 1.5036-1.629.7101-.042 1.4619.501 1.9631 1.378z" fill="#4f2431"/><path d="m74.4192 84.9107c-1.0441.0417-2.9237.1253-9.3558 1.2947l-3.0907 2.5896.0835 1.3783 7.6433 1.7542s2.7149-1.2948 4.3021-3.3413v-.2924l.6265-.5848c1.3783-2.5895.8353-2.8401-.2089-2.7983z" fill="#1c1b29"/><path d="m62.1794 92.6365h12.2377l-.4594-4.3438-.0836-1.1277-4.5525.2924c-1.9631.1671-10.2747.2924-10.2747.2924l.1671.5012h2.7566z" fill="#28263b"/><path d="m61.3445 77.726c4.2184-1.7542 5.3044-2.2554 6.1815-2.5477.8771-.2924 0-.8772-1.2948-1.5037s-1.6707 0-4.8867 4.0514z" fill="#1c1b29"/><path d="m47.1443 55.7982c-.9336-1.3434-1.3895-2.9612-1.2947-4.5944.167-4.2184-1.7125-5.4297-2.2972-8.5622h-.4177l-1.0859.0835c.1253 3.2161-1.5036 4.8032-.4177 8.8964.4182 1.5664.3006 3.2278-.3341 4.7197-.9189 2.1301-.8354 4.2602.5012 5.9726h.2506c1.9882.1991 3.996-.0288 5.8891-.6682.9189-1.9213.5847-3.9679-.7936-5.8474z" fill="#b8c5ff"/><path d="m45.4313 47.7383c-.5429-1.7125-1.42-2.9237-1.796-4.8032h-.2088s.9606 3.0072 1.6289 4.3855c.1671.3341.2924.4177.3759.4177z" fill="#e0e6ff"/><path d="m42.4643 42.7261h-.4177c.1253 3.216-1.5036 4.8032-.4177 8.8963.1274.5212.2112 1.0521.2506 1.5872l3.6338-2.7149c-1.2207-2.5046-2.2403-5.1023-3.049-7.7686z" fill="#9ca8f5"/><path d="m41.7142 55.0471c-.0499.2693-.1197.5345-.2088.7935.8734.0939 1.7304.3046 2.5478.6265 0 0 2.2972 2.9655 4.0514 4.7615.6682-1.8378.2923-3.7173-.9607-5.4297-.2914-.4506-.5429-.9258-.7518-1.4201l-3.8008-.2924z" fill="#9ca8f5"/><path d="m60.0507 52.8332-1.6707-4.135-5.6386 3.5085-8.061-2.9237v5.5132l2.4643 1.0024c7.2674 3.0072 8.6457 4.8032 11.7782 4.5109 3.1326-.2924 2.5061-4.0932 1.1278-7.4763z" fill="#fea77f"/><path d="m55.8317 50.2861 1.7125 3.8008-4.6779-1.5454-.1253-.3341z" fill="#fa8e70"/><path d="m59.3814 113.814-.3342.292c-.0864.063-.1575.144-.2082.238-.0506.094-.0793.199-.0841.305l-.1253.627c-.0351.294.0392.592.2088.835.7936 1.086 1.7125 1.337 2.6731 1.629 1.1556.306 2.236.846 3.1743 1.587 1.5255 1.153 3.3547 1.836 5.2626 1.963 2.0884.167 2.9237-.793 2.9237-1.629 0-.835-1.1694-1.503-1.1694-1.503z" fill="#4f2431"/><path d="m59.048 111.725c.3341-2.882-1.253-4.594-3.2161-8.437-1.963-3.8424-2.8401-8.395-3.5502-14.2006h10.4418s2.2972 14.0336 2.9237 17.0406c.3759 1.838.5847 4.762 2.506 7.184 2.5895 3.258 4.4273 4.803 4.0096 5.889s-1.8795 1.629-4.8032.46c-.9187-.466-1.8111-.982-2.6731-1.546-1.3783-.793-2.4642-1.044-3.2996-1.461-2.0883-1.003-2.7148-1.504-2.3389-4.929z" fill="#6b313f"/><path d="m67.3178 117.99c-1.6289-1.671-3.0072-2.882-3.216-3.842-.2089-.961-.5012-2.506-.7936-3.927-.2924-1.42-4.8867-13.8244-6.1397-20.7577l-1.086-.3759h-3.8008c.7101 5.8056 1.5872 10.3582 3.5502 14.2006 1.9631 3.843 3.5502 5.555 3.2161 8.437-.3342 2.882.2506 3.926 2.3389 4.929.8354.417 1.9213.668 3.2996 1.461.862.564 1.7544 1.08 2.6731 1.546 1.7124.668 2.9237.793 3.7173.543-1.4068-.439-2.6933-1.196-3.7591-2.214z" fill="#612936"/><path d="m55.498 89.4629c.2089 5.8056 1.9631 11.2351 3.2161 13.5741s2.339 4.97 2.6731 10.024" stroke="#4f2431" stroke-linecap="round" stroke-miterlimit="10" stroke-width=".835339"/><path d="m25.5496 70.1246-2.2554 11.6948h22.8883l.7936 4.0514c.0952.4514.3197.8655.6459 1.1917.3263.3263.7403.5507 1.1918.646l2.0466.4177 1.0024 4.5108h12.363l-.5012-3.4666 1.5454-.543c.2614-.0776.4858-.2473.6317-.4777s.2034-.5058.1619-.7753l-1.2531-14.0337c-.1016-1.1255-.4318-2.2185-.9702-3.2121s-1.2738-1.867-2.1612-2.5667c-.8874-.6998-1.9081-1.2112-2.9999-1.5031-1.0917-.2918-2.2316-.358-3.3498-.1944s-20.0481 2.339-24.0577 2.9237c-4.0097.5847-5.7221 1.3365-5.7221 1.3365z" fill="#1c1b29"/><path d="m27.4711 73.0903c3.364-1.9667 6.8679-3.6838 10.4834-5.1373-1.0859-.4594-1.8377-.3341-5.0537.6265l-7.8105 3.9679z" fill="#733544"/><path d="m52.7412 52.2074 6.0562 2.2136c.0172.0115.0314.027.0411.0452.0098.0182.0149.0386.0149.0592 0 .0207-.0051.0411-.0149.0593-.0097.0182-.0239.0337-.0411.0452l-14.0755-4.5944v-.7518z" fill="#ffd096"/><path d="m1.90925 78.7295-7.30921 1.7542-.96064 1.3365h9.27227z" fill="#f7dc9e"/><path d="m28.808 72.3805-5.6386.2506c-.4394.0158-.8614.1757-1.201.4549-.3396.2793-.578.6624-.6785 1.0905l-1.8795 7.6433h10.5253l.3759-7.9357c.0057-.199-.0292-.3971-.1027-.5822-.0735-.185-.1841-.3531-.3249-.4939-.1408-.1407-.3088-.2513-.4939-.3248-.185-.0735-.3831-.1085-.5821-.1027z" fill="#4f2431"/><path d="m26.5108 81.8202c.167-1.4201.5429-4.5944.7518-6.4321.2088-1.8378.3759-2.6313 1.0442-3.0072h-.5848l-4.5526.2088c-.4394.0158-.8614.1757-1.201.4549-.3396.2793-.578.6624-.6785 1.0905l-1.8795 7.6433z" fill="#401d2b"/><path d="m98.559 97.5251c.0418 1.7542-.9607 3.1739.8353 3.9679 2.6727 1.169 3.8427 2.381 5.8477 2.965 2.005.585 5.012 1.462 3.425-1.587-1.588-3.0487-2.674-5.8471-2.674-5.8471z" fill="#1c1b29"/><path d="m112.759 92.6794c.251 1.7542-.585 3.2578 1.295 3.8425 2.798.8354 4.135 1.9213 6.14 2.2137 2.004.2923 5.179.8771 3.257-1.9631-1.921-2.8401-3.383-5.5132-3.383-5.5132z" fill="#28263b"/><path d="m120.862 75.8889c-.329-1.2531-.992-2.3931-1.919-3.2981s-2.083-1.5407-3.344-1.8392l-2.631-.6265c-2.047-14.2843.292-17.1663-10.609-21.7189l-9.105-1.5036s-9.3141-1.0441-13.3237 3.1326l2.7566 16.2473s-3.2996 10.1494-3.0907 15.5373h12.1124l3.0072 17.3751c19.8392-.3759 30.0722-8.1864 30.0722-8.1864z" fill="#cfdeff"/><path d="m100.607 77.9348c-.502-2.8401-.46-3.9261-4.01-4.2602l-5.555-.5012.4177-1.0859 11.9453-.5012-8.6875-8.2699-12.4883 2.1301c-.3947 1.5583-.6187 3.1548-.6683 4.7615-1.4618.9188-1.1277 2.0883-.8353 3.2578-.6683 2.8819-1.2113 6.0562-1.1277 8.3534h12.1124c.0835 3.759 1.2112 6.1397 1.4201 8.5622.2088 2.4225 1.0859 8.8546 1.0859 8.8546 3.3545-.0878 6.7017-.3667 10.0237-.8354z" fill="#abbaff"/><path d="m82.898 70.1673 11.82.7936s-3.0907-.8771-5.9726-1.3783c-1.7389-.3392-3.4961-.5763-5.2627-.71-.4594 0-.6682.3759-.8353.9188-.0126.0414-.0158.085-.0095.1277s.022.0836.046.1195c.0239.0359.0556.0661.0926.0884s.0785.036.1215.0403z" fill="#8fa2fa"/><path d="m98.6013 72.2969c4.4687 1.253 5.0537 1.5036 7.3097 5.0955 2.255 3.592 2.339 3.3831 4.176 1.5454 1.838-1.8378 4.428-4.5944 5.305-5.6385.877-1.0442-.042-1.2531-5.889-2.0466-5.848-.7936-13.8253.2088-10.9017 1.0442z" fill="#bdd1ff"/><path d="m85.4032 60.0584c.8345-1.5765 1.4392-3.2643 1.7959-5.012.3342-1.2948 1.2113.4176.5013 2.6313-.4916 1.4628-1.3552 2.7726-2.5061 3.8008z" fill="#b8c5ff"/><path d="m82.562 46.7773c11.4024 13.8249 22.053 23.6401 22.554 4.2185z" fill="#b8c5ff"/><path d="m88.7432 49.0332c10.6088 6.7662 13.2818 9.147 13.3658 2.6731z" fill="#5697b0"/><path d="m111.966 61.1446c-.627-6.0144-1.337-8.6458-6.85-11.4859 1.086 3.8426.794 11.4859.794 11.4859z" fill="#fff"/><path d="m106.953 56.1746c-.223 1.5474-.587 3.0713-1.086 4.5526l.96.1253c.507-1.4852.898-3.0073 1.17-4.5526.209-1.7542-.752-2.0466-1.044-.1253z" fill="#dbe6ff"/><path d="m96.3024 30.6134v-3.2578c-.0042-1.0632-.3464-2.0974-.9771-2.9534-.6306-.8559-1.5171-1.4891-2.5313-1.808-1.1148-.3462-2.3158-.2889-3.3926.1616-1.0767.4506-1.9606 1.2657-2.4966 2.3026-1.963 3.7591-5.0538 9.8153-7.3092 14.9526-3.592 8.1863 7.4345 11.6112 18.6281 12.196 11.1933.5847 12.8643-4.135 12.2373-11.3189-.417-4.5526-1.086-9.1887-1.503-12.0289-.13-.8146-.496-1.5732-1.053-2.182-.557-.6087-1.28-1.0408-2.08-1.2429-.89-.2071-1.823-.1195-2.659.2496-.837.3691-1.53.9997-1.977 1.797l-1.6706 3.1325z" fill="#7ce4cc"/><path d="m108.541 44.0208-.752-.3759-4.218.8771h-4.1767l-6.9334-2.3389s-3.1325-6.5574-3.7172.2088c-.3759 4.6779 1.253 7.6016 2.2972 8.9799 2.3752.4178 4.7748.6829 7.1839.7936 1.8122.1318 3.6332.0617 5.4292-.2088 1.421-1.5037 3.76-4.4273 4.887-7.9358z" fill="#aafae7"/><path d="m88.7022 41.807c-.5848-2.6731-1.5454-8.2281-.3342-12.196 1.2113-3.9678 2.5478-7.2257 4.4273-7.0168-1.1147-.3462-2.3157-.2889-3.3925.1616-1.0768.4506-1.9606 1.2657-2.4966 2.3026-1.9631 3.7591-5.0538 9.8153-7.3092 14.9526-3.2161 7.3092 5.2626 10.8176 15.1196 11.9036-2.0883-.6265-4.5108-3.2161-6.0144-10.1076z" fill="url(#e)" opacity=".74"/><path d="m94.7164 51.9138-.7936-.0835-.7518-.0835-1.1695-.1671-.3759-.0835-.5847-.0836c-1.0442-1.3783-2.6731-4.302-2.2972-8.9799-.0061-.0856.0082-.1715.0417-.2506 1.5037 6.5992 3.8844 9.147 5.931 9.7317z" fill="#aafae7"/><path d="m94.7164 51.9138-.7936-.0835-.7518-.0835-1.1695-.1671-.3759-.0835-.5847-.0836c-1.0442-1.3783-2.6731-4.302-2.2972-8.9799-.0061-.0856.0082-.1715.0417-.2506 1.5037 6.5992 3.8844 9.147 5.931 9.7317z" fill="url(#f)" opacity=".5"/><path d="m107.456 43.0596-.125.7935c-4.636 1.9213-5.43 2.5061-15.997-1.6706v-.7518l.4594.167c9.0216 3.049 10.7756 3.4249 15.6626 1.4619z" fill="#2c4661"/><path d="m90.1257 44.6299c1.5069-.2171 2.5311-1.7628 2.2876-3.4523s-1.6624-2.8831-3.1692-2.666c-1.5069.2172-2.5311 1.7628-2.2876 3.4523.2434 1.6896 1.6623 2.8832 3.1692 2.666z" fill="#738eff"/><path d="m109.725 43.7667c.478-1.3724.229-2.7063-.555-2.9794s-1.807.618-2.285 1.9904-.23 2.7064.555 2.9795c.784.2731 1.807-.6181 2.285-1.9905z" fill="#738eff"/><path d="m99.0178 39.5924c-.1671-.3341.2088-.5012.5012-.5847.1175-.0281.2408-.0191.353.0258s.208.1234.273.2248l.878 1.5036c.25.4595-.209.4177-.627.0836-.4176-.3342-1.1276-.7101-1.3782-1.2531z" fill="#284e7a" opacity=".41"/><path d="m103.654 40.8466c.155-.2273.294-.4645.418-.7101.073-.1213.108-.2617.1-.4031-.007-.1414-.057-.2774-.142-.3904l-.125-.1671c-.084-.0835-.167-.0418-.209.0418-.273.492-.497 1.0096-.668 1.5453-.126.5848.25.6266.626.0836z" fill="#284e7a" opacity=".41"/><path d="m108.291 58.8897c1.044-3.1743 3.676-4.4273 6.641-4.3438l-2.965 4.3438z" fill="#f7aea5"/><path d="m97.0139 56.1318c7.9771-2.7149 11.5281 2.2554 11.5281 2.2554.912-1.2232 2.157-2.1575 3.587-2.6909 1.43-.5333 2.983-.6432 4.474-.3163l1.336 2.4224-12.07 4.7197z" fill="#feccaf"/><path d="m108.416 60.1004.125-1.2112 1.462.8771z" fill="#6b3143"/><path d="m96.1358 55.7988-5.4715 14.2843 13.3657 3.7173h.877l9.314-4.3438 5.221-12.8224-.46-.5012-9.94 3.5919z" fill="#133bba"/><path d="m119.441 56.6343-9.982 3.6755-4.553 13.4907 9.147-3.8426z" fill="#1541cc"/><path d="m95.927 56.3838 12.614 3.9261-4.511 13.4907-13.3657-3.7172z" fill="#0b2585"/><path d="m132.683 61.6463.877-.3759c.042 0 .042-.0418 0-.0418l-.877-.3759-.418-.8771h-.042l-.375.8771-.919.3759.919.3759.375.8771h.042l.418-.8771z" fill="#194df2"/><path d="m90.4984 115.609 1.7542-.752c.0418-.042.0418-.083 0-.083l-1.7542-.794-.7518-1.712c-.0418-.042-.0835-.042-.0835 0l-.7936 1.712-1.7124.794c-.0418 0-.0418.041 0 .083l1.7124.752.7936 1.754c0 .042.0417.042.0835 0z" fill="#fff"/><path d="m39.6664 81.8198h-5.4715l.167 9.147h-15.6208l-.2088-9.147h-5.5133l.3342 15.8297h5.5132l-.0835-3.4249h15.6626l.0835 3.4249h5.4715z" fill="#c84b8b"/><path d="m34.3206 79.2736c1.6224-.8755 3.5088-1.128 5.3043-.71h.0836l16.2473 109.7214h-5.5132z" fill="#8c3f49"/><path d="m34.3206 79.2728 16.122 109.0122h2.8401l-16.2473-109.8475c-.9534.0857-1.8782.3703-2.7148.8353z" fill="#632d3e"/><path d="m36.3656 89.8398h-21.51c-.8073 0-1.4618.6545-1.4618 1.4619v.0334c0 .8073.6545 1.4618 1.4618 1.4618h21.51c.8074 0 1.4619-.6545 1.4619-1.4618v-.0334c0-.8074-.6545-1.4619-1.4619-1.4619z" fill="#823b51"/><path d="m30.3094 89.8398h-15.4538c-.8073 0-1.4618.6545-1.4618 1.4619v.0334c0 .8073.6545 1.4618 1.4618 1.4618h15.4538c.8074 0 1.4619-.6545 1.4619-1.4618v-.0334c0-.8074-.6545-1.4619-1.4619-1.4619z" fill="#753549"/><path d="m25.1721 89.8398h-10.3165c-.8073 0-1.4618.6545-1.4618 1.4619v.0334c0 .8073.6545 1.4618 1.4618 1.4618h10.3165c.8073 0 1.4618-.6545 1.4618-1.4618v-.0334c0-.8074-.6545-1.4619-1.4618-1.4619z" fill="#632d3e"/><path d="m38.7902 106.254h-21.51c-.8074 0-1.4618.655-1.4618 1.462v.034c0 .807.6544 1.462 1.4618 1.462h21.51c.8073 0 1.4618-.655 1.4618-1.462v-.034c0-.807-.6545-1.462-1.4618-1.462z" fill="#823b51"/><path d="m32.734 106.254h-15.4538c-.8074 0-1.4618.655-1.4618 1.462v.034c0 .807.6544 1.462 1.4618 1.462h15.4538c.8073 0 1.4618-.655 1.4618-1.462v-.034c0-.807-.6545-1.462-1.4618-1.462z" fill="#753549"/><path d="m27.5966 106.254h-10.3164c-.8074 0-1.4618.655-1.4618 1.462v.034c0 .807.6544 1.462 1.4618 1.462h10.3164c.8074 0 1.4619-.655 1.4619-1.462v-.034c0-.807-.6545-1.462-1.4619-1.462z" fill="#632d3e"/><path d="m41.2125 122.669h-21.5099c-.8074 0-1.4619.654-1.4619 1.462v.033c0 .808.6545 1.462 1.4619 1.462h21.5099c.8074 0 1.4619-.654 1.4619-1.462v-.033c0-.808-.6545-1.462-1.4619-1.462z" fill="#823b51"/><path d="m35.1563 122.669h-15.4537c-.8074 0-1.4619.654-1.4619 1.462v.033c0 .808.6545 1.462 1.4619 1.462h15.4537c.8074 0 1.4619-.654 1.4619-1.462v-.033c0-.808-.6545-1.462-1.4619-1.462z" fill="#753549"/><path d="m30.019 122.669h-10.3164c-.8074 0-1.4619.654-1.4619 1.462v.033c0 .808.6545 1.462 1.4619 1.462h10.3164c.8073 0 1.4618-.654 1.4618-1.462v-.033c0-.808-.6545-1.462-1.4618-1.462z" fill="#632d3e"/><path d="m43.6344 139.083h-21.51c-.8073 0-1.4618.654-1.4618 1.462v.033c0 .808.6545 1.462 1.4618 1.462h21.51c.8074 0 1.4619-.654 1.4619-1.462v-.033c0-.808-.6545-1.462-1.4619-1.462z" fill="#823b51"/><path d="m37.5782 139.083h-15.4538c-.8073 0-1.4618.654-1.4618 1.462v.033c0 .808.6545 1.462 1.4618 1.462h15.4538c.8074 0 1.4619-.654 1.4619-1.462v-.033c0-.808-.6545-1.462-1.4619-1.462z" fill="#753549"/><path d="m32.4409 139.083h-10.3165c-.8073 0-1.4618.654-1.4618 1.462v.033c0 .808.6545 1.462 1.4618 1.462h10.3165c.8073 0 1.4618-.654 1.4618-1.462v-.033c0-.808-.6545-1.462-1.4618-1.462z" fill="#632d3e"/><path d="m46.0565 155.498h-21.5099c-.8074 0-1.4619.654-1.4619 1.461v.034c0 .807.6545 1.462 1.4619 1.462h21.5099c.8074 0 1.4619-.655 1.4619-1.462v-.034c0-.807-.6545-1.461-1.4619-1.461z" fill="#823b51"/><path d="m48.4787 171.912h-21.51c-.8074 0-1.4619.655-1.4619 1.462v.033c0 .808.6545 1.462 1.4619 1.462h21.51c.8073 0 1.4618-.654 1.4618-1.462v-.033c0-.807-.6545-1.462-1.4618-1.462z" fill="#823b51"/><path d="m40.0003 155.498h-15.4537c-.8074 0-1.4619.654-1.4619 1.461v.034c0 .807.6545 1.462 1.4619 1.462h15.4537c.8074 0 1.4619-.655 1.4619-1.462v-.034c0-.807-.6545-1.461-1.4619-1.461z" fill="#753549"/><path d="m34.863 155.498h-10.3164c-.8074 0-1.4619.654-1.4619 1.461v.034c0 .807.6545 1.462 1.4619 1.462h10.3164c.8074 0 1.4618-.655 1.4618-1.462v-.034c0-.807-.6544-1.461-1.4618-1.461z" fill="#632d3e"/><path d="m48.4787 171.912h-21.51c-.8074 0-1.4619.655-1.4619 1.462v.033c0 .808.6545 1.462 1.4619 1.462h21.51c.8073 0 1.4618-.654 1.4618-1.462v-.033c0-.807-.6545-1.462-1.4618-1.462z" fill="#823b51"/><path d="m42.4225 171.912h-15.4538c-.8074 0-1.4619.655-1.4619 1.462v.033c0 .808.6545 1.462 1.4619 1.462h15.4538c.8073 0 1.4618-.654 1.4618-1.462v-.033c0-.807-.6545-1.462-1.4618-1.462z" fill="#753549"/><path d="m37.2851 171.912h-10.3164c-.8074 0-1.4619.655-1.4619 1.462v.033c0 .808.6545 1.462 1.4619 1.462h10.3164c.8074 0 1.4619-.654 1.4619-1.462v-.033c0-.807-.6545-1.462-1.4619-1.462z" fill="#632d3e"/><path d="m13.103 79.2719c1.607-.8764 3.4809-1.1292 5.2627-.71h.1253l16.2473 109.7221h-5.5132z" fill="#8c3f49"/><path d="m32.9006 188.284h-3.6755l-16.1221-109.0116c1.0888-.5963 2.3089-.9121 3.5502-.9189z" fill="#632d3e"/><g fill="#753549"><path d="m14.8556 92.805c.8074 0 1.4619-.6545 1.4619-1.4618 0-.8074-.6545-1.4619-1.4619-1.4619-.8073 0-1.4618.6545-1.4618 1.4619 0 .8073.6545 1.4618 1.4618 1.4618z"/><path d="m17.2802 109.22c.8074 0 1.4618-.654 1.4618-1.462 0-.807-.6544-1.462-1.4618-1.462s-1.4618.655-1.4618 1.462c0 .808.6544 1.462 1.4618 1.462z"/><path d="m19.7026 125.635c.8073 0 1.4618-.655 1.4618-1.462 0-.808-.6545-1.462-1.4618-1.462-.8074 0-1.4619.654-1.4619 1.462 0 .807.6545 1.462 1.4619 1.462z"/><path d="m22.1659 142.049c.8074 0 1.4619-.654 1.4619-1.462 0-.807-.6545-1.462-1.4619-1.462-.8073 0-1.4618.655-1.4618 1.462 0 .808.6545 1.462 1.4618 1.462z"/><path d="m24.5881 158.421c.8073 0 1.4618-.654 1.4618-1.462 0-.807-.6545-1.461-1.4618-1.461-.8074 0-1.4619.654-1.4619 1.461 0 .808.6545 1.462 1.4619 1.462z"/><path d="m27.0102 174.836c.8073 0 1.4618-.655 1.4618-1.462s-.6545-1.462-1.4618-1.462c-.8074 0-1.4619.655-1.4619 1.462s.6545 1.462 1.4619 1.462z"/></g><path d="m8.55169 84.2422h-83.45039v1.3449h83.45039z" fill="#c46999"/><path d="m8.55169 93.8071h-83.45039v1.3449h83.45039z" fill="#c46999"/><path d="m94.4251 133.611-38.5091 29.696" stroke="#612d46" stroke-linecap="round" stroke-miterlimit="10" stroke-width="3.34136"/><path d="m155.154 133.611-38.509 29.696" stroke="#612d46" stroke-linecap="round" stroke-miterlimit="10" stroke-width="3.34136"/><path d="m116.184 133.445c0 .421-.168.824-.465 1.122-.298.298-.702.465-1.123.465h-32.8702c2.7566-1.796 6.098-3.133 11.2353-3.133h21.6349c.414 0 .812.162 1.108.45.297.289.469.682.48 1.096z" fill="#6b3143"/><path d="m114.598 135.031c.877 0 1.587-.711 1.587-1.587 0-.877-.71-1.588-1.587-1.588-.876 0-1.587.711-1.587 1.588 0 .876.711 1.587 1.587 1.587z" fill="#9c4651"/><path d="m91.4157 133.445c.0106-.407.1768-.794.4644-1.081.2875-.288.6745-.454 1.081-.465-5.1373 0-8.4787 1.337-11.2353 3.133h11.2353c-.4136-.011-.8067-.183-1.0953-.479-.2887-.297-.4502-.694-.4501-1.108z" fill="#522539"/><path d="m177.081 133.444c0 .421-.167.825-.465 1.122-.298.298-.701.465-1.122.465h-32.704c2.826-1.861 6.101-2.929 9.481-3.091h23.223c.406 0 .798.156 1.093.435.296.28.472.663.494 1.069z" fill="#6b3143"/><path d="m175.493 135.031c.877 0 1.588-.711 1.588-1.587 0-.877-.711-1.588-1.588-1.588-.876 0-1.587.711-1.587 1.588 0 .876.711 1.587 1.587 1.587z" fill="#9c4651"/><path d="m153.9 135.03h-11.11c2.94-1.953 6.371-3.038 9.899-3.132h1.211c-.227-.037-.46-.025-.681.037-.222.061-.428.17-.603.319-.176.149-.316.335-.413.544s-.147.436-.147.666.05.458.147.666c.097.209.237.395.413.544.175.149.381.258.603.319.221.062.454.075.681.037z" fill="#522539"/><path d="m63.8911 155.748s24.1831 8.938 36.4629-20.717c6.265 21.26 20.424 33.414 33.413 33.414 12.99 0 27.149-12.154 33.414-33.414-12.614 25.06-32.453 23.432-39.804 20.007" stroke="#5a4e70" stroke-linecap="round" stroke-linejoin="round" stroke-width="1.04417"/><path d="m151.854 138.372-.292-5.263" stroke="#522539" stroke-linecap="round" stroke-miterlimit="10" stroke-width="1.25301"/><path d="m148.639 133.276 5.263 3.634" stroke="#522539" stroke-linecap="round" stroke-miterlimit="10" stroke-width="1.25301"/><path d="m90.2477 138.372-.2924-5.263" stroke="#522539" stroke-linecap="round" stroke-miterlimit="10" stroke-width="1.25301"/><path d="m87.0737 133.276 5.2209 3.634" stroke="#522539" stroke-linecap="round" stroke-miterlimit="10" stroke-width="1.25301"/><path d="m116.184 123.754h4.052v-2.761h-4.052z" fill="#f8a457"/><path d="m71.2431 134.404h-12.2377l-4.2603 3.509h12.3213z" fill="#cc4d80"/><path d="m66.146 129.016-2.6731 1.003h5.3879l2.3807-1.003z" fill="#e85a94"/><path d="m153.817 163.14-1.128.877 1.253-.084z" fill="#f09e48"/><path d="m64.4335 120.956.3342 1.378-1.2948-.418z" fill="#ffbd67"/><path d="m77.7161 130.687-2.2972 1.504h-2.6313l2.3807-1.504z" fill="#e85a94"/><path d="m130.3 135.448v-.877h1.212z" fill="#ed5c97"/><path d="m41.2119 2.88037 2.0466.3759-.5847.96064z" fill="#ffcd8f"/><path d="m45.1625 23.6566c.0851-.43-.0843-.8257-.3785-.884-.2941-.0582-.6016.2431-.6867.6731-.0852.4299.0843.8256.3784.8839.2942.0582.6017-.2431.6868-.673z" fill="#543247"/><path d="m40.0783 24.0392c.3222-.18.3918-.6688.1555-1.0916-.2364-.4229-.6891-.6197-1.0113-.4396-.3222.18-.3918.6688-.1554 1.0916.2363.4229.6891.6197 1.0112.4396z" fill="#543247"/><path d="m35.7007.875584s1.0441-.083534 1.5036.292366c-.5012.58474-1.5036-.292366-1.5036-.292366z" fill="#ffd08f"/><path d="m39.0833.874768c2.2136-.54297 2.4224.626502 2.4224.626502z" fill="#fffdc4"/><path d="m22.6258 14.6997c.0835.7936 1.9213 1.3365 1.9213 1.3365l-.7518.543c-1.8795-.0417-2.3807-.9606-2.3807-.9606.3488-.3726.7584-.6833 1.2112-.9189z" fill="#d4655b"/><path d="m17.8247 18.208c.2923.8771 4.1767.3759 4.1767.3759l.1253.4594c-2.882.5013-4.0932.2506-4.0932.2506-.17-.3352-.2424-.7115-.2088-1.0859z" fill="#d4655b"/><path d="m32.0662 9.89664c.2506 1.04416 1.5453 1.75416 1.5453 1.75416l2.0884-.6265c-.3908-.6157-.6733-1.29373-.8353-2.00477 0 0-1.4619.3759-2.7984.87711z" fill="#dc7363"/><path d="m49.0666 35.4585s-.0418.71-.1253 1.6707c-.1659 1.4091-.4311 2.8048-.7936 4.1767-.2924 1.253-.2924 1.2112-.71.9188l-1.4619-1.0441c.8354-1.2113 2.339-3.5085 3.0908-5.7221z" fill="#d14658"/><path d="m34.4469 42.2249-.4177-.3759c-2.7984-2.4225-7.6851-7.4345-9.9823-10.567l3.4666-1.0442h.0836c2.2971 4.2602 6.4321 9.7735 8.2281 11.9871l.3341.4177c1.5036 1.7542.9189 1.796-1.7124-.4177z" fill="#cc4355"/><path d="m29.7271 30.2378 5.3879 5.2209 1.0441 4.5526-5.9309-7.5181z" fill="#e65568"/><path d="m43.0518 38.1316-11.1518-7.8104-.1671-.167c-.3341-.2924-.5847-.2506.0836.5429l10.9011 8.2699c.1253-.2924.2089-.5847.3342-.8354z" fill="#bd3c53"/><path d="m14.5663 9.27029 1.3783-.6265c.0418-.04177.0418-.08354 0-.08354l-1.3783-.6265h-.0418l-.6265-1.42008h-.0418l-.6265 1.42008-1.4201.6265c-.0417 0-.0417.04177 0 .08354l1.4201.6265.6265 1.42011h.0418l.6265-1.42011z" fill="#ff7abc"/><path d="m116.769 48.8232 1.587-.7101v-.0835l-1.587-.71h-.042l-.71-1.5872h-.042l-.71 1.5872h-.042l-1.587.71v.0835l1.587.7101h.042l.71 1.5871h.042l.71-1.5871z" fill="#fff0db"/><path d="m22.7515 10.5658c1.2388-1.15827 2.6299-2.14192 4.1349-2.92371-2.0884.45944-3.592 1.12771-4.1349 2.92371z" fill="#eb9363"/><path d="m45.5967 1.50151 3.5919.79357c-.4176-.83534-.8771-.96064-3.5919-.79357z" fill="#fffdc4"/><path d="m50.6514 50.3279c1.963-2.4642 3.5084-4.0096 4.1349-4.3855s.543-.2088-.4177 1.1277c-.9606 1.3366-2.6731 4.0932-2.6731 4.0932z" fill="#1a378a"/><path d="m52.1548 42.6423s-.0418 3.4667 0 3.8844c.0418.4176.1671-.0418.4594-1.0025.2924-.9606.543-1.7124.5848-1.963.0417-.2506.1253-.3341-.4595-.8771-.5847-.543-.5847-.543-.5847-.0418z" fill="#2a52c2"/><path d="m59.3814 59.3906c-1.09-.0634-2.1557-.3476-3.1326-.8353-.5429-.2506-.2088.3759.7518.9606.9607.5847 3.1326-.0418 2.3808-.1253z" fill="#fa8e70"/><path d="m40.5867 55.3811 2.7984-.3342c.6217.54 1.3946.8754 2.2136.9607l3.9679 2.6313 1.6289.9606s2.506-1.8377 0-9.1887c-.2088-.71-.3341-.8771-1.6289-.5847l-2.1719-.7518-1.0859-1.5454c-.1512-.2152-.351-.3917-.5833-.5151-.2322-.1233-.4903-.1901-.7533-.195h-4.8032c-.1661 0-.3255.0661-.443.1835-.1175.1175-.1835.2769-.1835.4431-.012.1596.0375.3179.1385.4421.101.1243.2457.2052.4045.2261l3.9261.7101-2.8819 1.42c-.2291.1206-.4136.3113-.5263.5444-.1128.233-.1479.496-.1002.7504.0676.2882.1957.5587.3758.7936-.6682.6265-.2088 1.5454-.2088 1.5454-.7936.2506-1.0859.4176-1.1695 1.0859-.0835.6683.376.543 1.086.4177z" fill="#592938"/><path d="m50.1096 57.3024-4.5109-2.6731c-.4178-.2272-.8222-.4782-1.2112-.7518-.6265-.4595-.543-.9189-.2506-1.0024.0952-.0284.1824-.0789.2542-.1475.0718-.0687.1263-.1534.159-.2473.0326-.0938.0425-.1941.0287-.2925-.0137-.0984-.0507-.1921-.1078-.2734-.2506-.6265-.3759-.8771-.0418-1.2112.3342-.3342.543-.4595.376-.6683-.1671-.2088-.543-.6683-.2506-1.0442.2923-.3759.6265-.2506.4176-.8771-.2088-.6265-.4176-1.2948 0-1.2948h-4.8032c-.1661 0-.3255.0661-.443.1835-.1175.1175-.1835.2769-.1835.4431-.012.1596.0375.3179.1385.4421.101.1243.2457.2052.4045.2261l3.9261.7101-2.8819 1.42c-.2291.1206-.4136.3113-.5263.5444-.1128.233-.1479.496-.1002.7504.0676.2882.1957.5587.3758.7936-.6682.6265-.2088 1.5454-.2088 1.5454-.7936.2506-1.0859.4176-1.1695 1.0859-.0835.6683.376.543 1.086.4177l2.7984-.3342c.6217.54 1.3946.8754 2.2136.9607l3.9679 2.6313.543.3341z" fill="#4f2431"/><path d="m49.5659 58.6397 1.6289.9607s2.506-1.8378 0-9.1888c-.2088-.71-.3341-.8771-1.6289-.5847l.543.2088c.543 1.8378.9606 5.4297-.543 8.604z" fill="#6b313f"/><path d="m45.8896 47.1118c.5012 2.8819-.3759 6.0145-.3759 6.0145l2.1301 1.0024c.2923-1.1277.2506-2.5061-.2506-5.0538l-1.086-1.5454c-.1063-.1686-.249-.3114-.4176-.4177z" fill="#733544"/><path d="m40.878 52.3325c1.963-.9607 3.592-1.8378 3.592-1.8378l-.0836-.2506-3.6755 1.8796z" fill="#401d2b"/><path d="m40.6699 53.8783 3.4667-1.0024-.2088-.2924-3.3414 1.1277z" fill="#401d2b"/><path d="m44.0105 48.8233.5429-.2506-.0417-.4594-.9607.6265z" fill="#401d2b"/><path d="m50.1089 57.3018c-.1556.4554-.3369.9016-.543 1.3365l1.6289.9606c.3626-.3224.6238-.7432.7518-1.2112z" fill="#592938"/><path d="m20.6635 55.9658c-.4258 1.6788-1.0718 3.2939-1.9213 4.8032-1.253 2.0048-3.8426 5.9727-3.8426 5.9727s-3.5502 7.7269-7.14211 11.6948l-5.76384-1.3366s3.88433-11.0265 5.22087-14.2007c1.00241-2.3808 3.34138-9.147 4.46908-12.3631 4.4691 1.8378 8.9799 5.4297 8.9799 5.4297z" fill="#d68272"/><path d="m11.2248 77.3085-1.2113.7936-2.84011 3.7172h-15.20318l.45944-.6682c.37627-.5094.9018-.8889 1.50362-1.086l5.137325-1.5871 3.591945-8.1446c.0411-.0582.09975-.1018.16739-.1244.06763-.0225.1407-.0228.20853-.0009 3.34135 2.0466 6.89154 5.0121 8.26984 6.5992.0311.037.0538.0802.0665.1268s.0152.0954.0073.1431c-.008.0476-.0261.0929-.0533.1329-.0272.0399-.0627.0735-.104.0984z" fill="#4f2431"/><path d="m12.7691 61.5624c1.0442 3.2161 1.253 4.135 1.8377 3.3832.472-.5648.8783-1.1814 1.2113-1.8378.0835-.1671.2923-.5847-1.253-1.5454-1.5454-.9606-2.339-1.6289-1.796 0z" fill="#d4655b"/><path d="m11.3066 76.8073c-1.3783-1.5871-4.92849-4.5526-8.26985-6.5992-.06782-.0219-.14089-.0216-.20852.0009-.06764.0226-.12629.0662-.16739.1244l-.45942 1.1277c5.3044 3.8844 7.81038 6.641 7.81038 6.641l1.2113-.7936c.0413-.0249.0768-.0585.104-.0984.0272-.04.0453-.0853.0533-.1329.0079-.0477.0054-.0965-.0073-.1431s-.0354-.0898-.0665-.1268z" fill="#572836"/><path d="m3.7481 80.2744c-1.71244.5847-3.424888 1.253-6.05621 1.5453h9.48111l.50118-.6682c.20884-2.1719-2.17187-1.4619-3.92608-.8771z" fill="#421e29"/><path d="m28.8083 72.3809c-1.5036.0835-1.796.5429-2.0466 2.7566-.2506 2.2136-.3759 2.7566-.4595 3.2578-.0101.0701-.0453.1341-.0991.1802-.0537.0461-.1224.0711-.1932.0704h-6.0562c-.0836 0-.1253-.0835-.1253-.1671l1.0859-4.1767c.1138-.4896.3908-.9259.7856-1.2371.3947-.3113.8836-.4789 1.3863-.4753z" fill="#592938"/><path d="m22.1241 77.2672c-.0209.1716-.063.3399-.1253.5012 0 .0221.0088.0434.0244.059.0157.0157.0369.0245.0591.0245h1.7125c.0598.0008.1179-.0198.1639-.0581.0459-.0383.0767-.0917.0866-.1507l.1253-.4595c0-.0417.0001-.0835-.0417-.0835h-1.7542c-.053.0025-.1044.0193-.1485.0488-.0441.0294-.0794.0703-.1021.1183z" fill="#733544"/><path d="m70.3245 73.5081c1.0894.2248 2.1635.5177 3.2161.8771.5012.2089.543.2506-.3341 1.253s-1.0024 1.4201-1.8796.0418c-.8771-1.3783-1.5871-2.3389-1.0024-2.1719z" fill="#1c1b29"/><path d="m50.8616 88.127 8.1445 1.5871c1.2948.2506 1.5036.2924 4.7197-.543l.5012 3.4667h-12.363z" fill="#232133"/><path d="m46.1836 81.8196c3.9261-2.339 4.9285-3.0072 5.7638-3.3831.8354-.3759-.1253-.9189-1.4618-1.3366-1.3366-.4176-1.6707.2089-4.302 4.7197z" fill="#171621"/><path d="m53.5342 83.7821c3.6755.8354 6.6409 1.5037 8.1445 1.7543 1.5037.2506 1.0025-.3759-.9188-1.8796-1.3189-1.088-2.7147-2.079-4.1767-2.9654-.9189-.5012-1.1695-.1671-2.7984 1.2112s-1.7124 1.5454-.2506 1.8795z" fill="#171621"/><path d="m20.0775 44.9812c3.5502 4.0514 4.1767 5.6385 4.1767 5.6385l-.7518 1.3366s-.2924-.5848-1.8377-3.1326c-1.5454-2.5478-3.5502-6.0562-1.5872-3.8425z" fill="#1a378a"/><path d="m43.5762 42.4387-1.6586.2007c-.2061.025-.3531.2113-.3283.4163.0248.2049.212.3509.4181.3259l1.6586-.2007c.2061-.0249.3531-.2113.3283-.4163-.0248-.2049-.212-.3508-.4181-.3259z" fill="#b8c5ff"/><path d="m66.6083 110.43c-.1913-.503-.3449-1.02-.4594-1.545-.1987-.211-.4382-.379-.7039-.494s-.552-.174-.8415-.175c-1.1277.084-1.963.919-2.2972 2.297-.3341 1.379-.8771 2.465-1.4618 2.715-.5847.251-.9606-.041-1.6289-.501-.0418-.083-.1253-.083-.2089-.083-.0338.319-.0477.639-.0417.96.4578.315.9912.502 1.5453.543.2153.003.4287-.04.6266-.125.9188-.334 1.5453-1.378 2.0465-3.3.2089-1.002.7518-1.587 1.4619-1.629.71-.041 1.4618.46 1.963 1.337z" fill="#4f2431"/><path d="m42.382 42.6842 1.2112-.1671.0835.3341h-1.6288z" fill="#e0e6ff"/><path d="m100.229 31.4494-3.9263-.8353h3.2161l1.6702-3.1326c.447-.7973 1.141-1.4279 1.977-1.797s1.769-.4567 2.66-.2495l.751.2923c-1.837-.6265-2.756 1.4619-3.466 4.0514-.376 1.4201-.418 2.1719-2.882 1.6707z" fill="#61c7c7"/><path d="m107.694 31.8117c.136-1.0058-.421-1.9113-1.244-2.0226s-1.6.6139-1.736 1.6197.42 1.9114 1.243 2.0226c.823.1113 1.601-.6138 1.737-1.6197z" fill="#21354a"/><path d="m93.8702 29.3614c.2283-.9889-.2426-1.9421-1.0517-2.1289s-1.6502.4635-1.8785 1.4525c-.2283.9889.2425 1.942 1.0517 2.1288.8091.1868 1.6501-.4634 1.8785-1.4524z" fill="#21354a"/><path d="m93.2538 61.479c1.1694.2088 2.3389.543 2.7984.6683.4594.1253.6264.2088.4594.7518-.1671.543-.1671.5012-1.1695.4177l-2.3389-.1253z" fill="#61c7c7"/><path d="m82.6867 66.2824c1.7125.2506 3.9261.3759 5.8891.543.059-.799.2277-1.586.5013-2.339.4644-1.2412 1.0818-2.4198 1.8377-3.5084-1.5454-.3341-3.4249-.71-4.9703-.9606.6683-7.7269-2.8401-12.4048-5.3461-10.5671-1.1963.8785-2.0167 2.1763-2.2972 3.6338-.2088 1.1277-.3342 3.0489-.4595 3.4666-.3759 1.3783-1.42 1.6707-.5429 4.4273.4594 1.3783-1.1277 4.4273 5.3879 5.3044z" fill="#fff"/><path d="m90.0374 60.7689-1.5871-.2923c-.7936-.1671-1.1695-.0836-.71.167.4594.2506.5012.4595-.7101.6265-1.2112.1671-1.0859.7936-.71 1.086.3759.2923.6265.7518-.2924 1.0442-.9188.2923-1.0859.71-.5429 1.0441.5429.3342.8353.7518-.0836 1.0442-.9188.2924-.7935.7936 0 1.0859l2.0884.1253z" fill="#ffe8ad"/><path d="m88.5769 66.8249c.1253-1.253.4177-3.0072 2.339-5.8474l2.9237.6265-.376 1.4201 1.8796 1.2948c.6265.4594.6265.5847.5012.8771-.0954.2229-.2555.412-.4595.543-.1253.1253-.4594-.0836-.9606-.2506l-1.4201-.4595c-.2506-.0835-.2924.0836-.1253.2089s1.3366.71 1.5872.8771c.2506.167.2923.2506.2088.4594s-.2088.6265-.6265.5847c-.4177-.0417-1.9213-.5012-1.9213-.5012-1.0024.4177-2.2972.2506-3.5502.1671z" fill="#61c7c7"/><path d="m85.9461 60.0176c-1.1277.0417-3.0072.9188-4.3855 1.8795-1.3783.9606-1.6707.2923-1.2112-.4177.4594-.71 2.1719-1.0859 3.8008-1.4618s1.8377-.2924 1.8377-.2924z" fill="#dbe6ff"/><path d="m84.5258 59.9342c.5429-.0836.8771-.6266-.1253-.9189l-2.339-.6683c-.2923-.0418-.5429-.9189.5012-.6683 1.0442.2506 3.4667 1.5036 3.4667 1.5036s.6683.6265-.0835.8354z" fill="#dbe6ff"/><path d="m93.8383 63.2748-.7936-.5429.1671-.3759.9188.9188z" fill="#5697b0"/><path d="m92.8786 65.238-.5012-.2506.2506-.2506.3759.2924z" fill="#5697b0"/><path d="m89.2876 60.6445c-1.2112 1.0442-2.5895 2.9237-2.7148 5.9727l2.0048.2088c.0589-.7989.2276-1.586.5012-2.3389.4645-1.2413 1.0818-2.4198 1.8377-3.5084z" fill="#ffd978"/><path d="m78.5103 58.6393c.0618-.1172.1616-.21.283-.2631s.2573-.0634.3853-.0292c.7243.1742 1.436.3975 2.1301.6682.4177.2506-1.1695.7101-2.4225.9607s-1.0024-.2089-.3759-1.3366z" fill="#e6edff"/><path d="m92.0845 65.0707c-.3341-.3759-.3759-.7518.1671-1.0024.5429-.2506.5012-.6683.2923-.9606-.2088-.2924-.6265-.7519.1253-1.0025s.4177-.6682-.167-.7935h-.0418l-1.5453-.3342c-1.3784 2.0466-1.9213 3.5085-2.1719 4.6362.0417 0 2.5477.2923 3.0907.167s.6265-.3759.2506-.71z" fill="#66d4cd"/><path d="m117.48 61.479-1.712.8353c-.138.0687-.243.1887-.292.3342-.209.4176-.335.7518 0 .7518l1.754-.1253c1.127-.7936.919-1.1277.25-1.796z" fill="#5ec7c7"/><path d="m116.938 62.9834-1.754.8353c-.127.0813-.229.1972-.293.3342-.167.4176-.334.7518 0 .7518l1.755-.1253c1.127-.7936.918-1.1277.292-1.796z" fill="#5ec7c7"/><path d="m116.226 64.8209-.961.4176c-.072.1727-.114.3563-.125.543 0 .2924.125.2506.459.2088l.919-.1253c.251-.0417.251-.0835.292-.3341v-.8771z" fill="#5ec7c7"/><path d="m91.7074 81.8193c-.5848-3.4667-.6683-4.1349-.7936-4.5944-.1253-.4594-1.0024 3.3832-1.0442 4.5944z" fill="#7c90eb"/><path d="m98.3494 79.5221c-.6265 4.9702-1.5036 10.3164-1.8795 13.1148s-.9189.71-1.3783-1.4618c-.4594-2.1719-.3341-2.9655.8353-6.9334 1.1695-3.9678 2.7567-7.4762 2.4225-4.7196z" fill="#9eb0ff"/><path d="m104.908 77.4759c2.923 4.302 7.81 11.3189 8.771 13.1566.96 1.8378-.167.7936-2.005-.5847s-2.13-1.7542-3.341-3.8008c-1.212-2.0466-5.054-11.1935-3.425-8.7711z" fill="#e0eaff"/><path d="m117.855 74.135c-1.003 3.8425-2.673 8.6875-3.091 10.1493-.418 1.4619-2.046.9607-3.341.3342s-.752-.3342.209.8771c.776.9102 1.766 1.6135 2.882 2.0465.668.2506 1.796 1.0024 2.422-3.216.627-4.2185 1.462-12.1542.919-10.1911z" fill="#bdd1ff"/><path d="m121.616 90.2983c-.293 2.4225-2.464 1.7543-3.592 1.0025s-2.59-.5012-3.049 1.963c-.209 1.0442-1.253 2.0048-2.882.71-1.629-1.2947-2.882-.8771-3.174.8354-.293 1.7124-1.713 2.1301-3.133.5012s-3.174-.8354-3.592 1.2112-2.2971 1.5872-3.2577-.0835-2.6313-.9189-2.9237.9189c-.2923 1.8377-1.796.71-2.0048.0835l.2088 1.796c1.796-.0418 3.6338-.1253 5.4298-.2924 16.5816-1.4201 25.1436-7.9357 25.1436-7.9357l-.292-1.2948c-.502-1.796-2.548-1.8377-2.882.5847z" fill="#94a7ff"/><path d="m103.531 94.5586c-.627.2506-1.128.9606-1.337 1.963-.334 1.6707-2.2971 1.5872-3.2577-.0835s-2.6313-.9189-2.9237.9189c-.2923 1.8377-1.796.71-2.0048.0835.0835.7518.1671 1.3366.2088 1.5872v.2088c3.3546-.0877 6.7014-.3666 10.0244-.8353z" fill="#7d93ff"/><path d="m40.7539 28.9001c1.253 0 2.4225-.0418 2.7984.2924.3759.3341-.2088 1.0442-1.1277 1.7124-.9189.6683-.5848.3342-1.5454-.5012-.9606-.8353-1.0859-1.5036-.1253-1.5036z" fill="#c74153"/><path d="m41.2545 28.9424-1.0442.167c-.1253.3342.1671.8772.6683 1.2948.5012.4177 1.1277.7936 1.5454.5012l.4177-.3341c-.1671-.3759-.6683-1.3365-1.5872-1.6289z" fill="#a82c3c"/><path d="m43.1353 29.0261c-.788-.1149-1.5849-.1569-2.3807-.1253-.543 0-.6265.2506-.5429.6265h2.8401c.1671.0418.1253-.2924.0835-.5012z" fill="#fff"/><path d="m47.6036 27.2716c.0418-.0418.0418-.1253.0836-.1671.1269-.3596.1388-.7498.034-1.1165-.1047-.3667-.321-.6918-.6188-.93.0457.112.0652.2329.057.3536s-.0439.2379-.1044.3427c-.0604.1048-.144.1944-.2444.2619s-.2148.1112-.3347.1277c-.4105.0183-.821-.0383-1.2112-.1671-.5064-.2014-1.0523-.2836-1.5955-.2401-.5432.0434-1.0692.2113-1.537.4907-1.6707-.8771-2.7984-.1253-4.302-.1253-.4101.0093-.819-.0471-1.2113-.167-1.2947-.3759-1.253-.9607-.9606-1.6289-1.8378.4176-1.7542 2.3807-.9189 3.216.4595.5847 1.3366.8353 2.506.5847 1.8378 1.5454 2.7149 1.6707 4.8868.2506 1.7542 1.5037 3.4249 1.3366 4.4273-.5012.209-.0026.414-.0575.5964-.1596.1823-.1021.3363-.2483.4477-.4251z" fill="#6b3143"/><path d="m42.1304 28.3587c1.7542 1.5036 3.4249 1.3365 4.4273-.5012.209-.0027.414-.0576.5964-.1597s.3363-.2482.4478-.4251c.0418-.0417.0418-.1253.0835-.167.0512-.1909.0792-.3872.0835-.5848-.1128.2894-.3291.5266-.607.6655-.2778.1389-.5973.1697-.8966.0863-1.253 1.0442-2.5895.7101-3.8425-.2506 0 0-2.6313 1.4201-4.5526-.1253-2.1301.543-3.6755-.4594-3.4249-1.8377-.2279.3861-.3227.8363-.2699 1.2815s.2504.8607.5623 1.1827c.4594.5848 1.3365.8354 2.506.5848 1.8377 1.5453 2.7148 1.6706 4.8867.2506z" fill="#5e2737"/><path d="m82.519 73.6744c.2506.6265.6265.3342 1.2948.1671 2.0466-.5847 4.1349-1.4201 5.0538-1.5036s1.253-.4594-.6265-.4177c-1.8795.0418-4.5526.1671-5.388.2506-.8353.0836-.7518.4595-.3341 1.5036z" fill="#8fa2fa"/><path d="m93.7144 23.0117c1.4618 1.2113 1.5453 3.7173 1.5453 4.7197v3.2578c0 .4594.1253.6265 1.5454 1.5036s.8771.1253.2924-.71l-.7936-1.1695v-3.2578c-.0034-.8895-.2455-1.7618-.701-2.5259-.4555-.764-1.1077-1.3918-1.8885-1.8179z" fill="#d4ffdc"/><path d="m106.998 30.446c.543.2923.501 1.6289 0 1.0441-.501-.5847-.752-1.42 0-1.0441z" fill="#335a70"/><path d="m93.2966 27.8989c.5012.2923.4594 1.6706 0 1.0441-.4595-.6265-.7936-1.42 0-1.0441z" fill="#335a70"/><path d="m87.8673 28.8166c1.7959.8354 2.5895 1.8378 3.1325 3.049.543 1.2113-.2924 3.1325-2.2554 1.0024-1.9631-2.1301-2.7566-4.9285-.8771-4.0514z" fill="#dad4ff"/><path d="m109.835 35.1231c-.209-1.42-.376-2.7566-.543-3.9678-.533.71-.878 1.5433-1.002 2.4225-.167 1.0024.543 2.2554 1.545 1.5453z" fill="#dad4ff"/><path d="m85.82 34.9154c2.2136 1.3783 2.9654 1.4619 4.0096 1.3366s.8353-.8771-.7936-2.0466-2.5478-1.3783-3.5919-.9607c-1.0442.4177-.3342 1.1695.3759 1.6707z" fill="#dad4ff"/><path d="m110.128 37.9223-.126-1.4619c-.793.9607-.71 1.5037.126 1.4619z" fill="#dad4ff"/><path d="m91.2411 43.028c.5834-.2181.7551-1.2006.3835-2.1945-.3717-.9939-1.1458-1.6228-1.7292-1.4047s-.755 1.2006-.3834 2.1945 1.1457 1.6228 1.7291 1.4047z" fill="#b2a6ff"/><path d="m109.802 42.5232c.086-.6634-.104-1.2349-.424-1.2765s-.65.4625-.736 1.1259.104 1.2348.424 1.2764.65-.4624.736-1.1258z" fill="#b2a6ff"/><path d="m107.581 27.0216c.794.8354.877 2.1719 0 1.1277-.877-1.0441-.96-2.1301 0-1.1277z" fill="#d4ffdc"/><path d="m98.309 47.4446c2.255.9188 3.926.5847 4.97.167 1.044-.4176.919.7101-.919 1.6289-1.837.9189-2.297.5848-3.2574-.2088-.9606-.7936-2.0883-2.1301-.7936-1.5871z" fill="#7ce4cc"/><path d="m84.4414 87.751 1.5454.8771-.7518.8353z" fill="#f77bb0"/></g></g></svg>