<svg width="660" height="190" viewBox="0 0 660 190" fill="none" xmlns="http://www.w3.org/2000/svg">
<g clip-path="url(#clip0_206_9425)">
<path d="M406.508 166.849L399.462 167.755L399.261 190H413.151L406.508 166.849Z" fill="#FF78B9"/>
<path d="M403.185 168.863C395.938 169.87 391.912 168.662 388.792 166.045C388.49 165.743 388.389 165.34 388.691 164.938C388.792 164.737 388.993 164.636 389.194 164.636L415.666 161.113C416.069 161.012 416.472 161.314 416.472 161.717C416.472 161.918 416.472 162.12 416.371 162.22C414.056 165.642 410.432 167.857 403.185 168.863Z" fill="white"/>
<path d="M400.67 150.041C402.582 149.739 404.394 151.148 404.696 153.06L405.401 158.596L398.355 159.502L397.65 153.966C397.348 152.054 398.757 150.343 400.67 150.041Z" fill="#83DDC5"/>
<path d="M401.071 153.362C401.876 153.261 402.581 153.865 402.682 154.57L402.883 155.778C402.984 156.583 402.48 157.287 401.675 157.388C400.87 157.489 400.165 156.885 400.065 156.18L399.863 154.972C399.763 154.167 400.367 153.462 401.071 153.362Z" fill="#4F5D7F"/>
<path d="M401.575 156.785C391.51 158.194 386.477 161.214 383.256 165.844C382.854 166.246 382.954 166.85 383.357 167.253C383.659 167.454 383.961 167.555 384.263 167.454L421.203 162.422C421.807 162.422 422.209 161.918 422.209 161.415C422.209 161.113 422.008 160.71 421.706 160.61C417.277 156.986 411.641 155.376 401.575 156.785Z" fill="#EBEFF7"/>
<path d="M387.684 165.641C388.073 165.641 388.388 165.326 388.388 164.937C388.388 164.548 388.073 164.232 387.684 164.232C387.295 164.232 386.979 164.548 386.979 164.937C386.979 165.326 387.295 165.641 387.684 165.641Z" fill="#FFD836"/>
<path d="M392.013 165.038C392.402 165.038 392.717 164.723 392.717 164.334C392.717 163.945 392.402 163.629 392.013 163.629C391.624 163.629 391.308 163.945 391.308 164.334C391.308 164.723 391.624 165.038 392.013 165.038Z" fill="#AEC7FF"/>
<path d="M415.667 161.817C416.056 161.817 416.372 161.502 416.372 161.113C416.372 160.724 416.056 160.408 415.667 160.408C415.278 160.408 414.962 160.724 414.962 161.113C414.962 161.502 415.278 161.817 415.667 161.817Z" fill="#F47FFF"/>
<path opacity="0.45" d="M402.382 175.506C402.784 174.801 403.69 174.6 404.395 175.103L404.798 175.405C405.502 175.808 405.703 176.714 405.2 177.418C404.798 178.123 403.892 178.324 403.187 177.821L402.784 177.519C402.08 177.016 401.879 176.11 402.382 175.506Z" fill="#4762B0"/>
<g opacity="0.15">
<path d="M562.176 206.972L561.646 206.498L561.283 205.967L561.004 205.381L560.78 204.711L561.115 204.655L561.562 204.711L562.092 204.99L562.483 205.297L562.902 205.409L563.516 205.102L563.292 205.716L562.26 206.553L562.148 207L562.176 206.972ZM646.781 -25.9645L646.725 -25.5737V-24.8759V-24.4851L647.423 -24.1501L647.73 -23.7593L647.814 -23.1173L647.87 -22.9778L647.926 -22.8661L648.177 -22.9219L648.456 -23.0615L648.958 -23.1173L649.433 -23.3127H649.656L650.103 -23.0615L650.326 -22.894V-22.7265L650.242 -22.5311V-22.252L650.466 -21.6938L650.577 -21.5542L650.856 -21.4146H651.108H651.415L651.666 -21.5542L651.806 -21.8333L652.001 -22.3916L652.364 -22.6149H652.838L653.592 -22.3637L654.597 -21.8333L654.876 -21.8891L655.127 -21.9729H655.406L656.104 -21.2751L656.188 -20.0748L655.937 -18.7628L655.574 -17.73L655.267 -17.3114L654.29 -16.2506L654.094 -15.9715L654.401 -15.2737L654.848 -14.7712L655.378 -14.4642L655.965 -14.2967L656.607 -14.2409L657.025 -14.3805L657.221 -14.8271L657.277 -15.6924L657.444 -16.3344L657.863 -16.8089L658.393 -17.0043L658.923 -16.8647L658.421 -16.446L658.226 -16.0273L658.337 -15.5807L658.728 -15.1062L659.175 -14.8271L660.57 -14.5759L661.38 -14.1293L662.161 -13.4872L663.055 -13.571L663.25 -13.4872L663.641 -13.236L663.808 -13.0965L664.646 -12.9848L665.036 -12.8731L665.316 -12.5382L666.153 -11.9241L667.074 -11.6171L668.972 -11.4496L670.815 -11.7845L671.457 -11.5612L671.819 -10.668L671.931 -10.4168V-10.1935L671.847 -10.0539V-9.88642L671.959 -9.57937L672.21 -9.35606H672.433H672.657H672.908L673.717 -8.7978L674.136 -8.43493L675.057 -7.17882V-7.03927V-6.89969V-6.78804L675.197 -6.7043H675.699L675.839 -6.48099V-6.25768L675.811 -6.06228L676.034 -5.92273H676.23L676.62 -6.22978L676.844 -6.31351L676.9 -7.09509H677.514L678.798 -6.48099L679.523 -6.53683L680.11 -6.87177L681.254 -7.765L681.449 -7.54171L681.645 -7.62544L681.812 -7.87665L681.952 -8.21162L682.315 -7.87665H682.371L683.766 -7.01135L684.045 -6.39725L684.687 -6.31351L685.385 -6.50891L685.804 -6.7043L685.748 -6.14604L685.888 -5.58776L686.167 -5.11324L686.558 -4.77828L686.697 -4.6108V-4.38749L686.781 -4.1921L687.032 -4.08044L687.339 -3.9967L687.507 -3.85715L687.618 -3.68966L687.758 -3.55011L688.707 -3.18722L689.544 -3.27095L691.387 -3.94089L692.838 -4.16418L693.285 -4.47123L693.676 -4.52707L694.932 -4.1921L695.322 -3.9967L695.825 -3.10348L696.188 -2.65688L696.551 -2.7127L697.221 -3.66176L697.639 -4.08044L698.086 -4.24794L698.756 -3.68966L698.812 -3.578V-3.43845V-3.29887L698.923 -3.18722L699.398 -3.10348H699.872L700.793 -3.35471L701.184 -3.18722L704.171 -3.27095L705.008 -3.15932L705.315 -3.27095L705.483 -3.55011L705.539 -3.63384V-4.16418L705.399 -4.66662L705.12 -5.02951L704.785 -5.14116L704.925 -5.47611L705.008 -5.61568L705.176 -5.75526L704.925 -6.11812L705.26 -7.03927L705.204 -7.7371L705.315 -8.21162L705.874 -8.43493L706.516 -8.49075H706.934L707.744 -8.12788L708.162 -8.04415L708.637 -8.09996L709.056 -8.01623L710.089 -7.40213L710.786 -7.123L710.982 -6.95551L711.373 -6.56472L711.624 -6.45309L711.847 -6.56472L712.07 -6.76012L712.322 -6.84388L712.517 -6.76012L712.908 -6.42517L713.103 -6.31351L715.141 -6.17394L715.643 -6.00647L716.062 -5.61568L716.285 -5.14116L716.453 -4.63872L716.704 -4.1921L717.123 -3.88505H717.374L718.183 -4.10836H721.114L721.673 -3.94089L721.561 -3.49427L721.673 -3.35471H721.896L722.091 -3.24306L722.51 -2.48939L722.957 -1.84739L723.347 -0.730854L723.682 -0.284233L723.571 -0.0888367L723.431 0.246109V0.553154L723.599 0.69273V0.80439L723.208 1.50222L723.124 1.86509L723.654 1.78135L724.073 2.14421L724.157 2.64666L723.682 2.98162H723.543L723.152 3.20493L723.85 4.26563V4.65642L724.129 4.85181L725.58 5.0472H725.776L726.055 4.87973L726.195 4.68433L726.306 4.48895L726.446 4.34937L727.953 4.15398L728.707 3.81901L728.958 2.9537L729.042 2.84204H729.125H729.181L729.237 2.9537L729.516 3.06536H729.795L730.074 2.92578L730.298 2.64666L730.382 2.70249L730.437 2.75831V2.84204V2.9537L730.884 3.14909L732.363 3.34449L732.866 3.53988L734.206 4.46102L734.764 4.6006H735.211L735.573 4.79599L735.908 5.32633L736.215 6.5266L736.439 7.02905L736.913 7.44775L737.192 7.64314L737.527 7.69898L738.141 7.64314L738.532 7.53149L738.811 7.36401L739.202 6.94531L739.76 6.4987L739.872 6.30331L740.04 5.82877L740.151 5.6613L740.542 5.49382L741.658 5.63338L743.138 5.15886L743.892 5.07512L744.561 5.43798L744.841 5.6613L746.236 6.30331L746.99 6.47079H747.381L747.548 7.00115L747.911 7.50356L748.386 7.86645L748.832 7.97811L749.307 8.25724L749.586 8.34097H749.837L750.005 8.1735L750.2 7.64314L750.395 7.47567H750.87L751.958 7.83854L752.489 7.95019H753.131V7.78271L752.824 7.44775L752.601 6.83365L752.796 6.55452L753.801 5.74503L754.219 5.52172H754.694L755.615 5.63338L756.118 5.54964L756.508 5.29844L757.234 4.6006L757.625 4.37729H758.016H758.434L758.825 4.32145L759.607 3.70737L760.388 4.0144L760.807 3.73527L761.058 3.79111H761.756L761.924 3.84693L762.063 4.20981L762.259 4.51684L762.482 4.76807L762.761 4.93555L763.263 5.10304L763.877 5.18678H764.492L765.524 4.99138L765.469 5.43798L765.273 6.13582L765.385 6.63826V7.19654L765.692 7.64314L766.083 7.95019L766.613 7.86645H767.171L767.478 8.28516H767.646L767.897 8.03392L768.204 8.08976L768.79 8.48055L768.232 9.59706L768.148 9.90411L768.064 10.3787L767.869 10.6019L767.646 10.7694L767.478 11.1044L767.087 10.909L766.194 11.1044L765.441 10.7973L765.245 10.4903L764.799 10.574L764.296 11.1323L764.017 11.8301V12.9746L763.961 13.7562L764.101 14.3423L764.492 14.761L765.301 15.2635L765.748 15.8776L766.278 16.6591V17.0499L765.915 17.357L765.831 17.7757L765.971 18.2781L766.111 18.948V19.1713L766.222 19.3388L766.669 19.7017L766.78 19.9529L766.697 20.567L766.111 21.5998L765.803 22.4093L765.413 22.828L764.743 23.777L763.933 23.6933L763.012 24.3632L762.789 25.2285L762.091 25.6193L759.97 27.2941L759.551 27.9919L758.797 28.1873L758.239 28.3269L757.625 28.4665L757.374 28.5502L757.262 28.606L756.899 28.941L756.815 29.0806L756.732 29.3039L756.508 29.3597H756.229L755.894 30.0854L752.88 31.3695L748.051 33.6025L747.548 34.1329L746.18 35.0819L744.394 35.8356L743.696 36.3659L743.054 37.2312L741.91 39.2689L741.24 40.218L740.458 40.9437L738.783 41.8649L737.806 42.144L736.187 42.3115L734.596 42.7302L734.122 43.0372L733.899 43.093H733.089L728.428 44.4887L726.39 44.6283L720.389 46.8614L718.714 47.2242L718.518 47.3638L718.1 48.1174L718.016 48.3687L717.904 48.5361L717.653 48.6478L717.095 48.3128L716.927 48.257H715.867L714.862 48.4803L713.941 48.899L713.299 49.2898L710.591 51.9695L709.279 53.7001L706.683 56.3519L706.209 57.273L706.851 57.6359L707.521 57.915H707.8L707.911 57.7475L707.828 57.5242L707.521 57.273H707.911L708.246 57.4684L708.525 57.7196L709.084 58.4454L709.698 58.9478H710.005L710.479 59.0874V59.7294L710.116 60.3714L709.893 60.7063L708.358 61.153L707.688 61.7392L706.516 63.5814L705.79 64.1397L705.092 64.3909L704.338 64.5025L703.78 63.6093L704.925 63.4698L705.455 63.8605L706.236 63.3581L707.102 61.9904L706.627 61.9066L705.902 61.9625L703.948 62.6045L703.473 62.9115L703.082 63.3302L702.719 63.8884L701.966 65.7028L701.575 66.6519L701.156 67.2381L700.738 67.6847L700.403 68.215L700.235 69.0245L699.621 69.6665L697.946 72.8765L697.667 73.2115L697.025 73.7419L696.718 74.0768L695.909 75.2213L694.485 76.4215L693.033 79.2966L692.391 79.9944L691.191 80.7481L690.577 81.6413L689.544 83.8465L688.93 84.7676L687.423 86.4424L684.967 90.5457L684.827 90.8807L684.771 91.6343L684.604 92.1646L684.352 92.5554L683.794 93.1974L683.459 93.644L683.18 94.1744L683.041 94.7048L682.873 95.0956L682.119 96.1842L681.868 96.7424L681.701 97.831L681.784 99.3663L681.952 100.678L682.426 102.716L683.934 105.982L684.185 106.484L684.492 107.015L684.185 107.21L683.85 107.489L683.99 108.047L684.213 109.164L684.604 110.169L685.218 111.285L685.832 112.513L686.725 114.077L687.088 114.523L687.981 115.221L688.874 116.17L689.377 116.561L690.019 116.728L691.107 116.84L692.252 117.175L693.285 117.761L694.038 118.599L693.927 118.654L693.676 118.822L693.955 118.961L694.15 119.157L694.792 119.687L695.015 119.631L695.155 119.994V120.469L695.015 120.692H694.569L694.178 120.832L693.815 121.027L693.48 121.334L693.201 121.976L693.145 122.06L693.061 122.171H692.587L692.419 122.283L692.112 122.59L691.833 122.73L691.582 122.925L691.359 123.4L691.526 123.818L691.052 123.707L690.717 123.79L690.41 123.93L689.963 124.014H689.265L688.93 124.125L688.595 124.405L688.316 124.907V125.354V125.772L688.149 126.219L687.786 126.61L687.423 126.749H686.418L685.329 127L684.743 127.224L683.99 127.782L681.701 128.731L681.338 128.982L681.198 129.345L681.003 129.457L680.138 130.434L679.886 130.88L679.803 131.467V131.774L679.719 131.885L678.937 131.941L678.602 132.053L678.351 132.304L678.267 132.751L677.43 132.695L677.207 133.895L677.57 136.658L677.29 137.021L676.872 137.133L676.006 137.077L675.476 137.217L675.057 137.58L674.722 138.054L674.471 138.557L674.332 138.975L674.22 139.45L674.136 140.734L674.025 142.716L673.969 143.274L673.745 143.553L673.103 143.804L672.657 144.279L672.433 144.67L671.484 147.07L671.429 147.573L671.54 148.801L671.429 149.108L670.787 148.298L670.2 149.889L669.893 150.141L669.363 150.308L669.168 150.727L669.251 151.285L670.033 152.709L670.256 153.016L671.038 153.518L671.596 153.769L672.071 153.825L672.266 153.462L672.713 153.714L672.88 154.076L672.796 154.439L672.461 154.718L672.266 154.942L672.071 155.053H671.847L671.624 154.914L671.401 155.053L670.759 155.305L670.368 155.388L669.698 155.751H668.805L668.498 155.807L668.163 155.974L667.577 156.365L667.381 156.226L666.432 155.751L665.651 155.612H664.143H663.725L663.362 155.751L663.083 155.974L662.943 156.254L663.027 156.533L663.278 157.035L662.524 156.868L661.799 156.7L661.659 156.365L661.547 156.114L661.045 156.03L660.347 155.751L660.012 155.667L659.649 156.03L659.565 156.309H658.896L658.086 156.17L657.388 156.533L656.997 156.784L655.937 157.817L655.546 158.068L655.071 158.18L654.932 158.235L654.736 158.375L654.569 158.542L654.485 158.682L654.429 158.822L654.178 159.799V159.994L653.955 160.161L653.815 160.106L653.676 159.994H653.508L653.285 160.106L652.81 160.524L652.587 160.608L652.224 160.664L650.996 161.194L650.438 161.529L650.326 161.892L650.159 162.143L649.74 162.087L649.517 162.367L649.377 162.897L649.07 163.511L648.372 164.516L646.977 165.912L646.362 166.749L645.944 167.949L645.776 168.982L645.497 169.792L645.358 170.629L644.66 172.443L644.157 173.281V173.644L644.213 173.895L644.297 174.118L644.353 174.369V174.621L644.185 174.788L643.99 174.872H643.459L643.32 174.983L643.013 175.29L642.175 175.877L641.84 176.267L641.589 177.496L641.31 177.858L640.947 178.138L640.556 178.556L640.473 178.78L640.361 179.338L640.249 179.589L640.026 179.729L639.747 179.785L639.524 179.868L639.272 180.427L638.91 180.706L638.435 180.901L637.961 180.957L637.067 180.678L636.397 180.008L635.811 179.198L635.169 178.528L634.332 177.998L633.829 177.803L633.299 177.719L632.852 177.803L632.071 178.221L631.596 178.333L631.373 178.277L630.731 177.998L630.452 177.942L628.554 178.277L628.163 178.501L627.688 179.645L627.214 180.957L626.6 181.599L626.488 181.683L626.209 181.962L625.595 182.213L624.785 182.325L624.367 182.157L623.892 182.353L623.278 181.934L622.804 181.571L622.357 181.376L622.134 181.431L621.91 181.711L621.687 181.766L621.436 181.627L620.794 180.762L620.124 180.287H619.649L618.337 180.678L616.216 180.315L614.29 180.482L612.587 180.175L610.159 180.482L609.796 180.706L609.461 181.041L608.959 181.404L608.093 181.962H606.614L605.693 181.208L605.218 181.292L604.883 181.459L604.018 181.041L603.655 180.566H602.901L602.12 180.65L601.785 180.957L600.557 181.096L598.826 180.538L597.989 180.259L596.76 180.51L595.058 181.013L592.769 180.371L592.211 180.51L591.485 181.041L589.419 181.348L588.749 181.431L584.479 181.096L584.06 181.208L583.753 181.487L583.083 182.66L582.943 182.911L582.608 183.274L582.357 183.692L582.246 184.167L581.548 185.339L580.04 185.535L579.398 186.819L578.561 187.377L578.338 187.517L577.835 187.712L576.83 187.935H575.853L573.09 187.572H572.56L572.336 187.628L572.057 187.851L570.382 189.024L568.763 189.163L567.647 189.861L567.34 189.973L566.475 190.085L566.084 190.224L565.777 190.419L565.47 190.838L564.828 191.983V192.262L564.409 193.35L564.186 193.797L564.074 193.937L563.907 194.104L563.711 194.244L563.32 194.383V194.606L563.46 194.886L563.181 195.276L562.399 196.728L562.288 197.035L562.176 198.403H561.701L561.506 197.761L561.115 197.482L560.557 197.286H560.082L559.999 197.565L559.775 197.817L559.664 198.179V198.598L559.831 198.989L559.72 199.212L559.775 199.659L559.915 199.938L559.971 200.189L559.887 200.524L559.72 200.719L559.552 200.887L559.05 201.082L556.649 201.948L556.314 202.171L555.588 202.394L555.17 201.501L554.165 200.943L553.746 200.608L553.188 200.831L552.685 200.664L552.211 200.385L551.206 200.105L550.843 199.77L550.341 199.017L548.778 197.51L548.331 197.202H547.801L546.74 197.398L545.484 197.035L544.87 196.225L544.395 195.249L543.865 194.355L542.553 193.657L542.385 193.239L542.33 192.736L542.162 192.206L541.939 191.704L541.129 190.754L540.571 189.443L540.208 188.549L539.678 187.517L539.147 187.07L538.952 186.819L539.259 186.679L539.454 186.735L540.208 187.433L540.404 187.712L540.292 187.963L540.459 188.242L540.822 188.661L541.129 188.605L541.297 188.438L541.548 188.047L542.05 187.461H541.883L541.408 187.6L540.99 187.544L540.794 187.098L540.962 186.205L540.738 185.646L539.594 184.558L539.343 184.418L537.724 184.306L537.305 184.195L536.942 183.832L536.663 182.66L536.412 182.101L536.077 181.543L535.937 180.985L536.049 180.454L536.496 179.98L536.942 179.757L537.836 179.45L538.143 179.17L538.394 178.473L538.198 177.244L538.338 176.547L539.147 175.849L541.073 175.988L541.743 175.095L541.297 175.402L540.683 175.653H540.069L539.622 175.29L538.617 175.681L538.17 176.016L537.975 176.63L538.115 178.417L537.975 178.752H537.138L536.468 177.886L535.686 175.905L535.156 174.983L534.486 174.258L528.624 170.043L527.982 169.708L527.424 169.568L527.005 169.401L526.028 168.591L525.554 168.368L525.079 168.145L524.66 167.475L524.493 166.693L524.66 166.33L524.94 166.079L525.777 164.823L526.056 164.293L524.856 165.66L524.186 166.135H523.432V166.33L523.963 167.14L524.214 167.67V168.005L523.935 168.033L521.841 167L521.06 166.749L520.111 166.442L519.496 166.721L520.166 166.805L520.473 166.972L514.695 167.112L514.333 167.279L513.858 167.726L513.411 167.782L512.993 167.614L512.602 167.391L512.239 166.079L512.127 165.409L512.295 164.963L512.072 163.986L511.904 161.613L511.485 160.692L511.541 160.357L511.485 159.687L511.346 158.961L511.178 158.403L511.039 158.208L510.62 157.873L510.425 157.677L510.229 157.37L510.173 157.175V156.979L510.034 156.561H509.95L509.922 156.533V156.226L509.978 156.114L510.229 155.835V155.695L510.313 155.556V155.416L510.257 155.221L510.48 155.081L511.122 154.411L511.29 154.16L511.43 153.714L511.653 152.262L511.988 151.369L512.406 150.755L514.612 148.912L515.282 147.74L515.533 146.707L516.063 145.312L516.175 144.781V144.474L516.091 144.195V143.944L516.231 143.776L516.984 143.609L517.235 143.441H517.543L517.85 143.553H518.157L518.464 143.441L518.771 143.358L518.938 143.246L519.189 142.911L519.413 142.297L519.608 142.074H520.027L521.367 142.66L521.981 142.576L522.176 141.85L522.399 141.46L522.595 140.538L523.041 139.617L523.376 138.612L523.572 138.166L523.823 137.3L523.739 137.245L523.404 137.021L522.734 137.077L522.12 137.273H522.064L521.925 137.217L521.618 137.635L521.032 137.887L520.418 138.026H520.055L519.72 137.719L519.496 137.496L518.547 135.039L518.436 134.9L518.017 134.593L517.85 134.425L517.738 134.23L517.57 133.839L517.459 133.672L514.947 130.434L514.277 129.931L513.942 129.764L514.277 129.401L514.5 129.066V128.703L514.249 128.312L514.472 127.95L514.891 126.414L515.896 124.963L516.035 124.544L515.951 124.321L515.812 124.209L515.644 124.125L515.533 123.93V123.679L515.477 123.372L515.533 122.674L515.7 121.641L515.784 121.418L515.979 120.999L516.035 120.887L517.096 120.022L517.431 119.743L517.794 119.603L518.185 119.268L518.52 118.878L518.659 118.599L518.882 118.403L519.971 118.152L520.362 117.957L520.641 117.65L520.92 117.398L521.115 117.287V116.84L521.199 116.365L520.864 115.779L521.367 115.361L521.897 114.607L522.706 113.044L522.93 112.737L523.069 112.43V112.151L522.762 111.927L522.93 111.397L522.79 110.783L522.455 110.225L522.064 109.862L521.506 109.471L520.892 109.303L520.25 109.387L519.692 109.722L519.413 109.834L519.05 109.778L518.687 109.61L518.436 109.359V109.108L518.659 108.522L518.715 108.215L518.436 107.629L517.877 107.377L517.208 107.21L516.621 106.875L516.286 106.4L516.091 105.786V105.144L516.454 104.586L515.282 103.135L514.835 102.772L514.667 102.409L514.556 101.767V101.097L514.667 100.65L514.863 100.204L514.975 99.5059V98.8359L514.807 98.5289L513.802 98.2498L513.3 97.9985L512.937 97.6915L512.714 97.0216L512.518 96.7424L511.709 96.3237L511.318 95.933L510.62 94.9839L510.201 94.5931L509.42 92.4438L509.224 92.0251V91.9413L514.333 92.1925L514.667 92.1088L515.058 91.9413L515.505 91.8576H516.454L516.873 91.746L517.403 92.053H518.157L521.674 91.6622L522.037 91.5226L522.316 90.8527V90.6294L522.232 90.4061V90.127L522.344 89.8478L522.623 89.3454L522.706 89.0384V88.7872L522.567 88.508V88.1731L522.706 87.7543L522.902 87.5869L523.46 87.3635L523.683 87.224L524.27 86.3308L524.353 86.0237V85.4934L524.409 85.2142V85.0467L524.325 84.7397V84.5722L524.381 84.4326L524.605 84.2652L524.688 84.1535L524.828 83.3999L524.912 83.1207L524.856 82.7858L524.967 82.4508L525.386 81.753L524.437 80.0224L523.907 79.3524L523.572 78.85L523.321 78.6267L523.069 78.5429L522.427 78.4592L522.148 78.3755L521.869 77.9568L521.702 76.8961L521.506 76.4494L521.702 76.0866L521.925 75.3608L522.148 75.0817L522.567 74.8863L523.6 74.2164L523.907 74.1606H524.074H524.549H525.023L525.47 73.8256L525.554 73.6302V73.379L525.582 73.0998L525.665 72.8486L525.805 72.6812L526.838 71.9275L527.061 71.7042L527.48 70.9506L526.67 70.1969L526.112 69.3036L525.972 68.2988L526.419 67.2101L526.977 66.4286L527.033 66.0378L526.893 65.5074L526.642 65.0887L526.363 64.8096L526.168 64.5025L526.112 63.9443L526.251 63.4698L526.81 62.4649L526.977 61.9345V61.5437L526.921 60.9855L526.726 59.9248L526.419 58.892L526.363 58.4454V57.8313L526.419 57.5242L526.475 57.3567V57.1893L526.419 56.8543V56.6589V55.8494L526.81 55.7378L526.921 55.347L526.81 54.9283L526.559 54.7329L526.196 54.6492L526 54.3979L525.805 53.728L525.302 52.444L524.967 51.8857L524.214 51.0762L523.991 50.7134L523.935 50.3226L524.186 49.9039L524.27 49.3177L524.772 49.0665L526.251 49.2061L526.893 49.1223L527.228 48.7874L528.178 47.3917L528.373 46.8055L528.317 46.0239L528.401 45.8006L528.708 45.4098L529.545 44.6841L529.685 44.4329L529.852 43.9584L530.69 42.6744L530.969 42.3673L531.388 42.2836H532.951L533.174 42.1161L534.57 41.502L535.351 40.8879L536.105 40.1063L536.859 38.8781H536.942L537.249 38.906H537.333L537.389 38.7106V38.4594V38.264H537.305L537.612 38.0128L537.947 37.8733L538.701 37.8174V37.5383L539.622 36.0868V35.8635L539.566 35.6402V35.389L539.706 35.054L540.32 34.412L541.464 32.7372L541.213 32.4302L540.878 31.9556L539.873 30.8949L538.812 30.1971L537.64 29.7784L535.714 29.3876H535.379L535.212 29.5272L535.044 29.7226L534.709 29.9459L534.346 30.1413L534.095 30.1971L533.425 29.9459L533.09 29.4434L532.979 28.8294L532.923 28.2432L532.811 27.9361L532.644 27.657L532.56 27.3778L532.699 27.0708L532.867 26.8196L532.979 26.5125L533.565 23.9166L533.844 23.3025L533.23 23.1071L532.811 23.0513L532.616 22.828L532.811 21.4602L532.727 20.9299L532.392 20.5391L531.806 20.2879L531.499 20.9578L530.69 21.209L528.987 21.2927L528.261 21.0694L527.396 19.7296L526.67 19.59L526.531 20.5391L525.972 20.902L524.493 21.0136L523.823 20.874L523.237 20.4274L522.902 20.26L522.679 20.1483L522.12 20.567L521.283 20.9299L520.529 20.5949L519.804 19.9808L519.022 19.5063L518.687 19.5621L518.268 19.7854L517.905 20.0646L517.738 20.26L517.682 20.7066L517.85 21.7394L517.794 22.2418L517.515 22.6326L517.291 22.9675L516.51 23.47L514.807 24.0562L514.388 24.1399H513.523L513.16 24.1678L512.825 24.3911L512.239 25.061L511.932 25.3402L511.82 24.8378L511.597 24.2795L511.29 23.8608L510.955 23.7491H510.732L510.369 23.47H510.173L510.006 23.6096L509.95 23.805V24.0283L509.811 24.2516L509.448 24.5028L508.973 24.6703L508.471 24.754L508.052 24.6982L507.661 24.4749V24.1678L508.024 23.1629L506.74 23.1071L506.321 22.9117L505.651 22.4372L505.289 22.3535L504.619 22.6884L503.139 23.0513H502.497L502.246 23.1071L502.134 23.2746L502.051 23.47L501.883 23.6654H501.13L500.962 22.7443L500.906 21.8789L500.432 22.0464L500.32 22.4093L500.208 22.9396L499.985 23.3583H499.538L499.148 23.3025L498.813 23.47L498.534 23.777L498.31 24.1678L497.529 24.9773H497.473L496.44 25.2844L494.374 25.1448V25.089L494.486 24.3353V23.9166L494.263 23.6654L493.398 23.3304L493.118 22.7721V22.186L493.37 21.5998L494.291 20.232L494.989 19.5342L495.686 19.0876L496.077 18.7805L496.328 18.3898L496.384 17.8315L496.189 17.357L495.826 16.9941L495.379 16.7987L494.877 16.8545L494.458 17.0499L494.095 17.1616L493.788 16.9104L493.705 16.38L493.788 15.0123L493.565 14.5098L493.342 14.2028L492.616 14.7052L492.169 14.8727H491.751L491.583 14.9285L491.36 15.0681L490.746 15.6264L490.355 15.8497L486.67 16.4358L486.224 16.6033L485.414 17.1616L484.968 17.3291H484.102L483.684 17.4407L483.265 17.7478L483.07 18.0827L482.818 18.7805L482.651 19.1155L482.176 19.4505L481.562 19.6459L481.032 19.925L480.753 20.1204L480.474 20.6508L480.111 21.1532L479.664 21.5161L479.162 21.6556L478.771 21.8789L478.38 22.3535L477.989 22.6884L477.599 22.5489L477.654 22.1022L477.18 15.8776L477.264 15.3193L477.515 15.096H478.464L478.911 14.9564L479.078 14.6494L478.966 14.3982L478.52 14.1749L478.408 13.9795L478.52 13.8678L479.134 13.5328L479.19 13.3933L479.245 13.0862L479.385 12.7792L479.636 12.6396L479.748 12.5559L480.195 11.9976L481.451 11.0206L481.758 10.8811L481.869 10.8253L482.623 10.0995L483.042 9.93203L483.516 9.59706L483.684 9.42959L483.767 9.15046V7.95019H483.656L483.46 8.00601L483.098 8.34097L482.846 8.95507L482.511 9.51333L481.925 9.76456L481.451 9.87621L480.167 10.4624L479.915 10.7415L479.664 10.7973L478.408 10.7136L477.961 10.8532L478.045 10.4624L478.296 9.76456V9.31794H478.464L478.799 9.82038L478.938 9.56916V8.53637L478.911 8.28516L478.855 8.14558L478.938 8.06184L479.273 7.97811L480.139 8.1735L480.25 8.08976L480.418 7.67106L481.311 6.61034L481.73 6.24747L482.511 5.71712L482.846 5.38217L483.014 4.90765L482.79 5.01928H482.595L482.344 4.90765H482.148L482.065 4.96346L482.009 5.01928L481.479 5.35425L480.892 5.82877L480.557 6.02416L480.027 6.16374L479.273 6.24747L478.492 6.16374L477.934 5.80087L477.738 5.43798L477.627 4.82389L477.431 4.48895L477.124 4.32145L476.315 4.1819L476.147 4.04232L476.315 3.73527L476.761 3.45614L477.264 3.26075L477.627 3.17702L477.906 3.28867L478.101 3.5678V3.87485L477.766 4.07024L477.989 4.20981L478.324 4.34937L478.659 4.40521L478.911 4.32145L478.994 3.9865L478.938 3.59572V3.26075L479.245 3.00954L478.938 1.89301V1.33472L478.994 0.860203L479.218 0.469421L479.497 0.218212L479.804 0.134453L480.111 -0.256329L480.976 -2.23817L481.171 -2.96393H481.032L480.864 -2.43357L480.641 -1.93113L480.334 -1.54034L479.915 -1.40076L479.469 -1.56826L479.19 -1.98694L478.938 -2.48939L478.631 -2.76851L478.269 -2.0986L478.213 -1.70781L478.464 -1.42869L477.934 -0.675014L477.654 -0.479622L477.319 -0.758774L477.459 -1.09372L477.124 -0.926247L476.342 -0.312149L476.677 0.106552L476.398 0.329845L475.533 0.581078L475.477 0.74855L475.282 1.4743L475.086 1.55804L474.891 1.72551L474.556 2.14421L474.193 1.75343L474.137 1.16725L474.026 0.63689L473.495 0.413605L473.132 0.0786362L473.244 -0.702934L473.579 -1.54034L473.886 -2.04278V-2.43357L473.942 -2.90809L474.082 -3.55011L474.361 -3.94089L474.472 -4.16418L474.668 -4.38749L474.947 -4.49915L475.003 -4.55499L475.7 -4.94577L476.315 -5.81108L476.677 -6.14604L477.264 -6.28559L477.431 -6.50891L477.571 -7.01135L477.515 -7.54171L477.012 -7.82084L476.901 -7.06717L476.538 -6.62056L475.98 -6.36933L475.338 -6.28559L474.137 -6.45309L473.635 -6.34143L473.719 -5.81108L473.16 -5.2249L472.853 -5.05742L472.407 -5.14116L472.1 -5.42029L471.932 -5.83899L471.793 -6.36933L471.569 -6.95551H471.876L472.1 -7.06717L472.267 -7.29048L472.407 -7.62544L472.211 -7.98831L471.876 -8.21162L471.43 -8.40701V-8.65822L471.29 -9.07693V-9.27232V-9.4119L471.513 -9.66311L471.569 -9.8585V-10.1655V-10.3609L471.402 -10.4726H470.983L470.76 -10.6401L470.397 -11.2263L470.09 -11.3658V-11.1704L470.229 -10.8076L470.09 -10.6122L469.867 -10.5563H469.755L469.643 -11.0309H469.42L469.141 -10.8913L468.945 -10.6959L468.778 -10.4168L468.527 -9.77476L468.359 -9.49563L468.248 -9.55145L468.024 -10.3051L467.801 -10.5005V-10.6959L467.969 -11.003L468.471 -12.3707V-12.5661L468.527 -12.8173L468.611 -13.0685L468.694 -13.2639L468.778 -13.5431L468.638 -13.7664L468.276 -14.0176L468.108 -14.7992L468.303 -14.9666H468.611L468.778 -15.2737L468.918 -15.8599L469.197 -16.139L469.476 -16.3344L469.587 -16.7252L469.95 -16.4181L470.257 -16.3344L470.564 -16.446L470.899 -16.7252L471.039 -16.8927L471.095 -17.0601L471.179 -17.2276L471.402 -17.3951L471.597 -17.5068L471.765 -17.5626L472.183 -17.6184V-17.8696L471.793 -17.6742L471.262 -17.5626H470.871V-17.8696L470.118 -17.4788L469.783 -17.5347L469.56 -18.0929L470.704 -19.1816L471.458 -19.6003L472.351 -19.2095H472.77L473.188 -19.2932L473.495 -19.4328L473.802 -19.7119L474.109 -19.9073L474.361 -20.3539L474.472 -20.8284H474.64L475.086 -20.4376H475.728L476.37 -20.7168L476.789 -21.0238H476.287L476.008 -21.1913L475.645 -21.917H475.533L475.226 -22.0566L475.031 -22.252L475.198 -22.3358H475.421L476.398 -22.7824L477.403 -23.4802L478.157 -23.6756L478.324 -23.8989L478.52 -24.0664L478.799 -24.1501L479.106 -23.9826L479.86 -23.229L480.278 -23.0615L480.697 -22.9778L481.618 -22.6707L482.065 -22.587L482.735 -22.8382L483.572 -23.3127L484.465 -23.5919L485.275 -23.229L486.531 -23.8152L486.726 -24.0105L486.81 -24.2897L487.005 -24.5409L487.257 -24.7084L487.731 -24.82L487.843 -24.9596L487.899 -25.0992L488.038 -25.2108L489.35 -25.5458L489.434 -25.1271L489.657 -24.82L490.187 -24.3455L490.495 -24.7084L490.578 -25.0154L490.522 -25.797L490.746 -26.2157L491.22 -26.132L491.918 -25.6854L492.253 -25.5737L492.393 -25.2946L492.476 -24.9317L492.644 -24.5688L493.202 -24.0105L493.453 -23.7035L493.621 -23.2011L493.816 -23.7314V-24.2339L493.621 -25.2387V-25.7412L493.76 -26.0482L494.012 -26.2715L494.458 -26.5786L493.984 -26.8019L493.537 -26.8577L492.728 -26.8019L492.309 -26.9415L491.723 -27.5555L491.332 -27.723L491.779 -28.0859L494.179 -28.3929L494.347 -28.4488L494.514 -28.6162L494.626 -28.8396V-29.0908H494.458L493.9 -28.8396L492.448 -28.5883L492.532 -28.7L492.588 -28.7558L492.756 -28.8396L492.672 -28.9233L492.448 -29.0629L492.169 -28.6442L491.695 -28.4488L490.634 -28.3929L490.83 -28.8954L490.913 -29.5932L491.025 -30.0956L491.304 -29.984L491.611 -30.4306L491.416 -30.5981L491.22 -30.8772L491.109 -31.2122V-31.5751H491.22L491.639 -31.4913L491.806 -31.5751L492.365 -31.4913L493.063 -31.8542L496.524 -34.506L496.608 -34.1431L496.803 -33.9477H497.054L497.333 -34.0594H497.082H496.998V-34.2547L497.11 -34.3106L497.222 -34.4222L497.333 -34.506L496.859 -34.8688L496.803 -35.2317L496.915 -35.5946L496.998 -35.9854L497.138 -36.2645L497.501 -36.3482H498.31L499.008 -36.5436L499.678 -36.9344L500.264 -37.4927L500.739 -38.1347L501.409 -38.023L501.688 -37.5485L501.855 -36.9623L502.218 -36.5157V-36.3203L502.079 -36.4041L501.827 -36.4599L501.688 -36.5157L501.52 -36.2366L501.409 -35.9295V-35.6504L501.548 -35.3992L501.297 -35.2038H501.213L501.046 -35.3992L500.906 -35.2317L500.85 -35.1759L500.739 -35.1201V-34.8967L501.939 -34.8409L502.162 -35.0921L501.716 -35.8179L501.995 -36.0133H502.274L502.86 -35.8179L502.804 -35.9295L502.748 -36.1807L502.693 -36.2924L503.028 -36.6553L503.474 -37.0182L503.949 -37.2973L504.898 -37.5485L505.4 -37.9114L505.819 -38.3859L505.986 -38.8883L506.07 -39L506.238 -38.9163L506.405 -38.665L506.489 -38.3301L506.377 -38.1347L505.819 -37.4648V-36.9902L505.903 -36.8507L506.07 -36.9065L506.293 -36.9902V-37.074V-37.2415V-37.381L506.517 -37.4369H506.684L507.103 -37.6602L507.187 -37.2135L507.773 -36.0691L507.717 -35.5388L507.94 -35.6225L508.247 -36.0412L508.443 -36.5157L508.722 -36.4041L508.945 -36.5715L509.169 -36.8228L509.504 -36.9623L510.453 -36.8507L510.732 -36.739L512.714 -35.6225L513.691 -35.2596L515.198 -32.5799L516.314 -32.0217L516.231 -31.8821L516.175 -31.7705L516.119 -31.6867L515.979 -31.603V-31.3518L516.286 -31.2122L516.482 -31.2959L516.649 -31.4634L516.928 -31.603H517.291L517.794 -31.4355L518.687 -31.2959L520.138 -31.3518L520.529 -31.603L520.948 -31.3797L521.367 -31.2959L521.646 -31.0726V-30.4306L521.506 -30.0677L521.255 -29.677L521.143 -29.2303L521.367 -28.6721H521.506L521.646 -29.2024L521.73 -29.7607L521.869 -30.2073L522.176 -30.4585L522.399 -31.2401L523.767 -31.5472L526.112 -31.6309L526.475 -31.5192L527.898 -31.6309L528.875 -31.3518L529.489 -31.268L530.801 -31.9659L532.03 -31.8263L533.258 -31.3797L534.123 -30.9051L534.374 -31.1005L534.653 -31.1564H535.267L535.212 -31.2959L535.156 -31.6588L535.1 -31.7984L535.435 -31.7425L535.993 -31.4076L536.328 -31.3238L537.556 -31.5751H538.785L539.12 -31.6309L539.734 -31.9379L540.292 -32.0775L540.431 -32.245L540.599 -32.4125L540.934 -32.4683L541.688 -31.91L541.995 -31.7984L543.837 -31.603L544.2 -31.7984L544.563 -31.603L544.925 -31.7705L545.288 -32.0496L545.651 -32.2171H548.415L548.526 -32.5241L548.359 -32.7753L548.247 -33.0266L548.554 -33.3615L548.498 -33.4732L548.443 -33.7244L548.387 -33.836H549.168L549.447 -33.9756L549.559 -34.3664L549.727 -34.6734H550.117L550.899 -34.2547L551.401 -33.8081L552.713 -32.245L553.16 -31.5472H553.327L553.439 -32.0217L553.607 -31.8821L553.886 -31.3238L555.114 -31.1284L559.915 -31.3238L560.641 -31.1284L560.724 -30.6818L560.417 -30.1515L559.999 -29.7607L560.166 -29.5374L560.417 -29.677L560.92 -29.8444L561.171 -29.984L561.339 -30.2073L561.394 -30.4306L561.534 -30.5981L561.897 -30.6539L562.902 -30.5702L563.292 -30.4306L565.023 -29.2862L565.833 -28.9791L567.898 -28.8675L568.456 -28.7L568.708 -28.2813L568.987 -28.4767L570.662 -27.9743L570.857 -28.0301L571.192 -28.3371L571.471 -28.3929L571.722 -28.3092L572.253 -28.0301L573.955 -27.6672L575.909 -26.7461L576.384 -26.6065L581.687 -26.132H581.799L582.441 -25.5179L582.943 -26.0203L583.613 -26.1599L584.283 -25.9645L584.758 -25.5179H584.897L585.149 -25.9366L585.372 -26.0482L586.488 -25.9086L589.447 -26.2157L590.117 -26.7461L591.624 -27.2206L592.183 -27.3043H593.243L593.383 -27.3881V-27.5555L593.439 -27.6951L593.634 -27.7509L593.802 -27.6951L594.388 -27.2764L594.5 -27.4439H594.611L594.723 -27.4718H594.862L594.751 -27.5555L594.527 -27.7509V-27.9463L595.365 -28.5604L595.784 -28.7279L596.174 -28.6162L596.481 -28.8116H596.537L596.649 -28.6162L597.347 -29.0349L598.072 -29.1745L598.77 -29.0349L599.44 -28.5883L598.407 -28.1138L597.961 -27.8347L597.654 -27.4718L597.905 -27.1648L598.017 -27.081L598.156 -26.9973H598.072H598.017H597.989V-26.8298H598.24L598.463 -26.8577L598.826 -27.0252L598.994 -27.1927L599.301 -27.6393L599.384 -27.723L599.608 -27.6393L599.831 -27.3322L600.054 -27.2485L600.166 -27.3881L600.11 -27.6951L599.971 -28.0021L599.803 -28.1696V-28.365L600.138 -28.3092L600.278 -28.2534L600.445 -28.1417V-28.3092H600.613L600.445 -28.5883L600.696 -28.7L601.394 -28.7558L601.673 -28.9233L601.897 -29.1466L602.148 -29.2862L603.99 -29.8724L604.576 -29.8165L604.52 -29.2583H604.939L605.246 -29.007L605.497 -28.7279L605.721 -28.5883L607.368 -28.3092L607.479 -28.1975L607.563 -28.0301V-27.8347V-27.5555L607.479 -27.4997H607.34H607.144L607.033 -27.5835L606.809 -27.723L606.586 -27.7789L606.474 -27.6114L606.391 -27.416L606.195 -27.2485L605.804 -27.0252L606.279 -26.9415L606.558 -26.5786L606.781 -26.439L607.116 -27.0252L607.368 -26.6344H607.703L608.4 -26.8298L608.735 -26.774L609.88 -26.3832L611.331 -26.1878L612.42 -25.7691L612.727 -25.7133L612.978 -25.5737L613.536 -24.9317L614.15 -24.7363L614.625 -24.5967L615.072 -24.5409L615.63 -24.9596L616.384 -24.4851L617.556 -23.4523V-23.7035L617.277 -24.4851L617.193 -24.8759L617.053 -25.0992V-25.2387L617.165 -25.4062L617.472 -25.5179L617.751 -25.8528L618.784 -26.4948L619.175 -26.6065V-26.8577H619.007V-27.0531L619.398 -27.2764L619.984 -27.3322L621.213 -27.2764L622.329 -27.3881L622.832 -27.5835L623.25 -27.723L623.557 -27.6393L624.06 -27.2764L624.534 -26.8019L624.73 -26.439L625.009 -25.6295L625.092 -24.9317L625.176 -25.0713L625.372 -25.6854V-25.8528V-26.0482V-26.2436L625.511 -26.3832L625.79 -26.439L626.069 -26.3553L626.349 -26.2436L627.102 -26.104L628.498 -25.5179L629.531 -25.2946L630.061 -25.0713L630.508 -24.3734L632.824 -23.2848L633.801 -23.0057L634.806 -22.894L635.839 -23.0057L636.621 -23.229H636.9L637.039 -23.1452L637.207 -22.9219L637.43 -22.6986L637.709 -22.587H637.765L637.849 -22.6986L637.961 -22.7824H638.128L638.24 -22.7545L638.295 -22.6149L638.379 -22.4753L638.547 -22.3916L639.245 -22.9498L639.552 -23.0615L640.054 -23.1452L641.757 -23.7593L642.315 -24.1222L642.594 -24.2618H642.957L643.236 -24.0105L643.404 -23.7035L643.599 -23.536L643.934 -23.7873L643.794 -23.871L643.599 -24.0943L643.432 -24.2339L644.409 -24.6805L645.302 -25.49L646.167 -25.9645L646.586 -25.6574L646.781 -25.9645ZM736.913 4.71223L736.383 4.6285L736.076 4.37729L736.02 3.95858L736.271 3.37241L736.55 3.23283L736.802 3.5678L737.053 4.09816L737.304 4.57268H737.22L736.997 4.65642H736.941L736.913 4.71223ZM672.099 150.615L671.875 151.285V151.983L672.238 153.099L671.764 152.541L671.652 151.648V150.671L671.568 149.806H671.68L671.708 149.834V149.973L671.819 150.113L671.959 150.42L672.071 150.587L672.099 150.615ZM560.334 204.962L560.389 205.018L560.334 205.102H560.278V204.99H560.334V204.962Z" fill="white" stroke="white" stroke-width="0.25" stroke-miterlimit="10"/>
</g>
<path d="M512.714 167.197L512.769 167.337L512.825 167.476L512.909 167.56L513.049 167.616V167.811L512.881 168.034L512.49 167.727L511.96 167.588L511.43 167.56L510.899 167.616L510.397 167.811L509.42 168.481L509.029 168.649L507.633 169.542L507.438 169.793L503.837 172.277L503.056 172.975H502.693L502.33 172.808L501.827 172.696H500.348L499.957 172.528L499.734 172.863L499.483 172.836L499.176 172.64L498.952 172.528L499.176 172.891L499.259 173.087L499.287 173.338L498.757 172.556L497.892 171.831L496.189 170.882L495.212 170.658L494.458 170.323L493.677 170.351L491.751 170.63L490.941 170.351L490.02 170.016L489.322 170.351L488.262 170.463L487.229 170.1L487.201 170.128L485.917 169.43L484.912 169.235L483.795 169.318L483.433 169.43L483.125 169.653L482.372 170.463H480.892L480.613 170.547L479.999 170.937L479.692 171.077L479.329 171.105L478.771 171.244L478.241 171.719L477.766 171.524L477.347 171.97L477.152 172.11L476.901 172.193L476.426 172.612L476.175 172.696L475.812 172.556L475.561 172.305L475.282 172.138L474.947 172.305L475.086 171.468L475.226 171.049L475.338 170.882L476.259 169.402L476.622 168.593L476.957 167.867L476.733 167.002L477.152 166.583L477.71 166.025L478.045 164.685L477.878 164.182L477.682 163.708L478.073 162.954L478.743 162.201L478.855 161.475L479.273 160.47L479.553 159.13L479.692 158.321L479.776 156.953L479.636 156.255L479.385 155.78L479.078 155.39L479.022 154.999L479.357 153.687L479.469 152.85L479.664 152.096L479.971 151.928L480.669 151.817L480.809 151.091V150.979L480.557 151.175L480.027 151.314L479.441 151.342L479.246 150.812L479.413 149.277L479.72 147.658L479.692 146.653L479.553 145.955L479.162 145.173L478.38 145.034L477.403 144.42L477.515 144.169L477.682 144.057L477.85 143.973L478.045 143.778L479.273 141.126L479.72 138.977L480.278 137.358L480.195 135.711L479.999 133.813L479.776 132.138L479.162 130.938L478.548 130.296L477.794 129.402L476.929 128.677L476.259 128.425L476.622 128.063L477.152 128.286L478.045 129.04L479.134 129.43L479.664 129.709L479.692 130.1L480.669 130.072L483.07 130.714L484.27 130.324L483.544 130.296L482.93 130.156L481.172 129.319L480.976 129.067L480.837 128.649L480.781 128.23L480.837 127.839L480.948 127.56L481.144 127.421V127.197L480.809 127.058L480.585 126.695L480.502 126.276L480.669 125.941L480.278 125.885L479.832 126.834L479.357 127.002V127.197L479.888 127.253L480.139 127.7V128.202L479.943 128.425L479.357 128.397L478.883 128.258L478.045 127.811L477.124 127.476L475.952 127.7L474.891 128.956L475.086 129.095L473.719 129.654L471.402 129.933L470.927 130.128L470.537 130.435L470.09 130.519L469.476 130.351L469.392 130.324L469.308 130.156V129.933L469.364 129.765L469.476 129.682L469.643 129.402L470.341 128.705L470.509 127.728V126.304L469.922 124.908L469.197 123.736L468.862 122.843L469.28 122.592L470.397 122.452L471.43 122.368L471.932 122.675L472.156 123.038H472.323L472.156 122.424L472.518 122.229L473.272 122.005L473.635 121.977V121.782L473.998 121.363L474.389 120.973L475.059 120.442L475.924 119.716L476.008 119.633L476.147 119.521L476.259 119.493V119.298L476.008 118.879L475.728 118.293L475.589 117.651L475.756 117.204L475.198 117.232L474.947 116.73L474.807 116.004L474.612 115.278L475.617 113.129L476.231 112.152L477.068 111.51L477.543 111.398L478.576 111.315L479.022 111.119L479.888 110.477L480.25 110.086L480.474 109.64L479.86 110.114L478.799 110.896L476.733 111.119L476.426 111.398L475.952 112.264L474.807 113.911L473.467 116.562L472.742 117.4L472.491 117.818L472.351 118.321L472.407 118.907L472.435 119.912L472.546 120.638L472.211 121.363L470.983 121.726L469.643 121.977L468.08 121.81L467.634 122.145L467.215 122.675L466.294 122.089L465.233 121.67L464.647 121.559L463.642 121.698L463.14 121.559L463.167 120.945L463.307 120.414L463 119.102V118.432L463.14 118.153L463.447 117.79L464.005 117.204L464.786 114.72L464.731 112.878L464.479 111.733L464.703 111.035L464.814 110.226L465.736 108.523L466.015 107.714L466.517 106.597L466.601 105.425L466.768 104.448L466.433 102.941L466.154 102.326L465.289 101.433L465.121 101.126L465.401 101.042L466.461 101.35L468.22 100.177L468.666 99.7864L469.141 99.7585L469.448 100.093L469.699 100.177L469.978 99.898L469.783 99.4793L469.392 99.1165L469.783 98.4744L470.313 97.8604L470.509 97.5254L470.955 97.2183L471.653 96.7997L471.988 96.2135L472.239 95.711L472.714 94.8457L472.77 94.3154L472.742 93.7292L473.021 92.8918L473.16 91.7194L475.059 86.6951L478.017 77.9582L478.38 77.5116L478.659 77.9303L479.05 78.0978L480.027 78.1535V77.9023L479.636 77.5395L479.273 77.2882L478.855 77.1208L477.766 76.9812L477.347 76.7021L477.124 76.2555L477.068 75.5855L477.375 74.7202L478.101 73.2687L479.692 67.072L480.027 65.118L480.474 63.6945L480.781 61.8522L480.837 61.7685L480.976 61.6568L481.004 62.3267L480.976 62.55L481.451 61.7406L481.786 61.4614L482.121 61.6568H482.288V61.4614L482.232 61.3777L482.121 61.2102L482.065 61.0148L482.121 60.8194L482.372 60.7077L482.511 60.7915L482.595 60.959L482.707 61.0427L482.958 60.959L483.153 60.7077L483.433 60.1774L483.07 59.9541L482.846 59.5912L482.902 59.2563L483.349 59.0888L483.907 59.033L484.326 58.8934L484.717 58.6143L485.079 58.2514L484.689 58.2793L484.075 58.5863L483.572 58.698L483.488 58.7538H483.349L482.791 58.5026L482.623 58.2514L482.428 57.3861L483.349 56.13L483.098 55.46L483.07 55.9625L482.93 56.4091L482.735 56.5208L482.623 56.1021L482.288 56.7441L482.037 57.5535L481.869 58.4189L481.814 59.2004L481.702 59.7308L481.451 60.4565L481.116 61.1265L480.837 61.4614L483.125 50.7706L483.098 49.6262L482.818 47.5048L482.846 46.3882L483.265 45.9416V45.7741L482.372 45.5508L481.925 44.6855L481.59 43.5969L481.144 42.7037L481.283 42.285L481.227 41.9221L481.088 41.5871L480.976 41.1964V40.2194L480.865 39.9123L480.697 39.8286L480.613 39.4936L480.502 39.1587L480.167 38.6004L480.055 38.1259V37.7351L479.999 36.8419L480.25 35.7812L479.971 35.0554L479.943 34.3855L479.832 33.9389L479.776 33.4085L479.469 32.4595L479.357 31.7337L479.19 31.2034L479.162 30.6451L478.966 30.0589L478.938 29.3053L479.022 28.9703L479.553 28.747L481.004 28.5237L481.423 28.3283L481.814 28.0492L482.121 27.7142L479.497 28.5237L478.938 28.5795L478.631 28.5516L478.185 28.2725L477.738 27.2397V26.3186L477.934 24.895L477.766 23.9738L477.878 23.6389L478.045 23.3318L479.748 21.9362L480.53 21.015L480.837 19.8427L481.088 19.6473L481.646 19.3681L482.26 19.1727L482.735 18.8378L482.93 18.5307L483.181 17.8329L483.377 17.5259L483.795 17.2188L484.214 17.1351L485.079 17.1072L485.526 16.9118L486.336 16.3535L486.782 16.186L490.467 15.5719L490.857 15.3766L491.472 14.8183L491.695 14.6787L491.862 14.6229H492.281L492.728 14.4275L493.426 13.925L493.649 14.2321L493.872 14.7066L493.788 16.1023L493.872 16.6047L494.179 16.856L494.542 16.7443L494.961 16.5489L495.463 16.4931L495.91 16.6885L496.273 17.0513L496.468 17.5259L496.412 18.0841L496.161 18.5028L495.798 18.8099L495.1 19.2565L494.402 19.9543L493.481 21.3221L493.258 21.8803L493.202 22.4944L493.481 23.0527L494.347 23.3877L494.514 23.6389L494.57 24.0576L494.458 24.8392V24.895L496.524 25.0066L497.529 24.7275L497.585 24.6996L498.366 23.8901L498.589 23.4993L498.897 23.1923L499.231 23.0527L499.622 23.1085L500.069 23.0806L500.292 22.6898L500.404 22.1316L500.515 21.7687L500.99 21.6012L501.046 22.4665L501.213 23.3877H501.967L502.134 23.1923L502.218 22.9969L502.33 22.8015L502.581 22.7177L503.223 22.7736L504.702 22.4107L505.372 22.0478L505.735 22.1595L506.405 22.634L506.824 22.8294L508.108 22.8852L507.745 23.8901V24.1971L508.136 24.4205L508.555 24.4484L509.057 24.3925L509.559 24.1971L509.922 23.9459L510.034 23.7226L510.062 23.4993L510.118 23.3039L510.285 23.1643H510.481L510.843 23.4156L511.067 23.4435L511.402 23.5551L511.709 23.9738L511.932 24.5321L512.044 25.0346L512.351 24.7554L512.937 24.1134L513.244 23.8901L513.607 23.8343L514.472 23.8622L514.919 23.7784L516.594 23.1923L517.375 22.7177L517.598 22.3828L517.878 21.992L517.933 21.4896L517.766 20.4568L517.822 20.0102L518.017 19.8148L518.38 19.5356L518.799 19.2844L519.134 19.2286L519.887 19.731L520.613 20.3451L521.367 20.708L522.232 20.3172L522.79 19.9264L522.986 20.0381L523.321 20.2055L523.907 20.6522L524.577 20.7917L526.056 20.6522L526.614 20.3172L526.782 19.3681L527.508 19.4798L528.373 20.8476L529.099 21.043L530.801 20.9871L531.611 20.7359L531.918 20.0381L532.504 20.2893L532.811 20.6801L532.923 21.2104L532.727 22.5782L532.923 22.8015L533.342 22.8573L533.956 23.0806L533.676 23.6668L533.09 26.2906L533.007 26.5698L532.811 26.8489L532.672 27.1559L532.755 27.4351L532.923 27.6863L533.034 27.9934L533.09 28.5795L533.202 29.2215L533.537 29.724L534.207 29.9752L534.458 29.9194L534.821 29.724L535.128 29.5007L535.295 29.3053L535.463 29.1657H535.798L537.724 29.5844L538.896 30.0031L539.957 30.701L540.962 31.7617L541.297 32.2362L541.548 32.5432L540.404 34.218L539.789 34.86L539.65 35.195V35.4462L539.706 35.6416V35.8649L538.813 37.3164L538.785 37.5955L538.059 37.6514L537.724 37.7909L537.417 38.0142L537.473 38.0421L537.501 38.2375L537.473 38.4888L537.417 38.6562L537.305 38.6842L537.026 38.6283L536.914 38.6562L536.189 39.8844L535.407 40.666L534.626 41.2801L533.23 41.8663L533.007 42.0337L531.443 42.0617L531.025 42.1454L530.746 42.4524L529.908 43.7085L529.741 44.1831L529.601 44.4343L528.736 45.16L528.429 45.5787L528.345 45.802L528.401 46.5836L528.205 47.1419L527.256 48.5376L526.949 48.8725L526.279 48.9563L524.828 48.8167L524.326 49.0679L524.214 49.6541L523.963 50.0728L524.018 50.4636L524.27 50.8264L524.995 51.6359L525.33 52.1942L525.861 53.4503L526.056 54.1202L526.252 54.3993L526.614 54.4831L526.866 54.6785L526.977 55.0693L526.894 55.488L526.503 55.5996L526.475 56.4091L526.503 56.6045L526.587 56.9395L526.559 57.1069L526.475 57.2744L526.447 57.5815V58.1956L526.503 58.6422L526.782 59.675L526.977 60.7077L527.033 61.266V61.6568L526.866 62.1871L526.307 63.192L526.168 63.6945L526.224 64.2527L526.419 64.5598L526.698 64.8389L526.949 65.2576L527.061 65.8159L527.005 66.1788L526.447 66.9882L526 68.0768L526.14 69.0817L526.698 70.0029L527.508 70.7565L527.089 71.5102L526.866 71.7056L525.833 72.4872L525.693 72.6546L525.61 72.8779L525.582 73.1571V73.4083L525.498 73.5758L525.079 73.8828L524.605 73.9108L524.13 73.8828L523.991 73.9108L523.684 73.9666L522.651 74.6365L522.232 74.8319L522.009 75.111L521.785 75.8368L521.562 76.1996L521.757 76.6463L521.953 77.707L522.232 78.1256L522.511 78.2094L523.153 78.3211L523.404 78.4048L523.656 78.6281L523.991 79.1584L524.521 79.8284L525.47 81.559L525.051 82.2289L524.94 82.5639L524.995 82.8988L524.912 83.178L524.772 83.9316L524.688 84.0712L524.465 84.2387L524.381 84.3783V84.5457L524.465 84.8528V85.0202L524.437 85.2994L524.409 85.8018L524.326 86.1089L523.739 87.0021L523.488 87.1416L522.958 87.365L522.762 87.5324L522.595 87.9511L522.623 88.2861L522.734 88.5652L522.762 88.8165L522.679 89.1235L522.4 89.6259L522.288 89.9051V90.2121L522.344 90.4075L522.372 90.6308L522.092 91.3007L521.757 91.4403L518.24 91.8869L517.487 91.859L516.984 91.524L516.566 91.6636L515.617 91.6357L515.17 91.7194L514.779 91.8869L514.444 91.9986L509.308 91.7474L509.336 91.8311L509.531 92.2498L510.285 94.3991L510.732 94.7899L511.43 95.7389L511.82 96.1297L512.63 96.5485L512.853 96.7997L513.076 97.4696L513.439 97.7766L513.942 98.0279L514.947 98.2791L515.114 98.5861V99.256L515.002 99.9539L514.807 100.4L514.668 100.847L514.695 101.517L514.807 102.159L514.975 102.522L515.421 102.885L516.621 104.336L516.286 104.895L516.259 105.537L516.454 106.151L516.789 106.653L517.375 106.96L518.017 107.155L518.603 107.407L518.882 107.993L518.827 108.3L518.575 108.914L518.603 109.165L518.855 109.416L519.189 109.584L519.552 109.64L519.859 109.528L520.418 109.193L521.06 109.109L521.674 109.277L522.232 109.668L522.595 110.031L522.93 110.589L523.097 111.175L522.93 111.705L523.209 111.929L523.237 112.208L523.097 112.515L522.874 112.822L522.065 114.385L521.534 115.111L521.032 115.557L521.367 116.144L521.227 116.618L521.255 117.065L521.06 117.176L520.781 117.428L520.473 117.707L520.111 117.902L518.994 118.153L518.771 118.349L518.631 118.628L518.324 119.019L517.905 119.354L517.543 119.493L517.208 119.772L516.147 120.638L516.119 120.749L515.896 121.168L515.812 121.391L515.672 122.424L515.617 123.122V123.429L515.672 123.652L515.784 123.848L515.924 123.959L516.063 124.043L516.147 124.294L516.007 124.713L515.03 126.164L514.584 127.7L514.36 128.035L514.64 128.453L514.612 128.788L514.36 129.123L514.026 129.486L514.36 129.654L515.03 130.156L517.571 133.394L517.654 133.561L517.822 133.98L517.905 134.176L518.073 134.343L518.492 134.65L518.603 134.762L519.58 137.218L519.804 137.441L520.139 137.748H520.501L521.088 137.637L521.674 137.358L521.981 136.967L522.092 136.995L522.176 137.023L522.79 136.827L523.46 136.771L523.767 136.995L523.851 137.051L523.6 137.916L523.432 138.363L523.097 139.367L522.651 140.289L522.455 141.21L522.232 141.573L522.037 142.298L521.423 142.382L520.083 141.824L519.664 141.796L519.441 142.019L519.217 142.633L518.966 142.968L518.799 143.08L518.464 143.164L518.185 143.331L517.878 143.303L517.571 143.192L517.263 143.164L517.012 143.359L516.259 143.499L516.091 143.694L516.119 143.917L516.175 144.224L516.203 144.531L516.063 145.062L515.533 146.457L515.282 147.49L514.612 148.663L512.434 150.505L512.016 151.119L511.681 152.012L511.485 153.464L511.346 153.91L511.178 154.162L510.564 154.831L510.341 154.971L510.397 155.166L510.369 155.306L510.313 155.445L510.285 155.585L510.034 155.892L509.95 156.004L509.978 156.311L510.006 156.339H510.118L510.229 156.757L510.257 156.953L510.313 157.148V157.176L510.508 157.483L510.704 157.679L511.123 158.014L511.234 158.181L511.402 158.739L511.569 159.465L511.625 160.135L511.569 160.47L511.988 161.391L512.155 163.792L512.407 164.769L512.239 165.215L512.351 165.885L512.714 167.197Z" fill="white" stroke="white" stroke-width="0.25" stroke-miterlimit="10"/>
<path d="M499.79 173.505L501.046 173.701L501.52 173.505L502.079 172.919L502.135 173.003L502.162 173.115L502.246 173.338L502.107 173.422L502.079 173.505L501.632 173.812L501.046 173.952L500.376 173.924L499.79 173.729V173.505Z" fill="white" stroke="white" stroke-width="0.25" stroke-miterlimit="10"/>
<path d="M473.914 116.675L474.054 116.591V116.787L473.886 117.233L473.579 117.736L473.132 118.182L472.993 118.127L473.188 117.596L473.412 117.15L473.691 116.843L473.83 116.731L473.914 116.675Z" fill="white" stroke="white" stroke-width="0.25" stroke-miterlimit="10"/>
</g>
<defs>
<clipPath id="clip0_206_9425">
<rect width="660" height="190" rx="16" fill="white"/>
</clipPath>
</defs>
</svg>
