<svg width="305" height="172" viewBox="0 0 305 172" fill="none" xmlns="http://www.w3.org/2000/svg">
<g clip-path="url(#clip0_2482_304845)">
<path d="M144.54 95.95C138.5 101.59 119.78 117.1 95.9301 123.52C89.9201 125.14 83.7702 121.46 82.4102 115.39C81.5002 111.32 83.8401 107.23 87.8101 105.95C89.0701 105.54 90.3001 105.12 91.4901 104.69C92.0901 101.65 94.3801 95.81 103.1 99.79C116.9 93 125.02 85.25 129.78 80.75C129.78 80.74 144.11 94.84 144.53 95.94L144.54 95.95Z" fill="url(#paint0_linear_2482_304845)"/>
<path d="M154.9 134.66C153.1 142.86 152.15 150.89 151.29 160.98C150.62 168.89 142.31 173.74 135.09 170.43L134.84 170.32C130.51 168.34 127.83 164.02 127.96 159.33C128.22 149.99 129.68 139.05 132.57 129.16C132.63 128.95 132.85 128.82 133.07 128.88L154.6 134.17C154.82 134.22 154.95 134.44 154.9 134.66Z" fill="#4F6FE7"/>
<path d="M160.56 134.85C162.46 143.03 163.51 151.05 164.49 161.12C165.26 169.02 173.63 173.77 180.8 170.37L181.05 170.25C185.35 168.21 187.98 163.87 187.79 159.18C187.41 149.84 185.82 138.92 182.81 129.07C182.75 128.86 182.52 128.74 182.31 128.79L160.85 134.35C160.63 134.41 160.5 134.62 160.56 134.84V134.85Z" fill="#4F6FE7"/>
<path d="M130.72 78.9902C124.43 100.42 115.28 127.08 134.68 133.63C149.5 138.63 168.74 137.1 181.33 132.27C193.92 127.44 192.47 112.95 188.92 97.4002C185.37 81.8502 180.2 65.6802 180.2 65.6802L130.72 78.9802V78.9902Z" fill="url(#paint1_linear_2482_304845)"/>
<path d="M235.65 81.59C233.53 76.01 230.35 73.13 224.32 75.98C220.99 70.91 215.31 72.49 213.8 78.43C201.52 82.24 190.75 80.04 182.3 76.16C182.29 76.16 173.99 100.75 174.21 101.91C196.04 108.4 224.35 96.65 224.35 96.65C232.61 94.07 237.75 87.13 235.65 81.59Z" fill="#698FFF"/>
<path d="M128.84 81.94C128.84 81.94 138.34 113.61 186.65 77.98L128.84 81.94Z" fill="#4677F7"/>
<path d="M168.13 13.2C158.94 13.41 149.58 14.25 140.68 15.76C119.36 19.37 104.82 38.6 108.36 58.7299C108.39 58.9199 108.43 59.1 108.46 59.29C110.8 72.1 122.93 81.16 136.69 80.6C148.54 80.1199 161.69 79.13 173.94 77.33C188.48 75.19 198.9 62.7999 197.82 48.9599C197.46 44.3099 196.9 39.61 196.15 35.08C194 22.14 182 12.89 168.13 13.21V13.2Z" fill="#698FFF"/>
<path d="M125.2 55.1469C127.161 55.0057 128.598 52.77 128.41 50.1534C128.221 47.5369 126.479 45.5302 124.518 45.6715C122.557 45.8127 121.12 48.0484 121.308 50.665C121.497 53.2815 123.239 55.2882 125.2 55.1469Z" fill="#141226"/>
<path d="M181.664 47.8991C183.625 47.7579 185.062 45.5222 184.873 42.9056C184.685 40.2891 182.942 38.2824 180.981 38.4237C179.02 38.5649 177.583 40.8006 177.771 43.4172C177.96 46.0337 179.702 48.0404 181.664 47.8991Z" fill="#141226"/>
<path d="M163.84 36.2202C155.73 36.2002 147.15 37.1102 140.08 39.3202C135.61 40.7202 132.53 44.6602 132.59 49.0902C132.62 51.1502 132.75 53.2302 133.03 55.3202C134.06 63.0302 141.39 68.4802 149.62 67.9002C153.51 67.6302 157.61 67.2302 161.59 66.6602C170.23 65.4402 176.35 57.8202 175.09 49.6802C174.77 47.6302 174.37 45.6002 173.88 43.6702C172.78 39.2802 168.62 36.2202 163.84 36.2002V36.2202Z" fill="#B6CBFF"/>
<path d="M150.084 58.0734L143.958 58.8104C142.823 58.9469 142.014 59.9778 142.15 61.1128C142.287 62.2478 143.317 63.0573 144.453 62.9207L150.578 62.1838C151.713 62.0472 152.523 61.0164 152.386 59.8813C152.25 58.7463 151.219 57.9368 150.084 58.0734Z" fill="#698FFF"/>
<path d="M160.147 61.1193L166.282 60.4647C167.419 60.3434 168.242 59.3236 168.121 58.1868C168 57.05 166.98 56.2268 165.843 56.3481L159.708 57.0027C158.571 57.124 157.748 58.1438 157.869 59.2806C157.991 60.4174 159.011 61.2406 160.147 61.1193Z" fill="#698FFF"/>
<path d="M149.98 5.9201C122.74 8.9701 102.35 30.7201 104.44 54.5001C105.52 66.8001 112.4 77.2201 122.55 84.0101C124 84.9801 125.75 85.3701 127.48 85.1701L185.87 78.6301C187.57 78.4401 189.16 77.6801 190.37 76.4701C199.19 67.5601 204.15 55.7801 203.07 43.4501C200.98 19.6701 177.21 2.8601 149.97 5.9101L149.98 5.9201ZM174.04 72.2801L134.42 76.7201C129.98 77.2201 125.54 75.7601 122.26 72.7401L113.69 64.8401C110.58 61.9801 109.61 57.4801 111.26 53.5901L118.63 36.2001C120.9 30.8501 126.71 27.9401 132.35 29.3401L150.57 33.8501C152.15 34.2401 153.82 34.0401 155.26 33.2901L170.31 25.4201C175.64 22.6301 182.21 24.2901 185.58 29.2801L195.06 43.3301C197.62 47.1201 197.28 52.1601 194.24 55.5801L183.85 67.2401C181.32 70.0801 177.83 71.8801 174.06 72.3001L174.04 72.2801Z" fill="#DCE4FF"/>
<path fill-rule="evenodd" clip-rule="evenodd" d="M142.29 8.29007L143.83 21.7501C143.93 22.6001 144.7 23.2101 145.55 23.1101L155.98 21.9201C156.83 21.8201 157.44 21.0501 157.34 20.2001L155.8 6.74007C155.74 6.21007 155.49 5.72007 155.09 5.37007L149.65 0.480071C148.82 -0.269929 147.51 -0.119929 146.87 0.800071L142.67 6.80007C142.36 7.24007 142.23 7.77007 142.29 8.30007V8.29007Z" fill="#FF7700"/>
<path fill-rule="evenodd" clip-rule="evenodd" d="M148.33 14.8602L144.23 22.6202C144.55 22.9702 145.03 23.1702 145.54 23.1102L155.97 21.9202C156.48 21.8602 156.9 21.5602 157.14 21.1402L151.4 14.5102C150.54 13.5202 148.95 13.7002 148.33 14.8602Z" fill="#FF871D"/>
<path d="M136.47 68.3002C133.5 67.5802 131.95 65.9002 130.39 64.6402C128.83 63.3802 127.16 63.8802 126.59 64.9002C126.02 65.9202 126.13 68.7002 128.37 70.9402C130.62 73.1702 135.12 72.5402 136.91 71.4202C138.7 70.3002 138.39 68.7602 136.47 68.2902V68.3002Z" fill="#D01582"/>
<path d="M126.31 66.5C126.36 67.78 126.91 69.48 128.38 70.94C130.61 73.16 135.06 72.55 136.88 71.45C134.85 68.83 131.8 67.23 126.31 66.51V66.5Z" fill="#FF78B8"/>
<path d="M209.6 35.5202L200.8 35.5802L202.39 20.3902C202.53 19.0102 203.7 17.9502 205.09 17.9402C206.48 17.9402 207.66 18.9702 207.82 20.3502L209.61 35.5202H209.6Z" fill="#B5C3F3"/>
<path d="M205.13 24.7903C203.84 24.7903 202.68 25.3103 201.79 26.1103L200.8 35.5803L209.6 35.5203L208.49 26.0603C207.59 25.2703 206.42 24.7803 205.13 24.7803V24.7903Z" fill="#B5C3F3"/>
<path d="M208.361 33.4634L210.021 33.4527C212.341 33.4377 214.243 35.3154 214.258 37.6354L214.349 51.7151C214.364 54.035 212.487 55.9372 210.167 55.9522L208.507 55.9629L208.361 33.4634Z" fill="#FF871D"/>
<path d="M210.236 34.1014C210.218 31.3124 207.942 29.0661 205.153 29.0841C202.364 29.1021 200.118 31.3776 200.136 34.1666L200.273 55.3662C200.291 58.1551 202.567 60.4014 205.356 60.3834C208.145 60.3654 210.391 58.0899 210.373 55.3009L210.236 34.1014Z" fill="#DCE4FF"/>
<path d="M96.3202 48.3702L104.91 46.4502L99.9602 32.0002C99.5102 30.6802 98.1402 29.9202 96.7802 30.2202C95.4202 30.5202 94.5102 31.8002 94.6602 33.1802L96.3202 48.3602V48.3702Z" fill="#B5C3F3"/>
<path d="M98.27 36.9101C99.53 36.6301 100.78 36.8601 101.82 37.4501L104.91 46.4601L96.32 48.3801L95.29 38.9201C95.99 37.9501 97.02 37.2101 98.28 36.9201L98.27 36.9101Z" fill="#B5C3F3"/>
<path d="M101.949 68.0376L100.329 68.3989C98.0646 68.9038 95.8086 67.4704 95.3037 65.206L92.2394 51.4635C91.7345 49.1991 93.1679 46.9431 95.4323 46.4382L97.0525 46.0769L101.949 68.0376Z" fill="#FF871D"/>
<path d="M99.9815 67.8072C100.589 70.5294 103.287 72.2441 106.01 71.6371C108.732 71.0301 110.446 68.3313 109.839 65.6091L105.226 44.9173C104.619 42.1951 101.92 40.4804 99.1976 41.0874C96.4754 41.6943 94.7607 44.3932 95.3677 47.1154L99.9815 67.8072Z" fill="#DCE4FF"/>
<path d="M208.19 141.67C204.59 140.68 199.03 135.16 195.39 131.19C193.6 129.23 194.47 126.07 197.01 125.3C202.17 123.74 209.76 121.82 213.37 122.81C219.11 124.38 222.61 129.88 221.18 135.09C219.75 140.3 213.94 143.25 208.2 141.67H208.19Z" fill="#698FFF"/>
<path d="M296.963 33.5017C291.508 13.142 270.581 1.05962 250.221 6.51499C229.861 11.9704 217.779 32.8976 223.234 53.2574C228.69 73.6171 249.617 85.6995 269.977 80.2441C290.336 74.7887 302.419 53.8615 296.963 33.5017Z" fill="black"/>
<path d="M275.62 48.29C277.85 47.06 279.36 44.69 279.36 41.97C279.36 37.99 276.13 34.76 272.15 34.76H270.11C271.85 25.49 271.65 18.32 269.4 17.75C267 17.14 263.06 24.23 260.06 34.17C260.01 34.33 259.79 34.32 259.75 34.17C257.14 24.2 253.51 17.04 251.09 17.56C248.8 18.05 248.33 25.32 249.75 34.77H248.07C244.09 34.77 240.86 38 240.86 41.98C240.86 44.7 242.37 47.07 244.6 48.3C241.44 49.1 239.1 51.98 239.16 55.4C239.22 59.37 242.6 62.49 246.57 62.49H273.68C277.65 62.49 281.02 59.37 281.09 55.4C281.14 51.98 278.81 49.1 275.65 48.3L275.62 48.29Z" fill="#E8459C"/>
<path d="M257.57 40.2599C256.39 39.0799 254.2 39.3699 252.63 40.8799C252.63 40.8799 252.58 40.9299 252.55 40.9499C252.52 40.9699 252.5 40.9999 252.48 41.0299L252.09 41.4199L251.55 40.8799C249.98 39.3699 247.78 39.0899 246.61 40.2599C245.43 41.4399 245.72 43.6299 247.23 45.1999C247.23 45.1999 247.28 45.2499 247.3 45.2799C247.32 45.3099 247.35 45.3299 247.38 45.3499L247.77 45.7399L250.26 48.2299C251.27 49.2399 252.91 49.2399 253.92 48.2299L256.41 45.7399L256.95 45.1999C258.46 43.6299 258.74 41.4299 257.57 40.2599Z" fill="#F3DB53"/>
<path d="M273.59 40.2599C272.41 39.0799 270.22 39.3699 268.65 40.8799C268.65 40.8799 268.6 40.9299 268.57 40.9499C268.54 40.9699 268.52 40.9999 268.5 41.0299L268.11 41.4199L267.57 40.8799C266 39.3699 263.8 39.0899 262.63 40.2599C261.45 41.4399 261.74 43.6299 263.25 45.1999C263.25 45.1999 263.3 45.2499 263.32 45.2799C263.34 45.3099 263.37 45.3299 263.4 45.3499L263.79 45.7399L266.28 48.2299C267.29 49.2399 268.93 49.2399 269.94 48.2299L272.43 45.7399L272.97 45.1999C274.48 43.6299 274.76 41.4299 273.59 40.2599Z" fill="#F3DB53"/>
<path d="M255.98 53.2201C255.17 52.9801 254.4 53.7501 254.67 54.5501C255.43 56.8301 257.57 58.4701 260.1 58.4701C262.63 58.4701 264.78 56.8301 265.53 54.5501C265.8 53.7501 265.03 52.9801 264.22 53.2201C261.53 54.0201 258.67 54.0201 255.98 53.2201Z" fill="#25272A"/>
<path d="M25.8201 37.5101C23.2501 35.8601 21.5201 33.1701 21.0701 30.1501L20.3001 25.0101C20.2601 24.7601 20.0401 24.5701 19.7901 24.5701C19.5301 24.5701 19.3201 24.7601 19.2801 25.0101L18.5101 30.1501C18.0601 33.1701 16.3301 35.8501 13.7601 37.5101L13.0901 37.9401C12.9401 38.0401 12.8501 38.2001 12.8501 38.3701V38.4001C12.8501 38.5801 12.9401 38.7401 13.0901 38.8301L13.7601 39.2601C16.3301 40.9101 18.0601 43.6001 18.5101 46.6201L19.2801 51.7601C19.3201 52.0101 19.5401 52.2001 19.7901 52.2001C20.0501 52.2001 20.2601 52.0101 20.3001 51.7601L21.0701 46.6201C21.5201 43.6001 23.2501 40.9201 25.8201 39.2601L26.4901 38.8301C26.6401 38.7301 26.7301 38.5701 26.7301 38.4001V38.3701C26.7301 38.1901 26.6401 38.0301 26.4901 37.9401L25.8201 37.5101Z" fill="#E54599"/>
<path d="M290.07 94.5101C287.5 92.8601 285.77 90.1701 285.32 87.1501L284.55 82.0101C284.51 81.7601 284.29 81.5701 284.04 81.5701C283.78 81.5701 283.57 81.7601 283.53 82.0101L282.76 87.1501C282.31 90.1701 280.58 92.8501 278.01 94.5101L277.34 94.9401C277.19 95.0401 277.1 95.2001 277.1 95.3701V95.4001C277.1 95.5801 277.19 95.7401 277.34 95.8301L278.01 96.2601C280.58 97.9101 282.31 100.6 282.76 103.62L283.53 108.76C283.57 109.01 283.79 109.2 284.04 109.2C284.3 109.2 284.51 109.01 284.55 108.76L285.32 103.62C285.77 100.6 287.5 97.9201 290.07 96.2601L290.74 95.8301C290.89 95.7301 290.98 95.5701 290.98 95.4001V95.3701C290.98 95.1901 290.89 95.0301 290.74 94.9401L290.07 94.5101Z" fill="#53EC81"/>
<path d="M304.32 76.6801C302.47 75.4901 301.23 73.5601 300.9 71.3901L300.35 67.6901C300.32 67.5101 300.17 67.3701 299.98 67.3701C299.8 67.3701 299.64 67.5001 299.61 67.6901L299.06 71.3901C298.73 73.5601 297.49 75.4901 295.64 76.6801L295.16 76.9901C295.05 77.0601 294.99 77.1801 294.99 77.3001V77.3201C294.99 77.4501 295.05 77.5601 295.16 77.6301L295.64 77.9401C297.49 79.1301 298.73 81.0601 299.06 83.2301L299.61 86.9301C299.64 87.1101 299.79 87.2501 299.98 87.2501C300.16 87.2501 300.32 87.1201 300.35 86.9301L300.9 83.2301C301.23 81.0601 302.47 79.1301 304.32 77.9401L304.8 77.6301C304.91 77.5601 304.97 77.4401 304.97 77.3201V77.3001C304.97 77.1701 304.91 77.0601 304.8 76.9901L304.32 76.6801Z" fill="#86D3FF"/>
<path d="M9.32023 58.6801C7.47023 57.4901 6.23023 55.5601 5.90023 53.3901L5.35023 49.6901C5.32023 49.5101 5.17023 49.3701 4.98023 49.3701C4.80023 49.3701 4.64023 49.5001 4.61023 49.6901L4.06023 53.3901C3.73023 55.5601 2.49023 57.4901 0.640234 58.6801L0.160234 58.9901C0.0502344 59.0601 -0.00976562 59.1801 -0.00976562 59.3001V59.3201C-0.00976562 59.4501 0.0502344 59.5601 0.160234 59.6301L0.640234 59.9401C2.49023 61.1301 3.73023 63.0601 4.06023 65.2301L4.61023 68.9301C4.64023 69.1101 4.79023 69.2501 4.98023 69.2501C5.16023 69.2501 5.32023 69.1201 5.35023 68.9301L5.90023 65.2301C6.23023 63.0601 7.47023 61.1301 9.32023 59.9401L9.80023 59.6301C9.91023 59.5601 9.97023 59.4401 9.97023 59.3201V59.3001C9.97023 59.1701 9.91023 59.0601 9.80023 58.9901L9.32023 58.6801Z" fill="#FFE15C"/>
<path d="M89.646 71.9375C84.1906 51.5778 63.2634 39.4954 42.9036 44.9508C22.5439 50.4062 10.4615 71.3334 15.9169 91.6932C21.3723 112.053 42.2995 124.135 62.6593 118.68C83.019 113.225 95.1014 92.2973 89.646 71.9375Z" fill="black"/>
<path d="M69.8401 95.8099C68.2601 97.0199 66.2901 97.7599 64.1401 97.7599H41.4201C39.2701 97.7599 37.3001 97.0199 35.7201 95.8099C32.9801 93.6999 31.7801 90.1599 32.3601 86.7599L33.7501 78.6399C38.5801 83.4999 45.5001 86.5399 53.2101 86.5399C60.9201 86.5399 67.1601 83.7899 71.9401 79.3299L73.2101 86.7599C73.7901 90.1499 72.5701 93.6999 69.8401 95.8099Z" fill="#A9F9E6"/>
<path d="M71.94 79.3299C67.16 83.7899 60.53 86.5399 53.21 86.5399C45.5 86.5399 38.58 83.4999 33.75 78.6399L34.81 72.4899C35.46 68.6599 38.77 65.8699 42.66 65.8699C44.42 65.8699 46.01 66.5699 47.16 67.7299C48.32 68.8799 49.02 70.4699 49.02 72.2299H56.57C56.57 70.4699 57.29 68.8799 58.43 67.7299C59.58 66.5699 61.17 65.8699 62.93 65.8699C64.87 65.8699 66.67 66.5699 68.07 67.7399C69.46 68.9199 70.45 70.5699 70.78 72.4899L71.95 79.3399L71.94 79.3299Z" fill="#7DE3CB"/>
<path d="M50.9801 82.3599C50.6001 82.3599 50.2501 82.1199 50.1201 81.7499L49.3501 79.5199C49.1901 79.0499 49.4401 78.5299 49.9101 78.3599C50.3801 78.1999 50.9001 78.4499 51.0701 78.9199L51.8401 81.1499C52.0001 81.6199 51.7501 82.1399 51.2801 82.3099C51.1801 82.3399 51.0801 82.3599 50.9801 82.3599Z" fill="#23272A"/>
<path d="M54.5901 82.3599C54.4901 82.3599 54.3901 82.3399 54.2901 82.3099C53.8101 82.1399 53.5601 81.6299 53.7301 81.1499L54.5001 78.9199C54.6701 78.4399 55.1901 78.1999 55.6601 78.3599C56.1401 78.5299 56.3901 79.0399 56.2201 79.5199L55.4501 81.7499C55.3201 82.1299 54.9701 82.3599 54.5901 82.3599Z" fill="#23272A"/>
<path d="M43.8097 73.5698C43.3097 73.5698 42.8997 73.1598 42.8997 72.6598C42.8997 71.4498 42.2697 70.6098 41.7097 70.6098C41.1497 70.6098 40.5197 71.4498 40.5197 72.6598C40.5197 73.1598 40.1097 73.5698 39.6097 73.5698C39.1097 73.5698 38.6997 73.1598 38.6997 72.6598C38.6997 70.4898 40.0197 68.7898 41.7097 68.7898C43.3997 68.7898 44.7197 70.4898 44.7197 72.6598C44.7197 73.1598 44.3097 73.5698 43.8097 73.5698Z" fill="#23272A"/>
<path d="M65.9601 73.5698C65.4601 73.5698 65.0501 73.1598 65.0501 72.6598C65.0501 71.4498 64.4201 70.6098 63.8601 70.6098C63.3001 70.6098 62.6701 71.4498 62.6701 72.6598C62.6701 73.1598 62.2601 73.5698 61.7601 73.5698C61.2601 73.5698 60.8501 73.1598 60.8501 72.6598C60.8501 70.4898 62.1701 68.7898 63.8601 68.7898C65.5501 68.7898 66.8701 70.4898 66.8701 72.6598C66.8701 73.1598 66.4601 73.5698 65.9601 73.5698Z" fill="#23272A"/>
<path d="M53.21 87.4499C45.59 87.4499 38.26 84.4699 33.11 79.2799C32.75 78.9199 32.76 78.3499 33.11 77.9899C33.47 77.6299 34.04 77.6399 34.4 77.9899C39.22 82.8399 46.07 85.6199 53.21 85.6199C60.35 85.6199 66.51 83.1499 71.32 78.6599C71.68 78.3199 72.26 78.3399 72.6 78.6999C72.94 79.0599 72.92 79.6399 72.56 79.9799C67.41 84.7899 60.54 87.4299 53.21 87.4299V87.4499Z" fill="#23272A"/>
<path d="M71.18 84.11C74.0629 84.11 76.4 82.346 76.4 80.17C76.4 77.994 74.0629 76.23 71.18 76.23C68.297 76.23 65.96 77.994 65.96 80.17C65.96 82.346 68.297 84.11 71.18 84.11Z" fill="#E8459C"/>
<path d="M34.3899 84.11C37.2728 84.11 39.6099 82.346 39.6099 80.17C39.6099 77.994 37.2728 76.23 34.3899 76.23C31.507 76.23 29.1699 77.994 29.1699 80.17C29.1699 82.346 31.507 84.11 34.3899 84.11Z" fill="#E8459C"/>
</g>
<defs>
<linearGradient id="paint0_linear_2482_304845" x1="150.279" y1="90.896" x2="90.7787" y2="108.793" gradientUnits="userSpaceOnUse">
<stop stop-color="#4F6FE7"/>
<stop offset="0.79" stop-color="#698FFF"/>
</linearGradient>
<linearGradient id="paint1_linear_2482_304845" x1="157.69" y1="70.1402" x2="156.98" y2="132.86" gradientUnits="userSpaceOnUse">
<stop offset="0.52" stop-color="#698FFF"/>
<stop offset="0.83" stop-color="#597BF0"/>
<stop offset="1" stop-color="#4F6FE7"/>
</linearGradient>
<clipPath id="clip0_2482_304845">
<rect width="304.97" height="171.48" fill="white"/>
</clipPath>
</defs>
</svg>
