<svg xmlns="http://www.w3.org/2000/svg" width="32" height="32" viewBox="0 0 32 32"><title>hypesquad-event-attendee</title><path d="M31.43,8.79,18.77,17.1a1.47,1.47,0,0,0-.51.57l-1.93,3.87a.36.36,0,0,1-.66,0l-1.93-3.87a1.47,1.47,0,0,0-.51-.57L.57,8.79A.37.37,0,0,0,0,9.27L5.29,19.56A.38.38,0,0,1,5,20.1H1.82a.37.37,0,0,0-.22.67L15.78,30.93a.39.39,0,0,0,.44,0L30.4,20.77a.37.37,0,0,0-.22-.67H27a.38.38,0,0,1-.33-.54L32,9.27A.37.37,0,0,0,31.43,8.79Z" fill="#fbb848"/><path d="M16.28,1.17l1.3,2.65a.33.33,0,0,0,.23.17l2.93.42a.31.31,0,0,1,.17.53L18.79,7a.33.33,0,0,0-.09.27l.5,2.91a.3.3,0,0,1-.44.32L16.14,9.13a.28.28,0,0,0-.28,0L13.24,10.5a.3.3,0,0,1-.44-.32l.5-2.91A.33.33,0,0,0,13.21,7L11.09,4.94a.31.31,0,0,1,.17-.53L14.19,4a.33.33,0,0,0,.23-.17l1.3-2.65A.31.31,0,0,1,16.28,1.17Z" fill="#fbb848"/></svg>
