<svg width="223" height="126" viewBox="0 0 223 126" fill="none" xmlns="http://www.w3.org/2000/svg">
<path opacity="0.6" fill-rule="evenodd" clip-rule="evenodd" d="M113.876 7.8335H154.169C175.748 7.8335 193.242 25.1309 193.242 46.4672C193.242 67.8047 175.748 85.1021 154.169 85.1021H141.93C138.039 85.1021 134.885 88.2211 134.885 92.0686C134.885 95.9161 138.039 99.0351 141.93 99.0351H187.449C194.933 99.0351 201 105.034 201 112.434C201 119.835 194.933 125.834 187.449 125.834H34.114C15.2733 125.834 0 110.732 0 92.1027C0 73.4748 15.2733 58.373 34.114 58.373H62.7619C76.8765 58.373 88.3187 47.0593 88.3187 33.1033C88.3187 19.1461 99.7609 7.8335 113.876 7.8335Z" fill="#E7EAEF"/>
<path d="M131.417 47.75V35.4167C131.417 15.8879 115.522 0 95.9998 0C76.464 0 60.5832 15.8879 60.5832 35.4167V47.75C52.7703 47.75 46.4165 54.0967 46.4165 61.9167V111.5C46.4165 119.313 52.7703 125.667 60.5832 125.667H131.417C139.229 125.667 145.583 119.313 145.583 111.5V61.9167C145.583 54.0967 139.229 47.75 131.417 47.75ZM117.25 47.75H74.7498V35.4167C74.7498 23.7008 84.284 14.1667 95.9998 14.1667C107.716 14.1667 117.25 23.7008 117.25 35.4167V47.75Z" fill="#B9BBBE"/>
<path d="M82.9482 74.8335L108.405 100.48" stroke="white" stroke-width="10" stroke-linecap="round"/>
<path d="M82.8535 100.385L108.5 74.9283" stroke="white" stroke-width="10" stroke-linecap="round"/>
<path d="M160.949 6.24258C160.081 6.24258 159.491 5.65239 159.491 4.78446V3.29162C159.491 2.42369 160.081 1.8335 160.949 1.8335C161.817 1.8335 162.407 2.42369 162.407 3.29162V4.74975C162.407 5.65239 161.817 6.24258 160.949 6.24258Z" fill="#D3DBE4"/>
<path d="M160.949 17.8729C160.081 17.8729 159.491 17.2827 159.491 16.4148V14.9567C159.491 14.0887 160.081 13.4985 160.949 13.4985C161.817 13.4985 162.407 14.0887 162.407 14.9567V16.4148C162.407 17.3174 161.817 17.8729 160.949 17.8729Z" fill="#D3DBE4"/>
<path d="M164.594 9.88806C164.594 9.02013 165.184 8.42993 166.052 8.42993H167.51C168.378 8.42993 168.968 9.02013 168.968 9.88806C168.968 10.756 168.378 11.3462 167.51 11.3462H166.052C165.323 11.3115 164.594 10.756 164.594 9.88806Z" fill="#D3DBE4"/>
<path d="M152.93 9.88806C152.93 9.02013 153.52 8.42993 154.388 8.42993H155.846C156.714 8.42993 157.304 9.02013 157.304 9.88806C157.304 10.756 156.714 11.3462 155.846 11.3462H154.388C153.659 11.3115 152.93 10.756 152.93 9.88806Z" fill="#D3DBE4"/>
<path d="M15.8707 30.2102C14.8379 30.2102 14.1356 29.508 14.1356 28.4752V26.7402C14.1356 25.7074 14.8379 25.0051 15.8707 25.0051C16.9034 25.0051 17.6057 25.7074 17.6057 26.7402V28.4752C17.6057 29.5493 16.9034 30.2102 15.8707 30.2102Z" fill="#D3DBE4"/>
<path d="M15.8707 44.0909C14.8379 44.0909 14.1356 43.3886 14.1356 42.3558V40.6208C14.1356 39.588 14.8379 38.8857 15.8707 38.8857C16.9034 38.8857 17.6057 39.588 17.6057 40.6208V42.3558C17.6057 43.4299 16.9034 44.0909 15.8707 44.0909Z" fill="#D3DBE4"/>
<path d="M20.2079 34.5478C20.2079 33.515 20.9102 32.8127 21.9429 32.8127H23.678C24.7107 32.8127 25.413 33.515 25.413 34.5478C25.413 35.5806 24.7107 36.2828 23.678 36.2828H21.9429C21.0754 36.2828 20.2079 35.6219 20.2079 34.5478Z" fill="#D3DBE4"/>
<path d="M6.32764 34.5478C6.32764 33.515 7.02992 32.8127 8.06268 32.8127H9.79772C10.8305 32.8127 11.5328 33.515 11.5328 34.5478C11.5328 35.5806 10.8305 36.2828 9.79772 36.2828H8.06268C7.19516 36.2828 6.32764 35.6219 6.32764 34.5478Z" fill="#D3DBE4"/>
<path opacity="0.5" d="M215.99 63.9659L214.233 58.6976C213.69 57.4433 212.143 57.6523 211.767 58.6976L210.01 63.9659C210.01 64.3004 209.676 64.6767 209.132 64.844L203.864 66.6001C202.61 67.1436 202.819 68.6906 203.864 69.0669L209.132 70.823C209.467 70.823 209.843 71.1575 210.01 71.7011L211.767 76.9694C212.31 78.2237 213.857 78.0146 214.233 76.9694L215.99 71.7011C215.99 71.3666 216.324 70.9903 216.868 70.823L222.136 69.0669C223.39 68.5234 223.181 66.9764 222.136 66.6001L216.868 64.844C216.324 64.6349 216.157 64.4677 215.99 63.9659Z" fill="#9099A4"/>
</svg>
