<svg width="660" height="464" viewBox="0 0 660 464" fill="none" xmlns="http://www.w3.org/2000/svg">
<mask id="mask0_6264_65668" style="mask-type:alpha" maskUnits="userSpaceOnUse" x="0" y="0" width="660" height="464">
<path d="M652 0H8C3.58172 0 0 3.58171 0 7.99999V456C0 460.418 3.58171 464 7.99999 464H652C656.418 464 660 460.418 660 456V8C660 3.58172 656.418 0 652 0Z" fill="url(#paint0_linear_6264_65668)"/>
</mask>
<g mask="url(#mask0_6264_65668)">
<path d="M652 0H8C3.58172 0 0 3.58171 0 7.99999V456C0 460.418 3.58171 464 7.99999 464H652C656.418 464 660 460.418 660 456V8C660 3.58172 656.418 0 652 0Z" fill="url(#paint1_linear_6264_65668)"/>
<path d="M337.94 404.25H549.06C555.542 404.25 561.758 406.825 566.342 411.408C570.925 415.992 573.5 422.208 573.5 428.69V464H313.5V428.69C313.5 422.208 316.075 415.992 320.658 411.408C325.242 406.825 331.458 404.25 337.94 404.25Z" fill="#2C303D"/>
<path d="M490.05 464V442.33C490.047 439.687 489.524 437.07 488.51 434.628C487.496 432.187 486.011 429.969 484.14 428.102C482.269 426.235 480.048 424.754 477.605 423.745C475.162 422.736 472.544 422.218 469.9 422.22L398.9 422.3C396.257 422.303 393.639 422.826 391.198 423.84C388.757 424.854 386.539 426.339 384.672 428.21C382.804 430.081 381.324 432.302 380.315 434.745C379.305 437.189 378.787 439.807 378.79 442.45V464H490.05Z" fill="#6A94FF"/>
<path d="M508.9 464V451C508.9 449.825 508.668 448.662 508.218 447.577C507.769 446.491 507.109 445.505 506.278 444.675C505.447 443.845 504.46 443.186 503.374 442.738C502.288 442.289 501.125 442.059 499.95 442.06H482.05V463.94L508.9 464Z" fill="#6A94FF"/>
<path d="M387.91 464V442.19H370.02C367.643 442.206 365.37 443.161 363.695 444.848C362.02 446.534 361.08 448.814 361.08 451.19V464H387.91Z" fill="#6A94FF"/>
<path d="M475.03 459.36C478.366 459.36 481.07 456.656 481.07 453.32C481.07 449.984 478.366 447.28 475.03 447.28C471.694 447.28 468.99 449.984 468.99 453.32C468.99 456.656 471.694 459.36 475.03 459.36Z" fill="#202225"/>
<path d="M395.83 459.96C399.166 459.96 401.87 457.256 401.87 453.92C401.87 450.585 399.166 447.88 395.83 447.88C392.494 447.88 389.79 450.585 389.79 453.92C389.79 457.256 392.494 459.96 395.83 459.96Z" fill="#202225"/>
<path d="M409.45 464H462.65C462.736 463.337 462.783 462.669 462.79 462V446.3C462.79 445.454 462.623 444.616 462.299 443.834C461.975 443.052 461.499 442.341 460.9 441.743C460.301 441.145 459.59 440.671 458.808 440.348C458.025 440.025 457.187 439.859 456.34 439.86L415.58 439.91C414.733 439.91 413.895 440.077 413.113 440.402C412.331 440.726 411.621 441.201 411.023 441.8C410.425 442.399 409.95 443.11 409.627 443.893C409.304 444.675 409.139 445.514 409.14 446.36V460.75C409.142 461.841 409.246 462.929 409.45 464Z" fill="#A9C7FF"/>
<path d="M502.76 464V453.28C502.757 452.094 502.284 450.957 501.444 450.119C500.604 449.281 499.466 448.81 498.28 448.81H489.33V463.99L502.76 464Z" fill="#A9C7FF"/>
<path d="M380.63 464V448.91H371.68C370.494 448.913 369.357 449.386 368.519 450.226C367.681 451.066 367.21 452.204 367.21 453.39V464H380.63Z" fill="#A9C7FF"/>
<path d="M428.13 464C428.382 463.577 428.516 463.094 428.52 462.601C428.524 462.109 428.396 461.624 428.151 461.197C427.906 460.769 427.552 460.415 427.125 460.17C426.697 459.924 426.213 459.797 425.72 459.8H420.13C419.39 459.806 418.682 460.103 418.159 460.627C417.637 461.151 417.343 461.86 417.34 462.6C417.344 463.093 417.478 463.577 417.73 464H428.13Z" fill="#6A94FF"/>
<path d="M454.13 464C454.382 463.577 454.516 463.094 454.52 462.601C454.524 462.109 454.396 461.624 454.151 461.197C453.906 460.769 453.552 460.415 453.125 460.17C452.697 459.924 452.213 459.797 451.72 459.8H446.13C445.39 459.806 444.682 460.103 444.159 460.627C443.637 461.151 443.343 461.86 443.34 462.6C443.344 463.093 443.478 463.577 443.73 464H454.13Z" fill="#6A94FF"/>
<path d="M544.623 456.815C546.922 451.191 544.227 444.769 538.604 442.47C532.981 440.17 526.559 442.865 524.259 448.488L517.446 465.149C515.147 470.772 517.842 477.194 523.465 479.494C529.088 481.793 535.51 479.099 537.81 473.475L544.623 456.815Z" fill="#6A94FF"/>
<path opacity="0.33" d="M549.06 404.25H341.5V409.06C341.5 415.542 344.075 421.758 348.658 426.342C353.242 430.925 359.458 433.5 365.94 433.5H573.5V428.69C573.5 422.208 570.925 415.992 566.342 411.408C561.758 406.825 555.542 404.25 549.06 404.25Z" fill="#281D33"/>
<path d="M126.42 69.1299L107.83 41.6099L72.96 105.25L145.01 96.6399L126.42 69.1299Z" fill="#82A5FF"/>
<path d="M143.17 95.6601C139.07 95.6601 129.48 87.9301 119.8 73.6001C114.91 66.3601 111.12 59.0001 109.14 53.0001C107.08 46.7001 107.6 43.6201 108.67 42.8901C108.97 42.7071 109.319 42.6199 109.67 42.6401C113.78 42.6401 123.37 50.3701 133.05 64.7001C144.05 80.9701 146.94 93.5701 144.18 95.4401C143.873 95.614 143.521 95.6907 143.17 95.6601Z" fill="#05124A"/>
<path d="M109.66 44.1001C112.76 44.1001 121.93 50.9001 131.79 65.5001C142.79 81.6901 144.49 92.5901 143.33 94.1501H143.17C140.08 94.1501 130.9 87.3501 121.04 72.7501C110.1 56.5501 108.35 45.6501 109.51 44.1001H109.66ZM109.66 41.1001C109.013 41.0841 108.376 41.2617 107.83 41.6101C103.48 44.5501 108.29 59.2401 118.56 74.4401C127.56 87.8401 137.89 97.1601 143.17 97.1601C143.822 97.1797 144.465 96.9981 145.01 96.6401C149.35 93.7101 144.55 79.0101 134.28 63.8201C125.22 50.4101 114.94 41.1001 109.66 41.1001Z" fill="#2960E3"/>
<path d="M93.92 91.37C91.2986 87.4874 89.0899 83.3415 87.33 79L81.68 89.3C83.0047 91.8281 84.4669 94.2818 86.06 96.65C87.5696 98.8714 89.1917 101.014 90.92 103.07L102.52 101.69C99.3189 98.5431 96.4381 95.0861 93.92 91.37Z" fill="#FFCDF9"/>
<path d="M113.46 100.41L126.77 98.8202C112.565 89.1231 102.663 74.305 99.14 57.4702L92.62 69.3602C96.8911 81.2748 104.052 91.9436 113.46 100.41Z" fill="#FFCDF9"/>
<path d="M93.92 91.37C91.2986 87.4874 89.0899 83.3415 87.33 79L81.68 89.3C83.0047 91.8281 84.4669 94.2818 86.06 96.65C87.5696 98.8714 89.1917 101.014 90.92 103.07L102.52 101.69C99.3189 98.5431 96.4381 95.0861 93.92 91.37Z" fill="#356DF0"/>
<path d="M113.46 100.41L126.77 98.8202C112.565 89.1231 102.663 74.305 99.14 57.4702L92.62 69.3602C96.8911 81.2748 104.052 91.9436 113.46 100.41Z" fill="#356DF0"/>
<path opacity="0.28" d="M135 91L127 83L81 101L82.23 104.14L145.01 96.64L135 91Z" fill="#356DF0"/>
<path d="M123.59 76.9999L127.41 85.2199C127.41 85.2199 148.83 75.8899 163 90.9999L172 74.9999C172 74.9999 151 63.9999 123.59 76.9999Z" fill="url(#paint2_linear_6264_65668)"/>
<path d="M159 52L164 60C164 60 185 62 199 40L185 28C185 28 183 48 159 52Z" fill="url(#paint3_linear_6264_65668)"/>
<path d="M120.56 57.67C120.56 57.67 139 58 141 27L159.93 29.51C159.93 29.51 156.55 59.7 126 66L120.56 57.67Z" fill="url(#paint4_linear_6264_65668)"/>
<path d="M143.29 94.15H143.17C140.08 94.15 130.9 87.35 121.04 72.75C110.55 57.23 108.51 46.59 109.39 44.36L107.62 41.77C103.62 45.04 108.46 59.49 118.56 74.43C127.56 87.83 137.89 97.15 143.17 97.15C143.817 97.1661 144.454 96.9885 145 96.64L143.29 94.15Z" fill="#2960E3"/>
<path opacity="0.49" d="M660 0H642.35C639.606 2.58755 637.82 6.02753 637.28 9.76C635.405 8.27387 633.233 7.2082 630.91 6.63523C628.587 6.06226 626.168 5.99538 623.817 6.43914C621.466 6.88289 619.238 7.82689 617.284 9.20717C615.33 10.5874 613.695 12.3717 612.491 14.439C611.287 16.5064 610.541 18.8084 610.304 21.1892C610.068 23.5699 610.346 25.9737 611.12 28.2376C611.894 30.5015 613.145 32.5725 614.789 34.3104C616.434 36.0482 618.432 37.4123 620.65 38.31C618.575 39.5217 616.786 41.1672 615.406 43.1339C614.025 45.1007 613.086 47.3422 612.652 49.7055C612.217 52.0687 612.298 54.4979 612.889 56.8269C613.48 59.1559 614.567 61.3299 616.076 63.2002C617.584 65.0705 619.479 66.593 621.63 67.6637C623.781 68.7344 626.138 69.328 628.539 69.4039C630.941 69.4799 633.331 69.0364 635.545 68.1037C637.759 67.1711 639.746 65.7713 641.37 64C642.464 67.6416 644.768 70.801 647.901 72.9557C651.034 75.1104 654.808 76.1314 658.6 75.85C659.08 75.85 659.54 75.75 660 75.67V0Z" fill="#FFCDF9"/>
<path d="M123 154.84C120.911 152.749 118.431 151.091 115.701 149.959C112.971 148.828 110.045 148.246 107.09 148.246C104.135 148.246 101.209 148.828 98.4787 149.959C95.7488 151.091 93.2686 152.749 91.18 154.84L86.79 159.17L82.18 154.84C77.9604 150.62 72.2374 148.25 66.27 148.25C60.3026 148.25 54.5796 150.62 50.36 154.84C46.1404 159.06 43.7698 164.783 43.7698 170.75C43.7698 176.717 46.1404 182.44 50.36 186.66L54.86 191.16L54.77 191.25L86.77 222.99L118.57 191.25L118.48 191.16L122.98 186.66C125.072 184.573 126.732 182.093 127.865 179.364C128.998 176.635 129.582 173.709 129.584 170.754C129.586 167.799 129.006 164.872 127.876 162.142C126.746 159.411 125.089 156.93 123 154.84Z" fill="#F0417D"/>
<path d="M118.57 191.25L118.48 191.16L122.98 186.66C125.071 184.571 126.729 182.091 127.86 179.361C128.992 176.631 129.574 173.705 129.574 170.75C129.574 167.795 128.992 164.869 127.86 162.139C126.729 159.409 125.071 156.929 122.98 154.84C120.891 152.749 118.411 151.091 115.681 149.959C112.951 148.828 110.025 148.246 107.07 148.246C104.115 148.246 101.189 148.828 98.4588 149.959C95.7289 151.091 93.2487 152.749 91.16 154.84L86.77 159.17V223L118.57 191.25Z" fill="#EF64B4"/>
<path d="M127 185.38C126.184 184.562 125.214 183.914 124.147 183.471C123.079 183.029 121.935 182.801 120.78 182.801C119.625 182.801 118.481 183.029 117.413 183.471C116.346 183.914 115.376 184.562 114.56 185.38L112.8 187.14L111 185.38C109.347 183.74 107.111 182.822 104.783 182.827C102.454 182.832 100.223 183.76 98.577 185.407C96.9312 187.054 96.0053 189.286 96.0021 191.615C95.9989 193.943 96.9187 196.178 98.56 197.83L100.32 199.59L112.77 212.03L125.22 199.59L126.98 197.83C127.799 197.014 128.45 196.045 128.894 194.977C129.338 193.91 129.568 192.765 129.57 191.609C129.572 190.453 129.346 189.308 128.905 188.239C128.464 187.17 127.817 186.198 127 185.38Z" fill="#FFCDF9"/>
<path d="M604.94 244.25H660V363.5H604.94C598.458 363.5 592.242 360.925 587.658 356.342C583.075 351.758 580.5 345.542 580.5 339.06V268.69C580.5 262.208 583.075 255.992 587.658 251.408C592.242 246.825 598.458 244.25 604.94 244.25Z" fill="#62687D"/>
<path d="M511.44 275.75H660V395H511.44C504.958 395 498.742 392.425 494.158 387.842C489.575 383.258 487 377.042 487 370.56V300.19C487 293.708 489.575 287.492 494.158 282.908C498.742 278.325 504.958 275.75 511.44 275.75Z" fill="#505566"/>
<path d="M148.9 265.08L121.8 292.18V330.37L148.9 357.47L176 330.37V292.18L148.9 265.08ZM162.45 324.76L148.9 338.31L135.35 324.76V297.76L148.9 284.21L162.45 297.76V324.76Z" fill="#FB68F8"/>
<path d="M148.9 265.08V284.25L162.45 297.8L176 292.18L148.9 265.08Z" fill="#FFAAFC"/>
<path d="M135.35 324.76L121.8 330.37L148.9 357.47V338.31L135.35 324.76Z" fill="#E74FD5"/>
<path d="M135.35 297.8V324.76L148.9 338.31L162.45 324.76V297.8L148.9 284.25L135.35 297.8Z" fill="#FFCDF9"/>
<path d="M162.43 297.81V297.86L135.41 324.82L135.37 324.77V317.47L158.76 294.08L162.43 297.81Z" fill="white"/>
<path d="M162.43 307.99V315.44L144.26 333.62L140.53 329.89L162.43 307.99Z" fill="white"/>
<path d="M62 305.41L40.9 284.31L19.8 305.41V335.14L40.9 356.24L62 335.14V305.41Z" fill="#A351F5"/>
<path d="M86.9 276.49L79.4 269L71.91 276.49V287.05L79.4 294.55L86.9 287.05V276.49Z" fill="#A351F5"/>
<path d="M105.94 327.69L90.26 343.37V365.46L105.94 381.13L121.61 365.46V343.37L105.94 327.69ZM113.77 362.21L105.94 370.05L98.1 362.21V346.62L105.94 338.78L113.77 346.62V362.21Z" fill="#FB68F8"/>
<path d="M105.94 327.69V338.78L113.77 346.62L121.61 343.37L105.94 327.69Z" fill="#FFAAFC"/>
<path d="M98.1 362.21L90.26 365.46L105.94 381.13V370.05L98.1 362.21Z" fill="#E74FD5"/>
<path d="M98.1 346.62V362.21L105.94 370.05L113.77 362.21V346.62L105.94 338.78L98.1 346.62Z" fill="#FFCDF9"/>
<path d="M113.77 346.62V346.65L98.14 362.25L98.11 362.22V358L111.64 344.47L113.77 346.62Z" fill="white"/>
<path d="M113.77 352.51V356.82L103.25 367.33L101.09 365.18L113.77 352.51Z" fill="white"/>
<path d="M633 79.9998C633.001 75.0662 631.744 70.214 629.347 65.9019C626.95 61.5899 623.492 57.9607 619.301 55.3576C615.11 52.7546 610.324 51.2637 605.397 51.0261C600.469 50.7885 595.562 51.812 591.14 53.9998C592.205 49.7254 592.282 45.2646 591.365 40.956C590.449 36.6474 588.563 32.6042 585.85 29.1332C583.138 25.6623 579.671 22.8549 575.711 20.9241C571.752 18.9932 567.405 17.9897 563 17.9897C558.595 17.9897 554.248 18.9932 550.289 20.9241C546.329 22.8549 542.862 25.6623 540.149 29.1332C537.437 32.6042 535.551 36.6474 534.635 40.956C533.718 45.2646 533.795 49.7254 534.86 53.9998C531.182 52.1774 527.16 51.1563 523.059 51.0042C518.957 50.852 514.87 51.5721 511.068 53.117C507.265 54.6619 503.834 56.9963 501.001 59.9659C498.168 62.9355 495.997 66.4726 494.633 70.3435C493.268 74.2144 492.741 78.3307 493.086 82.4205C493.431 86.5103 494.64 90.4803 496.633 94.0681C498.626 97.6559 501.358 100.78 504.649 103.233C507.939 105.686 511.713 107.413 515.72 108.3C512.895 111.352 510.759 114.977 509.458 118.928C508.157 122.879 507.721 127.064 508.18 131.198C508.639 135.332 509.982 139.319 512.118 142.889C514.254 146.458 517.132 149.526 520.558 151.885C523.984 154.244 527.878 155.838 531.975 156.559C536.071 157.28 540.275 157.112 544.301 156.065C548.326 155.018 552.08 153.118 555.306 150.493C558.533 147.867 561.157 144.579 563 140.85C564.841 144.582 567.464 147.874 570.69 150.502C573.916 153.13 577.669 155.034 581.696 156.083C585.723 157.132 589.929 157.302 594.027 156.582C598.125 155.862 602.021 154.268 605.449 151.909C608.877 149.549 611.757 146.48 613.893 142.909C616.03 139.338 617.373 135.35 617.831 131.214C618.289 127.078 617.852 122.892 616.549 118.94C615.246 114.988 613.108 111.362 610.28 108.31C616.723 106.881 622.486 103.296 626.617 98.1491C630.748 93.0019 633 86.5996 633 79.9998Z" fill="#A758F5"/>
<path opacity="0.41" d="M546.85 199.85C546.241 199.239 545.518 198.754 544.722 198.424C543.926 198.093 543.072 197.923 542.21 197.923C541.348 197.923 540.494 198.093 539.698 198.424C538.902 198.754 538.179 199.239 537.57 199.85C536.854 200.557 536.316 201.424 536 202.38C535.526 201.576 534.886 200.883 534.123 200.346C533.36 199.809 532.491 199.442 531.574 199.268C530.658 199.093 529.715 199.117 528.808 199.336C527.901 199.555 527.051 199.965 526.316 200.539C525.58 201.113 524.975 201.837 524.541 202.663C524.108 203.489 523.855 204.398 523.801 205.329C523.746 206.26 523.891 207.193 524.225 208.064C524.56 208.935 525.076 209.724 525.74 210.38C526.119 210.761 526.542 211.097 527 211.38C525.943 211.737 524.995 212.358 524.245 213.184C523.495 214.009 522.968 215.013 522.714 216.099C522.46 217.185 522.487 218.318 522.792 219.391C523.098 220.463 523.672 221.441 524.46 222.23C525.517 223.283 526.901 223.944 528.384 224.106C529.867 224.268 531.361 223.92 532.62 223.12C532.651 224.063 532.886 224.988 533.307 225.833C533.729 226.677 534.328 227.421 535.063 228.013C535.798 228.604 536.652 229.031 537.567 229.262C538.482 229.494 539.436 229.525 540.365 229.354C541.293 229.183 542.173 228.814 542.946 228.272C543.718 227.729 544.364 227.027 544.84 226.212C545.317 225.397 545.611 224.489 545.704 223.55C545.797 222.611 545.687 221.662 545.38 220.77C546.271 221.071 547.216 221.176 548.152 221.08C549.087 220.983 549.991 220.687 550.802 220.211C551.613 219.734 552.312 219.089 552.851 218.319C553.391 217.549 553.759 216.671 553.93 215.747C554.1 214.822 554.071 213.871 553.842 212.959C553.613 212.047 553.191 211.195 552.604 210.46C552.017 209.725 551.279 209.125 550.439 208.701C549.6 208.276 548.68 208.037 547.74 208C548.541 206.743 548.89 205.25 548.728 203.768C548.566 202.287 547.904 200.904 546.85 199.85Z" fill="#FFCDF9"/>
<path d="M521.37 71.94C529.03 71.94 535.24 62.8872 535.24 51.72C535.24 40.5528 529.03 31.5 521.37 31.5C513.71 31.5 507.5 40.5528 507.5 51.72C507.5 62.8872 513.71 71.94 521.37 71.94Z" fill="white"/>
<path d="M518.48 67.32C522.628 67.32 525.99 63.2099 525.99 58.14C525.99 53.07 522.628 48.96 518.48 48.96C514.332 48.96 510.97 53.07 510.97 58.14C510.97 63.2099 514.332 67.32 518.48 67.32Z" fill="black"/>
<path d="M545.63 71.94C553.29 71.94 559.5 62.8872 559.5 51.72C559.5 40.5528 553.29 31.5 545.63 31.5C537.97 31.5 531.76 40.5528 531.76 51.72C531.76 62.8872 537.97 71.94 545.63 71.94Z" fill="white"/>
<path d="M542.74 67.32C546.888 67.32 550.25 63.2099 550.25 58.14C550.25 53.07 546.888 48.96 542.74 48.96C538.592 48.96 535.23 53.07 535.23 58.14C535.23 63.2099 538.592 67.32 542.74 67.32Z" fill="black"/>
<path d="M516.74 63.85C518.016 63.85 519.05 62.8158 519.05 61.54C519.05 60.2642 518.016 59.23 516.74 59.23C515.464 59.23 514.43 60.2642 514.43 61.54C514.43 62.8158 515.464 63.85 516.74 63.85Z" fill="#EBF0F7"/>
<path d="M541.01 63.85C542.286 63.85 543.32 62.8158 543.32 61.54C543.32 60.2642 542.286 59.23 541.01 59.23C539.734 59.23 538.7 60.2642 538.7 61.54C538.7 62.8158 539.734 63.85 541.01 63.85Z" fill="#EBF0F7"/>
<path opacity="0.8" d="M489.46 24.7502L491.63 29.6302C491.639 29.6494 491.653 29.6656 491.671 29.677C491.688 29.6884 491.709 29.6944 491.73 29.6944C491.751 29.6944 491.772 29.6884 491.789 29.677C491.807 29.6656 491.821 29.6494 491.83 29.6302L494 24.7502C494.015 24.7255 494.035 24.7048 494.06 24.6902L498.93 22.5202C498.949 22.5115 498.965 22.4974 498.977 22.4796C498.988 22.4619 498.994 22.4413 498.994 22.4202C498.994 22.3992 498.988 22.3785 498.977 22.3608C498.965 22.3431 498.949 22.329 498.93 22.3202L494.06 20.1502C494.04 20.1564 494.02 20.1564 494 20.1502L491.83 15.2702C491.821 15.2511 491.807 15.2349 491.789 15.2235C491.772 15.2121 491.751 15.2061 491.73 15.2061C491.709 15.2061 491.688 15.2121 491.671 15.2235C491.653 15.2349 491.639 15.2511 491.63 15.2702L489.46 20.1502C489.44 20.1564 489.42 20.1564 489.4 20.1502L484.52 22.3202C484.501 22.329 484.485 22.3431 484.473 22.3608C484.462 22.3785 484.456 22.3992 484.456 22.4202C484.456 22.4413 484.462 22.4619 484.473 22.4796C484.485 22.4974 484.501 22.5115 484.52 22.5202L489.4 24.6902C489.425 24.7048 489.445 24.7255 489.46 24.7502Z" fill="white"/>
<path opacity="0.5" d="M271.41 391.44L273.82 396.86C273.829 396.882 273.845 396.9 273.864 396.913C273.884 396.925 273.907 396.932 273.93 396.932C273.953 396.932 273.976 396.925 273.996 396.913C274.015 396.9 274.031 396.882 274.04 396.86L276.45 391.44C276.454 391.426 276.462 391.413 276.473 391.403C276.483 391.392 276.496 391.384 276.51 391.38L281.93 388.97C281.951 388.961 281.97 388.945 281.982 388.926C281.995 388.906 282.002 388.883 282.002 388.86C282.002 388.837 281.995 388.814 281.982 388.794C281.97 388.775 281.951 388.759 281.93 388.75L276.51 386.34C276.485 386.326 276.465 386.305 276.45 386.28L274 380.86C273.991 380.839 273.975 380.821 273.956 380.808C273.936 380.795 273.913 380.788 273.89 380.788C273.867 380.788 273.844 380.795 273.824 380.808C273.805 380.821 273.789 380.839 273.78 380.86L271.37 386.28L271.31 386.34L265.89 388.75C265.869 388.759 265.85 388.775 265.838 388.794C265.825 388.814 265.818 388.837 265.818 388.86C265.818 388.883 265.825 388.906 265.838 388.926C265.85 388.945 265.869 388.961 265.89 388.97L271.31 391.38C271.33 391.381 271.35 391.387 271.368 391.397C271.385 391.408 271.4 391.422 271.41 391.44Z" fill="white"/>
<path d="M88.31 334L86 340C85.9901 340.024 85.9875 340.05 85.9925 340.075C85.9975 340.101 86.0099 340.124 86.0281 340.142C86.0463 340.16 86.0695 340.173 86.0948 340.178C86.12 340.183 86.1462 340.18 86.17 340.17L92.17 337.87H92.27L98.27 340.17C98.2938 340.18 98.32 340.183 98.3452 340.178C98.3705 340.173 98.3937 340.16 98.4119 340.142C98.4301 340.124 98.4425 340.101 98.4475 340.075C98.4525 340.05 98.4499 340.024 98.44 340L96.14 334C96.13 333.968 96.13 333.933 96.14 333.9L98.44 327.9C98.4499 327.876 98.4525 327.85 98.4475 327.825C98.4425 327.8 98.4301 327.777 98.4119 327.758C98.3937 327.74 98.3705 327.728 98.3452 327.723C98.32 327.718 98.2938 327.72 98.27 327.73L92.27 330.03H92.17L86.17 327.73C86.1462 327.72 86.12 327.718 86.0948 327.723C86.0695 327.728 86.0463 327.74 86.0281 327.758C86.0099 327.777 85.9975 327.8 85.9925 327.825C85.9875 327.85 85.9901 327.876 86 327.9L88.3 333.9C88.3133 333.932 88.3168 333.967 88.31 334Z" fill="white"/>
<path d="M36.27 441.24L38.27 445.71C38.2782 445.727 38.291 445.741 38.3069 445.751C38.3228 445.761 38.3412 445.766 38.36 445.766C38.3788 445.766 38.3972 445.761 38.4131 445.751C38.429 445.741 38.4418 445.727 38.45 445.71L40.45 441.24V441.19L44.91 439.19C44.9266 439.18 44.9404 439.166 44.9499 439.15C44.9595 439.133 44.9645 439.114 44.9645 439.095C44.9645 439.076 44.9595 439.057 44.9499 439.04C44.9404 439.024 44.9266 439.01 44.91 439L40.45 437V436.95L38.45 432.49C38.4418 432.473 38.429 432.459 38.4131 432.449C38.3972 432.439 38.3788 432.434 38.36 432.434C38.3412 432.434 38.3228 432.439 38.3069 432.449C38.291 432.459 38.2782 432.473 38.27 432.49L36.27 436.95C36.266 436.962 36.2595 436.972 36.2508 436.981C36.2421 436.99 36.2316 436.996 36.22 437L31.76 439C31.7434 439.01 31.7296 439.024 31.7201 439.04C31.7105 439.057 31.7054 439.076 31.7054 439.095C31.7054 439.114 31.7105 439.133 31.7201 439.15C31.7296 439.166 31.7434 439.18 31.76 439.19L36.22 441.19C36.2316 441.194 36.2421 441.2 36.2508 441.209C36.2595 441.218 36.266 441.228 36.27 441.24Z" fill="#FFCDF9"/>
<path opacity="0.32" d="M18.1 420.69L17.23 423C17.227 423.009 17.2268 423.019 17.2295 423.029C17.2322 423.038 17.2376 423.047 17.2451 423.053C17.2525 423.06 17.2617 423.064 17.2715 423.065C17.2813 423.066 17.2912 423.064 17.3 423.06L19.56 422.19L21.83 423.06L21.89 423L21.02 420.73L21.89 418.47C21.8944 418.461 21.8961 418.451 21.8949 418.441C21.8937 418.432 21.8897 418.422 21.8833 418.415C21.8769 418.407 21.8684 418.402 21.8589 418.399C21.8494 418.397 21.8394 418.397 21.83 418.4L19.56 419.28L17.3 418.4C17.2904 418.398 17.2805 418.399 17.2712 418.402C17.2619 418.404 17.2534 418.41 17.2466 418.416C17.2397 418.423 17.2345 418.432 17.2317 418.441C17.2288 418.45 17.2282 418.46 17.23 418.47L18.1 420.73C18.1 420.73 18.11 420.68 18.1 420.69Z" fill="#FFCDF9"/>
<path opacity="0.25" d="M473.43 38.9301L472.2 42.1301C472.195 42.1427 472.194 42.1563 472.197 42.1694C472.2 42.1825 472.207 42.1945 472.216 42.204C472.226 42.2135 472.238 42.22 472.251 42.2229C472.264 42.2258 472.277 42.2248 472.29 42.2201L475.49 40.9901H475.54L478.74 42.2201C478.752 42.2248 478.766 42.2258 478.779 42.2229C478.792 42.22 478.804 42.2135 478.814 42.204C478.823 42.1945 478.83 42.1825 478.833 42.1694C478.836 42.1563 478.835 42.1427 478.83 42.1301L477.6 38.9301L478.83 35.7301C478.835 35.7176 478.836 35.7039 478.833 35.6908C478.83 35.6777 478.823 35.6657 478.814 35.6562C478.804 35.6468 478.792 35.6402 478.779 35.6374C478.766 35.6345 478.752 35.6355 478.74 35.6401L475.54 36.8701H475.49L472.29 35.6401C472.277 35.6355 472.264 35.6345 472.251 35.6374C472.238 35.6402 472.226 35.6468 472.216 35.6562C472.207 35.6657 472.2 35.6777 472.197 35.6908C472.194 35.7039 472.195 35.7176 472.2 35.7301L473.43 38.9301Z" fill="white"/>
<path opacity="0.8" d="M612.64 226.9L610.7 231.9C610.694 231.921 610.693 231.943 610.698 231.964C610.704 231.985 610.714 232.005 610.73 232.02C610.745 232.036 610.765 232.046 610.786 232.052C610.807 232.057 610.829 232.056 610.85 232.05L615.85 230.11C615.876 230.1 615.904 230.1 615.93 230.11L620.93 232.05C620.951 232.056 620.973 232.057 620.994 232.052C621.015 232.046 621.035 232.036 621.05 232.02C621.066 232.005 621.077 231.985 621.082 231.964C621.087 231.943 621.086 231.921 621.08 231.9L619.14 226.9C619.13 226.874 619.13 226.846 619.14 226.82L621.08 221.82C621.088 221.799 621.09 221.777 621.085 221.755C621.081 221.733 621.069 221.714 621.053 221.699C621.037 221.683 621.016 221.674 620.994 221.67C620.972 221.667 620.95 221.67 620.93 221.68L615.93 223.62C615.904 223.63 615.876 223.63 615.85 223.62L610.85 221.68C610.83 221.67 610.808 221.667 610.786 221.67C610.764 221.674 610.743 221.683 610.727 221.699C610.711 221.714 610.7 221.733 610.695 221.755C610.69 221.777 610.692 221.799 610.7 221.82L612.64 226.82C612.65 226.846 612.65 226.874 612.64 226.9Z" fill="white"/>
<path d="M584.56 307.75H373.44C359.942 307.75 349 318.692 349 332.19V402.56C349 416.058 359.942 427 373.44 427H584.56C598.058 427 609 416.058 609 402.56V332.19C609 318.692 598.058 307.75 584.56 307.75Z" fill="#3C3F4D"/>
<path opacity="0.22" d="M542.5 331C536.93 330.994 531.413 332.086 526.266 334.214C521.118 336.342 516.44 339.463 512.5 343.4C504.871 335.793 494.636 331.368 483.867 331.023C473.099 330.678 462.601 334.437 454.5 341.54C448.358 336.156 440.794 332.656 432.714 331.459C424.634 330.262 416.38 331.419 408.941 334.79C401.501 338.162 395.191 343.607 390.765 350.472C386.339 357.337 383.986 365.332 383.986 373.5C383.986 381.668 386.339 389.663 390.765 396.528C395.191 403.393 401.501 408.838 408.941 412.21C416.38 415.582 424.634 416.738 432.714 415.541C440.794 414.344 448.358 410.844 454.5 405.46C462.601 412.563 473.099 416.322 483.867 415.977C494.636 415.632 504.871 411.207 512.5 403.6C517.448 408.532 523.536 412.169 530.224 414.187C536.913 416.206 543.996 416.545 550.846 415.173C557.697 413.802 564.104 410.763 569.5 406.325C574.896 401.887 579.114 396.188 581.783 389.731C584.451 383.274 585.486 376.259 584.797 369.306C584.107 362.354 581.715 355.679 577.83 349.872C573.946 344.064 568.69 339.304 562.528 336.013C556.365 332.721 549.486 330.999 542.5 331Z" fill="#281D33"/>
<path d="M422.5 410C445.972 410 465 390.972 465 367.5C465 344.028 445.972 325 422.5 325C399.028 325 380 344.028 380 367.5C380 390.972 399.028 410 422.5 410Z" fill="#F0417D"/>
<path d="M443.08 352.89C439.332 349.944 434.761 348.235 430 348L429.35 348.75C437.35 351.15 441 354.64 441 354.64C436.639 352.251 431.852 350.739 426.91 350.19C423.765 349.844 420.589 349.871 417.45 350.27L416.67 350.38C412.982 350.812 409.383 351.811 406 353.34C405.052 353.726 404.127 354.166 403.23 354.66C403.23 354.66 407.07 350.97 415.5 348.57L415 348C410.227 348.221 405.641 349.923 401.88 352.87C397.61 361.24 395.308 370.475 395.15 379.87C395.15 379.87 399.1 386.63 409.43 386.94C409.43 386.94 411.14 384.88 412.55 383.11C406.61 381.36 404.36 377.66 404.36 377.66C404.36 377.66 404.81 377.97 405.65 378.45L405.85 378.56L406.29 378.8C407.395 379.413 408.541 379.948 409.72 380.4C411.938 381.294 414.239 381.964 416.59 382.4C420.596 383.139 424.704 383.139 428.71 382.4C431.04 381.972 433.319 381.302 435.51 380.4C437.4 379.678 439.206 378.756 440.9 377.65C440.9 377.65 438.59 381.46 432.44 383.17C433.84 384.93 435.51 386.93 435.51 386.93C445.84 386.62 449.79 379.86 449.79 379.86C449.636 370.476 447.341 361.252 443.08 352.89ZM413.81 375.58C412.781 375.652 411.754 375.413 410.862 374.894C409.971 374.374 409.256 373.598 408.811 372.667C408.367 371.736 408.213 370.692 408.37 369.673C408.526 368.653 408.986 367.704 409.689 366.949C410.393 366.194 411.307 365.668 412.314 365.44C413.32 365.212 414.371 365.292 415.332 365.669C416.292 366.047 417.116 366.705 417.697 367.558C418.278 368.41 418.59 369.418 418.59 370.45C418.625 371.761 418.144 373.034 417.25 373.993C416.356 374.953 415.12 375.523 413.81 375.58ZM430.81 375.58C429.781 375.65 428.755 375.409 427.864 374.888C426.974 374.368 426.261 373.591 425.818 372.659C425.375 371.728 425.223 370.685 425.381 369.665C425.538 368.646 425.999 367.698 426.703 366.944C427.407 366.19 428.322 365.665 429.328 365.438C430.334 365.211 431.385 365.292 432.344 365.67C433.304 366.048 434.128 366.706 434.708 367.559C435.289 368.411 435.6 369.419 435.6 370.45C435.636 371.756 435.158 373.024 434.271 373.983C433.383 374.942 432.155 375.515 430.85 375.58H430.81Z" fill="white"/>
<path d="M480.5 410C503.972 410 523 390.972 523 367.5C523 344.028 503.972 325 480.5 325C457.028 325 438 344.028 438 367.5C438 390.972 457.028 410 480.5 410Z" fill="#FB5FDC"/>
<path d="M501.08 352.89C497.332 349.944 492.761 348.235 488 348L487.35 348.75C495.35 351.15 499 354.64 499 354.64C494.639 352.251 489.852 350.739 484.91 350.19C481.765 349.844 478.589 349.871 475.45 350.27L474.67 350.38C470.982 350.812 467.383 351.811 464 353.34C463.052 353.726 462.127 354.166 461.23 354.66C461.23 354.66 465.07 350.97 473.5 348.57L473 348C468.227 348.221 463.641 349.923 459.88 352.87C455.61 361.24 453.308 370.475 453.15 379.87C453.15 379.87 457.1 386.63 467.43 386.94C467.43 386.94 469.14 384.88 470.55 383.11C464.61 381.36 462.36 377.66 462.36 377.66C462.36 377.66 462.81 377.97 463.65 378.45L463.85 378.56L464.29 378.8C465.395 379.413 466.541 379.948 467.72 380.4C469.938 381.294 472.239 381.964 474.59 382.4C478.596 383.139 482.704 383.139 486.71 382.4C489.04 381.972 491.319 381.302 493.51 380.4C495.4 379.678 497.206 378.756 498.9 377.65C498.9 377.65 496.59 381.46 490.44 383.17C491.84 384.93 493.51 386.93 493.51 386.93C503.84 386.62 507.79 379.86 507.79 379.86C507.636 370.476 505.341 361.252 501.08 352.89ZM471.81 375.58C470.781 375.652 469.754 375.413 468.862 374.894C467.971 374.374 467.256 373.598 466.811 372.667C466.367 371.736 466.213 370.692 466.37 369.673C466.526 368.653 466.986 367.704 467.689 366.949C468.393 366.194 469.307 365.668 470.314 365.44C471.32 365.212 472.371 365.292 473.332 365.669C474.292 366.047 475.116 366.705 475.697 367.558C476.278 368.41 476.59 369.418 476.59 370.45C476.625 371.761 476.144 373.034 475.25 373.993C474.356 374.953 473.12 375.523 471.81 375.58ZM488.81 375.58C487.781 375.65 486.755 375.409 485.864 374.888C484.974 374.368 484.261 373.591 483.818 372.659C483.375 371.728 483.223 370.685 483.381 369.665C483.538 368.646 483.999 367.698 484.703 366.944C485.407 366.19 486.322 365.665 487.328 365.438C488.334 365.211 489.385 365.292 490.344 365.67C491.304 366.048 492.128 366.706 492.708 367.559C493.289 368.411 493.6 369.419 493.6 370.45C493.636 371.756 493.158 373.024 492.271 373.983C491.383 374.942 490.155 375.515 488.85 375.58H488.81Z" fill="white"/>
<path d="M538.5 410C561.972 410 581 390.972 581 367.5C581 344.028 561.972 325 538.5 325C515.028 325 496 344.028 496 367.5C496 390.972 515.028 410 538.5 410Z" fill="#6A94FF"/>
<path d="M559.08 352.89C555.332 349.944 550.761 348.235 546 348L545.35 348.75C553.35 351.15 557 354.64 557 354.64C552.639 352.251 547.852 350.739 542.91 350.19C539.765 349.844 536.589 349.871 533.45 350.27L532.67 350.38C528.982 350.812 525.383 351.811 522 353.34C521.052 353.726 520.127 354.166 519.23 354.66C519.23 354.66 523.07 350.97 531.5 348.57L531 348C526.227 348.221 521.641 349.923 517.88 352.87C513.61 361.24 511.308 370.475 511.15 379.87C511.15 379.87 515.1 386.63 525.43 386.94C525.43 386.94 527.14 384.88 528.55 383.11C522.61 381.36 520.36 377.66 520.36 377.66C520.36 377.66 520.81 377.97 521.65 378.45L521.85 378.56L522.29 378.8C523.395 379.413 524.541 379.948 525.72 380.4C527.938 381.294 530.239 381.964 532.59 382.4C536.596 383.139 540.704 383.139 544.71 382.4C547.04 381.972 549.319 381.302 551.51 380.4C553.4 379.678 555.207 378.756 556.9 377.65C556.9 377.65 554.59 381.46 548.44 383.17C549.84 384.93 551.51 386.93 551.51 386.93C561.84 386.62 565.79 379.86 565.79 379.86C565.636 370.476 563.341 361.252 559.08 352.89ZM529.81 375.58C528.781 375.652 527.754 375.413 526.862 374.894C525.971 374.374 525.256 373.598 524.811 372.667C524.367 371.736 524.213 370.692 524.37 369.673C524.526 368.653 524.986 367.704 525.689 366.949C526.393 366.194 527.307 365.668 528.314 365.44C529.32 365.212 530.371 365.292 531.332 365.669C532.292 366.047 533.116 366.705 533.697 367.558C534.278 368.41 534.59 369.418 534.59 370.45C534.625 371.761 534.144 373.034 533.25 373.993C532.356 374.953 531.12 375.523 529.81 375.58ZM546.81 375.58C545.781 375.65 544.755 375.409 543.864 374.888C542.974 374.368 542.261 373.591 541.818 372.659C541.375 371.728 541.223 370.685 541.381 369.665C541.538 368.646 541.999 367.698 542.703 366.944C543.407 366.19 544.322 365.665 545.328 365.438C546.334 365.211 547.385 365.292 548.345 365.67C549.304 366.048 550.128 366.706 550.708 367.559C551.289 368.411 551.6 369.419 551.6 370.45C551.636 371.756 551.158 373.024 550.271 373.983C549.383 374.942 548.155 375.515 546.85 375.58H546.81Z" fill="white"/>
<path d="M599.83 335.49C602.778 332.992 605.074 329.815 606.52 326.232C607.967 322.649 608.52 318.768 608.131 314.923C607.743 311.079 606.426 307.387 604.293 304.165C602.159 300.943 599.274 298.289 595.887 296.431C592.499 294.573 588.71 293.567 584.846 293.5C580.983 293.432 577.162 294.306 573.711 296.045C570.261 297.784 567.285 300.336 565.041 303.482C562.797 306.627 561.352 310.271 560.83 314.1C560.595 315.827 559.77 317.419 558.493 318.606C557.217 319.793 555.569 320.501 553.83 320.61C551.83 320.71 549.9 321.09 548.73 322.08C547.862 322.816 547.148 323.715 546.628 324.727C546.108 325.739 545.793 326.844 545.7 327.978C545.607 329.112 545.739 330.253 546.087 331.336C546.435 332.419 546.994 333.423 547.73 334.29C572.92 364 599.83 335.49 599.83 335.49Z" fill="#F7E080"/>
<path d="M600 316C607.732 316 614 309.732 614 302C614 294.268 607.732 288 600 288C592.268 288 586 294.268 586 302C586 309.732 592.268 316 600 316Z" fill="#ED8700"/>
<path d="M660 204.61L591.77 286.94C590.369 288.619 589.318 290.563 588.68 292.655C588.042 294.747 587.829 296.946 588.055 299.122C588.28 301.297 588.939 303.406 589.992 305.323C591.046 307.24 592.473 308.926 594.189 310.283C595.905 311.64 597.875 312.639 599.983 313.221C602.092 313.804 604.295 313.959 606.464 313.676C608.633 313.393 610.724 312.679 612.612 311.575C614.501 310.472 616.149 309.001 617.46 307.25L660 250.81V204.61Z" fill="#FFB300"/>
<path d="M601.77 427.47C601.686 430.208 600.539 432.805 598.572 434.712C596.606 436.619 593.974 437.686 591.235 437.686C588.496 437.686 585.864 436.619 583.898 434.712C581.931 432.805 580.784 430.208 580.7 427.47C580.7 423.47 585.7 412.35 588.78 405.78C588.998 405.313 589.345 404.918 589.78 404.641C590.215 404.365 590.72 404.218 591.235 404.218C591.75 404.218 592.255 404.365 592.69 404.641C593.125 404.918 593.472 405.313 593.69 405.78C596.8 412.35 601.77 423.47 601.77 427.47Z" fill="#225FF0"/>
<path opacity="0.35" d="M599 324C593 328.27 577.54 328.56 574 335C572.79 337.21 575.58 335.5 574.87 337.92C574.443 339.377 574.148 340.87 573.99 342.38C574.975 344.149 576.064 345.859 577.25 347.5C590.25 345.59 599.83 335.5 599.83 335.5C603.314 332.546 605.875 328.653 607.208 324.284C608.542 319.916 608.591 315.256 607.35 310.86C602.23 310.84 606 319 599 324Z" fill="#F79400"/>
<path d="M589 343.5C588.735 341.503 587.874 339.633 586.529 338.134C585.183 336.636 583.417 335.578 581.46 335.1C584.81 331.48 585.85 326.76 583.65 323.41C581.25 319.74 575.76 318.96 570.65 321.3C571.106 318.741 570.547 316.106 569.093 313.951C567.639 311.797 565.404 310.294 562.86 309.76C562.53 309.69 562.196 309.639 561.86 309.61C561.368 311.07 561.013 312.574 560.8 314.1C560.565 315.827 559.74 317.419 558.464 318.606C557.187 319.793 555.539 320.501 553.8 320.61C551.8 320.71 549.87 321.09 548.7 322.08C547.832 322.816 547.118 323.715 546.598 324.727C546.078 325.739 545.763 326.844 545.67 327.978C545.577 329.112 545.709 330.253 546.057 331.336C546.405 332.419 546.964 333.423 547.7 334.29C562.94 352.25 578.8 348.94 589 343.5Z" fill="#356DF0"/>
<path d="M93.79 443.58C105.272 443.58 114.58 434.272 114.58 422.79C114.58 411.308 105.272 402 93.79 402C82.308 402 73 411.308 73 422.79C73 434.272 82.308 443.58 93.79 443.58Z" fill="#363C4C"/>
<path d="M100.85 420.21C100.752 420.151 100.64 420.12 100.525 420.12C100.41 420.12 100.298 420.151 100.2 420.21L98.48 421.06V419.47C98.48 419.114 98.3388 418.774 98.0875 418.522C97.8362 418.271 97.4954 418.13 97.14 418.13H89.14C88.7837 418.13 88.4418 418.271 88.1889 418.522C87.936 418.773 87.7926 419.114 87.79 419.47V426.17C87.7926 426.526 87.936 426.867 88.1889 427.118C88.4418 427.369 88.7837 427.51 89.14 427.51H97.14C97.4954 427.51 97.8362 427.369 98.0875 427.117C98.3388 426.866 98.48 426.525 98.48 426.17V424.58L100.2 425.43C100.292 425.479 100.396 425.503 100.5 425.5C100.624 425.501 100.745 425.466 100.85 425.4C100.948 425.34 101.028 425.256 101.084 425.157C101.14 425.057 101.17 424.944 101.17 424.83V420.83C101.181 420.707 101.157 420.583 101.1 420.473C101.044 420.363 100.957 420.272 100.85 420.21Z" fill="white"/>
<path d="M190.56 443.58C202.042 443.58 211.35 434.272 211.35 422.79C211.35 411.308 202.042 402 190.56 402C179.078 402 169.77 411.308 169.77 422.79C169.77 434.272 179.078 443.58 190.56 443.58Z" fill="#363C4C"/>
<path fill-rule="evenodd" clip-rule="evenodd" d="M192.56 422.12C192.56 422.651 192.349 423.159 191.974 423.534C191.599 423.909 191.09 424.12 190.56 424.12C190.03 424.12 189.521 423.909 189.146 423.534C188.771 423.159 188.56 422.651 188.56 422.12V418.12C188.56 417.59 188.771 417.081 189.146 416.706C189.521 416.331 190.03 416.12 190.56 416.12C191.09 416.12 191.599 416.331 191.974 416.706C192.349 417.081 192.56 417.59 192.56 418.12V422.12ZM190.56 425.54C191.018 425.549 191.473 425.468 191.899 425.301C192.326 425.134 192.715 424.885 193.045 424.567C193.375 424.249 193.639 423.87 193.821 423.45C194.004 423.03 194.102 422.578 194.11 422.12H195.25C195.222 423.223 194.805 424.28 194.073 425.105C193.341 425.93 192.341 426.47 191.25 426.63V429.5H189.91V426.63C188.82 426.468 187.821 425.928 187.089 425.103C186.358 424.278 185.94 423.222 185.91 422.12H187C187.009 422.578 187.108 423.031 187.292 423.45C187.476 423.87 187.741 424.25 188.072 424.568C188.402 424.885 188.792 425.135 189.219 425.301C189.646 425.468 190.102 425.549 190.56 425.54Z" fill="#F8F9F9"/>
<path d="M238.94 443.58C250.422 443.58 259.73 434.272 259.73 422.79C259.73 411.308 250.422 402 238.94 402C227.458 402 218.15 411.308 218.15 422.79C218.15 434.272 227.458 443.58 238.94 443.58Z" fill="#363C4C"/>
<path fill-rule="evenodd" clip-rule="evenodd" d="M244.76 415.79L245.94 416.97L243.85 419.06L245.94 421.15L244.76 422.34L242.67 420.25L240.58 422.34L239.39 421.15L241.48 419.06L239.39 417L240.58 415.82L242.67 417.91L244.76 415.79ZM242.67 429.79H239.32C238.351 429.791 237.392 429.602 236.497 429.232C235.601 428.862 234.788 428.319 234.102 427.635C233.417 426.95 232.873 426.138 232.502 425.243C232.131 424.348 231.94 423.389 231.94 422.42V419.06C231.94 418.882 232.011 418.712 232.136 418.586C232.262 418.461 232.432 418.39 232.61 418.39H235.29C235.468 418.39 235.638 418.461 235.764 418.586C235.889 418.712 235.96 418.882 235.96 419.06V421.74C235.961 421.829 235.945 421.917 235.912 422C235.879 422.082 235.83 422.157 235.767 422.22C235.705 422.284 235.631 422.334 235.549 422.368C235.467 422.402 235.379 422.42 235.29 422.42H234.62C234.612 423.039 234.728 423.653 234.961 424.227C235.195 424.8 235.541 425.321 235.979 425.758C236.417 426.195 236.939 426.54 237.513 426.772C238.086 427.005 238.701 427.119 239.32 427.11V426.44C239.32 426.262 239.391 426.092 239.516 425.966C239.642 425.841 239.812 425.77 239.99 425.77H242.67C242.848 425.77 243.018 425.841 243.144 425.966C243.269 426.092 243.34 426.262 243.34 426.44V429.12C243.34 429.298 243.269 429.468 243.144 429.594C243.018 429.719 242.848 429.79 242.67 429.79Z" fill="#F8F9F9"/>
<path d="M142.11 443.62C153.592 443.62 162.9 434.312 162.9 422.83C162.9 411.348 153.592 402.04 142.11 402.04C130.628 402.04 121.32 411.348 121.32 422.83C121.32 434.312 130.628 443.62 142.11 443.62Z" fill="#363C4C"/>
<path fill-rule="evenodd" clip-rule="evenodd" d="M135.4 417.8C135.4 417.445 135.541 417.104 135.793 416.852C136.044 416.601 136.385 416.46 136.74 416.46H147.47C147.825 416.46 148.166 416.601 148.418 416.852C148.669 417.104 148.81 417.445 148.81 417.8V425.18C148.81 425.535 148.669 425.876 148.418 426.128C148.166 426.379 147.825 426.52 147.47 426.52H142.78V427.86H145.46V429.2H138.75V427.86H141.44V426.52H136.74C136.385 426.52 136.044 426.379 135.793 426.128C135.541 425.876 135.4 425.535 135.4 425.18V417.8ZM142.91 424.4V422.56C141.976 422.488 141.04 422.66 140.193 423.06C139.346 423.459 138.618 424.073 138.08 424.84C138.53 422.61 139.78 420.38 142.91 419.92V418.14L146.13 421.26L142.91 424.4Z" fill="#F8F9F9"/>
<path d="M207.61 0C206.362 4.45839 206.163 9.14506 207.029 13.6931C207.894 18.2412 209.801 22.5273 212.599 26.2158C215.397 29.9043 219.01 32.8952 223.157 34.9544C227.303 37.0135 231.87 38.085 236.5 38.085C241.13 38.085 245.697 37.0135 249.843 34.9544C253.99 32.8952 257.603 29.9043 260.401 26.2158C263.199 22.5273 265.106 18.2412 265.971 13.6931C266.837 9.14506 266.638 4.45839 265.39 0L207.61 0Z" fill="#FFDA47"/>
<path d="M21.05 0C27.6002 9.27646 36.2832 16.8435 46.3679 22.0643C56.4526 27.285 67.644 30.0066 79 30C90.3644 30.0147 101.566 27.2969 111.66 22.0758C121.754 16.8547 130.445 9.28337 137 0L21.05 0Z" fill="#FFB300"/>
<path d="M82.16 154.84C78.3644 151.038 73.3336 148.719 67.9772 148.303C62.6208 147.888 57.2924 149.402 52.9555 152.573C48.6187 155.744 45.5597 160.363 44.3317 165.593C43.1036 170.823 43.7876 176.32 46.26 181.09C60.7291 176.411 73.3202 167.222 82.19 154.87L82.16 154.84Z" fill="#DE3C74"/>
<path d="M0.13 205.05L0 205.18V357.87L0.13 358L45 313.13V249.92L0.13 205.05Z" fill="#FB68F8"/>
<path d="M0.130005 205.05V236.78L22.56 259.21L45 249.92L0.130005 205.05Z" fill="#FFAAFC"/>
<path d="M0.13 236.78L0 236.91V326.15L0.13 326.28L22.56 303.84V259.21L0.13 236.78Z" fill="#FFCDF9"/>
<path d="M16.45 253.06L0 269.51V281.8L22.54 259.31V259.23L16.45 253.06Z" fill="white"/>
<path d="M0 298.62V310.95L22.54 288.42V276.08L0 298.62Z" fill="white"/>
<path d="M22.5 304.44L45 313.76L0 358.76V326.94L22.5 304.44Z" fill="#E74FD5"/>
<path d="M20 38C13.2301 38.0016 6.49527 38.9714 0 40.88L0 177.12C9.76612 179.99 20.0351 180.726 30.1107 179.279C40.1864 177.832 49.833 174.235 58.3967 168.732C66.9603 163.23 74.2407 155.951 79.7442 147.388C85.2477 138.825 88.8457 129.179 90.2941 119.103C91.7426 109.028 91.0077 98.7586 88.1392 88.9921C85.2707 79.2256 80.3358 70.1901 73.669 62.4981C67.0022 54.8062 58.7594 48.6377 49.4995 44.4108C40.2396 40.184 30.179 37.9976 20 38Z" fill="#FFDA47"/>
<path d="M68.67 90.0001H0V117.38C4.41795 116.445 8.54416 114.455 12.0267 111.58C15.5092 108.705 18.2448 105.031 20 100.87C22.3225 106.394 26.3561 111.028 31.5078 114.089C36.6596 117.151 42.6576 118.479 48.6201 117.878C54.5826 117.276 60.195 114.778 64.6321 110.75C69.0692 106.722 72.0968 101.377 73.27 95.5001C73.3952 94.8266 73.3701 94.1337 73.1964 93.471C73.0227 92.8084 72.7048 92.1923 72.2653 91.6668C71.8258 91.1413 71.2756 90.7194 70.6541 90.4313C70.0325 90.1431 69.355 89.9959 68.67 90.0001Z" fill="#2E3338"/>
<path d="M7.5 124.5C7.5 124.5 19.5 140.5 32.5 124.5" stroke="#2E3338" stroke-width="5" stroke-miterlimit="10" stroke-linecap="round"/>
<path d="M62.17 90H47.68L28.68 112.15C31.7072 114.501 35.1862 116.203 38.9 117.15L62.17 90Z" fill="#747F8D"/>
<path d="M0 115.87L22.17 90H17.81H7.68L0 98.97V115.87Z" fill="#747F8D"/>
<path opacity="0.35" d="M617.46 307.25L660 250.81V229.39L593.19 309.34C593.52 309.65 593.86 309.96 594.19 310.24C595.903 311.6 597.87 312.603 599.977 313.19C602.084 313.777 604.287 313.936 606.456 313.657C608.625 313.378 610.716 312.668 612.606 311.567C614.496 310.467 616.147 308.999 617.46 307.25Z" fill="#F79400"/>
<path d="M219.84 11.0001C219.498 10.9983 219.16 11.0723 218.851 11.2168C218.541 11.3613 218.267 11.5726 218.049 11.8357C217.831 12.0987 217.674 12.4069 217.59 12.7379C217.505 13.069 217.495 13.4147 217.56 13.7501C218.031 16.2127 219.043 18.5398 220.523 20.5633C222.004 22.5868 223.915 24.2559 226.12 25.4501C229.492 27.1649 233.242 28.0041 237.023 27.8905C240.805 27.7769 244.497 26.7142 247.76 24.8001C249.742 23.5924 251.45 21.9838 252.775 20.0775C254.099 18.1712 255.01 16.0092 255.45 13.7301C255.514 13.3959 255.502 13.0517 255.417 12.7224C255.331 12.3931 255.174 12.0868 254.956 11.8257C254.738 11.5645 254.464 11.355 254.156 11.2123C253.847 11.0695 253.51 10.997 253.17 11.0001H219.84Z" fill="#2E3338"/>
<path d="M232.07 15.8298C227.65 15.7405 223.265 16.6319 219.23 18.4398C220.747 21.43 223.154 23.8757 226.12 25.4398C229.492 27.1546 233.242 27.9939 237.023 27.8803C240.805 27.7667 244.497 26.704 247.76 24.7898C248.528 24.3272 249.254 23.7985 249.93 23.2098C248.5 18.9998 241.05 15.8298 232.07 15.8298Z" fill="#FB68F8"/>
<path d="M639 121.65C639 118.281 638.141 114.967 636.504 112.022C634.867 109.077 632.505 106.598 629.643 104.82C626.781 103.042 623.513 102.024 620.147 101.861C616.782 101.698 613.43 102.397 610.41 103.89C611.143 100.967 611.199 97.916 610.576 94.9681C609.952 92.0202 608.665 89.2533 606.811 86.8778C604.958 84.5022 602.587 82.5805 599.879 81.2587C597.172 79.937 594.198 79.25 591.185 79.25C588.172 79.25 585.198 79.937 582.491 81.2587C579.783 82.5805 577.412 84.5022 575.559 86.8778C573.705 89.2533 572.418 92.0202 571.794 94.9681C571.171 97.916 571.227 100.967 571.96 103.89C569.449 102.658 566.705 101.971 563.91 101.876C561.114 101.78 558.33 102.278 555.741 103.336C553.151 104.394 550.815 105.988 548.886 108.014C546.958 110.039 545.48 112.451 544.55 115.089C543.62 117.727 543.259 120.532 543.492 123.32C543.724 126.107 544.544 128.814 545.898 131.262C547.251 133.709 549.108 135.843 551.346 137.521C553.583 139.2 556.151 140.385 558.88 141C556.95 143.085 555.491 145.562 554.603 148.261C553.714 150.96 553.417 153.819 553.731 156.643C554.044 159.467 554.962 162.191 556.421 164.629C557.881 167.067 559.848 169.163 562.188 170.774C564.529 172.385 567.189 173.473 569.988 173.966C572.786 174.458 575.658 174.342 578.408 173.627C581.158 172.911 583.722 171.612 585.926 169.818C588.129 168.025 589.921 165.778 591.18 163.23C592.439 165.778 594.231 168.025 596.434 169.818C598.638 171.612 601.202 172.911 603.952 173.627C606.702 174.342 609.574 174.458 612.372 173.966C615.171 173.473 617.831 172.385 620.172 170.774C622.512 169.163 624.479 167.067 625.939 164.629C627.398 162.191 628.316 159.467 628.629 156.643C628.943 153.819 628.646 150.96 627.757 148.261C626.869 145.562 625.41 143.085 623.48 141C627.883 140.023 631.821 137.573 634.643 134.055C637.465 130.536 639.002 126.16 639 121.65Z" fill="#D99CFF"/>
<path d="M602.93 109.24C602.198 109.005 601.427 108.917 600.66 108.98C599.894 109.044 599.148 109.257 598.464 109.609C597.781 109.961 597.173 110.445 596.677 111.032C596.18 111.619 595.804 112.298 595.57 113.03L591.92 124.41L588 112.25C587.789 111.49 587.426 110.779 586.934 110.163C586.442 109.546 585.83 109.034 585.135 108.66C584.441 108.285 583.678 108.054 582.892 107.982C582.106 107.909 581.313 107.996 580.562 108.238C579.81 108.479 579.115 108.869 578.519 109.386C577.922 109.902 577.435 110.534 577.089 111.243C576.742 111.952 576.542 112.724 576.501 113.512C576.46 114.3 576.579 115.089 576.85 115.83L581.85 131.38C579.948 132.464 578.357 134.02 577.231 135.898C576.105 137.776 575.481 139.912 575.42 142.1C575.42 149.43 582.42 155.37 591.03 155.37C599.64 155.37 606.64 149.43 606.64 142.1C606.603 140.207 606.133 138.348 605.267 136.665C604.4 134.982 603.159 133.519 601.64 132.39L606.71 116.61C607.185 115.131 607.054 113.525 606.345 112.143C605.636 110.761 604.408 109.717 602.93 109.24Z" fill="#FFCB1F"/>
<path d="M589.766 144.721C594.566 141.556 596.402 135.873 593.866 132.028C591.331 128.182 585.384 127.631 580.584 130.795C575.785 133.96 573.949 139.643 576.485 143.489C579.02 147.334 584.967 147.886 589.766 144.721Z" fill="#FFB300"/>
<path d="M590.09 144.53C590.774 144.052 591.41 143.509 591.99 142.91C591.015 140.143 589.368 137.662 587.197 135.689C585.025 133.717 582.398 132.315 579.55 131.61C578.828 132.202 578.174 132.873 577.6 133.61C580.18 133.92 587 135.65 590.09 144.53Z" fill="#FF9B00"/>
<path d="M606.15 138.79L598.65 131.28C598.147 130.776 597.551 130.377 596.893 130.104C596.236 129.831 595.532 129.691 594.82 129.691C594.108 129.691 593.404 129.831 592.747 130.104C592.089 130.377 591.493 130.776 590.99 131.28C589.976 132.295 589.406 133.67 589.406 135.105C589.406 136.54 589.976 137.915 590.99 138.93L602.84 150.77C604.025 149.655 604.973 148.313 605.628 146.823C606.282 145.333 606.63 143.727 606.65 142.1C606.653 140.978 606.485 139.861 606.15 138.79Z" fill="#FFE55E"/>
<path d="M588.78 405.78C585.67 412.35 580.7 423.47 580.7 427.47C580.705 428.486 580.857 429.497 581.15 430.47C581.873 431.5 582.82 432.352 583.92 432.964C585.02 433.575 586.244 433.929 587.5 434C593.3 434 598 426.39 598 417C598 416.42 598 415.84 598 415.27C596.57 411.88 595 408.45 593.74 405.78C593.528 405.299 593.181 404.89 592.74 404.603C592.3 404.316 591.786 404.163 591.26 404.163C590.734 404.163 590.22 404.316 589.78 404.603C589.339 404.89 588.992 405.299 588.78 405.78Z" fill="#356DF0"/>
<path d="M588.95 413.347C589.511 411.788 589.545 410.373 589.025 410.186C588.506 409.999 587.63 411.111 587.069 412.67C586.508 414.229 586.474 415.644 586.994 415.831C587.513 416.018 588.389 414.906 588.95 413.347Z" fill="#92AEF0"/>
<path d="M559 344C570.42 350.5 581.31 347.61 589 343.52C588.735 341.523 587.874 339.653 586.529 338.155C585.183 336.656 583.417 335.598 581.46 335.12C583.136 333.381 584.259 331.186 584.69 328.81C581.348 329.312 578.082 330.232 574.97 331.55C568.576 334.106 563.038 338.423 559 344Z" fill="#2964F0"/>
<path d="M90 24H78V30H90V24Z" fill="#FFB300"/>
<path d="M31.05 0C37.6002 9.27646 46.2832 16.8435 56.3679 22.0643C66.4526 27.285 77.644 30.0066 89 30C100.364 30.0147 111.566 27.2969 121.66 22.0758C131.754 16.8547 140.445 9.28337 147 0L31.05 0Z" fill="#FFDA47"/>
</g>
<defs>
<linearGradient id="paint0_linear_6264_65668" x1="71.37" y1="81.37" x2="644.38" y2="415.1" gradientUnits="userSpaceOnUse">
<stop offset="0.16" stop-color="#A764ED"/>
<stop offset="0.43" stop-color="#B670DC"/>
<stop offset="0.94" stop-color="#DD8EAF"/>
<stop offset="1" stop-color="#E292AA"/>
</linearGradient>
<linearGradient id="paint1_linear_6264_65668" x1="166.499" y1="116.506" x2="681.73" y2="258.761" gradientUnits="userSpaceOnUse">
<stop stop-color="#8547C6"/>
<stop offset="0.52899" stop-color="#B845C1"/>
<stop offset="1" stop-color="#AB5D8A"/>
</linearGradient>
<linearGradient id="paint2_linear_6264_65668" x1="133.38" y1="70.6099" x2="162.68" y2="87.6699" gradientUnits="userSpaceOnUse">
<stop offset="0.16" stop-color="#FFBAF5"/>
<stop offset="0.29" stop-color="#FFC9F7"/>
<stop offset="0.45" stop-color="#FFD6F9"/>
<stop offset="0.59" stop-color="#FFDBFA"/>
</linearGradient>
<linearGradient id="paint3_linear_6264_65668" x1="161.01" y1="69.14" x2="186.04" y2="37.23" gradientUnits="userSpaceOnUse">
<stop offset="0.2" stop-color="#FFBAF5"/>
<stop offset="0.41" stop-color="#FFCCF8"/>
<stop offset="0.63" stop-color="#FFDBFA"/>
</linearGradient>
<linearGradient id="paint4_linear_6264_65668" x1="117.92" y1="74.62" x2="150.5" y2="33.07" gradientUnits="userSpaceOnUse">
<stop offset="0.2" stop-color="#FFBAF5"/>
<stop offset="0.45" stop-color="#FFCCF8"/>
<stop offset="0.71" stop-color="#FFDBFA"/>
</linearGradient>
</defs>
</svg>
