<svg width="94" height="53" viewBox="0 0 94 53" fill="none" xmlns="http://www.w3.org/2000/svg">
<path d="M68.3886 39.8477C66.2691 39.8477 64.5451 38.1224 64.5451 36.0029C64.5451 33.8834 66.2691 32.1593 68.3886 32.1593C70.5081 32.1593 72.2321 33.8834 72.2321 36.0029C72.2321 38.1224 70.5081 39.8477 68.3886 39.8477ZM25.9039 39.8477C23.7844 39.8477 22.0604 38.1224 22.0604 36.0029C22.0604 33.8834 23.7844 32.1593 25.9039 32.1593C28.0234 32.1593 29.7474 33.8834 29.7474 36.0029C29.7474 38.1224 28.0234 39.8477 25.9039 39.8477ZM69.7671 16.6941L77.4492 3.3896C77.8896 2.62488 77.6276 1.64809 76.8641 1.20648C76.1006 0.766114 75.1226 1.02809 74.681 1.79155L66.9029 15.2645C60.9548 12.55 54.2745 11.038 47.1462 11.038C40.018 11.038 33.3377 12.55 27.3897 15.2645L19.6115 1.79155C19.1699 1.02809 18.1919 0.766114 17.4284 1.20648C16.665 1.64809 16.4017 2.62488 16.8434 3.3896L24.5254 16.6941C11.3344 23.8685 2.31251 37.2229 0.992676 53H93.2998C91.9788 37.2229 82.9569 23.8685 69.7671 16.6941Z" fill="#5865f2"/>
</svg>
