<svg width="539" height="140" viewBox="0 0 539 140" fill="none" xmlns="http://www.w3.org/2000/svg">
<g clip-path="url(#clip0_2482_304694)">
<path d="M69.2756 56.2158C65.3962 41.7376 50.5143 33.1455 36.036 37.025C21.5578 40.9044 12.9657 55.7863 16.8452 70.2645C20.7246 84.7428 35.6065 93.3349 50.0847 89.4554C64.563 85.576 73.155 70.6941 69.2756 56.2158Z" fill="black"/>
<path d="M54.0901 66.73C55.6701 65.86 56.7501 64.17 56.7501 62.24C56.7501 59.41 54.4501 57.11 51.6201 57.11H50.1701C51.4101 50.52 51.2701 45.42 49.6601 45.01C47.9501 44.57 45.1501 49.61 43.0201 56.69C42.9901 56.8 42.8301 56.8 42.8001 56.69C40.9401 49.6 38.3601 44.51 36.6401 44.88C35.0101 45.23 34.6801 50.4 35.6901 57.12H34.4901C31.6601 57.12 29.3601 59.42 29.3601 62.25C29.3601 64.19 30.4301 65.87 32.0201 66.74C29.7701 67.31 28.1101 69.36 28.1501 71.79C28.2001 74.61 30.5901 76.83 33.4201 76.83H52.7001C55.5201 76.83 57.9201 74.61 57.9701 71.79C58.0101 69.36 56.3501 67.31 54.1001 66.74L54.0901 66.73Z" fill="#E8459C"/>
<path d="M41.2603 61.02C40.4202 60.18 38.8603 60.39 37.7503 61.46C37.7503 61.46 37.7103 61.49 37.7003 61.51C37.6903 61.53 37.6703 61.55 37.6503 61.56L37.3703 61.84L36.9903 61.46C35.8703 60.39 34.3103 60.18 33.4803 61.02C32.6403 61.86 32.8503 63.42 33.9203 64.53C33.9203 64.53 33.9503 64.57 33.9703 64.58C33.9903 64.59 34.0103 64.61 34.0203 64.63L34.3003 64.91L36.0703 66.68C36.7903 67.4 37.9503 67.4 38.6703 66.68L40.4403 64.91L40.8203 64.53C41.9003 63.41 42.1003 61.85 41.2603 61.02Z" fill="#F3DB53"/>
<path d="M52.65 61.02C51.81 60.18 50.25 60.39 49.14 61.46C49.14 61.46 49.1 61.49 49.09 61.51C49.08 61.53 49.06 61.55 49.04 61.56L48.76 61.84L48.38 61.46C47.26 60.39 45.7 60.18 44.87 61.02C44.04 61.86 44.24 63.42 45.31 64.53C45.31 64.53 45.34 64.57 45.36 64.58C45.38 64.59 45.4 64.61 45.41 64.63L45.69 64.91L47.46 66.68C48.18 67.4 49.34 67.4 50.06 66.68L51.83 64.91L52.21 64.53C53.29 63.41 53.49 61.85 52.65 61.02Z" fill="#F3DB53"/>
<path d="M40.1299 70.2301C39.5499 70.0601 39.0099 70.6001 39.1999 71.1701C39.7399 72.7901 41.2599 73.9601 43.0599 73.9601C44.8599 73.9601 46.3799 72.7901 46.9199 71.1701C47.1099 70.6001 46.5599 70.0501 45.9899 70.2301C44.0799 70.8001 42.0399 70.8001 40.1299 70.2301Z" fill="#25272A"/>
<path d="M138.815 98.9031C134.936 84.4248 120.054 75.8328 105.576 79.7122C91.0973 83.5917 82.5053 98.4735 86.3847 112.952C90.2641 127.43 105.146 136.022 119.624 132.143C134.103 128.263 142.695 113.381 138.815 98.9031Z" fill="black"/>
<path d="M106.14 101.92C107.32 105.64 106.6 109.19 104.54 109.84L100.28 96.3502C102.34 95.7002 104.96 98.1902 106.13 101.92H106.14Z" fill="#5665EF"/>
<path d="M119.05 101.92C117.87 105.64 118.59 109.19 120.65 109.84L124.91 96.3502C122.85 95.7002 120.23 98.1902 119.06 101.92H119.05Z" fill="#5665EF"/>
<path d="M112.44 121.91C119.156 121.91 124.6 117.531 124.6 112.13C124.6 106.729 119.156 102.35 112.44 102.35C105.724 102.35 100.28 106.729 100.28 112.13C100.28 117.531 105.724 121.91 112.44 121.91Z" fill="#5665EF"/>
<path d="M119.76 106C118.44 108.81 115.67 110.74 112.45 110.74C109.23 110.74 106.45 108.81 105.13 106C106.49 104.52 107.37 102.14 107.37 99.4702C107.37 98.7602 107.31 98.0702 107.19 97.4102C108.61 98.2302 110.44 98.7202 112.44 98.7202C114.44 98.7202 116.28 98.2202 117.69 97.4102C117.57 98.0702 117.51 98.7602 117.51 99.4702C117.51 102.14 118.39 104.52 119.75 106H119.76Z" fill="#5665EF"/>
<path d="M120.56 102.35C120.56 103.66 120.27 104.9 119.75 106C118.39 104.52 117.51 102.14 117.51 99.4702C117.51 98.7602 117.57 98.0702 117.69 97.4102C116.28 98.2302 114.44 98.7202 112.44 98.7202C110.44 98.7202 108.6 98.2202 107.19 97.4102C107.31 98.0702 107.37 98.7602 107.37 99.4702C107.37 102.14 106.49 104.52 105.13 106C104.61 104.9 104.32 103.66 104.32 102.35C104.32 100.24 105.08 98.3102 106.32 96.8302C106.5 96.6202 106.69 96.4102 106.9 96.2102C107.4 95.7302 107.95 95.3102 108.55 94.9802C108.47 94.6602 108.42 94.3102 108.42 93.9602C108.42 91.7402 110.22 89.9402 112.44 89.9402C114.66 89.9402 116.46 91.7402 116.46 93.9602C116.46 94.3102 116.41 94.6602 116.33 94.9802C116.93 95.3202 117.48 95.7302 117.98 96.2102C118.18 96.4002 118.38 96.6102 118.56 96.8302C119.81 98.3102 120.56 100.24 120.56 102.35Z" fill="#23272A"/>
<path d="M112.44 106.84C113.964 106.84 115.2 105.604 115.2 104.08C115.2 102.556 113.964 101.32 112.44 101.32C110.915 101.32 109.68 102.556 109.68 104.08C109.68 105.604 110.915 106.84 112.44 106.84Z" fill="white"/>
<path d="M112.44 119.82C115.428 119.82 117.85 117.398 117.85 114.41C117.85 111.422 115.428 109 112.44 109C109.452 109 107.03 111.422 107.03 114.41C107.03 117.398 109.452 119.82 112.44 119.82Z" fill="#23272A"/>
<path d="M112.44 105.36C113.147 105.36 113.72 104.787 113.72 104.08C113.72 103.373 113.147 102.8 112.44 102.8C111.733 102.8 111.16 103.373 111.16 104.08C111.16 104.787 111.733 105.36 112.44 105.36Z" fill="#25272A"/>
<path d="M115.37 113.98C115.95 114.15 116.49 113.61 116.3 113.04C115.76 111.42 114.24 110.25 112.44 110.25C110.64 110.25 109.12 111.42 108.58 113.04C108.39 113.61 108.94 114.16 109.51 113.98C111.42 113.41 113.46 113.41 115.37 113.98Z" fill="white"/>
<path d="M465.812 101.027C461.932 86.5486 447.05 77.9566 432.572 81.836C418.094 85.7154 409.502 100.597 413.381 115.076C417.261 129.554 432.143 138.146 446.621 134.266C461.099 130.387 469.691 115.505 465.812 101.027Z" fill="black"/>
<path d="M451.73 118C450.61 118.86 449.2 119.39 447.68 119.39H431.53C430 119.39 428.6 118.87 427.48 118C425.53 116.5 424.68 113.98 425.09 111.57L426.07 105.8C429.5 109.26 434.43 111.42 439.91 111.42C445.39 111.42 449.83 109.47 453.23 106.29L454.13 111.57C454.54 113.98 453.68 116.5 451.73 118Z" fill="#A9F9E6"/>
<path d="M453.22 106.28C449.82 109.45 445.11 111.41 439.9 111.41C434.42 111.41 429.49 109.25 426.06 105.79L426.81 101.41C427.27 98.69 429.63 96.7 432.39 96.7C433.64 96.7 434.77 97.2 435.59 98.02C436.41 98.84 436.91 99.97 436.91 101.22H442.28C442.28 99.97 442.79 98.84 443.6 98.02C444.42 97.2 445.55 96.7 446.8 96.7C448.18 96.7 449.46 97.2 450.46 98.03C451.44 98.87 452.16 100.04 452.39 101.4L453.22 106.27V106.28Z" fill="#7DE3CB"/>
<path d="M438.32 108.44C438.05 108.44 437.8 108.27 437.71 108L437.16 106.42C437.04 106.08 437.22 105.71 437.56 105.6C437.89 105.49 438.27 105.66 438.38 106L438.93 107.58C439.05 107.92 438.87 108.29 438.53 108.4C438.46 108.42 438.39 108.44 438.32 108.44Z" fill="#23272A"/>
<path d="M440.88 108.44C440.81 108.44 440.74 108.43 440.67 108.4C440.33 108.28 440.15 107.91 440.27 107.58L440.82 106C440.94 105.66 441.31 105.49 441.64 105.6C441.98 105.72 442.16 106.09 442.04 106.42L441.49 108C441.4 108.27 441.15 108.44 440.88 108.44Z" fill="#23272A"/>
<path d="M433.21 102.19C432.85 102.19 432.56 101.9 432.56 101.54C432.56 100.68 432.11 100.08 431.71 100.08C431.31 100.08 430.86 100.68 430.86 101.54C430.86 101.9 430.57 102.19 430.21 102.19C429.85 102.19 429.56 101.9 429.56 101.54C429.56 100 430.5 98.79 431.7 98.79C432.9 98.79 433.84 100 433.84 101.54C433.84 101.9 433.55 102.19 433.19 102.19H433.21Z" fill="#23272A"/>
<path d="M448.97 102.19C448.61 102.19 448.32 101.9 448.32 101.54C448.32 100.68 447.87 100.08 447.47 100.08C447.07 100.08 446.62 100.68 446.62 101.54C446.62 101.9 446.33 102.19 445.97 102.19C445.61 102.19 445.32 101.9 445.32 101.54C445.32 100 446.26 98.79 447.46 98.79C448.66 98.79 449.6 100 449.6 101.54C449.6 101.9 449.31 102.19 448.95 102.19H448.97Z" fill="#23272A"/>
<path d="M439.9 112.06C434.48 112.06 429.27 109.94 425.6 106.25C425.35 106 425.35 105.59 425.6 105.34C425.85 105.09 426.26 105.09 426.51 105.34C429.93 108.79 434.81 110.77 439.89 110.77C444.97 110.77 449.35 109.01 452.77 105.82C453.03 105.58 453.44 105.59 453.68 105.85C453.92 106.11 453.91 106.52 453.65 106.76C449.99 110.18 445.1 112.06 439.89 112.06H439.9Z" fill="#23272A"/>
<path d="M452.68 109.68C454.729 109.68 456.39 108.426 456.39 106.88C456.39 105.334 454.729 104.08 452.68 104.08C450.631 104.08 448.97 105.334 448.97 106.88C448.97 108.426 450.631 109.68 452.68 109.68Z" fill="#E8459C"/>
<path d="M426.52 109.68C428.569 109.68 430.23 108.426 430.23 106.88C430.23 105.334 428.569 104.08 426.52 104.08C424.471 104.08 422.81 105.334 422.81 106.88C422.81 108.426 424.471 109.68 426.52 109.68Z" fill="#E8459C"/>
<path d="M412.266 42.3365C408.387 27.8582 393.505 19.2661 379.027 23.1456C364.548 27.025 355.956 41.9069 359.836 56.3851C363.715 70.8634 378.597 79.4555 393.075 75.576C407.554 71.6966 416.146 56.8147 412.266 42.3365Z" fill="black"/>
<path d="M395.79 39.73H376.3C373.329 39.73 370.92 42.1387 370.92 45.11V53.6C370.92 56.5713 373.329 58.98 376.3 58.98H395.79C398.762 58.98 401.17 56.5713 401.17 53.6V45.11C401.17 42.1387 398.762 39.73 395.79 39.73Z" fill="#6A94FF"/>
<path d="M391.02 43.1199H381.08C379.688 43.1199 378.56 44.2481 378.56 45.6399V49.6599C378.56 51.0516 379.688 52.1799 381.08 52.1799H391.02C392.412 52.1799 393.54 51.0516 393.54 49.6599V45.6399C393.54 44.2481 392.412 43.1199 391.02 43.1199Z" fill="#B9CEFF"/>
<path d="M397.05 49.2899C398.265 49.2899 399.25 47.7498 399.25 45.8499C399.25 43.9501 398.265 42.4099 397.05 42.4099C395.835 42.4099 394.85 43.9501 394.85 45.8499C394.85 47.7498 395.835 49.2899 397.05 49.2899Z" fill="white"/>
<path d="M396.1 48.0199C396.708 48.0199 397.201 47.0484 397.201 45.8499C397.201 44.6515 396.708 43.6799 396.1 43.6799C395.493 43.6799 395 44.6515 395 45.8499C395 47.0484 395.493 48.0199 396.1 48.0199Z" fill="#23272A"/>
<path d="M375.14 49.2899C376.355 49.2899 377.34 47.7498 377.34 45.8499C377.34 43.9501 376.355 42.4099 375.14 42.4099C373.925 42.4099 372.94 43.9501 372.94 45.8499C372.94 47.7498 373.925 49.2899 375.14 49.2899Z" fill="white"/>
<path d="M374.19 48.0199C374.798 48.0199 375.29 47.0484 375.29 45.8499C375.29 44.6515 374.798 43.6799 374.19 43.6799C373.583 43.6799 373.09 44.6515 373.09 45.8499C373.09 47.0484 373.583 48.0199 374.19 48.0199Z" fill="#23272A"/>
<path d="M390 48.1699H388.25C387.687 48.1699 387.23 48.6244 387.23 49.1849C387.23 49.7455 387.687 50.1999 388.25 50.1999H390C390.564 50.1999 391.02 49.7455 391.02 49.1849C391.02 48.6244 390.564 48.1699 390 48.1699Z" fill="#6A94FF"/>
<path d="M383.84 48.1699H382.09C381.527 48.1699 381.07 48.6244 381.07 49.1849C381.07 49.7455 381.527 50.1999 382.09 50.1999H383.84C384.404 50.1999 384.86 49.7455 384.86 49.1849C384.86 48.6244 384.404 48.1699 383.84 48.1699Z" fill="#6A94FF"/>
<path d="M371.12 54.02H369.39C368.1 54.02 367.05 52.97 367.05 51.68V47.02C367.05 45.73 368.1 44.68 369.39 44.68H371.12V54.01V54.02Z" fill="#6A94FF"/>
<path d="M400.97 44.6899H402.7C403.99 44.6899 405.04 45.7399 405.04 47.0299V51.6899C405.04 52.9799 403.99 54.0299 402.7 54.0299H400.97V44.6999V44.6899Z" fill="#6A94FF"/>
<path d="M371.12 52.1799H370.08C369.3 52.1799 368.67 51.5499 368.67 50.7699V47.9499C368.67 47.1699 369.3 46.5399 370.08 46.5399H371.12V52.1799Z" fill="#B9CEFF"/>
<path d="M400.97 46.53H402.01C402.79 46.53 403.42 47.16 403.42 47.94V50.76C403.42 51.54 402.79 52.17 402.01 52.17H400.97V46.53Z" fill="#B9CEFF"/>
<path d="M387.66 58.4899C387.05 58.4899 386.18 58.2399 385.16 57.2499C384.93 57.0299 384.93 56.6699 385.15 56.4399C385.37 56.2099 385.73 56.2099 385.96 56.4299C386.63 57.0799 387.27 57.3999 387.79 57.3399C388.06 57.3099 388.28 57.1599 388.43 56.9099C388.53 56.7399 388.56 56.5799 388.5 56.3899C388.39 56.0399 388 55.6799 387.49 55.4499C387.28 55.3599 387.15 55.1499 387.15 54.9299C387.15 54.7099 387.28 54.4999 387.49 54.4099C388 54.1799 388.39 53.8199 388.5 53.4699C388.56 53.2899 388.53 53.1199 388.43 52.9499C388.28 52.6999 388.06 52.5499 387.79 52.5199C387.28 52.4499 386.62 52.7799 385.96 53.4299C385.73 53.6499 385.37 53.6399 385.15 53.4199C384.93 53.1899 384.93 52.8299 385.16 52.6099C386.34 51.4599 387.32 51.3199 387.94 51.3899C388.56 51.4699 389.08 51.8099 389.42 52.3599C389.7 52.8099 389.76 53.3199 389.61 53.8199C389.48 54.2399 389.21 54.6199 388.82 54.9499C389.21 55.2699 389.48 55.6599 389.61 56.0799C389.76 56.5799 389.7 57.0799 389.42 57.5399C389.08 58.0899 388.56 58.4299 387.94 58.5099C387.85 58.5199 387.76 58.5299 387.67 58.5299L387.66 58.4899Z" fill="#23272A"/>
<path d="M136.94 55.4899C134.94 54.1999 133.6 52.1199 133.24 49.7699L132.64 45.7699C132.61 45.5699 132.44 45.4299 132.24 45.4299C132.04 45.4299 131.87 45.5799 131.84 45.7699L131.24 49.7699C130.89 52.1199 129.54 54.2099 127.54 55.4899L127.02 55.8199C126.91 55.8899 126.84 56.0199 126.84 56.1599V56.1799C126.84 56.3199 126.91 56.4399 127.02 56.5199L127.54 56.8499C129.54 58.1399 130.88 60.2199 131.24 62.5699L131.84 66.5699C131.87 66.7699 132.04 66.9099 132.24 66.9099C132.44 66.9099 132.61 66.7599 132.64 66.5699L133.24 62.5699C133.59 60.2199 134.94 58.1299 136.94 56.8499L137.46 56.5199C137.57 56.4499 137.64 56.3199 137.64 56.1799V56.1599C137.64 56.0199 137.57 55.8999 137.46 55.8199L136.94 55.4899Z" fill="#FFE15C"/>
<path d="M10.0902 94.58C8.09023 93.29 6.75023 91.21 6.39023 88.86L5.79023 84.86C5.76023 84.66 5.59023 84.52 5.39023 84.52C5.19023 84.52 5.02023 84.67 4.99023 84.86L4.39023 88.86C4.04023 91.21 2.69023 93.3 0.690234 94.58L0.170234 94.91C0.0602344 94.98 -0.00976562 95.11 -0.00976562 95.25V95.27C-0.00976562 95.41 0.0602344 95.53 0.170234 95.61L0.690234 95.94C2.69023 97.23 4.03023 99.31 4.39023 101.66L4.99023 105.66C5.02023 105.86 5.19023 106 5.39023 106C5.59023 106 5.76023 105.85 5.79023 105.66L6.39023 101.66C6.74023 99.31 8.09023 97.22 10.0902 95.94L10.6102 95.61C10.7202 95.54 10.7902 95.41 10.7902 95.27V95.25C10.7902 95.11 10.7202 94.99 10.6102 94.91L10.0902 94.58Z" fill="#86D3FF"/>
<path d="M470.83 61.8901C468.83 60.6001 467.49 58.5201 467.13 56.1701L466.53 52.1701C466.5 51.9701 466.33 51.8301 466.13 51.8301C465.93 51.8301 465.76 51.9801 465.73 52.1701L465.13 56.1701C464.78 58.5201 463.43 60.6101 461.43 61.8901L460.91 62.2201C460.8 62.2901 460.73 62.4201 460.73 62.5601V62.5801C460.73 62.7201 460.8 62.8401 460.91 62.9201L461.43 63.2501C463.43 64.5401 464.77 66.6201 465.13 68.9701L465.73 72.9701C465.76 73.1701 465.93 73.3101 466.13 73.3101C466.33 73.3101 466.5 73.1601 466.53 72.9701L467.13 68.9701C467.48 66.6201 468.83 64.5301 470.83 63.2501L471.35 62.9201C471.46 62.8501 471.53 62.7201 471.53 62.5801V62.5601C471.53 62.4201 471.46 62.3001 471.35 62.2201L470.83 61.8901Z" fill="#5A65EC"/>
<path d="M351.71 14.98C348.74 13.06 346.73 9.96 346.21 6.46L345.32 0.51C345.28 0.22 345.02 0 344.73 0C344.43 0 344.18 0.22 344.14 0.51L343.25 6.46C342.73 9.96 340.72 13.06 337.75 14.98L336.98 15.48C336.81 15.59 336.71 15.78 336.71 15.98V16.02C336.71 16.22 336.81 16.41 336.98 16.52L337.75 17.02C340.72 18.94 342.73 22.04 343.25 25.54L344.14 31.49C344.18 31.78 344.44 32 344.73 32C345.03 32 345.28 31.78 345.32 31.49L346.21 25.54C346.73 22.04 348.74 18.94 351.71 17.02L352.48 16.52C352.65 16.41 352.75 16.22 352.75 16.02V15.98C352.75 15.78 352.65 15.59 352.48 15.48L351.71 14.98Z" fill="#E8459C"/>
<path d="M112.93 24.73C109.96 22.81 107.95 19.71 107.43 16.21L106.54 10.26C106.5 9.97 106.24 9.75 105.95 9.75C105.65 9.75 105.4 9.97 105.36 10.26L104.47 16.21C103.95 19.71 101.94 22.81 98.9702 24.73L98.2002 25.23C98.0302 25.34 97.9302 25.53 97.9302 25.73V25.77C97.9302 25.97 98.0302 26.16 98.2002 26.27L98.9702 26.77C101.94 28.69 103.95 31.79 104.47 35.29L105.36 41.24C105.4 41.53 105.66 41.75 105.95 41.75C106.25 41.75 106.5 41.53 106.54 41.24L107.43 35.29C107.95 31.79 109.96 28.69 112.93 26.77L113.7 26.27C113.87 26.16 113.97 25.97 113.97 25.77V25.73C113.97 25.53 113.87 25.34 113.7 25.23L112.93 24.73Z" fill="#89FFA7"/>
<path d="M395.67 98.4101C393.67 97.1201 392.33 95.0401 391.97 92.6901L391.37 88.6901C391.34 88.4901 391.17 88.3501 390.97 88.3501C390.77 88.3501 390.6 88.5001 390.57 88.6901L389.97 92.6901C389.62 95.0401 388.27 97.1301 386.27 98.4101L385.75 98.7401C385.64 98.8101 385.57 98.9401 385.57 99.0801V99.1001C385.57 99.2401 385.64 99.3601 385.75 99.4401L386.27 99.7701C388.27 101.06 389.61 103.14 389.97 105.49L390.57 109.49C390.6 109.69 390.77 109.83 390.97 109.83C391.17 109.83 391.34 109.68 391.37 109.49L391.97 105.49C392.32 103.14 393.67 101.05 395.67 99.7701L396.19 99.4401C396.3 99.3701 396.37 99.2401 396.37 99.1001V99.0801C396.37 98.9401 396.3 98.8201 396.19 98.7401L395.67 98.4101Z" fill="#FFE15C"/>
<path fill-rule="evenodd" clip-rule="evenodd" d="M279.31 59.6601C279.26 58.2601 278.66 56.9301 277.63 55.9701L223.08 5.03009C222.73 4.70009 222.16 4.97009 222.19 5.45009L223.88 29.2001C224.15 32.9801 225.84 36.5201 228.61 39.1101L264.76 72.9701L263.5 74.3201L262.85 75.0101C262.01 75.9101 262.06 77.3201 262.96 78.1601L275.08 89.4801L280.14 84.0601L279.31 59.6701V59.6601Z" fill="#7687B2"/>
<path d="M342.01 71.71C339.73 67.78 337.45 64.44 331.46 68.7C328.34 65.3 324.71 68.09 325.21 72.03C316.46 76.4 308.1 76.07 301.28 74.2C301.28 74.2 299.29 90.37 299.59 91.21C306.83 91.46 323.77 89.23 336.04 82.93C341.93 79.98 344.28 75.62 342.02 71.72L342.01 71.71Z" fill="#698FFF"/>
<path d="M298.18 93.5L313.92 99.88C316.87 101.08 320.24 99.69 321.49 96.75L327.86 81.75" stroke="#DCE4FF" stroke-width="2.5" stroke-miterlimit="10" stroke-linecap="round"/>
<path fill-rule="evenodd" clip-rule="evenodd" d="M262.96 73.91C266.83 92.15 255.17 110.07 236.93 113.94C218.69 117.81 200.77 106.15 196.9 87.91C193.03 69.67 204.69 51.75 222.93 47.88C241.17 44.01 259.09 55.67 262.96 73.91Z" fill="#4F5D7F"/>
<path fill-rule="evenodd" clip-rule="evenodd" d="M251.39 76.3601C253.9 88.2101 246.33 99.8601 234.48 102.37C222.63 104.88 210.98 97.3101 208.47 85.4601C205.96 73.6101 213.53 61.9601 225.38 59.4501C237.23 56.9401 248.88 64.5101 251.39 76.3601Z" fill="#4F5D7F"/>
<path fill-rule="evenodd" clip-rule="evenodd" d="M258.04 60.17C256.9 65.21 240.76 74.29 230.48 79.02C222.49 77.18 202.85 71.64 199.28 66C198.77 65.19 198.8 64.67 198.88 64.35C198.92 64.16 199 63.97 199.11 63.77C204.23 54.58 212.57 48.35 222.59 46.22C235.21 43.55 248.35 48.28 257.73 58.88C258.07 59.2701 258.16 59.64 258.04 60.16V60.17Z" fill="#FF7F14"/>
<path fill-rule="evenodd" clip-rule="evenodd" d="M232.13 79.33C232.13 79.33 205.03 52.94 209.18 49.77C213.33 46.6 218.22 44.28 223.7 43.11C237.92 40.1 251.43 46.11 260.46 56.3C266.86 63.53 232.13 79.33 232.13 79.33Z" fill="#FF7F14"/>
<path d="M248.09 77.0601C245.96 67.0301 236.11 60.6201 226.08 62.7501C216.05 64.8801 209.64 74.7301 211.77 84.7601C213.9 94.7901 223.75 101.2 233.78 99.0701C243.81 96.9401 250.22 87.0901 248.09 77.0601Z" fill="#BCC6E8"/>
<path d="M222.87 72.81L231.72 70.05C232.26 69.88 232.85 70.01 233.27 70.4L240.08 76.68C240.5 77.06 240.68 77.64 240.55 78.19L238.51 87.23C238.39 87.78 237.98 88.23 237.43 88.4L228.58 91.16C228.04 91.33 227.45 91.2 227.03 90.81L220.22 84.53C219.8 84.15 219.62 83.57 219.75 83.02L221.79 73.98C221.91 73.43 222.32 72.98 222.87 72.81Z" fill="#ADBAE8"/>
<path d="M234.26 79.99C234.77 82.38 233.24 84.73 230.85 85.23C228.46 85.74 226.11 84.21 225.61 81.82C225.1 79.43 226.63 77.08 229.02 76.58C231.41 76.07 233.76 77.6 234.26 79.99Z" fill="#90A1DF"/>
<path d="M209.03 108.69C207.42 111.34 204.23 112.58 201.26 111.71L191.18 108.77C190.59 108.6 190.41 107.85 190.85 107.42L198.45 100.17C200.69 98.0301 204.09 97.6601 206.74 99.2701C209.97 101.24 211 105.45 209.03 108.68V108.69Z" fill="#66B6FF"/>
<path d="M209.24 106.47C208.33 107.97 206.53 108.67 204.85 108.18L199.73 106.69C199.14 106.52 198.96 105.77 199.4 105.34L203.26 101.66C204.53 100.45 206.45 100.24 207.95 101.15C209.78 102.26 210.36 104.64 209.25 106.47H209.24Z" fill="#86D3FF"/>
<path d="M243.84 96.5902L242.85 92.4202L225.96 94.8402C225.05 93.6502 223.53 93.0002 221.96 93.2702L205.98 95.1602C205.47 95.2502 205.03 95.5802 204.81 96.0502C204.24 97.2902 203.47 100.08 204.78 104.8C206.1 109.52 208.2 111.51 209.33 112.27C209.76 112.56 210.31 112.62 210.8 112.43L225.42 105.63C226.99 105.01 227.98 103.52 228.04 101.91L243.86 96.6002L243.84 96.5902Z" fill="#BCC6E8"/>
<path d="M223.86 121.04C223.32 124.09 220.79 126.4 217.7 126.66L207.23 127.56C206.62 127.61 206.18 126.98 206.44 126.42L210.91 116.91C212.23 114.11 215.26 112.54 218.32 113.08C222.04 113.75 224.53 117.3 223.86 121.03V121.04Z" fill="#66B6FF"/>
<path d="M223.26 118.89C222.95 120.61 221.52 121.92 219.78 122.07L214.46 122.53C213.85 122.58 213.41 121.95 213.67 121.39L215.94 116.56C216.69 114.97 218.4 114.09 220.13 114.4C222.24 114.78 223.64 116.79 223.26 118.89Z" fill="#86D3FF"/>
<path d="M249.61 93.2202L235.29 108.02L229.99 101.98L246.81 89.9702L249.61 93.2102V93.2202Z" fill="#DCE4FF"/>
<path d="M237.4 109.72L227.55 122.48C227.21 122.87 226.69 123.08 226.18 123.02C224.82 122.86 222.04 122.06 218.71 118.48C215.37 114.89 214.77 112.06 214.71 110.7C214.69 110.18 214.93 109.68 215.34 109.37L228.66 100.34C230.36 99.0603 232.76 99.2703 234.21 100.83L237.31 104.16C238.76 105.72 238.8 108.13 237.4 109.73V109.72Z" fill="#DCE4FF"/>
<path d="M224.5 45.44L166.33 20.23L167.39 22.76L174.15 37.99C175.68 41.46 178.46 44.22 181.94 45.73L229.59 66.4L231.27 62.51L224.5 45.45V45.44Z" fill="#BCC6E8"/>
<path d="M233.77 45.1L165.26 15.5C164.82 15.31 164.38 15.75 164.56 16.19L167.39 22.75L170.01 23.89L221.56 46.16L228.33 63.22L226.65 67.11L226.27 67.98C225.78 69.11 226.3 70.42 227.43 70.91L242.65 77.49L245.59 70.68L236.59 47.99C236.07 46.68 235.06 45.64 233.77 45.08V45.1Z" fill="#DCE4FF"/>
<path d="M252.48 66.24H277.01V101.63H245.43C243.33 101.63 241.62 99.92 241.62 97.82V77.1C241.62 71.11 246.49 66.24 252.48 66.24Z" fill="#DCE4FF"/>
<path d="M258.25 66.24H282.78V101.63H251.2C249.1 101.63 247.39 99.92 247.39 97.82V77.1C247.39 71.11 252.26 66.24 258.25 66.24Z" fill="black"/>
<path d="M262.7 104.6C258.29 109.22 253.62 113.23 247.62 118.06C242.91 121.85 243.38 129.15 248.54 132.3L248.72 132.41C251.81 134.3 255.67 134.16 258.58 132.08C264.37 127.95 270.65 122.38 275.67 116.35C275.78 116.22 275.76 116.03 275.64 115.92L263.15 104.58C263.02 104.47 262.83 104.47 262.72 104.6H262.7Z" fill="#4F6FE7"/>
<path d="M281.06 108.32C278.86 114.32 276.19 119.86 272.62 126.69C269.82 132.04 273.17 138.55 279.15 139.38L279.36 139.41C282.95 139.91 286.43 138.23 288.27 135.17C291.92 129.07 295.46 121.45 297.64 113.92C297.69 113.76 297.59 113.59 297.44 113.53L281.46 108.13C281.3 108.08 281.13 108.16 281.07 108.32H281.06Z" fill="#4F6FE7"/>
<path d="M269.04 69.5701C260.07 84.0101 247.94 101.7 260.84 110.45C270.69 117.13 285.11 119.92 295.33 118.94C305.55 117.96 307.43 107.03 307.98 94.9101C308.54 82.7901 308.04 69.8801 308.04 69.8801L269.05 69.5801L269.04 69.5701Z" fill="url(#paint0_linear_2482_304694)"/>
<path d="M269.44 74.4302C269.44 74.4302 309.87 93.5802 307.04 74.4302H269.44Z" fill="#4677F7"/>
<path d="M242.15 70.26H238.88C236.737 70.26 235 71.9971 235 74.14V77.41C235 79.5529 236.737 81.29 238.88 81.29H242.15C244.293 81.29 246.03 79.5529 246.03 77.41V74.14C246.03 71.9971 244.293 70.26 242.15 70.26Z" fill="#DCE4FF"/>
<path d="M242.84 72.9302H240.02C239.197 72.9302 238.53 73.5973 238.53 74.4202V77.2402C238.53 78.0631 239.197 78.7302 240.02 78.7302H242.84C243.663 78.7302 244.33 78.0631 244.33 77.2402V74.4202C244.33 73.5973 243.663 72.9302 242.84 72.9302Z" fill="#B5C3F3"/>
<path d="M329.52 82.4239L327.114 81.2896C326.125 80.8233 324.945 81.2472 324.479 82.2363L318.646 94.6102C318.179 95.5994 318.603 96.7792 319.592 97.2455L321.998 98.3798C322.988 98.8461 324.167 98.4222 324.634 97.4331L330.467 85.0591C330.933 84.07 330.509 82.8902 329.52 82.4239Z" fill="#242145"/>
<path d="M257.37 88.9801C255.11 92.2801 254.62 95.2301 255.19 97.7701C262.29 103.15 275.02 111.49 292.25 111.49C296.1 111.49 301.39 111.12 305.92 110.3C306.81 110.14 307.6 109.65 308.15 108.93L308.51 108.46C309.57 107.05 309.85 105.2 309.26 103.54C308.98 102.76 308.18 102.28 307.36 102.43C282.73 107.06 265.95 94.7701 258.86 88.7801C258.4 88.4001 257.71 88.4801 257.37 88.9701V88.9801Z" fill="#242145"/>
<path d="M325.811 80.2498L330.992 82.3738L330.882 82.6421C330.355 83.9283 328.894 84.5398 327.608 84.0126L327.071 83.7926C325.785 83.2653 325.173 81.8042 325.701 80.5181L325.811 80.2498Z" fill="#FF78B8"/>
<path d="M331.029 82.2493C331.295 81.6003 330.351 80.5987 328.92 80.0121C327.49 79.4256 326.114 79.4762 325.848 80.1252C325.582 80.7742 326.526 81.7758 327.957 82.3623C329.388 82.9489 330.763 82.8982 331.029 82.2493Z" fill="#FF78B8"/>
<path d="M252.35 95.49C261.29 104.07 267.93 106.89 274.22 108.97C280.08 110.91 286.47 108.22 289.2 102.68L295.05 90.77" stroke="#DCE4FF" stroke-width="2.5" stroke-miterlimit="10" stroke-linecap="round"/>
<path d="M296.137 89.231L293.731 88.0967C292.742 87.6304 291.562 88.0543 291.096 89.0434L285.263 101.417C284.797 102.407 285.22 103.586 286.21 104.053L288.616 105.187C289.605 105.653 290.785 105.229 291.251 104.24L297.084 91.8663C297.55 90.8771 297.127 89.6973 296.137 89.231Z" fill="#242145"/>
<path d="M261.46 92.65C269.43 98.34 274.55 102.33 285.94 105.26C288.36 105.88 290.93 105.85 293.15 104.71C299.89 101.25 298.45 94.14 293.66 92.43C292.71 92.09 292.54 92.43 291.64 92.08C291.26 89.75 289.83 85.27 283.1 88.1C276.07 84.36 274.73 79.89 270.81 76.02C268.18 73.43 264.08 73.07 261.05 75.18L260.32 75.69C254.75 79.57 255.94 88.7 261.47 92.65H261.46Z" fill="url(#paint1_linear_2482_304694)"/>
<path d="M292.417 87.0471L297.598 89.1712L297.488 89.4395C296.961 90.7256 295.5 91.3371 294.214 90.8099L293.677 90.5899C292.391 90.0627 291.779 88.6016 292.307 87.3155L292.417 87.0471Z" fill="#FF78B8"/>
<path d="M297.646 89.0674C297.912 88.4184 296.968 87.4168 295.537 86.8302C294.106 86.2437 292.731 86.2943 292.465 86.9433C292.199 87.5923 293.143 88.5939 294.574 89.1804C296.005 89.767 297.38 89.7164 297.646 89.0674Z" fill="#FF78B8"/>
<path d="M328.019 50.1302C328.379 56.7202 324.169 62.3002 318.629 62.6002C313.079 62.9002 308.299 57.8102 307.939 51.2202C307.579 44.6302 311.789 39.0502 317.329 38.7502C322.879 38.4502 327.659 43.5402 328.019 50.1302Z" fill="#DCE4FF"/>
<path d="M299.989 27.6001C293.339 27.3501 286.519 27.5401 280.019 28.2401C264.439 29.9101 253.069 43.1901 254.739 57.9101C254.759 58.0501 254.769 58.1801 254.789 58.3201C255.919 67.6901 264.289 74.7801 274.279 74.9801C282.869 75.1601 292.429 75.0201 301.379 74.2501C311.989 73.3401 320.759 64.6801 320.589 54.6201C320.529 51.2401 319.659 47.9701 319.309 44.6601C318.319 35.2001 310.049 27.9801 299.999 27.6001H299.989Z" fill="#698FFF"/>
<path d="M287.179 21.5401C267.339 22.5501 251.629 37.3901 252.089 54.6901C252.329 63.6301 256.849 71.4801 263.899 76.8301C264.899 77.5901 266.159 77.9501 267.419 77.8901L309.959 75.7301C311.199 75.6701 312.379 75.1901 313.309 74.3601C320.079 68.3001 324.189 60.0001 323.949 51.0301C323.489 33.7301 307.029 20.5301 287.189 21.5401H287.179ZM306.929 70.3401L276.399 71.8901C274.889 71.9701 273.419 71.3801 272.369 70.2901L263.929 61.5101C262.229 59.7401 261.819 57.0901 262.919 54.8901L271.099 38.4401C272.039 36.5501 274.189 35.5901 276.219 36.1501L294.399 41.1601C295.989 41.6001 297.689 41.3701 299.099 40.5301L307.069 35.7901C309.359 34.4301 312.319 35.3901 313.379 37.8301L319.619 52.2401C320.469 54.2101 320.169 56.4801 318.839 58.1601L310.759 68.3701C309.829 69.5501 308.429 70.2701 306.929 70.3401Z" fill="#DCE4FF"/>
<path d="M282.41 66.8203C280.29 66.1703 279.24 64.8903 278.17 63.9103C277.1 62.9303 275.87 63.2203 275.41 63.9303C274.95 64.6403 274.91 66.6602 276.43 68.3802C277.95 70.1002 281.25 69.8403 282.59 69.1003C283.93 68.3603 283.78 67.2403 282.41 66.8203Z" fill="#D01582"/>
<path d="M275.13 65.0703C275.11 66.0003 275.43 67.2503 276.43 68.3703C277.95 70.0703 281.19 69.8303 282.56 69.1103C281.21 67.1203 279.07 65.8403 275.13 65.0703Z" fill="#FF78B8"/>
<path d="M252.57 46.3202L247.59 48.9402L243.6 40.0202C243.13 38.9602 243.56 37.7202 244.58 37.1802C245.61 36.6402 246.88 36.9902 247.48 37.9802L252.57 46.3302V46.3202Z" fill="#B5C3F3"/>
<path d="M245.02 43.1802L247.59 48.9302L252.57 46.3102L249.29 40.9302C247.87 41.6802 246.44 42.4302 245.02 43.1802Z" fill="#B5C3F3"/>
<path d="M262.25 54.9001C262.59 61.1101 258.63 66.3701 253.4 66.6501C248.17 66.9301 243.66 62.1301 243.32 55.9301C242.98 49.7201 246.94 44.4601 252.17 44.1801C257.4 43.9001 261.91 48.7001 262.25 54.9001Z" fill="#DCE4FF"/>
<path d="M258.33 55.1701C258.54 59.1101 256.03 62.4401 252.72 62.6301C249.4 62.8101 246.54 59.7701 246.33 55.8301C246.12 51.8901 248.63 48.5601 251.94 48.3701C255.26 48.1901 258.12 51.2301 258.33 55.1701Z" fill="#90A1DF"/>
<path fill-rule="evenodd" clip-rule="evenodd" d="M256.43 55.3001C256.58 58.1201 254.78 60.5101 252.41 60.6401C250.04 60.7701 247.99 58.5901 247.83 55.7701C247.68 52.9501 249.48 50.5601 251.85 50.4301C254.22 50.3001 256.27 52.4801 256.43 55.3001Z" fill="#FF871D"/>
<path fill-rule="evenodd" clip-rule="evenodd" d="M251.27 58.8902L250.56 58.6802C250.36 58.6202 250.25 58.4102 250.31 58.2202L252.13 52.1902C252.19 51.9902 252.4 51.8802 252.59 51.9402L253.3 52.1502C253.5 52.2102 253.61 52.4202 253.55 52.6102L251.73 58.6402C251.67 58.8402 251.46 58.9502 251.27 58.8902Z" fill="#FF6414"/>
<path fill-rule="evenodd" clip-rule="evenodd" d="M295.44 21.6802C293.11 19.8302 288.54 16.6002 284.08 15.7702C283.21 15.6102 282.4 16.2502 282.35 17.1302L282.1 21.0902C282.07 21.5702 282.27 22.0302 282.65 22.3302C285.99 25.0102 290.92 30.7202 292.56 32.6702C292.91 33.0902 293.44 33.3202 293.99 33.2902L300.75 32.9702C301.03 32.9602 301.2 32.6702 301.09 32.4202L297.76 24.7102C297.25 23.5202 296.46 22.4802 295.44 21.6702V21.6802Z" fill="#FF7700"/>
<path fill-rule="evenodd" clip-rule="evenodd" d="M293.49 32.3401L296.39 24.6701C296.62 24.0601 297.47 24.0401 297.73 24.6401L301.09 32.4201C301.2 32.6701 301.02 32.9601 300.75 32.9701L294.18 33.2801C293.68 33.3001 293.32 32.8101 293.5 32.3401H293.49Z" fill="#FF903E"/>
<path d="M310.47 50.9001C310.47 50.9001 313.76 45.9701 316.28 51.0201" stroke="#141226" stroke-width="2.47" stroke-miterlimit="10" stroke-linecap="round"/>
<path d="M271.95 54.4201C271.95 54.4201 275.24 49.4901 277.76 54.5401" stroke="#141226" stroke-width="2.47" stroke-miterlimit="10" stroke-linecap="round"/>
<path d="M304.609 43.6102C298.739 43.2402 292.499 43.5202 287.289 44.8102C283.989 45.6302 281.589 48.3402 281.439 51.5502C281.369 53.0402 281.369 54.5502 281.479 56.0802C281.879 61.7002 286.949 65.9702 292.929 65.9102C295.759 65.8802 298.739 65.7702 301.639 65.5402C307.949 65.0402 312.709 59.7902 312.149 53.8502C312.009 52.3502 311.809 50.8702 311.539 49.4502C310.939 46.2302 308.069 43.8302 304.599 43.6102H304.609Z" fill="#B6CBFF"/>
<path d="M295.372 58.139L290.91 58.4025C290.083 58.4514 289.452 59.1614 289.501 59.9884C289.55 60.8153 290.26 61.4462 291.087 61.3973L295.549 61.1338C296.376 61.0849 297.007 60.3749 296.958 59.5479C296.909 58.721 296.199 58.0901 295.372 58.139Z" fill="#698FFF"/>
<path d="M302.521 60.8268L306.986 60.6232C307.814 60.5855 308.454 59.8841 308.417 59.0565C308.379 58.2289 307.677 57.5886 306.85 57.6263L302.384 57.8299C301.557 57.8676 300.917 58.5691 300.954 59.3967C300.992 60.2242 301.693 60.8645 302.521 60.8268Z" fill="#698FFF"/>
<path d="M227.69 52.8802C228.634 52.8802 229.4 52.1146 229.4 51.1702C229.4 50.2258 228.634 49.4602 227.69 49.4602C226.746 49.4602 225.98 50.2258 225.98 51.1702C225.98 52.1146 226.746 52.8802 227.69 52.8802Z" fill="#BCC6E8"/>
<path d="M229.97 58.5701C230.914 58.5701 231.68 57.8046 231.68 56.8601C231.68 55.9157 230.914 55.1501 229.97 55.1501C229.025 55.1501 228.26 55.9157 228.26 56.8601C228.26 57.8046 229.025 58.5701 229.97 58.5701Z" fill="#BCC6E8"/>
<path d="M214.68 100.25C215.624 100.25 216.39 99.4845 216.39 98.5401C216.39 97.5957 215.624 96.8301 214.68 96.8301C213.735 96.8301 212.97 97.5957 212.97 98.5401C212.97 99.4845 213.735 100.25 214.68 100.25Z" fill="#90A1DF"/>
<path d="M220.71 99.19C221.654 99.19 222.42 98.4244 222.42 97.48C222.42 96.5356 221.654 95.77 220.71 95.77C219.766 95.77 219 96.5356 219 97.48C219 98.4244 219.766 99.19 220.71 99.19Z" fill="#90A1DF"/>
<path d="M225.8 108.87C226.744 108.87 227.51 108.105 227.51 107.16C227.51 106.216 226.744 105.45 225.8 105.45C224.855 105.45 224.09 106.216 224.09 107.16C224.09 108.105 224.855 108.87 225.8 108.87Z" fill="#BCC6E8"/>
<path d="M230.79 105.32C231.734 105.32 232.5 104.555 232.5 103.61C232.5 102.666 231.734 101.9 230.79 101.9C229.846 101.9 229.08 102.666 229.08 103.61C229.08 104.555 229.846 105.32 230.79 105.32Z" fill="#BCC6E8"/>
</g>
<defs>
<linearGradient id="paint0_linear_2482_304694" x1="290.577" y1="68.4876" x2="277.319" y2="114.342" gradientUnits="userSpaceOnUse">
<stop offset="0.52" stop-color="#698FFF"/>
<stop offset="0.83" stop-color="#597BF0"/>
<stop offset="1" stop-color="#4F6FE7"/>
</linearGradient>
<linearGradient id="paint1_linear_2482_304694" x1="262.39" y1="94.09" x2="294.99" y2="84.6" gradientUnits="userSpaceOnUse">
<stop offset="0.34" stop-color="#698FFF"/>
<stop offset="0.35" stop-color="#678DFD"/>
<stop offset="0.8" stop-color="#4F6FE7"/>
</linearGradient>
<clipPath id="clip0_2482_304694">
<rect width="538.32" height="139.5" fill="white"/>
</clipPath>
</defs>
</svg>
