<svg fill="none" height="32" viewBox="0 0 32 32" width="32" xmlns="http://www.w3.org/2000/svg"><path d="m16.0003 29.3333c7.3638 0 13.3334-5.9695 13.3334-13.3333 0-7.36384-5.9696-13.33337-13.3334-13.33337-7.36377 0-13.33331 5.96953-13.33331 13.33337 0 7.3638 5.96954 13.3333 13.33331 13.3333z" fill="#58d1c0"/><path d="m24.5997 22.2h-17.19996c.00024-.6251-.24344-1.2256-.67921-1.6739-.43577-.4482-1.02923-.7087-1.65412-.7261v-7.6c.62489-.0173 1.21835-.2778 1.65412-.726.43577-.4483.67945-1.0488.67921-1.67395h17.19996c-.0002.62515.2435 1.22565.6793 1.67395.4357.4482 1.0292.7087 1.6541.726v7.6c-.6249.0174-1.2184.2779-1.6541.7261-.4358.4483-.6795 1.0488-.6793 1.6739z" fill="#fff"/><g fill="#58d1c0"><path d="m21.6005 20.9333c0-.405-.3284-.7333-.7334-.7333s-.7333.3283-.7333.7333v2.4533c0 .405.3283.7334.7333.7334s.7334-.3284.7334-.7334z"/><path d="m21.6005 8.60003c0-.40501-.3284-.73333-.7334-.73333s-.7333.32832-.7333.73333v2.45337c0 .405.3283.7333.7333.7333s.7334-.3283.7334-.7333z"/><path d="m21.6005 14.8c0-.405-.3284-.7333-.7334-.7333s-.7333.3283-.7333.7333v2.4533c0 .405.3283.7334.7333.7334s.7334-.3284.7334-.7334z"/></g><path d="m17.2668 12.2h-8.13334c-.36819 0-.66666.2984-.66666.6666v6.2134c0 .3681.29847.6666.66666.6666h8.13334c.3682 0 .6667-.2985.6667-.6666v-6.2134c0-.3682-.2985-.6666-.6667-.6666z" fill="#f47fff"/><path d="m26.8002 6.13332 1.9999-.73333c.1021-.03789.1901-.1061.2523-.19548.0622-.08939.0955-.19565.0955-.30452s-.0333-.21514-.0955-.30452-.1502-.1576-.2523-.19548l-1.9999-.66667c-.1421-.07511-.2583-.19126-.3334-.33333l-.6666-2c-.0379-.10207-.1062-.1901-.1955-.25226-.0894-.06216-.1957-.09548-.3045-.09548-.1089 0-.2152.03332-.3046.09548-.0893.06216-.1576.15019-.1954.25226l-.7334 2c-.0263.07739-.07.14769-.1278.20549s-.1281.10154-.2055.12784l-2 .66667c-.1021.03788-.1901.1061-.2523.19548-.0621.08938-.0955.19565-.0955.30452s.0334.21513.0955.30452c.0622.08938.1502.15759.2523.19548l2 .73333c.0837.0131.1611.05244.221.11235.0599.0599.0992.13728.1123.22098l.7334 2c.0378.10207.1061.1901.1954.25226.0894.06217.1957.09549.3046.09549.1088 0 .2151-.03332.3045-.09549.0893-.06216.1576-.15019.1955-.25226l.6666-2c.0263-.07738.0701-.14769.1279-.20549s.1281-.10154.2055-.12784z" fill="#7196ff"/></svg>