<svg height="80" viewBox="0 0 130 80" width="130" xmlns="http://www.w3.org/2000/svg"><g fill="none" fill-rule="evenodd" transform="translate(11)"><path d="m33.2264463 14.5107438h32.6287603l-14.8376859-12.63933884c-.8561984-.72859504-2.0978513-.7292562-2.9540496 0z" fill="#fff"/><path d="m19.495 39.159v-12.951l-8.529 7.265z" fill="#fff"/><path d="m72.5879008 25.3420165c-.0033058-.0052892-.0079339-.0079339-.0105785-.0138843-.1586777-.328595-.0198347-.7239669.3087603-.8819834 1.7395042-.8370248 3.5603306-1.3123967 5.3778513-1.4631405v-5.166281c0-1.0942149-.8899174-1.9834711-1.9834711-1.9834711h-53.4803306c-1.0935537 0-1.983471.8892562-1.983471 1.9834711v22.223471l6.4006611 4.2671075c.3041322.202314.3861157.6128925.1831405.9163636l2.766281 1.843967c.2023141-.3041323.6128926-.3867769.9170248-.1831405l18.4568595 12.3047934 17.6469421-11.7652893c-.56-.7596694-1.0638016-1.5742149-1.4882644-2.4555372-1.9418182-4.0363636-2.0290909-8.7087603-.2373554-12.8185124.1447934-.3352066.5342149-.4892562.8700827-.3418182.0059504.0026447.0099173.0085951.0158677.0112397 1.3110744-2.6757025 3.4380166-4.9738843 6.24-6.4773554" fill="#f6f6f7"/><path d="m86.2881983 77.2764298-25.7242975-23.8472728-6.3742148 4.2499174c-2.8158678 1.8763636-6.4826447 1.8763636-9.2978513 0l-6.374876-4.2499174-25.7236364 23.8472728c-.4409917.408595-.1520661 1.1457851.4495868 1.1457851h72.5957025c.6009917 0 .8905785-.7371901.4495867-1.1457851" fill="#f6f6f7"/><path d="m79.5784463 53.6752397c-4.3761984 0-8.618843-1.8790083-11.5590083-5.2158678l-6.3239669 4.2155372 23.5213223 21.8056198c1.2694215 1.1768595 3.3315702.2763637 3.3315702-1.4545454v-22.2657852c-.728595.5242976-1.5008264.997686-2.3266115 1.3950414-2.14281 1.0314049-4.4105785 1.52-6.6433058 1.52m-52.1777851-8.4513719c-.2029752.3028099-.6135538.3861157-.9170248.1831405l-15.9517356-10.6340496v38.252562c0 1.7315702 2.0621488 2.6320661 3.3322314 1.4545454l23.5219835-21.8049587-7.0360331-4.6909091c-.3041322-.202314-.3861157-.6128925-.1831405-.9163636z" fill="#dcddde"/><path d="m73.4595702 25.6374215c-.3226446.156033-.7087603.0224793-.8714049-.2955372-2.8026446 1.5034711-4.9289256 3.8016529-6.2406612 6.4780165.3219835.151405.4694215.5295868.3259504.8581818-1.6370247 3.7573554-1.5576859 8.0277686.2168595 11.7170248 3.3606612 6.9831405 11.7752067 9.9292562 18.7583472 6.5692562 3.3824793-1.6284297 5.9279338-4.4753719 7.1689256-8.0185124 1.2403306-3.5431405 1.027438-7.3566942-.6003306-10.7391735-3.3606612-6.9824794-11.7738843-9.9279339-18.757686-6.5692562" fill="#fff"/><g fill="#b9bbbe"><path d="m93.3639669 40.938314c-1.0122314 5.1100827-4.5652892 9.1226447-9.503471 10.745124-5.2231405 1.7163637-11.0803306.1447934-14.7418182-3.9570248-3.7765289-4.2307438-4.6069422-10.0872727-2.4449587-15.0479339.1434711-.328595-.0039669-.707438-.3259504-.8588429-.0059504-.0026447-.0099174-.0085951-.0158678-.0112397-.3358677-.1480992-.7246281.0066116-.8700826.3418182-1.7917356 4.109752-1.7044628 8.7821487.2373554 12.8185124l.0132231.0264463c.7140496 1.4803305.227438 3.2608264-1.1398347 4.1725619l-12.0819835 8.0548761c-1.7864463 1.1907438-4.113719 1.1907438-5.8995041 0l-15.507438-10.3385124c-.3041323-.2029752-.7147108-.1203306-.9170248.1838016-.2029752.3034711-.1209918.7140496.1831405.9163637l7.036033 4.6909091-23.5213223 21.8049586c-1.2700826 1.1775207-3.3322314.2770248-3.3322314-1.4545454v-33.7547108c0-1.9226446 2.1428099-3.069752 3.7421488-2.0033058l12.2095867 8.1395042c.3034711.2029752.7140496.1196694.9163637-.1831405.2029752-.3041322.1209917-.7147108-.1831405-.9170248l-2.867438-1.911405c-2.2069422-1.4717355-3.5332232-3.9490909-3.5332232-6.6016529v-17.9775206c0-1.0948761.8885951-1.9834711 1.9834711-1.9834711h53.4803306c1.0955372 0 1.9834711.888595 1.9834711 1.9834711v5.166281c-1.8175207.1514049-3.6383472.6267768-5.3778513 1.4638016-.328595.1580166-.467438.5533885-.3080992.8819835.0019835.0052893.0066116.008595.0099174.0138843.1626446.3180165.5487603.4515702.8720661.294876 7.7335537-3.7196694 17.221157.2922314 19.6575207 8.9573554.5791735 2.0595041.6624793 4.2446281.2466115 6.3438016zm-8.1467768 33.5418182-23.5213223-21.8049586 6.3233058-4.2161984c2.9401652 3.3368595 7.1828099 5.2165289 11.5590082 5.2165289 2.2327273 0 4.5004959-.488595 6.6433058-1.52.0079339-.0039669.0165289-.0079339.0244628-.0119008 1.065124-.5150413 2.3028099.2254546 2.3028099 1.4076033v19.4743802c0 1.7315702-2.0621487 2.6320661-3.3315702 1.4545454zm-72.4238017 2.7960331 23.8115703-22.0747108c1.1213223-1.0393388 2.808595-1.1742148 4.0813223-.3259504l7.0201653 4.6803306c1.1107438.7404959 2.5573554.7404959 3.667438 0l7.0208264-4.6803306c1.2720662-.8482644 2.96-.7133884 4.0813224.3259504l23.8122314 22.0747108c.4409917.4092562.1514049 1.1464463-.4495868 1.1464463h-72.5963637c-.6009917 0-.8899173-.7371901-.4489256-1.1464463zm6.7008265-48.2049587v7.6165289c0 1.0558678-1.1768595 1.6859505-2.0555372 1.1001653l-4.2869422-2.8575206c-1.0961983-.7305785-1.1880991-2.3067769-.1864462-3.1609918l4.349752-3.7044628c.8581818-.7312396 2.1791736-.1209917 2.1791736 1.006281zm28.5692562-27.19999999c.8561983-.7292562 2.0978512-.72859504 2.9540496 0l12.1038016 10.31074379c.9355372.7973554.3715703 2.3285951-.8575206 2.3285951h-25.4459505c-1.229752 0-1.793719-1.5312397-.8575206-2.3285951zm31.5226446 18.61752069v-2.6723967c0-1.8254546-1.4796694-3.3057851-3.3057851-3.3057851h-6.9256199c-.9428099 0-1.8545454-.3352067-2.5725619-.9467769l-14.9071075-12.69884298c-1.3527273-1.15239669-3.3170248-1.15239669-4.6684297 0l-14.9071075 12.69884298c-.7180165.6115702-1.629752.9467769-2.5732231.9467769h-6.926281c-1.8254545 0-3.3057851 1.4803305-3.3057851 3.3057851v5.4333884c0 .774876-.3391736 1.5107438-.9295868 2.0132231l-9.12264463 7.7712397c-.00396694.0033058-.0046281.0085951-.00859504.0119008-.05818182.0515703-.10512397.1117356-.1414876.1791736-.00859504.0165289-.01454546.033719-.02115703.0509091-.02512397.054876-.04033058.1123967-.04892562.172562-.00264463.0191735-.00595041.0370248-.00727273.0561983-.00066115.0105785-.00462809.021157-.00462809.0323967v45.5464463c0 .0330578.01388429.0614876.01851239.0932231.00727273.050248.01123967.0991736.02975207.1474381.01851239.0469421.04892562.0852892.07735537.1262809.01917355.0271075.0277686.0575207.05024793.0826447.00330579.0026446.00727273.0033058.00991736.0066115.05487603.0568595.12033058.1004959.19173554.1348761.00925619.0046281.01586777.0132231.02512396.0171901.07933885.033719.16661157.0528925.2585124.0528925h79.33884302c.0912396 0 .1791735-.0191735.2585124-.0528925.0092562-.003967.0165289-.012562.0251239-.0171901.071405-.0343802.1375207-.0780166.1917356-.1348761.0019834-.0033057.0066115-.0039669.0092562-.0066115.0224793-.025124.0323966-.0555372.0502479-.0826447.0284297-.0409917.058843-.0793388.0780165-.1262809.0185124-.0482645.0224794-.0971901.0290909-.1474381.0046281-.0317355.0191736-.0601653.0191736-.0932231v-29.381157c2.5586777-2.3080992 4.3047934-5.4459504 4.888595-9.0671075.3431405-2.126281.2161984-4.3173553-.3669421-6.3907438-1.7507438-6.2287603-6.8330579-10.2598347-12.513719-11.1371901-1.3090909-.2016528-2.2928926-1.2938842-2.2928926-2.6188429z"/><path d="m77.5995372 39.5998678h3.8928926c.3907438 0 .7114049-.3127273.72-.7041323l.2552066-7.7890909c.0092562-.4039669-.3160331-.7365289-.7206612-.7365289h-4.4033058c-.4039669 0-.7292562.332562-.72.7365289l.2558678 7.7890909c.0092562.391405.328595.7041323.72.7041323m1.9750744 1.5843967c-1.5841323 0-2.8515703 1.2965289-2.8515703 2.909752 0 1.5847934 1.267438 2.8522314 2.8515703 2.8522314 1.6132231 0 2.9090909-1.267438 2.9090909-2.8522314 0-1.6132231-1.2958678-2.909752-2.9090909-2.909752m19.6655206-19.7852562-1.5940496 1.5947107c-.2585124.2578512-.2585124.6763636 0 .934876.1289257.1289257.2981819.193719.4674381.193719s.3385124-.0647933.467438-.193719l1.5940493-1.5947107c.258513-.2585124.258513-.6763636 0-.934876-.2585121-.2585124-.6763634-.2585124-.9348758 0m-6.436562-.2663802c.0575207.0152066.1150414.0231405.1712397.0231405.2922314 0 .5586777-.1950413.6386777-.4905785l.5824793-2.1778513c.0952067-.3530578-.1143801-.7153719-.467438-.8099173-.3550413-.0971901-.7153719.1150413-.8092562.467438l-.5831405 2.1778512c-.0952066.3530579.1150414.7153719.467438.8099174m11.0937518 6.7126612c-.095206-.3523967-.458182-.563967-.809917-.4674381l-2.178512.5838017c-.352397.0945454-.561323.4568595-.467438.8092562.08.2955372.346446.4905785.638677.4905785.056199 0 .11438-.0072727.17124-.0231405l2.178512-.5831405c.352397-.0945454.561984-.4575206.467438-.8099173m-91.7077683-24.73851244h-.0006611c-.5507438.00198347-.9996695-.44297521-1.0016529-.99438017-.0013223-.36561983-.2981818-.66049586-.6631405-.65917355s-.66049589.29818182-.65917358.6631405c.00198347.55140496-.44363636 1.00033057-.99504132 1.00231405-.36429752.00132231-.65983471.29752066-.6585124.66314049.00132231.36561984.29884298.66049587.6631405.65917356.55140496-.00198348 1.00033058.4429752 1.00231405.99438016.00132231.36561984.29818185.66049587.66314045.65917355.3656199-.00132231.6604959-.29818181.6591736-.66380165-.0019835-.55140496.4436364-.99966942.9943802-1.00165289h.0006611c.3649587-.00132231.6598347-.29818182.6585124-.6631405-.0013223-.36561983-.2981818-.66049586-.6631405-.65917355m93.2915703 50.87709094c.169256-.0006612.338512-.0661157.466777-.1950414l.780165-.7847933c.256529-.2585124.255207-.677686-.003306-.9348761-.259173-.2578512-.677686-.2558677-.934876.0026447l-.780165.7847933c-.257851.2585124-.255868.677686.003306.9348761.128925.1289256.298843.1923967.468099.1923967m-3.897851 3.9252892c.169256-.0006611.338512-.0654545.466777-.1950413l.779504-.7854545c.25719-.2591736.255867-.677686-.003306-.9348761-.259174-.2571901-.678347-.2558677-.934876.0033058l-.779504.7847934c-.257851.2598347-.255868.6776859.003306.934876.129586.1289257.298843.1930579.468099.1923967m4.372363-1.9260165c-.259834-.2578512-.677686-.2558678-.934876.0033058-.257851.2585124-.256529.6770248.003306.934876l.784794.7795041c.130247.1289257.298842.1930579.468099.1923967.169256-.0006611.338512-.0654545.466777-.1957024.25719-.2591736.255867-.677686-.003306-.9348761zm-4.071537-2.1806942c.128926.1289256.298843.1930578.468099.1923967.169257-.0006612.338513-.0661157.466777-.1957025.25719-.2591736.255868-.677686-.003306-.934876l-.784793-.7795042c-.259174-.2571901-.678347-.2552066-.934876.0033058-.257851.2591736-.255868.677686.003306.934876zm-99.56674363-35.3960992c.5507438-.0019835.99966942.4442975 1.00165289.9943802.00198348.5507438-.44429752 1.0009917-.99438016 1.0029752-.5507438.0013223-1.00033058-.4449587-1.00231405-.9957025-.00198347-.5500826.44495868-.9996694.99504132-1.0016529m.01190083 3.3196694c1.27867768-.0046281 2.31603306-1.0499173 2.31206611-2.3292562-.00396694-1.28-1.04925619-2.3173553-2.32859504-2.3127272-1.27933884.0039669-2.31735537 1.048595-2.31272727 2.3279338.0046281 1.28 1.0492562 2.3180166 2.3292562 2.3140496"/></g></g></svg>