<svg xmlns="http://www.w3.org/2000/svg" width="292" height="182" viewBox="0 0 292 182" xmlns:xlink="http://www.w3.org/1999/xlink">
  <defs>
    <polygon id="a" points="0 7.925 0 .904 7.02 .904 7.02 7.925 0 7.925"/>
  </defs>
  <g fill="none" fill-rule="evenodd">
    <g transform="translate(5 6)">
      <path fill="#F7F7F8" fill-opacity=".9" d="M281.5448,85.4056 L281.5448,85.4056 C281.5448,100.7526 269.1048,113.1916 253.7588,113.1916 L241.6478,113.1916 C235.1938,113.1916 229.9618,118.4246 229.9618,124.8776 L229.9618,124.8786 C229.9618,131.3316 235.1938,136.5636 241.6478,136.5636 L246.2838,136.5636 C250.7608,136.5626 254.3898,140.1926 254.3898,144.6696 C254.3898,149.1456 250.7608,152.7746 246.2838,152.7746 L148.7178,152.7746 C144.5658,152.7746 141.1998,156.1406 141.1998,160.2926 L141.1998,160.2936 C141.1998,164.4446 137.8338,167.8106 133.6818,167.8106 L62.6238,167.8106 C56.9908,167.8106 52.4248,163.2446 52.4248,157.6116 C52.4248,151.9796 56.9908,147.4136 62.6238,147.4136 L67.1508,147.4136 C71.9888,147.4136 75.9098,143.4916 75.9098,138.6546 C75.9098,133.8166 71.9888,129.8956 67.1508,129.8956 L52.7448,129.8956 C29.8048,129.8956 11.2088,111.2996 11.2088,88.3596 C11.2088,65.4206 29.8048,46.8246 52.7448,46.8246 L74.2848,46.8246 C84.3758,46.8246 92.5548,38.6436 92.5548,28.5536 L92.5548,28.5446 C92.5548,18.4546 100.7348,10.2746 110.8248,10.2746 L214.1998,10.2746 C223.0368,10.2746 230.1998,17.4396 230.1968,26.2766 C230.1938,35.1096 223.0328,42.2676 214.1998,42.2676 L210.3118,42.2676 C206.0728,42.2676 202.6358,45.7046 202.6358,49.9436 C202.6358,54.1826 206.0728,57.6196 210.3118,57.6196 L253.7588,57.6196 C269.1048,57.6196 281.5448,70.0596 281.5448,85.4056"/>
      <path fill="#DCDDDE" d="M199.6381,129.8626 C199.6381,130.4156 199.1911,130.8626 198.6381,130.8626 L198.6381,134.8636 C199.1911,134.8636 199.6381,135.3106 199.6381,135.8636 L199.6381,137.2626 C199.6381,137.8156 199.1911,138.2626 198.6381,138.2626 L198.6381,140.2626 C199.1911,140.2626 199.6381,140.7106 199.6381,141.2626 L199.6381,146.8676 C199.6381,147.1236 199.5391,147.3706 199.3631,147.5556 L186.3631,161.2406 C186.1741,161.4396 185.9121,161.5516 185.6381,161.5516 C185.3641,161.5516 185.1021,161.4396 184.9131,161.2406 L171.9131,147.5556 C171.7371,147.3706 171.6381,147.1236 171.6381,146.8676 L171.6381,114.7626 C171.6381,114.2106 172.0861,113.7626 172.6381,113.7626 L172.6381,113.7626 L172.6381,106.5136 L172.6381,106.5136 C172.0861,106.5136 171.6381,106.0666 171.6381,105.5136 L171.6381,94.0126 C171.6381,93.4606 172.0861,93.0126 172.6381,93.0126 L172.6381,93.0126 L172.6381,89.0136 L172.6381,89.0136 C172.0861,89.0136 171.6381,88.5666 171.6381,88.0136 L171.6381,71.6586 C171.6381,71.4016 171.7371,71.1556 171.9131,70.9696 L184.9131,57.2866 C185.2911,56.8876 185.9851,56.8876 186.3631,57.2866 L199.3631,70.9696 C199.5391,71.1556 199.6381,71.4016 199.6381,71.6586 L199.6381,129.8626 Z M203.6381,69.6626 L185.6381,50.7156 L167.6381,69.6626 L167.6381,148.8636 L185.6381,167.8106 L203.6381,148.8636 L203.6381,69.6626 Z"/>
      <path fill="#DCDDDE" d="M173.6381,94.013 L173.6381,97.523 L197.4311,73.73 C197.4921,73.669 197.5671,73.634 197.6381,73.592 L197.6381,72.058 L185.6381,59.427 L173.6381,72.058 L173.6381,88.014 C173.6381,88.567 173.1911,89.014 172.6381,89.014 L172.6381,93.013 C173.1911,93.013 173.6381,93.46 173.6381,94.013"/>
      <path fill="#F7F7F8" d="M173.6381,140.2083 L173.6381,145.4493 L197.4311,121.6563 C197.4921,121.5953 197.5671,121.5613 197.6381,121.5193 L197.6381,116.2773 L173.8451,140.0703 C173.7841,140.1323 173.7091,140.1663 173.6381,140.2083"/>
      <path fill="#FFFFFF" d="M173.6381,121.763 L173.6381,137.45 L197.4311,113.657 C197.4921,113.595 197.5671,113.561 197.6381,113.519 L197.6381,97.832 L173.8451,121.625 C173.7841,121.687 173.7091,121.721 173.6381,121.763"/>
      <path fill="#DCDDDE" d="M197.6381,129.8626 L197.6381,124.2776 L174.5201,147.3956 L185.6381,159.0996 L197.6381,146.4676 L197.6381,141.2626 C197.6381,140.7106 198.0861,140.2626 198.6381,140.2626 L198.6381,140.2626 L198.6381,138.2626 L198.6381,138.2626 C198.0861,138.2626 197.6381,137.8156 197.6381,137.2626 L197.6381,135.8636 C197.6381,135.3106 198.0861,134.8636 198.6381,134.8636 L198.6381,134.8636 L198.6381,130.8626 L198.6381,130.8626 C198.0861,130.8626 197.6381,130.4156 197.6381,129.8626"/>
      <path fill="#F7F7F8" d="M173.6381,114.763 L173.6381,119.004 L197.4311,95.211 C197.4921,95.15 197.5671,95.116 197.6381,95.074 L197.6381,76.351 L173.8451,100.144 C173.7841,100.204 173.7091,100.24 173.6381,100.282 L173.6381,105.514 C173.6381,106.067 173.1911,106.514 172.6381,106.514 L172.6381,113.763 C173.1911,113.763 173.6381,114.21 173.6381,114.763"/>
      <path fill="#FFFFFF" d="M147.2411,49.6985 L147.2411,104.9075 C147.2411,105.1635 147.1421,105.4105 146.9661,105.5955 L133.9661,119.2805 C133.7771,119.4795 133.5151,119.5925 133.2411,119.5925 C132.9671,119.5925 132.7051,119.4795 132.5161,119.2805 L119.5161,105.5955 C119.3401,105.4105 119.2411,105.1635 119.2411,104.9075 L119.2411,96.4695 C119.2411,95.9175 119.6891,95.4695 120.2411,95.4695 L120.2411,91.4695 C119.6891,91.4695 119.2411,91.0225 119.2411,90.4695 L119.2411,49.6985 C119.2411,49.4415 119.3401,49.1955 119.5161,49.0105 L132.5161,35.3265 C132.8941,34.9275 133.5881,34.9275 133.9661,35.3265 L146.9661,49.0105 C147.1421,49.1955 147.2411,49.4415 147.2411,49.6985 M144.8651,40.9905 L133.2411,28.7555 L115.2411,47.7025 L115.2411,106.9035 L133.2411,125.8505 L151.2411,106.9035 L151.2411,47.7025 L148.6541,44.9785 C148.2731,44.5785 148.2891,43.9455 148.6901,43.5655 L148.6901,43.5655 L146.2791,41.0265 C145.8781,41.4085 145.2461,41.3915 144.8651,40.9905"/>
      <polygon fill="#F7F7F8" points="145.241 82.318 122.123 105.436 133.241 117.14 145.241 104.508"/>
      <polygon fill="#FFFFFF" points="138.124 42.607 133.241 37.467 121.241 50.098 121.241 59.49"/>
      <path fill="#F7F7F8" d="M139.5019,44.0569 L121.4479,62.1109 C121.3869,62.1709 121.3129,62.2059 121.2409,62.2479 L121.2409,69.5629 L143.0319,47.7729 L139.5019,44.0569 Z"/>
      <path fill="#DCDDDE" d="M121.2411 96.47L121.2411 103.49 145.0341 79.697C145.0951 79.636 145.1701 79.601 145.2411 79.559L145.2411 50.098 144.4091 49.223 121.4481 72.184C121.3871 72.245 121.3121 72.28 121.2411 72.322L121.2411 90.47C121.2411 91.023 120.7931 91.47 120.2411 91.47L120.2411 95.47C120.7931 95.47 121.2411 95.917 121.2411 96.47M45.3109 118.1429L23.5529 139.9019C23.3359 140.1189 23.2169 140.4069 23.2169 140.7119 23.2169 141.0189 23.3359 141.3069 23.5529 141.5239L28.1069 146.0779C28.5399 146.5109 29.2959 146.5109 29.7279 146.0779L55.0039 120.8019C54.4489 120.6269 53.9349 120.3359 53.5119 119.9139 52.8179 119.2199 52.4359 118.2949 52.4359 117.3089 52.4359 117.2659 52.4469 117.2249 52.4479 117.1819 52.4049 117.1839 52.3639 117.1949 52.3209 117.1949 51.3349 117.1949 50.4099 116.8119 49.7159 116.1189 48.9669 115.3689 48.6179 114.3729 48.6519 113.3879L45.3109 116.7289C45.7019 117.1199 45.7019 117.7519 45.3109 118.1429"/>
      <path fill="#F7F7F8" d="M86.4106,101.3001 C86.6506,96.4431 84.8166,91.6861 81.3806,88.2501 C78.1226,84.9921 73.7906,83.1971 69.1836,83.1971 C64.5766,83.1971 60.2446,84.9921 56.9876,88.2501 C53.1526,92.0851 51.5136,97.2901 52.0526,102.3041 C53.0946,102.2331 54.1656,102.5611 54.9256,103.3201 C55.6186,104.0131 56.0016,104.9381 56.0016,105.9241 C56.0016,105.9801 55.9886,106.0311 55.9856,106.0861 C56.3556,106.0731 56.7226,106.1191 57.0806,106.2111 C54.7076,101.2261 55.5696,95.0851 59.6966,90.9581 C64.9356,85.7181 73.4316,85.7181 78.6716,90.9581 C79.8686,92.1551 80.7776,93.5271 81.4276,94.9851 C81.9176,95.2321 82.3866,95.5361 82.7946,95.9451 C84.8586,98.0081 84.8586,101.3661 82.7946,103.4301 C82.5846,103.6401 82.3526,103.8151 82.1186,103.9821 C81.5256,106.1611 80.3836,108.2221 78.6716,109.9341 C74.5546,114.0521 68.4316,114.9181 63.4526,112.5661 C63.5496,112.9291 63.5936,113.3021 63.5776,113.6761 C64.5756,113.6441 65.5866,113.9801 66.3106,114.7041 C67.0046,115.3981 67.3866,116.3231 67.3866,117.3091 C67.3866,117.4021 67.3666,117.4911 67.3606,117.5831 C72.3636,118.1111 77.5536,116.4681 81.3806,112.6431 C81.7586,112.2651 82.3596,112.2611 82.7516,112.6141 C83.9636,111.2651 84.9396,109.7821 85.6786,108.2121 C85.1986,107.9881 84.9676,107.4321 85.1696,106.9361 C85.3606,106.4651 85.5346,105.9741 85.6866,105.4761 C85.8426,104.9631 86.3716,104.6781 86.8846,104.8051 C87.0846,103.9911 87.2416,103.1691 87.3276,102.3391 C86.7936,102.2941 86.3846,101.8391 86.4106,101.3001"/>
      <path fill="#DCDDDE" d="M78.6718,109.9339 C80.3828,108.2219 81.5258,106.1619 82.1188,103.9819 C81.2028,104.6359 80.1308,104.9779 79.0508,104.9779 C77.6958,104.9779 76.3398,104.4619 75.3078,103.4299 C73.2438,101.3669 73.2438,98.0079 75.3078,95.9449 C76.9638,94.2879 79.4428,93.9849 81.4278,94.9849 C80.7778,93.5269 79.8678,92.1559 78.6718,90.9579 C73.4318,85.7179 64.9358,85.7179 59.6958,90.9579 C55.5688,95.0849 54.7078,101.2259 57.0808,106.2109 C57.6898,106.3669 58.2638,106.6579 58.7208,107.1149 C59.4148,107.8079 59.7968,108.7329 59.7968,109.7189 C59.7968,109.7739 59.7828,109.8269 59.7808,109.8809 C60.7788,109.8479 61.7908,110.1839 62.5158,110.9099 C62.9898,111.3839 63.2918,111.9589 63.4528,112.5659 C68.4318,114.9179 74.5538,114.0519 78.6718,109.9339"/>
      <path fill="#FFFFFF" d="M81.3803 97.3587C80.7383 96.7167 79.8943 96.3957 79.0513 96.3957 78.2083 96.3957 77.3643 96.7167 76.7223 97.3587 75.4383 98.6427 75.4383 100.7317 76.7223 102.0157 78.0063 103.2987 80.0963 103.2987 81.3803 102.0157 82.6643 100.7317 82.6643 98.6427 81.3803 97.3587M53.5116 107.1146C53.8266 106.7986 54.0016 106.3756 54.0016 105.9246 54.0016 105.4716 53.8276 105.0496 53.5116 104.7336 53.1836 104.4056 52.7516 104.2416 52.3206 104.2416 51.8896 104.2416 51.4586 104.4056 51.1306 104.7336L47.3356 108.5286C47.0196 108.8436 46.8456 109.2666 46.8456 109.7186 46.8456 110.1706 47.0196 110.5936 47.3356 110.9096 47.9676 111.5426 49.0846 111.5426 49.7166 110.9096L53.5116 107.1146zM54.9252 118.4993L54.9252 118.4993C55.5572 119.1323 56.6752 119.1323 57.3062 118.4993L61.1022 114.7043C61.7582 114.0483 61.7582 112.9793 61.1022 112.3233 60.7742 111.9953 60.3422 111.8313 59.9112 111.8313 59.4802 111.8313 59.0492 111.9953 58.7202 112.3233L54.9252 116.1183C54.6102 116.4353 54.4362 116.8573 54.4362 117.3093 54.4362 117.7613 54.6102 118.1833 54.9252 118.4993M53.5116 114.7044L57.3066 110.9094C57.6226 110.5934 57.7966 110.1704 57.7966 109.7194 57.7966 109.2674 57.6226 108.8454 57.3066 108.5284 56.6746 107.8954 55.5576 107.8954 54.9256 108.5284L51.1306 112.3234C50.4746 112.9794 50.4746 114.0484 51.1306 114.7044 51.7876 115.3604 52.8556 115.3604 53.5116 114.7044M58.7206 119.9134C58.0646 120.5694 58.0646 121.6384 58.7206 122.2954 59.3776 122.9524 60.4456 122.9504 61.1026 122.2954L64.8966 118.4994C65.2126 118.1844 65.3866 117.7614 65.3866 117.3094 65.3866 116.8574 65.2126 116.4344 64.8966 116.1184 64.2646 115.4854 63.1476 115.4854 62.5156 116.1184L58.7206 119.9134z"/>
      <path fill="#B9BBBE" d="M232.8622 123.0169L232.8622 123.0169C231.2852 124.6769 228.6382 124.6769 227.0622 123.0169 226.3562 122.2729 225.9622 121.2879 225.9622 120.2619L225.9622 108.4649C225.9622 107.4399 226.3562 106.4549 227.0622 105.7099 228.6382 104.0499 231.2852 104.0499 232.8622 105.7099 233.5682 106.4549 233.9622 107.4399 233.9622 108.4649L233.9622 120.2619C233.9622 121.2879 233.5682 122.2729 232.8622 123.0169L232.8622 123.0169zM230.6872 100.5169C230.3092 100.1189 229.6142 100.1189 229.2372 100.5169L224.2372 105.7809C224.0602 105.9659 223.9622 106.2129 223.9622 106.4689L223.9622 122.2579C223.9622 122.5139 224.0602 122.7609 224.2372 122.9469L229.2372 128.2099C229.4252 128.4099 229.6882 128.5219 229.9622 128.5219 230.2362 128.5219 230.4982 128.4099 230.6872 128.2099L235.6872 122.9469C235.8632 122.7609 235.9622 122.5139 235.9622 122.2579L235.9622 106.4689C235.9622 106.2129 235.8632 105.9659 235.6872 105.7809L230.6872 100.5169zM50.6396 81.9026C45.6866 86.8546 42.9586 93.4406 42.9586 100.4466 42.9586 100.9996 43.4066 101.4466 43.9586 101.4466 44.5106 101.4466 44.9586 100.9996 44.9586 100.4466 44.9586 93.9746 47.4786 87.8916 52.0536 83.3166 52.4446 82.9256 52.4446 82.2936 52.0536 81.9026 51.6626 81.5116 51.0306 81.5116 50.6396 81.9026"/>
      <path fill="#B9BBBE" d="M106.4159 124.056L104.6909 125.871C103.9029 126.702 102.5799 126.702 101.7909 125.871L100.0659 124.056C99.5369 123.498 99.2409 122.759 99.2409 121.99L99.2409 104.395C99.2409 103.625 99.5369 102.886 100.0659 102.328L101.7909 100.513C102.5799 99.683 103.9029 99.683 104.6909 100.513L106.4159 102.328C106.9459 102.886 107.2409 103.625 107.2409 104.395L107.2409 121.99C107.2409 122.759 106.9459 123.498 106.4159 124.056L106.4159 124.056zM54.9259 118.499L54.9249 118.499C54.6099 118.183 54.4359 117.761 54.4359 117.309 54.4359 116.858 54.6099 116.435 54.9259 116.119L58.7209 112.324C59.0489 111.995 59.4799 111.831 59.9119 111.831 60.3429 111.831 60.7739 111.995 61.1019 112.324 61.7579 112.98 61.7579 114.048 61.1019 114.704L57.3069 118.499C56.6749 119.132 55.5579 119.132 54.9259 118.499L54.9259 118.499zM53.5119 114.704C52.8549 115.361 51.7879 115.361 51.1299 114.704 50.4749 114.048 50.4749 112.98 51.1299 112.324L54.9259 108.529C55.5579 107.896 56.6739 107.896 57.3069 108.529 57.6229 108.845 57.7959 109.267 57.7959 109.719 57.7959 110.17 57.6229 110.593 57.3069 110.91L53.5119 114.704zM47.3349 110.91C47.0199 110.593 46.8459 110.17 46.8459 109.719 46.8459 109.267 47.0199 108.844 47.3349 108.529L51.1299 104.734C51.4579 104.406 51.8899 104.242 52.3209 104.242 52.7519 104.242 53.1839 104.406 53.5119 104.734 53.8279 105.049 54.0009 105.472 54.0009 105.924 54.0009 106.375 53.8269 106.798 53.5119 107.115L49.7159 110.91C49.0839 111.542 47.9669 111.542 47.3349 110.91L47.3349 110.91zM64.8969 116.119C65.2119 116.435 65.3869 116.858 65.3869 117.309 65.3869 117.761 65.2129 118.184 64.8969 118.499L61.1029 122.295C60.4459 122.951 59.3769 122.952 58.7209 122.295 58.0639 121.638 58.0639 120.57 58.7209 119.913L62.5159 116.119C63.1479 115.486 64.2649 115.486 64.8969 116.119L64.8969 116.119zM108.0059 101.098C107.4949 100.56 107.2149 99.851 107.1899 99.109 106.8589 89.452 102.9449 80.42 96.0769 73.553 81.2479 58.725 57.1199 58.726 42.2909 73.553 35.1069 80.737 31.1509 90.287 31.1509 100.447 31.1509 107.886 33.2799 114.993 37.2379 121.089 37.7609 121.894 37.6779 122.949 36.9989 123.627L22.2179 138.409C21.7469 138.879 21.3879 139.47 21.2699 140.125 21.0809 141.179 21.4069 142.206 22.1389 142.938L26.6109 147.41C27.0829 147.882 27.6729 148.243 28.3299 148.361 29.3839 148.55 30.4119 148.224 31.1429 147.492L46.0109 132.624C46.6889 131.946 47.7409 131.863 48.5459 132.383 54.6869 136.356 61.8469 138.481 69.1789 138.481 71.5929 138.481 74.0259 138.251 76.4469 137.783 76.9889 137.678 77.3439 137.154 77.2389 136.611 77.1329 136.069 76.6059 135.711 76.0669 135.82 67.2499 137.527 58.2659 135.883 50.7489 131.402 49.6309 130.736 49.4489 129.185 50.3689 128.266L54.6309 124.003C55.2459 123.389 56.1869 123.24 56.9569 123.642 57.1899 123.765 62.0869 126.608 69.1839 126.66 77.3739 126.719 85.5639 122.857 90.8469 115.253 92.9499 112.227 94.3829 108.755 95.0069 105.123 96.5029 96.42 93.7719 87.947 87.7279 81.903 79.7719 73.946 67.6509 71.945 57.5669 76.926 57.0719 77.17 56.8689 77.77 57.1139 78.266 57.3579 78.76 57.9559 78.962 58.4529 78.719 69.6909 73.168 83.6719 77.005 90.3289 88.572 91.5589 90.708 92.4339 93.043 92.9139 95.46 94.5559 103.731 92.0519 111.838 86.3139 117.577 80.8379 123.052 73.3729 125.346 66.2239 124.471 64.5999 124.273 63.9429 122.255 65.0899 121.088L65.8309 120.333C66.3859 119.769 66.9629 119.545 67.5509 119.601 68.0939 119.654 68.6379 119.685 69.1839 119.685 74.1129 119.685 79.0419 117.809 82.7939 114.057 83.1849 113.666 83.1849 113.034 82.7939 112.643 82.7819 112.63 82.7649 112.626 82.7519 112.615 82.3589 112.261 81.7579 112.265 81.3799 112.643 77.5539 116.468 72.3629 118.111 67.3599 117.583 67.3669 117.492 67.3869 117.402 67.3869 117.309 67.3869 116.324 67.0049 115.398 66.3109 114.704 65.5859 113.98 64.5759 113.644 63.5769 113.676 63.5939 113.302 63.5499 112.929 63.4529 112.566 63.2919 111.959 62.9899 111.384 62.5159 110.91 61.7909 110.184 60.7789 109.848 59.7809 109.881 59.7829 109.827 59.7959 109.774 59.7959 109.719 59.7959 108.733 59.4149 107.808 58.7209 107.115 58.2639 106.658 57.6899 106.367 57.0809 106.211 56.7229 106.119 56.3559 106.074 55.9859 106.086 55.9879 106.032 56.0009 105.98 56.0009 105.924 56.0009 104.938 55.6189 104.013 54.9259 103.32 54.1659 102.561 53.0949 102.233 52.0519 102.304 51.3899 96.14 54.0199 89.686 59.9739 85.846 61.8119 84.66 63.8859 83.853 66.0399 83.474 71.7869 82.464 77.3899 84.259 81.3799 88.25 84.8159 91.686 86.6499 96.443 86.4109 101.3 86.3839 101.839 86.7929 102.294 87.3279 102.339 87.3389 102.341 87.3489 102.347 87.3599 102.348 87.9209 102.371 88.3819 101.95 88.4089 101.398 88.6749 95.978 86.6289 90.67 82.7939 86.836 78.0249 82.067 71.1929 80.107 64.3099 81.793 62.7609 82.173 61.2659 82.772 59.8799 83.563 52.8099 87.602 49.5429 94.765 50.0079 101.728 50.0639 102.572 49.7159 103.393 49.1119 103.986L46.0179 107.018C45.4659 107.57 45.0459 108.261 44.9079 109.029 44.6859 110.264 45.0669 111.47 45.9209 112.324 46.6149 113.017 47.5399 113.4 48.5259 113.4 48.5689 113.4 48.6089 113.389 48.6519 113.388 48.6179 114.373 48.9669 115.368 49.7159 116.119 50.4099 116.812 51.3349 117.195 52.3209 117.195 52.3639 117.195 52.4049 117.184 52.4479 117.182 52.4469 117.225 52.4359 117.266 52.4359 117.309 52.4359 118.295 52.8179 119.22 53.5119 119.913 53.6299 120.032 53.7549 120.139 53.8859 120.237 54.3899 120.613 54.4799 121.327 54.0359 121.771L29.7279 146.077C29.2959 146.511 28.5409 146.511 28.1069 146.077L23.5529 141.524C23.3359 141.307 23.2169 141.019 23.2169 140.712 23.2169 140.407 23.3359 140.118 23.5529 139.902L45.3109 118.143C45.7019 117.752 45.7019 117.119 45.3109 116.729 44.9199 116.338 44.2879 116.338 43.8969 116.729L43.2469 117.379C41.3209 119.305 38.0479 118.798 36.8429 116.356 33.7809 110.154 32.5449 103.108 33.4309 95.883 34.2129 89.513 36.7409 83.433 40.6919 78.374 54.2659 60.997 79.5569 59.862 94.6629 74.967 100.9059 81.21 104.5659 89.341 105.1309 98.072L103.9659 96.846C103.5719 96.431 102.9109 96.431 102.5159 96.846L97.5159 102.109C97.3399 102.294 97.2409 102.541 97.2409 102.797L97.2409 123.587C97.2409 123.843 97.3399 124.09 97.5159 124.276L102.5159 129.538C102.7049 129.738 102.9669 129.85 103.2409 129.85 103.5149 129.85 103.7769 129.738 103.9659 129.538L108.9659 124.276C109.1429 124.09 109.2409 123.843 109.2409 123.587L109.2409 102.797C109.2409 102.541 109.1429 102.294 108.9659 102.109L108.0059 101.098zM203.6381 148.8636L186.3631 167.0486C185.9691 167.4626 185.3071 167.4626 184.9131 167.0486L167.6381 148.8636 167.6381 69.6626 184.1881 52.2416C184.9761 51.4116 186.3001 51.4116 187.0881 52.2416L203.6381 69.6626 203.6381 148.8636zM165.6381 69.2626L165.6381 85.1426C165.6381 86.5876 163.8751 87.2916 162.8801 86.2446 162.5971 85.9476 162.4401 85.5526 162.4401 85.1426L162.4401 61.5896C162.4401 61.0766 162.6371 60.5836 162.9901 60.2116L166.4401 56.5806 169.8901 60.2116C170.2431 60.5836 170.4401 61.0766 170.4401 61.5896L170.4401 63.0706C170.4401 63.5456 170.2581 64.0016 169.9311 64.3446L165.9131 68.5746C165.7371 68.7596 165.6381 69.0076 165.6381 69.2626L165.6381 69.2626zM181.9131 44.3266L184.9131 41.1686C185.3071 40.7536 185.9691 40.7536 186.3631 41.1686L189.3631 44.3266C189.5401 44.5116 189.6381 44.7586 189.6381 45.0146L189.6381 49.5166C189.6381 50.4206 188.5351 50.8606 187.9131 50.2066L186.3631 48.5746C185.9691 48.1596 185.3071 48.1596 184.9131 48.5746L183.3631 50.2066C182.7411 50.8606 181.6381 50.4206 181.6381 49.5166L181.6381 45.0146C181.6381 44.7586 181.7371 44.5116 181.9131 44.3266L181.9131 44.3266zM191.6381 52.1306L191.6381 44.2166C191.6381 43.9606 191.5401 43.7136 191.3631 43.5276L186.3631 38.2636C185.9691 37.8486 185.3071 37.8486 184.9131 38.2636L179.9131 43.5276C179.7371 43.7136 179.6381 43.9606 179.6381 44.2166L179.6381 52.1306C179.6381 53.4126 179.1461 54.6446 178.2631 55.5746L172.4401 61.7046 172.4401 60.3906C172.4401 60.1346 172.3421 59.8876 172.1651 59.7026L167.1651 54.4396C166.7711 54.0246 166.1091 54.0246 165.7151 54.4396L160.7151 59.7026C160.5381 59.8876 160.4401 60.1346 160.4401 60.3906L160.4401 86.1806C160.4401 86.4366 160.5381 86.6836 160.7151 86.8696L165.6381 92.0506 165.6381 149.2626C165.6381 149.5186 165.7371 149.7656 165.9131 149.9516L184.9131 169.9516C185.1021 170.1506 185.3641 170.2626 185.6381 170.2626 185.9121 170.2626 186.1741 170.1506 186.3631 169.9516L205.3631 149.9516C205.5401 149.7656 205.6381 149.5186 205.6381 149.2626L205.6381 69.2626C205.6381 69.0076 205.5401 68.7596 205.3631 68.5746L193.0131 55.5746C192.1301 54.6446 191.6381 53.4126 191.6381 52.1306L191.6381 52.1306z"/>
      <path fill="#B9BBBE" d="M198.6386,134.8636 L198.6386,134.8636 C198.0856,134.8636 197.6386,135.3106 197.6386,135.8636 L197.6386,137.2626 C197.6386,137.8156 198.0856,138.2626 198.6386,138.2626 L198.6386,138.2626 C199.1906,138.2626 199.6386,137.8156 199.6386,137.2626 L199.6386,135.8636 C199.6386,135.3106 199.1906,134.8636 198.6386,134.8636"/>
      <path fill="#B9BBBE" d="M193.5336 117.5989C188.1926 122.9219 179.0996 131.9969 175.3416 135.7489 174.7116 136.3779 173.6376 135.9289 173.6376 135.0379L173.6376 123.0159C173.6376 122.2169 173.9526 121.4549 174.5196 120.8919 178.8466 116.5919 197.6376 97.8319 197.6376 97.8319L197.6376 107.7039C197.6376 111.4199 196.1656 114.9769 193.5336 117.5989M197.0916 122.0579C194.4096 124.7179 182.5506 136.5539 176.7936 142.2989 175.6276 143.4629 173.6376 142.6359 173.6376 140.9889L173.6376 140.9829C173.6376 140.4889 173.8346 140.0169 174.1846 139.6689 176.8666 137.0089 188.7256 125.1729 194.4826 119.4279 195.6486 118.2639 197.6376 119.0909 197.6376 120.7389L197.6376 120.7449C197.6376 121.2389 197.4416 121.7099 197.0916 122.0579M184.9126 57.2859L171.9126 70.9699C171.7366 71.1559 171.6376 71.4029 171.6376 71.6589L171.6376 88.0139C171.6376 88.5669 172.0856 89.0139 172.6376 89.0139L172.6386 89.0139C173.1906 89.0139 173.6376 88.5669 173.6376 88.0139L173.6376 73.5909C173.6376 72.6069 174.0156 71.6609 174.6946 70.9469L182.7386 62.4799C184.3156 60.8199 186.9616 60.8199 188.5376 62.4799L196.5816 70.9469C197.2606 71.6609 197.6376 72.6069 197.6376 73.5909L197.6376 73.5919C197.5676 73.6339 197.4916 73.6689 197.4306 73.7299L175.3456 95.8159C174.7156 96.4459 173.6376 95.9989 173.6376 95.1089L173.6376 94.0129C173.6376 93.4599 173.1906 93.0129 172.6386 93.0129L172.6376 93.0129C172.0856 93.0129 171.6376 93.4599 171.6376 94.0129L171.6376 105.5139C171.6376 106.0669 172.0856 106.5139 172.6376 106.5139L172.6386 106.5139C173.1906 106.5139 173.6376 106.0669 173.6376 105.5139L173.6376 104.0259C173.6376 101.6339 174.5886 99.3419 176.2836 97.6549 181.2416 92.7159 191.8066 82.1719 195.9346 78.0509 196.5646 77.4219 197.6376 77.8709 197.6376 78.7619L197.6376 92.1989C197.6376 94.0609 196.8956 95.8469 195.5756 97.1609L176.6376 116.0049C175.5306 117.1119 173.6376 116.3279 173.6376 114.7629 173.6376 114.2099 173.1906 113.7629 172.6386 113.7629L172.6376 113.7629C172.0856 113.7629 171.6376 114.2099 171.6376 114.7629L171.6376 146.8679C171.6376 147.1229 171.7366 147.3699 171.9126 147.5559L184.9126 161.2409C185.1016 161.4399 185.3646 161.5519 185.6376 161.5519 185.9116 161.5519 186.1746 161.4399 186.3636 161.2409L199.3636 147.5559C199.5396 147.3699 199.6376 147.1229 199.6376 146.8679L199.6376 141.2629C199.6376 140.7099 199.1906 140.2629 198.6386 140.2629L198.6376 140.2629C198.0856 140.2629 197.6376 140.7099 197.6376 141.2629L197.6376 146.4679 186.3636 158.3369C185.9696 158.7509 185.3076 158.7509 184.9126 158.3369L175.8626 148.8089C175.1156 148.0229 175.1316 146.7849 175.8986 146.0179L194.2236 127.6919C195.4836 126.4319 197.6376 127.3249 197.6376 129.1059L197.6376 129.8629C197.6376 130.4149 198.0856 130.8629 198.6376 130.8629L198.6386 130.8629C199.1906 130.8629 199.6376 130.4149 199.6376 129.8629L199.6376 71.6589C199.6376 71.4029 199.5396 71.1559 199.3636 70.9699L186.3636 57.2859C185.9696 56.8709 185.3076 56.8709 184.9126 57.2859M153.2411 107.303L153.2411 47.303C153.2411 47.046 153.1421 46.8 152.9661 46.615L150.1041 43.602C149.7231 43.201 149.0921 43.185 148.6901 43.566L148.6901 43.566C148.2891 43.946 148.2731 44.578 148.6541 44.979L151.2411 47.702 151.2411 106.904 133.2411 125.851 115.2411 106.904 115.2411 47.702 133.2411 28.755 144.8651 40.99C145.2461 41.392 145.8781 41.408 146.2791 41.027L146.2791 41.027C146.6791 40.647 146.6961 40.014 146.3151 39.614L133.9661 26.615C133.5881 26.216 132.8941 26.216 132.5161 26.615L113.5161 46.615C113.3401 46.8 113.2411 47.047 113.2411 47.303L113.2411 107.303C113.2411 107.559 113.3401 107.806 113.5161 107.991L132.5161 127.991C132.7051 128.191 132.9671 128.303 133.2411 128.303 133.5151 128.303 133.7771 128.191 133.9661 127.991L152.9661 107.991C153.1421 107.806 153.2411 107.559 153.2411 107.303"/>
      <path fill="#B9BBBE" d="M145.2411 84.7317L145.2411 103.7097C145.2411 104.2217 145.0441 104.7147 144.6911 105.0867L134.6911 115.6137C133.9031 116.4437 132.5791 116.4437 131.7911 115.6137L122.7941 106.1427C122.4211 105.7497 122.4291 105.1297 122.8121 104.7477L143.5341 84.0247C144.1641 83.3947 145.2411 83.8407 145.2411 84.7317L145.2411 84.7317zM121.2411 63.3817L121.2411 63.3197C121.2411 62.6367 121.5111 61.9857 121.9951 61.5037 124.6651 58.8567 133.7101 49.8357 137.6461 45.9087 138.6651 44.8917 140.3181 44.9167 141.3091 45.9587L141.3131 45.9627C142.2691 46.9697 142.2491 48.5547 141.2671 49.5367L125.6111 65.1927C123.9991 66.8047 121.2411 65.6637 121.2411 63.3817L121.2411 63.3817zM121.2411 50.0977L133.2411 37.4667 136.7811 41.1937C137.5281 41.9797 137.5121 43.2177 136.7451 43.9857L124.6561 56.0757C123.3951 57.3357 121.2411 56.4427 121.2411 54.6617L121.2411 50.0977zM120.2411 95.4697C119.6891 95.4697 119.2411 95.9177 119.2411 96.4697L119.2411 104.9077C119.2411 105.1637 119.3401 105.4107 119.5161 105.5957L132.5161 119.2807C132.7051 119.4797 132.9671 119.5917 133.2411 119.5917 133.5151 119.5917 133.7771 119.4797 133.9661 119.2807L146.9661 105.5957C147.1431 105.4107 147.2411 105.1637 147.2411 104.9077L147.2411 49.6987C147.2411 49.4427 147.1431 49.1957 146.9661 49.0097L133.9661 35.3267C133.5721 34.9117 132.9101 34.9117 132.5161 35.3267L119.5161 49.0097C119.3401 49.1957 119.2411 49.4427 119.2411 49.6987L119.2411 90.4697C119.2411 91.0227 119.6891 91.4697 120.2411 91.4697 120.7931 91.4697 121.2411 91.0227 121.2411 90.4697L121.2411 82.2917C121.2411 75.9177 123.7761 69.8077 128.2891 65.3077 135.1051 58.5107 144.4091 49.2227 144.4091 49.2227L144.4101 49.2237C144.9441 49.7857 145.2411 50.5297 145.2411 51.3037L145.2411 67.0947C145.2411 75.0647 142.0721 82.7057 136.4281 88.3337 131.4731 93.2757 125.7371 99.0027 122.9451 101.7897 122.3141 102.4187 121.2411 101.9687 121.2411 101.0787L121.2411 96.4697C121.2411 95.9177 120.7931 95.4697 120.2411 95.4697L120.2411 95.4697zM81.1488 38.7435L83.1488 36.6385C83.9378 35.8075 85.2608 35.8075 86.0488 36.6385L88.0488 38.7435C88.4018 39.1155 88.5988 39.6085 88.5988 40.1215L88.5988 53.5145C88.5988 54.0265 88.4018 54.5195 88.0488 54.8915L86.0488 56.9975C85.2608 57.8275 83.9378 57.8275 83.1488 56.9975L81.1488 54.8915C80.7958 54.5195 80.5988 54.0265 80.5988 53.5145L80.5988 40.1215C80.5988 39.6085 80.7958 39.1155 81.1488 38.7435L81.1488 38.7435zM83.8738 60.6645C84.0628 60.8635 84.3248 60.9755 84.5988 60.9755 84.8728 60.9755 85.1348 60.8635 85.3238 60.6645L90.3238 55.4005C90.5008 55.2155 90.5988 54.9685 90.5988 54.7125L90.5988 38.9235C90.5988 38.6675 90.5008 38.4205 90.3238 38.2345L85.3238 32.9715C84.9458 32.5725 84.2518 32.5725 83.8738 32.9715L78.8738 38.2345C78.6978 38.4205 78.5988 38.6675 78.5988 38.9235L78.5988 54.7125C78.5988 54.9685 78.6978 55.2155 78.8738 55.4005L83.8738 60.6645zM154.6596 141.2933L152.6596 143.3983C151.8706 144.2293 150.5486 144.2293 149.7596 143.3983L147.7596 141.2933C147.4066 140.9223 147.2096 140.4293 147.2096 139.9163L147.2096 126.5223C147.2096 126.0103 147.4066 125.5173 147.7596 125.1463L149.7596 123.0403C150.5486 122.2103 151.8706 122.2103 152.6596 123.0403L154.6596 125.1463C155.0126 125.5173 155.2096 126.0103 155.2096 126.5223L155.2096 139.9163C155.2096 140.4293 155.0126 140.9223 154.6596 141.2933L154.6596 141.2933zM151.9346 119.3733C151.5566 118.9753 150.8626 118.9753 150.4846 119.3733L145.4846 124.6373C145.3076 124.8223 145.2096 125.0693 145.2096 125.3253L145.2096 141.1143C145.2096 141.3703 145.3076 141.6173 145.4846 141.8033L150.4846 147.0663C150.6736 147.2663 150.9356 147.3783 151.2096 147.3783 151.4836 147.3783 151.7456 147.2663 151.9346 147.0663L156.9346 141.8033C157.1106 141.6173 157.2096 141.3703 157.2096 141.1143L157.2096 125.3253C157.2096 125.0693 157.1106 124.8223 156.9346 124.6373L151.9346 119.3733zM152.1078 22.7991L152.1078 22.7991C150.5308 24.4581 147.8848 24.4581 146.3078 22.7991 145.6018 22.0551 145.2078 21.0691 145.2078 20.0431L145.2078 8.2471C145.2078 7.2221 145.6018 6.2361 146.3078 5.4911 147.8848 3.8321 150.5308 3.8321 152.1078 5.4911 152.8148 6.2361 153.2078 7.2221 153.2078 8.2471L153.2078 20.0431C153.2078 21.0691 152.8148 22.0551 152.1078 22.7991L152.1078 22.7991zM149.9328.2991C149.5548-.0989 148.8608-.0989 148.4828.2991L143.4828 5.5621C143.3068 5.7471 143.2078 5.9931 143.2078 6.2501L143.2078 22.0401C143.2078 22.2971 143.3068 22.5431 143.4828 22.7291L148.4828 27.9911C148.6718 28.1911 148.9338 28.3031 149.2078 28.3031 149.4818 28.3031 149.7438 28.1911 149.9328 27.9911L154.9328 22.7291C155.1088 22.5431 155.2078 22.2971 155.2078 22.0401L155.2078 6.2501C155.2078 5.9931 155.1088 5.7471 154.9328 5.5621L149.9328.2991zM89.8441 154.7005L87.2941 157.3855C86.5061 158.2155 85.1821 158.2155 84.3941 157.3855L81.8441 154.7005 81.8441 129.7105 84.3941 127.0255C85.1821 126.1955 86.5061 126.1955 87.2941 127.0255L89.8441 129.7105 89.8441 154.7005zM86.5691 123.3585C86.1911 122.9605 85.4971 122.9605 85.1191 123.3585L80.1191 128.6225C79.9431 128.8075 79.8441 129.0545 79.8441 129.3105L79.8441 155.0995C79.8441 155.3555 79.9431 155.6025 80.1191 155.7885L85.1191 161.0525C85.3081 161.2515 85.5701 161.3635 85.8441 161.3635 86.1181 161.3635 86.3801 161.2515 86.5691 161.0525L91.5691 155.7885C91.7451 155.6025 91.8441 155.3555 91.8441 155.0995L91.8441 129.3105C91.8441 129.0545 91.7451 128.8075 91.5691 128.6225L86.5691 123.3585zM86.934 104.8099C86.917 104.8049 86.901 104.8099 86.885 104.8049 86.372 104.6779 85.842 104.9629 85.686 105.4759 85.535 105.9739 85.361 106.4649 85.169 106.9359 84.968 107.4319 85.199 107.9889 85.678 108.2119 85.693 108.2199 85.703 108.2339 85.719 108.2399 85.842 108.2889 85.97 108.3129 86.095 108.3129 86.49 108.3129 86.864 108.0779 87.022 107.6899 87.236 107.1639 87.431 106.6149 87.6 106.0579 87.761 105.5299 87.462 104.9709 86.934 104.8099M81.3803 102.0159C80.0963 103.2989 78.0063 103.2989 76.7223 102.0159 75.4383 100.7319 75.4383 98.6429 76.7223 97.3589 77.3643 96.7169 78.2083 96.3959 79.0513 96.3959 79.8943 96.3959 80.7383 96.7169 81.3803 97.3589 82.6643 98.6429 82.6643 100.7319 81.3803 102.0159M75.3083 95.9449C73.2443 98.0079 73.2443 101.3669 75.3083 103.4299 76.3393 104.4619 77.6953 104.9779 79.0513 104.9779 80.1303 104.9779 81.2023 104.6359 82.1183 103.9819 82.3533 103.8149 82.5843 103.6399 82.7943 103.4299 84.8583 101.3669 84.8583 98.0079 82.7943 95.9449 82.3863 95.5369 81.9183 95.2319 81.4273 94.9849 79.4433 93.9849 76.9633 94.2879 75.3083 95.9449M63.8769 31.1624L64.3869 31.1624C64.9389 31.1624 65.3869 31.6094 65.3869 32.1624L65.3869 32.6734C65.3869 33.2254 65.8349 33.6734 66.3869 33.6734 66.9389 33.6734 67.3869 33.2254 67.3869 32.6734L67.3869 32.1624C67.3869 31.6094 67.8349 31.1624 68.3869 31.1624L68.8969 31.1624C69.4489 31.1624 69.8969 30.7154 69.8969 30.1624 69.8969 29.6094 69.4489 29.1624 68.8969 29.1624L68.3869 29.1624C67.8349 29.1624 67.3869 28.7154 67.3869 28.1624L67.3869 27.6524C67.3869 27.1004 66.9389 26.6524 66.3869 26.6524 65.8349 26.6524 65.3869 27.1004 65.3869 27.6524L65.3869 28.1624C65.3869 28.7154 64.9389 29.1624 64.3869 29.1624L63.8769 29.1624C63.3249 29.1624 62.8769 29.6094 62.8769 30.1624 62.8769 30.7154 63.3249 31.1624 63.8769 31.1624M262.5302 74.221L262.5302 74.221C261.6962 74.221 261.0202 73.545 261.0202 72.711 261.0202 72.158 260.5722 71.711 260.0202 71.711 259.4672 71.711 259.0202 72.158 259.0202 72.711 259.0202 73.545 258.3442 74.221 257.5102 74.221 256.9582 74.221 256.5102 74.668 256.5102 75.221 256.5102 75.774 256.9582 76.221 257.5102 76.221 258.3442 76.221 259.0202 76.897 259.0202 77.731 259.0202 78.283 259.4672 78.731 260.0202 78.731 260.5722 78.731 261.0202 78.283 261.0202 77.731 261.0202 76.897 261.6962 76.221 262.5302 76.221L262.5302 76.221C263.0822 76.221 263.5302 75.774 263.5302 75.221 263.5302 74.668 263.0822 74.221 262.5302 74.221"/>
      <g transform="translate(0 111.263)">
        <mask id="b" fill="white">
          <use xlink:href="#a"/>
        </mask>
        <path fill="#B9BBBE" d="M6.0199,3.415 L6.0199,3.415 C5.1869,3.415 4.5099,2.739 4.5099,1.905 L4.5099,1.904 C4.5099,1.352 4.0619,0.904 3.5099,0.904 C2.9579,0.904 2.5099,1.352 2.5099,1.904 L2.5099,1.905 C2.5099,2.739 1.8339,3.415 0.9999,3.415 L0.9999,3.415 C0.4479,3.415 -0.0001,3.862 -0.0001,4.415 C-0.0001,4.968 0.4479,5.415 0.9999,5.415 L0.9999,5.415 C1.8339,5.415 2.5099,6.091 2.5099,6.925 C2.5099,7.477 2.9579,7.925 3.5099,7.925 C4.0619,7.925 4.5099,7.477 4.5099,6.925 C4.5099,6.091 5.1869,5.415 6.0199,5.415 C6.5719,5.415 7.0199,4.968 7.0199,4.415 C7.0199,3.862 6.5719,3.415 6.0199,3.415" mask="url(#b)"/>
      </g>
      <path fill="#B9BBBE" d="M46.3251 45.4515C46.5811 45.4515 46.8371 45.3535 47.0321 45.1585L48.2151 43.9745C48.6061 43.5845 48.6061 42.9515 48.2151 42.5605 47.8251 42.1705 47.1911 42.1705 46.8011 42.5605L45.6181 43.7445C45.2271 44.1355 45.2271 44.7675 45.6181 45.1585 45.8131 45.3535 46.0691 45.4515 46.3251 45.4515M40.4086 51.3675C40.6646 51.3675 40.9206 51.2695 41.1156 51.0745L42.2986 49.8905C42.6896 49.5005 42.6896 48.8675 42.2986 48.4765 41.9086 48.0865 41.2746 48.0865 40.8846 48.4765L39.7016 49.6605C39.3106 50.0515 39.3106 50.6835 39.7016 51.0745 39.8966 51.2695 40.1526 51.3675 40.4086 51.3675M46.8012 51.0745C46.9962 51.2695 47.2522 51.3675 47.5082 51.3675 47.7642 51.3675 48.0202 51.2695 48.2152 51.0745 48.6062 50.6835 48.6062 50.0515 48.2152 49.6605L47.0322 48.4765C46.6412 48.0865 46.0092 48.0865 45.6182 48.4765 45.2272 48.8675 45.2272 49.5005 45.6182 49.8905L46.8012 51.0745zM40.8847 45.1585C41.0797 45.3535 41.3357 45.4515 41.5917 45.4515 41.8477 45.4515 42.1037 45.3535 42.2987 45.1585 42.6897 44.7675 42.6897 44.1355 42.2987 43.7445L41.1157 42.5605C40.7247 42.1705 40.0927 42.1705 39.7017 42.5605 39.3107 42.9515 39.3107 43.5845 39.7017 43.9745L40.8847 45.1585zM251.8627 80.7718L250.6797 81.9558C250.2887 82.3458 250.2887 82.9788 250.6797 83.3698 250.8747 83.5648 251.1307 83.6628 251.3867 83.6628 251.6427 83.6628 251.8987 83.5648 252.0937 83.3698L253.2767 82.1858C253.6677 81.7948 253.6677 81.1628 253.2767 80.7718 252.8857 80.3808 252.2527 80.3808 251.8627 80.7718M245.9467 86.6878L244.7627 87.8718C244.3727 88.2618 244.3727 88.8948 244.7627 89.2858 244.9587 89.4808 245.2147 89.5788 245.4697 89.5788 245.7257 89.5788 245.9817 89.4808 246.1767 89.2858L247.3607 88.1018C247.7517 87.7108 247.7517 87.0788 247.3607 86.6878 246.9697 86.2968 246.3377 86.2968 245.9467 86.6878M252.0937 86.6878C251.7027 86.2968 251.0707 86.2968 250.6797 86.6878 250.2887 87.0788 250.2887 87.7108 250.6797 88.1018L251.8627 89.2858C252.0577 89.4808 252.3137 89.5788 252.5697 89.5788 252.8257 89.5788 253.0817 89.4808 253.2767 89.2858 253.6677 88.8948 253.6677 88.2618 253.2767 87.8718L252.0937 86.6878zM246.1772 80.7718C245.7862 80.3808 245.1542 80.3808 244.7632 80.7718 244.3722 81.1628 244.3722 81.7948 244.7632 82.1858L245.9472 83.3698C246.1422 83.5648 246.3982 83.6628 246.6542 83.6628 246.9092 83.6628 247.1652 83.5648 247.3612 83.3698 247.7512 82.9788 247.7512 82.3458 247.3612 81.9558L246.1772 80.7718zM239.6537 137.3734C238.8207 137.3734 238.1437 136.6954 238.1437 135.8634 238.1437 135.0314 238.8207 134.3534 239.6537 134.3534 240.4867 134.3534 241.1637 135.0314 241.1637 135.8634 241.1637 136.6954 240.4867 137.3734 239.6537 137.3734M239.6537 132.3534C237.7177 132.3534 236.1437 133.9284 236.1437 135.8634 236.1437 137.7994 237.7177 139.3734 239.6537 139.3734 241.5887 139.3734 243.1637 137.7994 243.1637 135.8634 243.1637 133.9284 241.5887 132.3534 239.6537 132.3534"/>
      <path fill="#DCDDDE" d="M89.8441,154.7005 L87.2941,157.3855 C86.5061,158.2155 85.1821,158.2155 84.3941,157.3855 L81.8441,154.7005 L81.8441,129.7105 L84.3941,127.0255 C85.1821,126.1955 86.5061,126.1955 87.2941,127.0255 L89.8441,129.7105 L89.8441,154.7005 Z"/>
      <path fill="#F7F7F8" d="M165.6381,69.263 L165.6381,85.143 C165.6381,86.587 163.8751,87.291 162.8801,86.244 C162.5971,85.948 162.4401,85.553 162.4401,85.143 L162.4401,61.589 C162.4401,61.076 162.6371,60.583 162.9901,60.211 L166.4401,56.58 L169.8901,60.211 C170.2431,60.583 170.4401,61.076 170.4401,61.589 L170.4401,63.071 C170.4401,63.545 170.2581,64.001 169.9311,64.345 L165.9131,68.575 C165.7371,68.76 165.6381,69.007 165.6381,69.263"/>
      <path fill="#DCDDDE" d="M232.8622,123.0169 L232.8622,123.0169 C231.2852,124.6769 228.6382,124.6769 227.0622,123.0169 C226.3562,122.2729 225.9622,121.2879 225.9622,120.2619 L225.9622,108.4649 C225.9622,107.4399 226.3562,106.4549 227.0622,105.7099 C228.6382,104.0499 231.2852,104.0499 232.8622,105.7099 C233.5682,106.4549 233.9622,107.4399 233.9622,108.4649 L233.9622,120.2619 C233.9622,121.2879 233.5682,122.2729 232.8622,123.0169"/>
      <path fill="#F7F7F8" d="M81.1488,38.7435 L83.1488,36.6385 C83.9378,35.8075 85.2608,35.8075 86.0488,36.6385 L88.0488,38.7435 C88.4018,39.1155 88.5988,39.6085 88.5988,40.1215 L88.5988,53.5145 C88.5988,54.0265 88.4018,54.5195 88.0488,54.8915 L86.0488,56.9975 C85.2608,57.8275 83.9378,57.8275 83.1488,56.9975 L81.1488,54.8915 C80.7958,54.5195 80.5988,54.0265 80.5988,53.5145 L80.5988,40.1215 C80.5988,39.6085 80.7958,39.1155 81.1488,38.7435"/>
    </g>
    <rect width="292" height="182" y="1"/>
  </g>
</svg>
