<svg width="204" height="84" viewBox="0 0 204 84" fill="none" 
  xmlns="http://www.w3.org/2000/svg">
  <path opacity="0.2" d="M0 84C0 69.8733 11.4073 58.4706 25.5396 58.4706H38.5815C40.2926 58.4706 41.6235 57.0769 41.6235 55.4299V20.5882C41.6869 9.18552 50.8761 0 62.2199 0H136.57C147.914 0 157.103 9.18552 157.103 20.5249V23.3756C157.103 25.7195 159.005 27.6199 161.35 27.6199H175.609C191.262 27.6199 204 47.2579 204 62.9683V83.9366H0V84Z" fill="#AEC7FF"/>
  <path d="M102 6C121.89 6 138 22.11 138 42C138 61.89 121.89 78 102 78C82.11 78 66 61.89 66 42C66 22.11 82.11 6 102 6Z" fill="#3E70DD"/>
</svg>
