<svg width="268" height="132" viewBox="0 0 268 132" fill="none" xmlns="http://www.w3.org/2000/svg">
    <g clip-path="url(#expiring_premium_generic)">
        <path opacity="0.2" d="M84.2827 132H0V106.117C0 94.617 9.3156 85.3014 20.816 85.3014H28.2149C32.2494 85.3014 36.1231 83.6929 38.9915 80.8379L61.6438 58.1722C67.3538 52.4622 75.1011 49.2453 83.1836 49.2453H91.1186C96.7214 49.2453 101.279 44.7015 101.279 39.0853C101.279 25.3465 112.417 14.208 126.156 14.208H197.504C212.65 14.208 224.915 26.4858 224.915 41.6186V88.84C224.915 99.4959 233.547 108.128 244.203 108.128C257.379 108.128 268.061 118.811 268.061 131.987H84.2827V132Z" fill="#AEC7FF"/>
        <path d="M42.8518 61.1747H121.853L139.117 94.4293L69.0561 90.368L42.8518 61.1747Z" fill="#202225"/>
        <path d="M79.31 48.7628C79.31 48.106 78.7738 47.5699 78.117 47.5699H77.2458C76.589 47.5699 76.0529 48.106 76.0529 48.7628C76.0529 49.4196 76.589 49.9557 77.2458 49.9557H78.117C78.7738 49.9691 79.31 49.433 79.31 48.7628Z" fill="#7196FF"/>
        <path d="M117.752 50.2104C116.344 47.1409 113.825 44.8087 110.648 43.6292C109.214 43.093 107.726 42.8383 106.251 42.8383C104.455 42.8383 102.659 43.227 100.984 44.0045C94.6438 46.9131 91.8558 54.446 94.7644 60.7859C96.1718 63.8554 98.6917 66.1876 101.868 67.3672C105.032 68.5467 108.476 68.4127 111.546 67.0053C117.872 64.0699 120.66 56.5504 117.752 50.2104Z" fill="white"/>
        <path d="M121.357 48.5349C118.73 42.8249 113.195 39.1121 106.908 38.8708C106.868 38.8708 106.828 38.8574 106.801 38.8574H89.2823C88.0626 38.8574 87.0841 39.8493 87.0841 41.0556C87.0841 42.262 88.076 43.2538 89.2823 43.2538H93.7994C93.8128 43.2538 93.8262 43.2538 93.853 43.2538C95.0191 43.2807 95.9573 44.2457 95.9573 45.4118C95.9573 46.6048 94.9923 47.5699 93.7994 47.5699H84.5776C83.9208 47.5699 83.3846 48.106 83.3846 48.7628C83.3846 49.4196 83.9208 49.9557 84.5776 49.9557H90.7835C91.9764 49.9557 92.9415 50.9208 92.9415 52.1137C92.9415 53.3066 91.9764 54.2717 90.7835 54.2717H88.0491C87.3924 54.2717 86.8562 54.8079 86.8562 55.4646C86.8562 56.1214 87.3924 56.6576 88.0491 56.6576H89.2421C89.4833 56.6576 89.6978 56.8452 89.7112 57.0865C89.8989 58.9228 90.3814 60.7055 91.1454 62.381C92.9951 66.4155 96.3058 69.485 100.474 71.0264C104.63 72.5678 109.147 72.3936 113.181 70.5438C121.518 66.7506 125.177 56.8586 121.357 48.5349ZM111.037 65.8928C105.286 68.5333 98.4907 66.0134 95.8501 60.2632C93.2096 54.513 95.7295 47.7173 101.48 45.0768C107.23 42.4362 114.026 44.9561 116.666 50.7063C119.293 56.4565 116.773 63.2522 111.037 65.8928Z" fill="#7196FF"/>
        <path d="M113.985 51.9395C113.034 49.8753 111.345 48.3071 109.214 47.5162C108.249 47.1543 107.257 46.9801 106.251 46.9801C105.045 46.9801 103.839 47.2348 102.713 47.7575C98.4504 49.7145 96.5739 54.7811 98.5309 59.0434C99.4825 61.1076 101.171 62.6759 103.303 63.4667C105.434 64.2575 107.739 64.1637 109.803 63.2254C114.066 61.2685 115.942 56.2019 113.985 51.9395Z" fill="#D4E4FF"/>
        <path d="M109.267 50.9208C109.12 50.6661 108.852 50.5053 108.57 50.5053H103.825C103.531 50.5053 103.262 50.6661 103.128 50.9208L100.756 55.076C100.609 55.3306 100.609 55.6389 100.756 55.8936L103.128 60.0487C103.276 60.3034 103.544 60.4643 103.825 60.4643H108.57C108.865 60.4643 109.133 60.3034 109.267 60.0487L111.64 55.8936C111.787 55.6389 111.787 55.3306 111.64 55.076L109.267 50.9208Z" fill="#AEC7FF"/>
        <path d="M148.286 8.41754H115.071C113.288 8.41754 111.841 9.86514 111.841 11.6478V28.2551C111.841 30.0378 113.288 31.4854 115.071 31.4854H148.286C150.068 31.4854 151.516 30.0378 151.516 28.2551V11.6344C151.516 9.86514 150.068 8.41754 148.286 8.41754Z" fill="#FF9A15"/>
        <path d="M152.494 4.20877H119.266C117.484 4.20877 116.036 5.65637 116.036 7.43907V24.0463C116.036 25.829 117.484 27.2766 119.266 27.2766H152.481C154.264 27.2766 155.711 25.829 155.711 24.0463V7.43907C155.711 5.65637 154.264 4.20877 152.494 4.20877Z" fill="#FFD836"/>
        <path d="M156.69 0H123.475C121.693 0 120.245 1.4476 120.245 3.2303V19.8375C120.245 21.6202 121.693 23.0678 123.475 23.0678H156.69C158.472 23.0678 159.92 21.6202 159.92 19.8375V3.2303C159.92 1.4476 158.472 0 156.69 0Z" fill="#FF73FA"/>
        <path d="M136.45 13.645V11.8355C136.45 11.2055 135.941 10.7096 135.324 10.7096H132.523C131.893 10.7096 131.397 11.2189 131.397 11.8355V11.9561C131.397 12.5861 131.906 13.082 132.523 13.082H134.064V13.645C134.064 14.6905 132.952 15.2132 131.853 15.2132C130.754 15.2132 129.681 14.7039 129.681 13.645V9.35581C129.681 8.31031 130.713 7.73395 131.772 7.73395C132.442 7.73395 133.126 7.94841 133.582 8.41754C133.917 8.75264 134.44 8.79285 134.855 8.57839C135.498 8.2433 135.686 7.37205 135.19 6.8359C134.279 5.85743 133.046 5.49553 131.839 5.49553C129.547 5.49553 127.255 6.79569 127.255 9.36921V13.6584C127.255 16.2989 129.561 17.6125 131.879 17.5991C134.158 17.5589 136.45 16.2453 136.45 13.645Z" fill="#202225"/>
        <path d="M140.525 5.65637H140.351C139.721 5.65637 139.225 6.16571 139.225 6.78229V16.2855C139.225 16.9155 139.734 17.4115 140.351 17.4115H140.525C141.155 17.4115 141.651 16.9021 141.651 16.2855V6.78229C141.664 6.15231 141.155 5.65637 140.525 5.65637Z" fill="#202225"/>
        <path d="M147.428 9.48984V9.15475C147.428 8.52477 147.937 8.02883 148.554 8.02883H151.797C152.427 8.02883 152.923 7.51949 152.923 6.90292V6.78229C152.923 6.15231 152.414 5.65637 151.797 5.65637H146.101C145.471 5.65637 144.975 6.16571 144.975 6.78229V16.2855C144.975 16.9155 145.484 17.4115 146.101 17.4115H146.302C146.932 17.4115 147.428 16.9021 147.428 16.2855V14.1543C147.428 13.5244 147.937 13.0284 148.554 13.0284H151.114C151.744 13.0284 152.24 12.5191 152.24 11.9025V11.7551C152.24 11.1251 151.73 10.6292 151.114 10.6292H148.554C147.937 10.6158 147.428 10.1064 147.428 9.48984Z" fill="#202225"/>
        <path d="M37.7717 99.8042H80.7977V81.2401H47.7307L37.7717 99.8042Z" fill="#7196FF"/>
        <path d="M211.203 81.2401H87.3253V132.013H211.203V81.2401Z" fill="#D4E4FF"/>
        <path d="M62.9589 132.001H87.3269V81.2278H62.9589L62.9589 132.001Z" fill="#AEC7FF"/>
        <path d="M62.9573 81.2803L42.8517 61.1747L28.4963 75.5301C22.9472 81.0792 22.9472 90.0865 28.4963 95.6357C34.0455 101.185 43.0528 101.185 48.6019 95.6357L62.9573 81.2803Z" fill="#D4E4FF"/>
        <path d="M153.339 97.4854H109.669V132.013H153.339V97.4854Z" fill="#7196FF"/>
        <path d="M199.019 97.4854H165.509V132.013H199.019V97.4854Z" fill="#7196FF"/>
        <path d="M198.979 38.5894H194.864H134.694C133.783 38.5894 133.046 39.3266 133.046 40.238V70.7315C133.046 71.643 133.783 72.3802 134.694 72.3802H194.864H198.979C199.89 72.3802 200.627 71.643 200.627 70.7315V40.238C200.627 39.3266 199.89 38.5894 198.979 38.5894Z" fill="#83DDC5"/>
        <path d="M154.465 63.1718H155.108C155.282 63.1718 155.416 63.3461 155.363 63.5203L154.17 67.6487C154.13 67.7693 154.036 67.8497 153.915 67.8497H153.218C153.098 67.8497 152.99 67.7693 152.964 67.6621L152.615 66.5764C152.615 66.563 152.602 66.5496 152.602 66.5362L152.441 65.4907H152.427L152.253 66.5362C152.253 66.5496 152.253 66.5496 152.253 66.563L151.945 67.6487C151.918 67.7693 151.811 67.8497 151.69 67.8497H151.007C150.886 67.8497 150.779 67.7693 150.752 67.6487L149.559 63.5203C149.505 63.3461 149.639 63.1718 149.814 63.1718H150.47C150.591 63.1718 150.698 63.2522 150.738 63.3729L151.234 65.3968C151.234 65.4102 151.234 65.4236 151.234 65.4236L151.355 66.4021H151.382L151.489 65.4505C151.489 65.437 151.489 65.4102 151.502 65.3968L151.958 63.976C151.998 63.8688 152.092 63.7884 152.213 63.7884H152.709C152.829 63.7884 152.937 63.8688 152.964 63.9894L153.379 65.4236C153.379 65.437 153.379 65.4504 153.392 65.4639L153.54 66.4289H153.553L153.687 65.4639C153.687 65.4504 153.687 65.437 153.687 65.437L154.197 63.3997C154.223 63.2656 154.331 63.1718 154.465 63.1718Z" fill="#202225"/>
        <path d="M158.526 66.2815C158.526 67.0321 159.866 67.0321 159.866 66.2815V63.4399C159.866 63.2924 159.987 63.1718 160.134 63.1718H160.791C160.939 63.1718 161.059 63.2924 161.059 63.4399V66.2815C161.059 68.4797 157.32 68.4797 157.333 66.2815V63.4399C157.333 63.2924 157.454 63.1718 157.601 63.1718H158.258C158.405 63.1718 158.526 63.2924 158.526 63.4399V66.2815Z" fill="#202225"/>
        <path d="M163.459 63.1718H164.196C164.303 63.1718 164.397 63.2388 164.45 63.3327L165.121 64.8741C165.214 65.0885 165.523 65.0885 165.617 64.8741L166.287 63.3327C166.327 63.2388 166.434 63.1718 166.541 63.1718H167.279C167.426 63.1718 167.547 63.2924 167.547 63.4399V67.5682C167.547 67.7157 167.426 67.8363 167.279 67.8363H166.635C166.488 67.8363 166.367 67.7157 166.367 67.5682V66.5093V66.4959L166.434 65.5577H166.394L165.844 66.9919C165.804 67.0991 165.697 67.1661 165.59 67.1661H165.147C165.04 67.1661 164.933 67.0991 164.893 66.9919L164.33 65.5577H164.303L164.383 66.4959C164.383 66.5093 164.383 66.5093 164.383 66.5227V67.5816C164.383 67.7291 164.263 67.8497 164.115 67.8497H163.472C163.325 67.8497 163.204 67.7291 163.204 67.5816V63.4533C163.19 63.2924 163.311 63.1718 163.459 63.1718Z" fill="#202225"/>
        <path d="M169.678 63.4533C169.678 63.3058 169.799 63.1852 169.946 63.1852H171.541C172.68 63.1852 173.257 64.0162 173.257 64.8339C173.257 65.6649 172.68 66.4959 171.555 66.4959H171.126C170.978 66.4959 170.858 66.6166 170.858 66.764V67.595C170.858 67.7425 170.737 67.8631 170.589 67.8631H169.946C169.799 67.8631 169.678 67.7425 169.678 67.595V63.4533ZM171.555 65.437C172.265 65.437 172.265 64.2709 171.555 64.2843H171.139C170.992 64.2843 170.871 64.405 170.871 64.5524V65.169C170.871 65.3164 170.992 65.437 171.139 65.437H171.555Z" fill="#202225"/>
        <path d="M176.393 66.2815C176.393 67.0321 177.734 67.0321 177.734 66.2815V63.4399C177.734 63.2924 177.854 63.1718 178.002 63.1718H178.658C178.806 63.1718 178.927 63.2924 178.927 63.4399V66.2815C178.927 68.4797 175.187 68.4797 175.187 66.2815V63.4399C175.187 63.2924 175.308 63.1718 175.455 63.1718H176.112C176.259 63.1718 176.38 63.2924 176.38 63.4399V66.2815H176.393Z" fill="#202225"/>
        <path d="M181.393 66.5496C181.487 66.4557 181.648 66.4557 181.755 66.5362C182.264 66.9383 183.082 66.9115 183.122 66.4557C183.135 66.1877 182.706 66.0402 182.318 65.9866C181.567 65.866 180.884 65.3968 180.884 64.4988C180.884 63.5739 181.715 63.1048 182.572 63.1048C183.055 63.1048 183.524 63.2254 183.953 63.6275C184.074 63.7348 184.06 63.9358 183.926 64.0431L183.564 64.3245C183.47 64.405 183.336 64.405 183.243 64.3245C182.747 63.9492 182.063 64.0028 182.05 64.4988C182.063 64.7266 182.304 64.8607 182.666 64.9411C183.497 65.0885 184.328 65.3834 184.275 66.5362C184.234 67.4476 183.283 67.9435 182.425 67.9435C181.942 67.9435 181.433 67.7291 181.018 67.3136C180.91 67.2063 180.91 67.0321 181.031 66.9249L181.393 66.5496Z" fill="#202225"/>
        <path d="M137.161 44.353C138.071 44.353 138.809 43.6148 138.809 42.7043C138.809 41.7938 138.071 41.0556 137.161 41.0556C136.25 41.0556 135.512 41.7938 135.512 42.7043C135.512 43.6148 136.25 44.353 137.161 44.353Z" fill="#3E70DD"/>
        <path d="M196.499 44.353C197.409 44.353 198.148 43.6148 198.148 42.7043C198.148 41.7938 197.409 41.0556 196.499 41.0556C195.588 41.0556 194.85 41.7938 194.85 42.7043C194.85 43.6148 195.588 44.353 196.499 44.353Z" fill="#3E70DD"/>
        <path d="M137.161 69.9139C138.071 69.9139 138.809 69.1758 138.809 68.2652C138.809 67.3547 138.071 66.6166 137.161 66.6166C136.25 66.6166 135.512 67.3547 135.512 68.2652C135.512 69.1758 136.25 69.9139 137.161 69.9139Z" fill="#3E70DD"/>
        <path d="M196.499 69.9139C197.409 69.9139 198.148 69.1758 198.148 68.2652C198.148 67.3547 197.409 66.6166 196.499 66.6166C195.588 66.6166 194.85 67.3547 194.85 68.2652C194.85 69.1758 195.588 69.9139 196.499 69.9139Z" fill="#3E70DD"/>
        <path d="M150.376 56.108H149.076C148.808 56.108 148.567 56.2957 148.5 56.5503C148.098 57.9309 147.83 58.8558 147.656 59.4724C147.589 59.727 147.347 59.9147 147.079 59.9147H145.511C145.109 59.9147 144.827 59.526 144.935 59.1507L145.578 56.8854C145.685 56.4967 145.404 56.1214 145.002 56.1214H144.774C144.506 56.1214 144.264 56.2957 144.197 56.5638L143.353 59.4858C143.273 59.7404 143.045 59.9281 142.777 59.9281H141.195C140.793 59.9281 140.498 59.5394 140.619 59.1507L141.275 56.8988C141.383 56.5101 141.101 56.1214 140.699 56.1214H140.686C140.31 56.1214 140.015 55.7729 140.096 55.3976L140.391 53.8562C140.444 53.5747 140.699 53.3737 140.98 53.3737H141.865C142.133 53.3737 142.361 53.1994 142.441 52.9447C142.482 52.7973 142.535 52.6365 142.602 52.3818H141.369C140.98 52.3818 140.699 52.0333 140.779 51.658L141.115 50.0763C141.168 49.7949 141.423 49.5938 141.704 49.5938H142.978C143.246 49.5938 143.474 49.4196 143.554 49.1783C143.822 48.2936 144.104 47.3018 144.345 46.4439C144.425 46.1893 144.653 46.015 144.921 46.015H146.503C146.905 46.015 147.2 46.4037 147.079 46.7924L146.476 48.8298C146.369 49.2185 146.65 49.6072 147.052 49.6072H147.28C147.548 49.6072 147.79 49.433 147.857 49.1783L148.647 46.4573C148.728 46.2027 148.956 46.0284 149.224 46.0284H150.846C151.248 46.0284 151.543 46.4171 151.422 46.8058L150.805 48.8298C150.685 49.2185 150.98 49.6072 151.382 49.6072H151.435C151.838 49.6072 152.119 49.9825 152.012 50.3712L151.569 51.9529C151.502 52.2075 151.261 52.3952 150.993 52.3952H150.162C149.894 52.3952 149.653 52.5828 149.586 52.8375L149.438 53.3871H150.698C151.087 53.3871 151.368 53.7356 151.288 54.1109L150.966 55.6523C150.899 55.9204 150.658 56.108 150.376 56.108ZM146.918 53.119L146.959 52.9716C147.066 52.5828 146.771 52.2075 146.382 52.2075H145.645C145.364 52.2075 145.136 52.3952 145.055 52.6633L145.015 52.8107C144.921 53.186 145.203 53.5613 145.605 53.5613H146.342C146.61 53.5613 146.851 53.3737 146.918 53.119Z" fill="#202225"/>
        <path d="M153.942 55.6791V49.5134C153.942 46.4439 156.743 45.0768 159.223 45.0768C161.716 45.0768 164.504 46.4439 164.504 49.5134V55.6791C164.504 58.7352 161.716 60.0889 159.223 60.0889C156.743 60.0889 153.942 58.7352 153.942 55.6791ZM156.851 55.6791C157.011 57.7969 161.421 57.7969 161.595 55.6791V49.5134C161.435 47.342 157.025 47.342 156.851 49.5134V55.6791Z" fill="#202225"/>
        <path d="M169.745 59.8879C169.41 59.8879 169.142 59.6198 169.142 59.2847V49.5938L168.15 50.4517C167.922 50.6527 167.587 50.6527 167.359 50.4517L166.354 49.5938C166.086 49.366 166.072 48.9638 166.3 48.7226L169.41 45.4387C169.53 45.318 169.678 45.251 169.852 45.251H171.38C171.715 45.251 171.983 45.5191 171.983 45.8542V59.2847C171.983 59.6198 171.715 59.8879 171.38 59.8879H169.745Z" fill="#202225"/>
        <path d="M177.023 59.8879C176.688 59.8879 176.42 59.6198 176.42 59.2847V49.5938L175.428 50.4517C175.2 50.6527 174.865 50.6527 174.637 50.4517L173.632 49.5938C173.364 49.366 173.35 48.9638 173.578 48.7226L176.688 45.4387C176.809 45.318 176.956 45.251 177.13 45.251H178.658C178.993 45.251 179.262 45.5191 179.262 45.8542V59.2847C179.262 59.6198 178.993 59.8879 178.658 59.8879H177.023Z" fill="#202225"/>
        <path d="M191.11 45.5995L191.647 46.6718C191.74 46.846 191.727 47.0605 191.633 47.2348L184.958 59.5662C184.851 59.7672 184.65 59.8879 184.422 59.8879H182.519C182.063 59.8879 181.768 59.4053 181.983 59.0032L187.371 48.9906C187.585 48.5885 187.29 48.106 186.835 48.106H182.036C181.701 48.106 181.433 47.8379 181.433 47.5028V45.881C181.433 45.5459 181.701 45.2778 182.036 45.2778H190.548C190.802 45.2644 191.017 45.3984 191.11 45.5995Z" fill="#202225"/>
        <path d="M45.0366 38.8306L43.3343 42.3692C42.9322 43.2002 43.8034 44.0581 44.6345 43.6694L48.1731 41.9671C48.4411 41.8331 48.7494 41.8331 49.0175 41.9671L52.5561 43.6694C53.3871 44.0715 54.245 43.2002 53.8563 42.3692L52.154 38.8306C52.0199 38.5625 52.0199 38.2543 52.154 37.9862L53.8563 34.4476C54.2584 33.6166 53.3871 32.7587 52.5561 33.1474L49.0175 34.8497C48.7494 34.9837 48.4411 34.9837 48.1731 34.8497L44.6345 33.1474C43.8034 32.7453 42.9456 33.6166 43.3343 34.4476L45.0366 37.9862C45.1572 38.2543 45.1572 38.5625 45.0366 38.8306Z" fill="#3E70DD"/>
        <path d="M181.956 15.6958C181.219 15.6958 180.615 15.0926 180.615 14.3554V13.015C180.615 12.2778 181.219 11.6747 181.956 11.6747C182.693 11.6747 183.296 12.2778 183.296 13.015V14.3554C183.296 15.106 182.693 15.6958 181.956 15.6958Z" fill="#D4E4FF"/>
        <path d="M181.956 26.4188C181.219 26.4188 180.615 25.8156 180.615 25.0784V23.738C180.615 23.0008 181.219 22.3976 181.956 22.3976C182.693 22.3976 183.296 23.0008 183.296 23.738V25.0784C183.296 25.829 182.693 26.4188 181.956 26.4188Z" fill="#D4E4FF"/>
        <path d="M185.307 19.0467C185.307 18.3095 185.91 17.7063 186.647 17.7063H187.988C188.725 17.7063 189.328 18.3095 189.328 19.0467C189.328 19.7839 188.725 20.3871 187.988 20.3871H186.647C185.91 20.3871 185.307 19.7973 185.307 19.0467Z" fill="#D4E4FF"/>
        <path d="M174.584 19.0467C174.584 18.3095 175.187 17.7063 175.924 17.7063H177.264C178.002 17.7063 178.605 18.3095 178.605 19.0467C178.605 19.7839 178.002 20.3871 177.264 20.3871H175.924C175.187 20.3871 174.584 19.7973 174.584 19.0467Z" fill="#D4E4FF"/>
        <path d="M228.869 57.2473C228.132 57.2473 227.529 56.6442 227.529 55.907V54.5666C227.529 53.8294 228.132 53.2262 228.869 53.2262C229.606 53.2262 230.209 53.8294 230.209 54.5666V55.907C230.209 56.6576 229.606 57.2473 228.869 57.2473Z" fill="white"/>
        <path d="M228.869 67.9703C228.132 67.9703 227.529 67.3672 227.529 66.63V65.2896C227.529 64.5524 228.132 63.9492 228.869 63.9492C229.606 63.9492 230.209 64.5524 230.209 65.2896V66.63C230.209 67.3806 229.606 67.9703 228.869 67.9703Z" fill="white"/>
        <path d="M232.22 60.5983C232.22 59.8611 232.823 59.2579 233.56 59.2579H234.9C235.638 59.2579 236.241 59.8611 236.241 60.5983C236.241 61.3355 235.638 61.9387 234.9 61.9387H233.56C232.823 61.9387 232.22 61.3489 232.22 60.5983Z" fill="white"/>
        <path d="M221.497 60.5983C221.497 59.8611 222.1 59.2579 222.837 59.2579H224.178C224.915 59.2579 225.518 59.8611 225.518 60.5983C225.518 61.3355 224.915 61.9387 224.178 61.9387H222.837C222.1 61.9387 221.497 61.3489 221.497 60.5983Z" fill="white"/>
    </g>
    <defs>
        <clipPath id="expiring_premium_generic">
            <rect width="268.061" height="132.013" fill="white"/>
        </clipPath>
    </defs>
</svg>
