<svg fill="none" height="44" viewBox="0 0 44 44" width="44" xmlns="http://www.w3.org/2000/svg"><g fill="#fff"><path d="m25.6667 13.8333c0-.5523-.4477-1-1-1h-6.7733l1.1105-6.25643c.0997-.56158-.3322-1.07687-.9025-1.07687h-1.8047c-.4445 0-.8249.31884-.9026.75646l-1.1674 6.57684h-6.56313c-.4453 0-.82619.3201-.90295.7587l-.32083 1.8333c-.09816.5609.33349 1.0747.90294 1.0747h6.24237l-1.9434 11h-6.56313c-.4453 0-.82619.32-.90295.7587l-.32083 1.8333c-.09816.5609.33349 1.0747.90294 1.0747h6.24237l-1.11057 6.2564c-.09968.5616.33217 1.0769.90257 1.0769h1.8047c.4444 0 .8248-.3188.9025-.7565l1.1674-6.5768h11l-1.1105 6.2564c-.0997.5616.3322 1.0769.9026 1.0769h1.8046c.4445 0 .8249-.3188.9026-.7565l1.1674-6.5768h6.5631c.4453 0 .8262-.3201.903-.7587l.3208-1.8333c.0982-.5609-.3335-1.0747-.9029-1.0747h-6.2423l.7642-4.326c.1082-.6124-.3629-1.174-.9847-1.174h-1.6349c-.4852 0-.9004.3483-.9848.826l-.8257 4.674h-11l1.9433-11h7.4142c.5523 0 1-.4477 1-1z"/><path d="m38.5458 9.16667v-1.83333c0-2.05334-1.7875-3.66667-3.7125-3.66667s-3.6667 1.61333-3.6667 3.66667v1.83333h-.8333c-.5523 0-1 .44772-1 1.00003v7.1666c0 .5523.4477 1 1 1h4.5 4.5c.5522 0 1-.4477 1-1v-7.1666c0-.55231-.4478-1.00003-1-1.00003zm-1.8792 0h-3.6667v-1.83333c0-1.04762.8556-1.83334 1.8334-1.83334.9777 0 1.8333.78572 1.8333 1.83334z"/></g></svg>