<svg height="222" viewBox="0 0 272 222" width="272" xmlns="http://www.w3.org/2000/svg" xmlns:xlink="http://www.w3.org/1999/xlink"><mask id="a" fill="#fff"><path d="m271.217.399v186.601h-271.217v-186.601z" fill="#fff" fill-rule="evenodd"/></mask><g fill="none" fill-rule="evenodd" transform="translate(0 9)"><path d="m240.9134 34.3993c0 18.778-15.222 34-34 34h-17.805c-11.183 0-20.249 9.065-20.249 20.249 0 11.182 9.066 20.248 20.249 20.248h43.057c21.567 0 39.052 17.484 39.052 39.052s-17.485 39.052-39.052 39.052h-205.221c-14.881 0-26.944-12.064-26.944-26.945 0-14.882 12.063-26.945 26.944-26.945h13.062c22.826 0 41.329-18.504 41.329-41.33v-50.051c0-22.826 18.504-41.33 41.33-41.33h84.248c18.778 0 34 15.222 34 34" fill="#f7f7f8" mask="url(#a)" transform="translate(0 16.577)"/><path d="m27.9027 177.2141 102.562-173.35c2.323-3.927 8.004-3.927 10.327 0l102.561 173.35c2.366 4-.516 9.055-5.164 9.055h-205.122c-4.647 0-7.53-5.055-5.164-9.055" fill="#fbb848"/><path d="m55.5638 131.5085c-.173 0-.349-.045-.509-.139-.474-.281-.633-.895-.351-1.37l74.88-126.564c1.273-2.151 3.525-3.435 6.025-3.435 2.499 0 4.751 1.284 6.024 3.435l54.333 91.835c.282.475.123 1.089-.351 1.37-.475.281-1.089.123-1.37-.352l-54.333-91.834c-.943-1.593-2.635-2.52-4.498-2.45-1.771.066-3.344 1.157-4.246 2.681l-74.743 126.332c-.186.316-.519.491-.861.491m182.6055 55.8423h-205.122c-2.546 0-4.819-1.32-6.08-3.532-1.262-2.212-1.241-4.841.056-7.032l22.31-37.71c.281-.474.896-.632 1.37-.351.475.281.633.894.352 1.37l-22.311 37.709c-.927 1.566-.941 3.443-.04 5.023s2.525 2.523 4.343 2.523h205.122c1.818 0 3.442-.943 4.343-2.523s.886-3.457-.04-5.023l-39.652-67.019c-.281-.476-.123-1.089.352-1.371.476-.28 1.089-.122 1.37.352l39.651 67.02c1.297 2.191 1.318 4.82.056 7.032-1.261 2.212-3.534 3.532-6.08 3.532m-37.9463-81.9224c-.342 0-.675-.175-.861-.491l-1.192-2.012c-.281-.476-.123-1.089.352-1.371.476-.279 1.089-.123 1.37.352l1.191 2.013c.282.475.123 1.089-.351 1.37-.16.094-.336.139-.509.139" fill="#7d8187"/><path d="m140.6224 128.8122h-9.555c-1.023 0-1.883-.773-1.989-1.792l-6.503-62.019c-.372-3.541 2.405-6.625 5.967-6.625h14.171c3.545 0 6.316 3.057 5.972 6.584l-6.073 62.047c-.1 1.024-.961 1.805-1.99 1.805m-16.0488 21.6782v-.703c0-6.092 4.938-11.03 11.03-11.03h.003c6.091 0 11.029 4.938 11.029 11.03v.703c0 6.091-4.938 11.03-11.029 11.03h-.003c-6.092 0-11.03-4.939-11.03-11.03" fill="#fff"/><path d="m239.6879 91.3225c-.834 0-1.51-.676-1.51-1.51 0-.553-.448-1-1-1-.553 0-1 .447-1 1 0 .834-.677 1.51-1.51 1.51-.552 0-1 .447-1 1s.448 1 1 1c.833 0 1.51.676 1.51 1.51 0 .552.447 1 1 1 .552 0 1-.448 1-1 0-.834.676-1.51 1.51-1.51.553 0 1-.447 1-1s-.447-1-1-1m-206.167 11.5576h-.001c-.833 0-1.51-.676-1.51-1.51 0-.553-.447-1-1-1-.552 0-1 .447-1 1 0 .834-.676 1.51-1.51 1.51-.551 0-1 .447-1 1s.449 1 1 1c.834 0 1.51.676 1.51 1.51 0 .552.448 1 1 1 .553 0 1-.448 1-1 0-.834.677-1.51 1.51-1.51h.001c.552 0 1-.447 1-1s-.448-1-1-1m23.4101-29.5674c.256 0 .512-.098.707-.293l1.184-1.183c.39-.389.39-1.023 0-1.414-.391-.39-1.024-.39-1.414 0l-1.184 1.183c-.391.39-.391 1.023-.001 1.414.195.195.452.293.708.293m-5.916 5.917c.256 0 .512-.098.707-.293l1.183-1.184c.39-.39.39-1.023 0-1.414-.391-.39-1.025-.39-1.414 0l-1.183 1.184c-.391.391-.391 1.023 0 1.414.195.195.451.293.707.293m6.623-2.8906c-.391-.391-1.023-.391-1.414 0s-.391 1.023 0 1.414l1.184 1.184c.195.195.451.293.707.293.255 0 .511-.098.707-.293.39-.391.39-1.024 0-1.414zm-6.1474-3.3194c.195.195.451.293.707.293s.513-.098.707-.293c.391-.391.391-1.023 0-1.414l-1.183-1.183c-.39-.39-1.024-.39-1.414 0-.39.391-.39 1.024 0 1.414zm165.0732-8.7754c.832 0 1.51.678 1.51 1.51 0 .833-.678 1.511-1.51 1.511-.833 0-1.511-.678-1.511-1.511 0-.832.678-1.51 1.511-1.51m0 5.021c1.935 0 3.51-1.576 3.51-3.511 0-1.936-1.575-3.51-3.51-3.51-1.936 0-3.511 1.574-3.511 3.51 0 1.935 1.575 3.511 3.511 3.511" fill="#7d8187"/></g></svg>