<?xml version="1.0" encoding="UTF-8" standalone="no"?>
<svg width="28px" height="40px" viewBox="0 0 28 40" version="1.1" xmlns="http://www.w3.org/2000/svg" xmlns:xlink="http://www.w3.org/1999/xlink" xmlns:sketch="http://www.bohemiancoding.com/sketch/ns">
    <!-- Generator: Sketch 3.4.4 (17249) - http://www.bohemiancoding.com/sketch -->
    <title>icon-file-small-archive</title>
    <desc>Created with Sketch.</desc>
    <defs>
        <filter x="-50%" y="-50%" width="200%" height="200%" filterUnits="objectBoundingBox" id="filter-1">
            <feOffset dx="0" dy="2" in="SourceAlpha" result="shadowOffsetOuter1"></feOffset>
            <feGaussianBlur stdDeviation="0" in="shadowOffsetOuter1" result="shadowBlurOuter1"></feGaussianBlur>
            <feColorMatrix values="0 0 0 0 0   0 0 0 0 0   0 0 0 0 0  0 0 0 0.07 0" in="shadowBlurOuter1" type="matrix" result="shadowMatrixOuter1"></feColorMatrix>
            <feMerge>
                <feMergeNode in="shadowMatrixOuter1"></feMergeNode>
                <feMergeNode in="SourceGraphic"></feMergeNode>
            </feMerge>
        </filter>
    </defs>
    <g id="Drag-&amp;-Drop" stroke="none" stroke-width="1" fill="none" fill-rule="evenodd" sketch:type="MSPage">
        <g id="Desktop-HD---Drag-&amp;-Drop,-Small-Icons---Dark" sketch:type="MSArtboardGroup" transform="translate(-776.000000, -524.000000)">
            <g id="Group" sketch:type="MSLayerGroup" transform="translate(404.000000, 526.000000)">
                <g id="icon-file-small-archive" transform="translate(374.000000, 0.000000)" sketch:type="MSShapeGroup">
                    <g id="Group" stroke="#7289DA" stroke-width="2" fill="#F4F6FC">
                        <path d="M0,3.00741988 C0,1.34646775 1.34252415,0 2.99998588,0 L15.1166483,0 C17.0807354,0 24,6.91885725 24,8.87457593 L24,33.0035574 C24,34.6584469 22.6582294,36 21.0089096,36 L2.99109042,36 C1.33915679,36 0,34.6544607 0,32.9925801 L0,3.00741988 Z" id="Rectangle-113"></path>
                        <path d="M17,1.09677336 C17,0.542040316 17.3147964,0.407097791 17.7133118,0.80556379 L23.1952031,6.28677654 C23.5891543,6.68067898 23.4552279,7 22.9039575,7 L18.0045574,7 C17.4497557,7 17,6.54676916 17,5.99556698 L17,1.09677336 Z" id="Path" filter="url(#filter-1)"></path>
                    </g>
                    <g id="Group-1" transform="translate(10.000000, 14.000000)" fill="#8596CF">
                        <g id="Group">
                            <path d="M0,0 L4,0 L4,22 L0,22 L0,0 Z M2,21 L1,21 L1,20 L2,20 L2,21 Z M3,20 L2,20 L2,19 L3,19 L3,20 Z M2,19 L1,19 L1,18 L2,18 L2,19 Z M3,18 L2,18 L2,17 L3,17 L3,18 Z M2,17 L1,17 L1,16 L2,16 L2,17 Z M3,16 L2,16 L2,15 L3,15 L3,16 Z M2,15 L1,15 L1,14 L2,14 L2,15 Z M3,14 L2,14 L2,13 L3,13 L3,14 Z M2,13 L1,13 L1,12 L2,12 L2,13 Z M3,12 L2,12 L2,11 L3,11 L3,12 Z M2,11 L1,11 L1,10 L2,10 L2,11 Z M3,10 L2,10 L2,9 L3,9 L3,10 Z M2,9 L1,9 L1,8 L2,8 L2,9 Z M3,8 L2,8 L2,7 L3,7 L3,8 Z M2,7 L1,7 L1,6 L2,6 L2,7 Z M3,6 L2,6 L2,5 L3,5 L3,6 Z M2,5 L1,5 L1,4 L2,4 L2,5 Z M3,4 L2,4 L2,3 L3,3 L3,4 Z M2,3 L1,3 L1,2 L2,2 L2,3 Z M3,2 L2,2 L2,1 L3,1 L3,2 Z" id="Rectangle-path"></path>
                        </g>
                    </g>
                </g>
            </g>
        </g>
    </g>
</svg>