<svg fill="none" height="200" viewBox="0 0 616 200" width="616" xmlns="http://www.w3.org/2000/svg"><path d="m16.7252 31.686 6.2469-2.0834c.3067-.1406.5666-.3664.7488-.6505.1823-.2841.2791-.6145.2791-.9521s-.0968-.668-.2791-.9521c-.1822-.2841-.4421-.5099-.7488-.6505l-6.2469-2.0834c-.4267-.1927-.7684-.5347-.9611-.9616l-2.2424-6.2502c-.1053-.3206-.3092-.5998-.5824-.7977-.2733-.1979-.602-.3045-.9393-.3045s-.666.1066-.9393.3045c-.2732.1979-.4771.4771-.5824.7977l-2.24244 6.2502c-.19263.4269-.53437.7689-.96107.9616l-6.24688 2.0834c-.306706.1406-.566625.3664-.748843.6505-.1822177.2841-.279067.6145-.279067.9521s.0968493.668.279067.9521c.182218.2841.442137.5099.748843.6505l6.24688 2.0834c.22686.0689.43327.1926.6009.3604.16764.1677.29135.3742.36017.6012l2.24244 6.2502c.1053.3206.3092.5998.5824.7977.2733.1979.602.3045.9393.3045s.666-.1066.9393-.3045c.2732-.1979.4771-.4771.5824-.7977l2.2424-6.2502c.0689-.227.1926-.4335.3602-.6012.1676-.1678.374-.2915.6009-.3604z" fill="#ffcb00"/><path d="m225.963 5.50924 1.963-3.92613c.078-.21084.094-.43975.046-.659527s-.158-.421174-.317-.58027-.361-.2692008-.581-.3172158c-.219-.0480149-.448-.0319236-.659.0463531l-3.926 1.9622797c-.292.11028-.614.1102-.906-.00023l-4.003-1.888893c-.201-.1014741-.428-.13698491-.65-.1014842-.223.0355008-.428.1402102-.587.2991962s-.263.364124-.299.586186c-.035.222065 0 .449705.102.650465l1.888 4.00268c.111.292.111.61421.001.90615l-1.963 3.9261c-.078.2109-.094.4398-.046.6596.048.2197.158.4211.317.5802s.361.2692.581.3173c.219.048.448.0319.659-.0464l3.926-1.96228c.14-.07448.295-.11342.453-.11338s.314.03906.453.11361l4.003 1.88885c.201.1015.428.137.651.1015.222-.0355.427-.1402.586-.2992.159-.1589.263-.3641.299-.5862.035-.222 0-.4497-.102-.6504l-1.888-4.0027c-.075-.13942-.114-.29505-.114-.45311s.039-.31367.113-.45305z" fill="#ff98cb"/><g fill="#adf3ff"><path d="m606.005 10.1676c0-1.19714-.97-2.1676-2.167-2.1676-1.198 0-2.168.97046-2.168 2.1676v2.2037c0 1.1971.97 2.1676 2.168 2.1676 1.197 0 2.167-.9705 2.167-2.1676z"/><path d="m606.005 27.6285c0-1.1971-.97-2.1676-2.167-2.1676s-2.168.9705-2.168 2.1676v2.2037c0 1.1971.971 2.1676 2.168 2.1676s2.167-.9705 2.167-2.1676z"/><path d="m613.832 22.2097c1.197 0 2.168-.9705 2.168-2.1676s-.971-2.1676-2.168-2.1676h-2.204c-1.197 0-2.167.9705-2.167 2.1676s.97 2.1676 2.167 2.1676z"/><path d="m596.371 22.0895c1.197 0 2.168-.9704 2.168-2.1675s-.971-2.1676-2.168-2.1676h-2.203c-1.198 0-2.168.9705-2.168 2.1676s.97 2.1675 2.168 2.1675z"/><path d="m11.2203 184.628c-.7367-.739-1.9311-.739-2.66778 0-.73669.739-.73669 1.938 0 2.677l1.35612 1.36c.73666.739 1.93106.739 2.66776 0s.7367-1.937 0-2.676z"/><path d="m21.9655 195.409c-.7367-.739-1.9311-.739-2.6678 0s-.7367 1.937 0 2.676l1.3561 1.361c.7367.739 1.9311.739 2.6678 0s.7367-1.938 0-2.677z"/><path d="m23.4475 187.231c.7367-.739.7367-1.938 0-2.677s-1.9311-.739-2.6678 0l-1.3561 1.361c-.7367.739-.7367 1.937 0 2.676s1.9311.739 2.6678 0z"/><path d="m12.6284 197.937c.7367-.739.7367-1.937 0-2.677-.7367-.739-1.9311-.739-2.66781 0l-1.35612 1.361c-.73669.739-.73669 1.937 0 2.676.73669.74 1.93113.74 2.66783 0z"/></g><path d="m427.15 194.457 4.165-1.389c.204-.093.377-.244.499-.433.121-.19.186-.41.186-.635s-.065-.445-.186-.635c-.122-.189-.295-.34-.499-.433l-4.165-1.389c-.284-.129-.512-.357-.641-.641l-1.495-4.167c-.07-.214-.206-.4-.388-.532s-.401-.203-.626-.203-.444.071-.626.203-.318.318-.388.532l-1.495 4.167c-.129.284-.357.512-.641.641l-4.165 1.389c-.204.093-.377.244-.499.433-.121.19-.186.41-.186.635s.065.445.186.635c.122.189.295.34.499.433l4.165 1.389c.151.046.289.129.4.241.112.111.195.249.241.4l1.495 4.167c.07.214.206.4.388.532s.401.203.626.203.444-.071.626-.203.318-.318.388-.532l1.495-4.167c.046-.151.129-.289.241-.4.111-.112.249-.195.4-.241z" fill="#ffcb00"/></svg>