<svg xmlns="http://www.w3.org/2000/svg" width="32" height="32" viewBox="0 0 32 32">
  <g fill="none" fill-rule="evenodd">
    <g transform="translate(4 4)">
      <path fill="#424549" stroke="#222426" stroke-width="2" d="M12.0000667,0 L12.0000667,0 C18.6274,0 24.0000667,5.37266667 24.0000667,12 C24.0000667,18.6273333 18.6274,24 12.0000667,24 C5.37273333,24 6.66666656e-05,18.6273333 6.66666656e-05,12 C6.66666656e-05,8.364 1.6174,5.10533333 4.1714,2.90466667" stroke-linecap="round" stroke-linejoin="round"/>
      <path fill="#222426" d="M12.0166667,14.3516 C13.3333333,14.3516 14.39,15.4089333 14.39,16.7249333 C14.39,18.0169333 13.3333333,19.0509333 12.0166667,19.0509333 C10.7246667,19.0509333 9.69066667,18.0169333 9.69066667,16.7249333 C9.69066667,15.4089333 10.7246667,14.3516 12.0166667,14.3516 M10.1973333,5.53226667 L13.7886667,5.53226667 C14.1186667,5.53226667 14.3833333,5.8036 14.3766667,6.13293333 L14.168,12.4849333 C14.1606667,12.8042667 13.9,13.0596 13.5806667,13.0596 L10.406,13.0596 C10.0866667,13.0596 9.826,12.8042667 9.81933333,12.4849333 L9.61066667,6.13293333 C9.60266667,5.8036 9.868,5.53226667 10.1973333,5.53226667"/>
    </g>
    <rect width="32" height="32"/>
  </g>
</svg>
