<svg xmlns="http://www.w3.org/2000/svg" xmlns:xlink="http://www.w3.org/1999/xlink" viewBox="0 0 120 90">
  <defs>
    <linearGradient id="linear-gradient" x1="35.37" y1="10.71" x2="52.77" y2="31.55" gradientUnits="userSpaceOnUse">
      <stop offset="0" stop-color="#4788ff"/>
      <stop offset="1" stop-color="#365dec"/>
    </linearGradient>
    <linearGradient id="linear-gradient-2" x1="48.13" y1="55.69" x2="106.86" y2="85.26" gradientUnits="userSpaceOnUse">
      <stop offset="0" stop-color="#ffd01a"/>
      <stop offset="1" stop-color="#ffa600"/>
    </linearGradient>
  </defs>
  <g id="Layer_2" data-name="Layer 2">
    <path d="M83.7,65.31H36.3V23.71a23.7,23.7,0,0,1,47.4,0ZM49.21,52.41H70.79V23.71a10.79,10.79,0,0,0-21.58,0Z" style="fill: url(#linear-gradient)"/>
    <path d="M9.13,17.87l3.39-1.19a.89.89,0,0,0,0-1.68L9.13,13.82a.88.88,0,0,1-.55-.55L7.4,9.88a.89.89,0,0,0-1.68,0L4.53,13.27a.89.89,0,0,1-.54.55L.59,15a.89.89,0,0,0,0,1.68L4,17.87a.9.9,0,0,1,.54.54L5.72,21.8a.89.89,0,0,0,1.68,0l1.18-3.39A.89.89,0,0,1,9.13,17.87Z" style="fill: #776bff"/>
    <g>
      <g>
        <rect x="108.54" y="18.46" width="2.86" height="4.29" rx="1.43" transform="translate(17.64 83.79) rotate(-45)" style="fill: #00e0a7"/>
        <rect x="116.63" y="26.55" width="2.86" height="4.29" rx="1.43" transform="translate(14.29 91.89) rotate(-45)" style="fill: #00e0a7"/>
      </g>
      <g>
        <rect x="116.63" y="18.46" width="2.86" height="4.29" rx="1.43" transform="translate(49.15 -77.45) rotate(45)" style="fill: #00e0a7"/>
        <rect x="108.54" y="26.55" width="2.86" height="4.29" rx="1.43" transform="translate(52.5 -69.35) rotate(45)" style="fill: #00e0a7"/>
      </g>
    </g>
    <circle cx="110.16" cy="71.6" r="2.22" style="fill: #ff87ff"/>
    <rect x="17.43" y="33.33" width="85.13" height="56.67" rx="3.23" style="fill: url(#linear-gradient-2)"/>
    <rect x="17.43" y="33.33" width="66.95" height="56.67" rx="3.23" style="fill: #ffd01a"/>
    <line x1="17.43" y1="81.75" x2="102.57" y2="81.75" style="fill: none;stroke: #ffa600;stroke-miterlimit: 10;stroke-width: 2.2620541703039643px"/>
    <line x1="17.43" y1="41.58" x2="84.38" y2="41.58" style="fill: none;stroke: #ffa600;stroke-miterlimit: 10;stroke-width: 2.2620541703039643px"/>
    <line x1="84.38" y1="75.05" x2="102.57" y2="75.05" style="fill: none;stroke: #ffa600;stroke-miterlimit: 10;stroke-width: 2.2620541703039643px"/>
    <line x1="84.38" y1="68.36" x2="102.57" y2="68.36" style="fill: none;stroke: #ffa600;stroke-miterlimit: 10;stroke-width: 2.2620541703039643px"/>
    <line x1="84.38" y1="61.66" x2="102.57" y2="61.66" style="fill: none;stroke: #ffa600;stroke-miterlimit: 10;stroke-width: 2.2620541703039643px"/>
    <line x1="84.38" y1="54.97" x2="102.57" y2="54.97" style="fill: none;stroke: #ffa600;stroke-miterlimit: 10;stroke-width: 2.2620541703039643px"/>
    <line x1="84.38" y1="48.28" x2="102.57" y2="48.28" style="fill: none;stroke: #ffa600;stroke-miterlimit: 10;stroke-width: 2.2620541703039643px"/>
    <line x1="84.38" y1="41.58" x2="102.57" y2="41.58" style="fill: none;stroke: #ffa600;stroke-miterlimit: 10;stroke-width: 2.2620541703039643px"/>
    <path d="M43.24,15.61A18.72,18.72,0,0,1,53.68,6.2" style="fill: none;stroke: #9ecdff;stroke-linecap: round;stroke-miterlimit: 10;stroke-width: 4.09556516735023px"/>
    <circle cx="50.91" cy="55.98" r="5.96" style="fill: #270813"/>
    <path d="M50.91,56,45.55,67.83a2.05,2.05,0,0,0,1.87,2.89h7a2.05,2.05,0,0,0,1.87-2.89Z" style="fill: #270813"/>
  </g>
</svg>
