<svg width="271" height="128" viewBox="0 0 271 128" fill="none" xmlns="http://www.w3.org/2000/svg">
<g clip-path="url(#clip0)">
<path opacity="0.2" d="M270.557 102.978V128H1.02038e-05V121.469C-0.00257782 118.973 0.487165 116.501 1.4412 114.194C2.39524 111.888 3.79484 109.792 5.55988 108.027C7.32493 106.262 9.42075 104.862 11.7274 103.908C14.034 102.954 16.5062 102.464 19.0023 102.467H22.7988C23.8057 102.467 24.7714 102.067 25.4834 101.355C26.1954 100.643 26.5954 99.6773 26.5954 98.6704V88.5201C26.6162 78.3744 30.6639 68.652 37.849 61.489C45.0342 54.326 54.769 50.3083 64.9147 50.3188H73.0979C77.843 50.3238 82.4624 48.794 86.2665 45.9577C90.0706 43.1215 92.8553 39.1309 94.205 34.5819C95.5575 30.0345 98.343 26.0457 102.146 23.2099C105.95 20.3742 110.568 18.8431 115.312 18.845H187.446C189.941 18.8294 192.414 19.3057 194.724 20.2466C197.034 21.1874 199.137 22.5744 200.91 24.3282C202.684 26.0821 204.095 28.1684 205.062 30.4678C206.03 32.7672 206.534 35.2347 206.547 37.7293V55.0792H222.854C235.53 55.1105 247.675 60.1733 256.62 69.155C265.565 78.1367 270.578 90.3024 270.557 102.978Z" fill="#AEC7FC"/>
<path d="M154.34 120.092H104.06C102.952 120.092 102.054 120.991 102.054 122.099C102.054 123.207 102.952 124.105 104.06 124.105H154.34C155.448 124.105 156.346 123.207 156.346 122.099C156.346 120.991 155.448 120.092 154.34 120.092Z" fill="#36393F"/>
<path d="M129.18 68.8489L113.443 84.5858V106.617L129.18 122.354L144.917 106.617V84.4284L129.18 68.8489ZM137.049 103.293L129.18 111.161L121.312 103.293V87.6741L129.18 79.8057L137.049 87.6741V103.293Z" fill="#FA6EF6"/>
<path d="M121.371 103.234L113.542 106.46L129.18 122.099V111.043L121.371 103.234Z" fill="#E655D4"/>
<path d="M121.371 87.6743V103.234L129.18 111.044L137.009 103.234V87.6743L129.18 79.8452L121.371 87.6743Z" fill="#FFCFF9"/>
<path d="M129.22 95.4443L121.41 103.273L121.371 103.234V99.0244L127.056 93.3395L129.22 95.4443Z" fill="white"/>
<path d="M132.127 98.4072L124.358 106.217L126.519 108.367L134.288 100.558L132.127 98.4072Z" fill="white"/>
<path d="M64.9148 33.067C64.1977 33.067 63.6165 33.6482 63.6165 34.3653C63.6165 35.0823 64.1977 35.6636 64.9148 35.6636H66.1934C66.9104 35.6636 67.4917 35.0823 67.4917 34.3653C67.4917 33.6482 66.9104 33.067 66.1934 33.067H64.9148Z" fill="#D4E4FF"/>
<path d="M54.548 33.0868C53.831 33.0868 53.2498 33.668 53.2498 34.3851C53.2498 35.1021 53.831 35.6833 54.548 35.6833H55.8267C56.5437 35.6833 57.125 35.1021 57.125 34.3851C57.125 33.668 56.5437 33.0868 55.8267 33.0868H54.548Z" fill="#D4E4FF"/>
<path d="M59.0724 29.8411C59.0724 30.5581 59.6536 31.1394 60.3707 31.1394C61.0877 31.1394 61.6689 30.5581 61.6689 29.8411V28.5625C61.6689 27.8455 61.0877 27.2642 60.3707 27.2642C59.6536 27.2642 59.0724 27.8455 59.0724 28.5625V29.8411Z" fill="#D4E4FF"/>
<path d="M59.0724 40.2079C59.0724 40.925 59.6536 41.5062 60.3707 41.5062C61.0877 41.5062 61.6689 40.925 61.6689 40.2079V38.9293C61.6689 38.2123 61.0877 37.631 60.3707 37.631C59.6536 37.631 59.0724 38.2123 59.0724 38.9293V40.2079Z" fill="#D4E4FF"/>
<path d="M224.802 38.3785C224.063 38.3785 223.464 38.9729 223.464 39.7063C223.464 40.4396 224.063 41.0341 224.802 41.0341H226.119C226.858 41.0341 227.457 40.4396 227.457 39.7063C227.457 38.9729 226.858 38.3785 226.119 38.3785H224.802Z" fill="#3E70DD"/>
<path d="M214.159 38.3785C213.421 38.3785 212.822 38.9729 212.822 39.7062C212.822 40.4396 213.421 41.0341 214.159 41.0341H215.477C216.216 41.0341 216.815 40.4396 216.815 39.7062C216.815 38.9729 216.216 38.3785 215.477 38.3785H214.159Z" fill="#3E70DD"/>
<path d="M218.821 35.054C218.821 35.7927 219.416 36.3916 220.149 36.3916C220.883 36.3916 221.477 35.7927 221.477 35.054V33.736C221.477 32.9972 220.883 32.3984 220.149 32.3984C219.416 32.3984 218.821 32.9972 218.821 33.736V35.054Z" fill="#3E70DD"/>
<path d="M218.821 45.6959C218.821 46.4347 219.416 47.0336 220.149 47.0336C220.883 47.0336 221.477 46.4347 221.477 45.6959V44.378C221.477 43.6392 220.883 43.0403 220.149 43.0403C219.416 43.0403 218.821 43.6392 218.821 44.378V45.6959Z" fill="#3E70DD"/>
<path d="M95.5624 70.816L90.9791 73.0192C90.7443 73.1346 90.4795 73.1741 90.2214 73.1321C89.9632 73.0901 89.7245 72.9687 89.5385 72.7848C89.3525 72.601 89.2283 72.3638 89.1833 72.1061C89.1383 71.8485 89.1747 71.5832 89.2873 71.3471L91.5102 66.7441C91.588 66.5744 91.6282 66.3898 91.6282 66.2031C91.6282 66.0164 91.588 65.8319 91.5102 65.6622L89.2873 60.9805C89.1747 60.7444 89.1383 60.4791 89.1833 60.2215C89.2283 59.9638 89.3525 59.7266 89.5385 59.5427C89.7245 59.3589 89.9632 59.2375 90.2214 59.1955C90.4795 59.1535 90.7443 59.193 90.9791 59.3084L95.5624 61.5116C95.7327 61.5995 95.9216 61.6455 96.1132 61.6455C96.3049 61.6455 96.4937 61.5995 96.664 61.5116L101.247 59.3084C101.482 59.193 101.747 59.1535 102.005 59.1955C102.263 59.2375 102.502 59.3589 102.688 59.5427C102.874 59.7266 102.998 59.9638 103.043 60.2215C103.088 60.4791 103.052 60.7444 102.939 60.9805L100.716 65.5638C100.638 65.7336 100.598 65.9181 100.598 66.1048C100.598 66.2915 100.638 66.476 100.716 66.6457L102.939 71.2488C103.052 71.4848 103.088 71.7501 103.043 72.0078C102.998 72.2654 102.874 72.5026 102.688 72.6865C102.502 72.8704 102.263 72.9917 102.005 73.0337C101.747 73.0757 101.482 73.0362 101.247 72.9208L96.664 70.816C96.4937 70.728 96.3049 70.6821 96.1132 70.6821C95.9216 70.6821 95.7327 70.728 95.5624 70.816Z" fill="#AEC7FF"/>
<path d="M203.439 68.7308H211.917L225.628 82.4416L220.435 87.6545L203.439 68.7308Z" fill="white"/>
<path d="M206.381 70.0956L222.182 85.8969L208.634 99.4449L189.731 80.5417L200.191 70.0817C200.598 69.675 201.081 69.3527 201.612 69.1332C202.144 68.9137 202.714 68.8014 203.289 68.8026C203.864 68.8039 204.433 68.9188 204.964 69.1407C205.494 69.3626 205.976 69.6871 206.381 70.0956Z" fill="white"/>
<path d="M225.618 82.4311C227.032 83.8446 229.32 83.8477 230.73 82.438C232.14 81.0284 232.137 78.7398 230.723 77.3263L217.064 63.667C215.65 62.2536 213.362 62.2504 211.952 63.6601C210.542 65.0697 210.546 67.3584 211.959 68.7719L225.618 82.4311Z" fill="white"/>
<path d="M224.9 83.1694L225.628 82.4416L211.917 68.7308H210.481L224.9 83.1694Z" fill="#D4E4FF"/>
<path d="M197.242 73.0584L200.35 69.9504C200.736 69.5602 201.196 69.2505 201.702 69.0391C202.209 68.8277 202.752 68.7189 203.301 68.7189C203.85 68.7189 204.393 68.8277 204.9 69.0391C205.406 69.2505 205.866 69.5602 206.252 69.9504L215.497 79.1958L214.573 80.1204C212.637 82.0483 210.016 83.1308 207.284 83.1308C204.553 83.1308 201.932 82.0483 199.996 80.1204L197.262 77.3861C196.688 76.8119 196.363 76.0345 196.357 75.2223C196.357 74.4129 196.675 73.6358 197.242 73.0584Z" fill="white"/>
<path d="M219.53 83.0908C220.067 84.1421 220.258 85.3366 220.074 86.5029C219.89 87.6691 219.342 88.7472 218.507 89.5823L214.828 93.2411L200.842 79.255L202.278 77.819C203.641 79.1829 205.359 80.1366 207.237 80.5713C209.115 81.0061 211.078 80.9044 212.901 80.2779C214.159 79.8688 215.523 79.9282 216.741 80.4451C217.959 80.9619 218.95 81.9016 219.53 83.0908Z" fill="#AEC7FF"/>
<path d="M220.466 98.8622L140.013 18.4092L134.546 23.8756L215 104.329L220.466 98.8622Z" fill="#FF9A15"/>
<path d="M191.611 78.677L186.645 83.6427C185.339 84.9486 185.336 87.0629 186.638 88.365C187.94 89.6671 190.055 89.664 191.36 88.3581L196.326 83.3923C197.632 82.0864 197.635 79.9721 196.333 78.67C195.031 77.3679 192.917 77.371 191.611 78.677Z" fill="#D4E4FF"/>
<path d="M196.345 83.3972L193.535 86.2069C192.222 87.5205 192.222 89.6504 193.535 90.964L202.938 100.367C204.252 101.681 206.382 101.681 207.695 100.367L210.505 97.5571C211.819 96.2435 211.819 94.1137 210.505 92.8001L201.102 83.3972C199.788 82.0836 197.659 82.0835 196.345 83.3972Z" fill="#D4E4FF"/>
<path d="M202.436 74.3567V82.6186C202.436 83.4794 202.094 84.305 201.485 84.9137C200.876 85.5223 200.051 85.8643 199.19 85.8643C198.329 85.8643 197.503 85.5223 196.895 84.9137C196.286 84.305 195.944 83.4794 195.944 82.6186V74.3567L199.19 71.111L202.436 74.3567Z" fill="white"/>
<path d="M179.304 36.8785L152.612 10.186L126.295 36.503L152.987 63.1955L179.304 36.8785Z" fill="#18191C"/>
<path d="M179.296 36.858L170.324 27.8864L144.007 54.2033L152.979 63.175L179.296 36.858Z" fill="#060607"/>
<path d="M159.929 17.4849L155.005 12.5609L128.688 38.8778L133.612 43.8018L159.929 17.4849Z" fill="#2E3338"/>
<path d="M156.209 21.1929L151.285 16.2689L141.841 25.7135L146.765 30.6375L156.209 21.1929Z" fill="#747F8D"/>
<path d="M189.499 31.9212L157.59 0.0125732L152.625 4.97829L184.533 36.8869L189.499 31.9212Z" fill="#18191C"/>
<path d="M152.988 68.3972L121.079 36.4886L116.114 41.4544L148.022 73.363L152.988 68.3972Z" fill="#18191C"/>
<path d="M179.302 36.8834L152.609 10.1897V4.97681L184.515 36.8834H179.302Z" fill="#23262A"/>
<path d="M153.002 63.1837L126.289 36.49H121.095L153.002 68.3966V63.1837Z" fill="#23262A"/>
<path d="M164.893 7.31413L159.969 2.39014L155.003 7.35586L159.927 12.2799L164.893 7.31413Z" fill="#2E3338"/>
<path d="M128.401 43.818L123.477 38.894L118.511 43.8598L123.435 48.7838L128.401 43.818Z" fill="#2E3338"/>
<path d="M159.926 17.4876V12.2747L155.009 7.35693V12.5698L159.926 17.4876Z" fill="#4F545C"/>
<path d="M133.606 43.8077H128.393L123.476 38.8899H128.688L133.606 43.8077Z" fill="#4F545C"/>
<path d="M170.332 27.8935H175.525L180.502 22.9167L189.492 31.9065L184.515 36.8832H179.302L170.332 27.8935Z" fill="#060607"/>
<path d="M170.332 27.8936L179.302 36.8833H184.515L175.525 27.8936H170.332Z" fill="#18191C"/>
<path d="M144.012 54.2136V59.4265L139.035 64.3836L148.025 73.3733L153.002 68.3965V63.1837L144.012 54.2136Z" fill="#060607"/>
<path d="M144.012 54.2136L153.002 63.1837V68.3965L144.012 59.4265V54.2136Z" fill="#18191C"/>
<path d="M144.819 106.46L137.009 103.234V87.6742L129.18 79.8451L121.371 87.6742L113.542 84.4285L129.18 68.7899L144.819 84.4285V106.46Z" fill="#E655D4"/>
<path d="M137.009 103.234L121.371 87.6743L129.18 79.8452L137.009 87.6743V103.234Z" fill="#FFADFB"/>
</g>
<defs>
<clipPath id="clip0">
<rect width="270.557" height="128" fill="white"/>
</clipPath>
</defs>
</svg>
