<svg width="68" height="48" viewBox="0 0 68 48" fill="none" xmlns="http://www.w3.org/2000/svg">
<g clip-path="url(#clip0_901_56146)">
<path d="M39.9073 38.2628H39.9049L38.8475 38.6057L10.6874 47.7033L9.77209 48H9.76969L0 28.4527L25.7779 20.1236L26.751 19.8099H26.7534L30.1376 18.7156L34.1987 26.8428L34.4564 27.3584L34.9767 28.3968L35.3573 29.158L39.9073 38.2628Z" fill="url(#paint0_linear_901_56146)"/>
<path d="M39.9049 38.2629L38.8475 38.6058L26.8787 35.3568L23.8582 34.5324L23.769 34.5105L21.753 33.9633L21.5651 33.9123L19.9729 33.4794L19.1901 34.6759L19.0962 34.8218L18.0652 36.4098L18.0388 36.4511L16.3984 38.9632L10.6874 47.7033L9.77209 48L15.8203 38.7395L17.5329 36.1155L17.5522 36.0864L18.7397 34.2698L18.7638 34.2333L19.4406 33.1949L19.59 32.9663C19.6234 32.9111 19.6735 32.8681 19.7328 32.8436C19.7922 32.8191 19.8577 32.8144 19.9199 32.8301L20.6426 33.0295L21.5555 33.2727H21.5771L23.9039 33.905L24.0003 33.9317L27.0521 34.7756L39.9049 38.2629Z" fill="#B9BBBE"/>
<path d="M26.7534 19.8099L25.7899 20.1236L0 28.4527L13.3177 31.7017L15.712 32.2853L15.9817 32.351L18.3061 32.9176H18.3495L19.4454 33.1851L20.4089 33.4283L20.6666 33.0392L21.1098 32.3437L22.1938 30.7046L22.3022 30.5417L23.6149 28.5597L26.6113 24.034L27.3171 22.9689L30.1377 18.7253L26.7534 19.8099Z" fill="#E3E5E8"/>
<path d="M44.7801 25.0482C44.7801 25.0482 32.6788 29.1993 31.5323 29.5884C30.8458 29.8316 30.3881 29.9119 30.0726 29.8316C29.9682 29.8117 29.87 29.7669 29.7862 29.7009C29.7024 29.6349 29.6354 29.5497 29.5909 29.4523C29.4247 29.1337 25.8164 22.575 25.5659 22.0813C25.2576 21.4733 25.9224 20.7438 26.8401 19.7175C27.1894 19.3284 34.7888 17.2614 34.7888 17.2614L42.8483 23.5258L44.7801 25.0482Z" fill="#ED5F00"/>
<path d="M44.7801 25.0482C44.7801 25.0482 32.6788 29.1993 31.5323 29.5884C30.8458 29.8316 30.3881 29.9119 30.0726 29.8316C29.5234 29.4158 30.7759 28.1609 30.7759 28.1609L42.8459 23.5258L44.7801 25.0482Z" fill="black"/>
<path d="M45.9917 24.4596C45.9055 24.7068 45.789 24.9421 45.6449 25.16C45.2585 25.7378 44.6897 26.1665 44.031 26.3759L43.5975 26.5072C38.9993 28.0272 34.0157 29.5373 32.8547 29.997C32.5884 30.1112 32.3032 30.1739 32.014 30.1818C31.7704 30.1819 31.5322 30.109 31.3298 29.9721C31.1274 29.8353 30.9698 29.6408 30.8771 29.4133C30.6628 29.0023 25.8189 20.2331 25.5105 19.5862C25.0746 18.6718 26.633 16.8771 27.2593 16.6242C27.8855 16.3713 38.3971 13.3071 38.3971 13.3071C38.3971 13.3071 44.6597 20.6951 46.0543 23.4042C46.169 23.751 46.1466 24.1291 45.9917 24.4596Z" fill="#FFC619"/>
<path d="M14.4522 35.6754C14.4522 35.6754 14.127 37.453 15.565 38.5766C16.5285 39.3329 18.3157 39.1213 19.6598 38.5547C20.4269 38.2185 21.1142 37.721 21.6759 37.0956C22.6938 37.22 23.7255 37.1608 24.7229 36.9205C26.091 36.5581 26.8449 35.7045 27.0087 34.919C27.358 33.2338 25.7586 32.0154 25.7586 32.0154C25.7586 32.0154 26.4427 30.1672 25.0167 29.0072C23.9497 28.1415 22.1865 28.764 22.1865 28.764C22.1865 28.764 20.7654 28.2533 19.5129 28.6522C18.099 29.0996 17.5859 30.0407 17.5859 30.0407C17.5859 30.0407 15.0736 30.0845 13.732 31.2226C12.7492 32.0543 12.6866 33.4672 13.1515 34.4059C13.5321 35.1598 14.4522 35.6754 14.4522 35.6754Z" fill="#EB5D30"/>
<path d="M45.9917 24.4596C45.9055 24.7068 45.7889 24.942 45.6448 25.16C45.2585 25.7378 44.6896 26.1664 44.031 26.3759L43.5975 26.5072C38.9992 28.0271 34.0156 29.5373 32.8546 29.9969C32.5884 30.1112 32.3032 30.1739 32.014 30.1818C31.7057 30.0942 31.9273 29.4522 32.1802 29.0266C32.4331 28.6011 33.0811 27.8107 33.77 27.587C37.5781 26.2957 43.6456 24.2626 46.0712 23.4528C46.1603 23.7876 46.1322 24.1433 45.9917 24.4596Z" fill="black"/>
<path d="M67.287 20.7632C64.7266 18.3727 60.8317 15.1262 60.8317 15.1262L58.5314 9.26296L56.5707 10.0412L57.5197 9.33835C57.5197 9.33835 57.368 3.01552 54.8172 1.42022C53.3551 0.505846 52.1002 0.289411 50.2407 0.0827026L47.7428 13.5528L44.0431 15.024L41.7717 19.5886C41.7717 19.5886 43.0483 21.9135 44.8331 23.5209C46.618 25.1284 48.834 24.7004 50.2575 24.6761C50.2575 24.6761 53.4996 27.7694 56.1998 29.9508C57.3343 30.87 58.8204 30.7338 60.0176 30.1769C62.8887 28.8418 65.719 26.3443 66.627 25.3473C68.4697 23.3264 68.1903 21.6046 67.287 20.7632Z" fill="url(#paint1_linear_901_56146)"/>
<path d="M52.5097 14.5717C52.4343 14.5721 52.3615 14.544 52.3057 14.4929C52.2499 14.4419 52.215 14.3715 52.2081 14.2958C52.2011 14.22 52.2225 14.1444 52.2681 14.0838C52.3137 14.0232 52.3801 13.9821 52.4543 13.9686L57.4162 13.0445C57.4551 13.0373 57.495 13.0379 57.5337 13.0463C57.5724 13.0547 57.609 13.0707 57.6416 13.0934C57.6741 13.1161 57.7019 13.145 57.7234 13.1786C57.7448 13.2121 57.7595 13.2496 57.7666 13.2889C57.7738 13.3281 57.7731 13.3684 57.7648 13.4075C57.7565 13.4465 57.7407 13.4835 57.7182 13.5164C57.6957 13.5492 57.667 13.5773 57.6338 13.599C57.6006 13.6207 57.5635 13.6355 57.5246 13.6427L52.5627 14.5668L52.5097 14.5717Z" fill="#D11583"/>
<path d="M51.9436 6.4104C51.8739 6.41117 51.8061 6.38727 51.7519 6.34285C51.6978 6.29843 51.6608 6.2363 51.6473 6.16722C51.6473 6.14533 51.2571 3.99314 51.0668 3.24899C51.0473 3.17063 51.0595 3.08766 51.1006 3.01833C51.1417 2.94901 51.2084 2.89902 51.286 2.87935C51.3636 2.85967 51.4458 2.87194 51.5145 2.91344C51.5831 2.95494 51.6327 3.02228 51.6521 3.10065C51.8448 3.87398 52.223 5.97996 52.2399 6.06994C52.2539 6.14892 52.2365 6.23031 52.1914 6.29636C52.1463 6.36242 52.0771 6.40778 51.999 6.42256L51.9436 6.4104Z" fill="#D11583"/>
<path d="M58.0352 1.78983C59.849 0.607949 62.3251 0.420696 63.9197 2.85499C65.5142 5.28927 64.9289 7.31258 62.8719 8.63551C61.5182 9.50368 41.5742 20.7948 38.9439 21.9305C37.4143 22.5846 35.9836 22.4631 35.0899 20.9942C34.0711 19.3089 34.2252 17.9276 35.7331 16.8406C36.9471 15.9676 55.4001 3.51402 58.0352 1.78983Z" fill="#FFE75C"/>
<path d="M51.8304 8.36803C51.7951 9.10122 51.5281 9.80372 51.0687 10.3726C50.6092 10.9415 49.9814 11.3469 49.2772 11.5294L49.6312 12.1788C50.9392 15.2259 51.2306 15.722 49.5469 17.0984C49.3061 17.3002 48.4678 17.7915 47.8801 18.1514C47.5285 18.3654 47.1407 18.5891 46.7408 18.7934C46.3209 19.0175 45.8844 19.2086 45.4353 19.3649C43.188 20.1212 39.8808 21.1936 36.9639 15.5396C35.8077 13.2974 36.2822 11.8456 37.3541 10.4643C38.6958 8.73524 41.9306 5.99454 42.8146 5.33307C43.0001 5.19203 43.3759 3.38759 44.125 2.12059C44.8741 0.853592 46.0062 -0.325859 50.2382 0.0851246C50.2382 0.0851246 51.9243 6.0067 51.8304 8.36803Z" fill="url(#paint2_linear_901_56146)"/>
<path d="M47.6296 12.2784C47.5833 12.2788 47.5375 12.2685 47.4958 12.2483C47.454 12.228 47.4174 12.1984 47.3888 12.1617C47.3141 12.0644 45.5485 9.76633 44.2791 5.92157C44.2573 5.84609 44.2653 5.76502 44.3015 5.69537C44.3376 5.62573 44.3991 5.57293 44.473 5.54807C44.5468 5.52321 44.6274 5.52821 44.6977 5.56203C44.768 5.59585 44.8226 5.65586 44.85 5.72945C46.0857 9.46722 47.844 11.7629 47.8633 11.7872C47.8877 11.8186 47.9057 11.8545 47.9163 11.893C47.9268 11.9314 47.9297 11.9716 47.9248 12.0112C47.9199 12.0507 47.9072 12.089 47.8876 12.1236C47.8679 12.1582 47.8416 12.1885 47.8103 12.2128C47.759 12.2543 47.6954 12.2774 47.6296 12.2784Z" fill="#D11583"/>
<path d="M47.8801 18.1465C47.5285 18.3605 47.1407 18.5842 46.7408 18.7885C45.4209 18.6207 44.4285 17.7866 43.7396 17.0862C41.6898 15.0167 40.1265 10.8996 40.0519 10.7269C40.0378 10.6895 40.0311 10.6497 40.0323 10.6098C40.0335 10.5698 40.0424 10.5305 40.0586 10.494C40.0748 10.4575 40.098 10.4247 40.1268 10.3972C40.1556 10.3698 40.1895 10.3484 40.2265 10.3342C40.2635 10.3199 40.3029 10.3132 40.3425 10.3144C40.3821 10.3156 40.421 10.3246 40.4572 10.341C40.4933 10.3573 40.5259 10.3807 40.553 10.4098C40.5802 10.4389 40.6014 10.4731 40.6155 10.5105C40.6299 10.5518 42.2076 14.6811 44.1659 16.6582C45.4305 17.9374 46.5818 18.3994 47.8801 18.1465Z" fill="#D11583"/>
<path d="M46.8877 13.1612C47.6922 14.7832 51.4016 14.1339 54.8653 13.5041C56.59 13.1928 57.8618 12.9569 57.8618 12.9569L61.5423 16.1572C62.2336 14.8927 63.951 11.3811 63.0862 9.59123C60.6775 4.64726 58.8252 4.05389 56.7803 4.66186C54.6775 5.29414 50.7248 7.14965 48.0945 8.85195C45.8664 10.294 45.9556 11.2741 46.8877 13.1612Z" fill="#FF78B9"/>
<path d="M20.7933 30.2667L22.0848 30.8609L21.0725 33.1034L23.2936 34.1253L22.7051 35.4292L20.484 34.4072L19.4718 36.6497L18.1803 36.0554L19.1925 33.813L16.9715 32.7911L17.56 31.4872L19.7811 32.5091L20.7933 30.2667Z" fill="white"/>
</g>
<defs>
<linearGradient id="paint0_linear_901_56146" x1="23.5571" y1="42.3362" x2="16.3289" y2="24.6658" gradientUnits="userSpaceOnUse">
<stop stop-color="#E3E5E8"/>
<stop offset="1" stop-color="#B9BBBE"/>
</linearGradient>
<linearGradient id="paint1_linear_901_56146" x1="50.7633" y1="13.6257" x2="65.3308" y2="31.3171" gradientUnits="userSpaceOnUse">
<stop offset="0.43" stop-color="#FF78B9"/>
<stop offset="0.5" stop-color="#FB6FB4"/>
<stop offset="0.78" stop-color="#EF50A5"/>
<stop offset="0.94" stop-color="#EB459F"/>
</linearGradient>
<linearGradient id="paint2_linear_901_56146" x1="42.1354" y1="5.57626" x2="51.6666" y2="20.2254" gradientUnits="userSpaceOnUse">
<stop offset="0.18" stop-color="#FF78B9"/>
<stop offset="0.29" stop-color="#FB6FB4"/>
<stop offset="0.71" stop-color="#EF50A5"/>
<stop offset="0.95" stop-color="#EB459F"/>
</linearGradient>
<clipPath id="clip0_901_56146">
<rect width="68" height="48" fill="white"/>
</clipPath>
</defs>
</svg>
