<svg width="660" height="278" viewBox="0 0 660 278" fill="none" xmlns="http://www.w3.org/2000/svg">
<g clip-path="url(#clip0_2040_22903)">
<rect width="660" height="278" rx="8" fill="url(#paint0_linear_2040_22903)"/>
<path d="M333.508 254.85L326.462 255.756L326.261 278H340.151L333.508 254.85Z" fill="#FF78B9"/>
<path d="M330.185 256.864C322.938 257.87 318.912 256.662 315.792 254.045C315.49 253.743 315.389 253.341 315.691 252.938C315.792 252.737 315.993 252.636 316.194 252.636L342.666 249.113C343.069 249.013 343.472 249.315 343.472 249.717C343.472 249.918 343.472 250.12 343.371 250.22C341.056 253.643 337.432 255.857 330.185 256.864Z" fill="white"/>
<path d="M327.67 238.041C329.582 237.739 331.394 239.148 331.696 241.06L332.401 246.596L325.355 247.502L324.65 241.966C324.348 240.054 325.757 238.343 327.67 238.041Z" fill="#83DDC5"/>
<path d="M328.071 241.362C328.877 241.261 329.581 241.865 329.682 242.569L329.883 243.777C329.984 244.583 329.481 245.287 328.675 245.388C327.87 245.488 327.166 244.884 327.065 244.18L326.864 242.972C326.763 242.167 327.367 241.462 328.071 241.362Z" fill="#4F5D7F"/>
<path d="M328.575 244.785C318.51 246.194 313.477 249.214 310.256 253.844C309.854 254.247 309.954 254.851 310.357 255.253C310.659 255.454 310.961 255.555 311.263 255.454L348.203 250.422C348.807 250.422 349.209 249.918 349.209 249.415C349.209 249.113 349.008 248.711 348.706 248.61C344.277 244.986 338.641 243.376 328.575 244.785Z" fill="#EBEFF7"/>
<path d="M314.684 253.642C315.073 253.642 315.388 253.326 315.388 252.937C315.388 252.548 315.073 252.232 314.684 252.232C314.294 252.232 313.979 252.548 313.979 252.937C313.979 253.326 314.294 253.642 314.684 253.642Z" fill="#FFD836"/>
<path d="M319.013 253.038C319.402 253.038 319.718 252.723 319.718 252.333C319.718 251.944 319.402 251.629 319.013 251.629C318.624 251.629 318.309 251.944 318.309 252.333C318.309 252.723 318.624 253.038 319.013 253.038Z" fill="#AEC7FF"/>
<path d="M342.667 249.817C343.056 249.817 343.372 249.502 343.372 249.113C343.372 248.724 343.056 248.408 342.667 248.408C342.278 248.408 341.962 248.724 341.962 249.113C341.962 249.502 342.278 249.817 342.667 249.817Z" fill="#F47FFF"/>
<path opacity="0.45" d="M329.382 263.506C329.785 262.802 330.691 262.601 331.395 263.104L331.798 263.406C332.502 263.808 332.704 264.714 332.2 265.419C331.798 266.123 330.892 266.325 330.187 265.821L329.785 265.519C329.08 265.016 328.879 264.11 329.382 263.506Z" fill="#4762B0"/>
<path fill-rule="evenodd" clip-rule="evenodd" d="M553.464 51.6082L614.712 29.2324L604.437 49.3249C602.44 53.2635 599.015 56.2888 594.905 57.7729L546.158 75.6392L544.445 71.0157L553.464 51.6082Z" fill="#DAE2ED"/>
<path fill-rule="evenodd" clip-rule="evenodd" d="M539.422 49.5533L620.82 19.8141C621.162 19.6999 621.505 19.8712 621.619 20.1566C621.676 20.3278 621.676 20.4991 621.619 20.6132L618.48 26.9492C618.137 27.6912 617.509 28.205 616.767 28.4904L614.769 29.2324L553.464 51.6082L544.446 71.0157L546.101 75.6392L547.357 79.1212L526.865 86.5988L523.896 78.4933L535.883 52.7498C536.626 51.2657 537.881 50.1241 539.422 49.5533Z" fill="#ECEFF6"/>
<path fill-rule="evenodd" clip-rule="evenodd" d="M544.502 71.0157L553.521 51.6082L614.769 29.2324L612.714 33.2852L555.69 54.1197L547.356 72.1002L548.383 74.8401L546.214 75.5821L544.502 71.0157Z" fill="#C5CEDD"/>
<path fill-rule="evenodd" clip-rule="evenodd" d="M521.612 69.3604C512.365 88.9391 520.699 112.285 540.278 121.589C559.857 130.894 583.203 122.503 592.507 102.924C601.811 83.3452 593.42 59.9991 573.842 50.6949C554.206 41.5619 530.917 49.8958 521.612 69.3604Z" fill="#4F5D7F"/>
<path fill-rule="evenodd" clip-rule="evenodd" d="M534 75.2966C528.006 88.0256 533.429 103.209 546.158 109.203C558.887 115.196 574.07 109.773 580.064 97.0444C586.057 84.3154 580.635 69.1318 567.906 63.1383C555.234 57.2019 540.107 62.6246 534 75.2966Z" fill="#7687B2"/>
<path fill-rule="evenodd" clip-rule="evenodd" d="M530.86 55.147C530.802 61.1405 546.557 75.8103 556.888 83.9158C566.421 83.9729 590.052 83.0025 595.589 77.5798C596.103 77.1232 596.446 76.4953 596.503 75.8103C596.503 75.582 596.446 75.3537 596.388 75.1253C593.078 63.3096 585.315 54.0054 574.584 48.9252C561.055 42.475 544.959 44.3016 531.487 53.7771C531.088 54.0625 530.86 54.5762 530.86 55.147Z" fill="#FF7F14"/>
<path fill-rule="evenodd" clip-rule="evenodd" d="M556.204 85.9143C556.204 85.9143 593.877 63.3102 590.053 58.6296C586.114 53.7777 581.091 49.8391 575.44 47.1563C560.199 39.9071 543.36 43.0465 530.403 52.1795C521.27 58.6296 556.204 85.9143 556.204 85.9143Z" fill="#FF903E"/>
<path fill-rule="evenodd" clip-rule="evenodd" d="M537.539 76.9519C532.459 87.7402 537.025 100.583 547.813 105.664C558.602 110.744 571.445 106.177 576.525 95.3891C581.605 84.6008 577.039 71.7576 566.25 66.6774C555.462 61.6542 542.676 66.2207 537.539 76.9519Z" fill="#EBEFF7"/>
<path fill-rule="evenodd" clip-rule="evenodd" d="M540.678 78.4364C536.397 87.5123 540.278 98.3006 549.297 102.582C558.316 106.863 569.161 102.981 573.442 93.9624C577.724 84.9436 573.842 74.0982 564.823 69.8172C555.747 65.5361 544.959 69.4176 540.678 78.4364Z" fill="#DAE2ED"/>
<path fill-rule="evenodd" clip-rule="evenodd" d="M567.848 78.4936L558.031 72.6143C557.403 72.2718 556.661 72.2718 556.09 72.6143L546.101 78.2082C545.473 78.5507 545.073 79.2357 545.073 79.9206L544.959 91.3939C544.959 92.0789 545.301 92.7639 545.929 93.1063L555.747 98.9857C556.375 99.3282 557.117 99.3282 557.688 98.9857L567.677 93.3347C568.305 92.9922 568.705 92.3072 568.705 91.6222L568.819 80.149C568.819 79.5211 568.419 78.8361 567.848 78.4936Z" fill="#C5CEDD"/>
<path fill-rule="evenodd" clip-rule="evenodd" d="M551.352 83.516C549.868 86.6555 551.238 90.3657 554.377 91.8498C557.517 93.3339 561.227 91.964 562.711 88.8245C564.195 85.6851 562.825 81.9748 559.743 80.4907C556.603 79.0637 552.836 80.3766 551.352 83.516Z" fill="#B7C2CE"/>
<path fill-rule="evenodd" clip-rule="evenodd" d="M508.141 123.245H511.566C512.422 123.245 513.164 123.93 513.164 124.843V131.978C513.107 133.919 514.591 135.574 516.589 135.689C518.587 135.803 520.185 134.262 520.299 132.264C520.299 132.15 520.299 132.093 520.299 131.978V101.954C520.299 99.7847 518.587 97.9581 516.361 97.9581C516.361 97.9581 516.361 97.9581 516.304 97.9581H504.202C502.033 97.9581 500.264 99.7276 500.264 101.897C500.264 101.897 500.264 101.897 500.264 101.954V115.311C500.207 119.706 503.746 123.245 508.141 123.245ZM499.921 85.2861H506.771C506.771 87.7977 506.771 90.3093 506.771 92.8208H500.036C500.093 90.3663 500.093 87.7977 499.921 85.2861Z" fill="#7196FF"/>
<path fill-rule="evenodd" clip-rule="evenodd" d="M502.377 101.725H531.26C531.602 101.725 531.888 101.44 531.888 101.097C531.888 100.755 531.602 100.469 531.26 100.469H502.377C502.034 100.469 501.749 100.184 501.749 99.8413V95.2177C501.749 94.8752 501.464 94.5898 501.121 94.5898C500.779 94.5898 500.493 94.8752 500.493 95.2177V99.8413C500.55 100.869 501.349 101.725 502.377 101.725Z" fill="#E4E9F7"/>
<path fill-rule="evenodd" clip-rule="evenodd" d="M499.009 98.0152H503.29C503.633 98.0152 503.918 97.7298 503.918 97.3873V84.1445C503.918 83.802 503.633 83.5166 503.29 83.5166H499.009C498.667 83.5166 498.381 83.802 498.381 84.1445V97.3873C498.381 97.7298 498.61 98.0152 499.009 98.0152C498.952 98.0152 498.952 98.0152 499.009 98.0152Z" fill="black"/>
<path fill-rule="evenodd" clip-rule="evenodd" d="M499.979 85.2861H497.468C497.125 85.2861 496.84 85.5715 496.84 85.914C496.84 88.026 496.84 90.138 496.84 92.25C496.84 92.5925 497.125 92.8779 497.468 92.8779H499.808C501.692 92.8779 503.29 91.565 503.632 89.7384C503.975 87.6835 502.605 85.7428 500.55 85.3432C500.379 85.3432 500.151 85.2861 499.979 85.2861Z" fill="#7196FF"/>
<path fill-rule="evenodd" clip-rule="evenodd" d="M513.107 98.0152H517.388C517.731 98.0152 518.016 97.7298 518.016 97.3873V84.1445C518.016 83.802 517.731 83.5166 517.388 83.5166H513.107C512.765 83.5166 512.479 83.802 512.479 84.1445V97.3873C512.479 97.7298 512.765 98.0152 513.107 98.0152Z" fill="black"/>
<path fill-rule="evenodd" clip-rule="evenodd" d="M503.575 88.1976C506.829 83.7453 512.023 81.0625 517.56 81.0625H540.963C546.671 81.1196 551.295 85.7431 551.295 91.5083V110.688C551.295 114.512 548.213 117.651 544.388 117.651H510.653C504.888 117.594 500.265 112.971 500.265 107.206V98.4722C500.208 94.7619 501.406 91.1658 503.575 88.1976Z" fill="#AEC7FF"/>
<path fill-rule="evenodd" clip-rule="evenodd" d="M533.885 81.0625H540.906C546.671 81.1196 551.295 85.7431 551.295 91.5083V108.176C551.295 112 548.213 115.14 544.388 115.14H533.828C533.999 103.838 533.999 92.4216 533.885 81.0625ZM556.147 105.893L563.453 108.062C566.25 108.861 567.848 111.715 567.049 114.512C566.25 117.309 563.396 118.907 560.599 118.108C558.83 117.594 557.46 116.281 557.003 114.512L554.834 107.206C554.663 106.692 554.948 106.064 555.462 105.893C555.69 105.836 555.918 105.836 556.147 105.893Z" fill="#7196FF"/>
<path fill-rule="evenodd" clip-rule="evenodd" d="M539.194 123.244H542.619C543.475 123.244 544.217 123.929 544.217 124.842V131.977C544.16 133.918 545.644 135.574 547.642 135.688C549.583 135.745 551.238 134.261 551.352 132.263C551.352 132.149 551.352 132.092 551.352 131.977V96.3589C551.352 94.1899 549.583 92.3633 547.414 92.3633H535.312C533.143 92.3633 531.374 94.1899 531.374 96.3589V115.31C531.26 119.705 534.799 123.244 539.194 123.244Z" fill="#7196FF"/>
<path fill-rule="evenodd" clip-rule="evenodd" d="M516.532 101.725H545.415C545.758 101.725 546.043 101.439 546.043 101.097C546.043 100.755 545.758 100.469 545.415 100.469H516.532C516.19 100.469 515.904 100.184 515.904 99.8412V95.2177C515.961 94.8752 515.676 94.5898 515.333 94.5327C514.991 94.4756 514.706 94.761 514.648 95.1035C514.648 95.1606 514.648 95.1606 514.648 95.2177V99.8412C514.648 100.869 515.505 101.668 516.532 101.725Z" fill="#E4E9F7"/>
<path fill-rule="evenodd" clip-rule="evenodd" d="M513.107 98.0152H517.388C517.731 98.0152 518.016 97.7298 518.016 97.3873V84.1445C518.016 83.802 517.731 83.5166 517.388 83.5166H513.107C512.765 83.5166 512.479 83.802 512.479 84.1445V97.3873C512.479 97.7298 512.765 98.0152 513.107 98.0152Z" fill="black"/>
<path fill-rule="evenodd" clip-rule="evenodd" d="M512.937 85.2865H527.036C529.376 85.2865 531.26 83.4028 531.26 81.0625H540.108V99.4426H531.317C530.518 94.819 526.465 92.8212 521.613 92.8212H513.051C511.168 92.8212 509.569 91.5083 509.227 89.6817C508.884 87.6268 510.254 85.6861 512.309 85.2865C512.48 85.3436 512.709 85.2865 512.937 85.2865Z" fill="#7196FF"/>
<path fill-rule="evenodd" clip-rule="evenodd" d="M545.359 81.2904H513.166C507.4 81.2904 502.72 76.6097 502.72 70.8445V51.437C502.777 45.6718 507.4 40.9912 513.166 40.9912H545.359C551.124 40.9912 555.748 45.6718 555.805 51.437V70.8445C555.748 76.6097 551.124 81.2904 545.359 81.2904Z" fill="#80A7FF"/>
<path fill-rule="evenodd" clip-rule="evenodd" d="M538.566 81.2898H506.373C500.607 81.2898 495.927 76.6092 495.927 70.7869V51.3794C495.984 45.6142 500.607 40.9907 506.373 40.9336H538.566C544.331 40.9336 549.012 45.6142 549.012 51.3794V70.7869C549.012 76.6092 544.331 81.2898 538.566 81.2898Z" fill="#9CB8FF"/>
<path fill-rule="evenodd" clip-rule="evenodd" d="M552.665 68.4471H544.959V49.6104H552.665C556.489 49.6104 559.629 52.7498 559.629 56.5742V61.4832C559.629 65.3076 556.489 68.4471 552.665 68.4471Z" fill="#9CB8FF"/>
<path fill-rule="evenodd" clip-rule="evenodd" d="M544.959 64.2226V53.7768C544.959 53.3772 545.244 53.0918 545.644 53.0918H552.608C554.549 53.0918 556.09 54.633 556.09 56.5737V61.4827C556.09 63.4234 554.549 64.9646 552.608 64.9646H545.644C545.301 64.9646 544.959 64.6221 544.959 64.2226C544.959 64.2797 544.959 64.2226 544.959 64.2226Z" fill="#80A7FF"/>
<path fill-rule="evenodd" clip-rule="evenodd" d="M532.858 62.339C530.974 62.339 529.433 60.7978 529.433 58.9141C529.433 57.0304 530.974 55.4893 532.858 55.4893C534.742 55.4893 536.283 57.0304 536.283 58.9141C536.283 60.7978 534.742 62.339 532.858 62.339Z" fill="black"/>
<path fill-rule="evenodd" clip-rule="evenodd" d="M495.641 51.4365H519.33C521.613 51.4365 523.497 53.3202 523.497 55.6034V60.5124C523.497 66.2776 518.816 70.9582 513.051 71.0153H501.92C496.155 71.0153 491.474 66.3347 491.474 60.5695V55.6605C491.474 53.3202 493.358 51.4365 495.641 51.4365Z" fill="#CBDAF7"/>
<path fill-rule="evenodd" clip-rule="evenodd" d="M508.199 71.0158H501.92C496.155 71.0158 491.474 66.3352 491.474 60.57V55.6611C491.474 53.3778 493.358 51.4941 495.641 51.4941H514.421C516.704 51.4941 518.588 53.3778 518.588 55.6611V60.57C518.588 66.2781 513.964 70.9587 508.199 71.0158Z" fill="#CBDAF7"/>
<path fill-rule="evenodd" clip-rule="evenodd" d="M505.402 63.082H509.911C510.881 63.1391 511.623 63.9382 511.566 64.9086C511.509 65.8219 510.824 66.5069 509.911 66.564H505.402C504.431 66.5069 503.689 65.7078 503.746 64.7374C503.803 63.8241 504.488 63.1391 505.402 63.082ZM497.182 63.082H498.894C499.865 63.1391 500.607 63.9382 500.55 64.9086C500.493 65.8219 499.808 66.5069 498.894 66.564H497.182C496.211 66.5069 495.469 65.7078 495.527 64.7374C495.584 63.8241 496.326 63.1391 497.182 63.082Z" fill="#9CB8FF"/>
<path fill-rule="evenodd" clip-rule="evenodd" d="M507.286 75.126H504.489C503.861 75.126 503.348 74.6123 503.348 73.9844C503.348 73.3565 503.861 72.8428 504.489 72.8428H507.286C507.914 72.8428 508.428 73.3565 508.428 73.9844C508.428 74.6123 507.914 75.126 507.286 75.126Z" fill="#80A7FF"/>
<path opacity="0.4" fill-rule="evenodd" clip-rule="evenodd" d="M493.815 45.2147C493.815 45.2147 483.768 60.2269 494.557 77.5225L500.664 81.0615L540.05 79.3491L549.64 66.5629L540.05 40.9336H506.372L493.815 45.2147Z" fill="#4871E5"/>
<path fill-rule="evenodd" clip-rule="evenodd" d="M525.209 31.0596C548.155 31.0596 560.827 46.5856 560.827 59.4288C560.827 72.272 545.815 73.4136 542.276 64.3378L534.855 44.6448L502.091 48.9259L493.871 45.2156C496.896 40.1925 508.198 31.0596 525.209 31.0596Z" fill="#EBEFF7"/>
<path fill-rule="evenodd" clip-rule="evenodd" d="M544.73 66.5635L523.953 77.523H494.556L497.41 82.3178H545.301L549.468 72.8424L544.73 66.5635Z" fill="#EBEFF7"/>
<path fill-rule="evenodd" clip-rule="evenodd" d="M549.525 51.494L555.69 53.4347L558.373 42.5323C558.715 41.1623 557.859 39.7924 556.489 39.507C555.291 39.2216 554.035 39.8495 553.578 40.9911L549.525 51.494Z" fill="#DAE2ED"/>
<path fill-rule="evenodd" clip-rule="evenodd" d="M557.403 46.4141L555.69 53.4922L549.525 51.5514L552.151 44.7588C553.864 45.3296 555.633 45.9004 557.403 46.4141Z" fill="#B7C2CE"/>
<path fill-rule="evenodd" clip-rule="evenodd" d="M545.872 103.209L569.846 108.746L571.901 99.613L547.927 94.0762L545.872 103.209Z" fill="#B7C2CE"/>
<path fill-rule="evenodd" clip-rule="evenodd" d="M565.794 110.344L595.875 120.676C596.446 120.904 597.074 120.79 597.588 120.391C598.844 119.42 601.184 117.023 602.44 111.429C603.695 105.835 602.668 102.638 601.926 101.268C601.641 100.755 601.127 100.355 600.499 100.298L568.933 96.4165C568.305 96.3595 567.734 96.759 567.563 97.3869L564.995 108.917C564.88 109.545 565.223 110.116 565.794 110.344Z" fill="#C5CEDD"/>
<path fill-rule="evenodd" clip-rule="evenodd" d="M574.127 101.725C573.956 102.524 574.47 103.323 575.212 103.494C576.011 103.666 576.81 103.152 576.981 102.41C577.153 101.611 576.639 100.812 575.897 100.64C575.098 100.412 574.299 100.926 574.127 101.725ZM581.091 102.695C580.92 103.494 581.434 104.294 582.176 104.465C582.975 104.636 583.774 104.122 583.945 103.38C584.116 102.581 583.603 101.782 582.861 101.611C582.062 101.382 581.262 101.896 581.091 102.695C581.034 102.695 581.034 102.695 581.091 102.695Z" fill="#B7C2CE"/>
<path fill-rule="evenodd" clip-rule="evenodd" d="M546.157 101.669L565.451 116.681L571.159 109.317L551.865 94.248L546.157 101.669Z" fill="#D0D9EA"/>
<path fill-rule="evenodd" clip-rule="evenodd" d="M561.171 116.395L584.174 138.485C584.631 138.885 585.202 139.113 585.83 138.942C587.371 138.599 590.51 137.401 593.992 132.891C597.474 128.382 597.874 125.014 597.817 123.473C597.817 122.845 597.474 122.331 596.961 121.989L569.961 105.15C569.448 104.807 568.706 104.922 568.363 105.435L561.171 114.797C560.657 115.253 560.714 115.995 561.171 116.395Z" fill="#EBEFF7"/>
<path fill-rule="evenodd" clip-rule="evenodd" d="M572.357 112.113C571.844 112.741 571.958 113.655 572.643 114.168C573.271 114.682 574.184 114.568 574.698 113.94C575.211 113.312 575.097 112.399 574.469 111.885C573.727 111.371 572.814 111.485 572.357 112.113ZM577.894 116.68C577.38 117.308 577.495 118.221 578.18 118.735C578.808 119.248 579.721 119.134 580.235 118.449C580.748 117.764 580.634 116.908 579.949 116.394C579.264 115.938 578.351 116.052 577.894 116.68Z" fill="#B7C2CE"/>
<path fill-rule="evenodd" clip-rule="evenodd" d="M540.278 63.1959C541.134 70.2739 546.671 75.4683 552.664 74.7262C558.658 73.9842 562.767 67.6482 561.854 60.5131C560.941 53.378 555.461 48.2978 549.525 48.9827C543.588 49.6677 539.421 56.1179 540.278 63.1959Z" fill="#DAE2ED"/>
<path fill-rule="evenodd" clip-rule="evenodd" d="M544.788 62.7964C545.416 67.8195 549.354 71.5298 553.578 71.0161C557.802 70.5023 560.771 65.9929 560.143 60.9127C559.515 55.8325 555.576 52.1793 551.352 52.7502C547.128 53.321 544.16 57.7733 544.788 62.7964Z" fill="#B7C2CE"/>
<path fill-rule="evenodd" clip-rule="evenodd" d="M547.242 62.567C547.698 66.1631 550.495 68.7888 553.521 68.4463C556.546 68.1038 558.658 64.8502 558.201 61.197C557.745 57.5439 554.948 54.9752 551.922 55.3177C548.897 55.6602 546.785 58.9138 547.242 62.567Z" fill="#FF903E"/>
<path fill-rule="evenodd" clip-rule="evenodd" d="M553.921 65.1935L554.606 64.9081C554.777 64.851 554.891 64.6227 554.834 64.3943L552.437 58.3438C552.379 58.1725 552.151 58.0584 551.923 58.1154L551.238 58.4008C551.067 58.4579 550.952 58.6862 551.009 58.9146L553.407 64.9081C553.521 65.1364 553.749 65.2506 553.921 65.1935Z" fill="#FF7F14"/>
<path fill-rule="evenodd" clip-rule="evenodd" d="M545.815 107.605H553.75V81.0625H542.733V104.523C542.733 106.235 544.103 107.605 545.815 107.605Z" fill="black"/>
<path fill-rule="evenodd" clip-rule="evenodd" d="M579.892 51.6082L641.14 29.2324L630.865 49.3249C628.867 53.2635 625.442 56.2888 621.333 57.7729L572.585 75.5821L570.873 70.9586L579.892 51.6082Z" fill="#DAE2ED"/>
<path fill-rule="evenodd" clip-rule="evenodd" d="M565.851 49.5533L647.192 19.8141C647.534 19.6999 647.877 19.8712 647.991 20.1566C648.048 20.3278 648.048 20.4991 647.991 20.6132L644.851 26.9492C644.509 27.6912 643.881 28.205 643.139 28.4904L641.141 29.2324L579.893 51.6082L570.874 71.0157L572.587 75.6392L573.843 79.1212L553.351 86.5988L550.382 78.4933L562.369 52.7498C563.054 51.2657 564.31 50.1241 565.851 49.5533Z" fill="#ECEFF6"/>
<path fill-rule="evenodd" clip-rule="evenodd" d="M570.931 71.0157L579.949 51.6082L641.197 29.2324L639.142 33.2852L582.119 54.1197L573.785 72.1002L574.812 74.8401L572.643 75.6392L570.931 71.0157Z" fill="#C5CEDD"/>
<path fill-rule="evenodd" clip-rule="evenodd" d="M641.597 26.7785C642.225 26.5502 642.567 25.8652 642.339 25.1802C642.111 24.5523 641.426 24.2098 640.741 24.4382C640.113 24.6665 639.77 25.3515 639.999 26.0364C640.227 26.7214 640.912 27.0068 641.597 26.7785ZM636.688 28.6051C637.316 28.3767 637.659 27.6918 637.43 27.0068C637.202 26.3789 636.517 26.0364 635.832 26.2647C635.147 26.4931 634.862 27.178 635.09 27.863C635.318 28.4909 636.003 28.8334 636.688 28.6051ZM566.764 54.1202C567.335 53.7778 567.563 53.0357 567.221 52.4649C566.935 52.0083 566.421 51.7799 565.908 51.837C565.28 52.0653 564.937 52.8074 565.166 53.4353C565.451 54.0632 566.136 54.3486 566.764 54.1202Z" fill="#DAE2ED"/>
<path fill-rule="evenodd" clip-rule="evenodd" d="M547.3 86.7703H560.029C561.113 86.7703 561.969 85.857 561.969 84.8295V77.9798C561.969 76.8953 561.113 76.0391 560.029 76.0391H547.3C546.215 76.0391 545.359 76.9524 545.359 77.9798V84.8295C545.359 85.9141 546.215 86.7703 547.3 86.7703Z" fill="#FF5C5C"/>
<path fill-rule="evenodd" clip-rule="evenodd" d="M542.676 90.2517H552.665C555.405 90.2517 557.574 88.0256 557.574 85.3428V77.5227C557.574 74.7828 555.348 72.6137 552.665 72.5566H542.676C541.648 72.5566 540.849 73.4129 540.849 74.3832V88.3681C540.792 89.3955 541.591 90.1947 542.676 90.2517C542.619 90.2517 542.619 90.2517 542.676 90.2517Z" fill="#D0D9EA"/>
<path fill-rule="evenodd" clip-rule="evenodd" d="M514.25 29.1748L514.821 32.9421C511.739 35.4537 508.999 38.3648 506.773 41.6184L503.348 33.7984C506.088 31.8005 509.855 30.6589 514.25 29.1748Z" fill="#FF7F14"/>
<path fill-rule="evenodd" clip-rule="evenodd" d="M506.772 41.6189L503.347 33.7988L500.436 41.6189H506.772Z" fill="#FF903E"/>
<path opacity="0.8" d="M477.416 96.9277L476.598 97.8471L473.493 99.2773L472.104 100.34L470.489 100.748L469.938 101.218L469.509 101.974L469.938 102.138L470.142 102.362L470.224 102.71L470.306 102.792L470.694 103.568L470.775 103.752L470.898 103.997L470.816 104.508L470.592 105.243L470.449 105.57L468.773 107.205L468.487 107.348L467.404 107.409L466.934 107.818L466.607 108.778L467.139 109.207L467.404 109.33L468.446 109.391L468.671 109.718L468.773 110.535L468.589 110.658L468.262 110.985L468.058 111.128L468.426 111.414L470.387 111.475L471.531 112.006L472.328 111.945L473.758 110.617L474.657 110.515L475.046 110.719L475.393 111.128L475.638 111.781L475.74 112.762L475.842 113.273L476.088 113.436L476.333 113.498L476.455 113.661L476.496 114.151L476.66 115.112V115.582L476.639 115.765L476.415 115.99L476.333 116.174V116.378V116.848V117.032L475.904 118.074L475.842 118.36L475.638 118.544L474.514 119.974L473.227 120.935L472.839 121.445L472.88 122.181L472.533 122.794L471.654 123.775L472.165 123.734L472.635 123.366L473.452 122.304L473.186 123.182L472.676 124.142L472.471 124.898L473.084 125.205L473.718 125.021L475.087 124.224L478.846 123.203L480.194 122.447L480.909 122.263L481.461 122.876L480.705 124.653L480.276 125.082L480.317 125.45L480.44 125.797L480.521 125.94L480.603 126.042L480.991 126.349L482.094 127.105L482.421 127.514L481.482 127.8L480.971 128.208L480.542 129.291L479.643 130.374L479.295 131.273L477.967 132.867L477.702 133.398L477.497 134.031L477.395 134.726L477.62 134.399L477.988 133.48L478.172 133.296L478.376 133.173L478.968 132.581L479.152 132.295L479.479 131.62L481.645 128.351L482.033 128.086L482.503 128.208L483.892 129.25L483.627 128.842L483.136 128.29L482.932 127.82L486.773 130.129L487.264 130.211L489.184 129.72L489.511 129.761L489.715 129.965L489.838 130.476V130.905L489.756 131.191L489.532 131.273V131.539H490.083L490.328 131.6L490.492 131.845V132.131L490.471 132.519L490.39 133.01L490.512 133.316L490.655 133.541L490.962 133.827L491.779 132.621L492.228 132.295L492.76 132.417L492.841 132.601V132.867V133.112V133.255L492.964 133.296L493.209 133.214L493.311 133.255L493.924 133.949L494.026 134.154V135.073L493.802 135.666L493.475 136.074L493.291 136.463L493.332 136.708L493.536 137.505V137.872L493.434 138.036L492.841 138.465L493.025 138.73V139.057L492.964 139.446V139.915L492.371 140.344L490.778 140.099L490.083 140.488L490.512 140.855L491.881 141.346L491.942 142.04L491.534 142.51L490.982 142.755H490.104L489.736 142.878L489 143.348L487.55 143.614L487.1 143.9L487.366 144.288L490.144 143.246L490.982 143.327L492.678 142.878L493.209 143.041L494.067 143.614L494.517 144.104L494.68 144.533L494.762 144.758L494.353 145.085L493.638 146.208L493.25 146.453L491.043 147.026H488.714L487.693 147.291H486.61L487.141 147.72L489.164 147.291L491.861 147.598L493.066 147.291H493.72L493.904 147.434L493.822 147.741L493.557 148.19L493.516 148.456V148.64V148.803L493.434 148.987L492.78 149.293L492.188 149.355L491.636 149.58V149.886L492.984 149.6L493.291 149.886V150.131L493.127 150.172L492.964 150.295L492.821 150.478L492.698 150.724H493.25L493.413 150.805L493.557 150.989L493.659 151.173L493.74 151.255L493.924 151.132L494.21 150.56L494.353 150.438L494.394 150.274L494.905 149.273L495.62 148.435L495.661 149.048V149.927L495.6 150.765L495.497 151.255V151.561L495.824 151.807L495.927 152.195L495.804 152.706L495.497 153.278L495.15 153.604L494.415 153.829L494.067 154.136L494.374 154.708L494.537 155.096L494.496 155.28L494.231 155.423L493.679 156.015L493.413 156.158L492.147 155.852L491.064 156.056L490.717 155.852L490.553 155.464L490.41 154.892L490.226 154.381L489.961 154.156L489.675 154.054L489.102 153.645L488.183 153.339L487.223 152.379L486.692 152.154L486.794 152.603L486.978 152.93L487.182 153.155L487.386 153.278L486.753 153.993L483.198 154.136V154.442L488.714 154.973L488.898 155.137L489.143 155.443L489.348 155.852L489.45 156.261L489.593 156.485L490.41 157.241L492.208 158.079L492.555 158.671L491.82 159.244L490.962 159.121L489.429 158.365L487.693 158.671L486.63 158.202L486.324 158.365L487.366 159.101L489.858 159.693L490.982 160.633L491.125 160.878L491.289 161.246L491.35 161.593L491.166 161.757L490.88 161.879L490.451 162.451L490.226 162.574L488.408 161.859L487.897 162.329L489.797 163.105L490.124 163.412V163.861L489.634 164.025L487.631 163.943L487.08 163.718L486.978 163.922L486.835 164.065L486.487 164.29V164.597L487.018 165.271L487.304 165.72L487.57 166.272L487.284 166.374L486.487 167.11L482.605 167.947L481.972 167.743L481.625 167.518L481.4 167.253L480.909 165.659L480.46 165.21L479.99 164.27L479.724 164.065L478.356 163.759L478.519 163.984L478.703 164.065H479.111L479.357 164.249V164.678L479.214 165.148L479.173 165.434L479.438 165.782L480.317 166.272L480.603 166.313V167.11L480.807 167.763L481.134 168.315L481.359 168.54L482.238 168.846L482.564 169.194L482.381 169.643L482.503 169.929L479.581 168.949L478.682 169.664L478.968 170.011L479.663 170.379L480.01 170.767L480.174 171.216V171.605L479.97 171.911L479.643 172.136H477.314L477.109 172.401L477.334 172.953L477.681 173.403H477.865L478.049 173.811L478.417 174.077H478.764L478.825 173.791L479.541 173.586L480.623 171.952L481.175 171.564L481.277 171.768L481.012 172.218L479.418 174.179L479.193 174.649L479.132 175.017L479.071 175.854L478.989 176.181L478.417 177.182L478.335 177.55V177.795L478.376 177.938L478.417 178.224V178.367L478.315 178.49L478.213 178.551L478.131 178.674L478.09 178.919L478.049 179.103L477.865 179.736L477.804 179.879L475.985 180.084L474.719 180.533L474.269 180.737L475.025 180.145L476.578 179.695L477.375 179.369L476.925 179.062L474.984 178.756L474.841 178.817V178.98V179.512L474.78 179.634L474.657 179.716L474.29 180.104L474.085 180.186L474.004 180.288L473.656 180.983L473.452 181.187L472.492 181.8L472.104 182.209L471.756 182.699L471.531 183.189L471.634 182.719L471.695 182.515L471.777 182.352V182.086H471.654L471.531 182.495L471.266 182.842L470.98 183.087L470.775 183.189L470.714 183.312L470.755 183.598L470.898 183.884L471.082 184.006L471.45 183.966L471.613 183.884L471.777 183.72L471.858 184.293L472.022 184.824H471.634L471.123 185.498L470.775 185.682L469.958 185.6L469.611 185.437L469.264 185.151L468.712 184.476L468.385 184.17L468.017 184.047L467.854 184.17L467.527 184.701L467.363 184.865L467.159 184.824L466.955 184.66L466.75 184.599L466.526 184.865L466.75 185.151L466.567 185.355L466.362 185.416H465.933L466.281 184.293V184.047L465.708 184.211H465.443L465.32 183.904L465.239 183.291L465.055 182.883L464.83 182.74L464.626 182.944V183.23L464.769 183.434L464.871 183.639L464.932 183.925L464.993 184.333L464.748 184.17L464.258 183.986L464.033 183.782V183.537L464.197 182.964L463.931 182.127L463.502 181.35L463.134 181.003L462.766 180.594L462.072 180.308L461.622 180.186L461.929 180.431L462.521 180.697L462.889 180.88L463.073 181.33L463.4 182.311L463.563 182.658L463.42 182.883L463.277 182.944L463.134 182.862L462.991 182.658V182.964L463.338 183.291L463.4 183.904L463.257 184.599L462.991 185.171L462.562 185.396L461.581 185.13L461.173 185.416L461.418 185.641L461.683 185.723H462.256L461.806 186.09L460.682 186.499L459.681 186.601L458.619 186.989L458.169 187.357L458.088 187.153L457.985 186.969L457.945 186.765L457.454 187.459L455.901 188.706L457.352 188.215L457.699 188.461L457.107 188.951L452.591 190.34L451.958 190.912H452.775V191.157L451.672 192.118L451.304 192.24L451.141 192.342L450.548 193.058L450.14 193.364L449.976 193.568L449.833 193.916L449.649 193.528L449.465 193.466L449.282 193.63L449.098 193.916V194.181H449.343V194.426L448.301 195.162L447.913 195.264L448.015 194.692L447.075 195.407L446.626 195.959L446.36 196.613H446.646L446.871 196.408L447.055 196.184L446.605 197.103L446.36 197.45L445.114 198.533L444.276 199.861L443.724 200.147L443.949 200.025L444.174 199.841L444.358 199.534L444.46 199.064L441.824 201.251L439.475 201.925L439.127 201.823L438.821 201.496L438.964 201.741L439.107 201.904L439.27 202.007H439.434L439.107 202.231L438.821 202.313L438.882 202.722V203.273L438.78 203.743L438.576 203.927L438.494 203.805L438.453 203.539V203.008L438.412 202.885L438.106 202.599L437.452 201.7L437.268 201.516L436.982 201.414L436.839 201.537L436.798 201.884V202.476L436.859 203.212V203.723L436.737 203.968L436.512 203.825L436.471 203.478L436.573 202.476L436.512 202.129L436.389 201.659L436.267 201.414L436.205 201.68V202.742L436.185 203.232L436.103 203.682L436.328 204.05L436.246 204.315L435.96 204.479L435.613 204.54L435.817 203.641V203.253L435.736 202.926L435.817 202.579L435.858 202.415L435.919 202.354L436.083 202.252V202.027L436.042 201.823H436.001L436.103 200.76V200.188L436.062 199.943L436.001 199.78L435.817 199.473L435.613 199.289L435.511 199.514L435.47 200.535V200.965L435.654 201.312L435.368 201.577H435.041L434.755 201.618L434.571 202.109L434.775 202.517L434.877 202.967L435 203.396L435.286 203.702L434.959 204.152L434.305 204.295L433.059 204.254L432.793 204.172L432.16 203.702L431.915 203.866L431.67 204.131H431.486L431.425 203.437L429.259 204.785L426.868 205.603L425.234 205.991L425.418 205.705L425.52 205.357V204.928L425.418 204.54L425.295 205.112L425.091 205.5L424.846 205.623L424.58 205.357L424.621 205.582V205.684V205.766L424.703 205.909V206.195L422.435 207.809L422.598 206.951L423.048 206.461L423.599 206.236L424.09 206.195V205.909L422.925 205.296L422.516 204.826L422.435 205.357V205.582L422.516 205.909L422.067 206.215L421.638 206.134L421.209 205.929H420.739L421.086 206.195V206.44H420.637L420.432 206.501L420.249 206.726L419.962 206.563L419.636 206.808L419.37 207.237L419.268 207.666L419.166 208.361L418.92 208.851L418.614 208.974L418.287 208.606L418.062 208.933L417.981 209.28L418.062 209.566L418.348 209.689L418.573 209.607L418.92 209.239L419.186 209.158L420.555 209.321L421.025 209.158L420.269 210.629L419.819 211.037L419.35 210.772L419.411 210.69H419.431L419.472 210.526H418.757V210.894L418.287 210.853L418.021 211.078H418.246L418.41 211.16L418.471 211.425L418.41 211.875L419.717 211.793L419.962 211.568L419.533 212.897L418.9 214.102L418.103 214.981L416.305 215.798L415.161 216.656L414.078 216.901L413.506 216.104L413.731 215.818L414.221 215.634L414.405 215.43L414.63 215.001L414.855 214.817L415.406 214.776V214.511H414.916L413.976 214.797H413.506L412.321 214.041L411.974 213.959L412.076 214.245L411.953 214.306L411.892 214.368L411.831 214.511L411.994 214.756L412.362 215.43L412.485 215.573L412.648 215.818L412.73 216.37L412.771 216.922L412.832 217.167L413.567 217.208H413.976L414.262 217.269L410.523 217.841L408.357 218.883L404.68 219.884L403.781 219.843L400.43 218.801L399.02 219.189L398.509 219.046H398.693L398.775 218.965L398.857 218.801L398.223 218.658L397.917 218.474L397.651 218.229L397.304 218.74L394.954 218.229L394.73 218.127L393.81 217.432L392.38 217.146L390.337 215.757L387.538 215.001L386.986 214.511L387.231 214.47L387.374 214.327V214.143L387.129 213.979H386.925L386.639 214.204L386.414 214.265L384.739 213.979L384.78 214.184L386.537 214.551L381.919 214.225L381.613 213.734L381.531 213.775L381.49 213.836L381.449 213.918L381.388 214L381.306 213.836L381.265 213.796L381.143 213.755L381.265 214.286H379.917L379.263 214.143L376.607 211.895L376.341 211.568L376.587 211.793L376.873 211.895L377.159 211.834L377.424 211.589L377.2 211.548L376.811 211.364L376.587 211.323L376.668 210.71L376.709 210.547L376.382 211.017L376.096 211.201L375.79 211.119L375.402 210.792V210.547L375.994 210.792L375.769 210.2L375.442 209.852L375.095 209.566L374.789 209.178L374.503 208.524L374.36 208.054L374.155 207.809L373.726 207.85V208.095L374.339 208.974L374.686 209.627L374.932 210.281L373.767 209.219L373.236 208.524L372.909 207.605L372.97 207.543L373.134 207.319L373.011 207.135L372.766 206.522L373.256 205.95L373.808 205.623L374.972 205.439L375.524 205.705L376.484 206.747L377.056 206.828L376.77 206.44L376.341 205.705L376.096 205.459L374.768 204.663L375.299 203.682L375.381 203.294L375.32 202.742L375.115 202.599L374.952 202.742L375.013 203.049V203.294L374.809 203.682L374.053 204.663L373.563 205.235L373.236 205.582L372.807 205.725L372.664 205.889V206.256V206.706L372.623 207.094L372.48 207.482L372.398 207.564L371.622 207.114L370.845 206.44L370.253 206.175L369.027 205.194H370.171L370.375 205.296L370.804 205.705H371.07L371.111 205.5L371.336 205.419L371.908 205.459V205.194H371.417V204.928H371.479H371.601H371.663V204.663L370.416 204.99L369.987 204.928V204.683L370.58 203.907L370.764 202.701L370.518 201.68L369.865 201.434V201.68L370.355 201.884L370.294 202.436L369.967 203.069L369.313 203.948L368.904 204.274L368.434 204.377L367.964 204.111L368.148 204.765L368.21 204.928L367.495 204.172L365.921 203.11L363.694 202.272L362.938 201.721L362.509 201.516L362.08 201.189L361.733 200.576L361.835 200.27V199.882L361.631 198.962L363 199.044L363.756 198.86L364.266 198.411H362.959L362.121 197.941L361.815 197.879L360.916 198.125L360.732 198.288L360.568 198.533L360.017 199.126L359.812 199.269V199.514L360.711 199.902L361.161 200.27L361.386 200.862L361.018 200.658L360.221 200.535L359.404 200.638L358.913 200.842L358.627 201.251L358.852 201.945H358.77L358.709 202.027L358.668 202.129L358.607 202.211L353.499 202.906L352.886 202.476L352.294 201.843L351.742 201.455L351.17 201.373L348.269 202.436L347.553 202.476H347.308L346.409 202.742L341.69 201.659L341.322 201.925L340.995 202.415L340.668 202.742L340.3 202.476L340.546 202.211H340.137L339.483 202.64L338.931 202.824L338.605 203.171L338.4 203.314L338.216 203.355L336.521 203.151L336.132 203.314L336.051 203.416L335.969 203.6L335.867 203.764L335.724 203.845L335.519 203.723L335.254 203.192L335.07 203.069L335.172 202.66L335.315 202.415L335.417 202.15V201.7L335.376 201.271L335.233 201.087L335.049 200.924L334.845 200.597L335.111 200.188L335.458 198.738L335.622 198.411H336.398L336.521 198.268L336.439 197.859H336.255L335.846 198.145L335.519 198.063L335.152 197.777L334.845 197.266L334.723 196.511L334.988 195.755L335.049 195.428V194.978V194.14V193.773V193.446L335.152 193.119L335.335 192.833L335.56 192.69L335.805 192.792L336.337 193.405L336.95 193.834L337.42 194.549L337.849 195.509L338.094 196.551H337.849L338.135 196.98L338.564 197.103L340.259 197.185L340.689 197.083L340.954 196.817L340.75 196.531L340.852 196.204L341.097 195.918L341.301 195.734L341.567 195.612L342.405 195.469L343.038 194.978L343.242 194.917L343.467 194.999L343.917 195.387L344.141 195.469L344.611 195.305L345.469 194.549L346.92 194.263L347.39 193.936L347.799 193.262L347.942 193.487L348.064 193.528L348.166 193.446L348.269 193.262V193.017L347.962 192.69L347.533 192.383L347.124 192.261L346.838 192.445L347.022 191.791L347.451 191.484L347.942 191.444L348.269 191.627L348.126 191.668L347.799 191.934L348.105 192.097L348.452 192.138L348.8 192.077L349.086 191.934V191.627H348.739L348.984 191.403L349.086 191.341L348.003 190.34L347.41 190.034L346.818 189.993L347.349 189.584L349.964 190.054L350.087 190.218L350.169 190.402L350.271 190.545L350.823 190.851H351.109L351.374 190.545L351.17 190.585H350.986L350.802 190.463L350.639 190.279L350.843 189.972L350.966 189.85L351.109 189.748L350.741 189.482L351.19 189.319L351.803 189.523H352.028H352.375L352.743 188.726L352.13 189.073L351.803 189.114L351.66 188.849L351.783 188.379L352.069 188.134L352.62 187.848L352.273 187.623L351.742 187.562L351.211 187.643L350.823 187.848L350.925 187.173L350.72 186.867L350.373 186.785H349.883L349.719 186.867L349.556 186.989L349.433 187.173L348.779 187.03L349.29 186.581L349.454 186.254L349.372 185.661L350.434 184.905L350.966 184.313L351.354 183.618L351.66 182.801L351.824 182.556L352.13 182.372L352.518 182.29L353.295 182.413H353.622L353.274 182.27L353.131 182.127H352.988L353.703 181.534L354.092 181.35L354.5 181.289L356.911 181.922L357.32 181.82L357.606 181.33L357.79 181.003L357.013 181.453L356.605 181.248V181.003H356.768L356.911 180.942L357.197 180.717V180.533V180.492H357.156L357.115 180.451H357.218L354.051 180.247L352.559 180.594L351.231 181.8L351.17 181.963L351.109 182.188L351.027 182.433L350.884 182.658L350.741 182.781L350.393 182.903H350.23L349.964 183.026L349.168 183.598L348.922 183.904L348.269 184.497L347.451 184.374L345.878 183.782V183.475L346.614 183.046L347.308 182.392L347.88 181.575L348.248 181.33L348.616 181.555L348.943 181.207L349.719 180.962L350.067 180.737L348.514 180.574L348.023 180.737L347.697 180.962L347.431 181.044L347.165 180.819L346.838 180.124L347.063 179.757L347.104 179.266V178.694L347.247 178.061L347.37 178.02L347.513 178.143H347.635L347.717 177.448L347.819 177.121L348.044 176.569V176.14L348.514 175.732L350.475 174.71L351.517 174.608L351.435 174.24L351.272 174.036L351.047 173.975L350.802 174.016V173.77L351.129 173.464L351.803 172.544L352.396 172.279L352.682 171.931L352.845 171.788L353.07 171.727L353.806 171.788L353.744 172.524L354.092 172.647H354.541L354.766 173.076L354.991 173.382L356.441 173.484L356.155 173.26L355.542 173.321L355.236 173.239L354.991 172.953L354.602 172.32L354.275 172.115L354.991 171.809V171.564H353.193V171.257L354.194 170.644L354.521 170.297L354.807 170.215L356.196 170.44V170.134L354.827 169.847H354.398L353.274 170.91L352.825 170.971V170.685L353.274 170.256L353.438 169.95L353.54 169.561L352.845 170.317L352.641 170.44L352.477 170.644L352.355 171.584L352.151 171.788L351.987 171.911L351.252 172.626L350.353 172.973L350.087 173.198L350.189 173.75L349.678 173.566L349.188 173.709L348.166 174.588L347.758 175.078L347.492 175.241L347.206 175.119L347.022 174.731V174.322L347.329 173.423L346.961 173.546L346.798 173.995L346.757 174.608V175.241L346.695 175.446L346.266 176.222L346.185 176.59V177.121L346.021 177.366H345.388L345.286 177.509L345.224 177.652L345.081 177.775L344.897 177.857L344.754 177.897L344.468 177.754L344.162 177.387L343.896 176.855L343.733 176.222L343.59 176.467L343.447 176.631L343.304 176.733L343.14 176.794L343.385 176.283L343.59 175.65L343.651 175.037L343.467 174.588L343.549 174.526L343.712 174.302L343.569 174.138L343.426 174.036L343.263 173.995H343.099L343.181 173.872L343.365 173.443V173.198L342.568 173.811L342.078 174.056L341.69 174.016L341.383 173.525L341.261 172.851L341.322 172.218L341.567 171.809V171.564L341.261 171.502L341.036 171.196L340.893 170.849L340.791 170.685L340.566 170.563L340.321 170.277L340.076 169.909L339.892 169.561L340.321 169.766L340.77 170.236L341.24 170.522L341.69 170.154H341.322L341.424 169.684L341.588 169.378L341.792 169.173L342.017 169.03L341.853 168.805L341.771 168.744V168.458L343.794 167.437L344.305 166.783V166.497L343.222 167.437L342.65 167.743L342.098 167.866L341.628 168.172L341.097 168.744L340.607 169.092L340.259 168.724L340.484 168.56L340.975 167.866L341.322 167.498L341.526 167.191L341.69 166.762L341.567 166.476L341.731 166.395L341.833 166.272L342.057 165.904L341.669 165.434L341.138 165.291L340.014 165.332L340.259 164.78H339.912L340.035 164.372L340.362 163.575L340.505 163.085L340.321 163.126L340.157 163.289L340.014 163.555L339.892 163.902L339.79 163.514L339.647 163.371L339.483 163.412L339.299 163.616V163.902L338.339 163.616L338.073 163.759L337.563 164.351L337.276 164.474V164.78L337.42 164.821L337.767 165.067L336.153 165.373L335.744 165.067L336.153 165.128L336.357 165.087L336.5 164.924L336.459 164.699L336.275 164.372L336.051 164.065L335.887 163.922H334.048L334.314 164.229L335.233 164.801V165.087H334.763L333.946 164.331L333.456 164.249H333.578L331.392 164.045H329.308L326.897 163.861L325.876 162.778L324.915 162.696L323.22 163.085V163.207L322.913 163.759L322.791 163.922L322.607 164.106L322.402 164.229L322.198 164.29L320.175 163.657L320.359 163.473L320.564 163.371L320.788 163.33L320.502 163.207L319.828 163.575L319.297 164.27L319.215 165.087L318.888 166.047L318.418 166.456L317.131 166.497L316.763 166.599L316.007 167.028L315.66 167.069L314.393 166.333L314.128 165.945L313.882 165.843L313.699 165.639L313.617 164.944L313.515 164.576L312.759 163.371L312.432 162.717L312.166 162.022L311.676 160.286L311.798 159.979L312.146 160.347L312.473 160.183L313.106 159.407L313.433 159.203L315.333 158.651L315.701 158.692L317.111 159.611L319.031 159.959L319.195 159.857L319.522 159.325L319.685 159.141L320.4 159.182L320.584 158.998L321.217 157.977L321.932 157.732L323.506 158.018V157.711L323.404 157.589L323.363 157.466L323.322 157.323L323.261 157.139L323.996 157.098L324.241 157.323L324.119 158.018L324.343 158.202L324.486 157.977L324.629 157.691H324.834L324.895 158.099V158.671L324.997 158.978L325.324 158.549L325.59 158.815L325.896 158.651L326.162 158.263L326.264 157.854L326.203 157.425L326.08 156.894L325.998 156.301L326.039 155.729L326.509 155.076L327.245 154.953L328.675 155.178L328.552 155.648L328.328 155.975L327.837 156.342L327.878 156.506L327.96 156.914L327.755 156.955L327.612 157.119L327.49 157.384L327.347 157.732L328.307 159.162L328.205 158.528V158.018L328.266 157.568L328.43 157.16L328.552 157.078L328.879 157.017L329.022 156.914L329.145 156.69L329.247 156.158L329.329 155.913L329.819 155.28L330.309 155.239L330.779 155.648L331.167 156.383L331.454 155.954L331.821 155.689L332.884 155.423L333.926 154.687L333.64 154.503L332.373 154.687V154.381L333.108 154.217L334.416 152.869L335.111 152.706L335.009 152.869L334.886 152.992L335.192 153.073L335.479 153.278V153.604L335.438 153.666L335.458 153.829L335.213 154.197L334.682 154.483L334.498 154.728L334.723 154.79H335.009L335.315 154.646L335.56 154.422L335.683 155.219L335.826 155.545L336.398 155.811L337.174 156.547L337.46 156.669V156.404L337.236 156.281L337.031 156.015L336.602 155.259L337.072 154.626L337.338 154.422H337.685L337.726 153.87L338.053 153.707L339.504 153.768L340.934 153.421L343.304 153.891L344.877 154.708L345.061 154.606L345.326 154.238L345.49 154.136H346.798L347.145 154.299L347.513 154.585L347.88 154.728L347.921 154.687L348.228 154.401L348.677 154.708L350.618 154.401L351.088 154.013V153.502L350.802 153.094L350.271 153.012L350.455 152.46L350.659 152.276L350.904 152.174L351.211 151.868L351.435 151.398L352.171 149.273L352.232 147.843L351.681 147.25L350.925 147.332L350.373 147.884V148.17H350.496V148.476L347.86 150.744L346.981 151.112L341.996 150.131L340.75 149.089L340.566 149.007H340.484L340.239 149.212L338.645 149.457L338.175 149.253L337.849 148.844L338.114 148.66L338.625 148.497L339.013 148.129L339.136 148.354L339.258 148.435H339.585V148.129L339.197 147.843L338.748 147.802L337.91 148.129L338.094 147.516L338.421 146.923L339.013 146.147L339.83 145.759L340.137 145.411L340.096 144.737L340.362 144.615L340.995 144.737L341.158 144.574L341.669 143.573L342.139 143.205L344.08 142.653L345.735 141.366L346.368 140.569L347.492 139.997L347.901 139.548L347.86 139.507H347.819L347.778 139.486V139.302L348.044 139.343L348.473 139.834L348.739 139.875L348.575 139.221L348.493 139.016L349.576 138.383L351.844 137.668L352.498 137.28L352.927 137.035L351.252 137.586H350.639L349.392 137.321L348.35 137.627H348.003L348.35 136.953L348.718 136.463L348.085 135.829L347.84 135.38L347.758 134.746L347.533 134.91L347.288 135.012L347.043 135.053L346.798 135.012L346.9 135.604L346.736 135.788L346.491 135.727L346.307 135.584L346.144 135.196L345.817 134.195L345.592 133.847L345.674 134.562L345.633 135.155L345.469 135.666L345.224 136.136L344.918 136.524L344.734 136.667L344.571 136.728L344.509 136.912L344.407 137.3L344.264 137.688L344.101 137.872L343.447 137.934L343.161 137.811L342.691 137.075L341.669 136.136L340.934 135.768L340.832 135.4L341.179 134.705L341.567 134.419L343.508 133.99L344.325 133.418L344.734 133.296L344.918 133.112L344.979 132.683V132.192L345.02 131.825L345.163 131.518L345.347 131.293L345.735 130.987L345.224 131.13L343.937 133.01L343.345 133.52L342.773 133.786L341.547 133.888V133.602L342.282 133.071L342.507 132.764V132.458H342.139L341.874 132.744L341.424 133.357L341.056 133.5L340.832 133.337L340.627 133.112L340.321 133.071V133.377L340.525 133.704L340.443 134.092L340.198 134.419L339.238 134.808L338.972 134.665L338.788 133.929V133.234L338.829 132.724V132.192L338.605 131.477L338.257 129.986L338.053 129.475L337.828 129.863V130.088V130.537V130.987L338.135 131.886V132.233L338.032 132.56L337.706 133.296L337.522 133.582H337.297L337.031 133.214L336.704 132.417L336.561 132.356L336.459 133.459L336.337 133.786L336.153 133.949H335.928L335.785 133.745L335.642 133.398L335.233 132.07L335.152 131.375L335.274 130.66L335.662 129.863L335.499 129.638L335.417 129.7L335.335 129.843H335.172L334.702 129.557H334.416L334.314 129.638L334.232 129.884V130.129L334.396 131.048L334.559 131.579L335.029 134.808L334.784 135.073L334.477 135.012L334.15 134.848L333.844 134.808V134.542L333.946 134.195L333.864 133.909L333.66 133.725L333.435 133.663L332.863 133.847L332.679 133.786V133.398L332.516 133.439L332.066 133.398V133.091L332.496 132.662L333.272 131.579L333.742 131.355L333.558 130.885L333.272 130.558L332.659 130.17L332.557 131.109L332.209 131.927L331.76 132.335L331.392 132.07L331.27 131.6L331.188 131.089L331.086 130.66L330.902 130.497L330.861 130.783L330.779 132.111L330.718 132.499L330.35 132.989L329.308 133.255L328.818 133.541L327.858 133.071L327.347 132.54L327.408 131.927V131.661L326.918 131.947L326.611 132.785V133.704L326.918 134.256V134.562L326.693 134.808L326.305 135.461L326.08 135.707L325.794 135.788L324.629 135.645L324.16 135.421L323.873 135.38L323.608 135.237L323.404 134.93L323.22 134.562H323.118L322.995 134.603L322.913 134.665L322.729 134.848L322.811 134.91L322.852 134.971L322.974 135.155L322.464 135.359L321.544 136.115L319.195 136.606L318.663 136.299V136.81L318.582 136.973L318.459 137.014L318.316 137.157L317.662 138.301L314.455 139.2L313.637 139.098L312.922 138.608V138.301L313.024 137.974L312.943 137.668L312.759 137.402L312.554 137.178H312.881L313.024 137.28L313.167 137.464L313.208 136.687L312.881 136.299L312.473 136.36L312.289 136.912L311.88 136.279L309.204 135.155L304.218 135.686L303.585 135.564L303.217 134.869L303.994 134.399L304.382 134.011L304.545 133.582L304.77 133.296L305.792 132.642L306.098 132.274L306.159 131.62V130.864L306.262 130.231L306.793 129.884L307.099 129.475L307.344 129.373L307.794 129.455L309.49 130.476L309.98 130.558L310.287 130.742L311.247 131.968L311.942 132.397L313.167 132.724L313.453 133.132L313.699 133.602L314.005 133.99L314.536 134.256L315.047 134.215L316.048 133.704L315.251 133.745L314.843 133.623L314.516 133.439L314.23 133.05L313.985 132.56L313.719 132.131L313.372 131.947L312.514 130.987L312.044 130.149L311.492 129.393L311.186 128.78L313.821 129.332L315.537 130.354L316.089 130.517L315.762 129.863L315.292 129.312L314.802 128.923L314.046 128.637L313.147 128.024L312.33 127.718L311.942 127.35L311.329 126.451L310.613 124.98L310.552 124.449V123.938V123.448L310.368 122.937L311.104 122.263L311.86 122.324L319.236 126.472L319.399 126.676L319.705 127.309L320.175 127.677L320.298 127.881L320.482 128.637L320.4 129.107L320.216 129.536L320.073 130.17L320.38 130.354L320.788 130.027L321.503 129.005L321.565 129.209L321.851 129.577L322.035 129.189L322.974 129.434L323.404 129.312V129.025L323.24 128.944L323.158 128.842L323.036 128.453H323.342L324.119 127.881L324.405 127.84L324.691 127.881L324.956 127.84L325.202 127.575L323.138 127.759L322.198 127.452L321.503 127.003L321.258 126.717L320.952 126.206L320.788 125.736L320.972 125.532L322.055 125.021L322.3 125.123L322.566 125.368L323.996 125.164L324.446 124.755L324.813 124.653L325.569 124.939L325.937 124.98L326.305 124.653L326.08 124.428L325.978 124.347H325.835V124.081L326.652 123.509L326.897 123.182L325.937 123.325L325.385 123.57L324.629 124.265L319.93 124.142L319.011 123.754L318.398 123.182L317.478 123.529L317.274 123.346L317.029 122.896L316.007 121.752L315.456 120.608L315.088 119.218L315.149 117.931L315.885 117.073H316.232L317.233 117.666L318.541 117.952L318.868 118.156L319.419 118.851L319.746 119.116L320.073 119.157L321.177 118.83L323.342 119.709H324.057L325.304 120.628L325.978 120.914L326.591 120.608L325.14 120.138L324.67 119.566L323.22 119.423L322.77 119.157L321.953 118.422L320.135 117.993L319.726 117.686L318.786 116.378L318.316 116.113L318.091 115.704L317.724 115.541L316.927 114.785L316.212 113.784L316.048 113.436V112.108L316.15 111.414L316.416 110.903L317.131 110.637L318.03 110.842L321.197 112.782L322.116 113.028L322.75 112.66L322.831 113.334L323.036 113.906L323.342 114.294L323.69 114.437V114.172L323.383 113.722L322.852 112.394L322.484 112.108L322.075 112.006L321.279 111.597L320.87 111.495L320.666 111.352L320.135 110.617L319.113 109.697L318.52 108.86L319.093 108.39L320.625 108.247L321.769 108.431L323.322 109.718L322.913 109.33L322.219 108.185L321.83 107.94L320.155 107.981L319.746 107.675V107.348L319.91 107.021L320.155 106.633L320.441 106.306L320.604 106.224L320.727 106.163L321.442 106.122L321.708 105.877V105.305L322.137 105.1L324.875 105.897L326.652 107.225L327.183 107.348L327.531 107.634L327.98 108.288L328.287 109.064L328.225 109.697L328.348 110.637L329.206 109.268L329.553 109.105L329.737 109.207L329.901 109.473L330.146 110.004L330.473 110.474L330.514 110.698V111.332L330.616 112.027V112.435L330.534 112.742L330.248 113.293L330.187 113.375L329.41 114.866L329.247 115.296H329.349L329.717 114.683L330.677 113.498L331.024 112.926L331.127 112.578L331.208 112.19L331.311 111.884L331.494 111.761L331.699 111.904L331.821 112.231L332.066 113.252L331.985 113.436L331.944 113.559L332.189 113.314L332.475 112.905L332.761 112.66L333.027 112.946L332.72 113.947L332.312 114.948L331.801 115.765L331.229 116.174L331.923 116.133L332.25 115.97L332.536 115.602L332.863 114.499L333.108 113.845L333.292 113.702L333.538 114.866L333.435 116.052L333.272 117.053L333.374 117.666L333.967 115.602L333.926 114.642L334.007 113.538L334.15 112.517L334.334 111.802L334.477 111.475L334.58 111.414L335.765 111.516L335.887 111.659L335.928 112.231L336.03 112.578L336.173 112.803L336.847 113.518L337.481 114.723L337.583 114.887V115.071L337.522 115.99L337.44 116.46L337.338 116.869L337.195 117.073L337.236 117.237L337.317 117.339L336.418 119.852L336.234 120.628L336.357 120.996L336.582 120.935L336.99 119.28L338.155 116.154L338.278 115.316V114.989L338.645 114.928L338.891 115.336L339.095 115.949L339.36 116.501L339.483 116.542L339.585 116.44H339.687L339.83 116.807V117.155L339.728 117.482V117.768L339.953 117.972L339.994 117.747L340.076 117.318L340.198 116.991L340.321 117.094V117.38L340.198 118.83L340.055 119.3L339.647 120.117L339.483 120.587V120.853L340.157 120.465L340.832 118.074L341.383 117.625V117.298L341.015 116.91L340.811 116.092L340.689 115.153L340.546 114.397L340.3 113.784L339.973 113.212L339.606 112.782L339.238 112.619L339.422 112.067L339.504 111.536L339.606 111.046L339.851 110.617L340.178 110.453H340.525L340.832 110.269L341.036 109.677H340.668L339.81 110.126L339.483 110.453L339.156 110.576L337.685 109.84L336.704 108.819L332.557 107L331.331 105.693L330.595 103.772L331.413 103.241L334.007 102.526H334.559L336.418 103.139H336.909L337.093 103.221L337.195 103.404L337.256 103.609L337.338 103.772L337.808 104.263L338.053 104.324L338.298 104.058L338.175 103.915L338.094 103.711L337.93 103.139H338.788L339.238 103.016L340.014 102.403L340.893 102.322L341.301 101.995L338.931 102.383L338.216 101.995L337.869 101.627L337.951 101.566L338.237 101.525L338.523 101.218L338.707 100.891L338.972 100.626L339.258 100.483H339.544V100.176L339.156 99.9516L338.931 100.033L338.237 100.769L337.358 101.259L336.316 101.361L335.499 101.198L335.356 101.096V100.626L335.479 100.319L335.846 99.8903L335.908 99.5838L336.01 98.7052L336.071 98.4396L336.316 98.174L337.154 97.8267L336.398 97.9901L335.826 98.3988L334.437 99.9107L334.11 100.095L333.395 100.217L333.19 99.972L333.313 99.3999L333.578 98.8074L333.824 98.4805V98.1536L333.231 98.3988L332.925 98.6644L332.618 99.0526L331.923 100.319L331.78 100.401L331.351 100.912L328.593 100.176L327.878 99.7677L327.408 99.1343L327.122 98.8483L326.999 98.5622L327.224 98.1536L327.898 98.1127L328.736 98.4396L329.492 98.3375L329.88 96.989L329.39 96.9073L328.838 96.4782L328.328 95.8653L327.96 95.191L328.491 94.762L329.043 95.0276L329.594 95.5179L330.125 95.804L330.003 95.3136L329.921 95.1093L329.778 94.8846L331.699 94.5577L331.821 94.5985L331.923 94.7824L332.066 95.3136L332.169 95.4975L332.536 95.5997L332.7 95.2728L332.639 94.8437L332.353 94.6189L332.066 94.5168L331.208 93.7404H332.945L333.251 93.8834L333.864 94.4964L334.661 94.8028L335.295 95.5792L335.642 95.8244L336.091 95.7427L336.766 94.9254L337.174 94.6189L337.133 94.4555L337.072 94.0264L337.767 93.7813L338.339 94.2308L338.891 94.8846L340.096 95.4771L340.362 95.4158L340.443 94.8846L340.321 94.4555L339.871 94.1286L339.749 93.72L340.3 93.8221L340.832 94.3738L341.24 95.2319L341.404 96.2535L341.71 96.8868L343.14 97.6837L343.59 98.5009L343.345 98.93L343.569 99.1956L344.305 99.359V99.6655L343.978 99.5634L343.835 99.7472V100.115L343.815 100.585L343.896 100.81L344.06 101.116L344.101 101.443L343.835 101.75V102.076L344.06 102.383L344.305 102.117L344.591 101.893L344.877 101.77H345.143L345.306 101.954L345.449 102.24L345.613 102.362L345.756 102.056L346.021 101.504L346.307 101.423L346.471 101.729L346.368 102.362L347.615 102.24L347.921 102.362L348.064 102.097H348.228L348.371 102.219L348.493 102.383L348.595 102.546L349.229 103.568L349.065 103.874L348.044 104.753L348.269 104.916L348.493 104.794L348.718 104.569L348.984 104.426L349.249 104.487L350.067 105.182L350.291 105.509L350.434 105.631H350.598L350.945 105.407L351.129 105.366L352.232 105.958L352.171 106.122L352.089 106.53L352.396 106.735L352.58 107.246V107.777L352.334 108.022L352.396 108.288L352.539 108.717L352.58 108.941L352.6 109.636L352.682 110.474L352.804 110.76L353.05 110.985L353.295 110.944L353.601 110.76L353.908 110.678L354.132 110.985L354.173 111.577L354.01 112.108L353.806 112.599L353.662 113.048L353.887 112.987L354.173 112.782L354.398 112.537L354.5 112.313V111.597V111.271L354.132 110.412L354.357 110.167L354.97 109.84L355.746 109.779L355.869 109.922L355.971 110.249L356.053 110.576L356.114 110.719L356.441 110.882L356.237 111.209L355.869 111.516L355.706 111.577L355.583 111.986L355.665 112.292L355.992 112.864L356.441 113.232L358.341 112.701L358.852 112.844L359.261 113.089L359.567 113.6L359.771 114.519L357.32 114.744L356.85 115.132L355.011 115.684H354.745L355.072 116.276L355.563 116.215L356.543 115.684L358.178 115.377L358.689 115.684L358.484 116.052L357.728 116.603V116.889L359.608 116.338L360.078 116.726L360.323 117.584L360.384 118.319L360.18 118.871L359.649 119.198L360.487 119.77V120.097L359.628 122.14L359.322 122.692L358.811 123.162L357.034 123.856V124.183H357.422L358.076 124.081L358.362 124.183L359.281 124.776L359.547 125.041L358.117 126.778L357.606 127.166L355.236 127.064L355.072 126.86L354.786 126.308L354.704 126.186L354.378 125.94L354.071 125.389L353.867 124.796L353.826 124.428L353.397 123.815L352.866 123.509H352.294L351.783 123.836L352.13 123.897L352.947 124.449L353.233 124.714L353.274 124.837L353.642 125.532L353.724 125.593L353.765 126.104L353.703 126.451L353.56 126.737L353.336 127.084L353.622 127.371L353.765 127.575L353.826 127.8L353.908 128.372L354.112 128.699L354.316 128.862L354.398 128.985L354.704 129.271L357.626 129.189L358.137 129.455L358.362 130.006L358.178 130.497L357.279 131.947L356.932 132.335V132.621L357.769 132.151L358.832 131.171L359.751 130.966L360.139 132.785L359.771 134.317L358.893 135.809L357.871 136.892L357.034 137.239V137.525L358.791 136.83L359.465 136.217L359.853 136.074L360.241 136.156L360.487 136.381L360.977 137.218L361.651 137.852L361.835 138.26L361.712 138.955L361.958 139.119L361.999 139.425L361.958 139.854V140.385L362.08 141.305V141.959L361.999 142.796V143.205L362.693 145.391L362.938 145.82L362.877 145.902V145.963L362.836 146.086L363.184 146.453L363.531 147.148L363.715 147.965L363.551 148.701V148.967L363.837 149.212L363.94 149.11L364.123 148.967L364.266 148.394L364.021 147.373L363.98 146.699L363.94 146.392L363.776 145.963L363.47 145.33L363.327 144.962L363.592 144.492L363.694 144.369L363.633 144.002L363.756 143.736L363.94 143.511L364.062 143.246L364.164 142.612V142.04L363.796 138.873L363.735 137.545L363.96 136.953L364.491 137.259L364.859 138.015L365.39 139.793L365.901 140.814L365.983 141.1L366.105 141.407L366.698 141.611L366.943 141.836L367.066 141.53L366.616 140.569L366.207 139.282L365.901 137.913L365.758 136.667L365.697 135.686V135.012L365.758 134.379L365.84 134.154L366.044 133.745L366.126 133.541L366.31 132.315L366.371 132.049L366.902 131.007L368.863 129.434L369.946 127.983L370.273 127.8L370.6 127.697L370.845 127.514L370.907 127.105L371.131 127.064L371.295 127.187L371.622 127.677H371.703L371.928 127.636L371.989 127.677L372.051 128.045L371.989 128.167H371.908L371.867 128.29L371.744 129.986V130.844L371.867 131.477L371.663 132.192V132.928L371.846 133.377L372.235 133.214L372.051 132.438L372.092 131.763L372.316 131.436L372.725 131.763L372.868 132.029V132.192V132.438L372.929 132.928L372.848 133.255L372.807 133.541V133.766H372.868L373.195 133.97L373.297 134.072L373.42 134.419L373.481 134.705L373.563 134.951L373.747 135.216L373.951 135.38L374.155 135.482L374.38 135.523L374.605 135.482L374.666 135.441L374.993 135.216L375.136 134.767L375.218 134.113L375.422 133.214L375.218 133.03L374.952 132.458L374.748 132.335L374.155 132.397L373.869 132.315L373.624 132.029L374.196 131.804L374.748 131.763L374.972 131.682L375.463 131.293L375.708 131.212L375.933 131.6L375.871 133.48L376.117 134.092L376.055 133.418L376.219 132.907L376.321 132.417L376.117 131.784L376.321 131.232L376.873 130.415L377.138 129.904L377.2 129.598V128.903L377.302 128.596L377.465 128.433H377.792L378.16 128.331L377.772 128.249L377.526 127.718L377.486 127.125L377.731 126.839L377.955 126.676L378.119 126.247L378.221 125.634L378.262 124.939L378.119 123.856L377.772 122.855L377.343 122.058L376.934 121.609V121.282L377.404 120.853L377.22 119.607L376.77 118.217L376.117 116.705L375.994 116.297L375.871 114.826L375.769 114.111L375.585 113.559L375.34 113.109L375.034 112.742L375.299 112.313L375.545 111.659L375.626 110.964L375.402 110.412L375.749 110.106L376.178 110.024L376.913 110.126L377.097 110.045L377.404 109.677L377.567 109.534L377.792 109.452L378.405 109.534L378.732 109.35L379.365 108.553L379.651 108.369L380.509 108.676H380.693L380.898 108.717L381.265 108.349L381.347 109.268L381.572 109.8L381.919 110.126L382.328 110.392L382.205 110.719L382.389 110.882L382.512 111.209L382.675 111.863L382.9 112.496L383.635 113.906L383.738 114.294L383.799 114.621L383.881 114.887L384.085 115.071L384.024 115.193L383.921 115.52L383.86 115.643L384.207 116.215L384.657 116.685L384.984 117.216L384.943 117.993L385.249 118.299L386.189 118.462L386.884 118.932H387.088L387.272 118.953L387.497 119.3L387.599 119.423L387.824 119.382L387.926 119.443L388.028 119.75L388.069 120.056V120.363L388.151 120.649L388.539 121.507L388.641 121.813L388.723 122.344L388.825 123.489L388.948 123.979L389.315 124.49L390.214 124.755L390.562 125.287L390.664 124.388L390.786 124.061L391.318 124.122L391.379 124.204L391.624 124.571L391.747 124.694L391.951 124.755H392.441L392.278 124.817L392.155 124.96L392.094 125.144L392.155 125.491H392.298L392.625 125.287L392.809 125.041L392.973 124.449L393.177 123.243L393.299 121.997V120.935L393.197 119.933L392.952 118.891L392.462 117.42L392.421 117.155L391.399 115.99V115.684L391.461 115.275L391.604 114.928L391.828 114.785L392.155 114.703L392.503 114.478L392.83 114.111L393.095 113.62L392.911 113.375L392.748 113.028L392.605 112.599L392.441 111.679V111.536L392.523 111.414L392.687 111.066L392.993 110.678L393.994 110.147L396.323 109.738L397.141 110.372L397.57 110.453L397.529 109.738L397.672 109.575L397.815 109.473L397.958 109.432L398.121 109.473L398.08 109.636L398.019 110.065L398.366 110.208L398.959 110.842L399.327 110.923L399.102 110.719L398.939 110.474L398.816 110.167L398.734 109.759H398.857V109.493L398.755 109.432L398.591 109.248L398.489 109.187V108.921L398.653 108.614L398.836 107.593L398.959 107.143L399.122 106.878L399.735 106.326L401.288 105.754L401.84 106.02L401.717 107.409L402.044 107.266L402.269 106.878L402.657 105.958L402.575 105.529L402.514 105.366L402.841 105.1L403.311 105.182L404.189 105.611L404.046 106.265L403.76 107.205L403.699 107.838H403.903L405.17 106.51L405.681 106.633L406.11 107.143L406.478 107.715L406.805 107.981L406.968 108.288L406.764 108.962L406.273 110.045H406.498L406.743 110.004L406.989 109.84L407.172 109.595L407.377 109.432L407.601 109.616L407.826 109.902L408.031 110.045L408.296 110.372L408.46 111.128L408.603 112.006L408.786 112.68L408.46 113.968L408.317 114.723L408.357 115.05L409.604 115.377L410.401 115.888L411.688 116.072L411.872 116.215L412.056 116.542L412.342 117.237L412.75 117.563L412.893 117.993L412.975 118.483L413.138 119.055L413.179 119.239L413.241 119.382L413.384 119.443L413.71 119.402L413.874 119.443L413.997 119.607L414.18 120.138L414.221 120.485L414.18 121.67L414.242 122.161L414.569 122.916L414.671 123.243V125.021L414.732 125.287L414.875 125.409L415.386 126.165L416.203 127.023L416.101 127.595L416.183 128.351L416.387 128.944L416.673 129.046L416.898 128.515V127.738L416.734 126.962L416.55 126.451L416.407 126.288L416.04 126.002L415.937 125.838L415.856 125.368L415.897 125.103L415.999 124.898L416.06 124.653V124.245L416.019 123.958V123.652L416.06 123.203L416.142 123.039L416.448 122.753L416.53 122.61L416.632 121.813L416.571 121.139L416.04 119.116V118.973V118.381L415.999 118.217H415.897L415.774 118.279L415.672 118.238L415.325 117.482L415.202 117.339V117.298L415.161 117.196L415.12 117.114L415.039 117.073L414.957 117.175L414.814 117.584L414.752 117.666L414.507 117.502L413.976 116.807L413.792 116.501L413.956 115.888L413.894 115.316L413.67 114.887L413.159 114.56L412.811 113.681L412.587 113.273V112.987H412.709V112.66L412.239 111.454L412.015 109.452L412.117 107.429L412.587 106.183L412.811 106.081L414.385 106.183L414.63 106.326L415.059 106.694L415.304 106.776L416.06 106.694L416.326 106.776L416.285 106.939V107L416.203 107.103L416.857 107.491L418.573 107.041L419.329 107.389L419.472 107.715L419.656 108.574L419.799 108.901L419.983 109.003L420.698 108.901L421.005 109.084L421.556 109.902L421.883 110.086L422.108 110.29L422.802 111.373L423.027 111.843L423.313 113.089L423.518 113.661L424.069 114.09L424.376 114.519L424.825 115.398L425.418 117.175L425.663 117.727L425.724 116.91L425.581 116.276L425.356 115.704L425.173 115.071H425.52L425.928 114.989L426.317 114.785L426.623 114.499L425.029 114.58L424.6 114.233L427.379 114.192L427.583 114.397L427.706 114.887L427.951 115.684H428.053L428.156 115.377V115.05L428.115 114.764L427.951 114.519V114.254L428.176 114.049L428.38 113.722L428.482 113.273L428.421 112.701L428.707 112.394L428.809 112.19L428.891 111.863V111.618L428.871 110.944V110.392L429.116 109.8L429.565 109.227L430.076 108.798L430.505 108.635L430.689 108.41L430.791 107.899V107.389L430.73 107.164L430.546 107.041L430.628 106.735L430.975 106.122L431.445 105.631L432.507 105.223L432.691 104.467L433.161 104.896L434.918 105.08L435.368 105.407V105.448L435.715 106.204L436.389 108.063V108.288V108.369V108.451V108.655H436.144V108.941L436.348 109.125L436.573 109.227L436.798 109.187L437.002 108.941L436.88 108.901L436.635 108.635L437.247 108.165L439.454 107.552L440.108 107.756H439.822L439.536 107.838L439.27 108.042L439.025 108.349L439.25 108.492L439.556 109.105L439.679 109.044L440.026 108.185L440.23 107.838L440.435 107.736L440.925 108.226L441.293 108.982L441.681 109.636L442.253 109.779V109.513L441.702 109.105L441.415 108.798L441.232 108.492L441.089 107.92V107.491L441.007 107.143L440.68 106.817L441.477 106.244L442.662 105.856L443.377 105.407H443.786L442.233 106.306L441.742 106.837L443.275 106.224H443.643L444.072 106.633L444.746 107.675L445.195 107.736V107.409L444.582 106.776L444.276 106.285L444.133 105.815L444.194 105.162L444.378 104.61L444.644 104.181L444.95 103.895V103.691V103.629L445.011 103.425L445.175 103.078L445.297 102.669L445.338 102.26L445.297 101.606L445.175 101.239L445.011 100.932L444.725 100.278L444.644 100.135L444.542 100.033L444.439 99.9924L444.358 99.829L444.317 99.4612V99.073L444.276 98.8278L443.786 98.4396L443.663 98.0923L443.786 97.3159H443.724H443.54L443.602 97.1729L443.724 96.846L443.786 96.703L443.663 96.5804L443.581 96.3965L443.418 95.8448H443.786V95.5384L443.479 95.1093L443.152 93.72L442.662 93.1275L442.825 92.5145L443.193 91.9833L443.561 91.922L443.663 92.1876V92.5145L443.724 92.7801L443.929 92.8414L443.969 92.6371L444.051 92.208L444.174 91.7994L444.398 91.6155L444.889 91.4112H445.175V91.779L445.093 92.2693L445.154 92.678L445.297 92.9844L445.481 93.1275L445.44 92.8823V92.6984L445.4 92.4941L445.338 92.2489L445.624 92.1467L446.135 91.6973L446.299 91.636L446.564 91.8607L446.748 92.1876L446.952 92.4736L447.259 92.5349L447.014 92.8006L446.891 92.8618L447.198 93.1275L447.524 93.0662L447.872 92.9027L447.974 92.8618V92.5349L448.158 92.2285L448.342 91.7994L448.546 91.5338L448.587 91.636L448.71 92.1467L448.914 92.2285L449.098 91.9833L449.241 91.166L449.384 90.9617L449.772 90.7574H450.262L451.263 91.1865L451.468 91.0843L452.285 90.737L453.756 92.2285L454.594 92.5758L454.349 92.9844L454.083 93.1683L453.858 93.4339L453.756 94.1082H453.94H454.001V94.3738L453.654 94.7007L453.756 94.8233L453.94 95.1706L454.022 95.2932L453.817 95.6814L454.063 95.7427L454.696 95.5792L455.391 95.7427L455.697 95.5792L455.656 95.7835L455.615 96.2739V96.4782H457.25L457.556 96.6008L457.842 96.9073L458.006 97.2955L457.965 97.7041V97.9697L458.312 99.1547L457.577 100.524L457.168 101.075L456.637 101.504L456.882 102.117L457.086 101.872L457.291 102.015L457.536 102.281L458.108 102.526L458.169 102.832L458.088 103.302L457.945 103.895L458.21 104.14L459.497 104.201L460.11 103.915L460.315 103.977L460.396 104.181L460.58 104.487H460.662L460.764 104.406L460.928 104.222L460.968 104.692L461.071 105.08L461.254 105.345L461.745 105.57L462.276 106.163L462.848 106.612L463.195 107.205L463.543 107.572L463.951 107.205L463.808 107.143L463.747 107.062L463.686 106.898L463.992 106.673L464.217 106.204L464.36 105.529L464.401 104.692L464.34 103.813L464.258 103.2L464.38 102.771L464.891 102.465H467.037L468.262 102.036L468.365 101.709V101.3L468.487 100.953L469.713 100.135L469.917 99.6247L470.04 98.9504L470.326 98.4192L471 97.7041L471.47 97.3772L472.962 97.0912L473.37 97.2137L474.044 97.7858L474.453 97.9697L477.783 97.3976L477.416 96.9277ZM421.74 207.298L421.863 207.543V207.87L421.76 208.32L421.495 208.708L421.393 208.749L421.515 208.585L421.597 208.381V208.156L421.434 208.034H421.25L420.494 208.32L420.535 207.993L421.066 207.462L421.372 207.278L421.495 207.237L421.74 207.298ZM417.245 89.082L417.674 89.6745L417.817 89.7767L417.735 90.1853L417.388 90.4305L417.082 89.9197L417.041 89.2046L417.225 89.082H417.245ZM377.894 218.025L377.955 218.168L378.058 218.617L377.935 219.046L377.772 219.414L377.608 219.659L377.486 219.516L377.404 219.169L377.281 218.862L377.159 218.413L377.22 217.984L377.567 217.8H377.976L378.017 217.841L377.935 218.045L377.894 218.025ZM410.768 113.028L410.932 113.273L411.177 113.845V114.335L410.952 114.499L410.748 114.437L410.605 114.274L410.503 114.008L410.462 113.681L410.36 113.15L410.196 112.537L410.298 112.374L410.625 112.762L410.789 113.028H410.768Z" fill="white"/>
</g>
<defs>
<linearGradient id="paint0_linear_2040_22903" x1="3.24653e-06" y1="4.74401" x2="656.801" y2="153.156" gradientUnits="userSpaceOnUse">
<stop offset="0.171875" stop-color="#9B48EF"/>
<stop offset="1" stop-color="#E292AA"/>
</linearGradient>
<clipPath id="clip0_2040_22903">
<rect width="660" height="278" rx="8" fill="white"/>
</clipPath>
</defs>
</svg>
