<svg width="97" height="81" viewBox="0 0 97 81" fill="none" xmlns="http://www.w3.org/2000/svg">
<g clip-path="url(#clip0_5976_268432)">
<path d="M89.8026 48.8422C89.6505 48.8422 89.4985 48.7979 89.3591 48.7028C89.0043 48.4555 88.9219 47.9738 89.1627 47.6188L93.8701 40.8234C94.1172 40.4684 94.5987 40.386 94.9535 40.6269C95.3083 40.8741 95.3907 41.3558 95.1499 41.7108L90.4425 48.5063C90.2904 48.7218 90.0497 48.8422 89.8026 48.8422Z" fill="black"/>
<path d="M89.8026 48.8422C89.6316 48.8422 89.4605 48.7852 89.3148 48.6711C89.0423 48.4492 88.9473 48.0752 89.0867 47.7519C89.98 45.7234 89.809 43.378 89.2451 41.9517C89.0867 41.5524 89.2831 41.1023 89.6823 40.9438C90.0814 40.7853 90.5312 40.9818 90.6896 41.3812C91.1521 42.5539 91.4563 44.3796 91.1268 46.2939C94.0286 44.7219 96.17 44.855 96.2777 44.8677C96.7022 44.8994 97.0254 45.2734 96.9937 45.6981C96.962 46.1228 96.5882 46.4461 96.1637 46.4144C96.1447 46.4144 93.5344 46.2813 90.2588 48.6901C90.1194 48.7915 89.961 48.8422 89.7963 48.8422H89.8026Z" fill="black"/>
<path d="M57.8452 72.9938C55.8304 72.9938 54.0564 71.5294 53.727 69.4756C53.3658 67.1999 54.9181 65.0573 57.1926 64.696C74.7616 61.9005 75.5472 60.8292 85.2155 47.7454C86.5841 45.8944 89.2007 45.5014 91.0507 46.8707C92.9071 48.2399 93.2936 50.8579 91.9251 52.7089C81.4141 66.9337 78.7974 69.7165 58.4978 72.943C58.276 72.9811 58.0543 72.9938 57.8389 72.9938H57.8452Z" fill="url(#paint0_linear_5976_268432)"/>
<path d="M78.1638 56.709C77.8851 57.0069 77.6063 57.2922 77.3339 57.5584L82.5482 64.0876C82.8333 63.8214 83.1184 63.5488 83.4035 63.2635L78.1702 56.709H78.1638Z" fill="#51B1FC"/>
<path d="M70.7384 61.7419C70.3772 61.8751 70.0098 62.0018 69.6233 62.1286L72.1322 70.0144C72.5124 69.8939 72.8862 69.7671 73.2537 69.6404L70.7447 61.7419H70.7384Z" fill="#51B1FC"/>
<path d="M62.8885 72.2014C63.2813 72.1317 63.6678 72.0556 64.0479 71.9859L62.7871 63.7515C62.407 63.8212 62.0205 63.8909 61.6213 63.9607L62.8821 72.2014H62.8885Z" fill="#51B1FC"/>
<path d="M82.9663 50.7756C82.7256 51.0989 82.4848 51.4159 82.2567 51.7201L88.8269 56.8548C89.0613 56.5505 89.302 56.2335 89.5428 55.9102L82.9727 50.7756H82.9663Z" fill="#51B1FC"/>
<path d="M71.4226 18.1931C70.1111 13.8636 66.4554 10.6814 61.9951 9.94604C53.6953 8.57681 45.3574 8.5578 37.2224 9.83828C29.1063 11.1188 21.174 13.7114 13.6978 17.5592C9.67462 19.6321 7.17201 23.8031 7.26071 28.3292C7.3304 31.9868 7.65986 35.6318 8.23007 39.245C8.80029 42.8582 9.62393 46.4334 10.682 49.9389C11.9935 54.2685 15.6492 57.4507 20.1096 58.186C28.4094 59.5552 36.7472 59.5742 44.8823 58.2938C52.9983 57.0133 60.9307 54.4206 68.4068 50.5728C72.43 48.5 74.9326 44.3289 74.8439 39.8028C74.7742 36.1452 74.4448 32.5003 73.8745 28.887C73.3043 25.2738 72.4807 21.6986 71.4226 18.1931Z" fill="url(#paint1_linear_5976_268432)"/>
<path d="M67.8177 20.5512C66.8927 17.4387 64.3647 15.1947 61.3046 14.751C55.6024 13.9269 49.8812 14.079 44.3121 15.182C38.743 16.285 33.326 18.3198 28.2257 21.2675C25.476 22.8522 23.7844 25.933 23.8731 29.2166C23.9428 31.8663 24.1899 34.516 24.6017 37.1214C25.0135 39.733 25.5964 42.313 26.3503 44.8359C27.2754 47.9484 29.8033 50.1924 32.8635 50.6361C38.5656 51.4602 44.2868 51.3081 49.8559 50.2051C55.4123 49.1084 60.8421 47.0673 65.9423 44.1196C68.692 42.5349 70.3837 39.4541 70.295 36.1705C70.2253 33.5208 69.9782 30.8711 69.5663 28.2657C69.1545 25.6541 68.5716 23.0741 67.8177 20.5512Z" fill="#FF5D12"/>
<path d="M66.4998 21.9458C65.5748 18.8143 63.0658 16.5386 60.0247 16.0568C54.3352 15.1504 48.614 15.2328 43.0196 16.266C37.4125 17.3056 31.9257 19.3024 26.7558 22.2311C23.9617 23.8158 22.2511 26.9219 22.3651 30.2626C22.4538 32.9567 22.7136 35.6381 23.1507 38.2878C23.5879 40.9375 24.1961 43.5555 24.9691 46.1101C25.9258 49.2606 28.5044 51.53 31.6089 51.9737C37.3744 52.8041 43.1273 52.652 48.7091 51.549C54.2528 50.4524 59.6445 48.4176 64.7004 45.4889C67.4121 43.9105 69.0784 40.8488 68.9834 37.5715C68.9074 34.9218 68.6603 32.2847 68.2485 29.6731C67.8366 27.0614 67.2537 24.4751 66.5061 21.9458H66.4998Z" fill="black"/>
<path d="M14.3552 50.8401C17.5348 49.8346 18.8301 44.9603 17.2483 39.9531C15.6665 34.9458 11.8066 31.7017 8.62698 32.7072C5.44735 33.7127 4.15206 38.587 5.73386 43.5943C7.31567 48.6015 11.1756 51.8456 14.3552 50.8401Z" fill="#FFE75C"/>
<path d="M23.892 13.1914C27.5794 12.0504 30.3925 10.8967 34.1939 12.0251C35.9806 12.5575 37.6532 12.8618 45.6109 11.4862C50.1473 10.7002 49.7165 9.26758 49.444 7.77791C49.0322 5.52122 44.4261 4.80491 33.4717 6.78268C23.1254 8.64636 23.892 13.1914 23.892 13.1914Z" fill="url(#paint2_linear_5976_268432)"/>
<path d="M66.1577 81H22.1307L24.1898 74.4772L26.6418 66.7245C26.8318 66.1287 27.0979 65.5645 27.4274 65.0574C28.6882 63.1366 30.8677 61.9449 33.2436 62.002L56.293 62.5852C59.3025 62.6612 61.8938 64.7151 62.6541 67.6247L66.1514 81H66.1577Z" fill="#FF962A"/>
<path d="M61.9444 81.0001H46.067C45.8896 79.764 45.6679 78.1792 45.3764 76.1888C44.8632 72.6643 44.3881 68.6517 43.1779 65.8245C42.9942 65.3998 43.3237 64.9243 43.7925 64.937L56.7681 65.2159C57.427 65.2286 58.0162 65.6026 58.3203 66.1858C59.974 69.3426 60.7976 74.4265 61.9444 81.0064V81.0001Z" fill="#FFE75C"/>
<path d="M31.59 72.9812C28.5932 73.2031 26.1349 73.6976 24.1962 74.4709C22.3715 75.1999 20.9966 76.1761 20.0526 77.4059C19.3177 78.3631 18.7728 79.5611 18.4307 80.9938H9.9408C10.4477 77.5707 11.6071 74.6928 13.4318 72.3156C16.4032 68.4488 21.003 66.0527 27.4337 65.0511C28.5615 64.8736 29.7399 64.7469 30.9754 64.6518C33.2689 64.487 35.2774 66.2112 35.4421 68.5122C35.6132 70.8133 33.8835 72.8101 31.59 72.9812Z" fill="url(#paint3_linear_5976_268432)"/>
<path d="M55.7988 25.3624C52.5169 23.1564 48.0566 23.9932 45.9278 27.1754C42.6205 25.0074 38.2679 25.8252 36.3038 28.944C34.3904 31.9804 35.4991 36.0247 38.6987 38.0151L49.9383 45.0197L57.5411 34.7822C59.7713 31.7775 59.0364 27.5367 55.7988 25.3561V25.3624Z" fill="#57F287"/>
<path d="M86.3906 10.287C85.6225 9.99046 84.9588 9.57662 84.4447 9.07377C83.9306 8.57092 83.5782 7.9909 83.4116 7.37325L82.8933 5.24063C82.8626 5.1988 82.8186 5.16291 82.7648 5.13571C82.7109 5.10851 82.6486 5.09074 82.5827 5.08377C82.512 5.08635 82.444 5.10656 82.3905 5.14085C82.337 5.17515 82.3013 5.22136 82.2897 5.27145L81.9177 7.44953C81.8317 8.07722 81.5554 8.68863 81.1082 9.24103C80.6611 9.79344 80.0538 10.2735 79.3288 10.6476L78.9152 10.8415C78.857 10.8893 78.818 10.9474 78.8028 11.0091C78.8209 11.0732 78.8661 11.1312 78.9324 11.1752L79.3638 11.3259C80.1233 11.6243 80.7767 12.04 81.2782 12.5439C81.7798 13.0479 82.1174 13.6279 82.2674 14.2436L82.8611 16.3723C82.864 16.4295 82.8986 16.4826 82.9573 16.5201C83.016 16.5576 83.0939 16.5764 83.174 16.5723C83.2947 16.5661 83.4109 16.4738 83.4646 16.3415L83.7612 14.1673C83.8556 13.5345 84.1433 12.9196 84.6038 12.3661C85.0643 11.8127 85.6863 11.3345 86.4255 10.9654L86.7637 10.7754C86.8063 10.7575 86.8402 10.7305 86.8603 10.6984C86.8805 10.6662 86.8858 10.6307 86.8756 10.5969C86.8814 10.5639 86.8719 10.5308 86.8486 10.5027C86.8253 10.4747 86.7894 10.4532 86.7465 10.4416L86.3906 10.287Z" fill="#57F287"/>
<path d="M8.82625 63.2775C8.34861 63.075 7.93541 62.7935 7.61484 62.4524C7.29427 62.1112 7.07388 61.7184 6.9687 61.3006L6.64095 59.8584C6.62178 59.83 6.59439 59.8057 6.56088 59.7871C6.52737 59.7686 6.48863 59.7564 6.44767 59.7515C6.40382 59.7531 6.36166 59.7666 6.32853 59.7896C6.29541 59.8126 6.27341 59.8437 6.26637 59.8775L6.04158 61.348C5.98995 61.7718 5.82019 62.1841 5.54416 62.556C5.26813 62.928 4.89251 63.2506 4.44356 63.5013L4.18734 63.6311C4.15132 63.6633 4.12732 63.7024 4.11804 63.744C4.12945 63.7874 4.15767 63.8267 4.19895 63.8566L4.46715 63.9597C4.93949 64.1633 5.34627 64.446 5.65903 64.7879C5.9718 65.1298 6.183 65.5226 6.27788 65.9389L6.65245 67.3788C6.65444 67.4174 6.67607 67.4534 6.7126 67.4789C6.74913 67.5044 6.79756 67.5173 6.84723 67.5147C6.92215 67.5109 6.99407 67.4489 7.02703 67.3597L7.20499 65.8916C7.2618 65.4644 7.43863 65.0497 7.72293 64.6771C8.00722 64.3045 8.39198 63.9832 8.84984 63.7359L9.05924 63.6085C9.08561 63.5965 9.10657 63.5784 9.11898 63.5567C9.13139 63.5351 9.13461 63.511 9.12816 63.4882C9.13168 63.4659 9.12571 63.4435 9.11116 63.4245C9.09661 63.4055 9.07428 63.3909 9.04763 63.3829L8.82625 63.2775Z" fill="#57F287"/>
<path d="M15.0347 70.5342C14.7496 70.8068 14.4772 71.092 14.2111 71.3836L20.1033 77.3423C20.344 77.038 20.6101 76.7464 20.9079 76.4738L15.041 70.5342H15.0347Z" fill="#3F99F2"/>
<path d="M24.9755 65.5327C24.589 65.6215 24.2025 65.7165 23.8287 65.818L26.1983 73.8242C26.5658 73.7291 26.9522 73.634 27.3514 73.5516L24.9755 65.5327Z" fill="#3F99F2"/>
</g>
<defs>
<linearGradient id="paint0_linear_5976_268432" x1="68.7046" y1="65.0319" x2="87.542" y2="50.1067" gradientUnits="userSpaceOnUse">
<stop stop-color="#66BCFF"/>
<stop offset="1" stop-color="#8CD9FF"/>
</linearGradient>
<linearGradient id="paint1_linear_5976_268432" x1="37.6342" y1="5.85737" x2="44.2808" y2="60.5052" gradientUnits="userSpaceOnUse">
<stop stop-color="#FFC618"/>
<stop offset="0.31" stop-color="#FFAD19"/>
<stop offset="1" stop-color="#FF7D12"/>
</linearGradient>
<linearGradient id="paint2_linear_5976_268432" x1="23.8794" y1="9.40704" x2="49.6024" y2="9.40704" gradientUnits="userSpaceOnUse">
<stop stop-color="#66BCFF"/>
<stop offset="1" stop-color="#8CD9FF"/>
</linearGradient>
<linearGradient id="paint3_linear_5976_268432" x1="22.6946" y1="63.7643" x2="22.6946" y2="79.7323" gradientUnits="userSpaceOnUse">
<stop stop-color="#66BCFF"/>
<stop offset="1" stop-color="#51B1FC"/>
</linearGradient>
<clipPath id="clip0_5976_268432">
<rect width="97" height="81" fill="white"/>
</clipPath>
</defs>
</svg>
