<svg fill="none" height="84" viewBox="0 0 204 84" width="204" xmlns="http://www.w3.org/2000/svg"><path d="m0 84c0-14.1267 11.4073-25.5294 25.5396-25.5294h13.0419c1.7111 0 3.042-1.3937 3.042-3.0407v-34.8417c.0634-11.40268 9.2526-20.5882 20.5964-20.5882h74.3501c11.344 0 20.533 9.18552 20.533 20.5249v2.8507c0 2.3439 1.902 4.2443 4.247 4.2443h14.259c15.653 0 28.391 19.638 28.391 35.3484v20.9683h-204z" fill="#aec7ff" opacity=".6"/><path d="m102 6c19.89 0 36 16.11 36 36s-16.11 36-36 36-36-16.11-36-36 16.11-36 36-36z" fill="#3e70dd"/></svg>