<svg xmlns="http://www.w3.org/2000/svg" width="256" height="212" viewBox="0 0 256 212" xmlns:xlink="http://www.w3.org/1999/xlink">
  <defs>
    <polygon id="a" points="0 23.413 0 .723 58.545 .723 58.545 23.413 0 23.413"/>
  </defs>
  <g fill="none" fill-rule="evenodd">
    <g transform="translate(4 9)">
      <path fill="#4F545C" fill-opacity=".3" d="M43.7881,0.319 L111.3081,0.319 C139.5371,0.319 162.4201,23.203 162.4201,51.431 C162.4201,64.518 173.0291,75.128 186.1161,75.128 L186.1191,75.128 C214.5261,75.128 237.5541,98.155 237.5541,126.562 L237.5541,126.565 C237.5541,154.972 214.5261,178 186.1191,178 L160.1211,178 L45.2861,178 C29.4011,178 16.5251,165.124 16.5251,149.24 L16.5251,149.238 C16.5251,133.354 29.4011,120.477 45.2861,120.477 L48.0401,120.477 C57.3291,120.477 64.8591,112.947 64.8591,103.659 C64.8591,94.37 57.3291,86.84 48.0401,86.84 L43.7881,86.84 C19.8961,86.84 0.5271,67.471 0.5271,43.579 C0.5271,19.687 19.8961,0.319 43.7881,0.319" transform="translate(11 16.565)"/>
      <path fill="#1F2225" d="M106.439,18.9577 C106.274,19.6277 106.822,20.2607 107.509,20.1917 L114.234,19.5207 C114.268,19.5177 114.301,19.5167 114.335,19.5167 C114.835,19.5167 115.266,19.8907 115.327,20.3977 L115.831,24.6397 C115.965,25.7617 117.566,25.8357 117.802,24.7307 L119.649,16.0947 C119.787,15.4497 119.275,14.8507 118.617,14.8867 L112.672,15.2077 C112.15,15.2447 111.71,14.8707 111.63,14.3637 L110.825,9.1997 C110.657,8.1207 109.127,8.0537 108.866,9.1137 L106.439,18.9577 Z"/>
      <polygon fill="#4F545C" points="168.582 99.816 172.321 96.077 169.956 93.712 166.217 97.451"/>
      <path fill="#4F545C" d="M99.2026 163.7766C99.0926 163.0996 99.1176 162.4096 99.2716 161.7386L97.1646 163.8456C97.8346 163.6916 98.5256 163.6676 99.2026 163.7766M119.3237 153.6652L121.1197 151.8692C118.8957 152.1092 116.7757 152.8052 114.8557 153.8972L117.6807 156.7232 119.3237 155.0792 119.3237 155.0792C118.9327 154.6882 118.9327 154.0562 119.3237 153.6652"/>
      <path fill="#4F545C" d="M103.8804 155.8752C104.2274 156.2222 104.2274 156.7832 103.8804 157.1302L103.1944 157.8162C103.8644 157.6612 104.5544 157.6372 105.2324 157.7472 104.9764 156.1722 105.4334 154.5092 106.6094 153.2742 106.5854 153.2552 106.5554 153.2462 106.5324 153.2242 106.1864 152.8772 106.1864 152.3152 106.5324 151.9692L121.6274 136.8742 120.1364 135.3842 79.7634 175.7572C79.3084 176.2122 79.0574 176.8172 79.0574 177.4622 79.0574 178.0042 79.2434 178.5122 79.5694 178.9322L102.6264 155.8752C102.9724 155.5282 103.5334 155.5282 103.8804 155.8752M91.3027 181.4094L88.9507 179.0574C88.5837 179.3674 88.2227 179.6864 87.8797 180.0304L84.2527 183.6564 85.0877 184.4914C85.7227 185.1254 86.6217 185.3214 87.4307 185.0994L90.9067 181.6244C91.0197 181.5114 91.1577 181.4484 91.3027 181.4094M164.9624 96.1955L168.7014 92.4575 167.5874 91.3425C167.4344 91.1895 167.2604 91.0705 167.0814 90.9665 166.0754 91.4905 164.9674 91.7245 163.8604 91.6605L162.1434 93.3775 164.9624 96.1955zM87.2124 173.798L80.8034 180.207 82.9984 182.402 87.7864 177.614C87.1104 176.445 86.9164 175.082 87.2124 173.798M122.9038 149.9924C122.9368 149.9924 122.9688 149.9884 123.0008 149.9884L124.8788 148.1104C122.2238 148.4004 119.7108 149.3184 117.5198 150.8074 119.2408 150.2734 121.0498 149.9914 122.9038 149.9924M170.8779 102.1115L172.9119 100.0775C173.3669 99.6225 173.6179 99.0165 173.6179 98.3725 173.6179 98.0565 173.5559 97.7505 173.4409 97.4655L169.8359 101.0705 170.8779 102.1115zM93.1729 169.8059C93.0629 169.1289 93.0879 168.4389 93.2419 167.7689L91.1359 169.8739C91.8059 169.7199 92.4959 169.6959 93.1729 169.8059"/>
      <path fill="#4F545C" d="M113.0405 152.3605L113.8735 151.5285C117.2905 148.1105 121.8345 146.2275 126.6665 146.2285 126.7005 146.2285 126.7325 146.2235 126.7655 146.2235L128.8715 144.1185 122.8815 138.1295 109.2245 151.7865C110.5085 151.4905 111.8725 151.6845 113.0405 152.3605M106.5327 153.2238C106.5547 153.2458 106.5847 153.2548 106.6097 153.2748 106.6387 153.2438 106.6587 153.2058 106.6897 153.1748 107.4117 152.4528 108.2957 151.9998 109.2237 151.7868L122.8817 138.1288 121.6267 136.8738 106.5327 151.9688C106.1857 152.3158 106.1857 152.8768 106.5327 153.2238M88.6016 171.2639C89.3236 170.5419 90.2076 170.0889 91.1366 169.8739L93.2416 167.7689C93.4556 166.8399 93.9096 165.9559 94.6306 165.2349 95.3526 164.5139 96.2366 164.0599 97.1646 163.8459L99.2716 161.7389C99.4856 160.8109 99.9396 159.9269 100.6606 159.2049 101.3826 158.4839 102.2666 158.0309 103.1946 157.8169L103.8806 157.1299C104.2266 156.7839 104.2266 156.2219 103.8806 155.8749 103.5336 155.5289 102.9726 155.5289 102.6256 155.8749L79.5696 178.9319C79.6326 179.0119 79.6906 179.0949 79.7636 179.1669L80.8036 180.2069 87.2126 173.7979C87.4266 172.8699 87.8796 171.9869 88.6016 171.2639"/>
      <path fill="#4F545C" d="M113.873 151.5285L113.04 152.3605C113.429 152.5855 113.802 152.8425 114.134 153.1745L114.856 153.8975C116.776 152.8045 118.895 152.1095 121.12 151.8695L123.001 149.9885C122.969 149.9885 122.936 149.9925 122.904 149.9925 121.05 149.9915 119.241 150.2735 117.52 150.8075 119.711 149.3185 122.224 148.4005 124.878 148.1105L126.766 146.2235C126.732 146.2235 126.7 146.2285 126.667 146.2285 121.835 146.2275 117.29 148.1105 113.873 151.5285M88.9512 179.0578L88.6012 178.7078C88.2692 178.3758 88.0112 178.0028 87.7862 177.6148L82.9982 182.4028 84.2532 183.6568 87.8792 180.0308C88.2222 179.6868 88.5832 179.3678 88.9512 179.0578M90.9063 181.6242L87.4303 185.1002C87.8213 184.9932 88.1923 184.7982 88.4973 184.4912L89.2863 183.7032C89.6773 183.3122 90.3093 183.3122 90.7003 183.7032L92.1483 182.2552 91.3023 181.4092C91.1583 181.4482 91.0193 181.5112 90.9063 181.6242"/>
      <polygon fill="#4F545C" points="166.217 97.45 169.956 93.711 168.701 92.457 164.963 96.195"/>
      <path fill="#4F545C" d="M167.081 90.967C166.16 90.439 164.965 90.558 164.178 91.343L163.861 91.66C164.967 91.725 166.075 91.49 167.081 90.967M169.8364 101.0705L173.4404 97.4665C173.3214 97.1715 173.1444 96.8995 172.9124 96.6675L172.3214 96.0765 168.5824 99.8155 169.8364 101.0705z"/>
      <path fill="#72767D" d="M114.7163,97.384 C115.1073,96.993 115.7393,96.993 116.1303,97.384 C116.5213,97.775 116.5213,98.407 116.1303,98.798 L107.0713,107.857 C106.6793,108.248 106.4643,108.77 106.4643,109.324 C106.4643,109.878 106.6793,110.4 107.0713,110.791 L112.6233,116.343 C113.0143,116.734 113.0143,117.366 112.6233,117.757 C112.4283,117.952 112.1723,118.05 111.9163,118.05 C111.6603,118.05 111.4043,117.952 111.2093,117.757 L105.6573,112.205 C104.8873,111.436 104.4643,110.413 104.4643,109.324 C104.4643,108.236 104.8873,107.212 105.6573,106.443 L114.7163,97.384 Z M118.7053,93.395 L119.3263,92.774 C119.7163,92.383 120.3493,92.383 120.7403,92.774 C121.1313,93.164 121.1313,93.797 120.7403,94.188 L120.1193,94.809 C119.9243,95.004 119.6683,95.102 119.4123,95.102 C119.1563,95.102 118.9003,95.004 118.7053,94.809 C118.3143,94.418 118.3143,93.785 118.7053,93.395 L118.7053,93.395 Z M161.4193,108.599 C160.6503,109.368 159.6263,109.792 158.5373,109.792 C157.4493,109.792 156.4253,109.368 155.6563,108.599 C154.8863,107.829 154.4623,106.806 154.4623,105.717 C154.4623,104.628 154.8863,103.605 155.6563,102.835 C157.2453,101.247 159.8293,101.247 161.4193,102.835 C163.0073,104.424 163.0073,107.01 161.4193,108.599 L161.4193,108.599 Z M128.3673,131.813 C128.3673,130.724 128.7913,129.7 129.5613,128.931 C130.3303,128.161 131.3543,127.738 132.4423,127.738 C133.5313,127.738 134.5543,128.161 135.3243,128.931 C136.9123,130.52 136.9123,133.106 135.3243,134.695 C134.5293,135.488 133.4863,135.886 132.4423,135.886 C131.3993,135.886 130.3553,135.488 129.5613,134.695 C128.7913,133.925 128.3673,132.902 128.3673,131.813 L128.3673,131.813 Z M102.6303,115.049 L117.2373,129.656 L143.0233,103.87 C143.4143,103.48 144.0473,103.48 144.4373,103.87 C144.8283,104.261 144.8283,104.894 144.4373,105.284 L118.6513,131.071 L133.1843,145.604 L172.3633,106.425 L157.8303,91.892 L149.1983,100.524 C149.0033,100.719 148.7473,100.817 148.4913,100.817 C148.2353,100.817 147.9793,100.719 147.7843,100.524 C147.3933,100.133 147.3933,99.5 147.7843,99.11 L156.4163,90.478 L141.8083,75.871 C138.6523,72.715 133.5163,72.715 130.3593,75.871 L102.6303,103.6 C99.4733,106.756 99.4733,111.893 102.6303,115.049 L102.6303,115.049 Z"/>
      <path fill="#B9BBBE" d="M157.8301,91.8918 L149.1981,100.5238 C149.0031,100.7188 148.7471,100.8168 148.4911,100.8168 C148.2351,100.8168 147.9791,100.7188 147.7841,100.5238 L144.4371,103.8708 C144.8281,104.2608 144.8281,104.8938 144.4371,105.2848 L118.6511,131.0708 L133.1841,145.6038 L172.3631,106.4248 L157.8301,91.8918 Z"/>
      <path fill="#72767D" d="M185.3574,131.052 L182.4404,133.969 C182.2454,134.164 181.9894,134.262 181.7334,134.262 C181.4774,134.262 181.2214,134.164 181.0264,133.969 C180.6354,133.578 180.6354,132.946 181.0264,132.555 L183.9434,129.638 C184.3354,129.246 184.5504,128.725 184.5504,128.17 C184.5504,127.616 184.3354,127.095 183.9434,126.703 L182.6084,125.368 C182.2184,124.978 182.2184,124.345 182.6084,123.954 C182.9994,123.564 183.6324,123.564 184.0234,123.954 L185.3574,125.289 C186.1274,126.059 186.5504,127.081 186.5504,128.17 C186.5504,129.259 186.1274,130.282 185.3574,131.052 M188.3844,122.447 L173.7774,107.839 L134.5984,147.018 L149.2064,161.625 C152.3624,164.781 157.4994,164.781 160.6554,161.625 L188.3844,133.896 C191.5414,130.74 191.5414,125.603 188.3844,122.447"/>
      <path fill="#4F545C" d="M157.0703 104.2492C156.2613 105.0592 156.2613 106.3752 157.0703 107.1852 157.8543 107.9682 159.2213 107.9682 160.0053 107.1852 160.8143 106.3752 160.8143 105.0592 160.0053 104.2492 159.6003 103.8452 159.0693 103.6432 158.5373 103.6432 158.0063 103.6432 157.4743 103.8452 157.0703 104.2492M133.9101 130.3449C133.5181 129.9529 132.9961 129.7379 132.4421 129.7379 131.8881 129.7379 131.3671 129.9529 130.9751 130.3449 130.1661 131.1549 130.1661 132.4709 130.9751 133.2809 131.7841 134.0889 133.1001 134.0889 133.9101 133.2809 134.7191 132.4709 134.7191 131.1549 133.9101 130.3449"/>
      <path fill="#1F2225" d="M217.31 116.5266L210.488 116.5266C209.936 116.5266 209.488 116.9736 209.488 117.5266 209.488 118.0796 209.936 118.5266 210.488 118.5266L217.31 118.5266C217.862 118.5266 218.31 118.0796 218.31 117.5266 218.31 116.9736 217.862 116.5266 217.31 116.5266M206.4429 95.5842C206.5569 95.5842 206.6719 95.5642 206.7849 95.5232L213.1949 93.1902C213.7139 93.0022 213.9819 92.4282 213.7929 91.9092 213.6039 91.3902 213.0289 91.1242 212.5109 91.3122L206.1009 93.6452C205.5819 93.8332 205.3149 94.4072 205.5029 94.9262 205.6509 95.3322 206.0349 95.5842 206.4429 95.5842M199.3779 69.2585L194.1519 73.6435C193.7289 73.9975 193.6729 74.6285 194.0279 75.0515 194.2259 75.2875 194.5099 75.4085 194.7949 75.4085 195.0219 75.4085 195.2499 75.3315 195.4369 75.1745L200.6629 70.7895C201.0859 70.4355 201.1419 69.8045 200.7869 69.3815 200.4319 68.9575 199.7999 68.9045 199.3779 69.2585M176.4482 60.3005C176.6052 60.3915 176.7782 60.4345 176.9472 60.4345 177.2932 60.4345 177.6292 60.2555 177.8142 59.9345L181.2252 54.0265C181.5012 53.5485 181.3382 52.9365 180.8592 52.6605 180.3812 52.3835 179.7692 52.5485 179.4932 53.0265L176.0822 58.9345C175.8062 59.4125 175.9692 60.0245 176.4482 60.3005M154.8828 52.4509C154.9418 52.4609 154.9998 52.4659 155.0578 52.4659 155.5338 52.4659 155.9558 52.1249 156.0418 51.6399L157.2258 44.9219C157.3218 44.3779 156.9588 43.8599 156.4148 43.7629 155.8678 43.6689 155.3518 44.0309 155.2568 44.5749L154.0718 51.2919C153.9758 51.8359 154.3388 52.3549 154.8828 52.4509M131.9336 182.6037C131.3866 182.5057 130.8706 182.8707 130.7746 183.4147L129.5906 190.1317C129.4946 190.6757 129.8576 191.1947 130.4016 191.2907 130.4606 191.3007 130.5186 191.3057 130.5766 191.3057 131.0526 191.3057 131.4746 190.9647 131.5596 190.4797L132.7446 183.7617C132.8406 183.2177 132.4776 182.6997 131.9336 182.6037M130.4014 43.7634C129.8574 43.8594 129.4944 44.3784 129.5904 44.9224L130.7754 51.6394C130.8604 52.1244 131.2824 52.4664 131.7584 52.4664 131.8164 52.4664 131.8744 52.4614 131.9334 52.4514 132.4774 52.3544 132.8404 51.8364 132.7444 51.2924L131.5604 44.5744C131.4644 44.0314 130.9464 43.6684 130.4014 43.7634M154.8828 182.6037C154.3388 182.6997 153.9758 183.2177 154.0718 183.7617L155.2568 190.4797C155.3418 190.9647 155.7638 191.3057 156.2398 191.3057 156.2978 191.3057 156.3558 191.3007 156.4148 191.2907 156.9588 191.1947 157.3218 190.6757 157.2258 190.1317L156.0418 183.4147C155.9458 182.8707 155.4288 182.5047 154.8828 182.6037M177.8144 175.1203C177.5374 174.6413 176.9254 174.4773 176.4484 174.7543 175.9694 175.0303 175.8064 175.6413 176.0824 176.1203L179.4934 182.0273C179.6784 182.3493 180.0144 182.5273 180.3604 182.5273 180.5294 182.5273 180.7024 182.4843 180.8594 182.3933 181.3374 182.1173 181.5014 181.5063 181.2254 181.0273L177.8144 175.1203zM195.437 159.8791C195.015 159.5251 194.384 159.5781 194.028 160.0021 193.673 160.4251 193.729 161.0561 194.152 161.4101L199.378 165.7951C199.565 165.9521 199.793 166.0291 200.02 166.0291 200.305 166.0291 200.589 165.9081 200.787 165.6721 201.142 165.2491 201.086 164.6181 200.663 164.2641L195.437 159.8791zM213.1948 141.8635L206.7848 139.5305C206.2678 139.3425 205.6928 139.6085 205.5028 140.1285 205.3148 140.6465 205.5818 141.2205 206.1008 141.4095L212.5108 143.7425C212.6238 143.7835 212.7388 143.8025 212.8528 143.8025 213.2608 143.8025 213.6448 143.5505 213.7928 143.1445 213.9818 142.6265 213.7138 142.0515 213.1948 141.8635M43.1318 150.3361C43.1318 150.8891 43.5798 151.3361 44.1318 151.3361L74.4488 151.3361C76.5708 151.3361 78.6058 150.4931 80.1058 148.9931L100.0598 129.0391C101.8778 127.2231 104.8348 127.2231 106.6558 129.0421 107.6768 130.0641 108.1658 131.4731 107.9848 132.9401 107.8518 134.0151 107.2968 134.9961 106.5298 135.7631L98.2128 144.0781C97.8218 144.4691 97.8218 145.1021 98.2128 145.4921 98.6038 145.8831 99.2368 145.8831 99.6268 145.4921L107.8878 137.2321C109.0548 136.0651 109.8648 134.5471 109.9988 132.9021 110.1648 130.8621 109.4238 128.9191 107.9558 127.5171 105.3048 124.9821 101.0368 125.2341 98.4438 127.8281L79.2778 146.9931C77.7778 148.4931 75.7428 149.3361 73.6208 149.3361L44.1318 149.3361C43.5798 149.3361 43.1318 149.7831 43.1318 150.3361M74.6401 170.3967L17.8581 170.3967C17.3061 170.3967 16.8581 170.8437 16.8581 171.3967 16.8581 171.9497 17.3061 172.3967 17.8581 172.3967L74.6401 172.3967C75.1921 172.3967 75.6401 171.9497 75.6401 171.3967 75.6401 170.8437 75.1921 170.3967 74.6401 170.3967M119.3262 92.7736L118.7052 93.3946C118.3142 93.7856 118.3142 94.4186 118.7052 94.8086 118.9002 95.0036 119.1562 95.1016 119.4122 95.1016 119.6682 95.1016 119.9242 95.0036 120.1192 94.8086L120.7402 94.1876C121.1312 93.7966 121.1312 93.1646 120.7402 92.7736 120.3492 92.3826 119.7172 92.3826 119.3262 92.7736M114.7163 97.384L105.8113 106.288C105.1143 106.986 104.5983 107.876 104.4903 108.857 104.3503 110.117 104.7783 111.326 105.6573 112.205L111.2093 117.757C111.4043 117.952 111.6603 118.05 111.9163 118.05 112.1723 118.05 112.4283 117.952 112.6233 117.757 113.0143 117.366 113.0143 116.734 112.6233 116.343L107.0713 110.791C106.6793 110.4 106.4643 109.878 106.4643 109.324 106.4643 108.77 106.6793 108.248 107.0713 107.857L116.1303 98.798C116.5213 98.407 116.5213 97.775 116.1303 97.384 115.7393 96.993 115.1073 96.993 114.7163 97.384M184.0229 123.9543C183.6319 123.5633 182.9999 123.5633 182.6089 123.9543 182.2179 124.3453 182.2179 124.9773 182.6089 125.3683L183.9429 126.7033C184.3349 127.0953 184.5509 127.6163 184.5509 128.1703 184.5509 128.7253 184.3349 129.2463 183.9429 129.6383L181.0259 132.5553C180.6359 132.9453 180.6359 133.5783 181.0259 133.9693 181.2219 134.1643 181.4779 134.2623 181.7329 134.2623 181.9889 134.2623 182.2449 134.1643 182.4399 133.9693L185.3569 131.0523C186.1269 130.2823 186.5509 129.2593 186.5509 128.1703 186.5509 127.0813 186.1269 126.0583 185.3569 125.2893L184.0229 123.9543z"/>
      <path fill="#1F2225" d="M188.3848,133.8957 L160.6558,161.6247 C157.4938,164.7877 152.3678,164.7877 149.2058,161.6247 L136.0128,148.4317 C135.2318,147.6517 135.2318,146.3847 136.0128,145.6037 L172.3638,109.2527 C173.1438,108.4717 174.4108,108.4717 175.1918,109.2527 L188.3848,122.4467 C191.5468,125.6087 191.5468,130.7347 188.3848,133.8957 L188.3848,133.8957 Z M121.4798,133.8997 C119.9178,132.3367 119.9178,129.8047 121.4798,128.2427 L144.4378,105.2847 C144.8278,104.8937 144.8278,104.2607 144.4378,103.8707 C144.0468,103.4797 143.4138,103.4797 143.0238,103.8707 L118.6518,128.2427 C117.8708,129.0237 116.6048,129.0237 115.8228,128.2427 L102.6298,115.0487 C99.4688,111.8877 99.4688,106.7617 102.6298,103.5997 L130.3598,75.8707 C133.5168,72.7147 138.6528,72.7147 141.8088,75.8707 L155.0018,89.0637 C155.7828,89.8447 155.7828,91.1117 155.0018,91.8917 L147.7838,99.1097 C147.3938,99.4997 147.3938,100.1327 147.7838,100.5237 C147.9798,100.7187 148.2358,100.8167 148.4908,100.8167 C148.7468,100.8167 149.0028,100.7187 149.1978,100.5237 L155.0018,94.7207 C156.5638,93.1587 159.0968,93.1587 160.6588,94.7207 L169.5348,103.5967 C171.0968,105.1587 171.0968,107.6917 169.5348,109.2527 L136.0128,142.7757 C134.4508,144.3377 131.9188,144.3377 130.3568,142.7757 L121.4798,133.8997 Z M163.8608,91.6607 L164.1778,91.3427 C164.9648,90.5577 166.1598,90.4387 167.0808,90.9667 C167.2608,91.0707 167.4338,91.1897 167.5878,91.3427 L168.7008,92.4577 L169.9558,93.7107 L172.3218,96.0767 L172.9118,96.6667 C173.1438,96.8997 173.3218,97.1707 173.4408,97.4657 C173.5558,97.7497 173.6178,98.0567 173.6178,98.3727 C173.6178,99.0167 173.3668,99.6227 172.9118,100.0777 L172.2928,100.6977 C171.5108,101.4787 170.2448,101.4787 169.4638,100.6977 L163.5578,94.7917 C162.7768,94.0107 162.7768,92.7447 163.5578,91.9627 L163.8608,91.6607 Z M174.2018,101.6167 L174.2038,101.6147 C174.9288,100.8887 175.4558,99.9617 175.5828,98.9437 C175.7558,97.5557 175.2928,96.2197 174.3258,95.2527 L169.0018,89.9287 C167.2788,88.2067 164.4868,88.2067 162.7638,89.9287 C161.6408,91.0527 159.8188,91.0527 158.6958,89.9287 L143.2228,74.4567 C139.2858,70.5207 132.8818,70.5207 128.9458,74.4567 L115.8798,87.5227 C114.0488,89.3537 110.9858,88.9887 109.6368,86.7787 L97.8608,67.4857 C97.7178,67.2517 97.4848,67.0867 97.2168,67.0287 C96.9478,66.9727 96.6688,67.0257 96.4418,67.1817 L86.3308,74.1027 C82.8508,76.4847 78.0638,74.6277 77.0998,70.5227 L65.3688,20.5337 C64.8428,18.2937 67.8958,17.0837 69.0478,19.0767 L88.9198,53.4667 C89.0578,53.7067 89.2888,53.8777 89.5588,53.9407 C89.8288,54.0017 90.1118,53.9507 90.3418,53.7977 L103.3908,45.0617 C105.1768,43.8647 107.6058,44.8817 108.0068,46.9947 L112.5068,70.7127 C112.6098,71.2547 113.1308,71.6097 113.6758,71.5087 C114.2188,71.4057 114.5748,70.8827 114.4718,70.3397 L108.8438,40.6787 C108.7808,40.3487 108.5568,40.0727 108.2478,39.9427 C107.9378,39.8127 107.5838,39.8467 107.3048,40.0337 L97.2188,46.7867 C93.3748,49.3597 88.1558,48.1467 85.8418,44.1417 L60.6228,0.4997 C60.3748,0.0707 59.8488,-0.1123 59.3888,0.0707 C58.9278,0.2537 58.6698,0.7467 58.7828,1.2287 L77.4878,80.9307 C77.5638,81.2517 77.7918,81.5157 78.0998,81.6347 C78.4078,81.7527 78.7538,81.7127 79.0268,81.5267 L94.0938,71.2117 C95.5118,70.2417 97.4538,70.6577 98.3498,72.1247 L109.1898,89.8847 C110.1528,91.4617 109.9098,93.4917 108.6048,94.7977 L101.4498,101.9527 C99.5938,103.8087 98.3788,106.2647 98.2688,108.8877 C98.1488,111.7477 99.2068,114.4547 101.2158,116.4627 L113.7728,129.0207 C116.5068,131.7537 116.5068,136.1867 113.7728,138.9197 L92.0988,160.5937 C90.5058,162.1877 88.3728,163.1957 86.1198,163.2077 C84.6318,163.2157 82.9898,162.8137 81.5218,161.5157 C81.1078,161.1507 80.4758,161.1887 80.1098,161.6027 C79.7438,162.0167 79.7828,162.6487 80.1978,163.0137 C82.1018,164.6977 84.1838,165.2267 86.0518,165.2267 C86.5908,165.2267 87.0998,165.1727 87.5938,165.0997 L78.4718,174.2207 C77.7468,174.9457 77.2208,175.8737 77.0938,176.8907 C76.9208,178.2797 77.3838,179.6157 78.3498,180.5817 L83.5508,185.7827 C84.2758,186.5067 85.2018,187.0337 86.2188,187.1617 C87.6068,187.3357 88.9448,186.8737 89.9118,185.9057 L90.6998,185.1177 C91.0908,184.7277 91.0908,184.0937 90.7008,183.7037 L90.6998,183.7037 C90.3098,183.3127 89.6768,183.3127 89.2858,183.7037 L88.4978,184.4917 C88.1918,184.7977 87.8208,184.9937 87.4308,185.0997 C86.6218,185.3217 85.7228,185.1247 85.0878,184.4917 L84.2528,183.6567 L82.9988,182.4027 L80.8028,180.2077 L79.7638,179.1667 C79.6908,179.0947 79.6328,179.0117 79.5698,178.9317 C79.2438,178.5117 79.0578,178.0037 79.0578,177.4617 C79.0578,176.8177 79.3088,176.2117 79.7638,175.7567 L118.0158,137.5057 C119.1868,136.3337 121.0868,136.3337 122.2588,137.5057 L126.7498,141.9977 C127.9218,143.1687 127.9218,145.0687 126.7498,146.2397 L123.0008,149.9887 L121.1198,151.8697 L119.3238,153.6657 C118.9328,154.0557 118.9328,154.6887 119.3238,155.0797 L119.3238,155.0797 C119.7148,155.4697 120.3468,155.4697 120.7378,155.0797 L125.3358,150.4827 C128.0688,147.7487 132.5018,147.7487 135.2348,150.4827 L147.7918,163.0397 C149.7598,165.0067 152.3448,165.9917 154.9308,165.9917 C157.5158,165.9917 160.1008,165.0067 162.0698,163.0397 L189.7988,135.3097 C191.8088,133.3007 192.8658,130.5937 192.7468,127.7347 C192.6368,125.1117 191.4218,122.6547 189.5648,120.7977 L174.2018,105.4347 C173.1468,104.3807 173.1468,102.6707 174.2018,101.6167 L174.2018,101.6167 Z"/>
      <path fill="#1F2225" d="M160.0054 107.1848C159.2214 107.9678 157.8544 107.9678 157.0704 107.1848 156.2614 106.3748 156.2614 105.0588 157.0704 104.2488 157.4744 103.8448 158.0064 103.6428 158.5374 103.6428 159.0694 103.6428 159.6004 103.8448 160.0054 104.2488 160.8144 105.0588 160.8144 106.3748 160.0054 107.1848M161.4194 102.8348C159.8294 101.2478 157.2454 101.2478 155.6564 102.8348 154.8864 103.6048 154.4624 104.6278 154.4624 105.7168 154.4624 106.8058 154.8864 107.8298 155.6564 108.5988 156.4254 109.3688 157.4494 109.7918 158.5374 109.7918 159.6264 109.7918 160.6504 109.3688 161.4194 108.5988 163.0074 107.0098 163.0074 104.4238 161.4194 102.8348M133.9101 133.2805C133.1001 134.0895 131.7841 134.0895 130.9751 133.2805 130.1661 132.4705 130.1661 131.1545 130.9751 130.3445 131.3671 129.9535 131.8881 129.7375 132.4421 129.7375 132.9961 129.7375 133.5181 129.9535 133.9101 130.3445 134.7191 131.1545 134.7191 132.4705 133.9101 133.2805M132.4421 127.7375C131.3541 127.7375 130.3301 128.1615 129.5611 128.9305 128.7911 129.7005 128.3671 130.7235 128.3671 131.8125 128.3671 132.9015 128.7911 133.9255 129.5611 134.6945 130.3551 135.4885 131.3991 135.8855 132.4421 135.8855 133.4861 135.8855 134.5291 135.4885 135.3241 134.6945 136.9121 133.1055 136.9121 130.5195 135.3241 128.9305 134.5551 128.1615 133.5311 127.7375 132.4421 127.7375M118.7495 165.2346C117.4775 166.5056 115.4065 166.5056 114.1335 165.2346L108.1035 159.2056C106.8315 157.9326 106.8315 155.8616 108.1035 154.5886 108.7405 153.9526 109.5765 153.6346 110.4125 153.6346 111.2475 153.6346 112.0835 153.9536 112.7195 154.5886L118.7495 160.6196C120.0215 161.8916 120.0215 163.9626 118.7495 165.2346L118.7495 165.2346zM112.7195 171.2636C111.4465 172.5356 109.3755 172.5346 108.1035 171.2636L102.0745 165.2346C100.8025 163.9626 100.8025 161.8916 102.0745 160.6196 102.7105 159.9836 103.5465 159.6656 104.3825 159.6656 105.2175 159.6656 106.0535 159.9836 106.6895 160.6196L112.7195 166.6486C113.9925 167.9216 113.9925 169.9916 112.7195 171.2636L112.7195 171.2636zM106.6895 177.2946C105.4175 178.5656 103.3475 178.5656 102.0745 177.2946L96.0445 171.2636C94.7725 169.9916 94.7725 167.9216 96.0445 166.6486 97.3175 165.3766 99.3885 165.3776 100.6605 166.6486L106.6895 172.6776C107.9625 173.9506 107.9625 176.0216 106.6895 177.2946L106.6895 177.2946zM100.6605 183.3236C99.3885 184.5936 97.3175 184.5946 96.0445 183.3236L90.0155 177.2946C88.7435 176.0216 88.7435 173.9506 90.0155 172.6776 90.6515 172.0426 91.4875 171.7236 92.3235 171.7236 93.1585 171.7236 93.9945 172.0426 94.6305 172.6776L100.6605 178.7086C101.9335 179.9806 101.9335 182.0506 100.6605 183.3236L100.6605 183.3236zM117.6815 156.7226L114.8555 153.8976 114.1335 153.1746C113.8025 152.8426 113.4285 152.5856 113.0405 152.3606 111.8725 151.6846 110.5085 151.4906 109.2245 151.7866 108.2955 152.0006 107.4115 152.4536 106.6895 153.1746 106.6595 153.2066 106.6395 153.2436 106.6095 153.2746 105.4335 154.5086 104.9765 156.1716 105.2315 157.7476 104.5545 157.6366 103.8645 157.6616 103.1945 157.8166 102.2665 158.0306 101.3825 158.4836 100.6605 159.2056 99.9395 159.9266 99.4855 160.8106 99.2715 161.7386 99.1175 162.4096 99.0925 163.0996 99.2025 163.7766 98.5255 163.6676 97.8345 163.6916 97.1645 163.8456 96.2365 164.0596 95.3525 164.5136 94.6305 165.2346 93.9095 165.9566 93.4565 166.8396 93.2415 167.7686 93.0875 168.4386 93.0625 169.1296 93.1725 169.8056 92.4965 169.6956 91.8055 169.7196 91.1365 169.8746 90.2075 170.0886 89.3235 170.5426 88.6015 171.2636 87.8795 171.9866 87.4265 172.8706 87.2125 173.7976 86.9165 175.0826 87.1105 176.4456 87.7865 177.6146 88.0115 178.0036 88.2695 178.3766 88.6015 178.7086L88.9515 179.0576 91.3025 181.4096 92.1485 182.2556 94.6305 184.7376C95.6565 185.7636 97.0045 186.2766 98.3525 186.2766 99.7005 186.2766 101.0485 185.7636 102.0745 184.7376 103.3175 183.4956 103.7955 181.7816 103.5325 180.1666 103.8145 180.2126 104.0975 180.2476 104.3825 180.2476 105.7295 180.2476 107.0785 179.7346 108.1035 178.7086 109.3475 177.4646 109.8255 175.7516 109.5625 174.1356 109.8435 174.1816 110.1275 174.2166 110.4115 174.2166 111.7595 174.2166 113.1075 173.7046 114.1335 172.6776 115.3765 171.4356 115.8545 169.7216 115.5915 168.1066 115.8735 168.1526 116.1565 168.1876 116.4415 168.1876 117.7895 168.1876 119.1375 167.6746 120.1635 166.6486 122.2155 164.5966 122.2155 161.2566 120.1635 159.2056L117.6815 156.7226zM74.6401 162.2385C74.0881 162.2385 73.6401 162.6855 73.6401 163.2385L73.6401 164.8045C73.6401 165.3575 74.0881 165.8045 74.6401 165.8045 75.1921 165.8045 75.6401 165.3575 75.6401 164.8045L75.6401 163.2385C75.6401 162.6855 75.1921 162.2385 74.6401 162.2385"/>
      <g transform="translate(0 57.565)">
        <mask id="b" fill="white">
          <use xlink:href="#a"/>
        </mask>
        <path fill="#1F2225" d="M44.3594,13.1266 L34.3034,10.8526 C33.8084,10.7406 33.3074,11.0186 33.1394,11.4986 L30.7064,18.4636 C30.2774,19.6896 28.8124,20.1886 27.7244,19.4786 L13.4774,10.1706 C12.5064,9.5366 13.2124,8.0356 14.3194,8.3776 L26.0474,12.0036 C26.5474,12.1576 27.0774,11.9036 27.2714,11.4206 L29.7404,5.2676 C30.1904,4.1466 31.5224,3.6766 32.5754,4.2676 L45.0694,11.2786 C46.0754,11.8436 45.4844,13.3806 44.3594,13.1266 M58.4784,17.4926 C58.6564,17.0296 58.4674,16.5046 58.0344,16.2616 L30.5734,0.8516 C30.3224,0.7096 30.0224,0.6846 29.7524,0.7806 C29.4804,0.8756 29.2634,1.0836 29.1564,1.3506 L26.1014,8.9656 C25.9074,9.4496 25.3754,9.7026 24.8784,9.5486 L1.2954,2.2576 C0.8184,2.1106 0.3064,2.3366 0.0944,2.7886 C-0.1176,3.2396 0.0354,3.7776 0.4534,4.0506 L29.8384,23.2496 C30.0034,23.3566 30.1934,23.4126 30.3854,23.4126 C30.4944,23.4126 30.6034,23.3946 30.7084,23.3586 C30.9994,23.2596 31.2284,23.0326 31.3294,22.7426 L34.4394,13.8426 C34.6064,13.3626 35.1074,13.0846 35.6034,13.1966 L57.3244,18.1096 C57.8084,18.2196 58.2994,17.9576 58.4784,17.4926" mask="url(#b)"/>
      </g>
      <path fill="#1F2225" d="M84.2949 100.133C83.7429 100.133 83.2949 100.58 83.2949 101.133 83.2949 101.967 82.6189 102.643 81.7849 102.643L81.7849 102.643C81.2319 102.643 80.7849 103.09 80.7849 103.643 80.7849 104.195 81.2319 104.643 81.7849 104.643L81.7849 104.643C82.6189 104.643 83.2949 105.319 83.2949 106.153 83.2949 106.705 83.7429 107.153 84.2949 107.153 84.8469 107.153 85.2949 106.705 85.2949 106.153 85.2949 105.319 85.9709 104.643 86.8049 104.643L86.8049 104.643C87.3579 104.643 87.8049 104.195 87.8049 103.643 87.8049 103.09 87.3579 102.643 86.8049 102.643L86.8049 102.643C85.9709 102.643 85.2949 101.967 85.2949 101.133 85.2949 100.58 84.8469 100.133 84.2949 100.133M29.6426 117.7473L29.1326 117.7473C28.5806 117.7473 28.1326 117.3003 28.1326 116.7473L28.1326 116.2373C28.1326 115.6843 27.6846 115.2373 27.1326 115.2373 26.5796 115.2373 26.1326 115.6843 26.1326 116.2373L26.1326 116.7473C26.1326 117.3003 25.6846 117.7473 25.1326 117.7473L24.6226 117.7473C24.0706 117.7473 23.6226 118.1943 23.6226 118.7473 23.6226 119.3003 24.0706 119.7473 24.6226 119.7473L25.1326 119.7473C25.6846 119.7473 26.1326 120.1953 26.1326 120.7473L26.1326 121.2583C26.1326 121.8103 26.5796 122.2583 27.1326 122.2583 27.6846 122.2583 28.1326 121.8103 28.1326 121.2583L28.1326 120.7473C28.1326 120.1953 28.5806 119.7473 29.1326 119.7473L29.6426 119.7473C30.1946 119.7473 30.6426 119.3003 30.6426 118.7473 30.6426 118.1943 30.1946 117.7473 29.6426 117.7473M146.5073 32.6335L146.5073 32.6335C147.3413 32.6335 148.0173 33.3095 148.0173 34.1435L148.0173 34.1435C148.0173 34.6965 148.4653 35.1435 149.0173 35.1435 149.5693 35.1435 150.0173 34.6965 150.0173 34.1435L150.0173 34.1435C150.0173 33.3095 150.6933 32.6335 151.5273 32.6335L151.5273 32.6335C152.0793 32.6335 152.5273 32.1855 152.5273 31.6335 152.5273 31.0815 152.0793 30.6335 151.5273 30.6335L151.5273 30.6335C150.6933 30.6335 150.0173 29.9575 150.0173 29.1235L150.0173 29.1235C150.0173 28.5715 149.5693 28.1235 149.0173 28.1235 148.4653 28.1235 148.0173 28.5715 148.0173 29.1235L148.0173 29.1235C148.0173 29.9575 147.3413 30.6335 146.5073 30.6335 145.9553 30.6335 145.5073 31.0815 145.5073 31.6335 145.5073 32.1855 145.9553 32.6335 146.5073 32.6335M58.8179 88.8303L57.6349 90.0133C57.2439 90.4033 57.2439 91.0363 57.6349 91.4273 57.8299 91.6223 58.0859 91.7203 58.3419 91.7203 58.5979 91.7203 58.8539 91.6223 59.0489 91.4273L60.2319 90.2443C60.6229 89.8533 60.6229 89.2213 60.2319 88.8303 59.8409 88.4393 59.2089 88.4393 58.8179 88.8303M51.7187 97.3439C51.9137 97.5389 52.1697 97.6369 52.4257 97.6369 52.6817 97.6369 52.9377 97.5389 53.1327 97.3439L54.3157 96.1599C54.7067 95.7699 54.7067 95.1369 54.3157 94.7459 53.9257 94.3559 53.2917 94.3559 52.9017 94.7459L51.7187 95.9299C51.3277 96.3209 51.3277 96.9529 51.7187 97.3439M59.5249 97.6369C59.7809 97.6369 60.0369 97.5389 60.2319 97.3439 60.6229 96.9529 60.6229 96.3209 60.2319 95.9299L59.0489 94.7459C58.6579 94.3559 58.0249 94.3559 57.6349 94.7459 57.2439 95.1369 57.2439 95.7699 57.6349 96.1599L58.8179 97.3439C59.0129 97.5389 59.2689 97.6369 59.5249 97.6369M52.9018 91.427C53.0968 91.622 53.3528 91.72 53.6088 91.72 53.8648 91.72 54.1208 91.622 54.3158 91.427 54.7068 91.036 54.7068 90.404 54.3158 90.013L53.1328 88.83C52.7418 88.44 52.1088 88.44 51.7188 88.83 51.3278 89.221 51.3278 89.854 51.7188 90.244L52.9018 91.427zM40.6714 40.196C41.5044 40.196 42.1814 40.873 42.1814 41.706 42.1814 42.538 41.5044 43.216 40.6714 43.216 39.8384 43.216 39.1614 42.538 39.1614 41.706 39.1614 40.873 39.8384 40.196 40.6714 40.196M40.6714 45.216C42.6074 45.216 44.1814 43.641 44.1814 41.706 44.1814 39.771 42.6074 38.196 40.6714 38.196 38.7364 38.196 37.1614 39.771 37.1614 41.706 37.1614 43.641 38.7364 45.216 40.6714 45.216"/>
    </g>
    <rect width="256" height="212" y="1"/>
  </g>
</svg>
