<svg width="134" height="65" viewBox="0 0 134 65" fill="none" xmlns="http://www.w3.org/2000/svg">
<g clip-path="url(#clip0_902_41479)">
<path d="M76.8842 51.0308H76.8812L75.5594 51.4522L40.3593 62.6347L39.2151 62.9994H39.2121L27 38.9725L59.2224 28.7346L60.4388 28.349H60.4418L64.6721 27.0039L69.7484 36.9937L70.0706 37.6274L70.7209 38.9037L71.1966 39.8394L76.8842 51.0308Z" fill="url(#paint0_linear_902_41479)"/>
<path d="M76.8814 51.0308L75.5596 51.4523L60.5986 47.4587L56.8229 46.4454L56.7115 46.4185L54.1914 45.746L53.9566 45.6832L51.9664 45.1511L50.9878 46.6218L50.8704 46.8011L49.5818 48.753L49.5487 48.8039L47.4982 51.8917L40.3595 62.6347L39.2153 62.9994L46.7756 51.6167L48.9164 48.3914L48.9405 48.3555L50.4248 46.1226L50.4549 46.0777L51.301 44.8014L51.4877 44.5204C51.5295 44.4525 51.5921 44.3997 51.6663 44.3696C51.7405 44.3395 51.8224 44.3337 51.9001 44.353L52.8034 44.5981L53.9445 44.897H53.9716L56.8801 45.6742L57.0006 45.7071L60.8153 46.7443L76.8814 51.0308Z" fill="#B9BBBE"/>
<path d="M60.4418 28.3488L59.2374 28.7344L27 38.9723L43.6471 42.9658L46.6399 43.6832L46.9772 43.7639L49.8826 44.4604H49.9368L51.3068 44.7892L52.5111 45.0881L52.8333 44.6098L53.3873 43.7549L54.7422 41.7402L54.8777 41.5399L56.5186 39.1038L60.2641 33.541L61.1463 32.2317L64.6721 27.0156L60.4418 28.3488Z" fill="#E3E5E8"/>
<path d="M82.9751 34.7881C82.9751 34.7881 67.8484 39.8906 66.4153 40.3688C65.5572 40.6678 64.9851 40.7664 64.5907 40.6678C64.4602 40.6433 64.3374 40.5882 64.2327 40.507C64.1279 40.4259 64.0442 40.3212 63.9885 40.2014C63.7808 39.8099 59.2705 31.7481 58.9573 31.1413C58.5719 30.394 59.4029 29.4973 60.5501 28.2358C60.9867 27.7576 70.486 25.2168 70.486 25.2168L80.5604 32.9169L82.9751 34.7881Z" fill="#ED5F00"/>
<path d="M82.975 34.7892C82.975 34.7892 67.8483 39.8917 66.4152 40.3699C65.5571 40.6689 64.985 40.7675 64.5906 40.6689C63.9041 40.1577 65.4697 38.6153 65.4697 38.6153L80.5572 32.918L82.975 34.7892Z" fill="black"/>
<path d="M84.4897 34.0657C84.3819 34.3695 84.2363 34.6587 84.0562 34.9266C83.5733 35.6368 82.8622 36.1637 82.0389 36.4212L81.4969 36.5826C75.7492 38.4508 69.5197 40.3071 68.0684 40.872C67.7356 41.0124 67.3791 41.0895 67.0176 41.0992C66.7131 41.0994 66.4154 41.0097 66.1623 40.8415C65.9093 40.6733 65.7123 40.4342 65.5965 40.1546C65.3285 39.6494 59.2737 28.8705 58.8883 28.0754C58.3433 26.9515 60.2913 24.7455 61.0742 24.4346C61.857 24.1238 74.9964 20.3574 74.9964 20.3574C74.9964 20.3574 82.8247 29.4385 84.568 32.7684C84.7114 33.1947 84.6833 33.6595 84.4897 34.0657Z" fill="#FFC619"/>
<path d="M84.4897 34.0656C84.3819 34.3694 84.2362 34.6586 84.0561 34.9265C83.5732 35.6368 82.8621 36.1636 82.0388 36.4211L81.4968 36.5825C75.7491 38.4507 69.5196 40.307 68.0683 40.8719C67.7355 41.0123 67.3791 41.0894 67.0176 41.0991C66.6322 40.9915 66.9092 40.2024 67.2253 39.6793C67.5414 39.1562 68.3514 38.1847 69.2125 37.9097C73.9727 36.3225 81.5571 33.8235 84.589 32.8281C84.7004 33.2397 84.6653 33.6768 84.4897 34.0656Z" fill="black"/>
<path d="M111.109 29.5214C107.908 26.583 103.039 22.5925 103.039 22.5925L100.164 15.3856L97.7132 16.3422L98.8995 15.4783C98.8995 15.4783 98.7098 7.70649 95.5213 5.7456C93.6937 4.62168 92.125 4.35564 89.8006 4.10156L86.6783 20.6585L82.0536 22.467L79.2144 28.0776C79.2144 28.0776 80.8101 30.9352 83.0412 32.9111C85.2722 34.8869 88.0422 34.3608 89.8217 34.3309C89.8217 34.3309 93.8743 38.1331 97.2495 40.8144C98.6676 41.9443 100.525 41.7769 102.022 41.0924C105.611 39.4513 109.148 36.3815 110.284 35.1559C112.587 32.6719 112.238 30.5556 111.109 29.5214Z" fill="url(#paint1_linear_902_41479)"/>
<path d="M92.6369 21.9106C92.5427 21.9112 92.4517 21.8767 92.3819 21.8139C92.3122 21.7511 92.2686 21.6646 92.2599 21.5715C92.2512 21.4784 92.278 21.3854 92.335 21.311C92.3919 21.2365 92.475 21.186 92.5676 21.1693L98.77 20.0334C98.8187 20.0246 98.8686 20.0254 98.9169 20.0357C98.9653 20.046 99.0111 20.0657 99.0518 20.0936C99.0924 20.1215 99.1272 20.157 99.154 20.1983C99.1808 20.2395 99.1992 20.2856 99.2081 20.3339C99.217 20.3821 99.2163 20.4317 99.2059 20.4797C99.1955 20.5277 99.1757 20.5731 99.1476 20.6135C99.1195 20.6539 99.0836 20.6884 99.0421 20.7151C99.0006 20.7417 98.9542 20.7599 98.9055 20.7688L92.7031 21.9047L92.6369 21.9106Z" fill="#D11583"/>
<path d="M91.9296 11.8789C91.8424 11.8798 91.7577 11.8504 91.69 11.7958C91.6224 11.7412 91.5761 11.6649 91.5592 11.58C91.5592 11.5531 91.0715 8.90765 90.8336 7.99296C90.8093 7.89664 90.8244 7.79466 90.8758 7.70945C90.9272 7.62425 91.0106 7.56279 91.1076 7.53861C91.2046 7.51443 91.3074 7.52951 91.3932 7.58052C91.479 7.63153 91.5409 7.7143 91.5653 7.81063C91.8061 8.76118 92.2788 11.3498 92.2999 11.4604C92.3175 11.5575 92.2957 11.6575 92.2393 11.7387C92.1829 11.8199 92.0965 11.8756 91.9988 11.8938L91.9296 11.8789Z" fill="#D11583"/>
<path d="M99.5439 6.19934C101.811 4.74661 104.906 4.51644 106.899 7.50859C108.893 10.5007 108.161 12.9877 105.59 14.6138C103.898 15.6809 78.9676 29.5596 75.6797 30.9555C73.7678 31.7596 71.9794 31.6102 70.8623 29.8047C69.5887 27.7332 69.7814 26.0354 71.6662 24.6992C73.1837 23.6261 96.25 8.31865 99.5439 6.19934Z" fill="#FFE75C"/>
<path d="M91.7881 14.2853C91.7439 15.1865 91.4103 16.05 90.8359 16.7493C90.2616 17.4486 89.4768 17.9469 88.5965 18.1712L89.0391 18.9693C90.674 22.7148 91.0384 23.3245 88.9338 25.0164C88.6327 25.2645 87.5849 25.8683 86.8502 26.3107C86.4106 26.5738 85.9259 26.8488 85.4261 27.0998C84.9011 27.3754 84.3556 27.6102 83.7942 27.8023C80.985 28.7319 76.8511 30.0501 73.2049 23.1004C71.7597 20.3444 72.3529 18.5598 73.6927 16.862C75.3698 14.7367 79.4134 11.3679 80.5184 10.5549C80.7502 10.3815 81.2199 8.16354 82.1563 6.60618C83.0927 5.04883 84.5078 3.59909 89.7979 4.10426C89.7979 4.10426 91.9055 11.3829 91.7881 14.2853Z" fill="url(#paint2_linear_902_41479)"/>
<path d="M86.5372 19.0927C86.4793 19.0932 86.4221 19.0805 86.3699 19.0556C86.3177 19.0308 86.2719 18.9944 86.2361 18.9492C86.1427 18.8297 83.9358 16.0049 82.349 11.279C82.3218 11.1863 82.3318 11.0866 82.377 11.001C82.4222 10.9154 82.499 10.8505 82.5913 10.82C82.6837 10.7894 82.7844 10.7955 82.8722 10.8371C82.9601 10.8787 83.0284 10.9524 83.0626 11.0429C84.6072 15.6372 86.8051 18.459 86.8292 18.4889C86.8597 18.5274 86.8823 18.5716 86.8955 18.6189C86.9087 18.6661 86.9123 18.7155 86.9061 18.7642C86.9 18.8128 86.8841 18.8598 86.8596 18.9023C86.835 18.9449 86.8022 18.9821 86.763 19.012C86.6988 19.063 86.6194 19.0914 86.5372 19.0927Z" fill="#D11583"/>
<path d="M86.85 26.3048C86.4104 26.5679 85.9257 26.8429 85.4259 27.094C83.7759 26.8877 82.5354 25.8625 81.6743 25.0016C79.1121 22.4578 77.158 17.3972 77.0647 17.1849C77.0471 17.139 77.0388 17.0901 77.0402 17.041C77.0416 16.9918 77.0528 16.9435 77.0731 16.8987C77.0934 16.8538 77.1223 16.8134 77.1583 16.7797C77.1943 16.746 77.2367 16.7196 77.283 16.7022C77.3292 16.6847 77.3785 16.6765 77.428 16.6779C77.4774 16.6793 77.5261 16.6904 77.5713 16.7106C77.6164 16.7307 77.6572 16.7594 77.6911 16.7952C77.7251 16.8309 77.7516 16.873 77.7692 16.9189C77.7873 16.9697 79.7594 22.0453 82.2072 24.4755C83.7879 26.0478 85.2271 26.6157 86.85 26.3048Z" fill="#D11583"/>
<path d="M85.6098 20.1776C86.6154 22.1713 91.2521 21.3732 95.5818 20.599C97.7376 20.2164 99.3273 19.9265 99.3273 19.9265L103.928 23.8602C104.792 22.3058 106.939 17.9895 105.858 15.7895C102.847 9.71251 100.532 8.98315 97.9754 9.73044C95.3469 10.5076 90.4061 12.7884 87.1182 14.8808C84.3332 16.6533 84.4446 17.858 85.6098 20.1776Z" fill="#FF78B9"/>
<g clip-path="url(#clip1_902_41479)">
<path d="M49.7621 38.7371C52.83 37.5987 56.1798 38.9613 57.2422 41.7814C57.64 42.8424 57.6739 44.0041 57.3387 45.0875C57.1952 45.5625 56.9882 46.0165 56.7232 46.4373C56.5079 46.787 56.2553 47.1127 55.9694 47.4086C55.6584 47.7331 55.3126 48.0228 54.9379 48.2727C54.1054 48.8263 53.1539 49.1794 52.1596 49.3036C51.7116 49.359 51.2591 49.3655 50.8098 49.3231C50.3985 49.2859 49.9925 49.2046 49.5989 49.0808C49.1207 48.9357 48.6643 48.7278 48.242 48.4629C47.2728 47.8634 46.5305 46.9646 46.1292 45.9049C45.0668 43.0848 46.6941 39.8755 49.7621 38.7371Z" fill="#F9A83D"/>
<path fill-rule="evenodd" clip-rule="evenodd" d="M48.2338 48.4654C47.2637 47.8664 46.5208 46.9678 46.1196 45.9082L46.5635 47.0864C46.9614 48.1368 47.6952 49.0291 48.6536 49.6278L48.2231 48.485L48.2338 48.4654ZM57.2496 41.7784C57.6473 42.8394 57.6806 44.0012 57.3445 45.0849L57.3656 45.0927L57.7961 46.2355C58.1236 45.1596 58.0875 44.0085 57.6935 42.9567L57.2496 41.7784ZM57.7961 46.2356L57.3656 45.0928L57.3445 45.085C57.2005 45.56 56.9929 46.0142 56.7274 46.4352L56.7274 46.4352C56.5116 46.7851 56.2586 47.1109 55.9721 47.407L55.9721 47.407C55.6605 47.7317 55.314 48.0217 54.9387 48.2717L55.3693 49.4146L55.3898 49.445C55.7632 49.1956 56.1077 48.9065 56.4172 48.5826C56.7062 48.2845 56.9616 47.9564 57.179 47.6039C57.4461 47.1772 57.6537 46.7169 57.7961 46.2356ZM55.3898 49.445C54.9724 49.7236 54.5233 49.9525 54.052 50.1272C53.5808 50.3022 53.0906 50.4218 52.5914 50.4833C52.1447 50.5383 51.6935 50.5443 51.2459 50.5014C50.8309 50.4637 50.4213 50.3823 50.024 50.2587L49.5868 49.0982L49.5922 49.0827C49.9863 49.2063 50.3928 49.2874 50.8046 49.3244L50.8046 49.3244C51.2545 49.3666 51.7076 49.3598 52.1562 49.3042C52.6524 49.2429 53.1399 49.1237 53.6081 48.949C54.077 48.776 54.5237 48.5486 54.9387 48.2718L55.3692 49.4146L55.3898 49.445ZM48.2339 48.4655C48.6566 48.7302 49.1134 48.9378 49.5922 49.0827L49.5868 49.0982L50.024 50.2587C49.5404 50.1107 49.0794 49.8984 48.6537 49.6279L48.2231 48.4851L48.2339 48.4655Z" fill="#FFD06C"/>
<path d="M56.0502 42.2247C55.2328 40.0549 52.6159 39.0211 50.2052 39.9156C47.7945 40.81 46.503 43.2941 47.3204 45.4639C48.1379 47.6337 50.7548 48.6675 53.1655 47.773C55.5761 46.8785 56.8677 44.3945 56.0502 42.2247Z" fill="#FFD06C"/>
<path d="M54.9959 42.5998C55.6206 44.2579 54.6659 46.1791 52.8098 46.8678C50.9536 47.5565 48.9631 46.7281 48.3384 45.07C47.7137 43.4119 48.6684 41.4907 50.5245 40.802C52.3807 40.1133 54.3712 40.9417 54.9959 42.5998Z" stroke="#FEBC1F" stroke-width="1.25"/>
<path d="M53.021 42.8289C52.978 42.7752 52.9067 42.7521 52.8396 42.7705L51.9276 43.0187L51.275 42.342C51.227 42.2924 51.154 42.2759 51.0889 42.3001C51.0238 42.3242 50.9796 42.3842 50.9762 42.453L50.9311 43.3885L50.0784 43.795C50.0159 43.825 49.9774 43.8886 49.9803 43.9571C49.9832 44.0257 50.027 44.0858 50.092 44.1099L50.9764 44.4399L51.102 45.3681C51.1113 45.4363 51.1605 45.4921 51.2275 45.5102C51.2636 45.52 51.3007 45.5179 51.3342 45.5055C51.3631 45.4948 51.3889 45.4765 51.4089 45.4517L52.0007 44.7203L52.9306 44.8871C52.9988 44.8995 53.0678 44.8704 53.1063 44.8131C53.1449 44.7557 53.1451 44.6815 53.1071 44.6241L52.5883 43.8418L53.0376 43.017C53.0707 42.9565 53.0642 42.8826 53.021 42.8289Z" fill="#F9A83D"/>
<path d="M48.6908 49.4013C49.0441 49.0979 49.5773 49.1345 49.883 49.483C49.7304 49.309 49.6635 49.0893 49.6785 48.8763C49.6946 48.6634 49.7928 48.455 49.9691 48.3036C49.7928 48.455 49.5704 48.5218 49.3551 48.5076C49.1399 48.4923 48.9295 48.3958 48.7769 48.2218C48.9295 48.3958 48.9964 48.6156 48.9814 48.8285C48.9653 49.0414 48.8671 49.2499 48.6908 49.4013Z" fill="white"/>
</g>
</g>
<path d="M133.545 7.06246C132.906 6.62237 132.362 6.04107 131.949 5.35736C131.536 4.67365 131.263 3.90325 131.15 3.09757L130.753 0.286525C130.746 0.217443 130.715 0.15369 130.666 0.108415C130.625 0.0511899 130.566 0.0124865 130.5 0C130.436 0.00601643 130.376 0.0330663 130.327 0.0774392C130.282 0.125228 130.254 0.188141 130.247 0.255549L129.843 3.09757C129.734 3.90872 129.463 4.68514 129.049 5.37428C128.632 6.05159 128.086 6.62682 127.447 7.06246L127.108 7.29478C127.072 7.32033 127.042 7.35487 127.021 7.39545C126.993 7.48052 126.993 7.57367 127.021 7.65874C127.042 7.69932 127.072 7.73387 127.108 7.75941L127.447 7.99173C128.089 8.43634 128.635 9.02237 129.049 9.71088C129.463 10.4 129.734 11.1764 129.843 11.9876L130.247 14.7677C130.256 14.834 130.287 14.8947 130.334 14.938C130.381 14.9787 130.44 15.0007 130.5 15C130.56 14.9994 130.618 14.9777 130.666 14.938C130.713 14.8947 130.744 14.834 130.753 14.7677L131.15 11.9876C131.259 11.1764 131.53 10.4 131.943 9.71064C132.357 9.02131 132.903 8.43515 133.545 7.99173L133.892 7.75941C133.928 7.73387 133.958 7.69932 133.979 7.65874C134.007 7.57367 134.007 7.48052 133.979 7.39545C133.958 7.35487 133.928 7.32033 133.892 7.29478L133.545 7.06246Z" fill="#2D5F7B"/>
<path d="M32.6754 10.7083C32.2188 10.4149 31.83 10.0274 31.5349 9.57157C31.2398 9.11577 31.0452 8.60217 30.9639 8.06505L30.6804 6.19102C30.6757 6.14496 30.6536 6.10246 30.6186 6.07228C30.5895 6.03413 30.5472 6.00832 30.5 6C30.4544 6.00401 30.4112 6.02204 30.3763 6.05163C30.3443 6.08349 30.3243 6.12543 30.3196 6.17037L30.0309 8.06505C29.9526 8.60581 29.7592 9.12342 29.4639 9.58286C29.1656 10.0344 28.7757 10.4179 28.3195 10.7083L28.0772 10.8632C28.0515 10.8802 28.0303 10.9032 28.0154 10.9303C27.9949 10.987 27.9949 11.0491 28.0154 11.1058C28.0303 11.1329 28.0515 11.1559 28.0772 11.1729L28.3195 11.3278C28.7778 11.6242 29.1679 12.0149 29.4639 12.4739C29.7592 12.9334 29.9526 13.451 30.0309 13.9917L30.3196 15.8451C30.3255 15.8893 30.3475 15.9298 30.3814 15.9587C30.415 15.9858 30.4569 16.0004 30.5 16C30.543 15.9996 30.5846 15.9851 30.6186 15.9587C30.6525 15.9298 30.6745 15.8893 30.6804 15.8451L30.9639 13.9917C31.0424 13.4509 31.2357 12.9333 31.531 12.4738C31.8262 12.0142 32.2164 11.6234 32.6754 11.3278L32.9228 11.1729C32.9485 11.1559 32.9697 11.1329 32.9846 11.1058C33.0051 11.0491 33.0051 10.987 32.9846 10.9303C32.9697 10.9032 32.9485 10.8802 32.9228 10.8632L32.6754 10.7083Z" fill="#2D5F7B"/>
<path d="M115.624 57.0382C115.073 56.5957 114.604 56.0101 114.249 55.3211C113.894 54.632 113.662 53.8554 113.567 53.0441L113.228 50.2556C113.22 50.1861 113.193 50.1223 113.152 50.075C113.133 50.0512 113.11 50.0324 113.085 50.0195C113.061 50.0066 113.034 50 113.007 50C112.981 50 112.954 50.0066 112.929 50.0195C112.904 50.0324 112.882 50.0512 112.863 50.075C112.823 50.1228 112.797 50.1867 112.791 50.2556L112.447 53.0441C112.349 53.8533 112.117 54.6278 111.765 55.3173C111.41 56.0078 110.942 56.5947 110.39 57.0382L110.093 57.2719C110.063 57.2984 110.039 57.3353 110.025 57.3782C110.008 57.419 109.999 57.4647 110 57.5109C110 57.5554 110.009 57.5993 110.025 57.6384C110.039 57.6813 110.063 57.7182 110.093 57.7446L110.39 57.9783C110.941 58.4233 111.409 59.0099 111.765 59.6992C112.117 60.3887 112.349 61.1632 112.447 61.9725L112.791 64.761C112.798 64.8265 112.824 64.8867 112.863 64.931C112.904 64.9738 112.954 64.9981 113.007 65C113.061 65 113.112 64.9754 113.152 64.931C113.194 64.8888 113.221 64.8279 113.228 64.761L113.567 61.9725C113.662 61.1611 113.894 60.3846 114.249 59.6955C114.604 59.0064 115.073 58.4208 115.624 57.9783L115.921 57.7446C115.952 57.717 115.977 57.6806 115.993 57.6384C116.002 57.5966 116.002 57.5528 115.993 57.5109C116.002 57.4674 116.002 57.4217 115.993 57.3782C115.977 57.336 115.952 57.2995 115.921 57.2719L115.624 57.0382Z" fill="#2D5F7B"/>
<path d="M10.3114 47.3843C9.30066 46.7943 8.44088 46.0135 7.7902 45.0947C7.13953 44.1759 6.71314 43.1406 6.53989 42.0587L5.9178 38.3408C5.90319 38.2482 5.85371 38.163 5.77782 38.1C5.74314 38.0683 5.70194 38.0431 5.65656 38.026C5.61119 38.0088 5.56256 38 5.51343 38C5.4643 38 5.41565 38.0088 5.37028 38.026C5.32491 38.0431 5.28372 38.0683 5.24904 38.1C5.1755 38.1637 5.12874 38.2489 5.11685 38.3408L4.48696 42.0587C4.30738 43.1378 3.88084 44.1705 3.23498 45.0898C2.58559 46.0103 1.72632 46.7929 0.715487 47.3843L0.171152 47.6959C0.115489 47.7311 0.0722622 47.7803 0.0467292 47.8375C0.01483 47.892 -0.00123102 47.9529 7.35882e-05 48.0146C-0.0002523 48.0739 0.0157893 48.1323 0.0467292 48.1845C0.0722622 48.2417 0.115489 48.2909 0.171152 48.3262L0.715487 48.6378C1.72465 49.2311 2.58352 50.0133 3.23498 50.9323C3.88084 51.8516 4.30738 52.8843 4.48696 53.9633L5.11685 57.6813C5.13031 57.7687 5.17711 57.8489 5.24904 57.9079C5.32314 57.9651 5.41638 57.9975 5.51343 58C5.611 58 5.70512 57.9672 5.77782 57.9079C5.85496 57.8518 5.90515 57.7705 5.9178 57.6813L6.53989 53.9633C6.71314 52.8815 7.13953 51.8461 7.7902 50.9273C8.44088 50.0086 9.30066 49.2278 10.3114 48.6378L10.8557 48.3262C10.9117 48.2894 10.957 48.2408 10.9879 48.1845C11.0034 48.1288 11.0034 48.0704 10.9879 48.0146C11.004 47.9565 11.004 47.8956 10.9879 47.8375C10.957 47.7813 10.9117 47.7327 10.8557 47.6959L10.3114 47.3843Z" fill="#2D5F7B"/>
<defs>
<linearGradient id="paint0_linear_902_41479" x1="56.4464" y1="56.0376" x2="47.6682" y2="34.2144" gradientUnits="userSpaceOnUse">
<stop stop-color="#E3E5E8"/>
<stop offset="1" stop-color="#B9BBBE"/>
</linearGradient>
<linearGradient id="paint1_linear_902_41479" x1="90.454" y1="20.7482" x2="108.3" y2="42.7882" gradientUnits="userSpaceOnUse">
<stop offset="0.43" stop-color="#FF78B9"/>
<stop offset="0.5" stop-color="#FB6FB4"/>
<stop offset="0.78" stop-color="#EF50A5"/>
<stop offset="0.94" stop-color="#EB459F"/>
</linearGradient>
<linearGradient id="paint2_linear_902_41479" x1="79.6693" y1="10.8538" x2="91.3039" y2="29.0388" gradientUnits="userSpaceOnUse">
<stop offset="0.18" stop-color="#FF78B9"/>
<stop offset="0.29" stop-color="#FB6FB4"/>
<stop offset="0.71" stop-color="#EF50A5"/>
<stop offset="0.95" stop-color="#EB459F"/>
</linearGradient>
<clipPath id="clip0_902_41479">
<rect width="85" height="59" fill="white" transform="translate(27 4)"/>
</clipPath>
<clipPath id="clip1_902_41479">
<rect width="11.881" height="12.1709" fill="white" transform="matrix(0.937541 -0.347874 0.352552 0.935792 44.1963 40.8027)"/>
</clipPath>
</defs>
</svg>
