<svg width="151" height="110" viewBox="0 0 151 110" fill="none" xmlns="http://www.w3.org/2000/svg">
<rect width="151" height="110" rx="8" fill="#F2F3F5"/>
<path fill-rule="evenodd" clip-rule="evenodd" d="M49.8408 50.4568C50.3367 50.4634 50.8151 50.2742 51.1725 49.9305C51.5298 49.5867 51.7373 49.1159 51.75 48.6202C51.7375 48.1264 51.5342 47.6567 51.1827 47.3097C50.8312 46.9627 50.3589 46.7654 49.865 46.7593H48.8017C48.3078 46.7654 47.8355 46.9627 47.484 47.3097C47.1325 47.6567 46.9291 48.1264 46.9167 48.6202C46.9293 49.1117 47.1334 49.5788 47.4856 49.9219C47.8377 50.2651 48.31 50.457 48.8017 50.4568H49.8408ZM88.8217 72.8593C91.0996 71.8946 93.1592 70.4795 94.8769 68.6992C96.5945 66.9188 97.9348 64.8098 98.8172 62.4987C99.6997 60.1876 100.106 57.722 100.012 55.2499C99.9184 52.7778 99.3261 50.3502 98.2708 48.1127C96.7602 44.9896 94.4282 42.3366 91.5248 40.4378C88.6213 38.5391 85.2559 37.4663 81.7892 37.3343H62.4558C62.0577 37.2977 61.6562 37.3446 61.2771 37.4718C60.8981 37.5991 60.5497 37.804 60.2543 38.0735C59.9589 38.343 59.7229 38.6711 59.5615 39.0369C59.4 39.4028 59.3167 39.7982 59.3167 40.1981C59.3167 40.598 59.4 40.9934 59.5615 41.3592C59.7229 41.7251 59.9589 42.0532 60.2543 42.3227C60.5497 42.5922 60.8981 42.7971 61.2771 42.9244C61.6562 43.0516 62.0577 43.0985 62.4558 43.0618H67.3617C67.6222 43.032 67.8861 43.0576 68.1361 43.1369C68.386 43.2162 68.6164 43.3474 68.8121 43.522C69.0078 43.6965 69.1644 43.9105 69.2716 44.1498C69.3788 44.3891 69.4342 44.6484 69.4342 44.9106C69.4342 45.1728 69.3788 45.4321 69.2716 45.6714C69.1644 45.9107 69.0078 46.1247 68.8121 46.2992C68.6164 46.4738 68.386 46.605 68.1361 46.6843C67.8861 46.7636 67.6222 46.7892 67.3617 46.7593H55.1575C54.6617 46.7593 54.1859 46.9546 53.8331 47.3029C53.4803 47.6512 53.2789 48.1244 53.2725 48.6202C53.2757 48.8646 53.3269 49.1059 53.4234 49.3305C53.5198 49.555 53.6595 49.7584 53.8346 49.929C54.0096 50.0995 54.2165 50.2339 54.4435 50.3245C54.6705 50.4151 54.9131 50.46 55.1575 50.4568H63.8333C64.0777 50.4568 64.3197 50.505 64.5454 50.5985C64.7712 50.692 64.9764 50.8291 65.1491 51.0019C65.3219 51.1747 65.459 51.3798 65.5525 51.6056C65.646 51.8313 65.6942 52.0733 65.6942 52.3177C65.6942 52.5621 65.646 52.804 65.5525 53.0298C65.459 53.2556 65.3219 53.4607 65.1491 53.6335C64.9764 53.8063 64.7712 53.9434 64.5454 54.0369C64.3197 54.1304 64.0777 54.1785 63.8333 54.1785H58.42C58.1756 54.1753 57.933 54.2203 57.706 54.3109C57.479 54.4014 57.2721 54.5359 57.0971 54.7064C56.922 54.877 56.7823 55.0803 56.6859 55.3049C56.5894 55.5294 56.5382 55.7708 56.535 56.0152C56.5414 56.5109 56.7428 56.9842 57.0956 57.3325C57.4484 57.6808 57.9242 57.8761 58.42 57.876H62.19C62.4098 59.9186 62.9651 61.9109 63.8333 63.7727C66.014 68.2256 69.8356 71.6601 74.4953 73.3545C79.155 75.049 84.2901 74.8715 88.8217 72.8593ZM71.2525 60.3169C70.6582 59.0473 70.3244 57.6715 70.2709 56.2708C70.2174 54.8701 70.4451 53.4728 70.9408 52.1616C71.4364 50.8505 72.1899 49.6519 73.1566 48.6369C74.1233 47.6218 75.2837 46.8108 76.5692 46.2519C79.1651 45.0681 82.1223 44.952 84.8031 45.9285C87.4839 46.9049 89.6735 48.8958 90.9 51.4718C91.4909 52.7419 91.822 54.1173 91.8738 55.5171C91.9257 56.917 91.6973 58.313 91.202 59.6234C90.7067 60.9337 89.9545 62.1318 88.9896 63.1473C88.0247 64.1628 86.8666 64.9752 85.5833 65.5369C82.9865 66.7141 80.0318 66.827 77.3528 65.8511C74.6737 64.8753 72.4838 62.8885 71.2525 60.3169Z" fill="url(#paint0_linear_2971_3434)"/>
<path fill-rule="evenodd" clip-rule="evenodd" d="M49.8408 50.4568C50.3367 50.4634 50.8151 50.2742 51.1725 49.9305C51.5298 49.5867 51.7373 49.1159 51.75 48.6202C51.7375 48.1264 51.5342 47.6567 51.1827 47.3097C50.8312 46.9627 50.3589 46.7654 49.865 46.7593H48.8017C48.3078 46.7654 47.8355 46.9627 47.484 47.3097C47.1325 47.6567 46.9291 48.1264 46.9167 48.6202C46.9293 49.1117 47.1334 49.5788 47.4856 49.9219C47.8377 50.2651 48.31 50.457 48.8017 50.4568H49.8408ZM88.8217 72.8593C91.0996 71.8946 93.1592 70.4795 94.8769 68.6992C96.5945 66.9188 97.9348 64.8098 98.8172 62.4987C99.6997 60.1876 100.106 57.722 100.012 55.2499C99.9184 52.7778 99.3261 50.3502 98.2708 48.1127C96.7602 44.9896 94.4282 42.3366 91.5248 40.4378C88.6213 38.5391 85.2559 37.4663 81.7892 37.3343H62.4558C62.0577 37.2977 61.6562 37.3446 61.2771 37.4718C60.8981 37.5991 60.5497 37.804 60.2543 38.0735C59.9589 38.343 59.7229 38.6711 59.5615 39.0369C59.4 39.4028 59.3167 39.7982 59.3167 40.1981C59.3167 40.598 59.4 40.9934 59.5615 41.3592C59.7229 41.7251 59.9589 42.0532 60.2543 42.3227C60.5497 42.5922 60.8981 42.7971 61.2771 42.9244C61.6562 43.0516 62.0577 43.0985 62.4558 43.0618H67.3617C67.6222 43.032 67.8861 43.0576 68.1361 43.1369C68.386 43.2162 68.6164 43.3474 68.8121 43.522C69.0078 43.6965 69.1644 43.9105 69.2716 44.1498C69.3788 44.3891 69.4342 44.6484 69.4342 44.9106C69.4342 45.1728 69.3788 45.4321 69.2716 45.6714C69.1644 45.9107 69.0078 46.1247 68.8121 46.2992C68.6164 46.4738 68.386 46.605 68.1361 46.6843C67.8861 46.7636 67.6222 46.7892 67.3617 46.7593H55.1575C54.6617 46.7593 54.1859 46.9546 53.8331 47.3029C53.4803 47.6512 53.2789 48.1244 53.2725 48.6202C53.2757 48.8646 53.3269 49.1059 53.4234 49.3305C53.5198 49.555 53.6595 49.7584 53.8346 49.929C54.0096 50.0995 54.2165 50.2339 54.4435 50.3245C54.6705 50.4151 54.9131 50.46 55.1575 50.4568H63.8333C64.0777 50.4568 64.3197 50.505 64.5454 50.5985C64.7712 50.692 64.9764 50.8291 65.1491 51.0019C65.3219 51.1747 65.459 51.3798 65.5525 51.6056C65.646 51.8313 65.6942 52.0733 65.6942 52.3177C65.6942 52.5621 65.646 52.804 65.5525 53.0298C65.459 53.2556 65.3219 53.4607 65.1491 53.6335C64.9764 53.8063 64.7712 53.9434 64.5454 54.0369C64.3197 54.1304 64.0777 54.1785 63.8333 54.1785H58.42C58.1756 54.1753 57.933 54.2203 57.706 54.3109C57.479 54.4014 57.2721 54.5359 57.0971 54.7064C56.922 54.877 56.7823 55.0803 56.6859 55.3049C56.5894 55.5294 56.5382 55.7708 56.535 56.0152C56.5414 56.5109 56.7428 56.9842 57.0956 57.3325C57.4484 57.6808 57.9242 57.8761 58.42 57.876H62.19C62.4098 59.9186 62.9651 61.9109 63.8333 63.7727C66.014 68.2256 69.8356 71.6601 74.4953 73.3545C79.155 75.049 84.2901 74.8715 88.8217 72.8593ZM71.2525 60.3169C70.6582 59.0473 70.3244 57.6715 70.2709 56.2708C70.2174 54.8701 70.4451 53.4728 70.9408 52.1616C71.4364 50.8505 72.1899 49.6519 73.1566 48.6369C74.1233 47.6218 75.2837 46.8108 76.5692 46.2519C79.1651 45.0681 82.1223 44.952 84.8031 45.9285C87.4839 46.9049 89.6735 48.8958 90.9 51.4718C91.4909 52.7419 91.822 54.1173 91.8738 55.5171C91.9257 56.917 91.6973 58.313 91.202 59.6234C90.7067 60.9337 89.9545 62.1318 88.9896 63.1473C88.0247 64.1628 86.8666 64.9752 85.5833 65.5369C82.9865 66.7141 80.0318 66.827 77.3528 65.8511C74.6737 64.8753 72.4838 62.8885 71.2525 60.3169Z" fill="url(#paint1_linear_2971_3434)"/>
<path d="M84.5683 49.5142H77.6325C77.5171 49.5127 77.4032 49.5409 77.3016 49.5958C77.2001 49.6508 77.1143 49.7309 77.0525 49.8284L73.5 55.6284C73.4408 55.7357 73.4097 55.8562 73.4097 55.9788C73.4097 56.1014 73.4408 56.2219 73.5 56.3292L77.0525 62.25C77.1094 62.3537 77.1935 62.44 77.2956 62.4995C77.3978 62.5591 77.5142 62.5898 77.6325 62.5884H84.5683C84.6866 62.5898 84.803 62.5591 84.9052 62.4995C85.0074 62.44 85.0914 62.3537 85.1483 62.25L88.6042 56.45C88.6634 56.3428 88.6945 56.2222 88.6945 56.0996C88.6945 55.9771 88.6634 55.8565 88.6042 55.7492L85.1483 49.9492C85.1029 49.8292 85.0242 49.7245 84.9215 49.6475C84.8188 49.5705 84.6963 49.5242 84.5683 49.5142Z" fill="#C5CEDD"/>
<path d="M84.5683 49.5142H77.6325C77.5171 49.5127 77.4032 49.5409 77.3016 49.5958C77.2001 49.6508 77.1143 49.7309 77.0525 49.8284L73.5 55.6284C73.4408 55.7357 73.4097 55.8562 73.4097 55.9788C73.4097 56.1014 73.4408 56.2219 73.5 56.3292L77.0525 62.25C77.1094 62.3537 77.1935 62.44 77.2956 62.4995C77.3978 62.5591 77.5142 62.5898 77.6325 62.5884H84.5683C84.6866 62.5898 84.803 62.5591 84.9052 62.4995C85.0074 62.44 85.0914 62.3537 85.1483 62.25L88.6042 56.45C88.6634 56.3428 88.6945 56.2222 88.6945 56.0996C88.6945 55.9771 88.6634 55.8565 88.6042 55.7492L85.1483 49.9492C85.1029 49.8292 85.0242 49.7245 84.9215 49.6475C84.8188 49.5705 84.6963 49.5242 84.5683 49.5142Z" fill="url(#paint2_linear_2971_3434)"/>
<defs>
<linearGradient id="paint0_linear_2971_3434" x1="98.6739" y1="37.3223" x2="45.071" y2="40.2065" gradientUnits="userSpaceOnUse">
<stop offset="0.155516" stop-color="#007CC2"/>
<stop offset="0.523438" stop-color="#1776CF"/>
<stop offset="1" stop-color="#5865F2"/>
</linearGradient>
<linearGradient id="paint1_linear_2971_3434" x1="46.9167" y1="37.3223" x2="101.505" y2="44.2383" gradientUnits="userSpaceOnUse">
<stop stop-color="#8547C6"/>
<stop offset="0.348958" stop-color="#5C46F8"/>
<stop offset="0.791667" stop-color="#B845C1"/>
</linearGradient>
<linearGradient id="paint2_linear_2971_3434" x1="73.4097" y1="49.5142" x2="89.2026" y2="51.152" gradientUnits="userSpaceOnUse">
<stop stop-color="#8547C6"/>
<stop offset="0.348958" stop-color="#5C46F8"/>
<stop offset="0.791667" stop-color="#B845C1"/>
</linearGradient>
</defs>
</svg>
