<svg width="440" height="200" viewBox="0 0 440 200" fill="none" xmlns="http://www.w3.org/2000/svg">
<rect y="12" width="440" height="176" rx="4" fill="url(#paint0_linear_0_1)"/>
<path d="M4 12C1.79086 12 0 13.7909 0 16V87.7111C0 89.0292 0.644578 90.2711 1.75757 90.9773C19.6029 102.3 40.6908 102.01 54.593 95.3775C74.7698 85.8079 78.9758 61.6391 58.8478 45.7384C50.2069 38.7483 44.7223 29.0027 45.9176 20.7172C46.434 17.1376 44.0823 12 40.4657 12H4Z" fill="#3442D9"/>
<path d="M440 44.2244C440 42.4907 438.885 40.9507 437.228 40.4399C387.67 25.1621 330.882 28.8097 301.274 66.4895C271.113 104.874 240.425 106.271 206.014 93.988C172.008 81.8488 55.3406 98.3422 74.0098 184.887C74.3973 186.683 76.0228 188 77.8605 188H436C438.209 188 440 186.209 440 184V44.2244Z" fill="#3442D9"/>
<path d="M397.403 63.2537C395.463 62.0597 394.269 60.2687 393.97 58.0299L393.373 54.2985C393.373 54.1493 393.224 54 392.925 54C392.776 54 392.627 54.1493 392.627 54.2985L392.03 58.0299C391.731 60.2687 390.537 62.0597 388.597 63.2537L388.149 63.5522C388 63.7015 388 63.8507 388 64C388 64.1493 388 64.1493 388.149 64.2985L388.597 64.597C390.537 65.791 391.731 67.5821 392.03 69.8209L392.627 73.5522C392.627 73.8507 392.776 74 392.925 74C393.224 74 393.373 73.8507 393.373 73.5522L393.97 69.8209C394.269 67.5821 395.463 65.791 397.403 64.597L397.851 64.2985C398 64.1493 398 64.1493 398 64C398 63.8507 398 63.7015 397.851 63.5522L397.403 63.2537Z" fill="#57F287"/>
<path d="M33.5187 49.0519C30.5557 47.1556 28.5409 44.0741 27.9483 40.5185L27.1187 34.4741C27.0001 34.237 26.7631 34 26.5261 34C26.289 34 25.9335 34.237 25.9335 34.4741L24.9853 40.5185C24.5112 44.0741 22.4964 47.1556 19.5335 49.0519L18.7038 49.5259C18.5853 49.6444 18.4668 49.8815 18.4668 50C18.4668 50.1185 18.5853 50.3556 18.7038 50.4741L19.5335 50.9481C22.4964 52.8444 24.5112 55.9259 24.9853 59.4815L25.9335 65.4074C25.9335 65.763 26.1705 66 26.5261 66C26.7631 66 27.0001 65.763 27.1187 65.4074L27.9483 59.4815C28.4224 55.9259 30.4372 52.8444 33.5187 50.9481L34.2298 50.4741C34.3483 50.3556 34.4668 50.237 34.4668 50C34.4668 49.763 34.3483 49.6444 34.2298 49.5259L33.5187 49.0519Z" fill="#8CD9FF"/>
<path d="M300.628 164.106C299.09 163.2 298.013 161.691 297.705 159.879L297.244 156.86C297.244 156.71 297.09 156.559 296.936 156.559C296.782 156.559 296.628 156.71 296.628 156.86L296.167 159.879C296.013 161.691 294.936 163.2 293.398 164.106L292.936 164.408C292.782 164.559 292.782 164.559 292.782 164.71V165.011H293.244C294.782 165.917 295.859 167.577 296.013 169.389L296.475 172.408C296.475 172.559 296.628 172.559 296.782 172.559C296.936 172.559 297.09 172.559 297.09 172.408L297.551 169.389C297.859 167.577 298.936 166.068 300.475 165.011H300.782V164.71C300.782 164.559 300.782 164.408 300.628 164.408V164.106Z" fill="#808AFF"/>
<path d="M232.642 35.4003C231.478 34.6839 230.761 33.5197 230.582 32.1765L230.224 30.0272C230.224 29.8481 230.134 29.7585 229.955 29.7585C229.866 29.7585 229.776 29.8481 229.776 30.0272L229.418 32.1765C229.239 33.5197 228.522 34.6839 227.358 35.4003L227.09 35.5794C227 35.669 227 35.669 227 35.7585C227 35.8481 227 35.9376 227.09 35.9376L227.358 36.2063C228.522 36.9227 229.239 37.9974 229.418 39.3406L229.776 41.5794C229.776 41.669 229.866 41.7585 229.955 41.7585C230.134 41.7585 230.224 41.669 230.224 41.5794L230.582 39.3406C230.761 37.9974 231.478 36.9227 232.642 36.2063L232.91 35.9376C233 35.8481 233 35.8481 233 35.7585C233 35.669 232.91 35.669 232.91 35.5794L232.642 35.4003Z" fill="#FFE75C"/>
<defs>
<linearGradient id="paint0_linear_0_1" x1="220" y1="12" x2="220" y2="188" gradientUnits="userSpaceOnUse">
<stop stop-color="#3442D9"/>
<stop offset="1" stop-color="#5865F2"/>
</linearGradient>
</defs>
</svg>
