<svg height="165" viewBox="0 0 280 165" width="280" xmlns="http://www.w3.org/2000/svg" xmlns:xlink="http://www.w3.org/1999/xlink"><mask id="a" fill="#fff"><path d="m0 131.539v-131.155h234.499v131.155z" fill="#fff" fill-rule="evenodd"/></mask><g fill="none" fill-rule="evenodd"><g transform="translate(22 6)"><path d="m33.6654 131.5389h172.169c15.831 0 28.665-12.834 28.665-28.666 0-15.831-12.834-28.665-28.665-28.665h-15.526c-20.386 0-36.912-16.526-36.912-36.912s-16.526-36.912-36.912-36.912h-24.721c-17.625 0-31.912 14.287-31.912 31.912v5.727c0 14.461-11.724 26.185-26.186 26.185-18.593 0-33.666 15.073-33.666 33.665 0 18.594 15.073 33.666 33.666 33.666" fill="#4f545c" fill-opacity=".3" mask="url(#a)" transform="translate(0 .616)"/><path d="m96.229 104.824h10v-10h-10z" fill="#36393f"/><path d="m96.229 82.824h10v-6h-10z" fill="#72767d"/><path d="m28.229 82.824h10v-6h-10z" fill="#36393f"/><path d="m96.229 69.824h10v-6h-10z" fill="#4f545c"/><path d="m28.229 69.824h10v-6h-10z" fill="#36393f"/><path d="m28.229 104.824h10v-10h-10z" fill="#72767d"/><g transform="translate(9 10.616)"><path d="m96.2294 41.7079c.551 0 1 .448 1 1s-.449 1-1 1h-76c-.551 0-1-.448-1-1s.449-1 1-1z" fill="#36393f"/><path d="m53.229 59.208h10v-6h-10z" fill="#72767d"/><path d="m53.229 72.208h10v-6h-10z" fill="#72767d"/><path d="m36.229 59.208h10v-6h-10z" fill="#4f545c"/><path d="m53.229 94.208h10v-10h-10z" fill="#4f545c"/><path d="m70.229 72.208h10v-6h-10z" fill="#4f545c"/><path d="m70.229 59.208h10v-6h-10z" fill="#36393f"/><path d="m70.229 94.208h10v-10h-10z" fill="#72767d"/><path d="m36.229 94.208h10v-10h-10z" fill="#72767d"/><path d="m36.229 72.208h10v-6h-10z" fill="#36393f"/><path d="m179.3554 23.7079c0-1.654-1.346-3-3-3h-3.8c.634.838 1.025 1.87 1.025 3v45c0 1.642-.806 3.088-2.031 4h1.031v-1h3.775c1.654 0 3-1.346 3-3z" fill="#36393f"/><g fill="#72767d"><path d="m39.729 121.539h3v-6h-3z"/><path d="m22.729 125.66h3v-6h-3z"/><path d="m55.729 117.418h3v-6h-3z"/><path d="m73.729 113.296h3v-6h-3z"/></g><path d="m112.2294 71.7079h4.775 51.576c1.654 0 3-1.346 3-3v-45c0-1.654-1.346-3-3-3h-48.576-7.775c-1.654 0-3 1.346-3 3v45c0 1.654 1.346 3 3 3" fill="#4f545c"/><path d="m119.7294 60.2079c-1.378 0-2.5 1.121-2.5 2.5s1.122 2.5 2.5 2.5 2.5-1.121 2.5-2.5-1.122-2.5-2.5-2.5m41.3511 0c-1.378 0-2.5 1.121-2.5 2.5s1.122 2.5 2.5 2.5 2.5-1.121 2.5-2.5-1.122-2.5-2.5-2.5m-29.0176 0c-1.378 0-2.5 1.121-2.5 2.5s1.122 2.5 2.5 2.5 2.5-1.121 2.5-2.5-1.122-2.5-2.5-2.5m12.3335 0c-1.378 0-2.5 1.121-2.5 2.5s1.122 2.5 2.5 2.5 2.5-1.121 2.5-2.5-1.122-2.5-2.5-2.5" fill="#36393f"/><path d="m117.229 52.708h46.351v-24h-46.351z" fill="#72767d"/><path d="m90.729 117.219h3v-6h-3z" fill="#72767d"/><path d="m133.2255 91.493c0 3.942-1.996 7.426-5.029 9.498h.535c5.237 0 9.498-4.261 9.498-9.498 0-5.236-4.261-9.497-9.498-9.497h-.534c3.032 2.072 5.028 5.555 5.028 9.497" fill="#36393f"/><path d="m119.3065 90.493c.552 0 1 .447 1 1s-.448 1-1 1h-7.023c.501 4.769 4.544 8.498 9.444 8.498 5.237 0 9.498-4.261 9.498-9.498 0-5.236-4.261-9.497-9.498-9.497-4.9 0-8.943 3.729-9.444 8.497z" fill="#4f545c"/><path d="m172.7504 91.493c0-5.236-4.261-9.497-9.498-9.497h-.535c.585.398 1.143.85 1.661 1.367 2.172 2.172 3.368 5.059 3.368 8.131 0 3.071-1.196 5.958-3.368 8.13-.518.518-1.076.969-1.661 1.367h.535c5.237 0 9.498-4.261 9.498-9.498" fill="#36393f"/><path d="m149.5321 98.2098c3.464 3.463 8.96 3.687 12.688.669l-4.967-4.967c-.39-.39-.39-1.023 0-1.414.391-.391 1.024-.391 1.414 0l4.966 4.967c1.368-1.686 2.113-3.77 2.113-5.971 0-2.538-.988-4.923-2.782-6.717-1.851-1.851-4.284-2.777-6.716-2.777s-4.864.926-6.716 2.777c-3.703 3.704-3.703 9.73 0 13.433" fill="#4f545c"/><path d="m131.8012 114.951c1.48 2.691 1.825 5.798.968 8.747-.753 2.596-2.356 4.794-4.563 6.293h.526c5.236 0 9.497-4.261 9.497-9.498 0-5.236-4.261-9.497-9.497-9.497h-.53c1.477 1.005 2.713 2.344 3.599 3.955" fill="#36393f"/><path d="m120.4823 121.1776c.267.484.09 1.093-.394 1.358l-6.153 3.386c1.237 1.783 3.032 3.08 5.145 3.694 2.437.708 5.002.422 7.225-.8 2.223-1.223 3.837-3.239 4.544-5.675.707-2.437.423-5.002-.8-7.225s-3.238-3.837-5.674-4.544c-.855-.248-1.726-.369-2.592-.376h-.056c-.007 0-.014-.004-.021-.004-1.577.001-3.137.399-4.557 1.18-2.223 1.223-3.836 3.238-4.543 5.675-.614 2.112-.478 4.323.365 6.323l6.153-3.386c.484-.265 1.092-.089 1.358.394" fill="#4f545c"/><path d="m172.7504 120.493c0-5.236-4.261-9.497-9.498-9.497h-.558c2.277 1.543 4.019 3.89 4.723 6.767 1.17 4.784-.862 9.604-4.711 12.228h.546c5.237 0 9.498-4.261 9.498-9.498" fill="#36393f"/><path d="m158.5048 129.7196c5.087-1.244 8.214-6.396 6.97-11.482-1.056-4.317-4.926-7.221-9.181-7.242h-.045c-.003 0-.005-.001-.008-.001-.418 0-.84.036-1.263.094l1.667 6.816c.131.536-.198 1.077-.734 1.209-.08.019-.16.028-.239.028-.449 0-.858-.306-.97-.763l-1.668-6.822c-4.513 1.621-7.175 6.434-6.011 11.193.602 2.464 2.128 4.546 4.297 5.864 2.17 1.315 4.721 1.709 7.185 1.106" fill="#4f545c"/><path d="m156.0605 36.6629h-13.135c-.84 0-1.52-.68-1.52-1.52v-1.336c0-.553-.448-1-1-1-.553 0-1 .447-1 1v1.336c0 .84-.681 1.52-1.52 1.52h-13.136c-.839 0-1.52.681-1.52 1.52v8.369c0 .552.448 1 1 1s1-.448 1-1v-1.324c0-.839.681-1.52 1.52-1.52h5.293c.84 0 1.52.681 1.52 1.52v1.324c0 .552.448 1 1 1 .553 0 1-.448 1-1v-3.324c0-.839-.68-1.52-1.52-1.52h-7.293c-.839 0-1.52-.68-1.52-1.52v-.005c0-.839.681-1.52 1.52-1.52h19.627c.839 0 1.52.681 1.52 1.52v6.369c0 .552.448 1 1 1s1-.448 1-1v-6.369c0-.839.681-1.52 1.52-1.52h2.644c.839 0 1.52.681 1.52 1.52v6.369c0 .552.448 1 1 1s1-.448 1-1v-8.369c0-.839-.681-1.52-1.52-1.52m-112.8311 22.545h-4c-1.657 0-3-1.343-3-3s1.343-3 3-3h4c1.657 0 3 1.343 3 3s-1.343 3-3 3m2-8h-8c-1.657 0-3 1.343-3 3v4c0 1.657 1.343 3 3 3h8c1.657 0 3-1.343 3-3v-4c0-1.657-1.343-3-3-3m-6 15h4c1.657 0 3 1.343 3 3s-1.343 3-3 3h-4c-1.657 0-3-1.343-3-3s1.343-3 3-3zm-5 5c0 1.657 1.343 3 3 3h8c1.657 0 3-1.343 3-3v-4c0-1.657-1.343-3-3-3h-8c-1.657 0-3 1.343-3 3zm3 13h8c.552 0 1 .448 1 1v8c0 .552-.448 1-1 1h-8c-.552 0-1-.448-1-1v-8c0-.552.448-1 1-1zm10 12c.552 0 1-.448 1-1v-12c0-.552-.448-1-1-1h-12c-.552 0-1 .448-1 1v12c0 .552.448 1 1 1zm-6 25.331c-.828 0-1.5-.672-1.5-1.5v-3c0-.828.672-1.5 1.5-1.5.829 0 1.5.672 1.5 1.5v3c0 .828-.671 1.5-1.5 1.5m2.5-8c-.828 0-1.5-.671-1.5-1.5v-10.831c0-.553-.448-1-1-1s-1 .447-1 1v10.831c0 .829-.671 1.5-1.5 1.5-.552 0-1 .448-1 1v8c0 .553.448 1 1 1 .829 0 1.5.672 1.5 1.5v6.169c0 .553.448 1 1 1s1-.447 1-1v-6.169c0-.828.672-1.5 1.5-1.5.552 0 1-.447 1-1v-8c0-.552-.448-1-1-1m-17.5-54.331h-4c-1.657 0-3-1.343-3-3s1.343-3 3-3h4c1.657 0 3 1.343 3 3s-1.343 3-3 3m2-8h-8c-1.657 0-3 1.343-3 3v4c0 1.657 1.343 3 3 3h8c1.657 0 3-1.343 3-3v-4c0-1.657-1.343-3-3-3m-2 21h-4c-1.657 0-3-1.343-3-3s1.343-3 3-3h4c1.657 0 3 1.343 3 3s-1.343 3-3 3m2-8h-8c-1.657 0-3 1.343-3 3v4c0 1.657 1.343 3 3 3h8c1.657 0 3-1.343 3-3v-4c0-1.657-1.343-3-3-3m0 30h-8c-.552 0-1-.448-1-1v-8c0-.552.448-1 1-1h8c.552 0 1 .448 1 1v8c0 .552-.448 1-1 1m2-12h-12c-.552 0-1 .448-1 1v12c0 .552.448 1 1 1h12c.552 0 1-.448 1-1v-12c0-.552-.448-1-1-1m-6 43.4521c-.828 0-1.5-.672-1.5-1.5v-3c0-.828.672-1.5 1.5-1.5.829 0 1.5.672 1.5 1.5v3c0 .828-.671 1.5-1.5 1.5m2.5-8c-.828 0-1.5-.672-1.5-1.5v-14.952c0-.553-.448-1-1-1s-1 .447-1 1v14.952c0 .828-.671 1.5-1.5 1.5-.552 0-1 .448-1 1v8c0 .553.448 1 1 1 .829 0 1.5.672 1.5 1.5v2.048c0 .553.448 1 1 1s1-.447 1-1v-2.048c0-.828.672-1.5 1.5-1.5.552 0 1-.447 1-1v-8c0-.552-.448-1-1-1m33.5-58.4521h-4c-1.657 0-3-1.343-3-3s1.343-3 3-3h4c1.657 0 3 1.343 3 3s-1.343 3-3 3m2-8h-8c-1.657 0-3 1.343-3 3v4c0 1.657 1.343 3 3 3h8c1.657 0 3-1.343 3-3v-4c0-1.657-1.343-3-3-3m34-7.5h-76c-.551 0-1-.448-1-1s.449-1 1-1h76c.551 0 1 .448 1 1s-.449 1-1 1m0-4h-76c-1.654 0-3 1.346-3 3s1.346 3 3 3h76c1.654 0 3-1.346 3-3s-1.346-3-3-3m-36 32.5h-4c-1.657 0-3-1.343-3-3s1.343-3 3-3h4c1.657 0 3 1.343 3 3s-1.343 3-3 3m2-8h-8c-1.657 0-3 1.343-3 3v4c0 1.657 1.343 3 3 3h8c1.657 0 3-1.343 3-3v-4c0-1.657-1.343-3-3-3m0 30h-8c-.552 0-1-.448-1-1v-8c0-.552.448-1 1-1h8c.552 0 1 .448 1 1v8c0 .552-.448 1-1 1m2-12h-12c-.552 0-1 .448-1 1v12c0 .552.448 1 1 1h12c.552 0 1-.448 1-1v-12c0-.552-.448-1-1-1m-7 35.2099c-.828 0-1.5-.672-1.5-1.5v-3c0-.828.672-1.5 1.5-1.5.829 0 1.5.672 1.5 1.5v3c0 .828-.671 1.5-1.5 1.5m2.5-8c-.828 0-1.5-.671-1.5-1.5v-6.71c0-.553-.448-1-1-1s-1 .447-1 1v6.71c0 .829-.671 1.5-1.5 1.5-.552 0-1 .448-1 1v8c0 .553.448 1 1 1 .829 0 1.5.672 1.5 1.5v10.29c0 .553.448 1 1 1s1-.447 1-1v-10.29c0-.828.672-1.5 1.5-1.5.552 0 1-.447 1-1v-8c0-.552-.448-1-1-1m17.5-50.2099h-4c-1.657 0-3-1.343-3-3s1.343-3 3-3h4c1.657 0 3 1.343 3 3s-1.343 3-3 3m2-8h-8c-1.657 0-3 1.343-3 3v4c0 1.657 1.343 3 3 3h8c1.657 0 3-1.343 3-3v-4c0-1.657-1.343-3-3-3m-2 21h-4c-1.657 0-3-1.343-3-3s1.343-3 3-3h4c1.657 0 3 1.343 3 3s-1.343 3-3 3m2-8h-8c-1.657 0-3 1.343-3 3v4c0 1.657 1.343 3 3 3h8c1.657 0 3-1.343 3-3v-4c0-1.657-1.343-3-3-3m0 30h-8c-.552 0-1-.448-1-1v-8c0-.552.448-1 1-1h8c.552 0 1 .448 1 1v8c0 .552-.448 1-1 1m2-12h-12c-.552 0-1 .448-1 1v12c0 .552.448 1 1 1h12c.552 0 1-.448 1-1v-12c0-.552-.448-1-1-1m-6 31.0879c-.828 0-1.5-.671-1.5-1.5v-3c0-.828.672-1.5 1.5-1.5.829 0 1.5.672 1.5 1.5v3c0 .829-.671 1.5-1.5 1.5m2.5-8c-.828 0-1.5-.671-1.5-1.5v-2.588c0-.553-.448-1-1-1s-1 .447-1 1v2.588c0 .829-.671 1.5-1.5 1.5-.552 0-1 .448-1 1v8c0 .552.448 1 1 1 .829 0 1.5.672 1.5 1.5v14.412c0 .553.448 1 1 1s1-.447 1-1v-14.412c0-.828.672-1.5 1.5-1.5.552 0 1-.448 1-1v-8c0-.552-.448-1-1-1m16.5-46.0879h-4c-1.657 0-3-1.343-3-3s1.343-3 3-3h4c1.657 0 3 1.343 3 3s-1.343 3-3 3m2-8h-8c-1.657 0-3 1.343-3 3v4c0 1.657 1.343 3 3 3h8c1.657 0 3-1.343 3-3v-4c0-1.657-1.343-3-3-3" fill="#202225"/><path d="m163.5805 33.2674v14.881c0 2.518-2.041 4.559-4.559 4.559h-37.233c-2.518 0-4.559-2.041-4.559-4.559v-14.881c0-2.518 2.041-4.56 4.559-4.56h37.233c2.518 0 4.559 2.042 4.559 4.56zm-47.351-6.56c-.552 0-1 .448-1 1v26c0 .553.448 1 1 1h48.351c.552 0 1-.447 1-1v-26c0-.552-.448-1-1-1zm-22.0001 45.5005h-4c-1.657 0-3-1.343-3-3s1.343-3 3-3h4c1.657 0 3 1.343 3 3s-1.343 3-3 3m2-8h-8c-1.657 0-3 1.343-3 3v4c0 1.657 1.343 3 3 3h8c1.657 0 3-1.343 3-3v-4c0-1.657-1.343-3-3-3m0 30h-8c-.552 0-1-.448-1-1v-8c0-.552.448-1 1-1h8c.552 0 1 .448 1 1v8c0 .552-.448 1-1 1m2-12h-12c-.552 0-1 .448-1 1v12c0 .552.448 1 1 1h12c.552 0 1-.448 1-1v-12c0-.552-.448-1-1-1m-6 35.0107c-.828 0-1.5-.672-1.5-1.5v-3c0-.828.672-1.5 1.5-1.5.829 0 1.5.672 1.5 1.5v3c0 .828-.671 1.5-1.5 1.5m2.5-8c-.828 0-1.5-.671-1.5-1.5v-6.511c0-.552-.448-1-1-1s-1 .448-1 1v6.511c0 .829-.671 1.5-1.5 1.5-.552 0-1 .448-1 1v8c0 .553.448 1 1 1 .829 0 1.5.672 1.5 1.5v10.489c0 .553.448 1 1 1s1-.447 1-1v-10.489c0-.828.672-1.5 1.5-1.5.552 0 1-.447 1-1v-8c0-.552-.448-1-1-1m66.3511-44.0107c-1.378 0-2.5-1.121-2.5-2.5s1.122-2.5 2.5-2.5 2.5 1.121 2.5 2.5-1.122 2.5-2.5 2.5m0-7c-2.481 0-4.5 2.019-4.5 4.5s2.019 4.5 4.5 4.5 4.5-2.019 4.5-4.5-2.019-4.5-4.5-4.5m-41.3511 7c-1.378 0-2.5-1.121-2.5-2.5s1.122-2.5 2.5-2.5 2.5 1.121 2.5 2.5-1.122 2.5-2.5 2.5m0-7c-2.481 0-4.5 2.019-4.5 4.5s2.019 4.5 4.5 4.5 4.5-2.019 4.5-4.5-2.019-4.5-4.5-4.5m12.3335 7c-1.378 0-2.5-1.121-2.5-2.5s1.122-2.5 2.5-2.5 2.5 1.121 2.5 2.5-1.122 2.5-2.5 2.5m0-7c-2.481 0-4.5 2.019-4.5 4.5s2.019 4.5 4.5 4.5 4.5-2.019 4.5-4.5-2.019-4.5-4.5-4.5m12.3335 7c-1.378 0-2.5-1.121-2.5-2.5s1.122-2.5 2.5-2.5 2.5 1.121 2.5 2.5-1.122 2.5-2.5 2.5m0-7c-2.481 0-4.5 2.019-4.5 4.5s2.019 4.5 4.5 4.5 4.5-2.019 4.5-4.5-2.019-4.5-4.5-4.5m-22.669 23.7881c5.339 0 9.663 4.428 9.493 9.803-.153 4.837-4.099 8.896-8.93 9.176-4.157.241-7.785-2.209-9.303-5.767-.549-1.288.449-2.715 1.849-2.715h4.47c.552 0 1-.447 1-1s-.448-1-1-1h-4.465c-1.416 0-2.399-1.451-1.838-2.751 1.457-3.376 4.819-5.746 8.724-5.746m16.502 9.497c0 5.237-4.261 9.498-9.498 9.498h-.535c3.033-2.072 5.029-5.556 5.029-9.498s-1.996-7.425-5.028-9.497h.534c5.237 0 9.498 4.261 9.498 9.497m-16.502 11.498h7.004c6.34 0 11.498-5.158 11.498-11.498s-5.158-11.497-11.498-11.497h-7.004c-6.34 0-11.498 5.157-11.498 11.497s5.158 11.498 11.498 11.498m34.5206-20.9911c2.433 0 4.865.926 6.716 2.777 1.794 1.794 2.783 4.179 2.783 6.717 0 .665-.068 1.319-.201 1.956-.44 2.105-3.063 2.864-4.583 1.344l-2.296-2.296c-.39-.391-1.023-.391-1.414 0-.39.391-.39 1.023 0 1.414l2.293 2.294c1.546 1.546.719 4.168-1.425 4.596-3.186.635-6.636-.368-8.984-3.011-3.254-3.664-3.115-9.407.302-12.919 1.863-1.915 4.336-2.872 6.809-2.872m8.13 17.624c2.172-2.172 3.369-5.059 3.369-8.13 0-3.072-1.197-5.959-3.369-8.131-.517-.517-1.076-.968-1.66-1.367h.534c5.238 0 9.498 4.261 9.498 9.497 0 5.237-4.26 9.498-9.498 9.498h-.534c.584-.398 1.143-.849 1.66-1.367m-8.13 3.362c.476 0 7.004.005 7.004.005 6.34 0 11.498-5.158 11.498-11.498s-5.158-11.497-11.498-11.497h-7.004c-.012 0-.022.007-.034.007-2.933.009-5.863 1.128-8.096 3.36-4.483 4.484-4.483 11.778 0 16.261 2.242 2.242 5.186 3.362 8.13 3.362m-18.0186 17.5071c0 5.237-4.261 9.498-9.498 9.498h-.525c2.207-1.499 3.81-3.697 4.563-6.293.856-2.949.512-6.056-.968-8.747-.886-1.611-2.122-2.95-3.599-3.955h.529c5.237 0 9.498 4.261 9.498 9.497m-25.624-2.646c.707-2.437 2.321-4.453 4.544-5.675 1.42-.781 2.98-1.179 4.557-1.18.007 0 .014.004.021.004h.056c.866.006 1.737.128 2.592.376 2.436.707 4.451 2.32 5.674 4.544 1.222 2.223 1.507 4.788.8 7.224-.707 2.437-2.321 4.453-4.544 5.675-2.223 1.223-4.788 1.508-7.225.8-1.51-.437-2.856-1.225-3.954-2.289-.673-.652-.512-1.778.31-2.23l4.652-2.56c.484-.266.661-.874.394-1.358-.266-.484-.874-.66-1.358-.394l-4.651 2.56c-.834.459-1.867-.033-2.057-.966-.304-1.487-.245-3.033.189-4.531m5.917 13.689c1.062.309 2.145.461 3.221.461.48 0 6.988-.006 6.988-.006 6.34 0 11.498-5.158 11.498-11.498s-5.158-11.497-11.498-11.497h-7.004c-.001 0-.003.001-.004.001-1.916-.002-3.812.475-5.538 1.423-2.691 1.479-4.644 3.919-5.5 6.869-.856 2.949-.512 6.056.968 8.747 1.48 2.69 3.92 4.644 6.869 5.5m44.1841-1.5449c3.849-2.624 5.881-7.444 4.71-12.229-.703-2.876-2.445-5.223-4.722-6.766h.558c5.237 0 9.498 4.261 9.498 9.497 0 5.237-4.261 9.498-9.498 9.498zm-15.684-7.241c-1.017-4.157.886-8.357 4.392-10.432.782-.463 1.792-.056 2.007.827l1.281 5.234c.111.457.52.762.97.762.078 0 .159-.008.239-.028.536-.132.864-.673.733-1.209 0 0-1.128-4.746-1.417-5.795-.29-1.05 1.066-1.113 1.066-1.113 4.781.023 9.074 3.685 9.439 8.9.284 4.057-2.172 7.935-5.957 9.42-2.84 1.114-5.91.84-8.456-.703-2.168-1.317-3.695-3.399-4.297-5.863zm16.23-13.754h-7.004c-.021 0-.039.011-.061.012-.882.004-1.776.098-2.671.316-6.158 1.507-9.943 7.743-8.436 13.9 1.282 5.246 5.994 8.769 11.168 8.769.476 0 7.004-.002 7.004-.002 6.34 0 11.498-5.158 11.498-11.498s-5.158-11.497-11.498-11.497zm41.9017-11.5895c0-.552-.448-1-1-1s-1 .448-1 1c0 .834-.676 1.51-1.51 1.51-.552 0-1 .448-1 1 0 .553.448 1 1 1 .834 0 1.51.677 1.51 1.51 0 .552.448 1 1 1s1-.448 1-1c0-.833.676-1.51 1.51-1.51.553 0 1-.447 1-1 0-.552-.447-1-1-1-.834 0-1.51-.676-1.51-1.51zm-113.1733-83.2236c.256 0 .512-.098.707-.293l1.183-1.183c.391-.391.391-1.024 0-1.414-.39-.391-1.023-.391-1.414 0l-1.183 1.183c-.391.391-.391 1.023 0 1.414.195.195.451.293.707.293m-5.9165 5.9165c.256 0 .512-.098.707-.293l1.184-1.183c.39-.39.39-1.024 0-1.414-.391-.391-1.024-.391-1.414 0l-1.184 1.183c-.391.39-.391 1.023 0 1.414.195.195.451.293.707.293m6.3925-.293c.195.195.451.293.707.293s.512-.098.707-.293c.391-.391.391-1.023 0-1.414l-1.183-1.183c-.391-.391-1.023-.391-1.414 0-.391.39-.391 1.023 0 1.414zm-5.916-5.9165c.195.195.451.293.707.293s.512-.098.707-.293c.391-.391.391-1.024 0-1.414l-1.184-1.183c-.39-.391-1.024-.391-1.414 0-.39.39-.39 1.024 0 1.414zm18.0249-10.9868c.833 0 1.51.677 1.51 1.51 0 .832-.677 1.51-1.51 1.51s-1.51-.678-1.51-1.51c0-.833.677-1.51 1.51-1.51m0 5.02c1.935 0 3.51-1.575 3.51-3.51s-1.575-3.51-3.51-3.51c-1.936 0-3.51 1.575-3.51 3.51s1.574 3.51 3.51 3.51" fill="#202225"/><path d="m179.3554 60.7079c0 1.657-1.343 3-3 3-1.54 0-2.785-1.253-2.776-2.793l.001-.207v-37c0-.02 0-.039 0-.059-.019-1.599 1.175-2.941 2.775-2.941 1.657 0 3 1.343 3 3zm-62.351 11h-4.775c-1.654 0-3-1.346-3-3v-45c0-1.654 1.346-3 3-3h7.775 48.576c1.654 0 3 1.346 3 3v45c0 1.654-1.346 3-3 3zm105.246 69.292h-12.175c-2.718 0-4.932-2.224-4.921-4.941v-.059-23.087c0-.553-.448-1-1-1s-1 .447-1 1v19.087c0 2.762-2.238 5-5 5h-4.653c-2.718 0-4.932-2.224-4.921-4.941v-.059-94-.059c-.011-2.717 2.203-4.941 4.921-4.941h4.653c2.762 0 5 2.239 5 5v53.493c0 .553.448 1 1 1s1-.447 1-1v-53.493c0-3.866-3.134-7-7-7h-14.933c-1.031 0-1.866-.835-1.866-1.866v-5.426c0-2.761-2.238-5-5-5h-7.775-48.576-7.775c-2.761 0-5 2.239-5 5v8.292 36.708c0 2.762 2.239 5 5 5h3.775 52.576 7.775c2.762 0 5-2.238 5-5v-30.788c0-3.211 4.841-3.622 5.197-.431.018.168.028.339.028.511v98c0 2.762-2.238 5-5 5h-129.777-35.574c-2.761 0-5-2.238-5-5v-98c0-2.761 2.239-5 5-5h86.521c.552 0 1-.447 1-1-.001-.553-.448-1-1-1h-86.521c-3.866 0-7 3.134-7 7v98l.001.059c.011 2.717-2.204 4.941-4.921 4.941h-3.059c-.553 0-1 .447-1 1s.447 1 1 1h14.979 35.574 129.777 16.574 24.096c.552 0 1-.447 1-1s-.448-1-1-1z" fill="#202225"/></g></g><path d="m0 0h280v165h-280z"/></g></svg>