<svg xmlns="http://www.w3.org/2000/svg" width="24" height="24" viewBox="0 0 24 24">
  <g fill="none" fill-rule="evenodd">
    <path fill="#FFFFFF" d="M22,11.0722236 C21.3809871,10.7136242 20.7095418,10.4355876 20,10.2525909 L20,5.75 C20,4.78350169 19.2164983,4 18.25,4 L5.75,4 C4.78350169,4 4,4.78350169 4,5.75 L4,18.25 C4,19.2164983 4.78350169,20 5.75,20 L10.2528087,20 C10.4358354,20.7092614 10.7138786,21.3807645 11.0725703,22 L5.5,22 C3.56,22 2,20.44 2,18.5 L2,5.5 C2,3.56 3.56,2 5.5,2 L18.5,2 C20.44,2 22,3.56 22,5.5 L22,11.0722236 Z M10.4115136,15.4629862 C9.33407699,15.2186907 8.33830866,14.6373578 7.59,13.77 L12.1881804,12.5058781 C11.3975982,13.3416327 10.7849126,14.3475996 10.4115136,15.4629862 Z M14.44,6.77 C15.22,6.77 15.91,7.3 16.12,8.05 C16.16,8.22 16.18,8.39 16.18,8.56 L12.95,9.44 C12.86,9.3 12.79,9.15 12.74,9 C12.5,8.05 13.03,7.09 13.97,6.83 C14.12,6.79 14.28,6.77 14.44,6.77 Z M8.17,8.5 C8.95,8.5 9.64,9 9.85,9.78 C9.89,9.94 9.91,10.11 9.91,10.28 L6.68,11.16 C6.59,11 6.5,10.86 6.47,10.7 C6.22,9.77 6.77,8.81 7.7,8.55 C7.85,8.5 8,8.5 8.17,8.5 Z" opacity=".6"/>
    <rect width="24" height="24"/>
  </g>
</svg>
