<svg width="121" height="80" viewBox="0 0 121 80" fill="none" xmlns="http://www.w3.org/2000/svg">
<g clip-path="url(#clip0)">
<path d="M60.0779 0.00336559H113.836C117.295 0.00336559 119.955 2.58465 120.058 6.03971C120.058 6.23314 120.058 6.42824 120.058 6.62334C120.058 28.8711 120.063 51.1189 120.073 73.3667C120.073 76.2698 118.854 78.2975 116.268 79.5448C115.612 79.8524 114.896 80.0069 114.172 79.9967C78.1392 79.9967 42.1067 79.9967 6.07427 79.9967C2.82431 79.9967 0.154641 77.3003 -0.000436145 73.917C-0.0104411 73.7219 -0.000436145 73.5268 -0.000436145 73.3334C-0.000436145 51.1145 -0.000436145 28.8945 -0.000436145 6.67337C-0.000436145 3.64852 1.46696 1.38739 4.11662 0.350203C4.79505 0.1024 5.51396 -0.0158168 6.23601 0.00169646C24.1805 0.00503146 42.1279 0.00558893 60.0779 0.00336559ZM63.448 20.5236C63.1295 20.0601 63.1145 19.6615 63.0211 19.2897C62.224 15.918 61.462 12.5363 60.6399 9.17128C60.1396 7.11692 57.9819 5.8146 55.8758 6.21147C54.1266 6.54497 52.5292 8.65602 52.7376 10.4969C53.1061 13.7452 53.543 16.9869 53.9415 20.2318C54.0983 21.5008 54.23 22.7714 54.3851 24.1504C52.1156 22.548 50.1696 22.6497 48.7056 24.3705C47.6284 25.6445 47.6034 27.1069 48.1403 28.606C48.3204 29.1062 48.3537 29.3597 47.7018 29.5198C45.5757 30.0417 44.4101 32.2178 45.0104 34.3189C45.444 35.8379 46.4945 36.8968 47.58 37.9357C47.7538 38.0892 47.8953 38.2757 47.9964 38.4844C48.0974 38.693 48.156 38.9197 48.1686 39.1513C48.5555 43.6735 50.7816 47.0269 54.7486 49.2046C57.9986 50.9889 61.4703 51.0906 65.0221 50.3952C67.9836 49.8149 70.5248 48.5043 72.3808 46.0597C74.9454 42.678 75.7391 38.7527 75.6524 34.614C75.6057 32.3645 74.8403 30.1484 71.6921 29.7015C71.1918 29.6315 71.1035 29.4197 71.1918 28.9829C71.8588 25.7246 72.5203 22.4651 73.1762 19.2046C73.7448 16.3532 74.3434 13.5051 74.8336 10.6387C75.1555 8.76608 74.0816 7.05855 72.2991 6.32485C70.7599 5.68954 68.7356 6.25482 67.63 7.57048C66.7613 8.59599 66.5745 9.8783 66.211 11.0906C65.2705 14.1938 64.3818 17.312 63.448 20.5236ZM36.0209 71.5158C36.7212 71.5575 37.4217 71.4359 38.0669 71.1606C39.7044 70.4452 40.6716 69.2196 40.8266 67.4221C40.9934 65.5778 40.1596 64.2922 38.5372 63.4467C37.7151 63.0199 36.818 62.8331 35.9592 62.5263C35.479 62.3595 35.0204 62.1544 34.8186 61.6392C34.5635 60.9922 34.7036 60.4336 35.2639 60.0167C35.6029 59.7655 36.0245 59.6521 36.4438 59.6994C36.8631 59.7468 37.2489 59.9513 37.5233 60.2718C37.9702 60.7721 38.3087 60.8488 38.8006 60.3986C39.0227 60.2324 39.2593 60.0868 39.5077 59.9633C40.3414 59.4514 40.4031 59.2163 39.7144 58.5176C38.3221 57.1002 36.6379 56.7367 34.7519 57.307C33.9669 57.5554 33.2726 58.03 32.7561 58.6713C32.2397 59.3127 31.9241 60.0922 31.8488 60.9121C31.6971 62.5163 32.4975 63.8336 34.0516 64.6874C34.942 65.1759 35.9409 65.3227 36.8647 65.6879C38.0319 66.1531 38.3504 67.2787 37.6217 68.2541C37.0548 69.0129 35.5657 69.0679 34.4801 68.4209C34.0399 68.1624 33.7698 67.4204 33.2562 67.6038C32.781 67.7706 32.4458 68.3309 32.0473 68.7177C31.993 68.7806 31.9339 68.8391 31.8705 68.8928C31.4736 69.1829 31.537 69.4331 31.8705 69.7549C33.0061 70.8905 34.3201 71.5608 36.0209 71.5158ZM47.0348 71.5158C49.8695 71.5291 52.299 69.2163 52.2974 66.4949C52.2877 65.1203 51.7357 63.805 50.7615 62.8351C49.7872 61.8652 48.4695 61.3192 47.0948 61.3157C44.2233 61.2923 41.8505 63.5418 41.8321 66.3065C41.8238 69.2563 44.0633 71.5158 47.0348 71.5158ZM64.8637 71.5158C67.7551 71.5508 70.1363 69.333 70.1697 66.5733C70.1801 65.2023 69.6508 63.8822 68.696 62.8981C67.7413 61.9141 66.4378 61.3451 65.0671 61.314C62.1706 61.2823 59.7094 63.5768 59.6977 66.3165C59.6995 67.6892 60.2432 69.0056 61.2107 69.9793C62.1782 70.953 63.4911 71.5052 64.8637 71.5158V71.5158ZM56.4278 63.1449C56.2293 61.3757 56.6829 60.2335 57.8902 60.0267C58.9807 59.8416 59.1375 59.3147 59.0091 58.4226C58.9858 58.1742 58.9824 57.9244 58.9991 57.6755C58.9991 57.3787 58.9224 57.2403 58.5688 57.2436C55.5774 57.272 53.6681 59.1679 53.6647 62.1478C53.6647 64.5345 53.6647 66.9246 53.6647 69.318C53.6647 71.4708 53.6647 71.4574 55.7991 71.319C56.2427 71.2907 56.3627 71.1339 56.3544 70.7154C56.3333 69.6615 56.3333 68.6054 56.3544 67.5471C56.3778 66.0597 57.0047 65.2977 58.4388 64.9842C58.6272 64.9425 58.9024 64.9575 58.9124 64.7357C58.9507 63.9903 58.9507 63.2434 58.9124 62.4979C58.899 62.2678 58.5955 62.3312 58.4121 62.3412C57.6917 62.3612 57.0914 62.7064 56.4278 63.1449ZM81.3186 64.2521C81.7354 64.2521 81.9589 64.5473 82.2624 64.6674C83.6364 65.206 83.8081 65.1009 83.8081 63.6669C83.7964 63.5003 83.7964 63.3332 83.8081 63.1666C83.8865 62.613 83.7114 62.3462 83.1078 62.2145C82.0139 61.9777 81.4019 61.239 81.2902 60.3102C81.2185 59.7199 81.5904 58.9178 81.0868 58.5927C80.6499 58.3125 79.9012 58.5493 79.2992 58.4793C78.5889 58.4009 78.4955 58.7411 78.5088 59.343C78.5355 61.6992 78.5088 64.0571 78.5205 66.4149C78.5205 69.1029 79.9579 70.8038 82.5875 71.2506C83.7815 71.4557 83.8398 71.4074 83.8565 70.1834C83.8565 69.9617 83.8415 69.7382 83.8565 69.5164C83.9199 68.9578 83.7765 68.6927 83.1228 68.636C82.1023 68.546 81.4053 67.8706 81.3319 66.9685C81.2585 66.0664 81.3186 65.1643 81.3186 64.2521ZM74.285 62.5846C74.4518 61.6392 74.0449 61.4708 73.4029 61.5425C73.0993 61.5775 72.7927 61.5775 72.4891 61.5425C71.8505 61.4658 71.6204 61.6775 71.6337 62.3612C71.6754 64.6957 71.6487 67.0302 71.6487 69.3547C71.6487 71.369 71.6487 71.3474 73.6781 71.3207C74.2534 71.3207 74.3768 71.1022 74.3651 70.5853C74.3401 69.3364 74.3401 68.0874 74.3601 66.8468C74.3734 65.8329 74.7303 65.0125 75.7258 64.5673C76.1193 64.4006 76.7263 64.5573 76.9097 64.1454C77.0931 63.7336 76.9664 63.2183 76.9731 62.7481C76.9731 62.4979 76.9597 62.2478 76.9731 61.9994C76.9997 61.5908 76.8063 61.4808 76.4244 61.4874C75.6224 61.4924 75.0071 61.876 74.285 62.5863V62.5846ZM85.3206 69.5665C85.3106 70.6037 86.126 71.4674 87.1115 71.4674C88.0069 71.4674 88.9607 70.5253 88.9457 69.6515C88.9472 69.4094 88.9008 69.1693 88.8091 68.9452C88.7174 68.7211 88.5823 68.5174 88.4114 68.3458C88.2406 68.1742 88.0375 68.0381 87.8138 67.9454C87.5901 67.8527 87.3503 67.8051 87.1081 67.8056C86.0543 67.8039 85.3289 68.5143 85.3206 69.5681V69.5665Z" fill="white"/>
<path d="M63.7882 36.8017C62.1107 37.8773 61.287 39.3196 60.9318 41.0722C60.8567 41.5091 60.8154 41.9512 60.8084 42.3945C60.7834 42.9648 60.9618 43.435 61.5921 43.4434C62.1658 43.4434 62.4726 43.0815 62.5143 42.4779C62.54 41.9523 62.6182 41.4305 62.7477 40.9204C63.4297 38.4642 65.2756 37.6038 67.8153 37.7389C68.4606 37.7739 68.9825 37.7389 69.1026 37.0618C69.236 36.3598 68.7157 36.123 68.1121 35.9946C66.026 35.5494 63.9433 35.0975 61.8623 34.6223C61.2076 34.4886 60.5787 34.2505 59.9997 33.9169C59.2743 33.4784 58.649 32.9631 58.6223 31.9893C58.5656 29.8482 59.8363 28.751 62.0124 29.2279C65.394 29.97 68.7591 30.7937 72.1324 31.5791C72.9545 31.7709 73.3914 32.3495 73.6498 33.0899C74.1401 34.4972 74.015 35.9279 73.8399 37.3653C73.5565 39.6115 73.0312 41.7809 71.8823 43.7585C70.2165 46.62 67.6702 48.1791 64.4719 48.7444C60.8034 49.393 57.265 49.1262 54.1551 46.8067C52.0857 45.2626 50.7451 43.2099 50.2715 40.5769C50.585 40.8888 50.8918 41.2073 51.2136 41.5124C52.3809 42.6246 53.7449 43.1432 55.3207 42.5663C56.9732 41.961 57.917 40.732 58.1221 38.9628C58.1727 38.4628 58.0922 37.9582 57.8886 37.4987C57.7085 37.0719 57.8386 36.9101 58.1354 36.5549C58.9692 35.5544 59.7762 35.5311 60.8951 36.0697C61.7139 36.4649 62.6877 36.5383 63.7882 36.8017Z" fill="white"/>
<path d="M54.4973 10.5219C54.5073 9.11291 55.361 8.00402 56.4616 7.85395C57.5971 7.70554 58.7027 8.52095 59.0345 9.88496C59.88 13.36 60.6787 16.8451 61.4908 20.3269C61.7876 21.5942 62.0911 22.8615 62.3462 24.1371C62.4529 24.6657 62.6797 25.0392 63.2216 25.0876C63.7986 25.1376 64.0354 24.7407 64.1804 24.2438C65.4033 20.0373 66.6261 15.8318 67.8489 11.6275C68.0424 10.9605 68.2325 10.2935 68.4409 9.63484C68.8594 8.30084 70.2385 7.52044 71.5174 7.87729C72.673 8.20412 73.35 9.48476 73.0849 10.8188C71.9343 16.5783 70.786 22.3384 69.6398 28.0991C69.4231 29.1896 69.4264 29.1746 68.3175 28.9145C66.3749 28.4576 64.4339 27.9807 62.4812 27.5905C60.8788 27.272 59.313 27.3587 58.039 28.591C57.7922 28.8278 57.6588 28.8428 57.4687 28.5643C56.9518 27.8106 56.4682 27.0636 56.3615 26.1031C55.8229 21.3407 55.2343 16.5833 54.6707 11.8226C54.6123 11.3407 54.4356 10.8888 54.4973 10.5219Z" fill="white"/>
<path d="M49.5312 27.0069C49.5729 26.0647 49.8881 25.3394 50.7285 24.9192C51.5689 24.4989 52.2826 24.7191 52.9613 25.266C53.4615 25.6729 53.8234 26.2015 54.1819 26.7284C54.7255 27.5305 55.2758 28.3292 55.7994 29.1446C56.3813 30.0501 57.1584 30.8421 56.9099 32.1244C56.7832 32.7697 57.0917 33.4934 57.5769 34.0387C57.8854 34.3872 57.8304 34.6373 57.4952 34.9408C56.328 35.993 54.8606 35.8596 53.9835 34.564C52.6812 32.638 51.4055 30.692 50.1165 28.7577C49.748 28.2108 49.6413 27.5838 49.5312 27.0069Z" fill="white"/>
<path d="M46.6348 33.285C46.6448 32.2711 47.2517 31.414 48.0688 31.1773C49.0093 30.9038 49.5912 31.1506 50.2249 32.096C50.9652 33.1983 51.7123 34.2971 52.4427 35.406C53.173 36.5149 54.1502 37.2203 55.4858 37.3203C56.0861 37.367 56.1995 37.7939 56.3079 38.2091C56.5597 39.1662 56.0511 40.2534 55.1657 40.7554C54.7569 41.0006 54.2778 41.1021 53.8047 41.0438C53.3315 40.9854 52.8914 40.7707 52.5544 40.4335C50.8902 38.8105 49.2444 37.1652 47.6169 35.4977C47.0066 34.8774 46.5731 34.1337 46.6348 33.285Z" fill="white"/>
<path d="M49.5241 66.4199C49.5241 67.8823 48.4685 68.9846 47.0528 68.9829C46.3814 68.9716 45.7409 68.6986 45.2678 68.2221C44.7947 67.7455 44.5263 67.1031 44.5199 66.4316C44.4965 65.0976 45.6471 63.8853 46.9528 63.857C48.3985 63.8236 49.5157 64.9375 49.5241 66.4199Z" fill="white"/>
<path d="M62.4766 66.4033C62.4766 64.9542 63.5421 63.8653 64.9778 63.857C66.3118 63.857 67.5024 65.0859 67.4791 66.4483C67.4682 67.1197 67.1957 67.7604 66.7194 68.2338C66.2432 68.7073 65.6009 68.976 64.9294 68.9829C63.5154 68.9862 62.4766 67.8907 62.4766 66.4033Z" fill="white"/>
</g>
<defs>
<clipPath id="clip0">
<rect width="120.08" height="80" fill="white"/>
</clipPath>
</defs>
</svg>
