<svg xmlns="http://www.w3.org/2000/svg" width="98" height="58" xmlns:xlink="http://www.w3.org/1999/xlink">
  <defs>
    <path id="a" d="M2.81221963 0C1.2532922.03488214 0 1.32191027 0 2.90497408V44.3008547c0 1.6042719 1.28826316 2.9049741 2.87719298 2.9049741H69.0526316c1.5889298 0 2.877193-1.3007022 2.877193-2.9049741V2.90497408c0-1.5830638-1.2532922-2.87009194-2.8122197-2.90497408H2.81221963z"/>
    <path id="c" d="M2.81221963 0C1.2532922.03488214 0 1.32191027 0 2.90497408V44.3008547c0 1.6042719 1.28826316 2.9049741 2.87719298 2.9049741H69.0526316c1.5889298 0 2.877193-1.3007022 2.877193-2.9049741V2.90497408c0-1.5830638-1.2532922-2.87009194-2.8122197-2.90497408H2.81221963z"/>
    <path id="e" d="M2.81221963 0C1.2532922.03488214 0 1.32191027 0 2.90497408V44.3008547c0 1.6042719 1.28826316 2.9049741 2.87719298 2.9049741H69.0526316c1.5889298 0 2.877193-1.3007022 2.877193-2.9049741V2.90497408c0-1.5830638-1.2532922-2.87009194-2.8122197-2.90497408H2.81221963z"/>
    <path id="g" d="M2.81221963 0C1.2532922.03488214 0 1.32191027 0 2.90497408V44.3008547c0 1.6042719 1.28826316 2.9049741 2.87719298 2.9049741H69.0526316c1.5889298 0 2.877193-1.3007022 2.877193-2.9049741V2.90497408c0-1.5830638-1.2532922-2.87009194-2.8122197-2.90497408H2.81221963z"/>
    <path id="i" d="M2.81221963 0C1.2532922.03488214 0 1.32191027 0 2.90497408V44.3008547c0 1.6042719 1.28826316 2.9049741 2.87719298 2.9049741H69.0526316c1.5889298 0 2.877193-1.3007022 2.877193-2.9049741V2.90497408c0-1.5830638-1.2532922-2.87009194-2.8122197-2.90497408H2.81221963z"/>
    <path id="k" d="M2.81221963 0C1.2532922.03488214 0 1.32191027 0 2.90497408V44.3008547c0 1.6042719 1.28826316 2.9049741 2.87719298 2.9049741H69.0526316c1.5889298 0 2.877193-1.3007022 2.877193-2.9049741V2.90497408c0-1.5830638-1.2532922-2.87009194-2.8122197-2.90497408H2.81221963z"/>
  </defs>
  <g fill="none" fill-rule="evenodd">
    <g transform="translate(14 9.262)">
      <mask id="b" fill="#fff">
        <use xlink:href="#a"/>
      </mask>
      <path fill="#F6F6F7" fill-rule="nonzero" d="M0 47.206h71.93V0H0" mask="url(#b)"/>
      <mask id="d" fill="#fff">
        <use xlink:href="#c"/>
      </mask>
      <path fill="#DCDDDE" fill-rule="nonzero" d="M35.965 18.156L0 47.206h71.93" mask="url(#d)"/>
      <mask id="f" fill="#fff">
        <use xlink:href="#e"/>
      </mask>
      <path stroke="#B9BBBE" stroke-width="2.88" d="M35.965 18.156L10.618 38.629l-4.474 3.614L0 47.206h71.93L55.726 34.117l-4.131-3.335" stroke-linecap="round" stroke-linejoin="round" mask="url(#f)"/>
      <mask id="h" fill="#fff">
        <use xlink:href="#g"/>
      </mask>
      <path fill="#DCDDDE" fill-rule="nonzero" d="M32.6930404 32.2606813L.0002158.00021787h71.9298246L39.2372158 32.2606813c-1.8428421 1.7364482-4.7013333 1.7364482-6.5441754 0" mask="url(#h)"/>
      <mask id="j" fill="#fff">
        <use xlink:href="#i"/>
      </mask>
      <path stroke="#B9BBBE" stroke-width="2.88" d="M5.50335088 5.43084904L0 0h71.9298246L39.237 32.2604634c-1.8428421 1.7364482-4.7013333 1.7364482-6.5441754 0L20.2640702 20.0356062" stroke-linecap="round" stroke-linejoin="round" mask="url(#j)"/>
      <mask id="l" fill="#fff">
        <use xlink:href="#k"/>
      </mask>
      <path stroke="#B9BBBE" stroke-width="2.88" d="M13.1164035 12.9428941L9.93710526 9.82295197" stroke-linecap="round" stroke-linejoin="round" mask="url(#l)"/>
    </g>
    <path stroke="#B9BBBE" stroke-width="2.88" d="M85.9298965 36.011727v17.5511272c0 1.6042719-1.2882632 2.904974-2.877193 2.904974H16.8772649c-1.5889298 0-2.87719297-1.3007021-2.87719297-2.904974V12.1669735c0-1.6042719 1.28826316-2.90497405 2.87719298-2.90497405h66.1754386c1.5889298 0 2.877193 1.30070214 2.877193 2.90497405" stroke-linecap="round" stroke-linejoin="round"/>
    <path fill="#FAA61A" fill-rule="nonzero" d="M82.6730579 28.1446941c-7.1505439 0-12.9473684-5.8527965-12.9473684-13.0723834 0-7.2195868 5.7968245-13.07238332 12.9473684-13.07238332 7.1505439 0 12.9473684 5.85279652 12.9473684 13.07238332 0 7.2195869-5.7968245 13.0723834-12.9473684 13.0723834"/>
    <path stroke="#AA7112" stroke-width="2.88" d="M82.6730579 1.99992738c7.1505439 0 12.9473684 5.85279652 12.9473684 13.07238332 0 7.2195869-5.7968245 13.0723834-12.9473684 13.0723834-7.1505439 0-12.9473684-5.8527965-12.9473684-13.0723834 0-3.96093213 1.7450175-7.51081045 4.5006491-9.9081403" stroke-linecap="round" stroke-linejoin="round"/>
    <path fill="#FFF" fill-rule="nonzero" d="M82.6913281 17.6340621c1.4198947 0 2.5607017 1.1518222 2.5607017 2.585427 0 1.4074599-1.140807 2.5338636-2.5607017 2.5338636-1.394 0-2.5096316-1.1264037-2.5096316-2.5338636 0-1.4336048 1.1156316-2.585427 2.5096316-2.585427m-1.9629649-9.6074755h3.8748596c.3560526 0 .641614.2955811.6337018.6543454l-.2244211 6.9196483c-.0079123.3478706-.2891579.6260219-.6337017.6260219h-3.4252983c-.3445439 0-.6257895-.2781513-.6337017-.6260219l-.2251404-6.9196483c-.0079123-.3587643.2783684-.6543454.6337018-.6543454"/>
  </g>
</svg>