<svg width="40" height="26" fill="none" xmlns="http://www.w3.org/2000/svg"><path d="M40 0H0v26h40V0Z" fill="#fff"/><path fill-rule="evenodd" clip-rule="evenodd" d="M27.991 8.553c0 .783-.535 1.193-1.064 1.193-.691 0-1.064-.622-1.064-1.206 0-.582.366-1.172 1.064-1.172.528 0 1.064.406 1.064 1.185Zm.713-1.919h-.523a.19.19 0 0 0-.19.19v.544c-.051-.34-.484-.794-1.226-.794-1.052 0-1.817.827-1.817 1.966 0 1.14.775 2 1.804 2 .64 0 1.039-.372 1.24-.582v.332c0 .104.083.19.189.19h.523a.189.189 0 0 0 .189-.19V6.824a.19.19 0 0 0-.189-.19ZM31.25 8.192c-.42-.116-.783-.217-.783-.49 0-.226.205-.355.564-.355.332 0 .557.147.62.402.02.085.095.145.183.145h.522a.19.19 0 0 0 .186-.218c-.107-.69-.661-1.102-1.485-1.102-.865 0-1.492.478-1.492 1.136 0 .835.763 1.039 1.375 1.203.42.113.783.21.783.47 0 .235-.236.382-.618.382-.327 0-.595-.165-.663-.411a.19.19 0 0 0-.184-.142h-.55a.189.189 0 0 0-.187.22c.12.652.777 1.107 1.598 1.107.874 0 1.486-.479 1.486-1.165-.024-.814-.763-1.018-1.356-1.182ZM35.26 6.637c-.429 0-.819.142-1.091.397V5.548a.188.188 0 0 0-.19-.188h-.517a.188.188 0 0 0-.189.188v4.742c0 .104.084.19.189.19h.517a.19.19 0 0 0 .19-.19V8.4c0-.616.319-1.033.874-1.033.552 0 .87.417.87 1.034v1.889c0 .104.083.19.188.19h.51a.189.189 0 0 0 .19-.19V8.285c0-1-.606-1.648-1.542-1.648ZM24.42 9.224l-.443-.252a.185.185 0 0 0-.25.06c-.111.174-.266.317-.46.426a1.543 1.543 0 0 1-.766.194c-.477 0-.868-.152-1.162-.453-.294-.301-.444-.69-.444-1.152 0-.465.15-.852.444-1.153.294-.302.686-.454 1.162-.454.28 0 .537.065.763.194.192.11.347.254.46.428a.186.186 0 0 0 .158.084.187.187 0 0 0 .095-.026l.444-.258a.186.186 0 0 0 .09-.12.186.186 0 0 0-.026-.147 2.256 2.256 0 0 0-.787-.72 2.424 2.424 0 0 0-1.197-.306c-.714 0-1.315.24-1.787.714-.47.473-.71 1.067-.71 1.764 0 .697.24 1.29.71 1.763.472.472 1.073.713 1.787.713.434 0 .84-.104 1.205-.31.324-.184.585-.426.78-.721a.185.185 0 0 0 .025-.147.194.194 0 0 0-.091-.121ZM17.267 7.656a.236.236 0 0 0-.235.235v.34c0 .129.105.235.235.235H18.6c-.152.903-1.101 1.21-1.514 1.21-.48 0-.885-.162-1.203-.477-.302-.301-.457-.687-.457-1.146 0-.46.152-.847.454-1.152.3-.305.69-.46 1.159-.46.29 0 .554.066.787.195.186.103.337.234.45.388a.233.233 0 0 0 .19.093c.043 0 .084-.011.119-.031l.356-.206c.059-.033.1-.09.114-.154a.237.237 0 0 0-.037-.184 2.257 2.257 0 0 0-.756-.666 2.48 2.48 0 0 0-1.22-.307c-.706 0-1.306.242-1.784.72a2.399 2.399 0 0 0-.72 1.755c0 .693.242 1.286.72 1.76.478.476 1.09.717 1.823.717.61 0 1.316-.298 1.76-.74.387-.387.558-.941.606-1.25h.002l.008-.075c.01-.083.017-.302.022-.492a.304.304 0 0 0-.304-.312h-1.91v.004Z" fill="#002CB9"/><path fill-rule="evenodd" clip-rule="evenodd" d="M11.62 8.047c0 .717-.167 1.41-.483 2.031a.45.45 0 1 0 .8.412 5.371 5.371 0 0 0 .585-2.443c0-.879-.21-1.707-.582-2.44a.451.451 0 1 0-.8.412c.314.621.48 1.311.48 2.028Z" fill="#6FBBF8"/><path fill-rule="evenodd" clip-rule="evenodd" d="M10.162 8.047c0 .445-.095.875-.276 1.268a.45.45 0 1 0 .82.377 3.908 3.908 0 0 0 .359-1.644c0-.576-.124-1.133-.357-1.64a.45.45 0 1 0-.82.376c.18.39.274.82.274 1.263Z" fill="#6FBBF8"/><path fill-rule="evenodd" clip-rule="evenodd" d="M7.133 11.078c-.81 0-1.571-.316-2.142-.888a3.01 3.01 0 0 1-.888-2.142c0-.81.314-1.57.888-2.143a3.01 3.01 0 0 1 2.142-.888c.873 0 1.496.355 1.85.63a.45.45 0 1 0 .552-.71 3.911 3.911 0 0 0-2.402-.823c-1.052 0-2.038.41-2.78 1.152A3.907 3.907 0 0 0 3.2 8.046a3.93 3.93 0 0 0 3.931 3.933c.884 0 1.722-.29 2.409-.823a.445.445 0 0 0 .04-.665l-.009-.01a.444.444 0 0 0-.586-.037 3.01 3.01 0 0 1-1.852.634Z" fill="#007CFF"/><path fill-rule="evenodd" clip-rule="evenodd" d="M9.489 7.725a.453.453 0 0 0-.32-.133l-1.58.002a.454.454 0 0 0 0 .907h1.058a1.584 1.584 0 0 1-1.572 1.124 1.584 1.584 0 0 1-1.52-1.601 1.578 1.578 0 0 1 2.42-1.317.454.454 0 0 0 .485-.766 2.504 2.504 0 0 0-1.866-.327c-.955.2-1.7.954-1.896 1.91a2.492 2.492 0 0 0 2.435 3.01A2.49 2.49 0 0 0 9.62 8.047a.45.45 0 0 0-.132-.322Z" fill="#002CB9"/><path d="M36.8 15.007H3.2v.24h33.6v-.24Z" fill="#D8D8D8"/><path fill-rule="evenodd" clip-rule="evenodd" d="M12.16 19.89c0-.069.014-.139.069-.194.088-.087.26-.153.654-.246v.594c-.194.107-.306.149-.436.149-.176 0-.288-.116-.288-.302Zm-2.164-1.21c.273 0 .492.218.492.683 0 .594-.32.859-.678.859a.81.81 0 0 1-.251-.037v-1.348c.153-.107.28-.157.437-.157Zm6.234-.516.005-.005h-.692l-.436 1.513h-.023l-.502-1.512h-.822l.989 2.497-.413.761v.018h.646l1.248-3.272ZM7.6 20.648h.734V18.16H7.6v2.488Zm5.372 0h.733l-.088-.622v-1.04c0-.567-.335-.877-.924-.877-.375 0-.636.064-1.11.208l.13.572c.432-.195.622-.279.822-.279.241 0 .348.172.348.437v.018c-.84.157-1.1.246-1.262.408-.122.121-.172.293-.172.492 0 .478.37.733.72.733.26 0 .47-.097.752-.31l.05.26Zm-2.985.032c.654 0 1.245-.482 1.245-1.341 0-.77-.427-1.23-.957-1.23-.268 0-.477.102-.715.297v-.246h-.733v3.277h.733v-.812c.14.036.269.055.427.055Zm-5.975-1.207.437-1.508h.018l.413 1.508h-.868Zm-1.016 1.175h.678l.186-.641h1.165l.177.64h.867l-.989-3.272h-.984l-1.1 3.273Zm3.37 0h.733v-3.389h-.733v3.389Z" fill="#3E3A3A"/><path fill-rule="evenodd" clip-rule="evenodd" d="M7.545 17.56c0 .242.176.404.422.404s.423-.162.423-.404c0-.236-.177-.403-.423-.403s-.422.167-.422.403ZM19.176 17.259c.22 0 .4.18.4.4v1.266h1.265a.4.4 0 0 1 .401.4v.43h-1.666a.82.82 0 0 1-.433-.122l-.023-.015a.806.806 0 0 1-.183-.165l-.017-.02c-.004-.004-.006-.01-.01-.013a.863.863 0 0 1-.12-.23l-.015-.048a.89.89 0 0 1-.029-.216v-1.667h.43Z" fill="#1677FF"/><path fill-rule="evenodd" clip-rule="evenodd" d="M18.343 19.755h-.861a.4.4 0 0 1-.4-.4v-.43h1.26v.83h.002ZM18.746 21.019v-.857h.83v1.258h-.43a.4.4 0 0 1-.4-.401Z" fill="#00B6FF"/><path fill-rule="evenodd" clip-rule="evenodd" d="M23.478 18.716v.673h.436a.382.382 0 0 0 .258-.085c.066-.056.098-.14.098-.253 0-.113-.033-.197-.098-.252a.39.39 0 0 0-.258-.083h-.436Zm.45-.162c.075 0 .145.012.21.036.064.024.12.058.166.1a.434.434 0 0 1 .108.156c.025.06.038.13.038.206a.536.536 0 0 1-.038.206.438.438 0 0 1-.108.158.478.478 0 0 1-.167.1.594.594 0 0 1-.21.036h-.45v.698h-.181v-1.696h.631ZM25.46 19.708h.63l-.314-.897-.315.897Zm1.015.54h-.193l-.136-.382h-.74l-.136.382h-.192l.623-1.694h.152l.622 1.694ZM27.55 18.716v.622H28c.1 0 .182-.026.244-.076.063-.05.094-.128.094-.233 0-.104-.031-.182-.094-.234a.37.37 0 0 0-.244-.077h-.452v-.002Zm.468-.162c.073 0 .14.01.203.032a.41.41 0 0 1 .263.241.518.518 0 0 1 .037.197.445.445 0 0 1-.102.304.472.472 0 0 1-.266.151l.402.768h-.212l-.386-.751h-.407v.751h-.18v-1.693h.648ZM30.479 18.716h-.49v1.532h-.182v-1.532h-.49v-.162h1.162v.162ZM32.664 20.248h-.172l-.899-1.358v1.358h-.18v-1.694h.17l.9 1.354v-1.354h.18v1.694ZM34.824 18.716h-.87v.596h.741v.162h-.741v.612h.87v.162h-1.051v-1.694h1.05v.162ZM36 18.716v.622h.453c.1 0 .18-.026.243-.076s.094-.128.094-.233c0-.104-.032-.182-.094-.234a.37.37 0 0 0-.243-.077H36v-.002Zm.47-.162c.072 0 .14.01.202.032a.41.41 0 0 1 .263.241.518.518 0 0 1 .037.197.45.45 0 0 1-.102.304.472.472 0 0 1-.266.151l.402.768h-.212l-.385-.751h-.407v.751h-.18v-1.693h.647Z" fill="#3E3A3A"/></svg>
