<svg fill="none" height="158" viewBox="0 0 279 158" width="279" xmlns="http://www.w3.org/2000/svg" xmlns:xlink="http://www.w3.org/1999/xlink"><filter id="a" color-interpolation-filters="sRGB" filterUnits="userSpaceOnUse" height="160" width="280" x="0" y="0"><feFlood flood-opacity="0" result="BackgroundImageFix"/><feColorMatrix in="SourceAlpha" result="hardAlpha" type="matrix" values="0 0 0 0 0 0 0 0 0 0 0 0 0 0 0 0 0 0 127 0"/><feOffset dy="1"/><feGaussianBlur stdDeviation=".5"/><feColorMatrix type="matrix" values="0 0 0 0 0 0 0 0 0 0 0 0 0 0 0 0 0 0 0.2 0"/><feBlend in2="BackgroundImageFix" mode="normal" result="effect1_dropShadow"/><feBlend in="SourceGraphic" in2="effect1_dropShadow" mode="normal" result="shape"/></filter><linearGradient id="b" gradientUnits="userSpaceOnUse" x1="1.00001" x2="136.748" y1="158" y2="-80.8481"><stop offset="0" stop-color="#b473f5"/><stop offset="1" stop-color="#e292aa"/></linearGradient><linearGradient id="c" gradientUnits="userSpaceOnUse" x1="223.02" x2="231.6" y1="99.36" y2="110.02"><stop offset="0" stop-color="#3264f0"/><stop offset="1" stop-color="#578bfa"/></linearGradient><linearGradient id="d" gradientUnits="userSpaceOnUse" x1="197.43" x2="205.74" y1="73.71" y2="116.96"><stop offset="0" stop-color="#2452d4"/><stop offset="1" stop-color="#578bfa"/></linearGradient><linearGradient id="e" gradientUnits="userSpaceOnUse" x1="205.76" x2="205.76" y1="95.37" y2="83.5"><stop offset=".01" stop-color="#2951f0"/><stop offset="1" stop-color="#2951f0" stop-opacity="0"/></linearGradient><g filter="url(#a)"><path d="m1 0h274c2.209 0 4 1.79086 4 4v150c0 2.209-1.791 4-4 4h-274z" fill="url(#b)"/><g fill="#fff"><path d="m88.1202 29.1151h-9.7344c-.2485 0-.4658.1871-.4969.4367l-.4657 3.2436c-.0466.2963.1863.577.4968.577h1.7854c.1863 0 .295.1872.2329.3431-.2174.5146-.3881 1.0916-.4658 1.6998l-.9004 6.2846c-.59 4.2105 2.8877 6.3002 6.6914 6.3002 3.9745 0 7.8869-2.1053 8.4768-6.3002l.9005-6.2846c.5589-4.117-2.8101-6.2066-6.5206-6.3002zm1.863 6.3158-.9005 6.1443c-.2018 1.4502-1.832 2.1208-3.3379 2.1208-1.3973 0-2.7635-.6706-2.5772-1.9961l.9004-6.2846c.2019-1.3723 1.832-2.0741 3.338-2.0741s2.7946.7018 2.5772 2.0897z"/><path d="m34.1073 29.1152h-3.6329c-.2484 0-.4658.1871-.4968.4366l-1.1178 8v.0156l.0465 3.0877c0 .0624-.0465.1248-.1086.1404l-1.0402-3.7271v-.0156l-3.2448-7.6257c-.0777-.1872-.264-.3119-.4658-.3119h-3.6795c-.2484 0-.4658.1871-.4968.4366l-2.453 17.6219c-.0466.3118.2018.577.4968.577h3.664c.2484 0 .4657-.1872.4968-.4367l.9626-7.0019v-.0156l-.0466-3.5868.1087-.0312 1.1023 3.7271v.0156l3.0274 7.0332c.0776.1871.2639.3118.4658.3118h3.9745c.2484 0 .4657-.1871.4968-.4366l2.453-17.6218c.0466-.3119-.2018-.5926-.5124-.5926z"/><path d="m42.0563 29.1151h-3.6639c-.2485 0-.4658.1871-.4969.4367l-2.453 17.6062c-.0465.3119.2019.577.4968.577h3.664c.2484 0 .4658-.1871.4968-.4366l2.4531-17.6063c.0465-.2963-.1864-.577-.4969-.577z"/><path d="m59.2429 29.1151h-13.7089c-.2484 0-.4658.1871-.4968.4367l-.4813 3.2904c-.0466.3119.1863.577.4968.577h3.8347c.3106 0 .5434.2651.4969.577l-1.801 13.1618c-.0466.3119.2018.577.4968.577h3.7106c.2484 0 .4658-.1871.4968-.4366l1.8475-13.4425c.0311-.2496.2484-.4367.4968-.4367h4.1143c.2484 0 .4657-.1871.4968-.4366l.4813-3.2905c.0776-.2963-.1708-.577-.4813-.577z"/><path d="m69.7226 29.1151h-6.9709c-.2484 0-.4658.1871-.4968.4367l-2.4531 17.6062c-.0465.3119.2019.577.4969.577h3.7105c.2484 0 .4658-.1871.4968-.4366l.7142-5.2554c.0155-.1248.1242-.2183.2484-.2183h.4813c.0931 0 .1708.0467.2174.1247l3.5397 5.5673c.0932.1403.2484.2339.4347.2339h4.5956c.4036 0 .652-.4678.4191-.7953l-3.726-5.349c-.0932-.1247-.0466-.3118.0931-.3742 2.3754-1.1696 3.7571-2.3548 4.2074-5.692.5278-4.3665-2.1891-6.425-6.0083-6.425zm1.273 6.5029c-.1242 1.0761-.9625 2.1521-2.4064 2.1521h-2.158c-.3105 0-.5434-.2807-.4968-.577l.4657-3.2437c.0311-.2495.2484-.4366.4968-.4366h2.3133c1.3663 0 1.9252.9824 1.7854 2.1052z"/><path d="m33.9677 17.9648h2.6393c.6365 0 1.1799.0935 1.6146.2963.4037.1715.7452.4678.9936.8421.2174.3743.3416.7953.3261 1.2164 0 .4366-.1087.8577-.3416 1.2319-.2484.3899-.621.6862-1.0402.8733-.4658.2183-1.0557.3275-1.7388.3275h-2.453zm2.4374 3.5555c.4347 0 .7608-.1091.9937-.3274.2328-.234.357-.5459.3415-.8889.0155-.3119-.0931-.6082-.3105-.8265-.2018-.2028-.5123-.3119-.9315-.3119h-.8229v2.3391h.7297z"/><path d="m43.5157 22.7369c-.3415-.0936-.6831-.234-.9936-.4211v-1.1384c.2639.2027.5744.3431.8849.4211.3571.1091.7142.1559 1.0868.1715.1242 0 .2484-.0156.3726-.0624.0777-.0468.1242-.0936.1242-.1559 0-.0624-.0155-.1248-.0621-.1716-.0776-.0623-.1708-.0935-.2639-.1091l-.8073-.1872c-.4658-.1091-.7918-.2651-.9936-.4522-.2019-.2027-.3106-.4834-.295-.7641 0-.2496.0931-.4991.2639-.6862.2018-.2183.4502-.3743.7297-.4522.3571-.1092.7297-.1716 1.1178-.156.3571 0 .6987.0312 1.0402.1248.2795.0623.5434.1715.7918.3119v1.076c-.2329-.1404-.4813-.2339-.7297-.2963-.2794-.078-.5744-.1092-.8539-.1092-.4192 0-.6365.078-.6365.2183 0 .0624.031.1248.0931.156.1087.0468.2329.078.3571.1092l.6831.1247c.4348.078.7763.2183.9937.4055.2173.1871.326.4834.326.8577 0 .4054-.2018.7797-.5434.9824-.3571.2339-.8694.3587-1.537.3587-.3881-.0156-.7763-.0624-1.1489-.1559z"/><path d="m48.3286 22.5966c-.3571-.1716-.6676-.4367-.8849-.7797-.2019-.3275-.295-.7174-.295-1.1073 0-.3898.0931-.7641.3105-1.0916.2173-.3431.5279-.5926.9005-.7641.4502-.1871.9315-.2963 1.4128-.2807.6831 0 1.242.1403 1.6922.4366v1.2476c-.1707-.1092-.357-.2027-.5589-.2651-.2173-.0624-.4502-.1092-.6831-.1092-.4192 0-.7452.078-.9936.2339-.3416.1872-.4503.6082-.264.9513.0622.1092.1553.2027.264.2651.2329.156.5589.2339 1.0091.2339.2329 0 .4503-.0311.6676-.0935.2019-.0624.3882-.1404.5589-.2495v1.2007c-.5278.3119-1.1178.4679-1.7233.4523-.4813.0156-.9781-.078-1.4128-.2807z"/><path d="m53.157 22.5966c-.3726-.1716-.6831-.4367-.9004-.7798-.2019-.3274-.3106-.7173-.3106-1.1072 0-.3898.0932-.7641.3106-1.0916.2173-.3275.5278-.5926.9004-.7485.885-.3587 1.8941-.3587 2.7791 0 .357.1559.6676.421.8849.7485.2018.3275.3105.7174.3105 1.0916 0 .3899-.1087.7798-.3105 1.1072-.2173.3431-.5279.6082-.8849.7798-.9005.3742-1.8941.3742-2.7791 0zm2.0494-1.2164c.1708-.1715.2639-.4211.2484-.655.0155-.2495-.0776-.4834-.2484-.655-.1863-.1715-.4347-.2495-.6831-.2495-.2485-.0156-.4969.078-.6832.2495-.1707.1716-.2639.4055-.2484.655-.0155.2495.0777.4835.2484.655.1863.1715.4347.2651.6832.2495.2639.0156.5123-.078.6831-.2495z"/><path d="m61.1992 18.8226v1.4815c-.2019-.1247-.4347-.1871-.6676-.1715-.3571 0-.6366.1091-.8384.3275-.1863.2183-.295.5614-.295 1.0292v1.2476h-1.6612v-3.9922h1.6302v1.2631c.0931-.4678.2328-.8109.4347-1.0292.2018-.2184.4813-.3431.7762-.3275.2174 0 .4348.0624.6211.1715z"/><path d="m66.7261 17.8245v4.9122h-1.6612v-.8888c-.1242.3118-.3571.5925-.6365.7641-.326.1871-.6831.2807-1.0557.2651-.3416.0156-.6832-.0936-.9781-.2807-.2795-.1871-.5124-.4522-.6521-.7641-.1553-.3431-.2329-.7174-.2329-1.0917-.0155-.3898.0776-.7797.2329-1.1228.1553-.3275.4037-.5926.6986-.7797.3105-.1871.6676-.2807 1.0247-.2807.7918 0 1.3197.3431 1.5991 1.0292v-1.7621zm-1.9096 3.5243c.1708-.1715.264-.4054.2484-.6393 0-.234-.0931-.4679-.2484-.6238-.3881-.3275-.947-.3275-1.3507 0-.1708.1715-.2639.3898-.2484.6238-.0155.2339.0776.4678.2484.6393.1863.1716.4192.2495.6676.2495.2639.0156.4968-.0779.6831-.2495z"/><path d="m27.8509 16.7797c-.8073-.3586-1.6612-.6238-2.5462-.7797-.1242.2183-.2329.4366-.326.6706-.9315-.1404-1.8941-.1404-2.8256 0-.0932-.234-.2019-.4523-.3261-.6706-.8694.1559-1.7233.4211-2.5461.7953-1.5991 2.386-2.0339 4.7096-1.8165 7.0176.9471.7017 2.0028 1.2319 3.1206 1.575.2484-.3431.4813-.7017.6676-1.076-.3571-.1404-.7142-.3119-1.0557-.499.0931-.0624.1707-.1248.2639-.1872 1.9717.9357 4.254.9357 6.2412 0 .0776.0624.1708.1404.2639.1872-.3415.2027-.6831.3742-1.0557.499.1863.3743.4192.7329.6676 1.076 1.1178-.3431 2.1736-.8733 3.1206-1.575.2484-2.6667-.4502-4.9747-1.8475-7.0332zm-6.3344 5.6141c-.6055 0-1.1178-.5614-1.1178-1.232s.4813-1.2476 1.1023-1.2476 1.1178.5614 1.1178 1.2476-.4813 1.232-1.1023 1.232zm4.0987 0c-.6055 0-1.1023-.5614-1.1023-1.232s.4813-1.2476 1.1023-1.2476 1.1179.5614 1.1023 1.2476c0 .6862-.4813 1.232-1.1023 1.232z"/><path d="m40.9541 19.1812c.4544 0 .8228-.3352.8228-.7486s-.3684-.7485-.8228-.7485c-.4545 0-.8229.3351-.8229.7485s.3684.7486.8229.7486z"/><path d="m40.1312 19.6959c.5279.2183 1.1334.2183 1.6612 0v3.0721h-1.6612z"/></g></g><path d="m39.25 124.31c3.4413-1.176 7.121-1.479 10.7081-.88 3.5872.599 6.9692 2.08 9.8419 4.31h-53.08998s24.13998-12.38 32.53998-3.43z" fill="#fff" fill-opacity=".3"/><path d="m252.48 127c8.25-3.43 15.48 3.55 15.48 3.55h-33.18s9.78-10.92 17.7-3.55z" fill="#fff" fill-opacity=".3"/><path d="m268 22.88c-.15-7.34-7.49-13.23999-16.53-13.23999-7 0-12.95 3.51999-15.37 8.50999-1.228-.2175-2.473-.3279-3.72-.33-4.904-.0868-9.652 1.7263-13.25 5.06z" fill="#fff" fill-opacity=".6"/><path d="m99.4 134.72c-8.25 0-15.53 2.79-19.91 7-6.7198-2.021-13.7028-3.032-20.72-3-12.51 0-24 3.09-32.75 8.21h96.85c-2.72-7.02-12.19-12.21-23.47-12.21z" fill="#fff" fill-opacity=".6"/><path d="m143.7 124.63c-.682 1.787-1.932 3.3-3.558 4.307-1.627 1.006-3.539 1.45-5.442 1.263l-15.06-1.52 8.87-12.27c1.132-1.546 2.741-2.676 4.578-3.218 1.838-.542 3.802-.466 5.592.218 2.149.828 3.883 2.473 4.823 4.575.941 2.102 1.011 4.491.197 6.645z" fill="#ff8c19"/><path d="m143.45 121.8c-.384 1.014-1.093 1.872-2.015 2.441-.922.57-2.007.819-3.085.709l-8.52-.86 5-6.93c.636-.88 1.544-1.525 2.583-1.836 1.04-.311 2.153-.27 3.167.116.606.229 1.162.575 1.634 1.018.473.444.853.976 1.12 1.567.266.591.414 1.228.434 1.876s-.088 1.293-.318 1.899z" fill="#ed5f00"/><path d="m138.72 106.16c-1.026.995-2.352 1.622-3.772 1.785s-2.853-.148-4.078-.885l-9.87-5.82 9.73-5.47c1.26-.6909 2.711-.9506 4.132-.7393s2.734.8818 3.738 1.9093c.613.5975 1.103 1.3099 1.441 2.0967.338.7867.517 1.6323.529 2.4883.011.856-.147 1.706-.464 2.502-.318.795-.788 1.52-1.386 2.133z" fill="#ff8c19"/><path d="m139.39 104.16c-.579.565-1.328.923-2.131 1.017-.804.094-1.615-.081-2.309-.497l-5.58-3.29 5.5-3.1c.714-.3881 1.534-.5326 2.337-.4117.804.1209 1.545.5007 2.113 1.0817.347.3363.624.7379.815 1.182.192.443.293.92.3 1.403.006.484-.082.963-.262 1.412-.179.449-.445.857-.783 1.203z" fill="#ed5f00"/><path d="m211.39 100.91.23.2c6.15 5.22 12.5 9 23.51 10.61 1.24.124 2.48-.235 3.462-1.003.982-.767 1.631-1.884 1.81-3.117.179-1.234-.125-2.489-.848-3.504s-1.81-1.712-3.034-1.946c-8.8-1.27-13.49-4.05-18.64-8.41-.96-.7967-2.191-1.1918-3.435-1.103-1.245.0888-2.407.6547-3.244 1.5797s-1.285 2.1375-1.25 3.3846c.036 1.2471.551 2.4327 1.439 3.3087z" fill="url(#c)"/><path clip-rule="evenodd" d="m189.37 61.16-46.78-30.84 4.59 18.81c.889 3.6903 3.144 6.9065 6.31 9l37.24 24.55 2.33-3.54z" fill="#dae2ed" fill-rule="evenodd"/><path clip-rule="evenodd" d="m201.56 62.23-62.18-41c-.088-.0554-.191-.0836-.295-.081s-.205.0359-.291.0957c-.085.0597-.151.1433-.189.2403s-.047.2031-.025.305l1.34 5.88c.141.6628.527 1.2482 1.08 1.64l1.55 1 46.78 30.84 3.69 17.94-2.33 3.54-1.69 2.65 15.67 10.33 4.07-6.18-4.89-23.85c-.291-1.3754-1.114-2.5798-2.29-3.35z" fill="#eceff6" fill-rule="evenodd"/><path clip-rule="evenodd" d="m193.06 79.1-3.69-17.94-46.78-30.84.92 3.78 43.49 28.69 3.43 16.66-1.39 2.09 1.66 1.1z" fill="#c5cedd" fill-rule="evenodd"/><path clip-rule="evenodd" d="m212.5 82.3c1.376 6.5188.789 13.2993-1.688 19.484-2.477 6.185-6.732 11.497-12.227 15.264-5.496 3.767-11.985 5.82-18.647 5.899-6.662.08-13.198-1.818-18.781-5.453-5.584-3.635-9.965-8.843-12.588-14.968-2.624-6.1237-3.373-12.8883-2.152-19.4381 1.22-6.5497 4.355-12.5906 9.009-17.3587 4.653-4.7681 10.616-8.0495 17.134-9.4292 4.33-.9165 8.798-.9709 13.148-.1602 4.351.8108 8.5 2.4708 12.209 4.8853s6.906 5.5362 9.408 9.1866 4.261 7.7581 5.175 12.0883z" fill="#4f5d7f" fill-rule="evenodd"/><path clip-rule="evenodd" d="m201 84.74c.896 4.2334.518 8.6375-1.088 12.6559-1.605 4.0181-4.365 7.4711-7.932 9.9211s-7.78 3.788-12.106 3.846c-4.327.057-8.574-1.17-12.204-3.525-3.63-2.356-6.481-5.734-8.192-9.7087-1.71-3.9747-2.205-8.3673-1.421-12.6228.785-4.2556 2.813-8.1832 5.828-11.2866 3.016-3.1035 6.884-5.2436 11.115-6.1499 2.815-.6016 5.721-.6424 8.552-.1199 2.831.5224 5.531 1.5978 7.945 3.1647 2.415 1.5668 4.497 3.5943 6.128 5.9666s2.777 5.0427 3.375 7.8586z" fill="#7687b2" fill-rule="evenodd"/><path clip-rule="evenodd" d="m207.59 68.59c-1.14 5-17.25 14.09-27.5 18.82-8-1.84-27.57-7.37-31.13-13-.179-.2294-.308-.4939-.379-.7765-.071-.2825-.081-.5767-.031-.8635.052-.2022.129-.397.23-.58 2.404-4.4412 5.745-8.3072 9.79-11.3305 4.046-3.0232 8.7-5.1317 13.64-6.1795 12.59-2.67 25.7 2.06 35.06 12.63.165.1642.281.3701.338.5956.056.2255.05.4621-.018.6844z" fill="#ff7f14" fill-rule="evenodd"/><path clip-rule="evenodd" d="m180.27 89.17s-27-26.33-22.9-29.49c4.272-3.2787 9.223-5.561 14.49-6.68 14.19-3 27.67 3 36.68 13.16 6.38 7.25-28.27 23.01-28.27 23.01z" fill="#ff903e" fill-rule="evenodd"/><path clip-rule="evenodd" d="m197.66 85.44c.757 3.5816.435 7.3071-.924 10.7061-1.359 3.3989-3.696 6.3189-6.713 8.3909-3.018 2.072-6.582 3.203-10.243 3.25-3.66.048-7.253-.991-10.323-2.984-3.071-1.993-5.482-4.851-6.929-8.2136s-1.865-7.0785-1.201-10.6785 2.38-6.9226 4.931-9.548 5.823-4.436 9.402-5.2029c2.382-.5105 4.842-.5458 7.238-.104 2.396.4417 4.682 1.352 6.725 2.6785 2.044 1.3266 3.806 3.0434 5.185 5.052s2.348 4.2697 2.852 6.6535z" fill="#ebeff7" fill-rule="evenodd"/><path clip-rule="evenodd" d="m194.78 86.05c.639 3.0121.37 6.1459-.772 9.0053-1.143 2.8593-3.107 5.3157-5.645 7.0587s-5.536 2.695-8.615 2.734c-3.079.04-6.1-.835-8.682-2.512-2.582-1.678-4.609-4.0831-5.824-6.9123s-1.564-5.9551-1.003-8.9825c.562-3.0275 2.008-5.8206 4.157-8.0262 2.148-2.2055 4.902-3.7246 7.914-4.365 4.04-.8565 8.256-.0736 11.719 2.1766 3.464 2.2502 5.892 5.7835 6.751 9.8234z" fill="#dae2ed" fill-rule="evenodd"/><path clip-rule="evenodd" d="m172 80.7 9.4-2.93c.282-.0889.582-.1014.87-.0364s.554.2052.77.4064l7.24 6.67c.216.2017.376.4563.464.7387.087.2823.1.5826.036.8713l-2.14 9.58c-.065.2873-.204.5525-.404.7685-.201.216-.454.3752-.736.4615l-9.4 2.93c-.282.089-.582.101-.87.036s-.554-.2048-.77-.406l-7.24-6.68c-.216-.1996-.376-.4524-.464-.7332s-.1-.5797-.036-.8668l2.17-9.61c.065-.2792.201-.5367.396-.7471s.441-.3665.714-.4529z" fill="#c5cedd" fill-rule="evenodd"/><path clip-rule="evenodd" d="m184.82 88.16c.222 1.0449.129 2.1322-.267 3.1243-.395.9922-1.077 1.8446-1.957 2.4495-.881.6049-1.921.9351-2.989.9487-1.068.0137-2.116-.2898-3.012-.8719-.896-.5822-1.598-1.417-2.02-2.3987-.421-.9817-.541-2.0662-.346-3.1165.195-1.0502.698-2.0189 1.444-2.7835s1.702-1.2907 2.747-1.5119c.693-.1481 1.409-.1579 2.107-.0289.697.129 1.362.3944 1.956.7808.595.3864 1.107.8864 1.508 1.4712s.683 1.243.829 1.9369z" fill="#b7c2ce" fill-rule="evenodd"/><path clip-rule="evenodd" d="m231.55 115.67-24.17-5.75c-.105-.055-.188-.143-.237-.25-.049-.108-.061-.229-.033-.344.027-.115.092-.217.185-.291.092-.073.207-.114.325-.115l24.17 5.76c.138.03.282.005.401-.07.12-.074.206-.193.239-.33l.92-3.86c-.001-.081.017-.16.052-.233.034-.073.085-.136.148-.187.063-.05.137-.085.215-.102.079-.018.16-.017.239.002.078.019.151.055.213.106s.112.116.145.189c.034.074.05.154.048.234-.002.081-.023.16-.06.231l-.92 3.87c-.104.397-.358.738-.709.951-.351.212-.771.28-1.171.189z" fill="#e4e9f7" fill-rule="evenodd"/><path clip-rule="evenodd" d="m235.11 113.26-3.6-.85c-.135-.035-.251-.122-.324-.241-.073-.12-.096-.263-.066-.399l2.63-11.06c.033-.137.119-.254.239-.328.12-.073.264-.095.401-.062l3.6.86c.067.015.131.044.187.084s.104.091.14.149c.036.059.06.124.071.192s.008.138-.008.205l-2.63 11.06c-.035.135-.122.251-.241.324-.12.073-.263.096-.399.066z" fill="#000" fill-rule="evenodd"/><path clip-rule="evenodd" d="m213.93 107.85-3.6-.86c-.137-.033-.254-.119-.328-.239-.073-.12-.095-.264-.062-.401l2.63-11c.015-.0683.044-.1328.085-.1897.04-.057.092-.1051.152-.1415s.126-.0604.195-.0705c.07-.0101.14-.0061.208.0117l3.6.85c.135.0355.251.122.324.2413.073.1194.096.2623.066.3987l-2.63 11.06c-.044.127-.134.233-.253.296-.119.064-.257.079-.387.044z" fill="#000" fill-rule="evenodd"/><path d="m212.69 105.09-.93 3.87c-.064.273-.234.509-.472.657s-.525.196-.798.133l-24.17-5.75" stroke="#2f3849" stroke-width="12.02"/><path d="m199.33 145.05c.674.282 1.397.428 2.128.43.731.001 1.455-.141 2.13-.42.676-.279 1.289-.688 1.806-1.205.517-.516.927-1.13 1.206-1.805l7.12-17c.564-1.362.565-2.892.002-4.255-.562-1.363-1.642-2.447-3.002-3.015-1.361-.563-2.889-.564-4.25-.002-1.362.563-2.444 1.642-3.01 3.002-2 4.85-5.07 12.12-7.11 17-.282.673-.428 1.396-.429 2.126-.002.73.141 1.453.42 2.128.279.674.688 1.287 1.204 1.803.517.516 1.13.925 1.805 1.203z" fill="#578bfa"/><path d="m177.18 138.8 15.79-13c2.44-2 3.46-5.52 2.18-8.16-1.55-3.2-5.48-3.8-8.34-1.44l-15.95 13.12c-1.276 1.004-2.146 2.436-2.449 4.031-.303 1.596-.019 3.247.799 4.649 1.79 2.63 5.31 3 7.97.8z" fill="#578bfa"/><path d="m192.47 82.42 34.06 8.58.07 22.88c.016 3.099-1.016 6.112-2.93 8.55-1.514 1.933-3.518 3.425-5.805 4.321-2.286.895-4.771 1.161-7.195.769l-21.05-3.35c-2.53-.401-4.873-1.579-6.704-3.371-1.831-1.791-3.06-4.108-3.516-6.629-.47-2.619-.081-5.32 1.11-7.7z" fill="url(#d)"/><path d="m226.54 95.77-.01-9.87-5.58.3-35.98 3.85z" fill="url(#e)"/><path d="m168.17 113 6.82 3.56c.124.064.228.161.3.28s.111.256.111.395-.039.276-.111.395-.176.216-.3.28l-6.78 3.65c-.692.371-1.464.568-2.249.575-.785.006-1.561-.178-2.259-.537s-1.299-.882-1.751-1.524c-.451-.643-.74-1.385-.841-2.164-.112-.879.019-1.773.379-2.583s.935-1.506 1.663-2.012 1.58-.803 2.465-.858c.885-.056 1.768.132 2.553.543z" fill="#578bfa"/><path clip-rule="evenodd" d="m210.37 110.26-24.17-5.75c-.137-.033-.254-.119-.328-.239-.073-.12-.095-.264-.062-.401.015-.067.044-.131.084-.187s.091-.104.149-.14c.059-.036.124-.06.192-.071s.138-.008.205.008l24.17 5.75c.137.033.281.011.401-.062.12-.074.206-.191.239-.328l.92-3.87c.001-.08.02-.159.055-.231.036-.071.087-.134.151-.183.063-.049.137-.083.215-.1.079-.016.16-.014.238.005.077.019.15.056.211.108.061.051.11.116.143.189s.049.152.047.232c-.003.08-.023.159-.06.23l-.92 3.87c-.1.401-.352.748-.703.966s-.773.292-1.177.204z" fill="#e4e9f7" fill-rule="evenodd"/><path clip-rule="evenodd" d="m213.93 107.85-3.6-.86c-.137-.033-.254-.119-.328-.239-.073-.12-.095-.264-.062-.401l2.63-11c.015-.0683.044-.1328.085-.1897.04-.057.092-.1051.152-.1415s.126-.0604.195-.0705c.07-.0101.14-.0061.208.0117l3.6.85c.135.0355.251.122.324.2413.073.1194.096.2623.066.3987l-2.63 11.06c-.044.127-.134.233-.253.296-.119.064-.257.079-.387.044z" fill="#000" fill-rule="evenodd"/><path d="m186.36 99.28.25.16c6.68 4.1 13.34 6.81 24.16 6.7 1.211-.067 2.349-.599 3.178-1.484.828-.885 1.284-2.056 1.271-3.269-.013-1.212-.493-2.3733-1.341-3.2408-.847-.8675-1.996-1.3747-3.208-1.4162-8.63.09-13.56-1.88-19.15-5.3-1.041-.6322-2.286-.8359-3.474-.5681-1.187.2677-2.225.9859-2.894 2.0033-.668 1.0174-.916 2.2547-.691 3.4512.225 1.1966.906 2.259 1.899 2.9636z" fill="#6494fa"/><g clip-rule="evenodd" fill-rule="evenodd"><path d="m194.07 91.79 27.68.12c2.375.0001 4.654-.9385 6.339-2.6112 1.686-1.6728 2.643-3.944 2.661-6.3188l.07-16.61c0-2.3749-.939-4.6535-2.611-6.3393-1.673-1.6859-3.944-2.6422-6.319-2.6607l-27.68-.12c-2.375-.0001-4.653.9385-6.339 2.6112-1.686 1.6728-2.643 3.944-2.661 6.3188l-.07 16.61c0 2.3749.939 4.6535 2.611 6.3393 1.673 1.6859 3.944 2.6422 6.319 2.6607z" fill="#80a7ff"/><path d="m199.9 91.82 27.67.12c2.377.0001 4.657-.9399 6.343-2.6148 1.686-1.6748 2.641-3.9486 2.657-6.3252l.07-16.6c0-2.3748-.939-4.6535-2.611-6.3393-1.673-1.6858-3.944-2.6422-6.319-2.6607l-27.68-.13c-2.377 0-4.657.9399-6.343 2.6148s-2.641 3.9487-2.657 6.3252l-.03 16.59c-.005 2.3732.927 4.6525 2.594 6.3418 1.666 1.6893 3.933 2.6519 6.306 2.6782z" fill="#9cb8ff"/><path d="m187.84 80.74h6.6l.07-16.15h-6.6c-1.591 0-3.117.6321-4.243 1.7573-1.125 1.1252-1.757 2.6514-1.757 4.2427v4.19c.01 1.5723.638 3.0777 1.747 4.1923s2.611 1.7494 4.183 1.7677z" fill="#9cb8ff"/><path d="m194.46 77.18v-9c0-.1591-.063-.3117-.176-.4242-.112-.1126-.265-.1758-.424-.1758h-6c-.796 0-1.559.3161-2.121.8787-.563.5626-.879 1.3257-.879 2.1213v4.19c0 .7957.316 1.5587.879 2.1213.562.5626 1.325.8787 2.121.8787h6c.157 0 .309-.0618.421-.1722.112-.1103.176-.2604.179-.4178z" fill="#80a7ff"/><path d="m204.87 75.58c.596.0119 1.182-.1539 1.683-.4762s.895-.7866 1.131-1.3336.304-1.152.195-1.7379c-.108-.5858-.389-1.1259-.806-1.5515s-.952-.7173-1.535-.838c-.584-.1207-1.19-.0649-1.742.1603-.551.2251-1.024.6095-1.356 1.1041s-.51 1.0769-.51 1.6728c0 .7853.308 1.5394.857 2.1004.55.5609 1.298.8839 2.083.8996z" fill="#000"/><path d="m226.06 83.1h5.39c2.377 0 4.657-.9399 6.343-2.6148s2.641-3.9487 2.657-6.3252v-4.19c0-.9496-.375-1.8608-1.044-2.535-.668-.6743-1.576-1.0571-2.526-1.065l-16.16-.07c-.95 0-1.861.3751-2.535 1.0438-.674.6686-1.057 1.5766-1.065 2.5262v4.19c-.011 2.3835.925 4.6739 2.601 6.3686 1.676 1.6948 3.956 2.6555 6.339 2.6714z" fill="#cbdaf7"/><path d="m228.51 76.34h-3.89c-.398 0-.779.158-1.061.4393-.281.2813-.439.6628-.439 1.0607 0 .3978.158.7793.439 1.0606.282.2813.663.4394 1.061.4394h3.88c.398 0 .779-.1581 1.061-.4394.281-.2813.439-.6628.439-1.0606 0-.3979-.158-.7794-.439-1.0607-.282-.2813-.663-.4393-1.061-.4393zm7 0h-1.51c-.398 0-.779.158-1.061.4393-.281.2813-.439.6628-.439 1.0607 0 .3978.158.7793.439 1.0606.282.2813.663.4394 1.061.4394h1.49c.398 0 .779-.1581 1.061-.4394.281-.2813.439-.6628.439-1.0606 0-.3979-.158-.7794-.439-1.0607-.282-.2813-.663-.4393-1.061-.4393z" fill="#9cb8ff"/><path d="m238.52 61.05c2.473 4.226 3.712 9.0607 3.575 13.9552-.136 4.8944-1.641 9.6527-4.345 13.7348l-5.27 3-33.84-1.6-8.18-11 8.32-21.93 28.94.15z" fill="#4871e5" fill-opacity=".4"/><path d="m211.58 48.82c-19.72-.08-30.67 13.18-30.71 24.18s12.87 12 15.94 4.29l6.46-16.86 28.15 3.78 7.1-3.17c-2.62-4.3-12.32-12.15-26.94-12.22z" fill="#c9dcff"/><path d="m194.68 79.19 17.79 9.44 25.28.11-2.48 4.09-42.5-.18-2.23-8.15z" fill="#c9dcff"/><path d="m190.62 66.26-5.3 1.65-2.32-9.37c-.122-.5325-.038-1.0913.234-1.5648.272-.4736.713-.8271 1.234-.9899.522-.1629 1.085-.1231 1.579.1113.493.2345.88.6463 1.083 1.1534z" fill="#dae2ed"/><path d="m183.85 61.87 1.47 6 5.3-1.65-2.23-5.81c-1.51.52-3.02 1-4.54 1.46z" fill="#b7c2ce"/><path d="m185.51 105.69-21.13-.18.07-8 21.13.17z" fill="#b7c2ce"/><path d="m167.43 107.64-27.22 2.62c-.257.024-.515-.015-.754-.112-.238-.098-.45-.251-.616-.448-.87-1-2.34-3.53-2.3-8.41s1.55-7.35 2.44-8.38c.167-.194.38-.3439.619-.4363.239-.0925.497-.1246.751-.0937l27.18 3c.26.0296.5.1542.673.3499.174.1957.269.4486.267.7101l-.09 10.12c.011.134-.005.268-.048.396-.042.127-.109.245-.198.346-.089.1-.197.182-.318.24-.12.059-.252.092-.386.098z" fill="#c5cedd"/><path d="m162.17 98.8c-.002.2492-.078.4922-.218.6983s-.338.366-.569.4595c-.231.0932-.485.1162-.729.0662-.244-.0508-.467-.1726-.642-.3502s-.293-.4031-.34-.6479c-.046-.2447-.019-.4979.078-.7273.097-.2295.26-.425.468-.5618.209-.1368.453-.2088.702-.2068.165.0013.329.0352.481.0997.153.0645.291.1584.407.2764.116.1179.208.2576.27.4109.062.1534.093.3175.092.483zm-6-.57c.006.2508-.063.4977-.198.709-.135.2114-.331.3775-.561.4772s-.485.1284-.732.0824c-.246-.046-.474-.1646-.652-.3406-.179-.1759-.301-.4013-.351-.6471-.05-.2459-.026-.5011.07-.7329s.259-.4297.468-.5683.455-.2116.706-.2097c.327.0025.641.1323.874.3618.233.2296.368.541.376.8682z" fill="#b7c2ce"/><path d="m185.55 104.32-19.12 8.68-3.31-7.3 19.12-8.7z" fill="#d0d9ea"/><path d="m170.09 113.63-23.6 13.81c-.22.133-.469.21-.726.222s-.513-.04-.744-.152c-1.23-.58-3.61-2.22-5.63-6.67s-1.68-7.32-1.31-8.62c.069-.244.195-.468.37-.653.174-.185.39-.324.63-.407l25.92-8.66c.249-.085.52-.073.761.032.241.106.433.298.539.538l4.18 9.21c.111.234.133.5.061.749s-.232.462-.451.601z" fill="#ebeff7"/><path d="m161.61 107.82c.104.229.138.483.098.731-.041.248-.154.479-.325.662-.172.184-.394.313-.638.37-.245.057-.501.041-.737-.047-.235-.088-.439-.244-.585-.449-.147-.204-.23-.447-.238-.698s.058-.499.191-.713c.132-.213.325-.382.554-.486.306-.139.655-.151.97-.032.315.118.571.356.71.662zm-5.55 2.71c.102.227.135.479.094.725s-.154.473-.325.655c-.17.181-.391.308-.633.365-.243.056-.497.039-.73-.049s-.434-.243-.579-.445c-.145-.203-.227-.444-.235-.693-.008-.248.057-.494.189-.706.131-.211.322-.379.549-.482.151-.069.314-.107.48-.112.165-.006.331.022.486.08.155.059.297.147.418.261.121.113.218.25.286.401z" fill="#b7c2ce"/><path d="m198.48 76.31c-.78 6.08-5.56 10.49-10.68 9.83s-8.65-6.11-7.87-12.2 5.56-10.48 10.68-9.83 8.65 6.12 7.87 12.2z" fill="#dae2ed"/><path d="m194.63 76c-.56 4.33-3.95 7.45-7.59 7s-6.15-4.35-5.59-8.67 4-7.45 7.58-7 6.15 4.31 5.6 8.67z" fill="#b7c2ce"/><path d="m192.53 75.72c-.4 3.1-2.83 5.34-5.44 5s-4.4-3.11-4-6.21 2.83-5.33 5.43-5 4.4 3.12 4.01 6.21z" fill="#ff903e"/><path d="m186.74 78-.61-.25c-.081-.0332-.145-.0971-.179-.1778-.034-.0806-.034-.1713-.001-.2522l2.13-5.15c.033-.0808.097-.1451.178-.1789.08-.0337.171-.0341.252-.0011l.61.25c.079.0353.142.0994.175.1793.034.0799.035.1696.005.2507l-2.14 5.15c-.015.0397-.039.0759-.068.1065-.03.0306-.065.055-.104.0717-.039.0168-.081.0256-.124.0259-.042.0003-.085-.0079-.124-.0241z" fill="#ff7f14"/><path d="m184.69 109.37-6.64-1.59 5.27-22.11 9.21 2.19-4.65 19.55c-.166.681-.594 1.269-1.192 1.636-.597.367-1.315.484-1.998.324z" fill="#000"/><path d="m167.26 55.9-46.79-30.84 4.6 18.81c.889 3.6903 3.144 6.9065 6.31 9l37.24 24.54 2.32-3.53z" fill="#dae2ed"/><path d="m179.44 57-62.17-41c-.088-.0587-.192-.0896-.298-.0887-.106.001-.21.0338-.297.0941s-.154.1454-.193.2442c-.038.0989-.046.207-.022.3104l1.35 5.89c.164.6397.564 1.1936 1.12 1.55l1.54 1 46.79 30.9 3.68 17.94-2.32 3.53-1.75 2.63 15.67 10.33 4.07-6.18-4.9-23.85c-.292-1.3564-1.108-2.5424-2.27-3.3z" fill="#eceff6"/><path d="m170.94 73.84-3.68-17.94-46.79-30.84.93 3.77 43.52 28.69 3.42 16.66-1.34 2.1 1.66 1.09z" fill="#c5cedd"/><path d="m120.61 22.93c-.173-.1147-.308-.278-.388-.4693s-.101-.402-.062-.6055c.04-.2035.139-.3908.285-.5382.145-.1474.332-.2483.535-.29s.414-.0224.606.0555c.192.078.357.2111.473.3825.117.1715.18.3736.182.5809s-.058.4106-.171.5841c-.076.116-.174.2158-.288.2937-.115.0779-.244.1324-.38.1603-.135.0279-.275.0286-.411.0022s-.266-.0795-.381-.1562zm3.75 2.48c-.175-.1147-.313-.2788-.395-.4715s-.105-.4054-.066-.6113c.039-.2058.137-.3956.284-.5453.146-.1497.334-.2527.539-.2959s.418-.0247.612.0531c.195.0778.362.2115.481.3842.118.1726.183.3766.186.586.002.2094-.057.415-.171.5907-.076.1171-.174.2181-.289.2971s-.245.1345-.382.1633c-.136.0288-.277.0303-.414.0045s-.268-.0784-.385-.1549zm53.41 35.2c-.176-.1146-.314-.2791-.397-.4724-.082-.1933-.105-.4067-.066-.6132s.139-.3967.286-.5465c.147-.1497.336-.2522.542-.2946.206-.0423.42-.0224.614.0571.195.0794.361.215.479.3893.117.1743.18.3796.18.5898.001.2102-.061.4157-.178.5905-.155.2321-.395.3938-.668.45-.274.0561-.558.0022-.792-.15z" fill="#dae2ed"/><path d="m187.58 91.71-10.65-2.54c-.427-.1046-.797-.3727-1.029-.7467-.232-.3739-.307-.824-.211-1.2533l1.36-5.73c.102-.4293.37-.8011.744-1.035s.825-.3111 1.256-.215l10.65 2.54c.429.1023.801.3695 1.035.7438.234.3742.311.8254.215 1.2562l-1.37 5.74c-.107.4261-.375.7938-.749 1.0253-.373.2314-.822.3084-1.251.2147z" fill="#ff5c5c"/><path d="m190.77 95.5-8.37-2c-1.091-.2588-2.035-.9404-2.624-1.8949s-.774-2.1038-.516-3.1951l1.55-6.52c.129-.5405.364-1.0502.69-1.5.326-.4499.738-.831 1.211-1.1217.474-.2907 1-.4852 1.549-.5724s1.11-.0654 1.65.0641l8.38 2c.408.0996.759.3562.978.714.22.3578.288.7877.192 1.196l-2.78 11.66c-.1.4076-.356.7592-.714.9784s-.788.288-1.196.1916z" fill="#bec7d6"/><path d="m221 47.24-.48 3.21c2.656 2.1431 4.984 4.6631 6.91 7.48l2.94-6.69c-2.37-1.69-5.58-2.71-9.37-4z" fill="#ff7f14"/><path d="m227.41 57.93 2.94-6.69 2.49 6.76z" fill="#ff903e"/></g><path d="m110.29 89.76c-.603-.3917-1.12-.9021-1.52-1.5-.393-.6037-.65-1.2865-.75-2l-.37-2.45c-.01-.0571-.038-.1095-.08-.15-.045-.0382-.101-.0594-.16-.06-.062-.0001-.122.0211-.17.06-.042.0405-.07.0929-.08.15l-.36 2.45c-.105.7123-.361 1.3941-.75 2-.393.5999-.908 1.1108-1.51 1.5l-.32.21c-.036.0199-.064.0517-.08.09-.01.036-.01.074 0 .11-.012.0391-.012.0808 0 .12.016.0383.044.07.08.09l.32.21c.609.3887 1.126.9046 1.516 1.5123.39.6076.644 1.2926.744 2.0077l.36 2.44c.007.0581.036.1114.08.15.048.0389.108.06.17.06.059.0004.116-.0207.16-.0594s.073-.0923.08-.1506l.35-2.45c.1-.7121.352-1.3943.74-2 .392-.6073.91-1.1224 1.52-1.51l.31-.21c.039-.0194.071-.051.09-.09.016-.0385.016-.0815 0-.12.007-.0174.011-.0361.011-.055s-.004-.0376-.011-.055c-.019-.039-.051-.0706-.09-.09z" fill="#5865f2"/><path d="m251.1 43.16c-.745-.4731-1.379-1.1006-1.86-1.84-.48-.7331-.794-1.5625-.92-2.43l-.45-3c-.01-.0702-.046-.1342-.1-.18-.054-.0514-.126-.08-.2-.08s-.146.0286-.2.08c-.054.0458-.09.1098-.1.18l-.44 3c-.125.8675-.44 1.6969-.92 2.43-.479.7341-1.106 1.3607-1.84 1.84l-.39.25c-.043.0266-.078.0647-.1.11-.015.0455-.015.0945 0 .14-.014.0491-.014.1009 0 .15.023.0426.057.0775.1.1l.39.26c.74.4713 1.371 1.0952 1.85 1.83.471.7443.781 1.5789.91 2.45l.44 3c.013.0694.048.1327.1.18.057.0454.127.0702.2.0702s.143-.0248.2-.0702c.052-.0473.087-.1106.1-.18l.45-3c.126-.8739.437-1.7107.913-2.4541.476-.7435 1.106-1.3763 1.847-1.8559l.39-.25c.041-.0293.075-.0668.1-.11.02-.044.03-.0917.03-.14s-.01-.096-.03-.14c-.025-.0432-.059-.0807-.1-.11z" fill="#ffa8ee"/><path d="m260.66 67c-.361-.2278-.668-.5315-.9-.89-.232-.3569-.385-.7592-.45-1.18l-.22-1.45c.006-.0141.01-.0295.01-.045s-.004-.0308-.01-.045c-.029-.0092-.061-.0092-.09 0-.033-.0094-.067-.0094-.1 0-.025.0248-.042.056-.05.09l-.26 1.52c-.069.4198-.222.8212-.45 1.18-.228.3581-.532.6618-.89.89l-.19.12s0 0-.05 0c-.003.0232-.003.0468 0 .07-.006.023-.006.0471 0 .07 0 0 0 0 .05.06l.19.12c.358.2318.662.539.89.9.238.3574.392.7643.45 1.19l.21 1.45c.011.03.028.0573.05.08.016.0066.033.01.05.01s.034-.0034.05-.01c.014.0064.029.0096.045.0096.015 0 .031-.0032.045-.0096.006-.0126.008-.0262.008-.04s-.002-.0274-.008-.04l.22-1.46c.06-.4235.21-.8292.44-1.19.232-.3609.539-.6678.9-.9l.19-.12h.05c.005-.0231.005-.0469 0-.07.006-.023.006-.047 0-.07 0 0 0 0-.05 0z" fill="#fff29a"/></svg>