<?xml version="1.0" encoding="UTF-8" standalone="no" ?>
<svg width="158" height="130" xmlns="http://www.w3.org/2000/svg" xmlns:xlink="http://www.w3.org/1999/xlink">
    <defs>
        <rect id="a" x="0" y="0" width="80" height="80" rx="40" />
    </defs>
    <g fill="none" fill-rule="evenodd">
        <path d="M151.113 82.556a4.556 4.556 0 11-9.113 0 4.556 4.556 0 019.113 0h0zM106 19.556a4.556 4.556 0 109.113 0 4.556 4.556 0 00-9.113 0h0zM28 35.556a4.556 4.556 0 109.113 0 4.556 4.556 0 00-9.113 0h0zM23 111.556a4.556 4.556 0 109.113 0 4.556 4.556 0 00-9.113 0h0zM2 82.556a4.556 4.556 0 109.113 0 4.556 4.556 0 00-9.113 0h0z" stroke="#595D63" stroke-width="2.252" stroke-linecap="round" />
        <g stroke="#494C51" stroke-width="2.252" stroke-linecap="round">
            <path d="M42.927 43.17l1.235 1.234M50.428 50.67l1.235 1.235M42.927 51.906l1.235-1.235M50.428 44.405l1.235-1.235" />
        </g>
        <path d="M124 60h3.341M131 60h3.341M129 57.087V56M129 64.087V63" stroke="#494C51" stroke-width="2.252" stroke-linecap="round" />
        <g stroke-linecap="round" stroke-width="2.252" stroke="#595D63">
            <path d="M131.532 112.483v-3.341M131.532 104.635v-3.34M128.696 106.889h-1.087M135.456 106.889h-1.087" />
        </g>
        <g stroke-linecap="round" stroke-width="2.252" stroke="#595D63">
            <path d="M40.468 128.753v-3.341M40.468 120.905v-3.34M43.304 123.159h1.087M36.544 123.159h1.087" />
        </g>
        <g stroke="#494C51" stroke-width="2.252" stroke-linecap="round">
            <path d="M140.662 53.228v-3.341M140.662 45.38v-3.34M137.825 47.634h-1.087M144.586 47.634h-1.087" />
        </g>
        <g stroke="#494C51" stroke-width="2.252" stroke-linecap="round">
            <path d="M95.662 13.228V9.887M95.662 5.38V2.04M92.825 7.634h-1.087M99.586 7.634h-1.087" />
        </g>
        <g stroke="#494C51" stroke-width="2.252" stroke-linecap="round">
            <path d="M121.338 125.958v-3.341M121.338 118.11v-3.34M124.175 120.364h1.087M117.414 120.364h1.087" />
        </g>
        <g stroke="#494C51" stroke-width="2.252" stroke-linecap="round">
            <path d="M48.152 11.155v3.34M48.152 19.003v3.34M50.989 16.75h1.087M44.228 16.75h1.087" />
        </g>
        <path d="M156.841 94.36l-1.235 1.234M149.34 101.86l-1.234 1.235M156.841 103.095l-1.235-1.235M149.34 95.594l-1.234-1.234" stroke="#494C51" stroke-width="2.252" stroke-linecap="round" />
        <path d="M151.353 98.727a1.12 1.12 0 102.24 0 1.12 1.12 0 00-2.24 0" fill="#494C51" />
        <path d="M127.841 33.36l-1.234 1.234M120.34 40.86l-1.234 1.235M127.841 42.095l-1.234-1.235M120.34 34.594l-1.234-1.235" stroke="#494C51" stroke-width="2.252" stroke-linecap="round" />
        <path d="M122.353 37.727a1.12 1.12 0 102.24 0 1.12 1.12 0 00-2.24 0" fill="#494C51" />
        <path d="M34.842 77.36l-1.235 1.234M27.34 84.86l-1.234 1.235M34.842 86.095l-1.235-1.235M27.34 78.594l-1.234-1.234" stroke="#494C51" stroke-width="2.252" stroke-linecap="round" />
        <path d="M29.353 81.727a1.12 1.12 0 102.24 0 1.12 1.12 0 00-2.24 0" fill="#494C51" />
        <g>
            <path d="M85 17v1.747M85 27v1.747M79 23h1.747M90 23h1.747" stroke="#595D63" stroke-width="2.252" stroke-linecap="round" />
            <path d="M85.912 23.913a1.119 1.119 0 11-1.584-1.584 1.119 1.119 0 111.584 1.584" fill="#494C51" />
        </g>
        <path d="M147.729 118.365a1.365 1.365 0 11-2.73 0 1.365 1.365 0 012.73 0M17 99.365a1.365 1.365 0 102.73 0 1.365 1.365 0 00-2.73 0" fill="#494C51" />
        <path d="M61.729 29.365a1.365 1.365 0 11-2.73 0 1.365 1.365 0 012.73 0M67.729 12.365a1.365 1.365 0 11-2.73 0 1.365 1.365 0 012.73 0M88.729 47.365a1.365 1.365 0 11-2.73 0 1.365 1.365 0 012.73 0M110.729 41.365a1.365 1.365 0 11-2.73 0 1.365 1.365 0 012.73 0M152.729 69.365a1.365 1.365 0 11-2.73 0 1.365 1.365 0 012.73 0M15 122.365a1.365 1.365 0 102.73 0 1.365 1.365 0 00-2.73 0" fill="#595D63" />
        <g>
            <path d="M19.54 50.917v2.128M19.54 61.906v1.747M13.363 57.475h1.747M23.97 57.475h1.748" stroke="#494C51" stroke-width="2.252" stroke-linecap="round" />
            <path d="M20.333 58.268a1.119 1.119 0 11-1.584-1.584 1.119 1.119 0 111.584 1.584" fill="#494C51" />
        </g>
        <g>
            <g transform="translate(40 43)">
                <use stroke-opacity=".2" stroke="#FFF" stroke-width="6" xlink:href="#a" />
                <use xlink:href="#a" />
            </g>
            <path d="M62.77 81.24l-5.17 5.28 13.785 14.08L102.4 70.68l-5.17-5.28-25.845 24.64-8.616-8.8z" fill="#43B581" />
        </g>
    </g>
</svg>