<svg width="40" height="40" viewBox="0 0 40 40" fill="none" xmlns="http://www.w3.org/2000/svg">
<g clip-path="url(#clip0_161_65621)">
<path d="M40 20C40 23.9556 38.827 27.8224 36.6294 31.1114C34.4318 34.4004 31.3082 36.9638 27.6537 38.4776C23.9992 39.9913 19.9778 40.3874 16.0982 39.6157C12.2186 38.844 8.65492 36.9392 5.85787 34.1421C3.06082 31.3451 1.15601 27.7814 0.384303 23.9018C-0.387401 20.0222 0.00866572 16.0009 1.52242 12.3463C3.03617 8.69181 5.59962 5.56824 8.8886 3.37061C12.1776 1.17298 16.0444 0 20 0C25.3043 0 30.3914 2.10714 34.1421 5.85786C37.8929 9.60859 40 14.6957 40 20Z" fill="#E2E2E3"/>
<path d="M24.9417 32.7917C23.3769 32.1291 21.695 31.7877 19.9958 31.7877C18.2966 31.7877 16.6147 32.1291 15.05 32.7917C15.1069 31.8376 15.4383 30.9202 16.0045 30.15C16.5706 29.3798 17.3473 28.7897 18.241 28.4507C19.1348 28.1117 20.1074 28.0383 21.0419 28.2392C21.9764 28.4402 22.8329 28.907 23.5083 29.5834C24.3697 30.4365 24.8809 31.5809 24.9417 32.7917Z" fill="#9F9F9F"/>
<path d="M30.8667 22.4502H25.3167C24.7874 22.4502 24.3583 22.8774 24.3583 23.4044C24.3583 23.9313 24.7874 24.3585 25.3167 24.3585H30.8667C31.3959 24.3585 31.825 23.9313 31.825 23.4044C31.825 22.8774 31.3959 22.4502 30.8667 22.4502Z" fill="#9F9F9F"/>
<path d="M14.6833 22.4502H9.13332C8.60405 22.4502 8.17499 22.8774 8.17499 23.4044C8.17499 23.9313 8.60405 24.3585 9.13332 24.3585H14.6833C15.2126 24.3585 15.6417 23.9313 15.6417 23.4044C15.6417 22.8774 15.2126 22.4502 14.6833 22.4502Z" fill="#9F9F9F"/>
<path d="M8.35603 8L6.25603 12.1667C6.0733 12.5254 5.98579 12.925 6.00188 13.3273C6.01797 13.7295 6.13713 14.1209 6.34793 14.4639C6.55874 14.8069 6.85411 15.0899 7.20574 15.2859C7.55737 15.482 7.95346 15.5844 8.35603 15.5833C8.75533 15.5831 9.14793 15.4808 9.49654 15.286C9.84514 15.0913 10.1382 14.8107 10.3478 14.4708C10.5574 14.131 10.6766 13.7432 10.6941 13.3442C10.7115 12.9453 10.6267 12.5486 10.4477 12.1917L8.35603 8Z" fill="#8B8F94"/>
</g>
<defs>
<clipPath id="clip0_161_65621">
<rect width="40" height="40" fill="white"/>
</clipPath>
</defs>
</svg>
