<svg width="348" height="220" viewBox="0 0 348 220" fill="none" xmlns="http://www.w3.org/2000/svg">
<g clip-path="url(#clip0_37_8350)">
<g opacity="0.15">
<path d="M400.017 409.296L253.602 125.691L321.555 409.296H400.017Z" fill="url(#paint0_radial_37_8350)"/>
<path d="M49.2621 -270.112L253.602 125.691L158.766 -270.112H49.2621Z" fill="url(#paint1_radial_37_8350)"/>
<path d="M0 -38.0476L253.602 125.691L0 -157.915V-38.0476Z" fill="url(#paint2_radial_37_8350)"/>
<path d="M0 125.691H253.602L0 49.6996V125.691Z" fill="url(#paint3_radial_37_8350)"/>
<path d="M0 289.429L253.602 125.691L0 201.682V289.429Z" fill="url(#paint4_radial_37_8350)"/>
<path d="M107.187 409.296L253.602 125.691L0 409.296H107.187Z" fill="url(#paint5_radial_37_8350)"/>
<path d="M253.602 409.296V125.691L185.649 409.296H253.602Z" fill="url(#paint6_radial_37_8350)"/>
<path d="M253.602 -270.112V125.691L348.438 -270.112H253.602Z" fill="url(#paint7_radial_37_8350)"/>
<path d="M507.571 -158.327V-270.112H457.942L253.602 125.691L507.571 -158.327Z" fill="url(#paint8_radial_37_8350)"/>
<path d="M507.571 -38.2821L253.602 125.691L507.571 49.587V-38.2821Z" fill="url(#paint9_radial_37_8350)"/>
<path d="M507.571 125.691H253.602L507.571 201.795V125.691Z" fill="url(#paint10_radial_37_8350)"/>
<path d="M507.571 289.664L253.602 125.691L507.204 409.296H507.571V289.664Z" fill="url(#paint11_radial_37_8350)"/>
</g>
</g>
<defs>
<radialGradient id="paint0_radial_37_8350" cx="0" cy="0" r="1" gradientUnits="userSpaceOnUse" gradientTransform="translate(254 116) rotate(73.2442) scale(145.685 75.2122)">
<stop stop-color="white"/>
<stop offset="1" stop-color="white" stop-opacity="0"/>
</radialGradient>
<radialGradient id="paint1_radial_37_8350" cx="0" cy="0" r="1" gradientUnits="userSpaceOnUse" gradientTransform="translate(254 126) rotate(-110.111) scale(210.856 108.858)">
<stop stop-color="white"/>
<stop offset="1" stop-color="white" stop-opacity="0"/>
</radialGradient>
<radialGradient id="paint2_radial_37_8350" cx="0" cy="0" r="1" gradientUnits="userSpaceOnUse" gradientTransform="translate(248.5 115.5) rotate(-141.444) scale(302.431 270.436)">
<stop stop-color="white"/>
<stop offset="1" stop-color="white" stop-opacity="0"/>
</radialGradient>
<radialGradient id="paint3_radial_37_8350" cx="0" cy="0" r="1" gradientUnits="userSpaceOnUse" gradientTransform="translate(254 121.5) rotate(-176.909) scale(268.891 897.358)">
<stop stop-color="white"/>
<stop offset="1" stop-color="white" stop-opacity="0"/>
</radialGradient>
<radialGradient id="paint4_radial_37_8350" cx="0" cy="0" r="1" gradientUnits="userSpaceOnUse" gradientTransform="translate(238 130) rotate(153.299) scale(189.172 292.994)">
<stop stop-color="white"/>
<stop offset="1" stop-color="white" stop-opacity="0"/>
</radialGradient>
<radialGradient id="paint5_radial_37_8350" cx="0" cy="0" r="1" gradientUnits="userSpaceOnUse" gradientTransform="translate(238.5 126) rotate(111.518) scale(304.522 272.305)">
<stop stop-color="white"/>
<stop offset="1" stop-color="white" stop-opacity="0"/>
</radialGradient>
<radialGradient id="paint6_radial_37_8350" cx="0" cy="0" r="1" gradientUnits="userSpaceOnUse" gradientTransform="translate(245.5 132.5) rotate(100.092) scale(216.855 51.9597)">
<stop stop-color="white"/>
<stop offset="1" stop-color="white" stop-opacity="0"/>
</radialGradient>
<radialGradient id="paint7_radial_37_8350" cx="0" cy="0" r="1" gradientUnits="userSpaceOnUse" gradientTransform="translate(254 120.5) rotate(-84.2291) scale(188.958 45.275)">
<stop stop-color="white"/>
<stop offset="0.924805" stop-color="white" stop-opacity="0"/>
</radialGradient>
<radialGradient id="paint8_radial_37_8350" cx="0" cy="0" r="1" gradientUnits="userSpaceOnUse" gradientTransform="translate(249 126) rotate(-39.0648) scale(287.211 184.29)">
<stop stop-color="white"/>
<stop offset="1" stop-color="white" stop-opacity="0"/>
</radialGradient>
<radialGradient id="paint9_radial_37_8350" cx="0" cy="0" r="1" gradientUnits="userSpaceOnUse" gradientTransform="translate(263.5 130.5) rotate(-26.5651) scale(232.551 360.186)">
<stop stop-color="white"/>
<stop offset="1" stop-color="white" stop-opacity="0"/>
</radialGradient>
<radialGradient id="paint10_radial_37_8350" cx="0" cy="0" r="1" gradientUnits="userSpaceOnUse" gradientTransform="translate(260.5 129.5) rotate(18.4349) scale(246.658 823.13)">
<stop stop-color="white"/>
<stop offset="1" stop-color="white" stop-opacity="0"/>
</radialGradient>
<radialGradient id="paint11_radial_37_8350" cx="0" cy="0" r="1" gradientUnits="userSpaceOnUse" gradientTransform="translate(254 130.5) rotate(65.5797) scale(306.189 274.192)">
<stop stop-color="white"/>
<stop offset="0.735414" stop-color="white" stop-opacity="0"/>
</radialGradient>
<clipPath id="clip0_37_8350">
<rect width="348" height="220" fill="white"/>
</clipPath>
</defs>
</svg>
