<svg width="174" height="98" viewBox="0 0 174 98" fill="none" xmlns="http://www.w3.org/2000/svg" clipPath="url(#myClip)">
<path d="M114.2 30.3041C113.7 30.0041 113.1 29.9041 112.6 30.1041L101.8 33.7041C101.1 33.9041 100.6 34.6041 100.6 35.4041V40.8041C98.6 40.8041 97 42.4041 97 44.4041C97 46.4041 98.6 48.004 100.6 48.004C102.6 48.004 104.2 46.4041 104.2 44.4041V36.6041L111.4 34.2041V38.9041C109.4 38.9041 107.8 40.504 107.8 42.504C107.8 44.504 109.4 46.1041 111.4 46.1041C113.4 46.1041 115 44.504 115 42.504V31.7041C114.9 31.1041 114.7 30.6041 114.2 30.3041Z" fill="#FFADFB"/>
<path d="M125.8 95.9C126.4 88.1 120.8 81.1 113 79.9C119.5 75.5 121.5 66.7 117.6 59.9C125.1 62.2 133.2 58.3 136 51C138.9 58.3 146.9 62.2 154.5 59.9C150.5 66.7 152.5 75.5 159 79.9C151.2 81.1 145.7 88.1 146.2 95.9C140.5 90.5 131.6 90.5 125.8 95.9Z" fill="#FFCFF9"/>
<path opacity="0.6" d="M129.7 87.7C130 82.9 126.6 78.6 121.9 77.9C125.9 75.1999 127.1 69.8 124.7 65.7C129.3 67.1 134.2 64.7 136 60.2C137.8 64.7 142.7 67.1 147.3 65.7C144.9 69.9 146.1 75.1999 150.1 77.9C145.3 78.6 141.9 82.9 142.3 87.7C138.8 84.4 133.3 84.4 129.7 87.7Z" fill="white"/>
<path d="M144.8 85.2H127.2C124.4 85.2 122.2 83 122.2 80.2V70.1C122.2 67.3 124.4 65.1 127.2 65.1H144.8C147.6 65.1 149.8 67.3 149.8 70.1V80.2C149.9 82.9 147.6 85.2 144.8 85.2ZM127.2 66C125 66 123.2 67.8 123.2 70V80.1C123.2 82.3 125 84.1 127.2 84.1H144.8C147 84.1 148.8 82.3 148.8 80.1V70.1C148.8 67.9 147 66.1 144.8 66.1L127.2 66Z" fill="#5176EE"/>
<path d="M145.3 79.7C146.7 78.9 147.5 77.5 147.5 75.9C147.5 73.5 145.6 71.6 143.2 71.6H142C143 66.1 142.9 61.8 141.6 61.5C140.3 61.2 137.8 65.3 136.1 71.3C136.1 71.4 136 71.4 136 71.4C136 71.4 135.9 71.4 135.9 71.3C134.4 65.4 132.2 61.1 130.8 61.4C129.4 61.7 129.2 66 130 71.6H129C126.6 71.6 124.7 73.5 124.7 75.9C124.7 77.5 125.6 78.9 126.9 79.7C125 80.2 123.6 81.9 123.7 83.9C123.8 86.3 125.7 88.1 128.1 88.1H144.2C146.6 88.1 148.5 86.3 148.6 83.9C148.6 82 147.3 80.2 145.3 79.7Z" fill="#FF6DBA"/>
<path d="M134.6 75C133.7 74.3 132.4 74.5 131.7 75.4L131.5 75.6L131.1 75.3C130.6 74.4 129.4 74.1 128.5 74.7C127.6 75.2 127.3 76.4 127.9 77.3C128.1 77.6 128.3 77.8 128.5 77.9L128.7 78.1L130.2 79.6C130.8 80.2 131.8 80.2 132.4 79.6L134 78.3L134.3 78C135.1 77.2 135.3 75.9 134.6 75Z" fill="#FEC928"/>
<path d="M144.1 75C143.2 74.3 141.9 74.5 141.2 75.4L141 75.6L140.7 75.3C140.2 74.4 139 74.1 138.1 74.7C137.2 75.3 136.9 76.4 137.5 77.3C137.7 77.6 137.9 77.8 138.1 77.9L138.3 78.1L139.8 79.6C140.4 80.2 141.4 80.2 142 79.6L143.5 78.1L143.8 77.8C144.7 77.1 144.8 75.8 144.2 74.9L144.1 75Z" fill="#FEC928"/>
<path d="M133.6 82.7C133.3 82.6 132.9 82.8 132.8 83.1C132.8 83.2 132.8 83.3 132.8 83.5C133.4 85.3 135.3 86.2 137.1 85.6C138.1 85.3 138.9 84.5 139.2 83.5C139.3 83.2 139.1 82.8 138.8 82.7C138.7 82.7 138.6 82.7 138.4 82.7C136.9 83.2 135.2 83.2 133.6 82.7Z" fill="#25272A"/>
<path d="M142.8 33.0414C134.6 33.0414 128 26.4414 128 18.2414C128 11.5414 132.5 5.64139 139 3.94139C146.9 1.84139 155 6.54139 157.2 14.4414C159.3 22.3414 154.6 30.4414 146.7 32.6414C145.4 32.8414 144.1 33.0414 142.8 33.0414ZM142.8 4.44139C141.6 4.44139 140.4 4.64139 139.2 4.94139C131.8 6.94139 127.5 14.5414 129.4 21.8414C131.3 29.1414 139 33.5414 146.3 31.6414C153.7 29.6414 158.1 22.1414 156.1 14.7414C154.6 8.54139 149.1 4.34139 142.8 4.44139Z" fill="white"/>
<path d="M152.1 25.8414C151.2 26.5414 150.1 26.9414 149 26.9414H136.7C133.9 26.9414 131.7 24.7414 131.7 21.9414C131.7 21.6414 131.7 21.2414 131.8 20.9414L132.6 16.5414C135.4 19.3414 139.2 20.8414 143.2 20.8414C147 20.9414 150.6 19.5414 153.4 16.9414L154.1 20.9414C154.2 22.7414 153.5 24.6414 152.1 25.8414Z" fill="#BAF6E6"/>
<path d="M153.199 16.8414C147.299 22.2414 138.199 22.0414 132.399 16.4414L132.999 13.1414C133.399 11.0414 135.199 9.54138 137.299 9.54138C139.199 9.54138 140.799 11.0414 140.799 12.9414H144.899C144.899 12.0414 145.299 11.1414 145.899 10.5414C146.499 9.94138 147.399 9.54138 148.399 9.54138C150.499 9.54138 152.299 11.0414 152.699 13.1414L153.199 16.8414Z" fill="#95E0CB"/>
<path d="M141.8 18.5414C141.6 18.5414 141.4 18.4414 141.3 18.2414L140.9 17.0414C140.8 16.7414 140.9 16.5414 141.2 16.4414C141.5 16.3414 141.7 16.5414 141.8 16.7414L142.2 17.9414C142.3 18.2414 142.1 18.4414 141.9 18.5414C141.9 18.5414 141.9 18.5414 141.8 18.5414Z" fill="#24272A"/>
<path d="M143.8 18.5414C143.7 18.5414 143.7 18.5414 143.6 18.5414C143.3 18.4414 143.2 18.1414 143.3 17.9414L143.7 16.7414C143.8 16.4414 144.1 16.3414 144.3 16.4414C144.6 16.5414 144.7 16.8414 144.6 17.0414L144.2 18.2414C144.2 18.4414 144 18.5414 143.8 18.5414Z" fill="#24272A"/>
<path d="M137.899 13.7414C137.599 13.7414 137.399 13.5414 137.399 13.2414C137.399 12.5414 137.099 12.1414 136.699 12.1414C136.299 12.1414 136.099 12.6414 136.099 13.2414C136.099 13.5414 135.899 13.7414 135.599 13.7414C135.299 13.7414 135.099 13.5414 135.099 13.2414C134.899 12.3414 135.399 11.4414 136.299 11.1414C137.199 10.9414 138.099 11.4414 138.399 12.3414C138.499 12.6414 138.499 12.9414 138.399 13.2414C138.399 13.5414 138.199 13.7414 137.899 13.7414Z" fill="#24272A"/>
<path d="M149.999 13.7414C149.699 13.7414 149.499 13.5414 149.499 13.2414C149.499 12.5414 149.199 12.1414 148.799 12.1414C148.399 12.1414 148.099 12.6414 148.099 13.2414C148.099 13.5414 147.899 13.7414 147.599 13.7414C147.299 13.7414 147.099 13.5414 147.099 13.2414C146.899 12.3414 147.399 11.4414 148.299 11.2414C149.199 11.0414 150.099 11.5414 150.299 12.4414C150.399 12.7414 150.399 12.9414 150.299 13.2414C150.499 13.5414 150.199 13.7414 149.999 13.7414Z" fill="#24272A"/>
<path d="M143 21.2414C138.9 21.2414 135 19.6414 132.1 16.8414C131.9 16.6414 131.9 16.3414 132.1 16.1414C132.3 15.9414 132.6 15.9414 132.8 16.1414C135.5 18.8414 139.2 20.3414 143 20.3414C146.6 20.4414 150.2 19.0414 152.8 16.5414C153 16.3414 153.3 16.3414 153.5 16.5414C153.7 16.7414 153.7 17.0414 153.5 17.2414C150.7 19.8414 146.9 21.3414 143 21.2414Z" fill="#24272A"/>
<path d="M152.8 19.4414C154.346 19.4414 155.6 18.5012 155.6 17.3414C155.6 16.1816 154.346 15.2414 152.8 15.2414C151.254 15.2414 150 16.1816 150 17.3414C150 18.5012 151.254 19.4414 152.8 19.4414Z" fill="#E655D4"/>
<path d="M132.8 19.4414C134.346 19.4414 135.6 18.5012 135.6 17.3414C135.6 16.1816 134.346 15.2414 132.8 15.2414C131.254 15.2414 130 16.1816 130 17.3414C130 18.5012 131.254 19.4414 132.8 19.4414Z" fill="#E655D4"/>
<path d="M145.2 2.54142C145 2.64142 144.8 2.64142 144.6 2.44142L143 0.141422C142.9 0.0414217 142.7 -0.0585787 142.6 0.0414213C142.6 0.0414213 142.5 0.0414217 142.5 0.141422L140.9 2.44142C140.8 2.64142 140.5 2.64142 140.3 2.54142L138.6 1.24142V5.14142C138.6 5.44142 138.8 5.64142 139.1 5.64142H146.3C146.6 5.64142 146.8 5.44142 146.8 5.14142V1.24142L145.2 2.54142Z" fill="#FEC928"/>
<path d="M142.8 1.94141L142 2.74141V3.84141L142.8 4.64141L143.6 3.84141V2.74141L142.8 1.94141Z" fill="#FA6EF6"/>
<path d="M2.93753 91.375L0.83749 92.375C0.53749 92.475 0.237502 92.375 0.0375019 92.075C0.0375019 91.875 0.0375019 91.675 0.0375019 91.575L1.0375 89.475C1.1375 89.275 1.1375 89.075 1.0375 88.975L0.0375019 86.875C-0.0624981 86.575 0.0374897 86.275 0.33749 86.075C0.53749 85.975 0.63749 85.975 0.83749 86.075L2.93753 87.075C3.13753 87.175 3.33753 87.175 3.43753 87.075L5.5375 86.075C5.8375 85.975 6.13749 86.075 6.33749 86.375C6.43749 86.575 6.43749 86.675 6.33749 86.875L5.33749 88.975C5.23749 89.175 5.23749 89.375 5.33749 89.475L6.33749 91.575C6.43749 91.875 6.3375 92.175 6.0375 92.375C5.8375 92.475 5.6375 92.475 5.5375 92.375L3.43753 91.375C3.23753 91.275 3.03753 91.275 2.93753 91.375Z" fill="#FFCFF9"/>
<path d="M167.626 62.726L165.426 61.926C165.126 61.826 164.926 61.526 165.026 61.226C165.126 61.026 165.226 60.926 165.426 60.826L167.626 60.026C167.826 60.026 167.926 59.826 168.026 59.626L168.826 57.426C168.926 57.126 169.226 56.926 169.526 57.026C169.626 57.126 169.826 57.226 169.826 57.326L170.626 59.526C170.626 59.726 170.826 59.826 171.026 59.926L173.226 60.726C173.526 60.826 173.726 61.126 173.626 61.426C173.526 61.526 173.426 61.726 173.326 61.726L171.126 62.526C170.926 62.526 170.826 62.726 170.726 62.926L169.926 65.126C169.826 65.426 169.526 65.626 169.226 65.526C169.026 65.426 168.926 65.326 168.826 65.126L168.126 62.926C167.926 62.826 167.826 62.726 167.626 62.726Z" fill="white"/>
<path d="M87.0375 81.975L86.0375 79.875C85.9375 79.575 86.0375 79.275 86.3375 79.075C86.5375 78.975 86.7375 78.975 86.8375 79.075L88.9375 80.075C89.1375 80.175 89.3375 80.175 89.4375 80.075L91.5375 79.075C91.8375 78.975 92.1375 79.075 92.3375 79.375C92.3375 79.575 92.3375 79.675 92.3375 79.875L91.3375 81.975C91.2375 82.175 91.2375 82.375 91.3375 82.475L92.3375 84.575C92.4375 84.875 92.3375 85.175 92.0375 85.375C91.8375 85.375 91.7375 85.375 91.5375 85.375L89.4375 84.375C89.2375 84.275 89.0375 84.275 88.9375 84.375L86.8375 85.375C86.5375 85.475 86.2375 85.375 86.0375 85.075C86.0375 84.875 86.0375 84.675 86.0375 84.575L87.0375 82.475C87.1375 82.275 87.1375 82.075 87.0375 81.975Z" fill="#FFADFB"/>
<path d="M44.3496 94.6747C43.5496 93.2747 43.9496 91.3747 45.4496 90.5747C45.8496 90.3747 46.3496 90.1747 46.8496 90.1747C49.5496 90.0747 52.4496 89.1747 53.8496 86.1747C57.0496 79.7747 51.7496 73.4747 46.4496 72.3747C41.1496 71.2747 34.7496 72.3747 30.5496 78.6747C26.7496 84.3747 29.7496 94.1747 41.6496 97.7747C42.8496 98.0747 44.1496 97.3747 44.4496 96.1747C44.6496 95.7747 44.5496 95.1747 44.3496 94.6747Z" fill="#FFADFB"/>
<path d="M37.9496 78.7747C39.1094 78.7747 40.0496 77.8345 40.0496 76.6747C40.0496 75.5149 39.1094 74.5747 37.9496 74.5747C36.7898 74.5747 35.8496 75.5149 35.8496 76.6747C35.8496 77.8345 36.7898 78.7747 37.9496 78.7747Z" fill="#FFE1FD"/>
<path d="M46.4496 78.7747C47.6094 78.7747 48.5496 77.8345 48.5496 76.6747C48.5496 75.5149 47.6094 74.5747 46.4496 74.5747C45.2898 74.5747 44.3496 75.5149 44.3496 76.6747C44.3496 77.8345 45.2898 78.7747 46.4496 78.7747Z" fill="#FA6EF6"/>
<path d="M50.7494 85.0747C51.9092 85.0747 52.8494 84.1345 52.8494 82.9747C52.8494 81.8149 51.9092 80.8747 50.7494 80.8747C49.5896 80.8747 48.6494 81.8149 48.6494 82.9747C48.6494 84.1345 49.5896 85.0747 50.7494 85.0747Z" fill="#E655D4"/>
<path d="M33.7494 85.0747C34.9092 85.0747 35.8494 84.1345 35.8494 82.9747C35.8494 81.8149 34.9092 80.8747 33.7494 80.8747C32.5896 80.8747 31.6494 81.8149 31.6494 82.9747C31.6494 84.1345 32.5896 85.0747 33.7494 85.0747Z" fill="white"/>
<path d="M35.5498 89.4747C35.1498 89.7747 34.6498 90.1747 34.1498 90.6747C32.0498 92.6747 30.4498 95.0747 29.5498 97.8747C32.2498 96.7747 34.5498 95.0747 36.4498 92.8747C36.8498 92.3747 37.2498 91.8747 37.5498 91.3747C36.6498 91.0747 35.8498 90.3747 35.5498 89.4747Z" fill="white"/>
<path d="M39.6494 87.4747C39.6494 87.3747 39.7494 87.2747 39.7494 87.1747H39.6494V87.0747L39.3494 87.1747L38.9494 87.3747C37.7494 87.9747 36.6494 88.6747 35.6494 89.4747C35.8494 90.3747 36.6494 91.1747 37.6494 91.2747C38.4494 90.2747 39.0494 89.1747 39.5494 87.9747L39.6494 87.4747Z" fill="#FFE1FD"/>
<path d="M43.9498 83.1747C43.9498 83.1747 38.6498 83.8747 38.5498 87.1747C38.5498 87.7747 39.0498 88.3747 39.6498 88.3747C41.0498 88.3747 43.2498 87.6747 43.9498 83.1747Z" fill="white"/>
<defs>
  <clipPath id="myClip">
    <path d="M0,98 L174,0 L174,98 Z" />
  </clipPath>
</defs>
</svg>
