<svg height="130" viewBox="0 0 240 130" width="240" xmlns="http://www.w3.org/2000/svg" xmlns:xlink="http://www.w3.org/1999/xlink"><mask id="a" fill="#fff"><path d="m.609.615h81.601v40.944 40.943h-81.601z" fill="#fff" fill-rule="evenodd"/></mask><g fill="none" fill-rule="evenodd" transform="translate(4 8)"><path d="m25.68344 18.5479606h-3.3224c-6.976 0-12.7344 5.2993943-13.5056 12.0952394h7.1928c.6056-5.6245352 4.4656-10.2969296 9.6352-12.0952394m-9.72264 40.782938v-1.0701549h-7.2v1.0701549c0 7.5256056 6.1008 13.6478873 13.6 13.6478873h3.3232c-5.6392-1.9612817-9.7232-7.3433662-9.7232-13.6478873" fill="#4f545c"/><path d="m74.15216 35.086069h13.5616v-2.8901408c0-7.5256057-6.1008-13.6478874-13.6-13.6478874h-48.4304c-5.1696 1.7983099-9.0296 6.4699015-9.6352 12.0952395h3.632c.4416 0 .8.359662.8.8028169 0 .4439577-.3584.8028169-.8.8028169h-11.68c-3.5296 0-6.4 2.8813098-6.4 6.4225352v11.5605634c0 3.5412253 2.8704 6.4225352 6.4 6.4225352h11.68c.4416 0 .8.359662.8.8028169s-.3584.8028169-.8.8028169h-3.7192v1.0709577c0 6.3045212 4.084 11.6858029 9.7232 13.6478874h48.4296c6.8272 0 12.4784-5.0786198 13.44-11.6657324-2.1648 1.1913802-4.6464 1.8713662-7.2848 1.8713662h-15.36c-8.3816 0-15.2-6.8424085-15.2-15.2535212v-6.2619718c0-3.630338 2.9432-6.5830986 6.56-6.5830986h8.64c.4424 0 .8.359662.8.8028169h7.6432c0-.4431549.3584-.8028169.8-.8028169" fill="#72767d"/><path d="m57.22912 47.9311394v-6.2619718c0-2.1154225 1.1504-3.9699296 2.852-4.9774648h-3.812c-2.7352 0-4.96 2.2326338-4.96 4.9774648v6.2619718c0 7.5256057 6.1008 13.6478874 13.6 13.6478874h2.0432c-5.64-1.9612817-9.7232-7.3433662-9.7232-13.6478874" fill="#72767d"/><path d="m11.20024 35.4605028c-2.2096 0-4 1.7975071-4 4.0140845v9.9549296c0 2.2173803 1.7904 4.0140845 4 4.0140845h5.28c.884 0 1.6-.7185211 1.6-1.6056338v-14.771831c0-.8863098-.716-1.6056338-1.6-1.6056338z" fill="#4f545c"/><path d="m86.01472 55.7602099h-2.8208c-1.2936 0-2.3512-1.061324-2.3512-2.3594789 0-1.2973521 1.0576-2.3586761 2.3512-2.3586761h2.8208c1.2928 0 2.3504 1.061324 2.3504 2.3586761 0 1.2981549-1.0576 2.3594789-2.3504 2.3594789m-11.2584 0h-4.7024c-1.2928 0-2.3504-1.061324-2.3504-2.3594789 0-1.2973521 1.0576-2.3586761 2.3504-2.3586761h4.7024c1.2928 0 2.3512 1.061324 2.3512 2.3586761 0 1.2981549-1.0584 2.3594789-2.3512 2.3594789m14.1528-19.0685071h-14.7568c-.4416 0-.8-.359662-.8-.8028169h-7.6432c0 .4431549-.3584.8028169-.8.8028169h-4.828c-1.7008 1.0075352-2.852 2.8620423-2.852 4.9774648v6.2619718c0 6.3045212 4.084 11.6866057 9.7232 13.6478874h13.3168c7.4992 0 13.6-6.1222817 13.6-13.6478874v-6.2619718c0-2.744831-2.2248-4.9774648-4.96-4.9774648" fill="#b9bbbe"/><path d="m93.86896 47.9311394c0 7.5376479-6.0888 13.6478874-13.6 13.6478874h-13.3168-2.0432c-7.5112 0-13.6-6.1102395-13.6-13.6478874v-6.2619718c0-2.7488451 2.2208-4.9774648 4.96-4.9774648h3.8128 4.8272c.4424 0 .8-.359662.8-.8028169s-.3576-.8028169-.8-.8028169h-8.64c-3.6232 0-6.56 2.9471409-6.56 6.5830986v6.2619718c0 8.4247606 6.8056 15.2535212 15.2 15.2535212h15.36c2.0696 0 4.0432-.4182676 5.8424-1.1737183.6336-.2657324 1.276.3034647 1.092.9673943-1.5928 5.7586057-6.8504 10.0006902-13.0896 10.0006902h-48.4296-3.3232c-4.052 0-7.6952-1.7870705-10.1896-4.6178029-3.196-3.6279295-.984-9.3913521 3.7896-10.1010422h3.7192c.4416 0 .8-.359662.8-.8028169s-.3584-.8028169-.8-.8028169h-11.68c-3.5344 0-6.4-2.8748873-6.4-6.4225352v-11.5605634c0-3.5468451 2.8656-6.4225352 6.4-6.4225352h11.68c.4416 0 .8-.3588592.8-.8028169 0-.4431549-.3584-.8028169-.8-.8028169h-3.632-5.2552c-1.0568 0-1.8264-1.0107465-1.548-2.034338 1.5728-5.7899155 6.8544-10.0609015 13.116-10.0609015h3.3224 48.4304c7.5112 0 13.6 6.1102395 13.6 13.6478874v1.284507c0 .8863099-.716 1.6056338-1.6 1.6056338h-11.9616c-.4416 0-.8.359662-.8.8028169s.3584.8028169.8.8028169h14.7568c2.7392 0 4.96 2.2286197 4.96 4.9774648zm-4.5552-12.8241971v-2.9110141c0-8.4111127-6.8184-15.2535212-15.2-15.2535212h-51.7528c-7.872 0-14.364 6.0371831-15.124 13.7402113-4.0544.3869578-7.2368 3.8206056-7.2368 7.988831v11.5605634c0 4.1425352 3.1424 7.5609296 7.1608 7.9840141v1.1151126c0 8.4103099 6.8184 15.2535212 15.2 15.2535212h51.7528c8.0912 0 14.7064-6.3823944 15.1568-14.390493 3.7504-2.7801549 6.1984-7.2349859 6.1984-12.2630282v-6.2619718c0-3.4930563-2.7264-6.3502817-6.1552-6.5622253z" fill="#202225"/><path d="m74.75648 51.0417338h-4.7024c-1.2928 0-2.3504 1.0613239-2.3504 2.3586761 0 1.2981549 1.0576 2.3594788 2.3504 2.3594788h4.7024c1.2928 0 2.3504-1.0613239 2.3504-2.3594788 0-1.2973522-1.0576-2.3586761-2.3504-2.3586761m11.25824 0h-2.8208c-1.2936 0-2.3512 1.0613239-2.3512 2.3586761 0 1.2981549 1.0576 2.3594788 2.3512 2.3594788h2.8208c1.2928 0 2.3504-1.0613239 2.3504-2.3594788 0-1.2973522-1.0576-2.3586761-2.3504-2.3586761" fill="#4f545c"/><path d="m112.4432 46.2216211h-1.208v-1.2122535c0-.4439577-.3584-.8028169-.8-.8028169s-.8.3588592-.8.8028169v1.2122535h-1.208c-.4416 0-.8.359662-.8.8028169 0 .443155.3584.8028169.8.8028169h1.208v1.2122536c0 .4431549.3584.8028169.8.8028169s.8-.359662.8-.8028169v-1.2122536h1.208c.4416 0 .8-.3596619.8-.8028169 0-.4431549-.3584-.8028169-.8-.8028169m-5.64568-22.4878648-.9464.9497324c-.3128.3139014-.3128.8220845 0 1.1351831.156.1565493.3608.2352254.5656.2352254s.4096-.0786761.5656-.2352254l.9464-.9497324c.3128-.3139014.3128-.8212817 0-1.1351831s-.8184-.3139014-1.1312 0m-4.7328 4.7498662-.9464.9497324c-.3128.3139014-.3128.8220845 0 1.1351831.156.1565493.3608.2352254.5656.2352254s.4096-.0786761.5656-.2352254l.9464-.9497324c.3128-.3139014.3128-.8212817 0-1.1351831s-.8184-.3139014-1.1312 0m4.91752 0c-.3128-.3139014-.8184-.3139014-1.1312 0s-.3128.8212817 0 1.1351831l.9464.9497324c.156.1565493.3608.2352254.5656.2352254s.4096-.0786761.5656-.2352254c.3128-.3130986.3128-.8212817 0-1.1351831zm-4.7328-4.7498662c-.3128-.3139014-.8184-.3139014-1.1312 0s-.3128.8212817 0 1.1351831l.9464.9497324c.156.1565493.3608.2352254.5656.2352254s.4096-.0786761.5656-.2352254c.3128-.3130986.3128-.8212817 0-1.1351831zm38.10272-13.79054785c-.6664 0-1.208-.54430986-1.208-1.21225352 0-.66874648.5416-1.21225352 1.208-1.21225352s1.208.54350704 1.208 1.21225352c0 .66794366-.5416 1.21225352-1.208 1.21225352m0-4.03014084c-1.548 0-2.808 1.26443662-2.808 2.81788732 0 1.55345067 1.26 2.81788737 2.808 2.81788737 1.5488 0 2.808-1.2644367 2.808-2.81788737 0-1.5534507-1.2592-2.81788732-2.808-2.81788732" fill="#202225"/><path d="m209.226 6.90438592c-5.5744-2.94152113-11.8736-4.49657747-18.2168-4.49657747-21.6144 0-39.2 17.64752115-39.2 39.33802815 0 11.3020564 4.7808 21.497831 12.4104 28.679831 2.2744-3.5580845 5.2264-6.6256479 8.6608-9.0300845-5.2672-4.8971831-8.572-11.8913239-8.572-19.6497465 0-14.7750422 11.9776-26.7956197 26.7008-26.7956197 14.724 0 26.7016 12.0205775 26.7016 26.7956197 0 7.7584226-3.3048 14.7525634-8.5728 19.6505493 3.4344 2.4044366 6.3872 5.4711972 8.6616 9.0292817 7.6296-7.182 12.4096-17.3777746 12.4096-28.679831 0-7.8531549-2.2984-15.4341549-6.6472-21.9241267-.2432-.3620705-.1488-.8493803.204-1.0998592-1.6456-2.3538592-3.5328-4.5238732-5.6312-6.4690986-.1576.171-.3712.2617183-.5872.2617183-.1888 0-.3784-.0666338-.5304-.2023098-.8376-.7458169-1.7168-1.4635352-2.6136-2.1346902-.3496-.26011265-.4224-.75063378-.1728-1.10467603-1.2592-.90397183-2.5704-1.74050705-3.9328-2.49515493-.2096.38294366-.684.53146479-1.072.32674648" fill="#36393f"/><path d="m165.42488 71.5123606c6.872 5.9569014 15.8128 9.5719859 25.5848 9.5719859s18.7128-3.6158873 25.5848-9.5719859c-2.2496-3.5893944-5.2208-6.6633803-8.6952-9.0292817-4.6056 3.783676-10.4872 6.0588591-16.8896 6.0588591-6.4016 0-12.284-2.2743803-16.888-6.0580563-3.476 2.3650986-6.4472 5.4398873-8.6968 9.0284789" fill="#72767d"/><path d="m175.94008 36.7865958c1.8656 0 3.3784 1.5181267 3.3784 3.3902957 0 1.8721691-1.5128 3.3902958-3.3784 3.3902958-1.8664 0-3.3784-1.5181267-3.3784-3.3902958 0-1.872169 1.512-3.3902957 3.3784-3.3902957m30.4088 0c1.8656 0 3.3784 1.5181267 3.3784 3.3902957 0 1.8721691-1.5128 3.3902958-3.3784 3.3902958-1.8664 0-3.3784-1.5181267-3.3784-3.3902958 0-1.872169 1.512-3.3902957 3.3784-3.3902957m-15.3392 30.1497887c13.8408 0 25.1016-11.3004507 25.1016-25.1899859 0-13.890338-11.2608-25.1899859-25.1016-25.1899859s-25.1016 11.2996479-25.1016 25.1899859c0 13.8895352 11.2608 25.1899859 25.1016 25.1899859" fill="#4f545c"/><g fill="#202225"><path d="m175.94008 43.5670268c1.8656 0 3.3784-1.5181268 3.3784-3.3902958s-1.5128-3.3902958-3.3784-3.3902958c-1.8664 0-3.3784 1.5181268-3.3784 3.3902958s1.512 3.3902958 3.3784 3.3902958m30.40864 0c1.8656 0 3.3784-1.5181268 3.3784-3.3902958s-1.5128-3.3902958-3.3784-3.3902958c-1.8664 0-3.3784 1.5181268-3.3784 3.3902958s1.512 3.3902958 3.3784 3.3902958m8.05464-33.3893958c.8976.6711549 1.7768 1.3888732 2.6136 2.1346901.1528.1356761.3416.2023099.5304.2023099.216 0 .4296-.0907183.5872-.2617183.0032-.0032113.008-.0048169.012-.008831.2928-.3315634.2624-.8389437-.068-1.1327747-.8704-.7755211-1.7856-1.52294362-2.72-2.22139432-.3536-.26492958-.8552-.19107043-1.1192.16457746-.004.00561972-.004.01204225-.008.01846479-.2496.35404225-.1776.84456338.172 1.10467607"/><path d="m41.4096 68.3539183c6.4024 0 12.284-2.2743803 16.8896-6.0588591 3.4744 2.3659014 6.4456 5.4398873 8.6952 9.0292816-6.872 5.9569015-15.8128 9.571986-25.5848 9.571986s-18.7128-3.6150845-25.5848-9.571986c2.2496-3.5885915 5.2208-6.6633802 8.6968-9.0284788 4.6048 3.783676 10.4864 6.0580563 16.888 6.0580563m0-51.9856056c13.8408 0 25.1016 11.3004507 25.1016 25.1899859s-11.2608 25.1899859-25.1016 25.1899859-25.1016-11.3004507-25.1016-25.1899859 11.2608-25.1899859 25.1016-25.1899859m33.88 2.3699155c-.2464-.368493-.7432-.4656338-1.1104-.2183662-.0048.0040141-.008.0096338-.0128.0136479-.3536.2512816-.4472.7377887-.204 1.1006619 4.348 6.489169 6.6472 14.0709719 6.6472 21.9241268 0 9.1191972-3.1128 17.5198732-8.324 24.1969014-1.816 2.3273662-5.312 2.4734789-7.288.2809859-1.0544-1.1697042-2.1928-2.2607324-3.4048-3.2626479-1.0256-.8485774-1.1448-2.4052394-.26-3.4007324 4.7144-5.3026056 7.3664-12.4886197 6.6672-20.2807605-1.1632-12.974324-11.7376-23.3563521-24.6864-24.2627324-15.5808-1.0902254-28.6056 11.3213239-28.6056 26.7289859 0 6.8327746 2.564 13.0738732 6.7744 17.8112958.8864.9962957.7712 2.5529577-.256 3.4031408-1.212 1.0019155-2.3504 2.0929437-3.4048 3.2634507-1.976 2.192493-5.472 2.0463803-7.288-.2809859-5.2112-6.6770282-8.324-15.0777042-8.324-24.1969014 0-21.6913099 17.5848-39.33802818 39.2-39.33802818 6.3424 0 12.6416 1.55505634 18.2168 4.49657747.388.20471831.8616.05619718 1.0712-.32674648.0024-.00401409.0064-.00642254.0088-.01043662.2056-.39257747.0552-.87828169-.336-1.08460564-5.8032-3.06194366-12.36-4.68042253-18.9608-4.68042253-23.5336 0-42.4768 20.09771828-40.6824 44.08749298 1.4976 20.0182394 17.6016 36.1789436 37.5496 37.6818169 23.9056 1.8007183 43.9328-17.2091831 43.9328-40.8256479 0-8.1742817-2.3928-16.065169-6.92-22.8200704" mask="url(#a)" transform="translate(149.6 .188)"/><path d="m39.46864 40.4380479c-1.98 0-3.6 1.6257042-3.6 3.612676 0 1.9869719 1.62 3.6126761 3.6 3.6126761s3.6-1.6257042 3.6-3.6126761c0-1.9869718-1.62-3.612676-3.6-3.612676m156.51712 7.754569c-1.2952-.9826479-2.8208-1.5293662-4.3744-1.6433662-.0592-.0048169-.1184-.0048169-.1776-.0080282-.1496-.0080281-.2992-.0160563-.4488-.0160563s-.2992.0080282-.4488.0160563c-.0592.0032113-.1184.0032113-.1784.0080282-1.5528.114-3.0784.6607183-4.3736 1.6433662-.3528.267338-.4224.7707042-.1552 1.1239437.1568.2095352.396.3187183.6384.3187183.168 0 .3376-.0529859.4816-.162169.004-.0032113.0088-.0056198.0136-.008831l.0088.012845.0488-.0369295c.8824-.6583099 1.8944-1.0677465 2.9384-1.2307183.0784-.0120423.1576-.0104367.236-.0200705.2624-.0313098.5256-.0586056.7904-.0586056s.528.0272958.7904.0586056c.0784.0096338.1576.0080282.236.0200705 1.0432.1629718 2.056.5724084 2.9384 1.2307183l.0488.0369295.0088-.012845c.004.0032112.0096.0056197.0136.008831.144.1091831.3136.162169.4816.162169.2424 0 .4816-.1091831.6384-.3187183.2672-.3532395.1976-.8566057-.1552-1.1239437m-44.75856 57.6746871h-3.2c-.4416 0-.8.359662-.8.802817s.3584.802817.8.802817h3.2c.4416 0 .8-.359662.8-.802817s-.3584-.802817-.8-.802817m7.2 0h-3.2c-.4416 0-.8.359662-.8.802817s.3584.802817.8.802817h3.2c.4416 0 .8-.359662.8-.802817s-.3584-.802817-.8-.802817m-14.4 0h-3.2c-.4416 0-.8.359662-.8.802817s.3584.802817.8.802817h3.2c.4416 0 .8-.359662.8-.802817s-.3584-.802817-.8-.802817m-7.2 0h-3.2c-.4416 0-.8.359662-.8.802817s.3584.802817.8.802817h3.2c.4416 0 .8-.359662.8-.802817s-.3584-.802817-.8-.802817m56.68712-15.3668786c-.4416 0-.8.3596619-.8.8028169v3.2112676c0 .4431549.3584.8028169.8.8028169s.8-.359662.8-.8028169v-3.2112676c0-.443155-.3584-.8028169-.8-.8028169m-6.28712 15.3668786h-3.2c-.4416 0-.8.359662-.8.802817s.3584.802817.8.802817h3.2c.4416 0 .8-.359662.8-.802817s-.3584-.802817-.8-.802817m6.28712-.916174c-.4416 0-.8.359662-.8.802816v.113198h-1.4872c-.4416 0-.8.359662-.8.802817 0 .443154.3584.802816.8.802816h2.2872c.4416 0 .8-.359662.8-.802816v-.916015c0-.443154-.3584-.802816-.8-.802816m0-7.2253525c-.4416 0-.8.3596619-.8.8028169v3.2112676c0 .443155.3584.802817.8.802817s.8-.359662.8-.802817v-3.2112676c0-.443155-.3584-.8028169-.8-.8028169m-27.88712 8.1415265h-3.2c-.4416 0-.8.359662-.8.802817s.3584.802817.8.802817h3.2c.4416 0 .8-.359662.8-.802817s-.3584-.802817-.8-.802817m7.2 0h-3.2c-.4416 0-.8.359662-.8.802817s.3584.802817.8.802817h3.2c.4416 0 .8-.359662.8-.802817s-.3584-.802817-.8-.802817m7.2 0h-3.2c-.4416 0-.8.359662-.8.802817s.3584.802817.8.802817h3.2c.4416 0 .8-.359662.8-.802817s-.3584-.802817-.8-.802817"/></g><path d="m11.38112 8.0685507c-.6248-.627-.6248-1.64336619 0-2.27116901l1.6968-1.70277465c.6248-.627.6248-1.64336619 0-2.27036619l-1.1312-1.1351831c-.6248-.62780282-1.6376-.62780282-2.2632 0l-1.6968 1.70277464c-.6248.627-1.6376.627-2.2624 0l-1.6968-1.70277464c-.6256-.62780282-1.6384-.62780282-2.2632 0l-1.1312 1.1351831c-.6248.627-.6248 1.64336619 0 2.27036619l1.6968 1.70277465c.6248.62780282.6248 1.64416901 0 2.27116901l-1.6968 1.70277465c-.6248.62700005-.6248 1.64336615 0 2.27116905l1.1312 1.1351831c.6248.627 1.6376.627 2.2632 0l1.6968-1.7027747c.6248-.6278028 1.6376-.6278028 2.2624 0l1.6968 1.7027747c.6256.627 1.6384.627 2.2632 0l1.1312-1.1351831c.6248-.6278029.6248-1.644169 0-2.27116905z" fill="#ed4245" transform="translate(113.6 99.737)"/><path d="m89.68384 105.867304h3.2c.4416 0 .8.359662.8.802817s-.3584.802817-.8.802817h-3.2c-.4416 0-.8-.359662-.8-.802817s.3584-.802817.8-.802817m-7.2 0h3.2c.4416 0 .8.359662.8.802817s-.3584.802817-.8.802817h-3.2c-.4416 0-.8-.359662-.8-.802817s.3584-.802817.8-.802817m14.4 0h3.2c.4416 0 .8.359662.8.802817s-.3584.802817-.8.802817h-3.2c-.4416 0-.8-.359662-.8-.802817s.3584-.802817.8-.802817m7.2 0h3.2c.4416 0 .8.359662.8.802817s-.3584.802817-.8.802817h-3.2c-.4416 0-.8-.359662-.8-.802817s.3584-.802817.8-.802817m-56.68712-15.3668786c.4416 0 .8.3596619.8.8028169v3.2112676c0 .4431549-.3584.8028169-.8.8028169s-.8-.359662-.8-.8028169v-3.2112676c0-.443155.3584-.8028169.8-.8028169m6.28712 15.3668786h3.2c.4416 0 .8.359662.8.802817s-.3584.802817-.8.802817h-3.2c-.4416 0-.8-.359662-.8-.802817s.3584-.802817.8-.802817m-6.28712-.916174c.4416 0 .8.359662.8.802816v.113198h1.4872c.4416 0 .8.359662.8.802817 0 .443154-.3584.802816-.8.802816h-2.2872c-.4416 0-.8-.359662-.8-.802816v-.916015c0-.443154.3584-.802816.8-.802816m0-7.2253525c.4416 0 .8.3596619.8.8028169v3.2112676c0 .443155-.3584.802817-.8.802817s-.8-.359662-.8-.802817v-3.2112676c0-.443155.3584-.8028169.8-.8028169m27.88712 8.1415265h3.2c.4416 0 .8.359662.8.802817s-.3584.802817-.8.802817h-3.2c-.4416 0-.8-.359662-.8-.802817s.3584-.802817.8-.802817m-7.2 0h3.2c.4416 0 .8.359662.8.802817s-.3584.802817-.8.802817h-3.2c-.4416 0-.8-.359662-.8-.802817s.3584-.802817.8-.802817m-7.2 0h3.2c.4416 0 .8.359662.8.802817s-.3584.802817-.8.802817h-3.2c-.4416 0-.8-.359662-.8-.802817s.3584-.802817.8-.802817" fill="#202225"/></g></svg>