<svg width="246" height="192" viewBox="0 0 246 192" fill="none" xmlns="http://www.w3.org/2000/svg">
<g clip-path="url(#clip0_1639_121343)">
<path d="M189.094 21.6709H54.1184C48.4479 21.6709 43.8511 26.2678 43.8511 31.9383V122.852C43.8511 128.522 48.4479 133.119 54.1184 133.119H189.094C194.765 133.119 199.362 128.522 199.362 122.852V31.9383C199.362 26.2678 194.765 21.6709 189.094 21.6709Z" fill="#242145" stroke="#3442D7" stroke-width="7.12" stroke-miterlimit="10"/>
<path d="M121.606 73.4884C121.606 73.4884 121.65 73.5029 121.672 73.5248C127.577 78.0177 137.692 89.1297 134.612 92.2682C131.014 95.4139 126.391 97.1543 121.614 97.1543C116.837 97.1543 112.213 95.4212 108.616 92.2682C105.528 89.1297 115.635 78.0177 121.548 73.5248C121.57 73.5102 121.592 73.4956 121.614 73.4884H121.606ZM131.896 60.5413C128.874 58.7427 125.597 57.6504 121.606 57.6504C117.616 57.6504 114.346 58.7499 111.317 60.5413C111.303 60.5486 111.288 60.5631 111.281 60.585C111.281 60.5995 111.281 60.6214 111.281 60.6432C111.288 60.6578 111.303 60.6723 111.324 60.6796C111.339 60.6796 111.361 60.6796 111.375 60.6796C115.198 59.8568 121.009 63.1555 121.555 63.4904C121.57 63.4977 121.585 63.505 121.599 63.505C121.614 63.505 121.628 63.505 121.643 63.4904C122.189 63.1627 128.007 59.8568 131.823 60.6796C131.837 60.6796 131.859 60.6796 131.874 60.6796C131.888 60.6796 131.903 60.6578 131.917 60.6432C131.925 60.6287 131.925 60.6068 131.917 60.585C131.91 60.5631 131.896 60.5486 131.881 60.5413H131.896ZM107.785 63.3156C107.785 63.3156 107.727 63.3593 107.698 63.3812C104.297 66.7527 102.237 71.2528 101.909 76.0297C101.581 80.8066 102.994 85.5471 105.899 89.3555C105.914 89.37 105.929 89.3846 105.95 89.3919C105.972 89.3919 105.994 89.3919 106.009 89.3919C106.023 89.3773 106.038 89.3627 106.038 89.3482C106.038 89.3263 106.038 89.3118 106.038 89.2899C104.53 84.6368 112.227 73.35 116.203 68.6241C116.218 68.6095 116.225 68.5877 116.232 68.5658C116.232 68.5513 116.232 68.544 116.225 68.5294C116.225 68.5149 116.211 68.5076 116.203 68.5003C110.174 62.5074 108.128 63.1482 107.8 63.3156H107.785ZM127.031 68.5003C127.031 68.5003 127.009 68.5149 127.009 68.5294C127.009 68.544 127.002 68.5513 127.002 68.5658C127.002 68.5877 127.017 68.6095 127.031 68.6241C131.007 73.3573 138.704 84.6441 137.197 89.2899C137.189 89.3045 137.182 89.3263 137.197 89.3482C137.197 89.37 137.211 89.3846 137.226 89.3919C137.248 89.3991 137.27 89.4064 137.284 89.3919C137.306 89.3919 137.321 89.37 137.335 89.3555C140.241 85.5471 141.653 80.8066 141.326 76.0297C140.998 71.2528 138.937 66.7527 135.536 63.3812C135.515 63.3521 135.478 63.3302 135.449 63.3156C135.114 63.1409 133.068 62.5074 127.046 68.5003H127.031Z" fill="white"/>
<path d="M186.932 48.126C185.628 47.2959 184.521 46.1964 183.684 44.8929C182.846 43.5895 182.3 42.1331 182.082 40.6039L181.274 35.361C181.259 35.2372 181.193 35.1207 181.106 35.0333C181.011 34.9459 180.888 34.895 180.764 34.8877C180.633 34.895 180.516 34.9459 180.422 35.0333C180.327 35.1207 180.269 35.2372 180.247 35.361L179.439 40.6039C179.213 42.1258 178.659 43.5895 177.829 44.8856C176.992 46.1818 175.892 47.2886 174.596 48.126L173.897 48.563C173.824 48.6139 173.766 48.6795 173.73 48.7523C173.693 48.8324 173.671 48.9125 173.679 48.9999C173.679 49.0872 173.693 49.1746 173.73 49.2474C173.766 49.3275 173.824 49.3931 173.897 49.4368L174.596 49.8737C175.892 50.7111 176.992 51.8179 177.829 53.1141C178.667 54.4103 179.213 55.8666 179.439 57.3958L180.247 62.6387C180.261 62.7625 180.327 62.8717 180.422 62.9591C180.516 63.0392 180.64 63.0829 180.764 63.0829C180.888 63.0829 181.011 63.0392 181.106 62.9591C181.201 62.879 181.259 62.7625 181.281 62.6387L182.089 57.3958C182.308 55.8666 182.854 54.403 183.691 53.1068C184.529 51.8106 185.635 50.7038 186.939 49.8737L187.638 49.4368C187.711 49.3858 187.769 49.3203 187.805 49.2474C187.842 49.1673 187.864 49.0872 187.856 48.9999C187.856 48.9125 187.842 48.8251 187.805 48.7523C187.769 48.6722 187.711 48.6066 187.638 48.563L186.939 48.126H186.932Z" fill="#FFE55C"/>
<path d="M26.6806 100.562C25.3771 99.7315 24.2703 98.6319 23.4329 97.3285C22.5955 96.025 22.0493 94.5687 21.8309 93.0395L21.0226 87.7966C21.008 87.6728 20.9425 87.5563 20.8551 87.4689C20.7605 87.3815 20.6367 87.3305 20.5129 87.3232C20.3818 87.3305 20.2653 87.3815 20.1706 87.4689C20.076 87.5563 20.0177 87.6728 19.9959 87.7966L19.1876 93.0395C18.9619 94.5614 18.4084 96.025 17.5783 97.3212C16.7409 98.6173 15.6413 99.7242 14.3452 100.562L13.6461 100.999C13.5733 101.049 13.515 101.115 13.4786 101.188C13.4422 101.268 13.4204 101.348 13.4277 101.435C13.4277 101.523 13.4422 101.61 13.4786 101.683C13.515 101.763 13.5733 101.829 13.6461 101.872L14.3452 102.309C15.6413 103.147 16.7409 104.253 17.5783 105.55C18.4157 106.846 18.9619 108.302 19.1876 109.831L19.9959 115.074C20.0104 115.198 20.076 115.307 20.1706 115.395C20.2653 115.475 20.3891 115.518 20.5129 115.518C20.6367 115.518 20.7605 115.475 20.8551 115.395C20.9498 115.315 21.008 115.198 21.0299 115.074L21.8382 109.831C22.0566 108.302 22.6028 106.839 23.4402 105.542C24.2776 104.246 25.3844 103.139 26.6879 102.309L27.3869 101.872C27.4597 101.821 27.518 101.756 27.5544 101.683C27.5908 101.603 27.6127 101.523 27.6054 101.435C27.6054 101.348 27.5908 101.261 27.5544 101.188C27.518 101.108 27.4597 101.042 27.3869 100.999L26.6879 100.562H26.6806Z" fill="#FF78B7"/>
<path d="M217.836 15.8305C216.292 14.8474 214.981 13.5367 213.991 12.0002C213.001 10.4638 212.353 8.72341 212.098 6.91752L211.144 0.698841C211.122 0.545922 211.049 0.407567 210.94 0.305622C210.831 0.203676 210.685 0.138141 210.532 0.130859C210.379 0.138141 210.241 0.203676 210.124 0.305622C210.015 0.407567 209.942 0.545922 209.921 0.698841L208.967 6.91752C208.697 8.72341 208.049 10.4565 207.059 11.993C206.068 13.5294 204.765 14.8401 203.229 15.8305L202.398 16.3548C202.311 16.413 202.245 16.4931 202.202 16.5805C202.158 16.6752 202.136 16.7771 202.136 16.8718C202.136 16.9737 202.158 17.0757 202.202 17.163C202.245 17.2504 202.318 17.3305 202.398 17.3888L203.229 17.9131C204.765 18.9034 206.068 20.2141 207.059 21.7506C208.049 23.2871 208.704 25.0201 208.967 26.826L209.921 33.0447C209.942 33.1903 210.015 33.3214 210.124 33.4234C210.234 33.518 210.379 33.569 210.525 33.569C210.671 33.569 210.816 33.518 210.925 33.4234C211.035 33.3287 211.107 33.1903 211.129 33.0447L212.083 26.826C212.338 25.0128 212.986 23.2798 213.976 21.7433C214.967 20.2068 216.278 18.8961 217.821 17.9131L218.651 17.3888C218.732 17.3305 218.804 17.2504 218.848 17.163C218.892 17.0684 218.914 16.9737 218.914 16.8718C218.914 16.7698 218.892 16.6679 218.848 16.5805C218.804 16.4931 218.732 16.413 218.651 16.3548L217.821 15.8305H217.836Z" fill="#66BAFF"/>
<path d="M228.088 42.9776C227.287 42.4679 226.61 41.7907 226.1 40.997C225.591 40.2033 225.256 39.3076 225.117 38.3682L224.622 35.1497C224.615 35.0696 224.579 34.9967 224.52 34.9458C224.462 34.8948 224.389 34.8584 224.309 34.8584C224.229 34.8584 224.156 34.8948 224.098 34.9458C224.04 34.9967 224.003 35.0696 223.996 35.1497L223.501 38.3682C223.363 39.3003 223.028 40.196 222.511 40.9897C222.001 41.7834 221.324 42.4606 220.53 42.9776L220.1 43.2471C220.057 43.2762 220.02 43.3199 219.998 43.3636C219.976 43.4073 219.962 43.4655 219.962 43.5165C219.962 43.5675 219.969 43.6184 219.998 43.6694C220.02 43.7131 220.057 43.7568 220.1 43.7859L220.53 44.0553C221.324 44.5723 222.001 45.2423 222.511 46.0433C223.02 46.837 223.363 47.7327 223.501 48.6647L223.996 51.8833C224.011 51.9561 224.047 52.0289 224.105 52.0799C224.164 52.1309 224.236 52.1527 224.316 52.1527C224.389 52.1527 224.469 52.1236 224.528 52.0799C224.586 52.0289 224.622 51.9634 224.637 51.8833L225.132 48.6647C225.263 47.7254 225.598 46.8297 226.115 46.036C226.625 45.2423 227.309 44.5651 228.103 44.0553L228.533 43.7859C228.576 43.7568 228.613 43.7131 228.635 43.6694C228.656 43.6257 228.671 43.5675 228.671 43.5165C228.671 43.4655 228.664 43.4145 228.635 43.3636C228.613 43.3199 228.576 43.2762 228.533 43.2471L228.103 42.9776H228.088Z" fill="#5865F0"/>
<path d="M228.111 156.908C228.722 150.493 228.722 147.726 228.373 142.49C227.877 135.194 222.86 129.179 215.622 127.068C209.76 125.356 195.131 123.449 184.907 122.473C174.676 121.497 159.953 120.594 153.88 121.169C146.372 121.876 140.306 126.835 138.442 133.905C137.102 138.981 136.578 141.697 135.966 148.112" stroke="black" stroke-width="14.24" stroke-miterlimit="10" stroke-linecap="round"/>
<path d="M138.239 146.35C138.853 138.58 135.448 131.973 130.633 131.593C125.818 131.212 121.417 137.202 120.802 144.972C120.188 152.741 123.593 159.349 128.408 159.729C133.223 160.11 137.625 154.12 138.239 146.35Z" fill="#43D88C"/>
<path d="M146.128 147.035C146.885 137.457 142.689 129.313 136.756 128.844C130.822 128.375 125.398 135.759 124.641 145.337C123.884 154.914 128.08 163.059 134.014 163.528C139.947 163.997 145.371 156.613 146.128 147.035Z" fill="black"/>
<path d="M228.111 156.908C228.722 150.493 228.722 147.726 228.373 142.49C227.877 135.194 222.86 129.179 215.622 127.068C209.76 125.356 195.131 123.449 184.907 122.473C174.676 121.497 159.953 120.594 153.88 121.169C146.372 121.876 140.306 126.835 138.442 133.905C137.102 138.981 136.578 141.697 135.966 148.112C135.355 154.527 135.355 157.294 135.704 162.53C136.199 169.826 141.217 175.841 148.455 177.953C154.317 179.664 168.946 181.572 179.169 182.548C189.4 183.524 204.124 184.427 210.197 183.851C217.705 183.145 223.771 178.186 225.635 171.115C226.975 166.04 227.499 163.324 228.111 156.908Z" fill="#698FFF"/>
<path d="M212.666 148.752C212.934 145.954 211.278 143.506 208.968 143.286C206.658 143.065 204.569 145.154 204.301 147.953C204.034 150.751 205.689 153.199 207.999 153.419C210.309 153.64 212.399 151.551 212.666 148.752Z" fill="black"/>
<path d="M150.336 142.798C150.604 140 148.948 137.552 146.638 137.331C144.328 137.111 142.239 139.2 141.971 141.999C141.704 144.797 143.359 147.244 145.669 147.465C147.979 147.686 150.069 145.596 150.336 142.798Z" fill="black"/>
<path d="M188.483 176.14C186.109 176.577 183.801 175.87 182.177 174.742C180.575 173.642 179.628 172.142 179.919 170.94C180.407 168.909 190.973 166.353 193.15 167.292C193.981 167.656 194.381 168.581 194.359 169.717C194.308 172.12 192.342 175.426 188.483 176.14Z" fill="black"/>
<path d="M188.483 176.139C186.109 176.576 183.801 175.87 182.177 174.741C183.757 173.198 186.094 171.785 188.876 170.824C190.784 170.161 192.663 169.804 194.367 169.717C194.316 172.12 192.349 175.426 188.49 176.139H188.483Z" fill="#FF78B8"/>
<path d="M162.463 133.023L192.64 135.908C197.127 136.337 200.425 140.331 199.996 144.818L199.088 154.314C198.533 160.121 193.371 164.382 187.565 163.827L164.767 161.648C157.526 160.956 152.202 154.514 152.894 147.266L153.553 140.379C153.982 135.892 157.976 132.595 162.463 133.023Z" fill="#B8CDFF"/>
<path d="M170.119 155.697C170.245 154.379 168.059 153.093 165.237 152.823C162.415 152.553 160.025 153.403 159.899 154.72C159.773 156.037 161.959 157.323 164.781 157.593C167.603 157.863 169.993 157.014 170.119 155.697Z" fill="#698FFF"/>
<path d="M185.386 157.157C185.512 155.839 183.326 154.553 180.504 154.283C177.682 154.013 175.292 154.862 175.166 156.18C175.04 157.497 177.226 158.783 180.048 159.053C182.871 159.323 185.261 158.474 185.386 157.157Z" fill="#698FFF"/>
<path d="M224.455 172.157C218.397 171.422 214.443 162.902 215.622 153.13C216.802 143.35 222.671 136.018 228.729 136.753L234.205 137.416L229.924 172.82L224.448 172.157H224.455Z" fill="black"/>
<path d="M243.033 156.428C244.215 146.65 240.263 138.131 234.206 137.399C228.149 136.667 222.281 144 221.1 153.778C219.918 163.556 223.87 172.076 229.927 172.808C235.984 173.539 241.852 166.206 243.033 156.428Z" fill="black"/>
<path d="M244.104 156.562C245.151 147.894 241.644 140.341 236.27 139.692C230.896 139.042 225.69 145.543 224.643 154.211C223.595 162.879 227.103 170.432 232.477 171.081C237.851 171.73 243.056 165.23 244.104 156.562Z" fill="#43D88C"/>
<path d="M235.159 165.778C233.856 165.494 232.778 164.293 232.101 162.37C231.409 160.411 231.22 157.892 231.548 155.285C232.261 149.707 235.094 145.593 237.999 145.921C240.897 146.256 242.616 150.88 241.902 156.457C241.189 162.035 238.356 166.15 235.451 165.822C235.349 165.807 235.254 165.793 235.159 165.771V165.778ZM238.072 146.955C238.007 146.94 237.941 146.926 237.875 146.918C235.567 146.656 233.099 150.537 232.472 155.394C232.159 157.841 232.334 160.186 232.975 161.992C233.572 163.703 234.504 164.708 235.582 164.832C237.89 165.094 240.366 161.212 240.985 156.355C241.589 151.644 240.264 147.428 238.079 146.947L238.072 146.955Z" fill="#107C10" stroke="#107C10" stroke-width="1.71" stroke-miterlimit="10"/>
<path d="M225.052 170.409L220.406 177.997C215.702 185.672 207.03 190.005 198.066 189.145L175.798 187.019" stroke="black" stroke-width="5.34" stroke-miterlimit="10" stroke-linecap="round"/>
<path d="M173.379 178.328C170.529 178.056 167.997 180.146 167.725 182.996C167.452 185.847 169.542 188.378 172.392 188.651L181.236 189.496C184.086 189.768 186.618 187.678 186.89 184.828C187.163 181.978 185.073 179.446 182.223 179.174L173.379 178.328Z" fill="black"/>
<path d="M200.308 113.217C200.308 113.217 201.765 112.759 203.884 111.827C205.384 111.171 207.255 110.239 208.974 109.234C215.2 105.601 217.224 97.5324 208.748 94.7435C208.748 94.7435 200.898 88.9326 190.303 99.8335C187.303 102.921 185.461 102.338 183.305 102.178L194.279 112.475L200.301 113.21L200.308 113.217Z" fill="#57F287"/>
<path d="M190.769 109.155C190.769 109.155 203.228 108.791 213.299 84.6514" stroke="#038E3C" stroke-width="5.34" stroke-miterlimit="10" stroke-linecap="round"/>
<path d="M203.884 111.827C204.306 111.638 197.687 114.66 189.014 104.211C187.82 102.776 185.912 100.409 185.25 99.623C181.805 95.5525 173.773 86.7415 164.737 90.9577C164.737 90.9577 156.858 95.2394 162.37 103.672C163.754 105.791 165.625 107.546 167.78 108.878C173.438 112.366 187.58 119.087 203.884 111.827Z" fill="#29CC7A"/>
<path d="M165.589 90.6006C165.305 90.7098 165.021 90.8263 164.737 90.9647C164.737 90.9647 163.455 91.6637 162.29 93.0473C163.106 95.5522 164.475 98.7999 166.79 102.142C169.667 106.3 174.414 111.113 181.987 114.412C186.393 115.242 191.446 115.402 196.871 114.172C173.664 111.871 167.256 96.8265 165.589 90.6006Z" fill="#038E3C"/>
<path d="M33.7876 184.347H156.559V186.75C156.559 188.665 155.008 190.223 153.086 190.223H33.7876V184.347Z" fill="#BABBBE"/>
<path d="M1.69656 124.235L3.91752 122.356L28.7849 184.347H72.1919V186.939C72.1919 188.461 71.2088 189.757 69.8399 190.223H28.2315C26.6222 190.223 25.1659 189.247 24.5542 187.754L23.5129 185.199L23.1634 184.347H23.1779L0.85187 127.592C0.385834 126.405 0.728079 125.058 1.69656 124.228V124.235Z" fill="#73767D"/>
<path d="M5.58509 121.737H82.969C84.6584 121.737 86.173 122.771 86.792 124.337L110.414 184.339H26.4621L3.19666 125.247C2.53401 123.565 3.77192 121.737 5.58509 121.737Z" fill="black"/>
<path d="M9.0731 125.764L81.2724 125.647C82.0807 125.647 82.8161 126.135 83.1147 126.893L103.984 178.812C104.247 179.46 103.766 180.174 103.067 180.174L30.8676 180.29C30.0593 180.29 29.3238 179.802 29.0253 179.045L8.15559 127.126C7.89344 126.478 8.37404 125.764 9.0731 125.764Z" fill="#8AD7FF"/>
<path d="M15.7361 133.279L17.0396 136.585L29.9503 169.368L31.1299 172.361C31.9018 174.319 33.7951 175.608 35.9068 175.608H94.591C96.0401 175.608 97.0304 174.152 96.4988 172.805L95.1444 169.36L82.2337 136.578L81.1124 133.716C80.3405 131.75 78.4472 130.461 76.3355 130.461H17.6513C16.2022 130.461 15.2046 131.925 15.7434 133.272L15.7361 133.279Z" fill="#5865F0"/>
<path d="M29.9429 169.368L31.1225 172.36C31.8944 174.319 33.7877 175.608 35.8994 175.608H94.5836C96.0327 175.608 97.023 174.152 96.4914 172.805L95.137 169.36H29.9429V169.368Z" fill="#292B2F"/>
<path d="M15.7361 133.28L31.1226 172.368C31.8945 174.327 33.7877 175.616 35.8995 175.616H44.259L26.4841 130.469H17.6439C16.1949 130.469 15.1972 131.932 15.7361 133.28Z" fill="#40444C"/>
<path d="M67.7574 141.1C65.4272 140.19 63.0824 139.542 60.7887 139.178C60.6867 139.709 60.6212 140.248 60.5848 140.809C58.1526 140.459 55.8152 140.459 53.6379 140.809C53.1937 140.255 52.7277 139.709 52.2325 139.178C50.2082 139.549 48.3367 140.197 46.6765 141.107C44.8779 146.969 45.9046 152.686 48.5188 158.322C51.4679 160.033 54.5481 161.336 57.6138 162.174C57.9269 161.336 58.1526 160.448 58.2837 159.523C57.2643 159.188 56.2448 158.773 55.2399 158.285C55.4001 158.125 55.553 157.965 55.6987 157.805C61.4003 160.091 67.0292 160.091 71.0487 157.805C71.3182 157.972 71.5876 158.14 71.857 158.285C71.209 158.773 70.4953 159.188 69.7162 159.523C70.5317 160.448 71.4056 161.336 72.3376 162.174C74.7916 161.344 76.9106 160.04 78.6 158.322C76.8232 151.79 73.0294 146.125 67.7428 141.1H67.7574ZM57.2497 154.848C55.7569 154.848 54.0166 153.494 53.4049 151.819C52.7859 150.151 53.4777 148.775 55.0142 148.775C56.5506 148.775 58.2837 150.144 58.8663 151.819C59.4561 153.487 58.7789 154.848 57.2497 154.848ZM67.3277 154.848C65.8277 154.848 64.0946 153.494 63.4829 151.819C62.864 150.151 63.5558 148.775 65.0922 148.775C66.6287 148.775 68.3545 150.144 68.937 151.819C69.5268 153.487 68.8496 154.848 67.3277 154.848Z" fill="white"/>
<path fill-rule="evenodd" clip-rule="evenodd" d="M64.0654 33.9255C63.745 33.7945 63.3737 33.8673 63.1261 34.1149L59.4196 38.1708H56.8346C56.3613 38.1708 55.9753 38.5568 55.9753 39.0374V44.2147C55.9753 44.6881 56.3613 45.074 56.8346 45.074H59.4196L63.1261 49.1373C63.3737 49.3848 63.745 49.4577 64.0654 49.3266C64.3858 49.1955 64.597 48.8751 64.597 48.5256V34.7265C64.597 34.377 64.3858 34.0639 64.0654 33.9328V33.9255ZM66.3228 35.5858V37.3116C68.704 37.3116 70.6336 39.2485 70.6336 41.6224C70.6336 43.9963 68.6967 45.9333 66.3228 45.9333V47.659C69.6506 47.659 72.3594 44.9502 72.3594 41.6224C72.3594 38.2946 69.6506 35.5858 66.3228 35.5858ZM66.3228 39.0374C67.75 39.0374 68.9079 40.1952 68.9079 41.6224C68.9079 43.0497 67.7428 44.2075 66.3228 44.2075V42.4817C66.7961 42.4817 67.1821 42.0957 67.1821 41.6224C67.1821 41.1491 66.7961 40.7559 66.3228 40.7559V39.0301V39.0374Z" fill="#72767D"/>
</g>
<defs>
<clipPath id="clip0_1639_121343">
<rect width="246" height="191.512" fill="white"/>
</clipPath>
</defs>
</svg>
