<?xml version="1.0" encoding="UTF-8"?>
<svg width="190px" height="134px" viewBox="0 0 190 134" version="1.1" xmlns="http://www.w3.org/2000/svg" xmlns:xlink="http://www.w3.org/1999/xlink">
    <!-- Generator: Sketch 45.2 (43514) - http://www.bohemiancoding.com/sketch -->
    <title>illus_friend_dark</title>
    <desc>Created with Sketch.</desc>
    <defs>
        <polygon id="path-1" points="0 134.207 189.107 134.207 189.107 1 0 1"></polygon>
    </defs>
    <g id="Group-Invite" stroke="none" stroke-width="1" fill="none" fill-rule="evenodd">
        <g id="Share-Error/Not-Friend/Dark" transform="translate(-470.000000, -401.000000)">
            <g id="Modal" transform="translate(345.000000, 320.000000)">
                <g id="illus_friend_dark" transform="translate(125.000000, 80.000000)">
                    <g id="Group-3" transform="translate(0.000000, 0.207000)" fill-opacity="0.3" fill="#4F545C">
                        <path d="M189.1068,92.9494 L189.1068,92.9484 C189.1068,76.2484 175.5678,62.7094 158.8678,62.7094 L141.4298,62.7094 C124.3318,62.7094 110.4718,48.8494 110.4718,31.7514 C110.4718,14.6534 96.6108,0.7934 79.5128,0.7934 L24.6278,0.7934 C11.0258,0.7934 -0.0002,11.8194 -0.0002,25.4214 C-0.0002,39.0234 11.0258,50.0494 24.6278,50.0494 L44.9098,50.0494 C52.8218,50.0494 59.2358,56.4644 59.2358,64.3764 C59.2358,72.2884 52.8218,78.7024 44.9098,78.7024 L31.9178,78.7024 C19.6338,78.7024 9.6748,88.6614 9.6748,100.9454 C9.6748,113.2294 19.6338,123.1874 31.9178,123.1874 L158.8678,123.1874 C175.5678,123.1874 189.1068,109.6494 189.1068,92.9494" id="Fill-1"></path>
                    </g>
                    <path d="M153.8017,17.8658 C154.0577,17.8658 154.3137,17.7678 154.5087,17.5728 L155.6917,16.3888 C156.0827,15.9988 156.0827,15.3658 155.6917,14.9748 C155.3017,14.5848 154.6677,14.5848 154.2777,14.9748 L153.0947,16.1588 C152.7037,16.5498 152.7037,17.1818 153.0947,17.5728 C153.2897,17.7678 153.5457,17.8658 153.8017,17.8658" id="Fill-4" fill="#202225"></path>
                    <path d="M147.8851,23.7818 C148.1411,23.7818 148.3971,23.6838 148.5921,23.4888 L149.7761,22.3048 C150.1661,21.9148 150.1661,21.2818 149.7761,20.8908 C149.3851,20.5008 148.7521,20.5008 148.3621,20.8908 L147.1781,22.0748 C146.7871,22.4658 146.7871,23.0978 147.1781,23.4888 C147.3731,23.6838 147.6291,23.7818 147.8851,23.7818" id="Fill-6" fill="#202225"></path>
                    <path d="M154.5087,20.8912 C154.1177,20.5002 153.4857,20.5002 153.0947,20.8912 C152.7037,21.2822 152.7037,21.9142 153.0947,22.3052 L154.2777,23.4892 C154.4727,23.6842 154.7287,23.7822 154.9847,23.7822 C155.2407,23.7822 155.4967,23.6842 155.6917,23.4892 C156.0827,23.0982 156.0827,22.4652 155.6917,22.0752 L154.5087,20.8912 Z" id="Fill-8" fill="#202225"></path>
                    <path d="M148.3617,17.5729 C148.5567,17.7679 148.8127,17.8659 149.0687,17.8659 C149.3247,17.8659 149.5807,17.7679 149.7757,17.5729 C150.1667,17.1819 150.1667,16.5499 149.7757,16.1589 L148.5917,14.9749 C148.2017,14.5849 147.5687,14.5849 147.1777,14.9749 C146.7877,15.3659 146.7877,15.9989 147.1777,16.3889 L148.3617,17.5729 Z" id="Fill-10" fill="#202225"></path>
                    <mask id="mask-2" fill="white">
                        <use xlink:href="#path-1"></use>
                    </mask>
                    <g id="Clip-13"></g>
                    <polygon id="Fill-12" fill="#2F3137" mask="url(#mask-2)" points="93.885 133.207 98.482 133.207 98.482 83.807 93.885 83.807"></polygon>
                    <path d="M59.2367,81.8067 L28.9067,81.8067 C27.1887,81.8067 25.8247,80.3707 25.9107,78.6557 C26.3657,69.4807 28.6747,47.3237 40.2347,35.5897 C45.2567,30.4937 51.5167,27.9087 58.8427,27.9087 C66.1697,27.9087 72.4297,30.4937 77.4517,35.5897 C89.0107,47.3237 91.3197,69.4807 91.7757,78.6557 C91.8607,80.3707 90.4967,81.8067 88.7787,81.8067 L59.2367,81.8067 Z M89.0807,27.9087 C89.0777,28.0837 89.0677,28.2577 89.0677,28.4337 C89.0677,40.4317 96.8227,50.6467 107.5827,54.3397 C112.2317,55.9347 115.4547,60.1697 115.4547,65.0847 L115.4547,79.8067 C115.4547,80.9107 114.5587,81.8067 113.4547,81.8067 L101.6927,81.8067 C97.4097,81.8067 93.8577,78.5277 93.4897,74.2617 C93.2457,71.4227 92.8507,68.0607 92.2157,64.4677 C90.5687,55.1597 86.9177,42.3507 78.8797,34.1897 C77.1537,32.4367 75.2907,30.9617 73.2997,29.7647 C72.4377,29.2447 72.8347,27.9087 73.8417,27.9087 L89.0807,27.9087 Z M116.4547,3.0467 C130.4527,3.0467 141.8407,14.4357 141.8407,28.4337 C141.8407,42.4327 130.4527,53.8217 116.4547,53.8217 C102.4567,53.8217 91.0677,42.4327 91.0677,28.4337 C91.0677,14.4357 102.4567,3.0467 116.4547,3.0467 L116.4547,3.0467 Z M143.3687,41.8657 C142.8857,42.1367 142.7157,42.7457 142.9857,43.2277 C148.7547,53.4967 150.7447,66.6727 151.4287,74.9267 C151.7367,78.6357 148.7927,81.8067 145.0707,81.8067 L119.4547,81.8067 C118.3497,81.8067 117.4547,80.9107 117.4547,79.8067 L117.4547,65.1867 C117.4547,60.3547 120.4657,55.9517 125.0527,54.4317 C136.5607,50.6187 144.7097,39.3677 143.7667,26.3987 C142.7687,12.6597 131.3847,1.6457 117.6207,1.0717 C102.8497,0.4547 90.5027,11.6087 89.1887,25.9087 L59.2367,25.9087 C59.2227,25.9087 59.2117,25.9157 59.1977,25.9167 C59.0787,25.9147 58.9627,25.9087 58.8427,25.9087 C50.9597,25.9087 44.2177,28.6947 38.8057,34.1897 C30.7677,42.3517 27.1177,55.1597 25.4707,64.4677 C23.6967,74.4937 23.7997,82.7407 23.8007,82.8227 C23.8097,83.3687 24.2557,83.8067 24.8007,83.8067 L59.2367,83.8067 L88.8847,83.8067 C90.5417,83.8067 91.8847,85.1507 91.8847,86.8067 L91.8847,133.2067 C91.8847,133.7587 92.3327,134.2067 92.8847,134.2067 C93.4377,134.2067 93.8847,133.7587 93.8847,133.2067 L93.8847,86.1057 C93.8847,84.8357 94.9137,83.8067 96.1837,83.8067 C97.4527,83.8067 98.4817,84.8357 98.4817,86.1057 L98.4817,133.2067 C98.4817,133.7587 98.9287,134.2067 99.4817,134.2067 C100.0347,134.2067 100.4817,133.7587 100.4817,133.2067 L100.4817,86.8067 C100.4817,85.1507 101.8247,83.8067 103.4817,83.8067 L152.7837,83.8067 C153.3297,83.8067 153.7747,83.3687 153.7837,82.8227 C153.7987,81.8497 154.0387,58.8207 144.7297,42.2477 C144.4587,41.7657 143.8477,41.5957 143.3687,41.8657 L143.3687,41.8657 Z" id="Fill-14" fill="#202225" mask="url(#mask-2)"></path>
                    <path d="M85.3607,75.566 C85.1717,75.773 84.9037,75.891 84.6237,75.891 L76.8547,75.891 C76.8537,75.891 76.8527,75.891 76.8517,75.891 L72.0367,75.891 L40.3717,75.891 C40.3707,75.891 40.3697,75.891 40.3687,75.891 L33.0617,75.891 C32.7817,75.891 32.5127,75.773 32.3237,75.566 C32.1337,75.358 32.0407,75.081 32.0657,74.801 C32.5117,69.831 33.5427,62.377 35.9217,55.091 C36.0917,54.566 36.6537,54.277 37.1817,54.45 C37.1847,54.451 37.1867,54.453 37.1887,54.454 C37.5427,53.425 37.9327,52.418 38.3407,51.423 C38.3337,51.42 38.3257,51.422 38.3187,51.419 C37.8117,51.199 37.5797,50.611 37.7977,50.104 C39.6607,45.808 41.9007,42.316 44.4597,39.724 C48.3797,35.754 53.0817,33.825 58.8367,33.825 C64.6007,33.825 69.3107,35.761 73.2327,39.744 C82.4397,49.093 84.9627,67.376 85.6197,74.803 C85.6437,75.082 85.5497,75.359 85.3607,75.566 M58.8427,27.909 C51.5167,27.909 45.2567,30.493 40.2347,35.59 C28.6747,47.323 26.3657,69.481 25.9107,78.655 C25.8247,80.371 27.1887,81.807 28.9067,81.807 L59.2367,81.807 L88.7787,81.807 C90.4967,81.807 91.8607,80.371 91.7757,78.655 C91.3187,69.481 89.0107,47.323 77.4517,35.59 C72.4297,30.493 66.1697,27.909 58.8427,27.909" id="Fill-15" fill="#72767D" mask="url(#mask-2)"></path>
                    <path d="M56.2045,41.7408 C59.7625,41.7408 62.6565,44.6358 62.6565,48.1938 C62.6565,51.7518 59.7625,54.6458 56.2045,54.6458 C52.6455,54.6458 49.7515,51.7518 49.7515,48.1938 C49.7515,44.6358 52.6455,41.7408 56.2045,41.7408 M37.8215,55.7108 C35.6695,62.3068 34.6465,69.0628 34.1615,73.8908 L39.3715,73.8908 L39.3715,63.0168 C39.3715,62.4648 39.8185,62.0168 40.3715,62.0168 L72.0365,62.0168 L76.8515,62.0168 C77.4045,62.0168 77.8515,62.4648 77.8515,63.0168 L77.8515,73.8908 L83.5245,73.8908 C82.7465,66.1158 80.1475,49.6158 71.8075,41.1478 C68.2805,37.5658 64.0375,35.8248 58.8365,35.8248 C53.6435,35.8248 49.4065,37.5598 45.8835,41.1298 C43.4995,43.5438 41.3965,46.8308 39.6345,50.8988 C39.4175,51.3978 38.8465,51.6298 38.3405,51.4238 C37.9335,52.4178 37.5425,53.4258 37.1885,54.4538 C37.7085,54.6288 37.9925,55.1888 37.8215,55.7108" id="Fill-16" fill="#4F545C" mask="url(#mask-2)"></path>
                    <path d="M74.8519,73.8912 L74.0369,73.8912 C73.4839,73.8912 73.0369,73.4432 73.0369,72.8912 L73.0369,65.0172 C73.0369,64.4652 73.4839,64.0172 74.0369,64.0172 L74.8519,64.0172 C75.4039,64.0172 75.8519,64.4652 75.8519,65.0172 L75.8519,72.8912 C75.8519,73.4432 75.4039,73.8912 74.8519,73.8912 L74.8519,73.8912 Z M41.3719,73.8912 L71.0369,73.8912 L71.0369,64.0172 L41.3719,64.0172 L41.3719,73.8912 Z M58.8359,33.8252 C53.0809,33.8252 48.3789,35.7542 44.4589,39.7242 C41.9009,42.3152 39.6609,45.8082 37.7979,50.1042 C37.5799,50.6112 37.8119,51.1992 38.3189,51.4192 C38.3259,51.4222 38.3329,51.4202 38.3409,51.4232 C38.8469,51.6292 39.4169,51.3972 39.6339,50.8992 C41.3969,46.8312 43.4989,43.5442 45.8829,41.1292 C49.4069,37.5602 53.6439,35.8252 58.8359,35.8252 C64.0379,35.8252 68.2809,37.5662 71.8069,41.1472 C80.1479,49.6162 82.7469,66.1152 83.5249,73.8912 L80.3059,73.8912 C78.9499,73.8912 77.8519,72.7922 77.8519,71.4372 L77.8519,63.0172 C77.8519,62.4652 77.4039,62.0172 76.8519,62.0172 L72.0369,62.0172 L40.3719,62.0172 C39.8189,62.0172 39.3719,62.4652 39.3719,63.0172 L39.3719,71.4372 C39.3719,72.7922 38.2729,73.8912 36.9179,73.8912 L34.1619,73.8912 C34.6469,69.0622 35.6689,62.3072 37.8219,55.7112 C37.9929,55.1882 37.7079,54.6282 37.1889,54.4542 C37.1859,54.4532 37.1849,54.4512 37.1819,54.4502 C36.6539,54.2772 36.0919,54.5652 35.9209,55.0912 C33.5419,62.3772 32.5119,69.8312 32.0659,74.8012 C32.0399,75.0812 32.1339,75.3582 32.3239,75.5652 C32.5129,75.7722 32.7819,75.8912 33.0619,75.8912 L40.3689,75.8912 C40.3699,75.8912 40.3709,75.8912 40.3719,75.8912 L72.0369,75.8912 L76.8519,75.8912 C76.8519,75.8912 76.8529,75.8912 76.8539,75.8912 L84.6229,75.8912 C84.9039,75.8912 85.1709,75.7732 85.3609,75.5662 C85.5499,75.3592 85.6439,75.0822 85.6199,74.8032 C84.9619,67.3762 82.4399,49.0932 73.2329,39.7442 C69.3109,35.7612 64.6009,33.8252 58.8359,33.8252 L58.8359,33.8252 Z" id="Fill-17" fill="#202225" mask="url(#mask-2)"></path>
                    <path d="M51.7514,48.1935 C51.7514,50.6485 53.7494,52.6465 56.2044,52.6465 C58.6594,52.6465 60.6564,50.6485 60.6564,48.1935 C60.6564,45.7385 58.6594,43.7405 56.2044,43.7405 C53.7494,43.7405 51.7514,45.7385 51.7514,48.1935" id="Fill-18" fill="#B9BBBE" mask="url(#mask-2)"></path>
                    <path d="M60.6566,48.1935 C60.6566,50.6485 58.6596,52.6465 56.2046,52.6465 C53.7496,52.6465 51.7516,50.6485 51.7516,48.1935 C51.7516,45.7385 53.7496,43.7405 56.2046,43.7405 C58.6596,43.7405 60.6566,45.7385 60.6566,48.1935 M56.2046,54.6465 C59.7616,54.6465 62.6566,51.7515 62.6566,48.1935 C62.6566,44.6355 59.7616,41.7405 56.2046,41.7405 C52.6456,41.7405 49.7516,44.6355 49.7516,48.1935 C49.7516,51.7515 52.6456,54.6465 56.2046,54.6465" id="Fill-19" fill="#202225" mask="url(#mask-2)"></path>
                    <path d="M74.4442,73.8912 L74.4442,73.8912 C75.2212,73.8912 75.8522,73.2612 75.8522,72.4832 L75.8522,65.4252 C75.8522,64.6472 75.2212,64.0172 74.4442,64.0172 C73.6662,64.0172 73.0362,64.6472 73.0362,65.4252 L73.0362,72.4832 C73.0362,73.2612 73.6662,73.8912 74.4442,73.8912" id="Fill-20" fill="#72767D" mask="url(#mask-2)"></path>
                    <path d="M46.6049,67.2945 L64.9389,67.2945 C65.4919,67.2945 65.9389,67.7425 65.9389,68.2945 C65.9389,68.8465 65.4919,69.2945 64.9389,69.2945 L46.6049,69.2945 C46.0519,69.2945 45.6049,68.8465 45.6049,68.2945 C45.6049,67.7425 46.0519,67.2945 46.6049,67.2945 M70.0369,64.0175 L42.3719,64.0175 C41.8189,64.0175 41.3719,64.4645 41.3719,65.0175 L41.3719,72.8915 C41.3719,73.4435 41.8189,73.8915 42.3719,73.8915 L70.0369,73.8915 C70.5889,73.8915 71.0369,73.4435 71.0369,72.8915 L71.0369,65.0175 C71.0369,64.4645 70.5889,64.0175 70.0369,64.0175" id="Fill-21" fill="#B9BBBE" mask="url(#mask-2)"></path>
                    <path d="M46.6049,69.2945 L64.9389,69.2945 C65.4919,69.2945 65.9389,68.8465 65.9389,68.2945 C65.9389,67.7425 65.4919,67.2945 64.9389,67.2945 L46.6049,67.2945 C46.0519,67.2945 45.6049,67.7425 45.6049,68.2945 C45.6049,68.8465 46.0519,69.2945 46.6049,69.2945" id="Fill-22" fill="#202225" mask="url(#mask-2)"></path>
                    <path d="M116.4545,6.4342 C117.0075,6.4342 117.4545,6.8822 117.4545,7.4342 C117.4545,7.4522 117.4455,7.4662 117.4445,7.4842 C118.5085,7.5342 119.5565,7.6412 120.5735,7.8432 C120.5755,7.8332 120.5725,7.8232 120.5745,7.8132 C120.7085,7.2762 121.2505,6.9492 121.7875,7.0852 C122.4885,7.2602 123.1865,7.4712 123.8625,7.7132 C124.3825,7.8992 124.6535,8.4712 124.4675,8.9912 C124.4635,9.0012 124.4555,9.0092 124.4515,9.0192 C125.8025,9.5762 127.0825,10.2662 128.2745,11.0792 C128.2795,11.0712 128.2805,11.0612 128.2865,11.0542 C128.6195,10.6132 129.2445,10.5232 129.6875,10.8572 C135.2595,15.0592 138.4545,21.4652 138.4545,28.4342 C138.4545,40.5652 128.5855,50.4342 116.4545,50.4342 C104.3235,50.4342 94.4545,40.5652 94.4545,28.4342 C94.4545,16.3032 104.3235,6.4342 116.4545,6.4342 M91.0675,28.4342 C91.0675,42.4332 102.4565,53.8212 116.4545,53.8212 C130.4525,53.8212 141.8415,42.4332 141.8415,28.4342 C141.8415,14.4352 130.4525,3.0472 116.4545,3.0472 C102.4565,3.0472 91.0675,14.4352 91.0675,28.4342" id="Fill-23" fill="#DCDDDE" mask="url(#mask-2)"></path>
                    <path d="M128.3285,19.5455 C128.3505,19.5455 128.3685,19.5565 128.3905,19.5575 C128.4585,19.5625 128.5215,19.5795 128.5875,19.5975 C128.6495,19.6145 128.7095,19.6285 128.7655,19.6555 C128.8195,19.6825 128.8645,19.7195 128.9135,19.7555 C128.9705,19.7985 129.0255,19.8395 129.0725,19.8925 C129.0855,19.9085 129.1045,19.9155 129.1175,19.9315 C129.1435,19.9645 129.1505,20.0045 129.1715,20.0395 C129.2075,20.0995 129.2405,20.1575 129.2635,20.2245 C129.2865,20.2915 129.2955,20.3575 129.3045,20.4255 C129.3095,20.4665 129.3285,20.5035 129.3285,20.5455 L129.3285,37.6965 C129.3285,38.2495 128.8815,38.6965 128.3285,38.6965 L104.5805,38.6965 C104.0275,38.6965 103.5805,38.2495 103.5805,37.6965 L103.5805,20.5455 C103.5805,20.5035 103.5995,20.4665 103.6045,20.4255 C103.6125,20.3575 103.6215,20.2915 103.6445,20.2245 C103.6675,20.1575 103.7015,20.0995 103.7375,20.0395 C103.7585,20.0045 103.7655,19.9645 103.7915,19.9315 C103.8045,19.9155 103.8225,19.9085 103.8365,19.8935 C103.8835,19.8385 103.9395,19.7965 103.9985,19.7535 C104.0465,19.7185 104.0905,19.6825 104.1425,19.6565 C104.1995,19.6285 104.2615,19.6135 104.3245,19.5975 C104.3895,19.5795 104.4515,19.5625 104.5185,19.5575 C104.5395,19.5565 104.5585,19.5455 104.5805,19.5455 L128.3285,19.5455 Z M116.4545,8.4345 C105.4265,8.4345 96.4545,17.4065 96.4545,28.4345 C96.4545,39.4625 105.4265,48.4345 116.4545,48.4345 C127.4825,48.4345 136.4545,39.4625 136.4545,28.4345 C136.4545,22.0985 133.5495,16.2745 128.4825,12.4545 C128.0505,12.1275 127.9625,11.5185 128.2745,11.0795 C127.0825,10.2665 125.8025,9.5765 124.4515,9.0195 C124.2975,9.4095 123.9255,9.6545 123.5255,9.6545 C123.4135,9.6545 123.3005,9.6355 123.1885,9.5955 C122.5755,9.3765 121.9405,9.1845 121.3035,9.0255 C120.7775,8.8945 120.4595,8.3685 120.5735,7.8435 C119.5565,7.6415 118.5085,7.5335 117.4445,7.4835 C117.4165,8.0115 116.9895,8.4345 116.4545,8.4345 L116.4545,8.4345 Z" id="Fill-24" fill="#B9BBBE" mask="url(#mask-2)"></path>
                    <polygon id="Fill-25" fill="#DCDDDE" mask="url(#mask-2)" points="107.4955 21.5455 116.4545 28.5135 125.4135 21.5455"></polygon>
                    <path d="M127.3285,36.6969 L127.3285,22.5909 L117.0685,30.5709 C116.8885,30.7109 116.6715,30.7809 116.4545,30.7809 C116.2375,30.7809 116.0205,30.7109 115.8405,30.5709 L105.5805,22.5909 L105.5805,36.6969 L127.3285,36.6969 Z" id="Fill-26" fill="#DCDDDE" mask="url(#mask-2)"></path>
                    <path d="M116.4545,28.5138 L107.4955,21.5458 L125.4135,21.5458 L116.4545,28.5138 Z M105.5805,22.5908 L115.8405,30.5708 C116.0205,30.7108 116.2375,30.7808 116.4545,30.7808 C116.6715,30.7808 116.8885,30.7108 117.0685,30.5708 L127.3285,22.5908 L127.3285,36.6968 L105.5805,36.6968 L105.5805,22.5908 Z M104.5185,19.5578 C104.4515,19.5618 104.3895,19.5798 104.3245,19.5968 C104.2615,19.6138 104.1995,19.6278 104.1425,19.6568 C104.0905,19.6818 104.0465,19.7188 103.9985,19.7538 C103.9395,19.7968 103.8835,19.8388 103.8365,19.8928 C103.8225,19.9088 103.8045,19.9158 103.7915,19.9318 C103.7655,19.9648 103.7585,20.0048 103.7375,20.0398 C103.7015,20.0998 103.6675,20.1578 103.6445,20.2248 C103.6215,20.2908 103.6125,20.3568 103.6045,20.4258 C103.5995,20.4668 103.5805,20.5028 103.5805,20.5458 L103.5805,37.6968 C103.5805,38.2488 104.0275,38.6968 104.5805,38.6968 L128.3285,38.6968 C128.8815,38.6968 129.3285,38.2488 129.3285,37.6968 L129.3285,20.5458 C129.3285,20.5028 129.3095,20.4668 129.3045,20.4258 C129.2955,20.3568 129.2865,20.2908 129.2635,20.2248 C129.2405,20.1578 129.2075,20.0988 129.1715,20.0398 C129.1505,20.0048 129.1435,19.9648 129.1175,19.9318 C129.1045,19.9148 129.0855,19.9088 129.0725,19.8928 C129.0255,19.8398 128.9705,19.7988 128.9135,19.7558 C128.8645,19.7198 128.8195,19.6818 128.7655,19.6558 C128.7095,19.6288 128.6495,19.6148 128.5875,19.5978 C128.5215,19.5798 128.4585,19.5618 128.3905,19.5578 C128.3685,19.5558 128.3505,19.5458 128.3285,19.5458 L104.5805,19.5458 C104.5585,19.5458 104.5395,19.5558 104.5185,19.5578 L104.5185,19.5578 Z" id="Fill-27" fill="#202225" mask="url(#mask-2)"></path>
                    <path d="M79.6918,86.505 C79.1388,86.505 78.6918,86.952 78.6918,87.505 L78.6918,133.207 C78.6918,133.759 79.1388,134.207 79.6918,134.207 C80.2448,134.207 80.6918,133.759 80.6918,133.207 L80.6918,87.505 C80.6918,86.952 80.2448,86.505 79.6918,86.505" id="Fill-28" fill="#202225" mask="url(#mask-2)"></path>
                    <path d="M94.4545,28.4342 C94.4545,40.5652 104.3235,50.4342 116.4545,50.4342 C128.5855,50.4342 138.4545,40.5652 138.4545,28.4342 C138.4545,21.4652 135.2595,15.0592 129.6875,10.8572 C129.2445,10.5232 128.6195,10.6132 128.2865,11.0542 C128.2805,11.0612 128.2795,11.0712 128.2745,11.0792 C127.9625,11.5182 128.0505,12.1272 128.4825,12.4542 C133.5495,16.2742 136.4545,22.0992 136.4545,28.4342 C136.4545,39.4622 127.4825,48.4342 116.4545,48.4342 C105.4265,48.4342 96.4545,39.4622 96.4545,28.4342 C96.4545,17.4062 105.4265,8.4342 116.4545,8.4342 C116.9895,8.4342 117.4165,8.0122 117.4445,7.4842 C117.4455,7.4662 117.4545,7.4522 117.4545,7.4342 C117.4545,6.8822 117.0075,6.4342 116.4545,6.4342 C104.3235,6.4342 94.4545,16.3032 94.4545,28.4342" id="Fill-29" fill="#202225" mask="url(#mask-2)"></path>
                    <path d="M121.3031,9.0255 C121.9411,9.1845 122.5751,9.3765 123.1891,9.5955 C123.3001,9.6355 123.4131,9.6545 123.5261,9.6545 C123.9251,9.6545 124.2971,9.4095 124.4511,9.0195 C124.4551,9.0095 124.4631,9.0015 124.4671,8.9915 C124.6541,8.4715 124.3821,7.8995 123.8631,7.7135 C123.1871,7.4715 122.4891,7.2595 121.7871,7.0855 C121.2501,6.9485 120.7081,7.2765 120.5741,7.8135 C120.5721,7.8235 120.5751,7.8335 120.5731,7.8435 C120.4601,8.3685 120.7781,8.8945 121.3031,9.0255" id="Fill-30" fill="#202225" mask="url(#mask-2)"></path>
                </g>
            </g>
        </g>
    </g>
</svg>