<svg fill="none" height="80" viewBox="0 0 88 80" width="88" xmlns="http://www.w3.org/2000/svg"><rect fill="#18191c" height="56" rx="8" width="56" x="16" y="12"/><path clip-rule="evenodd" d="m48.9999 33c0 3.8587-3.1395 7-7 7-3.8587 0-6.9999-3.1413-6.9999-7 0-3.8588 3.1395-7 6.9999-7 3.8605 0 7 3.1412 7 7zm-20.9999 19.25c0-6.1827 5.7575-10.25 13.9999-10.25 8.2443 0 14 4.0673 14 10.25v1.75h-27.9999z" fill="#b9bbbe" fill-rule="evenodd"/><path d="m50.5457 39.8277c3.119-.7057 5.4542-3.5 5.4542-6.828 0-3.5644-2.6788-6.5166-6.1303-6.9462 1.6365 1.8522 2.6303 4.2849 2.6303 6.9462 0 2.5251-.8946 4.8444-2.3841 6.6573.1444.0553.2877.1122.4299.1707z" fill="#b9bbbe"/><path d="m40 54c0-5.5228 4.4772-10 10-10h10v12h-20z" fill="#18191c"/><path d="m54.3167 46v1.7084h2.9115l-4.5352 4.7715-3.2476-3.4168-5.4454 5.7299 1.148 1.207 4.2974-4.5212 3.2476 3.4167 5.6832-5.9793v3.0631h1.6238v-5.9793z" fill="#ed4245"/><g fill="#5ae6dc"><path d="m83.0026 1.0838c0-.598567-.4853-1.0838-1.0838-1.0838-.5986 0-1.0838.485233-1.0838 1.0838v1.10186c0 .59856.4852 1.0838 1.0838 1.0838.5985 0 1.0838-.48524 1.0838-1.0838z"/><path d="m83.0026 9.81427c0-.59857-.4853-1.0838-1.0838-1.0838-.5986 0-1.0838.48523-1.0838 1.0838v1.10183c0 .5986.4852 1.0838 1.0838 1.0838.5985 0 1.0838-.4852 1.0838-1.0838z"/><path d="m86.9162 7.10534c.5986 0 1.0838-.48523 1.0838-1.0838 0-.59856-.4852-1.0838-1.0838-1.0838h-1.1019c-.5985 0-1.0838.48524-1.0838 1.0838 0 .59857.4853 1.0838 1.0838 1.0838z"/><path d="m78.1857 7.04528c.5986 0 1.0838-.48523 1.0838-1.0838 0-.59856-.4852-1.08379-1.0838-1.08379h-1.1018c-.5986 0-1.0838.48523-1.0838 1.08379 0 .59857.4852 1.0838 1.0838 1.0838z"/></g><path d="m8.36261 75.843 3.12339-1.0417c.1534-.0703.2834-.1832.3745-.3252.0911-.1421.1395-.3073.1395-.4761s-.0484-.334-.1395-.4761c-.0911-.142-.2211-.2549-.3745-.3252l-3.12339-1.0417c-.21336-.0964-.38423-.2673-.48054-.4808l-1.12123-3.1251c-.05266-.1603-.15458-.2999-.2912-.3989-.13662-.0989-.30098-.1522-.46965-.1522-.16866 0-.33301.0533-.46963.1522-.13662.099-.23854.2386-.2912.3989l-1.12123 3.1251c-.09631.2135-.26718.3844-.48054.4808l-3.123433 1.0417c-.153355.0703-.283314.1832-.374423.3252-.0911093.1421-.139534.3073-.139534.4761s.0484247.334.139534.4761c.091109.142.221068.2549.374423.3252l3.123433 1.0417c.11344.0344.21664.0963.30046.1802.08382.0838.14567.1871.18008.3006l1.12123 3.1251c.05266.1603.15458.2999.2912.3989.13662.0989.30097.1522.46963.1522.16867 0 .33303-.0533.46965-.1522.13662-.099.23854-.2386.2912-.3989l1.12123-3.1251c.03441-.1135.09627-.2168.18008-.3006.08382-.0839.18702-.1458.30046-.1802z" fill="#ffd01a"/></svg>