<svg xmlns="http://www.w3.org/2000/svg" width="267" height="120" viewBox="0 0 267 120">
  <g fill="none" fill-rule="evenodd">
    <path fill="#4F5D7F" d="M257.899525 62.4903051C254.226814 51.572339 242.771898 48.9791186 232.510881 47.372339 212.839525 44.292 191.282237 43.5664068 172.094441 38.391661 159.878847 35.0972542 149.209525 25.3370847 139.244949 18.0069153 96.3693559-13.5337627 51.858 12.7909831 44.0641017 21.6048814 35.1668136 31.6655593 18.0622373 53.7928475 13.0385085 75.2652203 8.16071186 96.112678 23.7149492 116.189797 45.1115593 116.962169 61.8891864 117.567254 88.1391864 118.337593 104.054949 117.924203 130.729525 117.230644 157.403593 118.062508 184.078169 117.368949 197.049356 117.031322 210.823424 116.800475 223.339525 113.000136 233.097661 110.037763 242.233932 104.037254 248.96461 96.4014915 255.768508 88.682339 260.184102 78.6882712 259.119356 68.251322 258.920034 66.2947119 258.526983 64.3553898 257.899525 62.4903051M234.778068 17.8756271C233.89739 17.0651186 232.562136 16.438678 230.667051 16.0852881 218.727559 13.8596949 207.175017 11.6320678 195.601119 8.07071186 193.406542 7.44528814 191.125017 6.81376271 188.873492 7.18037288 184.74061 7.85359322 183.311288 11.628 184.286034 15.2874915 186.612305 24.0215593 197.669085 30.9785085 205.749254 33.2600339 212.481458 35.1612203 221.752475 35.4530847 228.129763 32.0524068 233.142305 29.3793559 238.872814 21.6429153 234.778068 17.8756271"/>
    <path fill="#000000" d="M263.501441,63.9494237 L251.298051,69.8070508 L239.094661,63.9494237 L239.094661,62.2353559 L263.501441,62.2353559 L263.501441,63.9494237 Z M263.501441,75.664678 L252.472627,70.3709492 L263.501441,65.0772203 L263.501441,75.664678 Z M239.094661,78.5065424 L239.094661,76.7924746 L251.298051,70.9348475 L263.501441,76.7924746 L263.501441,78.5065424 L239.094661,78.5065424 Z M239.094661,98.8455254 L263.501441,98.8455254 L263.501441,82.574339 L239.094661,82.574339 L239.094661,98.8455254 Z M263.501441,104.62739 L251.298051,110.485017 L239.094661,104.62739 L239.094661,102.913322 L263.501441,102.913322 L263.501441,104.62739 Z M252.472627,111.048915 L263.501441,105.755186 L263.501441,116.342644 L252.472627,111.048915 Z M239.094661,116.342644 L239.094661,105.755186 L250.122966,111.048915 L239.094661,116.342644 Z M213.670932,98.8455254 L213.670932,97.1314576 L225.874322,91.2738305 L238.077712,97.1314576 L238.077712,98.8455254 L213.670932,98.8455254 Z M212.653983,104.610102 L200.414492,110.485017 L188.247203,104.644678 L188.247203,102.913322 L212.653983,102.913322 L212.653983,104.610102 Z M201.589068,111.048915 L212.653983,105.737898 L212.653983,116.359932 L201.589068,111.048915 Z M188.247203,116.325356 L188.247203,105.772475 L199.239915,111.048915 L188.247203,116.325356 Z M188.247203,62.2353559 L212.653983,62.2353559 L212.653983,78.5065424 L210.620085,78.5065424 L210.620085,82.574339 L212.653983,82.574339 L212.653983,98.8455254 L188.247203,98.8455254 L188.247203,62.2353559 Z M188.247203,56.4362034 L200.414492,50.5958644 L212.653983,56.4707797 L212.653983,58.1675593 L188.247203,58.1675593 L188.247203,56.4362034 Z M188.247203,44.7555254 L199.239915,50.0319661 L188.247203,55.3084068 L188.247203,44.7555254 Z M212.653983,41.8963729 L212.653983,43.5931525 L200.414492,49.4680678 L188.247203,43.6277288 L188.247203,41.8963729 L212.653983,41.8963729 Z M212.653983,55.3429831 L201.589068,50.0319661 L212.653983,44.7209492 L212.653983,55.3429831 Z M213.670932,85.4162034 L224.699237,90.7099322 L213.670932,96.003661 L213.670932,85.4162034 Z M238.077712,96.003661 L227.048898,90.7099322 L238.077712,85.4162034 L238.077712,96.003661 Z M238.077712,82.574339 L238.077712,84.2884068 L225.874322,90.1460339 L213.670932,84.2884068 L213.670932,82.574339 L238.077712,82.574339 Z M239.094661,65.0772203 L250.122966,70.3709492 L239.094661,75.664678 L239.094661,65.0772203 Z M266.552288,62.2353559 L266.552288,58.1675593 L236.043814,58.1675593 L236.043814,62.2353559 L238.077712,62.2353559 L238.077712,78.5065424 L213.670932,78.5065424 L213.670932,62.2353559 L215.704831,62.2353559 L215.704831,58.1675593 L213.670932,58.1675593 L213.670932,41.8963729 L215.704831,41.8963729 L215.704831,37.8285763 L185.196356,37.8285763 L185.196356,41.8963729 L187.230254,41.8963729 L187.230254,43.7660339 C187.190085,43.8819661 187.188559,44.0024746 187.230254,44.1107797 L187.230254,55.9526441 C187.188559,56.0614576 187.190085,56.1819661 187.230254,56.2978983 L187.230254,58.1675593 L185.196356,58.1675593 L185.196356,62.2353559 L187.230254,62.2353559 L187.230254,98.8455254 L185.196356,98.8455254 L185.196356,102.913322 L187.230254,102.913322 L187.230254,104.782983 C187.190085,104.898915 187.188559,105.019424 187.230254,105.127729 L187.230254,116.969593 C187.188559,117.078407 187.190085,117.198915 187.230254,117.314847 L187.230254,118.167559 C187.230254,118.448237 187.458051,118.676034 187.738729,118.676034 C188.019407,118.676034 188.247203,118.448237 188.247203,118.167559 L188.247203,117.453153 L200.414492,111.612814 L212.653983,117.487729 L212.653983,118.167559 C212.653983,118.448237 212.88178,118.676034 213.162458,118.676034 C213.443136,118.676034 213.670932,118.448237 213.670932,118.167559 L213.670932,102.913322 L238.077712,102.913322 L238.077712,119.184508 C238.077712,119.465186 238.305508,119.692983 238.586186,119.692983 C238.866864,119.692983 239.094661,119.465186 239.094661,119.184508 L239.094661,117.470441 L251.298051,111.612814 L263.501441,117.470441 L263.501441,119.184508 C263.501441,119.465186 263.729237,119.692983 264.009915,119.692983 C264.290593,119.692983 264.51839,119.465186 264.51839,119.184508 L264.51839,102.913322 L266.552288,102.913322 L266.552288,98.8455254 L264.51839,98.8455254 L264.51839,82.574339 L266.552288,82.574339 L266.552288,78.5065424 L264.51839,78.5065424 L264.51839,62.2353559 L266.552288,62.2353559 Z"/>
    <path fill="#000000" d="M193.037237 38.9323729C192.756559 38.9323729 192.528763 38.7045763 192.528763 38.4238983L192.528763 33.5405085C192.528763 33.2598305 192.756559 33.0320339 193.037237 33.0320339 193.317915 33.0320339 193.545712 33.2598305 193.545712 33.5405085L193.545712 38.4238983C193.545712 38.7045763 193.317915 38.9323729 193.037237 38.9323729M190.866763 38.9323729C190.586085 38.9323729 190.358288 38.7045763 190.358288 38.4238983L190.358288 33.5405085C190.358288 33.2598305 190.586085 33.0320339 190.866763 33.0320339 191.147441 33.0320339 191.375237 33.2598305 191.375237 33.5405085L191.375237 38.4238983C191.375237 38.7045763 191.147441 38.9323729 190.866763 38.9323729"/>
    <path fill="#000000" d="M194.312644 27.2320169L194.312644 25.9272712C194.312644 24.6230339 193.255525 23.5664237 191.951797 23.5664237 190.648068 23.5664237 189.590949 24.6230339 189.590949 25.9272712L189.590949 27.2320169C189.590949 27.9260847 189.429254 28.611 189.119085 29.2323559 188.808407 29.8532034 188.646712 30.5376102 188.646712 31.2321864 188.646712 32.9960847 190.076542 34.4254068 191.840441 34.4254068L192.063661 34.4254068C193.827051 34.4254068 195.256881 32.9960847 195.256881 31.2321864 195.256881 30.5381186 195.095695 29.8532034 194.785017 29.2323559L194.784508 29.2318475C194.474339 28.6104915 194.312644 27.9260847 194.312644 27.2320169M161.54161 115.005203C136.436186 126.533847 106.738729 115.528424 95.2095763 90.423 83.6809322 65.3180847 94.6868644 35.6201186 119.79178 24.0914746 144.897203 12.562322 174.595169 23.5682542 186.123814 48.6731695 197.652966 73.7785932 186.647034 103.476559 161.54161 115.005203"/>
    <path fill="#7687B2" d="M154.232288,99.0880678 C137.917881,106.579932 118.618729,99.4277288 111.126864,83.113322 C103.635,66.7994237 110.787203,47.5002712 127.10161,40.0084068 C143.416017,32.5165424 162.714661,39.6687458 170.207034,55.9831525 C177.69839,72.2975593 170.546695,91.5962034 154.232288,99.0880678"/>
    <path fill="#353940" d="M152.145254,94.5435763 C138.340678,100.882729 122.010508,94.8308644 115.671356,81.0267966 C109.332203,67.2222203 115.384068,50.8920508 129.188644,44.5528983 C142.992712,38.2137458 159.322881,44.2656102 165.662034,58.0701864 C172.001695,71.8742542 165.949831,88.2044237 152.145254,94.5435763"/>
    <path fill="#EBEFF7" d="M152.145254,94.5435763 C138.340678,100.882729 122.010508,94.8308644 115.671356,81.0267966 C109.332203,67.2222203 115.384068,50.8920508 129.188644,44.5528983 C142.992712,38.2137458 159.322881,44.2656102 165.662034,58.0701864 C172.001695,71.8742542 165.949831,88.2044237 152.145254,94.5435763"/>
    <path fill="#DAE2ED" d="M150.319169,90.5668983 C138.710695,95.8977458 124.978831,90.8089322 119.647983,79.2004576 C114.317136,67.5919831 119.405949,53.8601186 131.014424,48.5292712 C142.622898,43.1984237 156.354763,48.2877458 161.68561,59.8962203 C167.016458,71.5041864 161.927644,85.2360508 150.319169,90.5668983"/>
    <path fill="#C5CEDD" d="M150.655068,55.8597458 L157.96439,68.5207627 C158.411339,69.2941525 158.411339,70.2475424 157.96439,71.0214407 L150.655068,83.6824576 C150.208119,84.4563559 149.382864,84.9327966 148.488966,84.9327966 L133.869305,84.9327966 C132.975915,84.9327966 132.150153,84.4563559 131.703712,83.6824576 L124.393881,71.0214407 C123.946932,70.2475424 123.946932,69.2941525 124.393881,68.5207627 L131.703712,55.8597458 C132.150153,55.0863559 132.975915,54.6094068 133.869305,54.6094068 L148.488966,54.6094068 C149.382864,54.6094068 150.208119,55.0863559 150.655068,55.8597458"/>
    <path fill="#EBEFF7" d="M144.011898,76.8325932 C139.988847,78.6798814 135.230034,76.9164915 133.382746,72.8934407 C131.534949,68.8703898 133.298847,64.1110678 137.321898,62.2637797 C141.344441,60.4164915 146.103763,62.1803898 147.951051,66.2029322 C149.798339,70.2259831 148.034949,74.9853051 144.011898,76.8325932"/>
    <path fill="#FF6F57" d="M80.3475763,65.3229153 C74.2072373,65.3229153 69.2292712,70.3008814 69.2292712,76.4412203 L69.2292712,85.9171525 L91.4658814,85.9171525 L91.4658814,76.4412203 C91.4658814,70.3008814 86.4879153,65.3229153 80.3475763,65.3229153"/>
    <polygon fill="#B7C2CE" points="64.379 86.604 96.023 86.604 96.023 77.807 64.379 77.807"/>
    <polygon fill="#DAE2ED" points="64.379 86.604 86.102 86.604 86.102 77.807 64.379 77.807"/>
    <polygon fill="#C5CEDD" points="56.04 82.692 50.98 104.401 50.98 119.582 106.999 119.582 106.999 82.692"/>
    <polygon fill="#DAE2ED" points="35.8 119.582 83.139 119.582 83.139 104.401 35.8 104.401"/>
    <polygon fill="#EBEFF7" points="91.747 82.692 49.341 82.692 40.86 104.401 83.265 104.401"/>
    <polygon fill="#80A7FF" points="45.869 100.98 51.677 86.113 86.738 86.113 80.929 100.98"/>
    <path fill="#B7C2CE" d="M99.9518644,95.3519492 C96.6615254,95.3519492 93.9940678,98.0194068 93.9940678,101.309746 C93.9940678,104.599576 96.6615254,107.267542 99.9518644,107.267542 L103.769492,107.267542 L103.769492,95.3519492 L99.9518644,95.3519492 Z"/>
    <path fill="#EBEFF7" d="M106.135983,106.723627 C103.145644,108.097017 99.6086949,106.786169 98.2353051,103.795831 C96.8624237,100.805492 98.1732712,97.2685424 101.163102,95.895661 C104.153441,94.5222712 107.690898,95.8331186 109.06378,98.8234576 C110.436661,101.813288 109.125814,105.350746 106.135983,106.723627"/>
    <path fill="#FF903E" d="M105.076831,104.417593 C103.360729,105.205729 101.329881,104.453186 100.541746,102.736576 C99.7531017,101.020475 100.505644,98.9896271 102.222254,98.2014915 C103.938864,97.4133559 105.969203,98.1658983 106.757847,99.8825085 C107.545983,101.599119 106.793441,103.629458 105.076831,104.417593"/>
    <path fill="#000000" d="M63.8757458 104.780085C63.6591356 104.780085 63.4587966 104.640763 63.390661 104.423136L61.8652373 99.5397458C61.781339 99.2717797 61.9308305 98.9860169 62.1987966 98.9026271 62.4672712 98.8202542 62.7525254 98.9682203 62.8359153 99.2361864L64.361339 104.119576C64.4452373 104.388051 64.2957458 104.673305 64.0277797 104.756695 63.9769322 104.772458 63.9260847 104.780085 63.8757458 104.780085M57.6380339 104.780085C57.5876949 104.780085 57.5368475 104.772458 57.486 104.756695 57.2180339 104.673305 57.0685424 104.388051 57.1524407 104.119576L58.6778644 99.2361864C58.7612542 98.9682203 59.0465085 98.8192373 59.3149831 98.9026271 59.5829492 98.9860169 59.7324407 99.2717797 59.6485424 99.5397458L58.1231186 104.423136C58.0549831 104.640763 57.8546441 104.780085 57.6380339 104.780085"/>
    <path fill="#000000" d="M63.1175085,94.6048983 L63.1175085,93.3001525 C63.1175085,91.9959153 62.0603898,90.9393051 60.756661,90.9393051 C59.4529322,90.9393051 58.3958136,91.9959153 58.3958136,93.3001525 L58.3958136,94.6048983 C58.3958136,95.2989661 58.2341186,95.9838814 57.9239492,96.6052373 C57.6132712,97.2260847 57.4515763,97.9104915 57.4515763,98.6050678 C57.4515763,100.368966 58.8814068,101.798288 60.6453051,101.798288 L60.8685254,101.798288 C62.6319153,101.798288 64.0617458,100.368966 64.0617458,98.6050678 C64.0617458,97.911 63.9005593,97.2260847 63.5898814,96.6052373 L63.5893729,96.6047288 C63.2792034,95.9833729 63.1175085,95.2989661 63.1175085,94.6048983"/>
    <path fill="#B7C2CE" d="M33.7637797,49.4092373 L17.9364915,62.2929661 C17.9364915,75.3633051 34.2697119,76.4839831 37.8636102,67.2988983 C39.0178475,64.3487288 42.3605593,56.7266949 45.6280169,49.3685593 C41.6761525,49.4372034 37.7181864,49.4285593 33.7637797,49.4092373"/>
    <path fill="#C5CEDD" d="M19.5208983,48.2398475 C17.4585254,52.3208644 16.4507288,56.6403559 16.4507288,60.6242542 C16.4507288,73.6951017 31.7664915,74.8152712 35.3608983,65.6301864 C37.8636102,59.2340847 42.3132712,49.2227288 42.3132712,49.2227288 L19.5208983,48.2398475 Z"/>
    <path fill="#FF7F14" d="M24.1330678,78.9218644 C23.5920508,78.9218644 23.1527288,78.4830508 23.1527288,77.9415254 C23.1527288,77.4 23.5920508,76.9611864 24.1330678,76.9611864 C24.6745932,76.9611864 25.1134068,77.4 25.1134068,77.9415254 C25.1134068,78.4830508 24.6745932,78.9218644 24.1330678,78.9218644 Z M24.1330678,84.15 C23.5920508,84.15 23.1527288,83.7111864 23.1527288,83.169661 C23.1527288,82.6286441 23.5920508,82.189322 24.1330678,82.189322 C24.6745932,82.189322 25.1134068,82.6286441 25.1134068,83.169661 C25.1134068,83.7111864 24.6745932,84.15 24.1330678,84.15 Z M20.1105254,63.1011864 L20.1105254,86.0516949 L24.1330678,88.8772881 L28.1561186,86.0516949 L28.1561186,63.1011864 L20.1105254,63.1011864 Z"/>
    <polygon fill="#B7C2CE" points="18.965 63.796 29.302 63.796 29.302 61.705 18.965 61.705"/>
    <path fill="#000000" d="M29.6046102,33.5075085 C29.4846102,33.5075085 29.3635932,33.4653051 29.2669831,33.3788644 C29.0569831,33.1922542 29.0381695,32.8708983 29.2247797,32.6608983 L37.4193559,23.4498814 C37.6120678,23.2327627 37.9863051,23.2327627 38.1790169,23.4498814 L46.3735932,32.6608983 C46.5602034,32.8708983 46.5413898,33.1922542 46.3313898,33.3788644 C46.1213898,33.5654746 45.8005424,33.546661 45.6134237,33.3371695 L37.7991864,24.5527627 L29.9849492,33.3371695 C29.8842712,33.4500508 29.7449492,33.5075085 29.6046102,33.5075085"/>
    <path fill="#000000" d="M37.7990847,24.296339 C37.5184068,24.296339 37.2906102,24.0685424 37.2906102,23.7878644 L37.2906102,1.01684746 C37.2906102,0.736169492 37.5184068,0.508372881 37.7990847,0.508372881 C38.0797627,0.508372881 38.3075593,0.736169492 38.3075593,1.01684746 L38.3075593,23.7878644 C38.3075593,24.0685424 38.0797627,24.296339 37.7990847,24.296339"/>
    <path fill="#FF7F14" d="M9.93711864,79.9388136 C9.39559322,79.9388136 8.95677966,79.5 8.95677966,78.9584746 C8.95677966,78.4169492 9.39559322,77.9781356 9.93711864,77.9781356 C10.4786441,77.9781356 10.9174576,78.4169492 10.9174576,78.9584746 C10.9174576,79.5 10.4786441,79.9388136 9.93711864,79.9388136 Z M9.93711864,85.1669492 C9.39559322,85.1669492 8.95677966,84.7281356 8.95677966,84.1866102 C8.95677966,83.6455932 9.39559322,83.2062712 9.93711864,83.2062712 C10.4786441,83.2062712 10.9174576,83.6455932 10.9174576,84.1866102 C10.9174576,84.7281356 10.4786441,85.1669492 9.93711864,85.1669492 Z M9.93711864,61.2925424 L5.91457627,64.1181356 L5.91457627,87.0686441 L9.93711864,89.8942373 L13.9601695,87.0686441 L13.9601695,64.1181356 L9.93711864,61.2925424 Z"/>
    <path fill="#D0D9EA" d="M39.5047119,33.0457119 C39.5047119,33.0457119 26.7125085,61.4109661 24.2092881,67.8070678 C20.6153898,76.9921525 5.29911864,75.8719831 5.29911864,62.8016441 L39.5047119,33.0457119 Z"/>
    <path fill="#EBEFF7" d="M69.2604407,44.1693051 C69.2604407,44.1693051 60.3616271,31.3771017 37.0017966,31.3771017 C13.6419661,31.3771017 2.79671186,48.0626949 2.79671186,61.1330339 C2.79671186,74.2033729 18.1124746,75.3240508 21.7068814,66.1384576 C24.2095932,59.7423559 28.6592542,49.731 28.6592542,49.731 L69.2604407,44.1693051 Z"/>
    <path fill="#FF903E" d="M59.5271695,42.7789831 C59.5271695,42.7789831 54.7998814,33.0457627 38.1142881,30.8211864 L26.9903898,31.3774576 C26.9903898,31.3774576 44.7885254,30.5430508 53.4092034,43.0571186 L59.5271695,42.7789831 Z"/>
    <path fill="#7687B2" d="M18.0415424,60.4193898 C17.5066271,64.7637966 14.1069661,67.9198983 10.4484915,67.4693898 C6.79001695,67.0188814 4.25832203,63.1315932 4.79323729,58.7876949 C5.32866102,54.4432881 8.72781356,51.286678 12.3862881,51.7371864 C16.0447627,52.1882034 18.5764576,56.0749831 18.0415424,60.4193898"/>
    <path fill="#FFFFFF" d="M15.2897288,60.1830508 C14.9093898,63.27 12.4941356,65.5123729 9.89481356,65.1925424 C7.29549153,64.8722034 5.49650847,62.110678 5.87684746,59.0237288 C6.25667797,55.9367797 8.6719322,53.6944068 11.2717627,54.0142373 C13.8710847,54.3345763 15.6700678,57.0966102 15.2897288,60.1830508"/>
    <path fill="#FF903E" d="M13.7903898,60.018661 C13.5178475,62.229 11.7880169,63.8352712 9.92649153,63.6059492 C8.0649661,63.3766271 6.777,61.398661 7.0490339,59.188322 C7.32157627,56.9779831 9.05089831,55.3717119 10.9129322,55.6010339 C12.7744576,55.8303559 14.0624237,57.8078136 13.7903898,60.018661"/>
    <path fill="#FFFFFF" d="M25.9755254,37.8526271 C26.3578983,38.605678 26.0014576,39.5544915 25.1797627,39.9714407 C24.3580678,40.3883898 23.3817966,40.1158475 22.9994237,39.3627966 C22.6175593,38.6092373 22.974,37.6609322 23.7956949,37.2434746 C24.6173898,36.8265254 25.593661,37.0995763 25.9755254,37.8526271"/>
    <path fill="#B7C2CE" d="M40.8499322,24.296339 C40.8499322,22.6112542 39.483661,21.2454915 37.7990847,21.2454915 C36.114,21.2454915 34.7482373,22.6112542 34.7482373,24.296339 C34.7482373,25.9809153 36.114,27.3471864 37.7990847,27.3471864 C39.483661,27.3471864 40.8499322,25.9809153 40.8499322,24.296339"/>
    <path fill="#EBEFF7" d="M39.3245085,24.296339 C39.3245085,23.4537966 38.6416271,22.7709153 37.7990847,22.7709153 C36.9565424,22.7709153 36.273661,23.4537966 36.273661,24.296339 C36.273661,25.1388814 36.9565424,25.8217627 37.7990847,25.8217627 C38.6416271,25.8217627 39.3245085,25.1388814 39.3245085,24.296339"/>
    <polygon fill="#B7C2CE" points="202.868 119.565 202.887 89.332 191.343 89.323 191.324 119.555"/>
    <path fill="#C5CEDD" d="M205.828068,112.108017 L209.946203,72.9371695 C210.024508,72.1917458 209.736203,71.4534407 209.165695,70.967339 C207.672814,69.6956441 204.111966,67.5508983 197.072644,67.5458136 C190.032305,67.5407288 186.467898,69.6808983 184.973492,70.9505593 C184.402983,71.4351356 184.113661,72.1724237 184.190441,72.9178475 L188.22722,112.094288 C188.307051,112.870729 188.960949,113.460559 189.740949,113.461068 L204.312814,113.471746 C205.092305,113.472254 205.746712,112.883441 205.828068,112.108017"/>
    <path fill="#B7C2CE" d="M193.169085 104.42578C194.173831 104.426288 194.988407 103.612729 194.989424 102.607983 194.989932 101.603746 194.175864 100.788661 193.171627 100.788153 192.166881 100.787136 191.351797 101.600695 191.351288 102.605441 191.35078 103.610186 192.164339 104.425271 193.169085 104.42578M193.434966 95.5426271C194.439712 95.5431356 195.254797 94.7295763 195.255305 93.7248305 195.255814 92.7205932 194.442254 91.9055085 193.437508 91.9044915 192.432763 91.9039831 191.618186 92.7175424 191.617169 93.7222881 191.616661 94.7270339 192.43022 95.5421186 193.434966 95.5426271"/>
    <polygon fill="#D0D9EA" points="214.055 119.565 214.074 89.332 202.529 89.323 202.51 119.555"/>
    <path fill="#EBEFF7" d="M217.014508,112.108017 L221.132644,72.9371695 C221.210949,72.1917458 220.922644,71.4534407 220.352136,70.967339 C218.859254,69.6956441 215.298407,67.5508983 208.259085,67.5458136 C201.218746,67.5407288 197.654339,69.6808983 196.159932,70.9505593 C195.589424,71.4351356 195.300102,72.1724237 195.376881,72.9178475 L199.413661,112.094288 C199.493492,112.870729 200.14739,113.460559 200.92739,113.461068 L215.499254,113.471746 C216.278746,113.472254 216.933153,112.883441 217.014508,112.108017"/>
    <path fill="#B7C2CE" d="M204.355525 104.42578C205.360271 104.426288 206.174847 103.612729 206.175864 102.607983 206.176373 101.603746 205.362305 100.788661 204.358068 100.788153 203.353322 100.787136 202.538237 101.600695 202.537729 102.605441 202.53722 103.610186 203.35078 104.425271 204.355525 104.42578M204.621407 95.5426271C205.626153 95.5431356 206.441237 94.7295763 206.441746 93.7248305 206.442254 92.7205932 205.628695 91.9055085 204.623949 91.9044915 203.619203 91.9039831 202.804627 92.7175424 202.80361 93.7222881 202.803102 94.7270339 203.616661 95.5421186 204.621407 95.5426271"/>
    <path fill="#EBEFF7" d="M222.066458 24.0421017L221.81222 24.0421017C220.969678 24.0421017 220.286797 23.3592203 220.286797 22.516678L220.286797 22.2624407C220.286797 21.8414237 219.945102 21.4997288 219.524085 21.4997288 219.103068 21.4997288 218.761373 21.8414237 218.761373 22.2624407L218.761373 22.516678C218.761373 23.3592203 218.078492 24.0421017 217.235949 24.0421017L216.981712 24.0421017C216.560695 24.0421017 216.219 24.3837966 216.219 24.8048136 216.219 25.2258305 216.560695 25.5675254 216.981712 25.5675254L217.235949 25.5675254C218.078492 25.5675254 218.761373 26.2504068 218.761373 27.0929492L218.761373 27.3471864C218.761373 27.7682034 219.103068 28.1098983 219.524085 28.1098983 219.945102 28.1098983 220.286797 27.7682034 220.286797 27.3471864L220.286797 27.0929492C220.286797 26.2504068 220.969678 25.5675254 221.81222 25.5675254L222.066458 25.5675254C222.487475 25.5675254 222.829169 25.2258305 222.829169 24.8048136 222.829169 24.3837966 222.487475 24.0421017 222.066458 24.0421017M81.1613898 22.0645932C80.9661356 22.0645932 80.7708814 21.9903559 80.6218983 21.8413729L79.9029153 21.1218814C79.6049492 20.8244237 79.6049492 20.3413729 79.9029153 20.0434068 80.2008814 19.7454407 80.6839322 19.7454407 80.9813898 20.0434068L81.7008814 20.7623898C81.998339 21.0603559 81.998339 21.5434068 81.7008814 21.8413729 81.5518983 21.9903559 81.3566441 22.0645932 81.1613898 22.0645932M85.8354915 26.7386949C85.6402373 26.7386949 85.4449831 26.6644576 85.296 26.5154746L84.5770169 25.7959831C84.2790508 25.4985254 84.2790508 25.0154746 84.5770169 24.7175085 84.8749831 24.4195424 85.3580339 24.4195424 85.6554915 24.7175085L86.3749831 25.4364915C86.6724407 25.7344576 86.6724407 26.2175085 86.3749831 26.5154746 86.226 26.6644576 86.0307458 26.7386949 85.8354915 26.7386949M85.1165085 22.0645932C84.9212542 22.0645932 84.726 21.9903559 84.5770169 21.8413729 84.2795593 21.5434068 84.2795593 21.0603559 84.5770169 20.7623898L85.2965085 20.0434068C85.5939661 19.7454407 86.0770169 19.7454407 86.3749831 20.0434068 86.6729492 20.3413729 86.6729492 20.8244237 86.3749831 21.1218814L85.656 21.8413729C85.5070169 21.9903559 85.3117627 22.0645932 85.1165085 22.0645932M80.4424068 26.7386949C80.2471525 26.7386949 80.0518983 26.6644576 79.9029153 26.5154746 79.6054576 26.2175085 79.6054576 25.7344576 79.9029153 25.4364915L80.6224068 24.7175085C80.9198644 24.4195424 81.4029153 24.4195424 81.7008814 24.7175085 81.9988475 25.0154746 81.9988475 25.4985254 81.7008814 25.7959831L80.9818983 26.5154746C80.8329153 26.6644576 80.637661 26.7386949 80.4424068 26.7386949M96.1837627 41.6922712L102.728339 41.6922712 99.4563051 35.875322 96.1837627 41.6922712zM104.032576 43.2176949L94.8800339 43.2176949C94.6085085 43.2176949 94.358339 43.0737966 94.2215593 42.8398983 94.0847797 42.606 94.0822373 42.3171864 94.2149492 42.0812542L98.7912203 33.945661C98.9264746 33.7051525 99.1807119 33.556678 99.4563051 33.556678 99.7318983 33.556678 99.9861356 33.7051525 100.120881 33.945661L104.697153 42.0812542C104.829864 42.3171864 104.827322 42.606 104.690542 42.8398983 104.553763 43.0737966 104.303593 43.2176949 104.032576 43.2176949zM240.874322 37.2140339C240.173136 37.2140339 239.603136 37.7840339 239.603136 38.4852203 239.603136 39.1864068 240.173136 39.7564068 240.874322 39.7564068 241.575508 39.7564068 242.145508 39.1864068 242.145508 38.4852203 242.145508 37.7840339 241.575508 37.2140339 240.874322 37.2140339M240.874322 41.2818305C239.332627 41.2818305 238.077712 40.0269153 238.077712 38.4852203 238.077712 36.9435254 239.332627 35.6886102 240.874322 35.6886102 242.416017 35.6886102 243.670932 36.9435254 243.670932 38.4852203 243.670932 40.0269153 242.416017 41.2818305 240.874322 41.2818305M2.79661017 103.675983C2.09542373 103.675983 1.52542373 104.245983 1.52542373 104.947169 1.52542373 105.648356 2.09542373 106.218356 2.79661017 106.218356 3.49779661 106.218356 4.06779661 105.648356 4.06779661 104.947169 4.06779661 104.245983 3.49779661 103.675983 2.79661017 103.675983M2.79661017 107.74378C1.25491525 107.74378 0 106.488864 0 104.947169 0 103.405475 1.25491525 102.150559 2.79661017 102.150559 4.33830508 102.150559 5.59322034 103.405475 5.59322034 104.947169 5.59322034 106.488864 4.33830508 107.74378 2.79661017 107.74378"/>
    <path fill="#000000" d="M28.6592034,49.7312542 L84.2771695,49.7312542 C84.2771695,49.7312542 75.6564915,42.2226102 56.746322,42.5007458 C37.8361525,42.7788814 28.6592034,49.7312542 28.6592034,49.7312542"/>
    <path fill="#FF6F57" d="M175.795271,109.527915 L175.795271,93.7606271 C175.795271,92.4207966 176.881373,91.3352034 178.221203,91.3352034 L186.711203,91.3352034 C188.050525,91.3352034 189.136627,92.4207966 189.136627,93.7606271 L189.136627,109.527915 C189.136627,110.867746 188.050525,113.987746 186.711203,113.987746 L178.221203,113.987746 C176.881373,113.987746 175.795271,110.867746 175.795271,109.527915"/>
    <path fill="#D0D9EA" d="M171.55022,117.297305 L171.55022,102.860186 C171.55022,99.4966271 174.277169,96.769678 177.641237,96.769678 L187.291068,96.769678 C190.654627,96.769678 193.382085,99.4966271 193.382085,102.860186 L193.382085,117.297305 C193.382085,118.558831 192.359034,119.581373 191.097508,119.581373 L173.834288,119.581373 C172.572763,119.581373 171.55022,118.558831 171.55022,117.297305"/>
  </g>
</svg>
