<?xml version="1.0" encoding="UTF-8"?><svg id="art" xmlns="http://www.w3.org/2000/svg" xmlns:xlink="http://www.w3.org/1999/xlink" viewBox="0 0 249 150"><defs><style>.cls-1{fill:none;}.cls-2{fill:url(#linear-gradient);}.cls-3{clip-path:url(#clippath);}.cls-4{fill:#00439c;}.cls-5{fill:#0070cc;}.cls-6{fill:#038e3c;}.cls-7{fill:#698fff;}.cls-8{fill:#e9459d;}.cls-9{fill:#fff;}.cls-10{fill:#ffe55c;}.cls-11{fill:#ffe65c;}.cls-12{fill:#ff2ea1;}.cls-13{fill:#ff78b7;}.cls-14{fill:#ff78b8;}.cls-15{fill:#b8cdff;}.cls-16{fill:#acfcdb;}.cls-17{fill:#242145;}.cls-18{fill:#107c10;}.cls-19{fill:#5865f0;}.cls-20{fill:#29cc7a;}.cls-21{fill:#2b53f1;}.cls-22{fill:#2de4c3;}.cls-23{fill:#57f287;}.cls-24{fill:#57f085;}.cls-25{fill:#5765f1;}.cls-26{fill:#3c58da;}.cls-27{fill:#4b7dff;}.cls-28{fill:#4a7dff;}.cls-29{fill:#72767d;fill-rule:evenodd;}</style><clipPath id="clippath"><circle class="cls-1" cx="220.23" cy="32.88" r="25.77"/></clipPath><linearGradient id="linear-gradient" x1="112.21" y1="57.16" x2="165.55" y2="165.62" gradientUnits="userSpaceOnUse"><stop offset=".06" stop-color="#4e75e4"/><stop offset=".47" stop-color="#698fff"/><stop offset=".65" stop-color="#648afa"/><stop offset=".86" stop-color="#567dec"/><stop offset="1" stop-color="#4970df"/></linearGradient></defs><g><circle class="cls-24" cx="238.06" cy="50.66" r="6.66"/><path class="cls-19" d="M228.4,50.66c0-5.33,4.33-9.66,9.66-9.66,2.21,0,4.24,.75,5.87,2.01,1.24-2.91,1.98-6.09,2.06-9.45,.37-14.23-10.86-26.06-25.09-26.43-14.23-.37-26.06,10.86-26.43,25.09-.37,14.23,10.86,26.06,25.09,26.43,3.86,.1,7.54-.66,10.86-2.09-1.26-1.63-2.02-3.67-2.02-5.89Z"/><path class="cls-22" d="M239.57,41.12c.39,.06,.78,.15,1.16,.26,.1,.03,.19,.06,.29,.09,.35,.11,.69,.25,1.02,.4,.11,.05,.22,.11,.32,.16,.31,.15,.61,.32,.9,.51,.1,.07,.2,.14,.3,.21,.12,.09,.25,.17,.37,.26,1.24-2.91,1.98-6.09,2.06-9.45,.02-.9,0-1.79-.07-2.67-1.97-2.57-4.95-4.84-9.12-6.37-1.95-5.45-5.06-7.58-8.83-7.67-2.78-.06-5.33,1.82-5.93,5.67-1.58,.05-3.24,.18-4.98,.37-.5-2.73-1.74-4.39-3.91-4.66-2.29-.29-5.2,.75-7.73,7.02-3.89,1.34-6.67,3.19-8.84,5.77-.88,1.05-1.57,2.23-2.06,3.47,.81,13.19,11.58,23.81,25.04,24.16,3.86,.1,7.54-.66,10.86-2.09-.18-.24-.35-.48-.51-.74-.08-.13-.16-.26-.24-.4-.14-.25-.28-.51-.4-.77-.05-.12-.1-.24-.15-.36-.11-.26-.21-.54-.29-.81-.03-.1-.06-.2-.09-.3-.1-.35-.17-.71-.23-1.07-.01-.09-.02-.17-.03-.26-.05-.39-.08-.79-.08-1.19,0-5.33,4.33-9.66,9.66-9.66,.45,0,.89,.04,1.32,.1,.07,0,.13,.01,.2,.03Z"/><path class="cls-16" d="M233.1,29.64l-7.21,1.99c-7.22,1.99-14.85,1.98-22.06-.02h0c-4.7,5.68-4.32,12.99-2.26,19.06,4.54,4.76,10.89,7.8,17.98,7.98,3.86,.1,7.54-.66,10.86-2.09-.18-.24-.35-.48-.51-.74-.08-.13-.16-.26-.24-.4-.14-.25-.28-.51-.4-.78-.05-.12-.1-.24-.15-.36-.11-.26-.2-.54-.29-.81-.03-.1-.06-.2-.09-.3-.1-.35-.17-.71-.23-1.07-.01-.09-.02-.17-.03-.26-.05-.39-.08-.79-.08-1.19,0-.31,.02-.62,.05-.93,0-.1,.03-.2,.04-.3,.03-.2,.05-.4,.09-.6,.02-.12,.05-.23,.08-.35,.04-.18,.09-.35,.14-.53,.03-.12,.07-.24,.11-.36,.06-.16,.11-.33,.18-.49,.05-.12,.09-.24,.14-.35,.07-.16,.14-.31,.22-.46,.06-.11,.11-.23,.17-.34,.08-.15,.18-.3,.27-.44,.06-.1,.12-.21,.19-.31,.16-.23,.32-.45,.49-.66,.1-.12,.2-.23,.3-.34,.09-.1,.18-.2,.27-.3,.11-.12,.23-.23,.35-.34,.09-.08,.18-.17,.27-.25,.13-.11,.26-.22,.4-.32,.09-.07,.18-.14,.27-.2,.14-.1,.29-.2,.44-.3,.09-.06,.18-.11,.27-.16,.16-.09,.32-.19,.48-.27,.08-.04,.16-.08,.24-.12,.18-.09,.36-.18,.55-.25,.02,0,.03-.01,.05-.02,.49-.2,1-.36,1.53-.47-.43-5.91-1.62-9.58-2.89-11.59Z"/><g class="cls-3"><g><ellipse cx="228.21" cy="21.92" rx="1.98" ry="3.08" transform="translate(-.25 2.82) rotate(-.71)"/><ellipse cx="211.8" cy="22.48" rx="2.95" ry="1.97" transform="translate(167.37 230.78) rotate(-84.02)"/></g></g><path d="M233.1,29.69s-20.23,26.82-29.17,1.56c0,0,11.07,2.75,29.17-1.56Z"/><path class="cls-14" d="M206.51,36.72c6.08,9.57,14.95,4.43,20.75-.77-3.59-.96-8.3-.35-11.7,2.32-2.59-2.38-6.62-2.53-9.05-1.55Z"/><path class="cls-27" d="M207.44,30.83c-.75,1.81-2.91,3.53-4.89,3.78-2.1,.26-3-1.25-1.95-3.27,.98-1.9,3.27-3.41,5.07-3.46s2.48,1.24,1.77,2.95Z"/><path class="cls-27" d="M229.27,30.26c1.19,2.16,4.15,3.43,6.3,2.76,1.94-.61,2.33-2.57,1.11-4.32-1.15-1.65-3.47-2.73-5.39-2.48-2.1,.27-3.12,2.04-2.02,4.05Z"/><path class="cls-1" d="M228.4,50.66c0-5.33,4.33-9.66,9.66-9.66,2.21,0,4.24,.75,5.87,2.01,1.24-2.91,1.98-6.09,2.06-9.45,.37-14.23-10.86-26.06-25.09-26.43-14.23-.37-26.06,10.86-26.43,25.09-.37,14.23,10.86,26.06,25.09,26.43,3.86,.1,7.54-.66,10.86-2.09-1.26-1.63-2.02-3.67-2.02-5.89Z"/></g><path class="cls-10" d="M28.04,66.47c-1-.64-1.86-1.49-2.5-2.49s-1.07-2.13-1.23-3.31l-.62-4.05c-.01-.1-.06-.19-.13-.26-.07-.07-.17-.11-.26-.11-.1,0-.19,.05-.26,.11-.07,.07-.12,.16-.13,.26l-.62,4.05c-.18,1.18-.6,2.3-1.24,3.3-.64,1-1.49,1.85-2.49,2.5l-.54,.34c-.05,.04-.1,.09-.13,.15-.03,.06-.04,.13-.04,.19,0,.07,.01,.13,.04,.19,.03,.06,.07,.11,.13,.15l.54,.34c1,.65,1.85,1.5,2.49,2.5,.64,1,1.07,2.13,1.24,3.3l.62,4.05c.01,.1,.06,.18,.13,.24,.07,.06,.17,.1,.26,.1,.1,0,.19-.03,.26-.1,.07-.06,.12-.15,.13-.24l.62-4.05c.17-1.18,.59-2.31,1.23-3.31,.65-1,1.5-1.85,2.5-2.49l.54-.34c.05-.04,.1-.09,.13-.15,.03-.06,.04-.13,.04-.19,0-.07-.01-.13-.04-.19-.03-.06-.07-.11-.13-.15l-.54-.34Z"/><g><path class="cls-13" d="M53.09,141.12c0-5.33,4.33-9.66,9.66-9.66,2.21,0,4.24,.75,5.87,2.01,1.24-2.91,1.98-6.09,2.06-9.45,.37-14.23-10.86-26.06-25.09-26.43s-26.06,10.86-26.43,25.09c-.37,14.23,10.86,26.06,25.09,26.43,3.86,.1,7.54-.66,10.86-2.09-1.26-1.63-2.02-3.67-2.02-5.89Z"/><path class="cls-8" d="M44.07,133.94c-4.5-.5-7.79-.63-10.21-.37l8.49,7.41,1.38,3.37c1.91,1.57,4.15,3.1,6.53,4.2,1.68-.36,3.3-.87,4.85-1.53-1.26-1.63-2.02-3.67-2.02-5.89,0-2.03,.63-3.91,1.7-5.46-3.11-.74-6.69-1.24-10.72-1.72Z"/><circle class="cls-24" cx="62.75" cy="141.12" r="6.66"/><path class="cls-17" d="M37.33,103.16c-.19-.33-.44-.64-.74-.87-1.98-1.5-5.34-.64-6.74,1.34-1.53,2.16-1.33,4.95,1.63,7.04,5.29,3.74,7.81,5.27,8.58,4.02,1.05-1.72-.09-6.88-2.73-11.52Z"/><ellipse class="cls-10" cx="36.54" cy="110.45" rx="4.55" ry="3.34" transform="translate(-58.2 42.94) rotate(-36.22)"/><path class="cls-28" d="M57.97,121.12c-.61-.39-1.02-1.04-1.03-1.76-.09-5.34-.9-9.09-5.74-11.19-5.21-2.25-14.2-2.64-18.08,3.66-3.48,5.64-2.71,12.83-1.57,23.06,.24,2.15,1.98,3.83,4.13,3.99l15.3,1.14c.81,.23,1.51,.47,2.12,.7,.19-4.62,3.64-8.4,8.1-9.12,.58-4.42-.32-8.6-3.24-10.47Z"/><path class="cls-17" d="M33.12,111.83c3.88-6.29,12.87-5.91,18.08-3.66,.88,.38,1.65,.82,2.34,1.29,.46,1.76-2.3,4.14-14.07,2.44-.66-.1-1.27,.4-1.3,1.06-.09,2.2-1.02,6.51-6.9,6.96l-.79-1.54c.43-2.26,1.25-4.3,2.64-6.55Z"/><path class="cls-28" d="M34.27,125.73c0,.13-.02,.26-.04,.39-.3,1.82-2.03,3.05-3.85,2.75-1.67-.37-2.77-1.93-2.63-4.22,.02-.39-.08-.78-.28-1.11-3.79-5.59-5.12-7.77-4.25-8.61,.87-.83,6.74,1.96,11.52,4.71l-.47,6.09Z"/><path class="cls-21" d="M33.98,123.73c-.15,.21-.43,.3-.68,.21l-.25-.08-1.44-1.12c-.23,.75-.39,1.73,.36,2.23,.33,.16,.47,.55,.32,.88-.16,.33-.55,.47-.88,.32l-.19-.06c-1.19-.84-1.42-2.34-.66-4.17l-3.86-3.08c-.29-.22-.35-.64-.13-.93,.22-.29,.64-.35,.93-.13,2.23,1.7,6.33,5.13,6.39,5.15,.21,.21,.25,.53,.11,.79Z"/><g><path d="M57.04,125.04c-.14,0-.26,.01-.38,.03-.03,1.57-1.5,2.25-3.36,2.64-1.82,.38-4.2,.16-5.11-1.23-.67,.62-.8,1.66-.48,2.52,.13,.36,.3,.68,.49,.97,.58-.4,1.28-.72,2.1-.93,2.14-.55,4.47-.19,6.1,.79l.13-1.33c.03-.78,.45-1.11,1.01-.39,.22,.28,.41,.57,.57,.91,.28-.46,.47-.95,.57-1.45,.32-1.69-.79-2.55-1.65-2.53Z"/><path class="cls-9" d="M56.53,128.5l-.13,1.33c.24,.15,.46,.31,.67,.48,.41-.39,.77-.83,1.04-1.29-.17-.34-.36-.63-.57-.91-.56-.72-.98-.4-1.01,.39Z"/><path class="cls-12" d="M50.3,129.04c-.82,.21-1.52,.53-2.1,.93,.48,.73,1.14,1.23,1.9,1.55l.13-1.29c.03-.78,.45-1.11,1.01-.39,.42,.54,.76,1.13,.97,2.03,0,.03,.01,.06,.02,.09,.7,.02,1.43-.04,2.16-.18,.98-.19,1.93-.73,2.7-1.45-.21-.17-.43-.33-.67-.48-1.63-.98-3.96-1.34-6.1-.79Z"/><path class="cls-9" d="M51.23,129.83c-.56-.72-.98-.4-1.01,.39l-.13,1.29c.64,.27,1.36,.41,2.12,.43,0-.03,0-.06-.02-.09-.21-.89-.55-1.48-.97-2.03Z"/><path class="cls-9" d="M53.3,127.71c1.86-.39,3.33-1.06,3.36-2.64-1.23,.17-1.78,.98-2.77,1.23-1.32,.34-2.69-.35-4.08-.37-.72-.01-1.25,.2-1.62,.55,.91,1.39,3.29,1.61,5.11,1.23Z"/></g><ellipse class="cls-9" cx="51.4" cy="118" rx="2.75" ry="3.9" transform="translate(-22.66 12.73) rotate(-11.59)"/><ellipse cx="51.68" cy="116.97" rx="1.53" ry="2.17" transform="translate(-22.45 12.77) rotate(-11.59)"/><path class="cls-1" d="M53.09,141.12c0-5.33,4.33-9.66,9.66-9.66,2.21,0,4.24,.75,5.87,2.01,1.24-2.91,1.98-6.09,2.06-9.45,.37-14.23-10.86-26.06-25.09-26.43s-26.06,10.86-26.43,25.09c-.37,14.23,10.86,26.06,25.09,26.43,3.86,.1,7.54-.66,10.86-2.09-1.26-1.63-2.02-3.67-2.02-5.89Z"/><path class="cls-11" d="M29.58,127.19c-.3,.47-.65,.9-1.01,1.32-.18,.21-.36,.42-.55,.61-.2,.19-.33,.45-.74,.44-.52-.01-.93-.43-.97-.93-.03-.41,.23-.55,.41-.75,.19-.2,.39-.39,.59-.57,.41-.37,.83-.73,1.29-1.05,.31-.21,.74-.13,.95,.18,.16,.23,.15,.53,.01,.76Z"/><path class="cls-17" d="M50.56,112.59c-1.82,.25-3.24,1.71-3.21,2.7,.03,.99,1.43,.18,3.34-.06s3.41,.21,3.39-.78c-.03-.9-1.7-2.11-3.52-1.86Z"/><path class="cls-21" d="M38.22,137.45c4.66,3.13,11.04,6.38,15.45,6.97-.38-1.03-.59-2.14-.59-3.29,0-.39,.03-.78,.08-1.16-4.04,.17-9.4-.45-14.94-2.51Z"/><path class="cls-8" d="M22.13,135.37c4.21,7.97,12.47,13.49,22.12,13.74,2.08,.05,4.1-.15,6.05-.57-9.4-15.05-23.97-13.88-28.17-13.18Z"/></g><g><g><rect class="cls-17" x="10.16" y="30.98" width="81.13" height="58.14" rx="5.36" ry="5.36"/><path class="cls-4" d="M85.93,90.41H15.51c-3.66,0-6.64-2.98-6.64-6.64V36.33c0-3.66,2.98-6.64,6.64-6.64H85.93c3.66,0,6.64,2.98,6.64,6.64v47.43c0,3.66-2.98,6.64-6.64,6.64ZM15.51,32.26c-2.25,0-4.07,1.83-4.07,4.07v47.43c0,2.25,1.83,4.07,4.07,4.07H85.93c2.25,0,4.07-1.83,4.07-4.07V36.33c0-2.25-1.83-4.07-4.07-4.07H15.51Z"/></g><g id="PSF_H2_POS"><g><g><path class="cls-9" d="M46.72,47.19v22.85l5.17,1.64v-19.16c0-.9,.4-1.5,1.05-1.3,.84,.23,1.01,1.07,1.01,1.96v7.65c3.22,1.56,5.76,0,5.76-4.11s-1.49-6.07-5.86-7.58c-1.73-.57-4.92-1.54-7.13-1.95"/><path class="cls-9" d="M52.87,68.33l8.31-2.96c.94-.35,1.08-.82,.32-1.07-.77-.25-2.15-.18-3.1,.16l-5.53,1.95v-3.11l.32-.1s1.6-.57,3.85-.81c2.25-.25,5,.03,7.17,.85,2.44,.78,2.71,1.91,2.1,2.69-.63,.78-2.14,1.34-2.14,1.34l-11.29,4.05v-2.99Z"/><path class="cls-9" d="M37.24,68.02c-2.5-.7-2.92-2.17-1.78-3.02,1.05-.78,2.85-1.36,2.85-1.36l7.41-2.64v3.01l-5.33,1.91c-.94,.34-1.09,.81-.33,1.06,.77,.26,2.15,.19,3.09-.16l2.56-.92v2.68c-.17,.03-.35,.06-.52,.08-2.55,.42-5.28,.25-7.96-.64Z"/></g><path class="cls-9" d="M64.55,69.23c.73,0,1.22,.54,1.22,1.22s-.49,1.22-1.22,1.22-1.23-.54-1.23-1.22,.5-1.22,1.23-1.22Zm0,2.27c.62,0,1.03-.47,1.03-1.04s-.41-1.04-1.03-1.04-1.03,.47-1.03,1.04,.4,1.04,1.03,1.04Zm-.49-1.76h.56c.26,0,.45,.08,.45,.37,0,.17-.08,.29-.26,.34h0c.09,.03,.16,.1,.2,.26,.05,.16,.1,.31,.14,.44h-.26c-.03-.1-.08-.29-.11-.38-.04-.16-.09-.22-.3-.22h-.17v.6h-.25v-1.42Zm.25,.64h.23c.18,0,.29-.07,.29-.23,0-.19-.13-.22-.27-.22h-.24v.45Z"/></g></g></g><path class="cls-29" d="M20.7,37.37c-.17-.07-.36-.03-.49,.1l-1.93,2.12h-1.35c-.25,0-.45,.2-.45,.45v2.7c0,.25,.2,.45,.45,.45h1.35l1.93,2.12c.13,.13,.32,.17,.49,.1s.28-.23,.28-.42v-7.2c0-.18-.11-.35-.28-.42Zm1.18,.87v.9c1.24,0,2.25,1.01,2.25,2.25s-1.01,2.25-2.25,2.25v.9c1.74,0,3.15-1.41,3.15-3.15s-1.41-3.15-3.15-3.15Zm0,1.8c.74,0,1.35,.61,1.35,1.35s-.61,1.35-1.35,1.35v-.9c.25,0,.45-.2,.45-.45s-.2-.45-.45-.45v-.9Z"/><g><path class="cls-10" d="M167.8,124.44c0-9.97,8.11-18.08,18.08-18.08,3.43,0,6.62,.98,9.35,2.64,2.01-5.23,3.13-10.91,3.13-16.86,0-25.96-21.04-47-47-47s-47,21.04-47,47c0,16.99,9.02,31.88,22.52,40.13,7.13,4.36,15.51,6.87,24.48,6.87,7.04,0,13.72-1.56,19.72-4.34-2.06-2.94-3.28-6.51-3.28-10.36Z"/><path d="M182.84,66.67c-2.21,0-4-1.79-4-4,0-4.78-.19-6.71-.81-10.45-.64-3.86-3.67-6.86-7.73-7.63-4.08-.78-14.99-1.2-23.18-1.2s-19.1,.42-23.18,1.2c-4.06,.78-7.1,3.77-7.73,7.63-.61,3.74-.81,5.67-.81,10.45,0,2.21-1.79,4-4,4s-4-1.79-4-4c0-5.26,.24-7.65,.91-11.75,1.18-7.21,6.73-12.78,14.12-14.19,5.56-1.07,18.58-1.35,24.68-1.35s19.12,.28,24.68,1.35c7.39,1.42,12.93,6.99,14.12,14.19,.67,4.09,.91,6.48,.91,11.75,0,2.21-1.79,4-4,4Z"/><path class="cls-2" d="M167.8,124.44c0-7.91,5.12-14.64,12.21-17.09-5.67-13.39-11.22-24.13-11.22-24.13l-39.78-1.96s-18.69-8.97-30.77-14.28c-6.35-2.79-9.14-2.98-10.7-.54-.57,.89-.46,2.24-.27,3.44,.18,1.18-.18,1.45-1.18,1.81-1.21,.44-7.34,2.27-6.62,7.43,.33,2.34,2.54,4.56,5.8,5.35,5.26,1.27,9.16,.73,11.33,1.81,2.27,1.14,17.29,9.41,28.3,17.5,0,0,.29,16.97,3.83,29.55,6.71,3.7,14.42,5.8,22.63,5.8,7.04,0,13.72-1.56,19.72-4.33-2.06-2.94-3.29-6.51-3.29-10.36Z"/><path class="cls-7" d="M220.75,112.58c-1.08-4.85-9.25-5.56-10.88-6.77-4.26-3.15-14.87-10.15-23.33-15.59-5.22-3.35-11.56-8.08-19.18-8.08l5.7,23.37s1.93,1.07,4.88,2.71c2.4-1.18,5.09-1.86,7.94-1.86,9.2,0,16.79,6.9,17.92,15.8,1.9,.97,3.4,1.69,4.25,2.03,2.72,1.09,4.96,1.03,5.44-.6,.4-1.33,0-3.2,0-3.2,5.44-1.09,7.98-4.53,7.25-7.8Z"/><g><path class="cls-26" d="M127.13,82.59l42.23,.38c-6.88,6.38-23.96,20.92-34.17,19.16-10.48-1.81-8.07-19.54-8.07-19.54Z"/><ellipse class="cls-5" cx="106.27" cy="61.25" rx="6.75" ry="10.89" transform="translate(-.99 1.76) rotate(-.94)"/><ellipse cx="110.82" cy="61.23" rx="8.32" ry="13.42" transform="translate(-.99 1.83) rotate(-.94)"/><path class="cls-7" d="M182.84,62.67c0-4.97-.2-7.1-.86-11.1-.92-5.57-5.21-9.82-10.93-10.91-4.63-.89-16-1.28-23.93-1.28s-19.31,.39-23.93,1.28c-5.71,1.09-10.01,5.35-10.93,10.91-.66,4-.86,6.12-.86,11.1h0c0,4.97,.2,7.1,.86,11.1,.92,5.57,5.21,9.82,10.93,10.91,4.63,.89,16,1.28,23.93,1.28s19.31-.39,23.93-1.28c5.71-1.09,10.01-5.35,10.93-10.91,.66-4,.86-6.12,.86-11.1h0Z"/><ellipse cx="167.13" cy="57.53" rx="3.24" ry="3.93"/><ellipse cx="118.82" cy="57.53" rx="3.24" ry="3.93"/><path d="M153.81,80.35c-1.79,.51-3.62,.13-4.95-.61-1.31-.73-2.15-1.81-2.01-2.76,.22-1.59,8.15-4.33,9.9-3.77,.67,.22,1.04,.9,1.1,1.77,.13,1.85-1.13,4.53-4.04,5.36Z"/><path class="cls-14" d="M153.81,80.35c-1.79,.51-3.62,.13-4.95-.61,1.1-1.3,2.79-2.56,4.86-3.5,1.42-.65,2.83-1.06,4.13-1.26,.13,1.85-1.13,4.53-4.04,5.36Z"/><path class="cls-15" d="M130.67,49.13h23.39c3.48,0,6.3,2.82,6.3,6.3v7.36c0,4.5-3.65,8.15-8.15,8.15h-17.67c-5.62,0-10.17-4.56-10.17-10.17v-5.34c0-3.48,2.82-6.3,6.3-6.3Z"/><ellipse class="cls-7" cx="134.24" cy="65.98" rx="3.96" ry="1.85"/><ellipse class="cls-7" cx="146.08" cy="65.98" rx="3.96" ry="1.85"/></g><g><path d="M181.15,74.65c-4.71-.12-8.37-6.37-8.18-13.97s4.16-13.66,8.87-13.54l4.25,.11-.69,27.51-4.25-.11Z"/><ellipse cx="185.75" cy="61" rx="13.76" ry="8.53" transform="translate(120.13 245.16) rotate(-88.57)"/><ellipse class="cls-5" cx="187.54" cy="61.04" rx="12.2" ry="7.56" transform="translate(121.83 247) rotate(-88.57)"/><g><path class="cls-18" d="M188.91,68.96c-1.02-.12-1.94-.96-2.6-2.39-.67-1.46-1.01-3.37-.94-5.4,.14-4.34,2.01-7.71,4.27-7.67,2.25,.04,3.91,3.47,3.77,7.81-.14,4.34-2.01,7.7-4.27,7.67-.08,0-.15,0-.23-.02Zm.86-14.67c-.05,0-.1-.01-.16-.01-1.79-.03-3.41,3.13-3.53,6.91-.06,1.9,.25,3.69,.87,5.03,.59,1.27,1.37,1.97,2.21,1.99,1.79,.03,3.41-3.13,3.53-6.91h0c.12-3.67-1.21-6.8-2.92-7.01Z"/><path class="cls-4" d="M189.18,69.46s-.03,0-.05,0c-.09,0-.19,0-.28-.02-1.19-.15-2.25-1.09-2.98-2.67-.7-1.52-1.05-3.52-.99-5.62,.15-4.68,2.22-8.18,4.76-8.13,.79,.02,1.55,.38,2.2,1.06,1.38,1.45,2.15,4.16,2.05,7.24-.15,4.65-2.17,8.13-4.71,8.13Zm.41-14.7c-1.33,0-2.9,2.74-3.02,6.44-.06,1.83,.23,3.54,.83,4.82,.5,1.07,1.15,1.7,1.78,1.71h.02c1.33,0,2.9-2.74,3.02-6.44,.12-3.65-1.23-6.36-2.5-6.52h0s-.08,0-.12,0Z"/></g></g><path d="M162.13,91.13h-17.26c-.83,0-1.5-.67-1.5-1.5s.67-1.5,1.5-1.5h17.26c6.33,0,12.21-3.67,14.99-9.36l3.01-6.17c.36-.74,1.26-1.05,2.01-.69,.74,.36,1.05,1.26,.69,2.01l-3.01,6.17c-3.28,6.71-10.22,11.04-17.69,11.04Z"/><rect x="138.37" y="83.13" width="14.86" height="8" rx="4" ry="4"/><g><path class="cls-23" d="M158.28,31.15s1.09-.46,2.65-1.33c1.1-.61,2.47-1.47,3.72-2.36,4.51-3.25,5.48-9.6-1.24-11.11,0,0-6.45-3.89-13.79,5.26-2.08,2.59-3.53,2.28-5.2,2.32l9.18,7.1,4.68,.12Z"/><path class="cls-6" d="M150.65,30.23c-.75,0-1.39-.56-1.49-1.31-.1-.82,.47-1.56,1.29-1.67,.17-.03,8.76-1.6,14.28-19.43,.25-.79,1.09-1.23,1.88-.99,.79,.24,1.23,1.08,.99,1.88-6.17,19.98-16.32,21.47-16.75,21.52-.06,0-.13,.01-.19,.01Z"/><path class="cls-20" d="M160.93,29.82c.31-.18-4.55,2.63-11.98-4.76-1.02-1.02-2.66-2.69-3.23-3.25-2.94-2.88-9.76-9.05-16.39-5.15,0,0-5.74,3.87-.89,9.94,1.22,1.53,2.79,2.74,4.54,3.6,4.6,2.26,15.96,6.39,27.95-.38Z"/><path class="cls-6" d="M129.95,16.32c-.21,.1-.42,.22-.63,.34,0,0-.93,.63-1.73,1.78,.81,1.86,2.1,4.26,4.12,6.66,2.51,2.98,6.51,6.33,12.58,8.31,3.44,.31,7.34,.07,11.41-1.28-17.99-.07-24.02-11.15-25.76-15.81Z"/></g><circle class="cls-24" cx="185.89" cy="124.44" r="13.3"/><path class="cls-26" d="M170.17,106.96l5.24,2.76c.96-.69,1.99-1.28,3.08-1.77l-6.92-3.64c-.73-.39-1.64-.1-2.03,.63-.39,.73-.1,1.64,.63,2.03Z"/></g><path class="cls-13" d="M109.41,26.1c-1-.64-1.86-1.49-2.5-2.49s-1.07-2.13-1.23-3.31l-.62-4.05c-.01-.1-.06-.19-.13-.26-.07-.07-.17-.11-.26-.11-.1,0-.19,.05-.26,.11-.07,.07-.12,.16-.13,.26l-.62,4.05c-.18,1.18-.6,2.3-1.24,3.3-.64,1-1.49,1.85-2.49,2.5l-.54,.34c-.05,.04-.1,.09-.13,.15-.03,.06-.04,.13-.04,.19,0,.07,.01,.13,.04,.19,.03,.06,.07,.11,.13,.15l.54,.34c1,.65,1.85,1.5,2.49,2.5,.64,1,1.07,2.13,1.24,3.3l.62,4.05c.01,.1,.06,.18,.13,.24,.07,.06,.17,.1,.26,.1,.1,0,.19-.03,.26-.1,.07-.06,.12-.15,.13-.24l.62-4.05c.17-1.18,.59-2.31,1.23-3.31,.65-1,1.5-1.85,2.5-2.49l.54-.34c.05-.04,.1-.09,.13-.15,.03-.06,.04-.13,.04-.19,0-.07-.01-.13-.04-.19-.03-.06-.07-.11-.13-.15l-.54-.34Z"/><path class="cls-25" d="M96,12.95c-.67-.43-1.24-.99-1.67-1.66s-.71-1.42-.82-2.21l-.42-2.7c0-.07-.04-.13-.09-.17-.05-.04-.11-.07-.18-.08-.07,0-.13,.03-.18,.08-.05,.04-.08,.1-.09,.17l-.42,2.7c-.12,.78-.4,1.54-.83,2.2-.43,.67-1,1.23-1.66,1.67l-.36,.23s-.07,.06-.09,.1c-.02,.04-.03,.08-.03,.13,0,.04,0,.09,.03,.13,.02,.04,.05,.07,.09,.1l.36,.23c.67,.43,1.23,1,1.66,1.67,.43,.67,.71,1.42,.83,2.2l.42,2.7c0,.06,.04,.12,.09,.16,.05,.04,.11,.06,.17,.06,.06,0,.13-.02,.17-.06,.05-.04,.08-.1,.09-.16l.42-2.7c.11-.79,.39-1.54,.82-2.21,.43-.67,1-1.23,1.67-1.66l.36-.23s.07-.06,.09-.1c.02-.04,.03-.08,.03-.13,0-.04,0-.09-.03-.13-.02-.04-.05-.07-.09-.1l-.36-.23Z"/><path class="cls-10" d="M7.7,29.9c-.57-.37-1.06-.85-1.43-1.42s-.61-1.22-.7-1.89l-.36-2.31c0-.06-.03-.11-.08-.15-.04-.04-.09-.06-.15-.06-.06,0-.11,.03-.15,.06-.04,.04-.07,.09-.08,.15l-.36,2.31c-.1,.67-.34,1.31-.71,1.89-.37,.57-.85,1.06-1.42,1.43l-.31,.19s-.06,.05-.07,.08c-.02,.03-.03,.07-.02,.11,0,.04,0,.08,.02,.11,.02,.03,.04,.06,.07,.08l.31,.19c.57,.37,1.06,.86,1.42,1.43,.37,.57,.61,1.21,.71,1.89l.36,2.31c0,.05,.04,.1,.08,.14,.04,.04,.09,.05,.15,.05,.05,0,.11-.02,.15-.05,.04-.04,.07-.09,.08-.14l.36-2.31c.1-.67,.34-1.32,.7-1.89,.37-.57,.86-1.06,1.43-1.42l.31-.19s.06-.05,.07-.08c.02-.03,.03-.07,.02-.11,0-.04,0-.08-.02-.11-.02-.03-.04-.06-.07-.08l-.31-.19Z"/></svg>