<svg fill="none" height="200" viewBox="0 0 301 200" width="301" xmlns="http://www.w3.org/2000/svg" xmlns:xlink="http://www.w3.org/1999/xlink"><linearGradient id="a" gradientUnits="userSpaceOnUse" x1=".50002" x2="193.391" y1="200" y2="-84.108"><stop offset="0" stop-color="#3e70dd"/><stop offset="1" stop-color="#b377f3"/></linearGradient><clipPath id="b"><rect height="200" rx="8" width="300" x=".5"/></clipPath><g clip-path="url(#b)"><path d="m.5 0h300v200h-300z" fill="url(#a)" opacity=".3"/><path d="m69.8252 188.595h-29.9961v11.345h29.9961z" fill="#7196ff"/><path d="m80.4503 191.218c0-1.628-1.3201-2.948-2.9485-2.948-1.6285 0-2.9486 1.32-2.9486 2.948v2.57c0 1.628 1.3201 2.948 2.9486 2.948 1.6284 0 2.9485-1.32 2.9485-2.948z" fill="#3e70dd" opacity=".2"/><path d="m77.8737 190.971h-.7507v8.969h.7507z" fill="#3e70dd" opacity=".2"/><path d="m15.3971 191.218c0-1.628-1.3201-2.948-2.9486-2.948-1.6284 0-2.9485 1.32-2.9485 2.948v2.57c0 1.628 1.3201 2.948 2.9485 2.948 1.6285 0 2.9486-1.32 2.9486-2.948z" fill="#3e70dd" opacity=".2"/><path d="m12.82 190.971h-.7507v8.969h.7507z" fill="#3e70dd" opacity=".2"/><path d="m86.4481 194.422c.782 0 1.5319.311 2.0849.864.5529.553.8636 1.303.8636 2.085v2.569h-5.8971v-2.562c-.001-.387.0745-.772.2222-1.13.1478-.359.3648-.685.6387-.96.2739-.274.5993-.492.9575-.641.3582-.148.7423-.225 1.1302-.225z" fill="#3e70dd" opacity=".2"/><path d="m63.3087 182.071-6.5162 6.516h13.0323z" fill="#7196ff"/><path d="m46.3453 182.071-6.5162 6.516h16.9637l6.5162-6.516z" fill="#3e70dd" opacity=".2"/><path d="m63.3088 191.644c.5932 0 1.1621.235 1.5815.655.4194.419.6551.988.6551 1.581v6.06h-4.4731v-6.06c0-.593.2356-1.162.655-1.581.4195-.42.9883-.655 1.5815-.655z" fill="#85a5ff"/><path d="m34.7678 172.769h-3.2967l-1.8109 27.171h6.9186z" fill="#7196ff"/><path d="m33.6067 176.646-1.1763-1.184-8.7605 7.421 2.4533 2.469z" fill="#85a5ff"/><path d="m34.1949 177.234-1.1763-1.184 7.4758-8.706 2.4532 2.468z" fill="#85a5ff"/><path d="m33.011 176.638 1.184-1.168-7.4216-8.761-2.4687 2.453z" fill="#85a5ff"/><path d="m32.4229 177.226 1.184-1.176 8.714 7.476-2.4687 2.453z" fill="#85a5ff"/><path d="m52.4512 193.037c.2996 0 .587.119.7989.331s.331.499.331.799v1.803h-2.2598v-1.803c0-.149.0292-.296.086-.433s.14-.261.2449-.366.2295-.188.3666-.245.284-.086.4324-.086z" fill="#3e70dd"/><path d="m45.5093 193.037c.2996 0 .587.119.7989.331s.331.499.331.799v1.803h-2.2598v-1.803c0-.3.119-.587.3309-.799s.4993-.331.799-.331z" fill="#3e70dd"/><g fill="#3e70dd" opacity=".2"><path d="m90.3875 180.995c-.5813 0-1.0525.471-1.0525 1.053 0 .581.4712 1.052 1.0525 1.052h1.0602c.5813 0 1.0525-.471 1.0525-1.052 0-.582-.4712-1.053-1.0525-1.053z"/><path d="m81.9519 180.995c-.5813 0-1.0525.471-1.0525 1.053 0 .581.4712 1.052 1.0525 1.052h1.0602c.5813 0 1.0525-.471 1.0525-1.052 0-.582-.4712-1.053-1.0525-1.053z"/><path d="m85.6435 178.356c0 .581.4713 1.053 1.0525 1.053.5813 0 1.0525-.472 1.0525-1.053v-1.06c0-.581-.4712-1.053-1.0525-1.053-.5812 0-1.0525.472-1.0525 1.053z"/><path d="m85.6435 186.792c0 .581.4713 1.052 1.0525 1.052.5813 0 1.0525-.471 1.0525-1.052v-1.061c0-.581-.4712-1.052-1.0525-1.052-.5812 0-1.0525.471-1.0525 1.052z"/></g><path d="m259.519 175.691h-28.83v24.509h28.83z" fill="#3e70dd" opacity=".8"/><path d="m266.284 163.849h-19.091l-3.095 36.351h25.281z" fill="#85a5ff"/><path d="m267.268 184.968h-42.572v15.232h42.572z" fill="#7196ff"/><path d="m267.01 184.975-1.294 15.225h-1.112l1.309-15.225z" fill="#3e70dd"/><path d="m214.443 179.996h10.079l1.725 20.204h-13.529z" fill="#7196ff"/><path d="m212.718 180.783h13.53v-2.542h-13.53z" fill="#7196ff"/><path d="m212.718 178.241h13.53v-2.543h-13.53z" fill="#3e70dd"/><path d="m223.206 178.725h3.042v-3.034h-3.042z" fill="#7196ff"/><path d="m217.296 178.725h4.51v-3.034h-4.51z" fill="#7196ff"/><path d="m212.718 178.725h3.503v-3.034h-3.503z" fill="#7196ff"/><path d="m272.481 185.914c.149-.005.298.02.437.073.139.054.265.135.372.239s.191.229.249.366c.057.137.086.285.085.434v1.763h-2.27v-1.763c-.001-.148.028-.294.084-.43.057-.137.14-.261.245-.364.105-.104.23-.186.367-.24.137-.055.284-.081.431-.078z" fill="#3e70dd"/><path d="m219.482 185.914c.293 0 .574.116.782.323.207.207.323.488.323.781v1.764h-2.202v-1.756c0-.293.117-.574.324-.781s.488-.324.781-.324z" fill="#3e70dd"/><path d="m277.521 179.996h-10.079l-1.726 20.204h13.53z" fill="#7196ff"/><path d="m279.246 178.233h-13.53v2.543h13.53z" fill="#7196ff"/><path d="m279.246 175.691h-13.53v2.542h13.53z" fill="#3e70dd"/><path d="m270.226 175.691h-4.51v3.034h4.51z" fill="#7196ff"/><path d="m276.136 175.691h-4.51v3.034h4.51z" fill="#7196ff"/><path d="m279.254 175.691h-2.044v3.034h2.044z" fill="#7196ff"/><path d="m249.206 163.841h15.073v-12.886h-15.073z" fill="#7196ff"/><path d="m224.954 184.975 1.294 15.225h1.112l-1.309-15.225z" fill="#3e70dd"/><path d="m268.902 159.573h-24.328v4.268h24.328z" fill="#85a5ff"/><path d="m268.902 157.031h-24.328v2.542h24.328z" fill="#7196ff"/><path d="m257.96 157.031h-8.762v3.034h8.762z" fill="#85a5ff"/><path d="m265.701 157.031h-5.44v3.034h5.44z" fill="#85a5ff"/><path d="m268.91 157.031h-2.043v3.034h2.043z" fill="#85a5ff"/><path d="m244.582 160.065h2.747v-3.034h-2.747z" fill="#85a5ff"/><path d="m256.742 144.931-5.282 6.031h10.556z" fill="#3e70dd"/><path d="m272.481 185.914c.149-.005.298.02.437.073.139.054.265.135.372.239s.191.229.249.366c.057.137.086.285.085.434v1.763h-2.27v-1.763c-.001-.148.028-.294.084-.43.057-.137.14-.261.245-.364.105-.104.23-.186.367-.24.137-.055.284-.081.431-.078z" fill="#3e70dd"/><path d="m245.982 190.106c1.032 0 2.021.41 2.75 1.139.73.729 1.14 1.719 1.14 2.75v6.205h-7.779v-6.197c-.001-.512.099-1.018.294-1.491s.481-.902.842-1.264c.362-.362.791-.65 1.263-.845.472-.196.979-.297 1.49-.297z" fill="#85a5ff"/><path d="m257.151 139.059h-.833v6.349h.833z" fill="#85a5ff"/><path d="m256.742 139.332c.368 0 .666-.298.666-.666s-.298-.666-.666-.666-.666.298-.666.666.298.666.666.666z" fill="#85a5ff"/><path d="m263.999 139.672h-6.841v5.146h6.841z" fill="#7196ff"/><path d="m268.161 141.042h-6.841v5.145h6.841z" fill="#7196ff"/><g fill="#3e70dd"><path d="m261.32 144.81h2.671l-2.671 1.377z"/><path d="m288.576 191.672c0-1.592-1.291-2.883-2.883-2.883s-2.883 1.291-2.883 2.883v2.512c0 1.593 1.291 2.883 2.883 2.883s2.883-1.29 2.883-2.883z" opacity=".2"/><path d="m286.064 191.43h-.734v8.77h.734z" opacity=".2"/><path d="m291.466 194.805c.765 0 1.498.304 2.039.844.541.541.845 1.274.845 2.039v2.512h-5.766v-2.505c-.001-.379.072-.755.217-1.105.144-.351.356-.67.624-.938.268-.269.586-.482.936-.627.351-.145.726-.22 1.105-.22z" opacity=".2"/><path d="m228.389 154.708c-.585 0-1.059.474-1.059 1.059s.474 1.06 1.059 1.06h1.059c.585 0 1.06-.475 1.06-1.06s-.475-1.059-1.06-1.059z" opacity=".4"/><path d="m219.914 154.708c-.585 0-1.06.474-1.06 1.059s.475 1.059 1.06 1.059h1.059c.585 0 1.06-.474 1.06-1.059s-.475-1.059-1.06-1.059z" opacity=".4"/><path d="m223.614 152.059c0 .585.474 1.06 1.06 1.06.585 0 1.059-.475 1.059-1.06v-1.059c0-.585-.474-1.059-1.059-1.059-.586 0-1.06.474-1.06 1.059z" opacity=".4"/><path d="m223.614 160.534c0 .585.474 1.06 1.06 1.06.585 0 1.059-.475 1.059-1.06v-1.059c0-.585-.474-1.059-1.059-1.059-.586 0-1.06.474-1.06 1.059z" opacity=".4"/><path d="m151 158c30.111 0 54.5-24.613 54.5-55 0-30.3875-24.389-55-54.5-55s-54.5 24.6125-54.5 55c0 30.387 24.389 55 54.5 55z" fill-opacity=".6"/></g><path d="m197.487 78.9593 44.638-7.8343-13.798 18.1425c-2.691 3.5736-6.623 5.9101-11.039 6.7348l-31.391 5.4977-.897-4.8792z" fill="#dae2ed"/><path d="m183.876 74.6078 65.879-11.6025c.55-.0687.963.5492.619.9611l-4.199 5.6983c-.482.6179-1.17 1.0985-1.996 1.2358l-2.134.3433-44.539 7.8265-12.322 17.5755.895 4.8742.62 3.639-13.906 19.841-7.779-15.996-1.514-8.514 16.452-23.4106c.826-1.2358 2.272-2.1283 3.924-2.4716z" fill="#eceff6"/><path d="m185 96.552 12.433-17.5927 44.692-7.8343-2.763 3.6423-40.202 7.0783-11.466 16.287.483 2.9554-2.279.412z" fill="#c5cedd"/><path d="m241.5 70c1.133 0 2-.8667 2-2s-.867-2-2-2-2 .8667-2 2 .867 2 2 2z" fill="#dae2ed"/><path d="m189.5 85c1.133 0 2-.8667 2-2s-.867-2-2-2-2 .8667-2 2 .867 2 2 2z" fill="#dae2ed"/><path d="m185.5 90c1.133 0 2-.8667 2-2s-.867-2-2-2-2 .8667-2 2 .867 2 2 2z" fill="#dae2ed"/><path d="m104.429 79.0288-44.4915-7.81 13.753 18.0865c2.6819 3.5625 6.6015 5.8918 11.0024 6.7139l31.2881 5.4808.894-4.8642z" fill="#dae2ed"/><path d="m118.124 74.5392-65.8786-11.5339c-.5507-.0687-.9637.5492-.6195.9611l4.1991 5.6983c.4819.6179 1.1703 1.0985 1.9963 1.2358l2.134.3433 44.5387 7.8265 12.322 17.5755-.895 4.8742-.62 3.639 13.906 19.841 7.779-15.996 1.514-8.514-16.452-23.4106c-.826-1.3045-2.272-2.197-3.924-2.5402z" fill="#eceff6"/><path d="m116.875 96.5673-12.339-17.5385-44.5985-7.81 2.7573 3.631 40.0492 7.0564 11.512 16.2368-.552 2.946 2.344.411z" fill="#c5cedd"/><path d="m60.5 70c1.1333 0 2-.8667 2-2s-.8667-2-2-2-2 .8667-2 2 .8667 2 2 2z" fill="#dae2ed"/><path d="m112.5 85c1.133 0 2-.8667 2-2s-.867-2-2-2-2 .8667-2 2 .867 2 2 2z" fill="#dae2ed"/><path d="m116.5 90c1.133 0 2-.8667 2-2s-.867-2-2-2-2 .8667-2 2 .867 2 2 2z" fill="#dae2ed"/><path d="m211.322 47.9468-1.718 3.6432c-.413.8249.481 1.7185 1.306 1.3061l3.643-1.7185c.275-.1375.619-.1375.894 0l3.643 1.7185c.825.4124 1.719-.4812 1.306-1.3061l-1.718-3.6432c-.138-.2749-.138-.6187 0-.8936l1.718-3.6432c.413-.8249-.481-1.7185-1.306-1.3061l-3.643 1.7185c-.275.1375-.619.1375-.894 0l-3.643-1.7185c-.825-.4124-1.719.4812-1.306 1.3061l1.718 3.6432c.138.2749.138.6187 0 .8936z" fill="#aec7ff"/><path d="m66 120c-.825 0-1.5-.6-1.5-1.333v-1.334c0-.733.675-1.333 1.5-1.333s1.5.6 1.5 1.333v1.334c0 .733-.675 1.333-1.5 1.333z" fill="#aec7ff"/><path d="m66 131c-.825 0-1.5-.6-1.5-1.333v-1.334c0-.733.675-1.333 1.5-1.333s1.5.6 1.5 1.333v1.334c0 .733-.675 1.333-1.5 1.333z" fill="#aec7ff"/><path d="m69.5 123.5c0-.825.6-1.5 1.3333-1.5h1.3334c.7333 0 1.3333.675 1.3333 1.5s-.6 1.5-1.3333 1.5h-1.3334c-.7333 0-1.3333-.675-1.3333-1.5z" fill="#aec7ff"/><path d="m58.5 123.5c0-.825.6-1.5 1.3333-1.5h1.3334c.7333 0 1.3333.675 1.3333 1.5s-.6 1.5-1.3333 1.5h-1.3334c-.7333 0-1.3333-.675-1.3333-1.5z" fill="#aec7ff"/><path d="m151 55-28.5 28.1709v39.6581l28.5 28.171 28.5-28.171v-39.6581zm14.319 61.88-14.319 14.154-14.25-14.085v-28.0345l14.25-14.0171 14.25 14.0855z" fill="#fa6ef6"/><path d="m150.5 55v19.9074l14.5 14.0926 14.5-5.8833z" fill="#ffadfb"/><path d="m136.5 117-14 5.815 28 28.185v-19.907z" fill="#e655d4"/><path d="m136.5 88.3021v28.3959l14.5 14.302 14.5-14.302v-28.3959l-14.5-14.3021z" fill="#ffcff9"/><path d="m165.5 87.9657v.0708l-28.93 28.9635h-.07v-7.861l25.058-25.139z" fill="#fff"/><path d="m165.5 99v7.843l-19.063 19.157-3.937-3.956z" fill="#fff"/></g></svg>