<?xml version="1.0" encoding="UTF-8" standalone="no"?>
<svg width="28px" height="40px" viewBox="0 0 28 40" version="1.1" xmlns="http://www.w3.org/2000/svg" xmlns:xlink="http://www.w3.org/1999/xlink" xmlns:sketch="http://www.bohemiancoding.com/sketch/ns">
    <!-- Generator: Sketch 3.4.4 (17249) - http://www.bohemiancoding.com/sketch -->
    <title>icon-file-small-video</title>
    <desc>Created with Sketch.</desc>
    <defs>
        <filter x="-50%" y="-50%" width="200%" height="200%" filterUnits="objectBoundingBox" id="filter-1">
            <feOffset dx="0" dy="2" in="SourceAlpha" result="shadowOffsetOuter1"></feOffset>
            <feGaussianBlur stdDeviation="0" in="shadowOffsetOuter1" result="shadowBlurOuter1"></feGaussianBlur>
            <feColorMatrix values="0 0 0 0 0   0 0 0 0 0   0 0 0 0 0  0 0 0 0.07 0" in="shadowBlurOuter1" type="matrix" result="shadowMatrixOuter1"></feColorMatrix>
            <feMerge>
                <feMergeNode in="shadowMatrixOuter1"></feMergeNode>
                <feMergeNode in="SourceGraphic"></feMergeNode>
            </feMerge>
        </filter>
    </defs>
    <g id="Drag-&amp;-Drop" stroke="none" stroke-width="1" fill="none" fill-rule="evenodd" sketch:type="MSPage">
        <g id="Desktop-HD---Drag-&amp;-Drop,-Small-Icons---Dark" sketch:type="MSArtboardGroup" transform="translate(-742.000000, -524.000000)">
            <g id="Group" sketch:type="MSLayerGroup" transform="translate(404.000000, 526.000000)">
                <g id="icon-file-small-video" transform="translate(340.000000, 0.000000)" sketch:type="MSShapeGroup">
                    <g id="Group">
                        <path d="M0,3.00741988 C0,1.34646775 1.34252415,0 2.99998588,0 L15.1166483,0 C17.0807354,0 24,6.91885725 24,8.87457593 L24,33.0035574 C24,34.6584469 22.6582294,36 21.0089096,36 L2.99109042,36 C1.33915679,36 0,34.6544607 0,32.9925801 L0,3.00741988 Z" id="Rectangle-113" stroke="#7289DA" stroke-width="2" fill="#F4F6FC"></path>
                        <path d="M17,1.09677336 C17,0.542040316 17.3147964,0.407097791 17.7133118,0.80556379 L23.1952031,6.28677654 C23.5891543,6.68067898 23.4552279,7 22.9039575,7 L18.0045574,7 C17.4497557,7 17,6.54676916 17,5.99556698 L17,1.09677336 Z" id="Path" stroke="#7289DA" stroke-width="2" fill="#F4F6FC" filter="url(#filter-1)"></path>
                        <path d="M4,0 L5,0 L5,36 L4,36 L4,0 Z M0,3 L4,3 L4,4 L0,4 L0,3 Z M0,7 L4,7 L4,8 L0,8 L0,7 Z M0,11 L4,11 L4,12 L0,12 L0,11 Z M0,15 L4,15 L4,16 L0,16 L0,15 Z M0,19 L4,19 L4,20 L0,20 L0,19 Z M0,23 L4,23 L4,24 L0,24 L0,23 Z M0,31 L4,31 L4,32 L0,32 L0,31 Z M0,27 L4,27 L4,28 L0,28 L0,27 Z" id="Rectangle-611" fill="#7289DA"></path>
                        <path d="M23,9 L24,9 L24,36 L23,36 L23,9 Z M19,11 L23,11 L23,12 L19,12 L19,11 Z M19,15 L23,15 L23,16 L19,16 L19,15 Z M19,19 L23,19 L23,20 L19,20 L19,19 Z M19,23 L23,23 L23,24 L19,24 L19,23 Z M19,31 L23,31 L23,32 L19,32 L19,31 Z M19,27 L23,27 L23,28 L19,28 L19,27 Z" id="Rectangle-611" fill="#7289DA" transform="translate(21.500000, 22.500000) scale(-1, 1) translate(-21.500000, -22.500000) "></path>
                    </g>
                    <path d="M14.5039397,17.3759145 C15.1656928,17.7205743 15.165014,18.2797318 14.5039397,18.6240381 L10.1982101,20.8665842 C9.53645691,21.211244 9,20.8649547 9,20.0946469 L9,15.9053057 C9,15.1343167 9.53713571,14.7890621 10.1982101,15.1333684 L14.5039397,17.3759145 L14.5039397,17.3759145 Z" id="Triangle-1" stroke="#7289DA" fill="#F4F6FC"></path>
                </g>
            </g>
        </g>
    </g>
</svg>