<?xml version="1.0" encoding="UTF-8" standalone="no"?>
<svg width="90px" height="90px" viewBox="0 0 90 90" version="1.1" xmlns="http://www.w3.org/2000/svg" xmlns:xlink="http://www.w3.org/1999/xlink" xmlns:sketch="http://www.bohemiancoding.com/sketch/ns">
    <!-- Generator: Sketch 3.5.2 (25235) - http://www.bohemiancoding.com/sketch -->
    <title>No search results emoji</title>
    <defs></defs>
    <g id="General-Playground" stroke="none" stroke-width="1" fill="none" fill-rule="evenodd" sketch:type="MSPage">
        <g id="empty-emoji-light" sketch:type="MSArtboardGroup">
            <g id="Page-1" sketch:type="MSLayerGroup" transform="translate(4.000000, 5.000000)">
                <path d="M80,40 C80,62.091 62.091,80 40,80 C17.909,80 0,62.091 0,40 C0,17.909 17.909,0 40,0 C62.091,0 80,17.909 80,40" id="Fill-1" fill="#FFFFFF" sketch:type="MSShapeGroup"></path>
                <path d="M80,40 C80,62.091 62.091,80 40,80 C17.909,80 0,62.091 0,40 C0,17.909 17.909,0 40,0 C62.091,0 80,17.909 80,40 L80,40 Z" id="Stroke-3" stroke="#C7D0D7" stroke-width="4" stroke-linecap="round" stroke-linejoin="round" sketch:type="MSShapeGroup"></path>
                <path d="M22,41.6416 C22,44.4026 19.761,46.6416 17,46.6416 C14.239,46.6416 12,44.4026 12,41.6416 C12,38.8806 14.239,36.6416 17,36.6416 C19.761,36.6416 22,38.8806 22,41.6416" id="Fill-5" fill="#C7D0D7" sketch:type="MSShapeGroup"></path>
                <path d="M68,41.6416 C68,44.4026 65.761,46.6416 63,46.6416 C60.239,46.6416 58,44.4026 58,41.6416 C58,38.8806 60.239,36.6416 63,36.6416 C65.761,36.6416 68,38.8806 68,41.6416" id="Fill-7" fill="#C7D0D7" sketch:type="MSShapeGroup"></path>
                <path d="M50,59.4827 L50,59.4827 C44.154,54.8057 35.846,54.8057 30,59.4827 L30,59.4827" id="Stroke-9" stroke="#C7D0D7" stroke-width="4" stroke-linecap="round" stroke-linejoin="round" sketch:type="MSShapeGroup"></path>
                <path d="M81.2071,66.9749 C81.2071,72.6829 76.5801,77.3099 70.8721,77.3099 C65.1651,77.3099 60.5381,72.6829 60.5381,66.9749 C60.5381,61.2669 70.8721,48.6399 70.8721,48.6399 C70.8721,48.6399 81.2071,61.2669 81.2071,66.9749" id="Fill-11" fill="#FFFFFF" sketch:type="MSShapeGroup"></path>
                <path d="M81.2071,66.9749 C81.2071,72.6829 76.5801,77.3099 70.8721,77.3099 C65.1651,77.3099 60.5381,72.6829 60.5381,66.9749 C60.5381,61.2669 70.8721,48.6399 70.8721,48.6399 C70.8721,48.6399 81.2071,61.2669 81.2071,66.9749 L81.2071,66.9749 Z" id="Stroke-13" stroke="#C7D0D7" stroke-width="4" stroke-linecap="round" stroke-linejoin="round" sketch:type="MSShapeGroup"></path>
            </g>
        </g>
    </g>
</svg>
