<svg width="144" height="111" viewBox="0 0 144 111" fill="none" xmlns="http://www.w3.org/2000/svg">
<path d="M0 8C0 3.58172 3.58172 0 8 0H136C140.418 0 144 3.58172 144 8V111H0V8Z" fill="#18191C"/>
<mask id="mask0" mask-type="alpha" maskUnits="userSpaceOnUse" x="48" y="16" width="48" height="48">
<circle cx="72" cy="40" r="24" fill="#C4C4C4"/>
</mask>
<g mask="url(#mask0)">
<path d="M95.9984 16H48V63.9984H95.9984V16Z" fill="#427EFC"/>
<path d="M93.143 22.0271C92.7672 23.2389 91.9742 24.317 91.0475 25.1642C90.8897 25.3086 90.7275 25.4471 90.5605 25.5803C91.317 25.7741 92.081 25.9352 92.8542 26.0533C93.8651 26.2079 94.9421 26.3019 95.9982 26.2337V22.5184C95.2836 22.3562 94.5674 22.2161 93.848 22.1162C93.6155 22.0845 93.3803 22.0539 93.143 22.0271Z" fill="#9AFFD8"/>
<path d="M90.1645 26.5834C89.9063 26.5157 89.6491 26.4432 89.393 26.3691C88.934 26.6258 88.4513 26.8362 87.9482 26.9903C88.5893 28.0378 89.3662 29.0235 90.0738 29.9948C91.5449 32.0141 93.0563 34.0043 94.5059 36.0397C95.0224 36.765 95.5523 37.521 95.999 38.3161V27.3151C94.0409 27.4381 92.0125 27.0676 90.1645 26.5834Z" fill="#9AFFD8"/>
<path d="M87.8634 49.6612C87.5348 49.7138 87.2207 49.7879 86.9131 49.8684C87.1703 50.8289 87.3974 51.7921 87.5949 52.7526C88.1028 55.2234 88.4099 57.7356 88.5098 60.2557C88.5404 61.0316 88.746 62.6063 88.672 63.9979H95.9984V45.4353C95.8341 45.6823 95.6559 45.918 95.4664 46.1402C93.6012 48.3265 90.601 49.2231 87.8634 49.6612Z" fill="#9AFFD8"/>
<path d="M92.2986 17.4727C93.2054 18.6512 93.5785 20.1137 93.2628 21.5746C93.2295 21.7271 93.1893 21.8779 93.1431 22.0272C93.3804 22.054 93.6156 22.0846 93.848 22.1168C94.568 22.2167 95.2842 22.3568 95.9983 22.519V16H90.8779C91.4019 16.4451 91.8846 16.9347 92.2986 17.4727ZM93.9044 17.2349C93.9049 17.0797 93.9441 16.9353 94.0214 16.801C94.066 16.7431 94.1111 16.6851 94.1557 16.6271C94.2631 16.5208 94.3892 16.4472 94.5347 16.4064C94.611 16.3962 94.6872 16.386 94.7629 16.3758C94.881 16.3715 94.9916 16.3962 95.0936 16.4499C95.1999 16.4848 95.2923 16.5439 95.3701 16.6276C95.4539 16.7055 95.5129 16.7978 95.5478 16.9041C95.6015 17.0067 95.6262 17.1167 95.6219 17.2349V17.3422C95.6214 17.4974 95.5822 17.6418 95.5049 17.776C95.4603 17.834 95.4152 17.892 95.3707 17.95C95.2633 18.0563 95.1371 18.1299 94.9916 18.1707C94.9154 18.1809 94.8391 18.1911 94.7634 18.2013C94.6453 18.2056 94.5347 18.1809 94.4327 18.1272C94.3264 18.0923 94.2341 18.0332 94.1562 17.9495C94.0725 17.8716 94.0134 17.7793 93.9785 17.673C93.9248 17.5704 93.9001 17.4604 93.9044 17.3422V17.2349Z" fill="#FAFFA0"/>
<path d="M90.0733 29.9948C89.3662 29.0241 88.5887 28.0383 87.9477 26.9903C87.6068 27.0945 87.2567 27.1734 86.8986 27.2228C86.585 27.2663 86.271 27.2878 85.9574 27.2931C85.9574 27.3049 85.9585 27.3162 85.9585 27.328V27.4354C85.958 27.5906 85.9188 27.735 85.8414 27.8692C85.7969 27.9272 85.7518 27.9852 85.7072 28.0432C85.5998 28.1495 85.4737 28.223 85.3282 28.2644C85.2519 28.2746 85.1757 28.2848 85.1 28.295C84.9819 28.2993 84.8713 28.2746 84.7693 28.2209C84.663 28.186 84.5706 28.1269 84.4928 28.0432C84.409 27.9653 84.35 27.873 84.3151 27.7667C84.2614 27.6641 84.2367 27.5541 84.241 27.4359V27.3286C84.241 27.2781 84.2458 27.2282 84.2544 27.1798C83.8372 27.1219 83.4217 27.0467 83.0088 26.9624C82.3044 28.2993 81.2526 29.4074 80.4746 30.776C80.4129 30.885 80.3555 30.9988 80.3077 31.1158C80.5155 31.0535 80.7442 31.0686 80.9294 31.1915C81.2526 31.4057 81.4432 31.7531 81.3444 32.1493C81.259 32.4924 80.9579 32.6905 80.632 32.7453C80.7715 32.9144 80.9235 33.0776 81.0588 33.2451C81.2027 33.4234 81.331 33.6135 81.4421 33.8137C81.6703 34.2239 81.8255 34.7178 81.6682 35.1597C81.4255 35.8416 80.771 35.7041 80.1992 35.6451C80.9101 36.583 81.5726 37.5634 82.1884 38.5781C82.932 38.9464 83.7175 39.1607 84.5626 39.1129C85.1505 39.0796 85.1467 39.9923 84.5626 40.0256C83.9988 40.0578 83.4496 39.9853 82.9191 39.8366C83.0351 40.0455 83.1489 40.2559 83.2611 40.4669C83.3304 40.4266 83.4088 40.4025 83.4888 40.4014C83.7476 40.3982 84.0101 40.4385 84.2544 40.5249C84.4955 40.6108 84.6313 40.8304 84.5733 41.0865C84.5212 41.3147 84.2372 41.4854 84.0117 41.4054C83.914 41.3705 83.8168 41.3506 83.717 41.3249C83.711 41.3238 83.7068 41.3233 83.7035 41.3227C83.703 41.3227 83.7019 41.3227 83.7014 41.3227C84.2394 42.3981 84.7306 43.4998 85.1762 44.6193C85.1966 44.5935 85.2186 44.5688 85.2433 44.5462C85.3212 44.4625 85.4135 44.4034 85.5198 44.3685C85.6224 44.3148 85.7325 44.2901 85.8506 44.2944H85.958C86.1131 44.295 86.2575 44.3342 86.3918 44.4115C86.4497 44.456 86.5077 44.5011 86.5657 44.5457C86.672 44.6531 86.7456 44.7793 86.7864 44.9248C86.7966 45.001 86.8068 45.0772 86.817 45.1529C86.8213 45.271 86.7966 45.3817 86.7429 45.4837C86.708 45.59 86.6489 45.6823 86.5652 45.7602C86.4873 45.8439 86.395 45.903 86.2887 45.9379C86.1861 45.9916 86.0761 46.0163 85.958 46.012H85.8506C85.799 46.012 85.7486 46.0071 85.6992 45.998C86.1598 47.2747 86.5641 48.5687 86.9126 49.8679C87.2202 49.7869 87.5343 49.7133 87.8629 49.6607C90.601 49.2226 93.6012 48.326 95.4658 46.1392C95.6553 45.9169 95.8336 45.6812 95.9979 45.4343V38.315C95.5512 37.5194 95.0213 36.764 94.5048 36.0386C93.0562 34.0043 91.5449 32.0146 90.0733 29.9948ZM84.1234 32.8092C84.0788 32.8672 84.0337 32.9252 83.9892 32.9831C83.9113 33.0669 83.819 33.126 83.7127 33.1609C83.6101 33.2145 83.5 33.2392 83.3819 33.2349C83.2638 33.2392 83.1532 33.2145 83.0512 33.1609C82.9449 33.126 82.8526 33.0669 82.7747 32.9831C82.7387 32.9472 82.7033 32.9117 82.6673 32.8758C82.561 32.7684 82.4875 32.6422 82.4467 32.4967C82.4365 32.4205 82.4263 32.3442 82.4161 32.2685C82.4166 32.1134 82.4558 31.9689 82.5331 31.8347C82.5777 31.7767 82.6228 31.7188 82.6673 31.6608C82.7452 31.577 82.8375 31.518 82.9438 31.4831C83.0464 31.4294 83.1564 31.4047 83.2746 31.409C83.3927 31.4047 83.5033 31.4294 83.6053 31.4831C83.7116 31.518 83.8039 31.577 83.8818 31.6608C83.9178 31.6967 83.9532 31.7322 83.9892 31.7681C84.0955 31.8755 84.169 32.0017 84.2098 32.1472C84.22 32.2234 84.2302 32.2997 84.2404 32.3754C84.2399 32.5305 84.2007 32.675 84.1234 32.8092ZM86.0659 38.1738C85.5843 38.1738 85.2278 37.7803 85.2068 37.3148C85.1859 36.8509 85.6165 36.4558 86.0659 36.4558C86.5475 36.4558 86.904 36.8493 86.9249 37.3148C86.9458 37.7787 86.5152 38.1738 86.0659 38.1738ZM89.3946 33.8787C89.8762 33.8787 90.2327 34.2722 90.2536 34.7377C90.2746 35.2016 89.844 35.5967 89.3946 35.5967C88.913 35.5967 88.5565 35.2032 88.5356 34.7377C88.5146 34.2738 88.9452 33.8787 89.3946 33.8787ZM89.9449 42.0089C89.8687 42.0191 89.7925 42.0293 89.7168 42.0395C89.5986 42.0438 89.488 42.0191 89.386 41.9654C89.2797 41.9305 89.1874 41.8714 89.1095 41.7877C89.0827 41.7624 89.0591 41.7356 89.037 41.7071C89.0252 41.698 89.014 41.6894 89.0021 41.6803C88.8958 41.5729 88.8223 41.4467 88.7815 41.3013C88.7713 41.225 88.7611 41.1488 88.7509 41.0731C88.7466 40.955 88.7713 40.8444 88.825 40.7423C88.8599 40.636 88.9189 40.5437 89.0027 40.4658C89.0805 40.3821 89.1729 40.323 89.2792 40.2881C89.3817 40.2344 89.4918 40.2097 89.6099 40.214C89.6212 40.213 89.6325 40.2124 89.6443 40.2135C89.6845 40.2178 89.7248 40.2232 89.7645 40.2296C89.8037 40.2344 89.8429 40.2393 89.8816 40.2452C89.8864 40.2463 89.8907 40.2468 89.8955 40.2484C90.0389 40.2881 90.2021 40.3762 90.3047 40.4862C90.331 40.5142 90.3653 40.5641 90.3782 40.5802C90.3981 40.606 90.4308 40.6414 90.4507 40.6752C90.4512 40.6768 90.4523 40.6785 90.4528 40.6795C90.4818 40.7477 90.5108 40.8164 90.5393 40.8846C90.5409 40.8889 90.5425 40.8927 90.5436 40.897C90.5446 40.9018 90.5457 40.9061 90.5463 40.9109C90.5565 40.9872 90.5667 41.0634 90.5769 41.1391L90.5774 41.145C90.5779 41.1563 90.5779 41.1676 90.5769 41.1794C90.5763 41.3345 90.5371 41.479 90.4598 41.6132C90.4153 41.6712 90.3702 41.7292 90.3256 41.7871C90.2171 41.8945 90.0904 41.9681 89.9449 42.0089ZM91.2201 47.0863C90.7385 47.0863 90.382 46.6927 90.361 46.2273C90.3401 45.7634 90.7707 45.3682 91.2201 45.3682C91.7017 45.3682 92.0581 45.7618 92.0791 46.2273C92.1 46.6911 91.6694 47.0863 91.2201 47.0863Z" fill="#FAFFA0"/>
<path d="M50.859 62.4107C50.7827 62.4209 50.7065 62.4311 50.6308 62.4413C50.5127 62.4456 50.4021 62.4209 50.3001 62.3672C50.1938 62.3323 50.1014 62.2733 50.0236 62.1895C49.9398 62.1116 49.8807 62.0193 49.8458 61.913C49.7954 61.8169 49.7712 61.7127 49.7723 61.6027C49.1747 61.4964 48.5831 61.3595 48 61.1914V63.9983H50.9862C51.0533 63.4045 51.1263 62.8118 51.2063 62.2196C51.1059 62.3098 50.9905 62.3736 50.859 62.4107Z" fill="#FAFFA0"/>
<path d="M67.3433 23.8665C66.3028 24.186 65.2709 24.5731 64.3125 25.0933C65.0019 25.5298 65.68 25.9846 66.3978 26.3738C67.1258 26.7684 67.9279 27.1233 68.7687 27.1507C69.6911 27.1813 70.4454 26.7411 71.1558 26.1945C71.2186 26.1462 71.2792 26.0963 71.341 26.0469C71.1595 25.8879 71.0452 25.6528 71.0333 25.3951C71.0124 24.9312 71.443 24.536 71.8924 24.536C72.1898 24.536 72.4389 24.6864 72.5914 24.9103C72.8561 24.6472 73.117 24.3793 73.3774 24.1114C73.0193 23.9938 72.6591 23.8848 72.2945 23.7892C70.6371 23.3559 68.984 23.3629 67.3433 23.8665ZM68.1336 26.1473C67.652 26.1473 67.2955 25.7537 67.2745 25.2882C67.2536 24.8243 67.6842 24.4292 68.1336 24.4292C68.6152 24.4292 68.9717 24.8227 68.9926 25.2882C69.0136 25.7521 68.583 26.1473 68.1336 26.1473Z" fill="#FAFFA0"/>
<path d="M50.6307 60.616C50.7489 60.6117 50.8595 60.6364 50.9615 60.6901C50.9743 60.6944 50.9862 60.6998 50.999 60.7052C51.1381 60.7213 51.2772 60.7352 51.4162 60.7481C51.9408 57.3061 52.679 53.8968 53.6228 50.545C54.0395 49.0669 54.477 47.5636 54.9662 46.071C54.6327 45.9524 54.4051 45.6297 54.3885 45.2608C54.3675 44.797 54.7981 44.4018 55.2475 44.4018C55.3447 44.4018 55.4365 44.4184 55.5218 44.448C55.7049 43.9379 55.895 43.4311 56.0942 42.9286C54.7761 42.7133 53.2808 42.5935 52.1432 43.3457C51.1649 43.9922 50.6409 45.3349 50.795 46.4839C50.824 46.4463 50.853 46.4087 50.882 46.3717C50.9894 46.2654 51.1156 46.1918 51.2611 46.1505C51.3373 46.1403 51.4135 46.1301 51.4892 46.1199C51.6073 46.1156 51.7179 46.1403 51.82 46.194C51.9263 46.2289 52.0186 46.2879 52.0965 46.3717C52.1802 46.4495 52.2393 46.5419 52.2742 46.6482C52.3279 46.7507 52.3526 46.8608 52.3483 46.9789V47.0863C52.3477 47.2414 52.3085 47.3859 52.2312 47.5201C52.1867 47.5781 52.1416 47.6361 52.097 47.694C51.9896 47.8004 51.8634 47.8739 51.7179 47.9152C51.6417 47.9254 51.5655 47.9356 51.4898 47.9458C51.377 47.9501 51.2718 47.9271 51.1741 47.8787C51.501 48.7898 51.8887 49.6865 51.7985 50.6765C51.6938 51.8228 51.0092 52.7419 50.0122 53.2863C49.3894 53.6262 48.7022 53.8313 48.0005 53.9505V60.0684C48.8091 60.3202 49.6369 60.5108 50.4804 60.6364C50.5298 60.6294 50.5803 60.623 50.6307 60.616ZM49.5484 57.2132C49.4421 57.1783 49.3497 57.1192 49.2719 57.0355C49.1881 56.9576 49.129 56.8653 49.0941 56.759C49.0405 56.6564 49.0158 56.5464 49.0201 56.4282V56.3209C49.0206 56.1657 49.0598 56.0213 49.1371 55.8871C49.1817 55.8291 49.2268 55.7711 49.2713 55.7131C49.3787 55.6068 49.5049 55.5332 49.6504 55.4919C49.7266 55.4817 49.8028 55.4715 49.8785 55.4613C49.9967 55.457 50.1073 55.4817 50.2093 55.5354C50.3156 55.5703 50.4079 55.6293 50.4858 55.7131C50.5695 55.791 50.6286 55.8833 50.6635 55.9896C50.7172 56.0922 50.7419 56.2022 50.7376 56.3203V56.4277C50.737 56.5829 50.6978 56.7273 50.6205 56.8615C50.576 56.9195 50.5309 56.9775 50.4863 57.0355C50.3789 57.1418 50.2528 57.2153 50.1073 57.2567C50.031 57.2669 49.9548 57.2771 49.8791 57.2873C49.761 57.2916 49.6504 57.2669 49.5484 57.2132Z" fill="#FAFFA0"/>
<path d="M50.6308 60.616C50.5804 60.6229 50.5299 60.6294 50.48 60.6364C50.4945 60.6385 50.5084 60.6412 50.5229 60.6433C50.6813 60.6664 50.8402 60.6868 50.9992 60.7051C50.9868 60.7002 50.9745 60.6943 50.9616 60.69C50.8596 60.6364 50.749 60.6117 50.6308 60.616Z" fill="#9AFFD8"/>
<path d="M49.8461 61.9131C49.881 62.0194 49.94 62.1118 50.0238 62.1896C50.1016 62.2734 50.194 62.3324 50.3003 62.3673C50.4028 62.421 50.5129 62.4457 50.631 62.4414C50.7073 62.4312 50.7835 62.421 50.8592 62.4108C50.9907 62.3738 51.1062 62.3099 51.206 62.2197C51.2248 62.0812 51.2436 61.9426 51.2624 61.8041C50.7631 61.7585 50.2654 61.6908 49.772 61.6028C49.7714 61.7134 49.7956 61.817 49.8461 61.9131Z" fill="#9AFFD8"/>
<path d="M50.4863 57.0353C50.5308 56.9774 50.5759 56.9194 50.6205 56.8614C50.6983 56.7272 50.7375 56.5827 50.7375 56.4276V56.3202C50.7418 56.2021 50.7171 56.0915 50.6634 55.9895C50.6285 55.8832 50.5695 55.7908 50.4857 55.713C50.4079 55.6292 50.3155 55.5702 50.2092 55.5353C50.1067 55.4816 49.9966 55.4569 49.8785 55.4612C49.8023 55.4714 49.726 55.4816 49.6503 55.4918C49.5048 55.5326 49.3787 55.6061 49.2713 55.713C49.2267 55.771 49.1816 55.8289 49.1371 55.8869C49.0592 56.0212 49.02 56.1656 49.02 56.3207V56.4281C49.0157 56.5462 49.0404 56.6568 49.0941 56.7588C49.129 56.8651 49.1881 56.9575 49.2718 57.0353C49.3497 57.1191 49.442 57.1782 49.5483 57.2131C49.6509 57.2667 49.7609 57.2914 49.879 57.2872C49.9553 57.2769 50.0315 57.2667 50.1072 57.2565C50.2527 57.2157 50.3794 57.1422 50.4863 57.0353Z" fill="#9AFFD8"/>
<path d="M51.174 47.878C51.2722 47.9263 51.3775 47.9494 51.4897 47.9451C51.5659 47.9349 51.6421 47.9247 51.7178 47.9145C51.8633 47.8737 51.9895 47.8001 52.0969 47.6933C52.1415 47.6353 52.1866 47.5773 52.2311 47.5194C52.309 47.3851 52.3482 47.2407 52.3482 47.0855V46.9782C52.3525 46.86 52.3278 46.7494 52.2741 46.6474C52.2392 46.5411 52.1801 46.4488 52.0964 46.3709C52.0185 46.2872 51.9262 46.2281 51.8199 46.1932C51.7173 46.1395 51.6072 46.1148 51.4891 46.1191C51.4129 46.1293 51.3366 46.1395 51.2609 46.1497C51.1154 46.1905 50.9893 46.2641 50.8819 46.3709C50.8529 46.4085 50.8239 46.4461 50.7949 46.4831C50.7965 46.495 50.7976 46.5062 50.7992 46.518C50.8679 46.983 51.014 47.4324 51.174 47.878Z" fill="#9AFFD8"/>
<path d="M54.3889 45.2606C54.4056 45.6295 54.6332 45.9522 54.9666 46.0708C55.1449 45.5275 55.3296 44.9863 55.5228 44.4478C55.4375 44.4183 55.3457 44.4016 55.2485 44.4016C54.7986 44.4016 54.368 44.7968 54.3889 45.2606Z" fill="#9AFFD8"/>
<path d="M83.9886 31.7681C83.9527 31.7321 83.9172 31.6967 83.8812 31.6607C83.8034 31.577 83.7111 31.5179 83.6047 31.483C83.5022 31.4293 83.3921 31.4046 83.274 31.4089C83.1559 31.4046 83.0453 31.4293 82.9433 31.483C82.837 31.5179 82.7446 31.577 82.6668 31.6607C82.6222 31.7187 82.5771 31.7767 82.5326 31.8347C82.4547 31.9689 82.4155 32.1133 82.4155 32.2685C82.4257 32.3447 82.4359 32.421 82.4461 32.4967C82.4869 32.6422 82.5605 32.7683 82.6668 32.8757C82.7028 32.9117 82.7382 32.9471 82.7742 32.9831C82.852 33.0669 82.9444 33.1259 83.0507 33.1608C83.1532 33.2145 83.2633 33.2392 83.3814 33.2349C83.4995 33.2392 83.6101 33.2145 83.7121 33.1608C83.8184 33.1259 83.9108 33.0669 83.9886 32.9831C84.0332 32.9251 84.0783 32.8671 84.1229 32.8091C84.2007 32.6749 84.2399 32.5305 84.2399 32.3753C84.2297 32.2991 84.2195 32.2229 84.2093 32.1472C84.169 32.0017 84.0955 31.8749 83.9886 31.7681Z" fill="#9AFFD8"/>
<path d="M71.892 24.5366C71.4426 24.5366 71.012 24.9318 71.033 25.3957C71.0442 25.6534 71.1591 25.8885 71.3406 26.0474C71.7798 25.6936 72.191 25.3087 72.591 24.9108C72.4386 24.687 72.1894 24.5366 71.892 24.5366Z" fill="#9AFFD8"/>
<path d="M68.1337 24.4292C67.6843 24.4292 67.2537 24.8244 67.2747 25.2882C67.2956 25.7537 67.6521 26.1473 68.1337 26.1473C68.5831 26.1473 69.0137 25.7521 68.9927 25.2882C68.9718 24.8227 68.6153 24.4292 68.1337 24.4292Z" fill="#9AFFD8"/>
<path d="M89.3944 35.5967C89.8438 35.5967 90.2744 35.2016 90.2535 34.7377C90.2325 34.2722 89.876 33.8787 89.3944 33.8787C88.9451 33.8787 88.5145 34.2738 88.5354 34.7377C88.5563 35.2032 88.9128 35.5967 89.3944 35.5967Z" fill="#9AFFD8"/>
<path d="M86.0658 36.4556C85.6164 36.4556 85.1858 36.8507 85.2068 37.3146C85.2277 37.7801 85.5842 38.1736 86.0658 38.1736C86.5152 38.1736 86.9458 37.7785 86.9249 37.3146C86.9039 36.8491 86.5474 36.4556 86.0658 36.4556Z" fill="#9AFFD8"/>
<path d="M84.2536 27.1797C84.2451 27.228 84.2408 27.2774 84.2402 27.3284V27.4358C84.2359 27.5539 84.2606 27.6645 84.3143 27.7665C84.3492 27.8728 84.4083 27.9652 84.492 28.043C84.5699 28.1268 84.6622 28.1858 84.7685 28.2207C84.8711 28.2744 84.9811 28.2991 85.0993 28.2948C85.1755 28.2846 85.2517 28.2744 85.3274 28.2642C85.4729 28.2234 85.5991 28.1499 85.7065 28.043C85.751 27.985 85.7961 27.927 85.8407 27.8691C85.9186 27.7348 85.9577 27.5904 85.9577 27.4352V27.3279C85.9583 27.3161 85.9572 27.3048 85.9567 27.293C85.3876 27.3037 84.819 27.2581 84.2536 27.1797Z" fill="#9AFFD8"/>
<path d="M90.576 41.1803C90.577 41.1691 90.5776 41.1578 90.5765 41.146L90.576 41.1401C90.5658 41.0638 90.5556 40.9876 90.5454 40.9119C90.5443 40.9071 90.5438 40.9028 90.5427 40.8979C90.5416 40.8936 90.54 40.8899 90.5384 40.8856C90.5094 40.8174 90.4804 40.7487 90.4519 40.6805C90.4514 40.6789 90.4503 40.6773 90.4498 40.6762C90.4299 40.6424 90.3972 40.6064 90.3773 40.5812C90.365 40.5651 90.3301 40.5151 90.3038 40.4872C90.2018 40.3771 90.038 40.2886 89.8946 40.2494C89.8898 40.2483 89.8855 40.2472 89.8807 40.2461C89.8415 40.2402 89.8028 40.2349 89.7636 40.2306C89.7239 40.2241 89.6836 40.2188 89.6434 40.2145C89.6321 40.2139 89.6208 40.2139 89.609 40.215C89.4909 40.2107 89.3803 40.2354 89.2783 40.2891C89.172 40.324 89.0796 40.383 89.0018 40.4668C88.918 40.5447 88.859 40.637 88.8241 40.7433C88.7704 40.8459 88.7457 40.9559 88.75 41.074C88.7602 41.1503 88.7704 41.2265 88.7806 41.3022C88.8214 41.4477 88.895 41.5739 89.0013 41.6813C89.0131 41.6904 89.0243 41.699 89.0362 41.7081C89.0582 41.736 89.0818 41.7634 89.1086 41.7886C89.1865 41.8724 89.2788 41.9315 89.3851 41.9664C89.4877 42.02 89.5977 42.0447 89.7159 42.0404C89.7921 42.0302 89.8683 42.02 89.944 42.0098C90.0895 41.969 90.2157 41.8955 90.3231 41.7886C90.3677 41.7307 90.4128 41.6727 90.4573 41.6147C90.5362 41.4799 90.5754 41.3355 90.576 41.1803Z" fill="#9AFFD8"/>
<path d="M85.8511 46.0124H85.9585C86.0766 46.0167 86.1872 45.992 86.2892 45.9383C86.3955 45.9034 86.4879 45.8444 86.5657 45.7606C86.6495 45.6828 86.7085 45.5904 86.7434 45.4841C86.7971 45.3816 86.8218 45.2715 86.8175 45.1534C86.8073 45.0772 86.7971 45.0009 86.7869 44.9252C86.7461 44.7797 86.6725 44.6536 86.5662 44.5462C86.5083 44.5016 86.4503 44.4565 86.3923 44.412C86.2581 44.3341 86.1136 44.2949 85.9585 44.2949H85.8511C85.733 44.2906 85.6224 44.3153 85.5204 44.369C85.4141 44.4039 85.3217 44.463 85.2439 44.5467C85.2192 44.5698 85.1972 44.5945 85.1768 44.6197C85.3588 45.0766 85.5333 45.5367 85.7002 45.999C85.7491 46.0076 85.7996 46.0124 85.8511 46.0124Z" fill="#9AFFD8"/>
<path d="M91.2201 45.3682C90.7707 45.3682 90.3401 45.7633 90.3611 46.2272C90.382 46.6927 90.7385 47.0862 91.2201 47.0862C91.6695 47.0862 92.1001 46.6911 92.0791 46.2272C92.0582 45.7617 91.7017 45.3682 91.2201 45.3682Z" fill="#9AFFD8"/>
<path d="M94.1561 17.9494C94.2339 18.0331 94.3263 18.0922 94.4326 18.1271C94.5351 18.1808 94.6452 18.2055 94.7633 18.2012C94.8396 18.191 94.9158 18.1808 94.9915 18.1706C95.137 18.1298 95.2632 18.0562 95.3705 17.9499C95.4151 17.8919 95.4602 17.8339 95.5048 17.7759C95.5826 17.6417 95.6218 17.4973 95.6218 17.3421V17.2348C95.6261 17.1166 95.6014 17.006 95.5477 16.904C95.5128 16.7977 95.4538 16.7054 95.37 16.6275C95.2922 16.5438 95.1998 16.4847 95.0935 16.4498C94.991 16.3961 94.8809 16.3714 94.7628 16.3757C94.6865 16.3859 94.6103 16.3961 94.5346 16.4063C94.3891 16.4471 94.2629 16.5207 94.1556 16.627C94.111 16.685 94.0659 16.743 94.0213 16.8009C93.9435 16.9352 93.9043 17.0796 93.9043 17.2348V17.3421C93.9 17.4602 93.9247 17.5708 93.9784 17.6729C94.0127 17.7797 94.0723 17.8715 94.1561 17.9494Z" fill="#9AFFD8"/>
<path d="M58.7019 35.8494C58.4936 35.3254 58.6181 34.7155 58.8968 34.2253C59.176 33.7351 59.5937 33.3411 60.0071 32.9572C60.0817 32.8879 60.158 32.816 60.2143 32.7322C59.853 32.6581 59.598 32.3049 59.5819 31.9408C59.5668 31.6096 59.7837 31.3395 60.0672 31.2128C59.5824 30.1932 58.4796 29.8373 57.6039 28.8666C57.0558 28.2588 56.7089 27.5023 56.7793 26.6696C56.8389 25.9598 57.1889 25.3209 57.7205 24.8522C58.8001 23.8987 60.4742 23.5105 61.8685 23.867C62.6443 24.0657 63.3621 24.5011 64.0359 24.9199C64.1283 24.9773 64.2201 25.0353 64.3119 25.0933C65.2708 24.573 66.3022 24.1854 67.3427 23.8665C68.9834 23.3629 70.6365 23.3559 72.2939 23.7902C72.6579 23.8858 73.0187 23.9948 73.3768 24.1124C74.0206 23.4515 74.6686 22.7948 75.3999 22.23C75.7741 21.9406 76.1725 21.67 76.5923 21.4429C75.9555 21.218 75.315 21.0021 74.6686 20.7992C72.2735 20.0459 69.8162 19.4092 67.3121 19.1606C64.9025 18.9217 62.4349 19.0366 60.1376 19.8564C57.8155 20.6854 55.9449 22.2885 54.3407 24.122C52.8186 25.861 51.2589 28.1305 51.3072 30.5433C51.3529 32.8144 53.1289 34.4879 54.7917 35.7952C55.6679 36.484 56.5892 37.1133 57.4746 37.7903C57.7382 37.9916 57.9927 38.2005 58.2423 38.4136C58.3266 38.2671 58.412 38.121 58.4995 37.9761C58.8651 37.3688 59.2511 36.7197 59.6651 36.0712C59.1754 36.0658 58.7653 36.0083 58.7019 35.8494Z" fill="#427EFC"/>
<path d="M51.798 50.6753C51.8882 49.6858 51.5011 48.7887 51.1736 47.8776C51.0136 47.432 50.8681 46.9831 50.7999 46.5182C50.7983 46.5064 50.7972 46.4951 50.7956 46.4833C50.6415 45.3343 51.1655 43.9915 52.1438 43.3451C53.2814 42.5935 54.7767 42.7127 56.0948 42.928C56.171 42.7352 56.2494 42.543 56.3283 42.3513C55.7442 42.5639 55.1165 42.7084 54.4964 42.71C53.908 42.7116 53.9091 41.7989 54.4964 41.7973C55.0725 41.7956 55.6459 41.6383 56.1817 41.4359C56.4105 41.3495 56.6408 41.2485 56.8588 41.1261C57.0231 40.7637 57.1932 40.4045 57.3693 40.0497C56.8083 40.193 56.2306 40.2569 55.6781 40.2408C55.0913 40.2236 55.0908 39.3109 55.6781 39.3281C56.2478 39.3447 56.8416 39.2669 57.4026 39.0902C56.8727 38.6575 56.3176 38.2548 55.7656 37.8522C53.9896 36.5566 52.0407 35.2079 50.9663 33.2284C49.7841 31.0513 50.2227 28.6369 51.3411 26.5312C52.4686 24.4083 54.1668 22.4878 56.0276 20.9749C57.9556 19.4071 60.2664 18.4719 62.7217 18.1385C65.2059 17.8007 67.726 18.0305 70.1759 18.5137C72.5517 18.9825 74.871 19.7008 77.1566 20.4933C77.4965 20.6109 77.8342 20.7333 78.1708 20.8589C78.9869 20.6941 79.8427 20.7086 80.6529 20.8949C81.5339 21.0973 82.4042 21.5327 83.0093 22.2172C83.2348 22.4728 83.405 22.7563 83.5263 23.058C83.9676 23.2438 84.4095 23.4279 84.853 23.6078C86.7133 24.3637 88.6118 25.0805 90.5623 25.5803C90.7288 25.4472 90.8914 25.3087 91.0493 25.1643C91.976 24.317 92.769 23.2384 93.1448 22.0272C93.191 21.8785 93.2312 21.7276 93.2645 21.5746C93.5807 20.1137 93.2071 18.6506 92.3003 17.4727C91.8847 16.9347 91.402 16.4451 90.878 16H48V53.9493C48.7017 53.8301 49.3889 53.625 50.0117 53.2852C51.0088 52.7408 51.6938 51.8216 51.798 50.6753Z" fill="#427EFC"/>
<path d="M83.0083 26.9624C83.4212 27.0467 83.8367 27.1218 84.2539 27.1798C84.8192 27.2582 85.3884 27.3038 85.958 27.2936C86.2715 27.2883 86.5851 27.2668 86.8992 27.2233C87.2578 27.1739 87.6079 27.095 87.9483 26.9908C88.4519 26.8367 88.9345 26.6263 89.3931 26.3696C87.4694 25.8123 85.601 25.08 83.7514 24.3096C83.7503 24.4561 83.7412 24.6033 83.7229 24.7509C83.6204 25.5836 83.3567 26.3009 83.0083 26.9624Z" fill="#427EFC"/>
<path d="M92.8545 26.0534C92.0814 25.9353 91.3174 25.7743 90.5609 25.5804C88.6104 25.0806 86.7114 24.3644 84.8516 23.6079C84.4081 23.4275 83.9662 23.2439 83.5249 23.0581C83.6827 23.4522 83.7547 23.8763 83.7515 24.3091C85.6011 25.079 87.4695 25.8113 89.3932 26.3691C89.6493 26.4432 89.9064 26.5157 90.1647 26.5834C92.0127 27.0676 94.0411 27.4376 95.9986 27.3146V26.2338C94.943 26.302 93.866 26.2081 92.8545 26.0534Z" fill="white"/>
<path d="M51.2627 61.8042C51.3121 61.452 51.3626 61.0992 51.4163 60.7476C51.2767 60.7352 51.1376 60.7207 50.9991 60.7046C50.8402 60.6864 50.6813 60.666 50.5229 60.6429C50.5084 60.6407 50.4944 60.6381 50.4799 60.6359C49.637 60.5103 48.8086 60.3197 48 60.0679V61.1911C48.5831 61.3591 49.1747 61.496 49.7723 61.6023C50.2662 61.6909 50.7634 61.758 51.2627 61.8042Z" fill="white"/>
<path d="M54.7918 35.7959C53.129 34.488 51.353 32.8145 51.3074 30.544C51.259 28.1306 52.8187 25.8617 54.3414 24.1217C55.9456 22.2882 57.8161 20.685 60.1382 19.856C62.435 19.0362 64.9026 18.9213 67.3127 19.1602C69.8168 19.4088 72.2742 20.0455 74.6693 20.7988C75.3151 21.0023 75.9562 21.2176 76.593 21.4425C77.0031 21.2208 77.4343 21.0399 77.8853 20.9239C77.9798 20.8997 78.0748 20.8783 78.1698 20.8589C77.8332 20.7333 77.4949 20.6109 77.1556 20.4933C74.8701 19.7009 72.5507 18.9825 70.1749 18.5138C67.7256 18.0306 65.2049 17.8008 62.7207 18.1385C60.2655 18.4724 57.9547 19.4072 56.0267 20.9749C54.1663 22.4879 52.4676 24.4084 51.3401 26.5312C50.2218 28.6369 49.7831 31.0514 50.9654 33.2285C52.0397 35.2075 53.9886 36.5561 55.7647 37.8522C56.3166 38.2549 56.8723 38.6575 57.4017 39.0903C57.603 39.0269 57.8 38.9507 57.9901 38.8616C58.0728 38.7112 58.1571 38.562 58.2424 38.4138C57.9928 38.2006 57.7378 37.9918 57.4747 37.7905C56.5893 37.114 55.668 36.4847 54.7918 35.7959Z" fill="white"/>
<path d="M72.4603 53.1484C72.5199 53.1103 72.579 53.0716 72.6385 53.0335C72.5757 53.0319 72.5135 53.0297 72.4512 53.0276C72.4598 53.0668 72.4635 53.1076 72.4603 53.1484Z" fill="#FFCD2E"/>
<path d="M71.3883 52.9673C71.3781 52.9667 71.3673 52.9657 71.3571 52.9646C71.3469 53.0043 71.3356 53.0441 71.3228 53.0838C71.3684 53.0473 71.4135 53.0102 71.4581 52.9721C71.435 52.9705 71.4113 52.9689 71.3883 52.9673Z" fill="#FFCD2E"/>
<path d="M88.51 60.2562C88.4107 57.7355 88.103 55.2239 87.5951 52.7531C87.3976 51.7926 87.1704 50.8294 86.9133 49.8689C86.5648 48.5696 86.1611 47.2752 85.6999 45.999C85.5329 45.5367 85.3584 45.0766 85.1764 44.6197C84.7308 43.5002 84.2395 42.398 83.7016 41.3231C83.6779 41.321 83.6538 41.3183 83.6296 41.3172C83.5824 41.3145 83.5357 41.3145 83.4884 41.3151C83.2329 41.3183 83.0428 41.103 83.0321 40.8587C83.0245 40.6934 83.1239 40.5479 83.2608 40.4679C83.1486 40.2563 83.0347 40.0464 82.9188 39.8376C82.4039 39.6931 81.9067 39.4768 81.4327 39.2126C80.9188 38.9264 81.3795 38.1388 81.8933 38.4244C81.991 38.4787 82.0893 38.5302 82.1881 38.5791C81.5722 37.5643 80.9097 36.584 80.1989 35.646C80.099 35.6358 80.0013 35.6278 79.9095 35.6272C78.9511 35.6202 77.9954 35.5794 77.0382 35.5408C75.0726 35.4608 73.1049 35.4533 71.1377 35.4753C68.8779 35.5005 66.6187 35.5655 64.3589 35.6052C63.3157 35.6235 62.4765 35.7045 61.4972 35.9316C61.291 35.9794 60.3907 36.082 59.6648 36.0723C59.2508 36.7214 58.8648 37.3705 58.4992 37.9772C58.4122 38.1222 58.3269 38.2677 58.242 38.4148C58.1567 38.563 58.0724 38.7122 57.9897 38.8626C58.5035 38.622 58.9668 38.287 59.3271 37.8516C59.4849 37.661 59.8108 37.69 59.9724 37.8516C60.1582 38.0373 60.1297 38.3074 59.9724 38.4969C59.3255 39.2776 58.3741 39.793 57.368 40.0502C57.1919 40.4051 57.0222 40.7642 56.8574 41.1266C57.1387 40.9688 57.3991 40.7766 57.609 40.5361C57.9956 40.092 58.6388 40.7401 58.2544 41.1814C57.7948 41.7086 57.136 42.0383 56.495 42.289C56.4397 42.3105 56.3838 42.3314 56.3275 42.3518C56.2485 42.5435 56.1701 42.7357 56.0939 42.9285C55.8947 43.431 55.7047 43.9378 55.5216 44.4479C55.3283 44.9864 55.1436 45.5276 54.9654 46.0709C54.4762 47.5629 54.0387 49.0668 53.622 50.5448C52.6776 53.8961 51.94 57.306 51.4154 60.748C51.3617 61.0997 51.3107 61.4519 51.2619 61.8046C51.2425 61.9431 51.2237 62.0816 51.2055 62.2202C51.126 62.8124 51.0525 63.4051 50.9854 63.9989H53.5603C53.5764 63.9785 53.593 63.9581 53.6086 63.9382C54.8902 62.3361 56.1089 60.6438 57.5564 59.1846C58.9459 57.7833 60.3821 56.4099 61.8575 55.0999C63.1852 53.9214 64.5913 52.7665 66.1188 51.8382C65.6216 51.6449 65.132 51.4227 64.6756 51.1521C64.5951 51.1043 64.5146 51.0544 64.4346 51.0023C63.9519 50.6887 63.4886 50.2925 63.218 49.7867C62.9119 49.2155 62.9313 48.5465 63.3076 48.0107C63.6571 47.5135 64.1924 47.1903 64.7417 46.9541C65.2104 46.7528 65.6834 46.5944 66.1607 46.4693C68.9643 45.7343 71.8974 46.1799 74.7875 46.167C75.8285 46.1622 77.3614 45.963 78.6499 46.1949C79.6802 46.3802 80.5543 46.8413 80.8936 47.8996C80.9924 48.2072 81.0418 48.5342 81.037 48.8595C81.2372 48.8203 81.4386 48.7876 81.641 48.7634C82.4485 48.6668 83.3145 48.7844 83.8943 49.4099C84.0688 49.5978 84.1842 49.8039 84.2497 50.0198C84.3609 50.0761 84.4489 50.1712 84.4661 50.2947C84.6836 51.842 83.2866 53.0849 82.2987 54.0765C82.0614 54.3149 81.823 54.5517 81.5824 54.7863C81.4912 55.2717 81.5051 55.7903 81.5669 56.3154C81.7231 56.3567 81.8659 56.4695 81.889 56.6305C81.9432 57.0064 81.9051 57.3779 81.8079 57.7365C81.8933 58.1747 81.9749 58.5993 82.0179 58.995C82.0512 59.3043 82.0764 59.6339 82.0925 59.977C82.3266 60.0264 82.5226 60.2315 82.4264 60.5241C82.3486 60.7614 82.238 60.9713 82.1059 61.1635C82.0834 62.1063 81.9797 63.0899 81.7591 64H88.6727C88.7457 62.6067 88.5406 61.032 88.51 60.2562ZM69.891 41.2448C69.8771 41.3097 69.8604 41.3731 69.8432 41.4359C69.8379 41.4552 69.832 41.4745 69.8261 41.4939C69.8132 41.5374 69.8003 41.5798 69.7858 41.6217C69.7788 41.6426 69.7718 41.663 69.7643 41.6834C69.7493 41.7253 69.7337 41.7661 69.7171 41.8069C69.7101 41.8241 69.7036 41.8412 69.6967 41.8579C69.673 41.9143 69.6478 41.969 69.6215 42.0227C69.6194 42.0275 69.6167 42.0324 69.614 42.0372C69.5898 42.0861 69.5641 42.1333 69.5377 42.18C69.5286 42.1961 69.519 42.2122 69.5093 42.2283C69.4884 42.2632 69.4669 42.2981 69.4449 42.332C69.4341 42.3486 69.4234 42.3647 69.4121 42.3814C69.3885 42.4163 69.3638 42.4501 69.3391 42.4839C69.33 42.4963 69.3208 42.5097 69.3112 42.522C69.2763 42.5671 69.2408 42.6112 69.2038 42.6541C69.199 42.66 69.1936 42.6654 69.1888 42.6707C69.1566 42.7073 69.1233 42.7432 69.0894 42.7781C69.0771 42.7905 69.0647 42.8028 69.0524 42.8146C69.0239 42.8426 68.9955 42.8699 68.9665 42.8968C68.9531 42.9086 68.9402 42.9209 68.9268 42.9328C68.8945 42.9612 68.8613 42.9891 68.828 43.016C68.8183 43.024 68.8086 43.0321 68.799 43.0401C68.755 43.075 68.7099 43.1089 68.6642 43.1411C68.6578 43.1454 68.6519 43.1497 68.6454 43.154C68.6057 43.1813 68.5654 43.2076 68.5246 43.2334C68.5112 43.242 68.4978 43.2501 68.4844 43.2581C68.4489 43.2796 68.413 43.3005 68.3764 43.3209C68.363 43.3284 68.3491 43.336 68.3356 43.3435C68.2938 43.366 68.2508 43.3875 68.2079 43.4084C68.2009 43.4117 68.1939 43.4154 68.1864 43.4192C68.1343 43.4439 68.0812 43.4675 68.0275 43.4895C68.0221 43.4917 68.0167 43.4938 68.0108 43.496C67.9636 43.5153 67.9163 43.5335 67.8685 43.5507C67.8562 43.555 67.8433 43.5598 67.8304 43.5641C67.7875 43.5792 67.744 43.5931 67.7005 43.6066C67.6887 43.6103 67.6769 43.6141 67.6645 43.6173C67.6108 43.6334 67.5566 43.6479 67.5018 43.6619C67.5013 43.6619 67.5008 43.6624 67.5002 43.6624C67.4412 43.6769 67.3816 43.6903 67.3214 43.7021C67.3182 43.7027 67.315 43.7032 67.3118 43.7037C67.2576 43.7145 67.2033 43.7236 67.1486 43.7322C67.1384 43.7338 67.1282 43.7354 67.1174 43.737C67.067 43.7445 67.016 43.751 66.9649 43.7569C66.9569 43.758 66.9483 43.759 66.9403 43.7596C66.8189 43.7725 66.6965 43.78 66.573 43.7827C66.5725 43.7827 66.5719 43.7827 66.5714 43.7827C66.5118 43.7837 66.4522 43.7837 66.3926 43.7827C66.3851 43.7827 66.3776 43.7821 66.3701 43.7821C66.3137 43.781 66.2568 43.7784 66.1999 43.7751C66.1956 43.7751 66.1913 43.7746 66.1875 43.7746C66.0007 43.7628 65.8144 43.7397 65.6292 43.7053C65.6238 43.7043 65.6184 43.7032 65.6136 43.7027C65.554 43.6914 65.4944 43.679 65.4353 43.6656C65.4343 43.6656 65.4332 43.6651 65.4327 43.6651C65.3081 43.6366 65.1841 43.6033 65.0622 43.5647C63.9068 43.2017 62.8947 42.3969 62.4958 41.2238C61.8467 39.3125 63.3006 37.7072 65.0541 37.1644C65.1637 37.1305 65.2748 37.1005 65.3865 37.0752C65.4412 37.0629 65.496 37.0516 65.5513 37.0409C65.5529 37.0403 65.5545 37.0403 65.5567 37.0398C65.6667 37.0194 65.7779 37.0027 65.8885 36.9909C65.8922 36.9904 65.896 36.9904 65.8998 36.9899C65.9502 36.9845 66.0007 36.9802 66.0517 36.977C66.0576 36.9764 66.063 36.9759 66.0689 36.9759C66.1763 36.9689 66.2836 36.9668 66.3905 36.9684C66.3991 36.9684 66.4071 36.9689 66.4157 36.9689C66.4603 36.97 66.5048 36.9721 66.5489 36.9748C66.5591 36.9754 66.5687 36.9759 66.5789 36.9764C66.682 36.9834 66.784 36.9947 66.8855 37.0108C66.8973 37.0124 66.9091 37.0146 66.9215 37.0167C66.9607 37.0232 66.9993 37.0307 67.038 37.0382C67.0509 37.0409 67.0637 37.043 67.0761 37.0462C67.1738 37.0672 67.2704 37.0924 67.3655 37.1225C67.3789 37.1268 67.3923 37.1311 67.4057 37.1359C67.4406 37.1477 67.4755 37.1595 67.5104 37.1724C67.5239 37.1772 67.5378 37.1826 67.5512 37.1874C67.5974 37.2052 67.643 37.2239 67.6881 37.2438C68.4849 37.5987 69.1651 38.2623 69.5678 39.0526C69.9136 39.727 70.0548 40.4963 69.891 41.2448ZM79.568 41.9169C79.5487 41.9674 79.5278 42.0163 79.5057 42.0646C79.5025 42.0716 79.4993 42.0785 79.4961 42.0855C79.4746 42.1312 79.452 42.1757 79.4284 42.2198C79.4241 42.2278 79.4193 42.2359 79.415 42.2439C79.3908 42.2874 79.3656 42.3298 79.3393 42.3712C79.335 42.3776 79.3312 42.384 79.327 42.3899C79.299 42.4329 79.27 42.4753 79.24 42.5167L79.2394 42.5172C79.2088 42.5585 79.1772 42.5983 79.1444 42.6375C79.1396 42.6434 79.1353 42.6487 79.1304 42.6546C79.0988 42.6917 79.0666 42.7277 79.0327 42.7631C79.0263 42.7695 79.0204 42.7765 79.0139 42.783C78.9801 42.8179 78.9458 42.8522 78.9103 42.885C78.905 42.8903 78.899 42.8952 78.8937 42.9C78.8561 42.9344 78.818 42.9682 78.7782 43.0004C78.7777 43.0004 78.7777 43.0009 78.7772 43.0015C78.738 43.0337 78.6972 43.0654 78.6558 43.096C78.6499 43.1003 78.644 43.1046 78.6381 43.1089C78.5984 43.1378 78.5576 43.1658 78.5162 43.1931C78.5087 43.198 78.5012 43.2033 78.4932 43.2082C78.4518 43.235 78.4094 43.2613 78.367 43.2866C78.3605 43.2903 78.3536 43.2941 78.3466 43.2984C78.3015 43.3247 78.2558 43.3499 78.2097 43.3741C78.2091 43.3741 78.2086 43.3746 78.2081 43.3746C78.1614 43.3988 78.1141 43.4219 78.0663 43.4444C78.0599 43.4476 78.0529 43.4509 78.0465 43.4541C78.0003 43.4756 77.9536 43.496 77.9063 43.5158C77.8977 43.5196 77.8891 43.5228 77.8806 43.5266C77.8333 43.5459 77.7855 43.5647 77.7372 43.5824C77.7297 43.5851 77.7222 43.5878 77.7147 43.5904C77.6642 43.6087 77.6132 43.6264 77.5616 43.6431C77.5611 43.6431 77.5606 43.6436 77.56 43.6436C77.5085 43.6602 77.4559 43.6758 77.4033 43.6908C77.3963 43.693 77.3893 43.6946 77.3829 43.6968C77.3324 43.7107 77.2814 43.7241 77.2298 43.737C77.2207 43.7392 77.2116 43.7413 77.2025 43.7435C77.1515 43.7558 77.0999 43.7676 77.0484 43.7784C77.0409 43.78 77.0333 43.7816 77.0253 43.7832C76.9711 43.7945 76.9168 43.8047 76.8621 43.8143C76.8615 43.8143 76.861 43.8143 76.8605 43.8143C76.8057 43.824 76.7504 43.8326 76.6956 43.8401C76.6886 43.8412 76.6817 43.8422 76.6752 43.8433C76.6221 43.8508 76.5689 43.8573 76.5158 43.8632C76.5066 43.8643 76.4975 43.8653 76.4889 43.8664C76.4358 43.8723 76.3826 43.8771 76.3295 43.8814C76.322 43.882 76.3144 43.8825 76.3069 43.8831C76.2511 43.8874 76.1958 43.8911 76.1399 43.8938H76.1394C76.083 43.8965 76.0272 43.8986 75.9714 43.8997C75.9649 43.8997 75.9585 43.9002 75.952 43.9002C75.8983 43.9013 75.8447 43.9013 75.7915 43.9013C75.7829 43.9013 75.7743 43.9013 75.7657 43.9013C75.7126 43.9008 75.6594 43.8997 75.6068 43.8975C75.5998 43.8975 75.5928 43.897 75.5859 43.8965C75.4747 43.8922 75.3647 43.8847 75.2562 43.875C75.2503 43.8745 75.2444 43.8739 75.2385 43.8734C75.1864 43.8686 75.1349 43.8627 75.0833 43.8567C75.0753 43.8557 75.0672 43.8546 75.0592 43.8535C75.0082 43.8471 74.9577 43.8401 74.9072 43.8326C74.9003 43.8315 74.8938 43.8304 74.8868 43.8294C74.8348 43.8213 74.7827 43.8127 74.7317 43.8031C74.4799 43.7569 74.2399 43.6946 74.0197 43.6184C73.3851 43.3988 72.7736 42.9591 72.3999 42.3921C72.3285 42.3416 72.2668 42.2697 72.2265 42.173C71.8453 41.2544 71.9608 40.1398 72.328 39.2362C72.7081 38.2999 73.368 37.5783 74.3489 37.2771C74.4729 37.239 74.5991 37.2078 74.7268 37.1821C75.239 37.0784 75.7727 37.0742 76.293 37.1595C76.2978 37.1606 76.3026 37.1611 76.3075 37.1617C76.3488 37.1686 76.3901 37.1762 76.4315 37.1842C76.4395 37.1858 76.447 37.1874 76.4551 37.1891C76.4943 37.1971 76.5335 37.2052 76.5721 37.2143C76.5818 37.2164 76.5915 37.2186 76.6011 37.2213C76.6387 37.2304 76.6763 37.2395 76.7139 37.2492C76.7246 37.2519 76.7354 37.2551 76.7461 37.2578C76.7826 37.2674 76.8191 37.2776 76.8556 37.2884C76.8669 37.2916 76.8776 37.2954 76.8889 37.2986C76.9249 37.3093 76.9609 37.3206 76.9968 37.3324C77.0076 37.3362 77.0183 37.3399 77.029 37.3437C77.065 37.356 77.1015 37.3684 77.137 37.3818C77.1455 37.385 77.1541 37.3882 77.1622 37.3915C77.3211 37.4511 77.4768 37.5192 77.6277 37.596C77.6432 37.6041 77.6583 37.6116 77.6739 37.6191C77.6991 37.6325 77.7243 37.6465 77.7496 37.6599C77.7689 37.6701 77.7877 37.6808 77.8065 37.6916C77.8295 37.705 77.8526 37.7184 77.8757 37.7319C77.8961 37.7442 77.9165 37.756 77.9369 37.7684C77.9584 37.7818 77.9799 37.7952 78.0014 37.8092C78.0223 37.8226 78.0432 37.836 78.0642 37.85C78.0846 37.8634 78.105 37.8773 78.1254 37.8913C78.1469 37.9058 78.1678 37.9208 78.1887 37.9353C78.2081 37.9493 78.2279 37.9633 78.2473 37.9777C78.2687 37.9933 78.2897 38.0094 78.3106 38.0255C78.3294 38.04 78.3477 38.054 78.3659 38.069C78.3874 38.0862 78.4083 38.1034 78.4293 38.1206C78.447 38.1351 78.4642 38.1496 78.4813 38.1646C78.5028 38.1828 78.5238 38.2016 78.5447 38.2204C78.5608 38.2349 78.5769 38.2494 78.593 38.2639C78.615 38.2843 78.636 38.3047 78.6574 38.3257C78.6719 38.3396 78.6864 38.3536 78.7009 38.3675C78.7246 38.3912 78.7471 38.4148 78.7702 38.4389C78.782 38.4513 78.7938 38.4631 78.8051 38.4754C78.8389 38.512 78.8722 38.5495 78.905 38.5871C79.1992 38.9307 79.4268 39.3339 79.5728 39.7635C79.8102 40.4636 79.8306 41.2303 79.568 41.9169Z" fill="#FFCD2E"/>
<path d="M76.1968 41.9009C76.2274 41.8971 76.258 41.8934 76.2886 41.888C76.3101 41.7876 76.3331 41.6872 76.3578 41.5879C76.3358 41.6035 76.3117 41.6169 76.287 41.6265C76.2553 41.7173 76.2252 41.8091 76.1968 41.9009Z" fill="#FFCD2E"/>
<path d="M67.6269 41.3414C67.6285 41.3237 67.6306 41.3065 67.6317 41.2888C67.6022 41.3828 67.571 41.474 67.5361 41.56C67.5743 41.4939 67.6038 41.4204 67.6269 41.3414Z" fill="#FFCD2E"/>
<path d="M77.5303 39.4359C77.5158 39.4311 77.5013 39.4257 77.4868 39.4209C77.5453 39.4912 77.6006 39.5648 77.6506 39.64C77.671 39.6346 77.6914 39.6324 77.7118 39.6314C77.7096 39.6222 77.708 39.6126 77.7064 39.6034C77.6511 39.5444 77.5926 39.4875 77.5303 39.4359Z" fill="#FFCD2E"/>
<path d="M64.6753 41.633C64.6264 41.4945 64.5867 41.3479 64.5588 41.1965C64.5437 41.2094 64.5276 41.2218 64.512 41.2341C64.5056 41.3281 64.5067 41.4215 64.5142 41.5138C64.5652 41.5568 64.6194 41.596 64.6753 41.633Z" fill="#FFCD2E"/>
<path d="M65.0679 40.8889C65.0711 40.9249 65.0754 40.9603 65.0803 40.9958C65.0985 40.81 65.1243 40.6242 65.1603 40.4412C65.1275 40.4991 65.0937 40.5555 65.0583 40.6108C65.0561 40.7037 65.0593 40.7966 65.0679 40.8889Z" fill="#FFCD2E"/>
<path d="M66.7573 40.4909C66.7718 40.3916 66.7825 40.2907 66.7922 40.1892C66.7508 40.3637 66.7106 40.5382 66.6682 40.7111C66.6257 40.884 66.5806 41.0552 66.5302 41.2222C66.52 41.256 66.5098 41.2904 66.499 41.3253C66.4883 41.3602 66.4776 41.3951 66.4663 41.431C66.4443 41.5025 66.4212 41.5755 66.3965 41.649C66.5806 41.3478 66.6762 40.9843 66.7347 40.6381C66.7428 40.5887 66.7503 40.5393 66.7573 40.4909Z" fill="#FFCD2E"/>
<path d="M74.8871 43.8305C74.835 43.8225 74.7829 43.8139 74.7319 43.8042C74.7829 43.8139 74.835 43.8225 74.8871 43.8305Z" fill="white"/>
<path d="M79.4964 42.0854C79.4749 42.1311 79.4523 42.1756 79.4287 42.2197C79.4523 42.1762 79.4749 42.1316 79.4964 42.0854Z" fill="white"/>
<path d="M79.5676 41.917C79.5483 41.9675 79.5274 42.0163 79.5054 42.0646C79.5274 42.0163 79.5483 41.9675 79.5676 41.917Z" fill="white"/>
<path d="M76.6011 37.2224C76.6387 37.2315 76.6762 37.2407 76.7138 37.2503C76.6762 37.2407 76.6392 37.231 76.6011 37.2224Z" fill="white"/>
<path d="M76.3071 37.1628C76.3485 37.1698 76.3898 37.1773 76.4312 37.1854C76.3898 37.1773 76.3485 37.1698 76.3071 37.1628Z" fill="white"/>
<path d="M76.4551 37.1902C76.4943 37.1982 76.5335 37.2063 76.5721 37.2154C76.5335 37.2068 76.4943 37.1982 76.4551 37.1902Z" fill="white"/>
<path d="M78.4292 38.1223C78.4469 38.1368 78.4641 38.1513 78.4813 38.1663C78.4641 38.1513 78.4469 38.1368 78.4292 38.1223Z" fill="white"/>
<path d="M75.953 43.9014C75.8993 43.9024 75.8456 43.9024 75.7925 43.9024C75.8462 43.903 75.8993 43.9024 75.953 43.9014Z" fill="white"/>
<path d="M75.7663 43.902C75.7132 43.9014 75.66 43.9003 75.6074 43.8982C75.66 43.9003 75.7127 43.9014 75.7663 43.902Z" fill="white"/>
<path d="M75.586 43.8977C75.4749 43.8934 75.3648 43.8859 75.2563 43.8762C75.3648 43.8864 75.4749 43.8934 75.586 43.8977Z" fill="white"/>
<path d="M75.2387 43.8746C75.1866 43.8697 75.135 43.8638 75.0835 43.8579C75.135 43.8638 75.1866 43.8697 75.2387 43.8746Z" fill="white"/>
<path d="M75.0597 43.8547C75.0087 43.8482 74.9582 43.8413 74.9077 43.8337C74.9576 43.8413 75.0087 43.8482 75.0597 43.8547Z" fill="white"/>
<path d="M78.0649 37.8511C78.0853 37.8645 78.1057 37.8785 78.1261 37.8924C78.1057 37.8785 78.0853 37.865 78.0649 37.8511Z" fill="white"/>
<path d="M77.937 37.77C77.9585 37.7834 77.98 37.7969 78.0014 37.8108C77.9805 37.7969 77.959 37.7829 77.937 37.77Z" fill="white"/>
<path d="M78.3474 43.2988C78.3023 43.3251 78.2566 43.3504 78.2104 43.3745C78.2566 43.3504 78.3023 43.3246 78.3474 43.2988Z" fill="white"/>
<path d="M76.7461 37.2588C76.7826 37.2685 76.8191 37.2787 76.8556 37.2894C76.8197 37.2787 76.7831 37.2685 76.7461 37.2588Z" fill="white"/>
<path d="M78.1895 37.937C78.2088 37.951 78.2286 37.9649 78.248 37.9794C78.2281 37.9649 78.2088 37.951 78.1895 37.937Z" fill="white"/>
<path d="M76.1402 43.895C76.0838 43.8977 76.028 43.8999 75.9722 43.9009C76.028 43.8999 76.0844 43.8977 76.1402 43.895Z" fill="white"/>
<path d="M77.6743 37.6201C77.6996 37.6335 77.7248 37.6475 77.75 37.6609C77.7248 37.6475 77.7001 37.6335 77.6743 37.6201Z" fill="white"/>
<path d="M76.8887 37.2998C76.9246 37.3105 76.9606 37.3218 76.9966 37.3336C76.9612 37.3224 76.9252 37.3111 76.8887 37.2998Z" fill="white"/>
<path d="M77.0288 37.3447C77.0648 37.3571 77.1013 37.3694 77.1367 37.3828C77.1013 37.3694 77.0648 37.3571 77.0288 37.3447Z" fill="white"/>
<path d="M77.1626 37.3926C77.3215 37.4522 77.4772 37.5204 77.6281 37.5971C77.4772 37.5204 77.3215 37.4522 77.1626 37.3926Z" fill="white"/>
<path d="M78.311 38.0271C78.3298 38.0416 78.3481 38.0556 78.3663 38.0706C78.3481 38.0556 78.3293 38.0416 78.311 38.0271Z" fill="white"/>
<path d="M77.716 43.5911C77.6655 43.6093 77.6145 43.627 77.563 43.6437C77.6145 43.6276 77.6655 43.6099 77.716 43.5911Z" fill="white"/>
<path d="M79.0143 42.7834C78.9804 42.8183 78.9461 42.8527 78.9106 42.8855C78.9455 42.8522 78.9804 42.8183 79.0143 42.7834Z" fill="white"/>
<path d="M77.8816 43.5271C77.8344 43.5464 77.7866 43.5652 77.7383 43.5829C77.7866 43.5652 77.8344 43.5464 77.8816 43.5271Z" fill="white"/>
<path d="M78.8933 42.9006C78.8557 42.935 78.8176 42.9688 78.7778 43.001C78.8176 42.9688 78.8557 42.935 78.8933 42.9006Z" fill="white"/>
<path d="M77.5616 43.6448C77.51 43.6614 77.4574 43.677 77.4048 43.692C77.4579 43.677 77.51 43.6614 77.5616 43.6448Z" fill="white"/>
<path d="M78.7771 43.002C78.7379 43.0342 78.6971 43.0658 78.6558 43.0964C78.6971 43.0658 78.7379 43.0347 78.7771 43.002Z" fill="white"/>
<path d="M78.6385 43.1094C78.5987 43.1384 78.5579 43.1663 78.5166 43.1937C78.5579 43.1663 78.5987 43.1384 78.6385 43.1094Z" fill="white"/>
<path d="M78.4934 43.2087C78.452 43.2356 78.4096 43.2619 78.3672 43.2871C78.4101 43.2619 78.452 43.2356 78.4934 43.2087Z" fill="white"/>
<path d="M78.2081 43.3757C78.1614 43.3999 78.1142 43.423 78.0664 43.4455C78.1147 43.423 78.162 43.3999 78.2081 43.3757Z" fill="white"/>
<path d="M78.0474 43.4546C78.0012 43.4761 77.9545 43.4965 77.9072 43.5163C77.9545 43.4965 78.0012 43.4761 78.0474 43.4546Z" fill="white"/>
<path d="M76.3081 43.8843C76.2522 43.8886 76.197 43.8923 76.1411 43.895C76.1964 43.8923 76.2522 43.8886 76.3081 43.8843Z" fill="white"/>
<path d="M76.8631 43.8154C76.8083 43.8251 76.753 43.8337 76.6982 43.8412C76.753 43.8337 76.8083 43.8251 76.8631 43.8154Z" fill="white"/>
<path d="M76.677 43.8445C76.6239 43.852 76.5707 43.8584 76.5176 43.8643C76.5707 43.8584 76.6239 43.852 76.677 43.8445Z" fill="white"/>
<path d="M77.3845 43.6978C77.334 43.7117 77.283 43.7251 77.2314 43.738C77.283 43.7251 77.334 43.7117 77.3845 43.6978Z" fill="white"/>
<path d="M79.4155 42.2444C79.3914 42.2879 79.3662 42.3303 79.3398 42.3716C79.3662 42.3303 79.3914 42.2873 79.4155 42.2444Z" fill="white"/>
<path d="M76.4905 43.8674C76.4374 43.8733 76.3842 43.8782 76.3311 43.8825C76.3842 43.8782 76.4374 43.8733 76.4905 43.8674Z" fill="white"/>
<path d="M79.3272 42.3906C79.2993 42.4336 79.2703 42.476 79.2402 42.5173C79.2703 42.4765 79.2993 42.4341 79.3272 42.3906Z" fill="white"/>
<path d="M77.027 43.7842C76.9728 43.7955 76.9185 43.8057 76.8638 43.8153C76.9185 43.8057 76.9728 43.7955 77.027 43.7842Z" fill="white"/>
<path d="M79.1304 42.6553C79.0988 42.6923 79.0665 42.7283 79.0327 42.7637C79.0665 42.7283 79.0993 42.6923 79.1304 42.6553Z" fill="white"/>
<path d="M77.2044 43.7446C77.1534 43.757 77.1018 43.7688 77.0503 43.7795C77.1018 43.7688 77.1534 43.757 77.2044 43.7446Z" fill="white"/>
<path d="M79.2391 42.5183C79.2085 42.5597 79.1768 42.5994 79.144 42.6386C79.1768 42.5988 79.209 42.5591 79.2391 42.5183Z" fill="white"/>
<path d="M77.8071 37.6926C77.8302 37.706 77.8533 37.7195 77.8764 37.7329C77.8533 37.7195 77.8302 37.706 77.8071 37.6926Z" fill="white"/>
<path d="M78.5444 38.2214C78.5605 38.2359 78.5766 38.2504 78.5928 38.2649C78.5772 38.2504 78.5605 38.2359 78.5444 38.2214Z" fill="white"/>
<path d="M76.2927 37.1605C75.7724 37.0752 75.2388 37.0795 74.7266 37.1831C75.2388 37.0795 75.7719 37.0752 76.2927 37.1605Z" fill="white"/>
<path d="M74.7259 37.1831C74.5986 37.2089 74.4725 37.24 74.3479 37.2781C73.367 37.5793 72.7072 38.3009 72.327 39.2373C71.9603 40.1409 71.8449 41.256 72.2256 42.1741C72.2658 42.2707 72.3276 42.3427 72.399 42.3931C72.7727 42.9596 73.3837 43.3993 74.0188 43.6194C74.2395 43.6956 74.4789 43.7579 74.7307 43.8041C74.728 42.9934 74.7227 42.1832 74.7221 41.373C74.7216 39.9771 74.7339 38.5796 74.7259 37.1831Z" fill="white"/>
<path d="M78.6577 38.3267C78.6722 38.3406 78.6867 38.3546 78.7012 38.3685C78.6867 38.3546 78.6722 38.3412 78.6577 38.3267Z" fill="white"/>
<path d="M78.77 38.4407C78.7818 38.453 78.7936 38.4648 78.8049 38.4772C78.7936 38.4648 78.7818 38.4525 78.77 38.4407Z" fill="white"/>
<path d="M66.5738 43.7805C66.5142 43.7816 66.4546 43.7816 66.395 43.7805C66.4546 43.7816 66.5142 43.7816 66.5738 43.7805Z" fill="white"/>
<path d="M67.1193 43.7354C67.0688 43.7429 67.0178 43.7493 66.9668 43.7552C67.0178 43.7493 67.0688 43.7429 67.1193 43.7354Z" fill="white"/>
<path d="M67.3136 43.7021C67.2594 43.7129 67.2052 43.722 67.1504 43.7306C67.2052 43.722 67.2594 43.7129 67.3136 43.7021Z" fill="white"/>
<path d="M66.9424 43.7576C66.8211 43.7705 66.6987 43.778 66.5752 43.7807C66.6987 43.778 66.8211 43.7705 66.9424 43.7576Z" fill="white"/>
<path d="M67.5015 43.6609C67.4425 43.6754 67.3829 43.6888 67.3228 43.7006C67.3829 43.6883 67.4425 43.6754 67.5015 43.6609Z" fill="white"/>
<path d="M68.0124 43.4944C67.9651 43.5137 67.9179 43.532 67.8701 43.5491C67.9179 43.532 67.9651 43.5137 68.0124 43.4944Z" fill="white"/>
<path d="M67.8316 43.5625C67.7886 43.5775 67.7451 43.5915 67.7017 43.6049C67.7451 43.5915 67.7886 43.577 67.8316 43.5625Z" fill="white"/>
<path d="M67.6661 43.6157C67.6124 43.6318 67.5582 43.6463 67.5034 43.6603C67.5582 43.6469 67.6124 43.6318 67.6661 43.6157Z" fill="white"/>
<path d="M68.1872 43.4175C68.1352 43.4422 68.082 43.4658 68.0283 43.4878C68.082 43.4658 68.1352 43.4422 68.1872 43.4175Z" fill="white"/>
<path d="M67.3675 37.1204C67.2725 37.0904 67.1758 37.0651 67.0781 37.0442C67.1758 37.0651 67.2725 37.0904 67.3675 37.1204Z" fill="white"/>
<path d="M67.5527 37.1853C67.5989 37.203 67.6445 37.2218 67.6896 37.2417C67.6445 37.2218 67.5989 37.203 67.5527 37.1853Z" fill="white"/>
<path d="M66.3965 41.6491C66.4212 41.5756 66.4443 41.5026 66.4663 41.4312C66.4437 41.5026 66.4206 41.5756 66.3965 41.6491Z" fill="white"/>
<path d="M66.6677 40.7112C66.6252 40.8841 66.5801 41.0553 66.5297 41.2223C66.5195 41.2561 66.5093 41.2905 66.4985 41.3254C66.5093 41.2905 66.5195 41.2561 66.5297 41.2223C66.5807 41.0553 66.6252 40.8841 66.6677 40.7112Z" fill="white"/>
<path d="M66.1902 43.7719C66.0039 43.7601 65.8171 43.737 65.6318 43.7026C65.8171 43.737 66.0039 43.7601 66.1902 43.7719Z" fill="white"/>
<path d="M65.4349 43.6629C65.3104 43.6344 65.1863 43.6012 65.0645 43.5625C65.1863 43.6006 65.3104 43.6344 65.4349 43.6629Z" fill="white"/>
<path d="M67.4072 37.1333C67.4421 37.1451 67.477 37.1569 67.5119 37.1698C67.4776 37.1575 67.4427 37.1451 67.4072 37.1333Z" fill="white"/>
<path d="M65.6162 43.6999C65.5566 43.6886 65.497 43.6763 65.438 43.6628C65.497 43.6768 65.5566 43.6891 65.6162 43.6999Z" fill="white"/>
<path d="M69.4124 42.3804C69.3888 42.4153 69.3641 42.4491 69.3394 42.4829C69.3646 42.4496 69.3888 42.4153 69.4124 42.3804Z" fill="white"/>
<path d="M68.3363 43.3418C68.2944 43.3643 68.2514 43.3858 68.2085 43.4068C68.2514 43.3864 68.2939 43.3643 68.3363 43.3418Z" fill="white"/>
<path d="M69.5097 42.2278C69.4888 42.2627 69.4673 42.2976 69.4453 42.3314C69.4673 42.2976 69.4888 42.2627 69.5097 42.2278Z" fill="white"/>
<path d="M69.6143 42.0366C69.5902 42.0855 69.5644 42.1327 69.5381 42.1794C69.5644 42.1327 69.5902 42.0855 69.6143 42.0366Z" fill="white"/>
<path d="M69.765 41.6829C69.75 41.7247 69.7344 41.7655 69.7178 41.8063C69.7339 41.7661 69.75 41.7247 69.765 41.6829Z" fill="white"/>
<path d="M69.8906 41.2449C69.8766 41.3098 69.86 41.3732 69.8428 41.436C69.8605 41.3737 69.8766 41.3104 69.8906 41.2449Z" fill="white"/>
<path d="M69.8264 41.4934C69.8135 41.5364 69.8006 41.5793 69.7861 41.6212C69.8006 41.5798 69.8141 41.5369 69.8264 41.4934Z" fill="white"/>
<path d="M69.6972 41.8579C69.6736 41.9143 69.6484 41.969 69.6221 42.0227C69.6484 41.969 69.6736 41.9137 69.6972 41.8579Z" fill="white"/>
<path d="M68.7993 43.0391C68.7553 43.074 68.7102 43.1078 68.6646 43.14C68.7102 43.1078 68.7553 43.074 68.7993 43.0391Z" fill="white"/>
<path d="M69.3115 42.521C69.2766 42.5661 69.2411 42.6101 69.2041 42.6531C69.2411 42.6101 69.2771 42.5661 69.3115 42.521Z" fill="white"/>
<path d="M68.4849 43.2571C68.4494 43.2786 68.4135 43.2995 68.377 43.3199C68.4135 43.2995 68.4494 43.2786 68.4849 43.2571Z" fill="white"/>
<path d="M68.6457 43.1528C68.606 43.1802 68.5657 43.2065 68.5249 43.2323C68.5657 43.2065 68.606 43.1802 68.6457 43.1528Z" fill="white"/>
<path d="M68.9269 42.9316C68.8947 42.9601 68.8614 42.988 68.8281 43.0149C68.8619 42.988 68.8947 42.9606 68.9269 42.9316Z" fill="white"/>
<path d="M69.1892 42.6697C69.157 42.7062 69.1237 42.7422 69.0898 42.7771C69.1237 42.7422 69.157 42.7062 69.1892 42.6697Z" fill="white"/>
<path d="M69.0532 42.8135C69.0247 42.8414 68.9963 42.8688 68.9673 42.8956C68.9963 42.8693 69.0247 42.8419 69.0532 42.8135Z" fill="white"/>
<path d="M66.3723 43.7799C66.316 43.7789 66.2591 43.7762 66.2021 43.7729C66.2591 43.7762 66.316 43.7789 66.3723 43.7799Z" fill="white"/>
<path d="M66.0708 36.9738C66.1782 36.9668 66.2856 36.9647 66.3924 36.9663C66.2861 36.9642 66.1787 36.9668 66.0708 36.9738Z" fill="white"/>
<path d="M65.3892 37.0732C65.4439 37.0608 65.4987 37.0496 65.554 37.0388C65.4992 37.049 65.4439 37.0603 65.3892 37.0732Z" fill="white"/>
<path d="M65.9023 36.9877C65.9528 36.9824 66.0033 36.9781 66.0543 36.9749C66.0033 36.9781 65.9528 36.9824 65.9023 36.9877Z" fill="white"/>
<path d="M65.5591 37.0376C65.6691 37.0172 65.7803 37.0006 65.8909 36.9888C65.7803 37.0006 65.6697 37.0172 65.5591 37.0376Z" fill="white"/>
<path d="M66.5811 36.9744C66.6841 36.9813 66.7861 36.9926 66.8876 37.0087C66.7861 36.9932 66.6841 36.9813 66.5811 36.9744Z" fill="white"/>
<path d="M65.0566 37.1621C65.1662 37.1283 65.2773 37.0982 65.389 37.073C65.2773 37.0982 65.1667 37.1283 65.0566 37.1621Z" fill="white"/>
<path d="M66.9233 37.0146C66.9625 37.0211 67.0012 37.0286 67.0398 37.0361C67.0012 37.0286 66.962 37.0211 66.9233 37.0146Z" fill="white"/>
<path d="M66.4175 36.9668C66.462 36.9679 66.5066 36.97 66.5506 36.9727C66.5066 36.97 66.462 36.9679 66.4175 36.9668Z" fill="white"/>
<path d="M65.068 40.8889C65.0595 40.7966 65.0562 40.7037 65.0584 40.6108C65.0938 40.5555 65.1282 40.4986 65.1604 40.4412C65.1309 40.4938 65.0997 40.5448 65.068 40.5953C65.0675 39.4511 65.0643 38.3065 65.0568 37.1624C63.3033 37.7052 61.8494 39.3105 62.4985 41.2218C62.8968 42.3949 63.9089 43.1997 65.0648 43.5627C65.067 42.6714 65.0686 41.7802 65.068 40.8889ZM64.5124 41.2347C64.5279 41.2218 64.544 41.21 64.5591 41.1971C64.587 41.3485 64.6262 41.4951 64.6756 41.6336C64.6197 41.5966 64.5655 41.5574 64.515 41.515C64.507 41.4221 64.5059 41.3281 64.5124 41.2347Z" fill="white"/>
<path d="M78.9046 38.5889C78.8719 38.5508 78.8386 38.5137 78.8048 38.4772C78.7935 38.4649 78.7817 38.453 78.7699 38.4407C78.7468 38.4165 78.7242 38.3924 78.7006 38.3693C78.6866 38.3553 78.6716 38.3414 78.6571 38.3274C78.6356 38.3065 78.6142 38.2861 78.5927 38.2657C78.5766 38.2512 78.5605 38.2367 78.5444 38.2222C78.5234 38.2034 78.5025 38.1846 78.481 38.1663C78.4638 38.1513 78.4461 38.1373 78.4289 38.1223C78.408 38.1051 78.3871 38.088 78.3656 38.0708C78.3473 38.0563 78.3291 38.0418 78.3103 38.0273C78.2893 38.0112 78.2684 37.9951 78.2469 37.9795C78.2276 37.965 78.2083 37.951 78.1884 37.9371C78.1675 37.9221 78.1465 37.9076 78.1251 37.8931C78.1047 37.8791 78.0843 37.8651 78.0639 37.8517C78.0429 37.8378 78.022 37.8243 78.001 37.8109C77.9796 37.797 77.9581 37.7835 77.9366 37.7701C77.9162 37.7578 77.8958 37.7454 77.8754 37.7336C77.8523 37.7202 77.8292 37.7062 77.8061 37.6933C77.7873 37.6826 77.768 37.6724 77.7492 37.6617C77.724 37.6477 77.6988 37.6337 77.6735 37.6209C77.6585 37.6128 77.6429 37.6053 77.6274 37.5978C77.4765 37.521 77.3208 37.4528 77.1619 37.3932C77.1533 37.39 77.1447 37.3868 77.1366 37.3835C77.1007 37.3701 77.0647 37.3578 77.0287 37.3454C77.018 37.3417 77.0072 37.3379 76.9965 37.3342C76.9605 37.3223 76.9246 37.3111 76.8886 37.3003C76.8773 37.2971 76.8666 37.2933 76.8553 37.2901C76.8188 37.2794 76.7823 37.2692 76.7458 37.2595C76.735 37.2568 76.7243 37.2536 76.7136 37.2509C76.676 37.2413 76.6384 37.2321 76.6008 37.223C76.5911 37.2209 76.5815 37.2187 76.5718 37.216C76.5326 37.2069 76.494 37.1989 76.4548 37.1908C76.4467 37.1892 76.4392 37.1876 76.4312 37.186C76.3898 37.1779 76.3485 37.1704 76.3071 37.1634C76.3023 37.1623 76.2975 37.1618 76.2926 37.1613C75.7724 37.0759 75.2387 37.0802 74.7265 37.1838C74.734 38.5803 74.7217 39.9778 74.7233 41.3737C74.7244 42.1839 74.7292 42.9946 74.7319 43.8048C74.7829 43.8145 74.835 43.8231 74.887 43.8311C74.894 43.8322 74.9005 43.8333 74.9074 43.8343C74.9579 43.8419 75.0084 43.8488 75.0594 43.8553C75.0674 43.8563 75.0755 43.8574 75.0835 43.8585C75.1351 43.8649 75.1866 43.8703 75.2387 43.8751C75.2446 43.8757 75.2505 43.8762 75.2564 43.8767C75.3649 43.8869 75.4749 43.8939 75.5861 43.8982C75.5931 43.8982 75.6 43.8988 75.607 43.8993C75.6596 43.9014 75.7128 43.9025 75.7659 43.9031C75.7745 43.9031 75.7831 43.9031 75.7917 43.9031C75.8454 43.9036 75.8986 43.9031 75.9522 43.902C75.9587 43.902 75.9651 43.9014 75.9716 43.9014C76.0274 43.9004 76.0838 43.8982 76.1396 43.8955H76.1402C76.196 43.8929 76.2513 43.8891 76.3071 43.8848C76.3146 43.8843 76.3222 43.8837 76.3297 43.8832C76.3828 43.8789 76.436 43.8741 76.4891 43.8682C76.4983 43.8671 76.5074 43.866 76.516 43.8649C76.5691 43.859 76.6223 43.8526 76.6754 43.8451C76.6824 43.844 76.6894 43.8429 76.6958 43.8419C76.7511 43.8338 76.8059 43.8252 76.8607 43.8161C76.8612 43.8161 76.8617 43.8161 76.8623 43.8161C76.917 43.8064 76.9713 43.7962 77.0255 43.7849C77.033 43.7833 77.0405 43.7817 77.0486 43.7801C77.1001 43.7694 77.1517 43.7576 77.2027 43.7452C77.2118 43.7431 77.2209 43.7409 77.2301 43.7388C77.2811 43.7259 77.3321 43.713 77.3831 43.6985C77.39 43.6964 77.397 43.6947 77.4035 43.6926C77.4561 43.6776 77.5082 43.662 77.5602 43.6453C77.5608 43.6453 77.5613 43.6448 77.5619 43.6448C77.6134 43.6282 77.6644 43.6104 77.7149 43.5922C77.7224 43.5895 77.7299 43.5868 77.7374 43.5841C77.7857 43.5664 77.8335 43.5476 77.8808 43.5283C77.8894 43.5245 77.898 43.5213 77.9065 43.5176C77.9538 43.4977 78.0005 43.4773 78.0467 43.4558C78.0531 43.4526 78.0601 43.4494 78.0665 43.4462C78.1143 43.4236 78.1616 43.4005 78.2083 43.3764C78.2088 43.3764 78.2093 43.3758 78.2099 43.3758C78.2566 43.3517 78.3017 43.3259 78.3468 43.3001C78.3532 43.2964 78.3602 43.2926 78.3672 43.2883C78.4101 43.2631 78.452 43.2368 78.4934 43.2099C78.5009 43.2051 78.5089 43.1997 78.5165 43.1949C78.5578 43.1675 78.5986 43.1396 78.6383 43.1106C78.6442 43.1063 78.6501 43.102 78.656 43.0977C78.6974 43.0671 78.7377 43.036 78.7774 43.0032C78.7779 43.0027 78.7779 43.0027 78.7785 43.0021C78.8177 42.9699 78.8563 42.9361 78.8939 42.9017C78.8993 42.8964 78.9052 42.8915 78.9105 42.8867C78.946 42.8534 78.9809 42.8196 79.0142 42.7847C79.0206 42.7783 79.027 42.7718 79.0329 42.7648C79.0662 42.7294 79.099 42.6934 79.1307 42.6564C79.1355 42.651 79.1398 42.6451 79.1446 42.6392C79.1774 42.6 79.209 42.5603 79.2396 42.5189L79.2402 42.5184C79.2708 42.4771 79.2992 42.4347 79.3272 42.3917C79.3315 42.3853 79.3358 42.3788 79.3395 42.3729C79.3658 42.3316 79.3911 42.2886 79.4152 42.2457C79.4195 42.2376 79.4243 42.2296 79.4286 42.2215C79.4523 42.1775 79.4748 42.1329 79.4963 42.0873C79.4995 42.0803 79.5027 42.0733 79.506 42.0663C79.528 42.018 79.5489 41.9692 79.5682 41.9187C79.8302 41.232 79.8098 40.4653 79.5731 39.7668C79.4265 39.3357 79.1988 38.932 78.9046 38.5889ZM76.2883 41.8881C76.2577 41.8935 76.2271 41.8978 76.1965 41.901C76.2244 41.8086 76.2551 41.7174 76.2867 41.6266C76.3114 41.6164 76.3356 41.6035 76.3576 41.588C76.3329 41.6873 76.3098 41.7877 76.2883 41.8881ZM77.6504 39.6401C77.6 39.5644 77.5452 39.4914 77.4867 39.4211C77.5012 39.4259 77.5157 39.4313 77.5302 39.4361C77.593 39.4876 77.651 39.5445 77.7063 39.6041C77.7084 39.6133 77.71 39.6229 77.7116 39.6321C77.6912 39.6326 77.6703 39.6347 77.6504 39.6401Z" fill="#24193A"/>
<path d="M67.6897 37.2417C67.6446 37.2219 67.5989 37.2031 67.5528 37.1854C67.5393 37.18 67.5254 37.1751 67.512 37.1703C67.4771 37.1574 67.4427 37.1451 67.4073 37.1338C67.3938 37.1295 67.3804 37.1247 67.367 37.1204C67.272 37.0903 67.1753 37.0651 67.0776 37.0441C67.0647 37.0415 67.0524 37.0388 67.0395 37.0361C67.0008 37.028 66.9622 37.0211 66.923 37.0146C66.9112 37.0125 66.8994 37.0103 66.887 37.0087C66.7861 36.9931 66.6835 36.9813 66.5804 36.9744C66.5702 36.9738 66.5606 36.9733 66.5504 36.9727C66.5058 36.9701 66.4618 36.9679 66.4172 36.9668C66.4086 36.9668 66.4006 36.9663 66.392 36.9663C66.2852 36.9642 66.1778 36.9668 66.0704 36.9738C66.0645 36.9744 66.0591 36.9744 66.0532 36.9749C66.0027 36.9781 65.9523 36.9824 65.9013 36.9878C65.8975 36.9883 65.8938 36.9883 65.89 36.9888C65.7794 37.0007 65.6683 37.0173 65.5582 37.0377C65.5566 37.0382 65.555 37.0382 65.5528 37.0388C65.4975 37.049 65.4428 37.0608 65.388 37.0731C65.2763 37.0984 65.1652 37.1284 65.0557 37.1623C65.0626 38.3064 65.0664 39.4505 65.0669 40.5952C65.0986 40.5447 65.1298 40.4937 65.1593 40.4411C65.1238 40.6242 65.0975 40.8099 65.0793 40.9957C65.0745 40.9603 65.0702 40.9243 65.0669 40.8889C65.0669 41.7801 65.0659 42.6713 65.0637 43.5626C65.1856 43.6007 65.3096 43.6345 65.4342 43.663C65.4352 43.663 65.4363 43.6635 65.4369 43.6635C65.4959 43.6769 65.5555 43.6893 65.6151 43.7006C65.6205 43.7016 65.6258 43.7027 65.6307 43.7033C65.8159 43.7371 66.0022 43.7607 66.189 43.7725C66.1933 43.7725 66.1976 43.773 66.2014 43.773C66.2583 43.7763 66.3147 43.779 66.3716 43.78C66.3791 43.78 66.3866 43.7806 66.3941 43.7806C66.4537 43.7816 66.5133 43.7816 66.5729 43.7806C66.5735 43.7806 66.574 43.7806 66.5745 43.7806C66.6975 43.7779 66.8204 43.7704 66.9418 43.7575C66.9498 43.7564 66.9584 43.7553 66.9665 43.7548C67.0175 43.7494 67.0685 43.7424 67.119 43.7349C67.1292 43.7333 67.1394 43.7317 67.1501 43.7301C67.2049 43.7215 67.2591 43.7124 67.3133 43.7016C67.3165 43.7011 67.3197 43.7006 67.323 43.7C67.3831 43.6882 67.4427 43.6748 67.5018 43.6603C67.5023 43.6603 67.5028 43.6598 67.5034 43.6598C67.5581 43.6463 67.6124 43.6313 67.666 43.6152C67.6779 43.6114 67.6897 43.6077 67.702 43.6045C67.7455 43.591 67.789 43.5771 67.8319 43.562C67.8448 43.5578 67.8572 43.5535 67.8701 43.5486C67.9178 43.5314 67.9656 43.5132 68.0123 43.4939C68.0177 43.4917 68.0231 43.4896 68.029 43.4874C68.0827 43.4654 68.1353 43.4418 68.1879 43.4171C68.1949 43.4139 68.2019 43.4101 68.2094 43.4063C68.2523 43.3854 68.2947 43.3639 68.3372 43.3414C68.3511 43.3339 68.3645 43.3264 68.378 43.3188C68.4145 43.2984 68.4504 43.2775 68.4859 43.256C68.4993 43.248 68.5127 43.2399 68.5262 43.2313C68.567 43.2056 68.6072 43.1792 68.647 43.1519C68.6534 43.1476 68.6593 43.1433 68.6657 43.139C68.7114 43.1068 68.7565 43.0729 68.8005 43.038C68.8102 43.03 68.8198 43.0219 68.8295 43.0139C68.8628 42.987 68.8961 42.9591 68.9283 42.9307C68.9417 42.9188 68.9546 42.907 68.968 42.8947C68.997 42.8678 69.026 42.8405 69.0539 42.8125C69.0663 42.8002 69.0786 42.7884 69.091 42.776C69.1248 42.7411 69.1581 42.7052 69.1903 42.6687C69.1951 42.6628 69.2005 42.6574 69.2053 42.652C69.2424 42.6096 69.2778 42.565 69.3127 42.5199C69.3224 42.5076 69.3315 42.4947 69.3406 42.4818C69.3653 42.4485 69.39 42.4142 69.4136 42.3793C69.4249 42.3632 69.4357 42.3465 69.4464 42.3299C69.4684 42.2961 69.4899 42.2612 69.5108 42.2263C69.5205 42.2101 69.5301 42.1946 69.5393 42.1779C69.5656 42.1312 69.5914 42.084 69.6155 42.0351C69.6182 42.0303 69.6209 42.0255 69.623 42.0206C69.6493 41.9669 69.6746 41.9122 69.6982 41.8558C69.7052 41.8392 69.7122 41.8214 69.7186 41.8048C69.7352 41.764 69.7508 41.7232 69.7658 41.6813C69.7734 41.6609 69.7803 41.6405 69.7873 41.6196C69.8013 41.5777 69.8147 41.5347 69.8276 41.4918C69.8335 41.4725 69.8394 41.4537 69.8448 41.4338C69.8619 41.3715 69.8781 41.3082 69.8925 41.2427C70.0558 40.4942 69.9151 39.7249 69.5709 39.0484C69.1672 38.2602 68.4864 37.5966 67.6897 37.2417ZM66.3968 41.6491C66.4215 41.5755 66.4446 41.5025 66.4666 41.4311C66.4779 41.3957 66.4886 41.3602 66.4994 41.3253C66.5101 41.2904 66.5203 41.2561 66.5305 41.2223C66.581 41.0548 66.6261 40.884 66.6685 40.7111C66.7109 40.5383 66.7512 40.3638 66.7925 40.1893C66.7834 40.2908 66.7721 40.3917 66.7576 40.491C66.7506 40.5393 66.7431 40.5887 66.7345 40.6381C66.676 40.9839 66.581 41.3479 66.3968 41.6491ZM67.6269 41.3415C67.6038 41.4204 67.5742 41.4939 67.5367 41.56C67.571 41.4741 67.6027 41.3828 67.6322 41.2888C67.6306 41.3066 67.6285 41.3237 67.6269 41.3415Z" fill="#24193A"/>
<path d="M67.9625 49.3652C69.0191 49.646 70.3957 49.3899 70.8155 48.3032C70.9213 48.4262 71.0507 48.5352 71.2091 48.6243C71.7261 48.9153 72.3709 48.9137 72.9481 48.8997C73.4774 48.8868 73.9467 48.7285 74.2457 48.2667C74.4347 47.9752 74.5104 47.6402 74.5561 47.3019C74.5588 47.3191 74.5614 47.3368 74.5647 47.354C74.6328 47.7551 74.7606 48.1089 74.9748 48.4546C75.3292 49.0264 75.8205 49.3926 76.5168 49.2358C77.2132 49.079 77.8655 48.6023 78.2311 47.9924C78.5549 47.4523 78.6612 46.8171 78.6499 46.1938C77.3619 45.9618 75.8285 46.161 74.7875 46.1659C71.8974 46.1787 68.9643 45.7331 66.1606 46.4681C66.188 47.6987 66.6508 49.0162 67.9625 49.3652Z" fill="white"/>
<path d="M71.4872 50.969C71.6214 51.0076 71.7561 51.0501 71.8909 51.0952C71.9263 51.0409 71.98 50.9953 72.0547 50.9674C73.42 50.4611 74.9533 50.0794 76.3471 50.6973C76.3605 50.7032 76.3734 50.7097 76.3869 50.7156C76.3912 50.7134 76.3954 50.7113 76.3997 50.7091C77.8622 49.965 79.408 49.1784 81.0364 48.8585C81.0412 48.5331 80.9918 48.2056 80.893 47.8985C80.5537 46.8408 79.6796 46.3796 78.6493 46.1938C78.6606 46.8172 78.5543 47.4518 78.2306 47.9924C77.8649 48.6029 77.2131 49.0797 76.5162 49.2359C75.8199 49.3927 75.3286 49.0265 74.9743 48.4547C74.7601 48.109 74.6323 47.7551 74.5641 47.3541C74.5614 47.3369 74.5582 47.3192 74.5555 47.302C74.5099 47.6408 74.4342 47.9753 74.2452 48.2668C73.9461 48.7285 73.4769 48.8864 72.9475 48.8998C72.3703 48.9138 71.7255 48.9154 71.2085 48.6244C71.0501 48.5352 70.9207 48.4263 70.815 48.3033C70.3951 49.39 69.0185 49.6461 67.9619 49.3653C66.6503 49.0163 66.1875 47.6993 66.1601 46.4687C65.6833 46.5938 65.2098 46.7522 64.7411 46.9536C64.1924 47.1898 63.6565 47.513 63.307 48.0102C62.9307 48.5454 62.9119 49.215 63.2174 49.7862C63.488 50.292 63.9518 50.6877 64.434 51.0017C65.0058 50.766 65.6146 50.6195 66.2277 50.5357C67.9657 50.2984 69.8061 50.4826 71.4872 50.969Z" fill="#24193A"/>
<path d="M66.9793 51.3459C68.2265 50.6823 70.1083 50.1341 71.0903 51.5166C71.4087 51.9655 71.4806 52.4782 71.3577 52.9646C71.3679 52.9657 71.3786 52.9663 71.3888 52.9673C71.4119 52.9689 71.4355 52.9705 71.4586 52.9722C71.5332 52.9088 71.6063 52.8438 71.6771 52.7767C71.9751 52.4938 72.381 52.7246 72.4513 53.0275C72.5136 53.0296 72.5764 53.0318 72.6387 53.0334C72.7182 52.9818 72.7976 52.9297 72.8771 52.8782C74.0287 52.1244 75.1594 51.3427 76.3878 50.7161C76.3744 50.7102 76.3615 50.7038 76.3481 50.6979C74.9543 50.0799 73.4204 50.4616 72.0556 50.9679C71.981 50.9953 71.9273 51.0409 71.8919 51.0957C71.7571 51.0506 71.6224 51.0082 71.4881 50.9695C69.8071 50.4831 67.9667 50.2984 66.2298 50.5363C65.6167 50.62 65.0078 50.7661 64.436 51.0023C64.516 51.0544 64.5966 51.1043 64.6771 51.1521C65.1335 51.4227 65.6226 51.645 66.1203 51.8382C66.4021 51.6659 66.6883 51.5011 66.9793 51.3459Z" fill="#FF7761"/>
<path d="M80.652 20.895C79.8418 20.7087 78.986 20.6942 78.1699 20.859C78.0743 20.8783 77.9793 20.8993 77.8854 20.924C77.4344 21.0399 77.0032 21.2209 76.5931 21.4426C76.1732 21.6697 75.7748 21.9403 75.4006 22.2297C74.6688 22.795 74.0213 23.4517 73.3776 24.112C73.1167 24.3794 72.8563 24.6479 72.5916 24.9109C72.1916 25.3082 71.7803 25.6932 71.3411 26.0475C71.2799 26.0969 71.2187 26.1469 71.1559 26.1952C70.4456 26.7418 69.6913 27.182 68.7689 27.1514C67.9281 27.1235 67.126 26.7691 66.398 26.3745C65.6801 25.9853 65.0015 25.5305 64.3127 25.094C64.2208 25.036 64.129 24.9781 64.0367 24.9206C63.3629 24.5018 62.6451 24.0664 61.8692 23.8678C60.4749 23.5107 58.8009 23.8994 57.7212 24.853C57.1902 25.3222 56.8396 25.9611 56.78 26.6703C56.7097 27.5031 57.0565 28.2596 57.6047 28.8673C58.4804 29.838 59.5832 30.194 60.068 31.2135C60.1689 31.1684 60.2774 31.1411 60.388 31.1362C61.4623 31.0868 62.5334 30.9816 63.6099 30.9752C64.0614 30.9725 64.3959 31.3462 64.4152 31.7805C64.4345 32.217 64.0308 32.5832 63.6099 32.5859C62.5339 32.5923 61.4623 32.6975 60.388 32.7469C60.3284 32.7496 60.2704 32.7442 60.2151 32.733C60.1582 32.8167 60.0825 32.8881 60.0078 32.9579C59.5944 33.3418 59.1767 33.7359 58.8975 34.2261C58.6184 34.7162 58.4943 35.3262 58.7026 35.8502C58.766 36.0091 59.1762 36.066 59.6658 36.0724C60.3917 36.0816 61.2921 35.9796 61.4983 35.9318C62.4776 35.7041 63.3167 35.6236 64.3599 35.6053C66.6197 35.5656 68.8784 35.5012 71.1387 35.4754C73.1054 35.4534 75.0736 35.4609 77.0392 35.5409C77.9965 35.5796 78.9522 35.6204 79.9105 35.6274C80.0029 35.6279 80.1 35.636 80.1999 35.6462C80.7722 35.7052 81.4262 35.8427 81.6689 35.1608C81.8262 34.7189 81.6705 34.225 81.4428 33.8148C81.3317 33.6151 81.2034 33.4245 81.0595 33.2462C80.9242 33.0782 80.7722 32.9155 80.6326 32.7464C80.5945 32.7528 80.5564 32.7577 80.5183 32.7603C80.1978 32.7813 79.8525 32.6997 79.5385 32.6546C79.3538 32.6283 79.1696 32.6003 78.9849 32.5746C78.9747 32.573 78.8609 32.559 78.8759 32.5606C78.8024 32.552 78.7288 32.5434 78.6547 32.5381C78.0454 32.4914 77.4285 32.5311 76.818 32.5327C76.3665 32.5343 76.032 32.1628 76.0127 31.7274C75.9933 31.2914 76.3965 30.9231 76.818 30.922C77.6636 30.9193 78.4899 30.8936 79.3285 31.0101C79.4735 31.0299 79.6179 31.0514 79.7623 31.0723C79.8209 31.0809 79.8788 31.0895 79.9374 31.0976C79.9621 31.1013 80.0394 31.1115 80.0807 31.1169C80.136 31.1239 80.1913 31.1309 80.2466 31.1368C80.2665 31.1293 80.2869 31.1233 80.3073 31.1169C80.3551 30.9999 80.412 30.886 80.4743 30.7771C81.2522 29.4085 82.304 28.3004 83.0084 26.9635C83.3568 26.302 83.6205 25.5847 83.723 24.752C83.7413 24.6044 83.7499 24.4573 83.7515 24.3107C83.7547 23.878 83.6827 23.4533 83.5249 23.0597C83.4041 22.7585 83.2339 22.4745 83.0079 22.219C82.4033 21.5328 81.533 21.0979 80.652 20.895Z" fill="#24193A"/>
<path d="M80.3754 62.8715C79.9744 63.3026 79.3306 62.6562 79.7301 62.2262C80.3062 61.6061 81.2688 61.1228 81.5453 60.2799C81.6323 60.0147 81.8782 59.9304 82.0913 59.9755C82.0758 59.6324 82.05 59.3028 82.0167 58.9935C81.9737 58.5978 81.8921 58.1732 81.8068 57.735C81.6849 58.1834 81.4707 58.6118 81.2264 59.0037C80.7974 59.6915 80.2358 60.375 79.5309 60.7948C79.0246 61.0965 78.5661 60.3073 79.0702 60.0066C79.6195 59.6797 80.0576 59.1379 80.398 58.6059C80.704 58.1281 81.0873 57.4231 81.0079 56.8712C80.9724 56.6264 81.0642 56.3821 81.3268 56.3096C81.4003 56.2892 81.4852 56.2919 81.5657 56.3133C81.504 55.7883 81.49 55.2696 81.5813 54.7843C80.4119 55.9246 79.1948 57.0076 77.8123 57.8956C77.3162 58.2145 76.8588 57.4242 77.3516 57.1074C78.8973 56.1142 80.2439 54.8632 81.5265 53.5559C81.9872 53.0866 82.4639 52.6329 82.8779 52.1202C83.2075 51.7116 83.6634 51.0958 83.5844 50.5353C83.5501 50.2905 83.6403 50.0462 83.9033 49.9737C84.0096 49.9442 84.1396 49.9624 84.248 50.0172C84.1825 49.8014 84.0671 49.5957 83.8926 49.4073C83.3128 48.7818 82.4468 48.6637 81.6393 48.7608C81.4369 48.785 81.2355 48.8178 81.0353 48.857C79.4069 49.1769 77.8611 49.963 76.3986 50.7076C76.3943 50.7098 76.39 50.7119 76.3857 50.7141C75.1573 51.3406 74.0266 52.1223 72.875 52.8761C72.7961 52.9277 72.7166 52.9798 72.6366 53.0313C72.5776 53.07 72.518 53.1081 72.4584 53.1462C72.4514 53.2402 72.4095 53.3352 72.3198 53.42C71.7894 53.9231 71.1559 54.314 70.5637 54.7376C70.1105 55.0618 69.4136 55.523 69.2161 56.0105C69.1232 56.2398 68.9154 56.4009 68.6545 56.3295C68.4365 56.2693 68.2432 55.9966 68.3355 55.7679C68.6239 55.0559 69.2531 54.5743 69.8539 54.1303C70.3344 53.7749 70.853 53.4576 71.3207 53.0818C71.3336 53.042 71.3448 53.0029 71.355 52.9626C71.478 52.4762 71.4066 51.9634 71.0877 51.5146C70.1057 50.1321 68.2239 50.6802 66.9767 51.3438C66.6857 51.4985 66.3995 51.6633 66.1171 51.8351C64.5902 52.7634 63.1835 53.9183 61.8558 55.0967C60.3804 56.4068 58.9442 57.7807 57.5547 59.1814C56.1072 60.6407 54.889 62.333 53.6069 63.9351C53.5908 63.955 53.5747 63.9754 53.5586 63.9958H81.7558C81.9764 63.0857 82.0801 62.1021 82.1026 61.1594C81.6489 61.8251 80.9306 62.2745 80.3754 62.8715Z" fill="#9FA9FF"/>
<path d="M72.4508 53.0274C72.3799 52.7246 71.9745 52.4938 71.6766 52.7767C71.6057 52.8438 71.5327 52.9088 71.458 52.9721C71.4135 53.0097 71.3684 53.0468 71.3227 53.0838C70.8551 53.4596 70.3365 53.7769 69.8559 54.1324C69.2552 54.5764 68.6259 55.058 68.3376 55.7699C68.2453 55.9986 68.4385 56.2714 68.6565 56.3315C68.9174 56.4029 69.1252 56.2424 69.2181 56.0126C69.4157 55.5251 70.1126 55.0639 70.5657 54.7396C71.1584 54.316 71.792 53.9251 72.3219 53.422C72.411 53.3372 72.4529 53.2422 72.4604 53.1482C72.4636 53.1074 72.4599 53.0666 72.4508 53.0274Z" fill="#24193A"/>
<path d="M83.9045 49.9747C83.6414 50.0472 83.5512 50.291 83.5856 50.5363C83.6645 51.0968 83.2087 51.7127 82.879 52.1212C82.4651 52.6334 81.9883 53.0871 81.5276 53.5569C80.245 54.8642 78.8985 56.1152 77.3528 57.1084C76.8599 57.4247 77.3173 58.2155 77.8134 57.8966C79.1959 57.0086 80.4131 55.9262 81.5824 54.7853C81.8229 54.5507 82.0613 54.3139 82.2986 54.0755C83.2865 53.0839 84.6835 51.8415 84.4661 50.2936C84.4489 50.1701 84.3603 50.0751 84.2497 50.0187C84.1407 49.9634 84.0108 49.9457 83.9045 49.9747Z" fill="#24193A"/>
<path d="M81.3272 56.3101C81.0652 56.382 80.9734 56.6263 81.0083 56.8717C81.0878 57.4236 80.7044 58.1291 80.3984 58.6064C80.058 59.1379 79.6199 59.6796 79.0707 60.0072C78.5665 60.3073 79.025 61.0971 79.5313 60.7953C80.2357 60.3755 80.7978 59.692 81.2268 59.0042C81.4716 58.6118 81.6859 58.1833 81.8072 57.7356C81.9044 57.3769 81.9425 57.0054 81.8883 56.6295C81.8652 56.4685 81.7224 56.3563 81.5661 56.3144C81.4856 56.2929 81.4008 56.2902 81.3272 56.3101Z" fill="#24193A"/>
<path d="M81.5451 60.2798C81.2686 61.1227 80.306 61.6059 79.7299 62.2261C79.3304 62.6561 79.9742 63.3031 80.3752 62.8714C80.9304 62.2744 81.6487 61.825 82.1051 61.1619C82.2372 60.9697 82.3478 60.7593 82.4256 60.5225C82.5217 60.2299 82.3263 60.0248 82.0917 59.9754C81.878 59.9303 81.6321 60.0146 81.5451 60.2798Z" fill="#24193A"/>
<path d="M55.6776 39.328C55.0903 39.3109 55.0908 40.2236 55.6776 40.2408C56.2301 40.2569 56.8078 40.193 57.3688 40.0496C58.375 39.7925 59.3264 39.277 59.9733 38.4964C60.1306 38.3069 60.1591 38.0368 59.9733 37.851C59.8117 37.6894 59.4858 37.6605 59.328 37.851C58.9672 38.2859 58.5038 38.6215 57.9906 38.862C57.8005 38.9511 57.6035 39.0274 57.4021 39.0907C56.8411 39.2668 56.2473 39.3447 55.6776 39.328Z" fill="#24193A"/>
<path d="M54.4966 41.7979C53.9092 41.7995 53.9082 42.7122 54.4966 42.7106C55.1167 42.7084 55.7449 42.5646 56.3285 42.352C56.3848 42.3315 56.4407 42.3106 56.496 42.2891C57.1365 42.0384 57.7958 41.7087 58.2554 41.1815C58.6398 40.7402 57.9966 40.0922 57.61 40.5362C57.4007 40.7767 57.1397 40.9694 56.8584 41.1268C56.6404 41.2492 56.4101 41.3501 56.1814 41.4365C55.6461 41.639 55.0727 41.7963 54.4966 41.7979Z" fill="#24193A"/>
<path d="M81.4329 39.2121C81.9069 39.4757 82.4041 39.6926 82.919 39.8371C83.4489 39.9858 83.9987 40.0583 84.5624 40.026C85.1466 39.9928 85.1503 39.08 84.5624 39.1133C83.7173 39.1611 82.9319 38.9469 82.1883 38.5786C82.0895 38.5297 81.9912 38.4782 81.8935 38.424C81.3797 38.1383 80.919 38.9259 81.4329 39.2121Z" fill="#24193A"/>
<path d="M83.0326 40.8583C83.0434 41.1025 83.2334 41.3178 83.489 41.3146C83.5362 41.3141 83.5829 41.3141 83.6302 41.3168C83.6544 41.3178 83.678 41.3205 83.7021 41.3227C83.7027 41.3227 83.7037 41.3227 83.7043 41.3227C83.708 41.3232 83.7123 41.3243 83.7177 41.3248C83.8176 41.3506 83.9147 41.371 84.0125 41.4054C84.238 41.4854 84.522 41.3152 84.5741 41.0864C84.6326 40.8303 84.4967 40.6108 84.2551 40.5249C84.0108 40.4379 83.7488 40.3976 83.4895 40.4014C83.4095 40.4024 83.3311 40.4266 83.2619 40.4669C83.1244 40.5474 83.0251 40.6929 83.0326 40.8583Z" fill="#24193A"/>
<path d="M80.0804 31.1164C80.0391 31.111 79.9618 31.1008 79.9371 31.0971C79.8786 31.0885 79.8206 31.0799 79.7621 31.0718C79.6176 31.0509 79.4727 31.0294 79.3282 31.0095C78.4896 30.893 77.6628 30.9188 76.8177 30.9215C76.3963 30.9226 75.9931 31.2909 76.0124 31.7268C76.0317 32.1623 76.3662 32.5338 76.8177 32.5322C77.4282 32.5306 78.0451 32.4908 78.6544 32.5375C78.7285 32.5429 78.8021 32.552 78.8756 32.5601C78.8606 32.5585 78.9744 32.573 78.9846 32.5741C79.1693 32.5998 79.3535 32.6277 79.5382 32.6541C79.8523 32.6992 80.1975 32.7808 80.518 32.7598C80.5561 32.7571 80.5942 32.7523 80.6324 32.7459C80.9583 32.6906 81.2589 32.4924 81.3448 32.1499C81.4436 31.7542 81.253 31.4063 80.9298 31.1921C80.744 31.0691 80.5153 31.0541 80.3081 31.1164C80.2877 31.1223 80.2673 31.1282 80.2474 31.1363C80.191 31.1298 80.1357 31.1228 80.0804 31.1164Z" fill="#9FA9FF"/>
<path d="M59.5818 31.941C59.5979 32.305 59.8529 32.6583 60.2143 32.7324C60.2696 32.7437 60.327 32.7491 60.3871 32.7464C61.4615 32.697 62.5326 32.5918 63.609 32.5853C64.03 32.5826 64.4337 32.2165 64.4144 31.78C64.3951 31.3456 64.0606 30.9719 63.609 30.9746C62.5331 30.9811 61.4615 31.0863 60.3871 31.1357C60.2771 31.1405 60.1681 31.1679 60.0671 31.213C59.7837 31.3397 59.5668 31.6098 59.5818 31.941Z" fill="#9FA9FF"/>
</g>
<path d="M37.186 100L37.006 98.788C36.874 98.824 36.718 98.836 36.55 98.836C35.998 98.836 35.794 98.584 35.794 98.116V95.38H37.15L36.97 94.204H35.794V92.152L34.366 92.368V94.204H33.55V95.38H34.366V98.356C34.366 99.676 35.134 100.096 36.274 100.096C36.694 100.096 36.958 100.048 37.186 100ZM43.2053 100V95.824C43.2053 94.744 42.6293 94.084 41.5493 94.084C40.7813 94.084 40.1813 94.492 39.7013 94.936V91.336L38.2613 91.564V100H39.7013V96.088C40.1213 95.644 40.5773 95.356 41.0213 95.356C41.5493 95.356 41.7653 95.704 41.7653 96.208V100H43.2053ZM46.952 95.08C47.648 95.08 48.008 95.584 48.104 96.484H45.788C45.896 95.548 46.376 95.08 46.952 95.08ZM49.496 99.412L49.328 98.284C48.692 98.728 48.08 99.004 47.336 99.004C46.448 99.004 45.836 98.512 45.776 97.384H49.496C49.496 97.3 49.508 97.156 49.508 97.036C49.508 95.392 48.728 94.084 46.988 94.084C45.476 94.084 44.348 95.224 44.348 97.108C44.348 99.196 45.56 100.12 47.18 100.12C48.116 100.12 48.872 99.844 49.496 99.412ZM53.8155 96.088C53.8155 96.724 53.4315 97.192 52.7955 97.192C52.1715 97.192 51.7875 96.736 51.7875 96.136C51.7875 95.5 52.1595 95.008 52.7955 95.008C53.4075 95.008 53.8155 95.476 53.8155 96.088ZM55.8675 100.24C55.8675 99.352 55.1235 98.98 53.9355 98.812L53.1915 98.74C52.2915 98.608 52.1115 98.56 52.1115 98.368C52.1115 98.272 52.2075 98.164 52.3515 98.056C52.4955 98.08 52.6515 98.092 52.8195 98.092C54.0675 98.092 55.1355 97.348 55.1355 96.1C55.1355 95.836 55.0875 95.572 54.9795 95.344L56.0355 95.272L55.8435 94.12L54.4275 94.624C54.0075 94.276 53.4555 94.084 52.7835 94.084C51.4875 94.084 50.4555 94.864 50.4555 96.136C50.4555 96.904 50.8635 97.504 51.5475 97.828C51.0675 98.116 50.8155 98.428 50.8155 98.752C50.8155 98.98 50.9235 99.196 51.1515 99.376C50.4315 99.784 50.0595 100.204 50.0595 100.744C50.0595 101.704 51.2475 102.184 52.8195 102.184C54.4995 102.184 55.8675 101.488 55.8675 100.24ZM52.9155 101.332C51.8235 101.332 51.3075 101.02 51.3075 100.588C51.3075 100.288 51.4995 100.012 51.9195 99.712C52.2075 99.772 52.3875 99.808 52.7835 99.856L53.5635 99.952C54.2835 100.06 54.5355 100.24 54.5355 100.552C54.5355 100.984 53.9475 101.332 52.9155 101.332ZM61.8381 100V95.824C61.8381 94.744 61.2621 94.084 60.1821 94.084C59.4021 94.084 58.7901 94.504 58.2501 95.02L58.1181 94.204H56.8941V100H58.3341V96.088C58.7541 95.644 59.2101 95.356 59.6541 95.356C60.1821 95.356 60.3981 95.704 60.3981 96.208V100H61.8381ZM66.4488 98.404C66.0528 98.788 65.5848 99.028 65.0928 99.028C64.6488 99.028 64.3848 98.776 64.3848 98.356C64.3848 97.804 64.7808 97.312 66.4488 97.108V98.404ZM67.8888 100V96.028C67.8888 94.636 67.1448 94.084 65.6448 94.084C64.7208 94.084 64.0128 94.288 63.3408 94.552L63.5208 95.704C64.1448 95.428 64.7808 95.236 65.4528 95.236C66.0888 95.236 66.4488 95.476 66.4488 96.1V96.268C64.1088 96.496 62.9568 97.108 62.9568 98.512C62.9568 99.52 63.6168 100.12 64.6008 100.12C65.4648 100.12 66.0648 99.736 66.5328 99.244L66.6528 100H67.8888ZM72.808 95.512L72.58 94.084C71.68 94.132 71.104 94.696 70.72 95.368L70.54 94.204H69.316V100H70.756V96.676C71.176 96.052 71.908 95.572 72.808 95.512ZM76.9125 92.632L76.7205 91.444C76.5525 91.42 76.3485 91.408 76.1325 91.408C74.9445 91.408 74.1285 91.876 74.1285 93.16V94.204H73.2885V95.38H74.1285V100H75.5565V95.38H76.8405L76.6605 94.204H75.5565V93.304C75.5565 92.8 75.8205 92.584 76.3125 92.584C76.5525 92.584 76.7685 92.608 76.9125 92.632ZM79.9026 96.928L80.2026 94.96H82.0506L81.7386 96.928H79.9026ZM81.2346 100.024H82.2426L82.5426 98.116H84.2826L84.0906 96.904H82.7346L83.0346 94.984H84.4986V93.772H83.2266L83.5026 92.008L82.5426 91.792L82.2306 93.772H80.4066L80.7066 91.864H79.7106L79.4106 93.772H77.6586L77.8626 94.984H79.2186L78.9066 96.904H77.4426V98.116H78.7146L78.4386 99.88L79.3986 100.096L79.7106 98.116H81.5466L81.2346 100.024ZM87.7745 100.084L90.9065 93.076V91.888H85.3625L85.5545 93.208H89.2745L86.2985 99.796L87.7745 100.084ZM94.1964 100.084L97.3284 93.076V91.888H91.7844L91.9764 93.208H95.6964L92.7204 99.796L94.1964 100.084ZM100.618 100.084L103.75 93.076V91.888H98.2063L98.3983 93.208H102.118L99.1423 99.796L100.618 100.084ZM107.04 100.084L110.172 93.076V91.888H104.628L104.82 93.208H108.54L105.564 99.796L107.04 100.084Z" fill="#B9BBBE"/>
<path d="M60.7515 79.436C60.7515 80.178 60.3035 80.724 59.5615 80.724C58.8335 80.724 58.3855 80.192 58.3855 79.492C58.3855 78.75 58.8195 78.176 59.5615 78.176C60.2755 78.176 60.7515 78.722 60.7515 79.436ZM63.1455 84.28C63.1455 83.244 62.2775 82.81 60.8915 82.614L60.0235 82.53C58.9735 82.376 58.7635 82.32 58.7635 82.096C58.7635 81.984 58.8755 81.858 59.0435 81.732C59.2115 81.76 59.3935 81.774 59.5895 81.774C61.0455 81.774 62.2915 80.906 62.2915 79.45C62.2915 79.142 62.2355 78.834 62.1095 78.568L63.3415 78.484L63.1175 77.14L61.4655 77.728C60.9755 77.322 60.3315 77.098 59.5475 77.098C58.0355 77.098 56.8315 78.008 56.8315 79.492C56.8315 80.388 57.3075 81.088 58.1055 81.466C57.5455 81.802 57.2515 82.166 57.2515 82.544C57.2515 82.81 57.3775 83.062 57.6435 83.272C56.8035 83.748 56.3695 84.238 56.3695 84.868C56.3695 85.988 57.7555 86.548 59.5895 86.548C61.5495 86.548 63.1455 85.736 63.1455 84.28ZM59.7015 85.554C58.4275 85.554 57.8255 85.19 57.8255 84.686C57.8255 84.336 58.0495 84.014 58.5395 83.664C58.8755 83.734 59.0855 83.776 59.5475 83.832L60.4575 83.944C61.2975 84.07 61.5915 84.28 61.5915 84.644C61.5915 85.148 60.9055 85.554 59.7015 85.554ZM70.1113 84V79.128C70.1113 77.868 69.4393 77.098 68.1793 77.098C67.2693 77.098 66.5553 77.588 65.9253 78.19L65.7713 77.238H64.3433V84H66.0233V79.436C66.5133 78.918 67.0453 78.582 67.5633 78.582C68.1793 78.582 68.4313 78.988 68.4313 79.576V84H70.1113ZM75.4904 82.138C75.0284 82.586 74.4824 82.866 73.9084 82.866C73.3904 82.866 73.0824 82.572 73.0824 82.082C73.0824 81.438 73.5444 80.864 75.4904 80.626V82.138ZM77.1704 84V79.366C77.1704 77.742 76.3024 77.098 74.5524 77.098C73.4744 77.098 72.6484 77.336 71.8644 77.644L72.0744 78.988C72.8024 78.666 73.5444 78.442 74.3284 78.442C75.0704 78.442 75.4904 78.722 75.4904 79.45V79.646C72.7604 79.912 71.4164 80.626 71.4164 82.264C71.4164 83.44 72.1864 84.14 73.3344 84.14C74.3424 84.14 75.0424 83.692 75.5884 83.118L75.7284 84H77.1704ZM82.9094 78.764L82.6434 77.098C81.5934 77.154 80.9214 77.812 80.4734 78.596L80.2634 77.238H78.8354V84H80.5154V80.122C81.0054 79.394 81.8594 78.834 82.9094 78.764ZM87.6981 75.404L87.4741 74.018C87.2781 73.99 87.0401 73.976 86.7881 73.976C85.4021 73.976 84.4501 74.522 84.4501 76.02V77.238H83.4701V78.61H84.4501V84H86.1161V78.61H87.6141L87.4041 77.238H86.1161V76.188C86.1161 75.6 86.4241 75.348 86.9981 75.348C87.2781 75.348 87.5301 75.376 87.6981 75.404Z" fill="white"/>
</svg>
