<svg enable-background="new 0 0 114.6 85.5" viewBox="0 0 114.6 85.5" xmlns="http://www.w3.org/2000/svg" xmlns:xlink="http://www.w3.org/1999/xlink"><filter id="a" filterUnits="userSpaceOnUse" height="85.5" width="91.9" x="-36.1" y="-36.5"><feColorMatrix values="1 0 0 0 0 0 1 0 0 0 0 0 1 0 0 0 0 0 1 0"/></filter><mask id="b" height="85.5" maskUnits="userSpaceOnUse" width="91.9" x="-36.1" y="-36.5"><g filter="url(#a)"><path d="m-36.1 49h91.9v-85.5h-91.9z" fill="#fff"/></g></mask><g transform="translate(37 36)"><path d="m-1.4-20.4h35l-15.9-13.6c-.9-.8-2.2-.8-3.2 0zm-14.7 26.4v-13.9l-9.1 7.8z" fill="#fff"/><path d="m40.8-8.8c-.2-.4 0-.8.3-1 1.9-.9 3.8-1.4 5.8-1.6v-5.5c0-1.2-1-2.1-2.1-2.1h-57.3c-1.2 0-2.1 1-2.1 2.1v23.8l6.9 4.6c.3.2.4.7.2 1l3 2c.2-.3.7-.4 1-.2l19.8 13.2 18.7-12.7c-.6-.8-1.1-1.7-1.6-2.6a16.4 16.4 0 0 1 -.3-13.7c.2-.4.6-.5.9-.4 1.5-2.9 3.8-5.3 6.8-6.9" fill="#f7f7f8"/><path d="m55.5 46.8-27.6-25.5-6.8 4.6c-3 2-7 2-10 0l-6.8-4.6-27.6 25.6c-.5.4-.2 1.2.5 1.2h77.8c.7 0 1-.8.5-1.3" fill="#f7f7f8"/><path d="m48.3 21.5c-4.7 0-9.2-2-12.4-5.6l-6.8 4.5 25.2 23.4c1.4 1.3 3.6.3 3.6-1.6v-23.8a16.33 16.33 0 0 1 -9.6 3.1m-55.9-9c-.2.3-.7.4-1 .2l-17.1-11.4v41c0 1.9 2.2 2.8 3.6 1.6l25.2-23.4-7.5-5c-.3-.2-.4-.7-.2-1z" fill="#dcddde"/><path d="m41.8-8.5c-.3.2-.8 0-.9-.3-3 1.6-5.3 4.1-6.7 6.9.3.2.5.6.3.9a15.04 15.04 0 0 0 20.3 19.6c3.6-1.7 6.4-4.8 7.7-8.6s1.1-7.9-.6-11.5a15.07 15.07 0 0 0 -20.1-7" fill="#fff"/></g><path d="m54.1 7.4c-1.1 5.5-4.9 9.8-10.2 11.5-5.6 1.8-11.9.2-15.8-4.2-4-4.5-4.9-10.8-2.6-16.1.2-.4 0-.8-.3-.9-.4-.2-.8 0-.9.4-1.9 4.4-1.8 9.4.3 13.7.8 1.6.2 3.5-1.2 4.5l-13 8.6a5.58 5.58 0 0 1 -6.3 0l-16.6-11.1c-.3-.2-.8-.1-1 .2s-.1.8.2 1l7.5 5-25.2 23.4c-1.4 1.3-3.6.3-3.6-1.6v-36.2c0-2.1 2.3-3.3 4-2.1l13.1 8.7c.3.2.8.1 1-.2s.1-.8-.2-1l-3.1-2a8.43 8.43 0 0 1 -3.8-7.1v-19.3c0-1.2 1-2.1 2.1-2.1h57.3c1.2 0 2.1 1 2.1 2.1v5.5a18 18 0 0 0 -5.8 1.6c-.4.2-.5.6-.3.9.2.4.6.6 1 .4 8.3-4 18.5.3 21.1 9.6.5 2.2.6 4.5.2 6.8zm-8.7 36-25.3-23.4 6.8-4.5a16.56 16.56 0 0 0 19.5 4c1.1-.6 2.5.2 2.5 1.5v20.9c0 1.8-2.2 2.7-3.5 1.5zm-77.7 3 25.5-23.7c1.2-1.1 3-1.3 4.4-.3l7.5 5c1.2.8 2.7.8 3.9 0l7.5-5c1.4-.9 3.2-.8 4.4.3l25.5 23.7c.5.4.2 1.2-.5 1.2h-77.8c-.5 0-.9-.8-.4-1.2zm7.2-51.7v8.2c0 1.1-1.3 1.8-2.2 1.2l-4.6-3.1c-1.2-.8-1.3-2.5-.2-3.4l4.7-4c.9-.8 2.3-.1 2.3 1.1zm30.6-29.2c.9-.8 2.2-.8 3.2 0l13 11.1c1 .9.4 2.5-.9 2.5h-27.3c-1.3 0-1.9-1.6-.9-2.5zm33.8 20v-2.9c0-2-1.6-3.5-3.5-3.5h-7.4c-1 0-2-.4-2.8-1l-16-13.6a3.92 3.92 0 0 0 -5 0l-16 13.6c-.8.7-1.7 1-2.8 1h-7.4c-2 0-3.5 1.6-3.5 3.5v5.8c0 .8-.4 1.6-1 2.2l-9.8 8.3c0 .1-.1.2-.1.2v.1c0 .1 0 .1-.1.2v49.2c0 .1.1.1.1.1s0 .1.1.1c.1.1.1.1.2.1s.2.1.3.1h85.1c.1 0 .2 0 .3-.1.1 0 .1-.1.2-.1 0 0 0-.1.1-.1l.1-.1v-31.8a16.54 16.54 0 0 0 4.8-16.6c-1.9-6.7-7.3-11-13.4-11.9a2.9 2.9 0 0 1 -2.5-2.8z" fill="#b9bbbe" mask="url(#b)" transform="translate(46 36.49)"/><path d="m46.2 6.5h4.2c.4 0 .8-.3.8-.8l.3-8.3c0-.4-.3-.8-.8-.8h-4.7c-.4 0-.8.4-.8.8l.3 8.3c-.1.4.3.8.7.8m2.1 1.7c-1.7 0-3.1 1.4-3.1 3.1s1.4 3.1 3.1 3.1 3.1-1.4 3.1-3.1c0-1.8-1.4-3.1-3.1-3.1m21.1-21.3-1.7 1.7c-.3.3-.3.7 0 1 .1.1.3.2.5.2s.4-.1.5-.2l1.7-1.7c.3-.3.3-.7 0-1a.9.9 0 0 0 -1 0m-6.9-.2h.2c.3 0 .6-.2.7-.5l.6-2.3c.1-.4-.1-.8-.5-.9s-.8.1-.9.5l-.6 2.3c-.1.4.1.8.5.9m11.9 7.2c-.1-.4-.5-.6-.9-.5l-2.3.6c-.4.1-.6.5-.5.9.1.3.4.5.7.5h.2l2.3-.6c.4-.2.6-.6.5-.9m-98.3-26.6c-.6 0-1.1-.5-1.1-1.1 0-.4-.3-.7-.7-.7s-.7.3-.7.7c0 .6-.5 1.1-1.1 1.1-.4 0-.7.3-.7.7s.3.7.7.7c.6 0 1.1.5 1.1 1.1 0 .4.3.7.7.7s.7-.3.7-.7c0-.6.5-1.1 1.1-1.1.4 0 .7-.3.7-.7s-.3-.7-.7-.7m100 54.6c.2 0 .4-.1.5-.2l.8-.8c.3-.3.3-.7 0-1s-.7-.3-1 0l-.8.8c-.3.3-.3.7 0 1 .1.1.3.2.5.2m-4.2 4.2c.2 0 .4-.1.5-.2l.8-.8c.3-.3.3-.7 0-1s-.7-.3-1 0l-.8.8c-.3.3-.3.7 0 1 .1.1.3.2.5.2m4.7-2.1c-.3-.3-.7-.3-1 0s-.3.7 0 1l.8.8c.1.1.3.2.5.2s.4-.1.5-.2c.3-.3.3-.7 0-1zm-4.4-2.3c.1.1.3.2.5.2s.4-.1.5-.2c.3-.3.3-.7 0-1l-.8-.8c-.3-.3-.7-.3-1 0s-.3.7 0 1zm-106.7-38c.6 0 1.1.5 1.1 1.1s-.5 1.1-1.1 1.1-1.1-.5-1.1-1.1.5-1.1 1.1-1.1m0 3.6c1.4 0 2.5-1.1 2.5-2.5s-1.1-2.5-2.5-2.5-2.5 1.1-2.5 2.5 1.1 2.5 2.5 2.5" fill="#b9bbbe" transform="translate(37 36)"/></svg>