<svg width="660" height="100" fill="none" xmlns="http://www.w3.org/2000/svg">
  <g clip-path="url(#clip0)">
    <path d="M606.29 100H492.21a18.522 18.522 0 0118.53-18.49h24.08a3.208 3.208 0 003.21-3.2 22.478 22.478 0 0122.51-22.47h.88a22.485 22.485 0 0115.912 6.57 22.484 22.484 0 016.598 15.9v6.74a6.458 6.458 0 006.46 6.44h7.34a8.503 8.503 0 018.56 8.51z" fill="#fff" fill-opacity=".2"/>
    <path opacity=".75" d="M309 23.86a14.561 14.561 0 00-4.233-10.3 14.56 14.56 0 00-10.277-4.29h-15.14a14.542 14.542 0 00-14.52 14.59 2.922 2.922 0 01-2.92 2.92h-4.53a12.454 12.454 0 00-11.514 7.713 12.46 12.46 0 00-.936 4.777h84a10.002 10.002 0 00-9.95-10h-4.56a5.42 5.42 0 01-5.42-5.41zm124.13 25.67h51a9.31 9.31 0 00-9.39-9.22h-5.41a1.612 1.612 0 01-1.62-1.59 11.291 11.291 0 00-11.4-11.19h-.45a11.303 11.303 0 00-10.508 6.874 11.297 11.297 0 00-.902 4.316v3.36a3.25 3.25 0 01-.97 2.282 3.243 3.243 0 01-2.3.928h-3.72a4.273 4.273 0 00-3.991 2.601 4.273 4.273 0 00-.339 1.64zM22.26 18.79a1.62 1.62 0 01-1.63-1.6A11.29 11.29 0 009.23 6h-.45A11.45 11.45 0 000 10.06V28h37.06a9.31 9.31 0 00-9.39-9.21h-5.41zM389.42 12c0-3-2.17-5.46-4.86-5.46h-5.06c-2.68 0-4.85 2.44-4.85 5.46a1 1 0 01-1 1.1h-1.51a4.43 4.43 0 00-4.14 4.63h28.08a3.559 3.559 0 00-3.33-3.73h-1.52a1.928 1.928 0 01-1.81-2z" fill="#fff" fill-opacity=".2"/>
  </g>
  <defs>
    <clipPath id="clip0">
      <path fill="#fff" d="M0 0h660v100H0z"/>
    </clipPath>
  </defs>
</svg>
