<svg xmlns="http://www.w3.org/2000/svg" width="267" height="120" viewBox="0 0 267 120">
  <g fill="none" fill-rule="evenodd">
    <path fill="#9CB8FF" d="M257.899475 62.4902034C254.226763 51.5722373 242.771847 48.9790169 232.510831 47.3722373 212.839475 44.2918983 191.282186 43.5668136 172.09439 38.3915593 159.878797 35.0971525 149.209475 25.3369831 139.245407 18.007322 96.3693051-13.5338644 51.8579492 12.7908814 44.0640508 21.6047797 35.1667627 31.6654576 18.0621864 53.7927458 13.0384576 75.2651186 8.16066102 96.1125763 23.7154068 116.189695 45.1115085 116.962068 61.8891356 117.567661 88.1391356 118.337492 104.054898 117.924102 130.729475 117.230542 157.403542 118.062407 184.078119 117.368847 197.049305 117.031729 210.823881 116.800373 223.339983 113.000542 233.09761 110.038169 242.233881 104.037153 248.964559 96.4013898 255.768458 88.6827458 260.184051 78.688678 259.119305 68.2517288 258.919983 66.2946102 258.526932 64.3552881 257.899475 62.4902034M234.778017 17.8755254C233.897339 17.0655254 232.562085 16.4385763 230.667 16.0851864 218.727508 13.8595932 207.174966 11.6319661 195.601068 8.07061017 193.407 7.44518644 191.124966 6.81366102 188.873441 7.18027119 184.741068 7.85349153 183.311746 11.6278983 184.285983 15.2873898 186.612763 24.0214576 197.669034 30.9789153 205.749203 33.2599322 212.481407 35.1611186 221.752424 35.4529831 228.129712 32.0523051 233.142254 29.3792542 238.872763 21.6428136 234.778017 17.8755254"/>
    <path fill="#000000" d="M263.50139,63.949322 L251.298,69.8069492 L239.09461,63.949322 L239.09461,62.2352542 L263.50139,62.2352542 L263.50139,63.949322 Z M263.50139,75.6645763 L252.473085,70.3708475 L263.50139,65.0771186 L263.50139,75.6645763 Z M239.09461,78.5064407 L239.09461,76.7923729 L251.298,70.9347458 L263.50139,76.7923729 L263.50139,78.5064407 L239.09461,78.5064407 Z M239.09461,98.8454237 L263.50139,98.8454237 L263.50139,82.5742373 L239.09461,82.5742373 L239.09461,98.8454237 Z M263.50139,104.627288 L251.298,110.484915 L239.09461,104.627288 L239.09461,102.91322 L263.50139,102.91322 L263.50139,104.627288 Z M252.473085,111.048814 L263.50139,105.755085 L263.50139,116.342542 L252.473085,111.048814 Z M239.09461,116.342542 L239.09461,105.755085 L250.122915,111.048814 L239.09461,116.342542 Z M213.670881,98.8454237 L213.670881,97.1313559 L225.874271,91.2737288 L238.077661,97.1313559 L238.077661,98.8454237 L213.670881,98.8454237 Z M212.653932,104.61 L200.414441,110.484915 L188.247153,104.644576 L188.247153,102.91322 L212.653932,102.91322 L212.653932,104.61 Z M201.589525,111.048814 L212.653932,105.737797 L212.653932,116.359831 L201.589525,111.048814 Z M188.247153,116.325254 L188.247153,105.772373 L199.239864,111.048814 L188.247153,116.325254 Z M188.247153,62.2352542 L212.653932,62.2352542 L212.653932,78.5064407 L210.620034,78.5064407 L210.620034,82.5742373 L212.653932,82.5742373 L212.653932,98.8454237 L188.247153,98.8454237 L188.247153,62.2352542 Z M188.247153,56.4361017 L200.414441,50.5957627 L212.653932,56.470678 L212.653932,58.1674576 L188.247153,58.1674576 L188.247153,56.4361017 Z M188.247153,44.7554237 L199.239864,50.0318644 L188.247153,55.3083051 L188.247153,44.7554237 Z M212.653932,41.8962712 L212.653932,43.5930508 L200.414441,49.4679661 L188.247153,43.6276271 L188.247153,41.8962712 L212.653932,41.8962712 Z M212.653932,55.3428814 L201.589525,50.0318644 L212.653932,44.7208475 L212.653932,55.3428814 Z M213.670881,85.4161017 L224.699186,90.7098305 L213.670881,96.0035593 L213.670881,85.4161017 Z M238.077661,96.0035593 L227.049356,90.7098305 L238.077661,85.4161017 L238.077661,96.0035593 Z M238.077661,82.5742373 L238.077661,84.2883051 L225.874271,90.1459322 L213.670881,84.2883051 L213.670881,82.5742373 L238.077661,82.5742373 Z M239.09461,65.0771186 L250.122915,70.3708475 L239.09461,75.6645763 L239.09461,65.0771186 Z M266.552237,62.2352542 L266.552237,58.1674576 L236.043763,58.1674576 L236.043763,62.2352542 L238.077661,62.2352542 L238.077661,78.5064407 L213.670881,78.5064407 L213.670881,62.2352542 L215.70478,62.2352542 L215.70478,58.1674576 L213.670881,58.1674576 L213.670881,41.8962712 L215.70478,41.8962712 L215.70478,37.8284746 L185.196305,37.8284746 L185.196305,41.8962712 L187.230203,41.8962712 L187.230203,43.7659322 C187.190034,43.8818644 187.188508,44.0023729 187.230203,44.1111864 L187.230203,55.9525424 C187.188508,56.0613559 187.190034,56.1818644 187.230203,56.2977966 L187.230203,58.1674576 L185.196305,58.1674576 L185.196305,62.2352542 L187.230203,62.2352542 L187.230203,98.8454237 L185.196305,98.8454237 L185.196305,102.91322 L187.230203,102.91322 L187.230203,104.782881 C187.190034,104.898814 187.188508,105.019322 187.230203,105.128136 L187.230203,116.969492 C187.188508,117.078305 187.190034,117.198814 187.230203,117.314746 L187.230203,118.167458 C187.230203,118.448136 187.458,118.675932 187.738678,118.675932 C188.019356,118.675932 188.247153,118.448136 188.247153,118.167458 L188.247153,117.453051 L200.414441,111.612712 L212.653932,117.487627 L212.653932,118.167458 C212.653932,118.448136 212.881729,118.675932 213.162407,118.675932 C213.443085,118.675932 213.670881,118.448136 213.670881,118.167458 L213.670881,102.91322 L238.077661,102.91322 L238.077661,119.184407 C238.077661,119.465085 238.305458,119.692881 238.586136,119.692881 C238.866814,119.692881 239.09461,119.465085 239.09461,119.184407 L239.09461,117.470339 L251.298,111.612712 L263.50139,117.470339 L263.50139,119.184407 C263.50139,119.465085 263.729186,119.692881 264.009864,119.692881 C264.290542,119.692881 264.518339,119.465085 264.518339,119.184407 L264.518339,102.91322 L266.552237,102.91322 L266.552237,98.8454237 L264.518339,98.8454237 L264.518339,82.5742373 L266.552237,82.5742373 L266.552237,78.5064407 L264.518339,78.5064407 L264.518339,62.2352542 L266.552237,62.2352542 Z"/>
    <path fill="#000000" d="M193.037186 38.9322712C192.756508 38.9322712 192.528712 38.7044746 192.528712 38.4237966L192.528712 33.5404068C192.528712 33.2597288 192.756508 33.0319322 193.037186 33.0319322 193.317864 33.0319322 193.545661 33.2597288 193.545661 33.5404068L193.545661 38.4237966C193.545661 38.7044746 193.317864 38.9322712 193.037186 38.9322712M190.866712 38.9322712C190.586034 38.9322712 190.358237 38.7044746 190.358237 38.4237966L190.358237 33.5404068C190.358237 33.2597288 190.586034 33.0319322 190.866712 33.0319322 191.14739 33.0319322 191.375186 33.2597288 191.375186 33.5404068L191.375186 38.4237966C191.375186 38.7044746 191.14739 38.9322712 190.866712 38.9322712"/>
    <path fill="#000000" d="M194.312847 27.2318644L194.312847 25.9271186C194.312847 24.6233898 193.255729 23.5662712 191.952 23.5662712 190.648271 23.5662712 189.591153 24.6233898 189.591153 25.9271186L189.591153 27.2318644C189.591153 27.9264407 189.429458 28.6108475 189.119288 29.2322034 188.80861 29.8530508 188.646915 30.5374576 188.646915 31.2320339 188.646915 32.9959322 190.076746 34.4257627 191.840644 34.4257627L192.063356 34.4257627C193.827254 34.4257627 195.257085 32.9959322 195.257085 31.2320339 195.257085 30.5379661 195.09539 29.8530508 194.78522 29.2327119L194.784712 29.2316949C194.474034 28.6108475 194.312847 27.9259322 194.312847 27.2318644M161.541814 115.005305C136.43639 126.533949 106.738424 115.528017 95.2097797 90.4231017 83.6811356 65.317678 94.6865593 35.6197119 119.791983 24.0910678 144.897407 12.5624237 174.594864 23.5678475 186.124017 48.6732712 197.652661 73.7786949 186.647237 103.476153 161.541814 115.005305"/>
    <path fill="#7687B2" d="M154.232237,99.0881695 C137.917831,106.580034 118.618678,99.4278305 111.126814,83.1134237 C103.634949,66.7990169 110.787153,47.5003729 127.101559,40.0085085 C143.415966,32.5161356 162.715119,39.668339 170.206983,55.9827458 C177.698847,72.2971525 170.546644,91.5963051 154.232237,99.0881695"/>
    <path fill="#353940" d="M152.145203,94.5434237 C138.340627,100.883085 122.010966,94.8312203 115.671305,81.0266441 C109.332153,67.2220678 115.384017,50.8924068 129.188593,44.5527458 C142.992661,38.2135932 159.322831,44.2654576 165.661983,58.0700339 C172.001644,71.8741017 165.94978,88.2042712 152.145203,94.5434237"/>
    <path fill="#EBEFF7" d="M152.145203,94.5434237 C138.340627,100.883085 122.010966,94.8312203 115.671305,81.0266441 C109.332153,67.2220678 115.384017,50.8924068 129.188593,44.5527458 C142.992661,38.2135932 159.322831,44.2654576 165.661983,58.0700339 C172.001644,71.8741017 165.94978,88.2042712 152.145203,94.5434237"/>
    <path fill="#DAE2ED" d="M150.319119,90.567 C138.710644,95.8978475 124.97878,90.8090339 119.647932,79.2005593 C114.317085,67.5920847 119.406407,53.8602203 131.014373,48.5293729 C142.622847,43.1985254 156.354712,48.2878475 161.685559,59.8958136 C167.016407,71.5042881 161.927593,85.2361525 150.319119,90.567"/>
    <path fill="#C5CEDD" d="M150.655017,55.8598983 L157.964339,68.5204068 C158.411288,69.2943051 158.411288,70.2476949 157.964339,71.0215932 L150.655017,83.6826102 C150.208068,84.456 149.382814,84.9329492 148.488915,84.9329492 L133.869763,84.9329492 C132.975864,84.9329492 132.150102,84.456 131.703661,83.6826102 L124.393831,71.0215932 C123.94739,70.2476949 123.94739,69.2943051 124.393831,68.5204068 L131.703661,55.8598983 C132.150102,55.086 132.975864,54.6095593 133.869763,54.6095593 L148.488915,54.6095593 C149.382814,54.6095593 150.208068,55.086 150.655017,55.8598983"/>
    <path fill="#EBEFF7" d="M144.011847,76.8324915 C139.988797,78.6797797 135.229983,76.9163898 133.382695,72.893339 C131.534898,68.8702881 133.298797,64.1114746 137.321847,62.2641864 C141.34439,60.4163898 146.103712,62.1802881 147.951,66.203339 C149.798288,70.2258814 148.034898,74.9852034 144.011847,76.8324915"/>
    <path fill="#FF6F57" d="M80.3474746,65.3230169 C74.2071356,65.3230169 69.2291695,70.3009831 69.2291695,76.4408136 L69.2291695,85.9167458 L91.4657797,85.9167458 L91.4657797,76.4408136 C91.4657797,70.3009831 86.4878136,65.3230169 80.3474746,65.3230169"/>
    <polygon fill="#B7C2CE" points="64.379 86.603 96.023 86.603 96.023 77.807 64.379 77.807"/>
    <polygon fill="#DAE2ED" points="64.379 86.603 86.102 86.603 86.102 77.807 64.379 77.807"/>
    <polygon fill="#C5CEDD" points="56.04 82.692 50.98 104.401 50.98 119.581 106.999 119.581 106.999 82.692"/>
    <polygon fill="#DAE2ED" points="35.8 119.582 83.139 119.582 83.139 104.401 35.8 104.401"/>
    <polygon fill="#EBEFF7" points="91.747 82.692 49.341 82.692 40.86 104.401 83.265 104.401"/>
    <polygon fill="#80A7FF" points="45.869 100.98 51.677 86.113 86.737 86.113 80.929 100.98"/>
    <path fill="#B7C2CE" d="M99.9520678,95.3518475 C96.6617288,95.3518475 93.9942712,98.0193051 93.9942712,101.309644 C93.9942712,104.599983 96.6617288,107.267441 99.9520678,107.267441 L103.769695,107.267441 L103.769695,95.3518475 L99.9520678,95.3518475 Z"/>
    <path fill="#EBEFF7" d="M106.135932,106.723729 C103.145593,108.09661 99.6086441,106.786271 98.2352542,103.795932 C96.8623729,100.805593 98.1732203,97.2686441 101.163559,95.8957627 C104.15339,94.5223729 107.690847,95.8332203 109.063729,98.8230508 C110.43661,101.81339 109.126271,105.350339 106.135932,106.723729"/>
    <path fill="#FF903E" d="M105.077034,104.417746 C103.360424,105.205881 101.329576,104.453339 100.541441,102.736729 C99.7533051,101.020119 100.505847,98.9897797 102.222458,98.2016441 C103.939068,97.4135085 105.969407,98.1660508 106.757542,99.8821525 C107.545678,101.598763 106.793136,103.62961 105.077034,104.417746"/>
    <path fill="#000000" d="M63.8756949 104.779983C63.6590847 104.779983 63.4587458 104.640661 63.3906102 104.423034L61.8651864 99.5396441C61.7812881 99.271678 61.9307797 98.9859153 62.1987458 98.9025254 62.4672203 98.8201525 62.7524746 98.9681186 62.8358644 99.2360847L64.3612881 104.119475C64.4451864 104.387949 64.2956949 104.673203 64.0277288 104.756593 63.9768814 104.772356 63.9260339 104.779983 63.8756949 104.779983M57.6379322 104.779983C57.5875932 104.779983 57.5367458 104.772356 57.4858983 104.756593 57.2179322 104.673203 57.0684407 104.387949 57.152339 104.119475L58.6777627 99.2360847C58.7611525 98.9681186 59.0464068 98.8191356 59.3148814 98.9025254 59.5828475 98.9859153 59.732339 99.271678 59.6484407 99.5396441L58.1230169 104.423034C58.0548814 104.640661 57.8545424 104.779983 57.6379322 104.779983"/>
    <path fill="#000000" d="M63.1177119,94.6047458 L63.1177119,93.3 C63.1177119,91.9962712 62.0605932,90.9391525 60.7568644,90.9391525 C59.4531356,90.9391525 58.3960169,91.9962712 58.3960169,93.3 L58.3960169,94.6047458 C58.3960169,95.299322 58.234322,95.9837288 57.9241525,96.6050847 C57.6134746,97.2259322 57.4517797,97.910339 57.4517797,98.6049153 C57.4517797,100.368814 58.8816102,101.798644 60.6455085,101.798644 L60.8682203,101.798644 C62.6321186,101.798644 64.0619492,100.368814 64.0619492,98.6049153 C64.0619492,97.9108475 63.9002542,97.2259322 63.5900847,96.6055932 L63.5895763,96.6045763 C63.2794068,95.9837288 63.1177119,95.2988136 63.1177119,94.6047458"/>
    <path fill="#B7C2CE" d="M33.7637288,49.4093898 L17.9364407,62.2931186 C17.9364407,75.3629492 34.269661,76.4841356 37.8635593,67.2985424 C39.0177966,64.3488814 42.3605085,56.7268475 45.6279661,49.3687119 C41.6761017,49.4368475 37.7181356,49.4282034 33.7637288,49.4093898"/>
    <path fill="#C5CEDD" d="M19.5209492,48.24 C17.4580678,52.3205085 16.4507797,56.6405085 16.4507797,60.6244068 C16.4507797,73.6947458 31.7665424,74.8154237 35.3609492,65.630339 C37.863661,59.2342373 42.313322,49.2228814 42.313322,49.2228814 L19.5209492,48.24 Z"/>
    <path fill="#FF7F14" d="M24.1332203,78.9217627 C23.5916949,78.9217627 23.1528814,78.4829492 23.1528814,77.9414237 C23.1528814,77.3998983 23.5916949,76.9610847 24.1332203,76.9610847 C24.6742373,76.9610847 25.1135593,77.3998983 25.1135593,77.9414237 C25.1135593,78.4829492 24.6742373,78.9217627 24.1332203,78.9217627 Z M24.1332203,84.1504068 C23.5916949,84.1504068 23.1528814,83.7110847 23.1528814,83.1700678 C23.1528814,82.6285424 23.5916949,82.1897288 24.1332203,82.1897288 C24.6742373,82.1897288 25.1135593,82.6285424 25.1135593,83.1700678 C25.1135593,83.7110847 24.6742373,84.1504068 24.1332203,84.1504068 Z M20.1101695,63.1010847 L20.1101695,86.0515932 L24.1332203,88.8771864 L28.1557627,86.0515932 L28.1557627,63.1010847 L20.1101695,63.1010847 Z"/>
    <polygon fill="#B7C2CE" points="18.965 63.796 29.302 63.796 29.302 61.705 18.965 61.705"/>
    <path fill="#000000" d="M29.6045593,33.5073559 C29.4845593,33.5073559 29.3635424,33.4651525 29.2669322,33.3787119 C29.0569322,33.1921017 29.0381186,32.8707458 29.2247288,32.6607458 L37.4193051,23.4497288 C37.6120169,23.2326102 37.9862542,23.2326102 38.1789661,23.4497288 L46.3735424,32.6607458 C46.5601525,32.8707458 46.541339,33.1921017 46.331339,33.3787119 C46.121339,33.565322 45.8004915,33.5465085 45.6133729,33.3370169 L37.7991356,24.5526102 L29.9848983,33.3370169 C29.8842203,33.4498983 29.7448983,33.5073559 29.6045593,33.5073559"/>
    <path fill="#000000" d="M37.7989831,24.2962373 C37.5183051,24.2962373 37.2905085,24.0684407 37.2905085,23.7877627 L37.2905085,1.01674576 C37.2905085,0.736067797 37.5183051,0.508271186 37.7989831,0.508271186 C38.079661,0.508271186 38.3074576,0.736067797 38.3074576,1.01674576 L38.3074576,23.7877627 C38.3074576,24.0684407 38.079661,24.2962373 37.7989831,24.2962373"/>
    <path fill="#FF7F14" d="M9.93716949,79.9387119 C9.39564407,79.9387119 8.95683051,79.4998983 8.95683051,78.9583729 C8.95683051,78.4168475 9.39564407,77.9780339 9.93716949,77.9780339 C10.4786949,77.9780339 10.9175085,78.4168475 10.9175085,78.9583729 C10.9175085,79.4998983 10.4786949,79.9387119 9.93716949,79.9387119 Z M9.93716949,85.1673559 C9.39564407,85.1673559 8.95683051,84.7280339 8.95683051,84.1870169 C8.95683051,83.6454915 9.39564407,83.206678 9.93716949,83.206678 C10.4786949,83.206678 10.9175085,83.6454915 10.9175085,84.1870169 C10.9175085,84.7280339 10.4786949,85.1673559 9.93716949,85.1673559 Z M9.93716949,61.2924407 L5.91411864,64.1180339 L5.91411864,87.0685424 L9.93716949,89.8941356 L13.9602203,87.0685424 L13.9602203,64.1180339 L9.93716949,61.2924407 Z"/>
    <path fill="#D0D9EA" d="M39.504661,33.0458136 C39.504661,33.0458136 26.7124576,61.4110678 24.2097458,67.8071695 C20.615339,76.9922542 5.2990678,75.8715763 5.2990678,62.8017458 L39.504661,33.0458136 Z"/>
    <path fill="#EBEFF7" d="M69.260339,44.1694576 C69.260339,44.1694576 60.3615254,31.3772542 37.0016949,31.3772542 C13.6423729,31.3772542 2.79661017,48.0628475 2.79661017,61.132678 C2.79661017,74.2030169 18.1123729,75.3236949 21.7067797,66.1386102 C24.2094915,59.7425085 28.6591525,49.7311525 28.6591525,49.7311525 L69.260339,44.1694576 Z"/>
    <path fill="#FF903E" d="M59.5270678,42.7790847 C59.5270678,42.7790847 54.7997797,33.0458644 38.1141864,30.8207797 L26.9902881,31.3770508 C26.9902881,31.3770508 44.7884237,30.5431525 53.4091017,43.0572203 L59.5270678,42.7790847 Z"/>
    <path fill="#7687B2" d="M18.0414915,60.4192881 C17.5065763,64.7636949 14.1069153,67.9203051 10.4484407,67.4697966 C6.79047458,67.0187797 4.25827119,63.132 4.79318644,58.7875932 C5.32861017,54.4431864 8.72776271,51.2865763 12.3862373,51.7370847 C16.0447119,52.1881017 18.5769153,56.0748814 18.0414915,60.4192881"/>
    <path fill="#FFFFFF" d="M15.2897797,60.1831525 C14.9094407,63.2701017 12.4941864,65.5124746 9.89486441,65.1926441 C7.29554237,64.8723051 5.49655932,62.1107797 5.87638983,59.0238305 C6.25672881,55.9368814 8.67198305,53.694 11.2718136,54.014339 C13.8706271,54.334678 15.6701186,57.0962034 15.2897797,60.1831525"/>
    <path fill="#FF903E" d="M13.7904407,60.0185593 C13.5178983,62.2294068 11.7880678,63.8351695 9.92654237,63.6063559 C8.06501695,63.3765254 6.77705085,61.3990678 7.04908475,59.1882203 C7.32111864,56.9778814 9.05094915,55.3716102 10.9124746,55.6009322 C12.774,55.8302542 14.0624746,57.8082203 13.7904407,60.0185593"/>
    <path fill="#FFFFFF" d="M25.9757288,37.8525254 C26.3575932,38.6055763 26.001661,39.5543898 25.1799661,39.971339 C24.3582712,40.3887966 23.382,40.1162542 22.9996271,39.3626949 C22.6177627,38.6091356 22.9736949,37.6608305 23.7953898,37.2438814 C24.6175932,36.8264237 25.5933559,37.0994746 25.9757288,37.8525254"/>
    <path fill="#B7C2CE" d="M40.8498305,24.2962373 C40.8498305,22.611661 39.4840678,21.2453898 37.7989831,21.2453898 C36.1144068,21.2453898 34.7481356,22.611661 34.7481356,24.2962373 C34.7481356,25.981322 36.1144068,27.3470847 37.7989831,27.3470847 C39.4840678,27.3470847 40.8498305,25.981322 40.8498305,24.2962373"/>
    <path fill="#EBEFF7" d="M39.3244068,24.2962373 C39.3244068,23.4536949 38.6415254,22.7708136 37.7989831,22.7708136 C36.9564407,22.7708136 36.2735593,23.4536949 36.2735593,24.2962373 C36.2735593,25.1387797 36.9564407,25.821661 37.7989831,25.821661 C38.6415254,25.821661 39.3244068,25.1387797 39.3244068,24.2962373"/>
    <polygon fill="#B7C2CE" points="202.868 119.564 202.887 89.332 191.343 89.323 191.324 119.556"/>
    <path fill="#C5CEDD" d="M205.82822,112.108169 L209.945847,72.937322 C210.024153,72.1918983 209.736356,71.4530847 209.165339,70.9674915 C207.672458,69.6957966 204.112119,67.5510508 197.072288,67.5454576 C190.031949,67.5408814 186.468051,69.6810508 184.973644,70.9502034 C184.402627,71.4352881 184.113305,72.1725763 184.190085,72.9174915 L188.227373,112.094441 C188.307203,112.870373 188.961102,113.460712 189.741102,113.46122 L204.312966,113.471898 C205.092458,113.472407 205.746356,112.883593 205.82822,112.108169"/>
    <path fill="#B7C2CE" d="M193.168983 104.425932C194.173729 104.426441 194.988814 103.612881 194.989322 102.608136 194.990339 101.60339 194.176271 100.788814 193.171525 100.787797 192.16678 100.787288 191.352203 101.600847 191.351186 102.605593 191.350678 103.610339 192.164237 104.425424 193.168983 104.425932M193.434915 95.5427797C194.439661 95.5432881 195.254746 94.7297288 195.255254 93.7249831 195.256271 92.7202373 194.442203 91.905661 193.437458 91.9046441 192.432712 91.9041356 191.618136 92.7176949 191.617119 93.7224407 191.61661 94.7271864 192.430169 95.5422712 193.434915 95.5427797"/>
    <polygon fill="#D0D9EA" points="214.055 119.564 214.073 89.332 202.529 89.323 202.51 119.556"/>
    <path fill="#EBEFF7" d="M217.014661,112.108169 L221.132288,72.937322 C221.210593,72.1918983 220.922797,71.4530847 220.35178,70.9674915 C218.858898,69.6957966 215.298559,67.5510508 208.258729,67.5454576 C201.21839,67.5408814 197.654492,69.6810508 196.160085,70.9502034 C195.589068,71.4352881 195.299746,72.1725763 195.376525,72.9174915 L199.413814,112.094441 C199.493644,112.870373 200.147542,113.460712 200.927542,113.46122 L215.499407,113.471898 C216.278898,113.472407 216.932797,112.883593 217.014661,112.108169"/>
    <path fill="#B7C2CE" d="M204.355424 104.425932C205.360169 104.426441 206.175254 103.612881 206.175763 102.608136 206.17678 101.60339 205.362712 100.788814 204.357966 100.787797 203.35322 100.787288 202.538644 101.600847 202.537627 102.605593 202.537119 103.610339 203.350678 104.425424 204.355424 104.425932M204.621356 95.5427797C205.626102 95.5432881 206.441186 94.7297288 206.441695 93.7249831 206.442712 92.7202373 205.628644 91.905661 204.623898 91.9046441 203.619153 91.9041356 202.804576 92.7176949 202.803559 93.7224407 202.803051 94.7271864 203.61661 95.5422712 204.621356 95.5427797"/>
    <path fill="#EBEFF7" d="M222.066407 24.042L221.812169 24.042C220.969627 24.042 220.286746 23.3591186 220.286746 22.5165763L220.286746 22.262339C220.286746 21.841322 219.945051 21.4996271 219.524034 21.4996271 219.103017 21.4996271 218.761322 21.841322 218.761322 22.262339L218.761322 22.5165763C218.761322 23.3591186 218.078441 24.042 217.235898 24.042L216.981661 24.042C216.560644 24.042 216.218949 24.3836949 216.218949 24.8047119 216.218949 25.2257288 216.560644 25.5674237 216.981661 25.5674237L217.235898 25.5674237C218.078441 25.5674237 218.761322 26.2503051 218.761322 27.0928475L218.761322 27.3470847C218.761322 27.7681017 219.103017 28.1097966 219.524034 28.1097966 219.945051 28.1097966 220.286746 27.7681017 220.286746 27.3470847L220.286746 27.0928475C220.286746 26.2503051 220.969627 25.5674237 221.812169 25.5674237L222.066407 25.5674237C222.487424 25.5674237 222.829119 25.2257288 222.829119 24.8047119 222.829119 24.3836949 222.487424 24.042 222.066407 24.042M81.1615932 22.0644915C80.966339 22.0644915 80.7710847 21.9902542 80.6221017 21.8412712L79.9031186 21.1217797C79.6051525 20.824322 79.6051525 20.3412712 79.9031186 20.0433051 80.2010847 19.745339 80.6841356 19.745339 80.9815932 20.0433051L81.7010847 20.7622881C81.9985424 21.0602542 81.9985424 21.5433051 81.7010847 21.8412712 81.5521017 21.9902542 81.3568475 22.0644915 81.1615932 22.0644915M85.8356949 26.7385424C85.6404407 26.7385424 85.4451864 26.6643051 85.2962034 26.515322L84.5772203 25.7958305C84.2792542 25.4983729 84.2792542 25.015322 84.5772203 24.7173559 84.8751864 24.4193898 85.3582373 24.4193898 85.6556949 24.7173559L86.3751864 25.436339C86.6726441 25.7343051 86.6726441 26.2173559 86.3751864 26.515322 86.2262034 26.6643051 86.0309492 26.7385424 85.8356949 26.7385424M85.116661 22.0644915C84.9214068 22.0644915 84.7261525 21.9902542 84.5771695 21.8412712 84.2797119 21.5433051 84.2797119 21.0602542 84.5771695 20.7622881L85.296661 20.0433051C85.5941186 19.745339 86.0771695 19.745339 86.3751356 20.0433051 86.6731017 20.3412712 86.6731017 20.824322 86.3751356 21.1217797L85.6561525 21.8412712C85.5071695 21.9902542 85.3119153 22.0644915 85.116661 22.0644915M80.4425593 26.7385424C80.2473051 26.7385424 80.0520508 26.6643051 79.9030678 26.515322 79.6056102 26.2173559 79.6056102 25.7343051 79.9030678 25.436339L80.6225593 24.7173559C80.9200169 24.4193898 81.4030678 24.4193898 81.7010339 24.7173559 81.999 25.015322 81.999 25.4983729 81.7010339 25.7958305L80.9820508 26.515322C80.8330678 26.6643051 80.6378136 26.7385424 80.4425593 26.7385424M96.1837119 41.6923729L102.728288 41.6923729 99.4562542 35.8754237 96.1837119 41.6923729zM104.032525 43.2177966L94.8799831 43.2177966C94.6084576 43.2177966 94.3582881 43.0738983 94.2215085 42.84 94.0847288 42.6061017 94.0821864 42.3172881 94.2148983 42.0813559L98.7911695 33.9457627C98.9264237 33.7052542 99.180661 33.5567797 99.4562542 33.5567797 99.7318475 33.5567797 99.9860847 33.7052542 100.120831 33.9457627L104.697102 42.0813559C104.829814 42.3172881 104.827271 42.6061017 104.690492 42.84 104.553712 43.0738983 104.303542 43.2177966 104.032525 43.2177966z"/>
    <path fill="#9CB8FF" d="M240.874271 37.2139322C240.173085 37.2139322 239.603085 37.7839322 239.603085 38.4851186 239.603085 39.1863051 240.173085 39.7563051 240.874271 39.7563051 241.575458 39.7563051 242.145458 39.1863051 242.145458 38.4851186 242.145458 37.7839322 241.575458 37.2139322 240.874271 37.2139322M240.874271 41.2817288C239.332576 41.2817288 238.077661 40.0268136 238.077661 38.4851186 238.077661 36.9434237 239.332576 35.6885085 240.874271 35.6885085 242.415966 35.6885085 243.670881 36.9434237 243.670881 38.4851186 243.670881 40.0268136 242.415966 41.2817288 240.874271 41.2817288M2.79666102 103.675881C2.09547458 103.675881 1.52547458 104.245881 1.52547458 104.947068 1.52547458 105.648254 2.09547458 106.218254 2.79666102 106.218254 3.49784746 106.218254 4.06784746 105.648254 4.06784746 104.947068 4.06784746 104.245881 3.49784746 103.675881 2.79666102 103.675881M2.79666102 107.743678C1.2549661 107.743678.0000508474576 106.488763.0000508474576 104.947068.0000508474576 103.405373 1.2549661 102.150458 2.79666102 102.150458 4.33835593 102.150458 5.59327119 103.405373 5.59327119 104.947068 5.59327119 106.488763 4.33835593 107.743678 2.79666102 107.743678"/>
    <path fill="#000000" d="M28.6591017,49.7311525 L84.2770678,49.7311525 C84.2770678,49.7311525 75.6563898,42.2225085 56.7462203,42.5006441 C37.8360508,42.7792881 28.6591017,49.7311525 28.6591017,49.7311525"/>
    <path fill="#FF6F57" d="M175.79522,109.528068 L175.79522,93.7607797 C175.79522,92.4209492 176.881322,91.3348475 178.221153,91.3348475 L186.711153,91.3348475 C188.050983,91.3348475 189.136576,92.4209492 189.136576,93.7607797 L189.136576,109.528068 C189.136576,110.867898 188.050983,113.987898 186.711153,113.987898 L178.221153,113.987898 C176.881322,113.987898 175.79522,110.867898 175.79522,109.528068"/>
    <path fill="#D0D9EA" d="M171.550169,117.297203 L171.550169,102.860593 C171.550169,99.4965254 174.277119,96.7695763 177.641186,96.7695763 L187.291017,96.7695763 C190.654576,96.7695763 193.382034,99.4965254 193.382034,102.860593 L193.382034,117.297203 C193.382034,118.558729 192.358983,119.581271 191.097458,119.581271 L173.834237,119.581271 C172.572712,119.581271 171.550169,118.558729 171.550169,117.297203"/>
  </g>
</svg>
