<?xml version="1.0" encoding="UTF-8"?>
<svg width="43px" height="18px" viewBox="0 0 43 18" version="1.1" xmlns="http://www.w3.org/2000/svg" xmlns:xlink="http://www.w3.org/1999/xlink">
  <g id="Page-1" stroke="none" stroke-width="1" fill="none" fill-rule="evenodd">
    <g id="ic_tut_arrow_01">
      <path d="M41.8955,6.4844 C38.5795,4.1654 35.1515,1.3384 31.2645,0.0774 C29.5885,-0.4666 28.0285,1.9834 29.4745,3.1524 C30.7365,4.1734 32.0435,5.1814 33.3675,6.1744 C29.8075,6.0614 26.1445,6.4264 22.7405,6.3914 C15.5325,6.3154 8.3125,6.0134 1.1085,6.3704 C-0.3705,6.4434 -0.3695,8.5874 1.1085,8.6674 C12.4545,9.2824 23.8295,9.0644 35.1635,9.5704 C33.9465,10.2614 32.6935,10.8984 31.4725,11.5974 C29.3935,12.7874 27.5165,13.9784 27.2475,16.5184 C27.1795,17.1514 27.8485,17.7294 28.4425,17.7134 C30.9825,17.6494 33.1195,15.8274 35.3035,14.7004 C37.8305,13.3974 40.2415,12.0914 42.3735,10.1864 C43.5865,9.1014 43.0645,7.3014 41.8955,6.4844" id="Fill-1" fill="#FFFFFF"></path>
    </g>
  </g>
</svg>
