<svg height="24" viewBox="0 0 24 24" width="24" xmlns="http://www.w3.org/2000/svg"><g fill="none" fill-rule="evenodd"><path d="m22 11.0722236c-.6190129-.3585994-1.2904582-.636636-2-.8196327v-4.5025909c0-.96649831-.7835017-1.75-1.75-1.75h-12.5c-.96649831 0-1.75.78350169-1.75 1.75v12.5c0 .9664983.78350169 1.75 1.75 1.75h4.5028087c.1830267.7092614.4610699 1.3807645.8197616 2h-5.5725703c-1.94 0-3.5-1.56-3.5-3.5v-13c0-1.94 1.56-3.5 3.5-3.5h13c1.94 0 3.5 1.56 3.5 3.5zm-11.5884864 4.3907626c-1.07743661-.2442955-2.07320494-.8256284-2.8215136-1.6929862l4.5981804-1.2641219c-.7905822.8357546-1.4032678 1.8417215-1.7766668 2.9571081zm4.0284864-8.6929862c.78 0 1.47.53 1.68 1.28.04.17.06.34.06.51l-3.23.88c-.09-.14-.16-.29-.21-.44-.24-.95.29-1.91 1.23-2.17.15-.04.31-.06.47-.06zm-6.27 1.73c.78 0 1.47.5 1.68 1.28.04.16.06.33.06.5l-3.23.88c-.09-.16-.18-.3-.21-.46-.25-.93.3-1.89 1.23-2.15.15-.05.3-.05.47-.05z" fill="#fff" opacity=".6"/><path d="m0 0h24v24h-24z"/></g></svg>