<?xml version="1.0" encoding="UTF-8" standalone="no"?>
<svg width="28px" height="40px" viewBox="0 0 28 40" version="1.1" xmlns="http://www.w3.org/2000/svg" xmlns:xlink="http://www.w3.org/1999/xlink" xmlns:sketch="http://www.bohemiancoding.com/sketch/ns">
    <!-- Generator: Sketch 3.4.4 (17249) - http://www.bohemiancoding.com/sketch -->
    <title>icon-file-small-spreadsheet</title>
    <desc>Created with Sketch.</desc>
    <defs>
        <filter x="-50%" y="-50%" width="200%" height="200%" filterUnits="objectBoundingBox" id="filter-1">
            <feOffset dx="0" dy="2" in="SourceAlpha" result="shadowOffsetOuter1"></feOffset>
            <feGaussianBlur stdDeviation="0" in="shadowOffsetOuter1" result="shadowBlurOuter1"></feGaussianBlur>
            <feColorMatrix values="0 0 0 0 0   0 0 0 0 0   0 0 0 0 0  0 0 0 0.07 0" in="shadowBlurOuter1" type="matrix" result="shadowMatrixOuter1"></feColorMatrix>
            <feMerge>
                <feMergeNode in="shadowMatrixOuter1"></feMergeNode>
                <feMergeNode in="SourceGraphic"></feMergeNode>
            </feMerge>
        </filter>
    </defs>
    <g id="Drag-&amp;-Drop" stroke="none" stroke-width="1" fill="none" fill-rule="evenodd" sketch:type="MSPage">
        <g id="Desktop-HD---Drag-&amp;-Drop,-Small-Icons---Dark" sketch:type="MSArtboardGroup" transform="translate(-572.000000, -524.000000)">
            <g id="Group" sketch:type="MSLayerGroup" transform="translate(404.000000, 526.000000)">
                <g id="icon-file-small-spreadsheet" transform="translate(170.000000, 0.000000)" sketch:type="MSShapeGroup">
                    <g id="Group">
                        <path d="M0,3.00741988 C0,1.34646775 1.34252415,0 2.99998588,0 L15.1166483,0 C17.0807354,0 24,6.91885725 24,8.87457593 L24,33.0035574 C24,34.6584469 22.6582294,36 21.0089096,36 L2.99109042,36 C1.33915679,36 0,34.6544607 0,32.9925801 L0,3.00741988 Z" id="Rectangle-113" stroke="#7289DA" stroke-width="2" fill="#F4F6FC"></path>
                        <path d="M17,1.09677336 C17,0.542040316 17.3147964,0.407097791 17.7133118,0.80556379 L23.1952031,6.28677654 C23.5891543,6.68067898 23.4552279,7 22.9039575,7 L18.0045574,7 C17.4497557,7 17,6.54676916 17,5.99556698 L17,1.09677336 Z" id="Path" stroke="#7289DA" stroke-width="2" fill="#F4F6FC" filter="url(#filter-1)"></path>
                        <path d="M2,12 L7,12 L7,14 L2,14 L2,12 Z M2,4 L7,4 L7,6 L2,6 L2,4 Z M2,8 L7,8 L7,10 L2,10 L2,8 Z M9,12 L14,12 L14,14 L9,14 L9,12 Z M9,4 L14,4 L14,6 L9,6 L9,4 Z M9,8 L14,8 L14,10 L9,10 L9,8 Z M16,12 L21,12 L21,14 L16,14 L16,12 Z M2,16 L7,16 L7,18 L2,18 L2,16 Z M9,16 L14,16 L14,18 L9,18 L9,16 Z M16,16 L21,16 L21,18 L16,18 L16,16 Z M2,20 L7,20 L7,22 L2,22 L2,20 Z M9,20 L14,20 L14,22 L9,22 L9,20 Z M16,20 L21,20 L21,22 L16,22 L16,20 Z M2,24 L7,24 L7,26 L2,26 L2,24 Z M9,24 L14,24 L14,26 L9,26 L9,24 Z M16,24 L21,24 L21,26 L16,26 L16,24 Z M2,28 L7,28 L7,30 L2,30 L2,28 Z M9,28 L14,28 L14,30 L9,30 L9,28 Z M16,28 L21,28 L21,30 L16,30 L16,28 Z" id="Rectangle-128" opacity="0.600000024" fill="#697EC4"></path>
                    </g>
                </g>
            </g>
        </g>
    </g>
</svg>