<svg height="1099" viewBox="0 0 1920 1099" width="1920" xmlns="http://www.w3.org/2000/svg"><g fill="none" fill-rule="evenodd"><g fill="#72767d" opacity=".08"><path d="m0 376.412472s446.31318-265.201642 552.632327-217.562013c144.016809 64.53125-106.743484 216.375348 8.538783 260.855817s108.093393-134.566754 289.288297-142.723004c181.194903-8.15625 452.108493 80.164062 593.113153-18.984375 141.00466-99.148438 167.64719-234.4828618 358.52001-208.8238708 41.80668 5.6200621 117.90743 70.0447108 117.90743 70.0447108v979.780263l-1920-3.60292z"/><ellipse cx="692.754" cy="83.684" rx="75.246" ry="45" transform="matrix(.75470958 -.65605903 .65605903 .75470958 115.024276 475.0144)"/><path d="m1125.49325 189.140625c0-44.035156 54.2737-15.601563 163.01006-47.960937 108.73635-32.359375 124.84464-62.7500005 174.29774-41.367188 49.4531 21.382812-53.10024 113.691537-127.38181 133.363281-74.28156 19.671744-209.92599 0-209.92599-44.035156z"/></g><path d="m0 0h1920v1099h-1920z"/></g></svg>