<svg fill="none" height="80" viewBox="0 0 80 80" width="80" xmlns="http://www.w3.org/2000/svg"><rect fill="#a51c30" height="80" rx="40" width="80"/><path clip-rule="evenodd" d="m57.4115 33.5167-16.6667-8.3334c-.4683-.235-1.0216-.235-1.4916 0l-16.6667 8.3334c-.3367.1666-.5917.4566-.7417.7716-.1016.2034-.1783.5484-.1783.72v9.6084c0 .92.7467 1.6666 1.6667 1.6666s1.6666-.7466 1.6666-1.6666v-7.6634l15.025 6.2584 17.2617-6.6567c.6083-.245 1.0183-.8217 1.045-1.4783.0283-.6567-.3333-1.265-.92-1.56zm-17.4117 13.1583c-.2183 0-.4366-.0433-.6416-.1283l-11.025-4.5934v5.0217c0 .6317.3566 1.2083.9216 1.4917.2738.1368.5484.2767.8255.4179l.0001.0001c2.6157 1.3329 5.4527 2.7786 9.9194 2.7786 4.4687 0 7.312-1.4493 9.9266-2.7821.2748-.1401.5471-.2788.8184-.4145.565-.2817.9217-.86.9217-1.49v-4.6684l-11.0683 4.2567c-.1934.0717-.395.11-.5984.11zm-18.3333 3.3333c0-.92.7467-1.6666 1.6667-1.6666s1.6666.7466 1.6666 1.6666v3.3334c0 .92-.7466 1.6666-1.6666 1.6666s-1.6667-.7466-1.6667-1.6666z" fill="#fff" fill-rule="evenodd"/></svg>