<svg xmlns="http://www.w3.org/2000/svg" xmlns:xlink="http://www.w3.org/1999/xlink" width="259" height="244" viewBox="0 0 259 244">
    <defs>
        <path id="a" d="M0 244h259V0H0z"/>
    </defs>
    <g fill="none" fill-rule="evenodd">
        <g>
            <path fill="#4F545C" d="M105.325 71H33.942C15.197 71 0 86.347 0 105.28c0 18.932 15.197 34.28 33.942 34.28h44.753c8.602 0 15.575 7.042 15.575 15.73 0 8.687-6.973 15.73-15.575 15.73H37.368c-14.484 0-26.227 11.86-26.227 26.49 0 14.63 11.74 26.49 26.227 26.49l187.386-.001c13.429 0 24.297-11.02 24.246-24.583-.051-13.49-10.892-24.397-24.248-24.397h-23.305c-26.58 0-48.115-21.787-48.067-48.631l.012-6.756C153.44 92.787 131.906 71 105.325 71" opacity=".3"/>
            <path fill="#4F545C" d="M223.023 130h-23.046C182.317 130 168 115.672 168 98c0-17.673 14.316-32 31.977-32h23.046C240.683 66 255 80.327 255 98c0 17.672-14.316 32-31.977 32" opacity=".3"/>
            <path fill="#ACB0FF" d="M248.724 148.276a.941.941 0 0 0-1.333 0l-1.115 1.115a.941.941 0 1 0 1.333 1.333l1.115-1.115a.941.941 0 0 0 0-1.333M241.391 154.276l-1.115 1.116a.94.94 0 1 0 1.333 1.332l1.115-1.116a.94.94 0 1 0-1.333-1.332M247.609 154.276a.941.941 0 1 0-1.333 1.332l1.115 1.116a.94.94 0 0 0 1.333 0 .94.94 0 0 0 0-1.332l-1.115-1.116zM242.724 149.39l-1.115-1.114a.943.943 0 0 0-1.333 1.333l1.115 1.115a.94.94 0 0 0 1.333 0 .942.942 0 0 0 0-1.333"/>
            <path fill="#202225" d="M156.975 30.847l-1.183-5.127a.908.908 0 0 0-1.093-.694c-.49.12-.79.625-.674 1.128l1.183 5.126c.1.431.472.72.882.72.07 0 .141-.007.212-.025a.938.938 0 0 0 .673-1.128M117.234 137.027a.997.997 0 0 0-1.2.738L91.027 242.774a.996.996 0 1 0 1.94.461l25.006-105.008a.996.996 0 0 0-.74-1.2M242.973 206.762L198.972 19.77a.996.996 0 0 0-.968-.77c-.461 0-.862.32-.968.77l-19.202 81.148c-.486 2.05-3.387 2.05-3.872 0l-15-63.389a.994.994 0 1 0-1.935.463l48.566 205.24a.995.995 0 1 0 1.936-.463l-30.608-129.35 20.109-84.984c.243-1.025 1.695-1.025 1.936.001l42.071 178.787a.995.995 0 0 0 1.197.742 1 1 0 0 0 .74-1.203"/>
            <path fill="#D3D6ED" d="M122.5 112c-11.491 0-19.5-3.689-19.5-7 0-3.31 8.009-7 19.5-7s19.5 3.69 19.5 7c0 3.311-8.009 7-19.5 7M149 118c6.104 0 10 2.074 10 3.5 0 1.427-3.896 3.5-10 3.5s-10-2.073-10-3.5c0-1.426 3.896-3.5 10-3.5M86.051 140.534v-.002c-.503-1.522 2.77-4.988 9.243-7.176 2.86-.968 5.37-1.356 7.325-1.356 2.469 0 4.051.62 4.331 1.469.257.773-.492 2.033-1.955 3.287-1.771 1.519-4.359 2.9-7.287 3.89-6.472 2.187-11.15 1.409-11.657-.112"/>
            <path fill="#FFF" d="M108.191 132.8l4.792 14.2c.269-.052.54-.096.817-.124.902-8.62 8.271-15.364 17.203-15.364h5.503v-9.986c0-2.147 2.338-3.685 5.494-4.56V109c-3.38 3.12-10.74 5.243-19.5 5.243s-16.12-2.122-19.501-5.243v16.947c0 .547-.448.99-.999.99v3.115c3.07-.015 5.529.788 6.191 2.748M159 132v-7c-2.282 1.554-6.213 2.375-10 2.375-3.788 0-7.718-.82-10-2.375v7h20z"/>
            <path fill="#FFF" d="M105.598 170v-13.169c0-3.768 2.225-7.011 5.402-8.442L107.272 137c-.418.578-.946 1.16-1.612 1.737-1.904 1.652-4.645 3.14-7.72 4.19-2.591.885-5.381 1.414-7.781 1.415-1.17 0-2.243-.13-3.159-.402L95.531 170h10.067z"/>
            <path fill="#7B80D6" d="M135 134h-3.566c-7.943 0-14.503 5.688-15.434 13h8.183c.72-6 5.027-10.988 10.817-13"/>
            <path fill="#ACB0FF" d="M154.707 163.135c0 2.155-1.742 3.917-3.87 3.917h-.386c-2.129 0-3.87-1.762-3.87-3.917v-.393c0-2.153 1.741-3.915 3.87-3.915h.386c2.128 0 3.87 1.762 3.87 3.915v.393zM205 149.443c0-8.515-6.844-15.443-15.256-15.443h-54.91c-5.678 2.102-9.901 7.313-10.608 13.582h4.085c.55 0 .996.45.996 1.008 0 .557-.445 1.008-.996 1.008h-13.182c-3.931 0-7.129 3.237-7.129 7.217v13.16l.001.025h6.322a4.613 4.613 0 0 1-.097-.938V157.73c0-2.524 2.022-4.57 4.514-4.57h5.96c.997 0 1.805.818 1.805 1.827V170h35.822c-.13-.865-.22-1.743-.22-2.643v-7.13c0-4.184 3.364-7.588 7.498-7.588h9.751c.55 0 .997.452.997 1.008h8.438c0-.556.447-1.008.997-1.008H205v-3.196z"/>
            <path fill="#7B80D6" d="M170.824 159.447c0-2.291 1.274-4.306 3.176-5.447h-4.298c-3.144 0-5.702 2.443-5.702 5.447v6.969c0 .883.096 1.743.249 2.584h6.814a15.256 15.256 0 0 1-.24-2.584v-6.97zM124.236 153h-5.824c-2.437 0-4.412 2.066-4.412 4.614v11.44c0 .325.033.64.094.946H126v-15.155c0-1.018-.79-1.845-1.764-1.845"/>
            <path fill="#ACB0FF" d="M180.604 153a.988.988 0 0 1-.99.987h-5.567c-1.823 1.141-3.047 3.158-3.047 5.451v6.976c0 .881.091 1.741.23 2.586h40.531c.147-.843.239-1.703.239-2.586v-6.976c0-3.005-2.454-5.451-5.47-5.451h-16.55a.988.988 0 0 1-.99-.987h-8.386z"/>
            <path fill="#36393E" d="M87 209v-36l-36 36z"/>
            <path fill="#4F545C" d="M211.805 232.29c-.707.113-1.421.19-2.148.19h-47.922a13.628 13.628 0 0 1-10.383-4.807 13.882 13.882 0 0 1-3.157-11.075l3.483-23.184c.453-3.019 2.98-5.21 6.005-5.21H212v-7.448a5.922 5.922 0 0 1-4.174-5.664V171h-15.428c.516.75.821 1.656.821 2.636v1.456c0 3.263-2.632 5.917-5.866 5.917-3.235 0-5.867-2.654-5.867-5.917V171h-47.49v58.336a1 1 0 0 1-.996 1.004v4.685a1 1 0 0 1 .995 1.004V242h66.302c5.744 0 10.523-4.198 11.508-9.71"/>
            <path fill="#36393E" d="M97.914 179.287c0-.554.452-1.004 1.008-1.004h25.72c.556 0 1.007.45 1.007 1.005v26.294c0 7.616-6.22 13.812-13.868 13.812-7.646 0-13.867-6.196-13.867-13.812v-26.294zM133 230.34c-.556 0-1.008-.451-1.008-1.004V171H89v59.195c0 6.51 5.317 11.805 11.852 11.805h31.14v-5.971c0-.554.452-1.004 1.008-1.004v-4.685z"/>
            <path fill="#4F545C" d="M100 190v15.272c0 6.467 5.383 11.728 12 11.728s12-5.26 12-11.728V190h-24z"/>
            <mask id="b" fill="#fff">
                <use xlink:href="#a"/>
            </mask>
            <path fill="#72767D" d="M100 189h24v-8h-24z" mask="url(#b)"/>
            <path fill="#4F545C" d="M218.902 197.074l-1.654 8.795c-.541 2.882-3.076 4.973-6.027 4.973h-2.154v1.55c0 2.655-2.176 4.817-4.85 4.817-2.674 0-4.85-2.162-4.85-4.818v-1.549H188.56v1.55c0 2.655-2.176 4.817-4.85 4.817-2.675 0-4.85-2.162-4.85-4.818v-1.549h-9.156c-3.942 0-7.399-2.643-8.406-6.43L157.462 190c-1.935.12-3.52 1.53-3.814 3.459l-3.514 23.049a11.675 11.675 0 0 0 2.722 9.41 11.837 11.837 0 0 0 8.957 4.082h48.374c3.445 0 6.71-1.488 8.956-4.083a11.672 11.672 0 0 0 2.723-9.41l-2.964-19.433z" mask="url(#b)"/>
            <path fill="#72767D" d="M213.379 190H159l3.682 14.022c.77 2.932 3.41 4.978 6.42 4.978h9.096v-1.558c0-2.677 2.16-4.853 4.817-4.853 2.656 0 4.818 2.176 4.818 4.853V209h10.737v-1.558c0-2.677 2.16-4.853 4.818-4.853 2.656 0 4.817 2.176 4.817 4.853V209h2.14a4.105 4.105 0 0 0 4.026-3.366l2.406-12.976a.984.984 0 0 1 .223-.449 4.057 4.057 0 0 0-3.621-2.209" mask="url(#b)"/>
            <path fill="#B9BBBE" d="M204 216c1.654 0 3-1.298 3-2.89v-5.22c0-1.593-1.346-2.89-3-2.89s-3 1.297-3 2.89v5.22c0 1.592 1.346 2.89 3 2.89M184 216c1.654 0 3-1.298 3-2.89v-5.22c0-1.593-1.346-2.89-3-2.89s-3 1.297-3 2.89v5.22c0 1.592 1.346 2.89 3 2.89" mask="url(#b)"/>
            <path fill="#ACB0FF" d="M215.304 171H210v4.09c0 2.156 1.795 3.91 4 3.91h1.304c1.487 0 2.696-1.183 2.696-2.635v-2.73c0-1.452-1.209-2.635-2.696-2.635M183 175.09c0 2.155 1.795 3.91 4 3.91s4-1.755 4-3.91v-1.455c0-1.452-1.21-2.635-2.696-2.635H183v4.09z" mask="url(#b)"/>
            <path fill="#202225" d="M150.19 158h-.38a3.82 3.82 0 0 0-3.81 3.81v.38a3.82 3.82 0 0 0 3.81 3.81h.38a3.82 3.82 0 0 0 3.81-3.81v-.38a3.82 3.82 0 0 0-3.81-3.81M121.242 188.895h-18.484c-1.503 0-2.723-1.2-2.723-2.68v-3.344c0-1.031.85-1.868 1.9-1.868h20.132c1.048 0 1.898.837 1.898 1.868v3.345c0 1.48-1.219 2.679-2.723 2.679zm2.723 17.331c0 6.866-6.005 12.377-13.118 11.72-6.2-.576-10.812-5.938-10.812-12.064v-12.305c0-1.48 1.22-2.68 2.723-2.68h18.484c1.504 0 2.723 1.2 2.723 2.68v12.65zM124.982 179H99.018A1.01 1.01 0 0 0 98 180.001v26.225c0 7.596 6.28 13.774 14 13.774s14-6.178 14-13.774v-26.225a1.01 1.01 0 0 0-1.018-1.001z" mask="url(#b)"/>
            <path fill="#36393E" d="M49 211c.522 8.36 7.275 15 15.525 15H87v-15H49z" mask="url(#b)"/>
            <path fill="#202225" d="M251.697 241.135a.865.865 0 0 1-.867.865h-.686a.865.865 0 0 1-.867-.865v-7.836h2.42v7.836zm-4.874-9.837v-2.883a3.665 3.665 0 0 1 3.664-3.658 3.665 3.665 0 0 1 3.663 3.658v2.883h-7.327zm-8.161 9.837a.865.865 0 0 1-.866.865h-.515a.865.865 0 0 1-.867-.865v-17.377h2.248v17.377zm-5.35-20.548v-5.88a4.229 4.229 0 0 1 4.226-4.22 4.229 4.229 0 0 1 4.228 4.22v7.051h-7.22a5.719 5.719 0 0 0-1.235-1.171zm1.1 20.548a.865.865 0 0 1-.867.865.865.865 0 0 1-.867-.865v-11.02h1.733v11.02zm-4.922.865h1.186v-11.886h-1.186V242zm-3.07-13.886v-2.882a3.665 3.665 0 0 1 7.327 0v2.882h-7.328zM137.295 242a3.47 3.47 0 0 1-3.472-3.468v-2.48a1 1 0 0 0-2.003 0v2.48A3.47 3.47 0 0 1 128.35 242h-27.46c-6.501 0-11.772-5.263-11.772-11.758v-53.375a5.587 5.587 0 0 1 5.59-5.583h33.475a3.636 3.636 0 0 1 3.638 3.633v54.47a1.001 1.001 0 0 0 2.003 0v-54.47a3.636 3.636 0 0 1 3.637-3.633h40.26a3.873 3.873 0 0 1 3.875 3.87c0 2.996 2.15 5.668 5.124 6.05 3.599.461 6.679-2.34 6.679-5.844v-1.45c0-.976-.308-1.879-.826-2.626h11.646a3.873 3.873 0 0 1 3.875 3.87v.206c0 2.658 1.772 4.91 4.198 5.641v2.802a4.62 4.62 0 0 1-4.624 4.617h-50.015a6.11 6.11 0 0 0-6.043 5.189l-3.451 22.755c-.458 3.021-.05 6.15 1.395 8.843a13.783 13.783 0 0 0 12.173 7.312s31.994.607 44.473.776c2.72.037 4.297 3.238 2.536 5.31-1.866 2.197-4.67 3.395-8.216 3.395h-63.224zm-49.592-96.265c-.339-1.015.473-2.012 1.542-1.95.29.018.586.027.89.027 2.437-.001 5.27-.527 7.903-1.406 3.12-1.043 5.905-2.52 7.84-4.16l.02-.016a1.512 1.512 0 0 1 2.413.67l2.99 8.93c-3.226 1.42-5.487 4.64-5.487 8.38v7.548a5.529 5.529 0 0 1-5.533 5.526h-.707a5.53 5.53 0 0 1-5.247-3.773l-6.624-19.776zm-1.786-5.334v-.002c-.495-1.483 2.73-4.858 9.107-6.99 2.818-.94 5.292-1.319 7.217-1.319 2.432 0 3.991.602 4.269 1.43.25.754-.487 1.98-1.928 3.202-1.744 1.478-4.294 2.824-7.18 3.788-6.376 2.13-10.987 1.372-11.485-.11zm105.478 33.508v1.451a3.901 3.901 0 0 1-3.899 3.893 3.901 3.901 0 0 1-3.899-3.893v-4.076h5.17a2.63 2.63 0 0 1 2.628 2.625zm-76.414-24.856h13.25a1 1 0 1 0 0-2h-7.93c-2.31 0-3.939-2.377-2.983-4.478 2.414-5.297 7.756-8.99 13.953-8.99h58.705c8.468 0 15.333 6.857 15.333 15.314a3.17 3.17 0 0 1-3.173 3.17h-12.116a1.001 1.001 0 1 0 0 2h16.738a5.53 5.53 0 0 1 5.533 5.525v7.096a2.6 2.6 0 0 1-2.601 2.594H167.009a2.683 2.683 0 0 1-2.686-2.612c-.076-2.888-.12-7.078-.12-7.078 0-3.048 2.482-5.526 5.533-5.526h9.8a1.001 1.001 0 1 0 0-2h-9.8c-4.163 0-7.536 3.37-7.536 7.526v7.096a2.6 2.6 0 0 1-2.595 2.594h-49.061a2.723 2.723 0 0 1-2.727-2.72v-10.355c0-3.952 3.208-7.156 7.165-7.156zm23.809-24.463c2.318 1.553 6.312 2.373 10.16 2.373s7.842-.82 10.161-2.373v.973c0 3.326-2.7 6.021-6.03 6.021h-8.262a6.025 6.025 0 0 1-6.03-6.02v-.974zm10.16-6.557c6.203 0 10.161 2.053 10.161 3.465 0 1.413-3.958 3.465-10.161 3.465-6.202 0-10.16-2.052-10.16-3.465 0-1.412 3.958-3.465 10.16-3.465zm66.314 53.251a2.63 2.63 0 0 1 2.63 2.625v2.72a2.63 2.63 0 0 1-2.63 2.624h-1.27a3.901 3.901 0 0 1-3.899-3.893v-4.076H215.265zm2.377 21.334a.968.968 0 0 0-.224.446l-2.414 12.91a4.107 4.107 0 0 1-4.039 3.35h-2.146v-1.336c0-2.52-1.84-4.774-4.35-5.019a4.837 4.837 0 0 0-5.317 4.805v1.55h-10.77v-1.336c0-2.52-1.84-4.775-4.351-5.019a4.836 4.836 0 0 0-5.316 4.805v1.55h-9.124a6.66 6.66 0 0 1-6.44-4.954l-2.887-10.896a2.433 2.433 0 0 1 2.354-3.054h51.39c1.577 0 2.945.875 3.634 2.198zm-16.487 20.258v-5.102c0-1.56 1.27-2.829 2.83-2.829a2.832 2.832 0 0 1 2.831 2.829v5.102a2.832 2.832 0 0 1-5.661 0zm-20.437 0v-5.102c0-1.56 1.27-2.829 2.83-2.829a2.832 2.832 0 0 1 2.83 2.829v5.102a2.832 2.832 0 0 1-5.66 0zm38.627-10.562l2.184 14.392c.391 2.58.044 5.253-1.187 7.556a11.779 11.779 0 0 1-10.407 6.256h-47.921c-2.636 0-5.252-.76-7.354-2.349a11.758 11.758 0 0 1-4.572-11.17l3.504-23.091a.52.52 0 0 1 .009-.057c.411-2.488 4.016-2.555 4.66-.117l2.953 11.148a8.663 8.663 0 0 0 8.377 6.442h9.124v1.337c0 2.52 1.84 4.774 4.352 5.019a4.837 4.837 0 0 0 5.314-4.804v-1.552h10.771v1.337c0 2.52 1.84 4.774 4.35 5.019a4.837 4.837 0 0 0 5.317-4.804v-1.552h2.146a6.108 6.108 0 0 0 6.007-4.983l.758-4.055c.17-.906 1.477-.883 1.615.028zM40.305 241a1 1 0 0 1-1.002 1H20.775a1 1 0 0 1-1.002-1v-.358c0-4.444 3.607-8.047 8.057-8.047h4.418c4.45 0 8.057 3.603 8.057 8.047V241zm46.81-43.434c0 6.416-5.207 11.617-11.63 11.617H54.139c-1.311 0-1.968-1.583-1.04-2.51l31.503-31.465c.928-.927 2.514-.27 2.514 1.04v21.318zm0 24.763a3.369 3.369 0 0 1-3.37 3.367H64.702c-7.312 0-13.446-5.077-15.085-11.883-.323-1.342.722-2.63 2.102-2.63h32.024a3.37 3.37 0 0 1 3.372 3.366v7.78zm35.635-110.187c-11.517 0-19.545-3.805-19.545-7.219s8.028-7.219 19.545-7.219c11.518 0 19.544 3.805 19.544 7.22 0 3.413-8.026 7.218-19.544 7.218zM258 242h-3.433a.865.865 0 0 1-.867-.865v-7.836h1.452a1 1 0 0 0 1.001-1v-3.686c0-2.875-2.064-5.442-4.92-5.808-3.455-.443-6.411 2.245-6.411 5.61v3.884a1 1 0 0 0 1.001 1h1.452v7.836a.865.865 0 0 1-.866.865h-4.876a.865.865 0 0 1-.867-.865v-17.377h2.102a1 1 0 0 0 1.001-1v-7.832c0-3.162-2.27-5.984-5.41-6.387-3.8-.487-7.05 2.469-7.05 6.169v5.002a5.421 5.421 0 0 0-2.746.085c-2.516.743-4.145 3.19-4.145 5.81v3.51a1 1 0 0 0 1.001 1h2.07v11.02a.865.865 0 0 1-.866.865h-5.34a.865.865 0 0 1-.845-1.06l.473-2.053a1 1 0 0 0-.75-1.2 1.003 1.003 0 0 0-1.201.75l-.667 2.892a.867.867 0 0 1-.845.67h-.651a.865.865 0 0 1-.866-.864v-3.655a1 1 0 0 0-2.003 0v3.655a.865.865 0 0 1-.866.865h-5.426c3.552-2.151 6.057-5.85 6.559-10.16 3.678-1.195 6.812-3.91 8.452-7.763 1.022-2.398 1.26-5.058.869-7.634l-3.465-22.834c-.441-2.911-2.842-5.03-5.755-5.163v-7.193h.97a4.629 4.629 0 0 0 4.632-4.625v-2.719a4.63 4.63 0 0 0-4.644-4.625 1.036 1.036 0 0 1-1.034-1.14c.047-.488.076-.981.076-1.481v-7.07c0-3.963-3.086-7.212-6.982-7.497V148.9c0-9.547-7.777-17.315-17.336-17.315 0 0-16.548-.075-24.584-.14a4.311 4.311 0 0 1-4.278-4.313v-5.633c0-2.438-2.961-4.102-6.726-4.906l-4.696-.543a3.146 3.146 0 0 0-.1-.007 26.891 26.891 0 0 0-5.296.397v-11.516c0-4.44-6.996-8.048-16.627-8.978l18.666-78.357c.732-3.074 5.111-3.074 5.844 0l1.099 4.612c.128.537.666.866 1.206.74a1 1 0 0 0 .742-1.203L150.232.769a1.001 1.001 0 0 0-1.948 0l-21.961 92.188c-.39 1.634-1.862 2.749-3.544 2.747h-.029c-12.082 0-21.547 4.05-21.547 9.22v21.04a1 1 0 0 0 2.002 0v-12.857c0-1.711 1.787-2.817 3.326-2.066 3.914 1.91 9.677 3.1 16.22 3.1 6.54 0 12.304-1.19 16.218-3.1 1.54-.751 3.325.356 3.325 2.066v3.784c-3.163.885-5.506 2.439-5.506 4.607v10.086h-5.516c-8.951 0-16.338 6.813-17.24 15.519a8.78 8.78 0 0 0-.82.125l-4.803-14.343c-.664-1.98-3.128-2.79-6.205-2.776-2.417.012-5.214.535-7.814 1.404-5.912 1.974-11.556 5.983-10.371 9.52l8.1 24.19c.669 1.997-.819 4.06-2.928 4.06h-1.074a1.01 1.01 0 0 0-.709.294l-39.947 39.899-.002.002a.991.991 0 0 0-.192.286c-.014.03-.022.06-.034.094a1.023 1.023 0 0 0-.053.263c-.001.022-.012.04-.012.062 0 .03.004.06.004.093v.004c.054 9.612 7.894 17.416 17.531 17.416h19.862c1.415 0 2.548 1.158 2.55 2.571.01 4.974 2.683 9.324 6.66 11.733h-8.781c-.484 0-.898-.345-.985-.821l-.765-4.218a1.003 1.003 0 0 0-1.164-.805 1 1 0 0 0-.807 1.163l.636 3.504a1 1 0 0 1-.985 1.177h-28.37a1 1 0 0 1-1.002-1v-1.02a1 1 0 1 0-2.003 0V241a1 1 0 0 1-1 1h-.42a1 1 0 0 1-1.002-1v-3.86a1 1 0 0 0-2.002 0V241a1 1 0 0 1-1.001 1h-.815a1 1 0 0 1-1.002-1v-.358c0-5.548-4.503-10.048-10.059-10.048h-.279a2 2 0 0 1-2.003-2v-1.22c0-14.565 10.687-26.634 24.655-28.823.773-.12 1.487-.484 2.006-1.069l.019-.022c.405-.458.027-1.172-.582-1.111-15.777 1.564-28.1 14.856-28.1 31.025v1.355c0 .968-.676 1.842-1.633 1.998-4.797.78-8.56 4.929-8.56 9.915v.36c-.002.552-.45.998-1.001.998H15a1.001 1.001 0 1 0 0 2H258a1 1 0 1 0 0-2z" mask="url(#b)"/>
            <path fill="#D3D6ED" d="M101.503 39.997c0 .832-.674 1.506-1.506 1.506a.997.997 0 1 0 0 1.994c.832 0 1.506.674 1.506 1.506a.998.998 0 0 0 1.994 0c0-.832.674-1.506 1.506-1.506a.998.998 0 0 0 0-1.994 1.506 1.506 0 0 1-1.506-1.506.997.997 0 1 0-1.994 0" mask="url(#b)"/>
            <path fill="#ACB0FF" d="M69 129a4 4 0 1 1-8-.001 4 4 0 0 1 8 .001" mask="url(#b)"/>
            <path fill="#202225" d="M65 125.979a3.025 3.025 0 0 0-3.021 3.022 3.023 3.023 0 0 0 3.021 3.02 3.023 3.023 0 0 0 3.021-3.02A3.025 3.025 0 0 0 65 125.979M65 134c-2.757 0-5-2.242-5-4.999A5.006 5.006 0 0 1 65 124c2.757 0 5 2.243 5 5.001A5.005 5.005 0 0 1 65 134" mask="url(#b)"/>
            <path fill="#FFF" d="M30 98l-8 14h16z" mask="url(#b)"/>
            <path fill="#202225" d="M25.42 110.997h9.16c.762 0 1.238-.835.857-1.503l-4.579-8.022a.985.985 0 0 0-1.716 0l-4.579 8.022c-.381.668.095 1.503.858 1.503M38.01 113H21.99a.988.988 0 0 1-.858-.5 1.015 1.015 0 0 1 0-1.003l8.01-14.032c.354-.62 1.362-.62 1.716 0l8.01 14.032c.176.31.176.692 0 1.002a.988.988 0 0 1-.858.501" mask="url(#b)"/>
        </g>
        <path d="M0 0h259v244H0z"/>
        <path d="M-51-58h360v360H-51z"/>
    </g>
</svg>
