<svg fill="none" height="168" viewBox="0 0 252 168" width="252" xmlns="http://www.w3.org/2000/svg" xmlns:xlink="http://www.w3.org/1999/xlink"><linearGradient id="a"><stop offset="0" stop-color="#4788ff"/><stop offset="1" stop-color="#365dec"/></linearGradient><linearGradient id="b" gradientUnits="userSpaceOnUse" x1="125.701" x2="125.701" xlink:href="#a" y1="14.5304" y2="167.847"/><linearGradient id="c"><stop offset="0" stop-color="#00e0a7"/><stop offset="1" stop-color="#00a6a0"/></linearGradient><linearGradient id="d" gradientUnits="userSpaceOnUse" x1="230.045" x2="230.045" xlink:href="#c" y1="71.2269" y2="137.999"/><linearGradient id="e" gradientUnits="userSpaceOnUse" x1="15798.6" x2="15798.6" xlink:href="#a" y1="2353.97" y2="27122.3"/><linearGradient id="f" gradientUnits="userSpaceOnUse" x1="26492.6" x2="26492.6" xlink:href="#c" y1="3157.9" y2="6021.08"/><linearGradient id="g" gradientUnits="userSpaceOnUse" x1="26492.6" x2="26492.6" xlink:href="#c" y1="3122.68" y2="5985.87"/><path d="m199.061 167.588-.22-1.355-4.813-29.809-4.674-29.788-9.199-59.6862c-1.888-12.3107-7.913-23.6113-17.081-32.0407-9.075-8.3307-20.624-13.46507-32.888-14.620093-12.299-1.174265-24.63 1.888303-34.951 8.680373-10.4082 6.89302-18.1642 17.11942-21.9949 29.00102-.4186 1.4949-.9169 2.9898-1.2457 4.4847l-.8671 4.5644-1.176 7.9728-2.3818 15.9456-4.8535 31.7121-2.4616 15.945-2.5313 15.886c-1.6943 10.594-3.3685 21.188-5.1525 31.762l-.2292 1.355h20.5001l1.4351-.608-.0598.608h102.9682l-.089-.907 1.475.907zm-38.03-10.813h-85.7977c.6179-6.607 1.2757-13.205 1.9234-19.802l1.5747-16.016 1.6543-15.995 3.3287-31.991 1.7141-15.9456.887-7.9728.5083-3.3585c.1893-1.1162.5381-2.1826.7873-3.2888 1.2288-4.359 3.1902-8.4773 5.8002-12.1785 4.0052-5.6313 9.3887-10.14 15.6367-13.0943 6.247-2.9543 13.148-4.2552 20.042-3.7781 9.302.6868 18.044 4.7108 24.616 11.3313 6.46 6.5102 10.51 15.0274 11.48 24.1476l6.229 60.0647 2.99 30.048 1.724 17.829z" fill="#9ecdff"/><path d="m188.078 167.618h-124.7541l15.4074-119.7813c1.1439-8.9545 4.8308-17.3935 10.6237-24.317.9966-1.1859 2.053-2.322 3.1493-3.4083 2.7023-2.6447 5.7138-4.9535 8.9697-6.8766.946-.578 1.923-1.1162 2.92-1.6145 2.702-1.3742 5.532-2.47915 8.451-3.2987.937-.26908 1.873-.4983 2.83-.70759 3.296-.70205 6.657-1.04951 10.026-1.03646 3.385-.00428 6.76.35996 10.066 1.08629.996.19932 1.893.43851 2.83.69762 2.919.82294 5.749 1.93114 8.451 3.30874.997.4983 1.993.9966 2.91 1.5945 3.253 1.9304 6.264 4.2423 8.97 6.8865 1.096 1.0863 2.152 2.2224 3.149 3.4084 5.775 6.9147 9.448 15.3396 10.584 24.2771z" fill="url(#b)"/><path d="m230.045 146.42c11.801 0 21.367-9.566 21.367-21.367 0-11.8-9.566-21.367-21.367-21.367s-21.367 9.567-21.367 21.367c0 11.801 9.566 21.367 21.367 21.367z" fill="url(#d)"/><path d="m230.045 111.201c11.801 0 21.367-9.567 21.367-21.3676 0-11.8007-9.566-21.3671-21.367-21.3671s-21.367 9.5664-21.367 21.3671c0 11.8006 9.566 21.3676 21.367 21.3676z" fill="url(#d)"/><path d="m125.701 6.57755c11.504-.00109 22.614 4.18585 31.256 11.77875s14.224 18.0723 15.704 29.4804l15.417 119.7413h-124.7541l15.4074-119.7413c1.4776-11.4107 7.0605-21.8927 15.705-29.4861 8.6447-7.5935 19.7587-11.7787 31.2647-11.77305z" fill="url(#e)"/><g fill="#365dec"><path d="m176.089 167.618h-2.82l-14.381-147.4967c1.096 1.0863 2.152 2.2224 3.149 3.4084z"/><path d="m160.064 167.618h-2.811l-10.205-155.9478c.997.4983 1.993.9966 2.91 1.5945z"/><path d="m143.839 167.618h-2.8l-5.272-159.95417c.996.19932 1.893.43851 2.83.69762z"/><path d="m92.5243 20.1512-14.3809 147.4968h-2.8204l14.052-144.0884c.9966-1.186 2.053-2.3221 3.1493-3.4084z"/><path d="m104.364 11.6602-10.2053 155.9578h-2.8104l10.0957-154.3433c.947-.578 1.923-1.1162 2.92-1.6145z"/><path d="m115.606 7.65387-5.272 159.96413h-2.801l5.282-159.25654c.937-.26909 1.874-.4983 2.791-.70759z"/></g><path d="m122.582 167.618h6.169l-1.436-161.00058c-.538 0-1.066 0-1.614 0-.538 0-1.066 0-1.605 0z" fill="#270813"/><path d="m51.9128 107.633c1.5946.618 3.229 1.206 4.9033 1.764" stroke="#cce0ff" stroke-linecap="round" stroke-miterlimit="10" stroke-width="3.72054"/><path d="m67.8485 112.675c36.7945 9.448 85.7675 8.97 121.2565-1.524" stroke="#cce0ff" stroke-dasharray="9.9 11.55" stroke-linecap="round" stroke-miterlimit="10" stroke-width="3.72054"/><path d="m194.596 109.407c1.674-.558 3.309-1.146 4.903-1.764" stroke="#cce0ff" stroke-linecap="round" stroke-miterlimit="10" stroke-width="3.72054"/><path d="m131.76 110.523h-12.228c-1.712 0-3.099 1.387-3.099 3.099v16.883c0 1.711 1.387 3.099 3.099 3.099h12.228c1.712 0 3.1-1.388 3.1-3.099v-16.883c0-1.712-1.388-3.099-3.1-3.099z" fill="#ffa600"/><path d="m131.76 107.005h-12.228c-1.712 0-3.099 1.387-3.099 3.099v16.883c0 1.711 1.387 3.099 3.099 3.099h12.228c1.712 0 3.1-1.388 3.1-3.099v-16.883c0-1.712-1.388-3.099-3.1-3.099z" fill="#ffd01a"/><path d="m125.701 118.167c1.816 0 3.289-1.473 3.289-3.289s-1.473-3.289-3.289-3.289-3.289 1.473-3.289 3.289 1.473 3.289 3.289 3.289z" fill="#270813"/><path d="m125.701 113.184-4.036 12.308h8.082z" fill="#270813"/><path d="m150.432 114.107-7.146.526c-2.273.167-3.979 2.145-3.812 4.417.167 2.273 2.145 3.98 4.417 3.812l7.147-.526c2.272-.167 3.979-2.145 3.812-4.417-.168-2.273-2.146-3.98-4.418-3.812z" stroke="#cce0ff" stroke-linecap="round" stroke-linejoin="round" stroke-width="3.72054"/><path d="m171.277 111.072-7.06 1.229c-2.245.39-3.748 2.527-3.357 4.772.39 2.245 2.527 3.748 4.772 3.357l7.059-1.228c2.245-.391 3.749-2.527 3.358-4.772s-2.527-3.748-4.772-3.358z" stroke="#cce0ff" stroke-linecap="round" stroke-linejoin="round" stroke-width="3.72054"/><path d="m191.641 106.027-6.871 2.033c-2.185.646-3.433 2.941-2.786 5.126.646 2.185 2.941 3.433 5.127 2.786l6.871-2.032c2.185-.647 3.432-2.942 2.786-5.127-.647-2.185-2.942-3.433-5.127-2.786z" stroke="#cce0ff" stroke-linecap="round" stroke-linejoin="round" stroke-width="3.72054"/><path d="m100.363 122.339 7.146.526c2.273.167 4.25-1.539 4.418-3.812.167-2.272-1.54-4.25-3.812-4.418l-7.146-.526c-2.273-.167-4.2508 1.54-4.4181 3.812-.1673 2.273 1.5394 4.251 3.8121 4.418z" stroke="#cce0ff" stroke-linecap="round" stroke-linejoin="round" stroke-width="3.72054"/><path d="m78.6932 119.197 7.0595 1.228c2.2449.391 4.3814-1.112 4.772-3.357s-1.1126-4.382-3.3576-4.773l-7.0595-1.228c-2.2449-.39-4.3815 1.113-4.7721 3.358s1.1127 4.381 3.3577 4.772z" stroke="#cce0ff" stroke-linecap="round" stroke-linejoin="round" stroke-width="3.72054"/><path d="m57.4179 113.949 6.8712 2.032c2.185.647 4.4804-.6 5.1268-2.786.6464-2.185-.6009-4.48-2.786-5.126l-6.8711-2.033c-2.1851-.647-4.4805.601-5.1269 2.786s.6009 4.48 2.786 5.127z" stroke="#cce0ff" stroke-linecap="round" stroke-linejoin="round" stroke-width="3.72054"/><path d="m244.864 143.53h-29.011c-1.535 0-2.78 1.245-2.78 2.781v18.507c0 1.535 1.245 2.78 2.78 2.78h29.011c1.536 0 2.781-1.245 2.781-2.78v-18.507c0-1.536-1.245-2.781-2.781-2.781z" fill="#cce0ff"/><path d="m213.073 149.898h34.572" stroke="#270813" stroke-miterlimit="10" stroke-width="2.81195"/><path d="m21.3671 146.42c11.8007 0 21.3671-9.566 21.3671-21.367 0-11.8-9.5664-21.367-21.3671-21.367-11.80073 0-21.3671 9.567-21.3671 21.367 0 11.801 9.56637 21.367 21.3671 21.367z" fill="url(#f)"/><path d="m21.3671 111.201c11.8007 0 21.3671-9.567 21.3671-21.3676 0-11.8007-9.5664-21.3671-21.3671-21.3671-11.80073 0-21.3671 9.5664-21.3671 21.3671 0 11.8006 9.56637 21.3676 21.3671 21.3676z" fill="url(#g)"/><path d="m6.54761 167.588h29.01099c1.5356 0 2.7805-1.245 2.7805-2.78v-18.507c0-1.536-1.2449-2.781-2.7805-2.781h-29.01099c-1.53564 0-2.78052 1.245-2.78052 2.781v18.507c0 1.535 1.24488 2.78 2.78052 2.78z" fill="#cce0ff"/><path d="m38.3391 149.898h-34.57201" stroke="#270813" stroke-miterlimit="10" stroke-width="2.81195"/><path d="m207.293 48.1556 3.308-1.156c.173-.0577.322-.1682.429-.3157.106-.1475.163-.3247.163-.5065s-.057-.359-.163-.5065c-.107-.1476-.256-.258-.429-.3157l-3.308-1.1561c-.123-.0431-.235-.1127-.328-.204-.094-.0913-.165-.202-.211-.3242l-1.156-3.3186c-.06-.1689-.17-.3151-.317-.4185-.146-.1034-.321-.1589-.5-.1589s-.354.0555-.5.1589c-.147.1034-.257.2496-.317.4185l-1.156 3.3186c-.046.1222-.117.2329-.21.3242s-.205.1609-.328.204l-3.309 1.1561c-.172.0577-.322.1681-.429.3157-.106.1475-.163.3247-.163.5065s.057.359.163.5065c.107.1475.257.258.429.3157l3.349 1.156c.123.0431.235.1128.328.2041s.164.202.21.3241l1.156 3.3187c.06.1689.17.3151.317.4185.146.1033.321.1589.5.1589s.354-.0556.5-.1589c.147-.1034.257-.2496.317-.4185l1.156-3.3187c.041-.1182.107-.2264.193-.3174s.19-.1629.306-.2108z" fill="#ff87ff"/><path d="m221.943 83.226c1.332 0 2.411-1.0798 2.411-2.4118s-1.079-2.4118-2.411-2.4118-2.412 1.0798-2.412 2.4118 1.08 2.4118 2.412 2.4118z" fill="#ffd01a"/><path d="m27.835 125.492c1.332 0 2.4118-1.08 2.4118-2.412s-1.0798-2.412-2.4118-2.412-2.4118 1.08-2.4118 2.412 1.0798 2.412 2.4118 2.412z" fill="#ffd01a"/><path d="m16.3941 86.0862c1.332 0 2.4117-1.0798 2.4117-2.4118s-1.0797-2.4117-2.4117-2.4117-2.4118 1.0797-2.4118 2.4117 1.0798 2.4118 2.4118 2.4118z" fill="#ffd01a"/><path d="m34.3428 90.531c1.332 0 2.4118-1.0798 2.4118-2.4117 0-1.332-1.0798-2.4118-2.4118-2.4118s-2.4118 1.0798-2.4118 2.4118c0 1.3319 1.0798 2.4117 2.4118 2.4117z" fill="#cd1580"/><path d="m233.643 122.681c1.123 0 2.033-.91 2.033-2.033s-.91-2.033-2.033-2.033-2.033.91-2.033 2.033.91 2.033 2.033 2.033z" fill="#cd1580"/><path d="m241.286 122.681c1.123 0 2.034-.91 2.034-2.033s-.911-2.033-2.034-2.033c-1.122 0-2.033.91-2.033 2.033s.911 2.033 2.033 2.033z" fill="#cd1580"/><path d="m237.46 116.054c1.122 0 2.033-.91 2.033-2.033s-.911-2.033-2.033-2.033c-1.123 0-2.033.91-2.033 2.033s.91 2.033 2.033 2.033z" fill="#cd1580"/><path d="m53.7365 6.44798-.9168 1.87361c-.0437.09514-.0576.20129-.0398.30447s.0664.19855.1394.27356c.0745.07132.1679.11975.2691.13952.1009.02962.2081.02962.309 0l1.8536-.89694c.0723-.03184.1503-.04878.2293-.04983.082.0022.163.01908.2391.04983l1.8438.89694c.0965.03502.2024.03502.2989 0 .0983-.01994.1884-.06848.2591-.13952.0721-.07272.1177-.16745.1296-.26909.0298-.09403.0298-.19498 0-.28901l-.8969-1.87361c-.0138-.07243-.0138-.14681 0-.21925-.0151-.07231-.0151-.14694 0-.21925l.8969-1.87361c.0342-.10014.0342-.20879 0-.30894-.0132-.10623-.0625-.20471-.1395-.27905-.0769-.07354-.1741-.12217-.2791-.13952-.1024-.01356-.2065.00379-.2989.04983l-1.8238.86704c-.0699.03967-.1489.06029-.2292.05979-.0836.00131-.1661-.0193-.2392-.05979l-1.8437-.88698c-.0963-.0452-.2034-.06247-.309-.04983-.1042.01956-.2009.06789-.279.13953-.0696.07955-.1177.17563-.1395.27905-.0291.10093-.0291.20801 0 .30894l.9467 1.84371c.0395.06264.0602.13525.0598.20929.0128.08841-.001.17864-.0399.25911z" fill="#ffd01a"/><path d="m28.295 41.1041c-.5721-.5721-1.4997-.5721-2.0718 0-.5722.5721-.5721 1.4997 0 2.0718l1.0359 1.0359c.5721.5722 1.4997.5722 2.0718 0 .5721-.5721.5721-1.4997 0-2.0718z" fill="#776bff"/><path d="m36.6 49.4128c-.5721-.5721-1.4997-.5721-2.0718 0-.5721.5722-.5721 1.4997 0 2.0719l1.0359 1.0359c.5722.5721 1.4997.5721 2.0719 0 .5721-.5722.5721-1.4997 0-2.0719z" fill="#776bff"/><path d="m37.6403 43.1773c.5721-.5721.5721-1.4997 0-2.0718s-1.4997-.5721-2.0718 0l-1.036 1.0359c-.5721.5721-.5721 1.4997 0 2.0718.5722.5722 1.4997.5722 2.0719 0z" fill="#776bff"/><path d="m29.3352 51.4761c.5721-.5721.5721-1.4997 0-2.0718-.5721-.5722-1.4997-.5722-2.0718 0l-1.0359 1.0359c-.5721.5721-.5721 1.4997 0 2.0718s1.4997.5721 2.0718 0z" fill="#776bff"/></svg>