<svg width="280" height="168" viewBox="0 0 280 168" fill="none" xmlns="http://www.w3.org/2000/svg">
<g clip-path="url(#clip0)">
<path d="M0 8C0 3.58172 3.58172 0 8 0H272C276.418 0 280 3.58172 280 8V168H0V8Z" fill="#36393F"/>
<path d="M84.838 61.644C84.838 58.818 83.11 57.126 80.734 57.126C78.376 57.126 76.648 58.836 76.648 61.662C76.648 64.488 78.358 66.18 80.716 66.18C83.092 66.18 84.838 64.47 84.838 61.644ZM82.732 61.662C82.732 63.282 82.048 64.416 80.716 64.416C79.456 64.416 78.754 63.246 78.754 61.644C78.754 60.042 79.438 58.89 80.716 58.89C82.012 58.89 82.732 60.06 82.732 61.662ZM94.0062 66V59.736C94.0062 58.116 93.1422 57.126 91.5222 57.126C90.3522 57.126 89.4342 57.756 88.6242 58.53L88.4262 57.306H86.5902V66H88.7502V60.132C89.3802 59.466 90.0642 59.034 90.7302 59.034C91.5222 59.034 91.8462 59.556 91.8462 60.312V66H94.0062ZM103.91 61.644C103.91 58.818 102.182 57.126 99.8063 57.126C97.4483 57.126 95.7203 58.836 95.7203 61.662C95.7203 64.488 97.4303 66.18 99.7883 66.18C102.164 66.18 103.91 64.47 103.91 61.644ZM101.804 61.662C101.804 63.282 101.12 64.416 99.7883 64.416C98.5283 64.416 97.8263 63.246 97.8263 61.644C97.8263 60.042 98.5103 58.89 99.7883 58.89C101.084 58.89 101.804 60.06 101.804 61.662Z" fill="#FF73FA"/>
<path d="M121 48L113 56V64L121 72L129 64V56L121 48ZM127 63.2L121 69.2L115 63.2V56.8L121 50.8L127 56.8V63.2Z" fill="#FF73FA"/>
<path d="M117 57.7V62.3L121 66.3L125 62.3V57.7L121 53.7L117 57.7Z" fill="#FF73FA"/>
<path d="M40 84C53.2548 84 64 73.2548 64 60C64 46.7452 53.2548 36 40 36C26.7452 36 16 46.7452 16 60C16 73.2548 26.7452 84 40 84Z" fill="#5865F2"/>
<path d="M63.0401 66.66L54.4601 64.66C56.0721 61.9139 57.012 58.8255 57.2032 55.6469C57.3944 52.4684 56.8314 49.2896 55.5601 46.37V46.37C55.4977 46.2369 55.3938 46.1275 55.264 46.0583C55.1342 45.9892 54.9855 45.964 54.8402 45.9865C54.6948 46.0091 54.5607 46.0781 54.4579 46.1833C54.3552 46.2885 54.2893 46.4242 54.2701 46.57C53.3734 53.4233 49.8139 59.6477 44.3621 63.8961C38.9103 68.1445 32.0047 70.0751 25.1401 69.27C24.9896 69.2431 24.8344 69.2684 24.7003 69.3419C24.5662 69.4153 24.4612 69.5324 24.4028 69.6737C24.3444 69.815 24.3361 69.972 24.3793 70.1187C24.4225 70.2654 24.5145 70.3929 24.6401 70.48C26.0452 71.5666 27.5888 72.4611 29.2301 73.14C29.9738 73.4512 30.7351 73.7184 31.5101 73.94C32.0601 74.09 32.6001 74.22 33.1601 74.33C37.1792 75.1187 41.3435 74.6545 45.0901 73C47.0323 72.1642 48.8283 71.0231 50.4101 69.62C51.0701 69.84 55.9401 72.25 59.5301 73.92C61.1202 71.7266 62.3086 69.2685 63.0401 66.66V66.66Z" fill="#91FFAD"/>
<path d="M36.58 74.3799C37.95 73.0099 38.46 71.2899 37.7 70.5099C36.94 69.7299 35.19 70.1999 33.81 71.5099C33.551 71.7633 33.2297 71.9439 32.8785 72.0335C32.5274 72.123 32.1588 72.1183 31.81 72.0199C30.67 71.7099 29.13 71.3899 28.81 71.8599C28.7327 72.018 28.6984 72.1937 28.7107 72.3693C28.723 72.5449 28.7814 72.7141 28.88 72.8599L29.15 73.0999C29.9137 73.4178 30.695 73.6916 31.49 73.9199C32.04 74.0699 32.58 74.1999 33.14 74.3099C34.1304 74.4996 35.1329 74.6199 36.14 74.6699C36.292 74.5815 36.4389 74.4846 36.58 74.3799V74.3799Z" fill="black"/>
<path d="M36.5802 74.3802C36.8417 74.1221 37.0793 73.841 37.2902 73.5402C36.629 73.302 35.9141 73.2554 35.2276 73.4057C34.5412 73.5561 33.9111 73.8974 33.4102 74.3902C34.3315 74.5621 35.2638 74.669 36.2002 74.7102C36.3326 74.6069 36.4594 74.4968 36.5802 74.3802V74.3802Z" fill="#EB459F"/>
<path d="M51.87 61.8301C51.8656 63.7418 51.2214 65.597 50.04 67.1001C48.6668 68.4351 46.8847 69.2698 44.98 69.4701C44.9941 67.5564 45.6529 65.7033 46.85 64.2101C48.2126 62.8813 49.9788 62.044 51.87 61.8301V61.8301Z" fill="white"/>
<path d="M46.82 64.21C46.0439 65.1036 45.5011 66.1755 45.24 67.33C45.342 67.4772 45.4751 67.6001 45.63 67.69C46.63 68.2 48.07 67.29 48.94 65.69C49.227 65.2163 49.4126 64.6882 49.4849 64.1391C49.5572 63.59 49.5146 63.0318 49.36 62.5C48.3975 62.8756 47.5301 63.4595 46.82 64.21Z" fill="black"/>
<path d="M85 117.41C85 114.494 83.56 113.126 81.724 113.126C80.626 113.126 79.816 113.702 79.258 114.278V109.004L77.098 109.346V121.532C78.178 121.892 79.312 122.108 80.662 122.108C83.254 122.108 85 120.614 85 117.41ZM82.822 117.536C82.822 119.516 81.994 120.344 80.626 120.344C80.014 120.344 79.708 120.272 79.258 120.11V116.168C79.798 115.52 80.446 115.034 81.166 115.034C82.138 115.034 82.822 115.862 82.822 117.536ZM94.506 117.644C94.506 114.818 92.778 113.126 90.402 113.126C88.044 113.126 86.316 114.836 86.316 117.662C86.316 120.488 88.026 122.18 90.384 122.18C92.76 122.18 94.506 120.47 94.506 117.644ZM92.4 117.662C92.4 119.282 91.716 120.416 90.384 120.416C89.124 120.416 88.422 119.246 88.422 117.644C88.422 116.042 89.106 114.89 90.384 114.89C91.68 114.89 92.4 116.06 92.4 117.662ZM102.054 117.536C102.054 119.444 101.208 120.362 100.092 120.362C99.3542 120.362 98.9402 120.236 98.4182 119.984V116.258C98.9942 115.52 99.6062 115.034 100.38 115.034C101.352 115.034 102.054 115.862 102.054 117.536ZM104.232 117.41C104.232 114.494 102.774 113.126 100.956 113.126C99.7502 113.126 98.9042 113.792 98.2922 114.494L98.0942 113.306H96.2582V125.348L98.4182 125.024V121.748C98.9402 121.946 99.6062 122.09 100.434 122.09C102.432 122.09 104.232 120.65 104.232 117.41ZM111.792 117.536C111.792 119.444 110.946 120.362 109.83 120.362C109.092 120.362 108.678 120.236 108.156 119.984V116.258C108.732 115.52 109.344 115.034 110.118 115.034C111.09 115.034 111.792 115.862 111.792 117.536ZM113.97 117.41C113.97 114.494 112.512 113.126 110.694 113.126C109.488 113.126 108.642 113.792 108.03 114.494L107.832 113.306H105.996V125.348L108.156 125.024V121.748C108.678 121.946 109.344 122.09 110.172 122.09C112.17 122.09 113.97 120.65 113.97 117.41ZM119.191 114.62C120.235 114.62 120.775 115.376 120.919 116.726H117.445C117.607 115.322 118.327 114.62 119.191 114.62ZM123.007 121.118L122.755 119.426C121.801 120.092 120.883 120.506 119.767 120.506C118.435 120.506 117.517 119.768 117.427 118.076H123.007C123.007 117.95 123.025 117.734 123.025 117.554C123.025 115.088 121.855 113.126 119.245 113.126C116.977 113.126 115.285 114.836 115.285 117.662C115.285 120.794 117.103 122.18 119.533 122.18C120.937 122.18 122.071 121.766 123.007 121.118ZM130.008 115.268L129.666 113.126C128.316 113.198 127.452 114.044 126.876 115.052L126.606 113.306H124.77V122H126.93V117.014C127.56 116.078 128.658 115.358 130.008 115.268Z" fill="#FF73FA"/>
<path d="M153 104L145 112V120L153 128L161 120V112L153 104ZM159 119.2L153 125.2L147 119.2V112.8L153 106.8L159 112.8V119.2Z" fill="#FF73FA"/>
<path d="M149 113.7V118.3L153 122.3L157 118.3V113.7L153 109.7L149 113.7Z" fill="#FF73FA"/>
<path d="M40.1699 140C53.4248 140 64.1699 129.255 64.1699 116C64.1699 102.745 53.4248 92 40.1699 92C26.9151 92 16.1699 102.745 16.1699 116C16.1699 129.255 26.9151 140 40.1699 140Z" fill="#3F99F2"/>
<path d="M40 140.03C53.2548 140.03 64 129.285 64 116.03C64 102.775 53.2548 92.0298 40 92.0298C26.7452 92.0298 16 102.775 16 116.03C16 129.285 26.7452 140.03 40 140.03Z" fill="#3F99F2"/>
<path d="M32.6298 101.55C24.7998 100.86 25.0898 106.76 26.1798 110.83C25.7198 109.99 25.1798 109.18 24.6798 108.39C24.4065 107.983 24.1265 107.583 23.8398 107.19L23.3898 106.6C23.2398 106.4 23.0998 106.21 22.9098 105.99L22.8498 105.92C22.7214 105.767 22.5695 105.635 22.3998 105.53C21.9555 105.307 21.4442 105.258 20.9654 105.391C20.4867 105.525 20.0748 105.832 19.8101 106.253C19.5455 106.674 19.4469 107.178 19.5338 107.667C19.6206 108.157 19.8866 108.596 20.2798 108.9C20.6198 109.11 20.9998 109.38 21.3598 109.64L22.4398 110.45C23.1398 111.01 23.8298 111.59 24.4398 112.21C24.6698 112.43 24.8998 112.66 25.1198 112.89C22.6498 111.45 19.0098 110.13 18.2398 114.29C17.0498 120.72 22.6498 122.7 26.2398 122.66C26.2398 122.66 36.3498 119.45 38.5898 115.14C38.6098 115.14 44.4498 102.6 32.6298 101.55Z" fill="#FF78B9"/>
<path d="M33.1626 118.896C35.2882 118.846 36.9593 116.607 36.8949 113.896C36.8306 111.185 35.0552 109.029 32.9295 109.079C30.8038 109.129 29.1327 111.368 29.1971 114.079C29.2615 116.79 31.0369 118.947 33.1626 118.896Z" fill="white" stroke="#FFAB18" stroke-width="0.85" stroke-miterlimit="10"/>
<path d="M32.0299 111.81C32.4654 111.785 32.9018 111.836 33.3199 111.96C33.7365 112.084 34.1217 112.295 34.4499 112.58C34.7685 112.853 35.0214 113.195 35.1899 113.58L35.2499 113.73V113.87L35.3399 114.17C35.3399 114.37 35.3999 114.57 35.4299 114.77C35.4384 114.825 35.4252 114.882 35.3931 114.928C35.3611 114.974 35.3125 115.007 35.2575 115.018C35.2025 115.03 35.1451 115.02 35.0972 114.99C35.0493 114.961 35.0145 114.914 34.9999 114.86V114.86C34.9999 114.68 34.9199 114.5 34.8699 114.33L34.7699 114.08L34.7199 113.96L34.6599 113.85C34.508 113.545 34.2851 113.281 34.0099 113.08C33.7389 112.883 33.4285 112.746 33.0999 112.68C32.9347 112.649 32.7677 112.629 32.5999 112.62C32.4368 112.609 32.2731 112.609 32.1099 112.62V112.62C32.0547 112.63 31.998 112.629 31.9432 112.616C31.8885 112.604 31.8367 112.581 31.791 112.548C31.7453 112.516 31.7067 112.474 31.6773 112.426C31.6479 112.379 31.6284 112.325 31.6199 112.27C31.6025 112.159 31.6294 112.045 31.6948 111.953C31.7603 111.862 31.8591 111.799 31.9699 111.78L32.0299 111.81Z" fill="black"/>
<path d="M56.1706 114.725C56.3508 112.02 55.0182 109.728 53.1942 109.606C51.3702 109.485 49.7455 111.58 49.5653 114.285C49.3851 116.991 50.7177 119.283 52.5417 119.405C54.3657 119.526 55.9905 117.431 56.1706 114.725Z" fill="white" stroke="#FFAB18" stroke-width="0.79" stroke-miterlimit="10"/>
<path d="M53.94 113.47C53.7277 113.441 53.5123 113.441 53.3 113.47C53.0816 113.51 52.8719 113.588 52.68 113.7C52.4885 113.808 52.3243 113.958 52.2 114.14C52.0578 114.326 51.9495 114.536 51.88 114.76V114.76C51.87 114.788 51.8545 114.813 51.8344 114.835C51.8142 114.857 51.7899 114.875 51.7628 114.887C51.7357 114.899 51.7064 114.905 51.6767 114.906C51.647 114.906 51.6175 114.901 51.59 114.89C51.5386 114.872 51.4958 114.835 51.4699 114.787C51.444 114.739 51.4369 114.683 51.45 114.63C51.5011 114.347 51.5955 114.074 51.73 113.82C51.875 113.556 52.0724 113.325 52.31 113.14C52.5508 112.955 52.8213 112.813 53.11 112.72C53.4013 112.627 53.7044 112.577 54.01 112.57C54.124 112.57 54.2334 112.615 54.3141 112.696C54.3947 112.776 54.44 112.886 54.44 113C54.44 113.112 54.3961 113.22 54.3176 113.3C54.2391 113.381 54.1323 113.427 54.02 113.43H53.94V113.47Z" fill="black"/>
<path d="M41.08 111C38.8553 113.632 36.2499 115.918 33.35 117.78C31.3342 119.053 29.163 120.061 26.89 120.78C21.55 122.52 19.67 125.7 19.01 127.78C19.5576 128.765 20.1724 129.71 20.85 130.61C33.29 133.08 51.58 116.61 51.58 116.61C54.79 107.11 46.94 104.09 41.08 111Z" fill="#FFC619"/>
<path d="M50.0099 118C51.1927 116.234 51.7426 114.119 51.5699 112C51.5463 111.269 51.2814 110.567 50.8165 110.002C50.3515 109.438 49.7128 109.043 48.9999 108.88C47.6535 108.668 46.2762 108.967 45.1399 109.72C44.0323 110.497 43.0247 111.407 42.1399 112.43C40.9999 113.61 38.6299 116.82 37.2999 118.12C31.7799 123.5 30.6499 124.39 25.3899 125.78C25.3799 125.79 45.0999 124.28 50.0099 118Z" fill="black"/>
<path d="M49.7799 117.81C50.2641 117.153 50.6265 116.415 50.8499 115.63C51.0745 114.837 51.2086 114.022 51.2499 113.2C51.2499 112.8 51.2499 112.37 51.2499 111.98C51.2138 111.593 51.1158 111.215 50.9599 110.86C50.8191 110.509 50.6042 110.192 50.3298 109.931C50.0554 109.671 49.728 109.472 49.3699 109.35C49.001 109.233 48.6168 109.173 48.2299 109.17C47.8359 109.172 47.4434 109.219 47.0599 109.31C46.2864 109.495 45.5584 109.835 44.9199 110.31C44.2607 110.821 43.6452 111.386 43.0799 112C42.7999 112.3 42.4899 112.61 42.2199 112.91C41.9499 113.21 41.6799 113.54 41.4099 113.91C40.3399 115.21 39.3199 116.56 38.1699 117.84C37.8899 118.16 37.5699 118.48 37.2699 118.77L36.3499 119.66C35.7399 120.25 35.1299 120.83 34.4999 121.41C33.8699 121.99 33.2199 122.55 32.4999 123.08C32.1599 123.35 31.7999 123.59 31.4399 123.84L30.8799 124.18L30.3099 124.49C28.7623 125.229 27.1149 125.738 25.4199 126L25.3599 125.62C27.5399 125.43 29.7099 125.14 31.8699 124.78C34.0299 124.42 36.1799 124 38.2999 123.46C40.4189 122.956 42.4952 122.287 44.5099 121.46C45.5087 121.038 46.4718 120.536 47.3899 119.96C48.2993 119.379 49.1068 118.653 49.7799 117.81V117.81ZM50.2399 118.16C49.5132 119.029 48.6483 119.772 47.6799 120.36C46.7251 120.951 45.7214 121.46 44.6799 121.88C42.6347 122.708 40.5284 123.377 38.3799 123.88C36.2399 124.41 34.0699 124.83 31.8999 125.17C29.7299 125.51 27.5499 125.78 25.3499 125.97L23.9199 126.08L25.2899 125.59C26.8783 125.08 28.426 124.452 29.9199 123.71C31.3704 122.876 32.7137 121.869 33.9199 120.71C34.5399 120.14 35.1499 119.56 35.7599 118.97C36.3699 118.38 36.9999 117.8 37.5399 117.2C38.6499 115.96 39.6999 114.62 40.7899 113.32C41.0599 112.99 41.3399 112.67 41.6299 112.32L42.5199 111.4C43.12 110.769 43.7723 110.19 44.4699 109.67C45.1852 109.113 46.0213 108.733 46.9107 108.559C47.8001 108.386 48.7179 108.423 49.5899 108.67C50.044 108.821 50.4554 109.078 50.7899 109.42C51.1168 109.751 51.3781 110.141 51.5599 110.57C51.7399 110.996 51.8513 111.449 51.8899 111.91C51.915 112.346 51.915 112.784 51.8899 113.22C51.8366 114.091 51.6822 114.954 51.4299 115.79C51.1788 116.645 50.7757 117.448 50.2399 118.16Z" fill="#FFAB18"/>
<path d="M57.67 117.29C55.67 115.58 49.06 115.24 42.67 118.29C36.28 121.34 33.31 124.13 28.53 124.21C26.4416 124.219 24.4325 125.011 22.9 126.43C21.6 127.66 20.64 128.77 20.64 128.77L20.51 130.11C22.735 133.255 25.681 135.821 29.1015 137.594C32.522 139.367 36.3174 140.295 40.17 140.3C40.64 140.3 41.1 140.3 41.56 140.25C43.328 139.022 44.7892 137.404 45.83 135.52C48.07 131.42 49.65 126.41 53.55 124.16C58.39 121.34 58.74 118.2 57.67 117.29Z" fill="url(#paint0_linear)"/>
<path d="M40.79 123.08C30.79 129.08 24.38 129.23 21.14 128.87L21.04 129.49L39.04 139.17L43.26 138.82C44.256 137.848 45.1049 136.737 45.78 135.52C48.02 131.42 49.6 126.41 53.5 124.16C55.1165 123.313 56.4924 122.071 57.5 120.55C55.63 118.91 50.48 117.23 40.79 123.08Z" fill="#FFC619"/>
<path d="M37.9698 134.62C37.906 134.621 37.8425 134.61 37.7831 134.586C37.7237 134.563 37.6696 134.528 37.6239 134.483C37.5783 134.438 37.5421 134.385 37.5173 134.326C37.4926 134.267 37.4798 134.204 37.4798 134.14C37.4785 134.076 37.4899 134.012 37.5133 133.952C37.5367 133.892 37.5717 133.837 37.6163 133.791C37.6608 133.744 37.7141 133.707 37.7731 133.681C37.832 133.655 37.8955 133.641 37.9598 133.64C38.6307 133.589 39.2583 133.289 39.7198 132.8C40.0034 132.413 40.2032 131.972 40.3065 131.503C40.4098 131.035 40.4144 130.55 40.3198 130.08V129.6L40.7998 129.54C41.22 129.488 41.613 129.304 41.9221 129.015C42.2312 128.726 42.4405 128.346 42.5198 127.93L42.5698 127.52H42.9798C43.4246 127.491 43.8533 127.344 44.2211 127.092C44.5889 126.84 44.8821 126.494 45.0698 126.09C45.0854 126.022 45.1154 125.958 45.1577 125.903C45.2 125.847 45.2537 125.801 45.3151 125.768C45.3766 125.735 45.4444 125.715 45.5141 125.711C45.5837 125.706 45.6536 125.716 45.7189 125.74C45.7843 125.765 45.8438 125.803 45.8932 125.852C45.9427 125.902 45.981 125.961 46.0057 126.026C46.0304 126.091 46.0409 126.161 46.0365 126.231C46.032 126.3 46.0127 126.368 45.9798 126.43C45.7595 126.952 45.4098 127.41 44.9637 127.76C44.5175 128.11 43.9897 128.34 43.4298 128.43C43.2905 128.912 43.0283 129.35 42.669 129.701C42.3096 130.051 41.8654 130.303 41.3798 130.43C41.491 131.507 41.175 132.584 40.4998 133.43C39.8581 134.122 38.9724 134.538 38.0298 134.59L37.9698 134.62Z" fill="#FFAB18"/>
<path d="M30.17 136.67C30.0581 136.665 29.9521 136.618 29.8719 136.54C29.7916 136.462 29.7426 136.358 29.734 136.246C29.7254 136.134 29.7579 136.023 29.8252 135.934C29.8926 135.844 29.9903 135.783 30.1 135.76C30.8498 135.601 31.5241 135.193 32.014 134.604C32.5038 134.014 32.7807 133.276 32.8 132.51V132.08H33.17C33.6406 132.056 34.0857 131.859 34.4198 131.527C34.7539 131.195 34.9534 130.751 34.98 130.28C34.9896 130.221 35.011 130.164 35.0431 130.113C35.0752 130.061 35.1172 130.017 35.1666 129.983C35.216 129.948 35.2719 129.924 35.3309 129.912C35.3899 129.899 35.4508 129.899 35.51 129.91C35.5691 129.918 35.6259 129.939 35.6769 129.97C35.7279 130.001 35.772 130.042 35.8066 130.091C35.8412 130.139 35.8656 130.194 35.8782 130.253C35.8908 130.311 35.8914 130.371 35.88 130.43C35.8267 131.042 35.5799 131.621 35.1753 132.083C34.7707 132.545 34.2294 132.866 33.63 133C33.5027 133.893 33.1016 134.725 32.4819 135.38C31.8622 136.036 31.0544 136.483 30.17 136.66V136.67Z" fill="#FFAB18"/>
<path d="M43.5099 133.42C43.4216 133.419 43.3353 133.393 43.261 133.345C43.1868 133.298 43.1274 133.23 43.0899 133.15C43.065 133.096 43.0512 133.037 43.0493 132.977C43.0474 132.917 43.0575 132.858 43.0789 132.802C43.1003 132.746 43.1326 132.695 43.174 132.652C43.2154 132.608 43.265 132.574 43.3199 132.55V132.55C43.3199 132.55 44.9199 131.8 44.9099 130.43V130.05L45.2899 129.98C45.6885 129.895 46.0543 129.697 46.3434 129.41C46.6325 129.123 46.8327 128.758 46.9199 128.36C46.9418 128.241 47.0097 128.135 47.1089 128.066C47.2081 127.997 47.3306 127.97 47.4499 127.99C47.5098 128.001 47.567 128.023 47.6181 128.056C47.6692 128.09 47.7133 128.132 47.7477 128.183C47.7821 128.233 47.8062 128.289 47.8186 128.349C47.831 128.409 47.8314 128.47 47.8199 128.53C47.7202 129.05 47.4818 129.534 47.1297 129.93C46.7776 130.326 46.3251 130.62 45.8199 130.78C45.6944 131.348 45.4384 131.878 45.0721 132.329C44.7058 132.781 44.2394 133.14 43.7099 133.38C43.6474 133.409 43.5788 133.423 43.5099 133.42V133.42Z" fill="#FFAB18"/>
<path d="M89.572 178.899V172.635C89.572 171.015 88.762 170.025 87.124 170.025C85.954 170.025 85 170.655 84.226 171.429C83.902 170.583 83.236 170.025 81.994 170.025C80.824 170.025 79.942 170.655 79.132 171.429L78.934 170.205H77.098V178.899H79.258V173.013C79.888 172.365 80.518 171.933 81.184 171.933C81.976 171.933 82.264 172.455 82.264 173.211V178.899H84.424V173.013C85.054 172.365 85.684 171.933 86.35 171.933C87.142 171.933 87.412 172.455 87.412 173.211V178.899H89.572ZM96.4926 176.505C95.8986 177.081 95.1966 177.441 94.4586 177.441C93.7926 177.441 93.3966 177.063 93.3966 176.433C93.3966 175.605 93.9906 174.867 96.4926 174.561V176.505ZM98.6526 178.899V172.941C98.6526 170.853 97.5366 170.025 95.2866 170.025C93.9006 170.025 92.8386 170.331 91.8306 170.727L92.1006 172.455C93.0366 172.041 93.9906 171.753 94.9986 171.753C95.9526 171.753 96.4926 172.113 96.4926 173.049V173.301C92.9826 173.643 91.2546 174.561 91.2546 176.667C91.2546 178.179 92.2446 179.079 93.7206 179.079C95.0166 179.079 95.9166 178.503 96.6186 177.765L96.7986 178.899H98.6526ZM103.043 178.899V165.903L100.883 166.245V178.899H103.043ZM107.578 178.899V165.903L105.418 166.245V178.899H107.578ZM117.604 174.543C117.604 171.717 115.876 170.025 113.5 170.025C111.142 170.025 109.414 171.735 109.414 174.561C109.414 177.387 111.124 179.079 113.482 179.079C115.858 179.079 117.604 177.369 117.604 174.543ZM115.498 174.561C115.498 176.181 114.814 177.315 113.482 177.315C112.222 177.315 111.52 176.145 111.52 174.543C111.52 172.941 112.204 171.789 113.482 171.789C114.778 171.789 115.498 172.959 115.498 174.561ZM130.719 170.205H128.649L127.155 175.947L125.589 170.205H123.681L122.115 175.965L120.585 170.079L118.389 170.367L120.981 178.917H122.961L124.527 173.175L126.129 178.917H128.109L130.719 170.205Z" fill="#FF73FA"/>
<g clip-path="url(#clip1)">
<path d="M154 160.899L146 168.899V176.899L154 184.899L162 176.899V168.899L154 160.899ZM160 176.099L154 182.099L148 176.099V169.699L154 163.699L160 169.699V176.099Z" fill="#FF73FA"/>
<path d="M150 170.6V175.2L154 179.2L158 175.2V170.6L154 166.6L150 170.6Z" fill="#FF73FA"/>
</g>
<path d="M40 196.3C53.2548 196.3 64 185.555 64 172.3C64 159.045 53.2548 148.3 40 148.3C26.7452 148.3 16 159.045 16 172.3C16 185.555 26.7452 196.3 40 196.3Z" fill="#FFE75C"/>
<path d="M46.42 164.59C46.83 173.05 45.42 174.08 43.71 174.16C42 174.24 40.49 173.36 40.08 164.89C39.67 156.42 40.93 153.01 42.68 152.89C44.43 152.77 46.01 156.12 46.42 164.59Z" fill="#EB459F"/>
<path d="M45.4201 165.27C45.6501 169.95 45.2001 170.51 44.6001 170.54C44.0001 170.57 43.5101 170.06 43.2801 165.37C43.0501 160.68 43.4401 158.8 44.0301 158.78C44.6201 158.76 45.2001 160.58 45.4201 165.27Z" fill="#FF78B9"/>
<path d="M33.0801 164.8C36.6601 172.48 38.3501 172.8 39.9401 172.02C41.5301 171.24 42.4101 169.81 38.8401 162.12C35.2701 154.43 32.5601 152 30.9701 152.74C29.3801 153.48 29.5101 157.12 33.0801 164.8Z" fill="#EB459F"/>
<path d="M35.8799 165.2C37.8799 169.45 38.7099 169.64 39.4899 169.28C40.2699 168.92 40.6799 168.14 38.6999 163.89C36.7199 159.64 35.2999 158.24 34.5199 158.6C33.7399 158.96 33.8999 160.94 35.8799 165.2Z" fill="#FF78B9"/>
<path d="M49.5326 165.247L30.3882 167.354C27.2151 167.703 24.9259 170.559 25.2751 173.732L25.2762 173.742C25.6254 176.915 28.4807 179.204 31.6538 178.855L50.7982 176.748C53.9712 176.399 56.2604 173.543 55.9112 170.37L55.9101 170.36C55.561 167.187 52.7056 164.898 49.5326 165.247Z" fill="#EB459F"/>
<path d="M21.964 15.524C22.804 15.308 23.272 14.708 23.272 13.796C23.272 12.536 22.384 11.6 20.668 11.6H16.924V20H20.608C22.528 20 23.56 18.98 23.56 17.576C23.56 16.568 23.02 15.788 21.964 15.524ZM20.212 13.22C20.896 13.22 21.256 13.592 21.256 14.18C21.256 14.732 20.932 15.116 20.236 15.116H18.94V13.22H20.212ZM18.94 18.416V16.364H20.308C21.076 16.364 21.46 16.784 21.46 17.384C21.46 18.008 21.064 18.416 20.236 18.416H18.94ZM29.1033 20.24C31.6833 20.24 33.4953 18.416 33.4953 15.812C33.4953 13.22 31.6833 11.36 29.1033 11.36C26.5473 11.36 24.7353 13.22 24.7353 15.812C24.7353 18.416 26.5473 20.24 29.1033 20.24ZM29.1033 18.332C27.7113 18.332 26.8473 17.264 26.8473 15.824C26.8473 14.384 27.6993 13.268 29.1033 13.268C30.5313 13.268 31.3713 14.384 31.3713 15.824C31.3713 17.264 30.5193 18.332 29.1033 18.332ZM39.023 20.24C41.603 20.24 43.415 18.416 43.415 15.812C43.415 13.22 41.603 11.36 39.023 11.36C36.467 11.36 34.655 13.22 34.655 15.812C34.655 18.416 36.467 20.24 39.023 20.24ZM39.023 18.332C37.631 18.332 36.767 17.264 36.767 15.824C36.767 14.384 37.619 13.268 39.023 13.268C40.451 13.268 41.291 14.384 41.291 15.824C41.291 17.264 40.439 18.332 39.023 18.332ZM47.6827 20.252C49.6987 20.252 50.8987 19.208 50.8987 17.552C50.8987 16.304 50.2147 15.536 48.6187 15.02L47.7547 14.744C47.1427 14.504 46.8307 14.276 46.8307 13.856C46.8307 13.364 47.2147 13.1 48.0307 13.1C48.9067 13.1 49.7467 13.412 50.4907 13.94V12.092C49.7827 11.672 48.8827 11.348 47.8147 11.348C45.8467 11.348 44.6947 12.344 44.6947 13.928C44.6947 15.116 45.3187 15.872 46.7587 16.364L47.7427 16.688C48.4507 16.976 48.6547 17.204 48.6547 17.612C48.6547 18.176 48.2707 18.476 47.4547 18.476C46.4587 18.476 45.4387 18.068 44.6947 17.492V19.364C45.6307 19.976 46.6627 20.252 47.6827 20.252ZM58.4312 11.6H51.6752V13.472H54.0392V20H56.0432V13.472H58.4312V11.6ZM61.7884 16.436H65.1844V14.876H61.7884V13.328H65.4484V11.6H59.7724V20H65.4964V18.272H61.7884V16.436ZM71.6706 16.616C73.1586 16.436 73.9386 15.488 73.9386 14.192C73.9386 12.584 72.7746 11.6 70.9506 11.6H67.2546V20H69.2706V16.46L71.7546 20H74.1666L71.6706 16.616ZM69.2706 13.292H70.5666C71.3586 13.292 71.7786 13.688 71.7786 14.384C71.7786 15.104 71.3226 15.536 70.4226 15.536H69.2706V13.292ZM78.256 20.252C80.272 20.252 81.472 19.208 81.472 17.552C81.472 16.304 80.788 15.536 79.192 15.02L78.328 14.744C77.716 14.504 77.404 14.276 77.404 13.856C77.404 13.364 77.788 13.1 78.604 13.1C79.48 13.1 80.32 13.412 81.064 13.94V12.092C80.356 11.672 79.456 11.348 78.388 11.348C76.42 11.348 75.268 12.344 75.268 13.928C75.268 15.116 75.892 15.872 77.332 16.364L78.316 16.688C79.024 16.976 79.228 17.204 79.228 17.612C79.228 18.176 78.844 18.476 78.028 18.476C77.032 18.476 76.012 18.068 75.268 17.492V19.364C76.204 19.976 77.236 20.252 78.256 20.252ZM90.4651 16.532V14.876H86.1691V16.532H90.4651ZM100.574 16.7V12.02H98.2344L94.9704 16.544V18.164H98.7624V20H100.574V18.164H101.834V16.7H100.574ZM98.7624 13.82V16.7H96.7464L98.7624 13.82ZM106.108 14.816C105.616 14.816 105.172 14.9 104.8 15.032V13.664H108.304V12.02H103.132V16.676C103.648 16.424 104.284 16.184 105.136 16.184C106.204 16.184 106.732 16.736 106.732 17.432C106.732 18.128 106.144 18.632 105.088 18.632C104.248 18.632 103.492 18.356 103.048 17.96V19.556C103.648 19.964 104.56 20.216 105.376 20.216C107.452 20.216 108.748 19.016 108.748 17.348C108.748 15.92 107.788 14.816 106.108 14.816Z" fill="#B9BBBE"/>
</g>
<defs>
<linearGradient id="paint0_linear" x1="46.92" y1="110.22" x2="35.13" y2="131.98" gradientUnits="userSpaceOnUse">
<stop stop-color="#FFE75C"/>
<stop offset="1" stop-color="#FFC619"/>
</linearGradient>
<clipPath id="clip0">
<path d="M0 8C0 3.58172 3.58172 0 8 0H272C276.418 0 280 3.58172 280 8V168H0V8Z" fill="white"/>
</clipPath>
<clipPath id="clip1">
<rect width="24" height="24" fill="white" transform="translate(142 160.899)"/>
</clipPath>
</defs>
</svg>
