<svg xmlns="http://www.w3.org/2000/svg" viewBox="0 0 3800 1183"><style>.st0{fill:#fff;stroke:#fff;stroke-width:8;stroke-linecap:round;stroke-linejoin:round;stroke-miterlimit:10}</style><switch><g><path class="st0" d="M1386 1183c2.7-11.8 4.3-24 4.3-36.7 0-89.6-72.6-162.2-162.2-162.2-35.6 0-68.4 11.6-95.1 31-44.6-122.3-161.9-209.7-299.6-209.7-154 0-282.5 109.2-312.3 254.5-14.1-5.5-29.3-8.7-45.3-8.7-68.6 0-124.2 55.6-124.2 124.2 0 2.5.2 5 .4 7.5h1034z" id="cloud_x5F_2"/><path class="st0" d="M3138.9 1183c-27.7-261.5-248.8-465.3-517.6-465.3-178.8 0-336.4 90.2-430.2 227.5-62.5-39.7-136.4-63-215.9-63-187.3 0-344.4 127.7-390.1 300.7h1553.8z" id="cloud_x5F_1"/></g></switch></svg>
