<svg xmlns="http://www.w3.org/2000/svg" viewBox="0 0 32 32"><linearGradient id="a" gradientUnits="userSpaceOnUse" x1="-.701" y1="-.317" x2="28.601" y2="28.312"><stop offset=".053" stop-color="#939bcc"/><stop offset=".059" stop-color="#949ccd"/><stop offset=".266" stop-color="#aac3de"/><stop offset=".43" stop-color="#b7dbe9"/><stop offset=".532" stop-color="#bce4ed"/><stop offset=".724" stop-color="#d0d4e5"/><stop offset=".942" stop-color="#ecbed9"/></linearGradient><path d="M16 0C7.18 0 0 7.18 0 16s7.18 16 16 16 16-7.18 16-16S24.82 0 16 0zm10.39 9.97l-3.41 6.7c-.08.16.03.35.21.35h2.04c.23 0 .33.3.14.44l-9.23 6.61a.24.24 0 0 1-.28 0l-9.23-6.61c-.19-.14-.09-.44.14-.44h2.04c.18 0 .3-.19.21-.35l-3.41-6.7c-.11-.22.15-.44.35-.31l8.23 5.41c.14.09.26.22.33.38l1.26 2.52c.09.18.34.18.43 0l1.26-2.52c.08-.15.19-.28.33-.38l8.23-5.41c.21-.13.47.09.36.31z" fill="url(#a)"/></svg>