<svg height="130" viewBox="0 0 256 130" width="256" xmlns="http://www.w3.org/2000/svg"><g fill="none" fill-rule="evenodd"><g transform="translate(2 3)"><path d="m187.4713 14.6441v.007c0 7.612-6.17 13.782-13.782 13.782l-28.034.001c-5.094 0-9.223 4.128-9.223 9.222 0 5.093 4.124 9.223 9.217 9.223h78.119c15.497 0 28.057 12.563 28.057 28.059v.002c0 15.497-12.562 28.06-28.059 28.06h-195.76c-8.008 0-14.499-6.492-14.499-14.5 0-8.007 6.491-14.499 14.499-14.499h5.243c4.612 0 8.351-3.739 8.351-8.351 0-4.612-3.731-8.351-8.343-8.351h-5.034c-15.585 0-28.223-12.634-28.223-28.218 0-15.585 12.634-28.219 28.218-28.219h145.506c7.598.02 13.747 6.184 13.747 13.782" fill="#f7f7f8" fill-opacity=".9" transform="translate(0 20.014)"/><g fill="#dcddde"><path d="m194.9356 110.4086c-.508-5.861-5.441-10.475-11.431-10.475h-3.347c-.552 0-1-.448-1-1v-1.449c0-12.427-10.11-22.537-22.537-22.537h-.994l-13.199 36.461h9.738v-1zm14.9946-95.5703h7.34c.002-.083.003-.167.003-.25 0-6.941-5.647-12.588-12.588-12.588-4.809 0-9.129 2.678-11.274 6.989-.139.279-.4.477-.706.537-.305.06-.623-.028-.855-.236-2.141-1.91-4.899-2.961-7.767-2.961-5.293 0-9.843 3.513-11.237 8.509h30.089c.553 0 1 .448 1 1h1 3.995c0-.552.448-1 1-1"/><path d="m64.702 34.397h13.763v-5.881h-13.763z"/><path d="m89.3472 50.3798c2.495-1.864 4.115-4.529 4.66-7.511h-29.218c4.402 3.028 7.853 7.336 9.814 12.386 8.411-.419 12.844-2.504 14.521-3.518-.297-.44-.206-1.037.223-1.357"/></g><path d="m94.2271 35.3974c0-.552.448-1 1-1h4.254v-3.254h-11.135v4.254c0 .552-.448 1-1 1h-31.525c-.552 0-1-.448-1-1v-4.254h-8.508v7.248c1.105-.14 2.229-.22 3.372-.22 4.203 0 8.18.981 11.722 2.718.036-.004.068-.021.105-.021h32.498c.072 0 .135.027.202.041.002-.087.015-.171.015-.258zm-65.4272 70.6172h24.191c-.094-4.073-3.438-7.357-7.533-7.357-.553 0-1.004-.448-1.004-1v-1.968c0-7.153-5.82-12.973-12.973-12.973-7.154 0-12.973 5.82-12.973 12.973 0 .553-.448 1-1 1-.201 0-.387-.059-.543-.16h-5.014c-2.733 0-5.266 1.099-7.132 3.095-1.653 1.766-2.569 4.008-2.632 6.39h3.896c.552 0 1 .447 1 1h20.717c0-.553.448-1 1-1" fill="#f7f7f8"/><path d="m91.066 100.743v16.89l16.318-10.696z" fill="#f7f7f8"/><path d="m159.6343 56.7079-42.18 26.139c-.164.102-.346.15-.526.15-.335 0-.661-.168-.851-.473-.291-.47-.146-1.086.324-1.377l38.279-23.722-97.172 28.441 31.837 12.084c.058-.059.122-.113.194-.157l8.889-5.509c.47-.291 1.086-.145 1.377.323.291.47.146 1.086-.323 1.377l-7.82 4.846 41.785 15.86 5.98 2.27z" fill="#fff"/><path d="m147.6158 59.4926c1.118-.327 1.797 1.196.808 1.81l-32.023 19.844c-.469.291-.614.908-.323 1.377.189.305.516.473.851.473.18 0 .362-.048.526-.15l39.823-24.678c.796-.493 1.773.28 1.475 1.168l-17.342 51.707c-1.083 3.229-4.633 4.91-7.817 3.702l-.146-.055-34.569-13.122c-2.953-1.121-3.34-5.141-.655-6.805l1.258-.779c.469-.291.614-.908.323-1.377s-.907-.615-1.377-.323c0 0-1.522.945-3.321 2.064-3.641 2.266-8.131 2.702-12.139 1.181l-22.673-8.607c-.897-.34-.846-1.625.074-1.894zm-56.55 54.438v-10.29c0-1.399 1.401-2.366 2.71-1.869l13.609 5.165-13.223 8.666c-1.33.872-3.096-.082-3.096-1.672zm-36.979-29.147c-.413.121-.702.491-.719.92-.017.43.243.822.644.975l33.764 12.815c.777.295 1.29 1.039 1.29 1.87v18.12c0 .367.202.705.525.88.149.08.312.12.475.12.192 0 .383-.055.549-.164l13.964-9.152c3.214-2.107 7.243-2.547 10.836-1.183l24.275 9.215c.114.043.235.064.355.064.146 0 .293-.032.427-.096.247-.116.435-.328.521-.586l3.09-9.213 10.604-29.111c1.256-3.448 4.98-5.408 8.491-4.342 9.249 2.808 15.98 11.403 15.98 21.569 0 1.352 1.096 2.449 2.449 2.449h1.898c5.574 0 10.232 3.995 11.262 9.272.121.621-.355 1.203-.987 1.203h-40.614c-.552 0-1 .447-1 1 0 .552.448 1 1 1l42.813-.001c.537 0 .998-.425.999-.963.021-7.447-6.031-13.511-13.473-13.511-1.347-.258-2.326-1.389-2.454-2.754-.913-9.797-7.585-17.922-16.598-20.956-4.092-1.377-6.371-5.877-5.063-9.993l3.022-9.515c.007-.018.006-.038.011-.056.008-.031.012-.06.017-.09.016-.091.019-.18.01-.27-.002-.028-.001-.054-.007-.081-.02-.114-.061-.223-.12-.324-.004-.008-.004-.016-.009-.024-.01-.016-.026-.024-.036-.039-.031-.043-.056-.089-.093-.127-.031-.032-.069-.054-.104-.082-.024-.019-.045-.039-.07-.055-.096-.063-.197-.111-.306-.138-.019-.004-.037-.003-.056-.007-.095-.018-.19-.021-.287-.011-.033.003-.062.007-.095.014-.027.005-.056.004-.084.012z" fill="#b9bbbe"/><path d="m47.313 31.1435h6.508c.552 0 1 .447 1 1v3.254c0 .552.448 1 1 1h31.525c.552 0 1-.448 1-1v-3.254c0-.553.447-1 1-1h9.135c.552 0 1 .447 1 1v1.254c0 .552-.448 1-1 1h-3.254c-.552 0-1 .447-1 1v5.254c0 .087-.013.171-.015.258-.067-.015-32.769-.024-32.805-.02-3.542-1.737-7.519-2.718-11.722-2.718-1.143 0-2.267.08-3.372.22v-6.248c0-.553.448-1 1-1m18.389-2.627h11.763c.552 0 1 .447 1 1v3.881c0 .552-.448 1-1 1h-11.763c-.552 0-1-.448-1-1v-3.881c0-.553.448-1 1-1m-10.709 78.498v-.822c0-4.92-3.746-8.982-8.539-9.484v-1.019c0-6.677-4.395-12.344-10.443-14.268-1.43-.456-2.951-.705-4.531-.705-3.939 0-7.528 1.531-10.204 4.027h-8.407c-2.005 0-3.458-1.929-2.88-3.849 1.289-4.274 4.76-10.671 14.023-11.379.53-.041.948-.467.948-.998v-3.06c0-13.832 11.319-25.517 25.149-25.283 13.438.227 24.3 11.23 24.3 24.721 0 .553.448 1 1 1 .278 0 5.361-.294 5.361-.294 2.009 0 3.967.327 5.847.941.423.139.846.276 1.26.445.514.209 1.095-.038 1.304-.548.209-.512-.037-1.095-.548-1.304-2.496-1.018-5.142-1.534-7.863-1.534h-2.557c-1.012-.001-1.862-.76-1.979-1.766-.264-2.294-.822-4.499-1.63-6.58-1.961-5.05-5.413-9.359-9.815-12.387h24.795c2.4 0 3.859 2.697 2.499 4.674-.737 1.07-1.654 2.029-2.736 2.837-.429.321-.519.918-.222 1.357.008.014.01.03.02.043.196.263.497.402.802.402.208 0 .418-.065.597-.199 3.612-2.698 5.683-6.828 5.683-11.331v-1.254c0-1.657 1.343-3 3-3h1.254c.552 0 1-.448 1-1v-5.254c0-.553-.448-1-1-1h-5.881c-.552 0-1-.448-1-1v-2.787c0-.552.448-1 1-1h.82c.552 0 1-.447 1-1 0-.552-.448-1-1-1h-5.64c-.552 0-1 .448-1 1 0 .553.448 1 1 1h.82c.552 0 1 .448 1 1v2.787c0 .552-.448 1-1 1h-3.254c-.553 0-1 .447-1 1v4.254h-2.881c-1.657 0-3-1.343-3-3v-2.881c0-1.105-.896-2-2-2h-3.881c-1.105 0-2-.896-2-2v-7.078c0-.552.447-1 1-1h7.484c.552 0 1-.448 1-1s-.448-1-1-1h-18.969c-.552 0-1 .448-1 1s.448 1 1 1h7.485c.552 0 1 .448 1 1v7.078c0 1.104-.896 2-2 2h-3.882c-1.104 0-2 .895-2 2v2.881c0 1.657-1.343 3-3 3h-2.881v-4.254c0-.553-.448-1-1-1h-3.254c-.552 0-1-.448-1-1v-2.787c0-.552.448-1 1-1h.82c.552 0 1-.447 1-1 0-.552-.448-1-1-1h-5.64c-.552 0-1 .448-1 1 0 .553.448 1 1 1h.82c.552 0 1 .448 1 1v2.787c0 .552-.448 1-1 1h-3.254c-.552 0-1 .447-1 1v8.508c0 .021.011.039.012.06-12.176 2.489-21.365 13.284-21.365 26.184v.87c0 .984-.72 1.81-1.691 1.967-7.944 1.288-14.029 8.196-14.029 16.498v.003c0 1.386 1.124 2.51 2.51 2.51h6.253c1.455 0 2.412 1.498 1.815 2.824-.692 1.535-1.131 3.206-1.266 4.962h-4.199c-3.45 0-6.832 1.328-9.143 3.889-2.143 2.376-3.208 5.432-3.001 8.633.035.536.462.963 1 .963h4.874c.552 0 1-.448 1-1 0-.553-.448-1-1-1h-1.557c-1.356 0-2.312-1.318-1.911-2.613.433-1.402 1.186-2.698 2.231-3.806 1.915-2.032 4.664-3.066 7.456-3.066 0 0 5.005.16 5.205.16.553 0 1-.447 1-1 0-7.37 6.179-13.325 13.628-12.957 6.969.345 12.319 6.357 12.319 13.335v1.59c0 .553.455 1 1.009 1 3.098.002 5.765 1.882 6.919 4.562.569 1.32-.405 2.795-1.842 2.795h-21.74c-.552 0-1 .447-1 1 0 .552.448 1 1 1h25.193c.552 0 1-.448 1-1m55.8982-20.288c.18 0 .362-.048.526-.15l2.185-1.354c.47-.291.615-.908.324-1.377s-.908-.614-1.377-.324l-2.186 1.355c-.469.291-.614.907-.323 1.377.189.305.516.473.851.473m90.2925-.8115h-10.573c-.552 0-1 .448-1 1s.448 1 1 1h10.573c.552 0 1-.448 1-1s-.448-1-1-1m-141.8999 26.2363h-10.2c-.552 0-1 .448-1 1s.448 1 1 1h10.2c.552 0 1-.448 1-1s-.448-1-1-1m54.9448-61.6333c-.552 0-1 .448-1 1s.448 1 1 1h11.233c.552 0 1-.448 1-1s-.448-1-1-1zm-3.8218-3.0205h6.875c.552 0 1-.448 1-1s-.448-1-1-1h-6.875c-.552 0-1 .448-1 1s.448 1 1 1m-7.3257 7.9004h2.255c.553 0 1-.448 1-1s-.447-1-1-1h-2.255c-.552 0-1 .448-1 1s.448 1 1 1m29.3233-22.5371h6.875c.553 0 1-.448 1-1s-.447-1-1-1h-6.875c-.552 0-1 .448-1 1s.448 1 1 1m39.1933-16.0225h31.338c.552 0 1-.448 1-1s-.448-1-1-1h-30.089c1.393-4.996 5.943-8.509 11.237-8.509 2.867 0 5.625 1.051 7.766 2.961.233.208.55.296.855.236.306-.06.567-.258.706-.537 2.145-4.311 6.465-6.989 11.274-6.989 6.942 0 12.589 5.647 12.589 12.588 0 .083-.001.167-.003.25h-7.34c-.553 0-1 .448-1 1s.447 1 1 1h8.283c.517 0 .949-.394.996-.909.04-.442.064-.889.064-1.341 0-8.044-6.545-14.588-14.589-14.588-5.157 0-9.829 2.657-12.467 7.013-2.347-1.738-5.191-2.684-8.134-2.684-6.674 0-12.34 4.769-13.471 11.339-.051.291.03.589.22.815.19.225.47.355.765.355" fill="#b9bbbe"/></g><path d="m0-1h256v130h-256z"/></g></svg>