<svg fill="none" height="120" viewBox="0 0 280 120" width="280" xmlns="http://www.w3.org/2000/svg"><path d="m251.18 91.39v-60.72c0-3.3057-.651-6.5791-1.917-9.6329-1.266-3.0539-3.121-5.8284-5.459-8.165-2.339-2.3365-5.115-4.1894-8.17-5.45264-3.054-1.26323-6.328-1.91207-9.634-1.90944h-133.7c-6.4024.00431-12.6696 1.84209-18.0605 5.29598-5.3908 3.4539-9.6797 8.3794-12.3595 14.194l-1.41 3c-.636 1.3768-1.6531 2.5425-2.9308 3.3595s-2.7626 1.2509-4.2792 1.2505h-9.36c-2.8789.0013-5.7294.57-8.3885 1.6736-2.659 1.1035-5.0745 2.7203-7.1084 4.7579-2.0338 2.0375-3.6462 4.456-4.7449 7.117-1.0987 2.6611-1.6621 5.5126-1.6582 8.3915v38.51l-17.49 10.18c-1.37198.798-2.51056 1.942-3.30197 3.318-.791419 1.376-1.20796639 2.935-1.20803 4.522v8.92h280v-16.13c0-3.31-1.315-6.4842-3.655-8.8247-2.341-2.3404-5.515-3.6553-8.825-3.6553z" fill="#4f5668"/><path d="m232.33 19.14-5.93-1.86h-7.69l-5.94 1.86c-.19.0665-.356.1889-.476.3513-.119.1624-.187.3572-.194.5587v11.79h20.9v-11.78c-.005-.2033-.072-.4002-.191-.5646-.12-.1644-.287-.2883-.479-.3554z" fill="#d1d5e6"/><path d="m234.28 35.3999h-2.2v9.22h2.2z" fill="#c9cde0"/><path d="m186.53 35.3999h-2.2v9.22h2.2z" fill="#c9cde0"/><path d="m227.89 35.3999 6.39 9.22h-2.88l-6.4-9.22z" fill="#adb2c6"/><path d="m180.13 35.3999 6.4 9.22h-2.88l-6.4-9.22z" fill="#adb2c6"/><path d="m234.29 31.8401h-64.44v3.56h64.44z" fill="#b1805b"/><path d="m234.29 31.8401h-16.69v3.56h16.69z" fill="#8b574f"/><path d="m188 24.46h15.78c-.142 1.9955-1.035 3.863-2.499 5.2264s-3.39 2.1214-5.391 2.1214-3.927-.758-5.391-2.1214-2.357-3.2309-2.499-5.2264z" fill="#adb2c6"/><path d="m203.79 23.3901h-15.79c.142-1.9955 1.035-3.863 2.499-5.2264s3.39-2.1215 5.391-2.1215 3.927.7581 5.391 2.1215 2.357 3.2309 2.499 5.2264z" fill="#4a76e6"/><path d="m203.79 23.3999h-15.79v1.06h15.79z" fill="#303338"/><path d="m193.88 26.12c1.209 0 2.19-.9805 2.19-2.19s-.981-2.19-2.19-2.19c-1.21 0-2.19.9805-2.19 2.19s.98 2.19 2.19 2.19z" fill="#303338"/><path d="m193.88 25.32c.768 0 1.39-.6223 1.39-1.39 0-.7676-.622-1.39-1.39-1.39s-1.39.6224-1.39 1.39c0 .7677.622 1.39 1.39 1.39z" fill="#fff"/><path d="m201.46 18.3101c-1.389.9226-2.688 1.9739-3.88 3.14-.169.1623-.395.252-.63.25-.121.0016-.241-.0216-.353-.068s-.213-.1151-.297-.202c-.085-.0845-.152-.185-.198-.2957s-.07-.2294-.07-.3493c0-.1198.024-.2385.07-.3492s.113-.2112.198-.2958c1.132-1.0984 2.353-2.1018 3.65-3 .55.3264 1.057.7193 1.51 1.17z" fill="#ec7df7"/><path d="m191.84 21.5601c-.205.128-.452.1704-.687.118-.236-.0524-.442-.1953-.573-.398-.405-.6433-.769-1.3113-1.09-2 .392-.5372.849-1.0242 1.36-1.45.355.8567.78 1.6828 1.27 2.47.128.2047.17.4516.118.6873s-.195.4414-.398.5727z" fill="#ec7df7"/><path d="m226.57 19.3501h5.79c.085 0 .169.0169.247.0496.079.0328.15.0809.209.1414.06.0605.107.1322.138.211.032.0788.047.1631.046.248v11.84h-7v-12c.013-.1397.079-.269.186-.3605.106-.0914.244-.1379.384-.1295z" fill="#c1c5d4"/><path d="m226.03 23.6201h-13.93v8.22h13.93z" fill="#adb2c6"/><path d="m233 23.6201h-6.97v8.22h6.97z" fill="#9a9fb3"/><path d="m217.51 22.6201h3.11c.202 0 .395.0801.537.2226.143.1425.223.3359.223.5374v8.46h-4.62v-8.46c0-.1998.079-.3916.219-.5339.14-.1422.331-.2235.531-.2261z" fill="#4a76e6"/><path d="m229.4 22.6201h1.29c.159 0 .312.0632.424.1758.113.1125.176.2651.176.4242v8.62h-2.49v-8.62c0-.1591.063-.3117.176-.4242.112-.1126.265-.1758.424-.1758z" fill="#4a76e6"/><path d="m220.26 23.6201h-2.38c-.26 0-.47.2104-.47.47s.21.47.47.47h2.38c.259 0 .47-.2104.47-.47s-.211-.47-.47-.47z" fill="#ffd836"/><path d="m230.66 23.6201h-1.23c-.133 0-.24.1075-.24.24v.46c0 .1326.107.24.24.24h1.23c.132 0 .24-.1074.24-.24v-.46c0-.1325-.108-.24-.24-.24z" fill="#ffd836"/><g fill="#303338"><path d="m220.26 25.05h-2.38c-.26 0-.47.2105-.47.4701 0 .2595.21.4699.47.4699h2.38c.259 0 .47-.2104.47-.4699 0-.2596-.211-.4701-.47-.4701z"/><path d="m230.66 25.05h-1.23c-.133 0-.24.1075-.24.2401v.4599c0 .1326.107.24.24.24h1.23c.132 0 .24-.1074.24-.24v-.4599c0-.1326-.108-.2401-.24-.2401z"/><path d="m220.26 26.48h-2.38c-.26 0-.47.2104-.47.47s.21.47.47.47h2.38c.259 0 .47-.2104.47-.47s-.211-.47-.47-.47z"/><path d="m230.66 26.48h-1.23c-.133 0-.24.1074-.24.24v.46c0 .1325.107.24.24.24h1.23c.132 0 .24-.1075.24-.24v-.46c0-.1326-.108-.24-.24-.24z"/></g><path d="m225.85 16.51h-6.59c-.304 0-.55.2463-.55.55 0 .3038.246.55.55.55h6.59c.304 0 .55-.2462.55-.55 0-.3037-.246-.55-.55-.55z" fill="#9a9fb3"/><path d="m205 20.44 1.47 2.56c.056.0955.131.1785.221.2439.089.0653.191.1117.299.1361l2.86.61c.135.031.26.0967.362.1906.103.0939.179.2127.221.3448.042.1322.05.2731.021.4088-.029.1358-.092.2619-.184.3658l-2 2.17c-.074.0842-.13.1826-.164.2893-.035.1066-.047.2191-.036.3307l.3 2.9c.016.1387-.005.2792-.061.4071s-.145.2387-.258.321c-.113.0824-.246.1333-.384.1477-.139.0144-.28-.0084-.407-.0658l-2.67-1.18c-.103-.0443-.213-.0672-.325-.0672s-.222.0229-.325.0672l-2.67 1.18c-.127.0574-.267.0802-.406.0658s-.272-.0653-.385-.1477c-.113-.0823-.202-.1931-.258-.321s-.077-.2684-.061-.4071l.3-2.9c.011-.1116-.001-.2241-.036-.3307-.034-.1067-.09-.2051-.164-.2893l-1.95-2.17c-.095-.1028-.161-.2289-.191-.3655s-.024-.2788.019-.4121c.043-.1332.12-.2528.224-.3463.104-.0936.231-.1578.368-.1861l2.86-.61c.108-.0244.21-.0708.299-.1361.09-.0654.165-.1484.221-.2439l1.46-2.53c.064-.1341.164-.2478.288-.3284.125-.0805.269-.1249.418-.128.148-.0031.295.0351.422.1104.128.0753.233.1847.302.316z" fill="#ffd836"/><path d="m203.79 25.88c0-.2043-.166-.37-.37-.37s-.37.1657-.37.37v.93c0 .2044.166.37.37.37s.37-.1656.37-.37z" fill="#36393f"/><path d="m205.58 25.88c0-.2043-.166-.37-.37-.37s-.37.1657-.37.37v.93c0 .2044.166.37.37.37s.37-.1656.37-.37z" fill="#36393f"/><path d="m30.4701 115.49h6.25l-3.44 4.51h-4.21z" fill="#b1805b"/><path d="m57.86 120h-4.21l-3.44-4.51h6.26z" fill="#b1805b"/><path d="m15.88 115.49h6.24l-3.43 4.51h-4.22z" fill="#303338"/><path d="m39.39 115.49h6.25l-3.43 4.51h-4.22z" fill="#303338"/><path d="m34.4086 54.3048c.1294-.1294.3049-.2021.4879-.2021s.3585.0727.4879.2021l5.7275 5.7276-.9687.9687-5.7276-5.7276c-.1294-.1294-.2021-.3049-.2021-.4879s.0727-.3585.2021-.4879z" fill="#202225"/><path d="m148.25 115.06h-7.17v4.94h7.17z" fill="#8b574f"/><path d="m232.3 115.06h-7.17v4.94h7.17z" fill="#8b574f"/><path d="m148.25 115.06h-7.17v3.03h7.17z" fill="#000"/><path d="m232.3 115.06h-7.17v3.03h7.17z" fill="#000"/><path d="m171.18 115.06h-7.17v4.94h7.17z" fill="#784343"/><path d="m255.24 115.06h-7.17v4.94h7.17z" fill="#784343"/><path d="m171.18 115.06h-7.17v4.94h7.17z" fill="#303338"/><path d="m255.24 115.06h-7.17v4.94h7.17z" fill="#303338"/><path d="m171.19 76.3301h-28.83v39.0699h28.83z" fill="#305dce"/><path d="m170.08 62.1799h80.06v36.82h-84.85v-32c-.005-.6319.115-1.2586.353-1.8438.239-.5852.591-1.1173 1.036-1.5656.446-.4482.976-.8037 1.559-1.0458.584-.2421 1.21-.3661 1.842-.3648z" fill="#4a76e6"/><path d="m209.3 62.19c-.631-.0014-1.256.1223-1.839.3638s-1.113.596-1.558 1.0432-.798.9781-1.037 1.5622-.36 1.2097-.356 1.8408v32h-3v-32c0-1.2678.504-2.4836 1.4-3.38s2.112-1.4 3.38-1.4z" fill="#305dce" opacity=".5"/><path d="m250.14 62.1799c.631 0 1.256.125 1.839.3677.582.2427 1.111.5984 1.555 1.0465.445.4481.796.9798 1.034 1.5643.238.5846.357 1.2105.352 1.8415v15.46h-9.57v-15.46c0-1.2677.504-2.4835 1.4-3.3799.897-.8965 2.112-1.4001 3.38-1.4001z" fill="#305dce"/><path d="m265.42 87.7901v17.4099c0 2.701-1.072 5.291-2.981 7.202s-4.498 2.985-7.199 2.988h-24.24v-39.0599h23c3.032.0106 5.937 1.2226 8.078 3.3706 2.14 2.1481 3.342 5.0569 3.342 8.0894z" fill="#4a76e6"/><path d="m242.49 87.7901v17.4099c0 2.703-1.074 5.295-2.985 7.206s-4.503 2.984-7.205 2.984h-91.22c-2.703 0-5.295-1.073-7.206-2.984s-2.984-4.503-2.984-7.206v-17.4099c0-1.5058.297-2.9968.873-4.3879.577-1.391 1.422-2.6548 2.487-3.7191s2.33-1.9082 3.721-2.4835c1.392-.5754 2.883-.8708 4.389-.8695 3.04 0 5.956 1.2071 8.107 3.3559 2.151 2.1489 3.36 5.0638 3.363 8.1041v11.21h65.72v-11.21c.003-3.0368 1.209-5.9487 3.356-8.097 2.146-2.1483 5.057-3.3577 8.094-3.363 1.507-.0026 3 .2918 4.393.8664s2.66 1.4182 3.727 2.4825 1.914 2.3284 2.492 3.7202c.578 1.3917.877 2.8838.878 4.3909z" fill="#718ef7"/><path d="m231.02 90.35c1.414 0 2.56-1.1462 2.56-2.56 0-1.4139-1.146-2.56-2.56-2.56s-2.56 1.1461-2.56 2.56c0 1.4138 1.146 2.56 2.56 2.56z" fill="#4a76e6"/><path d="m142.36 90.35c1.414 0 2.56-1.1462 2.56-2.56 0-1.4139-1.146-2.56-2.56-2.56s-2.56 1.1461-2.56 2.56c0 1.4138 1.146 2.56 2.56 2.56z" fill="#4a76e6"/><path d="m25.28 94.6401h-13.8v20.8499h13.8z" fill="#c9cde0"/><path d="m61.66 94.6401h-36.38v20.8499h36.38z" fill="#fff"/><path d="m57.8601 98.0601h-28.79v14.0199h28.79z" fill="#c9dbf7"/><path d="m57.8601 104.72h-28.79v1.05h28.79z" fill="#36393f"/><path d="m48.4 104.72h-9.4l1 1.81c.0987.176.2447.321.4214.418.1768.097.3772.143.5786.132h5.45c.2014.011.4018-.035.5786-.132.1767-.097.3227-.242.4214-.418z" fill="#36393f"/><path d="m40.0601 60c-10.13 10.13-11 16.43-11 31.33" stroke="#c9cde0" stroke-miterlimit="10" stroke-width="2.10716"/><path d="m40.8101 60.7101c-.7707.7699-1.3822 1.6842-1.7993 2.6905-.4172 1.0064-.6319 2.0851-.6319 3.1745s.2147 2.1681.6319 3.1745c.4171 1.0063 1.0286 1.9206 1.7993 2.6905l11.74-11.73c-.7701-.7722-1.685-1.3849-2.6923-1.8029-1.0073-.4181-2.0871-.6333-3.1777-.6333s-2.1705.2152-3.1778.6333c-1.0072.418-1.9221 1.0307-2.6922 1.8029z" fill="#ec7df7"/><path d="m35.3202 58.4594 3.2527-3.2527c.2813-.2813.6628-.4394 1.0607-.4394.3978 0 .7793.1581 1.0606.4394l5.1548 5.1548-5.381 5.3811-5.1478-5.1478c-.1414-.1395-.2537-.3058-.3303-.489-.0767-.1833-.1161-.38-.1161-.5787s.0394-.3954.1161-.5787c.0766-.1833.1889-.3495.3303-.489z" fill="#ec7df7"/><path d="m39.76 94.6401h-21.38v-2.37c0-.2652.1054-.5195.2929-.7071.1876-.1875.4419-.2929.7071-.2929h19.4c.2652 0 .5196.1054.7071.2929.1876.1876.2929.4419.2929.7071v2.37z" fill="#ec7df7"/><path d="m46.58 21.9099-1.36 2.82c-.0556.1398-.069.2928-.0386.4401s.1033.2825.2097.3889c.1063.1063.2415.1792.3888.2096s.3003.017.4401-.0386l2.82-1.36c.1029-.0496.2157-.0753.33-.0753s.2271.0257.33.0753l2.82 1.36c.1398.0556.2928.069.4401.0386s.2825-.1033.3889-.2096c.1063-.1064.1792-.2416.2096-.3889s.017-.3003-.0386-.4401l-1.35-2.82c-.0543-.1033-.0827-.2182-.0827-.335 0-.1167.0284-.2316.0827-.335l1.35-2.81c.0556-.1397.069-.2927.0386-.44-.0304-.1474-.1033-.2825-.2096-.3889-.1064-.1064-.2416-.1793-.3889-.2097s-.3003-.0169-.4401.0386l-2.82 1.35c-.1029.0497-.2157.0754-.33.0754s-.2271-.0257-.33-.0754l-2.79-1.38c-.1398-.0555-.2928-.069-.4401-.0386s-.2825.1033-.3888.2097c-.1064.1063-.1793.2415-.2097.3889-.0304.1473-.017.3003.0386.44l1.36 2.81c.0492.1112.0721.2321.0669.3535-.0053.1215-.0384.24-.0969.3465z" fill="#a9c2ff"/><path d="m229.72 47.7801c0-.4915-.399-.89-.89-.89-.492 0-.89.3985-.89.89v.9c0 .4916.398.89.89.89.491 0 .89-.3984.89-.89z" fill="#cfdfff"/><path d="m229.72 54.92c0-.4915-.399-.89-.89-.89-.492 0-.89.3985-.89.89v.9c0 .4916.398.89.89.89.491 0 .89-.3984.89-.89z" fill="#cfdfff"/><path d="m232.85 52.6899c.492 0 .89-.3985.89-.89s-.398-.89-.89-.89h-.9c-.492 0-.89.3985-.89.89s.398.89.89.89z" fill="#cfdfff"/><path d="m225.72 52.6899c.492 0 .89-.3985.89-.89s-.398-.89-.89-.89h-.9c-.491 0-.89.3985-.89.89s.399.89.89.89z" fill="#cfdfff"/><g fill="#aec7ff" opacity=".25"><path d="m12.7001 75.56c0-.4529-.3672-.82-.82-.82-.4529 0-.82.3671-.82.82v.82c0 .4529.3671.82.82.82.4528 0 .82-.3671.82-.82z" opacity=".25"/><path d="m12.7001 82.12c0-.4528-.3672-.82-.82-.82-.4529 0-.82.3672-.82.82v.82c0 .4529.3671.82.82.82.4528 0 .82-.3671.82-.82z" opacity=".25"/><path d="m15.5701 80.0699c.4529 0 .82-.3671.82-.82 0-.4528-.3671-.82-.82-.82h-.82c-.4528 0-.82.3672-.82.82 0 .4529.3672.82.82.82z" opacity=".25"/><path d="m9.01008 80.0699c.45287 0 .82-.3671.82-.82 0-.4528-.36713-.82-.82-.82h-.82001c-.45287 0-.82.3672-.82.82 0 .4529.36713.82.82.82z" opacity=".25"/></g><path d="m30.4701 115.49h6.25l-.9 1.18h-5.72z" fill="#8b574f"/><path d="m56.84 116.67h-5.73l-.9-1.18h6.26z" fill="#8b574f"/><path d="m106.87 54.48 1-4.2c.241-1.0112.28-2.06.116-3.0864-.165-1.0263-.53-2.0102-1.076-2.8953-.545-.8851-1.259-1.654-2.102-2.2629-.842-.6088-1.796-1.0456-2.808-1.2854-1.012-.2408-2.0613-.2796-3.0882-.1143s-2.0111.5315-2.8963 1.0777-1.654 1.2616-2.2624 2.1052c-.6084.8437-1.0444 1.799-1.2831 2.8114l-1 4.07c-.6604 2.6882-2.1425 5.1036-4.24 6.91-2.4516 2.1831-3.9668 5.2278-4.23 8.5-.2466 2.6484.3559 5.3066 1.7205 7.5898 1.3645 2.2833 3.4202 4.073 5.8695 5.1102 2.3083 1.0115 4.8645 1.3162 7.3459.8757 2.4811-.4405 4.7761-1.6065 6.5951-3.3506 1.819-1.7442 3.081-3.9883 3.625-6.4489.545-2.4607.348-5.0275-.566-7.3762-1.058-2.5394-1.309-5.3428-.72-8.03z" fill="#000"/><path d="m97 74.6001-1.3 23.46" stroke="#000" stroke-linecap="round" stroke-miterlimit="10" stroke-width="3.4307"/><path d="m152.64 22.1699h-32.37v35.34h32.37z" fill="#a3a6ae" opacity=".5"/><path d="m150.27 18.2h-32v32.9399h32z" fill="#51303f"/><path d="m144.93 21.1499h-23.55v27.99h23.55z" fill="#d0e2ff"/><path d="m121.21 29.3801v8c.559.0629 1.126.0069 1.662-.1642s1.031-.4535 1.45-.8287c.42-.3752.756-.8347.986-1.3486s.348-1.0705.348-1.6335c0-.5629-.118-1.1196-.348-1.6334-.23-.5139-.566-.9735-.986-1.3487-.419-.3752-.914-.6576-1.45-.8287s-1.103-.227-1.662-.1642z" fill="#60cfac"/><path d="m126.87 34.6999c1.872 0 3.39-1.5177 3.39-3.39 0-1.8722-1.518-3.39-3.39-3.39s-3.39 1.5178-3.39 3.39c0 1.8723 1.518 3.39 3.39 3.39z" fill="#60cfac"/><path d="m144.15 36.1601c1.872 0 3.39-1.5177 3.39-3.39 0-1.8722-1.518-3.39-3.39-3.39s-3.39 1.5178-3.39 3.39c0 1.8723 1.518 3.39 3.39 3.39z" fill="#60cfac"/><path d="m130.69 37.0601h-9.32v9.08h9.32z" fill="#ebf0f7"/><path d="m122.37 38.1799h-1.54v3.84h1.54z" fill="#c9cde0"/><path d="m130.69 33.3501h-9.32v3.7h9.32z" fill="#8b574f"/><path d="m146.36 30.5601h-4.42v9.68h4.42z" fill="#de4d01"/><path d="m133.63 22.3201-8.79 11.53h17.59z" fill="#898989"/><path d="m133.63 24.1201-7.42 9.73h14.85z" fill="#ebf0f7"/><path d="m134.92 33h-2.57v-2.17c.002-.4295.122-.8501.348-1.2154s.549-.661.932-.8546c.386.1913.711.4862.939.8518s.349.7874.351 1.2182z" fill="#c0c0c0"/><path d="m132.66 29.1899.14.14c.532.5577.83 1.299.83 2.07v1.85" stroke="#ebf0f7" stroke-miterlimit="10" stroke-width=".25"/><path d="m134.61 29.1899-.14.14c-.536.5562-.837 1.2976-.84 2.07v1.85" stroke="#ebf0f7" stroke-miterlimit="10" stroke-width=".25"/><path d="m138.3 33.01h-9.32v11.47h9.32z" fill="#7196ff"/><path d="m138.3 34.25h-9.32v1.3h9.32z" fill="#3e70dd"/><path d="m134.54 47.8999c-.086.5428-.237 1.0733-.45 1.58h-12.61c-.372-.8652-.559-1.7984-.55-2.74.018-1.3864.453-2.7351 1.25-3.87.873-1.1886 1.361-2.6158 1.4-4.09v-2.32c.053-1.0928.524-2.1233 1.317-2.878.792-.7547 1.844-1.1757 2.938-1.1757s2.146.421 2.938 1.1757c.793.7547 1.264 1.7852 1.317 2.878v2.24c.003 1.4876.468 2.9376 1.33 4.15 1.016 1.4736 1.418 3.2851 1.12 5.05z" fill="#313235"/><path d="m135.5 35.6201v-2.34c.002-.569.118-1.1317.34-1.6557.221-.524.545-.9988.951-1.3969.407-.3981.888-.7116 1.417-.9223.528-.2107 1.093-.3144 1.662-.3051 1.141.0105 2.232.4734 3.032 1.287.801.8137 1.246 1.9116 1.238 3.053v2.28c-.001 1.5022.467 2.9673 1.34 4.19 1.001 1.4614 1.405 3.2502 1.13 5-.211 1.4302-.873 2.7558-1.889 3.7844s-2.334 1.7066-3.761 1.9356c-1.349.2326-2.737.0604-3.988-.4949-1.252-.5552-2.31-1.4687-3.043-2.625-.733-1.1564-1.107-2.5039-1.075-3.8725.033-1.3686.47-2.697 1.256-3.8176.868-1.1944 1.352-2.6241 1.39-4.1z" fill="#000"/><path d="m136.2 49.92v-6.7" stroke="#b1805b" stroke-miterlimit="10" stroke-width="1.0016"/><path d="m136.7 43.22h-1v.76h1z" fill="#b2c1d1"/><path d="m135.05 39.5901c-4.18 3.48-5.48 6.43 1.15 6.43" stroke="#000" stroke-linecap="round" stroke-miterlimit="10" stroke-width="1.60256"/><path d="m138.47 36.4299v5.32c0 .3899-.155.7638-.431 1.0395-.275.2757-.649.4305-1.039.4305h-1.59c-.39 0-.764-.1548-1.04-.4305-.275-.2757-.43-.6496-.43-1.0395v-5.32" stroke="#fff" stroke-miterlimit="10" stroke-width=".500801"/><path d="m136.2 43.2199v-6.79" stroke="#fff" stroke-miterlimit="10" stroke-width=".500801"/><path d="m144.92 21.15v27.0599h-23.54v-27.0599zm3.08-2.95h-29.73v33h29.73z" fill="#784343"/><path d="m134.96 31.6499h-2.66v.22h2.66z" fill="#ebf0f7"/><path d="m89.6701 57.77c-5.1997 1.573-9.8262 4.6318-13.31 8.8" stroke="#000" stroke-linecap="round" stroke-miterlimit="10" stroke-width="3.4307"/><path d="m90.08 75.6799c-4.34 9.24-14.08 14.32-14.08 14.32" stroke="#000" stroke-linecap="round" stroke-miterlimit="10" stroke-width="3.4307"/><path d="m100.57 120h-4.2301l-1.68-17.67h4.22z" fill="#e77002"/><path d="m104.7 108.08h-17.1299v2.7h17.1299z" fill="#f5b312"/><path d="m108.5 120h-4.23l-3.37-17.67h4.23z" fill="#f5b312"/><path d="m91.36 102.33-3.36 17.67h-4.22l3.36-17.67z" fill="#f5b312"/><path d="m105.5 104.34h-4.22l-.38-2.01h4.23z" fill="#de4d01"/><path d="m91.36 102.33-.38 2.01h-4.22l.38-2.01z" fill="#de4d01"/><path d="m105.85 98.73h-19.44c-1.1819 0-2.14.9558-2.14 2.135 0 1.179.9581 2.135 2.14 2.135h19.44c1.182 0 2.14-.956 2.14-2.135 0-1.1792-.958-2.135-2.14-2.135z" fill="#f5b312"/><path d="m100.57 57.5501c14.67-4.23 17.7-13.49 17.7-13.49" stroke="#000" stroke-linecap="round" stroke-miterlimit="10" stroke-width="3.4307"/></svg>