<svg xmlns="http://www.w3.org/2000/svg" id="Layer_1" enable-background="new 0 0 114.6 85.5" viewBox="0 0 114.6 85.5">
  <style>
    .st0{fill:#fff}.st1{fill:#f7f7f8}
  </style>
  <path d="M-1.4-20.4h35L17.7-34c-.9-.8-2.2-.8-3.2 0L-1.4-20.4zM-16.1 6V-7.9l-9.1 7.8z" class="st0" transform="translate(37 36)"/>
  <path d="M40.8-8.8c-.2-.4 0-.8.3-1 1.9-.9 3.8-1.4 5.8-1.6v-5.5c0-1.2-1-2.1-2.1-2.1h-57.3c-1.2 0-2.1 1-2.1 2.1V6.9l6.9 4.6c.3.2.4.7.2 1l3 2c.2-.3.7-.4 1-.2l19.8 13.2L35 14.8c-.6-.8-1.1-1.7-1.6-2.6a16.4 16.4 0 0 1-.3-13.7c.2-.4.6-.5.9-.4 1.5-2.9 3.8-5.3 6.8-6.9" class="st1" transform="translate(37 36)"/>
  <path d="M55.5 46.8L27.9 21.3l-6.8 4.6c-3 2-7 2-10 0l-6.8-4.6-27.6 25.6c-.5.4-.2 1.2.5 1.2H55c.7 0 1-.8.5-1.3" class="st1" transform="translate(37 36)"/>
  <path fill="#dcddde" d="M48.3 21.5c-4.7 0-9.2-2-12.4-5.6l-6.8 4.5 25.2 23.4c1.4 1.3 3.6.3 3.6-1.6V18.4a16.33 16.33 0 0 1-9.6 3.1m-55.9-9c-.2.3-.7.4-1 .2L-25.7 1.3v41c0 1.9 2.2 2.8 3.6 1.6L3.1 20.5l-7.5-5c-.3-.2-.4-.7-.2-1l-3-2z" transform="translate(37 36)"/>
  <path d="M41.8-8.5c-.3.2-.8 0-.9-.3-3 1.6-5.3 4.1-6.7 6.9.3.2.5.6.3.9a15.04 15.04 0 0 0 20.3 19.6c3.6-1.7 6.4-4.8 7.7-8.6 1.3-3.8 1.1-7.9-.6-11.5a15.07 15.07 0 0 0-20.1-7" class="st0" transform="translate(37 36)"/>
  <g transform="translate(46 36.49)">
    <defs>
      <filter id="Adobe_OpacityMaskFilter" width="91.9" height="85.5" x="-36.1" y="-36.5" filterUnits="userSpaceOnUse">
        <feColorMatrix values="1 0 0 0 0 0 1 0 0 0 0 0 1 0 0 0 0 0 1 0"/>
      </filter>
    </defs>
    <mask id="b_1_" width="91.9" height="85.5" x="-36.1" y="-36.5" maskUnits="userSpaceOnUse">
      <g filter="url(#Adobe_OpacityMaskFilter)">
        <path id="a_1_" d="M-36.1 49h91.9v-85.5h-91.9z" class="st0"/>
      </g>
    </mask>
    <path fill="#b9bbbe" d="M54.1 7.4c-1.1 5.5-4.9 9.8-10.2 11.5-5.6 1.8-11.9.2-15.8-4.2-4-4.5-4.9-10.8-2.6-16.1.2-.4 0-.8-.3-.9-.4-.2-.8 0-.9.4-1.9 4.4-1.8 9.4.3 13.7.8 1.6.2 3.5-1.2 4.5l-13 8.6a5.58 5.58 0 0 1-6.3 0l-16.6-11.1c-.3-.2-.8-.1-1 .2-.2.3-.1.8.2 1l7.5 5L-31 43.4c-1.4 1.3-3.6.3-3.6-1.6V5.6c0-2.1 2.3-3.3 4-2.1l13.1 8.7c.3.2.8.1 1-.2.2-.3.1-.8-.2-1l-3.1-2a8.43 8.43 0 0 1-3.8-7.1v-19.3c0-1.2 1-2.1 2.1-2.1h57.3c1.2 0 2.1 1 2.1 2.1v5.5a18 18 0 0 0-5.8 1.6c-.4.2-.5.6-.3.9.2.4.6.6 1 .4 8.3-4 18.5.3 21.1 9.6.5 2.2.6 4.5.2 6.8zm-8.7 36L20.1 20l6.8-4.5a16.56 16.56 0 0 0 19.5 4c1.1-.6 2.5.2 2.5 1.5v20.9c0 1.8-2.2 2.7-3.5 1.5zm-77.7 3l25.5-23.7c1.2-1.1 3-1.3 4.4-.3l7.5 5c1.2.8 2.7.8 3.9 0l7.5-5c1.4-.9 3.2-.8 4.4.3l25.5 23.7c.5.4.2 1.2-.5 1.2h-77.8c-.5 0-.9-.8-.4-1.2zm7.2-51.7v8.2c0 1.1-1.3 1.8-2.2 1.2L-31.9 1c-1.2-.8-1.3-2.5-.2-3.4l4.7-4c.9-.8 2.3-.1 2.3 1.1zM5.5-34.5c.9-.8 2.2-.8 3.2 0l13 11.1c1 .9.4 2.5-.9 2.5H-6.5c-1.3 0-1.9-1.6-.9-2.5L5.5-34.5zm33.8 20v-2.9c0-2-1.6-3.5-3.5-3.5h-7.4c-1 0-2-.4-2.8-1l-16-13.6a3.92 3.92 0 0 0-5 0l-16 13.6c-.8.7-1.7 1-2.8 1h-7.4c-2 0-3.5 1.6-3.5 3.5v5.8c0 .8-.4 1.6-1 2.2l-9.8 8.3c0 .1-.1.2-.1.2v.1c0 .1 0 .1-.1.2v49.2c0 .1.1.1.1.1s0 .1.1.1c.1.1.1.1.2.1s.2.1.3.1h85.1c.1 0 .2 0 .3-.1.1 0 .1-.1.2-.1 0 0 0-.1.1-.1l.1-.1V16.8A16.54 16.54 0 0 0 55.2.2c-1.9-6.7-7.3-11-13.4-11.9a2.9 2.9 0 0 1-2.5-2.8z" mask="url(#b_1_)"/>
  </g>
  <path fill="#b9bbbe" d="M46.2 6.5h4.2c.4 0 .8-.3.8-.8l.3-8.3c0-.4-.3-.8-.8-.8H46c-.4 0-.8.4-.8.8l.3 8.3c-.1.4.3.8.7.8m2.1 1.7c-1.7 0-3.1 1.4-3.1 3.1 0 1.7 1.4 3.1 3.1 3.1 1.7 0 3.1-1.4 3.1-3.1 0-1.8-1.4-3.1-3.1-3.1m21.1-21.3l-1.7 1.7c-.3.3-.3.7 0 1 .1.1.3.2.5.2s.4-.1.5-.2l1.7-1.7c.3-.3.3-.7 0-1a.9.9 0 0 0-1 0m-6.9-.2h.2c.3 0 .6-.2.7-.5l.6-2.3c.1-.4-.1-.8-.5-.9-.4-.1-.8.1-.9.5l-.6 2.3c-.1.4.1.8.5.9m11.9 7.2c-.1-.4-.5-.6-.9-.5l-2.3.6c-.4.1-.6.5-.5.9.1.3.4.5.7.5h.2l2.3-.6c.4-.2.6-.6.5-.9m-98.3-26.6c-.6 0-1.1-.5-1.1-1.1 0-.4-.3-.7-.7-.7-.4 0-.7.3-.7.7 0 .6-.5 1.1-1.1 1.1-.4 0-.7.3-.7.7 0 .4.3.7.7.7.6 0 1.1.5 1.1 1.1 0 .4.3.7.7.7.4 0 .7-.3.7-.7 0-.6.5-1.1 1.1-1.1.4 0 .7-.3.7-.7 0-.4-.3-.7-.7-.7m100 54.6c.2 0 .4-.1.5-.2l.8-.8c.3-.3.3-.7 0-1-.3-.3-.7-.3-1 0l-.8.8c-.3.3-.3.7 0 1 .1.1.3.2.5.2m-4.2 4.2c.2 0 .4-.1.5-.2l.8-.8c.3-.3.3-.7 0-1-.3-.3-.7-.3-1 0l-.8.8c-.3.3-.3.7 0 1 .1.1.3.2.5.2m4.7-2.1c-.3-.3-.7-.3-1 0-.3.3-.3.7 0 1l.8.8c.1.1.3.2.5.2s.4-.1.5-.2c.3-.3.3-.7 0-1l-.8-.8zm-4.4-2.3c.1.1.3.2.5.2s.4-.1.5-.2c.3-.3.3-.7 0-1l-.8-.8c-.3-.3-.7-.3-1 0-.3.3-.3.7 0 1l.8.8zm-106.7-38c.6 0 1.1.5 1.1 1.1 0 .6-.5 1.1-1.1 1.1-.6 0-1.1-.5-1.1-1.1 0-.6.5-1.1 1.1-1.1m0 3.6c1.4 0 2.5-1.1 2.5-2.5s-1.1-2.5-2.5-2.5-2.5 1.1-2.5 2.5 1.1 2.5 2.5 2.5" transform="translate(37 36)"/>
</svg>
