<svg xmlns="http://www.w3.org/2000/svg" viewBox="0 0 936.8 429.2"><style>.st0{opacity:.3;fill:#4f545c;enable-background:new}.st2{fill:#040505}.st3{fill:#fff}.st5{fill:#72767d}.st6{fill:#202225}</style><path class="st0" d="M796.9 212.7c0-34-27.8-61.8-61.8-61.8h-82.5v278.3h278.3v-82.5c0-40.2-32-72.2-72.2-72.2-34 .1-61.8-27.7-61.8-61.8z"/><path class="st0" d="M678.9 148.1c-27.7 0-50.4-22.7-50.4-50.4s-22.7-50.4-50.4-50.4H335.2c-14.3 0-25.7 11.4-25.7 25.7 0 27.8-22.3 50-50 50h-23.1c-24.4 0-44.6 20.2-44.6 44.6v73.2c-41.6 0-75.7 34.1-75.7 75.7v112.7h394.8V274.1h117.6s83.2-126 50.4-126z"/><path fill="#98989e" d="M264.5 121.2h442.4v308H264.5z"/><path class="st2" d="M264.5 177.2h442.4v98H264.5z"/><path class="st3" d="M317.7 317.2h182v28h-182z"/><path fill="#36393f" d="M564.1 316.1h92.4v70h-92.4z"/><path class="st3" d="M317.7 359.2h182v28h-182z"/><path class="st5" d="M356.9 192.6c0-66.5-53.9-120.4-120.4-120.4s-120.4 53.9-120.4 120.4S170 313 236.5 313s120.4-54 120.4-120.4z"/><path class="st3" d="M323.9 148.9c0-12.1-9.8-21.9-21.8-21.9s-21.8 9.8-21.8 21.9 9.8 21.9 21.8 21.9 21.8-9.9 21.8-21.9z"/><path class="st6" d="M313.2 148.9c0-6.2-5-11.1-11.2-11.1s-11.2 5-11.2 11.1 5 11.1 11.2 11.1 11.2-5 11.2-11.1z"/><path class="st3" d="M247.2 148.9c0-12.1-9.8-21.9-21.8-21.9s-21.8 9.8-21.8 21.9 9.8 21.9 21.8 21.9 21.8-9.9 21.8-21.9z"/><path class="st6" d="M236.5 148.9c0-6.2-5-11.1-11.2-11.1-6.2 0-11.2 5-11.2 11.1s5 11.1 11.2 11.1 11.2-5 11.2-11.1zM279.5 191.8c0-6.2-5-11.1-11.2-11.1s-11.2 5-11.2 11.1 5 11.1 11.2 11.1c6.2.1 11.2-4.9 11.2-11.1z"/><g><path class="st5" d="M725.9 12.7c-2.5 0-4.2-1.7-4.2-4.2V4.2c0-2.5 1.7-4.2 4.2-4.2s4.2 1.7 4.2 4.2v4.2c0 2.6-1.7 4.3-4.2 4.3zM725.9 46.2c-2.5 0-4.2-1.7-4.2-4.2v-4.2c0-2.5 1.7-4.2 4.2-4.2s4.2 1.7 4.2 4.2V42c0 2.6-1.7 4.2-4.2 4.2zM736.3 23.2c0-2.5 1.7-4.2 4.2-4.2h4.2c2.5 0 4.2 1.7 4.2 4.2s-1.7 4.2-4.2 4.2h-4.2c-2.1-.1-4.2-1.7-4.2-4.2zM702.8 23.2c0-2.5 1.7-4.2 4.2-4.2h4.2c2.5 0 4.2 1.7 4.2 4.2s-1.7 4.2-4.2 4.2H707c-2.1-.1-4.2-1.7-4.2-4.2z"/></g><g><path class="st5" d="M23 287c-2.5 0-4.2-1.7-4.2-4.2v-4.2c0-2.5 1.7-4.2 4.2-4.2s4.2 1.7 4.2 4.2v4.2c0 2.6-1.6 4.2-4.2 4.2zM23 320.6c-2.5 0-4.2-1.7-4.2-4.2v-4.2c0-2.5 1.7-4.2 4.2-4.2s4.2 1.7 4.2 4.2v4.2c0 2.6-1.6 4.2-4.2 4.2zM33.5 297.5c0-2.5 1.7-4.2 4.2-4.2h4.2c2.5 0 4.2 1.7 4.2 4.2s-1.7 4.2-4.2 4.2h-4.2c-2.1 0-4.2-1.6-4.2-4.2zM0 297.5c0-2.5 1.7-4.2 4.2-4.2h4.2c2.5 0 4.2 1.7 4.2 4.2s-1.7 4.2-4.2 4.2H4.2c-2.1 0-4.2-1.6-4.2-4.2z"/></g><path class="st5" d="M55.8 105.9l-6 11.9c-1.2 3 1.8 5.4 4.2 4.2l11.9-6c.6-.6 1.8-.6 3 0l11.9 6c3 1.2 5.4-1.8 4.2-4.2l-6-11.9c-.6-.6-.6-1.8 0-3L85 91c1.2-3-1.8-5.4-4.2-4.2l-11.9 6c-.6.6-1.8.6-3 0l-11.9-6c-3-1.2-5.4 1.8-4.2 4.2l6 11.9c.5 1.2.5 1.8 0 3zM920.1 173.6l-4.2-12.6c-1.3-3-5-2.5-5.9 0l-4.2 12.6c0 .8-.8 1.7-2.1 2.1l-12.6 4.2c-3 1.3-2.5 5 0 5.9l12.6 4.2c.8 0 1.7.8 2.1 2.1l4.2 12.6c1.3 3 5.1 2.5 5.9 0l4.2-12.6c0-.8.8-1.7 2.1-2.1l12.6-4.2c2.9-1.3 2.5-5 0-5.9l-12.6-4.2c-1.2-.5-1.6-.9-2.1-2.1z"/><g><path fill="#f6f6f7" d="M645.3 429.2h193.2l-95.9-171.1z"/><path class="st2" d="M742.5 408.3c8.2 0 14.9-6.7 14.9-14.9s-6.7-14.9-14.9-14.9-14.9 6.7-14.9 14.9 6.7 14.9 14.9 14.9zM754.5 324.6h-23.9v41.8h23.9v-41.8z"/></g></svg>