<svg width="145" height="91" viewBox="0 0 145 91" fill="none" xmlns="http://www.w3.org/2000/svg">
<g clip-path="url(#clip0_1291_151744)">
<path d="M5.66271 43.6801L16.3855 48.7761L53.6505 87.4911L102.124 88.5249L134.597 85.9987L135.619 82.7155C135.249 82.6063 134.894 82.4825 134.553 82.3587C128.637 80.1747 123.946 75.9087 116.689 73.6664C109.156 71.3368 99.3327 71.4824 88.1677 70.6743C74.777 69.6697 61.4732 65.8186 53.4692 56.7841C45.2042 47.3929 41.6517 37.0407 38.672 30.5033C36.381 25.4655 31.422 19.8527 24.114 19.7071C16.806 19.5615 12.8112 21.7309 9.50521 26.5066C7.22871 29.7971 6.72846 30.4378 3.87921 32.3306C0.46446 34.5291 -0.27504 36.7568 0.24696 39.2393C0.76896 41.7218 3.62546 43.3889 5.66271 43.6801Z" fill="url(#paint0_linear_1291_151744)"/>
<path d="M1.80551 4.25149C5.32176 4.97949 10.7013 7.98613 14.319 11.1529C17.1221 13.5446 19.4302 16.4658 21.1123 19.7506L15.421 21.294C13.9515 18.1035 11.9203 15.2057 9.42526 12.74C5.85102 9.22373 1.16751 6.81405 0.362765 6.13701C-0.441985 5.45997 0.304765 3.83653 1.80551 4.25149Z" fill="#3F98F1"/>
<path d="M40.1212 4.53543C36.6122 5.26343 31.2255 8.27007 27.615 11.4369C24.812 13.8277 22.5018 16.746 20.8145 20.0273L26.513 21.5779C27.9865 18.3843 30.0254 15.4859 32.5305 13.0239C36.083 9.50039 40.7665 7.09071 41.5712 6.42095C42.376 5.75119 41.6292 4.12047 40.1212 4.53543Z" fill="#66BBFF"/>
<path d="M133.349 91.0002H40.0704C36.3004 91.0002 35.3942 90.5124 34.0674 88.2411C32.7407 85.9697 32.0664 82.6791 30.2974 80.233C28.4197 77.6705 23.6492 73.5282 19.9734 67.7042C17.2547 63.3362 16.0222 56.5949 15.5654 53.3698L16.1309 52.2924L15.3479 51.5644C8.93892 51.7537 5.37192 46.5339 5.66192 43.6802C7.01253 43.8583 8.37755 43.8998 9.73642 43.8039L15.2247 44.2407L25.1354 39.0574L30.3917 34.4346C28.8112 45.8278 33.2917 62.5427 38.8597 68.3521C43.8839 73.5791 47.9802 71.3369 53.5627 75.6321C57.0644 78.3257 59.6817 84.106 67.5189 84.2225C76.0449 84.3535 79.1189 77.059 85.5714 78.3985C91.7122 79.7016 93.7567 87.1927 101.855 87.0398C109.25 86.9015 110.04 82.0385 114.231 81.5726C118.762 81.0702 123.489 86.3119 131.167 84.5647C132.768 84.2578 134.288 83.6153 135.625 82.6791C139.345 83.8148 144.224 84.3899 144.565 86.9015C144.905 89.4131 141.027 91.0002 133.349 91.0002Z" fill="url(#paint1_linear_1291_151744)"/>
<path d="M24.3241 50.4794C21.6785 52.1389 18.6753 53.1375 15.5661 53.3914C15.4284 52.3577 15.3631 51.6879 15.3486 51.5787C18.175 51.3619 20.9091 50.4709 23.3236 48.9798C23.423 48.9102 23.5353 48.8614 23.6539 48.8362C23.7724 48.8109 23.8948 48.8099 24.0138 48.833C24.1327 48.8561 24.2459 48.9029 24.3465 48.9707C24.4471 49.0384 24.5332 49.1258 24.5996 49.2275C24.6661 49.3293 24.7115 49.4434 24.7332 49.5631C24.755 49.6828 24.7526 49.8056 24.7262 49.9244C24.6999 50.0431 24.6501 50.1554 24.5798 50.2545C24.5094 50.3536 24.4201 50.4375 24.3169 50.5013L24.3241 50.4794Z" fill="#3F98F1"/>
<path d="M15.886 31.6433C17.5042 29.3057 17.5251 26.5098 15.9327 25.3982C14.3402 24.2867 11.7376 25.2806 10.1194 27.6181C8.50123 29.9557 8.48036 32.7516 10.0728 33.8631C11.6652 34.9746 14.2679 33.9808 15.886 31.6433Z" fill="white"/>
<path d="M23.4233 31.517C25.0345 29.17 25.0445 26.3701 23.4456 25.2634C21.8467 24.1567 19.2444 25.1621 17.6332 27.5091C16.022 29.8562 16.012 32.656 17.6109 33.7627C19.2098 34.8695 21.8121 33.864 23.4233 31.517Z" fill="white"/>
<path d="M20.6895 29.1505C21.5491 27.8996 21.5541 26.4061 20.7006 25.8147C19.8471 25.2232 18.4582 25.7577 17.5986 27.0086C16.7389 28.2594 16.7339 29.7529 17.5875 30.3444C18.441 30.9359 19.8298 30.4013 20.6895 29.1505Z" fill="black"/>
<path d="M13 29.1451C13.8597 27.8943 13.8647 26.4008 13.0111 25.8093C12.1576 25.2178 10.7688 25.7523 9.90911 27.0032C9.04944 28.2541 9.04446 29.7475 9.898 30.339C10.7515 30.9305 12.1404 30.396 13 29.1451Z" fill="black"/>
<path d="M21.2568 40.4987L21.5033 40.3677L21.2568 40.4987Z" fill="black"/>
<path d="M16.3846 42.5518C14.2232 43.2194 11.9924 43.6347 9.73633 43.7894C10.0875 44.6963 10.6898 45.4833 11.4723 46.0574C12.2547 46.6314 13.1844 46.9686 14.1516 47.029L16.3846 42.5518Z" fill="black"/>
<path d="M28.5434 35.6722C27.4342 42.5372 18.7269 47.6259 14.0869 47.0071C14.4949 45.3905 15.2358 43.8777 16.2619 42.5663C20.3582 41.2923 24.3167 38.9991 28.4854 35.6431C28.5144 35.6722 28.5507 35.6722 28.5434 35.6722Z" fill="#EA459E"/>
<path d="M29.1813 32.5489C31.755 32.7091 33.7633 34.2525 33.6545 35.9997C33.5458 37.7469 31.2693 37.2373 28.6955 37.0771C26.1218 36.9169 24.2223 37.179 24.3455 35.4318C24.4688 33.6846 26.6075 32.3961 29.1813 32.5489Z" fill="#FFE65C"/>
<path d="M127.346 40.0984C127.274 39.7053 127.18 39.3122 127.093 38.9191C128.383 34.2526 127.934 28.3339 124.193 21.6727C120.328 14.7131 112.542 10.3451 104.828 9.04194L104.545 8.79442L102.472 8.00818L102.174 6.89434C92.4448 -0.305583 80.3228 -2.18382 69.0998 2.81754C55.767 8.77258 48.2778 23.3763 49.6625 38.9846L50.5398 39.6543L49.8655 40.8119L49.6625 38.9919C49.7205 39.6398 49.793 40.295 49.88 40.9502C49.5393 41.0739 49.155 41.1977 48.8578 41.3506C47.3842 42.0353 46.04 42.9713 44.8848 44.117C47.2299 48.6697 50.112 52.9227 53.4688 56.7842C61.4438 65.8478 74.7765 69.6989 88.1745 70.7035H88.2398C96.2148 76.5275 105.85 78.4786 113.042 75.552C124.831 70.7254 130.333 55.4519 127.346 40.0984Z" fill="url(#paint2_linear_1291_151744)"/>
<path d="M75.9804 29.4551C79.5329 14.6621 92.6554 8.12468 104.589 8.80172C103.799 8.1174 102.994 7.47676 102.175 6.86524C95.7118 6.86355 89.4372 9.04985 84.3645 13.0709C79.2918 17.092 75.7174 22.7129 74.2187 29.0256C70.5212 44.4082 76.8504 60.9556 85.3619 70.4196C86.2827 70.5143 87.1962 70.6016 88.1169 70.6672C79.2647 61.9312 72.2249 45.0925 75.9804 29.4551Z" fill="#FF8B18"/>
<path d="M127.81 42.9886C127.687 42.0277 127.535 41.0594 127.346 40.0766C127.338 40.0177 127.326 39.9593 127.31 39.9019C127.253 39.9689 127.205 40.0422 127.165 40.1203C122.873 50.4069 114.688 51.4553 111.396 50.356C105.85 48.5287 99.7019 40.1057 102.225 30.5762C102.698 29.0311 103.577 27.6427 104.77 26.5575C105.963 25.4723 107.426 24.7304 109.004 24.4101C110.492 24.0715 112.047 24.1747 113.478 24.7072C114.91 25.2398 116.156 26.1786 117.066 27.4094C117.22 27.585 117.435 27.6943 117.667 27.7146C117.899 27.735 118.13 27.6648 118.312 27.5187C118.494 27.3725 118.613 27.1617 118.644 26.9299C118.675 26.6981 118.616 26.4631 118.479 26.2737C117.355 24.7852 115.83 23.6512 114.083 23.0061C112.337 22.361 110.444 22.2318 108.627 22.6337C106.722 23.0257 104.959 23.9275 103.523 25.2437C102.087 26.5599 101.032 28.2414 100.47 30.1103C99.2479 34.7994 99.8358 39.7793 102.116 44.0515C104.175 47.9463 107.43 50.9529 110.816 52.0595C111.795 52.3762 112.818 52.5335 113.847 52.5254C118.327 52.5691 124.12 49.9119 127.81 42.9886Z" fill="#FF8B18"/>
<path d="M59.4503 40.7679C59.681 40.8365 59.9293 40.8117 60.1421 40.6987C60.3548 40.5858 60.5151 40.3937 60.5885 40.1636C60.6586 39.9329 60.6346 39.6837 60.5218 39.4707C60.4089 39.2578 60.2165 39.0985 59.9868 39.0279C56.5913 38.1607 53.0352 38.1482 49.6338 38.9915C49.6918 39.6031 49.757 40.2146 49.8368 40.8188C52.9893 40.0156 56.2895 39.9981 59.4503 40.7679Z" fill="#FF8B18"/>
<path d="M128.804 69.3566C137.749 69.3566 145 62.0752 145 53.0931C145 44.111 137.749 36.8296 128.804 36.8296C119.859 36.8296 112.607 44.111 112.607 53.0931C112.607 62.0752 119.859 69.3566 128.804 69.3566Z" fill="url(#paint3_linear_1291_151744)"/>
<path d="M127.513 62.3822V47.2325L123.743 48.6885L123.358 45.9149L127.926 43.7964H131.014V62.3822H127.513Z" fill="white"/>
<path d="M70.949 10.1918C68.4043 12.6077 66.3165 15.4663 64.7865 18.6294C63.4597 21.3157 58.6095 19.9762 60.1102 17.0714C63.1697 11.1455 67.4327 8.18256 69.8107 7.60744C70.514 7.42544 72.7615 8.40824 70.949 10.1918Z" fill="#FFF1A5"/>
<path d="M90.4587 19.161C89.6322 20.2967 88.668 21.7527 87.9357 22.7501C87.0802 23.9294 84.724 23.0777 85.0937 21.2213C85.315 20.2458 85.8343 19.3642 86.5792 18.6997C87.3241 18.0353 88.2572 17.6213 89.248 17.5158C89.9367 17.4721 91.2127 18.12 90.4587 19.161Z" fill="#FFF1A5"/>
<path d="M13.5645 78.0342C12.9626 77.6431 12.4489 77.1298 12.0565 76.5272C11.6759 75.9192 11.4288 75.2367 11.3315 74.5252L10.94 72.0718C10.9332 72.0127 10.9048 71.9582 10.8603 71.919C10.8412 71.896 10.8174 71.8776 10.7905 71.8649C10.7635 71.8523 10.7342 71.8457 10.7044 71.8457C10.6747 71.8457 10.6453 71.8523 10.6184 71.8649C10.5914 71.8776 10.5676 71.896 10.5485 71.919C10.504 71.9582 10.4756 72.0127 10.4688 72.0718L10.0918 74.5106C9.98492 75.2216 9.7294 75.9019 9.34205 76.5066C8.95469 77.1114 8.44426 77.627 7.8443 78.0196L7.51805 78.2234C7.48694 78.2475 7.46165 78.2784 7.44408 78.3137C7.4265 78.349 7.41709 78.3878 7.41655 78.4273C7.40672 78.4655 7.40672 78.5056 7.41655 78.5438C7.4323 78.579 7.45738 78.6092 7.48905 78.6311L7.8153 78.835C8.41442 79.2267 8.92435 79.7412 9.31167 80.3446C9.69899 80.9481 9.95495 81.6269 10.0628 82.3366L10.4398 84.7827C10.447 84.8397 10.4755 84.8917 10.5195 84.9283C10.5398 84.9477 10.5637 84.9628 10.5898 84.9728C10.616 84.9828 10.6438 84.9875 10.6718 84.9866C10.7009 84.9881 10.73 84.9837 10.7574 84.9737C10.7848 84.9637 10.81 84.9483 10.8313 84.9283C10.8754 84.8917 10.9039 84.8397 10.911 84.7827L11.288 82.3366C11.3886 81.6246 11.6416 80.9429 12.0296 80.3384C12.4176 79.734 12.9313 79.221 13.5355 78.835L13.8618 78.6311C13.8935 78.6092 13.9185 78.579 13.9343 78.5438C13.9441 78.5056 13.9441 78.4655 13.9343 78.4273C13.9338 78.3878 13.9243 78.349 13.9068 78.3137C13.8892 78.2784 13.8639 78.2475 13.8328 78.2234L13.5645 78.0342Z" fill="#5765F1"/>
<path d="M44.8848 17.8722C44.495 17.6167 44.164 17.2807 43.914 16.8864C43.6639 16.4922 43.5006 16.049 43.4348 15.5862L43.1883 13.9992C43.1851 13.9599 43.167 13.9234 43.1376 13.8973C43.1108 13.8699 43.0743 13.8542 43.0361 13.8536C43.0159 13.8529 42.9959 13.8564 42.9771 13.8639C42.9584 13.8714 42.9414 13.8828 42.9273 13.8973C42.9004 13.9252 42.8827 13.9608 42.8766 13.9992L42.6373 15.5862C42.5661 16.0506 42.3981 16.4946 42.1443 16.8894C41.8954 17.2839 41.5639 17.6192 41.1728 17.8722L40.9626 18.0032C40.9402 18.017 40.9225 18.0373 40.9118 18.0614C40.9044 18.0876 40.9044 18.1154 40.9118 18.1415C40.9054 18.1654 40.9054 18.1905 40.9118 18.2143C40.9225 18.2384 40.9402 18.2587 40.9626 18.2726L41.1728 18.4036C41.5639 18.6565 41.8954 18.9919 42.1443 19.3864C42.3981 19.7811 42.5661 20.2252 42.6373 20.6895L42.8766 22.2838C42.8841 22.3213 42.9046 22.3549 42.9346 22.3785C42.9632 22.4021 42.9991 22.4149 43.0361 22.4149C43.0729 22.4138 43.1084 22.4011 43.1376 22.3785C43.1654 22.3541 43.1834 22.3205 43.1883 22.2838L43.4348 20.6895C43.5006 20.2268 43.6639 19.7835 43.914 19.3893C44.164 18.9951 44.495 18.659 44.8848 18.4036L45.0951 18.2726C45.1157 18.2567 45.1329 18.2369 45.1458 18.2143C45.1492 18.1902 45.1492 18.1657 45.1458 18.1415C45.1499 18.115 45.1499 18.088 45.1458 18.0614C45.1329 18.0388 45.1157 18.0191 45.0951 18.0032L44.8848 17.8722Z" fill="#59F186"/>
<path d="M139.004 13.0093C138.343 12.5813 137.78 12.0181 137.351 11.3567C136.929 10.6951 136.652 9.95046 136.539 9.1727L136.126 6.49366C136.117 6.4292 136.087 6.36979 136.039 6.32586C135.991 6.28193 135.929 6.25628 135.865 6.25342C135.8 6.25575 135.738 6.28161 135.691 6.32622C135.646 6.37249 135.616 6.43062 135.604 6.49366L135.198 9.1727C135.081 9.95206 134.801 10.6977 134.376 11.3603C133.951 12.0229 133.391 12.5874 132.733 13.0165L132.378 13.2349C132.341 13.2618 132.311 13.2967 132.291 13.3369C132.279 13.3774 132.279 13.4201 132.291 13.4606C132.28 13.5037 132.28 13.5486 132.291 13.5917C132.312 13.6298 132.341 13.6623 132.378 13.6863L132.733 13.912C133.393 14.339 133.955 14.9029 134.38 15.5659C134.805 16.2289 135.084 16.9756 135.198 17.7558L135.604 20.4276C135.616 20.4923 135.649 20.5512 135.698 20.595C135.746 20.6323 135.804 20.6527 135.865 20.6533C135.928 20.6544 135.989 20.6338 136.039 20.595C136.088 20.5525 136.119 20.4925 136.126 20.4276L136.539 17.7558C136.649 16.9744 136.927 16.2263 137.352 15.5628C137.778 14.8992 138.341 14.3361 139.004 13.912L139.359 13.6863C139.395 13.6638 139.423 13.6308 139.439 13.5917C139.449 13.5486 139.449 13.5037 139.439 13.4606C139.45 13.4201 139.45 13.3774 139.439 13.3369C139.423 13.2956 139.396 13.26 139.359 13.2349L139.004 13.0093Z" fill="#FF78B8"/>
</g>
<defs>
<linearGradient id="paint0_linear_1291_151744" x1="51.0405" y1="18.484" x2="86.9362" y2="108.188" gradientUnits="userSpaceOnUse">
<stop offset="0.18" stop-color="#66BBFF"/>
<stop offset="0.19" stop-color="#65BAFF"/>
<stop offset="0.63" stop-color="#49A1F5"/>
<stop offset="0.89" stop-color="#3F98F1"/>
</linearGradient>
<linearGradient id="paint1_linear_1291_151744" x1="65.2134" y1="38.7443" x2="100.698" y2="135.015" gradientUnits="userSpaceOnUse">
<stop offset="0.02" stop-color="#8BD8FF"/>
<stop offset="0.74" stop-color="#66BBFF"/>
</linearGradient>
<linearGradient id="paint2_linear_1291_151744" x1="86.5143" y1="1.25962" x2="86.5143" y2="103.653" gradientUnits="userSpaceOnUse">
<stop stop-color="#FFE65C"/>
<stop offset="1" stop-color="#FFC518"/>
</linearGradient>
<linearGradient id="paint3_linear_1291_151744" x1="128.804" y1="40.0473" x2="128.804" y2="86.4355" gradientUnits="userSpaceOnUse">
<stop stop-color="#ED4245"/>
<stop offset="0.36" stop-color="#E53A44"/>
<stop offset="0.91" stop-color="#CF2541"/>
<stop offset="1" stop-color="#CB2140"/>
</linearGradient>
<clipPath id="clip0_1291_151744">
<rect width="145" height="91" fill="white"/>
</clipPath>
</defs>
</svg>
