<svg fill="none" height="240" viewBox="0 0 458 240" width="458" xmlns="http://www.w3.org/2000/svg" xmlns:xlink="http://www.w3.org/1999/xlink"><linearGradient id="a"><stop offset="0" stop-color="#eb459f"/><stop offset="1" stop-color="#ff78b9"/></linearGradient><linearGradient id="b" gradientUnits="userSpaceOnUse" x1="308.565" x2="334.117" xlink:href="#a" y1="123.165" y2="123.165"/><linearGradient id="c" gradientUnits="userSpaceOnUse" x1="292.962" x2="305.572" y1="110.617" y2="125.141"><stop offset="0" stop-color="#40c1a2"/><stop offset="1" stop-color="#4697c4"/></linearGradient><linearGradient id="d" gradientUnits="userSpaceOnUse" x1="20777.4" x2="20358.1" xlink:href="#a" y1="7615.03" y2="6599.29"/><linearGradient id="e"><stop offset="0" stop-color="#ffe75c"/><stop offset="1" stop-color="#ffc619"/></linearGradient><linearGradient id="f" gradientUnits="userSpaceOnUse" x1="141.98" x2="98.1686" xlink:href="#e" y1="224.602" y2="224.602"/><linearGradient id="g" gradientUnits="userSpaceOnUse" x1="10634.5" x2="14960.6" xlink:href="#e" y1="9186.4" y2="13112.1"/><linearGradient id="h" gradientUnits="userSpaceOnUse" x1="2260.54" x2="5197.25" xlink:href="#e" y1="5845.14" y2="9330.15"/><path d="m436.477 24.6882h-413.2327c-4.7547 0-8.609 3.8513-8.609 8.6022v197.8496c0 4.751 3.8543 8.602 8.609 8.602h413.2327c4.755 0 8.609-3.851 8.609-8.602v-197.8496c0-4.7509-3.854-8.6022-8.609-8.6022z" fill="#5865f2"/><path d="m264.211 136.086c-10.417 6.194-12.914 10.753-14.722 20.387s-6.198 29.075 3.272 32.774c-2.927 20.559-3.272 39.226-2.411 50.495h186.127c2.284 0 4.473-.906 6.088-2.52 1.614-1.613 2.521-3.801 2.521-6.082v-131.6992c-4.046-3.957-7.489-3.0967-16.443-2.0645-.456-2.7325-.743-5.4903-.861-8.2581 9.126-3.2688 10.159-8.6881 7.662-12.7311-2.496-4.043-10.933-10.9248-21.006-11.699-10.072-.7742-24.794 11.699-20.747 17.3764-5.08.8602-8.782 3.6989-10.503 7.2258-2.411-8-6.629-13.6774-33.403-11.0968 1.463-10.3226-3.616-23.6559-20.49-24.9462s-28.065 13.5914-27.377 24c.689 10.4086 9.212 16.258 9.212 16.258-7.92 6.5377-18.682 11.4407-20.317 24.3437-.603-3.871-3.788-6.709-14.722-6.193-12.655.688-17.476 5.935-18.079 12.043-.602 6.107.947 10.408 6.199 12.387z" fill="#3442d9"/><path d="m264.555 80.3442c-8.695 1.3763-1.033 29.9358-.775 38.9678l8.093-.946c2.755-26.1509 1.377-39.3982-7.318-38.0218z" fill="#3442d9"/><path d="m284.012 80.5161c-8.007-.5161-6.888 26.4089-8.437 34.4949l7.317.774c7.662-22.7958 9.04-34.8388 1.12-35.2689z" fill="#3442d9"/><path d="m355.639 87.9148-3.013-.947" stroke="#000" stroke-linecap="round" stroke-linejoin="round" stroke-width="1.5"/><path d="m356.672 87.8279c-.795-.6946-1.543-1.4418-2.238-2.2366" stroke="#000" stroke-linecap="round" stroke-linejoin="round" stroke-width="1.5"/><path d="m374.149 181.247c-9.126 5.162-20.576 13.936-26.688 18.839-2.841 2.237-.517 6.538 8.695 14.968 9.211 8.43 9.814 3.785 18.681-4.387 10.159-9.377 17.735-17.377 17.735-17.377z" fill="#ffe75c"/><path d="m358.996 209.204c-.089.008-.179-.013-.256-.06-.078-.046-.138-.115-.174-.198-.121-.128-.189-.297-.189-.473s.068-.345.189-.473c8.179-6.796 18.337-15.312 24.88-20.129.344-.172.775-.172.947.172.048.067.081.143.098.223.018.081.018.164.002.244-.016.081-.049.157-.095.225-.047.067-.107.125-.177.168-6.543 4.817-16.702 13.247-24.794 20.129z" fill="#ffc619"/><path d="m347.719 201.032c1.722-1.376 4.132-1.634 8.092 2.667 3.204 3.52 6.086 7.32 8.609 11.355 1.292 2.15-.086 3.183-2.324 2.666-2.238-.516-5.682-3.612-7.92-5.763-2.239-2.151-8.609-9.29-6.457-10.925z" fill="#000"/><path d="m358.049 214.366c-11.536 9.376-23.674 19.096-28.323 22.709s-8.523 4.215-12.914-1.548c-21.522-28.817-21.781-37.075-16.615-38.968 6.973-2.495 12.139 4.473 26.688 21.247 5.94-4.817 13.085-10.752 20.748-16.774h.086c1.808-1.462 4.39-1.462 7.403 3.269 1.459 2.243 2.672 4.637 3.616 7.14.775 1.892-.258 2.494-.689 2.925z" fill="#ff78b9"/><path d="m347.461 212.215c3.615 5.247 4.39 10.753-.603 13.419-4.993 2.667-8.179-.43-10.847-5.505-2.669-5.075-3.961-8.516-.603-11.613 3.357-3.097 8.437-1.462 12.053 3.699z" fill="#fff"/><path d="m344.275 225.462-14.549 11.613c-4.305 3.355-8.523 4.215-12.914-1.548-21.522-28.817-21.781-37.075-16.615-38.968 6.973-2.495 12.139 4.473 26.688 21.247l8.092-6.537c4.305-3.527 9.126 2.666 10.503 5.333 1.378 2.667 1.894 6.366-1.205 8.86z" fill="#66bcff"/><path d="m306.309 202.581c-4.993-4.99-7.662-6.022-8.523-3.785l-.172.43v.172c-1.033 4.473 3.185 14.537 19.198 36.043 3.099 4.043 6.112 4.817 9.126 3.785.387-.124.727-.363.974-.686.246-.324.387-.715.403-1.121.086-1.634-1.033-4.301-3.013-8.43-4.132-8.086-12.741-20.989-17.993-26.408z" fill="#fff"/><path d="m380.261 74.0645c-1.238-4.6997-3.809-8.9417-7.404-12.2151-1.894-1.8064-3.271-2.0645-4.218-.7742-.947 1.2904-.775 3.4409-.345 5.9355.438 2.3619 1.131 4.6693 2.067 6.8818-3.788 3.0107-5.252 5.8494-3.186 8.7741 2.066 2.9248 9.298-.7741 11.795-2.4086 2.496-1.6344 2.238-2.5806 1.291-6.1935z" fill="#8cd9ff"/><path d="m371.996 68.645 6.285 8c-2.083-.0507-4.165.1515-6.199.6022" stroke="#66bcff" stroke-linecap="round" stroke-linejoin="round" stroke-width="1.5"/><path d="m384.135 73.6344c-.503-.429-1.114-.712-1.767-.8182-.653-.1061-1.322-.0314-1.935.2161-1.205.4301-2.841 1.6344-3.53 4.8172-.139.5935-.157 1.2089-.054 1.8097s.326 1.1748.655 1.688c.329.5133.758.9555 1.261 1.3003s1.07.5853 1.668.7073c2.324.4301 3.702-1.9785 4.304-4.3871.603-2.4086.173-4.6451-.602-5.3333z" fill="#66bcff"/><path d="m425.114 192.516s-6.887-7.742-13.688-16.86l-9.987 13.849c15.841 16.861 20.232 22.452 26.947 21.506 4.132-.602 7.317-4.989 10.244-9.979 4.477 12.732 6.371 16.947 11.45 16.947 5.08 0 9.729-4.818 6.457-14.882-3.271-10.065-9.211-19.097-12.397-22.452-3.185-3.355-7.317-2.494-10.245.946z" fill="#ff78b9"/><path d="m436.65 204.215 1.98-3.183c4.477 12.731 6.371 16.947 11.45 16.947s9.728-4.818 6.457-14.882c-3.272-10.065-9.212-19.097-12.397-22.452s-7.318-2.494-10.245.946l-8.092 9.979c1.808-2.237 5.94-.602 8.264 1.806 2.325 2.409 4.649 7.57 2.583 10.839z" fill="#66bcff"/><path d="m439.491 196.043c1.636 5.247-.603 10.236-4.821 11.441-4.218 1.204-7.92-1.893-9.986-7.054-2.067-5.161-1.808-11.183 2.927-12.559s10.072 2.494 11.88 8.172z" fill="#fff"/><path d="m436.65 204.129c-2.41 3.527-5.079 6.366-8.264 6.796-6.715.946-11.106-4.646-26.947-21.506l9.987-13.849c6.801 9.118 13.688 16.86 13.688 16.86l.689-.946h.086c1.808-2.151 6.112-.774 8.437 1.634 2.324 2.409 4.304 7.828 2.324 11.011z" fill="#ff78b9"/><path d="m419.001 207.484c4.305-9.635 4.046-17.291 2.497-19.183l-16.357 5.161c6.284 6.71 10.417 11.183 13.86 14.022z" fill="#000"/><path d="m395.068 193.634c2.755 3.871 6.974 10.323 8.868 12.732 1.894 2.408 7.317 5.419 14.377-4.904 7.059-10.322 3.874-13.333 1.894-16.086-1.98-2.752-9.126-11.527-9.126-11.527z" fill="#ffe75c"/><path d="m357.102 90.2365c2.411-2.2365 2.497-4.129.086-4.043-2.41.086-5.682 1.8925-7.489 3.957-1.808 2.0645-1.55 3.2688.172 3.3548 1.721.086 5.079-1.2903 7.231-3.2688z" fill="#fff"/><path d="m353.142 90.8388c1.12-1.3763 1.033-2.5806-.258-2.4946-.748.1294-1.462.4098-2.099.8238-.636.4141-1.182.9533-1.603 1.5848-.775 1.1183-.602 1.9785.345 2.0645s2.582-.7742 3.615-1.9785z" fill="#000"/><path d="m364.248 128.172c-12.311-.516-30.648-8.774-53.376-25.29l-8.092 10.15c13.86 12.903 31.681 25.893 61.468 30.452z" fill="url(#b)"/><path d="m313.799 122.236v.172c2.239 1.635 4.477 3.269 6.974 4.904 1.588-3.617 2.493-7.496 2.668-11.441z" fill="#000"/><path d="m364.248 143.484v-15.312c-6.026-.258-13.602-2.409-22.383-6.452 1.033.431 1.377 3.613 1.033 7.742-.345 4.129-2.325 7.914-4.046 7.226 8.179 3.222 16.7 5.502 25.396 6.796z" fill="#0c1aad"/><path d="m311.475 120.172c-7.921.86-13.775 1.204-16.874-5.935-3.099-7.14-4.477-10.839-4.477-10.839-6.198-4.1292-10.417-8.5163-12.827-12.5593-1.378-2.4086-1.894-4.9892.258-6.1075s3.358.4301 7.92 4.5591c4.563 4.1291 8.523 6.2796 13.086 7.3118 4.563 1.0323 12.741-3.1828 15.238 6.1939 2.497 9.376 9.384 16.086-2.324 17.376z" fill="#eb459f"/><path d="m294.343 98.2365.172-2.8387c-2.841-1.1183-5.51-2.9248-9.04-6.1076-3.529-3.1828-5.681-5.6774-7.92-4.5591 3.272-1.0323 5.51 7.3118 16.788 13.5054z" fill="#ff78b9"/><path d="m314.229 110.624c.197-1.062.151-2.154-.136-3.195s-.806-2.003-1.519-2.815c-.712-.811-1.6-1.451-2.596-1.87-.995-.419-2.073-.607-3.152-.55l-13.258.258c-2.38.121-4.647 1.047-6.431 2.625-1.783 1.579-2.976 3.717-3.383 6.063l-4.133 29.849c-.161 1.077-.087 2.175.215 3.221.303 1.045.827 2.013 1.538 2.838s1.591 1.486 2.581 1.94 2.067.689 3.156.689l13 .344c2.366-.029 4.647-.89 6.441-2.431 1.795-1.542 2.989-3.665 3.373-5.999z" fill="#fff"/><path d="m302.607 143.742c.707.008 1.394-.241 1.932-.699.538-.459.891-1.097.995-1.796.05-.321.03-.649-.06-.962-.09-.312-.247-.601-.46-.847-.213-.245-.477-.442-.774-.575-.296-.133-.619-.2-.944-.196l-16.788-.172c-.707-.008-1.393.24-1.931.699-.538.458-.892 1.096-.996 1.795-.036.315-.006.634.09.936.096.301.256.579.467.815.212.236.471.424.761.553.29.128.604.193.921.191z" fill="#ffe75c"/><path d="m292.879 133.505c-.26.001-.51-.096-.701-.271-.192-.175-.31-.416-.332-.675l-.516-4.129c-.057-.607-.291-1.183-.674-1.658-.383-.474-.897-.825-1.479-1.009l-3.788-1.29c-.244-.079-.449-.247-.577-.469-.127-.223-.167-.485-.111-.735.038-.279.155-.541.339-.754.183-.214.424-.37.694-.45l4.046-.861c.638-.16 1.229-.469 1.723-.903s.877-.98 1.118-1.591l1.636-4.043c.12-.244.303-.453.53-.604s.489-.239.761-.257c.254.017.495.12.683.292s.311.403.35.655l.517 4.129c.056.606.29 1.183.673 1.658.383.474.897.825 1.479 1.008l3.702 1.291c.249.078.464.242.605.462.142.22.202.482.17.742-.038.279-.156.541-.339.754-.184.214-.425.37-.694.45l-4.133.947c-.626.157-1.208.456-1.701.873-.492.418-.882.943-1.14 1.535l-1.636 4.043c-.088.25-.251.466-.466.62-.216.154-.474.238-.739.24zm11.536-14.365c-.071.016-.145.014-.215-.006-.071-.02-.135-.057-.186-.109-.052-.052-.09-.116-.11-.186s-.022-.144-.005-.215l-.258-1.979c-.024-.316-.143-.618-.343-.864-.201-.246-.472-.425-.777-.512l-1.894-.688c-.258-.086-.344-.258-.344-.603 0-.344.258-.516.517-.516l2.066-.516c.312-.068.603-.214.844-.425.241-.21.424-.478.533-.779l.861-2.065c.049-.121.132-.226.239-.302.106-.077.233-.121.364-.128.258.086.516.258.516.516l.258 2.065c.053.306.183.594.379.835s.451.427.741.541l1.808.602c.121.049.226.132.303.239.076.106.12.233.127.364-.037.131-.103.253-.192.357s-.2.188-.325.245l-2.066.43c-.328.084-.632.245-.886.47-.255.224-.452.505-.577.82l-.775 1.979c-.049.121-.132.226-.239.303-.106.076-.233.12-.364.127z" fill="url(#c)"/><path d="m305.707 94.0214c-3.186-3.871-4.907-5.5054-8.523-4.9032-3.616.6021-3.874 3.1828-4.993 8.6881-1.12 5.5057-.603 7.5697 2.841 7.9137 3.443.344 6.456-5.075 10.675-11.6986z" fill="#ff78b9"/><path d="m322.408 109.333c-3.271-1.892-5.165-4.043-5.682-9.634-.516-5.5914-2.496-8.2581-7.059-9.3763-4.563-1.1183-7.146.8602-9.987 6.8817-2.841 6.0216-4.562 10.7526-1.033 11.8706 3.53 1.119 6.629-1.978 11.364-9.548 3.272 4.903 5.252 7.484 4.305 13.419-5.166 3.183-8.523 6.022-7.232 8.947 1.292 2.924 5.424 3.957 12.828-.517 7.403-4.473 6.801-9.462 2.496-12.043z" fill="#ff78b9"/><path d="m394.207 84.3872c-2.841 1.8924-12.483-1.2903-12.483-4.5592-.008-1.841.283-3.6712.861-5.4193.689-1.6344 1.55-3.4409 8.351-7.5699 6.801-4.1291 8.695-2.2366 9.384-.3441.688 1.8925-1.206 5.8495-3.186 9.6344 1.722 3.957.517 5.9355-2.927 8.2581z" fill="#8cd9ff"/><path d="m393.69 70.6235s-6.456 4.2151-8.781 6.5377c2.583.3441 6.113 1.0322 6.113 1.0322" stroke="#66bcff" stroke-linecap="round" stroke-linejoin="round" stroke-width="1.5"/><path d="m390.936 197.075c-3.634-.009-7.214-.879-10.447-2.539-3.232-1.66-6.025-4.062-8.148-7.009-6.113-8.602-12.053-19.527-15.066-28.645-5.166-15.312-1.378-23.57 5.682-32.43-1.98-4.302-3.874-7.226-.947-9.205 2.927-1.978 12.139-6.021 23.933-7.398 11.794-1.376 11.794-.774 11.364 11.183 6.371 11.097 9.125 19.699 10.589 36.645 2.794 3.183 4.696 7.048 5.513 11.203.816 4.154.518 8.451-.864 12.453-1.463 4.577-4.345 8.569-8.23 11.399-3.885 2.831-8.571 4.352-13.379 4.343z" fill="#ffe75c"/><path d="m380.175 175.656c-10.934 1.29-15.324 0-17.563-4.301 2.846 5.619 6.098 11.024 9.728 16.172 2.124 2.947 4.916 5.349 8.149 7.009 3.232 1.66 6.813 2.53 10.447 2.539 4.808.009 9.494-1.512 13.379-4.342 3.885-2.831 6.767-6.823 8.23-11.4 1.382-4.002 1.68-8.298.863-12.453-.816-4.155-2.718-8.02-5.512-11.203-5.424 9.635-16.788 16.603-27.721 17.979z" fill="#ffe75c"/><path d="m421.498 195.871c-2.669-3.441-6.027-7.656-11.967-14.882-.344-2.494-1.377-9.29-5.51-15.225-.115-.132-.271-.22-.443-.251s-.349-.004-.504.078c-.133.117-.216.28-.232.456-.016.177.036.352.146.491 4.047 5.763 4.994 12.559 5.338 14.795 0 .172 0 .258.086.344 6.285 7.656 9.728 11.957 12.483 15.484z" fill="#ffc619"/><path d="m408.929 159.054-1.033-1.377c-5.424 9.635-16.788 16.603-27.721 17.979-10.934 1.376-15.324 0-17.563-4.301.603 1.204 1.206 2.408 1.894 3.613 2.153 3.785 7.06 4.989 15.755 4.215s25.052-8.172 28.668-20.129z" fill="#000"/><path d="m397.306 121.032c.431-11.957.517-12.559-11.363-11.183-11.881 1.377-21.093 5.42-23.934 7.398-2.841 1.979-1.033 4.903.947 9.205-2.927 3.957-6.456 15.311-2.324 25.978 5.165.258 15.238-.43 22.642-3.097-1.55-18.494 7.404-26.322 14.032-28.301z" fill="#0c1aad"/><path d="m392.313 111.398c-.471.956-1.263 1.717-2.238 2.15-20.748 9.291-24.536 9.291-26.516 5.506-1.442-2.542-3.053-4.985-4.821-7.312-7.576.946-17.39 3.097-22.211-1.118s.43-7.14 5.165-8.774c-9.814-4.4736-14.979-9.2048-11.019-13.0758 3.96-3.8709 11.191-.8602 20.747 3.0108 12.656-12.9893 25.397-16.086 39.344-10.4086 2.046-2.3168 4.921-3.7378 8.006-3.957 4.821-.172 8.867 4.043 6.543 8.4301-4.993 9.8925-7.404 14.1075-13 25.5485z" fill="#ff78b9"/><path d="m374.837 86.4526 3.185-1.2053" stroke="#000" stroke-linecap="round" stroke-linejoin="round" stroke-width="1.5"/><path d="m374.148 87.9141h3.358" stroke="#000" stroke-linecap="round" stroke-linejoin="round" stroke-width="1.5"/><path d="m373.029 89.1182 3.272.8609" stroke="#000" stroke-linecap="round" stroke-linejoin="round" stroke-width="1.5"/><path d="m349.182 98.9247c-9.039-3.699-12.311-5.8495-15.152-5.8495-1.119 0-1.721.4301-1.549.9462.258 1.8065 6.37 5.0753 12.311 7.8276-5.166 2.151-7.921 4.043-6.199 5.764 1.722 1.72 10.503 1.032 21.092-1.118 9.224-1.795 17.984-5.454 25.741-10.7531-9.728 5.7631-21.867 8.9461-36.244 3.1828z" fill="#000"/><path d="m391.797 96.7741c.775 1.9785-1.119 3.1828-4.132 2.8387-3.013-.344-6.027-2.0645-7.06-3.9569-1.033-1.8925.345-3.5269 3.53-3.2689 3.185.2581 6.801 2.3226 7.662 4.3871z" fill="#eb459f"/><path d="m367.95 93.7633c-3.1 1.2903-6.027 1.4624-10.159.3441 2.755-3.871 5.94-7.3119 9.126-9.0323 3.185-1.7204 8.006-1.7204 8.609.9463.602 2.6666-2.841 5.8494-7.576 7.7419z" fill="#fff"/><path d="m352.626 101.333c-6.887 1.979-6.887 3.613-5.682 4.129s6.285.086 12.655-2.838c-2.363-.188-4.7-.62-6.973-1.291z" fill="#d11583"/><path d="m397.306 121.032c-3.96 2.065-7.576 7.656-8.781 14.452-1.636 8.688 1.464 15.656 6.715 15.484 3.874-.086 7.92-4.043 10.245-9.721-1.665-7.12-4.424-13.939-8.179-20.215z" fill="#0c1aad"/><path d="m397.307 121.032c12.483-4.215 25.138-8.946 33.489-8.258s8.178 8.344 4.821 15.226c-3.358 6.882-15.669 25.978-15.669 25.978l-11.622-8.774c9.642-13.591 11.967-17.032 11.967-17.032-10.159 4.215-22.814 10.151-22.814 10.151z" fill="url(#d)"/><path d="m377.334 171.183c-9.04.774-12.569-5.333-15.238-12.301-.086-.086.086-.258.172-.258 7.811.209 15.625-.338 23.33-1.635.173-.086.345 0 .345.172 1.808 7.828-2.066 13.42-8.609 14.022z" fill="#ffc619"/><path d="m416.677 129.72c-1.636.689-2.755-3.871-1.292-8.86 1.464-4.989 3.702-6.623 5.768-7.14-7.145 1.463-15.496 4.56-23.847 7.312l-5.079 9.033c-.622 1.169-.841 2.51-.624 3.817.218 1.306.861 2.504 1.829 3.408.943.838 2.13 1.349 3.387 1.457 1.256.109 2.514-.191 3.587-.855 1.246-.686 2.402-1.524 3.443-2.494z" fill="#0c1aad"/><path d="m397.048 138.495c-.861 5.505-.344 7.828.947 8s5.079-10.753 5.079-10.753z" fill="#000"/><path d="m366.056 161.634c3.04.188 6.089.159 9.125-.086" stroke="#000" stroke-linecap="round" stroke-linejoin="round" stroke-width="1.5"/><path d="m357.647 155.659c1.095-.318 1.683-1.612 1.311-2.889-.371-1.278-1.561-2.055-2.656-1.737-1.096.318-1.684 1.611-1.312 2.889.371 1.277 1.561 2.055 2.657 1.737z" fill="#fff"/><path d="m387.148 149.677c.023.339-.021.68-.129 1.002-.109.322-.28.619-.504.875s-.496.465-.801.615c-.305.151-.637.239-.977.261-.677-.044-1.312-.344-1.776-.839-.464-.496-.722-1.149-.72-1.828-.061-.352-.048-.713.038-1.06s.243-.672.462-.955c.218-.284.493-.518.808-.689.314-.172.66-.276 1.016-.306 1.464-.086 2.583 1.29 2.583 2.924z" fill="#fff"/><path d="m378.969 160.774c-.43-1.118-2.41-2.838-4.735-.602-1.635-1.032-2.755-.774-3.443.946-.689 1.721-1.033 5.42 1.635 6.28 2.669.86 4.391-1.118 4.477-5.936 1.894-.086 2.238-.172 2.066-.688z" fill="#ff78b9"/><path d="m376.903 161.463c2.516-.186 5.018-.531 7.49-1.033" stroke="#000" stroke-linecap="round" stroke-linejoin="round" stroke-width="1.5"/><path d="m372.426 167.398c-2.668-.86-2.324-4.645-1.635-6.28.135-.334.308-.652.516-.946l2.411.774 3.185-1.032c.054.515.054 1.034 0 1.548-.086 4.818-1.549 6.882-4.477 5.936z" fill="#ff78b9"/><path d="m372.168 165.849c-.057-.01-.111-.031-.16-.063-.048-.032-.09-.073-.122-.121-.032-.049-.054-.103-.065-.16-.01-.057-.009-.115.003-.172.258-2.752.689-4.473 1.636-5.591l.775.43c-.775.86-1.378 2.323-1.636 5.333 0 .092-.036.179-.101.244-.065.064-.152.1-.243.1z" fill="#eb459f"/><path d="m375.44 187.269-5.596-3.355-1.205.688c2.066 1.463 6.026 3.699 6.198 3.785h.344c.108-.013.21-.051.3-.11.089-.06.164-.14.217-.234.062-.138.07-.294.022-.437-.048-.144-.148-.264-.28-.337z" fill="#000"/><path d="m361.751 94.7956c1.439-.6891 2.66-1.7605 3.53-3.0968 1.291-1.9785.861-3.6129-1.033-3.6129h-.431c-.796.1261-1.525.5207-2.066 1.1183-1.429 1.5437-2.752 3.1818-3.96 4.9032 1.3.3329 2.624.563 3.96.6882z" fill="#000"/><path d="m316.726 99.6988c-.087-.8686-.231-1.7306-.43-2.5806-1.292-5.5914-2.755-3.3549-6.285 2.4086 3.272 4.9032 5.252 7.4842 4.305 13.4192l1.033-.688c1.149-.805 1.999-1.967 2.419-3.305.421-1.337.387-2.776-.095-4.093-.559-1.667-.878-3.405-.947-5.1612z" fill="#eb459f"/><path d="m301.144 93.3333c-2.497 2.9247-3.702 6.4516-4.735 11.2687" stroke="#000" stroke-linecap="round" stroke-linejoin="round" stroke-width="1.5"/><path d="m420.207 128.258 2.497-3.527c.082-.154.11-.331.078-.503-.031-.172-.119-.328-.251-.443-.154-.082-.331-.11-.503-.079s-.328.12-.444.251l-3.529 5.161z" fill="#000"/><path d="m409.789 163.785c-7.748.946-9.039-2.753-10.072-5.161-1.894 1.204-4.046 2.064-6.457 1.118-2.41-.946-4.046-2.065-3.013-6.108.963-4.22 3.079-8.092 6.112-11.182 3.444-3.527 8.695-2.409 16.358 1.72 7.662 4.129 13.43 7.14 13.688 10.753s-3.702 8.688-6.457 11.097c-2.755 2.408-5.596 3.354-10.159-2.237z" fill="#ff78b9"/><path d="m399.373 158.366c1.636-3.355 3.702-7.054 3.702-7.054" stroke="#000" stroke-linecap="round" stroke-linejoin="round" stroke-width="1.5"/><path d="m410.307 163.183c1.453-1.329 2.832-2.736 4.132-4.215" stroke="#000" stroke-linecap="round" stroke-linejoin="round" stroke-width="1.5"/><path d="m94.527 239.742h50.277c2.755 0 3.185-3.183 2.238-4.817-.947-1.635-2.497-2.409-6.371-2.151s-4.218.344-5.165-.258c-4.735-3.613-8.609-6.452-14.635-8.86 0 0 .516-5.248 1.033-12.215l-20.748-1.979c-1.033 8.172-1.4636 14.28-1.4636 14.28-6.629 5.505-10.2447 11.613-5.1654 16z" fill="url(#f)"/><path d="m77.1365 207.312c.4305 7.226 1.2914 17.29 1.2914 17.29 6.1124 2.323 9.2977 4.129 12.7413 6.968 1.3775 1.204 1.894 1.204 4.1323 1.462 2.2384.258 4.3906 1.893 4.0463 3.957-.3444 2.065-1.5496 2.753-4.8211 2.753h-47.5218c-2.927-6.624 1.3775-9.893 5.7681-13.936l-.1722-17.892z" fill="#ffe75c"/><path d="m130.427 110.451-87.9846-2.064c.3443 44.129 1.6357 71.054 4.1323 110.452.1722 3.526 5.2515 3.44 22.3835 2.15 14.1188-1.032 13.6883-4.559 13.6022-5.677-.0861-1.119-.6026-5.076-1.1192-9.205 1.0331-17.978 2.4106-31.828 4.735-57.548 0 0 6.8011.516 11.7083-.516-.1722 21.935-.2583 44.559-2.4966 65.376-.6027 5.162.3443 5.936 15.4961 7.226 15.152 1.29 15.152.688 15.755-4.903 3.874-32.774 6.37-64.43 3.788-105.291z" fill="#57f287"/><path d="m123.453 142.452c-.172.086-19.026 4.731-25.5687 5.677v1.29c6.4567-.86 25.1387-5.505 25.9127-5.677.081-.02.157-.056.224-.106.066-.051.121-.114.161-.187.041-.073.066-.153.074-.236.007-.083-.002-.166-.028-.245-.041-.168-.144-.313-.287-.409s-.318-.134-.488-.107z" fill="#29cc7a"/><path d="m71.2826 147.097c-.1703-.027-.3445.011-.4879.107-.1435.096-.2458.241-.2869.409.0096.175.0724.343.1801.481s.2551.241.4225.293c.0861 0 7.4899 1.032 14.9797 1.462 0-.43.0861-.86.0861-1.29-7.4037-.43-14.8075-1.462-14.8936-1.462z" fill="#29cc7a"/><path d="m105.891 147.269c-.168.021-.322.102-.433.229s-.171.29-.17.459c.775 15.398-.086 48.258-.775 72.086h1.292c.688-23.742 1.549-56.774.774-72.258-.039-.152-.128-.285-.253-.379-.126-.094-.279-.142-.435-.137z" fill="#29cc7a"/><path d="m90.9111 148.731 2.5827-.172c3.788-3.355 3.3575-11.011 2.6688-24-.0571-.129-.1525-.238-.2734-.311s-.2614-.107-.4024-.098c-.141.01-.2756.062-.3858.151-.1101.088-.1903.208-.2297.344.7748 15.312.947 22.022-3.9602 24.086z" fill="#29cc7a"/><path d="m99.6924 125.247c.6026 12.99-3.874 15.312-3.874 15.312" stroke="#29cc7a" stroke-linecap="round" stroke-linejoin="round" stroke-width="1.5"/><path d="m54.2364 116.387c-.1598 0-.3131.063-.4261.176s-.1765.266-.1765.426v91.355c0 .086.6887 8 1.3774 13.419h1.3775c-.7748-5.419-1.4636-13.419-1.4636-13.419v-91.355c-.021-.167-.1028-.321-.2298-.432-.1269-.111-.2902-.171-.4589-.17z" fill="#29cc7a"/><path d="m130.943 119.312-.516-8.861-87.9846-2.064c0 2.151.0861 4.301.0861 6.366 4.2184 7.569 30.9925 12.559 52.9455 12.817 19.801.172 32.628-4.129 35.469-8.258z" fill="#000"/><path d="m71.1963 126.624v-10.237" stroke="#57f287" stroke-linecap="round" stroke-linejoin="round" stroke-width="1.5"/><path d="m50.5347 121.118v-10.236" stroke="#57f287" stroke-linecap="round" stroke-linejoin="round" stroke-width="1.5"/><path d="m120.957 125.247v-10.322" stroke="#57f287" stroke-linecap="round" stroke-linejoin="round" stroke-width="1.5"/><path d="m87.3813 127.226c5.7848.501 11.6009.53 17.3907.086v-9.377h-17.3907z" fill="#ff78b9"/><path d="m57.0774 8.25804c-5.5958-2.58064-11.5361-4.8172-12.7413-4.98925-1.2053-.17204-1.2053-.17204 0 7.13981 1.2052 7.3118 2.927 9.8925 12.7413-2.15056z" fill="#000"/><path d="m179.326 81.5482c.86-9.5484-3.616-17.6344-10.934-24.1721 6.457-19.957-1.463-33.6344-16.529-37.1613l-13.172 55.914c0 14.8817 5.079 19.5269 12.139 24.2582-.689 15.742 2.927 30.279 16.529 33.032s25.31-11.613 27.377-33.8923c2.066-22.2796-15.41-17.9785-15.41-17.9785z" fill="url(#g)"/><path d="m157.545 57.7205c7.92 4.5591 11.622 12.301 12.311 15.3978" stroke="#ffc619" stroke-linecap="round" stroke-miterlimit="10" stroke-width="1.5"/><path d="m194.047 104.602c.32-1.678.55-3.372.689-5.0753.516-5.5053-.172-9.3763-1.464-12.129l-17.045.5161c3.099 9.9785 11.622 14.9682 17.82 16.6882z" fill="#000"/><path d="m175.107 82.1504-16.529 17.7204" stroke="#ffa20d" stroke-linecap="round" stroke-miterlimit="10" stroke-width="1.5"/><path d="m57.0777 8.25806c43.0453 1.80644 58.9713 4.47314 94.7853 11.95694 4.735 30.6237-6.285 46.3656-17.132 67.3549.861 18.5811 1.722 26.6671-10.159 30.4511-14.205 4.56-40.2037 4.302-66.9778-2.064-24.794-5.849-20.8338-10.495-19.2842-32.7742 1.8079-26.4946-3.8741-57.0323 18.7677-74.92474z" fill="#fff"/><path d="m81.5273 49.2902c11.2779 21.5914 30.6477 34.9248 48.0387 28.5592 17.39-6.3656-19.543-51.6129-48.0387-28.5592z" fill="#8cd9ff"/><path d="m106.752 23.2258c16.787 1.2903 19.628 16.086 11.191 52.043-1.807 7.7419-2.066 8.6882-1.377 11.1828s2.927 8.5161 3.271 15.7424c.173 2.408-.086 4.215 1.636 4.215s6.715 0 15.755-3.097c1.894-.602 2.238-.946 2.496-18.4088 6.715-7.8279 23.159-29.6774 12.139-64.6882-36.674-8.8602-65.3425-11.87092-94.7854-11.95694-17.4763 8.00004-18.165 29.93544-20.5755 68.73114-.947 15.2258-4.8211 21.2474 10.0725 25.2908 14.8936 4.043 32.2839 4.129 37.191 4.129 4.9072 0 5.0793-.603 5.0793-6.9681-.0861-4.2151 1.5497-33.8925.947-49.2904-.6026-15.3978-1.5496-28.3871 16.9601-26.9247z" fill="#000"/><path d="m89.7919 50.1505c.3444 9.8065-.0861 25.3763-.5165 36.5591-2.5828-9.2903-7.3177-19.0967-8.6091-22.0215-1.2913-2.9247-1.6357-3.6989 1.894-7.3118-6.8872-3.5269-7.3177-3.0968-5.5098-7.7419 1.8079-4.6452 4.9072-15.6559 14.1188-22.5377 1.1787-.8187 2.489-1.4297 3.8741-1.8064-6.3707 4.215-5.768 13.9355-5.2515 24.8602z" fill="#5865f2"/><path d="m118.288 26.2365-2.583-.172c8.523 5.8494 8.867 21.0752 2.238 49.2043-1.549 6.6236-1.98 8.258-1.635 10.1505 2.238-3.5269 10.158-14.1936 12.913-18.1506 2.755-3.9569.775-3.9569-1.808-9.2042 6.113-2.6667 7.49-2.6667 6.974-5.3334-.517-2.6666-3.874-14.0215-16.099-26.4946z" fill="#5865f2"/><path d="m130.168 42.7527c-.344-6.2796-3.96-11.7849-9.47-15.4839l-.258-2.4946c-1.033-9.5484-5.165-17.03226-16.099-17.03226-10.9331 0-14.4628 6.53766-15.1515 16.68816 0 .6882-.0861 1.3764-.0861 2.0645-6.1985 3.699-10.0726 9.7205-10.3309 16.6022-.3443 11.6989 12.2249 19.1828 26.3435 19.1828 14.119 0 25.741-7.828 25.052-19.5269z" fill="#ffe75c"/><path d="m115.963 19.6128c1.378 3.699 4.563 6.4517 6.801 4.4732 2.239-1.9785-.947-5.7635-4.218-9.2043 2.669.172 4.649-1.9785 2.066-3.871-2.583-1.89247-7.146-3.95699-16.099-3.95699-8.9533 0-13.43 5.16129-16.8736 9.54839s-3.4436 6.7957-1.8079 8.172c1.6357 1.3764 7.5759.6022 10.503-5.5914.7748 2.2366 2.3245 3.5269 5.1655 3.1828s4.821-3.3548 5.251-6.1075c2.153 4.2151 3.014 6.3656 5.941 6.6237 2.927.258 3.099-1.6344 3.271-3.2689z" fill="#eb459f"/><path d="m105.632 7.74232c-.172-4.47311.345-7.139781 1.55-7.139781s.947 2.408601-.258 6.193551c3.702-3.87097 5.251-4.04301 5.768-3.44086.516.60215.344 2.4086-7.06 4.38709z" fill="#eb459f"/><path d="m114.242 27.0967c2.238.086 3.099.9462 2.927 3.0968-.126.8126-.547 1.5507-1.182 2.074-.634.5233-1.44.7955-2.262.7647-.98.0595-1.949-.2393-2.725-.8407-.776-.6015-1.307-1.4645-1.493-2.4281-.345-1.2043-.947-1.3764-1.378-1.3764-.43 0-1.033.2581-1.463 1.2903-.294.9523-.91 1.7732-1.742 2.3223s-1.829.7925-2.821.6885c-.414.0115-.827-.0601-1.213-.2106s-.738-.3767-1.0345-.6655c-.297-.2887-.533-.634-.6941-1.0154-.1612-.3814-.2441-.7913-.2439-1.2053.0861-2.1505 1.1195-2.7527 3.2715-2.8387 4.391-.086 9.47.086 12.053.3441z" fill="#000"/><path d="m91.9441 33.6343c-.5293.7727-.8125 1.6872-.8125 2.6236s.2832 1.8509.8125 2.6237c1.894 2.4086 4.6489 1.8924 6.9733.6881-.6026 2.2366-.4304 5.2474 2.6686 6.3656 3.099 1.1183 5.51-.258 7.146-2.6666.516 1.8064 1.808 3.3548 4.39 2.7527.558-.1642 1.073-.4491 1.509-.8346.435-.3855.78-.8621 1.01-1.3959.23-.5337.34-1.1116.321-1.6925s-.165-1.1505-.429-1.6684c1.205.7741 3.271 1.8064 5.079.4301 1.808-1.3764 1.722-3.5269.603-5.4194 3.357.1721 3.788-2.2366 3.357-3.5269-.43-1.2903-2.152-2.2365-4.562-.9462-2.411 1.2903-8.265 5.0753-11.537 7.0538l-14.5488-8.2581c-3.3575-1.9785-4.735-.9462-5.2515.172-.5166 1.1183-.5166 3.785 3.2714 3.699z" fill="#eb459f"/><path d="m99.6924 52.1289c2.0666 2.4946 9.1256 4.2151 14.1186 0" stroke="#ffc619" stroke-linecap="round" stroke-miterlimit="10" stroke-width="1.5"/><path d="m159.525 52.473 5.768-4.7312c1.205-1.2043.603-1.9785-.517-3.1828-1.119-1.2043-4.993-5.4193-6.198-6.4516s-1.119-1.2903-.517-1.9785c3.444-4.7312 4.907-6.7097 4.907-7.3118 0-.6022-1.721-1.5484-5.165-3.5269-.086 0-.086-.086-.086-.1721 2.669-3.6129 5.596-7.0537 5.079-7.4838-.516-.4301-4.649.6881-10.933 2.5806l-11.881 60.8172 5.596 1.3764c1.55.4301 1.722.4301 1.894-.4301.172-.8603.517-4.043.603-4.7312s.344-.6882 1.291-.6022l5.596.9463c2.152.344 2.669.6021 2.238-.9463-.43-1.5484-2.066-5.6774-2.41-6.5376s-.603-1.2903.344-1.6344 4.133-1.5484 6.629-2.6667c2.497-1.1183 2.239-1.8064 1.722-3.1828-1.095-2.4926-2.361-4.907-3.788-7.2258-1.119-1.8064-1.205-1.9785-.172-2.9247z" fill="#000"/><path d="m57.0776 8.25795c-18.5094-.51613-35.3831 7.31185-33.6613 36.30105-10.5891 6.5377-14.20489 15.1398-11.45 29.8495-8.26466 8-15.15188 18.4946-9.72819 30.8815 5.42368 12.387 21.60869 10.581 35.46919 9.463l19.8868-23.9144c-4.6488-2.0645-10.0725-2.8387-15.2379-4.5591 10.8473-5.5054 15.324-13.7635 14.7214-27.0108 12.2248-13.4193 12.8274-38.6237 0-51.01075z" fill="url(#h)"/><path d="m47.5215 56.5161c1.4635 3.4409.7748 8.5161 0 10.7527" stroke="#ffb012" stroke-linecap="round" stroke-miterlimit="10" stroke-width="1.5"/><path d="m18.9395 78.1074c7.9104.9116 15.6844 2.7597 23.1582 5.5054" stroke="#ffa20d" stroke-linecap="round" stroke-miterlimit="10" stroke-width="1.5"/><path d="m59.6604 59.9569-6.2846-1.4624c-.8609-.258-.947-.5161 0-1.3763l5.5959-5.4194c.6887-.6881.6887-.8602-.3444-2.0645l-5.9402-6.1935c-.7748-.7742-.7748-.9463 0-2.0646.7748-1.1182 5.2515-6.5376 6.0263-7.4838.7748-.9463.6887-1.4624-.5165-2.2366-1.2053-.7742-6.629-4.215-8.3508-5.2473s-1.8079-1.2903-.947-2.3226l5.4237-6.3656c.7748-.8602.7748-1.2043-.6887-2.6666-1.4636-1.4624-8.2647-8.86025-10.0726-11.69896l13.5162 4.90322 16.8737 8.34404-3.1854 37.4194z" fill="#000"/><path d="m68.3555 39.6558c-1.2053 13.1612-8.0064 32.6021-8.0064 32.6021" stroke="#0c1aad" stroke-linecap="round" stroke-linejoin="round" stroke-width="1.5"/><path d="m190.604 67.4408c3.96 3.1828 8.264 4.7312 10.761 1.7204 2.497-3.0107-.775-5.8494-4.218-9.2903-2.497-9.3763-7.662-9.9785-11.795-8.6021-4.132 1.3763-5.682 7.2258-5.682 14.6236-6.629 8.4301-11.45 15.914-4.562 24.3441 13.43-.4301 17.045-12.9032 15.496-22.7957z" fill="#ffe75c"/><path d="m192.497 56c-15.668 19.6129-22.727 28.2151-17.39 34.2366 5.338 6.0215 11.967 8.258 21.092 9.2903 9.126 1.0321 12.569-1.1183 12.828-11.6129 2.668 0 5.337-.8602 6.715-3.5269 1.377-2.6667 1.119-5.2473-1.206-9.2903 3.53-2.0645 6.113-5.0753 4.908-9.2043-1.206-4.1291-4.133-5.0753-10.073-6.4516z" fill="#ffe75c"/><path d="m187.246 63.7418c-2.755-4.215-3.185-3.0967-3.271-1.4623-.087 1.6344 5.768 14.6236 0 24l13.085-17.7205z" fill="#ffc619"/><path d="m65.6004 61.5052h-15.8406c-.9697-.0006-1.9101.3326-2.6628.9437-.7526.611-1.2716 1.4625-1.4695 2.4111l-3.6158 18.7527h22.2974l3.7019-19.2688c.0636-.3503.0488-.7103-.0435-1.0542s-.2597-.6631-.4902-.9345c-.2305-.2715-.5184-.4885-.843-.6355-.3245-.147-.6776-.2202-1.0339-.2145z" fill="#eb459f"/><path d="m66.3756 62.4515h-16.0128c-.7398-.0104-1.459.2441-2.0274.7174s-.9486 1.1342-1.0718 1.8632l-3.788 19.5269h20.6616l3.8741-20.215c.0376-.2353.0234-.4759-.0418-.705-.0651-.2291-.1796-.4412-.3354-.6215-.1559-.1803-.3492-.3244-.5666-.4221-.2174-.0978-.4536-.1469-.6919-.1439z" fill="#d11583"/><path d="m31.7671 83.6989c2.5827-7.4838 5.5959-7.7419 14.6353-10.1505 9.0395-2.4086 12.4831-1.1183 17.9929 1.3763s5.0793 6.1076 4.7349 9.0323c-.3443 2.9247-.8609 4.3011-4.5627 6.6236 3.3575 4.4732 4.2184 6.7097-1.1192 13.9354 1.5496 6.968 1.0331 11.613-6.2846 13.161-7.3177 1.549-17.9068 2.839-23.1583-2.58-7.4898-7.914-9.9003-8.86-2.2383-31.3981z" fill="#ffe75c"/><path d="m207.736 50.6665c-21.953 60.2155-64.482 99.1825-156.2541 96.4305" stroke="#66bcff" stroke-linecap="round" stroke-miterlimit="10" stroke-width="13"/><path d="m212.471 62.1074c-5.768.4301-8.351 2.1506-9.901 6.1076-1.549 3.9569 1.033 5.8494 8.179 5.9354 7.145.0861 1.722-12.043 1.722-12.043z" fill="#ffe75c"/><path d="m203.862 87.5697c-4.133 0-7.146-2.7527-8.609-4.6452-1.464-1.8924-1.12-4.215 1.291-6.1935 2.41-1.9785 5.079-1.4624 7.748.7742 2.669 2.2365-.43 10.0645-.43 10.0645z" fill="#ffe75c"/><path d="m200.676 96.258c-4.132 0-7.145-2.6667-8.609-4.5592-1.464-1.8924-1.119-4.301 1.291-6.1935 2.411-1.8925 5.08-1.4624 7.748.6882 2.669 2.1505-.43 10.0645-.43 10.0645z" fill="#ffe75c"/><path d="m189.829 66.4945c4.046 3.2689 8.35 4.7312 10.847 1.7205 2.497-3.0108-.775-5.8495-4.218-9.2043-3.444-3.3549-8.351-2.9248-9.901-1.0323-1.549 1.8925-.602 5.3333 3.272 8.5161z" fill="#ffe75c"/><path d="m192.411 68.9031c-3.05-1.6132-5.518-4.1399-7.059-7.2259" stroke="#000" stroke-linecap="round" stroke-linejoin="round" stroke-width="1.5"/><path d="m197.06 85.1611c3.048 1.8913 6.498 3.0405 10.073 3.3549" stroke="#000" stroke-linecap="round" stroke-linejoin="round" stroke-width="1.5"/><path d="m204.292 73.8064c2.632 1.0659 5.427 1.6768 8.265 1.8064" stroke="#000" stroke-linecap="round" stroke-linejoin="round" stroke-width="1.5"/><path d="m158.406 96.6025c1.265-.3599 2.563-.5906 3.874-.6887" stroke="#ffa20d" stroke-linecap="round" stroke-miterlimit="10" stroke-width="1.5"/><path d="m168.479 130.925c2.85.316 5.726-.32 8.178-1.807" stroke="#ffa20d" stroke-linecap="round" stroke-miterlimit="10" stroke-width="1.5"/><path d="m23.4166 44.559-1.2914.8602c.2583 3.0108.5165 5.5914.6026 6.5377-3.5726 2.4998-6.1366 6.1901-7.2315 10.4086-.0262.079-.0356.1625-.0278.2454.0078.0828.0327.1632.0732.2359.0404.0728.0955.1363.1618.1867.0662.0504.1423.0866.2232.1061h.1722c.131-.0068.2573-.051.3641-.1272.1067-.0762.1895-.1813.2385-.3029 1.0315-3.9943 3.4788-7.4788 6.8872-9.8064.1494-.0842.2701-.2111.3468-.3644s.1058-.3259.0837-.4958c-.0861-.6022-.4305-3.957-.6887-7.6559 0 .086 0 .086.0861.172z" fill="#ffc619"/><path d="m12.1387 108.559c.0869.001.173-.017.2523-.053.0794-.035.1501-.087.2074-.153.0572-.065.0996-.142.1243-.225.0247-.084.031-.171.0186-.257 0-.079-.0156-.158-.0459-.231s-.0747-.139-.1306-.195c-.056-.056-.1224-.1-.1955-.131-.0731-.03-.1515-.045-.2306-.045-6.80117.344-10.67523-3.269-11.27786-6.108.103571.62.27685 1.226.51654 1.807.27885 1.019.78889 1.96 1.49057 2.751.70169.791 1.57618 1.409 2.55567 1.808 1.83592.72 3.7961 1.071 5.76808 1.032z" fill="#ffa719"/><path d="m48.5549 107.183c-14.2049 3.785-19.2842 2.666-20.7478 0 1.0331 2.752 3.1854 4.731 6.1985 7.914 5.2515 5.419 15.7545 4.043 23.1583 2.58 7.4038-1.462 7.8342-6.193 6.2846-13.161 5.3376-7.2257 4.4767-9.4623 1.1192-13.9354 3.7018-2.3226 4.3045-3.6989 4.5627-6.6236.2583-2.9248.7749-6.6237-4.7349-9.0323-2.1837-1.0927-4.4982-1.9021-6.8872-2.4086 2.8409.5161 3.1853 2.1506 3.9601 5.5914.7748 3.4409-1.0331 6.6237-7.4037 10.9247 6.715 11.5268-1.2914 17.0328-5.5098 18.1508z" fill="#ffc619"/><path d="m65.859 90.8386c-3.0132-1.1183-7.7482-2.2365-7.7482-2.2365" stroke="#000" stroke-linecap="round" stroke-linejoin="round" stroke-width="1.5"/><path d="m65.17 104.516c-3.0993-1.032-7.7481-2.236-7.7481-2.236" stroke="#000" stroke-linecap="round" stroke-linejoin="round" stroke-width="1.5"/><path d="m31.2504 80.344c-1.5396-1.4337-3.1795-2.7561-4.9071-3.957" stroke="#ffa20d" stroke-linecap="round" stroke-miterlimit="10" stroke-width="1.5"/><path d="m148.419 36.9031c.501 15.7659-2.375 31.4567-8.437 46.0215" stroke="#0c1aad" stroke-linecap="round" stroke-linejoin="round" stroke-width="1.5"/><path d="m117.599 32.4299-1.55.9463c2.092.6187 4.029 1.6742 5.682 3.0967l-.516-1.0322h1.291c-1.477-1.2412-3.131-2.2559-4.907-3.0108z" fill="#d11583"/><path d="m98.9175 39.5697c-.0993.3358-.1571.6824-.1722 1.0322 1.3627-1.9841 2.9517-3.8028 4.7347-5.4193l-1.205-.6882c-1.891 1.7126-3.5679 3.6478-4.9933 5.7634z" fill="#d11583"/><path d="m115.877 41.9782c.011-.5362-.107-1.0672-.344-1.5484.479.3256 1.001.5859 1.549.7742-1.363-2.0374-2.92-3.9387-4.649-5.6774l-1.205.7742c1.774 1.6978 3.335 3.6042 4.649 5.6774z" fill="#d11583"/><path d="m107.699 37.5913v6.7957l.947-1.1183c.091.4183.236.823.43 1.2043v-6.8817l-.602.4301z" fill="#d11583"/><path d="m90.4805 33.5482c.4782.1194.9746.1486 1.4635.086-.2221.2855-.3965.6051-.5165.9462 1.589-1.2862 3.3224-2.3832 5.1654-3.2688l-1.3775-.8602c-1.6615.8994-3.2452 1.9352-4.7349 3.0968z" fill="#d11583"/><path d="m101.759 32.6882 3.787-5.9355h-3.185l-2.9269 4.5591c.278.3707.6259.6831 1.0249.9192.399.2362.841.3915 1.3.4572z" fill="#8cd9ff"/><path d="m112.95 27.0107h-1.55l-1.894 2.9248c.142.5097.344 1.0007.603 1.4623z" fill="#8cd9ff"/><path d="m115.188 27.1826-3.529 5.4194c.649.2914 1.354.4382 2.066.4301h.258l2.927-4.6452c-.153-.3363-.393-.6254-.696-.8372s-.657-.3386-1.026-.3671z" fill="#8cd9ff"/><path d="m104.513 27.1828c3.788 0 7.576.172 9.729.3441 2.152.172 2.668.7742 2.496 2.5806-.172 1.8065-1.377 2.4946-3.099 2.4946-.876.0396-1.737-.2326-2.431-.7682s-1.174-1.2998-1.357-2.1565c-.258-1.1183-.861-1.7204-1.722-1.7204s-1.463.5161-1.894 1.6344c-.23.7938-.72 1.4878-1.391 1.9711s-1.484.7282-2.311.6956h-.43c-.358.0115-.714-.049-1.048-.1778s-.638-.3234-.895-.5722c-.2572-.2488-.4615-.5467-.601-.8759-.1395-.3293-.2113-.6833-.2111-1.0408.0861-1.8065.7751-2.3226 2.8411-2.4086zm0-.4301h-2.324c-2.152.086-3.1854.6882-3.2715 2.8387-.0002.414.0827.8239.2439 1.2053.1611.3814.3971.7267.6941 1.0154.2965.2887.6485.515 1.0345.6655s.799.2221 1.213.2106h.43c.924.0195 1.829-.2644 2.575-.8083.747-.544 1.294-1.3177 1.558-2.2025.43-1.0322.947-1.2903 1.463-1.2903.517 0 1.033.172 1.378 1.3763.184.9483.702 1.7993 1.46 2.3989s1.706.9082 2.672.87h.086c.822.0307 1.628-.2414 2.262-.7647.635-.5233 1.056-1.2614 1.182-2.0741.172-2.1505-.689-3.0107-2.927-3.0967-2.239-.086-6.027-.3441-9.729-.3441z" fill="#000"/><path d="m111.659 7.56982c3.357.51613 3.96 3.35488 1.463 2.32258-2.496-1.03225-5.251-1.29032-7.575 1.5484-2.325 2.8387-5.424 2.4086-5.7685-.7742-.3444-3.1828-2.2384-2.58065-4.9072-1.03226-.822.47446-1.5999 1.02146-2.3244 1.63436 4.0462-3.26877 6.1124-2.32253 5.2515.5162-.8609 2.8387.6887 4.9892 3.3576 5.0752 2.669.0861 5.424-1.8064 7.059-4.129 1.636-2.3226 3.874-1.6344 6.113-.6882 2.238.9463 4.476-2.32254.344-3.7849z" fill="#ff78b9"/><path d="m60.6072 176.172c.4304 1.29 2.8409 10.237 3.0992 11.097s.1722 1.118 1.5496.344c.9646-.6 2.0076-1.063 3.0993-1.377.2583 0 2.4966 1.549 3.1853 1.807s.947-.086 1.9801-.86l2.3244-1.463c.1722-.086 1.2914-10.15 1.3775-10.924.0861-.775 0-.861-.4305-.516-.4304.344-3.0992 2.408-3.3575 2.58s-.6026-.258-2.2383-.774c-.9912-.376-2.0394-.579-3.0993-.602l-2.9271 1.72c-.3443.258-.6887.172-1.5496-.344s-2.841-1.032-3.0131-1.204c-.1722-.172-.1722.086 0 .516z" fill="#ffe75c"/><path d="m112.348 171.011c2.41.602 3.96 3.613 4.39 4.645.431 1.032.861 1.118 1.292.516.43-.602 1.807-4.817 1.98-5.161.172-.344.43-1.119.774-.688.345.43 3.1 4.301 3.358 4.731s.603.344.775-.086 1.205-3.097 1.377-3.441.086.946 0 2.495c-.086 1.548-.775 9.548-.775 9.892s-.086.516-.774 0l-2.411-1.462c-.258-.086-2.583 1.978-2.927 2.236s-.603.258-1.119 0l-3.013-1.462c-.957.307-1.88.711-2.755 1.204-.258.172-.603.258-.603-.344s0-3.785 0-4.645c-.079-.876-.252-1.741-.516-2.581-.345-1.204-1.464-5.419-1.55-6.021s0-.516 2.497.172z" fill="#ffe75c"/><path d="m126.294 171.527c-.172.344-1.291 3.097-1.377 3.441s-.431.516-.775.086l-.517-.775c-.086 3.011-.258 6.194-.43 8.689l1.549.946c.689.516.775.43.775 0s.775-8.43.775-9.893c0-1.462.172-2.838 0-2.494z" fill="#000"/><path d="m75.0703 186.15.7748-.43c.1722-.086 1.2914-10.15 1.3775-10.924.0861-.775 0-.861-.4305-.516l-1.7218 1.376z" fill="#000"/><path d="m124.917 174.968c-.173.43-.431.516-.775.086-.345-.43-2.927-4.301-3.358-4.732-.43-.43-.689.259-.775.689s-1.635 4.559-1.98 5.161c-.344.602-.775.43-1.291-.516-.517-.946-1.98-4.043-4.391-4.645-2.41-.603-2.668-.775-2.496-.172.172.602.516 2.236.947 3.871l6.629 3.871c.516.258.516 0 1.377-.689l2.841-2.752c.086-.086.431 0 2.411 1.29.602.344.861-.344.861-1.548z" fill="#000"/><path d="m73.4346 176.86c-.1722.172-.6026-.258-2.2383-.774-.9912-.376-2.0394-.58-3.0993-.602l-2.9271 1.72c-.3443.258-.6887.172-1.5496-.344s-2.841-1.032-3.0131-1.204c-.1722-.172-.1722.086 0 .516l.5165 1.806c1.4682.682 2.9954 1.229 4.5628 1.635l4.821-2.065c.4305-.086 3.9602 2.925 4.5628 3.269s.5166-2.925.6026-5.677c-.704.626-1.452 1.201-2.2383 1.72z" fill="#000"/><path d="m61.8127 58.4946h-7.0594c-.4549-.0057-.8998.1327-1.2711.3955-.3712.2627-.6495.6362-.7951 1.0669l-1.2052 3.2688c-.0861.172.0861.3441.2583.3441h11.7943c.0913 0 .1789-.0363.2435-.1008s.1009-.1521.1009-.2433l-.6027-3.5269c-.0432-.3498-.2191-.6697-.4914-.8938-.2723-.224-.6202-.3352-.9721-.3105z" fill="#fff"/><path d="m78.428 239.742c.6027-2.237.5166-4.043-.3443-5.42-.8609-1.376-3.2715-2.666-6.5429-2.838-.3444-.086-.6026.172-.6887.602-.0014.168.0593.332.1704.458.111.127.2648.209.4322.23 2.841.172 4.6489.946 5.5098 2.237.8609 1.29.7748 2.752.0861 4.731z" fill="#ffc619"/><path d="m90.3084 239.742c.7748-2.495.1721-4.129-.5166-5.076-.6887-.946-3.6158-2.408-6.4567-2.064-.1675.052-.3149.154-.4226.293-.1077.138-.1705.306-.1801.481.0411.167.1434.313.2869.409.1435.095.3176.134.4879.107 2.3245-.258 4.3045.344 5.2515 1.549.947 1.204.7749 2.494.1722 4.301z" fill="#ffc619"/><path d="m135.161 239.742c.345-1.979.086-3.441-.775-4.559-.861-1.119-3.874-2.495-8.006-2.581-1.358-1.267-2.795-2.445-4.305-3.527-.141-.076-.304-.1-.461-.069-.157.032-.298.117-.399.241-.076.141-.101.304-.069.461.031.157.116.298.241.399 1.463.947 4.218 3.613 4.304 3.613l.172.172h.259c3.874.086 6.198.688 7.231 2.065 1.033 1.376.861 2.064.517 3.785z" fill="#ffc619"/><path d="m135.936 233.892c-.129.057-.238.153-.311.274-.073.12-.107.261-.098.402.01.14.062.275.151.385.088.11.209.19.344.23 3.788-.258 5.768.086 6.543 1.204.308.513.457 1.106.426 1.704-.031.597-.239 1.172-.598 1.651h1.464c.32-.648.472-1.365.442-2.087-.03-.721-.241-1.424-.615-2.042-1.377-1.893-4.562-1.979-7.748-1.721z" fill="#ffc619"/><g fill="#8cd9ff"><path d="m215.742 160.774c.867 0 1.7.345 2.313.958.614.613.958 1.444.958 2.311v75.613h-6.543v-75.527c-.011-.436.065-.871.224-1.277.159-.407.399-.777.704-1.09s.669-.561 1.072-.731c.402-.17.835-.257 1.272-.257z"/><path d="m215.742 159.398c2.33 0 4.218-1.888 4.218-4.215 0-2.328-1.888-4.215-4.218-4.215s-4.219 1.887-4.219 4.215c0 2.327 1.889 4.215 4.219 4.215z"/><path d="m217.894 239.742h13.516l.258-.602c.042-.102.058-.212.048-.321-.01-.11-.046-.215-.105-.308-.059-.092-.139-.169-.234-.225-.095-.055-.201-.087-.311-.093-2.843-.119-5.654-.64-8.351-1.548-1.102-.409-2.051-1.15-2.714-2.121s-1.008-2.123-.988-3.298v-2.409h-1.119z"/><path d="m213.59 239.742h-13.516l-.259-.602c-.041-.102-.057-.212-.048-.321.01-.11.046-.215.105-.308.059-.092.14-.169.235-.225.094-.055.201-.087.311-.093 2.87-.128 5.709-.649 8.437-1.548 1.093-.413 2.03-1.157 2.679-2.129.648-.972.976-2.123.937-3.29v-2.409h1.119z"/><path d="m31.2505 146.667c1.0275 0 2.0129.407 2.7394 1.133s1.1347 1.711 1.1347 2.737v89.205h-7.7481v-89.205c0-1.026.4081-2.011 1.1347-2.737.7265-.726 1.7119-1.133 2.7393-1.133z"/><path d="m31.2504 144.86c2.7101 0 4.9071-2.195 4.9071-4.903s-2.197-4.903-4.9071-4.903-4.9071 2.195-4.9071 4.903 2.197 4.903 4.9071 4.903z"/><path d="m33.7471 239.742h16.0128l.2582-.774c.0404-.114.0537-.235.0388-.355-.0148-.119-.0573-.234-.1242-.334s-.1562-.183-.261-.243c-.1047-.06-.2219-.094-.3423-.101-3.8741-.344-7.3177-.774-9.9004-1.806-1.2764-.503-2.3706-1.381-3.1388-2.517-.7683-1.136-1.1746-2.478-1.1657-3.849v-2.924h-1.3774z"/><path d="m27.3765 226.839v2.924c.0089 1.371-.3975 2.713-1.1657 3.849s-1.8624 2.014-3.1389 2.517c-1.8078.649-3.6862 1.082-5.5958 1.29.7606.748 1.6619 1.339 2.6518 1.737.9899.399 2.049.598 3.1162.586h5.5098v-12.903z"/></g><path d="m31.2505 146.667c-.572-.002-1.1374.12-1.6576.358-.5201.237-.9826.585-1.3556 1.018 2.4966 2.15 6.8872 2.494 6.8872 2.494 0-1.026-.4081-2.011-1.1347-2.737-.7265-.726-1.7119-1.133-2.7393-1.133z" fill="#000"/><path d="m40.0315 144.516h-17.5624c-.7132 0-1.2914.578-1.2914 1.29v.026c0 .713.5782 1.291 1.2914 1.291h17.5624c.7132 0 1.2913-.578 1.2913-1.291v-.026c0-.712-.5781-1.29-1.2913-1.29z" fill="#8cd9ff"/><path d="m215.742 160.774c-.501.003-.994.122-1.442.345-.447.224-.838.547-1.141.945 2.066 1.807 5.854 2.065 5.854 2.065.001-.875-.341-1.716-.952-2.342-.612-.627-1.444-.99-2.319-1.013z" fill="#000"/><path d="m223.145 159.054h-14.807c-.618 0-1.119.495-1.119 1.105 0 .611.501 1.105 1.119 1.105h14.807c.619 0 1.12-.494 1.12-1.105 0-.61-.501-1.105-1.12-1.105z" fill="#8cd9ff"/><path d="m33.3699 137.397c.156-.347-.2801-.881-.9741-1.193-.694-.311-1.383-.283-1.5391.064-.156.347.2801.881.9741 1.193.694.311 1.383.283 1.5391-.064z" fill="#fff"/></svg>