<svg fill="none" height="221" viewBox="0 0 251 221" width="251" xmlns="http://www.w3.org/2000/svg" xmlns:xlink="http://www.w3.org/1999/xlink"><linearGradient id="a" gradientUnits="userSpaceOnUse" x1="59.9447" x2="73.53" y1="87.8554" y2="122.604"><stop offset="0" stop-color="#ffc285"/><stop offset="1" stop-color="#db8d6b"/></linearGradient><linearGradient id="b" gradientUnits="userSpaceOnUse" x1="104.497" x2="30.3466" y1="108.296" y2="108.296"><stop offset="0" stop-color="#d67569"/><stop offset="1" stop-color="#e39e7f"/></linearGradient><clipPath id="c"><path d="m0 0h251v220.175h-251z"/></clipPath><clipPath id="d"><path d="m0 0h118.895v105.684h-118.895z" transform="matrix(-1 0 0 1 262.009 33.0262)"/></clipPath><clipPath id="e"><rect height="74.8596" rx="8.80702" width="132.105" x="30.8247"/></clipPath><clipPath id="f"><rect height="82.3584" rx="8.80702" width="132.105" x="30.8247"/></clipPath><clipPath id="g"><rect height="70.4561" rx="6.60526" width="127.702" x="33.0264" y="2.20178"/></clipPath><clipPath id="h"><path d="m39.6318 0h114.491v72.6579h-114.491z"/></clipPath><clipPath id="i"><rect height="70.4561" rx="8.80702" width="132.105" y="81.465"/></clipPath><clipPath id="j"><path d="m108.987 154.123c0-4.864 3.943-8.807 8.807-8.807h114.491c4.864 0 8.807 3.943 8.807 8.807v57.245c0 4.864-3.943 8.807-8.807 8.807h-114.491c-4.864 0-8.807-3.943-8.807-8.807z"/></clipPath><clipPath id="k"><rect height="82.5658" rx="8.80702" width="132.105" x="108.987" y="145.316"/></clipPath><clipPath id="l"><path d="m110.088 146.417h129.904v72.6579h-129.904z"/></clipPath><clipPath id="m"><path d="m110.088 192.654h129.904v26.4211h-129.904z"/></clipPath><clipPath id="n"><path d="m110.088 146.417h129.904v56.1447h-129.904z"/></clipPath><clipPath id="o"><path d="m110.088 146.417h129.904v50.6404h-129.904z"/></clipPath><mask id="p" height="75" maskUnits="userSpaceOnUse" width="133" x="136" y="66"><rect fill="#c4c4c4" height="72.6579" rx="7.70614" stroke="#fff" stroke-width="2.20175" width="129.904" x="137.61" y="67.1535"/></mask><mask id="q" height="75" maskUnits="userSpaceOnUse" width="133" x="30" y="0"><rect fill="#c4c4c4" height="74.8596" rx="8.80702" width="132.105" x="30.8247"/></mask><mask id="r" height="76" maskUnits="userSpaceOnUse" width="134" x="108" y="145"><rect fill="#c4c4c4" height="72.6579" rx="7.70614" stroke="#fff" stroke-width="2.20175" width="129.904" x="110.088" y="146.417"/></mask><g clip-path="url(#c)"><path d="m13.4842 63.1598-3.52749-1.355c-.06533 0-.06533-.0565 0-.1129l3.52749-1.3551h.0654l1.5678-3.0488c0-.0565.1306-.0565.1306 0l1.5678 3.0488h.0653l3.4623 1.3551c.0653.0564.0653.1129 0 .1129l-3.4623 1.355c-.0173 0-.0339.006-.0462.0166-.0122.0106-.0191.0249-.0191.0399l-1.5678 3.0489h-.1306l-1.5678-3.0489c0-.015-.0069-.0293-.0192-.0399-.0122-.0106-.0288-.0166-.0462-.0166z" fill="#f7d197"/><path d="m87.8955 194.577-3.0999-1.203c-.0374 0-.0374-.097 0-.097l3.0999-1.203h.0373l1.3819-2.699c0-.032.112-.032.112 0l1.3819 2.699h.0373l3.0999 1.203c.0373 0 .0373.097 0 .097l-3.0999 1.203h-.0373l-1.3819 2.699h-.112l-1.3819-2.699z" fill="#ff99b9"/><g mask="url(#p)"><rect fill="#225b73" height="72.6579" rx="8.80702" width="128.803" x="138.71" y="67.1534"/><path clip-rule="evenodd" d="m267.237 133.199c.18-.702.276-1.437.276-2.195v-55.0435c0-4.864-3.943-8.8071-8.807-8.8071h-111.189c-4.864 0-8.807 3.9431-8.807 8.8071v6.9186c36.66 21.3649 79.985 38.4369 128.527 50.3199z" fill="#236682" fill-rule="evenodd"/><path d="m172.236 83.7066-2.812-1.2856c-.081 0-.081-.0804 0-.0804l2.812-1.2856c.08 0 .08-.0001.08-.0804l1.286-2.8124h.08l1.286 2.8124 2.893 1.2856c.08 0 .08.0804 0 .0804l-2.893 1.2857-1.286 2.973c0 .0804-.08.0804-.08 0l-1.286-2.8927z" fill="#ff9ccd"/><path d="m253.942 111.313-2.902-1.29c-.053 0-.053-.054 0-.107l2.902-1.29h.054l1.289-2.901c0-.054.108-.054.108 0l1.289 2.901h.054l2.848 1.29c.054.053.054.107 0 .107l-2.848 1.29c-.014 0-.028.005-.038.016-.01.01-.016.023-.016.038l-1.289 2.901h-.108l-1.289-2.901c0-.015-.006-.028-.016-.038-.01-.011-.024-.016-.038-.016z" fill="#f7d197"/></g><rect height="72.6579" rx="7.70614" stroke="#fff" stroke-width="2.20175" width="129.904" x="137.61" y="67.1535"/><g clip-path="url(#d)"><path d="m224.487 38.3483 10.548-5.3221 7.257 9.3861-10.934 6.9671z" fill="#133dbd"/><path d="m222.552 60.4105-21.095 39.5764c-.428.8931-.583 1.8931-.445 2.8751.137.981.562 1.899 1.219 2.64l.291.291c3.503 3.629 7.874 6.306 12.699 7.779s9.945 1.693 14.878.639c.709-.154 1.344-.544 1.801-1.107.458-.562.71-1.264.715-1.989l1.065-47.7048c0-18.0949-.871-22.159-11.128-2.9997z" fill="#33beb5"/><path d="m202.522 105.793c-.767-.816-1.263-1.849-1.419-2.958s.035-2.239.548-3.2351l20.901-39.1894c5.032-9.2893 7.741-13.1599 9.289-12.4825-3.967 27.6745-12.192 63.767-12.192 63.767l-5.612 1.452c-4.376-1.487-8.326-4.01-11.515-7.354z" fill="#33a2be"/><path d="m207.65 88.472c1.258-2.4191 1.838-3.1932 2.419-2.032 8.709-13.8372 12.87-11.0311 12.87 2.4191 0 0 5.999-3.1932 5.418 8.7088.855-.2479 1.768-.2014 2.593.1321.824.3334 1.513.9344 1.955 1.7064l-.29 11.7086c-.006.619-.193 1.224-.536 1.739-.344.515-.83.92-1.399 1.164-5.175.811-10.467.421-15.467-1.139s-9.574-4.25-13.369-7.86c-.511-.727-.817-1.577-.885-2.463s.104-1.773.498-2.569z" fill="#f7e5bc"/><path d="m201.458 99.987 6.193-11.515c1.258-2.4191 1.838-3.1932 2.419-2.032 8.709-13.8372 12.869-11.0311 12.869 2.4191.517-.2402 1.076-.3719 1.645-.3871-1.645.3871-1.645 2.0321-2.709 5.6124-1.064 3.5802-1.645 6.8706-1.645 6.8706l-15.385 6.58c-1.043-.786-2.045-1.626-3-2.516-.511-.727-.817-1.577-.885-2.463-.069-.886.104-1.773.498-2.569z" fill="#f7d197"/><path d="m202.135 100.471c7.451-8.0316 14.127-10.8377 29.126 11.128.145.233.233.498.257.772.023.275-.019.551-.123.806s-.266.481-.475.661c-.208.18-.456.308-.724.373-4.947 1.09-10.092.889-14.939-.586-4.847-1.474-9.233-4.172-12.735-7.832l-.291-.29-.58-.871c-.398-.648-.566-1.41-.479-2.165.088-.754.427-1.457.963-1.996z" fill="#242236"/><path d="m203.49 107.244 1.935-9.9665c5.419-4.4511 11.128-4.5479 20.901 7.6445l-4.064 9.386c-6.779-.623-13.264-3.063-18.772-7.064z" fill="#90423b"/><path d="m203.007 106.952 7.064-.677.967 2.709 1.742-3.774c1.742-3.87 1.838-3.773 3.29-.483 1.451 3.29 7.935 2.225 7.935 2.225l1.451-3.096c-8.515-10.2572-13.934-10.8378-18.869-7.451z" fill="#7a2f28"/><path d="m246.741 127.469c4.355 3.194 5.322 2.807 4.258 9-1.064 6.192-4.258-9-4.258-9z" fill="#3ee8dd"/><path d="m183.457 174.69h76.153c1.074-2.481 1.853-5.079 2.323-7.741.774-5.806 1.451-6.87-2.806-14.418-.291-5.709-2.129-9.289-6.58-14.901-2.487-3.855-5.269-7.511-8.322-10.935l-54.381 1.936c-2.237 1.529-4.341 3.245-6.29 5.128l-4.451.194c-.291 10.741 3.193 29.609 4.354 40.737z" fill="#244ab0"/><path d="m143.399 128.629 4.258-6.677c1.357-2.157 3.265-3.913 5.527-5.087s4.797-1.722 7.342-1.589h.194c.716.037 1.401.301 1.958.753.556.452.955 1.069 1.138 1.762l3.484 13.064 1.161 1.258c.243.253.422.561.522.897.101.337.121.692.059 1.038l-.291 2.612.581-.87c.214-.403.516-.752.885-1.021.369-.268.794-.448 1.244-.528 1.741-.483 5.128-1.354 8.612-2.612.774-1.258 2.419-3.193 8.612-3.29v3.87l-7.258 7.161.194 20.901-14.612 5.322c-1.629.559-3.387.628-5.055.198-1.669-.43-3.174-1.34-4.331-2.617-7.659-9.107-12.738-20.1-14.708-31.836-.185-.931-.013-1.899.484-2.709z" fill="#1e397d"/><path d="m237.455 147.693 1.355 5.999 16.062 1.645c.489.047.944.268 1.282.624.338.355.536.821.557 1.312v1.548c-.007.22-.063.435-.165.63-.103.195-.248.364-.425.494-.177.131-.381.219-.598.259-.216.04-.439.03-.651-.028l-16.062-5.226-14.225 2.226c-.324.069-.612.256-.808.523-.196.268-.287.598-.256.928l2.129 16.063h-42.189c-5.032-30.674-6.967-36.867 2.516-44.608l37.254 8.902 15.579-9.386-1.549 9.58c-.467 2.825-.402 5.714.194 8.515z" fill="#1e397d"/><path d="m230.874 114.5c3.29.967 3.581 0 5.806 6.289l-4.644.387z" fill="#3ee8dd"/><path d="m235.326 120.499-1.355-3.386c-.272-.65-.695-1.225-1.233-1.679-.539-.455-1.177-.775-1.863-.934l-4.935-1.064-19.74-.291-10.741 5.419c-.433.212-.808.524-1.094.912-.287.387-.475.838-.551 1.314l-.387 2.515-5.225 3.484c-.292.199-.521.479-.658.805s-.178.685-.116 1.033c1.355 11.806 13.547 29.997 30.577 21.869 12.676-6.096 24.385-14.805 29.997-19.256l2.226 2.903c.58-2.806 0-3.967-1.742-5.419l-1.742-1.258c-.153-.504-.251-1.023-.29-1.548-.387-2.225.097-2.806-2.613-3.387z" fill="#33beb5"/><path d="m231.356 117.693-6.192 4.161c-2.129 1.355-3.29 3.871-.291 2.71 2.471-.942 4.865-2.074 7.161-3.387 1.741-1.161 1.064-1.548.871-2.516-.194-.968-.484-1.645-1.549-.968z" fill="#37cfc5"/><path d="m188.2 126.789 5.226-3.484.387-2.515c.075-.476.264-.927.55-1.314.286-.388.662-.7 1.095-.912l10.74-5.419h3.097l12.386 26.804c-1.162 5.806-2.903 6.58-4.355 7.935-1.451 1.354-1.451 1.451-.967 3.193-16.16 6.289-27.675-11.128-28.933-22.546-.042-.334.007-.672.144-.979.136-.307.354-.571.63-.763z" fill="#33a2be"/><path d="m195.071 121.565c-.58 1.452-.967 1.549 0 4.161 1.542 3.486 3.457 6.795 5.709 9.87 1.355 1.742 2.129 1.742 0-3.58-2.128-5.322-2.612-6.58-3.193-8.999-.58-2.419-1.548-4.258-2.516-1.452z" fill="#2b98b3"/><path d="m233.196 123.694c-3.274 4.605-7.297 8.628-11.902 11.902-3.677 2.516-2.419 1.161-.774-1.742s4.645-4.354 8.032-7.547c3.386-3.193 7.45-6.483 4.644-2.613z" fill="#319bb5"/><path d="m245.872 127.176c.046.206.024.422-.063.614-.088.192-.235.35-.421.451-8.902 4.935-21.578 11.128-26.126 12.676s-1.839 0 3.87-3.774 15.482-9.87 18.579-11.708c3.096-1.839 3.096-2.226 4.161 1.741z" fill="#33a2be"/><path d="m225.842 114.693c4.548.774 7.064.774 0 4.935s0-4.935 0-4.935z" fill="#1e6470"/><path d="m213.261 100.277-.968 4.064-2.225.29 1.451-3.096.097-2.1292z" fill="#90423b"/><path d="m220.227 104.05-2.613.387c.968 1.452 2.129 1.258 2.613-.387z" fill="#5e221d"/><path d="m210.551 103.083-2.612-.775c.29 1.742 1.451 2.129 2.612.775z" fill="#5e221d"/><path d="m218.49 104.536c-.428 0-.775-.606-.775-1.355 0-.748.347-1.354.775-1.354.427 0 .774.606.774 1.354 0 .749-.347 1.355-.774 1.355z" fill="#201e2f"/><path d="m209.102 102.795c-.427 0-.774-.607-.774-1.355s.347-1.355.774-1.355c.428 0 .774.607.774 1.355s-.346 1.355-.774 1.355z" fill="#201e2f"/><path d="m206.587 96.4084c-.756.5216-1.468 1.1041-2.129 1.7418-.774 2.1288-1.064 5.1288-1.935 7.6448-.871 2.515-1.742 6.289-1.355 8.515.387 2.225.097 2.322-1.258 5.128-1.354 2.806-3.87 5.613-2.999 8.999-1.452 2.129-1.065 3.581-.581 5.613s2.032 7.547 5.806 7.354c1.21 1.77 2.939 3.121 4.95 3.867 2.011.745 4.203.848 6.274.294 6-1.549 11.999-5.613 11.225-11.032 2.032-1.548 1.548-5.612 1.355-7.837-.2-2.001.065-4.021.774-5.903.774-1.935.774-3.871.193-7.935.623-1.7 1.109-3.447 1.452-5.225-.897-1.341-1.866-2.634-2.903-3.87l-1.451 3.193c-.656 1.255-1.238 2.547-1.742 3.87-.486-.215-1.025-.282-1.548-.193-.339-.769-.876-1.434-1.556-1.927s-1.479-.796-2.315-.879l-5.806 1.161-.967-2.71c-2.71-.29-4.161-.387-5.032.291-.51-1.564-.577-3.239-.194-4.839.484-1.7413 1.742-5.3216 1.742-5.3216z" fill="#fff"/><path d="m210.553 111.31 2.226-.484c1.161-.29.968-.387 4.064-2.999l-5.806 1.161-.967-2.71c-2.71-.29-4.161-.387-5.032.291-.561-1.555-.628-3.244-.194-4.839.484-1.7413 1.742-5.3216 1.742-5.3216-.756.5216-1.468 1.1041-2.129 1.7418-.774 2.1288-1.064 5.1288-1.935 7.6448-.871 2.515-1.742 6.289-1.355 8.515.387 2.225.097 2.322-1.258 5.128-1.354 2.806-3.87 5.613-2.999 8.999-1.452 2.129-1.065 3.581-.581 5.613s2.032 7.547 5.806 7.354c1.21 1.77 2.939 3.121 4.95 3.867 2.011.745 4.203.848 6.275.294 5.999-1.549 11.998-5.613 11.224-11.032-1.838 5.129-5.709 4.161-5.709 4.161-2.384-.51-4.82-.738-7.257-.677-1.355-2.419-3-4.838-4.451-5.806-2.806-5.515-.678-11.418.774-14.805 1.451-3.387 2.612-6.096 2.612-6.096z" fill="#d6dfff"/><path d="m210.553 111.308c-1.451.291-1.355-.967-1.258-2.322.102-.941.364-1.857.774-2.709l.968 2.709 5.806-1.161c-3.097 2.612-2.903 2.709-4.064 3z" fill="#cad5fc"/><path d="m221.681 102.408-5.516-1.645c.954-.489 2.061-.591 3.088-.285 1.028.307 1.897.998 2.428 1.93z" fill="#cfdeff"/><path d="m212.297 100.278-5.515-1.0649c.427-.3059.912-.5216 1.426-.634.513-.1123 1.044-.1188 1.56-.0192s1.007.3032 1.442.5985c.434.2954.805.6761 1.087 1.1196z" fill="#cfdeff"/><path d="m215.198 105.794-1.839 1.161 2.419-.484c.291 0 .291-.096.194-.483s-.387-.387-.774-.194z" fill="#5e221d"/><path d="m208.231 113.242c-.003.379.134.746.383 1.032.25.285.596.469.972.516 5.903.871 8.419-.677 9.386-1.354.117-.11.205-.247.255-.399.051-.152.063-.314.036-.472v-.194c-3.097 1.065-7.742.581-8.903.387-1.161-.193-.677-.484-.58-.967-.395-.001-.775.149-1.062.418-.288.27-.462.639-.487 1.033z" fill="#de5d70"/><path d="m210.554 114.887c.671-.686 1.382-1.332 2.129-1.935 2.21.235 4.445.038 6.58-.581v.194c.027.158.015.32-.036.472-.05.152-.138.289-.255.399h-.097c-.87.677-3.193 2.032-8.321 1.451z" fill="#b83d50"/><path d="m215.447 87.7111c-1.013-.485-1.14-2.3236-.286-4.1069.854-1.7832 2.367-2.8357 3.379-2.3507 1.013.4849 1.14 2.3236.286 4.1068s-2.367 2.8357-3.379 2.3508z" fill="#ff9ccd"/><path d="m215.101 83.635c.871-1.8385 2.419-2.9029 3.386-2.4191.116.0594.218.1414.301.2411.083.0998.146.2152.183.3395-1.645-.0968-.774 1.8385-3.87 1.8385z" fill="#ffebf5"/><path d="m219.264 83.0518c-.023.7762-.221 1.5372-.581 2.2255l-.29.5806c-.387 0-.968-.1935-1.355.2903s-.58 1.2579-1.742 1.4515c-.25-.2096-.444-.4792-.562-.7837-.119-.3046-.158-.6342-.115-.9581h.194c2.032 0 3.29-2.1288 4.451-2.8061z" fill="#ff70b7"/><path d="m225.359 93.9875c-.535 0-.968-.5632-.968-1.2579s.433-1.2579.968-1.2579c.534 0 .967.5632.967 1.2579s-.433 1.2579-.967 1.2579z" fill="#f7d197"/><path d="m230.582 102.408c-.534 0-.967-.564-.967-1.258 0-.695.433-1.2583.967-1.2583.535 0 .968.5633.968 1.2583 0 .694-.433 1.258-.968 1.258z" fill="#f7d197"/><path d="m235.035 33.0262 2.129 6.58 5.128 2.8061z" fill="#179de0"/><path d="m228.359 107.633c-.287 1.508-.675 2.995-1.161 4.451-.097-1.258-.581-2.613-1.355-2.806-.774-.194-.871-2.323-1.838-2.323l1.451-3.193c1.037 1.237 2.006 2.529 2.903 3.871z" fill="#a8c3ff"/><path d="m225.165 133.951c-.141.24-.341.439-.581.581z" fill="#d6dfff"/><path d="m218.391 118.082c-2.419 1.354-3.484 2.225-3.484 4.548 1.517-1.207 2.713-2.769 3.484-4.548z" fill="#d6dfff"/><path d="m207.553 118.469c-2.419 2.419-3.387 4.161-3.483 5.515.984-.359 1.9-.883 2.709-1.548z" fill="#fff"/><path d="m225.842 114.693c-.154 1.516-.58 2.991-1.258 4.355 1.742-1.258 1.742-2.323 1.258-4.355z" fill="#d6dfff"/><path d="m220.038 126.209c-1.451 2.226-4.935 2.226-4.935 2.226 3.193 1.645 4.548 1.742 4.935-2.226z" fill="#d6dfff"/><path d="m204.359 107.92c-.797 1.235-1.17 2.696-1.065 4.161 0 0-2.709-2.322 1.065-4.161z" fill="#c7d3fc"/><path d="m199.91 127.857c-.581 2.032 0 3.87 1.258 4.354-.072-1.53-.503-3.022-1.258-4.354z" fill="#c7d3fc"/><path d="m216.941 99.0192c-2.132-.6298-4.296-1.1466-6.483-1.5482 3.387-.2903 5.419.2902 6.483 1.5482z" fill="#5e221d"/><path d="m223.134 103.471c-.58-.194-1.258-.581-1.838 0z" fill="#5e221d"/><path d="m222.842 104.73c-.387-.484-.871-1.064-1.645-.774z" fill="#5e221d"/><path d="m206.004 99.8917c.58.1933 1.354.2903 1.451 1.1613z" fill="#5e221d"/><path d="m205.423 101.053c.581-.097 1.355-.291 1.839.483z" fill="#5e221d"/><path d="m214.715 103.278c-.143.923-.584 1.773-1.258 2.419-.387.291-.096-.387.484-1.548.581-1.161.968-1.645.774-.871z" fill="#a25751"/><path d="m218.199 111.694c.227-.015.452.042.644.164.191.122.339.302.421.513-3.097 1.065-7.741.581-8.903.387-1.161-.193-.677-.483-.58-.967h.097c2.767.303 5.561.271 8.321-.097z" fill="#d6dfff"/><path d="m204.458 98.1502c.661-.6377 1.373-1.2202 2.128-1.7418 0 0-.774 2.2256-1.354 4.0646l-1.645.967c.208-1.117.499-2.2162.871-3.2898z" fill="#a8c3ff"/><path d="m160.528 115.275h.194c.716.038 1.401.302 1.958.754.556.452.955 1.069 1.138 1.762l3.484 13.063 1.161 1.258c.242.254.421.562.522.898s.121.692.058 1.037l-.29 2.613c-1.064 5.612-.968.484-4.354-.387-3.387-.871-.871-2.806-1.355-4.064-2.179-3.337-3.63-7.096-4.258-11.031l-2.903-5.322c1.5-.478 3.074-.675 4.645-.581z" fill="#244ab0"/><path d="m160.814 116.244c.283.009.559.087.805.226.246.14.454.338.606.576.153.238.245.51.269.791.024.282-.021.565-.131.826-2.129 3.677-8.516 7.838-13.354 9.386s-4.935.29-1.838-3.193c3.096-3.484 6.096-9.193 13.643-8.612z" fill="#242236"/><path d="m149.009 128.048c4.554-1.61 8.688-4.222 12.096-7.645l1.258-1.741c.11-.261.155-.544.131-.826s-.116-.553-.269-.791c-.152-.239-.36-.436-.606-.576s-.522-.217-.805-.226h-.096c-6.484-.484-9.193 3.096-12.193 6.773-.423.658-.909 1.274-1.451 1.839-3 3.483-3.968 5.031 1.935 3.193z" fill="#242236"/><path d="m149.009 128.048h.29c3.429-1.184 6.61-2.988 9.386-5.322l1.936-1.742.484-.58c.472-.506.893-1.057 1.258-1.645.11-.261.155-.544.131-.826-.024-.281-.116-.553-.269-.791-.152-.238-.36-.436-.606-.576-.246-.139-.522-.217-.805-.226h-.871c-.875-.089-1.759-.023-2.612.193-4.161.678-6.387 3.581-8.806 6.58l-.29.484-1.064 1.258c-3.097 3.483-4.065 5.032 1.838 3.193z" fill="#242236"/><path d="m180.846 159.013c-.212-6.554-.018-13.114.581-19.643.387-3.29-.968-1.645-2.322 1.258-1.355 2.903-.581 7.644 0 12.676.58 5.031 1.838 7.934 1.741 5.709z" fill="#152d69"/><path d="m169.234 139.66c.561 5.854.658 11.742.291 17.611-.387 4.645 1.451 1.839 2.709-.677s.29-3.29-.484-7.935-.871-5.902-1.258-8.322c-.387-2.419-1.451-3.773-1.258-.677z" fill="#152d69"/><path d="m164.977 140.531c.097 5.806-1.258 10.257-3.87 10.16-2.083-.143-4.089-.845-5.806-2.032-1.161-.774-.484-.967 1.645-1.935 2.003-1.03 3.704-2.564 4.935-4.451.967-1.742 2.999-5.709 3.096-1.742z" fill="#173275"/><g fill="#7a2f28"><path d="m147.076 118.37 1.161 5.129.968 4.257c0 .097 11.321-7.354 11.321-7.547-.111-.278-.176-.572-.194-.871-.118-.409-.183-.832-.193-1.258-.097-.29-.097-.677-.194-.968v-.871c-.127-1.027-.159-2.063-.096-3.096v-.968c.193-4.451.387-11.031.387-11.031-10.644-.484-14.128 3-14.128 3-.581 9.483.29 11.708.968 14.224z"/><path d="m159.658 116.051c-.031-1.228.213-2.449.716-3.571.502-1.122 1.249-2.117 2.187-2.912 1.548-1.064 1.742-1.741 2.613-3.193.87-1.451 1.258-1.935 1.741-2.516.155-.247.212-.544.158-.831s-.214-.543-.448-.717c-.484-.484-1.451-.677-2.709.097s-3.677 2.806-5.419 3.967-3.484 7.838 1.161 9.676z"/><path d="m159.851 107.92c.194-3.774.871-10.9347.968-12.483.172-1.6069.204-3.2257.096-4.8382-.096-.7741-.096-1.3547-1.161-1.3547-1.064 0-1.741 1.258-2.032 3.6771-.29 2.4191-.387 3.7738-.387 3.7738-.624 1.9303-1.109 3.903-1.451 5.903-.097 2.032 3.967 5.322 3.967 5.322z"/><path d="m156.17 101.824c-.097-3.1928-.871-10.9339-1.064-12.6757-.194-1.7417-.484-2.1288-1.452-2.032-.968.0967-1.935.2903-1.548 5.7091.29 2.8061.29 4.5479.29 4.5479s0 4.7417.097 6.0957c.097 1.355 3.677-1.645 3.677-1.645z"/><path d="m152.687 102.212c-.388-3.3866-1.162-8.6119-1.355-10.1601-.194-1.5482-.581-2.4191-1.645-2.1288-1.065.2903-1.645 1.0644-1.355 3.8705.29 2.8062.484 4.7415.581 5.5156.096.7738.29 5.0318.29 5.0318z"/><path d="m149.591 104.051c-.677-3-1.645-7.4509-1.935-8.9023-.29-1.4515-.677-2.0321-1.742-1.7418-1.064.2903-1.451 1.0644-.967 3.5803.355 1.563.614 3.1468.774 4.7418l.677 4.451z"/></g><path d="m160.139 105.115c-2.322 1.452-4.935 2.032-5.902 3.581-.867 1.095-1.523 2.342-1.936 3.677-.193 1.064-.484.677-1.451-.678-.968-1.354-1.839-2.419-2.226-3.677s.097-2.129 4.064-2.709l7.451-1.064z" fill="#5e221d"/><path d="m157.236 115.663c-.001.261.032.521.097.774.193 1.161.677 3.387 1.064 5.225.097.29 2.129-1.258 2.129-1.451-.111-.279-.176-.573-.194-.871-.118-.41-.183-.832-.193-1.258-.097-.291-.097-.678-.194-.968v-.871c-.08-.642-.113-1.288-.096-1.935.215-1.134.641-2.217 1.257-3.193l-1.257 1.064c-2.42 2.129-2.613 2.419-2.613 3.484z" fill="#91423b"/><path d="m161.298 118.082.677 1.161-.871 1.161c-3.408 3.423-7.541 6.035-12.095 7.645h-.581c9.677-5.129 12.87-9.967 12.87-9.967z" fill="#242236"/><path d="m159.266 97.9562c-.7.053-1.401-.0806-2.032-.387 0 0 1.548-1.8385 2.032.387z" fill="#5e221d"/><path d="m159.559 94.2779c-.588.0808-1.187.0143-1.742-.1935 0 0 1.451-1.0644 1.742.1935z" fill="#5e221d"/><path d="m154.622 97.0843c-.65.2363-1.35.303-2.032.1935 0 0 1.354-1.6449 2.032-.1935z" fill="#5e221d"/><path d="m157.817 101.633c-3.356.003-6.7.392-9.967 1.161-1.839.581-1.742 1.162 1.064.581 2.558-.55 5.142-.97 7.742-1.258 1.548-.193 2.902-.484 1.161-.484z" fill="#5e221d"/><path d="m153.946 92.6329c-.58-.7741-1.354-.0968-1.451.4838s1.258.7741 1.451-.4838z" fill="#5e221d"/></g><g clip-path="url(#e)"><g clip-path="url(#f)"><g mask="url(#q)"><rect height="72.6579" rx="7.70614" stroke="#fff" stroke-width="2.20175" width="129.904" x="31.9256" y="1.10088"/><g clip-path="url(#g)"><rect fill="#f7e5bc" height="74.8596" rx="8.80702" width="132.105" x="30.8247" y="2.20178"/><path d="m27.0498 71.8599v-28.9394c6.0811-2.2654 20.4285 1.5634 27.048 10.7845 7.7913-7.9767 22.8039-8.4872 36.6129 0 3.7056-9.3487 17.5783-16.1448 35.6943-9.5401 1.362-11.0397 21.442-20.6756 36.835-7.7534v42.1807h-129.5073c-1.7699-.0084-3.4648-.7204-4.7163-1.9811-1.2515-1.2608-1.9582-2.9683-1.9666-4.7512z" fill="#6adbc6"/><g fill="#44c9c5"><path d="m79.594 51.6337c-15.0125.0957-27.8397 7.3066-34.0158 26.993h45.1327z"/><path d="m64.105 78.5936h-37.0563v-17.3573c8.9948.9253 25.3059 4.4032 37.0563 17.3573z"/><path d="m45.166 57.8876-10.04-7.3385c3.1672-.351 9.4066 0 10.04 7.3385z"/></g></g><rect height="72.6579" rx="7.70614" stroke="#fff" stroke-width="2.20175" width="129.904" x="31.9256" y="1.10088"/><g clip-path="url(#h)"><path d="m45.9869 70.3916h80.8901c5.1 4.8817 5.353 8.2 5.353 8.2h-92.2924s2.5021-5.4241 6.0493-8.2z" fill="#fafafa"/><path d="m44.0852 73.9675c-.267-.2242-.4456-.5371-.5037-.8823s.0082-.7.187-1.0002c1.1719-1.9463 1.5519-3.4778 4.2124-4.8817 2.6604-1.4039 4.4024-3.095 12.5104-4.1479 1.647-4.2755 1.2986-5.5837 13.5557-6.5409h33.889c5.574.8934 5.954.8934 6.936 4.2117s.95 2.9035 3.864 4.0841c2.914 1.1805 7.443 1.4039 9.185 5.2965.57 1.2762.792 2.2015-2.534 8.4871h-74.6823c-2.3385-1.3411-4.5537-2.8894-6.6195-4.6264z" fill="#cc4f79"/><path d="m70.7861 57.8864c-5.8593 1.021-5.6376 1.021-1.6786 5.7112 3.959 4.6903 8.9949 9.0296 14.6642 11.3588 8.8681 3.6374 16.4693.2234 21.0933-5.2008 6.715-7.8809 9.597-11.8692 3.928-11.8692z" fill="#590942"/><path d="m53.2722 13.5053 2.6288-1.1805c.0168 0 .0329-.0068.0448-.0187.0119-.012.0186-.0282.0186-.0451 0-.017-.0067-.0332-.0186-.0452-.0119-.0119-.028-.0187-.0448-.0187l-2.6288-1.1805c-.0084 0-.0164-.0034-.0224-.0094-.0059-.0059-.0092-.0141-.0092-.0225l-1.1719-2.64827c0-.03191-.0634-.03191-.095 0l-1.1719 2.64827c0 .0319 0 .0319-.0317.0319l-2.6287 1.1805c-.0156.0176-.0242.0403-.0242.0639 0 .0235.0086.0462.0242.0638l2.6287 1.1805h.0317l1.1719 2.6483c.0316.0638.095.0638.095 0l1.1719-2.6483z" fill="#fafafa"/><path d="m127.069 17.2383 1.71-.7658c.032 0 .032-.0638 0-.0638l-1.71-.7658c0-.0084-.004-.0165-.01-.0225s-.014-.0094-.022-.0094l-.76-1.7229c0-.0319-.063-.0319-.063 0l-.761 1.7229h-.031l-1.711.7977c-.031 0-.031.0638 0 .0638l1.711.7658c0 .0084.003.0165.009.0225s.014.0094.022.0094l.761 1.7229h.063l.76-1.7229c.032 0 .032 0 .032-.0319z" fill="#f7d78d"/><path d="m104.106 31.9772c2.28-6.3813 6.271-11.0397 8.171-11.9012 1.901-.8615 1.426.2234-.348 5.6156s-1.805 14.2304-5.099 14.2942-2.724-8.0086-2.724-8.0086z" fill="#2e64e8"/><path d="m108.286 33.6697c1.362-2.744 1.457-4.0841 1.995-6.158.285-1.1168.697-2.6802 1.045-3.9245-1.647 2.9673-4.529 9.572-5.131 11.6778-.601 2.1058.729 1.1167 2.091-1.5953z" fill="#1c4bba"/><path d="m74.0487 32.392c-3.2305-6.7961-8.3931-11.614-10.7685-12.4117-2.3754-.7976-1.7419.3191.7918 6.0623 2.5338 5.7432 3.1672 15.4109 7.1896 15.2514 4.0223-.1596 2.7871-8.902 2.7871-8.902z" fill="#2e64e8"/><path d="m86.0833 14.1742c-3.6908 0-6.6828-3.0141-6.6828-6.7323 0-3.71815 2.992-6.732305 6.6828-6.732305s6.6828 3.014155 6.6828 6.732305c0 3.7182-2.992 6.7323-6.6828 6.7323z" fill="#201e2f"/><path d="m79.7164 9.20021c-.226-1.72961 2.5571-3.52516 6.2164-4.01048 3.6592-.48532 6.8089.52338 7.0349 2.25299s-2.5571 3.52518-6.2164 4.01048c-3.6592.4853-6.8089-.5234-7.0349-2.25299z" fill="#41314a"/><path d="m74.9033 12.8324c6.9045-6.50901 18.2431-7.33858 26.0347-1.6911 7.791 5.6475 6.176 14.4537 4.909 24.1215l-32.9707.9572c-1.3619-5.2647-4.8458-16.8468 2.027-23.3876z" fill="#4d7ae8"/><path d="m72.1149 33.3488 33.3191-.9891c6.113 13.5285 12.194 38.7028-15.266 39.5005-26.1928.7658-24.1658-23.26-18.0531-38.5114z" fill="#4d7ae8"/><path d="m72.1142 33.3487c-1.4253-5.9027-3.0089-14.9961 2.7871-20.516l.6334-.5424h1.742s-.7284 11.3907-.1267 15.9214c.6018 4.5308.3801 5.0094-.9818 5.6156s-2.6288 1.3401-2.3754 7.1471.6018 6.5728-.6651 13.4646c-1.2669 6.8919.4434 11.295 4.0223 14.9323-12.1304-6.477-9.85-23.9619-5.0358-36.0226z" fill="#2e64e8"/><path d="m97.8672 59.4169c-3.6106 4.8817-13.3656 6.126-17.3246.1914-1.9954-2.9673 3.2622-3.1268 8.5831-3.0949s10.6735.2552 8.7415 2.9035z" fill="#3366e0"/><path d="m84.0978 34.0858c-.0846-2.8711 2.0438-5.2642 4.7538-5.3452 2.7101-.0811 4.9756 2.1807 5.0602 5.0517.0846 2.8711-2.0438 5.2642-4.7539 5.3453-2.71.081-4.9755-2.1808-5.0601-5.0518z" fill="#dbe7ff"/><path d="m87.1989 34.7379c-.0519-1.1089.7559-2.0483 1.8043-2.0981 1.0483-.0498 1.9403.8088 1.9922 1.9177.0519 1.109-.7559 2.0483-1.8043 2.0981-1.0483.0498-1.9403-.8088-1.9922-1.9177z" fill="#201e2f"/><path d="m94.3486 24.8956c-2.0587-4.3393-9.6599-3.8926-11.4019.351z" fill="#201e2f"/><path d="m96.2502 43.0494-.9185.3191-.9184.2233-.9185.2233-.9185.1277c-2.4954.3011-5.0261-.0052-7.3796-.8934l-.8868-.351-.8552-.4148-.8551-.4467-.8552-.5105h-.095c-.2719-.1509-.5709-.2458-.8796-.2794-.3087-.0335-.6209-.0049-.9185.0842-.2976.089-.5747.2368-.8152.4346-.2404.1978-.4395.4418-.5856.7178-.193.3655-.2887.7752-.2776 1.189s.1286.8177.341 1.1721c1.0165 1.6581 2.4329 3.0301 4.1173 3.9884 1.6831.9721 3.5437 1.5919 5.4703 1.8222s3.8795.0663 5.7417-.4822c1.8527-.5651 3.5316-1.5975 4.8775-2.9992.4365-.4571.675-1.0701.6632-1.7043-.0119-.6341-.2732-1.2376-.7266-1.6778-.3028-.2786-.6712-.4747-1.0702-.5696-.3991-.0949-.8157-.0856-1.2102.0272z" fill="#400015"/><path d="m97.2642 48.2194c-1.0445.7497-2.1986 1.331-3.4206 1.7229-1.8622.5485-3.8151.7125-5.7417.4822s-3.7872-.8501-5.4702-1.8223c-1.1982-.694-2.2694-1.5897-3.1672-2.6482 1.3864-1.3745 3.0062-2.4876 4.7824-3.2864h.0634l.8868.351c2.3535.8882 4.8842 1.1945 7.3796.8934l.9185-.1277h.095c1.5572 1.1632 2.8167 2.6835 3.674 4.4351z" fill="#590942"/><path d="m80.1596 44.2931-.0951-3.2226c.5368-.133 1.1038-.053 1.5836.2234h.0951l.8551.5105.8552.4467.8551.4148.8868.3509c2.3535.8882 4.8842 1.1946 7.3796.8934l.9185-.1276.9185-.2234.9185-.2233.9185-.3191h.1267c.3093-.0848.6323-.1065.9501-.0638l.0634 1.6592c-6.3028 3.0949-13.429 1.34-17.2296-.3191z" fill="#dbe7ff"/><path d="m95.0454 43.4323.2851-.0638.9185-.3191h.1267c.3093-.0848.6323-.1065.9501-.0638l.0634 1.6592c-.6482.3069-1.3146.5733-1.9954.7976z" fill="#b5cdff"/><path d="m83.675 45.5056c-1.2043-.3016-2.3805-.7072-3.5156-1.2125l-.095-3.2226c.5368-.133 1.1037-.053 1.5836.2234h.095l.8552.5105.8551.4467.3167.1595z" fill="#b5cdff"/><path d="m81.2373 38.4247-4.8775 2.4569c-.0633-2.9674 2.3754-3.3183 4.8775-2.4569z" fill="#3366e0"/><path d="m102.521 44.9615-4.4971-4.4669c3.4211-.0957 4.7821 2.2016 4.4971 4.4669z" fill="#3366e0"/><path d="m99.8271 49.5266c-1.5202 2.1697-3.0722 4.1798-3.0722 4.1798 3.1039-.2553 3.0722-4.1798 3.0722-4.1798z" fill="#3366e0"/><path d="m74.9026 12.8324c6.9045-6.50901 18.2432-7.33858 26.0344-1.6911 3.579 2.5844 5.131 6.0304 5.638 9.9868-4.276 3.3183-4.751-2.4568-6.556-8.4553-6.3982 5.2327-16.0898 5.2965-22.2975.6382l-.2534 5.0731c-.2851 4.9136-3.579 5.488-6.5245 2.8716.3801-3.0949 1.4886-6.0942 3.959-8.4233z" fill="#201e2f"/><path d="m96.34 20.6688c-.8091-.8296-1.1212-1.8425-.6971-2.2624.4242-.4199 1.4241-.0879 2.2333.7416.8091.8296 1.1212 1.8425.697 2.2624-.4241.4199-1.424.0879-2.2332-.7416z" fill="#618aed"/><path d="m65.2441 23.2362c1.7186 2.489 3.2536 5.1017 4.5925 7.8171.7918 1.6592-.0317 1.8825-.2851 3.8926s-.8868 1.0529-1.7103-2.3611c-.8234-3.414-1.2669-4.6264-2.0903-6.477-.8235-1.8506-2.2171-5.3603-.5068-2.8716z" fill="#1c4bba"/><path d="m61.0625 64.6515c1.5519 4.1798 5.6693 13.9432 5.6693 13.9432h12.067c-6.3977-4.4988-11.2436-9.572-13.4289-13.4646-2.1854-3.8926-2.6288-6.2218-4.2758-1.8825-.1836.4477-.1948.9482-.0316 1.4039z" fill="#ba3b66"/><path d="m63.3091 78.5952c-5.796-6.9238-7.6963-9.2849-9.2483-10.1783-1.5519-.8934-4.149-2.2654-1.3619 2.0101 2.7872 4.2755 7.4746 8.1682 7.4746 8.1682z" fill="#ba3b66"/><path d="m103.313 78.5913c4.497-5.488 7.601-10.8483 8.773-13.8156s1.52-3.7012 1.805-2.042c.285 1.6591.919 2.4249.349 4.7221-.571 2.2973-2.439 8.5191-3.611 11.1355z" fill="#ba3b66"/><path d="m121.84 78.5927h1.774c2.027-5.1689 2.85-7.498 2.945-9.221s-1.963 3.9883-4.719 9.221z" fill="#ba3b66"/><path d="m114.462 78.6251h3.738c.981-7.498.981-8.9658.76-11.0716-.222-2.1058-1.267-.2872-2.027 3.4778-.575 2.6066-1.403 5.1501-2.471 7.5938z" fill="#ba3b66"/><path d="m129.472 63.9499c-3.325-5.4242-6.904-8.0724-11.243-10.4654s-4.91-3.765-1.711-4.8499c3.199-1.0848 5.955-.67 9.787.9253 3.832 1.5954 6.556 2.5207 7.728 7.0514 1.172 4.5308-.475 7.2747-4.561 7.3386z" fill="#542113"/><path d="m128.365 58.2682c-2.059-8.7105-3.452-15.3152-4.782-21.2498-1.331-5.9347-2.819-9.3806-.539-10.4335s3.516-.6701 6.525 6.0941c3.008 6.7643 4.339 11.646 5.32 15.1557.982 3.5097 4.276 13.0498-6.524 10.4335z" fill="#542113"/><path d="m132.675 44.6126 1.996-.2872c-1.077-11.5502-1.647-16.4638-1.901-19.7821-.253-3.3183 1.109-3.3821 3.199-3.4778s2.851.7657 3.769 5.1051c.919 4.3393 2.027 11.8692 2.439 14.8366.412 2.9673 1.108 9.7953 1.045 11.965-.063 2.1696-10.547 3.1587-10.547-8.3596z" fill="#542113"/><path d="m142.364 47.5179c-.317-4.4988.348-16.4957.412-18.7292.063-2.2334.855-1.9782 2.755-2.042 1.901-.0638 2.692.7977 2.946 6.0623.253 5.2646.665 10.9759.602 13.6241 1.367 3.7291 1.886 7.7197 1.52 11.6779-.38 4.1797-.919 5.2965-1.679 6.6046-.76 1.3082-5.289 2.7759-11.085 3.3502-5.796.5744-6.334-.2552-8.361-4.1159s1.773-14.2623 1.773-14.2623z" fill="#542113"/><path d="m150.217 61.1074c.855 2.0101 2.534 6.7642 4.181 11.4864-.186 1.6472-.967 3.1682-2.193 4.274s-2.812 1.7195-4.458 1.7245h-16.248c.032-.5424.475-8.2-1.045-12.8584 0 0 17.831-9.0934 19.763-4.6265z" fill="#542113"/><g fill="#4a1a0d"><path d="m130.455 52.1096c3.737 2.393 4.782 3.5417 5.701 5.2008.918 1.6592 1.805 1.8187 5.194 1.8825s3.452.1276 4.403-3.9245c.95-4.0522-.476-5.7751-4.15-5.6156-4.877.1914-13.397 1.1806-11.148 2.4568z"/><path d="m147.526 45.1251h-12.542c3.896-1.7867 9.343-1.5634 12.542 0z"/><path d="m132.733 45.6986c-1.868.67-5.511 2.2334-5.511 2.2334 2.661-3.9564 5.511-2.2334 5.511-2.2334z"/><path d="m130.708 37.2112c-1.932.3829-5.796 1.3401-5.796 1.3401 3.262-3.4778 5.796-1.3401 5.796-1.3401z"/><path d="m140.147 34.4682c-1.805.1595-5.448.6062-5.448.6062 3.516-2.9992 5.448-.6062 5.448-.6062z"/><path d="m147.81 37.2736c-1.489-.2233-4.561-.4786-4.561-.4786 3.421-1.8825 4.561.4786 4.561.4786z"/></g><path d="m114.811 49.5266c2.914 2.2335 7.253 2.6802 11.402 4.8179 4.149 2.1378 4.878 4.4031 6.018 7.53.724 2.0683 1.327 4.1778 1.805 6.3175-2.407-.2552-3.104-1.4677-4.561-4.2436-3.325-5.4241-6.904-8.0724-11.243-10.4654-3.262-1.7548-4.403-2.9673-3.421-3.9564z" fill="#732d1a"/><path d="m130.457 65.7338-.982-1.7868c-.19-.351-.412-.6381-.602-.9572 2.059 2.7759 7.443 3.3502 12.067 3.6693 4.624.319 8.425-1.1806 9.28-5.5518.539 1.2763 2.471 6.2218 4.213 10.8164v6.6685h-22.931c.032-.5425.475-8.2001-1.045-12.8584z" fill="#4a1a0d"/><path d="m123.014 26.5845c-.301 1.1152-.323 2.2882-.063 3.414.601 2.9035 1.963 8.551 4.845 20.165l-1.425-.5424c-1.077-4.7222-1.964-8.8062-2.787-12.6031-1.33-5.8709-2.819-9.3487-.57-10.4335z" fill="#732d1a"/><path d="m132.768 24.5453c.254 3.2863.856 8.3914 1.901 19.7821l.855-.1914-1.394-22.8452c-.981.2871-1.52 1.0529-1.362 3.2545z" fill="#732d1a"/></g></g></g></g><rect fill="#5e87f9" height="72.6579" rx="7.70614" stroke="#fff" stroke-width="2.20175" width="129.904" x="1.10088" y="80.3641"/><g clip-path="url(#i)"><path d="m2.20166 120.641c12.25764-3.373 26.75784 1.083 31.15084 11.047 13.1793-4.239 28.4168 3.62 35.6055 12.873h-66.75634z" fill="#6e94ff"/><path d="m129.896 106.345c-8.018-1.361-17.48.433-20.368 4.456-8.602-1.702-18.5553 1.485-23.2555 5.199h43.6235z" fill="#7a9dff"/><path d="m100.673 149.048c-2.458-5.292-2.3966-5.508-6.7589-7.086l5.8062 8.385z" fill="#ff707e"/><path d="m33.2729 102.384.2765.247.5837.557.215.186.4608.402c10.2608 8.881 23.4093 12.625 32.3183 15.317 11.4896 3.466 21.0437 4.487 28.2017 4.518 9.3081-.093 11.1821-4.982 7.2501-10.799l-2.212-2.754-11.3666-13.9251-.553-.6808c-7.4958-8.9427-14.2237-12.9654-28.386-9.8711l-21.5353 4.7035h-.0614c-7.5266 1.671-11.0595 6.2816-5.1918 12.0995z" fill="url(#a)"/><path d="m58.0628 87.3148c-8.6018 2.1351-23.3478 6.4672-23.3478 6.4672l-3.5636.4951c1.2595-1.8257 3.8708-3.2181 7.3115-3.9917h.0615l21.5352-4.7035c6.6972-1.4543 11.7047-1.2996 15.9441.1547-6.5435-1.5781-10.3529-.3094-17.9409 1.5782z" fill="#fffdc4"/><path d="m66.4811 120.237c-7.5574-2.289-23.7165-8.757-29.9835-15.069 1.4746 1.485.0307-1.176 2.857.216 14.8689 7.303 48.631 17.174 55.9733 18.226-7.1887.434-21.1359-1.052-28.8468-3.373z" fill="#fffdc4"/><path d="m31.5508 93.7807c6.6357-2.0114 21.5967-.1857 38.186 5.0438 17.2958 5.4465 31.0282 12.9655 34.7142 18.5045.43 3.62-2.396 6.22-9.1238 6.281-6.7279.062-16.7121-1.052-28.2017-4.517-8.909-2.692-22.0575-6.437-32.3183-15.317l-.4608-.403-.215-.185-.5837-.557-.2765-.248c-3.41-3.4038-3.6251-6.3744-1.7204-8.6023z" fill="url(#b)"/><path d="m95.4749 119.087c.9691-3.115-11.3045-9.762-27.4138-14.847s-29.954-6.6822-30.9231-3.567c-.9691 3.114 11.3045 9.762 27.4138 14.847 16.1092 5.085 29.954 6.682 30.9231 3.567z" fill="#6b3143"/><path d="m37.2647 101.795c-.1822-.352-.2365-.757-.1536-1.145.0695-.174.1741-.332.3072-.464l16.6199 7.179-12.4726-8.2619c.5423-.031 1.0859-.031 1.6282 0l11.551 7.7669c.6828-.095 1.3755-.095 2.0583 0l-6.3285-6.9933 2.3962.4333 4.8539 6.684c.9831.124 2.1197.34 3.3793.619l-3.625-6.313 2.1504.526 2.3962 6.003 2.2734.619-1.659-5.817c.8602.206 1.7204.454 2.5806.742l.7987 5.508h-.1843l.6144.217 1.7511-4.827 1.9354.65-3.0413 4.363 1.536.526 4.3624-3.93 2.304.835-5.3761 3.559 1.5975.619 6.6664-3.064 2.8263 1.145-8.2639 2.414 1.9354.897 11.7046-.804c.9831.495 1.9354.99 2.7956 1.485h-13.2099l.9216.588 16.067 1.887c.6914.5 1.3206 1.082 1.8739 1.733l-17.1729-2.908c.0531.057.0918.126.1132.201.0214.076.0247.155.0097.232-.0261.067-.0675.127-.1209.176-.0533.048-.1171.083-.1863.102l17.7873 4.456c-.2765.371-.8294.681-1.6282.898l-17.8488-5.199c-.96-.053-1.9149-.177-2.857-.371l14.193 5.724c-.6758-.031-1.4131-.124-2.1812-.216l-13.855-5.88-.4916-.093 8.9091 5.075c-1.3518-.278-2.7649-.557-4.2395-.928l-6.4207-4.58-3.4714-1.021c-1.4746-.464-2.857-.959-4.1166-1.423l-5.4683 1.021c-1.8432-.681-3.5636-1.393-5.1611-2.104l8.3561.154h-.0308l-12.8105-2.228c-1.4439-.742-2.7649-1.454-3.9016-2.135l14.1623 3.157-.9216-.526z" fill="#7a384c"/><path d="m111.518 159.846h-74.4672c1.321-1.362 2.9185-2.197 5.4683-3.373l5.7448-.805 2.1197-.278 4.6081-.65 3.5022-.464 2.089-.279.8909-.124 8.6326-1.175 1.9968-.279 3.2564-.433 1.2903-.186 2.5191-.34.6144-.093 5.5912-.774 13.2714-1.794.6758-.093c.3988-.031.7992-.031 1.1982 0 6.298.155 8.479 2.97 10.998 11.14z" fill="#2347a1"/><path d="m99.32 148.706-.3686.526c-.1229.124-.2151.31-.3687.495l-.3993.526c-.7066.929-1.6897 2.228-2.9185 3.775l-2.8878 3.528-.9523 1.114c-.3379.371-.6452.774-.9831 1.176h-47.4022c-.3686-2.073-.5222-3.373-.5222-3.373-.0045-.323.079-.641.2416-.919.1625-.278.3977-.506.68-.659l4.3009-2.507h.0307v-.309c0-.124-.0307-.217-.0307-.31 0-.092-.0614-.99-.0614-1.361v-.402c-.0225-.185-.0328-.371-.0308-.557-.0155-.04-.0258-.082-.0307-.124l-.1536-2.599c-.0295-.516.0671-1.031.2813-1.501.2143-.469.5396-.878.9475-1.191l5.6834-4.518.4915-.403 1.5975-1.237 3.963-3.126 2.2426-.309h.0307l2.9799-.464h.0308l4.0551-.588 1.1674-.186 3.0106-.464 1.4439-.217h.2458l.7987.124 1.0445.155 2.1198.34c.9253.149 1.8088.493 2.5925 1.011.7836.517 1.4496 1.196 1.9542 1.991l2.3347 3.62.1844.062 1.4438.433 4.8232 1.455.9831.278.6451.248h.0614c1.292.575 2.3379 1.595 2.9492 2.878z" fill="#ef6270"/><path d="m88.108 140.229c-1.1367-2.878-1.7511-6.282-8.9398-7.736l-5.3147-.805.4301 4.363 10.0457 6.684z" fill="#ff707e"/><path d="m99.3223 148.706-.3686.526c-.1229.124-.2151.309-.3687.495l-.3994.526c-.7065.928-1.6896 2.228-2.9184 3.775l-2.8878 3.528-.9523 1.114-1.0138 1.176h-22.2112c.5223-1.857 1.2903-4.642 1.659-6.22.0598-.315.1419-.625.2457-.928.5223-1.95.9524-3.157-2.2733-3.652l.3379-1.702 1.4746-7.519.3687-2.011.3072-1.455.4915-2.475.1229-.65 3.0106-.464 1.4439-.217h.2458l.7987.124 1.0445.155 2.1198.34c.9252.149 1.8088.493 2.5925 1.01.7836.518 1.4496 1.196 1.9541 1.992l2.3348 3.62.1843.062 1.4439.433 4.8232 1.455.9831.278.6451.248h.0614c1.292.574 2.3378 1.595 2.9492 2.877z" fill="#e05164"/><path d="m78.8626 140.662c3.625-2.754 3.3793-2.537 1.3517-3.868-1.2199-.802-2.6305-1.261-4.0859-1.33z" fill="#bd3c53"/><path d="m79.783 151.367-5.9291 8.479h-4.4545c2.427-2.661 4.9768-5.477 7.2501-8.046 3.2257-3.713 5.8984-6.962 6.9122-8.54l-.3072 2.011-.2151 1.424z" fill="#e05164"/><path d="m53.3006 141.528c-4.0244 3.528-6.0212 2.569 3.4715 15.689l2.2733-1.516 6.6357-7.489-8.4175-10.675z" fill="#c74153"/><path d="m54.5309 106.344c.2458-.805 5.6834.124 12.1962 2.073 6.5128 1.95 11.551 4.177 11.336 4.982-1.3518 10.892-1.1367 20.547.7987 27.262l-19.8149 15.038c-8.2946-20.113-5.7755-37.937-4.516-49.355z" fill="#ffb685"/><path d="m63.2563 134.009 7.6802-.123.8295 4.517c-3.0107 3.033-7.4037 1.826-9.6464-.185-2.9492 2.599-5.8369 2.568-7.8645.278l-.0614-.062c-.1843-1.237-.3687-2.475-.4916-3.713 3.1336-.928 9.5542-.712 9.5542-.712z" fill="#fe9b77"/><path d="m70.9355 146.139c-1.9047-13.089-1.4746-28.839-1.2289-36.761 4.9768 1.671 8.5404 3.342 8.3561 4.023-1.3517 10.892-1.1367 20.547.7987 27.261z" fill="#fe9b77"/><path d="m54.5306 106.344c.2458-.805 5.6833.124 12.1961 2.073 6.5129 1.95 11.5511 4.177 11.336 4.982-.1843 1.392-.3379 2.754-.4608 4.116-7.0658-.867-16.8657.247-24.3001 2.537.2457-5.199.7987-9.84 1.2288-13.708z" fill="#a8387e" opacity=".4"/><path d="m61.7793 89.8204-3.6865.7117 1.0752 1.7329z" fill="#ffcd8f"/><path d="m68.0883 128.063c.4387-.79.3381-1.688-.2247-2.005s-1.3747.068-1.8134.858c-.4387.791-.3381 1.689.2247 2.005.5628.317 1.3747-.067 1.8134-.858z" fill="#543247"/><path d="m71.7669 86.1683s-1.9047-.1547-2.7342.4951c.9524 1.114 2.7342-.4951 2.7342-.4951z" fill="#ffd08f"/><path d="m65.6821 86.1374c-4.0551-.9592-4.393 1.1759-4.393 1.1759z" fill="#fffdc4"/><path d="m95.5115 111.386c-.2151 1.486-3.5022 2.445-3.5022 2.445l1.3517 1.052c3.41-.093 4.3009-1.826 4.3009-1.826-.6288-.663-1.3538-1.226-2.1504-1.671z" fill="#d4655b"/><path d="m104.237 117.824c-.553 1.64-7.5879.65-7.5879.65l-.215.835c5.1919.929 7.4349.464 7.4349.464s.307-.495.368-1.949z" fill="#d4655b"/><path d="m78.3414 102.633c-.3994 1.918-2.7342 3.218-2.7342 3.218l-3.8093-1.176c1.0752-1.547 1.536-3.682 1.536-3.682s2.6113.711 5.0075 1.64z" fill="#dc7363"/><path d="m53.1776 159.784-.0921.062h-3.8709c-.3072-1.207-.6451-2.724-.9523-4.178s-.4608-2.506-.5223-3.311v-.309c0-.124-.0307-.217-.0307-.31s-.0614-.99-.0614-1.361v-.403c-.0225-.184-.0328-.37-.0308-.557-.0154-.039-.0258-.081-.0307-.123.7534 2.115 1.6995 4.156 2.8263 6.096 1.0138 1.763 2.0276 3.311 2.7649 4.394z" fill="#d14658"/><path d="m92.931 141.682c-2.3481 3.113-4.8713 6.089-7.5574 8.912-3.1949 3.434-6.5742 6.776-9.2469 9.252h-3.1335c1.6896-2.197 3.9015-5.168 6.1748-8.386 1.3825-2.011 2.7956-4.116 4.0859-6.189.6451-1.021 1.2596-2.042 1.8433-3.032.4915-.836.9523-1.64 1.3824-2.445h.1843l1.4439.433z" fill="#cc4355"/><path d="m82.6387 139.763-9.7999 9.531-1.9047 8.324 10.7523-13.708z" fill="#e65568"/><path d="m58.4624 154.182 20.1836-14.234.3686-.279c.5837-.526 1.0445-.526-.1536.99l-19.8149 15.039z" fill="#bd3c53"/><path d="m108.016 96.5655-2.55-1.1449c-.031 0-.031-.0928 0-.0928l2.55-1.1449h.03l1.137-2.5684c0-.0309.092-.0309.092 0l1.137 2.5684h.031l2.55 1.1449c.03 0 .03.0928 0 .0928l-2.55 1.1449h-.031l-1.137 2.5684h-.092l-1.137-2.5684z" fill="#e5e5e5"/><path d="m20.4926 136.669-2.5498-1.145c-.0163 0-.0319-.007-.0435-.018-.0115-.012-.018-.028-.018-.044 0-.017.0065-.032.018-.044.0116-.011.0272-.018.0435-.018l2.5498-1.145h.0307l1.1367-2.537c0-.062.0614-.062.0922 0l1.1366 2.537h.0308l2.5498 1.145c.0151.017.0235.039.0235.062s-.0084.045-.0235.062l-2.5498 1.145h-.0308l-1.1366 2.537c-.0308.062-.0922.062-.0922 0l-1.1367-2.537z" fill="#5580f9"/><path d="m95.2649 103.837c-4.0858-3.744-7.4959-5.2912-7.4959-5.2912 3.8094.7736 6.5436 2.0422 7.4959 5.2912z" fill="#eb9363"/><path d="m53.7936 87.3133-6.4821 1.4234c.768-1.4853 1.6282-1.7638 6.4821-1.4234z" fill="#fffdc4"/><path d="m65.5279 137.628c-2.6727 0-5.2225-.062-6.0213.619-.7987.681.4608 2.259 2.427 3.744.8601.65 1.2595.712 3.3178-1.114 1.5053-1.3 2.3348-3.28.2765-3.249z" fill="#c74153"/><path d="m64.4227 137.752 2.2427.371c.3072.65-.3687 1.857-1.4132 2.754-2.0583 1.826-2.4577 1.764-3.3178 1.114l-.8909-.743c.3379-.804 1.4131-2.846 3.3792-3.496z" fill="#a82c3c"/><path d="m60.4308 137.875c1.1674-.278 3.1028-.247 5.0996-.247 1.1367-.031 1.3825.588 1.1367 1.331l-6.0827.123c-.3379 0-.2765-.68-.1536-1.207z" fill="#fff"/><path d="m51.5516 134.068c-.6144-1.084-.2764-2.816 1.0446-3.714-.0754.203-.106.42-.0894.636.0165.215.0796.425.185.614.1053.188.2503.351.4249.478.1745.126.3743.212.5854.253.7373.123 2.089-.155 2.6727-.372 1.6282-.619 3.4715-.649 5.6834.495 3.0106-1.64 5.0382-.216 7.7723-.216.7485.008 1.4939-.097 2.2119-.31 2.3041-.68 2.2734-1.794 1.7511-2.97 3.2871.773 3.1335 4.301 1.6896 5.848-.8601 1.083-2.4576 1.578-4.5773 1.052-3.3179 2.847-4.9461 3.033-8.8476.526-3.1643 2.661-6.2056 2.383-8.0182-.959 0 0-1.8432-.155-2.4884-1.361z" fill="#6b3143"/><path d="m62.0569 136.389c-3.1643 2.661-6.2056 2.383-8.0181-.959 0 0-2.8571-.248-2.7956-2.445.3686.867 1.8739 1.702 3.2871 1.393 2.2733 1.856 4.7003 1.299 6.9736-.464 0 0 4.8232 2.599 8.2332-.248 3.9015.959 6.6664-.835 6.2056-3.311.9216 1.393.5222 3.404-.4608 4.456-.8602 1.083-2.4577 1.578-4.5774 1.052-3.3179 2.847-4.9461 3.033-8.8476.526z" fill="#5e2737"/><path d="m58.9735 128.911c.5619-.241.7475-1.074.4147-1.86-.3329-.786-1.0581-1.227-1.6199-.986-.5619.241-.7475 1.074-.4147 1.86.3329.786 1.0581 1.228 1.6199.986z" fill="#543247"/></g><g clip-path="url(#j)"><g clip-path="url(#k)"><g clip-path="url(#l)"><g mask="url(#r)"><path d="m241.092 147.774c0-1.358-1.1-2.458-2.458-2.458h-127.189c-1.358 0-2.458 1.1-2.458 2.458v69.944c0 1.357 1.1 2.457 2.458 2.457h127.189c1.358 0 2.458-1.1 2.458-2.457z" fill="#a8bfff"/><path d="m239.991 148.874c0-1.357-1.1-2.457-2.457-2.457h-124.988c-1.358 0-2.458 1.1-2.458 2.457v67.743c0 1.357 1.1 2.458 2.458 2.458h124.988c1.357 0 2.457-1.101 2.457-2.458z" fill="#a8bfff"/><path d="m185.485 202.974c4.547-13.463 17.358-15.599 23.994-12.225-.922-7.211 8.356-22.16 25.899-13.03h5.714v47.446h-54.993z" fill="#c2d2ff"/><path d="m127.666 203.967c-1.229-3.528-6.759-12.318-18.679-10.832v25.874h45.868c-.123-13.061-14.562-20.148-27.189-15.042z" fill="#c2d2ff"/><g clip-path="url(#m)"><path d="m108.987 227.644h132.105v-30.176h-22.734v23.924h-8.295v-7.521h-18.987l-34.316-16.032h-15.146v-5.323h-7.496v18.972l-3.841-1.238-5.222 5.633h-16.068z" fill="#648ae8"/></g><g fill="#7d2952"><path d="m184.532 164.103c.984 0 1.782-.803 1.782-1.795 0-.991-.798-1.795-1.782-1.795s-1.782.804-1.782 1.795c0 .992.798 1.795 1.782 1.795z"/><path d="m172.366 168.249c.984 0 1.782-.804 1.782-1.795 0-.992-.798-1.795-1.782-1.795s-1.782.803-1.782 1.795c0 .991.798 1.795 1.782 1.795z"/><path d="m156.73 172.459c.984 0 1.782-.804 1.782-1.795 0-.992-.798-1.795-1.782-1.795s-1.782.803-1.782 1.795c0 .991.798 1.795 1.782 1.795z"/><path d="m145.515 174.562c.984 0 1.782-.804 1.782-1.795 0-.992-.798-1.796-1.782-1.796s-1.782.804-1.782 1.796c0 .991.798 1.795 1.782 1.795z"/><path d="m133.319 175.895c.985 0 1.782-.804 1.782-1.795 0-.992-.797-1.795-1.782-1.795-.984 0-1.781.803-1.781 1.795 0 .991.797 1.795 1.781 1.795z"/><path d="m121.735 175.585c.984 0 1.781-.803 1.781-1.795 0-.991-.797-1.795-1.781-1.795-.985 0-1.782.804-1.782 1.795 0 .992.797 1.795 1.782 1.795z"/><path d="m231.844 202.883c.984 0 1.782-.803 1.782-1.795 0-.991-.798-1.795-1.782-1.795s-1.782.804-1.782 1.795c0 .992.798 1.795 1.782 1.795z"/></g><g clip-path="url(#n)"><path d="m238.634 145.316h-129.647v23.924c26.083 6.995 69.34-3.621 93.242-18.694 8.11 39.956 38.863 52.367 38.863 52.367v-55.121c0-.657-.259-1.287-.72-1.751s-1.086-.725-1.738-.725z" fill="#7d2952"/></g><g clip-path="url(#o)" fill="#70254a"><path d="m108.987 145.316v4.859c30.599 17.239 70.876 7.985 87.773-4.859z"/><path d="m241.093 145.316h-26.237c1.014 23.893 11.92 42.556 26.237 52.15z"/></g><path d="m198.541 196.694c-1.536 3.652-4.301 10.646-4.301 10.646l7.036 4.395c2.826-6.654 3.778-10.182 4.239-12.039s.768-3.652-1.628-5.107-3.717-1.733-5.346 2.105z" fill="#f073ab"/><path d="m204.719 207.865-4.209 9.78c-.329.773-.808 1.47-1.41 2.052s-1.313 1.037-2.092 1.337c-.78.3-1.611.44-2.444.411-.834-.03-1.653-.227-2.41-.581l-15.73-7.211 7.834-12.442 9.586 5.385 1.413-4.209c4.946 1.981 7.588 3.714 9.462 5.478z" fill="#f7e5bc"/><path d="m186.435 203.129c6.329 1.052 6.913 2.383 8.602 5.726l-6.789-.774z" fill="#f7e5bc"/><path d="m156.635 150.114c-1.259.395-2.321 1.258-2.972 2.413-.65 1.156-.84 2.517-.531 3.808l6.298 25.905 11.275-2.352-7.588-26.246c-.19-.664-.509-1.283-.94-1.821-.43-.538-.963-.985-1.566-1.313-.604-.329-1.266-.533-1.949-.6-.683-.068-1.372.002-2.027.206z" fill="#d6569b"/><path d="m162.903 176.173 4.455-.185-4.731-15.599c-.066-.224-.177-.433-.325-.612-.149-.179-.333-.326-.541-.43-.207-.105-.434-.165-.666-.177-.231-.013-.463.023-.68.105-.382.146-.696.43-.883.795s-.234.788-.131 1.186z" fill="#e374b0"/><path d="m160.506 175.988c-2.642-10.152-5.223-19.777-6.39-24.11-.498.614-.846 1.337-1.017 2.111s-.159 1.577.034 2.346l4.793 19.746z" fill="#f06ea8"/><path d="m182.723 149.989c1.263.382 2.335 1.235 2.997 2.385.661 1.149.864 2.51.566 3.805l-6.021 25.936-11.306-2.198 7.312-26.338c.184-.666.497-1.289.923-1.831.425-.543.954-.995 1.554-1.329.601-.334 1.262-.544 1.944-.618.683-.074 1.373-.01 2.031.188z" fill="#d6569b"/><path d="m170.464 174.565 1.044 2.074s3.994-17.827 5.868-25.101c-.509.594-.886 1.29-1.106 2.043z" fill="#f06ea8"/><path d="m178.448 176.109-4.424-.155 4.547-15.66c.065-.224.176-.432.325-.611.15-.178.334-.323.543-.425.208-.102.436-.159.667-.167.232-.008.462.032.677.12.381.14.697.416.889.775.193.359.248.777.156 1.174z" fill="#e374b0"/><path d="m184.519 174.026-32.568 1.375c-4.662.197-8.283 4.164-8.087 8.861l.011.281c.196 4.696 4.133 8.344 8.795 8.147l32.568-1.375c4.662-.197 8.283-4.164 8.087-8.86l-.011-.281c-.196-4.697-4.134-8.345-8.795-8.148z" fill="#f06ea8"/><path d="m156.603 222.474c-1.904-1.795-3.779-3.466-4.178-4.116s.277-.867 1.229-1.207c.952-.341 1.813.835 2.796 2.847s1.904 4.085.153 2.476z" fill="#f2c591"/><path d="m191.075 213.87-1.843 5.88-.246.743-2.274 7.18h-42.273c-.4-1.578.092-1.888 1.167-3.652s.522-1.3.676-5.571c.123-3.002 1.198-5.787 5.038-9.254 1.168-1.021 1.444-1.423 2.643-2.538l.368-.34.185-.186.245-.185 28.879-4.581 5.807 9.749z" fill="#f7e5bc"/><path d="m188.249 213.902c1.782-4.797 1.844-5.199 2.458-3.807.615 1.393.983 1.3-1.966 5.2s-1.26.681-.492-1.393z" fill="#e8c282"/><path d="m189.234 219.75c-.184 2.817-.43 5.478-.737 7.923h-31.06c.031-1.269.061-2.847.123-4.766-.005-.207.005-.414.031-.619v-2.383c-.215-5.664-1.813-9.533-6.268-10.709.83-.835 1.69-1.671 2.642-2.538l.369-.34.43-.371 28.879-4.581c2.273.836 3.779 1.424 5.499 3.188.185 2.228.277 4.426.307 6.561.031 3.002-.061 5.881-.215 8.635z" fill="#1f3a70"/><path d="m183.641 201.366-.399.062-.4.402c-1.474 6.221-4.577 12.721-4.577 12.721s.153 1.578 2.304-1.486c2.15-3.064 3.994-6.685 4.915-10.09z" fill="#172e5c"/><path d="m157.989 205.976c5.591 6.778 7.496 8.295 9.554 9.687 2.059 1.393.338-.68-1.812-3.899-2.151-3.219-4.67-7.212-4.67-7.212z" fill="#172e5c"/><path d="m160.201 209.908s-.276.557-1.475 1.393c-1.198.836-1.536 1.207-1.659.928-.468-.977-1.147-1.837-1.986-2.517-.84-.68-1.819-1.162-2.868-1.413.799-.805 1.69-1.64 2.642-2.538 4.302 1.857 5.346 4.147 5.346 4.147z" fill="#244ab0"/><path d="m181.092 201.366-5.837 22.005-14.931-21.355z" fill="#d4bf9b"/><path d="m178.359 211.674-9.954-2.631c-1.782-.464-.891.155 0 1.269s6.206 7.211 7.896 9.161z" fill="#ccac89"/><path d="m163.579 205.544 13.641 1.826c1.536.186 1.567-1.486 2.365-4.735l-14.716 1.083z" fill="#cf518a"/><path d="m186.46 189.115-33.518 1.35c-4.411.178-7.844 3.925-7.668 8.369l.001.013c.176 4.444 3.895 7.902 8.307 7.725l33.518-1.351c4.411-.178 7.844-3.925 7.668-8.369l-.001-.012c-.176-4.444-3.895-7.903-8.307-7.725z" fill="#f06ea8"/><path d="m186.991 204.958c4.301-.186 7.834-3.683 7.834-8.016.014-1.576-.433-3.121-1.285-4.442-.853-1.321-2.073-2.359-3.508-2.986 1.081-.83 1.946-1.911 2.524-3.15s.85-2.601.794-3.968v-.279c-.047-1.118-.313-2.216-.782-3.23-.469-1.015-1.132-1.926-1.951-2.682s-1.778-1.342-2.822-1.724c-1.044-.383-2.153-.554-3.262-.504l-29.063 1.238c-2.612 5.045-2.243 10.461-.308 14.361.283.59.442 1.233.468 1.887.027.655-.08 1.308-.314 1.92-2.796 7.49.891 12.906.891 12.906z" fill="#e05fa3"/><path d="m163.522 189.783c.739-.487.78-1.74.092-2.798-.687-1.058-1.843-1.522-2.581-1.035-.739.487-.78 1.739-.092 2.797.687 1.059 1.843 1.522 2.581 1.036z" fill="#1b1926"/><path d="m178.08 187.474c.32-1.152-.057-2.265-.842-2.486-.784-.221-1.679.535-1.999 1.687-.319 1.153.058 2.266.842 2.486.785.221 1.68-.534 1.999-1.687z" fill="#1b1926"/><path d="m149.081 190.47c-1.813-.681-2.274-.897-3.533-1.3.814 1.131 1.89 2.044 3.134 2.662l-.369.31c.837.085 1.678.126 2.519.123 1.751-.062 2.058-.309-1.751-1.795z" fill="#e05fa3"/><path d="m149.687 180.488c1.356-1.242 2.066-2.68 1.586-3.211-.479-.531-1.967.046-3.322 1.288-1.356 1.243-2.066 2.68-1.586 3.211s1.967-.045 3.322-1.288z" fill="#f792c0"/><path d="m147.513 223.308c2.58-1.053 3.471-1.486 4.331-1.796.861-.309.123-.649-1.843-1.516s-2.427-1.176-2.55.526-.768 3.126.062 2.786z" fill="#fad596"/><path d="m158.329 222.381c.829-4.457.737-5.664 1.106-5.756.368-.093 1.075 1.021 1.751 2.414.676 1.392-2.857 3.342-2.857 3.342z" fill="#172e5c"/><path d="m166.744 193.506c2.027 3.467 5.007 4.272 7.004-.216.024-.04.036-.086.034-.133-.001-.047-.015-.092-.041-.131-.025-.039-.061-.069-.104-.088-.042-.019-.089-.026-.135-.02l-6.543.186c-.045.005-.087.021-.124.046s-.067.059-.088.099c-.021.039-.033.083-.033.128-.001.045.01.089.03.129z" fill="#751b40"/><path d="m160.754 190.502c1.413-2.724 4.147-1.578 4.147-1.578l-1.351 3.033z" fill="#e05fa3"/><path d="m174.579 188.274c2.827-1.145 4.178 1.516 4.178 1.516l-2.98 1.424z" fill="#e05fa3"/><path d="m170.83 193.01-3.871.093c-.045.005-.087.021-.124.047-.037.025-.067.058-.088.098s-.033.084-.033.128c-.001.045.01.09.03.13 1.751 2.971 4.178 3.992 6.113 1.392-.48-.813-1.184-1.469-2.027-1.888z" fill="#9c2455"/><path d="m193.872 208.238s1.997 4.89 2.672 6.839c.676 1.95-.276 1.734-1.351 1.579-1.076-.155-1.168-1.579-1.321-4.147-.154-2.569-.615-5.509 0-4.271z" fill="#fad596"/><path d="m195.993 206.935c.307 2.105 1.382 4.054 1.597 4.58.215.527 1.813.186 3.195-.154 1.383-.341.523-.836-1.167-2.26-1.69-1.423-3.902-3.868-3.625-2.166z" fill="#fad596"/><path d="m133.748 218.358-2.058-.928c-.031 0-.031-.062 0-.062l2.058-.928.922-2.074h.092l.921 2.074 2.059.928c.031 0 .031.062 0 .062l-2.059.928-.921 2.074h-.092z" fill="#3366e0"/><path d="m199.709 176.545-.952-.433c-.031 0-.031-.031 0-.031l.952-.434.43-.99h.062l.43.99.983.434-.983.433-.43.959c-.031.031-.031.031-.062 0l-.43-.959z" fill="#fafafa"/><path d="m141.461 164.473-.983-.433.983-.434.43-.99h.031l.43.99h.031l.952.434c.031 0 .031.031 0 .031l-.952.433h-.031l-.43.959c0 .031-.031.031-.031 0l-.43-.959z" fill="#f7e5bc"/><path d="m231.844 145.316h-4.792v82.345h4.792z" fill="#783837"/><path d="m121.4 145.316h-4.793v82.345h4.793z" fill="#783837"/><path d="m231.844 145.316h-4.792v62.729h4.792z" fill="#571e2f"/><path d="m121.4 145.316h-4.793v37.433h4.793z" fill="#571e2f"/><path d="m201.858 161.377c.984 0 1.781-.804 1.781-1.795s-.797-1.795-1.781-1.795c-.985 0-1.782.804-1.782 1.795s.797 1.795 1.782 1.795z" fill="#7d2952"/><path d="m191.631 161.037c.985 0 1.782-.803 1.782-1.795 0-.991-.797-1.795-1.782-1.795-.984 0-1.781.804-1.781 1.795 0 .992.797 1.795 1.781 1.795z" fill="#7d2952"/><path d="m108.987 170.662v3.559c.467 0 .916-.185 1.249-.515s.525-.778.533-1.249c0-.476-.188-.933-.522-1.269-.334-.337-.788-.526-1.26-.526z" fill="#7d2952"/><path d="m204.008 169.023c.984 0 1.782-.804 1.782-1.795s-.798-1.795-1.782-1.795-1.782.804-1.782 1.795.798 1.795 1.782 1.795z" fill="#7d2952"/><path d="m214.853 187.037c.984 0 1.782-.804 1.782-1.795 0-.992-.798-1.795-1.782-1.795s-1.782.803-1.782 1.795c0 .991.798 1.795 1.782 1.795z" fill="#7d2952"/><path d="m221.183 194.309c.984 0 1.782-.804 1.782-1.795 0-.992-.798-1.795-1.782-1.795s-1.782.803-1.782 1.795c0 .991.798 1.795 1.782 1.795z" fill="#7d2952"/><path d="m208.437 177.348c.984 0 1.782-.803 1.782-1.795 0-.991-.798-1.795-1.782-1.795s-1.782.804-1.782 1.795c0 .992.798 1.795 1.782 1.795z" fill="#7d2952"/><path d="m223.58 203.159h-1.228v2.43h1.228z" fill="#5177d6"/><path d="m236.606 211.145h-1.229v2.43h1.229z" fill="#5177d6"/><path d="m226.04 213.097h-1.229v2.43h1.229z" fill="#5177d6"/><path d="m144.377 206.72h-1.229v2.43h1.229z" fill="#5177d6"/><path d="m142.196 191.402h-8.663v1.124h8.663z" fill="#8f80cf"/></g></g><rect height="72.6579" rx="7.70614" stroke="#fff" stroke-width="2.20175" width="129.904" x="110.088" y="146.417"/></g></g></g></svg>