<svg fill="none" height="80" viewBox="0 0 88 80" width="88" xmlns="http://www.w3.org/2000/svg"><g fill="#5ae6dc"><path d="m83.0026 1.0838c0-.598564-.4853-1.0838-1.0838-1.0838-.5986 0-1.0838.485236-1.0838 1.0838v1.10187c0 .59857.4852 1.08381 1.0838 1.08381.5985 0 1.0838-.48524 1.0838-1.08381z"/><path d="m83.0026 9.81427c0-.59857-.4853-1.0838-1.0838-1.0838-.5986 0-1.0838.48523-1.0838 1.0838v1.10183c0 .5986.4852 1.0838 1.0838 1.0838.5985 0 1.0838-.4852 1.0838-1.0838z"/><path d="m86.9162 7.10511c.5986 0 1.0838-.48524 1.0838-1.08381 0-.59856-.4852-1.0838-1.0838-1.0838h-1.1019c-.5985 0-1.0838.48524-1.0838 1.0838 0 .59857.4853 1.08381 1.0838 1.08381z"/><path d="m78.1857 7.04505c.5986 0 1.0838-.48524 1.0838-1.0838 0-.59857-.4852-1.08381-1.0838-1.08381h-1.1018c-.5986 0-1.0838.48524-1.0838 1.08381 0 .59856.4852 1.0838 1.0838 1.0838z"/></g><path d="m8.36261 75.843 3.12339-1.0417c.1534-.0703.2834-.1832.3745-.3252.0911-.1421.1395-.3073.1395-.4761s-.0484-.334-.1395-.4761c-.0911-.142-.2211-.2549-.3745-.3252l-3.12339-1.0417c-.21336-.0964-.38423-.2673-.48054-.4808l-1.12123-3.1251c-.05266-.1603-.15458-.2999-.2912-.3989-.13662-.0989-.30098-.1522-.46965-.1522-.16866 0-.33301.0533-.46963.1522-.13662.099-.23854.2386-.2912.3989l-1.12123 3.1251c-.09631.2135-.26718.3844-.48054.4808l-3.123433 1.0417c-.153355.0703-.283314.1832-.374423.3252-.0911093.1421-.139534.3073-.139534.4761s.0484247.334.139534.4761c.091109.142.221068.2549.374423.3252l3.123433 1.0417c.11344.0344.21664.0963.30046.1802.08382.0838.14567.1871.18008.3006l1.12123 3.1251c.05266.1603.15458.2999.2912.3989.13662.0989.30097.1522.46963.1522.16867 0 .33303-.0533.46965-.1522.13662-.099.23854-.2386.2912-.3989l1.12123-3.1251c.03441-.1135.09627-.2168.18008-.3006.08382-.0839.18702-.1458.30046-.1802z" fill="#ffd01a"/><path d="m64.5632 25.5039h-41.1264c-1.8981 0-3.4368 1.5387-3.4368 3.4368v30.6451c0 1.8981 1.5387 3.4368 3.4368 3.4368h41.1264c1.8981 0 3.4368-1.5387 3.4368-3.4368v-30.6451c0-1.8981-1.5387-3.4368-3.4368-3.4368z" fill="#ffd836"/><path d="m44 47.6799-24-15.6096v4.5312l22.4832 14.592c.4488.3005.9767.4609 1.5168.4609s1.068-.1604 1.5168-.4609l22.4832-14.592v-4.5312z" fill="#ffb713"/><path d="m63.5 33c4.6944 0 8.5-3.8056 8.5-8.5s-3.8056-8.5-8.5-8.5-8.5 3.8056-8.5 8.5 3.8056 8.5 8.5 8.5z" fill="#4f81ff"/><path d="m62.2002 29.4592c-.4087.0023-.8018-.1563-1.0944-.4416l-3.2832-3.3024c-.2648-.2922-.407-.675-.3973-1.0691.0097-.3942.1706-.7695.4494-1.0483s.6541-.4398 1.0483-.4495.777.1326 1.0692.3973l2.208 2.208 4.896-4.9152c.2912-.2884.6845-.4502 1.0944-.4502.4098 0 .8031.1618 1.0944.4502.2872.288.4485.6781.4485 1.0848 0 .4068-.1613.7969-.4485 1.0848l-6.0096 6.0096c-.1414.1407-.3092.2521-.4937.3279s-.3821.1144-.5815.1137z" fill="#fff"/></svg>