<svg id="pattern" xmlns="http://www.w3.org/2000/svg" viewBox="0 0 3800 1183"><style>.st0{fill:none;stroke:#fff;stroke-width:8;stroke-linecap:round;stroke-linejoin:round;stroke-miterlimit:10}</style><path class="st0" d="M1583.2 1113.3c-6.5-61-58.1-108.6-120.8-108.6-41.7 0-78.5 21.1-100.4 53.1-14.6-9.3-31.8-14.7-50.4-14.7-43.7 0-80.4 29.8-91 70.2h362.6zm314.6-251.8c1.4-5.9 2.2-12.1 2.2-18.4 0-45-36.5-81.5-81.5-81.5-17.9 0-34.3 5.8-47.8 15.6-22.4-61.4-81.3-105.3-150.5-105.3-77.4 0-141.9 54.9-156.9 127.8-7.1-2.8-14.7-4.3-22.8-4.3-34.5 0-62.4 27.9-62.4 62.4 0 1.3.1 2.5.2 3.7h519.5zm-399.1-617.1h119.2M267.5 530.8h350.9c-13.4-15.5-33.2-25.3-55.3-25.3-5.7 0-11.2.7-16.5 1.9-9.9-37.8-44.2-65.7-85.1-65.7-7.5 0-14.7 1-21.6 2.8-27-45.8-76.7-76.6-133.8-76.6-59.1 0-110.4 32.9-136.7 81.5m62.5 111.3c.1-1.5.2-2.9.2-4.4 0-31.9-25.9-57.7-57.7-57.7-14.5 0-27.6 5.3-37.8 14.1-13.6-14.7-33-24-54.6-24-40.3 0-73 32-74.3 72h224.2zm908.2-415.5c-8.3-19.4-27.5-32.9-49.9-32.9-3.2 0-6.3.3-9.4.9-13.6-25.8-40.8-43.5-72-43.5-38.8 0-71.1 27.1-79.4 63.4-8.4 2.4-16.1 6.7-22.6 12.1h233.3zM976.4 861.5c1.4-5.9 2.2-12.1 2.2-18.4 0-45-36.5-81.5-81.5-81.5-17.9 0-34.3 5.8-47.8 15.6C827 715.8 768 671.9 698.9 671.9c-77.4 0-141.9 54.9-156.9 127.8-7.1-2.8-14.7-4.3-22.8-4.3-34.5 0-62.4 27.9-62.4 62.4 0 1.3.1 2.5.2 3.7h519.4zM326.9 633.7s-62.4 0 0 0M27.7 388.9s-62.4 0 0 0M3483.2 1113.3c-6.5-61-58.1-108.6-120.8-108.6-41.7 0-78.5 21.1-100.4 53.1-14.6-9.3-31.8-14.7-50.4-14.7-43.7 0-80.4 29.8-91 70.2h362.6zm314.6-251.8c1.4-5.9 2.2-12.1 2.2-18.4 0-45-36.5-81.5-81.5-81.5-17.9 0-34.3 5.8-47.8 15.6-22.4-61.4-81.3-105.3-150.5-105.3-77.4 0-141.9 54.9-156.9 127.8-7.1-2.8-14.7-4.3-22.8-4.3-34.5 0-62.4 27.9-62.4 62.4 0 1.3.1 2.5.2 3.7h519.5zm-399.1-617.1h119.2M2167.5 530.8h350.9c-13.4-15.5-33.2-25.3-55.3-25.3-5.7 0-11.2.7-16.5 1.9-9.9-37.8-44.2-65.7-85.1-65.7-7.5 0-14.7 1-21.6 2.8-27-45.8-76.7-76.6-133.8-76.6-59.1 0-110.4 32.9-136.7 81.5m62.5 111.3c.1-1.5.2-2.9.2-4.4 0-31.9-25.9-57.7-57.7-57.7-14.5 0-27.6 5.3-37.8 14.1-13.6-14.7-33-24-54.6-24-40.3 0-73 32-74.3 72h224.2zm908.2-415.5c-8.3-19.4-27.5-32.9-49.9-32.9-3.2 0-6.3.3-9.4.9-13.6-25.8-40.8-43.5-72-43.5-38.8 0-71.1 27.1-79.4 63.4-8.4 2.4-16.1 6.7-22.6 12.1h233.3zm-163.7 716.3c1.4-5.9 2.2-12.1 2.2-18.4 0-45-36.5-81.5-81.5-81.5-17.9 0-34.3 5.8-47.8 15.6-22.4-61.4-81.3-105.3-150.5-105.3-77.4 0-141.9 54.9-156.9 127.8-7.1-2.8-14.7-4.3-22.8-4.3-34.5 0-62.4 27.9-62.4 62.4 0 1.3.1 2.5.2 3.7h519.5zm-649.5-227.8s-62.4 0 0 0m-299.2-244.8s-62.4 0 0 0"/></svg>
