<svg fill="none" height="133" viewBox="0 0 222 133" width="222" xmlns="http://www.w3.org/2000/svg" xmlns:xlink="http://www.w3.org/1999/xlink"><linearGradient id="a" gradientUnits="userSpaceOnUse" x1="179.041" x2="185.334" y1="46.8906" y2="63.4076"><stop offset="0" stop-color="#ffc285"/><stop offset="1" stop-color="#db8d6b"/></linearGradient><linearGradient id="b" gradientUnits="userSpaceOnUse" x1="200.627" x2="164.701" y1="56.5418" y2="56.5418"><stop offset="0" stop-color="#d67569"/><stop offset="1" stop-color="#e39e7f"/></linearGradient><clipPath id="c"><rect height="86" rx="4" width="138" x="8" y="38.874"/></clipPath><clipPath id="d"><rect height="37" rx="4" width="64" x="150" y="43.874"/></clipPath><clipPath id="e"><rect height="38" rx="4" width="64" x="150" y="84.874"/></clipPath><rect fill="#fff" height="132" rx="8" width="222" y=".874023"/><path d="m26.604 13.254c0 .296-.1.532-.3.708-.192.176-.436.264-.732.264-.288 0-.532-.088-.732-.264s-.3-.412-.3-.708c0-.304.1-.544.3-.72.2-.184.444-.276.732-.276.296 0 .54.092.732.276.2.176.3.416.3.72zm-.12 7.788c0 .368-.052.68-.156.936-.096.256-.236.464-.42.624-.176.16-.392.276-.648.348-.248.072-.524.108-.828.108-.128 0-.252-.004-.372-.012s-.212-.02-.276-.036l-.216-1.416c.064.016.132.028.204.036.064.008.14.012.228.012.208 0 .368-.052.48-.156.12-.104.18-.3.18-.588v-5.904h1.824zm4.8923-.168-.132-.804c-.272.264-.556.484-.852.66-.288.176-.616.264-.984.264-.552 0-.968-.156-1.248-.468-.28-.32-.42-.768-.42-1.344v-4.188h1.812v3.684c0 .208.048.38.144.516s.252.204.468.204c.176 0 .344-.048.504-.144.168-.096.332-.224.492-.384v-3.876h1.812v5.88zm7.4414-1.812c0 .624-.208 1.1-.624 1.428-.408.328-1.004.492-1.788.492-.472 0-.92-.056-1.344-.168-.416-.112-.776-.248-1.08-.408l.216-1.392c.352.216.724.388 1.116.516.4.12.768.18 1.104.18.256 0 .444-.04.564-.12.12-.088.18-.2.18-.336 0-.072-.016-.136-.048-.192-.024-.056-.072-.108-.144-.156s-.172-.096-.3-.144-.296-.096-.504-.144c-.368-.096-.684-.196-.948-.3s-.484-.228-.66-.372c-.168-.144-.292-.312-.372-.504-.08-.2-.12-.44-.12-.72 0-.552.196-.996.588-1.332s.952-.504 1.68-.504c.4 0 .784.04 1.152.12.368.072.704.176 1.008.312l-.228 1.392c-.32-.176-.652-.312-.996-.408-.336-.096-.648-.144-.936-.144-.208 0-.364.036-.468.108s-.156.164-.156.276c0 .064.012.12.036.168.032.048.084.096.156.144s.172.096.3.144.296.1.504.156c.392.104.72.212.984.324.272.104.492.228.66.372s.288.316.36.516c.072.192.108.424.108.696zm4.4158 1.776c-.144.04-.296.068-.456.084-.152.024-.348.036-.588.036-.312 0-.6-.032-.864-.096s-.492-.168-.684-.312c-.184-.152-.328-.352-.432-.6-.104-.256-.156-.572-.156-.948v-2.532h-.78v-1.476h.78v-1.752l1.8-.288v2.04h1.116l.228 1.476h-1.344v2.244c0 .464.24.696.72.696.152 0 .3-.02.444-.06zm.6179-2.592v-1.728h3.276v1.728zm8.8022 2.22c-.28.176-.572.308-.876.396-.304.08-.636.12-.996.12-.424 0-.812-.068-1.164-.204-.344-.136-.644-.332-.9-.588-.248-.256-.44-.568-.576-.936-.136-.376-.204-.8-.204-1.272 0-.512.076-.96.228-1.344.16-.392.372-.716.636-.972s.572-.448.924-.576c.36-.128.74-.192 1.14-.192.36 0 .68.04.96.12.288.08.548.188.78.324l-.24 1.548c-.232-.144-.452-.252-.66-.324-.2-.072-.42-.108-.66-.108-.376 0-.684.124-.924.372-.232.24-.348.608-.348 1.104 0 .504.128.88.384 1.128.256.24.568.36.936.36.216 0 .432-.032.648-.096.216-.072.448-.188.696-.348zm4.4057.408v-3.684c0-.208-.048-.376-.144-.504-.088-.136-.24-.204-.456-.204-.176 0-.348.048-.516.144-.16.096-.32.224-.48.384v3.864h-1.812v-8.376l1.812-.288v3.516c.248-.24.512-.44.792-.6.28-.168.6-.252.96-.252.552 0 .968.16 1.248.48s.42.768.42 1.344v4.176zm5.0174-7.62c0 .296-.1.532-.3.708-.192.176-.436.264-.732.264-.288 0-.532-.088-.732-.264s-.3-.412-.3-.708c0-.304.1-.544.3-.72.2-.184.444-.276.732-.276.296 0 .54.092.732.276.2.176.3.416.3.72zm-1.944 7.62v-5.88h1.824v5.88zm3.1406 0v-8.376l1.824-.288v8.664zm3.1406 0v-8.376l1.824-.288v8.664zm5.0846-7.62c0 .296-.1.532-.3.708-.192.176-.436.264-.732.264-.288 0-.532-.088-.732-.264s-.3-.412-.3-.708c0-.304.1-.544.3-.72.2-.184.444-.276.732-.276.296 0 .54.092.732.276.2.176.3.416.3.72zm-1.944 7.62v-5.88h1.824v5.88zm6.5127 0v-3.684c0-.208-.048-.376-.144-.504-.088-.136-.24-.204-.456-.204-.176 0-.348.048-.516.144-.16.096-.32.224-.48.384v3.864h-1.812v-5.88h1.596l.132.804c.264-.264.54-.484.828-.66.296-.176.632-.264 1.008-.264.552 0 .968.16 1.248.48s.42.768.42 1.344v4.176z" fill="#060607"/><path clip-rule="evenodd" d="m13.1927 12.7884c-.2055-.0855-.4452-.0385-.6036.1154l-2.3759 2.4838h-1.66097c-.30394 0-.55223.2394-.55223.5258v3.1722c0 .2864.24829.5258.55223.5258h1.66097l2.3759 2.4838c.1584.1539.3981.2009.6036.1154.2055-.0769.3425-.2693.3425-.4873v-8.4518c0-.2053-.1328-.4062-.3425-.4831zm1.4512 1.0174v1.0474c1.524 0 2.7697 1.1885 2.7697 2.6378 0 1.4578-1.2414 2.6462-2.7697 2.6462v1.0474c2.1362 0 3.8742-1.6502 3.8742-3.6979 0-2.0307-1.738-3.6809-3.8742-3.6809zm0 2.1076c.9161 0 1.661.7097 1.661 1.5818 0 .8807-.7449 1.5904-1.661 1.5904v-1.056c.3039 0 .5522-.2394.5522-.5344 0-.2864-.2483-.5258-.5522-.5258z" fill="#b9bbbe" fill-rule="evenodd"/><g clip-path="url(#c)"><path d="m146 38.874h-138v85.981h138z" fill="#a8bfff"/><path d="m87.8987 99.1092c4.7594-14.0737 18.1483-16.3105 25.0873-12.7969-.963-7.5217 8.713-23.134 27.048-13.6082h5.966v49.5649h-57.4466z" fill="#c2d2ff"/><path d="m27.5254 100.114c-1.303-3.6682-7.0733-12.8611-19.5254-11.2966v27.0326h47.9245c-.1219-13.651-15.2281-21.0721-28.3991-15.736z" fill="#c2d2ff"/><path d="m8 124.855h138v-31.5027h-23.749v24.9727h-8.665v-7.851h-19.8238l-35.8704-16.7371h-15.809v-5.5564h-7.8243v19.7915l-4.0084-1.293-5.4654 5.903h-16.7847z" fill="#648ae8"/><path d="m24.7879 116.551h-16.7879v1.774h16.7879z" fill="#7b6eb3"/><path d="m30.9824 124.874 6.2132-6.258h13.5272v6.239z" fill="#6273e3"/><path d="m140.034 122.269h-35.405v2.605h35.405z" fill="#6273e3"/><g fill="#7d2952"><path d="m86.9031 58.4877c1.0262 0 1.8582-.8379 1.8582-1.8715 0-1.0337-.832-1.8716-1.8582-1.8716s-1.8582.8379-1.8582 1.8716c0 1.0336.832 1.8715 1.8582 1.8715z"/><path d="m74.2117 62.8129c1.0262 0 1.8582-.8379 1.8582-1.8715 0-1.0337-.832-1.8716-1.8582-1.8716s-1.8582.8379-1.8582 1.8716c0 1.0336.832 1.8715 1.8582 1.8715z"/><path d="m57.8756 67.2089c1.0263 0 1.8582-.8379 1.8582-1.8716 0-1.0336-.8319-1.8715-1.8582-1.8715-1.0262 0-1.8581.8379-1.8581 1.8715 0 1.0337.8319 1.8716 1.8581 1.8716z"/><path d="m46.1746 69.4068c1.0262 0 1.8582-.8379 1.8582-1.8715s-.832-1.8715-1.8582-1.8715c-1.0263 0-1.8582.8379-1.8582 1.8715s.8319 1.8715 1.8582 1.8715z"/><path d="m33.4168 70.8192c1.0262 0 1.8582-.8379 1.8582-1.8715s-.832-1.8715-1.8582-1.8715c-1.0263 0-1.8582.8379-1.8582 1.8715s.8319 1.8715 1.8582 1.8715z"/><path d="m21.3211 70.4865c1.0262 0 1.8582-.8379 1.8582-1.8716 0-1.0336-.832-1.8715-1.8582-1.8715-1.0263 0-1.8582.8379-1.8582 1.8715 0 1.0337.8319 1.8716 1.8582 1.8716z"/><path d="m136.333 98.9926c1.026 0 1.858-.8379 1.858-1.8716 0-1.0336-.832-1.8715-1.858-1.8715s-1.858.8379-1.858 1.8715c0 1.0337.832 1.8716 1.858 1.8716z"/><path d="m143.433 38.874h-135.433v24.9797c27.2534 7.2986 72.4436-3.7722 97.402-19.5235 8.476 41.7233 40.598 54.6915 40.598 54.6915v-57.5618c0-1.4287-1.149-2.5859-2.567-2.5859z"/></g><path d="m8 38.874v5.0651c31.9614 18.0107 74.0418 8.3492 91.6994-5.0651z" fill="#70254a"/><path d="m146.001 38.874h-27.407c1.068 24.9667 12.458 44.4417 27.407 54.4781z" fill="#70254a"/><path d="m101.563 92.5375c-1.6077 3.8142-4.5025 11.0995-4.5025 11.0995l7.3425 4.613c2.953-6.95 3.954-10.6377 4.436-12.5674.478-1.9329.786-3.8206-1.701-5.356s-3.88-1.8036-5.575 2.2109z" fill="#f073ab"/><path d="m108.003 104.21-4.406 10.198c-1.461 3.384-5.392 4.903-8.7265 3.371l-16.4252-7.538 8.1902-12.9807 10.0098 5.6147 1.4634-4.4091c5.1603 2.0851 7.9273 3.9081 9.8943 5.7441z" fill="#f7e5bc"/><path d="m88.8965 99.264c6.6368 1.096 7.2305 2.489 9.0085 5.97l-7.1118-.795z" fill="#f7e5bc"/><path d="m57.7631 43.8938c-2.7279.8534-4.3261 3.6979-3.6457 6.4906l6.579 27.0419 11.7621-2.4502-7.9109-27.4071c-.8408-2.9188-3.8993-4.577-6.7845-3.6752z" fill="#d6569b"/><path d="m64.3371 71.0974 4.631-.2004-4.9231-16.2975c-.2952-.9826-1.3575-1.503-2.3107-1.1378-.8216.3168-1.2837 1.1992-1.0783 2.0623z" fill="#e374b0"/><path d="m61.8287 70.8967c-2.7761-10.6053-5.4783-20.645-6.701-25.1736-.9981 1.2736-1.4218 2.977-1.011 4.6643l5.0194 20.6257z" fill="#f06ea8"/><path d="m85.0327 43.7616c2.7375.8242 4.3614 3.6493 3.7131 6.4518l-6.2998 27.1097-11.7878-2.324 7.6253-27.488c.8152-2.9317 3.8544-4.6222 6.7492-3.7495z" fill="#d6569b"/><path d="m72.2031 69.4361 1.0912 2.1366s4.1849-18.5957 6.149-26.195c-.5231.598-.9307 1.3156-1.1586 2.1333z" fill="#f06ea8"/><path d="m80.5744 71.0327-4.631-.1519 4.7529-16.3493c.2857-.9858 1.3415-1.5192 2.2979-1.1604.8248.3103 1.2966 1.1863 1.1008 2.0493z" fill="#e374b0"/><path d="m87.6735 86.8582-33.9801 1.4642c-4.8781.2101-8.9989-3.6008-9.2075-8.514l-.0128-.2683c-.2086-4.9132 3.5751-9.0635 8.4533-9.2736l33.9801-1.4643c4.8781-.2101 8.9989 3.6009 9.2075 8.514l.0128.2683c.2054 4.91-3.5784 9.0636-8.4533 9.2737z" fill="#f06ea8"/><path d="m57.7504 119.451c-2.0091-1.862-3.9443-3.624-4.3647-4.309s.2824-.905 1.2934-1.258c1.0109-.352 1.8774.873 2.8915 2.994 1.0142 2.123 2.0026 4.263.1798 2.573z" fill="#f2c591"/><path d="m93.7624 110.474-1.9416 6.132-.2439.776-2.3717 7.492h-44.1568c-.4461-1.622.0835-1.949 1.2131-3.785.9596-1.561.536-1.37.7125-5.837.1219-3.116 1.226-6.035 5.2568-9.659 1.2132-1.073 1.5148-1.496 2.7665-2.66.1219-.113.2439-.226.3658-.336.0706-.061.1412-.126.2118-.191.0738-.068.1509-.136.2279-.207l30.1738-4.7997.0033.0032 6.0752 10.2045z" fill="#f7e5bc"/><path d="m90.7974 110.497c1.8646-4.991 1.9384-5.424 2.5867-3.979s1.0045 1.374-2.0828 5.424c-3.0906 4.053-1.3126.717-.5039-1.445z" fill="#e8c282"/><path d="m91.8207 116.605c-.1798 2.951-.4525 5.731-.7606 8.269h-32.4653c.0417-1.322.0898-2.968.1444-4.978.0064-.204.0128-.411.0192-.621.0129-.43.0193-.853.0193-1.264 0-.42-.0064-.834-.0193-1.238-.1989-5.902-1.8935-9.949-6.5277-11.18.8473-.867 1.7619-1.752 2.7664-2.661.122-.113.2439-.226.3659-.336.1444-.129.292-.262.4429-.394l30.1738-4.8001c2.3781.8953 3.9603 1.5062 5.7639 3.3491.1862 2.317.2825 4.612.3113 6.855.0386 3.116-.0545 6.139-.2342 8.999z" fill="#1f3a70"/><path d="m85.9789 97.4019-.4205.0678c-.2374.2586-.3915.4429-.3915.4429-1.5405 6.4744-4.8075 13.2554-4.8075 13.2554s.1701 1.668 2.4037-1.551c1.9128-2.761 4.1978-6.959 5.1349-10.5085-.6354-.5753-1.2741-1.1442-1.9191-1.7066z" fill="#172e5c"/><path d="m59.1855 102.222c5.8281 7.082 7.8243 8.682 9.9938 10.137 1.9866 1.332.3562-.718-1.9031-4.073-2.2594-3.355-4.8781-7.547-4.8781-7.547z" fill="#172e5c"/><path d="m91.7073 117.336c-.1604 2.641-.3915 5.169-.6643 7.538h-32.4492c.0417-1.322.0898-2.967.1444-4.978.0064-.204.0128-.41.0192-.62.0129-.43.0193-.854.0193-1.264 0-.317-.0064-.627-.0161-.938-.0032-.1-.0032-.2-.0064-.3h.0032c7.0188 1.706 16.2519 4.793 18.3508 5.517l14.4675-4.91z" fill="#172e5c"/><path d="m61.5031 106.33s-.2921.598-1.5501 1.454c-1.258.857-1.5918 1.258-1.7394.967-1.0206-2.04-2.6317-3.446-5.0515-4.089.8344-.86 1.7555-1.733 2.7472-2.651 4.493 1.927 5.5938 4.319 5.5938 4.319z" fill="#244ab0"/><path d="m83.3199 97.3992-6.0816 22.9818-15.6133-22.303z" fill="#d4bf9b"/><path d="m80.4662 108.175-10.3949-2.744c-1.8742-.494-.9275.162 0 1.325.7799.98 6.4667 7.541 8.2351 9.584z" fill="#ccac89"/><path d="m65.0156 101.763s12.6415 1.723 14.259 1.92c1.6174.197 1.6367-1.539 2.4647-4.9489l-15.3533 1.1249z" fill="#cf518a"/><path d="m89.686 101.142-34.9525 1.506c-4.6086.198-8.5015-3.4033-8.7004-8.0417-.1958-4.6417 3.3794-8.5625 7.9847-8.763l34.9525-1.5062c4.6086-.1972 8.5015 3.4036 8.7004 8.0421.199 4.6416-3.3761 8.5658-7.9847 8.7628z" fill="#f06ea8"/><path d="m89.494 101.152c4.4801-.194 8.1612-3.837 8.1869-8.3526.0193-3.5039-2.07-6.468-5.0226-7.7642 2.2145-1.7066 3.5945-4.4315 3.4661-7.4505l-.0129-.2683c-.2054-4.9099-4.3293-8.7241-9.2042-8.514l-30.344 1.3058c-2.7279 5.2591-2.3524 10.9157-.3434 14.9852.6098 1.238.6611 2.67.1765 3.9629-2.9301 7.8352.9339 13.4787.9307 13.4787z" fill="#e05fa3"/><path d="m72.3307 124.874h-19.7501c-.0192-.384-.016-.74.0129-1.07.0032-.026.0064-.048.0064-.074.0128-.11.0257-.213.0417-.317.0289-.197.0706-.384.1187-.562.0321-.11.0674-.22.1059-.323.061-.156.1284-.304.2022-.443.0771-.142.1605-.275.2504-.398.0609-.084.1283-.165.1957-.242.0353-.039.0706-.078.1059-.113.4654-.488 1.0816-.86 1.8325-1.18.9019-.388 1.9032-.482 2.8724-.323.138.022.276.045.414.067 3.8415.624 7.1631 1.138 9.9713 1.872.138.036.2728.078.4011.132.3916.143.7382.34 1.0591.582.0642.049.1252.097.1894.149.0609.052.1219.103.1829.158.061.052.1219.107.1797.165.061.058.1188.117.1765.175.0578.061.1156.119.1733.184.0578.061.1123.123.1701.188.2824.323.5616.672.8473 1.04.0898.117.1701.227.2407.333z" fill="#ff8fb1"/><path d="m64.9798 85.2566c.7767-.5129.8242-1.8231.106-2.9263-.7182-1.1033-1.93-1.5819-2.7068-1.069-.7767.5129-.8241 1.823-.106 2.9263.7182 1.1033 1.9301 1.5819 2.7068 1.069z" fill="#1b1926"/><path d="m80.2017 82.9393c.3317-1.1948-.069-2.352-.8952-2.5847-.8261-.2327-1.7647.5473-2.0965 1.742-.3317 1.1948.0691 2.352.8952 2.5847s1.7648-.5472 2.0965-1.742z" fill="#1b1926"/><path d="m49.8948 86.0504c-1.8999-.7402-2.3781-.9373-3.7132-1.3705 1.0591 1.4675 2.3813 2.3176 3.2896 2.7605-.1348.1002-.2568.2133-.3851.32 1.0334.0711 1.7009.1745 2.638.139 1.8261-.0647 2.1342-.3071-1.8293-1.849z" fill="#e05fa3"/><path d="m50.5034 75.5579c1.4086-1.2923 2.1471-2.7861 1.6494-3.3365-.4978-.5503-2.0432.0512-3.4518 1.3435-1.4087 1.2923-2.1471 2.786-1.6494 3.3364.4977.5503 2.0431-.0511 3.4518-1.3434z" fill="#f792c0"/><path d="m48.2604 120.326c2.6829-1.105 3.6104-1.545 4.5251-1.874.9146-.33.1283-.67-1.9256-1.571-2.054-.902-2.5418-1.242-2.6894.527-.1476 1.768-.7927 3.284.0899 2.918z" fill="#fad596"/><path d="m53.5627 119.405c-4.5958 1.257-4.6407 1.884-4.7594 2.689-.1862 1.271-.0129 1.536 1.7009.243s3.6426-2.389 4.5187-2.777c.8761-.385.4236-.669-1.4602-.155z" fill="#f7d08d"/><path d="m59.5349 119.37c.8794-4.668.7638-5.935 1.1746-6.013.4108-.077 1.1136 1.048 1.8197 2.525.706 1.477-2.9943 3.488-2.9943 3.488z" fill="#172e5c"/><path d="m58.3245 119.828c-1.4698.185-4.2972.224-4.6182 5.046h-1.1232c-.0417-.798.0192-1.461.1765-2.023.0321-.11.0674-.22.1059-.323.061-.156.1284-.304.2022-.443.077-.143.1605-.275.2503-.398.061-.084.1284-.165.1958-.242.0353-.039.0706-.078.1059-.113.4653-.489 1.0815-.86 1.8325-1.18.9018-.388 1.9031-.482 2.8723-.324z" fill="#f278b0"/><path d="m69.1948 124.874c.6579-1.461.8729-2.431-.0835-2.974.6226.233 1.1393.601 1.6111 1.054.061.058.1187.116.1765.174.0578.062.1155.12.1733.185.0578.061.1123.123.1701.187.2824.323.5616.673.8473 1.041.0898.116.17.226.2407.333z" fill="#f278b0"/><path d="m68.3436 89.2115c2.1214 3.617 5.2247 4.438 7.3172-.2263.0835-.1842-.0545-.3944-.2535-.3879l-6.839.2004c-.2087.0065-.3306.236-.2247.4138z" fill="#751b40"/><path d="m62.0664 86.0731c1.4795-2.8574 4.3454-1.655 4.3454-1.655l-1.4153 3.1774z" fill="#e05fa3"/><path d="m76.5059 83.7491c2.9621-1.2121 4.3774 1.5709 4.3774 1.5709l-3.1226 1.4998z" fill="#e05fa3"/><path d="m72.6068 88.678-4.047.1163c-.2054.0065-.3241.2328-.2214.4106 1.8197 3.1062 4.3646 4.1535 6.3737 1.4416-.3563-.6206-.9885-1.3544-2.1053-1.9685z" fill="#9c2455"/><path d="m96.6667 104.6s2.0989 5.082 2.7985 7.147c.6998 2.069-.2856 1.797-1.3992 1.62-1.1136-.181-1.2356-1.633-1.3993-4.322-.1604-2.693-.6386-5.76 0-4.445z" fill="#fad596"/><path d="m98.8719 103.237c.337 2.207 1.4631 4.237 1.6911 4.79s1.874.184 3.338-.184c1.463-.369.549-.876-1.236-2.35-1.781-1.474-4.0659-4.054-3.7931-2.256z" fill="#fad596"/><path d="m33.8543 115.161-2.1438-.96c-.0385-.016-.0385-.071 0-.091l2.1438-.96c.0097-.006.0193-.013.0257-.026l.9532-2.159c.016-.039.0706-.039.0898 0l.9532 2.159c.0064.01.0128.02.0257.026l2.1438.96c.0385.016.0385.071 0 .091l-2.1438.96c-.0097.006-.0193.013-.0257.026l-.9532 2.159c-.016.039-.0706.039-.0898 0l-.9532-2.159c-.0064-.013-.0128-.023-.0257-.026z" fill="#3366e0"/><path d="m102.774 71.5051-1.008-.4525c-.019-.0097-.019-.0323 0-.042l1.008-.4525c.007-.0033.01-.0065.013-.013l.449-1.0149c.007-.0194.032-.0194.042 0l.449 1.0149c.003.0065.007.0097.013.013l1.008.4525c.019.0097.019.0323 0 .042l-1.008.4525c-.006.0033-.01.0065-.013.013l-.449 1.0149c-.006.0194-.032.0194-.042 0l-.449-1.0149c-.003-.0065-.006-.013-.013-.013z" fill="#fafafa"/><path d="m41.9128 58.8955-1.0077-.4525c-.0193-.0097-.0193-.0323 0-.042l1.0077-.4526c.0064-.0032.0096-.0064.0128-.0129l.4493-1.0149c.0097-.0194.0321-.0194.0417 0l.4494 1.0149c.0032.0065.0064.0097.0128.0129l1.0077.4526c.0193.0097.0193.0323 0 .042l-1.0077.4525c-.0064.0033-.0096.0065-.0128.0129l-.4494 1.015c-.0064.0194-.032.0194-.0417 0l-.4493-1.015c-.0032-.0064-.0064-.0129-.0128-.0129z" fill="#f7e5bc"/><path d="m136.337 38.874h-5.007v86h5.007z" fill="#783837"/><path d="m20.9715 38.874h-5.0065v86h5.0065z" fill="#783837"/><path d="m136.337 38.874h-5.007v65.513h5.007z" fill="#571e2f"/><path d="m20.9715 38.874h-5.0065v39.0953h5.0065z" fill="#571e2f"/><path d="m105.028 55.6469c1.026 0 1.858-.8379 1.858-1.8716 0-1.0336-.832-1.8715-1.858-1.8715s-1.858.8379-1.858 1.8715c0 1.0337.832 1.8716 1.858 1.8716z" fill="#7d2952"/><path d="m94.3308 55.2912c1.0263 0 1.8582-.838 1.8582-1.8716s-.8319-1.8715-1.8582-1.8715c-1.0262 0-1.8581.8379-1.8581 1.8715s.8319 1.8716 1.8581 1.8716z" fill="#7d2952"/><path d="m8 65.3374v3.7398c1.02698 0 1.85819-.8372 1.85819-1.8715 0-1.0344-.83121-1.8683-1.85819-1.8683z" fill="#7d2952"/><path d="m107.261 63.6341c1.026 0 1.858-.8379 1.858-1.8715 0-1.0337-.832-1.8716-1.858-1.8716-1.027 0-1.859.8379-1.859 1.8716 0 1.0336.832 1.8715 1.859 1.8715z" fill="#7d2952"/><path d="m118.593 82.4337c1.026 0 1.858-.8379 1.858-1.8715s-.832-1.8716-1.858-1.8716c-1.027 0-1.859.838-1.859 1.8716s.832 1.8715 1.859 1.8715z" fill="#7d2952"/><path d="m125.21 90.0521c1.026 0 1.858-.8379 1.858-1.8715s-.832-1.8715-1.858-1.8715-1.858.8379-1.858 1.8715.832 1.8715 1.858 1.8715z" fill="#7d2952"/><path d="m111.897 72.339c1.026 0 1.858-.8379 1.858-1.8715s-.832-1.8716-1.858-1.8716-1.858.838-1.858 1.8716.832 1.8715 1.858 1.8715z" fill="#7d2952"/><path d="m127.697 99.2932h-1.271v2.5378h1.271z" fill="#5177d6"/><path d="m141.304 107.616h-1.271v2.538h1.271z" fill="#5177d6"/><path d="m130.269 109.65h-1.271v2.537h1.271z" fill="#5177d6"/><path d="m127.062 116.551h-1.271v2.537h1.271z" fill="#5177d6"/><path d="m108.509 117.818h-1.271v2.537h1.271z" fill="#5177d6"/><path d="m44.9525 103.017h-1.2709v2.537h1.2709z" fill="#5177d6"/><path d="m27.4096 117.818h-1.2709v2.537h1.2709z" fill="#5177d6"/><path d="m42.6791 87.0103h-9.0502v1.1733h9.0502z" fill="#8f80cf"/><path d="m119.674 116.551h-6.088v1.774h6.088z" fill="#8f80cf"/></g><g clip-path="url(#d)"><path d="m214 43.874h-64v37h64z" fill="#5e87f9"/><path d="m150 62.3746c5.946-1.5984 12.961.5011 15.094 5.2143 6.385-2.003 13.771 1.7138 17.247 6.0749h-32.341z" fill="#6e94ff"/><path d="m214 55.6281c-3.886-.6443-8.471.2016-9.865 2.1038-4.174-.8079-9 .6911-11.272 2.4501h21.137z" fill="#7a9dff"/><path d="m198.776 75.7778c-1.199-2.4881-1.163-2.5932-3.28-3.3413l2.815 3.9608z" fill="#ff707e"/><path d="m166.125 53.7504c.04.0394.084.0804.129.1198.092.0877.189.1709.283.2557.037.0292.07.0613.107.0906.082.0686.156.1344.223.1928 4.96 4.1858 11.339 5.9624 15.649 7.232 5.565 1.6407 10.198 2.1155 13.672 2.1301 4.503-.0438 5.413-2.3551 3.514-5.0989l-1.08-1.2944-5.503-6.5746c-.089-.1095-.181-.2147-.271-.3214-3.622-4.2296-6.888-6.1231-13.746-4.6635l-10.432 2.2178c-.011.0029-.023.0029-.033.0073-3.645.7875-5.354 2.9527-2.512 5.7067z" fill="url(#a)"/><path d="m178.135 46.6297c-4.169 1.0095-11.312 3.0549-11.312 3.0549l-1.729.2426c.602-.8679 1.867-1.5224 3.543-1.8847.011-.003.023-.003.033-.0073l10.432-2.2178c3.237-.6882 5.669-.6224 7.722.0759-3.178-.7436-5.019-.1519-8.689.7364z" fill="#fffdc4"/><path d="m182.213 62.1747c-3.663-1.0782-11.491-4.1244-14.529-7.1063.711.6983.009-.5596 1.38.0964 7.203 3.4465 23.568 8.1071 27.124 8.6082-3.488.2002-10.248-.4996-13.975-1.5983z" fill="#fffdc4"/><path d="m165.281 49.686c3.218-.9423 10.467-.0906 18.498 2.3785 8.384 2.5772 15.044 6.1246 16.826 8.7383.21 1.7123-1.159 2.9366-4.419 2.9688-3.474-.0146-8.106-.488-13.672-2.1302-4.309-1.2696-10.688-3.0447-15.649-7.232-.067-.0584-.141-.1241-.223-.1928-.037-.0292-.07-.0614-.107-.0906-.093-.0833-.189-.168-.283-.2557-.045-.0394-.089-.0803-.13-.1198-1.658-1.6071-1.763-3.014-.841-4.0645z" fill="url(#b)"/><path d="m196.245 61.626c.469-1.4684-5.477-4.6036-13.28-7.0026-7.802-2.399-14.508-3.1534-14.976-1.685-.469 1.4684 5.477 4.6036 13.28 7.0026 7.802 2.399 14.508 3.1534 14.976 1.685z" fill="#6b3143"/><path d="m168.057 53.4728c-.096-.1972-.122-.3755-.07-.5362.026-.0832.07-.1563.137-.2264l8.058 3.391-6.038-3.9053c.246-.0102.505-.0102.784 0l5.598 3.6701c.226-.0424.569-.0395.999.0014l-3.066-3.296c.372.0584.757.1271 1.152.2001l2.356 3.147c.476.0658 1.028.1666 1.639.3039l-1.751-2.9804c.343.0803.688.1607 1.041.2484l1.15 2.8328c.353.0848.722.1798 1.102.2849l-.8-2.7423c.413.1096.832.2265 1.257.3507l.379 2.6079h-.088c.1.0292.198.0584.299.0891l.849-2.2704c.32.0979.631.1972.943.2995l-1.47 2.0717c.251.0789.499.1593.738.2411l2.115-1.854c.38.1314.755.2629 1.118.3944l-2.611 1.6758c.27.0964.526.1929.774.2893l3.233-1.4406c.469.1827.926.3653 1.363.5464l-4.002 1.1352c.344.1432.664.2849.945.4223l5.659-.3857c.487.2367.941.4748 1.36.7071h-6.4c.17.0964.316.1885.439.2747l7.797.8883c.39.2951.695.5756.903.8313l-8.32-1.3821c.057.0789.077.1504.058.2103-.018.0541-.071.0965-.149.1286l8.619 2.0966c-.141.1855-.409.3287-.791.4266h-.003l-8.643-2.4501c-.377-.0176-.846-.076-1.391-.171l6.889 2.7043c-.335-.0248-.688-.0657-1.059-.1095h-.007l-6.705-2.7686c-.079-.0176-.161-.0366-.243-.0556l4.317 2.4049c-.658-.1271-1.341-.2703-2.054-.434h-.003l-3.11-2.1754c-.537-.1373-1.102-.2966-1.684-.4763-.709-.2177-1.377-.4456-1.992-.675l-2.651.4851c-.884-.3287-1.72-.6633-2.503-.995l4.054.076c-.006-.0029-.013-.0058-.021-.0088l-6.2-1.0563-.003-.0029c-.698-.3433-1.331-.6823-1.88-1.0066l6.855 1.4931c-.165-.0876-.311-.1709-.442-.2513z" fill="#7a384c"/><path d="m204.03 80.874h-36.077c.633-.6326 1.416-1.0227 2.643-1.5911l2.794-.371 1.027-.1388 2.231-.2981 1.688-.2235h.004l1.008-.1344.441-.0585 4.173-.5566.975-.1315 1.573-.2089.622-.0848 1.224-.1621.294-.038 2.706-.3594 6.432-.8576.337-.0468c.201-.0044.39-.0044.575 0 3.044.0789 4.114 1.4157 5.33 5.2611z" fill="#2347a1"/><path d="m198.605 79.4846-1.128 1.3894h-6.594l3.67-3.6145 1.597.8766z" fill="#2a52c2"/><path d="m198.125 75.6142s-.067.0891-.189.2542c-.051.0658-.106.1388-.173.2279-.059.0731-.122.1578-.196.2542-.338.4369-.822 1.0505-1.415 1.7839-.417.5026-.886 1.0622-1.397 1.6597-.148.1739-.303.3521-.459.5333-.158.1782-.315.3594-.48.545h-22.959c-.185-.9687-.259-1.5911-.259-1.5911v-.0044c0-.3082.169-.599.445-.7524l2.092-1.1776v-.0043h.005l-.012-.1505c-.005-.0497-.008-.1008-.008-.1461-.016-.2396-.031-.4559-.038-.6326l-.012-.1929c-.008-.1198-.012-.2089-.017-.263-.004-.0423-.004-.0657-.004-.0657l-.074-1.217c-.032-.4982.189-.9731.589-1.2784l2.777-2.1199.247-.1929.764-.5785 1.92-1.4669 1.097-.1578h.004l1.451-.2162h.017l1.956-.282.57-.0847 1.467-.2119.7-.1037.117-.0161.381.0585.5.0774 1.039.1622c.905.1431 1.703.653 2.199 1.4098l1.125 1.7182h.004l.082.0263h.005l.708.2045 2.332.6765.472.1388c.11.0379.216.0774.314.1154.008 0 .017.0044.024.0073.625.2659 1.137.7451 1.439 1.3514z" fill="#ef6270"/><path d="m192.693 71.6244c-.558-1.3587-.847-2.9717-4.34-3.6584l-2.572-.3769.204 2.0586 4.875 3.1543z" fill="#ff707e"/><path d="m198.126 75.6143s-.067.0891-.19.2542c-.05.0657-.105.1388-.172.2279-.06.073-.122.1578-.197.2542-.337.4368-.821 1.0505-1.415 1.7839-.417.5026-.886 1.0621-1.396 1.6597-.149.1739-.304.3521-.46.5333-.158.1782-.319.3623-.484.5449h-10.767c.252-.8649.625-2.1813.8-2.9308.035-.1548.074-.3009.117-.4397.259-.9234.472-1.4829-1.097-1.7255l.161-.7991.711-3.5561c.005.0043.005 0 .005 0l.184-.938c0-.0044 0-.0044 0-.0073l.142-.6794v-.0044l.236-1.1731v-.0044l.063-.3171 1.468-.2118.699-.1037.118-.0161.381.0584.5.0775 1.039.1621c.905.1432 1.702.6531 2.198 1.4099l1.128 1.7181.082.0263h.004l.709.2046 2.332.6764.472.1388c.11.038.216.0775.314.1154.008 0 .016.0044.024.0074.625.2659 1.137.7451 1.439 1.3514z" fill="#e05164"/><path d="m188.2 71.8205c1.756-1.2959 1.637-1.1951.667-1.8219-.969-.6268-1.99-.6297-1.99-.6297z" fill="#bd3c53"/><path d="m188.648 76.8777-2.864 3.9958h-2.167c1.18-1.2433 2.411-2.5714 3.513-3.7957 1.57-1.7488 2.868-3.2785 3.355-4.0236l-.149.9467-.106.6721z" fill="#e05164"/><path d="m192.351 79.3489c-.41.3857-1.027.8839-1.885 1.5253h-2.691c1.271-.5172 2.931-1.2784 4.013-1.946 1.648-1.0198 1.432-.3858.563.4207z" fill="#e05164"/><path d="m175.817 72.2265c-1.939 1.6685-2.917 1.2243 1.686 7.4102l1.109-.71 3.205-3.54-4.077-5.0376z" fill="#c74153"/><path d="m176.418 55.6158c.113-.3741 2.756.0686 5.902.9891 3.147.9204 5.606 1.9694 5.493 2.3434-.645 5.1457-.551 9.7026.388 12.8715l-9.588 7.1078c-4.028-9.4951-2.801-17.912-2.195-23.3118z" fill="#ffb685"/><path d="m180.653 68.6878 3.708-.0672.408 2.1316c-1.454 1.4391-3.595.8664-4.672-.0774-1.437 1.2141-2.827 1.2038-3.809.1315-.007-.0088-.018-.0205-.028-.0307-.097-.5932-.177-1.179-.244-1.7561 1.525-.4369 4.637-.3317 4.637-.3317z" fill="#fe9b77"/><path d="m184.361 74.4168c-.92-6.1888-.707-13.6224-.586-17.3611 2.414.7889 4.133 1.5793 4.038 1.8934-.645 5.1457-.551 9.7026.388 12.8715z" fill="#fe9b77"/><path d="m176.418 55.6158c.113-.3741 2.756.0686 5.903.9891 3.146.9204 5.605 1.9694 5.492 2.3434-.082.6589-.154 1.3076-.212 1.9461-3.424-.4033-8.18.1169-11.785 1.2009.119-2.4574.396-4.643.602-6.4795z" fill="#a8387e" opacity=".4"/><path d="m179.932 47.8149-1.789.3361.525.8269z" fill="#ffcd8f"/><path d="m182.995 65.8603c.211-.3713.16-.7944-.115-.9451s-.669.0281-.88.3994c-.212.3712-.16.7944.115.9451.275.1506.669-.0282.88-.3994z" fill="#543247"/><path d="m184.766 46.0948s-.913-.0701-1.32.2352c.455.5187 1.32-.2352 1.32-.2352z" fill="#ffd08f"/><path d="m181.821 46.0849c-1.969-.4588-2.135.5508-2.135.5508z" fill="#fffdc4"/><path d="m196.269 58.0002c-.097.7013-1.699 1.1557-1.699 1.1557l.657.4924c1.659-.038 2.083-.8591 2.083-.8591s-.29-.3536-1.041-.789z" fill="#d4655b"/><path d="m200.495 61.0439c-.266.7642-3.669.3054-3.669.3054l-.111.393c2.512.4368 3.602.2177 3.602.2177s.147-.225.178-.9161z" fill="#d4655b"/><path d="m187.953 53.8728c-.189.9059-1.326 1.5107-1.326 1.5107l-1.846-.5581c.52-.7203.747-1.7254.747-1.7254s1.266.3316 2.425.7728z" fill="#dc7363"/><path d="m175.765 80.8476c-.012.0073-.029.019-.039.0263h-1.889c-.138-.564-.306-1.2857-.448-1.9622-.126-.6136-.228-1.1819-.256-1.5632v-.0044c-.004-.0497-.007-.1037-.007-.1505-.005-.0497-.008-.1008-.008-.1461-.016-.2396-.031-.4558-.038-.6326l-.012-.1929c-.008-.1198-.012-.2089-.017-.2629-.004-.0424-.004-.0658-.004-.0658.335.9847.845 1.9957 1.369 2.8811.491.8416.991 1.5706 1.349 2.0732z" fill="#d14658"/><path d="m195.025 72.2979c-.897 1.2054-2.238 2.7219-3.67 4.2209-1.535 1.61-3.17 3.1967-4.468 4.3552h-1.526c.822-1.0271 1.899-2.4282 2.993-3.9578.673-.9424 1.353-1.9344 1.983-2.9147.314-.4822.613-.9658.893-1.4362v-.0044c.237-.3974.46-.7831.668-1.1659.017.0161.039.0234.082.0234h.005l.708.2045z" fill="#cc4355"/><path d="m190.032 71.3933-4.749 4.4999-.922 3.9389 5.216-6.4796z" fill="#e65568"/><path d="m178.318 78.2065 9.789-6.7206.167-.1388c.284-.2469.509-.2396-.073.4719l-9.588 7.1078c-.103-.2396-.198-.4807-.295-.7203z" fill="#bd3c53"/><path d="m202.331 51.0051-1.234-.5391c-.023-.0102-.023-.0409 0-.0497l1.234-.5391c.006-.0029.012-.0073.015-.0146l.549-1.2112c.01-.0219.041-.0219.05 0l.55 1.2112c.003.0059.007.0117.014.0146l1.234.5391c.023.0103.023.041 0 .0497l-1.234.5391c-.005.003-.011.0073-.014.0146l-.55 1.2112c-.01.0219-.041.0219-.05 0l-.549-1.2112c-.005-.0058-.009-.0116-.015-.0146z" fill="#ff99b9"/><path d="m159.924 69.9324-1.233-.5391c-.023-.0103-.023-.0409 0-.0497l1.233-.5391c.006-.0029.012-.0073.015-.0146l.55-1.2112c.01-.0219.041-.0219.05 0l.549 1.2112c.003.0058.008.0117.015.0146l1.234.5391c.022.0102.022.0409 0 .0497l-1.234.5391c-.006.0029-.012.0073-.015.0146l-.549 1.2112c-.01.0219-.042.0219-.05 0l-.55-1.2112c-.004-.0073-.009-.0132-.015-.0146z" fill="#5580f9"/><path d="m196.154 54.4317c-1.975-1.7635-3.636-2.4954-3.636-2.4954 1.856.3667 3.171.9657 3.636 2.4954z" fill="#eb9363"/><path d="m176.067 46.6353-3.151.6662c.371-.694.789-.8211 3.151-.6662z" fill="#fffdc4"/><path d="m181.744 70.3887c-1.284.0088-2.52-.0234-2.915.2995-.398.3229.227 1.0636 1.183 1.7693.405.2995.603.3316 1.607-.5303.727-.6224 1.119-1.5458.125-1.5385z" fill="#c74153"/><path d="m181.219 70.4509 1.085.1724c.15.3141-.189.8781-.685 1.3032-1.005.8606-1.203.8299-1.607.5304-.161-.1183-.307-.2367-.444-.355.167-.374.689-1.3515 1.651-1.651z" fill="#a82c3c"/><path d="m179.273 70.5056c.574-.1271 1.507-.1096 2.47-.1169.548-.0044.673.2747.555.6297-.592.0146-2.72.0658-2.951.0658-.167 0-.128-.3273-.074-.5786z" fill="#fff"/><path d="m174.971 68.7139c-.291-.5201-.126-1.3369.509-1.7547-.135.2951.008.8342.536.9321.351.0643 1.015-.0686 1.292-.1724.796-.2995 1.682-.3112 2.762.2279 1.45-.767 2.44-.092 3.768-.092.363 0 .721-.0555 1.07-.149 1.116-.32 1.089-.8489.848-1.4084 1.588.3725 1.518 2.0322.814 2.7671-.409.507-1.191.7393-2.218.4997-1.605 1.3324-2.4 1.4332-4.28.2352-1.538 1.2696-3.014 1.1264-3.886-.4412-.003 0-.899-.0789-1.215-.6443z" fill="#6b3143"/><path d="m180.069 69.7997c-1.538 1.2696-3.014 1.1264-3.886-.4413 0 0-1.389-.1154-1.35-1.1629.165.412.896.8079 1.586.6574 1.106.8883 2.279.618 3.385-.2074 0 0 2.323 1.2228 3.984-.1286 1.888.4646 3.23-.3915 3.002-1.5574.447.6603.262 1.6012-.221 2.1053-.41.507-1.191.7393-2.218.4996-1.606 1.3325-2.402 1.4333-4.282.2353z" fill="#5e2737"/><path d="m178.578 66.2711c.275-.1151.368-.5094.207-.8805s-.515-.5786-.791-.4634c-.275.1152-.367.5094-.206.8805.161.3712.515.5786.79.4634z" fill="#543247"/></g><g clip-path="url(#e)"><path d="m214 84.874h-64v37.976h64z" fill="#f7e5bc"/><path d="m214 106.097v16.753h-64v-19.81c7.233-6.0811 16.67-1.549 17.311 3.643 8.518-3.113 15.031.083 16.767 4.483 6.497-3.997 13.548-3.755 17.213 0 3.113-4.334 9.848-6.14 12.709-5.069z" fill="#6adbc6"/><path d="m189.312 110.183c7.048.04 13.073 3.431 15.978 12.691h-21.212z" fill="#44c9c5"/><path d="m196.582 122.85h17.418v-8.143c-4.227.425-11.887 2.055-17.418 8.143z" fill="#44c9c5"/><path d="m200.967 119.007h-38.013c-2.403 2.297-2.526 3.843-2.526 3.843h43.372s-1.169-2.539-2.833-3.843z" fill="#fafafa"/><path d="m201.851 120.682c.259-.218.326-.592.151-.882-.556-.919-.733-1.634-1.977-2.294-1.453-.769-2.063-1.464-5.875-1.956-.775-2.01-.62-2.613-6.376-3.075h-15.928c-2.611.432-2.794.432-3.249 1.982-.456 1.551-.456 1.366-1.825 1.918-1.37.552-3.49.669-4.314 2.495-.269.596-.376 1.026 1.184 3.979h35.1c1.338-.746 2.496-1.653 3.109-2.167z" fill="#cc4f79"/><path d="m189.312 113.121c2.746.484 2.651.484.779 2.684-1.873 2.2-4.222 4.254-6.889 5.343-4.163 1.7-7.738.106-9.903-2.44-3.156-3.71-4.519-5.589-1.849-5.589 3.575.002 17.862.002 17.862.002z" fill="#590942"/><path d="m197.536 92.2596-1.234-.5533c-.023-.0105-.023-.042 0-.051l1.234-.5533c.005-.003.011-.0075.014-.015l.55-1.2431c.01-.0225.041-.0225.05 0l.549 1.2431c.003.006.008.012.015.015l1.234.5533c.022.0105.022.042 0 .051l-1.234.5533c-.006.003-.012.0075-.015.015l-.549 1.2431c-.01.0225-.041.0225-.05 0l-.55-1.2431c-.003-.0075-.007-.012-.014-.015z" fill="#fafafa"/><path d="m162.858 94.0269-.81-.3629c-.015-.006-.015-.027 0-.033l.81-.3629c.004-.0015.007-.0045.009-.009l.36-.8158c.006-.015.027-.015.033 0l.36.8158c.001.0045.004.0075.009.009l.81.3629c.014.006.014.027 0 .033l-.81.3629c-.005.0015-.008.0045-.009.009l-.36.8157c-.006.015-.027.015-.033 0l-.36-.8157c-.002-.003-.005-.006-.009-.009z" fill="#f7d78d"/><path d="m173.644 100.957c-1.072-3.0024-2.934-5.2008-3.833-5.6027-.899-.4018-.668.108.17 2.6363.838 2.5294.847 6.6954 2.393 6.7194 1.547.024 1.27-3.753 1.27-3.753z" fill="#2e64e8"/><path d="m171.687 101.736c-.639-1.288-.684-1.9131-.935-2.8878-.133-.5173-.335-1.2611-.494-1.8399.778 1.3976 2.125 4.4997 2.411 5.4807.289 1.02-.339.537-.982-.753z" fill="#1c4bba"/><path d="m187.78 101.147c1.511-3.1969 3.935-5.4658 5.062-5.8421 1.127-.3764.811.1619-.382 2.8596-1.194 2.6975-1.481 7.2355-3.376 7.1575-1.893-.08-1.304-4.175-1.304-4.175z" fill="#2e64e8"/><path d="m182.12 92.5845c1.733 0 3.137-1.4152 3.137-3.161s-1.404-3.161-3.137-3.161-3.138 1.4152-3.138 3.161 1.405 3.161 3.138 3.161z" fill="#201e2f"/><path d="m185.129 90.2536c.107-.8127-1.199-1.6576-2.917-1.887-1.717-.2294-3.197.2435-3.304 1.0563-.106.8128 1.199 1.6576 2.917 1.887s3.197-.2435 3.304-1.0563z" fill="#41314a"/><path d="m187.369 91.9559c-3.239-3.0636-8.572-3.4565-12.229-.8068-3.493 2.5313-2.903 6.796-2.302 11.3429l15.489.45c.639-2.476 2.28-7.921-.958-10.9861z" fill="#4d7ae8"/><path d="m188.678 101.588-15.65-.454c-2.871 6.358-5.728 18.183 7.18 18.558 12.295.357 11.348-10.924 8.47-18.104z" fill="#4d7ae8"/><path d="m188.678 101.589c.682-2.7617 1.426-7.0459-1.308-9.6312-.094-.0884-.197-.1679-.294-.2534l-.817-.024s.349 5.3564.058 7.4783c-.291 2.1223-.183 2.3543.465 2.6483.812.369 1.24.628 1.112 3.353-.127 2.725-.285 3.089.309 6.326.592 3.227-.198 5.306-1.887 7.023 5.696-3.035 4.635-11.251 2.362-16.92z" fill="#2e64e8"/><path d="m176.59 113.848c1.685 2.291 6.272 2.879 8.14.085.933-1.396-1.536-1.472-4.035-1.457-2.497.015-5.026.12-4.105 1.372z" fill="#3366e0"/><path d="m183.019 101.924c.038-1.348-.961-2.4701-2.232-2.507s-2.333 1.026-2.372 2.373c-.038 1.348.961 2.471 2.232 2.508 1.271.036 2.333-1.026 2.372-2.374z" fill="#dbe7ff"/><path d="m181.594 102.241c.025-.518-.353-.957-.843-.98s-.907.378-.932.896c-.024.517.354.956.844.979.49.024.907-.377.931-.895z" fill="#201e2f"/><path d="m178.232 97.6261c.975-2.0439 4.538-1.8355 5.366.1559z" fill="#201e2f"/><path d="m177.337 106.15c.152.044.297.09.436.145l.434.116.431.102c.144.027.291.04.434.064.579.069 1.167.092 1.748-.004.587-.044 1.159-.213 1.717-.412l.417-.165.403-.198.404-.21c.125-.083.256-.162.395-.237l.05-.027c.54-.291 1.213-.086 1.501.459.192.361.166.784-.032 1.111-.469.769-1.145 1.414-1.929 1.864-.779.465-1.658.745-2.559.866-.903.102-1.835.042-2.709-.235-.876-.261-1.686-.753-2.302-1.408-.423-.448-.404-1.156.041-1.581.294-.28.699-.367 1.062-.266z" fill="#400015"/><path d="m176.865 108.576c.485.355 1.032.639 1.612.811.875.277 1.807.337 2.709.235.9-.121 1.78-.4 2.558-.866.562-.323 1.063-.747 1.477-1.243-.768-.738-1.52-1.235-2.24-1.534l-.03.015-.417.165c-.559.2-1.131.37-1.717.412-.581.096-1.169.073-1.747.004-.143-.022-.291-.037-.435-.064l-.046-.011c-.75.554-1.343 1.302-1.724 2.076z" fill="#590942"/><path d="m184.909 106.744.043-1.525c-.246-.051-.508-.024-.747.103l-.049.027c-.14.075-.271.155-.396.237l-.404.21-.403.198-.417.165c-.559.201-1.131.37-1.717.412-.581.096-1.169.074-1.748.005-.142-.023-.29-.038-.434-.065l-.43-.102-.435-.115c-.138-.055-.284-.103-.436-.145l-.058-.017c-.146-.04-.296-.042-.445-.022l-.022.781c2.96 1.445 6.304.633 8.098-.147z" fill="#dbe7ff"/><path d="m177.905 106.329-.131-.034c-.138-.055-.284-.103-.436-.145l-.058-.017c-.146-.04-.296-.042-.445-.022l-.023.781c.31.151.624.271.938.376z" fill="#b5cdff"/><path d="m183.254 107.311c.632-.165 1.195-.367 1.656-.567l.043-1.525c-.245-.051-.507-.024-.747.104l-.049.027c-.14.075-.271.154-.396.237l-.403.21-.155.076z" fill="#b5cdff"/><path d="m184.395 103.977 2.287 1.148c.042-1.391-1.115-1.547-2.287-1.148z" fill="#3366e0"/><path d="m174.394 107.054 2.12-2.103c-1.613-.039-2.251 1.043-2.12 2.103z" fill="#3366e0"/><path d="m175.652 109.201c.725 1.014 1.453 1.963 1.453 1.963-1.463-.126-1.453-1.963-1.453-1.963z" fill="#3366e0"/><path d="m187.368 91.956c-3.239-3.0636-8.571-3.4565-12.228-.8068-1.682 1.2191-2.413 2.8432-2.656 4.7041 2.022 1.549 2.243-1.1622 3.084-3.9843 3.005 2.4667 7.563 2.4877 10.481.3044 0 0 0 0 .125 2.3828.121 2.3168 1.675 2.5792 3.063 1.3556-.178-1.4591-.711-2.8597-1.869-3.9558z" fill="#201e2f"/><path d="m177.309 95.6369c.381-.3904.525-.8692.323-1.0695s-.675-.0461-1.056.3443c-.381.3905-.525.8693-.323 1.0696.202.2002.675.0461 1.056-.3444z" fill="#618aed"/><path d="m191.918 96.842c-1.271 1.8745-1.773 2.9047-2.157 3.677-.384.772.004.874.13 1.82.123.947.409.498.802-1.1.393-1.5988.597-2.1836.979-3.0549.383-.8727 1.045-2.5192.246-1.3421z" fill="#1c4bba"/><path d="m193.869 116.307c-.729 1.965-2.661 6.543-2.661 6.543h-5.669c3.005-2.11 5.288-4.487 6.315-6.327.978-1.751 1.233-2.912 2.01-.872.08.211.084.445.005.656z" fill="#ba3b66"/><path d="m192.822 122.85c2.727-3.25 3.618-4.358 4.352-4.781.734-.422 1.941-1.057.63.951s-3.514 3.83-3.514 3.83z" fill="#ba3b66"/><path d="m174.02 122.85c-2.117-2.567-3.568-5.091-4.117-6.484-.548-1.393-.72-1.741-.851-.957-.13.783-.432 1.134-.173 2.221s1.156 4.002 1.701 5.221h3.44z" fill="#ba3b66"/><path d="m165.313 122.855-.836-.005c-.954-2.436-1.343-3.536-1.378-4.339-.035-.8.915 1.886 2.214 4.344z" fill="#ba3b66"/><path d="m168.782 122.874-1.76-.007c-.459-3.521-.459-4.213-.352-5.202.107-.99.601-.135.958 1.645.352 1.78 1.154 3.564 1.154 3.564z" fill="#ba3b66"/><path d="m161.728 115.97c1.556-2.543 3.238-3.791 5.291-4.909 2.052-1.119 2.305-1.771.789-2.292-1.517-.519-2.794-.306-4.592.437-1.798.742-3.087 1.19-3.632 3.321-.546 2.131.218 3.415 2.144 3.443z" fill="#542113"/><path d="m162.245 113.307c.972-4.1 1.633-7.194 2.259-9.983.625-2.789 1.325-4.419.241-4.9168-1.083-.4979-1.643-.3104-3.066 2.8668-1.423 3.178-2.031 5.478-2.497 7.119-.468 1.643-2.01 6.146 3.063 4.914z" fill="#542113"/><path d="m160.225 106.894-.933-.146c.496-5.425.774-7.7359.89-9.294.116-1.558-.524-1.5895-1.503-1.639-.98-.0495-1.34.3719-1.779 2.4113-.44 2.0407-.952 5.5697-1.134 6.9597-.181 1.388-.528 4.603-.503 5.632.024 1.029 4.961 1.489 4.962-3.924z" fill="#542113"/><path d="m155.672 108.253c.152-2.116-.171-7.751-.197-8.7964-.025-1.0452-.404-.9432-1.29-.9687s-1.265.3824-1.392 2.8551c-.126 2.473-.303 5.149-.278 6.4-.607 1.657-.886 3.517-.708 5.481.177 1.964.43 2.498.784 3.11s2.48 1.3 5.212 1.581c2.733.28 2.967-.12 3.925-1.947.959-1.826-.838-6.697-.838-6.697z" fill="#542113"/><path d="m151.986 114.638c-.404.939-1.204 3.188-1.966 5.393.171 1.585 1.503 2.819 3.121 2.819h7.636c-.014-.242-.227-3.854.486-6.031 0 0-8.372-4.285-9.277-2.181z" fill="#542113"/><g fill="#4a1a0d"><path d="m161.263 110.408c-1.76 1.12-2.237 1.674-2.669 2.443-.433.769-.86.861-2.447.892-1.587.032-1.618.062-2.075-1.844s.224-2.714 1.953-2.644c2.289.092 6.296.556 5.238 1.153z"/><path d="m153.252 107.126h5.881c-1.819-.834-4.381-.731-5.881 0z"/><path d="m160.199 107.391c.868.328 2.593 1.059 2.593 1.059-1.253-1.855-2.593-1.059-2.593-1.059z"/><path d="m161.148 103.408c.91.183 2.73.622 2.73.622-1.534-1.625-2.73-.622-2.73-.622z"/><path d="m156.707 102.117c.853.074 2.57.293 2.57.293-1.65-1.42-2.57-.293-2.57-.293z"/><path d="m153.105 103.432c.712-.093 2.157-.223 2.157-.223-1.619-.876-2.157.223-2.157.223z"/></g><path d="m168.623 109.202c-1.378 1.047-3.41 1.256-5.355 2.259-1.947 1.004-2.294 2.062-2.84 3.537-.345.931-.659 2.179-.844 2.972 1.136-.117 1.454-.69 2.143-2.002 1.557-2.543 3.239-3.791 5.291-4.909 1.526-.829 2.056-1.404 1.605-1.857z" fill="#732d1a"/><path d="m161.263 116.819c.144-.24.293-.52.464-.849.094-.153.187-.301.283-.445 0 0 0 0-.002.001-.961 1.298-3.496 1.581-5.663 1.722-2.167.139-3.965-.547-4.361-2.606-.257.601-1.165 2.918-1.984 5.083v3.125h10.777c-.015-.241-.227-3.852.486-6.031z" fill="#4a1a0d"/><path d="m164.764 98.4192c.12.3839.171.9162.026 1.6028-.285 1.366-.913 4.008-2.278 9.474l.674-.261c.502-2.217.917-4.128 1.317-5.911.621-2.769 1.313-4.3935.261-4.9048z" fill="#732d1a"/><path d="m160.181 97.4541c-.118 1.5506-.396 3.9439-.892 9.3049l-.4-.092.652-10.7439c.462.1425.714.5023.64 1.531z" fill="#732d1a"/><path d="m205.49 113.121 4.72-3.452c-1.493-.151-4.421 0-4.72 3.452z" fill="#44c9c5"/></g></svg>