<svg fill="none" height="97" viewBox="0 0 177 97" width="177" xmlns="http://www.w3.org/2000/svg" xmlns:xlink="http://www.w3.org/1999/xlink"><clipPath id="a"><path d="m15.2588 19.3999h24.4138v19.4h-24.4138z"/></clipPath><clipPath id="b"><path d="m146.483 72.4949h14.5759v12.2526h-14.5759z"/></clipPath><mask id="c" height="15" maskUnits="userSpaceOnUse" width="15" x="134" y="29"><path d="m134.276 29.6104h14.2414v14.2947h-14.2414z" fill="#c4c4c4"/></mask><mask id="d" height="15" maskUnits="userSpaceOnUse" width="15" x="134" y="29"><path d="m134.505 43.7205h14.107c0-1.5868-.116-2.9063-.022-4.6993.125-2.3949-.292-4.7507-1.176-6.357-.856-1.5526-2.003-2.2898-3.113-2.6548-1.598-.5249-3.268-.4748-4.875-.1624-1.658.3223-3.188.6909-4.145 3.6655-.901 2.7977-.776 10.208-.776 10.208z" fill="#e3bf7a"/></mask><mask id="e" height="6" maskUnits="userSpaceOnUse" width="7" x="136" y="37"><path d="m141.17 40.9387c.569-.426 1.542-1.1815 1.386-2.2496-.191-1.3072-1.977-1.4183-2.617-1.4183-.955 0-1.175-.022-2.05-.0159-.253.0012-1.317-.0744-1.468.1587-.153.2356-.171.3344.337 1.0863.199.2942.286.625.294.9839.009.3588-.014.7226-.066 1.0765-.077.542-.349 1.2231.159 1.5185.572.3332 1.522.1062 2.096-.083.683-.2258 1.326-.6067 1.929-1.0571z" fill="#633630"/></mask><rect fill="#18191c" height="97" rx="8" width="177"/><path d="m58.3445 22.2104-.216-1.416h-2.76v-6.864h-1.596v8.28zm5.9987-2.904c0-1.884-1.152-3.012-2.736-3.012-1.572 0-2.724 1.14-2.724 3.024s1.14 3.012 2.712 3.012c1.584 0 2.748-1.14 2.748-3.024zm-1.404.012c0 1.08-.456 1.836-1.344 1.836-.84 0-1.308-.78-1.308-1.848s.456-1.836 1.308-1.836c.864 0 1.344.78 1.344 1.848zm7.5161 2.892v-4.176c0-1.08-.576-1.74-1.656-1.74-.78 0-1.392.42-1.932.936l-.132-.816h-1.224v5.796h1.44v-3.912c.42-.444.876-.732 1.32-.732.528 0 .744.348.744.852v3.792zm3.7467-4.92c.696 0 1.056.504 1.152 1.404h-2.316c.108-.936.588-1.404 1.164-1.404zm2.544 4.332-.168-1.128c-.636.444-1.248.72-1.992.72-.888 0-1.5-.492-1.56-1.62h3.72c0-.084.012-.228.012-.348 0-1.644-.78-2.952-2.52-2.952-1.512 0-2.64 1.14-2.64 3.024 0 2.088 1.212 3.012 2.832 3.012.936 0 1.692-.276 2.316-.708zm14.7339-7.692h-1.608l-1.5 5.844-1.716-5.844h-1.608l-1.716 5.844-1.548-5.928-1.68.3 2.316 8.088h1.5l1.836-6.048 1.836 6.048h1.512zm3.5666 6.684c-.396.384-.864.624-1.356.624-.444 0-.708-.252-.708-.672 0-.552.396-1.044 2.064-1.248zm1.44 1.596v-3.972c0-1.392-.744-1.944-2.244-1.944-.924 0-1.632.204-2.304.468l.18 1.152c.624-.276 1.26-.468 1.932-.468.636 0 .996.24.996.864v.168c-2.34.228-3.492.84-3.492 2.244 0 1.008.66 1.608 1.644 1.608.864 0 1.464-.384 1.932-.876l.12.756zm6.3715 0v-4.176c0-1.08-.576-1.74-1.656-1.74-.78 0-1.3924.42-1.9324.936l-.132-.816h-1.224v5.796h1.44v-3.912c.42-.444.8764-.732 1.3204-.732.528 0 .744.348.744.852v3.792zm2.606-2.82c0-1.272.54-1.884 1.296-1.884.492 0 .768.084 1.128.252v2.484c-.384.492-.792.804-1.32.804-.636 0-1.104-.528-1.104-1.656zm-1.452.084c0 1.956.972 2.856 2.184 2.856.804 0 1.368-.432 1.776-.924l.12.804h1.236v-8.664l-1.44.228v2.796c-.348-.12-.792-.216-1.344-.216-1.344 0-2.532.96-2.532 3.12zm9.085-2.184c.696 0 1.056.504 1.152 1.404h-2.316c.108-.936.588-1.404 1.164-1.404zm2.544 4.332-.168-1.128c-.636.444-1.248.72-1.992.72-.888 0-1.5-.492-1.56-1.62h3.72c0-.084.012-.228.012-.348 0-1.644-.78-2.952-2.52-2.952-1.512 0-2.64 1.14-2.64 3.024 0 2.088 1.212 3.012 2.832 3.012.936 0 1.692-.276 2.316-.708zm4.667-3.9-.228-1.428c-.9.048-1.476.612-1.86 1.284l-.18-1.164h-1.224v5.796h1.44v-3.324c.42-.624 1.152-1.104 2.052-1.164zm3.066-.432c.696 0 1.056.504 1.152 1.404h-2.316c.108-.936.588-1.404 1.164-1.404zm2.544 4.332-.168-1.128c-.636.444-1.248.72-1.992.72-.888 0-1.5-.492-1.56-1.62h3.72c0-.084.012-.228.012-.348 0-1.644-.78-2.952-2.52-2.952-1.512 0-2.64 1.14-2.64 3.024 0 2.088 1.212 3.012 2.832 3.012.936 0 1.692-.276 2.316-.708zm4.667-3.9-.228-1.428c-.9.048-1.476.612-1.86 1.284l-.18-1.164h-1.224v5.796h1.44v-3.324c.42-.624 1.152-1.104 2.052-1.164z" fill="#fff"/><path d="m58.7045 37.7334c0-1.884-1.128-2.988-2.664-2.988-1.524 0-2.628 1.104-2.628 2.988s1.104 2.976 2.628 2.976c1.536 0 2.664-1.092 2.664-2.976zm-1.08 0c0 1.2-.528 2.088-1.584 2.088-1.008 0-1.548-.912-1.548-2.088 0-1.2.516-2.1 1.548-2.1s1.584.924 1.584 2.1zm10.5641 2.856v-4.164c0-1.032-.528-1.68-1.62-1.68-.804 0-1.5.456-2.016.948-.216-.588-.672-.948-1.512-.948-.804 0-1.452.456-1.992.948l-.132-.828h-.852v5.724h1.068v-3.96c.516-.552 1.056-.924 1.62-.924.624 0 .84.396.84.984v3.9h1.068v-3.96c.516-.552 1.056-.924 1.62-.924.624 0 .84.396.84.984v3.9zm4.7932-3.864c0 .684-.456 1.224-1.188 1.224-.708 0-1.164-.516-1.164-1.176 0-.696.444-1.248 1.164-1.248.708 0 1.188.516 1.188 1.2zm1.704 4.284c0-.888-.756-1.272-1.968-1.488l-.408-.072c-1.008-.18-1.212-.228-1.212-.432 0-.108.12-.24.288-.348.144.024.288.036.432.036 1.164 0 2.196-.744 2.196-1.968 0-.324-.072-.624-.228-.888l1.092-.108-.156-.96-1.452.444c-.396-.312-.9-.48-1.476-.48-1.164 0-2.196.756-2.196 1.992 0 .78.432 1.38 1.068 1.704-.384.228-.6.504-.6.78 0 .216.108.42.36.6-.804.432-1.212.888-1.212 1.476 0 1.008 1.188 1.476 2.676 1.476s2.796-.564 2.796-1.764zm-2.748.996c-1.116 0-1.704-.336-1.704-.792 0-.396.3-.732.972-1.068.228.048.396.084.708.144l.684.12c.816.144 1.08.384 1.08.732 0 .48-.624.864-1.74.864zm11.2636-1.416v-4.164c0-1.032-.576-1.68-1.656-1.68-.816 0-1.488.456-2.028.948l-.132-.828h-.852v5.724h1.068v-3.96c.516-.552 1.092-.924 1.656-.924.624 0 .876.396.876.984v3.9zm2.9561-7.548c0-.372-.3-.684-.672-.684s-.684.312-.684.684.312.672.684.672.672-.3.672-.672zm-.144 7.548v-5.724h-1.068v5.724zm6.062-.468-.156-.984c-.564.48-1.128.636-1.704.636-.96 0-1.68-.66-1.68-2.052 0-1.32.66-2.04 1.644-2.04.66 0 1.188.24 1.68.636l.156-1.044c-.384-.276-.996-.528-1.824-.528-1.536 0-2.736 1.044-2.736 2.988 0 1.908 1.128 2.976 2.664 2.976.816 0 1.428-.192 1.956-.588zm3.384-4.536c.828 0 1.236.528 1.368 1.452h-2.76c.168-.972.732-1.452 1.392-1.452zm2.436 4.356-.156-.96c-.624.492-1.224.816-2.052.816-.996 0-1.62-.624-1.668-1.956h3.888v-.228c0-1.584-.768-2.868-2.436-2.868-1.44 0-2.52 1.128-2.52 2.964 0 2.1 1.164 3 2.652 3 .948 0 1.68-.288 2.292-.768zm6.1895-4.356c.828 0 1.236.528 1.368 1.452h-2.76c.168-.972.732-1.452 1.392-1.452zm2.436 4.356-.156-.96c-.624.492-1.224.816-2.052.816-.996 0-1.62-.624-1.668-1.956h3.888v-.228c0-1.584-.768-2.868-2.436-2.868-1.44 0-2.52 1.128-2.52 2.964 0 2.1 1.164 3 2.652 3 .948 0 1.68-.288 2.292-.768zm9.492.648v-4.164c0-1.032-.528-1.68-1.62-1.68-.804 0-1.5.456-2.016.948-.216-.588-.672-.948-1.512-.948-.804 0-1.452.456-1.992.948l-.132-.828h-.852v5.724h1.068v-3.96c.516-.552 1.056-.924 1.62-.924.624 0 .84.396.84.984v3.9h1.068v-3.96c.516-.552 1.056-.924 1.62-.924.624 0 .84.396.84.984v3.9zm6.629-2.856c0-1.884-1.128-2.988-2.664-2.988-1.524 0-2.628 1.104-2.628 2.988s1.104 2.976 2.628 2.976c1.536 0 2.664-1.092 2.664-2.976zm-1.08 0c0 1.2-.528 2.088-1.584 2.088-1.008 0-1.548-.912-1.548-2.088 0-1.2.516-2.1 1.548-2.1s1.584.924 1.584 2.1zm3.736-4.692c0-.372-.3-.684-.672-.684s-.684.312-.684.684.312.672.684.672.672-.3.672-.672zm-.144 8.268v-6.444h-1.068v6.348c0 .432-.228.624-.6.624-.168 0-.372-.012-.504-.048l.156.948c.084.024.312.036.492.036.912 0 1.524-.432 1.524-1.464zm3.062-8.268c0-.372-.3-.684-.672-.684s-.684.312-.684.684.312.672.684.672.672-.3.672-.672zm-.144 7.548v-5.724h-1.068v5.724z" fill="#dcddde"/><g mask="url(#c)"><path d="m135.844 30.4158c.619-.4089 2.203-.6213 2.797-.3661.614.2636.688 1.7222 1.028 2.3374.296.5347.239 1.1327-.153 1.5746-.008.0574-.033.116-.083.1721-.608.6958-1.252 1.3793-1.959 1.9774-.412.3491-1.432.4675-1.995.2856-1.325-.4247-1.038-3.1028-.851-4.15.104-.5896.674-1.4733 1.216-1.831z" fill="#754a4a"/><path d="m136.269 30.8433c.619-.4089 2.203-.6213 2.797-.3662.614.2637.688 1.7223 1.029 2.3375.295.5346.238 1.1327-.154 1.5746-.008.0574-.032.116-.082.1721-.608.6958-1.253 1.3793-1.959 1.9774-.413.3491-1.433.4675-1.996.2856-1.324-.4248-1.584-2.0653-1.398-3.1125.104-.5896 1.222-2.5108 1.763-2.8685z" fill="#483039"/><g mask="url(#d)"><path d="m134.505 43.7205h14.107c0-1.5868-.116-2.9063-.022-4.6993.125-2.3949-.292-4.7507-1.176-6.357-.856-1.5526-2.003-2.2898-3.113-2.6548-1.598-.5249-3.268-.4748-4.875-.1624-1.658.3223-3.188.6909-4.145 3.6655-.901 2.7977-.776 10.208-.776 10.208z" fill="#e3bf7a"/><path d="m145.25 42.3023c-1.358.2563-2.785.166-4.152.1807-2.308.0232-4.846-.232-6.591-2.4632-.005.7262.01 1.4525 0 2.1788.793.5297 1.777.8922 2.603 1.1388 1.642.4907 3.351.5395 5.051.5639 1.639.0232 3.333-.0232 4.885-.6164.619-.2368 1.134-.6042 1.574-1.0534v-2.3777c-1.013 1.1156-2.052 2.1995-3.37 2.4485z" fill="#da5c58"/><path d="m146.058 28.7071c-1.576-.7043-5.365.6958-6.91.8471-.679.0672-1.445.1416-1.988.6799-.341.3394-.539.8093-.773 1.2463-.838 1.5623-2.306 3.0454-2.089 4.9971.021.188.059.3833.18.5286.121.1464.309.2185.494.2636.497.1209 1.034.072 1.503-.1355.896-.3954 1.208-.7421 2.197-.4455.803.2405 1.541.6237 2.278 1.0168 1.392.7433 2.795 1.5794 4.422 1.588.69.0037 1.407-.188 1.907-.6652.34-.3235.557-.7556.704-1.2011.447-1.3598.248-2.9075-.484-4.1367-.758-1.2767-.012-3.945-1.441-4.5834z" fill="#f4dd92"/><path d="m138.845 34.5085c-.039-.4003-.101-.714-.336-1.0558-.207-.3015-.497-.5529-.851-.6579-.78-.2331-1.627-.2539-2.243.3418-.489.4723-.71 1.1864-.603 1.8541.08.498.251 1.0302.658 1.3536.447.3564 1.128.5639 1.698.5395.715-.0317 1.289-.5785 1.552-1.2157.132-.3186.202-.6774.144-1.0192-.01-.0476-.015-.094-.019-.1404z" fill="#fff"/><path d="m135.172 33.6274c-1.095.8776-.002 2.8281 1.304 2.1348.427-.227.687-.6945.715-1.1706.061-1.0314-1.253-1.577-2.019-.9642z" fill="#222034"/><path d="m135.273 33.7298c-.366.3137-.001 1.0107.436.7629.142-.0806.229-.2478.239-.4187.021-.3686-.419-.5639-.675-.3442z" fill="#fff"/><path d="m144.96 38.6855c.06 1.5063-.555 2.8233-1.858 3.4568-1.446.7019-4.983 1.3585-6.371.6909-1.251-.6018-.078-1.7077-.278-3.0418-.144-.9472-.652-1.6258-.837-2.2215-.924-2.9649 3.951-2.0897 6.249-2.1531.462-.0135.909.061 1.339.2392 1.26.5224 1.702 1.6637 1.756 3.0295z" fill="#b88a7d"/><g mask="url(#e)"><path d="m141.17 40.9387c.569-.426 1.542-1.1815 1.386-2.2496-.191-1.3072-1.977-1.4183-2.617-1.4183-.955 0-1.175-.022-2.05-.0159-.253.0012-1.317-.0744-1.468.1587-.153.2356-.171.3344.337 1.0863.199.2942.286.625.294.9839.009.3588-.014.7226-.066 1.0765-.077.542-.349 1.2231.159 1.5185.572.3332 1.522.1062 2.096-.083.683-.2258 1.326-.6067 1.929-1.0571z" fill="#633630"/><path d="m142.5 40.1832c-1.153-.8678-4.678-1.1022-5.642.3345-.239.3552-.264.841-.049 1.1913.001.0366.006.0744.016.1147.421 1.6722 3.757-.155 4.594-.6054.338-.1819 1.345-.8373 1.081-1.0351z" fill="#d04a69"/></g><path d="m144.074 34.5085c-.039-.4003-.101-.714-.336-1.0558-.206-.3015-.497-.5529-.851-.6579-.779-.2331-1.627-.2539-2.242.3418-.489.4723-.71 1.1864-.603 1.8541.08.498.25 1.0302.657 1.3536.448.3564 1.129.5639 1.698.5395.715-.0317 1.289-.5785 1.553-1.2157.131-.3186.202-.6774.143-1.0192-.009-.0476-.014-.094-.019-.1404z" fill="#fff"/><path d="m140.406 33.6274c-1.095.8776-.002 2.8281 1.304 2.1348.427-.227.687-.6945.715-1.1706.061-1.0314-1.253-1.577-2.019-.9642z" fill="#222034"/><path d="m140.64 33.7298c-.366.3137-.001 1.0107.435.7629.143-.0806.23-.2478.24-.4187.02-.3686-.42-.5639-.675-.3442z" fill="#fff"/><path d="m141.812 31.5433c-.436-.205-.908-.2038-1.336.0281-.164.0891-.203.2417-.168.3808.007.155.104.3235.264.3455.393.0561.773.0402 1.153-.0855.271-.0903.39-.5261.087-.6689z" fill="#b88a7d"/><path d="m137.921 31.5433c-.437-.205-.909-.2038-1.337.0281-.164.0891-.203.2417-.168.3808.008.155.105.3235.264.3455.393.0561.774.0402 1.153-.0855.271-.0903.39-.5261.088-.6689z" fill="#b88a7d"/><path d="m138.684 35.3341c-.428-.0244-1.503-.022-1.711.4662-.227.5359.507.9887.944 1.0583.04.0061.084.011.129.0134.033.1001.042.1831.033.2991-.01.1245.135.2368.254.2258.145-.0134.221-.116.231-.249.007-.1025-.002-.2063-.024-.3076.16-.0244.317-.0598.443-.1001.302-.0952.65-.2612.754-.5798.204-.6176-.62-.8007-1.053-.8263z" fill="#483039"/><path d="m139.967 39.2751c-.81.0586-1.305.6482-1.751 1.2658-.23.3186.297.6237.525.3076.303-.4187.666-.9216 1.226-.9631.388-.0281.392-.6384 0-.6103z" fill="#9c3d53"/></g><path d="m149.228 33.3372c-.184-.9252-.61-1.8285-1.261-2.5157-.755-.7995-1.728-.841-2.787-.8532-.377-.0036-.782.022-1.082.2515-.456.3478-.49 1.0778-.17 1.555.993 1.4782 2.139 3.1053 3.891 3.7388.426.1538 1.166.3295 1.414-.2417.231-.5371.106-1.3793-.005-1.9347z" fill="#483039"/><path d="m148.257 31.3879c-.152-.3906-.503-.7702-1.039-1.0607-.622-.3369-1.424-.3552-2.295-.3601-.312-.0012-.645.0098-.893.1062-.376.1465-.426.996-.162 1.1974.819.6238 1.783.7678 3.226 1.0351.352.0647.961.1392 1.165-.1025.194-.2258.089-.581-.002-.8154z" fill="#754a4a"/></g><ellipse cx="27.4655" cy="27.5683" fill="#edf6f3" rx="17.2931" ry="17.3579"/><g clip-path="url(#a)"><path d="m27.4658 38.7999c-1.3226 0-2.5657-.4915-3.5008-1.3837-.0171-.0163-.0171-.0427 0-.059s.0447-.0163.0619 0c.9184.8763 2.1396 1.359 3.4384 1.359 1.2989 0 2.5201-.4827 3.4385-1.359.0171-.0163.0447-.0163.0619 0 .0171.0163.0171.0427 0 .059-.9343.8926-2.1778 1.3837-3.4999 1.3837z" fill="#333"/><path d="m26.0827 23.385-.7372 6.3677c-.8794.1625-1.5437.9006-1.5437 1.7873 0 1.0056.8547 1.8211 1.9088 1.8211.0491 0 .0974-.0025.1456-.0059.3388.507.9329.8432 1.6096.8432.6766 0 1.2708-.3362 1.61-.8432.0478.0034.0965.0059.1452.0059 1.054 0 1.9088-.8155 1.9088-1.8211 0-.8867-.6643-1.6248-1.5437-1.7873l-.7368-6.3677" fill="#333"/><path d="m27.4657 34.2405c-.6613 0-1.2694-.314-1.6323-.8415-.0452.0029-.0847.0042-.1229.0042-1.0768 0-1.9527-.8357-1.9527-1.863 0-.88.649-1.6416 1.5477-1.8224l.7337-6.3372c.0026-.023.0245-.0394.0482-.0368.0242.0025.0413.0234.0386.046l-.7371 6.3673c-.0022.0184-.0163.0331-.0352.0364-.8741.1616-1.5081.896-1.5081 1.7462 0 .981.8363 1.7793 1.8649 1.7793.0426 0 .0878-.0017.1422-.0058.0162-.0013.0316.0062.0403.0192.3449.5158.9329.8239 1.5727.8239s1.2278-.3081 1.5727-.8239c.0088-.013.0241-.0205.0404-.0192.0544.0037.0996.0058.1421.0058 1.0282 0 1.865-.7979 1.865-1.7793 0-.8502-.6346-1.585-1.5087-1.7462-.0188-.0033-.0333-.0184-.0351-.0364l-.7372-6.3673c-.0026-.023.0145-.0435.0387-.046.0245-.0026.0456.0142.0482.0368l.7333 6.3372c.8986.1808 1.5476.9424 1.5476 1.8224 0 1.0273-.8758 1.863-1.9526 1.863-.0378 0-.0773-.0013-.1229-.0042-.362.5275-.9702.8415-1.6315.8415z" fill="#333"/><path d="m26.0827 22.5479-.7372 6.3677c-.8794.1624-1.5437.9009-1.5437 1.7872 0 1.0056.8547 1.8212 1.9088 1.8212.0491 0 .0974-.0026.1456-.0059.3388.507.9329.8432 1.6096.8432.6766 0 1.2708-.3362 1.61-.8432.0478.0033.0965.0059.1452.0059 1.054 0 1.9088-.8156 1.9088-1.8212 0-.8867-.6643-1.6248-1.5437-1.7872l-.7368-6.3677" fill="#7fd6c7"/><g fill="#333"><path d="m27.4657 33.4031c-.6613 0-1.2694-.314-1.6323-.8415-.0452.0029-.0847.0042-.1229.0042-1.0768 0-1.9527-.8357-1.9527-1.863 0-.88.649-1.6416 1.5477-1.8224l.7337-6.3372c.0026-.023.0245-.0394.0482-.0368.0242.0025.0413.0234.0386.046l-.7371 6.3673c-.0022.0184-.0163.0331-.0352.0364-.8741.1616-1.5081.896-1.5081 1.7462 0 .981.8363 1.7793 1.8649 1.7793.0426 0 .0878-.0017.1422-.0058.0162-.0013.0316.0062.0403.0192.3449.5158.9329.8239 1.5727.8239s1.2278-.3081 1.5727-.8239c.0088-.013.0241-.0205.0404-.0192.0544.0037.0996.0058.1421.0058 1.0282 0 1.865-.7979 1.865-1.7793 0-.8502-.6346-1.585-1.5087-1.7462-.0188-.0033-.0333-.0184-.0351-.0364l-.512-4.4256c-.0027-.023.0144-.0435.0386-.046.0245-.0025.0456.0142.0482.0368l.5086 4.3955c.8987.1808 1.5477.9424 1.5477 1.8224 0 1.0273-.8759 1.863-1.9527 1.863-.0377 0-.0772-.0013-.1229-.0042-.3624.5275-.9706.8415-1.6319.8415zm1.5113-9.7036c-.022 0-.0413-.0159-.0435-.0372l-.1286-1.1095c-.0026-.023.0145-.0435.0387-.046.0245-.0025.0456.0142.0482.0368l.1286 1.1095c.0026.023-.0149.0435-.0386.046-.0018.0004-.0031.0004-.0048.0004z"/><path d="m26.9654 29.3634c-.0013 0-.0022 0-.0035 0-.0242-.0017-.0422-.0218-.0404-.0448l.0614-.7536c.0018-.023.0228-.0402.047-.0385.0241.0017.0421.0218.0403.0448l-.0614.7536c-.0013.0217-.0206.0385-.0434.0385z"/><path d="m27.4658 29.3635c-.0242 0-.0439-.0189-.0439-.0419v-.7536c0-.023.0197-.0419.0439-.0419.0241 0 .0438.0189.0438.0419v.7536c0 .023-.0197.0419-.0438.0419z"/><path d="m27.9653 29.3637c-.0228 0-.0421-.0168-.0438-.0385l-.0036-.044c-.0017-.023.0163-.0431.0404-.0448.0246-.0017.0452.0155.047.0385l.0035.044c.0017.023-.0163.0431-.0404.0448-.0009-.0005-.0018 0-.0031 0zm-.0373-.4614c-.0228 0-.0421-.0167-.0438-.0385l-.0237-.2922c-.0018-.023.0162-.0431.0403-.0448.0246-.0021.0452.0155.047.0385l.0237.2922c.0017.023-.0163.0431-.0404.0448-.0009 0-.0022 0-.0031 0z"/></g><path d="m20.9164 28.8087c0 .5706-.8986.6142-2.0075.6142-1.1084 0-2.0075-.044-2.0075-.6142 0-.5706.8986-1.0328 2.0075-1.0328 1.1089-.0004 2.0075.4622 2.0075 1.0328z" fill="#7fd6c7"/><path d="m38.0297 28.8087c0 .5706-.8987.6141-2.0075.6141-1.1089 0-2.0076-.0439-2.0076-.6141 0-.5706.8987-1.0328 2.0076-1.0328 1.1088 0 2.0075.4622 2.0075 1.0328z" fill="#7fd6c7"/><path d="m23.0963 23.729s-1.7447 2.0933-3.897 2.0933c-2.1524 0-3.8971-2.0933-3.8971-2.0933s1.7447-2.0933 3.8971-2.0933c2.1523 0 3.897 2.0933 3.897 2.0933z" fill="#fff"/><path d="m19.1996 25.8642c-2.1484 0-3.9137-2.0878-3.9313-2.1092-.0127-.0151-.0127-.0368 0-.0523.0176-.0209 1.7829-2.1092 3.9313-2.1092s3.9137 2.0878 3.9312 2.1092c.0128.0151.0128.0368 0 .0523-.018.0214-1.7828 2.1092-3.9312 2.1092zm-3.8404-2.1351c.2106.2403 1.864 2.0514 3.8399 2.0514 1.976 0 3.6294-1.8111 3.84-2.0514-.2106-.2403-1.864-2.0514-3.84-2.0514-1.9768 0-3.6293 1.8111-3.8399 2.0514z" fill="#333"/><path d="m21.3934 23.729c0 1.1559-.9825 2.0933-2.194 2.0933s-2.194-.9374-2.194-2.0933.9825-2.0933 2.194-2.0933 2.194.9374 2.194 2.0933z" fill="#333"/><path d="m19.1993 25.864c-1.2339 0-2.2379-.9579-2.2379-2.1351 0-1.1773 1.004-2.1351 2.2379-2.1351 1.234 0 2.2379.9578 2.2379 2.1351 0 1.1772-1.0039 2.1351-2.2379 2.1351zm0-4.1865c-1.1856 0-2.1501.9202-2.1501 2.0514s.9645 2.0514 2.1501 2.0514c1.1857 0 2.1502-.9202 2.1502-2.0514s-.965-2.0514-2.1502-2.0514z" fill="#333"/><path d="m20.5156 23.7289c0 .6937-.5893 1.2559-1.3164 1.2559s-1.3164-.5622-1.3164-1.2559.5893-1.256 1.3164-1.256c.7267 0 1.3164.5627 1.3164 1.256z" fill="#fff"/><path d="m19.1992 25.0268c-.75 0-1.3603-.5823-1.3603-1.2978s.6103-1.2978 1.3603-1.2978c.7499 0 1.3603.5823 1.3603 1.2978s-.6104 1.2978-1.3603 1.2978zm0-2.5119c-.7017 0-1.2726.5447-1.2726 1.2141s.5709 1.2141 1.2726 1.2141c.7016 0 1.2725-.5447 1.2725-1.2141s-.5709-1.2141-1.2725-1.2141z" fill="#333"/><path d="m19.1992 26.7432c-.0242 0-.0439-.0188-.0439-.0419 0-.023.0197-.0418.0439-.0418 2.1067 0 3.8452-2.0569 3.8623-2.0774.0149-.018.0426-.0209.0619-.0067.0189.0142.0219.0406.007.059-.018.021-1.7828 2.1088-3.9312 2.1088z" fill="#333"/><path d="m31.8354 23.729s1.7447 2.0933 3.8971 2.0933c2.1523 0 3.897-2.0933 3.897-2.0933s-1.7447-2.0933-3.897-2.0933c-2.1524 0-3.8971 2.0933-3.8971 2.0933z" fill="#fff"/><path d="m35.7318 25.8642c-2.1484 0-3.9137-2.0878-3.9312-2.1092-.0128-.0151-.0128-.0368 0-.0523.0175-.0209 1.7828-2.1092 3.9312-2.1092s3.9138 2.0878 3.9313 2.1092c.0127.0151.0127.0368 0 .0523-.0175.0214-1.7829 2.1092-3.9313 2.1092zm-3.84-2.1351c.2107.2403 1.8641 2.0514 3.84 2.0514 1.976 0 3.6294-1.8111 3.84-2.0514-.2106-.2403-1.864-2.0514-3.84-2.0514-1.9759 0-3.6293 1.8111-3.84 2.0514z" fill="#333"/><path d="m33.5381 23.729c0 1.1559.9825 2.0933 2.194 2.0933 1.2116 0 2.194-.9374 2.194-2.0933s-.9824-2.0933-2.194-2.0933c-1.2115 0-2.194.9374-2.194 2.0933z" fill="#333"/><path d="m35.7321 25.864c-1.234 0-2.238-.9579-2.238-2.1351 0-1.1773 1.004-2.1351 2.238-2.1351 1.2339 0 2.2379.9578 2.2379 2.1351 0 1.1772-1.004 2.1351-2.2379 2.1351zm0-4.1865c-1.1857 0-2.1502.9202-2.1502 2.0514s.9645 2.0514 2.1502 2.0514c1.1856 0 2.1501-.9202 2.1501-2.0514s-.9645-2.0514-2.1501-2.0514z" fill="#333"/><path d="m34.416 23.7289c0 .6937.5893 1.2559 1.3164 1.2559s1.3164-.5622 1.3164-1.2559-.5893-1.256-1.3164-1.256-1.3164.5627-1.3164 1.256z" fill="#fff"/><path d="m35.7324 25.0268c-.75 0-1.3603-.5823-1.3603-1.2978s.6103-1.2978 1.3603-1.2978c.7499 0 1.3603.5823 1.3603 1.2978s-.6104 1.2978-1.3603 1.2978zm0-2.5119c-.7017 0-1.2726.5447-1.2726 1.2141s.5709 1.2141 1.2726 1.2141c.7016 0 1.2725-.5447 1.2725-1.2141s-.5709-1.2141-1.2725-1.2141z" fill="#333"/><path d="m35.7322 26.7431c-.215 0-.4357-.0209-.656-.0623-.0237-.0046-.0395-.0264-.0347-.049s.0277-.0377.0513-.0331c.2151.0402.4301.0607.6394.0607.0241 0 .0439.0189.0439.0419s-.0198.0418-.0439.0418zm-1.0725-.1657c-.0043 0-.0087-.0009-.0131-.0021-1.6245-.4932-2.8334-1.9267-2.8457-1.9413-.0149-.018-.0118-.0444.0071-.0591.0188-.0142.0465-.0113.0614.0067.0118.0143 1.205 1.4281 2.8035 1.9137.0233.0071.036.0306.0285.0528-.0057.018-.0232.0293-.0417.0293z" fill="#333"/><path d="m23.005 20.9937c-.0114 0-.0224-.0042-.0312-.0121-.3457-.3299-.735-.6125-1.1566-.8398-.0211-.0113-.0286-.0369-.0167-.057.0118-.0201.0386-.0272.0597-.0159.4287.2311.824.5179 1.1755.8532.0171.0164.0171.0427 0 .0591-.0083.0087-.0193.0125-.0307.0125zm-7.6427 0c-.0114 0-.0223-.0042-.0311-.0121-.0171-.0164-.0171-.0427 0-.0591 1.029-.9817 2.3972-1.5226 3.8527-1.5226.7846 0 1.5744.165 2.2831.4768.0219.0097.0316.0348.0215.0557-.0101.021-.0364.0302-.0584.0205-.6977-.3068-1.4744-.4693-2.2462-.4693-1.4318 0-2.7781.5321-3.7904 1.498-.0088.0083-.0197.0121-.0312.0121z" fill="#333"/><path d="m39.5685 20.9937c-.0114 0-.0224-.0042-.0311-.0121-1.0124-.9659-2.3582-1.498-3.79-1.498s-2.7781.5321-3.7904 1.498c-.0171.0163-.0447.0163-.0618 0-.0172-.0164-.0172-.0427 0-.0591 1.0285-.9817 2.3967-1.5226 3.8522-1.5226 1.4551 0 2.8233.5409 3.8523 1.5226.0171.0164.0171.0427 0 .0591-.0084.0083-.0198.0121-.0312.0121z" fill="#333"/></g><path d="m56.8565 61.7937v-6h-1.584v5.796c0 .888-.444 1.224-1.176 1.224-.432 0-.684-.048-.948-.12l.216 1.38c.216.036.576.084.948.084 1.488 0 2.544-.684 2.544-2.364zm3.8455-2.64c.696 0 1.056.504 1.152 1.404h-2.316c.108-.936.588-1.404 1.164-1.404zm2.544 4.332-.168-1.128c-.636.444-1.248.72-1.992.72-.888 0-1.5-.492-1.56-1.62h3.72c0-.084.012-.228.012-.348 0-1.644-.78-2.952-2.52-2.952-1.512 0-2.64 1.14-2.64 3.024 0 2.088 1.212 3.012 2.832 3.012.936 0 1.692-.276 2.316-.708zm5.4715-1.116c0-1.092-.588-1.5-2.088-1.884-.864-.228-1.08-.408-1.08-.72s.264-.528.804-.528c.576 0 1.26.204 1.836.528l.192-1.2c-.576-.252-1.272-.408-2.028-.408-1.344 0-2.136.708-2.136 1.716 0 1.056.588 1.464 1.992 1.824.924.228 1.176.396 1.176.804 0 .384-.336.612-.96.612-.72 0-1.488-.276-2.112-.684l-.192 1.2c.552.3 1.416.564 2.256.564 1.524 0 2.34-.684 2.34-1.824zm1.1175-4.092v4.164c0 1.092.564 1.752 1.656 1.752.768 0 1.392-.42 1.932-.936l.132.816h1.224v-5.796h-1.44v3.912c-.42.432-.876.72-1.32.72-.528 0-.744-.336-.744-.84v-3.792zm9.9027 1.308-.228-1.428c-.9.048-1.476.612-1.86 1.284l-.18-1.164h-1.224v5.796h1.44v-3.324c.42-.624 1.152-1.104 2.052-1.164zm4.4662 4.572 1.536-.228-2.268-3.036 2.136-2.616h-1.632l-1.884 2.4v-5.268l-1.44.228v8.436h1.44v-2.88zm5.4285-1.68c-.396.384-.864.624-1.356.624-.444 0-.708-.252-.708-.672 0-.552.396-1.044 2.064-1.248zm1.44 1.596v-3.972c0-1.392-.744-1.944-2.244-1.944-.924 0-1.632.204-2.304.468l.18 1.152c.624-.276 1.26-.468 1.932-.468.636 0 .996.24.996.864v.168c-2.34.228-3.492.84-3.492 2.244 0 1.008.66 1.608 1.644 1.608.864 0 1.464-.384 1.932-.876l.12.756z" fill="#fff"/><path d="m56.4845 82.4766-.144-.912c-.132.024-.3.036-.492.036-.6 0-.792-.288-.792-.756v-3.216h1.38l-.144-.9h-1.236v-2.064l-1.044.156v1.908h-.864v.9h.864v3.408c0 1.152.66 1.512 1.668 1.512.372 0 .624-.036.804-.072zm5.963-.024v-4.164c0-1.032-.576-1.68-1.656-1.68-.816 0-1.476.456-1.944.876v-3.696l-1.068.168v8.496h1.068v-3.96c.516-.552 1.092-.924 1.656-.924.624 0 .876.396.876.984v3.9zm4.9241-1.572c-.48.492-1.08.804-1.704.804-.54 0-.852-.3-.852-.768 0-.588.444-1.164 2.556-1.368zm1.068 1.572v-4.008c0-1.272-.672-1.836-2.064-1.836-.888 0-1.536.204-2.22.48l.144.924c.624-.276 1.284-.492 1.98-.492.66 0 1.092.252 1.092.972v.24c-2.388.252-3.612.816-3.612 2.244 0 .972.648 1.596 1.68 1.596.936 0 1.56-.42 2.016-.888l.12.768zm6.3243 0v-4.164c0-1.032-.576-1.68-1.656-1.68-.816 0-1.488.456-2.028.948l-.132-.828h-.852v5.724h1.068v-3.96c.516-.552 1.092-.924 1.656-.924.624 0 .876.396.876.984v3.9zm5.2721.084 1.164-.18-2.616-3.096 2.412-2.532h-1.284l-2.22 2.4v-5.34l-1.068.168v8.496h1.068v-3zm6.0559-1.68c0-1.092-.636-1.5-2.052-1.86-.9-.228-1.188-.444-1.188-.828 0-.408.336-.66.984-.66.6 0 1.236.204 1.74.492l.168-1.008c-.54-.24-1.176-.384-1.884-.384-1.248 0-2.016.672-2.016 1.584 0 1.02.54 1.428 1.884 1.764 1.032.252 1.356.444 1.356.972 0 .48-.432.756-1.164.756-.78 0-1.476-.288-2.016-.66l-.156 1.008c.492.276 1.332.54 2.088.54 1.476 0 2.256-.672 2.256-1.716zm2.7526-6.684h-1.284l.288 5.82.696-.156zm-.048 8.28v-1.428h-1.2v1.428zm3.3175-8.28h-1.284l.288 5.82.696-.156zm-.048 8.28v-1.428h-1.2v1.428zm5.8102-7.548c0-.372-.3-.684-.672-.684s-.684.312-.684.684.312.672.684.672.672-.3.672-.672zm-.144 7.548v-5.724h-1.068v5.724zm12.5268 0v-4.164c0-1.032-.528-1.68-1.62-1.68-.804 0-1.5.456-2.016.948-.216-.588-.672-.948-1.512-.948-.804 0-1.452.456-1.992.948l-.132-.828h-.852v5.724h1.068v-3.96c.516-.552 1.056-.924 1.62-.924.624 0 .84.396.84.984v3.9h1.068v-3.96c.516-.552 1.056-.924 1.62-.924.624 0 .84.396.84.984v3.9zm4.925-1.572c-.48.492-1.08.804-1.704.804-.54 0-.852-.3-.852-.768 0-.588.444-1.164 2.556-1.368zm1.068 1.572v-4.008c0-1.272-.672-1.836-2.064-1.836-.888 0-1.536.204-2.22.48l.144.924c.624-.276 1.284-.492 1.98-.492.66 0 1.092.252 1.092.972v.24c-2.388.252-3.612.816-3.612 2.244 0 .972.648 1.596 1.68 1.596.936 0 1.56-.42 2.016-.888l.12.768zm2.412-2.748c0-1.416.648-2.148 1.548-2.148.612 0 .96.096 1.404.324v2.736c-.456.612-.96 1.008-1.62 1.008-.768 0-1.332-.66-1.332-1.92zm-1.08.048c0 1.92 1.02 2.82 2.256 2.82.84 0 1.428-.432 1.86-.948l.132.828h.852v-8.664l-1.068.168v2.952c-.36-.144-.876-.252-1.44-.252-1.392 0-2.592 1.008-2.592 3.096zm8.965-2.304c.828 0 1.236.528 1.368 1.452h-2.76c.168-.972.732-1.452 1.392-1.452zm2.436 4.356-.156-.96c-.624.492-1.224.816-2.052.816-.996 0-1.62-.624-1.668-1.956h3.888v-.228c0-1.584-.768-2.868-2.436-2.868-1.44 0-2.52 1.128-2.52 2.964 0 2.1 1.164 3 2.652 3 .948 0 1.68-.288 2.292-.768zm5.301-6.9c0-.372-.3-.684-.672-.684s-.684.312-.684.684.312.672.684.672.672-.3.672-.672zm-.144 7.548v-5.724h-1.068v5.724zm4.514.024-.144-.912c-.132.024-.3.036-.492.036-.6 0-.792-.288-.792-.756v-3.216h1.38l-.144-.9h-1.236v-2.064l-1.044.156v1.908h-.864v.9h.864v3.408c0 1.152.66 1.512 1.668 1.512.372 0 .624-.036.804-.072zm2.735-8.304h-1.284l.288 5.82.696-.156zm-.048 8.28v-1.428h-1.2v1.428z" fill="#dcddde"/><g clip-path="url(#b)"><path d="m153.65 75.6927h1.473c.115 0 .221-.0616.28-.1629l1.374-2.4153c.48-.8433 1.712-.8036 2.126.0749 1.733 3.6636 3.711 11.558.248 11.558h-4.427v-.0045l-6.024.0045c-.391 0-.75-.2698-.94-.6143-.91-1.6524-1.059-3.8068-.279-5.5077.214-.4667 1.445-2.5264 1.506-2.6916l1.568-2.9657c.34-.6429 1.262-.6275 1.58.0264l1.226 2.5166c.054.1112.166.1816.289.1816z" fill="#fffbf0"/><path d="m158.769 80.5562c-1.892 0-1.895 2.9503 0 2.9503 1.891 0 1.894-2.9503 0-2.9503z" fill="#ffbeb3"/><path d="m148.24 80.4341c-1.893 0-1.896 2.9525 0 2.9525 1.893 0 1.896-2.9525 0-2.9525z" fill="#ffbeb3"/><path d="m150.38 81.9874c-1.281-.0848-1.386 1.7977-1.421 2.7599h.65c.028-.6385.16-2.5496 1.005-1.9618.56.3908.562 1.3222.543 1.9618h.649c.017-.9699-.179-2.6773-1.426-2.7599z" fill="#ccb2ce"/><path d="m156.303 81.9874c-1.281-.0848-1.387 1.7977-1.422 2.7599h.651c.027-.6385.16-2.5496 1.004-1.9618.561.3908.562 1.3222.543 1.9618h.65c.016-.9699-.179-2.6773-1.426-2.7599z" fill="#ccb2ce"/><g fill="#745a77"><path d="m154.369 80.1533c-.034.339-.367.6781-.547.2279-.097-.2444-.465-.3138-.623-.0859-.13.1893-.348.5901-.688.2675-.112-.1068-.158-.3644-.202-.5031-.139-.448-.812-.1684-.672.2774.145.469.382.9677.904 1.0943.355.0859.649-.0573.889-.2796.186.2124.438.3159.801.2069.492-.1475.808-.5988.857-1.0975.046-.4668-.673-.5758-.719-.1079z"/><path d="m158.183 79.592c-.041-.5141-.83-.4029-.79.109.022.2807-.01.939-.443.9093-.403-.0286-.367-.7519-.383-1.0128-.026-.4261-.732-.4294-.754.0011-.039.7629.207 1.8296 1.172 1.8054.948-.0231 1.26-1.0194 1.198-1.812z"/><path d="m151.132 79.592c-.04-.5141-.83-.4029-.79.109.022.2807-.009.939-.443.9093-.403-.0286-.367-.7519-.382-1.0128-.027-.4261-.733-.4294-.755.0011-.038.7629.207 1.8296 1.172 1.8054.948-.0231 1.261-1.0194 1.198-1.812z"/><path d="m148.324 81.5912c.027.0044.051.0066.076.0066.207 0 .359-.163.392-.3413.037-.2059-.078-.3754-.282-.4128-.52-.0947-1.041-.2202-1.548-.3743-.13-.0396-.26-.011-.353.077-.103.098-.149.2521-.115.3942.031.1321.125.23.26.2708.513.1552 1.042.2829 1.57.3798z"/><path d="m148.337 82.1117c-.494.1299-.993.2675-1.48.4095-.236.0683-.307.2984-.256.48.044.1508.172.2785.349.2785.036 0 .074-.0055.113-.0165.486-.1409.983-.2785 1.475-.4073.133-.0352.228-.1266.263-.2521.038-.1376-.003-.294-.104-.3974-.093-.0958-.225-.1299-.36-.0947z"/><path d="m158.626 81.7916c.034 0 .07-.0044.106-.0143.538-.1409 1.08-.2983 1.61-.4689.239-.0771.305-.3138.245-.4987-.055-.1751-.231-.3149-.458-.2422-.526.1695-1.065.3258-1.598.4656-.236.0617-.31.2786-.263.4624.041.1596.173.2961.358.2961z"/><path d="m160.911 82.7548c-.058-.1377-.176-.2268-.323-.2455-.614-.0771-1.251-.1795-1.893-.305-.141-.0275-.276.0187-.369.1255-.097.1112-.131.2686-.086.3985.04.1156.137.1971.267.2224.66.1288 1.351.2378 2.054.327.018.0022.035.0033.053.0033.106 0 .197-.043.259-.1244.081-.1068.096-.2642.038-.4018z"/></g></g><ellipse cx="27.4655" cy="69.4316" fill="#69c49a" rx="17.2931" ry="17.3579"/><path d="m16.6908 61.4368.0691.1953c.2355.6668.6298 1.2692 1.1401 1.7428l.0254.0235c.3375.3135.6254.6774.8555 1.0816.3591.6309.8705 1.161 1.4792 1.5339.0005 0 .0005.0005.0011.0005.3899.2385.7409.5369 1.0434.8868l.0232.0269c.4569.5284 1.0385.9371 1.6812 1.1812l.189.0717c.3187.1209.6243.281.9084.4747l.741.5055-.4882-.7681c-.1869-.2939-.3408-.6113-.458-.9416l-.0691-.1954c-.2355-.6667-.6298-1.2691-1.1401-1.7427l-.0254-.0235c-.3375-.3135-.6254-.6774-.8555-1.0816-.3591-.6304-.8705-1.1605-1.4786-1.5334-.0006-.0005-.0011-.0005-.0017-.0011-.3899-.2385-.7409-.5368-1.0434-.8867l-.0232-.0264c-.4569-.529-1.0385-.9377-1.6812-1.1817l-.189-.0717c-.3192-.1215-.6249-.281-.9084-.4747l-.741-.5055.4882.768c.1869.2934.3408.6102.458.9417zm3.6049 2.1256c.4688 0 .8501.3952.8501.8812 0 .4859-.3813.8811-.8501.8811-.4687 0-.85-.3952-.85-.8811 0-.486.3813-.8812.85-.8812z" fill="#fff9c6"/><path d="m17.7559 63.5414.0254.0235c.3208.2978.5946.6438.8133 1.0284.378.6634.9159 1.2215 1.5565 1.6134.0005 0 .0005.0006.001.0006.3705.2267.7043.5106.991.8425l.0233.0269c.4806.5559 1.092.9853 1.7681 1.2423l.1891.0716c.3035.1153.594.2671.8641.4512l1.1789.8051c.0184.0123.0389.0184.0594.0184.0281 0 .0556-.0112.0762-.033.0362-.0375.0421-.0963.014-.1405l-.7766-1.2227c-.1777-.2799-.3246-.5811-.4353-.8957l-.0691-.1954c-.2479-.7009-.6621-1.3346-1.1984-1.8328l-.0254-.0236c-.3208-.2978-.5946-.6438-.8133-1.0284-.3781-.6634-.916-1.2215-1.5565-1.6134-.0005-.0005-.0011-.0005-.0016-.0011-.3705-.2267-.7037-.51-.9905-.8425l-.0232-.0264c-.4807-.5559-1.092-.9858-1.7682-1.2422l-.189-.0717c-.3035-.1153-.5941-.267-.8641-.4512l-1.179-.805c-.0426-.0291-.0993-.0235-.1355.0145-.0362.0375-.0421.0963-.0141.1405l.7767 1.2221c.1776.28.324.5811.4352.8958l.0692.1954c.2473.7014.6621 1.3351 1.1984 1.8334zm-1.2703-3.3097c.2836.1937.5893.3532.9084.4747l.1891.0717c.6432.2441 1.2243.6527 1.6812 1.1818l.0232.0263c.3024.3499.6529.6477 1.0434.8868.0005.0005.0011.0005.0016.0011.6081.3723 1.1196.903 1.4787 1.5333.2301.4042.5179.7681.8555 1.0816l.0253.0235c.5104.4737.9041 1.0766 1.1401 1.7428l.0691.1954c.1167.3308.2712.6477.458.9416l.4882.7681-.7409-.5055c-.2841-.1937-.5898-.3533-.9084-.4748l-.189-.0716c-.6433-.2441-1.2244-.6528-1.6813-1.1813l-.0232-.0268c-.3024-.3499-.6529-.6478-1.0434-.8868-.0005 0-.0005-.0006-.0011-.0006-.6086-.3728-1.12-.903-1.4792-1.5339-.2306-.4042-.5179-.7681-.8554-1.0816l-.0254-.0235c-.5098-.4736-.9041-1.0765-1.1401-1.7427l-.0691-.1954c-.1172-.3309-.2711-.6477-.458-.9422l-.4882-.7681z" fill="#69c49a"/><path d="m20.2954 65.3253c.4687 0 .85-.3952.85-.8811 0-.486-.3813-.8812-.85-.8812-.4688 0-.8501.3952-.8501.8812 0 .4859.3813.8811.8501.8811z" fill="#69c49a"/><path d="m39.1853 59.7263-.741.5055c-.2835.1937-.5892.3533-.9084.4748l-.189.0716c-.6432.2441-1.2243.6528-1.6812 1.1818l-.0232.0269c-.3025.3499-.653.6477-1.0434.8868-.0006 0-.0006.0005-.0011.0005-.6087.3729-1.1201.903-1.4793 1.5339-.23.4042-.5179.7681-.8554 1.0816l-.0254.0235c-.5104.4736-.9041 1.0766-1.1401 1.7428l-.0691.1953c-.1172.3309-.2711.6478-.458.9417l-.4882.768.741-.5055c.2841-.1937.5897-.3532.9084-.4747l.189-.0717c.6432-.2441 1.2243-.6527 1.6812-1.1818l.0232-.0268c.3025-.3499.6535-.6483 1.0434-.8868.6092-.3728 1.1206-.903 1.4803-1.5345.2301-.4042.5179-.7681.8555-1.0816l.0254-.0235c.5103-.4736.904-1.0765 1.14-1.7427l.0692-.1954c.1172-.3308.2711-.6477.4579-.9422zm-4.5511 5.5988c-.4688 0-.8501-.3952-.8501-.8811 0-.486.3813-.8812.8501-.8812.4687 0 .85.3952.85.8812 0 .4859-.3813.8811-.85.8811z" fill="#fff9c6"/><path d="m39.6413 59.2541c-.0362-.0376-.0929-.0437-.1356-.0146l-1.1789.805c-.2701.1842-.5606.3359-.8641.4512l-.1891.0717c-.6761.257-1.2875.6863-1.7681 1.2423l-.0233.0268c-.2873.332-.6205.6158-.991.8426-.0005 0-.0005.0005-.001.0005-.64.3919-1.1785.9495-1.5565 1.6134-.2193.3846-.4925.7306-.8133 1.0284l-.0254.0235c-.5363.4983-.9511 1.132-1.199 1.8329l-.0691.1954c-.1113.3146-.2576.6158-.4353.8957l-.7766 1.2221c-.0281.0442-.0227.103.014.1405.0211.0219.0486.0331.0767.0331.0205 0 .0411-.0062.0594-.0185l1.179-.8051c.27-.1841.5606-.3358.8641-.4512l.189-.0716c.6762-.257 1.2875-.6864 1.7682-1.2423l.0232-.0268c.2873-.3326.6211-.6164.9921-.8431.6405-.3919 1.1784-.9495 1.5565-1.6135.2187-.3846.4925-.7305.8133-1.0284l.0254-.0235c.5363-.4982.951-1.1319 1.1984-1.8328l.0691-.1954c.1113-.3146.2576-.6158.4353-.8957l.7766-1.2221c.0276-.0443.0222-.103-.014-.1405zm-1.4706 2.3775c-.2355.6668-.6297 1.2692-1.1401 1.7428l-.0254.0235c-.3375.3135-.6248.6774-.8554 1.0816-.3597.6309-.8712 1.1616-1.4803 1.5344-.39.2385-.741.5369-1.0435.8868l-.0232.0269c-.4569.5284-1.0385.9371-1.6812 1.1818l-.189.0716c-.3192.1209-.6249.281-.9084.4747l-.741.5056.4882-.7681c.1869-.2939.3408-.6108.458-.9416l.0692-.1954c.2354-.6668.6297-1.2691 1.14-1.7427l.0254-.0236c.3375-.3129.6254-.6768.8555-1.0815.3591-.631.8706-1.1611 1.4792-1.534.0005 0 .0005-.0005.0011-.0005.3899-.2385.741-.5369 1.0434-.8868l.0232-.0269c.4569-.529 1.0386-.9371 1.6812-1.1817l.1891-.0717c.3191-.1215.6248-.281.9083-.4747l.741-.5056-.4882.7681c-.1869.2945-.3413.6114-.458.9422z" fill="#69c49a"/><path d="m34.6348 63.5623c-.4688 0-.8501.3952-.8501.8811s.3813.8812.8501.8812.8501-.3953.8501-.8812-.3813-.8811-.8501-.8811z" fill="#69c49a"/><path d="m23.7499 78.3041c.2485.5363.6217 1.2176 1.3075 1.7326.6508.4994 1.5495.7916 2.4076.7866.8598.0056 1.7585-.2872 2.4087-.786.6934-.5212 1.0618-1.2025 1.3053-1.7377.0416-.1036.0848-.2111.128-.3191.1512-.3773.3041-.7586.4882-1.1622l-.4412-.9909-1.1978 2.6911c-.0179.0397-.0562.0649-.0983.0649-.0422 0-.0805-.0252-.0983-.0649l-1.1984-2.6911-1.1984 2.6911c-.0178.0397-.0562.0649-.0983.0649s-.0805-.0252-.0983-.0649l-1.1979-2.6905-1.1978 2.6905c-.0178.0397-.0562.0649-.0983.0649s-.0805-.0252-.0983-.0649l-1.1979-2.6905-.4417.992c.1863.4092.3397.7949.492 1.1773.0416.103.0826.2049.1236.3068z" fill="#fff9c6"/><path d="m33.7731 73.6401c-3.9818 1.6011-8.635 1.6011-12.6169 0 .9219 1.1745 1.4636 2.0994 1.8568 2.9195l.4655-1.0452c.0178-.0397.0562-.0649.0983-.0649s.0805.0252.0983.0649l1.1978 2.6905 1.1979-2.6905c.0178-.0397.0562-.0649.0983-.0649s.0805.0252.0983.0649l1.1978 2.6905 1.1979-2.6905c.0178-.0397.0561-.0649.0983-.0649.0421 0 .0804.0252.0983.0649l1.1984 2.6911 1.1978-2.6911c.0178-.0397.0562-.0649.0983-.0649s.0805.0252.0983.0649l.465 1.0447c.3921-.8202.9337-1.7445 1.8556-2.919z" fill="#fff9c6"/><path d="m34.2119 73.4435c.0324-.0398.034-.0969.0043-.1383s-.0826-.0571-.1285-.0369c-4.1466 1.7998-9.0984 1.8003-13.2455 0-.0459-.0202-.0994-.0045-.1285.0369-.0292.0414-.0276.0991.0043.1383 1.686 2.0696 2.2061 3.3763 2.7089 4.6403.0411.1036.0821.2066.1237.3102.0005.0017.0016.0033.0021.0056.2593.5604.6503 1.2741 1.3756 1.8194.6886.5285 1.5996.8302 2.5037.8302h.0632c.9057 0 1.8167-.3017 2.5048-.8296.7323-.5503 1.1184-1.263 1.3744-1.8267.0438-.1081.087-.2161.1307-.3242.505-1.2607 1.0272-2.5634 2.7068-4.6252zm-2.8591 2.0064c-.0421 0-.0804.0252-.0983.0649l-1.1978 2.6911-1.1984-2.6911c-.0178-.0397-.0562-.0649-.0983-.0649s-.0805.0252-.0983.0649l-1.1978 2.6905-1.1979-2.6905c-.0178-.0397-.0562-.0649-.0983-.0649s-.0805.0252-.0983.0649l-1.1978 2.6905-1.1979-2.6905c-.0178-.0397-.0561-.0649-.0983-.0649-.0421 0-.0804.0252-.0983.0649l-.4655 1.0452c-.3932-.8201-.9348-1.745-1.8567-2.9195 3.9818 1.6011 8.635 1.6011 12.6169 0-.9219 1.1745-1.4636 2.0988-1.8579 2.9189l-.4649-1.0446c-.0157-.0392-.0541-.0649-.0962-.0649zm-7.7763.3795 1.1979 2.6905c.0178.0398.0561.065.0982.065.0422 0 .0805-.0252.0983-.065l1.1979-2.6905 1.1978 2.6905c.0179.0398.0562.065.0983.065.0422 0 .0805-.0252.0983-.065l1.1984-2.691 1.1984 2.691c.0178.0398.0562.065.0983.065s.0805-.0252.0983-.065l1.1978-2.691.4413.9909c-.1842.4036-.337.7848-.4882 1.1622-.0432.108-.0865.2155-.128.3191-.2436.5351-.6114 1.2159-1.3054 1.7376-.6497.4988-1.5489.7916-2.4086.786-.8582.0051-1.7568-.2872-2.4076-.7865-.6859-.5156-1.0591-1.1964-1.3075-1.7327-.041-.1024-.0815-.2043-.1226-.3062-.1523-.3818-.3057-.7681-.492-1.1773z" fill="#69c49a"/></svg>