<svg width="48" height="48" viewBox="0 0 48 48" fill="none" xmlns="http://www.w3.org/2000/svg">
<path d="M44.1387 38.7578L41.1255 31.2042C39.9627 28.231 39.3609 25.0681 39.3506 21.8756H35.7183C35.8555 24.6657 36.4553 27.4136 37.4932 30.0071L40.5889 37.8497C40.9126 38.6735 40.9279 39.5865 40.6322 40.4207C40.3364 41.2549 39.7494 41.9542 38.9791 42.3902C38.7118 42.8787 38.3177 43.2861 37.8382 43.5695C37.3588 43.8528 36.8118 44.0015 36.2549 44H40.5889C41.2123 43.9962 41.8253 43.8407 42.3751 43.5469C42.9248 43.2531 43.3948 42.8298 43.7443 42.3137C44.0938 41.7976 44.3124 41.2041 44.3811 40.5845C44.4498 39.965 44.3666 39.338 44.1387 38.7578Z" fill="#113484"/>
<path d="M27.9168 5.24107C29.4028 5.24107 30.4347 6.14916 30.2283 7.26363L29.3615 11.3088H23.913L24.7385 7.26363C24.9862 6.14916 26.4309 5.24107 27.9168 5.24107ZM27.9168 4.00276C25.8117 4.00276 23.913 5.32362 23.5415 7.01597L22.6747 11.0611L22.3857 12.5471H30.3522L30.5586 11.5977L31.4254 7.51129C31.5157 7.11706 31.5143 6.70735 31.4212 6.31374C31.3282 5.92014 31.146 5.55315 30.8888 5.24107C30.5126 4.83179 30.052 4.50909 29.5389 4.29529C29.0258 4.08148 28.4723 3.98168 27.9168 4.00276Z" fill="#09235E"/>
<path d="M21.0236 7.51135H27.4215C30.5781 7.51133 33.606 8.76247 35.842 10.9907C38.0779 13.2189 39.3395 16.2425 39.3505 19.3991V39.2945H21.0236V7.51135Z" fill="#09235E"/>
<path d="M39.3505 39.2944V40.9042C39.3505 41.7253 39.0243 42.5127 38.4438 43.0933C37.8632 43.6738 37.0758 44 36.2547 44H29.8568C30.6779 44 31.4653 43.6738 32.0458 43.0933C32.6264 42.5127 32.9526 41.7253 32.9526 40.9042V39.2944H39.3505Z" fill="#98B7F7"/>
<path d="M21.0237 7.51135C24.1803 7.51133 27.2083 8.76247 29.4442 10.9907C31.6802 13.2189 32.9418 16.2425 32.9527 19.3991V39.2945H9.13599V19.3991C9.14687 16.2496 10.4028 13.2322 12.6298 11.0052C14.8569 8.77818 17.8742 7.52223 21.0237 7.51135Z" fill="#305DCE"/>
<path d="M9.1359 39.2944V40.9042C9.13043 41.3088 9.2054 41.7104 9.35645 42.0858C9.50751 42.4612 9.73163 42.8028 10.0158 43.0908C10.3 43.3788 10.6386 43.6075 11.0119 43.7636C11.3852 43.9197 11.7858 44 12.1904 44H29.8569C30.6779 44 31.4653 43.6738 32.0459 43.0933C32.6265 42.5127 32.9526 41.7253 32.9526 40.9042V39.2944H9.1359Z" fill="white"/>
<path d="M31.1777 19.3991C31.0132 16.8233 29.874 14.4068 27.9917 12.6409C26.1094 10.8749 23.6252 9.89203 21.0442 9.89203C18.4632 9.89203 15.979 10.8749 14.0967 12.6409C12.2144 14.4068 11.0752 16.8233 10.9108 19.3991V22.7425H31.1777V19.3991Z" fill="#113484"/>
<path d="M24.4496 9.86407C22.4837 10.5687 20.7829 11.8622 19.5789 13.5685C18.3749 15.2747 17.7263 17.3107 17.7214 19.399V22.7424H31.1777V19.399C31.1728 17.3107 30.5242 15.2747 29.3202 13.5685C28.1162 11.8622 26.4154 10.5687 24.4496 9.86407Z" fill="#09235E"/>
<path d="M29.4441 23.1965H28.2471V15.6841H28.9075C29.0498 15.6841 29.1863 15.7406 29.2869 15.8413C29.3876 15.9419 29.4441 16.0784 29.4441 16.2207V23.1965Z" fill="#D954E6"/>
<path d="M17.8039 15.6841H28.247C28.3893 15.6841 28.5258 15.7406 28.6264 15.8412C28.727 15.9419 28.7836 16.0784 28.7836 16.2207V23.1965H17.2673V16.2207C17.2673 16.0784 17.3239 15.9419 17.4245 15.8412C17.5251 15.7406 17.6616 15.6841 17.8039 15.6841Z" fill="#C136CE"/>
<path d="M27.2977 23.1965H26.1007V15.6841H26.7611C26.9034 15.6841 27.0399 15.7406 27.1406 15.8413C27.2412 15.9419 27.2977 16.0784 27.2977 16.2207V23.1965Z" fill="#D954E6"/>
<path d="M15.6164 15.6841H26.0595C26.2018 15.6841 26.3383 15.7406 26.4389 15.8412C26.5395 15.9419 26.5961 16.0784 26.5961 16.2207V23.1965H15.1211V16.2207C15.1207 16.0852 15.1715 15.9547 15.2634 15.8551C15.3553 15.7556 15.4814 15.6945 15.6164 15.6841Z" fill="#F47FFF"/>
<path d="M28.2471 16.4271H27.2565V23.18H28.2471V16.4271Z" fill="#D4E4FF"/>
<path d="M31.1777 22.7425V19.3991C31.0132 16.8233 29.874 14.4068 27.9917 12.6409C26.1094 10.8749 23.6252 9.89203 21.0442 9.89203C18.4632 9.89203 15.979 10.8749 14.0967 12.6409C12.2144 14.4068 11.0752 16.8233 10.9108 19.3991V22.7425" stroke="black" stroke-miterlimit="10" stroke-linecap="round"/>
<path d="M31.1778 33.1029V22.7425C31.1778 20.7612 29.2378 19.2339 27.3803 19.8531C26.8917 20.0174 26.4519 20.3012 26.1008 20.6786H9.13599V33.1029H31.1778Z" fill="url(#paint0_linear)"/>
<path d="M28.3296 19.6879C27.8995 19.6879 27.4743 19.78 27.0827 19.958C26.6911 20.136 26.3422 20.3958 26.0594 20.7198C24.9901 21.8793 23.7843 22.905 22.4683 23.7743C19.744 25.6318 16.6483 26.7463 13.8827 26.7463C11.1172 26.7463 9.0946 25.6318 8.14523 23.8156C7.93809 23.3791 7.84371 22.8977 7.87073 22.4153C7.89775 21.9329 8.04531 21.465 8.2999 21.0543C8.55449 20.6437 8.90798 20.3035 9.32804 20.0648C9.74811 19.8261 10.2213 19.6965 10.7044 19.6879H28.3296Z" fill="#4A76E6"/>
<path d="M31.1777 21.0088V32.6489" stroke="black" stroke-miterlimit="10" stroke-linecap="round"/>
<path d="M35.5118 17.4177V20.7612C35.5118 20.8159 35.5335 20.8684 35.5722 20.9071C35.6109 20.9458 35.6634 20.9675 35.7182 20.9675C35.7729 20.9675 35.8254 20.9458 35.8641 20.9071C35.9028 20.8684 35.9246 20.8159 35.9246 20.7612V17.4177C35.9283 15.3342 35.2987 13.2987 34.1193 11.5811C32.9398 9.86352 31.2662 8.54496 29.3203 7.80024C28.8515 7.5982 28.3446 7.49965 27.8343 7.5113H25.6053C28.2294 7.52217 30.7428 8.56937 32.5982 10.4248C34.4537 12.2803 35.5009 14.7937 35.5118 17.4177Z" fill="black"/>
<path d="M35.7181 32.8553C35.6634 32.8553 35.6109 32.8335 35.5722 32.7948C35.5335 32.7561 35.5117 32.7036 35.5117 32.6489V21.0088C35.5117 20.9541 35.5335 20.9016 35.5722 20.8629C35.6109 20.8242 35.6634 20.8024 35.7181 20.8024C35.7728 20.8024 35.8253 20.8242 35.864 20.8629C35.9027 20.9016 35.9245 20.9541 35.9245 21.0088V32.6489C35.9245 32.7036 35.9027 32.7561 35.864 32.7948C35.8253 32.8335 35.7728 32.8553 35.7181 32.8553Z" fill="black"/>
<path d="M31.1364 21.8757C31.0788 21.8699 31.0207 21.8763 30.9657 21.8944C30.9108 21.9125 30.8603 21.942 30.8175 21.9809C30.7746 22.0199 30.7405 22.0673 30.7172 22.1203C30.6939 22.1733 30.6821 22.2306 30.6824 22.2884L30.5173 23.8982C30.5054 23.9862 30.5126 24.0757 30.5384 24.1606C30.5642 24.2455 30.6079 24.3239 30.6666 24.3905C30.7253 24.457 30.7977 24.5101 30.8787 24.5463C30.9598 24.5824 31.0477 24.6007 31.1364 24.5999C31.2267 24.6001 31.3161 24.5818 31.399 24.546C31.482 24.5103 31.5567 24.4579 31.6186 24.3921C31.6805 24.3264 31.7283 24.2486 31.7589 24.1637C31.7896 24.0787 31.8025 23.9884 31.7968 23.8982L31.6317 22.2884C31.612 22.1718 31.5513 22.0661 31.4604 21.9904C31.3696 21.9147 31.2546 21.874 31.1364 21.8757Z" fill="#F47FFF"/>
<path d="M35.7182 29.1817C35.6585 29.176 35.5983 29.1822 35.541 29.1999C35.4838 29.2176 35.4306 29.2465 35.3845 29.2849C35.3385 29.3232 35.3005 29.3704 35.2727 29.4235C35.245 29.4766 35.228 29.5347 35.2229 29.5944L35.099 31.2042C35.0872 31.2922 35.0944 31.3817 35.1202 31.4666C35.146 31.5515 35.1897 31.6299 35.2484 31.6965C35.3071 31.763 35.3795 31.8161 35.4605 31.8523C35.5416 31.8884 35.6294 31.9067 35.7182 31.9059C35.8069 31.9067 35.8948 31.8884 35.9759 31.8523C36.0569 31.8161 36.1293 31.763 36.188 31.6965C36.2467 31.6299 36.2904 31.5515 36.3162 31.4666C36.342 31.3817 36.3492 31.2922 36.3373 31.2042L36.2135 29.5944C36.1938 29.4778 36.133 29.3721 36.0422 29.2964C35.9514 29.2207 35.8364 29.18 35.7182 29.1817Z" fill="#C136CE"/>
<path d="M24.6559 32.6076H25.2337L25.6052 32.6901C25.6231 32.6222 25.6368 32.5533 25.6465 32.4837C25.6465 32.4509 25.6595 32.4194 25.6828 32.3962C25.706 32.373 25.7375 32.3599 25.7703 32.3599H25.8116C25.8942 32.3599 25.9354 32.4425 25.9354 32.525C25.8963 32.7335 25.8118 32.9308 25.6878 33.1029L26.2657 32.9791C26.4919 32.9266 26.7289 32.9461 26.9435 33.0349C27.1581 33.1237 27.3396 33.2774 27.4627 33.4744H27.6691C27.8162 33.4467 27.9683 33.4733 28.0973 33.5492C28.2263 33.6251 28.3235 33.7452 28.3708 33.8871L28.5359 34.754C28.5603 34.9014 28.5266 35.0525 28.4419 35.1757C28.3573 35.2988 28.2282 35.3844 28.0818 35.4144H27.958C27.9941 35.5639 27.9988 35.7192 27.972 35.8706C27.9451 36.022 27.8872 36.1662 27.8019 36.2941C27.7167 36.4221 27.6058 36.531 27.4764 36.614C27.347 36.697 27.2018 36.7523 27.0499 36.7765L23.9954 37.437C23.8463 37.467 23.6928 37.4674 23.5436 37.438C23.3944 37.4086 23.2524 37.35 23.1259 37.2657C22.9993 37.1813 22.8907 37.0728 22.8061 36.9464C22.7216 36.8199 22.6629 36.678 22.6333 36.5289H22.5095C22.4335 36.547 22.3546 36.5495 22.2776 36.5363C22.2006 36.5231 22.1271 36.4944 22.0615 36.4519C21.9959 36.4095 21.9396 36.3542 21.896 36.2894C21.8524 36.2245 21.8224 36.1516 21.8078 36.0748L21.6426 35.2493C21.6245 35.1733 21.622 35.0944 21.6352 35.0174C21.6485 34.9404 21.6772 34.8669 21.7196 34.8013C21.762 34.7357 21.8173 34.6794 21.8822 34.6358C21.947 34.5922 22.02 34.5622 22.0967 34.5476H22.3031C22.3423 34.3233 22.4447 34.1148 22.5982 33.9467C22.7518 33.7785 22.9501 33.6576 23.1699 33.5982H23.5414C23.6218 33.3527 23.7684 33.1342 23.965 32.9667C24.1617 32.7992 24.4007 32.6892 24.6559 32.6488V32.6076ZM24.532 32.1535C24.2063 32.2207 23.9059 32.378 23.6652 32.6076C23.4695 32.7436 23.313 32.9287 23.2112 33.1442H23.0873C22.7586 33.2271 22.4588 33.3984 22.2205 33.6395C22.0855 33.7787 21.9863 33.9487 21.9316 34.1348C21.6759 34.2118 21.4581 34.3813 21.3207 34.6103C21.1833 34.8393 21.1362 35.1113 21.1886 35.3731L21.3537 36.2399C21.4071 36.4663 21.5326 36.6692 21.7112 36.8181C21.8899 36.967 22.1121 37.0538 22.3444 37.0655C22.4528 37.3132 22.642 37.5169 22.881 37.6433C23.0537 37.7626 23.2487 37.846 23.4543 37.8886C23.66 37.9311 23.872 37.9319 24.078 37.891L27.1737 37.2306C27.5746 37.1413 27.9278 36.9058 28.1644 36.5701C28.3204 36.3347 28.4193 36.0662 28.4533 35.7859C28.6644 35.6871 28.834 35.5171 28.9321 35.3057C29.0302 35.0943 29.0507 34.8551 28.9899 34.6301L28.8248 33.8046C28.8049 33.6737 28.7589 33.5481 28.6896 33.4353C28.6203 33.3225 28.529 33.2247 28.4213 33.1477C28.3135 33.0708 28.1915 33.0162 28.0623 32.9872C27.9331 32.9583 27.7994 32.9555 27.6691 32.9791C27.5182 32.819 27.3354 32.6924 27.1325 32.6076C26.9207 32.4843 26.6719 32.4404 26.4308 32.4837C26.4179 32.3481 26.3634 32.2197 26.2747 32.1163C26.186 32.0128 26.0675 31.9393 25.9354 31.9059C25.8978 31.8841 25.8551 31.8727 25.8116 31.8727C25.7681 31.8727 25.7254 31.8841 25.6878 31.9059C25.6151 31.9132 25.5446 31.9352 25.4807 31.9707C25.4168 32.0062 25.3609 32.0544 25.3163 32.1122C25.0565 32.0713 24.7918 32.0713 24.532 32.1122V32.1535Z" fill="#D4E4FF"/>
<path d="M28.082 35.4144L27.6692 35.497L27.2565 33.5157L27.6692 33.4331C27.8218 33.4075 27.9784 33.4399 28.1083 33.5239C28.2381 33.6079 28.3318 33.7375 28.3709 33.8872L28.5361 34.754C28.5604 34.9014 28.5268 35.0526 28.4421 35.1757C28.3575 35.2988 28.2284 35.3844 28.082 35.4144Z" fill="#AABFF2"/>
<path d="M27.772 33.8532L27.4891 33.9123C27.3329 33.9449 27.2328 34.098 27.2654 34.2542L27.3827 34.8158C27.4153 34.972 27.5684 35.0722 27.7246 35.0396L28.0075 34.9805C28.1637 34.9479 28.2638 34.7948 28.2312 34.6386L28.1139 34.0769C28.0812 33.9207 27.9282 33.8206 27.772 33.8532Z" fill="#7D94DF"/>
<path d="M22.5095 36.5702L22.9223 36.4876L22.5095 34.5063L22.0968 34.5889C22.02 34.6035 21.947 34.6335 21.8822 34.6771C21.8174 34.7208 21.7621 34.7771 21.7197 34.8427C21.6772 34.9082 21.6485 34.9817 21.6353 35.0587C21.6221 35.1357 21.6246 35.2146 21.6427 35.2906L21.8078 36.1161C21.8224 36.1929 21.8524 36.2659 21.8961 36.3307C21.9397 36.3955 21.996 36.4508 22.0616 36.4932C22.1272 36.5357 22.2007 36.5644 22.2777 36.5776C22.3547 36.5908 22.4335 36.5883 22.5095 36.5702Z" fill="#AABFF2"/>
<path d="M22.4979 34.9513L22.2151 35.0104C22.0589 35.0431 21.9587 35.1961 21.9913 35.3524L22.1087 35.914C22.1413 36.0702 22.2944 36.1704 22.4506 36.1377L22.7334 36.0786C22.8896 36.046 22.9898 35.8929 22.9572 35.7367L22.8398 35.1751C22.8072 35.0189 22.6541 34.9187 22.4979 34.9513Z" fill="#7D94DF"/>
<path d="M23.9956 37.4369L27.0501 36.7765C27.1993 36.7469 27.3411 36.6882 27.4676 36.6036C27.594 36.5191 27.7025 36.4105 27.7869 36.2839C27.8712 36.1574 27.9298 36.0154 27.9592 35.8662C27.9886 35.717 27.9882 35.5635 27.9582 35.4144L27.628 33.8459C27.559 33.5522 27.3779 33.2971 27.1234 33.1352C26.8688 32.9732 26.5611 32.9172 26.2658 32.979L23.1701 33.5982C22.8764 33.6672 22.6213 33.8483 22.4594 34.1028C22.2974 34.3573 22.2414 34.6651 22.3033 34.9603L22.6335 36.5288C22.6631 36.678 22.7218 36.8199 22.8063 36.9463C22.8909 37.0728 22.9995 37.1813 23.126 37.2656C23.2526 37.35 23.3945 37.4086 23.5438 37.4379C23.693 37.4673 23.8465 37.467 23.9956 37.4369Z" fill="#AABFF2"/>
<path d="M25.6054 36.0335L25.0688 36.1574C24.9197 36.1874 24.7661 36.1878 24.6169 36.1584C24.4677 36.129 24.3258 36.0704 24.1992 35.9861C24.0727 35.9017 23.964 35.7932 23.8795 35.6668C23.795 35.5403 23.7362 35.3985 23.7066 35.2493L23.6241 34.9603C23.5997 34.8129 23.6334 34.6618 23.718 34.5386C23.8027 34.4155 23.9317 34.3299 24.0781 34.2999L25.7292 33.9284C25.8806 33.9116 26.0331 33.9476 26.161 34.0303C26.2889 34.1131 26.3842 34.2375 26.4309 34.3825V34.6714C26.4678 34.8151 26.4756 34.9647 26.4539 35.1115C26.4322 35.2582 26.3814 35.3992 26.3045 35.526C26.2276 35.6529 26.1262 35.7631 26.0061 35.8503C25.8861 35.9374 25.7498 35.9997 25.6054 36.0335Z" fill="#CBDAF7"/>
<path d="M25.7911 35.2363L25.4679 35.3038C25.4009 35.3178 25.358 35.3834 25.372 35.4503L25.3804 35.4907C25.3944 35.5577 25.46 35.6006 25.527 35.5866L25.8502 35.5191C25.9172 35.5051 25.9601 35.4395 25.9461 35.3725L25.9377 35.3321C25.9237 35.2652 25.8581 35.2223 25.7911 35.2363Z" fill="#AABFF2"/>
<path d="M24.9032 35.4588L24.58 35.5263C24.513 35.5403 24.4701 35.6059 24.4841 35.6728L24.4925 35.7133C24.5065 35.7802 24.5721 35.8231 24.639 35.8091L24.9623 35.7416C25.0292 35.7276 25.0722 35.662 25.0582 35.5951L25.0497 35.5547C25.0357 35.4877 24.9701 35.4448 24.9032 35.4588Z" fill="#AABFF2"/>
<path d="M27.333 34.6471C27.3004 34.4909 27.1473 34.3908 26.9911 34.4234C26.8349 34.456 26.7347 34.6091 26.7673 34.7653C26.8 34.9215 26.9531 35.0217 27.1093 34.9891C27.2655 34.9564 27.3656 34.8033 27.333 34.6471Z" fill="#333132"/>
<path d="M23.4562 35.4645C23.4235 35.3083 23.2705 35.2081 23.1143 35.2407C22.958 35.2734 22.8579 35.4264 22.8905 35.5826C22.9231 35.7388 23.0762 35.839 23.2324 35.8064C23.3886 35.7737 23.4888 35.6207 23.4562 35.4645Z" fill="#333132"/>
<path d="M23.5415 33.5983H23.5002C23.6283 33.2545 23.8701 32.9647 24.1853 32.777C24.5006 32.5894 24.8706 32.515 25.2339 32.5664L25.8943 32.6902C25.8221 32.9217 25.6985 33.1338 25.5328 33.3109C25.367 33.4879 25.1635 33.6252 24.9372 33.7125C24.711 33.7998 24.468 33.8349 24.2263 33.8151C23.9846 33.7953 23.7505 33.7212 23.5415 33.5983Z" fill="#A9E563"/>
<path d="M25.6467 32.4838C25.625 32.6634 25.5614 32.8354 25.461 32.986C25.3606 33.1365 25.2263 33.2614 25.0688 33.3506V33.557C25.1101 33.5982 25.234 33.6395 25.2752 33.5982C25.455 33.4816 25.6096 33.3302 25.7301 33.153C25.8506 32.9758 25.9345 32.7764 25.9769 32.5663C25.9769 32.4838 25.9357 32.4012 25.8531 32.4012C25.7293 32.3599 25.688 32.4012 25.6467 32.4838Z" fill="#A9E563"/>
<path d="M25.1309 33.0219C25.1743 33.008 25.201 32.9703 25.1906 32.9377C25.1801 32.9052 25.1364 32.8901 25.093 32.904L24.0358 33.2434C23.9924 33.2574 23.9657 33.2951 23.9762 33.3276C23.9866 33.3602 24.0303 33.3753 24.0737 33.3613L25.1309 33.0219Z" fill="#6ABB6B"/>
<path d="M28.082 35.4144L27.6692 35.497L27.2565 33.5157L27.6692 33.4331C27.8218 33.4075 27.9784 33.4399 28.1083 33.5239C28.2381 33.6079 28.3318 33.7375 28.3709 33.8872L28.5361 34.754C28.5604 34.9014 28.5268 35.0526 28.4421 35.1757C28.3575 35.2988 28.2284 35.3844 28.082 35.4144Z" fill="white"/>
<path opacity="0.8" d="M28.082 35.4144L27.6692 35.497L27.2565 33.5157L27.6692 33.4331C27.8218 33.4075 27.9784 33.4399 28.1083 33.5239C28.2381 33.6079 28.3318 33.7375 28.3709 33.8872L28.5361 34.754C28.5604 34.9014 28.5268 35.0526 28.4421 35.1757C28.3575 35.2988 28.2284 35.3844 28.082 35.4144Z" fill="#7A93DC"/>
<path d="M27.772 33.8532L27.4891 33.9123C27.3329 33.9449 27.2328 34.098 27.2654 34.2542L27.3827 34.8158C27.4153 34.972 27.5684 35.0722 27.7246 35.0396L28.0075 34.9805C28.1637 34.9479 28.2638 34.7948 28.2312 34.6386L28.1139 34.0769C28.0812 33.9207 27.9282 33.8206 27.772 33.8532Z" fill="#7A93DC"/>
<path d="M22.5095 36.5702L22.9223 36.4876L22.5095 34.5063L22.0968 34.5889C22.02 34.6035 21.947 34.6335 21.8822 34.6771C21.8174 34.7208 21.7621 34.7771 21.7197 34.8427C21.6772 34.9082 21.6485 34.9817 21.6353 35.0587C21.6221 35.1357 21.6246 35.2146 21.6427 35.2906L21.8078 36.1161C21.8224 36.1929 21.8524 36.2659 21.8961 36.3307C21.9397 36.3955 21.996 36.4508 22.0616 36.4932C22.1272 36.5357 22.2007 36.5644 22.2777 36.5776C22.3547 36.5908 22.4335 36.5883 22.5095 36.5702Z" fill="white"/>
<path opacity="0.8" d="M22.5095 36.5702L22.9223 36.4876L22.5095 34.5063L22.0968 34.5889C22.02 34.6035 21.947 34.6335 21.8822 34.6771C21.8174 34.7208 21.7621 34.7771 21.7197 34.8427C21.6772 34.9082 21.6485 34.9817 21.6353 35.0587C21.6221 35.1357 21.6246 35.2146 21.6427 35.2906L21.8078 36.1161C21.8224 36.1929 21.8524 36.2659 21.8961 36.3307C21.9397 36.3955 21.996 36.4508 22.0616 36.4932C22.1272 36.5357 22.2007 36.5644 22.2777 36.5776C22.3547 36.5908 22.4335 36.5883 22.5095 36.5702Z" fill="#7A93DC"/>
<path d="M22.4979 34.9513L22.2151 35.0104C22.0589 35.0431 21.9587 35.1961 21.9913 35.3524L22.1087 35.914C22.1413 36.0702 22.2944 36.1704 22.4506 36.1377L22.7334 36.0786C22.8896 36.046 22.9898 35.8929 22.9572 35.7367L22.8398 35.1751C22.8072 35.0189 22.6541 34.9187 22.4979 34.9513Z" fill="#7A93DC"/>
<path d="M23.9956 37.4369L27.0501 36.7765C27.1993 36.7469 27.3411 36.6882 27.4676 36.6036C27.594 36.5191 27.7025 36.4105 27.7869 36.2839C27.8712 36.1574 27.9298 36.0154 27.9592 35.8662C27.9886 35.717 27.9882 35.5635 27.9582 35.4144L27.628 33.8459C27.559 33.5522 27.3779 33.2971 27.1234 33.1352C26.8688 32.9732 26.5611 32.9172 26.2658 32.979L23.1701 33.5982C22.8764 33.6672 22.6213 33.8483 22.4594 34.1028C22.2974 34.3573 22.2414 34.6651 22.3033 34.9603L22.6335 36.5288C22.6631 36.678 22.7218 36.8199 22.8063 36.9463C22.8909 37.0728 22.9995 37.1813 23.126 37.2656C23.2526 37.35 23.3945 37.4086 23.5438 37.4379C23.693 37.4673 23.8465 37.467 23.9956 37.4369Z" fill="white"/>
<path opacity="0.6" d="M23.9956 37.4369L27.0501 36.7765C27.1993 36.7469 27.3411 36.6882 27.4676 36.6036C27.594 36.5191 27.7025 36.4105 27.7869 36.2839C27.8712 36.1574 27.9298 36.0154 27.9592 35.8662C27.9886 35.717 27.9882 35.5635 27.9582 35.4144L27.628 33.8459C27.559 33.5522 27.3779 33.2971 27.1234 33.1352C26.8688 32.9732 26.5611 32.9172 26.2658 32.979L23.1701 33.5982C22.8764 33.6672 22.6213 33.8483 22.4594 34.1028C22.2974 34.3573 22.2414 34.6651 22.3033 34.9603L22.6335 36.5288C22.6631 36.678 22.7218 36.8199 22.8063 36.9463C22.8909 37.0728 22.9995 37.1813 23.126 37.2656C23.2526 37.35 23.3945 37.4086 23.5438 37.4379C23.693 37.4673 23.8465 37.467 23.9956 37.4369Z" fill="#7A93DC"/>
<path d="M25.6054 36.0335L25.0688 36.1574C24.9197 36.1874 24.7661 36.1878 24.6169 36.1584C24.4677 36.129 24.3258 36.0704 24.1992 35.9861C24.0727 35.9017 23.964 35.7932 23.8795 35.6668C23.795 35.5403 23.7362 35.3985 23.7066 35.2493L23.6241 34.9603C23.5997 34.8129 23.6334 34.6618 23.718 34.5386C23.8027 34.4155 23.9317 34.3299 24.0781 34.2999L25.7292 33.9284C25.8806 33.9116 26.0331 33.9476 26.161 34.0303C26.2889 34.1131 26.3842 34.2375 26.4309 34.3825V34.6714C26.4678 34.8151 26.4756 34.9647 26.4539 35.1115C26.4322 35.2582 26.3814 35.3992 26.3045 35.526C26.2276 35.6529 26.1262 35.7631 26.0061 35.8503C25.8861 35.9374 25.7498 35.9997 25.6054 36.0335Z" fill="white"/>
<path opacity="0.3" d="M25.6054 36.0335L25.0688 36.1574C24.9197 36.1874 24.7661 36.1878 24.6169 36.1584C24.4677 36.129 24.3258 36.0704 24.1992 35.9861C24.0727 35.9017 23.964 35.7932 23.8795 35.6668C23.795 35.5403 23.7362 35.3985 23.7066 35.2493L23.6241 34.9603C23.5997 34.8129 23.6334 34.6618 23.718 34.5386C23.8027 34.4155 23.9317 34.3299 24.0781 34.2999L25.7292 33.9284C25.8806 33.9116 26.0331 33.9476 26.161 34.0303C26.2889 34.1131 26.3842 34.2375 26.4309 34.3825V34.6714C26.4678 34.8151 26.4756 34.9647 26.4539 35.1115C26.4322 35.2582 26.3814 35.3992 26.3045 35.526C26.2276 35.6529 26.1262 35.7631 26.0061 35.8503C25.8861 35.9374 25.7498 35.9997 25.6054 36.0335Z" fill="#7A93DC"/>
<path d="M25.7911 35.2363L25.4679 35.3038C25.4009 35.3178 25.358 35.3834 25.372 35.4503L25.3804 35.4907C25.3944 35.5577 25.46 35.6006 25.527 35.5866L25.8502 35.5191C25.9172 35.5051 25.9601 35.4395 25.9461 35.3725L25.9377 35.3321C25.9237 35.2652 25.8581 35.2223 25.7911 35.2363Z" fill="white"/>
<path d="M24.9032 35.4588L24.58 35.5263C24.513 35.5403 24.4701 35.6059 24.4841 35.6728L24.4925 35.7133C24.5065 35.7802 24.5721 35.8231 24.639 35.8091L24.9623 35.7416C25.0292 35.7276 25.0722 35.662 25.0582 35.5951L25.0497 35.5547C25.0357 35.4877 24.9701 35.4448 24.9032 35.4588Z" fill="white"/>
<path opacity="0.6" d="M25.7911 35.2363L25.4679 35.3038C25.4009 35.3178 25.358 35.3834 25.372 35.4503L25.3804 35.4907C25.3944 35.5577 25.46 35.6006 25.527 35.5866L25.8502 35.5191C25.9172 35.5051 25.9601 35.4395 25.9461 35.3725L25.9377 35.3321C25.9237 35.2652 25.8581 35.2223 25.7911 35.2363Z" fill="#7A93DC"/>
<path opacity="0.6" d="M24.9032 35.4588L24.58 35.5263C24.513 35.5403 24.4701 35.6059 24.4841 35.6728L24.4925 35.7133C24.5065 35.7802 24.5721 35.8231 24.639 35.8091L24.9623 35.7416C25.0292 35.7276 25.0722 35.662 25.0582 35.5951L25.0497 35.5547C25.0357 35.4877 24.9701 35.4448 24.9032 35.4588Z" fill="#7A93DC"/>
<path d="M27.333 34.6471C27.3004 34.4909 27.1473 34.3908 26.9911 34.4234C26.8349 34.456 26.7347 34.6091 26.7673 34.7653C26.8 34.9215 26.9531 35.0217 27.1093 34.9891C27.2655 34.9564 27.3656 34.8033 27.333 34.6471Z" fill="#333132"/>
<path d="M23.4562 35.4645C23.4235 35.3083 23.2705 35.2081 23.1143 35.2407C22.958 35.2734 22.8579 35.4264 22.8905 35.5826C22.9231 35.7388 23.0762 35.839 23.2324 35.8064C23.3886 35.7737 23.4888 35.6207 23.4562 35.4645Z" fill="#333132"/>
<path d="M23.5415 33.5983H23.5002C23.6283 33.2545 23.8701 32.9647 24.1853 32.777C24.5006 32.5894 24.8706 32.515 25.2339 32.5664L25.8943 32.6902C25.8221 32.9217 25.6985 33.1338 25.5328 33.3109C25.367 33.4879 25.1635 33.6252 24.9372 33.7125C24.711 33.7998 24.468 33.8349 24.2263 33.8151C23.9846 33.7953 23.7505 33.7212 23.5415 33.5983Z" fill="#A7E163"/>
<path d="M25.6467 32.4838C25.625 32.6634 25.5614 32.8354 25.461 32.986C25.3606 33.1365 25.2263 33.2614 25.0688 33.3506V33.557C25.1101 33.5982 25.234 33.6395 25.2752 33.5982C25.455 33.4816 25.6096 33.3302 25.7301 33.153C25.8506 32.9758 25.9345 32.7764 25.9769 32.5663C25.9769 32.4838 25.9357 32.4012 25.8531 32.4012C25.7293 32.3599 25.688 32.4012 25.6467 32.4838Z" fill="#A7E163"/>
<path d="M25.1309 33.0219C25.1743 33.008 25.201 32.9703 25.1906 32.9377C25.1801 32.9052 25.1364 32.8901 25.093 32.904L24.0358 33.2434C23.9924 33.2574 23.9657 33.2951 23.9762 33.3276C23.9866 33.3602 24.0303 33.3753 24.0737 33.3613L25.1309 33.0219Z" fill="#6ABB6B"/>
<path d="M25.6879 24.1458L24.2019 26.0445L24.5321 28.4386L26.4309 29.8833L27.9168 27.9846L27.5866 25.5905L25.6879 24.1458ZM27.0087 27.7369L26.307 28.6863L25.3164 27.9846L25.11 26.2922L25.853 25.3428L26.8023 26.0858L27.0087 27.7369Z" fill="#FB68F8"/>
<path d="M25.688 24.1458L27.5867 25.5905L27.917 27.9846L26.4723 29.8833L24.5323 28.4386L24.202 26.0446L25.688 24.1458ZM25.688 23.8156C25.6337 23.8139 25.5797 23.8241 25.5298 23.8455C25.4799 23.8669 25.4352 23.8989 25.3991 23.9395L23.9544 25.8795C23.9038 25.9366 23.8747 26.0096 23.8718 26.0858L24.202 28.4799C24.2193 28.5605 24.2628 28.6331 24.3259 28.6863L26.2659 30.1723H26.5135C26.5566 30.1758 26.5996 30.1657 26.6367 30.1435C26.6737 30.1213 26.7028 30.0881 26.7199 30.0484L28.1646 28.1497C28.2107 28.0745 28.2389 27.9898 28.2472 27.902L27.917 25.5492C27.8997 25.4686 27.8562 25.396 27.7931 25.3429L25.8531 23.8982L25.688 23.8156Z" fill="#FFC0FF"/>
<path d="M25.688 24.1458L25.8531 25.3428L26.8025 26.0858L27.5867 25.5905L25.688 24.1458Z" fill="#FFAAFC"/>
<path d="M25.3164 27.9846L24.5321 28.4386L26.4308 29.8833L26.307 28.6863L25.3164 27.9846Z" fill="#E74FD5"/>
<path d="M25.11 26.2922L25.3164 27.9846L26.307 28.6863L27.0087 27.7369L26.8023 26.0858L25.853 25.3428L25.11 26.2922Z" fill="#FFCDF9"/>
<path d="M26.8024 26.0858L25.3577 27.9846H25.3164L25.2751 27.5305L26.5135 25.8795L26.8024 26.0858Z" fill="white"/>
<path d="M26.885 26.705L26.9263 27.1591L25.9769 28.4386L25.688 28.2323L26.885 26.705Z" fill="white"/>
<path d="M27.3389 25.508L27.5453 25.8382C27.5866 25.9207 27.6691 25.9207 27.7104 25.7969L27.7929 25.4254C27.7929 25.4145 27.7973 25.404 27.805 25.3962C27.8128 25.3885 27.8233 25.3841 27.8342 25.3841L28.1644 25.1778C28.1863 25.1778 28.2073 25.1691 28.2228 25.1536C28.2383 25.1381 28.247 25.1171 28.247 25.0952C28.247 25.0733 28.2383 25.0523 28.2228 25.0368C28.2073 25.0213 28.1863 25.0126 28.1644 25.0126L27.7929 24.9301H27.7104L27.5453 24.5999C27.534 24.5828 27.5186 24.5689 27.5006 24.5592C27.4826 24.5496 27.4625 24.5445 27.4421 24.5445C27.4217 24.5445 27.4015 24.5496 27.3835 24.5592C27.3655 24.5689 27.3502 24.5828 27.3389 24.5999L27.2563 24.9714C27.2563 25.0126 27.2563 25.0539 27.2151 25.0539L26.8848 25.219C26.8678 25.2303 26.8539 25.2457 26.8442 25.2637C26.8345 25.2817 26.8295 25.3018 26.8295 25.3222C26.8295 25.3427 26.8345 25.3628 26.8442 25.3808C26.8539 25.3988 26.8678 25.4141 26.8848 25.4254H27.2976C27.2976 25.4667 27.3389 25.4667 27.3389 25.508Z" fill="white"/>
<path d="M27.4628 24.476L27.5454 24.5586L27.7105 24.8888H27.793L28.1645 24.9713C28.1864 24.9713 28.2074 24.98 28.2229 24.9955C28.2384 25.011 28.2471 25.032 28.2471 25.0539C28.2471 25.0758 28.2384 25.0968 28.2229 25.1123C28.2074 25.1278 28.1864 25.1365 28.1645 25.1365L27.8343 25.3428C27.8234 25.3428 27.8129 25.3472 27.8051 25.3549C27.7974 25.3627 27.793 25.3732 27.793 25.3841L27.7105 25.7556C27.7105 25.8382 27.6692 25.8382 27.6279 25.8382C27.5867 25.8382 27.5454 25.8382 27.5454 25.7969L27.339 25.4667C27.339 25.4254 27.2977 25.4254 27.2977 25.3841H26.885C26.8679 25.3728 26.854 25.3575 26.8443 25.3395C26.8346 25.3215 26.8296 25.3014 26.8296 25.2809C26.8296 25.2605 26.8346 25.2404 26.8443 25.2224C26.854 25.2044 26.8679 25.189 26.885 25.1777L27.2152 25.0126C27.2564 25.0126 27.2564 24.9713 27.2564 24.9301L27.339 24.5586L27.4628 24.476ZM27.4628 24.1458C27.3574 24.1513 27.2566 24.1903 27.1749 24.2571C27.0932 24.3239 27.035 24.4151 27.0088 24.5173V24.765L26.7611 24.8888C26.6765 24.9254 26.6085 24.9921 26.5704 25.076C26.5323 25.1599 26.5267 25.255 26.5547 25.3428C26.5637 25.4273 26.6014 25.5062 26.6615 25.5663C26.7216 25.6264 26.8004 25.6641 26.885 25.6731L27.1326 25.7556L27.2564 26.0033C27.3033 26.0686 27.3654 26.1215 27.4373 26.1575C27.5092 26.1934 27.5888 26.2113 27.6692 26.2097C27.7658 26.2116 27.86 26.1796 27.9354 26.1193C28.0108 26.059 28.0627 25.9741 28.082 25.8794V25.6318L28.3296 25.5079C28.4089 25.4651 28.4719 25.3976 28.5092 25.3156C28.5464 25.2336 28.5559 25.1417 28.536 25.0539C28.5366 24.9621 28.5032 24.8734 28.4422 24.8048C28.3812 24.7362 28.297 24.6926 28.2058 24.6824H27.9581L27.8343 24.4347C27.7938 24.3692 27.7397 24.3132 27.6756 24.2704C27.6115 24.2277 27.5389 24.1993 27.4628 24.1871V24.1458Z" fill="#FFC0FF"/>
<path d="M44.0147 16.4271C44.0147 16.1991 43.8299 16.0143 43.602 16.0143C43.374 16.0143 43.1892 16.1991 43.1892 16.4271V16.844C43.1892 17.072 43.374 17.2568 43.602 17.2568C43.8299 17.2568 44.0147 17.072 44.0147 16.844V16.4271Z" fill="#4A76E6"/>
<path d="M44.0147 19.7292C44.0147 19.5012 43.8299 19.3164 43.602 19.3164C43.374 19.3164 43.1892 19.5012 43.1892 19.7292V20.1461C43.1892 20.374 43.374 20.5588 43.602 20.5588C43.8299 20.5588 44.0147 20.374 44.0147 20.1461V19.7292Z" fill="#4A76E6"/>
<path d="M45.5009 18.7386C45.7289 18.7386 45.9137 18.5538 45.9137 18.3258C45.9137 18.0978 45.7289 17.913 45.5009 17.913H45.084C44.8561 17.913 44.6713 18.0978 44.6713 18.3258C44.6713 18.5538 44.8561 18.7386 45.084 18.7386H45.5009Z" fill="#4A76E6"/>
<path d="M42.1573 18.6973C42.3853 18.6973 42.5701 18.5125 42.5701 18.2845C42.5701 18.0566 42.3853 17.8718 42.1573 17.8718H41.7404C41.5124 17.8718 41.3276 18.0566 41.3276 18.2845C41.3276 18.5125 41.5124 18.6973 41.7404 18.6973H42.1573Z" fill="#4A76E6"/>
<path d="M2.65542 8.79083L2.03627 10.1117C2.00316 10.181 1.99236 10.2589 2.00535 10.3346C2.01834 10.4103 2.05449 10.4802 2.10881 10.5345C2.16313 10.5888 2.23296 10.6249 2.30867 10.6379C2.38439 10.6509 2.46227 10.6401 2.53159 10.607L3.85245 9.94659C3.89817 9.92729 3.94729 9.91734 3.99692 9.91734C4.04654 9.91734 4.09567 9.92729 4.14139 9.94659L5.46225 10.607C5.52951 10.6279 5.60132 10.6292 5.66931 10.6109C5.7373 10.5925 5.79867 10.5552 5.84626 10.5033C5.89385 10.4513 5.9257 10.387 5.9381 10.3176C5.9505 10.2483 5.94293 10.1769 5.91629 10.1117L5.29714 8.79083C5.27784 8.74512 5.2679 8.69599 5.2679 8.64637C5.2679 8.59674 5.27784 8.54762 5.29714 8.5019L5.91629 7.18104C5.95501 7.1178 5.97131 7.04337 5.96258 6.96974C5.95385 6.89611 5.92059 6.82755 5.86816 6.77512C5.81573 6.72269 5.74718 6.68943 5.67354 6.6807C5.59991 6.67197 5.52548 6.68828 5.46225 6.72699L4.14139 7.34615C4.09567 7.36545 4.04654 7.37539 3.99692 7.37539C3.94729 7.37539 3.89817 7.36545 3.85245 7.34615L2.53159 6.72699C2.4664 6.70035 2.39497 6.69279 2.32564 6.70519C2.25632 6.71759 2.19194 6.74944 2.14002 6.79703C2.08811 6.84462 2.05079 6.90599 2.03242 6.97398C2.01405 7.04197 2.01538 7.11378 2.03627 7.18104L2.65542 8.5019C2.69324 8.54048 2.71442 8.59234 2.71442 8.64637C2.71442 8.70039 2.69324 8.75226 2.65542 8.79083Z" fill="#FFEFC9"/>
<path d="M5.00819 33.1029C5.00819 32.9205 4.86959 32.7727 4.69861 32.7727C4.52764 32.7727 4.38904 32.9205 4.38904 33.1029V33.396C4.38904 33.5784 4.52764 33.7262 4.69861 33.7262C4.86959 33.7262 5.00819 33.5784 5.00819 33.396V33.1029Z" fill="white"/>
<path d="M5.00819 35.6621C5.00819 35.4798 4.86959 35.3319 4.69861 35.3319C4.52764 35.3319 4.38904 35.4798 4.38904 35.6621V35.9552C4.38904 36.1376 4.52764 36.2854 4.69861 36.2854C4.86959 36.2854 5.00819 36.1376 5.00819 35.9552V35.6621Z" fill="white"/>
<path d="M6.12267 34.8365C6.30504 34.8365 6.45288 34.6979 6.45288 34.5269C6.45288 34.3559 6.30504 34.2173 6.12267 34.2173H5.8296C5.64723 34.2173 5.49939 34.3559 5.49939 34.5269C5.49939 34.6979 5.64723 34.8365 5.8296 34.8365H6.12267Z" fill="white"/>
<path d="M3.56346 34.8365C3.74584 34.8365 3.89368 34.6979 3.89368 34.5269C3.89368 34.3559 3.74584 34.2173 3.56346 34.2173H3.2704C3.08802 34.2173 2.94018 34.3559 2.94018 34.5269C2.94018 34.6979 3.08802 34.8365 3.2704 34.8365H3.56346Z" fill="white"/>
<path d="M18.547 33.7221C18.1382 34.3492 17.5019 34.7931 16.7721 34.9604C16.5444 35.0265 16.3073 35.0544 16.0704 35.0429C15.4559 35.0285 14.8626 34.8157 14.379 34.4363C13.8955 34.0569 13.5476 33.5312 13.3874 32.9378C13.3533 32.789 13.3394 32.6363 13.3462 32.4838H13.3049C13.2094 32.4749 13.117 32.4454 13.0341 32.3972C12.9511 32.3491 12.8797 32.2834 12.8247 32.2049C12.7697 32.1263 12.7325 32.0367 12.7156 31.9423C12.6987 31.8479 12.7026 31.751 12.727 31.6582C12.727 31.617 12.7683 31.5344 12.7683 31.4931L12.3142 31.4106C12.1305 31.3539 11.9707 31.2377 11.8602 31.0804C11.7996 31.0065 11.7568 30.9197 11.7353 30.8266C11.7139 30.7335 11.7142 30.6367 11.7364 30.5438C11.7744 30.3765 11.8692 30.2275 12.0047 30.1222C12.1401 30.0168 12.3078 29.9616 12.4793 29.9659H12.727L13.3462 30.0897H13.4287V29.7595C13.4768 29.5706 13.5902 29.4047 13.7489 29.2914C13.9076 29.1781 14.1012 29.1246 14.2955 29.1403H14.4194L16.7721 29.5944C17.2684 29.7242 17.7211 29.9838 18.0838 30.3466C18.4465 30.7093 18.7061 31.162 18.836 31.6582C18.9327 32.0036 18.957 32.3652 18.9073 32.7204C18.8576 33.0755 18.7349 33.4166 18.547 33.7221Z" fill="white"/>
<path d="M16.6482 34.5063H16.0704C15.572 34.4978 15.0897 34.3284 14.6955 34.0234C14.3012 33.7185 14.0161 33.2942 13.8827 32.814C13.8079 32.5735 13.7937 32.3183 13.8414 32.071L13.3874 31.9884C13.329 31.9649 13.2786 31.9252 13.242 31.8741C13.2055 31.8229 13.1843 31.7623 13.181 31.6995C13.2034 31.6521 13.2383 31.6117 13.2819 31.5826C13.3256 31.5535 13.3763 31.5368 13.4287 31.5344H13.4699L14.1304 31.6582H14.1716C14.2542 31.6582 14.378 31.6169 14.378 31.4931C14.3939 31.4663 14.4019 31.4357 14.401 31.4046C14.4002 31.3735 14.3906 31.3432 14.3734 31.3173C14.3561 31.2915 14.3319 31.271 14.3035 31.2583C14.2751 31.2455 14.2437 31.2411 14.2129 31.2454L13.181 31.0391C13.1226 31.0156 13.0722 30.9759 13.0357 30.9247C12.9991 30.8735 12.9779 30.8129 12.9746 30.7501C12.9795 30.7228 12.9899 30.6967 13.0051 30.6734C13.0204 30.6502 13.0401 30.6302 13.0633 30.6148C13.0864 30.5994 13.1124 30.5888 13.1397 30.5837C13.1671 30.5786 13.1951 30.579 13.2223 30.585H13.2635L14.7082 30.874H14.7495C14.8019 30.8715 14.8526 30.8548 14.8962 30.8257C14.9399 30.7967 14.9748 30.7562 14.9972 30.7088C14.9939 30.646 14.9727 30.5855 14.9361 30.5343C14.8996 30.4831 14.8491 30.4434 14.7908 30.4199L14.2129 30.2961C14.1652 30.2917 14.119 30.2769 14.0775 30.2528C14.036 30.2287 14.0003 30.1959 13.9728 30.1566C13.9453 30.1174 13.9267 30.0726 13.9183 30.0254C13.9098 29.9782 13.9118 29.9297 13.924 29.8833C13.9282 29.8408 13.9418 29.7998 13.9638 29.7632C13.9858 29.7266 14.0157 29.6954 14.0512 29.6717C14.0867 29.648 14.1271 29.6325 14.1693 29.6263C14.2115 29.62 14.2546 29.6232 14.2955 29.6356H14.3367L16.6482 30.0897C17.0616 30.1921 17.4402 30.4029 17.7449 30.7004C18.0497 30.9979 18.2695 31.3713 18.3819 31.782C18.4487 32.0748 18.4568 32.378 18.4057 32.674C18.3545 32.9699 18.2451 33.2528 18.0839 33.5062C17.9226 33.7595 17.7127 33.9784 17.4663 34.1501C17.2199 34.3218 16.9418 34.4429 16.6482 34.5063Z" fill="white"/>
<path fill-rule="evenodd" clip-rule="evenodd" d="M12.5206 30.874C12.5807 30.8873 12.6435 30.8777 12.6969 30.8472C12.7503 30.8167 12.7905 30.7674 12.8095 30.7089C12.8104 30.6498 12.79 30.5923 12.7522 30.5469C12.7143 30.5015 12.6615 30.4711 12.6032 30.4612H12.4793C12.3555 30.4612 12.2317 30.5438 12.2317 30.6263C12.2184 30.6864 12.2279 30.7493 12.2585 30.8027C12.289 30.8561 12.3383 30.8962 12.3968 30.9153L12.5206 30.874ZM16.6483 34.5064C16.9418 34.4429 17.2199 34.3218 17.4663 34.1502C17.7128 33.9785 17.9227 33.7596 18.0839 33.5062C18.2452 33.2528 18.3545 32.97 18.4057 32.674C18.4568 32.3781 18.4488 32.0749 18.3819 31.7821C18.2696 31.3713 18.0497 30.9979 17.745 30.7004C17.4402 30.403 17.0617 30.1921 16.6483 30.0897L14.3368 29.6357C14.2934 29.6276 14.2489 29.6281 14.2057 29.6371C14.1625 29.6462 14.1216 29.6637 14.0852 29.6886C14.0487 29.7135 14.0176 29.7454 13.9935 29.7823C13.9694 29.8193 13.9528 29.8606 13.9447 29.904C13.9365 29.9474 13.937 29.9919 13.9461 30.0351C13.9552 30.0783 13.9727 30.1192 13.9976 30.1556C14.0225 30.192 14.0543 30.2232 14.0913 30.2473C14.1283 30.2714 14.1696 30.288 14.213 30.2961L14.7908 30.42C14.8492 30.4435 14.8996 30.4831 14.9362 30.5343C14.9727 30.5855 14.9939 30.6461 14.9972 30.7089C14.972 30.7628 14.9306 30.8077 14.8789 30.8372C14.8272 30.8668 14.7676 30.8796 14.7083 30.874L13.2636 30.5851C13.2035 30.5718 13.1407 30.5813 13.0873 30.6119C13.0338 30.6424 12.9937 30.6917 12.9747 30.7502C12.978 30.813 12.9991 30.8736 13.0357 30.9247C13.0723 30.9759 13.1227 31.0156 13.181 31.0391L14.213 31.2455C14.2677 31.2564 14.3158 31.2887 14.3468 31.3351C14.3778 31.3816 14.389 31.4384 14.3781 31.4932C14.3671 31.5479 14.3349 31.596 14.2884 31.627C14.242 31.658 14.1851 31.6692 14.1304 31.6583L13.47 31.5344C13.4107 31.5288 13.3511 31.5417 13.2993 31.5712C13.2476 31.6008 13.2063 31.6456 13.181 31.6995C13.1843 31.7624 13.2055 31.8229 13.2421 31.8741C13.2786 31.9253 13.3291 31.965 13.3874 31.9885L13.8415 32.071C13.7938 32.3183 13.8079 32.5735 13.8827 32.814C14.0387 33.3969 14.4128 33.8976 14.9275 34.2126C15.4422 34.5276 16.0582 34.6327 16.6483 34.5064ZM14.8321 32.5664C14.7958 32.401 14.7927 32.23 14.823 32.0634C14.8533 31.8968 14.9163 31.7379 15.0084 31.5958C15.1006 31.4538 15.22 31.3314 15.3598 31.2358C15.4996 31.1403 15.6569 31.0734 15.8228 31.0391C15.9881 30.9961 16.1605 30.9867 16.3296 31.0114C16.4987 31.036 16.6611 31.0943 16.8073 31.1828C16.9535 31.2713 17.0805 31.3882 17.1808 31.5266C17.2811 31.6649 17.3527 31.822 17.3913 31.9885C17.4343 32.1539 17.4437 32.3262 17.419 32.4953C17.3943 32.6644 17.336 32.8269 17.2476 32.9731C17.1591 33.1193 17.0422 33.2463 16.9038 33.3465C16.7654 33.4468 16.6084 33.5184 16.4419 33.557C16.0975 33.6322 15.7374 33.5711 15.4372 33.3863C15.137 33.2016 14.9201 32.9077 14.8321 32.5664Z" fill="#4A6FE6"/>
<path d="M16.6895 31.617L15.9053 31.4519H15.7815L15.2861 32.0298C15.2712 32.0465 15.2598 32.0662 15.2527 32.0874C15.2456 32.1087 15.243 32.1312 15.2449 32.1536L15.4925 32.8966H15.5751L16.3593 33.0617C16.4006 33.0617 16.4419 33.0617 16.4419 33.0204L16.9785 32.4425C16.9934 32.4258 17.0048 32.4062 17.0119 32.3849C17.019 32.3636 17.0217 32.3411 17.0198 32.3187L16.7308 31.5757L16.6895 31.617Z" fill="#AEC7FF"/>
<path d="M30.7649 23.9807C30.7649 24.0792 30.804 24.1737 30.8737 24.2434C30.9434 24.3131 31.0379 24.3522 31.1364 24.3522C31.1885 24.358 31.2413 24.3528 31.2913 24.3367C31.3412 24.3207 31.3872 24.2942 31.4262 24.2591C31.4652 24.224 31.4963 24.1811 31.5175 24.1331C31.5387 24.0851 31.5495 24.0332 31.5492 23.9807H30.7649Z" fill="#E74FD5"/>
<path d="M35.3467 31.2454C35.3408 31.2976 35.3461 31.3503 35.3621 31.4003C35.3782 31.4502 35.4046 31.4962 35.4397 31.5352C35.4748 31.5742 35.5178 31.6053 35.5658 31.6265C35.6138 31.6477 35.6657 31.6585 35.7182 31.6582C35.8276 31.6582 35.9326 31.6147 36.01 31.5373C36.0874 31.4599 36.1309 31.3549 36.1309 31.2454H35.3467Z" fill="#A120AD"/>
<defs>
<linearGradient id="paint0_linear" x1="20.1363" y1="14.2766" x2="20.1363" y2="32.1123" gradientUnits="userSpaceOnUse">
<stop stop-color="#10307A"/>
<stop offset="0.09" stop-color="#153787"/>
<stop offset="0.33" stop-color="#2147A6"/>
<stop offset="0.57" stop-color="#2953BC"/>
<stop offset="0.8" stop-color="#2E5BC9"/>
<stop offset="1" stop-color="#305DCE"/>
</linearGradient>
</defs>
</svg>
