<svg height="212" viewBox="0 0 256 212" width="256" xmlns="http://www.w3.org/2000/svg" xmlns:xlink="http://www.w3.org/1999/xlink"><mask id="a" fill="#fff"><path d="m0 23.413v-22.69h58.545v22.69z" fill="#fff" fill-rule="evenodd"/></mask><g fill="none" fill-rule="evenodd"><g transform="translate(4 9)"><path d="m43.7881.319h67.52c28.229 0 51.112 22.884 51.112 51.112 0 13.087 10.609 23.697 23.696 23.697h.003c28.407 0 51.435 23.027 51.435 51.434v.003c0 28.407-23.028 51.435-51.435 51.435h-25.998-114.835c-15.885 0-28.761-12.876-28.761-28.76v-.002c0-15.884 12.876-28.761 28.761-28.761h2.754c9.289 0 16.819-7.53 16.819-16.818 0-9.289-7.53-16.819-16.819-16.819h-4.252c-23.892 0-43.261-19.369-43.261-43.261s19.369-43.26 43.261-43.26" fill="#4f545c" fill-opacity=".3" transform="translate(11 16.565)"/><path d="m106.439 18.9577c-.165.67.383 1.303 1.07 1.234l6.725-.671c.034-.003.067-.004.101-.004.5 0 .931.374.992.881l.504 4.242c.134 1.122 1.735 1.196 1.971.091l1.847-8.636c.138-.645-.374-1.244-1.032-1.208l-5.945.321c-.522.037-.962-.337-1.042-.844l-.805-5.164c-.168-1.079-1.698-1.146-1.959-.086z" fill="#1f2225"/><g fill="#4f545c"><path d="m168.582 99.816 3.739-3.739-2.365-2.365-3.739 3.739z"/><path d="m99.2026 163.7766c-.11-.677-.085-1.367.069-2.038l-2.107 2.107c.67-.154 1.361-.178 2.038-.069m20.1211-10.1114 1.796-1.796c-2.224.24-4.344.936-6.264 2.028l2.825 2.826 1.643-1.644c-.391-.391-.391-1.023 0-1.414"/><path d="m103.8804 155.8752c.347.347.347.908 0 1.255l-.686.686c.67-.155 1.36-.179 2.038-.069-.256-1.575.201-3.238 1.377-4.473-.024-.019-.054-.028-.077-.05-.346-.347-.346-.909 0-1.255l15.095-15.095-1.491-1.49-40.373 40.373c-.455.455-.706 1.06-.706 1.705 0 .542.186 1.05.512 1.47l23.057-23.057c.346-.347.907-.347 1.254 0m-12.5777 25.5342-2.352-2.352c-.367.31-.728.629-1.071.973l-3.627 3.626.835.835c.635.634 1.534.83 2.343.608l3.476-3.475c.113-.113.251-.176.396-.215m73.6597-85.2139 3.739-3.738-1.114-1.115c-.153-.153-.327-.272-.506-.376-1.006.524-2.114.758-3.221.694l-1.717 1.717zm-77.75 77.6025-6.409 6.409 2.195 2.195 4.788-4.788c-.676-1.169-.87-2.532-.574-3.816m35.6914-23.8056c.033 0 .065-.004.097-.004l1.878-1.878c-2.655.29-5.168 1.208-7.359 2.697 1.721-.534 3.53-.816 5.384-.815m47.9741-47.8809 2.034-2.034c.455-.455.706-1.061.706-1.705 0-.316-.062-.622-.177-.907l-3.605 3.605zm-77.705 67.6944c-.11-.677-.085-1.367.069-2.037l-2.106 2.105c.67-.154 1.36-.178 2.037-.068"/><path d="m113.0405 152.3605.833-.832c3.417-3.418 7.961-5.301 12.793-5.3.034 0 .066-.005.099-.005l2.106-2.105-5.99-5.989-13.657 13.657c1.284-.296 2.648-.102 3.816.574m-6.5078.8633c.022.022.052.031.077.051.029-.031.049-.069.08-.1.722-.722 1.606-1.175 2.534-1.388l13.658-13.658-1.255-1.255-15.094 15.095c-.347.347-.347.908 0 1.255m-17.9311 18.0401c.722-.722 1.606-1.175 2.535-1.39l2.105-2.105c.214-.929.668-1.813 1.389-2.534.722-.721 1.606-1.175 2.534-1.389l2.107-2.107c.214-.928.668-1.812 1.389-2.534.722-.721 1.606-1.174 2.534-1.388l.686-.687c.346-.346.346-.908 0-1.255-.347-.346-.908-.346-1.255 0l-23.056 23.057c.063.08.121.163.194.235l1.04 1.04 6.409-6.409c.214-.928.667-1.811 1.389-2.534"/><path d="m113.873 151.5285-.833.832c.389.225.762.482 1.094.814l.722.723c1.92-1.093 4.039-1.788 6.264-2.028l1.881-1.881c-.032 0-.065.004-.097.004-1.854-.001-3.663.281-5.384.815 2.191-1.489 4.704-2.407 7.358-2.697l1.888-1.887c-.034 0-.066.005-.099.005-4.832-.001-9.377 1.882-12.794 5.3m-24.9218 27.5293-.35-.35c-.332-.332-.59-.705-.815-1.093l-4.788 4.788 1.255 1.254 3.626-3.626c.343-.344.704-.663 1.072-.973m1.9551 2.5664-3.476 3.476c.391-.107.762-.302 1.067-.609l.789-.788c.391-.391 1.023-.391 1.414 0l1.448-1.448-.846-.846c-.144.039-.283.102-.396.215"/><path d="m166.217 97.45 3.739-3.739-1.255-1.254-3.738 3.738z"/><path d="m167.081 90.967c-.921-.528-2.116-.409-2.903.376l-.317.317c1.106.065 2.214-.17 3.22-.693m2.7554 10.1035 3.604-3.604c-.119-.295-.296-.567-.528-.799l-.591-.591-3.739 3.739z"/></g><path d="m114.7163 97.384c.391-.391 1.023-.391 1.414 0s.391 1.023 0 1.414l-9.059 9.059c-.392.391-.607.913-.607 1.467s.215 1.076.607 1.467l5.552 5.552c.391.391.391 1.023 0 1.414-.195.195-.451.293-.707.293s-.512-.098-.707-.293l-5.552-5.552c-.77-.769-1.193-1.792-1.193-2.881 0-1.088.423-2.112 1.193-2.881zm3.989-3.989.621-.621c.39-.391 1.023-.391 1.414 0 .391.39.391 1.023 0 1.414l-.621.621c-.195.195-.451.293-.707.293s-.512-.098-.707-.293c-.391-.391-.391-1.024 0-1.414zm42.714 15.204c-.769.769-1.793 1.193-2.882 1.193-1.088 0-2.112-.424-2.881-1.193-.77-.77-1.194-1.793-1.194-2.882s.424-2.112 1.194-2.882c1.589-1.588 4.173-1.588 5.763 0 1.588 1.589 1.588 4.175 0 5.764zm-33.052 23.214c0-1.089.424-2.113 1.194-2.882.769-.77 1.793-1.193 2.881-1.193 1.089 0 2.112.423 2.882 1.193 1.588 1.589 1.588 4.175 0 5.764-.795.793-1.838 1.191-2.882 1.191-1.043 0-2.087-.398-2.881-1.191-.77-.77-1.194-1.793-1.194-2.882zm-25.737-16.764 14.607 14.607 25.786-25.786c.391-.39 1.024-.39 1.414 0 .391.391.391 1.024 0 1.414l-25.786 25.787 14.533 14.533 39.179-39.179-14.533-14.533-8.632 8.632c-.195.195-.451.293-.707.293s-.512-.098-.707-.293c-.391-.391-.391-1.024 0-1.414l8.632-8.632-14.608-14.607c-3.156-3.156-8.292-3.156-11.449 0l-27.729 27.729c-3.157 3.156-3.157 8.293 0 11.449z" fill="#72767d"/><path d="m157.8301 91.8918-8.632 8.632c-.195.195-.451.293-.707.293s-.512-.098-.707-.293l-3.347 3.347c.391.39.391 1.023 0 1.414l-25.786 25.786 14.533 14.533 39.179-39.179z" fill="#b9bbbe"/><path d="m185.3574 131.052-2.917 2.917c-.195.195-.451.293-.707.293s-.512-.098-.707-.293c-.391-.391-.391-1.023 0-1.414l2.917-2.917c.392-.392.607-.913.607-1.468 0-.554-.215-1.075-.607-1.467l-1.335-1.335c-.39-.39-.39-1.023 0-1.414.391-.39 1.024-.39 1.415 0l1.334 1.335c.77.77 1.193 1.792 1.193 2.881s-.423 2.112-1.193 2.882m3.027-8.605-14.607-14.608-39.179 39.179 14.608 14.607c3.156 3.156 8.293 3.156 11.449 0l27.729-27.729c3.157-3.156 3.157-8.293 0-11.449" fill="#72767d"/><path d="m157.0703 104.2492c-.809.81-.809 2.126 0 2.936.784.783 2.151.783 2.935 0 .809-.81.809-2.126 0-2.936-.405-.404-.936-.606-1.468-.606-.531 0-1.063.202-1.467.606m-23.1602 26.0957c-.392-.392-.914-.607-1.468-.607s-1.075.215-1.467.607c-.809.81-.809 2.126 0 2.936.809.808 2.125.808 2.935 0 .809-.81.809-2.126 0-2.936" fill="#4f545c"/><path d="m217.31 116.5266h-6.822c-.552 0-1 .447-1 1s.448 1 1 1h6.822c.552 0 1-.447 1-1s-.448-1-1-1m-10.8671-20.9424c.114 0 .229-.02.342-.061l6.41-2.333c.519-.188.787-.762.598-1.281s-.764-.785-1.282-.597l-6.41 2.333c-.519.188-.786.762-.598 1.281.148.406.532.658.94.658m-7.065-26.3257-5.226 4.385c-.423.354-.479.985-.124 1.408.198.236.482.357.767.357.227 0 .455-.077.642-.234l5.226-4.385c.423-.354.479-.985.124-1.408-.355-.424-.987-.477-1.409-.123m-22.9297-8.958c.157.091.33.134.499.134.346 0 .682-.179.867-.5l3.411-5.908c.276-.478.113-1.09-.366-1.366-.478-.277-1.09-.112-1.366.366l-3.411 5.908c-.276.478-.113 1.09.366 1.366m-21.5654-7.8496c.059.01.117.015.175.015.476 0 .898-.341.984-.826l1.184-6.718c.096-.544-.267-1.062-.811-1.159-.547-.094-1.063.268-1.158.812l-1.185 6.717c-.096.544.267 1.063.811 1.159m-22.9492 130.1528c-.547-.098-1.063.267-1.159.811l-1.184 6.717c-.096.544.267 1.063.811 1.159.059.01.117.015.175.015.476 0 .898-.341.983-.826l1.185-6.718c.096-.544-.267-1.062-.811-1.158m-1.5322-138.8403c-.544.096-.907.615-.811 1.159l1.185 6.717c.085.485.507.827.983.827.058 0 .116-.005.175-.015.544-.097.907-.615.811-1.159l-1.184-6.718c-.096-.543-.614-.906-1.159-.811m24.4814 138.8403c-.544.096-.907.614-.811 1.158l1.185 6.718c.085.485.507.826.983.826.058 0 .116-.005.175-.015.544-.096.907-.615.811-1.159l-1.184-6.717c-.096-.544-.613-.91-1.159-.811m22.9316-7.4834c-.277-.479-.889-.643-1.366-.366-.479.276-.642.887-.366 1.366l3.411 5.907c.185.322.521.5.867.5.169 0 .342-.043.499-.134.478-.276.642-.887.366-1.366zm17.6226-15.2412c-.422-.354-1.053-.301-1.409.123-.355.423-.299 1.054.124 1.408l5.226 4.385c.187.157.415.234.642.234.285 0 .569-.121.767-.357.355-.423.299-1.054-.124-1.408zm17.7578-18.0156-6.41-2.333c-.517-.188-1.092.078-1.282.598-.188.518.079 1.092.598 1.281l6.41 2.333c.113.041.228.06.342.06.408 0 .792-.252.94-.658.189-.518-.079-1.093-.598-1.281m-170.063 8.4726c0 .553.448 1 1 1h30.317c2.122 0 4.157-.843 5.657-2.343l19.954-19.954c1.818-1.816 4.775-1.816 6.596.003 1.021 1.022 1.51 2.431 1.329 3.898-.133 1.075-.688 2.056-1.455 2.823l-8.317 8.315c-.391.391-.391 1.024 0 1.414.391.391 1.024.391 1.414 0l8.261-8.26c1.167-1.167 1.977-2.685 2.111-4.33.166-2.04-.575-3.983-2.043-5.385-2.651-2.535-6.919-2.283-9.512.311l-19.166 19.165c-1.5 1.5-3.535 2.343-5.657 2.343h-29.489c-.552 0-1 .447-1 1m31.5083 20.0606h-56.782c-.552 0-1 .447-1 1s.448 1 1 1h56.782c.552 0 1-.447 1-1s-.448-1-1-1m44.6861-77.6231-.621.621c-.391.391-.391 1.024 0 1.414.195.195.451.293.707.293s.512-.098.707-.293l.621-.621c.391-.391.391-1.023 0-1.414s-1.023-.391-1.414 0m-4.6099 4.6104-8.905 8.904c-.697.698-1.213 1.588-1.321 2.569-.14 1.26.288 2.469 1.167 3.348l5.552 5.552c.195.195.451.293.707.293s.512-.098.707-.293c.391-.391.391-1.023 0-1.414l-5.552-5.552c-.392-.391-.607-.913-.607-1.467s.215-1.076.607-1.467l9.059-9.059c.391-.391.391-1.023 0-1.414s-1.023-.391-1.414 0m69.3066 26.5703c-.391-.391-1.023-.391-1.414 0s-.391 1.023 0 1.414l1.334 1.335c.392.392.608.913.608 1.467 0 .555-.216 1.076-.608 1.468l-2.917 2.917c-.39.39-.39 1.023 0 1.414.196.195.452.293.707.293.256 0 .512-.098.707-.293l2.917-2.917c.77-.77 1.194-1.793 1.194-2.882s-.424-2.112-1.194-2.881z" fill="#1f2225"/><path d="m188.3848 133.8957-27.729 27.729c-3.162 3.163-8.288 3.163-11.45 0l-13.193-13.193c-.781-.78-.781-2.047 0-2.828l36.351-36.351c.78-.781 2.047-.781 2.828 0l13.193 13.194c3.162 3.162 3.162 8.288 0 11.449zm-66.905.004c-1.562-1.563-1.562-4.095 0-5.657l22.958-22.958c.39-.391.39-1.024 0-1.414-.391-.391-1.024-.391-1.414 0l-24.372 24.372c-.781.781-2.047.781-2.829 0l-13.193-13.194c-3.161-3.161-3.161-8.287 0-11.449l27.73-27.729c3.157-3.156 8.293-3.156 11.449 0l13.193 13.193c.781.781.781 2.048 0 2.828l-7.218 7.218c-.39.39-.39 1.023 0 1.414.196.195.452.293.707.293.256 0 .512-.098.707-.293l5.804-5.803c1.562-1.562 4.095-1.562 5.657 0l8.876 8.876c1.562 1.562 1.562 4.095 0 5.656l-33.522 33.523c-1.562 1.562-4.094 1.562-5.656 0zm42.381-42.239.317-.318c.787-.785 1.982-.904 2.903-.376.18.104.353.223.507.376l1.113 1.115 1.255 1.253 2.366 2.366.59.59c.232.233.41.504.529.799.115.284.177.591.177.907 0 .644-.251 1.25-.706 1.705l-.619.62c-.782.781-2.048.781-2.829 0l-5.906-5.906c-.781-.781-.781-2.047 0-2.829zm10.341 9.956.002-.002c.725-.726 1.252-1.653 1.379-2.671.173-1.388-.29-2.724-1.257-3.691l-5.324-5.324c-1.723-1.722-4.515-1.722-6.238 0-1.123 1.124-2.945 1.124-4.068 0l-15.473-15.472c-3.937-3.936-10.341-3.936-14.277 0l-13.066 13.066c-1.831 1.831-4.894 1.466-6.243-.744l-11.776-19.293c-.143-.234-.376-.399-.644-.457-.269-.056-.548-.003-.775.153l-10.111 6.921c-3.48 2.382-8.267.525-9.231-3.58l-11.731-49.989c-.526-2.24 2.527-3.45 3.679-1.457l19.872 34.39c.138.24.369.411.639.474.27.061.553.01.783-.143l13.049-8.736c1.786-1.197 4.215-.18 4.616 1.933l4.5 23.718c.103.542.624.897 1.169.796.543-.103.899-.626.796-1.169l-5.628-29.661c-.063-.33-.287-.606-.596-.736-.31-.13-.664-.096-.943.091l-10.086 6.753c-3.844 2.573-9.063 1.36-11.377-2.645l-25.219-43.642c-.248-.429-.774-.612-1.234-.429-.461.183-.719.676-.606 1.158l18.705 79.702c.076.321.304.585.612.704.308.118.654.078.927-.108l15.067-10.315c1.418-.97 3.36-.554 4.256.913l10.84 17.76c.963 1.577.72 3.607-.585 4.913l-7.155 7.155c-1.856 1.856-3.071 4.312-3.181 6.935-.12 2.86.938 5.567 2.947 7.575l12.557 12.558c2.734 2.733 2.734 7.166 0 9.899l-21.674 21.674c-1.593 1.594-3.726 2.602-5.979 2.614-1.488.008-3.13-.394-4.598-1.692-.414-.365-1.046-.327-1.412.087s-.327 1.046.088 1.411c1.904 1.684 3.986 2.213 5.854 2.213.539 0 1.048-.054 1.542-.127l-9.122 9.121c-.725.725-1.251 1.653-1.378 2.67-.173 1.389.29 2.725 1.256 3.691l5.201 5.201c.725.724 1.651 1.251 2.668 1.379 1.388.174 2.726-.288 3.693-1.256l.788-.788c.391-.39.391-1.024.001-1.414h-.001c-.39-.391-1.023-.391-1.414 0l-.788.788c-.306.306-.677.502-1.067.608-.809.222-1.708.025-2.343-.608l-.835-.835-1.254-1.254-2.196-2.195-1.039-1.041c-.073-.072-.131-.155-.194-.235-.326-.42-.512-.928-.512-1.47 0-.644.251-1.25.706-1.705l38.252-38.251c1.171-1.172 3.071-1.172 4.243 0l4.491 4.492c1.172 1.171 1.172 3.071 0 4.242l-3.749 3.749-1.881 1.881-1.796 1.796c-.391.39-.391 1.023 0 1.414.391.39 1.023.39 1.414 0l4.598-4.597c2.733-2.734 7.166-2.734 9.899 0l12.557 12.557c1.968 1.967 4.553 2.952 7.139 2.952 2.585 0 5.17-.985 7.139-2.952l27.729-27.73c2.01-2.009 3.067-4.716 2.948-7.575-.11-2.623-1.325-5.08-3.182-6.937l-15.363-15.363c-1.055-1.054-1.055-2.764 0-3.818z" fill="#1f2225"/><path d="m160.0054 107.1848c-.784.783-2.151.783-2.935 0-.809-.81-.809-2.126 0-2.936.404-.404.936-.606 1.467-.606.532 0 1.063.202 1.468.606.809.81.809 2.126 0 2.936m1.414-4.35c-1.59-1.587-4.174-1.587-5.763 0-.77.77-1.194 1.793-1.194 2.882s.424 2.113 1.194 2.882c.769.77 1.793 1.193 2.881 1.193 1.089 0 2.113-.423 2.882-1.193 1.588-1.589 1.588-4.175 0-5.764m-27.5093 30.4457c-.81.809-2.126.809-2.935 0-.809-.81-.809-2.126 0-2.936.392-.391.913-.607 1.467-.607s1.076.216 1.468.607c.809.81.809 2.126 0 2.936m-1.468-5.543c-1.088 0-2.112.424-2.881 1.193-.77.77-1.194 1.793-1.194 2.882s.424 2.113 1.194 2.882c.794.794 1.838 1.191 2.881 1.191 1.044 0 2.087-.397 2.882-1.191 1.588-1.589 1.588-4.175 0-5.764-.769-.769-1.793-1.193-2.882-1.193m-13.6926 37.4971c-1.272 1.271-3.343 1.271-4.616 0l-6.03-6.029c-1.272-1.273-1.272-3.344 0-4.617.637-.636 1.473-.954 2.309-.954.835 0 1.671.319 2.307.954l6.03 6.031c1.272 1.272 1.272 3.343 0 4.615zm-6.03 6.029c-1.273 1.272-3.344 1.271-4.616 0l-6.029-6.029c-1.272-1.272-1.272-3.343 0-4.615.636-.636 1.472-.954 2.308-.954.835 0 1.671.318 2.307.954l6.03 6.029c1.273 1.273 1.273 3.343 0 4.615zm-6.03 6.031c-1.272 1.271-3.342 1.271-4.615 0l-6.03-6.031c-1.272-1.272-1.272-3.342 0-4.615 1.273-1.272 3.344-1.271 4.616 0l6.029 6.029c1.273 1.273 1.273 3.344 0 4.617zm-6.029 6.029c-1.272 1.27-3.343 1.271-4.616 0l-6.029-6.029c-1.272-1.273-1.272-3.344 0-4.617.636-.635 1.472-.954 2.308-.954.835 0 1.671.319 2.307.954l6.03 6.031c1.273 1.272 1.273 3.342 0 4.615zm17.021-26.601-2.826-2.825-.722-.723c-.331-.332-.705-.589-1.093-.814-1.168-.676-2.532-.87-3.816-.574-.929.214-1.813.667-2.535 1.388-.03.032-.05.069-.08.1-1.176 1.234-1.633 2.897-1.378 4.473-.677-.111-1.367-.086-2.037.069-.928.214-1.812.667-2.534 1.389-.721.721-1.175 1.605-1.389 2.533-.154.671-.179 1.361-.069 2.038-.677-.109-1.368-.085-2.038.069-.928.214-1.812.668-2.534 1.389-.721.722-1.174 1.605-1.389 2.534-.154.67-.179 1.361-.069 2.037-.676-.11-1.367-.086-2.036.069-.929.214-1.813.668-2.535 1.389-.722.723-1.175 1.607-1.389 2.534-.296 1.285-.102 2.648.574 3.817.225.389.483.762.815 1.094l.35.349 2.351 2.352.846.846 2.482 2.482c1.026 1.026 2.374 1.539 3.722 1.539s2.696-.513 3.722-1.539c1.243-1.242 1.721-2.956 1.458-4.571.282.046.565.081.85.081 1.347 0 2.696-.513 3.721-1.539 1.244-1.244 1.722-2.957 1.459-4.573.281.046.565.081.849.081 1.348 0 2.696-.512 3.722-1.539 1.243-1.242 1.721-2.956 1.458-4.571.282.046.565.081.85.081 1.348 0 2.696-.513 3.722-1.539 2.052-2.052 2.052-5.392 0-7.443zm-43.0414 5.5159c-.552 0-1 .447-1 1v1.566c0 .553.448 1 1 1s1-.447 1-1v-1.566c0-.553-.448-1-1-1" fill="#1f2225"/><path d="m44.3594 13.1266-10.056-2.274c-.495-.112-.996.166-1.164.646l-2.433 6.965c-.429 1.226-1.894 1.725-2.982 1.015l-14.247-9.308c-.971-.634-.265-2.135.842-1.793l11.728 3.626c.5.154 1.03-.1 1.224-.583l2.469-6.153c.45-1.121 1.782-1.591 2.835-1l12.494 7.011c1.006.565.415 2.102-.71 1.848m14.119 4.366c.178-.463-.011-.988-.444-1.231l-27.461-15.41c-.251-.142-.551-.167-.821-.071-.272.095-.489.303-.596.57l-3.055 7.615c-.194.484-.726.737-1.223.583l-23.583-7.291c-.477-.147-.989.079-1.201.531-.212.451-.059.989.359 1.262l29.385 19.199c.165.107.355.163.547.163.109 0 .218-.018.323-.054.291-.099.52-.326.621-.616l3.11-8.9c.167-.48.668-.758 1.164-.646l21.721 4.913c.484.11.975-.152 1.154-.617" fill="#1f2225" mask="url(#a)" transform="translate(0 57.565)"/><path d="m84.2949 100.133c-.552 0-1 .447-1 1 0 .834-.676 1.51-1.51 1.51-.553 0-1 .447-1 1 0 .552.447 1 1 1 .834 0 1.51.676 1.51 1.51 0 .552.448 1 1 1s1-.448 1-1c0-.834.676-1.51 1.51-1.51.553 0 1-.448 1-1 0-.553-.447-1-1-1-.834 0-1.51-.676-1.51-1.51 0-.553-.448-1-1-1m-54.6523 17.6143h-.51c-.552 0-1-.447-1-1v-.51c0-.553-.448-1-1-1-.553 0-1 .447-1 1v.51c0 .553-.448 1-1 1h-.51c-.552 0-1 .447-1 1s.448 1 1 1h.51c.552 0 1 .448 1 1v.511c0 .552.447 1 1 1 .552 0 1-.448 1-1v-.511c0-.552.448-1 1-1h.51c.552 0 1-.447 1-1s-.448-1-1-1m116.8647-85.1138c.834 0 1.51.676 1.51 1.51 0 .553.448 1 1 1s1-.447 1-1c0-.834.676-1.51 1.51-1.51.552 0 1-.448 1-1s-.448-1-1-1c-.834 0-1.51-.676-1.51-1.51 0-.552-.448-1-1-1s-1 .448-1 1c0 .834-.676 1.51-1.51 1.51-.552 0-1 .448-1 1s.448 1 1 1m-87.6894 56.1968-1.183 1.183c-.391.39-.391 1.023 0 1.414.195.195.451.293.707.293s.512-.098.707-.293l1.183-1.183c.391-.391.391-1.023 0-1.414s-1.023-.391-1.414 0m-7.0992 8.5136c.195.195.451.293.707.293s.512-.098.707-.293l1.183-1.184c.391-.39.391-1.023 0-1.414-.39-.39-1.024-.39-1.414 0l-1.183 1.184c-.391.391-.391 1.023 0 1.414m7.8062.293c.256 0 .512-.098.707-.293.391-.391.391-1.023 0-1.414l-1.183-1.184c-.391-.39-1.024-.39-1.414 0-.391.391-.391 1.024 0 1.414l1.183 1.184c.195.195.451.293.707.293m-6.6231-6.2099c.195.195.451.293.707.293s.512-.098.707-.293c.391-.391.391-1.023 0-1.414l-1.183-1.183c-.391-.39-1.024-.39-1.414 0-.391.391-.391 1.024 0 1.414zm-12.2304-51.231c.833 0 1.51.677 1.51 1.51 0 .832-.677 1.51-1.51 1.51s-1.51-.678-1.51-1.51c0-.833.677-1.51 1.51-1.51m0 5.02c1.936 0 3.51-1.575 3.51-3.51s-1.574-3.51-3.51-3.51c-1.935 0-3.51 1.575-3.51 3.51s1.575 3.51 3.51 3.51" fill="#1f2225"/></g><path d="m0 1h256v212h-256z"/></g></svg>