<svg xmlns="http://www.w3.org/2000/svg" width="98" height="54" xmlns:xlink="http://www.w3.org/1999/xlink">
  <defs>
    <path id="a" d="M3.426 3.9697V.8492H.30545v3.1205H3.426z"/>
    <path id="c" d="M3.426 3.5716V.45135H.30545V3.5716H3.426z"/>
  </defs>
  <g fill="none" fill-rule="evenodd">
    <path fill="#3C3F44" d="M69.6649 28.6847c0 11.699-9.484 21.183-21.183 21.183s-21.183-9.484-21.183-21.183 9.484-21.183 21.183-21.183 21.183 9.484 21.183 21.183"/>
    <path fill="#FFCD85" d="M62.5831 20.9633c-2.104 2.104-5.514 2.104-7.618 0-2.103-2.104-2.103-5.514 0-7.618 2.104-2.103 5.514-2.103 7.618 0 2.104 2.104 2.104 5.514 0 7.618m4.571-12.188c-4.628-4.628-12.131-4.628-16.759 0-3.9 3.899-4.5 9.835-1.828 14.377l-19.747 19.747c-.42.421-.42 1.103 0 1.524l2.898 2.898c.421.421 1.103.421 1.524 0l1.904-1.905 6.094 6.095c.421.42 1.103.42 1.524 0l2.285-2.286c.421-.42.421-1.103 0-1.523l-6.094-6.094 2.476-2.476 6.094 6.094c.421.421 1.103.421 1.524 0l2.285-2.285c.421-.421.421-1.103 0-1.524l-6.094-6.094 7.804-7.804c4.505 2.493 10.287 1.838 14.11-1.985 4.628-4.628 4.628-12.131 0-16.759"/>
    <path fill="#0F1011" d="M27.9023 25.4512c.465 0 .882-.326.979-.8.183-.897.432-1.791.738-2.656.185-.521-.088-1.092-.608-1.276-.047-.017-.095-.011-.142-.021-.478-.093-.966.156-1.134.629-.338.952-.612 1.936-.814 2.924-.101.497.194.968.661 1.13.041.014.075.041.119.05.067.014.135.02.201.02m40.5874 3.2334c0 11.032-8.976 20.008-20.008 20.008-.552 0-1 .448-1 1 0 .044.02.083.026.126.064.49.467.874.974.874 12.135 0 22.008-9.873 22.008-22.008 0-.508-.384-.91-.874-.975-.043-.005-.081-.025-.126-.025-.552 0-1 .448-1 1"/>
    <path fill="#0F1011" d="M51.1016 9.4819c2.049-2.049 4.774-3.178 7.673-3.178 2.898 0 5.623 1.129 7.672 3.178 2.05 2.049 3.178 4.774 3.178 7.672 0 2.899-1.128 5.624-3.178 7.673-4.23 4.231-11.114 4.231-15.345 0-4.23-4.23-4.23-11.115 0-15.345zm-15.248 35.228c-.188-.188-.442-.293-.707-.293-.265 0-.52.105-.707.293l-1.905 1.904c-.03.031-.079.031-.109 0l-2.898-2.898c-.026-.026-.026-.083 0-.109l18.881-18.882c.386.528.803 1.04 1.279 1.516.55.551 1.144 1.03 1.761 1.459l-6.916 6.916c-.39.391-.39 1.024 0 1.414l6.094 6.095c.026.025.026.083 0 .109l-2.285 2.285c-.031.031-.08.03-.11 0l-6.094-6.094c-.39-.39-1.023-.39-1.414 0l-2.476 2.476c-.39.391-.39 1.023 0 1.414l6.095 6.095c.026.025.025.083 0 .109l-2.285 2.285c-.03.03-.08.031-.11 0l-6.094-6.094zm9.903 2.285l-5.387-5.387 1.061-1.062 5.387 5.387c.809.81 2.128.811 2.938 0l2.285-2.285c.811-.81.811-2.127 0-2.937l-5.387-5.388 6.586-6.586c1.747.832 3.638 1.262 5.534 1.262 3.291 0 6.582-1.252 9.087-3.758.525-.524.982-1.09 1.397-1.676 3.546-5.014 3.089-12.011-1.397-16.497-4.555-4.555-11.699-4.954-16.726-1.228-.874-.105-1.759-.163-2.653-.163-7.726 0-14.981 4.131-18.932 10.781-.256.43-.137.962.238 1.271.039.032.066.073.111.1.16.095.336.14.51.14.341 0 .673-.175.86-.489 3.593-6.047 10.189-9.803 17.213-9.803.214 0 .426.011.639.018-3.519 4.013-4.122 9.701-1.794 14.284l-16.003 16.003c-1.844-3.064-2.849-6.599-2.849-10.297 0-.553-.448-1-1-1-.045 0-.083.019-.126.025-.49.065-.874.467-.874.975 0 4.24 1.195 8.289 3.39 11.756l-1.751 1.751c-.393.393-.609.915-.609 1.47 0 .554.216 1.076.609 1.468l2.898 2.899c.81.809 2.128.808 2.937-.001l1.198-1.197 5.387 5.387c.404.405.937.607 1.469.607s1.064-.202 1.469-.607l2.285-2.285c.071-.072.13-.152.19-.231.267-.357.419-.784.419-1.238 0-.555-.217-1.077-.609-1.469z"/>
    <path fill="#0F1011" d="M58.7739 12.77c1.124 0 2.247.428 3.102 1.283 1.71 1.71 1.71 4.493 0 6.203s-4.493 1.711-6.204 0c-1.71-1.71-1.71-4.493 0-6.203.855-.855 1.979-1.283 3.102-1.283m-4.516 8.9c1.245 1.246 2.881 1.868 4.516 1.868 1.636 0 3.271-.622 4.516-1.868 2.49-2.49 2.49-6.541 0-9.031-2.49-2.491-6.541-2.49-9.032 0-2.49 2.49-2.49 6.541 0 9.031m-34.9527-8.4073l-1.121 1.121c-.39.39-.39 1.023 0 1.414.196.195.452.293.707.293.256 0 .512-.098.707-.293l1.121-1.121c.391-.391.391-1.023 0-1.414s-1.023-.391-1.414 0m-5.6021 5.6025l-1.121 1.12c-.39.39-.39 1.024 0 1.414.195.195.452.293.707.293.256 0 .512-.098.707-.293l1.121-1.12c.391-.39.391-1.023 0-1.414-.39-.391-1.023-.391-1.414 0m5.8955 0c-.391-.391-1.024-.391-1.414 0-.391.391-.391 1.024 0 1.414l1.121 1.12c.195.195.451.293.707.293.255 0 .512-.098.707-.293.39-.39.39-1.024 0-1.414l-1.121-1.12zm-5.602-5.6025c-.391-.391-1.023-.391-1.414 0s-.391 1.023 0 1.414l1.121 1.121c.195.195.451.293.707.293.255 0 .511-.098.707-.293.39-.391.39-1.024 0-1.414l-1.121-1.121z"/>
    <g transform="translate(94 19.825)">
      <mask id="b" fill="#fff">
        <use xlink:href="#a"/>
      </mask>
      <path fill="#0F1011" d="M1.3057 3.9697c.256 0 .512-.098.707-.293l1.121-1.121c.39-.39.39-1.023 0-1.414-.391-.39-1.024-.39-1.414 0l-1.121 1.121c-.391.391-.391 1.023 0 1.414.195.195.451.293.707.293" mask="url(#b)"/>
    </g>
    <path fill="#0F1011" d="M90.1172 26.5698l-1.121 1.12c-.39.39-.39 1.024 0 1.414.195.195.452.293.707.293.256 0 .512-.098.707-.293l1.121-1.12c.391-.39.391-1.023 0-1.414-.39-.391-1.023-.391-1.414 0"/>
    <g transform="translate(94 25.825)">
      <mask id="d" fill="#fff">
        <use xlink:href="#c"/>
      </mask>
      <path fill="#0F1011" d="M2.0127.7446c-.391-.391-1.024-.391-1.414 0-.391.391-.391 1.024 0 1.414l1.121 1.12c.195.195.451.293.707.293.255 0 .512-.098.707-.293.39-.39.39-1.024 0-1.414l-1.121-1.12z" mask="url(#d)"/>
    </g>
    <path fill="#0F1011" d="M90.4106 20.9673c-.391-.391-1.023-.391-1.414 0s-.391 1.023 0 1.414l1.121 1.121c.195.195.451.293.707.293.255 0 .511-.098.707-.293.39-.391.39-1.024 0-1.414l-1.121-1.121zM14.4102 4.7534c-.759 0-1.377-.618-1.377-1.377s.618-1.376 1.377-1.376 1.377.617 1.377 1.376c0 .759-.618 1.377-1.377 1.377m0-4.753c-1.862 0-3.377 1.514-3.377 3.376 0 1.862 1.515 3.377 3.377 3.377 1.862 0 3.377-1.515 3.377-3.377 0-1.862-1.515-3.376-3.377-3.376M78.709 42.0112c-.759 0-1.376-.618-1.376-1.376 0-.76.617-1.377 1.376-1.377.759 0 1.377.617 1.377 1.377 0 .758-.618 1.376-1.377 1.376m0-4.753c-1.862 0-3.376 1.515-3.376 3.377 0 1.861 1.514 3.376 3.376 3.376 1.862 0 3.377-1.515 3.377-3.376 0-1.862-1.515-3.377-3.377-3.377M5.7534 35.3247h-1.377v-1.376c0-.553-.448-1-1-1s-1 .447-1 1v1.376h-1.376c-.553 0-1 .448-1 1s.447 1 1 1h1.376v1.377c0 .552.448 1 1 1s1-.448 1-1v-1.377h1.377c.552 0 1-.448 1-1s-.448-1-1-1M81.709 4.8174h-1.376v-1.377c0-.552-.448-1-1-1-.553 0-1 .448-1 1v1.377h-1.377c-.553 0-1 .448-1 1s.447 1 1 1h1.377v1.376c0 .553.447 1 1 1 .552 0 1-.447 1-1v-1.376h1.376c.552 0 1-.448 1-1s-.448-1-1-1"/>
  </g>
</svg>