<svg xmlns="http://www.w3.org/2000/svg" xmlns:xlink="http://www.w3.org/1999/xlink" width="32" height="32" viewBox="0 0 128 128">
  <path fill="#ffeac0" d="M92.9 7.8s48.4 33.1 29.8 79.5-54.9 33.5-41.1 19.8-16.1-22.6-35.1-40.4L92.9 7.8"/>
  <path fill="#ffd56c" d="M90.1 53.4C80 66.3 65.5 72.8 54.2 70.4L15.5 120c-2.8 3.6-7.7 4-11.3 1.2-3.6-2.8-4-7.7-1.6-11.3l38.7-49.2c-5.2-10.1-2.4-25.8 8.1-39.1C62.3 5.4 81.6-.6 92.9 7.8s9.7 29.1-2.8 45.6z"/>
  <defs>
    <path id="b" d="M90.1 53.4C80 66.3 65.5 72.8 54.2 70.4L15.5 120c-2.8 3.6-7.7 4-11.3 1.2-3.6-2.8-4-7.7-1.6-11.3l38.7-49.2c-5.2-10.1-2.4-25.8 8.1-39.1C62.3 5.4 81.6-.6 92.9 7.8s9.7 29.1-2.8 45.6z"/>
  </defs>
  <clipPath id="a">
    <use overflow="visible" xlink:href="#b"/>
  </clipPath>
  <g clip-path="url(#a)">
    <path d="M60.6-16.9h4.7v152.1h-4.7z" fill="#fff" transform="rotate(7.505 62.929 59.204)"/>
    <path d="M68.4-18.1h10.3V134H68.4z" fill="#fff" transform="rotate(7.505 73.595 58)"/>
  </g>
</svg>
