<?xml version="1.0" encoding="UTF-8" standalone="no"?>
<svg xmlns="http://www.w3.org/2000/svg" height="527.03003" width="389.42001">
  <g transform="matrix(10,0,0,-10,-3532.75,3263.27)">
    <path d="m353.559 326.045h38.374v-52.138h-38.374v52.138z" fill="#1b1615"/>
    <path d="m391.652 274.189h-37.811v51.571h37.811v-51.571zm0.565 52.138h-0.565-37.811-0.566v-0.567-51.571-0.565h0.566 37.811 0.565v0.565 51.571 0.567z" fill="#fff"/>
    <path d="m389.615 323.833h-33.721v-7.867h33.721v7.867z" fill="#fff"/>
    <path d="m355.957 314.023h33.663v-30.673h-33.663v30.673z" fill="#fff"/>
    <g fill="#fff">
      <path d="m355.9955 276.6545v4.612h6.778v-1.079h-4.056v-0.659h3.435v-1.075h-3.435v-0.723h4.215v-1.076h-6.937z"/>
      <path d="m368.6925 279.9231c-0.042 0.157-0.196 0.256-0.393 0.314-0.193 0.057-0.434 0.085-0.704 0.085-0.598 0-0.866-0.098-0.866-0.27 0-0.682 4.779-0.255 4.779-1.932 0-1.069-1.608-1.589-3.889-1.589-2.194 0-3.626 0.711-3.683 1.545h2.607c0.059-0.169 0.222-0.287 0.454-0.363 0.217-0.079 0.504-0.116 0.774-0.116 0.681 0 1.132 0.118 1.132 0.336 0 0.698-4.783 0.218-4.783 1.977 0 0.981 1.527 1.473 3.604 1.473 2.307 0 3.361-0.654 3.558-1.46h-2.59z"/>
      <path d="m375.5848 279.2679h1.071c0.845 0 1.298 0.122 1.298 0.438 0 0.326-0.461 0.481-1.097 0.481h-1.272v-0.919zm0-1.007v-1.606h-2.722v4.612h3.927c2.766 0 3.679-0.423 3.679-1.318 0-0.534-0.425-0.975-1.395-1.13 0.876-0.177 1.409-0.287 1.409-1.217 0-0.601-0.037-0.808 0.288-0.808v-0.139h-2.759c-0.069 0.103-0.138 0.396-0.138 0.807 0 0.605-0.186 0.799-1.456 0.799h-0.833z"/>
      <path d="m384.8653 280.1874v-0.772h1.136c0.543 0 0.936 0.141 0.936 0.405 0 0.359-0.538 0.367-1.108 0.367h-0.964zm0-1.607v-0.85h1.19c0.674 0 1.18 0.077 1.18 0.421 0 0.404-0.632 0.429-1.503 0.429h-0.867zm-2.721-1.926v4.612h3.972c1.873 0 3.359-0.248 3.359-1.163 0-0.475-0.555-0.819-1.084-1 0.898-0.129 1.383-0.562 1.383-1.058 0-1.027-1.417-1.391-3.578-1.391h-4.052z"/>
    </g>
    <g fill="#1b1615">
      <path d="m356.7465 317.1413v5.31h2.92v-0.816h-1.802v-1.31h1.659v-0.816h-1.659v-1.553h1.858v-0.815h-2.976z"/>
      <path d="m360.0215 322.4517h1.162l0.829-3.862h0.013l0.933 3.862h1.105l-1.415-5.31h-1.309l-1.318 5.31z"/>
      <path d="m364.568 317.1413v5.31h2.917v-0.816h-1.801v-1.31h1.661v-0.816h-1.661v-1.553h1.86v-0.815h-2.976z"/>
      <path d="m369.3663 317.1413h-1.119v5.31h2.065c0.387 0 0.69-0.116 0.915-0.352 0.224-0.236 0.337-0.582 0.337-1.037 0-0.339-0.075-0.625-0.226-0.862-0.151-0.236-0.407-0.383-0.767-0.442v-0.014c0.06-0.009 0.144-0.024 0.252-0.044 0.108-0.019 0.217-0.064 0.323-0.132 0.105-0.07 0.198-0.171 0.276-0.306 0.08-0.134 0.12-0.322 0.12-0.564 0-0.082 0-0.2 0.002-0.351 0.003-0.153 0.01-0.31 0.02-0.473 0.009-0.16 0.023-0.31 0.039-0.448 0.018-0.136 0.039-0.232 0.066-0.285h-1.098c-0.074 0.16-0.112 0.329-0.115 0.507-0.001 0.175-0.001 0.35-0.001 0.521 0 0.158-0.003 0.307-0.005 0.449-0.003 0.142-0.027 0.267-0.074 0.372s-0.127 0.19-0.236 0.253c-0.112 0.064-0.274 0.097-0.486 0.097h-0.288v-2.199zm0 3.015h0.497c0.106 0 0.199 0.024 0.272 0.075 0.074 0.048 0.133 0.109 0.177 0.187 0.044 0.076 0.076 0.16 0.094 0.253 0.017 0.093 0.026 0.181 0.026 0.264 0 0.256-0.052 0.436-0.153 0.54-0.101 0.107-0.239 0.16-0.416 0.16h-0.497v-1.479z"/>
      <path d="m373.2604 318.9787-1.4 3.473h1.223l0.797-2.244 0.854 2.244h1.138l-1.493-3.473v-1.837h-1.119v1.837z"/>
      <path d="m378.1856 317.0519c-0.46 0-0.816 0.077-1.068 0.231-0.251 0.154-0.434 0.361-0.548 0.618-0.113 0.258-0.179 0.551-0.2 0.879-0.019 0.329-0.031 0.668-0.031 1.016 0 0.353 0.012 0.694 0.031 1.022 0.021 0.329 0.087 0.621 0.2 0.876 0.114 0.256 0.297 0.46 0.548 0.615 0.252 0.154 0.608 0.231 1.068 0.231 0.457 0 0.814-0.077 1.065-0.231 0.251-0.155 0.434-0.359 0.548-0.615 0.112-0.255 0.18-0.547 0.199-0.876 0.02-0.328 0.031-0.669 0.031-1.022 0-0.348-0.011-0.687-0.031-1.016-0.019-0.328-0.087-0.621-0.199-0.879-0.114-0.257-0.297-0.464-0.548-0.618s-0.608-0.231-1.065-0.231m0 0.795c0.155 0 0.282 0.037 0.377 0.114 0.093 0.076 0.165 0.192 0.213 0.349 0.051 0.157 0.082 0.359 0.097 0.607 0.015 0.247 0.021 0.54 0.021 0.879s-0.006 0.632-0.021 0.879c-0.015 0.248-0.046 0.45-0.097 0.607-0.048 0.157-0.12 0.273-0.213 0.35-0.095 0.076-0.222 0.113-0.377 0.113-0.16 0-0.286-0.037-0.379-0.113-0.096-0.077-0.165-0.193-0.216-0.35-0.049-0.157-0.08-0.359-0.096-0.607-0.013-0.247-0.02-0.54-0.02-0.879s0.007-0.632 0.02-0.879c0.016-0.248 0.047-0.45 0.096-0.607 0.051-0.157 0.12-0.273 0.216-0.349 0.093-0.077 0.219-0.114 0.379-0.114"/>
      <path d="m380.9258 317.1413v5.31h1.508l1.423-3.678h0.015v3.678h1.044v-5.31h-1.474l-1.459 3.883h-0.014v-3.883h-1.043z"/>
      <path d="m385.8551 317.1413v5.31h2.918v-0.816h-1.8v-1.31h1.659v-0.816h-1.659v-1.553h1.859v-0.815h-2.977z"/>
    </g>
    <path d="m386.7499 286.2836c0.319 0.008 0.395 0.137 0.395 0.284 0 0.154-0.076 0.233-0.348 0.233h-0.404v-0.517h0.357zm-0.357-0.317v-0.865h-0.339v2.016h0.704c0.397 0 0.803-0.102 0.803-0.557 0-0.231-0.145-0.417-0.437-0.474v-0.006c0.296-0.054 0.333-0.183 0.367-0.4 0.031-0.187 0.055-0.399 0.125-0.579h-0.429c-0.025 0.113-0.059 0.246-0.071 0.36-0.023 0.173-0.023 0.338-0.121 0.431-0.087 0.074-0.201 0.065-0.318 0.074h-0.284zm1.907 0.117c0 0.777-0.676 1.406-1.514 1.406-0.842 0-1.524-0.629-1.524-1.406 0-0.779 0.682-1.416 1.524-1.416 0.838 0 1.514 0.637 1.514 1.416m-3.365 0c0 0.944 0.822 1.709 1.851 1.709 1.019 0 1.841-0.765 1.841-1.709 0-0.948-0.822-1.716-1.841-1.716-1.029 0-1.851 0.768-1.851 1.716" fill="#1b1615"/>
    <path d="m359.3315 307.5136 19.105 5.69 1.914-6.033-9.569-2.847 0.783-2.469 8.841 2.631 1.913-6.038-8.836-2.627 0.824-2.601 9.883 2.945 1.917-6.03-19.416-5.785-7.359 23.164z" fill="#1b1615"/>
  </g>
</svg>
