<?xml version="1.0" encoding="UTF-8" standalone="no"?>
<svg width="100px" height="130px" viewBox="0 0 100 130" version="1.1" xmlns="http://www.w3.org/2000/svg" xmlns:xlink="http://www.w3.org/1999/xlink" xmlns:sketch="http://www.bohemiancoding.com/sketch/ns">
    <!-- Generator: Sketch 3.4.4 (17249) - http://www.bohemiancoding.com/sketch -->
    <title>icon-file-large-unkown</title>
    <desc>Created with Sketch.</desc>
    <defs>
        <filter x="-50%" y="-50%" width="200%" height="200%" filterUnits="objectBoundingBox" id="filter-1">
            <feOffset dx="0" dy="2" in="SourceAlpha" result="shadowOffsetOuter1"></feOffset>
            <feGaussianBlur stdDeviation="7" in="shadowOffsetOuter1" result="shadowBlurOuter1"></feGaussianBlur>
            <feColorMatrix values="0 0 0 0 0   0 0 0 0 0   0 0 0 0 0  0 0 0 0.07 0" in="shadowBlurOuter1" type="matrix" result="shadowMatrixOuter1"></feColorMatrix>
            <feMerge>
                <feMergeNode in="shadowMatrixOuter1"></feMergeNode>
                <feMergeNode in="SourceGraphic"></feMergeNode>
            </feMerge>
        </filter>
        <filter x="-50%" y="-50%" width="200%" height="200%" filterUnits="objectBoundingBox" id="filter-2">
            <feOffset dx="-1" dy="3" in="SourceAlpha" result="shadowOffsetOuter1"></feOffset>
            <feGaussianBlur stdDeviation="0" in="shadowOffsetOuter1" result="shadowBlurOuter1"></feGaussianBlur>
            <feColorMatrix values="0 0 0 0 0   0 0 0 0 0   0 0 0 0 0  0 0 0 0.07 0" in="shadowBlurOuter1" type="matrix" result="shadowMatrixOuter1"></feColorMatrix>
            <feMerge>
                <feMergeNode in="shadowMatrixOuter1"></feMergeNode>
                <feMergeNode in="SourceGraphic"></feMergeNode>
            </feMerge>
        </filter>
    </defs>
    <g id="Drag-&amp;-Drop" stroke="none" stroke-width="1" fill="none" fill-rule="evenodd" sketch:type="MSPage">
        <g id="Desktop-HD---Drag-&amp;-Drop,-Droplet" sketch:type="MSArtboardGroup" transform="translate(-224.000000, -868.000000)" stroke-width="2">
            <g id="Group" sketch:type="MSLayerGroup" transform="translate(239.000000, 880.000000)">
                <g id="icon-file-large-unkown" sketch:type="MSShapeGroup">
                    <path d="M0,6.99306484 C0,3.68318653 2.68859615,1 6.00265456,1 L50.7616887,1 C55.1749854,1 70,15.735709 70,20.1070311 L70,95.0005252 C70,98.3139437 67.3201398,101 64.0015788,101 L5.99842118,101 C2.68558464,101 0,98.312319 0,95.0069352 L0,6.99306484 Z" id="Rectangle-113" stroke="#7289DA" fill="#F4F6FC" filter="url(#filter-1)"></path>
                    <path d="M51,3.99706188 C51,0.684976062 52.8947487,-0.105251323 55.2418213,2.24182129 L68.7581787,15.7581787 C71.1008719,18.1008719 70.3133742,20 67.0029381,20 L54.0013869,20 C52.3437667,20 51,18.6569187 51,16.9986131 L51,3.99706188 Z" id="Path" stroke="#7289DA" fill="#F4F6FC" filter="url(#filter-2)"></path>
                    <path d="M46,5 L7.98543461,5 C5.22563406,5 2.98837366,7.22898489 2.98837366,10.0021863 L2.98837366,17" id="Path-156" stroke="#C9D2F0" opacity="0.6"></path>
                    <path d="M54,7 L54,14.5023733 C54,15.8817744 55.1096621,17 56.5,17 L59,17" id="Path-157" stroke-opacity="0.6" stroke="#C9D2F0"></path>
                </g>
            </g>
        </g>
    </g>
</svg>