<svg width="200" height="109" viewBox="0 0 200 109" fill="none" xmlns="http://www.w3.org/2000/svg">
<g clip-path="url(#clip0_9_18046)">
<path d="M142.001 0H4.61461C2.06603 0 0 2.056 0 4.59222V90.5742C0 93.1104 2.06603 95.1664 4.61461 95.1664H142.001C144.549 95.1664 146.615 93.1104 146.615 90.5742V4.59222C146.615 2.056 144.549 0 142.001 0Z" fill="#36393F"/>
<path d="M16.3155 0V95.1664H4.61462C3.39074 95.1664 2.217 94.6826 1.35159 93.8214C0.486181 92.9602 0 91.7922 0 90.5742L0 4.59222C0 3.37428 0.486181 2.20624 1.35159 1.34503C2.217 0.483821 3.39074 0 4.61462 0L16.3155 0Z" fill="#292B2F"/>
<path d="M49.4416 35.6099H16.3154V50.5334H49.4416V35.6099Z" fill="#4B4D51"/>
<path d="M8.15772 57.2535C11.156 57.2535 13.5867 54.8346 13.5867 51.8509C13.5867 48.8671 11.156 46.4482 8.15772 46.4482C5.15939 46.4482 2.72876 48.8671 2.72876 51.8509C2.72876 54.8346 5.15939 57.2535 8.15772 57.2535Z" fill="#34F4CF"/>
<path d="M10.2388 8.521H6.07662C4.22765 8.521 2.72876 10.0126 2.72876 11.8526V15.9946C2.72876 17.8346 4.22765 19.3262 6.07662 19.3262H10.2388C12.0878 19.3262 13.5867 17.8346 13.5867 15.9946V11.8526C13.5867 10.0126 12.0878 8.521 10.2388 8.521Z" fill="#6990FF"/>
<path d="M10.2388 21.1602H6.07662C4.22765 21.1602 2.72876 22.6518 2.72876 24.4918V28.6338C2.72876 30.4738 4.22765 31.9654 6.07662 31.9654H10.2388C12.0878 31.9654 13.5867 30.4738 13.5867 28.6338V24.4918C13.5867 22.6518 12.0878 21.1602 10.2388 21.1602Z" fill="#4B4D51"/>
<path d="M8.15772 44.6094C11.156 44.6094 13.5867 42.1906 13.5867 39.2068C13.5867 36.223 11.156 33.8042 8.15772 33.8042C5.15939 33.8042 2.72876 36.223 2.72876 39.2068C2.72876 42.1906 5.15939 44.6094 8.15772 44.6094Z" fill="#4B4D51"/>
<path d="M4.24792 5.73438C5.08692 5.73438 5.76707 5.05753 5.76707 4.2226C5.76707 3.38766 5.08692 2.71082 4.24792 2.71082C3.40891 2.71082 2.72876 3.38766 2.72876 4.2226C2.72876 5.05753 3.40891 5.73438 4.24792 5.73438Z" fill="#4B4D51"/>
<path d="M8.16723 5.73438C9.00623 5.73438 9.68638 5.05753 9.68638 4.2226C9.68638 3.38766 9.00623 2.71082 8.16723 2.71082C7.32822 2.71082 6.64807 3.38766 6.64807 4.2226C6.64807 5.05753 7.32822 5.73438 8.16723 5.73438Z" fill="#4B4D51"/>
<path d="M12.0865 5.73438C12.9255 5.73438 13.6057 5.05753 13.6057 4.2226C13.6057 3.38766 12.9255 2.71082 12.0865 2.71082C11.2475 2.71082 10.5674 3.38766 10.5674 4.2226C10.5674 5.05753 11.2475 5.73438 12.0865 5.73438Z" fill="#4B4D51"/>
<path d="M45.9271 8.521H20.8158C20.2266 8.521 19.749 8.99627 19.749 9.58256V12.1038C19.749 12.6901 20.2266 13.1653 20.8158 13.1653H45.9271C46.5162 13.1653 46.9938 12.6901 46.9938 12.1038V9.58256C46.9938 8.99627 46.5162 8.521 45.9271 8.521Z" fill="#4B4D51"/>
<path d="M23.7969 32.4772C26.2008 32.4772 28.1496 30.5379 28.1496 28.1457C28.1496 25.7534 26.2008 23.8141 23.7969 23.8141C21.393 23.8141 19.4442 25.7534 19.4442 28.1457C19.4442 30.5379 21.393 32.4772 23.7969 32.4772Z" fill="#6990FF"/>
<path d="M45.5652 26.7429H31.3356C30.9984 26.7946 30.6909 26.9647 30.4688 27.2225C30.2466 27.4802 30.1245 27.8085 30.1245 28.1481C30.1245 28.4876 30.2466 28.8159 30.4688 29.0737C30.6909 29.3314 30.9984 29.5015 31.3356 29.5532H45.5652C45.9024 29.5015 46.2099 29.3314 46.432 29.0737C46.6541 28.8159 46.7763 28.4876 46.7763 28.1481C46.7763 27.8085 46.6541 27.4802 46.432 27.2225C46.2099 26.9647 45.9024 26.7946 45.5652 26.7429Z" fill="#4B4D51"/>
<path d="M44.8509 2.65862H20.8396C20.6206 2.64677 20.4014 2.67947 20.1954 2.75473C19.9895 2.83 19.8011 2.94624 19.6418 3.09637C19.4826 3.2465 19.3557 3.42736 19.269 3.62791C19.1823 3.82846 19.1376 4.04449 19.1376 4.26282C19.1376 4.48114 19.1823 4.69717 19.269 4.89772C19.3557 5.09827 19.4826 5.27913 19.6418 5.42926C19.8011 5.57939 19.9895 5.69563 20.1954 5.7709C20.4014 5.84616 20.6206 5.87886 20.8396 5.86701H44.8509C45.0699 5.87886 45.2891 5.84616 45.4951 5.7709C45.701 5.69563 45.8894 5.57939 46.0486 5.42926C46.2079 5.27913 46.3348 5.09827 46.4215 4.89772C46.5082 4.69717 46.5529 4.48114 46.5529 4.26282C46.5529 4.04449 46.5082 3.82846 46.4215 3.62791C46.3348 3.42736 46.2079 3.2465 46.0486 3.09637C45.8894 2.94624 45.701 2.83 45.4951 2.75473C45.2891 2.67947 45.0699 2.64677 44.8509 2.65862Z" fill="#292B2F"/>
<path d="M141.12 53.9455H64.8617C64.1141 53.9455 63.9855 53.3436 63.9855 52.6043V37.8703C63.9855 37.131 64.1141 36.5292 64.8617 36.5292H141.12C141.477 36.5292 141.82 36.6705 142.073 36.922C142.325 37.1735 142.467 37.5146 142.467 37.8703V52.6043C142.467 52.96 142.325 53.3011 142.073 53.5527C141.82 53.8042 141.477 53.9455 141.12 53.9455Z" fill="#4B4D51"/>
<path d="M23.7969 47.4955C26.2008 47.4955 28.1496 45.5562 28.1496 43.164C28.1496 40.7717 26.2008 38.8324 23.7969 38.8324C21.393 38.8324 19.4442 40.7717 19.4442 43.164C19.4442 45.5562 21.393 47.4955 23.7969 47.4955Z" fill="#FF78B9"/>
<path d="M45.5652 41.7613H31.3356C31.1311 41.7277 30.9217 41.7388 30.7219 41.7939C30.5221 41.8489 30.3368 41.9465 30.1787 42.08C30.0207 42.2135 29.8937 42.3796 29.8066 42.5668C29.7195 42.754 29.6744 42.9578 29.6744 43.164C29.6744 43.3703 29.7195 43.5741 29.8066 43.7613C29.8937 43.9485 30.0207 44.1146 30.1787 44.2481C30.3368 44.3816 30.5221 44.4792 30.7219 44.5342C30.9217 44.5893 31.1311 44.6004 31.3356 44.5668H45.5652C45.8993 44.512 46.203 44.3409 46.422 44.0839C46.6411 43.827 46.7614 43.501 46.7614 43.164C46.7614 42.8271 46.6411 42.5011 46.422 42.2442C46.203 41.9872 45.8993 41.8161 45.5652 41.7613Z" fill="#5A5D60"/>
<path d="M23.7969 62.329C26.2008 62.329 28.1496 60.3897 28.1496 57.9975C28.1496 55.6052 26.2008 53.6659 23.7969 53.6659C21.393 53.6659 19.4442 55.6052 19.4442 57.9975C19.4442 60.3897 21.393 62.329 23.7969 62.329Z" fill="#34F4CF"/>
<path d="M45.5652 56.5946H31.3356C31.1311 56.5611 30.9217 56.5722 30.7219 56.6272C30.5221 56.6823 30.3368 56.7799 30.1787 56.9134C30.0207 57.0468 29.8937 57.2129 29.8066 57.4001C29.7195 57.5873 29.6744 57.7911 29.6744 57.9974C29.6744 58.2037 29.7195 58.4075 29.8066 58.5947C29.8937 58.7819 30.0207 58.948 30.1787 59.0815C30.3368 59.2149 30.5221 59.3126 30.7219 59.3676C30.9217 59.4227 31.1311 59.4338 31.3356 59.4002H45.5652C45.8993 59.3454 46.203 59.1742 46.422 58.9173C46.6411 58.6604 46.7614 58.3344 46.7614 57.9974C46.7614 57.6605 46.6411 57.3345 46.422 57.0775C46.203 56.8206 45.8993 56.6495 45.5652 56.5946Z" fill="#4B4D51"/>
<path d="M23.7969 77.2526C26.2008 77.2526 28.1496 75.3133 28.1496 72.921C28.1496 70.5288 26.2008 68.5895 23.7969 68.5895C21.393 68.5895 19.4442 70.5288 19.4442 72.921C19.4442 75.3133 21.393 77.2526 23.7969 77.2526Z" fill="#FF78B9"/>
<path d="M45.5652 71.5182H31.3356C30.9984 71.5699 30.6909 71.74 30.4688 71.9977C30.2466 72.2555 30.1245 72.5838 30.1245 72.9233C30.1245 73.2629 30.2466 73.5912 30.4688 73.8489C30.6909 74.1067 30.9984 74.2768 31.3356 74.3285H45.5652C45.8993 74.2736 46.2029 74.1025 46.422 73.8456C46.6411 73.5887 46.7613 73.2627 46.7613 72.9257C46.7613 72.5888 46.6411 72.2627 46.422 72.0058C46.2029 71.7489 45.8993 71.5778 45.5652 71.5229V71.5182Z" fill="#4B4D51"/>
<path d="M23.7969 92.1808C26.2008 92.1808 28.1496 90.2415 28.1496 87.8493C28.1496 85.457 26.2008 83.5177 23.7969 83.5177C21.393 83.5177 19.4442 85.457 19.4442 87.8493C19.4442 90.2415 21.393 92.1808 23.7969 92.1808Z" fill="#6990FF"/>
<path d="M45.5652 86.4418H31.3356C30.9984 86.4935 30.6909 86.6636 30.4688 86.9213C30.2466 87.1791 30.1245 87.5074 30.1245 87.8469C30.1245 88.1865 30.2466 88.5148 30.4688 88.7725C30.6909 89.0303 30.9984 89.2004 31.3356 89.2521H45.5652C45.9024 89.2004 46.2099 89.0303 46.432 88.7725C46.6541 88.5148 46.7763 88.1865 46.7763 87.8469C46.7763 87.5074 46.6541 87.1791 46.432 86.9213C46.2099 86.6636 45.9024 86.4935 45.5652 86.4418Z" fill="#4B4D51"/>
<path d="M45.9271 15.4069H20.8158C20.2266 15.4069 19.749 15.8821 19.749 16.4684V18.9896C19.749 19.5759 20.2266 20.0512 20.8158 20.0512H45.9271C46.5162 20.0512 46.9938 19.5759 46.9938 18.9896V16.4684C46.9938 15.8821 46.5162 15.4069 45.9271 15.4069Z" fill="#4B4D51"/>
<path d="M56.604 45.0312C59.008 45.0312 60.9567 43.0919 60.9567 40.6996C60.9567 38.3073 59.008 36.368 56.604 36.368C54.2001 36.368 52.2513 38.3073 52.2513 40.6996C52.2513 43.0919 54.2001 45.0312 56.604 45.0312Z" fill="#FF78B9"/>
<path d="M65.3379 56.6562H141.12C141.478 56.6562 141.822 56.798 142.076 57.0505C142.33 57.3029 142.472 57.6452 142.472 58.0022V77.0108C142.472 77.3678 142.33 77.7101 142.076 77.9625C141.822 78.2149 141.478 78.3567 141.12 78.3567H64.8617C64.6293 78.3567 64.4065 78.2649 64.2421 78.1013C64.0778 77.9378 63.9855 77.716 63.9855 77.4847V58.0022C63.9855 57.6452 64.128 57.3029 64.3816 57.0505C64.6352 56.798 64.9793 56.6563 65.3379 56.6562Z" fill="#4B4D51"/>
<path d="M56.604 65.163C59.008 65.163 60.9567 63.2237 60.9567 60.8314C60.9567 58.4392 59.008 56.4999 56.604 56.4999C54.2001 56.4999 52.2513 58.4392 52.2513 60.8314C52.2513 63.2237 54.2001 65.163 56.604 65.163Z" fill="#6990FF"/>
<path d="M60.9567 8.5304C60.9194 9.65378 60.4447 10.7187 59.6329 11.5003C58.8211 12.2818 57.7359 12.7187 56.6064 12.7187C55.4769 12.7187 54.3917 12.2818 53.5799 11.5003C52.7682 10.7187 52.2935 9.65378 52.2561 8.5304H60.9567Z" fill="#34F4CF"/>
<path d="M63.9855 8.5304V32.4725C63.9855 33.2165 64.1141 33.8184 64.8617 33.8184H141.12C141.477 33.8171 141.82 33.6748 142.073 33.4225C142.325 33.1702 142.467 32.8286 142.467 32.4725V8.5304H63.9855Z" fill="#4B4D51"/>
<path d="M140.939 82.4182H54.4515C53.6046 82.4182 52.9181 83.1014 52.9181 83.9442V89.4795C52.9181 90.3223 53.6046 91.0055 54.4515 91.0055H140.939C141.786 91.0055 142.472 90.3223 142.472 89.4795V83.9442C142.472 83.1014 141.786 82.4182 140.939 82.4182Z" fill="#4B4D51"/>
<path d="M59.0424 89.3468C60.5415 89.3468 61.7568 88.1374 61.7568 86.6455C61.7568 85.1536 60.5415 83.9442 59.0424 83.9442C57.5432 83.9442 56.3279 85.1536 56.3279 86.6455C56.3279 88.1374 57.5432 89.3468 59.0424 89.3468Z" fill="#5A5D60"/>
<path d="M138.524 80.5652C135.219 83.3092 129.809 84.9632 123.59 84.9632C122.842 84.9632 122.08 84.9631 121.309 84.8873C120.832 84.8589 120.356 84.821 119.88 84.7688C117.026 84.4696 114.215 83.8545 111.498 82.9348C111.051 82.7879 110.598 82.6315 110.151 82.4609C107.483 81.4697 104.929 80.1988 102.531 78.6696C102.136 78.4184 101.741 78.153 101.345 77.8781C98.9594 76.22 96.7551 74.3171 94.7687 72.2007C94.4247 71.8378 94.1559 71.4111 93.9777 70.9449C93.7994 70.4787 93.7152 69.9822 93.7298 69.4836C93.7444 68.985 93.8575 68.4941 94.0627 68.039C94.2679 67.5839 94.5612 67.1735 94.9258 66.8312C95.2904 66.4889 95.7192 66.2215 96.1877 66.0441C96.6561 65.8667 97.1551 65.7829 97.6562 65.7974C98.1572 65.8119 98.6505 65.9245 99.1078 66.1287C99.5651 66.3329 99.9775 66.6248 100.321 66.9876C101.983 68.7483 103.834 70.3217 105.841 71.6794C106.236 71.9448 106.636 72.2054 107.041 72.4518C108.919 73.618 110.912 74.5898 112.989 75.3522C113.437 75.5181 113.884 75.6745 114.341 75.8261C116.05 76.3752 117.803 76.7795 119.58 77.0346C119.994 77.0962 120.404 77.1436 120.809 77.1815C121.294 77.232 121.771 77.27 122.237 77.2952C127.595 77.5748 131.733 76.3 133.643 74.7124C134.029 74.3935 134.475 74.1533 134.954 74.0057C135.433 73.8581 135.937 73.8059 136.437 73.8521C136.937 73.8983 137.422 74.042 137.866 74.275C138.31 74.508 138.704 74.8257 139.024 75.21C139.345 75.5943 139.586 76.0377 139.734 76.5148C139.883 76.9919 139.935 77.4934 139.889 77.9907C139.842 78.488 139.698 78.9713 139.464 79.413C139.23 79.8548 138.91 80.2463 138.524 80.5652Z" fill="#8CD9FF"/>
<path d="M107.041 72.4708L102.541 78.6316C102.145 78.3805 101.75 78.1151 101.355 77.8402L105.841 71.6793C106.236 71.9637 106.636 72.2243 107.041 72.4708Z" fill="#66BCFF"/>
<path d="M114.342 75.8261L111.484 82.9348C111.037 82.7879 110.584 82.6315 110.136 82.4609L112.994 75.3522C113.437 75.5323 113.884 75.6887 114.342 75.8261Z" fill="#66BCFF"/>
<path d="M122.242 77.3L121.29 84.8826C120.813 84.8542 120.337 84.8162 119.861 84.7641L120.79 77.2052C121.291 77.2336 121.775 77.2652 122.242 77.3Z" fill="#66BCFF"/>
<path d="M98.3975 67.0302C98.626 65.3478 98.2974 63.836 96.9688 62.6323C96.0163 61.7366 93.859 61.3101 93.0161 62.8598C92.6113 63.6086 92.959 63.5896 92.959 63.5896L92.1922 65.0113L90.4159 63.7318L89.2635 64.2626C88.7872 65.3952 89.0873 67.3193 90.3635 68.6178C91.1063 69.3824 92.0544 69.9181 93.0948 70.161C94.1351 70.4038 95.2237 70.3436 96.2306 69.9874C97.4307 69.5277 98.1641 68.7173 98.3975 67.0302Z" fill="black"/>
<path d="M57.8994 21.0654L100.76 72.1674C100.88 72.3109 100.971 72.4765 101.027 72.6549C101.083 72.8333 101.103 73.0209 101.086 73.207C101.07 73.3932 101.016 73.5742 100.929 73.7398C100.842 73.9054 100.723 74.0523 100.579 74.1721C100.435 74.2919 100.268 74.3822 100.089 74.438C99.9096 74.4938 99.721 74.5139 99.534 74.4972C99.3469 74.4805 99.165 74.4272 98.9986 74.3406C98.8322 74.2539 98.6846 74.1354 98.5642 73.992L56.8041 21.9563C56.7025 21.8104 56.6599 21.6317 56.6848 21.4558C56.7097 21.28 56.8002 21.1199 56.9384 21.0075C57.0765 20.8952 57.2522 20.8387 57.4303 20.8494C57.6084 20.8602 57.7759 20.9373 57.8994 21.0654Z" fill="#FFE75C"/>
<path d="M95.9328 64.2636C96.2984 63.4571 95.9378 62.5085 95.1274 62.1448C94.3171 61.781 93.3638 62.1398 92.9983 62.9462C92.6328 63.7526 92.9933 64.7013 93.8037 65.065C94.614 65.4288 95.5673 65.07 95.9328 64.2636Z" fill="black"/>
<path d="M93.3401 65.8407C93.0937 65.7503 92.8289 65.721 92.5686 65.7554C92.5234 65.7633 92.477 65.7601 92.4334 65.7461C92.3898 65.732 92.3504 65.7076 92.3184 65.6749C92.2865 65.6422 92.2631 65.6022 92.2502 65.5584C92.2374 65.5146 92.2355 65.4684 92.2447 65.4237C92.316 65.1534 92.316 64.8694 92.2447 64.5991C92.1548 64.2767 91.9663 63.9902 91.7053 63.7793C91.4443 63.5684 91.1238 63.4436 90.7883 63.4221C90.4528 63.4007 90.1189 63.4837 89.8329 63.6597C89.547 63.8357 89.3232 64.0959 89.1926 64.4042C89.062 64.7125 89.0311 65.0536 89.1041 65.3801C89.1771 65.7067 89.3505 66.0026 89.6001 66.2267C89.8498 66.4507 90.1634 66.5919 90.4973 66.6306C90.8313 66.6693 91.169 66.6036 91.4637 66.4426C91.3287 66.6356 91.2385 66.8561 91.1998 67.0881C91.161 67.3201 91.1748 67.5577 91.2399 67.7838C91.316 68.0462 91.4583 68.285 91.6533 68.4773C91.8483 68.6696 92.0894 68.809 92.3538 68.8824C92.6182 68.9559 92.8971 68.9608 93.164 68.8967C93.4308 68.8326 93.6767 68.7017 93.8784 68.5164C94.0801 68.331 94.2308 68.0975 94.3162 67.8379C94.4016 67.5783 94.4188 67.3012 94.3663 67.0331C94.3138 66.765 94.1933 66.5147 94.0161 66.306C93.839 66.0973 93.6112 65.9371 93.3543 65.8407H93.3401Z" fill="black"/>
<path d="M166.831 98.7161C166.582 101.523 165.286 104.136 163.198 106.039C161.11 107.943 158.381 108.999 155.549 109H135.41C132.578 109 129.848 107.944 127.76 106.041C125.671 104.137 124.376 101.524 124.128 98.7161C124.083 98.2435 124.072 97.7685 124.095 97.2943C124.129 96.33 124.289 95.3742 124.571 94.4509L128.657 77.954C129.251 76.0068 130.459 74.3016 132.102 73.0906C133.745 71.8795 135.736 71.2268 137.781 71.2291H153.154C155.199 71.2268 157.19 71.8795 158.833 73.0906C160.476 74.3016 161.684 76.0068 162.278 77.954L166.364 94.4509C166.646 95.3741 166.807 96.33 166.84 97.2943C166.871 97.7679 166.868 98.243 166.831 98.7161Z" fill="url(#paint0_linear_9_18046)"/>
<path d="M166.831 98.7161H124.128C124.083 98.2435 124.072 97.7684 124.095 97.2943H166.86C166.883 97.7683 166.874 98.2434 166.831 98.7161Z" fill="#ED5F00"/>
<path d="M147.682 73.2433L147.577 73.3997C147.36 73.732 147.191 74.0924 147.072 74.4707C146.925 74.9108 146.851 75.3718 146.853 75.8356V88.1573C146.802 88.6941 146.552 89.1926 146.151 89.5555C145.751 89.9183 145.228 90.1194 144.686 90.1193H133.448C133.125 90.1194 132.806 90.0482 132.515 89.9107C132.223 89.7732 131.966 89.5729 131.762 89.3243C131.558 89.0758 131.412 88.7851 131.334 88.4735C131.257 88.1618 131.25 87.8369 131.314 87.5223L133.6 76.4564C133.813 75.4299 134.374 74.5078 135.191 73.8456C136.007 73.1835 137.028 72.8217 138.081 72.8215H147.463C147.513 72.8189 147.563 72.8308 147.607 72.8558C147.65 72.8807 147.686 72.9176 147.709 72.9621C147.732 73.0066 147.742 73.0568 147.737 73.1067C147.732 73.1565 147.713 73.204 147.682 73.2433Z" fill="#FF8C19"/>
<path d="M147.072 74.4707C146.925 74.9108 146.851 75.3718 146.853 75.8356V88.1573C146.802 88.6941 146.552 89.1926 146.151 89.5555C145.751 89.9183 145.228 90.1194 144.687 90.1193H134.295C134.022 89.8764 133.817 89.5668 133.701 89.2211C133.585 88.8753 133.562 88.5054 133.633 88.1478L135.567 78.0251C136.043 75.5038 137.538 74.447 139.662 74.447L147.072 74.4707Z" fill="#FFE75C"/>
<path d="M192.904 90.6359C192.568 91.0049 192.163 91.3045 191.711 91.5176C191.258 91.7307 190.769 91.853 190.269 91.8777C189.769 91.9023 189.269 91.8288 188.798 91.6612C188.327 91.4937 187.894 91.2355 187.523 90.9012C186.408 89.8966 185.219 88.9762 183.966 88.1478C183.57 87.8824 183.17 87.6265 182.761 87.3848C180.767 86.1816 178.664 85.1677 176.479 84.3565C176.036 84.1859 175.584 84.0295 175.132 83.8826C172.906 83.1327 170.612 82.5978 168.283 82.2855C167.807 82.2192 167.331 82.1623 166.855 82.1244C164.88 81.9356 162.891 81.9562 160.921 82.186C159.918 82.306 158.907 82.0244 158.112 81.4032C157.318 80.782 156.803 79.8719 156.683 78.8733C156.562 77.8747 156.845 76.8693 157.469 76.0783C158.094 75.2874 159.008 74.7755 160.011 74.6555C162.528 74.3586 165.07 74.33 167.593 74.5702C168.069 74.6081 168.545 74.6602 169.022 74.7219C171.938 75.0911 174.809 75.7499 177.594 76.6886C178.046 76.8355 178.494 76.9919 178.941 77.1625C181.655 78.1571 184.265 79.4092 186.737 80.9017C187.147 81.1481 187.547 81.404 187.947 81.6647C189.612 82.7466 191.189 83.9556 192.666 85.2806C193.411 85.9595 193.855 86.905 193.899 87.9092C193.944 88.9134 193.586 89.8942 192.904 90.6359Z" fill="#8CD9FF"/>
<path d="M187.918 81.6647L183.966 88.1478C183.57 87.8824 183.17 87.6265 182.761 87.3848L186.709 80.8922C187.118 81.1481 187.518 81.404 187.918 81.6647Z" fill="#66BCFF"/>
<path d="M178.913 77.1625L176.479 84.3565C176.036 84.1859 175.584 84.0295 175.132 83.8826L177.565 76.6934C178.018 76.8355 178.465 76.9919 178.913 77.1625Z" fill="#66BCFF"/>
<path d="M168.993 74.7218L168.283 82.3044C167.807 82.2381 167.331 82.1812 166.855 82.1433L167.574 74.5939C168.05 74.6081 168.522 74.6602 168.993 74.7218Z" fill="#66BCFF"/>
<path d="M199.171 88.0341C195.057 86.1384 190.999 87.7118 190.833 87.7782L190.79 87.8019C190.729 87.8281 190.67 87.8582 190.614 87.8919L190.547 87.9346L190.495 87.9677C190.456 87.9962 190.428 88.0293 190.395 88.0578L190.347 88.0957C190.291 88.1571 190.238 88.222 190.19 88.29L190.166 88.3232C190.128 88.3848 190.095 88.4464 190.061 88.5127V88.5601C190.032 88.6311 190.009 88.7039 189.99 88.7781C189.954 88.9533 189.954 89.1338 189.99 89.3089V89.3326C189.987 89.3689 189.987 89.4053 189.99 89.4416C190.413 91.2609 190.548 93.135 190.39 94.9959C190.355 95.371 190.472 95.7444 190.714 96.034C190.956 96.3237 191.303 96.506 191.68 96.5408H191.814C192.171 96.5423 192.517 96.4102 192.781 96.1706C193.046 95.9311 193.21 95.6015 193.242 95.247C193.335 94.1862 193.343 93.1197 193.266 92.0576C194.094 92.6746 194.88 93.3459 195.619 94.067C195.89 94.3181 196.248 94.4548 196.618 94.4483C196.988 94.4418 197.341 94.2926 197.603 94.0322C197.865 93.7717 198.015 93.4202 198.021 93.0519C198.028 92.6836 197.89 92.3271 197.638 92.0576C196.863 91.2929 196.037 90.5805 195.166 89.925C196.14 89.9579 197.098 90.1818 197.986 90.5837C198.33 90.7421 198.723 90.7579 199.079 90.6277C199.435 90.4975 199.724 90.232 199.883 89.8894C200.042 89.5469 200.058 89.1556 199.927 88.8014C199.797 88.4472 199.53 88.1593 199.186 88.0009L199.171 88.0341Z" fill="black"/>
<path d="M139.739 29.0224L140.281 25.7524C140.586 23.9231 142.239 22.4872 143.977 22.5488L152.911 22.8568C156.325 22.9753 157.845 24.9563 159.926 29.2167L139.739 29.0224Z" fill="#66BCFF"/>
<path d="M116.346 42.7186C115.775 46.3724 117.18 49.6709 119.518 50.3817C119.617 50.418 119.719 50.445 119.823 50.4623H119.88H119.937C121.804 50.6424 123.747 47.8084 124.356 44.0218C124.966 40.2353 123.952 36.9131 122.128 36.4866H122.056H122.013C121.907 36.4794 121.801 36.4794 121.694 36.4866C119.261 36.3776 116.918 39.0694 116.346 42.7186Z" fill="#FFE75C"/>
<path d="M174.651 51.6044C173.974 55.8696 172.636 62.8504 167.136 65.2247C164.326 66.4379 159.778 67.1203 153.535 67.4284C153.125 67.4284 150.082 66.6607 150.082 66.6607L140.339 65.0778C140.339 65.0778 140.677 67.272 137.61 66.7033C132.271 65.7176 127.466 64.0541 125.147 62.4855C123.047 61.0637 119.432 58.2203 118.732 53.9076C118.313 51.4054 118.556 47.7468 119.242 43.4294C119.791 39.9193 120.727 36.4801 122.033 33.174C123.133 30.4158 126.271 28.2595 129.176 27.6813C135.325 26.4236 141.605 25.9127 147.877 26.16C153.804 26.3885 159.688 27.2657 165.421 28.776C171.788 30.4679 174.608 35.3777 175.198 38.1406C176.203 42.7091 175.332 47.3392 174.651 51.6044Z" fill="url(#paint1_linear_9_18046)"/>
<path d="M153.535 67.4283C151.522 67.5231 149.333 67.5784 146.968 67.5942C143.833 67.5893 140.707 67.291 137.629 66.7032C136.494 65.7078 135.559 64.5084 134.872 63.1678C134.319 62.0731 135.281 61.5471 136.124 61.6987L137.076 61.8646C140.347 62.3462 143.647 62.6106 146.953 62.656H148.563C150.087 62.765 150.768 63.22 151.311 64.3574C152.116 66.0682 152.63 66.7032 153.535 67.4283Z" fill="#FFE75C"/>
<path d="M165.393 45.4957C165.052 47.6963 164.454 49.8497 163.612 51.9125C163.21 52.8697 162.585 53.718 161.788 54.3872C160.991 55.0563 160.046 55.5272 159.03 55.7607C155.987 56.4384 150.639 57.2109 142.801 56.8602C134.962 56.5095 130.276 55.2109 127.471 54.3437L127.309 54.2915C124.285 53.2963 123.633 51.159 124.352 46.235C125.071 41.3111 125.942 38.0268 126.614 36.3824C127.404 34.4535 128.376 33.0981 130.424 32.5911C134.152 31.6954 138.658 30.8376 146.496 31.2546C154.506 31.6811 159.421 32.8707 162.212 33.809C164.074 34.4346 165.431 35.7995 165.631 37.7615V37.9226C165.879 40.4466 165.799 42.992 165.393 45.4957Z" fill="#ED5F00"/>
<path d="M165.393 45.4956C165.052 47.6962 164.454 49.8496 163.612 51.9124C163.21 52.8697 162.585 53.7179 161.788 54.3871C160.991 55.0563 160.046 55.5271 159.03 55.7606C155.987 56.4383 150.639 57.2108 142.801 56.8601C134.962 56.5094 130.276 55.2109 127.471 54.3436L127.309 54.2915C126.304 53.0546 126.176 51.0878 126.638 47.9363C127.338 43.1972 128.161 40.0504 128.809 38.458C129.566 36.605 130.5 35.3065 132.447 34.8373C136.033 33.9748 140.358 33.1502 147.887 33.553C155.578 33.9606 160.302 35.1027 162.973 36.0032C164.052 36.3324 164.986 37.0177 165.621 37.9462C165.871 40.462 165.794 42.9993 165.393 45.4956Z" fill="black"/>
<path d="M138.185 42.7357C139.005 42.0426 139.16 40.884 138.532 40.148C137.904 39.4119 136.73 39.3771 135.91 40.0702C135.09 40.7633 134.935 41.9219 135.563 42.6579C136.192 43.394 137.366 43.4288 138.185 42.7357Z" fill="#57F287"/>
<path d="M155.783 43.7103C156.603 43.0172 156.758 41.8586 156.13 41.1226C155.502 40.3866 154.328 40.3517 153.508 41.0448C152.688 41.7379 152.533 42.8965 153.161 43.6325C153.79 44.3686 154.964 44.4034 155.783 43.7103Z" fill="#57F287"/>
<path d="M139.653 45.1403C139.522 45.8428 139.544 46.5654 139.719 47.2585C139.894 47.9516 140.217 48.5989 140.667 49.1564C141.116 49.7138 141.681 50.1681 142.323 50.4884C142.965 50.8087 143.669 50.9873 144.387 51.012C145.925 51.0669 147.431 50.5659 148.627 49.6015C149.822 48.6372 150.627 47.2747 150.892 45.7658L139.653 45.1403Z" fill="#57F287"/>
<path d="M178.318 48.5334C178.889 44.8843 177.484 41.5858 175.146 40.875C175.047 40.8372 174.945 40.8086 174.841 40.7897H174.775C174.756 40.7875 174.736 40.7875 174.717 40.7897C172.851 40.6048 170.908 43.4388 170.298 47.2254C169.688 51.012 170.703 54.3341 172.527 54.7654H172.598H172.641C172.747 54.7772 172.854 54.7772 172.96 54.7654C175.403 54.8744 177.746 52.1873 178.318 48.5334Z" fill="#FFE75C"/>
</g>
<defs>
<linearGradient id="paint0_linear_9_18046" x1="145.477" y1="126.113" x2="145.477" y2="55.7701" gradientUnits="userSpaceOnUse">
<stop offset="0.12" stop-color="#FFC619"/>
<stop offset="0.2" stop-color="#FFBB19"/>
<stop offset="0.33" stop-color="#FF9F19"/>
<stop offset="0.41" stop-color="#FF8C19"/>
<stop offset="0.83" stop-color="#ED5F00"/>
</linearGradient>
<linearGradient id="paint1_linear_9_18046" x1="146.077" y1="26.3117" x2="149.18" y2="89.8365" gradientUnits="userSpaceOnUse">
<stop stop-color="#FFC619"/>
<stop offset="0.12" stop-color="#FFBB19"/>
<stop offset="0.32" stop-color="#FF9F19"/>
<stop offset="0.44" stop-color="#FF8C19"/>
<stop offset="0.54" stop-color="#F87A0F"/>
<stop offset="0.73" stop-color="#ED5F00"/>
</linearGradient>
<clipPath id="clip0_9_18046">
<rect width="200" height="109" fill="white"/>
</clipPath>
</defs>
</svg>
