<svg width="77" height="79" viewBox="0 0 77 79" fill="none" xmlns="http://www.w3.org/2000/svg">
<path d="M37.7001 75.9277C58.4107 75.9277 75.2001 59.1384 75.2001 38.4277C75.2001 17.7171 58.4107 0.927734 37.7001 0.927734C16.9894 0.927734 0.200073 17.7171 0.200073 38.4277C0.200073 59.1384 16.9894 75.9277 37.7001 75.9277Z" fill="url(#paint0_linear_59_21492)"/>
<path d="M49.7239 49.6198C55.4333 56.9776 62.5976 63.329 67.9264 67.3208C68.8281 67.9984 69.9147 68.3856 71.0418 68.4309C72.1689 68.4762 73.2831 68.1775 74.2363 67.5745C74.8652 67.1786 75.4086 66.6609 75.8345 66.0519C76.2604 65.4429 76.5601 64.7549 76.7162 64.0284C76.8722 63.3019 76.8814 62.5515 76.7431 61.8214C76.6049 61.0913 76.322 60.3962 75.9111 59.777C68.7637 48.9686 61.498 38.321 61.498 38.321L49.7239 49.6198Z" fill="url(#paint1_linear_59_21492)"/>
<path d="M66.9962 64.2112C66.9454 64.2104 66.8956 64.1968 66.8514 64.1716C66.8072 64.1464 66.7699 64.1104 66.7431 64.067C65.6887 62.4557 58.139 50.829 57.4051 49.7011C57.383 49.6671 57.3677 49.6291 57.3601 49.5892C57.3526 49.5493 57.353 49.5083 57.3612 49.4685C57.3694 49.4287 57.3853 49.391 57.4081 49.3574C57.4308 49.3238 57.4599 49.2951 57.4937 49.2728C57.5275 49.2505 57.5653 49.2352 57.605 49.2276C57.6447 49.22 57.6855 49.2204 57.725 49.2286C57.7646 49.2369 57.8021 49.2529 57.8355 49.2758C57.8689 49.2986 57.8975 49.3279 57.9197 49.3619C58.6451 50.4898 66.2033 62.1165 67.2577 63.7363C67.2858 63.7835 67.301 63.8372 67.302 63.8922C67.3029 63.9471 67.2895 64.0014 67.263 64.0495C67.2365 64.0976 67.1979 64.1378 67.1511 64.1662C67.1043 64.1946 67.0509 64.2101 66.9962 64.2112Z" fill="#0EC2BC"/>
<path d="M28.7694 46.4969C21.2684 47.7243 18.107 51.83 15.81 57.9588C13.208 64.9426 12.5045 71.2661 22.7347 77.4288L31.6172 76.1844C44.3138 75.8289 57.2817 72.4343 61.5788 49.1719L28.7694 46.4969Z" fill="#0EC2BC"/>
<path d="M28.7393 24.1495C29.4594 15.6797 30.8065 12.4659 34.5767 11.6122C38.3469 10.7585 40.2024 14.0309 41.8206 19.0693L28.7393 24.1495Z" fill="#2AE5C4"/>
<path d="M51.7633 11.2099C48.4533 11.3621 46.8618 14.0681 45.3634 18.1694L56.0299 20.3342C56.5378 14.4486 55.0733 11.0493 51.7633 11.2099Z" fill="#2AE5C4"/>
<path d="M41.864 54.5261C61.9434 55.897 64.5147 47.3498 66.2063 41.6291C68.5407 33.7165 70.5876 30.2045 67.5342 26.8364C65.6734 24.78 62.9246 24.5684 60.1334 25.3554C57.7567 20.3625 54.0774 16.8336 43.9616 17.5698C36.3409 18.1284 24.4743 22.1227 20.1776 35.426C15.8809 48.7292 32.2557 53.866 41.864 54.5261Z" fill="url(#paint2_linear_59_21492)"/>
<path d="M62.5744 29.4018L61.9662 27.6924L59.0016 36.0785L55.4795 38.8711L50.4201 38.2534L36.4753 29.588L35.825 30.7304C37.3789 31.4712 38.7912 32.4794 39.9974 33.7091C44.7273 38.2787 46.6531 46.6056 41.6529 54.5094L41.8472 54.5263C55.0994 55.4318 60.7162 52.0045 63.4866 47.9257C60.902 36.984 62.0676 32.3636 62.5744 29.4018Z" fill="#ADFDDC"/>
<path d="M34.8359 30.6902C34.7883 30.6887 34.7416 30.6767 34.6993 30.6551C34.6569 30.6335 34.62 30.6029 34.5912 30.5655C33.4773 29.0275 32.0935 28.3957 29.9586 28.4373C29.8854 28.4263 29.8186 28.3902 29.77 28.3353C29.7214 28.2804 29.6942 28.2102 29.6931 28.1373C29.6921 28.0645 29.7174 27.9936 29.7645 27.9374C29.8115 27.8812 29.8773 27.8433 29.9501 27.8304C32.2707 27.7888 33.8571 28.5204 35.0891 30.2081C35.1352 30.2745 35.1531 30.3561 35.1389 30.4353C35.1247 30.5146 35.0796 30.5852 35.0131 30.632C34.9612 30.6683 34.8995 30.6886 34.8359 30.6902Z" fill="#0EC2BC"/>
<path d="M54.2783 39.4111C50.6633 39.4111 45.3507 35.7171 39.7424 31.8264L38.0701 30.672C37.9703 30.6011 37.9015 30.4939 37.8779 30.3728C37.8542 30.2517 37.8777 30.1261 37.9434 30.0221C38.0134 29.9207 38.1199 29.8513 38.2401 29.8289C38.3602 29.8065 38.4843 29.8329 38.5853 29.9024L40.2577 31.0568C45.8321 34.9304 51.6008 38.9237 54.8442 38.4449C58.0875 37.966 59.1939 33.9812 60.4693 29.7656C60.6298 29.2269 60.7903 28.6882 60.9592 28.158C60.9765 28.0993 61.0052 28.0448 61.0436 27.9974C61.082 27.9501 61.1293 27.911 61.1827 27.8824C61.2362 27.8537 61.2947 27.8361 61.3549 27.8306C61.4152 27.8251 61.4759 27.8317 61.5335 27.8502C61.6496 27.8893 61.7458 27.9732 61.8011 28.0836C61.8565 28.1941 61.8665 28.3222 61.8291 28.4402L61.3477 30.0307C60.047 34.3489 58.7041 38.804 54.9793 39.3598C54.7472 39.3945 54.5129 39.4117 54.2783 39.4111Z" fill="black"/>
<path d="M61.1485 26.349C62.4986 26.1754 65.0739 27.1842 65.3656 29.0695C65.7239 31.3351 62.6403 30.6653 61.0318 29.3258C60.2484 28.6643 59.8984 27.8953 59.9484 27.3744C59.9984 26.8534 60.4151 26.44 61.1485 26.349Z" fill="#5865F2"/>
<path d="M39.8673 18.2147C39.6457 17.7319 39.0916 16.7414 38.1114 15.4596C37.5829 14.7521 36.7817 14.4608 36.0316 14.6855C35.2815 14.9102 33.8239 15.8009 33.6449 20.0958C33.6417 20.1851 33.6719 20.2724 33.73 20.3414C33.7881 20.4103 33.87 20.4562 33.9603 20.4704H34.0199C34.1037 20.4711 34.1852 20.4445 34.2517 20.3947C34.3181 20.3449 34.3655 20.2749 34.3865 20.1957C35.0002 17.9483 36.1168 16.2087 37.0459 16.0589C37.1725 16.0393 37.3021 16.0537 37.421 16.1005C38.0943 16.3835 38.9638 17.5571 39.6201 18.7224C39.7309 18.9222 39.8843 18.9472 39.9781 18.8889C40.0719 18.8306 40.106 18.7224 39.8673 18.2147Z" fill="black"/>
<path d="M55.1745 19.3622C55.1745 18.8082 55.0981 17.632 54.7759 15.9955C54.6062 15.0921 54.0465 14.4699 53.3256 14.3591C52.6048 14.2483 51.0443 14.4528 49.2209 18.4332C49.179 18.5163 49.168 18.6117 49.1897 18.7023C49.2115 18.7929 49.2646 18.8727 49.3397 18.9275L49.3821 18.9616C49.4522 18.9968 49.5324 19.0058 49.6085 18.9871C49.6846 18.9684 49.7516 18.9231 49.7976 18.8593C51.1885 17.0013 52.8083 15.8421 53.6479 16.1063C53.763 16.1472 53.8654 16.2177 53.9447 16.3109C54.3942 16.8734 54.6741 18.365 54.7674 19.7543C54.7843 19.9844 54.9031 20.0696 55.0048 20.0611C55.1066 20.0526 55.1745 19.9503 55.1745 19.3622Z" fill="black"/>
<path d="M25.0913 33.2214C25.5749 32.2609 26.2908 31.4344 27.1751 30.8158C28.0594 30.1972 29.0844 29.8057 30.1585 29.6765C31.2119 29.5375 32.282 29.5886 33.317 29.8273C33.8306 29.941 34.3357 30.0894 34.8288 30.2715C35.3159 30.4609 35.7924 30.6763 36.256 30.9168C38.1055 31.8889 39.7101 33.2716 41.0107 34.8723C42.3185 36.4768 43.2865 38.3266 43.8568 40.3111C43.8632 40.3298 43.8657 40.3496 43.864 40.3693C43.8623 40.389 43.8565 40.4081 43.847 40.4254C43.8374 40.4427 43.8244 40.4579 43.8086 40.47C43.7929 40.482 43.7748 40.4907 43.7554 40.4955C43.7163 40.5063 43.6744 40.5019 43.6383 40.4832C43.6023 40.4645 43.5747 40.433 43.5612 40.3949C42.9838 38.4615 42.0154 36.665 40.7151 35.1153C39.423 33.565 37.8437 32.2409 36.0449 31.319C35.5965 31.0916 35.1338 30.8929 34.6599 30.724C34.1899 30.5503 33.7071 30.413 33.2157 30.3134C32.2393 30.1016 31.2325 30.0647 30.243 30.2044C29.2614 30.3336 28.3273 30.702 27.5241 31.2767C26.721 31.8514 26.0738 32.6145 25.6403 33.4979C25.6224 33.534 25.5973 33.5662 25.5667 33.5926C25.5361 33.619 25.5004 33.639 25.4618 33.6515C25.4233 33.664 25.3826 33.6687 25.3422 33.6654C25.3017 33.662 25.2624 33.6507 25.2264 33.632C25.1551 33.5961 25.101 33.5337 25.0757 33.4584C25.0504 33.3831 25.056 33.3009 25.0913 33.2297V33.2214Z" fill="#0EC2BC"/>
<path d="M33.3662 34.6575C37.0605 34.4457 39.2451 36.4029 40.0464 39.7581C40.8476 43.1133 41.2103 45.0027 42.543 46.6973C43.8756 48.3919 45.3095 51.2218 43.2093 56.1868C41.379 60.5418 36.4954 69.4297 31.9324 76.208C31.3617 77.0476 30.5954 77.7343 29.7001 78.2083C28.8049 78.6824 27.8078 78.9293 26.7958 78.9277C21.7182 78.9277 18.7745 73.1408 21.7604 69.0061C29.1912 58.7286 32.4553 53.8483 32.565 51.0862C32.6999 47.553 29.8659 44.2656 28.6429 42.7575C27.4199 41.2493 27.9766 40.0716 28.82 39.7581C29.6635 39.4446 30.7347 39.9445 31.3588 40.9273C30.3973 37.7077 29.9756 34.8608 33.3662 34.6575Z" fill="#2AE5C4"/>
<path d="M38.0027 27.5868C39.8098 28.7022 40.56 30.7234 39.682 32.1073C39.1279 32.9795 38.0964 32.8621 37.2525 32.2415C36.2894 31.5142 35.2166 30.9398 34.073 30.5389C32.837 30.1112 32.513 29.0545 33.1353 28.0816C34.0133 26.6894 36.1955 26.4713 38.0027 27.5868Z" fill="#5865F2"/>
<path d="M75.9102 59.7848C73.1259 55.5668 70.3161 51.3827 67.9295 47.841C68.7166 42.8961 69.893 38.3401 70.8747 35.5084C71.5517 33.5643 71.0778 31.9414 68.7589 31.7892C66.44 31.6371 65.0859 33.4459 63.6303 37.0637C62.1746 40.6815 61.3199 41.8903 59.805 43.8006C58.2901 45.7109 57.5453 47.9678 60.262 52.6422C61.8361 55.3555 66.6347 62.6925 70.3754 68.3643C71.4458 68.5368 72.5433 68.3938 73.5337 67.9529C74.5241 67.5121 75.3643 66.7925 75.9515 65.8821C76.5388 64.9718 76.8477 63.9102 76.8404 62.8273C76.833 61.7444 76.5098 60.6871 75.9102 59.7848Z" fill="#2AE5C4"/>
<path d="M33.1571 34.6419C32.9498 34.665 32.7438 34.6992 32.5401 34.7444C32.3079 34.8039 32.1023 34.9408 31.9566 35.133C31.8109 35.3252 31.7336 35.5614 31.7372 35.8035C31.7481 36.2462 31.8019 36.6867 31.8978 37.1188C32.388 39.4249 33.0641 41.6029 33.5966 43.2343C33.62 43.3109 33.6671 43.378 33.731 43.4256C33.7949 43.4733 33.8722 43.499 33.9516 43.4991C33.9923 43.4988 34.0326 43.4901 34.0699 43.4734C34.1164 43.4589 34.1595 43.4351 34.1967 43.4035C34.2339 43.3718 34.2645 43.3329 34.2865 43.2891C34.3086 43.2453 34.3217 43.1975 34.3252 43.1484C34.3286 43.0994 34.3223 43.0502 34.3065 43.0037C33.7825 41.3808 33.1148 39.237 32.6331 36.9565C32.4218 35.9401 32.4387 35.2312 32.6922 34.9067C32.8128 34.7674 32.9768 34.674 33.1571 34.6419Z" fill="black"/>
<path d="M32.2519 46.2407C32.2774 46.315 32.3244 46.3795 32.3867 46.4253C32.449 46.4711 32.5234 46.4961 32.5999 46.4969C32.6426 46.4967 32.6848 46.488 32.7242 46.4713C32.7693 46.4551 32.8107 46.4297 32.8461 46.3967C32.8815 46.3637 32.9101 46.3238 32.9302 46.2792C32.9503 46.2346 32.9615 46.1863 32.9631 46.1371C32.9647 46.088 32.9568 46.039 32.9397 45.9931C32.5336 44.7977 31.9949 43.2522 31.3071 40.9723C31.0435 40.5428 30.6748 40.1923 30.238 39.9562C31.1165 42.9533 31.7712 44.8489 32.2519 46.2407Z" fill="#0EBABA"/>
<path d="M36.8725 42.9799C36.8996 43.0521 36.9477 43.1143 37.0105 43.1583C37.0733 43.2022 37.1477 43.2258 37.224 43.2259C37.2666 43.2286 37.3092 43.2228 37.3496 43.2089C37.4423 43.1744 37.5179 43.1044 37.5601 43.014C37.6024 42.9236 37.608 42.8199 37.5756 42.7254C37.5588 42.683 35.9852 38.1535 35.5751 36.3468C35.416 35.6343 35.4495 35.1084 35.6588 34.9388C35.868 34.7691 35.9099 34.8539 36.094 34.8794C35.7662 34.7725 35.4302 34.693 35.0896 34.6419C35.0351 34.6573 34.9849 34.6852 34.9428 34.7235C34.9007 34.7617 34.8679 34.8092 34.8468 34.8624C34.6962 35.2611 34.6962 35.8124 34.8552 36.5165C35.2654 38.3656 36.8055 42.7933 36.8725 42.9799Z" fill="black"/>
<path d="M67.5632 41.566C67.5973 41.5823 67.6344 41.591 67.6721 41.5914C67.7518 41.5918 67.8296 41.5667 67.8943 41.5197C67.959 41.4727 68.0072 41.4062 68.032 41.3298C68.6682 39.339 69.7898 35.8127 70.1414 34.4798C70.2837 33.9892 70.3817 33.4866 70.4344 32.9782C70.4461 32.767 70.3918 32.5574 70.2792 32.3789C70.1666 32.2003 70.0013 32.0618 69.8066 31.9828C69.5392 31.8828 69.261 31.8149 68.9779 31.7803C69.3629 31.8731 69.4969 32.0081 69.5722 32.1093C69.7898 32.4299 69.748 33.0795 69.4299 34.2858C69.0616 35.6524 67.8311 39.5077 67.3205 41.1021C67.305 41.1486 67.2991 41.1977 67.3031 41.2466C67.307 41.2954 67.3207 41.343 67.3434 41.3864C67.3661 41.4297 67.3973 41.468 67.4351 41.4989C67.4728 41.5298 67.5164 41.5526 67.5632 41.566Z" fill="black"/>
<path d="M67.9089 47.8595C66.664 47.885 65.2552 48.0553 65.1897 48.0638C65.0941 48.0694 65.0046 48.1143 64.9409 48.1885C64.8772 48.2627 64.8444 48.3602 64.8498 48.4595C64.8553 48.5589 64.8984 48.6519 64.9699 48.7181C65.0413 48.7843 65.1351 48.8184 65.2307 48.8127H65.2798C65.2962 48.8127 67.098 48.5829 68.3757 48.6085H68.3921L67.9089 47.8595Z" fill="#0EC2BC"/>
<path d="M60.1997 25.3651L59.8775 24.6946C58.8448 25.3906 58.2416 26.5448 58.2169 26.5957C58.1937 26.6391 58.1793 26.6868 58.1742 26.736C58.1692 26.7852 58.1737 26.8349 58.1876 26.8823C58.2014 26.9297 58.2243 26.9737 58.2548 27.012C58.2854 27.0502 58.323 27.0818 58.3656 27.105C58.42 27.131 58.479 27.1454 58.5391 27.1474C58.6048 27.147 58.6692 27.1287 58.7258 27.0945C58.7824 27.0602 58.8291 27.0111 58.8613 26.9522C58.8695 26.9352 59.3818 25.9507 60.2162 25.3651H60.1997Z" fill="#0EC2BC"/>
<path opacity="0.58" d="M58.5306 42.1848C58.2213 43.224 57.5169 44.6602 55.7129 45.2938C53.1959 46.1809 50.9968 44.4997 50.3096 43.3845C49.6224 42.2693 49.7083 41.7117 50.6704 42.0581C54.201 43.3422 55.7387 42.9198 57.1819 41.6357C57.7145 41.171 58.1182 40.7655 58.4275 40.7739C58.7367 40.7824 58.8398 41.171 58.5306 42.1848Z" fill="#2AE5C4"/>
<path d="M31.8761 14.3666C31.8412 14.7434 32.1373 14.9624 32.59 14.8573C33.0428 14.7521 33.7307 14.2089 33.8874 13.6481C34.0441 13.0874 33.5652 12.7807 32.8861 13.1136C32.2069 13.4466 31.9109 13.946 31.8761 14.3666Z" fill="#2FFFDA"/>
<path d="M48.6366 13.4114C48.6017 13.7975 48.8978 14.008 49.3505 13.9027C49.8033 13.7975 50.4912 13.2535 50.6479 12.7008C50.8046 12.148 50.3257 11.8234 49.6466 12.1568C48.9674 12.4902 48.6714 12.9903 48.6366 13.4114Z" fill="#2FFFDA"/>
<path d="M7.45853 4.66861C7.82488 4.43274 8.13673 4.12099 8.37315 3.75427C8.60957 3.38756 8.7651 2.97435 8.82931 2.54237L9.04784 1.054C9.05413 1.01823 9.07291 0.985872 9.10083 0.962737C9.12874 0.939602 9.16395 0.927199 9.20015 0.927752C9.23558 0.92742 9.26991 0.940056 9.29673 0.963293C9.32354 0.986531 9.341 1.01878 9.34583 1.054L9.56436 2.54237C9.62857 2.97435 9.7841 3.38756 10.0205 3.75427C10.2569 4.12099 10.5688 4.43274 10.9351 4.66861L11.1272 4.79485C11.1498 4.80711 11.1685 4.82538 11.1814 4.84766C11.1942 4.86995 11.2007 4.89536 11.2 4.9211C11.2007 4.94684 11.1942 4.97225 11.1814 4.99453C11.1685 5.01681 11.1498 5.03509 11.1272 5.04734L10.9351 5.18023C10.5694 5.41675 10.258 5.72867 10.0216 6.09527C9.78526 6.46188 9.62939 6.87476 9.56436 7.30648L9.34583 8.79484C9.34115 8.83071 9.32394 8.86375 9.29727 8.88809C9.27059 8.91242 9.23618 8.92647 9.20015 8.92773C9.16335 8.92671 9.12805 8.9129 9.10027 8.88866C9.07249 8.86443 9.05396 8.83127 9.04784 8.79484L8.82931 7.30648C8.76428 6.87476 8.60841 6.46188 8.37206 6.09527C8.13572 5.72867 7.8243 5.41675 7.45853 5.18023L7.26648 5.05399C7.24515 5.04087 7.22773 5.02222 7.21608 5C7.20442 4.97778 7.19896 4.95282 7.20026 4.92774C7.19896 4.90267 7.20442 4.87771 7.21608 4.85549C7.22773 4.83327 7.24515 4.81462 7.26648 4.8015L7.45853 4.66861Z" fill="#55EF84"/>
<path d="M3.39218 10.7386C3.66767 10.562 3.90245 10.3284 4.08083 10.0534C4.25921 9.77842 4.37709 9.4684 4.42659 9.14405L4.58914 8.02415C4.59411 7.99791 4.60775 7.97411 4.62786 7.95661C4.64798 7.93911 4.67339 7.92894 4.69997 7.92774C4.72698 7.9275 4.75314 7.93716 4.77355 7.95491C4.79396 7.97267 4.8072 7.99729 4.8108 8.02415L4.98075 9.14405C5.02893 9.46793 5.14548 9.77773 5.3226 10.0527C5.49973 10.3277 5.73333 10.5616 6.00777 10.7386L6.14816 10.835C6.16487 10.8447 6.17857 10.8588 6.18771 10.8758C6.19685 10.8929 6.20106 10.9121 6.19988 10.9314C6.20053 10.9497 6.19601 10.9677 6.18685 10.9835C6.1777 10.9992 6.16428 11.012 6.14816 11.0204L6.00777 11.1169C5.73333 11.2939 5.49973 11.5277 5.3226 11.8027C5.14548 12.0777 5.02893 12.3875 4.98075 12.7114L4.8108 13.8313C4.8072 13.8582 4.79396 13.8828 4.77355 13.9006C4.75314 13.9183 4.72698 13.928 4.69997 13.9277C4.67339 13.9265 4.64798 13.9164 4.62786 13.8989C4.60775 13.8814 4.59411 13.8576 4.58914 13.8313L4.42659 12.7114C4.37709 12.3871 4.25921 12.0771 4.08083 11.8021C3.90245 11.5271 3.66767 11.2935 3.39218 11.1169L3.25179 11.0204C3.23666 11.0109 3.22406 10.9978 3.21505 10.9823C3.20604 10.9668 3.20091 10.9494 3.20007 10.9314C3.20035 10.9124 3.20519 10.8937 3.21419 10.8769C3.22319 10.8601 3.23609 10.8457 3.25179 10.835L3.39218 10.7386Z" fill="#89D6FF"/>
<defs>
<linearGradient id="paint0_linear_59_21492" x1="56.3319" y1="54.9333" x2="18.4953" y2="21.4214" gradientUnits="userSpaceOnUse">
<stop stop-color="#EB459F"/>
<stop offset="1" stop-color="#FF78B9"/>
</linearGradient>
<linearGradient id="paint1_linear_59_21492" x1="74.7514" y1="62.5754" x2="59.0835" y2="47.9516" gradientUnits="userSpaceOnUse">
<stop offset="0.04" stop-color="#2AE5C4"/>
<stop offset="0.27" stop-color="#25DFC3"/>
<stop offset="0.56" stop-color="#19CFBF"/>
<stop offset="0.73" stop-color="#0EC2BC"/>
</linearGradient>
<linearGradient id="paint2_linear_59_21492" x1="40.8313" y1="20.4353" x2="47.1958" y2="48.1387" gradientUnits="userSpaceOnUse">
<stop stop-color="#2AE5C4"/>
<stop offset="0.9" stop-color="#0EC2BC"/>
</linearGradient>
</defs>
</svg>
