<svg xmlns="http://www.w3.org/2000/svg" width="660" height="104"><defs><clipPath id="a"><path fill="none" d="M0 0h660v104H0z"/></clipPath></defs><g clip-path="url(#a)" opacity=".06"><path d="M466.48 12.78A10.43 10.43 0 0 0 477 2.44a10.5 10.5 0 1 0-21 0 10.43 10.43 0 0 0 10.47 10.39zm-3 79a5.39 5.39 0 1 0-5.48-5.39 5.39 5.39 0 0 0 5.44 5.39zM202 92h79.48v29.18H202zm213.1-48l13.1 13-13.1 13L402 57zm213.38 50L643 108.36l-14.48 14.35L614 108.36zM-20.68 21.13l-2.78-23 130.68-16.4L110 4.7a6.4 6.4 0 0 1-5.54 7.14A6.3 6.3 0 0 1 99.13 10 14.25 14.25 0 0 0 79 9.65l-.11.11a14.69 14.69 0 0 0-2.41 3.09l-.39.68a12.87 12.87 0 0 1-17.59 4.79l-.09-.05a12.67 12.67 0 0 1-3.28-2.73 12.9 12.9 0 0 0-20.94 2l-.79 1.36a12.9 12.9 0 0 1-17.62 4.72 12.7 12.7 0 0 1-3.28-2.74 12.85 12.85 0 0 0-18.12-1.4l-.1.09a13.59 13.59 0 0 0-2.73 3.31l-.39.68a6.34 6.34 0 0 1-8.65 2.36 6.4 6.4 0 0 1-3.19-4.79zm365-14.7a2.17 2.17 0 1 0-2.18-2.16 2.17 2.17 0 0 0 2.18 2.16zm-12.23 0a2.17 2.17 0 1 0-2.18-2.16 2.17 2.17 0 0 0 2.16 2.16zm-11.35 0a2.17 2.17 0 1 0-2.18-2.16 2.17 2.17 0 0 0 2.18 2.16zm-12.23 0a2.17 2.17 0 1 0-2.18-2.16 2.17 2.17 0 0 0 2.16 2.16zm47.16 0a2.17 2.17 0 1 0-2.18-2.16 2.17 2.17 0 0 0 2.18 2.16zm12.23 0a2.17 2.17 0 1 0-2.19-2.16 2.17 2.17 0 0 0 2.19 2.16zm11.35 0a2.17 2.17 0 1 0-2.18-2.16 2.17 2.17 0 0 0 2.18 2.16zM344.3 17.69a2.17 2.17 0 1 0-2.18-2.17 2.17 2.17 0 0 0 2.18 2.17zm-12.23 0a2.17 2.17 0 1 0-2.18-2.17 2.17 2.17 0 0 0 2.18 2.17zm-11.35 0a2.17 2.17 0 1 0-2.18-2.17 2.17 2.17 0 0 0 2.18 2.17zm-12.23 0a2.17 2.17 0 1 0-2.18-2.17 2.17 2.17 0 0 0 2.18 2.17zm47.16 0a2.17 2.17 0 1 0-2.18-2.17 2.17 2.17 0 0 0 2.18 2.17zm12.23 0a2.17 2.17 0 1 0-2.19-2.17 2.17 2.17 0 0 0 2.19 2.17zm11.35 0a2.17 2.17 0 1 0-2.18-2.17 2.17 2.17 0 0 0 2.18 2.17z" fill="#fff"/></g></svg>