<svg width="748" height="316" viewBox="0 0 748 316" fill="none" xmlns="http://www.w3.org/2000/svg">
<g clip-path="url(#clip0_313_39300)">
<path opacity="0.49" d="M754 1H740.526C738.432 2.97742 737.067 5.60627 736.656 8.45865C735.224 7.32293 733.566 6.50854 731.793 6.07068C730.019 5.63281 728.173 5.58171 726.378 5.92082C724.583 6.25994 722.882 6.98136 721.39 8.03617C719.899 9.09098 718.651 10.4545 717.732 12.0344C716.812 13.6143 716.243 15.3735 716.062 17.1929C715.882 19.0123 716.094 20.8492 716.685 22.5793C717.276 24.3094 718.231 25.8921 719.486 27.2202C720.741 28.5483 722.267 29.5907 723.96 30.2767C722.376 31.2027 721.011 32.4602 719.957 33.9632C718.903 35.4662 718.186 37.1792 717.854 38.9852C717.523 40.7912 717.585 42.6476 718.036 44.4274C718.487 46.2073 719.317 47.8686 720.468 49.2979C721.62 50.7272 723.066 51.8907 724.708 52.709C726.35 53.5272 728.15 53.9808 729.983 54.0389C731.816 54.0969 733.641 53.758 735.331 53.0452C737.022 52.3325 738.538 51.2628 739.778 49.9092C740.613 52.6921 742.372 55.1065 744.763 56.7531C747.155 58.3998 750.036 59.18 752.931 58.965C753.298 58.965 753.649 58.8886 754 58.8274V1Z" fill="#FFCDF9"/>
<path d="M733 61.832C733.001 58.1061 732.049 54.4415 730.234 51.1849C728.42 47.9283 725.802 45.1874 722.629 43.2215C719.456 41.2556 715.833 40.1296 712.103 39.9502C708.372 39.7707 704.657 40.5437 701.31 42.196C702.116 38.9678 702.174 35.5989 701.48 32.3449C700.787 29.0909 699.359 26.0373 697.305 23.4159C695.252 20.7946 692.627 18.6743 689.63 17.2161C686.632 15.7579 683.341 15 680.006 15C676.671 15 673.38 15.7579 670.383 17.2161C667.386 18.6743 664.761 20.7946 662.707 23.4159C660.654 26.0373 659.226 29.0909 658.532 32.3449C657.838 35.5989 657.897 38.9678 658.703 42.196C655.919 40.8196 652.874 40.0485 649.769 39.9336C646.664 39.8186 643.569 40.3625 640.691 41.5293C637.812 42.696 635.214 44.459 633.07 46.7018C630.925 48.9445 629.282 51.6159 628.249 54.5393C627.216 57.4627 626.817 60.5715 627.078 63.6603C627.339 66.749 628.254 69.7473 629.763 72.4569C631.272 75.1665 633.34 77.5257 635.831 79.3786C638.322 81.2314 641.179 82.5357 644.213 83.2051C642.074 85.5107 640.457 88.2482 639.472 91.2321C638.487 94.2159 638.157 97.3762 638.505 100.499C638.852 103.621 639.869 106.632 641.486 109.328C643.103 112.023 645.282 114.341 647.876 116.122C650.47 117.903 653.417 119.107 656.518 119.652C659.62 120.197 662.802 120.07 665.85 119.279C668.898 118.489 671.739 117.053 674.182 115.071C676.624 113.088 678.611 110.604 680.006 107.788C681.4 110.606 683.386 113.093 685.828 115.078C688.27 117.063 691.112 118.5 694.16 119.293C697.209 120.085 700.393 120.213 703.495 119.669C706.598 119.125 709.547 117.922 712.142 116.14C714.737 114.358 716.918 112.04 718.535 109.343C720.153 106.647 721.169 103.634 721.516 100.51C721.863 97.3868 721.532 94.2253 720.546 91.2406C719.56 88.256 717.941 85.518 715.8 83.2127C720.678 82.1333 725.041 79.4264 728.168 75.539C731.295 71.6517 733 66.8165 733 61.832Z" fill="#A758F5"/>
<path d="M648.5 55C654.299 55 659 48.2843 659 40C659 31.7157 654.299 25 648.5 25C642.701 25 638 31.7157 638 40C638 48.2843 642.701 55 648.5 55Z" fill="white"/>
<path d="M646 52C649.314 52 652 48.866 652 45C652 41.134 649.314 38 646 38C642.686 38 640 41.134 640 45C640 48.866 642.686 52 646 52Z" fill="black"/>
<path d="M666.5 55C672.299 55 677 48.2843 677 40C677 31.7157 672.299 25 666.5 25C660.701 25 656 31.7157 656 40C656 48.2843 660.701 55 666.5 55Z" fill="white"/>
<path d="M664.5 52C667.538 52 670 48.866 670 45C670 41.134 667.538 38 664.5 38C661.462 38 659 41.134 659 45C659 48.866 661.462 52 664.5 52Z" fill="black"/>
<path d="M645 49C646.105 49 647 48.3284 647 47.5C647 46.6716 646.105 46 645 46C643.895 46 643 46.6716 643 47.5C643 48.3284 643.895 49 645 49Z" fill="#EBF0F7"/>
<path d="M663 49C664.105 49 665 48.3284 665 47.5C665 46.6716 664.105 46 663 46C661.895 46 661 46.6716 661 47.5C661 48.3284 661.895 49 663 49Z" fill="#EBF0F7"/>
<path opacity="0.8" d="M624.13 19.905L625.922 23.9468C625.929 23.9627 625.94 23.9761 625.955 23.9856C625.97 23.995 625.987 24 626.004 24C626.022 24 626.039 23.995 626.053 23.9856C626.068 23.9761 626.079 23.9627 626.087 23.9468L627.878 19.905C627.89 19.8845 627.907 19.8674 627.927 19.8553L631.947 18.058C631.963 18.0507 631.976 18.039 631.986 18.0244C631.995 18.0097 632 17.9926 632 17.9752C632 17.9577 631.995 17.9406 631.986 17.9259C631.976 17.9113 631.963 17.8996 631.947 17.8923L627.927 16.095C627.911 16.1001 627.894 16.1001 627.878 16.095L626.087 12.0532C626.079 12.0373 626.068 12.0239 626.053 12.0144C626.039 12.005 626.022 12 626.004 12C625.987 12 625.97 12.005 625.955 12.0144C625.94 12.0239 625.929 12.0373 625.922 12.0532L624.13 16.095C624.114 16.1001 624.097 16.1001 624.081 16.095L620.053 17.8923C620.037 17.8996 620.024 17.9113 620.014 17.9259C620.005 17.9406 620 17.9577 620 17.9752C620 17.9926 620.005 18.0097 620.014 18.0244C620.024 18.039 620.037 18.0507 620.053 18.058L624.081 19.8553C624.101 19.8674 624.118 19.8845 624.13 19.905Z" fill="white"/>
<path opacity="0.25" d="M612.744 30.5L612.003 32.9284C612 32.9379 611.999 32.9483 612.001 32.9582C612.003 32.9681 612.007 32.9772 612.012 32.9844C612.018 32.9916 612.025 32.9966 612.033 32.9988C612.041 33.0009 612.049 33.0002 612.057 32.9967L613.985 32.0633H614.015L615.943 32.9967C615.951 33.0002 615.959 33.0009 615.967 32.9988C615.975 32.9966 615.982 32.9916 615.988 32.9844C615.993 32.9772 615.997 32.9681 615.999 32.9582C616.001 32.9483 616 32.9379 615.997 32.9284L615.256 30.5L615.997 28.0716C616 28.0621 616.001 28.0517 615.999 28.0418C615.997 28.0319 615.993 28.0228 615.988 28.0156C615.982 28.0084 615.975 28.0034 615.967 28.0012C615.959 27.9991 615.951 27.9998 615.943 28.0033L614.015 28.9367H613.985L612.057 28.0033C612.049 27.9998 612.041 27.9991 612.033 28.0012C612.025 28.0034 612.018 28.0084 612.012 28.0156C612.007 28.0228 612.003 28.0319 612.001 28.0418C611.999 28.0517 612 28.0621 612.003 28.0716L612.744 30.5Z" fill="white"/>
<path d="M737 93.1296C737 90.5763 736.353 88.0652 735.12 85.8337C733.886 83.6021 732.107 81.7239 729.951 80.3766C727.795 79.0293 725.333 78.2575 722.798 78.1341C720.263 78.0107 717.738 78.5399 715.463 79.6715C716.015 77.4568 716.057 75.1446 715.588 72.9108C715.118 70.677 714.148 68.5803 712.752 66.7801C711.355 64.98 709.569 63.5238 707.53 62.5222C705.49 61.5206 703.25 61 700.98 61C698.71 61 696.47 61.5206 694.43 62.5222C692.391 63.5238 690.605 64.98 689.208 66.7801C687.812 68.5803 686.842 70.677 686.372 72.9108C685.903 75.1446 685.945 77.4568 686.497 79.6715C684.606 78.7378 682.539 78.2176 680.433 78.1452C678.327 78.0728 676.23 78.4498 674.279 79.2515C672.328 80.0532 670.569 81.2613 669.116 82.7964C667.663 84.3315 666.549 86.1587 665.849 88.1578C665.148 90.1569 664.877 92.2825 665.052 94.3948C665.227 96.5071 665.844 98.5582 666.864 100.413C667.884 102.268 669.283 103.884 670.968 105.156C672.654 106.428 674.588 107.327 676.644 107.793C675.19 109.373 674.091 111.249 673.422 113.295C672.752 115.34 672.528 117.506 672.765 119.646C673.001 121.786 673.693 123.85 674.792 125.698C675.891 127.546 677.373 129.134 679.136 130.354C680.9 131.575 682.903 132.4 685.012 132.773C687.12 133.146 689.283 133.058 691.355 132.516C693.426 131.974 695.358 130.99 697.018 129.63C698.678 128.271 700.028 126.568 700.976 124.638C701.924 126.568 703.274 128.271 704.934 129.63C706.595 130.99 708.526 131.974 710.598 132.516C712.669 133.058 714.833 133.146 716.941 132.773C719.049 132.4 721.053 131.575 722.816 130.354C724.58 129.134 726.061 127.546 727.161 125.698C728.26 123.85 728.951 121.786 729.188 119.646C729.424 117.506 729.2 115.34 728.531 113.295C727.861 111.249 726.762 109.373 725.308 107.793C728.626 107.052 731.592 105.196 733.718 102.53C735.844 99.8634 737.002 96.5474 737 93.1296Z" fill="#D99CFF"/>
<path d="M710.784 83.9742C710.204 83.7958 709.594 83.7288 708.987 83.7769C708.38 83.825 707.789 83.9873 707.248 84.2546C706.707 84.5219 706.226 84.8888 705.832 85.3345C705.439 85.7802 705.141 86.2958 704.956 86.8519L702.066 95.4925L698.962 86.2596C698.795 85.6822 698.507 85.143 698.118 84.6746C697.728 84.2061 697.243 83.818 696.693 83.5335C696.143 83.2489 695.539 83.0739 694.917 83.0188C694.294 82.9638 693.667 83.0298 693.072 83.213C692.477 83.3962 691.926 83.6928 691.454 84.085C690.981 84.4771 690.596 84.9568 690.322 85.4952C690.047 86.0335 689.889 86.6195 689.856 87.218C689.824 87.8165 689.918 88.4151 690.132 88.9779L694.092 100.785C692.586 101.608 691.326 102.79 690.434 104.215C689.542 105.641 689.048 107.263 689 108.924C689 114.49 694.543 119 701.361 119C708.179 119 713.722 114.49 713.722 108.924C713.693 107.487 713.321 106.075 712.634 104.797C711.948 103.52 710.966 102.409 709.763 101.552L713.777 89.5701C714.154 88.4474 714.05 87.2275 713.489 86.1782C712.927 85.1289 711.955 84.3362 710.784 83.9742Z" fill="#FFCB1F"/>
<path d="M700.317 110.718C703.955 108.318 705.347 104.01 703.425 101.095C701.502 98.1792 696.994 97.761 693.355 100.16C689.716 102.56 688.325 106.868 690.247 109.783C692.169 112.699 696.678 113.117 700.317 110.718Z" fill="#FFB300"/>
<path d="M700.548 110C701.07 109.667 701.556 109.289 702 108.872C701.255 106.944 699.996 105.216 698.336 103.842C696.676 102.468 694.667 101.491 692.491 101C691.938 101.412 691.438 101.88 691 102.393C692.972 102.609 698.186 103.814 700.548 110Z" fill="#FF9B00"/>
<path d="M712.623 106.475L706.969 101.131C706.59 100.772 706.14 100.488 705.645 100.294C705.149 100.1 704.618 100 704.082 100C703.545 100 703.014 100.1 702.519 100.294C702.023 100.488 701.573 100.772 701.194 101.131C700.43 101.853 700 102.832 700 103.853C700 104.874 700.43 105.853 701.194 106.575L710.128 115C711.021 114.207 711.736 113.251 712.229 112.191C712.723 111.131 712.985 109.988 713 108.83C713.002 108.032 712.875 107.237 712.623 106.475Z" fill="#FFE55E"/>
</g>
<defs>
<clipPath id="clip0_313_39300">
<rect width="748" height="316" rx="16" fill="white"/>
</clipPath>
</defs>
</svg>
