<svg height="236" viewBox="0 0 388 236" width="388" xmlns="http://www.w3.org/2000/svg"><g fill="none" fill-rule="evenodd"><path d="m327.3413 101.6006c-27.07 0-49.218-22.148-49.218-49.217v-.001c0-27.069 22.148-49.217 49.218-49.217s49.218 22.148 49.218 49.217v.001c0 27.069-22.148 49.217-49.218 49.217zm-292.8115 121.3892c-19.07 0-34.53-15.459-34.53-34.53v-.007c0-19.07 15.46-34.529 34.53-34.529h49.08c22.898 0 41.46-18.563 41.46-41.46v-.004c0-22.898-18.562-41.46-41.46-41.46h-12.121c-19.33 0-35-15.67-35-35s15.67-35 35-35h139.647c29.271 0 53 23.729 53 53v10.572c0 29.271 23.729 53 53 53h17.045c29.11 0 52.709 23.598 52.709 52.709 0 29.11-23.599 52.709-52.709 52.709z" fill="#f7f7f8" fill-opacity=".9"/><path d="m367.3057 183.0533c0 .552-.448 1-1 1s-1-.448-1-1v-.942c0-.552.448-1 1-1s1 .448 1 1zm-3.767 0c0 .552-.447 1-1 1-.552 0-1-.448-1-1v-.942c0-.552.448-1 1-1 .553 0 1 .448 1 1zm2.759-3.237h-3.766c-1.526 0-2.767 1.24-2.767 2.766 0 1.525 1.241 2.766 2.767 2.766h3.766c1.525 0 2.766-1.241 2.766-2.766 0-1.526-1.241-2.766-2.766-2.766zm1.008-9.0038c0 .552-.448 1-1 1s-1-.448-1-1v-.941c0-.553.448-1 1-1s1 .447 1 1zm-3.767 0c0 .552-.447 1-1 1-.552 0-1-.448-1-1v-.941c0-.553.448-1 1-1 .553 0 1 .447 1 1zm2.759-3.237h-3.766c-1.526 0-2.767 1.241-2.767 2.766 0 1.526 1.241 2.766 2.767 2.766h3.766c1.525 0 2.766-1.24 2.766-2.766 0-1.525-1.241-2.766-2.766-2.766z" fill="#dcddde"/><path d="m120.5137 189.6446c0 .552-.448 1-1 1h-7.533-2.824-16.007c-.553 0-1-.448-1-1v-43.313c0-.552.447-1 1-1h16.007 2.824 7.533c.552 0 1 .448 1 1zm5.203-57.537c0 .552-.448 1-1 1h-74.417v78.252h78.124v-79.252zm58.0279-117.7335h-11.111l-23.154 117.926c-.092.469-.503.807-.981.807h-18.075v78.252h51.885v-55.18c0-.552.448-1 1-1v-3.649h-23.104c-.552 0-1-.448-1-1v-28.248c0-.552.448-1 1-1 .553 0 1 .448 1 1h2.708c0-.552.448-1 1-1h1.29c.552 0 1 .448 1 1h.734c0-.552.448-1 1-1h5.84v-7.465c-3.193-.485-5.65-3.24-5.65-6.566 0-3.667 2.983-6.649 6.65-6.649 3.666 0 6.649 2.982 6.649 6.649 0 3.326-2.457 6.081-5.649 6.566v7.465h5.532v-2.827c0-1.59 1.293-2.884 2.883-2.884h4.51l19.901-69.184h-21.15c-.553 0-1-.448-1-1v-32.013h-2.708c0 .552-.448 1-1 1m-54.3208 208.6157h52.885v-9.63h-51.885v6.218c0 .553-.448 1-1 1zm-45.9306-107.3667 12.307-62.683h-10.863l-10.701 54.504c-.094.477-.513.807-.981.807-.064 0-.128-.005-.194-.018-.095-.019-.176-.065-.258-.108l-1.499 7.633c1.944-.779 4.06-1.219 6.279-1.219 2.081 0 4.067.395 5.91 1.084m124.3549 2.8315v2.828h8.447v-7.466c-3.193-.485-5.65-3.24-5.65-6.566 0-3.666 2.983-6.649 6.65-6.649 3.666 0 6.649 2.983 6.649 6.649 0 3.326-2.457 6.081-5.649 6.566v7.466h6.385v-2.828c0-1.59 1.293-2.883 2.882-2.883h5.65c1.59 0 2.883 1.293 2.883 2.883v2.828h2.708v-2.828c0-1.59 1.294-2.883 2.883-2.883h5.649c1.59 0 2.884 1.293 2.884 2.883v2.828h2.26 26.117l21.545-74.895h-19.415-58.685l-19.902 69.184h2.826c1.59 0 2.883 1.293 2.883 2.883" fill="#fff"/><path d="m293.0166 141.8462 1.364-4.605c.075-.254.248-.468.482-.595.233-.126.506-.155.761-.08l18.401 5.451c1.676-2.204 2.683-4.943 2.683-7.92 0-7.236-5.887-13.123-13.123-13.123s-13.124 5.887-13.124 13.123c0 2.9.957 5.574 2.556 7.749" fill="#f7f7f8"/><path d="m236.095 194.725h7.416v-31.896h-7.416z" fill="#fff"/><path d="m196.043 37.796h77.092v-16.832h-77.092z" fill="#dcddde"/><path d="m207.3188 190.6387h-5.649c-.553 0-1-.448-1-1v-6.591c0-.553.447-1 1-1h5.649c.552 0 1 .447 1 1v6.591c0 .552-.448 1-1 1zm4.268-11.862c0-.148.037-.286.094-.412h-12.836c-.552 0-1-.448-1-1v-10.357c0-.553.448-1 1-1h12.742v-3.179h-16.921v31.896h16.921zm5.0895 4.2707c0-.552.448-1 1-1h8.474c.552 0 1 .448 1 1v6.591c0 .553-.448 1-1 1h-8.474c-.552 0-1-.447-1-1zm-3.089 11.678h17.271 3.237v-31.897h-3.237-17.271v3.179h16.329c.552 0 1 .448 1 1v10.357c0 .552-.448 1-1 1h-16.424c.058.126.095.264.095.412z" fill="#dcddde"/><path d="m296.014 138.768-3.176 10.722 31.486 9.326 3.176-10.721z" fill="#dcddde"/><path d="m112.981 188.645h5.533v-41.313h-5.533z" fill="#dcddde"/><path d="m104.5068 162.3389c0 .552-.448 1-1 1h-3.766c-.552 0-1-.448-1-1v-9.416c0-.552.448-1 1-1h3.766c.552 0 1 .448 1 1zm0 21.146c0 .552-.448 1-1 1h-3.766c-.552 0-1-.448-1-1v-9.416c0-.552.448-1 1-1h3.766c.552 0 1 .448 1 1zm6.474 5.16v-41.313h-1.825-15.006v41.313h15.006z" fill="#f7f7f8"/><path d="m100.741 161.339h1.766v-7.416h-1.766z" fill="#dcddde"/><path d="m100.741 182.484h1.766v-7.416h-1.766z" fill="#dcddde"/><path d="m361.0991 231.8365c0 .631.514 1.145 1.145 1.145h4.36v-2.29h-4.36c-.631 0-1.145.514-1.145 1.145" fill="#dcddde"/><path d="m171.127 107.251c0 2.563 2.086 4.649 4.649 4.649 2.564 0 4.65-2.086 4.65-4.649s-2.086-4.649-4.65-4.649c-2.563 0-4.649 2.086-4.649 4.649m46.1679 4.6494c2.563 0 4.649-2.086 4.649-4.649 0-2.564-2.086-4.65-4.649-4.65s-4.649 2.086-4.649 4.65c0 2.563 2.086 4.649 4.649 4.649" fill="#f7f7f8"/><path d="m190.8413 117.5713h-5.649c-.487 0-.884.396-.884.883v2.828h7.416v-2.828c0-.487-.396-.883-.883-.883m7.5913 3.711h7.416v-2.828c0-.486-.397-.883-.884-.883h-5.649c-.487 0-.883.397-.883.883zm35.6626 0v-2.828c0-.486-.396-.883-.883-.883h-5.65c-.487 0-.883.397-.883.883v2.828zm14.1235 0v-2.828c0-.486-.396-.883-.883-.883h-5.65c-.487 0-.883.397-.883.883v2.828zm-138.2875 3.7265c-3.083 0-5.591 2.508-5.591 5.591v.508h11.182v-.508c0-3.083-2.508-5.591-5.591-5.591" fill="#dcddde"/><path d="m77.5835 116.5386c-8.115 0-14.725 6.503-14.928 14.569h29.856c-.203-8.066-6.814-14.569-14.928-14.569m91.3535 6.7437c-.552 0-1-.448-1-1h-.735c0 .552-.448 1-1 1h-1.289c-.552 0-1-.448-1-1h-2.708v27.248h90.274v-26.248z" fill="#f7f7f8"/><g fill="#b9bbbe"><path d="m280.7266 31.834c-.552 0-1 .448-1 1v.313c0 .552.448 1 1 1 .552 0 1-.448 1-1v-.313c0-.552-.448-1-1-1m-16.0069 5.9624h-60.261c-4.647 0-8.415-3.768-8.415-8.416 0-4.647 3.768-8.416 8.415-8.416h60.261c4.647 0 8.416 3.769 8.416 8.416 0 4.648-3.769 8.416-8.416 8.416m9.416-18.832h-79.092c-.553 0-1 .448-1 1v18.832c0 .552.447 1 1 1h79.092c.552 0 1-.448 1-1v-18.832c0-.552-.448-1-1-1m-30.625 172.0527c0 2.048-1.66 3.708-3.708 3.708-2.047 0-3.708-1.66-3.708-3.708v-24.48c0-2.048 1.661-3.708 3.708-3.708 2.048 0 3.708 1.66 3.708 3.708zm-9.416.708c0 1.657-1.343 3-3 3h-.236-17.272v-13.361c0-1.657 1.343-3 3-3h13.33c.552 0 1-.448 1-1v-10.357c0-.552-.448-1-1-1h-14.33c-1.104 0-2-.895-2-2v-1.178h17.272.236c1.657 0 3 1.343 3 3zm-20.602-13.361h.023c-.007.014-.015.018-.023 0zm-13.648-3v-6.357c0-.552.448-1 1-1h27.072c.552 0 1 .448 1 1v6.357c0 .552-.448 1-1 1h-27.072c-.552 0-1-.448-1-1zm-5.179 17.361v-27.896c0-1.105.896-2 2-2h14.921v1.178c0 1.105-.895 2-2 2h-10.742c-.552 0-1 .448-1 1v10.357c0 .552.448 1 1 1h9.742c1.657 0 3 1.343 3 3v13.361h-14.921c-1.104 0-2-.895-2-2zm49.845-31.896h-9.416-4.236-37.193c-.552 0-1 .447-1 1v33.896c0 .552.448 1 1 1h37.193 4.236 9.416c.552 0 1-.448 1-1v-33.896c0-.553-.448-1-1-1z"/><path d="m202.67 188.639h3.649v-4.591h-3.649zm4.649-6.592h-5.65c-.552 0-1 .448-1 1v6.592c0 .552.448 1 1 1h5.65c.552 0 1-.448 1-1v-6.592c0-.552-.448-1-1-1zm11.357 6.592h6.474v-4.591h-6.474zm7.474-6.592h-8.474c-.552 0-1 .448-1 1v6.592c0 .552.448 1 1 1h8.474c.553 0 1-.448 1-1v-6.592c0-.552-.447-1-1-1zm79.7719-60.8697c5.141.893 9.341 4.893 10.463 9.988.785 3.565.092 6.943-1.563 9.679-.429.708-1.295 1.025-2.089.79l-17.109-5.068c-.255-.075-.529-.046-.762.08-.233.127-.406.341-.482.595-.529 1.787-3.106 1.752-3.548-.058-.242-.989-.371-2.022-.371-3.086 0-8.002 7.199-14.354 15.461-12.92zm21.579 26.917-3.177 10.722-31.485-9.327 3.175-10.721zm-39.034-14.421c-.097 3.501 1.012 6.736 2.93 9.343.565.767.756 1.744.486 2.657l-1.246 4.207c-.157.53.145 1.086.675 1.243l33.403 9.895c.095.028.19.041.285.041.431 0 .829-.281.958-.716l3.744-12.639c.075-.255.047-.528-.08-.761-.126-.234-.341-.407-.595-.482l-9.456-2.802c-1.711-.506-2.569-2.371-1.913-4.03.677-1.714 1.05-3.579 1.05-5.532 0-8.576-7.176-15.508-15.839-15.107-7.811.362-14.185 6.866-14.402 14.683zm-277.9986 89.3165h-1.083c-.552 0-1 .448-1 1s.448 1 1 1h1.083c.552 0 1-.448 1-1s-.448-1-1-1"/><path d="m362.2437 230.6919h3.221c.63 0 1.14.51 1.14 1.14v.009c0 .63-.51 1.14-1.14 1.14h-3.221c-.631 0-1.145-.514-1.145-1.144 0-.631.514-1.145 1.145-1.145zm-27.789-16.702v-29.138c0-2.935 3.766-4.115 5.464-1.721.915 1.29 1.453 2.864 1.453 4.562v26.416c0 3.212.815 6.236 2.245 8.881h-.162c-4.971 0-9-4.029-9-9zm-29 9h-1.872c-14.911 0-27-12.089-27-27v-45.46c0-.552-.447-1-1-1h-18.104c-2.209 0-4-1.791-4-4v-18.248c0-2.209 1.791-4 4-4h21.87c.446 0 .838-.295.961-.723l22.121-76.895c.086-.302.026-.627-.163-.878s-.484-.399-.798-.399h-14.743c-2.761 0-5-2.238-5-5v-2.787c0-.553-.448-1-1-1h-.001c-.551 0-.999.447-.999 1v5.787c0 1.105-.896 2-2 2h-86.275c-1.104 0-2-.895-2-2v-26.013c0-1.104.896-2 2-2h86.275c1.104 0 2 .896 2 2v10.496c0 .552.448 1 .999 1h.001c.552 0 1-.448 1-1v-7.496c0-2.761 2.239-5 5-5h39.728c3.313 0 6 2.687 6 6v175.616c0 14.911-12.088 27-27 27zm-88.16-111.09c-2.563 0-4.649-2.085-4.649-4.649 0-2.563 2.086-4.649 4.649-4.649 2.564 0 4.65 2.086 4.65 4.649 0 2.564-2.086 4.649-4.65 4.649zm32.924 9.382v-2.827c0-1.593-1.291-2.884-2.883-2.884h-5.65c-1.592 0-2.882 1.291-2.882 2.883v2.828h-2.708v-2.827c0-1.593-1.291-2.884-2.884-2.884h-5.649c-1.592 0-2.883 1.291-2.883 2.883v2.828h-3.385c-1.656 0-3-1.343-3-3v-4.465c3.529-.536 6.159-3.845 5.566-7.633-.423-2.7-2.542-4.923-5.224-5.45-4.251-.836-7.991 2.412-7.991 6.517 0 3.326 2.457 6.081 5.649 6.566v4.465c0 1.657-1.343 3-3 3h-5.447v-2.827c0-1.593-1.291-2.884-2.883-2.884h-2.825l17.404-60.501c1.479-5.141 6.182-8.683 11.532-8.683h49.651 3.476c7.981 0 13.739 7.647 11.532 15.318l-13.392 46.553c-2.219 7.712-9.274 13.024-17.298 13.024h-12.566zm-2 0h-7.415v-2.827c0-.487.396-.884.882-.884h5.65c.487 0 .883.397.883.884zm-14.123 0h-7.416v-2.827c0-.487.396-.884.883-.884h5.649c.487 0 .884.397.884.884zm-28.248 0h-7.415v-2.827c0-.487.396-.884.883-.884h5.649c.487 0 .883.397.883.884zm-9.415-2.827v2.827h-2.708v-2.827c0-1.276-.838-2.347-1.988-2.727l19.947-69.341h8.277l-19.902 69.184h-.743c-1.59 0-2.883 1.294-2.883 2.884zm-4.708 2.827h-7.416v-2.827c0-.487.396-.884.883-.884h5.65c.486 0 .883.397.883.884zm-9.416 96.893c0 2.659-2.156 4.815-4.815 4.815h-48.07-93.502c-2.659 0-4.815-2.156-4.815-4.815v-.001c0-2.659 2.156-4.815 4.815-4.815h90.502c1.105 0 2 .896 2 2v4.219c0 .552.448 1 1 1s1-.448 1-1v-4.219c0-1.104.896-2 2-2h45.07c2.659 0 4.815 2.156 4.815 4.815zm-66.787-87.067h-11.182v-.508c0-3.083 2.508-5.591 5.592-5.591 3.083 0 5.59 2.508 5.59 5.591zm-65.222 4c0-1.105.896-2 2-2h72.417c.552 0 1-.448 1-1-.001-.553-.448-1-1-1h-6.954c-.133 0-.241-.108-.241-.241v-.003c0-3.607-2.393-6.919-5.92-7.675-4.911-1.055-9.262 2.68-9.262 7.411v.508h-4.237c-1.876 0-3.563-1.272-3.948-3.108-1.055-5.03-4.345-9.242-8.785-11.551l11.835-60.279c.369-1.877 2.014-3.23 3.925-3.23h57.031c2.519 0 4.411 2.299 3.926 4.771l-14.411 73.397h-18.252c-.552 0-1 .447-1 1v77.251c0 1.105-.895 2-2 2h-74.124c-1.104 0-2-.895-2-2zm27.284-18.569c8.114 0 14.724 6.503 14.928 14.569h-29.856c.203-8.066 6.813-14.569 14.928-14.569zm9.619-75.14 3.722-18.952c.921-4.69 5.032-8.073 9.812-8.073h56.488c6.926 0 12.129 6.323 10.794 13.119l-2.067 10.53c-1.473 7.504-8.052 12.917-15.7 12.917h-55.198c-5.037 0-8.821-4.599-7.851-9.541zm83.924 65.852c0-2.563 2.086-4.649 4.65-4.649 2.563 0 4.649 2.086 4.649 4.649 0 2.564-2.086 4.649-4.649 4.649-2.564 0-4.65-2.085-4.65-4.649zm214.763 115.739h-39.94c-1.623-2.577-2.578-5.616-2.578-8.881v-26.416c0-3.862-2.22-7.216-5.452-8.853-2.08-1.053-3.465-3.105-3.465-5.436v-155.03c0-3.313-2.687-6-6-6h-47.728-92.275c-.552 0-1 .448-1 1v32.013c0 .553.448 1 1 1h18.495c1.33 0 2.29 1.275 1.922 2.553l-19.167 66.631h-4.51c-1.592 0-2.883 1.291-2.883 2.884v2.827h-2.532c-1.657 0-3-1.343-3-3v-4.465c3.529-.536 6.159-3.847 5.565-7.635-.424-2.699-2.543-4.921-5.223-5.448-4.252-.836-7.992 2.412-7.992 6.517 0 3.326 2.457 6.081 5.65 6.566v4.465c0 1.657-1.344 3-3 3h-2.84c-.552 0-1 .448-1 1 0 .553.448 1 1 1h82.542v21.248c0 2.761-2.238 5-5 5h-80.274c-2.761 0-5-2.239-5-5v-22.248c0-.552-.447-1-1-1-.552 0-1 .448-1 1v28.248c0 .552.448 1 1 1h23.104 69.17 20.104c1.105 0 2 .895 2 2v67.46c0 1.104-.895 2-2 2h-86.274c-1.105 0-2-.896-2-2v-64.811c0-.552-.448-1-1-1s-1 .448-1 1v55.18h-47.885c-2.209 0-4-1.791-4-4v-74.251h18.075c.478 0 .889-.339.981-.808l22.203-113.082c.552-2.814 3.019-4.844 5.887-4.844h6.175c.552 0 1-.448 1-1s-.448-1-1-1h-92.058c-.478 0-.889.339-.982.807l-18.432 93.878c-.088.446.146.867.53 1.067.082.043.163.088.259.107.065.013.13.019.194.019.468 0 .886-.331.98-.808l9.857-50.201c.49-2.5 2.682-4.303 5.23-4.303 3.356 0 5.876 3.064 5.23 6.357l-11.059 56.326c-1.844-.689-3.83-1.084-5.91-1.084-2.22 0-4.335.44-6.28 1.219-5.204 2.086-9.135 6.676-10.298 12.274-.377 1.814-2.039 3.076-3.891 3.076h-7.815c-.552 0-1 .447-1 1v69.251c0 5.523-4.477 10-10 10h-8.193c-.552 0-1 .448-1 1v.631c0 5.523-4.477 10-10 10h-3.433c-.553 0-1 .448-1 1s.447 1 1 1h329.213c3.248 4.528 8.456 7.541 14.378 7.804.407 1.264 1.581 2.187 2.979 2.187h5.361 2.681c.552 0 1-.448 1-1s-.448-1-1-1h-.541c-.63 0-1.14-.51-1.14-1.14v-.009c0-.63.51-1.14 1.14-1.14h.541c.552 0 1-.448 1-1s-.448-1-1-1h-2.681-5.361c-1.367 0-2.521.882-2.954 2.104-4.739-.229-8.964-2.426-11.869-5.806h38.469c.552 0 1-.448 1-1s-.448-1-1-1z"/><path d="m115.7476 188.6446c-1.528 0-2.767-1.239-2.767-2.766v-35.78c0-1.528 1.239-2.767 2.767-2.767 1.527 0 2.766 1.239 2.766 2.767v35.78c0 1.527-1.239 2.766-2.766 2.766zm-4.767-1.82c0 1.005-.815 1.82-1.819 1.82h-.005-13.187c-1.005 0-1.82-.815-1.82-1.82v-37.673c0-1.005.815-1.82 1.82-1.82h13.187.005c1.004 0 1.819.815 1.819 1.82zm8.533-41.493h-7.533-2.824-16.007c-.552 0-1 .448-1 1v43.313c0 .552.448 1 1 1h16.007 2.824 7.533c.552 0 1-.448 1-1v-43.313c0-.552-.448-1-1-1z"/><path d="m101.627 161.3389h-.006c-.486 0-.88-.394-.88-.88v-5.656c0-.485.394-.88.88-.88h.006c.486 0 .88.395.88.88v5.656c0 .486-.394.88-.88.88m1.88-9.416h-3.766c-.552 0-1 .448-1 1v9.416c0 .552.448 1 1 1h3.766c.552 0 1-.448 1-1v-9.416c0-.552-.448-1-1-1m-1.88 30.5615h-.006c-.486 0-.88-.394-.88-.88v-5.656c0-.485.394-.88.88-.88h.006c.486 0 .88.395.88.88v5.656c0 .486-.394.88-.88.88m1.88-9.416h-3.766c-.552 0-1 .448-1 1v9.416c0 .552.448 1 1 1h3.766c.552 0 1-.448 1-1v-9.416c0-.552-.448-1-1-1m253.0789-11.103h15.656c1.105 0 2 .896 2 2v25.072c0 1.104-.895 2-2 2h-15.656c-1.104 0-2-.896-2-2v-25.072c0-1.104.896-2 2-2m-2 31.072h19.656c1.105 0 2-.896 2-2v-29.072c0-1.104-.895-2-2-2h-19.656c-1.104 0-2 .896-2 2v29.072c0 1.104.896 2 2 2"/><path d="m366.2974 173.108h-3.766c-1.526 0-2.767-1.241-2.767-2.766 0-1.526 1.241-2.766 2.767-2.766h3.766c1.525 0 2.766 1.24 2.766 2.766 0 1.525-1.241 2.766-2.766 2.766m0-7.532h-3.766c-2.629 0-4.767 2.138-4.767 4.766s2.138 4.766 4.767 4.766h3.766c2.628 0 4.766-2.138 4.766-4.766s-2.138-4.766-4.766-4.766"/><path d="m362.5391 168.8711c-.552 0-1 .448-1 1v.941c0 .553.448 1 1 1s1-.447 1-1v-.941c0-.552-.448-1-1-1m3.7666 0c-.552 0-1 .448-1 1v.941c0 .553.448 1 1 1s1-.447 1-1v-.941c0-.552-.448-1-1-1m-.0083 16.4776h-3.766c-1.526 0-2.767-1.241-2.767-2.767 0-1.525 1.241-2.766 2.767-2.766h3.766c1.525 0 2.766 1.241 2.766 2.766 0 1.526-1.241 2.767-2.766 2.767m0-7.533h-3.766c-2.629 0-4.767 2.138-4.767 4.766 0 2.629 2.138 4.767 4.767 4.767h3.766c2.628 0 4.766-2.138 4.766-4.767 0-2.628-2.138-4.766-4.766-4.766"/><path d="m362.5391 181.1114c-.552 0-1 .448-1 1v.942c0 .552.448 1 1 1s1-.448 1-1v-.942c0-.552-.448-1-1-1m3.7666 0c-.552 0-1 .448-1 1v.942c0 .552.448 1 1 1s1-.448 1-1v-.942c0-.552-.448-1-1-1m-201.3926-59.8291c-.552 0-1 .448-1 1s.448 1 1 1h1.289c.552 0 1-.448 1-1s-.448-1-1-1zm-139.5943-22.1909h1.51v1.51c0 .553.448 1 1 1s1-.447 1-1v-1.51h1.51c.552 0 1-.448 1-1s-.448-1-1-1h-1.51v-1.51c0-.552-.448-1-1-1s-1 .448-1 1v1.51h-1.51c-.552 0-1 .448-1 1s.448 1 1 1m40.2652-49.1944h1.51v1.51c0 .553.448 1 1 1s1-.447 1-1v-1.51h1.51c.552 0 1-.448 1-1s-.448-1-1-1h-1.51v-1.51c0-.552-.448-1-1-1s-1 .448-1 1v1.51h-1.51c-.552 0-1 .448-1 1s.448 1 1 1m295.5473 28.022c.256 0 .512-.098.707-.293l1.183-1.183c.391-.391.391-1.024 0-1.414-.39-.391-1.023-.391-1.414 0l-1.183 1.183c-.391.391-.391 1.023 0 1.414.195.195.451.293.707.293m-5.916 5.916c.256 0 .512-.098.707-.293l1.183-1.183c.391-.391.391-1.024 0-1.414-.39-.391-1.023-.391-1.414 0l-1.183 1.183c-.391.391-.391 1.023 0 1.414.195.195.451.293.707.293m6.3921-.293c.195.195.451.293.707.293s.512-.098.707-.293c.391-.391.391-1.023 0-1.414l-1.183-1.183c-.391-.391-1.023-.391-1.414 0-.391.39-.391 1.023 0 1.414zm-5.916-5.916c.195.195.451.293.707.293s.512-.098.707-.293c.391-.391.391-1.023 0-1.414l-1.183-1.183c-.391-.391-1.023-.391-1.414 0-.391.39-.391 1.023 0 1.414zm19.5508 22.4654c.833 0 1.51.677 1.51 1.51 0 .832-.677 1.51-1.51 1.51s-1.51-.678-1.51-1.51c0-.833.677-1.51 1.51-1.51m0 5.02c1.936 0 3.51-1.575 3.51-3.51s-1.574-3.51-3.51-3.51c-1.935 0-3.51 1.575-3.51 3.51s1.575 3.51 3.51 3.51"/></g><path d="m0 0h388v236h-388z"/></g></svg>