<svg xmlns="http://www.w3.org/2000/svg" width="80" height="80" viewBox="0 0 80 80" xmlns:xlink="http://www.w3.org/1999/xlink">
  <defs>
    <linearGradient id="a" x1="-2.446%" x2="118.726%" y1="-15.757%" y2="127.74%">
      <stop stop-color="#B3AEFF" offset="0%"/>
      <stop stop-color="#738EF5" offset="100%"/>
    </linearGradient>
    <path id="b" d="M7.47417442,23.394729 C7.47417442,24.4395618 6.58607364,25.3101165 5.52018217,25.3101165 L4.4542907,25.3101165 C3.38839922,25.3101165 2.49987209,24.4395618 2.49987209,23.394729 C2.49987209,22.3498961 3.38839922,21.4793414 4.4542907,21.4793414 L5.52018217,21.4793414 C6.58607364,21.4793414 7.47417442,22.3498961 7.47417442,23.394729 Z M55.6169109,22.8723126 C60.2356318,32.4500861 55.9720659,43.9432472 45.8460969,48.4707168 C36.0757093,52.8243262 24.3509031,48.6449949 19.9095465,39.0672214 C19.0214457,37.1518338 18.4885,35.0621682 18.3107093,32.9725025 L14.4022984,32.9725025 C13.336407,32.9725025 12.4483062,32.1015299 12.4483062,31.0566971 C12.4483062,30.0118642 13.336407,29.1413095 14.4022984,29.1413095 L20.0873372,29.1413095 C21.1532287,29.1413095 22.0413295,28.2707548 22.0413295,27.225922 C22.0413295,26.1810892 21.1532287,25.3101165 20.0873372,25.3101165 L11.0272597,25.3101165 C9.96136822,25.3101165 9.07284109,24.4395618 9.07284109,23.394729 C9.07284109,22.3498961 9.96136822,21.4793414 11.0272597,21.4793414 L23.6401667,21.4793414 C24.7060581,21.4793414 25.5941589,20.6083688 25.5941589,19.563536 C25.5941589,18.5187031 24.7060581,17.6481484 23.6401667,17.6481484 L18.4885,17.6481484 C16.8896628,17.6481484 15.4681899,16.4290375 15.4681899,14.6879281 C15.4681899,13.1206788 16.7118721,11.7272898 18.4885,11.7272898 L38.5626473,11.7272898 C45.6687326,12.075846 52.4192364,16.0808992 55.6169109,22.8723126 Z M33.1657403,20.9514083 C27.5484922,23.4799037 25.0854302,29.9933916 27.6648876,35.4996606 C30.244345,41.0059296 36.8891124,43.4203293 42.5063605,40.8918338 C48.1240349,38.3633384 50.5866705,31.8498506 48.0072132,26.3435816 C45.4277558,20.8373126 38.7829884,18.4229129 33.1657403,20.9514083 Z M42.1156473,24.6137145 L45.6684767,30.5345732 C45.8462674,30.8827115 45.8462674,31.0569896 45.6684767,31.4051279 L42.1156473,37.3259866 C41.9378566,37.6741249 41.5827016,37.6741249 41.4049109,37.6741249 L34.4766163,37.6741249 C34.1214612,37.6741249 33.9436705,37.4998468 33.7663062,37.3259866 L30.2130504,31.4051279 C30.035686,31.0569896 30.035686,30.8827115 30.2130504,30.5345732 L33.7663062,24.6137145 C33.9436705,24.2655762 34.2992519,24.2655762 34.4766163,24.2655762 L41.4049109,24.2655762 C41.7604922,24.0912981 41.9378566,24.2655762 42.1156473,24.6137145 Z"/>
  </defs>
  <g fill="none" fill-rule="evenodd">
    <rect width="80" height="80" fill="url(#a)"/>
    <g transform="translate(7 10)">
      <rect width="60" height="60"/>
      <mask id="c" fill="white">
        <use xlink:href="#b"/>
      </mask>
      <use fill="#B9BBBE" xlink:href="#b"/>
      <rect width="60" height="60" fill="#FFFFFF" mask="url(#c)"/>
    </g>
  </g>
</svg>
