<?xml version="1.0" encoding="UTF-8" standalone="no"?>
<svg width="103px" height="57px" viewBox="0 0 103 57" version="1.1" xmlns="http://www.w3.org/2000/svg" xmlns:xlink="http://www.w3.org/1999/xlink">
    <!-- Generator: Sketch 46.2 (44496) - http://www.bohemiancoding.com/sketch -->
    <title>drawable-xhdpi/img_auth_bg_bl</title>
    <desc>Created with Sketch.</desc>
    <defs></defs>
    <g id="Symbols" stroke="none" stroke-width="1" fill="none" fill-rule="evenodd" fill-opacity="0.3">
        <g id="img_auth_bg_bl" fill="#E3E7F8">
            <g id="Group-5">
                <path d="M33.1806461,52.011582 L24.5560167,47.7208577 C21.8299675,46.3643209 19.6983918,50.6262043 22.4379858,51.9888129 C25.3130296,53.419223 28.1875716,54.8491271 31.0626153,56.2800432 C33.7886644,57.636074 35.9202402,53.3746966 33.1806461,52.011582" id="Fill-83"></path>
                <path d="M101.389014,40.8325248 C97.3751901,39.3869352 93.3608645,37.9408397 89.3465389,36.4947441 C86.5186518,35.4762031 84.3589827,39.7289788 87.2285081,40.7626993 C91.2428337,42.2087948 95.2571592,43.6548904 99.2709831,45.1009859 C102.09887,46.119021 104.259041,41.8662453 101.389014,40.8325248" id="Fill-86"></path>
                <path d="M57.5557594,4.02236006 C53.11552,2.05763333 48.4791295,0.698060648 43.6746811,0.0266230042 C40.6757261,-0.39283578 39.6889505,4.27686883 42.7159988,4.69986948 C47.1221249,5.31564914 51.3632032,6.48750263 55.4377286,8.29082122 C58.2129409,9.51833269 60.3550516,5.26100313 57.5557594,4.02236006" id="Fill-88"></path>
                <path d="M85.6725431,21.1076399 C83.4120393,19.0027562 81.1510339,16.8978726 78.8900285,14.7934949 C76.6526014,12.7093565 73.4855885,16.2542639 75.7245206,18.3389083 C77.985526,20.443792 80.2465314,22.5486756 82.5070352,24.6535593 C84.744964,26.7366857 87.9119769,23.1917783 85.6725431,21.1076399" id="Fill-90"></path>
                <path d="M89.8144421,52.6919756 C86.0966008,49.9520849 82.0983285,47.9448558 77.6811657,46.6298095 C74.7624771,45.760533 73.8138281,50.4368154 76.7219817,51.3030559 C80.2853102,52.3640994 83.6479725,54.0262492 86.6484326,56.2378949 C89.0830142,58.0321058 92.274107,54.5049078 89.8144421,52.6919756" id="Fill-92"></path>
                <path d="M64.2246468,26.740177 C61.1945885,25.4114692 58.1645302,24.0832673 55.1344719,22.7545595 C52.3567513,21.5366617 50.2136372,25.7934853 53.0169428,27.0230207 C56.047001,28.3512225 59.0770593,29.6799303 62.1066159,31.0086381 C64.8848383,32.2265359 67.0279523,27.9697124 64.2246468,26.740177" id="Fill-95"></path>
                <path d="M12.1038818,31.5143668 C8.96847378,30.6435724 6.05279517,29.3077808 3.28962282,27.5818774 C0.705043301,25.967796 -1.4044592,30.240811 1.17159201,31.8498326 C4.28041174,33.7912842 7.62200417,35.2100567 11.1451994,36.1876133 C14.0809446,37.0032557 15.0341087,32.3279853 12.1038818,31.5143668" id="Fill-97"></path>
                <path d="M30.6813999,9.5263778 C27.4727488,7.21910149 23.992195,5.61766959 20.1158274,4.84199972 C17.132424,4.2444354 16.1612,8.91515197 19.1571451,9.5152462 C22.1701468,10.1188823 25.0050572,11.2674606 27.515892,13.0728032 C29.9665269,14.8341253 33.160128,11.3084452 30.6813999,9.5263778" id="Fill-99"></path>
                <path d="M31.4953518,25.872975 L18.1425271,22.04067 C15.2143068,21.2002345 14.2631495,25.8755049 17.1833431,26.7139165 C21.6346191,27.9915202 26.0853934,29.2691238 30.5361678,30.5462215 C33.464388,31.386657 34.4155454,26.7113866 31.4953518,25.872975" id="Fill-79"></path>
                <path d="M51.6139355,41.3715976 C48.3235129,40.1951903 45.0330903,39.0192889 41.7431694,37.8423756 C38.9137773,36.8309183 36.7531049,41.083694 39.6251386,42.1103308 C42.9155612,43.2867381 46.2059838,44.4631455 49.4959047,45.6400588 C52.3252968,46.6515161 54.4859692,42.3982344 51.6139355,41.3715976" id="Fill-81"></path>
            </g>
        </g>
    </g>
</svg>