<svg width="40" height="23" viewBox="0 0 40 23" fill="none" xmlns="http://www.w3.org/2000/svg">
<path d="M21.3917 11.9253H5.08333C2.27589 11.9253 0 14.2012 0 17.0086C0 19.8161 2.27589 22.092 5.08333 22.092H21.3917C24.1991 22.092 26.475 19.8161 26.475 17.0086C26.475 14.2012 24.1991 11.9253 21.3917 11.9253Z" fill="#4F81FF"/>
<path d="M13.2341 19.6751C14.7068 19.6751 15.9007 18.4812 15.9007 17.0085C15.9007 15.5357 14.7068 14.3418 13.2341 14.3418C11.7613 14.3418 10.5674 15.5357 10.5674 17.0085C10.5674 18.4812 11.7613 19.6751 13.2341 19.6751Z" fill="#F2F3F4"/>
<path d="M5.47526 19.6751C6.94802 19.6751 8.14193 18.4812 8.14193 17.0085C8.14193 15.5357 6.94802 14.3418 5.47526 14.3418C4.0025 14.3418 2.80859 15.5357 2.80859 17.0085C2.80859 18.4812 4.0025 19.6751 5.47526 19.6751Z" fill="#BED3FF"/>
<path d="M21.0007 19.6751C22.4734 19.6751 23.6673 18.4812 23.6673 17.0085C23.6673 15.5357 22.4734 14.3418 21.0007 14.3418C19.5279 14.3418 18.334 15.5357 18.334 17.0085C18.334 18.4812 19.5279 19.6751 21.0007 19.6751Z" fill="#BED3FF"/>
<path d="M35.6423 0H22.2673C19.9661 0 18.1006 1.86548 18.1006 4.16667C18.1006 6.46785 19.9661 8.33333 22.2673 8.33333H35.6423C37.9434 8.33333 39.8089 6.46785 39.8089 4.16667C39.8089 1.86548 37.9434 0 35.6423 0Z" fill="#F47FFF"/>
<path d="M29.0169 6.98359V1.56693H27.6669V3.61693H25.7919V1.56693H24.4502V6.98359H25.7919V4.78359H27.6669V6.98359H29.0169ZM31.2085 1.98359C31.2085 1.80457 31.1374 1.63288 31.0108 1.5063C30.8842 1.37971 30.7125 1.30859 30.5335 1.30859C30.3545 1.30859 30.1828 1.37971 30.0562 1.5063C29.9296 1.63288 29.8585 1.80457 29.8585 1.98359C29.8585 2.16262 29.9296 2.3343 30.0562 2.46089C30.1828 2.58748 30.3545 2.65859 30.5335 2.65859C30.7125 2.65859 30.8842 2.58748 31.0108 2.46089C31.1374 2.3343 31.2085 2.16262 31.2085 1.98359ZM31.1252 6.98359V3.14193H29.9335V6.98359H31.1252ZM33.4502 1.56693H31.9835L32.3669 5.11693L33.0835 4.9586L33.4502 1.56693ZM33.3502 6.98359V5.63359H32.0752V6.98359H33.3502Z" fill="#F2F3F4"/>
</svg>
