<svg width="660" height="278" viewBox="0 0 660 278" fill="none" xmlns="http://www.w3.org/2000/svg">
<g clip-path="url(#clip0_2038_24130)">
<rect x="0.000244141" width="660" height="278" rx="8" fill="url(#paint0_linear_2038_24130)"/>
<path fill-rule="evenodd" clip-rule="evenodd" d="M550.687 56.2283L608.852 34.9785L599.095 54.0599C597.197 57.8003 593.945 60.6734 590.042 62.0828L543.748 79.0501L542.122 74.6592L550.687 56.2283Z" fill="#DAE2ED"/>
<path fill-rule="evenodd" clip-rule="evenodd" d="M537.352 54.2766L614.653 26.034C614.978 25.9255 615.304 26.0882 615.412 26.3592C615.466 26.5218 615.466 26.6845 615.412 26.7929L612.43 32.81C612.105 33.5147 611.509 34.0026 610.804 34.2737L608.907 34.9784L550.687 56.2281L542.122 74.659L543.694 79.0499L544.887 82.3566L525.426 89.4579L522.607 81.7603L533.991 57.3123C534.695 55.9029 535.888 54.8187 537.352 54.2766Z" fill="#ECEFF6"/>
<path fill-rule="evenodd" clip-rule="evenodd" d="M542.176 74.6592L550.741 56.2283L608.907 34.9785L606.955 38.8273L552.801 58.6134L544.886 75.6891L545.862 78.2911L543.802 78.9958L542.176 74.6592Z" fill="#C5CEDD"/>
<path fill-rule="evenodd" clip-rule="evenodd" d="M520.438 73.0872C511.656 91.6808 519.571 113.852 538.164 122.688C556.758 131.524 578.929 123.555 587.765 104.962C596.601 86.3683 588.633 64.197 570.039 55.3611C551.391 46.6877 529.274 54.6021 520.438 73.0872Z" fill="#4F5D7F"/>
<path fill-rule="evenodd" clip-rule="evenodd" d="M532.202 78.7248C526.51 90.8133 531.66 105.233 543.749 110.925C555.837 116.617 570.256 111.467 575.948 99.3783C581.64 87.2898 576.49 72.8703 564.402 67.1784C552.368 61.5407 538.002 66.6905 532.202 78.7248Z" fill="#7687B2"/>
<path fill-rule="evenodd" clip-rule="evenodd" d="M529.22 59.5886C529.166 65.2805 544.127 79.2121 553.939 86.9097C562.992 86.9639 585.434 86.0423 590.692 80.8925C591.18 80.4589 591.505 79.8626 591.56 79.2121C591.56 78.9952 591.505 78.7784 591.451 78.5616C588.307 67.3404 580.935 58.5044 570.744 53.6798C557.896 47.5543 542.609 49.289 529.816 58.2876C529.437 58.5586 529.22 59.0465 529.22 59.5886Z" fill="#FF7F14"/>
<path fill-rule="evenodd" clip-rule="evenodd" d="M553.289 88.8083C553.289 88.8083 589.066 67.3417 585.434 62.8966C581.694 58.2889 576.924 54.5485 571.557 52.0007C557.083 45.1162 541.092 48.0977 528.786 56.771C520.113 62.8966 553.289 88.8083 553.289 88.8083Z" fill="#FF903E"/>
<path fill-rule="evenodd" clip-rule="evenodd" d="M535.563 80.2961C530.738 90.5415 535.075 102.738 545.32 107.563C555.566 112.388 567.763 108.051 572.587 97.8055C577.412 87.5601 573.075 75.3631 562.83 70.5386C552.584 65.7682 540.442 70.1049 535.563 80.2961Z" fill="#EBEFF7"/>
<path fill-rule="evenodd" clip-rule="evenodd" d="M538.544 81.707C534.479 90.3261 538.165 100.572 546.73 104.637C555.295 108.703 565.594 105.017 569.66 96.4517C573.726 87.8867 570.039 77.5871 561.474 73.5215C552.855 69.4558 542.61 73.142 538.544 81.707Z" fill="#DAE2ED"/>
<path fill-rule="evenodd" clip-rule="evenodd" d="M564.347 81.761L555.024 76.1775C554.427 75.8523 553.723 75.8523 553.181 76.1775L543.694 81.49C543.098 81.8152 542.718 82.4657 542.718 83.1162L542.61 94.0121C542.61 94.6626 542.935 95.3131 543.531 95.6384L552.855 101.222C553.452 101.547 554.156 101.547 554.698 101.222L564.185 95.8552C564.781 95.53 565.161 94.8795 565.161 94.229L565.269 83.3331C565.269 82.7368 564.89 82.0863 564.347 81.761Z" fill="#C5CEDD"/>
<path fill-rule="evenodd" clip-rule="evenodd" d="M548.681 86.5302C547.271 89.5116 548.572 93.0352 551.554 94.4446C554.535 95.854 558.059 94.553 559.468 91.5716C560.878 88.5901 559.577 85.0665 556.649 83.6571C553.668 82.3019 550.09 83.5487 548.681 86.5302Z" fill="#B7C2CE"/>
<path fill-rule="evenodd" clip-rule="evenodd" d="M507.645 124.26H510.897C511.711 124.26 512.415 124.91 512.415 125.777V132.554C512.361 134.397 513.77 135.969 515.668 136.077C517.565 136.185 519.083 134.722 519.191 132.825C519.191 132.716 519.191 132.662 519.191 132.554V104.04C519.191 101.98 517.565 100.245 515.451 100.245C515.451 100.245 515.451 100.245 515.397 100.245H503.905C501.845 100.245 500.164 101.926 500.164 103.986C500.164 103.986 500.164 103.986 500.164 104.04V116.725C500.11 120.899 503.471 124.26 507.645 124.26ZM499.839 88.2109H506.344C506.344 90.5961 506.344 92.9813 506.344 95.3665H499.947C500.001 93.0355 500.001 90.5961 499.839 88.2109Z" fill="#7196FF"/>
<path fill-rule="evenodd" clip-rule="evenodd" d="M502.17 103.823H529.6C529.925 103.823 530.196 103.552 530.196 103.227C530.196 102.901 529.925 102.63 529.6 102.63H502.17C501.845 102.63 501.574 102.359 501.574 102.034V97.6432C501.574 97.3179 501.303 97.0469 500.978 97.0469C500.653 97.0469 500.382 97.3179 500.382 97.6432V102.034C500.436 103.01 501.195 103.823 502.17 103.823Z" fill="#E4E9F7"/>
<path fill-rule="evenodd" clip-rule="evenodd" d="M498.972 100.3H503.038C503.363 100.3 503.634 100.029 503.634 99.7039V87.1275C503.634 86.8023 503.363 86.5312 503.038 86.5312H498.972C498.647 86.5312 498.376 86.8023 498.376 87.1275V99.7039C498.376 100.029 498.593 100.3 498.972 100.3C498.918 100.3 498.918 100.3 498.972 100.3Z" fill="black"/>
<path fill-rule="evenodd" clip-rule="evenodd" d="M499.893 88.2109H497.508C497.183 88.2109 496.912 88.482 496.912 88.8072C496.912 90.8129 496.912 92.8187 496.912 94.8244C496.912 95.1496 497.183 95.4207 497.508 95.4207H499.731C501.52 95.4207 503.037 94.1739 503.363 92.4392C503.688 90.4877 502.387 88.6446 500.435 88.2651C500.273 88.2651 500.056 88.2109 499.893 88.2109Z" fill="#7196FF"/>
<path fill-rule="evenodd" clip-rule="evenodd" d="M512.361 100.3H516.427C516.752 100.3 517.023 100.029 517.023 99.7039V87.1275C517.023 86.8023 516.752 86.5312 516.427 86.5312H512.361C512.036 86.5312 511.765 86.8023 511.765 87.1275V99.7039C511.765 100.029 512.036 100.3 512.361 100.3Z" fill="black"/>
<path fill-rule="evenodd" clip-rule="evenodd" d="M503.309 90.9763C506.399 86.748 511.332 84.2002 516.59 84.2002H538.815C544.236 84.2544 548.627 88.6453 548.627 94.1204V112.334C548.627 115.966 545.7 118.948 542.068 118.948H510.031C504.556 118.894 500.165 114.503 500.165 109.028V100.734C500.11 97.2102 501.249 93.7951 503.309 90.9763Z" fill="#AEC7FF"/>
<path fill-rule="evenodd" clip-rule="evenodd" d="M532.093 84.2002H538.761C544.236 84.2544 548.627 88.6453 548.627 94.1204V109.949C548.627 113.581 545.7 116.563 542.068 116.563H532.039C532.202 105.829 532.202 94.9877 532.093 84.2002ZM553.235 107.781L560.173 109.841C562.83 110.6 564.347 113.31 563.588 115.966C562.83 118.623 560.119 120.14 557.463 119.382C555.782 118.894 554.481 117.647 554.048 115.966L551.988 109.028C551.825 108.54 552.096 107.944 552.584 107.781C552.801 107.727 553.018 107.727 553.235 107.781Z" fill="#7196FF"/>
<path fill-rule="evenodd" clip-rule="evenodd" d="M537.135 124.259H540.387C541.2 124.259 541.905 124.91 541.905 125.777V132.553C541.851 134.396 543.26 135.968 545.158 136.077C547.001 136.131 548.573 134.722 548.681 132.824C548.681 132.716 548.681 132.662 548.681 132.553V98.7272C548.681 96.6673 547.001 94.9326 544.941 94.9326H533.449C531.389 94.9326 529.708 96.6673 529.708 98.7272V116.724C529.6 120.899 532.961 124.259 537.135 124.259Z" fill="#7196FF"/>
<path fill-rule="evenodd" clip-rule="evenodd" d="M515.613 103.824H543.043C543.368 103.824 543.639 103.553 543.639 103.227C543.639 102.902 543.368 102.631 543.043 102.631H515.613C515.288 102.631 515.017 102.36 515.017 102.035V97.6438C515.071 97.3185 514.8 97.0475 514.475 96.9933C514.15 96.9391 513.879 97.2101 513.824 97.5354C513.824 97.5896 513.824 97.5896 513.824 97.6438V102.035C513.824 103.01 514.638 103.769 515.613 103.824Z" fill="#E4E9F7"/>
<path fill-rule="evenodd" clip-rule="evenodd" d="M512.361 100.3H516.427C516.752 100.3 517.023 100.029 517.023 99.7039V87.1275C517.023 86.8023 516.752 86.5312 516.427 86.5312H512.361C512.036 86.5312 511.765 86.8023 511.765 87.1275V99.7039C511.765 100.029 512.036 100.3 512.361 100.3Z" fill="black"/>
<path fill-rule="evenodd" clip-rule="evenodd" d="M512.199 88.2116H525.589C527.811 88.2116 529.6 86.4227 529.6 84.2002H538.002V101.655H529.654C528.895 97.2645 525.047 95.3672 520.439 95.3672H512.308C510.519 95.3672 509.001 94.1204 508.676 92.3857C508.35 90.4342 509.651 88.5911 511.603 88.2116C511.765 88.2658 511.982 88.2116 512.199 88.2116Z" fill="#7196FF"/>
<path fill-rule="evenodd" clip-rule="evenodd" d="M542.99 84.4167H512.416C506.941 84.4167 502.496 79.9716 502.496 74.4966V56.0657C502.55 50.5906 506.941 46.1455 512.416 46.1455H542.99C548.465 46.1455 552.856 50.5906 552.91 56.0657V74.4966C552.856 79.9716 548.465 84.4167 542.99 84.4167Z" fill="#80A7FF"/>
<path fill-rule="evenodd" clip-rule="evenodd" d="M536.539 84.4163H505.965C500.49 84.4163 496.045 79.9712 496.045 74.4419V56.011C496.099 50.5359 500.49 46.145 505.965 46.0908H536.539C542.014 46.0908 546.459 50.5359 546.459 56.011V74.4419C546.459 79.9712 542.014 84.4163 536.539 84.4163Z" fill="#9CB8FF"/>
<path fill-rule="evenodd" clip-rule="evenodd" d="M549.928 72.2199H542.61V54.3311H549.928C553.56 54.3311 556.541 57.3125 556.541 60.9445V65.6064C556.541 69.2384 553.56 72.2199 549.928 72.2199Z" fill="#9CB8FF"/>
<path fill-rule="evenodd" clip-rule="evenodd" d="M542.61 68.2074V58.2872C542.61 57.9078 542.881 57.6367 543.26 57.6367H549.874C551.717 57.6367 553.181 59.1003 553.181 60.9434V65.6054C553.181 67.4485 551.717 68.9121 549.874 68.9121H543.26C542.935 68.9121 542.61 68.5868 542.61 68.2074C542.61 68.2074 542.61 68.2616 542.61 68.2074Z" fill="#80A7FF"/>
<path fill-rule="evenodd" clip-rule="evenodd" d="M531.118 66.4191C529.329 66.4191 527.865 64.9555 527.865 63.1666C527.865 61.3777 529.329 59.9141 531.118 59.9141C532.907 59.9141 534.37 61.3777 534.37 63.1666C534.37 64.9555 532.907 66.4191 531.118 66.4191Z" fill="black"/>
<path fill-rule="evenodd" clip-rule="evenodd" d="M495.774 56.0654H518.27C520.439 56.0654 522.227 57.8543 522.227 60.0227V64.6846C522.227 70.1596 517.782 74.6047 512.307 74.659H501.737C496.262 74.659 491.816 70.2139 491.816 64.7388V60.0769C491.816 57.8543 493.605 56.0654 495.774 56.0654Z" fill="#CBDAF7"/>
<path fill-rule="evenodd" clip-rule="evenodd" d="M507.7 74.6594H501.737C496.262 74.6594 491.816 70.2143 491.816 64.7393V60.0773C491.816 57.909 493.605 56.1201 495.774 56.1201H513.608C515.777 56.1201 517.565 57.909 517.565 60.0773V64.7393C517.565 70.1601 513.175 74.6052 507.7 74.6594Z" fill="#CBDAF7"/>
<path fill-rule="evenodd" clip-rule="evenodd" d="M505.043 67.125H509.325C510.247 67.1792 510.952 67.9381 510.897 68.8597C510.843 69.727 510.193 70.3775 509.325 70.4317H505.043C504.121 70.3775 503.417 69.6186 503.471 68.697C503.525 67.8297 504.176 67.1792 505.043 67.125ZM497.237 67.125H498.863C499.785 67.1792 500.489 67.9381 500.435 68.8597C500.381 69.727 499.73 70.3775 498.863 70.4317H497.237C496.315 70.3775 495.611 69.6186 495.665 68.697C495.719 67.8297 496.424 67.1792 497.237 67.125Z" fill="#9CB8FF"/>
<path fill-rule="evenodd" clip-rule="evenodd" d="M506.833 78.5629H504.176C503.58 78.5629 503.092 78.075 503.092 77.4787C503.092 76.8824 503.58 76.3945 504.176 76.3945H506.833C507.429 76.3945 507.917 76.8824 507.917 77.4787C507.917 78.075 507.429 78.5629 506.833 78.5629Z" fill="#80A7FF"/>
<path opacity="0.4" fill-rule="evenodd" clip-rule="evenodd" d="M494.039 50.1565C494.039 50.1565 484.498 64.4133 494.744 80.8385L500.544 84.1994L537.948 82.5732L547.055 70.4305L537.948 46.0908H505.965L494.039 50.1565Z" fill="#4871E5"/>
<path fill-rule="evenodd" clip-rule="evenodd" d="M523.853 36.7139C545.645 36.7139 557.679 51.4586 557.679 63.6555C557.679 75.8524 543.423 76.9366 540.062 68.3174L533.015 49.6155L501.899 53.6811L494.093 50.1576C496.966 45.3872 507.699 36.7139 523.853 36.7139Z" fill="#EBEFF7"/>
<path fill-rule="evenodd" clip-rule="evenodd" d="M542.393 70.4307L522.661 80.8387H494.743L497.454 85.3922H542.935L546.892 76.3936L542.393 70.4307Z" fill="#EBEFF7"/>
<path fill-rule="evenodd" clip-rule="evenodd" d="M546.947 56.1197L552.801 57.9628L555.349 47.609C555.674 46.308 554.861 45.007 553.56 44.736C552.422 44.4649 551.229 45.0612 550.795 46.1454L546.947 56.1197Z" fill="#DAE2ED"/>
<path fill-rule="evenodd" clip-rule="evenodd" d="M554.427 51.2957L552.801 58.0175L546.947 56.1744L549.44 49.7236C551.066 50.2657 552.747 50.8078 554.427 51.2957Z" fill="#B7C2CE"/>
<path fill-rule="evenodd" clip-rule="evenodd" d="M543.477 105.233L566.244 110.491L568.196 101.818L545.428 96.5596L543.477 105.233Z" fill="#B7C2CE"/>
<path fill-rule="evenodd" clip-rule="evenodd" d="M562.396 112.008L590.964 121.82C591.506 122.037 592.102 121.929 592.59 121.549C593.783 120.628 596.005 118.351 597.198 113.038C598.391 107.726 597.415 104.69 596.71 103.389C596.439 102.901 595.951 102.522 595.355 102.468L565.378 98.7815C564.781 98.7273 564.239 99.1068 564.077 99.703L561.637 110.653C561.529 111.249 561.854 111.792 562.396 112.008Z" fill="#C5CEDD"/>
<path fill-rule="evenodd" clip-rule="evenodd" d="M570.31 103.823C570.148 104.582 570.635 105.341 571.34 105.503C572.099 105.666 572.858 105.178 573.021 104.473C573.183 103.715 572.695 102.956 571.991 102.793C571.232 102.576 570.473 103.064 570.31 103.823ZM576.924 104.744C576.761 105.503 577.249 106.262 577.954 106.425C578.713 106.588 579.471 106.1 579.634 105.395C579.797 104.636 579.309 103.877 578.604 103.714C577.845 103.498 577.086 103.986 576.924 104.744C576.869 104.744 576.869 104.744 576.924 104.744Z" fill="#B7C2CE"/>
<path fill-rule="evenodd" clip-rule="evenodd" d="M543.748 103.77L562.07 118.027L567.491 111.034L549.169 96.7227L543.748 103.77Z" fill="#D0D9EA"/>
<path fill-rule="evenodd" clip-rule="evenodd" d="M558.006 117.755L579.852 138.733C580.285 139.113 580.828 139.33 581.424 139.167C582.888 138.842 585.869 137.703 589.176 133.421C592.482 129.138 592.862 125.94 592.808 124.476C592.808 123.88 592.482 123.392 591.995 123.067L566.354 107.076C565.866 106.75 565.161 106.859 564.836 107.347L558.006 116.237C557.518 116.67 557.572 117.375 558.006 117.755Z" fill="#EBEFF7"/>
<path fill-rule="evenodd" clip-rule="evenodd" d="M568.63 113.688C568.142 114.284 568.25 115.152 568.901 115.64C569.497 116.128 570.364 116.019 570.852 115.423C571.34 114.827 571.232 113.959 570.635 113.471C569.931 112.983 569.063 113.092 568.63 113.688ZM573.888 118.025C573.4 118.621 573.508 119.488 574.159 119.976C574.755 120.464 575.623 120.356 576.11 119.705C576.598 119.055 576.49 118.242 575.839 117.754C575.189 117.32 574.322 117.429 573.888 118.025Z" fill="#B7C2CE"/>
<path fill-rule="evenodd" clip-rule="evenodd" d="M538.164 67.2334C538.977 73.9553 544.235 78.8882 549.927 78.1835C555.619 77.4788 559.522 71.4617 558.655 64.6856C557.787 57.9095 552.583 53.085 546.946 53.7355C541.308 54.386 537.351 60.5115 538.164 67.2334Z" fill="#DAE2ED"/>
<path fill-rule="evenodd" clip-rule="evenodd" d="M542.448 66.8524C543.044 71.6227 546.784 75.1463 550.796 74.6584C554.807 74.1705 557.626 69.888 557.03 65.0635C556.433 60.2389 552.693 56.7696 548.682 57.3116C544.67 57.8537 541.851 62.082 542.448 66.8524Z" fill="#B7C2CE"/>
<path fill-rule="evenodd" clip-rule="evenodd" d="M544.778 66.6352C545.211 70.0504 547.868 72.544 550.741 72.2187C553.614 71.8935 555.619 68.8036 555.186 65.3342C554.752 61.8649 552.096 59.4255 549.223 59.7507C546.35 60.076 544.344 63.1659 544.778 66.6352Z" fill="#FF903E"/>
<path fill-rule="evenodd" clip-rule="evenodd" d="M551.12 69.1305L551.771 68.8594C551.933 68.8052 552.042 68.5884 551.988 68.3716L549.711 62.6255C549.657 62.4628 549.44 62.3544 549.223 62.4086L548.572 62.6797C548.41 62.7339 548.301 62.9507 548.356 63.1676L550.632 68.8594C550.741 69.0763 550.958 69.1847 551.12 69.1305Z" fill="#FF7F14"/>
<path fill-rule="evenodd" clip-rule="evenodd" d="M543.423 109.407H550.958V84.2002H540.496V106.48C540.496 108.106 541.797 109.407 543.423 109.407Z" fill="black"/>
<path fill-rule="evenodd" clip-rule="evenodd" d="M575.785 56.2283L633.95 34.9785L624.193 54.0599C622.296 57.8003 619.043 60.6734 615.14 62.0828L568.846 78.9958L567.22 74.6049L575.785 56.2283Z" fill="#DAE2ED"/>
<path fill-rule="evenodd" clip-rule="evenodd" d="M562.451 54.2766L639.698 26.034C640.023 25.9255 640.348 26.0882 640.457 26.3592C640.511 26.5218 640.511 26.6845 640.457 26.7929L637.475 32.81C637.15 33.5147 636.554 34.0026 635.849 34.2737L633.952 34.9784L575.786 56.2281L567.221 74.659L568.847 79.0499L570.04 82.3566L550.579 89.4579L547.76 81.7603L559.144 57.3123C559.794 55.9029 560.987 54.8187 562.451 54.2766Z" fill="#ECEFF6"/>
<path fill-rule="evenodd" clip-rule="evenodd" d="M567.275 74.6592L575.84 56.2283L634.005 34.9785L632.054 38.8273L577.9 58.6134L569.985 75.6891L570.961 78.2911L568.901 79.0501L567.275 74.6592Z" fill="#C5CEDD"/>
<path fill-rule="evenodd" clip-rule="evenodd" d="M634.385 32.6483C634.981 32.4315 635.306 31.781 635.09 31.1305C634.873 30.5342 634.222 30.209 633.572 30.4258C632.975 30.6426 632.65 31.2931 632.867 31.9436C633.084 32.5941 633.734 32.8652 634.385 32.6483ZM629.723 34.383C630.319 34.1662 630.644 33.5157 630.428 32.8652C630.211 32.2689 629.56 31.9436 628.91 32.1605C628.259 32.3773 627.988 33.0278 628.205 33.6783C628.422 34.2746 629.072 34.5999 629.723 34.383ZM563.317 58.6142C563.86 58.289 564.076 57.5843 563.751 57.0422C563.48 56.6085 562.992 56.3917 562.504 56.4459C561.908 56.6627 561.583 57.3674 561.8 57.9637C562.071 58.56 562.721 58.8311 563.317 58.6142Z" fill="#DAE2ED"/>
<path fill-rule="evenodd" clip-rule="evenodd" d="M544.833 89.6209H556.921C557.951 89.6209 558.764 88.7536 558.764 87.7778V81.2728C558.764 80.2428 557.951 79.4297 556.921 79.4297H544.833C543.803 79.4297 542.99 80.297 542.99 81.2728V87.7778C542.99 88.8078 543.803 89.6209 544.833 89.6209Z" fill="#FF5C5C"/>
<path fill-rule="evenodd" clip-rule="evenodd" d="M540.441 92.9277H549.928C552.53 92.9277 554.59 90.8136 554.59 88.2658V80.8392C554.59 78.2372 552.476 76.1773 549.928 76.123H540.441C539.466 76.123 538.707 76.9362 538.707 77.8577V91.1388C538.652 92.1146 539.411 92.8735 540.441 92.9277C540.387 92.9277 540.387 92.9277 540.441 92.9277Z" fill="#D0D9EA"/>
<path fill-rule="evenodd" clip-rule="evenodd" d="M513.446 34.9229L513.988 38.5006C511.061 40.8858 508.459 43.6504 506.345 46.7403L503.092 39.3137C505.694 37.4164 509.272 36.3323 513.446 34.9229Z" fill="#FF7F14"/>
<path fill-rule="evenodd" clip-rule="evenodd" d="M506.345 46.742L503.092 39.3154L500.327 46.742H506.345Z" fill="#FF903E"/>
<path opacity="0.8" d="M510.026 170.131L509.908 170.111L509.81 169.631L509.194 169.506H508.578L508.372 168.879L507.852 168.62L507.031 168.119L507.332 167.86H507.948L508.989 168.119L509.509 168.762H510.125H510.645L511.261 169.13L511.685 169.882H511.48L510.85 170.007L510.439 170.132L510.026 170.131ZM504.856 166.087L504.446 165.87L504.321 165.435L504.517 164.653L504.66 164.066L505.3 163.827L506.084 163.958V165.587L505.372 165.848L504.856 166.087ZM499.576 168.236L499.387 170.67L496.584 171.735L493.103 175.22L492.122 177.285L491.216 179.914L490.548 182.826L490.311 185.704L490.58 188.785L490.257 190.118L488.996 190.67L488.187 191.28L487.271 194.157L486.689 195.076L484.641 195.673L480.242 195.719L478.55 196.166L477.397 197.374L476.028 199.238L474.443 200.931L472.632 201.679L468.407 202.729L464.569 204.593L461.465 205.288L459.47 202.88L459.341 207.407L455.59 209.736L445.748 211.782L443.764 212.719L442.568 213.526L440.918 214.627L439 214.994L429.46 213.88L419.963 214.994L417.915 215.545L416.039 216.843L409.895 222.551L408.536 225.27H405.238L402.431 225.652L401.5 226.784L400.583 226.16L400.378 223.897L401.911 222.508L402.527 223.389H405.114L404.813 218.996L400.466 218.363L398.817 220.003L397.995 221.517L397.16 220.751L395.504 220.002L395.03 221.106L391.167 220.087L388.664 218.134L387.978 216.703L387.88 214.615L387.095 214.794H386.065H385.379L384.692 214.734L384.251 214.555L383.613 215.271L382.976 216.106L382.534 216.703L380.769 217.001L379.788 219.386L377.14 219.028L375.571 218.551L374.688 219.684L374.763 222.242L373.243 222.786L367.703 223.5L362.194 222.413L356.955 220.106L350.175 215.866L347.739 214.81L344.979 214.135L339.352 213.538L337.035 212.581L334.803 211.185L329.521 206.974L328.756 206.089L327.926 201.424L327.387 200.675L327.3 199.159L324.229 190.67L322.741 189.39L319.928 187.518L318.731 186.256L317.643 184.64L316.845 182.702L316.759 180.612L317.901 178.535L315.358 174.326L315.11 172.63V169.104L314.527 166.058L311.649 161.05L310.582 158.562L310 154.506L310.453 151.555L311.973 150.567L314.657 152.437L318.602 156.784L320.812 158.535L323.324 159.575L328.821 159.325L333.607 156.771L337.542 152.865L340.496 148.616L342.469 143.595L343.891 140.866L345.993 139.336L346.252 138.572L346.619 137.8L347.384 137.464L348.041 137.649L349.044 138.328L349.27 138.479L350.133 138.671L351.469 138.361L352.503 140.209L354.475 141.347L356.425 141.715L357.979 141.347L359.636 140.209L360.567 138.065L361.404 136L365.608 136.547L366.467 140.837L367.275 142.996L368.411 144.637L370.478 145.767L373.997 146.905L376.694 148.412L379.391 149.683L380.835 150.947L381.335 153.356V154.844L382.074 156.132L383.416 156.751H384.552L388.057 155.756L389.706 154.594L390.137 153.858L390.959 152.084L391.999 151.457L393.245 152.084L394.066 153.23L396.127 154.594H397.886L399.631 153.481L402.109 150.947L404.498 148.679L406.88 147.533L409.96 145.633L411.411 144.26L412.657 143.992L415.957 144.386L419.475 145.139H422.767L424.629 144.26L425.471 143.616L426.293 142.226L429.496 139.958H431.564L433.33 140.711L435.096 141.347L436.738 141.465L438.08 142.101L439.86 144.127L441.188 145.884L443.365 147.156L446.363 147.909L447.404 147.533L448.013 146.654L448.225 145.39L449.874 144.127L452.565 141.213L453.701 140.837L455.878 141.088L459.273 140.711L461.559 140.334L462.284 140.837V142.863L462.695 145.265L463.736 146.278L465.173 147.909L467.035 149.934L467.241 150.947L467.446 153.732L467.241 156.375V159.544L466.406 163.197L465.584 166.097L465.995 168.236L467.241 169.882H468.692L470.869 169.256L471.786 166.724L472.299 162.069L473.068 161.294L474.058 160.297L475.291 159.151L476.331 160.297V164.208L477.153 166.356L478.795 167.1L481.191 166.097L482.218 163.958L483.368 163.064L484.819 163.314L486.339 164.334L487.489 164.083L488.529 163.565L489.96 164.083L491.212 164.71L494.101 166.231L495.758 166.481L497.202 166.724L499.262 168.119L499.576 168.236ZM525.43 156.375L527.072 157.002L528.523 157.645L529.756 158.022H531.631L533.904 157.001H536.286L537.532 157.896L539.188 158.649L540.503 158.39L541.242 157.896L541.834 157.064L543.68 158.654L545.686 160.945L547.162 165.367L548.65 168.21L550.461 170.828L552.056 171.919L550.213 172.051L546.796 171.683L543.497 170.735L542.031 169.104L540.457 168.288L533.267 169.209L527.026 171.11L525.668 171.919L524.599 173.053L520.967 172.27L518.503 172.796L517.476 172.153L519.119 170.65L520.255 170.382V167.609L517.777 167.358L516.326 166.096L516.436 162.561L515.395 161.424L512.301 160.053L513.013 158.272L514.259 157.261L516.025 156.374L517.052 157.127L517.887 158.022L519.735 157.645L521.391 156.5L522.322 155.363L523.048 154.468L525.43 156.375Z" fill="white"/>
</g>
<defs>
<linearGradient id="paint0_linear_2038_24130" x1="0.000247387" y1="4.74401" x2="656.801" y2="153.156" gradientUnits="userSpaceOnUse">
<stop offset="0.171875" stop-color="#9B48EF"/>
<stop offset="1" stop-color="#E292AA"/>
</linearGradient>
<clipPath id="clip0_2038_24130">
<rect x="0.000244141" width="660" height="278" rx="8" fill="white"/>
</clipPath>
</defs>
</svg>
