<svg xmlns="http://www.w3.org/2000/svg" width="292" height="182" viewBox="0 0 292 182">
  <g fill="none" fill-rule="evenodd">
    <g transform="translate(5 5)">
      <path fill="#4F545C" fill-opacity=".3" d="M281.5449,85.4056 L281.5449,85.4056 C281.5449,100.7526 269.1049,113.1916 253.7589,113.1916 L241.6479,113.1916 C235.1939,113.1916 229.9619,118.4246 229.9619,124.8776 L229.9619,124.8786 C229.9619,131.3316 235.1939,136.5636 241.6479,136.5636 L246.2839,136.5636 C250.7609,136.5626 254.3899,140.1926 254.3899,144.6696 C254.3899,149.1456 250.7609,152.7746 246.2839,152.7746 L148.7179,152.7746 C144.5659,152.7746 141.1999,156.1406 141.1999,160.2926 L141.1999,160.2936 C141.1999,164.4446 137.8339,167.8106 133.6819,167.8106 L62.6239,167.8106 C56.9909,167.8106 52.4249,163.2446 52.4249,157.6116 C52.4249,151.9796 56.9909,147.4136 62.6239,147.4136 L67.1509,147.4136 C71.9889,147.4136 75.9099,143.4916 75.9099,138.6546 C75.9099,133.8166 71.9889,129.8956 67.1509,129.8956 L52.7449,129.8956 C29.8049,129.8956 11.2089,111.2996 11.2089,88.3596 C11.2089,65.4206 29.8049,46.8246 52.7449,46.8246 L74.2849,46.8246 C84.3759,46.8246 92.5549,38.6436 92.5549,28.5536 L92.5549,28.5446 C92.5549,18.4546 100.7349,10.2746 110.8249,10.2746 L214.1999,10.2746 C223.0369,10.2746 230.1999,17.4396 230.1969,26.2766 C230.1939,35.1096 223.0329,42.2676 214.1999,42.2676 L210.3119,42.2676 C206.0719,42.2676 202.6359,45.7046 202.6359,49.9436 C202.6359,54.1826 206.0719,57.6196 210.3119,57.6196 L253.7589,57.6196 C269.1049,57.6196 281.5449,70.0596 281.5449,85.4056"/>
      <path fill="#4F545C" d="M199.6381,129.8626 C199.6381,130.4156 199.1911,130.8626 198.6381,130.8626 L198.6381,134.8636 C199.1911,134.8636 199.6381,135.3106 199.6381,135.8636 L199.6381,137.2626 C199.6381,137.8156 199.1911,138.2626 198.6381,138.2626 L198.6381,140.2626 C199.1911,140.2626 199.6381,140.7106 199.6381,141.2626 L199.6381,146.8676 C199.6381,147.1236 199.5391,147.3706 199.3631,147.5556 L186.3631,161.2406 C186.1741,161.4396 185.9121,161.5516 185.6381,161.5516 C185.3641,161.5516 185.1021,161.4396 184.9131,161.2406 L171.9131,147.5556 C171.7371,147.3706 171.6381,147.1236 171.6381,146.8676 L171.6381,114.7626 C171.6381,114.2106 172.0861,113.7626 172.6381,113.7626 L172.6381,113.7626 L172.6381,106.5136 L172.6381,106.5136 C172.0861,106.5136 171.6381,106.0666 171.6381,105.5136 L171.6381,94.0126 C171.6381,93.4606 172.0861,93.0126 172.6381,93.0126 L172.6381,93.0126 L172.6381,89.0136 L172.6381,89.0136 C172.0861,89.0136 171.6381,88.5666 171.6381,88.0136 L171.6381,71.6586 C171.6381,71.4016 171.7371,71.1556 171.9131,70.9696 L184.9131,57.2866 C185.2911,56.8876 185.9851,56.8876 186.3631,57.2866 L199.3631,70.9696 C199.5391,71.1556 199.6381,71.4016 199.6381,71.6586 L199.6381,129.8626 Z M203.6381,69.6626 L185.6381,50.7156 L167.6381,69.6626 L167.6381,148.8636 L185.6381,167.8106 L203.6381,148.8636 L203.6381,69.6626 Z"/>
      <path fill="#4F545C" d="M173.6381,94.013 L173.6381,97.523 L197.4311,73.73 C197.4921,73.669 197.5671,73.634 197.6381,73.592 L197.6381,72.058 L185.6381,59.427 L173.6381,72.058 L173.6381,88.014 C173.6381,88.567 173.1911,89.014 172.6381,89.014 L172.6381,93.013 C173.1911,93.013 173.6381,93.46 173.6381,94.013"/>
      <path fill="#72767D" d="M173.6381,140.2083 L173.6381,145.4493 L197.4311,121.6563 C197.4921,121.5953 197.5671,121.5613 197.6381,121.5193 L197.6381,116.2773 L173.8451,140.0703 C173.7841,140.1323 173.7091,140.1663 173.6381,140.2083"/>
      <path fill="#36393E" d="M173.6381,121.763 L173.6381,137.45 L197.4311,113.657 C197.4921,113.595 197.5671,113.561 197.6381,113.519 L197.6381,97.832 L173.8451,121.625 C173.7841,121.687 173.7091,121.721 173.6381,121.763"/>
      <path fill="#4F545C" d="M197.6381,129.8626 L197.6381,124.2776 L174.5201,147.3956 L185.6381,159.0996 L197.6381,146.4676 L197.6381,141.2626 C197.6381,140.7106 198.0861,140.2626 198.6381,140.2626 L198.6381,140.2626 L198.6381,138.2626 L198.6381,138.2626 C198.0861,138.2626 197.6381,137.8156 197.6381,137.2626 L197.6381,135.8636 C197.6381,135.3106 198.0861,134.8636 198.6381,134.8636 L198.6381,134.8636 L198.6381,130.8626 L198.6381,130.8626 C198.0861,130.8626 197.6381,130.4156 197.6381,129.8626"/>
      <path fill="#72767D" d="M173.6381,114.763 L173.6381,119.004 L197.4311,95.211 C197.4921,95.15 197.5671,95.116 197.6381,95.074 L197.6381,76.351 L173.8451,100.144 C173.7841,100.204 173.7091,100.24 173.6381,100.282 L173.6381,105.514 C173.6381,106.067 173.1911,106.514 172.6381,106.514 L172.6381,113.763 C173.1911,113.763 173.6381,114.21 173.6381,114.763"/>
      <path fill="#36393F" d="M147.2412,49.6985 L147.2412,104.9075 C147.2412,105.1635 147.1422,105.4105 146.9662,105.5955 L133.9662,119.2805 C133.7772,119.4795 133.5152,119.5925 133.2412,119.5925 C132.9672,119.5925 132.7052,119.4795 132.5162,119.2805 L119.5162,105.5955 C119.3402,105.4105 119.2412,105.1635 119.2412,104.9075 L119.2412,96.4695 C119.2412,95.9175 119.6892,95.4695 120.2412,95.4695 L120.2412,91.4695 C119.6892,91.4695 119.2412,91.0225 119.2412,90.4695 L119.2412,49.6985 C119.2412,49.4415 119.3402,49.1955 119.5162,49.0105 L132.5162,35.3265 C132.8942,34.9275 133.5882,34.9275 133.9662,35.3265 L146.9662,49.0105 C147.1422,49.1955 147.2412,49.4415 147.2412,49.6985 M144.8652,40.9905 L133.2412,28.7555 L115.2412,47.7025 L115.2412,106.9035 L133.2412,125.8505 L151.2412,106.9035 L151.2412,47.7025 L148.6542,44.9785 C148.2732,44.5785 148.2892,43.9455 148.6902,43.5655 L148.6902,43.5655 L146.2792,41.0265 C145.8782,41.4085 145.2462,41.3915 144.8652,40.9905"/>
      <polygon fill="#72767D" points="145.241 82.318 122.123 105.436 133.241 117.14 145.241 104.508"/>
      <polygon fill="#36393F" points="138.124 42.607 133.241 37.467 121.241 50.098 121.241 59.49"/>
      <path fill="#72767D" d="M139.5019,44.0569 L121.4479,62.1109 C121.3869,62.1709 121.3129,62.2059 121.2409,62.2479 L121.2409,69.5629 L143.0319,47.7729 L139.5019,44.0569 Z"/>
      <path fill="#4F545C" d="M121.2412 96.47L121.2412 103.49 145.0342 79.697C145.0952 79.636 145.1702 79.601 145.2412 79.559L145.2412 50.098 144.4092 49.223 121.4482 72.184C121.3872 72.245 121.3122 72.28 121.2412 72.322L121.2412 90.47C121.2412 91.023 120.7932 91.47 120.2412 91.47L120.2412 95.47C120.7932 95.47 121.2412 95.917 121.2412 96.47M45.311 118.1429L23.553 139.9019C23.336 140.1189 23.217 140.4069 23.217 140.7119 23.217 141.0189 23.336 141.3069 23.553 141.5239L28.107 146.0779C28.54 146.5109 29.296 146.5109 29.728 146.0779L55.004 120.8019C54.449 120.6269 53.935 120.3359 53.512 119.9139 52.818 119.2199 52.436 118.2949 52.436 117.3089 52.436 117.2659 52.447 117.2249 52.448 117.1819 52.405 117.1839 52.364 117.1949 52.321 117.1949 51.335 117.1949 50.41 116.8119 49.716 116.1189 48.967 115.3689 48.618 114.3729 48.652 113.3879L45.311 116.7289C45.702 117.1199 45.702 117.7519 45.311 118.1429"/>
      <path fill="#72767D" d="M86.4106,101.3001 C86.6506,96.4431 84.8166,91.6861 81.3806,88.2501 C78.1226,84.9921 73.7906,83.1971 69.1836,83.1971 C64.5766,83.1971 60.2446,84.9921 56.9876,88.2501 C53.1526,92.0851 51.5136,97.2901 52.0526,102.3041 C53.0946,102.2331 54.1656,102.5611 54.9256,103.3201 C55.6186,104.0131 56.0016,104.9381 56.0016,105.9241 C56.0016,105.9801 55.9886,106.0311 55.9856,106.0861 C56.3556,106.0731 56.7226,106.1191 57.0806,106.2111 C54.7076,101.2261 55.5696,95.0851 59.6966,90.9581 C64.9356,85.7181 73.4316,85.7181 78.6716,90.9581 C79.8686,92.1551 80.7776,93.5271 81.4276,94.9851 C81.9176,95.2321 82.3866,95.5361 82.7946,95.9451 C84.8586,98.0081 84.8586,101.3661 82.7946,103.4301 C82.5846,103.6401 82.3526,103.8151 82.1186,103.9821 C81.5256,106.1611 80.3836,108.2221 78.6716,109.9341 C74.5546,114.0521 68.4316,114.9181 63.4526,112.5661 C63.5496,112.9291 63.5936,113.3021 63.5776,113.6761 C64.5756,113.6441 65.5866,113.9801 66.3106,114.7041 C67.0046,115.3981 67.3866,116.3231 67.3866,117.3091 C67.3866,117.4021 67.3666,117.4911 67.3606,117.5831 C72.3636,118.1111 77.5536,116.4681 81.3806,112.6431 C81.7586,112.2651 82.3596,112.2611 82.7516,112.6141 C83.9636,111.2651 84.9396,109.7821 85.6786,108.2121 C85.1986,107.9881 84.9676,107.4321 85.1696,106.9361 C85.3606,106.4651 85.5346,105.9741 85.6866,105.4761 C85.8426,104.9631 86.3716,104.6781 86.8846,104.8051 C87.0846,103.9911 87.2416,103.1691 87.3276,102.3391 C86.7936,102.2941 86.3846,101.8391 86.4106,101.3001"/>
      <path fill="#4F545C" d="M78.6718,109.9339 C80.3828,108.2219 81.5258,106.1619 82.1188,103.9819 C81.2028,104.6359 80.1308,104.9779 79.0508,104.9779 C77.6958,104.9779 76.3398,104.4619 75.3078,103.4299 C73.2438,101.3669 73.2438,98.0079 75.3078,95.9449 C76.9638,94.2879 79.4428,93.9849 81.4278,94.9849 C80.7778,93.5269 79.8678,92.1559 78.6718,90.9579 C73.4318,85.7179 64.9358,85.7179 59.6958,90.9579 C55.5688,95.0849 54.7078,101.2259 57.0808,106.2109 C57.6898,106.3669 58.2638,106.6579 58.7208,107.1149 C59.4148,107.8079 59.7968,108.7329 59.7968,109.7189 C59.7968,109.7739 59.7828,109.8269 59.7808,109.8809 C60.7788,109.8479 61.7908,110.1839 62.5158,110.9099 C62.9898,111.3839 63.2918,111.9589 63.4528,112.5659 C68.4318,114.9179 74.5538,114.0519 78.6718,109.9339"/>
      <path fill="#B9BBBE" d="M81.3803 97.3587C80.7383 96.7167 79.8943 96.3957 79.0513 96.3957 78.2083 96.3957 77.3643 96.7167 76.7223 97.3587 75.4383 98.6427 75.4383 100.7317 76.7223 102.0157 78.0063 103.2987 80.0963 103.2987 81.3803 102.0157 82.6643 100.7317 82.6643 98.6427 81.3803 97.3587M53.5117 107.1146C53.8267 106.7986 54.0017 106.3756 54.0017 105.9246 54.0017 105.4716 53.8277 105.0496 53.5117 104.7336 53.1837 104.4056 52.7517 104.2416 52.3207 104.2416 51.8897 104.2416 51.4587 104.4056 51.1307 104.7336L47.3357 108.5286C47.0197 108.8436 46.8457 109.2666 46.8457 109.7186 46.8457 110.1706 47.0197 110.5936 47.3357 110.9096 47.9677 111.5426 49.0847 111.5426 49.7167 110.9096L53.5117 107.1146zM54.9252 118.4993L54.9252 118.4993C55.5572 119.1323 56.6752 119.1323 57.3062 118.4993L61.1022 114.7043C61.7582 114.0483 61.7582 112.9793 61.1022 112.3233 60.7742 111.9953 60.3422 111.8313 59.9112 111.8313 59.4802 111.8313 59.0492 111.9953 58.7202 112.3233L54.9252 116.1183C54.6102 116.4353 54.4362 116.8573 54.4362 117.3093 54.4362 117.7613 54.6102 118.1833 54.9252 118.4993M53.5117 114.7044L57.3067 110.9094C57.6227 110.5934 57.7967 110.1704 57.7967 109.7194 57.7967 109.2674 57.6227 108.8454 57.3067 108.5284 56.6747 107.8954 55.5577 107.8954 54.9257 108.5284L51.1307 112.3234C50.4747 112.9794 50.4747 114.0484 51.1307 114.7044 51.7877 115.3604 52.8557 115.3604 53.5117 114.7044M58.7207 119.9134C58.0647 120.5694 58.0647 121.6384 58.7207 122.2954 59.3777 122.9524 60.4457 122.9504 61.1027 122.2954L64.8967 118.4994C65.2127 118.1844 65.3867 117.7614 65.3867 117.3094 65.3867 116.8574 65.2127 116.4344 64.8967 116.1184 64.2647 115.4854 63.1477 115.4854 62.5157 116.1184L58.7207 119.9134z"/>
      <path fill="#1F2225" d="M232.8623 123.0169L232.8623 123.0169C231.2853 124.6769 228.6383 124.6769 227.0623 123.0169 226.3553 122.2729 225.9623 121.2879 225.9623 120.2619L225.9623 108.4649C225.9623 107.4399 226.3553 106.4549 227.0623 105.7099 228.6383 104.0499 231.2853 104.0499 232.8623 105.7099 233.5683 106.4549 233.9623 107.4399 233.9623 108.4649L233.9623 120.2619C233.9623 121.2879 233.5683 122.2729 232.8623 123.0169L232.8623 123.0169zM230.6873 100.5169C230.3093 100.1189 229.6143 100.1189 229.2373 100.5169L224.2373 105.7809C224.0603 105.9659 223.9623 106.2129 223.9623 106.4689L223.9623 122.2579C223.9623 122.5139 224.0603 122.7609 224.2373 122.9469L229.2373 128.2099C229.4253 128.4099 229.6883 128.5219 229.9623 128.5219 230.2363 128.5219 230.4983 128.4099 230.6873 128.2099L235.6873 122.9469C235.8633 122.7609 235.9623 122.5139 235.9623 122.2579L235.9623 106.4689C235.9623 106.2129 235.8633 105.9659 235.6873 105.7809L230.6873 100.5169zM50.6396 81.9026C45.6866 86.8546 42.9586 93.4406 42.9586 100.4466 42.9586 100.9996 43.4066 101.4466 43.9586 101.4466 44.5106 101.4466 44.9586 100.9996 44.9586 100.4466 44.9586 93.9746 47.4786 87.8916 52.0536 83.3166 52.4446 82.9256 52.4446 82.2936 52.0536 81.9026 51.6626 81.5116 51.0306 81.5116 50.6396 81.9026"/>
      <path fill="#1F2225" d="M106.416 124.056L104.691 125.871C103.903 126.702 102.58 126.702 101.791 125.871L100.066 124.056C99.537 123.498 99.241 122.759 99.241 121.99L99.241 104.395C99.241 103.625 99.537 102.886 100.066 102.328L101.791 100.513C102.58 99.683 103.903 99.683 104.691 100.513L106.416 102.328C106.946 102.886 107.241 103.625 107.241 104.395L107.241 121.99C107.241 122.759 106.946 123.498 106.416 124.056L106.416 124.056zM54.926 118.499L54.925 118.499C54.61 118.183 54.436 117.761 54.436 117.309 54.436 116.858 54.61 116.435 54.926 116.119L58.721 112.324C59.049 111.995 59.48 111.831 59.912 111.831 60.343 111.831 60.774 111.995 61.102 112.324 61.758 112.98 61.758 114.048 61.102 114.704L57.307 118.499C56.675 119.132 55.558 119.132 54.926 118.499L54.926 118.499zM53.512 114.704C52.855 115.361 51.788 115.361 51.13 114.704 50.475 114.048 50.475 112.98 51.13 112.324L54.926 108.529C55.558 107.896 56.674 107.896 57.307 108.529 57.623 108.845 57.796 109.267 57.796 109.719 57.796 110.17 57.623 110.593 57.307 110.91L53.512 114.704zM47.335 110.91C47.02 110.593 46.846 110.17 46.846 109.719 46.846 109.267 47.02 108.844 47.335 108.529L51.13 104.734C51.458 104.406 51.89 104.242 52.321 104.242 52.752 104.242 53.184 104.406 53.512 104.734 53.828 105.049 54.001 105.472 54.001 105.924 54.001 106.375 53.827 106.798 53.512 107.115L49.716 110.91C49.084 111.542 47.967 111.542 47.335 110.91L47.335 110.91zM64.897 116.119C65.212 116.435 65.387 116.858 65.387 117.309 65.387 117.761 65.213 118.184 64.897 118.499L61.103 122.295C60.446 122.951 59.377 122.952 58.721 122.295 58.064 121.638 58.064 120.57 58.721 119.913L62.516 116.119C63.148 115.486 64.265 115.486 64.897 116.119L64.897 116.119zM108.006 101.098C107.495 100.56 107.215 99.851 107.19 99.109 106.859 89.452 102.945 80.42 96.077 73.553 81.248 58.725 57.12 58.726 42.291 73.553 35.107 80.737 31.151 90.287 31.151 100.447 31.151 107.886 33.28 114.993 37.238 121.089 37.761 121.894 37.678 122.949 36.999 123.627L22.218 138.409C21.747 138.879 21.388 139.47 21.27 140.125 21.081 141.179 21.407 142.206 22.139 142.938L26.611 147.41C27.083 147.882 27.673 148.243 28.33 148.361 29.384 148.55 30.412 148.224 31.143 147.492L46.011 132.624C46.688 131.946 47.741 131.863 48.546 132.383 54.687 136.356 61.847 138.481 69.179 138.481 71.593 138.481 74.026 138.251 76.447 137.783 76.989 137.678 77.344 137.154 77.239 136.611 77.133 136.069 76.606 135.711 76.067 135.82 67.25 137.527 58.266 135.883 50.749 131.402 49.631 130.736 49.449 129.185 50.369 128.266L54.631 124.003C55.246 123.389 56.187 123.24 56.957 123.642 57.19 123.765 62.086 126.608 69.184 126.66 77.374 126.719 85.564 122.857 90.847 115.253 92.95 112.227 94.383 108.755 95.007 105.123 96.503 96.42 93.772 87.947 87.728 81.903 79.772 73.946 67.651 71.945 57.567 76.926 57.072 77.17 56.869 77.77 57.114 78.266 57.358 78.76 57.956 78.962 58.453 78.719 69.691 73.168 83.672 77.005 90.329 88.572 91.559 90.708 92.434 93.043 92.914 95.46 94.556 103.731 92.052 111.838 86.314 117.577 80.838 123.052 73.373 125.346 66.224 124.471 64.6 124.273 63.943 122.255 65.09 121.088L65.831 120.333C66.386 119.769 66.963 119.545 67.551 119.601 68.094 119.654 68.638 119.685 69.184 119.685 74.113 119.685 79.042 117.809 82.794 114.057 83.185 113.666 83.185 113.034 82.794 112.643 82.782 112.63 82.765 112.626 82.752 112.615 82.359 112.261 81.758 112.265 81.38 112.643 77.554 116.468 72.363 118.111 67.36 117.583 67.367 117.492 67.387 117.402 67.387 117.309 67.387 116.324 67.005 115.398 66.311 114.704 65.586 113.98 64.576 113.644 63.577 113.676 63.594 113.302 63.55 112.929 63.453 112.566 63.292 111.959 62.99 111.384 62.516 110.91 61.791 110.184 60.779 109.848 59.781 109.881 59.783 109.827 59.796 109.774 59.796 109.719 59.796 108.733 59.415 107.808 58.721 107.115 58.264 106.658 57.69 106.367 57.081 106.211 56.723 106.119 56.356 106.074 55.986 106.086 55.988 106.032 56.001 105.98 56.001 105.924 56.001 104.938 55.619 104.013 54.926 103.32 54.166 102.561 53.095 102.233 52.052 102.304 51.39 96.14 54.02 89.686 59.974 85.846 61.812 84.66 63.886 83.853 66.04 83.474 71.787 82.464 77.389 84.259 81.38 88.25 84.816 91.686 86.65 96.443 86.411 101.3 86.384 101.839 86.793 102.294 87.328 102.339 87.339 102.341 87.349 102.347 87.36 102.348 87.921 102.371 88.382 101.95 88.409 101.398 88.675 95.978 86.629 90.67 82.794 86.836 78.025 82.067 71.193 80.107 64.31 81.793 62.761 82.173 61.266 82.772 59.88 83.563 52.81 87.602 49.543 94.765 50.008 101.728 50.064 102.572 49.716 103.393 49.112 103.986L46.018 107.018C45.466 107.57 45.046 108.261 44.908 109.029 44.686 110.264 45.067 111.47 45.921 112.324 46.615 113.017 47.54 113.4 48.526 113.4 48.569 113.4 48.609 113.389 48.652 113.388 48.618 114.373 48.967 115.368 49.716 116.119 50.41 116.812 51.335 117.195 52.321 117.195 52.364 117.195 52.405 117.184 52.448 117.182 52.447 117.225 52.436 117.266 52.436 117.309 52.436 118.295 52.818 119.22 53.512 119.913 53.63 120.032 53.755 120.139 53.886 120.237 54.39 120.613 54.48 121.327 54.036 121.771L29.728 146.077C29.296 146.511 28.541 146.511 28.107 146.077L23.553 141.524C23.336 141.307 23.217 141.019 23.217 140.712 23.217 140.407 23.336 140.118 23.553 139.902L45.311 118.143C45.702 117.752 45.702 117.119 45.311 116.729 44.92 116.338 44.288 116.338 43.897 116.729L43.247 117.379C41.321 119.305 38.048 118.798 36.843 116.356 33.781 110.154 32.545 103.108 33.431 95.883 34.213 89.513 36.741 83.433 40.692 78.374 54.266 60.997 79.557 59.862 94.663 74.967 100.906 81.21 104.566 89.341 105.131 98.072L103.966 96.846C103.572 96.431 102.911 96.431 102.516 96.846L97.516 102.109C97.34 102.294 97.241 102.541 97.241 102.797L97.241 123.587C97.241 123.843 97.34 124.09 97.516 124.276L102.516 129.538C102.705 129.738 102.967 129.85 103.241 129.85 103.515 129.85 103.777 129.738 103.966 129.538L108.966 124.276C109.143 124.09 109.241 123.843 109.241 123.587L109.241 102.797C109.241 102.541 109.143 102.294 108.966 102.109L108.006 101.098zM203.6381 148.8636L186.3631 167.0486C185.9691 167.4626 185.3071 167.4626 184.9131 167.0486L167.6381 148.8636 167.6381 69.6626 184.1881 52.2416C184.9761 51.4116 186.3001 51.4116 187.0881 52.2416L203.6381 69.6626 203.6381 148.8636zM165.6381 69.2626L165.6381 85.1426C165.6381 86.5876 163.8751 87.2916 162.8801 86.2446 162.5971 85.9476 162.4401 85.5526 162.4401 85.1426L162.4401 61.5896C162.4401 61.0766 162.6371 60.5836 162.9901 60.2116L166.4401 56.5806 169.8901 60.2116C170.2431 60.5836 170.4401 61.0766 170.4401 61.5896L170.4401 63.0706C170.4401 63.5456 170.2581 64.0016 169.9311 64.3446L165.9131 68.5746C165.7371 68.7596 165.6381 69.0076 165.6381 69.2626L165.6381 69.2626zM181.9131 44.3266L184.9131 41.1686C185.3071 40.7536 185.9691 40.7536 186.3631 41.1686L189.3631 44.3266C189.5401 44.5116 189.6381 44.7586 189.6381 45.0146L189.6381 49.5166C189.6381 50.4206 188.5351 50.8606 187.9131 50.2066L186.3631 48.5746C185.9691 48.1596 185.3071 48.1596 184.9131 48.5746L183.3631 50.2066C182.7411 50.8606 181.6381 50.4206 181.6381 49.5166L181.6381 45.0146C181.6381 44.7586 181.7371 44.5116 181.9131 44.3266L181.9131 44.3266zM191.6381 52.1306L191.6381 44.2166C191.6381 43.9606 191.5401 43.7136 191.3631 43.5276L186.3631 38.2636C185.9691 37.8486 185.3071 37.8486 184.9131 38.2636L179.9131 43.5276C179.7371 43.7136 179.6381 43.9606 179.6381 44.2166L179.6381 52.1306C179.6381 53.4126 179.1461 54.6446 178.2631 55.5746L172.4401 61.7046 172.4401 60.3906C172.4401 60.1346 172.3421 59.8876 172.1651 59.7026L167.1651 54.4396C166.7711 54.0246 166.1091 54.0246 165.7151 54.4396L160.7151 59.7026C160.5381 59.8876 160.4401 60.1346 160.4401 60.3906L160.4401 86.1806C160.4401 86.4366 160.5381 86.6836 160.7151 86.8696L165.6381 92.0506 165.6381 149.2626C165.6381 149.5186 165.7371 149.7656 165.9131 149.9516L184.9131 169.9516C185.1021 170.1506 185.3641 170.2626 185.6381 170.2626 185.9121 170.2626 186.1741 170.1506 186.3631 169.9516L205.3631 149.9516C205.5401 149.7656 205.6381 149.5186 205.6381 149.2626L205.6381 69.2626C205.6381 69.0076 205.5401 68.7596 205.3631 68.5746L193.0131 55.5746C192.1301 54.6446 191.6381 53.4126 191.6381 52.1306L191.6381 52.1306z"/>
      <path fill="#1F2225" d="M198.6386,134.8636 L198.6386,134.8636 C198.0856,134.8636 197.6386,135.3106 197.6386,135.8636 L197.6386,137.2626 C197.6386,137.8156 198.0856,138.2626 198.6386,138.2626 L198.6386,138.2626 C199.1906,138.2626 199.6386,137.8156 199.6386,137.2626 L199.6386,135.8636 C199.6386,135.3106 199.1906,134.8636 198.6386,134.8636"/>
      <path fill="#1F2225" d="M193.5336 117.5989C188.1926 122.9219 179.0996 131.9969 175.3416 135.7489 174.7116 136.3779 173.6376 135.9289 173.6376 135.0379L173.6376 123.0159C173.6376 122.2169 173.9526 121.4549 174.5196 120.8919 178.8466 116.5919 197.6376 97.8319 197.6376 97.8319L197.6376 107.7039C197.6376 111.4199 196.1656 114.9769 193.5336 117.5989M197.0916 122.0579C194.4096 124.7179 182.5506 136.5539 176.7936 142.2989 175.6276 143.4629 173.6376 142.6359 173.6376 140.9889L173.6376 140.9829C173.6376 140.4889 173.8346 140.0169 174.1846 139.6689 176.8666 137.0089 188.7256 125.1729 194.4826 119.4279 195.6486 118.2639 197.6376 119.0909 197.6376 120.7389L197.6376 120.7449C197.6376 121.2389 197.4416 121.7099 197.0916 122.0579M184.9126 57.2859L171.9126 70.9699C171.7366 71.1559 171.6376 71.4029 171.6376 71.6589L171.6376 88.0139C171.6376 88.5669 172.0856 89.0139 172.6376 89.0139L172.6386 89.0139C173.1906 89.0139 173.6376 88.5669 173.6376 88.0139L173.6376 73.5909C173.6376 72.6069 174.0156 71.6609 174.6946 70.9469L182.7386 62.4799C184.3156 60.8199 186.9606 60.8199 188.5376 62.4799L196.5816 70.9469C197.2606 71.6609 197.6376 72.6069 197.6376 73.5909L197.6376 73.5919C197.5676 73.6339 197.4916 73.6689 197.4306 73.7299L175.3456 95.8159C174.7156 96.4459 173.6376 95.9989 173.6376 95.1089L173.6376 94.0129C173.6376 93.4599 173.1906 93.0129 172.6386 93.0129L172.6376 93.0129C172.0856 93.0129 171.6376 93.4599 171.6376 94.0129L171.6376 105.5139C171.6376 106.0669 172.0856 106.5139 172.6376 106.5139L172.6386 106.5139C173.1906 106.5139 173.6376 106.0669 173.6376 105.5139L173.6376 104.0259C173.6376 101.6339 174.5886 99.3419 176.2836 97.6549 181.2416 92.7159 191.8066 82.1719 195.9346 78.0509 196.5646 77.4219 197.6376 77.8709 197.6376 78.7619L197.6376 92.1989C197.6376 94.0609 196.8956 95.8469 195.5756 97.1609L176.6376 116.0049C175.5306 117.1119 173.6376 116.3279 173.6376 114.7629 173.6376 114.2099 173.1906 113.7629 172.6386 113.7629L172.6376 113.7629C172.0856 113.7629 171.6376 114.2099 171.6376 114.7629L171.6376 146.8679C171.6376 147.1229 171.7366 147.3699 171.9126 147.5559L184.9126 161.2409C185.1016 161.4399 185.3646 161.5519 185.6376 161.5519 185.9116 161.5519 186.1746 161.4399 186.3636 161.2409L199.3636 147.5559C199.5396 147.3699 199.6376 147.1229 199.6376 146.8679L199.6376 141.2629C199.6376 140.7099 199.1906 140.2629 198.6386 140.2629L198.6376 140.2629C198.0856 140.2629 197.6376 140.7099 197.6376 141.2629L197.6376 146.4679 186.3636 158.3369C185.9686 158.7509 185.3076 158.7509 184.9126 158.3369L175.8626 148.8089C175.1156 148.0229 175.1316 146.7849 175.8986 146.0179L194.2236 127.6919C195.4836 126.4319 197.6376 127.3249 197.6376 129.1059L197.6376 129.8629C197.6376 130.4149 198.0856 130.8629 198.6376 130.8629L198.6386 130.8629C199.1906 130.8629 199.6376 130.4149 199.6376 129.8629L199.6376 71.6589C199.6376 71.4029 199.5396 71.1559 199.3636 70.9699L186.3636 57.2859C185.9696 56.8709 185.3076 56.8709 184.9126 57.2859M153.2412 107.303L153.2412 47.303C153.2412 47.046 153.1422 46.8 152.9662 46.615L150.1042 43.602C149.7232 43.201 149.0922 43.185 148.6902 43.566L148.6902 43.566C148.2892 43.946 148.2732 44.578 148.6542 44.979L151.2412 47.702 151.2412 106.904 133.2412 125.851 115.2412 106.904 115.2412 47.702 133.2412 28.755 144.8652 40.99C145.2462 41.392 145.8782 41.408 146.2792 41.027L146.2792 41.027C146.6792 40.647 146.6962 40.014 146.3152 39.614L133.9662 26.615C133.5882 26.216 132.8942 26.216 132.5162 26.615L113.5162 46.615C113.3402 46.8 113.2412 47.047 113.2412 47.303L113.2412 107.303C113.2412 107.559 113.3402 107.806 113.5162 107.991L132.5162 127.991C132.7052 128.191 132.9672 128.303 133.2412 128.303 133.5152 128.303 133.7772 128.191 133.9662 127.991L152.9662 107.991C153.1422 107.806 153.2412 107.559 153.2412 107.303"/>
      <path fill="#1F2225" d="M145.2412 84.7317L145.2412 103.7097C145.2412 104.2217 145.0442 104.7147 144.6912 105.0867L134.6912 115.6137C133.9032 116.4437 132.5792 116.4437 131.7912 115.6137L122.7942 106.1427C122.4202 105.7497 122.4292 105.1297 122.8122 104.7477L143.5342 84.0247C144.1642 83.3947 145.2412 83.8407 145.2412 84.7317L145.2412 84.7317zM121.2412 63.3817L121.2412 63.3197C121.2412 62.6367 121.5112 61.9857 121.9952 61.5037 124.6652 58.8567 133.7102 49.8357 137.6462 45.9087 138.6652 44.8917 140.3182 44.9167 141.3092 45.9587L141.3132 45.9627C142.2692 46.9697 142.2492 48.5547 141.2672 49.5367L125.6112 65.1927C123.9982 66.8047 121.2412 65.6637 121.2412 63.3817L121.2412 63.3817zM121.2412 50.0977L133.2412 37.4667 136.7812 41.1937C137.5282 41.9797 137.5122 43.2177 136.7452 43.9857L124.6552 56.0757C123.3952 57.3357 121.2412 56.4427 121.2412 54.6617L121.2412 50.0977zM120.2412 95.4697C119.6892 95.4697 119.2412 95.9177 119.2412 96.4697L119.2412 104.9077C119.2412 105.1637 119.3402 105.4107 119.5162 105.5957L132.5162 119.2807C132.7052 119.4797 132.9672 119.5917 133.2412 119.5917 133.5152 119.5917 133.7772 119.4797 133.9662 119.2807L146.9662 105.5957C147.1432 105.4107 147.2412 105.1637 147.2412 104.9077L147.2412 49.6987C147.2412 49.4427 147.1432 49.1957 146.9662 49.0097L133.9662 35.3267C133.5722 34.9117 132.9102 34.9117 132.5162 35.3267L119.5162 49.0097C119.3402 49.1957 119.2412 49.4427 119.2412 49.6987L119.2412 90.4697C119.2412 91.0227 119.6892 91.4697 120.2412 91.4697 120.7932 91.4697 121.2412 91.0227 121.2412 90.4697L121.2412 82.2917C121.2412 75.9177 123.7762 69.8077 128.2892 65.3077 135.1052 58.5107 144.4092 49.2227 144.4092 49.2227L144.4102 49.2237C144.9442 49.7857 145.2412 50.5297 145.2412 51.3037L145.2412 67.0947C145.2412 75.0647 142.0722 82.7057 136.4282 88.3337 131.4732 93.2757 125.7372 99.0027 122.9442 101.7897 122.3142 102.4187 121.2412 101.9687 121.2412 101.0787L121.2412 96.4697C121.2412 95.9177 120.7932 95.4697 120.2412 95.4697L120.2412 95.4697zM81.1489 38.7435L83.1489 36.6385C83.9379 35.8075 85.2609 35.8075 86.0489 36.6385L88.0489 38.7435C88.4019 39.1155 88.5989 39.6085 88.5989 40.1215L88.5989 53.5145C88.5989 54.0265 88.4019 54.5195 88.0489 54.8915L86.0489 56.9975C85.2609 57.8275 83.9379 57.8275 83.1489 56.9975L81.1489 54.8915C80.7959 54.5195 80.5989 54.0265 80.5989 53.5145L80.5989 40.1215C80.5989 39.6085 80.7959 39.1155 81.1489 38.7435L81.1489 38.7435zM83.8739 60.6645C84.0629 60.8635 84.3249 60.9755 84.5989 60.9755 84.8729 60.9755 85.1349 60.8635 85.3239 60.6645L90.3239 55.4005C90.5009 55.2155 90.5989 54.9685 90.5989 54.7125L90.5989 38.9235C90.5989 38.6675 90.5009 38.4205 90.3239 38.2345L85.3239 32.9715C84.9459 32.5725 84.2519 32.5725 83.8739 32.9715L78.8739 38.2345C78.6979 38.4205 78.5989 38.6675 78.5989 38.9235L78.5989 54.7125C78.5989 54.9685 78.6979 55.2155 78.8739 55.4005L83.8739 60.6645zM154.6596 141.2933L152.6596 143.3983C151.8706 144.2293 150.5486 144.2293 149.7596 143.3983L147.7596 141.2933C147.4066 140.9223 147.2096 140.4293 147.2096 139.9163L147.2096 126.5223C147.2096 126.0103 147.4066 125.5173 147.7596 125.1463L149.7596 123.0403C150.5486 122.2103 151.8706 122.2103 152.6596 123.0403L154.6596 125.1463C155.0126 125.5173 155.2096 126.0103 155.2096 126.5223L155.2096 139.9163C155.2096 140.4293 155.0126 140.9223 154.6596 141.2933L154.6596 141.2933zM151.9346 119.3733C151.5566 118.9753 150.8626 118.9753 150.4846 119.3733L145.4846 124.6373C145.3076 124.8223 145.2096 125.0693 145.2096 125.3253L145.2096 141.1143C145.2096 141.3703 145.3076 141.6173 145.4846 141.8033L150.4846 147.0663C150.6736 147.2663 150.9356 147.3783 151.2096 147.3783 151.4836 147.3783 151.7456 147.2663 151.9346 147.0663L156.9346 141.8033C157.1106 141.6173 157.2096 141.3703 157.2096 141.1143L157.2096 125.3253C157.2096 125.0693 157.1106 124.8223 156.9346 124.6373L151.9346 119.3733zM152.1079 22.7991L152.1079 22.7991C150.5309 24.4581 147.8849 24.4581 146.3079 22.7991 145.6019 22.0551 145.2079 21.0691 145.2079 20.0431L145.2079 8.2471C145.2079 7.2221 145.6019 6.2361 146.3079 5.4911 147.8849 3.8321 150.5309 3.8321 152.1079 5.4911 152.8149 6.2361 153.2079 7.2221 153.2079 8.2471L153.2079 20.0431C153.2079 21.0691 152.8149 22.0551 152.1079 22.7991L152.1079 22.7991zM149.9329.2991C149.5549-.0989 148.8609-.0989 148.4829.2991L143.4829 5.5621C143.3069 5.7471 143.2079 5.9931 143.2079 6.2501L143.2079 22.0401C143.2079 22.2971 143.3069 22.5431 143.4829 22.7291L148.4829 27.9911C148.6719 28.1911 148.9339 28.3031 149.2079 28.3031 149.4819 28.3031 149.7439 28.1911 149.9329 27.9911L154.9329 22.7291C155.1089 22.5431 155.2079 22.2971 155.2079 22.0401L155.2079 6.2501C155.2079 5.9931 155.1089 5.7471 154.9329 5.5621L149.9329.2991zM89.8442 154.7005L87.2942 157.3855C86.5062 158.2155 85.1822 158.2155 84.3942 157.3855L81.8442 154.7005 81.8442 129.7105 84.3942 127.0255C85.1822 126.1955 86.5062 126.1955 87.2942 127.0255L89.8442 129.7105 89.8442 154.7005zM86.5692 123.3585C86.1912 122.9605 85.4972 122.9605 85.1192 123.3585L80.1192 128.6225C79.9432 128.8075 79.8442 129.0545 79.8442 129.3105L79.8442 155.0995C79.8442 155.3555 79.9432 155.6025 80.1192 155.7885L85.1192 161.0525C85.3082 161.2515 85.5702 161.3635 85.8442 161.3635 86.1182 161.3635 86.3802 161.2515 86.5692 161.0525L91.5692 155.7885C91.7452 155.6025 91.8442 155.3555 91.8442 155.0995L91.8442 129.3105C91.8442 129.0545 91.7452 128.8075 91.5692 128.6225L86.5692 123.3585zM86.934 104.8099C86.917 104.8049 86.901 104.8099 86.885 104.8049 86.372 104.6779 85.842 104.9629 85.686 105.4759 85.535 105.9739 85.361 106.4649 85.169 106.9359 84.968 107.4319 85.199 107.9889 85.678 108.2119 85.693 108.2199 85.703 108.2339 85.719 108.2399 85.842 108.2889 85.97 108.3129 86.095 108.3129 86.49 108.3129 86.864 108.0779 87.022 107.6899 87.236 107.1639 87.431 106.6149 87.6 106.0579 87.761 105.5299 87.462 104.9709 86.934 104.8099M81.3803 102.0159C80.0963 103.2989 78.0063 103.2989 76.7223 102.0159 75.4383 100.7319 75.4383 98.6429 76.7223 97.3589 77.3643 96.7169 78.2083 96.3959 79.0513 96.3959 79.8943 96.3959 80.7383 96.7169 81.3803 97.3589 82.6643 98.6429 82.6643 100.7319 81.3803 102.0159M75.3083 95.9449C73.2443 98.0079 73.2443 101.3669 75.3083 103.4299 76.3393 104.4619 77.6953 104.9779 79.0513 104.9779 80.1303 104.9779 81.2023 104.6359 82.1183 103.9819 82.3533 103.8149 82.5843 103.6399 82.7943 103.4299 84.8583 101.3669 84.8583 98.0079 82.7943 95.9449 82.3863 95.5369 81.9183 95.2319 81.4273 94.9849 79.4433 93.9849 76.9633 94.2879 75.3083 95.9449M63.8769 31.1624L64.3869 31.1624C64.9389 31.1624 65.3869 31.6094 65.3869 32.1624L65.3869 32.6734C65.3869 33.2254 65.8349 33.6734 66.3869 33.6734 66.9389 33.6734 67.3869 33.2254 67.3869 32.6734L67.3869 32.1624C67.3869 31.6094 67.8349 31.1624 68.3869 31.1624L68.8969 31.1624C69.4489 31.1624 69.8969 30.7154 69.8969 30.1624 69.8969 29.6094 69.4489 29.1624 68.8969 29.1624L68.3869 29.1624C67.8349 29.1624 67.3869 28.7154 67.3869 28.1624L67.3869 27.6524C67.3869 27.1004 66.9389 26.6524 66.3869 26.6524 65.8349 26.6524 65.3869 27.1004 65.3869 27.6524L65.3869 28.1624C65.3869 28.7154 64.9389 29.1624 64.3869 29.1624L63.8769 29.1624C63.3249 29.1624 62.8769 29.6094 62.8769 30.1624 62.8769 30.7154 63.3249 31.1624 63.8769 31.1624M262.5302 74.221L262.5302 74.221C261.6962 74.221 261.0202 73.545 261.0202 72.711 261.0202 72.158 260.5722 71.711 260.0202 71.711 259.4672 71.711 259.0202 72.158 259.0202 72.711 259.0202 73.545 258.3442 74.221 257.5102 74.221 256.9582 74.221 256.5102 74.668 256.5102 75.221 256.5102 75.774 256.9582 76.221 257.5102 76.221 258.3442 76.221 259.0202 76.897 259.0202 77.731 259.0202 78.283 259.4672 78.731 260.0202 78.731 260.5722 78.731 261.0202 78.283 261.0202 77.731 261.0202 76.897 261.6962 76.221 262.5302 76.221L262.5302 76.221C263.0822 76.221 263.5302 75.774 263.5302 75.221 263.5302 74.668 263.0822 74.221 262.5302 74.221M6.02 114.678L6.02 114.678C5.186 114.678 4.51 114.002 4.51 113.168L4.51 113.167C4.51 112.615 4.062 112.167 3.51 112.167 2.958 112.167 2.51 112.615 2.51 113.167L2.51 113.168C2.51 114.002 1.834 114.678 1 114.678L1 114.678C.448 114.678 0 115.125 0 115.678 0 116.231.448 116.678 1 116.678L1 116.678C1.834 116.678 2.51 117.354 2.51 118.188 2.51 118.74 2.958 119.188 3.51 119.188 4.062 119.188 4.51 118.74 4.51 118.188 4.51 117.354 5.186 116.678 6.02 116.678 6.572 116.678 7.02 116.231 7.02 115.678 7.02 115.125 6.572 114.678 6.02 114.678M46.3251 45.4515C46.5811 45.4515 46.8371 45.3535 47.0321 45.1585L48.2151 43.9745C48.6061 43.5845 48.6061 42.9515 48.2151 42.5605 47.8251 42.1705 47.1911 42.1705 46.8011 42.5605L45.6181 43.7445C45.2271 44.1355 45.2271 44.7675 45.6181 45.1585 45.8131 45.3535 46.0691 45.4515 46.3251 45.4515M40.4086 51.3675C40.6646 51.3675 40.9206 51.2695 41.1156 51.0745L42.2986 49.8905C42.6896 49.5005 42.6896 48.8675 42.2986 48.4765 41.9086 48.0865 41.2746 48.0865 40.8846 48.4765L39.7016 49.6605C39.3106 50.0515 39.3106 50.6835 39.7016 51.0745 39.8966 51.2695 40.1526 51.3675 40.4086 51.3675M46.8012 51.0745C46.9962 51.2695 47.2522 51.3675 47.5082 51.3675 47.7642 51.3675 48.0202 51.2695 48.2152 51.0745 48.6062 50.6835 48.6062 50.0515 48.2152 49.6605L47.0322 48.4765C46.6412 48.0865 46.0092 48.0865 45.6182 48.4765 45.2272 48.8675 45.2272 49.5005 45.6182 49.8905L46.8012 51.0745zM40.8847 45.1585C41.0797 45.3535 41.3357 45.4515 41.5917 45.4515 41.8477 45.4515 42.1037 45.3535 42.2987 45.1585 42.6897 44.7675 42.6897 44.1355 42.2987 43.7445L41.1157 42.5605C40.7247 42.1705 40.0927 42.1705 39.7017 42.5605 39.3107 42.9515 39.3107 43.5845 39.7017 43.9745L40.8847 45.1585zM251.8627 80.7718L250.6797 81.9558C250.2887 82.3458 250.2887 82.9788 250.6797 83.3698 250.8747 83.5648 251.1307 83.6628 251.3867 83.6628 251.6427 83.6628 251.8987 83.5648 252.0937 83.3698L253.2767 82.1858C253.6677 81.7948 253.6677 81.1628 253.2767 80.7718 252.8857 80.3808 252.2527 80.3808 251.8627 80.7718M245.9467 86.6878L244.7627 87.8718C244.3727 88.2618 244.3727 88.8948 244.7627 89.2858 244.9587 89.4808 245.2147 89.5788 245.4697 89.5788 245.7257 89.5788 245.9817 89.4808 246.1767 89.2858L247.3607 88.1018C247.7517 87.7108 247.7517 87.0788 247.3607 86.6878 246.9697 86.2968 246.3377 86.2968 245.9467 86.6878M252.0937 86.6878C251.7027 86.2968 251.0707 86.2968 250.6797 86.6878 250.2887 87.0788 250.2887 87.7108 250.6797 88.1018L251.8627 89.2858C252.0577 89.4808 252.3137 89.5788 252.5697 89.5788 252.8257 89.5788 253.0817 89.4808 253.2767 89.2858 253.6677 88.8948 253.6677 88.2618 253.2767 87.8718L252.0937 86.6878zM246.1772 80.7718C245.7862 80.3808 245.1542 80.3808 244.7632 80.7718 244.3722 81.1628 244.3722 81.7948 244.7632 82.1858L245.9472 83.3698C246.1422 83.5648 246.3982 83.6628 246.6542 83.6628 246.9092 83.6628 247.1652 83.5648 247.3612 83.3698 247.7512 82.9788 247.7512 82.3458 247.3612 81.9558L246.1772 80.7718zM239.6538 137.3734C238.8208 137.3734 238.1438 136.6954 238.1438 135.8634 238.1438 135.0314 238.8208 134.3534 239.6538 134.3534 240.4868 134.3534 241.1638 135.0314 241.1638 135.8634 241.1638 136.6954 240.4868 137.3734 239.6538 137.3734M239.6538 132.3534C237.7178 132.3534 236.1438 133.9284 236.1438 135.8634 236.1438 137.7994 237.7178 139.3734 239.6538 139.3734 241.5888 139.3734 243.1638 137.7994 243.1638 135.8634 243.1638 133.9284 241.5888 132.3534 239.6538 132.3534"/>
      <path fill="#4F545C" d="M89.8442,154.7005 L87.2942,157.3855 C86.5062,158.2155 85.1822,158.2155 84.3942,157.3855 L81.8442,154.7005 L81.8442,129.7105 L84.3942,127.0255 C85.1822,126.1955 86.5062,126.1955 87.2942,127.0255 L89.8442,129.7105 L89.8442,154.7005 Z"/>
      <path fill="#72767D" d="M165.6381,69.263 L165.6381,85.143 C165.6381,86.587 163.8751,87.291 162.8801,86.244 C162.5971,85.948 162.4401,85.553 162.4401,85.143 L162.4401,61.589 C162.4401,61.076 162.6371,60.583 162.9901,60.211 L166.4401,56.58 L169.8901,60.211 C170.2431,60.583 170.4401,61.076 170.4401,61.589 L170.4401,63.071 C170.4401,63.545 170.2581,64.001 169.9311,64.345 L165.9131,68.575 C165.7371,68.76 165.6381,69.007 165.6381,69.263"/>
      <path fill="#4F545C" d="M232.8623,123.0169 L232.8623,123.0169 C231.2853,124.6769 228.6383,124.6769 227.0623,123.0169 C226.3553,122.2729 225.9623,121.2879 225.9623,120.2619 L225.9623,108.4649 C225.9623,107.4399 226.3553,106.4549 227.0623,105.7099 C228.6383,104.0499 231.2853,104.0499 232.8623,105.7099 C233.5683,106.4549 233.9623,107.4399 233.9623,108.4649 L233.9623,120.2619 C233.9623,121.2879 233.5683,122.2729 232.8623,123.0169"/>
      <path fill="#72767D" d="M81.1489,38.7435 L83.1489,36.6385 C83.9379,35.8075 85.2609,35.8075 86.0489,36.6385 L88.0489,38.7435 C88.4019,39.1155 88.5989,39.6085 88.5989,40.1215 L88.5989,53.5145 C88.5989,54.0265 88.4019,54.5195 88.0489,54.8915 L86.0489,56.9975 C85.2609,57.8275 83.9379,57.8275 83.1489,56.9975 L81.1489,54.8915 C80.7959,54.5195 80.5989,54.0265 80.5989,53.5145 L80.5989,40.1215 C80.5989,39.6085 80.7959,39.1155 81.1489,38.7435"/>
    </g>
    <rect width="292" height="182" y="1"/>
  </g>
</svg>
