<svg fill="none" height="237" viewBox="0 0 297 237" width="297" xmlns="http://www.w3.org/2000/svg" xmlns:xlink="http://www.w3.org/1999/xlink"><clipPath id="a"><path d="m0 0h297v236.7h-297z"/></clipPath><g clip-path="url(#a)"><path d="m251.6 164.4h-5.2c-9.2-.1-16.6-7.5-16.6-16.7-.1-9.1-7.5-16.5-16.6-16.5h-35.4c-6.3 0-11.4 5.1-11.4 11.4s-5.1 11.4-11.4 11.4h-27.8c-15.9 0-28.7 12.8-28.7 28.7v2.1c0 11.1-9 20.1-20.1 20.1h-8c-13.8 0-26.8 6.8-34.7 18.1l-9.5 13.6h262.8c4.4 0 8-3.6 8-8v-18.9c0-25-20.3-45.3-45.4-45.3z" fill="#547df0" opacity=".21"/><path d="m215.4 213.7-7 .9-.2 22.1h13.8z" fill="#ff78b9"/><path d="m271.2 236.7h-86.7c0-7.6 6.5-13.7 14.6-13.7h15.8c1.4 0 2.5-1 2.5-2.4 0-9.2 7.9-16.7 17.7-16.7h.7c9.8 0 17.7 7.5 17.7 16.7v5c.1 2.7 2.4 4.8 5.1 4.8h5.8c3.6-.2 6.7 2.7 6.8 6.3z" fill="#fff" fill-opacity=".4"/><path d="m202 38.2998h64c-.1-6.4-5.3-11.6-11.8-11.6h-6.8c-1.1 0-2-.9-2-2-.1-7.8-6.5-14.1-14.3-14.1h-.6c-7.8-.1-14.2 6.2-14.3 14.1v4.2c0 2.2-1.9 4-4.1 4h-4.7c-2.9 0-5.3 2.4-5.4 5.4z" fill="#fff" fill-opacity=".2"/><path d="m33.5 157c0-4.7-3.4-8.6-7.6-8.6h-7.9c-4.2 0-7.6 3.8-7.6 8.6 0 .9-.6 1.7-1.5 1.7h-2.4c-3.6 0-6.5 3.3-6.5 7.3h44c0-3.2-2.3-5.9-5.2-5.9h-2.4c-1.7 0-3-1.4-2.9-3.1z" fill="#fff" fill-opacity=".2"/><path d="m133.9 227.7c0-4.7-3.4-8.6-7.6-8.6h-7.9c-4.2 0-7.6 3.8-7.6 8.6 0 .9-.6 1.7-1.5 1.7h-2.4c-3.6 0-6.5 3.3-6.5 7.3h44c0-3.2-2.3-5.9-5.2-5.9h-2.4c-1.7 0-3-1.4-2.9-3.1z" fill="#fff" fill-opacity=".2"/><path d="m128 17.1997h-44c.1-4 3.4-7.1 7.4-7h8c.7 0 1.3-.49997 1.3-1.19997.1-4.8 4.2-8.599997 9-8.499997h.4c4.8-.2 8.8 3.599997 9 8.499997v2.49997c0 1.4 1.2 2.5 2.6 2.4h2.9c1.8-.1 3.3 1.3 3.4 3.3 0-.1 0-.1 0 0z" fill="#fff" fill-opacity=".2"/><g clip-rule="evenodd" fill-rule="evenodd"><path d="m196.8 49.2996 107.3-39.2-18 35.2c-3.5 6.9-9.5 12.2-16.7 14.8l-85.4 31.3-3-8.1z" fill="#dae2ed"/><path d="m172.2 45.6998 142.6-52.10004c.6-.2 1.2.1 1.4.6.1.3.1.6 0 .8l-5.5 11.1c-.6 1.3-1.7 2.2-3 2.7l-3.5 1.30004-107.4 39.2-15.8 34 2.9 8.1 2.2 6.1-35.9 13.1002-5.2-14.2002 21-45.1c1.3-2.6 3.5-4.6 6.2-5.6z" fill="#eceff6"/><path d="m181.1 83.2996 15.8-34 107.3-39.2-3.6 7.1-99.9 36.5-14.6 31.5 1.8 4.8-3.8 1.3z" fill="#c5cedd"/><path d="m141 80.3999c-16.2 34.3001-1.6 75.2001 32.7 91.5001s75.2 1.6 91.5-32.7 1.6-75.2001-32.7-91.5001c-34.4-16-75.2-1.4-91.5 32.7z" fill="#4f5d7f"/><path d="m162.7 90.7996c-10.5 22.3004-1 48.9004 21.3 59.4004s48.9 1 59.4-21.3 1-48.9004-21.3-59.4004c-22.2-10.4-48.7-.9-59.4 21.3z" fill="#7687b2"/><path d="m157.2 55.4999c-.1 10.5 27.5 36.2 45.6 50.4001 16.7.1 58.1-1.6 67.8-11.1001.9-.8 1.5-1.9 1.6-3.1 0-.4-.1-.8-.2-1.2-5.8-20.7-19.4-37-38.2-45.9-23.7-11.3-51.9-8.1-75.5 8.5-.7.5-1.1 1.4-1.1 2.4z" fill="#ff7f14"/><path d="m201.6 109.4s66-39.6003 59.3-47.8003c-6.9-8.5-15.7-15.4-25.6-20.1-26.7-12.7-56.2-7.2-78.9 8.8-16 11.3 45.2 59.1003 45.2 59.1003z" fill="#ff903e"/><path d="m168.9 93.6998c-8.9 18.9002-.9 41.4002 18 50.3002s41.4.9 50.3-18 .9-41.4002-18-50.3002c-18.9-8.8-41.3-.8-50.3 18z" fill="#ebeff7"/><path d="m174.4 96.3c-7.5 15.9-.7 34.8 15.1 42.3s34.8.7 42.3-15.1.7-34.8-15.1-42.3c-15.9-7.5-34.8-.7-42.3 15.1z" fill="#dae2ed"/><path d="m222 96.3999-17.2-10.3c-1.1-.6-2.4-.6-3.4 0l-17.5 9.8c-1.1.6-1.8 1.8-1.8 3l-.2 20.1001c0 1.2.6 2.4 1.7 3l17.2 10.3c1.1.6 2.4.6 3.4 0l17.5-9.9c1.1-.6 1.8-1.8 1.8-3l.2-20.1001c0-1.1-.7-2.3-1.7-2.9z" fill="#c5cedd"/><path d="m193.1 105.2c-2.6 5.5-.2 12 5.3 14.6s12 .2 14.6-5.3.2-12-5.2-14.6001c-5.5-2.5-12.1-.2-14.7 5.3001z" fill="#b7c2ce"/><path d="m117.4 174.8h6c1.5 0 2.8 1.2 2.8 2.8v12.5c-.1 3.4 2.5 6.3 6 6.5s6.3-2.5 6.5-6c0-.2 0-.3 0-.5v-52.6c0-3.8-3-7-6.9-7 0 0 0 0-.1 0h-21.2c-3.8 0-6.9 3.1-6.9 6.9v.1 23.4c-.1 7.7 6.1 13.9 13.8 13.9zm-14.4-66.5h12v13.2h-11.8c.1-4.3.1-8.8-.2-13.2z" fill="#7196ff"/><path d="m107.3 137.1h50.6c.6 0 1.1-.5 1.1-1.1s-.5-1.1-1.1-1.1h-50.6c-.6 0-1.1-.5-1.1-1.1v-8.1c0-.6-.5-1.1-1.1-1.1s-1.1.5-1.1 1.1v8.1c.1 1.8 1.5 3.3 3.3 3.3z" fill="#e4e9f7"/><path d="m101.4 130.6h7.5c.6 0 1.1-.5 1.1-1.1v-23.2c0-.6-.5-1.1-1.1-1.1h-7.5c-.6 0-1.1.5-1.1 1.1v23.2c0 .6.4 1.1 1.1 1.1-.1 0-.1 0 0 0z" fill="#000"/><path d="m103.1 108.3h-4.4c-.6 0-1.1.5-1.1 1.1v11.1c0 .6.5 1.1 1.1 1.1h4.1c3.3 0 6.1-2.3 6.7-5.5.6-3.6-1.8-7-5.4-7.7-.3 0-.7-.1-1-.1z" fill="#7196ff"/><path d="m126.1 130.6h7.5c.6 0 1.1-.5 1.1-1.1v-23.2c0-.6-.5-1.1-1.1-1.1h-7.5c-.6 0-1.1.5-1.1 1.1v23.2c0 .6.5 1.1 1.1 1.1z" fill="#000"/><path d="m109.4 113.4c5.7-7.8 14.8-12.5 24.5-12.5h41c10 .1 18.1 8.2 18.1 18.3v33.6c0 6.7-5.4 12.2-12.1 12.2h-59.1c-10.1-.1-18.2-8.2-18.2-18.3v-15.3c-.1-6.5 2-12.8 5.8-18z" fill="#aec7ff"/><path d="m162.5 100.9h12.3c10.1.1 18.2 8.2 18.2 18.3v29.2c0 6.7-5.4 12.2-12.1 12.2h-18.5c.3-19.8.3-39.8.1-59.7zm39 43.5 12.8 3.8c4.9 1.4 7.7 6.4 6.3 11.3s-6.4 7.7-11.3 6.3c-3.1-.9-5.5-3.2-6.3-6.3l-3.8-12.8c-.3-.9.2-2 1.1-2.3.4-.1.8-.1 1.2 0z" fill="#7196ff"/><path d="m171.8 174.8h6c1.5 0 2.8 1.2 2.8 2.8v12.5c-.1 3.4 2.5 6.3 6 6.5 3.4.1 6.3-2.5 6.5-6 0-.2 0-.3 0-.5v-62.4c0-3.8-3.1-7-6.9-7h-21.2c-3.8 0-6.9 3.2-6.9 7v33.2c-.2 7.7 6 13.9 13.7 13.9z" fill="#7196ff"/><path d="m132.1 137.1h50.6c.6 0 1.1-.5 1.1-1.1s-.5-1.1-1.1-1.1h-50.6c-.6 0-1.1-.5-1.1-1.1v-8.1c.1-.6-.4-1.1-1-1.2s-1.1.4-1.2 1v.2 8.1c0 1.8 1.5 3.2 3.3 3.3z" fill="#e4e9f7"/><path d="m126.1 130.6h7.5c.6 0 1.1-.5 1.1-1.1v-23.2c0-.6-.5-1.1-1.1-1.1h-7.5c-.6 0-1.1.5-1.1 1.1v23.2c0 .6.5 1.1 1.1 1.1z" fill="#000"/><path d="m125.8 108.3h24.7c4.1 0 7.4-3.3 7.4-7.4h15.5v32.2h-15.4c-1.4-8.1-8.5-11.6-17-11.6h-15c-3.3 0-6.1-2.3-6.7-5.5-.6-3.6 1.8-7 5.4-7.7.3.1.7 0 1.1 0z" fill="#7196ff"/><path d="m182.6 101.3h-56.4c-10.1 0-18.3-8.2003-18.3-18.3003v-34c.1-10.1 8.2-18.3 18.3-18.3h56.4c10.1 0 18.2 8.2 18.3 18.3v34c-.1 10.1-8.2 18.3003-18.3 18.3003z" fill="#80a7ff"/><path d="m170.7 101.3h-56.4c-10.1 0-18.3-8.2004-18.3-18.4004v-34c.1-10.1 8.2-18.2 18.3-18.3h56.4c10.1 0 18.3 8.2 18.3 18.3v34c0 10.2-8.2 18.4004-18.3 18.4004z" fill="#9cb8ff"/><path d="m195.4 78.7998h-13.5v-33h13.5c6.7 0 12.2 5.5 12.2 12.2v8.6c0 6.7-5.5 12.2-12.2 12.2z" fill="#9cb8ff"/><path d="m181.9 71.3999v-18.3c0-.7.5-1.2 1.2-1.2h12.2c3.4 0 6.1 2.7 6.1 6.1v8.6c0 3.4-2.7 6.1-6.1 6.1h-12.2c-.6 0-1.2-.6-1.2-1.3z" fill="#80a7ff"/><path d="m160.7 68.0996c-3.3 0-6-2.7-6-6s2.7-6 6-6 6 2.7 6 6-2.7 6-6 6z" fill="#000"/><path d="m95.5 49h41.5c4 0 7.3 3.3 7.3 7.3v8.6c0 10.1-8.2 18.3-18.3 18.4h-19.5c-10.1 0-18.3-8.2-18.3-18.3v-8.6c0-4.1 3.3-7.4 7.3-7.4z" fill="#b8d0ff"/><path d="m117.5 83.2996h-11c-10.1 0-18.3-8.2-18.3-18.3v-8.6c0-4 3.3-7.3 7.3-7.3h32.9c4 0 7.3 3.3 7.3 7.3v8.6c0 10-8.1 18.2-18.2 18.3z" fill="#cbdaf7"/><path d="m112.6 69.3999h7.9c1.7.1 3 1.5 2.9 3.2-.1 1.6-1.3 2.8-2.9 2.9h-7.9c-1.7-.1-3-1.5-2.9-3.2.1-1.6 1.3-2.8 2.9-2.9zm-14.4 0h3c1.7.1 3 1.5 2.9 3.2-.1 1.6-1.3 2.8-2.9 2.9h-3c-1.7-.1-3-1.5-2.9-3.2.1-1.6 1.4-2.8 2.9-2.9z" fill="#9cb8ff"/><path d="m115.9 90.5h-4.9c-1.1 0-2-.9-2-2s.9-2 2-2h4.9c1.1 0 2 .9 2 2s-.9 2-2 2z" fill="#80a7ff"/><path d="m92.3 38.0996s-17.6 26.3 1.3 56.6l10.7 6.2004 69-3.0004 16.8-22.4-16.8-44.9h-59z" fill="#4871e5" opacity=".4"/><path d="m147.3 13.2998c40.2 0 62.4 27.2 62.4 49.7s-26.3 24.5-32.5 8.6l-13-34.5-57.4 7.5-14.4-6.5c5.3-8.8 25.1-24.8 54.9-24.8z" fill="#ebeff7"/><path d="m181.5 75.5-36.4 19.2h-51.5l5 8.4h83.9l7.3-16.6z" fill="#ebeff7"/><path d="m189.9 49.1 10.8 3.4 4.7-19.1c.6-2.4-.9-4.8-3.3-5.3-2.1-.5-4.3.6-5.1 2.6z" fill="#dae2ed"/><path d="m203.7 40.1998-3 12.4-10.8-3.4 4.6-11.9c3 1 6.1 2 9.2 2.9z" fill="#b7c2ce"/><path d="m183.5 139.7 42 9.7 3.6-16-42-9.7z" fill="#b7c2ce"/><path d="m218.4 152.2 52.7 18.1c1 .4 2.1.2 3-.5 2.2-1.7 6.3-5.9 8.5-15.7s.4-15.4-.9-17.8c-.5-.9-1.4-1.6-2.5-1.7l-55.3-6.8c-1.1-.1-2.1.6-2.4 1.7l-4.5 20.2c-.2 1.1.4 2.1 1.4 2.5z" fill="#c5cedd"/><path d="m233 137.1c-.3 1.4.6 2.8 1.9 3.1 1.4.3 2.8-.6 3.1-1.9.3-1.4-.6-2.8-1.9-3.1-1.4-.4-2.8.5-3.1 1.9zm12.2 1.7c-.3 1.4.6 2.8 1.9 3.1 1.4.3 2.8-.6 3.1-1.9.3-1.4-.6-2.8-1.9-3.1-1.4-.4-2.8.5-3.1 1.9-.1 0-.1 0 0 0z" fill="#b7c2ce"/><path d="m184 137 33.8 26.3 10-12.9-33.8-26.4z" fill="#d0d9ea"/><path d="m210.3 162.8 40.3 38.7c.8.7 1.8 1.1 2.9.8 2.7-.6 8.2-2.7 14.3-10.6s6.8-13.8 6.7-16.5c0-1.1-.6-2-1.5-2.6l-47.3-29.5c-.9-.6-2.2-.4-2.8.5l-12.6 16.4c-.9.8-.8 2.1 0 2.8z" fill="#ebeff7"/><path d="m229.9 155.3c-.9 1.1-.7 2.7.5 3.6 1.1.9 2.7.7 3.6-.4s.7-2.7-.4-3.6c-1.3-.9-2.9-.7-3.7.4zm9.7 8c-.9 1.1-.7 2.7.5 3.6 1.1.9 2.7.7 3.6-.5s.7-2.7-.5-3.6c-1.2-.8-2.8-.6-3.6.5z" fill="#b7c2ce"/><path d="m173.7 69.5996c1.5 12.4 11.2 21.5 21.7 20.2s17.7-12.4 16.1-24.9-11.2-21.4-21.6-20.2-17.7 12.5-16.2 24.9z" fill="#dae2ed"/><path d="m181.6 68.8997c1.1 8.8 8 15.3 15.4 14.4s12.6-8.8 11.5-17.7-8-15.3-15.4-14.3-12.6 8.8-11.5 17.6z" fill="#b7c2ce"/><path d="m185.9 68.4997c.8 6.3 5.7 10.9 11 10.3s9-6.3 8.2-12.7-5.7-10.9-11-10.3-9 6.3-8.2 12.7z" fill="#ff903e"/><path d="m197.6 73.0998 1.2-.5c.3-.1.5-.5.4-.9l-4.2-10.6c-.1-.3-.5-.5-.9-.4l-1.2.5c-.3.1-.5.5-.4.9l4.2 10.5c.2.4.6.6.9.5z" fill="#ff7f14"/><path d="m183.4 147.4h13.9v-46.5h-19.3v41.1c0 3 2.4 5.4 5.4 5.4z" fill="#000"/><path d="m243.1 49.2996 107.3-39.2-18 35.2c-3.5 6.9-9.5 12.2-16.7 14.8l-85.4 31.2-3-8.1z" fill="#dae2ed"/><path d="m218.5 45.6998 142.5-52.10004c.6-.2 1.2.1 1.4.6.1.3.1.6 0 .8l-5.5 11.1c-.6 1.3-1.7 2.2-3 2.7l-3.5 1.30004-107.3 39.2-15.8 34 3 8.1 2.2 6.1-35.9 13.1002-5.2-14.2002 21-45.1c1.2-2.6 3.4-4.6 6.1-5.6z" fill="#eceff6"/><path d="m227.4 83.2996 15.8-34 107.3-39.2-3.6 7.1-99.9 36.5-14.6 31.5 1.8 4.8-3.8 1.4z" fill="#c5cedd"/><path d="m351.2 5.79953c1.1-.4 1.7-1.6 1.3-2.8-.4-1.1-1.6-1.7-2.8-1.3-1.1.4-1.7 1.6-1.3 2.8s1.6 1.7 2.8 1.3zm-8.6 3.2c1.1-.4 1.7-1.6 1.3-2.8-.4-1.1-1.6-1.7-2.8-1.3s-1.7 1.6-1.3 2.8c.4 1.1 1.6 1.7 2.8 1.3zm-122.5 44.69997c1-.6 1.4-1.9.8-2.9-.5-.8-1.4-1.2-2.3-1.1-1.1.4-1.7 1.7-1.3 2.8.5 1.1 1.7 1.6 2.8 1.2z" fill="#dae2ed"/><path d="m186 110.9h22.3c1.9 0 3.4-1.6 3.4-3.4v-12.0004c0-1.9-1.5-3.4-3.4-3.4h-22.3c-1.9 0-3.4 1.6-3.4 3.4v12.0004c0 1.9 1.5 3.4 3.4 3.4z" fill="#ff5c5c"/><path d="m177.9 117h17.5c4.8 0 8.6-3.9 8.6-8.6v-13.7c0-4.8-3.9-8.6-8.6-8.7h-17.5c-1.8 0-3.2 1.5-3.2 3.2v24.5c-.1 1.8 1.3 3.2 3.2 3.3-.1 0-.1 0 0 0z" fill="#d0d9ea"/><path d="m128.1 10 1 6.6c-5.4 4.4-10.2 9.5-14.1 15.2l-6-13.7c4.8-3.5 11.4-5.5 19.1-8.1z" fill="#ff7f14"/><path d="m115 31.7996-6-13.7-5.1 13.7z" fill="#ff903e"/></g><path d="m212.1 215.7c-7.2 1-11.2-.2-14.3-2.8-.3-.3-.4-.7-.1-1.1.1-.2.3-.3.5-.3l26.3-3.5c.4-.1.8.2.8.6 0 .2 0 .4-.1.5-2.3 3.4-5.9 5.6-13.1 6.6z" fill="#fff"/><path d="m209.6 197c1.9-.3 3.7 1.1 4 3l.7 5.5-7 .9-.7-5.5c-.3-1.9 1.1-3.6 3-3.9z" fill="#83ddc5"/><path d="m210 200.3c.8-.1 1.5.5 1.6 1.2l.2 1.2c.1.8-.4 1.5-1.2 1.6s-1.5-.5-1.6-1.2l-.2-1.2c-.1-.8.5-1.5 1.2-1.6z" fill="#4f5d7f"/><path d="m210.5 203.7c-10 1.4-15 4.4-18.2 9-.4.4-.3 1 .1 1.4.3.2.6.3.9.2l36.7-5c.6 0 1-.5 1-1 0-.3-.2-.7-.5-.8-4.4-3.6-10-5.2-20-3.8z" fill="#ebeff7"/><path d="m196.7 212.5c.387 0 .7-.314.7-.7 0-.387-.313-.7-.7-.7s-.7.313-.7.7c0 .386.313.7.7.7z" fill="#ffd836"/><path d="m201 211.9c.387 0 .7-.313.7-.7s-.313-.7-.7-.7-.7.313-.7.7.313.7.7.7z" fill="#aec7ff"/><path d="m224.5 208.7c.387 0 .7-.314.7-.7 0-.387-.313-.7-.7-.7s-.7.313-.7.7c0 .386.313.7.7.7z" fill="#f47fff"/><path d="m211.3 222.3c.4-.7 1.3-.9 2-.4l.4.3c.7.4.9 1.3.4 2-.4.7-1.3.9-2 .4l-.4-.3c-.7-.5-.9-1.4-.4-2z" fill="#4762b0" opacity=".45"/></g></svg>