<svg height="200" viewBox="0 0 260 200" width="260" xmlns="http://www.w3.org/2000/svg" xmlns:xlink="http://www.w3.org/1999/xlink"><mask id="a" fill="#fff"><path d="m.747 176h132.991v-175.091h-132.991z" fill="#fff" fill-rule="evenodd"/></mask><g fill="none" fill-rule="evenodd" transform="translate(3 5)"><path d="m104.9632.0002h26.547c17.557 0 31.79 14.233 31.79 31.79v.006c0 17.558 14.232 31.79 31.79 31.79h2.143c31.143 0 56.389 25.247 56.389 56.391v.001c0 31.144-25.246 56.391-56.389 56.391h-163.383c-18.695 0-33.85-15.156-33.85-33.851v-.001c0-18.695 15.155-33.85 33.85-33.85h3.113c18.777 0 34-15.223 34-34v-40.667c0-18.778 15.222-34 34-34" fill="#f7f7f8" fill-opacity=".9"/><path d="m90.756 22.335v131l-12.861 4.334v-125.83z" fill="#fff"/><g transform="translate(34 14.927)"><path d="m44.7464 42.6553c0-6.608 4.66-12.292 11.01-13.674v5.976c-4.781.906-8.758 3.928-11.01 8.009zm0 78.2016c0-6.607 4.66-12.291 11.01-13.675v5.978c-4.781.905-8.758 3.927-11.01 8.008z" fill="#dcddde"/><path d="m163.7376 25.8584c-6.921-.493-12.457-6.028-12.949-12.949h11.949c.551 0 1 .448 1 1zm0 92.0698v11.95c0 .552-.449 1-1 1h-11.949c.492-6.922 6.028-12.457 12.949-12.95" fill="#f7f7f8"/><path d="m97.43 173.8882c-.341.173-.729.146-1.039-.076l-5.022-3.59c-3.826-2.734-8.967-2.733-12.793 0l-5.022 3.59c-.311.222-.699.249-1.039.076-.34-.175-.543-.508-.543-.89v-20.112h26v20.112c0 .382-.202.715-.542.89m76.3076-36.0098c0 1.654-1.346 3-3 3h-114.982c-4.63 0-8.704 2.432-11.009 6.085v-.085c0-7.72 6.28-14 14-14h103.991c1.654 0 3-1.346 3-3v-115.969c0-1.655-1.346-3-3-3h-103.991c-6.021 0-11.27 3.345-14 8.271v-2.271c0-7.72 6.28-14 14-14h111.991c1.654 0 3 1.345 3 3z" fill="#dcddde"/><path d="m57.7561 81.4082c0-.553-.447-1-1-1-.552 0-1 .447-1 1v2.25c0 .553.448 1 1 1 .553 0 1-.447 1-1z" fill="#b9bbbe"/><path d="m71.972 172.9985c0 .382.203.715.543.89.34.172.728.146 1.039-.077l5.022-3.589c3.826-2.734 8.967-2.735 12.793 0l5.022 3.589c.31.223.698.249 1.039.077.34-.175.542-.508.542-.89v-20.112h-26z" fill="#f7f7f8"/><path d="m121.7327 150.8862h-106.977c-.551 0-1 .447-1 1s.449 1 1 1h11.214c1.106 0 2.002.896 2.002 2.002 0 1.105-.896 2.003-2.002 2.003h-5c-.552 0-1 .447-1 1s.448 1 1 1h7.002v2.007c0 2.209-1.79 4-4 4h-9.893c-5.796 0-10.84-4.346-11.297-10.123-.509-6.436 4.61-9.896 10.973-9.896h111.972c.556 0 1.006.45 1.006 1.007 0 2.761-2.238 5-5 5zm-65.761 22.112c0 .382-.202.715-.542.89-.341.173-.728.146-1.039-.076l-5.021-3.59c-3.826-2.735-8.968-2.735-12.794 0l-5.022 3.59c-.311.222-.699.249-1.039.076-.34-.175-.543-.508-.543-.89v-16.111c0-1.105.896-2 2-2h22c1.105 0 2 .895 2 2zm-53.225-44.134c0-4.84 2.5-9.184 6.332-11.706 2.006-1.32 4.677.094 4.677 2.496v2.216c0 .553.449 1 1 1 .553 0 1-.447 1-1v-32.962c0-.553-.447-1-1-1-.551 0-1 .447-1 1v13.906c0 1.276-.784 2.455-1.996 2.853-3.884 1.277-7.084 3.996-9.013 7.493v-62.499c0-4.839 2.5-9.183 6.332-11.704 2.006-1.32 4.677.094 4.677 2.495v34.206c0 .553.449 1 1 1 .553 0 1-.447 1-1v-53.741c0-.553-.447-1-1-1-.551 0-1 .447-1 1v2.696c0 1.275-.784 2.455-1.996 2.853-3.884 1.276-7.084 3.996-9.013 7.493v-8.05c0-7.732 6.267-14 14-14h87.442c1.408 0 2.628.979 2.923 2.356 1.272 5.935 5.843 10.652 11.697 12.136 1.624.411 2.929 2.208 2.929 3.884v81.217c0 1.675-1.305 3.472-2.929 3.884-5.854 1.484-10.425 6.2-11.697 12.136-.295 1.376-1.515 2.356-2.923 2.356h-87.442c-4.086 0-7.817 1.54-10.646 4.07-1.301 1.164-3.354.279-3.354-1.464zm0-8.007c0-5.107 2.783-9.661 6.979-12.106 1.785-1.04 4.03.262 4.03 2.328 0 1.192-.795 2.206-1.928 2.573-3.916 1.266-7.14 3.998-9.081 7.515zm0-78.202c0-5.107 2.783-9.662 6.979-12.106 1.786-1.04 4.03.262 4.03 2.329 0 1.191-.795 2.205-1.928 2.572-3.915 1.267-7.14 3.998-9.081 7.516zm106.935 84.207c1.42-3.685 4.355-6.621 8.04-8.039 1.938-.748 4.016.748 4.016 2.825v8.23c0 .552-.448 1-1 1h-8.23c-2.077 0-3.572-2.078-2.826-4.016zm8.04-101.898c-3.685-1.419-6.62-4.354-8.04-8.039-.746-1.938.749-4.016 2.826-4.016h8.23c.552 0 1 .448 1 1v8.23c0 2.077-2.078 3.572-4.016 2.825zm-114.975-8.055c0-7.732 6.267-14 14-14h111.991c1.657 0 3 1.343 3 3v131.969c0 1.656-1.343 3-3 3h-114.983c-3.148 0-6.039 1.124-8.292 2.992-.794.66-1.942-.165-1.566-1.128 1.556-3.988 5.091-9.426 12.85-9.864h103.991c1.657 0 3-1.344 3-3v-115.969c0-1.657-1.343-3-3-3h-103.991c-5.225 0-9.869 2.52-12.79 6.406-.39.518-1.21.241-1.21-.406zm125.99 128.881c.001-.494.364-.899.851-.983 2.357-.403 4.15-2.456 4.15-4.928v-133.97c0-2.761-2.238-5-5-5h-111.991c-8.837 0-16 7.164-16 16v136.979c0 7.185 5.824 13.01 13.009 13.01h14.216v5.982c0 .894.337 1.782 1.012 2.367 1.093.948 2.618.988 3.733.192l5.022-3.59c3.13-2.238 7.337-2.238 10.468 0l5.021 3.59c.521.372 1.13.561 1.743.561.686 0 1.377-.237 1.952-.719.701-.588 1.049-1.499 1.049-2.415v-5.968h69.765c2.762 0 5-2.24 5-5v-12.624c0-.553-.447-1-1-1-.552 0-1 .447-1 1v12.624c0 1.656-1.343 3-3 3h-65.765c-2.209 0-4-1.791-4-4v-5.012c0-1.657 1.344-3 3-3h60.761c1.566 0 3.013-.519 4.18-1.392.34-.254.82-.029.82.397 0 2.761-2.238 5-5 5h-59.491c-.552 0-1 .447-1 1s.448 1 1 1h59.491c3.866 0 7-3.135 7-7z" fill="#b9bbbe" mask="url(#a)" transform="translate(42)"/><path d="m116.3792 72.5879c-1.578 0-2.857-1.372-2.857-3.065 0-1.692 1.279-3.064 2.857-3.064 1.581 0 2.86 1.372 2.86 3.064 0 1.693-1.279 3.065-2.86 3.065m-10.178 0c-1.581 0-2.86-1.372-2.86-3.065 0-1.692 1.279-3.064 2.86-3.064 1.578 0 2.858 1.372 2.858 3.064 0 1.693-1.28 3.065-2.858 3.065m9.65-16.458-.392.445c4.765 1.433 6.959 3.52 6.959 3.52-2.904-1.574-5.762-2.362-8.414-2.659-2.025-.225-3.932-.165-5.648.05-.159.02-.313.044-.469.066-.978.094-3.34.445-6.339 1.751-1.058.447-1.658.792-1.658.792s2.293-2.206 7.332-3.639l-.288-.326s-3.812-.095-7.834 2.907c0 0-4.02 7.224-4.02 16.135 0 0 2.359 4.035 8.528 4.222 0 0 1.021-1.23 1.863-2.288-3.552-1.042-4.894-3.254-4.894-3.254s.273.188.771.472c.04.024.08.046.122.069.081.046.168.092.26.142.722.396 1.411.71 2.051.953 1.127.452 2.511.898 4.099 1.191 2.105.388 4.565.508 7.238.015 1.309-.239 2.665-.625 4.059-1.199.979-.371 2.067-.893 3.222-1.643 0 0-1.382 2.276-5.05 3.296.835 1.049 1.83 2.246 1.83 2.246 6.169-.187 8.526-4.222 8.526-4.222 0-8.911-4.02-16.135-4.02-16.135-4.022-3.002-7.834-2.907-7.834-2.907" fill="#b9bbbe"/><path d="m116.3792 66.4585c-1.578 0-2.857 1.372-2.857 3.064 0 1.693 1.279 3.065 2.857 3.065 1.581 0 2.86-1.372 2.86-3.065 0-1.692-1.279-3.064-2.86-3.064m-10.1778 0c-1.581 0-2.86 1.372-2.86 3.064 0 1.693 1.279 3.065 2.86 3.065 1.578 0 2.857-1.372 2.857-3.065 0-1.692-1.279-3.064-2.857-3.064" fill="#dcddde"/><path d="m119.179 79.394s-.995-1.197-1.83-2.246c3.668-1.02 5.05-3.296 5.05-3.296-1.155.75-2.242 1.272-3.222 1.643-1.394.574-2.75.96-4.059 1.199-2.672.493-5.132.373-7.238-.015-1.588-.293-2.972-.739-4.098-1.191-.641-.243-1.33-.557-2.052-.953-.092-.05-.179-.097-.26-.142-.042-.023-.082-.045-.122-.069-.498-.284-.771-.472-.771-.472s1.342 2.212 4.894 3.253c-.842 1.059-1.863 2.289-1.863 2.289-6.169-.187-8.528-4.222-8.528-4.222 0-8.911 4.02-16.135 4.02-16.135 4.022-3.002 7.834-2.907 7.834-2.907l.288.326c-5.039 1.433-7.332 3.639-7.332 3.639s.601-.345 1.658-.792c2.999-1.306 5.361-1.658 6.339-1.751.156-.022.311-.046.469-.066 1.717-.216 3.623-.276 5.648-.05 2.653.296 5.51 1.084 8.414 2.659 0 0-2.194-2.087-6.959-3.52l.392-.445s3.812-.095 7.834 2.907c0 0 4.02 7.224 4.02 16.135 0 0-2.357 4.035-8.526 4.222m10.782-36.167h-37.435c-3.158 0-5.716 2.558-5.716 5.715v37.435c0 .592.091 1.163.258 1.7.11.358.257.701.432 1.025.176.324.382.628.616.911 1.047 1.27 2.634 2.079 4.41 2.079h31.675l-1.481-5.113 3.567 3.29 3.369 3.104 6.021 5.229v-12.225-2.779-34.656c0-3.157-2.559-5.715-5.716-5.715" fill="#dcddde"/><path d="m135.677 83.5981v2.779 12.224l-6.021-5.228-3.369-3.105-3.567-3.289 1.481 5.113h-31.675c-1.776 0-3.363-.809-4.411-2.079-.233-.283-.439-.587-.615-.912-.176-.323-.322-.666-.432-1.024-.167-.537-.258-1.108-.258-1.7v-37.435c0-3.157 2.558-5.715 5.716-5.715h37.435c3.157 0 5.716 2.558 5.716 5.715zm-5.716-42.371h-37.435c-4.254 0-7.716 3.461-7.716 7.715v37.435c0 4.254 3.462 7.715 7.716 7.715h31.675c.629 0 1.221-.295 1.599-.798.116-.155.208-.324.274-.502l2.226 2.051c.015.014.029.027.044.04l6.021 5.229c.372.321.839.489 1.312.489.281 0 .563-.059.829-.18.713-.325 1.171-1.036 1.171-1.82v-12.224-2.779-34.656c0-4.254-3.462-7.715-7.716-7.715zm-123.868 74.6513c-.834 0-1.51-.677-1.51-1.51 0-.553-.448-1-1-1-.553 0-1 .447-1 1 0 .833-.676 1.51-1.51 1.51-.552 0-1 .447-1 1s.448 1 1 1c.834 0 1.51.676 1.51 1.51 0 .552.447 1 1 1 .552 0 1-.448 1-1 0-.834.676-1.51 1.51-1.51.553 0 1-.447 1-1s-.447-1-1-1m4.4063-42.3096c.256 0 .512-.098.707-.293l1.184-1.183c.39-.389.39-1.023.001-1.414-.391-.39-1.025-.39-1.415 0l-1.184 1.183c-.391.39-.391 1.023 0 1.414.195.195.451.293.707.293m-5.916 5.917c.256 0 .513-.098.707-.293l1.184-1.184c.39-.39.39-1.023 0-1.414-.391-.39-1.025-.39-1.414 0l-1.184 1.184c-.391.391-.391 1.023 0 1.414.195.195.451.293.707.293m6.623-2.8906c-.391-.391-1.023-.391-1.414 0s-.391 1.023 0 1.414l1.184 1.184c.195.195.451.293.707.293.255 0 .511-.098.707-.293.39-.391.39-1.024 0-1.414zm-6.1465-3.3193c.195.195.451.293.707.293s.512-.098.707-.293c.391-.391.391-1.023 0-1.414l-1.184-1.183c-.39-.39-1.024-.39-1.414 0-.39.391-.39 1.024 0 1.414zm190.6094-69.2349c.256 0 .512-.098.707-.293l1.184-1.183c.39-.389.39-1.023 0-1.414-.391-.39-1.024-.39-1.414 0l-1.184 1.183c-.391.39-.391 1.023-.001 1.414.195.195.452.293.708.293m-5.916 5.917c.256 0 .512-.098.707-.293l1.183-1.184c.39-.39.39-1.023 0-1.414-.391-.39-1.025-.39-1.414 0l-1.183 1.184c-.391.391-.391 1.023 0 1.414.195.195.451.293.707.293m6.6231-2.8906c-.391-.391-1.023-.391-1.414 0s-.391 1.023 0 1.414l1.184 1.184c.195.195.451.293.707.293.255 0 .511-.098.707-.293.39-.391.39-1.024 0-1.414zm-6.1475-3.3194c.195.195.451.293.707.293s.513-.098.707-.293c.391-.391.391-1.023 0-1.414l-1.183-1.183c-.39-.39-1.024-.39-1.414 0-.39.391-.39 1.024 0 1.414zm13.4463 20.6001c.832 0 1.51.678 1.51 1.51 0 .833-.678 1.511-1.51 1.511-.833 0-1.511-.678-1.511-1.511 0-.832.678-1.51 1.511-1.51m0 5.021c1.935 0 3.51-1.576 3.51-3.511 0-1.936-1.575-3.51-3.51-3.51-1.936 0-3.511 1.574-3.511 3.51 0 1.935 1.575 3.511 3.511 3.511" fill="#b9bbbe"/></g></g></svg>