<svg fill="none" height="24" viewBox="0 0 24 24" width="24" xmlns="http://www.w3.org/2000/svg"><path clip-rule="evenodd" d="m18.6781 9.45696c-1.7721.04754-3.4075.64374-4.7423 1.62484l-4.61354-4.61354c-.61661-.60428-.61661-1.8375 0-2.45411l2.19014-2.19015c.3744-.37438.8819-.58503 1.4114-.58579l3.4957-.00499 1.2332-1.23322 3.0831 3.08306-1.2333 1.23323-.01 3.50353c-.0015.52845-.2121 1.03484-.5857 1.40851zm-5.8593 2.60874c-1.4055 1.4771-2.279 3.4651-2.3135 5.6567l-1.28196 1.282c-.37437.3744-.88192.585-1.41136.5858l-3.49569.005-1.23323 1.2332-3.08306-3.0831 1.23322-1.2332.00999-3.5035c.0015-.5285.2121-1.0349.58577-1.4085l2.18517-2.1852c.61661-.61662 1.84983-.61662 2.45411 0l.00617.00616 1.84983-1.84983 1.23323 1.23322-1.84984 1.84985 2.46645 2.4664 1.8498-1.8498z" fill="#fff" fill-rule="evenodd" opacity=".6"/></svg>