<svg width="180" height="87" viewBox="0 0 180 87" fill="none" xmlns="http://www.w3.org/2000/svg">
<path d="M45.648 22.1039C43.488 13.8239 33.768 13.8959 30.528 19.0079C26.784 16.1279 13.824 15.9839 15.192 25.7759H56.304C54.072 21.5999 50.04 21.2399 45.648 22.1039Z" fill="white"/>
<path d="M78.408 63.7921C76.968 54.6481 67.464 47.6641 55.872 47.6641C46.512 47.6641 38.52 52.2721 34.992 58.8961C33.2764 58.0211 31.3737 57.5763 29.448 57.6001C26.2919 57.5957 23.2546 58.8035 20.9634 60.9741C18.6722 63.1447 17.3021 66.1123 17.136 69.2641C7.344 69.9121 0 72.7201 0 75.9601H94.248C94.824 69.7681 85.968 64.8001 78.408 63.7921Z" fill="white"/>
<g style="mix-blend-mode:multiply">
<g style="mix-blend-mode:multiply">
<path d="M71.136 52.1999C71.9481 53.3594 72.3762 54.7444 72.36 56.1599V56.3759C72.3821 56.5007 72.3564 56.6292 72.288 56.7359V57.0959C72.2392 57.184 72.2144 57.2832 72.216 57.3839C72.2193 57.4229 72.2146 57.4622 72.2022 57.4993C72.1899 57.5364 72.17 57.5707 72.144 57.5999V57.8159C72.1179 57.8451 72.0981 57.8793 72.0857 57.9165C72.0734 57.9536 72.0687 57.9929 72.072 58.0319C72.0232 58.12 71.9984 58.2193 72 58.3199V58.4639L71.856 58.8239C71.856 58.8959 71.784 58.8959 71.784 58.9679C71.784 59.0399 71.712 59.1839 71.64 59.2559C71.568 59.3279 71.64 59.3999 71.568 59.3999L71.424 59.7599C71.424 59.8319 71.352 59.8319 71.352 59.9039L71.208 60.1199V60.2639H71.136L70.848 60.6239L70.56 60.9839V61.1279L70.272 61.4879H70.128L69.768 61.9199L69.408 62.3519H69.264L68.904 62.7839H68.4L70.272 66.0959C70.5689 66.5708 70.8104 67.0781 70.992 67.6079H71.064C71.0607 67.6469 71.0654 67.6862 71.0777 67.7233C71.0901 67.7604 71.1099 67.7947 71.136 67.8239C71.208 67.9679 71.208 68.1839 71.28 68.3279C71.3111 68.4464 71.3351 68.5666 71.352 68.6879C71.4095 68.853 71.4576 69.0213 71.496 69.1919V69.4079C71.5524 69.6679 71.5766 69.9339 71.568 70.1999V70.4159C71.6253 70.5004 71.6508 70.6024 71.64 70.7039V71.0639C71.6433 71.1029 71.6386 71.1422 71.6262 71.1793C71.6139 71.2164 71.594 71.2507 71.568 71.2799V71.9999C71.5419 72.0291 71.5221 72.0633 71.5097 72.1005C71.4974 72.1376 71.4927 72.1769 71.496 72.2159V72.4319C71.424 72.6479 71.424 72.8639 71.352 73.0799C71.1999 73.6779 70.9826 74.2574 70.704 74.8079C70.409 75.3334 70.0459 75.8176 69.624 76.2479L68.904 76.8959L67.752 77.6159C67.3233 77.8351 66.8609 77.9811 66.384 78.0479L58.392 79.9919L50.4 82.9439H50.256C49.08 83.1602 47.8689 83.086 46.728 82.7279C46.1544 82.5671 45.6168 82.2983 45.144 81.9359C44.6177 81.5857 44.1344 81.1749 43.704 80.7119C43.0496 80.5008 42.4893 80.0679 42.12 79.4879H41.616L40.68 79.2719H40.608L39.672 78.9119H39.6L39.168 78.6959H39.024L38.88 78.5519H38.664L38.304 78.2639H38.16L37.872 77.9759H37.8C36.8775 77.1291 36.1418 76.0992 35.64 74.9519L35.424 74.3039C35.352 74.0879 35.352 73.9439 35.28 73.7279C35.217 73.4934 35.1927 73.2502 35.208 73.0079V72.3599V72.1439C35.2782 70.8299 35.6476 69.5494 36.288 68.3999L36.432 68.1839L36.576 67.9679L36.72 67.8239L36.864 67.6079C37.484 66.83 38.2403 66.1713 39.096 65.6639C37.6289 65.4412 36.2572 64.7996 35.146 63.8161C34.0348 62.8326 33.2313 61.5491 32.832 60.1199L32.616 59.2559L31.968 58.8239C30.6024 57.9 29.6077 56.5227 29.16 54.9359L28.584 52.8479C28.0659 51.0101 28.299 49.0418 29.232 47.3759L29.016 46.5119C28.7176 45.532 28.6276 44.5005 28.7516 43.4837C28.8756 42.467 29.2109 41.4874 29.736 40.6079C30.2224 39.721 30.8803 38.9397 31.6713 38.3093C32.4624 37.6789 33.3709 37.212 34.344 36.9359L38.88 35.7119C38.923 35.2851 39.0451 34.87 39.24 34.4879C39.3708 34.0195 39.6078 33.5876 39.9324 33.2255C40.257 32.8634 40.6606 32.5809 41.112 32.3999L49.896 29.9519H50.184C50.7493 29.8151 51.342 29.8443 51.8911 30.0358C52.4402 30.2274 52.9224 30.5732 53.28 31.0319L56.88 30.0239L57.384 29.8799C59.3078 29.4765 61.3129 29.8166 62.9961 30.8319C64.6792 31.8471 65.9154 33.4621 66.456 35.3519L66.672 36.2879C67.5045 36.7266 68.2398 37.329 68.8337 38.059C69.4276 38.789 69.8678 39.6315 70.128 40.5359V40.8959C70.128 40.9679 70.128 40.9679 70.2 40.9679L70.632 42.6239C71.1501 44.4617 70.917 46.43 69.984 48.0959L70.2 49.0319C70.4419 49.824 70.5394 50.6532 70.488 51.4799C70.7441 51.6805 70.9633 51.9242 71.136 52.1999Z" fill="#C7CCD1"/>
</g>
</g>
<path d="M70.416 51.1202C71.227 52.2531 71.6558 53.615 71.64 55.0082V55.2242C71.6512 55.3486 71.6262 55.4736 71.568 55.5842V55.9442C71.496 56.0162 71.496 56.0882 71.496 56.2322V56.5922C71.4387 56.6767 71.4132 56.7787 71.424 56.8802C71.3979 56.9094 71.3781 56.9436 71.3658 56.9808C71.3534 57.0179 71.3487 57.0572 71.352 57.0962V57.2402L71.208 57.6002C71.2035 57.6557 71.1777 57.7073 71.136 57.7442C71.1164 57.8519 71.0664 57.9518 70.992 58.0322V58.1762C70.992 58.2321 70.979 58.2872 70.954 58.3372C70.929 58.3872 70.8927 58.4307 70.848 58.4642H70.56L70.416 58.6802H70.344V58.8242H70.272L70.056 59.1842H69.984L69.768 59.5442V59.6882C69.624 59.7602 69.552 59.9042 69.408 60.0482H69.336L68.976 60.4802C68.832 60.6242 68.688 60.6962 68.616 60.8402H68.544L68.112 61.2002H67.824L69.696 64.4402C69.9552 64.8996 70.172 65.3816 70.344 65.8802V66.9602V67.1042C70.4163 67.2643 70.4649 67.4341 70.488 67.6082L70.632 67.9682C70.6259 68.1391 70.6503 68.3098 70.704 68.4722C70.704 68.6162 70.704 68.6882 70.776 68.7602C70.7642 69.0262 70.7884 69.2927 70.848 69.5522V69.8402V70.7762C70.848 70.9202 70.776 70.9922 70.776 71.1362V71.3522V71.5682C70.75 71.5974 70.7301 71.6316 70.7178 71.6688C70.7054 71.7059 70.7007 71.7452 70.704 71.7842C70.704 72.0002 70.632 72.2162 70.632 72.3602C70.4918 72.9618 70.274 73.5427 69.984 74.0882C69.689 74.6137 69.3259 75.0979 68.904 75.5282L68.184 76.1042L67.032 76.8242C66.6542 77.0426 66.2392 77.1891 65.808 77.2562L58.032 79.2002L50.256 81.1442H50.04C48.9213 81.4195 47.7473 81.3695 46.656 81.0002L45.072 80.2082C44.583 79.8387 44.1254 79.4293 43.704 78.9842C43.0703 78.7694 42.5341 78.3353 42.192 77.7602H41.688C41.364 77.757 41.0446 77.6833 40.752 77.5442H40.68L39.816 77.1842H39.672L39.312 76.9682H39.168L38.952 76.8242H38.808C38.6597 76.7702 38.5332 76.6691 38.448 76.5362H38.304C38.232 76.4642 38.088 76.3922 38.016 76.2482H37.944C37.0058 75.46 36.2867 74.4433 35.856 73.2962L35.64 72.6482C35.568 72.5042 35.568 72.2882 35.496 72.0722C35.496 71.8562 35.424 71.6402 35.424 71.3522V70.7042V70.4882C35.4842 69.2179 35.855 67.9818 36.504 66.8882L36.648 66.6722C36.648 66.6002 36.72 66.6002 36.792 66.5282L36.936 66.3842C36.936 66.3122 37.008 66.2402 37.08 66.1682C37.6781 65.4161 38.4105 64.7814 39.24 64.2962C37.7187 64.0577 36.3079 63.3559 35.1998 62.2865C34.0918 61.2171 33.3404 59.8321 33.048 58.3202L32.832 57.4562L32.256 57.0962C30.9082 56.1859 29.9162 54.8378 29.448 53.2802L28.872 51.1922C28.6276 50.3133 28.5655 49.3937 28.6893 48.4899C28.8131 47.586 29.1203 46.717 29.592 45.9362L29.304 45.0002C28.8084 43.0825 29.0705 41.0475 30.0359 39.318C31.0012 37.5884 32.5956 36.2971 34.488 35.7122L38.952 34.4882C38.9601 34.0778 39.085 33.6782 39.312 33.3362C39.7188 32.6106 40.389 32.0692 41.184 31.8242L49.752 29.4482H50.04C50.6015 29.3249 51.1867 29.3683 51.7239 29.5729C52.2611 29.7776 52.7269 30.1346 53.064 30.6002L56.592 29.5202L57.024 29.3762C58.8994 28.9918 60.8507 29.3261 62.4911 30.313C64.1315 31.2999 65.3411 32.8673 65.88 34.7042L66.096 35.6402C66.9154 36.0683 67.6383 36.6596 68.2203 37.3779C68.8023 38.0961 69.231 38.9259 69.48 39.8162V40.1762L69.984 41.7602C70.226 42.6514 70.2869 43.582 70.1633 44.4971C70.0396 45.4122 69.7338 46.2932 69.264 47.0882L69.552 47.9522C69.7542 48.7277 69.8511 49.5269 69.84 50.3282C70.0806 50.5532 70.2761 50.822 70.416 51.1202Z" fill="#F8F9F9"/>
<path d="M63.648 62.5677C63.2891 62.6526 62.9131 62.6295 62.5672 62.5014C62.2214 62.3733 61.921 62.1459 61.704 61.8477C61.4171 61.4342 61.3018 60.9254 61.3824 60.4286C61.4629 59.9317 61.7331 59.4855 62.136 59.1837C65.376 56.8077 65.952 55.0077 65.592 54.5037C65.3125 54.0815 65.2088 53.5669 65.3029 53.0694C65.397 52.5719 65.6816 52.1307 66.096 51.8397C66.5069 51.5641 67.0103 51.4624 67.496 51.5569C67.9817 51.6513 68.4103 51.9342 68.688 52.3437C69.624 53.6397 71.064 57.2397 64.368 62.2077C64.1695 62.3972 63.9187 62.5227 63.648 62.5677Z" fill="#4086EA"/>
<path d="M69.48 54.9363C68.904 50.9763 64.656 51.6243 58.824 52.7763V52.9923C58.9043 53.232 59.0324 53.453 59.2004 53.6418C59.3685 53.8307 59.5731 53.9836 59.8019 54.0912C60.0306 54.1989 60.2788 54.2591 60.5315 54.2682C60.7842 54.2773 61.0361 54.2352 61.272 54.1443C62.136 53.8563 64.728 53.2803 65.592 54.5043C66.456 55.7283 65.376 56.8083 62.136 59.1843C61.7331 59.486 61.4629 59.9322 61.3824 60.4291C61.3018 60.9259 61.4171 61.4347 61.704 61.8483C61.921 62.1464 62.2214 62.3738 62.5672 62.5019C62.9131 62.63 63.2891 62.6531 63.648 62.5683C63.9187 62.5232 64.1695 62.3978 64.368 62.2083C68.4 59.2563 69.48 56.7363 69.48 54.9363Z" fill="#0654B5"/>
<path d="M40.032 73.3677C39.5936 73.467 39.1342 73.4052 38.7376 73.1937C38.341 72.9822 38.0338 72.6351 37.872 72.2157C37.3823 70.9323 37.4 69.5105 37.9217 68.2398C38.4434 66.969 39.4298 65.9448 40.68 65.3757L45.936 62.9277C46.1629 62.8237 46.4081 62.7654 46.6576 62.7562C46.907 62.7469 47.1558 62.7869 47.3899 62.8738C47.6239 62.9607 47.8385 63.0929 48.0214 63.2628C48.2043 63.4326 48.352 63.6368 48.456 63.8637C48.56 64.0907 48.6183 64.3359 48.6276 64.5853C48.6368 64.8348 48.5968 65.0836 48.5099 65.3176C48.423 65.5516 48.2908 65.7662 48.121 65.9491C47.9511 66.132 47.7469 66.2797 47.52 66.3837L42.264 68.7597C41.8823 68.9337 41.5809 69.2459 41.4205 69.6335C41.2602 70.021 41.2528 70.455 41.4 70.8477C41.5676 71.3165 41.5491 71.8317 41.3482 72.2871C41.1472 72.7426 40.7792 73.1036 40.32 73.2957L40.032 73.3677Z" fill="#4086EA"/>
<path d="M44.28 65.8801C42.336 66.6721 40.968 68.0401 41.256 70.3441C41.2535 70.011 41.3473 69.6843 41.5261 69.4033C41.705 69.1223 41.9612 68.8989 42.264 68.7601L46.368 66.8881C45.864 66.0961 45.144 65.5201 44.28 65.8801Z" fill="#0654B5"/>
<path d="M63.864 59.5441C63.534 59.0067 63.0443 58.586 62.4634 58.3407C61.8824 58.0954 61.2393 58.0379 60.624 58.1761L46.08 61.7041C45.482 61.8579 44.9492 62.1999 44.5603 62.6796C44.1713 63.1592 43.9469 63.7512 43.92 64.3681L43.56 72.2881C43.4947 74.2236 44.1343 76.1169 45.36 77.6161C45.891 78.2341 46.581 78.695 47.3552 78.9488C48.1293 79.2027 48.9582 79.2398 49.752 79.0561L65.376 75.2401C66.1585 75.0433 66.8729 74.6381 67.4435 74.0676C68.014 73.497 68.4192 72.7826 68.616 72.0001C69.0189 70.0853 68.7119 68.0893 67.752 66.3841L63.864 59.5441Z" fill="#FF7259"/>
<path d="M45.36 77.6162C45.891 78.2342 46.5809 78.695 47.3551 78.9489C48.1293 79.2027 48.9582 79.2398 49.752 79.0562L65.376 75.2402C66.1585 75.0433 66.8729 74.6381 67.4434 74.0676C68.0139 73.4971 68.4192 72.7826 68.616 72.0002C68.9193 70.5611 68.8197 69.0662 68.328 67.6802L43.632 73.6562C43.8105 75.1162 44.4111 76.4924 45.36 77.6162Z" fill="#ED4C4C"/>
<path d="M66.24 71.5682L47.232 76.1762C46.2865 76.4416 45.283 76.4165 44.352 76.1042C44.64 76.6082 45 77.1122 45.36 77.6162C45.891 78.2342 46.5809 78.695 47.3551 78.9489C48.1293 79.2027 48.9582 79.2398 49.752 79.0562L65.376 75.2402C66.1584 75.0433 66.8729 74.6381 67.4434 74.0676C68.0139 73.4971 68.4192 72.7826 68.616 72.0002C68.6968 71.4033 68.7449 70.8024 68.76 70.2002C68.0702 70.8906 67.1947 71.3658 66.24 71.5682Z" fill="#ED4C4C"/>
<path d="M57.166 31.5614L35.1242 37.757C32.2531 38.564 30.5799 41.5457 31.3869 44.4168L35.1277 57.725C35.9347 60.5961 38.9164 62.2694 41.7875 61.4623L63.8293 55.2667C66.7003 54.4596 68.3736 51.478 67.5665 48.6069L63.8258 35.2986C63.0187 32.4276 60.0371 30.7543 57.166 31.5614Z" fill="#FF7259"/>
<path d="M66.888 46.2959L67.536 48.5999C67.7332 49.2854 67.7927 50.0032 67.7109 50.7118C67.6292 51.4204 67.4079 52.1057 67.0597 52.7283C66.7116 53.3509 66.2436 53.8984 65.6827 54.3391C65.1219 54.7797 64.4792 55.105 63.792 55.2959L41.76 61.4879C41.0792 61.6843 40.3661 61.7429 39.6624 61.6603C38.9587 61.5777 38.2785 61.3556 37.6617 61.0069C37.0449 60.6583 36.5038 60.1901 36.0701 59.6299C35.6364 59.0696 35.3189 58.4284 35.136 57.7439L34.488 55.4399C34.6709 56.1244 34.9884 56.7656 35.4221 57.3259C35.8558 57.8861 36.3969 58.3543 37.0137 58.7029C37.6305 59.0516 38.3107 59.2737 39.0144 59.3563C39.7181 59.4389 40.4312 59.3802 41.112 59.1839L63.216 52.9919C63.8968 52.7933 64.5317 52.4626 65.0847 52.0187C65.6377 51.5747 66.0978 51.0262 66.4388 50.4044C66.7797 49.7826 66.9949 49.0998 67.072 48.3948C67.1491 47.6899 67.0865 46.9767 66.888 46.2959Z" fill="#ED4C4C"/>
<path d="M49.2223 55.4377L54.2129 54.0349C54.507 53.9523 54.8219 53.9898 55.0884 54.1393C55.3548 54.2889 55.5509 54.5381 55.6336 54.8322L56.3545 57.3968L49.2152 59.4036L48.4943 56.839C48.4143 56.5566 48.4451 56.2544 48.5804 55.994C48.7157 55.7336 48.9453 55.5346 49.2223 55.4377Z" fill="#FFDC53"/>
<path d="M55.6867 55.0733L48.5474 57.0801L49.1942 59.3813L56.3335 57.3745L55.6867 55.0733Z" fill="#F9B300"/>
<path d="M67.032 46.7279L64.368 37.1519C65.0913 37.416 65.7421 37.8471 66.2676 38.4101C66.793 38.9731 67.1782 39.652 67.392 40.3919L67.968 42.4079C68.18 43.1493 68.2054 43.9317 68.0421 44.6853C67.8788 45.439 67.5318 46.1406 67.032 46.7279Z" fill="#FFDC53"/>
<path d="M67.536 40.8242L67.968 42.4082C68.1799 43.1497 68.2054 43.932 68.0421 44.6857C67.8788 45.4394 67.5318 46.141 67.032 46.7282L66.168 43.7042C67.248 42.8402 67.752 41.7602 67.536 40.8242Z" fill="#F9B300"/>
<path d="M34.56 55.8719L31.896 46.2959C31.3961 46.8831 31.0491 47.5848 30.8858 48.3384C30.7225 49.0921 30.748 49.8744 30.96 50.6159L31.536 52.6319C31.7497 53.3717 32.1349 54.0507 32.6604 54.6137C33.1858 55.1766 33.8366 55.6077 34.56 55.8719Z" fill="#FFDC53"/>
<path d="M33.696 52.8483L34.56 55.8723C33.8367 55.6081 33.1858 55.1771 32.6604 54.6141C32.135 54.0511 31.7497 53.3722 31.536 52.6323L31.104 51.0483C31.32 51.9843 32.328 52.6323 33.696 52.8483Z" fill="#F9B300"/>
<path d="M41.7727 33.9728L50.3676 31.5569C50.6066 31.4897 50.8624 31.5202 51.0789 31.6417C51.2954 31.7632 51.4548 31.9657 51.5219 32.2047L51.7752 33.1057L41.3781 36.0282L41.1249 35.1272C41.0577 34.8882 41.0882 34.6323 41.2097 34.4158C41.3312 34.1993 41.5337 34.04 41.7727 33.9728Z" fill="#70A9FA"/>
<path d="M43.1032 33.5387L50.4505 31.4734C50.671 31.4114 50.9072 31.4396 51.1071 31.5517C51.3069 31.6639 51.454 31.8508 51.516 32.0714L51.7888 33.0418L42.778 35.5746L42.5052 34.6042C42.4432 34.3836 42.4714 34.1474 42.5835 33.9476C42.6957 33.7478 42.8826 33.6007 43.1032 33.5387Z" fill="#4086EA"/>
<path d="M57.4387 35.8459L38.5853 41.1454C37.1307 41.5543 36.2829 43.065 36.6918 44.5197L38.9811 52.664C39.39 54.1187 40.9007 54.9665 42.3553 54.5576L61.2087 49.2582C62.6634 48.8493 63.5112 47.3386 63.1023 45.8839L60.813 37.7395C60.4041 36.2848 58.8934 35.437 57.4387 35.8459Z" fill="#ED4C4C"/>
<path d="M57.2882 35.3303L38.4349 40.6298C36.9802 41.0386 36.1324 42.5494 36.5413 44.004L38.8306 52.1484C39.2395 53.6031 40.7502 54.4509 42.2049 54.042L61.0582 48.7425C62.5129 48.3336 63.3607 46.8229 62.9518 45.3682L60.6625 37.2239C60.2536 35.7692 58.7429 34.9214 57.2882 35.3303Z" fill="black"/>
<path d="M44.4371 44.2818L40.4862 45.3924C40.2565 45.4569 40.12 45.6862 40.1814 45.9044C40.2427 46.1226 40.4786 46.2471 40.7083 46.1826L44.6592 45.072C44.8889 45.0074 45.0254 44.7782 44.964 44.56C44.9027 44.3418 44.6668 44.2173 44.4371 44.2818Z" fill="#FFF0A6"/>
<path d="M54.1618 42.3659L58.39 41.1774C58.6197 41.1129 58.7561 40.8837 58.6948 40.6655C58.6335 40.4473 58.3975 40.3227 58.1679 40.3873L53.9397 41.5757C53.71 41.6403 53.5736 41.8695 53.6349 42.0877C53.6962 42.3059 53.9321 42.4305 54.1618 42.3659Z" fill="#FFF0A6"/>
<path d="M57.024 59.04L49.752 60.84L49.968 66.096C49.9763 66.2166 50.0098 66.334 50.0664 66.4407C50.1229 66.5475 50.2012 66.6412 50.2962 66.7159C50.3911 66.7905 50.5007 66.8444 50.6178 66.874C50.7349 66.9037 50.857 66.9085 50.976 66.888L58.68 65.016C58.7981 64.987 58.9079 64.9311 59.0009 64.8528C59.0939 64.7745 59.1676 64.6758 59.2163 64.5644C59.2651 64.453 59.2875 64.3319 59.2819 64.2105C59.2763 64.089 59.2428 63.9705 59.184 63.864L57.024 59.04Z" fill="#FFDC53"/>
<path d="M49.032 47.16C49.5442 46.3065 50.3191 45.6419 51.2406 45.2655C52.1621 44.8891 53.1807 44.8212 54.144 45.072" stroke="#FFF0A6" stroke-width="0.917356" stroke-linecap="round" stroke-linejoin="round"/>
<path d="M46.224 76.248C46.0206 76.2765 45.8141 76.2249 45.648 76.104L43.92 74.304C43.8525 74.1937 43.824 74.0639 43.8393 73.9354C43.8545 73.807 43.9125 73.6874 44.004 73.596C44.0954 73.5045 44.215 73.4465 44.3434 73.4313C44.4719 73.416 44.6017 73.4445 44.712 73.512L46.512 75.312C46.6133 75.419 46.6697 75.5607 46.6697 75.708C46.6697 75.8553 46.6133 75.997 46.512 76.104L46.224 76.248Z" fill="#22262E"/>
<path d="M44.64 76.9678H44.568C44.4079 76.9688 44.2532 76.9105 44.1335 76.8042C44.0138 76.6978 43.9378 76.5509 43.92 76.3918L43.776 73.9438C43.7749 73.8027 43.8256 73.6662 43.9185 73.56C44.0114 73.4538 44.14 73.3854 44.28 73.3678C44.3558 73.3577 44.4327 73.3628 44.5065 73.3828C44.5802 73.4028 44.6493 73.4372 44.7096 73.4841C44.7699 73.531 44.8202 73.5895 44.8577 73.656C44.8952 73.7226 44.9191 73.7959 44.928 73.8718L45.072 76.3198C45.08 76.4601 45.0421 76.5991 44.9642 76.716C44.8863 76.8328 44.7725 76.9212 44.64 76.9678Z" fill="#22262E"/>
<path d="M43.992 75.6719H42.408C41.4098 75.5607 40.4605 75.1805 39.6616 74.5718C38.8627 73.9631 38.2441 73.1488 37.872 72.2159C37.7794 71.9845 37.734 71.7369 37.7383 71.4878C37.7427 71.2386 37.7967 70.9928 37.8973 70.7648C37.9979 70.5368 38.143 70.3311 38.3241 70.1599C38.5052 69.9888 38.7187 69.8555 38.952 69.7679C39.4207 69.6002 39.9359 69.6188 40.3914 69.8197C40.8468 70.0206 41.2078 70.3886 41.4 70.8479C41.5051 71.1372 41.6888 71.3916 41.9304 71.5824C42.1721 71.7732 42.4621 71.8928 42.768 71.9279H43.704C43.9501 71.9461 44.1902 72.0127 44.4104 72.124C44.6306 72.2354 44.8267 72.3891 44.9873 72.5765C45.1479 72.7638 45.2698 72.9811 45.3462 73.2158C45.4225 73.4504 45.4517 73.6979 45.432 73.9439C45.4239 74.3526 45.2769 74.7464 45.0152 75.0605C44.7534 75.3746 44.3926 75.5902 43.992 75.6719Z" fill="#4086EA"/>
<path d="M58.752 54.648C58.6331 54.678 58.5078 54.6693 58.3942 54.6232C58.2806 54.577 58.1847 54.4958 58.1205 54.3914C58.0562 54.287 58.027 54.1648 58.0369 54.0426C58.0469 53.9204 58.0956 53.8046 58.176 53.712L59.904 52.056C59.9495 51.9817 60.0112 51.9187 60.0846 51.8717C60.1579 51.8248 60.2409 51.795 60.3274 51.7848C60.4139 51.7745 60.5016 51.784 60.5839 51.8125C60.6662 51.8411 60.741 51.8879 60.8025 51.9495C60.8641 52.0111 60.9109 52.0858 60.9395 52.1681C60.968 52.2504 60.9775 52.3381 60.9672 52.4246C60.957 52.5111 60.9272 52.5941 60.8803 52.6675C60.8333 52.7408 60.7703 52.8025 60.696 52.848L58.968 54.504L58.752 54.648Z" fill="#22262E"/>
<path d="M60.48 52.9917H60.048L57.888 51.9837C57.8214 51.9464 57.7629 51.8961 57.7158 51.8359C57.6688 51.7756 57.6343 51.7067 57.6142 51.633C57.5941 51.5593 57.5888 51.4823 57.5988 51.4065C57.6087 51.3308 57.6336 51.2578 57.672 51.1917C57.7021 51.1275 57.7454 51.0703 57.7991 51.0239C57.8528 50.9775 57.9157 50.943 57.9837 50.9226C58.0516 50.9022 58.1231 50.8964 58.1935 50.9056C58.2639 50.9147 58.3315 50.9386 58.392 50.9757L60.552 51.9837C60.6248 52.0146 60.6904 52.0602 60.7448 52.1175C60.7992 52.1749 60.8413 52.2428 60.8683 52.3171C60.8953 52.3914 60.9067 52.4705 60.9019 52.5494C60.897 52.6283 60.8759 52.7053 60.84 52.7757C60.7441 52.8819 60.6188 52.9571 60.48 52.9917Z" fill="#22262E"/>
<path d="M60.48 52.9918H57.96C57.8881 53.0022 57.8147 52.9969 57.745 52.9762C57.6753 52.9556 57.6108 52.9201 57.5561 52.8722C57.5014 52.8244 57.4577 52.7652 57.428 52.6988C57.3983 52.6325 57.3833 52.5605 57.384 52.4878C57.3736 52.4158 57.3789 52.3424 57.3996 52.2727C57.4202 52.203 57.4557 52.1386 57.5035 52.0839C57.5514 52.0291 57.6106 51.9854 57.6769 51.9557C57.7433 51.926 57.8153 51.911 57.888 51.9118H60.264C60.3398 51.9017 60.4167 51.9068 60.4905 51.9268C60.5642 51.9467 60.6333 51.9812 60.6936 52.0281C60.7539 52.075 60.8042 52.1334 60.8417 52.2C60.8792 52.2665 60.9031 52.3399 60.912 52.4158C60.905 52.5437 60.8603 52.6668 60.7834 52.7693C60.7065 52.8718 60.6009 52.9492 60.48 52.9918Z" fill="#22262E"/>
<path d="M67.608 55.2238C67.2387 55.3243 66.8474 55.3092 66.4869 55.1804C66.1265 55.0517 65.8141 54.8156 65.592 54.5038C64.728 53.2798 62.136 53.8558 61.272 54.1438C61.0361 54.2347 60.7842 54.2769 60.5315 54.2678C60.2789 54.2587 60.0307 54.1985 59.8019 54.0908C59.5731 53.9832 59.3685 53.8303 59.2005 53.6414C59.0324 53.4525 58.9043 53.2316 58.824 52.9918C58.6816 52.5235 58.7211 52.0187 58.9347 51.5782C59.1482 51.1378 59.5201 50.7941 59.976 50.6158C62.208 49.8238 66.528 49.2478 68.688 52.3438C68.8377 52.5395 68.9456 52.7638 69.0051 53.0028C69.0646 53.2418 69.0744 53.4905 69.0339 53.7335C68.9934 53.9765 68.9035 54.2086 68.7697 54.4154C68.6359 54.6222 68.461 54.7993 68.256 54.9358C68.071 55.0902 67.8466 55.19 67.608 55.2238Z" fill="#4086EA"/>
<path d="M37.584 71.2798C37.6369 71.6034 37.7338 71.9184 37.872 72.2158C38.2441 73.1487 38.8626 73.963 39.6616 74.5717C40.4605 75.1804 41.4098 75.5606 42.408 75.6718H43.992C44.381 75.5931 44.7331 75.3881 44.9935 75.0886C45.254 74.7891 45.4081 74.412 45.432 74.0158C40.968 74.7358 38.016 72.6478 37.584 71.2798Z" fill="#0654B5"/>
<path d="M69.048 53.4961C67.68 51.1921 63.792 51.7681 58.824 52.7761V52.9921C58.9043 53.2319 59.0324 53.4528 59.2004 53.6417C59.3685 53.8306 59.5731 53.9835 59.8019 54.0911C60.0306 54.1988 60.2788 54.259 60.5315 54.2681C60.7842 54.2772 61.0361 54.235 61.272 54.1441C62.136 53.8561 64.728 53.2801 65.592 54.5041L67.104 56.8081L69.192 54.7201L69.048 53.4961Z" fill="#0654B5"/>
<path d="M37.512 70.1999V70.7039C38.0486 70.2673 38.716 70.023 39.4076 70.01C40.0993 69.9969 40.7754 70.2159 41.328 70.6319V70.3439C40.8363 69.8272 40.1621 69.523 39.4493 69.4961C38.7365 69.4692 38.0413 69.7217 37.512 70.1999Z" fill="black"/>
<path d="M41.976 64.728L41.616 64.944C42.1771 65.322 42.6089 65.8627 42.8535 66.4934C43.098 67.1242 43.1436 67.8146 42.984 68.472L43.344 68.256C43.632 66.456 43.056 65.304 41.976 64.728Z" fill="black"/>
<path d="M41.832 71.496C41.449 71.457 41.0626 71.5211 40.7127 71.6816C40.3628 71.8421 40.0621 72.0932 39.8418 72.409C39.6216 72.7247 39.4897 73.0935 39.4598 73.4773C39.43 73.8612 39.5032 74.246 39.672 74.592L40.176 74.952C39.672 73.08 40.248 72.144 41.976 71.64L41.832 71.496Z" fill="black"/>
<path d="M38.592 67.0317L38.304 67.3917C39.816 66.3837 41.544 68.2557 41.688 69.1917L41.904 68.9757C41.8832 68.596 41.7687 68.2274 41.5708 67.9027C41.3729 67.578 41.0977 67.3073 40.7698 67.1148C40.4418 66.9224 40.0713 66.814 39.6913 66.7995C39.3113 66.785 38.9337 66.8648 38.592 67.0317Z" fill="black"/>
<path d="M66.456 60.4799C65.88 57.9599 64.728 57.7439 63.936 57.6719L63.648 57.9599C65.736 58.3919 66.168 60.7679 66.168 60.7679L66.456 60.4799Z" fill="black"/>
<path d="M65.448 55.6559L65.304 56.0879C67.248 56.0159 68.256 56.7359 68.616 57.8879L68.904 57.3119C67.824 55.7279 66.744 55.2959 65.448 55.6559Z" fill="black"/>
<path d="M62.496 50.04H61.92C61.632 51.12 61.776 52.848 62.784 53.712H63.144C62.4521 52.6214 62.2192 51.3016 62.496 50.04Z" fill="black"/>
<path d="M64.944 53.9999C65.5517 52.8706 65.9885 51.6574 66.24 50.3999L66.744 50.6159C66.5404 51.8972 66.0747 53.1228 65.376 54.2159L64.944 53.9999Z" fill="black"/>
<path d="M169.128 23.4C168.12 17.136 161.568 12.312 153.576 12.312C147.168 12.312 141.624 15.48 139.248 20.016C137.99 19.3599 136.586 19.0322 135.167 19.0636C133.748 19.0949 132.361 19.4841 131.132 20.1952C129.904 20.9062 128.876 21.916 128.142 23.1308C127.408 24.3456 126.994 25.726 126.936 27.144C120.24 27.648 115.128 29.52 115.128 31.752H180C180.36 27.504 174.312 24.12 169.128 23.4Z" fill="white"/>
<g style="mix-blend-mode:multiply">
<path d="M162.576 66.6719C163.592 68.6464 163.872 70.9176 163.368 73.08C162.878 75.2965 161.649 77.2807 159.883 78.7068C158.117 80.1329 155.918 80.9161 153.648 80.928L151.56 80.7119L122.472 74.376C121.195 74.1028 119.985 73.5806 118.91 72.8393C117.835 72.0981 116.917 71.1523 116.208 70.056C115.504 68.9572 115.027 67.7287 114.804 66.4428C114.581 65.1569 114.618 63.8395 114.912 62.568C115.362 60.4204 116.53 58.4903 118.224 57.096C117.267 55.0769 117.014 52.7958 117.504 50.6159C118.073 48.0658 119.624 45.8426 121.821 44.4276C124.017 43.0126 126.683 42.5198 129.24 43.0559L131.256 43.4879C131.256 43.1279 131.328 42.6959 131.328 42.3359C131.904 29.6639 134.424 23.5439 138.816 23.5439H139.032C142.056 23.7599 143.496 26.7839 144.144 29.3759C144.792 31.9679 145.08 36.0719 144.936 41.0399C146.257 37.6849 147.922 34.4758 149.904 31.4639C151.992 28.6559 153.936 27.2879 155.952 27.2879C156.494 27.2724 157.034 27.3705 157.536 27.5759C160.344 28.7279 160.704 32.0399 160.488 34.7039C160.272 37.3679 158.976 42.3359 156.816 47.8079L156.384 48.8879L158.4 49.3199C160.957 49.9211 163.179 51.497 164.592 53.7119C165.31 54.7911 165.802 56.0049 166.037 57.2796C166.272 58.5544 166.246 59.8636 165.96 61.1279C165.501 63.3093 164.306 65.2667 162.576 66.6719Z" fill="#C7CCD1"/>
</g>
<path d="M162.216 63.9361C163.174 65.852 163.429 68.0435 162.936 70.1281C162.671 71.3478 162.169 72.5035 161.458 73.529C160.746 74.5546 159.84 75.43 158.79 76.1053C157.74 76.7806 156.568 77.2425 155.34 77.4646C154.112 77.6868 152.852 77.6649 151.632 77.4001L123.552 71.3521C121.087 70.8025 118.939 69.3016 117.576 67.1761C116.317 65.2099 115.82 62.8514 116.178 60.5443C116.536 58.2372 117.724 56.1404 119.52 54.6481C118.562 52.7321 118.307 50.5407 118.8 48.4561C119.272 46.3412 120.448 44.449 122.135 43.0889C123.822 41.7288 125.921 40.9811 128.088 40.9681C128.766 40.9651 129.442 41.0376 130.104 41.1841L132.048 41.6161C132.034 41.2307 132.058 40.8448 132.12 40.4641C132.696 28.2961 135.072 22.3921 139.32 22.3921H139.536C142.488 22.5361 143.856 25.4881 144.432 27.9361C145.167 31.6319 145.434 35.4057 145.224 39.1681C146.495 35.9537 148.112 32.8876 150.048 30.0241C151.992 27.2881 153.936 25.9921 155.88 25.9921C156.376 25.9766 156.868 26.0751 157.32 26.2801C160.056 27.3601 160.416 30.6001 160.2 33.1201C159.984 35.6401 158.76 40.4641 156.672 45.7921L156.24 46.8001L158.184 47.2321C160.649 47.7817 162.797 49.2826 164.16 51.4081C165.419 53.3743 165.916 55.7328 165.558 58.0399C165.2 60.347 164.012 62.4438 162.216 63.9361Z" fill="#F8F9F9"/>
<path d="M157.713 49.3006L129.634 43.2297C125.67 42.3726 121.761 44.8915 120.904 48.8559L120.897 48.8911C120.039 52.8554 122.558 56.7641 126.523 57.6212L154.602 63.6921C158.566 64.5493 162.475 62.0303 163.332 58.0659L163.34 58.0308C164.197 54.0664 161.678 50.1578 157.713 49.3006Z" fill="#FF7ABC"/>
<path d="M155.262 60.8353L127.183 54.7644C123.219 53.9072 119.31 56.4262 118.453 60.3906L118.445 60.4257C117.588 64.3901 120.107 68.2987 124.072 69.1559L152.151 75.2268C156.115 76.0839 160.024 73.565 160.881 69.6006L160.889 69.5654C161.746 65.6011 159.227 61.6924 155.262 60.8353Z" fill="#FF7ABC"/>
<path d="M148.849 59.5881C149.252 58.8114 149.12 57.9444 148.556 57.6516C147.991 57.3588 147.206 57.7511 146.804 58.5278C146.401 59.3045 146.533 60.1714 147.098 60.4642C147.662 60.757 148.447 60.3648 148.849 59.5881Z" fill="#1B1926"/>
<path d="M134.673 57.7499C135.309 57.7166 135.787 56.9814 135.741 56.1077C135.695 55.2341 135.143 54.5529 134.508 54.5862C133.872 54.6195 133.394 55.3547 133.44 56.2283C133.486 57.1019 134.038 57.7832 134.673 57.7499Z" fill="#1B1926"/>
<path d="M154.584 44.9278C150.336 55.7278 148.032 56.2318 145.8 55.3678C143.568 54.5038 142.272 52.5598 146.52 41.7598C150.768 30.9598 154.296 27.4318 156.528 28.2958C158.76 29.1598 158.904 34.1998 154.584 44.9278Z" fill="#FF7ABC"/>
<path d="M134.28 40.5359C133.704 52.1279 135.576 53.5679 137.952 53.6399C140.328 53.7119 142.416 52.5599 142.992 40.9679C143.568 29.3759 141.84 24.6959 139.464 24.6239C137.088 24.5519 134.856 28.9439 134.28 40.5359Z" fill="#FF7ABC"/>
<path d="M137.88 60.8398V61.0558C138.082 61.4989 138.386 61.888 138.767 62.1915C139.148 62.495 139.595 62.7044 140.072 62.8026C140.549 62.9008 141.043 62.8851 141.512 62.7567C141.982 62.6284 142.415 62.391 142.776 62.0638L142.92 61.9198" stroke="#1B1926" stroke-width="2.00523" stroke-linecap="round" stroke-linejoin="round"/>
<path d="M157.536 49.3202L153.144 48.3842C153.648 47.3762 154.08 46.2242 154.584 44.9282C158.904 34.2002 158.76 29.1602 156.528 28.2962C154.296 27.4322 150.84 30.9602 146.52 41.7602C145.8 43.6322 145.224 45.2162 144.792 46.5842L155.664 52.8482C156.552 53.3766 157.237 54.188 157.608 55.1522C158.007 56.1406 158.046 57.2379 157.716 58.2516C157.387 59.2654 156.712 60.1309 155.808 60.6963L152.352 62.8563L153.576 65.3763C154.361 66.9905 154.636 68.8051 154.366 70.5795C154.096 72.3539 153.293 74.0044 152.064 75.3122C153.579 75.6557 155.164 75.5099 156.591 74.8959C158.017 74.2819 159.213 73.2312 160.005 71.895C160.797 70.5588 161.145 69.0058 160.999 67.4593C160.853 65.9128 160.22 64.4525 159.192 63.2882C160.598 62.6247 161.761 61.5358 162.514 60.1755C163.268 58.8152 163.575 57.2524 163.392 55.7081C163.209 54.1638 162.545 52.7161 161.494 51.5698C160.443 50.4235 159.059 49.6365 157.536 49.3202Z" fill="#F763BE"/>
<path d="M142.56 46.08C142.704 44.64 142.848 42.984 142.992 40.968C143.568 29.376 141.84 24.696 139.464 24.624C135.288 31.464 135.576 44.64 135.576 44.64L139.68 50.472C139.817 50.6821 139.997 50.8611 140.208 50.9975C140.419 51.1339 140.656 51.2247 140.904 51.264C141.218 51.3369 141.547 51.3272 141.856 51.2359C142.166 51.1446 142.447 50.9748 142.671 50.7429C142.896 50.511 143.057 50.225 143.138 49.9126C143.22 49.6002 143.219 49.272 143.136 48.96L142.56 46.08Z" fill="#F763BE"/>
<g style="mix-blend-mode:multiply">
<path d="M128.088 33.9123L127.008 36.1443C127.226 36.548 127.372 36.9865 127.44 37.4403L127.656 40.9683C127.706 41.3314 127.673 41.701 127.561 42.05C127.449 42.3989 127.26 42.7182 127.008 42.9843V43.9203C127.037 44.333 126.975 44.7471 126.826 45.1329C126.676 45.5188 126.444 45.8669 126.144 46.1523L126.432 49.4643L126.792 54.0003C126.902 55.7215 126.365 57.4218 125.286 58.7673C124.207 60.1128 122.664 61.0063 120.96 61.2723H120.168L120.312 63.7923C120.414 64.9051 120.082 66.0144 119.384 66.8871C118.685 67.7598 117.676 68.328 116.568 68.4723H116.28C115.123 68.5445 113.984 68.1563 113.112 67.3923C112.675 67.0268 112.316 66.5771 112.056 66.0699C111.796 65.5628 111.641 65.0086 111.6 64.4403L111.168 59.1123V58.7523L108.648 58.9683C108.135 59.918 107.404 60.7328 106.516 61.346C105.627 61.9592 104.606 62.3533 103.536 62.4963H102.744L102.96 65.0163C103.043 66.1363 102.694 67.2456 101.984 68.1161C101.274 68.9866 100.258 69.552 99.144 69.6963H98.928C97.7666 69.7766 96.6197 69.4 95.732 68.6467C94.8442 67.8935 94.2859 66.8233 94.176 65.6643V64.6563C91.9007 64.9325 89.5977 64.884 87.336 64.5123L80.28 72.4323C79.7212 73.0113 78.9875 73.3908 78.192 73.5123H77.328C75.816 73.2963 73.584 72.5043 70.992 69.6963C68.4 66.8883 67.896 64.5843 67.896 63.0723C67.824 62.9283 67.896 62.7123 67.896 62.4963C66.4105 61.0543 65.341 59.2386 64.8 57.2403C63.72 53.6403 64.152 51.2643 64.728 49.8963C64.9455 49.3892 65.2812 48.9416 65.7071 48.5909C66.133 48.2402 66.6367 47.9965 67.176 47.8803L68.112 47.7363C67.1663 44.7124 66.8238 41.5322 67.104 38.3763C66.7516 37.8345 66.5298 37.2183 66.456 36.5763C66.4484 36.2148 66.4725 35.8535 66.528 35.4963C66.662 34.8162 66.8302 34.1433 67.032 33.4803L53.424 29.7363C50.4903 28.9015 47.974 27.0014 46.368 24.4083L40.176 14.4003H39.96C39.4442 14.2756 38.9601 14.0447 38.5386 13.7224C38.1171 13.4 37.7675 12.9933 37.512 12.5283L35.496 9.14426C35.2466 8.74941 35.1025 8.29731 35.0773 7.831C35.0521 7.36469 35.1467 6.89968 35.352 6.48026C35.5671 6.08994 35.8658 5.752 36.2268 5.49061C36.5878 5.22922 37.0021 5.05085 37.44 4.96826H38.52L50.544 8.35226L50.256 7.84826C49.976 7.37781 49.8435 6.83417 49.8758 6.28764C49.9081 5.74111 50.1036 5.21683 50.437 4.7826C50.7704 4.34836 51.2265 4.02415 51.7461 3.85187C52.2658 3.6796 52.8252 3.66719 53.352 3.81626L87.12 13.1763C87.5134 12.6822 88.0371 12.3081 88.632 12.0963C88.922 11.9499 89.2432 11.8758 89.568 11.8803C90.2235 11.7715 90.8964 11.8462 91.512 12.0963C95.237 8.72236 99.9152 6.58448 104.904 5.97626L106.56 5.83226C107.9 5.70028 109.248 5.6762 110.592 5.76026C110.729 5.34152 111.01 4.98458 111.384 4.75226C111.683 4.48778 112.065 4.33512 112.464 4.32026H113.4L113.832 4.46426C116.095 4.86683 118.281 5.61988 120.312 6.69626H120.384C120.587 6.79902 120.768 6.94098 120.917 7.11397C121.065 7.28697 121.178 7.48758 121.248 7.70426L121.896 9.07226C123.809 10.0954 125.498 11.4908 126.864 13.1763C129.008 16.1631 130.261 19.6967 130.478 23.3671C130.694 27.0374 129.866 30.6939 128.088 33.9123Z" fill="#C7CCD1"/>
</g>
<path d="M126.864 31.7519L125.856 33.9119C126.074 34.2897 126.221 34.7047 126.288 35.1359L126.504 38.5199C126.53 38.8706 126.486 39.223 126.374 39.5567C126.263 39.8903 126.087 40.1987 125.856 40.4639V41.3279C125.884 41.7192 125.821 42.1117 125.671 42.4742C125.521 42.8366 125.289 43.1591 124.992 43.4159L125.28 46.6559L125.64 50.9759C125.764 52.6465 125.244 54.3013 124.186 55.6003C123.128 56.8992 121.613 57.7436 119.952 57.9599H119.232L119.376 60.4079C119.459 61.4709 119.133 62.5255 118.463 63.3555C117.794 64.1855 116.833 64.7281 115.776 64.8719H115.56C115.007 64.938 114.447 64.889 113.914 64.7279C113.381 64.5668 112.887 64.2972 112.464 63.9359C112.042 63.5777 111.697 63.1379 111.45 62.643C111.202 62.1481 111.057 61.6082 111.024 61.0559L110.592 55.9439V55.6559L108.216 55.7999C107.729 56.7202 107.032 57.5128 106.181 58.1132C105.331 58.7137 104.35 59.1052 103.32 59.2559H102.528L102.744 61.6319C102.826 62.7059 102.489 63.77 101.805 64.6018C101.121 65.4337 100.142 65.969 99.072 66.0959H98.856C97.7447 66.1569 96.6526 65.7867 95.8076 65.0624C94.9625 64.338 94.4296 63.3155 94.32 62.2079V61.1999C92.1409 61.4756 89.9329 61.4271 87.768 61.0559L81 68.6159C80.4905 69.22 79.7692 69.6064 78.984 69.6959H78.192C76.752 69.4799 74.52 68.7599 72.144 66.0959C69.768 63.4319 69.12 61.1279 69.12 59.6879V59.1839C67.7168 57.7874 66.6997 56.0509 66.168 54.1439C65.088 50.6879 65.52 48.3839 66.096 47.0879C66.3004 46.5927 66.6245 46.1559 67.0391 45.8166C67.4538 45.4774 67.9461 45.2462 68.472 45.1439L69.336 44.9999C68.4539 42.0868 68.1362 39.0321 68.4 35.9999C68.0489 35.5108 67.8261 34.9414 67.752 34.3439C67.7402 33.9824 67.7644 33.6206 67.824 33.2639L68.256 31.3199L55.368 27.7199C52.5238 26.9417 50.0799 25.1152 48.528 22.6079L42.624 13.0319H42.408C41.4118 12.7642 40.5593 12.1184 40.032 11.2319L38.16 7.91988C37.9224 7.55658 37.7827 7.13806 37.7544 6.7049C37.7262 6.27173 37.8102 5.8386 37.9986 5.44749C38.1869 5.05638 38.473 4.72054 38.8293 4.47252C39.1855 4.22451 39.5998 4.07272 40.032 4.03188C40.3668 3.94518 40.7209 3.97047 41.04 4.10388L52.632 7.27188L52.344 6.83988C52.1072 6.46692 51.9697 6.03964 51.9445 5.5986C51.9193 5.15755 52.0073 4.71739 52.2 4.31988C52.4035 3.94166 52.6911 3.61517 53.0406 3.36553C53.3901 3.11588 53.7922 2.94974 54.216 2.87988H55.296L87.624 11.8799C88.0257 11.4258 88.5156 11.0584 89.064 10.7999L89.928 10.5839C90.5603 10.5097 91.2012 10.5837 91.8 10.7999C95.4108 7.61468 99.9064 5.60544 104.688 5.03988L106.272 4.89588C107.54 4.76471 108.816 4.74062 110.088 4.82388C110.288 4.44234 110.557 4.1007 110.88 3.81588C111.206 3.59808 111.574 3.45092 111.96 3.38388H112.752L113.256 3.52788C115.632 4.10388 117.72 4.60788 119.448 5.68788H119.52C119.879 5.92542 120.176 6.24661 120.384 6.62388L120.96 7.99188C122.803 8.96503 124.422 10.3141 125.712 11.9519C127.763 14.8027 128.961 18.1784 129.165 21.6845C129.369 25.1906 128.571 28.6824 126.864 31.7519Z" fill="#F8F9F9"/>
<path d="M92.1599 19.368L58.3199 9.93604L64.6559 20.304C65.9074 22.3037 67.8578 23.7666 70.1279 24.408L97.0559 31.896L97.7759 29.304L92.1599 19.368Z" fill="#DAE2ED"/>
<path d="M99.576 17.6399L54.648 5.18392C54.5857 5.17861 54.5231 5.18959 54.4664 5.21579C54.4096 5.242 54.3607 5.28252 54.3244 5.33337C54.2881 5.38422 54.2656 5.44366 54.2592 5.50582C54.2528 5.56799 54.2627 5.63075 54.288 5.68792L56.232 8.92792C56.3317 9.10459 56.466 9.25938 56.6268 9.38308C56.7876 9.50677 56.9716 9.59684 57.168 9.64792L58.32 9.93592L92.16 19.3679L97.776 29.3039L97.056 31.8959L96.552 33.7679L107.856 36.9359L109.08 32.4719L101.592 19.2239C101.385 18.834 101.099 18.4917 100.751 18.2189C100.404 17.9461 100.004 17.7489 99.576 17.6399Z" fill="#ECEFF6"/>
<path d="M97.7759 29.304L92.1599 19.368L58.3199 9.93604L59.6159 12.024L91.0799 20.736L96.2639 30.024L95.9039 31.536L97.0559 31.896L97.7759 29.304Z" fill="#C5CEDD"/>
<path d="M93.2191 59.0805C104.839 58.2272 113.567 48.1159 112.713 36.4962C111.86 24.8764 101.749 16.1485 90.129 17.0018C78.5093 17.8551 69.7814 27.9665 70.6347 39.5862C71.488 51.2059 81.5994 59.9338 93.2191 59.0805Z" fill="#4F5D7F"/>
<path d="M92.6759 51.6845C100.211 51.1312 105.871 44.5743 105.317 37.0394C104.764 29.5044 98.2071 23.8447 90.6721 24.398C83.1372 24.9513 77.4774 31.5082 78.0308 39.0432C78.5841 46.5781 85.141 52.2379 92.6759 51.6845Z" fill="#7687B2"/>
<path d="M104.4 20.3042C104.688 23.4722 96.84 31.9682 91.656 36.7922C86.544 37.2242 73.8 37.6562 70.56 34.9922C70.4125 34.8995 70.2897 34.7725 70.2019 34.622C70.1142 34.4716 70.0641 34.3021 70.056 34.1282V33.6962C70.6417 30.5959 71.8908 27.6588 73.7176 25.0864C75.5444 22.5139 77.9058 20.3668 80.64 18.7922C87.624 14.7602 96.336 15.0482 103.968 19.5842C104.106 19.6439 104.222 19.7455 104.3 19.8747C104.377 20.0038 104.412 20.154 104.4 20.3042Z" fill="#FF7F14"/>
<path d="M92.088 37.8C92.088 37.8 70.92 27.288 72.792 24.624C74.7121 21.8551 77.2198 19.5441 80.136 17.856C87.984 13.32 97.2 14.328 104.544 18.648C109.728 21.744 92.088 37.8 92.088 37.8Z" fill="#FF903E"/>
<path d="M92.5231 49.6019C98.9079 49.133 103.704 43.5769 103.235 37.192C102.766 30.8071 97.21 26.0112 90.8251 26.4801C84.4402 26.949 79.6443 32.5051 80.1132 38.89C80.5821 45.2749 86.1382 50.0707 92.5231 49.6019Z" fill="#EBEFF7"/>
<path d="M92.3859 47.735C97.7397 47.3418 101.761 42.683 101.368 37.3292C100.975 31.9754 96.3159 27.954 90.9621 28.3472C85.6084 28.7404 81.587 33.3992 81.9801 38.753C82.3733 44.1068 87.0321 48.1282 92.3859 47.735Z" fill="#DAE2ED"/>
<path d="M85.536 34.3441L90.576 30.7441C90.7363 30.6445 90.9187 30.5859 91.107 30.5734C91.2953 30.5608 91.4838 30.5947 91.656 30.6721L97.272 33.2641C97.4254 33.3571 97.5566 33.4827 97.6561 33.632C97.7557 33.7813 97.8211 33.9507 97.848 34.1281L98.424 40.2481C98.4353 40.4381 98.4022 40.6282 98.3272 40.8032C98.2522 40.9782 98.1374 41.1332 97.992 41.2561L92.952 44.7841C92.7916 44.8837 92.6093 44.9423 92.4209 44.9548C92.2326 44.9674 92.0441 44.9335 91.872 44.8561L86.256 42.2641C86.0793 42.202 85.9276 42.0841 85.8237 41.9283C85.7198 41.7724 85.6694 41.5871 85.68 41.4001L85.104 35.2801C85.0983 35.1012 85.1344 34.9235 85.2094 34.7611C85.2844 34.5986 85.3962 34.4558 85.536 34.3441Z" fill="#C5CEDD"/>
<path d="M91.656 41.3998C93.5249 41.3998 95.04 39.8848 95.04 38.0158C95.04 36.1469 93.5249 34.6318 91.656 34.6318C89.787 34.6318 88.272 36.1469 88.272 38.0158C88.272 39.8848 89.787 41.3998 91.656 41.3998Z" fill="#B7C2CE"/>
<path d="M122.328 35.1357L118.656 35.4237C118.728 36.7197 118.8 38.0877 118.944 39.4557L122.544 39.1677C122.402 37.8284 122.33 36.4826 122.328 35.1357Z" fill="#80A7FF"/>
<path d="M121.68 43.992L106.2 45.216C106.116 45.2177 106.034 45.1898 105.968 45.1372C105.902 45.0846 105.857 45.0105 105.84 44.928C105.768 44.712 105.912 44.568 106.128 44.568L121.608 43.344C121.824 43.272 121.968 43.128 121.968 42.984L121.752 40.464C121.768 40.3854 121.802 40.3118 121.852 40.2491C121.903 40.1865 121.967 40.1368 122.04 40.104C122.135 40.104 122.227 40.1419 122.295 40.2094C122.362 40.277 122.4 40.3685 122.4 40.464L122.616 42.912C122.626 43.0444 122.609 43.1775 122.568 43.3036C122.526 43.4296 122.459 43.5462 122.372 43.6466C122.286 43.7469 122.18 43.8291 122.061 43.8884C121.942 43.9477 121.813 43.9829 121.68 43.992Z" fill="#E4E9F7"/>
<path d="M122.688 34.094L120.463 34.2691C120.265 34.2847 120.117 34.458 120.132 34.6563L120.687 41.6977C120.702 41.8959 120.876 42.0439 121.074 42.0283L123.299 41.8532C123.497 41.8376 123.645 41.6643 123.63 41.4661L123.075 34.4246C123.06 34.2264 122.886 34.0784 122.688 34.094Z" fill="black"/>
<path d="M122.256 35.1358L123.624 34.9918C123.708 34.9901 123.79 35.018 123.856 35.0706C123.922 35.1232 123.967 35.1972 123.984 35.2798L124.2 38.6638C124.272 38.8798 124.128 39.0238 123.912 39.0238L122.688 39.1678C122.2 39.2062 121.713 39.0775 121.307 38.8027C120.902 38.528 120.601 38.1235 120.456 37.6558C120.381 37.3699 120.37 37.0711 120.424 36.7806C120.478 36.49 120.594 36.2148 120.766 35.9744C120.938 35.7339 121.16 35.5342 121.418 35.3893C121.675 35.2444 121.961 35.1578 122.256 35.1358Z" fill="#80A7FF"/>
<path d="M119.52 55.7278L117.648 55.8718C117.431 55.919 117.237 56.0363 117.093 56.2055C116.95 56.3747 116.867 56.5864 116.856 56.8078L117.216 60.6238C117.236 60.8792 117.205 61.136 117.125 61.3794C117.045 61.6228 116.917 61.848 116.75 62.042C116.583 62.236 116.379 62.3951 116.15 62.51C115.921 62.625 115.672 62.6935 115.416 62.7118C114.904 62.733 114.404 62.5587 114.016 62.2244C113.628 61.8901 113.382 61.4208 113.328 60.9118L112.968 55.8718L112.104 44.5678V44.8558C112.081 44.2982 112.268 43.7525 112.628 43.326C112.988 42.8995 113.495 42.6233 114.048 42.5518L120.528 42.0478C120.808 42.0181 121.091 42.0453 121.36 42.1279C121.63 42.2105 121.879 42.3467 122.095 42.5283C122.31 42.7099 122.486 42.9332 122.613 43.1847C122.74 43.4362 122.814 43.7107 122.832 43.9918L123.408 51.1918C123.457 51.7462 123.395 52.3049 123.225 52.8349C123.055 53.365 122.781 53.8557 122.419 54.2783C122.057 54.7009 121.614 55.0469 121.116 55.2958C120.618 55.5447 120.075 55.6916 119.52 55.7278Z" fill="#80A7FF"/>
<path d="M115.125 34.6853L112.9 34.8604C112.701 34.876 112.553 35.0494 112.569 35.2476L113.123 42.289C113.139 42.4872 113.312 42.6352 113.51 42.6196L115.735 42.4445C115.934 42.4289 116.082 42.2556 116.066 42.0574L115.512 35.016C115.496 34.8177 115.323 34.6697 115.125 34.6853Z" fill="black"/>
<path d="M114.48 41.04L114.696 43.56C114.683 43.7348 114.612 43.9004 114.495 44.0307C114.378 44.161 114.22 44.2487 114.048 44.28L98.568 45.432" stroke="#2F3849" stroke-width="3.08771" stroke-miterlimit="10"/>
<path d="M120.456 36.792C119.503 35.6858 118.302 34.8218 116.95 34.271C115.598 33.7202 114.134 33.4984 112.68 33.624L102.24 34.416L100.152 34.56C98.6681 34.6886 97.2939 35.3942 96.3246 36.525C95.3552 37.6559 94.8682 39.1219 94.968 40.608L95.76 50.832C95.7964 51.3242 95.9298 51.8043 96.1524 52.2448C96.375 52.6852 96.6825 53.0774 97.0573 53.3985C97.432 53.7197 97.8665 53.9637 98.3358 54.1163C98.8052 54.269 99.3 54.3273 99.792 54.288L103.032 54L117.936 52.848C118.671 52.7938 119.389 52.5934 120.046 52.2585C120.703 51.9236 121.286 51.4611 121.762 50.8978C122.239 50.3346 122.597 49.6821 122.818 48.9785C123.039 48.2748 123.117 47.5342 123.048 46.8L122.688 42.192C122.56 40.1951 121.775 38.2966 120.456 36.792Z" fill="#9CB8FF"/>
<path d="M103.896 34.272L100.152 34.56C98.6681 34.6886 97.2939 35.3941 96.3246 36.525C95.3552 37.6559 94.8682 39.1219 94.968 40.608L95.688 49.536C95.724 50.0254 95.8577 50.5026 96.0813 50.9394C96.3048 51.3762 96.6136 51.7638 96.9895 52.0793C97.3654 52.3948 97.8007 52.6317 98.2696 52.7761C98.7386 52.9205 99.2318 52.9694 99.72 52.92L105.336 52.488C104.76 46.44 104.328 40.392 103.896 34.272Z" fill="#80A7FF"/>
<path d="M102.816 57.0961L101.016 57.2401C100.906 57.2396 100.796 57.2622 100.695 57.3065C100.594 57.3507 100.503 57.4155 100.429 57.4969C100.354 57.5782 100.298 57.6743 100.262 57.7788C100.227 57.8834 100.214 57.9942 100.224 58.1041L100.512 61.9201C100.552 62.4246 100.395 62.925 100.072 63.3149C99.7492 63.7048 99.2872 63.9535 98.784 64.0081C98.2795 64.0485 97.7791 63.8906 97.3892 63.5679C96.9993 63.2453 96.7506 62.7832 96.696 62.2801L96.264 57.1681L95.184 42.8401V43.2001C95.1543 42.92 95.1816 42.6369 95.2642 42.3676C95.3467 42.0984 95.4829 41.8486 95.6645 41.6334C95.8461 41.4181 96.0694 41.2419 96.3209 41.1152C96.5724 40.9884 96.8469 40.9139 97.128 40.8961L103.68 40.3921C103.956 40.3622 104.236 40.3897 104.501 40.473C104.766 40.5563 105.011 40.6936 105.221 40.8761C105.431 41.0587 105.6 41.2826 105.719 41.5339C105.838 41.7851 105.904 42.0582 105.912 42.3361L106.776 52.4881C106.856 53.6228 106.484 54.7431 105.743 55.6059C105.002 56.4686 103.95 57.0041 102.816 57.0961Z" fill="#80A7FF"/>
<path d="M114.12 44.5681L98.568 45.7921C98.424 45.7921 98.208 45.6481 98.208 45.5041C98.2063 45.4199 98.2342 45.3378 98.2868 45.272C98.3394 45.2062 98.4134 45.161 98.496 45.1441L114.048 43.9201C114.13 43.9033 114.205 43.8581 114.257 43.7923C114.31 43.7265 114.338 43.6443 114.336 43.5601L114.12 41.1121C114.12 41.0166 114.158 40.9251 114.225 40.8576C114.293 40.7901 114.384 40.7521 114.48 40.7521C114.624 40.6801 114.768 40.8241 114.84 41.0401L114.984 43.4881C115.004 43.6167 114.998 43.7481 114.964 43.8739C114.931 43.9997 114.872 44.1172 114.79 44.2188C114.709 44.3204 114.607 44.404 114.492 44.4641C114.377 44.5243 114.25 44.5597 114.12 44.5681Z" fill="#E4E9F7"/>
<path d="M115.125 34.6853L112.9 34.8604C112.701 34.876 112.553 35.0494 112.569 35.2476L113.123 42.289C113.139 42.4872 113.312 42.6352 113.51 42.6196L115.735 42.4445C115.934 42.4289 116.082 42.2556 116.066 42.0574L115.512 35.016C115.496 34.8177 115.323 34.6697 115.125 34.6853Z" fill="black"/>
<path d="M115.344 35.6397L107.784 36.2157C107.491 36.2455 107.194 36.2168 106.912 36.1314C106.63 36.046 106.367 35.9055 106.14 35.7181C105.912 35.5306 105.724 35.2999 105.586 35.0393C105.448 34.7787 105.363 34.4933 105.336 34.1997L100.584 34.5597L101.376 44.3517L106.056 43.9917C106.344 41.4717 108.36 40.2477 111.024 40.0317L115.56 39.6717C116.095 39.6431 116.596 39.4032 116.954 39.0049C117.312 38.6065 117.497 38.0824 117.468 37.5477C117.439 37.013 117.199 36.5116 116.801 36.1538C116.403 35.796 115.879 35.6111 115.344 35.6397Z" fill="#80A7FF"/>
<path d="M92.952 48.4559L89.136 49.9679C88.6051 50.1612 88.147 50.5142 87.8247 50.9783C87.5024 51.4424 87.3317 51.9949 87.336 52.5599C87.3312 52.968 87.4153 53.3723 87.5826 53.7445C87.7499 54.1168 87.9964 54.4481 88.3048 54.7154C88.6132 54.9827 88.9762 55.1795 89.3684 55.2922C89.7607 55.4049 90.1728 55.4308 90.576 55.3679C91.142 55.2757 91.6662 55.0124 92.0781 54.6133C92.49 54.2143 92.7698 53.6987 92.88 53.1359L93.744 49.1039C93.7659 49.0006 93.7589 48.8932 93.7238 48.7935C93.6888 48.6939 93.627 48.6058 93.5452 48.5389C93.4635 48.472 93.3649 48.4289 93.2603 48.4142C93.1556 48.3996 93.049 48.414 92.952 48.4559Z" fill="#80A7FF"/>
<path d="M96.9292 41.8484L84.2874 45.8101L85.7881 50.5988L98.4299 46.6371L96.9292 41.8484Z" fill="#B7C2CE"/>
<path d="M87.984 51.2643L72.288 58.1043C71.9767 58.1856 71.6472 58.1602 71.352 58.0323C70.632 57.5283 69.264 56.3763 68.328 53.4243C67.392 50.4723 67.896 48.7443 68.184 47.9523C68.2579 47.8119 68.36 47.6883 68.4839 47.5892C68.6078 47.49 68.7508 47.4176 68.904 47.3763L85.68 43.9923C85.8423 43.9473 86.0157 43.9672 86.1635 44.0479C86.3114 44.1285 86.422 44.2635 86.472 44.4243L88.344 50.4723C88.3929 50.6255 88.3832 50.7914 88.3167 50.9377C88.2501 51.0841 88.1316 51.2005 87.984 51.2643Z" fill="#C5CEDD"/>
<path d="M82.368 48.0239C82.8054 48.0239 83.16 47.6693 83.16 47.2319C83.16 46.7945 82.8054 46.4399 82.368 46.4399C81.9306 46.4399 81.576 46.7945 81.576 47.2319C81.576 47.6693 81.9306 48.0239 82.368 48.0239Z" fill="#B7C2CE"/>
<path d="M78.696 48.8882C79.1334 48.8882 79.488 48.5336 79.488 48.0962C79.488 47.6588 79.1334 47.3042 78.696 47.3042C78.2586 47.3042 77.904 47.6588 77.904 48.0962C77.904 48.5336 78.2586 48.8882 78.696 48.8882Z" fill="#B7C2CE"/>
<path d="M94.7927 41.9874L85.0474 50.855L88.4248 54.5667L98.1702 45.6991L94.7927 41.9874Z" fill="#D0D9EA"/>
<path d="M90.72 54.3601L79.344 67.1041C79.1109 67.3275 78.8028 67.4559 78.48 67.4641C77.616 67.3201 75.888 66.8161 73.8 64.5121C71.712 62.2081 71.424 60.4801 71.352 59.6161C71.3575 59.4596 71.3995 59.3065 71.4744 59.169C71.5494 59.0316 71.6554 58.9134 71.784 58.8241L85.608 48.6721C85.7355 48.5752 85.8943 48.529 86.0538 48.5423C86.2133 48.5556 86.3623 48.6274 86.472 48.7441L90.72 53.4241C90.8194 53.5598 90.873 53.7238 90.873 53.8921C90.873 54.0604 90.8194 54.2243 90.72 54.3601Z" fill="#EBEFF7"/>
<path d="M83.952 53.856C84.3894 53.856 84.744 53.5014 84.744 53.064C84.744 52.6266 84.3894 52.272 83.952 52.272C83.5146 52.272 83.16 52.6266 83.16 53.064C83.16 53.5014 83.5146 53.856 83.952 53.856Z" fill="#B7C2CE"/>
<path d="M81.216 56.52C81.6534 56.52 82.008 56.1654 82.008 55.728C82.008 55.2906 81.6534 54.936 81.216 54.936C80.7786 54.936 80.424 55.2906 80.424 55.728C80.424 56.1654 80.7786 56.52 81.216 56.52Z" fill="#B7C2CE"/>
<path d="M97.7874 34.9183L115.086 33.5568C118.178 33.3135 120.487 30.6096 120.244 27.5175L119.427 17.1384C119.184 14.0463 116.48 11.737 113.388 11.9804L96.0893 13.3418C92.9972 13.5851 90.6879 16.289 90.9312 19.3811L91.7481 29.7602C91.9914 32.8523 94.6953 35.1616 97.7874 34.9183Z" fill="#80A7FF"/>
<path d="M101.349 34.6297L118.648 33.2683C121.74 33.0249 124.049 30.321 123.806 27.2289L122.989 16.8498C122.746 13.7578 120.042 11.4484 116.95 11.6918L99.6512 13.0532C96.5591 13.2966 94.2498 16.0004 94.4932 19.0925L95.31 29.4716C95.5534 32.5637 98.2573 34.873 101.349 34.6297Z" fill="#9CB8FF"/>
<path d="M97.1035 28.0542L92.9995 28.3825C92.0065 28.462 91.0227 28.1437 90.2644 27.4977C89.5061 26.8518 89.0354 25.931 88.956 24.938L88.7486 22.346C88.6692 21.3531 88.9875 20.3692 89.6334 19.6109C90.2794 18.8526 91.2001 18.382 92.1931 18.3025L96.2971 17.9742L97.1035 28.0542Z" fill="#9CB8FF"/>
<path d="M96.7875 20.1646L97.2281 25.7632C97.2356 25.8584 97.205 25.9527 97.1429 26.0253C97.0809 26.0979 96.9926 26.1429 96.8974 26.1504L93.165 26.4441C92.67 26.4831 92.1799 26.3238 91.8023 26.0014C91.4248 25.6789 91.1908 25.2197 91.1519 24.7248L90.9485 22.1408C90.9096 21.6458 91.0688 21.1557 91.3913 20.7781C91.7137 20.4006 92.1729 20.1666 92.6679 20.1277L96.4003 19.8339C96.4955 19.8264 96.5898 19.857 96.6624 19.9191C96.735 19.9811 96.78 20.0694 96.7875 20.1646Z" fill="#80A7FF"/>
<path d="M117.936 29.952H119.448C119.607 29.9072 119.748 29.8136 119.852 29.6845C119.955 29.5554 120.015 29.3971 120.024 29.232C119.989 29.0729 119.896 28.9327 119.762 28.8393C119.629 28.7459 119.465 28.7062 119.304 28.728H117.792C117.643 28.7683 117.51 28.8511 117.407 28.9662C117.305 29.0813 117.239 29.2237 117.216 29.376C117.225 29.4613 117.251 29.544 117.292 29.6193C117.333 29.6945 117.389 29.7609 117.456 29.8144C117.523 29.868 117.6 29.9078 117.682 29.9314C117.764 29.955 117.851 29.962 117.936 29.952Z" fill="#80A7FF"/>
<path d="M123.192 16.8483L120.96 16.9923L113.112 17.6403L110.448 17.7843C110.154 17.8113 109.869 17.8963 109.608 18.0342C109.348 18.1722 109.117 18.3604 108.93 18.588C108.742 18.8156 108.602 19.0781 108.516 19.3604C108.431 19.6426 108.402 19.939 108.432 20.2323L108.576 22.8243C108.722 24.3011 109.433 25.6645 110.559 26.6303C111.686 27.5961 113.142 28.0897 114.624 28.0083L117.288 27.7923H118.368L120.6 27.5763C122.078 27.4656 123.452 26.7754 124.423 25.656C125.394 24.5367 125.883 23.0789 125.784 21.6003L125.568 18.9363C125.56 18.6396 125.49 18.3479 125.364 18.0792C125.238 17.8106 125.058 17.5708 124.835 17.3749C124.612 17.179 124.351 17.0311 124.068 16.9405C123.786 16.8499 123.487 16.8185 123.192 16.8483Z" fill="#B8D0FF"/>
<path d="M120.618 27.5095L117.245 27.775C116.509 27.8328 115.77 27.7453 115.068 27.5174C114.367 27.2895 113.717 26.9257 113.157 26.4467C112.596 25.9678 112.135 25.383 111.8 24.7259C111.465 24.0688 111.263 23.3521 111.205 22.6169L111.002 20.0329C110.979 19.7407 111.014 19.4468 111.104 19.1681C111.195 18.8893 111.339 18.6311 111.53 18.4082C111.72 18.1853 111.953 18.0021 112.214 17.8691C112.475 17.736 112.76 17.6557 113.052 17.6327L123.173 16.8362C123.465 16.8132 123.759 16.8479 124.037 16.9385C124.316 17.0291 124.574 17.1737 124.797 17.364C125.02 17.5544 125.203 17.7868 125.336 18.048C125.469 18.3091 125.55 18.5939 125.573 18.8862L125.776 21.4702C125.893 22.955 125.415 24.4255 124.448 25.5581C123.481 26.6907 122.103 27.3926 120.618 27.5095Z" fill="#CBDAF7"/>
<path d="M118.44 23.4722H115.992C115.75 23.5071 115.53 23.6285 115.371 23.8139C115.212 23.9993 115.125 24.236 115.128 24.4802C115.137 24.6033 115.17 24.7233 115.226 24.8334C115.282 24.9435 115.359 25.0416 115.452 25.1219C115.546 25.2021 115.655 25.2631 115.772 25.3013C115.889 25.3395 116.013 25.354 116.136 25.3442H118.584C118.707 25.3351 118.827 25.3018 118.937 25.2461C119.047 25.1905 119.145 25.1136 119.226 25.0199C119.306 24.9262 119.367 24.8176 119.405 24.7003C119.443 24.5829 119.458 24.4592 119.448 24.3362C119.439 24.2132 119.406 24.0931 119.35 23.983C119.294 23.8729 119.217 23.7749 119.124 23.6946C119.03 23.6143 118.921 23.5533 118.804 23.5151C118.687 23.477 118.563 23.4624 118.44 23.4722Z" fill="#9CB8FF"/>
<path d="M122.832 23.1123H121.896C121.773 23.1214 121.653 23.1548 121.543 23.2104C121.433 23.2661 121.335 23.343 121.254 23.4367C121.174 23.5303 121.113 23.639 121.075 23.7563C121.037 23.8736 121.022 23.9974 121.032 24.1203C121.041 24.2434 121.074 24.3634 121.13 24.4735C121.186 24.5837 121.263 24.6817 121.356 24.762C121.45 24.8423 121.559 24.9033 121.676 24.9414C121.793 24.9796 121.917 24.9942 122.04 24.9844H122.976C123.099 24.9753 123.219 24.9419 123.329 24.8863C123.439 24.8306 123.537 24.7537 123.618 24.66C123.698 24.5664 123.759 24.4577 123.797 24.3404C123.835 24.2231 123.85 24.0993 123.84 23.9763C123.831 23.8533 123.798 23.7333 123.742 23.6232C123.686 23.513 123.609 23.415 123.516 23.3347C123.422 23.2544 123.313 23.1934 123.196 23.1553C123.079 23.1171 122.955 23.1025 122.832 23.1123Z" fill="#9CB8FF"/>
<path d="M101.674 22.5391C101.754 23.5579 102.638 24.3193 103.649 24.2398C104.66 24.1602 105.414 23.2698 105.334 22.251C105.254 21.2322 104.37 20.4708 103.359 20.5504C102.348 20.6299 101.593 21.5203 101.674 22.5391Z" fill="black"/>
<path opacity="0.5" d="M123.912 13.3921C125.66 15.9137 126.674 18.8715 126.839 21.9354C127.004 24.9994 126.315 28.049 124.848 30.7441L121.752 32.9041L100.512 33.6241L94.824 27.2161L98.928 13.1041L117 11.6641L123.912 13.3921Z" fill="#4871E5"/>
<path d="M106.416 7.12798C94.104 8.13598 87.984 16.92 88.56 23.832C89.136 30.744 97.2 30.672 98.712 25.704L101.88 14.832L119.664 15.768L123.912 13.392C122.04 10.8 115.56 6.40798 106.416 7.12798Z" fill="#EBEFF7"/>
<path d="M97.488 27.0002L109.08 31.9682L124.848 30.7442L123.48 33.4082L93.888 35.7122L89.712 26.7842L97.488 27.0002Z" fill="#EBEFF7"/>
<path d="M112.248 5.68799L112.104 7.70399C113.866 8.90891 115.442 10.3642 116.784 12.024L118.296 7.70399C116.712 6.76799 114.696 6.26399 112.248 5.68799Z" fill="#FF7F14"/>
<path d="M116.784 12.0241L118.296 7.7041L120.168 11.7361L116.784 12.0241Z" fill="#FF903E"/>
<path d="M94.248 19.152L91.08 20.448L89.136 14.688C89.0392 14.3629 89.0666 14.0135 89.213 13.7075C89.3593 13.4015 89.6141 13.1607 89.928 13.032C90.0838 12.9599 90.2524 12.9194 90.424 12.913C90.5956 12.9066 90.7667 12.9343 90.9275 12.9946C91.0883 13.0549 91.2355 13.1466 91.3605 13.2642C91.4856 13.3819 91.586 13.5232 91.656 13.68L94.248 19.152Z" fill="#DAE2ED"/>
<path d="M89.7839 16.704L91.0799 20.448L94.2479 19.152L92.5919 15.624L89.7839 16.704Z" fill="#B7C2CE"/>
<path d="M99.6071 24.9645C99.7754 21.111 97.3032 17.8733 94.0853 17.7328C90.8675 17.5923 88.1225 20.6023 87.9542 24.4558C87.786 28.3092 90.2582 31.547 93.476 31.6875C96.6939 31.828 99.4389 28.818 99.6071 24.9645Z" fill="#DAE2ED"/>
<path d="M97.2013 24.967C97.3209 22.2258 95.5501 19.9221 93.2459 19.8215C90.9418 19.7209 88.9769 21.8615 88.8572 24.6026C88.7375 27.3438 90.5084 29.6475 92.8125 29.7481C95.1167 29.8487 97.0816 27.7081 97.2013 24.967Z" fill="#B7C2CE"/>
<path d="M95.8282 24.9135C95.9131 22.9669 94.6616 21.3313 93.0329 21.2601C91.4041 21.189 90.0148 22.7094 89.9298 24.656C89.8448 26.6026 91.0963 28.2383 92.7251 28.3094C94.3539 28.3805 95.7432 26.8602 95.8282 24.9135Z" fill="#FF903E"/>
<path d="M93.655 22.8128L93.312 22.7034C93.1984 22.6671 93.0769 22.7298 93.0406 22.8435L91.9855 26.1496C91.9492 26.2632 92.0119 26.3848 92.1256 26.421L92.4685 26.5305C92.5822 26.5668 92.7037 26.504 92.74 26.3904L93.7951 23.0843C93.8314 22.9706 93.7686 22.8491 93.655 22.8128Z" fill="#FF7F14"/>
<path d="M77.904 20.4479L44.136 11.0879L50.472 21.3839C51.6993 23.4204 53.6558 24.9135 55.944 25.5599L82.872 32.9759L83.592 30.4559L77.904 20.4479Z" fill="#DAE2ED"/>
<path d="M85.392 18.792L40.464 6.264C40.4017 6.25868 40.3391 6.26967 40.2824 6.29587C40.2257 6.32208 40.1767 6.3626 40.1404 6.41345C40.1041 6.4643 40.0816 6.52373 40.0752 6.5859C40.0689 6.64807 40.0788 6.71082 40.104 6.768L42.048 10.008C42.2702 10.3628 42.5973 10.6396 42.984 10.8L44.136 11.088L77.904 20.448L83.592 30.456L82.872 32.976L82.368 34.92L93.672 38.088L94.896 33.624L87.408 20.304C86.9615 19.5541 86.237 19.0107 85.392 18.792Z" fill="#ECEFF6"/>
<path d="M83.592 30.4559L77.904 20.4479L44.136 11.0879L45.36 13.1759L76.824 21.8879L82.08 31.1759L81.648 32.6879L82.872 32.9759L83.592 30.4559Z" fill="#C5CEDD"/>
<path d="M44.5355 9.27351C44.6311 8.92864 44.4291 8.57154 44.0842 8.47591C43.7393 8.38027 43.3822 8.5823 43.2866 8.92717L43.2789 8.95492C43.1833 9.29978 43.3853 9.65688 43.7302 9.75252C44.075 9.84816 44.4321 9.64613 44.5278 9.30126L44.5355 9.27351Z" fill="#DAE2ED"/>
<path d="M47.0973 10.1239C47.194 9.78029 46.9938 9.42344 46.6502 9.32682C46.3067 9.23019 45.9498 9.43037 45.8532 9.77394L45.8454 9.80158C45.7488 10.1451 45.949 10.502 46.2925 10.5986C46.6361 10.6953 46.9929 10.4951 47.0896 10.1515L47.0973 10.1239Z" fill="#DAE2ED"/>
<path d="M85.909 20.7657C86.0046 20.4208 85.8026 20.0637 85.4577 19.9681C85.1129 19.8725 84.7558 20.0745 84.6601 20.4194L84.6524 20.4471C84.5568 20.792 84.7588 21.1491 85.1037 21.2447C85.4486 21.3404 85.8057 21.1383 85.9013 20.7934L85.909 20.7657Z" fill="#DAE2ED"/>
<path d="M93.2369 35.084L99.1227 34.6208L100.111 47.1819C100.146 47.6198 100.005 48.0534 99.7197 48.3873C99.4344 48.7213 99.0282 48.9283 98.5904 48.9627L94.3555 49.296L93.2369 35.084Z" fill="black"/>
<path d="M96.492 32.1291L89.673 32.6658C89.0784 32.7126 88.6343 33.2325 88.6811 33.8272L88.967 37.4591C89.0138 38.0538 89.5337 38.4979 90.1284 38.4511L96.9473 37.9144C97.5419 37.8676 97.986 37.3476 97.9392 36.753L97.6534 33.121C97.6066 32.5264 97.0866 32.0823 96.492 32.1291Z" fill="#FF5C5C"/>
<path d="M99.576 39.5277L94.176 39.9597C93.8297 39.9892 93.481 39.9487 93.1507 39.8406C92.8204 39.7326 92.5151 39.5592 92.2532 39.3308C91.9912 39.1025 91.7778 38.8237 91.6258 38.5112C91.4737 38.1987 91.386 37.8588 91.368 37.5117L91.008 33.3357C90.9681 32.6406 91.202 31.9575 91.6596 31.4327C92.1171 30.9079 92.7619 30.5831 93.456 30.5277L98.856 30.0957C98.979 30.0859 99.1027 30.1005 99.22 30.1387C99.3373 30.1768 99.446 30.2378 99.5397 30.3181C99.6333 30.3984 99.7102 30.4964 99.7659 30.6065C99.8215 30.7167 99.8549 30.8367 99.864 30.9597L100.512 38.4477C100.522 38.5802 100.505 38.7133 100.464 38.8393C100.422 38.9654 100.355 39.0819 100.268 39.1823C100.181 39.2827 100.076 39.3648 99.9567 39.4241C99.8378 39.4834 99.7085 39.5186 99.576 39.5277Z" fill="#D0D9EA"/>
<path d="M140.976 6.19209L143.424 5.32809C143.577 5.32809 143.723 5.26741 143.831 5.15939C143.939 5.05136 144 4.90486 144 4.75209C144 4.59933 143.939 4.45282 143.831 4.3448C143.723 4.23678 143.577 4.17609 143.424 4.17609L140.976 3.31209C140.874 3.28116 140.781 3.22555 140.706 3.1502C140.631 3.07484 140.575 2.98207 140.544 2.88009L139.68 0.432091C139.636 0.305017 139.553 0.19486 139.443 0.116906C139.334 0.0389531 139.203 -0.00292969 139.068 -0.00292969C138.933 -0.00292969 138.802 0.0389531 138.693 0.116906C138.583 0.19486 138.5 0.305017 138.456 0.432091L137.592 2.88009C137.564 2.97257 137.518 3.05847 137.456 3.13269C137.394 3.20691 137.318 3.26792 137.232 3.31209L134.784 4.17609C134.631 4.17609 134.485 4.23678 134.377 4.3448C134.269 4.45282 134.208 4.59933 134.208 4.75209C134.208 4.90486 134.269 5.05136 134.377 5.15939C134.485 5.26741 134.631 5.32809 134.784 5.32809L137.232 6.19209C137.318 6.23626 137.394 6.29727 137.456 6.37149C137.518 6.44571 137.564 6.53161 137.592 6.62409L138.456 9.07209C138.5 9.19917 138.583 9.30932 138.693 9.38728C138.802 9.46523 138.933 9.50711 139.068 9.50711C139.203 9.50711 139.334 9.46523 139.443 9.38728C139.553 9.30932 139.636 9.19917 139.68 9.07209L140.544 6.62409C140.575 6.52211 140.631 6.42934 140.706 6.35399C140.781 6.27863 140.874 6.22303 140.976 6.19209Z" fill="#F3B2CF"/>
<path d="M31.824 15.6244L31.104 16.9924V17.2804C31.1085 17.3358 31.1343 17.3874 31.176 17.4244L31.392 17.5684H31.608L33.048 16.9204H33.336L34.704 17.5684H34.992L35.136 17.4244L35.28 17.2084C35.2833 17.1693 35.2786 17.1301 35.2662 17.0929C35.2539 17.0558 35.2341 17.0216 35.208 16.9924L34.56 15.6244C34.56 15.5524 34.488 15.5524 34.488 15.4804C34.488 15.4084 34.56 15.3364 34.56 15.2644L35.208 13.8964C35.2341 13.8671 35.2539 13.8329 35.2662 13.7958C35.2786 13.7586 35.2833 13.7194 35.28 13.6804L35.136 13.4644H34.704L33.336 14.1124H32.976L31.608 13.4644H31.176C31.1499 13.4936 31.1301 13.5278 31.1177 13.5649C31.1054 13.6021 31.1007 13.6413 31.104 13.6804V13.8964L31.752 15.2644C31.778 15.2936 31.7979 15.3278 31.8102 15.3649C31.8226 15.4021 31.8273 15.4413 31.824 15.4804V15.6244Z" fill="#FFD01A"/>
<path d="M107.698 76.218C107.191 75.7119 106.382 75.7005 105.89 76.1925C105.398 76.6846 105.41 77.4938 105.916 77.9999L106.781 78.8654C107.287 79.3715 108.096 79.3829 108.589 78.8909C109.081 78.3988 109.069 77.5896 108.563 77.0835L107.698 76.218Z" fill="#83DDC5"/>
<path d="M114.928 83.4177C114.422 82.9116 113.613 82.9002 113.121 83.3922C112.629 83.8843 112.64 84.6935 113.146 85.1996L114.012 86.0651C114.518 86.5712 115.327 86.5826 115.819 86.0906C116.311 85.5985 116.3 84.7893 115.793 84.2832L114.928 83.4177Z" fill="#83DDC5"/>
<path d="M115.785 77.941C116.292 77.4349 116.303 76.6257 115.811 76.1336C115.319 75.6416 114.51 75.653 114.004 76.1591L113.138 77.0246C112.632 77.5307 112.62 78.3399 113.113 78.832C113.605 79.324 114.414 79.3126 114.92 78.8065L115.785 77.941Z" fill="#83DDC5"/>
<path d="M108.555 85.1407C109.061 84.6346 109.073 83.8254 108.581 83.3333C108.088 82.8413 107.279 82.8527 106.773 83.3588L105.908 84.2243C105.402 84.7304 105.39 85.5396 105.882 86.0317C106.374 86.5237 107.183 86.5123 107.69 86.0062L108.555 85.1407Z" fill="#83DDC5"/>
<path d="M21.024 40.9682C21.024 40.3717 20.5405 39.8882 19.944 39.8882C19.3475 39.8882 18.864 40.3717 18.864 40.9682V42.977C18.864 43.5735 19.3475 44.057 19.944 44.057C20.5405 44.057 21.024 43.5735 21.024 42.977V40.9682Z" fill="#9CB8FF"/>
<path d="M21.024 48.8163C21.024 48.2199 20.5405 47.7363 19.944 47.7363C19.3475 47.7363 18.864 48.2199 18.864 48.8163V50.8251C18.864 51.4216 19.3475 51.9051 19.944 51.9051C20.5405 51.9051 21.024 51.4216 21.024 50.8251V48.8163Z" fill="#9CB8FF"/>
<path d="M24.84 46.9442C25.4365 46.9442 25.92 46.4606 25.92 45.8642C25.92 45.2677 25.4365 44.7842 24.84 44.7842H22.8312C22.2347 44.7842 21.7512 45.2677 21.7512 45.8642C21.7512 46.4606 22.2347 46.9442 22.8312 46.9442H24.84Z" fill="#9CB8FF"/>
<path d="M16.992 47.016C17.5885 47.016 18.072 46.5324 18.072 45.936C18.072 45.3395 17.5885 44.856 16.992 44.856H14.9832C14.3868 44.856 13.9032 45.3395 13.9032 45.936C13.9032 46.5324 14.3868 47.016 14.9832 47.016H16.992Z" fill="#9CB8FF"/>
</svg>
