<svg enable-background="new 0 0 405 288.5" viewBox="0 0 405 288.5" xmlns="http://www.w3.org/2000/svg" xmlns:xlink="http://www.w3.org/1999/xlink"><filter id="a" filterUnits="userSpaceOnUse" height="2" width="88.1" x="-2" y="-1"><feColorMatrix values="1 0 0 0 0 0 1 0 0 0 0 0 1 0 0 0 0 0 1 0"/></filter><mask id="b" height="2" maskUnits="userSpaceOnUse" width="88.1" x="-2" y="-1"><g filter="url(#a)"><path d="m-2 1v-2h88.1v2z" fill="#fff"/></g></mask><path d="m82.6 276.5h277.8c18.4 0 33.3-14.9 33.3-33.3s-14.9-33.3-33.3-33.3h-16.9c-19 0-34.4-15.4-34.4-34.4v-.7c0-19 15.4-34.4 34.4-34.4h22.3a37.1 37.1 0 0 0 -.1-74.2c-49.5.1-117.1-.1-165.6-.3a35.15 35.15 0 0 0 -35.3 35.2v47.2a29.6 29.6 0 0 1 -29.6 29.6h-52.6c-27.2 0-49.3 22.1-49.3 49.3s22.1 49.3 49.3 49.3" fill="#f7f7f8" fill-opacity=".9" transform="translate(2 2)"/><path d="m335.1 84.6-14.9-6.7a3.5 3.5 0 0 0 -3.3.2c-1 .6-1.6 1.7-1.6 2.9v12.1c0 1.2.5 2.2 1.5 2.9a3.6 3.6 0 0 0 3.2.4l14.9-5.4c1.4-.5 2.2-1.7 2.3-3.2 0-1.4-.7-2.6-2.1-3.2" fill="#f8b3b5" transform="translate(2 2)"/><path d="m123.6 287.5h258.1m-380.7 0h85.5" fill="none" stroke="#1f2225" stroke-linecap="round" stroke-linejoin="round" stroke-width="2"/><g transform="translate(2 2)"><path d="m99.1 83.5.9-1.4c.5-.7 1.6-.6 1.9.1l.7 1.5c.3.8-.2 1.6-1 1.6h-1.6c-.8-.1-1.3-1.1-.9-1.8m-23.8-12.9-2.1-1.4c-.9-.6-.5-2 .5-2 .2 0 .5.1.7.2l2.1 1.4c.9.6.5 2-.5 2-.3 0-.5 0-.7-.2m4-4.8c.4 1-.8 1.9-1.7 1.3l-2.1-1.4c-.2-.1-.4-.3-.4-.6-.4-1 .8-1.9 1.7-1.3l2.1 1.4c.1.2.3.4.4.6m26.6 20.2-3.7-8c-.2-.3-.5-.6-.8-.6-.4 0-.7.1-.9.4l-2 3.1-15-9.9c-.2-.1-.4-.3-.4-.6l-2.1-5.9c-.1-.2-.2-.4-.4-.6l-7.9-5.2c-.4-.2-.8-.2-1.2 0-.3.3-.5.7-.3 1.1l1.4 3.8-2.6-1.5c-.5-.3-1.1-.2-1.4.3s-.2 1.1.3 1.4l2.5 1.7-4 .2c-.4 0-.8.3-.9.7s.1.9.4 1.1l7.9 5.2c.2.1.4.2.7.2l6.3-.4c.2 0 .5 0 .7.2l15 9.9-2 3.1c-.2.3-.2.7-.1 1 .1.2.2.3.3.4.2.1.3.2.5.2l8.8.2c.3 0 .7-.2.9-.4.1-.5.2-.8 0-1.1m23.6-53.9 1.5-.9c.7-.5 1.7.1 1.7 1v1.6c0 .8-.9 1.4-1.6 1l-1.4-.7c-.9-.4-1-1.5-.2-2m-16.3-21.7-1.3-2.1c-.6-.9.4-2 1.4-1.6.2.1.4.2.5.5l1.3 2.1c.6.9-.4 2-1.4 1.6zm5.7-2.7c-.1 1.1-1.5 1.4-2.1.5l-1.3-2.1c-.1-.2-.2-.4-.2-.7.1-1.1 1.5-1.4 2.1-.5l1.3 2.1c.2.2.2.5.2.7m15.7 29.5v-8.8c0-.4-.2-.7-.5-.9a.9.9 0 0 0 -1 0l-3.1 1.9-9.4-15.3c-.1-.2-.2-.4-.2-.7l.6-6.3c0-.2 0-.5-.2-.7l-5-8.1c-.2-.4-.7-.5-1.1-.4s-.7.5-.8.9l-.4 4-1.5-2.4c-.3-.5-.9-.6-1.4-.3s-.6.9-.3 1.4l1.6 2.6-3.8-1.5c-.4-.2-.9 0-1.1.3-.3.3-.3.8-.1 1.2l5 8.1c.1.2.3.4.5.5l5.9 2.3c.2.1.4.2.5.5l9.4 15.3-3.1 1.9c-.3.2-.5.5-.5.9 0 .2.1.3.1.5.1.2.2.3.4.4l7.9 3.9c.3.2.7.1 1 0 .4-.5.6-.8.6-1.2m-2.6 57.4 7.5-6 1.1 9zm-18.3-22.5-9.5-12a1 1 0 0 1 1-1.6l3.2.8c.2.1.4.2.5.3l9.5 12a1 1 0 0 1 -1 1.6l-3.2-.8c-.1-.1-.3-.2-.5-.3zm8.1-5.7.1 3.3c0 1-1.2 1.4-1.8.7l-9.5-12c-.1-.2-.2-.4-.2-.6l-.1-3.3c0-1 1.2-1.4 1.8-.7l9.5 12c.1.2.2.4.2.6zm20.9 32.6-1.4-12.4c0-.4-.3-.7-.6-.8s-.7-.1-1 .1l-1.3 1a3.98 3.98 0 0 1 -5.6-.6l-8.5-10.7c-.1-.2-.2-.4-.2-.6l-.3-9.3c0-.2-.1-.4-.2-.6l-13.7-17.2c-.3-.3-.7-.5-1.1-.3-.4.1-.7.5-.7 1l.2 7.3c0 .7-.6 1.2-1.3 1l-7.1-1.9c-.4-.1-.9.1-1.1.4s-.2.8.1 1.2l13.7 17.2c.1.2.3.3.5.3l9 2.4c.2.1.4.2.5.3l8.5 10.7c1.4 1.7 1.1 4.2-.6 5.6l-1.3 1c-.3.2-.4.6-.4.9 0 .2.1.3.2.5.1.1.3.3.4.3l11.8 4.2c.3.1.7.1 1-.2.4-.1.5-.4.5-.8zm-92 7.4 3.4-9 5.5 7.2zm-27.1-10.1-14.4-5.4c-.9-.3-.8-1.6.1-1.9l3.2-.9c.2-.1.4-.1.6 0l14.3 5.4c.9.3.8 1.6-.1 1.9l-3.2.9c-.1.1-.3.1-.5 0zm4-8.9 1.8 2.8c.5.8-.3 1.8-1.2 1.5l-14.3-5.4c-.2-.1-.4-.2-.5-.4l-1.8-2.9c-.5-.8.3-1.8 1.2-1.5l14.3 5.5c.2 0 .4.2.5.4zm34.6 17.3-7.6-9.9c-.2-.3-.6-.4-.9-.4-.4.1-.7.3-.8.6l-.6 1.5c-.8 2.1-3.1 3.1-5.2 2.3l-12.7-4.8c-.2-.1-.4-.2-.5-.4l-5-7.9c-.1-.2-.3-.3-.5-.4l-20.5-7.8c-.4-.2-.9 0-1.1.3-.3.3-.3.8-.1 1.2l3.9 6.2c.4.6.1 1.3-.6 1.5l-7 2c-.4.1-.7.5-.7.9s.2.8.6 1l20.6 7.8c.2.1.4.1.6 0l9-2.6c.2-.1.4-.1.6 0l12.8 4.8c2.1.8 3.1 3.1 2.3 5.2l-.6 1.5c-.1.3-.1.7.2 1 .1.1.3.2.4.3.2.1.4.1.5 0l12.3-2.4c.3-.1.6-.3.7-.6.2-.3.1-.6-.1-.9z" fill="#b9bbbe"/><path d="m234.4 185.5c-18.2 0-33 14.8-33 33v67h66v-67c0-18.2-14.8-33-33-33" fill="#fff"/><path d="m185.6 174.8s0 .1 0 0v9.6c0 1.4-1.2 2.6-2.6 2.6h-14.7c-.6 0-1-.4-1-1v-14.4c0-1.4 1.2-2.6 2.6-2.6h13.2c1.4 0 2.6 1.2 2.6 2.6zm-7.1 29.5c0 1.4-1.1 2.6-2.6 2.6h-26.7c-1.4 0-2.6-1.1-2.6-2.6v-12.9c0-1.4 1.2-2.6 2.6-2.6h26.7c1.4 0 2.6 1.1 2.6 2.6zm87.2-61.8c0-2.2 1.8-4 4-4h10.7c3.4 0 6.1 2.7 6.1 6.1v2.3c0 1.9 1.3 3.5 3.1 3.9.6.1 1 .5 1.2 1 .3 1-.4 2.1-1.5 2.1h-16.3c-4 0-7.2-3.2-7.2-7.2v-4.2zm-41.1-.9c0-1.7 1.4-3.1 3.1-3.1h15.8c1.7 0 3.1 1.4 3.1 3.1 0 .6.4 1 1 1s1-.4 1-1c0-1.7 1.4-3.1 3.1-3.1h1.8c1.7 0 3.1 1.4 3.1 3.1v7.9c0 2.2-1.8 4-4 4s-4-1.8-4-4v-2.9c0-.6-.4-1-1-1s-1 .4-1 1v3.2c0 2.2-1.8 4-4 4h-14c-2.2 0-4-1.8-4-4zm-15 0c0-1.7 1.4-3.1 3.1-3.1h.8c1.7 0 3.1 1.4 3.1 3.1v8.4c0 1.9-1.6 3.5-3.5 3.5s-3.5-1.6-3.5-3.5zm-17.9-3.1h12.8c1.7 0 3.1 1.4 3.1 3.1v6.1c0 3.4-2.7 6.1-6.1 6.1h-6.7c-3.4 0-6.1-2.7-6.1-6.1v-6.1c-.1-1.7 1.3-3.1 3-3.1m-45.1 113.5c0-1.7 1.4-3.1 3.1-3.1h21.8c1 0 1.9.5 2.5 1.2l11.1 14.7c.4.5.6 1.2.6 1.8v.2h-36c-1.7 0-3.1-1.4-3.1-3.1zm144.8 31.5c0 .6-.4 1-1 1h-21c-.6 0-1-.4-1-1v-6.5c0-.6.4-1 1-1h21c.6 0 1 .4 1 1zm0-16.9c0 4-3.3 7.3-7.3 7.3h-8.4c-4 0-7.3-3.3-7.3-7.3v-9.6c0-.6.4-1 1-1h21c.6 0 1 .4 1 1zm-23-13.6v-16c0-.6.4-1 1-1h14c.6 0 1 .4 1 1v16c0 .6-.4 1-1 1h-14a1 1 0 0 1 -1-1m23-41.6c0 1.4-1.1 2.5-2.5 2.5h-11.8c-1.4 0-2.5-1.1-2.5-2.5v-12.6c0-1.6 1.3-2.9 2.9-2.9h11.4c1.4 0 2.5 1.1 2.5 2.5zm3-56.5c0-2.2 1.8-4 4-4h26.6c2.2 0 4 1.8 4 4v10a2 2 0 0 1 -2 2h-27.5c-2.8 0-5-2.2-5-5v-7zm50 110.2c0 1-.8 1.8-1.8 1.8h-4.8c-2.8 0-5-2.2-5-5v-8c0-2.8 2.2-5 5-5h4.8c1 0 1.8.8 1.8 1.8zm0-20c0 1.1-1 2-2.1 1.8-.9-.1-1.5-1-1.5-1.9v-2.6c0-.6-.4-1-1-1s-1 .4-1 1v2.7c0 1-.8 1.8-1.8 1.8h-5.2c-2.8 0-5-2.2-5-5v-8c0-2.8 2.2-5 5-5h5.2c1 0 1.8.8 1.8 1.8v5.8c0 .6.4 1 1 1s1-.4 1-1v-5.7c0-.9.6-1.8 1.5-1.9 1.2-.2 2.1.7 2.1 1.8z" fill="#dcddde"/><path d="m198.5 185.1v.7c0 .6.4 1 1 1s1-.4 1-1v-.7c0-.6-.4-1-1-1a1 1 0 0 0 -1 1" fill="#b9bbbe"/><path d="m183.9 217.9c-18.2 0-25.5 10-16.2 22.3l34.1 45.3h66l-34.1-45.3c-9.3-12.3-31.6-22.3-49.8-22.3" fill="#f7f7f8"/><path d="m177.8 153.4c0-1.4 1.1-2.6 2.6-2.6h2.6c1.4 0 2.6 1.2 2.6 2.6v10.8c0 1.4-1.2 2.6-2.6 2.6h-2.7c-1.4 0-2.6-1.1-2.6-2.6v-10.8z" fill="#fff"/><path d="m146.6 171.5c0-1.4 1.1-2.6 2.6-2.6h13.6c1.4 0 2.6 1.1 2.6 2.6v14.4c0 .6-.4 1-1 1h-15.1c-1.4 0-2.6-1.2-2.6-2.6v-12.8z" fill="#f7f7f8"/><path d="m183.1 206.9c-1.4 0-2.6-1.2-2.6-2.6v-12.9c0-1.4 1.2-2.6 2.6-2.6s2.6 1.1 2.6 2.6v12.8c-.1 1.6-1.2 2.7-2.6 2.7m17.3 11.6v.8c-4.3-1.1-7.6-1.9-11.7-2.2v-1.1h9.2c1.4-.1 2.5 1.1 2.5 2.5" fill="#fff"/><path d="m212 193c-.7.6-1.5.9-2.4.9h-5.4c-2 0-3.6-1.6-3.6-3.6v-.2c0-.6-.4-1-1-1s-1 .4-1 1v.2c0 2-1.6 3.6-3.6 3.6h-2.6c-2 0-3.6-1.6-3.6-3.6v-10.7c0-2.1 1.7-3.7 3.7-3.7h2.4c2.1 0 3.7 1.7 3.7 3.7 0 .6.4 1 1 1s1-.4 1-1c0-2.1 1.7-3.7 3.7-3.7h72.4c2.1 0 3.7 1.7 3.7 3.7v9.8c0 2.5-2 4.5-4.5 4.5h-16.2c-1.1 0-2.1-.4-2.9-1.1-4.6-4-10.3-6.8-16.5-7.8h-.1a33.71 33.71 0 0 0 -28.2 8" fill="#f7f7f8"/><path d="m209.6 141.6c0-1.7 1.4-3.1 3.1-3.1h.8c1.7 0 3.1 1.4 3.1 3.1v8.4c0 1.9-1.6 3.5-3.5 3.5s-3.5-1.6-3.5-3.5z" fill="#fff"/><path d="m156.2 229.9c0-.6.4-1 1-1h2.5c1.6 0 2.9 1.2 3.1 2.8.4 2.9 1.8 6 4.1 9.1l.9 1.2c1.5 2 .1 5-2.5 5h-8.1c-.6 0-1-.4-1-1z" fill="#f7f7f8"/><path d="m146.6 232c0-1.7 1.4-3.1 3.1-3.1h3.5c.6 0 1 .4 1 1v16c0 .6-.4 1-1 1h-3.5c-1.7 0-3.1-1.4-3.1-3.1zm49.3 52.5h-5.2a2 2 0 0 1 -2-2v-7c0-1.9 2.5-2.7 3.6-1.2l5.2 7c1 1.3 0 3.2-1.6 3.2m95.5-31.5c0 .6-.4 1-1 1h-3.1c-.6 0-1-.4-1-1v-16c0-.6.4-1 1-1h3.1c.6 0 1 .4 1 1zm0-20.1c0 .6-.4 1-1 1h-19.5c-1.4 0-2.5-1.1-2.5-2.5v-13.1c0-1.4 1.1-2.5 2.5-2.5h19.5c.6 0 1 .4 1 1zm3-2.1c0-1 .8-1.8 1.8-1.8h23.5c2.8 0 5 2.2 5 5v8c0 2.8-2.2 5-5 5h-23.5c-1 0-1.8-.8-1.8-1.8z" fill="#fff"/><path d="m294.4 253.9c0-2.8 2.2-5 5-5h26.3c2.8 0 5 2.2 5 5v8c0 2.8-2.2 5-5 5h-26.3c-2.8 0-5-2.2-5-5z" fill="#f7f7f8"/><path d="m344.4 178.9c0 4.4-3.6 8-8 8h-34c-4.4 0-8-3.6-8-8v-8c0-1.1.9-2 2-2h46a2 2 0 0 1 2 2zm-3-12h-8.5a2 2 0 0 1 -2-2v-10c0-2.2 1.8-4 4-4h5.5c2.2 0 4 1.8 4 4v9a3 3 0 0 1 -3 3" fill="#fff"/></g><path d="m86.1 0c0-.6-.4-1-1-1h-86.1c-.6 0-1 .4-1 1s.4 1 1 1h86.1c.6 0 1-.5 1-1" fill="#b9bbbe" mask="url(#b)" transform="translate(2 287.54)"/><path d="m99.1 83.5.9-1.4c.5-.7 1.6-.6 1.9.1l.7 1.5c.3.8-.2 1.6-1 1.6h-1.6c-.8-.1-1.3-1.1-.9-1.8m-23.8-12.9-2.1-1.4c-.9-.6-.5-2 .5-2 .2 0 .5.1.7.2l2.1 1.4c.9.6.5 2-.5 2-.3 0-.5 0-.7-.2m4-4.8c.4 1-.8 1.9-1.7 1.3l-2.1-1.4c-.2-.1-.4-.3-.4-.6-.4-1 .8-1.9 1.7-1.3l2.1 1.4c.1.2.3.4.4.6" fill="#dcddde" transform="translate(2 2)"/><path d="m113.2 10.4-1.3-2.1c-.6-.9.4-2 1.4-1.6.2.1.4.2.5.5l1.3 2.1c.6.9-.4 2-1.4 1.6zm5.7-2.7c-.1 1.1-1.5 1.4-2.1.5l-1.3-2.1c-.1-.2-.2-.4-.2-.7.1-1.1 1.5-1.4 2.1-.5l1.3 2.1c.2.2.2.5.2.7m13.1 86.9 7.5-6 1 9zm-81.3 11.8 3.4-9 5.6 7.2z" fill="#f7f7f8" transform="translate(2 2)"/><path d="m27.6 87.4 1.8 2.8c.5.8-.3 1.8-1.2 1.5l-14.3-5.4c-.2-.1-.4-.2-.5-.4l-1.8-2.9c-.5-.8.3-1.8 1.2-1.5l14.3 5.5c.2 0 .4.2.5.4m-4 8.9-14.4-5.4c-.9-.3-.8-1.6.1-1.9l3.2-.9c.2-.1.4-.1.6 0l14.3 5.4c.9.3.8 1.6-.1 1.9l-3.2.9c-.1.1-.3.1-.5 0" fill="#dcddde" transform="translate(2 2)"/><path d="m91.3 196.9c-.8 0-1.5-.7-1.5-1.5 0-.6-.4-1-1-1s-1 .4-1 1c0 .8-.7 1.5-1.5 1.5-.6 0-1 .4-1 1s.4 1 1 1c.8 0 1.5.7 1.5 1.5 0 .6.4 1 1 1s1-.4 1-1c0-.8.7-1.5 1.5-1.5.6 0 1-.4 1-1 0-.5-.4-1-1-1m146-103.5-1.2 1.2c-.4.4-.4 1 0 1.4.2.2.5.3.7.3.3 0 .5-.1.7-.3l1.2-1.2c.4-.4.4-1 0-1.4s-1-.4-1.4 0m-5.9 5.9-1.2 1.2c-.4.4-.4 1 0 1.4.2.2.5.3.7.3.3 0 .5-.1.7-.3l1.2-1.2c.4-.4.4-1 0-1.4s-1-.4-1.4 0m6.2 0c-.4-.4-1-.4-1.4 0s-.4 1 0 1.4l1.2 1.2c.2.2.5.3.7.3.3 0 .5-.1.7-.3.4-.4.4-1 0-1.4zm-6-5.9c-.4-.4-1-.4-1.4 0s-.4 1 0 1.4l1.2 1.2c.2.2.5.3.7.3.3 0 .5-.1.7-.3.4-.4.4-1 0-1.4zm-152.9 121.6-1.2 1.2c-.4.4-.4 1 0 1.4.2.2.5.3.7.3.3 0 .5-.1.7-.3l1.2-1.2c.4-.4.4-1 0-1.4s-1-.4-1.4 0m-5.9 5.9-1.2 1.2c-.4.4-.4 1 0 1.4.2.2.5.3.7.3.3 0 .5-.1.7-.3l1.2-1.2c.4-.4.4-1 0-1.4s-1-.4-1.4 0m6.1 0c-.4-.4-1-.4-1.4 0s-.4 1 0 1.4l1.2 1.2c.2.2.5.3.7.3.3 0 .5-.1.7-.3.4-.4.4-1 0-1.4zm-5.9-5.9c-.4-.4-1-.4-1.4 0s-.4 1 0 1.4l1.2 1.2c.2.2.5.3.7.3.3 0 .5-.1.7-.3.4-.4.4-1 0-1.4zm183.7-101.3c-.8 0-1.5-.7-1.5-1.5s.7-1.5 1.5-1.5 1.5.7 1.5 1.5-.7 1.5-1.5 1.5m0-5c-1.9 0-3.5 1.6-3.5 3.5s1.6 3.5 3.5 3.5 3.5-1.6 3.5-3.5-1.6-3.5-3.5-3.5" fill="#b9bbbe" transform="translate(2 2)"/><path d="m341.4 166.9h-8.5a2 2 0 0 1 -2-2v-10c0-2.2 1.8-4 4-4h5.5c2.2 0 4 1.8 4 4v9a3 3 0 0 1 -3 3zm3 12c0 4.4-3.6 8-8 8h-34c-4.4 0-8-3.6-8-8v-8c0-1.1.9-2 2-2h46a2 2 0 0 1 2 2zm0 26.2c0 1-.8 1.8-1.8 1.8h-31c-1 0-1.8-.8-1.8-1.8v-1.5c0-.6-.4-1-1-1s-1 .4-1 1v1.5c0 1-.8 1.8-1.8 1.8h-9.7c-1 0-1.8-.8-1.8-1.8v-14.3c0-1 .8-1.8 1.8-1.8h5.5c3.3 0 6 2.7 6 6v3.9c0 .6.4 1 1 1s1-.4 1-1v-3.9c0-3.3 2.7-6 6-6h26.8c1 0 1.8.8 1.8 1.8zm0 20c0 1-.8 1.8-1.8 1.8h-46.3c-1 0-1.8-.8-1.8-1.8v-14.3c0-1 .8-1.8 1.8-1.8h46.3c1 0 1.8.8 1.8 1.8zm0 20c0 1.1-1 2-2.1 1.8-.9-.1-1.5-1-1.5-1.9v-2.6c0-.6-.4-1-1-1s-1 .4-1 1v2.7c0 1-.8 1.8-1.8 1.8h-5.2c-2.8 0-5-2.2-5-5v-8c0-2.8 2.2-5 5-5h5.2c1 0 1.8.8 1.8 1.8v5.8c0 .6.4 1 1 1s1-.4 1-1v-5.7c0-.9.6-1.8 1.5-1.9 1.2-.2 2.1.7 2.1 1.8zm0 20c0 1-.8 1.8-1.8 1.8h-4.8c-2.8 0-5-2.2-5-5v-8c0-2.8 2.2-5 5-5h4.8c1 0 1.8.8 1.8 1.8zm0 17.6c0 1-.8 1.8-1.8 1.8h-46.3c-1 0-1.8-.8-1.8-1.8v-11.9c0-1 .8-1.8 1.8-1.8h46.3c1 0 1.8.8 1.8 1.8zm-50-28.8c0-2.8 2.2-5 5-5h26.3c2.8 0 5 2.2 5 5v8c0 2.8-2.2 5-5 5h-26.3c-2.8 0-5-2.2-5-5zm0-23.1c0-1 .8-1.8 1.8-1.8h23.5c2.8 0 5 2.2 5 5v8c0 2.8-2.2 5-5 5h-23.5c-1 0-1.8-.8-1.8-1.8zm0-75.9c0-2.2 1.8-4 4-4h26.6c2.2 0 4 1.8 4 4v10a2 2 0 0 1 -2 2h-27.5c-2.8 0-5-2.2-5-5v-7zm-3 14.5c0 2.5-2 4.5-4.5 4.5h-9.1a2 2 0 0 1 -2-2c0-.6-.4-1-1-1s-1 .4-1 1a2 2 0 0 1 -2 2h-28.3a2 2 0 0 1 -2-2v-13c0-1.7 1.3-3 3-3h26.3c1.7 0 3 1.3 3 3v9.2c0 .6.4 1 1 1s1-.4 1-1v-9.2c0-1.7 1.3-3 3-3h8.1c2.5 0 4.5 2 4.5 4.5zm0 20c0 2.5-2 4.5-4.5 4.5s-4.5-2-4.5-4.5v-9.8c0-2.1 1.7-3.7 3.7-3.7h3.4a2 2 0 0 1 2 2v11.5zm0 22c0 1.4-1.1 2.5-2.5 2.5h-11.8c-1.4 0-2.5-1.1-2.5-2.5v-12.6c0-1.6 1.3-2.9 2.9-2.9h11.4c1.4 0 2.5 1.1 2.5 2.5zm0 21.5c0 .6-.4 1-1 1h-19.5c-1.4 0-2.5-1.1-2.5-2.5v-13.1c0-1.4 1.1-2.5 2.5-2.5h19.5c.6 0 1 .4 1 1zm0 20.1c0 .6-.4 1-1 1h-3.1c-.6 0-1-.4-1-1v-16c0-.6.4-1 1-1h3.1c.6 0 1 .4 1 1zm-23 0v-16c0-.6.4-1 1-1h14c.6 0 1 .4 1 1v16c0 .6-.4 1-1 1h-14a1 1 0 0 1 -1-1zm23 13.6c0 4-3.3 7.3-7.3 7.3h-8.4c-4 0-7.3-3.3-7.3-7.3v-9.6c0-.6.4-1 1-1h21c.6 0 1 .4 1 1zm0 16.9c0 .6-.4 1-1 1h-21c-.6 0-1-.4-1-1v-6.5c0-.6.4-1 1-1h21c.6 0 1 .4 1 1zm-23.7-71.6c-.8-4.2-2.4-8.1-4.6-11.5-1.2-1.9.1-4.5 2.4-4.5h4.3c1.6 0 2.9 1.3 2.9 2.9v12.6c0 1.4-1.1 2.5-2.5 2.5-1.2 0-2.2-.8-2.5-2zm-13.3 72.6h-41.8c-6.4 0-12.5-3-16.3-8.1l-27.7-36.7c-3.7-5-4.8-9.7-3-13.4 2.3-4.7 9-7.3 18.3-7.3 17.9 0 39.9 9.8 49 21.9l26 34.5c2.9 3.7.2 9.1-4.5 9.1zm-58.5 0h-5.2a2 2 0 0 1 -2-2v-7c0-1.9 2.5-2.7 3.6-1.2l5.2 7c1 1.3 0 3.2-1.6 3.2zm-13.3 0h-11.2c-2.2 0-4-1.8-4-4v-4.9c0-.6-.4-1-1-1s-1 .4-1 1v4.9c0 2.2-1.8 4-4 4h-11.7c-1.7 0-3.1-1.4-3.1-3.1v-9.3c0-1.7 1.4-3.1 3.1-3.1h14.7c.6 0 1 .4 1 1v1.4c0 .6.4 1 1 1s1-.4 1-1v-1.4c0-.6.4-1 1-1h14.2c1.7 0 3.1 1.4 3.1 3.1v9.3c0 1.7-1.4 3.1-3.1 3.1zm-36-32.5c0-1.7 1.4-3.1 3.1-3.1h21.8c1 0 1.9.5 2.5 1.2l11.1 14.7c.4.5.6 1.2.6 1.8v.2h-36c-1.7 0-3.1-1.4-3.1-3.1zm0-20c0-1.7 1.4-3.1 3.1-3.1h3.5c.6 0 1 .4 1 1v16c0 .6-.4 1-1 1h-3.5c-1.7 0-3.1-1.4-3.1-3.1zm9.6-2.1c0-.6.4-1 1-1h2.5c1.6 0 2.9 1.2 3.1 2.8.4 2.9 1.8 6 4.1 9.1l.9 1.2c1.5 2 .1 5-2.5 5h-8.1c-.6 0-1-.4-1-1zm35.5-91.4h12.8c1.7 0 3.1 1.4 3.1 3.1v6.1c0 3.4-2.7 6.1-6.1 6.1h-6.7c-3.4 0-6.1-2.7-6.1-6.1v-6.1c-.1-1.7 1.3-3.1 3-3.1zm17.9 3.1c0-1.7 1.4-3.1 3.1-3.1h.8c1.7 0 3.1 1.4 3.1 3.1v8.4c0 1.9-1.6 3.5-3.5 3.5s-3.5-1.6-3.5-3.5zm2.4 51.4c-.7.6-1.5.9-2.4.9h-5.4c-2 0-3.6-1.6-3.6-3.6v-.2c0-.6-.4-1-1-1s-1 .4-1 1v.2c0 2-1.6 3.6-3.6 3.6h-2.6c-2 0-3.6-1.6-3.6-3.6v-10.7c0-2.1 1.7-3.7 3.7-3.7h2.4c2.1 0 3.7 1.7 3.7 3.7 0 .6.4 1 1 1s1-.4 1-1c0-2.1 1.7-3.7 3.7-3.7h72.4c2.1 0 3.7 1.7 3.7 3.7v9.8c0 2.5-2 4.5-4.5 4.5h-16.2c-1.1 0-2.1-.4-2.9-1.1-4.6-4-10.3-6.8-16.5-7.8h-.1a33.71 33.71 0 0 0 -28.2 8zm-9.6 25.5c0-15.3 10.8-28.1 25.2-31.3 1.1-.2 1.7 1.3.7 1.8-10.2 5.9-16.9 17-16.9 29.4v3.1c0 .7-.7 1.2-1.4.9-2.3-.9-4.6-1.7-6.9-2.5-.4-.1-.7-.5-.7-.9zm-2 0v.8c-4.3-1.1-7.6-1.9-11.7-2.2v-1.1h9.2c1.4-.1 2.5 1.1 2.5 2.5zm-2.2-4.6h-6.6a3 3 0 0 1 -3-3v-12.1a3 3 0 0 1 3-3h11.4c2.3 0 3.8 2.6 2.6 4.5a36 36 0 0 0 -4.5 11.1c-.3 1.5-1.5 2.5-2.9 2.5zm38.3-58c1.7 0 3 1.3 3 3v13a2 2 0 0 1 -2 2h-41.1c-4.3 0-7.8-3.5-7.8-7.8v-2.3c0-4.4 3.6-8 8-8h39.9zm-11.9-14.3c0-1.7 1.4-3.1 3.1-3.1h15.8c1.7 0 3.1 1.4 3.1 3.1 0 .6.4 1 1 1s1-.4 1-1c0-1.7 1.4-3.1 3.1-3.1h1.8c1.7 0 3.1 1.4 3.1 3.1v7.9c0 2.2-1.8 4-4 4s-4-1.8-4-4v-2.9c0-.6-.4-1-1-1s-1 .4-1 1v3.2c0 2.2-1.8 4-4 4h-14c-2.2 0-4-1.8-4-4zm41.1.9c0-2.2 1.8-4 4-4h10.7c3.4 0 6.1 2.7 6.1 6.1v2.3c0 1.9 1.3 3.5 3.1 3.9.6.1 1 .5 1.2 1 .3 1-.4 2.1-1.5 2.1h-16.3c-4 0-7.2-3.2-7.2-7.2v-4.2zm-82.6 64.4c-1.4 0-2.6-1.2-2.6-2.6v-12.9c0-1.4 1.2-2.6 2.6-2.6s2.6 1.1 2.6 2.6v12.8c-.1 1.6-1.2 2.7-2.6 2.7zm-4.6-2.6c0 1.4-1.1 2.6-2.6 2.6h-26.7c-1.4 0-2.6-1.2-2.6-2.6v-12.9c0-1.4 1.2-2.6 2.6-2.6h26.7c1.4 0 2.6 1.1 2.6 2.6zm-31.9-32.8c0-1.4 1.2-2.6 2.6-2.6h13.6c1.4 0 2.6 1.2 2.6 2.6v14.4c0 .6-.4 1-1 1h-15.1c-1.4 0-2.6-1.2-2.6-2.6v-12.8zm0-18.1c0-1.4 1.2-2.6 2.6-2.6h24.1c1.4 0 2.6 1.1 2.6 2.6v7.4c0 3.3-2.7 6-6 6h-17.2c-3.3 0-6-2.7-6-6v-7.4zm31.2 0c0-1.4 1.2-2.6 2.6-2.6h2.7c1.4 0 2.6 1.1 2.6 2.6v10.8c0 1.4-1.1 2.6-2.6 2.6h-2.7c-1.4 0-2.6-1.1-2.6-2.6zm7.8 21.4s0 .1 0 0v9.6c0 1.4-1.1 2.6-2.6 2.6h-14.7c-.6 0-1-.4-1-1v-14.4c0-1.4 1.2-2.6 2.6-2.6h13.2c1.4 0 2.6 1.1 2.6 2.6zm-50.7 60.4-13.6-7.6a6.87 6.87 0 0 0 -6.8 0l-13.6 7.6v-74.3c0-.6.4-1 1-1s1 .4 1 1v63.2c0 .4.2.7.5.9s.7.2 1 0l10.1-5.6c2.1-1.2 4.7-1.2 6.8 0l10.1 5.6c.2.1.3.1.5.1s.4 0 .5-.1c.3-.2.5-.5.5-.9v-63.2c0-.6.4-1 1-1s1 .4 1 1zm-24.9-75.3h15.8c2.8 0 5.1 2.3 5.1 5.1v53.7c0 .8-.8 1.2-1.5.9l-8.1-4.5a6.87 6.87 0 0 0 -6.8 0l-8.1 4.5c-.7.4-1.5-.1-1.5-.9v-53.7c0-2.9 2.3-5.1 5.1-5.1zm-21.3.5c-.8 0-1.5-.7-1.5-1.5s.7-1.5 1.5-1.5 1.5.7 1.5 1.5-.7 1.5-1.5 1.5zm227.1-79.4c0-2.2 2.2-3.6 4.2-2.7l14.9 6.7c2.5 1.1 2.3 4.6-.2 5.6l-14.9 5.4c-2 .7-4-.7-4-2.8zm63.9 203.5h-25.3c-4.4 0-7.9-3.5-7.9-7.9v-123.7c0-1.1.9-2 2-2 2.2 0 4-1.8 4-4v-27.5a4 4 0 0 0 -1-2.6c-.1-.1-.2-.3-.4-.4a4 4 0 0 0 -2.6-1h-3c-.6 0-1 .4-1 1s.4 1 1 1h1c2.2 0 4 1.8 4 4v21.5c0 2.2-1.8 4-4 4h-54c-2.2 0-4-1.8-4-4v-21.3c0-2.1 1.5-4 3.6-4.2a4 4 0 0 1 4.4 4v2.5a4 4 0 0 0 1 2.6c.1.1.2.3.4.4a4 4 0 0 0 2.6 1h4a4 4 0 0 0 2.6-1c.1-.1.3-.2.4-.4a4 4 0 0 0 1-2.6v-2.5c0-2.2 1.8-4 4-4h6c2.2 0 4 1.8 4 4v2.5a4 4 0 0 0 1 2.6c.1.1.2.3.4.4a4 4 0 0 0 2.6 1h4a4 4 0 0 0 2.6-1c.1-.1.3-.2.4-.4a4 4 0 0 0 1-2.6v-2.5c0-2.2 1.8-4 4-4h3.2c.6 0 1-.4 1-1s-.4-1-1-1h-5.2a4 4 0 0 0 -2.6 1c-.1.1-.3.2-.4.4a4 4 0 0 0 -1 2.6v2.3c0 2.1-1.5 4-3.6 4.2a4 4 0 0 1 -4.4-4v-2.5a4 4 0 0 0 -1-2.6c-.1-.1-.2-.3-.4-.4a4 4 0 0 0 -2.6-1h-4.6v-11.6c0-2.5 1.6-4.8 4-5.6l24.9-9c.4-.1.6-.5.7-.9 0-.4-.2-.8-.6-.9l-29.5-13.3c-.3-.1-.7-.1-1 .1s-.5.5-.5.8v40.5h-3.4a4 4 0 0 0 -2.6 1c-.1.1-.3.2-.4.4a4 4 0 0 0 -1 2.6v2.3c0 2.1-1.5 4-3.6 4.2a4 4 0 0 1 -4.4-4v-2.5a4 4 0 0 0 -1-2.6c-.1-.1-.2-.3-.4-.4a4 4 0 0 0 -2.6-1h-4a4 4 0 0 0 -2.6 1c-.1.1-.3.2-.4.4a4 4 0 0 0 -1 2.6v7.2c0 5.5-4.5 10-10 10h-8.8c-2.2 0-4 1.8-4 4v10.4c0 1.3-.9 2.5-2.3 2.6-1.5.2-2.8-1-2.8-2.5v-11.4c0-1.7-1.4-3.1-3.1-3.1h-29.8c-1.7 0-3.1 1.4-3.1 3.1v11.8c0 1-.7 1.9-1.7 2.1-1.3.2-2.3-.8-2.3-2v-11.9c0-1.7-1.4-3.1-3.1-3.1h-28.9c-.3 0-.5.1-.7.3s-.3.4-.3.7v7.4a2 2 0 0 1 -2 2h-38c-2.8 0-5-2.2-5-5v-20.3c0-2.1 1.5-4 3.6-4.2a4 4 0 0 1 4.4 4v2.5c0 2.2 1.8 4 4 4h4c2.2 0 4-1.8 4-4v-2.5c0-2.2 1.8-4 4-4h6c2.2 0 4 1.8 4 4v2.5c0 2.2 1.8 4 4 4h4c2.2 0 4-1.8 4-4v-2.5c0-2.2 1.8-4 4-4h8c2.2 0 4 1.8 4 4v11.5c0 .6.4 1 1 1s1-.4 1-1v-13.5c0-2.2-1.8-4-4-4h-12c-2.2 0-4 1.8-4 4v2.3c0 2.1-1.5 4-3.6 4.2a4 4 0 0 1 -4.4-4v-2.5c0-2.2-1.8-4-4-4h-10c-2.2 0-4 1.8-4 4v2.5c0 2.2-1.8 4-4 4s-4-1.8-4-4v-2.5c0-2.2-1.8-4-4-4h-4c-2.2 0-4 1.8-4 4v28.5c0 1.7 1.3 3 3 3h.4c1.4 0 2.6 1.1 2.6 2.6v3.4c0 .6-.4 1-1 1h-49.5c-1.1 0-2.1-.5-2.8-1.3-.8-.9-2-1.4-3.3-1.1s-2.4 1.3-2.7 2.6c-.5 2.3 1.2 4.3 3.4 4.3 1.1 0 2-.5 2.7-1.3s1.7-1.2 2.8-1.2h2.9a2 2 0 0 1 2 2v75.1c0 .4.2.7.5.9s.7.2 1 0l14.1-7.8c2.1-1.2 4.7-1.2 6.8 0l14.1 7.8c.2.1.3.1.5.1s.4 0 .5-.1c.3-.2.5-.5.5-.9v-75.1c0-1.1.9-2 2-2h1.3c2.5 0 4.4 2 4.4 4.4v50.1c0 .6.4 1 1 1s1-.4 1-1v-2.9c0-1.4 1.2-2.6 2.6-2.6h33.9c1.4 0 2.6 1.1 2.6 2.6v3.8c0 1-.8 1.8-1.8 1.8-10.1 0-17.5 3.1-20.1 8.5-.3.5-.5 1-.6 1.6h-13.4c-1.7 0-3.1-1.4-3.1-3.1v-4.5c0-.6-.4-1-1-1s-1 .4-1 1v56.1c0 5-4 9-9 9h-14.8c-.6 0-1 .4-1 1s.4 1 1 1h258.9c.6 0 1-.4 1-1-.3-1-.8-1.4-1.3-1.4z" fill="#b9bbbe" transform="translate(2 2)"/><path d="m88.7 160.4c-.8 0-1.5-.7-1.5-1.5s.7-1.5 1.5-1.5 1.5.7 1.5 1.5-.7 1.5-1.5 1.5" fill="#f7f7f8" transform="translate(2 2)"/><path d="m134.9 235.2-13.6-7.6a6.87 6.87 0 0 0 -6.8 0l-13.6 7.6v-74.3c0-.6.4-1 1-1s1 .4 1 1v63.2c0 .4.2.7.5.9s.7.2 1 0l10.1-5.6c2.1-1.2 4.7-1.2 6.8 0l10.1 5.6c.2.1.3.1.5.1s.4 0 .5-.1c.3-.2.5-.5.5-.9v-63.2c0-.6.4-1 1-1s1 .4 1 1z" fill="#dcddde" transform="translate(2 2)"/></svg>