<svg fill="none" height="86" viewBox="0 0 112 86" width="112" xmlns="http://www.w3.org/2000/svg"><path d="m55 86c17.6731 0 32-14.3269 32-32s-14.3269-32-32-32-32 14.3269-32 32 14.3269 32 32 32z" fill="#4f545c"/><path d="m67.7997 52.5775h-11.3778v-11.3778h-2.8444v11.3778h-11.3778v2.8444h11.3778v11.3778h2.8444v-11.3778h11.3778z" fill="#fff"/><g fill="#b9bbbe"><path d="m103.987 47.3541 2.697 1.2496c.138.0634.292.0829.441.056.15-.0268.288-.0988.395-.2062s.179-.2451.206-.3946.008-.3037-.056-.4417l-1.315-2.6309c-.066-.2143-.066-.4435 0-.6577l1.315-2.6309c.064-.1381.083-.2922.056-.4417s-.099-.2872-.206-.3946-.245-.1794-.395-.2063c-.149-.0268-.303-.0073-.441.056l-2.697 1.2497c-.102.0504-.215.0766-.329.0766s-.226-.0262-.329-.0766l-2.631-1.3154c-.138-.0633-.292-.0829-.441-.056-.15.0268-.2875.0988-.3949.2062s-.1794.2451-.2062.3946c-.0269.1495-.0073.3037.056.4417l1.2501 2.6967c.069.0955.107.2106.107.3288s-.038.2334-.107.3289l-1.2501 2.6966c-.0633.1381-.0829.2923-.056.4418s.0988.2872.2062.3946.2449.1794.3949.2062c.149.0269.303.0073.441-.056l2.631-1.3154c.103-.0504.215-.0766.329-.0766s.227.0262.329.0766z"/><path d="m91.536 12.7022 5-1.8333c.2552-.0947.4753-.2653.6307-.4887.1554-.2235.2387-.48916.2387-.76134s-.0833-.53784-.2387-.76129-.3755-.39399-.6307-.48871l-5-1.66666c-.3551-.18778-.6455-.47816-.8333-.83334l-1.6667-4.999995c-.0947-.25517-.2652-.47524-.4887-.630647-.2234-.1554075-.4891-.23870628-.7613-.23870628s-.5378.08329878-.7613.23870628c-.2234.155407-.394.375477-.4887.630647l-1.8333 4.999995c-.0658.19348-.1751.36925-.3196.51374s-.3203.25384-.5137.3196l-5 1.66666c-.2552.09472-.4753.26526-.6307.48871s-.2387.48911-.2387.76129.0833.53784.2387.76134c.1554.2234.3755.394.6307.4887l5 1.8333c.2092.0327.4027.1311.5524.2809.1498.1497.2481.3432.2809.5524l1.8333 5c.0947.2552.2653.4753.4887.6307.2235.1554.4891.2387.7613.2387s.5379-.0833.7613-.2387c.2235-.1554.394-.3755.4887-.6307l1.6667-5c.0657-.1934.1751-.3692.3196-.5137s.3203-.2538.5137-.3196z"/><path d="m7.67294 80.2001 2.83426-1.0393c.1446-.0536.2694-.1503.3575-.277.0881-.1266.1353-.2772.1353-.4315s-.0472-.3049-.1353-.4316c-.0881-.1266-.2129-.2233-.3575-.277l-2.83426-.9447c-.20133-.1065-.36594-.2711-.47238-.4724l-.94475-2.8343c-.05369-.1446-.15037-.2694-.27703-.3575s-.27725-.1353-.43154-.1353-.30488.0472-.43154.1353c-.12667.0881-.22334.2129-.27703.3575l-1.03923 2.8343c-.03728.1096-.09926.2093-.18116.2912-.08191.0819-.18155.1439-.29122.1812l-2.834266.9447c-.144643.0537-.26939.1504-.357483.277-.0880935.1267-.135311.2773-.135311.4316s.0472175.3049.135311.4315c.088093.1267.21284.2234.357483.277l2.834266 1.0393c.11862.0185.22828.0743.31317.1592.0849.0849.14064.1945.15921.3131l1.03923 2.8343c.05369.1447.15036.2694.27703.3575.12666.0881.27725.1353.43154.1353s.30488-.0472.43154-.1353.22334-.2128.27703-.3575l.94475-2.8343c.03728-.1096.09926-.2093.18116-.2912.08191-.0819.18155-.1439.29122-.1811z"/></g></svg>