<svg height="144" viewBox="0 0 166 144" width="166" xmlns="http://www.w3.org/2000/svg" xmlns:xlink="http://www.w3.org/1999/xlink"><mask id="a" fill="#fff"><path d="m7.681 3.652v-3.424h-7.627v3.424z" fill="#fff" fill-rule="evenodd"/></mask><mask id="b" fill="#fff"><path d="m0 .499v23.158h51.658v-23.158z" fill="#fff" fill-rule="evenodd"/></mask><g fill="none" fill-rule="evenodd"><path d="m37.1665326 97.6629277c-11.3107034-19.590713-10.5058033-43.9736176 1.5584797-64.2535189 12.0485969-20.2528865 36.6504959-38.05957785 60.5580703-28.43396814 3.5343494 1.42286501 6.8372374 3.37983223 9.5724794 5.93749564 4.337635 4.0558032 7.082838 9.4311068 9.817826 14.670438 4.779517 9.1565427 10.132987 18.608096 18.344806 25.2284481 7.693227 6.2025103 18.160767 8.094811 24.323788 16.2941952 8.494457 11.301222 1.7922 25.2033113-7.20379 34.8457594-12.247422 13.126924-27.935056 26.733856-45.608538 25.886019-7.866894-.377392-19.9808259 0-30.4228938-.377392-17.91119-.647339-32.2914516-14.817357-40.9402276-29.7974763z" fill="#9cb8ff" fill-opacity=".6"/><path d="m133.923323 35.8804771c-12.069677-8.8804171-18.293569-30.18145552-.44614-34.42692905 1.697257-.40381206 3.444059-.57511642 5.163127-.48653542 9.906646.51046073 17.913436 7.9043028 19.901138 16.94655577 1.323371 6.0209268.260993 14.9773212-5.314749 18.9841249-6.444738 4.6313529-13.540517 3.2228305-19.303376-1.0172162z" fill="#9cb8ff" fill-opacity=".6"/><g transform="translate(0 39)"><path d="m56.869661 71.0110034-13.6644068 3.257678c-1.1610169.2764661-2.3245762-.4493645-2.598305-1.6219916l-1.7372882-7.4320593c-.2737288-1.1726271.4457627-2.347822 1.6067797-2.6242881l13.6644068-3.257678c1.1610169-.2764661 2.3245762.4502203 2.598305 1.6228475l1.7364407 7.4312034c.2745763 1.1726271-.4449152 2.347822-1.6059322 2.6242881" fill="#ff5c5c"/><path d="m130.426949 25.7225178c-1.110169-1.4379661-2.299152-2.7749322-3.54322-4.0331525l-71.4983053 17.0441779c-4.4135593 13.3893475-2.329661 28.6857119 6.9067797 40.6490763.4661017.6034322.9449152 1.1906017 1.4355932 1.7623644.009322.0145508.0152542.0291017.0271187.0445085 1.3822033 1.8239915 1.8008474 3.6462712 1.5279661 5.9179152-.0898306.7472288-.5728814 1.3232712-.2838983 2.133839.3855932 1.0801865 1.0474576 1.1769068 2.0398305 1.4482373 1.7211864.4707627 53.8830504.1275339 55.8788134.0847373 2.095763-.0445085 4.465254.1711864 6.263559-1.1229831.411017-.2961525.590678-.9766186.137289-1.350661-2.069492-1.7127203-2.088136-3.6599661-1.25678-5.5986525 1.151695-2.6876271 3.934746-5.3581356 5.15-7.3635848 3.00678-4.960983 5.005932-10.5279661 5.863559-16.2798305 1.75678-11.7724915-1.399152-23.9464152-8.648305-33.3359915" fill="#4f5d7f"/><path d="m67.0878814 84.8605c.0101694.0890169.0254237.176322.0322033.265339-.0177966-.2242543-.0271186-.290161-.0322033-.265339" fill="#4f5d7f"/><path d="m106.589 45.709-53.97 12.866-7.129-30.509 53.969-12.865z" fill="#000"/><path d="m56.7092373 33.1086136c2.1432203 2.637983 5.0983051 1.7409661 7.9652542.8636356 3.0516949-.9338221 6.1686441-2.3563814 5.9635593-6.0942373-.1033898-1.8839068-.8957627-3.699339-1.8652542-5.3615594l-15.0762712 3.5932034c.5254238 2.4804916 1.4186441 5.0363051 3.0127119 6.9989577" fill="#202225"/><path d="m77.0189831 70.6907992-25.2271187 6.0137796c-3.4830508.8302543-6.9728813-1.3489491-7.7949152-4.8668305l-2.9771187-12.7396949 33.270339-.0855932z" fill="#b7c2ce"/><path d="m113.622203 74.912428c-12.227118 9.6292373-29.8669488 7.4243559-39.4008471-4.924178-9.5338983-12.3493898-7.3508474-30.1664746 4.8754238-39.7957119 12.2271186-9.6292373 29.8669493-7.4243559 39.4008473 4.9250339 9.533898 12.3485339 7.351695 30.1656187-4.875424 39.794856" fill="#7687b2"/><path d="m135.967627 73.4701822c-6.436441 1.5338305-25.933051-12.0866186-37.1364406-21.3478051-2.3618644-10.3225424-6.9949152-36.2855339-2.5118644-43.62172879.6440678-1.05450848 1.2635594-1.30615255 1.6728814-1.40372882.2372881-.05649152.5033898-.0770339.7915254-.06162712 13.4415252.74294916 25.2847462 6.90309323 33.3466102 17.34546613 10.15 13.1471186 12.070339 31.0908813 5.136441 47.9981101-.251695.6154153-.627966.9312543-1.299153 1.0913136" fill="#ff7f14"/><path d="m132.130593 24.3806729c-6.554237-8.4882797-15.606779-14.1468475-25.985593-16.36627968.447458 5.00805928-1.687288 10.08630508-5.627966 13.44412708-1.8788137 1.6005933-3.9338984 2.4864831-5.9262713 2.6311356.5957627 10.0452204 2.8245763 21.8468136 4.2398305 28.0334916 11.2033898 9.2603305 30.7008478 22.8816356 37.1372878 21.3469491.670339-.1600593 1.047458-.4758983 1.299153-1.0913135 6.933898-16.9072289 5.013559-34.8509916-5.136441-47.9981102" fill="#c16f40" fill-opacity=".3"/><path d="m75.146501 9.70509743c-1.3430769.32017127-2.691406-.50905761-3.0115772-1.85213454-.3201713-1.34307693.5090576-2.691406 1.8521345-3.01157727l16.3445083-3.89630835c2.2864734-.54462653 4.6690646.36639886 6.0184359 2.29561002l17.6466105 25.22432201c.791472 1.1313427.515953 2.6900925-.615389 3.4815652-1.131343.7914728-2.690093.5159538-3.481565-.6153889l-17.6467503-25.22452162c-.1756719-.2511601-.4759659-.36598275-.7623399-.29776994z" fill="#fff" fill-rule="nonzero"/><path d="m96.894661 53.338828s15.170339-46.42747461 21.140678-43.4026102c5.971186 3.0257203 11.385593 7.3875508 15.798305 13.1034661 11.440678 14.8178983 12.094915 33.9197373 5.428814 50.1738898-4.727119 11.5285509-42.367797-19.8747457-42.367797-19.8747457" fill="#ff903e"/><path d="m120.887627 17.543572c-1.244068 4.6519916 2.40339 1.9635085 4.216949 2.0131526 3.128814.0847373 2.90339 3.5178813 3.983051 5.555 1.620339 3.0573898 3.666949.9980169 6.189831 2.1757796.784745.366339 1.517796.8097119 2.226271 1.2873221-1.072034-1.8984577-2.290678-3.7489831-3.670339-5.5353136-2.944915-3.8157458-6.344915-7.0135085-10.05-9.6275254-1.243221 1.1649237-2.505085 2.6705085-2.895763 4.1315847m12.67517 44.8812331c-1.652543.2499322-3.821187-.1035678-5.081356-1.2924576-4.183899-3.9441356 1.244915-10.7325339-4.60678-14.5645424-4.778814-3.1301441-11.331356-.1660509-16.178814-4.1144661-2.529661-2.0602288-3.53983-5.0671187-3.951694-8.2058221-3.8533903 9.9228221-6.849153 19.0915678-6.849153 19.0915678s37.639831 31.4032967 42.367797 19.8747458c1.779661-4.3395763 3.022881-8.8828644 3.691525-13.4920593-3.314407-2.2382627-5.901695 2.1749237-9.391525 2.7030339" fill="#d17e47" fill-opacity=".6"/><path d="m135.060593 49.2208525c-.051695.0162628-.098305.0419407-.148305.0599153-.005085.0017119-.008474.0059915-.013559.0077034-.001695.0017119-.001695.0025678-.004237.0042796-.00678.0077034-.011865.012839-.020339.0273899-.009322.0154068-.011865.0188305-.01695.0273898.034746.4579237-.18644.896161-.665254 1.0108559-.115254.0273899-.238983.0265339-.360169.0034238-.005933.011983-.011017.0231101-.016102.0350932.072881.516983-.245763.8739068-.627119 1.0185593-.477118 1.0433814-.651695 2.2202881.742373 2.4727881 1.532204.2773221 2.872882-1.0048644 3.147458-2.4462542.290678-1.5209915-.4-2.7218644-2.017797-2.2211441" fill="#d17e47" fill-opacity=".6"/><path d="m141.355339 66.7495737c-1.221186.845661-3.021186 1.3977373-5.665254 1.0673475-10.737288-1.3412458-30.855932-17.0861187-36.4677969-21.626839-2.9025423 3.761822-4.6550847 6.6933898-4.429661 7.6528898l.1677966.7112797.5584746.466483c1.040678.8679153 25.6313557 21.2827543 37.9228817 22.8191526 5.183051.6470847 7.122034-2.0978898 7.816949-3.7917797 2.002542-4.8830932 1.268644-8.1099576.09661-7.2985339" fill="#dae2ed"/><path d="m53.3734746 45.8004619-9.1864407 2.1894745-5.9542373-25.4785339c-.4110169-1.7589406.6677966-3.522161 2.409322-3.9372881l2.8796611-.6864576c1.7415254-.4151271 3.4864406.6744746 3.8974576 2.4334152z" fill="#000"/><path d="m67.359 65.165-17.262-5.114 2.893-9.963 17.263 5.114z" fill="#d0d9ea"/><path d="m51.9850847 63.5170602-43.21694911-9.0480594c-.83474576-.1746101-1.53898305-.7472288-1.85423728-1.5466694-.68559323-1.7383983-1.42118645-5.2793899.24067796-11.0021526s4.17457623-8.3016864 5.68050843-9.3904322c.6940678-.5007203 1.5923729-.5982966 2.3881356-.290161l41.2093221 15.9622797c1.25.4836016 1.9228813 1.8565169 1.5457627 3.1532542l-3.0059322 10.3507881c-.3762712 1.2975932-1.6762712 2.0859068-2.9872882 1.8111526" fill="#ebeff7"/><path d="m19.8975424 41.4955508c2.8610169 2.2639407 4.4144068 3.0197289 7.5576271.2490763.9669491-.8533644 1.7788136-1.4080085 3.1542373-1.4020169.7830508.0034237 5.0949152.9449491 6.9432203.5460847l-22.329661-8.6491949c-.7957627-.3081356-1.6940678-.2105593-2.3872881.2910169-1.5067797 1.0878899-4.01949156 3.6668136-5.68135597 9.3895763-.01525423.0522119-.02627118.101-.04152542.1532119 3.40254239-3.4374237 8.00254239-4.3626865 12.78474579-.5777543m10.7678813 4.1934687c.1779661-.6342458-.0754237-1.4379661-.5991525-1.8419661-.6830509-.5263983-1.3144068.0513559-1.7398305.6453729-.3440678.7018644-.4347458 1.9352627.3542373 2.3623729.7228813.391161 1.7881356-.4647712 1.9847457-1.1657797" fill="#b7c2ce" fill-opacity=".6"/><path d="m83.8984746 72.7691737-19.7288136-5.8443051c-.6805085-.202-1.0711864-.9226949-.8711864-1.6108644l3.6169491-12.4529576c.1991526-.6881695.9135594-1.0818983 1.5940678-.8807542l19.7288136 5.8443051z" fill="#dae2ed"/><path d="m110.966441 71.4724364c-10.345763 8.1476187-25.2720342 6.2825424-33.3398308-4.1666779-8.0669492-10.4492204-6.2194916-25.5247543 4.1262712-33.6732288 10.3457627-8.1476187 25.2720336-6.2816865 33.3389826 4.1675339 8.06695 10.4483644 6.220339 25.5247542-4.125423 33.6723728" fill="#ebeff7"/><path d="m108.642542 68.4624653c-8.6999996 6.8517372-21.2516945 5.2828135-28.0355928-3.5041865-6.7838984-8.7861441-5.2305085-21.4642119 3.4694915-28.3159491 8.7-6.8508814 21.2516953-5.2828136 28.0355933 3.5041864s5.230508 21.4642119-3.469492 28.3159492" fill="#dae2ed"/><path d="m102.039407 38.9304932 8.655932 9.2834407c.528814.567483.717797 1.3771949.495763 2.1235678l-3.632204 12.2132966c-.222034.7463729-.821186 1.3164237-1.572034 1.4953136l-12.2889826 2.929c-.7508475.1797457-1.5389831-.0599153-2.0686441-.6273983l-8.6559322-9.2834407c-.5288136-.5674831-.7177966-1.3771949-.4957627-2.1235678l3.6322034-12.2132966c.2220339-.7463729.8220339-1.3164238 1.5728813-1.4953136l12.2881356-2.929c.7508473-.1788898 1.5398303.0599153 2.0686443.6273983" fill="#c5cedd"/><path d="m100.616356 58.0663127c-3.0152543 2.3743559-7.3652543 1.830839-9.7161018-1.2145678-2.3508474-3.0445508-1.8127118-7.4380508 1.2025424-9.8132627 3.0152542-2.3743559 7.3652542-1.830839 9.7161014 1.2145678 2.350848 3.0454068 1.812712 7.4389068-1.202542 9.8132627" fill="#ebeff7"/><path d="m146.522458 92.5435186h-8.474577c-.93644 0-1.694915-.7660593-1.694915-1.7118644 0-.945805.758475-1.7118644 1.694915-1.7118644h8.474577c.93644 0 1.694915.7660594 1.694915 1.7118644 0 .9458051-.758475 1.7118644-1.694915 1.7118644" fill="#c5cedd"/><path d="m148.195593 94.6833492h-3.38983c-.467797 0-.847458-.3834577-.847458-.8559323v-5.9915254c0-.4724746.379661-.8559322.847458-.8559322h3.38983c.467797 0 .847458.3834576.847458.8559322v5.9915254c0 .4724746-.379661.8559323-.847458.8559323" fill="#dae2ed"/><path d="m154.714576 95.5612788v-6.8474576c0-.9458051.758475-1.7118644 1.694916-1.7118644.93644 0 1.694915.7660593 1.694915 1.7118644v6.8474576c0 .9458051-.758475 1.7118644-1.694915 1.7118644-.936441 0-1.694916-.7660593-1.694916-1.7118644" fill="#c5cedd"/><path d="m.05355932 2.79564576v-1.7118644c0-.47247458.37966102-.85593221.84745763-.85593221h5.93220339c.46779661 0 .84745763.38345763.84745763.85593221v1.7118644c0 .47247458-.37966102.85593221-.84745763.85593221h-5.93220339c-.46779661 0-.84745763-.38345763-.84745763-.85593221" fill="#dae2ed" mask="url(#a)" transform="translate(152.542 94.456)"/><path d="m56.3715254 28.7034729c-.9957627-.0564915-1.8372881.6351017-2.8245762.5709068-.5449153-.0359492-.5423729.8208389 0 .8559322.9991525.0650508 1.8432203-.6265424 2.8245762-.5709068.5449153.0308135.5432204-.8251187 0-.8559322m1.5983899 1.9905559c-.0618645.0025678-.1237289.0042797-.1855933.0068475-.0728813.0025678-.1338983.0213983-.1872881.049644-.340678.0873051-.640678.2542119-.9957627.3629153-.6211865.1900169-1.2830509.1703305-1.9245763.1574915-.5457627-.0102712-.5457627.845661 0 .8559322.561017.0111271 1.1211865.012839 1.6771187-.0821695.5432203-.0932966 1.0779661-.4741864 1.6161017-.4947288.5432203-.0205424.5466101-.8756186 0-.8559322m10.5655932 2.1291314-1.4127119-1.426839c-.3855932-.3894492-.9855932.2156949-.5991525.6051441l1.4127118 1.4268389c.3864407.3903051.9855933-.2148389.5991526-.605144m2.4126271-2.6778695c-.179661.0385169-.5211864-.3261102-.6542373-.429678-.2474576-.1917288-.5042373-.365483-.8152542-.4262542-.5330509-.1044238-.761017.7206949-.2254238.8251186.731356.1437966 1.0788136 1.0382458 1.920339.8559322.5330509-.1146949.3076271-.9406695-.2254237-.8251186" fill="#4f545c"/><path d="m63.922 100.392-17.963-.977.552-10.367 17.964.976z" fill="#d0d9ea"/><path d="m48.5838136 22.4465653-44.11949157 1.2094322c-.85254237.0231101-1.66779661-.3706187-2.1559322-1.0759068-1.06271186-1.5329746-2.58305085-4.8086271-2.26610169-10.7642034.31779661-5.95472035 2.1779661-9.0472034 3.39661017-10.45606781.56101694-.64879661 1.41271186-.95179661 2.25847457-.83624576l43.73559322 5.9855339c1.3271186.18145762 2.2932203 1.3609322 2.2211864 2.71159322l-.5737288 10.77105085c-.0720339 1.3498051-1.1584745 2.4180085-2.4966101 2.4548136" fill="#ebeff7" mask="url(#b)" transform="translate(0 79.905)"/><path d="m37.2228814 101.898943c-2.6533899.080458-4.2084746.497297-6.5745763-1.110144-3.3720339-2.2904744-5.7754237-4.9353049-10.1771187-4.9233219-5.5728813.0154068-10.4771186 3.5153136-16.01694911.9928814-1.91779661-.8730509-3.36779661-2.2211441-4.45-3.8474153-.05 5.1415848 1.32118644 8.0560338 2.30338983 9.4734578.48898305.706144 1.30423729 1.099873 2.15677966 1.076763l37.17203392-1.019416c-1.4135593-.384313-2.8728814-.689881-4.4135593-.642805" fill="#dae2ed"/><path d="m20.7332203 17.1161619-18.8372881-1.023695c-.70847457-.0385169-1.25254237-.6505084-1.21440678-1.3660677l.69067797-12.95966954c.03813559-.71555932.6440678-1.26421186 1.35254237-1.22569491l18.83728814 1.02369491c.9347458.0505 1.6516949.85764407 1.6008475 1.80173729l-.6457628 12.13198305c-.0508474.9440932-.8491525 1.6682119-1.7838983 1.6177119" fill="#dae2ed" transform="translate(59.322 86.752)"/><path d="m43.5161017 90.6037195c-.0483051.9021525-.811017 1.5946017-1.7042373 1.5458136-.8932203-.0487882-1.5788136-.8191272-1.5305085-1.7212797.0483051-.9021526.811017-1.5946017 1.7042373-1.5458136.8932204.0487882 1.5788136.8191271 1.5305085 1.7212797m-9.1930509-1.2664373c-.048305.9021525-.8110169 1.5946017-1.7042372 1.5458136-.8932204-.0487882-1.5788136-.8191272-1.5305085-1.7212797s.8110169-1.5946017 1.7042373-1.5458136c.8932203.0487882 1.5788135.8191272 1.5305084 1.7212797" fill="#b7c2ce"/></g></g></svg>