<svg width="272" height="222" viewBox="0 0 272 222" fill="none" xmlns="http://www.w3.org/2000/svg">
<g clip-path="url(#clip0)">
<path d="M27.0085 160.355C26.8391 160.264 26.6307 160.284 26.4822 160.406L24.5043 162.031L21.8549 160.847C21.5254 160.7 21.1171 161.036 21.1974 161.387L21.8449 164.216L19.8669 165.841C19.7184 165.963 19.6578 166.163 19.714 166.347C19.7703 166.531 19.9323 166.664 20.1236 166.683L23.1954 166.988L24.4671 169.913C24.5468 170.096 24.7319 170.21 24.9309 170.199C25.1309 170.188 25.3016 170.053 25.3586 169.863L26.2617 166.881L29.3612 166.574C29.4569 166.565 29.5448 166.527 29.6161 166.469C29.6921 166.406 29.7488 166.32 29.7748 166.22C29.8243 166.027 29.7479 165.823 29.5837 165.709L26.961 163.894L27.2586 160.822C27.2775 160.63 27.178 160.445 27.0085 160.355Z" fill="#2D3136"/>
</g>
<g clip-path="url(#clip1)">
<path d="M207.888 141.581C207.854 141.392 207.708 141.242 207.52 141.202L205.016 140.67L204.288 137.861C204.197 137.512 203.68 137.402 203.455 137.684L201.649 139.955L199.145 139.423C198.957 139.383 198.763 139.461 198.654 139.62C198.545 139.778 198.542 139.988 198.647 140.149L200.326 142.74L198.833 145.559C198.74 145.735 198.766 145.951 198.899 146.1C199.032 146.249 199.244 146.299 199.429 146.224L202.322 145.07L204.496 147.3C204.563 147.369 204.647 147.414 204.737 147.434C204.834 147.454 204.936 147.445 205.031 147.402C205.213 147.321 205.324 147.134 205.311 146.934L205.093 143.752L207.68 142.068C207.841 141.963 207.923 141.77 207.888 141.581Z" fill="#2D3136"/>
</g>
<path d="M154.827 89.9304C155.504 91.2871 156.89 92.1445 158.406 92.1445H190.25C191.022 92.1445 191.726 92.6161 192.018 93.3268C192.319 94.0575 192.145 94.8984 191.606 95.4366L191.601 95.4416L164.479 122.624C163.455 123.651 163.067 125.151 163.464 126.546L174.339 164.704C174.339 164.704 174.339 164.704 174.339 164.705C174.562 165.49 174.273 166.322 173.631 166.795C173.291 167.042 172.896 167.163 172.5 167.163C172.127 167.163 171.761 167.057 171.438 166.841L139.222 145.315C137.877 144.417 136.123 144.417 134.778 145.315L102.556 166.841L102.545 166.848C101.895 167.285 101.028 167.277 100.37 166.796C99.7278 166.324 99.4375 165.491 99.6609 164.705C99.6609 164.704 99.661 164.704 99.6611 164.704L110.536 126.546C110.933 125.151 110.545 123.651 109.52 122.624L82.3984 95.4416L82.3935 95.4366C81.8546 94.8984 81.6804 94.0575 81.9814 93.3268C82.2742 92.6161 82.9774 92.1445 83.7499 92.1445H115.593C117.11 92.1445 118.496 91.2869 119.173 89.9299L135.283 57.632C135.452 57.2942 135.982 56.8333 136.997 56.8333C138.011 56.8333 138.542 57.2937 138.711 57.6314C138.711 57.6316 138.711 57.6318 138.711 57.632L154.827 89.9304Z" fill="#36393E" stroke="#2D3136" stroke-width="8" stroke-linejoin="round"/>
<g clip-path="url(#clip2)">
<path d="M65.2155 51.2416C64.8607 50.8618 64.3096 50.7336 63.8237 50.9168L57.3502 53.3568L51.5987 48.0254C50.8833 47.363 49.547 47.8666 49.4469 48.8365L48.6467 56.6373L42.1731 59.0774C41.6872 59.2605 41.3578 59.7206 41.3421 60.2401C41.3264 60.7595 41.6249 61.2418 42.0984 61.4557L49.695 64.9035L50.4081 73.4942C50.4529 74.0321 50.8272 74.4858 51.346 74.6303C51.8677 74.7751 52.4214 74.5788 52.7329 74.1406L57.634 67.2956L65.8327 69.203C66.0857 69.2618 66.3433 69.2418 66.5766 69.1539C66.8256 69.06 67.0455 68.889 67.199 68.6549C67.4934 68.2039 67.4751 67.6161 67.1537 67.1824L62.0189 60.2583L65.4497 52.654C65.6642 52.1808 65.5702 51.6215 65.2155 51.2416Z" fill="#2D3136"/>
</g>
<g clip-path="url(#clip3)">
<path d="M93.2176 43.2074C93.0479 42.9534 92.7404 42.8267 92.4412 42.8868L88.4545 43.6872L85.6248 40.0485C85.2728 39.5963 84.4498 39.7615 84.2996 40.3145L83.0945 44.7634L79.1078 45.5638C78.8085 45.6239 78.5738 45.8595 78.5153 46.1593C78.4568 46.4591 78.5842 46.7672 78.8385 46.9362L82.9173 49.6576L82.515 54.7084C82.4899 55.0247 82.6639 55.3234 82.9511 55.4565C83.24 55.59 83.5798 55.5287 83.8021 55.3041L87.2951 51.7993L91.8696 53.6844C92.0107 53.7426 92.162 53.7554 92.3057 53.7266C92.4591 53.6958 92.6029 53.6175 92.7141 53.4963C92.9277 53.2626 92.9729 52.9199 92.8277 52.6378L90.507 48.1338L93.2193 44.0489C93.3887 43.7948 93.3873 43.4614 93.2176 43.2074Z" fill="#2D3136"/>
</g>
<g clip-path="url(#clip4)">
<path d="M70.8304 115.936C70.586 115.686 70.2134 115.608 69.8894 115.739L65.573 117.479L61.623 113.982C61.1317 113.547 60.2407 113.906 60.1882 114.56L59.7697 119.819L55.4533 121.559C55.1293 121.69 54.9149 122.005 54.9122 122.354C54.9096 122.704 55.1178 123.024 55.4395 123.16L60.6016 125.362L61.213 131.129C61.2514 131.49 61.5101 131.79 61.8612 131.879C62.2143 131.968 62.5837 131.828 62.7865 131.528L65.9777 126.85L71.5211 128.007C71.6921 128.042 71.8651 128.025 72.0207 127.962C72.1867 127.895 72.3319 127.777 72.4316 127.617C72.6226 127.309 72.6013 126.914 72.3785 126.627L68.8189 122.049L71.0096 116.882C71.1466 116.561 71.0748 116.186 70.8304 115.936Z" fill="#2D3136"/>
</g>
<g clip-path="url(#clip5)">
<path d="M234.071 120.687C234.016 120.349 233.762 120.075 233.428 119.996L228.985 118.945L227.802 113.905C227.655 113.278 226.738 113.061 226.325 113.555L223.01 117.531L218.566 116.479C218.233 116.4 217.883 116.53 217.683 116.809C217.482 117.088 217.468 117.462 217.648 117.753L220.535 122.443L217.758 127.408C217.584 127.719 217.621 128.106 217.852 128.376C218.084 128.648 218.46 128.745 218.792 128.62L223.999 126.68L227.784 130.748C227.901 130.873 228.049 130.958 228.21 130.995C228.381 131.036 228.564 131.023 228.734 130.952C229.062 130.813 229.269 130.485 229.253 130.129L228.995 124.445L233.678 121.547C233.97 121.367 234.125 121.026 234.071 120.687Z" fill="#2D3136"/>
</g>
<g clip-path="url(#clip6)">
<path d="M255.131 150.262C255.101 150.076 254.961 149.925 254.778 149.882L252.333 149.303L251.683 146.531C251.602 146.187 251.097 146.067 250.871 146.339L249.047 148.526L246.603 147.947C246.42 147.904 246.227 147.976 246.117 148.129C246.007 148.282 245.999 148.488 246.098 148.648L247.686 151.227L246.158 153.959C246.063 154.13 246.083 154.342 246.21 154.491C246.338 154.641 246.544 154.694 246.727 154.625L249.591 153.558L251.673 155.796C251.737 155.865 251.819 155.911 251.907 155.932C252.001 155.954 252.102 155.947 252.196 155.908C252.376 155.832 252.49 155.651 252.481 155.455L252.339 152.329L254.915 150.735C255.075 150.636 255.161 150.448 255.131 150.262Z" fill="#2D3136"/>
</g>
<g clip-path="url(#clip7)">
<path d="M255.131 91.6205C255.101 91.4342 254.961 91.2838 254.778 91.2404L252.333 90.6619L251.683 87.8899C251.602 87.5453 251.097 87.4259 250.871 87.6976L249.047 89.8842L246.603 89.3058C246.42 89.2623 246.227 89.3341 246.117 89.4873C246.007 89.6405 245.999 89.8463 246.098 90.0067L247.686 92.5859L246.158 95.3173C246.063 95.4884 246.083 95.7009 246.21 95.8496C246.338 95.9991 246.544 96.0523 246.727 95.9835L249.591 94.9166L251.673 97.1541C251.737 97.2231 251.819 97.2694 251.907 97.2902C252.001 97.3125 252.102 97.3056 252.196 97.2662C252.376 97.1901 252.49 97.0094 252.481 96.8136L252.339 93.6871L254.915 92.0933C255.075 91.9944 255.161 91.8069 255.131 91.6205Z" fill="#2D3136"/>
</g>
<g clip-path="url(#clip8)">
<path d="M40.464 95.3014C40.3212 95.1726 40.1139 95.1429 39.9406 95.2258L37.6316 96.331L35.3419 94.5483C35.0572 94.3268 34.5805 94.5549 34.5744 94.9156L34.5272 97.8169L32.2182 98.9221C32.0449 99.005 31.9381 99.1851 31.9488 99.3771C31.9595 99.5691 32.0849 99.7374 32.2662 99.8012L35.1763 100.831L35.7121 103.975C35.7457 104.172 35.8981 104.328 36.094 104.364C36.2909 104.401 36.4888 104.311 36.5897 104.14L38.1791 101.461L41.2622 101.903C41.3573 101.917 41.4516 101.901 41.5349 101.862C41.6237 101.819 41.6993 101.749 41.7485 101.658C41.8426 101.482 41.8172 101.266 41.685 101.116L39.572 98.727L40.5952 95.8146C40.6593 95.6333 40.6068 95.4301 40.464 95.3014Z" fill="#2D3136"/>
</g>
<g clip-path="url(#clip9)">
<path d="M37.7725 131.063C37.6297 130.934 37.4224 130.905 37.2491 130.987L34.9401 132.093L32.6504 130.31C32.3656 130.088 31.889 130.317 31.8829 130.677L31.8357 133.579L29.5267 134.684C29.3534 134.767 29.2466 134.947 29.2573 135.139C29.268 135.331 29.3934 135.499 29.5747 135.563L32.4848 136.593L33.0206 139.737C33.0542 139.934 33.2066 140.089 33.4025 140.126C33.5994 140.163 33.7973 140.073 33.8982 139.901L35.4876 137.222L38.5707 137.665C38.6658 137.679 38.7601 137.663 38.8433 137.623C38.9321 137.581 39.0078 137.511 39.0569 137.42C39.1511 137.244 39.1257 137.028 38.9934 136.878L36.8805 134.489L37.9037 131.576C37.9678 131.395 37.9153 131.192 37.7725 131.063Z" fill="#2D3136"/>
</g>
<g clip-path="url(#clip10)">
<path d="M58.6541 157.875C58.5454 157.717 58.3509 157.639 58.163 157.679L55.6592 158.212L53.8513 155.942C53.6264 155.66 53.1096 155.77 53.0191 156.12L52.293 158.929L49.7893 159.462C49.6013 159.502 49.4553 159.652 49.4207 159.841C49.386 160.03 49.4685 160.223 49.6298 160.328L52.2173 162.011L52.001 165.193C51.9875 165.393 52.0992 165.58 52.281 165.661C52.4638 165.743 52.6773 165.702 52.8156 165.559L54.9888 163.327L57.8822 164.48C57.9714 164.516 58.0668 164.523 58.157 164.504C58.2533 164.483 58.3433 164.433 58.4124 164.356C58.5452 164.207 58.5711 163.991 58.4776 163.815L56.9838 160.996L58.6613 158.405C58.7661 158.244 58.7628 158.034 58.6541 157.875Z" fill="#2D3136"/>
</g>
<path d="M218.614 165.208C218.538 165.036 218.365 164.925 218.176 164.93L215.665 164.989L214.335 162.471C214.169 162.158 213.651 162.17 213.5 162.491L212.289 165.067L209.778 165.126C209.59 165.13 209.422 165.249 209.354 165.425C209.286 165.601 209.33 165.802 209.467 165.932L211.656 168.026L210.869 171.055C210.819 171.244 210.893 171.445 211.054 171.557C211.215 171.669 211.428 171.668 211.588 171.555L214.089 169.798L216.669 171.437C216.748 171.487 216.839 171.511 216.93 171.509C217.026 171.507 217.122 171.475 217.203 171.413C217.358 171.294 217.422 171.09 217.364 170.903L216.436 167.914L218.525 165.72C218.655 165.584 218.69 165.381 218.614 165.208Z" fill="#2D3136"/>
<g clip-path="url(#clip11)">
<path d="M190.623 60.4012C190.644 59.998 190.418 59.6209 190.053 59.4483L185.195 57.1492L185.068 51.0578C185.052 50.3005 184.049 49.8259 183.454 50.2936L178.664 54.0581L173.805 51.759C173.441 51.5864 173.006 51.6508 172.707 51.9225C172.409 52.1941 172.3 52.6213 172.436 53.0013L174.612 59.1065L170.198 64.1429C169.921 64.4584 169.87 64.9124 170.069 65.2803C170.27 65.6499 170.679 65.8533 171.092 65.7907L177.562 64.8332L180.922 70.4431C181.026 70.6162 181.176 70.7493 181.351 70.8322C181.538 70.9206 181.752 70.9512 181.966 70.9105C182.377 70.8315 182.696 70.5039 182.764 70.0902L183.86 63.4834L189.961 61.2946C190.341 61.1589 190.602 60.8044 190.623 60.4012Z" fill="#2D3136"/>
</g>
<path d="M243.26 50.3269C243.139 49.7454 242.677 49.2928 242.094 49.1829L234.325 47.7188L231.877 39.0969C231.573 38.0252 229.969 37.723 229.295 38.6103L223.879 45.7504L216.109 44.2863C215.526 44.1764 214.931 44.4299 214.607 44.9277C214.283 45.4255 214.288 46.0736 214.623 46.5638L219.991 54.443L215.583 63.2534C215.307 63.8052 215.403 64.4705 215.824 64.9198C216.247 65.3711 216.904 65.5084 217.469 65.2657L226.32 61.4952L233.191 68.2284C233.403 68.4361 233.666 68.5697 233.946 68.6224C234.245 68.6787 234.562 68.6425 234.851 68.5051C235.406 68.2397 235.737 67.6549 235.681 67.0406L234.782 57.2302L242.649 51.845C243.14 51.5104 243.38 50.9085 243.26 50.3269Z" fill="#2D3136"/>
<path d="M35.9364 108.632L33.9668 125.279" stroke="#36393E"/>
<path d="M62.2576 135.987L57.527 152.554" stroke="#36393E"/>
<path d="M38.0308 141.648L49.861 154.174" stroke="#36393E"/>
<path d="M56.5579 113.952L42.7605 103.632" stroke="#36393E"/>
<path d="M245.202 100.512L233.202 115.512" stroke="#36393E"/>
<path d="M232.202 130.512L245.202 145.512" stroke="#36393E"/>
<path d="M222.202 164.512L242.202 155.512" stroke="#36393E"/>
<defs>
<clipPath id="clip0">
<rect width="11.4152" height="11.4152" fill="white" transform="translate(16.3586 163.818) rotate(-39.4037)"/>
</clipPath>
<clipPath id="clip1">
<rect width="11.4152" height="11.4152" fill="white" transform="translate(198.537 135.42) rotate(11.9907)"/>
</clipPath>
<clipPath id="clip2">
<rect width="30.85" height="30.85" fill="white" transform="translate(34.9523 50.8534) rotate(-20.6526)"/>
</clipPath>
<clipPath id="clip3">
<rect width="18.1326" height="18.1326" fill="white" transform="translate(75.7005 40.1077) rotate(-11.3527)"/>
</clipPath>
<clipPath id="clip4">
<rect width="20.7538" height="20.7538" fill="white" transform="translate(50.4707 116.139) rotate(-21.9592)"/>
</clipPath>
<clipPath id="clip5">
<rect width="20.3635" height="20.3635" fill="white" transform="translate(217.646 109.314) rotate(13.3149)"/>
</clipPath>
<clipPath id="clip6">
<rect width="11.2005" height="11.2005" fill="white" transform="translate(246.097 144.006) rotate(13.3149)"/>
</clipPath>
<clipPath id="clip7">
<rect width="11.2005" height="11.2005" fill="white" transform="translate(246.097 85.3647) rotate(13.3149)"/>
</clipPath>
<clipPath id="clip8">
<rect width="11.4152" height="11.4152" fill="white" transform="translate(29.295 96.1197) rotate(-25.5779)"/>
</clipPath>
<clipPath id="clip9">
<rect width="11.4152" height="11.4152" fill="white" transform="translate(26.6034 131.881) rotate(-25.5779)"/>
</clipPath>
<clipPath id="clip10">
<rect width="11.4152" height="11.4152" fill="white" transform="translate(47.6045 156.052) rotate(-12.0184)"/>
</clipPath>
<clipPath id="clip11">
<rect width="23.9672" height="23.9672" fill="white" transform="translate(174.501 43.285) rotate(25.3259)"/>
</clipPath>
</defs>
</svg>
