<svg height="220" viewBox="0 0 400 220" width="400" xmlns="http://www.w3.org/2000/svg"><g fill="none" fill-rule="evenodd"><g transform="translate(4 3)"><path d="m0 155.9889v.003c0 25.195 20.425 45.62 45.62 45.62h304.434c23.383 0 42.34-18.956 42.34-42.34v-3.053c0-23.384-18.957-42.34-42.34-42.34h-.001c-15.983 0-28.94-12.957-28.94-28.94v-.003c0-15.983 12.957-28.94 28.94-28.94h10.768c12.106 0 21.92-9.814 21.92-21.92v-.008c0-12.106-9.814-21.92-21.92-21.92h-214.832c-27.123 0-49.11 21.987-49.11 49.11v.001c0 27.123-21.987 49.11-49.11 49.11h-2.149c-25.195 0-45.62 20.425-45.62 45.62" fill="#f7f7f8" fill-opacity=".9"/><path d="m248.247 188.879h29.851v-4h-29.851z" fill="#dcddde"/><g transform="translate(15 .879)"><path d="m269.5981 212v-10.645h-1.14c-1.053 0-2.03-.316-2.86-.843v6.488c0 .552-.448 1-1 1h-55.988c-.552 0-1-.448-1-1v-13.325h-4v18.325z" fill="#dcddde"/><path d="m236.354 192.769c2.884 0 5.23 2.347 5.23 5.231s-2.346 5.23-5.23 5.23-5.231-2.346-5.231-5.23 2.347-5.231 5.231-5.231zm15.513 0c2.884 0 5.231 2.347 5.231 5.231s-2.347 5.23-5.231 5.23c-2.885 0-5.231-2.346-5.231-5.23s2.346-5.231 5.231-5.231zm11.731 13.231v-7.776c-.314-.681-.501-1.432-.501-2.23v-3.489-2.505h-29.85v2.675c0 .552-.448 1-1 1h-8.47c1.384.942 2.295 2.529 2.295 4.325 0 2.884-2.346 5.23-5.231 5.23-2.884 0-5.231-2.346-5.231-5.23 0-1.796.911-3.383 2.295-4.325h-8.295v12.325z" fill="#f7f7f8"/><path d="m220.8413 201.2305c1.781 0 3.23-1.449 3.23-3.23 0-1.782-1.449-3.231-3.23-3.231-1.782 0-3.231 1.449-3.231 3.231 0 1.781 1.449 3.23 3.231 3.23m12.2817-3.2305c0 1.781 1.449 3.23 3.231 3.23 1.781 0 3.23-1.449 3.23-3.23 0-1.782-1.449-3.231-3.23-3.231-1.782 0-3.231 1.449-3.231 3.231m18.7437 3.2305c1.782 0 3.231-1.449 3.231-3.23 0-1.782-1.449-3.231-3.231-3.231s-3.231 1.449-3.231 3.231c0 1.781 1.449 3.23 3.231 3.23m25.376-44.7168c-.552 0-1-.448-1-1v-24c0-.552.448-1 1-1h40c.552 0 1 .448 1 1v24c0 .552-.448 1-1 1zm20-28.961c.552 0 1 .448 1 1s-.448 1-1 1-1-.448-1-1 .448-1 1-1zm13 30.961h19.131v-8.747c-.958-.081-1.715-.878-1.715-1.856v-2.488c-.045-.114-.074-.236-.074-.366v-3.616c0-.223.087-.419.21-.585.258-.642.861-1.102 1.579-1.163v-9.862c0-1.854-1.508-3.361-3.361-3.361h-57.569c-1.853 0-3.361 1.507-3.361 3.361v28.683h38.797c.552 0 1 .448 1 1h4.363c0-.552.448-1 1-1z" fill="#fff"/><path d="m295.243 206.115h4v-4.76h-4z" fill="#fff"/><path d="m286.467 211.785h21.551v-3.669h-21.551z" fill="#dcddde"/><path d="m278.243 154.514h38v-22h-38z" fill="#dcddde"/><path d="m273.8535 173.0371c0-1.378-1.122-2.5-2.5-2.5s-2.5 1.122-2.5 2.5 1.122 2.5 2.5 2.5 2.5-1.122 2.5-2.5" fill="#f7f7f8"/><path d="m279.2427 167.5137c0-.552.448-1 1-1h34c.552 0 1 .448 1 1v24c0 .552-.448 1-1 1h-34c-.552 0-1-.448-1-1zm46.618 10.642c-1.105 0-2-.896-2-2 0-1.105.895-2 2-2 1.104 0 2 .895 2 2 0 1.104-.896 2-2 2zm-3.5 3.5c-1.105 0-2-.896-2-2 0-1.105.895-2 2-2 1.104 0 2 .895 2 2 0 1.104-.896 2-2 2zm-2-9c0-1.105.895-2 2-2 1.104 0 2 .895 2 2 0 1.104-.896 2-2 2-1.105 0-2-.896-2-2zm-1.5 5.5c-1.105 0-2-.896-2-2 0-1.105.895-2 2-2 1.104 0 2 .895 2 2 0 1.104-.896 2-2 2zm-28.648 19.711h-1.167c-.552 0-1-.448-1-1 0-.553.448-1 1-1h1.167c.552 0 1 .447 1 1 0 .552-.448 1-1 1zm-23.359-24.83c0-2.481 2.018-4.5 4.5-4.5 2.481 0 4.5 2.019 4.5 4.5 0 2.482-2.019 4.5-4.5 4.5-2.482 0-4.5-2.018-4.5-4.5zm10.466 12.576c0 .276-.224.5-.5.5h-2c-.276 0-.5.224-.5.5v2c0 .276-.224.5-.5.5h-2c-.276 0-.5-.224-.5-.5v-2c0-.276-.224-.5-.5-.5h-2c-.276 0-.5-.224-.5-.5v-2c0-.276.224-.5.5-.5h2c.276 0 .5-.224.5-.5v-2c0-.276.224-.5.5-.5h2c.276 0 .5.224.5.5v2c0 .276.224.5.5.5h2c.276 0 .5.224.5.5zm-12.223 6.892c0 1.854 1.508 3.362 3.362 3.362h15.921c.552 0 1 .447 1 1 0 .552-.448 1-1 1h-15.921c-1.241 0-2.37-.441-3.279-1.151.331 1.506 1.673 2.639 3.279 2.639h53.402v-1.488h-23.618c-.552 0-1-.448-1-1 0-.553.448-1 1-1h23.618v-10.867c0-.552.447-1 1-1h6.528v-15.535-3.951h-64.292v3.951z" fill="#fff"/><path d="m281.243 190.514h32v-22h-32z" fill="#dcddde"/><path d="m263.2427 162.5137h68c.551 0 1-.449 1-1s-.449-1-1-1h-21c-.552 0-1-.448-1-1h-4.363c0 .552-.448 1-1 1h-40.637c-.551 0-1 .449-1 1s.449 1 1 1" fill="#dcddde"/><path d="m337.2129 186h-13.353v21c0 2.757 2.244 5 5 5h12c2.757 0 5-2.243 5-5v-21h-4.773c-.553 0-1-.448-1-1h-1.874c0 .552-.448 1-1 1" fill="#f7f7f8"/><path d="m129.254 71.514h4v-3.295h-4z" fill="#dcddde"/><path d="m131.2544 54.6826c2.56 0 4.643 2.083 4.643 4.643s-2.083 4.643-4.643 4.643-4.643-2.083-4.643-4.643 2.083-4.643 4.643-4.643m6.893 10.107v-12.357h-13.786v13.786h12.357c.789 0 1.429-.64 1.429-1.429" fill="#dcddde"/><path d="m131.2544 61.9683c1.458 0 2.643-1.186 2.643-2.643s-1.185-2.643-2.643-2.643c-1.457 0-2.643 1.186-2.643 2.643s1.186 2.643 2.643 2.643" fill="#fff"/><path d="m117.254 200.215h33v-6.54h-33z" fill="#f7f7f8"/><path d="m232.247 71.675v-.161h-96.992-2-4-2-94.992v.161z" fill="#dcddde"/><path d="m221.2466 181.6748v-98h-177.984v45.011c4.735-3.129 10.403-4.957 16.491-4.957 16.542 0 30 13.458 30 30 0 12.702-7.939 23.577-19.112 27.946z" fill="#fff"/><path d="m184.139 205.215h4v-3h-6v3z" fill="#fff"/><path d="m185.1392 207.2148v3c0 1.104.896 2 2 2h2c1.104 0 2-.896 2-2v-3z" fill="#fff"/><path d="m86.155 202.215v3h4 12.099 18 5.358 10.171 16.463 10 17.893v-3z" fill="#dcddde"/><path d="m91.1553 212.2148h12.099 18 29.992 10 19.893c1.104 0 2-.896 2-2v-3h-21.893-10-15.463-10.171-4.358-18-12.099-8v3c0 1.104.896 2 2 2z" fill="#fff"/><path d="m339.5771 38.3862c1.657 0 3 1.343 3 3v42c0 1.657-1.343 3-3 3h-46c-1.657 0-3-1.343-3-3v-42c0-1.657 1.343-3 3-3zm-8-5h-43c-1.657 0-3 1.343-3 3v52c0 1.657 1.343 3 3 3h56c1.657 0 3-1.343 3-3v-52c0-1.657-1.343-3-3-3h-8.133c-.552 0-1-.448-1-1h-2.867c.001.552-.447 1-1 1z" fill="#dcddde"/><path d="m312.9443 67.9194c0-2.5 2.034-4.533 4.533-4.533 2.5 0 4.533 2.033 4.533 4.533v2.423c0 2.499-2.033 4.533-4.533 4.533-2.499 0-4.533-2.034-4.533-4.533zm11.5-.967c0-1.967 1.6-3.566 3.566-3.566 1.967 0 3.567 1.599 3.567 3.566v4.357c0 1.966-1.6 3.566-3.567 3.566-1.966 0-3.566-1.6-3.566-3.566zm-25.867 10.923c.552 0 1 .447 1 1v.75c0 .552-.448 1-1 1v3.761h35v-20c0-9.374-7.626-17-17-17s-17 7.626-17 17v10.864c0 .552-.448 1-1 1z" fill="#f7f7f8"/><path d="m328.0107 72.8755c.864 0 1.566-.703 1.566-1.566v-4.357c0-.864-.702-1.566-1.566-1.566s-1.566.702-1.566 1.566v4.357c0 .863.702 1.566 1.566 1.566m-10.5332 0c1.397 0 2.533-1.136 2.533-2.533v-2.423c0-1.397-1.136-2.533-2.533-2.533s-2.533 1.136-2.533 2.533v2.423c0 1.397 1.136 2.533 2.533 2.533m-134.8569-29.5449c-8.046.944-11.016 3.978-11.663 4.771v3.018h3.875zm82.3369-1.0274c-3.154.739-12.059 2.662-23.452 3.759l4.884 5.057h18.568z" fill="#fff"/><path d="m211.208 17.572-33.547 33.547h65.947z" fill="#dcddde"/><path d="m28.863 162.822-9.874-9.114v9.114z" fill="#fff"/><path d="m18.9893 150.9854 11.934 11.016c-.756-2.63-1.169-5.403-1.169-8.273 0-.633.026-1.26.065-1.884l-8.221-7.588c-1.6 1.479-2.609 3.587-2.609 5.933zm11.7241-8.8853h-3.636c-1.382 0-2.683.35-3.822.963l6.82 6.296c.365-2.491 1.037-4.884 1.977-7.138-.437-.074-.882-.121-1.339-.121" fill="#fff"/><path d="m38.8022 209.8188c0-1.203-.979-2.181-2.181-2.181h-15.451c-1.202 0-2.181.978-2.181 2.181s.979 2.181 2.181 2.181h15.451c1.202 0 2.181-.978 2.181-2.181m-9.9067-39.6459c3.559 0 6.454 2.895 6.454 6.453s-2.895 6.453-6.454 6.453c-3.558 0-6.453-2.895-6.453-6.453s2.895-6.453 6.453-6.453m-5.453 20.772h10.907c3.959 0 7.179-3.221 7.179-7.18v-6.23c-4.26-3.269-7.618-7.653-9.64-12.713h-14.808c-.451 0-.818.367-.818.818v18.125c0 3.959 3.221 7.18 7.18 7.18m40.7645-7.5489c-1.454.217-2.94.333-4.453.333s-3-.116-4.453-.333v3.685h8.906z" fill="#dcddde"/><path d="m59.7539 177.2285c-12.958 0-23.5-10.542-23.5-23.5s10.542-23.5 23.5-23.5c1.941 0 3.872.237 5.738.706.535.134.861.678.726 1.213-.003.01-.009.016-.012.025 1.32.394 2.589.909 3.795 1.527.005-.009.004-.019.009-.028.274-.481.884-.649 1.364-.374.864.493 1.708 1.048 2.507 1.65.441.332.53.959.198 1.4-.005.006-.013.008-.018.015.568.469 1.112.965 1.632 1.487.006-.006.008-.014.014-.019.408-.372 1.041-.343 1.412.065 3.956 4.335 6.135 9.959 6.135 15.833 0 12.958-10.542 23.5-23.5 23.5m28-23.5c0-15.439-12.561-28-28-28s-28 12.561-28 28 12.561 28 28 28 28-12.561 28-28" fill="#f7f7f8"/><g fill="#b9bbbe"><path d="m236.354 194.769c1.781 0 3.23 1.449 3.23 3.231 0 1.781-1.449 3.23-3.23 3.23-1.782 0-3.231-1.449-3.231-3.23 0-1.782 1.449-3.231 3.231-3.231m0 8.461c2.884 0 5.23-2.346 5.23-5.23s-2.346-5.231-5.23-5.231-5.231 2.347-5.231 5.231 2.347 5.23 5.231 5.23m15.5127-8.461c1.782 0 3.231 1.449 3.231 3.231 0 1.781-1.449 3.23-3.231 3.23s-3.231-1.449-3.231-3.23c0-1.782 1.449-3.231 3.231-3.231m0 8.461c2.884 0 5.231-2.346 5.231-5.23s-2.347-5.231-5.231-5.231-5.231 2.347-5.231 5.231 2.347 5.23 5.231 5.23m45.376-73.6778c.552 0 1-.447 1-1 0-.552-.448-1-1-1s-1 .448-1 1c0 .553.448 1 1 1m18 24.9615h-36c-.552 0-1-.448-1-1v-20c0-.552.448-1 1-1h36c.552 0 1 .448 1 1v20c0 .552-.448 1-1 1m3 1v-24c0-.552-.448-1-1-1h-40c-.552 0-1 .448-1 1v24c0 .552.448 1 1 1h40c.552 0 1-.448 1-1m-28.0298 40.3525h-1.167c-.552 0-1 .448-1 1s.448 1 1 1h1.167c.552 0 1-.448 1-1s-.448-1-1-1m-21.3594-22.8291c0-1.378 1.122-2.5 2.5-2.5s2.5 1.122 2.5 2.5-1.122 2.5-2.5 2.5-2.5-1.122-2.5-2.5m7 0c0-2.481-2.019-4.5-4.5-4.5s-4.5 2.019-4.5 4.5 2.019 4.5 4.5 4.5 4.5-2.019 4.5-4.5m.4658 10.0757c-1.104 0-2-.896-2-2 0-.552-.447-1-1-1h-1c-.552 0-1 .448-1 1 0 1.104-.895 2-2 2-.552 0-1 .448-1 1v1c0 .552.448 1 1 1 1.105 0 2 .896 2 2 0 .552.448 1 1 1h1c.553 0 1-.448 1-1 0-1.104.896-2 2-2 .553 0 1-.448 1-1v-1c0-.552-.447-1-1-1m46.0411-8.4575c1.104 0 2-.896 2-2s-.896-2-2-2c-1.105 0-2 .896-2 2s.895 2 2 2m0 3c-1.105 0-2 .896-2 2s.895 2 2 2c1.104 0 2-.896 2-2s-.896-2-2-2m3.5.5c1.104 0 2-.896 2-2s-.896-2-2-2c-1.105 0-2 .896-2 2s.895 2 2 2m-7 0c1.104 0 2-.896 2-2s-.896-2-2-2c-1.105 0-2 .896-2 2s.895 2 2 2m-7.6177 11.3574h-28c-1.104 0-2-.895-2-2v-17.999c0-.552.448-1 1-1h30c.552 0 1 .448 1 1v17.999c0 1.105-.896 2-2 2m4 2.001v-24c0-.552-.448-1-1-1h-34c-.552 0-1 .448-1 1v24c0 .552.448 1 1 1h34c.552 0 1-.448 1-1m51.4985 20.4863h-1.765c-.552 0-1 .448-1 1s.448 1 1 1h1.765c.552 0 1-.448 1-1s-.448-1-1-1m-235.4868-150.0317c-1.457 0-2.643-1.186-2.643-2.643s1.186-2.643 2.643-2.643c1.458 0 2.643 1.186 2.643 2.643s-1.185 2.643-2.643 2.643m0-7.286c-2.56 0-4.643 2.083-4.643 4.643s2.083 4.643 4.643 4.643 4.643-2.083 4.643-4.643-2.083-4.643-4.643-4.643m155.3227 38.7039h60c1.657 0 3-1.343 3-3v-56c0-1.657-1.343-3-3-3h-10.133c-.552 0-1 .448-1 1s.448 1 1 1h8.133c1.657 0 3 1.343 3 3v52c0 1.657-1.343 3-3 3h-56c-1.657 0-3-1.343-3-3v-52c0-1.657 1.343-3 3-3h43c.553 0 1-.448 1-1s-.447-1-1-1h-45c-1.657 0-3 1.343-3 3v56c0 1.657 1.343 3 3 3"/><path d="m295.5771 40.3862h42c1.657 0 3 1.343 3 3v28.993c0 1.657-1.343 3-3 3-1.104 0-2-.895-2-2v-8.526c0-10.289-7.985-19.064-18.267-19.453-10.809-.409-19.733 8.266-19.733 18.986v10.864c0 .552.448 1 1 1s1-.448 1-1v-10.414c0-9.509 7.781-17.607 17.289-17.448 9.241.155 16.711 7.721 16.711 16.998v16c0 2.209-1.791 4-4 4h-31-3c-1.657 0-3-1.343-3-3v-38c0-1.657 1.343-3 3-3m-5 1v42c0 1.657 1.343 3 3 3h46c1.657 0 3-1.343 3-3v-42c0-1.657-1.343-3-3-3h-46c-1.657 0-3 1.343-3 3"/><path d="m299.5771 79.6255v-.75c0-.553-.448-1-1-1s-1 .447-1 1v.75c0 .552.448 1 1 1s1-.448 1-1m26.8672-12.6734c0-.863.703-1.566 1.566-1.566.864 0 1.567.703 1.567 1.566v4.357c0 .864-.703 1.566-1.567 1.566-.863 0-1.566-.702-1.566-1.566zm1.566 7.923c1.967 0 3.567-1.6 3.567-3.566v-4.357c0-1.966-1.6-3.566-3.567-3.566-1.966 0-3.566 1.6-3.566 3.566v4.357c0 1.966 1.6 3.566 3.566 3.566zm-13.066-6.9557c0-1.397 1.136-2.533 2.533-2.533s2.533 1.136 2.533 2.533v2.423c0 1.397-1.136 2.533-2.533 2.533s-2.533-1.136-2.533-2.533zm2.533 6.956c2.5 0 4.533-2.034 4.533-4.533v-2.423c0-2.5-2.033-4.533-4.533-4.533-2.499 0-4.533 2.033-4.533 4.533v2.423c0 2.499 2.034 4.533 4.533 4.533zm-154.5198-14.7563h19.402c.553 0 1-.448 1-1s-.447-1-1-1h-14.402c-2.209 0-4-1.791-4-4v-47.999c0-2.209 1.791-4 4-4h100c2.209 0 4 1.791 4 4v47.999c0 2.209-1.791 4-4 4h-72.223c-.552 0-1 .448-1 1s.448 1 1 1h77.223c.552 0 1-.448 1-1v-57.999c0-.552-.448-1-1-1h-110c-.552 0-1 .448-1 1v57.999c0 .552.448 1 1 1"/><path d="m189.9844 58.1191c-.552 0-1 .448-1 1s.448 1 1 1h2.188c.552 0 1-.448 1-1s-.448-1-1-1zm43.5547-33.1445c-.581.108-1.164.222-1.75.339-1.121.223-2.261.508-3.483.869-.53.157-.832.713-.676 1.243.129.435.527.716.959.716.094 0 .189-.013.284-.041 1.164-.344 2.246-.614 3.307-.826.578-.115 1.153-.227 1.726-.334.543-.102.901-.624.8-1.167-.102-.543-.627-.902-1.167-.799"/><path d="m264.9575 19.3833c-12.371-3.962-27.026-1.995-40.979 1.417-3.446.842-7.08-.216-9.545-2.769l-2.494-2.581c-.186-.193-.442-.303-.71-.305-.303-.031-.526.103-.716.293l-6.9 6.9c-3.776 3.775-9.112 5.579-14.396 4.818-9.485-1.365-16.544-5.758-18.26-6.909v-9.127c0-1.104.896-2 2-2h90c1.104 0 2 .896 2 2zm0 11.549c-10.075-7.806-19.28-7.807-27.75-6.574-.546.079-.925.587-.845 1.133.079.547.591.922 1.134.846 7.783-1.133 16.212-1.171 25.383 5.536 1.324.968 2.078 2.534 2.078 4.174 0 2.503-1.775 4.634-4.229 5.132-3.213.653-7.819 1.01-13.312 1.428-4.898.373-9.724-1.39-13.224-4.836l-14.124-13.904c12.723-3.389 26.287-5.936 38.177-4.02 3.872.624 6.712 3.98 6.712 7.902zm-2 20.187h-12.748c-2.441 0-4.778-.992-6.474-2.748l-2.23-2.309c9.218-.887 16.808-2.316 21.04-3.22 1.245-.266 2.412.684 2.412 1.957v4.32c0 1.104-.896 2-2 2zm-83.59-1.707 27.524-27.524c2.372-2.372 6.228-2.338 8.558.075l26.523 27.461c.612.635.163 1.695-.72 1.695h-61.178c-.89 0-1.337-1.077-.707-1.707zm-8.41-.293c0-.72.306-1.404.853-1.872 1.435-1.228 4.62-3.191 10.81-3.917l-7.063 7.064c-.464.464-1.094.725-1.75.725h-.85c-1.104 0-2-.896-2-2zm0-23.043c0-1.495 1.584-2.472 2.91-1.781 4.468 2.33 11.911 5.304 20.793 5.304.571 0 1.151-.017 1.734-.043l-1.609 1.61c-2.752 2.751-6.675 4.037-10.504 3.343-3.87-.7-6.99-1.605-9.326-2.43-.52-.185-1.093.088-1.276.609-.184.521.089 1.092.609 1.277 3.325 1.175 8.181 2.505 14.473 3.225l-3.929 3.928c-5.079.287-8.617 1.336-11.032 2.488-1.322.631-2.843-.345-2.843-1.81zm96 26.043v-43.999c0-.552-.448-1-1-1h-96c-.552 0-1 .448-1 1v43.999c0 .552.448 1 1 1h96c.552 0 1-.448 1-1zm-255.6284 53.8744h.51c.552 0 1 .448 1 1v.51c0 .552.448 1 1 1 .553 0 1-.448 1-1v-.51c0-.553.448-1 1-1h.51c.552 0 1-.448 1-1 0-.553-.448-1-1-1h-.51c-.552 0-1-.448-1-1v-.51c0-.552-.447-1-1-1-.552 0-1 .448-1 1v.51c0 .552-.448 1-1 1h-.51c-.552 0-1 .448-1 1s.448 1 1 1m80.4839-97.875h1.51v1.51c0 .553.448 1 1 1s1-.447 1-1v-1.51h1.51c.552 0 1-.448 1-1s-.448-1-1-1h-1.51v-1.51c0-.552-.448-1-1-1s-1 .448-1 1v1.51h-1.51c-.552 0-1 .448-1 1s.448 1 1 1m-27.3071 28.8945c.256 0 .512-.098.707-.293l1.183-1.183c.391-.391.391-1.024 0-1.414-.39-.391-1.023-.391-1.414 0l-1.183 1.183c-.391.391-.391 1.023 0 1.414.195.195.451.293.707.293m-5.9161 5.916c.256 0 .512-.098.707-.293l1.183-1.183c.391-.391.391-1.024 0-1.414-.39-.391-1.023-.391-1.414 0l-1.183 1.183c-.391.391-.391 1.023 0 1.414.195.195.451.293.707.293m6.3921-.293c.195.195.451.293.707.293s.512-.098.707-.293c.391-.391.391-1.023 0-1.414l-1.183-1.183c-.391-.391-1.023-.391-1.414 0-.391.39-.391 1.023 0 1.414zm-5.916-5.916c.195.195.451.293.707.293s.512-.098.707-.293c.391-.391.391-1.023 0-1.414l-1.183-1.183c-.391-.391-1.023-.391-1.414 0-.391.39-.391 1.023 0 1.414zm209.502 56.9151c-.391-.391-1.024-.391-1.414 0l-1.183 1.184c-.391.39-.391 1.024 0 1.414.195.195.451.293.707.293s.512-.098.707-.293l1.183-1.184c.391-.391.391-1.024 0-1.414m-7.3301 5.9165-1.183 1.183c-.391.391-.391 1.024 0 1.414.195.195.451.293.707.293s.512-.098.707-.293l1.183-1.183c.391-.391.391-1.023 0-1.414s-1.023-.391-1.414 0m6.147 0c-.391-.391-1.023-.391-1.414 0s-.391 1.023 0 1.414l1.183 1.183c.195.195.451.293.707.293s.512-.098.707-.293c.391-.39.391-1.023 0-1.414zm-4.7329-4.733-1.183-1.184c-.391-.39-1.024-.39-1.414 0-.391.391-.391 1.024 0 1.414l1.183 1.184c.195.195.451.293.707.293s.512-.098.707-.293c.391-.39.391-1.023 0-1.414m-143.8038-70.7197c.833 0 1.51.677 1.51 1.51 0 .832-.677 1.51-1.51 1.51s-1.51-.678-1.51-1.51c0-.833.677-1.51 1.51-1.51m0 5.02c1.936 0 3.51-1.575 3.51-3.51s-1.574-3.51-3.51-3.51c-1.935 0-3.51 1.575-3.51 3.51s1.575 3.51 3.51 3.51m-89.9526 143.0538c2.456 0 4.454 1.998 4.454 4.453 0 2.456-1.998 4.453-4.454 4.453s-4.453-1.997-4.453-4.453c0-2.455 1.997-4.453 4.453-4.453m0 10.906c3.559 0 6.454-2.895 6.454-6.453s-2.895-6.453-6.454-6.453c-3.558 0-6.453 2.895-6.453 6.453s2.895 6.453 6.453 6.453m30.8584-5.8504c12.958 0 23.5-10.542 23.5-23.5 0-5.874-2.179-11.498-6.135-15.833-.371-.408-1.004-.437-1.412-.065-.006.005-.008.013-.014.019-.392.374-.418.991-.051 1.393 3.619 3.967 5.612 9.111 5.612 14.486 0 11.855-9.645 21.5-21.5 21.5s-21.5-9.645-21.5-21.5 9.645-21.5 21.5-21.5c1.777 0 3.544.217 5.25.646.526.129 1.056-.183 1.202-.702.003-.009.009-.015.012-.025.135-.535-.191-1.079-.726-1.213-1.866-.469-3.797-.706-5.738-.706-12.958 0-23.5 10.542-23.5 23.5s10.542 23.5 23.5 23.5"/><path d="m70.3838 135.0352c.791.451 1.562.959 2.294 1.51.181.136.392.201.601.201.296 0 .585-.135.782-.384.005-.006.013-.008.018-.015.332-.441.243-1.068-.197-1.4-.8-.602-1.644-1.157-2.508-1.649-.48-.276-1.09-.107-1.364.373-.005.009-.004.019-.009.028-.252.476-.088 1.067.383 1.336"/><path d="m310.0181 211v-3.885c0-.552-.448-1-1-1h-5.396c-1.314 0-2.379-1.065-2.379-2.38 0-1.315 1.065-2.38 2.379-2.38h18.238v5.645c0 1.286.349 2.49.958 3.526.383.653-.121 1.474-.879 1.474h-10.921c-.552 0-1-.448-1-1zm-23.551.785h21.551v-3.669h-21.551zm-2-4.67v3.885c0 .552-.448 1-1 1h-11.869v-10.645h19.265c1.314 0 2.38 1.065 2.38 2.38 0 1.315-1.066 2.38-2.38 2.38h-5.396c-.552 0-1 .448-1 1zm14.776-4.76v2.76c0 .552-.448 1-1 1h-2c-.553 0-1-.448-1-1v-2.76c0-.552.447-1 1-1h2c.552 0 1 .448 1 1zm-30.785-3c-1.605 0-2.947-1.133-3.279-2.64.91.71 2.039 1.151 3.279 1.151h15.922c.552 0 1-.448 1-1s-.448-1-1-1h-15.922c-1.856 0-3.361-1.505-3.361-3.361v-24.04-1.951c0-1.105.896-2 2-2h60.291c1.105 0 2 .895 2 2v1.951 13.535c0 1.104-.895 2-2 2h-4.528c-.552 0-1 .448-1 1v10.866h-23.617c-.552 0-1 .448-1 1s.448 1 1 1h23.617v1.489zm-.86 12.645h-61.988c-1.104 0-2-.896-2-2v-14.325c0-1.105.896-2 2-2 1.105 0 2 .895 2 2v11.325c0 .552.448 1 1 1h55.988c.552 0 1-.448 1-1v-3.7c0-1.222 1.08-2.108 2.295-1.976.186.021.375.031.565.031h1.14v8.645c0 1.104-.895 2-2 2zm-65.988 0h-6.471c-1.104 0-2-.896-2-2v-3.785c0-.552-.448-1-1-1h-2v-4c0-.552-.448-1-1-1h-8-24.345c-2.507 0-4.54-2.033-4.54-4.54v-1c0-.552.448-1 1-1h48.356zm-12.471.215h-2c-1.104 0-2-.896-2-2v-3h6v3c0 1.104-.895 2-2 2zm-7-7v-1c0-1.105.896-2 2-2h2c1.105 0 2 .895 2 2v1h-4zm-1 7h-95.984c-1.104 0-2-.896-2-2v-3h99.984v3c0 1.104-.895 2-2 2zm-99.984-6v3.785c0 1.104-.895 2-2 2h-36.21c-.962 0-1.787-.684-1.966-1.628l-.212-1.124c-.396-2.094-2.226-3.61-4.356-3.61h-.001c-1.088 0-1.97-.882-1.97-1.971v-3.182h16.225c4.173 0 7.754-2.55 9.286-6.171.161-.38.517-.639.929-.639h53.374c.553 0 1 .448 1 1v1c0 2.507-2.032 4.54-4.54 4.54h-25.559c-.552 0-1 .448-1 1v4h-2c-.552 0-1 .448-1 1zm-44.534 5.785h-15.451c-1.202 0-2.181-.979-2.181-2.181 0-1.203.979-2.181 2.181-2.181h15.451c1.203 0 2.181.978 2.181 2.181 0 1.202-.978 2.181-2.181 2.181zm-4.181-11.515v2.84c0 1.105-.896 2-2 2h-3.089c-1.104 0-2-.895-2-2v-2.84zm-7.089-1.999h7.089v-5.541h-7.089zm-9.088-14.721v-18.125c0-.452.366-.818.817-.818h14.809c2.022 5.06 5.379 9.444 9.64 12.713v6.23c0 3.959-3.221 7.18-7.18 7.18h-10.907c-3.959 0-7.179-3.221-7.179-7.18zm4.404-28.509 6.317 5.831c.669.618.232 1.735-.678 1.735h-5.317c-1.104 0-2-.896-2-2v-4.831c0-.871 1.038-1.326 1.678-.735zm-.577-9.127c.64-1.091 2.143-1.287 3.072-.429l5.179 4.78c.901.832 1.413 2.003 1.413 3.229v.02c0 1.768.157 3.5.454 5.185.166.938-.958 1.544-1.658.897l-8.407-7.761c-.738-.68-1.091-1.685-.928-2.676.187-1.14.485-2.578.875-3.245zm6.988-4.029h3.635c.457 0 .903.047 1.34.121-.716 1.716-1.277 3.514-1.664 5.374-.159.759-1.081 1.056-1.651.53l-4.33-3.998c-.57-.524-.355-1.479.387-1.698.724-.214 1.49-.329 2.283-.329zm32.676-16.371c15.439 0 28 12.56 28 28 0 15.439-12.561 28-28 28-15.44 0-28-12.561-28-28 0-15.44 12.56-28 28-28zm14.783 54.088c9.765-5.553 16.129-16.422 15.11-28.646-1.236-14.837-13.48-26.652-28.349-27.403-5.457-.276-10.617.919-15.125 3.22-1.333.68-2.91-.276-2.91-1.773v-37.54c0-2.209 1.791-4 4-4h169.984c2.208 0 4 1.791 4 4v90c0 2.209-1.792 4-4 4h-142.202c-1.017 0-1.392-1.355-.508-1.858zm-19.236 5.264v-1.685c1.453.217 2.94.333 4.453.333s2.999-.116 4.453-.333v1.685c0 1.105-.896 2-2 2h-4.906c-1.105 0-2-.895-2-2zm2.752 8.594c-1.261 2.83-4.095 4.81-7.388 4.81h-16.225v-1.81c0-1.657 1.343-3 3-3zm-19.068-2c.089-.053.178-.106.265-.161 2.566-1.63 4.279-4.49 4.279-7.749v-.09h9.772v3.497c0 1.055.854 1.909 1.908 1.909h3.545s-.036.898-.068 1.638c-.022.535-.463.956-.999.956zm141.154 12.54v1h-93.984v-1c0-1.105.896-2 2-2h89.984c1.105 0 2 .895 2 2zm-31.885-4h-29c-1.104 0-2-.896-2-2v-2.54c0-1.105.896-2 2-2h29c1.105 0 2 .895 2 2v2.54c0 1.104-.895 2-2 2zm-87.5-11.134h3.544c1.054 0 1.909-.854 1.909-1.909v-3.497h153.04c2.208 0 4-1.791 4-4v-94c0-2.209-1.792-4-4-4h-173.984c-2.209 0-4 1.791-4 4v43.512c0 .598-.275 1.155-.734 1.539-2.073 1.734-3.908 3.742-5.451 5.968-.558.806-1.815.415-1.815-.565v-60.454c0-1.105.895-2 2-2h193.984c1.104 0 2 .895 2 2v114c0 1.104-.896 2-2 2h-167.548c-.566 0-1.019-.469-.999-1.035zm68.5-120.863h4v1.457c0 1.104-.895 2-2 2-1.104 0-2-.896-2-2zm-4.892-8.89v-.005c0-3.805 3.085-6.89 6.89-6.89h.005c3.805 0 6.89 3.085 6.89 6.89v.005c0 3.805-3.085 6.89-6.89 6.89h-.005c-3.805 0-6.89-3.085-6.89-6.89zm96.479 135.441c1.781 0 3.231 1.449 3.231 3.231 0 1.781-1.45 3.23-3.231 3.23s-3.231-1.449-3.231-3.23c0-1.782 1.45-3.231 3.231-3.231zm12.406-2.094v-2.675h29.85v2.505 3.489c0 .798.187 1.549.501 2.23v7.776h-53.988v-12.325h5.966c.77 0 1.283.853.866 1.499-.72 1.117-1.028 2.524-.702 4.005.429 1.949 2.012 3.518 3.965 3.931 3.378.715 6.367-1.855 6.367-5.11 0-1.034-.302-1.998-.822-2.81-.42-.656.073-1.515.852-1.515h6.145c.552 0 1-.448 1-1zm2-8.675h25.85c1.105 0 2 .896 2 2s-.895 2-2 2h-25.85c-1.105 0-2-.896-2-2s.895-2 2-2zm26.996-22.486c0-.552.448-1 1-1h40.637c.552 0 1-.448 1-1-.001-.553-.448-1-1-1h-33.798c-2.761 0-5-2.239-5-5v-23.683c0-1.857 1.505-3.362 3.362-3.362h57.568c1.857 0 3.361 1.505 3.361 3.362v9.862c-.717.061-1.321.521-1.578 1.163-.124.166-.211.361-.211.584v3.617c0 .13.029.252.074.365v2.489c0 .978.757 1.775 1.715 1.856v3.747c0 2.761-2.238 5-5 5h-14.13c-.553 0-1 .447-1 1 0 .552.447 1 1 1h21c.551 0 1 .448 1 1 0 .551-.449 1-1 1h-68c-.552 0-1-.449-1-1zm-139.881-97.724h-4.107c-1.105 0-2-.896-2-2v-4.929c0-1.104.895-2 2-2h4.107zm17.785-8.929h4.106c1.105 0 2 .896 2 2v4.929c0 1.104-.895 2-2 2h-4.106zm191.256 89.196h.798v-1.617h-.798zm18.457 46.943c1.105 0 2 .896 2 2v8c0 1.104-.895 2-2 2-1.104 0-2-.896-2-2v-8c0-1.104.896-2 2-2zm8.884 21h-10.963c-.757 0-1.261-.821-.878-1.474.608-1.036.957-2.24.957-3.526 0-1.104.896-2 2-2 2.209 0 4-1.791 4-4v-8c0-2.209-1.791-4-4-4-1.104 0-2-.896-2-2v-2c0-.552-.447-1-1-1h-5.774c-.552 0-1 .448-1 1 0 .552.448 1 1 1h3.774c.553 0 1 .448 1 1v20c0 2.761-2.238 5-5 5h-12c-2.761 0-5-2.239-5-5v-20c0-.552.448-1 1-1h12.353c.552 0 1-.448 1-1-.001-.552-.448-1-1-1h-2.825c-1.657 0-3-1.343-3-3v-13.535-1.367c0-.783.407-1.545 1.117-1.874 1.025-.474 1.738-1.508 1.738-2.71 0-1.206-.717-2.243-1.746-2.716-.713-.327-1.124-1.092-1.124-1.877v-7.993c.008-.05.03-.094.03-.145v-1.8c0-.511.414-.926.926-.926 1.034 0 1.872-.838 1.872-1.872v-1.873c0-1.033-.838-1.872-1.872-1.872h-.03c-.511 0-.926-.414-.926-.925v-9.684c0-2.961-2.4-5.362-5.361-5.362h-57.569c-2.961 0-5.361 2.4-5.361 5.361v27.107c0 .78-.404 1.541-1.111 1.871-1.02.477-1.728 1.507-1.728 2.706 0 1.202.712 2.236 1.737 2.71.71.329 1.117 1.091 1.117 1.874v1.367 14.535h-29.85v-109.325c0-.552-.448-1-1-1h-94.993c-1.104 0-2-.896-2-2v-1.457h3.893c.553 0 1-.447 1-1 0-.789.64-1.428 1.429-1.428h5.677c.553 0 1-.448 1-1v-10.929c0-.552-.447-1-1-1h-5.677c-.789 0-1.429-.639-1.429-1.428 0-.553-.447-1-1-1h-15.785c-.552 0-1 .447-1 1 0 .789-.64 1.428-1.429 1.428h-5.678c-.552 0-1 .448-1 1v10.929c0 .552.448 1 1 1h5.678c.789 0 1.429.639 1.429 1.428 0 .553.448 1 1 1h3.892v1.457c0 1.104-.895 2-2 2h-92.991-.001c-.552 0-.999.448-.999 1v63.265c0 2.305-1.874 4.17-4.179 4.16h-.006c-5.565-.025-10.089 4.479-10.089 10.044v12.687c-1.511.049-2.726 1.286-2.726 2.809v18.125c0 4.276 2.94 7.876 6.903 8.89 1.311.335 2.185 1.578 2.185 2.931v8.081c0 1.089-.882 1.971-1.97 1.971-2.131 0-3.961 1.516-4.357 3.61l-.212 1.124c-.179.944-1.004 1.628-1.965 1.628h-13.056c-.552 0-1 .448-1 1s.448 1 1 1h19.379 15.451 233.977 58.262 12 17.884c.552 0 1-.448 1-1s-.448-1-1-1z"/></g></g></g><path d="m0 0h400v220h-400z"/></g></svg>