<svg xmlns="http://www.w3.org/2000/svg" viewBox="0 0 48 48">
  <path d="M48 24A24 24 0 1 1 24 0a24 24 0 0 1 24 24z" fill="#ffd836"/>
  <path d="M29.93 39.35a15.22 15.22 0 0 0-11.87 0 5.95 5.95 0 0 1 10.15-3.85 5.83 5.83 0 0 1 1.72 3.85z" fill="#36393f"/>
  <rect x="29.23" y="26.94" width="8.96" height="2.29" rx="1.15" fill="#a63a0c"/>
  <rect x="9.81" y="26.94" width="8.96" height="2.29" rx="1.15" fill="#a63a0c"/>
  <path d="M9 9.39l-2.52 5A2.82 2.82 0 0 0 9 18.49a2.81 2.81 0 0 0 2.51-4.07z" fill="#fff"/>
</svg>
