<svg width="329" height="201" viewBox="0 0 329 201" fill="none" xmlns="http://www.w3.org/2000/svg">
<path opacity="0.2" d="M429 214H281C281 201.024 292.096 190.61 305.923 190.61H332.894C335.284 190.61 337.161 188.902 337.161 186.512C337.161 170.805 350.647 158 367.376 158H368.571C385.3 158 398.785 170.805 398.785 186.512V195.049C398.956 199.659 402.882 203.244 407.491 203.244H417.392C423.537 202.902 428.829 207.854 429 214Z" fill="white"/>
<path opacity="0.4" d="M290 115H375C374.867 106.683 367.961 99.9248 359.328 99.9248H350.297C348.836 99.9248 347.641 98.7552 347.641 97.3257C347.508 87.1889 339.008 79.0015 328.648 79.0015H327.852C317.492 78.8716 308.992 87.0589 308.859 97.3257V102.784C308.859 105.643 306.336 107.982 303.414 107.982H297.172C293.32 107.982 290.133 111.101 290 115Z" fill="white"/>
<path opacity="0.3" d="M33.5321 51.0827C33.5321 46.6654 30.3319 43 26.3786 43H18.9426C14.9894 43 11.7891 46.5714 11.7891 51.0827C11.7891 51.9286 11.2243 52.6805 10.3772 52.6805H8.11818C4.72965 52.6805 2 55.782 2 59.5414H43.4153C43.4153 56.5339 41.2505 53.9963 38.5208 53.9963H36.2618C34.6616 53.9963 33.438 52.6805 33.5321 51.0827C33.5321 51.1767 33.5321 51.0827 33.5321 51.0827Z" fill="white"/>
<path opacity="0.2" d="M265.341 149.17C265.341 141.426 259.623 135 252.559 135H239.273C232.209 135 226.491 141.261 226.491 149.17C226.491 150.653 225.482 151.972 223.968 151.972H219.932C213.877 151.972 209 157.409 209 164H283C283 158.727 279.132 154.278 274.255 154.278H270.218C267.359 154.278 265.173 151.972 265.341 149.17C265.341 149.335 265.341 149.17 265.341 149.17Z" fill="white"/>
<path opacity="0.4" d="M143.205 186.216C143.205 179.54 138.414 174 132.495 174H121.364C115.445 174 110.655 179.398 110.655 186.216C110.655 187.494 109.809 188.631 108.541 188.631H105.159C100.086 188.631 96 193.318 96 199H158C158 194.455 154.759 190.619 150.673 190.619H147.291C144.895 190.619 143.064 188.631 143.205 186.216Z" fill="white"/>
<path opacity="0.2" d="M153.415 123.703H112C112.094 119.943 115.2 117.03 118.965 117.124H126.495C127.154 117.124 127.719 116.654 127.719 115.996C127.813 111.485 131.672 107.913 136.19 108.007H136.567C141.085 107.819 144.85 111.391 145.038 115.996V118.345C145.038 119.661 146.168 120.695 147.485 120.601H150.215C151.909 120.507 153.321 121.823 153.415 123.703C153.415 123.609 153.415 123.609 153.415 123.703Z" fill="white"/>
<path opacity="0.2" d="M53.4154 153.703H12C12.0941 149.943 15.2003 147.03 18.9653 147.124H26.4954C27.1543 147.124 27.719 146.654 27.719 145.996C27.8131 141.485 31.6723 137.913 36.1903 138.007H36.5668C41.0849 137.819 44.8499 141.391 45.0382 145.996V148.345C45.0382 149.661 46.1677 150.695 47.4854 150.601H50.2151C51.9093 150.507 53.3212 151.823 53.4154 153.703C53.4154 153.609 53.4154 153.609 53.4154 153.703Z" fill="white"/>
<path opacity="0.2" d="M265 38H132C132 26.8781 141.971 17.9512 154.397 17.9512H178.634C180.782 17.9512 182.469 16.4878 182.469 14.439C182.469 0.975627 194.588 -10 209.622 -10H210.695C225.729 -10 237.848 0.975627 237.848 14.439V21.7561C238.001 25.7073 241.529 28.7805 245.671 28.7805H254.569C260.091 28.4878 264.847 32.7317 265 38Z" fill="white"/>
<path fill-rule="evenodd" clip-rule="evenodd" d="M114.242 66.2011L173.21 44.6174L163.318 63.9987C161.394 67.7978 158.097 70.716 154.14 72.1476L107.207 89.3815L105.559 84.9216L114.242 66.2011Z" fill="#DAE2ED"/>
<path fill-rule="evenodd" clip-rule="evenodd" d="M100.726 64.218L179.094 35.5316C179.423 35.4214 179.753 35.5866 179.863 35.8619C179.918 36.0271 179.918 36.1923 179.863 36.3024L176.84 42.4141C176.511 43.1299 175.906 43.6254 175.192 43.9007L173.268 44.6165L114.245 66.2002L105.562 84.9207L107.155 89.3806L108.365 92.7393L88.6351 99.9522L85.7773 92.1336L97.3182 67.3014C98.0327 65.8698 99.2417 64.7686 100.726 64.218Z" fill="#ECEFF6"/>
<path fill-rule="evenodd" clip-rule="evenodd" d="M105.613 84.9216L114.296 66.2011L173.265 44.6174L171.286 48.5267L116.385 68.6238L108.361 85.9678L109.35 88.6107L107.262 89.3265L105.613 84.9216Z" fill="#C5CEDD"/>
<path fill-rule="evenodd" clip-rule="evenodd" d="M83.577 83.3233C74.6741 102.209 82.6977 124.729 101.548 133.704C120.398 142.678 142.875 134.585 151.833 115.699C160.791 96.8131 152.712 74.2934 133.862 65.3185C114.957 56.5089 92.535 64.5477 83.577 83.3233Z" fill="#4F5D7F"/>
<path fill-rule="evenodd" clip-rule="evenodd" d="M95.5016 89.0485C89.7312 101.327 94.9521 115.973 107.207 121.754C119.463 127.536 134.081 122.305 139.852 110.027C145.622 97.748 140.401 83.102 128.146 77.3206C115.945 71.5944 101.382 76.8251 95.5016 89.0485Z" fill="#7687B2"/>
<path fill-rule="evenodd" clip-rule="evenodd" d="M92.4806 69.612C92.4257 75.3934 107.594 89.5439 117.541 97.3625C126.719 97.4175 149.471 96.4815 154.801 91.2508C155.296 90.8103 155.626 90.2046 155.681 89.5439C155.681 89.3237 155.626 89.1034 155.571 88.8832C152.383 77.4857 144.909 68.5108 134.577 63.6105C121.553 57.3886 106.055 59.1506 93.0851 68.2906C92.7004 68.5659 92.4806 69.0614 92.4806 69.612Z" fill="#FF7F14"/>
<path fill-rule="evenodd" clip-rule="evenodd" d="M116.881 99.291C116.881 99.291 153.152 77.4871 149.47 72.9722C145.678 68.292 140.842 64.4928 135.401 61.905C120.728 54.9123 104.516 57.9407 92.0405 66.7503C83.2475 72.9722 116.881 99.291 116.881 99.291Z" fill="#FF903E"/>
<path fill-rule="evenodd" clip-rule="evenodd" d="M98.9108 90.6484C94.0196 101.055 98.4162 113.443 108.803 118.344C119.19 123.244 131.555 118.839 136.446 108.433C141.337 98.0265 136.941 85.6379 126.554 80.7375C116.167 75.8922 103.857 80.297 98.9108 90.6484Z" fill="#EBEFF7"/>
<path fill-rule="evenodd" clip-rule="evenodd" d="M101.932 92.0784C97.8103 100.833 101.547 111.239 110.23 115.369C118.914 119.498 129.355 115.754 133.477 107.055C137.599 98.3553 133.862 87.8938 125.179 83.7643C116.441 79.6347 106.054 83.3788 101.932 92.0784Z" fill="#DAE2ED"/>
<path fill-rule="evenodd" clip-rule="evenodd" d="M128.092 92.1337L118.64 86.4624C118.035 86.1321 117.321 86.1321 116.771 86.4624L107.154 91.8584C106.549 92.1887 106.164 92.8494 106.164 93.5102L106.054 104.577C106.054 105.238 106.384 105.899 106.989 106.229L116.441 111.9C117.046 112.231 117.76 112.231 118.31 111.9L127.927 106.449C128.532 106.119 128.916 105.458 128.916 104.798L129.026 93.7304C129.026 93.1247 128.642 92.464 128.092 92.1337Z" fill="#C5CEDD"/>
<path fill-rule="evenodd" clip-rule="evenodd" d="M112.21 96.9782C110.781 100.007 112.1 103.585 115.122 105.017C118.145 106.449 121.717 105.127 123.146 102.099C124.575 99.0705 123.256 95.4916 120.288 94.06C117.266 92.6835 113.639 93.9499 112.21 96.9782Z" fill="#B7C2CE"/>
<path fill-rule="evenodd" clip-rule="evenodd" d="M70.6091 135.302H73.9065C74.7308 135.302 75.4452 135.962 75.4452 136.843V143.726C75.3903 145.598 76.8192 147.195 78.7426 147.305C80.6661 147.415 82.2049 145.928 82.3148 144.001C82.3148 143.891 82.3148 143.836 82.3148 143.726V114.764C82.3148 112.672 80.6661 110.91 78.5228 110.91C78.5228 110.91 78.5228 110.91 78.4679 110.91H66.8171C64.7287 110.91 63.0251 112.617 63.0251 114.709C63.0251 114.709 63.0251 114.709 63.0251 114.764V127.648C62.9701 131.888 66.3774 135.302 70.6091 135.302ZM62.6953 98.6864H69.2901C69.2901 101.109 69.2901 103.532 69.2901 105.954H62.8052C62.8602 103.587 62.8602 101.109 62.6953 98.6864Z" fill="#7196FF"/>
<path fill-rule="evenodd" clip-rule="evenodd" d="M65.0558 114.544H92.8638C93.1935 114.544 93.4683 114.268 93.4683 113.938C93.4683 113.608 93.1935 113.332 92.8638 113.332H65.0558C64.726 113.332 64.4512 113.057 64.4512 112.727V108.267C64.4512 107.936 64.1764 107.661 63.8467 107.661C63.517 107.661 63.2422 107.936 63.2422 108.267V112.727C63.2971 113.718 64.0665 114.544 65.0558 114.544Z" fill="#E4E9F7"/>
<path fill-rule="evenodd" clip-rule="evenodd" d="M61.8155 110.966H65.9372C66.267 110.966 66.5417 110.69 66.5417 110.36V97.5859C66.5417 97.2555 66.267 96.9802 65.9372 96.9802H61.8155C61.4857 96.9802 61.2109 97.2555 61.2109 97.5859V110.36C61.2109 110.69 61.4308 110.966 61.8155 110.966C61.7605 110.966 61.7605 110.966 61.8155 110.966Z" fill="black"/>
<path fill-rule="evenodd" clip-rule="evenodd" d="M62.7492 98.6864H60.3311C60.0013 98.6864 59.7266 98.9617 59.7266 99.2921C59.7266 101.329 59.7266 103.367 59.7266 105.404C59.7266 105.734 60.0013 106.009 60.3311 106.009H62.5843C64.3979 106.009 65.9367 104.743 66.2664 102.981C66.5961 100.999 65.2772 99.1269 63.2987 98.7415C63.1339 98.7415 62.914 98.6864 62.7492 98.6864Z" fill="#7196FF"/>
<path fill-rule="evenodd" clip-rule="evenodd" d="M75.3897 110.966H79.5114C79.8412 110.966 80.1159 110.69 80.1159 110.36V97.5859C80.1159 97.2555 79.8412 96.9802 79.5114 96.9802H75.3897C75.0599 96.9802 74.7852 97.2555 74.7852 97.5859V110.36C74.7852 110.69 75.0599 110.966 75.3897 110.966Z" fill="black"/>
<path fill-rule="evenodd" clip-rule="evenodd" d="M66.2128 101.494C69.3453 97.1998 74.3464 94.6119 79.6772 94.6119H102.209C107.705 94.667 112.157 99.1269 112.157 104.688V123.188C112.157 126.877 109.189 129.906 105.507 129.906H73.0274C67.4768 129.851 63.0253 125.391 63.0253 119.83V111.405C62.9704 107.826 64.1244 104.358 66.2128 101.494Z" fill="#AEC7FF"/>
<path fill-rule="evenodd" clip-rule="evenodd" d="M95.3948 94.6119H102.154C107.705 94.667 112.157 99.1269 112.157 104.688V120.766C112.157 124.455 109.189 127.483 105.507 127.483H95.3398C95.5047 116.581 95.5047 105.569 95.3948 94.6119ZM116.828 118.563L123.862 120.655C126.555 121.426 128.094 124.179 127.325 126.877C126.555 129.575 123.807 131.117 121.114 130.346C119.411 129.851 118.092 128.584 117.652 126.877L115.564 119.83C115.399 119.334 115.674 118.728 116.168 118.563C116.388 118.508 116.608 118.508 116.828 118.563Z" fill="#7196FF"/>
<path fill-rule="evenodd" clip-rule="evenodd" d="M100.504 135.302H103.802C104.626 135.302 105.34 135.963 105.34 136.844V143.726C105.286 145.598 106.714 147.195 108.638 147.305C110.506 147.36 112.1 145.929 112.21 144.002C112.21 143.891 112.21 143.836 112.21 143.726V109.369C112.21 107.276 110.506 105.514 108.418 105.514H96.7672C94.6789 105.514 92.9752 107.276 92.9752 109.369V127.649C92.8653 131.888 96.2726 135.302 100.504 135.302Z" fill="#7196FF"/>
<path fill-rule="evenodd" clip-rule="evenodd" d="M78.6847 114.543H106.493C106.822 114.543 107.097 114.267 107.097 113.937C107.097 113.607 106.822 113.331 106.493 113.331H78.6847C78.3549 113.331 78.0801 113.056 78.0801 112.726V108.266C78.1351 107.935 77.8603 107.66 77.5306 107.605C77.2008 107.55 76.9261 107.825 76.8711 108.156C76.8711 108.211 76.8711 108.211 76.8711 108.266V112.726C76.8711 113.717 77.6954 114.488 78.6847 114.543Z" fill="#E4E9F7"/>
<path fill-rule="evenodd" clip-rule="evenodd" d="M75.3897 110.966H79.5114C79.8412 110.966 80.1159 110.69 80.1159 110.36V97.5859C80.1159 97.2555 79.8412 96.9802 79.5114 96.9802H75.3897C75.0599 96.9802 74.7852 97.2555 74.7852 97.5859V110.36C74.7852 110.69 75.0599 110.966 75.3897 110.966Z" fill="black"/>
<path fill-rule="evenodd" clip-rule="evenodd" d="M75.2242 98.6864H88.7985C91.0517 98.6864 92.8653 96.8694 92.8653 94.6119H101.384V112.341H92.9203C92.1509 107.881 88.249 105.954 83.5776 105.954H75.3342C73.5206 105.954 71.9818 104.688 71.6521 102.926C71.3223 100.944 72.6413 99.0718 74.6197 98.6864C74.7846 98.7415 75.0044 98.6864 75.2242 98.6864Z" fill="#7196FF"/>
<path fill-rule="evenodd" clip-rule="evenodd" d="M106.439 94.8319H75.4438C69.8932 94.8319 65.3867 90.3169 65.3867 84.7558V66.0353C65.4417 60.4742 69.8932 55.9592 75.4438 55.9592H106.439C111.99 55.9592 116.441 60.4742 116.496 66.0353V84.7558C116.441 90.3169 111.99 94.8319 106.439 94.8319Z" fill="#80A7FF"/>
<path fill-rule="evenodd" clip-rule="evenodd" d="M99.9002 94.8308H68.9047C63.3541 94.8308 58.8477 90.3158 58.8477 84.6997V65.9791C58.9026 60.418 63.3541 55.9581 68.9047 55.9031H99.9002C105.451 55.9031 109.957 60.418 109.957 65.9791V84.6997C109.957 90.3158 105.451 94.8308 99.9002 94.8308Z" fill="#9CB8FF"/>
<path fill-rule="evenodd" clip-rule="evenodd" d="M113.474 82.4437H106.054V64.2738H113.474C117.156 64.2738 120.178 67.3021 120.178 70.9912V75.7264C120.178 79.4154 117.156 82.4437 113.474 82.4437Z" fill="#9CB8FF"/>
<path fill-rule="evenodd" clip-rule="evenodd" d="M106.054 78.3689V68.2928C106.054 67.9074 106.329 67.6321 106.714 67.6321H113.419C115.287 67.6321 116.771 69.1187 116.771 70.9908V75.726C116.771 77.598 115.287 79.0846 113.419 79.0846H106.714C106.384 79.0846 106.054 78.7543 106.054 78.3689C106.054 78.4239 106.054 78.3689 106.054 78.3689Z" fill="#80A7FF"/>
<path fill-rule="evenodd" clip-rule="evenodd" d="M94.4029 76.5505C92.5893 76.5505 91.1055 75.0638 91.1055 73.2469C91.1055 71.4299 92.5893 69.9432 94.4029 69.9432C96.2164 69.9432 97.7003 71.4299 97.7003 73.2469C97.7003 75.0638 96.2164 76.5505 94.4029 76.5505Z" fill="black"/>
<path fill-rule="evenodd" clip-rule="evenodd" d="M58.5704 66.0342H81.3774C83.5757 66.0342 85.3893 67.8512 85.3893 70.0536V74.7888C85.3893 80.3499 80.8828 84.8648 75.3322 84.9199H64.6157C59.065 84.9199 54.5586 80.4049 54.5586 74.8438V70.1086C54.5586 67.8512 56.3722 66.0342 58.5704 66.0342Z" fill="#CBDAF7"/>
<path fill-rule="evenodd" clip-rule="evenodd" d="M70.6609 84.922H64.6156C59.065 84.922 54.5586 80.407 54.5586 74.8459V70.1107C54.5586 67.9083 56.3722 66.0913 58.5704 66.0913H76.6511C78.8494 66.0913 80.663 67.9083 80.663 70.1107V74.8459C80.663 80.352 76.2115 84.8669 70.6609 84.922Z" fill="#CBDAF7"/>
<path fill-rule="evenodd" clip-rule="evenodd" d="M67.9714 77.2667H72.313C73.2472 77.3218 73.9617 78.0926 73.9067 79.0287C73.8517 79.9096 73.1923 80.5703 72.313 80.6254H67.9714C67.0371 80.5703 66.3227 79.7995 66.3777 78.8635C66.4326 77.9825 67.0921 77.3218 67.9714 77.2667ZM60.0576 77.2667H61.7063C62.6406 77.3218 63.355 78.0926 63.3001 79.0287C63.2451 79.9096 62.5856 80.5703 61.7063 80.6254H60.0576C59.1234 80.5703 58.409 79.7995 58.4639 78.8635C58.5189 77.9825 59.2333 77.3218 60.0576 77.2667Z" fill="#9CB8FF"/>
<path fill-rule="evenodd" clip-rule="evenodd" d="M69.7842 88.884H67.0913C66.4868 88.884 65.9922 88.3885 65.9922 87.7828C65.9922 87.1772 66.4868 86.6816 67.0913 86.6816H69.7842C70.3887 86.6816 70.8833 87.1772 70.8833 87.7828C70.8833 88.3885 70.3887 88.884 69.7842 88.884Z" fill="#80A7FF"/>
<path opacity="0.4" fill-rule="evenodd" clip-rule="evenodd" d="M56.8135 60.0326C56.8135 60.0326 47.1411 74.5135 57.5279 91.1968L63.4083 94.6105L101.328 92.9587L110.561 80.6252L101.328 55.9031H68.9039L56.8135 60.0326Z" fill="#4871E5"/>
<path fill-rule="evenodd" clip-rule="evenodd" d="M87.0384 46.3778C109.131 46.3778 121.331 61.3542 121.331 73.7428C121.331 86.1314 106.878 87.2326 103.47 78.478L96.326 59.4822L64.7809 63.6117L56.8672 60.0328C59.7799 55.1875 70.6613 46.3778 87.0384 46.3778Z" fill="#EBEFF7"/>
<path fill-rule="evenodd" clip-rule="evenodd" d="M105.834 80.625L85.83 91.1966H57.5273L60.2752 95.8217H106.384L110.396 86.6816L105.834 80.625Z" fill="#EBEFF7"/>
<path fill-rule="evenodd" clip-rule="evenodd" d="M110.453 66.0896L116.388 67.9616L118.971 57.4451C119.301 56.1236 118.477 54.8022 117.158 54.5269C116.004 54.2516 114.795 54.8573 114.355 55.9585L110.453 66.0896Z" fill="#DAE2ED"/>
<path fill-rule="evenodd" clip-rule="evenodd" d="M118.037 61.1901L116.388 68.0176L110.453 66.1456L112.981 59.5934C114.63 60.144 116.333 60.6946 118.037 61.1901Z" fill="#B7C2CE"/>
<path fill-rule="evenodd" clip-rule="evenodd" d="M106.934 115.975L130.015 121.316L131.994 112.506L108.912 107.165L106.934 115.975Z" fill="#B7C2CE"/>
<path fill-rule="evenodd" clip-rule="evenodd" d="M126.115 122.857L155.077 132.823C155.626 133.044 156.231 132.933 156.725 132.548C157.935 131.612 160.188 129.299 161.397 123.904C162.606 118.508 161.617 115.424 160.902 114.103C160.627 113.607 160.133 113.222 159.528 113.167L129.137 109.423C128.533 109.368 127.983 109.753 127.818 110.359L125.345 121.481C125.235 122.087 125.565 122.637 126.115 122.857Z" fill="#C5CEDD"/>
<path fill-rule="evenodd" clip-rule="evenodd" d="M134.137 114.542C133.972 115.313 134.467 116.084 135.181 116.249C135.951 116.414 136.72 115.919 136.885 115.203C137.05 114.432 136.555 113.661 135.841 113.496C135.072 113.276 134.302 113.772 134.137 114.542ZM140.842 115.478C140.677 116.249 141.172 117.02 141.886 117.185C142.656 117.351 143.425 116.855 143.59 116.139C143.755 115.368 143.26 114.597 142.546 114.432C141.776 114.212 141.007 114.708 140.842 115.478C140.787 115.478 140.787 115.478 140.842 115.478Z" fill="#B7C2CE"/>
<path fill-rule="evenodd" clip-rule="evenodd" d="M107.207 114.488L125.782 128.969L131.278 121.866L112.703 107.33L107.207 114.488Z" fill="#D0D9EA"/>
<path fill-rule="evenodd" clip-rule="evenodd" d="M121.663 128.693L143.811 150.001C144.25 150.387 144.8 150.607 145.404 150.442C146.888 150.111 149.911 148.955 153.263 144.605C156.616 140.256 157 137.007 156.945 135.52C156.945 134.915 156.616 134.419 156.121 134.089L130.126 117.846C129.632 117.516 128.917 117.626 128.588 118.121L121.663 127.151C121.169 127.592 121.223 128.307 121.663 128.693Z" fill="#EBEFF7"/>
<path fill-rule="evenodd" clip-rule="evenodd" d="M132.432 124.564C131.938 125.17 132.048 126.051 132.707 126.546C133.312 127.042 134.191 126.932 134.686 126.326C135.18 125.72 135.07 124.839 134.466 124.344C133.751 123.848 132.872 123.959 132.432 124.564ZM137.763 128.969C137.269 129.575 137.378 130.456 138.038 130.951C138.642 131.447 139.522 131.337 140.016 130.676C140.511 130.015 140.401 129.189 139.742 128.694C139.082 128.253 138.203 128.363 137.763 128.969Z" fill="#B7C2CE"/>
<path fill-rule="evenodd" clip-rule="evenodd" d="M101.549 77.3784C102.373 84.2059 107.704 89.2164 113.474 88.5006C119.245 87.7849 123.202 81.6732 122.322 74.7906C121.443 67.9081 116.167 63.0077 110.452 63.6684C104.736 64.3291 100.724 70.551 101.549 77.3784Z" fill="#DAE2ED"/>
<path fill-rule="evenodd" clip-rule="evenodd" d="M105.889 76.9912C106.494 81.8365 110.286 85.4154 114.353 84.9199C118.419 84.4243 121.277 80.0746 120.673 75.1742C120.068 70.2738 116.276 66.75 112.209 67.3006C108.143 67.8512 105.285 72.1459 105.889 76.9912Z" fill="#B7C2CE"/>
<path fill-rule="evenodd" clip-rule="evenodd" d="M108.251 76.7723C108.691 80.2411 111.384 82.7739 114.296 82.4435C117.209 82.1132 119.243 78.9747 118.803 75.4509C118.363 71.927 115.67 69.4493 112.758 69.7796C109.845 70.11 107.812 73.2484 108.251 76.7723Z" fill="#FF903E"/>
<path fill-rule="evenodd" clip-rule="evenodd" d="M114.684 79.3049L115.344 79.0296C115.509 78.9746 115.619 78.7543 115.564 78.5341L113.255 72.6977C113.2 72.5325 112.981 72.4224 112.761 72.4775L112.101 72.7528C111.936 72.8078 111.827 73.0281 111.881 73.2483L114.19 79.0296C114.3 79.2499 114.519 79.36 114.684 79.3049Z" fill="#FF7F14"/>
<path fill-rule="evenodd" clip-rule="evenodd" d="M106.878 120.215H114.517V94.6119H103.91V117.242C103.91 118.894 105.229 120.215 106.878 120.215Z" fill="black"/>
<path fill-rule="evenodd" clip-rule="evenodd" d="M139.687 66.2011L198.655 44.6174L188.763 63.9987C186.84 67.7979 183.542 70.7161 179.586 72.1476L132.653 89.3265L131.004 84.8666L139.687 66.2011Z" fill="#DAE2ED"/>
<path fill-rule="evenodd" clip-rule="evenodd" d="M126.167 64.218L204.48 35.5316C204.81 35.4214 205.139 35.5866 205.249 35.8619C205.304 36.0271 205.304 36.1923 205.249 36.3024L202.227 42.4141C201.897 43.1299 201.292 43.6254 200.578 43.9007L198.654 44.6165L139.686 66.2002L131.003 84.9207L132.652 89.3806L133.861 92.7393L114.131 99.9522L111.273 92.1336L122.814 67.3014C123.474 65.8698 124.683 64.7686 126.167 64.218Z" fill="#ECEFF6"/>
<path fill-rule="evenodd" clip-rule="evenodd" d="M131.059 84.9216L139.742 66.2011L198.71 44.6174L196.732 48.5267L141.83 68.6238L133.806 85.9678L134.796 88.6107L132.707 89.3815L131.059 84.9216Z" fill="#C5CEDD"/>
<path fill-rule="evenodd" clip-rule="evenodd" d="M199.097 42.2512C199.701 42.031 200.031 41.3703 199.811 40.7095C199.591 40.1039 198.932 39.7735 198.272 39.9938C197.668 40.214 197.338 40.8747 197.558 41.5354C197.778 42.1962 198.437 42.4715 199.097 42.2512ZM194.37 44.0132C194.975 43.7929 195.305 43.1322 195.085 42.4715C194.865 41.8658 194.205 41.5354 193.546 41.7557C192.887 41.9759 192.612 42.6367 192.832 43.2974C193.051 43.903 193.711 44.2334 194.37 44.0132ZM127.049 68.6252C127.598 68.2948 127.818 67.579 127.488 67.0284C127.213 66.5879 126.719 66.3677 126.224 66.4227C125.62 66.643 125.29 67.3588 125.51 67.9644C125.785 68.5701 126.444 68.8454 127.049 68.6252Z" fill="#DAE2ED"/>
<path fill-rule="evenodd" clip-rule="evenodd" d="M108.306 100.118H120.561C121.606 100.118 122.43 99.2375 122.43 98.2464V91.6391C122.43 90.593 121.606 89.7671 120.561 89.7671H108.306C107.262 89.7671 106.438 90.6481 106.438 91.6391V98.2464C106.438 99.2925 107.262 100.118 108.306 100.118Z" fill="#FF5C5C"/>
<path fill-rule="evenodd" clip-rule="evenodd" d="M103.855 103.478H113.473C116.11 103.478 118.199 101.331 118.199 98.7432V91.1999C118.199 88.557 116.055 86.4647 113.473 86.4097H103.855C102.866 86.4097 102.097 87.2356 102.097 88.1716V101.661C102.042 102.652 102.811 103.423 103.855 103.478C103.8 103.478 103.8 103.478 103.855 103.478Z" fill="#D0D9EA"/>
<path fill-rule="evenodd" clip-rule="evenodd" d="M76.4889 44.5603L77.0385 48.1943C74.0708 50.6169 71.4329 53.425 69.2896 56.5635L65.9922 49.0202C68.6301 47.0931 72.2572 45.9919 76.4889 44.5603Z" fill="#FF7F14"/>
<path fill-rule="evenodd" clip-rule="evenodd" d="M69.2877 56.5662L65.9903 49.0229L63.1875 56.5662H69.2877Z" fill="#FF903E"/>
<path d="M21.9841 143.734L15.3953 144.58L15.207 165.35H28.1964L21.9841 143.734Z" fill="#FF78B9"/>
<path d="M18.877 145.613C12.0999 146.553 8.33487 145.425 5.41697 142.982C5.13459 142.7 5.04046 142.324 5.32284 141.948C5.41697 141.76 5.60522 141.666 5.79347 141.666L30.5486 138.376C30.9251 138.283 31.3016 138.564 31.3016 138.94C31.3016 139.128 31.3016 139.316 31.2075 139.41C29.0426 142.606 25.654 144.673 18.877 145.613Z" fill="white"/>
<path d="M16.5221 128.038C18.3105 127.756 20.0048 129.072 20.2872 130.858L20.946 136.027L14.3572 136.873L13.6983 131.704C13.416 129.918 14.7337 128.32 16.5221 128.038Z" fill="#83DDC5"/>
<path d="M16.9015 131.14C17.6545 131.046 18.3134 131.61 18.4075 132.268L18.5958 133.395C18.6899 134.147 18.2193 134.805 17.4663 134.899C16.7133 134.993 16.0544 134.429 15.9603 133.771L15.772 132.643C15.6779 131.892 16.2426 131.234 16.9015 131.14Z" fill="#4F5D7F"/>
<path d="M17.3706 134.335C7.958 135.651 3.25171 138.47 0.239685 142.794C-0.136818 143.17 -0.0427008 143.734 0.333803 144.11C0.61618 144.298 0.898566 144.392 1.18094 144.298L35.7251 139.598C36.2899 139.598 36.6664 139.128 36.6664 138.658C36.6664 138.377 36.4781 138.001 36.1958 137.907C32.0542 134.523 26.7832 133.019 17.3706 134.335Z" fill="#EBEFF7"/>
<path d="M4.38153 142.606C4.74542 142.606 5.04041 142.311 5.04041 141.948C5.04041 141.585 4.74542 141.29 4.38153 141.29C4.01764 141.29 3.72266 141.585 3.72266 141.948C3.72266 142.311 4.01764 142.606 4.38153 142.606Z" fill="#FFD836"/>
<path d="M8.42865 142.042C8.79254 142.042 9.08752 141.747 9.08752 141.384C9.08752 141.021 8.79254 140.726 8.42865 140.726C8.06476 140.726 7.76978 141.021 7.76978 141.384C7.76978 141.747 8.06476 142.042 8.42865 142.042Z" fill="#AEC7FF"/>
<path d="M30.5495 139.034C30.9134 139.034 31.2084 138.74 31.2084 138.376C31.2084 138.013 30.9134 137.719 30.5495 137.719C30.1856 137.719 29.8906 138.013 29.8906 138.376C29.8906 138.74 30.1856 139.034 30.5495 139.034Z" fill="#F47FFF"/>
<path opacity="0.45" d="M18.1247 151.816C18.5012 151.158 19.3484 150.97 20.0072 151.44L20.3837 151.722C21.0426 152.098 21.2309 152.944 20.7603 153.602C20.3837 154.26 19.5366 154.448 18.8777 153.978L18.5012 153.696C17.8423 153.226 17.6541 152.38 18.1247 151.816Z" fill="#4762B0"/>
<path d="M38.6254 170.304C38.6254 169.447 39.3144 168.753 40.1643 168.753C41.0141 168.753 41.7031 169.447 41.7031 170.304V171.841C41.7031 172.697 41.0141 173.392 40.1643 173.392C39.3144 173.392 38.6254 172.697 38.6254 171.841V170.304Z" fill="#99B4FF"/>
<path d="M38.6254 182.67C38.6254 181.814 39.3144 181.119 40.1643 181.119C41.0141 181.119 41.7031 181.814 41.7031 182.67V184.207C41.7031 185.064 41.0141 185.758 40.1643 185.758C39.3144 185.758 38.6254 185.064 38.6254 184.207V182.67Z" fill="#99B4FF"/>
<path d="M33.2455 178.792C32.3915 178.792 31.6992 178.101 31.6992 177.248C31.6992 176.395 32.3915 175.704 33.2455 175.704H34.777C35.631 175.704 36.3233 176.395 36.3233 177.248C36.3233 178.101 35.631 178.792 34.777 178.792H33.2455Z" fill="#99B4FF"/>
<path d="M45.5698 178.792C44.7157 178.792 44.0234 178.101 44.0234 177.248C44.0234 176.395 44.7157 175.704 45.5698 175.704H47.1012C47.9552 175.704 48.6475 176.395 48.6475 177.248C48.6475 178.101 47.9552 178.792 47.1012 178.792H45.5698Z" fill="#99B4FF"/>
<path d="M38.3327 89.9623L40.6075 94.8551C40.7315 95.1051 40.7738 95.3879 40.7284 95.6633C40.683 95.9388 40.5522 96.1928 40.3547 96.3894C40.1571 96.586 39.9027 96.7151 39.6278 96.7583C39.3529 96.8016 39.0714 96.7568 38.8233 96.6303L33.9465 94.2883C33.7685 94.2001 33.5726 94.1543 33.3741 94.1543C33.1755 94.1543 32.9797 94.2001 32.8016 94.2883L27.9248 96.6303C27.6767 96.7568 27.3952 96.8016 27.1203 96.7583C26.8454 96.7151 26.5911 96.586 26.3935 96.3894C26.1959 96.1928 26.0651 95.9388 26.0197 95.6633C25.9743 95.3879 26.0166 95.1051 26.1406 94.8551L28.5641 89.9623C28.6522 89.7811 28.698 89.5822 28.698 89.3806C28.698 89.179 28.6522 88.98 28.5641 88.7988L26.2149 83.9209C26.0957 83.6704 26.0568 83.3889 26.1036 83.1153C26.1504 82.8416 26.2806 82.5893 26.4762 82.393C26.6719 82.1967 26.9234 82.066 27.1962 82.0191C27.4689 81.9721 27.7494 82.0112 27.9991 82.1308L32.876 84.4877C33.056 84.5688 33.2511 84.6107 33.4484 84.6107C33.6457 84.6107 33.8408 84.5688 34.0208 84.4877L38.8977 82.1308C39.1474 82.0112 39.4279 81.9721 39.7006 82.0191C39.9734 82.066 40.2249 82.1967 40.4206 82.393C40.6162 82.5893 40.7464 82.8416 40.7932 83.1153C40.84 83.3889 40.8011 83.6704 40.6819 83.9209L38.3327 88.7988C38.2446 88.98 38.1988 89.179 38.1988 89.3806C38.1988 89.5822 38.2446 89.7811 38.3327 89.9623Z" fill="#FFCDF9"/>
<path d="M284.7 190.086L286.975 194.979C287.099 195.229 287.141 195.511 287.096 195.787C287.05 196.062 286.919 196.316 286.722 196.513C286.524 196.71 286.27 196.839 285.995 196.882C285.72 196.925 285.439 196.88 285.19 196.754L280.314 194.412C280.136 194.324 279.94 194.278 279.741 194.278C279.543 194.278 279.347 194.324 279.169 194.412L274.292 196.754C274.044 196.88 273.762 196.925 273.487 196.882C273.213 196.839 272.958 196.71 272.761 196.513C272.563 196.316 272.432 196.062 272.387 195.787C272.341 195.511 272.384 195.229 272.508 194.979L274.931 190.086C275.019 189.905 275.065 189.706 275.065 189.504C275.065 189.302 275.019 189.104 274.931 188.922L272.582 184.044C272.463 183.794 272.424 183.512 272.471 183.239C272.518 182.965 272.648 182.713 272.843 182.517C273.039 182.32 273.291 182.19 273.563 182.143C273.836 182.096 274.117 182.135 274.366 182.254L279.243 184.611C279.423 184.692 279.618 184.734 279.816 184.734C280.013 184.734 280.208 184.692 280.388 184.611L285.265 182.254C285.515 182.135 285.795 182.096 286.068 182.143C286.341 182.19 286.592 182.32 286.788 182.517C286.983 182.713 287.114 182.965 287.16 183.239C287.207 183.512 287.168 183.794 287.049 184.044L284.7 188.922C284.612 189.104 284.566 189.302 284.566 189.504C284.566 189.706 284.612 189.905 284.7 190.086Z" fill="#F7E080"/>
<path d="M180.854 124.977C180.854 123.939 181.689 123.098 182.72 123.098C183.751 123.098 184.586 123.939 184.586 124.977V126.842C184.586 127.88 183.751 128.721 182.72 128.721C181.689 128.721 180.854 127.88 180.854 126.842V124.977Z" fill="white"/>
<path d="M180.854 139.969C180.854 138.931 181.689 138.089 182.72 138.089C183.751 138.089 184.586 138.931 184.586 139.969V141.834C184.586 142.872 183.751 143.713 182.72 143.713C181.689 143.713 180.854 142.872 180.854 141.834V139.969Z" fill="white"/>
<path d="M174.327 135.27C173.292 135.27 172.453 134.432 172.453 133.398C172.453 132.364 173.292 131.526 174.327 131.526H176.185C177.22 131.526 178.059 132.364 178.059 133.398C178.059 134.432 177.22 135.27 176.185 135.27H174.327Z" fill="white"/>
<path d="M189.268 135.27C188.233 135.27 187.395 134.432 187.395 133.398C187.395 132.364 188.233 131.526 189.268 131.526H191.126C192.161 131.526 193 132.364 193 133.398C193 134.432 192.161 135.27 191.126 135.27H189.268Z" fill="white"/>
<path d="M214.957 72.1093L215.144 72.0592L222.368 69.4905C222.655 69.3883 222.919 69.2303 223.144 69.0257C223.37 68.8211 223.554 68.5737 223.684 68.2979C223.815 68.022 223.89 67.7229 223.905 67.4178C223.92 67.1127 223.875 66.8074 223.773 66.5195C223.559 65.9417 223.13 65.4696 222.576 65.203C222.022 64.9364 221.386 64.8963 220.804 65.0912L213.58 67.6599C212.996 67.8678 212.518 68.2992 212.25 68.8599C211.982 69.4206 211.946 70.0652 212.15 70.653C212.352 71.2038 212.752 71.6591 213.272 71.9288C213.792 72.1984 214.393 72.2629 214.957 72.1093Z" fill="#F7E080"/>
<path d="M91.2079 34.0664C91.7505 34.0651 92.2758 33.8753 92.6948 33.5294L97.8987 29.1885C98.3719 28.7929 98.6691 28.2249 98.7248 27.6095C98.7806 26.994 98.5904 26.3815 98.1961 25.9068C97.8017 25.432 97.2356 25.1339 96.6221 25.0779C96.0087 25.022 95.3982 25.2128 94.925 25.6084L89.7062 29.9493C89.339 30.2554 89.0748 30.6676 88.9498 31.1299C88.8247 31.5921 88.8449 32.0818 89.0075 32.5321C89.1702 32.9824 89.4673 33.3714 89.8585 33.646C90.2496 33.9206 90.7157 34.0674 91.193 34.0664H91.2079Z" fill="#60CFAC"/>
<path d="M127.728 30.0249C128.034 30.0256 128.338 29.9654 128.622 29.8476C128.905 29.7298 129.162 29.5568 129.378 29.3387L132.649 26.042C132.877 25.8292 133.059 25.5727 133.186 25.2878C133.312 25.0028 133.381 24.6953 133.386 24.3834C133.392 24.0715 133.335 23.7616 133.219 23.4721C133.103 23.1827 132.93 22.9196 132.711 22.6985C132.492 22.4774 132.23 22.3028 131.942 22.1851C131.654 22.0674 131.346 22.009 131.035 22.0134C130.724 22.0178 130.417 22.0848 130.132 22.2106C129.848 22.3363 129.591 22.5181 129.378 22.7453L126.092 26.042C125.876 26.2582 125.704 26.5151 125.587 26.7979C125.47 27.0808 125.41 27.384 125.41 27.6903C125.41 27.9966 125.47 28.2999 125.587 28.5827C125.704 28.8656 125.876 29.1225 126.092 29.3387C126.305 29.5577 126.559 29.7315 126.84 29.8494C127.121 29.9673 127.423 30.027 127.728 30.0249Z" fill="#98B7F7"/>
<path d="M30.9542 39.3065C31.4128 39.3035 31.8604 39.1651 32.241 38.9085C32.6217 38.6519 32.9185 38.2885 33.0946 37.8636C33.2706 37.4388 33.318 36.9713 33.2309 36.5196C33.1438 36.0679 32.9259 35.6519 32.6046 35.3236L30.9691 33.6828C30.7534 33.4663 30.4972 33.2946 30.2153 33.1774C29.9335 33.0603 29.6313 33 29.3262 33C29.0211 33 28.7189 33.0603 28.437 33.1774C28.1551 33.2946 27.899 33.4663 27.6832 33.6828C27.4675 33.8992 27.2963 34.1562 27.1796 34.439C27.0628 34.7219 27.0027 35.025 27.0027 35.3311C27.0027 35.6372 27.0628 35.9404 27.1796 36.2232C27.2963 36.506 27.4675 36.763 27.6832 36.9794L29.3187 38.6203C29.5312 38.8394 29.7856 39.0131 30.0666 39.131C30.3477 39.249 30.6496 39.3086 30.9542 39.3065Z" fill="#60CFAC"/>
</svg>
