<?xml version="1.0" encoding="UTF-8"?>
<svg width="254px" height="154px" viewBox="0 0 254 154" version="1.1" xmlns="http://www.w3.org/2000/svg" xmlns:xlink="http://www.w3.org/1999/xlink">
    <!-- Generator: Sketch 46.2 (44496) - http://www.bohemiancoding.com/sketch -->
    <title>drawable-xhdpi/img_app_crash_light</title>
    <desc>Created with Sketch.</desc>
    <defs>
        <polygon id="path-1" points="0.7944 147 204.210868 147 204.210868 0.846254776 0.7944 0.846254776"></polygon>
    </defs>
    <g id="Page-1" stroke="none" stroke-width="1" fill="none" fill-rule="evenodd">
        <g id="img_app_crash_light">
            <g id="Page-1" transform="translate(2.000000, 3.000000)">
                <g id="Group-3" transform="translate(0.000000, 18.154000)" fill-opacity="0.9" fill="#F6F6F7">
                    <path d="M90.8452,0.7799 L238.6522,0.7799 C245.4712,0.7799 251.0002,6.3079 251.0002,13.1269 C251.0002,19.9459 245.4712,25.4749 238.6522,25.4749 L162.1032,25.4749 C155.5012,25.4749 150.1472,30.8279 150.1472,37.4309 L150.1472,37.4309 C150.1472,44.0339 155.5012,49.3869 162.1032,49.3869 L208.5812,49.3869 C224.0002,49.3869 236.5002,61.8869 236.5002,77.3069 C236.5002,92.7259 224.0002,105.2259 208.5812,105.2259 L30.2642,105.2259 C13.5502,105.2259 0.0002,91.6759 0.0002,74.9619 C0.0002,58.2479 13.5502,44.6979 30.2642,44.6979 L46.9272,44.6979 C59.0542,44.6979 68.8862,34.8659 68.8862,22.7389 C68.8862,10.6109 78.7172,0.7799 90.8452,0.7799" id="Fill-1"></path>
                </g>
                <path d="M66.9351,53.2166 L64.0551,48.4386 C63.7701,47.9646 63.9221,47.3506 64.3951,47.0656 L64.3961,47.0646 L62.7051,44.2576 L62.7041,44.2586 C62.5421,44.3566 62.3641,44.4026 62.1881,44.4026 C61.8501,44.4026 61.5181,44.2306 61.3311,43.9186 L54.0741,31.8786 C52.8381,44.1896 59.8601,54.4056 59.9361,54.5156 C60.0911,54.7376 60.1501,55.0126 60.0991,55.2796 L58.6241,62.8946 C61.0601,59.5226 63.8411,56.2616 66.9351,53.2166" id="Fill-4" fill="#FFFFFF"></path>
                <path d="M65.7681,47.4051 L68.4161,51.7991 C72.7671,47.7431 77.6711,44.1251 83.0381,41.2301 C76.1881,33.6371 68.9051,30.9061 63.8581,29.9781 C59.9561,29.2611 56.8001,29.4801 55.1021,29.7091 L63.0441,42.8851 C63.3291,43.3591 63.1771,43.9721 62.7051,44.2581 L64.3961,47.0651 C64.8691,46.7801 65.4831,46.9311 65.7681,47.4051" id="Fill-6" fill="#DCDDDE"></path>
                <path d="M162.8789,62.8953 L161.4039,55.2793 C161.3539,55.0133 161.4119,54.7383 161.5669,54.5153 C161.6439,54.4063 168.6579,44.1703 167.4289,31.8793 L154.5679,53.2163 C157.6619,56.2613 160.4439,59.5223 162.8789,62.8953" id="Fill-8" fill="#FFFFFF"></path>
                <path d="M157.6455,29.9783 C152.5975,30.9063 145.3145,33.6373 138.4655,41.2303 C143.8325,44.1253 148.7365,47.7433 153.0865,51.7993 L166.4015,29.7083 C164.7035,29.4803 161.5465,29.2613 157.6455,29.9783" id="Fill-10" fill="#DCDDDE"></path>
                <path d="M174.1211,118.9618 C174.1211,116.9618 172.5731,115.3358 170.6151,115.1718 C170.8391,117.6658 171.0691,120.2308 171.2871,122.6368 C172.9141,122.1978 174.1211,120.7248 174.1211,118.9618" id="Fill-12" fill="#DCDDDE"></path>
                <path d="M68.4068,132.8709 L69.2588,118.9549 C67.7488,118.4249 66.3128,117.8559 64.9578,117.2479 C65.2468,118.2169 65.4268,119.2199 65.4728,120.2519 C65.4838,120.5019 65.4608,120.7479 65.4578,120.9969 L65.8988,129.7669 C65.9458,130.8159 65.8518,131.8529 65.6448,132.8709 L68.4068,132.8709 Z" id="Fill-14" fill="#F6F6F7"></path>
                <path d="M151.0928,132.8709 L150.2808,119.6059 C140.2348,122.7779 127.0558,124.3809 110.7518,124.3809 C94.4468,124.3809 81.2688,122.7779 71.2228,119.6059 L70.4108,132.8709 L151.0928,132.8709 Z" id="Fill-16" fill="#F6F6F7"></path>
                <path d="M152.2442,118.9554 L153.0972,132.8714 L170.2052,132.8714 C169.8682,129.1594 168.7932,117.3164 168.0822,109.2694 C164.4292,113.3044 159.1412,116.5324 152.2442,118.9554" id="Fill-18" fill="#F6F6F7"></path>
                <path d="M87.8418,92.0448 L74.2068,92.0448 C73.6548,92.0448 73.2068,91.5978 73.2068,91.0448 C73.2068,90.4918 73.6548,90.0448 74.2068,90.0448 L87.8418,90.0448 C88.3938,90.0448 88.8418,90.4918 88.8418,91.0448 C88.8418,91.5978 88.3938,92.0448 87.8418,92.0448 L87.8418,92.0448 Z M129.4578,92.0448 C128.9048,92.0448 128.4578,91.5978 128.4578,91.0448 C128.4578,90.4918 128.9048,90.0448 129.4578,90.0448 L143.0918,90.0448 C143.6448,90.0448 144.0918,90.4918 144.0918,91.0448 C144.0918,91.5978 143.6448,92.0448 143.0918,92.0448 L129.4578,92.0448 Z M102.7548,105.2738 C102.5048,104.9768 102.4498,104.5618 102.6138,104.2088 C102.7788,103.8578 103.1318,103.6318 103.5208,103.6318 L117.9828,103.6318 C118.3708,103.6318 118.7248,103.8578 118.8888,104.2088 C119.0528,104.5618 118.9988,104.9768 118.7488,105.2738 L111.5178,113.8938 C111.3278,114.1198 111.0468,114.2508 110.7518,114.2508 C110.4558,114.2508 110.1748,114.1198 109.9858,113.8938 L102.7548,105.2738 Z M53.7028,81.3238 C54.0518,81.3238 54.3758,81.5058 54.5568,81.8038 C58.0798,87.5908 58.0798,94.4998 54.5568,100.2858 C54.3748,100.5838 54.0518,100.7658 53.7028,100.7658 L50.5668,100.7658 C51.2688,102.8038 52.2638,104.6958 53.5528,106.4428 C58.2218,108.1458 61.9388,111.0878 63.9178,114.7408 C74.1078,119.8538 89.6588,122.3808 110.7518,122.3808 C146.1238,122.3808 165.9368,115.2868 170.9368,100.7658 L167.8008,100.7658 C167.4518,100.7658 167.1278,100.5838 166.9458,100.2858 C163.4228,94.4998 163.4228,87.5908 166.9458,81.8038 C167.1278,81.5058 167.4518,81.3238 167.8008,81.3238 L170.2658,81.3238 C165.1448,65.2738 150.3128,47.3168 130.4578,39.7228 L130.4578,40.3238 C130.4578,40.7408 130.1988,41.1138 129.8088,41.2608 C123.8418,43.4978 117.2968,44.6158 110.7518,44.6158 C104.2058,44.6158 97.6608,43.4978 91.6948,41.2608 C91.3038,41.1138 91.0458,40.7408 91.0458,40.3238 L91.0458,39.7228 C71.1908,47.3168 56.3588,65.2738 51.2378,81.3238 L53.7028,81.3238 Z" id="Fill-20" fill="#DCDDDE"></path>
                <path d="M93.0454,39.6258 C104.1874,43.6178 117.3164,43.6178 128.4574,39.6258 L128.4574,35.4838 C125.0734,37.7778 117.8824,38.9638 110.7514,38.9638 C107.2954,38.9638 103.9104,38.6888 100.9614,38.1658 C100.4174,38.0698 100.0544,37.5518 100.1504,37.0078 C100.1514,37.0018 100.1544,36.9988 100.1554,36.9928 C99.2574,36.8108 98.4164,36.6068 97.6414,36.3818 C97.6384,36.3898 97.6404,36.3978 97.6384,36.4058 C97.4624,36.9318 96.8974,37.2118 96.3724,37.0368 C94.9074,36.5458 93.8344,36.0158 93.0454,35.4798 L93.0454,39.6258 Z" id="Fill-22" fill="#DCDDDE"></path>
                <path d="M100.1558,36.993 C100.2598,36.458 100.7668,36.097 101.3098,36.197 C104.1458,36.698 107.4108,36.964 110.7518,36.964 C121.5598,36.964 128.4578,34.295 128.4578,32.458 C128.4578,30.621 121.5598,27.952 110.7518,27.952 C99.9428,27.952 93.0458,30.621 93.0458,32.458 C93.0458,33.083 94.0828,34.161 97.0078,35.14 C97.5238,35.313 97.8008,35.866 97.6408,36.382 C98.4168,36.607 99.2578,36.811 100.1558,36.993" id="Fill-24" fill="#F6F6F7"></path>
                <path d="M52.916,91.0448 C52.916,94.2658 52.162,97.0178 50.955,98.7658 L53.13,98.7658 C55.882,93.8928 55.882,88.1978 53.13,83.3238 L50.955,83.3238 C52.162,85.0708 52.916,87.8238 52.916,91.0448" id="Fill-26" fill="#FFFFFF"></path>
                <path d="M168.3731,98.7655 L170.5481,98.7655 C169.3421,97.0175 168.5881,94.2655 168.5881,91.0445 C168.5881,87.8245 169.3421,85.0715 170.5481,83.3245 L168.3731,83.3245 C165.6211,88.1985 165.6211,93.8925 168.3731,98.7655" id="Fill-28" fill="#FFFFFF"></path>
                <polygon id="Fill-30" fill="#FFFFFF" points="115.8384 105.6317 105.6644 105.6317 110.7514 111.6947"></polygon>
                <path d="M44.5782,91.0448 C44.5782,95.4638 46.2512,98.7658 47.7472,98.7658 C49.2432,98.7658 50.9162,95.4638 50.9162,91.0448 C50.9162,86.6258 49.2432,83.3238 47.7472,83.3238 C46.2512,83.3238 44.5782,86.6258 44.5782,91.0448" id="Fill-32" fill="#DCDDDE"></path>
                <path d="M176.9248,91.0448 C176.9248,86.6258 175.2518,83.3238 173.7558,83.3238 C172.2608,83.3238 170.5878,86.6258 170.5878,91.0448 C170.5878,95.4638 172.2608,98.7658 173.7558,98.7658 C175.2518,98.7658 176.9248,95.4638 176.9248,91.0448" id="Fill-34" fill="#DCDDDE"></path>
                <path d="M87.6529,24.16 C92.0859,24.16 95.6919,20.555 95.6919,16.122 C95.6919,11.689 92.0859,8.083 87.6529,8.083 C83.2199,8.083 79.6139,11.689 79.6139,16.122 C79.6139,20.555 83.2199,24.16 87.6529,24.16" id="Fill-36" fill="#DCDDDE"></path>
                <path d="M63.9009,129.8621 L63.7669,127.1961 C62.7559,129.0191 61.3289,130.7221 59.4779,132.2181 C55.5019,135.4321 50.1269,137.3441 44.3419,137.6031 C43.8939,137.6241 43.4459,137.6331 43.0019,137.6331 C37.7079,137.6331 32.7029,136.2181 28.7839,133.5931 C26.7979,132.2631 25.2189,130.6871 24.0469,128.9531 L24.1679,131.6411 C24.3379,135.4231 26.5239,138.9071 30.3239,141.4521 C34.2179,144.0611 39.3089,145.3601 44.6779,145.1261 C50.0399,144.8851 55.0009,143.1311 58.6469,140.1841 C62.2049,137.3081 64.0699,133.6431 63.9009,129.8621" id="Fill-38" fill="#DCDDDE"></path>
                <path d="M37.1826,118.5213 L50.4536,118.4723 L50.4576,118.4723 C51.0086,118.4723 51.4556,118.9173 51.4576,119.4683 C51.4596,120.0213 51.0136,120.4703 50.4616,120.4723 L37.1906,120.5213 L37.1866,120.5213 C36.6356,120.5213 36.1886,120.0763 36.1866,119.5253 C36.1846,118.9723 36.6306,118.5233 37.1826,118.5213 M23.7416,122.1213 C23.9116,125.9023 26.0976,129.3863 29.8976,131.9313 C33.7916,134.5413 38.8856,135.8413 44.2516,135.6053 C49.6136,135.3653 54.5746,133.6103 58.2206,130.6633 C61.5506,127.9723 63.3746,124.5863 63.4586,121.0643 L63.3796,119.5013 C62.4716,112.2913 54.2166,106.8293 44.2046,106.8293 C43.7936,106.8293 43.3816,106.8373 42.9646,106.8563 C32.0106,107.3473 23.3876,114.1953 23.7416,122.1213" id="Fill-40" fill="#FFFFFF"></path>
                <path d="M114.46,107.2743 L111.518,110.7823 C111.118,111.2583 110.385,111.2583 109.985,110.7823 L107.043,107.2743 C106.497,106.6233 106.96,105.6313 107.809,105.6313 L113.694,105.6313 C114.543,105.6313 115.006,106.6233 114.46,107.2743 L114.46,107.2743 Z M109.985,113.8933 C110.175,114.1203 110.456,114.2513 110.752,114.2513 C111.047,114.2513 111.328,114.1203 111.518,113.8933 L118.749,105.2743 C118.999,104.9763 119.053,104.5613 118.889,104.2093 C118.725,103.8573 118.371,103.6313 117.982,103.6313 L103.521,103.6313 C103.132,103.6313 102.778,103.8573 102.614,104.2093 C102.45,104.5613 102.504,104.9763 102.754,105.2743 L109.985,113.8933 Z" id="Fill-42" fill="#B9BBBE"></path>
                <path d="M143.0918,92.0448 C143.6448,92.0448 144.0918,91.5978 144.0918,91.0448 C144.0918,90.4918 143.6448,90.0448 143.0918,90.0448 L129.4578,90.0448 C128.9048,90.0448 128.4578,90.4918 128.4578,91.0448 C128.4578,91.5978 128.9048,92.0448 129.4578,92.0448 L143.0918,92.0448 Z" id="Fill-44" fill="#B9BBBE"></path>
                <path d="M87.8418,90.0448 L74.2068,90.0448 C73.6548,90.0448 73.2068,90.4918 73.2068,91.0448 C73.2068,91.5978 73.6548,92.0448 74.2068,92.0448 L87.8418,92.0448 C88.3938,92.0448 88.8418,91.5978 88.8418,91.0448 C88.8418,90.4918 88.3938,90.0448 87.8418,90.0448" id="Fill-46" fill="#B9BBBE"></path>
                <path d="M238.6875,132.8709 L218.2005,132.8709 C217.6475,132.8709 217.2005,133.3179 217.2005,133.8709 C217.2005,134.4239 217.6475,134.8709 218.2005,134.8709 L238.6875,134.8709 C239.2405,134.8709 239.6875,134.4239 239.6875,133.8709 C239.6875,133.3179 239.2405,132.8709 238.6875,132.8709" id="Fill-48" fill="#B9BBBE"></path>
                <path d="M213.6914,132.8709 L212.1874,132.8709 C211.6344,132.8709 211.1874,133.3179 211.1874,133.8709 C211.1874,134.4239 211.6344,134.8709 212.1874,134.8709 L213.6914,134.8709 C214.2444,134.8709 214.6914,134.4239 214.6914,133.8709 C214.6914,133.3179 214.2444,132.8709 213.6914,132.8709" id="Fill-50" fill="#B9BBBE"></path>
                <g id="Group-54" transform="translate(14.000000, 0.154000)">
                    <mask id="mask-2" fill="white">
                        <use xlink:href="#path-1"></use>
                    </mask>
                    <g id="Clip-53"></g>
                    <path d="M138.3604,22.7902 C140.6524,22.3692 142.9374,22.1662 145.1894,22.1662 C163.0314,22.1652 178.9314,34.9102 182.2664,53.0712 C184.9644,67.7642 178.7104,82.0582 167.3944,90.3402 C166.3554,91.1002 164.8764,90.4202 164.7484,89.1402 C164.5744,87.4092 164.2054,85.2912 163.4314,83.9352 C162.5634,82.4122 162.9964,80.5032 164.2444,79.2722 C170.4494,73.1522 173.6254,64.1682 171.9354,54.9692 C170.6264,47.8332 166.6054,41.6272 160.6144,37.4942 C160.1604,37.1812 159.5374,37.2952 159.2234,37.7502 C158.9104,38.2042 159.0244,38.8272 159.4794,39.1412 C165.0294,42.9702 168.7554,48.7192 169.9684,55.3302 C171.5444,63.9092 168.5534,72.2842 162.7304,77.9562 C160.8864,79.7522 157.8344,79.2252 156.7664,76.8822 C155.3444,73.7612 153.3734,69.6382 151.7414,67.0072 L150.4384,60.2742 C149.8404,57.1862 150.2974,54.0012 151.6594,51.1652 C153.9844,46.3262 156.8564,37.9552 154.9914,28.6262 C154.9894,28.6172 154.9844,28.6092 154.9824,28.6012 C154.9764,28.5762 154.9644,28.5542 154.9574,28.5292 C154.9294,28.4412 154.8924,28.3592 154.8424,28.2832 C154.8244,28.2542 154.8054,28.2282 154.7844,28.2012 C154.7144,28.1152 154.6364,28.0392 154.5434,27.9802 C154.5374,27.9762 154.5334,27.9692 154.5274,27.9662 C154.5264,27.9652 154.5244,27.9652 154.5234,27.9642 C154.4414,27.9152 154.3534,27.8772 154.2584,27.8532 C154.0734,27.8072 149.6584,26.7102 143.3884,27.8382 C138.8264,28.6612 132.5604,30.8522 126.3414,36.3912 C124.0194,38.4582 120.7544,39.1442 117.8674,37.9912 C117.7954,37.9622 117.7224,37.9332 117.6504,37.9042 C116.9344,37.6222 116.4574,36.9402 116.4574,36.1712 C116.4574,35.7162 116.6184,35.2722 116.9194,34.9312 C122.3174,28.8062 129.7254,24.3762 138.3604,22.7902 L138.3604,22.7902 Z M51.4724,120.0982 C51.4724,120.0872 51.4714,120.0772 51.4714,120.0662 C51.4104,118.7872 52.6314,117.8242 53.8284,118.2792 C53.8934,118.3032 53.9584,118.3282 54.0234,118.3522 C54.7514,118.6262 55.2264,119.3342 55.1784,120.1112 L54.4534,131.9592 C54.4274,132.3852 54.0744,132.7172 53.6474,132.7172 C53.2404,132.7172 52.8974,132.4132 52.8464,132.0092 C52.8464,132.0092 51.4844,120.3482 51.4724,120.0982 L51.4724,120.0982 Z M36.9164,90.8912 C36.9164,95.3102 35.2434,98.6112 33.7474,98.6112 C32.2514,98.6112 30.5784,95.3102 30.5784,90.8912 C30.5784,86.4722 32.2514,83.1702 33.7474,83.1702 C35.2434,83.1702 36.9164,86.4722 36.9164,90.8912 L36.9164,90.8912 Z M38.5584,98.6112 L38.5584,98.6112 C37.8774,98.6112 37.4114,97.9142 37.6934,97.2942 C38.4614,95.6092 38.9164,93.3912 38.9164,90.8912 C38.9164,88.3902 38.4614,86.1712 37.6934,84.4872 C37.4114,83.8682 37.8774,83.1702 38.5584,83.1702 C38.9094,83.1702 39.2414,83.3622 39.4034,83.6742 C41.7904,88.2652 41.7904,93.5182 39.4034,98.1072 C39.2414,98.4192 38.9094,98.6112 38.5584,98.6112 L38.5584,98.6112 Z M96.7514,124.2272 C111.1244,124.2272 123.0684,122.9812 132.5784,120.5132 C134.5054,120.0132 136.4014,121.4162 136.5224,123.4022 L136.6024,124.7062 C136.8684,129.0482 133.4184,132.7172 129.0664,132.7172 L64.4364,132.7172 C60.0854,132.7172 56.6354,129.0482 56.9014,124.7062 L56.9814,123.4022 C57.1024,121.4162 58.9984,120.0132 60.9244,120.5132 C70.4354,122.9812 82.3794,124.2272 96.7514,124.2272 L96.7514,124.2272 Z M150.3904,132.7172 L144.0914,132.7172 C141.2854,132.7172 138.9634,130.5322 138.7914,127.7302 L138.3814,121.0502 C138.3014,119.7422 139.0684,118.5212 140.2884,118.0412 C143.9794,116.5892 147.1624,114.8822 149.8324,112.9212 C151.7224,111.5322 154.4094,112.8032 154.6184,115.1402 C154.9834,119.2142 155.3704,123.4952 155.6804,126.9352 C155.9624,130.0442 153.5124,132.7172 150.3904,132.7172 L150.3904,132.7172 Z M156.7644,116.6762 C156.6804,115.7392 157.7314,115.1612 158.5014,115.7012 C159.4804,116.3892 160.1214,117.5212 160.1214,118.8082 C160.1214,119.8912 159.6664,120.8642 158.9374,121.5562 C158.2944,122.1672 157.2174,121.7142 157.1374,120.8302 C157.0144,119.4652 156.8884,118.0672 156.7644,116.6762 L156.7644,116.6762 Z M135.8694,48.8122 C133.0394,46.4612 130.0094,44.3012 126.8004,42.3982 C125.6124,41.6932 125.3994,40.0402 126.3894,39.0772 C132.6534,32.9902 139.0684,30.6652 143.6454,29.8242 C145.8654,29.4162 147.8434,29.3112 149.4494,29.3392 C150.8044,29.3622 151.6314,30.8332 150.9304,31.9952 L141.3704,47.8562 C140.2094,49.7842 137.5994,50.2492 135.8694,48.8122 L135.8694,48.8122 Z M147.5664,54.3612 C147.4124,54.5842 147.3534,54.8592 147.4044,55.1252 L147.9864,58.1282 C148.2054,59.2612 146.7694,59.9442 146.0384,59.0532 C145.1554,57.9752 144.2354,56.9142 143.2804,55.8732 C141.7124,54.1622 141.4274,51.6372 142.6254,49.6492 L151.1734,35.4692 C151.8544,34.3372 153.6004,34.8732 153.5354,36.1922 C153.0234,46.4012 147.6334,54.2662 147.5664,54.3612 L147.5664,54.3612 Z M156.5884,90.8912 C156.5884,86.4722 158.2604,83.1702 159.7564,83.1702 C161.2524,83.1702 162.9244,86.4722 162.9244,90.8912 C162.9244,95.3102 161.2524,98.6112 159.7564,98.6112 C158.2604,98.6112 156.5884,95.3102 156.5884,90.8912 L156.5884,90.8912 Z M154.9454,83.1702 L154.9454,83.1702 C155.6264,83.1702 156.0924,83.8672 155.8104,84.4872 C155.0424,86.1712 154.5884,88.3902 154.5884,90.8912 C154.5884,93.3912 155.0424,95.6092 155.8104,97.2942 C156.0924,97.9142 155.6264,98.6112 154.9454,98.6112 C154.5934,98.6112 154.2614,98.4192 154.0994,98.1072 C151.7124,93.5182 151.7124,88.2652 154.0994,83.6742 C154.2614,83.3622 154.5934,83.1702 154.9454,83.1702 L154.9454,83.1702 Z M79.0454,38.1992 C79.0454,36.9482 80.2984,36.1002 81.4644,36.5552 C81.7494,36.6662 82.0514,36.7752 82.3724,36.8832 C82.8974,37.0582 83.4634,36.7772 83.6384,36.2522 C83.6404,36.2442 83.6384,36.2362 83.6414,36.2282 C83.8004,35.7112 83.5234,35.1592 83.0074,34.9862 C80.0834,34.0072 79.0454,32.9292 79.0454,32.3042 C79.0454,30.4672 85.9434,27.7982 96.7514,27.7982 C107.5604,27.7982 114.4574,30.4672 114.4574,32.3042 C114.4574,34.1412 107.5604,36.8102 96.7514,36.8102 C93.4104,36.8102 90.1464,36.5442 87.3094,36.0432 C86.7664,35.9432 86.2594,36.3042 86.1554,36.8392 C86.1544,36.8442 86.1514,36.8482 86.1504,36.8532 C86.0544,37.3972 86.4174,37.9162 86.9614,38.0122 C89.9104,38.5342 93.2964,38.8102 96.7514,38.8102 C102.4784,38.8102 108.2424,38.0442 112.0444,36.5562 C113.2074,36.1002 114.4574,36.9512 114.4574,38.2002 C114.4574,38.9602 113.9774,39.6472 113.2564,39.8842 C102.7834,43.3262 90.7194,43.3262 80.2474,39.8842 C79.5254,39.6472 79.0454,38.9602 79.0454,38.2002 L79.0454,38.1992 Z M77.0454,39.5682 L77.0454,40.1702 C77.0454,40.5832 77.2994,40.9582 77.6874,41.1032 C83.6554,43.3432 90.2034,44.4622 96.7514,44.4622 C103.2994,44.4622 109.8474,43.3432 115.8164,41.1032 C116.2034,40.9582 116.4574,40.5832 116.4574,40.1702 L116.4574,39.5682 C135.3404,46.7912 149.6814,63.3882 155.4444,78.8022 C155.8734,79.9482 155.0244,81.1702 153.8004,81.1702 C153.4584,81.1702 153.1314,81.3472 152.9524,81.6402 C149.4214,87.4322 149.4214,94.3502 152.9524,100.1422 C153.1314,100.4352 153.4584,100.6112 153.8004,100.6112 L153.8014,100.6112 C155.3464,100.6112 156.3544,102.2592 155.6314,103.6232 C149.0124,116.1142 129.5854,122.2272 96.7514,122.2272 C77.2244,122.2272 62.4464,120.0612 52.2754,115.6822 C50.9624,115.1172 49.7974,114.2292 48.9654,113.0662 C47.2264,110.6342 44.6744,108.5962 41.5874,107.1372 C40.0244,106.3982 38.7204,105.2072 37.9054,103.6842 C37.8954,103.6652 37.8854,103.6462 37.8754,103.6272 C37.1504,102.2612 38.1564,100.6112 39.7024,100.6112 C40.0454,100.6112 40.3714,100.4352 40.5504,100.1422 C44.0824,94.3512 44.0824,87.4322 40.5504,81.6392 C40.3724,81.3462 40.0454,81.1702 39.7024,81.1702 C38.4794,81.1702 37.6304,79.9482 38.0584,78.8022 C43.8214,63.3882 58.1624,46.7912 77.0454,39.5682 L77.0454,39.5682 Z M45.9364,54.3612 C45.8694,54.2662 40.5344,46.5032 39.9754,36.3672 C39.9004,35.0012 41.7144,34.4472 42.4214,35.6182 L47.3314,43.7652 C47.5184,44.0762 47.8494,44.2482 48.1884,44.2482 C48.3644,44.2482 48.5424,44.2022 48.7034,44.1042 L48.7044,44.1042 C49.1764,43.8182 49.3294,43.2052 49.0444,42.7312 L42.5574,31.9692 C41.8644,30.8192 42.6824,29.3632 44.0254,29.3392 C45.6364,29.3102 47.6254,29.4142 49.8584,29.8242 C54.9054,30.7522 62.1884,33.4832 69.0384,41.0762 C65.1664,43.1652 61.5354,45.6292 58.1804,48.3632 C56.1464,50.0192 53.1224,49.4982 51.7684,47.2512 C51.4834,46.7772 50.8684,46.6252 50.3964,46.9112 C50.3964,46.9112 50.3964,46.9112 50.3954,46.9112 C49.9224,47.1962 49.7704,47.8112 50.0554,48.2842 L52.1634,51.7822 C52.6174,52.5352 52.4934,53.4932 51.8794,54.1232 C50.0204,56.0252 48.2804,58.0062 46.6694,60.0392 C46.1514,60.6922 45.1124,60.2172 45.2714,59.3992 L46.0984,55.1252 C46.1504,54.8582 46.0914,54.5832 45.9364,54.3612 L45.9364,54.3612 Z M30.2054,106.6752 C40.2164,106.6752 48.4714,112.1372 49.3804,119.3482 L49.4584,120.9102 C49.3744,124.4322 47.5504,127.8182 44.2204,130.5092 C40.5744,133.4562 35.6134,135.2112 30.2524,135.4512 C24.8854,135.6872 19.7924,134.3872 15.8974,131.7772 C12.0974,129.2322 9.9114,125.7482 9.7414,121.9672 C9.3874,114.0412 18.0104,107.1932 28.9644,106.7022 C29.3814,106.6842 29.7944,106.6752 30.2054,106.6752 L30.2054,106.6752 Z M44.6474,140.0302 C41.0014,142.9772 36.0404,144.7312 30.6784,144.9722 C25.3094,145.2062 20.2174,143.9072 16.3234,141.2982 C12.5234,138.7532 10.3374,135.2692 10.1684,131.4872 L10.0474,128.7992 C11.2184,130.5332 12.7984,132.1092 14.7844,133.4392 C18.7024,136.0642 23.7074,137.4792 29.0024,137.4792 C29.4464,137.4792 29.8934,137.4702 30.3414,137.4492 C36.1264,137.1902 41.5024,135.2782 45.4774,132.0642 C47.3284,130.5682 48.7564,128.8652 49.7674,127.0422 L49.9014,129.7082 C50.0704,133.4892 48.2044,137.1542 44.6474,140.0302 L44.6474,140.0302 Z M73.6524,7.9292 C78.0854,7.9292 81.6914,11.5352 81.6914,15.9682 C81.6914,20.4002 78.0854,24.0062 73.6524,24.0062 C69.2204,24.0062 65.6144,20.4002 65.6144,15.9682 C65.6144,11.5352 69.2204,7.9292 73.6524,7.9292 L73.6524,7.9292 Z M191.3544,132.7172 L166.3414,132.7172 C161.7374,132.7172 157.8934,129.2052 157.4794,124.6192 L157.4694,124.5102 C160.1214,123.9662 162.1214,121.6162 162.1214,118.8082 C162.1214,115.6432 159.5824,113.0662 156.4344,112.9932 L156.4284,112.9222 C156.1174,109.4302 156.8154,105.9562 158.2124,102.7402 C158.5254,102.0182 158.8014,101.2782 159.0424,100.5202 C159.0434,100.5192 159.0454,100.5192 159.0464,100.5182 C159.2774,100.5732 159.5134,100.6112 159.7564,100.6112 C161.3644,100.6112 162.7554,99.3642 163.6864,97.3312 C164.6074,95.3232 166.1584,93.6782 167.9654,92.4092 C171.7774,89.7342 175.1254,86.3742 177.8514,82.4212 C183.8814,73.6802 186.1474,63.1282 184.2344,52.7102 C180.7704,33.8532 164.3514,20.1662 145.1924,20.1662 L145.1924,22.1662 L145.1914,20.1662 L145.1894,20.1662 C142.7924,20.1662 140.3724,20.3872 137.9994,20.8232 C129.4374,22.3952 122.0264,26.6262 116.4434,32.4982 C116.4474,32.4342 116.4574,32.3702 116.4574,32.3042 C116.4574,29.0572 110.7314,26.9882 103.6834,26.1822 C102.1404,26.0052 101.3314,24.2602 102.2144,22.9812 L102.3584,22.7722 C102.9784,21.8732 104.2104,21.6462 105.1094,22.2672 L106.7414,23.3932 C107.7004,24.0542 109.0084,23.9482 109.8534,23.1392 C114.5974,18.5692 120.0814,15.0202 126.1494,12.5852 C127.2274,12.1532 127.8384,11.0062 127.6284,9.8632 L127.3294,8.2362 C127.0994,6.9902 127.9244,5.7952 129.1704,5.5662 L140.8304,3.4252 C142.0754,3.1962 143.2704,4.0202 143.5004,5.2662 L143.7974,6.8942 C144.0074,8.0372 144.9864,8.8932 146.1484,8.9142 C152.6844,9.0312 159.0714,10.4012 165.1324,12.9872 C166.2124,13.4432 167.4684,13.0762 168.1304,12.1172 L168.6464,11.3682 C169.6024,9.9812 171.5024,9.6322 172.8874,10.5882 L181.4034,16.4622 C182.7894,17.4182 183.1374,19.3172 182.1814,20.7032 L181.6764,21.4352 C181.0124,22.3962 181.0904,23.7062 181.9014,24.5472 C186.4804,29.2982 190.0384,34.7902 192.4734,40.8692 C192.9044,41.9452 194.0574,42.5472 195.1974,42.3382 L195.3294,42.3142 C197.3994,41.9342 199.3854,43.3042 199.7654,45.3742 L201.3584,54.0482 C201.7384,56.1182 200.3684,58.1052 198.2984,58.4852 L198.1694,58.5092 C197.0284,58.7182 196.1644,59.6912 196.1434,60.8502 C196.0274,67.3992 194.6534,73.7962 192.0614,79.8632 C191.6024,80.9382 191.9954,82.1892 192.9574,82.8532 L194.2234,83.7272 C195.3144,84.4792 195.5894,85.9742 194.8374,87.0652 L188.2264,96.6482 C187.4744,97.7392 185.9794,98.0142 184.8884,97.2612 L183.6044,96.3762 C182.6414,95.7132 181.3334,95.8222 180.4934,96.6292 C175.7504,101.1972 170.2664,104.7472 164.1974,107.1812 C163.1184,107.6132 162.5074,108.7622 162.7174,109.9052 L163.6114,114.7712 C163.7124,115.3142 164.2264,115.6802 164.7754,115.5742 C165.3184,115.4752 165.6774,114.9532 165.5784,114.4102 L164.6844,109.5432 C164.6444,109.3232 164.7644,109.1082 164.9714,109.0252 C171.2684,106.4962 176.9574,102.8112 181.8784,98.0722 C182.0394,97.9172 182.2854,97.8952 182.4694,98.0222 L186.5524,100.8382 C187.0064,101.1492 187.6294,101.0362 187.9434,100.5822 L198.4134,85.4012 C198.7264,84.9472 198.6124,84.3242 198.1584,84.0112 L194.0744,81.1942 C193.8904,81.0672 193.8234,80.8302 193.9114,80.6252 C196.5914,74.3402 198.0154,67.7122 198.1424,60.9282 C198.1464,60.7062 198.3044,60.5172 198.5244,60.4772 L203.3914,59.5832 C203.6524,59.5352 203.8834,59.3862 204.0344,59.1672 C204.1844,58.9492 204.2424,58.6802 204.1944,58.4192 L200.8634,40.2812 C200.7634,39.7382 200.2534,39.3752 199.6994,39.4782 L194.8324,40.3722 C194.6164,40.4082 194.3974,40.2932 194.3144,40.0862 C191.7864,33.7892 188.0994,28.1012 183.3604,23.1792 C183.2054,23.0182 183.1834,22.7712 183.3104,22.5882 L186.1274,18.5052 C186.2774,18.2872 186.3354,18.0182 186.2874,17.7572 C186.2394,17.4962 186.0894,17.2652 185.8714,17.1142 L170.6904,6.6442 C170.2364,6.3312 169.6134,6.4442 169.2994,6.8992 L166.4834,10.9822 C166.3584,11.1642 166.1184,11.2342 165.9164,11.1462 C159.6284,8.4652 153.0014,7.0412 146.2164,6.9142 C145.9944,6.9102 145.8054,6.7512 145.7644,6.5322 L144.8714,1.6662 C144.7724,1.1232 144.2564,0.7622 143.7074,0.8632 L125.5694,4.1942 C125.3084,4.2422 125.0774,4.3922 124.9264,4.6102 C124.7764,4.8282 124.7184,5.0982 124.7664,5.3582 L125.6614,10.2252 C125.7014,10.4442 125.5814,10.6592 125.3744,10.7422 C119.0774,13.2712 113.3884,16.9582 108.4674,21.6962 C108.3064,21.8512 108.0604,21.8732 107.8774,21.7462 L103.7934,18.9302 C103.5754,18.7782 103.3064,18.7252 103.0454,18.7702 C102.7844,18.8172 102.5524,18.9672 102.4024,19.1862 L97.8354,25.8082 C97.4744,25.8022 97.1124,25.7982 96.7514,25.7982 C86.9594,25.7982 77.0454,28.0322 77.0454,32.3042 C77.0454,32.4142 77.0554,32.5292 77.0704,32.6462 C77.0654,32.6892 77.0454,32.7282 77.0454,32.7722 L77.0454,36.1642 C77.0454,36.9302 76.5754,37.6182 75.8624,37.8972 L75.8214,37.9142 C75.2604,38.1342 74.6524,37.7292 74.6524,37.1262 L74.6524,31.2402 C74.6524,28.5962 76.0214,26.0762 78.3554,24.8332 C81.6934,23.0562 83.9154,19.4502 83.6734,15.3602 C83.3724,10.2832 79.1344,6.1352 74.0524,5.9362 C68.3364,5.7132 63.6144,10.3002 63.6144,15.9682 C63.6144,19.7652 65.7344,23.0762 68.8524,24.7812 C71.2074,26.0672 72.6524,28.5542 72.6524,31.2372 L72.6524,38.7412 C72.6524,39.0712 72.4614,39.3702 72.1624,39.5102 L72.1444,39.5182 C71.3824,39.8742 70.4864,39.6832 69.9114,39.0702 C55.6644,23.8902 39.4144,27.8112 39.2444,27.8532 C39.1504,27.8782 39.0614,27.9162 38.9804,27.9642 C38.9794,27.9652 38.9774,27.9652 38.9764,27.9662 C38.9714,27.9692 38.9684,27.9742 38.9644,27.9772 C38.8684,28.0372 38.7884,28.1152 38.7184,28.2022 C38.6974,28.2282 38.6794,28.2542 38.6614,28.2832 C38.6114,28.3592 38.5734,28.4412 38.5464,28.5302 C38.5384,28.5542 38.5274,28.5762 38.5214,28.6012 C38.5194,28.6092 38.5144,28.6172 38.5124,28.6262 C36.8704,36.8342 38.8974,44.3022 40.9924,49.2742 C42.8334,53.6462 43.4194,58.4442 42.5174,63.1022 C42.0404,65.5652 41.1484,67.9262 39.9374,70.1232 C37.9014,73.8172 36.2934,77.5432 35.1724,81.1702 L34.8594,81.1702 C34.7164,81.1702 34.5834,81.2072 34.4574,81.2632 C34.2254,81.2082 33.9894,81.1702 33.7474,81.1702 C30.8004,81.1702 28.5784,85.3492 28.5784,90.8912 C28.5784,96.4332 30.8004,100.6112 33.7474,100.6112 C33.9894,100.6112 34.2254,100.5732 34.4574,100.5182 C34.4594,100.5192 34.4604,100.5192 34.4624,100.5202 C35.0084,102.2502 35.7494,103.8872 36.6814,105.4302 C34.2374,104.8492 31.6064,104.5842 28.8754,104.7042 C16.8194,105.2442 7.3394,113.0282 7.7434,122.0572 C7.7434,122.0572 7.8394,124.0092 7.9504,126.2432 C8.1264,129.7642 5.3184,132.7172 1.7944,132.7172 C1.2414,132.7172 0.7944,133.1642 0.7944,133.7172 C0.7944,134.2702 1.2414,134.7172 1.7944,134.7172 L3.0684,134.7172 C6.0294,134.7172 8.8854,136.0712 10.5764,138.5012 C11.7344,140.1662 13.2914,141.6742 15.2104,142.9602 C19.1294,145.5852 24.1334,147.0002 29.4284,147.0002 C29.8724,147.0002 30.3194,146.9902 30.7684,146.9702 C36.5524,146.7112 41.9284,144.7992 45.9034,141.5862 C47.1614,140.5692 48.2304,139.4602 49.1024,138.2812 C50.7674,136.0302 53.4094,134.7172 56.2104,134.7172 C56.2104,134.7172 157.1764,134.7872 157.3054,134.7872 C157.3364,134.7872 191.3544,134.7172 191.3544,134.7172 C191.9074,134.7172 192.3544,134.2702 192.3544,133.7172 C192.3544,133.1642 191.9074,132.7172 191.3544,132.7172 L191.3544,132.7172 Z" id="Fill-52" fill="#B9BBBE" mask="url(#mask-2)"></path>
                </g>
                <path d="M37.1866,120.5213 L37.1906,120.5213 L50.4616,120.4723 C51.0136,120.4703 51.4596,120.0213 51.4576,119.4683 C51.4556,118.9173 51.0086,118.4723 50.4576,118.4723 L50.4536,118.4723 L37.1826,118.5213 C36.6306,118.5233 36.1846,118.9723 36.1866,119.5253 C36.1886,120.0763 36.6356,120.5213 37.1866,120.5213" id="Fill-55" fill="#B9BBBE"></path>
                <path d="M218.2012,105.9608 C218.7532,105.9608 219.2012,105.5128 219.2012,104.9608 C219.2012,104.1278 219.8772,103.4508 220.7112,103.4508 C221.2642,103.4508 221.7112,103.0028 221.7112,102.4508 C221.7112,101.8988 221.2642,101.4508 220.7112,101.4508 C219.8772,101.4508 219.2012,100.7748 219.2012,99.9408 L219.2012,99.9408 C219.2012,99.3888 218.7532,98.9408 218.2012,98.9408 C217.6482,98.9408 217.2012,99.3888 217.2012,99.9408 L217.2012,99.9408 C217.2012,100.7748 216.5242,101.4508 215.6912,101.4508 C215.1382,101.4508 214.6912,101.8988 214.6912,102.4508 C214.6912,103.0028 215.1382,103.4508 215.6912,103.4508 C216.5242,103.4508 217.2012,104.1278 217.2012,104.9608 C217.2012,105.5128 217.6482,105.9608 218.2012,105.9608" id="Fill-57" fill="#B9BBBE"></path>
                <path d="M29.6592,46.9354 C29.9152,46.9354 30.1712,46.8374 30.3662,46.6424 L31.5492,45.4594 C31.9402,45.0684 31.9402,44.4354 31.5492,44.0454 C31.1592,43.6544 30.5262,43.6544 30.1352,44.0454 L28.9522,45.2284 C28.5612,45.6194 28.5612,46.2514 28.9522,46.6424 C29.1472,46.8374 29.4032,46.9354 29.6592,46.9354" id="Fill-59" fill="#B9BBBE"></path>
                <path d="M23.7427,52.8519 C23.9987,52.8519 24.2547,52.7539 24.4497,52.5589 L25.6337,51.3759 C26.0237,50.9859 26.0237,50.3519 25.6337,49.9619 C25.2427,49.5709 24.6097,49.5709 24.2197,49.9619 L23.0357,51.1449 C22.6447,51.5349 22.6447,52.1679 23.0357,52.5589 C23.2307,52.7539 23.4867,52.8519 23.7427,52.8519" id="Fill-61" fill="#B9BBBE"></path>
                <path d="M30.1353,52.5589 C30.3303,52.7539 30.5863,52.8519 30.8423,52.8519 C31.0983,52.8519 31.3543,52.7539 31.5493,52.5589 C31.9403,52.1679 31.9403,51.5359 31.5493,51.1449 L30.3663,49.9619 C29.9753,49.5709 29.3433,49.5709 28.9523,49.9619 C28.5613,50.3519 28.5613,50.9849 28.9523,51.3759 L30.1353,52.5589 Z" id="Fill-63" fill="#B9BBBE"></path>
                <path d="M24.2193,46.6424 C24.4143,46.8374 24.6703,46.9354 24.9263,46.9354 C25.1823,46.9354 25.4383,46.8374 25.6333,46.6424 C26.0243,46.2514 26.0243,45.6184 25.6333,45.2284 L24.4493,44.0454 C24.0593,43.6544 23.4253,43.6544 23.0353,44.0454 C22.6453,44.4354 22.6453,45.0694 23.0353,45.4594 L24.2193,46.6424 Z" id="Fill-65" fill="#B9BBBE"></path>
            </g>
            <rect id="Rectangle" x="0" y="0" width="254" height="154"></rect>
        </g>
    </g>
</svg>