<svg xmlns="http://www.w3.org/2000/svg" xmlns:xlink="http://www.w3.org/1999/xlink" width="140" height="96" viewBox="0 0 140 96">
  <defs>
    <polygon id="a" points="0 0 0 84 37.278 84 74.557 84 74.557 0 0 0"/>
  </defs>
  <g fill="none" fill-rule="evenodd">
    <g transform="translate(15 6)">
      <path fill="#F6F6F7" d="M14.3017 13.2642C16.1787 14.1052 18.0867 14.8452 20.0147 15.4972 20.9887 15.8272 22.0357 15.3342 22.4607 14.3982 23.5727 11.9482 24.8417 9.5522 26.2657 7.2272 26.7787 6.3892 25.8997 5.3772 25.0107 5.7962 21.0177 7.6792 17.3847 10.2052 14.2437 13.2382L14.3017 13.2642zM36.1288 37.5C35.0478 36.899 34.2008 35.886 33.7538 34.693L32.3588 30.976C31.9648 29.924 31.8568 28.763 32.1818 27.687 32.6248 26.219 33.6708 25.081 35.0538 24.521 35.3138 23.167 35.9318 21.915 36.8138 20.882 32.7318 20.609 28.6698 19.97 24.6738 18.96 23.6748 18.708 22.6298 19.223 22.2838 20.194 20.3848 25.525 19.2058 31.06 18.7468 36.646 18.5498 39.042 20.3328 41 22.7368 41L37.4088 41C37.4138 40.99 37.4168 40.98 37.4208 40.97 37.9178 39.676 37.3398 38.174 36.1288 37.5"/>
      <path fill="#DCDDDE" d="M70.185,16.7842 C70.595,16.1512 71.196,15.7032 71.875,15.4412 C71.5,15.0192 71.115,14.6072 70.722,14.2022 C70.623,14.3642 70.494,14.5092 70.309,14.5962 C69.305,15.0672 68.288,15.5012 67.267,15.9212 C67.364,16.0342 67.514,16.3062 67.683,16.6452 C68.18,17.6432 69.579,17.7202 70.185,16.7842"/>
      <path fill="#F6F6F7" d="M57.7592,12.5078 C57.9802,12.5078 58.1992,12.5178 58.4182,12.5368 C57.2352,10.2218 55.9042,7.9658 54.4242,5.7828 C53.4052,4.2808 51.8582,3.1978 50.0802,2.8328 C48.4782,2.5028 46.8422,2.2688 45.1762,2.1378 C44.0072,2.0458 43.0002,2.9638 43.0002,4.1368 L43.0002,17.5138 L55.0242,13.0038 C55.8992,12.6758 56.8252,12.5078 57.7592,12.5078"/>
      <path fill="#DCDDDE" d="M26.0322 17.2339C30.3672 18.2679 34.7782 18.8569 39.2002 19.0009 39.4572 18.8689 39.7202 18.7449 39.9932 18.6419L41.0002 18.2639 41.0002 4.1369C41.0002 2.9639 39.9932 2.0459 38.8242 2.1379 37.1582 2.2689 35.5222 2.5029 33.9202 2.8329 32.1402 3.1989 30.5922 4.2839 29.5732 5.7889 27.6982 8.5529 26.0632 11.4349 24.6652 14.4029 24.1152 15.5709 24.7762 16.9349 26.0322 17.2339M60.9745 13.2002C61.5825 13.4742 62.1565 13.8252 62.6805 14.2482 62.9585 14.1992 63.2415 14.1742 63.5265 14.1742 64.1565 14.1742 64.7635 14.3092 65.3295 14.5352 66.6775 14.0112 68.0165 13.4542 69.3375 12.8382 66.3035 9.9922 62.8285 7.6112 59.0265 5.8142 58.1185 5.3852 57.2135 6.3772 57.7375 7.2342 58.9245 9.1762 60.0035 11.1682 60.9745 13.2002"/>
      <path fill="#FFFFFF" d="M50.2524,59.7119 L43.0004,50.7699 L43.0004,60.0519 C43.0004,61.6539 44.2594,62.9659 45.8594,63.0429 C47.3914,63.1149 48.9214,63.2409 50.4474,63.4169 L50.5894,60.7489 C50.6094,60.3739 50.4894,60.0039 50.2524,59.7119"/>
      <path fill="#DCDDDE" d="M50.3412 65.4189C48.9452 65.2549 47.5452 65.1349 46.1432 65.0599 44.4332 64.9679 43.0002 66.3479 43.0002 68.0619L43.0002 79.8639C43.0002 81.0369 44.0062 81.9549 45.1742 81.8629 46.6892 81.7449 48.1802 81.5439 49.6422 81.2589 49.5712 80.9449 49.5322 80.6229 49.5502 80.2919L50.3412 65.4189zM4.1376 41L12.7076 41C14.8256 41 16.5486 39.347 16.6986 37.233 17.1176 31.32 18.3176 25.455 20.2996 19.808 20.6596 18.782 20.1076 17.645 19.0796 17.292 17.1916 16.643 15.3236 15.913 13.4846 15.089L12.7466 14.759C6.7636 21.18 2.8686 29.562 2.1376 38.824 2.0456 39.994 2.9646 41 4.1376 41"/>
      <path fill="#FFFFFF" d="M37.7778,65.146 C33.8608,65.435 29.9648,66.072 26.1338,67.059 C24.8958,67.378 24.2578,68.735 24.8088,69.889 C26.1438,72.69 27.6908,75.412 29.4508,78.03 C30.5448,79.656 32.2208,80.829 34.1418,81.212 C35.6738,81.519 37.2358,81.737 38.8238,81.862 C39.9938,81.954 40.9998,81.036 40.9998,79.863 L40.9998,68.146 C40.9998,66.402 39.5168,65.018 37.7778,65.146"/>
      <path fill="#F6F6F7" d="M37.2158,43 L22.7368,43 C20.3298,43 18.5498,44.96 18.7468,47.359 C19.2158,53.056 20.4348,58.7 22.4018,64.129 C22.7558,65.105 23.8158,65.614 24.8178,65.342 C29.2178,64.148 33.7078,63.404 38.2218,63.11 C39.7898,63.008 40.9998,61.696 40.9998,60.125 L40.9998,48.304 L37.9248,44.513 C37.5618,44.065 37.3268,43.544 37.2158,43"/>
      <path fill="#DCDDDE" d="M20.4311 64.5571C18.3711 58.7971 17.1271 52.8051 16.6981 46.7631 16.5491 44.6511 14.8261 43.0001 12.7081 43.0001L4.1381 43.0001C2.9681 43.0001 2.0451 44.0001 2.1371 45.1661 2.8881 54.7031 6.9941 63.3071 13.2781 69.7981 13.3771 69.6361 13.5061 69.4911 13.6911 69.4041 15.5111 68.5511 17.3591 67.7901 19.2301 67.1091 20.2581 66.7351 20.8001 65.5871 20.4311 64.5571M22.6391 69.9775C22.2051 69.0365 21.1391 68.5495 20.1631 68.9005 18.3061 69.5685 16.4691 70.3185 14.6631 71.1615 17.6981 74.0085 21.1731 76.3895 24.9771 78.1875 25.8831 78.6155 26.7891 77.6255 26.2661 76.7705 24.9171 74.5655 23.7081 72.2965 22.6391 69.9775"/>
      <mask id="b" fill="white">
        <use xlink:href="#a"/>
      </mask>
      <path fill="#B9BBBE" d="M4.1376,43 L12.7086,43 C14.8256,43 16.5486,44.651 16.6986,46.763 C17.1266,52.805 18.3706,58.797 20.4306,64.557 C20.7996,65.587 20.2576,66.735 19.2296,67.109 C17.3596,67.79 15.5106,68.551 13.6916,69.404 C13.5066,69.491 13.3766,69.636 13.2786,69.798 C6.9936,63.307 2.8876,54.703 2.1376,45.167 C2.0456,44 2.9676,43 4.1376,43 M22.4606,14.398 C22.0356,15.334 20.9886,15.827 20.0146,15.498 C18.0866,14.845 16.1786,14.105 14.3016,13.264 L14.2436,13.238 C17.3856,10.206 21.0176,7.679 25.0116,5.796 C25.8996,5.377 26.7786,6.39 26.2656,7.227 C24.8416,9.552 23.5726,11.948 22.4606,14.398 M12.7076,41 L4.1376,41 C2.9646,41 2.0456,39.994 2.1376,38.824 C2.8686,29.562 6.7636,21.179 12.7466,14.759 L13.4846,15.089 C15.3236,15.913 17.1916,16.643 19.0796,17.292 C20.1076,17.645 20.6596,18.782 20.2996,19.808 C18.3176,25.455 17.1176,31.32 16.6986,37.233 C16.5486,39.347 14.8256,41 12.7076,41 M24.9766,78.188 C21.1736,76.39 17.6976,74.008 14.6626,71.162 C16.4696,70.319 18.3046,69.569 20.1626,68.901 C21.1386,68.55 22.2046,69.036 22.6386,69.978 C23.7086,72.297 24.9166,74.565 26.2656,76.771 C26.7886,77.626 25.8836,78.616 24.9766,78.188 M40.9996,68.146 L40.9996,79.863 C40.9996,81.036 39.9936,81.954 38.8236,81.862 C37.2356,81.737 35.6726,81.519 34.1416,81.212 C32.2206,80.829 30.5446,79.656 29.4506,78.03 C27.6906,75.412 26.1436,72.69 24.8086,69.889 C24.2586,68.735 24.8956,67.378 26.1346,67.059 C29.9646,66.072 33.8606,65.435 37.7776,65.146 C39.5166,65.018 40.9996,66.402 40.9996,68.146 M49.6416,81.259 C48.1796,81.543 46.6886,81.745 45.1746,81.863 C44.0056,81.955 42.9996,81.037 42.9996,79.864 L42.9996,68.062 C42.9996,66.348 44.4326,64.968 46.1436,65.06 C47.5446,65.135 48.9446,65.255 50.3416,65.419 L50.4476,63.417 C48.9216,63.241 47.3916,63.115 45.8596,63.042 C44.2596,62.966 42.9996,61.654 42.9996,60.052 L42.9996,50.77 L40.9996,48.304 L40.9996,60.125 C40.9996,61.696 39.7886,63.008 38.2216,63.11 C33.7076,63.404 29.2186,64.148 24.8176,65.342 C23.8146,65.614 22.7556,65.106 22.4016,64.129 C20.4346,58.701 19.2166,53.056 18.7466,47.359 C18.5496,44.96 20.3296,43 22.7366,43 L37.2156,43 C37.0956,42.414 37.1196,41.8 37.3106,41.209 C37.3356,41.135 37.3806,41.072 37.4086,41 L22.7366,41 C20.3326,41 18.5496,39.042 18.7466,36.646 C19.2056,31.06 20.3846,25.525 22.2836,20.194 C22.6296,19.223 23.6746,18.708 24.6736,18.96 C28.6696,19.969 32.7316,20.609 36.8136,20.882 C37.4716,20.113 38.2796,19.471 39.2006,19.001 C34.7776,18.856 30.3666,18.268 26.0326,17.234 C24.7756,16.935 24.1156,15.571 24.6646,14.403 C26.0626,11.435 27.6986,8.553 29.5726,5.789 C30.5926,4.284 32.1396,3.199 33.9196,2.833 C35.5216,2.502 37.1586,2.269 38.8236,2.138 C39.9936,2.046 40.9996,2.964 40.9996,4.137 L40.9996,18.264 L42.9996,17.514 L42.9996,4.137 C42.9996,2.964 44.0066,2.046 45.1766,2.138 C46.8416,2.269 48.4776,2.503 50.0806,2.833 C51.8576,3.198 53.4056,4.281 54.4246,5.783 C55.9046,7.966 57.2356,10.222 58.4176,12.537 C59.3076,12.612 60.1706,12.838 60.9736,13.2 C60.0036,11.168 58.9246,9.176 57.7376,7.234 C57.2136,6.377 58.1176,5.385 59.0266,5.814 C62.8286,7.611 66.3036,9.992 69.3376,12.838 C68.0166,13.455 66.6776,14.011 65.3286,14.535 C66.0776,14.833 66.7436,15.307 67.2666,15.921 C68.2876,15.501 69.3046,15.067 70.3086,14.596 C70.4936,14.509 70.6236,14.364 70.7216,14.202 C71.1146,14.607 71.4996,15.019 71.8756,15.441 C72.2746,15.287 72.6946,15.18 73.1376,15.18 C73.6386,15.18 74.1146,15.307 74.5566,15.503 C66.1176,5.153 52.8586,-1.117 38.2316,0.166 C17.9216,1.946 1.6466,18.444 0.1206,38.776 C-1.7254,63.384 17.7756,84 41.9996,84 C44.9946,84 47.9156,83.679 50.7346,83.08 C50.1876,82.591 49.8026,81.964 49.6416,81.259" mask="url(#b)"/>
      <path fill="#B9BBBE" d="M41.2866 37.8394C41.2706 37.8194 41.2526 37.8004 41.2366 37.7804 41.2526 37.8014 41.2706 37.8194 41.2866 37.8394M63.7509 16.1914C63.8739 16.2014 63.9949 16.2174 64.1139 16.2424 63.9939 16.2174 63.8739 16.2014 63.7509 16.1914M63.5268 16.1743C63.4268 16.1743 63.3268 16.1903 63.2268 16.2013 63.3508 16.1883 63.4748 16.1763 63.5968 16.1793 63.5738 16.1793 63.5508 16.1743 63.5268 16.1743M64.2783 16.2798C64.4033 16.3128 64.5243 16.3558 64.6433 16.4048 64.5243 16.3558 64.4033 16.3128 64.2783 16.2798M62.5043 16.3604C62.6833 16.2934 62.8653 16.2484 63.0463 16.2174 62.8643 16.2484 62.6833 16.2934 62.5043 16.3604M39.7924 20.9507C39.8444 20.9207 39.8974 20.8907 39.9514 20.8627 39.8974 20.8907 39.8444 20.9207 39.7924 20.9507M64.7592 16.4507C64.9112 16.5217 65.0582 16.6057 65.1962 16.7027 65.0582 16.6057 64.9112 16.5217 64.7592 16.4507M27.9072 57.5146C28.9752 57.5146 29.8442 58.3836 29.8442 59.4516 29.8442 60.5196 28.9752 61.3886 27.9072 61.3886 26.8392 61.3886 25.9702 60.5196 25.9702 59.4516 25.9702 58.3836 26.8392 57.5146 27.9072 57.5146M27.9072 62.3886C29.5272 62.3886 30.8452 61.0716 30.8452 59.4516 30.8452 57.8316 29.5272 56.5146 27.9072 56.5146 26.2872 56.5146 24.9702 57.8316 24.9702 59.4516 24.9702 61.0716 26.2872 62.3886 27.9072 62.3886M12.2104 58.5273C12.2104 58.8033 12.4344 59.0273 12.7104 59.0273 12.9864 59.0273 13.2104 58.8033 13.2104 58.5273 13.2104 57.4573 14.0784 56.5903 15.1474 56.5903L15.1484 56.5903C15.4244 56.5903 15.6484 56.3663 15.6484 56.0903 15.6484 55.8143 15.4244 55.5903 15.1484 55.5903L15.1474 55.5903C14.0784 55.5903 13.2104 54.7233 13.2104 53.6533L13.2104 53.6523C13.2104 53.3763 12.9864 53.1523 12.7104 53.1523 12.4344 53.1523 12.2104 53.3763 12.2104 53.6523L12.2104 53.6533C12.2104 54.7233 11.3434 55.5903 10.2734 55.5903 9.9974 55.5903 9.7734 55.8143 9.7734 56.0903 9.7734 56.3663 9.9974 56.5903 10.2734 56.5903 11.3434 56.5903 12.2104 57.4573 12.2104 58.5273M6.2202 71.7803L5.2832 71.7803C4.7302 71.7803 4.2832 71.3323 4.2832 70.7803L4.2832 69.8433C4.2832 69.5663 4.0592 69.3423 3.7822 69.3423 3.5062 69.3423 3.2822 69.5663 3.2822 69.8433L3.2822 70.7803C3.2822 71.3323 2.8352 71.7803 2.2822 71.7803L1.3452 71.7803C1.0692 71.7803.8452 72.0043.8452 72.2803.8452 72.5563 1.0692 72.7803 1.3452 72.7803L2.2822 72.7803C2.8352 72.7803 3.2822 73.2283 3.2822 73.7803L3.2822 74.7173C3.2822 74.9933 3.5062 75.2173 3.7822 75.2173 4.0592 75.2173 4.2832 74.9933 4.2832 74.7173L4.2832 73.7803C4.2832 73.2283 4.7302 72.7803 5.2832 72.7803L6.2202 72.7803C6.4962 72.7803 6.7202 72.5563 6.7202 72.2803 6.7202 72.0043 6.4962 71.7803 6.2202 71.7803"/>
      <path fill="#FFD773" d="M61.1386 35.8701C61.0926 35.8341 61.0436 35.8031 60.9996 35.7641 61.0436 35.8031 61.0926 35.8341 61.1386 35.8701M54.0888 40.0312C54.4878 40.5922 54.6218 41.2612 54.5158 41.8902 54.6218 41.2612 54.4878 40.5922 54.0888 40.0312L52.5528 37.8742 55.5858 36.7372 55.5858 36.7372 52.5528 37.8742 54.0888 40.0312z"/>
      <polygon fill="#FFD773" points="47.72 39.678 47.72 39.678 49.069 41.573"/>
      <path fill="#FFD773" d="M45.8139 40C45.8209 40 45.8289 39.998 45.8359 39.998 45.8219 39.998 45.8089 39.999 45.7939 39.998 45.8009 39.998 45.8079 40 45.8139 40M50.5493 43.4443C50.5033 43.4083 50.4543 43.3773 50.4103 43.3383 50.4543 43.3773 50.5033 43.4083 50.5493 43.4443M52.5327 43.9175C52.4247 43.9385 52.3147 43.9515 52.2057 43.9575 52.3147 43.9505 52.4237 43.9385 52.5327 43.9175"/>
      <path fill="#FFD773" d="M94.4692,58.4521 L106.7962,43.2531 C107.1272,42.8461 107.2232,42.3261 107.0612,41.8271 C106.8992,41.3281 106.5152,40.9641 106.0092,40.8291 L87.1022,35.7791 C86.2582,35.5531 85.5322,35.0261 85.0572,34.2941 L74.4112,17.8721 C74.1262,17.4321 73.6612,17.1801 73.1372,17.1801 C72.6132,17.1801 72.1482,17.4321 71.8632,17.8721 L69.6192,21.3331 L69.6672,21.4621 C70.3782,23.3571 69.8392,25.4191 68.4642,26.7401 C69.0032,29.0181 68.4932,31.4111 67.0832,33.2681 C67.3112,34.8901 66.6402,36.5741 65.2532,37.5611 C64.4882,38.1061 63.5882,38.3931 62.6502,38.3931 C61.5712,38.3931 60.5372,38.0041 59.7322,37.3171 L55.6912,38.8331 L55.7182,38.8711 C56.4142,39.8491 56.6872,41.0391 56.4882,42.2221 C56.2892,43.4051 55.6402,44.4401 54.6632,45.1361 C53.8982,45.6801 52.9982,45.9681 52.0602,45.9681 C50.6092,45.9681 49.2402,45.2631 48.3992,44.0811 L46.8672,41.9291 C46.5182,41.9761 46.1672,42.0001 45.8142,42.0001 C44.1682,42.0001 42.6082,41.4631 41.3122,40.5491 L40.2662,40.8291 C39.7592,40.9641 39.3752,41.3281 39.2132,41.8271 C39.0512,42.3261 39.1482,42.8461 39.4782,43.2531 L51.8052,58.4521 C52.3552,59.1301 52.6332,59.9831 52.5862,60.8551 L51.5472,80.3981 C51.5192,80.9211 51.7462,81.3981 52.1712,81.7071 C52.5952,82.0151 53.1192,82.0841 53.6092,81.8961 L71.8742,74.8691 C72.6882,74.5541 73.5852,74.5541 74.4012,74.8691 L92.6652,81.8961 C93.1562,82.0841 93.6792,82.0151 94.1032,81.7071 C94.5282,81.3981 94.7552,80.9211 94.7272,80.3971 L93.6882,60.8551 C93.6412,59.9831 93.9192,59.1301 94.4692,58.4521"/>
      <path fill="#FFD773" d="M51.0375 43.7383C50.9785 43.7113 50.9195 43.6843 50.8625 43.6523 50.9195 43.6843 50.9775 43.7113 51.0375 43.7383M52.9755 43.7856C52.8765 43.8246 52.7775 43.8586 52.6765 43.8846 52.7775 43.8586 52.8765 43.8256 52.9755 43.7856M52.0605 43.9683C52.0725 43.9683 52.0835 43.9663 52.0955 43.9663 52.0465 43.9663 51.9985 43.9573 51.9485 43.9553 51.9865 43.9573 52.0225 43.9683 52.0605 43.9683M51.5536 43.9087C51.4916 43.8957 51.4316 43.8777 51.3716 43.8597 51.4326 43.8777 51.4916 43.8957 51.5536 43.9087M66.5229 27.249C66.5369 27.312 66.5509 27.375 66.5629 27.439 66.5499 27.375 66.5369 27.312 66.5229 27.249M64.7402 35.248C64.6892 35.328 64.6282 35.402 64.5672 35.476 64.6282 35.401 64.6892 35.328 64.7402 35.248M62.6503 36.3936C62.6613 36.3936 62.6733 36.3916 62.6853 36.3916 62.6353 36.3916 62.5873 36.3826 62.5383 36.3806 62.5763 36.3826 62.6123 36.3936 62.6503 36.3936M64.9458 34.8501C64.9188 34.9161 64.8838 34.9791 64.8508 35.0441 64.8838 34.9791 64.9188 34.9161 64.9458 34.8501M61.6269 36.1636C61.5679 36.1376 61.5089 36.1096 61.4519 36.0786 61.5089 36.1096 61.5669 36.1366 61.6269 36.1636M63.5663 36.2109C63.4673 36.2509 63.3663 36.2839 63.2653 36.3099 63.3673 36.2839 63.4663 36.2509 63.5663 36.2109M63.122 36.3428C63.014 36.3638 62.904 36.3768 62.795 36.3828 62.905 36.3768 63.014 36.3638 63.122 36.3428M62.143 36.3345C62.081 36.3215 62.022 36.3035 61.961 36.2855 62.022 36.3035 62.081 36.3215 62.143 36.3345M63.6933 36.1597C63.8303 36.0967 63.9653 36.0227 64.0933 35.9317 64.2273 35.8367 64.3473 35.7287 64.4563 35.6147 64.3473 35.7287 64.2273 35.8367 64.0933 35.9317 63.9653 36.0227 63.8303 36.0967 63.6933 36.1597M60.5776 35.29L60.6186 35.347 60.5776 35.29zM65.0327 34.5864C65.0467 34.5354 65.0627 34.4844 65.0737 34.4334 65.0627 34.4844 65.0477 34.5354 65.0327 34.5864M66.3017 26.4897C66.3017 26.4887 66.3017 26.4877 66.3007 26.4867L66.2927 26.4647 66.3007 26.4867C66.3017 26.4877 66.3017 26.4887 66.3017 26.4897M53.5014 43.5073C53.3744 43.5973 53.2404 43.6703 53.1044 43.7343 53.2404 43.6703 53.3744 43.5973 53.5014 43.5073M66.6518 28.9634C66.6478 29.0254 66.6418 29.0864 66.6348 29.1484 66.6418 29.0864 66.6478 29.0254 66.6518 28.9634M65.1269 34.0088C65.1259 34.0448 65.1229 34.0798 65.1199 34.1158 65.1229 34.0798 65.1259 34.0448 65.1269 34.0088M65.018 33.1685C65.021 33.1775 65.024 33.1865 65.027 33.1955 65.024 33.1865 65.021 33.1775 65.018 33.1685M65.1084 33.5845C65.1114 33.6055 65.1134 33.6275 65.1164 33.6485 65.1134 33.6275 65.1114 33.6055 65.1084 33.5845M66.2876 30.6035C66.2666 30.6595 66.2436 30.7155 66.2206 30.7715 66.2436 30.7155 66.2666 30.6605 66.2876 30.6035M65.476 32.0669C65.439 32.1149 65.402 32.1619 65.364 32.2089 65.402 32.1619 65.439 32.1149 65.476 32.0669"/>
      <path fill="#8BA4E8" d="M54.0888 40.0312L52.5528 37.8742 47.8658 39.6322C47.8178 39.6502 47.7688 39.6612 47.7198 39.6782L49.0688 41.5732 50.0288 42.9212C50.1408 43.0792 50.2708 43.2152 50.4098 43.3382 50.4538 43.3772 50.5028 43.4082 50.5488 43.4442 50.6498 43.5212 50.7528 43.5922 50.8618 43.6522 50.9198 43.6842 50.9788 43.7112 51.0378 43.7382 51.1468 43.7872 51.2568 43.8272 51.3718 43.8602 51.4318 43.8772 51.4918 43.8962 51.5538 43.9082 51.6838 43.9362 51.8158 43.9492 51.9488 43.9552 51.9978 43.9572 52.0468 43.9662 52.0948 43.9662 52.1318 43.9652 52.1688 43.9592 52.2058 43.9572 52.3148 43.9512 52.4238 43.9382 52.5328 43.9172 52.5808 43.9082 52.6288 43.8962 52.6758 43.8842 52.7768 43.8582 52.8768 43.8242 52.9758 43.7852 53.0188 43.7682 53.0618 43.7532 53.1048 43.7342 53.2408 43.6702 53.3748 43.5972 53.5018 43.5072 53.5028 43.5072 53.5028 43.5072 53.5038 43.5062 53.9238 43.2072 54.2238 42.8012 54.3918 42.3512 54.4478 42.2012 54.4888 42.0472 54.5158 41.8902 54.6218 41.2612 54.4878 40.5922 54.0888 40.0312M62.8876 33.998L60.3386 34.954 60.5776 35.29 60.6176 35.347C60.7306 35.504 60.8606 35.641 60.9996 35.764 61.0436 35.803 61.0926 35.834 61.1386 35.87 61.2396 35.947 61.3426 36.018 61.4516 36.078 61.5086 36.109 61.5676 36.137 61.6266 36.164 61.7356 36.213 61.8466 36.253 61.9616 36.286 62.0216 36.303 62.0816 36.322 62.1426 36.334 62.2736 36.361 62.4056 36.374 62.5386 36.381 62.5876 36.383 62.6356 36.392 62.6846 36.391 62.7216 36.391 62.7586 36.385 62.7946 36.383 62.9046 36.376 63.0136 36.364 63.1216 36.343 63.1706 36.333 63.2176 36.322 63.2646 36.31 63.3666 36.284 63.4676 36.25 63.5666 36.211 63.6086 36.194 63.6516 36.179 63.6936 36.16 63.8306 36.096 63.9656 36.023 64.0936 35.932 64.2266 35.836 64.3466 35.729 64.4556 35.614 64.4976 35.57 64.5296 35.521 64.5666 35.476 64.6276 35.402 64.6886 35.328 64.7406 35.248 64.7826 35.183 64.8156 35.113 64.8506 35.044 64.8846 34.979 64.9186 34.916 64.9456 34.85 64.9816 34.764 65.0066 34.676 65.0326 34.586 65.0476 34.536 65.0626 34.485 65.0736 34.433 65.0966 34.328 65.1106 34.223 65.1196 34.116 65.1226 34.08 65.1256 34.044 65.1266 34.009 65.1326 33.889 65.1286 33.769 65.1166 33.648 65.1136 33.627 65.1116 33.606 65.1086 33.584 65.0916 33.453 65.0646 33.324 65.0266 33.196 65.0246 33.186 65.0206 33.178 65.0176 33.168 64.9756 33.032 64.9226 32.899 64.8556 32.769L64.8556 32.768C64.3046 33.291 63.6426 33.714 62.8876 33.998M63.228 18.2939L66.088 25.9199C66.654 25.7079 67.115 25.3379 67.44 24.8799 67.657 24.5749 67.814 24.2309 67.901 23.8659 68.032 23.3199 68.007 22.7299 67.795 22.1639L66.258 18.0669C66.194 17.8969 66.112 17.7379 66.02 17.5859 65.992 17.5399 65.96 17.4969 65.93 17.4519 65.86 17.3499 65.785 17.2519 65.703 17.1599 65.666 17.1169 65.628 17.0749 65.588 17.0349 65.494 16.9409 65.394 16.8559 65.29 16.7759 65.258 16.7519 65.229 16.7249 65.197 16.7029 65.058 16.6059 64.912 16.5219 64.759 16.4509 64.722 16.4329 64.682 16.4209 64.643 16.4049 64.524 16.3559 64.403 16.3129 64.278 16.2799 64.224 16.2649 64.169 16.2529 64.114 16.2419 63.995 16.2169 63.874 16.2009 63.751 16.1909 63.699 16.1879 63.649 16.1809 63.597 16.1799 63.475 16.1769 63.351 16.1889 63.227 16.2009 63.166 16.2079 63.107 16.2069 63.047 16.2169 62.865 16.2479 62.684 16.2939 62.504 16.3599 62.504 16.3599 62.503 16.3609 62.503 16.3609L62.145 16.4949C62.598 17.0119 62.972 17.6119 63.228 18.2939M39.9247 35.7329L40.1427 35.6509 37.2827 28.0249C37.0267 27.3429 36.9137 26.6449 36.9157 25.9579L36.0217 26.2929 35.8747 26.3479C35.8727 26.3489 35.8707 26.3509 35.8687 26.3509 35.3057 26.5639 34.8467 26.9309 34.5227 27.3869 34.1967 27.8449 34.0077 28.3929 33.9837 28.9599 33.9677 29.3389 34.0267 29.7269 34.1677 30.1039L35.7047 34.1999C35.7047 34.2009 35.7057 34.2019 35.7057 34.2019 35.7697 34.3729 35.8517 34.5309 35.9427 34.6809 35.9707 34.7279 36.0027 34.7709 36.0327 34.8159 36.1027 34.9189 36.1787 35.0169 36.2597 35.1079 36.2977 35.1509 36.3347 35.1919 36.3747 35.2329 36.4687 35.3269 36.5697 35.4129 36.6747 35.4929 36.7057 35.5169 36.7347 35.5429 36.7657 35.5649 36.9037 35.6619 37.0507 35.7459 37.2037 35.8169 37.2407 35.8349 37.2807 35.8469 37.3187 35.8619 37.4377 35.9119 37.5597 35.9549 37.6857 35.9879 37.7397 36.0029 37.7937 36.0149 37.8487 36.0259 37.9677 36.0509 38.0897 36.0669 38.2127 36.0769 38.2637 36.0809 38.3137 36.0869 38.3647 36.0879 38.4887 36.0909 38.6137 36.0799 38.7387 36.0659 38.7977 36.0609 38.8567 36.0609 38.9157 36.0509 39.0977 36.0199 39.2797 35.9749 39.4597 35.9069L39.9247 35.7329z"/>
      <path fill="#AABFF2" d="M41.79,29.6357 C42.541,29.3537 43.386,29.7387 43.667,30.4897 C43.949,31.2397 43.565,32.0847 42.814,32.3667 C42.063,32.6487 41.218,32.2647 40.936,31.5137 C40.655,30.7627 41.039,29.9177 41.79,29.6357 M61.932,25.1967 C61.181,25.4777 60.336,25.0937 60.054,24.3437 C59.772,23.5927 60.156,22.7467 60.907,22.4657 C61.659,22.1837 62.503,22.5677 62.785,23.3187 C63.067,24.0697 62.683,24.9147 61.932,25.1967 M55.3,32.2587 L52.569,33.2827 C49.552,34.4147 46.189,32.8857 45.058,29.8697 L44.546,28.5037 C43.98,26.9957 44.745,25.3147 46.253,24.7487 L54.446,21.6757 C55.955,21.1097 57.636,21.8737 58.202,23.3827 L58.714,24.7477 C59.845,27.7647 58.317,31.1277 55.3,32.2587 M37.283,28.0247 L40.143,35.6507 L40.155,35.6827 L40.355,36.2187 C40.454,36.4797 40.574,36.7257 40.704,36.9637 C40.733,37.0177 40.763,37.0717 40.794,37.1247 C40.929,37.3547 41.074,37.5747 41.236,37.7807 C41.252,37.8007 41.27,37.8197 41.287,37.8397 C42.389,39.1997 44.051,39.9907 45.794,39.9977 C45.809,39.9987 45.822,39.9977 45.836,39.9977 C46.462,39.9957 47.097,39.8937 47.72,39.6777 C47.769,39.6617 47.818,39.6497 47.866,39.6317 L52.553,37.8737 L55.585,36.7367 L60.338,34.9537 L62.888,33.9977 C63.643,33.7147 64.305,33.2907 64.855,32.7677 C65.04,32.5937 65.206,32.4047 65.364,32.2087 C65.402,32.1617 65.439,32.1147 65.476,32.0667 C65.779,31.6677 66.029,31.2327 66.221,30.7717 C66.244,30.7157 66.266,30.6597 66.288,30.6037 C66.465,30.1367 66.582,29.6487 66.635,29.1477 C66.642,29.0867 66.647,29.0257 66.652,28.9637 C66.671,28.7117 66.679,28.4577 66.665,28.2017 L66.665,28.2017 C66.65,27.9477 66.612,27.6937 66.563,27.4387 C66.551,27.3757 66.537,27.3117 66.523,27.2487 C66.465,26.9947 66.396,26.7407 66.302,26.4897 C66.301,26.4887 66.301,26.4877 66.301,26.4867 L66.292,26.4647 L66.088,25.9197 L63.228,18.2937 C62.972,17.6127 62.598,17.0117 62.144,16.4947 C62.144,16.4947 62.144,16.4947 62.144,16.4947 C61.32,15.5577 60.223,14.9147 59.022,14.6487 C58.984,14.6407 58.946,14.6347 58.908,14.6277 C58.755,14.5967 58.601,14.5707 58.444,14.5517 C58.383,14.5447 58.321,14.5407 58.26,14.5347 C58.125,14.5237 57.991,14.5157 57.855,14.5127 C57.799,14.5117 57.742,14.5137 57.686,14.5147 C57.383,14.5187 57.08,14.5427 56.776,14.5957 C56.738,14.6027 56.7,14.6127 56.661,14.6197 C56.345,14.6817 56.029,14.7627 55.717,14.8807 L40.696,20.5137 C40.435,20.6127 40.189,20.7327 39.951,20.8627 C39.898,20.8907 39.845,20.9207 39.792,20.9507 C39.561,21.0857 39.34,21.2327 39.134,21.3947 C39.118,21.4067 39.103,21.4217 39.088,21.4347 C38.89,21.5937 38.706,21.7667 38.532,21.9487 C38.502,21.9797 38.473,22.0097 38.444,22.0407 C38.262,22.2397 38.093,22.4507 37.941,22.6727 C37.934,22.6827 37.927,22.6937 37.92,22.7047 C37.766,22.9327 37.629,23.1707 37.508,23.4167 C37.505,23.4247 37.5,23.4317 37.497,23.4397 C37.121,24.2177 36.919,25.0767 36.916,25.9567 L36.916,25.9577 C36.914,26.6447 37.027,27.3437 37.283,28.0247"/>
      <path fill="#040405" d="M63.4692,46.4521 C62.9202,47.1291 62.6412,47.9861 62.6882,48.8561 L63.7272,68.3971 C63.7552,68.9211 63.5282,69.3981 63.1032,69.7071 C62.6792,70.0151 62.1562,70.0841 61.6652,69.8961 L43.4012,62.8691 C42.5852,62.5541 41.6882,62.5541 40.8742,62.8691 L22.6092,69.8961 C22.1192,70.0841 21.5952,70.0151 21.1712,69.7071 C20.7462,69.3981 20.5192,68.9211 20.5472,68.3981 L21.5862,48.8551 C21.6332,47.9851 21.3542,47.1291 20.8052,46.4521 L8.4782,31.2531 C8.1482,30.8461 8.0512,30.3261 8.2132,29.8271 C8.3752,29.3281 8.7592,28.9641 9.2662,28.8291 L10.3122,28.5491 C11.6082,29.4631 13.1682,30.0001 14.8142,30.0001 C15.1672,30.0001 15.5182,29.9761 15.8672,29.9291 L17.3002,31.9411 C18.0332,32.9721 19.1282,33.7331 20.3802,33.9181 C21.5582,34.0921 22.7142,33.8111 23.6632,33.1361 C24.6402,32.4401 25.2892,31.4051 25.4882,30.2221 C25.5382,29.9261 25.5132,29.5661 25.4482,29.1931 C25.1982,27.7721 25.9362,26.3661 27.2862,25.8591 L27.3412,25.8391 C28.0752,25.5641 28.9072,25.5451 29.6062,25.9011 C30.2312,26.2201 30.9302,26.3931 31.6502,26.3931 C32.5882,26.3931 33.4882,26.1061 34.2532,25.5611 C35.6402,24.5741 36.3112,22.8901 36.0832,21.2681 C37.4932,19.4111 38.0032,17.0181 37.4642,14.7401 C38.8392,13.4191 39.3782,11.3571 38.6672,9.4621 L38.6192,9.3331 L40.8632,5.8721 C41.1482,5.4321 41.6132,5.1801 42.1372,5.1801 C42.6612,5.1801 43.1262,5.4321 43.4112,5.8721 L54.0572,22.2941 C54.5312,23.0251 55.2602,23.5541 56.1012,23.7781 L75.0092,28.8291 C75.5152,28.9641 75.8992,29.3281 76.0612,29.8271 C76.2232,30.3261 76.1272,30.8461 75.7962,31.2531 L63.4692,46.4521 Z M8.4602,23.9071 C8.2802,23.9741 8.0982,24.0201 7.9152,24.0511 C7.8562,24.0601 7.7982,24.0601 7.7392,24.0661 C7.6372,24.0771 7.5362,24.0941 7.4362,24.0941 C7.4122,24.0941 7.3892,24.0891 7.3652,24.0881 C7.3142,24.0871 7.2642,24.0801 7.2132,24.0771 C7.0902,24.0671 6.9682,24.0511 6.8482,24.0261 C6.7932,24.0151 6.7392,24.0031 6.6852,23.9881 C6.5602,23.9551 6.4382,23.9121 6.3192,23.8621 C6.2812,23.8471 6.2412,23.8341 6.2042,23.8171 C6.0512,23.7461 5.9052,23.6621 5.7652,23.5651 C5.7342,23.5431 5.7062,23.5161 5.6752,23.4931 C5.5702,23.4131 5.4692,23.3271 5.3742,23.2321 C5.3352,23.1921 5.2982,23.1511 5.2602,23.1081 C5.1782,23.0161 5.1032,22.9191 5.0332,22.8151 C5.0022,22.7711 4.9702,22.7281 4.9422,22.6811 C4.8512,22.5311 4.7692,22.3731 4.7052,22.2021 C4.7052,22.2021 4.7052,22.2011 4.7042,22.2001 L3.1682,18.1031 C3.0272,17.7261 2.9682,17.3391 2.9842,16.9601 C3.0072,16.3921 3.1972,15.8451 3.5232,15.3871 C3.8472,14.9311 4.3062,14.5631 4.8692,14.3511 L4.8752,14.3481 L5.0222,14.2931 L5.9162,13.9571 L5.9162,13.9571 C5.9192,13.0771 6.1202,12.2181 6.4972,11.4391 C6.5002,11.4321 6.5052,11.4251 6.5082,11.4171 C6.6292,11.1701 6.7662,10.9321 6.9202,10.7041 C6.9272,10.6941 6.9332,10.6821 6.9412,10.6721 C7.0932,10.4511 7.2612,10.2401 7.4442,10.0411 C7.4722,10.0101 7.5022,9.9791 7.5312,9.9491 C7.7052,9.7671 7.8892,9.5941 8.0882,9.4341 C8.1032,9.4221 8.1172,9.4071 8.1342,9.3951 C8.3402,9.2321 8.5612,9.0861 8.7922,8.9511 C8.8442,8.9201 8.8972,8.8911 8.9512,8.8621 C9.1892,8.7321 9.4352,8.6121 9.6962,8.5141 L24.7172,2.8801 C25.0292,2.7631 25.3442,2.6811 25.6612,2.6201 C25.6992,2.6131 25.7382,2.6021 25.7762,2.5961 C26.0802,2.5431 26.3832,2.5181 26.6852,2.5141 C26.7102,2.5141 26.7352,2.5081 26.7592,2.5081 C26.7912,2.5081 26.8232,2.5131 26.8552,2.5131 C26.9902,2.5151 27.1252,2.5231 27.2602,2.5351 C27.3212,2.5401 27.3832,2.5441 27.4442,2.5521 C27.6002,2.5701 27.7552,2.5971 27.9082,2.6271 C27.9462,2.6351 27.9842,2.6401 28.0222,2.6491 C29.2222,2.9151 30.3202,3.5581 31.1442,4.4941 C31.1442,4.4951 31.1442,4.4951 31.1442,4.4951 L31.5032,4.3611 L31.5042,4.3611 C31.6832,4.2931 31.8642,4.2481 32.0472,4.2171 C32.1072,4.2071 32.1662,4.2071 32.2272,4.2011 C32.3272,4.1901 32.4272,4.1741 32.5272,4.1741 C32.5512,4.1741 32.5732,4.1791 32.5972,4.1801 C32.6492,4.1811 32.6992,4.1871 32.7512,4.1911 C32.8732,4.2011 32.9942,4.2171 33.1142,4.2421 C33.1692,4.2531 33.2232,4.2651 33.2782,4.2801 C33.4032,4.3131 33.5242,4.3551 33.6432,4.4051 C33.6812,4.4211 33.7212,4.4331 33.7592,4.4511 C33.9112,4.5221 34.0582,4.6061 34.1972,4.7021 C34.2292,4.7251 34.2582,4.7521 34.2892,4.7761 C34.3942,4.8561 34.4942,4.9411 34.5882,5.0351 C34.6282,5.0751 34.6652,5.1171 34.7032,5.1601 C34.7842,5.2521 34.8602,5.3491 34.9292,5.4521 C34.9602,5.4971 34.9922,5.5391 35.0202,5.5861 C35.1122,5.7381 35.1942,5.8961 35.2582,6.0671 L36.7952,10.1641 C37.0072,10.7301 37.0322,11.3201 36.9012,11.8661 C36.8142,12.2301 36.6572,12.5751 36.4402,12.8801 C36.1152,13.3381 35.6542,13.7071 35.0882,13.9201 L35.2922,14.4641 L35.3012,14.4871 C35.3012,14.4881 35.3012,14.4891 35.3022,14.4901 C35.3962,14.7411 35.4652,14.9941 35.5232,15.2491 C35.5372,15.3121 35.5502,15.3751 35.5632,15.4391 C35.6122,15.6931 35.6502,15.9481 35.6642,16.2021 L35.6642,16.2021 C35.6792,16.4581 35.6712,16.7111 35.6522,16.9631 C35.6472,17.0251 35.6422,17.0861 35.6352,17.1481 C35.5822,17.6481 35.4652,18.1371 35.2872,18.6031 C35.2662,18.6601 35.2432,18.7161 35.2202,18.7711 C35.0292,19.2321 34.7792,19.6671 34.4762,20.0671 C34.4392,20.1151 34.4022,20.1621 34.3642,20.2091 C34.2062,20.4041 34.0392,20.5941 33.8552,20.7681 L33.8562,20.7681 C33.9232,20.8991 33.9752,21.0321 34.0182,21.1681 C34.0212,21.1781 34.0242,21.1861 34.0272,21.1961 C34.0652,21.3241 34.0922,21.4531 34.1082,21.5841 C34.1112,21.6061 34.1142,21.6271 34.1162,21.6481 C34.1282,21.7691 34.1322,21.8891 34.1272,22.0091 C34.1262,22.0451 34.1222,22.0801 34.1192,22.1161 C34.1102,22.2231 34.0962,22.3281 34.0732,22.4331 C34.0622,22.4851 34.0472,22.5351 34.0322,22.5861 C34.0072,22.6761 33.9812,22.7641 33.9462,22.8501 C33.9182,22.9161 33.8842,22.9791 33.8512,23.0441 C33.8152,23.1131 33.7822,23.1821 33.7402,23.2481 C33.6892,23.3281 33.6282,23.4011 33.5672,23.4751 C33.5292,23.5211 33.4972,23.5701 33.4562,23.6141 C33.3472,23.7291 33.2272,23.8361 33.0932,23.9311 C32.9652,24.0231 32.8302,24.0961 32.6932,24.1601 C32.6512,24.1791 32.6092,24.1941 32.5662,24.2111 C32.4672,24.2501 32.3672,24.2841 32.2652,24.3101 C32.2172,24.3221 32.1702,24.3331 32.1222,24.3431 C32.0132,24.3641 31.9052,24.3761 31.7952,24.3831 C31.7582,24.3851 31.7212,24.3901 31.6852,24.3911 C31.6732,24.3911 31.6612,24.3931 31.6502,24.3931 C31.6132,24.3931 31.5762,24.3821 31.5382,24.3811 C31.4052,24.3741 31.2732,24.3611 31.1432,24.3341 C31.0812,24.3221 31.0222,24.3031 30.9612,24.2851 C30.8472,24.2531 30.7362,24.2131 30.6272,24.1631 C30.5672,24.1371 30.5092,24.1091 30.4512,24.0781 C30.3422,24.0181 30.2392,23.9471 30.1382,23.8701 C30.0922,23.8341 30.0442,23.8031 29.9992,23.7641 C29.8602,23.6401 29.7302,23.5041 29.6182,23.3471 L29.5772,23.2901 L29.3382,22.9541 L24.5852,24.7371 L24.5862,24.7371 L21.5532,25.8741 L23.0892,28.0311 C23.4882,28.5921 23.6212,29.2611 23.5162,29.8901 C23.4892,30.0471 23.4482,30.2021 23.3922,30.3511 C23.2232,30.8011 22.9242,31.2071 22.5032,31.5061 C22.5032,31.5071 22.5022,31.5071 22.5012,31.5071 C22.3742,31.5981 22.2402,31.6701 22.1042,31.7341 C22.0622,31.7531 22.0182,31.7681 21.9752,31.7851 C21.8772,31.8251 21.7772,31.8581 21.6762,31.8841 C21.6282,31.8961 21.5812,31.9081 21.5322,31.9171 C21.4242,31.9381 21.3152,31.9511 21.2052,31.9571 C21.1692,31.9591 21.1322,31.9651 21.0952,31.9661 C21.0842,31.9661 21.0722,31.9681 21.0602,31.9681 C21.0232,31.9681 20.9862,31.9571 20.9482,31.9551 C20.8162,31.9491 20.6842,31.9361 20.5532,31.9091 C20.4912,31.8961 20.4322,31.8771 20.3712,31.8601 C20.2572,31.8271 20.1462,31.7871 20.0372,31.7381 C19.9782,31.7111 19.9202,31.6841 19.8622,31.6521 C19.7532,31.5921 19.6502,31.5211 19.5492,31.4441 C19.5032,31.4091 19.4542,31.3771 19.4102,31.3381 C19.2712,31.2151 19.1412,31.0791 19.0292,30.9211 L18.0692,29.5731 L16.7202,27.6781 C16.0972,27.8931 15.4622,27.9961 14.8362,27.9981 C14.8282,27.9981 14.8212,28.0001 14.8142,28.0001 C14.8072,28.0001 14.8012,27.9981 14.7942,27.9981 C13.0512,27.9911 11.3882,27.2001 10.2862,25.8391 C10.2702,25.8191 10.2522,25.8011 10.2362,25.7811 C10.0742,25.5751 9.9282,25.3541 9.7942,25.1241 C9.7622,25.0721 9.7332,25.0181 9.7032,24.9641 C9.5732,24.7251 9.4532,24.4791 9.3552,24.2181 L9.1552,23.6831 L9.1422,23.6511 L8.9252,23.7331 L8.4602,23.9071 Z M77.2722,32.6081 C77.8602,31.8841 78.2072,30.9661 78.1292,30.0361 C78.0002,28.4981 76.9482,27.2771 75.5252,26.8961 L56.6172,21.8471 C56.2542,21.7491 55.9402,21.5211 55.7352,21.2051 L45.0892,4.7841 C44.7112,4.2001 44.1702,3.7751 43.5572,3.5031 C43.1152,3.3061 42.6382,3.1801 42.1372,3.1801 C41.6942,3.1801 41.2742,3.2861 40.8752,3.4411 C40.1962,3.7031 39.5952,4.1511 39.1852,4.7841 C38.5782,5.7201 37.1792,5.6431 36.6822,4.6451 C36.5142,4.3061 36.3642,4.0341 36.2672,3.9211 C35.7432,3.3061 35.0772,2.8331 34.3292,2.5351 C33.7632,2.3091 33.1572,2.1741 32.5272,2.1741 C32.2412,2.1741 31.9592,2.1991 31.6802,2.2481 C31.1562,1.8251 30.5822,1.4741 29.9742,1.2001 C29.1712,0.8381 28.3072,0.6121 27.4182,0.5361 C27.1992,0.5181 26.9802,0.5081 26.7592,0.5081 C25.8252,0.5081 24.8992,0.6761 24.0242,1.0041 L12.0002,5.5141 L10.0002,6.2641 L8.9932,6.6411 C8.7192,6.7441 8.4572,6.8691 8.2002,7.0011 C7.2792,7.4711 6.4712,8.1131 5.8142,8.8821 C4.9312,9.9141 4.3132,11.1661 4.0542,12.5211 C2.6712,13.0801 1.6252,14.2191 1.1812,15.6871 C0.8572,16.7631 0.9652,17.9241 1.3592,18.9761 L2.7532,22.6931 C3.2002,23.8861 4.0482,24.8991 5.1282,25.5001 C6.3402,26.1741 6.9172,27.6761 6.4212,28.9701 C6.4172,28.9801 6.4132,28.9901 6.4092,29.0001 C6.3802,29.0721 6.3352,29.1351 6.3112,29.2091 C6.1192,29.8001 6.0952,30.4141 6.2162,31.0001 C6.3272,31.5441 6.5612,32.0651 6.9252,32.5131 L10.0002,36.3041 L12.0002,38.7701 L19.2522,47.7121 C19.4892,48.0041 19.6092,48.3731 19.5892,48.7491 L18.5502,68.2911 C18.5322,68.6221 18.5712,68.9451 18.6422,69.2591 C18.8022,69.9641 19.1872,70.5911 19.7342,71.0801 C19.8232,71.1601 19.8972,71.2531 19.9952,71.3251 C20.6072,71.7691 21.3292,71.9981 22.0602,71.9981 C22.4872,71.9981 22.9162,71.9211 23.3272,71.7621 L41.5922,64.7351 C41.9442,64.6001 42.3302,64.6001 42.6822,64.7351 L60.9472,71.7621 C62.3232,72.2931 63.8952,71.9211 64.9032,70.7491 C65.5112,70.0411 65.7672,69.0941 65.7182,68.1621 L64.6852,48.7491 C64.6652,48.3741 64.7852,48.0041 65.0222,47.7131 L77.2722,32.6081 Z" transform="translate(31 12)"/>
      <path fill="#040405" d="M61.9316 25.1963C62.6826 24.9153 63.0666 24.0703 62.7856 23.3193 62.5036 22.5683 61.6586 22.1833 60.9076 22.4653 60.1566 22.7473 59.7726 23.5923 60.0546 24.3433 60.3356 25.0943 61.1806 25.4783 61.9316 25.1963M42.8139 32.3672C43.5649 32.0852 43.9489 31.2402 43.6679 30.4892 43.3859 29.7382 42.5409 29.3542 41.7899 29.6362 41.0389 29.9172 40.6549 30.7632 40.9369 31.5132 41.2179 32.2642 42.0629 32.6482 42.8139 32.3672"/>
      <path fill="#CBDAF7" d="M55.8974,29.6982 L54.5314,30.2102 C54.1544,30.3522 53.7344,30.1602 53.5934,29.7832 C53.4514,29.4062 53.6424,28.9862 54.0194,28.8442 L55.3854,28.3322 C55.7624,28.1912 56.1824,28.3822 56.3244,28.7592 C56.4654,29.1362 56.2744,29.5562 55.8974,29.6982 L55.8974,29.6982 Z M51.6304,31.2992 L50.2644,31.8112 C49.8874,31.9522 49.4674,31.7612 49.3254,31.3842 C49.1844,31.0072 49.3754,30.5872 49.7524,30.4452 L51.1184,29.9332 C51.4954,29.7922 51.9154,29.9832 52.0564,30.3602 C52.1984,30.7372 52.0074,31.1572 51.6304,31.2992 L51.6304,31.2992 Z M58.2014,23.3822 C57.6354,21.8742 55.9544,21.1102 54.4464,21.6762 L46.2524,24.7482 C44.7444,25.3142 43.9804,26.9952 44.5454,28.5042 L45.0584,29.8692 C46.1894,32.8862 49.5524,34.4142 52.5694,33.2832 L55.3004,32.2592 C58.3164,31.1272 59.8454,27.7642 58.7134,24.7482 L58.2014,23.3822 Z"/>
      <path fill="#AABFF2" d="M55.3852 28.3325L54.0192 28.8445C53.6422 28.9865 53.4512 29.4065 53.5932 29.7835 53.7342 30.1605 54.1552 30.3525 54.5312 30.2105L55.8972 29.6985C56.2742 29.5565 56.4662 29.1365 56.3242 28.7595 56.1822 28.3825 55.7622 28.1915 55.3852 28.3325M51.1181 29.9331L49.7521 30.4451C49.3751 30.5871 49.1841 31.0071 49.3261 31.3841 49.4671 31.7611 49.8881 31.9521 50.2641 31.8111L51.6301 31.2991C52.0071 31.1571 52.1981 30.7371 52.0561 30.3601 51.9151 29.9831 51.4951 29.7921 51.1181 29.9331"/>
      <path fill="#B9BBBE" d="M95.2573 15.001C95.1473 15.001 95.0373 14.965 94.9453 14.891 94.7293 14.718 94.6953 14.403 94.8683 14.188L95.7993 13.029C95.9723 12.814 96.2873 12.78 96.5023 12.953 96.7173 13.126 96.7513 13.44 96.5783 13.655L95.6473 14.814C95.5493 14.937 95.4033 15.001 95.2573 15.001M90.5712 19.8423C90.4612 19.8423 90.3512 19.8063 90.2592 19.7323 90.0432 19.5593 90.0092 19.2443 90.1822 19.0293L91.1132 17.8703C91.2862 17.6553 91.6012 17.6213 91.8162 17.7943 92.0312 17.9673 92.0652 18.2813 91.8922 18.4963L90.9612 19.6553C90.8632 19.7783 90.7172 19.8423 90.5712 19.8423M96.3803 19.6953C96.2443 19.6953 96.1083 19.6403 96.0093 19.5303L95.0043 18.4213C94.8183 18.2163 94.8343 17.9003 95.0393 17.7153 95.2443 17.5293 95.5603 17.5443 95.7453 17.7503L96.7513 18.8603C96.9363 19.0643 96.9213 19.3803 96.7153 19.5663 96.6203 19.6523 96.5003 19.6953 96.3803 19.6953M91.3857 15.0991C91.2497 15.0991 91.1137 15.0441 91.0147 14.9341L90.0097 13.8251C89.8237 13.6201 89.8397 13.3041 90.0447 13.1191 90.2497 12.9331 90.5647 12.9491 90.7507 13.1541L91.7567 14.2641C91.9417 14.4681 91.9267 14.7841 91.7207 14.9701 91.6257 15.0561 91.5057 15.0991 91.3857 15.0991"/>
    </g>
    <rect width="140" height="96"/>
  </g>
</svg>
