<svg fill="none" height="128" viewBox="0 0 271 128" width="271" xmlns="http://www.w3.org/2000/svg" xmlns:xlink="http://www.w3.org/1999/xlink"><clipPath id="a"><path d="m0 0h270.557v128h-270.557z"/></clipPath><g clip-path="url(#a)"><path d="m270.557 102.978v25.022h-270.5569898v-6.531c-.00258802-2.496.4871548-4.968 1.4411898-7.275.95404-2.306 2.35364-4.402 4.11868-6.167 1.76505-1.765 3.86087-3.165 6.16752-4.119 2.3066-.954 4.7788-1.444 7.2749-1.441h3.7965c1.0069 0 1.9726-.4 2.6846-1.112s1.112-1.6777 1.112-2.6846v-10.1503c.0208-10.1457 4.0685-19.8681 11.2536-27.0311 7.1852-7.163 16.92-11.1807 27.0657-11.1702h8.1832c4.7451.005 9.3645-1.5248 13.1686-4.3611 3.8041-2.8362 6.5888-6.8268 7.9385-11.3758 1.3525-4.5474 4.138-8.5362 7.941-11.372 3.804-2.8357 8.422-4.3668 13.166-4.3649h72.134c2.495-.0156 4.968.4607 7.278 1.4016 2.31.9408 4.413 2.3278 6.186 4.0816 1.774 1.7539 3.185 3.8402 4.152 6.1396.968 2.2994 1.472 4.7669 1.485 7.2615v17.3499h16.307c12.676.0313 24.821 5.0941 33.766 14.0758s13.958 21.1474 13.937 33.823z" fill="#aec7fc" opacity=".2"/><path d="m154.34 120.092h-50.28c-1.108 0-2.006.899-2.006 2.007s.898 2.006 2.006 2.006h50.28c1.108 0 2.006-.898 2.006-2.006s-.898-2.007-2.006-2.007z" fill="#36393f"/><path d="m129.18 68.8489-15.737 15.7369v22.0312l15.737 15.737 15.737-15.737v-22.1886zm7.869 34.4441-7.869 7.868-7.868-7.868v-15.6189l7.868-7.8684 7.869 7.8684z" fill="#fa6ef6"/><path d="m121.371 103.234-7.829 3.226 15.638 15.639v-11.056z" fill="#e655d4"/><path d="m121.371 87.6743v15.5597l7.809 7.81 7.829-7.81v-15.5597l-7.829-7.8291z" fill="#ffcff9"/><path d="m129.22 95.4443-7.81 7.8287-.039-.039v-4.2096l5.685-5.6849z" fill="#fff"/><path d="m132.127 98.4072-7.769 7.8098 2.161 2.15 7.769-7.809z" fill="#fff"/><g fill="#d4e4ff"><path d="m64.9148 33.067c-.7171 0-1.2983.5812-1.2983 1.2983 0 .717.5812 1.2983 1.2983 1.2983h1.2786c.717 0 1.2983-.5813 1.2983-1.2983 0-.7171-.5813-1.2983-1.2983-1.2983z"/><path d="m54.548 33.0868c-.717 0-1.2982.5812-1.2982 1.2983 0 .717.5812 1.2982 1.2982 1.2982h1.2787c.717 0 1.2983-.5812 1.2983-1.2982 0-.7171-.5813-1.2983-1.2983-1.2983z"/><path d="m59.0724 29.8411c0 .717.5812 1.2983 1.2983 1.2983.717 0 1.2982-.5813 1.2982-1.2983v-1.2786c0-.717-.5812-1.2983-1.2982-1.2983-.7171 0-1.2983.5813-1.2983 1.2983z"/><path d="m59.0724 40.2079c0 .7171.5812 1.2983 1.2983 1.2983.717 0 1.2982-.5812 1.2982-1.2983v-1.2786c0-.717-.5812-1.2983-1.2982-1.2983-.7171 0-1.2983.5813-1.2983 1.2983z"/></g><path d="m224.802 38.3785c-.739 0-1.338.5944-1.338 1.3278 0 .7333.599 1.3278 1.338 1.3278h1.317c.739 0 1.338-.5945 1.338-1.3278 0-.7334-.599-1.3278-1.338-1.3278z" fill="#3e70dd"/><path d="m214.159 38.3785c-.738 0-1.337.5944-1.337 1.3277 0 .7334.599 1.3279 1.337 1.3279h1.318c.739 0 1.338-.5945 1.338-1.3279 0-.7333-.599-1.3277-1.338-1.3277z" fill="#3e70dd"/><path d="m218.821 35.054c0 .7387.595 1.3376 1.328 1.3376.734 0 1.328-.5989 1.328-1.3376v-1.318c0-.7388-.594-1.3376-1.328-1.3376-.733 0-1.328.5988-1.328 1.3376z" fill="#3e70dd"/><path d="m218.821 45.6959c0 .7388.595 1.3377 1.328 1.3377.734 0 1.328-.5989 1.328-1.3377v-1.3179c0-.7388-.594-1.3377-1.328-1.3377-.733 0-1.328.5989-1.328 1.3377z" fill="#3e70dd"/><path d="m95.5624 70.816-4.5833 2.2032c-.2348.1154-.4996.1549-.7577.1129-.2582-.042-.4969-.1634-.6829-.3473-.186-.1838-.3102-.421-.3552-.6787-.045-.2576-.0086-.5229.104-.759l2.2229-4.603c.0778-.1697.118-.3543.118-.541s-.0402-.3712-.118-.5409l-2.2229-4.6817c-.1126-.2361-.149-.5014-.104-.759.045-.2577.1692-.4949.3552-.6788.186-.1838.4247-.3052.6829-.3472.2581-.042.5229-.0025.7577.1129l4.5833 2.2032c.1703.0879.3592.1339.5508.1339.1917 0 .3805-.046.5508-.1339l4.583-2.2032c.235-.1154.5-.1549.758-.1129s.497.1634.683.3472c.186.1839.31.4211.355.6788.045.2576.009.5229-.104.759l-2.223 4.5833c-.078.1698-.118.3543-.118.541s.04.3712.118.5409l2.223 4.6031c.113.236.149.5013.104.759-.045.2576-.169.4948-.355.6787s-.425.3052-.683.3472-.523.0025-.758-.1129l-4.583-2.1048c-.1703-.088-.3591-.1339-.5508-.1339-.1916 0-.3805.0459-.5508.1339z" fill="#aec7ff"/><path d="m203.439 68.7308h8.478l13.711 13.7108-5.193 5.2129z" fill="#fff"/><path d="m206.381 70.0956 15.801 15.8013-13.548 13.548-18.903-18.9032 10.46-10.46c.407-.4067.89-.729 1.421-.9485.532-.2195 1.102-.3318 1.677-.3306.575.0013 1.144.1162 1.675.3381.53.2219 1.012.5464 1.417.9549z" fill="#fff"/><path d="m225.618 82.4311c1.414 1.4135 3.702 1.4166 5.112.0069 1.41-1.4096 1.407-3.6982-.007-5.1117l-13.659-13.6593c-1.414-1.4134-3.702-1.4166-5.112-.0069-1.41 1.4096-1.406 3.6983.007 5.1118z" fill="#fff"/><path d="m224.9 83.1694.728-.7278-13.711-13.7108h-1.436z" fill="#d4e4ff"/><path d="m197.242 73.0584 3.108-3.108c.386-.3902.846-.6999 1.352-.9113.507-.2114 1.05-.3202 1.599-.3202s1.092.1088 1.599.3202c.506.2114.966.5211 1.352.9113l9.245 9.2454-.924.9246c-1.936 1.9279-4.557 3.0104-7.289 3.0104-2.731 0-5.352-1.0825-7.288-3.0104l-2.734-2.7343c-.574-.5742-.899-1.3516-.905-2.1638 0-.8094.318-1.5865.885-2.1639z" fill="#fff"/><path d="m219.53 83.0908c.537 1.0513.728 2.2458.544 3.4121-.184 1.1662-.732 2.2443-1.567 3.0794l-3.679 3.6588-13.986-13.9861 1.436-1.436c1.363 1.3639 3.081 2.3176 4.959 2.7523 1.878.4348 3.841.3331 5.664-.2934 1.258-.4091 2.622-.3497 3.84.1672 1.218.5168 2.209 1.4565 2.789 2.6457z" fill="#aec7ff"/><path d="m220.466 98.8622-80.453-80.453-5.467 5.4664 80.454 80.4534z" fill="#ff9a15"/><path d="m191.611 78.677-4.966 4.9657c-1.306 1.3059-1.309 3.4202-.007 4.7223s3.417 1.299 4.722-.0069l4.966-4.9658c1.306-1.3059 1.309-3.4202.007-4.7223s-3.416-1.299-4.722.007z" fill="#d4e4ff"/><path d="m196.345 83.3972-2.81 2.8097c-1.313 1.3136-1.313 3.4435 0 4.7571l9.403 9.403c1.314 1.314 3.444 1.314 4.757 0l2.81-2.8099c1.314-1.3136 1.314-3.4434 0-4.757l-9.403-9.4029c-1.314-1.3136-3.443-1.3137-4.757 0z" fill="#d4e4ff"/><path d="m202.436 74.3567v8.2619c0 .8608-.342 1.6864-.951 2.2951-.609.6086-1.434.9506-2.295.9506s-1.687-.342-2.295-.9506c-.609-.6087-.951-1.4343-.951-2.2951v-8.2619l3.246-3.2457z" fill="#fff"/><path d="m179.304 36.8785-26.692-26.6925-26.317 26.317 26.692 26.6925z" fill="#18191c"/><path d="m179.296 36.858-8.972-8.9716-26.317 26.3169 8.972 8.9717z" fill="#060607"/><path d="m159.929 17.4849-4.924-4.924-26.317 26.3169 4.924 4.924z" fill="#2e3338"/><path d="m156.209 21.1929-4.924-4.924-9.444 9.4446 4.924 4.924z" fill="#747f8d"/><path d="m189.499 31.9212-31.909-31.9086268-4.965 4.9657168 31.908 31.90861z" fill="#18191c"/><path d="m152.988 68.3972-31.909-31.9086-4.965 4.9658 31.908 31.9086z" fill="#18191c"/><path d="m179.302 36.8834-26.693-26.6937v-5.21289l31.906 31.90659z" fill="#23262a"/><path d="m153.002 63.1837-26.713-26.6937h-5.194l31.907 31.9066z" fill="#23262a"/><path d="m164.893 7.31413-4.924-4.92399-4.966 4.96572 4.924 4.92404z" fill="#2e3338"/><path d="m128.401 43.818-4.924-4.924-4.966 4.9658 4.924 4.924z" fill="#2e3338"/><path d="m159.926 17.4876v-5.2129l-4.917-4.91777v5.21287z" fill="#4f545c"/><path d="m133.606 43.8077h-5.213l-4.917-4.9178h5.212z" fill="#4f545c"/><path d="m170.332 27.8935h5.193l4.977-4.9768 8.99 8.9898-4.977 4.9767h-5.213z" fill="#060607"/><path d="m170.332 27.8936 8.97 8.9897h5.213l-8.99-8.9897z" fill="#18191c"/><path d="m144.012 54.2136v5.2129l-4.977 4.9571 8.99 8.9897 4.977-4.9768v-5.2128z" fill="#060607"/><path d="m144.012 54.2136 8.99 8.9701v5.2128l-8.99-8.97z" fill="#18191c"/><path d="m144.819 106.46-7.81-3.226v-15.5598l-7.829-7.8291-7.809 7.8291-7.829-3.2457 15.638-15.6386 15.639 15.6386z" fill="#e655d4"/><path d="m137.009 103.234-15.638-15.5597 7.809-7.8291 7.829 7.8291z" fill="#ffadfb"/></g></svg>