<svg xmlns="http://www.w3.org/2000/svg" viewBox="0 0 309.66 214.5"><path fill="#7289da" d="M290.96 22.94V3.5h-9.29v19.44h-18.69v8.96h18.69v19.6h9.29V31.9h18.69v-8.96h-18.69zM128.5 214.5c-12.61 0-36.09 0-51.84-7.36A16.86 16.86 0 0167 191.92v-12a16.74 16.74 0 0110.45-15.56L116 148.65v-5.93c-24.73-10-28.5-40.55-28.5-58.22C87.5 41.11 110.07 32 129 32s41.5 9.11 41.5 52.5c0 40.75-17.14 54.25-29 58.71v5.45l38.05 15.72A16.75 16.75 0 01190 179.94v12a16.85 16.85 0 01-9.67 15.22c-15.74 7.34-39.22 7.34-51.83 7.34zM129 39c-23.21 0-34.5 14.88-34.5 45.5 0 36.17 14.2 48.49 26.11 52.46l2.39.79v15.6l-42.9 17.51a9.77 9.77 0 00-6.1 9.08v12a9.82 9.82 0 005.63 8.87c14.33 6.71 36.8 6.71 48.87 6.71s34.54 0 48.87-6.71a9.82 9.82 0 005.63-8.87v-12a9.77 9.77 0 00-6.1-9.08l-42.4-17.52v-15.26l2.51-.74c23.05-6.8 26.49-36 26.49-52.84 0-30.62-11.29-45.5-34.5-45.5z"/><g opacity=".5" fill="#7289da"><path d="M245.55 132.38l-38.05-15.72v-5.45c11.86-4.46 29-18 29-58.71C236.5 9.11 213.93 0 195 0c-15.28 0-32.93 6-39.17 31.07a41.12 41.12 0 016.08 4.7C165.59 16.46 176.51 7 195 7c23.21 0 34.5 14.88 34.5 45.5 0 16.81-3.44 46-26.49 52.84l-2.51.74v15.26l42.39 17.52a9.77 9.77 0 016.1 9.08v12a9.82 9.82 0 01-5.63 8.87c-13.19 6.17-33.26 6.67-45.78 6.71a25 25 0 01.41 4.44v2.55c13.11-.05 33.95-.63 48.33-7.35a16.85 16.85 0 009.68-15.24v-12a16.75 16.75 0 00-10.45-15.54z"/><path d="M177.53 100.2c-.31 2.49-.72 5-1.24 7.61a37.29 37.29 0 005.71 2.91v5.93l-9.28 3.78a63.23 63.23 0 01-4.34 9.34l20.62-8.42v-15.6l-2.39-.79a31.68 31.68 0 01-9.08-4.76z"/></g><g opacity=".5" fill="#7289da"><path d="M67.5 106.08v15.26l23.07 9.53a60.3 60.3 0 01-4.86-9.58l-11.21-4.63v-5.45a36.26 36.26 0 007.15-3.63q-.75-3.64-1.25-7.71a29.38 29.38 0 01-10.4 5.47z"/><path d="M59 179.94a25.11 25.11 0 01.41-4.44c-12.43 0-33.24-.37-46.78-6.71A9.82 9.82 0 017 159.92v-12a9.77 9.77 0 016.1-9.08L56 121.35v-15.6l-2.39-.75C41.7 101 27.5 88.67 27.5 52.5 27.5 21.88 38.79 7 62 7c18.75 0 29.72 9.72 33.24 29.59.12-.12.24-.26.37-.38a40.84 40.84 0 015.7-4.58C95.2 6 77.4 0 62 0 43.07 0 20.5 9.11 20.5 52.5c0 17.67 3.77 48.22 28.5 58.22v5.93l-38.55 15.73A16.74 16.74 0 000 147.94v12a16.86 16.86 0 009.66 15.22C24.42 182 46 182.47 59 182.5z"/></g></svg>