<svg height="24" viewBox="0 0 24 24" width="24" xmlns="http://www.w3.org/2000/svg"><g fill="none" fill-rule="evenodd"><path d="m21 10.5826987c-.9264314-.3756732-1.9390996-.5826987-3-.5826987-1.4033898 0-2.723856.3628371-3.8720177 1h-7.1279823v2h4.7574567c-.4827629.6015805-.8804968 1.2743353-1.174758 2h-3.5826987v2h3.0620401c-.0409439.3275942-.0620401.6613397-.0620401 1 0 1.0601671.2070636 2.0730114.5830326 3h-5.5830326c-1.1045695 0-2-.8954305-2-2v-14c0-1.11.89-2 2-2h14c1.1 0 2 .89 2 2zm-4-1.5826987v-2h-10v2z" fill="#4f545c" fill-rule="nonzero" opacity=".6"/><path d="m0 0h24v24h-24z"/></g></svg>