<svg viewBox="0 0 256 192" xmlns="http://www.w3.org/2000/svg" xmlns:xlink="http://www.w3.org/1999/xlink"><linearGradient id="a" gradientUnits="userSpaceOnUse" x1="205.82" x2="227.75" y1="9.57" y2="50.94"><stop offset=".2" stop-color="#4e1ceb"/><stop offset=".27" stop-color="#551ee7"/><stop offset=".37" stop-color="#6a24db"/><stop offset=".49" stop-color="#8b2ec8"/><stop offset=".63" stop-color="#b93bae"/><stop offset=".78" stop-color="#f44c8d"/><stop offset=".79" stop-color="#fa4e89"/></linearGradient><linearGradient id="b" gradientUnits="userSpaceOnUse" x1="94.46" x2="66.79" y1="177.78" y2="148.62"><stop offset=".16" stop-color="#4e1ceb"/><stop offset=".55" stop-color="#c33ea9"/><stop offset=".75" stop-color="#fa4e89"/></linearGradient><path d="m0 0h256v192h-256z" fill="#00e0a7"/><path d="m256 47.6v-4a23.8 23.8 0 0 0 -12 3.71 9.58 9.58 0 0 0 -4.75-1.06 10.41 10.41 0 0 0 -9.59 7.75 17.88 17.88 0 0 0 -.5 5.35v6 14.8c0 2.58 4 2.58 4 0 0-7 .16-14 0-21a13.49 13.49 0 0 1 .24-3.66c.79-3.2 3.34-5.53 6.76-5.25h.26a13.34 13.34 0 0 0 -2 2.8 8.74 8.74 0 0 0 -.8 6.9 6 6 0 0 0 5.3 4.2c5.07 0 6.87-6.52 6-10.54a9.3 9.3 0 0 0 -1.67-3.6 19.68 19.68 0 0 1 2.75-1.22 20.42 20.42 0 0 1 6-1.18zm-10.82 9.06c-.1 1-.78 3.33-2.06 3.52-1.49.23-2-2.12-1.86-3.15a8 8 0 0 1 2.74-4.73 6.06 6.06 0 0 1 1.18 4.36z"/><path d="m47 52-47 25v57h51z" fill="#ebf0f7"/><path d="m41.5 42.5h127v96h-127z" fill="#eee0f8"/><path d="m62.5 52h97.5v77h-97.5z"/><path d="m50.03 90h120.93v4h-120.93z" fill="#fa4e89" transform="matrix(.86828541 -.49606497 .49606497 .86828541 -31.09 66.94)"/><path d="m73.5 96.5s18-4 17-30c0 0 22.5 17.5 40-5 0 0-4.5 25.5 22.5 27.5 0 0-31.5 5.5-24 26 0 0-20-19-36.5 5.5 0 0 9.5-23.5-19-24z" fill="#fa4e89"/><path d="m53.5 42.5v96h115v-96zm106.5 86.5h-97.5v-77h97.5z" fill="#fff"/><g stroke="#ebf0f7" stroke-miterlimit="10" stroke-width="3"><path d="m33.29 14.63a5.57 5.57 0 0 0 -7.87 0l-.67.67-.67-.67a5.56 5.56 0 0 0 -7.86 0 5.56 5.56 0 0 0 0 7.86l8.51 8.51 8.51-8.51a5.56 5.56 0 0 0 .05-7.86z" fill="#fa4e89"/><path d="m59.31 14.63a5.57 5.57 0 0 0 -7.87 0l-.67.67-.67-.67a5.56 5.56 0 0 0 -7.86 0 5.56 5.56 0 0 0 0 7.86l8.5 8.51 8.51-8.51a5.56 5.56 0 0 0 .06-7.86z" fill="#fa4e89"/><path d="m85.32 14.63a5.56 5.56 0 0 0 -7.86 0l-.67.67-.67-.67a5.57 5.57 0 0 0 -7.87 0 5.56 5.56 0 0 0 0 7.86l8.51 8.51 8.5-8.51a5.56 5.56 0 0 0 .06-7.86z" fill="none"/></g><path d="m198 192 58-.5v-103h-59.5l-57 31v72.5z" fill="#776bff"/><ellipse cx="201" cy="123.61" fill="#6045ff" rx="26" ry="17.52"/><path d="m191 76.5h65a0 0 0 0 1 0 0v56a0 0 0 0 1 0 0h-65a10 10 0 0 1 -10-10v-36a10 10 0 0 1 10-10z" fill="#eb33ff"/><path d="m191 76.5h65a0 0 0 0 1 0 0v41a0 0 0 0 1 0 0h-75a0 0 0 0 1 0 0v-31a10 10 0 0 1 10-10z" fill="#ff87ff"/><ellipse cx="214.9" cy="97.78" rx="15.59" ry="11.22"/><path d="m256 192v-59.33l-57.5 35.83v23.5z" fill="#4e1ceb"/><path d="m198.5 192v-23.5l-59-49v72.5z" fill="#6045ff"/><path d="m190.59 64.73h53.61a0 0 0 0 1 0 0v10a0 0 0 0 1 0 0h-53.61a5 5 0 0 1 -5-5 5 5 0 0 1 5-5z" fill="#ffd01a" transform="matrix(0 -1 1 0 145.18 284.62)"/><path d="m190.59 64.73h53.61a0 0 0 0 1 0 0v10a0 0 0 0 1 0 0h-53.61a5 5 0 0 1 -5-5 5 5 0 0 1 5-5z" fill="#fa4e89" transform="matrix(0 -1 1 0 145.18 284.62)"/><circle cx="190.75" cy="124.75" fill="#ff87ff" r="3.75"/><circle cx="203.25" cy="124.75" fill="#ff87ff" r="3.75"/><circle cx="214.9" cy="26.7" fill="url(#a)" r="18.7"/><path d="m251.33 87.07h-.6a7.09 7.09 0 0 0 -13 0h-.61v3a7.09 7.09 0 0 0 14.17 0z" fill="#cd1580"/><circle cx="244.24" cy="87.08" fill="#fa4e89" r="7.08"/><path d="m243.08 103.7h-.45a5.21 5.21 0 0 0 -9.54 0h-.45v2.22a5.21 5.21 0 0 0 10.41 0z" fill="#cd1580"/><circle cx="237.86" cy="103.71" fill="#fa4e89" r="5.21"/><path d="m.5 123.5 16-39h32l-16 39z" fill="#cd1580"/><ellipse cx="23.45" cy="104.18" fill="#fa4e89" rx="16.16" ry="7.68" transform="matrix(.36455176 -.93118313 .93118313 .36455176 -82.11 88.04)"/><ellipse cx="151.89" cy="150.19" fill="#776bff" rx="7.87" ry="11.57"/><ellipse cx="181.13" cy="177.48" fill="#776bff" rx="7.87" ry="11.57"/><ellipse cx="244.13" cy="160.48" fill="#6045ff" rx="7.87" ry="11.57"/><circle cx="67.75" cy="133.5" fill="#cd1580" r="3.25"/><circle cx="76.75" cy="133.5" fill="#cd1580" r="3.25"/><path d="m225.35 192c0-.27 0-.54 0-.82 0-5.83-3.22-10.56-7.18-10.56s-7.17 4.73-7.17 10.56v.82z" fill="#6045ff"/><path d="m42.26 156c6.05.54 12.54.5 17.54-3.46 2.16-1.7 4.13-4.32 4-7.21a5.33 5.33 0 0 0 -4.8-5.33 5.62 5.62 0 0 0 -5.79 4.58 7.15 7.15 0 0 0 3.42 7.32 8.23 8.23 0 0 0 12.59-5.26 29.7 29.7 0 0 0 .53-7.76c0-1.82 0-3.64 0-5.46 0-2.58-4-2.58-4 0v7.25c0 2.72.13 7.08-3 8.28a4.66 4.66 0 0 1 -4.75-.95c-1-.93-1.53-3 0-3.78 1.23-.64 2 .54 1.87 1.7-.26 1.79-2 3.32-3.4 4.23-4.21 2.66-9.41 2.36-14.16 1.93a2 2 0 0 0 -2 2 2 2 0 0 0 2 2z"/><path d="m0 123h37a10 10 0 0 1 10 10v59a0 0 0 0 1 0 0h-47a0 0 0 0 1 0 0v-69a0 0 0 0 1 0 0z" fill="#eb33ff"/><path d="m8.5 123h29a10 10 0 0 1 10 10v59a0 0 0 0 1 0 0h-39a0 0 0 0 1 0 0v-69a0 0 0 0 1 0 0z" fill="#ff87ff"/><ellipse cx="28.5" cy="168.33" rx="9" ry="12.5"/><path d="m31.5 164.33h43a0 0 0 0 1 0 0v8a0 0 0 0 1 0 0h-43a4 4 0 0 1 -4-4 4 4 0 0 1 4-4z" fill="#fa4e89"/><path d="m35 140.87v-.49a5.73 5.73 0 0 0 0-10.49v-.49h-2.42a5.72 5.72 0 0 0 0 11.44h2.42z" fill="#cd1580"/><circle cx="35.01" cy="135.14" fill="#fa4e89" r="5.72"/><path d="m23.52 152.37v-.49a5.73 5.73 0 0 0 0-10.49v-.49h-2.44a5.72 5.72 0 0 0 0 11.44h2.44z" fill="#cd1580"/><circle cx="23.51" cy="146.64" fill="#fa4e89" r="5.72"/><circle cx="85.5" cy="168.33" fill="url(#b)" r="15"/><path d="m159 192a16.43 16.43 0 0 0 .72-4.81c0-6.39-3.52-11.57-7.87-11.57s-7.85 5.18-7.85 11.57a16.11 16.11 0 0 0 .72 4.81z" fill="#776bff"/></svg>