<svg xmlns="http://www.w3.org/2000/svg" xmlns:xlink="http://www.w3.org/1999/xlink" width="247" height="120"><defs><path id="a" d="M.37.756h3.98v3.98H.37z"/><path id="c" d="M.476.756h3.978v3.98H.476z"/><path id="e" d="M0 .31h7.898v7.898H0z"/><path id="g" d="M.135.754H13.98v12.174H.135z"/></defs><g fill="none" fill-rule="evenodd"><path fill="#ACB0FF" d="M194.802 104.779l-4.815-13.353V41.554h9.966C199.459 28.487 188.76 18 175.641 18h-70.137c-13.432 0-24.359 10.985-24.359 24.487v11.667h8.477l-.114 2.302h-8.363v33.07c0 .636-.512 1.15-1.145 1.15v2.889c.633 0 1.145.515 1.145 1.151v3.298c0 .637-.512 1.151-1.145 1.151v5.842c.633 0 1.145.515 1.145 1.15V118H200v-6.358c-2.32-1.65-4.166-4-5.198-6.863"/><path fill="#7B80D6" d="M174.162 25h-65.49C98.912 25 91 33.004 91 42.878v.802c0 1.281 1.027 2.32 2.294 2.32h15.018c.555 0 1.082-.216 1.506-.578 3.196-2.737 7.315-4.4 11.82-4.4H190C190 32.173 182.91 25 174.162 25m-80.868 85h94.412a2.294 2.294 0 0 0 2.294-2.291V91.177l-.19-.526a6.916 6.916 0 0 1 .028-4.83c.099-.261.162-.536.162-.817v-6.798h-22.906a2.294 2.294 0 0 0-2.294 2.291v4.094c0 5.474-4.443 9.911-9.924 9.911h-14.38c-5.482 0-9.925-4.437-9.925-9.911v-4.094a2.293 2.293 0 0 0-2.295-2.291h-6.638c-8.698 0-15.987-6.082-17.869-14.206H93.294A2.293 2.293 0 0 0 91 66.291v41.418A2.294 2.294 0 0 0 93.294 110M25 54h53.211V42.381C78.211 31.517 84.71 22.154 94 18H49.249C35.878 18 25 28.938 25 42.381V54zm55 45.026a1.156 1.156 0 0 1-1.154-1.16v-3.323c0-.64.516-1.16 1.154-1.16v-2.909a1.156 1.156 0 0 1-1.154-1.16V56H25v62h53.846v-11.93c0-.641.516-1.16 1.154-1.16v-5.884z"/><path fill="#ACB0FF" d="M190.05 84.882c.79-1.64 2.19-2.884 3.944-3.5L200 79.266V78h-10v7c.02-.039.03-.079.05-.118"/><path fill="#000" d="M79 94.233v3.534c0 .682.447 1.233 1 1.233.553 0 1-.551 1-1.233v-3.534c0-.682-.447-1.233-1-1.233-.553 0-1 .551-1 1.233"/><path fill="#ACB0FF" d="M138.303 92h19.393c2.925 0 5.304-2.348 5.304-5.232V78h-9.943l1.589 5.122c0 .88-.724 1.594-1.616 1.594h-9.698a1.605 1.605 0 0 1-1.616-1.594l1.59-5.122H133v8.768c0 2.884 2.378 5.232 5.303 5.232"/><path fill="#7B80D6" d="M142.625 85h9.75c.897 0 1.625-.744 1.625-1.662L152.402 78h-9.804L141 83.338c0 .918.727 1.662 1.625 1.662"/><path fill="#FFF" d="M192.065 59.999c0 3.156-2.564 5.714-5.73 5.714-3.165 0-5.73-2.558-5.73-5.714 0-3.156 2.565-5.714 5.73-5.714 3.166 0 5.73 2.558 5.73 5.714zm-29.796 0c0-3.156 2.565-5.714 5.73-5.714 3.166 0 5.73 2.558 5.73 5.714 0 3.156-2.564 5.714-5.73 5.714-3.165 0-5.73-2.558-5.73-5.714zm-18.335 0c0-3.156 2.564-5.714 5.73-5.714 3.165 0 5.73 2.558 5.73 5.714 0 3.156-2.565 5.714-5.73 5.714-3.166 0-5.73-2.558-5.73-5.714zm-12.606 5.714c-3.166 0-5.73-2.558-5.73-5.714 0-3.156 2.564-5.714 5.73-5.714 3.165 0 5.73 2.558 5.73 5.714 0 3.156-2.565 5.714-5.73 5.714zM122.044 44C113.198 44 106 51.177 106 60s7.198 16 16.044 16h88.076c.253-.15.47-.35.596-.62.171-.362.188-.769.052-1.143l-3.36-9.246a5.675 5.675 0 0 1-2.737.722c-3.165 0-5.73-2.558-5.73-5.714 0-3.156 2.565-5.714 5.73-5.714 1.44 0 2.741.548 3.748 1.424a5.416 5.416 0 0 1 1.068-.542 5.322 5.322 0 0 1 6.805 3.175l5.64 15.52C226.745 71.097 230 65.926 230 60c0-8.823-7.198-16-16.044-16h-91.912z"/><path fill="#ACB0FF" d="M136 60c0-3.313-2.462-6-5.5-6s-5.5 2.687-5.5 6c0 3.314 2.462 6 5.5 6s5.5-2.686 5.5-6m19 0c0-3.313-2.462-6-5.5-6s-5.5 2.687-5.5 6c0 3.314 2.462 6 5.5 6s5.5-2.686 5.5-6m18 0c0-3.313-2.462-6-5.5-6s-5.5 2.687-5.5 6c0 3.314 2.462 6 5.5 6s5.5-2.686 5.5-6m12.5-6c-3.038 0-5.5 2.687-5.5 6 0 3.314 2.462 6 5.5 6s5.5-2.686 5.5-6c0-3.313-2.462-6-5.5-6m13.5 6c0 3.314 2.436 6 5.441 6 .947 0 1.823-.29 2.6-.758l-1.05-3.19a6.052 6.052 0 0 1 .173-4.253A5.383 5.383 0 0 1 208 55.495c-.956-.919-2.19-1.495-3.559-1.495-3.005 0-5.441 2.687-5.441 6"/><path fill="#D3D6ED" d="M214.018 59.002a3.007 3.007 0 0 0-1.552-1.715 2.998 2.998 0 0 0-3.997 1.464 3.049 3.049 0 0 0-.102 2.323l4.444 12.39a3.823 3.823 0 0 1-.13 2.916 3.766 3.766 0 0 1-2.132 1.97l-15.46 5.663a4.666 4.666 0 0 0-2.645 2.443 4.74 4.74 0 0 0-.16 3.617l4.985 13.9c1.911 5.329 7.123 8.587 12.689 7.899 1.102-.135 2.173.547 2.56 1.62l1.616 4.508h14.689l-3.368-9.145a2.51 2.51 0 0 1 1.022-2.967 12.114 12.114 0 0 0 5.03-6.29l7.278-20.92a3.881 3.881 0 0 0-.17-2.958 3.818 3.818 0 0 0-2.187-1.975 3.772 3.772 0 0 0-2.932.17 3.833 3.833 0 0 0-1.954 2.212l-2.806 8.22c-.345 1-.957 1.87-1.77 2.525a2.056 2.056 0 0 1-1.867.373 2.162 2.162 0 0 1-1.433-1.346l-9.648-26.897z"/><path fill="#000" d="M201.978 112.633a14.3 14.3 0 0 0 7.712 1.21c.048-.024.114.04.14.115.655 1.815-.683 3.73-2.604 3.73h-2.479a2.776 2.776 0 0 1-2.77-2.782v-2.273zm0-34.22v-.481h1.319l-1.32.48zm-69.649.792a1.27 1.27 0 0 1 1.269-1.273h27.185c.7 0 1.267.57 1.267 1.273v7.572c0 2.916-2.352 5.279-5.254 5.279h-19.212c-2.902 0-5.255-2.363-5.255-5.278v-7.573zm92.352 7.657a2.083 2.083 0 0 0 1.881-.374 5.57 5.57 0 0 0 1.787-2.53l2.83-8.24a3.846 3.846 0 0 1 1.97-2.218 3.821 3.821 0 0 1 2.955-.17 3.847 3.847 0 0 1 2.207 1.98c.45.935.509 1.988.17 2.966l-7.338 20.967a12.15 12.15 0 0 1-5.073 6.306 2.506 2.506 0 0 0-1.03 2.973l3.395 9.167h-14.81l-1.63-4.518c-.39-1.076-1.47-1.76-2.58-1.624-5.613.689-10.869-2.577-12.795-7.917l-5.028-13.934a4.721 4.721 0 0 1 .16-3.624 4.693 4.693 0 0 1 2.668-2.448l15.589-5.679a3.787 3.787 0 0 0 2.15-1.973 3.81 3.81 0 0 0 .132-2.923l-4.483-12.42a3.039 3.039 0 0 1 .104-2.328 3.016 3.016 0 0 1 1.713-1.571 3.005 3.005 0 0 1 2.317.104c.734.345 1.29.955 1.565 1.72l9.729 26.96a2.173 2.173 0 0 0 1.445 1.348zm4.75-27.419c0 5.99-3.268 11.22-8.098 14.016l-5.663-15.693c-1.003-2.776-4.07-4.219-6.829-3.21a5.31 5.31 0 0 0-1.073.548 5.347 5.347 0 0 0-2.123 6.314l1.108 3.071 3.374 9.349c.137.379.119.789-.051 1.155-.127.274-.347.475-.599.628h-88.406c-8.88 0-16.104-7.258-16.104-16.178 0-8.92 7.224-16.177 16.104-16.177h92.255c8.88 0 16.104 7.256 16.104 16.177zM83.743 117.689a3.459 3.459 0 0 1-3.451-3.467v-8.42c0-.64-.514-1.156-1.15-1.156-.637 0-1.15.517-1.15 1.156v8.42a3.459 3.459 0 0 1-3.452 3.467H27.75a3.459 3.459 0 0 1-3.45-3.467V57.068c0-.639.514-1.155 1.15-1.155h51.39c.637 0 1.151.516 1.151 1.155v32.039c0 .638.514 1.155 1.15 1.155.637 0 1.15-.517 1.15-1.155V58.84a2.92 2.92 0 0 1 2.914-2.927h12.538c.635 0 1.15-.517 1.15-1.156 0-.639-.515-1.155-1.15-1.155H83.206a2.92 2.92 0 0 1-2.913-2.927v-8.786c0-13.574 10.954-24.578 24.466-24.578h70.45c11.186 0 20.621 7.584 23.521 17.9.808 2.875-1.29 5.743-4.264 5.743h-73.395c-4.826 0-9.212 1.89-12.499 4.958-3.622 3.379-5.905 8.186-5.905 13.531 0 1.432.178 2.82.488 4.16 1.886 8.195 9.194 14.329 17.916 14.329h5.728a3.239 3.239 0 0 1 3.23 3.244v5.601c0 4.192 3.383 7.59 7.556 7.59h19.212c4.172 0 7.554-3.398 7.554-7.589v-5.602a3.239 3.239 0 0 1 3.23-3.244h32.097v1.317l-6.041 2.201a6.98 6.98 0 0 0-3.966 3.642c-.023.05-.037.101-.064.15-.843 1.613-.787 3.556-.168 5.269l.18.504 4.838 13.403a14.418 14.418 0 0 0 5.221 6.889v2.915a3.459 3.459 0 0 1-3.45 3.467H83.743zM48.768 17.31h45.156c-9.375 4.19-15.932 13.627-15.932 24.58v10.557c0 .64-.514 1.156-1.15 1.156H25.45c-.636 0-1.15-.517-1.15-1.156V41.89c0-13.574 10.955-24.578 24.467-24.578zm191.08 100.378h-7.033a2.77 2.77 0 0 1-2.596-1.812l-3.018-8.151.07-.206a14.477 14.477 0 0 0 6.042-7.508l7.34-20.972a6.183 6.183 0 0 0-.269-4.734 6.134 6.134 0 0 0-3.523-3.157 6.098 6.098 0 0 0-4.713.269 6.15 6.15 0 0 0-3.143 3.542l-2.83 8.24a3.257 3.257 0 0 1-.851 1.314l-3.191-8.843c5.879-3.232 9.822-9.593 9.587-16.84-.324-10.052-8.87-17.877-18.883-17.877h-6.127c-2.538 0-4.755-1.781-5.245-4.283C199.039 24.333 188.19 15 175.209 15H48.768C33.985 15 22 27.04 22 41.89v76.953c0 .64.514 1.156 1.15 1.156h216.698c.636 0 1.15-.517 1.15-1.156 0-.639-.514-1.155-1.15-1.155z"/><g transform="translate(217)"><mask id="b" fill="#fff"><use xlink:href="#a"/></mask><path fill="#000" d="M1.62 4.735c.32 0 .64-.122.885-.366l1.478-1.48A1.25 1.25 0 0 0 2.216 1.12L.737 2.601a1.249 1.249 0 0 0 .884 2.134" mask="url(#b)"/></g><path fill="#000" d="M211.257 12c.322 0 .644-.123.889-.368l1.486-1.487a1.258 1.258 0 0 0-1.777-1.777l-1.486 1.487a1.256 1.256 0 0 0 .888 2.145m7.597-.368a1.253 1.253 0 0 0 1.777 0 1.256 1.256 0 0 0 0-1.777l-1.486-1.487a1.258 1.258 0 0 0-1.777 1.777l1.486 1.487z"/><g transform="translate(210)"><mask id="d" fill="#fff"><use xlink:href="#c"/></mask><path fill="#000" d="M2.32 4.369a1.247 1.247 0 0 0 1.768 0 1.249 1.249 0 0 0 0-1.768l-1.479-1.48A1.25 1.25 0 0 0 .841 2.89l1.48 1.48z" mask="url(#d)"/></g><g transform="translate(0 73)"><mask id="f" fill="#fff"><use xlink:href="#e"/></mask><path fill="#000" d="M6.773 3.133h-.001c-.939 0-1.699-.76-1.699-1.698a1.125 1.125 0 1 0-2.25 0c0 .938-.76 1.698-1.699 1.698a1.126 1.126 0 0 0 0 2.25 1.7 1.7 0 0 1 1.699 1.7 1.126 1.126 0 0 0 2.25 0 1.7 1.7 0 0 1 1.699-1.7 1.125 1.125 0 1 0 0-2.25" mask="url(#f)"/></g><path fill="#ACB0FF" d="M240.5 28l3.5-6h-7z"/><g transform="translate(233 19)"><mask id="h" fill="#fff"><use xlink:href="#g"/></mask><path fill="#000" d="M7.058 9.456L3.331 3.118h7.454L7.058 9.456zm6.774-8.102c-.205-.37-.59-.6-1.005-.6H1.29c-.416 0-.8.23-1.005.6-.204.371-.199.826.017 1.19l5.77 9.812c.207.356.582.572.987.572s.78-.216.988-.572l5.769-9.812c.216-.364.221-.819.017-1.19z" mask="url(#h)"/></g><path fill="#ACB0FF" d="M50.133 64H37.296C36.027 64 35 65.01 35 66.258v41.485c0 1.246 1.027 2.257 2.296 2.257h29.41c1.267 0 2.294-1.01 2.294-2.257V66.258C69 65.011 67.973 64 66.707 64H50.133zm17.973-24.462c0-4.01.624-7.874 1.777-11.495.478-1.498-.568-3.043-2.107-3.043H53.288C43.188 25 35 33.378 35 43.714 35 44.976 36 46 37.233 46h28.638c1.234 0 2.235-1.024 2.235-2.286v-4.176z"/></g></svg>