<svg fill="none" height="112" viewBox="0 0 178 112" width="178" xmlns="http://www.w3.org/2000/svg"><path d="m88.6942 0-26.8246 26.8245v37.7491l26.8246 26.7164 26.8248-26.8246v-37.6409zm13.4118 58.9491-13.4118 13.4123-13.4123-13.4123v-26.6082l13.4123-13.4123 13.4118 13.4123z" fill="#878b91"/><path d="m88.694 0v18.9286l13.412 13.4123 13.413-5.5164z" fill="#dcddde"/><path d="m75.2819 58.949-13.4123 5.6245 26.8246 26.7164v-18.9287z" fill="#4f545c"/><path d="m75.282 32.341v26.6082l13.4123 13.4123 13.4127-13.4123v-26.6082l-13.4127-13.4123z" fill="#b9bbbe"/><path d="m102.107 32.3406v.1082l-26.7169 26.6082h-.1081v-7.2469l23.147-23.147z" fill="#fff"/><path d="m102.107 42.3999v7.3551l-17.9556 18.0633-3.6775-3.7857z" fill="#fff"/><path d="m66.629 17.7388-4.3265 2.0551c-.5409.3245-1.298 0-1.6225-.5408-.1082-.3245-.1082-.7572 0-1.0817l2.0551-4.3265c.2163-.3245.2163-.7571 0-1.0816l-2.0551-4.32657c-.3245-.64898 0-1.29796.5408-1.62245.3245-.10816.649-.10816.9735 0l4.3265 2.05511c.3245.21632.7572.21632 1.0817 0l4.3265-2.05511c.649-.32449 1.298 0 1.6225.54082.1081.32449.1081.64898 0 .97347l-2.0551 4.32653c-.2164.3245-.2164.7572 0 1.0816l2.0551 4.3266c.3244.5408 0 1.2979-.5409 1.6224-.3245.1082-.7571.1082-1.0816 0l-4.3265-2.0551c-.2164-.1081-.649-.1081-.9735.1082z" fill="#fff"/><path d="m135.961 40.6697c3.353-1.4061 7.139.2163 8.437 3.4612l10.925 26.5001-12.006 4.9755-10.925-26.3919c-1.406-3.353.216-7.1388 3.569-8.5449z" fill="#72767d"/><path d="m145.588 16.333c3.353-1.4061 7.139.2164 8.437 3.4613l12.006 28.8796-12.006 4.9755-11.898-28.7714c-1.407-3.3531.216-7.1388 3.461-8.545z" fill="#72767d"/><path d="m137.476 27.3655c3.353-1.4061 7.139.2163 8.437 3.4612l11.032 26.5001-12.006 4.9755-10.924-26.3919c-1.406-3.353.216-7.1388 3.461-8.5449z" fill="#72767d"/><path d="m150.997 59.8141-6.058 2.4878-8.977-21.6327c-.541.2163-1.082.5408-1.514.8653l8.869 21.4164c.324.649.865 1.0816 1.622 1.0816.217 0 .433 0 .649-.1082l6.058-2.4877z" fill="#4f545c"/><path d="m155.323 53.2166-1.19.5408-10.816-26.0674c-.649-.4326-1.406-.649-2.271-.8653l11.465 27.5817c.324.649.865 1.0816 1.622 1.0816.217 0 .433 0 .649-.1081l1.19-.5408z" fill="#4f545c"/><path d="m161.056 88.3696h-40.129v12.3304h40.129z" fill="#ebf0f7"/><g fill="#dcddde"><path d="m165.166 46.943c2.488 2.4877 2.488 6.5979 0 9.1939l-18.604 18.6041-9.194-9.1939 18.604-18.6041c2.596-2.4878 6.706-2.4878 9.194 0z"/><path d="m170.79 19.0369c3.57 0 6.49 2.9204 6.49 6.4898v23.7959h-12.979v-23.7959c0-3.5694 2.812-6.4898 6.489-6.4898z"/><path d="m120.927 100.592v-12.2226c0-11.5735 7.031-22.0654 17.739-26.5001l12.547-5.1918 9.843 23.9041v20.0104z"/><path d="m173.278 67.7102-7.139 12.1143c-3.245 5.6245-4.975 11.898-4.975 18.3878v2.3797h-40.129l43.266-43.4818v-18.0633h12.979v13.8449c-.108 5.1919-1.406 10.2755-4.002 14.8184z"/></g><path d="m166.356 45.8617c-3.245-3.2449-8.329-3.2449-11.574 0l1.19 1.1898c2.596-2.596 6.706-2.4878 9.194 0 2.596 2.5959 2.488 6.7061 0 9.1939l-10.925 10.9245c-.108.1081-.216.3245-.216.5408v9.4102c0 .4327.325.8653.757.8653.433 0 .866-.3245.866-.7571 0 0 0 0 0-.1082v-8.9776l10.6-10.6c3.353-3.3531 3.353-8.5449.108-11.6816z" fill="#72767d"/><path d="m120.927 93.0208v3.2449l33.639 4.3263h6.49v-2.3794z" fill="#72767d"/><path d="m120.927 94.8594 40.237 5.1916c3.244.433 5.624 3.462 5.191 6.706-.432 3.245-3.461 5.625-6.706 5.192l-40.237-5.192c-3.244-.432-5.624-3.461-5.191-6.706.324-3.2446 3.353-5.6242 6.706-5.1916z" fill="#dcddde"/><path d="m33.9637 75.6063-12.0062-4.9755 10.9245-26.3919c1.4061-3.3531 5.1919-4.8674 8.4368-3.4613 3.353 1.4062 4.8673 5.1919 3.4612 8.4368z" fill="#72767d"/><path d="m23.3637 53.7574-12.0062-4.9756 12.0062-28.8796c1.4061-3.3531 5.1918-4.8674 8.4367-3.4612 3.3531 1.4061 4.8674 5.1918 3.4613 8.4367z" fill="#72767d"/><path d="m32.4494 62.3023-12.0062-4.9755 10.9246-26.5c1.4061-3.3531 5.1918-4.8674 8.4367-3.4613 3.3531 1.4061 4.8674 5.1919 3.4612 8.4368z" fill="#72767d"/><path d="m42.9408 41.5345c-.4327-.3245-.9735-.649-1.5143-.8653l-8.9776 21.6327-6.0571-2.4878-.649 1.6225 6.0571 2.4877c.2164.1082.4327.1082.649.1082.7572 0 1.298-.4326 1.6225-1.0816z" fill="#4f545c"/><path d="m34.0721 27.7979-10.8163 26.0674-1.1898-.5408-.649 1.6225 1.1898.5408c.2163.1081.4326.1081.649.1081.7571 0 1.2979-.4326 1.6224-1.0816l11.3572-27.4735c-.7572 0-1.5143.3245-2.1633.7571z" fill="#4f545c"/><path d="m56.4615 88.2615h-40.1286v12.3305h40.1286z" fill="#ebf0f7"/><path d="m39.9124 65.5471-9.1939 9.1939-18.496-18.496c-2.48775-2.4877-2.48775-6.598 0-9.1939 2.4878-2.4877 6.598-2.4877 9.1939 0z" fill="#dcddde"/><path d="m13.1964 49.3226h-13.087757v-23.7959c0-3.5694 2.920417-6.4898 6.489807-6.4898 3.56935 0 6.48985 2.9204 6.48985 6.4898z" fill="#dcddde"/><path d="m56.4615 100.592v-12.2226c0-11.5735-7.0306-22.0654-17.7388-26.5001l-12.5469-5.1918-9.8429 23.9041v20.0104z" fill="#dcddde"/><path d="m4.11022 67.7102 7.13878 12.1143c3.2449 5.6245 4.9755 11.898 4.9755 18.3878v2.3797h40.1287l-43.2654-43.4818v-18.0633h-13.0878v13.8449c.108163 5.1919 1.51429 10.2755 4.11022 14.8184z" fill="#dcddde"/><path d="m11.0329 45.8617c3.1367-3.2449 8.3286-3.2449 11.5735 0l-1.1898 1.1898c-2.596-2.596-6.7062-2.4878-9.1939 0-2.59595 2.5959-2.48779 6.7061 0 9.1939l10.9245 10.9245c.1081.1081.2163.3245.2163.5408v9.4102c0 .4327-.3245.8653-.7571.8653-.4327 0-.8653-.3245-.8653-.7571 0 0 0 0 0-.1082v-8.9776l-10.6001-10.6c-3.35303-3.3531-3.35303-8.5449-.1081-11.6816z" fill="#72767d"/><path d="m56.4615 93.0208v3.2449l-33.6388 4.3263h-6.4898v-2.3794z" fill="#72767d"/><path d="m58.0839 106.757-40.2368 5.192c-3.2449.433-6.2735-1.947-6.7062-5.192-.4326-3.244 1.947-6.273 5.1919-6.706l40.2368-5.1916c3.2449-.4326 6.2735 1.947 6.7061 5.1916.4327 3.353-1.9469 6.382-5.1918 6.706z" fill="#dcddde"/></svg>