<svg fill="none" height="111" viewBox="0 0 222 111" width="222" xmlns="http://www.w3.org/2000/svg" xmlns:xlink="http://www.w3.org/1999/xlink"><clipPath id="a"><path d="m0 .874023h222v110h-222z"/></clipPath><g clip-path="url(#a)"><path d="m211.966 57.999h-201.9321c-5.54157 0-10.0339 4.4772-10.0339 10v32.863c0 5.522 4.49233 10 10.0339 10h201.9321c5.542 0 10.034-4.478 10.034-10v-32.863c0-5.5228-4.492-10-10.034-10z" fill="#e3e5e8"/><path d="m65.9708 11.874c-1.0838-.7024-2.0107-1.6199-2.7228-2.69523-.7121-1.07534-1.1942-2.28543-1.4161-3.55475l-.6272-4.375c0-.09945-.0396-.19484-.1102-.265162-.0705-.070326-.1662-.109835-.266-.109835-.2509 0-.3763.125-.5017.374997l-.6271 4.375c-.1999 1.26147-.6597 2.46803-1.3504 3.54368-.6908 1.0757-1.5975 1.9971-2.6632 2.7063l-.6271.375c-.1254 0-.1254.25-.1254.375-.0058.0677.0023.1359.0239.2004s.0561.1239.1015.1746l.6271.375c1.0764.6976 1.9911 1.6159 2.6832 2.6936s1.1456 2.2902 1.3304 3.5564l.6271 4.375c.1254.125.2508.375.5017.375.0864-.0312.165-.0809.23-.1457s.1149-.1431.1462-.2293l.6272-4.375c.207-1.2743.683-2.4902 1.3965-3.5676s1.6482-1.9916 2.7424-2.6824l.5017-.375.2509-.375c0-.125-.1254-.375-.2509-.375z" fill="#fff48c"/><path d="m153.767 15.124c-.534-.3229-.991-.7589-1.338-1.2774-.347-.5184-.575-1.1065-.668-1.7226l-.251-2.12498h-.502l-.251 2.12498c-.093.6161-.321 1.2042-.668 1.7226-.347.5185-.804.9545-1.339 1.2774h-.25v.25c0 .125 0 .125.125.125l.251.25c.535.3229.992.759 1.338 1.2774.347.5185.575 1.1065.669 1.7226l.251 2.125h.501l.251-2.125c.093-.6161.322-1.2041.668-1.7226.347-.5184.804-.9545 1.339-1.2774l.251-.25c.033 0 .065-.0131.088-.0366.024-.0234.037-.0552.037-.0884v-.25z" fill="#66bcff"/><path d="m160.919 80.249h-90.6817v23.875h101.2167c-1.365-8.7371-4.996-16.9673-10.535-23.875z" fill="#78df8b"/><path d="m172.328 103.999h-1.756c-1.457-8.4979-5.037-16.4934-10.41-23.2501-.125-.1913-.181-.4197-.158-.6471.022-.2274.123-.4402.284-.6029.192-.1252.421-.181.649-.1583s.442.1227.605.2833c5.624 7.0269 9.338 15.3781 10.786 24.2501z" fill="#5b59a4"/><path d="m107.99 5.62398c31.732-1.25 52.176 27.62502 48.539 63.37502 12.166 6 9.281 11.375 7.149 14.25s-13.922 3-20.444 0c-4.516 3.875-9.533 3.5-12.543 1.25-5.895 4.375-14.549 11.25-20.193.25-4.264 8.75-11.7897 9.375-15.9287.25-2.5085 6.625-8.0271 7.5-13.0441 5-1.5084-.7937-2.8065-1.9327-3.7877-3.3233-.9811-1.3907-1.6173-2.9935-1.8563-4.6767-3.8882 1.625-7.1492.75-9.156-2.25-2.0067-3-.3762-7.375-.3762-7.375-10.1594-2.375-9.156-11.875-.1255-13.125-3.8881-29.125 11.4136-52.25002 41.7665-53.62502z" fill="#ffb55c"/><path d="m102.219 92.4991h-.125c-2.8849-.125-5.5188-2-7.5256-5.5-.945 2.0578-2.6533 3.6707-4.7661 4.5-1.4113.4768-2.9042.6672-4.3905.5598-1.4864-.1073-2.9361-.5102-4.2637-1.1848-1.4758-.804-2.764-1.9103-3.78-3.246-1.0161-1.3358-1.7368-2.8707-2.1149-4.504-3.8882 1.25-7.1492.25-9.156-3-.6088-1.0719-.9997-2.2529-1.1503-3.4754-.1507-1.2226-.0581-2.4627.2724-3.6496-5.2678-1.625-7.1492-5-7.0238-7.625.1255-2.625 2.3831-5.875 7.1492-6.875-2.0068-15.375 1.5051-29.125 9.6576-38.875 8.1526-9.75001 19.0644-14.25001 32.9867-14.87501 6.456-.35601 12.912.7017 18.914 3.09879 6.003 2.39712 11.405 6.07532 15.828 10.77622 11.288 12 16.556 30.125 14.675 49.875 5.518 2.75 8.529 5.75 9.156 9.125.162 1.1274.04 2.2773-.354 3.3464s-1.048 2.0239-1.904 2.7786c-4.264 4.5-14.675 3.125-20.946.5-4.515 3.625-9.407 3.25-12.542 1.25h-.126c-4.139 3-9.406 6.875-14.298 5.625-2.497-.712-4.614-2.3729-5.895-4.625-2.257 3.875-5.142 6-8.278 6zm-7.6506-8.375c.3763 0 .6271.25.878.625 1.7559 3.75 4.139 6 6.7726 6 2.76 0 5.519-2.375 7.526-6.375 0-.1989.079-.3897.22-.5303.141-.1407.333-.2197.532-.2197.2 0 .391.079.532.2197.141.1406.221.3314.221.5303 1.505 3 3.386 4.75 5.518 5.25 4.139 1 9.031-2.625 12.919-5.5l.502-.375c.166-.1129.363-.1732.564-.1732s.398.0603.565.1732c2.383 1.875 6.898 2.625 11.413-1.25.13-.0788.275-.1306.426-.152.151-.0215.305-.0123.452.027 6.397 3 16.18 3.75 19.566.25.615-.6173 1.081-1.3655 1.363-2.1883.282-.8227.374-1.6986.268-2.5617-.502-2.75-3.512-5.625-8.655-8.125-.163-.0765-.3-.2017-.389-.3583-.09-.1566-.129-.3371-.112-.5167 2.007-19.375-3.136-37.25-14.299-49-4.221-4.551-9.403-8.1115-15.173-10.42441-5.769-2.31294-11.982-3.32071-18.189-2.9506-13.2952.625-24.3324 5.50001-31.607 14.25001s-11.2882 23.125-9.2814 38.375c.1254.5-.2508.875-.7525 1-4.2644.5-6.2712 3.125-6.3966 5.25-.1255 2.125 1.6305 5 6.6474 6.125l.5017.5c.0904.1957.1333.4097.1254.625-.4128 1.0631-.6034 2.1991-.5603 3.3383s.3192 2.2576.8112 3.2867c1.7559 2.75 4.5152 3.375 8.1525 2h.7526c.1204.0519.2215.14.289.2522.0675.1121.098.2425.0872.3728.2112 1.5469.7874 3.0218 1.6813 4.3038s2.0801 2.3345 3.4611 3.0712c1.0994.6106 2.3162.982 3.5701 1.0897s2.5165-.0507 3.7045-.4647c2.0068-.75 3.5119-2.5 4.6407-5.125.1254-.375.3762-.5.7525-.625z" fill="#5b59a4"/><path d="m123.291 57.499c4.571 0 8.278-3.6937 8.278-8.25 0-4.5564-3.707-8.25-8.278-8.25-4.572 0-8.278 3.6936-8.278 8.25 0 4.5563 3.706 8.25 8.278 8.25z" fill="#5b59a4"/><path d="m80.6465 53.249c4.5718 0 8.278-3.6937 8.278-8.25 0-4.5564-3.7062-8.25-8.278-8.25s-8.278 3.6936-8.278 8.25c0 4.5563 3.7062 8.25 8.278 8.25z" fill="#5b59a4"/><path d="m100.587 40.999c10.661.875 10.912 3 10.661 5s-3.763 6.25-9.658 13.125c-1.505 1.75-3.1355 1.625-4.766-1.625-2.1202-3.9889-3.8426-8.1757-5.1423-12.5-1.1289-3.625.7525-4.75 8.9053-4z" fill="#fff48c"/><path d="m82.0269 40.124.5017 3 3.1356.25c.1153-.0164.2327-.0101.3456.0187.1128.0288.2188.0795.312.1492.0932.0696.1716.1569.231.2567.0593.0999.0983.2105.1148.3254s.0101.2319-.0188.3443c-.0289.1125-.0798.2181-.1496.311-.0699.0929-.1575.1711-.2577.2302-.1002.0592-.2111.0981-.3264.1145l-2.6339 1.5.6271 3c.0841.1961.0935.4161.0263.6187-.0672.2025-.2063.3736-.3912.4811s-.4028.1439-.6128.1025c-.2099-.0414-.3975-.1578-.5274-.3273l-2.2576-2.125-2.6339 1.5c-.1616.1004-.3517.1458-.5414.1292-.1898-.0166-.369-.0943-.5106-.2213s-.2379-.2964-.2744-.4828c-.0365-.1863-.0111-.3794.0721-.5501l1.2543-2.75-2.2576-2.125c-.7526-.5-.2509-1.625.7525-1.5l3.0102.25 1.2542-2.75c.1073-.1471.2527-.2622.4207-.333s.3522-.0947.5328-.069.3507.1.4921.2149.2487.266.3103.4371z" fill="#fff"/><path d="m123.291 44.249 1.254 2.75 3.01-.375c.186.0056.368.0629.523.1655.156.1025.28.2462.358.415s.107.3559.085.5404c-.023.1845-.097.3591-.213.5041l-2.258 2 1.254 2.75c.167.1658.26.3906.26.625s-.093.4593-.26.625c-.082.0821-.18.1472-.288.1916-.107.0445-.222.0673-.339.0673-.235 0-.461-.0931-.627-.2589l-2.634-1.5-2.258 2c-.129.1696-.317.286-.527.3274s-.428.0049-.613-.1026-.324-.2785-.391-.4811c-.067-.2025-.058-.4225.026-.6187l.502-2.875-2.634-1.5c-.146-.1159-.256-.2701-.319-.4452-.062-.175-.075-.364-.036-.5458.039-.1817.128-.349.257-.4831.13-.1341.294-.2296.474-.2759l3.011-.375.627-2.875c-.017-.1149-.01-.2319.019-.3443.028-.1125.079-.2181.149-.311s.158-.1711.258-.2302c.1-.0592.211-.0981.326-.1145.116-.0164.233-.01.346.0188s.219.0795.312.1491c.093.0697.171.1569.231.2568.059.0999.098.2104.115.3253z" fill="#fff"/><path d="m119.153 61.374c3.888-7.75 8.905-11.875 18.688-11.5l-11.288 10.375z" fill="#ffb55c"/><path d="m71.614 49.874c7.1492-1.5 13.7966-1.5 16.556 5.75l-15.0509-3.25z" fill="#ffb55c"/><path d="m161.418 104.124c-.501-13.875-7.149-22.5-12.166-28.875s-7.651-8.75-8.403-12.125c-.753-3.375-.753-5.75-3.512-5.625s-7.526 2-9.658 8.25-2.884 11.875-3.135 19.75-.502 18.625-.502 18.625z" fill="#78df8b"/><path d="m162.294 103.999h-1.756c-.501-13.4999-7.023-21.8749-12.04-28.1249-1.129-1.5-2.132-2.875-3.136-4-2.885-3.625-4.766-5.75-5.393-8.5l-.376-1.75c-.627-2.75-.878-3.25-2.258-3.25s-6.773 1.75-8.78 7.625c-2.006 5.875-2.884 12.375-3.135 19.5-.251 4.75-.376 13-.502 18.4999h-1.63c0-5.4999.125-13.7499.376-18.6249.063-6.7929 1.163-13.5367 3.261-20 2.258-6.625 7.525-8.625 10.285-8.75 2.759-.125 3.511 2.125 4.013 4.625l.376 1.625c.628 2.375 2.384 4.5 5.143 8l3.135 3.875c4.767 6.125 11.916 15.125 12.417 29.2499z" fill="#5b59a4"/><path d="m82.1518 87.2491c.1254-6.875 2.1322-15.25 2.0068-19.125.1815-3.3667-.8406-6.6885-2.8848-9.375-2.383-3.125-5.7695-4.125-8.4034-3.125s-1.0034 4.25-3.5118 8.25c-6.2712 9.75-17.6848 16.375-17.3085 40.2499h35.1186c-2.1322-5.1249-5.0169-10.1249-5.0169-16.8749z" fill="#78df8b"/><path d="m84.7844 98.749c-.3763.25-.878 0-1.1288-.5-1.5141-3.5181-2.3237-7.2973-2.3831-11.125.1254-3.75.7526-8 1.2543-11.75.4954-2.3852.7475-4.8142.7525-7.25.1739-3.1919-.805-6.3403-2.7593-8.875-2.0068-2.625-4.8915-3.75-7.2746-2.875-2.383.875-1.1288 1-1.3797 2.75-.2025 1.8157-.8018 3.5651-1.7559 5.125-1.5051 2.375-3.261 4.5-5.0169 6.75-5.895 7.125-12.417 15.125-12.1661 33h-1.756c-.2508-18.5 6.5221-26.75 12.5424-34.125 1.7497-2.0749 3.3827-4.2449 4.8915-6.5.8006-1.4286 1.312-3 1.5051-4.625.3763-1.75.6271-3.25 2.5085-4 1.8813-.75 6.8983.25 9.2813 3.5 2.2295 2.7947 3.346 6.3109 3.1356 9.875 0 1.75-.3762 4.375-.7525 7.5s-1.1288 7.875-1.2542 11.625c.046 3.5743.8138 7.1028 2.2576 10.375.1254.5 0 1-.5017 1.125z" fill="#5b59a4"/><path d="m177.471 36.999c-1.563-.9889-2.89-2.3071-3.887-3.8621-.997-1.5549-1.639-3.3087-1.883-5.1379l-1.003-6.25c0-.1658-.066-.3248-.184-.442-.117-.1172-.277-.183-.443-.183-.167 0-.326.0658-.444.183-.117.1172-.183.2762-.183.442l-1.004 6.25c-.243 1.8292-.886 3.583-1.883 5.1379-.996 1.555-2.323 2.8732-3.886 3.8621l-.878.5c-.154.1731-.242.394-.251.625 0 .097.023.1927.066.2795.044.0868.107.1622.185.2205l.878.5c1.555 1.0269 2.874 2.3714 3.868 3.9445.995 1.5732 1.643 3.339 1.901 5.1805l1.004 6.25c0 .375.25.5.627.5.251 0 .627-.125.627-.5l1.003-6.25c.258-1.8415.906-3.6073 1.901-5.1805.995-1.5731 2.313-2.9176 3.869-3.9445l.878-.5c.078-.0583.141-.1337.184-.2205.044-.0868.066-.1825.066-.2795-.008-.231-.097-.4519-.25-.625z" fill="#fff48c"/><path d="m18.6901 96.6242h-3.5119l3.1356 1.125-1.3796 2.25 4.1389-1.75 7.4 5.3748c1.5051 1.125 1.8814.375 9.4068-9.1248l-14.4237.625z" fill="#dd3e59"/><path d="m23.9555 96.9991c-11.1627.375-17.55928-6.25-14.42369-15.25-1.88135-10 .62709-13.25 1.12879-13.875s3.1356 1.625 5.7695 3.625c6.7729-5.25 15.3017-5.875 21.4475.625 6.6474-2.875 7.9017-2.25 8.6542-2.25.7526 0 1.0034 4 .3763 7.375-.4054 2.0761-1.2616 4.0386-2.5085 5.75 1.2542 5.625-.7525 13.375-20.4441 14z" fill="#f6ca9d"/><path d="m41.2661 85.9993c-1.3797-1.625-3.6373-1.875-7.7763-1.375s-5.3932-.375-6.7729-2.25c-.4409-.6862-1.0559-1.2441-1.7827-1.6173-.7269-.3731-1.5397-.5483-2.3563-.5077-1.3796 0-3.1356.5-4.0135 3.875-7.0238 0-9.53224 5.375-8.0272 7.75 1.5051 2.375 7.1492 5.375 13.4204 5.125 8.5288-.25 13.6712-1.875 16.8068-4 .52-.4093.9488-.9221 1.2588-1.5057s.4945-1.2253.5418-1.884c.0472-.6587-.044-1.32-.2676-1.9416-.2237-.6217-.5749-1.19-1.0313-1.6687z" fill="#fff"/><path d="m43.2732 80.7491c-1.073-2.5656-2.5091-4.965-4.2644-7.125 1.9331-1.2466 4.1163-2.0572 6.3966-2.375.3763.125 1.2542 4-2.1322 9.5z" fill="#fff"/><path d="m29.5075 74.298c.1476-.6036-.551-1.2918-1.5605-1.537-1.0095-.2453-1.9475.0452-2.0952.6489-.1476.6036.551 1.2918 1.5605 1.537 1.0095.2453 1.9475-.0452 2.0952-.6489z" fill="#fff"/><path d="m18.8071 75.676c.8266-.6276 1.2244-1.4924.8886-1.9317-.3359-.4394-1.2781-.2868-2.1046.3407-.8266.6275-1.2244 1.4924-.8886 1.9317.3358.4394 1.2781.2868 2.1046-.3407z" fill="#fff"/><path d="m27.8449 80.9993c.0607-.2417.1861-.4623.3628-.6384.1768-.1762.3982-.3011.6406-.3616.4696-.2233 1.0049-.2678 1.5051-.125.4573.0883.8925.2664 1.28.5239.3876.2575.7199.5893.9776.9761 0 .125 0 .375-.1254.375h-.2508c-.6352-.4488-1.3642-.748-2.1322-.875h-.878c-.3673.0087-.7209.1409-1.0034.375-.2508 0-.3763 0-.3763-.125s-.1254-.125 0-.125z" fill="#5f131d"/><path d="m13.6693 82.4993c.1372-.4049.4009-.7554.7526-1l1.1288-.625c.4743-.0491.9529.0376 1.3796.25.2025.0862.3786.2239.5107.3995.1321.1755.2155.3826.2419.6005.1254.25 0 .375-.2509.375h-.1254c-.2171-.1623-.4812-.25-.7525-.25h-1.5051l-.878.5c-.0318.0212-.0681.0349-.106.04s-.0766.0015-.1129-.0106-.0694-.0323-.0966-.059c-.0273-.0268-.0481-.0594-.0608-.0954-.1254 0-.1254 0-.1254-.125z" fill="#5f131d"/><path d="m22.4518 83.6242c1.1084 0 2.0068-.5037 2.0068-1.125s-.8984-1.125-2.0068-1.125c-1.1083 0-2.0067.5037-2.0067 1.125s.8984 1.125 2.0067 1.125z" fill="#892b25"/><path d="m17.1831 87.8743c-.2525.0208-.5066-.0131-.7448-.0994-.2381-.0863-.4547-.223-.6348-.4006-.1735-.2784-.2756-.595-.2975-.9219-.0218-.327.0372-.6543.172-.9531.0546-.112.1491-.1997.2651-.2459.1159-.0463.2451-.0477.3621-.0041.1296.1395.2166.3129.2508.5-.2508.5-.2508.875-.1254 1s.6271.25 1.1288.25l2.8847-1 1.5051-.375 1.8814.375 3.7627.75c1.5051.25 2.6339.125 2.8847-.25.2509-.375.2509-.25 0-.75-.2508-.5.1255-.5.2509-.5.117-.0436.2461-.0422.3621.0041.116.0462.2105.1339.265.2459.1109.2469.1462.5209.1016.7877s-.1672.5146-.3524.7123c-.5017.625-1.6306.875-3.6373.625l-3.8882-.875-1.6305-.375-1.1288.5c-1.023.3657-2.0708.6581-3.1356.875z" fill="#892b25"/><path d="m21.9482 86.3742c-.0998 0-.1955-.0395-.2661-.1098-.0706-.0704-.1102-.1657-.1102-.2652v-2.375c.1254-.25.2508-.375.5017-.375.2508 0 .3763.25.3763.5l-.2509 2.25c.0046.0812-.0173.1616-.0626.2292-.0452.0677-.1113.1188-.1882.1458z" fill="#892b25"/><path d="m193.904 65.4991c1.756 2.625 4.264 10 2.383 11.125s-7.4-4.25-9.156-6.875-.878-4.75 1.003-6c1.882-1.25 4.139-.875 5.77 1.75z" fill="#7dd6af"/><path d="m195.658 77.2491c-1.254 0-2.885-1.25-4.265-2.375-1.74-1.4397-3.261-3.124-4.515-5-.401-.5294-.686-1.1365-.837-1.7824-.151-.6458-.165-1.3161-.041-1.9676.135-.5517.383-1.0695.729-1.5212.345-.4517.78-.8275 1.278-1.1038.474-.3163 1.007-.5345 1.567-.6419.56-.1073 1.136-.1016 1.694.0169 1.262.3969 2.333 1.2421 3.01 2.375 1.505 2.5 4.39 10.375 2.132 11.75zm-5.268-13.75c-.723-.0388-1.435.183-2.007.625-.431.2045-.811.5009-1.115.868-.303.3672-.522.7963-.641 1.257-.115 1.1538.197 2.3098.878 3.25 1.244 1.8089 2.72 3.4479 4.39 4.875 2.007 1.625 3.512 2.375 4.139 2s.753-2.125 0-4.625c-.499-2.1438-1.302-4.206-2.383-6.125-.578-1.0139-1.518-1.7729-2.634-2.125z" fill="#378a84"/><path d="m204.942 74.1241c-2.508 1.875-9.532 5.125-10.912 3.375-1.379-1.75 3.512-7.75 5.895-9.625s4.766-1.375 6.146.25 1.38 4-1.129 6z" fill="#7dd6af"/><path d="m195.407 78.3741c-.753 0-1.38-.125-1.631-.625s3.763-8.5 6.02-10.25c1.023-.838 2.314-1.2816 3.638-1.25.577.0732 1.132.2669 1.629.5685.497.3015.925.7041 1.255 1.1815.372.4221.644.9221.796 1.463s.18 1.1089.082 1.662c-.098.6484-.326 1.2704-.671 1.8289-.344.5584-.799 1.0418-1.335 1.4211-1.867 1.2903-3.89 2.3403-6.021 3.125-1.192.5125-2.466.8088-3.762.875zm7.65-11.375c-1.056.0624-2.066.4562-2.884 1.125-1.644 1.4546-3.116 3.09-4.39 4.875-1.38 2.125-2.007 3.75-1.505 4.375.501.625 2.257.375 4.64-.5 2.06-.7154 4.003-1.726 5.77-3 .984-.6729 1.66-1.7065 1.881-2.875.057-.4749.007-.9565-.144-1.4102-.152-.4538-.402-.8686-.734-1.2148-.552-.7245-1.358-1.2153-2.257-1.375z" fill="#378a84"/><path d="m196.287 76.9992h-.376l-5.644-9.375c0-.125 0-.375.125-.375.126 0 .377-.125.502 0l5.644 9.375c.067.0165.124.0588.159.1174s.046.1288.029.1951c-.016.0663-.059.1233-.118.1584-.058.0352-.129.0456-.195.0291z" fill="#378a84"/><path d="m194.406 77.7491h-.251c-.062-.0688-.096-.1578-.096-.25 0-.0923.034-.1813.096-.25l8.278-7.125h.501c.062.0687.096.1577.096.25 0 .0922-.034.1812-.096.25l-8.278 7.125z" fill="#378a84"/><path d="m195.909 74.749c-7.902-6.625-17.811-.625-17.309 9.375s7.024 19.25 17.685 19.25c8.529 0 16.807-8.25 17.308-19.25.502-11-11.413-16-17.684-9.375z" fill="#ffc194"/><path d="m196.287 103.749c-2.488.001-4.943-.561-7.181-1.644s-4.2-2.6575-5.738-4.6059c-2.98-3.8666-4.766-8.5139-5.142-13.375-.203-2.2871.271-4.5833 1.363-6.6048 1.092-2.0216 2.755-3.68 4.783-4.7702 1.862-.8911 3.944-1.2237 5.993-.9574 2.048.2663 3.975 1.12 5.546 2.4574 1.421-1.4059 3.237-2.3496 5.207-2.7067 1.97-.357 4.003-.1106 5.83.7067 2.288.9738 4.205 2.6515 5.468 4.788 1.264 2.1365 1.809 4.6198 1.556 7.087-.502 10.625-8.529 19.6249-17.685 19.6249zm-7.526-31.3749c-1.404-.0403-2.793.3057-4.013 1-3.888 1.875-6.021 6-5.77 10.75.753 12.25 9.407 18.9999 17.309 18.9999s16.556-8.7499 17.057-18.9999c.251-6.125-3.261-9.875-6.772-11.25-1.738-.788-3.682-1.0068-5.552-.625-1.871.3817-3.572 1.3445-4.859 2.75-.069.0615-.158.0955-.25.0955-.093 0-.182-.034-.251-.0955-1.918-1.6566-4.361-2.5861-6.899-2.625z" fill="#f46d59"/><g fill="#632b26"><path d="m188.009 85.749h-5.518c-.1 0-.196-.0395-.267-.1099-.07-.0703-.11-.1657-.11-.2651 0-.25.126-.5.377-.5h5.518c.066 0 .131.0129.192.038.061.0252.116.062.163.1084s.083.1016.109.1622c.025.0607.038.1257.038.1914 0 .25-.251.375-.502.375z"/><path d="m186.253 87.624c-.599 0-1.173-.2371-1.596-.659-.424-.422-.661-.9943-.661-1.591 0-.0657.013-.1307.038-.1914.025-.0606.062-.1158.109-.1622.046-.0464.101-.0832.162-.1084.061-.0251.126-.038.192-.038h3.512c.066 0 .131.0129.192.038.061.0252.116.062.163.1084s.083.1016.109.1622c.025.0607.038.1257.038.1914 0 .5967-.238 1.169-.661 1.591-.424.4219-.998.659-1.597.659z"/><path d="m204.69 85.749h-5.519c-.251 0-.502-.125-.502-.375 0-.0657.013-.1307.038-.1914.026-.0606.063-.1158.109-.1622.047-.0464.102-.0832.163-.1084.061-.0251.126-.038.192-.038h5.519c.065 0 .131.0129.192.038.06.0252.116.062.162.1084.047.0464.084.1016.109.1622.025.0607.038.1257.038.1914 0 .25-.251.375-.501.375z"/><path d="m202.934 87.624c-.611.0008-1.199-.2322-1.643-.6509-.443-.4187-.708-.9912-.74-1.5991 0-.0657.013-.1307.038-.1914.025-.0606.062-.1158.108-.1622.047-.0464.102-.0832.163-.1084.061-.0251.126-.038.192-.038h3.638c.065 0 .131.0129.192.038.06.0252.116.062.162.1084.047.0464.084.1016.109.1622.025.0607.038.1257.038.1914 0 .5967-.238 1.169-.661 1.591-.423.4219-.998.659-1.596.659z"/><path d="m194.278 88.7489c-.619.0233-1.227-.1613-1.727-.524-.501-.3627-.864-.8825-1.033-1.476-.043-.1166-.042-.2452.005-.3608.046-.1156.134-.2098.246-.2642.131-.0107.262.0197.374.087.113.0673.201.168.253.288.131.3961.383.7415.72.988s.744.3818 1.162.387c.396-.03.775-.1768 1.087-.4216.313-.2448.546-.5766.669-.9534.052-.12.14-.2207.253-.288.112-.0673.243-.0977.374-.087.112.0544.2.1486.247.2642.046.1156.047.2442.004.3608-.144.5834-.483 1.1002-.962 1.4641-.48.364-1.07.5532-1.672.5359z"/></g><path d="m205.444 90.4992c1.247 0 2.258-.5037 2.258-1.125s-1.011-1.125-2.258-1.125-2.258.5037-2.258 1.125 1.011 1.125 2.258 1.125z" fill="#ff9d7e"/><path d="m183.245 90.4992c1.247 0 2.258-.5037 2.258-1.125s-1.011-1.125-2.258-1.125-2.258.5037-2.258 1.125 1.011 1.125 2.258 1.125z" fill="#ff9d7e"/><path d="m188.887 99.2491h-.251c-.125-.125-.125-.25 0-.5 2.885-3.5 3.136-4.875 2.634-5.75l-.627-.25c-1.004-.25-2.885.75-4.766 2.5h-.502c-.062-.0688-.096-.1578-.096-.25s.034-.1813.096-.25c2.007-1.875 4.139-2.875 5.393-2.75.225.0045.446.0638.643.1728.196.1089.363.2642.486.4522.753 1.375.125 3.125-2.759 6.625 0 0-.126 0-.251 0z" fill="#f46d59"/><path d="m196.914 92.7491c-.201.3909-.296.8278-.274 1.2668.022.4389.16.8642.399 1.2332l-.878.25h-.376l-5.644-1.125c-.242-.0252-.476-.1041-.683-.231-.208-.127-.385-.2987-.517-.5025s-.217-.4346-.248-.6754c-.031-.2409-.008-.4855.068-.7161.063-.4088.279-.7787.605-1.0341.326-.2555.738-.3774 1.151-.3409h.377l5.644 1.125.878.5c-.251-.125-.377 0-.502.25z" fill="#fff"/><path d="m199.55 99.249h-.251c-2.885-3.5-3.512-5.25-2.634-6.625.103-.1784.248-.3288.423-.4378.175-.1091.375-.1734.58-.1872 1.38-.125 3.387.875 5.394 2.75.066-.0166.137-.0062.195.029.059.0352.102.0922.118.1585.017.0663.006.1365-.029.1951s-.092.1008-.159.1174h-.502c-1.881-1.75-3.762-2.75-4.891-2.5l-.627.25c-.502.875-.251 2.25 2.634 5.75.125.25.125.375 0 .5z" fill="#f46d59"/><path d="m193.401 78.3742h-.125c-.125-.125-.251-.25-.125-.5.628-1.2646 1.477-2.4075 2.508-3.375.07-.0334.149-.0443.226-.0312s.147.0496.202.1044c.055.0549.092.1253.105.2018.013.0764.002.155-.031.225-1.013.9063-1.824 2.0133-2.383 3.25z" fill="#f46d59"/></g></svg>