<?xml version="1.0" encoding="UTF-8" standalone="no"?>
<svg width="28px" height="40px" viewBox="0 0 28 40" version="1.1" xmlns="http://www.w3.org/2000/svg" xmlns:xlink="http://www.w3.org/1999/xlink" xmlns:sketch="http://www.bohemiancoding.com/sketch/ns">
    <!-- Generator: Sketch 3.4.4 (17249) - http://www.bohemiancoding.com/sketch -->
    <title>icon-file-small-document</title>
    <desc>Created with Sketch.</desc>
    <defs>
        <filter x="-50%" y="-50%" width="200%" height="200%" filterUnits="objectBoundingBox" id="filter-1">
            <feOffset dx="0" dy="2" in="SourceAlpha" result="shadowOffsetOuter1"></feOffset>
            <feGaussianBlur stdDeviation="0" in="shadowOffsetOuter1" result="shadowBlurOuter1"></feGaussianBlur>
            <feColorMatrix values="0 0 0 0 0   0 0 0 0 0   0 0 0 0 0  0 0 0 0.07 0" in="shadowBlurOuter1" type="matrix" result="shadowMatrixOuter1"></feColorMatrix>
            <feMerge>
                <feMergeNode in="shadowMatrixOuter1"></feMergeNode>
                <feMergeNode in="SourceGraphic"></feMergeNode>
            </feMerge>
        </filter>
    </defs>
    <g id="Drag-&amp;-Drop" stroke="none" stroke-width="1" fill="none" fill-rule="evenodd" sketch:type="MSPage">
        <g id="Desktop-HD---Drag-&amp;-Drop,-Small-Icons---Dark" sketch:type="MSArtboardGroup" transform="translate(-538.000000, -524.000000)">
            <g id="Group" sketch:type="MSLayerGroup" transform="translate(404.000000, 526.000000)">
                <g id="icon-file-small-document" transform="translate(136.000000, 0.000000)" sketch:type="MSShapeGroup">
                    <g id="Group">
                        <path d="M0,3.00741988 C0,1.34646775 1.34252415,0 2.99998588,0 L15.1166483,0 C17.0807354,0 24,6.91885725 24,8.87457593 L24,33.0035574 C24,34.6584469 22.6582294,36 21.0089096,36 L2.99109042,36 C1.33915679,36 0,34.6544607 0,32.9925801 L0,3.00741988 Z" id="Rectangle-113" stroke="#7289DA" stroke-width="2" fill="#F4F6FC"></path>
                        <path d="M17,1.09677336 C17,0.542040316 17.3147964,0.407097791 17.7133118,0.80556379 L23.1952031,6.28677654 C23.5891543,6.68067898 23.4552279,7 22.9039575,7 L18.0045574,7 C17.4497557,7 17,6.54676916 17,5.99556698 L17,1.09677336 Z" id="Path" stroke="#7289DA" stroke-width="2" fill="#F4F6FC" filter="url(#filter-1)"></path>
                        <path d="M2,9 L12,9 L12,10 L2,10 L2,9 Z M2,7 L12,7 L12,8 L2,8 L2,7 Z M2,13 L22,13 L22,14 L2,14 L2,13 Z M2,11 L12,11 L12,12 L2,12 L2,11 Z M2,15 L22,15 L22,16 L2,16 L2,15 Z M2,17 L22,17 L22,18 L2,18 L2,17 Z M2,19 L22,19 L22,20 L2,20 L2,19 Z M2,21 L22,21 L22,22 L2,22 L2,21 Z M2,23 L22,23 L22,24 L2,24 L2,23 Z M2,25 L22,25 L22,26 L2,26 L2,25 Z M2,27 L22,27 L22,28 L2,28 L2,27 Z M2,29 L22,29 L22,30 L2,30 L2,29 Z M2,31 L22,31 L22,32 L2,32 L2,31 Z" id="Rectangle-128" opacity="0.600000024" fill="#697EC4"></path>
                    </g>
                </g>
            </g>
        </g>
    </g>
</svg>