<?xml version="1.0" encoding="utf-8"?>
<!-- Generator: Adobe Illustrator 17.1.0, SVG Export Plug-In . SVG Version: 6.00 Build 0)  -->
<!DOCTYPE svg PUBLIC "-//W3C//DTD SVG 1.1//EN" "http://www.w3.org/Graphics/SVG/1.1/DTD/svg11.dtd">
<svg version="1.1" id="Layer_1" xmlns="http://www.w3.org/2000/svg" xmlns:xlink="http://www.w3.org/1999/xlink" x="0px" y="0px"
	 viewBox="-10 -3 36 22" enable-background="new -10 -3 36 22" xml:space="preserve">
<g opacity="0.6">
	<path d="M26,16c0,1.6-1.3,3-3,3H-7c-1.7,0-3-1.4-3-3V0c0-1.7,1.3-3,3-3h30c1.7,0,3,1.3,3,3V16z"/>
</g>
<path fill="#FFFFFF" d="M22-1H-6c-1.1,0-2,0.9-2,2v14c0,1.1,0.9,2,2,2h28c1.1,0,2-0.9,2-2V1C24-0.1,23.1-1,22-1z M6.3,13.2H4.9
	l-0.2-1.1c-0.4,0.5-0.8,0.9-1.3,1.1c-0.5,0.2-1,0.3-1.4,0.3c-0.8,0-1.5-0.1-2.1-0.4s-1.1-0.6-1.5-1.1s-0.7-1-1-1.6
	C-2.9,9.7-3,9-3,8.3c0-0.7,0.1-1.4,0.3-2.1c0.2-0.6,0.5-1.2,1-1.7s0.9-0.8,1.5-1.1C0.5,3.2,1.2,3,1.9,3c0.5,0,1,0.1,1.5,0.2
	c0.5,0.2,0.9,0.4,1.3,0.7c0.4,0.3,0.7,0.7,1,1.1C5.9,5.5,6.1,6,6.1,6.5H4C3.9,6,3.7,5.6,3.3,5.3C2.9,5,2.5,4.9,1.9,4.9
	C1.4,4.9,1,5,0.7,5.2C0.3,5.3,0,5.6-0.2,5.9C-0.4,6.2-0.5,6.6-0.6,7s-0.1,0.8-0.1,1.3c0,0.4,0,0.8,0.1,1.2s0.3,0.8,0.5,1.1
	c0.2,0.3,0.5,0.6,0.8,0.8s0.8,0.3,1.3,0.3c0.7,0,1.3-0.2,1.7-0.6c0.4-0.4,0.6-0.9,0.7-1.6H2.1V7.8h4.2V13.2z M10.3,13.2H8.1v-10h2.2
	V13.2z M19.2,5.1h-4.8v2.3h4.2v1.7h-4.2v4.1h-2.2v-10h7V5.1z"/>
</svg>
