<svg fill="none" height="96" viewBox="0 0 120 96" width="120" xmlns="http://www.w3.org/2000/svg"><circle cx="60" cy="48" fill="#202225" r="40"/><path d="m79.414 64.586-10.786-10.786c2.178-2.792 3.372-6.202 3.372-9.8 0-4.274-1.666-8.292-4.688-11.312-3.02-3.024-7.038-4.688-11.312-4.688s-8.292 1.664-11.312 4.688c-3.022 3.02-4.688 7.038-4.688 11.312s1.666 8.292 4.688 11.312c3.02 3.024 7.038 4.688 11.312 4.688 3.598 0 7.008-1.192 9.8-3.372l10.786 10.784zm-23.414-8.586c-3.206 0-6.218-1.248-8.484-3.514-2.268-2.266-3.516-5.28-3.516-8.486 0-3.204 1.248-6.218 3.516-8.484 2.266-2.268 5.278-3.516 8.484-3.516s6.218 1.248 8.484 3.516c2.268 2.266 3.516 5.28 3.516 8.484 0 3.206-1.248 6.22-3.516 8.486-2.266 2.266-5.278 3.514-8.484 3.514z" fill="#b9bbbe"/><g fill="#58f287"><path d="m103.671 1.80634c0-.997616-.808-1.80634-1.806-1.80634s-1.806.808724-1.806 1.80634v1.83644c0 .99761.808 1.80633 1.806 1.80633s1.806-.80872 1.806-1.80633z"/><path d="m103.671 16.3574c0-.9977-.808-1.8064-1.806-1.8064s-1.806.8087-1.806 1.8064v1.8364c0 .9976.808 1.8063 1.806 1.8063s1.806-.8087 1.806-1.8063z"/><path d="m110.194 11.8411c.997 0 1.806-.8088 1.806-1.8064 0-.99758-.809-1.80631-1.806-1.80631h-1.837c-.997 0-1.806.80873-1.806 1.80631 0 .9976.809 1.8064 1.806 1.8064z"/><path d="m95.6429 11.7412c.9976 0 1.8063-.8087 1.8063-1.80632s-.8087-1.80634-1.8063-1.80634h-1.8365c-.9976 0-1.8063.80872-1.8063 1.80634s.8087 1.80632 1.8063 1.80632z"/></g><path d="m19.1501 90.4573 4.1646-1.3889c.2045-.0937.3778-.2443.4993-.4337.1214-.1893.186-.4097.186-.6347s-.0646-.4454-.186-.6347c-.1215-.1894-.2948-.34-.4993-.4337l-4.1646-1.3889c-.2844-.1285-.5123-.3565-.6407-.6411l-1.4949-4.1668c-.0703-.2138-.2062-.3999-.3883-.5318-.1822-.132-.4013-.203-.6262-.203s-.444.071-.6262.203c-.1821.1319-.318.318-.3883.5318l-1.4949 4.1668c-.1284.2846-.3563.5126-.6407.6411l-4.16462 1.3889c-.20448.0937-.37776.2443-.49924.4337-.12147.1893-.18604.4097-.18604.6347s.06457.4454.18604.6347c.12148.1894.29476.34.49924.4337l4.16462 1.3889c.1512.0459.2888.1285.4006.2403.1117.1118.1942.2495.2401.4008l1.4949 4.1668c.0703.2138.2062.3999.3883.5318.1822.132.4013.203.6262.203s.444-.071.6262-.203c.1821-.1319.318-.318.3883-.5318l1.4949-4.1668c.0459-.1513.1284-.289.2401-.4008.1118-.1118.2494-.1944.4006-.2403z" fill="#ffd01a"/></svg>