<svg xmlns="http://www.w3.org/2000/svg" xmlns:xlink="http://www.w3.org/1999/xlink" width="251" height="227" viewBox="0 0 251 227">
    <defs>
        <path id="a" d="M.288.404h244.696v151.792H.288z"/>
        <path id="c" d="M0 .333h250.984V221H0z"/>
        <path id="e" d="M.142.204h3.183v3.183H.142z"/>
    </defs>
    <g fill="none" fill-rule="evenodd">
        <g transform="translate(6 52.796)">
            <mask id="b" fill="#fff">
                <use xlink:href="#a"/>
            </mask>
            <path fill="#4F545C" d="M208.52 152.196H27.37c-11.694 0-21.175-9.48-21.175-21.176 0-11.695 9.48-21.176 21.175-21.176h1.648c17.116 0 30.99-13.875 30.99-30.99 0-17.116-13.874-30.99-30.99-30.99h-5.085C10.873 47.863.287 37.276.287 24.217.288 11.14 10.902.545 23.98.573 55.478.64 126.548.498 157.416.404c12.4-.037 22.47 10.004 22.47 22.404v29.934c0 14.65.304 26.526 14.954 26.526h14.775c19.535 0 35.37 15.836 35.37 35.37v1.094c0 20.14-16.326 36.464-36.465 36.464" mask="url(#b)" opacity=".3"/>
        </g>
        <path fill="#ACB0FF" d="M82.985 87.168a1 1 0 0 0 1-1l-.003-8.362a.997.997 0 0 1 1-1H99.984a1 1 0 0 0 1-1V58.673a1 1 0 0 0-1-1H85.981a1 1 0 0 0-1 1v8.495a1 1 0 0 1-1 1h-9.997a1 1 0 0 1-1-1v-8.495a1 1 0 0 0-1-1H59.982a1 1 0 0 0-1 1v8.495a1 1 0 0 1-1 1h-9.997a1 1 0 0 1-1-1v-8.495a1 1 0 0 0-1-1h-5.997a1 1 0 0 0-1 1v27.495a1 1 0 0 0 1 1h42.997zM187.989 87.168h59.996a1 1 0 0 0 1-1V58.673a1 1 0 0 0-1-1H233.98a1 1 0 0 0-1 1v8.495a1 1 0 0 1-1 1h-9.996a1 1 0 0 1-1-1v-8.495a1 1 0 0 0-1-1h-12.002a1 1 0 0 0-1 1v8.495a1 1 0 0 1-1 1h-9.997a1 1 0 0 1-1-1v-8.495a1 1 0 0 0-1-1h-5.997a1 1 0 0 0-1 1v27.495a1 1 0 0 0 1 1M70.207 209.263h-3.464a1 1 0 0 0-1 1v3.2a1 1 0 0 1-2 0v-3.2a1 1 0 0 0-1-1h-8.76a1 1 0 0 1 0-2h16.224a1 1 0 0 1 0 2zm13.83-2.91a.996.996 0 0 0-.202-.6l-18.572-24.639c-4.215-5.59-5.334-11.077-3.154-15.45 2.68-5.375 10.018-8.457 20.137-8.457.25 0 .5.002.75.006a.996.996 0 0 0 1.02-.993l-.01-20.892c-.005-.042-.025-.08-.025-.123 0-.044.02-.08.026-.123l-.003-4.883a1 1 0 0 0-1-1H53.982a1 1 0 0 1 0-2H62.7a1 1 0 0 0 1-1v-8.016a1 1 0 1 1 2 0v8.016a1 1 0 0 0 1 1h16.302a1 1 0 0 0 1-1l-.014-36.032c-.001-.552-.448-1-1-1H77.2a1 1 0 0 0-1 1v16.016a1 1 0 0 0 1 1h1.79a1 1 0 0 1 0 2H60.456a1 1 0 0 1 0-2h12.745a1 1 0 0 0 1-1V90.167a1 1 0 0 0-1-1H45.983a1 1 0 0 0-1 1v16.016a1 1 0 0 0 1 1h5.224a1 1 0 0 1 0 2h-5.224a1 1 0 0 0-1 1v36.032a1 1 0 0 0 1 1h7.224a1 1 0 0 1 0 2h-7.224a1 1 0 0 0-1 1v16.016a1 1 0 0 0 1 1h11.224a1 1 0 0 1 0 2H45.983a1 1 0 0 0-1 1v16.016a1 1 0 0 0 1 1h5.55a1 1 0 0 0 1-1v-8.016a1 1 0 0 1 2 0v8.016a1 1 0 0 0 1 1h.673a1 1 0 0 1 0 2H45.983a1 1 0 0 0-1 1v33.55a1 1 0 0 0 1 1h37.063a1 1 0 0 0 1-1.002l-.008-17.442z"/>
        <path fill="#ACB0FF" d="M97.867 121.213a1 1 0 0 1-1-1v-3.425a1 1 0 0 1 2 0v3.425a1 1 0 0 1-1 1zm-.875-42.407h-10.01a1 1 0 0 0-1 1l.024 53.4c0 .552.448 1 1 1h8.86a1 1 0 0 0 1-1V128.2a1 1 0 0 1 2 0v5.006a1 1 0 0 0 1 1h2.34a1 1 0 1 1 0 2H87.009a1 1 0 0 0-1 1l.008 19.223c0 .518.396.945.913.988 3.873.333 7.858 1.06 11.814 2.114v-.736c0-.507.015-1.012.04-1.514a1 1 0 0 0-.995-1.06h-4.806a1 1 0 1 1 0-2h5.224c.492 0 .9-.36.979-.846 2.604-16.18 16.656-28.58 33.558-28.58 1.934 0 3.828.171 5.675.483.028.005.056.008.084.015 14.252 2.444 25.497 13.782 27.799 28.082a.994.994 0 0 0 .979.845h2.754a1 1 0 0 0 1-1v-6.757a1 1 0 0 1 2 0v6.757a1 1 0 0 0 1 1h6.173a1 1 0 0 1 0 2h-12.51a1 1 0 0 0-.994 1.06c.025.502.04 1.007.04 1.516v34.458a1 1 0 0 0 1 1H181.7a1 1 0 0 0 1-1v-16.017a1 1 0 0 0-1-1h-8.493a1 1 0 1 1 0-2h17.576c.07 0 .133.026.2.04V117.19a1 1 0 0 0-1-1h-34.776a1 1 0 0 1 0-2H171.2a1 1 0 0 0 1-1v-12.017a1 1 0 0 1 2 0v12.016a1 1 0 0 0 1 1h14.783a1 1 0 0 0 1-1V97.173a1 1 0 0 0-1-1h-49.1a1 1 0 0 0-1 1v5.29a1 1 0 0 1-2 0v-5.29a1 1 0 0 0-1-1h-5.676a1 1 0 1 1 0-2h19.808a1 1 0 0 0 1-1V79.805a1 1 0 0 0-1-1h-27.003a1 1 0 0 0-1 1v12.013a4 4 0 0 1-4 4H109.984a4 4 0 0 1-4-4V79.805a1 1 0 0 0-1-1h-7.992zM203.534 169.232a1 1 0 0 0-1 1v11.23a1 1 0 0 1-2 0v-11.23a1 1 0 0 0-1-1h-3.551a1 1 0 1 1 0-2h35.224a1 1 0 0 1 0 2h-27.673zm14.453 20.016h-4.78a1 1 0 0 1 0-2h4.78a1 1 0 0 1 0 2zm9 0h-.78a1 1 0 0 1 0-2h.78a1 1 0 0 1 0 2zm16.004 34.548v-33.548a1 1 0 0 0-1-1h-11.002a1 1 0 0 1 0-2h11.002a1 1 0 0 0 1-1V130.2a1 1 0 0 0-1-1h-40.008a1 1 0 1 1 0-2h8.718a1 1 0 0 0 1-1v-8.017a1 1 0 1 1 2 0v8.016a1 1 0 0 0 1 1h27.29a1 1 0 0 0 1-1V90.168a1 1 0 0 0-1-1H225.2a1 1 0 0 0-1 1v16.015a1 1 0 0 0 1 1h1.79a1 1 0 1 1 0 2h-18.534a1 1 0 0 1 0-2H221.2a1 1 0 0 0 1-1V90.167a1 1 0 0 0-1-1h-27.218a1 1 0 0 0-1 1v16.016a1 1 0 0 0 1 1h5.224a1 1 0 1 1 0 2h-5.224a1 1 0 0 0-1 1v36.032a1 1 0 0 0 1 1h7.224a1 1 0 0 1 0 2h-7.224a1 1 0 0 0-1 1v56.048a1 1 0 0 0 1 1h27.224a1 1 0 1 1 0 2h-27.224a1 1 0 0 0-1 1v13.532a1 1 0 0 0 1 1h48.008a1 1 0 0 0 1-1z"/>
        <path fill="#7B80D6" d="M114.99 92.819V79.805a1 1 0 0 0-1-1h-5.006a1 1 0 0 0-1 1v13.014a1 1 0 0 0 1 1h5.007a1 1 0 0 0 1-1M146.015 79.805V92.82a1 1 0 0 0 1 1h7a1 1 0 0 0 1-1V79.805a1 1 0 0 0-1-1h-7a1 1 0 0 0-1 1"/>
        <path fill="#202225" d="M70.207 207.263H53.983a1 1 0 0 0 0 2h8.76a1 1 0 0 1 1 1v3.2a1 1 0 1 0 2 0v-3.2a1 1 0 0 1 1-1h3.464a1 1 0 0 0 0-2"/>
        <path fill="#ACB0FF" d="M97.054 224.796h1.14l-10.356-13.735c-.578-.766-1.799-.358-1.799.602l.006 12.133a1 1 0 0 0 1 1h10.009z"/>
        <g transform="translate(0 5.796)">
            <mask id="d" fill="#fff">
                <use xlink:href="#c"/>
            </mask>
            <path fill="#202225" d="M191.989 79.372a5 5 0 0 1-5-5V55.875a3.998 3.998 0 0 1 7.997 0v5.497a1 1 0 0 0 1 1h9.997a1 1 0 0 0 1-1v-5.497a3.998 3.998 0 0 1 3.998-3.998h6.005a3.998 3.998 0 0 1 3.999 3.998v5.497a1 1 0 0 0 1 1h9.996a1 1 0 0 0 1-1v-5.497a3.998 3.998 0 0 1 3.999-3.998h8.006a3.998 3.998 0 0 1 3.999 3.998v18.497a5 5 0 0 1-5 5h-51.996zm51.002 38.032a4 4 0 0 1-4 4H217.04a3.34 3.34 0 0 1-3.34-3.34v-5.676a1 1 0 1 0-2 0v5.676a3.34 3.34 0 0 1-3.34 3.34h-6.377a1 1 0 1 0 0 2h37.008a4 4 0 0 1 4 4v50.048a4 4 0 0 1-4 4h-8.002a1 1 0 0 0 0 2h8.002a4 4 0 0 1 4 4V216a3 3 0 0 1-3 3h-44.008a3 3 0 0 1-3-3v-6.532a6 6 0 0 1 6-6h22.224a1 1 0 0 0 0-2h-22.224a6 6 0 0 1-6-6V148.42a5 5 0 0 1 5-5h3.224a1 1 0 0 0 0-2h-3.224a5 5 0 0 1-5-5v-32.032a1 1 0 0 1 1-1h5.224a1 1 0 0 0 0-2h-2.224a4 4 0 0 1-4-4V87.372a4 4 0 0 1 4-4H218.2a4 4 0 0 1 4 4v10.016a4 4 0 0 1-4 4h-9.743a1 1 0 1 0 0 2h18.534a1 1 0 0 0 0-2H225.2a1 1 0 0 1-1-1V84.372a1 1 0 0 1 1-1h16.79a1 1 0 0 1 1 1v33.032zM188.48 88.377h-17.436a7 7 0 0 1-7-7V77.01a4 4 0 0 1 4-4h10.945a6 6 0 0 1 6 6v.87a3.491 3.491 0 0 0 3.49 3.492 2.503 2.503 0 0 1 0 5.005zm2.503 19.016a1 1 0 0 1-1 1H178.2a4 4 0 0 1-4-4v-9.016a1 1 0 1 0-2 0v9.016a4 4 0 0 1-4 4h-12.993a1 1 0 0 0 0 2h34.776a1 1 0 0 1 1 1v53.048a4 4 0 0 1-4 4h-13.776a1 1 0 0 0 0 2h4.944a4.55 4.55 0 0 1 4.549 4.55v8.917a4.55 4.55 0 0 1-4.55 4.549h-7.407a4 4 0 0 1-4-4v-31.482a2.555 2.555 0 0 1 2.548-2.55h10.916a1 1 0 0 0 0-2h-3.833a3.34 3.34 0 0 1-3.34-3.34v-4.418a1 1 0 0 0-2 0v4.418a3.34 3.34 0 0 1-3.34 3.34h-.414a.994.994 0 0 1-.98-.845c-2.301-14.3-13.546-25.64-27.798-28.082-.028-.007-.056-.01-.084-.015a34.033 34.033 0 0 0-5.675-.483c-15.598 0-28.77 10.56-32.755 24.906-.734 2.643-3.07 4.519-5.813 4.519h-1.193a1 1 0 0 0 0 2h4.806a1 1 0 0 1 .995 1.06c-.025.502-.04 1.007-.04 1.515v.736c-3.956-1.055-7.942-1.781-11.814-2.114a.992.992 0 0 1-.913-.99l-.008-19.222a1 1 0 0 1 1-1h15.199a1 1 0 0 0 0-2 3.34 3.34 0 0 1-3.34-3.34v-2.666a1 1 0 0 0-2 0v2.666a3.34 3.34 0 0 1-3.34 3.34h-6.521c-.552 0-1-.448-1-1l-.021-50.398a4 4 0 0 1 4-4.002h11.999a4 4 0 0 1 4 4v9.013a4 4 0 0 0 4 4h9.027a4 4 0 0 0 4-4V77.01a4 4 0 0 1 4-4h14.165a3.839 3.839 0 0 1 3.839 3.839 1 1 0 0 0 2 0v-.84a3 3 0 0 1 3-3h2.008a3 3 0 0 1 3 3v9.014a3 3 0 0 1-3 3h-2.008a3 3 0 0 1-3-3V83.8a1 1 0 0 0-2 0v.737a3.839 3.839 0 0 1-3.84 3.839h-9.968a1 1 0 0 0 0 2h5.676a1 1 0 0 1 1 1v5.29a1 1 0 1 0 2 0v-5.29a1 1 0 0 1 1-1h49.1a1 1 0 0 1 1 1v16.016zm0 100.08a1 1 0 0 1-1 1H183.7a1 1 0 1 0 0 2h6.283a1 1 0 0 1 1 1V218a1 1 0 0 1-1 1h-22.24a1 1 0 0 1-1-1v-23.543a4 4 0 0 1 4-4h16.04a1 1 0 1 0 0-2H185.7a1 1 0 0 1-1-1V171.44a1 1 0 0 1 1-1h5.283v37.033zm-26.24 5.947c0 .96-1.221 1.369-1.798.602l-30.086-39.908c-4.48-5.941-11.95-11.352-20.535-15.403a.992.992 0 0 1-.572-.897V153c0-15.56 11.028-28.737 26.277-31.486.128-.023.26-.023.389 0 14.946 2.688 26.325 15.779 26.325 31.486v60.42zm-64-59.86V153c0-15.296 10.79-28.113 25.158-31.254 1.106-.241 1.713 1.27.734 1.838-10.223 5.924-16.883 16.952-16.883 29.416v3.054a.998.998 0 0 1-1.382.92 81.032 81.032 0 0 0-6.921-2.463.994.994 0 0 1-.706-.951zM162.186 219h-61.49L66.86 174.114c-3.733-4.951-4.784-9.694-2.96-13.353 2.328-4.671 9.016-7.35 18.348-7.35 17.92 0 39.909 9.828 49.015 21.907l31.723 42.08a1 1 0 0 1-.8 1.602zm-75.141 0a1 1 0 0 1-1-1l-.004-8.934c-.001-1.986 2.527-2.833 3.723-1.247l8.429 11.18H87.045zm-6.001 0H47.983a3 3 0 0 1-3-3v-31.548a1 1 0 0 1 1-1h10.224a1 1 0 0 0 0-2h-.673a1 1 0 0 1-1-1v-8.016a1 1 0 0 0-2 0v8.016a1 1 0 0 1-1 1h-2.551a4 4 0 0 1-4-4v-8.016a6 6 0 0 1 6-6h6.224a1 1 0 0 0 0-2H45.983a1 1 0 0 1-1-1V146.42a3 3 0 0 1 3-3h5.224a1 1 0 0 0 0-2h-5.224a3 3 0 0 1-3-3v-34.032a1 1 0 0 1 1-1h5.224a1 1 0 0 0 0-2h-1.224a5 5 0 0 1-5-5v-8.016a5 5 0 0 1 5-5H69.2a5 5 0 0 1 5 5v8.016a5 5 0 0 1-5 5h-8.743a1 1 0 1 0 0 2H78.99a1 1 0 0 0 0-2H77.2a1 1 0 0 1-1-1V84.372a1 1 0 0 1 1-1h5.788a1 1 0 0 1 1 1l.015 36.03a1 1 0 0 1-1 1.002H69.427a3.727 3.727 0 0 1-3.727-3.727v-5.29a1 1 0 1 0-2 0v5.29a3.727 3.727 0 0 1-3.726 3.727h-5.991a1 1 0 1 0 0 2h26.023a4 4 0 0 1 4 3.998v1.885c-.004.042-.024.079-.024.123 0 .043.02.08.025.123l.009 20.158c0 .963-.79 1.722-1.752 1.72h-.017c-10.12 0-17.46 3.083-20.137 8.457-2.181 4.374-1.061 9.86 3.152 15.45l18.574 24.638c.13.174.2.385.202.602l.006 15.44a2.999 2.999 0 0 1-3 3.002zM38.989 74.372V55.875a3.998 3.998 0 0 1 7.997 0v5.497a1 1 0 0 0 1 1h9.997a1 1 0 0 0 1-1v-5.497a3.998 3.998 0 0 1 3.998-3.998h6.005a3.998 3.998 0 0 1 3.999 3.998v5.497a1 1 0 0 0 1 1h9.996a1 1 0 0 0 1-1v-5.497a3.998 3.998 0 0 1 3.999-3.998h8.006a3.998 3.998 0 0 1 3.999 3.998V70.01a1 1 0 0 1-1 1H84.982a1 1 0 0 0-1 1l.002 2.36a4.998 4.998 0 0 1-4.998 5.002H43.989a5 5 0 0 1-5-5zm68.995 1.638a3 3 0 0 1 3-3h1.007a3 3 0 0 1 3 3v9.013a3 3 0 0 1-3 3h-1.007a3 3 0 0 1-3-3V76.01zm-72.98 73.566l-11-9.452-11 9.452v-56.33a1 1 0 0 1 2 0v45.225a1 1 0 0 0 1.486.874l7.514-7.514 7.514 7.514a1.003 1.003 0 0 0 .993-.013.997.997 0 0 0 .493-.861V93.246a1 1 0 0 1 2 0v56.33zm-18-52.253a5.078 5.078 0 0 1 5.077-5.077h3.846a5.077 5.077 0 0 1 5.077 5.077v37.446l-7-7.228-7 7.228V97.323zM3.76 92.746a1.501 1.501 0 0 1 0-3c.827 0 1.5.673 1.5 1.5s-.673 1.5-1.5 1.5zM214.18 7.532c0-2.18 2.252-3.631 4.237-2.733l14.88 6.728c2.452 1.109 2.317 4.636-.213 5.553l-14.88 5.399c-1.956.709-4.023-.74-4.023-2.82V7.532zM248.73 219h-2.74a1 1 0 0 1-1-1V84.372a1 1 0 0 1 1-1h.995a4 4 0 0 0 4-4V53.875a3.998 3.998 0 0 0-4-3.998H234.98a3.998 3.998 0 0 0-4 3.998v5.497a1 1 0 0 1-1 1h-5.995a1 1 0 0 1-1-1v-5.497a3.998 3.998 0 0 0-4-3.998h-3.804a1 1 0 0 1-1-1v-22.11a1 1 0 0 1 .66-.94l28.169-10.22a1 1 0 0 0 .07-1.851L213.594.422a1 1 0 0 0-1.412.91v47.545a1 1 0 0 1-1 1h-2.2a3.998 3.998 0 0 0-3.998 3.998v5.497a1 1 0 0 1-1 1h-5.997a1 1 0 0 1-1-1v-5.497a3.998 3.998 0 0 0-3.998-3.998h-4a3.998 3.998 0 0 0-4 3.998V64.01a7 7 0 0 1-7 7h-11.944a4 4 0 0 0-4 4v11.003c0 1.11-.9 2.01-2.01 2.01h-1.001c-1.11 0-2.01-.9-2.01-2.01V75.01a4 4 0 0 0-4-4H125.01a4 4 0 0 0-4 4v10.896c0 1-.684 1.929-1.672 2.09a2.012 2.012 0 0 1-2.348-1.983V75.01a4 4 0 0 0-4-4h-9.006a1 1 0 0 1-1-1V53.875a3.998 3.998 0 0 0-4-3.998H86.98a3.998 3.998 0 0 0-4 3.998v5.497a1 1 0 0 1-1 1h-5.995a1 1 0 0 1-1-1v-5.497a3.998 3.998 0 0 0-4-3.998h-2.804a1 1 0 0 1-1-1v-22.11a1 1 0 0 1 .66-.94l28.169-10.22a1 1 0 0 0 .07-1.851L80.107 6.533a1 1 0 1 0-.824 1.822l7.015 3.172c2.452 1.109 2.317 4.636-.213 5.553l-14.88 5.399c-1.956.71-4.023-.74-4.023-2.82V7.532c0-2.18 2.25-3.631 4.236-2.733l1.414.639a1 1 0 0 0 .825-1.822L66.593.422a1 1 0 0 0-1.412.91v47.545a1 1 0 0 1-1 1h-3.2a3.998 3.998 0 0 0-3.998 3.998v5.497a1 1 0 0 1-1 1h-5.997a1 1 0 0 1-1-1v-5.497a3.998 3.998 0 0 0-3.998-3.998h-4a3.998 3.998 0 0 0-4 3.998v25.497a4 4 0 0 0 4 4h.995a1 1 0 0 1 1 1v4.875a1 1 0 0 1-1 1l-32.791-.001a3.733 3.733 0 0 1-2.814-1.302 3.468 3.468 0 0 0-3.31-1.131C1.753 88.067.66 89.105.357 90.41a3.508 3.508 0 0 0 3.403 4.336 3.459 3.459 0 0 0 2.674-1.265c.672-.812 1.705-1.235 2.759-1.235l1.014.42c1 0 .797.39.797 1.392v57.218a1 1 0 0 0 1.486.874l11.514-9.737 11.514 9.737a1 1 0 0 0 1.486-.874V94.204c0-1.082.877-1.958 1.958-1.958h3.02a1 1 0 0 1 1 1V218a1 1 0 0 1-1 1H1a1 1 0 0 0 0 2h247.73a1 1 0 1 0 0-2z" mask="url(#d)"/>
        </g>
        <path fill="#ACB0FF" d="M164.044 82.805v4.368a7 7 0 0 0 7 7h18.938a1 1 0 0 0 1-1v-3.006a1 1 0 0 0-1-1h-.993a4 4 0 0 1-4-4v-5.362a1 1 0 0 0-1-1h-15.945a4 4 0 0 0-4 4M177.332 216.27h-4.125a1 1 0 0 1 0-2h4.125a1 1 0 0 1 0 2zm13.65 1a1 1 0 0 0-1-1h-6.281a1 1 0 1 1 0-2h6.281a1 1 0 0 0 1-1v-37.074c-.066.014-.129.041-.2.041H185.7a1 1 0 0 0-1 1v16.016a1 1 0 0 0 1 1h1.083a1 1 0 0 1 0 2h-16.04a4 4 0 0 0-4 4v21.543a3 3 0 0 0 3 3h18.24a3 3 0 0 0 3-3v-4.527z"/>
        <path fill="#202225" d="M177.332 214.27h-4.125a1 1 0 0 0 0 2h4.125a1 1 0 0 0 0-2M96.867 116.788v3.425a1 1 0 0 0 2 0v-3.425a1 1 0 0 0-2 0"/>
        <path fill="#36393E" d="M132.859 179.91l30.085 39.908c.578.766 1.799.358 1.799-.602v-60.42c0-15.707-11.38-28.8-26.325-31.486a1.105 1.105 0 0 0-.39 0c-15.248 2.748-26.276 15.927-26.276 31.486v4.814c0 .384.224.733.572.897 8.585 4.05 16.056 9.462 20.535 15.403"/>
        <path fill="#7B80D6" d="M108.37 162.77a.998.998 0 0 0 1.382-.92v-3.054c0-12.464 6.66-23.492 16.883-29.416.98-.568.372-2.08-.734-1.838-14.368 3.14-25.158 15.958-25.158 31.254v.56c0 .439.287.823.707.95 2.34.716 4.657 1.54 6.92 2.464"/>
        <path fill="#D3D6ED" d="M162.186 224.796a1 1 0 0 0 .799-1.602l-31.723-42.08c-9.106-12.079-31.094-21.906-49.015-21.906-9.332 0-16.02 2.678-18.348 7.348-1.824 3.66-.773 8.402 2.96 13.354l33.838 44.886h61.489z"/>
        <path fill="#202225" d="M232.207 168.232a1 1 0 0 0-1-1h-35.225a1 1 0 0 0 0 2h.001a4.55 4.55 0 0 1 4.55 4.55v7.68a1 1 0 0 0 2 0v-7.68a4.55 4.55 0 0 1 4.55-4.55h24.124a1 1 0 0 0 1-1M217.987 187.248h-4.78a1 1 0 1 0 0 2h4.78a1 1 0 0 0 0-2M226.987 187.248h-.78a1 1 0 1 0 0 2h.78a1 1 0 0 0 0-2"/>
        <path fill="#FFF" d="M215.522 29.248l22.184-8.048c.843-.306.888-1.482.071-1.851L215.593 9.318a1 1 0 0 0-1.412.91v18.08a1 1 0 0 0 1.341.94M72.831 11.233l-4.238-1.915a1 1 0 0 0-1.412.91v18.08a1 1 0 0 0 1.341.94l22.184-8.049c.843-.306.888-1.482.071-1.85L79.282 14.15a1 1 0 0 1-.499-1.322l-4.629-2.093a1 1 0 0 1-1.323.498"/>
        <path fill="#B9BBBE" d="M3.76 95.542c-.828 0-1.5.673-1.5 1.5s.672 1.5 1.5 1.5c.826 0 1.5-.673 1.5-1.5s-.674-1.5-1.5-1.5"/>
        <path fill="#72767D" d="M17.004 140.565l7-7.228 7 7.228v-39.523a3 3 0 0 0-3-3h-8a3 3 0 0 0-3 3v39.523z"/>
        <path fill="#4F545C" d="M34.004 98.042a1 1 0 0 0-1 1v45.225a.997.997 0 0 1-1 1c-.167 0-.334-.042-.486-.126l-7.514-7.514-7.514 7.514a1 1 0 0 1-1.486-.874V99.042a1 1 0 0 0-2 0v56.33l11-9.452 11 9.452v-56.33a1 1 0 0 0-1-1"/>
        <path fill="#202225" d="M25.754 206.863l-.008-.168v-3.244c0-.237.021-.474.063-.707l1.598-8.9a1.173 1.173 0 1 0-2.31-.416l-.755 4.202a.168.168 0 0 1-.277.097 4.5 4.5 0 0 0-3.257-1.016c-2.394.202-4.16 2.35-4.16 4.753v2.335c0 .746-.278 1.465-.78 2.017l-4.546 5.004a1.173 1.173 0 0 0 1.738 1.58l3.411-3.755-.257 2.665a4.073 4.073 0 0 0 .844 2.9c.163.21.258.464.237.728l-.799 10.007a1.174 1.174 0 0 0 2.341.188l.675-8.462a1 1 0 0 1 1.004-.92l1.194.008a1 1 0 0 1 .99.92l.675 8.454a1.173 1.173 0 0 0 2.34-.188l-.785-9.825a1.062 1.062 0 0 1 .272-.767 4.08 4.08 0 0 0 .977-3.055l-.425-4.435z"/>
        <g transform="translate(126 -.204)">
            <mask id="f" fill="#fff">
                <use xlink:href="#e"/>
            </mask>
            <path fill="#D3D6ED" d="M3.032.497a.999.999 0 0 0-1.414 0L.435 1.68A.999.999 0 1 0 1.85 3.094l1.183-1.183a.999.999 0 0 0 0-1.414" mask="url(#f)"/>
        </g>
        <path fill="#D3D6ED" d="M121.702 6.21l-1.183 1.183a.999.999 0 1 0 1.414 1.414l1.183-1.184a.999.999 0 1 0-1.414-1.414M127.85 6.21a.999.999 0 1 0-1.415 1.413l1.183 1.184a.997.997 0 0 0 1.414 0 .999.999 0 0 0 0-1.414L127.85 6.21zM123.116 1.476L121.933.293a1 1 0 0 0-1.414 1.414l1.183 1.183a.997.997 0 0 0 1.414 0 .999.999 0 0 0 0-1.414"/>
        <path fill="#ACB0FF" d="M14.032 129.293a.999.999 0 0 0-1.414 0l-1.183 1.183a.999.999 0 1 0 1.414 1.414l1.183-1.183a.999.999 0 0 0 0-1.414M6.702 135.21l-1.183 1.183a.999.999 0 1 0 1.414 1.414l1.183-1.184a.999.999 0 1 0-1.414-1.414M12.85 135.21a.999.999 0 1 0-1.415 1.413l1.183 1.184a.997.997 0 0 0 1.414 0 .999.999 0 0 0 0-1.414l-1.183-1.184zM8.116 130.476l-1.183-1.183a1 1 0 0 0-1.414 1.414l1.183 1.183a.997.997 0 0 0 1.414 0 .999.999 0 0 0 0-1.414"/>
        <path fill="#FFF" d="M155.136 22.972a4.054 4.054 0 1 1-8.107 0 4.054 4.054 0 0 1 8.107 0"/>
        <path fill="#202225" d="M151.083 19.919a3.057 3.057 0 0 0-3.053 3.053 3.056 3.056 0 0 0 3.053 3.052 3.056 3.056 0 0 0 3.053-3.052 3.057 3.057 0 0 0-3.053-3.053m0 8.105a5.058 5.058 0 0 1-5.053-5.052 5.06 5.06 0 0 1 5.053-5.053 5.06 5.06 0 0 1 5.053 5.053 5.058 5.058 0 0 1-5.053 5.052"/>
        <path fill="#D3D6ED" d="M2.662 171.946a1.51 1.51 0 0 1-1.51 1.51 1 1 0 0 0 0 2c.834 0 1.51.676 1.51 1.51a1 1 0 0 0 2 0c0-.834.676-1.51 1.51-1.51a1 1 0 0 0 0-2 1.51 1.51 0 0 1-1.51-1.51 1 1 0 0 0-2 0"/>
        <path d="M0-1h251v228H0z"/>
        <path d="M-55-67h360v360H-55z"/>
    </g>
</svg>
