<svg height="84" viewBox="0 0 195 84" width="195" xmlns="http://www.w3.org/2000/svg"><g fill="none" fill-rule="evenodd"><path d="m13.7081 78.2421c-.376.812-.394 1.748-.048 2.572l.1.159c.014.022.026.046.037.07.366.846 1.08 1.491 1.959 1.769.332.106.675.155 1.016.149.026-3.967-1.698-5.316-2.365-5.684-.288.273-.529.598-.699.965" fill="#f6f6f7"/><path d="m61.3008 68.1156-.838-1.453c-.259-.045-.516-.101-.769-.174.003.032.009.063.011.095l.179 2.803c.597-.074 1.202-.105 1.81-.107-.055-.405-.184-.801-.393-1.164" fill="#dcddde"/><path d="m60.0225 71.5482.061.944c.685-.379 1.212-.999 1.47-1.748.164-.476.207-.977.14-1.465-.608.002-1.213.033-1.809.108l.002.041c.019.287-.198.534-.485.552l.07 1.083c.282-.016.533.199.551.485" fill="#f6f6f7"/><path d="m58.3697 80.3334c-.434.462-.922.85-1.445 1.173h3.974c1.114 0 2.02-.906 2.02-2.02 0-1.113-.906-2.02-2.02-2.02h-.906c-.3 1.057-.844 2.036-1.623 2.867m-23.9732-9.9199c.123-.013.248-.02.374-.02h.756c1.635 0 3.126.606 4.275 1.6l.283-1.835c-.066.004-.131.009-.198.009-1.589 0-2.879-1.29-2.879-2.877v-1.457c0-1.587 1.29-2.877 2.877-2.877.287 0 .52.232.52.519s-.232.519-.518.519c-1.016 0-1.841.825-1.841 1.839v.335c.433-.544 1.095-.897 1.839-.897h.001c1.006 0 1.859.642 2.196 1.533.052-.017.105-.033.163-.033v-.993c0-.778-.386-1.466-.972-1.896.18-.465.391-.912.639-1.336l-.241-.156c-1.063-.689-2.014-1.506-2.844-2.424-1.952 1.32-3.348 3.414-3.732 5.913zm2.604 11.0928h2.64 4.603c.589 0 1.148-.259 1.534-.71.39-.456.554-1.035.461-1.632-.151-.968-1.042-1.698-2.071-1.698h-2.606c-.287 0-.519-.232-.519-.519 0-3.041-2.475-5.515-5.516-5.515h-.756c-1.416 0-2.568 1.152-2.568 2.568v2.708c0 2.646 2.152 4.798 4.798 4.798m30.7725-31.4922c.42 1.971.425 3.961.04 5.872l.753.488c.077-.154.15-.311.213-.475l.113-.287c.548-1.408.516-2.944-.091-4.327-.276-.627-.658-1.185-1.122-1.662.032.13.066.259.094.391m-13.2236-11.5508c-.031-.171-.024-.299-.008-.379.01-.05.031-.097.055-.142-1.599-.659-3.301-1.003-5.034-1.003-.372 0-.745.02-1.118.051.02.02.043.036.063.057l1.488 1.468c1.496-.264 3.035-.285 4.554-.052m-12.5796 22.8745c-3.458-3.951-4.426-9.626-2.374-14.531-.098.088-.219.136-.343.136-.132 0-.263-.049-.365-.149-.651-.644-1.142-1.389-1.474-2.185-1.237 2.624-1.583 5.573-.964 8.477.725 3.398 2.682 6.314 5.52 8.252" fill="#dcddde"/><path d="m49.066 48.7626c.185-.285.569-.367.854-.182.285.184.367.569.182.853-.185.286-.569.368-.854.183s-.367-.569-.182-.854m1.554 1.007c.185-.284.569-.366.854-.182.285.185.366.57.182.854-.185.285-.569.367-.854.182-.285-.184-.367-.569-.182-.854m-2.53.317c.118.551.44 1.021.909 1.324l.266.173c.468.304 1.029.406 1.58.289s1.021-.44 1.325-.908l.173-.267c.304-.468.406-1.029.288-1.58-.117-.55-.44-1.021-.907-1.324l-.267-.174c-.352-.228-.748-.337-1.139-.337-.689 0-1.364.338-1.766.957l-.173.267c-.304.468-.406 1.029-.289 1.58m16.9642-9.3216 1.995-3.349-2.252.913c-.228.092-.48.073-.692-.053s-.349-.338-.376-.583l-.365-3.27-3.049 1.237c-.228.091-.48.073-.692-.053s-.349-.339-.376-.584l-.27-2.416-3.396 5.702c.078.285.566 1.363 3.573 3.154 3.006 1.791 4.205 1.717 4.501 1.65l.473-.793c.146-.246.465-.327.711-.18l.395-.664c-.246-.146-.326-.465-.18-.711m-25.1694 28.3648c1.016 0 1.84-.825 1.84-1.839 0-.229.151-.417.357-.486-.338-.891-1.191-1.533-2.196-1.533h-.001c-.745 0-1.407.353-1.839.897v1.122c0 1.014.825 1.839 1.839 1.839" fill="#f6f6f7"/><path d="m142.5972 9.3881c-.031-.031-.072-.047-.114-.047-.041 0-.082.016-.114.047l-2.098 2.098c-.062.063-.062.165 0 .228l2.098 2.098c.063.063.165.063.228 0l2.098-2.098c.039-.039.048-.084.048-.114s-.009-.075-.047-.113zm12.3472 0c-.041-.041-.089-.047-.114-.047-.031 0-.074.008-.114.047l-2.098 2.098c-.039.039-.047.084-.047.114s.008.075.047.114l2.098 2.098c.071.071.137.091.228 0l2.098-2.098c.039-.039.047-.084.047-.114s-.008-.075-.047-.113zm-24.9214 4.4238c.071.071.136.091.228 0l2.097-2.098c.039-.039.048-.084.048-.114s-.009-.075-.047-.113l-2.098-2.099c-.041-.041-.089-.047-.114-.047-.031 0-.075.009-.114.047l-2.098 2.098c-.039.039-.048.084-.048.114s.009.075.047.114zm30.1045 37.4614h.806 1.35c4.866 0 8.824-3.958 8.824-8.825v-.692h-4.671v.692c0 4.077-2.65 7.557-6.309 8.825m5.7729-27.373h4.642c-1.254-3.35-4.477-5.745-8.259-5.745h-2.155c2.689.933 4.826 3.061 5.772 5.745" fill="#dcddde"/><path d="m140.5088 51.2733.401-.993c.153-.381.441-.679.808-.856-.087-.156-.17-.317-.241-.485-.506-1.19-.517-2.505-.033-3.704.342-.849.915-1.579 1.654-2.112.233-.167.557-.115.724.118.007.009.008.02.014.03.409-.227.855-.385 1.317-.47-.002-.012-.009-.022-.009-.034-.018-.286.199-.533.485-.551.64-.039 1.266.053 1.87.261.004-.219.044-.436.128-.644.005-.014.011-.026.017-.039.164-.41.508-.761.952-.949.314-.134.652-.17.981-.119.174-.422.472-.77.842-.978.406-.228.868-.267 1.266-.106l.157.064c.398.16.704.508.837.954.122.407.095.864-.073 1.289.669.472.956 1.357.636 2.149-.084.208-.207.393-.355.552 2.313 1.08 3.409 3.797 2.442 6.191-.061.152-.14.29-.214.432h3.488 1.525c3.658-1.268 6.308-4.748 6.308-8.825v-.692h-2.413c-.286 0-.519-.232-.519-.519 0-.286.233-.519.519-.519h7.579c2.29 0 4.153-1.863 4.153-4.153v-7.474c0-2.29-1.863-4.153-4.153-4.153h-7.579c-.286 0-.519-.232-.519-.519s.233-.519.519-.519h1.878c-.946-2.684-3.083-4.812-5.773-5.745h-31.425c-4.796 0-8.702 3.847-8.814 8.617h8.789c.287 0 .519.232.519.519h4.96c0-.287.232-.519.519-.519h5.606c2.347 0 4.257 1.91 4.257 4.257v4.048c0 5.439-4.425 9.863-9.863 9.863h-9.966c-1.712 0-3.323-.44-4.727-1.21.624 4.259 4.291 7.543 8.72 7.543h8.202z" fill="#f6f6f7"/><path d="m139.6592 31.0287v4.049c0 4.076-2.65 7.556-6.309 8.825h1.326c4.866 0 8.824-3.959 8.824-8.825v-4.049c0-1.774-1.444-3.218-3.218-3.218h-2.474c1.104.651 1.851 1.85 1.851 3.218" fill="#f6f6f7"/><path d="m169.5254 38.642c1.433 0 2.595-1.162 2.595-2.595v-6.437c0-1.433-1.162-2.595-2.595-2.595h-3.426c-.574 0-1.038.464-1.038 1.038v9.551c0 .573.464 1.038 1.038 1.038z" fill="#dcddde"/><path d="m132.8628 38.6147c0 .839-.687 1.525-1.525 1.525h-3.052c-.839 0-1.525-.686-1.525-1.525s.686-1.526 1.525-1.526h3.052c.838 0 1.525.687 1.525 1.526m-13.407 0c0-.839.686-1.526 1.526-1.526h1.83c.839 0 1.526.687 1.526 1.526s-.687 1.525-1.526 1.525h-1.83c-.84 0-1.526-.686-1.526-1.525m9.222-10.804h-9.574c-1.775 0-3.219 1.444-3.219 3.219v4.048c0 4.866 3.958 8.825 8.825 8.825h8.641c3.658-1.269 6.308-4.748 6.308-8.825v-4.049c0-1.368-.747-2.567-1.851-3.218h-3.132c-.287 0-.519-.233-.519-.519h-4.96c0 .286-.232.519-.519.519" fill="#fff"/><path d="m128.2862 37.0888c-.839 0-1.525.687-1.525 1.526s.686 1.525 1.525 1.525h3.051c.839 0 1.526-.686 1.526-1.525s-.687-1.526-1.526-1.526zm-7.3047 3.0512h1.831c.838 0 1.525-.687 1.525-1.525 0-.84-.687-1.526-1.525-1.526h-1.831c-.839 0-1.525.686-1.525 1.526 0 .838.686 1.525 1.525 1.525" fill="#f6f6f7"/><path d="m120.813 72.9711v-4.858c-1.631 1.006-2.724 2.805-2.724 4.858v2.492c0 .973-.792 1.764-1.765 1.764h-5.606c-1.259 0-2.284 1.025-2.284 2.285 0 1.259 1.025 2.283 2.284 2.283h15.579c-3.244-1.616-5.484-4.96-5.484-8.824m2.2701-13.8076h-5.202c-1.259 0-2.284 1.024-2.284 2.284 0 1.259 1.025 2.284 2.284 2.284h3.351c.373-1.604.996-3.139 1.851-4.568" fill="#dcddde"/><path d="m132.2007 79.3666c.1-.246.228-.471.375-.678l-.123-.05c-.404-.163-.721-.475-.892-.876-.17-.402-.174-.846-.011-1.251l.104-.258c.164-.405.475-.722.877-.892.401-.171.845-.175 1.251-.012l1.069.432 4.32-10.701c-.964-.004-1.878-.428-2.51-1.166s-.908-1.715-.758-2.679c.249-1.596 1.696-2.799 3.366-2.799h2.584l1.67-4.137-2.127-.859c-.369-.148-.658-.424-.837-.775l-.059-.024.019-.048c-.004-.01-.011-.019-.015-.029-.035-.082-.059-.168-.08-.253h-3.519c-4.757 0-9.292 2.307-12.134 6.171-1.91 2.598-2.92 5.67-2.92 8.883v5.605c0 4.866 3.959 8.825 8.825 8.825h1.51c-.304-.786-.302-1.644.015-2.429m16.1197-21.6631c0-.482.059-.95.16-1.402l-.893-.361-1.008 2.496h.241.773c.4 0 .727-.329.727-.733m-6.0372 9.9893c.266.107.395.41.287.676l-3.158 7.821h6.839c.401 0 .727-.326.727-.727v-2.492c0-3.721 3.027-6.748 6.748-6.748h1.191c.314 0 .571-.256.571-.571s-.257-.571-.571-.571h-8.096-3.484zm33.5953-2.3467-1.917 6.573c-.062.213.053.358.105.41s.198.168.41.105l6.573-1.918c1.658-.483 2.86-1.964 2.991-3.686.092-1.214-.349-2.404-1.209-3.266-.786-.785-1.846-1.221-2.948-1.221-.106 0-.212.004-.318.012-1.722.131-3.203 1.333-3.687 2.991" fill="#f6f6f7"/><path d="m161.9283 81.7953c.375 0 .739-.081 1.084-.24.03-.013.059-.024.09-.032 3.919-1 6.656-4.517 6.656-8.552v-11.835c0-4.866-3.958-8.825-8.825-8.825h-2.331-3.845c-.134 0-.265.01-.395.02-.591.628-1.328 1.09-2.14 1.333.142.383.143.798-.011 1.178l-.418 1.035c-.257.635-.87 1.022-1.517 1.022-.204 0-.41-.039-.61-.119l-.209-.085c-.063.328-.099.664-.099 1.009-.001.976-.793 1.77-1.765 1.77h-.772-7.552c-1.164 0-2.17.826-2.341 1.921-.105.674.08 1.329.521 1.844.437.511 1.07.804 1.735.804h7.637 8.096c.887 0 1.609.721 1.609 1.608 0 .888-.722 1.61-1.609 1.61h-1.191c-3.148 0-5.71 2.561-5.71 5.71v2.491c0 .974-.792 1.765-1.765 1.765h-7.258l-.079.195 1.07.432c.835.337 1.24 1.292.903 2.127l-.104.258c-.257.636-.871 1.023-1.518 1.023-.203 0-.409-.039-.609-.119l-.122-.05c-.036.234-.095.465-.181.691.038.002.074.011.112.011h20.137zm-10.4751-41.1269-.157-.063c-.142-.057-.292.005-.368.048-.151.084-.28.235-.365.415l1.091.44c.063-.188.08-.385.03-.55-.025-.083-.088-.232-.231-.29" fill="#dcddde"/><path d="m143.7046 43.9652c-.58.418-1.029.992-1.298 1.659-.381.942-.371 1.975.026 2.909.123.29.283.558.468.804.045.013.092.022.136.04l2.103.849 2.637-6.533-.423-.171c-.532-.215-1.089-.306-1.659-.27-.273.019-.506-.183-.542-.451-.462.085-.907.243-1.317.47.144.229.093.533-.131.694m10.6617 6.4878c.785-1.944-.158-4.163-2.102-4.948l-.423-.171-1.148 2.845c-.006.045-.008.089-.025.131l-1.44 3.567 2.079.839c.043.017.081.043.123.064 1.275-.202 2.418-1.045 2.936-2.327" fill="#fff"/><path d="m140.2901 65.081-4.477 11.089 2.139.864 3.655-9.055c.108-.265.409-.394.676-.286l1.054-2.612z" fill="#dcddde"/><path d="m145.46 58.436 1.165-2.884-2.139-.864-1.513 3.748z" fill="#dcddde"/><path d="m137.3702 81.4535c.1-.248.147-.507.157-.767l-3.946-1.592c-.171.19-.316.41-.418.661-.227.562-.221 1.178.016 1.736.237.557.676.989 1.238 1.216 1.16.468 2.484-.094 2.953-1.254" fill="#fff"/><path d="m148.241 51.478 2.586-6.405-2.139-.864-2.586 6.405z" fill="#dcddde"/><path d="m140.5586 52.6654c-.013-.024-.028-.047-.04-.072l-.019.049zm-44.4365 19.7867c1.431 0 2.596-1.165 2.596-2.596v-5.191h-7.267v5.191c0 1.431 1.164 2.596 2.595 2.596zm-13.3056 0c1.431 0 2.596-1.165 2.596-2.596v-2.595h-5.71v2.595c0 1.431 1.164 2.596 2.595 2.596z" fill="#f6f6f7"/><path d="m77.185 81.795h2.077v-3.633h-2.077z" fill="#dcddde"/><path d="m98.986 81.795h2.076v-3.633h-2.076z" fill="#dcddde"/><path d="m29.2261 81.6972v-.746c0-.296-.24-.535-.536-.535h-.618c-.253 0-.47-.183-.512-.433-.104-.615-.65-1.078-1.272-1.078h-1.112c-.712 0-1.291.579-1.291 1.291v1.501c0 .053.045.098.098.098h2.289 2.856c.052 0 .098-.046.098-.098m-20.2168 0v-.14c0-.621-.505-1.127-1.126-1.127-.623 0-1.128.506-1.128 1.127v.14c0 .052.046.098.098.098h2.058c.053 0 .098-.045.098-.098" fill="#f6f6f7"/><g fill="#b9bbbe"><path d="m3.4727 81.7953h-2.954c-.286 0-.519.232-.519.519s.233.519.519.519h2.954c.287 0 .519-.232.519-.519s-.232-.519-.519-.519m159.6299-.272c-.031.008-.061.019-.09.032-.345.159-.71.24-1.084.24h-3.326-20.137c-.039 0-.074-.009-.113-.011.087-.226.146-.457.182-.691l.122.05c.199.08.406.119.609.119.647 0 1.261-.387 1.518-1.023l.104-.258c.337-.835-.068-1.79-.904-2.127l-1.069-.432.079-.195h7.258c.973 0 1.765-.791 1.765-1.765v-2.491c0-3.149 2.562-5.71 5.71-5.71h1.19c.888 0 1.609-.722 1.609-1.61 0-.887-.721-1.608-1.609-1.608h-8.096-7.636c-.665 0-1.298-.293-1.735-.804-.441-.515-.626-1.17-.521-1.844.171-1.095 1.177-1.921 2.341-1.921h7.551.773c.972 0 1.764-.794 1.765-1.77 0-.345.036-.681.099-1.009l.208.085c.201.08.407.118.61.118.647 0 1.261-.386 1.518-1.021l.417-1.035c.154-.381.154-.795.012-1.178.812-.243 1.549-.705 2.139-1.333.131-.01.262-.02.395-.02h3.846 2.331c4.866 0 8.825 3.959 8.825 8.825v11.835c0 4.035-2.738 7.552-6.656 8.552zm-30.261-3.848c-.147-.059-.263-.173-.325-.319s-.063-.308-.004-.456l.104-.258c.123-.305.471-.453.776-.33l6.203 2.504c.304.124.452.471.329.776l-.104.259c-.123.304-.47.452-.776.329zm3.872 4.638c-.669.53-1.588.71-2.368.364-.528-.234-.94-.653-1.167-1.186-.236-.558-.242-1.174-.015-1.736l.003-.007c.162-.398.64-.563 1.038-.403l2.698 1.09c.412.166.628.638.455 1.048-.127.3-.332.582-.644.83zm5.57-14.621c-.268-.107-.569.022-.676.287l-3.224 7.985c-.238.591-.91.876-1.501.638-.591-.239-.876-.911-.637-1.501l3.461-8.574c.353-.874 1.201-1.446 2.144-1.446h1.487 3.483 8.096c.315 0 .571.255.571.57s-.256.572-.571.572h-1.19c-3.727 0-6.748 3.021-6.748 6.748v2.491c0 .402-.326.727-.727.727h-5.55c-.617 0-1.037-.624-.807-1.195l2.676-6.626c.107-.266-.021-.569-.287-.676zm-10.083 11.674c-.317.785-.319 1.643-.015 2.429h-1.51c-4.874 0-8.824-3.951-8.824-8.824v-5.606c0-3.213 1.009-6.284 2.919-8.883 2.842-3.864 7.377-6.171 12.134-6.171h3.519c.021.086.045.171.08.254.004.01.011.018.016.028.011.025.025.046.038.07.169.324.411.605.751.742l1.322.534c.493.199.731.76.532 1.253l-1.31 3.244h-2.583c-1.671 0-3.118 1.203-3.367 2.799-.15.965.126 1.941.759 2.68.631.737 1.545 1.161 2.509 1.165l-4.32 10.701-1.014-.409c-.321-.13-.676-.182-1.014-.105-.542.123-.967.487-1.169.986l-.081.202c-.129.321-.182.677-.106 1.015.123.542.489.967.987 1.168l.123.05c-.148.207-.276.432-.376.678zm-7.726 2.429h-13.757c-1.334 0-2.405-1.15-2.272-2.512.115-1.186 1.182-2.056 2.374-2.056h5.505c.974 0 1.764-.79 1.764-1.765v-2.491c0-1.663.718-3.159 1.857-4.202.331-.304.867-.06.867.389v3.813c0 3.231 1.566 6.097 3.976 7.895.397.297.182.929-.314.929zm-3.645-18.064h-2.948c-1.335 0-2.406-1.15-2.273-2.512.116-1.187 1.182-2.056 2.374-2.056h4.216c.388 0 .641.412.46.755-.577 1.09-1.022 2.236-1.33 3.421-.059.23-.262.392-.499.392zm28.519-12.156 2.371-5.937c.068-.168.258-.249.425-.181 1.816.733 2.89 2.704 2.36 4.589-.423 1.51-1.669 2.511-3.074 2.734-.042-.021-.08-.047-.123-.064l-1.778-.718c-.167-.067-.248-.257-.181-.423zm.409-6.934c.591.238.876.91.638 1.501l-2.154 5.336-2.139-.864 2.154-5.335c.238-.591.91-.877 1.501-.638zm.805-3.573c.086-.18.215-.331.365-.415.077-.043.226-.105.368-.048l.158.063c.143.058.206.207.231.29.049.165.033.362-.03.55zm1.291 1.641c.394.158.584.607.425 1.001-.076.191-.223.34-.412.42-.188.08-.397.082-.588.005l-2.264-.914c-.19-.076-.34-.223-.42-.412s-.082-.398-.005-.588v-.001c.077-.191.223-.34.412-.42.097-.041.199-.062.301-.062.097 0 .195.019.288.057zm-10.069 9.769c-.148-.059-.263-.173-.326-.319-.062-.147-.063-.309-.003-.456l.417-1.034c.06-.148.173-.264.319-.326.075-.032.154-.048.233-.048.075 0 .151.015.223.044l8.271 3.339c.147.06.263.174.325.32.063.147.064.308.005.456l-.418 1.033c-.123.305-.471.453-.775.33zm3.07 5.958h-.552c-.636 0-1.07-.643-.832-1.233l.584-1.446c.238-.59.91-.876 1.501-.637.59.238.876.91.637 1.501l-.506 1.254c-.137.339-.466.561-.832.561zm3.625-2.135c-.101.45-.158.916-.159 1.396-.001.406-.321.739-.727.739h-.773-.241l.648-1.603c.198-.493.76-.731 1.252-.532zm-19.776-5.028c-3.629 0-6.746-2.204-8.098-5.342-.354-.822.412-1.665 1.269-1.407.898.27 1.85.416 2.835.416h9.966c5.448 0 9.863-4.416 9.863-9.863v-4.048c0-2.351-1.906-4.257-4.257-4.257h-5.606c-.286 0-.519.232-.519.519s.233.519.519.519h3.133 2.473c1.778 0 3.219 1.441 3.219 3.219v4.048c0 4.874-3.951 8.825-8.825 8.825h-1.325-8.641c-4.874 0-8.825-3.951-8.825-8.825v-4.048c0-1.778 1.441-3.219 3.219-3.219h9.575c.286 0 .518-.232.519-.519 0-.287-.233-.519-.519-.519h-7.651c-.641 0-1.13-.577-1.027-1.21.68-4.194 4.32-7.407 8.703-7.407h31.424 2.156c3.147 0 5.907 1.659 7.467 4.145.436.695-.057 1.6-.877 1.6h-2.973-1.878c-.286 0-.519.232-.519.519s.233.519.519.519h7.579c2.293 0 4.153 1.859 4.153 4.153v7.474c0 2.294-1.86 4.153-4.153 4.153h-7.579c-.286 0-.519.233-.519.519 0 .287.233.519.519.519h2.413c3.1.459 4.536 4.188 2.461 6.535-1.616 1.829-3.98 2.982-6.613 2.982h-1.35-.806-1.525-3.488c.074-.142.154-.28.215-.432.966-2.394-.13-5.111-2.442-6.191.148-.159.27-.344.355-.552.319-.792.032-1.677-.637-2.149.168-.425.195-.882.073-1.289-.133-.446-.438-.794-.837-.954l-.157-.064c-.397-.161-.859-.122-1.266.106-.37.208-.668.556-.841.978-.329-.051-.667-.015-.981.119-.445.188-.789.539-.952.949h-.001c-.006.013-.012.025-.017.039-.084.208-.124.425-.128.644-.604-.208-1.229-.3-1.87-.261-.286.018-.503.265-.485.551.001.012.007.022.009.034.036.27.274.473.55.451.391-.034 1.252.196 1.733.337.185.054.28.256.208.434l-2.382 5.9c-.067.167-.257.248-.424.181l-1.801-.727c-.044-.019-.091-.027-.136-.041-.185-.245-.345-.513-.468-.803-.502-1.182-.384-2.522.358-3.635.256-.384.635-.66.969-.979.176-.168.208-.439.076-.648-.006-.01-.006-.021-.013-.03-.167-.233-.492-.285-.725-.118-.739.533-1.311 1.263-1.654 2.112-.484 1.199-.472 2.514.033 3.704.071.168.154.329.242.485-.367.177-.656.475-.809.856l-.401.993h-3.604zm-.779-39.56c-.039-.039-.047-.083-.047-.113 0-.031.008-.075.047-.114l2.098-2.098c.039-.039.084-.047.114-.047.025 0 .073.006.114.047l2.098 2.098c.039.039.047.083.047.114 0 .03-.008.074-.047.113l-2.098 2.099c-.091.091-.157.07-.228 0zm-29.458 65.41h-18.685-3.115c-.86 0-1.557-.697-1.557-1.557v-.519c0-.86.697-1.557 1.557-1.557h5.631.519 11.229 2.077 5.459c.859 0 1.557.697 1.557 1.557v.519c0 .86-.698 1.557-1.557 1.557zm2.076 4.672h-1.038c-.286 0-.519-.232-.519-.519v-2.076c0-.574.465-1.038 1.038-1.038.574 0 1.038.464 1.038 1.038v2.076c0 .287-.232.519-.519.519zm-3.114 0h-16.609c-.287 0-.519-.232-.519-.519v-2.076c0-.574.465-1.038 1.038-1.038h15.571c.573 0 1.038.464 1.038 1.038v2.076c0 .287-.233.519-.519.519zm-18.685 0h-1.039c-.287 0-.519-.232-.519-.519v-2.076c0-.574.465-1.038 1.039-1.038.573 0 1.038.464 1.038 1.038v2.076c0 .287-.233.519-.519.519zm.959-11.939v-.519c0-1.147.929-2.076 2.076-2.076h1.557c1.147 0 2.077.929 2.077 2.076v.519c0 1.434-1.163 2.596-2.596 2.596h-.519c-1.433 0-2.595-1.162-2.595-2.596zm11.748 0v-3.633c0-.861.697-1.558 1.557-1.558h4.153c.86 0 1.557.697 1.557 1.558v3.633c0 1.434-1.162 2.596-2.595 2.596h-2.077c-1.433 0-2.595-1.162-2.595-2.596zm-30.552 11.65h-3.974c.523-.323 1.011-.711 1.445-1.173.779-.831 1.323-1.81 1.623-2.867h.906c1.114 0 2.02.907 2.02 2.02 0 1.114-.906 2.02-2.02 2.02zm-12.181 0h-2.185c.011-.012.023-.023.033-.035.582-.679.837-1.578.699-2.467-.229-1.468-1.561-2.576-3.098-2.576h-2.106c-.14-1.769-.99-3.339-2.259-4.435-1.149-.993-2.64-1.599-4.275-1.599h-.756c-.126 0-.251.006-.374.019l.698-4.534c.332-2.161 1.421-4.021 2.973-5.337.401-.34.999-.302 1.376.066.675.66 1.418 1.258 2.227 1.782l.241.156 3.945 2.559c2.35 1.523 5.037 2.31 7.786 2.31 1.015 0 2.038-.107 3.056-.324.632-.135 1.248-.311 1.846-.523.052.034.072.047.124.081l.182 2.846c.019.286.268.506.551.485.287-.019.504-.266.485-.552l-.002-.041-.18-2.804c-.002-.032-.008-.063-.011-.095.253.073.51.129.769.174l.838 1.453c.209.363.339.759.393 1.164.067.488.024.989-.14 1.465-.258.749-.785 1.369-1.47 1.748l-.061-.944c-.018-.286-.269-.501-.551-.485-.286.019-.503.265-.485.551l.216 3.369c.107 1.666-.406 3.342-1.531 4.576-1.145 1.255-2.714 1.947-4.408 1.947zm-2.94-.71c-.386.451-.946.71-1.534.71h-4.603-2.64c-2.646 0-4.798-2.152-4.798-4.798v-2.708c0-1.416 1.152-2.568 2.568-2.568h.756c3.041 0 5.515 2.474 5.515 5.515 0 .287.233.519.519.519h2.606c1.03 0 1.921.73 2.072 1.698.093.597-.071 1.176-.461 1.632zm-9.328-27.71c-.485-2.278-.377-4.584.289-6.739.212-.684 1.103-.814 1.539-.245.184.241.388.472.611.692.101.099.233.149.364.149.124 0 .245-.049.343-.137.008-.007.019-.01.027-.017.361-.398-.188-.906-.42-1.191-1.797-2.207-1.682-5.47.362-7.54l.217-.22c2.196-2.221 5.777-2.243 7.999-.049l2.853 2.816c.204.2.533.199.735-.005.201-.204.199-.533-.005-.735l-1.368-1.35s-1.531-1.505-1.552-1.525c.374-.031.747-.051 1.119-.051 1.732 0 3.435.344 5.034 1.002-.024.046-.045.093-.055.143-.016.08-.023.208.008.379.118.652.83 1.96 4.074 3.892 2.465 1.469 3.924 1.828 4.761 1.828.124 0 .23-.01.328-.023 2.286 2.588 3.454 5.946 3.342 9.322-.027.822-.954 1.293-1.644.846.03-.07.049-.145.051-.226.006-.189.009-.378.009-.566 0-.238-.005-.475-.013-.709-.012-.341-.289-.605-.639-.595-.341.013-.607.298-.595.639.008.22.012.443.012.666v.029l-4.555-2.954c-.729-.473-1.601-.633-2.457-.45-.856.182-1.588.684-2.06 1.414l-1.62 2.496c-2.22 3.424-1.245 7.999 2.179 10.219 0 0 .47.303.974.628.471.304.348 1.036-.2 1.154-.005.001-.01.002-.015.003-3.503.747-7.076.092-10.06-1.842l-4.186-2.715c-.091-.058-.177-.121-.266-.182-2.838-1.938-4.795-4.854-5.52-8.251zm31.586 4.181c.497.322.838.821.963 1.405.125.585.016 1.18-.306 1.677l-1.62 2.497c-.918 1.417-2.341 2.392-4.005 2.747-1.665.355-3.361.044-4.777-.874l-2.003-1.299c-2.937-1.905-3.778-5.845-1.873-8.782l1.62-2.497c.321-.497.821-.84 1.405-.964.584-.125 1.18-.016 1.677.306zm.765-5.982c.608 1.383.64 2.919.091 4.327l-.112.287c-.064.164-.136.321-.214.475l-.753-.488c.385-1.911.38-3.902-.04-5.872-.028-.132-.062-.262-.093-.391.463.477.846 1.034 1.121 1.662zm-39.574 29.991c0 .286-.234.519-.52.519h-2.434-1.869c-.285 0-.519-.233-.519-.519v-1.08c0-.713.578-1.291 1.291-1.291h1.016c.604 0 1.281.467 1.367 1.065.036.257.256.446.513.446h.619c.296 0 .536.239.536.535zm-13.46 1.539c-.004 0-.007-.002-.011-.003-.878-.278-1.592-.923-1.959-1.769-.01-.024-.022-.048-.037-.07l-.1-.159c-.345-.825-.328-1.76.048-2.572.053-.113.112-.221.176-.326.257-.413.839-.476 1.192-.141.674.641 1.497 1.889 1.666 4.212.039.539-.46.99-.975.828zm138.95-73.427c.039-.039.084-.047.114-.047.025 0 .073.006.114.047l2.098 2.098c.039.039.047.083.047.114 0 .03-.008.074-.048.113l-2.097 2.099c-.092.091-.157.07-.228 0l-2.098-2.099c-.039-.039-.047-.083-.047-.113 0-.031.008-.075.047-.114zm39.93 72.407h-24.918c-1.322 0-2.034-1.536-1.191-2.555 1.423-1.719 2.259-3.914 2.259-6.269v-11.835c0-3.342-1.672-6.298-4.222-8.081-.662-.463-.59-1.442.131-1.804 3.227-1.624 5.446-4.963 5.44-8.816 0-.4.29-.731.679-.825 2.274-.551 3.968-2.604 3.968-5.045v-7.474c0-2.675-2.035-4.883-4.638-5.16-.304-.032-.572-.232-.683-.517-1.432-3.68-5.008-6.297-9.188-6.297h-7.453-24.175v-2.343c.12-.058.232-.131.329-.229l2.097-2.097c.228-.227.352-.528.352-.848 0-.321-.124-.622-.351-.848l-2.098-2.098c-.096-.096-.209-.167-.329-.222v-6.481c0-.019 0-.071.067-.094.067-.021.098.019.11.035l4.572 6.035c.454.6 1.357.6 1.811 0l5.19-6.85c.043-.057.114-.057.156 0l5.189 6.85c.217.286.547.45.906.45h.001c.359 0 .689-.165.905-.45l4.572-6.036c.012-.015.043-.056.11-.034.067.023.067.075.067.094v6.481c-.12.055-.233.126-.329.222l-2.098 2.098c-.227.226-.351.527-.351.848 0 .32.124.621.351.847l2.098 2.098c.226.227.528.352.848.352s.621-.125.848-.352l2.097-2.097c.227-.227.352-.528.352-.848 0-.321-.125-.622-.351-.848l-2.098-2.098c-.096-.096-.209-.167-.329-.222v-6.427c0-.475-.266-.929-.706-1.107-.491-.197-1.023-.048-1.336.366l-2.996 3.954c-.91 1.202-2.399 1.202-3.31 0l-3.612-4.768c-.217-.286-.547-.45-.906-.45s-.689.164-.906.45l-3.613 4.768c-.91 1.202-2.399 1.202-3.31 0l-2.947-3.89c-.295-.39-.797-.605-1.267-.47-.498.145-.823.58-.823 1.093v6.481c-.119.055-.233.126-.328.222l-2.099 2.098c-.227.226-.351.527-.351.848 0 .32.124.621.351.847l2.099 2.098c.096.098.209.171.328.229v2.343h-.914c-5.096 0-9.295 3.887-9.803 8.851-.045.437-.346.822-.775.923-1.877.442-3.279 2.127-3.279 4.138v4.048c0 3.086 1.431 5.838 3.657 7.646.229.186.371.451.402.743.511 4.961 4.704 8.845 9.798 8.845h.201c.531 0 .727.713.262.97-2.029 1.118-3.825 2.673-5.232 4.587-.062.084-.114.172-.174.257h-5.763c-1.688 0-3.195 1.21-3.41 2.885-.26 2.025 1.318 3.759 3.294 3.759h3.142c-.115.707-.173 1.426-.193 2.151-2.235 1.101-3.78 3.395-3.78 6.051v2.491c0 .402-.325.727-.726.727h-5.464c-1.848 0-3.485 1.511-3.465 3.358.01.871.358 1.66.916 2.248h-5.692c-.287 0-.519-.232-.519-.519v-2.076c0-.574.464-1.038 1.038-1.038h.519c.287 0 .519-.233.519-.52v-4.671c0-.287-.232-.519-.519-.519h-3.943c-.393 0-.654-.427-.456-.765.316-.538.497-1.164.497-1.831v-4.672c0-.86-.697-1.557-1.557-1.557h-6.229c-.86 0-1.557.697-1.557 1.557v4.672c0 .667.181 1.293.497 1.831.199.338-.063.765-.456.765h-4.044c-.393 0-.655-.427-.456-.765.316-.538.497-1.164.497-1.831v-1.557c0-1.147-.93-2.076-2.077-2.076h-3.633c-1.147 0-2.076.929-2.076 2.076v1.557c0 .667.181 1.293.496 1.831.199.338-.062.765-.455.765h-4.115c-.287 0-.519.232-.519.519v4.671c0 .287.232.52.519.52h.519c.573 0 1.038.464 1.038 1.038v2.076c0 .287-.233.519-.519.519h-10.839c-.711 0-1.2-.694-.98-1.37.16-.493.197-1.04.076-1.608-.304-1.422-1.641-2.389-3.096-2.389-.304 0-.549-.251-.534-.555.013-.257.012-.517-.005-.778l-.072-1.121c-.014-.221.112-.419.309-.521 1.47-.762 2.418-2.348 2.264-4.158-.054-.634-.287-1.241-.606-1.793-.189-.327.02-.731.396-.773.248-.027.496-.067.743-.12 1.935-.413 3.59-1.548 4.659-3.198l1.534-2.366c.525-.809.746-1.804.501-2.737-.061-.232-.146-.454-.253-.664-.188-.366-.228-.785-.064-1.162.03-.068.058-.137.085-.206l.054-.138c.564-1.445.684-3.046.227-4.528-.493-1.6-1.521-2.903-2.888-3.744-.506-1.335-1.202-2.575-2.065-3.689-.297-.383-.312-.914-.055-1.325v-.001c.147-.246.066-.565-.18-.712-.247-.146-.565-.066-.712.18l-.001.002c-.331.563-.992.85-1.624.685-.712-.186-1.786-.613-3.348-1.543-1.544-.919-2.424-1.651-2.925-2.184-.449-.478-.513-1.198-.177-1.761l2.134-3.584c.255-.427.907-.286.962.209l.099.88c.027.245.164.458.376.583.211.126.463.145.692.053l2.414-.979c.318-.129.673.082.711.424l.288 2.589c.028.245.165.457.376.583.212.126.464.145.692.053l.821-.333c.461-.187.896.319.641.747l-1.204 2.022c-.147.246-.066.565.18.711.246.147.565.066.712-.18l2.388-4.009c.172-.288.14-.653-.078-.908-.218-.254-.574-.34-.885-.214l-2.649 1.074-.365-3.271c-.027-.244-.164-.457-.376-.583-.211-.125-.463-.144-.692-.052l-3.049 1.236-.316-2.84c-.037-.333-.282-.605-.61-.676-.328-.072-.664.074-.836.363l-2.826 4.744c-.294.494-.894.711-1.437.523-2.214-.765-4.589-.976-6.953-.598-1.34-.812-2.931-1.144-4.565-.876-1.44.235-2.747.981-3.772 2.019l-.1.101c-1.414 1.433-2.043 3.348-1.9 5.214.034.442-.082.879-.282 1.275-1.472 2.913-1.904 6.226-1.209 9.484.362 1.698 1.011 3.284 1.906 4.705.407.646.322 1.483-.239 1.999-1.58 1.455-2.683 3.435-3.033 5.716l-.531 3.451c-.123.798-.486 1.56-1.101 2.083-.777.661-1.272 1.645-1.272 2.744v2.708c0 1.418.509 2.718 1.353 3.729.451.541.094 1.358-.61 1.358h-.799c-.466 0-.844-.378-.844-.844 0-.869-.705-1.574-1.574-1.574h-.223c-.334-.896-1.191-1.51-2.179-1.51h-.233c.162-.629.16-1.305-.055-1.961-.055-.167-.19-.295-.36-.34-.171-.046-.351-.001-.482.117-.12.109-.264.198-.428.266-.954.395-1.482-.309-1.622-.533-.081-.131-.215-.219-.367-.241s-.306.025-.42.127c-.119.107-.261.195-.423.262-.373.154-.721.158-1.036.011-.347-.162-.634-.508-.765-.925-.086-.273-.377-.425-.651-.339-.271.086-.422.373-.34.645.001.002 0 .004.001.006.22.7.7 1.267 1.316 1.554.581.271 1.229.273 1.872.007.091-.038.179-.08.264-.126.662.699 1.623.903 2.569.511l.007-.003c.013.339-.046.673-.167.983-1.034.093-1.878.854-2.076 1.855l-4.515 2.753c-.182.11-.373.199-.569.271-.025-3.371-1.244-5.085-2.203-5.907.033-.148.039-.178.072-.327l1.707-.515c.275-.083.43-.372.347-.647-.083-.274-.371-.428-.647-.347l-1.63.492c-.55.165-1.077.418-1.519.783-1.528 1.262-1.938 3.29-1.213 4.962.01.024.023.048.037.07l.101.162c.491 1.103 1.43 1.944 2.581 2.309.418.132.849.198 1.278.198.767 0 1.529-.21 2.198-.618l3.323-2.026c.261-.159.61.022.606.328-.007.633.505 1.149 1.136 1.149h2.29 2.855 47.539 3.115 18.685 3.115 9.136 19.958 2.163c.329.358.726.65 1.19.837.405.164.822.24 1.234.24.923 0 1.808-.395 2.435-1.077h.768 20.137 3.326 32.718c.287 0 .519-.232.519-.519s-.232-.519-.519-.519z"/><path d="m55.5928 73.9418c-.203-.203-.531-.203-.734 0l-.761.761-.762-.761c-.202-.203-.531-.203-.734 0-.202.203-.202.531 0 .734l.762.761-.762.762c-.202.202-.202.531 0 .734.102.101.235.152.367.152.133 0 .266-.051.367-.152l.762-.762.761.762c.102.101.234.152.367.152s.266-.051.367-.152c.203-.203.203-.532 0-.734l-.761-.762.761-.761c.203-.203.203-.531 0-.734m7.5752-26.9658c.084.262.327.429.588.429.062 0 .126-.01.188-.03.325-.104.504-.451.4-.776-.242-.755-.428-1.198-.436-1.216-.133-.314-.495-.461-.809-.328-.314.132-.461.494-.328.808.001.004.174.416.397 1.113m.6118 2.3266c.082.392.154.791.214 1.183.047.305.31.524.61.524.031 0 .063-.003.094-.008.337-.052.568-.366.517-.703-.064-.415-.14-.834-.226-1.248-.07-.334-.396-.548-.73-.478-.334.069-.549.396-.479.73m-22.3589-4.5566c.134 0 .268-.051.37-.154.201-.204.199-.533-.005-.735-.489-.481-.76-1.124-.764-1.81-.005-.686.258-1.332.74-1.82l.217-.22c.482-.488 1.125-.76 1.811-.764.676-.001 1.332.258 1.82.74.204.201.532.2.734-.005.202-.204.199-.532-.005-.734-.685-.676-1.6-1.051-2.556-1.039-.964.006-1.866.387-2.543 1.073l-.217.219c-.677.686-1.045 1.594-1.039 2.557s.387 1.866 1.072 2.543c.102.1.233.149.365.149m6.9581 3.7603.173-.267c.402-.619 1.077-.957 1.766-.957.391 0 .787.11 1.139.338l.267.173c.468.304.79.774.907 1.325.118.551.016 1.112-.288 1.579l-.173.267c-.304.468-.774.791-1.325.909-.551.116-1.112.014-1.58-.289l-.266-.173c-.469-.304-.791-.774-.909-1.325-.117-.55-.015-1.112.289-1.58m.055 3.776.266.173c.512.332 1.098.503 1.697.503.221 0 .443-.023.665-.07.821-.175 1.525-.658 1.979-1.359l.173-.267c.941-1.451.526-3.399-.925-4.34l-.267-.173c-1.452-.942-3.399-.526-4.341.925l-.173.268c-.454.7-.608 1.539-.433 2.36.176.823.658 1.525 1.359 1.98"/><path d="m49.2481 49.6161c.285.185.669.103.854-.182s.103-.669-.182-.854-.67-.103-.854.182c-.185.285-.103.669.182.854m1.5537 1.0078c.285.185.669.103.854-.182s.103-.669-.182-.854-.669-.103-.854.182-.103.669.182.854m-8.5576 16.1475c-.058 0-.111.016-.163.033-.205.069-.356.258-.356.486 0 1.014-.825 1.839-1.84 1.839s-1.84-.825-1.84-1.839v-1.122-.334c0-1.015.825-1.84 1.841-1.84.287 0 .518-.232.518-.519s-.233-.519-.519-.519c-1.587 0-2.878 1.291-2.878 2.878v1.456c0 1.587 1.291 2.877 2.879 2.877.067 0 .132-.005.198-.009 1.494-.103 2.679-1.348 2.679-2.868 0-.287-.232-.519-.519-.519m102.4985-55.1714c0 .03-.008.075-.047.114l-2.099 2.098c-.062.063-.164.063-.227 0l-2.098-2.098c-.063-.063-.063-.165 0-.228l2.098-2.098c.031-.031.072-.047.114-.047.041 0 .082.016.113.047l2.099 2.099c.039.038.047.083.047.113m-3.107-2.946-2.098 2.098c-.467.468-.467 1.228 0 1.696l2.098 2.098c.233.234.541.351.848.351s.614-.117.847-.351l2.099-2.098c.226-.226.351-.527.351-.848 0-.32-.125-.622-.351-.848l-2.099-2.098c-.467-.467-1.228-.467-1.695 0m37.9298 53.7014c.106-.008.212-.012.318-.012 1.102 0 2.162.436 2.948 1.221.86.861 1.301 2.051 1.209 3.266-.131 1.721-1.333 3.203-2.991 3.686l-6.573 1.918c-.212.063-.358-.053-.41-.105-.052-.053-.167-.197-.105-.41l1.917-6.573c.484-1.658 1.965-2.86 3.687-2.991m-4.684 2.7-1.917 6.573c-.149.51-.007 1.06.368 1.435.276.276.648.426 1.027.426.136 0 .273-.02.407-.059l6.574-1.917c2.07-.604 3.571-2.454 3.735-4.605.115-1.516-.435-3.002-1.51-4.078-1.076-1.075-2.562-1.627-4.079-1.51-2.15.163-4.001 1.664-4.605 3.735m-28.2169-12.7523c-.428-.173-.916.034-1.088.462-.173.429.034.916.462 1.089s.916-.034 1.088-.463c.173-.428-.034-.915-.462-1.088m-3.1016-1.2524c-.428-.173-.916.034-1.088.462-.173.429.034.916.462 1.089s.916-.034 1.088-.463c.173-.428-.034-.915-.462-1.088m6.2032 2.5044c-.428-.173-.916.034-1.088.462-.174.429.034.916.462 1.089s.915-.034 1.088-.463c.173-.428-.034-.915-.462-1.088m-140.7569 28.1421c0 .053-.045.098-.098.098h-2.058c-.052 0-.098-.046-.098-.098v-.14c0-.621.505-1.127 1.128-1.127.621 0 1.126.506 1.126 1.127zm-1.128-2.305c-1.193 0-2.164.972-2.164 2.165v.14c0 .626.509 1.136 1.136 1.136h2.058c.626 0 1.136-.51 1.136-1.136v-.14c0-1.193-.971-2.165-2.166-2.165zm64.1031-48.6403c.433 0 .784.351.784.784 0 .287.232.519.519.519.286 0 .519-.232.519-.519 0-.433.351-.784.783-.784h.001c.287 0 .519-.232.519-.519s-.232-.519-.519-.519h-.001c-.432 0-.783-.351-.783-.784 0-.286-.233-.519-.519-.519-.287 0-.519.233-.519.519 0 .433-.351.784-.784.784-.287 0-.519.232-.519.519s.232.519.519.519m11.0918 26.33h.265c.286 0 .519.232.519.519v.265c0 .286.232.519.519.519s.519-.233.519-.519v-.265c0-.287.233-.519.519-.519h.265c.287 0 .519-.232.519-.52 0-.286-.232-.519-.519-.519h-.265c-.286 0-.519-.232-.519-.519v-.264c0-.287-.232-.519-.519-.519s-.519.232-.519.519v.264c0 .287-.233.519-.519.519h-.265c-.287 0-.519.233-.519.519 0 .288.232.52.519.52m19.6314-13.5815c.133 0 .266-.051.367-.152l.614-.615c.203-.202.203-.531 0-.733-.203-.203-.532-.203-.734 0l-.614.614c-.203.203-.203.532 0 .734.101.101.234.152.367.152m-3.0708 3.0708c.133 0 .266-.051.367-.152l.614-.614c.203-.203.203-.531 0-.734s-.531-.203-.734 0l-.614.614c-.203.203-.203.531 0 .734.101.101.234.152.367.152m3.3178-.1519c.102.101.234.152.367.152s.266-.051.367-.152c.203-.203.203-.531 0-.734l-.614-.614c-.203-.203-.532-.203-.734 0-.203.202-.203.531 0 .734zm-3.0708-3.0708c.101.101.234.152.367.152s.265-.051.367-.152c.203-.203.203-.531 0-.734l-.614-.615c-.203-.202-.532-.202-.734 0-.203.203-.203.532 0 .734zm1.5952 15.0313c.432 0 .784.352.784.784s-.352.783-.784.783-.784-.351-.784-.783.352-.784.784-.784m0 2.605c1.004 0 1.822-.817 1.822-1.821 0-1.005-.818-1.822-1.822-1.822s-1.822.817-1.822 1.822c0 1.004.818 1.821 1.822 1.821m49.7042-26.0801c1.285 0 2.336-1.051 2.336-2.336s-1.051-2.336-2.336-2.336-2.336 1.051-2.336 2.336 1.051 2.336 2.336 2.336m4.2846-5.1304c.287 0 .519-.232.519-.519s-.232-.519-.519-.519c-1.542 0-2.085-1.314-2.111-1.379-.103-.267-.403-.399-.669-.298-.268.102-.403.402-.301.67.033.083.807 2.045 3.081 2.045"/></g></g></svg>