<svg fill="none" height="48" viewBox="0 0 48 48" width="48" xmlns="http://www.w3.org/2000/svg"><circle cx="22.5" cy="22.5" fill="#c482ff" r="17.5"/><path d="m27 9-1.5 1.5-2-1 1.5 7h4.5l-1-1.5 2-1-2-1 1.5-2-2.5.5z" fill="#ffed00"/><path d="m36 30h-26c-1.10457 0-2 .8954-2 2v7c0 1.1046.89543 2 2 2h26c1.1046 0 2-.8954 2-2v-7c0-1.1046-.8954-2-2-2z" fill="#a120ad"/><path d="m27.0193 18.6237.3323-2.7953c.1398-1.1494-.1822-2.3073-.8955-3.2194-.7132-.9121-1.7592-1.5039-2.9084-1.6454-.5697-.0706-1.1478-.0283-1.7011.1246-.5534.1529-1.0712.4133-1.5239.7663-.4526.3531-.8313.7918-1.1144 1.2913-.283.4994-.4649 1.0498-.5352 1.6195l-.3355 2.7639c-.1617 1.275-.7424 2.4603-1.6508 3.3695-.9028.9377-1.5263 2.1084-1.8005 3.3808s-.1882 2.596.2484 3.8222c.4365 1.2262 1.2063 2.3064 2.2228 3.1193s2.2396 1.3263 3.5318 1.4824c1.2922.1562 2.6023-.051 3.7832-.5982 1.181-.5473 2.1859-1.413 2.902-2.4999.7162-1.0869 1.115-2.3519 1.1519-3.653s-.2897-2.5866-.9431-3.7123c-.6464-1.0883-.915-2.3596-.764-3.6163z" fill="#000"/><path d="m24.5059 39.4115c-.2382.0034-.4699-.0783-.6532-.2305-.1833-.1521-.3063-.3648-.3468-.5995l-.51-2.82c-.71-3.49-1-4.15-4.45-4.15-.2652 0-.5196-.1054-.7071-.2929-.1875-.1876-.2929-.4419-.2929-.7071 0-.2653.1054-.5196.2929-.7071.1875-.1876.4419-.2929.7071-.2929 4.77 0 5.58 1.67 6.41 5.78l.51 2.84c.0467.2597-.0111.5275-.161.7448-.1498.2173-.3795.3665-.639.4152z" fill="#000"/><path d="m30.7056 37.6915c-.2206.0101-.4383-.0531-.6192-.1798-.1809-.1266-.3148-.3095-.3808-.5202-1.42-4.6-2.8-5.3801-6.21-5.3801-.2652 0-.5196-.1053-.7071-.2928-.1875-.1876-.2929-.4419-.2929-.7071 0-.2653.1054-.5196.2929-.7071.1875-.1876.4419-.2929.7071-.2929 4.56 0 6.53 1.65 8.12 6.79.0785.2519.0543.5247-.0675.7589-.1217.2341-.3311.4106-.5825.4911-.0845.0247-.1719.0381-.26.04z" fill="#000"/><path d="m44.9556 26.12-2.6 5.94c-.5949 1.1765-1.4898 2.1752-2.5942 2.8951s-2.3793 1.1355-3.6958 1.2049c-.7452.0023-1.4769-.1985-2.1164-.5808-.6396-.3824-1.1629-.9318-1.5137-1.5892-.2147-.4062-.5141-.7615-.878-1.042s-.7837-.4797-1.2312-.5839c-.4475-.1043-.9121-.1113-1.3625-.0206s-.8761.2771-1.2482.5465l-1.71 1.25c-1.7737 1.2965-3.913 1.9967-6.11 2h-1.75c-2.47 0-3.68-1.84-2.69-4.1l2.61-5.94c.589-1.179 1.4811-2.18 2.5847-2.9005s2.3789-1.1345 3.6953-1.1995h18c2.3899.02 3.59 1.89 2.61 4.12z" fill="#fff"/><path d="m26.0456 24.65c0-.6462-.5239-1.17-1.17-1.17-.6462 0-1.17.5238-1.17 1.17v1.24c0 .6462.5238 1.17 1.17 1.17.6461 0 1.17-.5238 1.17-1.17z" fill="#b2c1d1"/><path d="m43.7355 24.65c0-.6462-.5238-1.17-1.17-1.17s-1.17.5238-1.17 1.17v1.24c0 .6462.5238 1.17 1.17 1.17s1.17-.5238 1.17-1.17z" fill="#b2c1d1"/><path d="m37.0755 25.95h-5.27c-.4616.0009-.9137.1318-1.3046.3776-.3908.2458-.7045.5967-.9054 1.0124l-.18.38c-.0797.1651-.1152.348-.1031.5309s.0714.3595.1721.5127c.1008.1531.2395.2775.4027.361s.3452.1233.5283.1154h5.26c.4514-.0013.8936-.1282 1.2769-.3667.3832-.2384.6925-.5789.8931-.9833l.19-.38c.0844-.1638.1251-.3466.1181-.5307s-.0614-.3632-.158-.5201c-.0965-.1569-.232-.2862-.3931-.3754-.1612-.0893-.3427-.1353-.527-.1338z" fill="#f47fff"/><path d="m12.5582 7.74639-.517 1.07049c-.027.05483-.0362.11677-.0263.17711.0099.06035.0384.11606.0815.15931.0431.04324.0986.07184.1588.08177.0601.00993.1218.0007.1765-.02641l1.067-.48558c.0379-.01739.0792-.02639.121-.02639.0417 0 .083.009.121.02639l1.0669.51317c.0547.02711.1164.03634.1766.02641.0601-.00993.1156-.03853.1587-.08177.0431-.04325.0717-.09896.0816-.15931.0099-.06034.0006-.12228-.0264-.17711l-.5115-1.07049c-.019-.03959-.0288-.08297-.0288-.12691 0-.04395.0098-.08733.0288-.12692l.5115-1.07049c.0303-.05241.0436-.11295.0381-.17327s-.0295-.11745-.0687-.16348c-.0393-.04603-.0918-.07871-.1503-.09351-.0586-.01479-.1203-.01099-.1766.01089l-1.0999.51318c-.0395.01907-.0827.02897-.1265.02897s-.0871-.0099-.1265-.02897l-1.067-.51318c-.0547-.0271-.1164-.03634-.1765-.02641-.0602.00993-.1157.03853-.1588.08178-.0431.04324-.0716.09896-.0815.1593-.0099.06035-.0007.12229.0263.17711l.517 1.07049c.0207.03876.0325.08171.0344.12566.0019.04394-.0061.08776-.0234.12817z" fill="#ffd836"/><g fill="#fff"><path d="m10.8819 19.447c0-.2469-.1982-.447-.4427-.447s-.44274.2001-.44274.447v.4414c0 .2469.19824.447.44274.447s.4427-.2001.4427-.447z"/><path d="m10.8819 23.0061c0-.2468-.1982-.447-.4427-.447s-.44274.2002-.44274.447v.4414c0 .2469.19824.447.44274.447s.4427-.2001.4427-.447z"/><path d="m12.4274 21.8859c.2461 0 .4455-.1989.4455-.4442s-.1994-.4442-.4455-.4442h-.44c-.246 0-.4454.1989-.4454.4442s.1994.4442.4454.4442z"/><path d="m8.88544 21.8914c.24604 0 .44549-.1988.44549-.4441 0-.2454-.19945-.4442-.44549-.4442h-.43999c-.24603 0-.44549.1988-.44549.4442 0 .2453.19946.4441.44549.4441z"/></g><path d="m42.2295 15.2263-.0039.0039c-.1246.125-.1246.3277 0 .4526l.2294.2303c.1246.1249.3266.1249.4511 0l.0039-.0039c.1246-.125.1246-.3277 0-.4527l-.2294-.2302c-.1246-.1249-.3266-.1249-.4511 0z" fill="#60cfac"/><path d="m44.0444 17.0512-.0039.0039c-.1246.125-.1246.3276 0 .4526l.2295.2302c.1245.125.3265.125.4511 0l.0039-.0039c.1245-.125.1245-.3276 0-.4526l-.2295-.2302c-.1246-.125-.3265-.125-.4511 0z" fill="#60cfac"/><path d="m44.7251 15.2324-.0039-.0039c-.1246-.125-.3266-.125-.4512 0l-.2294.2302c-.1246.125-.1246.3276 0 .4526l.0039.0039c.1246.125.3265.125.4511 0l.2295-.2302c.1245-.125.1245-.3276 0-.4526z" fill="#60cfac"/><path d="m42.9155 17.0572-.0039-.0039c-.1246-.125-.3266-.125-.4511 0l-.2295.2302c-.1246.125-.1246.3277 0 .4527l.0039.0039c.1246.1249.3266.1249.4511 0l.2295-.2303c.1246-.1249.1246-.3276 0-.4526z" fill="#60cfac"/><path d="m24 24.2779c-8.6359 1.7568-7.9204.0397-5.052-2.2779" stroke="#1f1f1f" stroke-linecap="round" stroke-miterlimit="10" stroke-width="2"/><path d="m27.1555 21.67c-.1314.019-.2651.012-.3938-.0206-.1286-.0327-.2495-.0904-.3558-.1698s-.196-.1789-.2638-.293c-.0679-.114-.1126-.2403-.1316-.3716-.0191-.1313-.0121-.2651.0206-.3937s.0903-.2496.1697-.3559.179-.1959.293-.2638c.114-.0678.2403-.1126.3717-.1316 3.256-.9917 3.8778-2.4302 4.2786-4.6804.0994-.558.5959-.9592 1.1614-.9196.5512.0827.9339.5992.8373 1.1482-.4695 2.6698-1.3054 5.0351-5.6773 6.3618-.0973.048-.2022.0785-.31.09z" fill="#000"/></svg>