<svg enable-background="new 0 0 360 280" viewBox="0 0 360 280" xmlns="http://www.w3.org/2000/svg"><path clip-rule="evenodd" d="m73.5 34.7s5.4 30.7 36.9 27.5c30.1-3 60.4-10.6 94.1-10.5 28 0 57.7 11.4 60.7-8.4 2.6-17.7-10.3-35.3-46.2-35.3s-85.1 15.5-106.4 19.8-39.1 6.9-39.1 6.9" fill="#5865f2" fill-rule="evenodd"/><path d="m73.5 34.7s5.4 30.7 36.9 27.5c30.1-3 60.4-10.6 94.1-10.5 28 0 57.7 11.4 60.7-8.4 2.6-17.7-10.3-35.3-46.2-35.3s-85.1 15.5-106.4 19.8-39.1 6.9-39.1 6.9z" style="fill:none;stroke:#231f1f;stroke-width:6;stroke-linecap:round;stroke-linejoin:round;stroke-dasharray:260 29"/><path clip-rule="evenodd" d="m127.2 115.8 2.2-10.3s-15.8-4.3-8.8-20.5c5.9-13.5 45.5-15.8 58.7-7.1s13.9 21.3 13.9 21.3 107.1-18.1 118.1 18.9c11 37.1-27.1 22.1-54.3 22.1-27.1 0-44 3.9-44 3.9s50.6 18.9 82.9 39.4 70.8 47.6 47.7 77.3c-23.2 29.7-54.6-2.4-96.1-30.8-52.1-35.5-74.1-47.5-74.1-47.5s-19 41-45 66.2c-35 34.3-90.7 29.6-119.3-24 0 0 32.5.1 55.8-15 25.6-16.7 42.6-41.8 42.6-41.8s-53.6 30-80.7 10.2c-27.1-19.7-21.3-27.6-4.4-31.5 14.4-3.4 104.8-30.8 104.8-30.8" fill="#5865f2" fill-rule="evenodd"/><path d="m127.2 115.8 2.2-10.3s-15.8-4.3-8.8-20.5c5.9-13.5 45.5-15.8 58.7-7.1s13.9 21.3 13.9 21.3 107.1-18.1 118.1 18.9c11 37.1-27.1 22.1-54.3 22.1-27.1 0-44 3.9-44 3.9s50.6 18.9 82.9 39.4 70.8 47.6 47.7 77.3c-23.2 29.7-54.6-2.4-96.1-30.8-52.1-35.5-74.1-47.5-74.1-47.5s-19 41-45 66.2c-35 34.3-90.7 29.6-119.3-24 0 0 32.5.1 55.8-15 25.6-16.7 42.6-41.8 42.6-41.8s-53.6 30-80.7 10.2c-27.1-19.7-21.3-27.6-4.4-31.5 14.4-3.4 104.8-30.8 104.8-30.8z" style="fill:none;stroke:#231f1f;stroke-width:6;stroke-linecap:round;stroke-linejoin:round;stroke-dasharray:510 20"/><path clip-rule="evenodd" d="m127.2 115.8-5.7 17" fill="#36393e" fill-rule="evenodd"/><path d="m127.2 115.8-5.7 17" style="fill:none;stroke:#231f1f;stroke-width:6;stroke-linecap:round;stroke-linejoin:round;stroke-dasharray:500 20"/><path d="m177.5 171.7s6-12 11-31.4" style="fill:none;stroke:#231f1f;stroke-width:6;stroke-linecap:round;stroke-linejoin:round;stroke-dasharray:23 10"/><path clip-rule="evenodd" d="m213.1 144.2-6.6 1.5" fill="#36393e" fill-rule="evenodd"/><g fill="none"><path d="m213.1 144.2-6.6 1.5" stroke="#231f1f" stroke-dasharray="500 20" stroke-linecap="round" stroke-linejoin="round" stroke-width="6"/><path d="m0 0h360v280h-360z"/></g></svg>