<svg xmlns="http://www.w3.org/2000/svg" width="260" height="200" viewBox="0 0 260 200" xmlns:xlink="http://www.w3.org/1999/xlink">
  <defs>
    <polygon id="a" points=".747 176 133.738 176 133.738 .909 .747 .909"/>
  </defs>
  <g fill="none" fill-rule="evenodd" transform="translate(3 5)">
    <path fill="#F7F7F8" fill-opacity=".9" d="M104.9632,0.0002 L131.5102,0.0002 C149.0672,0.0002 163.3002,14.2332 163.3002,31.7902 L163.3002,31.7962 C163.3002,49.3542 177.5322,63.5862 195.0902,63.5862 L197.2332,63.5862 C228.3762,63.5862 253.6222,88.8332 253.6222,119.9772 L253.6222,119.9782 C253.6222,151.1222 228.3762,176.3692 197.2332,176.3692 L33.8502,176.3692 C15.1552,176.3692 0.0002,161.2132 0.0002,142.5182 L0.0002,142.5172 C0.0002,123.8222 15.1552,108.6672 33.8502,108.6672 L36.9632,108.6672 C55.7402,108.6672 70.9632,93.4442 70.9632,74.6672 L70.9632,34.0002 C70.9632,15.2222 86.1852,0.0002 104.9632,0.0002"/>
    <polygon fill="#FFFFFF" points="90.756 22.335 90.756 153.335 77.895 157.669 77.895 31.839"/>
    <g transform="translate(34 14.927)">
      <path fill="#DCDDDE" d="M44.7464 42.6553C44.7464 36.0473 49.4064 30.3633 55.7564 28.9813L55.7564 34.9573C50.9754 35.8633 46.9984 38.8853 44.7464 42.9663L44.7464 42.6553zM44.7464 120.8569C44.7464 114.2499 49.4064 108.5659 55.7564 107.1819L55.7564 113.1599C50.9754 114.0649 46.9984 117.0869 44.7464 121.1679L44.7464 120.8569z"/>
      <path fill="#F7F7F8" d="M163.7376 25.8584C156.8166 25.3654 151.2806 19.8304 150.7886 12.9094L162.7376 12.9094C163.2886 12.9094 163.7376 13.3574 163.7376 13.9094L163.7376 25.8584zM163.7376 117.9282L163.7376 129.8782C163.7376 130.4302 163.2886 130.8782 162.7376 130.8782L150.7886 130.8782C151.2806 123.9562 156.8166 118.4212 163.7376 117.9282"/>
      <path fill="#DCDDDE" d="M97.43 173.8882C97.089 174.0612 96.701 174.0342 96.391 173.8122L91.369 170.2222C87.543 167.4882 82.402 167.4892 78.576 170.2222L73.554 173.8122C73.243 174.0342 72.855 174.0612 72.515 173.8882 72.175 173.7132 71.972 173.3802 71.972 172.9982L71.972 152.8862 97.972 152.8862 97.972 172.9982C97.972 173.3802 97.77 173.7132 97.43 173.8882M173.7376 137.8784C173.7376 139.5324 172.3916 140.8784 170.7376 140.8784L55.7556 140.8784C51.1256 140.8784 47.0516 143.3104 44.7466 146.9634L44.7466 146.8784C44.7466 139.1584 51.0266 132.8784 58.7466 132.8784L162.7376 132.8784C164.3916 132.8784 165.7376 131.5324 165.7376 129.8784L165.7376 13.9094C165.7376 12.2544 164.3916 10.9094 162.7376 10.9094L58.7466 10.9094C52.7256 10.9094 47.4766 14.2544 44.7466 19.1804L44.7466 16.9094C44.7466 9.1894 51.0266 2.9094 58.7466 2.9094L170.7376 2.9094C172.3916 2.9094 173.7376 4.2544 173.7376 5.9094L173.7376 137.8784z"/>
      <path fill="#B9BBBE" d="M57.7561,81.4082 C57.7561,80.8552 57.3091,80.4082 56.7561,80.4082 C56.2041,80.4082 55.7561,80.8552 55.7561,81.4082 L55.7561,83.6582 C55.7561,84.2112 56.2041,84.6582 56.7561,84.6582 C57.3091,84.6582 57.7561,84.2112 57.7561,83.6582 L57.7561,81.4082 Z"/>
      <path fill="#F7F7F8" d="M71.972,172.9985 C71.972,173.3805 72.175,173.7135 72.515,173.8885 C72.855,174.0605 73.243,174.0345 73.554,173.8115 L78.576,170.2225 C82.402,167.4885 87.543,167.4875 91.369,170.2225 L96.391,173.8115 C96.701,174.0345 97.089,174.0605 97.43,173.8885 C97.77,173.7135 97.972,173.3805 97.972,172.9985 L97.972,152.8865 L71.972,152.8865 L71.972,172.9985 Z"/>
      <g transform="translate(42)">
        <mask id="b" fill="white">
          <use xlink:href="#a"/>
        </mask>
        <path fill="#B9BBBE" d="M121.7327,150.8862 L14.7557,150.8862 C14.2047,150.8862 13.7557,151.3332 13.7557,151.8862 C13.7557,152.4392 14.2047,152.8862 14.7557,152.8862 L25.9697,152.8862 C27.0757,152.8862 27.9717,153.7822 27.9717,154.8882 C27.9717,155.9932 27.0757,156.8912 25.9697,156.8912 L20.9697,156.8912 C20.4177,156.8912 19.9697,157.3382 19.9697,157.8912 C19.9697,158.4442 20.4177,158.8912 20.9697,158.8912 L27.9717,158.8912 L27.9717,160.8982 C27.9717,163.1072 26.1817,164.8982 23.9717,164.8982 L14.0787,164.8982 C8.2827,164.8982 3.2387,160.5522 2.7817,154.7752 C2.2727,148.3392 7.3917,144.8792 13.7547,144.8792 L125.7267,144.8792 C126.2827,144.8792 126.7327,145.3292 126.7327,145.8862 C126.7327,148.6472 124.4947,150.8862 121.7327,150.8862 L121.7327,150.8862 Z M55.9717,172.9982 C55.9717,173.3802 55.7697,173.7132 55.4297,173.8882 C55.0887,174.0612 54.7017,174.0342 54.3907,173.8122 L49.3697,170.2222 C45.5437,167.4872 40.4017,167.4872 36.5757,170.2222 L31.5537,173.8122 C31.2427,174.0342 30.8547,174.0612 30.5147,173.8882 C30.1747,173.7132 29.9717,173.3802 29.9717,172.9982 L29.9717,156.8872 C29.9717,155.7822 30.8677,154.8872 31.9717,154.8872 L53.9717,154.8872 C55.0767,154.8872 55.9717,155.7822 55.9717,156.8872 L55.9717,172.9982 Z M2.7467,128.8642 C2.7467,124.0242 5.2467,119.6802 9.0787,117.1582 C11.0847,115.8382 13.7557,117.2522 13.7557,119.6542 L13.7557,121.8702 C13.7557,122.4232 14.2047,122.8702 14.7557,122.8702 C15.3087,122.8702 15.7557,122.4232 15.7557,121.8702 L15.7557,88.9082 C15.7557,88.3552 15.3087,87.9082 14.7557,87.9082 C14.2047,87.9082 13.7557,88.3552 13.7557,88.9082 L13.7557,102.8142 C13.7557,104.0902 12.9717,105.2692 11.7597,105.6672 C7.8757,106.9442 4.6757,109.6632 2.7467,113.1602 L2.7467,50.6612 C2.7467,45.8222 5.2467,41.4782 9.0787,38.9572 C11.0847,37.6372 13.7557,39.0512 13.7557,41.4522 L13.7557,75.6582 C13.7557,76.2112 14.2047,76.6582 14.7557,76.6582 C15.3087,76.6582 15.7557,76.2112 15.7557,75.6582 L15.7557,21.9172 C15.7557,21.3642 15.3087,20.9172 14.7557,20.9172 C14.2047,20.9172 13.7557,21.3642 13.7557,21.9172 L13.7557,24.6132 C13.7557,25.8882 12.9717,27.0682 11.7597,27.4662 C7.8757,28.7422 4.6757,31.4622 2.7467,34.9592 L2.7467,26.9092 C2.7467,19.1772 9.0137,12.9092 16.7467,12.9092 L104.1887,12.9092 C105.5967,12.9092 106.8167,13.8882 107.1117,15.2652 C108.3837,21.2002 112.9547,25.9172 118.8087,27.4012 C120.4327,27.8122 121.7377,29.6092 121.7377,31.2852 L121.7377,112.5022 C121.7377,114.1772 120.4327,115.9742 118.8087,116.3862 C112.9547,117.8702 108.3837,122.5862 107.1117,128.5222 C106.8167,129.8982 105.5967,130.8782 104.1887,130.8782 L16.7467,130.8782 C12.6607,130.8782 8.9297,132.4182 6.1007,134.9482 C4.7997,136.1122 2.7467,135.2272 2.7467,133.4842 L2.7467,128.8642 Z M2.7467,120.8572 C2.7467,115.7502 5.5297,111.1962 9.7257,108.7512 C11.5107,107.7112 13.7557,109.0132 13.7557,111.0792 C13.7557,112.2712 12.9607,113.2852 11.8277,113.6522 C7.9117,114.9182 4.6877,117.6502 2.7467,121.1672 L2.7467,120.8572 Z M2.7467,42.6552 C2.7467,37.5482 5.5297,32.9932 9.7257,30.5492 C11.5117,29.5092 13.7557,30.8112 13.7557,32.8782 C13.7557,34.0692 12.9607,35.0832 11.8277,35.4502 C7.9127,36.7172 4.6877,39.4482 2.7467,42.9662 L2.7467,42.6552 Z M109.6817,126.8622 C111.1017,123.1772 114.0367,120.2412 117.7217,118.8232 C119.6597,118.0752 121.7377,119.5712 121.7377,121.6482 L121.7377,129.8782 C121.7377,130.4302 121.2897,130.8782 120.7377,130.8782 L112.5077,130.8782 C110.4307,130.8782 108.9357,128.8002 109.6817,126.8622 L109.6817,126.8622 Z M117.7217,24.9642 C114.0367,23.5452 111.1017,20.6102 109.6817,16.9252 C108.9357,14.9872 110.4307,12.9092 112.5077,12.9092 L120.7377,12.9092 C121.2897,12.9092 121.7377,13.3572 121.7377,13.9092 L121.7377,22.1392 C121.7377,24.2162 119.6597,25.7112 117.7217,24.9642 L117.7217,24.9642 Z M2.7467,16.9092 C2.7467,9.1772 9.0137,2.9092 16.7467,2.9092 L128.7377,2.9092 C130.3947,2.9092 131.7377,4.2522 131.7377,5.9092 L131.7377,137.8782 C131.7377,139.5342 130.3947,140.8782 128.7377,140.8782 L13.7547,140.8782 C10.6067,140.8782 7.7157,142.0022 5.4627,143.8702 C4.6687,144.5302 3.5207,143.7052 3.8967,142.7422 C5.4527,138.7542 8.9877,133.3162 16.7467,132.8782 L120.7377,132.8782 C122.3947,132.8782 123.7377,131.5342 123.7377,129.8782 L123.7377,13.9092 C123.7377,12.2522 122.3947,10.9092 120.7377,10.9092 L16.7467,10.9092 C11.5217,10.9092 6.8777,13.4292 3.9567,17.3152 C3.5667,17.8332 2.7467,17.5562 2.7467,16.9092 L2.7467,16.9092 Z M128.7367,145.7902 C128.7377,145.2962 129.1007,144.8912 129.5877,144.8072 C131.9447,144.4042 133.7377,142.3512 133.7377,139.8792 L133.7377,5.9092 C133.7377,3.1482 131.4997,0.9092 128.7377,0.9092 L16.7467,0.9092 C7.9097,0.9092 0.7467,8.0732 0.7467,16.9092 L0.7467,153.8882 C0.7467,161.0732 6.5707,166.8982 13.7557,166.8982 L27.9717,166.8982 L27.9717,172.8802 C27.9717,173.7742 28.3087,174.6622 28.9837,175.2472 C30.0767,176.1952 31.6017,176.2352 32.7167,175.4392 L37.7387,171.8492 C40.8687,169.6112 45.0757,169.6112 48.2067,171.8492 L53.2277,175.4392 C53.7487,175.8112 54.3577,176.0002 54.9707,176.0002 C55.6567,176.0002 56.3477,175.7632 56.9227,175.2812 C57.6237,174.6932 57.9717,173.7822 57.9717,172.8662 L57.9717,166.8982 L127.7367,166.8982 C130.4987,166.8982 132.7367,164.6582 132.7367,161.8982 L132.7367,149.2742 C132.7367,148.7212 132.2897,148.2742 131.7367,148.2742 C131.1847,148.2742 130.7367,148.7212 130.7367,149.2742 L130.7367,161.8982 C130.7367,163.5542 129.3937,164.8982 127.7367,164.8982 L61.9717,164.8982 C59.7627,164.8982 57.9717,163.1072 57.9717,160.8982 L57.9717,155.8862 C57.9717,154.2292 59.3157,152.8862 60.9717,152.8862 L121.7327,152.8862 C123.2987,152.8862 124.7457,152.3672 125.9127,151.4942 C126.2527,151.2402 126.7327,151.4652 126.7327,151.8912 C126.7327,154.6522 124.4947,156.8912 121.7327,156.8912 L62.2417,156.8912 C61.6897,156.8912 61.2417,157.3382 61.2417,157.8912 C61.2417,158.4442 61.6897,158.8912 62.2417,158.8912 L121.7327,158.8912 C125.5987,158.8912 128.7327,155.7562 128.7327,151.8912 L128.7367,145.7902 Z" mask="url(#b)"/>
      </g>
      <path fill="#B9BBBE" d="M116.3792,72.5879 C114.8012,72.5879 113.5222,71.2159 113.5222,69.5229 C113.5222,67.8309 114.8012,66.4589 116.3792,66.4589 C117.9602,66.4589 119.2392,67.8309 119.2392,69.5229 C119.2392,71.2159 117.9602,72.5879 116.3792,72.5879 M106.2012,72.5879 C104.6202,72.5879 103.3412,71.2159 103.3412,69.5229 C103.3412,67.8309 104.6202,66.4589 106.2012,66.4589 C107.7792,66.4589 109.0592,67.8309 109.0592,69.5229 C109.0592,71.2159 107.7792,72.5879 106.2012,72.5879 M115.8512,56.1299 L115.4592,56.5749 C120.2242,58.0079 122.4182,60.0949 122.4182,60.0949 C119.5142,58.5209 116.6562,57.7329 114.0042,57.4359 C111.9792,57.2109 110.0722,57.2709 108.3562,57.4859 C108.1972,57.5059 108.0432,57.5299 107.8872,57.5519 C106.9092,57.6459 104.5472,57.9969 101.5482,59.3029 C100.4902,59.7499 99.8902,60.0949 99.8902,60.0949 C99.8902,60.0949 102.1832,57.8889 107.2222,56.4559 L106.9342,56.1299 C106.9342,56.1299 103.1222,56.0349 99.1002,59.0369 C99.1002,59.0369 95.0802,66.2609 95.0802,75.1719 C95.0802,75.1719 97.4392,79.2069 103.6082,79.3939 C103.6082,79.3939 104.6292,78.1639 105.4712,77.1059 C101.9192,76.0639 100.5772,73.8519 100.5772,73.8519 C100.5772,73.8519 100.8502,74.0399 101.3482,74.3239 C101.3882,74.3479 101.4282,74.3699 101.4702,74.3929 C101.5512,74.4389 101.6382,74.4849 101.7302,74.5349 C102.4522,74.9309 103.1412,75.2449 103.7812,75.4879 C104.9082,75.9399 106.2922,76.3859 107.8802,76.6789 C109.9852,77.0669 112.4452,77.1869 115.1182,76.6939 C116.4272,76.4549 117.7832,76.0689 119.1772,75.4949 C120.1562,75.1239 121.2442,74.6019 122.3992,73.8519 C122.3992,73.8519 121.0172,76.1279 117.3492,77.1479 C118.1842,78.1969 119.1792,79.3939 119.1792,79.3939 C125.3482,79.2069 127.7052,75.1719 127.7052,75.1719 C127.7052,66.2609 123.6852,59.0369 123.6852,59.0369 C119.6632,56.0349 115.8512,56.1299 115.8512,56.1299"/>
      <path fill="#DCDDDE" d="M116.3792 66.4585C114.8012 66.4585 113.5222 67.8305 113.5222 69.5225 113.5222 71.2155 114.8012 72.5875 116.3792 72.5875 117.9602 72.5875 119.2392 71.2155 119.2392 69.5225 119.2392 67.8305 117.9602 66.4585 116.3792 66.4585M106.2014 66.4585C104.6204 66.4585 103.3414 67.8305 103.3414 69.5225 103.3414 71.2155 104.6204 72.5875 106.2014 72.5875 107.7794 72.5875 109.0584 71.2155 109.0584 69.5225 109.0584 67.8305 107.7794 66.4585 106.2014 66.4585"/>
      <path fill="#DCDDDE" d="M119.179,79.394 C119.179,79.394 118.184,78.197 117.349,77.148 C121.017,76.128 122.399,73.852 122.399,73.852 C121.244,74.602 120.157,75.124 119.177,75.495 C117.783,76.069 116.427,76.455 115.118,76.694 C112.446,77.187 109.986,77.067 107.88,76.679 C106.292,76.386 104.908,75.94 103.782,75.488 C103.141,75.245 102.452,74.931 101.73,74.535 C101.638,74.485 101.551,74.438 101.47,74.393 C101.428,74.37 101.388,74.348 101.348,74.324 C100.85,74.04 100.577,73.852 100.577,73.852 C100.577,73.852 101.919,76.064 105.471,77.105 C104.629,78.164 103.608,79.394 103.608,79.394 C97.439,79.207 95.08,75.172 95.08,75.172 C95.08,66.261 99.1,59.037 99.1,59.037 C103.122,56.035 106.934,56.13 106.934,56.13 L107.222,56.456 C102.183,57.889 99.89,60.095 99.89,60.095 C99.89,60.095 100.491,59.75 101.548,59.303 C104.547,57.997 106.909,57.645 107.887,57.552 C108.043,57.53 108.198,57.506 108.356,57.486 C110.073,57.27 111.979,57.21 114.004,57.436 C116.657,57.732 119.514,58.52 122.418,60.095 C122.418,60.095 120.224,58.008 115.459,56.575 L115.851,56.13 C115.851,56.13 119.663,56.035 123.685,59.037 C123.685,59.037 127.705,66.261 127.705,75.172 C127.705,75.172 125.348,79.207 119.179,79.394 M129.961,43.227 L92.526,43.227 C89.368,43.227 86.81,45.785 86.81,48.942 L86.81,86.377 C86.81,86.969 86.901,87.54 87.068,88.077 C87.178,88.435 87.325,88.778 87.5,89.102 C87.676,89.426 87.882,89.73 88.116,90.013 C89.163,91.283 90.75,92.092 92.526,92.092 L124.201,92.092 L122.72,86.979 L126.287,90.269 L129.656,93.373 L135.677,98.602 L135.677,86.377 L135.677,83.598 L135.677,48.942 C135.677,45.785 133.118,43.227 129.961,43.227"/>
      <path fill="#B9BBBE" d="M135.677 83.5981L135.677 86.3771 135.677 98.6011 129.656 93.3731 126.287 90.2681 122.72 86.9791 124.201 92.0921 92.526 92.0921C90.75 92.0921 89.163 91.2831 88.115 90.0131 87.882 89.7301 87.676 89.4261 87.5 89.1011 87.324 88.7781 87.178 88.4351 87.068 88.0771 86.901 87.5401 86.81 86.9691 86.81 86.3771L86.81 48.9421C86.81 45.7851 89.368 43.2271 92.526 43.2271L129.961 43.2271C133.118 43.2271 135.677 45.7851 135.677 48.9421L135.677 83.5981zM129.961 41.2271L92.526 41.2271C88.272 41.2271 84.81 44.6881 84.81 48.9421L84.81 86.3771C84.81 90.6311 88.272 94.0921 92.526 94.0921L124.201 94.0921C124.83 94.0921 125.422 93.7971 125.8 93.2941 125.916 93.1391 126.008 92.9701 126.074 92.7921L128.3 94.8431C128.315 94.8571 128.329 94.8701 128.344 94.8831L134.365 100.1121C134.737 100.4331 135.204 100.6011 135.677 100.6011 135.958 100.6011 136.24 100.5421 136.506 100.4211 137.219 100.0961 137.677 99.3851 137.677 98.6011L137.677 86.3771 137.677 83.5981 137.677 48.9421C137.677 44.6881 134.215 41.2271 129.961 41.2271L129.961 41.2271zM6.093 115.8784L6.093 115.8784C5.259 115.8784 4.583 115.2014 4.583 114.3684 4.583 113.8154 4.135 113.3684 3.583 113.3684 3.03 113.3684 2.583 113.8154 2.583 114.3684 2.583 115.2014 1.907 115.8784 1.073 115.8784.521 115.8784.073 116.3254.073 116.8784.073 117.4314.521 117.8784 1.073 117.8784 1.907 117.8784 2.583 118.5544 2.583 119.3884 2.583 119.9404 3.03 120.3884 3.583 120.3884 4.135 120.3884 4.583 119.9404 4.583 119.3884 4.583 118.5544 5.259 117.8784 6.093 117.8784 6.646 117.8784 7.093 117.4314 7.093 116.8784 7.093 116.3254 6.646 115.8784 6.093 115.8784M10.4993 73.5688C10.7553 73.5688 11.0113 73.4708 11.2063 73.2758L12.3903 72.0928C12.7803 71.7038 12.7803 71.0698 12.3913 70.6788 12.0003 70.2888 11.3663 70.2888 10.9763 70.6788L9.7923 71.8618C9.4013 72.2518 9.4013 72.8848 9.7923 73.2758 9.9873 73.4708 10.2433 73.5688 10.4993 73.5688M4.5833 79.4858C4.8393 79.4858 5.0963 79.3878 5.2903 79.1928L6.4743 78.0088C6.8643 77.6188 6.8643 76.9858 6.4743 76.5948 6.0833 76.2048 5.4493 76.2048 5.0603 76.5948L3.8763 77.7788C3.4853 78.1698 3.4853 78.8018 3.8763 79.1928 4.0713 79.3878 4.3273 79.4858 4.5833 79.4858M11.2063 76.5952C10.8153 76.2042 10.1833 76.2042 9.7923 76.5952 9.4013 76.9862 9.4013 77.6182 9.7923 78.0092L10.9763 79.1932C11.1713 79.3882 11.4273 79.4862 11.6833 79.4862 11.9383 79.4862 12.1943 79.3882 12.3903 79.1932 12.7803 78.8022 12.7803 78.1692 12.3903 77.7792L11.2063 76.5952zM5.0598 73.2759C5.2548 73.4709 5.5108 73.5689 5.7668 73.5689 6.0228 73.5689 6.2788 73.4709 6.4738 73.2759 6.8648 72.8849 6.8648 72.2529 6.4738 71.8619L5.2898 70.6789C4.8998 70.2889 4.2658 70.2889 3.8758 70.6789 3.4858 71.0699 3.4858 71.7029 3.8758 72.0929L5.0598 73.2759zM195.6692 4.041C195.9252 4.041 196.1812 3.943 196.3762 3.748L197.5602 2.565C197.9502 2.176 197.9502 1.542 197.5602 1.151 197.1692.761 196.5362.761 196.1462 1.151L194.9622 2.334C194.5712 2.724 194.5712 3.357 194.9612 3.748 195.1562 3.943 195.4132 4.041 195.6692 4.041M189.7532 9.958C190.0092 9.958 190.2652 9.86 190.4602 9.665L191.6432 8.481C192.0332 8.091 192.0332 7.458 191.6432 7.067 191.2522 6.677 190.6182 6.677 190.2292 7.067L189.0462 8.251C188.6552 8.642 188.6552 9.274 189.0462 9.665 189.2412 9.86 189.4972 9.958 189.7532 9.958M196.3763 7.0674C195.9853 6.6764 195.3533 6.6764 194.9623 7.0674 194.5713 7.4584 194.5713 8.0904 194.9623 8.4814L196.1463 9.6654C196.3413 9.8604 196.5973 9.9584 196.8533 9.9584 197.1083 9.9584 197.3643 9.8604 197.5603 9.6654 197.9503 9.2744 197.9503 8.6414 197.5603 8.2514L196.3763 7.0674zM190.2288 3.748C190.4238 3.943 190.6798 4.041 190.9358 4.041 191.1918 4.041 191.4488 3.943 191.6428 3.748 192.0338 3.357 192.0338 2.725 191.6428 2.334L190.4598 1.151C190.0698.761 189.4358.761 189.0458 1.151 188.6558 1.542 188.6558 2.175 189.0458 2.565L190.2288 3.748zM203.6751 24.3481C204.5071 24.3481 205.1851 25.0261 205.1851 25.8581 205.1851 26.6911 204.5071 27.3691 203.6751 27.3691 202.8421 27.3691 202.1641 26.6911 202.1641 25.8581 202.1641 25.0261 202.8421 24.3481 203.6751 24.3481M203.6751 29.3691C205.6101 29.3691 207.1851 27.7931 207.1851 25.8581 207.1851 23.9221 205.6101 22.3481 203.6751 22.3481 201.7391 22.3481 200.1641 23.9221 200.1641 25.8581 200.1641 27.7931 201.7391 29.3691 203.6751 29.3691"/>
    </g>
  </g>
</svg>
