<svg width="12" height="12" viewBox="0 0 12 12" fill="none" xmlns="http://www.w3.org/2000/svg">
<path d="M11.7773 5.62229L8.56182 3.86249C8.38137 3.76183 8.23422 3.61066 8.13843 3.42755L6.37905 0.222722C6.34205 0.155286 6.28762 0.0990351 6.22144 0.0598534C6.15526 0.0206718 6.07976 0 6.00286 0C5.92596 0 5.85046 0.0206718 5.78428 0.0598534C5.7181 0.0990351 5.66367 0.155286 5.62667 0.222722L3.86443 3.42755C3.76686 3.60644 3.61988 3.75345 3.44104 3.85105L0.222669 5.62229C0.155249 5.6593 0.099012 5.71375 0.0598397 5.77994C0.0206674 5.84614 0 5.92165 0 5.99857C0 6.07549 0.0206674 6.151 0.0598397 6.2172C0.099012 6.28339 0.155249 6.33784 0.222669 6.37485L3.44104 8.13465C3.61969 8.2325 3.7666 8.37945 3.86443 8.55814L5.62381 11.7773C5.66081 11.8447 5.71524 11.901 5.78142 11.9401C5.8476 11.9793 5.9231 12 6 12C6.0769 12 6.15239 11.9793 6.21858 11.9401C6.28475 11.901 6.33919 11.8447 6.37619 11.7773L8.13557 8.55814C8.23327 8.37935 8.38022 8.23237 8.55896 8.13465L11.7773 6.37485C11.8447 6.33784 11.901 6.28339 11.9402 6.2172C11.9793 6.151 12 6.07549 12 5.99857C12 5.92165 11.9793 5.84614 11.9402 5.77994C11.901 5.71375 11.8447 5.6593 11.7773 5.62229Z" fill="#949CF7"/>
</svg>
