<svg xmlns="http://www.w3.org/2000/svg" width="166" height="166" viewBox="0 0 166 166"><path d="M138,22.56H27.93a1.73,1.73,0,0,0-.32,0,1.52,1.52,0,0,0-.2.06l-.17.05-.19.1-.15.08-.17.14-.13.11a1.41,1.41,0,0,0-.25.29h0a2.89,2.89,0,0,0-.19.35c0,.06,0,.12,0,.17a1.52,1.52,0,0,0-.06.2,1.81,1.81,0,0,0,0,.4h0V99.13a2,2,0,0,0,.78,1.59l55,42.31a2,2,0,0,0,2.44,0l55-42.31a2,2,0,0,0,.78-1.59V24.56h0a1.81,1.81,0,0,0,0-.4,1.52,1.52,0,0,0-.06-.2c0-.05,0-.11-.05-.17a2.89,2.89,0,0,0-.19-.35h0a2.37,2.37,0,0,0-.25-.29.81.81,0,0,0-.14-.12l-.16-.13-.16-.09-.18-.09-.18-.06-.19,0-.33,0H138ZM84.12,114.19a2,2,0,0,0-2.24,0L65.39,125.37l-9.1-7L83,100.26l26.71,18.11-9.1,7Zm13.15,13.75L83,138.92l-14.27-11L83,118.26ZM84.12,96.19a2,2,0,0,0-2.24,0L53,115.8l-9.1-7L79.12,84.9l1.21.87a4.57,4.57,0,0,0,5.34,0l1.21-.87,35.27,23.9-9.1,7ZM81.88,45.5a2,2,0,0,0,2.24,0l27.94-18.94h19.43l-26.58,18h0l-19.77,13A6.32,6.32,0,0,0,83.57,59l-.57.39L82.43,59a6.32,6.32,0,0,0-1.57-1.48l-19.77-13h0l-26.58-18H53.94ZM61.06,26.56h43.88L83,41.43Zm46.27,21.28.09,0h0a.48.48,0,0,1,.24.06l0,0a.57.57,0,0,1,.16.15l0,0a.63.63,0,0,1,.08.23v.06a.59.59,0,0,1-.06.28L99.74,64.76a.57.57,0,0,0,.51.84h4.91a.58.58,0,0,1,.58.57.55.55,0,0,1-.07.25.36.36,0,0,1,0,.09.44.44,0,0,1-.14.13L83.34,82.52a.58.58,0,0,1-.68,0L60.51,66.64a.55.55,0,0,1-.25-.47.58.58,0,0,1,.58-.57h4.91a.57.57,0,0,0,.51-.84L58.07,48.67h0a.59.59,0,0,1-.06-.28v-.06a.63.63,0,0,1,.08-.23l0,0a.57.57,0,0,1,.16-.15l0,0a.48.48,0,0,1,.24-.06h0l.09,0h0a.53.53,0,0,1,.17.08h0l19.77,13a2.34,2.34,0,0,1,.8.91l1.81,3.62h0l1.2,2.42a.58.58,0,0,0,1,0l1.2-2.42h0l1.81-3.62a2.27,2.27,0,0,1,.34-.51,2.93,2.93,0,0,1,.46-.4l19.77-13h0a.53.53,0,0,1,.17-.08ZM55.15,45.38a5.09,5.09,0,0,0-.48.64,4.55,4.55,0,0,0-.17,4.46l5.69,11.16a4.58,4.58,0,0,0-2,8.26l4.56,3.27L30,95.36v-67Zm48.11,27.79,4.56-3.27a4.58,4.58,0,0,0-2-8.26l5.69-11.16a4.55,4.55,0,0,0-.17-4.46,5.09,5.09,0,0,0-.48-.64L136,28.33v67ZM66.21,75.65l9.44,6.76L40.51,106.24l-9.1-7Zm24.14,6.76,9.44-6.76,34.8,23.59-9.1,7Z" fill="#fff"/><path d="M148,11.25H18a2,2,0,0,0-2,2v89.5a2,2,0,0,0,.78,1.58l65,50a2,2,0,0,0,2.44,0l65-50a2,2,0,0,0,.78-1.58V13.25A2,2,0,0,0,148,11.25Zm-2,90.52L83,150.23,20,101.77V15.25H146Z" fill="#fff"/></svg>
