<svg xmlns="http://www.w3.org/2000/svg" width="272" height="222" viewBox="0 0 272 222" xmlns:xlink="http://www.w3.org/1999/xlink">
  <defs>
    <polygon id="a" points="0 .399 0 187 271.217 187 271.217 .399 0 .399"/>
  </defs>
  <g fill="none" fill-rule="evenodd" transform="translate(0 9)">
    <g transform="translate(0 16.577)">
      <mask id="b" fill="white">
        <use xlink:href="#a"/>
      </mask>
      <path fill="#4F545C" fill-opacity=".3" d="M240.9138,34.3993 L240.9138,34.3993 C240.9138,53.1773 225.6918,68.3993 206.9138,68.3993 L189.1088,68.3993 C177.9258,68.3993 168.8598,77.4643 168.8598,88.6483 C168.8598,99.8303 177.9258,108.8963 189.1088,108.8963 L232.1648,108.8963 C253.7328,108.8963 271.2168,126.3803 271.2168,147.9483 C271.2168,169.5163 253.7328,187.0003 232.1648,187.0003 L26.9448,187.0003 C12.0638,187.0003 -0.0002,174.9363 -0.0002,160.0553 C-0.0002,145.1733 12.0638,133.1103 26.9448,133.1103 L40.0068,133.1103 C62.8318,133.1103 81.3358,114.6063 81.3358,91.7803 L81.3358,41.7293 C81.3358,18.9033 99.8398,0.3993 122.6648,0.3993 L206.9138,0.3993 C225.6918,0.3993 240.9138,15.6213 240.9138,34.3993" mask="url(#b)"/>
    </g>
    <path fill="#AA7112" d="M27.903,177.2141 L130.464,3.8641 C132.787,-0.0629 138.469,-0.0629 140.792,3.8641 L243.353,177.2141 C245.719,181.2141 242.836,186.2691 238.189,186.2691 L33.067,186.2691 C28.42,186.2691 25.537,181.2141 27.903,177.2141"/>
    <path fill="#1F2225" d="M55.5637 131.5085C55.3907 131.5085 55.2147 131.4635 55.0557 131.3695 54.5807 131.0885 54.4227 130.4745 54.7037 129.9995L129.5837 3.4355C130.8567 1.2845 133.1087.0005 135.6087.0005L135.6087.0005C138.1077.0005 140.3597 1.2845 141.6327 3.4355L195.9657 95.2705C196.2477 95.7455 196.0897 96.3595 195.6147 96.6405 195.1397 96.9215 194.5257 96.7635 194.2447 96.2885L139.9117 4.4545C138.9697 2.8615 137.2757 1.9345 135.4127 2.0045 133.6437 2.0705 132.0697 3.1615 131.1687 4.6855L56.4257 131.0175C56.2387 131.3335 55.9057 131.5085 55.5637 131.5085M238.1691 187.3508L33.0471 187.3508C30.5011 187.3508 28.2281 186.0308 26.9671 183.8188 25.7051 181.6068 25.7261 178.9778 27.0231 176.7868L49.3331 139.0768C49.6151 138.6028 50.2291 138.4448 50.7031 138.7258 51.1781 139.0068 51.3361 139.6198 51.0551 140.0958L28.7441 177.8048C27.8181 179.3708 27.8031 181.2478 28.7041 182.8278 29.6051 184.4078 31.2291 185.3508 33.0471 185.3508L238.1691 185.3508C239.9881 185.3508 241.6111 184.4078 242.5121 182.8278 243.4141 181.2478 243.3981 179.3708 242.4721 177.8048L202.8211 110.7858C202.5401 110.3098 202.6971 109.6968 203.1721 109.4148 203.6491 109.1348 204.2611 109.2928 204.5431 109.7668L244.1941 176.7868C245.4901 178.9778 245.5111 181.6068 244.2501 183.8188 242.9881 186.0308 240.7151 187.3508 238.1691 187.3508M200.2233 105.4284C199.8813 105.4284 199.5483 105.2534 199.3613 104.9374L198.1703 102.9254C197.8893 102.4494 198.0473 101.8364 198.5223 101.5544 198.9983 101.2754 199.6113 101.4314 199.8923 101.9064L201.0833 103.9194C201.3643 104.3944 201.2063 105.0084 200.7313 105.2894 200.5723 105.3834 200.3963 105.4284 200.2233 105.4284"/>
    <path fill="#36393F" d="M140.6223 128.8122L131.0673 128.8122C130.0433 128.8122 129.1853 128.0392 129.0783 127.0202L122.5753 65.0012C122.2043 61.4602 124.9813 58.3762 128.5423 58.3762L142.7133 58.3762C146.2583 58.3762 149.0303 61.4332 148.6853 64.9602L142.6133 127.0072C142.5123 128.0312 141.6513 128.8122 140.6223 128.8122M124.5739 150.4904L124.5739 149.7874C124.5739 143.6954 129.5119 138.7574 135.6039 138.7574L135.6059 138.7574C141.6979 138.7574 146.6359 143.6954 146.6359 149.7874L146.6359 150.4904C146.6359 156.5814 141.6979 161.5204 135.6059 161.5204L135.6039 161.5204C129.5119 161.5204 124.5739 156.5814 124.5739 150.4904"/>
    <path fill="#1F2225" d="M239.6882 91.3225L239.6882 91.3225C238.8542 91.3225 238.1782 90.6465 238.1782 89.8125 238.1782 89.2595 237.7302 88.8125 237.1782 88.8125 236.6252 88.8125 236.1782 89.2595 236.1782 89.8125 236.1782 90.6465 235.5012 91.3225 234.6682 91.3225 234.1162 91.3225 233.6682 91.7695 233.6682 92.3225 233.6682 92.8755 234.1162 93.3225 234.6682 93.3225 235.5012 93.3225 236.1782 93.9985 236.1782 94.8325 236.1782 95.3845 236.6252 95.8325 237.1782 95.8325 237.7302 95.8325 238.1782 95.3845 238.1782 94.8325 238.1782 93.9985 238.8542 93.3225 239.6882 93.3225L239.6882 93.3225C240.2402 93.3225 240.6882 92.8755 240.6882 92.3225 240.6882 91.7695 240.2402 91.3225 239.6882 91.3225M33.5207 102.8801L33.5207 102.8801C32.6867 102.8801 32.0107 102.2041 32.0107 101.3701 32.0107 100.8171 31.5627 100.3701 31.0107 100.3701 30.4577 100.3701 30.0107 100.8171 30.0107 101.3701 30.0107 102.2041 29.3347 102.8801 28.5007 102.8801 27.9487 102.8801 27.5007 103.3271 27.5007 103.8801 27.5007 104.4331 27.9487 104.8801 28.5007 104.8801 29.3347 104.8801 30.0107 105.5561 30.0107 106.3901 30.0107 106.9421 30.4577 107.3901 31.0107 107.3901 31.5627 107.3901 32.0107 106.9421 32.0107 106.3901 32.0107 105.5561 32.6867 104.8801 33.5207 104.8801L33.5207 104.8801C34.0727 104.8801 34.5207 104.4331 34.5207 103.8801 34.5207 103.3271 34.0727 102.8801 33.5207 102.8801M56.9304 73.3127C57.1864 73.3127 57.4424 73.2147 57.6374 73.0197L58.8214 71.8367C59.2114 71.4477 59.2114 70.8137 58.8214 70.4227 58.4304 70.0327 57.7974 70.0327 57.4074 70.4227L56.2234 71.6057C55.8324 71.9957 55.8324 72.6287 56.2224 73.0197 56.4184 73.2147 56.6744 73.3127 56.9304 73.3127M51.0143 79.2297C51.2703 79.2297 51.5263 79.1317 51.7213 78.9367L52.9043 77.7527C53.2953 77.3627 53.2953 76.7297 52.9043 76.3387 52.5143 75.9487 51.8803 75.9487 51.4903 76.3387L50.3073 77.5227C49.9163 77.9137 49.9163 78.5457 50.3073 78.9367 50.5023 79.1317 50.7583 79.2297 51.0143 79.2297M57.6374 76.3391C57.2464 75.9481 56.6144 75.9481 56.2234 76.3391 55.8324 76.7301 55.8324 77.3621 56.2234 77.7531L57.4074 78.9371C57.6024 79.1321 57.8584 79.2301 58.1144 79.2301 58.3694 79.2301 58.6254 79.1321 58.8214 78.9371 59.2114 78.5461 59.2114 77.9131 58.8214 77.5231L57.6374 76.3391zM51.4904 73.0197C51.6854 73.2147 51.9414 73.3127 52.1974 73.3127 52.4534 73.3127 52.7094 73.2147 52.9044 73.0197 53.2954 72.6287 53.2954 71.9967 52.9044 71.6057L51.7214 70.4227C51.3304 70.0327 50.6974 70.0327 50.3074 70.4227 49.9164 70.8137 49.9164 71.4467 50.3074 71.8367L51.4904 73.0197zM216.5632 64.2443C217.3962 64.2443 218.0732 64.9223 218.0732 65.7543 218.0732 66.5873 217.3962 67.2653 216.5632 67.2653 215.7302 67.2653 215.0532 66.5873 215.0532 65.7543 215.0532 64.9223 215.7302 64.2443 216.5632 64.2443M216.5632 69.2653C218.4982 69.2653 220.0732 67.6893 220.0732 65.7543 220.0732 63.8183 218.4982 62.2443 216.5632 62.2443 214.6272 62.2443 213.0532 63.8183 213.0532 65.7543 213.0532 67.6893 214.6272 69.2653 216.5632 69.2653"/>
  </g>
</svg>
