<svg width="78" height="72" fill="none" xmlns="http://www.w3.org/2000/svg"><g clip-path="url(#clip0)"><path d="M51.84 15.48l-.217.36H39.3s10.06-8.76 10.204-8.736a.386.386 0 01.216.072l.169.096h.072l.096.072c.172.113.333.242.482.384a.721.721 0 01.192.192c.124.1.237.212.337.336h.024l.12.168.097.072h-.024a6.134 6.134 0 01.553 6.984z" fill="#60CFAC"/><path d="M51.31 8.616h-.024a67.62 67.62 0 01-6.09 6.84c-.115.14-.244.268-.384.384h-3.418l.434-.408a54.79 54.79 0 001.853-1.752 70.924 70.924 0 005.824-6.576.386.386 0 01.216.072l.169.096h.072l.096.072.482.384a.722.722 0 01.192.192c.124.1.237.212.337.336h.024l.12.168.097.192z" fill="#3DAD8B"/><path d="M61.514 26.976h10.324c1.369 0 2.681.54 3.65 1.503a5.153 5.153 0 011.525 3.633v11.592a5.153 5.153 0 01-1.516 3.649 5.182 5.182 0 01-3.659 1.511H61.514V26.976z" fill="#7196FF"/><path d="M65.725 30.816H70.9c.683 0 1.338.27 1.82.752.484.482.755 1.135.755 1.816v9c0 .681-.271 1.334-.754 1.816a2.579 2.579 0 01-1.821.752h-5.175v-14.16.024z" fill="#AEC7FF"/><path d="M13.814 36.312V48.84H3.49a5.038 5.038 0 01-3.37-1.248l3.37-2.784 2.093-1.704 4.02-3.336 4.211-3.456z" fill="#6592FF"/><path d="M69.745 26.976v18.12a11.57 11.57 0 01-4.855 9.41 11.622 11.622 0 01-6.745 2.158H17.182c-2.418 0-4.777-.755-6.745-2.157a11.57 11.57 0 01-4.855-9.411L40.408 15.48h17.736c3.065 0 6.004 1.209 8.178 3.363a11.553 11.553 0 013.423 8.133z" fill="#7196FF"/><path d="M53.139 29.04v9.216a8.963 8.963 0 01-2.628 6.338 9.013 9.013 0 01-6.349 2.638H31.19a9.014 9.014 0 01-6.364-2.629 8.963 8.963 0 01-2.637-6.347v-3.768l11.36-9.144h15.884a3.716 3.716 0 012.62 1.082 3.697 3.697 0 011.086 2.614z" fill="#AEC7FF"/><path d="M60.262 35.256a3.485 3.485 0 003.49-3.48 3.485 3.485 0 00-3.49-3.48 3.485 3.485 0 00-3.49 3.48 3.485 3.485 0 003.49 3.48z" fill="#202225"/><path d="M47.724 38.304h-4.982c-.89 0-1.612.72-1.612 1.608v.002a1.61 1.61 0 001.612 1.608h4.982c.89 0 1.612-.72 1.612-1.608v-.002a1.61 1.61 0 00-1.612-1.608zM32.586 38.304h-4.982c-.89 0-1.612.72-1.612 1.608v.002a1.61 1.61 0 001.612 1.608h4.982c.89 0 1.613-.72 1.613-1.608v-.002a1.61 1.61 0 00-1.613-1.608z" fill="#7196FF"/><g style="mix-blend-mode:multiply"><path d="M.89 48.24c0 2.832-.072 5.472 2.744 8.808 2.359 2.76 6.378 7.464 7.485 8.568.394.393.897.66 1.444.768 1.925.312 3.898-1.464 4.765-4.488l.722-2.64c4.957 2.904 10.758-1.224 13.02-9.24l1.42-5.04c1.107.552 2.358.528 3.586-.24a26.088 26.088 0 002.695 5.232c.361.552.987.48 1.396-.168.409-.648.385-1.632 0-2.184a21.984 21.984 0 01-2.359-4.56c1.685-2.352 2.407-6.072 1.661-9.384a56.908 56.908 0 01-1.083-5.952c5.56-4.2 10.685-6.096 10.685-13.272 0-.552-.048-5.304-.048-5.304L.89 48.24z" fill="#C7CCD1"/></g><path d="M4.212 54.408l7.292 4.2c2.19 1.272 4.813-.48 5.824-3.912l.722-2.544c4.957 2.784 10.758-1.152 13.02-8.856l1.42-4.848c1.107.552 2.358.528 3.586-.216a24.22 24.22 0 002.695 5.016c.361.528.987.456 1.396-.168.409-.624.385-1.56 0-2.088a21.507 21.507 0 01-2.359-4.368c1.685-2.256 2.407-5.808 1.661-8.976a53.244 53.244 0 01-1.083-5.712c1.372-1.344 3.538-3.072 6.931-5.016h.048l.433-.288.169-.144.313-.264.192-.192.241-.24.217-.288a.648.648 0 00.168-.192c1.372-1.824 2.262-3.624 2.262-6.84 0-.528-.048-.984.145-1.128.192-.144.24-.072.433.024-.554-.456-.746-.144-.987.024l-48.83 40.2c-.482 2.28.457 4.728 4.09 6.816z" fill="#E3E5E8"/><path d="M27.315 50.16l4.838-28.944-7.653 6.288-4.164 25.464c2.43.384 4.91-.648 6.98-2.808zM11.937 37.872L8.784 57.048l2.72 1.56.433.216 4.091-24.336-4.091 3.384z" fill="#F5F6F7"/><path d="M68.3 7.92l4.044-1.8a.097.097 0 00.05-.084.096.096 0 00-.05-.084l-4.043-1.8a.048.048 0 01-.048-.048L66.448.048c-.049-.072-.145-.072-.169 0l-1.805 4.056c-.024.024-.024.048-.048.048l-4.067 1.8a.097.097 0 00-.05.084.096.096 0 00.05.084l4.067 1.8c.024 0 .024.024.048.048l1.805 4.056c.024.072.12.072.169 0l1.805-4.056a.048.048 0 01.048-.048z" fill="#F7E080"/><path d="M33.958 69.528l2.43-1.08a.072.072 0 000-.096l-2.43-1.08a.024.024 0 01-.024-.024l-1.083-2.424a.048.048 0 00-.096 0l-1.084 2.424h-.024l-2.43 1.08a.048.048 0 000 .096l2.43 1.08a.024.024 0 01.024.024l1.083 2.424a.072.072 0 00.097 0l1.083-2.424h.024z" fill="#FF88DE"/><path d="M10.373 25.44l1.997-.888a.048.048 0 00.048-.048.048.048 0 00-.048-.048l-1.997-.888c-.024 0-.024 0-.024-.024l-.915-1.992c0-.048-.048-.048-.072 0l-.89 1.992a.024.024 0 01-.025.024l-2.021.888a.072.072 0 000 .096l2.021.888h.024l.89 2.016h.073l.915-2.016h.024z" fill="#FFA78B"/></g><defs><clipPath id="clip0"><path fill="#fff" d="M0 0h77.013v72H0z"/></clipPath></defs></svg>
