<svg viewBox="0 0 1000 480" xmlns="http://www.w3.org/2000/svg"><path d="m308 338 18 110.8h123.3l-18-110.8z" fill="#dce3ed"/><path d="m918.6 300.8c3-18.3-9.8-33.4-28.5-33.4h-390.6c-18.6 0-36.3 15.1-39.3 33.4l-19.1 117.2c-2.9 18.4 9.8 33.4 28.5 33.4h390.6c18.6 0 36.3-15 39.3-33.4z" fill="#ced8e6"/><path d="m877.4 300.8c3-18.3-9.8-33.4-28.4-33.4h-390.6c-18.7 0-36.4 15.1-39.3 33.4l-19.1 117.2c-3 18.4 9.8 33.4 28.4 33.4h390.6c18.7 0 36.3-15 39.3-33.4z" fill="#dce3ed"/><path d="m332.2 398.2h458.9v81.79h-458.9z" fill="#fff"/><path d="m332.2 429.5h458.9v10.44h-458.9z" fill="#e1e8f2"/><path d="m907.4 369.2-18 110.8h-95.5l18-110.8z" fill="#dce3ed"/><path d="m891 400.4c17.1 0 33.4-14.1 36.2-31.2s-8.9-31.2-26.1-31.2h-84.1l-10.1 62.4z" fill="#dce3ed"/><path d="m795.4 276.9h-96.9c-6.2 25.6-19.7 70.5-16.4 121.3h109.1c11.1-64.2 4.2-121.3 4.2-121.3z" fill="#4572f0"/><path d="m798.5 284.7a16.9 16.9 0 0 0 -29.3 17c1.9 3.3 14.7 27.8 17.4 33l32.1-10c-.6-1.2-13.5-28.4-20.2-40z" fill="#7196ff"/><path d="m669.8 432.8-27.3-5c.1-.2 4.6-24.8 8.4-49a28 28 0 0 1 27.6-23.5h50v42.9h-37.3c-1.3 8.3-2.7 16.1-3.8 22.4a15 15 0 0 1 -17.6 12.2z" fill="#7196ff"/><path d="m697.2 355.3c10.6 8.3 16.6 15.5 9.2 42.9h28.5v-42.9z" fill="#6088f7"/><path d="m673 345.6a17.2 17.2 0 0 1 -3.9-.4 17 17 0 0 1 -12.6-20.4c5.8-24.4 28.1-51.2 30.6-54.2a16.9 16.9 0 1 1 25.8 21.9c-5.4 6.4-20.1 26-23.4 40.1a17.1 17.1 0 0 1 -16.5 13z" fill="#7196ff"/><path d="m685 281.3c10.4 35.8 19.9 47.3 43.5 45.6 36-2.5 60.2-24.7 71.5-35.1z" fill="#4572f0"/><path d="m517.6 204.3 22.4-35.8" fill="none" stroke="#ffd997" stroke-linecap="round" stroke-linejoin="round" stroke-width="30.484865"/><path d="m618.1 161.6c5.1 60.5 0 105.8 0 105.8h-102.4c2.6-58.1 22.3-105.8 22.3-105.8l74.4-15.7z" fill="#ffd997"/><path d="m580.8 198.9a14.2 14.2 0 0 1 -13-8.7 4.5 4.5 0 1 1 8.4-3.4 5.1 5.1 0 0 0 6.5 2.7 4.5 4.5 0 1 1 3.5 8.3 14.9 14.9 0 0 1 -5.4 1.1z" fill="#ee65ae"/><path d="m597.8 55.3c-5.8 37.7-13.8 40.9-22.8 39.5s-15.7-6.8-9.9-44.5 15.4-51.6 24.4-50.2 14.1 17.5 8.3 55.2z" fill="#ee65ae"/><path d="m592 57.3c-3.2 20.9-7.1 22.7-11.5 22s-7.7-3.6-4.5-24.5 8.1-28.6 12.5-27.9 6.7 9.5 3.5 30.4z" fill="#ff8abf"/><path d="m539.2 70.7c28.4 27 35.9 25.5 41.3 19.9s6.4-13.3-22-40.3-44-33.1-49.4-27.5 1.6 20.9 30.1 47.9z" fill="#ee65ae"/><path d="m543.6 69.8c15.6 15.1 18.9 15.4 20.8 13.8s1.4-4.6-13.5-19-22.3-18.9-24.6-17.7 1.9 8 17.3 22.9z" fill="#ff8abf"/><rect fill="#ee65ae" height="56.03" rx="28" transform="matrix(-.99791562 .06453231 -.06453231 -.99791562 1148.4 138.3)" width="142.7" x="500.6" y="59.7"/><rect fill="#ee65ae" height="56.03" rx="28" transform="matrix(-.99791562 .06453231 -.06453231 -.99791562 1157.1 227.5)" width="142.7" x="503.5" y="104.5"/><ellipse cx="536.9" cy="103.5" fill="#1b1926" rx="4.6" ry="8.3" transform="matrix(.94608536 -.32391742 .32391742 .94608536 -4.6 179.5)"/><ellipse cx="578.7" cy="100.1" fill="#1b1926" rx="8.9" ry="5" transform="matrix(.19936793 -.9799247 .9799247 .19936793 365.5 647.3)"/><path d="m549.8 124.4a106.1 106.1 0 0 1 19.7-2.6c-1.3 6.1-3.8 10.5-7.9 11.6s-9.7-.4-11.8-9z" fill="#7d1236"/><path d="m561.6 133.4a8.3 8.3 0 0 1 -8.1-1.9 9.9 9.9 0 0 1 6.7-6 10 10 0 0 1 7.8 1.2c-1.4 3.5-3.5 5.9-6.4 6.7z" fill="#ac194b"/><path d="m486.3 187.9c-1.9-4.6.6-8.4 5.6-8.4h63.2c4.9 0 10.5 3.8 12.4 8.4l10.7 26c1.8 4.6-.7 8.3-5.6 8.3h-63.2a14.6 14.6 0 0 1 -12.5-8.3z" fill="#1e49d0"/><path d="m476.5 187.9c-1.9-4.6.6-8.4 5.6-8.4h63.2c4.9 0 10.5 3.8 12.4 8.4l10.7 26c1.9 4.6-.7 8.3-5.6 8.3h-63.2a14.6 14.6 0 0 1 -12.5-8.3z" fill="#4c7dff"/><path d="m488.1 179.5 17.5 42.7h51.2l-17.6-42.7z" fill="#0e1d41"/><rect fill="#0e1d41" height="8.34" rx="2.6" width="5.3" x="480.8" y="182.3"/><rect fill="#0e1d41" height="8.34" rx="2.6" width="5.3" x="545" y="182.3"/><path d="m577.4 223.8-11.8-28.1 18-7.5a33.9 33.9 0 0 1 14-2.7c3.7.2 11.1.3 18.4.2l24-8.6 4.9 13.9a18.3 18.3 0 0 1 -1.9 16.4 18.9 18.9 0 0 1 -14.3 8.4c-10.5.7-24.5.4-32 .2a3.1 3.1 0 0 0 -1.3.3z" fill="#ee65ae"/><path d="m625.3 196.6a15.2 15.2 0 0 1 -14.3-10.1l-6.6-18.3a15.2 15.2 0 0 1 28.7-10.3l6.6 18.3a15.3 15.3 0 0 1 -14.4 20.4z" fill="#ffd997"/><path d="m639 174.1c-11.6-.6-21.2 1.1-29.4 8.5l7.8 22.3 26.9-16z" fill="#ee65ae"/><path d="m571.1 193.8h13.5a0 0 0 0 1 0 0v30.5a0 0 0 0 1 0 0h-13a9.4 9.4 0 0 1 -9.4-9.4v-12.2a9 9 0 0 1 9-9z" fill="#ee65ae" transform="matrix(.92 -.39 .39 .92 -36.23 237.68)"/><path d="m477.1 188.5c-4.3 0-6.5 3.3-4.9 7.3l6.1 14.9a12.7 12.7 0 0 0 10.9 7.3h3.7c4.3 0 6.5-3.2 4.9-7.3l-6.1-14.9a12.9 12.9 0 0 0 -10.9-7.3z" fill="#ee65ae"/><path d="m498.2 322.7-20.4-57.3a28.1 28.1 0 0 1 26.4-37.5h93.5v39.5h-77.3l15 42z" fill="#0e1d41"/><path d="m492.7 322.7-1.1 3a6 6 0 0 0 5.9 7.8c11.5-.6 24.3-5.5 34.8-19.5a10.2 10.2 0 0 0 1.4-9.4l-3.6-10.1-40.6 4 3.1 8.5a24.1 24.1 0 0 1 .1 15.7z" fill="#0e1d41"/><path d="m620.2 227.9c-.4 24.4-2.1 39.5-2.1 39.5h-39.7l-9 54.8-39-6.4 8-48.4 2.5-15.8a28.3 28.3 0 0 1 28-23.7z" fill="#091229"/><path d="m536.1 281.3-2.5 15a12.7 12.7 0 0 1 -6.9 9.4l-7.2 3.7a6.2 6.2 0 0 0 -2 9.2c4.3 5.5 13.2 9.8 23.3 12.1 13.8 3.2 26.4 5.1 28.6-8.5l4-24.2z" fill="#091229"/><path d="m755.9 169.2c-13.9 10.5-19.4 10.1-19.4 10.1l45.9 5.5a15.8 15.8 0 0 0 -3.2-12.4 16.5 16.5 0 0 0 -23.3-3.2z" fill="#7ce4cc"/><path d="m701.7 175.1 51.5 6.2c-.1 0-7.7-1.3-23-23.2a16.6 16.6 0 0 0 -28.5 17z" fill="#5ed6bb"/><rect fill="#7196ff" height="110.44" rx="31.1" transform="matrix(.99275734 .12013684 -.12013684 .99275734 33.8 -87.8)" width="171.6" x="659.2" y="180.7"/><path d="m692 204.3h59.3a9.9 9.9 0 0 1 9.9 9.9v24.2a24.5 24.5 0 0 1 -24.5 24.6h-33.4a21.3 21.3 0 0 1 -21.3-21.3v-27.4a9.9 9.9 0 0 1 9.9-9.9z" fill="#b8cdff" transform="matrix(.99275734 .12013684 -.12013684 .99275734 33.3 -85.1)"/><path d="m699.4 247.7-4.3-.5a4.3 4.3 0 0 1 -3.8-4.8 4.3 4.3 0 0 1 4.8-3.8l4.3.5a4.3 4.3 0 0 1 3.8 4.8 4.3 4.3 0 0 1 -4.8 3.8z" fill="#7fa0ff"/><path d="m727 251-7.9-.9a4.4 4.4 0 0 1 -3.8-4.9 4.3 4.3 0 0 1 4.8-3.8l8 1a4.3 4.3 0 0 1 3.7 4.8 4.3 4.3 0 0 1 -4.8 3.8z" fill="#7fa0ff"/><path d="m809.7 221.9h27.6a13.8 13.8 0 0 1 13.8 13.8v31.1a13.8 13.8 0 0 1 -13.8 13.8h-27.6a0 0 0 0 1 0 0v-58.7a0 0 0 0 1 0 0z" fill="#7196ff" transform="matrix(.99275734 .12013684 -.12013684 .99275734 36.2 -98)"/><path d="m825.2 228.9h7.9a6.4 6.4 0 0 1 6.4 6.4v23.9a6.4 6.4 0 0 1 -6.4 6.4h-7.9a0 0 0 0 1 0 0v-36.7a0 0 0 0 1 0 0z" fill="#b8cdff" transform="matrix(.99275734 .12013684 -.12013684 .99275734 35.8 -98.3)"/><path d="m685 207.9a10.5 10.5 0 0 0 -.4 1.7l-1.9 16.4h-2a9.2 9.2 0 0 1 -8.1-10.3 9.4 9.4 0 0 1 10.4-8.2z" fill="#202225"/><g fill="#ffd997"><circle cx="700" cy="303" r="11.2"/><circle cx="764" cy="303" r="11.2"/><circle cx="723.1" cy="303" r="19.2"/><circle cx="744.3" cy="291.8" r="19.7"/></g><path d="m775.2 303h-90.2a2.6 2.6 0 0 0 -2.5 3.1l10.8 60.6a2.7 2.7 0 0 0 2.6 2.2h68.4a2.6 2.6 0 0 0 2.6-2.2l10.8-60.6a2.6 2.6 0 0 0 -2.5-3.1z" fill="#d8094a"/><path d="m766.3 303h-72.4l8.9 65.9h54.6z" fill="#fff"/><path d="m746.4 303h-32.6l4 65.9h24.6z" fill="#d8094a"/><path d="m818.7 324.7-4.7-9.7h-49.5a17 17 0 0 0 0 33.9h38.9a17 17 0 0 0 15.3-24.2z" fill="#7196ff"/><path d="m690.1 345.6h-17.1a17 17 0 0 1 0-33.9h17.1a17 17 0 1 1 0 33.9z" fill="#7196ff"/><path d="m791.2 398.2h-28.9c.7 6.2 1.3 12 1.9 16.9a17.9 17.9 0 0 1 -14.9 20l-25 4c-.1-.9-2.9-18.3-5.1-40.9-.4-4.1-.8-8.4-1.1-12.8a28.1 28.1 0 0 1 27.8-30.1h50.4a408.5 408.5 0 0 1 -5.1 42.9z" fill="#7196ff"/><path d="m822.9 369.2-18 110.8h-42.2l18-110.8z" fill="#fff"/><ellipse cx="811.9" cy="369.2" fill="#fff" rx="33.8" ry="28.8" transform="matrix(.7349146 -.67815967 .67815967 .7349146 -35.3 648.1)"/><ellipse cx="811.9" cy="369.2" fill="#e1e8f2" rx="7.8" ry="6.6" transform="matrix(.7349146 -.67815967 .67815967 .7349146 -35.3 648.1)"/><path d="m302.1 369.2 18 110.8h42.2l-18-110.8z" fill="#fff"/><ellipse cx="313.1" cy="369.2" fill="#fff" rx="28.8" ry="33.8" transform="matrix(.67815967 -.7349146 .7349146 .67815967 -170.6 349.1)"/><ellipse cx="313.1" cy="369.2" fill="#e1e8f2" rx="6.6" ry="7.8" transform="matrix(.67815967 -.7349146 .7349146 .67815967 -170.6 349.1)"/><path d="m902.7 398.2h-84.5l-2 12.3h84.5z" fill="#ced8e6"/><path d="m301.2 372.4c-50.9 1.8-145.1 7.2-145.1 7.2v100.4h167.4c7-29 12.9-58.8 7.5-84.5a29.4 29.4 0 0 0 -29.8-23.1z" fill="#295ecf"/><path d="m230.9 254.8-94.3 15.8c-4.1 58.2-5.4 77.6 3.4 112.5h116.6c1.5-56.8-10-97-25.7-128.3z" fill="#0e1d41"/><path d="m259.8 434.7-10-49.6h-35.8v-47.5h39.3a43.2 43.2 0 0 1 42.3 34.7l12.4 61.3z" fill="#b8cdff"/><path d="m210.2 372.3 3.1 12.8h31.3c-2.9-16.2 2.2-33.8 27.2-34.9h-68.5z" fill="#7fa0ff"/><path d="m258.8 429.5 1.9 9.9a11.7 11.7 0 0 0 8.5 8.9 125.3 125.3 0 0 0 42.7 3.8 5.3 5.3 0 0 0 3.2-9.2l-.5-.5a25.1 25.1 0 0 1 -7.6-13.4l-5.1-25.3z" fill="#2c2854"/><path d="m258.8 429.5c23.4.5 35.2-2.2 47.2-5.5l-4.1-20.3h-48.3z" fill="#b8cdff"/><path d="m114.9 335.6a16.9 16.9 0 0 1 -7.6-1.7 17.7 17.7 0 0 1 -8.4-23.7c6.9-14.6 17.5-31.5 31.5-50.3a17.8 17.8 0 1 1 28.5 21.3c-15.7 21.1-23.8 35.7-27.9 44.3a17.9 17.9 0 0 1 -16.1 10.1z" fill="#5ed6bb"/><path d="m155.3 256.3a17.8 17.8 0 0 0 -24.9 3.6q-11.9 16.1-20.4 30c17-6.8 26.7 1 34 12.7 4-6.2 8.9-13.4 14.9-21.4a17.7 17.7 0 0 0 -3.6-24.9z" fill="#0e1d41"/><path d="m232.4 162.2c1.7 21.3-10.2 39.7-25.7 40.5s-27-15-27.7-34.6 9.5-35.9 23.5-38.3 28.3 11.7 29.9 32.4z" fill="#5ed6bb"/><path d="m276.7 203.9c5.6 34.2-24.8 67.6-69.4 74.5-47.4 7.4-92.1-17.8-96.9-56.2-1.9-15.3 2.9-29.9 12.5-42a80 80 0 0 0 14.1-28.1c3.6-12.8 11.8-23.8 21.9-25.8 16.2-3.3 25.1 8.9 30.5 30.6 42.2 0 80.2 4.3 87.3 47z" fill="#5ed6bb"/><path d="m223.6 231.4-56.6-14.5c.1 15.1.5 34.8-7.4 57.9a103.6 103.6 0 0 0 47.7 3.6 99.2 99.2 0 0 0 31.4-10.3c9.8-17.2 14.1-39.1 8.8-57.2z" fill="#aafae7"/><path d="m176.5 150.2c1.6 5.3.5 10.6-2.6 12s-7.5-1.9-9.4-7.5-.5-11.3 3-12.3 7.3 2.5 9 7.8z" fill="#1b1926"/><path d="m171 217.7c36.7 1.4 62.3-1.8 76.5-6.8-7.1 35.9-40.4 42-76.5 6.8z" fill="#4e2b42"/><path d="m235.4 234.2c-6.1-5.9-15.3-10.3-26.1-11.9s-21 .1-28.5 4c22 17.2 42 18.9 54.6 7.9z" fill="#ac194b"/><ellipse cx="164.4" cy="217.9" fill="#4c7dff" rx="19.3" ry="12.7" transform="matrix(.45087754 -.89258582 .89258582 .45087754 -104.2 266.4)"/><ellipse cx="256.6" cy="208" fill="#4c7dff" rx="9.8" ry="15.2" transform="matrix(.92050485 -.39073113 .39073113 .92050485 -60.8 116.5)"/><path d="m325.7 264.8c2.4-7.5-2-13.6-9.8-13.6h-69.6c-7.8 0-16.2 6.1-18.6 13.6l-25.3 76.6c-2.4 7.4 2 13.5 9.8 13.5h69.6c7.8 0 16.2-6.1 18.7-13.5z" fill="#fff"/><path d="m334.1 264.8c2.5-7.5-1.9-13.6-9.7-13.6h-69.6c-7.8 0-16.2 6.1-18.7 13.6l-25.2 76.6c-2.4 7.4 2 13.5 9.8 13.5h69.5c7.9 0 16.3-6.1 18.7-13.5z" fill="#dce3ed"/><path d="m171.3 229a7.2 7.2 0 0 1 7.2 7.2v65.5a0 0 0 0 1 0 0h-14.4a0 0 0 0 1 0 0v-65.4a7.2 7.2 0 0 1 7.2-7.3z" fill="#fff" transform="matrix(.38268343 -.92387953 .92387953 .38268343 -139.5 322)"/><path d="m207.7 272.6-5.6 13.4 13.1-.8a1.9 1.9 0 0 0 1.4-1 1.5 1.5 0 0 0 -.3-1.7z" fill="#dce3ed"/><path d="m244.6 440.8-46 11.5-15.6-62.7-39.5-6.5-3.7-.6a200.7 200.7 0 0 1 -6.4-49.1l72.7 11.9a23.7 23.7 0 0 1 19.2 17.7l5 20.1z" fill="#b8cdff"/><path d="m173.9 362.6a3.1 3.1 0 0 0 -3 3.8l4.4 17.5h6.3l-4.7-19a3 3 0 0 0 -3-2.3z" fill="#7fa0ff"/><path d="m193.7 343.2a147.3 147.3 0 0 0 -59.9 2.1l-1.2-25.5 62.5.8z" fill="#0e1d41"/><path d="m111.4 480-1.8-2.9a13.6 13.6 0 0 1 1.6-16.9l4-4.2c-5.6-15.4-11.2-28.1-15.1-42.5-6.1-22.4 12.4-43.9 35.6-41.5 12.8 1.4 27.4 3.6 44.8 7.2l6.1 24.8v76z" fill="#295ecf"/><path d="m524.9 480v-50.5h-223.1v50.5" fill="none" stroke="#2c2854" stroke-miterlimit="10" stroke-width="18.87667"/><path d="m589.9 480v-50.5h-190.2v50.5" fill="none" stroke="#2c2854" stroke-miterlimit="10" stroke-width="18.87667"/><rect fill="#ee65ae" height="12.74" rx="6.4" width="339" x="277.4" y="418.2"/><path d="m329 454.7.5.5a20 20 0 0 1 2.7 24.8h-12.1z" fill="#295ecf"/><path d="m764.3 415.7 1.9 13.2a7.6 7.6 0 0 1 -2.1 6.4c-9.1 8.9-25.6 11.3-37 11.9a6.1 6.1 0 0 1 -6.1-8.1l.2-.6a26.2 26.2 0 0 0 1.3-12.1l-1.1-8.2z" fill="#7196ff"/><path d="m687.8 418.2-1.9 10.5a9.4 9.4 0 0 1 -8.6 7.8c-8.7.5-23.9.2-39.4-6.5a4 4 0 0 1 -.4-7.2h.2a15.5 15.5 0 0 0 7.7-10.9l1.4-8z" fill="#7196ff"/><path d="m173.7 258.7h8.8a9.1 9.1 0 0 1 7.5 4 55 55 0 0 1 7 13.7 10.5 10.5 0 0 1 -8.5 14l-10.8 1.6z" fill="#5ed6bb"/><path d="m404.8 359.4-18.9-116.4" fill="none" stroke="#b8cdff" stroke-linecap="round" stroke-miterlimit="10" stroke-width="5"/><path d="m384 351.5h120.2a0 0 0 0 1 0 0v66.7a0 0 0 0 1 0 0h-125.1a0 0 0 0 1 0 0v-61.8a4.9 4.9 0 0 1 4.9-4.9z" fill="#ffa100"/><path d="m479.6 335.7h-50.3l-6.8 43.4h63.9z" fill="none" stroke="#2c2854" stroke-linecap="round" stroke-linejoin="round" stroke-width="8"/><path d="m406.6 351.5h120.9a4.9 4.9 0 0 1 4.9 4.9v61.8a0 0 0 0 1 0 0h-130.7a0 0 0 0 1 0 0v-61.8a4.9 4.9 0 0 1 4.9-4.9z" fill="#ffce00"/><path d="m429.3 351.5h75.5v11.79h-75.5z" fill="#ffa100"/><circle cx="429.3" cy="391.4" fill="#2c2854" r="19"/><circle cx="504.8" cy="391.4" fill="#2c2854" r="19"/><path d="m308.2 318.4c-6.3 0-9.6-4.8-7.1-10.6l8.9-21.8c2.4-5.9 9.6-10.7 15.9-10.7h10.1c6.4 0 9.6 4.8 7.2 10.7l-9 21.8c-2.4 5.8-9.5 10.6-15.9 10.6z" fill="#5ed6bb"/><path d="m192.1 426.2 7.4 29.8a8.1 8.1 0 0 0 8.2 6.1c18.1-1.1 32.8-6.3 45.2-14.4a7.1 7.1 0 0 0 -1.8-12.6 15.8 15.8 0 0 1 -10.7-11.4l-3.2-12.9z" fill="#2c2854"/><path d="m762.3 398.2-1.2-11.5a2.7 2.7 0 0 1 2.7-3 2.6 2.6 0 0 1 2.7 2.4l1.4 12.1z" fill="#4572f0"/><path d="m696.8 398.2 1.9-11.4a2.7 2.7 0 0 0 -2.7-3.1 2.8 2.8 0 0 0 -2.7 2.2l-2.1 12.3z" fill="#4572f0"/><path d="m194 433.6c18.2-9.8 28.4-9.9 46.4-9.9l-6.7-26.9-47.1 7.2z" fill="#b8cdff"/><path d="m119.2 342.4a22.6 22.6 0 0 1 -20.3-32.2 17.8 17.8 0 0 1 21.5-9.3l41.3-37.5a17.8 17.8 0 1 1 23.9 26.3l-51.3 46.7a22.1 22.1 0 0 1 -15.1 6z" fill="#5ed6bb"/><rect fill="#fff" height="16.86" rx="1.9" width="23.4" x="455.4" y="374.5"/><rect fill="#ffa100" height="4.08" rx="2" width="23.4" x="455.4" y="398.2"/><rect fill="#7196ff" height="3.22" rx="1.1" width="7.3" x="463.4" y="381.3"/><circle cx="385.9" cy="243" fill="#b8cdff" r="7.2"/><circle cx="781.3" cy="228.6" fill="#202225" r="10.1"/><ellipse cx="219.1" cy="152.7" fill="#1b1926" rx="4.5" ry="8.5" transform="matrix(.97071648 -.24022804 .24022804 .97071648 -30.2 56.9)"/></svg>