<svg fill="none" height="640" viewBox="0 0 1608 640" width="1608" xmlns="http://www.w3.org/2000/svg" xmlns:xlink="http://www.w3.org/1999/xlink"><mask id="a" height="640" maskUnits="userSpaceOnUse" width="1608" x="0" y="0"><path d="m0 640h1608v-640h-1608z" fill="#fff"/></mask><g fill="#fff" mask="url(#a)"><path d="m1514.49 630.113 29.86 30.12 29.86-30.12-29.86-30.119z" opacity=".04"/><path d="m1450.68 551.614c-14.58 0-26.4 11.919-26.4 26.622s11.82 26.622 26.4 26.622 26.4-11.919 26.4-26.622-11.82-26.622-26.4-26.622z" opacity=".04"/><path d="m259.276 555.748 51.367 51.809 51.367-51.809-51.367-51.808z" opacity=".04"/><path d="m561.691 605.924c-14.578 0-26.395 11.919-26.395 26.622s11.817 26.622 26.395 26.622 26.395-11.919 26.395-26.622-11.817-26.622-26.395-26.622z" opacity=".04"/><g clip-rule="evenodd" fill-rule="evenodd"><path d="m115.255 723.406-77.2594 24.148-152.3046-401.515 77.2599-24.148c11.7929-3.686 24.6446 2.003 28.70524 12.708 2.30007 6.064 1.34159 12.755-2.59034 18.083-15.6539 21.213-9.4 49.928 13.96865 64.138 3.85453 2.344 8.04375 4.199 12.45155 5.513l2.634.785c24.0803 7.18 37.1896 30.72 29.2803 52.579-1.5885 4.39-3.9704 8.509-7.0483 12.189-15.3258 18.326-11.3844 44.459 8.8033 58.37 4.0543 2.794 8.5925 4.957 13.4286 6.399l5.2681 1.57c24.0803 7.18 37.19 30.72 29.2803 52.579-1.5885 4.39-3.9704 8.509-7.0483 12.189-15.3258 18.326-11.3844 44.459 8.8032 58.37 4.0548 2.794 8.5928 4.957 13.4288 6.399l2.634.785c11.85 3.533 18.3 15.117 14.408 25.873-2.204 6.093-7.423 10.898-14.103 12.986z" opacity=".04"/><path d="m1595.08 193.554s37.64-13.369 61.64 1.112c23.99 14.481 24.12 314.451-7.02 320.299-31.14 5.849-61.63-1.112-61.63-1.112-9.41-.17-16.88-7.23-16.69-15.77.1-4.837 2.7-9.35 7-12.197 17.16-11.334 20.95-33.147 8.46-48.721-2.06-2.569-4.49-4.871-7.24-6.841l-1.64-1.177c-15-10.763-17.55-30.527-5.69-44.145 2.38-2.734 5.24-5.09 8.48-6.971 16.1-9.366 20.78-28.806 10.46-43.419-2.07-2.935-4.66-5.536-7.68-7.698l-3.28-2.354c-15-10.763-17.55-30.527-5.69-44.145 2.38-2.735 5.24-5.091 8.48-6.972 16.1-9.366 20.78-28.805 10.46-43.418-2.07-2.935-4.66-5.537-7.68-7.698l-1.64-1.178c-7.38-5.296-8.63-15.021-2.8-21.722 3.3-3.796 8.38-5.969 13.7-5.873z" opacity=".04"/><path d="m1190.74 628.75c-2.61 0-4.73 2.138-4.73 4.776s2.12 4.776 4.73 4.776c2.62 0 4.74-2.138 4.74-4.776s-2.12-4.776-4.74-4.776z" fill-opacity=".04"/><path d="m1223.36 628.75c-2.61 0-4.73 2.138-4.73 4.776s2.12 4.776 4.73 4.776c2.62 0 4.74-2.138 4.74-4.776s-2.12-4.776-4.74-4.776z" fill-opacity=".04"/><path d="m1255.99 628.75c-2.62 0-4.74 2.138-4.74 4.776s2.12 4.776 4.74 4.776c2.61 0 4.73-2.138 4.73-4.776s-2.12-4.776-4.73-4.776z" fill-opacity=".04"/><path d="m1288.61 628.75c-2.62 0-4.74 2.138-4.74 4.776s2.12 4.776 4.74 4.776 4.74-2.138 4.74-4.776-2.12-4.776-4.74-4.776z" fill-opacity=".04"/><path d="m1158.12 628.75c-2.62 0-4.74 2.138-4.74 4.776s2.12 4.776 4.74 4.776c2.61 0 4.73-2.138 4.73-4.776s-2.12-4.776-4.73-4.776z" fill-opacity=".04"/><path d="m1125.49 628.75c-2.61 0-4.73 2.138-4.73 4.776s2.12 4.776 4.73 4.776c2.62 0 4.74-2.138 4.74-4.776s-2.12-4.776-4.74-4.776z" fill-opacity=".04"/><path d="m1092.87 628.75c-2.61 0-4.73 2.138-4.73 4.776s2.12 4.776 4.73 4.776c2.62 0 4.74-2.138 4.74-4.776s-2.12-4.776-4.74-4.776z" fill-opacity=".04"/><path d="m1190.74 595.846c-2.61 0-4.73 2.138-4.73 4.776s2.12 4.777 4.73 4.777c2.62 0 4.74-2.139 4.74-4.777s-2.12-4.776-4.74-4.776z" fill-opacity=".04"/><path d="m1223.36 595.846c-2.61 0-4.73 2.138-4.73 4.776s2.12 4.777 4.73 4.777c2.62 0 4.74-2.139 4.74-4.777s-2.12-4.776-4.74-4.776z" fill-opacity=".04"/><path d="m1255.99 595.846c-2.62 0-4.74 2.138-4.74 4.776s2.12 4.777 4.74 4.777c2.61 0 4.73-2.139 4.73-4.777s-2.12-4.776-4.73-4.776z" fill-opacity=".04"/><path d="m1288.61 595.846c-2.62 0-4.74 2.138-4.74 4.776s2.12 4.777 4.74 4.777 4.74-2.139 4.74-4.777-2.12-4.776-4.74-4.776z" fill-opacity=".04"/><path d="m1158.12 595.846c-2.62 0-4.74 2.138-4.74 4.776s2.12 4.777 4.74 4.777c2.61 0 4.73-2.139 4.73-4.777s-2.12-4.776-4.73-4.776z" fill-opacity=".04"/><path d="m1125.49 595.846c-2.61 0-4.73 2.138-4.73 4.776s2.12 4.777 4.73 4.777c2.62 0 4.74-2.139 4.74-4.777s-2.12-4.776-4.74-4.776z" fill-opacity=".04"/><path d="m1092.87 595.846c-2.61 0-4.73 2.138-4.73 4.776s2.12 4.777 4.73 4.777c2.62 0 4.74-2.139 4.74-4.777s-2.12-4.776-4.74-4.776z" fill-opacity=".04"/><path d="m1190.74 562.942c-2.61 0-4.73 2.139-4.73 4.777s2.12 4.776 4.73 4.776c2.62 0 4.74-2.138 4.74-4.776s-2.12-4.777-4.74-4.777z" fill-opacity=".04"/><path d="m1223.36 562.942c-2.61 0-4.73 2.139-4.73 4.777s2.12 4.776 4.73 4.776c2.62 0 4.74-2.138 4.74-4.776s-2.12-4.777-4.74-4.777z" fill-opacity=".04"/><path d="m1255.99 562.942c-2.62 0-4.74 2.139-4.74 4.777s2.12 4.776 4.74 4.776c2.61 0 4.73-2.138 4.73-4.776s-2.12-4.777-4.73-4.777z" fill-opacity=".04"/><path d="m1288.61 562.942c-2.62 0-4.74 2.139-4.74 4.777s2.12 4.776 4.74 4.776 4.74-2.138 4.74-4.776-2.12-4.777-4.74-4.777z" fill-opacity=".04"/><path d="m1158.12 562.942c-2.62 0-4.74 2.139-4.74 4.777s2.12 4.776 4.74 4.776c2.61 0 4.73-2.138 4.73-4.776s-2.12-4.777-4.73-4.777z" fill-opacity=".04"/><path d="m1125.49 562.942c-2.61 0-4.73 2.139-4.73 4.777s2.12 4.776 4.73 4.776c2.62 0 4.74-2.138 4.74-4.776s-2.12-4.777-4.74-4.777z" fill-opacity=".04"/><path d="m1092.87 562.942c-2.61 0-4.73 2.139-4.73 4.777s2.12 4.776 4.73 4.776c2.62 0 4.74-2.138 4.74-4.776s-2.12-4.777-4.74-4.777z" fill-opacity=".04"/><path d="m11.0496 247.086c-2.61544 0-4.73564 2.139-4.73564 4.777 0 2.637 2.1202 4.776 4.73564 4.776 2.6154 0 4.7356-2.139 4.7356-4.776 0-2.638-2.1202-4.777-4.7356-4.777z" fill-opacity=".04"/><path d="m43.6726 247.086c-2.6154 0-4.7356 2.139-4.7356 4.777 0 2.637 2.1202 4.776 4.7356 4.776s4.7356-2.139 4.7356-4.776c0-2.638-2.1202-4.777-4.7356-4.777z" fill-opacity=".04"/><path d="m76.2954 247.086c-2.6154 0-4.7356 2.139-4.7356 4.777 0 2.637 2.1202 4.776 4.7356 4.776s4.7356-2.139 4.7356-4.776c0-2.638-2.1202-4.777-4.7356-4.777z" fill-opacity=".04"/><path d="m11.0496 214.183c-2.61544 0-4.73564 2.138-4.73564 4.776s2.1202 4.776 4.73564 4.776c2.6154 0 4.7356-2.138 4.7356-4.776s-2.1202-4.776-4.7356-4.776z" fill-opacity=".04"/><path d="m43.6726 214.183c-2.6154 0-4.7356 2.138-4.7356 4.776s2.1202 4.776 4.7356 4.776 4.7356-2.138 4.7356-4.776-2.1202-4.776-4.7356-4.776z" fill-opacity=".04"/><path d="m76.2954 214.183c-2.6154 0-4.7356 2.138-4.7356 4.776s2.1202 4.776 4.7356 4.776 4.7356-2.138 4.7356-4.776-2.1202-4.776-4.7356-4.776z" fill-opacity=".04"/><path d="m11.0496 181.279c-2.61544 0-4.73564 2.138-4.73564 4.776s2.1202 4.777 4.73564 4.777c2.6154 0 4.7356-2.139 4.7356-4.777s-2.1202-4.776-4.7356-4.776z" fill-opacity=".04"/><path d="m43.6726 181.279c-2.6154 0-4.7356 2.138-4.7356 4.776s2.1202 4.777 4.7356 4.777 4.7356-2.139 4.7356-4.777-2.1202-4.776-4.7356-4.776z" fill-opacity=".04"/><path d="m76.2954 181.279c-2.6154 0-4.7356 2.138-4.7356 4.776s2.1202 4.777 4.7356 4.777 4.7356-2.139 4.7356-4.777-2.1202-4.776-4.7356-4.776z" fill-opacity=".04"/><path d="m11.0496 148.375c-2.61544 0-4.73564 2.139-4.73564 4.777s2.1202 4.776 4.73564 4.776c2.6154 0 4.7356-2.138 4.7356-4.776s-2.1202-4.777-4.7356-4.777z" fill-opacity=".04"/><path d="m43.6726 148.375c-2.6154 0-4.7356 2.139-4.7356 4.777s2.1202 4.776 4.7356 4.776 4.7356-2.138 4.7356-4.776-2.1202-4.777-4.7356-4.777z" fill-opacity=".04"/><path d="m76.2954 148.375c-2.6154 0-4.7356 2.139-4.7356 4.777s2.1202 4.776 4.7356 4.776 4.7356-2.138 4.7356-4.776-2.1202-4.777-4.7356-4.777z" fill-opacity=".04"/><path d="m11.0496 115.472c-2.61544 0-4.73564 2.138-4.73564 4.776s2.1202 4.776 4.73564 4.776c2.6154 0 4.7356-2.138 4.7356-4.776s-2.1202-4.776-4.7356-4.776z" fill-opacity=".04"/><path d="m43.6726 115.472c-2.6154 0-4.7356 2.138-4.7356 4.776s2.1202 4.776 4.7356 4.776 4.7356-2.138 4.7356-4.776-2.1202-4.776-4.7356-4.776z" fill-opacity=".04"/><path d="m76.2954 115.472c-2.6154 0-4.7356 2.138-4.7356 4.776s2.1202 4.776 4.7356 4.776 4.7356-2.138 4.7356-4.776-2.1202-4.776-4.7356-4.776z" fill-opacity=".04"/><path d="m11.0496 82.5681c-2.61544 0-4.73564 2.1384-4.73564 4.7763s2.1202 4.7763 4.73564 4.7763c2.6154 0 4.7356-2.1384 4.7356-4.7763s-2.1202-4.7763-4.7356-4.7763z" fill-opacity=".04"/><path d="m43.6726 82.5681c-2.6154 0-4.7356 2.1384-4.7356 4.7763s2.1202 4.7763 4.7356 4.7763 4.7356-2.1384 4.7356-4.7763-2.1202-4.7763-4.7356-4.7763z" fill-opacity=".04"/><path d="m76.2954 82.5681c-2.6154 0-4.7356 2.1384-4.7356 4.7763s2.1202 4.7763 4.7356 4.7763 4.7356-2.1384 4.7356-4.7763-2.1202-4.7763-4.7356-4.7763z" fill-opacity=".04"/><path d="m11.0496 49.6646c-2.61544 0-4.73564 2.1383-4.73564 4.7762s2.1202 4.7765 4.73564 4.7765c2.6154 0 4.7356-2.1386 4.7356-4.7765s-2.1202-4.7762-4.7356-4.7762z" fill-opacity=".04"/><path d="m43.6726 49.6646c-2.6154 0-4.7356 2.1383-4.7356 4.7762s2.1202 4.7765 4.7356 4.7765 4.7356-2.1386 4.7356-4.7765-2.1202-4.7762-4.7356-4.7762z" fill-opacity=".04"/><path d="m76.2954 49.6646c-2.6154 0-4.7356 2.1383-4.7356 4.7762s2.1202 4.7765 4.7356 4.7765 4.7356-2.1386 4.7356-4.7765-2.1202-4.7762-4.7356-4.7762z" fill-opacity=".04"/></g></g></svg>