<svg width="280" height="168" viewBox="0 0 280 168" fill="none" xmlns="http://www.w3.org/2000/svg">
<path d="M0 8C0 3.58172 3.58172 0 8 0H272C276.418 0 280 3.58172 280 8V168H0V8Z" fill="#FFE75C"/>
<rect x="41" y="8" width="197" height="116" rx="8" fill="#36393F"/>
<rect x="41" y="128" width="197" height="32" rx="8" fill="#36393F"/>
<rect x="41" y="68" width="197" height="24" fill="#292B2F"/>
<path d="M53.068 28V19.876H51.28L49.204 20.836L49.432 22.396L51.052 21.76V28H53.068ZM64.1345 28V19.72H62.0705V22.852H59.2025V19.72H57.1505V28H59.2025V24.64H62.0705V28H64.1345ZM73.2429 23.848C73.2429 21.292 71.6949 19.564 69.2949 19.564C66.8949 19.564 65.3349 21.304 65.3349 23.872C65.3349 26.428 66.8949 28.156 69.2709 28.156C71.6829 28.156 73.2429 26.404 73.2429 23.848ZM71.1789 23.86C71.1789 25.504 70.4829 26.548 69.2829 26.548C68.0949 26.548 67.3869 25.504 67.3869 23.86C67.3869 22.216 68.0949 21.172 69.2829 21.172C70.4829 21.172 71.1789 22.216 71.1789 23.86ZM81.2991 24.712V19.72H79.2351V24.736C79.2351 25.792 78.7671 26.404 77.8311 26.404C76.9071 26.404 76.4271 25.78 76.4271 24.712V19.72H74.3631V24.724C74.3631 27.04 75.7791 28.132 77.8071 28.132C79.8111 28.132 81.2991 27.016 81.2991 24.712ZM87.0888 28.084L89.2608 27.736L87.2328 24.688C88.2168 24.268 88.7928 23.488 88.7928 22.336C88.7928 20.632 87.6168 19.72 85.6128 19.72H82.7208V28H84.7608V25.156H85.2768L87.0888 28.084ZM86.7768 22.456C86.7768 23.248 86.2728 23.68 85.3848 23.68H84.7488V21.268H85.4088C86.2968 21.268 86.7768 21.688 86.7768 22.456Z" fill="#DCDDDE"/>
<path d="M53.068 148V139.876H51.28L49.204 140.836L49.432 142.396L51.052 141.76V148H53.068ZM64.1345 148V139.72H62.0705V142.852H59.2025V139.72H57.1505V148H59.2025V144.64H62.0705V148H64.1345ZM73.2429 143.848C73.2429 141.292 71.6949 139.564 69.2949 139.564C66.8949 139.564 65.3349 141.304 65.3349 143.872C65.3349 146.428 66.8949 148.156 69.2709 148.156C71.6829 148.156 73.2429 146.404 73.2429 143.848ZM71.1789 143.86C71.1789 145.504 70.4829 146.548 69.2829 146.548C68.0949 146.548 67.3869 145.504 67.3869 143.86C67.3869 142.216 68.0949 141.172 69.2829 141.172C70.4829 141.172 71.1789 142.216 71.1789 143.86ZM81.2991 144.712V139.72H79.2351V144.736C79.2351 145.792 78.7671 146.404 77.8311 146.404C76.9071 146.404 76.4271 145.78 76.4271 144.712V139.72H74.3631V144.724C74.3631 147.04 75.7791 148.132 77.8071 148.132C79.8111 148.132 81.2991 147.016 81.2991 144.712ZM87.0888 148.084L89.2608 147.736L87.2328 144.688C88.2168 144.268 88.7928 143.488 88.7928 142.336C88.7928 140.632 87.6168 139.72 85.6128 139.72H82.7208V148H84.7608V145.156H85.2768L87.0888 148.084ZM86.7768 142.456C86.7768 143.248 86.2728 143.68 85.3848 143.68H84.7488V141.268H85.4088C86.2968 141.268 86.7768 141.688 86.7768 142.456Z" fill="white"/>
<path d="M49.48 56H55.204L54.952 54.404H51.892L53.512 52.844C54.496 51.908 55.048 51.188 55.048 50.084C55.048 48.632 54.016 47.756 52.348 47.756C51.208 47.756 50.356 48.092 49.66 48.56L49.9 50.264C50.596 49.76 51.328 49.436 52.048 49.436C52.708 49.436 53.092 49.748 53.092 50.3C53.092 50.84 52.816 51.224 52.276 51.776L49.48 54.572V56ZM59.3727 56H61.2567V54.38H62.3967V53.024H61.2567V47.876H59.0367L55.6167 53.132V54.38H59.3727V56ZM59.3727 53.024H57.2967L59.3727 49.808V53.024ZM72.8767 56V47.72H70.8127V50.852H67.9447V47.72H65.8927V56H67.9447V52.64H70.8127V56H72.8767ZM81.9851 51.848C81.9851 49.292 80.4371 47.564 78.0371 47.564C75.6371 47.564 74.0771 49.304 74.0771 51.872C74.0771 54.428 75.6371 56.156 78.0131 56.156C80.4251 56.156 81.9851 54.404 81.9851 51.848ZM79.9211 51.86C79.9211 53.504 79.2251 54.548 78.0251 54.548C76.8371 54.548 76.1291 53.504 76.1291 51.86C76.1291 50.216 76.8371 49.172 78.0251 49.172C79.2251 49.172 79.9211 50.216 79.9211 51.86ZM90.0413 52.712V47.72H87.9773V52.736C87.9773 53.792 87.5093 54.404 86.5733 54.404C85.6493 54.404 85.1693 53.78 85.1693 52.712V47.72H83.1053V52.724C83.1053 55.04 84.5213 56.132 86.5493 56.132C88.5533 56.132 90.0413 55.016 90.0413 52.712ZM95.831 56.084L98.003 55.736L95.975 52.688C96.959 52.268 97.535 51.488 97.535 50.336C97.535 48.632 96.359 47.72 94.355 47.72H91.463V56H93.503V53.156H94.019L95.831 56.084ZM95.519 50.456C95.519 51.248 95.015 51.68 94.127 51.68H93.491V49.268H94.151C95.039 49.268 95.519 49.688 95.519 50.456ZM104.378 53.504C104.378 52.184 103.67 51.56 101.858 50.9C100.826 50.504 100.598 50.3 100.598 49.88C100.598 49.496 100.898 49.232 101.522 49.232C102.158 49.232 102.938 49.472 103.682 49.904L103.994 48.176C103.274 47.828 102.578 47.624 101.498 47.624C99.9136 47.624 98.6656 48.476 98.6656 50.072C98.6656 51.44 99.3856 51.98 101.042 52.616C102.206 53.06 102.446 53.276 102.446 53.744C102.446 54.236 102.038 54.488 101.45 54.488C100.622 54.488 99.6736 54.176 98.8216 53.72L98.5216 55.472C99.3616 55.856 100.298 56.096 101.414 56.096C103.058 56.096 104.378 55.304 104.378 53.504Z" fill="#DCDDDE"/>
<path d="M52.036 84.156C53.788 84.156 55.096 83.304 55.096 81.732C55.096 80.664 54.508 80.1 53.536 79.788C54.376 79.476 54.964 78.936 54.964 77.868C54.964 76.608 53.932 75.732 52.12 75.732C51.052 75.732 50.128 76.044 49.492 76.476L49.744 78C50.356 77.58 51.076 77.328 51.82 77.328C52.6 77.328 52.984 77.64 52.984 78.156C52.984 78.732 52.54 79.104 51.508 79.104H50.644L50.884 80.592H51.568C52.696 80.592 53.14 80.964 53.14 81.624C53.14 82.236 52.648 82.56 51.856 82.56C51.052 82.56 50.296 82.332 49.624 81.96L49.372 83.52C50.056 83.904 50.992 84.156 52.036 84.156ZM66.0389 79.848C66.0389 77.388 64.5389 75.72 61.6589 75.72H58.8029V84H61.7069C64.5029 84 66.0389 82.308 66.0389 79.848ZM63.9749 79.86C63.9749 81.636 63.0629 82.404 61.5989 82.404H60.8549V77.316H61.5989C63.0029 77.316 63.9749 78.12 63.9749 79.86ZM72.3365 84.084L74.4125 83.748L71.5325 75.684H69.2765L66.3005 84H68.3165L68.8685 82.284H71.7365L72.3365 84.084ZM70.2965 77.796L71.2205 80.676H69.3605L70.2965 77.796ZM81.5436 75.72H79.3596L77.6196 79.068L75.8196 75.636L73.6356 75.936L76.5036 80.976V84H78.5556V80.952L81.5436 75.72ZM87.4323 81.504C87.4323 80.184 86.7243 79.56 84.9123 78.9C83.8803 78.504 83.6523 78.3 83.6523 77.88C83.6523 77.496 83.9523 77.232 84.5763 77.232C85.2123 77.232 85.9923 77.472 86.7363 77.904L87.0483 76.176C86.3283 75.828 85.6323 75.624 84.5523 75.624C82.9683 75.624 81.7203 76.476 81.7203 78.072C81.7203 79.44 82.4403 79.98 84.0963 80.616C85.2603 81.06 85.5003 81.276 85.5003 81.744C85.5003 82.236 85.0923 82.488 84.5043 82.488C83.6763 82.488 82.7283 82.176 81.8763 81.72L81.5763 83.472C82.4163 83.856 83.3523 84.096 84.4683 84.096C86.1123 84.096 87.4323 83.304 87.4323 81.504Z" fill="white"/>
<path d="M217 74L213 78V82L217 86L221 82V78L217 74ZM220 81.59L217 84.59L214 81.59V78.41L217 75.41L220 78.41V81.59Z" fill="#FF73FA"/>
<path d="M215 78.8301V81.1701L217 83.1701L219 81.1701V78.8301L217 76.8301L215 78.8301Z" fill="#FF73FA"/>
<path d="M217 102L213 106V110L217 114L221 110V106L217 102ZM220 109.59L217 112.59L214 109.59V106.41L217 103.41L220 106.41V109.59Z" fill="#FF73FA"/>
<path d="M215 106.83V109.17L217 111.17L219 109.17V106.83L217 104.83L215 106.83Z" fill="#FF73FA"/>
<path d="M53.068 112V103.876H51.28L49.204 104.836L49.432 106.396L51.052 105.76V112H53.068ZM68.0585 103.72H66.0185L64.8425 108.904L63.4985 103.72H61.4345L60.0905 108.904L58.8425 103.636L56.6225 103.984L58.8065 112.012H60.8705L62.2985 106.66L63.7265 112.012H65.8025L68.0585 103.72ZM74.3013 112V110.332H71.0493V108.58H73.7133L73.4493 106.936H71.0493V105.376H74.1933V103.72H69.0333V112H74.3013ZM80.7349 112V110.332H77.4829V108.58H80.1469L79.8829 106.936H77.4829V105.376H80.6269V103.72H75.4669V112H80.7349ZM88.9565 111.748L85.9085 107.584L88.8845 103.72H86.5085L83.9525 107.26V103.72H81.9005V112H83.9525V108.148L86.7125 112.084L88.9565 111.748Z" fill="#DCDDDE"/>
<path fill-rule="evenodd" clip-rule="evenodd" d="M217.41 148L222 143.42L226.59 148L228 146.59L222 140.59L216 146.59L217.41 148Z" fill="white"/>
</svg>
