<svg fill="none" height="12" viewBox="0 0 12 12" width="12" xmlns="http://www.w3.org/2000/svg"><path d="m8.36261 7.84301 3.12339-1.0417c.1534-.07031.2834-.1832.3745-.32525s.1395-.30728.1395-.47606-.0484-.33401-.1395-.47606-.2211-.25493-.3745-.32525l-3.12339-1.0417c-.21336-.09636-.38423-.26732-.48054-.48079l-1.12123-3.1251c-.05266-.160316-.15458-.299905-.2912-.398864-.13662-.0989586-.30098-.152236-.46965-.152236-.16866 0-.33301.0532774-.46963.152236-.13662.098959-.23854.238548-.2912.398864l-1.12123 3.1251c-.09631.21347-.26718.38443-.48054.48079l-3.123433 1.0417c-.153355.07032-.283314.1832-.374423.32525-.0911093.14205-.139534.30728-.139534.47606s.0484247.33401.139534.47606c.091109.14205.221068.25494.374423.32525l3.123433 1.0417c.11344.03443.21664.09631.30046.18018.08382.08386.14567.18711.18008.30061l1.12123 3.1251c.05266.1603.15458.2999.2912.3989.13662.0989.30097.1522.46963.1522.16867 0 .33303-.0533.46965-.1522.13662-.099.23854-.2386.2912-.3989l1.12123-3.1251c.03441-.1135.09627-.21675.18008-.30061.08382-.08387.18702-.14575.30046-.18018z" fill="#ffd01a"/></svg>