<svg fill="none" height="65" viewBox="0 0 62 65" width="62" xmlns="http://www.w3.org/2000/svg"><path d="m49.1077 9h-42.21539c-1.87352 0-3.39231 1.5053-3.39231 3.3621v49.2758c0 1.8568 1.51879 3.3621 3.39231 3.3621h42.21539c1.8735 0 3.3923-1.5053 3.3923-3.3621v-49.2758c0-1.8568-1.5188-3.3621-3.3923-3.3621z" fill="#4f81ff"/><path d="m47.5 13.8066h-38.97388v46.387h38.97388z" fill="#fff"/><g fill="#dae1ea"><path d="m43.4037 23.3447h-10.2775v5.1253h10.2775z"/><path d="m43.4037 32.6343h-10.2775v5.1253h10.2775z"/><path d="m43.4039 41.9236h-30.7821v5.1253h30.7821z"/><path d="m43.4039 51.2129h-30.7821v5.1253h30.7821z"/></g><path d="m28.0003 23.3447h-15.3785v14.4097h15.3785z" fill="#a8c3ff"/><path d="m12.25 16.0002h31.5l-1.6985-4.1516c-.6165-1.505-1.6621-2.79168-3.0045-3.69703-1.3423-.90536-2.921-1.38864-4.536-1.38863h-13.022c-1.615-.00001-3.1937.48327-4.536 1.38863-1.3424.90535-2.388 2.19203-3.0045 3.69703z" fill="#ffd836"/><path d="m28.0003 13.2756c3.5675 0 6.4596-2.9159 6.4596-6.51281s-2.8921-6.51279-6.4596-6.51279-6.4595 2.91588-6.4595 6.51279 2.892 6.51281 6.4595 6.51281z" fill="#ffd836"/><path d="m61.2263 33.1233-4.6159-4.6179-18.1105 18.1181 4.616 4.618z" fill="#315fde"/><path d="m61.25 33.1453-4.616-4.618-3.4572 3.4587 4.616 4.6179z" fill="#ff7abc"/><path d="m38.501 46.6389v4.6166h4.6145z" fill="#ffb713"/></svg>