<svg width="350" height="205" viewBox="0 0 350 205" fill="none" xmlns="http://www.w3.org/2000/svg">
<path opacity="0.2" d="M427 224H279C279 211.024 290.096 200.61 303.923 200.61H330.894C333.284 200.61 335.161 198.902 335.161 196.512C335.161 180.805 348.647 168 365.376 168H366.571C383.3 168 396.785 180.805 396.785 196.512V205.049C396.956 209.659 400.882 213.244 405.491 213.244H415.392C421.537 212.902 426.829 217.854 427 224Z" fill="white"/>
<path opacity="0.4" d="M288 125H373C372.867 116.683 365.961 109.925 357.328 109.925H348.297C346.836 109.925 345.641 108.755 345.641 107.326C345.508 97.1889 337.008 89.0015 326.648 89.0015H325.852C315.492 88.8716 306.992 97.0589 306.859 107.326V112.784C306.859 115.643 304.336 117.982 301.414 117.982H295.172C291.32 117.982 288.133 121.101 288 125Z" fill="white"/>
<path opacity="0.3" d="M31.5321 61.0827C31.5321 56.6654 28.3319 53 24.3786 53H16.9426C12.9894 53 9.78908 56.5714 9.78908 61.0827C9.78908 61.9286 9.22433 62.6805 8.37719 62.6805H6.11818C2.72965 62.6805 0 65.782 0 69.5414H41.4153C41.4153 66.5339 39.2505 63.9963 36.5208 63.9963H34.2618C32.6616 63.9963 31.438 62.6805 31.5321 61.0827C31.5321 61.1767 31.5321 61.0827 31.5321 61.0827Z" fill="white"/>
<path opacity="0.2" d="M263.341 159.17C263.341 151.426 257.623 145 250.559 145H237.273C230.209 145 224.491 151.261 224.491 159.17C224.491 160.653 223.482 161.972 221.968 161.972H217.932C211.877 161.972 207 167.409 207 174H281C281 168.727 277.132 164.278 272.255 164.278H268.218C265.359 164.278 263.173 161.972 263.341 159.17C263.341 159.335 263.341 159.17 263.341 159.17Z" fill="white"/>
<path opacity="0.4" d="M141.205 196.216C141.205 189.54 136.414 184 130.495 184H119.364C113.445 184 108.655 189.398 108.655 196.216C108.655 197.494 107.809 198.631 106.541 198.631H103.159C98.0864 198.631 94 203.318 94 209H156C156 204.455 152.759 200.619 148.673 200.619H145.291C142.895 200.619 141.064 198.631 141.205 196.216Z" fill="white"/>
<path opacity="0.2" d="M151.415 133.703H110C110.094 129.943 113.2 127.03 116.965 127.124H124.495C125.154 127.124 125.719 126.654 125.719 125.996C125.813 121.485 129.672 117.913 134.19 118.007H134.567C139.085 117.819 142.85 121.391 143.038 125.996V128.345C143.038 129.661 144.168 130.695 145.485 130.601H148.215C149.909 130.507 151.321 131.823 151.415 133.703C151.415 133.609 151.415 133.609 151.415 133.703Z" fill="white"/>
<path opacity="0.2" d="M51.4154 163.703H10C10.0941 159.943 13.2003 157.03 16.9653 157.124H24.4954C25.1543 157.124 25.719 156.654 25.719 155.996C25.8131 151.485 29.6723 147.913 34.1903 148.007H34.5668C39.0849 147.819 42.8499 151.391 43.0382 155.996V158.345C43.0382 159.661 44.1677 160.695 45.4854 160.601H48.2151C49.9093 160.507 51.3212 161.823 51.4154 163.703C51.4154 163.609 51.4154 163.609 51.4154 163.703Z" fill="white"/>
<path opacity="0.2" d="M263 48H130C130 36.8781 139.971 27.9512 152.397 27.9512H176.634C178.782 27.9512 180.469 26.4878 180.469 24.439C180.469 10.9756 192.588 0 207.622 0H208.695C223.729 0 235.848 10.9756 235.848 24.439V31.7561C236.001 35.7073 239.529 38.7805 243.671 38.7805H252.569C258.091 38.4878 262.847 42.7317 263 48Z" fill="white"/>
<g clip-path="url(#clip0_558_54982)">
<path d="M180.914 132.837C181.056 132.84 181.195 132.792 181.306 132.704C181.417 132.615 181.494 132.49 181.522 132.35L185.476 112.896C185.494 112.816 185.495 112.734 185.48 112.653C185.465 112.573 185.434 112.496 185.388 112.428C185.343 112.36 185.284 112.302 185.216 112.257C185.147 112.212 185.07 112.181 184.989 112.167C184.909 112.149 184.827 112.148 184.746 112.163C184.666 112.178 184.589 112.209 184.521 112.255C184.453 112.3 184.394 112.359 184.349 112.427C184.305 112.496 184.274 112.573 184.259 112.653L180.305 132.107C180.285 132.267 180.323 132.429 180.412 132.563C180.502 132.697 180.637 132.794 180.792 132.837H180.914Z" fill="#DAE2ED"/>
<path d="M133.161 102.866H144.901C152.262 102.866 155.851 99.3395 155.851 99.3395V114.659H148.49C147.821 110.829 144.475 109.127 140.4 109.127H133.222C132.774 109.194 132.318 109.164 131.883 109.04C131.448 108.915 131.045 108.699 130.701 108.405C130.357 108.112 130.08 107.748 129.889 107.339C129.697 106.929 129.596 106.483 129.592 106.031C129.587 105.579 129.68 105.132 129.863 104.719C130.047 104.305 130.317 103.936 130.655 103.636C130.993 103.336 131.392 103.112 131.824 102.979C132.256 102.846 132.712 102.808 133.161 102.866Z" fill="#80A7FF"/>
<path d="M142.468 134.478H145.327C145.682 134.478 146.022 134.619 146.273 134.87C146.524 135.121 146.665 135.461 146.665 135.816V141.773C146.681 142.559 147 143.307 147.556 143.863C148.111 144.418 148.861 144.737 149.646 144.752C150.432 144.737 151.181 144.418 151.737 143.863C152.292 143.307 152.611 142.559 152.627 141.773V116.726C152.611 115.85 152.251 115.015 151.626 114.401C151 113.787 150.158 113.443 149.281 113.444H139.183C138.312 113.444 137.476 113.789 136.86 114.405C136.244 115.021 135.898 115.856 135.898 116.726V127.852C135.89 128.719 136.054 129.579 136.381 130.383C136.707 131.187 137.19 131.917 137.801 132.534C138.412 133.15 139.139 133.639 139.94 133.973C140.741 134.306 141.6 134.478 142.468 134.478Z" fill="#80A7FF"/>
<path d="M138.696 105.297C140.037 103.456 141.793 101.956 143.823 100.921C145.852 99.8859 148.098 99.344 150.376 99.3395H169.903C172.21 99.3395 174.423 100.255 176.054 101.886C177.686 103.516 178.602 105.727 178.602 108.033V123.961C178.602 125.498 177.995 126.974 176.913 128.066C175.831 129.159 174.361 129.781 172.823 129.797H144.536C142.24 129.781 140.043 128.858 138.425 127.229C136.806 125.601 135.898 123.399 135.898 121.104V113.808C135.894 110.745 136.875 107.761 138.696 105.297Z" fill="#9CB8FF"/>
<path fill-rule="evenodd" clip-rule="evenodd" d="M115.885 173.203C121.397 175.731 127.535 176.568 133.523 175.609C139.511 174.65 145.08 171.938 149.526 167.815C153.971 163.693 157.094 158.345 158.498 152.449C159.902 146.553 159.524 140.373 157.414 134.692C155.303 129.01 151.553 124.081 146.64 120.529C141.726 116.977 135.868 114.961 129.807 114.737C123.747 114.512 117.756 116.089 112.592 119.267C107.429 122.446 103.324 127.083 100.798 132.593C97.4459 139.983 97.1504 148.396 99.9759 156.002C102.801 163.608 108.519 169.791 115.885 173.203Z" fill="#4F5D7F"/>
<path fill-rule="evenodd" clip-rule="evenodd" d="M160.657 151.318H170.633C171.042 151.302 171.429 151.129 171.712 150.834C171.996 150.539 172.154 150.146 172.154 149.737V144.387C172.154 143.984 171.994 143.598 171.709 143.313C171.423 143.028 171.036 142.868 170.633 142.868H160.657C160.253 142.868 159.867 143.028 159.581 143.313C159.296 143.598 159.136 143.984 159.136 144.387V149.737C159.136 150.146 159.294 150.539 159.577 150.834C159.861 151.129 160.248 151.302 160.657 151.318Z" fill="#FF5C5C"/>
<path fill-rule="evenodd" clip-rule="evenodd" d="M141.13 154.358H165.097C166.324 154.358 167.5 153.871 168.367 153.004C169.234 152.138 169.721 150.963 169.721 149.737V141.591C169.705 140.86 169.403 140.164 168.88 139.653C168.357 139.141 167.654 138.855 166.922 138.855H141.13V154.358Z" fill="#B7C2CE"/>
<path fill-rule="evenodd" clip-rule="evenodd" d="M179.575 138.065H175.378C173.054 138.066 170.824 138.983 169.173 140.618L167.227 142.624C164.102 145.72 159.886 147.467 155.486 147.488H138.636V134.721H179.575V138.065Z" fill="black"/>
<path d="M180.67 129.797H141.86V138.065H180.67C181.767 138.065 182.82 137.629 183.595 136.854C184.371 136.079 184.807 135.027 184.807 133.931C184.807 132.835 184.371 131.783 183.595 131.008C182.82 130.233 181.767 129.797 180.67 129.797Z" fill="black"/>
<path fill-rule="evenodd" clip-rule="evenodd" d="M120.386 163.477C123.973 165.13 127.97 165.683 131.871 165.064C135.772 164.446 139.401 162.684 142.3 160.002C145.198 157.321 147.235 153.84 148.152 150C149.069 146.161 148.825 142.136 147.452 138.435C146.078 134.734 143.636 131.524 140.435 129.211C137.234 126.898 133.418 125.587 129.471 125.443C125.524 125.299 121.623 126.33 118.262 128.403C114.901 130.477 112.232 133.501 110.592 137.092C108.418 141.893 108.227 147.357 110.061 152.297C111.895 157.237 115.605 161.255 120.386 163.477Z" fill="#7687B2"/>
<path d="M161.813 127.852V112.045C161.813 111.012 162.299 104.689 163.029 99.3395H169.903C172.124 99.3506 174.258 100.204 175.873 101.728C177.488 103.252 178.463 105.331 178.602 107.547V141.773C178.587 142.559 178.268 143.307 177.712 143.863C177.156 144.418 176.407 144.737 175.621 144.752C174.836 144.737 174.087 144.418 173.531 143.863C172.975 143.307 172.656 142.559 172.641 141.773V135.816C172.641 135.461 172.5 135.121 172.249 134.87C171.998 134.619 171.657 134.478 171.302 134.478H168.443C166.685 134.478 164.998 133.78 163.755 132.537C162.511 131.295 161.813 129.609 161.813 127.852Z" fill="#80A7FF"/>
<path d="M126.165 127.365L134.499 106.817H132.248C132.155 106.826 132.062 106.815 131.974 106.785C131.885 106.755 131.804 106.707 131.735 106.644C131.667 106.581 131.612 106.504 131.574 106.419C131.537 106.334 131.518 106.242 131.518 106.148C131.518 106.053 131.537 105.958 131.574 105.869C131.611 105.781 131.664 105.7 131.732 105.632C131.8 105.565 131.88 105.511 131.969 105.474C132.058 105.438 132.152 105.419 132.248 105.419H149.038C149.231 105.419 149.417 105.496 149.554 105.632C149.691 105.769 149.768 105.955 149.768 106.148C149.753 106.331 149.669 106.501 149.534 106.625C149.398 106.749 149.221 106.818 149.038 106.817H137.115C136.787 106.818 136.467 106.917 136.196 107.101C135.925 107.285 135.715 107.546 135.594 107.851L127.503 127.912C127.452 128.045 127.359 128.158 127.239 128.235C127.118 128.311 126.977 128.348 126.834 128.338H126.591C126.408 128.245 126.258 128.096 126.165 127.912C126.105 127.735 126.105 127.543 126.165 127.365Z" fill="#EBEFF7"/>
<path d="M146.483 102.866H158.284C158.745 102.866 159.201 102.774 159.625 102.596C160.05 102.418 160.435 102.157 160.758 101.829C161.081 101.501 161.335 101.112 161.505 100.684C161.676 100.257 161.76 99.7997 161.752 99.3395H169.173V114.659H161.813C161.143 110.829 157.798 109.127 153.722 109.127H146.605C146.158 109.198 145.702 109.172 145.266 109.051C144.83 108.931 144.426 108.718 144.079 108.428C143.733 108.138 143.452 107.777 143.257 107.37C143.062 106.962 142.957 106.518 142.948 106.066C142.939 105.615 143.027 105.166 143.206 104.752C143.386 104.337 143.652 103.965 143.987 103.662C144.322 103.359 144.718 103.131 145.148 102.993C145.579 102.856 146.034 102.812 146.483 102.866Z" fill="#80A7FF"/>
<path fill-rule="evenodd" clip-rule="evenodd" d="M171.546 99.5219H146.361C144.194 99.522 142.114 98.6657 140.576 97.1396C139.037 95.6136 138.165 93.5417 138.149 91.3756V76.2988C138.165 74.1327 139.037 72.0608 140.576 70.5348C142.114 69.0088 144.194 68.1525 146.361 68.1525H171.546C173.713 68.1525 175.793 69.0088 177.331 70.5348C178.87 72.0608 179.742 74.1327 179.758 76.2988V91.3756C179.742 93.5417 178.87 95.6136 177.331 97.1396C175.793 98.6657 173.713 99.522 171.546 99.5219Z" fill="#80A7FF"/>
<path fill-rule="evenodd" clip-rule="evenodd" d="M166.253 99.5219H141.008C138.846 99.5219 136.773 98.6636 135.244 97.1359C133.715 95.6082 132.857 93.5361 132.857 91.3756V76.2988C132.857 74.1383 133.715 72.0663 135.244 70.5385C136.773 69.0108 138.846 68.1525 141.008 68.1525H166.253C168.421 68.1525 170.5 69.0088 172.039 70.5348C173.577 72.0608 174.449 74.1327 174.466 76.2988V91.3756C174.449 93.5417 173.577 95.6136 172.039 97.1396C170.5 98.6657 168.421 99.522 166.253 99.5219Z" fill="#9CB8FF"/>
<path fill-rule="evenodd" clip-rule="evenodd" d="M177.325 89.491H171.302V74.8398H177.325C178.041 74.8397 178.75 74.9817 179.411 75.2574C180.072 75.5331 180.671 75.9371 181.175 76.4459C181.678 76.9548 182.076 77.5585 182.344 78.222C182.613 78.8854 182.747 79.5956 182.739 80.3112V84.0804C182.739 85.5154 182.168 86.8916 181.153 87.9063C180.138 88.9209 178.761 89.491 177.325 89.491Z" fill="#9CB8FF"/>
<path fill-rule="evenodd" clip-rule="evenodd" d="M171.302 86.269V78.1226C171.302 77.9775 171.36 77.8384 171.463 77.7358C171.565 77.6331 171.705 77.5755 171.85 77.5755H177.325C178.04 77.5914 178.721 77.8866 179.221 78.3979C179.721 78.9093 180.001 79.5961 180.001 80.3112V84.0804C180.001 84.7955 179.721 85.4823 179.221 85.9937C178.721 86.505 178.04 86.8002 177.325 86.8161H171.85C171.705 86.8161 171.565 86.7585 171.463 86.6558C171.36 86.5532 171.302 86.4141 171.302 86.269Z" fill="#80A7FF"/>
<path fill-rule="evenodd" clip-rule="evenodd" d="M161.813 84.7491C161.283 84.7491 160.766 84.5922 160.325 84.2983C159.885 84.0044 159.542 83.5866 159.34 83.0978C159.137 82.6091 159.084 82.0712 159.187 81.5524C159.291 81.0335 159.546 80.5568 159.92 80.1828C160.294 79.8087 160.771 79.5539 161.29 79.4507C161.81 79.3475 162.348 79.4005 162.837 79.6029C163.326 79.8054 163.744 80.1482 164.038 80.5881C164.332 81.028 164.489 81.5452 164.489 82.0742C164.474 82.7788 164.187 83.4502 163.688 83.9485C163.189 84.4468 162.518 84.7336 161.813 84.7491Z" fill="black"/>
<path fill-rule="evenodd" clip-rule="evenodd" d="M132.613 76.2988H151.167C152.038 76.2988 152.874 76.6447 153.49 77.2604C154.106 77.876 154.452 78.711 154.452 79.5817V83.3509C154.436 85.517 153.564 87.5889 152.025 89.1149C150.487 90.6409 148.407 91.4972 146.24 91.4972H137.541C135.373 91.4972 133.293 90.6409 131.755 89.1149C130.217 87.5889 129.344 85.517 129.328 83.3509V79.5817C129.328 78.711 129.674 77.876 130.29 77.2604C130.907 76.6447 131.742 76.2988 132.613 76.2988Z" fill="#B8D0FF"/>
<path fill-rule="evenodd" clip-rule="evenodd" d="M142.468 91.4972H137.541C135.373 91.4972 133.293 90.6409 131.755 89.1149C130.217 87.5889 129.344 85.517 129.328 83.3509V79.5817C129.328 78.711 129.674 77.876 130.29 77.2604C130.907 76.6447 131.742 76.2988 132.613 76.2988H147.335C148.206 76.2988 149.041 76.6447 149.657 77.2604C150.273 77.876 150.619 78.711 150.619 79.5817V83.3509C150.619 85.5114 149.761 87.5834 148.232 89.1112C146.703 90.6389 144.63 91.4972 142.468 91.4972Z" fill="#CBDAF7"/>
<path fill-rule="evenodd" clip-rule="evenodd" d="M140.217 85.3571H143.806C143.982 85.3571 144.156 85.3917 144.318 85.4589C144.481 85.5261 144.628 85.6246 144.753 85.7488C144.877 85.873 144.976 86.0204 145.043 86.1827C145.11 86.345 145.145 86.5189 145.145 86.6945C145.153 86.8752 145.124 87.0557 145.061 87.225C144.997 87.3944 144.9 87.5491 144.775 87.6798C144.65 87.8105 144.499 87.9145 144.333 87.9855C144.166 88.0564 143.987 88.0929 143.806 88.0928H140.217C140.036 88.0929 139.857 88.0564 139.691 87.9855C139.524 87.9145 139.374 87.8105 139.249 87.6798C139.124 87.5491 139.026 87.3944 138.963 87.225C138.899 87.0557 138.871 86.8752 138.879 86.6945C138.879 86.5189 138.914 86.345 138.981 86.1827C139.048 86.0204 139.147 85.873 139.271 85.7488C139.395 85.6246 139.543 85.5261 139.705 85.4589C139.867 85.3917 140.042 85.3571 140.217 85.3571ZM133.83 85.3571H135.229C135.405 85.3571 135.579 85.3917 135.741 85.4589C135.904 85.5261 136.051 85.6246 136.175 85.7488C136.3 85.873 136.398 86.0204 136.465 86.1827C136.533 86.345 136.567 86.5189 136.567 86.6945C136.576 86.8752 136.547 87.0557 136.483 87.225C136.42 87.3944 136.323 87.5491 136.198 87.6798C136.072 87.8105 135.922 87.9145 135.756 87.9855C135.589 88.0564 135.41 88.0929 135.229 88.0928H133.83C133.649 88.0929 133.47 88.0564 133.303 87.9855C133.137 87.9145 132.987 87.8105 132.861 87.6798C132.736 87.5491 132.639 87.3944 132.575 87.225C132.512 87.0557 132.483 86.8752 132.492 86.6945C132.492 86.5189 132.526 86.345 132.593 86.1827C132.661 86.0204 132.759 85.873 132.884 85.7488C133.008 85.6246 133.155 85.5261 133.318 85.4589C133.48 85.3917 133.654 85.3571 133.83 85.3571Z" fill="#9CB8FF"/>
<path fill-rule="evenodd" clip-rule="evenodd" d="M141.738 94.7192H139.548C139.306 94.7192 139.074 94.6231 138.903 94.4521C138.732 94.2811 138.636 94.0491 138.636 93.8073C138.651 93.5761 138.754 93.3595 138.923 93.2014C139.093 93.0433 139.316 92.9557 139.548 92.9562H141.738C141.97 92.9557 142.193 93.0433 142.363 93.2014C142.532 93.3595 142.635 93.5761 142.651 93.8073C142.651 94.0491 142.554 94.2811 142.383 94.4521C142.212 94.6231 141.98 94.7192 141.738 94.7192Z" fill="#80A7FF"/>
<path fill-rule="evenodd" clip-rule="evenodd" d="M157.737 59.2767C157.737 59.2767 167.592 81.0407 169.538 85.9042C172.276 92.9562 184.077 92.1051 184.077 82.0742L157.737 59.2767Z" fill="#D0D9EA"/>
<path fill-rule="evenodd" clip-rule="evenodd" d="M134.864 67.7877C134.864 67.7877 141.677 58 159.683 58C177.69 58 186.024 70.7666 186.024 80.7975C186.024 90.8284 174.222 91.6795 171.424 84.6275C169.538 79.764 166.071 72.0433 166.071 72.0433H134.864V67.7877Z" fill="#EBEFF7"/>
<path fill-rule="evenodd" clip-rule="evenodd" d="M147.03 66.9366L142.346 66.7542C142.346 66.7542 145.327 60.6141 155.425 58.1824C156.764 58.0608 158.163 58 159.683 58C160.943 57.9971 162.202 58.058 163.455 58.1824C158.893 58.7295 151.41 60.6141 147.03 66.9366Z" fill="#D0D9EA"/>
<path fill-rule="evenodd" clip-rule="evenodd" d="M166.071 72.0433H123.306C123.306 72.0433 129.937 66.3287 144.475 66.511C159.014 66.6934 166.071 72.0433 166.071 72.0433Z" fill="black"/>
<path fill-rule="evenodd" clip-rule="evenodd" d="M176.412 80.068C176.655 82.439 178.541 84.1412 180.549 83.898C182.556 83.6548 183.894 81.5879 183.651 79.2169C183.408 76.846 181.461 75.083 179.454 75.3261C177.446 75.5693 176.108 77.6971 176.412 80.068Z" fill="#D0D9EA"/>
<path fill-rule="evenodd" clip-rule="evenodd" d="M178.785 75.5085C179.514 75.8414 180.145 76.3584 180.614 77.0086C181.083 77.6588 181.375 78.4198 181.461 79.2169C181.705 81.2839 180.67 83.1685 179.089 83.7764C178.348 83.4592 177.707 82.9465 177.236 82.2932C176.764 81.6399 176.48 80.8707 176.412 80.068C176.108 78.001 177.142 76.1164 178.785 75.5085Z" fill="#7687B2"/>
<path fill-rule="evenodd" clip-rule="evenodd" d="M101.893 128.46C103.292 132.958 118.5 140.071 128.112 143.719C135.229 141.53 152.627 135.208 155.425 129.858C155.72 129.41 155.829 128.865 155.729 128.338L155.486 127.791C150.194 119.827 142.225 114.72 133.039 113.444C121.42 111.863 109.862 117.03 102.076 127.244C101.955 127.419 101.875 127.62 101.844 127.83C101.812 128.041 101.829 128.256 101.893 128.46Z" fill="#FF7F14"/>
<path fill-rule="evenodd" clip-rule="evenodd" d="M128.051 145.299C128.051 145.299 150.802 119.584 146.848 117.03C142.734 114.353 138.083 112.61 133.222 111.924C120.143 110.161 108.341 116.483 100.859 126.332C95.5667 133.323 128.051 145.299 128.051 145.299Z" fill="#FF903E"/>
<path fill-rule="evenodd" clip-rule="evenodd" d="M104.022 122.745C103.998 124.169 104.496 125.553 105.421 126.636C110.045 132.715 126.773 139.524 131.579 141.348C130.302 144.509 129.146 146.576 128.477 146.819L127.99 146.941L127.503 146.758C126.652 146.454 105.482 138.551 100.129 131.56C97.8783 128.581 98.8517 126.393 99.6425 125.42C101.893 122.441 104.144 121.772 104.022 122.745Z" fill="#DAE2ED"/>
<path fill-rule="evenodd" clip-rule="evenodd" d="M121.664 160.68C124.692 162.073 128.066 162.537 131.359 162.014C134.651 161.49 137.714 160.002 140.16 157.737C142.606 155.473 144.325 152.535 145.099 149.294C145.873 146.053 145.668 142.656 144.51 139.532C143.351 136.407 141.292 133.697 138.591 131.743C135.891 129.789 132.671 128.68 129.339 128.555C126.007 128.431 122.714 129.297 119.875 131.044C117.036 132.791 114.779 135.34 113.39 138.369C111.531 142.424 111.358 147.052 112.909 151.235C114.46 155.418 117.609 158.815 121.664 160.68Z" fill="#EBEFF7"/>
<path fill-rule="evenodd" clip-rule="evenodd" d="M122.819 158.248C126.242 159.798 130.138 159.933 133.659 158.623C137.18 157.313 140.041 154.666 141.616 151.257C142.781 148.709 143.164 145.874 142.716 143.109C142.269 140.344 141.011 137.774 139.102 135.723C137.193 133.673 134.719 132.233 131.992 131.588C129.264 130.942 126.407 131.119 123.78 132.096C121.154 133.073 118.876 134.806 117.235 137.076C115.594 139.347 114.663 142.052 114.56 144.851C114.457 147.65 115.187 150.417 116.657 152.801C118.127 155.186 120.272 157.081 122.819 158.248Z" fill="#DAE2ED"/>
<path fill-rule="evenodd" clip-rule="evenodd" d="M122.576 137.031L118.135 144.752C117.989 144.979 117.911 145.242 117.911 145.512C117.911 145.782 117.989 146.046 118.135 146.272L122.576 153.993C122.712 154.228 122.907 154.425 123.141 154.564C123.376 154.702 123.642 154.778 123.914 154.783H132.917C133.19 154.778 133.456 154.702 133.69 154.564C133.925 154.425 134.12 154.228 134.256 153.993L138.696 146.272C138.843 146.046 138.921 145.782 138.921 145.512C138.921 145.242 138.843 144.979 138.696 144.752L134.256 137.031C134.12 136.796 133.925 136.599 133.69 136.461C133.456 136.322 133.19 136.247 132.917 136.241H123.914C123.642 136.247 123.376 136.322 123.141 136.461C122.907 136.599 122.712 136.796 122.576 137.031Z" fill="#C5CEDD"/>
<path d="M128.72 150.284C125.999 150.284 123.793 148.08 123.793 145.36C123.793 142.641 125.999 140.436 128.72 140.436C131.441 140.436 133.647 142.641 133.647 145.36C133.647 148.08 131.441 150.284 128.72 150.284Z" fill="white"/>
<path d="M185.354 113.444C189.187 112.471 190.16 115.571 196 115.875C190.525 119.219 189.491 117.213 183.894 120.8L185.354 113.444Z" fill="#FF903E"/>
<path d="M128.72 176H155.973C157.592 175.984 159.139 175.33 160.278 174.18C161.417 173.03 162.056 171.478 162.056 169.86C162.056 168.248 161.415 166.701 160.274 165.561C159.133 164.421 157.586 163.781 155.973 163.781H152.505C150.927 163.769 149.363 164.07 147.901 164.664C146.44 165.259 145.11 166.136 143.989 167.246L142.529 168.766C140.596 170.663 137.999 171.731 135.29 171.744H132.978C131.849 171.744 130.766 172.193 129.967 172.991C129.169 173.789 128.72 174.871 128.72 176Z" fill="#EBEFF7"/>
<path d="M165.341 163.781H172.884C173.858 163.781 174.648 164.57 174.648 165.544V165.598C174.648 166.572 173.858 167.361 172.884 167.361H165.341C164.366 167.361 163.577 166.572 163.577 165.598V165.544C163.577 164.57 164.366 163.781 165.341 163.781Z" fill="#EBEFF7"/>
<path d="M157.068 172.717H163.029C163.936 172.717 164.672 173.447 164.672 174.346C164.672 175.246 163.936 175.976 163.029 175.976H157.068C156.161 175.976 155.425 175.246 155.425 174.346C155.425 173.447 156.161 172.717 157.068 172.717Z" fill="#EBEFF7"/>
</g>
<defs>
<clipPath id="clip0_558_54982">
<rect width="98" height="118" fill="white" transform="matrix(-1 0 0 1 196 58)"/>
</clipPath>
</defs>
</svg>
