<svg height="527.02002" width="389.42999" xmlns="http://www.w3.org/2000/svg"><g transform="matrix(10 0 0 -10 -4419.15 3263.1)"><path d="m442.198 326.028h38.376v-52.138h-38.376z" fill="#1b1615"/><g fill="#fff"><path d="m480.291 274.175h-37.811v51.571h37.811zm.567 52.135h-.567-37.812-.564v-.565-51.57-.567h.564 37.812.567v.567 51.57z"/><path d="m478.254 323.815h-33.722v-7.865h33.722z"/><path d="m444.597 314.007h33.661v-30.674h-33.661z"/><g><path d="m444.6348 276.6384v4.614h6.78v-1.08h-4.057v-.658h3.433v-1.077h-3.433v-.722h4.212v-1.077z"/><path d="m457.3293 279.909c-.04.156-.194.255-.392.311-.193.06-.432.085-.702.085-.599 0-.867-.097-.867-.269 0-.681 4.779-.255 4.779-1.932 0-1.068-1.607-1.589-3.89-1.589-2.194 0-3.624.711-3.683 1.545h2.609c.057-.169.222-.286.453-.364.217-.077.503-.117.775-.117.681 0 1.131.121 1.131.339 0 .699-4.782.219-4.782 1.977 0 .981 1.525 1.471 3.603 1.471 2.307 0 3.359-.653 3.558-1.457z"/><path d="m464.2248 279.2513h1.071c.845 0 1.296.122 1.296.437 0 .327-.459.484-1.096.484h-1.271zm0-1.006v-1.607h-2.721v4.614h3.923c2.768 0 3.683-.423 3.683-1.319 0-.534-.425-.977-1.395-1.131.874-.175 1.405-.286 1.405-1.216 0-.6-.035-.807.289-.807v-.141h-2.759c-.07.102-.139.397-.139.806 0 .606-.182.801-1.452.801z"/><path d="m473.5065 280.1724v-.773h1.133c.543 0 .936.141.936.404 0 .36-.535.369-1.106.369zm0-1.608v-.849h1.187c.675 0 1.18.077 1.18.422 0 .402-.633.427-1.502.427zm-2.724-1.926v4.614h3.973c1.871 0 3.36-.249 3.36-1.166 0-.474-.555-.819-1.085-1 .899-.13 1.383-.562 1.383-1.058 0-1.028-1.417-1.39-3.578-1.39z"/></g></g><g fill="#1b1615"><path d="m470.4336 322.4666h2.253l2.613-2.92-.089 1.221v1.699h2.304v-5.347h-2.25l-2.622 2.913.046-1.263.047-1.65h-2.302z"/><path d="m462.3151 322.4666h5.976v-1.242h-3.576v-.77h3.025v-1.248h-3.025v-.837h3.718v-1.25h-6.118z"/><path d="m453.9141 322.4666h5.976v-1.242h-3.574v-.77h3.023v-1.248h-3.023v-.837h3.72v-1.25h-6.122z"/><path d="m445.1509 322.4666h6.721v-1.402h-2.157v-3.945h-2.404v3.945h-2.16z"/></g><path d="m447.0857 307.1357 24.453 6.078 1.881-6.492-7.857-1.952 5.267-18.24-8.742-2.175-5.272 18.243-7.855-1.952z" fill="#1b1615"/><path d="m475.386 286.2649c.316.009.394.138.394.286 0 .152-.078.233-.347.233h-.408v-.519zm-.361-.317v-.864h-.337v2.016h.703c.399 0 .803-.102.803-.558 0-.231-.145-.416-.435-.472v-.007c.293-.054.333-.184.367-.4.031-.188.052-.4.126-.579h-.432c-.024.112-.057.246-.07.359-.023.174-.023.338-.123.432-.086.073-.2.065-.316.073zm1.909.119c0 .776-.676 1.404-1.513 1.404-.842 0-1.525-.628-1.525-1.404 0-.78.683-1.416 1.525-1.416.837 0 1.513.636 1.513 1.416m-3.366 0c0 .942.822 1.708 1.853 1.708 1.017 0 1.839-.766 1.839-1.708 0-.949-.822-1.717-1.839-1.717-1.031 0-1.853.768-1.853 1.717" fill="#1b1615"/></g></svg>