<svg width="155" height="83" viewBox="0 0 155 83" fill="none" xmlns="http://www.w3.org/2000/svg">
<path d="M120.183 4H30.8169C27.6043 4 25 6.61503 25 9.84082V68.1592C25 71.385 27.6043 74 30.8169 74H120.183C123.396 74 126 71.385 126 68.1592V9.84082C126 6.61503 123.396 4 120.183 4Z" fill="#AEC7FF"/>
<path d="M126 9.84077V16.4184L97.5775 39.0089L91.7964 43.5917L82.2924 51.068C80.3556 52.6044 77.9594 53.4401 75.491 53.4401C73.0227 53.4401 70.6265 52.6044 68.6897 51.068L59.1857 43.5917L53.4046 39.0089L25 16.4184V9.84077C24.9981 9.06362 25.1502 8.29387 25.4475 7.57632L73.1643 45.5147C73.8302 46.0484 74.6569 46.3391 75.5089 46.3391C76.361 46.3391 77.1877 46.0484 77.8536 45.5147L125.553 7.57632C125.85 8.29387 126.002 9.06362 126 9.84077Z" fill="#7196FF"/>
<path d="M61.423 41.8125L59.2036 43.6096L25.4475 70.4055C25.1516 69.6939 24.9995 68.9303 25 68.1591V61.5994L53.4225 39.0089L57.0021 36.1873L61.423 41.8125Z" fill="#7196FF"/>
<path d="M126 61.5994V68.1591C126 68.9303 125.848 69.6939 125.552 70.4056L91.7963 43.5917L89.5769 41.7945L94.0157 36.1694L97.5953 38.9909L126 61.5994Z" fill="#7196FF"/>
<path d="M155 27.6364H96.2578V54.0455H155V27.6364Z" fill="#F47FFF"/>
<path d="M115.207 39.143L113.312 35.9362L110.28 37.6339V34.2385H106.68V37.6339L103.648 35.9362L101.942 39.143L104.785 40.8407L101.942 42.5385L103.648 45.7453L106.68 44.0476V47.443H110.28V44.0476L113.312 45.7453L115.207 42.5385L112.175 40.8407L115.207 39.143Z" fill="white"/>
<path d="M132.261 39.143L130.366 35.9362L127.334 37.6339V34.2385H123.734V37.6339L120.702 35.9362L118.997 39.143L121.839 40.8407L118.997 42.5385L120.702 45.7453L123.734 44.0476V47.443H127.334V44.0476L130.366 45.7453L132.261 42.5385L129.229 40.8407L132.261 39.143Z" fill="white"/>
<path d="M149.315 39.143L147.42 35.9362L144.388 37.6339V34.2385H140.788V37.6339L137.756 35.9362L136.051 39.143L138.893 40.8407L136.051 42.5385L137.756 45.7453L140.788 44.0476V47.443H144.388V44.0476L147.42 45.7453L149.315 42.5385L146.283 40.8407L149.315 39.143Z" fill="white"/>
<path d="M13.6434 16.334L12.5064 18.7863C12.3169 19.3522 12.8854 19.9181 13.4539 19.7295L15.9172 18.5976C16.1067 18.5976 16.2962 18.5976 16.4857 18.5976L18.9491 19.7295C19.5176 19.9181 20.086 19.3522 19.8965 18.7863L18.7596 16.334C18.7596 16.1454 18.7596 15.9567 18.7596 15.7681L19.8965 13.3158C20.086 12.7499 19.5176 12.184 18.9491 12.3726L16.4857 13.5045C16.2962 13.5045 16.1067 13.5045 15.9172 13.5045L13.4539 12.3726C12.8854 12.184 12.3169 12.7499 12.5064 13.3158L13.6434 15.7681C13.8328 15.9567 13.8328 16.1454 13.6434 16.334Z" fill="#D4E4FF"/>
<path d="M6.25299 41.1225C5.68452 41.1225 5.30554 40.7452 5.30554 40.1793V38.293C5.30554 37.7271 5.68452 37.3498 6.25299 37.3498C6.82147 37.3498 7.20045 37.7271 7.20045 38.293V40.1793C7.20045 40.5566 6.63198 41.1225 6.25299 41.1225Z" fill="#AEC7FF"/>
<path d="M6.25299 49.4224C5.68452 49.4224 5.30554 49.0452 5.30554 48.4792V46.5929C5.30554 46.027 5.68452 45.6497 6.25299 45.6497C6.82147 45.6497 7.20045 46.027 7.20045 46.5929V48.4792C7.20045 49.0452 6.63198 49.4224 6.25299 49.4224Z" fill="#AEC7FF"/>
<path d="M8.5271 43.3863C8.5271 42.8204 8.90608 42.4431 9.47455 42.4431H11.3695C11.9379 42.4431 12.3169 42.8204 12.3169 43.3863C12.3169 43.9522 11.9379 44.3295 11.3695 44.3295H9.47455C8.90608 44.3295 8.5271 43.9522 8.5271 43.3863Z" fill="#AEC7FF"/>
<path d="M0 43.3863C0 42.8204 0.378981 42.4431 0.947452 42.4431H2.84236C3.41083 42.4431 3.78981 42.8204 3.78981 43.3863C3.78981 43.9522 3.41083 44.3295 2.84236 44.3295H0.947452C0.378981 44.3295 0 43.9522 0 43.3863Z" fill="#AEC7FF"/>
</svg>
