<svg height="132" viewBox="0 0 240 132" width="240" xmlns="http://www.w3.org/2000/svg"><g fill="none" fill-rule="evenodd"><path d="m0 95.2603969v.0018321c0 15.38626 12.4732824 27.859542 27.859542 27.859542h185.913893c14.279695 0 25.856489-11.576183 25.856489-25.8564886v-1.8644274c0-14.2803054-11.576794-25.8564886-25.856489-25.8564886h-.000611c-9.76061 0-17.673282-7.9126717-17.673282-17.6732824v-.0018321c0-9.7606107 7.912672-17.6732824 17.673282-17.6732824h6.575878c7.392977 0 13.38626-5.9932825 13.38626-13.3862596v-.0048855c0-7.3929771-5.993283-13.38625951-13.38626-13.38625951h-131.1951142c-16.5636641 0-29.9908397 13.42717561-29.9908397 29.99083971v.0006107c0 16.5636641-13.4271756 29.9908397-29.9908397 29.9908397h-1.3123664c-15.3862596 0-27.859542 12.4732824-27.859542 27.8595419" fill="#f6f6f7" fill-opacity=".9"/><path d="m151.601 115.346h18.23v-2.443h-18.23z" fill="#dcddde"/><g transform="translate(9 .537)"><path d="m164.800366 129.465649v-6.500764h-.696183c-.643053 0-1.239694-.192977-1.746565-.514809v3.962138c0 .337099-.273587.610687-.610687.610687h-34.191145c-.337099 0-.610687-.273588-.610687-.610687v-8.137405h-2.442748v11.19084z" fill="#dcddde"/><path d="m144.498626 117.721527c1.761221 0 3.193893 1.433282 3.193893 3.194504 0 1.761221-1.432672 3.193893-3.193893 3.193893s-3.194504-1.432672-3.194504-3.193893c0-1.761222 1.433283-3.194504 3.194504-3.194504zm9.473588 0c1.761221 0 3.194504 1.433282 3.194504 3.194504 0 1.761221-1.433283 3.193893-3.194504 3.193893-1.761832 0-3.194504-1.432672-3.194504-3.193893 0-1.761222 1.432672-3.194504 3.194504-3.194504zm7.163969 8.08v-4.748703c-.191756-.415877-.305954-.874503-.305954-1.361832v-2.130687-1.529771h-18.229008v1.633588c0 .337099-.273587.610687-.610687.610687h-5.172519c.845191.575267 1.401527 1.544428 1.401527 2.641222 0 1.761221-1.432672 3.193893-3.194504 3.193893-1.761221 0-3.194504-1.432672-3.194504-3.193893 0-1.096794.556336-2.065955 1.401527-2.641222h-5.065649v7.526718z" fill="#f6f6f7"/><path d="m135.025221 122.888855c1.087634 0 1.972519-.884886 1.972519-1.972519 0-1.088244-.884885-1.97313-1.972519-1.97313-1.088244 0-1.973129.884886-1.973129 1.97313 0 1.087633.884885 1.972519 1.973129 1.972519m7.500275-1.972824c0 1.087633.884886 1.972519 1.97313 1.972519 1.087634 0 1.972519-.884886 1.972519-1.972519 0-1.088245-.884885-1.97313-1.972519-1.97313-1.088244 0-1.97313.884885-1.97313 1.97313m11.446535 1.972824c1.088244 0 1.973129-.884886 1.973129-1.972519 0-1.088244-.884885-1.97313-1.973129-1.97313-1.088245 0-1.97313.884886-1.97313 1.97313 0 1.087633.884885 1.972519 1.97313 1.972519m15.496793-27.3079695c-.337099 0-.610687-.2735878-.610687-.610687v-14.6564886c0-.3370992.273588-.610687.610687-.610687h24.427481c.3371 0 .610687.2735878.610687.610687v14.6564886c0 .3370992-.273587.610687-.610687.610687zm12.213741-17.6861069c.337099 0 .610687.2735878.610687.610687 0 .3370993-.273588.6106871-.610687.6106871s-.610687-.2735878-.610687-.6106871c0-.3370992.273588-.610687.610687-.610687zm7.938931 18.9074809h11.683054v-5.3416793c-.585039-.0494657-1.047329-.5361833-1.047329-1.1334352v-1.5193893c-.027481-.0696183-.04519-.1441221-.04519-.2235114v-2.2082443c0-.1361832.053129-.2558779.128244-.3572519.157557-.3920611.525801-.6729771.964275-.710229v-6.0225954c0-1.1322138-.920916-2.0525191-2.052519-2.0525191h-35.156642c-1.131603 0-2.052519.9203053-2.052519 2.0525191v17.5163358h23.692825c.337099 0 .610687.2735878.610687.6106871h2.664427c0-.3370993.273588-.6106871.610687-.6106871z" fill="#fff"/><path d="m180.461 125.872h2.443v-2.907h-2.443z" fill="#fff"/><path d="m175.102 129.334h13.161v-2.24h-13.161z" fill="#dcddde"/><path d="m170.08 94.36h23.206v-13.435h-23.206z" fill="#dcddde"/><path d="m167.399084 105.671511c0-.841526-.685191-1.526717-1.526718-1.526717-.841526 0-1.526717.685191-1.526717 1.526717 0 .841527.685191 1.526718 1.526717 1.526718.841527 0 1.526718-.685191 1.526718-1.526718" fill="#f6f6f7"/><path d="m170.690198 102.298443c0-.337099.273588-.610687.610687-.610687h20.763359c.3371 0 .610687.273588.610687.610687v14.656488c0 .3371-.273587.610687-.610687.610687h-20.763359c-.337099 0-.610687-.273587-.610687-.610687zm28.469008 6.498931c-.674809 0-1.221374-.547176-1.221374-1.221374 0-.674809.546565-1.221374 1.221374-1.221374.674199 0 1.221374.546565 1.221374 1.221374 0 .674198-.547175 1.221374-1.221374 1.221374zm-2.137404 2.137405c-.67481 0-1.221375-.547176-1.221375-1.221374 0-.67481.546565-1.221374 1.221375-1.221374.674198 0 1.221374.546564 1.221374 1.221374 0 .674198-.547176 1.221374-1.221374 1.221374zm-1.221375-5.496184c0-.674809.546565-1.221374 1.221375-1.221374.674198 0 1.221374.546565 1.221374 1.221374 0 .674199-.547176 1.221374-1.221374 1.221374-.67481 0-1.221375-.547175-1.221375-1.221374zm-.91603 3.358779c-.674809 0-1.221374-.547176-1.221374-1.221374 0-.674809.546565-1.221374 1.221374-1.221374.674198 0 1.221374.546565 1.221374 1.221374 0 .674198-.547176 1.221374-1.221374 1.221374zm-17.494962 12.037252h-.712672c-.337099 0-.610687-.273588-.610687-.610687 0-.33771.273588-.610687.610687-.610687h.712672c.337099 0 .610687.272977.610687.610687 0 .337099-.273588.610687-.610687.610687zm-14.265038-15.163359c0-1.515114 1.232366-2.748091 2.748092-2.748091 1.515114 0 2.748091 1.232977 2.748091 2.748091 0 1.515725-1.232977 2.748092-2.748091 2.748092-1.515726 0-2.748092-1.232367-2.748092-2.748092zm6.39145 7.68c0 .16855-.136794.305344-.305343.305344h-1.221374c-.16855 0-.305344.136794-.305344.305343v1.221374c0 .16855-.136794.305344-.305343.305344h-1.221374c-.16855 0-.305344-.136794-.305344-.305344v-1.221374c0-.168549-.136794-.305343-.305343-.305343h-1.221374c-.16855 0-.305344-.136794-.305344-.305344v-1.221374c0-.168549.136794-.305343.305344-.305343h1.221374c.168549 0 .305343-.136794.305343-.305344v-1.221374c0-.16855.136794-.305343.305344-.305343h1.221374c.168549 0 .305343.136793.305343.305343v1.221374c0 .16855.136794.305344.305344.305344h1.221374c.168549 0 .305343.136794.305343.305343zm-7.464427 4.208855c0 1.132214.920916 2.05313 2.05313 2.05313h9.722748c.337099 0 .610687.272977.610687.610687 0 .337099-.273588.610687-.610687.610687h-9.722748c-.757863 0-1.447329-.269313-2.002443-.702901.202137.919695 1.021679 1.611603 2.002443 1.611603h32.611908v-.908702h-14.423206c-.337099 0-.610687-.273588-.610687-.610687 0-.33771.273588-.610687.610687-.610687h14.423206v-6.636336c0-.337099.272977-.610687.610687-.610687h3.986565v-9.487023-2.412824h-39.26229v2.412824z" fill="#fff"/><path d="m171.912 116.344h19.542v-13.435h-19.542z" fill="#dcddde"/><path d="m160.919206 99.2450076h41.526718c.336488 0 .610687-.2741984.610687-.610687 0-.3364885-.274199-.610687-.610687-.610687h-12.824428c-.337099 0-.610687-.2735878-.610687-.610687h-2.664427c0 .3370992-.273588.610687-.610687.610687h-24.816489c-.336488 0-.610687.2741985-.610687.610687 0 .3364886.274199.610687.610687.610687" fill="#dcddde"/><path d="m206.091847 113.587786h-8.154503v12.824428c0 1.683664 1.370381 3.053435 3.053435 3.053435h7.328244c1.683664 0 3.053435-1.369771 3.053435-3.053435v-12.824428h-2.914809c-.33771 0-.610687-.273588-.610687-.610687h-1.144428c0 .337099-.273587.610687-.610687.610687" fill="#f6f6f7"/><path d="m79.094 43.673h2.443v-2.013h-2.443z" fill="#dcddde"/><path d="m80.3156641 33.3939542c1.5633588 0 2.8354199 1.2720611 2.8354199 2.8354198 0 1.5633588-1.2720611 2.8354199-2.8354199 2.8354199s-2.8354198-1.2720611-2.8354198-2.8354199c0-1.5633587 1.272061-2.8354198 2.8354198-2.8354198m4.2094657 6.1722137v-7.5462595h-8.4189313v8.4189313h7.5462595c.4818321 0 .8726718-.3908397.8726718-.8726718" fill="#dcddde"/><path d="m80.3156641 37.8432366c.8903817 0 1.6140458-.7242748 1.6140458-1.6140458s-.7236641-1.6140458-1.6140458-1.6140458c-.889771 0-1.6140458.7242748-1.6140458 1.6140458s.7242748 1.6140458 1.6140458 1.6140458" fill="#fff"/><path d="m71.766 122.269h20.152v-3.994h-20.152z" fill="#f6f6f7"/><path d="m141.99 43.771v-.098h-59.231-1.222-2.443-1.221-58.01v.098z" fill="#dcddde"/><path d="m135.272733 110.946443v-59.8473285h-108.6925193v27.4876336c2.8916031-1.9108397 6.3529771-3.0271756 10.0708397-3.0271756 10.1019848 0 18.3206107 8.218626 18.3206107 18.3206107 0 7.7569468-4.8482443 14.3981678-11.6714504 17.0662598z" fill="#fff"/><path d="m112.612 125.322h2.442v-1.832h-3.664v1.832z" fill="#fff"/><path d="m113.222412 126.543389v1.832061c0 .674199.547176 1.221374 1.221374 1.221374h1.221374c.674199 0 1.221374-.547175 1.221374-1.221374v-1.832061z" fill="#fff"/><path d="m52.774 123.49v1.832h2.443 7.389 10.992 3.272 6.211 10.054 6.107 10.927v-1.832z" fill="#dcddde"/><path d="m55.8276641 129.596824h7.3887023 10.9923664 18.3157252 6.1068702 12.1483968c.674199 0 1.221374-.547175 1.221374-1.221374v-1.832061h-13.3697708-6.1068702-9.4430534-6.2112977-2.6613741-10.9923664-7.3887023-4.8854962v1.832061c0 .674199.5471756 1.221374 1.2213741 1.221374z" fill="#fff"/><path d="m207.535634 23.4419542c1.011908 0 1.832061.8201527 1.832061 1.8320611v25.6488549c0 1.0119084-.820153 1.8320611-1.832061 1.8320611h-28.091603c-1.011909 0-1.832062-.8201527-1.832062-1.8320611v-25.6488549c0-1.0119084.820153-1.8320611 1.832062-1.8320611zm-4.885497-3.0534351h-26.259542c-1.011908 0-1.832061.8201527-1.832061 1.8320611v31.7557251c0 1.0119084.820153 1.8320611 1.832061 1.8320611h34.198474c1.011908 0 1.832061-.8201527 1.832061-1.8320611v-31.7557251c0-1.0119084-.820153-1.8320611-1.832061-1.8320611h-4.966718c-.337099 0-.610687-.2735878-.610687-.610687h-1.75084c.000611.3370992-.272977.610687-.610687.610687z" fill="#dcddde"/><path d="m191.271328 41.4774962c0-1.5267176 1.242138-2.7682443 2.768245-2.7682443 1.526717 0 2.768244 1.2415267 2.768244 2.7682443v1.4796946c0 1.5261069-1.241527 2.7682443-2.768244 2.7682443-1.526107 0-2.768245-1.2421374-2.768245-2.7682443zm7.022901-.5905344c0-1.2012213.977099-2.1777099 2.17771-2.1777099 1.201221 0 2.178321.9764886 2.178321 2.1777099v2.6607634c0 1.2006107-.9771 2.1777099-2.178321 2.1777099-1.200611 0-2.17771-.9770992-2.17771-2.1777099zm-15.796641 6.6705344c.337099 0 .610687.2729771.610687.610687v.4580153c0 .3370992-.273588.610687-.610687.610687v2.2967939h21.374046v-12.2137405c0-5.7245801-4.6571-10.3816794-10.38168-10.3816794s-10.381679 4.6570993-10.381679 10.3816794v6.6345038c0 .3370993-.273588.6106871-.610687.6106871z" fill="#f6f6f7"/><path d="m200.472183 44.5041221c.527634 0 .956336-.4293129.956336-.9563358v-2.6607634c0-.5276336-.428702-.9563359-.956336-.9563359-.527633 0-.956336.4287023-.956336.9563359v2.6607634c0 .5270229.428703.9563358.956336.9563358m-6.432488 0c.853129 0 1.54687-.6937404 1.54687-1.5468702v-1.4796946c0-.8531298-.693741-1.5468703-1.54687-1.5468703-.85313 0-1.546871.6937405-1.546871 1.5468703v1.4796946c0 .8531298.693741 1.5468702 1.546871 1.5468702m-82.355359-18.042687c-4.913588.5764886-6.727328 2.429313-7.122443 2.9135878v1.8430534h2.366412zm50.282076-.6274198c-1.926107.4512977-7.364275 1.6256488-14.321832 2.2955725l2.982596 3.0882443h11.339236z" fill="#fff"/><path d="m129.143 10.731-20.488 20.487h40.274z" fill="#dcddde"/><path d="m17.787 99.433-6.03-5.566v5.566z" fill="#fff"/><path d="m11.7568244 92.2048244 7.287939 6.7273283c-.4616794-1.6061069-.7138932-3.299542-.7138932-5.0522138 0-.3865649.0158779-.7694656.0396947-1.1505343l-5.020458-4.6338931c-.9770993.9032061-1.5932825 2.1905343-1.5932825 3.6232061zm7.1597558-5.4261374h-2.2204581c-.8439694 0-1.6384732.2137405-2.3340458.5880916l4.1648855 3.8448855c.2229008-1.5212214.6332825-2.9825954 1.2073283-4.3590839-.2668703-.0451909-.538626-.0738932-.8177099-.0738932" fill="#fff"/><path d="m23.8563053 128.133618c0-.734656-.5978626-1.331908-1.3319084-1.331908h-9.4357251c-.7340458 0-1.3319084.597252-1.3319084 1.331908 0 .734657.5978626 1.331909 1.3319084 1.331909h9.4357251c.7340458 0 1.3319084-.597252 1.3319084-1.331909m-6.0498931-24.211236c2.1734351 0 3.9413741 1.767939 3.9413741 3.940763s-1.767939 3.940763-3.9413741 3.940763c-2.1728244 0-3.9407633-1.767939-3.9407633-3.940763s1.7679389-3.940763 3.9407633-3.940763m-3.3300763 12.685191h6.6607633c2.41771 0 4.3841222-1.967023 4.3841222-4.384733v-3.80458c-2.6015267-1.996336-4.6522138-4.673588-5.8870229-7.763665h-9.0430535c-.2754198 0-.4995419.224123-.4995419.499542v11.068703c0 2.41771 1.9670229 4.384733 4.3847328 4.384733m24.8943511-4.610016c-.8879389.132519-1.7954198.203359-2.7193893.203359s-1.8320611-.07084-2.7193893-.203359v2.250382h5.4387786z" fill="#dcddde"/><path d="m36.6512366 108.231145c-7.9132824 0-14.351145-6.437863-14.351145-14.351145 0-7.9132824 6.4378626-14.351145 14.351145-14.351145 1.1853436 0 2.3645802.1447328 3.5041222.431145.3267175.0818321.5258015.4140458.4433588.7407634-.0018321.0061068-.0054962.009771-.0073283.0152671.8061069.2406107 1.5810687.5551145 2.3175573.9325191.0030534-.0054962.0024427-.011603.0054961-.0170992.1673283-.2937405.5398474-.3963359.8329771-.228397.5276336.3010687 1.0430535.64 1.5309924 1.0076336.269313.2027481.3236641.5856489.120916.8549619-.0030534.0036641-.0079389.0048855-.0109923.0091603.3468702.2864122.6790839.5893129.9966412.9080916.0036641-.0036642.0048855-.0085497.0085496-.0116031.2491603-.2271756.6357252-.2094656.8622901.0396947 2.4158779 2.6473282 3.7465649 6.081832 3.7465649 9.6690076 0 7.913282-6.4378626 14.351145-14.3511451 14.351145m17.0992367-14.351145c0-9.4283969-7.6708397-17.0992366-17.0992367-17.0992366-9.4283969 0-17.0992366 7.6708397-17.0992366 17.0992366 0 9.428397 7.6708397 17.099237 17.0992366 17.099237 9.428397 0 17.0992367-7.67084 17.0992367-17.099237" fill="#f6f6f7"/><g fill="#b9bbbe"><path d="m144.498626 118.942901c1.087634 0 1.972519.884885 1.972519 1.97313 0 1.087633-.884885 1.972519-1.972519 1.972519-1.088244 0-1.97313-.884886-1.97313-1.972519 0-1.088245.884886-1.97313 1.97313-1.97313m0 5.167023c1.761221 0 3.193893-1.432672 3.193893-3.193893 0-1.761222-1.432672-3.194504-3.193893-3.194504s-3.194504 1.433282-3.194504 3.194504c0 1.761221 1.433283 3.193893 3.194504 3.193893m9.473405-5.167023c1.088244 0 1.973129.884885 1.973129 1.97313 0 1.087633-.884885 1.972519-1.973129 1.972519-1.088245 0-1.97313-.884886-1.97313-1.972519 0-1.088245.884885-1.97313 1.97313-1.97313m0 5.167023c1.761221 0 3.194503-1.432672 3.194503-3.193893 0-1.761222-1.433282-3.194504-3.194503-3.194504-1.761222 0-3.194504 1.433282-3.194504 3.194504 0 1.761221 1.433282 3.193893 3.194504 3.193893m27.710534-44.9940767c.337099 0 .610687-.2729771.610687-.610687 0-.3370992-.273588-.610687-.610687-.610687s-.610687.2735878-.610687.610687c0 .3377099.273588.610687.610687.610687m10.992366 15.2436642h-21.984733c-.337099 0-.610687-.2735878-.610687-.6106871v-12.2137404c0-.3370993.273588-.6106871.610687-.6106871h21.984733c.3371 0 .610687.2735878.610687.6106871v12.2137404c0 .3370993-.273587.6106871-.610687.6106871m1.832061.610687v-14.6564886c0-.3370992-.273587-.610687-.610687-.610687h-24.427481c-.337099 0-.610687.2735878-.610687.610687v14.6564886c0 .3370992.273588.610687.610687.610687h24.427481c.3371 0 .610687-.2735878.610687-.610687m-17.117435 24.6427485h-.712672c-.337099 0-.610687.273587-.610687.610687 0 .337099.273588.610687.610687.610687h.712672c.337099 0 .610687-.273588.610687-.610687 0-.3371-.273588-.610687-.610687-.610687m-13.043908-13.941436c0-.841526.685191-1.526717 1.526717-1.526717.841527 0 1.526718.685191 1.526718 1.526717 0 .841527-.685191 1.526718-1.526718 1.526718-.841526 0-1.526717-.685191-1.526717-1.526718m4.274809 0c0-1.515114-1.232977-2.748091-2.748092-2.748091-1.515114 0-2.748091 1.232977-2.748091 2.748091 0 1.515115 1.232977 2.748092 2.748091 2.748092 1.515115 0 2.748092-1.232977 2.748092-2.748092m.284458 6.1531c-.674198 0-1.221374-.547176-1.221374-1.221374 0-.3371-.272977-.610687-.610687-.610687h-.610687c-.337099 0-.610687.273587-.610687.610687 0 .674198-.546565 1.221374-1.221374 1.221374-.337099 0-.610687.273587-.610687.610687v.610687c0 .337099.273588.610687.610687.610687.674809 0 1.221374.547175 1.221374 1.221374 0 .337099.273588.610687.610687.610687h.610687c.33771 0 .610687-.273588.610687-.610687 0-.674199.547176-1.221374 1.221374-1.221374.33771 0 .610687-.273588.610687-.610687v-.610687c0-.3371-.272977-.610687-.610687-.610687m28.116702-5.164886c.674199 0 1.221374-.547175 1.221374-1.221374 0-.674198-.547175-1.221374-1.221374-1.221374-.674809 0-1.221374.547176-1.221374 1.221374 0 .674199.546565 1.221374 1.221374 1.221374m0 1.832061c-.674809 0-1.221374.547176-1.221374 1.221374 0 .674199.546565 1.221374 1.221374 1.221374.674199 0 1.221374-.547175 1.221374-1.221374 0-.674198-.547175-1.221374-1.221374-1.221374m2.137405.305344c.674198 0 1.221374-.547176 1.221374-1.221374 0-.674199-.547176-1.221374-1.221374-1.221374-.674809 0-1.221374.547175-1.221374 1.221374 0 .674198.546565 1.221374 1.221374 1.221374m-4.274809 0c.674198 0 1.221374-.547176 1.221374-1.221374 0-.674199-.547176-1.221374-1.221374-1.221374-.674809 0-1.221374.547175-1.221374 1.221374 0 .674198.546565 1.221374 1.221374 1.221374m-4.652031 6.935817h-17.099236c-.674199 0-1.221374-.546565-1.221374-1.221374v-10.991756c0-.337099.273587-.610687.610687-.610687h18.32061c.337099 0 .610687.273588.610687.610687v10.991756c0 .674809-.547175 1.221374-1.221374 1.221374m2.442748 1.221984v-14.656488c0-.337099-.273587-.610687-.610687-.610687h-20.763359c-.337099 0-.610687.273588-.610687.610687v14.656488c0 .3371.273588.610687.610687.610687h20.763359c.3371 0 .610687-.273587.610687-.610687m31.449466 12.510718h-1.077863c-.337099 0-.610687.273588-.610687.610687s.273588.610687.610687.610687h1.077863c.337099 0 .610687-.273588.610687-.610687s-.273588-.610687-.610687-.610687m-143.8087329-91.6224124c-.889771 0-1.6140458-.7242748-1.6140458-1.6140458s.7242748-1.6140458 1.6140458-1.6140458c.8903817 0 1.6140458.7242748 1.6140458 1.6140458s-.7236641 1.6140458-1.6140458 1.6140458m0-4.4494656c-1.5633588 0-2.8354198 1.2720611-2.8354198 2.8354198 0 1.5633588 1.272061 2.8354199 2.8354198 2.8354199s2.8354199-1.2720611 2.8354199-2.8354199c0-1.5633587-1.2720611-2.8354198-2.8354199-2.8354198m94.8535569 23.6359695h36.641222c1.011908 0 1.832061-.8201527 1.832061-1.8320611v-34.1984733c0-1.0119084-.820153-1.8320611-1.832061-1.8320611h-6.188092c-.337099 0-.610687.2735878-.610687.6106871 0 .3370992.273588.610687.610687.610687h4.966718c1.011908 0 1.832061.8201527 1.832061 1.8320611v31.7557251c0 1.0119084-.820153 1.8320611-1.832061 1.8320611h-34.198474c-1.011908 0-1.832061-.8201527-1.832061-1.8320611v-31.7557251c0-1.0119084.820153-1.8320611 1.832061-1.8320611h26.259542c.33771 0 .610687-.2735878.610687-.610687 0-.3370993-.272977-.6106871-.610687-.6106871h-27.480916c-1.011908 0-1.832061.8201527-1.832061 1.8320611v34.1984733c0 1.0119084.820153 1.8320611 1.832061 1.8320611"/><path d="m180.665405 24.6633282h25.648855c1.011908 0 1.832061.8201527 1.832061 1.8320611v17.7056489c0 1.0119084-.820153 1.832061-1.832061 1.832061-.674199 0-1.221375-.5465648-1.221375-1.221374v-5.2067176c0-6.2833587-4.876335-11.6421374-11.155419-11.8796946-6.600916-.249771-12.050687 5.0479389-12.050687 11.5945038v6.6345038c0 .3370992.273587.610687.610687.610687.337099 0 .610687-.2735878.610687-.610687v-6.3596946c0-5.8070229 4.751755-10.7523665 10.558168-10.6552672 5.643358.0946565 10.20519 4.7151145 10.20519 10.380458v9.7709924c0 1.3490076-1.09374 2.4427481-2.442748 2.4427481h-18.931297-1.832061c-1.011909 0-1.832061-.8201527-1.832061-1.8320611v-23.2061069c0-1.0119084.820152-1.8320611 1.832061-1.8320611m-3.053436.6106871v25.6488549c0 1.0119084.820153 1.8320611 1.832062 1.8320611h28.091603c1.011908 0 1.832061-.8201527 1.832061-1.8320611v-25.6488549c0-1.0119084-.820153-1.8320611-1.832061-1.8320611h-28.091603c-1.011909 0-1.832062.8201527-1.832062 1.8320611"/><path d="m183.108153 48.6262595v-.4580152c0-.3377099-.273588-.610687-.610687-.610687-.3371 0-.610687.2729771-.610687.610687v.4580152c0 .3370993.273587.6106871.610687.6106871.337099 0 .610687-.2735878.610687-.6106871m16.40745-7.7394809c0-.5270229.429313-.9563359.956336-.9563359.527634 0 .956946.429313.956946.9563359v2.6607634c0 .5276336-.429312.9563359-.956946.9563359-.527023 0-.956336-.4287023-.956336-.9563359zm.956336 4.8384733c1.201221 0 2.178321-.9770992 2.178321-2.1777099v-2.6607634c0-1.2006107-.9771-2.1777099-2.178321-2.1777099-1.200611 0-2.17771.9770992-2.17771 2.1777099v2.6607634c0 1.2006107.977099 2.1777099 2.17771 2.1777099zm-7.979237-4.2477557c0-.8531298.693741-1.5468702 1.546871-1.5468702.853129 0 1.54687.6937404 1.54687 1.5468702v1.4796946c0 .8531298-.693741 1.5468703-1.54687 1.5468703-.85313 0-1.546871-.6937405-1.546871-1.5468703zm1.546871 4.2479389c1.526717 0 2.768244-1.2421374 2.768244-2.7682443v-1.4796946c0-1.5267176-1.241527-2.7682443-2.768244-2.7682443-1.526107 0-2.768245 1.2415267-2.768245 2.7682443v1.4796946c0 1.5261069 1.242138 2.7682443 2.768245 2.7682443zm-94.3632371-9.0114809h11.8485491c.33771 0 .610688-.2735878.610688-.610687 0-.3370993-.272978-.610687-.610688-.610687h-8.795114c-1.349008 0-2.442748-1.0937405-2.442748-2.4427481v-29.31236645c0-1.34900763 1.09374-2.44274809 2.442748-2.44274809h61.068702c1.349008 0 2.442748 1.09374046 2.442748 2.44274809v29.31236645c0 1.3490076-1.09374 2.4427481-2.442748 2.4427481h-44.105649c-.337099 0-.610687.2735877-.610687.610687 0 .3370992.273588.610687.610687.610687h47.159084c.3371 0 .610687-.2735878.610687-.610687v-35.41923667c0-.33709923-.273587-.61068702-.610687-.61068702h-67.1755721c-.3370993 0-.610687.27358779-.610687.61068702v35.41923667c0 .3370992.2735877.610687.610687.610687"/><path d="m116.181313 35.4925802c-.337099 0-.610687.2735877-.610687.610687 0 .3370992.273588.610687.610687.610687h1.336183c.337099 0 .610687-.2735878.610687-.610687 0-.3370993-.273588-.610687-.610687-.610687zm26.59829-20.2409161c-.354809.0659542-.71084.1355725-1.068702.2070229-.68458.1361832-1.380764.310229-2.127023.530687-.323664.0958779-.508092.4354199-.412825.759084.078779.2656489.321832.4372519.585649.4372519.057405 0 .11542-.0079389.173435-.0250381.71084-.2100764 1.371603-.3749619 2.019542-.5044275.352977-.070229.704123-.138626 1.054046-.2039695.331603-.0622901.550229-.3810687.48855-.7126717-.06229-.3316031-.382901-.5508397-.712672-.487939"/><path d="m161.966412 11.8371298c-7.554809-2.41954201-16.504427-1.2183206-25.025343.8653435-2.104428.5141985-4.323664-.1319084-5.829008-1.6909924l-1.523053-1.57618319c-.113588-.1178626-.269924-.18503817-.433588-.18625954-.185038-.0189313-.321222.06290076-.437252.1789313l-4.213741 4.21374043c-2.305954 2.3053435-5.56458 3.4070229-8.79145 2.9422901-5.792366-.8335878-10.103206-3.5163359-11.151145-4.2192366v-5.5737405c0-.67419847.547176-1.22137405 1.221374-1.22137405h54.961832c.674199 0 1.221374.54717558 1.221374 1.22137405zm0 7.0528244c-6.152672-4.7670229-11.774046-4.7676336-16.946565-4.0146565-.333435.0482443-.564885.3584733-.51603.6919084.048244.3340458.360916.5630534.692519.5166412 4.752977-.6919084 9.900458-.7151145 15.501069 3.3807634.808549.591145 1.269007 1.5474809 1.269007 2.5490076 0 1.5285496-1.083969 2.8299237-2.582595 3.1340458-1.962138.3987786-4.774962.6167939-8.129466.8720611-2.991145.2277863-5.93832-.848855-8.075725-2.9532825l-8.625344-8.4909923c7.769771-2.0696183 16.05313-3.6250382 23.314199-2.4549619 2.36458.3810688 4.098931 2.4305344 4.098931 4.8256489zm-1.221374 12.3279389h-7.785038c-1.490687 0-2.917863-.6058015-3.953588-1.6781679l-1.361832-1.4100763c5.629313-.5416794 10.264428-1.4143512 12.848855-1.9664123.760305-.1624427 1.472977.41771 1.472977 1.1951145v2.638168c0 .6741985-.547175 1.221374-1.221374 1.221374zm-51.047328-1.0424427 16.80855-16.8085496c1.448549-1.4485497 3.803358-1.4277863 5.226259.0458015l16.197252 16.7700763c.37374.3877863.099542 1.0351145-.439695 1.0351145h-37.36061c-.543512 0-.816489-.6577099-.431756-1.0424427zm-5.135878-.1789313c0-.4396947.18687-.8574046.520916-1.1432061.876336-.7499237 2.821374-1.9487023 6.601527-2.3920611l-4.313283 4.3138931c-.283358.2833588-.668091.4427481-1.068702.4427481h-.519084c-.674198 0-1.221374-.5471755-1.221374-1.221374zm0-14.0720611c0-.9129771.967328-1.5096183 1.777099-1.0876336 2.72855 1.4229008 7.273893 3.239084 12.698016 3.239084.348702 0 .7029-.0103817 1.058931-.0262595l-.982596.9832061c-1.68061 1.68-4.076335 2.4653435-6.414656 2.0415267-2.363359-.4274809-4.268702-.9801527-5.695267-1.4839695-.317557-.1129771-.667481.0537405-.779237.3719084-.112366.3181679.054351.6668702.371909.7798473 2.030534.7175573 4.99603 1.529771 8.838473 1.9694657l-2.399389 2.3987786c-3.10168.1752672-5.262291.8158779-6.7371 1.5193893-.807328.3853435-1.736183-.210687-1.736183-1.1053435zm58.625954 15.9041222v-26.86961837c0-.33709923-.273588-.61068702-.610687-.61068702h-58.625954c-.337099 0-.610687.27358779-.610687.61068702v26.86961837c0 .3370992.273588.610687.610687.610687h58.625954c.337099 0 .610687-.2735878.610687-.610687zm-156.10894631 32.9003969h.31145039c.33709923 0 .61068702.2735878.61068702.610687v.3114504c0 .3370992.27358779.610687.61068702.610687.33770993 0 .61068703-.2735878.61068703-.610687v-.3114504c0-.3377099.27358778-.610687.61068702-.610687h.31145033c.3370993 0 .6106871-.2735878.6106871-.610687 0-.3377099-.2735878-.610687-.6106871-.610687h-.31145033c-.33709924 0-.61068702-.2735878-.61068702-.6106871v-.3114504c0-.3370992-.2729771-.610687-.61068703-.610687-.33709923 0-.61068702.2735878-.61068702.610687v.3114504c0 .3370993-.27358779.6106871-.61068702.6106871h-.31145039c-.33709923 0-.61068702.2735877-.61068702.610687 0 .3370992.27358779.610687.61068702.610687m49.15047331-59.77099237h.9221374v.92213741c0 .33770992.2735878.61068702.610687.61068702s.610687-.2729771.610687-.61068702v-.92213741h.9221374c.3370993 0 .6106871-.27358778.6106871-.61068702s-.2735878-.61068702-.6106871-.61068702h-.9221374v-.92213741c0-.33709923-.2735878-.61068702-.610687-.61068702s-.610687.27358779-.610687.61068702v.92213741h-.9221374c-.3370993 0-.610687.27358778-.610687.61068702s.2735877.61068702.610687.61068702m-16.6760916 17.64549617c.1563359 0 .3126717-.0598473.4317557-.1789313l.7224427-.7224427c.2387787-.2387787.2387787-.6253435 0-.8635115-.2381679-.2387786-.6247328-.2387786-.8635114 0l-.7224428.7224428c-.2387786.2387786-.2387786.6247328 0 .8635114.119084.119084.2754199.1789313.4317558.1789313m-3.6128855 3.6128244c.1563359 0 .3126717-.0598473.4317557-.1789313l.7224428-.7224427c.2387786-.2387786.2387786-.6253435 0-.8635115-.238168-.2387786-.6247329-.2387786-.8635115 0l-.7224427.7224428c-.2387787.2387786-.2387787.6247328 0 .8635114.1190839.119084.2754198.1789313.4317557.1789313m3.9035725-.1789313c.119084.119084.2754198.1789313.4317557.1789313s.3126718-.0598473.4317557-.1789313c.2387787-.2387786.2387787-.6247328 0-.8635114l-.7224427-.7224428c-.2387786-.2387786-.6247328-.2387786-.8635115 0-.2387786.238168-.2387786.6247329 0 .8635115zm-3.6128244-3.6128244c.1190839.119084.2754198.1789313.4317557.1789313s.3126718-.0598473.4317557-.1789313c.2387786-.2387786.2387786-.6247328 0-.8635114l-.7224427-.7224428c-.2387787-.2387786-.6247329-.2387786-.8635115 0-.2387786.238168-.2387786.6247328 0 .8635115zm127.940153 34.757313c-.238779-.2387786-.625344-.2387786-.863512 0l-.722443.7230534c-.238778.238168-.238778.6253435 0 .8635115.119084.119084.27542.1789313.431756.1789313s.312672-.0598473.431756-.1789313l.722443-.7230535c.238778-.2387786.238778-.6253435 0-.8635114m-4.476397 3.6131298-.722443.7224427c-.238779.2387786-.238779.6253435 0 .8635115.119084.1190839.27542.1789313.431756.1789313s.312671-.0598474.431755-.1789313l.722443-.7224428c.238779-.2387786.238779-.6247328 0-.8635114-.238778-.2387787-.624733-.2387787-.863511 0m3.753893 0c-.238779-.2387787-.624733-.2387787-.863512 0-.238778.2387786-.238778.6247328 0 .8635114l.722443.7224428c.119084.1190839.27542.1789313.431756.1789313s.312672-.0598474.431756-.1789313c.238778-.238168.238778-.6247329 0-.8635115zm-2.890321-2.8903817-.722443-.7230534c-.238778-.238168-.625343-.238168-.863511 0-.238779.2387786-.238779.6253435 0 .8635114l.722443.7230534c.119084.119084.27542.1789313.431755.1789313.156336 0 .312672-.0598473.431756-.1789313.238779-.2381679.238779-.6247328 0-.8635114m-87.8191143-43.1876031c.5087023 0 .9221374.4134351.9221374.9221374 0 .5080916-.4134351.9221374-.9221374.9221374s-.9221374-.4140458-.9221374-.9221374c0-.5087023.4134351-.9221374.9221374-.9221374m0 3.0656489c1.1822901 0 2.1435115-.9618321 2.1435115-2.1435115s-.9612214-2.1435114-2.1435115-2.1435114c-1.1816794 0-2.1435114.961832-2.1435114 2.1435114s.961832 2.1435115 2.1435114 2.1435115m-54.9328855 87.3610995c1.4998473 0 2.72 1.220152 2.72 2.719389 0 1.499847-1.2201527 2.719389-2.72 2.719389s-2.7193893-1.219542-2.7193893-2.719389c0-1.499237 1.219542-2.719389 2.7193893-2.719389m0 6.660152c2.1734351 0 3.9413741-1.767939 3.9413741-3.940763s-1.767939-3.940763-3.9413741-3.940763c-2.1728244 0-3.9407633 1.767939-3.9407633 3.940763s1.7679389 3.940763 3.9407633 3.940763m18.8448244-3.572763c7.9132825 0 14.3511451-6.437863 14.3511451-14.351145 0-3.5871756-1.330687-7.0216794-3.7465649-9.6690076-.2265649-.2491603-.6131298-.2668703-.8622901-.0396947-.0036641.0030534-.0048855.0079389-.0085496.0116031-.2393893.2283969-.2552672.6051908-.031145.850687 2.2100763 2.4225954 3.4271755 5.5639695 3.4271755 8.8464122 0 7.239695-5.8900763 13.129771-13.129771 13.129771-7.2396946 0-13.129771-5.890076-13.129771-13.129771 0-7.2396947 5.8900764-13.129771 13.129771-13.129771 1.0851909 0 2.1642749.1325191 3.2061069.3945038.3212214.0787787.6448855-.1117557.7340458-.4287023.0018321-.0054961.0054962-.0091603.0073283-.0152671.0824427-.3267176-.1166413-.6589313-.4433588-.7407634-1.139542-.2864122-2.3187786-.431145-3.5041222-.431145-7.9132824 0-14.351145 6.4378626-14.351145 14.351145 0 7.913282 6.4378626 14.351145 14.351145 14.351145"/><path d="m43.1427786 82.4642443c.4830535.2754198.9538932.5856488 1.4009161.9221374.1105343.0830534.2393893.1227481.3670229.1227481.1807633 0 .3572519-.0824428.4775572-.2345038.0030534-.0036642.0079389-.0048855.0109924-.0091604.2027481-.2693129.1483969-.6522137-.1203054-.8549618-.4885496-.3676336-1.0039694-.7065649-1.531603-1.0070229-.2931298-.1685496-.6656489-.0653435-.8329771.2277863-.0030535.0054962-.0024428.011603-.0054962.0170992-.1538931.290687-.0537405.6516031.2338931.8158779"/><path d="m189.484336 128.854962v-2.372519c0-.337099-.273588-.610687-.610687-.610687h-3.295267c-.802443 0-1.452825-.650382-1.452825-1.453435 0-.803054.650382-1.453436 1.452825-1.453436h11.13771v3.447329c0 .785343.213129 1.52061.585038 2.153282.233893.398779-.073893.900153-.536794.900153h-6.669313c-.337099 0-.610687-.273588-.610687-.610687zm-14.38229.479389h13.160916v-2.240611h-13.160916zm-1.221374-2.851908v2.372519c0 .337099-.273588.610687-.610687.610687h-7.248245v-6.500764h11.764886c.802443 0 1.453435.650382 1.453435 1.453436 0 .803053-.650992 1.453435-1.453435 1.453435h-3.295267c-.337099 0-.610687.273588-.610687.610687zm9.023511-2.90687v1.685496c0 .337099-.273588.610687-.610687.610687h-1.221374c-.33771 0-.610687-.273588-.610687-.610687v-1.685496c0-.3371.272977-.610688.610687-.610688h1.221374c.337099 0 .610687.273588.610687.610688zm-18.8-1.832062c-.980152 0-1.799694-.691908-2.002443-1.612213.555726.433587 1.245191.7029 2.002443.7029h9.723359c.337099 0 .610687-.273587.610687-.610687 0-.337099-.273588-.610687-.610687-.610687h-9.723359c-1.133435 0-2.052519-.919084-2.052519-2.052519v-14.680916-1.19145c0-.674809.547176-1.221374 1.221374-1.221374h36.818931c.67481 0 1.221375.546565 1.221375 1.221374v1.19145 8.265649c0 .674199-.546565 1.221374-1.221375 1.221374h-2.76519c-.3371 0-.610687.273588-.610687.610687v6.635725h-14.422596c-.337099 0-.610687.273588-.610687.610687 0 .3371.273588.610687.610687.610687h14.422596v.909313zm-.525191 7.722138h-37.855267c-.674198 0-1.221374-.547176-1.221374-1.221374v-8.748092c0-.674809.547176-1.221374 1.221374-1.221374.674809 0 1.221374.546565 1.221374 1.221374v6.916031c0 .337099.273588.610687.610687.610687h34.191145c.3371 0 .610687-.273588.610687-.610687v-2.259542c0-.74626.659542-1.287328 1.401527-1.206718.113588.012825.229008.018931.345038.018931h.696183v5.27939c0 .674198-.546564 1.221374-1.221374 1.221374zm-40.298015 0h-3.951756c-.674198 0-1.221374-.547176-1.221374-1.221374v-2.311451c0-.337099-.273587-.610687-.610687-.610687h-1.221374v-2.442748c0-.337099-.273588-.610687-.610687-.610687h-4.885496-14.8671755c-1.5309924 0-2.7725191-1.241526-2.7725191-2.772519v-.610687c0-.337099.2735878-.610687.610687-.610687h29.5303816zm-7.615878.131298h-1.221374c-.674198 0-1.221374-.547176-1.221374-1.221374v-1.832062h3.664122v1.832062c0 .674198-.546565 1.221374-1.221374 1.221374zm-4.274809-4.27481v-.610687c0-.674809.547176-1.221374 1.221374-1.221374h1.221374c.674809 0 1.221374.546565 1.221374 1.221374v.610687h-2.442748zm-.610687 4.27481h-58.6161832c-.6741984 0-1.221374-.547176-1.221374-1.221374v-1.832062h61.0589312v1.832062c0 .674198-.546565 1.221374-1.221374 1.221374zm-61.0589312-3.664123v2.311451c0 .674198-.5465649 1.221374-1.2213741 1.221374h-22.1129771c-.5874809 0-1.0912977-.41771-1.2006107-.994199l-.1294656-.686412c-.2418321-1.278778-1.3593893-2.20458-2.6601527-2.20458h-.0006107c-.6644275 0-1.2030534-.538626-1.2030534-1.203664v-1.943206h9.9083969c2.548397 0 4.7352672-1.557252 5.6708397-3.76855.0983206-.232061.3157252-.390229.5673283-.390229h32.5948091c.33771 0 .610687.273588.610687.610687v.610687c0 1.530993-1.240916 2.772519-2.772519 2.772519h-15.6085497c-.3370992 0-.610687.273588-.610687.610687v2.442748h-1.221374c-.3370993 0-.610687.273588-.610687.610687zm-27.1963359 3.532825h-9.4357252c-.7340458 0-1.3319084-.597863-1.3319084-1.331909 0-.734656.5978626-1.331908 1.3319084-1.331908h9.4357252c.7346565 0 1.3319084.597252 1.3319084 1.331908 0 .734046-.5972519 1.331909-1.3319084 1.331909zm-2.5532825-7.032061v1.734351c0 .674809-.5471755 1.221374-1.221374 1.221374h-1.8864122c-.6741985 0-1.2213741-.546565-1.2213741-1.221374v-1.734351zm-4.3291603-1.220764h4.3291603v-3.383816h-4.3291603zm-5.5499236-8.989923v-11.068703c0-.27603.2235114-.499542.4989313-.499542h9.0436641c1.2348091 3.090077 3.2848855 5.767329 5.8870229 7.763665v3.80458c0 2.41771-1.9670229 4.384733-4.3847328 4.384733h-6.6607634c-2.4177099 0-4.3841221-1.967023-4.3841221-4.384733zm2.6894656-17.4100766 3.8577099 3.5609161c.4085497.3774045.1416794 1.0595419-.4140458 1.0595419h-3.2470229c-.6741984 0-1.221374-.5471755-1.221374-1.221374v-2.950229c0-.5319084.6338931-.809771 1.0247328-.448855zm-.3523664-5.5737404c.3908397-.6662596 1.3087023-.7859542 1.8760305-.2619848l3.1627481 2.919084c.550229.5080916.8629008 1.2232061.8629008 1.9719084v.0122137c0 1.0796947.0958779 2.1374046.2772519 3.1664123.101374.5728244-.5850382.9429007-1.0125191.5477862l-5.1340458-4.739542c-.450687-.4152671-.6662595-1.0290076-.5667175-1.6341984.1141984-.6961832.2961832-1.5743512.5343511-1.9816794zm4.2674809-2.460458h2.2198473c.279084 0 .5514504.0287022.8183207.0738931-.437252 1.0479389-.7798474 2.1459542-1.0161832 3.281832-.0970993.4635115-.6601527.6448855-1.0082443.3236642l-2.6442748-2.4415268c-.3480916-.32-.2167939-.9032061.2363358-1.0369465.4421374-.130687.9099237-.200916 1.3941985-.200916zm19.9548092-9.9975573c9.4283969 0 17.0992366 7.670229 17.0992366 17.0992366 0 9.4283967-7.6708397 17.0992367-17.0992366 17.0992367-9.4290077 0-17.0992367-7.67084-17.0992367-17.0992367 0-9.4290076 7.670229-17.0992366 17.0992367-17.0992366zm9.0277862 33.0308393c5.9633588-3.391145 9.849771-10.0287019 9.227481-17.4937401-.7548092-9.0607633-8.2320611-16.2760305-17.3123665-16.7346564-3.332519-.1685497-6.4836641.5612213-9.2366412 1.9664122-.8140458.4152671-1.7770992-.1685497-1.7770992-1.0827481v-22.9251909c0-1.3490076 1.0937404-2.4427481 2.4427481-2.4427481h103.8070228c1.348397 0 2.442748 1.0937405 2.442748 2.4427481v54.9618323c0 1.349007-1.094351 2.442748-2.442748 2.442748h-86.840916c-.6210687 0-.8500763-.827481-.310229-1.134657zm-11.7471755 3.214657v-1.029008c.8873282.132519 1.7954198.203359 2.7193893.203359.9239694 0 1.8314504-.07084 2.7193893-.203359v1.029008c0 .674809-.5471756 1.221374-1.2213741 1.221374h-2.9960305c-.6748091 0-1.221374-.546565-1.221374-1.221374zm1.6806107 5.248244c-.7700764 1.728244-2.5007634 2.937405-4.5117558 2.937405h-9.9083969v-1.105344c0-1.011908.8201527-1.832061 1.832061-1.832061zm-11.6445802-1.221374c.0543511-.032366.1087023-.064733.1618321-.09832 1.5670229-.99542 2.6131297-2.741985 2.6131297-4.732214v-.054962h5.9676336v2.135572c0 .644275.5215267 1.165802 1.1651909 1.165802h2.1648855s-.0219848.548397-.0415268 1.000305c-.0134351.326718-.2827481.583817-.6100763.583817zm86.200916 7.658015v.610687h-57.3948091v-.610687c0-.674809.5471755-1.221374 1.221374-1.221374h54.9520611c.674809 0 1.221374.546565 1.221374 1.221374zm-19.4717557-2.442748h-17.7099237c-.6741984 0-1.221374-.547175-1.221374-1.221374v-1.551145c0-.674809.5471756-1.221374 1.221374-1.221374h17.7099237c.6748092 0 1.2213741.546565 1.2213741 1.221374v1.551145c0 .674199-.5465649 1.221374-1.2213741 1.221374zm-53.4351145-6.799389h2.1642748c.6436641 0 1.1658015-.521527 1.1658015-1.165802v-2.135572h93.4595419c1.348397 0 2.442748-1.093741 2.442748-2.442748v-57.4045803c0-1.3490076-1.094351-2.4427481-2.442748-2.4427481h-106.2497709c-1.3490076 0-2.4427481 1.0937405-2.4427481 2.4427481v26.5722137c0 .3651909-.1679389.7053435-.4482442.9398474-1.2659542 1.0589313-2.3865649 2.2851908-3.328855 3.6445801-.3407634.4922137-1.1083969.2534351-1.1083969-.3450382v-36.9184732c0-.6748092.5465648-1.2213741 1.221374-1.2213741h118.4635111c.674199 0 1.221374.5465649 1.221374 1.2213741v69.6183205c0 .674199-.547175 1.221374-1.221374 1.221374h-102.319389c-.3456488 0-.62229-.286412-.6100763-.632061zm41.8320611-73.8094657h2.4427481v.889771c0 .6741985-.5465649 1.2213741-1.2213741 1.2213741-.6741985 0-1.221374-.5471756-1.221374-1.2213741zm-2.9874809-5.4290076v-.0030534c0-2.3236642 1.8839694-4.2076336 4.2076335-4.2076336h.0030535c2.3236641 0 4.2076336 1.8839694 4.2076336 4.2076336v.0030534c0 2.3236641-1.8839695 4.2076336-4.2076336 4.2076336h-.0030535c-2.3236641 0-4.2076335-1.8839695-4.2076335-4.2076336zm58.918473 82.7120613c1.087634 0 1.97313.884885 1.97313 1.97313 0 1.087633-.885496 1.972519-1.97313 1.972519-1.087633 0-1.97313-.884886-1.97313-1.972519 0-1.088245.885497-1.97313 1.97313-1.97313zm7.576183-1.278779v-1.633588h18.229008v1.529771 2.130687c0 .487329.114199.945955.305954 1.361832v4.748703h-32.969771v-7.526718h3.643359c.470229 0 .783512.520916.528855.91542-.439695.682137-.627786 1.541374-.428702 2.445802.261984 1.190229 1.228702 2.148396 2.421374 2.40061 2.062901.436641 3.888244-1.132824 3.888244-3.12061 0-.631451-.184427-1.220153-.501985-1.716031-.256488-.400611.04458-.925191.520306-.925191h3.752671c.3371 0 .610687-.273588.610687-.610687zm1.221374-5.29771h15.78626c.674809 0 1.221374.547176 1.221374 1.221374 0 .674199-.546565 1.221374-1.221374 1.221374h-15.78626c-.674809 0-1.221374-.547175-1.221374-1.221374 0-.674198.546565-1.221374 1.221374-1.221374zm16.486107-13.7319082c0-.3370992.273588-.610687.610687-.610687h24.816489c.337099 0 .610687-.2735878.610687-.610687-.000611-.33771-.273588-.6106871-.610687-.6106871h-20.64c-1.686107 0-3.053435-1.3673282-3.053435-3.0534351v-14.4629007c0-1.1340458.919084-2.0531298 2.05313-2.0531298h35.15603c1.134046 0 2.052519.919084 2.052519 2.0531298v6.0225954c-.437862.0372519-.806717.3181679-.963664.710229-.075725.101374-.128855.220458-.128855.3566412v2.208855c0 .0793893.01771.1538931.045191.2229007v1.52c0 .597252.46229 1.0839695 1.047328 1.1334352v2.2882442c0 1.6861069-1.366717 3.0534351-3.053435 3.0534351h-8.629008c-.337709 0-.610687.2729771-.610687.6106871 0 .3370992.272978.610687.610687.610687h12.824428c.336488 0 .610687.2735878.610687.610687 0 .3364886-.274199.610687-.610687.610687h-41.526718c-.337099 0-.610687-.2741984-.610687-.610687zm-85.4235111-59.6787786h-2.5080916c-.6748092 0-1.221374-.5471756-1.221374-1.2213741v-3.0100763c0-.6741985.5465648-1.221374 1.221374-1.221374h2.5080916zm10.8610687-5.4528244h2.5074809c.6748092 0 1.2213741.5471755 1.2213741 1.221374v3.0100763c0 .6741985-.5465649 1.2213741-1.2213741 1.2213741h-2.5074809zm116.7975574 54.4708397h.487328v-.987481h-.487328zm11.27145 28.6674805c.674809 0 1.221374.547176 1.221374 1.221374v4.885497c0 .674198-.546565 1.221374-1.221374 1.221374-.674198 0-1.221374-.547176-1.221374-1.221374v-4.885497c0-.674198.547176-1.221374 1.221374-1.221374zm5.425344 12.824428h-6.694962c-.46229 0-.770076-.501374-.536183-.900153.371297-.632672.584427-1.367939.584427-2.153282 0-.674199.547176-1.221374 1.221374-1.221374 1.349008 0 2.442748-1.093741 2.442748-2.442748v-4.885497c0-1.349007-1.09374-2.442748-2.442748-2.442748-.674198 0-1.221374-.547175-1.221374-1.221374v-1.221374c0-.337099-.272977-.610687-.610687-.610687h-3.526107c-.337099 0-.610687.273588-.610687.610687 0 .337099.273588.610687.610687.610687h2.304733c.33771 0 .610687.273588.610687.610687v12.213741c0 1.686107-1.366717 3.053435-3.053435 3.053435h-7.328244c-1.686107 0-3.053435-1.367328-3.053435-3.053435v-12.213741c0-.337099.273587-.610687.610687-.610687h7.543816c.3371 0 .610687-.273588.610687-.610687-.00061-.337099-.273587-.610687-.610687-.610687h-1.72519c-1.011909 0-1.832061-.820152-1.832061-1.832061v-8.265649-.834809c0-.478168.248549-.943511.682137-1.144427.625954-.289466 1.061374-.9209164 1.061374-1.6549622 0-.7364885-.437863-1.369771-1.06626-1.6586259-.435419-.1996947-.686412-.6668703-.686412-1.1462596v-4.8812214c.004886-.0305343.018321-.0574045.018321-.0885496v-1.0992366c0-.3120611.252824-.5654962.565496-.5654962.63145 0 1.143206-.5117557 1.143206-1.1432061v-1.1438168c0-.6308397-.511756-1.1432061-1.143206-1.1432061h-.018321c-.312061 0-.565496-.2528244-.565496-.5648855v-5.9138931c0-1.8082443-1.465649-3.2745038-3.273893-3.2745038h-35.156641c-1.808244 0-3.273893 1.4656488-3.273893 3.2738931v16.5538931c0 .4763359-.246718.9410687-.678474 1.1425954-.6229.2912977-1.055267.9203054-1.055267 1.6525191 0 .7340458.434809 1.3654962 1.060764 1.6549622.433587.200916.682137.666259.682137 1.144427v.834809 8.876336h-18.229008v-66.7633586c0-.3370992-.273587-.610687-.610687-.610687h-58.0109919c-.6741985 0-1.2213741-.5471756-1.2213741-1.2213741v-.889771h2.3774046c.3377099 0 .610687-.2729771.610687-.610687 0-.4818321.3908397-.8720611.8726718-.8720611h3.4668702c.3377099 0 .610687-.2735877.610687-.610687v-6.6741985c0-.3370992-.2729771-.610687-.610687-.610687h-3.4668702c-.4818321 0-.8726718-.390229-.8726718-.8720611 0-.3377099-.2729771-.610687-.610687-.610687h-9.6396947c-.3370992 0-.610687.2729771-.610687.610687 0 .4818321-.3908397.8720611-.8726717.8720611h-3.467481c-.3370992 0-.610687.2735878-.610687.610687v6.6741985c0 .3370993.2735878.610687.610687.610687h3.467481c.481832 0 .8726717.390229.8726717.8720611 0 .3377099.2735878.610687.610687.610687h2.3767939v.889771c0 .6741985-.5465649 1.2213741-1.221374 1.2213741h-56.788397-.0006107c-.3370992 0-.6100763.2735878-.6100763.610687v38.6351145c0 1.4076336-1.1444275 2.5465649-2.5520611 2.540458h-.0036641c-3.3984733-.0152672-6.1612214 2.7352672-6.1612214 6.1337405v7.7477862c-.92274805.0299237-1.66473278.7853434-1.66473278 1.7154194v11.068703c0 2.611297 1.79541988 4.809771 4.21557248 5.429007.8006107.204581 1.3343512.963665 1.3343512 1.789924v4.934962c0 .665038-.538626 1.203664-1.2030535 1.203664-1.301374 0-2.4189312.925802-2.6607633 2.20458l-.1294657.686412c-.1093129.576489-.61312973.994199-1.19999996.994199h-7.97312977c-.33709924 0-.61068702.273588-.61068702.610687s.27358778.610687.61068702.610687h11.83450383 9.4357252 142.8867171 35.579848 7.328244 10.921527c.337099 0 .610687-.273588.610687-.610687s-.273588-.610687-.610687-.610687z"/></g></g></g></svg>