<svg height="28" viewBox="0 0 28 28" width="28" xmlns="http://www.w3.org/2000/svg"><path d="m138 42h-10.008756c-1.091346 0-1.991244.8954305-1.991244 2 0 1.1122704.89151 2 1.991244 2h10.008756v10.0087557c0 1.0913468.895431 1.9912443 2 1.9912443 1.11227 0 2-.8915104 2-1.9912443v-10.0087557h10.008756c1.091346 0 1.991244-.8954305 1.991244-2 0-1.1122704-.89151-2-1.991244-2h-10.008756v-10.0087557c0-1.0913468-.895431-1.9912443-2-1.9912443-1.11227 0-2 .8915104-2 1.9912443z" fill="#949cf7" fill-rule="evenodd" transform="translate(-126 -30)"/></svg>