<svg width="1385" height="472" viewBox="0 0 1385 472" fill="none" xmlns="http://www.w3.org/2000/svg">
<g opacity="0.9">
<path d="M211.381 169.808L219.865 166.731C220.045 166.577 220.045 166.423 219.865 166.423L211.381 163.192L207.59 156.115C207.59 155.962 207.41 155.962 207.229 156.115L203.619 163.192H203.439L195.135 166.423C194.955 166.423 194.955 166.577 195.135 166.731L203.439 169.808H203.619L207.229 176.885C207.41 177.038 207.59 177.038 207.59 176.885L211.381 169.808Z" fill="white"/>
<path d="M173.381 35.8077L181.865 32.7308C182.045 32.5769 182.045 32.4231 181.865 32.4231L173.381 29.1923L169.59 22.1154C169.59 21.9615 169.41 21.9615 169.229 22.1154L165.619 29.1923H165.439L157.135 32.4231C156.955 32.4231 156.955 32.5769 157.135 32.7308L165.439 35.8077H165.619L169.229 42.8846C169.41 43.0385 169.59 43.0385 169.59 42.8846L173.381 35.8077Z" fill="white"/>
<path d="M103.381 221.808L111.865 218.731C112.045 218.577 112.045 218.423 111.865 218.423L103.381 215.192L99.5902 208.115C99.5902 207.962 99.4097 207.962 99.2292 208.115L95.6191 215.192H95.4386L87.1354 218.423C86.9549 218.423 86.9549 218.577 87.1354 218.731L95.4386 221.808H95.6191L99.2292 228.885C99.4097 229.038 99.5902 229.038 99.5902 228.885L103.381 221.808Z" fill="white"/>
<path d="M16.3809 464.808L24.8646 461.731C25.0451 461.577 25.0451 461.423 24.8646 461.423L16.3809 458.192L12.5902 451.115C12.5902 450.962 12.4097 450.962 12.2292 451.115L8.61908 458.192H8.43861L0.13538 461.423C-0.0451265 461.423 -0.0451265 461.577 0.13538 461.731L8.43861 464.808H8.61908L12.2292 471.885C12.4097 472.038 12.5902 472.038 12.5902 471.885L16.3809 464.808Z" fill="white"/>
<path d="M1176.38 55.8077L1184.86 52.7308C1185.05 52.5769 1185.05 52.4231 1184.86 52.4231L1176.38 49.1923L1172.59 42.1154C1172.59 41.9615 1172.41 41.9615 1172.23 42.1154L1168.62 49.1923H1168.44L1160.14 52.4231C1159.95 52.4231 1159.95 52.5769 1160.14 52.7308L1168.44 55.8077H1168.62L1172.23 62.8846C1172.41 63.0385 1172.59 63.0385 1172.59 62.8846L1176.38 55.8077Z" fill="white"/>
<path d="M332 205L325 212.052V221.976L332 229L339 221.948V212.052L332 205Z" fill="white"/>
<path d="M956 141L949 148.052V157.976L956 165L963 157.948V148.052L956 141Z" fill="white"/>
<path d="M1280 0L1273 7.05213V16.9763L1280 24L1287 16.9479V7.05213L1280 0Z" fill="white"/>
<path d="M12 42L5 49.0521V58.9763L12 66L19 58.9479V49.0521L12 42Z" fill="white"/>
<path d="M1376.38 194.808L1384.86 191.731C1385.05 191.577 1385.05 191.423 1384.86 191.423L1376.38 188.192L1372.59 181.115C1372.59 180.962 1372.41 180.962 1372.23 181.115L1368.62 188.192H1368.44L1360.14 191.423C1359.95 191.423 1359.95 191.577 1360.14 191.731L1368.44 194.808H1368.62L1372.23 201.885C1372.41 202.038 1372.59 202.038 1372.59 201.885L1376.38 194.808Z" fill="white"/>
<path d="M1164.38 249.808L1172.86 246.731C1173.05 246.577 1173.05 246.423 1172.86 246.423L1164.38 243.192L1160.59 236.115C1160.59 235.962 1160.41 235.962 1160.23 236.115L1156.62 243.192H1156.44L1148.14 246.423C1147.95 246.423 1147.95 246.577 1148.14 246.731L1156.44 249.808H1156.62L1160.23 256.885C1160.41 257.038 1160.59 257.038 1160.59 256.885L1164.38 249.808Z" fill="white"/>
</g>
</svg>
