<svg xmlns="http://www.w3.org/2000/svg" width="130" height="80" viewBox="0 0 130 80">
  <g fill="none" fill-rule="evenodd" transform="translate(11)">
    <path fill="#FFFFFF" d="M33.2264463,14.5107438 L65.8552066,14.5107438 L51.0175207,1.87140496 C50.1613223,1.14280992 48.9196694,1.14214876 48.0634711,1.87140496 L33.2264463,14.5107438 Z"/>
    <polygon fill="#FFFFFF" points="19.495 39.159 19.495 26.208 10.966 33.473"/>
    <path fill="#F6F6F7" d="M72.5879008,25.3420165 C72.584595,25.3367273 72.5799669,25.3340826 72.5773223,25.3281322 C72.4186446,24.9995372 72.5574876,24.6041653 72.8860826,24.4461488 C74.6255868,23.609124 76.4464132,23.1337521 78.2639339,22.9830083 L78.2639339,17.8167273 C78.2639339,16.7225124 77.3740165,15.8332562 76.2804628,15.8332562 L22.8001322,15.8332562 C21.7065785,15.8332562 20.8166612,16.7225124 20.8166612,17.8167273 L20.8166612,40.0401983 L27.2173223,44.3073058 C27.5214545,44.5096198 27.603438,44.9201983 27.4004628,45.2236694 L30.1667438,47.0676364 C30.3690579,46.7635041 30.7796364,46.6808595 31.0837686,46.8844959 L49.5406281,59.1892893 L67.1875702,47.424 C66.6275702,46.6643306 66.1237686,45.8497851 65.6993058,44.9684628 C63.7574876,40.9320992 63.6702149,36.2597025 65.4619504,32.1499504 C65.6067438,31.8147438 65.9961653,31.6606942 66.3320331,31.8081322 C66.3379835,31.8107769 66.3419504,31.8167273 66.3479008,31.8193719 C67.6589752,29.1436694 69.7859174,26.8454876 72.5879008,25.3420165"/>
    <path fill="#F6F6F7" d="M86.2881983,77.2764298 L60.5639008,53.429157 L54.189686,57.6790744 C51.3738182,59.555438 47.7070413,59.555438 44.8918347,57.6790744 L38.5169587,53.429157 L12.7933223,77.2764298 C12.3523306,77.6850248 12.6412562,78.4222149 13.2429091,78.4222149 L85.8386116,78.4222149 C86.4396033,78.4222149 86.7291901,77.6850248 86.2881983,77.2764298"/>
    <path fill="#DCDDDE" d="M79.5784463 53.6752397C75.2022479 53.6752397 70.9596033 51.7962314 68.019438 48.4593719L61.6954711 52.6749091 85.2167934 74.4805289C86.4862149 75.6573884 88.5483636 74.7568926 88.5483636 73.0259835L88.5483636 50.7601983C87.8197686 51.2844959 87.0475372 51.7578843 86.2217521 52.1552397 84.0789421 53.1866446 81.8111736 53.6752397 79.5784463 53.6752397M27.4006612 45.2238678C27.197686 45.5266777 26.7871074 45.6099835 26.4836364 45.4070083L10.5319008 34.7729587 10.5319008 73.0255207C10.5319008 74.7570909 12.5940496 75.6575868 13.8641322 74.4800661L37.3861157 52.6751074 30.3500826 47.9841983C30.0459504 47.7818843 29.9639669 47.3713058 30.1669421 47.0678347L27.4006612 45.2238678z"/>
    <path fill="#FFFFFF" d="M73.4595702,25.6374215 C73.1369256,25.7934545 72.7508099,25.6599008 72.5881653,25.3418843 C69.7855207,26.8453554 67.6592397,29.1435372 66.3475041,31.8199008 C66.6694876,31.9713058 66.8169256,32.3494876 66.6734545,32.6780826 C65.0364298,36.435438 65.1157686,40.7058512 66.890314,44.3951074 C70.2509752,51.3782479 78.6655207,54.3243636 85.6486612,50.9643636 C89.0311405,49.3359339 91.576595,46.4889917 92.8175868,42.9458512 C94.0579174,39.4027107 93.8450248,35.589157 92.2172562,32.2066777 C88.856595,25.2241983 80.4433719,22.2787438 73.4595702,25.6374215"/>
    <path fill="#B9BBBE" d="M93.3639669,40.938314 C92.3517355,46.0483967 88.7986777,50.0609587 83.8604959,51.683438 C78.6373554,53.3998017 72.7801653,51.8282314 69.1186777,47.7264132 C65.3421488,43.4956694 64.5117355,37.6391405 66.673719,32.6784793 C66.8171901,32.3498843 66.6697521,31.9710413 66.3477686,31.8196364 C66.3418182,31.8169917 66.3378512,31.8110413 66.3319008,31.8083967 C65.9960331,31.6602975 65.6072727,31.8150083 65.4618182,32.1502149 C63.6700826,36.2599669 63.7573554,40.9323636 65.6991736,44.9687273 L65.7123967,44.9951736 C66.4264463,46.4755041 65.9398347,48.256 64.572562,49.1677355 L52.4905785,57.2226116 C50.7041322,58.4133554 48.3768595,58.4133554 46.5910744,57.2226116 L31.0836364,46.8840992 C30.7795041,46.681124 30.3689256,46.7637686 30.1666116,47.0679008 C29.9636364,47.3713719 30.0456198,47.7819504 30.3497521,47.9842645 L37.3857851,52.6751736 L13.8644628,74.4801322 C12.5943802,75.6576529 10.5322314,74.757157 10.5322314,73.0255868 L10.5322314,39.270876 C10.5322314,37.3482314 12.6750413,36.201124 14.2743802,37.2675702 L26.4839669,45.4070744 C26.787438,45.6100496 27.1980165,45.5267438 27.4003306,45.2239339 C27.6033058,44.9198017 27.5213223,44.5092231 27.2171901,44.3069091 L24.3497521,42.3955041 C22.1428099,40.9237686 20.8165289,38.4464132 20.8165289,35.7938512 L20.8165289,17.8163306 C20.8165289,16.7214545 21.705124,15.8328595 22.8,15.8328595 L76.2803306,15.8328595 C77.3758678,15.8328595 78.2638017,16.7214545 78.2638017,17.8163306 L78.2638017,22.9826116 C76.446281,23.1340165 74.6254545,23.6093884 72.8859504,24.4464132 C72.5573554,24.6044298 72.4185124,24.9998017 72.5778512,25.3283967 C72.5798347,25.333686 72.5844628,25.3369917 72.5877686,25.342281 C72.7504132,25.6602975 73.1365289,25.7938512 73.4598347,25.637157 C81.1933884,21.9174876 90.6809917,25.9293884 93.1173554,34.5945124 C93.6965289,36.6540165 93.7798347,38.8391405 93.3639669,40.938314 Z M85.2171901,74.4801322 L61.6958678,52.6751736 L68.0191736,48.4589752 C70.9593388,51.7958347 75.2019835,53.6755041 79.5781818,53.6755041 C81.8109091,53.6755041 84.0786777,53.1869091 86.2214876,52.1555041 C86.2294215,52.1515372 86.2380165,52.1475702 86.2459504,52.1436033 C87.3110744,51.628562 88.5487603,52.3690579 88.5487603,53.5512066 L88.5487603,73.0255868 C88.5487603,74.757157 86.4866116,75.6576529 85.2171901,74.4801322 Z M12.7933884,77.2761653 L36.6049587,55.2014545 C37.726281,54.1621157 39.4135537,54.0272397 40.686281,54.8755041 L47.7064463,59.5558347 C48.8171901,60.2963306 50.2638017,60.2963306 51.3738843,59.5558347 L58.3947107,54.8755041 C59.6667769,54.0272397 61.3547107,54.1621157 62.4760331,55.2014545 L86.2882645,77.2761653 C86.7292562,77.6854215 86.4396694,78.4226116 85.8386777,78.4226116 L13.242314,78.4226116 C12.6413223,78.4226116 12.3523967,77.6854215 12.7933884,77.2761653 Z M19.4942149,29.0712066 L19.4942149,36.6877355 C19.4942149,37.7436033 18.3173554,38.373686 17.4386777,37.7879008 L13.1517355,34.9303802 C12.0555372,34.1998017 11.9636364,32.6236033 12.9652893,31.7693884 L17.3150413,28.0649256 C18.1732231,27.333686 19.4942149,27.9439339 19.4942149,29.0712066 Z M48.0634711,1.87120661 C48.9196694,1.14195041 50.1613223,1.14261157 51.0175207,1.87120661 L63.1213223,12.1819504 C64.0568595,12.9793058 63.4928926,14.5105455 62.2638017,14.5105455 L36.8178512,14.5105455 C35.5880992,14.5105455 35.0241322,12.9793058 35.9603306,12.1819504 L48.0634711,1.87120661 Z M79.5861157,20.4887273 L79.5861157,17.8163306 C79.5861157,15.990876 78.1064463,14.5105455 76.2803306,14.5105455 L69.3547107,14.5105455 C68.4119008,14.5105455 67.5001653,14.1753388 66.7821488,13.5637686 L51.8750413,0.86492562 C50.522314,-0.287471074 48.5580165,-0.287471074 47.2066116,0.86492562 L32.2995041,13.5637686 C31.5814876,14.1753388 30.6697521,14.5105455 29.726281,14.5105455 L22.8,14.5105455 C20.9745455,14.5105455 19.4942149,15.990876 19.4942149,17.8163306 L19.4942149,23.249719 C19.4942149,24.024595 19.1550413,24.7604628 18.5646281,25.2629421 L9.44198347,33.0341818 C9.43801653,33.0374876 9.43735537,33.0427769 9.43338843,33.0460826 C9.37520661,33.0976529 9.32826446,33.1578182 9.29190083,33.2252562 C9.28330579,33.2417851 9.27735537,33.2589752 9.2707438,33.2761653 C9.24561983,33.3310413 9.23041322,33.388562 9.22181818,33.4487273 C9.21917355,33.4679008 9.21586777,33.4857521 9.21454545,33.5049256 C9.2138843,33.5155041 9.20991736,33.5260826 9.20991736,33.5373223 L9.20991736,79.0837686 C9.20991736,79.1168264 9.22380165,79.1452562 9.22842975,79.1769917 C9.23570248,79.2272397 9.23966942,79.2761653 9.25818182,79.3244298 C9.27669421,79.3713719 9.30710744,79.409719 9.33553719,79.4507107 C9.35471074,79.4778182 9.36330579,79.5082314 9.38578512,79.5333554 C9.38909091,79.536 9.39305785,79.5366612 9.39570248,79.5399669 C9.45057851,79.5968264 9.51603306,79.6404628 9.58743802,79.674843 C9.59669421,79.6794711 9.60330579,79.6880661 9.61256198,79.6920331 C9.69190083,79.7257521 9.77917355,79.7449256 9.87107438,79.7449256 L89.2099174,79.7449256 C89.301157,79.7449256 89.3890909,79.7257521 89.4684298,79.6920331 C89.477686,79.6880661 89.4849587,79.6794711 89.4935537,79.674843 C89.5649587,79.6404628 89.6310744,79.5968264 89.6852893,79.5399669 C89.6872727,79.5366612 89.6919008,79.536 89.6945455,79.5333554 C89.7170248,79.5082314 89.7269421,79.4778182 89.7447934,79.4507107 C89.7732231,79.409719 89.8036364,79.3713719 89.8228099,79.3244298 C89.8413223,79.2761653 89.8452893,79.2272397 89.8519008,79.1769917 C89.8565289,79.1452562 89.8710744,79.1168264 89.8710744,79.0837686 L89.8710744,49.7026116 C92.4297521,47.3945124 94.1758678,44.2566612 94.7596694,40.6355041 C95.1028099,38.5092231 94.9758678,36.3181488 94.3927273,34.2447603 C92.6419835,28.016 87.5596694,23.9849256 81.8790083,23.1075702 C80.5699174,22.9059174 79.5861157,21.813686 79.5861157,20.4887273 Z"/>
    <path fill="#B9BBBE" d="M77.5995372 39.5998678L81.4924298 39.5998678C81.8831736 39.5998678 82.2038347 39.2871405 82.2124298 38.8957355L82.4676364 31.1066446C82.4768926 30.7026777 82.1516033 30.3701157 81.7469752 30.3701157L77.3436694 30.3701157C76.9397025 30.3701157 76.6144132 30.7026777 76.6236694 31.1066446L76.8795372 38.8957355C76.8887934 39.2871405 77.2081322 39.5998678 77.5995372 39.5998678M79.5746116 41.1842645C77.9904793 41.1842645 76.7230413 42.4807934 76.7230413 44.0940165 76.7230413 45.6788099 77.9904793 46.9462479 79.5746116 46.9462479 81.1878347 46.9462479 82.4837025 45.6788099 82.4837025 44.0940165 82.4837025 42.4807934 81.1878347 41.1842645 79.5746116 41.1842645M99.2401322 21.3990083L97.6460826 22.993719C97.3875702 23.2515702 97.3875702 23.6700826 97.6460826 23.928595 97.7750083 24.0575207 97.9442645 24.122314 98.1135207 24.122314 98.2827769 24.122314 98.4520331 24.0575207 98.5809587 23.928595L100.175008 22.3338843C100.433521 22.0753719 100.433521 21.6575207 100.175008 21.3990083 99.9164959 21.1404959 99.4986446 21.1404959 99.2401322 21.3990083M92.8035702 21.1326281C92.8610909 21.1478347 92.9186116 21.1557686 92.9748099 21.1557686 93.2670413 21.1557686 93.5334876 20.9607273 93.6134876 20.6651901L94.1959669 18.4873388C94.2911736 18.134281 94.0815868 17.7719669 93.7285289 17.6774215 93.3734876 17.5802314 93.013157 17.7924628 92.9192727 18.1448595L92.3361322 20.3227107C92.2409256 20.6757686 92.4511736 21.0380826 92.8035702 21.1326281M103.897322 27.8452893C103.802116 27.4928926 103.43914 27.2813223 103.087405 27.3778512L100.908893 27.9616529C100.556496 28.0561983 100.34757 28.4185124 100.441455 28.7709091 100.521455 29.0664463 100.787901 29.2614876 101.080132 29.2614876 101.136331 29.2614876 101.194512 29.2542149 101.251372 29.2383471L103.429884 28.6552066C103.782281 28.5606612 103.991868 28.197686 103.897322 27.8452893M12.1895537 3.10677686L12.1888926 3.10677686C11.6381488 3.10876033 11.1892231 2.66380165 11.1872397 2.11239669 11.1859174 1.74677686 10.8890579 1.45190083 10.5240992 1.45322314 10.1591405 1.45454545 9.86360331 1.75140496 9.86492562 2.11636364 9.86690909 2.6677686 9.42128926 3.11669421 8.8698843 3.11867769 8.50558678 3.12 8.21004959 3.41619835 8.2113719 3.78181818 8.21269421 4.14743802 8.51021488 4.44231405 8.8745124 4.44099174 9.42591736 4.43900826 9.87484298 4.88396694 9.87682645 5.4353719 9.87814876 5.80099174 10.1750083 6.09586777 10.5399669 6.09454545 10.9055868 6.09322314 11.2004628 5.79636364 11.1991405 5.4307438 11.197157 4.87933884 11.6427769 4.43107438 12.1935207 4.42909091L12.1941818 4.42909091C12.5591405 4.4277686 12.8540165 4.13090909 12.8526942 3.76595041 12.8513719 3.40033058 12.5545124 3.10545455 12.1895537 3.10677686M105.481124 53.9838678C105.65038 53.9832066 105.819636 53.9177521 105.947901 53.7888264L106.728066 53.0040331C106.984595 52.7455207 106.983273 52.3263471 106.72476 52.069157 106.465587 51.8113058 106.047074 51.8132893 105.789884 52.0718017L105.009719 52.856595C104.751868 53.1151074 104.753851 53.534281 105.013025 53.7914711 105.14195 53.9203967 105.311868 53.9838678 105.481124 53.9838678M101.583273 57.909157C101.752529 57.9084959 101.921785 57.8437025 102.05005 57.7141157L102.829554 56.9286612C103.086744 56.6694876 103.085421 56.2509752 102.826248 55.9937851 102.567074 55.736595 102.147901 55.7379174 101.891372 55.9970909L101.111868 56.7818843C100.854017 57.041719 100.856 57.4595702 101.115174 57.7167603 101.24476 57.845686 101.414017 57.9098182 101.583273 57.909157M105.955636 55.9831405C105.695802 55.7252893 105.27795 55.7272727 105.02076 55.9864463 104.762909 56.2449587 104.764231 56.6634711 105.024066 56.9213223L105.80886 57.7008264C105.939107 57.8297521 106.107702 57.8938843 106.276959 57.8932231 106.446215 57.892562 106.615471 57.8277686 106.743736 57.6975207 107.000926 57.4383471 106.999603 57.0198347 106.74043 56.7626446L105.955636 55.9831405zM101.884099 53.8024463C102.013025 53.9313719 102.182942 53.9955041 102.352198 53.994843 102.521455 53.9941818 102.690711 53.9287273 102.818975 53.7991405 103.076165 53.5399669 103.074843 53.1214545 102.815669 52.8642645L102.030876 52.0847603C101.771702 51.8275702 101.352529 51.8295537 101.096 52.0880661 100.838149 52.3472397 100.840132 52.7657521 101.099306 53.0229421L101.884099 53.8024463zM2.31735537 18.4063471C2.86809917 18.4043636 3.31702479 18.8506446 3.31900826 19.4007273 3.32099174 19.9514711 2.87471074 20.401719 2.3246281 20.4037025 1.7738843 20.4050248 1.32429752 19.9587438 1.32231405 19.408 1.32033058 18.8579174 1.76727273 18.4083306 2.31735537 18.4063471M2.3292562 21.7260165C3.60793388 21.7213884 4.64528926 20.6760992 4.64132231 19.3967603 4.63735537 18.1167603 3.59206612 17.079405 2.31272727 17.0840331 1.03338843 17.088-.00462809917 18.1326281-.61172167e-13 19.4119669.00462809917 20.6919669 1.0492562 21.7299835 2.3292562 21.7260165"/>
  </g>
</svg>
