<svg width="186" height="84" viewBox="0 0 186 84" fill="none" xmlns="http://www.w3.org/2000/svg">
<g clip-path="url(#clip0)">
<path opacity="0.2" d="M145.172 32.4298H121.898V26.3254C121.898 24.4177 123.425 22.8916 125.332 22.8916H129.211C131.119 22.8916 132.645 24.4177 132.645 26.3254C132.645 27.3428 133.471 28.1058 134.425 28.1058H140.784C143.264 28.1694 145.172 30.0771 145.172 32.4298Z" fill="#AEC7FF"/>
<path opacity="0.2" d="M57.1658 49.9802L55.7668 48.1997C51.7608 43.1763 45.6563 40.2512 39.2339 40.2512C33.6381 40.2512 28.2332 42.4768 24.2907 46.4193L18.6949 52.015C16.7873 53.9227 14.2438 54.9401 11.573 54.9401H11.1279C4.95988 55.0673 0 60.0271 0 66.1316H62.8251V66.068C62.8251 60.2179 60.7903 54.5586 57.1658 49.9802Z" fill="#AEC7FF"/>
<path opacity="0.2" d="M185.678 69.0569H111.025C111.025 63.7791 115.285 59.5187 120.563 59.5187H135.125C136.524 59.5187 137.668 58.3741 137.668 56.9751V53.287C137.668 47.6277 142.247 43.0493 147.906 43.0493H155.982C161.641 43.0493 166.22 47.6277 166.22 53.287C166.22 54.368 167.046 55.1947 168.127 55.1947H174.422C180.59 55.1947 185.614 60.2181 185.614 66.3862V69.0569H185.678Z" fill="#AEC7FF"/>
<path d="M140.212 78.4043L139.512 80.5662C139.131 81.6472 137.605 81.6472 137.223 80.5662L136.524 78.4043C136.142 77.3233 134.616 77.3233 134.234 78.4043L133.535 80.5662C133.153 81.6472 131.627 81.6472 131.246 80.5662L130.546 78.4043C130.165 77.3233 128.639 77.3233 128.257 78.4043L127.558 80.5662C127.176 81.6472 125.65 81.6472 125.268 80.5662L124.569 78.4043C124.187 77.3233 122.661 77.3233 122.28 78.4043L120.436 83.9364H144.345L142.501 78.4043C142.119 77.3233 140.593 77.3233 140.212 78.4043Z" fill="#83DDC5"/>
<path d="M147.397 8.71154L146.571 10.3648C146.38 10.7464 146.761 11.1915 147.207 11.0007L148.86 10.1741C148.987 10.1105 149.114 10.1105 149.241 10.1741L150.895 11.0007C151.276 11.1915 151.721 10.8099 151.53 10.3648L150.704 8.71154C150.64 8.58436 150.64 8.45719 150.704 8.33001L151.53 6.67672C151.721 6.29519 151.34 5.85007 150.895 6.04083L149.241 6.86748C149.114 6.93107 148.987 6.93107 148.86 6.86748L147.207 6.04083C146.825 5.85007 146.38 6.2316 146.571 6.67672L147.397 8.33001C147.461 8.45719 147.461 8.58436 147.397 8.71154Z" fill="#7196FF"/>
<path d="M163.994 16.0244L158.271 21.7474V31.2856L163.994 37.0085L169.717 31.2856V21.7474L163.994 16.0244ZM166.855 30.0774L163.994 32.9389L161.132 30.0774V22.8919L163.994 20.0305L166.855 22.8919V30.0774Z" fill="#F47FFF"/>
<path d="M162.086 23.3368V29.6957L163.994 31.6033L165.901 29.6957V23.3368L163.994 21.4292L162.086 23.3368Z" fill="#F47FFF"/>
<path d="M163.994 16.0242V20.0302L166.855 22.8917L169.717 21.7471L163.994 16.0242Z" fill="#FFC0FF"/>
<path d="M17.6774 38.9158L11.9545 44.6387V54.1769L17.6774 59.8999L23.4003 54.1769V44.6387L17.6774 38.9158ZM20.5389 52.9688L17.6774 55.8302L14.8159 52.9688V45.8469L17.6774 42.9854L20.5389 45.8469V52.9688Z" fill="#F47FFF"/>
<path d="M15.7699 46.2284V52.5873L17.6775 54.4949L19.5852 52.5873V46.2284L17.6775 44.3208L15.7699 46.2284Z" fill="#F47FFF"/>
<path d="M17.6776 38.9158V42.9854L20.5391 45.8469L23.4005 44.6387L17.6776 38.9158Z" fill="#FFC0FF"/>
<path d="M30.4586 27.788C30.0771 27.788 29.8228 27.5337 29.8228 27.1521V26.5163C29.8228 26.1347 30.0771 25.8804 30.4586 25.8804C30.8402 25.8804 31.0945 26.1347 31.0945 26.5163V27.1521C31.0945 27.5337 30.8402 27.788 30.4586 27.788Z" fill="#3E70DD"/>
<path d="M30.4586 32.8752C30.0771 32.8752 29.8228 32.6208 29.8228 32.2393V31.6034C29.8228 31.2219 30.0771 30.9675 30.4586 30.9675C30.8402 30.9675 31.0945 31.2219 31.0945 31.6034V32.2393C31.0945 32.6208 30.8402 32.8752 30.4586 32.8752Z" fill="#3E70DD"/>
<path d="M32.0483 29.3778C32.0483 28.9963 32.3027 28.7419 32.6842 28.7419H33.3201C33.7016 28.7419 33.956 28.9963 33.956 29.3778C33.956 29.7594 33.7016 30.0137 33.3201 30.0137H32.6842C32.3663 30.0137 32.0483 29.7594 32.0483 29.3778Z" fill="#3E70DD"/>
<path d="M26.9612 29.3778C26.9612 28.9963 27.2155 28.7419 27.5971 28.7419H28.2329C28.6145 28.7419 28.8688 28.9963 28.8688 29.3778C28.8688 29.7594 28.6145 30.0137 28.2329 30.0137H27.5971C27.2791 30.0137 26.9612 29.7594 26.9612 29.3778Z" fill="#3E70DD"/>
<path d="M153.184 36.9446L134.107 83.9998H172.26L153.184 36.9446Z" fill="#3E70DD"/>
<path d="M164.63 56.0212L151.912 84H177.347L164.63 56.0212Z" fill="#F47FFF"/>
<path d="M33.0021 47.1189L22.828 84H43.1762L33.0021 47.1189Z" fill="#FFD836"/>
<path d="M160.178 83.9999H147.461V80.1846C147.461 78.7857 148.605 77.6411 150.004 77.6411H157.635C159.034 77.6411 160.178 78.7857 160.178 80.1846V83.9999Z" fill="#FFD836"/>
<path d="M32.2392 78.4043L31.5397 80.5662C31.1582 81.6472 29.6321 81.6472 29.2505 80.5662L28.5511 78.4043C28.1695 77.3233 26.6434 77.3233 26.2619 78.4043L25.5624 80.5662C25.1809 81.6472 23.6548 81.6472 23.2732 80.5662L22.5738 78.4043C22.1922 77.3233 20.6661 77.3233 20.2846 78.4043L19.5851 80.5662C19.2036 81.6472 17.6775 81.6472 17.296 80.5662L16.5965 78.4043C16.215 77.3233 14.6888 77.3233 14.3073 78.4043L12.4633 83.9364H36.3088L34.4648 78.4043C34.1468 77.3233 32.6207 77.3233 32.2392 78.4043Z" fill="#7196FF"/>
<path d="M87.879 20.3484L48.6451 6.04102L55.1947 18.8858C56.4665 21.3658 58.6921 23.337 61.2992 24.2908L92.521 35.6731L93.602 32.6845L87.879 20.3484Z" fill="#C5CEDD"/>
<path d="M96.9085 19.0128L44.7662 -4.53535e-05C44.4482 -0.127222 44.1303 0.254307 44.2575 0.572248L46.2287 4.5783C46.4831 5.02342 46.8646 5.40495 47.3097 5.53213L48.5815 5.97724L87.879 20.3482L93.6655 32.6843L92.5845 35.6729L91.7579 37.8985L104.921 42.6676L106.828 37.517L99.1341 21.0476C98.689 20.0938 97.8623 19.3308 96.9085 19.0128Z" fill="#ECEFF6"/>
<path d="M110.743 42.5468C110.811 28.6749 99.6212 17.3743 85.7493 17.3062C71.8774 17.238 60.5767 28.4282 60.5086 42.3001C60.4405 56.1721 71.6307 67.4727 85.5026 67.5408C99.3745 67.609 110.675 56.4188 110.743 42.5468Z" fill="#4F5D7F"/>
<path d="M102.377 22.574C102.44 26.3893 92.3298 35.7368 85.7167 40.951C79.6122 41.0146 64.4782 40.3787 60.9173 36.8814C60.4086 36.3727 60.345 35.9911 60.345 35.7368C60.345 35.6096 60.345 35.4188 60.4086 35.2917C62.507 27.7883 67.4668 21.811 74.3344 18.568C82.9824 14.4347 93.2837 15.6429 101.932 21.6838C102.25 21.9381 102.377 22.1925 102.377 22.574Z" fill="#FF7F14"/>
<path d="M99.4247 42.4909C99.4621 34.8702 93.3146 28.662 85.6938 28.6245C78.073 28.5871 71.8648 34.7346 71.8274 42.3554C71.79 49.9762 77.9375 56.1844 85.5583 56.2218C93.1791 56.2592 99.3873 50.1117 99.4247 42.4909Z" fill="#EBEFF7"/>
<path d="M86.0981 42.2228C86.0981 42.2228 61.9346 27.7882 64.4146 24.7996C66.8945 21.811 70.0103 19.2674 73.762 17.487C83.5546 12.845 94.301 14.8798 102.631 20.6664C108.481 24.7996 86.0981 42.2228 86.0981 42.2228Z" fill="#FF7F14"/>
<path d="M97.199 42.4803C97.2304 36.0887 92.0744 30.8818 85.6828 30.8504C79.2912 30.819 74.0843 35.975 74.0529 42.3666C74.0215 48.7583 79.1775 53.9651 85.5691 53.9965C91.9608 54.0279 97.1676 48.8719 97.199 42.4803Z" fill="#DAE2ED"/>
<path d="M122.217 41.8408H117.829C117.829 43.4305 117.829 45.0838 117.829 46.6735H122.153C122.089 45.0202 122.089 43.4305 122.217 41.8408Z" fill="#7196FF"/>
<path d="M120.627 52.2694H102.123C101.932 52.2694 101.741 52.0786 101.741 51.8879C101.741 51.6971 101.932 51.5063 102.123 51.5063H120.627C120.818 51.5063 121.008 51.3156 121.008 51.1248V48.1362C121.008 47.9454 121.199 47.7546 121.39 47.7546C121.581 47.7546 121.771 47.9454 121.771 48.1362V51.1248C121.835 51.7607 121.263 52.2694 120.627 52.2694Z" fill="#E4E9F7"/>
<path d="M122.789 49.9166H120.054C119.864 49.9166 119.673 49.7258 119.673 49.535V41.0778C119.673 40.8871 119.864 40.6963 120.054 40.6963H122.789C122.979 40.6963 123.17 40.8871 123.17 41.0778V49.535C123.17 49.7258 123.043 49.9166 122.789 49.9166Z" fill="#18191C"/>
<path d="M122.153 41.8408H123.743C123.933 41.8408 124.124 42.0316 124.124 42.2223C124.124 43.5577 124.124 44.893 124.124 46.2284C124.124 46.4192 123.933 46.6099 123.743 46.6099H122.217C121.008 46.6099 119.991 45.7833 119.737 44.6387C119.546 43.1126 120.69 41.8408 122.153 41.8408Z" fill="#7196FF"/>
<path d="M116.939 66.0681H114.777C114.204 66.0681 113.759 66.5133 113.759 67.0856V71.6639C113.759 72.9357 112.742 73.9531 111.47 73.9531C110.198 73.9531 109.181 72.9357 109.181 71.6639V65.5594V52.0787V52.4603C109.181 51.0613 110.325 49.9167 111.724 49.9167H119.482C120.881 49.9167 122.026 51.0613 122.026 52.4603V60.9811C122.026 63.779 119.737 66.0681 116.939 66.0681Z" fill="#7196FF"/>
<path d="M113.759 49.9166H111.025C110.834 49.9166 110.644 49.7258 110.644 49.535V41.0778C110.644 40.8871 110.834 40.6963 111.025 40.6963H113.759C113.95 40.6963 114.141 40.8871 114.141 41.0778V49.535C114.141 49.7258 113.95 49.9166 113.759 49.9166Z" fill="black"/>
<path d="M112.36 48.136V51.1246C112.36 51.5698 111.979 51.8877 111.597 51.8877H93.0931" stroke="#2F3849" stroke-width="5.08705" stroke-miterlimit="10"/>
<path d="M119.864 43.685C117.829 40.9507 114.586 39.1067 110.898 39.1067H98.4982H95.9547C92.2666 39.1067 89.278 42.0953 89.278 45.7834V57.9924C89.278 60.4723 91.2492 62.4436 93.7291 62.4436H97.608H115.349C119.037 62.4436 122.026 59.4549 122.026 55.7668V50.2346C122.026 47.7547 121.199 45.5291 119.864 43.685Z" fill="#AEC7FF"/>
<path d="M100.406 39.1067H95.891C92.2029 39.1067 89.2142 42.0953 89.2142 45.7834V56.4663C89.2142 58.9462 91.1855 60.9174 93.6654 60.9174H100.469C100.406 53.6048 100.406 46.3557 100.406 39.1067Z" fill="#7196FF"/>
<path d="M97.0356 66.0681H94.8736C94.3013 66.0681 93.8562 66.5132 93.8562 67.0855V71.6638C93.8562 72.9356 92.8388 73.953 91.567 73.953C90.2952 73.953 89.2778 72.9356 89.2778 71.6638V65.5593V48.5177V48.8992C89.2778 47.5003 90.4224 46.3557 91.8214 46.3557H99.5791C100.978 46.3557 102.123 47.5003 102.123 48.8992V60.981C102.123 63.7789 99.8335 66.0681 97.0356 66.0681Z" fill="#7196FF"/>
<path d="M111.597 52.2694H93.0933C92.9026 52.2694 92.7118 52.0786 92.7118 51.8879C92.7118 51.6971 92.9026 51.5063 93.0933 51.5063H111.597C111.788 51.5063 111.979 51.3156 111.979 51.1248V48.1362C111.979 47.9454 112.17 47.7546 112.361 47.7546C112.551 47.7546 112.742 47.9454 112.742 48.1362V51.1248C112.742 51.7607 112.233 52.2694 111.597 52.2694Z" fill="white"/>
<path d="M113.759 49.9166H111.025C110.834 49.9166 110.644 49.7258 110.644 49.535V41.0778C110.644 40.8871 110.834 40.6963 111.025 40.6963H113.759C113.95 40.6963 114.141 40.8871 114.141 41.0778V49.535C114.141 49.7258 113.95 49.9166 113.759 49.9166Z" fill="#18191C"/>
<path d="M113.887 41.8409H104.857C103.394 41.8409 102.186 40.6327 102.186 39.1702H96.527V50.8704H102.186C102.695 47.8817 105.302 46.6736 108.418 46.6736H113.887C115.095 46.6736 116.112 45.8469 116.366 44.7023C116.494 43.1126 115.349 41.8409 113.887 41.8409Z" fill="#7196FF"/>
<path d="M86.1618 54.9401L81.4563 56.2755C80.121 56.657 79.1671 57.8652 79.04 59.2005C78.9128 61.2354 80.5661 62.9522 82.6009 62.7615C83.9998 62.6343 85.1444 61.6805 85.526 60.3451L86.8613 55.6396C87.1792 55.2581 86.6705 54.813 86.1618 54.9401Z" fill="#7196FF"/>
<path d="M91.4678 47.4674L76.0969 50.9919L77.4328 56.818L92.8037 53.2934L91.4678 47.4674Z" fill="#B7C2CE"/>
<path d="M79.994 57.8014L60.7267 64.4146C60.3452 64.5418 59.9637 64.4782 59.6457 64.2238C58.8191 63.5879 57.3566 62.0618 56.5299 58.5009C55.7033 54.94 56.4027 52.9051 56.8479 52.0149C57.0386 51.697 57.3566 51.4426 57.7381 51.379L77.9591 48.8991C78.3407 48.8355 78.7222 49.0898 78.8494 49.535L80.5663 56.9112C80.6298 57.2927 80.3755 57.6742 79.994 57.8014Z" fill="#C5CEDD"/>
<path d="M88.9168 47.5237L76.5513 57.1033L80.2118 61.8283L92.5773 52.2487L88.9168 47.5237Z" fill="#D0D9EA"/>
<path d="M82.9826 61.6806L68.2938 75.7336C68.0394 75.9879 67.5943 76.1151 67.2128 76.0515C66.1953 75.8607 64.2241 75.0341 61.9985 72.1726C59.7729 69.3112 59.5186 67.1492 59.5822 66.1318C59.5822 65.7502 59.8365 65.3687 60.1545 65.1779L77.4505 54.4315C77.7684 54.2408 78.2135 54.3043 78.4679 54.6223L83.1098 60.5996C83.3006 60.9175 83.237 61.4262 82.9826 61.6806Z" fill="#EBEFF7"/>
<path d="M95.573 37.9619H117.829C121.899 37.9619 125.142 34.6553 125.142 30.6493V19.267C125.142 15.1973 121.835 11.9543 117.829 11.9543H95.573C91.5034 11.9543 88.2604 15.2609 88.2604 19.267V30.6493C88.2604 34.7189 91.567 37.9619 95.573 37.9619Z" fill="#7196FF"/>
<path d="M113.759 32.9386H121.072C124.697 32.9386 127.558 30.0135 127.558 26.4526V22.6373C127.558 21.3019 126.477 20.2209 125.142 20.2209H108.863C107.528 20.2209 106.447 21.3019 106.447 22.6373V25.6259C106.447 29.6956 109.69 32.9386 113.759 32.9386Z" fill="#AEC7FF"/>
<path d="M101.551 26.5795C102.885 26.5795 103.967 25.4977 103.967 24.1632C103.967 22.8287 102.885 21.7468 101.551 21.7468C100.216 21.7468 99.1342 22.8287 99.1342 24.1632C99.1342 25.4977 100.216 26.5795 101.551 26.5795Z" fill="#202225"/>
<path d="M121.263 30.0136H123.297C123.87 30.0136 124.315 29.5685 124.315 28.9962C124.315 28.4239 123.87 27.9788 123.297 27.9788H121.263C120.69 27.9788 120.245 28.4239 120.245 28.9962C120.245 29.5685 120.754 30.0136 121.263 30.0136Z" fill="#7196FF"/>
<path d="M114.395 30.0136H117.257C117.829 30.0136 118.274 29.5685 118.274 28.9962C118.274 28.4239 117.829 27.9788 117.257 27.9788H114.395C113.823 27.9788 113.378 28.4239 113.378 28.9962C113.378 29.5685 113.823 30.0136 114.395 30.0136Z" fill="#7196FF"/>
<path opacity="0.3" d="M126.095 16.2149C126.095 16.2149 132.518 25.8167 125.587 36.8175L121.644 39.1066L96.3998 38.0256L90.3589 29.8864L96.4633 13.5442H118.02L126.095 16.2149Z" fill="#7196FF"/>
<path d="M106.002 7.18555C91.3127 7.18555 83.1735 17.1053 83.1735 25.3082C83.1735 33.5111 92.7753 34.2105 95.0645 28.424L99.8336 15.8971L120.818 18.6314L126.095 16.2787C124.124 13.0357 116.875 7.18555 106.002 7.18555Z" fill="#EBEFF7"/>
<path d="M93.5383 29.8863L106.765 36.881H125.65L123.806 39.9332H88.3876L84.318 28.8689L93.5383 29.8863Z" fill="#EBEFF7"/>
<path d="M112.996 5.97729L112.615 8.39365C114.523 9.91976 116.303 11.7638 117.766 13.9258L119.928 8.96594C118.211 7.69418 115.858 6.93112 112.996 5.97729Z" fill="#FF7F14"/>
<path d="M117.829 13.9259L119.991 8.96606L121.835 13.9259H117.829Z" fill="#FF7F14"/>
<path d="M90.4223 20.2845L86.4798 21.5562L84.7629 14.5615C84.5722 13.7349 85.0173 12.9082 85.8439 12.6539C86.6706 12.3995 87.5608 12.8446 87.8152 13.6077L90.4223 20.2845Z" fill="#C5CEDD"/>
<path d="M96.3799 27.7338C96.9378 23.2026 94.2819 19.1466 90.4478 18.6746C86.6137 18.2025 83.0533 21.4931 82.4954 26.0243C81.9375 30.5555 84.5934 34.6114 88.4275 35.0835C92.2616 35.5556 95.822 32.265 96.3799 27.7338Z" fill="#DAE2ED"/>
<path d="M89.2779 21.0476C86.5436 20.7296 84.0637 23.0824 83.6186 26.2618C83.1735 29.4412 85.0811 32.3663 87.8154 32.6842C90.5497 33.0022 93.0296 30.6494 93.4748 27.47C93.8563 24.227 91.9486 21.3655 89.2779 21.0476Z" fill="#FF903E"/>
<path d="M87.5609 28.9961L87.1157 28.8054C86.9886 28.7418 86.925 28.6146 86.9886 28.4874L88.5783 24.6721C88.6419 24.545 88.769 24.4814 88.8962 24.545L89.3413 24.7357C89.4685 24.7993 89.5321 24.9265 89.4685 25.0537L87.8788 28.869C87.8788 28.9961 87.688 28.9961 87.5609 28.9961Z" fill="#FF7F14"/>
<path d="M70.9644 20.3484L31.7305 6.04102L38.2801 18.8858C39.5518 21.3658 41.7774 23.337 44.3845 24.2908L75.6699 35.6731L76.7509 32.6845L70.9644 20.3484Z" fill="#DAE2ED"/>
<path d="M79.9938 19.0131L27.8515 0.000198787C27.5336 -0.126978 27.2156 0.254552 27.3428 0.572492L29.314 4.57855C29.5684 5.02367 29.9499 5.40519 30.395 5.53237L31.6668 5.97749L70.9643 20.3484L76.7508 32.6845L75.6698 35.6732L74.8432 37.8988L88.0059 42.6679L89.9136 37.5172L82.2194 21.0479C81.7743 20.0941 80.9476 19.331 79.9938 19.0131Z" fill="#ECEFF6"/>
<path d="M92.8389 56.0847H87.7518V39.1067H94.8101V54.0499C94.8101 55.1945 93.9199 56.0847 92.8389 56.0847Z" fill="#18191C"/>
<path d="M91.8851 42.7949H83.7458C83.0463 42.7949 82.474 42.2226 82.474 41.5231V37.1355C82.474 36.4361 83.0463 35.8638 83.7458 35.8638H91.8851C92.5845 35.8638 93.1568 36.4361 93.1568 37.1355V41.5231C93.0932 42.2226 92.5209 42.7949 91.8851 42.7949Z" fill="#FF5C5C"/>
<path d="M94.8102 44.9569H88.3878C86.6709 44.9569 85.2084 43.5579 85.2084 41.7775V36.8176C85.2084 35.1007 86.6073 33.6382 88.3878 33.6382H94.8102C95.4461 33.6382 96.0184 34.1469 96.0184 34.8464V43.7487C96.0184 44.4482 95.4461 44.9569 94.8102 44.9569Z" fill="#D0D9EA"/>
</g>
<defs>
<clipPath id="clip0">
<rect width="185.678" height="84" fill="white"/>
</clipPath>
</defs>
</svg>
