<svg height="527.03003" width="389.39999" xmlns="http://www.w3.org/2000/svg"><g transform="matrix(10 0 0 -10 -3975.93 3263.27)"><path d="m397.875 326.045h38.376v-52.138h-38.376z" fill="#1b1615"/><g fill="#fff"><path d="m435.967 274.189h-37.807v51.571h37.807zm.566 52.138h-.566-37.807-.567v-.567-51.571-.565h.567 37.807.566v.565 51.571z"/><path d="m433.932 323.833h-33.722v-7.867h33.722z"/><path d="m400.274 314.023h33.661v-30.673h-33.661z"/><g><path d="m400.3113 276.6545v4.612h6.781v-1.079h-4.057v-.659h3.431v-1.075h-3.431v-.723h4.215v-1.076z"/><path d="m413.0083 279.9231c-.043.157-.195.256-.392.314-.196.057-.435.085-.705.085-.599 0-.864-.098-.864-.27 0-.682 4.777-.255 4.777-1.932 0-1.069-1.606-1.589-3.888-1.589-2.194 0-3.624.711-3.683 1.545h2.609c.057-.169.221-.287.45-.363.22-.079.505-.116.776-.116.681 0 1.135.118 1.135.336 0 .698-4.786.218-4.786 1.977 0 .981 1.526 1.473 3.605 1.473 2.304 0 3.358-.654 3.556-1.46z"/><path d="m419.9022 279.2679h1.073c.844 0 1.294.122 1.294.438 0 .326-.459.481-1.096.481h-1.271zm0-1.007v-1.606h-2.721v4.612h3.924c2.768 0 3.679-.423 3.679-1.318 0-.534-.423-.975-1.392-1.13.875-.177 1.407-.287 1.407-1.217 0-.601-.036-.808.286-.808v-.139h-2.758c-.067.103-.137.396-.137.807 0 .605-.186.799-1.455.799z"/><path d="m429.1831 280.1874v-.772h1.135c.541 0 .937.141.937.405 0 .359-.538.367-1.111.367zm0-1.607v-.85h1.188c.676 0 1.182.077 1.182.421 0 .404-.633.429-1.505.429zm-2.721-1.926v4.612h3.971c1.874 0 3.361-.248 3.361-1.163 0-.475-.556-.819-1.087-1 .9-.129 1.383-.562 1.383-1.058 0-1.027-1.419-1.391-3.578-1.391z"/></g></g><g fill="#1b1615"><path d="m401.1904 317.1413v5.31h2.131v-.816h-1.315v-1.31h1.21v-.816h-1.21v-1.553h1.358v-.815z"/><path d="m403.5799 322.4517h.848l.606-3.862h.011l.68 3.862h.807l-1.033-5.31h-.957z"/><path d="m406.8997 317.1413v5.31h2.128v-.816h-1.312v-1.31h1.21v-.816h-1.21v-1.553h1.356v-.815z"/><path d="m410.401 317.1413h-.814v5.31h1.505c.281 0 .504-.116.668-.352s.247-.582.247-1.037c0-.339-.055-.625-.167-.862-.108-.236-.295-.383-.557-.442v-.014c.042-.009.104-.024.184-.044.078-.019.155-.064.234-.132.078-.07.145-.171.203-.306.057-.134.085-.322.085-.564 0-.082.003-.2.004-.351.001-.153.006-.31.014-.473.008-.16.015-.31.03-.448.012-.136.027-.232.046-.285h-.8c-.055.16-.084.329-.085.507 0 .175-.004.35-.004.521 0 .158 0 .307-.001.449-.002.142-.02.267-.054.372-.035.105-.092.19-.174.253-.081.064-.199.097-.353.097h-.211zm0 3.015h.361c.08 0 .145.024.201.075.054.048.097.109.129.187.034.076.059.16.07.253s.018.181.018.264c0 .256-.037.436-.112.54-.074.107-.174.16-.306.16h-.361z"/><path d="m413.2451 318.9787-1.023 3.473h.891l.584-2.244.622 2.244h.832l-1.09-3.473v-1.837h-.816z"/><path d="m416.8381 317.0519c-.333 0-.594.077-.778.231s-.318.361-.401.618c-.08.258-.13.551-.145.879-.015.329-.022.668-.022 1.016 0 .353.007.694.022 1.022.015.329.065.621.145.876.083.256.217.46.401.615.184.154.445.231.778.231.335 0 .595-.077.779-.231.183-.155.316-.359.4-.615.084-.255.132-.547.145-.876.015-.328.022-.669.022-1.022 0-.348-.007-.687-.022-1.016-.013-.328-.061-.621-.145-.879-.084-.257-.217-.464-.4-.618-.184-.154-.444-.231-.779-.231m0 .795c.117 0 .208.037.276.114.068.076.12.192.156.349.037.157.06.359.072.607.009.247.016.54.016.879s-.007.632-.016.879c-.012.248-.035.45-.072.607-.036.157-.088.273-.156.35-.068.076-.159.113-.276.113-.114 0-.207-.037-.276-.113-.067-.077-.12-.193-.156-.35s-.059-.359-.069-.607c-.012-.247-.017-.54-.017-.879s.005-.632.017-.879c.01-.248.033-.45.069-.607s.089-.273.156-.349c.069-.077.162-.114.276-.114"/><path d="m418.8384 317.1413v5.31h1.103l1.039-3.678h.009v3.678h.763v-5.31h-1.076l-1.066 3.883h-.01v-3.883z"/><path d="m422.4387 317.1413v5.31h2.13v-.816h-1.314v-1.31h1.21v-.816h-1.21v-1.553h1.356v-.815z"/><path d="m426.2646 321.6106c.137.107.268.225.396.356.124.132.236.285.333.462h.726v-5.287h-.817v4.068c-.098-.117-.2-.223-.308-.318-.109-.096-.218-.188-.33-.274z"/><path d="m429.601 322.4973c.229 0 .416-.046.561-.137.145-.09.256-.24.333-.453s.13-.491.155-.835c.028-.343.043-.767.043-1.272 0-.415-.01-.79-.028-1.126-.02-.336-.065-.623-.138-.86-.075-.237-.185-.421-.33-.55-.145-.127-.345-.192-.596-.192-.257 0-.457.065-.602.192-.143.129-.253.313-.327.55-.073.237-.119.524-.136.86-.019.336-.027.711-.027 1.126 0 .505.013.929.039 1.272.027.344.079.622.157.835s.188.363.33.453c.143.091.331.137.566.137m0-.773c-.084 0-.146-.026-.191-.075-.043-.051-.074-.146-.095-.285-.023-.139-.037-.334-.039-.588-.005-.252-.005-.583-.005-.992 0-.399.003-.724.007-.978.006-.252.021-.449.043-.59.025-.142.057-.239.101-.292.043-.053.103-.079.179-.079.075 0 .136.026.177.079.044.053.076.15.099.292.024.141.039.338.043.59.007.254.01.579.01.978 0 .409-.003.74-.006.992-.004.254-.016.449-.036.588-.022.139-.056.234-.101.285-.046.049-.107.075-.186.075"/><path d="m431.8538 321.4214h.6v-1.45h.913v-.817h-.913v-1.449h-.6v1.449h-.92v.817h.92z"/></g><path d="m410.9115 290.952c.013 2.643 1.065 3.256 2.268 3.254 1.348-.007 2.113-1.011 2.103-3.329-.007-1.445-.399-3.219-2.125-3.209-1.689.008-2.256 1.353-2.246 3.284m8.1864-.4074h-1.356v-.745h1.356v-1.313h.769v1.313h1.362v.745h-1.362v1.316h-.769zm-2.162.333c0 2.619-1.407 4.169-3.74 4.169-3.157 0-3.932-2.149-3.932-4.169 0-2.466 1.24-4.169 3.837-4.169 2.591 0 3.835 1.703 3.835 4.169m-13.206 16.642 19.087 5.686 1.914-6.028-9.564-2.844.784-2.467 8.834 2.628 1.909-6.032-8.827-2.625.823-2.598 9.874 2.943 1.917-6.026-19.398-5.781zm.726-15.248c.933.272 1.866.67 2.373 1.141v-6.307h1.792v7.908h-1.746c-.66-.561-1.334-.88-2.419-1.213z" fill="#1b1615"/><path d="m431.058 286.2836c.316.008.392.137.392.284 0 .154-.076.233-.348.233h-.405v-.517zm-.361-.317v-.865h-.339v2.016h.705c.396 0 .803-.102.803-.557 0-.231-.146-.417-.435-.474v-.006c.293-.054.331-.183.365-.4.03-.187.053-.399.128-.579h-.432c-.025.113-.059.246-.071.36-.024.173-.024.338-.122.431-.086.074-.201.065-.319.074zm1.908.117c0 .777-.674 1.406-1.513 1.406-.842 0-1.525-.629-1.525-1.406 0-.779.683-1.416 1.525-1.416.839 0 1.513.637 1.513 1.416m-3.365 0c0 .944.821 1.709 1.852 1.709 1.016 0 1.838-.765 1.838-1.709 0-.948-.822-1.716-1.838-1.716-1.031 0-1.852.768-1.852 1.716" fill="#1b1615"/></g></svg>