<svg id="art" xmlns="http://www.w3.org/2000/svg" xmlns:xlink="http://www.w3.org/1999/xlink" viewBox="0 0 280 168"><defs><style>.cls-1{fill:#242438;}.cls-2{fill:#dae6ff;}.cls-3,.cls-4{fill:#1c1b29;}.cls-4,.cls-6{fill-rule:evenodd;}.cls-5{fill:#e6366b;}.cls-11,.cls-6{fill:#fff;}.cls-7{fill:#3f99f2;}.cls-8{fill:#ff78b9;}.cls-9{fill:#91ffad;}.cls-10{fill:#ff78b8;}.cls-12{fill:#5865f2;}.cls-13{fill:#e53794;}.cls-14{fill:#8cd9ff;}.cls-15{fill:url(#linear-gradient);}.cls-16{fill:url(#linear-gradient-2);}.cls-17{fill:#606dff;}.cls-18,.cls-23,.cls-25{fill:none;stroke-linecap:round;}.cls-18,.cls-25{stroke:#000;}.cls-18,.cls-23{stroke-miterlimit:10;}.cls-18{stroke-width:0.64px;}.cls-19{fill:url(#linear-gradient-3);}.cls-20{fill:#ffd635;}.cls-21{fill:#d11583;}.cls-22{fill:#ffe75c;}.cls-23{stroke:#ffc619;}.cls-23,.cls-25{stroke-width:1.63px;}.cls-24{fill:#ff8c19;}.cls-25{stroke-linejoin:round;}</style><linearGradient id="linear-gradient" x1="197.5" y1="124.35" x2="189.62" y2="65.74" gradientTransform="matrix(-1, 0, 0, 1, 424, 0)" gradientUnits="userSpaceOnUse"><stop offset="0" stop-color="#fff"/><stop offset="1" stop-color="#8bd8ff"/></linearGradient><linearGradient id="linear-gradient-2" x1="113.74" y1="107.1" x2="115.26" y2="96.65" gradientTransform="matrix(-0.68, -0.73, -0.77, 0.63, 386.62, 111.79)" gradientUnits="userSpaceOnUse"><stop offset="0" stop-color="#5765f1"/><stop offset="1" stop-color="#2536d3"/></linearGradient><linearGradient id="linear-gradient-3" x1="116.44" y1="117.08" x2="117.55" y2="109.48" gradientTransform="matrix(-0.68, -0.73, -0.77, 0.63, 393.87, 117.76)" xlink:href="#linear-gradient-2"/></defs><rect class="cls-1" width="280" height="168"/><circle class="cls-2" cx="103.79" cy="147.31" r="10.16"/><path class="cls-3" d="M107.83,145.68a.42.42,0,0,0-.42,0l-1.08.54v-1a.85.85,0,0,0-.84-.85H100.4a.85.85,0,0,0-.84.85v4.24a.85.85,0,0,0,.84.84h5.09a.85.85,0,0,0,.84-.84v-1l1.08.54a.43.43,0,0,0,.19,0,.46.46,0,0,0,.23-.06.43.43,0,0,0,.2-.36V146A.43.43,0,0,0,107.83,145.68Z"/><circle class="cls-2" cx="127.93" cy="147.31" r="10.16"/><path class="cls-4" d="M123.7,144.56a.85.85,0,0,1,.84-.85h6.78a.85.85,0,0,1,.85.85v4.65a.85.85,0,0,1-.85.85h-3v.85h1.7v.85h-4.24v-.85h1.7v-.85h-3a.85.85,0,0,1-.84-.85Zm4.74,4.16v-1.16a3.39,3.39,0,0,0-3,1.44,3.51,3.51,0,0,1,3-3.1v-1.13l2,2Z"/><circle class="cls-2" cx="152.07" cy="147.31" r="10.16"/><path class="cls-3" d="M149.82,146.89h-.72a2.73,2.73,0,0,0,.39,1.38l.52-.52A2,2,0,0,1,149.82,146.89Z"/><path class="cls-3" d="M150.8,146.92s0,0,0,0l2.53-2.54v-.08a1.27,1.27,0,1,0-2.54,0v2.58Z"/><path class="cls-3" d="M152,149l-.32.32-.3.31a3,3,0,0,0,.32.06v1.81h.84v-1.81a3,3,0,0,0,2.54-2.84h-.72a2.19,2.19,0,0,1-2.24,2.16Z"/><path class="cls-3" d="M155.88,144l-.54-.54-7.08,7.08.54.54,1.77-1.77.52-.52.7-.71,1.55-1.54Z"/><circle class="cls-5" cx="176.21" cy="147.31" r="10.16"/><path class="cls-6" d="M180.07,142.7l.75.75-1.32,1.32,1.32,1.32-.75.75-1.32-1.32-1.32,1.32-.75-.75,1.32-1.32-1.32-1.32.75-.75,1.32,1.32Zm-1.32,8.84h-2.12a4.66,4.66,0,0,1-4.66-4.65v-2.12a.43.43,0,0,1,.43-.43h1.69a.42.42,0,0,1,.42.43v1.69a.42.42,0,0,1-.42.43h-.42a2.92,2.92,0,0,0,3,3v-.42a.42.42,0,0,1,.42-.43h1.7a.42.42,0,0,1,.42.43v1.69A.42.42,0,0,1,178.75,151.54Z"/><rect class="cls-7" x="199.5" y="78.28" width="69.03" height="40.65"/><path class="cls-8" d="M193.57,19H11.47V131.64h182.1Z"/><rect class="cls-9" x="199.5" y="31.7" width="69.03" height="40.65"/><path class="cls-10" d="M259.59,72.35A25.61,25.61,0,0,0,236.9,43.76,24.39,24.39,0,0,0,210,64a25.06,25.06,0,0,0,.05,8.38Z"/><ellipse class="cls-11" cx="220.91" cy="52.02" rx="6.69" ry="4.96" transform="translate(139.9 264.03) rotate(-82.34)"/><path class="cls-12" d="M220.51,59.65a4.88,4.88,0,0,1-3.5-1.52,8,8,0,0,1-2-6h0c.18-4.17,3-7.65,6.21-7.74a4.78,4.78,0,0,1,3.64,1.51,8.07,8.07,0,0,1,2.05,6c-.19,4.24-2.91,7.64-6.21,7.74Zm.8-13.33h-.08c-2.22.06-4.21,2.76-4.34,5.89h0a6.19,6.19,0,0,0,1.49,4.56,2.93,2.93,0,0,0,2.21.94c2.22-.07,4.2-2.76,4.34-5.89a6.15,6.15,0,0,0-1.5-4.56A3,3,0,0,0,221.31,46.32Z"/><ellipse class="cls-11" cx="233.87" cy="53.57" rx="6.8" ry="5.22" transform="translate(149.59 278.21) rotate(-82.34)"/><path class="cls-12" d="M233.5,61.32a5.29,5.29,0,0,1-3.74-1.62,8.13,8.13,0,0,1-2.1-6c.17-4.24,3.06-7.75,6.45-7.84A5.24,5.24,0,0,1,238,47.45a8.13,8.13,0,0,1,2.1,6c-.17,4.24-3.07,7.75-6.46,7.84Zm.74-13.56h-.08c-2.39.06-4.44,2.75-4.57,6h0a6.29,6.29,0,0,0,1.55,4.6,3.42,3.42,0,0,0,2.44,1c2.39-.06,4.44-2.75,4.57-6a6.29,6.29,0,0,0-1.55-4.6A3.26,3.26,0,0,0,234.24,47.76Z"/><ellipse cx="232.58" cy="55.38" rx="2.14" ry="1.4" transform="translate(152.03 280.48) rotate(-83.7)"/><ellipse cx="219.72" cy="53.6" rx="1.83" ry="1.25" transform="translate(154.44 270.14) rotate(-86.93)"/><rect class="cls-12" x="226.39" y="49.52" width="1.93" height="3.04" transform="translate(151.41 271.33) rotate(-83.63)"/><path d="M228.16,60l-4.84-.19a.87.87,0,0,0-.9,1c.28,2.23,1.46,6.88,6.39.62A.87.87,0,0,0,228.16,60Z"/><path class="cls-13" d="M224.93,62.35a6.84,6.84,0,0,1,3.18-.12c-2.94,3.35-4.39,2.46-5.1.87A8.63,8.63,0,0,1,224.93,62.35Z"/><polygon class="cls-14" points="244.45 81.77 251.34 89.54 245.07 118.94 227.08 118.94 244.45 81.77"/><polygon class="cls-15" points="222.91 81.77 244.45 81.77 236.55 118.93 215 118.93 222.91 81.77"/><ellipse class="cls-16" cx="230.17" cy="92.03" rx="6.82" ry="5.74" transform="translate(5.97 197.78) rotate(-47.05)"/><path class="cls-17" d="M235.25,94.82a7.92,7.92,0,0,1-3.84,3.12l-.78-3.37,1.61-1.33Z"/><ellipse class="cls-18" cx="230.48" cy="92.27" rx="4.44" ry="3.74" transform="translate(5.89 198.08) rotate(-47.05)"/><ellipse class="cls-11" cx="230.55" cy="92.25" rx="3.71" ry="3.13" transform="translate(5.94 198.13) rotate(-47.05)"/><ellipse cx="229.91" cy="91.59" rx="2" ry="1.69" transform="translate(6.21 197.45) rotate(-47.05)"/><ellipse class="cls-19" cx="226.94" cy="103.35" rx="4.96" ry="4.18" transform="translate(-3.34 199.02) rotate(-47.05)"/><path class="cls-17" d="M230.64,105.38a5.82,5.82,0,0,1-2.8,2.27l-.57-2.45,1.18-1Z"/><ellipse class="cls-18" cx="227.16" cy="103.52" rx="3.23" ry="2.72" transform="translate(-3.4 199.24) rotate(-47.05)"/><ellipse class="cls-11" cx="227.22" cy="103.5" rx="2.39" ry="2.01" transform="translate(-3.37 199.28) rotate(-47.05)"/><ellipse cx="226.81" cy="103.08" rx="1.29" ry="1.09" transform="translate(-3.19 198.84) rotate(-47.05)"/><path d="M230,115.87a9.94,9.94,0,0,1-2.14-.28c-2.89-.65-5.44-2.26-5.79-3.68a1.22,1.22,0,0,1,.21-1.08,3,3,0,0,1,2.4-.79,10.06,10.06,0,0,1,2.15.26c.29.07.58.14.86.23a1.74,1.74,0,0,0,.45.06,1,1,0,0,0,.82-.34,6.12,6.12,0,0,1,.45-.56,4.69,4.69,0,0,1,3.28-1.7,2.21,2.21,0,0,1,1.71.73c1.13,1.26.73,3.66-.89,5.46a5,5,0,0,1-2.39,1.57A4.81,4.81,0,0,1,230,115.87Z"/><path class="cls-12" d="M232.72,108.31a1.93,1.93,0,0,1,1.48.62c1,1.13.6,3.38-.9,5a3.93,3.93,0,0,1-3.27,1.58,9.75,9.75,0,0,1-2.07-.27c-2.75-.61-5.23-2.16-5.55-3.45-.24-.93.72-1.47,2.3-1.47a9.76,9.76,0,0,1,2.08.25c.28.06.56.14.84.22a2.08,2.08,0,0,0,.54.08,1.32,1.32,0,0,0,1.08-.48c.13-.18.27-.36.42-.53a4.39,4.39,0,0,1,3.05-1.59m0-.64a5,5,0,0,0-3.52,1.81c-.16.18-.32.38-.47.58a.7.7,0,0,1-.56.22,1.13,1.13,0,0,1-.36-.06l-.88-.23a10.16,10.16,0,0,0-2.22-.27,3.24,3.24,0,0,0-2.65.92,1.5,1.5,0,0,0-.27,1.35c.44,1.76,3.44,3.33,6,3.91a10.42,10.42,0,0,0,2.21.29,4.94,4.94,0,0,0,1.2-.14,5.3,5.3,0,0,0,2.55-1.66c1.73-1.92,2.12-4.5.89-5.88a2.52,2.52,0,0,0-1.95-.84Z"/><path class="cls-11" d="M222.64,110.93c.61-.6,2.18-.76,4.15-.32.28.06.56.14.84.22a1.48,1.48,0,0,0,1.62-.4c.13-.18.27-.36.42-.53,1.31-1.44,3-2,4.09-1.32a2.22,2.22,0,0,1-1.5,1.36,2.46,2.46,0,0,1-1.32,2.22,2.2,2.2,0,0,1-2.26-.07,2.44,2.44,0,0,1-.88.84,1.87,1.87,0,0,1-2.7-1c0-.1-.06-.2-.08-.3l0,0A1.64,1.64,0,0,1,222.64,110.93Z"/><path class="cls-20" d="M27.41,66.25a25.62,25.62,0,0,1,6.67-2.61,3,3,0,0,1,2.87.87c1.64,1.73,4.82,4.75,7.84,5.59l-1.2-4a1.83,1.83,0,0,1,3.28-1.64l3.63,5.61,2,2.81s28.84,32.12,31.86,37l-4.76,11.2-34-40.65L44.4,79.32a13,13,0,0,1-11.69-2,32.84,32.84,0,0,1-6.33-7A3,3,0,0,1,27.41,66.25Z"/><path class="cls-20" d="M120.18,107.08l10.32,6.55a3.72,3.72,0,0,0,4,0c4.9-3,18.78-11.53,18.78-11.53l3-1.63L162,97.12a1.92,1.92,0,0,1,2.53.36,1.94,1.94,0,0,1-.34,2.57l-1.44,1.37a4.16,4.16,0,0,0,3.91-.5,41,41,0,0,1,5.51-4,1.31,1.31,0,0,1,1.45.18c.3.26,1.7,1,1.69,2.31,0,.64-4.91,3.16-4.64,3.55s5.15-1.85,6.62-1.3c.76.29,2.43,5.59,1.33,6.53s-3.36,2.37-11.17,4.24a14.26,14.26,0,0,1-3.37.41,9.77,9.77,0,0,1-5-1.27A2.57,2.57,0,0,0,156,112c-5.08,5.4-14.11,14.36-20.33,15.37-8.37,1.36-24-10.47-36.27-21.59C109,99.4,111.57,101.64,120.18,107.08Z"/><path class="cls-11" d="M108.25,103.09l-23.5-.8c-10.56,14-6.13,20.54-2.21,29.35h34.87s1.19-4.25,2.14-8C121.42,116.19,119.71,110.4,108.25,103.09Z"/><path class="cls-21" d="M101.66,79.44,68.27,72.16C78.62,95.47,87.13,99.89,93.21,99S102.47,89.8,101.66,79.44Z"/><path class="cls-21" d="M101.66,79.44l19-19.46c.6,25.58-4.37,31.07-8.77,32.59S103.78,89.49,101.66,79.44Z"/><path class="cls-22" d="M122.2,78.7C118.05,68,92,60.27,86.53,62.25,81.37,64.13,66.79,82,69.19,93.45s15.8,16.87,31.57,13S126.65,90.2,122.2,78.7Z"/><path class="cls-22" d="M87.92,71C79,63.77,70.53,60.37,59.32,57,50.83,54.42,51,46.51,60.73,46.12S82,53.71,88.63,61.94c6-16.17,6.52-21.75,14.53-21.57s12.3,7.89,13.67,11.59c1.08,2.89,1,5.27-3.3,6.33s-7.65-1.76-10-5.54a112.93,112.93,0,0,1-8.28,17.06C93,73.38,92,74.33,87.92,71Z"/><line class="cls-23" x1="94.79" y1="61.68" x2="99.91" y2="49.24"/><path class="cls-24" d="M101.66,79.45C102.47,89.8,99.3,98.14,93.21,99c-5.35.78-12.58-2.55-21.3-19.26a49.4,49.4,0,0,1,3.48-6Z"/><path class="cls-24" d="M120.19,75.4c-1.32,12.61-5,16-8.3,17.18-4.4,1.53-8.11-3.09-10.23-13.13L111.88,69A29.33,29.33,0,0,1,120.19,75.4Z"/><line class="cls-25" x1="111.42" y1="79.28" x2="112.88" y2="76.45"/><line class="cls-25" x1="112.01" y1="80.77" x2="114.77" y2="78.16"/><line class="cls-25" x1="89.51" y1="85.1" x2="86.89" y2="82.18"/><line class="cls-25" x1="89.76" y1="86.75" x2="84.05" y2="84.66"/><ellipse class="cls-11" cx="92.6" cy="86.7" rx="5.83" ry="4.87" transform="translate(-26.86 129.39) rotate(-62.78)"/><path class="cls-11" d="M113.25,81.36c.34-3-1.26-5.37-3.57-5.48S105,78,104.42,81c-.6,3.19,1,5.94,3.58,6S112.89,84.48,113.25,81.36Z"/><ellipse cx="110.16" cy="81.52" rx="1.63" ry="2.12"/><ellipse cx="94.9" cy="85.92" rx="1.63" ry="2.12" transform="translate(-9.41 11.71) rotate(-6.73)"/><path d="M108.26,96.11c-2.08,6.81-5.64,3.44-7.36,1.21a1.08,1.08,0,0,1,.69-1.72l5.46-.88A1.09,1.09,0,0,1,108.26,96.11Z"/><path d="M99.53,47.11a.85.85,0,0,0-1.3,1.11,72,72,0,0,1,4.49,6.52c.27-.67.53-1.33.76-2A62.07,62.07,0,0,0,99.53,47.11Z"/><path class="cls-23" d="M60.29,53.07C73.78,55,81,60.2,87.37,66.06"/><path class="cls-24" d="M101.15,89.11c1.1-5.7.78-6.56,3.32-1.08l.51-.13-2.09-8.52-1.23.07L99.25,80.7l1.26,8.45Z"/><path class="cls-10" d="M105,97.06a4.71,4.71,0,0,1,2.63.74c-1.76,3.73-4.19,2.28-5.85.52A4.35,4.35,0,0,1,105,97.06Z"/><path d="M41.53,70.94c-3.29-.93-6.28-4.32-8.24-7.09-.5.14-1,.3-1.62.5,2,3.05,5.39,7,9.42,8.16a.83.83,0,0,0,.22,0,.81.81,0,0,0,.22-1.6Z"/><path d="M37.69,72.9c-3.47-1-6.62-4.7-8.56-7.55-.49.23-1,.48-1.45.74,2,3.08,5.45,7.22,9.57,8.38a.83.83,0,0,0,.22,0,.81.81,0,0,0,.22-1.6Z"/><path d="M178.47,103.9a27.27,27.27,0,0,1-10,3,.8.8,0,0,0-.85.56.81.81,0,0,0,.52,1,.85.85,0,0,0,.29,0,27.34,27.34,0,0,0,10.44-3A15.49,15.49,0,0,0,178.47,103.9Z"/><path class="cls-14" d="M171.41,45.88A7.56,7.56,0,0,1,168,40.66L167.5,37a.38.38,0,0,0-.37-.31h0a.37.37,0,0,0-.36.31l-.55,3.65a7.56,7.56,0,0,1-3.37,5.22l-.47.3a.37.37,0,0,0-.17.31v0a.36.36,0,0,0,.17.31l.47.31a7.52,7.52,0,0,1,3.37,5.22l.55,3.64a.37.37,0,0,0,.36.32h0a.38.38,0,0,0,.37-.32l.54-3.64a7.52,7.52,0,0,1,3.37-5.22l.48-.31a.37.37,0,0,0,.16-.31v0a.38.38,0,0,0-.16-.31Z"/><path class="cls-9" d="M157.55,61.5a4.49,4.49,0,0,1-2-3.09l-.33-2.16a.21.21,0,0,0-.21-.19h0a.22.22,0,0,0-.22.19l-.32,2.16a4.47,4.47,0,0,1-2,3.09l-.28.18a.22.22,0,0,0-.1.18h0a.23.23,0,0,0,.1.19l.28.18a4.45,4.45,0,0,1,2,3.09l.32,2.16a.22.22,0,0,0,.22.19h0a.21.21,0,0,0,.21-.19l.33-2.16a4.47,4.47,0,0,1,2-3.09l.29-.18a.22.22,0,0,0,.09-.19h0a.21.21,0,0,0-.09-.18Z"/></svg>