<svg xmlns="http://www.w3.org/2000/svg" width="24" height="24" viewBox="0 0 24 24">
  <g fill="none" fill-rule="evenodd">
    <path fill="#FFFFFF" d="M22,11.0722236 C20.8233065,10.390555 19.4571486,10 18,10 C15.4762085,10 13.2205985,11.1734429 11.75301,13.0055461 C10.0231272,13.0802068 7,13.9088081 7,15.5 L7,17 L10.0620401,17 C10.0210962,17.3275942 10,17.6613397 10,18 C10,18.6902735 10.0877804,19.3604854 10.2528087,20 L4,20 C2.9,20 2,19.1 2,18 L2,6 C2,4.9 2.9,4 4,4 L20,4 C21.1,4 22,4.9 22,6 L22,11.0722236 Z M12,6.75 C10.76,6.75 9.75,7.76 9.75,9 C9.75,10.24 10.76,11.25 12,11.25 C13.24,11.25 14.25,10.24 14.25,9 C14.25,7.76 13.24,6.75 12,6.75 Z" opacity=".6"/>
    <rect width="24" height="24"/>
  </g>
</svg>
