<svg width="272" height="222" viewBox="0 0 272 222" fill="none" xmlns="http://www.w3.org/2000/svg">
<g clip-path="url(#clip0)">
<g clip-path="url(#clip1)">
<path d="M12.0979 167.543C11.9054 167.44 11.6687 167.463 11.5 167.602L9.25312 169.448L6.24354 168.103C5.8693 167.936 5.40547 168.317 5.49666 168.716L6.2322 171.929L3.98529 173.775C3.81663 173.914 3.7477 174.141 3.81162 174.35C3.87554 174.559 4.05953 174.711 4.27689 174.732L7.76635 175.078L9.21098 178.401C9.30149 178.609 9.51178 178.739 9.73779 178.726C9.96498 178.713 10.1589 178.56 10.2236 178.344L11.2495 174.957L14.7705 174.608C14.8791 174.598 14.9789 174.555 15.0599 174.488C15.1464 174.417 15.2108 174.32 15.2402 174.206C15.2965 173.986 15.2097 173.755 15.0232 173.626L12.0439 171.564L12.382 168.073C12.4034 167.856 12.2904 167.646 12.0979 167.543Z" fill="#B9BBBE"/>
</g>
<g clip-path="url(#clip2)">
<path d="M217.57 146.217C217.531 146.002 217.365 145.832 217.151 145.786L214.307 145.182L213.48 141.991C213.377 141.594 212.79 141.47 212.535 141.79L210.483 144.37L207.638 143.766C207.425 143.72 207.204 143.809 207.08 143.989C206.957 144.169 206.953 144.408 207.072 144.591L208.979 147.533L207.284 150.736C207.178 150.936 207.208 151.182 207.358 151.35C207.51 151.52 207.751 151.576 207.96 151.491L211.247 150.18L213.716 152.714C213.793 152.792 213.888 152.843 213.991 152.865C214.1 152.888 214.217 152.878 214.324 152.83C214.531 152.737 214.657 152.525 214.642 152.298L214.395 148.683L217.333 146.77C217.516 146.651 217.61 146.432 217.57 146.217Z" fill="#B9BBBE"/>
</g>
<path d="M157.847 87.2473C158.525 88.5992 159.909 89.4525 161.421 89.4525H197.75C198.874 89.4525 199.877 90.132 200.292 91.1325C200.713 92.149 200.476 93.3245 199.704 94.0903L199.699 94.0953L168.757 124.915C167.725 125.943 167.334 127.451 167.735 128.852L180.141 172.115C180.141 172.116 180.142 172.116 180.142 172.116C180.454 173.208 180.053 174.379 179.132 175.052C178.645 175.404 178.074 175.579 177.5 175.579C176.96 175.579 176.43 175.425 175.966 175.118L139.213 150.712C137.872 149.822 136.128 149.822 134.787 150.712L98.027 175.117L98.0157 175.125C97.0734 175.755 95.8162 175.739 94.8714 175.055C93.9473 174.382 93.5452 173.209 93.8585 172.115L106.265 128.852C106.666 127.451 106.275 125.943 105.243 124.915L74.3005 94.0953L74.2955 94.0903C73.524 93.3245 73.2867 92.149 73.7081 91.1325C74.1228 90.132 75.1262 89.4525 76.2499 89.4525H112.578C114.091 89.4525 115.475 88.5989 116.153 87.2468L134.532 50.6271C134.837 50.0219 135.667 49.4167 136.997 49.4167C138.326 49.4167 139.156 50.0216 139.46 50.6266C139.46 50.6267 139.461 50.6269 139.461 50.6271L157.847 87.2473Z" stroke="#B9BBBE" stroke-width="8" stroke-linejoin="round"/>
<g clip-path="url(#clip3)">
<path d="M55.4994 43.5949C55.0965 43.1634 54.4705 43.0178 53.9185 43.2259L46.5648 45.9976L40.0314 39.9414C39.2187 39.1889 37.7007 39.7611 37.587 40.8627L36.6779 49.7242L29.3243 52.496C28.7723 52.7041 28.3981 53.2267 28.3802 53.8168C28.3624 54.4069 28.7015 54.9547 29.2394 55.1977L37.8688 59.1142L38.6789 68.8729C38.7298 69.484 39.155 69.9994 39.7443 70.1635C40.3369 70.328 40.9659 70.105 41.3198 69.6072L46.8872 61.8316L56.2006 63.9983C56.488 64.0651 56.7806 64.0424 57.0457 63.9425C57.3285 63.8359 57.5783 63.6417 57.7527 63.3757C58.087 62.8634 58.0663 62.1956 57.7011 61.703L51.8683 53.8375L55.7656 45.1993C56.0092 44.6618 55.9024 44.0264 55.4994 43.5949Z" fill="#B9BBBE"/>
</g>
<g clip-path="url(#clip4)">
<path d="M87.3087 34.4684C87.116 34.1798 86.7667 34.0359 86.4268 34.1041L81.898 35.0134L78.6836 30.8799C78.2837 30.3663 77.3489 30.5539 77.1782 31.1822L75.8093 36.2359L71.2805 37.1451C70.9406 37.2134 70.6739 37.481 70.6075 37.8216C70.5411 38.1622 70.6858 38.5121 70.9747 38.7042L75.6081 41.7956L75.1511 47.533C75.1225 47.8923 75.3202 48.2316 75.6465 48.3828C75.9745 48.5345 76.3606 48.4649 76.6132 48.2098L80.5811 44.2284L85.7775 46.3698C85.9378 46.4359 86.1097 46.4505 86.2729 46.4177C86.4471 46.3827 86.6104 46.2938 86.7369 46.1561C86.9794 45.8907 87.0308 45.5014 86.8658 45.1809L84.2296 40.0646L87.3107 35.4243C87.5031 35.1356 87.5015 34.7569 87.3087 34.4684Z" fill="#B9BBBE"/>
</g>
<g clip-path="url(#clip5)">
<path d="M61.8778 117.085C61.6002 116.801 61.1769 116.713 60.8089 116.861L55.9056 118.838L51.4186 114.865C50.8605 114.372 49.8483 114.78 49.7887 115.522L49.3133 121.496L44.4101 123.473C44.042 123.622 43.7984 123.979 43.7954 124.376C43.7924 124.773 44.0289 125.136 44.3944 125.292L50.2582 127.793L50.9528 134.344C50.9964 134.754 51.2903 135.094 51.6891 135.196C52.0902 135.297 52.5099 135.138 52.7402 134.797L56.3654 129.482L62.6624 130.797C62.8567 130.837 63.0531 130.818 63.2299 130.746C63.4185 130.67 63.5835 130.536 63.6967 130.354C63.9137 130.005 63.8895 129.556 63.6364 129.23L59.5928 124.03L62.0814 118.16C62.237 117.795 62.1554 117.369 61.8778 117.085Z" fill="#B9BBBE"/>
</g>
<g clip-path="url(#clip6)">
<path d="M247.312 122.483C247.251 122.098 246.962 121.787 246.583 121.698L241.535 120.503L240.192 114.778C240.024 114.066 238.982 113.82 238.514 114.381L234.748 118.897L229.7 117.702C229.321 117.612 228.923 117.76 228.696 118.077C228.469 118.393 228.452 118.818 228.657 119.15L231.937 124.476L228.781 130.117C228.584 130.471 228.626 130.91 228.888 131.217C229.152 131.526 229.579 131.635 229.956 131.493L235.872 129.29L240.171 133.911C240.304 134.054 240.472 134.149 240.654 134.192C240.848 134.238 241.057 134.224 241.25 134.143C241.622 133.985 241.857 133.612 241.839 133.208L241.547 126.751L246.866 123.459C247.198 123.255 247.374 122.867 247.312 122.483Z" fill="#B9BBBE"/>
</g>
<g clip-path="url(#clip7)">
<path d="M271.236 156.078C271.202 155.866 271.043 155.696 270.835 155.646L268.058 154.989L267.319 151.84C267.227 151.449 266.654 151.313 266.396 151.622L264.325 154.106L261.549 153.449C261.34 153.399 261.121 153.481 260.996 153.655C260.871 153.829 260.862 154.063 260.975 154.245L262.779 157.175L261.043 160.277C260.935 160.472 260.958 160.713 261.102 160.882C261.247 161.052 261.482 161.112 261.689 161.034L264.943 159.822L267.308 162.364C267.381 162.442 267.474 162.495 267.574 162.519C267.681 162.544 267.795 162.536 267.902 162.491C268.106 162.405 268.235 162.2 268.225 161.977L268.065 158.426L270.99 156.615C271.173 156.503 271.27 156.29 271.236 156.078Z" fill="#B9BBBE"/>
</g>
<g clip-path="url(#clip8)">
<path d="M271.236 89.4638C271.202 89.2521 271.043 89.0813 270.835 89.0319L268.058 88.3748L267.319 85.2259C267.227 84.8345 266.654 84.6988 266.396 85.0075L264.325 87.4914L261.549 86.8343C261.34 86.7849 261.121 86.8664 260.996 87.0405C260.871 87.2145 260.862 87.4483 260.975 87.6305L262.779 90.5603L261.043 93.6631C260.935 93.8575 260.958 94.0989 261.102 94.2679C261.247 94.4376 261.482 94.4981 261.689 94.4199L264.943 93.208L267.308 95.7497C267.381 95.8281 267.474 95.8806 267.574 95.9043C267.681 95.9296 267.795 95.9217 267.902 95.8771C268.106 95.7906 268.235 95.5853 268.225 95.3629L268.065 91.8113L270.99 90.0009C271.173 89.8884 271.27 89.6754 271.236 89.4638Z" fill="#B9BBBE"/>
</g>
<g clip-path="url(#clip9)">
<path d="M27.3828 93.645C27.2205 93.4988 26.9851 93.465 26.7882 93.5592L24.1653 94.8147L21.5643 92.7895C21.2408 92.538 20.6993 92.7971 20.6924 93.2069L20.6388 96.5026L18.0159 97.758C17.819 97.8523 17.6977 98.0568 17.7098 98.2749C17.722 98.4931 17.8644 98.6842 18.0704 98.7567L21.3761 99.9264L21.9848 103.498C22.023 103.722 22.1961 103.898 22.4186 103.94C22.6423 103.982 22.8671 103.88 22.9817 103.685L24.7872 100.642L28.2894 101.145C28.3975 101.16 28.5047 101.142 28.5992 101.097C28.7001 101.049 28.786 100.969 28.8419 100.866C28.9488 100.666 28.92 100.421 28.7697 100.251L26.3695 97.5364L27.5318 94.2281C27.6046 94.0221 27.545 93.7913 27.3828 93.645Z" fill="#B9BBBE"/>
</g>
<g clip-path="url(#clip10)">
<path d="M24.3253 134.269C24.163 134.123 23.9276 134.089 23.7307 134.183L21.1078 135.439L18.5068 133.413C18.1833 133.162 17.6419 133.421 17.6349 133.831L17.5813 137.126L14.9584 138.382C14.7615 138.476 14.6402 138.681 14.6524 138.899C14.6645 139.117 14.8069 139.308 15.013 139.381L18.3187 140.55L18.9273 144.122C18.9655 144.346 19.1386 144.522 19.3611 144.564C19.5848 144.606 19.8096 144.504 19.9243 144.309L21.7297 141.266L25.232 141.768C25.34 141.784 25.4472 141.766 25.5417 141.721C25.6426 141.673 25.7285 141.593 25.7844 141.49C25.8914 141.29 25.8625 141.045 25.7122 140.875L23.312 138.16L24.4744 134.852C24.5471 134.646 24.4875 134.415 24.3253 134.269Z" fill="#B9BBBE"/>
</g>
<g clip-path="url(#clip11)">
<path d="M48.046 164.727C47.9225 164.546 47.7016 164.458 47.4881 164.504L44.644 165.109L42.5903 162.531C42.3348 162.21 41.7477 162.335 41.6448 162.732L40.82 165.923L37.9759 166.529C37.7624 166.574 37.5965 166.745 37.5572 166.96C37.5178 167.175 37.6115 167.394 37.7947 167.513L40.7341 169.425L40.4883 173.04C40.473 173.266 40.5999 173.478 40.8064 173.571C41.014 173.664 41.2566 173.617 41.4137 173.455L43.8823 170.92L47.1691 172.23C47.2705 172.27 47.3788 172.278 47.4813 172.256C47.5907 172.233 47.6929 172.176 47.7715 172.088C47.9222 171.919 47.9517 171.674 47.8455 171.473L46.1486 168.272L48.0542 165.328C48.1732 165.145 48.1694 164.907 48.046 164.727Z" fill="#B9BBBE"/>
</g>
<path d="M229.754 173.057C229.668 172.86 229.471 172.735 229.257 172.74L226.405 172.807L224.893 169.947C224.705 169.592 224.116 169.606 223.945 169.969L222.57 172.897L219.717 172.963C219.503 172.968 219.312 173.102 219.235 173.302C219.158 173.502 219.208 173.731 219.364 173.879L221.85 176.257L220.956 179.698C220.9 179.913 220.984 180.141 221.166 180.268C221.349 180.395 221.591 180.395 221.772 180.266L224.614 178.271L227.545 180.132C227.635 180.189 227.738 180.216 227.841 180.214C227.95 180.211 228.059 180.175 228.151 180.105C228.327 179.969 228.4 179.738 228.334 179.525L227.28 176.13L229.653 173.638C229.801 173.483 229.841 173.253 229.754 173.057Z" fill="#B9BBBE"/>
<g clip-path="url(#clip12)">
<path d="M197.958 53.9998C197.981 53.5418 197.725 53.1134 197.31 52.9174L191.792 50.3057L191.648 43.3861C191.629 42.5258 190.49 41.9867 189.813 42.5179L184.372 46.7943L178.853 44.1826C178.439 43.9866 177.945 44.0597 177.606 44.3683C177.267 44.6769 177.144 45.1621 177.298 45.5938L179.769 52.5291L174.755 58.2503C174.441 58.6086 174.383 59.1244 174.609 59.5423C174.837 59.9621 175.301 60.1931 175.771 60.1221L183.12 59.0344L186.938 65.4071C187.056 65.6037 187.226 65.7549 187.425 65.849C187.638 65.9495 187.881 65.9842 188.124 65.938C188.59 65.8482 188.952 65.4761 189.03 65.0061L190.275 57.5011L197.205 55.0147C197.637 54.8606 197.934 54.4579 197.958 53.9998Z" fill="#B9BBBE"/>
</g>
<g clip-path="url(#clip13)">
<path d="M257.751 42.5559C257.614 41.8952 257.089 41.3811 256.427 41.2563L247.601 39.5932L244.821 29.799C244.475 28.5816 242.653 28.2383 241.887 29.2462L235.735 37.3571L226.909 35.694C226.246 35.5691 225.571 35.8571 225.203 36.4225C224.835 36.988 224.84 37.7243 225.221 38.281L231.318 47.2316L226.311 57.2398C225.998 57.8666 226.107 58.6223 226.585 59.1327C227.065 59.6454 227.812 59.8014 228.453 59.5257L238.508 55.2425L246.313 62.8912C246.554 63.1272 246.853 63.2789 247.171 63.3388C247.511 63.4028 247.87 63.3616 248.198 63.2056C248.829 62.9041 249.205 62.2398 249.142 61.5419L248.121 50.3977L257.057 44.2803C257.615 43.9002 257.888 43.2165 257.751 42.5559Z" fill="#B9BBBE"/>
</g>
<path d="M22.2395 108.788L20.0022 127.699" stroke="#F6F6F7"/>
<path d="M52.1394 139.862L46.7657 158.682" stroke="#F6F6F7"/>
<path d="M24.6188 146.293L38.0574 160.522" stroke="#F6F6F7"/>
<path d="M45.6648 114.831L29.9915 103.109" stroke="#F6F6F7"/>
<path d="M260 100L246 117" stroke="#F6F6F7"/>
<path d="M245 134L260 151" stroke="#F6F6F7"/>
<path d="M234 172L257 162" stroke="#F6F6F7"/>
</g>
<defs>
<clipPath id="clip0">
<rect width="272" height="222" fill="white"/>
</clipPath>
<clipPath id="clip1">
<rect width="12.9672" height="12.9672" fill="white" transform="translate(0 171.477) rotate(-39.4037)"/>
</clipPath>
<clipPath id="clip2">
<rect width="12.9672" height="12.9672" fill="white" transform="translate(206.947 139.218) rotate(11.9907)"/>
</clipPath>
<clipPath id="clip3">
<rect width="35.0443" height="35.0443" fill="white" transform="translate(21.1216 43.1539) rotate(-20.6526)"/>
</clipPath>
<clipPath id="clip4">
<rect width="20.598" height="20.598" fill="white" transform="translate(67.41 30.9472) rotate(-11.3527)"/>
</clipPath>
<clipPath id="clip5">
<rect width="23.5755" height="23.5755" fill="white" transform="translate(38.75 117.316) rotate(-21.9592)"/>
</clipPath>
<clipPath id="clip6">
<rect width="23.1322" height="23.1322" fill="white" transform="translate(228.655 109.563) rotate(13.3149)"/>
</clipPath>
<clipPath id="clip7">
<rect width="12.7234" height="12.7234" fill="white" transform="translate(260.974 148.972) rotate(13.3149)"/>
</clipPath>
<clipPath id="clip8">
<rect width="12.7234" height="12.7234" fill="white" transform="translate(260.974 82.3573) rotate(13.3149)"/>
</clipPath>
<clipPath id="clip9">
<rect width="12.9672" height="12.9672" fill="white" transform="translate(14.6952 94.5746) rotate(-25.5779)"/>
</clipPath>
<clipPath id="clip10">
<rect width="12.9672" height="12.9672" fill="white" transform="translate(11.6377 135.198) rotate(-25.5779)"/>
</clipPath>
<clipPath id="clip11">
<rect width="12.9672" height="12.9672" fill="white" transform="translate(35.4941 162.656) rotate(-12.0184)"/>
</clipPath>
<clipPath id="clip12">
<rect width="27.2258" height="27.2258" fill="white" transform="translate(179.644 34.5565) rotate(25.3259)"/>
</clipPath>
<clipPath id="clip13">
<rect width="40.0496" height="40.0496" fill="white" transform="translate(224.452 21.7003) rotate(10.6716)"/>
</clipPath>
</defs>
</svg>
