<svg xmlns="http://www.w3.org/2000/svg" width="160" height="160" viewBox="0 0 160 160">
  <g fill="none" fill-rule="evenodd">
    <path stroke="#D5DBED" stroke-width="2" d="M119.8941,119.4976 C92.5571,146.8346 48.2351,146.8346 20.8991,119.4976 C-6.4379,92.1616 -6.4379,47.8396 20.8991,20.5026 C48.2361,-6.8334 92.5581,-6.8344 119.8941,20.5026 C147.2311,47.8396 147.2301,92.1616 119.8941,119.4976 Z" transform="translate(11 9)" stroke-linecap="round" stroke-linejoin="round" stroke-dasharray="4 5"/>
    <g transform="rotate(-20 297.743 70.082)">
      <path fill="#F3F9FF" d="M121.617678,34.9327 C120.515678,36.1417 119.350678,37.3017 118.124678,38.4077 C119.350678,37.3017 120.515678,36.1417 121.617678,34.9327"/>
      <path fill="#FFFFFF" d="M107.950678,41.315 C112.091678,39.407 115.742678,36.873 118.862678,33.888 L100.578678,15.725 L88.8586779,21.684 L79.9106779,15.123 L75.2176779,20.846 L63.0746779,1.064 L51.2146779,5.298 C51.2536779,10.808 52.4266779,16.397 54.8816779,21.725 C64.1266779,41.789 87.8866779,50.56 107.950678,41.315"/>
      <polyline stroke="#D5DBED" stroke-width="2" points="118.863 33.888 118.863 33.888 100.579 15.725 88.859 21.684 79.911 15.123 75.218 20.846 63.075 1.064 51.215 5.299" stroke-linecap="round" stroke-linejoin="round"/>
      <path fill="#C9D2F0" d="M0.575277916,46.7481 L0.575277916,46.7481 C-0.869722084,43.6121 0.501277916,39.8991 3.63727792,38.4541 L50.8662779,16.6921 L56.0982779,28.0481 L8.86927792,49.8101 C5.73327792,51.2551 2.02027792,49.8841 0.575277916,46.7481"/>
      <path stroke="#1E2126" stroke-width="2" d="M0.575277916,46.7481 L0.575277916,46.7481 C-0.869722084,43.6121 0.501277916,39.8991 3.63727792,38.4541 L50.8662779,16.6921 L56.0982779,28.0481 L8.86927792,49.8101 C5.73327792,51.2551 2.02027792,49.8841 0.575277916,46.7481 Z" stroke-linecap="round" stroke-linejoin="round"/>
      <path fill="#9F7373" d="M10.7617779,48.938 L5.52977792,37.582 C4.56677792,35.492 5.47977792,33.016 7.57077792,32.053 L29.9667779,21.733 C32.0577779,20.77 34.5327779,21.684 35.4957779,23.774 L40.7287779,35.13 C41.6917779,37.221 40.7787779,39.696 38.6877779,40.66 L16.2917779,50.979 C14.2007779,51.942 11.7247779,51.028 10.7617779,48.938"/>
      <path stroke="#1E2126" stroke-width="2" d="M10.7617779,48.938 L5.52977792,37.582 C4.56677792,35.492 5.47977792,33.016 7.57077792,32.053 L29.9667779,21.733 C32.0577779,20.77 34.5327779,21.684 35.4957779,23.774 L40.7287779,35.13 C41.6917779,37.221 40.7787779,39.696 38.6877779,40.66 L16.2917779,50.979 C14.2007779,51.942 11.7247779,51.028 10.7617779,48.938 Z" stroke-linecap="round" stroke-linejoin="round"/>
      <path fill="#F3F9FF" d="M69.3222779,50.3428 C67.1432779,49.2928 65.0372779,48.0858 63.0222779,46.7268 C65.0372779,48.0858 67.1432779,49.2928 69.3222779,50.3428"/>
      <path fill="#F3F9FF" d="M107.950678,41.315 C87.8866779,50.56 64.1266779,41.789 54.8816779,21.725 C52.4266779,16.397 51.2536779,10.808 51.2146779,5.298 L51.1066779,5.337 L45.7736779,0 L40.9096779,2.619 C40.5346779,10.438 41.9696779,18.46 45.4716779,26.061 C49.4726779,34.745 55.6336779,41.748 63.0216779,46.727 C65.0366779,48.086 67.1436779,49.293 69.3226779,50.343 C71.5016779,51.393 73.7526779,52.285 76.0576779,53.013 C77.5936779,53.499 79.1546779,53.911 80.7326779,54.248 C82.3116779,54.585 83.9086779,54.847 85.5176779,55.031 C86.3226779,55.124 87.1306779,55.197 87.9406779,55.25 C89.5606779,55.357 91.1916779,55.386 92.8266779,55.334 C99.3646779,55.127 105.970678,53.635 112.285678,50.725 C117.022678,48.543 121.259678,45.718 124.940678,42.401 C126.166678,41.296 127.331678,40.136 128.433678,38.927 C129.534678,37.718 130.572678,36.46 131.544678,35.159 C132.515678,33.857 133.421678,32.513 134.260678,31.13 C134.829678,30.19 135.355678,29.228 135.861678,28.255 L118.862678,33.888 C115.742678,36.873 112.091678,39.407 107.950678,41.315"/>
      <path stroke="#1E2126" stroke-width="2" d="M107.950678,41.315 C87.8866779,50.56 64.1266779,41.789 54.8816779,21.725 C52.4266779,16.397 51.2536779,10.808 51.2146779,5.298 L51.1066779,5.337 L45.7736779,0 L40.9096779,2.619 C40.5346779,10.438 41.9696779,18.46 45.4716779,26.061 C49.4726779,34.745 55.6336779,41.748 63.0216779,46.727 C65.0366779,48.086 67.1436779,49.293 69.3226779,50.343 C71.5016779,51.393 73.7526779,52.285 76.0576779,53.013 C77.5936779,53.499 79.1546779,53.911 80.7326779,54.248 C82.3116779,54.585 83.9086779,54.847 85.5176779,55.031 C86.3226779,55.124 87.1306779,55.197 87.9406779,55.25 C89.5606779,55.357 91.1916779,55.386 92.8266779,55.334 C99.3646779,55.127 105.970678,53.635 112.285678,50.725 C117.022678,48.543 121.259678,45.718 124.940678,42.401 C126.166678,41.296 127.331678,40.136 128.433678,38.927 C129.534678,37.718 130.572678,36.46 131.544678,35.159 C132.515678,33.857 133.421678,32.513 134.260678,31.13 C134.829678,30.19 135.355678,29.228 135.861678,28.255 L118.862678,33.888 C115.742678,36.873 112.091678,39.407 107.950678,41.315 Z" stroke-linecap="round" stroke-linejoin="round"/>
    </g>
    <rect width="160" height="160"/>
  </g>
</svg>
