<svg width="44" height="44" viewBox="0 0 44 44" fill="none" xmlns="http://www.w3.org/2000/svg">
<path fill-rule="evenodd" clip-rule="evenodd" d="M10.295 38.5C9.98388 38.5 9.74831 38.2189 9.80268 37.9126L11.0001 31.1667H4.26185C3.95124 31.1667 3.7158 30.8864 3.76934 30.5805L4.236 27.9138C4.27787 27.6746 4.48563 27.5 4.72852 27.5H11.6418L13.5851 16.5H6.84685C6.53624 16.5 6.3008 16.2198 6.35434 15.9138L6.821 13.2471C6.86287 13.0079 7.07063 12.8333 7.31352 12.8333H14.2268L15.4552 5.91262C15.4976 5.67391 15.7051 5.5 15.9475 5.5H18.5985C18.9096 5.5 19.1452 5.78107 19.0908 6.08738L17.8934 12.8333H28.8934L30.1218 5.91262C30.1642 5.67391 30.3717 5.5 30.6142 5.5H33.2652C33.5763 5.5 33.8119 5.78107 33.7575 6.08738L32.5601 12.8333H39.2983C39.6089 12.8333 39.8444 13.1136 39.7908 13.4195L39.3242 16.0862C39.2823 16.3254 39.0745 16.5 38.8317 16.5H31.9184L29.9751 27.5H36.7133C37.0239 27.5 37.2594 27.7802 37.2058 28.0862L36.7392 30.7529C36.6973 30.9921 36.4895 31.1667 36.2467 31.1667H29.3334L28.105 38.0874C28.0626 38.3261 27.8551 38.5 27.6127 38.5H24.9617C24.6506 38.5 24.415 38.2189 24.4693 37.9126L25.6668 31.1667H14.6668L13.4383 38.0874C13.396 38.3261 13.1885 38.5 12.946 38.5H10.295ZM17.2526 16.5L15.3092 27.5H26.3092L28.2526 16.5H17.2526Z" fill="white"/>
</svg>
