<svg width="24" height="24" viewBox="0 0 24 24" fill="none" xmlns="http://www.w3.org/2000/svg">
<path opacity="0.55" d="M17 7V17H7L5.6 20H18.41L20 18.41V5.59L17 7ZM17 7L18.4 4H5.59L4 5.59V18.41L7 17V7H17Z" fill="white"/>
<path opacity="0.4" d="M18.41 4L17.01 6.99L20 5.59L18.41 4Z" fill="white"/>
<path opacity="0.4" d="M4 18.41L6.99 17.01L5.59 20L4 18.41Z" fill="white"/>
<path d="M5.59009 4L6.99009 6.99H17.0101L18.4101 4H5.59009Z" fill="white"/>
<path opacity="0.75" d="M20 18.41L17.01 17.01L18.41 20L20 18.41Z" fill="white"/>
<path opacity="0.75" d="M15.18 6.98999L6.98999 15.17V6.98999H15.18Z" fill="white"/>
<path opacity="0.75" d="M17.01 6.98999V9.10999L9.10999 17.01H6.98999V17L17.01 6.98999Z" fill="white"/>
<path opacity="0.75" d="M10.9399 17.01L17.0099 10.94V17.01H10.9399Z" fill="white"/>
<path d="M17.01 6.98999L6.98999 17.01V15.17L15.18 6.98999H17.01Z" fill="white"/>
<path d="M17.0101 9.10999V10.94L10.9401 17.01H9.11011L17.0101 9.10999Z" fill="white"/>
</svg>
