<svg fill="none" height="80" viewBox="0 0 80 80" width="80" xmlns="http://www.w3.org/2000/svg" xmlns:xlink="http://www.w3.org/1999/xlink"><clipPath id="a"><path d="m0 0h80v80h-80z"/></clipPath><g clip-path="url(#a)"><path d="m40 80c22.0914 0 40-17.9086 40-40s-17.9086-40-40-40-40 17.9086-40 40 17.9086 40 40 40z" fill="#a1c2ff"/><path d="m20.5699 33.71s-13.29001 3.71-7.79 12.52" stroke="#d6812f" stroke-linecap="round" stroke-miterlimit="10" stroke-width="1.44"/><path d="m26.2899 38.67c3.7887 0 6.86-3.0713 6.86-6.86s-3.0713-6.86-6.86-6.86c-3.7886 0-6.86 3.0713-6.86 6.86s3.0714 6.86 6.86 6.86z" fill="#ffb54b"/><path d="m27.4301 38.67c3.7886 0 6.86-3.0713 6.86-6.86s-3.0714-6.86-6.86-6.86c-3.7887 0-6.86 3.0713-6.86 6.86s3.0713 6.86 6.86 6.86z" fill="#ff9a38"/><path d="m64.1601 45.72 3.51-.34v.34c.002.6986-.2034 1.3821-.59 1.9639-.3867.5818-.9373 1.0358-1.5822 1.3045-.6448.2687-1.3549.3401-2.0403.205s-1.3154-.4705-1.81-.9638c-.4947-.4932-.8319-1.1222-.9689-1.8072-.137-.6851-.0677-1.3953.1992-2.0409.2668-.6456.7193-1.1976 1.3-1.5859s1.2636-.5956 1.9622-.5956c.6487-.0038 1.2858.1728 1.84.51z" fill="#c25f79"/><path d="m2.75 54.57c2.93642 7.5059 8.0718 13.9496 14.7333 18.4868 6.6614 4.5372 14.5382 6.9562 22.598 6.94s15.9268-2.4669 22.5699-7.0308c6.6431-4.564 11.7526-11.0284 14.6588-18.546-4.6-4.28-8.86-6.83-15.25-6.83-7.4613-.1083-14.9228.1989-22.35.92 0 0-5.71 3.83-18.63 4.71l2.26-6.3s-10.64 5.83-20.59 7.65z" fill="#f8d99f"/><path d="m44.72 16.49c.39-2.56.86-4.82 1.31-6.68001.197-.77483.5577-1.49848 1.0577-2.12229.5001-.62382 1.1279-1.13333 1.8413-1.49428.7133-.36095 1.4957-.56497 2.2945-.59833.7988-.03337 1.5955.10469 2.3365.4049l.16.07c.8207.33448 1.5502.85932 2.1282 1.53124.578.67191.9879 1.47163 1.196 2.33317.208.8615.2082 1.7602.0006 2.6218-.2076.8617-.6172 1.6616-1.1948 2.3338-1.989 2.4691-4.2727 4.6856-6.8 6.6z" fill="#232243"/><path d="m51.11 41.32-30.71 3.22c-6 14.54-1.77 23.24 1.33 29 .5837 1.0529 1.2526 2.0562 2 3 5.1188 2.2873 10.6634 3.4664 16.27 3.46 1.4565-.0043 2.9118-.0844 4.36-.24 1.11-2.13 2.31-4.86 3.71-8.32 4.44-11 5.27-17.06 14-23.85-1.21-4.01-1.28-4.76-10.96-6.27z" fill="#de819a"/><path d="m54.68 16.16c-.639-1.7635-1.8774-3.2463-3.4987-4.1895s-3.5224-1.2867-5.3713-.9705h-.05c-.37 1.61-.73 3.45-1 5.49l4.33 5c2.0523-1.5673 3.9268-3.3546 5.59-5.33z" fill="#2e2c56"/><path d="m47.3801 13.3c-5.61-1-10.65-.65-17.9 2-5.59 2.08-6.59 7.48-6.84 11.39s-.32 6.2-.32 6.2c-5.9 6.9-7.51 14.91-4.27 22s13.55 10.28 25.7 4.71 14.46-11.43 14.11-15.6-2.17-16.67-2.86-20.7-1-8.83-7.62-10z" fill="#557ff6"/><path d="m25.7002 43.9196c.3036-1.9146-.3921-3.6161-1.554-3.8003-1.1618-.1842-2.3498 1.2185-2.6534 3.1331s.3922 3.6161 1.554 3.8003c1.1619.1842 2.3499-1.2185 2.6534-3.1331z" fill="#4873f5"/><path d="m46.7159 43.6607c2.1404-.3601 3.5599-2.5285 3.1705-4.8432-.3895-2.3146-2.4403-3.8991-4.5807-3.539s-3.5598 2.5284-3.1704 4.8431 2.4402 3.8992 4.5806 3.5391z" fill="#4873f5"/><g fill="#232243"><path d="m27.53 16.32c1.82 2.93 10 2 24.83-.52-1.1661-1.5393-2.8497-2.6049-4.74-3-5.61-1-10.89-.15-18.14 2.55-.682.2544-1.3356.5795-1.95.97z"/><path d="m48.7201 13.08-.16 2.39c-4 7.16-2.42 9 0 10.77 2 1.48 4.17.63 6.61-1.59-.91-6.78-1.06-9.34-6.45-11.57z"/><path d="m29.1101 25.62c.7169-.5183 1.582-.7915 2.4666-.7789s1.7415.3104 2.4434.8489c.59.4 1.29-.45.91-1-.3043-.6137-.7774-1.1279-1.3637-1.4822-.5863-.3542-1.2615-.5339-1.9463-.5178-1.78 0-3.28.89-3.3 2.38 0 .4.44.76.79.55z"/></g><path d="m28.0601 32.73c.0295-.7756.2526-1.5315.6491-2.1987.3965-.6673.9537-1.2246 1.6209-1.6213 1.93-1 4.17.39 5 3 .1023.3269.1792.6612.23 1" stroke="#2b2951" stroke-linecap="round" stroke-miterlimit="10" stroke-width="1.44"/><path d="m32.8867 56.6006c.1998-1.6114-1.6065-3.1618-4.0345-3.4629s-4.5583.761-4.7582 2.3724c-.1998 1.6114 1.6065 3.1618 4.0345 3.4629s4.5583-.761 4.7582-2.3724z" fill="#436ff5"/><path d="m23.22 64.08c3.38 3.77 10.06 5.58 22.67-2.9.0883-.052.1919-.0715.2931-.0553.1011.0163.1934.0673.2609.1443.0676.0771.1061.1752.109.2776.003.1024-.0299.2026-.093.2834-2.94 3.27-7.91 8.67-12.05 12.42-.5412.4849-1.1783.8506-1.87 1.0732s-1.4226.2972-2.145.2189c-.7224-.0782-1.4203-.3076-2.0483-.6733-.6279-.3656-1.172-.8592-1.5967-1.4488-1.9587-2.6551-3.5248-5.5784-4.65-8.68-.0544-.1454-.0559-.3052-.0041-.4515.0518-.1464.1534-.2697.2871-.3485s.2909-.108.444-.0824.2922.1044.393.2224z" fill="#c25f79"/><path d="m43.9999 40.32c-1.11-1.85-5.22-1.63-8.86.29-1.5483.9256-3.3391 1.3646-5.14 1.26-2.53-.26-5.71.63-5.54 3.26.14 2.09 4.54 4.21 13.54 2.07 4.47-1.07 7.71-3.97 6-6.88z" fill="#2445a1"/><path d="m35.0899 40.61c-1.534.9159-3.3058 1.3545-5.09 1.26-.8552-.0932-1.72-.0459-2.56.14l.09.4c.0448.1991.1589.3758.3219.4986.163.1227.3644.1835.5681.1714 2.55-.14 11.12-.8 15-3.29-1.48-1.25-5.09-.89-8.33.82z" fill="#bccefa"/><path d="m30 48.05c-.6759-1.1884-1.2706-2.4212-1.78-3.69-.0292-.1149-.0976-.2161-.1934-.2861-.0958-.0699-.213-.1043-.3314-.0972s-.2306.0552-.3173.1362c-.0868.0809-.1426.1895-.1579.3071-.2754.9769-.4233 1.9852-.44 3 1.037.3657 2.1217.5779 3.22.63z" fill="#bccefa"/><path d="m40.6101 42.47c-.0753-.1095-.1884-.1874-.3175-.2188-.1292-.0314-.2654-.014-.3825.0488-.0881.0472-.1628.116-.217.2-.0542.0839-.0862.1803-.093.28-.0398 1.2662.1154 2.5309.46 3.75.909-.3607 1.7637-.8452 2.54-1.44-.81-.92-1.53-2-1.99-2.62z" fill="#bccefa"/><path d="m36.29 13.23s13.28-2.89 15.54 13.77l2.85-1.21s-2.11-12.65-12.08-13.4c-2.136-.0853-4.2707.1989-6.31.84z" fill="#ffb54b"/><path d="m54.42 38.29c3.1259 0 5.66-3.0713 5.66-6.86s-2.5341-6.86-5.66-6.86-5.66 3.0713-5.66 6.86 2.5341 6.86 5.66 6.86z" fill="#ff9a38"/><path d="m55.68 38.29c3.126 0 5.66-3.0713 5.66-6.86s-2.534-6.86-5.66-6.86c-3.1259 0-5.66 3.0713-5.66 6.86s2.5341 6.86 5.66 6.86z" fill="#ffb54b"/><path d="m12.95 47.8c1.0494 0 1.9-.8507 1.9-1.9s-.8506-1.9-1.9-1.9c-1.0493 0-1.9.8507-1.9 1.9s.8507 1.9 1.9 1.9z" fill="#d6812f"/></g></svg>