<svg width="42" height="42" viewBox="0 0 42 42" fill="none" xmlns="http://www.w3.org/2000/svg">
<g clip-path="url(#clip0_9_18022)">
<path d="M20.0002 38.6629C29.2049 38.6629 36.6668 31.2018 36.6668 21.9981C36.6668 12.7943 29.2049 5.33325 20.0002 5.33325C10.7954 5.33325 3.3335 12.7943 3.3335 21.9981C3.3335 31.2018 10.7954 38.6629 20.0002 38.6629Z" fill="#5865F2"/>
<path d="M35.2875 30.5557L30.0726 24.5972L28.7069 18.7146L13.7436 27.8287C13.7436 27.8287 15.4804 30.7109 17.5908 31.4591C18.5204 31.7814 19.497 31.9471 20.4809 31.9497L26.4588 38.7711C26.7843 39.1215 27.1758 39.4042 27.6107 39.6032C28.0456 39.8022 28.5155 39.9135 28.9935 39.9307C29.4715 39.9479 29.9482 39.8707 30.3963 39.7036C30.8444 39.5364 31.2552 39.2825 31.6051 38.9565L35.086 35.706C35.7936 35.0486 36.212 34.1376 36.2498 33.1725C36.2875 32.2073 35.9415 31.2665 35.2875 30.5557V30.5557Z" fill="#66BCFF"/>
<path d="M26.8768 11.3217L27.7242 9.75612L32.6004 12.3122L31.7588 13.876L26.8768 11.3217Z" fill="#898989"/>
<path d="M30.3325 13.8392C30.3119 13.773 30.3099 13.7024 30.3267 13.635L30.9247 11.2719C30.9504 11.1748 31.0129 11.0913 31.099 11.0392C31.1851 10.987 31.2882 10.9702 31.3863 10.9923C31.4839 11.0176 31.5673 11.0803 31.6186 11.1667C31.6698 11.2532 31.6847 11.3564 31.66 11.4539L31.062 13.817C31.0363 13.9141 30.9738 13.9975 30.8876 14.0497C30.8015 14.1019 30.6985 14.1187 30.6003 14.0966C30.5373 14.0801 30.4796 14.0478 30.4328 14.0027C30.3859 13.9577 30.3513 13.9014 30.3325 13.8392V13.8392Z" fill="#ADACAC"/>
<path d="M27.8946 12.5931C27.8712 12.5274 27.8692 12.4559 27.8889 12.3889L28.4869 10.0258C28.4984 9.97766 28.5194 9.93226 28.5486 9.8922C28.5777 9.85215 28.6146 9.81823 28.657 9.79241C28.6993 9.76659 28.7464 9.74937 28.7954 9.74175C28.8444 9.73413 28.8945 9.73626 28.9426 9.74802C29.0408 9.77204 29.1254 9.83392 29.1778 9.92011C29.2302 10.0063 29.2462 10.1098 29.2221 10.2078L28.6242 12.5709C28.5986 12.6682 28.5356 12.7515 28.4488 12.8028C28.362 12.8541 28.2584 12.8691 28.1607 12.8446C28.0979 12.83 28.0402 12.7991 27.9934 12.7549C27.9467 12.7106 27.9126 12.6548 27.8946 12.5931V12.5931Z" fill="#ADACAC"/>
<path d="M29.111 13.2174C29.0905 13.1511 29.0885 13.0805 29.1053 13.0132L29.7033 10.6501C29.729 10.553 29.7915 10.4695 29.8776 10.4173C29.9637 10.3652 30.0667 10.3484 30.1649 10.3705C30.2624 10.3957 30.3459 10.4584 30.3971 10.5449C30.4484 10.6314 30.4633 10.7346 30.4385 10.8321L29.8405 13.1952C29.829 13.2433 29.8081 13.2887 29.7789 13.3288C29.7497 13.3688 29.7128 13.4027 29.6705 13.4285C29.6281 13.4544 29.581 13.4716 29.532 13.4792C29.483 13.4868 29.4329 13.4847 29.3848 13.4729C29.3212 13.4569 29.2627 13.4251 29.2148 13.3804C29.1669 13.3357 29.1312 13.2796 29.111 13.2174V13.2174Z" fill="#ADACAC"/>
<path d="M29.5848 7.05019L32.9417 0.682286L32.0731 0.239417C29.1732 0.782362 26.522 2.23675 24.508 4.3895L29.5848 7.05019Z" fill="#898989"/>
<path d="M13.7582 32.66L26.745 18.6441C27.054 18.3334 27.4494 18.1222 27.8797 18.038C29.8486 17.6409 36.8952 15.8806 38.0283 15.5583C39.1614 15.236 41.633 13.658 41.5486 9.50618C41.4643 5.3544 40.2857 4.41623 40.2857 4.41623L39.4112 3.9752L36.5583 9.39357L34.3646 9.52624L26.1271 5.20842L23.7979 13.7463C23.7051 14.2025 23.4681 14.6174 23.1216 14.9299L8.77795 27.4583C8.41513 27.7801 8.1209 28.1714 7.91279 28.6087C7.70469 29.0461 7.58698 29.5206 7.5667 30.0039C7.54642 30.4872 7.62397 30.9695 7.79473 31.4219C7.9655 31.8743 8.22597 32.2876 8.56061 32.6371C8.89525 32.9866 9.29721 33.2652 9.74249 33.4562C10.1878 33.6472 10.6673 33.7468 11.1523 33.7489C11.6374 33.7511 12.1182 33.6558 12.5659 33.4687C13.0136 33.2816 13.4191 33.0066 13.7582 32.66V32.66ZM30.4129 14.6124L27.1842 12.9444C27.0261 12.8631 26.907 12.7226 26.8529 12.5536C26.7988 12.3846 26.8143 12.2011 26.8958 12.0432L28.3371 9.31965C28.3772 9.24248 28.4323 9.17396 28.499 9.11806C28.5658 9.06216 28.643 9.01999 28.7262 8.99397C28.8094 8.96795 28.8968 8.95861 28.9836 8.96648C29.0703 8.97435 29.1546 8.99928 29.2315 9.03983L32.4661 10.706C32.5447 10.7462 32.6144 10.8015 32.6713 10.8688C32.7282 10.9361 32.771 11.0141 32.7973 11.0981C32.8236 11.1822 32.8328 11.2707 32.8245 11.3584C32.8161 11.4461 32.7903 11.5313 32.7486 11.6091L31.3132 14.3307C31.23 14.4861 31.089 14.6027 30.9206 14.6554C30.7521 14.7081 30.5697 14.6927 30.4129 14.6124V14.6124ZM9.97186 31.2952C9.7293 31.0426 9.56744 30.7238 9.50677 30.3791C9.44609 30.0344 9.48932 29.6793 9.63099 29.3587C9.77265 29.0381 10.0064 28.7664 10.3027 28.5779C10.5989 28.3895 10.9444 28.2928 11.2954 28.3C11.6464 28.3072 11.9871 28.4181 12.2746 28.6185C12.562 28.819 12.7832 29.1001 12.9102 29.4262C13.0372 29.7523 13.0642 30.1089 12.988 30.4508C12.9117 30.7926 12.7355 31.1045 12.4817 31.3469C12.3132 31.5078 12.1146 31.6342 11.8972 31.7187C11.6799 31.8032 11.4481 31.8442 11.215 31.8394C10.982 31.8346 10.7522 31.7841 10.5389 31.6907C10.3256 31.5973 10.1329 31.4629 9.97186 31.2952V31.2952Z" fill="#ADACAC"/>
<path d="M23.7059 9.98572C22.2432 8.35019 19.5609 8.96216 18.0998 10.4261C17.0569 11.4828 17.3017 13.4673 17.3017 13.4673C16.127 13.8104 15.0416 14.4062 14.1213 15.2129C12.563 16.6046 11.2291 18.2288 10.1669 20.0279C9.65411 20.8353 9.46442 21.8062 9.63569 22.7472C9.80695 23.6881 10.3266 24.53 11.091 25.1048C12.8781 26.5475 15.8918 27.7039 18.1698 27.4036C20.816 27.0873 23.1889 24.5752 24.9448 22.5774C27.0902 20.0976 27.7574 14.4976 23.7059 9.98572Z" fill="#8CD9FF"/>
<path d="M21.9427 21.3324C21.8762 21.3249 21.8107 21.3102 21.7474 21.2885C19.9887 20.3621 18.5463 18.9322 17.6048 17.1815C17.493 16.962 17.4731 16.707 17.5493 16.4727C17.6255 16.2384 17.7916 16.044 18.0112 15.9322C18.2307 15.8205 18.4857 15.8005 18.72 15.8767C18.9543 15.9529 19.1487 16.119 19.2605 16.3386C20.0146 17.7218 21.1514 18.8583 22.5347 19.6122C22.7409 19.7094 22.904 19.8793 22.9927 20.0893C23.0815 20.2993 23.0897 20.5346 23.0158 20.7503C22.9419 20.9659 22.7911 21.1468 22.5922 21.2582C22.3933 21.3696 22.1603 21.4037 21.9378 21.3541L21.9427 21.3324Z" fill="#3F99F2"/>
<path d="M31.8181 20.9263C31.9716 18.1503 31.086 15.9078 27.7923 13.6325C24.7946 11.5605 22.5686 14.4324 21.3397 18.1058C20.2655 21.3279 20.5953 24.0151 23.013 24.6805L30.6243 25.9293C31.1634 24.2985 31.5628 22.6248 31.8181 20.9263V20.9263Z" fill="#66BCFF"/>
<path d="M28.9124 20.4698C28.8026 20.417 28.6834 20.3863 28.5617 20.3796C28.4401 20.373 28.3183 20.3904 28.2033 20.4308C28.0884 20.4713 27.9825 20.5341 27.8919 20.6155C27.8012 20.6969 27.7275 20.7955 27.675 20.9054C26.8507 22.6114 25.9436 24.3139 24.6878 24.7302C24.1137 24.8754 23.5094 24.8452 22.9526 24.6438C22.4413 25.1378 21.8945 25.5937 21.3165 26.0076C21.8105 26.247 22.3299 26.4301 22.8648 26.5534C23.6512 26.7526 24.4776 26.7281 25.2507 26.4824C27.2008 25.8501 28.2935 23.8627 29.3609 21.7176C29.4139 21.6063 29.4444 21.4857 29.4505 21.3625C29.4566 21.2394 29.4383 21.1163 29.3966 21.0003C29.3549 20.8843 29.2907 20.7776 29.2076 20.6866C29.1245 20.5955 29.0242 20.5219 28.9124 20.4698V20.4698Z" fill="#3F99F2"/>
</g>
<defs>
<clipPath id="clip0_9_18022">
<rect width="42" height="42" fill="white"/>
</clipPath>
</defs>
</svg>
