<svg width="409" height="305" viewBox="0 0 409 305" fill="none" xmlns="http://www.w3.org/2000/svg">
<g clip-path="url(#clip0_270:27055)">
<path d="M358.18 304.47H344.81L330.86 271.41H358.18V304.47Z" fill="#8CD9FF"/>
<path d="M330.86 271.41L336.47 284.7L358.18 284.59V271.41H330.86Z" fill="black"/>
<path d="M49.72 304.47H63.08L77.04 271.41H49.72V304.47Z" fill="#8CD9FF"/>
<path d="M77.04 271.41L71.47 284.59H49.72V271.41H77.04Z" fill="black"/>
<path d="M71.47 304.47H84.84L98.79 271.41H71.47V304.47Z" fill="#B0E5FF"/>
<path d="M383.34 188H308.5V271.38H379.93C383.72 271.38 387.354 269.874 390.034 267.195C392.714 264.515 394.22 260.88 394.22 257.09V198.91C394.224 197.479 393.945 196.061 393.4 194.737C392.855 193.414 392.054 192.211 391.044 191.197C390.033 190.184 388.832 189.38 387.51 188.831C386.188 188.282 384.771 188 383.34 188Z" fill="#5865F2"/>
<path d="M366.57 198.9C366.57 197.472 366.288 196.057 365.741 194.738C365.195 193.418 364.393 192.22 363.383 191.21C362.372 190.201 361.173 189.4 359.853 188.855C358.533 188.309 357.118 188.029 355.69 188.03H308.5V241.44H366.57V198.9Z" fill="#3442D9"/>
<path d="M300.9 121.42H49.7199C47.8438 121.42 45.9861 121.79 44.2529 122.508C42.5197 123.226 40.945 124.279 39.6189 125.606C38.2927 126.933 37.2411 128.509 36.524 130.242C35.807 131.976 35.4386 133.834 35.4399 135.71V257.12C35.4386 258.996 35.807 260.854 36.524 262.588C37.2411 264.321 38.2927 265.897 39.6189 267.224C40.945 268.551 42.5197 269.604 44.2529 270.322C45.9861 271.04 47.8438 271.41 49.7199 271.41H344.13L314.88 132.81C314.215 129.593 312.462 126.704 309.915 124.629C307.369 122.554 304.185 121.421 300.9 121.42Z" fill="#5865F2"/>
<path d="M171.23 121.42C174.51 121.418 177.691 122.543 180.24 124.608C182.789 126.673 184.551 129.551 185.23 132.76L208.14 241.43H211.7L188.77 132.81C188.094 129.599 186.333 126.719 183.784 124.654C181.234 122.588 178.051 121.464 174.77 121.47L171.23 121.42Z" fill="#3442D9"/>
<path d="M35.44 135.71C35.4387 133.834 35.8071 131.976 36.5241 130.242C37.2412 128.509 38.2928 126.933 39.619 125.606C40.9451 124.279 42.5198 123.226 44.253 122.508C45.9861 121.79 47.8439 121.42 49.72 121.42H71.48C67.69 121.42 64.0553 122.926 61.3754 125.605C58.6955 128.285 57.19 131.92 57.19 135.71V257.12C57.19 260.91 58.6955 264.545 61.3754 267.225C64.0553 269.904 67.69 271.41 71.48 271.41H49.72C47.8439 271.41 45.9861 271.04 44.253 270.322C42.5198 269.604 40.9451 268.551 39.619 267.224C38.2928 265.897 37.2412 264.321 36.5241 262.588C35.8071 260.854 35.4387 258.996 35.44 257.12V135.71Z" fill="#3442D9"/>
<path d="M73.9598 188H46.3098C43.4243 188 40.6569 189.146 38.6165 191.187C36.5761 193.227 35.4298 195.994 35.4298 198.88V257.1C35.4298 260.89 36.9354 264.525 39.6153 267.205C42.2952 269.884 45.9299 271.39 49.7198 271.39H84.8398V198.89C84.8412 197.46 84.5607 196.045 84.0145 194.723C83.4683 193.402 82.6671 192.202 81.6567 191.19C80.6463 190.179 79.4464 189.377 78.1258 188.829C76.8051 188.282 75.3895 188 73.9598 188Z" fill="#5865F2"/>
<path d="M57.19 257.12C57.19 260.91 58.6955 264.545 61.3754 267.225C64.0553 269.904 67.69 271.41 71.48 271.41H49.72C47.8439 271.41 45.9861 271.04 44.253 270.322C42.5198 269.604 40.9451 268.551 39.619 267.224C38.2928 265.897 37.2412 264.321 36.5241 262.588C35.8071 260.854 35.4387 258.996 35.44 257.12V198.9C35.44 196.016 36.5849 193.25 38.6231 191.21C40.6613 189.17 43.4261 188.023 46.31 188.02C49.1955 188.02 51.9629 189.166 54.0033 191.207C56.0437 193.247 57.19 196.014 57.19 198.9V257.12Z" fill="#3442D9"/>
<path d="M379.37 241.44H71.4799V259.58H379.37C380.025 259.58 380.653 259.32 381.116 258.857C381.58 258.393 381.84 257.765 381.84 257.11V243.9C381.84 243.245 381.58 242.617 381.116 242.153C380.653 241.69 380.025 241.43 379.37 241.43V241.44Z" fill="#808AFF"/>
<path fill-rule="evenodd" clip-rule="evenodd" d="M380.37 260.59C380.37 260.038 379.922 259.59 379.37 259.59H71.4796C70.9274 259.59 70.4796 260.038 70.4796 260.59C70.4796 261.142 70.9274 261.59 71.4796 261.59H379.37C379.922 261.59 380.37 261.142 380.37 260.59Z" fill="black"/>
<path d="M98.79 271.41L96.81 276.11H71.08V271.41H98.79Z" fill="black"/>
<path d="M379.93 304.47H366.57L352.61 271.41H379.93V304.47Z" fill="#B0E5FF"/>
<path d="M352.22 271.41L354.2 276.11H379.93V271.41H352.22Z" fill="black"/>
<path d="M314.289 218.33C315.637 218.295 316.95 217.889 318.082 217.157C319.215 216.425 320.124 215.395 320.709 214.18C324.559 206.18 331.059 198.37 342.209 185.64C342.856 184.943 343.357 184.125 343.683 183.232C344.01 182.34 344.156 181.391 344.112 180.441C344.068 179.492 343.836 178.561 343.429 177.702C343.021 176.843 342.447 176.074 341.739 175.44L326.889 161.75C326.12 161.039 325.208 160.501 324.213 160.171C323.219 159.842 322.166 159.729 321.124 159.84C320.082 159.95 319.076 160.283 318.174 160.814C317.271 161.345 316.492 162.063 315.889 162.92C314.87 164.425 314.43 166.248 314.653 168.052C314.875 169.856 315.745 171.518 317.099 172.73L325.859 180.81C316.609 189.93 311.859 198.7 307.589 207.58C306.737 209.291 306.566 211.263 307.112 213.095C307.658 214.928 308.879 216.484 310.529 217.45C311.681 218.076 312.98 218.38 314.289 218.33Z" fill="#FFD736"/>
<path d="M309.79 150.58C309.124 151.833 308.232 152.951 307.16 153.88C305.382 155.481 303.985 157.459 303.07 159.67C302.822 160.252 302.751 160.894 302.864 161.516C302.978 162.138 303.272 162.713 303.71 163.17L314.42 174.17C314.806 174.571 315.313 174.836 315.863 174.924C316.413 175.013 316.977 174.92 317.47 174.66C322.187 171.774 325.767 167.353 327.61 162.14C327.795 161.604 327.829 161.027 327.707 160.473C327.585 159.919 327.313 159.409 326.92 159L322.46 154.39C323.31 152.39 324.94 149.32 326.17 147.06C326.785 145.945 326.979 144.648 326.719 143.402C326.458 142.156 325.76 141.045 324.75 140.27C324.29 139.909 323.809 139.575 323.31 139.27C322.651 138.88 321.9 138.675 321.135 138.675C320.37 138.675 319.618 138.88 318.96 139.27C315.24 141.6 312.78 144.92 309.79 150.58Z" fill="#29CC7A"/>
<path d="M323.31 139.34C323.809 139.645 324.29 139.979 324.75 140.34C325.745 141.093 326.437 142.179 326.7 143.4C326.41 141.79 323.36 141.61 322.22 143.11C321.08 144.61 318.74 147.93 317.22 148.93C316.63 149.317 315.914 149.464 315.219 149.342C314.524 149.219 313.902 148.836 313.48 148.27C312.98 147.68 316.28 142.87 318.63 139.59L318.94 139.39C319.596 138.989 320.349 138.772 321.118 138.764C321.887 138.755 322.644 138.954 323.31 139.34Z" fill="#57F287"/>
<path d="M324.069 179.13L311.639 167.68C310.208 166.354 309.363 164.514 309.289 162.564C309.215 160.615 309.918 158.716 311.244 157.285C312.57 155.854 314.411 155.009 316.36 154.935C318.309 154.861 320.208 155.564 321.639 156.89L333.799 168.11C332.329 166.76 327.619 168.72 325.239 173.37C322.859 178.02 323.639 178.74 324.069 179.13Z" fill="white"/>
<path d="M328.94 163.64L331.26 165.81C329.8 164.46 325.06 166.39 322.68 171.04C320.3 175.69 321.09 176.42 321.51 176.81L319.19 174.67C318.77 174.28 317.98 173.56 320.36 168.91C322.74 164.26 327.48 162.29 328.94 163.64Z" fill="#5865F2"/>
<path d="M326.07 160.89C324.61 159.54 319.88 161.55 317.5 166.21C315.12 170.87 315.9 171.58 316.32 171.97C316.74 172.36 315.94 172.76 315.94 172.76L308.88 166.91L307.07 160.81L312.41 151.38L320.22 153.49L325.89 159.02L326.07 160.89Z" fill="#29CC7A"/>
<path d="M322.89 198.73C323.181 205.244 322.147 211.749 319.85 217.852C317.553 223.955 314.041 229.528 309.527 234.233C305.013 238.939 299.591 242.679 293.589 245.228C287.587 247.776 281.131 249.08 274.61 249.06C268.177 249.143 261.8 247.861 255.898 245.299C249.996 242.738 244.705 238.955 240.372 234.199C236.038 229.444 232.762 223.824 230.759 217.71C228.756 211.596 228.071 205.128 228.75 198.73C231.21 174.02 252.67 155.37 276.86 155.37C288.631 155.309 299.975 159.776 308.543 167.848C317.112 175.919 322.248 186.976 322.89 198.73Z" fill="#FF78B9"/>
<path d="M231.68 220.21C230.083 216.182 229.073 211.945 228.68 207.63L234.53 195.18L242.53 190.78C241.15 198.57 246.73 212.62 253.61 219.22C246.83 219.81 238.07 220.09 231.68 220.21Z" fill="black"/>
<path d="M236.389 241.44H312.459V253.97H236.389V241.44Z" fill="#808AFF"/>
<path d="M300.72 270.81C302.168 270.811 303.589 270.424 304.836 269.689C306.083 268.954 307.11 267.897 307.81 266.63L324.07 237.26C324.747 236.027 325.092 234.64 325.07 233.233C325.048 231.827 324.66 230.451 323.945 229.24C323.229 228.029 322.211 227.025 320.99 226.327C319.768 225.629 318.387 225.262 316.98 225.26H307.07C302.6 225.26 295.16 227.81 292.45 233.35C290.45 237.35 292 241.45 296.45 241.45H303.16L293.64 258.81C292.963 260.042 292.619 261.429 292.64 262.834C292.662 264.24 293.049 265.615 293.763 266.826C294.477 268.037 295.494 269.041 296.714 269.739C297.934 270.438 299.314 270.807 300.72 270.81Z" fill="#FFD736"/>
<path d="M300.57 246.25C301.38 244.78 305.65 243 311.23 244.99C316.81 246.98 316.59 250.74 315.39 252.91L307.81 266.62C306.768 268.487 305.029 269.866 302.973 270.454C300.918 271.043 298.713 270.795 296.84 269.762C294.968 268.73 293.58 266.999 292.98 264.947C292.38 262.894 292.618 260.688 293.64 258.81L300.57 246.25Z" fill="white"/>
<path d="M298.42 250.14C299.23 248.68 303.51 246.89 309.08 248.89C314.65 250.89 314.44 254.63 313.24 256.8L311.51 259.94C312.71 257.76 312.79 253.94 307.35 252.02C301.91 250.1 297.5 251.81 296.69 253.28L298.42 250.14Z" fill="#5865F2"/>
<path d="M288.6 262.58C290.79 258.12 291.96 256.49 301.13 257.92C310.3 259.35 311.49 263.92 310.58 265.68C310.18 266.42 309.15 268.09 309.15 268.09C313.76 268.65 318.42 270.49 318.45 275.62C318.45 281.22 315.45 286.74 303.58 285.1C291.71 283.46 286.06 280.1 284.5 277.28C282.94 274.46 284.95 269.99 288.6 262.58Z" fill="#29CC7A"/>
<path d="M301.34 271.9C302.16 268.9 303.34 267.39 309.15 268.09C313.76 268.65 318.42 270.49 318.45 275.62C318.45 279.86 316.72 284.05 310.72 285.13C306.76 280.96 300.7 274.24 301.34 271.9Z" fill="#57F287"/>
<path d="M284.5 277.28C284.333 276.964 284.205 276.628 284.12 276.28C283.995 275.687 283.991 275.075 284.108 274.481C284.226 273.886 284.463 273.322 284.805 272.822C285.147 272.322 285.588 271.896 286.099 271.571C286.61 271.246 287.182 271.028 287.78 270.93C290.2 270.5 292.13 272.11 296.14 272.28C300.56 272.47 305.67 270.56 311.14 271.71C312.993 272.047 314.738 272.822 316.23 273.97C317.16 274.805 317.796 275.917 318.044 277.142C318.293 278.366 318.141 279.639 317.61 280.77C315.99 284.22 311.95 286.23 303.61 285.08C291.73 283.46 286.07 280.14 284.5 277.28Z" fill="black"/>
<path d="M244.999 195.39L265.389 192.12L265.549 216.21L251.209 219.84L244.999 195.39Z" fill="white"/>
<path d="M244.991 195.344C244.738 193.79 249.098 191.788 254.729 190.872C260.36 189.956 265.13 190.473 265.383 192.026C265.635 193.58 261.275 195.582 255.644 196.498C250.013 197.414 245.244 196.897 244.991 195.344Z" fill="#8CD9FF"/>
<path fill-rule="evenodd" clip-rule="evenodd" d="M255.879 177.847C255.518 177.653 255.11 177.562 254.701 177.584C254.289 177.605 253.891 177.741 253.551 177.974C253.211 178.208 252.942 178.531 252.774 178.907C252.606 179.283 252.545 179.697 252.597 180.105L254.227 193.382C254.294 193.93 254.793 194.32 255.341 194.253C255.89 194.185 256.279 193.686 256.212 193.138L254.581 179.851C254.576 179.808 254.582 179.763 254.6 179.723C254.618 179.682 254.647 179.648 254.683 179.623C254.72 179.598 254.762 179.583 254.807 179.581C254.851 179.579 254.895 179.588 254.934 179.609L254.945 179.615L262.565 183.615C263.054 183.872 263.658 183.684 263.915 183.195C264.172 182.706 263.983 182.101 263.494 181.845L255.879 177.847Z" fill="white"/>
<path d="M285.179 191.24C283.719 193.24 285.259 195.94 288.619 195.94C291.979 195.94 295.899 193.25 297.359 191.24C298.819 189.23 297.279 187.61 293.919 187.61C290.559 187.61 286.649 189.24 285.179 191.24Z" fill="black"/>
<path d="M303.71 163.17C303.272 162.713 302.978 162.138 302.864 161.516C302.751 160.894 302.822 160.252 303.07 159.67C303.985 157.459 305.382 155.481 307.16 153.88C308.232 152.951 309.124 151.833 309.79 150.58C312.79 144.92 315.24 141.58 318.96 139.34C319.618 138.95 320.369 138.745 321.135 138.745C321.9 138.745 322.651 138.95 323.31 139.34C323.809 139.645 324.29 139.979 324.75 140.34C325.091 140.595 325.397 140.894 325.66 141.23C324.15 139.46 321.27 139.73 317.98 143.51C313.24 148.94 313.44 150.81 311.13 153.51C309.07 155.88 305.67 159.21 304.27 163.82L303.71 163.17Z" fill="black"/>
<path d="M303.92 175.62C302.52 170.17 297.92 165.53 293.74 165.25C293.567 165.24 293.393 165.24 293.22 165.25C291.22 165.25 289.87 166.25 287.93 168.37C287.52 168.849 286.949 169.161 286.324 169.248C285.7 169.335 285.065 169.189 284.54 168.84C281.764 166.656 278.361 165.419 274.83 165.31C270 165.31 266.2 169.81 266.34 175.31C266.48 180.81 270.51 185.36 275.34 185.36C275.618 185.358 275.895 185.341 276.17 185.31H276.34C279.34 184.94 282.75 182.98 286.19 180.01C286.559 179.676 287.029 179.474 287.526 179.438C288.022 179.402 288.517 179.533 288.93 179.81C293.53 183.5 297.07 184.96 298.83 184.96C303.07 185.25 305.32 181.06 303.92 175.62Z" fill="white"/>
<path d="M266.387 176.286C265.814 170.759 269.237 165.876 274.033 165.379C278.829 164.882 283.181 168.959 283.754 174.485C284.327 180.011 280.904 184.894 276.108 185.392C271.312 185.889 266.96 181.812 266.387 176.286Z" fill="white"/>
<path d="M290.288 178.556C287.313 173.456 287.577 167.761 290.878 165.835C294.179 163.909 299.267 166.482 302.242 171.581C305.218 176.681 304.953 182.376 301.652 184.302C298.351 186.228 293.263 183.655 290.288 178.556Z" fill="white"/>
<path d="M299.169 167.81C297.953 167.074 296.585 166.623 295.169 166.49C294.969 166.49 294.779 166.49 294.579 166.49C292.369 166.49 290.809 167.6 288.649 169.88C288.174 170.4 287.531 170.736 286.832 170.83C286.134 170.923 285.425 170.767 284.829 170.39C281.664 168.011 277.838 166.673 273.879 166.56C272.097 166.558 270.356 167.091 268.879 168.09C269.62 167.221 270.54 166.522 271.575 166.04C272.61 165.559 273.738 165.306 274.879 165.3C278.407 165.407 281.808 166.644 284.579 168.83C285.106 169.18 285.742 169.326 286.368 169.239C286.995 169.152 287.568 168.84 287.979 168.36C289.919 166.26 291.299 165.24 293.269 165.24C293.443 165.23 293.616 165.23 293.789 165.24C295.814 165.49 297.703 166.392 299.169 167.81Z" fill="#C9EDFF"/>
<path d="M275.18 174.123C274.714 172.281 275.479 170.499 276.887 170.144C278.296 169.788 279.814 170.993 280.279 172.835C280.745 174.677 279.98 176.459 278.572 176.815C277.163 177.17 275.645 175.965 275.18 174.123Z" fill="black"/>
<path d="M292.901 174.07C292.362 172.248 292.938 170.472 294.188 170.102C295.438 169.732 296.888 170.909 297.427 172.731C297.966 174.553 297.39 176.33 296.14 176.699C294.89 177.069 293.44 175.892 292.901 174.07Z" fill="black"/>
<path fill-rule="evenodd" clip-rule="evenodd" d="M306.222 181.98C304.724 184.1 302.697 185.337 300.517 185.386C298.338 185.435 296.257 184.291 294.665 182.24C293.074 180.19 292.023 177.284 291.949 174.006C291.875 170.729 292.794 167.778 294.292 165.658C295.79 163.538 297.817 162.301 299.996 162.252C302.176 162.203 304.257 163.347 305.848 165.398C307.44 167.449 308.491 170.354 308.565 173.632C308.638 176.91 307.719 179.86 306.222 181.98ZM307.855 183.134C309.624 180.63 310.647 177.25 310.564 173.587C310.482 169.924 309.308 166.594 307.428 164.172C305.549 161.75 302.912 160.186 299.951 160.253C296.99 160.319 294.427 162 292.658 164.504C290.89 167.009 289.867 170.389 289.949 174.051C290.032 177.714 291.206 181.045 293.085 183.467C294.965 185.888 297.601 187.452 300.562 187.386C303.523 187.319 306.086 185.638 307.855 183.134Z" fill="#5865F2"/>
<path fill-rule="evenodd" clip-rule="evenodd" d="M282.077 182.307C280.496 184.466 278.343 185.744 276.011 185.797C273.678 185.849 271.47 184.669 269.793 182.584C268.116 180.498 267.012 177.545 266.938 174.218C266.863 170.891 267.832 167.892 269.414 165.732C270.995 163.574 273.147 162.295 275.48 162.243C277.813 162.19 280.021 163.37 281.697 165.456C283.375 167.542 284.478 170.494 284.553 173.821C284.628 177.149 283.659 180.148 282.077 182.307ZM283.69 183.489C285.554 180.944 286.637 177.505 286.553 173.776C286.469 170.047 285.233 166.661 283.256 164.202C281.279 161.743 278.519 160.174 275.435 160.243C272.351 160.313 269.665 162.005 267.8 164.55C265.936 167.095 264.854 170.534 264.938 174.263C265.022 177.992 266.258 181.379 268.234 183.837C270.212 186.296 272.972 187.866 276.056 187.796C279.139 187.727 281.826 186.035 283.69 183.489Z" fill="#5865F2"/>
<path fill-rule="evenodd" clip-rule="evenodd" d="M291.27 169.66H285.57V171.66H291.27V169.66Z" fill="#5865F2"/>
<path d="M309.169 288.33C309.98 287.914 310.664 287.289 311.149 286.518C311.635 285.747 311.904 284.86 311.929 283.95C311.967 283.284 311.967 282.616 311.929 281.95C311.79 280.442 311.114 279.033 310.024 277.982C308.934 276.93 307.502 276.305 305.989 276.22C302.929 276.02 298.789 275.71 296.249 275.31L294.439 267.9C294.276 267.243 293.935 266.643 293.453 266.167C292.972 265.691 292.368 265.356 291.709 265.2C284.169 263.44 276.379 265.36 272.709 267.49C272.137 267.822 271.687 268.331 271.429 268.941C271.171 269.551 271.119 270.228 271.279 270.87L275.589 288.64C275.77 289.371 276.162 290.033 276.717 290.542C277.272 291.05 277.965 291.384 278.709 291.5C281.517 291.994 284.4 291.84 287.139 291.05C288.757 290.557 290.453 290.368 292.139 290.49C299.629 291.02 304.529 290.64 309.169 288.33Z" fill="#29CC7A"/>
<path d="M311.929 283.95C311.967 283.284 311.967 282.616 311.929 281.95C311.804 280.471 311.151 279.087 310.089 278.05C311.519 279.36 309.769 282.55 307.539 282.74C305.309 282.93 300.479 283.2 298.539 284.07C297.776 284.421 297.176 285.05 296.861 285.829C296.547 286.608 296.543 287.478 296.849 288.26C297.119 289.13 304.049 288.86 308.849 288.57L309.239 288.38C310.044 287.951 310.719 287.313 311.192 286.534C311.665 285.754 311.92 284.862 311.929 283.95Z" fill="#57F287"/>
<path d="M275.5 288.59C275.68 289.321 276.072 289.983 276.627 290.492C277.183 291 277.876 291.334 278.62 291.45C281.427 291.944 284.311 291.79 287.05 291C288.668 290.507 290.363 290.318 292.05 290.44C299.65 291.02 304.55 290.64 309.19 288.33C310.007 287.919 310.7 287.295 311.194 286.524C311.688 285.754 311.967 284.865 312 283.95C312.037 283.284 312.037 282.616 312 281.95C311.93 281.441 311.802 280.941 311.62 280.46C312.45 283.11 310.35 285.84 304.46 286.76C295.98 288.09 294.22 286.76 290.07 287.34C286.38 287.91 280.88 289.23 275.34 287.72L275.5 288.59Z" fill="black"/>
<path d="M283.83 282.81C285.036 282.809 286.227 282.539 287.316 282.02C288.405 281.5 289.364 280.745 290.123 279.808C290.883 278.871 291.424 277.776 291.707 276.604C291.991 275.431 292.009 274.21 291.76 273.03L282.97 231.64C282.587 229.824 281.591 228.194 280.149 227.025C278.707 225.856 276.907 225.219 275.05 225.22H259.23C257.133 225.294 255.145 226.179 253.688 227.689C252.23 229.199 251.415 231.216 251.415 233.315C251.415 235.414 252.23 237.431 253.688 238.941C255.145 240.451 257.133 241.336 259.23 241.41H268.5L275.92 276.41C276.309 278.22 277.306 279.842 278.745 281.007C280.184 282.171 281.979 282.808 283.83 282.81Z" fill="#FFD736"/>
<path d="M268.49 241.37L266.5 232.42H263.34V241.37H268.49Z" fill="black"/>
<path d="M229.249 189.81C226.969 195.58 221.569 212.94 221.359 217.36C221.149 221.78 224.609 226.23 231.109 225.41C234.669 224.96 260.579 220.41 273.339 218.22C275.297 217.887 277.064 216.846 278.305 215.296C279.546 213.745 280.174 211.793 280.069 209.81C280.013 208.667 279.715 207.548 279.196 206.528C278.676 205.508 277.947 204.609 277.055 203.891C276.163 203.174 275.13 202.653 274.022 202.363C272.915 202.073 271.758 202.021 270.629 202.21L238.769 207.52C239.697 201.878 240.97 196.297 242.579 190.81C243.739 186.81 242.149 182.4 236.579 182.81C231.839 183.11 230.519 186.56 229.249 189.81Z" fill="#FFD736"/>
<path d="M273.399 217.3L274.989 216.98L287.269 212.33L294.669 204.93C294.669 204.93 294.059 204.17 290.579 200.61C287.099 197.05 285.209 197.82 282.029 199.33C278.912 200.922 275.596 202.092 272.169 202.81C271.498 202.941 270.871 203.24 270.346 203.679C269.822 204.118 269.417 204.682 269.169 205.32C268.56 207.011 268.316 208.813 268.453 210.606C268.591 212.399 269.108 214.142 269.969 215.72C270.308 216.306 270.819 216.772 271.433 217.055C272.048 217.338 272.735 217.424 273.399 217.3Z" fill="#D11583"/>
<path fill-rule="evenodd" clip-rule="evenodd" d="M285.6 202.223C285.071 202.383 284.772 202.941 284.932 203.47L286.122 207.4C286.282 207.928 286.841 208.227 287.369 208.067C287.898 207.907 288.196 207.349 288.036 206.82L286.846 202.89C286.686 202.362 286.128 202.063 285.6 202.223Z" fill="black"/>
<path d="M317.57 201.51H294.49C293.225 201.511 291.976 201.791 290.831 202.331C289.687 202.87 288.676 203.655 287.87 204.63L280.8 213.18C280.039 214.117 279.624 215.288 279.624 216.495C279.624 217.702 280.039 218.873 280.8 219.81C281.655 220.869 282.887 221.555 284.238 221.723C285.589 221.891 286.952 221.528 288.04 220.71L293.91 216.3H311.07L312 218.67C312.359 219.579 312.983 220.358 313.791 220.907C314.599 221.457 315.553 221.75 316.53 221.75C317.169 221.75 317.803 221.624 318.394 221.379C318.984 221.135 319.521 220.776 319.974 220.324C320.426 219.871 320.784 219.335 321.029 218.744C321.274 218.153 321.4 217.52 321.4 216.88V205.32C321.399 204.818 321.298 204.322 321.105 203.859C320.912 203.396 320.63 202.976 320.274 202.622C319.918 202.268 319.496 201.988 319.033 201.797C318.569 201.606 318.072 201.509 317.57 201.51Z" fill="white"/>
<path d="M285.26 204.6C285.26 204.6 286.68 209.72 287.26 211.13C288.638 211.612 290.052 211.983 291.49 212.24C292.088 212.334 292.658 212.563 293.155 212.91C293.652 213.256 294.064 213.711 294.36 214.24C294.759 214.987 294.902 215.845 294.766 216.682C294.631 217.518 294.224 218.287 293.61 218.87C291.03 221.3 289.47 222.58 288.24 223.7C286.76 225.06 284.06 224.96 280.92 223.29C277.78 221.62 276.71 221.67 274.37 216L272.26 209.85C272.03 209.183 271.967 208.469 272.077 207.772C272.187 207.075 272.466 206.415 272.891 205.851C273.316 205.287 273.872 204.837 274.512 204.538C275.152 204.24 275.855 204.103 276.56 204.14L285.26 204.6Z" fill="#D11583"/>
<path d="M312.999 214.75C314.899 212.75 315.319 212.6 316.599 212.6H321.379V205.32C321.379 204.31 320.978 203.34 320.264 202.626C319.549 201.911 318.58 201.51 317.569 201.51H311.199C311.833 200.492 312.391 199.429 312.869 198.33C313.739 196.33 314.339 195.99 316.159 195.94C316.751 195.924 317.336 196.059 317.861 196.332C318.386 196.605 318.833 197.007 319.159 197.5C319.918 198.612 320.925 199.533 322.099 200.19C324.599 201.66 325.099 202.81 325.479 206.07C326.019 211.07 326.159 211.83 326.349 214.75C326.539 217.67 325.799 218.75 322.969 220.86C320.139 222.97 318.049 223.86 316.149 223.86C314.249 223.86 312.919 222.63 311.069 220.3C309.219 217.97 311.069 216.72 312.999 214.75Z" fill="#D11583"/>
<path d="M304.83 207.29H309.3C310.156 207.29 311 207.086 311.762 206.694C312.523 206.303 313.181 205.736 313.68 205.04C313.721 204.98 313.745 204.91 313.75 204.837C313.754 204.764 313.74 204.691 313.707 204.626C313.675 204.561 313.625 204.506 313.564 204.466C313.503 204.426 313.432 204.403 313.36 204.4H301.07C300.957 204.406 300.848 204.445 300.756 204.512C300.665 204.578 300.594 204.669 300.553 204.775C300.512 204.88 300.502 204.995 300.525 205.106C300.547 205.217 300.601 205.319 300.68 205.4L301.23 205.89C302.216 206.785 303.498 207.283 304.83 207.29Z" fill="#57F287"/>
<path d="M243.07 252.58C242.353 252.595 241.656 252.825 241.071 253.241C240.487 253.656 240.04 254.238 239.79 254.91L236.62 263.55C236.217 264.52 236.12 265.59 236.344 266.616C236.567 267.642 237.1 268.576 237.87 269.29L238.1 269.47C240.143 271.094 241.557 273.378 242.1 275.93C243.29 281.13 245.41 285.06 249.1 287.06C253.98 289.72 258.55 290.9 261.91 286.36C264.81 282.43 262.46 279.91 260.3 270.61C259.902 268.851 260.016 267.016 260.63 265.32L261.46 263.05C261.686 262.438 261.742 261.777 261.622 261.136C261.502 260.495 261.211 259.899 260.78 259.41C256.97 255.12 250.37 252.39 243.07 252.58Z" fill="#29CC7A"/>
<path d="M263.07 280.91C263.311 281.847 263.331 282.827 263.128 283.773C262.925 284.719 262.505 285.605 261.9 286.36C258.65 290.76 254.25 289.79 249.54 287.29C246.44 283.36 243.04 278.29 243.88 275.84C245.36 271.52 247.8 275.2 249.24 277.36C251.14 280.21 254.13 281.46 257.04 282.52C259.95 283.58 263.58 283.5 263.07 280.91Z" fill="#57F287"/>
<path d="M239.37 268.32C240.593 268.94 241.662 269.824 242.501 270.909C243.34 271.993 243.927 273.251 244.22 274.59C244.816 276.953 245.915 279.159 247.443 281.057C248.97 282.956 250.889 284.502 253.07 285.59C257.46 287.85 260.92 287.7 262.2 285.93C258.78 291.21 253.52 289.42 249.12 287.02C245.46 285.02 243.34 281.09 242.12 275.89C241.577 273.338 240.162 271.054 238.12 269.43L237.89 269.25C237.12 268.536 236.587 267.602 236.364 266.576C236.14 265.55 236.237 264.48 236.64 263.51C236.521 264.498 236.723 265.498 237.214 266.364C237.705 267.229 238.461 267.915 239.37 268.32Z" fill="black"/>
<path d="M249.9 268.14C251.587 268.141 253.233 267.615 254.607 266.634C255.98 265.653 257.013 264.267 257.56 262.67L266.75 235.89C267.169 234.669 267.291 233.366 267.104 232.089C266.917 230.812 266.427 229.598 265.675 228.548C264.924 227.499 263.932 226.645 262.783 226.057C261.633 225.47 260.36 225.165 259.07 225.17H250.07C247.921 225.17 245.861 226.023 244.342 227.542C242.823 229.061 241.97 231.122 241.97 233.27C241.97 236.99 244.05 237.99 247.97 240.83L242.28 257.41C241.581 259.438 241.715 261.66 242.652 263.589C243.59 265.518 245.254 266.996 247.28 267.7C248.122 267.992 249.008 268.14 249.9 268.14Z" fill="#FFD736"/>
<path d="M246.24 239.62L248.37 233.39C248.456 233.138 248.639 232.931 248.878 232.813C249.117 232.696 249.393 232.679 249.645 232.765C249.897 232.851 250.104 233.034 250.221 233.273C250.338 233.512 250.356 233.788 250.27 234.04L247.93 240.83L246.24 239.62Z" fill="black"/>
<path d="M242.25 257.41L248.52 239.12C248.28 239.81 248.92 243.12 254.27 245.2C259.62 247.28 263.08 246.57 263.66 244.88L257.56 262.67C257.013 264.267 255.981 265.653 254.607 266.634C253.233 267.615 251.588 268.141 249.9 268.14C249.008 268.14 248.122 267.992 247.28 267.7C245.248 267.002 243.577 265.526 242.634 263.597C241.691 261.667 241.552 259.442 242.25 257.41Z" fill="white"/>
<path d="M245.409 248.18L246.809 244.11C246.579 244.8 247.209 248.11 252.559 250.19C257.909 252.27 261.379 251.56 261.959 249.87L260.559 253.94C259.979 255.63 256.509 256.4 251.159 254.26C245.809 252.12 245.179 248.87 245.409 248.18Z" fill="#5865F2"/>
<path d="M278.339 252.03C284.009 251.12 286.589 248.69 286.229 246.94L291.759 272.94C292.017 273.994 292.06 275.088 291.886 276.159C291.713 277.229 291.326 278.254 290.749 279.172C290.172 280.09 289.416 280.883 288.527 281.504C287.637 282.125 286.632 282.561 285.572 282.786C284.511 283.011 283.415 283.02 282.351 282.814C281.286 282.608 280.273 282.19 279.373 281.585C278.473 280.98 277.703 280.201 277.11 279.293C276.517 278.385 276.112 277.367 275.919 276.3L270.279 249.81C270.429 250.48 272.649 252.95 278.339 252.03Z" fill="white"/>
<path d="M279.45 257.27C285.13 256.36 287.7 253.93 287.34 252.18L288.15 256C288.51 257.75 285.94 260.17 280.26 261.09C274.58 262.01 272.35 259.54 272.2 258.83L271.39 255.01C271.54 255.72 273.76 258.19 279.45 257.27Z" fill="#5865F2"/>
<path d="M290.29 266.07C290.5 267.07 290.73 269.39 286.36 270.73C280.7 272.47 274.92 271.64 274.6 270.14L274.15 268.03L273.02 268.14L275.72 280.81L283.92 285.41L292.39 280.99L294.61 275.17L292.32 267.17L290.29 266.07Z" fill="#29CC7A"/>
<path d="M243.069 255.07C242.839 255.76 243.639 258.51 248.989 260.65C254.339 262.79 257.529 262.82 258.109 261.13L258.379 260.33L259.589 260.81L256.399 268.81L246.969 271.17L239.869 264.75L239.149 260.75L241.449 254.35L243.449 254.05L243.069 255.07Z" fill="#29CC7A"/>
<path d="M279.349 211.93C279.605 211.863 279.877 211.9 280.106 212.033C280.335 212.166 280.501 212.384 280.569 212.64C281.259 215.27 281.709 216.64 283.569 217.64C286.235 219.029 289.14 219.901 292.129 220.21L291.129 221.14C290.841 221.393 290.497 221.574 290.125 221.67C289.753 221.765 289.364 221.772 288.989 221.69C286.788 221.225 284.661 220.458 282.669 219.41C279.939 217.98 279.319 215.63 278.669 213.13C278.607 212.881 278.643 212.617 278.769 212.394C278.896 212.171 279.104 212.004 279.349 211.93Z" fill="black"/>
<path d="M230.519 209.96L238.579 205.34C238.748 205.252 238.939 205.213 239.129 205.23C238.999 206 238.869 206.75 238.749 207.5H238.879L231.519 211.72C231.289 211.853 231.015 211.888 230.758 211.819C230.501 211.749 230.282 211.581 230.149 211.35C230.017 211.119 229.981 210.845 230.051 210.588C230.12 210.331 230.289 210.113 230.519 209.98V209.96Z" fill="black"/>
<path d="M312.279 217.34C312.065 217.024 311.969 216.642 312.007 216.262C312.045 215.882 312.216 215.527 312.489 215.26L312.999 214.75L313.459 214.28C313.339 216.53 314.459 217.14 319.329 219.48C320.329 219.96 321.419 220.48 322.629 221.08L322.059 221.48C321.666 221.754 321.207 221.919 320.729 221.957C320.251 221.996 319.772 221.907 319.339 221.7L318.469 221.29C315.429 219.81 313.339 218.81 312.279 217.34Z" fill="black"/>
<path d="M293.94 206.11C293.94 205.144 294.721 204.36 295.685 204.36C296.649 204.36 297.43 205.144 297.43 206.11V208.12C297.43 209.086 296.649 209.87 295.685 209.87C294.721 209.87 293.94 209.086 293.94 208.12V206.11Z" fill="#A6ADFF"/>
<path d="M315.77 206.11C315.77 205.144 316.552 204.36 317.515 204.36C318.479 204.36 319.26 205.144 319.26 206.11V208.12C319.26 209.086 318.479 209.87 317.515 209.87C316.552 209.87 315.77 209.086 315.77 208.12V206.11Z" fill="#A6ADFF"/>
<path d="M303.22 241.44H300.93L304.24 235.44C304.305 235.325 304.393 235.224 304.498 235.143C304.602 235.062 304.722 235.003 304.85 234.968C304.977 234.933 305.111 234.924 305.242 234.94C305.373 234.957 305.5 234.999 305.615 235.065C305.73 235.131 305.831 235.218 305.912 235.323C305.993 235.428 306.052 235.547 306.087 235.675C306.122 235.802 306.131 235.936 306.115 236.067C306.098 236.198 306.055 236.325 305.99 236.44L303.22 241.44Z" fill="black"/>
<path d="M294.37 193.92C292.677 195.109 290.685 195.802 288.62 195.92C285.72 195.92 284.18 193.92 284.75 192.07C286.388 191.625 288.107 191.56 289.774 191.881C291.441 192.201 293.013 192.899 294.37 193.92Z" fill="#E63795"/>
<path d="M296.76 188.18C295.88 189.72 291.91 189.65 286.76 189.79C288.893 188.381 291.384 187.611 293.94 187.57C294.916 187.541 295.884 187.75 296.76 188.18Z" fill="white"/>
<path d="M325.86 180.81L324.4 179.47L327.07 176.36C327.157 176.261 327.262 176.18 327.38 176.121C327.498 176.063 327.626 176.028 327.758 176.019C327.889 176.011 328.021 176.028 328.146 176.07C328.27 176.112 328.386 176.178 328.485 176.265C328.584 176.352 328.665 176.457 328.724 176.575C328.782 176.693 328.817 176.821 328.825 176.953C328.834 177.084 328.817 177.216 328.775 177.341C328.733 177.466 328.667 177.581 328.58 177.68L325.87 180.81C325.87 180.81 325.87 180.81 325.79 180.87L325.86 180.81Z" fill="black"/>
<path d="M219.78 186.01C216.615 186.01 214.05 183.445 214.05 180.28C214.05 177.115 216.615 174.55 219.78 174.55C222.944 174.55 225.51 177.115 225.51 180.28C225.51 183.445 222.944 186.01 219.78 186.01Z" fill="#FFD736"/>
<path d="M205.42 185.81C198.77 185.81 193.38 180.42 193.38 173.77C193.38 167.12 198.77 161.73 205.42 161.73C212.069 161.73 217.46 167.12 217.46 173.77C217.46 180.42 212.069 185.81 205.42 185.81Z" fill="#FFD736"/>
<path d="M150.18 149.06C163.07 153.64 165.47 153.34 176.18 197.06C191.46 192.74 199.54 193.83 200.85 207.15C202.16 220.47 185.79 220.69 171.37 220.9C156.95 221.11 152.18 211.9 142.23 184.99C132.28 158.08 150.18 149.06 150.18 149.06Z" fill="#459FF7"/>
<path d="M177.74 180.95C171.09 180.95 165.7 175.56 165.7 168.91C165.7 162.26 171.09 156.87 177.74 156.87C184.389 156.87 189.78 162.26 189.78 168.91C189.78 175.56 184.389 180.95 177.74 180.95Z" fill="#FFD736"/>
<path d="M191.7 173.77C185.05 173.77 179.66 168.38 179.66 161.73C179.66 155.08 185.05 149.69 191.7 149.69C198.349 149.69 203.74 155.08 203.74 161.73C203.74 168.38 198.349 173.77 191.7 173.77Z" fill="#FFD736"/>
<path d="M204.26 213.11C210.08 212.58 211.26 210.32 211.59 207.9C211.92 205.48 212.5 205 214.46 203.09C216.42 201.18 217.86 198 215.07 196.64C212.938 195.719 210.706 195.048 208.42 194.64L204.26 213.11Z" fill="#FF8CC4"/>
<path d="M161.48 168.59C160.37 173.13 172.56 179.99 188.69 183.9C204.82 187.81 218.79 187.3 219.89 182.76C220.99 178.22 209.11 170.1 192.98 166.19C176.85 162.28 162.58 164.04 161.48 168.59Z" fill="white"/>
<path d="M161.43 168.91L219.78 183.06L203.21 219.18L159.61 208.6L161.43 168.91Z" fill="white"/>
<path d="M168.01 210.63L175.4 212.43L181.07 164.25C177.603 163.936 174.113 163.956 170.65 164.31L168.01 210.63Z" fill="#A6ADFF"/>
<path d="M186.77 215.18L192.94 216.68L210.88 173.03C208.191 171.528 205.393 170.232 202.51 169.15L186.77 215.18Z" fill="#A6ADFF"/>
<path d="M180.324 218.562C168.275 215.64 159.026 211.131 159.666 208.49C160.306 205.85 170.594 206.078 182.643 208.999C194.693 211.921 203.942 216.43 203.302 219.071C202.661 221.712 192.374 221.484 180.324 218.562Z" fill="black"/>
<path d="M203.07 199.81C205.23 194.65 206.57 193.57 207.81 193.19C209.05 192.81 211.21 192.8 216 197.19L207 210.9C207.3 210.27 206.08 208.12 204 206.78C201.92 205.44 200.88 205.02 203.07 199.81Z" fill="#FF8CC4"/>
<path d="M214.07 198.46C217.37 197.46 217.48 195.91 217.48 194.6C217.48 193.29 216.57 189.75 215.48 188.6C214.39 187.45 213.2 188.77 212.81 190.6C212.42 192.43 212.4 193.39 214.07 198.46Z" fill="#FF8CC4"/>
<path d="M105.61 76.05C104.102 76.05 102.88 74.8277 102.88 73.32C102.88 71.8123 104.102 70.59 105.61 70.59C107.118 70.59 108.34 71.8123 108.34 73.32C108.34 74.8277 107.118 76.05 105.61 76.05Z" fill="#FFD736"/>
<path d="M139.81 77.55C136.755 73.7453 132.654 70.9176 128.012 69.4155C123.37 67.9133 118.389 67.8023 113.685 69.0963C108.981 70.3903 104.758 73.0326 101.537 76.6975C98.3157 80.3624 96.2375 84.8897 95.5584 89.7213C94.8793 94.553 95.6288 99.4778 97.7147 103.889C99.8005 108.299 103.131 112.004 107.297 114.544C111.462 117.085 116.28 118.351 121.157 118.187C126.033 118.023 130.755 116.435 134.74 113.62C137.507 111.635 139.842 109.11 141.605 106.196C143.368 103.283 144.521 100.042 144.995 96.6702C145.469 93.2981 145.254 89.8649 144.363 86.5785C143.471 83.292 141.922 80.2205 139.81 77.55Z" fill="#1D2CC2"/>
<path d="M152.54 83.94C164.54 68.84 166.08 59.94 153.64 57C145.791 55.2126 137.645 55.175 129.78 56.89C126.649 57.6235 123.705 58.9985 121.134 60.9281C118.562 62.8576 116.419 65.2997 114.84 68.1C105.39 84.37 104.23 89.92 104.23 89.92L152.54 83.94Z" fill="#FF78B9"/>
<path d="M142.84 75.54C149.75 75.54 149.62 77.87 149.23 80.61C148.84 83.35 142.84 75.54 142.84 75.54Z" fill="black"/>
<path d="M152.53 83.94L104.23 89.94C104.23 89.94 105.39 84.38 114.83 68.12C116.414 65.3213 118.56 62.8806 121.132 60.9514C123.705 59.0222 126.649 57.6462 129.78 56.91C137.645 55.1951 145.791 55.2326 153.64 57.02C166.07 59.93 164.57 68.81 152.53 83.94ZM152.78 59.46C145.843 57.9012 138.651 57.8671 131.7 59.36C126.036 60.5781 121.077 63.9716 117.89 68.81C108.33 83.33 106.89 88.35 106.89 88.35L150.94 82.85C161.16 68.19 163.91 61.92 152.78 59.46Z" fill="#EB459F"/>
<path d="M93.1996 127.69C97.1096 119.38 97.2896 111.59 97.1295 104.63C97.0095 100.438 97.7457 96.2653 99.2931 92.3674C100.841 88.4695 103.167 84.9282 106.13 81.96C113.62 74.58 121.93 73.46 129.55 72.96C143.19 72.1 171.1 83.77 161.55 130.39C155.67 159.22 147.03 192.8 147.03 192.8C147.03 192.8 175.81 240.6 118.97 240.6C76.3495 240.6 65.8196 240.19 60.3896 225.25C56.6274 214.672 56.5816 203.128 60.2596 192.52C74.0695 152.01 83.7796 147.65 93.1996 127.69Z" fill="#459FF7"/>
<path fill-rule="evenodd" clip-rule="evenodd" d="M154.482 162.337C153.945 162.209 153.405 162.54 153.277 163.077C152.023 168.324 150.216 175.696 148.722 181.758C147.976 184.789 147.307 187.492 146.826 189.437C146.585 190.409 146.391 191.192 146.257 191.732L146.049 192.568C146.049 192.568 146.049 192.569 147.02 192.81L146.049 192.568C145.976 192.863 146.041 193.177 146.226 193.418C152.494 201.596 155.023 209.435 153.237 218.976C153.135 219.519 153.493 220.041 154.036 220.143C154.578 220.245 155.101 219.887 155.203 219.344C157.087 209.279 154.427 200.977 148.106 192.586L148.198 192.214C148.332 191.674 148.526 190.89 148.767 189.918C149.249 187.972 149.917 185.268 150.664 182.237C152.158 176.174 153.966 168.796 155.222 163.542C155.351 163.005 155.019 162.466 154.482 162.337Z" fill="black"/>
<path d="M129.52 72.98C122.65 73.41 115.21 74.38 108.32 79.98C141.73 87.04 141.97 94.98 155.04 84.87C147.54 75.47 136.61 72.53 129.52 72.98Z" fill="#2A88E6"/>
<path fill-rule="evenodd" clip-rule="evenodd" d="M128.288 78.3613C127.736 78.3899 127.312 78.8601 127.341 79.4117C127.4 80.5524 127.259 81.6946 126.924 82.7866C126.762 83.3146 127.058 83.8739 127.586 84.036C128.114 84.198 128.674 83.9014 128.836 83.3734C129.239 82.0581 129.409 80.6823 129.338 79.3083C129.31 78.7568 128.839 78.3328 128.288 78.3613Z" fill="black"/>
<path fill-rule="evenodd" clip-rule="evenodd" d="M130.826 79.066C130.293 78.9191 129.743 79.2317 129.596 79.7641C129.292 80.867 128.794 81.9074 128.127 82.837C127.805 83.2857 127.908 83.9104 128.357 84.2324C128.805 84.5544 129.43 84.4517 129.752 84.003C130.557 82.8816 131.157 81.6265 131.524 80.2959C131.671 79.7635 131.358 79.2129 130.826 79.066Z" fill="black"/>
<path fill-rule="evenodd" clip-rule="evenodd" d="M133.315 81.3047C133.002 80.8491 132.38 80.7329 131.924 81.0451C130.983 81.6903 129.934 82.1627 128.827 82.44C128.291 82.5741 127.965 83.1172 128.1 83.653C128.234 84.1887 128.777 84.5142 129.313 84.38C130.65 84.045 131.917 83.4744 133.055 82.6949C133.511 82.3827 133.627 81.7603 133.315 81.3047Z" fill="black"/>
<path fill-rule="evenodd" clip-rule="evenodd" d="M146.537 80.6354C145.987 80.6924 145.588 81.184 145.645 81.7333C145.74 82.642 145.668 83.5604 145.433 84.4434C145.292 84.9772 145.609 85.5248 146.143 85.6665C146.677 85.8083 147.225 85.4904 147.366 84.9566C147.663 83.8391 147.754 82.6768 147.635 81.5267C147.578 80.9774 147.086 80.5783 146.537 80.6354Z" fill="black"/>
<path fill-rule="evenodd" clip-rule="evenodd" d="M148.897 81.1138C148.358 80.994 147.824 81.334 147.704 81.8732C147.506 82.7627 147.147 83.6086 146.645 84.369C146.341 84.8299 146.468 85.4502 146.929 85.7545C147.39 86.0588 148.01 85.9318 148.315 85.4709C148.951 84.5069 149.406 83.4345 149.656 82.3068C149.776 81.7677 149.436 81.2335 148.897 81.1138Z" fill="black"/>
<path fill-rule="evenodd" clip-rule="evenodd" d="M151.117 82.9158C150.783 82.4757 150.156 82.3895 149.716 82.7232C148.987 83.2758 148.164 83.6918 147.286 83.951C146.757 84.1074 146.454 84.6637 146.611 85.1933C146.767 85.723 147.323 86.0255 147.853 85.869C148.962 85.5414 150.003 85.0155 150.924 84.3168C151.364 83.9831 151.45 83.3559 151.117 82.9158Z" fill="black"/>
<path d="M125.272 91.6541C123.999 87.0324 125.186 82.6747 127.923 81.9208C130.66 81.167 133.91 84.3025 135.183 88.9242C136.456 93.5459 135.27 97.9037 132.533 98.6575C129.796 99.4113 126.545 96.2758 125.272 91.6541Z" fill="white"/>
<path d="M129.354 89.9017C128.79 87.8517 129.316 85.9188 130.53 85.5844C131.744 85.2501 133.186 86.6408 133.751 88.6908C134.315 90.7407 133.789 92.6736 132.575 93.008C131.361 93.3424 129.919 91.9516 129.354 89.9017Z" fill="black"/>
<path d="M145.319 92.3519C143.586 87.983 143.859 83.7761 145.928 82.9557C147.997 82.1353 151.079 85.0119 152.811 89.3809C154.544 93.7499 154.271 97.9568 152.202 98.7772C150.133 99.5976 147.051 96.7209 145.319 92.3519Z" fill="white"/>
<path d="M141.66 109.56C142.134 109.981 142.746 110.214 143.38 110.214C144.014 110.214 144.626 109.981 145.1 109.56C151.16 104.09 154.25 104.06 154.25 111.16C154.25 118.91 147.52 137.43 139.95 137.43C132.38 137.43 127.54 124.71 125.07 115C122.6 105.29 127.35 101.7 132.13 103.31C135.35 104.4 139.39 107.61 141.66 109.56Z" fill="black"/>
<path d="M135.68 123.26C137.96 121.56 141.42 122.04 143.52 123.75C145.62 125.46 148.37 128.75 145.52 131.75C142.67 134.75 136.96 133.21 134.04 130.43C131.12 127.65 128.71 125.49 129.2 123.43C129.69 121.37 131.65 121.1 135.68 123.26Z" fill="#FF78B9"/>
<path d="M147.041 91.0308C146.318 89.2126 146.427 87.4619 147.284 87.1207C148.142 86.7794 149.424 87.9768 150.147 89.795C150.871 91.6132 150.762 93.3638 149.904 93.7051C149.046 94.0464 147.764 92.849 147.041 91.0308Z" fill="black"/>
<path d="M147.02 75.55C147.02 70.03 138.02 71.41 133.26 71.71C126.44 72.14 116.13 72.59 108.48 79.86L108.36 80.03C113.96 74.81 134.72 75.55 147.02 75.55Z" fill="#FF78B9"/>
<path d="M108.36 80.03C109.477 79.0869 110.773 78.3794 112.17 77.95L113.07 76.41C113.07 74.99 112.34 74.75 111.72 75.19C110.78 75.85 109.72 77.85 108.46 79.86L108.36 80.03Z" fill="#EB459F"/>
<path d="M78.8099 166.9L106.13 126.9C96.1299 110.16 85.8599 104.11 71.7899 119.85C57.7199 135.59 48.2199 155.77 42.9199 165.29C38.2299 173.73 38.5299 181 46.3099 188.02H78.4699C79.8416 188.014 81.1814 187.605 82.3228 186.844C83.4642 186.083 84.3569 185.004 84.8899 183.74C87.7999 176.81 84.5499 170.26 78.8099 166.9Z" fill="#459FF7"/>
<path fill-rule="evenodd" clip-rule="evenodd" d="M94.1539 144.444C93.6979 144.133 93.0757 144.25 92.7641 144.706L77.9841 166.336C77.8276 166.565 77.7733 166.849 77.834 167.119C77.8948 167.39 78.0652 167.623 78.3046 167.763C83.7025 170.923 86.6454 176.986 83.9679 183.363C83.5109 184.445 82.746 185.37 81.768 186.022C80.7897 186.675 79.6413 187.025 78.4655 187.03C77.9132 187.032 77.4674 187.482 77.4698 188.034C77.4721 188.587 77.9218 189.032 78.474 189.03C80.0417 189.023 81.5729 188.556 82.8774 187.686C84.1818 186.817 85.202 185.583 85.8112 184.139L85.8118 184.137C88.7944 177.034 85.741 170.315 80.2217 166.606L94.4154 145.834C94.727 145.378 94.6099 144.756 94.1539 144.444Z" fill="black"/>
<path fill-rule="evenodd" clip-rule="evenodd" d="M134.537 121.581C134.3 122.08 134.512 122.676 135.011 122.913C137.919 124.294 140.439 126.376 142.344 128.972C142.67 129.417 143.296 129.513 143.742 129.186C144.187 128.859 144.283 128.234 143.956 127.788C141.855 124.926 139.076 122.63 135.869 121.107C135.37 120.87 134.773 121.082 134.537 121.581Z" fill="black"/>
<path d="M140.59 210.95C165.47 209.33 182.03 207.95 189.88 218.44C197.5 228.6 195.57 246.97 193.77 273.73C192.44 293.41 187.33 290.86 178.88 290.86C167.58 290.86 162.72 288.86 162.72 278.66C162.72 268.46 163.48 241.43 163.48 241.43H126.17C117.54 225.01 113.28 212.73 140.59 210.95Z" fill="#3442D9"/>
<path d="M193.01 280.58C191.01 292.75 186.18 290.86 178.88 290.86C167.58 290.86 162.72 288.86 162.72 278.66C169.44 281.51 180.86 278.51 185.5 277.76C190.14 277.01 193.24 278.81 193.01 280.58Z" fill="#1D2CC2"/>
<path fill-rule="evenodd" clip-rule="evenodd" d="M170.711 231.307C171.183 232.3 171.473 233.779 171.581 236.008C172.021 245.067 172.449 262.186 171.802 273.794C171.479 279.584 171.459 283.407 172.181 285.945C172.554 287.256 173.139 288.285 174.021 289.073C174.891 289.851 175.976 290.326 177.229 290.665C177.762 290.81 178.311 290.494 178.455 289.961C178.6 289.428 178.284 288.879 177.751 288.735C176.659 288.439 175.904 288.073 175.353 287.582C174.815 287.1 174.399 286.432 174.104 285.398C173.491 283.243 173.471 279.776 173.798 273.906C174.451 262.193 174.019 244.993 173.579 235.912C173.467 233.606 173.162 231.806 172.518 230.449C171.844 229.031 170.817 228.139 169.417 227.647C168.083 227.178 166.442 227.084 164.532 227.125C163.193 227.153 161.646 227.252 159.899 227.364C159.144 227.413 158.351 227.463 157.522 227.512C151.958 227.837 143.663 228.365 136.76 228.811C133.309 229.034 130.205 229.237 127.964 229.384C126.843 229.457 125.938 229.517 125.313 229.558L124.345 229.622C124.345 229.622 124.344 229.622 124.41 230.62C124.476 231.618 124.476 231.618 124.476 231.618L125.445 231.554C126.069 231.513 126.974 231.453 128.095 231.38C130.335 231.233 133.439 231.03 136.889 230.807C143.792 230.36 152.082 229.833 157.638 229.508C158.503 229.458 159.314 229.406 160.078 229.357C161.8 229.247 163.28 229.152 164.575 229.124C166.45 229.084 167.782 229.192 168.753 229.533C169.658 229.851 170.269 230.377 170.711 231.307ZM123.412 230.686C123.449 231.237 123.925 231.654 124.476 231.618L124.41 230.62L124.344 229.622C123.793 229.659 123.376 230.135 123.412 230.686Z" fill="#116BD9"/>
<path d="M107.01 290.87C92.27 290.87 89.5 285.72 89.01 281.11C88.52 276.5 93.39 265.35 102.61 241.43H69.13C64.5154 235.28 61.1024 228.315 59.07 220.9C85.74 211.01 105.97 206.32 127.15 206.73C148.33 207.14 147.31 223.29 140.37 241.43C133.43 259.57 130.89 266.81 126.6 278.81C122.31 290.81 115.58 290.87 107.01 290.87Z" fill="#3442D9"/>
<path d="M107.01 290.87C92.2699 290.87 89.4999 285.72 89.0099 281.11C88.9539 279.572 89.1498 278.035 89.5898 276.56C97.1498 278.79 109.67 275.62 117.21 274.56C124.75 273.5 127.33 276.65 126.57 278.77C122.31 290.81 115.58 290.87 107.01 290.87Z" fill="#1D2CC2"/>
<path fill-rule="evenodd" clip-rule="evenodd" d="M115.656 226.019C116.484 227.282 116.643 229.342 115.661 231.799C113.54 237.108 107.052 255.361 103 267.677C100.969 273.849 100.068 277.998 100.153 281.36C100.239 284.785 101.345 287.309 103.093 290.215C103.378 290.689 103.992 290.842 104.465 290.557C104.939 290.272 105.091 289.658 104.807 289.185C103.145 286.421 102.226 284.245 102.152 281.31C102.077 278.312 102.88 274.441 104.9 268.302C108.948 255.999 115.42 237.792 117.518 232.541C118.647 229.718 118.636 226.918 117.329 224.923C115.978 222.862 113.461 221.979 110.307 222.599C107.422 223.166 98.0318 225.153 89.3754 226.996C85.0444 227.918 80.8931 228.804 77.8247 229.46C76.2904 229.788 75.0268 230.059 74.1468 230.247L72.7706 230.542C72.7704 230.542 72.7703 230.542 72.9799 231.52C73.1894 232.498 73.1896 232.498 73.1898 232.498L74.5656 232.203C75.4454 232.015 76.7088 231.744 78.2429 231.416C81.311 230.76 85.4616 229.874 89.7918 228.952C98.4579 227.107 107.828 225.124 110.693 224.561C113.289 224.051 114.872 224.823 115.656 226.019ZM72.0021 231.73C72.1178 232.27 72.6498 232.613 73.1898 232.498L72.9799 231.52L72.7706 230.542C72.2306 230.658 71.8863 231.19 72.0021 231.73Z" fill="#116BD9"/>
<path d="M121.71 288.31L124.57 287.37C128.732 286.214 133.112 286.073 137.34 286.96C141.06 287.84 141.53 290.15 141.13 292.96C141.631 292.986 142.118 293.13 142.552 293.38C142.987 293.63 143.356 293.98 143.63 294.4C144.146 295.184 144.331 296.141 144.144 297.062C143.956 297.982 143.412 298.79 142.63 299.31C140.5 300.98 129.27 304.45 120.54 304.45H90.7298C89.8998 297.5 90.1598 291.89 91.7898 286.99C106.95 289.06 104.41 281.33 119.79 283.67L121.71 288.31Z" fill="#FFC619"/>
<path d="M143.36 298.63C143.141 298.885 142.896 299.116 142.63 299.32C140.51 301.01 129.27 304.47 120.54 304.47H102.72V304.15C123.14 303.82 137.05 295.34 141.78 295.34C143.33 295.34 144.27 297.64 143.36 298.63Z" fill="black"/>
<path d="M143.37 298.62C143.83 297.95 143.32 297.62 141.78 297.62C137.05 297.62 123.14 304.19 102.72 304.52H90.7199C90.7199 304.52 90.5199 303.13 90.3899 301.07C99.7099 301.07 109.47 300.93 118.93 297.89C129.08 294.64 134.81 292.29 141.12 293.04C141.619 293.062 142.106 293.202 142.541 293.449C142.975 293.696 143.345 294.042 143.62 294.46C144.025 295.09 144.219 295.833 144.174 296.581C144.129 297.329 143.848 298.043 143.37 298.62Z" fill="white"/>
<path d="M192.83 289.09L195.55 288.2C199.509 287.095 203.676 286.958 207.7 287.8C211.24 288.65 211.7 290.8 211.31 293.54C211.786 293.561 212.25 293.696 212.664 293.932C213.078 294.169 213.429 294.501 213.69 294.9C213.932 295.272 214.098 295.688 214.178 296.124C214.259 296.561 214.253 297.009 214.16 297.443C214.067 297.877 213.889 298.288 213.637 298.653C213.385 299.018 213.063 299.33 212.69 299.57C210.69 301.17 199.98 304.47 191.69 304.47H165.23C164.28 296.59 165.29 292.37 166.46 286.04C174.58 288.68 182.46 284.22 188.6 284.69L192.83 289.09Z" fill="#FFC619"/>
<path d="M59.2897 175.13C61.7497 173.13 71.1997 171.13 78.6897 174.3C86.1797 177.47 89.0497 179.95 91.6897 184.98C94.3297 190.01 96.1097 192.78 94.3597 195.45C93.0721 197.347 91.6659 199.16 90.1496 200.88C90.2104 202.553 90.1066 204.228 89.8397 205.88C89.4597 207.72 85.9297 207.79 82.7597 205.88L55.7597 188.05C55.1897 179.74 56.8297 177.08 59.2897 175.13Z" fill="#FF8CC4"/>
<path fill-rule="evenodd" clip-rule="evenodd" d="M86.4483 187.544C85.8982 187.495 85.4126 187.901 85.3637 188.451C85.0577 191.896 84.4005 195.3 83.4024 198.611C83.243 199.14 83.5424 199.698 84.0712 199.857C84.6 200.017 85.1578 199.717 85.3172 199.189C86.3547 195.747 87.0378 192.209 87.3559 188.628C87.4048 188.078 86.9984 187.593 86.4483 187.544Z" fill="black"/>
<path d="M73.9598 188H46.3098C43.4243 188 40.6569 189.146 38.6165 191.187C36.5761 193.227 35.4298 195.994 35.4298 198.88V257.1C35.4298 260.89 36.9354 264.525 39.6153 267.205C42.2952 269.884 45.9299 271.39 49.7198 271.39H84.8398V198.89C84.8412 197.46 84.5607 196.045 84.0145 194.723C83.4683 193.402 82.6671 192.202 81.6567 191.19C80.6463 190.179 79.4464 189.377 78.1258 188.829C76.8051 188.282 75.3895 188 73.9598 188Z" fill="#5865F2"/>
<path d="M57.19 257.12C57.19 260.91 58.6955 264.545 61.3754 267.225C64.0553 269.904 67.69 271.41 71.48 271.41H49.72C47.8439 271.41 45.9861 271.04 44.253 270.322C42.5198 269.604 40.9451 268.551 39.619 267.224C38.2928 265.897 37.2412 264.321 36.5241 262.588C35.8071 260.854 35.4387 258.996 35.44 257.12V198.9C35.44 196.016 36.5849 193.25 38.6231 191.21C40.6613 189.17 43.4261 188.023 46.31 188.02C49.1955 188.02 51.9629 189.166 54.0033 191.207C56.0437 193.247 57.19 196.014 57.19 198.9V257.12Z" fill="#3442D9"/>
<path d="M213.43 298.91C213.222 299.152 212.991 299.373 212.74 299.57C210.74 301.17 200.02 304.47 191.74 304.47H174.74V304.16C194.19 303.81 207.42 295.81 211.93 295.81C212.267 295.857 212.588 295.986 212.864 296.186C213.139 296.387 213.361 296.652 213.509 296.959C213.658 297.265 213.728 297.604 213.714 297.944C213.7 298.285 213.603 298.616 213.43 298.91Z" fill="black"/>
<path d="M213.44 298.9C213.88 298.27 213.39 297.9 211.93 297.9C207.42 297.9 194.19 304.16 174.75 304.47H165.27C165.27 304.47 165.08 303.15 164.96 301.19C173.82 301.19 181.19 301.05 190.19 298.19C199.85 295.1 205.31 292.86 211.31 293.57C211.786 293.591 212.25 293.726 212.664 293.962C213.078 294.199 213.43 294.531 213.69 294.93C214.076 295.532 214.26 296.242 214.216 296.956C214.171 297.67 213.899 298.351 213.44 298.9Z" fill="white"/>
<path fill-rule="evenodd" clip-rule="evenodd" d="M145.482 143.352C145.063 142.992 144.432 143.039 144.072 143.458C141.7 146.216 138.354 147.953 134.733 148.305C134.722 148.306 134.711 148.307 134.7 148.308C132.084 148.651 129.434 148 127.275 146.482C126.823 146.164 126.2 146.273 125.882 146.725C125.564 147.177 125.673 147.8 126.125 148.118C128.689 149.921 131.835 150.697 134.943 150.294C139.071 149.888 142.884 147.907 145.588 144.762C145.948 144.343 145.901 143.712 145.482 143.352Z" fill="#2A88E6"/>
<path d="M112.73 137.86C112.637 137.892 112.539 137.909 112.44 137.91C112.241 137.902 112.05 137.835 111.889 137.717C111.729 137.6 111.607 137.437 111.54 137.25C108.316 128.827 103.273 121.219 96.77 114.97C96.87 114.16 96.95 113.36 97 112.57C104.283 119.19 109.888 127.447 113.35 136.66C113.415 136.901 113.388 137.158 113.273 137.38C113.158 137.603 112.965 137.774 112.73 137.86Z" fill="black"/>
<path d="M61.0699 183.51L84.4499 183.9C86.4499 198.9 84.5899 202.9 83.8999 206.9C83.1699 211.08 81.2299 211.25 79.7799 211.25H71.3299C67.8199 211.25 66.0699 211.38 64.6999 209.55C63.4899 207.95 63.9299 205.01 65.2899 199.8C65.4787 199.085 65.5192 198.34 65.4092 197.609C65.2991 196.878 65.0407 196.177 64.6499 195.55C62.4035 191.928 61.1674 187.771 61.0699 183.51Z" fill="#FF8CC4"/>
<path fill-rule="evenodd" clip-rule="evenodd" d="M68.8195 164.607C72.3073 165.012 75.7056 166.203 78.2952 167.757C78.7687 168.042 79.383 167.888 79.6673 167.415C79.9515 166.941 79.7981 166.327 79.3246 166.043C76.4842 164.337 72.8125 163.058 69.0503 162.62C65.2921 162.184 61.3583 162.579 58.0527 164.326C57.5644 164.584 57.3778 165.189 57.6358 165.677C57.8938 166.166 58.4989 166.352 58.9872 166.094C61.8315 164.591 65.3277 164.201 68.8195 164.607Z" fill="black"/>
<path fill-rule="evenodd" clip-rule="evenodd" d="M156.685 171.998C156.408 171.521 155.796 171.358 155.318 171.635L150.938 174.175C150.46 174.452 150.298 175.064 150.575 175.542C150.852 176.019 151.464 176.182 151.941 175.905L156.321 173.365C156.799 173.088 156.962 172.476 156.685 171.998Z" fill="black"/>
<path d="M72.1997 211.23H74.5297C77.0797 201.96 77.9597 196.95 77.6397 193.72C77.2338 190.35 76.6092 187.009 75.7697 183.72C75.6878 183.438 75.5013 183.199 75.2485 183.05C74.9957 182.901 74.6957 182.855 74.4097 182.92C74.2195 182.967 74.0448 183.063 73.9028 183.198C73.7608 183.333 73.6564 183.502 73.5997 183.69C73.5493 183.89 73.5493 184.1 73.5997 184.3C74.4078 187.462 75.0157 190.672 75.4197 193.91C75.6897 196.92 74.7597 201.98 72.1997 211.23Z" fill="black"/>
<path d="M110.29 218.75C110.315 218.595 110.376 218.449 110.468 218.322C110.56 218.195 110.681 218.091 110.82 218.02C110.959 217.948 111.114 217.91 111.271 217.909C111.427 217.908 111.582 217.944 111.722 218.013C111.863 218.083 111.985 218.185 112.079 218.311C112.172 218.436 112.235 218.582 112.262 218.737C112.289 218.891 112.28 219.05 112.234 219.2C112.189 219.35 112.108 219.487 112 219.6C110.08 223.44 107.4 229.9 104.3 237.38L102.61 241.38H100.54L102.54 236.6C105.65 229.14 108.34 222.65 110.29 218.75Z" fill="black"/>
<path d="M162.29 224.66C162.321 224.418 162.441 224.196 162.625 224.035C162.809 223.875 163.045 223.788 163.29 223.79C163.532 223.822 163.754 223.941 163.914 224.125C164.074 224.309 164.162 224.546 164.16 224.79C163.95 227.38 163.71 232.96 163.45 241.4H161.55C161.84 232.93 162.07 227.29 162.29 224.66Z" fill="black"/>
<path d="M1.41003 158.89C2.74531 158.031 3.88203 156.898 4.74426 155.565C5.60649 154.232 6.17438 152.73 6.41003 151.16L7.22003 145.77C7.2369 145.641 7.29983 145.522 7.39722 145.436C7.4946 145.35 7.61988 145.301 7.75003 145.3C7.88132 145.301 8.00793 145.349 8.10696 145.435C8.206 145.521 8.27094 145.64 8.29004 145.77L9.10004 151.16C9.33382 152.731 9.90097 154.233 10.7634 155.566C11.6258 156.899 12.7634 158.033 14.1 158.89L14.8 159.34C14.874 159.389 14.9346 159.456 14.9765 159.535C15.0184 159.613 15.0402 159.701 15.04 159.79C15.0402 159.879 15.0184 159.967 14.9765 160.045C14.9346 160.124 14.874 160.191 14.8 160.24L14.1 160.69C12.7634 161.547 11.6258 162.681 10.7634 164.014C9.90097 165.347 9.33382 166.849 9.10004 168.42L8.29004 173.81C8.27094 173.94 8.206 174.059 8.10696 174.145C8.00793 174.231 7.88132 174.279 7.75003 174.28C7.61988 174.279 7.4946 174.23 7.39722 174.144C7.29983 174.058 7.2369 173.939 7.22003 173.81L6.41003 168.42C6.17438 166.85 5.60649 165.348 4.74426 164.015C3.88203 162.682 2.74531 161.549 1.41003 160.69L0.710052 160.24C0.634834 160.191 0.57272 160.125 0.529143 160.046C0.485567 159.968 0.461854 159.88 0.460052 159.79C0.461854 159.7 0.485567 159.612 0.529143 159.534C0.57272 159.455 0.634834 159.389 0.710052 159.34L1.41003 158.89Z" fill="#57F287"/>
<path d="M401.98 161.27C402.643 160.838 403.208 160.271 403.637 159.606C404.066 158.941 404.35 158.192 404.47 157.41L404.87 154.71C404.879 154.646 404.912 154.587 404.962 154.544C405.011 154.502 405.075 154.479 405.14 154.48C405.205 154.477 405.27 154.499 405.32 154.542C405.37 154.585 405.402 154.645 405.41 154.71L405.81 157.41C405.929 158.194 406.214 158.943 406.645 159.608C407.076 160.274 407.644 160.84 408.31 161.27L408.66 161.49C408.697 161.515 408.728 161.549 408.749 161.59C408.77 161.63 408.781 161.675 408.78 161.72C408.781 161.765 408.77 161.81 408.749 161.85C408.728 161.891 408.697 161.925 408.66 161.95L408.31 162.17C407.644 162.6 407.076 163.166 406.645 163.832C406.214 164.497 405.929 165.246 405.81 166.03L405.41 168.73C405.4 168.794 405.367 168.853 405.318 168.896C405.268 168.938 405.205 168.961 405.14 168.96C405.075 168.959 405.013 168.935 404.964 168.893C404.914 168.851 404.881 168.794 404.87 168.73L404.47 166.03C404.35 165.248 404.066 164.499 403.637 163.834C403.208 163.169 402.643 162.602 401.98 162.17L401.63 161.95C401.591 161.925 401.559 161.891 401.536 161.851C401.513 161.811 401.501 161.766 401.5 161.72C401.501 161.674 401.513 161.629 401.536 161.589C401.559 161.549 401.591 161.515 401.63 161.49L401.98 161.27Z" fill="#459FF7"/>
<path d="M217.924 131.13C219.199 130.295 220.286 129.199 221.111 127.913C221.936 126.626 222.482 125.179 222.712 123.666L223.481 118.445C223.5 118.321 223.563 118.207 223.658 118.125C223.753 118.043 223.875 117.999 224 118.001C224.127 117.995 224.251 118.038 224.347 118.12C224.444 118.203 224.505 118.319 224.52 118.445L225.289 123.666C225.519 125.182 226.067 126.631 226.896 127.917C227.724 129.204 228.815 130.299 230.097 131.13L230.77 131.555C230.842 131.604 230.901 131.67 230.942 131.748C230.982 131.826 231.002 131.913 231 132C231.002 132.088 230.982 132.175 230.942 132.252C230.901 132.33 230.842 132.396 230.77 132.445L230.097 132.87C228.815 133.701 227.724 134.797 226.896 136.083C226.067 137.37 225.519 138.819 225.289 140.334L224.52 145.555C224.501 145.68 224.438 145.794 224.343 145.875C224.247 145.957 224.126 146.001 224 146C223.876 145.998 223.757 145.952 223.662 145.871C223.567 145.79 223.503 145.678 223.481 145.555L222.712 140.334C222.482 138.821 221.936 137.374 221.111 136.088C220.286 134.802 219.199 133.705 217.924 132.87L217.25 132.445C217.176 132.397 217.114 132.332 217.07 132.254C217.026 132.177 217.003 132.089 217 132C217.003 131.911 217.026 131.824 217.07 131.746C217.114 131.669 217.176 131.603 217.25 131.555L217.924 131.13Z" fill="#57F287"/>
<path d="M151.07 18.03C152.635 17.0215 153.967 15.6909 154.978 14.1269C155.988 12.5629 156.654 10.8014 156.93 8.95999L157.93 2.62C157.951 2.468 158.027 2.32884 158.143 2.22787C158.258 2.12691 158.406 2.07088 158.56 2.07001C158.713 2.0729 158.86 2.12962 158.975 2.23022C159.09 2.33083 159.166 2.46884 159.19 2.62L160.14 8.95999C160.414 10.8008 161.078 12.562 162.087 14.126C163.095 15.69 164.426 17.0209 165.99 18.03L166.82 18.56C166.909 18.617 166.982 18.6954 167.033 18.788C167.083 18.8806 167.11 18.9844 167.11 19.09C167.11 19.1969 167.083 19.3021 167.033 19.3963C166.982 19.4905 166.909 19.5708 166.82 19.63L165.99 20.16C164.425 21.1681 163.094 22.4988 162.085 24.063C161.076 25.6272 160.413 27.3888 160.14 29.23L159.19 35.57C159.166 35.7202 159.09 35.857 158.974 35.9559C158.859 36.0549 158.712 36.1095 158.56 36.11C158.407 36.1115 158.259 36.0577 158.143 35.9584C158.028 35.8591 157.952 35.7211 157.93 35.57L156.93 29.23C156.655 27.3882 155.99 25.6262 154.98 24.062C153.969 22.4979 152.636 21.1675 151.07 20.16L150.25 19.63C150.158 19.5733 150.082 19.4939 150.029 19.3993C149.977 19.3047 149.949 19.1982 149.95 19.09C149.95 18.9833 149.978 18.8785 150.03 18.7856C150.083 18.6928 150.158 18.6151 150.25 18.56L151.07 18.03Z" fill="#808AFF"/>
<path d="M266.121 120.96C267.686 119.951 269.018 118.621 270.029 117.057C271.039 115.493 271.705 113.731 271.981 111.89L272.981 105.55C273.002 105.398 273.078 105.259 273.193 105.158C273.309 105.057 273.457 105.001 273.611 105C273.764 105.003 273.911 105.06 274.026 105.16C274.141 105.261 274.217 105.399 274.241 105.55L275.191 111.89C275.465 113.731 276.129 115.492 277.137 117.056C278.146 118.62 279.477 119.951 281.041 120.96L281.871 121.49C281.96 121.547 282.033 121.625 282.083 121.718C282.134 121.811 282.161 121.914 282.161 122.02C282.16 122.127 282.134 122.232 282.083 122.326C282.033 122.421 281.96 122.501 281.871 122.56L281.041 123.09C279.476 124.098 278.145 125.429 277.136 126.993C276.127 128.557 275.464 130.319 275.191 132.16L274.241 138.5C274.217 138.65 274.14 138.787 274.025 138.886C273.91 138.985 273.763 139.039 273.611 139.04C273.458 139.042 273.31 138.988 273.194 138.888C273.078 138.789 273.002 138.651 272.981 138.5L271.981 132.16C271.706 130.318 271.041 128.556 270.03 126.992C269.02 125.428 267.687 124.098 266.121 123.09L265.301 122.56C265.208 122.503 265.132 122.424 265.08 122.329C265.027 122.235 265 122.128 265.001 122.02C265.001 121.913 265.029 121.808 265.081 121.716C265.134 121.623 265.209 121.545 265.301 121.49L266.121 120.96Z" fill="#FFD736"/>
<path d="M315.66 38.45C316.587 37.8523 317.375 37.0643 317.973 36.1385C318.572 35.2126 318.966 34.1701 319.13 33.08L319.69 29.32C319.704 29.2317 319.749 29.1511 319.817 29.0926C319.885 29.034 319.971 29.0012 320.06 29C320.15 28.9992 320.238 29.0313 320.306 29.0902C320.374 29.1491 320.418 29.2308 320.43 29.32L321 33.08C321.162 34.1708 321.556 35.2144 322.154 36.1406C322.753 37.0668 323.542 37.8542 324.47 38.45L324.95 38.76C325.005 38.7938 325.05 38.8409 325.082 38.8968C325.113 38.9528 325.13 39.0158 325.13 39.08C325.128 39.1425 325.111 39.2035 325.079 39.2576C325.048 39.3117 325.004 39.3572 324.95 39.39L324.47 39.71C323.542 40.3058 322.753 41.0932 322.154 42.0195C321.556 42.9457 321.162 43.9892 321 45.08L320.43 48.83C320.42 48.9211 320.377 49.0052 320.309 49.0662C320.24 49.1271 320.152 49.1606 320.06 49.16C319.969 49.1584 319.882 49.1242 319.814 49.0637C319.746 49.0031 319.702 48.9202 319.69 48.83L319.13 45.08C318.966 43.99 318.572 42.9475 317.973 42.0216C317.375 41.0957 316.587 40.3078 315.66 39.71L315.17 39.39C315.118 39.3566 315.076 39.3108 315.046 39.2566C315.016 39.2025 315.001 39.1418 315 39.08C314.999 39.0166 315.014 38.9538 315.044 38.8978C315.073 38.8417 315.117 38.7943 315.17 38.76L315.66 38.45Z" fill="#FF8CC4"/>
<g clip-path="url(#clip1_270:27055)">
<path d="M274.28 53.6666L260.958 67H247.635L235.978 78.6666V67H220.991V17H274.28V53.6666Z" fill="white"/>
<path d="M217.66 10.3333L201.007 27V87H220.991V103.667L237.644 87H250.966L280.941 57V10.3333H217.66ZM274.28 53.6667L260.958 67H247.635L235.978 78.6667V67H220.991V17H274.28V53.6667Z" fill="#9146FF"/>
<path d="M264.289 28.6667H257.627V48.6667H264.289V28.6667Z" fill="#9146FF"/>
<path d="M245.97 28.6667H239.309V48.6667H245.97V28.6667Z" fill="#9146FF"/>
</g>
<path fill-rule="evenodd" clip-rule="evenodd" d="M398.926 73.0014C397.968 69.3925 395.144 66.5507 391.558 65.5862C385.06 63.8333 359.001 63.8333 359.001 63.8333C359.001 63.8333 332.941 63.8333 326.443 65.5862C322.858 66.5507 320.034 69.3925 319.075 73.0014C317.334 79.5421 317.334 93.1894 317.334 93.1894C317.334 93.1894 317.334 106.836 319.075 113.378C320.034 116.986 322.858 119.828 326.443 120.793C332.941 122.545 359.001 122.545 359.001 122.545C359.001 122.545 385.06 122.545 391.558 120.793C395.144 119.828 397.968 116.986 398.926 113.378C400.667 106.836 400.667 93.1894 400.667 93.1894C400.667 93.1894 400.667 79.5421 398.926 73.0014Z" fill="#D9252A"/>
<path fill-rule="evenodd" clip-rule="evenodd" d="M350.478 105.58L372.258 93.1898L350.478 80.7987V105.58Z" fill="#FFFFFE"/>
</g>
<defs>
<clipPath id="clip0_270:27055">
<rect width="408.32" height="304.47" fill="white" transform="matrix(-1 0 0 1 408.78 0)"/>
</clipPath>
<clipPath id="clip1_270:27055">
<rect width="79.934" height="93.3333" fill="white" transform="translate(201.007 10.3333)"/>
</clipPath>
</defs>
</svg>
