<svg width="337" height="186" viewBox="0 0 337 186" fill="none" xmlns="http://www.w3.org/2000/svg">
<path opacity="0.2" d="M352 75.8124V205H0V157.982C0.0127698 152.773 1.52657 147.695 4.33553 143.438C7.14448 139.181 11.1122 135.952 15.6992 134.19L28.5824 129.244C31.2886 128.19 33.6272 126.274 35.2826 123.755C36.938 121.236 37.8306 118.235 37.84 115.157V65.995C37.8419 56.4291 39.7881 46.9777 43.5441 38.2945C47.3 29.6114 52.7761 21.9036 59.5936 15.7041C70.7661 5.5571 84.9534 -0.00975114 99.616 1.28223e-05H232.514C237.222 0.00166177 241.875 1.09168 246.152 3.1953C250.43 5.29891 254.231 8.36634 257.294 12.1872L271.638 30.0918C273.305 32.1701 275.373 33.8381 277.7 34.9809C280.027 36.1237 282.559 36.7143 285.12 36.7119H315.392C320.199 36.709 324.959 37.7182 329.4 39.6819C333.842 41.6456 337.878 44.5253 341.278 48.1564C344.677 51.7876 347.374 56.099 349.214 60.8444C351.054 65.5897 352 70.6759 352 75.8124V75.8124Z" fill="#AEC7FF"/>
<path d="M128 182.507C128 183.097 128.116 183.681 128.341 184.227C128.567 184.772 128.897 185.267 129.314 185.685C129.731 186.102 130.226 186.433 130.771 186.659C131.316 186.884 131.9 187 132.489 187H230V178H132.489C131.899 178 131.314 178.116 130.768 178.343C130.222 178.57 129.727 178.902 129.31 179.32C128.893 179.739 128.562 180.236 128.337 180.783C128.113 181.33 127.998 181.916 128 182.507V182.507Z" fill="#3E70DD"/>
<path d="M190 71.1355V97.8784C190 99.2404 190.55 100.547 191.53 101.51C192.509 102.473 193.838 103.014 195.223 103.014H241.719L256 117V71.1355C255.998 69.7715 255.446 68.464 254.465 67.4997C253.979 67.0226 253.401 66.6446 252.766 66.3872C252.131 66.1299 251.45 65.9983 250.763 66H195.196C193.815 66.0072 192.494 66.5515 191.52 67.5138C190.546 68.4761 190 69.7782 190 71.1355V71.1355Z" fill="#F47FFF"/>
<path d="M240.977 88.2H204.968C204.446 88.2035 203.945 88.4059 203.577 88.7631C203.208 89.1202 203.002 89.6031 203.002 90.1065C203.005 90.6075 203.214 91.087 203.582 91.4413C203.95 91.7956 204.448 91.9961 204.968 91.9996H240.977C241.24 92.0046 241.5 91.9594 241.744 91.8667C241.989 91.7739 242.211 91.6355 242.399 91.4594C242.587 91.2834 242.737 91.0731 242.84 90.8409C242.943 90.6086 242.997 90.359 243 90.1065C243 89.724 242.881 89.3501 242.658 89.0338C242.435 88.7174 242.117 88.4733 241.747 88.3333C241.503 88.2399 241.241 88.1946 240.977 88.2V88.2ZM240.977 79.0008H204.968C204.579 79.0002 204.198 79.1109 203.875 79.3188C203.551 79.5267 203.299 79.8225 203.15 80.1687C203.001 80.5148 202.962 80.8958 203.038 81.2632C203.114 81.6306 203.302 81.968 203.578 82.2325C203.946 82.5871 204.446 82.7871 204.968 82.7871H240.977C241.373 82.7973 241.763 82.6924 242.096 82.4862C242.429 82.2801 242.69 81.9821 242.844 81.6312C242.973 81.3392 243.023 81.0207 242.99 80.7052C242.958 80.3896 242.843 80.087 242.657 79.8252C242.471 79.5633 242.22 79.3506 241.927 79.2066C241.633 79.0625 241.307 78.9918 240.977 79.0008V79.0008Z" fill="white"/>
<path d="M281 184.48V186H191V136H242.483C245.837 135.991 249.118 136.962 251.911 138.791C254.704 140.619 256.884 143.222 258.174 146.271C259.031 148.294 259.475 150.465 259.48 152.658V177.133H273.54C275.518 177.133 277.416 177.907 278.815 179.285C280.214 180.662 281 182.531 281 184.48V184.48Z" fill="#567EF7"/>
<path d="M208.777 121H152.25C150.126 120.985 148.019 121.387 146.051 122.185C144.083 122.982 142.292 124.159 140.782 125.648C139.272 127.137 138.072 128.908 137.252 130.861C136.431 132.813 136.006 134.907 136 137.023V161.977C136.007 165.164 136.967 168.278 138.757 170.921C140.547 173.564 143.086 175.616 146.051 176.817C148.019 177.613 150.125 178.016 152.25 178H208.832C210.95 178.005 213.048 177.595 215.007 176.792C216.965 175.99 218.746 174.811 220.247 173.323C221.749 171.836 222.941 170.068 223.757 168.121C224.572 166.174 224.995 164.086 225 161.977V137.023C224.996 134.909 224.573 132.816 223.755 130.865C222.937 128.913 221.739 127.142 220.232 125.654C218.724 124.165 216.936 122.987 214.971 122.189C213.005 121.39 210.9 120.986 208.777 121Z" fill="#7196FF"/>
<path d="M225 137.023V161.977C224.996 164.086 224.588 166.174 223.801 168.121C223.014 170.068 221.863 171.836 220.413 173.324C218.964 174.812 217.245 175.99 215.355 176.793C213.464 177.595 211.439 178.005 209.395 178H199C201.045 178.007 203.072 177.598 204.964 176.796C206.856 175.995 208.576 174.816 210.026 173.328C211.477 171.84 212.629 170.072 213.417 168.124C214.205 166.176 214.613 164.087 214.618 161.977V137.023C214.614 134.914 214.208 132.827 213.422 130.881C212.636 128.934 211.487 127.166 210.039 125.678C208.591 124.19 206.873 123.011 204.984 122.209C203.094 121.406 201.07 120.995 199.026 121H209.408C211.451 120.994 213.476 121.405 215.366 122.207C217.256 123.01 218.974 124.189 220.421 125.678C221.869 127.166 223.019 128.934 223.804 130.88C224.59 132.827 224.996 134.914 225 137.023V137.023Z" fill="#406FE8"/>
<path d="M161.966 167.999H145.151C143.297 168.004 141.46 167.631 139.745 166.899C138.031 166.168 136.472 165.093 135.158 163.737C133.843 162.38 132.8 160.769 132.086 158.994C131.373 157.219 131.004 155.316 131 153.393V142.442C131.011 140.992 131.574 139.606 132.567 138.587C133.561 137.567 134.903 136.997 136.3 137.001H172.619C173.321 136.988 174.019 137.12 174.671 137.39C175.324 137.66 175.918 138.061 176.418 138.572C176.919 139.082 177.317 139.691 177.589 140.363C177.86 141.034 178 141.755 178 142.483V151.607C177.989 153.777 177.566 155.923 176.754 157.922C175.941 159.921 174.756 161.735 173.266 163.258C171.776 164.781 170.011 165.984 168.072 166.797C166.133 167.611 164.058 168.02 161.966 167.999V167.999Z" fill="#C9DBF7"/>
<path d="M163 120.258H203.398C205.47 120.251 207.523 120.655 209.439 121.447C211.356 122.239 213.099 123.403 214.568 124.873C216.038 126.343 217.205 128.089 218.003 130.013C218.801 131.937 219.215 134.001 219.22 136.086V137H228C227.985 131.153 225.665 125.552 221.547 121.427C217.43 117.301 211.854 114.99 206.044 115H168.279C166.886 114.994 165.548 115.544 164.558 116.53C163.568 117.516 163.008 118.857 163 120.258V120.258Z" fill="#B9BBBE"/>
<path d="M152 120.258H198.224C200.32 120.252 202.396 120.657 204.334 121.45C206.273 122.242 208.035 123.406 209.521 124.876C211.006 126.346 212.186 128.093 212.993 130.016C213.8 131.939 214.217 134.002 214.222 136.086V137H224C223.99 132.638 222.679 128.377 220.233 124.756C217.787 121.135 214.316 118.317 210.259 116.658C207.565 115.556 204.68 114.993 201.767 115H157.342C155.932 114.994 154.578 115.544 153.577 116.53C152.575 117.516 152.008 118.857 152 120.258V120.258Z" fill="#C9DBF7"/>
<path d="M221.021 136.006C217.812 135.909 214.673 136.94 212.157 138.918C209.641 140.896 207.91 143.694 207.272 146.815C206.633 149.937 207.128 153.183 208.667 155.978C210.207 158.773 212.693 160.938 215.685 162.089C217.385 162.742 219.199 163.05 221.021 162.993H227V136.006H221.021Z" fill="#C9DBF7"/>
<path d="M227 163C234.732 163 241 156.955 241 149.5C241 142.045 234.732 136 227 136C219.268 136 213 142.045 213 149.5C213 156.955 219.268 163 227 163V163Z" fill="#AEC7FF"/>
<path d="M226.999 159C225.669 159 224.355 158.704 223.152 158.135C221.949 157.566 220.888 156.737 220.043 155.708C219.199 154.68 218.594 153.477 218.27 152.186C217.947 150.895 217.913 149.549 218.172 148.244C218.52 146.499 219.378 144.895 220.636 143.637C221.895 142.378 223.498 141.521 225.243 141.173C226.476 140.928 227.745 140.943 228.971 141.219C230.197 141.494 231.352 142.023 232.361 142.771C233.37 143.519 234.211 144.471 234.831 145.564C235.45 146.657 235.833 147.867 235.957 149.118C236.08 150.368 235.94 151.63 235.546 152.823C235.152 154.016 234.512 155.113 233.668 156.044C232.825 156.975 231.795 157.719 230.647 158.228C229.498 158.737 228.256 159 226.999 159V159ZM226.999 144.009C225.814 144.009 224.656 144.36 223.671 145.019C222.686 145.677 221.918 146.613 221.464 147.707C221.011 148.802 220.892 150.007 221.123 151.169C221.355 152.331 221.925 153.398 222.763 154.236C223.601 155.074 224.668 155.645 225.831 155.876C226.993 156.107 228.197 155.989 229.292 155.535C230.387 155.082 231.323 154.314 231.981 153.328C232.639 152.343 232.991 151.185 232.991 150C232.986 148.412 232.353 146.891 231.231 145.769C230.108 144.646 228.587 144.013 226.999 144.009Z" fill="#9DEFD6"/>
<path d="M224.56 73H157.44C155.997 73 154.614 72.4255 153.593 71.4028C152.573 70.3802 152 68.9932 152 67.5469V27.4531C152 26.0068 152.573 24.6198 153.593 23.5972C154.614 22.5745 155.997 22 157.44 22H224.56C225.274 21.9998 225.982 22.1407 226.642 22.4147C227.302 22.6887 227.902 23.0904 228.407 23.5968C228.912 24.1032 229.313 24.7044 229.586 25.3661C229.859 26.0277 230 26.7369 230 27.4531V67.5196C230.004 68.238 229.867 68.9502 229.595 69.6149C229.323 70.2797 228.923 70.8839 228.417 71.3927C227.911 71.9019 227.31 72.306 226.648 72.5818C225.986 72.8576 225.276 72.9997 224.56 73V73Z" fill="#D7E6FF"/>
<path d="M175 73H157.396C155.965 73 154.592 72.4255 153.58 71.4028C152.568 70.3802 152 68.9932 152 67.5469V27.4531C152 26.0068 152.568 24.6198 153.58 23.5972C154.592 22.5745 155.965 22 157.396 22H175V73V73Z" fill="#AEC7FF"/>
<path d="M163 38.2822C162.475 38.2822 161.955 38.1751 161.469 37.967C160.984 37.7589 160.543 37.4538 160.172 37.0693C159.8 36.6848 159.506 36.2283 159.304 35.7258C159.103 35.2234 159 34.6849 159 34.1411C159 33.5973 159.103 33.0588 159.304 32.5564C159.506 32.054 159.8 31.5974 160.172 31.2129C160.543 30.8284 160.984 30.5233 161.469 30.3152C161.955 30.1071 162.475 30 163 30C164.061 30 165.078 30.4363 165.828 31.2129C166.579 31.9895 167 33.0428 167 34.1411C167 35.2394 166.579 36.2927 165.828 37.0693C165.078 37.8459 164.061 38.2822 163 38.2822ZM163 52.1411C161.939 52.1411 160.922 51.7048 160.172 50.9282C159.421 50.1516 159 49.0983 159 48C159 46.9017 159.421 45.8484 160.172 45.0718C160.922 44.2952 161.939 43.8589 163 43.8589C164.061 43.8589 165.078 44.2952 165.828 45.0718C166.579 45.8484 167 46.9017 167 48C167 49.0983 166.579 50.1516 165.828 50.9282C165.078 51.7048 164.061 52.1411 163 52.1411V52.1411ZM163 66C161.939 66 160.922 65.5637 160.172 64.7871C159.421 64.0105 159 62.9572 159 61.8589C159 60.7606 159.421 59.7073 160.172 58.9307C160.922 58.1541 161.939 57.7178 163 57.7178C164.061 57.7178 165.078 58.1541 165.828 58.9307C166.579 59.7073 167 60.7606 167 61.8589C167 62.9572 166.579 64.0105 165.828 64.7871C165.078 65.5637 164.061 66 163 66V66Z" fill="#7196FF"/>
<path d="M219.253 39.256H193.495C192.781 39.256 192.096 38.9791 191.591 38.4863C191.086 37.9934 190.802 37.325 190.802 36.628C190.802 35.931 191.086 35.2626 191.591 34.7697C192.096 34.2769 192.781 34 193.495 34H219.307C220.021 34 220.706 34.2769 221.211 34.7697C221.716 35.2626 222 35.931 222 36.628C222 37.325 221.716 37.9934 221.211 38.4863C220.706 38.9791 220.021 39.256 219.307 39.256H219.253ZM183.693 39.256C182.979 39.256 182.294 38.9791 181.789 38.4863C181.284 37.9934 181 37.325 181 36.628C181 35.931 181.284 35.2626 181.789 34.7697C182.294 34.2769 182.979 34 183.693 34C184.407 34 185.092 34.2769 185.597 34.7697C186.102 35.2626 186.386 35.931 186.386 36.628C186.386 37.325 186.102 37.9934 185.597 38.4863C185.092 38.9791 184.407 39.256 183.693 39.256ZM219.253 51.1214H193.495C192.781 51.1214 192.096 50.8445 191.591 50.3516C191.086 49.8588 190.802 49.1903 190.802 48.4934C190.802 47.7964 191.086 47.1279 191.591 46.6351C192.096 46.1423 192.781 45.8654 193.495 45.8654H219.307C220.021 45.8723 220.703 46.1559 221.203 46.6537C221.703 47.1515 221.98 47.8227 221.973 48.5196C221.966 49.2166 221.675 49.8823 221.165 50.3702C220.655 50.8581 219.967 51.1283 219.253 51.1214V51.1214ZM183.693 51.1214C182.979 51.1214 182.294 50.8445 181.789 50.3516C181.284 49.8588 181 49.1903 181 48.4934C181 47.7964 181.284 47.1279 181.789 46.6351C182.294 46.1423 182.979 45.8654 183.693 45.8654C184.407 45.8654 185.092 46.1423 185.597 46.6351C186.102 47.1279 186.386 47.7964 186.386 48.4934C186.386 49.1903 186.102 49.8588 185.597 50.3516C185.092 50.8445 184.407 51.1214 183.693 51.1214ZM219.253 62.9999H193.495C192.781 62.9999 192.096 62.723 191.591 62.2301C191.086 61.7373 190.802 61.0689 190.802 60.3719C190.802 59.6749 191.086 59.0065 191.591 58.5136C192.096 58.0208 192.781 57.7439 193.495 57.7439H219.307C220.021 57.7509 220.703 58.0344 221.203 58.5322C221.703 59.03 221.98 59.7012 221.973 60.3982C221.966 61.0951 221.675 61.7608 221.165 62.2487C220.655 62.7366 219.967 63.0068 219.253 62.9999V62.9999ZM183.693 62.9999C182.979 62.9999 182.294 62.723 181.789 62.2301C181.284 61.7373 181 61.0689 181 60.3719C181 59.6749 181.284 59.0065 181.789 58.5136C182.294 58.0208 182.979 57.7439 183.693 57.7439C184.407 57.7439 185.092 58.0208 185.597 58.5136C186.102 59.0065 186.386 59.6749 186.386 60.3719C186.386 61.0689 186.102 61.7373 185.597 62.2301C185.092 62.723 184.407 62.9999 183.693 62.9999Z" fill="#AEC7FF"/>
<path d="M146.946 159.992H142.432C141.965 160.033 141.497 159.912 141.095 159.644C140.693 159.377 140.376 158.978 140.189 158.501C140.033 158.106 139.972 157.672 140.012 157.243C140.052 156.814 140.192 156.403 140.418 156.051C140.644 155.699 140.948 155.418 141.301 155.235C141.654 155.053 142.044 154.974 142.432 155.008H146.946C147.257 154.981 147.569 155.025 147.863 155.138C148.157 155.251 148.426 155.43 148.655 155.665C148.883 155.899 149.066 156.182 149.19 156.498C149.315 156.814 149.38 157.155 149.38 157.5C149.38 157.845 149.315 158.186 149.19 158.502C149.066 158.817 148.883 159.101 148.655 159.335C148.426 159.569 148.157 159.749 147.863 159.862C147.569 159.975 147.257 160.019 146.946 159.992V159.992ZM162.567 159.992H155.906C155.438 160.033 154.971 159.912 154.569 159.644C154.167 159.377 153.85 158.978 153.662 158.501C153.506 158.106 153.445 157.672 153.485 157.243C153.526 156.814 153.665 156.403 153.891 156.051C154.117 155.699 154.421 155.418 154.774 155.235C155.127 155.053 155.517 154.974 155.906 155.008H162.567C162.877 154.981 163.189 155.025 163.483 155.138C163.777 155.251 164.047 155.43 164.275 155.665C164.504 155.899 164.686 156.182 164.811 156.498C164.936 156.814 165 157.155 165 157.5C165 157.845 164.936 158.186 164.811 158.502C164.686 158.817 164.504 159.101 164.275 159.335C164.047 159.569 163.777 159.749 163.483 159.862C163.189 159.975 162.877 160.019 162.567 159.992V159.992Z" fill="#718EF7"/>
<path d="M297.395 103.316L296.079 105.947C296.01 106.083 295.985 106.238 296.009 106.389C296.033 106.54 296.104 106.68 296.212 106.788C296.32 106.896 296.46 106.967 296.611 106.991C296.762 107.015 296.917 106.99 297.053 106.921L299.684 105.605C299.783 105.559 299.891 105.535 300 105.535C300.109 105.535 300.217 105.559 300.316 105.605L302.947 106.921C303.083 106.99 303.238 107.015 303.389 106.991C303.54 106.967 303.68 106.896 303.788 106.788C303.896 106.68 303.967 106.54 303.991 106.389C304.015 106.238 303.99 106.083 303.921 105.947L302.605 103.316C302.554 103.218 302.527 103.11 302.527 103C302.527 102.89 302.554 102.782 302.605 102.684L303.921 100.053C303.991 99.916 304.016 99.7621 303.991 99.6108C303.973 99.498 303.928 99.391 303.861 99.2986C303.794 99.2062 303.706 99.131 303.604 99.0792C303.503 99.0273 303.39 99.0003 303.276 99.0003C303.162 99.0003 303.049 99.0274 302.947 99.0792L300.316 100.395C300.217 100.441 300.109 100.465 300 100.465C299.891 100.465 299.783 100.441 299.684 100.395L297.053 99.0792C296.917 99.0096 296.762 98.985 296.611 99.0089C296.46 99.0327 296.32 99.1038 296.212 99.2119C296.104 99.3201 296.033 99.4597 296.009 99.6108C295.985 99.7619 296.01 99.9166 296.079 100.053L297.395 102.684C297.474 102.887 297.474 103.113 297.395 103.316Z" fill="white"/>
<path d="M242.017 48C241.729 48 241.452 48.1153 241.248 48.3206C241.045 48.5259 240.93 48.8043 240.93 49.0946V50.1892C240.93 50.4809 241.044 50.7609 241.247 50.9684C241.451 51.1759 241.727 51.2941 242.017 51.2973C242.308 51.2966 242.588 51.1796 242.794 50.972C243 50.7643 243.116 50.4829 243.117 50.1892V49.0946C243.109 48.8045 242.99 48.5287 242.785 48.3247C242.58 48.1207 242.305 48.0044 242.017 48V48ZM242.017 56.7162C241.729 56.7162 241.452 56.8315 241.248 57.0368C241.045 57.2421 240.93 57.5205 240.93 57.8108V58.9054C240.93 59.1957 241.045 59.4741 241.248 59.6794C241.452 59.8847 241.729 60 242.017 60C242.306 60.0007 242.585 59.8861 242.791 59.681C242.997 59.476 243.114 59.1972 243.117 58.9054V57.8378C243.118 57.5425 243.002 57.2588 242.796 57.0487C242.59 56.8386 242.31 56.7191 242.017 56.7162V56.7162ZM246.913 52.9054H245.813C245.525 52.9054 245.249 53.0207 245.045 53.226C244.841 53.4313 244.727 53.7097 244.727 54C244.727 54.2903 244.841 54.5687 245.045 54.774C245.249 54.9793 245.525 55.0946 245.813 55.0946H246.913C247.202 55.0946 247.478 54.9793 247.682 54.774C247.886 54.5687 248 54.2903 248 54C248 53.7097 247.886 53.4313 247.682 53.226C247.478 53.0207 247.202 52.9054 246.913 52.9054ZM238.207 52.9054H237.107C236.961 52.905 236.817 52.9336 236.683 52.9895C236.548 53.0454 236.426 53.1276 236.323 53.2311C236.221 53.3347 236.139 53.4578 236.084 53.5932C236.028 53.7286 236 53.8738 236 54.0203C236 54.1667 236.028 54.3118 236.084 54.4471C236.139 54.5825 236.221 54.7054 236.324 54.809C236.427 54.9126 236.549 54.9947 236.683 55.0506C236.817 55.1066 236.961 55.1353 237.107 55.1351H238.193C238.482 55.1351 238.758 55.0198 238.962 54.8145C239.166 54.6093 239.28 54.3308 239.28 54.0405C239.28 53.7502 239.166 53.4718 238.962 53.2665C238.758 53.0613 238.482 52.9459 238.193 52.9459L238.207 52.9054Z" fill="#C9DBF7"/>
<path d="M106.121 118.716H105.909C105.672 118.716 105.445 118.628 105.277 118.472C105.109 118.316 105.015 118.104 105.015 117.883V115.834C105.015 115.613 105.109 115.401 105.277 115.244C105.445 115.088 105.672 115 105.909 115H106.121C106.357 115.004 106.582 115.093 106.749 115.248C106.916 115.404 107.011 115.614 107.015 115.834V117.883C107.011 118.103 106.916 118.312 106.749 118.468C106.582 118.624 106.357 118.713 106.121 118.716V118.716ZM106.121 128H105.909C105.791 128.002 105.674 127.982 105.564 127.941C105.455 127.9 105.355 127.838 105.272 127.76C105.188 127.683 105.123 127.59 105.079 127.488C105.034 127.386 105.013 127.276 105.015 127.166V125.117C105.015 124.896 105.109 124.684 105.277 124.528C105.445 124.371 105.672 124.284 105.909 124.284H106.121C106.357 124.287 106.582 124.376 106.749 124.532C106.916 124.687 107.011 124.897 107.015 125.117V127.166C107.015 127.387 106.92 127.599 106.753 127.755C106.585 127.912 106.358 127.999 106.121 128ZM109 121.599V121.387C109.004 121.168 109.1 120.96 109.267 120.806C109.434 120.653 109.659 120.567 109.894 120.567H112.106C112.223 120.565 112.339 120.585 112.447 120.626C112.555 120.666 112.654 120.726 112.737 120.802C112.82 120.879 112.887 120.97 112.932 121.07C112.977 121.17 113 121.278 113 121.387V121.599C113 121.708 112.977 121.815 112.932 121.916C112.887 122.016 112.82 122.107 112.737 122.183C112.654 122.26 112.555 122.32 112.447 122.36C112.339 122.4 112.223 122.42 112.106 122.418H109.894C109.661 122.415 109.438 122.328 109.271 122.175C109.105 122.023 109.008 121.816 109 121.599V121.599ZM99 121.599V121.387C99.004 121.168 99.0999 120.96 99.2671 120.806C99.4343 120.653 99.6595 120.567 99.8939 120.567H102.106C102.341 120.567 102.566 120.653 102.733 120.806C102.9 120.96 102.996 121.168 103 121.387V121.599C102.996 121.817 102.9 122.026 102.733 122.179C102.566 122.333 102.341 122.418 102.106 122.418H99.8939C99.6595 122.418 99.4343 122.333 99.2671 122.179C99.0999 122.026 99.004 121.817 99 121.599V121.599Z" fill="#AEC7FF"/>
<path d="M187 150C187.073 148.919 187.631 147.902 188.561 147.158C189.49 146.414 190.721 146 192 146C193.279 146 194.51 146.414 195.439 147.158C196.369 147.902 196.927 148.919 197 150" stroke="#202225" stroke-width="2.135" stroke-miterlimit="10"/>
<path d="M139.662 183.655L123.862 157.345C123.404 156.671 122.803 156.111 122.105 155.706C121.407 155.3 120.629 155.059 119.827 155H115L133.57 186H138.357C139.85 186 140.428 184.944 139.662 183.655Z" fill="black"/>
<path d="M105 182H174V183.289C173.999 183.826 173.82 184.352 173.486 184.798C173.152 185.245 172.677 185.592 172.121 185.797C171.753 185.933 171.358 186.002 170.959 186H105V182Z" fill="#AEC7FF"/>
<path d="M82.3496 157.345C81.561 156.056 82.1457 155 83.7094 155H114.603C115.413 155.059 116.2 155.3 116.906 155.706C117.612 156.111 118.219 156.671 118.682 157.345L134.659 183.655C135.434 184.944 134.849 186 133.299 186H102.46C101.65 185.941 100.863 185.7 100.157 185.294C99.451 184.889 98.8441 184.329 98.381 183.655L82.3496 157.345Z" fill="#AEC7FF"/>
<path d="M165 182.507C165 183.097 165.114 183.681 165.336 184.227C165.559 184.772 165.885 185.267 166.296 185.685C166.707 186.102 167.195 186.433 167.733 186.659C168.27 186.884 168.846 187 169.427 187H224.132C225.296 187.001 226.45 186.769 227.526 186.316C228.602 185.864 229.58 185.201 230.403 184.364C232.066 182.676 233 180.387 233 178H169.427C168.252 178.005 167.127 178.482 166.298 179.326C165.468 180.171 165.001 181.314 165 182.507V182.507Z" fill="#567EF7"/>
<path d="M228 137H223.664C223.655 132.638 222.377 128.377 219.994 124.756C217.61 121.135 214.228 118.317 210.274 116.658C207.65 115.556 204.838 114.993 202 115H206.349C212.078 114.989 217.577 117.301 221.637 121.426C225.698 125.552 227.986 131.153 228 137V137Z" fill="#AEC7FF"/>
</svg>
