<svg width="212" height="483" viewBox="0 0 212 483" fill="none" xmlns="http://www.w3.org/2000/svg">
<g clip-path="url(#clip0_463_17165)">
<path d="M222.951 35.772L205.546 137.344C205.411 138.132 204.969 138.834 204.317 139.296C203.665 139.758 202.857 139.942 202.07 139.807L16.5885 108.024C15.8016 107.889 15.1006 107.447 14.6397 106.794C14.1788 106.141 13.9957 105.332 14.1308 104.544L31.5358 2.97183C31.5996 2.58012 31.7406 2.20501 31.9506 1.86836C32.1606 1.5317 32.4354 1.24024 32.759 1.01095C33.0825 0.781667 33.4483 0.619143 33.8351 0.53285C34.2219 0.446558 34.622 0.438224 35.0119 0.508334L220.493 32.2917C220.884 32.3554 221.259 32.4964 221.595 32.7066C221.931 32.9167 222.222 33.1918 222.45 33.5157C222.679 33.8396 222.841 34.206 222.927 34.5933C223.013 34.9807 223.021 35.3813 222.951 35.772Z" fill="#FFE75C"/>
<path d="M162.715 45.3594C159.432 43.2427 152.57 40.3152 148.425 38.1987C139.383 33.6149 137.749 25.0454 128.967 23.5407C120.186 22.036 115.768 29.5682 105.74 30.8843C101.103 31.496 93.6811 31.9759 89.8573 32.8749C85.6219 33.8761 80.5227 36.0368 80.2135 40.5726C80.051 42.8144 81.0193 44.7813 83.3584 46.3663C85.6975 47.9513 96.2756 51.7623 123.983 56.5101C151.69 61.2579 161.542 60.9723 164.375 60.249C167.208 59.5256 168.652 57.9968 169.269 55.8328C170.488 51.4529 166.399 47.7177 162.715 45.3594Z" fill="url(#paint0_linear_463_17165)"/>
<path d="M164.176 55.0835C163.507 58.9901 145.713 56.7552 123.916 53.0201C102.118 49.2849 84.572 45.4641 85.2414 41.5575C85.9108 37.6509 104.139 37.4932 125.936 41.2283C147.734 44.9634 164.85 51.1529 164.176 55.0835Z" fill="#8F473B"/>
<path d="M115.608 49.3268C115.586 49.4539 115.515 49.5672 115.41 49.6417C115.305 49.7162 115.174 49.7458 115.048 49.7241C111.722 49.1542 104.367 47.3758 97.82 44.3297C94.2879 42.6636 91.6063 40.9212 89.847 39.1148C90.2066 39.0284 90.61 38.9742 91.0133 38.9199C92.9682 40.7352 95.7107 42.2659 98.2194 43.436C104.694 46.4698 111.934 48.2037 115.212 48.7654C115.339 48.7872 115.452 48.8585 115.526 48.9638C115.6 49.0691 115.63 49.1996 115.608 49.3268ZM117.174 46.6592C113.295 45.7232 106.4 42.8394 102.398 38.601L101.077 38.5474C102.226 39.8877 103.535 41.0815 104.975 42.1018C108.606 44.6464 112.667 46.5124 116.962 47.6097L116.985 47.6138C117.104 47.6348 117.227 47.6106 117.329 47.546C117.431 47.4814 117.506 47.381 117.538 47.2644C117.567 47.1359 117.545 47.0012 117.477 46.8884C117.409 46.7756 117.301 46.6935 117.174 46.6592ZM121.084 45.9724C118.369 44.5148 115.939 42.5773 113.912 40.2533C113.71 39.9966 113.483 39.7358 113.265 39.4271L111.985 39.2817C112.351 39.8439 112.752 40.3823 113.186 40.8938C115.3 43.3007 117.824 45.312 120.641 46.834L120.785 46.8586C120.898 46.8766 121.014 46.8537 121.113 46.794C121.211 46.7342 121.285 46.6414 121.322 46.5322C121.358 46.423 121.355 46.3043 121.312 46.1975C121.269 46.0906 121.19 46.0023 121.088 45.9485L121.084 45.9724ZM121.745 40.5348L120.74 40.3626C121.364 44.1948 122.926 46.436 123.001 46.5723C123.036 46.626 123.081 46.672 123.134 46.7073C123.188 46.7426 123.248 46.7664 123.311 46.7772C123.374 46.788 123.438 46.7855 123.5 46.77C123.562 46.7545 123.621 46.7263 123.671 46.6871C123.725 46.6524 123.771 46.6069 123.806 46.5534C123.841 46.5 123.865 46.4399 123.876 46.3768C123.887 46.3137 123.884 46.249 123.869 46.1869C123.853 46.1248 123.825 46.0666 123.786 46.016C123.762 46.0119 122.387 43.9753 121.745 40.5348ZM159.636 50.6788C152.637 53.7228 139.234 52.8818 133.54 51.906C133.413 51.8843 133.283 51.9139 133.177 51.9884C133.072 52.063 133.001 52.1762 132.979 52.3034C132.957 52.4305 132.987 52.5611 133.061 52.6663C133.136 52.7716 133.249 52.843 133.376 52.8647C136.677 53.4305 144.205 54.2023 151.416 53.5137C155.302 53.1186 158.41 52.3684 160.671 51.2509L159.636 50.6788ZM150.27 46.977L149.007 46.5878C143.798 49.2478 136.36 49.6756 132.367 49.2627C132.303 49.2579 132.239 49.2659 132.178 49.2861C132.117 49.3063 132.061 49.3385 132.012 49.3807C131.964 49.4228 131.924 49.4742 131.896 49.5318C131.867 49.5894 131.85 49.652 131.846 49.7162C131.839 49.7765 131.844 49.8377 131.86 49.8962C131.877 49.9547 131.905 50.0093 131.942 50.057C131.98 50.1047 132.026 50.1445 132.079 50.1741C132.132 50.2037 132.191 50.2226 132.251 50.2296L132.275 50.2337C136.682 50.6241 141.124 50.2152 145.387 49.0267C147.092 48.5451 148.732 47.8568 150.27 46.977ZM139.716 44.0336L138.484 43.7485C135.641 45.6791 131.792 46.8698 128.908 47.3131C128.785 47.3366 128.676 47.407 128.603 47.5095C128.53 47.6121 128.5 47.7388 128.519 47.8631C128.524 47.9684 128.567 48.0682 128.64 48.1441C128.713 48.2201 128.811 48.2671 128.916 48.2765L129.059 48.3011C132.222 47.8039 135.272 46.7477 138.066 45.1818C138.645 44.8423 139.197 44.4584 139.716 44.0336ZM130.096 41.9657C128.345 44.9962 126.37 46.4588 126.342 46.4787C126.288 46.5134 126.242 46.5589 126.207 46.6123C126.172 46.6657 126.148 46.7259 126.137 46.789C126.127 46.8521 126.129 46.9167 126.144 46.9788C126.16 47.0409 126.188 47.0991 126.227 47.1497C126.262 47.2035 126.307 47.2495 126.36 47.2848C126.414 47.3201 126.474 47.3438 126.537 47.3546C126.6 47.3654 126.664 47.363 126.726 47.3475C126.788 47.332 126.847 47.3037 126.897 47.2645C127.037 47.1652 129.232 45.5676 131.12 42.1659L130.096 41.9657Z" fill="#4C131A"/>
<path d="M137.85 38.681C131.749 36.0566 136.852 33.724 140.032 35.7243C143.211 37.7247 144.247 41.4547 137.85 38.681ZM138.473 29.5856C135.88 26.7483 133.298 24.2828 128.967 23.5407L128.465 23.4546C128.715 24.5829 129.589 26.2376 131.334 28.5596C134.494 32.8264 137.998 32.0699 138.473 29.5856ZM105.739 30.8843C103.974 31.1246 101.822 31.3232 99.5899 31.5575C99.3112 33.9028 105.052 34.467 108.266 34.1051C114.803 33.3256 116.116 30.1213 114.654 27.8725C112.085 29.2086 109.266 30.4277 105.739 30.8843ZM121.735 30.2453C115.73 35.6801 124.579 37.9366 125.753 33.8203C127.243 28.574 124.974 27.2971 121.735 30.2453Z" fill="#EDB997"/>
<path d="M134.355 49.3073C133.946 47.091 129.909 45.9304 125.315 45.1432L125.195 45.1227C120.601 44.3355 116.408 44.0857 115.285 46.0396C114.162 47.9935 109.856 67.8063 107.96 77.7198L130.714 81.6189C132.251 71.6439 134.795 51.6277 134.355 49.3073Z" fill="url(#paint1_linear_463_17165)"/>
<path d="M125.046 61.2318C124.261 65.8095 122.563 66.9495 121.559 66.7773C120.554 66.6051 119.308 64.9608 120.093 60.3831L125.046 61.2318Z" fill="white"/>
<path d="M121.452 55.4623C121.762 55.2269 121.619 54.5157 121.133 53.8739C120.647 53.232 120.002 52.9025 119.692 53.1379C119.382 53.3733 119.525 54.0845 120.011 54.7264C120.497 55.3682 121.142 55.6977 121.452 55.4623Z" fill="black"/>
<path d="M127.018 56.015C127.69 55.5715 128.062 54.9485 127.848 54.6233C127.634 54.2982 126.916 54.3941 126.244 54.8375C125.572 55.281 125.201 55.904 125.414 56.2292C125.628 56.5543 126.346 56.4584 127.018 56.015Z" fill="black"/>
<path d="M142.283 62.8287C141.822 62.5029 140.393 63.3682 138.131 63.9182C135.87 64.4681 134.138 64.3687 132.558 62.6671C130.977 60.9654 129.494 59.1322 128.203 58.615C126.912 58.0978 125.61 58.368 123.325 59.6294C123.152 59.7304 122.95 59.7672 122.753 59.7335C122.556 59.6997 122.377 59.5975 122.248 59.4449C120.537 57.4988 119.295 56.8419 118.01 56.8684C116.725 56.8948 114.559 58.1767 112.555 59.2394C110.55 60.3022 108.963 59.9316 106.883 58.5635C104.802 57.1955 103.874 56.0003 103.33 56.1539C102.787 56.3074 103.888 59.654 104.814 60.5774C105.394 61.1083 106.15 61.4049 106.937 61.4099C106.983 61.4106 107.028 61.4213 107.069 61.4413C107.11 61.4612 107.147 61.49 107.176 61.5255C107.205 61.561 107.226 61.6024 107.237 61.6469C107.249 61.6914 107.251 61.7378 107.242 61.783C107.079 62.4459 106.977 63.7606 108.368 64.2702C109.758 64.7799 111.691 63.7049 112.42 63.1883C112.508 63.128 112.614 63.1001 112.72 63.1093C112.826 63.1185 112.926 63.1643 113.002 63.2388C113.36 63.5961 114.147 64.1751 115.528 64.3129C117.782 64.5265 120.676 62.728 121.937 61.834C122.081 61.7407 122.254 61.7049 122.422 61.7338C122.591 61.7627 122.742 61.8541 122.847 61.9898C123.738 63.2528 125.869 65.9123 128.041 66.4572C129.413 66.7909 130.324 66.503 130.804 66.2892C130.901 66.2487 131.009 66.2411 131.112 66.2675C131.214 66.2939 131.304 66.3529 131.37 66.4355C131.885 67.1653 133.226 68.826 134.831 68.8049C136.435 68.7838 136.629 67.5094 136.72 66.8342C136.723 66.7867 136.737 66.7405 136.761 66.6997C136.786 66.6588 136.82 66.6246 136.86 66.5999C136.901 66.5753 136.947 66.5609 136.994 66.5582C137.042 66.5554 137.089 66.5644 137.133 66.5842C137.876 66.8412 138.688 66.8134 139.412 66.506C140.592 65.9434 143.059 63.3317 142.283 62.8287Z" fill="#6A2D32"/>
<path d="M169.721 134.264L152.326 131.284C150.995 128.416 149.506 125.028 148.453 122.405C147.732 120.579 147.192 119.13 147.036 118.461L161.364 115.045L162.244 117.095L167.301 128.694L169.721 134.264Z" fill="#AA5F44"/>
<path d="M162.248 117.071C160.33 120.937 155.062 124.944 150.257 126.686C148.686 123.061 147.285 119.59 147.036 118.461L161.364 115.045L162.248 117.071Z" fill="black"/>
<path d="M180.751 136.155L166.395 133.695L167.301 128.694L168.395 122.738L169.613 116.064L182.244 115.514C182.228 117.905 181.998 121.689 181.675 125.729C181.415 129.262 181.069 133.002 180.751 136.155Z" fill="url(#paint2_linear_463_17165)"/>
<path d="M168.875 120.082L181.948 122.125C181.768 124.758 181.542 127.656 181.281 130.473C176.948 130.322 171.404 127.892 168.179 123.861L168.875 120.082Z" fill="#8F473B"/>
<path d="M187.96 122.686L184.991 100.344C184.991 100.344 186.399 99.5983 186.788 98.4807C187.176 97.3631 185.857 95.2868 185.857 95.2868C185.857 95.2868 188.68 93.4761 190.389 91.5487C191.373 90.4096 193.811 87.1022 191.591 84.8221C190.046 83.2006 187.655 84.0737 187.655 84.0737C187.655 84.0737 188.991 81.8849 187.522 80.3995C186.052 78.9142 184.38 79.6146 184.38 79.6146C184.38 79.6146 188.359 67.3195 188.703 65.6021C189.046 63.8847 184.296 62.4293 183.651 63.7496C181.455 68.0854 177.758 79.0225 177.499 79.669C177.41 79.9005 176.317 79.8118 176.339 79.5441C176.36 79.2764 177.669 64.4515 177.384 63.0952C177.099 61.7388 173.526 61.028 172.569 62.5908C172.042 63.512 168.875 78.8325 168.024 84.6571C165.521 85.6098 164.554 87.6643 165.441 89.8147C166.139 91.4886 171.251 99.1736 171.251 99.1736C171.251 99.1736 169.741 99.359 169.317 100.397C168.893 101.434 170.249 102.431 170.786 102.893C170.857 102.959 170.911 103.041 170.943 103.132C170.974 103.224 170.983 103.322 170.967 103.418C170.63 105.531 168.168 118.456 167.555 121.607C167.513 121.764 167.525 121.931 167.589 122.08C167.652 122.23 167.764 122.354 167.906 122.432C171.102 124.582 174.847 125.772 178.697 125.86C184.416 125.977 186.676 124.144 187.693 123.381C187.796 123.299 187.875 123.192 187.922 123.07C187.968 122.948 187.982 122.815 187.96 122.686Z" fill="#6A2D32"/>
<path d="M190.417 89.0864C186.225 93.5735 184.244 93.9248 183.454 93.7895L183.287 93.7608C182.819 93.599 182.393 93.3354 182.039 92.989C181.686 92.6426 181.413 92.2219 181.241 91.7573C181.118 91.4511 181.065 91.1209 181.088 90.7915C181.11 90.4621 181.206 90.1419 181.37 89.8551C180.987 90.0679 180.57 90.2135 180.139 90.2855C179.91 90.3172 179.678 90.3108 179.452 90.2666C178.447 90.0944 177.545 89.323 177.084 88.8493C176.275 89.4015 175.028 89.7799 173.949 90.0391C175.053 90.4427 176.016 91.156 176.725 92.0937C178.271 94.2829 177.826 97.3151 177.805 97.4349C177.783 97.562 177.712 97.6753 177.607 97.7498C177.502 97.8243 177.371 97.854 177.244 97.8322C177.182 97.8249 177.122 97.805 177.068 97.7736C177.014 97.7423 176.966 97.7002 176.929 97.6499C176.891 97.5996 176.864 97.5422 176.85 97.4811C176.835 97.4201 176.833 97.3567 176.844 97.2949C176.848 97.2709 177.249 94.5024 175.94 92.65C174.632 90.7976 171.641 90.433 171.617 90.4289C171.499 90.4171 171.39 90.363 171.31 90.2766C171.23 90.1901 171.183 90.0774 171.18 89.9593C171.177 89.8382 171.22 89.7205 171.299 89.6292C171.379 89.5379 171.489 89.4795 171.609 89.4655C172.716 89.3343 175.791 88.7758 176.786 87.8607L176.794 87.8128L176.818 87.8169C177.098 87.5612 177.32 87.2483 177.469 86.8992C177.618 86.5502 177.691 86.1733 177.682 85.7939C177.667 85.5364 177.593 85.2861 177.464 85.0627C177.335 84.8393 177.157 84.6492 176.942 84.5075C175.736 83.6349 172.27 83.1643 168.001 84.6531L168.186 83.5746C172.303 82.2571 175.989 82.5927 177.496 83.7144L177.842 83.9957C180.525 80.4095 181.28 79.4534 184.721 78.4888C184.547 79.0756 184.405 79.4708 184.385 79.5906C181.731 80.4187 181.056 81.3392 178.533 84.7062L178.413 84.8336C178.546 85.1102 178.628 85.4084 178.656 85.7141C178.683 86.6263 178.364 87.5152 177.762 88.2007C178.286 88.7346 179.221 89.4621 179.979 89.3454C181.265 89.1711 183.418 87.2455 184.224 86.4215C185.03 85.5975 185.917 84.7379 185.977 84.6742C186.07 84.5855 186.195 84.5377 186.324 84.5413C186.388 84.543 186.45 84.5573 186.509 84.5834C186.567 84.6094 186.619 84.6467 186.663 84.6931C186.707 84.7395 186.741 84.7941 186.764 84.8537C186.787 84.9134 186.797 84.9769 186.796 85.0408C186.794 85.1046 186.779 85.1675 186.753 85.2258C186.727 85.2841 186.69 85.3367 186.644 85.3806C186.62 85.3765 185.91 86.069 185.012 87.0005L184.988 86.9964C183.997 88.0355 182.841 89.3177 182.206 90.2944C182.103 90.4645 182.04 90.6562 182.023 90.8544C182.006 91.0527 182.036 91.2522 182.109 91.4372C182.24 91.7611 182.437 92.0538 182.688 92.2966C182.94 92.5393 183.239 92.7266 183.566 92.8466C184.176 93.0251 186.316 92.0349 189.69 88.4437C189.731 88.3958 189.781 88.3567 189.838 88.3289C189.894 88.3011 189.956 88.2852 190.018 88.2821C190.081 88.279 190.144 88.2888 190.203 88.3109C190.262 88.333 190.316 88.3669 190.361 88.4106C190.456 88.4936 190.516 88.6107 190.526 88.7369C190.537 88.8631 190.498 88.9885 190.417 89.0864Z" fill="black"/>
<path d="M174.825 102.179C174.886 102.193 174.949 102.194 175.011 102.182C175.072 102.171 175.131 102.147 175.183 102.112C175.235 102.077 175.28 102.032 175.314 101.979C175.348 101.927 175.371 101.867 175.381 101.806C175.395 101.743 175.397 101.679 175.386 101.616C175.375 101.553 175.352 101.492 175.318 101.438C175.283 101.384 175.239 101.338 175.187 101.301C175.134 101.264 175.075 101.238 175.013 101.224C173.992 101 172.315 100.441 171.199 99.1893C170.857 99.2387 170.524 99.3397 170.212 99.4889C171.497 101.189 173.569 101.89 174.801 102.175L174.825 102.179Z" fill="#4C131A"/>
<path d="M186.28 110.211L184.998 100.444C183.688 101.103 182.236 101.43 180.771 101.397C180.739 101.402 180.708 101.414 180.682 101.432C180.655 101.45 180.632 101.474 180.616 101.502C180.599 101.529 180.589 101.561 180.586 101.593C180.583 101.625 180.587 101.658 180.598 101.688C181.284 103.434 184.297 107.552 186.28 110.211Z" fill="#4C131A"/>
<path d="M80.3269 107.03C79.957 107.608 78.9654 108.795 77.6532 110.273C75.7871 112.395 73.2796 115.099 71.0695 117.36L53.6747 114.379L57.8069 109.956L66.4167 100.675L67.9532 99.0382L80.3269 107.03Z" fill="#AA5F44"/>
<path d="M80.3274 107.03C79.6921 108.007 77.24 110.818 74.528 113.709C70.5765 110.466 66.9673 104.938 66.4213 100.65L67.9537 99.038L80.3274 107.03Z" fill="black"/>
<path d="M57.0002 114.949L42.6201 112.485C43.3693 109.406 44.3129 105.768 45.2194 102.347C46.284 98.4337 47.3273 94.7885 48.1085 92.5293L59.8355 97.2525L58.7615 103.952L57.8066 109.956L57.0002 114.949Z" fill="url(#paint3_linear_463_17165)"/>
<path d="M46.1861 98.8607L59.1934 101.287L58.5445 105.074C54.185 107.805 48.1482 108.251 43.9878 106.946C44.7274 104.211 45.4793 101.404 46.1861 98.8607Z" fill="#8F473B"/>
<path d="M40.3307 97.3887L50.5691 77.3096C50.5691 77.3096 49.4653 76.1336 49.4949 74.9545C49.5245 73.7754 51.4357 72.2525 51.4357 72.2525C51.4357 72.2525 49.3531 69.6013 48.4068 67.2188C47.8348 65.8132 46.6605 61.8867 49.489 60.4718C51.4855 59.457 53.4732 61.0805 53.4732 61.0805C53.4732 61.0805 52.9425 58.5718 54.7988 57.6564C56.6551 56.7409 58.0222 57.962 58.0222 57.962C58.0222 57.962 58.3879 45.0479 58.6118 43.31C58.8357 41.572 63.8236 41.7853 64.0161 43.2492C64.6194 48.0647 64.4639 59.6086 64.4924 60.3042C64.4992 60.5521 65.5595 60.8325 65.6525 60.5771C65.7456 60.3216 69.3993 45.8986 70.1433 44.7185C70.8874 43.5385 74.4689 44.0535 74.8275 45.8419C75.0419 46.8902 72.9276 62.3911 71.7662 68.1624C73.8332 69.8981 74.0618 72.1577 72.5088 73.8899C71.293 75.2358 63.9146 80.7806 63.9146 80.7806C63.9146 80.7806 65.2524 81.4539 65.3308 82.5775C65.4092 83.7011 63.7744 84.1858 63.0907 84.4387C63.005 84.4814 62.9297 84.5425 62.87 84.6175C62.8104 84.6925 62.7678 84.7797 62.7454 84.8729C62.384 86.982 60.4015 99.9891 59.9311 103.165C59.9073 103.323 59.8369 103.47 59.729 103.588C59.621 103.706 59.4805 103.789 59.3253 103.826C55.5949 104.786 51.669 104.661 48.0082 103.466C42.553 101.667 41.0324 99.1865 40.3511 98.1323C40.276 98.0237 40.2341 97.8956 40.2305 97.7636C40.2269 97.6316 40.2617 97.5013 40.3307 97.3887Z" fill="#6A2D32"/>
<path d="M62.2623 65.9909C62.1383 66.3533 62.0886 66.737 62.1163 67.1191C62.1439 67.5011 62.2483 67.8736 62.4232 68.2141L62.4628 68.2703C63.0717 69.4601 65.7862 71.0108 66.8095 71.5068C66.9128 71.564 66.9918 71.6569 67.0316 71.7681C67.0715 71.8794 67.0695 72.0014 67.0261 72.1114C67.0102 72.1695 66.9826 72.2238 66.9448 72.2707C66.9071 72.3177 66.8601 72.3563 66.8067 72.3842C66.7534 72.4122 66.6949 72.4287 66.6348 72.433C66.5748 72.4372 66.5146 72.4289 66.4579 72.4087C66.434 72.4046 63.5717 71.7168 61.6654 73.0678C59.7591 74.4187 59.2471 77.1188 59.243 77.1427C59.2223 77.2635 59.1546 77.3711 59.0547 77.4419C58.9548 77.5127 58.831 77.5409 58.7104 77.5202L58.6865 77.5161C58.6247 77.5056 58.5657 77.4826 58.5131 77.4485C58.4605 77.4144 58.4154 77.3699 58.3805 77.3178C58.3457 77.2656 58.3218 77.2069 58.3104 77.1452C58.2989 77.0835 58.3002 77.0201 58.314 76.9589C58.3345 76.839 58.9238 73.8315 61.1104 72.2819C62.0912 71.6337 63.2373 71.282 64.412 71.2687C63.457 70.661 62.4071 69.889 61.8282 69.099C61.2361 69.3923 60.1285 69.8193 59.1236 69.6471C58.9039 69.613 58.6912 69.5433 58.494 69.4405C58.1029 69.2282 57.7507 68.9509 57.4523 68.6205C57.5147 68.9443 57.5032 69.278 57.4187 69.5967C57.3342 69.9155 57.1789 70.211 56.9644 70.4613C56.6454 70.8395 56.2478 71.1436 55.7994 71.3523C55.351 71.5609 54.8627 71.6691 54.3684 71.6693L54.2009 71.6406C53.4113 71.5053 51.6361 70.5104 49.2007 64.8875C49.1734 64.8315 49.1576 64.7705 49.1545 64.7082C49.1513 64.6459 49.1608 64.5835 49.1823 64.525C49.2039 64.4664 49.237 64.4129 49.2798 64.3675C49.3226 64.3221 49.3741 64.2858 49.4312 64.2609C49.4905 64.2346 49.5544 64.2205 49.6191 64.2193C49.6839 64.2181 49.7482 64.2299 49.8084 64.254C49.8685 64.2781 49.9232 64.314 49.9693 64.3596C50.0153 64.4052 50.0518 64.4596 50.0765 64.5195C52.0384 69.0251 53.7266 70.6712 54.385 70.71C54.7303 70.7023 55.0703 70.623 55.3835 70.4771C55.6968 70.3312 55.9765 70.1219 56.205 69.8624C56.3406 69.7154 56.4379 69.5372 56.4883 69.3435C56.5387 69.1499 56.5405 68.9468 56.4938 68.7524C56.2438 67.624 55.5571 66.0261 54.9885 64.7445L54.9489 64.6883C54.4357 63.5149 53.9731 62.6215 53.9731 62.6215C53.9404 62.5654 53.92 62.5031 53.913 62.4386C53.906 62.3742 53.9127 62.3089 53.9326 62.2471C53.9525 62.1854 53.9851 62.1285 54.0284 62.0802C54.0717 62.0319 54.1246 61.9933 54.1838 61.9668C54.2376 61.9342 54.2978 61.9136 54.3604 61.9065C54.4229 61.8993 54.4862 61.9057 54.546 61.9254C54.6057 61.945 54.6606 61.9773 54.7067 62.0201C54.7529 62.0629 54.7892 62.1152 54.8134 62.1734C54.8728 62.2576 55.3553 63.1791 55.8842 64.4045C56.4131 65.63 57.7587 67.9823 58.9372 68.5789C59.6139 68.9416 60.7133 68.5626 61.3854 68.2337C61.0395 67.388 61.0427 66.4392 61.3941 65.5954C61.5138 65.3164 61.6827 65.0612 61.8927 64.842L61.8455 64.6859C60.5878 60.6711 60.2339 59.5743 58.0308 57.9139C58.0274 57.79 58.0494 57.3744 58.0564 56.7588C60.9799 58.814 61.3734 59.9669 62.7337 64.246L63.1296 64.0918C64.9482 63.54 68.5119 64.4467 71.9795 67.0639C71.9138 67.4473 71.8522 67.8069 71.7707 68.1383C68.2642 65.3171 64.8153 64.6027 63.4124 65.0284C63.1615 65.0935 62.9282 65.2136 62.7292 65.38C62.5303 65.5465 62.3708 65.7551 62.2623 65.9909Z" fill="black"/>
<path d="M63.9348 80.8087C62.4901 81.622 60.7222 81.5904 59.6612 81.458C59.5343 81.4485 59.4085 81.4869 59.3084 81.5657C59.2083 81.6444 59.1412 81.7577 59.1203 81.8834C59.111 82.0063 59.1464 82.1284 59.2201 82.2272C59.2937 82.326 59.4005 82.3947 59.5208 82.4207L59.5447 82.4248C60.8252 82.5702 63.0122 82.5996 64.766 81.4199C64.5249 81.1712 64.2439 80.9646 63.9348 80.8087Z" fill="#4C131A"/>
<path d="M54.2636 80.0397C54.2842 80.013 54.2983 79.9819 54.3049 79.9489C54.3115 79.9158 54.3104 79.8817 54.3017 79.8492C54.2929 79.8166 54.2768 79.7866 54.2546 79.7613C54.2323 79.736 54.2046 79.7162 54.1734 79.7035C52.7868 79.2502 51.5345 78.4591 50.5287 77.4013L46.0442 86.1804C48.8229 84.3375 53.0355 81.4575 54.2636 80.0397Z" fill="#4C131A"/>
<path d="M162.969 116.603L162.244 117.095C160.475 118.223 155.632 121.044 149.464 122.257L148.453 122.405C146.403 122.653 144.337 122.745 142.274 122.678C141.801 124.719 141.227 126.915 140.458 129.25L82.9376 119.393C82.9803 117.12 83.1392 114.849 83.4135 112.592C81.438 111.965 79.5125 111.189 77.6535 110.273L76.7737 109.801C71.3613 106.604 67.7101 102.327 66.417 100.675L65.8975 99.9688C65.8975 99.9688 70.5474 94.968 75.9002 89.0267C77.9708 86.7171 82.0216 82.6251 84.688 81.7252C88.9174 80.3282 95.8269 80.9694 118.438 84.8439L118.462 84.848C141.097 88.7267 147.801 90.4183 151.324 93.1437C153.563 94.8842 155.996 100.087 157.204 102.959C160.273 110.343 162.969 116.603 162.969 116.603Z" fill="url(#paint4_linear_463_17165)"/>
<path d="M142.422 122.679C143.142 119.052 143.706 115.473 143.718 115.401C143.741 115.287 143.802 115.184 143.891 115.11C143.919 115.09 145.979 113.42 146.824 111.936C146.853 111.88 146.893 111.831 146.942 111.79C146.99 111.75 147.047 111.721 147.108 111.703C147.168 111.686 147.232 111.681 147.295 111.69C147.357 111.698 147.417 111.719 147.471 111.751C147.527 111.78 147.577 111.82 147.617 111.869C147.657 111.918 147.687 111.975 147.704 112.035C147.721 112.096 147.726 112.16 147.718 112.223C147.709 112.285 147.688 112.346 147.656 112.4C146.871 113.819 145.163 115.303 144.646 115.733C144.515 116.5 144.017 119.548 143.408 122.675L142.422 122.679ZM84.3849 104.913C84.365 104.885 82.9791 102.625 82.6998 100.948C82.6888 100.884 82.6652 100.823 82.6302 100.769C82.5953 100.714 82.5498 100.667 82.4964 100.63C82.443 100.594 82.3829 100.568 82.3194 100.555C82.256 100.542 82.1905 100.542 82.127 100.554C82.0645 100.563 82.0043 100.584 81.9504 100.617C81.8964 100.65 81.8497 100.693 81.8131 100.745C81.7766 100.796 81.751 100.855 81.7379 100.917C81.7249 100.978 81.7246 101.042 81.7372 101.104C82.0288 102.708 83.1208 104.672 83.4653 105.249C83.3339 106.016 82.7364 109.071 82.2982 112.203L83.2307 112.511C83.751 108.9 84.4388 105.317 84.447 105.269C84.4611 105.209 84.4628 105.146 84.4521 105.085C84.4415 105.024 84.4186 104.965 84.3849 104.913Z" fill="black"/>
<path d="M145.52 86.9189C144.421 86.2866 142.547 85.8668 142.547 85.8668C142.592 83.3086 142.618 80.2787 141.906 79.8359C141.194 79.3932 130.858 75.7472 120.331 73.9432C109.803 72.1392 98.9512 72.0806 98.0002 72.3124C97.0492 72.5442 96.2214 75.3628 95.3875 77.7857C95.3875 77.7857 93.4809 77.5576 92.2584 77.7923C91.036 78.0269 90.6357 79.9319 91.6547 84.6213C92.5529 88.7225 92.8525 94.4481 96.306 99.1599C105.021 111.114 110.359 117.185 112.848 117.611C115.336 118.037 122.368 114.086 134.565 105.716C139.414 102.427 141.603 97.1275 143.815 93.5593C146.338 89.4768 146.821 87.66 145.52 86.9189Z" fill="#FF6666"/>
<path d="M107.055 84.0039C107.099 83.8845 107.189 83.7873 107.304 83.7333C107.419 83.6792 107.551 83.6725 107.671 83.7147C109.329 84.2455 110.669 85.1907 111.946 86.0756C113.855 87.4389 115.657 88.7098 118.649 88.9265C121.642 89.1432 123.673 88.3564 126.248 87.4161C128.347 86.6656 130.762 85.7965 133.889 85.3702C138.278 84.7654 141.02 84.7172 142.556 84.8077C142.551 85.1275 142.541 85.4712 142.563 85.7711C141.075 85.6888 138.409 85.7253 134.02 86.3301C130.997 86.7249 128.634 87.5782 126.559 88.3328C123.884 89.2807 121.573 90.1183 118.581 89.9016L117.472 89.7609C114.84 89.3099 113.082 88.0712 111.391 86.8687C110.115 85.9838 108.905 85.1351 107.367 84.6249C107.306 84.6053 107.249 84.5736 107.199 84.5316C107.15 84.4896 107.11 84.4381 107.081 84.3803C107.052 84.3224 107.034 84.2593 107.03 84.1947C107.026 84.1301 107.034 84.0652 107.055 84.0039ZM100.401 86.6137L96.8093 83.2844C94.5803 81.2002 95.1121 78.5282 95.3392 77.7777L94.3418 77.7054C94.0811 78.7956 93.684 81.688 96.1474 83.9851L99.7591 87.3425C103.633 90.8928 107.635 94.5636 110.111 97.5043C110.185 97.5935 110.288 97.6546 110.401 97.6775C110.539 97.6915 110.677 97.6536 110.789 97.5712C110.884 97.4827 110.944 97.3624 110.957 97.233C110.97 97.1035 110.936 96.9738 110.86 96.868C108.34 93.8951 104.319 90.1962 100.401 86.6137ZM135.658 95.0235C135.606 94.9908 135.547 94.969 135.486 94.9593C135.425 94.9497 135.362 94.9525 135.302 94.9675C135.242 94.9826 135.186 95.0095 135.136 95.0468C135.087 95.0841 135.046 95.131 135.015 95.1847C134.101 96.7797 132.346 99.1187 129.11 101.327C117.51 109.233 115.443 110.655 112.446 106.441C112.412 106.387 112.366 106.341 112.313 106.306C112.26 106.27 112.2 106.246 112.137 106.236C112.074 106.225 112.009 106.227 111.947 106.243C111.885 106.258 111.827 106.287 111.776 106.326C111.678 106.404 111.612 106.516 111.591 106.639C111.57 106.763 111.595 106.89 111.661 106.997C112.795 108.573 113.849 109.469 115.117 109.686C117.868 110.157 121.688 107.556 129.637 102.133C133.041 99.8052 134.893 97.3348 135.842 95.6719C135.875 95.6177 135.896 95.5574 135.904 95.4947C135.912 95.4321 135.908 95.3684 135.891 95.3076C135.873 95.2468 135.844 95.1903 135.804 95.1414C135.764 95.0926 135.714 95.0524 135.658 95.0235Z" fill="#CC2140"/>
<path d="M188.848 42.9054C188.39 42.4778 188.027 41.9584 187.782 41.3809C187.537 40.8035 187.417 40.1808 187.428 39.5534L187.478 37.391C187.475 37.3406 187.455 37.2926 187.421 37.2553C187.387 37.218 187.341 37.1937 187.291 37.1864C187.245 37.178 187.196 37.1871 187.156 37.212C187.115 37.2368 187.085 37.2758 187.071 37.3213L186.375 39.373C186.185 39.9727 185.867 40.5239 185.443 40.988C185.019 41.4522 184.499 41.8183 183.919 42.0608L183.627 42.1834C183.593 42.1989 183.562 42.2232 183.54 42.254C183.517 42.2847 183.503 42.3209 183.499 42.3588C183.49 42.396 183.492 42.4347 183.503 42.4712C183.514 42.5077 183.534 42.5407 183.562 42.5669L183.796 42.7798C184.262 43.2014 184.63 43.7197 184.876 44.2986C185.121 44.8775 185.237 45.503 185.217 46.1317L185.194 48.2742C185.186 48.3251 185.198 48.3773 185.227 48.4194C185.257 48.4615 185.302 48.4901 185.353 48.4988C185.406 48.5082 185.461 48.4976 185.507 48.469C185.553 48.4405 185.586 48.3959 185.601 48.3439L186.27 46.3121C186.468 45.7168 186.789 45.1699 187.212 44.7068C187.635 44.2438 188.151 43.875 188.725 43.6244L189.041 43.5058C189.105 43.4661 189.151 43.4033 189.17 43.3305C189.176 43.2556 189.154 43.181 189.107 43.1223L188.848 42.9054Z" fill="#40DF80"/>
<path d="M46.9933 28.6139C46.5336 28.1923 46.1688 27.6775 45.9232 27.1037C45.6776 26.5299 45.5567 25.9102 45.5686 25.2859L45.6189 23.1235C45.6174 23.0707 45.5988 23.0198 45.5659 22.9786C45.533 22.9373 45.4875 22.9079 45.4364 22.8949C45.3845 22.8937 45.3334 22.9078 45.2893 22.9353C45.2452 22.9628 45.2101 23.0025 45.1882 23.0497L44.5158 25.1055C44.3234 25.7004 44.0047 26.2466 43.5815 26.7064C43.1583 27.1662 42.6407 27.5288 42.0643 27.7693L41.7683 27.9159C41.7345 27.9252 41.7044 27.9448 41.6821 27.9719C41.6598 27.999 41.6465 28.0323 41.6438 28.0673C41.6377 28.1012 41.6407 28.1361 41.6524 28.1684C41.6642 28.2008 41.6843 28.2294 41.7108 28.2514L41.9452 28.4643C42.4085 28.888 42.7751 29.4066 43.0203 29.985C43.2654 30.5634 43.3833 31.188 43.3658 31.8162L43.3155 33.9786C43.3221 34.0277 43.3435 34.0737 43.3768 34.1102C43.4101 34.1468 43.4539 34.1723 43.5021 34.1833C43.5516 34.1931 43.6029 34.1854 43.6474 34.1615C43.6919 34.1377 43.7268 34.0991 43.7462 34.0524L44.4186 31.9967C44.6156 31.4006 44.9362 30.853 45.3594 30.3898C45.7826 29.9266 46.2989 29.5582 46.8742 29.3089L47.1901 29.1904C47.2201 29.1751 47.2467 29.1538 47.2682 29.1278C47.2896 29.1017 47.3054 29.0715 47.3145 29.039C47.3206 29.0051 47.3177 28.9702 47.3059 28.9378C47.2941 28.9055 47.274 28.8768 47.2475 28.8548L46.9933 28.6139Z" fill="#5865F2"/>
<path d="M203.146 101.481C202.69 101.052 202.328 100.532 202.083 99.9549C201.839 99.3779 201.717 98.7561 201.725 98.1292L201.775 95.9668C201.773 95.9163 201.753 95.8684 201.719 95.8311C201.685 95.7938 201.639 95.7694 201.589 95.7621C201.542 95.7537 201.494 95.7628 201.453 95.7877C201.412 95.8126 201.382 95.8515 201.369 95.8971L200.696 97.9529C200.495 98.5497 200.17 99.0973 199.742 99.5597C199.315 100.022 198.795 100.389 198.217 100.637L197.925 100.759C197.892 100.771 197.864 100.791 197.842 100.818C197.82 100.845 197.806 100.877 197.8 100.911C197.791 100.944 197.793 100.98 197.805 101.013C197.817 101.046 197.838 101.075 197.867 101.095L198.098 101.332C198.561 101.752 198.93 102.267 199.179 102.842C199.429 103.416 199.554 104.037 199.546 104.664L199.496 106.826C199.493 106.876 199.507 106.926 199.535 106.966C199.564 107.007 199.606 107.037 199.654 107.051C199.707 107.055 199.76 107.043 199.804 107.015C199.849 106.987 199.884 106.945 199.903 106.896L200.575 104.84C200.776 104.249 201.098 103.707 201.52 103.249C201.942 102.79 202.455 102.425 203.027 102.176L203.346 102.034C203.379 102.022 203.407 102.001 203.429 101.975C203.451 101.948 203.465 101.916 203.471 101.882C203.473 101.849 203.468 101.815 203.457 101.783C203.445 101.751 203.427 101.722 203.404 101.698L203.146 101.481Z" fill="#63B9FF"/>
<path d="M67.6155 21.9587C67.3008 21.6717 67.0499 21.3215 66.8792 20.931C66.7085 20.5405 66.6218 20.1183 66.6247 19.6919L66.6797 18.2211C66.6798 18.1862 66.6674 18.1525 66.6448 18.126C66.6223 18.0995 66.591 18.082 66.5566 18.0766C66.5225 18.0703 66.4871 18.0764 66.457 18.0939C66.4269 18.1113 66.4041 18.139 66.3925 18.1719L65.9308 19.573C65.796 19.9752 65.5781 20.3445 65.2912 20.6567C65.0043 20.9689 64.6548 21.2169 64.2657 21.3847L64.0538 21.4717C64.0291 21.4777 64.0069 21.4913 63.9904 21.5106C63.9738 21.5299 63.9637 21.5539 63.9615 21.5792C63.9533 21.6272 63.9731 21.6552 64.0127 21.7114L64.1836 21.864C64.4946 22.1517 64.7415 22.502 64.9082 22.8919C65.0748 23.2818 65.1573 23.7026 65.1505 24.1267L65.1235 25.5777C65.1234 25.6125 65.1358 25.6462 65.1583 25.6727C65.1809 25.6992 65.2122 25.7167 65.2465 25.7221C65.2807 25.7284 65.3161 25.7223 65.3462 25.7049C65.3763 25.6874 65.3991 25.6597 65.4106 25.6269L65.8444 24.2456C65.9836 23.8426 66.206 23.4733 66.4969 23.1619C66.7879 22.8505 67.141 22.6039 67.5334 22.438L67.7214 22.3469C67.7774 22.3071 67.8055 22.2873 67.8137 22.2393C67.82 22.2147 67.8185 22.1887 67.8093 22.165C67.8001 22.1413 67.7837 22.1211 67.7624 22.1072L67.6155 21.9587Z" fill="#63B9FF"/>
<path d="M88.1785 64.8071C87.8637 64.5224 87.6143 64.1727 87.4473 63.7821C87.2804 63.3915 87.2 62.9692 87.2116 62.5444L87.2427 61.0695C87.2428 61.0347 87.2304 61.001 87.2078 60.9745C87.1853 60.948 87.154 60.9305 87.1196 60.9251C87.0854 60.9187 87.0501 60.9248 87.02 60.9423C86.9899 60.9598 86.967 60.9874 86.9555 61.0203L86.4938 62.4214C86.3633 62.8259 86.1469 63.1972 85.8594 63.51C85.572 63.8227 85.2204 64.0694 84.8287 64.2331L84.6407 64.3242C84.616 64.3303 84.5938 64.3439 84.5773 64.3632C84.5607 64.3824 84.5506 64.4064 84.5484 64.4318C84.542 64.4564 84.5436 64.4824 84.5528 64.5061C84.562 64.5298 84.5784 64.55 84.5996 64.5639L84.7466 64.7124C85.0612 65.0023 85.31 65.3564 85.4761 65.7509C85.6422 66.1454 85.7217 66.5711 85.7094 66.9991L85.6824 68.4501C85.6823 68.4849 85.6947 68.5186 85.7172 68.5451C85.7398 68.5716 85.7711 68.5891 85.8054 68.5945C85.8396 68.6008 85.875 68.5947 85.905 68.5773C85.9351 68.5598 85.958 68.5321 85.9695 68.4993L86.4272 67.1221C86.558 66.7144 86.7748 66.3395 87.0627 66.0228C87.3507 65.7061 87.7032 65.455 88.0963 65.2865L88.3083 65.1994C88.3501 65.1748 88.3826 65.137 88.4006 65.0919C88.3986 65.0434 88.3806 64.9969 88.3494 64.9597L88.1785 64.8071Z" fill="#40DF80"/>
<path d="M157.758 72.5609C157.444 72.2762 157.194 71.9265 157.027 71.5359C156.86 71.1453 156.78 70.723 156.791 70.2982L156.818 68.8473C156.819 68.8124 156.806 68.7787 156.784 68.7522C156.761 68.7257 156.73 68.7082 156.695 68.7028C156.661 68.6965 156.626 68.7026 156.596 68.7201C156.566 68.7375 156.543 68.7652 156.531 68.7981L156.074 70.1752C155.943 70.5796 155.727 70.951 155.439 71.2638C155.152 71.5765 154.8 71.8232 154.409 71.9869L154.197 72.0739C154.162 72.1021 154.137 72.1416 154.128 72.1856C154.122 72.2301 154.132 72.2754 154.156 72.3136L154.326 72.4662C154.641 72.751 154.891 73.1007 155.058 73.4913C155.225 73.8819 155.305 74.3041 155.293 74.7289L155.262 76.2039C155.278 76.2559 155.314 76.336 155.385 76.3483C155.419 76.3546 155.455 76.3485 155.485 76.3311C155.515 76.3136 155.538 76.2859 155.549 76.2531L156.011 74.8519C156.142 74.4475 156.358 74.0761 156.646 73.7634C156.933 73.4507 157.285 73.2039 157.676 73.0402L157.888 72.9532C157.923 72.925 157.947 72.8856 157.957 72.8416C157.963 72.797 157.953 72.7518 157.929 72.7135L157.758 72.5609Z" fill="#5865F2"/>
<path d="M205.646 60.5861C205.331 60.3014 205.082 59.9517 204.915 59.5611C204.748 59.1705 204.667 58.7482 204.679 58.3234L204.71 56.8485C204.71 56.8137 204.698 56.78 204.675 56.7535C204.653 56.727 204.621 56.7095 204.587 56.7041C204.553 56.6977 204.517 56.7038 204.487 56.7213C204.457 56.7388 204.434 56.7664 204.423 56.7993L203.961 58.2004C203.831 58.6049 203.614 58.9762 203.327 59.289C203.039 59.6017 202.688 59.8484 202.296 60.0121L202.084 60.0991C202.059 60.1052 202.037 60.1188 202.021 60.138C202.004 60.1573 201.994 60.1813 201.992 60.2067C201.985 60.2313 201.987 60.2573 201.996 60.281C202.005 60.3047 202.022 60.3249 202.043 60.3388L202.214 60.4915C202.529 60.7762 202.778 61.1259 202.945 61.5165C203.112 61.9071 203.192 62.3293 203.181 62.7541L203.15 64.2291C203.15 64.2639 203.162 64.2976 203.185 64.3241C203.207 64.3506 203.238 64.3681 203.273 64.3735C203.307 64.3798 203.342 64.3737 203.372 64.3563C203.402 64.3388 203.425 64.3111 203.437 64.2783L203.899 62.8771C204.029 62.4727 204.245 62.1013 204.533 61.7886C204.82 61.4759 205.172 61.2291 205.564 61.0655L205.752 60.9743C205.776 60.9683 205.799 60.9547 205.815 60.9354C205.832 60.9161 205.842 60.8921 205.844 60.8668C205.85 60.8421 205.849 60.8162 205.84 60.7924C205.83 60.7687 205.814 60.7485 205.793 60.7346L205.646 60.5861Z" fill="#D43B8C"/>
<path d="M35.2195 64.2685C34.9154 63.9706 34.6737 63.6149 34.5084 63.2223C34.3431 62.8297 34.2575 62.408 34.2567 61.9819L34.2837 60.5309C34.2891 60.4991 34.2817 60.4665 34.2632 60.4402C34.2446 60.4139 34.2163 60.396 34.1846 60.3906C34.1504 60.3842 34.1151 60.3904 34.085 60.4078C34.0549 60.4253 34.032 60.453 34.0205 60.4858L33.5628 61.863C33.4202 62.2646 33.1991 62.6337 32.9125 62.9489C32.6259 63.264 32.2796 63.5189 31.8937 63.6986L31.6858 63.7617C31.66 63.7738 31.6377 63.7922 31.6209 63.8151C31.604 63.8381 31.5932 63.865 31.5894 63.8932C31.5831 63.9178 31.5846 63.9438 31.5938 63.9675C31.603 63.9912 31.6194 64.0115 31.6406 64.0253L31.8115 64.178C32.119 64.4685 32.3635 64.8193 32.5299 65.2085C32.6962 65.5978 32.7808 66.0172 32.7784 66.4407L32.7473 67.9156C32.7473 67.9504 32.7596 67.9841 32.7822 68.0106C32.8047 68.0371 32.836 68.0546 32.8704 68.06C32.9021 68.0654 32.9347 68.058 32.961 68.0394C32.9873 68.0208 33.0051 67.9925 33.0105 67.9607L33.4723 66.5596C33.611 66.1594 33.8304 65.7921 34.1169 65.4805C34.4033 65.1688 34.7507 64.9194 35.1374 64.7479L35.3493 64.6608C35.374 64.6548 35.3962 64.6412 35.4127 64.6219C35.4293 64.6026 35.4394 64.5786 35.4416 64.5533C35.4474 64.5254 35.4462 64.4965 35.4379 64.4692C35.4297 64.4419 35.4148 64.4172 35.3945 64.3972L35.2195 64.2685Z" fill="#D43B8C"/>
<path d="M18.4934 100.505L22.1542 101.132L21.4273 105.375L17.7665 104.747L18.4934 100.505ZM22.8629 105.621L26.4998 106.244L27.9537 97.7595L24.3168 97.1363L22.8629 105.621ZM30.1401 93.7674L27.9594 106.494L31.5963 107.117L33.777 94.3906L30.1401 93.7674Z" fill="#40DF80"/>
</g>
<g clip-path="url(#clip1_463_17165)">
<path d="M243.341 130.454L248.224 225.646C248.317 227.469 247.684 229.255 246.463 230.61C245.243 231.965 243.535 232.779 241.715 232.872L61.4869 242.116C59.6673 242.209 57.885 241.575 56.5322 240.351C55.1794 239.128 54.3669 237.417 54.2734 235.594L49.3909 140.402C49.2974 138.579 49.9306 136.794 51.1511 135.439C52.3717 134.083 54.0797 133.27 55.8993 133.176L236.128 123.932C237.947 123.839 239.729 124.474 241.082 125.697C242.435 126.92 243.248 128.631 243.341 130.454Z" fill="#8CD9FF"/>
<path d="M133.303 212.009L125.514 238.832L114.071 239.419C105.531 235.473 97.1287 228.988 90.5684 221.458C89.3032 220.013 88.1082 218.516 87.009 216.989C85.4542 214.925 84.6701 212.38 84.7927 209.797C85.1264 202.084 93.1541 195.097 100.176 197.878C101.415 198.373 102.543 199.11 103.496 200.046C105.01 201.622 106.696 203.022 108.523 204.22C110.947 205.798 113.56 207.063 116.3 207.986L117.685 208.451C121.885 209.769 126.375 210.586 131.091 211.538C131.827 211.679 132.564 211.836 133.303 212.009Z" fill="#FFD997"/>
<path d="M104.858 196.737C101.571 192.838 98.6482 187.046 92.6267 189.547C88.524 191.072 84.9972 194.346 81.5579 196.958C78.9846 198.916 76.0259 201.893 76.4427 205.281C77.1631 209.847 82.9327 217.125 86.7187 219.853C92.7789 224.267 103.719 220.029 107.692 212.665C110.364 207.414 108.169 200.634 104.858 196.737Z" fill="#FFF2A6"/>
<path d="M82.2371 158.541C83.2804 159.925 82.6508 161.394 83.4114 164.375C84.172 167.356 87.8636 176.299 90.1386 180.371C92.4136 184.443 94.9298 188.479 97.5598 192.362C100.979 197.423 101.331 200.498 97.9179 205.032C95.4821 208.25 89.7763 211.221 85.932 210.201C82.0877 209.18 80.4574 205.83 76.967 200.335C67.205 184.884 63.9959 171.605 64.468 162.327C64.651 158.786 66.0088 154.454 69.151 152.686C72.2932 150.917 75.6172 151.745 77.268 155.022C77.7275 155.923 78.0497 157.466 79.0561 157.657C79.4987 157.757 81.0155 156.997 82.2371 158.541Z" fill="url(#paint5_linear_463_17165)"/>
<path d="M187.192 211.047L188.451 235.604L119.381 239.147C120.483 229.349 122.804 219.634 127.423 211.58L131.091 211.538L180.802 211.107L180.826 211.106L184.859 211.069L187.192 211.047Z" fill="#423D80"/>
<path d="M205.204 234.745L178.633 236.107C178.305 235.394 177.976 234.68 177.673 233.989C173.879 225.417 171.57 216.402 179.163 211.848C179.675 211.53 180.226 211.281 180.802 211.107L180.827 211.106C182.138 210.694 183.541 210.681 184.86 211.069C185.692 211.29 186.493 211.617 187.243 212.043C192.972 215.207 199.087 224.002 205.204 234.745Z" fill="#FFD997"/>
<path d="M164.507 212.819L154.728 223.574L145.616 233.588C143.51 230.457 142.088 226.414 141.119 222.689C140.216 219.228 139.589 215.702 139.241 212.143L164.507 212.819Z" fill="#FFD997"/>
<path d="M139.241 212.143L164.507 212.819L154.728 223.574C149.703 224.66 144.872 224.298 141.119 222.689C140.216 219.228 139.589 215.702 139.241 212.143Z" fill="url(#paint6_linear_463_17165)"/>
<path d="M173.932 207.977C173.932 207.977 173.757 208.351 173.425 208.977L173.374 207.981L173.932 207.977Z" fill="url(#paint7_linear_463_17165)"/>
<path d="M113.87 226.96C113.688 226.965 113.508 226.931 113.34 226.86C113.173 226.788 113.023 226.682 112.901 226.547C112.698 226.3 112.599 225.984 112.623 225.665C112.647 225.346 112.794 225.049 113.032 224.836C118.409 220.2 116.306 211.906 115.55 209.485C115.478 209.329 115.44 209.158 115.439 208.986C115.437 208.813 115.472 208.642 115.542 208.484C115.612 208.326 115.714 208.185 115.842 208.07C115.971 207.955 116.122 207.868 116.287 207.816C116.451 207.764 116.624 207.748 116.795 207.768C116.967 207.789 117.131 207.845 117.279 207.934C117.427 208.024 117.553 208.143 117.651 208.285C117.749 208.427 117.816 208.589 117.847 208.759C118.718 211.539 121.103 221.061 114.608 226.654C114.402 226.835 114.143 226.943 113.87 226.96Z" fill="#FFC257"/>
<path d="M157.111 149.684L136.586 155.656C136.586 155.656 135.259 152.534 133.57 148.042C131.602 142.834 129.098 135.73 127.49 129.504L148.292 128.437C150.924 133.782 154.003 141.222 156.801 148.848C156.813 148.89 156.831 148.93 156.856 148.967C156.915 149.115 156.963 149.267 157.001 149.422C157.054 149.517 157.058 149.59 157.111 149.684Z" fill="#FF78B9"/>
<path d="M150.609 150.846L142.348 152.341C141.803 151.2 141.198 149.819 140.536 148.294C138.126 142.548 135.169 134.639 133.455 129.199L141.528 128.785C144.259 134.636 147.468 142.215 149.813 148.598C150.096 149.387 150.377 150.127 150.609 150.846Z" fill="#FFAED7"/>
<path d="M187.276 126.438C185.302 133.919 181.763 143.598 179.471 149.609C178.165 153.061 177.235 155.301 177.235 155.301L157.001 149.422L156.705 149.34L156.856 148.967C156.854 148.918 156.877 148.893 156.898 148.843C159.819 140.851 163.062 132.989 165.796 127.54L187.276 126.438Z" fill="#FF78B9"/>
<path d="M181.167 126.751C179.202 132.989 175.327 143.222 172.653 149.374C172.25 150.369 171.857 151.242 171.474 151.992L163.207 150.516C163.353 150.046 163.523 149.575 163.692 149.079C166.25 142.08 169.913 133.393 172.875 127.177L181.167 126.751Z" fill="#FFAED7"/>
<path d="M191.71 181.128C194.078 179.649 196.057 177.623 197.481 175.219C198.906 172.816 199.735 170.105 199.898 167.314C200.036 165.105 199.73 162.89 198.998 160.802C198.265 158.714 197.121 156.795 195.633 155.158C194.146 153.521 192.345 152.201 190.338 151.275C188.332 150.349 186.16 149.837 183.952 149.769L129.675 147.926C120.788 147.627 112.985 154.724 112.187 163.824C111.699 169.475 114.029 174.616 117.984 177.798C111.4 180.231 106.422 186.477 105.763 194.012C104.87 204.091 112.023 212.759 121.774 213.306L182.48 216.817C192.744 217.411 201.568 209.36 202.151 198.931C202.376 195.26 201.503 191.605 199.643 188.433C197.782 185.262 195.02 182.718 191.71 181.128Z" fill="#FF78B9"/>
<path d="M168.379 176.372C169.82 174.17 170.025 171.753 168.837 170.972C167.648 170.191 165.517 171.342 164.075 173.543C162.634 175.744 162.429 178.162 163.618 178.943C164.806 179.724 166.938 178.573 168.379 176.372Z" fill="black"/>
<path d="M143.031 178.418C144.355 177.9 144.652 175.492 143.696 173.04C142.74 170.587 140.891 169.019 139.568 169.537C138.244 170.055 137.946 172.463 138.902 174.915C139.859 177.368 141.707 178.936 143.031 178.418Z" fill="black"/>
<path d="M160.599 189.713C159.971 191.207 158.69 192.782 156.955 194.016C154.728 195.616 152.327 196.202 150.675 195.751C149.425 195.547 147.974 194.745 146.693 193.471C146.41 193.169 146.152 192.865 145.892 192.538C143.71 189.8 142.675 186.687 144.535 185.033C146.395 183.379 148.409 185.224 150.099 186.404C150.605 186.764 151.199 186.98 151.817 187.03C152.436 187.079 153.056 186.961 153.613 186.687C155.702 185.703 158.691 184.259 160.461 186.067C161.165 187.005 161.161 188.345 160.599 189.713Z" fill="#9E0960"/>
<path d="M150.675 195.751C149.425 195.547 147.974 194.745 146.693 193.471C148.313 190.928 151.769 189.119 155.823 189.009C157.444 188.951 159.063 189.19 160.599 189.714C159.97 191.207 158.69 192.783 156.955 194.016C154.727 195.616 152.327 196.202 150.675 195.751Z" fill="#EB459F"/>
<g opacity="0.4">
<path opacity="0.4" d="M227.153 225.728C234.972 225.327 240.985 218.651 240.584 210.817C240.182 202.983 233.517 196.957 225.698 197.358C217.878 197.759 211.865 204.435 212.267 212.269C212.669 220.103 219.333 226.129 227.153 225.728Z" fill="black"/>
</g>
</g>
<g clip-path="url(#clip2_463_17165)">
<path d="M205.805 258.823L193.461 353.337C193.225 355.147 192.28 356.789 190.836 357.902C189.391 359.015 187.564 359.508 185.758 359.272L6.81223 335.901C5.00554 335.665 3.36676 334.719 2.2564 333.272C1.14605 331.826 0.655077 329.996 0.891493 328.186L13.2358 233.672C13.4722 231.862 14.4166 230.219 15.8613 229.106C17.306 227.993 19.1327 227.5 20.9393 227.736L199.885 251.108C201.691 251.344 203.33 252.289 204.441 253.736C205.551 255.183 206.042 257.013 205.805 258.823Z" fill="#808AFF"/>
<path d="M141.852 353.538L45.4705 340.95C54.0932 327.04 61.7063 322.172 72.3222 319.806L74.3298 319.43C75.5325 319.219 76.8555 319.024 78.2957 318.869C81.2515 318.544 84.6343 318.323 88.2725 318.21L91.561 318.149L91.5851 318.152C100.95 318.051 111.54 318.698 120.48 320.356C122.248 320.685 123.938 321.053 125.55 321.46L127.297 321.958C140.742 326.044 143.137 335.825 141.852 353.538Z" fill="#F5F4CB"/>
<path d="M65.9025 340.282C64.6876 339.838 63.6587 338.995 62.9834 337.89C62.3778 336.903 62.0716 335.686 61.9895 334.252C61.9397 332.663 62.1388 331.075 62.5797 329.547C62.6312 329.397 62.6524 329.239 62.6422 329.081C62.632 328.923 62.5905 328.769 62.5201 328.627C62.4497 328.485 62.3519 328.359 62.2323 328.256C62.1127 328.152 61.9738 328.074 61.8236 328.025C61.5218 327.928 61.1939 327.953 60.9101 328.094C60.6262 328.236 60.4089 328.483 60.3046 328.783C59.33 331.747 58.7835 337.243 62.0434 340.588C62.8869 341.439 63.9027 342.098 65.0224 342.522L65.3049 342.608C65.572 342.64 65.8422 342.582 66.073 342.444C66.3038 342.305 66.4822 342.094 66.58 341.843C66.6394 341.696 66.669 341.538 66.667 341.38C66.665 341.222 66.6314 341.065 66.5683 340.92C66.5052 340.775 66.4139 340.643 66.2995 340.534C66.1852 340.424 66.0502 340.339 65.9025 340.282ZM129.765 333.612C129.612 333.568 129.451 333.554 129.293 333.572C129.134 333.59 128.98 333.639 128.841 333.716C128.701 333.794 128.578 333.898 128.478 334.023C128.379 334.148 128.305 334.292 128.261 334.446C128.252 334.518 126.427 340.804 120.739 344.428C119.615 345.139 118.406 345.707 117.14 346.116C116.879 346.203 116.655 346.376 116.505 346.608C116.355 346.839 116.288 347.114 116.315 347.389C116.342 347.663 116.461 347.92 116.652 348.118C116.844 348.315 117.097 348.442 117.37 348.476C117.546 348.493 117.723 348.475 117.892 348.422C118.774 348.14 119.631 347.785 120.454 347.358C128.155 343.507 130.477 335.471 130.6 335.095C130.682 334.787 130.641 334.46 130.485 334.183C130.329 333.905 130.071 333.701 129.765 333.612Z" fill="#FFCA5F"/>
<path d="M120.454 347.358C120.357 348.474 120.285 349.593 120.236 350.715L61.3338 343.022C61.5581 342.242 61.7856 341.437 62.0434 340.588C62.3012 339.739 62.6438 338.802 62.9833 337.89C65.3357 331.501 69.2112 324.134 74.3302 319.43C75.5328 319.22 76.8558 319.024 78.2961 318.869C81.2519 318.544 84.6347 318.323 88.2728 318.21L91.5614 318.149L91.5854 318.152C100.951 318.051 111.54 318.698 120.48 320.356C122.249 320.685 123.939 321.053 125.55 321.46L127.297 321.958C124.354 325.743 121.829 334.391 120.739 344.428C120.613 345.392 120.532 346.387 120.454 347.358Z" fill="#B6C7F5"/>
<path d="M120.829 323.492C119.955 326.248 116.369 328.208 112.852 327.773C112.474 327.724 112.099 327.651 111.73 327.553C112.326 328.107 112.743 328.827 112.927 329.62C113.111 330.413 113.055 331.244 112.764 332.005C111.708 335.031 107.884 337.131 104.273 336.66C102.11 336.353 100.569 335.219 99.9602 333.693C99.9116 334.175 99.7922 334.647 99.6058 335.094C98.3685 338.194 94.3663 340.345 90.7829 339.853C87.1994 339.36 85.5239 336.443 86.9475 333.416C87.1425 333.026 87.3714 332.653 87.6315 332.303C85.903 333.353 83.798 333.912 81.8483 333.657C78.4333 333.187 76.9283 330.464 78.4471 327.645C79.2934 326.039 80.9571 324.735 82.813 324.021C82.4391 324.029 82.065 324.013 81.6932 323.973C78.5848 323.592 77.1435 321.318 78.2958 318.869C81.2516 318.544 84.6344 318.323 88.2726 318.21L91.5611 318.149L91.5852 318.152C100.95 318.051 111.54 318.698 120.48 320.356C120.769 320.819 120.95 321.341 121.01 321.884C121.071 322.427 121.009 322.976 120.829 323.492Z" fill="#5865F2"/>
<path d="M110.46 322.089C108.115 328.233 101.526 332.009 95.4122 331.21C87.8298 330.22 85.5577 322.123 88.2722 318.21L91.5608 318.149L91.5848 318.152L110.46 322.089Z" fill="#0EC2BC"/>
<path d="M146.348 292.682C142.441 316.405 115.465 327.82 88.6192 322.302C61.7733 316.785 52.1008 292.808 56.7364 277.372C62.5386 258.066 84.9312 255.692 110.516 260.555C134.549 265.116 149.269 274.814 146.348 292.682Z" fill="url(#paint8_linear_463_17165)"/>
<path d="M134.951 270.663L111.386 262.704C114.674 249.717 122.478 247.13 127.548 248.994C132.172 250.702 137.207 259.577 134.951 270.663Z" fill="#34F4CF"/>
<path d="M103.241 261.15L78.1903 259.693C79.9771 249.011 85.6699 243.476 91.4023 243.636C97.1346 243.796 102.527 251.245 103.241 261.15Z" fill="#34F4CF"/>
<path d="M119.098 321.181C109.865 324.022 99.2266 324.497 88.6189 322.302C82.5374 321.066 77.3408 318.867 72.988 316.017C59.9719 301.145 66.0285 284.203 72.4733 279.844L93.4663 285.75L123.762 285.66C118.22 296.415 116.67 312.966 119.098 321.181Z" fill="#ADFDDC"/>
<path opacity="0.5" d="M99.2447 302.056C100.276 304.472 96.698 307.684 91.5101 307.104C86.3222 306.525 82.4365 300.474 82.6077 298.976C82.7789 297.477 86.1219 299.999 91.3129 300.554C96.504 301.109 98.4574 300.212 99.2447 302.056Z" fill="#34F4CF"/>
<path d="M90.1167 251.979C86.6336 251.843 83.4872 254.94 84.1553 256.572C84.8234 258.205 86.9883 257.187 90.2528 257.123C93.5172 257.059 95.4814 257.953 95.9635 256.324C96.4456 254.694 93.6239 252.118 90.1167 251.979Z" fill="black"/>
<path d="M124.506 257.476C128.224 258.624 130.14 262.137 129.054 263.516C127.968 264.894 126.161 263.358 123.023 262.458C119.884 261.557 117.895 261.42 117.737 260.002C117.519 258.109 121.139 256.448 124.506 257.476Z" fill="black"/>
<path d="M123.583 280.658C120.282 283.704 116.625 286.34 112.692 288.507C106.705 291.797 98.872 294.6 90.7769 293.224C87.206 292.635 84.4099 291.362 82.2451 289.755C74.1226 283.715 74.7729 272.737 74.7729 272.737C74.7729 272.737 84.2079 276.226 92.8085 277.668C101.409 279.111 123.583 280.658 123.583 280.658Z" fill="#9E0960"/>
<path d="M112.692 288.507C106.705 291.797 98.8723 294.6 90.7772 293.224C87.2063 292.635 84.4103 291.362 82.2455 289.755C88.7459 285.158 101.572 283.302 112.692 288.507Z" fill="#FF78B9"/>
<path d="M125.826 294.416C121.792 295.312 117.561 291.718 116.348 286.384C115.135 281.05 117.407 276.025 121.417 275.126C125.427 274.227 129.682 277.824 130.895 283.158C132.108 288.492 129.836 293.518 125.826 294.416ZM77.0451 267.711C73.5681 265.467 68.33 267.334 65.3347 271.897C62.3395 276.461 62.6689 281.998 66.1219 284.239C69.5749 286.481 74.8161 284.59 77.8354 280.03C80.8548 275.469 80.498 269.953 77.0451 267.711Z" fill="#5865F2"/>
<g opacity="0.4">
<path opacity="0.4" d="M172.711 349.694C180.475 350.708 187.592 345.225 188.608 337.446C189.624 329.668 184.154 322.54 176.39 321.526C168.626 320.512 161.509 325.996 160.493 333.774C159.477 341.553 164.947 348.68 172.711 349.694Z" fill="black"/>
</g>
<path d="M169.721 336.598C169.421 335.813 169.322 334.966 169.431 334.132L170.899 334.324C170.835 334.769 170.859 335.222 170.97 335.658L169.721 336.598ZM175.187 335.988L176.874 334.687L181.23 331.332L180.33 330.16L167.182 340.29L168.082 341.462L171.43 338.882L172.601 337.98L175.187 335.988ZM178.31 335.317C178.176 336.292 177.664 337.176 176.885 337.777C176.105 338.377 175.121 338.646 174.145 338.525L172.703 339.637L173.216 339.827L172.823 342.841L174.267 343.03L174.661 340.015C175.915 340.002 177.123 339.537 178.063 338.705C179.004 337.873 179.614 336.73 179.782 335.484L178.313 335.292L178.31 335.317ZM175.46 328.273C174.87 328.196 174.274 328.355 173.801 328.715C173.327 329.076 173.015 329.609 172.932 330.199L172.361 334.564L177.397 330.684C177.447 330.109 177.273 329.538 176.912 329.088C176.551 328.639 176.031 328.347 175.46 328.273Z" fill="white"/>
</g>
<g clip-path="url(#clip3_463_17165)">
<path d="M209.808 330.704L35.0279 375.643C31.3532 376.588 29.1416 380.338 30.0883 384.02L53.8231 476.332C54.7697 480.013 58.516 482.232 62.1907 481.287L236.971 436.348C240.646 435.403 242.857 431.653 241.911 427.971L218.176 335.659C217.229 331.978 213.483 329.759 209.808 330.704Z" fill="#34F4CF"/>
<path d="M109.948 454.219C105.275 455.444 100.707 457.039 96.2858 458.987C84.0591 464.467 77.0316 471.547 73.8292 478.297L115.185 467.664L109.948 454.219ZM190.995 433.983C187.702 434.451 184.436 435.09 181.21 435.896L183.108 450.2L224.464 439.566C217.728 434.719 206.719 431.773 190.995 433.983Z" fill="#FFF2B0"/>
<path d="M192.678 447.74L100.162 471.527C98.212 467.257 96.7146 462.896 96.2863 458.988C95.6004 452.811 97.519 447.697 104.318 445.773C101.036 436.32 101.769 430.105 109.823 425.749L171.354 414.524C178.406 414.946 183.014 417.076 182.621 428.126C187.173 428.085 189.635 429.863 190.996 433.983C192.054 437.127 192.463 441.642 192.678 447.74Z" fill="#EE65AE"/>
<path d="M185.555 428.426C184.022 433.868 181.278 440.45 176.491 443.865C176.367 443.946 176.23 444.007 176.086 444.045C175.851 444.109 175.601 444.098 175.372 444.013C175.143 443.927 174.947 443.772 174.811 443.569C174.718 443.44 174.651 443.293 174.616 443.138C174.58 442.983 174.576 442.822 174.603 442.665C174.63 442.508 174.689 442.358 174.775 442.225C174.861 442.091 174.974 441.976 175.105 441.886C179.218 438.97 181.696 433.11 183.121 428.123C183.941 428.136 184.757 428.238 185.555 428.426ZM120.607 460.092C112.015 458.359 106.503 450.082 104.176 445.809C103.398 446.029 102.643 446.324 101.922 446.69C102.96 448.641 104.145 450.511 105.465 452.283C109.68 457.854 114.769 461.367 120.135 462.449C120.316 462.494 120.505 462.488 120.683 462.433C120.901 462.379 121.098 462.263 121.252 462.099C121.405 461.935 121.508 461.729 121.548 461.508C121.58 461.353 121.581 461.193 121.551 461.038C121.522 460.883 121.461 460.735 121.374 460.603C121.286 460.471 121.173 460.358 121.042 460.27C120.91 460.183 120.762 460.122 120.607 460.092Z" fill="#D11583"/>
<path d="M167.702 425.959C168.951 437.642 155.19 448.363 143.159 450.024C130.376 451.779 116.416 444.57 116.733 432.836L167.702 425.959Z" fill="#0049B2"/>
<path d="M149.891 368.384C147.426 369.189 144.787 369.298 142.263 368.701C139.739 368.103 137.427 366.821 135.58 364.996C133.734 363.17 132.424 360.871 131.795 358.351C131.165 355.831 131.24 353.186 132.011 350.707L155.31 344.716C157.066 346.415 158.353 348.539 159.048 350.882C159.743 353.225 159.822 355.708 159.277 358.09C158.731 360.471 157.581 362.671 155.936 364.474C154.291 366.278 152.209 367.625 149.891 368.384Z" fill="#242145"/>
<path d="M159.171 358.565C158.526 360.988 157.252 363.195 155.478 364.964C153.695 363.253 151.603 361.899 149.314 360.974C146.095 359.667 139.197 359.356 132.683 360.83C132.456 360.336 132.246 359.812 132.066 359.306C131.48 357.497 131.262 355.589 131.425 353.695C138.851 352.062 147.043 352.241 152.028 354.274C154.615 355.327 157.025 356.774 159.171 358.565Z" fill="#423D80"/>
<path d="M117.057 393.25C103.644 375.202 98.7675 371.835 97.6593 372.497C95.5657 373.713 96.8421 387.549 109.63 405.406L117.057 393.25Z" fill="#245EED"/>
<path d="M112.231 388.615C112.706 375.158 113.575 368.204 119.972 362.767C128.096 355.857 144.018 354.902 150.662 357.639C159.905 361.415 165.017 369.895 165.862 381.757C166.635 392.758 173.117 395.838 175.105 408.737C177.673 425.455 161.873 441.797 139.176 443.791C124.028 445.124 113.096 437.312 107.507 428.051C103.074 420.753 102.937 412.325 105.196 406.195C108.384 397.54 111.939 396.45 112.231 388.615Z" fill="url(#paint9_linear_463_17165)"/>
<path d="M162.537 388.814C172.528 368.692 176.871 364.235 177.936 364.965C179.487 366.023 181.001 380.978 171.651 399.404L162.537 388.814Z" fill="#4C7DFF"/>
<path d="M165.861 381.757L166.232 385.93L166.096 385.89C162.791 384.831 157.245 376.714 153.535 362.576L153.438 362.199C148.747 364.133 140.383 365.53 135.399 365.933C129.531 366.412 122.799 366.159 119.725 364.538L119.591 366.356C118.684 376.283 115.617 385.409 112.188 389.329L112.23 388.615C112.671 376.196 113.368 368.961 118.511 363.62C118.925 363.183 119.363 362.768 119.822 362.379L119.904 362.308C128.01 355.427 144.017 354.902 150.661 357.639C151.329 357.894 151.955 358.185 152.587 358.5C153.824 359.134 154.998 359.883 156.095 360.737C161.922 365.266 165.206 372.483 165.861 381.757Z" fill="#242145"/>
<path d="M161.245 416.544C160.871 417.779 160.33 418.957 159.639 420.046L159.033 420.905C154.519 427.038 145.667 430.143 140.16 430.855C136.841 431.282 133.471 431.075 130.228 430.245C126.352 429.207 122.904 427.206 120.37 424.367C119.105 422.932 118.07 421.308 117.303 419.555C116.112 416.873 115.706 412.758 118.09 410.136C119.796 408.291 122.689 407.748 124.675 407.966C125.063 408.02 125.446 408.106 125.819 408.224C129.544 409.552 132.781 411.708 138.417 411.012C143.083 410.441 146.55 409.499 150.032 407.248C151.092 406.542 152.26 406.013 153.489 405.681C155.581 405.143 157.773 405.282 159.457 406.858C161.905 409.167 162.356 412.969 161.245 416.544Z" fill="#D11583"/>
<path d="M161.245 416.544C160.871 417.779 160.33 418.957 159.639 420.046L159.033 420.905C154.519 427.038 145.667 430.143 140.16 430.855C136.841 431.282 133.471 431.075 130.228 430.245C130.998 428.616 132.016 427.117 133.246 425.802C135.654 423.174 139.157 420.616 143.525 418.79C146.807 417.419 149.751 416.586 152.357 416.193C154.006 415.928 155.679 415.835 157.348 415.914C158.667 415.974 159.974 416.185 161.245 416.544Z" fill="#EE65AE"/>
<path d="M150.032 407.248C146.551 409.499 143.083 410.441 138.418 411.012C132.781 411.708 129.545 409.552 125.82 408.224C125.446 408.106 125.064 408.02 124.676 407.966C125.057 409.207 125.653 410.371 126.437 411.406C128.816 414.712 134.187 416.395 138.102 416.317C142.635 416.206 149.24 413.328 151.329 410.731C152.497 409.278 153.244 407.531 153.489 405.681C152.26 406.013 151.093 406.542 150.032 407.248ZM157.349 415.914C156.889 415.08 156.365 414.282 155.783 413.529C153.953 411.187 152.594 412.239 152.494 414.776L152.357 416.193L151.876 421.339C148.83 421.971 143.53 425.243 138.266 426.019C136.596 426.287 134.888 426.214 133.247 425.802C130.917 425.221 129.325 424.099 127.504 423.939L125.299 417.7C124.598 415.269 123.039 414.565 121.827 417.262C120.816 419.491 120.318 421.919 120.37 424.367C122.905 427.206 126.352 429.207 130.228 430.245C133.472 431.075 136.842 431.282 140.161 430.855C145.667 430.143 154.519 427.038 159.033 420.905C159.013 420.629 158.968 420.354 158.898 420.086C158.574 418.631 158.053 417.227 157.349 415.914Z" fill="white"/>
<path d="M169.013 405.808C169.059 405.96 169.074 406.12 169.057 406.277C169.04 406.435 168.993 406.588 168.916 406.727C168.84 406.866 168.737 406.988 168.612 407.086C168.488 407.185 168.346 407.257 168.193 407.3L168.17 407.306C167.866 407.384 167.544 407.342 167.27 407.187C166.997 407.033 166.794 406.778 166.703 406.477C165.562 402.527 162.016 399.847 158.491 400.176C158.175 400.208 157.859 400.114 157.611 399.915C157.363 399.715 157.203 399.427 157.164 399.111C157.138 398.791 157.236 398.473 157.438 398.224C157.641 397.975 157.932 397.815 158.25 397.777C162.993 397.311 167.522 400.692 169.013 405.808ZM115.763 402.548C112.21 403.839 108.646 407.819 108.784 412.253C108.788 412.414 108.824 412.572 108.89 412.719C108.956 412.865 109.049 412.997 109.166 413.107C109.283 413.217 109.421 413.303 109.571 413.36C109.721 413.416 109.881 413.443 110.041 413.437L110.299 413.371C110.564 413.303 110.798 413.145 110.96 412.925C111.123 412.705 111.204 412.435 111.192 412.162C111.068 408.854 113.908 405.763 116.592 404.796C116.891 404.682 117.132 404.453 117.264 404.161C117.395 403.868 117.406 403.535 117.293 403.235C117.24 403.088 117.158 402.953 117.051 402.838C116.945 402.723 116.816 402.631 116.673 402.567C116.531 402.503 116.376 402.468 116.22 402.465C116.064 402.462 115.908 402.49 115.763 402.548Z" fill="#0049B2"/>
<path d="M127.595 393.78C127.523 392.719 131.655 388.417 137.14 388.011C142.626 387.605 147.356 391.186 147.434 392.27C147.513 393.355 142.912 391.449 137.427 391.855C131.942 392.261 127.691 394.835 127.595 393.78Z" fill="black"/>
<path d="M128.553 381.907C128.804 384.052 131.96 381.608 136.184 381.075C140.409 380.541 144.059 382.164 143.785 380.025C143.511 377.885 139.617 374.441 135.417 374.969C131.216 375.497 128.285 379.791 128.553 381.907Z" fill="#242145"/>
<path d="M177.803 394.959C177.833 395.409 177.694 395.853 177.413 396.204C177.132 396.555 176.73 396.788 176.286 396.856C175.562 396.967 175.277 396.538 174.874 396.24C174.471 395.942 174.133 395.602 173.748 395.274C173.002 394.614 172.301 393.905 171.649 393.152C171.545 393.028 171.467 392.886 171.419 392.732C171.371 392.578 171.353 392.417 171.368 392.256C171.383 392.096 171.429 391.94 171.505 391.798C171.58 391.656 171.683 391.53 171.807 391.428C171.991 391.277 172.214 391.181 172.451 391.151C172.687 391.122 172.927 391.16 173.143 391.261C174.031 391.727 174.887 392.253 175.704 392.837C176.106 393.136 176.503 393.41 176.882 393.715C177.261 394.019 177.739 394.222 177.803 394.959ZM105.569 394.974C104.708 395.467 103.889 396.031 103.12 396.658L101.978 397.579C101.615 397.924 101.14 398.121 101.133 398.876C101.128 399.318 101.285 399.745 101.574 400.078C101.863 400.411 102.264 400.627 102.701 400.683C103.426 400.773 103.711 400.323 104.08 400.002L105.174 398.993C105.888 398.302 106.551 397.56 107.16 396.774C107.305 396.583 107.39 396.352 107.404 396.111C107.418 395.87 107.361 395.631 107.239 395.423C107.162 395.281 107.056 395.155 106.929 395.055C106.802 394.954 106.656 394.881 106.5 394.838C106.344 394.796 106.181 394.787 106.021 394.81C105.86 394.833 105.707 394.889 105.569 394.974Z" fill="#FFE75C"/>
</g>
<defs>
<linearGradient id="paint0_linear_463_17165" x1="130.332" y1="15.5493" x2="122.561" y2="60.8995" gradientUnits="userSpaceOnUse">
<stop stop-color="#D18D5E"/>
<stop offset="0.31" stop-color="#CE8A5C"/>
<stop offset="0.56" stop-color="#C68057"/>
<stop offset="0.78" stop-color="#B8704D"/>
<stop offset="0.93" stop-color="#AA5F44"/>
</linearGradient>
<linearGradient id="paint1_linear_463_17165" x1="118.584" y1="84.1068" x2="127.828" y2="30.1597" gradientUnits="userSpaceOnUse">
<stop offset="0.36" stop-color="#D18D5E"/>
<stop offset="0.5" stop-color="#CC875A"/>
<stop offset="0.69" stop-color="#BC7450"/>
<stop offset="0.85" stop-color="#AA5F44"/>
</linearGradient>
<linearGradient id="paint2_linear_463_17165" x1="176.692" y1="116.736" x2="172.609" y2="140.562" gradientUnits="userSpaceOnUse">
<stop stop-color="#D18D5E"/>
<stop offset="0.48" stop-color="#C07953"/>
<stop offset="1" stop-color="#AA5F44"/>
</linearGradient>
<linearGradient id="paint3_linear_463_17165" x1="924.604" y1="8030.9" x2="578.803" y2="10048.9" gradientUnits="userSpaceOnUse">
<stop stop-color="#D18D5E"/>
<stop offset="0.48" stop-color="#C07953"/>
<stop offset="1" stop-color="#AA5F44"/>
</linearGradient>
<linearGradient id="paint4_linear_463_17165" x1="117.714" y1="89.1852" x2="110.149" y2="133.332" gradientUnits="userSpaceOnUse">
<stop stop-color="#3F99F2"/>
<stop offset="0.25" stop-color="#2F88E9"/>
<stop offset="0.53" stop-color="#247BE2"/>
<stop offset="0.8" stop-color="#2077E0"/>
</linearGradient>
<linearGradient id="paint5_linear_463_17165" x1="90.1638" y1="208.019" x2="71.4868" y2="152.864" gradientUnits="userSpaceOnUse">
<stop stop-color="#EB459F"/>
<stop offset="0.23" stop-color="#F154A7"/>
<stop offset="0.71" stop-color="#FB6EB4"/>
<stop offset="1" stop-color="#FF78B9"/>
</linearGradient>
<linearGradient id="paint6_linear_463_17165" x1="152.637" y1="227.363" x2="151.555" y2="206.26" gradientUnits="userSpaceOnUse">
<stop stop-color="#EB459F"/>
<stop offset="0.42" stop-color="#F45CAB"/>
<stop offset="1" stop-color="#FF78B9"/>
</linearGradient>
<linearGradient id="paint7_linear_463_17165" x1="467.679" y1="529.451" x2="467.326" y2="522.569" gradientUnits="userSpaceOnUse">
<stop stop-color="#EB459F"/>
<stop offset="0.42" stop-color="#F45CAB"/>
<stop offset="1" stop-color="#FF78B9"/>
</linearGradient>
<linearGradient id="paint8_linear_463_17165" x1="106.024" y1="261.338" x2="94.2551" y2="322.753" gradientUnits="userSpaceOnUse">
<stop offset="0.13" stop-color="#34F4CF"/>
<stop offset="0.68" stop-color="#19D1C2"/>
<stop offset="1" stop-color="#0EC2BC"/>
</linearGradient>
<linearGradient id="paint9_linear_463_17165" x1="137.32" y1="359.512" x2="142.656" y2="490.169" gradientUnits="userSpaceOnUse">
<stop offset="0.34" stop-color="#4C7DFF"/>
<stop offset="0.99" stop-color="#3464F0"/>
</linearGradient>
<clipPath id="clip0_463_17165">
<rect width="194.205" height="109.083" fill="white" transform="translate(32.0452) rotate(9.72353)"/>
</clipPath>
<clipPath id="clip1_463_17165">
<rect width="194.205" height="109.083" fill="white" transform="translate(49.0383 133.528) rotate(-2.93618)"/>
</clipPath>
<clipPath id="clip2_463_17165">
<rect width="194.205" height="109.083" fill="white" transform="translate(14.1272 226.847) rotate(7.44117)"/>
</clipPath>
<clipPath id="clip3_463_17165">
<rect width="194.205" height="109.083" fill="white" transform="translate(28.3743 377.354) rotate(-14.4193)"/>
</clipPath>
</defs>
</svg>
