<svg xmlns="http://www.w3.org/2000/svg" xmlns:xlink="http://www.w3.org/1999/xlink" width="120" height="74" viewBox="0 0 120 74">
  <defs>
    <polygon id="a" points="11.75 .965 11.75 2.965 .621 2.965 .621 .965 11.75 .965"/>
    <polygon id="c" points="56.327 73 0 73 0 .863 112.654 .863 112.654 73 56.327 73"/>
    <polygon id="e" points="0 73 118.75 73 118.75 .863 0 .863"/>
  </defs>
  <g fill="none" fill-rule="evenodd">
    <g transform="translate(1)">
      <polygon fill="#B9BBBE" points="36.217 33.305 43.929 33.305 43.929 32.142 36.217 32.142"/>
      <g transform="translate(0 .137)">
        <path fill="#72767D" d="M50.795,27.955 L47.316,33.168 L48.689,33.168 C52.062,30.994 56.072,29.726 60.376,29.726 C64.68,29.726 68.69,30.994 72.064,33.168 L73.436,33.168 L69.957,27.955 L50.795,27.955 Z"/>
        <path fill="#36393F" d="M91.6837,51.7568 L82.0027,51.7568 C81.9807,52.9708 81.8587,54.1608 81.6437,55.3198 L91.6837,55.3198 L91.6837,51.7568 Z"/>
        <path fill="#72767D" d="M91.6837 57.3193L81.1717 57.3193C79.9627 61.5323 77.5097 65.2243 74.2327 67.9653L91.6837 67.9653 91.6837 57.3193zM29.0685 42.247L29.0685 49.757 38.8035 49.757C39.0015 47.091 39.6795 44.559 40.7585 42.247L29.0685 42.247zM91.6837 42.247L89.4677 42.247C89.0367 43.647 87.7457 44.675 86.2057 44.675 84.6657 44.675 83.3757 43.647 82.9447 42.247L79.9927 42.247C81.0707 44.559 81.7497 47.091 81.9467 49.757L91.6837 49.757 91.6837 42.247zM38.714 64.3085C38.714 64.8615 38.267 65.3085 37.714 65.3085L32.051 65.3085C31.498 65.3085 31.051 64.8615 31.051 64.3085L31.051 61.0735C31.051 60.5205 31.498 60.0735 32.051 60.0735L37.714 60.0735C38.267 60.0735 38.714 60.5205 38.714 61.0735L38.714 64.3085zM39.579 57.3195L29.068 57.3195 29.068 67.9645 46.519 67.9645C43.241 65.2245 40.788 61.5325 39.579 57.3195L39.579 57.3195z"/>
        <path fill="#36393F" d="M38.7482,51.7568 L29.0682,51.7568 L29.0682,55.3198 L39.1072,55.3198 C38.8932,54.1608 38.7702,52.9708 38.7482,51.7568"/>
        <path fill="#B9BBBE" d="M74.7032 35.1679C76.3562 36.6329 77.7862 38.3439 78.9312 40.2469L82.9442 40.2469C83.3762 38.8469 84.6662 37.8189 86.2062 37.8189 87.7452 37.8189 89.0362 38.8469 89.4682 40.2469L91.6832 40.2469 91.6832 37.4049C91.6832 36.1719 90.6802 35.1679 89.4462 35.1679L74.7032 35.1679zM41.8204 40.247C42.9654 38.344 44.3944 36.633 46.0494 35.168L31.3044 35.168C30.0714 35.168 29.0684 36.172 29.0684 37.405L29.0684 40.247 41.8204 40.247z"/>
        <path fill="#000000" d="M87.0763 20.6313C87.2833 20.6313 87.4903 20.5523 87.6473 20.3943L88.6053 19.4373C88.9223 19.1213 88.9223 18.6093 88.6053 18.2933 88.2893 17.9763 87.7773 17.9763 87.4613 18.2933L86.5043 19.2503C86.1873 19.5663 86.1873 20.0783 86.5043 20.3943 86.6613 20.5523 86.8683 20.6313 87.0763 20.6313M82.2882 25.4198C82.4952 25.4198 82.7022 25.3408 82.8602 25.1828L83.8172 24.2248C84.1342 23.9088 84.1342 23.3968 83.8172 23.0808 83.5012 22.7648 82.9882 22.7648 82.6732 23.0808L81.7162 24.0388C81.3992 24.3548 81.3992 24.8668 81.7162 25.1828 81.8742 25.3408 82.0812 25.4198 82.2882 25.4198M87.4611 25.183C87.6191 25.341 87.8261 25.42 88.0331 25.42 88.2401 25.42 88.4471 25.341 88.6061 25.183 88.9221 24.867 88.9221 24.354 88.6061 24.038L87.6481 23.08C87.3321 22.765 86.8191 22.765 86.5041 23.08 86.1881 23.396 86.1881 23.909 86.5041 24.225L87.4611 25.183zM82.673 20.394C82.831 20.552 83.038 20.631 83.245 20.631 83.452 20.631 83.66 20.552 83.818 20.394 84.134 20.078 84.134 19.566 83.818 19.25L82.86 18.293C82.544 17.977 82.031 17.977 81.716 18.293 81.4 18.609 81.4 19.121 81.716 19.437L82.673 20.394zM11.6339 47.5038C12.3079 47.5038 12.8569 48.0518 12.8569 48.7258 12.8569 49.3998 12.3079 49.9478 11.6339 49.9478 10.9599 49.9478 10.4119 49.3998 10.4119 48.7258 10.4119 48.0518 10.9599 47.5038 11.6339 47.5038M11.6339 51.5658C13.1999 51.5658 14.4749 50.2918 14.4749 48.7258 14.4749 47.1598 13.1999 45.8848 11.6339 45.8848 10.0689 45.8848 8.7939 47.1598 8.7939 48.7258 8.7939 50.2918 10.0689 51.5658 11.6339 51.5658M18.1085 37.475L18.5215 37.475C18.9685 37.475 19.3315 37.838 19.3315 38.285L19.3315 38.698C19.3315 39.145 19.6935 39.507 20.1395 39.507 20.5875 39.507 20.9495 39.145 20.9495 38.698L20.9495 38.285C20.9495 37.838 21.3115 37.475 21.7585 37.475L22.1715 37.475C22.6185 37.475 22.9805 37.113 22.9805 36.666 22.9805 36.219 22.6185 35.857 22.1715 35.857L21.7585 35.857C21.3115 35.857 20.9495 35.494 20.9495 35.047L20.9495 34.635C20.9495 34.187 20.5875 33.826 20.1395 33.826 19.6935 33.826 19.3315 34.187 19.3315 34.635L19.3315 35.047C19.3315 35.494 18.9685 35.857 18.5215 35.857L18.1085 35.857C17.6625 35.857 17.2995 36.219 17.2995 36.666 17.2995 37.113 17.6625 37.475 18.1085 37.475M12.4435 32.6196L12.8565 32.6196C13.3025 32.6196 13.6665 32.9816 13.6665 33.4286L13.6665 33.8426C13.6665 34.2896 14.0285 34.6516 14.4745 34.6516 14.9225 34.6516 15.2845 34.2896 15.2845 33.8426L15.2845 33.4286C15.2845 32.9816 15.6465 32.6196 16.0935 32.6196L16.5065 32.6196C16.9535 32.6196 17.3155 32.2576 17.3155 31.8096 17.3155 31.3626 16.9535 31.0006 16.5065 31.0006L16.0935 31.0006C15.6465 31.0006 15.2845 30.6386 15.2845 30.1916L15.2845 29.7786C15.2845 29.3316 14.9225 28.9696 14.4745 28.9696 14.0285 28.9696 13.6665 29.3316 13.6665 29.7786L13.6665 30.1916C13.6665 30.6386 13.3025 31.0006 12.8565 31.0006L12.4435 31.0006C11.9975 31.0006 11.6345 31.3626 11.6345 31.8096 11.6345 32.2576 11.9975 32.6196 12.4435 32.6196M108.4728 50.7543C108.9198 50.7543 109.2828 50.3923 109.2828 49.9453 109.2828 49.4973 108.9198 49.1353 108.4728 49.1353L108.0598 49.1353C107.6138 49.1353 107.2508 48.7733 107.2508 48.3263L107.2508 47.9143C107.2508 47.4663 106.8888 47.1043 106.4418 47.1043 105.9938 47.1043 105.6318 47.4663 105.6318 47.9143L105.6318 48.3263C105.6318 48.7733 105.2698 49.1353 104.8238 49.1353L104.4108 49.1353C103.9628 49.1353 103.6008 49.4973 103.6008 49.9453 103.6008 50.3923 103.9628 50.7543 104.4108 50.7543L104.8238 50.7543C105.2698 50.7543 105.6318 51.1163 105.6318 51.5633L105.6318 51.9773C105.6318 52.4243 105.9938 52.7863 106.4418 52.7863 106.8888 52.7863 107.2508 52.4243 107.2508 51.9773L107.2508 51.5633C107.2508 51.1163 107.6138 50.7543 108.0598 50.7543L108.4728 50.7543z"/>
        <g transform="translate(107 67)">
          <mask id="b" fill="white">
            <use xlink:href="#a"/>
          </mask>
          <path fill="#000000" d="M10.7501,0.9648 L1.6211,0.9648 C1.0681,0.9648 0.6211,1.4118 0.6211,1.9648 C0.6211,2.5178 1.0681,2.9648 1.6211,2.9648 L10.7501,2.9648 C11.3031,2.9648 11.7501,2.5178 11.7501,1.9648 C11.7501,1.4118 11.3031,0.9648 10.7501,0.9648" mask="url(#b)"/>
        </g>
        <mask id="d" fill="white">
          <use xlink:href="#c"/>
        </mask>
        <path fill="#000000" d="M52.9747,25.955 C52.9137,25.821 52.8637,25.676 52.8047,25.539 L58.0647,13.991 C60.3327,18.055 62.2717,22.407 63.7137,25.955 L52.9747,25.955 Z M81.1717,57.319 L89.4677,57.319 C90.6917,57.319 91.6837,58.311 91.6837,59.536 L91.6837,65.749 C91.6837,66.973 90.6917,67.965 89.4677,67.965 L74.2327,67.965 C77.5097,65.225 79.9627,61.533 81.1717,57.319 L81.1717,57.319 Z M40.7387,51.362 C40.7387,40.534 49.5477,31.726 60.3757,31.726 C71.2037,31.726 80.0127,40.534 80.0127,51.362 C80.0127,62.19 71.2037,71 60.3757,71 C49.5477,71 40.7387,62.19 40.7387,51.362 L40.7387,51.362 Z M31.2847,57.319 L39.5787,57.319 C40.7877,61.533 43.2417,65.225 46.5187,67.965 L31.2847,67.965 C30.0607,67.965 29.0687,66.973 29.0687,65.749 L29.0687,59.536 C29.0687,58.311 30.0607,57.319 31.2847,57.319 L31.2847,57.319 Z M89.4467,35.168 C90.6797,35.168 91.6837,36.172 91.6837,37.405 L91.6837,40.247 L89.4677,40.247 C89.0367,38.847 87.7457,37.819 86.2057,37.819 C84.6657,37.819 83.3757,38.847 82.9447,40.247 L78.9307,40.247 C77.7867,38.344 76.3567,36.633 74.7037,35.168 L89.4467,35.168 Z M83.6627,51.757 L89.9197,51.757 C90.8937,51.757 91.6837,52.546 91.6837,53.52 L91.6837,53.556 C91.6837,54.53 90.8937,55.319 89.9197,55.319 L83.6607,55.319 C82.6167,55.319 81.8167,54.42 81.9127,53.38 C81.9137,53.369 81.9147,53.357 81.9157,53.345 C81.9977,52.443 82.7587,51.757 83.6627,51.757 L83.6627,51.757 Z M84.7787,41.247 C84.7787,40.46 85.4187,39.819 86.2057,39.819 C86.9937,39.819 87.6337,40.46 87.6337,41.247 C87.6337,42.034 86.9937,42.675 86.2057,42.675 C85.4187,42.675 84.7787,42.034 84.7787,41.247 L84.7787,41.247 Z M81.9467,49.757 C81.7497,47.091 81.0707,44.559 79.9927,42.247 L82.9447,42.247 C83.3757,43.647 84.6657,44.675 86.2057,44.675 C87.7457,44.675 89.0367,43.647 89.4677,42.247 C90.6917,42.247 91.6837,43.239 91.6837,44.463 L91.6837,49.757 L81.9467,49.757 Z M30.8317,51.757 L37.0867,51.757 C37.9927,51.757 38.7527,52.443 38.8347,53.345 C38.8357,53.357 38.8367,53.369 38.8377,53.38 C38.9347,54.42 38.1347,55.319 37.0907,55.319 L30.8317,55.319 C29.8577,55.319 29.0687,54.53 29.0687,53.556 L29.0687,53.52 C29.0687,52.546 29.8577,51.757 30.8317,51.757 L30.8317,51.757 Z M29.0687,49.757 L29.0687,44.463 C29.0687,43.239 30.0607,42.247 31.2847,42.247 L40.7587,42.247 C39.6797,44.559 39.0007,47.091 38.8037,49.757 L29.0687,49.757 Z M67.8107,27.955 C69.1517,27.955 70.4047,28.625 71.1487,29.74 L73.4357,33.168 L72.0637,33.168 C68.6897,30.994 64.6797,29.726 60.3757,29.726 C56.0727,29.726 52.0617,30.994 48.6887,33.168 L47.3167,33.168 L49.6037,29.74 C50.3477,28.625 51.5997,27.955 52.9407,27.955 L67.8107,27.955 Z M36.2167,33.168 L43.9287,33.168 L43.9287,32.005 L36.2167,32.005 L36.2167,33.168 Z M31.3047,35.168 L46.0487,35.168 C44.3947,36.633 42.9647,38.344 41.8207,40.247 L29.0687,40.247 L29.0687,37.405 C29.0687,36.172 30.0717,35.168 31.3047,35.168 L31.3047,35.168 Z M99.7607,23.395 C99.7607,23.395 99.9467,40.858 99.9857,40.964 C98.3727,43.234 96.5427,45.425 94.4627,47.415 C94.1307,47.732 94.0587,48.236 94.2867,48.635 C94.3357,48.721 99.0507,57.194 95.6067,67.965 L93.6837,67.965 L93.6837,37.405 C93.6837,35.131 91.8797,33.285 89.6297,33.186 C92.1337,30.259 95.6297,26.595 99.7607,23.395 L99.7607,23.395 Z M103.6217,67.965 L102.6237,67.965 C100.1877,67.965 98.3617,65.81 98.6657,63.393 C99.6027,55.961 97.3117,50.266 96.3817,48.338 C109.0517,35.788 112.4957,16.868 112.6387,16.058 C112.6987,15.718 112.5787,15.371 112.3217,15.141 C112.0647,14.91 111.7077,14.827 111.3757,14.924 C101.9717,17.636 93.8737,25.267 88.9217,30.905 C87.6657,32.334 85.8667,33.168 83.9627,33.168 L78.5147,33.168 C76.8437,33.168 75.2827,32.333 74.3557,30.943 L71.3247,26.4 C71.1387,26.122 70.8267,25.955 70.4917,25.955 L67.5657,25.955 C66.5557,25.955 65.6497,25.352 65.2647,24.419 C63.6537,20.514 61.4897,15.789 58.9407,11.489 C58.8917,11.312 58.8007,11.155 58.6647,11.027 C56.1417,6.849 53.2567,3.124 50.1657,1.035 C49.8757,0.838 49.5027,0.809 49.1857,0.956 C48.8677,1.104 48.6497,1.407 48.6127,1.757 C48.5407,2.412 47.0737,16.672 50.8047,25.955 L50.2597,25.955 C49.9257,25.955 49.6137,26.122 49.4277,26.4 L45.9287,31.644 L45.9287,31.005 C45.9287,30.453 45.4807,30.005 44.9287,30.005 L35.2167,30.005 C34.6637,30.005 34.2167,30.453 34.2167,31.005 L34.2167,33.168 L31.3047,33.168 C28.9647,33.168 27.0687,35.065 27.0687,37.404 L27.0687,63.965 C27.0687,66.174 25.2777,67.965 23.0687,67.965 L0.9997,67.965 C0.4477,67.965 -0.0003,68.412 -0.0003,68.965 C-0.0003,69.518 0.4477,69.965 0.9997,69.965 L28.0687,69.965 L49.3417,69.965 C52.5757,71.89 56.3477,73 60.3757,73 C64.4047,73 68.1767,71.89 71.4107,69.965 L92.6837,69.965 L103.6217,69.965 C104.1747,69.965 104.6217,69.518 104.6217,68.965 C104.6217,68.412 104.1747,67.965 103.6217,67.965 L103.6217,67.965 Z" mask="url(#d)"/>
        <mask id="f" fill="white">
          <use xlink:href="#e"/>
        </mask>
        <polygon fill="#F7F7F8" points="33.051 63.309 36.714 63.309 36.714 62.074 33.051 62.074" mask="url(#f)"/>
        <path fill="#F7F7F8" d="M86.2062,42.6747 C86.9932,42.6747 87.6342,42.0337 87.6342,41.2467 C87.6342,40.4597 86.9932,39.8197 86.2062,39.8197 C85.4192,39.8197 84.7782,40.4597 84.7782,41.2467 C84.7782,42.0337 85.4192,42.6747 86.2062,42.6747" mask="url(#f)"/>
        <path fill="#000000" d="M33.051,63.309 L36.714,63.309 L36.714,62.074 L33.051,62.074 L33.051,63.309 Z M37.714,60.073 L32.051,60.073 C31.498,60.073 31.051,60.52 31.051,61.073 L31.051,64.309 C31.051,64.861 31.498,65.309 32.051,65.309 L37.714,65.309 C38.267,65.309 38.714,64.861 38.714,64.309 L38.714,61.073 C38.714,60.52 38.267,60.073 37.714,60.073 L37.714,60.073 Z" mask="url(#f)"/>
        <path fill="#36393F" d="M53.8458,67.7011 C53.3328,67.4961 53.0828,66.9141 53.2878,66.4011 C53.2938,66.3851 53.3088,66.3751 53.3158,66.3591 C52.8348,66.1331 52.3678,65.8851 51.9138,65.6151 C51.9058,65.6291 51.9048,65.6461 51.8948,65.6611 C51.7008,65.9451 51.3868,66.0981 51.0668,66.0981 C50.8728,66.0981 50.6778,66.0431 50.5048,65.9261 C48.9448,64.8641 47.5708,63.5691 46.4218,62.0751 C46.0848,61.6381 46.1678,61.0101 46.6058,60.6731 C46.6148,60.6661 46.6248,60.6651 46.6338,60.6591 C46.3248,60.2041 46.0398,59.7341 45.7778,59.2491 C45.7668,59.2541 45.7608,59.2631 45.7508,59.2681 C45.2478,59.5021 44.6548,59.2841 44.4228,58.7841 C43.3358,56.4501 42.7848,53.9531 42.7848,51.3621 C42.7848,41.6631 50.6768,33.7711 60.3758,33.7711 C70.0748,33.7711 77.9668,41.6631 77.9668,51.3621 C77.9668,61.0611 70.0748,68.9531 60.3758,68.9531 C58.1198,68.9531 55.9228,68.5321 53.8458,67.7011 M60.3758,71.0001 C71.2038,71.0001 80.0128,62.1901 80.0128,51.3621 C80.0128,40.5341 71.2038,31.7251 60.3758,31.7251 C49.5478,31.7251 40.7388,40.5341 40.7388,51.3621 C40.7388,62.1901 49.5478,71.0001 60.3758,71.0001" mask="url(#f)"/>
        <path fill="#4F545C" d="M50.0685,51.3622 C50.0685,45.6792 54.6925,41.0552 60.3765,41.0552 C66.0585,41.0552 70.6825,45.6792 70.6825,51.3622 C70.6825,57.0462 66.0585,61.6702 60.3765,61.6702 C54.6925,61.6702 50.0685,57.0462 50.0685,51.3622 M54.5885,65.8432 C56.4275,66.5802 58.3755,66.9532 60.3765,66.9532 C68.9725,66.9532 75.9665,59.9592 75.9665,51.3622 C75.9665,42.7652 68.9725,35.7712 60.3765,35.7712 C51.7795,35.7712 44.7855,42.7652 44.7855,51.3622 C44.7855,53.6602 45.2735,55.8732 46.2355,57.9402 C46.4645,58.4312 46.2565,59.0072 45.7775,59.2492 C46.0405,59.7342 46.3255,60.2042 46.6335,60.6592 C47.0695,60.3462 47.6775,60.4272 48.0075,60.8562 C49.0265,62.1812 50.2455,63.3302 51.6305,64.2712 C52.0715,64.5722 52.1885,65.1622 51.9145,65.6142 C52.3685,65.8842 52.8355,66.1332 53.3155,66.3592 C53.5365,65.8772 54.0935,65.6442 54.5885,65.8432" mask="url(#f)"/>
        <path fill="#000000" d="M77.9669,51.3622 C77.9669,41.6632 70.0749,33.7712 60.3759,33.7712 C50.6769,33.7712 42.7849,41.6632 42.7849,51.3622 C42.7849,53.9532 43.3359,56.4502 44.4229,58.7842 C44.6539,59.2842 45.2479,59.5022 45.7509,59.2682 C45.7609,59.2632 45.7669,59.2542 45.7779,59.2492 C46.2569,59.0072 46.4639,58.4312 46.2359,57.9402 C45.2739,55.8732 44.7849,53.6602 44.7849,51.3622 C44.7849,42.7652 51.7799,35.7712 60.3759,35.7712 C68.9729,35.7712 75.9669,42.7652 75.9669,51.3622 C75.9669,59.9592 68.9729,66.9532 60.3759,66.9532 C58.3749,66.9532 56.4279,66.5802 54.5879,65.8432 C54.0939,65.6442 53.5359,65.8772 53.3159,66.3592 C53.3089,66.3752 53.2939,66.3852 53.2879,66.4012 C53.0829,66.9142 53.3329,67.4962 53.8459,67.7012 C55.9229,68.5322 58.1199,68.9532 60.3759,68.9532 C70.0749,68.9532 77.9669,61.0612 77.9669,51.3622" mask="url(#f)"/>
        <path fill="#000000" d="M51.63,64.2714 C50.245,63.3304 49.026,62.1814 48.008,60.8564 C47.678,60.4274 47.069,60.3464 46.634,60.6594 C46.625,60.6654 46.614,60.6664 46.606,60.6724 C46.168,61.0094 46.085,61.6374 46.422,62.0754 C47.57,63.5694 48.944,64.8644 50.505,65.9254 C50.678,66.0424 50.873,66.0984 51.067,66.0984 C51.387,66.0984 51.701,65.9454 51.895,65.6614 C51.904,65.6464 51.905,65.6294 51.914,65.6144 C52.189,65.1624 52.071,64.5724 51.63,64.2714" mask="url(#f)"/>
        <path fill="#B9BBBE" d="M65.2179,52.498 C65.1109,52.96 64.6989,53.27 64.2449,53.27 C64.1699,53.27 64.0929,53.262 64.0169,53.244 C63.4789,53.118 63.1449,52.58 63.2709,52.043 C63.3219,51.821 63.3489,51.592 63.3489,51.362 C63.3489,50.81 63.7959,50.362 64.3489,50.362 C64.9019,50.362 65.3489,50.81 65.3489,51.362 C65.3489,51.745 65.3049,52.128 65.2179,52.498 M63.0909,55.53 C62.2819,56.058 61.3439,56.336 60.3759,56.336 C57.6339,56.336 55.4039,54.104 55.4039,51.362 C55.4039,48.62 57.6339,46.39 60.3759,46.39 C60.9289,46.39 61.3759,46.837 61.3759,47.39 C61.3759,47.942 60.9289,48.39 60.3759,48.39 C58.7379,48.39 57.4039,49.724 57.4039,51.362 C57.4039,53.002 58.7379,54.336 60.3759,54.336 C60.9539,54.336 61.5159,54.17 61.9969,53.854 C62.4599,53.555 63.0779,53.683 63.3819,54.145 C63.6839,54.608 63.5529,55.227 63.0909,55.53 M60.3759,43.056 C55.7949,43.056 52.0689,46.782 52.0689,51.362 C52.0689,55.943 55.7949,59.67 60.3759,59.67 C64.9559,59.67 68.6829,55.943 68.6829,51.362 C68.6829,46.782 64.9559,43.056 60.3759,43.056" mask="url(#f)"/>
        <path fill="#000000" d="M60.3761,59.6698 C55.7951,59.6698 52.0681,55.9428 52.0681,51.3618 C52.0681,46.7818 55.7951,43.0558 60.3761,43.0558 C64.9561,43.0558 68.6831,46.7818 68.6831,51.3618 C68.6831,55.9428 64.9561,59.6698 60.3761,59.6698 M70.6831,51.3618 C70.6831,45.6798 66.0591,41.0558 60.3761,41.0558 C54.6921,41.0558 50.0681,45.6798 50.0681,51.3618 C50.0681,57.0458 54.6921,61.6698 60.3761,61.6698 C66.0591,61.6698 70.6831,57.0458 70.6831,51.3618" mask="url(#f)"/>
        <path fill="#000000" d="M64.3488 50.3622C63.7958 50.3622 63.3488 50.8092 63.3488 51.3622 63.3488 51.5912 63.3228 51.8212 63.2708 52.0432 63.1448 52.5802 63.4788 53.1182 64.0168 53.2442 64.0928 53.2612 64.1698 53.2702 64.2448 53.2702 64.6998 53.2702 65.1108 52.9602 65.2178 52.4982 65.3048 52.1282 65.3488 51.7452 65.3488 51.3622 65.3488 50.8092 64.9018 50.3622 64.3488 50.3622M61.9972 53.8544C61.5162 54.1694 60.9542 54.3354 60.3762 54.3354 58.7372 54.3354 57.4032 53.0014 57.4032 51.3624 57.4032 49.7234 58.7372 48.3894 60.3762 48.3894 60.9292 48.3894 61.3762 47.9424 61.3762 47.3894 61.3762 46.8364 60.9292 46.3894 60.3762 46.3894 57.6342 46.3894 55.4032 48.6204 55.4032 51.3624 55.4032 54.1044 57.6342 56.3354 60.3762 56.3354 61.3442 56.3354 62.2822 56.0574 63.0912 55.5304 63.5532 55.2274 63.6842 54.6084 63.3822 54.1454 63.0782 53.6824 62.4602 53.5544 61.9972 53.8544" mask="url(#f)"/>
      </g>
    </g>
    <rect width="120" height="74"/>
  </g>
</svg>
