<svg width="660" height="278" viewBox="0 0 660 278" fill="none" xmlns="http://www.w3.org/2000/svg">
<g clip-path="url(#clip0_2047_15477)">
<rect width="660" height="278" rx="8" fill="url(#paint0_linear_2047_15477)"/>
<path d="M1549.08 372.556L1544.63 381.81L1544.28 383.866L1544.97 383.524L1546.51 386.608L1547.2 387.294L1549.08 388.15L1547.2 390.036L1546.85 392.606L1547.71 399.803V403.574L1547.2 406.83L1546.34 409.743L1543.77 415.227L1543.08 416.255L1541.88 417.455L1540.68 417.969L1537.6 418.483H1537.09L1535.89 420.882L1534.52 426.709L1534.17 426.366L1528.17 423.624L1525.95 420.197L1523.55 418.483L1520.98 417.112L1505.72 412.828L1500.75 413.514L1495.96 415.227L1494.59 416.427L1493.73 417.969V418.826L1494.24 419.854L1494.76 423.796L1496.13 425.852L1496.47 427.737L1496.13 429.965L1494.24 434.078L1493.56 436.135L1493.21 438.191L1493.56 444.36L1493.21 446.588L1492.53 448.13L1491.84 449.33L1491.5 450.53L1490.64 455.156L1488.59 458.584L1474.19 471.094L1469.22 473.836L1449 477.435L1433.75 483.433L1431.35 485.146L1425.87 490.459L1421.07 493.029L1418.84 494.915V495.429L1410.96 496.971L1408.73 498.171L1407.36 499.713L1404.62 503.997L1402.73 506.225L1396.9 510.338L1396.39 511.024L1394.33 514.28L1393.48 514.622H1392.45L1391.59 514.965L1390.73 516.507L1390.39 519.421L1391.08 522.334L1392.45 524.905L1393.82 527.133L1404.1 537.929L1406.33 542.727L1406.67 545.126V545.469L1407.53 547.697L1408.73 549.411L1412.16 551.467L1415.07 554.552L1416.27 555.237L1418.67 557.637L1423.64 569.118L1426.72 573.917L1427.41 574.602L1417.98 589.683L1417.13 591.397L1416.78 592.768V594.139L1416.44 595.51L1415.58 597.052L1412.84 601.336L1415.24 603.736L1423.47 605.278L1425.69 604.935L1429.46 603.221L1431.69 603.564L1433.58 604.935L1435.29 607.163L1438.2 612.133L1439.4 615.217L1439.75 617.959V620.53L1439.4 623.1L1439.06 623.614L1437.35 627.898V628.584L1434.95 631.669H1434.61V636.467H1434.95V636.639L1433.58 640.066L1433.23 640.58V645.721L1433.75 646.921L1434.26 647.949L1434.61 649.32V651.034L1430.49 656.004L1429.46 656.86H1427.92L1427.07 656.346L1426.21 655.489L1424.84 654.804H1423.3L1422.1 655.489L1420.9 656.004L1419.35 655.318L1412.16 649.834L1405.47 642.465L1404.27 641.437L1402.9 640.923L1400.67 640.58L1397.08 637.667L1396.22 632.354L1397.93 627.384L1401.87 625.328L1398.96 622.586L1395.19 620.016L1392.96 617.273L1394.51 613.503L1391.93 613.846L1383.71 611.79H1378.57L1373.43 612.989L1370.68 614.36L1365.54 618.987L1364.17 620.187L1361.94 621.215L1358.86 621.901H1355.78L1353.72 620.873L1349.43 617.445L1348.23 616.074L1347.38 614.36L1345.84 609.733L1345.15 608.534L1342.75 608.02L1336.92 610.247L1334.53 610.59L1326.13 608.705L1322.87 609.219L1319.62 610.933H1318.07L1316.7 609.905L1315.85 607.506L1316.36 605.963L1317.22 604.592L1317.73 602.878L1318.07 600.651L1318.59 599.622H1318.24L1316.19 600.651L1314.99 601.508L1311.39 604.421L1308.99 605.278L1309.33 606.992L1309.85 608.191L1310.88 609.562L1312.08 610.761L1312.76 611.276L1313.1 612.475V618.302V620.359L1312.59 621.729L1308.48 627.042H1307.28L1273.69 625.842L1261.35 628.413L1259.64 629.441L1258.09 633.04L1256.55 633.554L1248.33 631.84H1236.33L1229.99 630.469H1227.25L1226.73 630.984L1222.62 634.582L1221.59 636.81L1220.39 641.78L1219.71 643.836L1216.96 646.749L1213.71 647.949L1206.85 649.149L1203.6 648.121L1200 647.606L1196.74 648.463L1189.89 656.346L1191.77 656.86L1193.32 657.888L1193.83 659.431L1192.63 661.659L1190.23 662.687H1183.89L1181.15 663.715L1178.23 666.286L1176.35 668.856L1174.29 671.084L1171.04 672.627L1167.44 672.284L1167.78 666.457L1164.7 665.258L1160.93 666.286L1151.33 672.969L1148.42 673.826H1133.16L1131.11 672.455L1129.57 669.542H1129.91L1130.42 668.514L1130.76 666.972V665.6L1130.25 664.572L1122.88 656.689L1115.34 653.261L1114.31 651.548L1119.11 648.292L1120.31 646.749L1116.88 644.179L1115.34 643.322H1113.29L1111.23 643.836L1105.4 646.578L1101.12 647.092L1099.92 646.749L1099.23 645.721L1098.72 644.693L1098.2 644.007L1078.84 636.639H1075.24L1073.18 638.01L1070.27 642.123L1068.39 643.665L1066.67 644.007L1060.5 642.979L1058.28 641.951L1057.08 641.094L1056.22 640.066L1055.88 638.181L1056.39 636.81L1057.08 635.782V634.925L1056.56 632.868L1056.05 632.526L1054.85 633.04L1052.45 633.554L1050.22 634.411V636.296L1051.76 638.695L1052.79 641.094V643.151L1051.08 651.719L1053.13 652.919L1054.33 654.29L1055.19 656.175L1055.88 658.917V663.544L1054.5 668.342L1052.45 672.627L1050.05 675.883L1048.85 676.739L1045.76 677.767L1044.22 678.796L1043.37 680.167L1040.11 686.679L1037.54 690.278L1034.63 692.848L1028.11 696.79L1024.86 697.99L1015.43 699.189L1013.2 699.532L1012.52 699.189L1013.03 697.818L1014.4 695.419L1014.92 695.076L1016.8 694.562L1017.49 693.876L1017.83 692.506V691.134L1017.49 689.764L1020.06 681.709V677.767L1017.49 676.397L1010.98 677.596L1009.26 679.481L1008.58 679.995H1007.89L1006.35 679.139H1005.66L1003.78 679.995L1002.58 680.853H1001.55L1000.18 679.481L999.323 677.425V675.026L998.809 672.798L997.267 670.913L1000.52 668.342L1001.21 666.114L1000.01 663.544L992.811 652.919L991.097 653.604L989.727 654.804L988.355 655.318L986.813 654.29V653.09L986.471 652.405V651.719L985.099 648.806L983.214 646.921L981.672 644.865L981.329 641.266L979.616 642.637L977.388 643.151L973.104 642.808L968.648 641.094H967.962L966.077 642.465H964.878L961.964 641.094L961.45 638.866L961.793 636.296L961.279 633.725L959.565 631.84L957.509 631.155H955.281L953.225 632.526L949.968 636.296L948.083 640.237L946.027 643.493L942.086 645.379H932.66L924.091 643.151H923.406L923.063 642.808L882.962 617.788L877.307 616.417H871.823L869.767 613.332H861.712L845.432 611.447L842.69 612.475L840.291 615.046L834.979 616.759L829.152 617.273L825.553 616.245L821.269 612.989L819.212 610.761V609.219L821.954 608.534L818.184 604.935L813.386 602.193H809.444L808.073 606.306L809.273 607.677H801.561L801.218 606.306L800.875 604.592L799.676 603.221L798.991 601.508L799.505 600.136L801.389 597.223L801.733 596.366L800.704 594.139L799.333 593.796L797.791 594.139L796.249 593.796L795.22 592.082L794.021 589.511L792.65 587.455L790.765 586.769L789.394 588.141L788.708 592.939L786.823 594.139L785.452 593.11L784.938 590.54V587.798L784.595 586.255L781.853 585.056H778.255L775.855 586.255L777.226 589.683L774.999 590.883L767.115 592.425H765.402L764.202 593.11L762.146 596.024L761.46 597.566L760.432 601.85L758.89 603.392L755.12 605.449L753.748 607.163V608.705L754.262 610.247L754.605 612.133L753.748 614.531L755.976 615.389H756.662L760.432 618.302L763.517 620.016H766.087L768.315 618.816L770.371 617.445L772.599 616.417L779.626 615.217L781.682 615.56L783.396 616.245L784.081 616.588H785.452L784.595 621.901L783.567 621.387V620.016L783.396 619.673H782.71L781.853 620.016L781.339 620.53L780.996 621.729V622.757L781.51 623.614V624.3V625.842V627.384V628.927L780.825 629.955L780.482 630.469L778.597 631.155L777.226 629.612L776.884 629.27L775.17 626.356L772.942 624.3L768.487 624.814L764.031 627.727L762.317 631.498V632.526L758.033 633.211H757.519H748.093L742.609 631.669L741.239 630.812L740.21 628.756L739.353 626.699L738.497 625.842H736.783L733.013 624.471H730.442L722.559 625.842L721.874 626.356L721.188 627.384L720.16 628.413L717.418 629.27L714.162 630.984L712.962 631.84L711.763 633.211L711.249 634.24L710.563 635.096L709.192 636.124L702.68 637.667H683.658L683.315 636.81L682.972 634.754L682.458 632.697L681.601 631.84L672.176 631.326L670.119 630.298L667.378 634.411L664.978 637.153L662.236 638.695L656.41 639.895L650.069 641.266L646.813 640.923L644.757 639.723L639.273 636.81H639.615H643.043L644.585 635.268L646.47 629.784L643.214 630.126L635.674 632.354L636.188 630.126L636.531 629.27L636.188 627.213L635.331 626.014L634.474 625.157L633.618 624.129L630.361 617.617L628.305 614.875L626.077 613.675L625.563 612.647L625.049 610.247L624.706 605.62L625.22 604.25L627.619 601.679L628.476 600.308V596.709L626.762 589.169L627.105 586.084L629.162 579.058L630.018 578.03L632.075 577.002L632.418 574.602L631.732 570.49V569.461V568.947V568.433V567.576L632.246 566.548L633.274 565.691L633.789 564.663L634.646 562.435L634.988 561.407V557.808L635.674 554.895L639.615 550.781L640.986 548.211L640.643 541.356L634.303 530.217L633.789 521.135L634.646 516.85L635.674 513.594L636.702 511.709L637.73 510.338L638.416 508.624L638.758 505.54L639.787 502.798L649.041 489.773L650.583 486.517L651.44 482.748L651.783 478.292L652.811 473.664L655.21 471.78L657.952 470.237L660.008 466.981V463.897L659.494 460.983L658.466 458.241L657.952 455.671V452.758L659.152 446.931L659.837 444.36L660.865 442.304L661.894 440.933L662.579 438.705L662.922 434.592L663.607 432.535L665.321 430.822L668.92 427.909V426.366L667.206 421.739V414.028L668.406 406.83L674.575 397.233L676.289 396.033L678.688 395.177L680.916 393.292L684.857 388.493L686.571 387.294L688.456 385.408L689.998 383.352L690.684 381.638V377.354L691.712 375.298L693.426 374.783H697.539L698.738 374.269L699.595 373.584L699.938 372.385L700.281 370.328L700.966 369.128L701.652 368.443L701.994 367.929H703.365L708.678 365.015L709.535 364.33L711.42 361.245L718.103 342.909L722.73 334.169L725.815 330.741L724.101 329.028L709.706 326.114L686.4 313.775L683.829 313.433L675.432 314.289L663.264 310.691L661.722 311.205L658.295 313.09L656.581 313.604H655.21L652.125 312.233L650.583 311.891L648.698 312.233L646.984 312.919L645.271 313.433H644.757L643.214 312.919L641.843 311.719L640.472 308.805L639.444 307.435L636.188 305.721L629.847 304.521L626.591 302.465L624.706 300.066L621.45 294.753L619.393 292.526L619.737 291.84L620.079 291.326L621.107 290.64L620.079 287.384L617.509 286.356L611.168 286.013L610.482 283.443H607.569L604.656 284.128H604.142L601.742 285.671L601.057 286.699L600.028 289.955L599.343 291.154L598.315 291.668L595.402 292.011L594.031 292.526L593.174 293.725L591.631 296.81L590.775 297.667H589.918L585.976 295.61H573.295L571.067 294.753L568.839 293.554L563.184 289.44H562.327L560.956 290.64V291.84L561.47 293.04V294.239L556.672 297.152L553.415 294.582L551.702 288.412V280.529H548.617L539.534 275.388H537.992H533.708L527.539 274.017L525.997 274.36L525.139 277.445L526.168 281.043L526.682 284.814L524.111 288.241L522.226 288.584L516.571 286.527H510.059L508.345 285.671L506.46 282.586L506.803 279.844L507.488 276.931L506.632 273.332H506.117L504.232 274.703H503.546L503.204 274.017L502.861 272.303V271.789L502.176 270.933L500.976 266.82L500.291 266.134L498.234 265.449L497.377 264.764V263.906V261.678V260.65L487.438 251.225L485.039 248.312L484.182 245.741L485.039 243.685H487.609L488.295 241.799L487.781 240.429L480.583 232.888L479.555 231.346H479.898V229.975L479.555 228.09L478.698 226.205L476.127 223.806L462.761 217.122L461.218 216.779L460.019 217.293L457.277 219.179L455.734 219.521H454.535V217.807L454.02 210.953L455.049 203.755L455.391 201.527V194.33L456.248 191.931L458.476 188.503L462.246 183.876L463.789 180.791L464.817 179.078L465.159 178.049V176.507L464.131 175.65L463.275 174.965L462.932 174.28L465.159 171.023L475.956 163.997L475.613 163.483L474.585 162.283L475.099 161.255L475.784 160.912L476.984 161.427L475.956 160.055L475.27 158.513L474.928 156.628V154.571L476.47 153.372V152.515L476.127 151.487V149.945L476.813 144.975H476.984V142.918L477.327 142.576L476.47 141.719H475.956L471.5 140.348H464.474L461.903 139.662L459.504 138.12L455.22 134.178L452.821 132.636H451.45L449.222 134.007H448.022V133.15L447.166 130.751L446.652 129.209L445.966 128.009L443.91 126.638L438.94 124.411L436.712 122.011L431.913 110.358L429.343 106.245L427.801 109.33L426.601 107.273L424.373 100.932L421.803 97.1626L421.117 95.2772L421.46 92.7068L420.603 87.9083L419.575 86.0231L418.032 85.1664L419.404 82.5959L419.918 81.9103H419.575H418.718H418.375L419.232 75.3981L419.918 72.3136L420.946 69.0575L422.317 67.5151L422.66 65.9729L422.145 64.6017L420.603 63.4025L420.946 62.2028L421.46 59.6322L421.803 58.9467L423.002 58.0895H425.915L426.944 57.0613L427.801 54.8339V52.2629L427.115 49.6924L425.23 47.4645L426.773 45.4082L430.029 43.0093L431.399 40.7814L434.484 39.41L440.825 37.6968L443.567 35.2974L442.881 33.241L443.224 31.0131L444.252 28.7852L445.623 27.0713L447.68 25.8721H449.394L451.107 26.7288L452.992 27.0713L456.934 26.3862L458.819 24.5009V22.787L458.476 21.4163L453.335 12.5051V9.76318L454.192 6.6781L455.22 1.19458V-2.57556L454.706 -3.43274H453.678L452.478 -5.66016L451.621 -8.05957L451.278 -10.116L451.621 -12.0012L453.335 -13.5436H450.593L444.252 -15.0858L442.024 -16.114L441.682 -16.4565H441.339H440.996L440.654 -16.114L435.684 -14.5718H434.313L433.113 -15.6L431.913 -18.1704L430.714 -19.1986L431.913 -21.255H430.2L429 -21.9406V-22.9688L430.029 -24.6826L427.629 -27.7671L430.371 -32.0514L434.998 -35.8215L438.254 -37.7069V-38.5636L439.968 -40.62L440.996 -42.6764L440.654 -44.0476H430.543L427.458 -45.9324L425.744 -49.1885L427.629 -50.3882L418.718 -64.0978L415.976 -66.8397H413.577L407.75 -65.469H405.865L405.351 -67.6969L405.865 -70.0958V-72.3237L403.295 -73.5234V-74.0376L403.123 -74.3801V-74.7231L403.466 -75.0657L403.809 -78.1503L402.781 -79.5215L401.409 -80.5497L400.21 -82.4346L399.525 -85.3481L401.752 -84.834L403.809 -86.7189L404.494 -89.4608L404.151 -91.5172V-93.5736L405.351 -95.973L407.407 -97.1727L410.664 -96.8297L412.377 -98.715L413.234 -101.114V-102.999L412.034 -107.798L412.377 -109.34L413.234 -110.54L413.577 -111.396L408.778 -113.11L405.351 -115.338L404.151 -116.537L403.809 -118.423V-121.85L404.151 -123.735L405.008 -125.62L404.665 -126.82L399.353 -126.135L395.583 -127.334L393.526 -127.677L391.47 -127.163L387.7 -125.277L385.644 -124.935V-130.761L383.244 -137.445L382.387 -142.929L386.5 -145.156L388.557 -143.957L390.27 -141.729L392.155 -140.016L394.897 -140.358L396.783 -142.414L399.525 -148.413L401.409 -150.64L414.948 -161.265L423.345 -165.721L425.573 -168.634L422.488 -171.548L425.915 -174.29L427.115 -174.975L423.688 -176.175L416.319 -171.205L412.891 -173.09L411.863 -177.374L412.206 -182.515L413.406 -187.143L414.948 -189.713L418.032 -193.483L425.573 -207.364L427.115 -208.907L430.885 -211.477L432.257 -213.533L433.113 -216.447L433.627 -221.588L434.484 -223.644L432.257 -226.215V-230.499L433.627 -235.469L434.141 -240.096L433.456 -244.38L432.428 -252.092L426.601 -258.947L416.833 -272.314L416.148 -275.227L417.004 -278.655L418.718 -283.967L408.778 -288.251L405.351 -292.536L407.236 -299.219L405.694 -300.761L402.438 -303.161L400.724 -304.017H396.439L395.069 -304.531V-307.102L396.097 -307.959L398.496 -310.358L398.839 -315.157L396.954 -319.784L393.698 -322.354L394.212 -324.41L396.611 -326.124L402.609 -327.152L405.523 -328.352L408.607 -330.58L410.664 -331.78L416.662 -333.322L421.46 -332.122L424.887 -331.265L427.287 -330.751L425.401 -333.836L419.918 -339.663L418.032 -341.034L423.002 -343.776L427.801 -341.548L432.428 -337.777L437.397 -335.721L442.024 -336.749H443.224L444.252 -335.549L445.794 -332.636L446.48 -331.78L452.135 -330.923L454.535 -329.552L455.049 -325.953L460.533 -327.496L461.218 -329.894L460.019 -335.207L469.444 -332.465H472.357L474.756 -333.493L481.954 -338.977L496.521 -343.947L509.545 -344.29L513.486 -346.518L516.914 -350.63L520.341 -356.628L521.541 -358H522.74L523.426 -358.856V-361.77L523.255 -363.312L522.569 -364.511L518.799 -368.453L509.202 -373.765L505.946 -374.794L503.546 -376.507L503.204 -380.106L504.232 -382.506L505.603 -383.191H507.146L508.859 -384.219L510.059 -385.762L511.258 -388.846L511.944 -390.217L514.343 -392.788L516.742 -394.159H517.599L526.339 -395.187L528.224 -396.901L531.48 -403.584L534.394 -406.497L540.734 -409.239L543.648 -411.81L547.075 -417.465L548.617 -419.35L555.129 -423.292L555.472 -424.491L555.129 -425.177L554.273 -426.719L552.901 -431.861V-436.316L554.101 -439.915L557.015 -446.77L558.214 -455.509L556.157 -461.679L547.246 -476.246L546.389 -475.732L545.533 -474.189L544.162 -472.818L540.563 -471.79L536.792 -471.447L532.68 -472.132L525.139 -475.046L513.486 -476.76L509.545 -478.644L506.632 -482.072L505.774 -485.671V-489.955L505.089 -494.239L503.204 -498.01H505.603L513.658 -502.294L508.859 -506.407L507.831 -507.949V-510.006L508.516 -512.062L508.859 -514.29L507.66 -516.86L510.23 -518.745L512.801 -520.631L517.771 -522.173H531.652L539.363 -520.117L546.561 -521.145L548.789 -520.288L553.93 -518.574L556.672 -523.715L557.7 -532.284L559.071 -558.332L560.271 -566.386L561.813 -570.5L563.012 -573.584L575.008 -592.606L578.264 -600.661L579.635 -608.373V-617.113L578.436 -634.592L577.922 -636.649L577.236 -637.848L576.722 -639.391V-642.304L577.065 -644.189L579.121 -649.502L580.149 -653.615L580.663 -657.385V-661.326L580.149 -668.181L581.521 -669.038L583.234 -670.752L584.605 -672.465L585.976 -675.036L586.49 -677.949L585.462 -680.691L589.232 -686.346L591.289 -687.375H594.716L597.972 -686.518L602.942 -683.262L605.684 -682.062L602.085 -687.203L596.258 -689.26L562.841 -690.459L557.357 -693.201L555.129 -700.056V-718.221L555.643 -722.334L558.557 -729.703L559.242 -733.302L560.442 -735.53H563.355L569.182 -734.159L570.038 -736.215L571.41 -736.901L572.438 -739.3L572.095 -742.385L570.724 -744.099L566.44 -746.326L564.555 -748.211L564.212 -751.468L566.268 -754.21L571.067 -757.466L576.379 -763.463L579.293 -765.52L584.777 -771.175L596.258 -775.631L618.708 -778.201L620.251 -777.173L621.793 -774.945L625.22 -774.089L646.813 -778.544L690.684 -784.714L702.337 -781.286V-779.401L701.309 -772.546L705.422 -763.635L711.42 -755.923L716.39 -752.496V-750.953L715.19 -747.869L717.418 -746.84L720.674 -745.984L722.388 -743.413L721.874 -738.957L720.502 -736.729L717.418 -734.33L714.847 -732.959L709.021 -732.445L706.45 -730.903L709.192 -722.677L710.563 -719.592L712.619 -717.536L714.505 -718.393L716.218 -719.078H718.617L720.331 -718.05L723.073 -714.794L724.101 -714.109L725.301 -713.081L726.5 -710.853L728.043 -708.625L730.099 -707.597H732.498L734.212 -708.111L735.755 -709.139L737.468 -710.853L740.553 -715.994L743.809 -724.391L744.666 -732.788L740.381 -737.758L734.555 -736.215L731.47 -736.729L731.813 -740.329L733.013 -744.441L734.041 -752.838L735.24 -756.266L737.125 -758.322L739.525 -759.35L745.694 -759.693L748.436 -758.322L750.664 -755.238L752.378 -751.81L754.091 -749.411L759.918 -746.326L772.428 -743.927L778.083 -741.185V-739.3L774.656 -736.215L771.4 -732.274L769.001 -726.962L768.143 -719.764V-706.054L769.172 -700.056L771.229 -695.6L771.571 -701.598L770.029 -716.85V-724.048L772.428 -729.361L775.855 -731.76L778.94 -734.673L780.311 -741.699L779.626 -742.899L775.855 -752.496L774.656 -753.866L773.113 -757.123L771.743 -760.893L770.714 -765.52L768.658 -771.175L768.143 -775.288L768.487 -779.401L769.343 -783L774.827 -796.709L778.769 -811.619L781.339 -818.302L783.396 -821.387L786.309 -824.129L789.565 -826.014L792.821 -826.699H795.906L797.619 -825.671L801.218 -821.558L806.359 -817.102L811.843 -814.189L823.325 -811.276H829.666L840.291 -814.189L846.118 -813.675L848.86 -816.931L860.513 -819.844H872.166L874.736 -821.558L876.793 -820.016L879.192 -819.502H884.162L885.362 -818.816L888.617 -814.532L902.841 -789.34L908.668 -782.314L912.781 -778.887L914.837 -776.316L916.894 -768.776L927.005 -753.866L929.233 -751.81L931.974 -750.61L935.402 -750.268L937.287 -749.411L946.027 -743.413L955.967 -741.185L964.021 -739.471L965.906 -740.329L964.021 -743.585L958.537 -746.84L945.342 -748.383L940.029 -750.61L929.404 -757.466L924.605 -762.949L922.892 -770.833L922.377 -777.516L921.863 -781.8L920.321 -783.171L913.466 -786.941L911.238 -787.798L907.64 -791.054L904.212 -798.423L901.813 -806.478V-811.447L896.329 -813.504L887.075 -821.558L881.592 -824.986L876.108 -826.357L857.428 -826.699L851.773 -829.27L848.002 -830.298L846.289 -829.27L844.746 -826.699L841.319 -827.899L836.178 -831.841L831.208 -837.839L819.041 -862.516L824.696 -865.087H827.438L830.865 -864.401L836.692 -860.459L839.777 -859.431L843.033 -860.973L844.232 -863.715L845.432 -868.685L846.289 -873.998V-877.768L844.575 -880.338L841.833 -882.738L839.777 -885.308L840.12 -888.221V-889.764L836.521 -890.792L831.379 -889.764L826.581 -887.365L824.011 -884.452H822.982L819.041 -891.477L816.47 -897.133L816.128 -898.333L817.327 -903.302L819.555 -907.586L821.098 -911.528L820.069 -915.298V-917.012L821.783 -918.383L827.952 -920.097H830.523L832.065 -921.639L834.293 -924.723L836.521 -928.665L838.063 -932.435L834.635 -931.75L829.152 -926.951L826.067 -925.581L826.41 -926.437L826.753 -928.151L827.095 -929.008L822.64 -928.494L814.928 -926.095L810.472 -925.581L805.16 -926.437L802.932 -925.581L798.133 -920.953L796.42 -920.439L792.478 -921.81L788.366 -925.581L785.281 -931.064L784.938 -937.576L786.994 -940.147L790.936 -942.032L795.392 -942.889H798.819V-944.432L796.249 -945.117L794.192 -947.002L792.307 -947.687L789.908 -944.603L788.708 -947.345L789.222 -950.258L790.593 -952.829L792.136 -954.885L795.22 -953.514L807.045 -956.77H823.154L826.924 -957.799L830.009 -959.683L836.178 -965.167L841.833 -967.909L844.232 -969.794L845.26 -973.907V-980.077L841.49 -985.903L829.495 -998.756L827.781 -1001.5L827.095 -1004.24L825.724 -1005.44H822.64L819.555 -1004.41L817.841 -1003.21L816.813 -1005.1L821.783 -1008.52L816.642 -1022.23L814.756 -1025.83L810.472 -1028.4L802.589 -1035.43L797.619 -1037.83V-1039.54L798.476 -1044.17L796.591 -1049.31L793.678 -1054.45L791.793 -1058.91L790.936 -1065.59L791.622 -1071.42L793.678 -1078.79L798.819 -1077.24H804.303L814.242 -1080.84L817.67 -1081.36L829.323 -1079.3L840.805 -1074.5L871.823 -1067.13L874.222 -1064.91L874.908 -1062.33L875.422 -1058.74L876.45 -1055.65L879.021 -1054.62H889.646L891.873 -1054.97L893.245 -1056.51L895.301 -1057.02L896.843 -1058.39L899.414 -1059.08L902.327 -1056.34L904.726 -1055.99L906.954 -1056.68H909.01L917.751 -1061.14L920.493 -1064.56L924.091 -1065.93L925.977 -1069.19L927.861 -1070.73L928.375 -1061.65L935.402 -1059.08L944.313 -1058.56L950.483 -1055.82L953.053 -1053.94L956.823 -1052.22L960.251 -1049.82L961.793 -1045.37L963.507 -1042.97L967.277 -1043.66L973.96 -1046.23L973.446 -1051.54H976.874L981.672 -1048.8L985.099 -1044.51L987.156 -1035.94L988.013 -1033.89L989.384 -1032L992.126 -1029.09L990.241 -1027.72H988.355L986.471 -1028.75L985.099 -1029.09V-1028.57L981.501 -1025.66H980.987L980.13 -1024.98H979.444L979.101 -1024.46V-1022.06H981.158L984.928 -1023.26H988.698L990.926 -1020.52L992.469 -1021.89H994.182L995.039 -1020.52L994.011 -1016.92L994.696 -1013.49V-1008.52L994.011 -998.07L993.325 -993.615L992.297 -990.016L990.926 -987.103L989.041 -984.361L984.243 -979.905L978.416 -976.649L972.075 -974.593L965.906 -973.907V-972.194L972.246 -968.938L1007.55 -977.335L1010.29 -976.306L1019.2 -968.594L1016.29 -965.681V-962.939L1017.49 -959.855L1018.35 -955.742L1017.49 -952.315L1015.43 -949.23L1012.86 -947.002L1010.29 -946.316L1010.63 -945.802L1011.15 -945.46V-944.603L1010.29 -942.889L1011.83 -941.175L1012.35 -939.119L1011.83 -936.72L1010.46 -934.32L1013.72 -935.52L1016.12 -938.605L1019.55 -946.488L1021.43 -954.885L1022.46 -956.941L1024 -957.97L1029.48 -958.484L1031.54 -959.683L1032.57 -961.054L1033.25 -962.425L1034.63 -963.796L1036.34 -964.31L1042.51 -963.796L1045.76 -962.254L1054.68 -955.057L1077.81 -944.774L1090.84 -932.435L1096.83 -930.893L1103.52 -932.093L1108.49 -935.177L1116.88 -943.06L1121.68 -946.145L1126.65 -948.201L1138.82 -949.744V-948.03H1136.25L1132.65 -947.859L1135.22 -946.659L1137.79 -947.516L1141.22 -945.117L1151.5 -951.457L1156.13 -949.744L1150.64 -943.574L1149.1 -941.175L1148.24 -941.861L1146.02 -942.889L1147.56 -938.776L1148.93 -928.837L1150.13 -924.038L1149.1 -920.953V-916.669L1150.13 -909.472L1149.44 -905.187L1148.07 -902.96L1146.7 -901.417L1146.02 -899.189L1129.05 -888.05L1123.22 -880.51L1120.65 -878.796L1114.66 -876.74H1113.46L1112.26 -875.712L1111.23 -876.397L1110.2 -877.596H1108.83L1107.63 -876.911L1107.12 -876.226L1101.46 -867.486L1099.92 -865.772V-864.23L1101.8 -859.431L1103.86 -855.832L1106.6 -853.433L1110.54 -852.234L1116.2 -852.748L1117.57 -852.234L1118.6 -849.663V-846.75L1119.28 -844.522L1121.51 -843.836H1122.03H1123.74H1124.42L1126.31 -845.379L1130.59 -849.834L1132.99 -850.863L1135.73 -851.377L1143.45 -855.661L1161.27 -858.06L1162.64 -857.546L1163.67 -856.175L1164.7 -852.748L1165.72 -851.034L1170.87 -849.663L1171.72 -848.464L1171.04 -842.808L1171.38 -840.238L1173.26 -839.209L1177.55 -838.867L1178.75 -839.209L1184.75 -844.35L1185.95 -843.665L1187.49 -840.066L1188.35 -839.209H1194.51V-838.353L1200.17 -831.327L1201.2 -830.641H1202.91V-833.211L1204.63 -837.153L1205.83 -842.123L1205.14 -846.064L1206.17 -847.95L1207.54 -848.978L1208.74 -849.32L1208.4 -850.348L1208.05 -853.09L1207.71 -854.29L1212.68 -859.431V-861.316H1211.65V-862.859L1215.42 -861.316H1216.62L1219.54 -863.544L1222.11 -870.228L1223.99 -871.599L1225.19 -871.941L1226.22 -872.97L1226.9 -874.512L1227.59 -876.397V-877.596L1226.56 -878.454V-879.653L1227.08 -880.853L1227.76 -881.71L1228.27 -882.395L1231.87 -888.907L1236.5 -892.163L1242.16 -893.02L1254.32 -890.792L1289.28 -898.333L1294.77 -901.931L1295.45 -894.734L1294.94 -887.879L1295.28 -882.052L1298.71 -878.111L1297.34 -881.196L1296.65 -887.707L1295.8 -890.107L1297.34 -893.02L1301.62 -895.419L1302.82 -898.847H1301.11H1299.57L1298.02 -898.161L1296.65 -897.133L1297.68 -899.532L1302.65 -906.044L1305.56 -908.786L1308.99 -914.613L1311.05 -915.984L1312.93 -916.498L1323.9 -922.496L1329.38 -927.123L1331.61 -929.693L1336.92 -939.976L1345.66 -952.829L1346.69 -955.228L1352.69 -965.681L1355.09 -972.194L1356.8 -974.422L1359.72 -975.964V-974.422H1358.69L1361.77 -969.452L1368.11 -966.881H1401.53L1407.01 -964.139L1410.44 -966.024L1414.73 -964.996L1416.61 -962.254L1413.01 -958.827L1409.24 -957.97L1393.48 -959.341L1387.31 -961.74L1383.37 -962.254L1382.17 -961.74L1380.62 -959.512L1379.77 -958.827H1376.85L1373.08 -959.512L1371.71 -958.655L1370.86 -955.228L1370 -957.113L1369.14 -956.599L1367.77 -955.399L1366.91 -955.057L1367.26 -952.829L1367.94 -951.8L1368.8 -951.457H1370L1369.49 -951.115H1369.14L1368.97 -950.772V-949.744L1366.23 -951.286L1363.14 -950.943L1360.57 -949.23L1359.2 -946.316L1356.8 -949.401L1353.89 -950.943L1348.58 -951.457L1346.18 -950.258L1344.12 -947.345L1343.09 -943.574L1343.95 -939.633L1341.89 -939.976L1341.04 -940.318L1340.01 -941.175L1338.98 -939.462L1340.01 -936.548L1339.32 -933.635L1337.44 -931.407L1335.04 -930.893L1336.07 -927.465L1337.27 -924.723L1337.61 -922.496L1335.9 -920.439L1342.24 -915.984L1345.84 -915.127L1348.92 -917.012H1346.69L1344.98 -917.697L1341.89 -920.268L1342.92 -923.181L1344.29 -925.409L1347.89 -929.008L1348.75 -929.522L1350.29 -930.036L1350.98 -930.55L1351.49 -931.75V-934.834L1352 -935.863L1354.4 -937.919L1364 -942.546L1361.94 -944.089H1361.09V-945.974L1363.83 -947.002H1364.86L1366.06 -945.974V-947.687L1368.8 -945.288L1373.08 -946.488L1381.14 -951.115L1380.8 -951.971L1380.45 -953.857L1380.11 -954.713L1381.65 -955.913L1383.37 -956.599H1385.25H1387.14V-954.713L1384.91 -954.199L1383.37 -952.143L1382.51 -949.23L1382.17 -946.145L1384.05 -949.401L1384.74 -951.115L1385.25 -953.171L1386.62 -950.772L1388.16 -948.544L1389.88 -947.687L1391.42 -949.573L1393.13 -948.03H1394.68L1396.05 -949.23L1397.42 -951.115L1397.76 -949.23L1398.45 -947.345L1399.3 -945.802L1401.87 -942.546L1402.39 -942.032L1402.9 -942.375L1404.44 -942.718H1407.19L1408.73 -942.889L1410.44 -944.432L1411.64 -946.488L1413.18 -950.601L1414.56 -953L1418.33 -956.77L1424.15 -960.54L1429.98 -962.768L1433.75 -961.74L1431.86 -959.855V-956.941L1432.89 -953.685L1434.61 -951.286L1440.95 -948.03L1442.66 -946.316L1439.92 -941.347L1440.43 -937.405L1444.55 -930.722L1444.89 -927.98V-925.238L1445.23 -923.181L1446.77 -922.325H1453.29V-920.439H1451.91L1450.89 -919.925L1449.17 -918.897L1453.97 -919.411L1461.68 -915.127L1466.82 -913.927L1470.59 -911.871L1475.39 -901.931L1479.33 -898.504L1477.11 -896.961L1475.39 -895.248H1478.99L1484.47 -897.99L1487.39 -896.79L1486.19 -893.877L1485.5 -892.677L1484.3 -891.649L1486.02 -890.621L1487.05 -891.135L1488.07 -891.992L1489.44 -891.649L1490.3 -890.449L1492.36 -884.794L1494.24 -881.196L1496.47 -878.282L1499.21 -876.568H1502.64V-878.282L1501.44 -879.482L1499.73 -882.395L1498.53 -883.423V-885.137L1516.69 -888.736L1520.98 -890.792L1528.52 -895.933L1532.63 -897.305L1533.32 -895.933L1532.97 -894.905L1532.12 -894.048L1530.57 -893.705V-892.163L1535.03 -889.935L1546.68 -880.167V-878.454L1544.63 -874.854L1543.43 -870.056L1541.71 -865.601L1537.77 -863.201L1539.48 -861.831L1543.77 -856.347L1545.31 -853.776L1546.17 -853.09L1550.28 -851.377L1551.31 -850.692L1552 -848.978L1552.51 -847.092L1553.02 -845.893V-845.036V-843.836V-842.808L1553.54 -842.466H1555.59H1556.11L1556.96 -841.78L1557.82 -841.266L1558.68 -840.923H1559.54L1561.42 -839.724V-837.325L1560.73 -834.583L1559.02 -832.183L1548.57 -823.443L1547.03 -820.188L1548.4 -817.102L1551.14 -815.732L1553.88 -815.046L1555.08 -814.189L1555.94 -811.447L1558.16 -808.363L1560.56 -806.306L1562.11 -806.649L1572.9 -797.566L1577.7 -796.538L1580.1 -793.625L1580.61 -793.111L1584.21 -793.453L1585.24 -793.111L1588.84 -790.883L1590.55 -790.198L1602.38 -789.34L1606.49 -790.54L1608.2 -793.967L1609.23 -794.653L1611.63 -794.139L1613.69 -792.082L1614.03 -788.141L1612.83 -786.256L1605.98 -781.286L1607.86 -780.258L1610.09 -779.572L1612.49 -779.23H1613.69V-772.203L1613.35 -768.433L1615.57 -763.635L1618.66 -754.038L1619 -751.639L1618.66 -742.556V-737.072L1619.86 -731.931L1623.46 -726.448L1625 -721.306L1628.08 -716.165L1629.63 -703.483L1632.71 -689.26L1633.74 -684.633V-682.576L1634.08 -678.121L1634.6 -675.721L1635.45 -674.179L1637.68 -672.294L1638.19 -670.923L1640.08 -669.209L1636.31 -661.669L1635.28 -660.126L1633.74 -659.27L1632.2 -657.042L1631.17 -654.129L1630.83 -650.873L1631.34 -646.931L1632.2 -643.503L1632.54 -639.905L1628.08 -626.195L1627.74 -624.139L1625.86 -619.683L1621.4 -614.885L1612.83 -608.03L1603.92 -603.403L1596.89 -598.09V-596.548L1597.75 -594.149L1599.46 -585.58L1599.81 -582.495L1599.12 -577.869L1597.58 -574.955L1593.64 -571.528L1595.35 -568.1L1597.92 -566.044L1601.01 -565.016H1604.26L1607.18 -563.473L1611.98 -557.818L1615.92 -555.761L1631.51 -544.28L1633.74 -541.538L1638.71 -531.598L1640.25 -530.056L1642.99 -528.685L1647.28 -522.859L1656.02 -519.431L1664.59 -509.834L1665.44 -508.806L1670.07 -505.036L1665.96 -496.467L1664.76 -490.812L1667.5 -488.241L1668.18 -485.671L1665.79 -480.016L1662.19 -474.36L1654.65 -467.677L1655.5 -458.08L1658.93 -447.626L1662.02 -440.6L1661.16 -436.316L1664.41 -432.546L1669.38 -429.975L1673.5 -428.947L1677.61 -427.233L1679.84 -423.12V-418.322L1676.92 -414.552V-413.01L1678.98 -409.753L1678.47 -406.326L1676.92 -402.042L1676.07 -395.872L1677.61 -392.445L1687.21 -385.248L1684.46 -381.82L1683.27 -379.764L1682.75 -377.707L1682.41 -375.479L1681.72 -373.251L1678.64 -367.425L1677.78 -365.197L1677.27 -350.802L1676.07 -346.175L1673.84 -341.891L1671.1 -338.292L1662.7 -329.723L1660.82 -325.61L1661.33 -320.64L1663.73 -317.042L1666.3 -315.157L1668.36 -312.415L1668.87 -306.245L1670.41 -300.247L1673.67 -296.306L1680.87 -290.308L1682.75 -286.195L1684.12 -280.197V-274.027L1682.58 -269.401L1679.67 -264.945L1678.47 -260.318L1678.81 -258.604L1679.32 -256.205L1682.58 -252.777L1692.18 -249.521L1695.26 -247.294L1698.69 -245.409L1705.54 -243.352L1708.8 -241.81L1711.03 -240.096L1713.77 -237.183L1715.31 -233.927L1714.11 -231.014L1714.63 -224.844L1715.48 -214.905L1716.17 -210.449L1716.51 -208.907L1719.25 -204.108L1722.51 -200.166L1724.57 -195.54L1723.88 -188.685L1724.39 -187.999L1725.08 -187.314L1722.51 -182.344L1720.45 -176.175L1719.25 -169.662V-163.836L1718.74 -160.923L1717.71 -159.38L1716.51 -158.352L1715.65 -156.81L1715.31 -154.582V-150.126L1714.8 -147.384L1708.29 -130.761L1700.92 -113.11L1695.78 -107.284L1693.72 -103.856V-99.5717L1691.32 -93.4026L1689.95 -90.6605L1688.58 -88.9468L1686.18 -88.2611H1682.92L1677.44 -89.6323L1671.78 -93.9166L1669.73 -95.1158L1664.59 -96.4871L1663.9 -98.2009L1664.41 -102.314L1666.81 -108.14L1667.67 -111.225L1666.81 -113.796H1665.1L1657.05 -110.54L1655.33 -111.91L1656.19 -114.652L1657.9 -117.909L1659.1 -120.651L1659.44 -124.078L1658.93 -126.306L1657.73 -128.191L1656.02 -130.419L1654.3 -131.79L1650.36 -132.818L1648.48 -134.017L1647.11 -135.902L1646.59 -137.273L1646.25 -138.644L1645.39 -140.53L1644.19 -137.273L1642.48 -136.416L1637.17 -136.759L1633.05 -134.874H1631.51L1629.97 -135.731L1628.94 -136.93L1628.26 -138.302L1627.23 -139.33L1621.74 -141.044L1617.12 -140.358L1613.69 -136.759L1611.63 -130.076L1609.92 -127.677L1611.63 -126.477L1616.6 -125.791L1619.52 -124.592V-124.078L1617.97 -123.221V-120.822L1621.57 -117.051L1627.06 -115.509L1631 -113.282L1630.14 -107.455L1625.86 -103.856L1614.37 -104.713L1609.06 -103.684L1607.52 -102.142L1604.78 -98.0294L1603.06 -96.3156L1580.27 -85.8622H1577.53L1572.22 -86.3763L1569.3 -85.6907L1567.76 -84.491L1565.53 -81.5779L1563.99 -80.3782L1562.11 -80.0356L1560.73 -80.5497H1559.54L1558.16 -78.8359L1557.48 -76.608V-74.7231L1557.99 -73.1804V-71.9812L1556.96 -70.6099L1556.11 -70.2673H1555.25L1550.97 -67.5254L1548.4 -67.0112L1541.71 -67.6969L1538.63 -67.3538L1532.97 -65.2975L1530.23 -64.7833H1517.04L1510.35 -63.5836L1504.35 -59.985L1506.07 -56.3864L1505.55 -53.3018L1503.67 -50.7308L1501.27 -48.8459L1502.13 -46.9606V-45.5898L1501.1 -44.5616L1499.73 -43.7045L1497.16 -40.449L1494.76 -38.2211L1492.02 -37.5354L1488.76 -39.0776L1487.73 -40.2775L1485.67 -43.7045L1484.82 -44.5616L1483.1 -45.2473L1482.76 -44.9043V-44.0476L1481.73 -43.0194L1476.25 -39.0776L1475.39 -37.5354L1473.85 -32.9086L1470.76 -31.3657L1468.37 -32.3945L1465.97 -34.1078L1463.05 -34.4508L1458.26 -21.4265L1456.2 -17.6562L1452.6 -14.9143L1444.89 -15.4283L1440.78 -14.0576L1439.4 -13.7146H1438.03H1436.66L1435.46 -14.0576L1434.26 -14.9143L1433.06 -15.2573L1431.86 -14.9143L1430.66 -14.0576L1429.64 -4.63196L1428.61 -0.519165L1426.55 1.87976L1423.3 4.96484L1422.1 6.16406L1417.13 5.82141L1403.59 -2.40454L1402.39 -2.74707L1401.02 -2.40454L1398.96 -1.03333L1398.1 -0.690674L1395.53 -1.03333H1393.13L1390.73 -0.00512695L1388.85 1.87976L1385.59 6.84961L1383.88 8.39197H1381.99L1374.11 7.19275L1363.14 8.04932L1357.32 9.76318L1353.2 13.1903L1352.18 14.2185L1351.66 15.4182L1351.32 16.6179L1350.98 17.6461V18.1602L1351.15 19.0168V19.874L1350.98 20.7307L1350.46 21.0737H1349.09L1348.58 21.4163L1346.86 22.9586L1342.58 25.358L1341.04 26.9003L1336.41 35.1257L1334.7 36.8396L1332.98 38.0393L1331.78 39.7532L1331.44 43.3518L1328.53 47.1219L1327.67 49.3499L1327.16 53.4626L1327.67 56.3761L1328.53 58.775V60.8314L1326.47 62.3738L1323.9 62.0311L1322.36 59.6322L1320.64 53.291V52.0919L1320.3 50.7206L1319.62 49.1783L1318.93 48.3217L1316.36 45.7512L1316.02 45.2366V44.7225V44.2084L1316.36 43.6943H1316.53L1316.7 43.3518H1316.87H1317.05L1317.73 41.9811V40.9523L1317.39 40.0957L1316.36 39.5815H1312.08L1310.02 38.896L1308.31 37.5253L1307.79 35.8114V31.8696L1306.93 29.8134L1304.19 27.757L1297.17 27.2428L1293.4 26.9003L1296.82 30.4989L1298.02 32.5553L1298.54 35.8114L1298.19 38.725L1297.17 39.7532L1295.62 40.7814L1293.74 43.5233L1295.28 46.2653L1302.48 50.7206L1306.08 54.6624L1307.79 57.2328L1308.99 59.9749L1309.33 63.4025L1308.31 68.5433V71.9709L1309.68 75.3981L1311.73 77.2834L1314.13 78.6542L1316.19 80.5396L1317.56 82.767L1317.9 85.1664V87.2228L1318.42 88.594L1340.52 100.418L1342.75 102.646L1348.06 103.16L1350.46 105.56L1350.81 108.816L1349.78 111.9V114.3L1355.6 117.898L1357.66 118.755L1358.52 120.469L1358 124.925L1356.8 128.352L1353.38 134.521L1352.35 137.948L1349.43 137.092L1348.58 140.348V145.146L1348.06 148.917L1345.66 151.315L1339.67 153.886L1337.95 157.313L1338.64 159.713L1340.18 162.626L1343.26 166.91L1345.32 168.796L1347.55 170.338L1352.35 172.737L1354.4 173.765L1355.6 176.164V179.078L1354.4 181.819L1354.75 182.162L1355.95 182.677L1355.26 184.39V184.905L1356.63 186.789L1360.06 188.675L1361.6 190.388L1362.63 192.787L1363.32 197.757L1363.83 200.328L1364.69 203.07L1365.54 205.126L1366.74 206.84L1368.29 208.554L1370 209.068H1371.54L1372.57 209.753V213.523L1373.25 220.892L1373.94 224.491L1375.65 227.747L1378.57 230.146L1385.25 233.402L1388.16 236.487L1392.96 247.283L1395.36 249.683L1398.28 250.711L1406.84 251.911L1409.59 251.568L1408.9 248.655L1410.96 247.969L1416.61 249.511L1419.01 250.882L1421.07 252.596L1425.18 257.052L1427.75 258.08L1428.61 259.965V262.193L1429.46 264.249L1434.09 269.733L1435.98 270.761L1449.69 289.44L1451.57 293.896L1453.97 297.667L1458.08 300.066L1466.99 300.408L1469.91 301.608L1471.62 303.151L1476.08 309.149L1482.25 315.489L1483.96 319.43V325.6L1486.19 329.028L1490.47 332.969L1495.1 336.225L1498.53 337.939L1500.07 333.997L1501.44 331.598L1503.5 330.741H1504.35L1506.75 331.427L1509.32 332.969L1511.72 335.025L1514.29 336.396L1517.04 336.053L1517.38 340.338L1518.92 344.451L1521.15 347.878L1523.72 350.449L1526.46 351.82L1531.94 352.676L1534 353.876L1537.43 359.189L1544.45 373.241L1547.37 376.155L1549.08 372.556ZM1606.83 -839.038L1604.26 -832.355L1603.06 -831.498L1601.69 -831.155L1604.26 -828.07L1605.46 -824.129L1588.84 -822.244L1585.58 -822.758L1583.18 -824.472L1579.76 -820.702L1575.47 -818.131L1567.08 -815.903H1557.82L1552.68 -817.274L1549.94 -820.873L1551.82 -821.558L1554.91 -823.957L1559.71 -824.986L1564.85 -827.899L1566.22 -829.441L1567.25 -836.639L1561.76 -846.921L1562.11 -853.262L1569.47 -852.748L1572.05 -851.72L1571.02 -849.834L1571.36 -848.464L1570.16 -843.665V-839.724L1572.22 -843.836L1574.1 -844.865H1580.1L1579.41 -844.179L1578.9 -843.494L1578.56 -842.637V-841.266L1583.36 -839.724L1582.16 -842.98L1584.04 -849.149L1583.7 -855.832L1581.64 -859.945L1578.21 -858.574L1577.02 -862.687L1575.47 -866.115L1573.42 -868.685L1571.02 -870.57L1568.1 -871.256L1565.19 -870.57L1563.65 -868.685L1565.02 -865.601V-863.715L1563.82 -863.03L1562.45 -861.488L1561.42 -859.603L1560.91 -857.717L1560.05 -857.203L1554.91 -855.318L1555.25 -858.574L1556.28 -860.631L1557.48 -862.173L1557.82 -863.715L1557.14 -866.8L1556.11 -867.143L1554.91 -866.286L1550.28 -864.23L1548.05 -861.316L1546 -859.26L1543.08 -860.459L1544.28 -865.258L1548.22 -873.484L1549.08 -879.996L1547.71 -883.766L1541.71 -890.107L1539.83 -892.849L1541.2 -895.591L1543.43 -897.99L1546.17 -899.018L1548.91 -897.819L1550.28 -895.419L1553.19 -887.193L1554.91 -883.937L1558.85 -879.996L1568.45 -874.34L1573.93 -872.284L1578.39 -869.542L1604.09 -841.266L1606.66 -839.381L1606.83 -839.038ZM521.198 -756.437L517.942 -755.923L512.801 -753.695L510.059 -753.01V-751.468L511.772 -750.782L512.972 -749.925L514 -748.383L515.029 -745.984L513.658 -746.669L511.772 -748.897L510.573 -749.411L509.03 -749.068L506.803 -747.869L505.946 -747.526L503.375 -748.897L501.319 -751.81L500.805 -754.724L502.518 -756.094L513.658 -759.522L519.141 -759.865L521.027 -756.094L521.198 -756.437ZM532.337 -773.231L537.821 -775.973L557.7 -778.544L563.355 -776.83L532.337 -773.231ZM570.382 -781.972L577.065 -785.913L584.948 -787.284L601.571 -786.941V-785.742V-785.399H601.228L594.373 -782.657L576.551 -780.258L570.553 -781.972H570.382ZM604.484 -786.941L606.884 -788.655L609.797 -789.169L612.539 -788.484L614.424 -786.941L613.909 -785.913L613.395 -785.57L612.196 -785.228L606.369 -787.113H604.142L604.484 -786.941ZM714.847 -785.056L716.732 -788.312L719.646 -789.512L722.902 -788.998L725.986 -786.77H723.93L722.559 -786.256L720.16 -784.028L719.474 -783.514L718.275 -783.856L717.418 -784.371H716.561L715.019 -783.514V-785.228L714.847 -785.056ZM626.591 -795.167H639.615L642.529 -793.453V-792.425V-792.254H642.186L641.843 -792.082L631.218 -792.425L626.248 -791.226L625.906 -786.941H621.621L620.251 -787.97L619.737 -791.226L620.422 -794.139L622.307 -795.339H626.762L626.591 -795.167ZM647.67 -795.339L651.44 -799.965L657.609 -801.337L669.948 -800.479V-798.766H667.892L664.636 -796.709L660.522 -794.996H656.238L652.639 -797.052L651.269 -795.167L649.897 -794.139H648.698L647.499 -795.167L647.67 -795.339ZM678.859 -798.937L676.117 -800.994L676.803 -802.536L679.373 -803.565L682.458 -803.907H684.857L687.085 -803.05L691.026 -800.651L689.656 -800.994H688.113L681.944 -802.193H679.373L679.202 -799.109L678.859 -798.937ZM1191.77 -849.834L1194 -855.49L1199.31 -860.117L1205.31 -862.173L1209.77 -860.117L1205.48 -847.092L1203.94 -844.865H1202.06V-846.578L1203.08 -850.863L1202.4 -853.776H1201.2L1200.34 -851.72L1201.03 -848.292L1198.8 -846.407H1196.4L1194 -847.95L1191.77 -849.834ZM1214.22 -872.97V-873.484L1215.08 -875.369L1225.02 -880.167L1227.08 -882.224L1224.68 -878.796L1217.82 -872.627L1215.94 -868.685H1215.08L1214.22 -873.141V-872.97ZM838.406 -985.389L837.72 -985.046L837.378 -984.361V-983.161V-981.79L834.635 -979.22L832.751 -976.135L830.694 -973.222L827.267 -971.508L820.926 -970.994L817.841 -972.022L816.299 -974.936L817.841 -975.792L818.184 -977.163L817.498 -978.706L816.299 -979.905L820.926 -984.361L826.067 -986.76L831.893 -987.103L838.406 -985.389ZM1174.12 -974.078L1182.69 -957.799L1164.35 -960.883L1161.61 -959.341L1162.3 -958.313L1162.98 -957.799L1157.16 -957.455L1153.39 -958.141L1151.67 -960.197L1152.02 -965.338L1151.33 -967.224L1149.27 -968.08H1145.5L1143.96 -967.738L1142.93 -966.196H1141.9L1141.39 -968.08L1140.88 -969.109H1140.02L1138.31 -968.08L1137.96 -971.508L1142.08 -981.619L1147.9 -987.274L1154.93 -988.474L1167.44 -982.99L1171.21 -979.734L1172.41 -978.191L1174.64 -973.907L1174.12 -974.078ZM1450.71 -1004.24L1447.12 -1001.33L1446.26 -997.214V-992.244L1444.72 -987.103L1443.69 -985.732L1441.63 -983.847L1440.78 -981.961L1440.26 -979.562L1439.92 -976.992V-971.68H1438.72V-975.107L1439.06 -980.933L1443.69 -997.556L1444.72 -1003.9L1445.74 -1005.61L1448.14 -1006.3H1450.2L1451.91 -1006.12L1452.77 -1004.58V-1001.84V-1002.18L1452.43 -1002.7H1451.91V-999.27H1451.06V-1004.41L1450.71 -1004.24ZM1531.94 -952.315L1535.89 -945.117L1538.46 -941.861L1542.06 -940.49L1540.17 -939.119L1538.29 -936.72L1536.91 -933.464L1536.4 -929.351V-925.409L1535.89 -923.867H1534.34L1531.09 -925.067H1532.8L1534.17 -925.752L1534.69 -927.465L1534.17 -930.207H1533.14L1531.6 -928.494L1529.37 -927.637H1526.97L1525.26 -928.494V-930.207L1530.74 -932.607L1532.97 -934.32L1534.17 -937.234L1526.63 -936.72L1523.2 -935.691L1520.29 -933.635L1528.35 -939.29L1531.09 -940.49V-942.204L1527.15 -942.546H1525.09L1523.72 -941.347L1521.66 -938.948L1520.46 -939.462L1519.26 -941.175L1517.55 -942.204L1502.98 -940.49L1500.41 -938.776L1492.7 -931.921L1490.99 -929.351L1489.27 -925.581L1485.67 -924.895L1482.42 -923.181L1481.9 -916.498L1483.96 -918.211V-919.411L1483.62 -919.754H1483.28L1483.1 -920.097L1490.13 -921.296L1491.16 -920.782L1492.19 -915.127L1491.84 -912.556L1489.62 -911.357L1485.5 -912.042L1480.88 -913.756L1475.73 -917.183L1476.93 -918.554L1477.79 -921.467L1479.33 -925.238L1477.11 -924.038L1476.08 -923.01L1475.22 -921.639L1475.73 -920.953L1476.08 -920.097L1473.16 -920.439L1471.62 -920.097L1470.59 -919.24L1469.22 -918.554L1467.85 -919.583L1466.48 -921.125L1465.62 -921.81L1463.4 -922.153L1460.83 -923.353L1459.28 -925.581L1460.14 -928.837L1458.08 -929.522L1453.63 -927.294H1452.09L1451.06 -929.008L1451.91 -930.722L1453.8 -931.407L1456.03 -930.55V-932.093L1446.94 -939.119L1449 -944.432L1451.91 -948.887L1455.68 -950.601L1460.14 -947.687L1461.17 -949.401L1462.88 -947.687L1464.94 -948.03L1469.22 -950.943H1466.99L1465.28 -952.829L1464.6 -955.228L1465.28 -957.799V-959.341H1463.22L1462.2 -960.712L1461.34 -962.083L1459.8 -962.768L1453.29 -961.054L1455.86 -966.367L1456.88 -967.738L1460.83 -968.766L1465.28 -971.165L1468.37 -971.68V-973.393H1468.54L1469.39 -973.907L1470.25 -975.107L1466.14 -976.649L1464.42 -977.849L1463.22 -980.077L1463.74 -980.591L1464.25 -980.933V-981.79V-983.504L1459.97 -981.79L1457.4 -981.447L1456.2 -982.647L1455.86 -983.504H1455.17L1454.48 -984.361L1454.14 -986.246V-988.474L1453.46 -989.845L1452.43 -990.359H1451.06L1454.48 -991.901L1465.62 -993.615L1468.02 -993.101L1468.88 -991.559L1470.59 -990.873L1472.31 -989.502L1473.16 -986.246L1473.85 -984.532L1475.05 -985.561L1475.56 -988.474L1474.36 -992.415L1476.42 -995.328L1479.16 -998.07L1481.9 -1000.13L1484.3 -1000.98L1482.59 -995.843L1481.56 -993.615L1480.36 -992.244H1481.22H1482.08L1482.76 -991.73L1483.45 -990.53L1482.76 -989.331L1481.39 -985.732H1483.45L1485.16 -986.246L1486.53 -987.788L1487.39 -990.53L1486.19 -990.873L1484.82 -992.073L1483.62 -992.415V-994.129L1485.67 -996.014L1487.39 -992.587L1489.96 -989.331L1491.67 -985.903L1490.64 -982.133L1493.56 -977.849L1497.16 -976.478H1504.7L1503.67 -978.534L1505.04 -981.79L1505.72 -982.819L1506.75 -983.675V-985.561L1505.55 -988.988L1504.7 -990.701L1503.5 -992.073V-993.786L1504.35 -994.472L1504.87 -994.986L1505.38 -995.5L1506.58 -995.843V-997.385H1504.7L1503.5 -996.185L1502.64 -994.814L1501.61 -993.958L1500.07 -993.615L1495.1 -993.958L1494.24 -994.814L1493.39 -996.528L1492.36 -998.242L1490.99 -999.098L1488.76 -999.613L1487.9 -1000.81L1487.39 -1002.53L1486.36 -1004.24L1484.65 -1006.81L1484.3 -1007.84L1482.42 -1006.12L1481.22 -1004.93L1478.82 -1001.67L1475.39 -999.613L1472.82 -996.871L1470.25 -994.814L1467.34 -995.671L1466.82 -998.584L1467.85 -1003.21L1469.74 -1007.5L1471.79 -1009.38L1472.31 -1010.41L1472.99 -1012.81L1473.34 -1015.21L1472.99 -1016.24L1466.48 -1014.52L1464.25 -1012.98L1463.4 -1013.32V-1016.24L1464.25 -1017.95L1465.8 -1019.66L1467.51 -1020.86L1487.56 -1026.69H1491.67L1495.61 -1024.63V-1023.09L1493.39 -1021.21L1490.3 -1019.49L1487.56 -1017.09L1486.36 -1013.49L1486.87 -1009.04L1488.07 -1005.44L1489.96 -1002.7L1492.36 -1000.64L1498.53 -998.584L1517.55 -1002.18L1524.06 -1000.81L1528.52 -995.843L1529.55 -989.331L1525.78 -983.161L1519.26 -978.877L1516.01 -975.792L1514.64 -972.022L1515.15 -967.738L1516.52 -963.282L1518.24 -959.512L1519.78 -957.284L1522.86 -955.742L1529.72 -954.028L1532.8 -951.8L1531.94 -952.315ZM746.037 -1028.4L753.406 -1014.52L756.148 -1012.98L754.091 -1011.27L749.121 -1009.38L745.694 -1012.47L742.952 -1017.44L740.039 -1021.38L744.323 -1029.43L746.894 -1032.34L750.15 -1033.54V-1032.34L749.978 -1032H749.636L749.293 -1031.83L747.75 -1030.12L746.208 -1028.23L746.037 -1028.4ZM770.2 -1044.17L778.426 -1043.66L781.682 -1041.6L784.252 -1037.14V-1035.43L783.053 -1033.37L781.339 -1028.57L780.14 -1026.86L778.083 -1026.18L775.684 -1026.52L773.456 -1027.38L772.257 -1028.4L768.487 -1027.03L763.688 -1028.57L755.12 -1033.89L758.033 -1039.2L761.289 -1042.46L765.23 -1044L770.2 -1044.34V-1044.17ZM750.15 -1092.84L749.293 -1083.76L754.262 -1079.13L761.289 -1077.42L793.164 -1078.96L789.565 -1076.04L771.229 -1077.07L769.001 -1075.87L764.887 -1072.62L762.66 -1071.93H752.549L751.52 -1072.45L750.321 -1074.67L749.121 -1075.36H747.75L746.722 -1074.84L742.267 -1071.76L741.581 -1071.07L741.239 -1069.19V-1064.22L740.553 -1063.19L741.067 -1049.31L740.724 -1044.85L740.039 -1041.43L739.182 -1040.74L738.154 -1044.34V-1051.02L739.696 -1078.61L741.067 -1084.1L752.206 -1115.29L758.376 -1123L765.402 -1119.23L756.49 -1118.72L755.291 -1117.52L759.404 -1117.17L760.603 -1114.09L759.232 -1110.66L753.234 -1107.23L750.492 -1103.12L748.95 -1097.98L750.321 -1093.18L750.15 -1092.84ZM790.25 -990.187L799.676 -994.129L800.019 -991.387L798.819 -985.217L795.392 -979.905L791.279 -977.506H788.023L786.138 -979.22L784.595 -982.819L785.452 -986.931L788.023 -988.988L789.051 -989.502L790.079 -990.187H790.25ZM683.315 -899.361L682.629 -898.847V-899.875L681.773 -900.046L681.259 -901.246L680.573 -902.103L679.716 -902.96H681.944L682.801 -902.103L683.315 -899.532V-899.361ZM684.515 -902.274L687.085 -902.96L687.599 -901.589L685.2 -900.903L684.343 -902.274H684.515Z" fill="white" fill-opacity="0.2"/>
<path d="M-103.579 -153.922L-100.665 -156.15L-95.1814 -158.035L-75.3023 -173.115L-44.7982 -191.11L-15.3224 -210.474L17.5806 -221.1L18.7803 -212.188L18.0947 -206.361V-200.877L19.98 -195.051L23.5787 -191.11L24.6068 -190.595L28.0345 -189.053L32.6613 -188.539L39.5161 -189.567L39.8591 -191.795L39.5161 -194.708L39.8591 -197.45L41.4014 -199.164L43.6293 -199.678H46.0282L51.8548 -201.049H55.4534L59.2236 -200.706L77.2179 -194.708L79.9599 -192.823L80.645 -189.738V-187.168V-184.768L82.8729 -182.198L84.7583 -181.341H102.066L105.322 -182.541L112.006 -187.853L130.172 -196.936L137.369 -202.591L143.196 -210.474L144.053 -212.874L145.081 -218.358V-219.386H145.252L147.994 -216.815L149.193 -214.416L150.222 -210.132L152.621 -207.218L155.363 -204.819L157.077 -202.591L157.591 -201.049V-199.678L157.419 -197.964L156.391 -196.25L156.049 -195.736L157.762 -196.593L158.962 -197.964L161.018 -202.42L156.049 -204.476L154.849 -205.333L154.335 -207.39V-212.531L153.992 -214.93L152.964 -216.815L150.907 -219.386H153.821H155.192L160.504 -216.472L163.418 -215.444L170.272 -214.93L173.014 -216.472L173.7 -220.585L172.843 -222.813L169.587 -226.755L168.387 -228.811V-231.21L169.416 -233.095L169.758 -234.809L168.044 -236.694L175.756 -241.15L183.639 -244.063L187.923 -244.748L189.809 -244.406L191.008 -242.521V-238.579L189.637 -235.666L189.295 -233.438L192.036 -231.381H193.922L198.206 -231.895L202.833 -230.696H205.061L206.946 -231.553L208.488 -232.753L219.799 -246.634L224.597 -249.204H226.654L229.396 -248.004L231.794 -246.462L233.337 -244.406L233.68 -240.807L232.823 -237.379L232.138 -233.781L233.166 -229.668L226.825 -232.581H225.111L224.254 -229.497L227.339 -228.125L237.621 -227.783L240.363 -227.097L246.019 -224.527L249.103 -225.384L252.873 -228.982L256.3 -233.609L258.528 -237.379L259.556 -240.293L260.071 -242.521L260.928 -243.892L263.156 -244.406L263.498 -243.892L267.954 -240.978L270.867 -235.495L270.353 -231.553L268.639 -227.783L268.125 -222.642L268.982 -220.414L273.952 -214.758L274.809 -212.702L276.351 -207.561L277.037 -206.019L279.607 -204.648L285.262 -205.162L288.004 -204.819L290.575 -201.563V-193.166L293.146 -192.48H294.174L298.801 -193.851L316.109 -193.166L319.194 -194.366L325.363 -198.65L328.276 -200.021L331.361 -199.678L334.789 -197.45L337.531 -193.851L338.559 -189.396L339.073 -184.083L339.93 -183.398L342.329 -181.341L350.554 -178.771L352.611 -177.4L353.982 -175.857L355.524 -174.658H358.095L364.264 -176.029H366.149L368.549 -174.315L371.633 -170.031L373.519 -168.317L377.974 -169.517H380.544L381.916 -166.432L382.258 -165.232L380.202 -163.176L379.688 -160.434L382.944 -156.835L381.573 -155.978L380.03 -155.464H378.488H376.946L377.289 -153.75V-153.065L377.974 -152.208L376.946 -148.952L376.089 -147.239L375.061 -145.696L373.347 -147.239L372.147 -146.553L371.462 -144.325L371.119 -141.241L373.176 -138.499L370.777 -132.843L364.95 -123.589L368.206 -124.446H369.577L370.948 -123.589L369.234 -120.847L366.663 -115.535L364.779 -112.621L364.093 -112.107L362.379 -111.422L360.666 -110.736L350.04 -98.9118L350.383 -93.7704L352.782 -90.1717L355.182 -88.4579L356.038 -87.9438L359.123 -86.4015L361.351 -85.7159L361.008 -82.9744L359.466 -77.6615L362.208 -76.1192L363.75 -75.7766L365.293 -76.1192L365.978 -77.1474L367.521 -79.5468L368.891 -80.575L370.434 -80.0609L373.519 -76.8048L375.061 -75.7766L387.742 -76.1192L389.456 -75.6051L390.998 -75.091L401.623 -74.7484L404.537 -75.2625V-74.92L404.194 -74.5769V-74.2343L404.365 -73.7202L406.764 -72.5205V-70.2926L406.25 -67.8937L406.764 -66.0083H408.65L414.476 -67.3796H416.876L419.617 -64.2945L428.529 -50.585L426.643 -49.3853L428.357 -46.1292L431.442 -44.5869H441.553L441.896 -42.8731L440.867 -40.8168L439.154 -38.7604V-37.9037L435.897 -36.0184L431.271 -32.2482L428.529 -27.9639L430.928 -24.8794L429.728 -23.1656V-22.1374L431.099 -21.6233H432.813L431.613 -19.5669L432.813 -18.5387L434.013 -15.9683L435.212 -15.1111H436.583L441.553 -16.6534L441.896 -16.9964H442.238H442.581L442.924 -16.6534L445.152 -15.6252L451.492 -14.0829H454.234L452.521 -12.3691L452.178 -10.4843L452.521 -8.42789L453.377 -6.02844L454.577 -3.97208H455.605L456.119 -2.94389V0.826294L454.92 6.3103L453.891 9.39484V12.1368L459.204 21.048V22.4192L459.547 24.1325L457.661 26.0179L453.72 26.7035L451.835 26.3604L450.122 25.6753H448.408L446.351 26.7035L444.98 28.4168L443.952 30.6447L443.609 32.8726L444.294 34.929L441.553 37.3284L435.212 39.0422L432.127 40.413L430.757 42.6409L427.5 45.0398L425.958 47.0967L427.843 49.3241L428.7 51.8951V54.4655L427.671 56.6935L426.643 57.3785H423.73L422.531 58.4067L422.188 59.0924L421.674 61.6628L421.331 62.8625L422.873 64.0623L423.387 65.433L423.045 66.9753L421.674 68.5181L419.446 67.4899L419.103 65.6046V63.3766L418.589 61.3203L416.704 59.4355H415.504L414.476 60.6346L413.276 61.4918L410.02 62.0059H408.307L407.621 61.4918L406.25 60.8062L405.393 59.0924L404.879 56.8645L404.023 55.8363L401.795 57.7216L398.71 58.0642L397.511 60.1205L396.825 63.2056L395.625 66.4612L393.397 68.6891L387.914 71.4311L385.514 73.659L385 75.0298L384.658 78.8L384.315 80.3427L383.458 81.7135L381.402 83.5983L380.544 84.9696V87.54V89.5964L380.202 91.3102L379.174 92.5099L376.26 93.8807L375.404 95.0804V98.165L376.26 99.3647L376.774 100.564L375.232 103.649L374.033 104.849L371.805 105.363L370.777 106.048L369.577 107.591L369.063 108.79L368.72 109.99L368.206 111.361L363.065 120.1L362.551 122.328L364.264 123.186L367.521 125.584L368.891 127.641L365.121 127.298V128.669L364.95 129.355L364.607 129.869L364.264 130.725L365.635 132.097L363.921 133.296L363.236 135.524V138.266L364.264 141.179L365.807 143.75L367.349 144.435L368.891 144.778L370.777 145.978L371.805 147.348L375.232 154.204V155.232L375.746 158.316V158.83L376.603 159.516L378.66 160.201L379.516 160.715H380.373H381.23H382.258L383.115 162.087V162.601L383.286 163.8L382.772 164.657L382.087 165.514V166.713L381.744 168.256L381.23 168.941V169.798L381.573 171.512L382.601 172.197L385.514 172.54L386.543 173.397L387.4 176.653L386.543 178.538L385 179.909L383.801 181.28L381.916 186.421L380.716 188.649L379.002 190.191L381.402 191.562L380.03 195.161L376.603 198.76L373.176 200.474L371.462 200.131L368.206 198.075H366.663L365.121 198.76L363.236 201.331L361.351 202.187L358.266 201.673L355.182 200.131L351.926 199.445L348.327 201.331L346.613 203.73L346.27 205.272L345.756 206.129L343.529 206.472L342.329 206.129L337.702 203.901L334.96 205.101L331.361 208.014L327.591 210.242L324.506 209.385L323.65 207.328V205.272L324.335 203.216V200.817L323.821 198.76L316.794 185.907L315.252 184.536L314.053 183.508L309.597 181.794L307.883 180.766H307.027L306.513 181.28L305.827 182.48L305.141 183.68L304.113 184.022L301.714 183.508L301.029 182.651L300.686 180.594L301.2 177.338L302.399 176.653L303.085 175.796L302.057 172.369L299.143 168.941L296.059 165.857H292.974L286.29 167.742L282.863 166.713L280.121 164.657L277.893 162.601L271.724 153.518L270.01 151.804L264.869 150.262L261.956 148.548L256.472 143.236L253.901 141.693H253.559H250.817L244.476 143.921L241.22 144.435L237.45 143.921L236.079 142.207V133.81L235.736 132.439L234.365 130.04L234.022 128.841L234.365 127.47L235.736 125.927L236.25 124.728L237.107 121.986L237.793 120.1L238.135 118.216L237.793 115.302L235.565 111.189L228.71 108.276L226.825 105.02L227.51 101.421L233.166 87.3685V84.9696V83.0842V81.0279L236.079 75.0298H236.936L238.478 76.5726L238.821 72.6308L239.677 68.004V64.0623L238.478 62.3484L233.851 63.3766L232.138 62.691L231.452 59.2639L227.51 61.1487L211.915 76.9151L211.059 78.6289L210.716 80.8568L211.059 82.2276L211.573 83.4273V84.9696L210.545 92.1669L209.516 95.7661L208.145 98.3365L206.603 99.3647L200.434 100.393L180.041 110.504L175.756 111.189L174.728 110.847L152.793 104.849L143.71 106.219L141.482 106.562L139.597 106.048L131.371 101.593H132.399V98.3365L131.371 94.9089L130.686 94.5663L131.371 91.8243L132.056 90.1105L133.085 88.7398L135.827 86.1693L139.254 83.7699L142.853 82.056V80.5138L141.825 78.6289L140.968 76.5726L138.569 66.8043L137.198 66.1187H135.656L132.742 67.6609L130.686 66.6328L131.028 62.52L133.77 53.4373L134.627 49.3241L135.312 47.4393L136.855 45.2114L140.282 42.4694L141.654 40.7555L141.996 38.3566L141.139 36.8143L139.254 35.2721L137.369 34.0723L135.998 33.5582L134.113 34.4149V35.9572V37.5L133.085 38.5281L130.343 37.3284L126.401 28.7599L123.317 26.0179L120.232 24.1325L115.433 18.82L112.52 17.4493L109.436 17.7919L100.182 21.7336H96.9255L94.355 20.5339L91.7845 18.82L88.6995 17.2778L82.5304 16.5927L76.1897 17.1068L74.1333 17.7919L72.9336 19.1631L70.3632 23.6184L69.6775 25.5038L69.335 26.1894L68.6493 26.7035H68.4778H68.3063L67.7922 28.2458L62.6512 23.4474L61.2805 14.0217V3.39676L60.0808 -5.51436L57.6813 -9.79863L54.7683 -12.5406L51.5122 -14.0829L48.2561 -14.7685H38.8309L36.9456 -16.1393L38.3163 -18.7103V-20.5951L37.6312 -21.7948L35.5748 -22.4799H33.518L31.9757 -21.2807L30.6049 -19.7384L28.5486 -18.1956L22.2079 -15.7967L18.6087 -15.4542L16.0383 -16.1393L9.69764 -19.3954L7.81229 -20.9377L5.5849 -23.8512L4.89927 -26.4216V-33.7905L0.786537 -46.8148L-0.413193 -53.4986L1.64318 -57.2688L-0.0706329 -62.7522L-1.27036 -64.8086L-3.15519 -65.4942L-5.21156 -65.8373L-6.41129 -67.2081L-8.1251 -71.6639L-10.1815 -75.2625L-12.5804 -79.7183L-14.9798 -82.1173L-18.75 -83.317L-30.4031 -79.7183L-38.115 -77.3189L-41.5421 -75.2625L-44.2841 -72.349L-48.74 -64.6376L-50.6248 -63.0953L-52.8527 -63.6094L-53.5383 -63.952L-65.1914 -69.2644L-67.9334 -71.4923L-68.7906 -72.8631L-70.6754 -77.4904L-71.5321 -79.0327L-77.0161 -84.1736L-78.0443 -85.8875L-78.5584 -87.4297L-79.244 -88.801L-81.1288 -89.8292H-82.5001L-85.2421 -89.6576H-86.4418L-88.6692 -90.1717L-89.6974 -90.6858L-90.5546 -92.0571L-91.7543 -94.9701L-92.4394 -95.6557L-94.1532 -96.5124L-94.6673 -97.3695V-98.3977L-93.2966 -100.968V-102.51L-96.0386 -112.621L-95.1814 -114.678L-91.7543 -118.105L-90.8971 -119.476L-91.4112 -124.103L-93.6391 -127.531L-98.9516 -133.357L-100.323 -137.813L-101.865 -148.095L-104.093 -153.408L-103.579 -153.922Z" fill="white" fill-opacity="0.1"/>
<path opacity="0.8" d="M421.068 69.2439L420.04 72.5L419.355 75.5845L418.498 81.9257H418.841H419.697H420.04L419.526 82.7823L418.155 85.3528L419.697 86.21L420.725 88.0948L421.583 92.8932L421.239 95.4636L421.925 97.349L424.496 101.119L426.723 107.46L427.923 109.516L429.465 106.432L432.036 110.544L436.834 122.197L439.062 124.597L444.032 126.825L446.088 128.196L446.774 129.395L447.288 130.938L448.145 133.337V134.022H449.516L451.744 132.651H453.115L455.514 134.194L459.798 138.135L462.197 139.678L464.768 140.363H471.794L476.25 141.734H476.764L477.621 142.591L477.278 142.934V144.819H477.107L476.421 149.789V151.331L476.764 152.359V153.216L475.222 154.415V156.472L475.393 158.357L476.078 159.899L477.107 161.27L475.907 160.756L475.222 161.099L474.708 162.127L475.736 163.327L476.078 163.841L465.282 170.867L463.054 174.123L463.397 174.809L464.254 175.494L465.111 176.351V177.893L464.768 178.921L463.74 180.635L462.197 183.72L458.427 188.347L456.199 191.774L455.343 194.174V201.371L455 203.599L453.971 210.797L454.486 217.651V219.365L451.572 219.023L447.631 216.966L440.604 211.825H440.262L436.32 210.111L432.207 209.597L423.81 210.454L424.839 212.51L420.725 212.853L419.697 213.195L418.841 214.567V215.938L418.498 217.137L416.784 217.823L415.413 220.051L413.185 220.907L400.675 221.593L398.105 222.45L396.048 215.938L393.306 213.195L384.052 210.968L380.454 209.254L377.883 206.855L373.256 200.686L376.683 198.972L380.111 195.373L381.482 191.774L379.082 190.403L380.796 188.861L381.996 186.633L383.881 181.492L385.08 180.121L386.623 178.75L387.479 176.865L386.623 173.609L385.595 172.752L382.681 172.41L381.653 171.724L381.139 170.01V169.154L381.824 168.468V166.926L382.167 165.726L382.853 164.869L383.367 164.012V162.813L383.195 162.299L382.338 160.928H381.31L380.454 161.099H379.596L378.74 160.413L376.683 159.728L375.826 159.043V158.529L375.484 155.444V154.415L371.885 147.561L370.857 146.19L368.972 144.99L367.429 144.647L365.887 143.962L364.345 141.391L363.488 138.478V135.736L364.002 133.508L365.715 132.309L364.345 130.938L364.687 130.081L365.03 129.567V128.881L365.201 127.51L368.972 127.853L367.601 125.797L364.345 123.397L362.631 122.541L363.145 120.313L368.286 111.573L368.8 110.202L369.143 109.002L369.657 107.802L370.857 106.26L371.885 105.574L374.112 105.06L375.312 103.861L376.854 100.776L376.34 99.5769L375.312 98.3772V95.2926L376.34 94.0929L379.254 92.7216L380.282 91.5224L380.625 89.8086V85.0102L381.31 83.639L383.367 81.7542L384.224 80.3829L384.566 78.8406L384.909 75.0704L385.423 73.6997L387.822 71.4718L393.306 68.7298L395.534 66.5019L396.734 63.2458L397.419 60.1612L398.619 58.1049L401.703 57.7623L403.931 55.877L404.788 56.9051L405.302 59.133L406.159 60.8469L407.53 61.5325L408.216 61.875H409.929L413.185 61.5325L414.385 60.6753L415.413 59.6471H416.613L418.498 61.361L419.183 63.4173V65.6452V67.5301L421.411 68.5588L421.068 69.2439Z" fill="white"/>
<path d="M333.508 254.85L326.462 255.756L326.261 278H340.151L333.508 254.85Z" fill="#FF78B9"/>
<path d="M330.185 256.864C322.938 257.87 318.912 256.662 315.792 254.045C315.49 253.743 315.389 253.341 315.691 252.938C315.792 252.737 315.993 252.636 316.194 252.636L342.666 249.113C343.069 249.013 343.472 249.315 343.472 249.717C343.472 249.918 343.472 250.12 343.371 250.22C341.056 253.643 337.432 255.857 330.185 256.864Z" fill="white"/>
<path d="M327.67 238.041C329.582 237.739 331.394 239.148 331.696 241.06L332.401 246.596L325.355 247.502L324.65 241.966C324.348 240.054 325.757 238.343 327.67 238.041Z" fill="#83DDC5"/>
<path d="M328.071 241.362C328.876 241.261 329.581 241.865 329.682 242.569L329.883 243.777C329.984 244.583 329.48 245.287 328.675 245.388C327.87 245.488 327.165 244.884 327.065 244.18L326.863 242.972C326.763 242.167 327.367 241.462 328.071 241.362Z" fill="#4F5D7F"/>
<path d="M328.575 244.785C318.51 246.194 313.477 249.214 310.256 253.844C309.854 254.247 309.954 254.851 310.357 255.253C310.659 255.454 310.961 255.555 311.263 255.454L348.203 250.422C348.807 250.422 349.209 249.918 349.209 249.415C349.209 249.113 349.008 248.711 348.706 248.61C344.277 244.986 338.641 243.376 328.575 244.785Z" fill="#EBEFF7"/>
<path d="M314.684 253.642C315.073 253.642 315.388 253.326 315.388 252.937C315.388 252.548 315.073 252.232 314.684 252.232C314.295 252.232 313.979 252.548 313.979 252.937C313.979 253.326 314.295 253.642 314.684 253.642Z" fill="#FFD836"/>
<path d="M319.013 253.038C319.402 253.038 319.717 252.723 319.717 252.333C319.717 251.944 319.402 251.629 319.013 251.629C318.624 251.629 318.308 251.944 318.308 252.333C318.308 252.723 318.624 253.038 319.013 253.038Z" fill="#AEC7FF"/>
<path d="M342.667 249.817C343.056 249.817 343.372 249.502 343.372 249.113C343.372 248.724 343.056 248.408 342.667 248.408C342.278 248.408 341.962 248.724 341.962 249.113C341.962 249.502 342.278 249.817 342.667 249.817Z" fill="#F47FFF"/>
<path opacity="0.45" d="M329.382 263.506C329.784 262.802 330.69 262.601 331.395 263.104L331.798 263.406C332.502 263.808 332.703 264.714 332.2 265.419C331.798 266.123 330.892 266.325 330.187 265.821L329.784 265.519C329.08 265.016 328.879 264.11 329.382 263.506Z" fill="#4762B0"/>
<path fill-rule="evenodd" clip-rule="evenodd" d="M543.59 55.1462L604.837 32.7705L594.563 52.863C592.565 56.8016 589.14 59.8269 585.03 61.311L536.283 79.1773L534.571 74.5538L543.59 55.1462Z" fill="#DAE2ED"/>
<path fill-rule="evenodd" clip-rule="evenodd" d="M529.548 53.0913L610.945 23.3522C611.288 23.238 611.63 23.4092 611.745 23.6947C611.802 23.8659 611.802 24.0371 611.745 24.1513L608.605 30.4873C608.263 31.2293 607.635 31.7431 606.893 32.0285L604.895 32.7705L543.59 55.1462L534.571 74.5538L536.226 79.1773L537.482 82.6593L516.99 90.1369L514.022 82.0314L526.009 56.2879C526.751 54.8038 528.007 53.6621 529.548 53.0913Z" fill="#ECEFF6"/>
<path fill-rule="evenodd" clip-rule="evenodd" d="M534.628 74.5538L543.647 55.1462L604.895 32.7705L602.84 36.8233L545.816 57.6578L537.482 75.6383L538.509 78.3782L536.34 79.1202L534.628 74.5538Z" fill="#C5CEDD"/>
<path fill-rule="evenodd" clip-rule="evenodd" d="M511.738 72.8984C502.491 92.4772 510.825 115.823 530.404 125.128C549.983 134.432 573.329 126.041 582.633 106.462C591.937 86.8833 583.546 63.5372 563.967 54.233C544.332 45.1 521.043 53.4338 511.738 72.8984Z" fill="#4F5D7F"/>
<path fill-rule="evenodd" clip-rule="evenodd" d="M524.125 78.8347C518.132 91.5637 523.555 106.747 536.284 112.741C549.013 118.734 564.196 113.312 570.19 100.583C576.183 87.8535 570.761 72.6699 558.031 66.6764C545.36 60.74 530.233 66.1627 524.125 78.8347Z" fill="#7687B2"/>
<path fill-rule="evenodd" clip-rule="evenodd" d="M520.985 58.6851C520.928 64.6786 536.683 79.3484 547.014 87.4539C556.547 87.511 580.178 86.5406 585.715 81.1179C586.229 80.6613 586.571 80.0334 586.628 79.3484C586.628 79.1201 586.571 78.8917 586.514 78.6634C583.203 66.8477 575.44 57.5435 564.709 52.4633C551.181 46.0131 535.084 47.8397 521.613 57.3151C521.214 57.6006 520.985 58.1143 520.985 58.6851Z" fill="#FF7F14"/>
<path fill-rule="evenodd" clip-rule="evenodd" d="M546.329 89.4524C546.329 89.4524 584.003 66.8483 580.178 62.1677C576.24 57.3158 571.217 53.3772 565.566 50.6944C550.325 43.4451 533.486 46.5846 520.529 55.7175C511.396 62.1677 546.329 89.4524 546.329 89.4524Z" fill="#FF903E"/>
<path fill-rule="evenodd" clip-rule="evenodd" d="M527.665 80.49C522.585 91.2783 527.151 104.122 537.939 109.202C548.728 114.282 561.571 109.715 566.651 98.9272C571.731 88.1389 567.165 75.2957 556.376 70.2154C545.588 65.1923 532.802 69.7588 527.665 80.49Z" fill="#EBEFF7"/>
<path fill-rule="evenodd" clip-rule="evenodd" d="M530.804 81.9745C526.523 91.0504 530.404 101.839 539.423 106.12C548.442 110.401 559.287 106.519 563.568 97.5005C567.849 88.4817 563.968 77.6363 554.949 73.3553C545.873 69.0742 535.085 72.9557 530.804 81.9745Z" fill="#DAE2ED"/>
<path fill-rule="evenodd" clip-rule="evenodd" d="M557.974 82.0317L548.157 76.1524C547.529 75.8099 546.787 75.8099 546.216 76.1524L536.227 81.7463C535.599 82.0888 535.199 82.7738 535.199 83.4587L535.085 94.932C535.085 95.617 535.427 96.3019 536.055 96.6444L545.873 102.524C546.501 102.866 547.243 102.866 547.814 102.524L557.803 96.8728C558.431 96.5303 558.831 95.8453 558.831 95.1603L558.945 83.6871C558.945 83.0592 558.545 82.3742 557.974 82.0317Z" fill="#C5CEDD"/>
<path fill-rule="evenodd" clip-rule="evenodd" d="M541.478 87.0541C539.994 90.1936 541.363 93.9038 544.503 95.3879C547.642 96.872 551.353 95.5021 552.837 92.3626C554.321 89.2232 552.951 85.5129 549.869 84.0288C546.729 82.6018 542.962 83.9146 541.478 87.0541Z" fill="#B7C2CE"/>
<path fill-rule="evenodd" clip-rule="evenodd" d="M498.267 126.783H501.692C502.548 126.783 503.29 127.468 503.29 128.381V135.516C503.233 137.457 504.717 139.113 506.715 139.227C508.713 139.341 510.311 137.8 510.425 135.802C510.425 135.688 510.425 135.631 510.425 135.516V105.492C510.425 103.323 508.713 101.496 506.487 101.496C506.487 101.496 506.487 101.496 506.43 101.496H494.328C492.159 101.496 490.39 103.266 490.39 105.435C490.39 105.435 490.39 105.435 490.39 105.492V118.849C490.333 123.244 493.872 126.783 498.267 126.783ZM490.047 88.8242H496.897C496.897 91.3358 496.897 93.8473 496.897 96.3589H490.162C490.219 93.9044 490.219 91.3358 490.047 88.8242Z" fill="#7196FF"/>
<path fill-rule="evenodd" clip-rule="evenodd" d="M492.502 105.263H521.385C521.728 105.263 522.013 104.978 522.013 104.635C522.013 104.293 521.728 104.007 521.385 104.007H492.502C492.16 104.007 491.874 103.722 491.874 103.379V98.7558C491.874 98.4133 491.589 98.1279 491.247 98.1279C490.904 98.1279 490.619 98.4133 490.619 98.7558V103.379C490.676 104.407 491.475 105.263 492.502 105.263Z" fill="#E4E9F7"/>
<path fill-rule="evenodd" clip-rule="evenodd" d="M489.135 101.553H493.416C493.759 101.553 494.044 101.268 494.044 100.925V87.6826C494.044 87.3401 493.759 87.0547 493.416 87.0547H489.135C488.792 87.0547 488.507 87.3401 488.507 87.6826V100.925C488.507 101.268 488.735 101.553 489.135 101.553C489.078 101.553 489.078 101.553 489.135 101.553Z" fill="black"/>
<path fill-rule="evenodd" clip-rule="evenodd" d="M490.105 88.8242H487.593C487.251 88.8242 486.965 89.1096 486.965 89.4521C486.965 91.5641 486.965 93.6761 486.965 95.7881C486.965 96.1306 487.251 96.416 487.593 96.416H489.934C491.817 96.416 493.415 95.1031 493.758 93.2765C494.1 91.2216 492.731 89.2809 490.676 88.8813C490.504 88.8813 490.276 88.8242 490.105 88.8242Z" fill="#7196FF"/>
<path fill-rule="evenodd" clip-rule="evenodd" d="M503.233 101.553H507.514C507.857 101.553 508.142 101.268 508.142 100.925V87.6826C508.142 87.3401 507.857 87.0547 507.514 87.0547H503.233C502.891 87.0547 502.605 87.3401 502.605 87.6826V100.925C502.605 101.268 502.891 101.553 503.233 101.553Z" fill="black"/>
<path fill-rule="evenodd" clip-rule="evenodd" d="M493.701 91.7357C496.955 87.2834 502.149 84.6006 507.686 84.6006H531.089C536.797 84.6577 541.421 89.2812 541.421 95.0464V114.226C541.421 118.05 538.339 121.189 534.514 121.189H500.779C495.014 121.132 490.391 116.509 490.391 110.744V102.01C490.334 98.3 491.532 94.7039 493.701 91.7357Z" fill="#AEC7FF"/>
<path fill-rule="evenodd" clip-rule="evenodd" d="M524.011 84.6006H531.032C536.797 84.6577 541.421 89.2812 541.421 95.0464V111.714C541.421 115.538 538.338 118.678 534.514 118.678H523.954C524.125 107.376 524.125 95.9597 524.011 84.6006ZM546.273 109.431L553.579 111.6C556.376 112.399 557.974 115.253 557.175 118.05C556.376 120.847 553.522 122.445 550.725 121.646C548.955 121.132 547.585 119.82 547.129 118.05L544.96 110.744C544.788 110.23 545.074 109.602 545.588 109.431C545.816 109.374 546.044 109.374 546.273 109.431Z" fill="#7196FF"/>
<path fill-rule="evenodd" clip-rule="evenodd" d="M529.32 126.782H532.744C533.601 126.782 534.343 127.467 534.343 128.38V135.516C534.286 137.456 535.77 139.112 537.768 139.226C539.708 139.283 541.364 137.799 541.478 135.801C541.478 135.687 541.478 135.63 541.478 135.516V99.897C541.478 97.728 539.708 95.9014 537.539 95.9014H525.438C523.269 95.9014 521.5 97.728 521.5 99.897V118.848C521.385 123.243 524.924 126.782 529.32 126.782Z" fill="#7196FF"/>
<path fill-rule="evenodd" clip-rule="evenodd" d="M506.658 105.263H535.541C535.883 105.263 536.168 104.978 536.168 104.635C536.168 104.293 535.883 104.007 535.541 104.007H506.658C506.315 104.007 506.03 103.722 506.03 103.379V98.7558C506.087 98.4133 505.801 98.1279 505.459 98.0708C505.116 98.0137 504.831 98.2991 504.774 98.6416C504.774 98.6987 504.774 98.6987 504.774 98.7558V103.379C504.774 104.407 505.63 105.206 506.658 105.263Z" fill="#E4E9F7"/>
<path fill-rule="evenodd" clip-rule="evenodd" d="M503.233 101.553H507.514C507.857 101.553 508.142 101.268 508.142 100.925V87.6826C508.142 87.3401 507.857 87.0547 507.514 87.0547H503.233C502.891 87.0547 502.605 87.3401 502.605 87.6826V100.925C502.605 101.268 502.891 101.553 503.233 101.553Z" fill="black"/>
<path fill-rule="evenodd" clip-rule="evenodd" d="M503.063 88.8246H517.162C519.502 88.8246 521.386 86.9409 521.386 84.6006H530.233V102.981H521.443C520.644 98.3571 516.591 96.3593 511.739 96.3593H503.177C501.293 96.3593 499.695 95.0464 499.352 93.2198C499.01 91.1649 500.38 89.2241 502.435 88.8246C502.606 88.8817 502.834 88.8246 503.063 88.8246Z" fill="#7196FF"/>
<path fill-rule="evenodd" clip-rule="evenodd" d="M535.485 84.8284H503.291C497.526 84.8284 492.845 80.1478 492.845 74.3826V54.9751C492.903 49.2099 497.526 44.5293 503.291 44.5293H535.485C541.25 44.5293 545.874 49.2099 545.931 54.9751V74.3826C545.874 80.1478 541.25 84.8284 535.485 84.8284Z" fill="#80A7FF"/>
<path fill-rule="evenodd" clip-rule="evenodd" d="M528.692 84.8279H496.498C490.733 84.8279 486.052 80.1473 486.052 74.325V54.9175C486.11 49.1523 490.733 44.5288 496.498 44.4717H528.692C534.457 44.4717 539.138 49.1523 539.138 54.9175V74.325C539.138 80.1473 534.457 84.8279 528.692 84.8279Z" fill="#9CB8FF"/>
<path fill-rule="evenodd" clip-rule="evenodd" d="M542.791 71.9851H535.085V53.1484H542.791C546.615 53.1484 549.755 56.2879 549.755 60.1123V65.0213C549.755 68.8457 546.615 71.9851 542.791 71.9851Z" fill="#9CB8FF"/>
<path fill-rule="evenodd" clip-rule="evenodd" d="M535.085 67.7607V57.3149C535.085 56.9153 535.37 56.6299 535.77 56.6299H542.734C544.675 56.6299 546.216 58.1711 546.216 60.1118V65.0208C546.216 66.9615 544.675 68.5027 542.734 68.5027H535.77C535.427 68.5027 535.085 68.1602 535.085 67.7607C535.085 67.8177 535.085 67.7607 535.085 67.7607Z" fill="#80A7FF"/>
<path fill-rule="evenodd" clip-rule="evenodd" d="M522.984 65.8771C521.1 65.8771 519.559 64.3359 519.559 62.4522C519.559 60.5685 521.1 59.0273 522.984 59.0273C524.867 59.0273 526.409 60.5685 526.409 62.4522C526.409 64.3359 524.867 65.8771 522.984 65.8771Z" fill="black"/>
<path fill-rule="evenodd" clip-rule="evenodd" d="M485.767 54.9746H509.455C511.739 54.9746 513.622 56.8583 513.622 59.1415V64.0505C513.622 69.8157 508.942 74.4963 503.176 74.5534H492.046C486.28 74.5534 481.6 69.8727 481.6 64.1076V59.1986C481.6 56.8583 483.484 54.9746 485.767 54.9746Z" fill="#CBDAF7"/>
<path fill-rule="evenodd" clip-rule="evenodd" d="M498.325 74.5539H492.046C486.28 74.5539 481.6 69.8733 481.6 64.1081V59.1991C481.6 56.9159 483.484 55.0322 485.767 55.0322H504.546C506.83 55.0322 508.713 56.9159 508.713 59.1991V64.1081C508.713 69.8162 504.09 74.4968 498.325 74.5539Z" fill="#CBDAF7"/>
<path fill-rule="evenodd" clip-rule="evenodd" d="M495.527 66.6201H500.036C501.007 66.6772 501.749 67.4763 501.692 68.4467C501.635 69.36 500.95 70.045 500.036 70.1021H495.527C494.557 70.045 493.815 69.2458 493.872 68.2755C493.929 67.3622 494.614 66.6772 495.527 66.6201ZM487.307 66.6201H489.02C489.99 66.6772 490.732 67.4763 490.675 68.4467C490.618 69.36 489.933 70.045 489.02 70.1021H487.307C486.337 70.045 485.595 69.2458 485.652 68.2755C485.709 67.3622 486.451 66.6772 487.307 66.6201Z" fill="#9CB8FF"/>
<path fill-rule="evenodd" clip-rule="evenodd" d="M497.412 78.6641H494.615C493.987 78.6641 493.473 78.1504 493.473 77.5225C493.473 76.8946 493.987 76.3809 494.615 76.3809H497.412C498.04 76.3809 498.554 76.8946 498.554 77.5225C498.554 78.1504 498.04 78.6641 497.412 78.6641Z" fill="#80A7FF"/>
<path opacity="0.4" fill-rule="evenodd" clip-rule="evenodd" d="M483.94 48.7527C483.94 48.7527 473.894 63.765 484.682 81.0606L490.79 84.5996L530.176 82.8871L539.765 70.101L530.176 44.4717H496.498L483.94 48.7527Z" fill="#4871E5"/>
<path fill-rule="evenodd" clip-rule="evenodd" d="M515.335 34.5977C538.281 34.5977 550.953 50.1237 550.953 62.9669C550.953 75.8101 535.941 76.9517 532.402 67.8758L524.981 48.1829L492.217 52.464L483.997 48.7537C487.022 43.7306 498.324 34.5977 515.335 34.5977Z" fill="#EBEFF7"/>
<path fill-rule="evenodd" clip-rule="evenodd" d="M534.856 70.1016L514.079 81.0611H484.682L487.536 85.8559H535.427L539.594 76.3805L534.856 70.1016Z" fill="#EBEFF7"/>
<path fill-rule="evenodd" clip-rule="evenodd" d="M539.651 55.0321L545.816 56.9728L548.498 46.0704C548.841 44.7004 547.985 43.3305 546.615 43.0451C545.416 42.7597 544.16 43.3875 543.704 44.5292L539.651 55.0321Z" fill="#DAE2ED"/>
<path fill-rule="evenodd" clip-rule="evenodd" d="M547.528 49.9522L545.816 57.0303L539.651 55.0895L542.277 48.2969C543.989 48.8677 545.759 49.4385 547.528 49.9522Z" fill="#B7C2CE"/>
<path fill-rule="evenodd" clip-rule="evenodd" d="M535.998 106.747L559.972 112.284L562.026 103.151L538.052 97.6143L535.998 106.747Z" fill="#B7C2CE"/>
<path fill-rule="evenodd" clip-rule="evenodd" d="M555.919 113.882L586.001 124.214C586.572 124.442 587.2 124.328 587.713 123.929C588.969 122.958 591.31 120.561 592.565 114.967C593.821 109.373 592.794 106.176 592.052 104.807C591.766 104.293 591.253 103.893 590.625 103.836L559.059 99.9546C558.431 99.8975 557.86 100.297 557.689 100.925L555.12 112.455C555.006 113.083 555.349 113.654 555.919 113.882Z" fill="#C5CEDD"/>
<path fill-rule="evenodd" clip-rule="evenodd" d="M564.253 105.263C564.082 106.062 564.596 106.861 565.338 107.033C566.137 107.204 566.936 106.69 567.107 105.948C567.278 105.149 566.765 104.35 566.023 104.179C565.223 103.95 564.424 104.464 564.253 105.263ZM571.217 106.233C571.046 107.033 571.559 107.832 572.301 108.003C573.101 108.174 573.9 107.66 574.071 106.918C574.242 106.119 573.728 105.32 572.986 105.149C572.187 104.921 571.388 105.434 571.217 106.233C571.16 106.233 571.16 106.233 571.217 106.233Z" fill="#B7C2CE"/>
<path fill-rule="evenodd" clip-rule="evenodd" d="M536.283 105.207L555.577 120.219L561.285 112.855L541.991 97.7861L536.283 105.207Z" fill="#D0D9EA"/>
<path fill-rule="evenodd" clip-rule="evenodd" d="M551.296 119.933L574.3 142.023C574.757 142.423 575.327 142.651 575.955 142.48C577.496 142.137 580.636 140.939 584.118 136.429C587.6 131.92 587.999 128.552 587.942 127.011C587.942 126.383 587.6 125.869 587.086 125.527L560.087 108.688C559.573 108.345 558.831 108.46 558.489 108.973L551.296 118.335C550.783 118.791 550.84 119.533 551.296 119.933Z" fill="#EBEFF7"/>
<path fill-rule="evenodd" clip-rule="evenodd" d="M562.483 115.651C561.969 116.279 562.084 117.193 562.768 117.706C563.396 118.22 564.31 118.106 564.823 117.478C565.337 116.85 565.223 115.937 564.595 115.423C563.853 114.909 562.94 115.024 562.483 115.651ZM568.02 120.218C567.506 120.846 567.62 121.759 568.305 122.273C568.933 122.787 569.847 122.672 570.36 121.987C570.874 121.302 570.76 120.446 570.075 119.933C569.39 119.476 568.477 119.59 568.02 120.218Z" fill="#B7C2CE"/>
<path fill-rule="evenodd" clip-rule="evenodd" d="M530.403 66.734C531.26 73.812 536.796 79.0064 542.79 78.2643C548.783 77.5223 552.893 71.1863 551.98 64.0512C551.067 56.9161 545.587 51.8359 539.65 52.5208C533.714 53.2058 529.547 59.6559 530.403 66.734Z" fill="#DAE2ED"/>
<path fill-rule="evenodd" clip-rule="evenodd" d="M534.913 66.3335C535.541 71.3566 539.48 75.0669 543.704 74.5532C547.928 74.0394 550.896 69.53 550.268 64.4498C549.64 59.3696 545.702 55.7165 541.478 56.2873C537.254 56.8581 534.286 61.3104 534.913 66.3335Z" fill="#B7C2CE"/>
<path fill-rule="evenodd" clip-rule="evenodd" d="M537.368 66.1051C537.824 69.7012 540.621 72.3269 543.647 71.9844C546.672 71.6419 548.784 68.3883 548.327 64.7351C547.871 61.082 545.074 58.5133 542.048 58.8558C539.023 59.1983 536.911 62.4519 537.368 66.1051Z" fill="#FF903E"/>
<path fill-rule="evenodd" clip-rule="evenodd" d="M544.047 68.7316L544.732 68.4462C544.903 68.3891 545.017 68.1607 544.96 67.9324L542.562 61.8818C542.505 61.7106 542.277 61.5964 542.049 61.6535L541.364 61.9389C541.193 61.996 541.078 62.2243 541.135 62.4527L543.533 68.4462C543.647 68.6745 543.875 68.7886 544.047 68.7316Z" fill="#FF7F14"/>
<path fill-rule="evenodd" clip-rule="evenodd" d="M535.941 111.143H543.875V84.6006H532.858V108.061C532.858 109.773 534.228 111.143 535.941 111.143Z" fill="black"/>
<path fill-rule="evenodd" clip-rule="evenodd" d="M570.018 55.1462L631.266 32.7705L620.991 52.863C618.993 56.8016 615.568 59.8269 611.459 61.311L562.711 79.1202L560.999 74.4967L570.018 55.1462Z" fill="#DAE2ED"/>
<path fill-rule="evenodd" clip-rule="evenodd" d="M555.977 53.0913L637.318 23.3522C637.66 23.238 638.003 23.4092 638.117 23.6947C638.174 23.8659 638.174 24.0371 638.117 24.1513L634.977 30.4873C634.635 31.2293 634.007 31.7431 633.265 32.0285L631.267 32.7705L570.019 55.1462L561 74.5538L562.713 79.1773L563.969 82.6593L543.477 90.1369L540.508 82.0314L552.495 56.2879C553.18 54.8038 554.436 53.6621 555.977 53.0913Z" fill="#ECEFF6"/>
<path fill-rule="evenodd" clip-rule="evenodd" d="M561.057 74.5538L570.075 55.1462L631.323 32.7705L629.268 36.8233L572.245 57.6578L563.911 75.6383L564.938 78.3782L562.769 79.1773L561.057 74.5538Z" fill="#C5CEDD"/>
<path fill-rule="evenodd" clip-rule="evenodd" d="M631.723 30.3166C632.35 30.0882 632.693 29.4033 632.465 28.7183C632.236 28.0904 631.551 27.7479 630.866 27.9762C630.238 28.2046 629.896 28.8895 630.124 29.5745C630.353 30.2595 631.038 30.5449 631.723 30.3166ZM626.814 32.1432C627.442 31.9148 627.784 31.2299 627.556 30.5449C627.327 29.917 626.642 29.5745 625.957 29.8028C625.272 30.0312 624.987 30.7161 625.215 31.4011C625.444 32.029 626.129 32.3715 626.814 32.1432ZM556.889 57.6583C557.46 57.3158 557.689 56.5738 557.346 56.003C557.061 55.5463 556.547 55.318 556.033 55.3751C555.405 55.6034 555.063 56.3455 555.291 56.9734C555.577 57.6013 556.262 57.8867 556.889 57.6583Z" fill="#DAE2ED"/>
<path fill-rule="evenodd" clip-rule="evenodd" d="M537.425 90.3084H550.154C551.239 90.3084 552.095 89.3951 552.095 88.3676V81.5179C552.095 80.4334 551.239 79.5771 550.154 79.5771H537.425C536.341 79.5771 535.485 80.4904 535.485 81.5179V88.3676C535.485 89.4522 536.341 90.3084 537.425 90.3084Z" fill="#FF5C5C"/>
<path fill-rule="evenodd" clip-rule="evenodd" d="M532.802 93.7898H542.791C545.531 93.7898 547.7 91.5637 547.7 88.8809V81.0608C547.7 78.3209 545.474 76.1518 542.791 76.0947H532.802C531.774 76.0947 530.975 76.9509 530.975 77.9213V91.9061C530.918 92.9336 531.717 93.7327 532.802 93.7898C532.745 93.7898 532.745 93.7898 532.802 93.7898Z" fill="#D0D9EA"/>
<path fill-rule="evenodd" clip-rule="evenodd" d="M504.376 32.7129L504.947 36.4802C501.864 38.9918 499.124 41.9029 496.898 45.1565L493.473 37.3364C496.213 35.3386 499.981 34.197 504.376 32.7129Z" fill="#FF7F14"/>
<path fill-rule="evenodd" clip-rule="evenodd" d="M496.898 45.157L493.473 37.3369L490.562 45.157H496.898Z" fill="#FF903E"/>
</g>
<defs>
<linearGradient id="paint0_linear_2047_15477" x1="3.24653e-06" y1="4.74401" x2="656.801" y2="153.156" gradientUnits="userSpaceOnUse">
<stop offset="0.171875" stop-color="#9B48EF"/>
<stop offset="1" stop-color="#E292AA"/>
</linearGradient>
<clipPath id="clip0_2047_15477">
<rect width="660" height="278" rx="8" fill="white"/>
</clipPath>
</defs>
</svg>
