<svg fill="none" height="464" viewBox="0 0 240 464" width="240" xmlns="http://www.w3.org/2000/svg"><path d="m67.12 415.5c-.13.14-13.24 14.16-21.29 11.7-3.08-.95-5.1-4.37-6-10.17l-.33-2.11-1.41 1.6c-7.57 8.59-29 30-37.22 26-.312768-.157-.604979-.352-.87-.58v2.38c10 4.89 32.07-18.19 38.23-25 1.19 5.41 3.54 8.69 7 9.75 9.24 2.83 22.76-11.63 23.34-12.25z" fill="#9069c9"/><path d="m20.78 459.34c7.8756 0 14.26-6.384 14.26-14.26s-6.3844-14.26-14.26-14.26-14.26001 6.384-14.26001 14.26 6.38441 14.26 14.26001 14.26z" fill="#b78afa"/><path d="m6.53 445.15c2.67 1.43 6.85.61 10.24-2.26 4-3.43 5.42-8.47 3.06-11.27-.2184-.252-.4631-.48-.73-.68-.19 0-.37 0-.55.06-3.363.535-6.4236 2.256-8.62825 4.851-2.20463 2.595-3.40775 5.894-3.39175 9.299z" fill="#c4a0fa"/><path d="m22.49 452.65c-3.81.6-6.62 2.85-6.28 5 .0652.381.2194.74.45 1.05 2.2773.704 4.6958.82 7.0301.338 2.3344-.483 4.5085-1.548 6.3199-3.098.015-.15.015-.3 0-.45-.34-2.18-3.71-3.49-7.52-2.84z" fill="#9069c9"/><path d="m94.9739 340.545c3.8263-2.209 5.9391-5.714 4.7182-7.828-1.2206-2.114-5.3119-2.037-9.1383.172-3.8263 2.209-5.9387 5.714-4.7182 7.828 1.2206 2.114 5.3119 2.037 9.1383-.172z" fill="#e4e4e4"/><path d="m94.9751 335.54c3.8263-2.209 6.0019-5.605 4.8582-7.585-1.1432-1.98-5.1719-1.795-8.9982.415-3.8263 2.209-6.0014 5.605-4.8582 7.585s5.1719 1.794 8.9982-.415z" fill="#e4e4e4"/><path d="m95.9711 331.546c3.8264-2.209 6.0019-5.605 4.8579-7.585-1.1429-1.98-5.1715-1.795-8.9979.414-3.8263 2.21-6.0014 5.606-4.8582 7.586s5.1719 1.794 8.9982-.415z" fill="#e4e4e4"/><path d="m136.01 335.6c0-.13 0-3.33-.19-5.88-.45-5-4.65-10.54-15.77-7.45 0 0 13 9 7 16z" fill="#b1b1b1"/><path d="m129.268 329.525c.967-1.674-.382-4.262-3.013-5.781s-5.547-1.393-6.513.281c-.967 1.674.382 4.262 3.013 5.781s5.547 1.393 6.513-.281z" fill="#b1b1b1"/><path d="m140.01 381.81c-.061-.07-.092-.162-.085-.255s.05-.179.12-.24.162-.092.255-.085.179.05.24.12l4 3.61c.22-.26.45-.52.66-.8 1.253-1.67 1.804-3.763 1.535-5.833s-1.337-3.953-2.975-5.247l-13.82-10.91-19 8 1.68 17.63c.104 1.032.527 2.006 1.21 2.788.682.781 1.591 1.33 2.6 1.572 1.08.26 2.37.51 3.81.71l-1.22-6.6c-.006-.064.009-.127.044-.181.035-.053.087-.093.148-.113.06-.02.126-.019.186.004.059.023.11.065.142.12l3.36 7c6.24.44 14.2-.55 20.19-6.57z" fill="#d8d8dd"/><path d="m111.51 284.77c-.517 15.132.011 30.281 1.58 45.34" stroke="#cfcfcf" stroke-miterlimit="10" stroke-width="11.24"/><path d="m103.81 351.13s-9.69-15.56-.18-26.8l2.59-.86s1.59 6 2.46 6l2.24-7.35 11.09-.9s0 10 7 9c0 0 3 3-4.09 22.9z" fill="#484482"/><path d="m108.7 329.35v.17l-.67-7.25-7 2c-9.51 11.24 2.8 26.86 2.8 26.86h.3l5.3-7.66z" fill="#413d75"/><path d="m109.41 343.49 14.51 9.68-20.1-2.04z" fill="#3a385b"/><path d="m116.92 332.17c1.105 0 2-.895 2-2s-.895-2-2-2-2 .895-2 2 .895 2 2 2z" fill="#737093"/><path d="m116.92 352.17s5-12 11.38-11.92c.44 0-3.38 13.92-3.38 13.92l-18.5-.5z" fill="#3a385b" opacity=".32"/><path d="m87.17 408.45h16c.454 0 .888-.18 1.209-.501.321-.32.501-.755.501-1.209v-24.57l-5.32-2.24-.55 16.18c-.0382 1.266-.4814 2.486-1.2643 3.481-.783.996-1.8645 1.714-3.0857 2.049-3.214.762-6.1364 2.444-8.41 4.84-.1464.175-.2399.388-.2695.615-.0296.226.006.456.1026.663s.2501.382.4427.504c.1925.123.416.188.6442.188z" fill="#3a3445"/><path d="m97.17 378.47-1.24 2c-.1781.303-.277.646-.2876.997s.0674.699.2268 1.012c.1595.313.3953.58.6855.778.2903.198.6257.319.9753.353l9.4 1c.317.027.637-.022.931-.143.295-.121.556-.311.763-.554.206-.242.351-.531.424-.841.072-.31.07-.633-.008-.942l-.12-1.91z" fill="#9395a6"/><path d="m128.7 384.84 4.9 12.87c.157.406.227.841.207 1.276-.021.436-.132.862-.327 1.251-.195.39-.469.735-.805 1.012-.336.278-.726.483-1.145.601-2.46.69-5.67 2-7.51 4.47-.146.2-.234.437-.254.685-.019.247.03.495.143.715.113.221.285.406.497.535s.456.196.704.195h15.49c.31 0 .616-.076.89-.221.275-.145.51-.354.685-.61s.286-.551.321-.859c.036-.308-.004-.621-.116-.91l-8.5-21.85z" fill="#3a3445"/><path d="m125.24 383.11v1.41c.001.343.08.682.232.99.152.307.373.576.646.785.272.208.589.352.926.419.337.066.684.055 1.016-.034l6.39-1.7c.38-.102.726-.302 1.004-.581.278-.278.478-.625.579-1.005.102-.38.101-.78-.001-1.16-.103-.38-.303-.726-.582-1.004l-.7-.71z" fill="#b6b7c6"/><path d="m103.92 353.17c-.26.73-20.09 25.49-1.37 28.61 14.37 2.39 18.9-18.93 12.13-27.86z" fill="#9395a6"/><path d="m110.54 353.72s-2.59 32 19 29.39c0 0 14.7-.86 2.59-17.29l-3.42-10.2z" fill="#b6b7c6"/><path d="m136.41 357.43c-1.08-2.69-5.69-4.09-7.78-4.69l-.72-.32c-.871-.386-1.808-.603-2.76-.64l-21.48-.8c-.346-.008-.684.107-.954.325-.269.218-.452.525-.516.865l-.21 1.26c-.034.199-.026.402.024.598.05.195.141.377.267.535.125.158.283.287.462.38.179.092.376.146.577.157l22.06 1.2c-.311 1.791-.103 3.634.6 5.31 1.6 4 5.23 6.29 8.11 5.14s3.92-5.33 2.32-9.32z" fill="#ed9836"/><path d="m136.41 357.43c-1.08-2.69-5.69-4.09-7.78-4.69l-.06-.06c-.449 1.656-.34 3.413.31 5 1.38 3.54 4.79 5.52 7.62 4.41.221-.09.435-.197.64-.32.085-1.483-.164-2.966-.73-4.34z" fill="#e0851b"/><path d="m120.42 371.67s8 8 13 1c0 0-1 13-13-1z" fill="#aaacbe"/><path d="m127.08 370.72c-.47-.89 3.64 2.6 5.93.93 0 0-3.59 3.49-5.93-.93z" fill="#aaacbe"/><path d="m105.74 289.32c0 2.65-.07 6.08 0 10.05l11.23-5.95c0-4.35.11-7.5.15-8.77z" fill="#adadad"/><path d="m126.8 263.76c-1 2.51-6.93 10.24-6.93 10.24s1.08-9.67 2.09-12.18 2.91-4.11 4.24-3.57 1.6 3 .6 5.51z" fill="#cacaca"/><path d="m116.01 290.618c6.957-3.595 10.161-11.223 7.156-17.037s-11.08-7.613-18.038-4.017c-6.9567 3.595-10.1609 11.223-7.1562 17.037 3.0052 5.814 11.0802 7.613 18.0382 4.017z" fill="#fff"/><path d="m136.43 272.67c-3.4 1.13-16.87-.05-16.87-.05s10.08-9 13.48-10.16 6.91.24 7.85 3.06-1.06 6.02-4.46 7.15z" fill="#fff"/><path d="m130.63 279.88c-2.62-.88-10.62-7.32-10.62-7.32s10.28-.53 12.91.32 4.27 3.12 3.64 5.05-3.29 2.81-5.93 1.95z" fill="#fff"/><path d="m95.01 279.27s7 12 12.56 3z" fill="#f5b41b"/><path d="m107.57 282.23c7.09 1 13.44-2.38 14.18-7.58.159-1.173.032-2.367-.37-3.48-3.75-3.81-10.4-4.62-16.26-1.59-3.188 1.595-5.7348 4.23-7.22 7.47 2.454 2.886 5.908 4.736 9.67 5.18z" fill="#5ae6dc"/><path d="m107.57 282.23c-.598-1.875-1.562-3.612-2.836-5.112-1.273-1.5-2.831-2.733-4.584-3.628 0 0-8.37 3.34-21 2.75-1.4095-.067-2.7986.357-3.93 1.2l-.17.13z" fill="#f5cd1b"/><path d="m113.374 279.786c1.179-.72 1.961-1.586 1.748-1.934-.213-.349-1.341-.049-2.519.671s-1.961 1.586-1.748 1.935 1.341.048 2.519-.672z" fill="#000"/><path d="m87.7119 278.181c.0389-.273-.3727-.558-.9195-.636-.5467-.078-1.0216.081-1.0605.354-.039.274.3727.558.9194.636.5468.078 1.0216-.08 1.0606-.354z" fill="#bd9e15"/><path d="m96.33 340.05s2.65 1.32 6.68 3.22c12 5.68 35.58 13.87 32.77-13.55 0 0-5.64 19.72-35.69-3.76l-7.52 1.88z" fill="#e4e4e4"/><g fill="#fff"><path d="m103.01 343.27s-9-12.88 6.11-25c11.06-8.87.89-16-1.76-15.48 0 0 .58-19.95-5.95 2.07 0 0-4.65 11.69-7.91 16.16-.5.68-2.12 3.53-2.49 4.29-2.73 5.58-9.38 22.69 12 17.96z"/><path d="m120.51 211.27c18.778 0 34-15.222 34-34s-15.222-34-34-34-34 15.222-34 34 15.222 34 34 34z"/><path d="m89.51 232.27c5.2467 0 9.5-4.253 9.5-9.5s-4.2533-9.5-9.5-9.5-9.5 4.253-9.5 9.5 4.2533 9.5 9.5 9.5z" opacity=".75"/><path d="m105.51 253.27c2.485 0 4.5-2.015 4.5-4.5s-2.015-4.5-4.5-4.5-4.5 2.015-4.5 4.5 2.015 4.5 4.5 4.5z" opacity=".5"/></g></svg>