<svg width="180" height="108" viewBox="0 0 180 108" fill="none" xmlns="http://www.w3.org/2000/svg">
<mask id="mask0" mask-type="alpha" maskUnits="userSpaceOnUse" x="0" y="28" width="180" height="80">
<path d="M0 36C0 31.5817 3.58172 28 8 28H172C176.418 28 180 31.5817 180 36V108H0V36Z" fill="#292B2F"/>
</mask>
<g mask="url(#mask0)">
<path d="M0 36C0 31.5817 3.58172 28 8 28H172C176.418 28 180 31.5817 180 36V100C180 104.418 176.418 108 172 108H8C3.58172 108 0 104.418 0 100V36Z" fill="white"/>
</g>
<g clip-path="url(#clip0)">
<path fill-rule="evenodd" clip-rule="evenodd" d="M96.1783 71L100 74.8217V81.0683C98.375 81.3008 96.9675 82.1983 96.0633 83.4825L95 81L91.6667 85.1667L90 83.5L87.5 86.8333H95V86.8342C95 87.73 95.2083 88.575 95.5683 89.3333H86.6667C85.7475 89.3333 85 88.5858 85 87.6667V72.6667C85 71.7483 85.7475 71 86.6667 71H96.1783ZM87.5 79.75C87.5 80.9017 88.4317 81.8333 89.5833 81.8333C90.7325 81.8333 91.6667 80.9017 91.6667 79.75C91.6667 78.5992 90.7325 77.6667 89.5833 77.6667C88.4317 77.6667 87.5 78.5992 87.5 79.75ZM95 71.8333V76H99.1667L95 71.8333ZM96.9108 87.0774L100.833 83.1549L104.756 87.0774L103.577 88.2549L101.667 86.3449V91.0008H100V86.3449L98.0891 88.2549L96.9108 87.0774Z" fill="#4F545C" fill-opacity="0.16"/>
</g>
<rect x="9" y="37" width="162" height="62" rx="4" stroke="#E3E5E8" stroke-width="2" stroke-linejoin="round" stroke-dasharray="8 4"/>
<g clip-path="url(#clip1)">
<mask id="mask1" mask-type="alpha" maskUnits="userSpaceOnUse" x="21" y="0" width="135" height="82">
<path fill-rule="evenodd" clip-rule="evenodd" d="M57.4546 80.7925L83.0673 66.1513L101.012 66.1513L126.627 80.7808C127.978 81.5526 128.654 81.9384 129.326 81.9722C129.905 82.0004 130.495 81.844 130.982 81.5333C131.547 81.1717 131.937 80.5033 132.717 79.1666L153.719 43.1821C154.402 42.0125 154.743 41.4277 154.931 40.8029C155.033 40.4631 155.103 40.1216 155.131 39.7713C155.151 39.5442 155.164 39.3288 155.153 39.0997C155.137 38.4381 154.963 37.798 154.612 36.4991L150.399 20.9489C150.048 19.6499 149.874 19.0098 149.554 18.4289C149.447 18.225 149.327 18.045 149.195 17.8581L143.316 27.9313C142.536 29.2681 142.146 29.9364 142.112 30.6012C142.108 30.6689 142.107 30.7367 142.109 30.8045C142.107 30.7367 142.108 30.6688 142.111 30.6011C142.146 29.9363 142.536 29.2679 143.316 27.9312L149.195 17.8579C148.994 17.5681 148.76 17.3073 148.5 17.0634C148.022 16.6151 147.431 16.2775 146.249 15.6022L124.35 3.09548C122.999 2.32371 122.323 1.93783 121.651 1.9041C121.072 1.87591 120.482 2.03229 119.995 2.34296C119.43 2.70458 119.04 3.37294 118.26 4.70968L113.47 12.9175L103.016 2.57711L103.016 2.57707C102.055 1.62617 101.582 1.15761 101.01 0.813079C100.815 0.689045 100.62 0.592575 100.411 0.496104L100.411 0.49614C100.091 0.344543 99.7564 0.234291 99.4081 0.151602C98.7673 4.75424e-06 98.0846 4.63617e-06 96.7193 4.40002e-06L71.4331 0C69.8727 0 69.0926 0 68.4935 0.303193C67.978 0.565041 67.5461 0.992268 67.2814 1.50218C66.9749 2.09479 66.9749 2.86655 66.9749 4.41008V13.8876L52.6957 10.1028C51.3826 9.75472 50.7355 9.58321 50.0667 9.56735C49.8352 9.55641 49.6177 9.56931 49.3882 9.5891L49.3817 9.57805C49.0277 9.60533 48.6825 9.67531 48.3392 9.77607C47.7077 9.96195 47.1167 10.2998 45.9345 10.9756L24.041 23.4908C22.69 24.2631 22.0145 24.6492 21.6489 25.2084C21.3349 25.6903 21.1767 26.2742 21.2051 26.8469C21.239 27.5119 21.6289 28.1804 22.4085 29.5175L51.367 79.1789C52.1466 80.516 52.5365 81.1845 53.1012 81.5461C53.5879 81.8568 54.1777 82.0131 54.7562 81.9848C55.4281 81.9509 56.1036 81.5648 57.4546 80.7925ZM56.8646 21.9324C56.3696 21.5518 55.9822 20.8881 55.2669 19.6624L49.968 10.5834L55.2569 19.6536C55.9771 20.8886 56.3646 21.5532 56.8646 21.9324Z" fill="#939BF9"/>
</mask>
<g mask="url(#mask1)">
<g clip-path="url(#clip2)">
<g clip-path="url(#clip3)">
<path d="M73.8043 18.3626L94.7922 54.3552C95.5719 55.6923 95.9617 56.3608 95.9957 57.0258C96.024 57.5985 95.8659 58.1824 95.5519 58.6643C95.1863 59.2234 94.5108 59.6096 93.1598 60.3819L57.4546 80.7924C56.1036 81.5647 55.4281 81.9508 54.7562 81.9847C54.1777 82.013 53.5879 81.8567 53.1012 81.546C52.5365 81.1843 52.1467 80.5158 51.367 79.1788L22.4085 29.5174C21.6289 28.1803 21.2391 27.5118 21.2051 26.8468C21.1767 26.2741 21.3349 25.6902 21.6489 25.2083C22.0145 24.6492 22.69 24.263 24.041 23.4907L45.9346 10.9755C47.1167 10.2998 47.7077 9.96188 48.3392 9.77601C48.6825 9.67525 49.0277 9.60526 49.3817 9.57798L55.257 19.6535C56.0366 20.9906 56.4264 21.6591 56.9911 22.0207C57.4779 22.3314 58.0676 22.4877 58.6462 22.4594C59.318 22.4255 59.9935 22.0394 61.3446 21.2671L71.5254 15.4473C71.8182 15.6461 72.0817 15.8774 72.3281 16.1345C72.781 16.6078 73.1221 17.1927 73.8043 18.3626Z" fill="#D3D6FD"/>
<path d="M68.4022 14.2558C69.7148 14.6038 70.3616 14.7752 70.9486 15.0923C71.1546 15.1974 71.3365 15.3162 71.5254 15.447L61.3446 21.2668C59.9936 22.039 59.3181 22.4252 58.6462 22.4591C58.0677 22.4874 57.4779 22.3311 56.9912 22.0204C56.4265 21.6587 56.0367 20.9902 55.257 19.6532L49.3818 9.57764C49.6114 9.55777 49.829 9.5448 50.0606 9.5557C50.7292 9.57144 51.376 9.74288 52.6886 10.0908L68.4022 14.2558Z" fill="#939BF9"/>
</g>
<g clip-path="url(#clip4)">
<g clip-path="url(#clip5)">
<path fill-rule="evenodd" clip-rule="evenodd" d="M67.8785 30.2657L58.2285 35.7821L59.6207 38.1697L69.2708 32.6533L67.8785 30.2657ZM72.0552 37.4284L62.4052 42.9448L63.7974 45.3324L73.4475 39.816L72.0552 37.4284ZM52.1068 58.3821L76.2319 44.5912L77.6242 46.9788L53.499 60.7697L52.1068 58.3821ZM80.4087 51.7539L56.2835 65.5448L57.6757 67.9323L81.8009 54.1415L80.4087 51.7539ZM55.3536 50.1592L52.9411 51.5383L48.7644 44.3756L45.1456 46.4442L43.7534 44.0566L53.4035 38.5403L54.7957 40.9278L51.1769 42.9965L55.3536 50.1592Z" fill="#5865F2"/>
</g>
</g>
</g>
<g clip-path="url(#clip6)">
<g clip-path="url(#clip7)">
<path d="M153.719 43.1823L132.717 79.1668C131.937 80.5035 131.547 81.1719 130.982 81.5335C130.495 81.8441 129.905 82.0005 129.326 81.9723C128.654 81.9386 127.978 81.5527 126.627 80.781L90.9137 60.3843C89.5624 59.6126 88.8867 59.2267 88.5212 58.6678C88.2071 58.1861 88.049 57.6025 88.0775 57.0299C88.1116 56.3651 88.5017 55.6968 89.2819 54.36L118.26 4.70987C119.04 3.37313 119.43 2.70477 119.995 2.34315C120.482 2.03248 121.072 1.8761 121.651 1.90429C122.323 1.93802 122.999 2.3239 124.35 3.09567L146.249 15.6024C147.431 16.2777 148.022 16.6153 148.501 17.0636C148.76 17.3075 148.994 17.5683 149.195 17.8581L143.316 27.9314C142.536 29.2681 142.146 29.9365 142.111 30.6013C142.083 31.1738 142.241 31.7574 142.555 32.2391C142.921 32.798 143.596 33.1839 144.948 33.9556L155.131 39.7714C155.103 40.1218 155.033 40.4633 154.931 40.803C154.743 41.4279 154.402 42.0127 153.719 43.1823Z" fill="#D3D6FD"/>
<path d="M154.612 36.4989C154.963 37.7979 155.137 38.438 155.153 39.0996C155.164 39.3287 155.151 39.544 155.131 39.7713L144.948 33.9555C143.596 33.1837 142.921 32.7978 142.555 32.2389C142.241 31.7572 142.083 31.1736 142.111 30.6011C142.146 29.9363 142.536 29.2679 143.316 27.9312L149.195 17.8579C149.327 18.0448 149.447 18.2248 149.554 18.4287C149.874 19.0096 150.048 19.6497 150.399 20.9487L154.612 36.4989Z" fill="#939BF9"/>
</g>
<g clip-path="url(#clip8)">
<g clip-path="url(#clip9)">
<path fill-rule="evenodd" clip-rule="evenodd" d="M120.694 33.2009C121.19 33.2612 121.623 33.4289 122.035 33.6324C122.423 33.8222 122.882 34.084 123.413 34.3872L123.449 34.4079L122.056 36.7949C121.476 36.4642 121.102 36.2506 120.818 36.104C120.526 35.9694 120.404 35.9312 120.342 35.9275C119.983 35.8815 119.602 35.9824 119.314 36.1999C119.255 36.2458 119.175 36.3275 118.991 36.5883C118.8 36.8609 118.584 37.2309 118.249 37.8038L116.139 41.4201C115.832 41.9453 115.567 42.3988 115.327 42.755C115.061 43.1282 114.783 43.4945 114.384 43.7919C114.005 44.0843 113.58 44.2875 113.129 44.4274C113.232 44.8843 113.266 45.3494 113.2 45.8209C113.139 46.3112 112.97 46.7395 112.764 47.1472C112.572 47.5309 112.307 47.9845 112.001 48.5096L109.89 52.126C109.556 52.6989 109.34 53.0688 109.192 53.3502C109.056 53.6385 109.017 53.7597 109.013 53.8213C108.967 54.1766 109.069 54.5531 109.289 54.8379C109.335 54.8962 109.418 54.9752 109.681 55.1575C109.957 55.3468 110.331 55.5604 110.91 55.8912L109.517 58.2782L109.481 58.2575C108.95 57.9543 108.491 57.6925 108.131 57.455C107.754 57.1918 107.384 56.9166 107.083 56.5222C106.411 55.6611 106.103 54.5623 106.257 53.4724C106.318 52.982 106.487 52.5537 106.693 52.1461C106.885 51.7623 107.15 51.3088 107.456 50.7836L109.567 47.1673C109.901 46.5944 110.117 46.2244 110.265 45.943C110.401 45.6547 110.44 45.5335 110.444 45.472C110.49 45.1166 110.388 44.7401 110.168 44.4554C110.122 44.3971 110.039 44.3181 109.776 44.1357C109.5 43.9465 109.126 43.7329 108.547 43.4021L109.94 41.0151C110.519 41.3458 110.893 41.5594 111.178 41.706C111.469 41.8406 111.592 41.8788 111.654 41.8824C112.013 41.9285 112.387 41.8395 112.682 41.61C112.741 41.5642 112.82 41.4825 113.005 41.2217C113.196 40.9491 113.412 40.5791 113.746 40.0062L115.857 36.3898C116.164 35.8647 116.428 35.4112 116.668 35.055C116.934 34.6818 117.213 34.3155 117.611 34.0181C118.482 33.3535 119.593 33.049 120.694 33.2009ZM132.449 53.7433C132.496 53.8016 132.578 53.8806 132.842 54.063C133.118 54.2522 133.492 54.4658 134.071 54.7966L132.678 57.1836C132.099 56.8529 131.724 56.6393 131.44 56.4927C131.149 56.3581 131.026 56.3199 130.964 56.3162C130.605 56.2702 130.224 56.3711 129.936 56.5886C129.877 56.6345 129.797 56.7162 129.613 56.977C129.422 57.2496 129.206 57.6196 128.871 58.1925L126.761 61.8089C126.454 62.334 126.19 62.7875 125.949 63.1437C125.683 63.5169 125.405 63.8832 125.006 64.1806C124.136 64.8452 123.013 65.1428 121.923 64.9978C121.428 64.9375 120.995 64.7698 120.583 64.5663C120.195 64.3765 119.736 64.1147 119.205 63.8115L119.169 63.7908L120.562 61.4038C121.141 61.7345 121.516 61.9481 121.8 62.0947C122.091 62.2293 122.214 62.2675 122.276 62.2712C122.635 62.3172 123.009 62.2282 123.304 61.9988C123.363 61.9529 123.443 61.8712 123.627 61.6104C123.818 61.3378 124.034 60.9678 124.369 60.3949L126.479 56.7785C126.786 56.2534 127.05 55.7999 127.291 55.4437C127.557 55.0705 127.847 54.7111 128.234 54.4068C128.613 54.1144 129.038 53.9112 129.489 53.7713C129.386 53.3144 129.352 52.8493 129.418 52.3778C129.479 51.8875 129.648 51.4592 129.854 51.0515C130.046 50.6678 130.311 50.2142 130.617 49.6891L132.728 46.0727C133.062 45.4998 133.278 45.1299 133.426 44.8485C133.562 44.5602 133.601 44.439 133.605 44.3774C133.651 44.0221 133.549 43.6456 133.329 43.3608C133.283 43.3025 133.2 43.2235 132.937 43.0412C132.661 42.8519 132.287 42.6383 131.708 42.3075L133.101 39.9205L133.137 39.9412C133.668 40.2444 134.127 40.5062 134.487 40.7437C134.864 41.0069 135.234 41.2821 135.535 41.6765C136.207 42.5376 136.514 43.6364 136.361 44.7263C136.3 45.2167 136.13 45.645 135.925 46.0526C135.733 46.4364 135.468 46.8899 135.162 47.4151L133.051 51.0314C132.717 51.6043 132.501 51.9743 132.352 52.2557C132.216 52.544 132.178 52.6652 132.174 52.7267C132.128 53.0821 132.23 53.4586 132.449 53.7433Z" fill="#5865F2"/>
</g>
</g>
</g>
<g filter="url(#filter0_d)">
<g clip-path="url(#clip10)">
<g clip-path="url(#clip11)">
<path d="M117.129 20.1899L117.129 61.7412C117.129 63.2847 117.129 64.0565 116.823 64.6491C116.558 65.159 116.126 65.5862 115.611 65.8481C115.012 66.1513 114.232 66.1513 112.671 66.1513L71.4331 66.1513C69.8728 66.1513 69.0926 66.1513 68.4935 65.8481C67.9781 65.5862 67.5462 65.159 67.2815 64.6491C66.975 64.0565 66.975 63.2847 66.975 61.7412L66.975 4.41008C66.975 2.86655 66.975 2.09479 67.2815 1.50219C67.5462 0.992269 67.9781 0.565042 68.4935 0.303194C69.0926 3.66265e-07 69.8728 5.01204e-07 71.4331 7.71083e-07L96.7194 5.14457e-06C98.0847 5.38072e-06 98.7673 5.49879e-06 99.4082 0.151602C99.7565 0.234291 100.091 0.344544 100.411 0.49614L100.411 12.1277C100.411 13.6713 100.411 14.443 100.718 15.0356C100.982 15.5456 101.414 15.9728 101.93 16.2346C102.529 16.5378 103.309 16.5378 104.869 16.5378L116.628 16.5378C116.781 16.8548 116.893 17.1856 116.976 17.5301C117.129 18.164 117.129 18.8393 117.129 20.1899Z" fill="#D3D6FD"/>
<path d="M114.524 13.9606C115.485 14.9116 115.959 15.3801 116.307 15.9452C116.433 16.1381 116.53 16.3311 116.628 16.5378L104.869 16.5378C103.309 16.5378 102.529 16.5378 101.93 16.2346C101.414 15.9727 100.982 15.5455 100.718 15.0356C100.411 14.443 100.411 13.6712 100.411 12.1277L100.411 0.496094C100.62 0.592564 100.815 0.689035 101.01 0.813069C101.582 1.15761 102.055 1.62618 103.016 2.5771L114.524 13.9606Z" fill="#939BF9"/>
</g>
<path fill-rule="evenodd" clip-rule="evenodd" d="M78.1204 27.563L89.2658 27.563L89.2658 33.0756L78.1204 33.0756L78.1204 27.563ZM94.8385 27.563L105.984 27.563L105.984 33.0756L94.8385 33.0756L94.8385 27.563ZM89.2658 38.5882L78.1204 38.5882L78.1204 44.1008L89.2658 44.1008L89.2658 38.5882ZM94.8385 38.5882L105.984 38.5882L105.984 44.1008L94.8385 44.1008L94.8385 38.5882ZM89.2658 49.6134L78.1204 49.6134L78.1204 55.126L89.2658 55.126L89.2658 49.6134ZM94.8385 49.6134L105.984 49.6134L105.984 55.126L94.8385 55.126L94.8385 49.6134Z" fill="#5865F2"/>
</g>
</g>
</g>
</g>
<defs>
<filter id="filter0_d" x="18.975" y="-48" width="146.154" height="162.151" filterUnits="userSpaceOnUse" color-interpolation-filters="sRGB">
<feFlood flood-opacity="0" result="BackgroundImageFix"/>
<feColorMatrix in="SourceAlpha" type="matrix" values="0 0 0 0 0 0 0 0 0 0 0 0 0 0 0 0 0 0 127 0" result="hardAlpha"/>
<feOffset/>
<feGaussianBlur stdDeviation="24"/>
<feColorMatrix type="matrix" values="0 0 0 0 0.345098 0 0 0 0 0.396078 0 0 0 0 0.94902 0 0 0 0.5 0"/>
<feBlend mode="normal" in2="BackgroundImageFix" result="effect1_dropShadow"/>
<feBlend mode="normal" in="SourceGraphic" in2="effect1_dropShadow" result="shape"/>
</filter>
<clipPath id="clip0">
<rect width="20" height="20" fill="white" transform="translate(85 71)"/>
</clipPath>
<clipPath id="clip1">
<rect width="134.442" height="82" fill="white" transform="translate(21)"/>
</clipPath>
<clipPath id="clip2">
<rect width="50.0196" height="66.3321" fill="white" transform="matrix(0.868164 -0.496277 0.503732 0.86386 20.181 25.6973)"/>
</clipPath>
<clipPath id="clip3">
<rect width="50.0196" height="66.3321" fill="white" transform="matrix(0.868164 -0.496277 0.503732 0.86386 20.181 25.6973)"/>
</clipPath>
<clipPath id="clip4">
<rect width="50.0196" height="49.7491" fill="white" transform="matrix(0.868164 -0.496277 0.503732 0.86386 28.5344 40.0229)"/>
</clipPath>
<clipPath id="clip5">
<rect width="33.3464" height="33.1661" fill="white" transform="matrix(0.868164 -0.496277 0.503732 0.86386 39.9486 43.0483)"/>
</clipPath>
<clipPath id="clip6">
<rect width="50.0198" height="66.3323" fill="white" transform="matrix(0.868358 0.495938 -0.504073 0.863661 120.489 0.890625)"/>
</clipPath>
<clipPath id="clip7">
<rect width="50.0198" height="66.3323" fill="white" transform="matrix(0.868358 0.495938 -0.504073 0.863661 120.489 0.890625)"/>
</clipPath>
<clipPath id="clip8">
<rect width="50.0198" height="49.7493" fill="white" transform="matrix(0.868358 0.495938 -0.504073 0.863661 112.13 15.2129)"/>
</clipPath>
<clipPath id="clip9">
<rect width="33.3465" height="33.1662" fill="white" transform="matrix(0.868358 0.495938 -0.504073 0.863661 115.19 26.5083)"/>
</clipPath>
<clipPath id="clip10">
<rect width="50.1544" height="66.1513" fill="white" transform="translate(66.975)"/>
</clipPath>
<clipPath id="clip11">
<rect width="50.1544" height="66.1513" fill="white" transform="translate(66.975)"/>
</clipPath>
</defs>
</svg>
