<svg fill="none" height="96" viewBox="0 0 72 96" width="72" xmlns="http://www.w3.org/2000/svg"><path d="m72 29.3v60.3c0 2.24 0 3.36-.44 4.22-.38.74-1 1.36-1.74 1.74-.86.44-1.98.44-4.22.44h-59.2c-2.24 0-3.36 0-4.22-.44-.74-.38-1.36-1-1.74-1.74-.44-.86-.44-1.98-.44-4.22v-83.2c0-2.24 0-3.36.44-4.22.38-.74 1-1.36 1.74-1.74.86-.44 1.98-.44 4.22-.44h36.3c1.96 0 2.94 0 3.86.22.5.12.98.28 1.44.5v16.88c0 2.24 0 3.36.44 4.22.38.74 1 1.36 1.74 1.74.86.44 1.98.44 4.22.44h16.88c.22.46.38.94.5 1.44.22.92.22 1.9.22 3.86z" fill="#d3d6fd"/><path d="m68.26 20.26c1.38 1.38 2.06 2.06 2.56 2.88.18.28.32.56.46.86h-16.88c-2.24 0-3.36 0-4.22-.44-.74-.38-1.36-1-1.74-1.74-.44-.86-.44-1.98-.44-4.22v-16.880029c.3.14.58.28.86.459999.82.5 1.5 1.18 2.88 2.56z" fill="#939bf9"/><path clip-rule="evenodd" d="m45.36 51.24c.26.42.62.76 1.08 1s.98.36 1.54.36 1.08-.12 1.52-.36c.46-.24.8-.58 1.06-1s.38-.92.38-1.46-.14-1.02-.38-1.44-.6-.74-1.04-.98-.96-.36-1.54-.36-1.1.12-1.56.36-.8.56-1.06.98-.38.9-.38 1.44.12 1.04.38 1.46zm5.3 3.46h-5.36v17.3h5.36zm-23.8 12.26h8.42l1.5 5.04h5.84l-7.7-24h-7.64l-7.62 24h5.72zm4.14-14.24 3.02 10.02h-5.94z" fill="#5865f2" fill-rule="evenodd"/></svg>