<svg width="93" height="53" viewBox="0 0 93 53" fill="none" xmlns="http://www.w3.org/2000/svg">
<path d="M22.9038 14.3148L26.2735 17.3896C27.9009 18.8871 28.5451 21.4615 27.8066 24.7617C26.329 31.298 19.9493 38.1977 13.5559 40.1749C10.3721 41.153 7.79275 40.7291 6.18042 39.259L2.69814 36.0714C2.72677 36.1011 2.76119 36.1289 2.79383 36.1509C1.09019 34.6771 0.407874 32.0632 1.16285 28.713C2.63686 22.1648 9.0206 15.2576 15.4158 13.2862C18.67 12.2861 21.3011 12.7518 22.9038 14.3148ZM14.0512 22.0162L12.7144 23.4858L11.2506 23.6845C10.9855 23.7221 10.6997 24.0229 10.6402 24.2856C10.6292 24.3532 10.624 24.4191 10.6483 24.4758L11.0492 25.6549L10.0167 27.2738C9.96461 27.3542 9.93591 27.4274 9.91905 27.4969C9.85956 27.7595 10.0391 27.922 10.3256 27.7879L11.9087 27.0446L12.7389 27.846C12.9277 28.0377 13.4055 27.7541 13.5432 27.3708L14.1134 25.7352L15.6535 24.6071C15.8369 24.4729 15.9532 24.289 15.9932 24.1288C16.0274 23.9704 15.9794 23.8376 15.8342 23.8057L14.609 23.532L14.7409 22.0392C14.7711 21.6829 14.3572 21.6769 14.0512 22.0162Z" fill="#F9A83D"/>
<path d="M14.0517 22.0161L12.715 23.4856L11.2511 23.6843C10.986 23.7219 10.7003 24.0228 10.6407 24.2854C10.6297 24.3531 10.6245 24.4189 10.6487 24.4756L11.0497 25.6547L10.0172 27.2737C9.96507 27.3541 9.93644 27.4273 9.91958 27.4967C9.86009 27.7593 10.0396 27.9218 10.3261 27.7877L11.9093 27.0444L12.7395 27.8458C12.9282 28.0376 13.4061 27.7539 13.5437 27.3706L14.1139 25.7351L15.654 24.6069C15.8374 24.4728 15.9537 24.2888 15.9938 24.1286C16.0279 23.9703 15.98 23.8375 15.8348 23.8056L14.6095 23.5318L14.7414 22.039C14.7717 21.6828 14.3577 21.6767 14.0517 22.0161Z" fill="#F9A83D"/>
<path d="M14.0517 22.0161L12.715 23.4856L11.2511 23.6843C10.986 23.7219 10.7003 24.0228 10.6407 24.2854C10.6297 24.3531 10.6245 24.4189 10.6487 24.4756L11.0497 25.6547L10.0172 27.2737C9.96507 27.3541 9.93644 27.4273 9.91958 27.4967C9.86009 27.7593 10.0396 27.9218 10.3261 27.7877L11.9093 27.0444L12.7395 27.8458C12.9282 28.0376 13.4061 27.7539 13.5437 27.3706L14.1139 25.7351L15.654 24.6069C15.8374 24.4728 15.9537 24.2888 15.9938 24.1286C16.0279 23.9703 15.98 23.8375 15.8348 23.8056L14.6095 23.5318L14.7414 22.039C14.7717 21.6828 14.3577 21.6767 14.0517 22.0161Z" fill="#F9A83D"/>
<path d="M22.7884 14.2061C24.4256 15.7002 25.0621 18.2765 24.3207 21.5752C22.8481 28.1109 16.4678 35.0219 10.072 36.9906C6.89862 37.971 4.31454 37.5423 2.69922 36.0707L6.17737 39.2574C7.79269 40.729 10.3747 41.1511 13.5568 40.1752C19.9505 38.1998 26.3263 31.2976 27.8056 24.7598C28.547 21.4611 27.9037 18.8869 26.2733 17.3907L22.7884 14.2061Z" fill="#FFD06C"/>
<path d="M24.3223 21.5729C25.7977 15.0264 21.8096 11.3171 15.4144 13.2879C9.01933 15.2587 2.63922 22.1631 1.16381 28.7096C-0.310452 35.2511 3.67765 38.9603 10.0728 36.9896C16.468 35.0188 22.848 28.1144 24.3223 21.5729ZM4.25811 27.7565C5.33866 22.9618 10.0232 17.8922 14.7016 16.4505C19.3855 15.0071 22.3137 17.7306 21.2331 22.5253C20.1538 27.3144 15.4692 32.384 10.7853 33.8274C6.10694 35.2691 3.17877 32.5456 4.25811 27.7565Z" fill="#F9A83D"/>
<path d="M14.7019 16.4476C10.0201 17.8898 5.34138 22.9593 4.26039 27.7574C3.50566 31.098 4.69851 33.431 7.07779 34.0463C8.11113 34.3155 9.37072 34.2642 10.7823 33.8249C15.4711 32.3805 20.1519 27.3179 21.235 22.5267C21.7718 20.1402 21.3152 18.2674 20.1374 17.1721C18.9669 16.0517 17.0567 15.7222 14.7019 16.4476Z" fill="#FFD06C"/>
<path d="M6.31454 29.7483C6.65424 30.8344 7.42678 31.6088 8.55333 31.9005C9.38307 32.1158 10.3717 32.059 11.4111 31.7355C14.9016 30.6596 18.3992 26.8799 19.2061 23.3093C19.6089 21.521 19.2941 20.0382 18.3193 19.131C17.351 18.2042 15.8423 17.992 14.0738 18.5368C10.585 19.6114 7.09154 23.3949 6.28579 26.9715C6.04961 28.0167 6.0692 28.964 6.31454 29.7483ZM18.5995 20.7204C18.8123 21.4007 18.8179 22.2357 18.6067 23.1747C17.8426 26.5539 14.5329 30.132 11.2288 31.1498C10.2983 31.4395 9.42678 31.4937 8.70807 31.3066C7.09281 30.8898 6.39471 29.2799 6.88558 27.106C7.64794 23.7204 10.9542 20.1395 14.2552 19.1227C15.8005 18.6467 17.0941 18.8079 17.897 19.5767C18.2219 19.8789 18.4573 20.2655 18.5995 20.7204Z" fill="#FEBC1F"/>
<path d="M15.9912 24.1307C16.0272 23.9714 15.9811 23.8378 15.8357 23.8067L14.6108 23.5316L14.743 22.038C14.7747 21.6835 14.3594 21.676 14.0542 22.0163L12.7131 23.4844L11.2528 23.684C10.9831 23.7215 10.7016 24.0244 10.6428 24.2857C10.6276 24.3532 10.6272 24.4178 10.6457 24.4745L11.0491 25.6552L10.0145 27.2751C9.96579 27.3524 9.93487 27.4267 9.91959 27.4944C9.86049 27.7568 10.0365 27.9214 10.3284 27.7857L11.9109 27.0436L12.7412 27.8425C12.9262 28.0359 13.407 27.7523 13.5412 27.3702L14.1148 25.7324L15.6549 24.6093C15.8375 24.4751 15.9554 24.29 15.9912 24.1307Z" fill="#F9A83D"/>
<path d="M19.8324 26.6737C20.2727 28.0813 19.4873 29.5757 18.0762 30.0149C18.7805 29.7956 19.51 29.8824 20.1155 30.1971C20.7193 30.515 21.2057 31.0643 21.4254 31.7669C21.2057 31.0643 21.2926 30.3366 21.6081 29.7325C21.9268 29.1301 22.4773 28.6449 23.1817 28.4257C22.4773 28.6449 21.7479 28.5582 21.1423 28.2435C20.5385 27.9256 20.0522 27.3763 19.8324 26.6737Z" fill="white"/>
<path d="M70.0942 14.3148L66.7245 17.3896C65.0972 18.8871 64.453 21.4615 65.1914 24.7617C66.669 31.298 73.0488 38.1977 79.4422 40.1749C82.626 41.153 85.2053 40.7291 86.8176 39.259L90.2999 36.0714C90.2713 36.1011 90.2369 36.1289 90.2042 36.1509C91.9079 34.6771 92.5902 32.0632 91.8352 28.713C90.3612 22.1648 83.9775 15.2576 77.5823 13.2862C74.328 12.2861 71.697 12.7518 70.0942 14.3148ZM78.9468 22.0162L80.2836 23.4858L81.7474 23.6845C82.0126 23.7221 82.2983 24.0229 82.3578 24.2856C82.3689 24.3532 82.374 24.4191 82.3498 24.4758L81.9488 25.6549L82.9814 27.2738C83.0334 27.3542 83.0621 27.4274 83.079 27.4969C83.1385 27.7595 82.9589 27.922 82.6725 27.7879L81.0893 27.0446L80.2591 27.846C80.0703 28.0377 79.5925 27.7541 79.4548 27.3708L78.8847 25.7352L77.3446 24.6071C77.1611 24.4729 77.0448 24.289 77.0048 24.1288C76.9706 23.9704 77.0186 23.8376 77.1638 23.8057L78.389 23.532L78.2571 22.0392C78.2269 21.6829 78.6409 21.6769 78.9468 22.0162Z" fill="#F9A83D"/>
<path d="M78.9463 22.0161L80.2831 23.4856L81.7469 23.6843C82.012 23.7219 82.2978 24.0228 82.3573 24.2854C82.3683 24.3531 82.3735 24.4189 82.3493 24.4756L81.9484 25.6547L82.9809 27.2737C83.033 27.3541 83.0616 27.4273 83.0785 27.4967C83.138 27.7593 82.9584 27.9218 82.672 27.7877L81.0888 27.0444L80.2586 27.8458C80.0698 28.0376 79.592 27.7539 79.4543 27.3706L78.8842 25.7351L77.344 24.6069C77.1606 24.4728 77.0443 24.2888 77.0043 24.1286C76.9701 23.9703 77.0181 23.8375 77.1633 23.8056L78.3885 23.5318L78.2566 22.039C78.2264 21.6828 78.6403 21.6767 78.9463 22.0161Z" fill="#F9A83D"/>
<path d="M78.9463 22.0161L80.2831 23.4856L81.7469 23.6843C82.012 23.7219 82.2978 24.0228 82.3573 24.2854C82.3683 24.3531 82.3735 24.4189 82.3493 24.4756L81.9484 25.6547L82.9809 27.2737C83.033 27.3541 83.0616 27.4273 83.0785 27.4967C83.138 27.7593 82.9584 27.9218 82.672 27.7877L81.0888 27.0444L80.2586 27.8458C80.0698 28.0376 79.592 27.7539 79.4543 27.3706L78.8842 25.7351L77.344 24.6069C77.1606 24.4728 77.0443 24.2888 77.0043 24.1286C76.9701 23.9703 77.0181 23.8375 77.1633 23.8056L78.3885 23.5318L78.2566 22.039C78.2264 21.6828 78.6403 21.6767 78.9463 22.0161Z" fill="#F9A83D"/>
<path d="M70.2096 14.2061C68.5725 15.7002 67.9359 18.2765 68.6773 21.5752C70.15 28.1109 76.5303 35.0219 82.926 36.9906C86.0994 37.971 88.6835 37.5423 90.2988 36.0707L86.8207 39.2574C85.2054 40.729 82.6233 41.1511 79.4412 40.1752C73.0476 38.1998 66.6718 31.2976 65.1924 24.7598C64.4511 21.4611 65.0943 18.8869 66.7248 17.3907L70.2096 14.2061Z" fill="#FFD06C"/>
<path d="M68.6758 21.5729C67.2004 15.0264 71.1884 11.3171 77.5836 13.2879C83.9787 15.2587 90.3588 22.1631 91.8342 28.7096C93.3085 35.2511 89.3204 38.9603 82.9253 36.9896C76.5301 35.0188 70.15 28.1144 68.6758 21.5729ZM88.7399 27.7565C87.6594 22.9618 82.9748 17.8922 78.2965 16.4505C73.6125 15.0071 70.6843 17.7306 71.7649 22.5253C72.8443 27.3144 77.5288 32.384 82.2127 33.8274C86.8911 35.2691 89.8193 32.5456 88.7399 27.7565Z" fill="#F9A83D"/>
<path d="M78.2962 16.4476C82.978 17.8898 87.6567 22.9593 88.7377 27.7574C89.4924 31.098 88.2995 33.431 85.9203 34.0463C84.8869 34.3155 83.6273 34.2642 82.2157 33.8249C77.527 32.3805 72.8461 27.3179 71.763 22.5267C71.2262 20.1402 71.6829 18.2674 72.8607 17.1721C74.0311 16.0517 75.9414 15.7222 78.2962 16.4476Z" fill="#FFD06C"/>
<path d="M86.6835 29.7483C86.3438 30.8344 85.5713 31.6088 84.4447 31.9005C83.615 32.1158 82.6264 32.059 81.587 31.7355C78.0964 30.6596 74.5989 26.8799 73.7919 23.3093C73.3892 21.521 73.7039 20.0382 74.6787 19.131C75.647 18.2042 77.1558 17.992 78.9243 18.5368C82.413 19.6114 85.9065 23.3949 86.7123 26.9715C86.9484 28.0167 86.9288 28.964 86.6835 29.7483ZM74.3985 20.7204C74.1857 21.4007 74.1801 22.2357 74.3914 23.1747C75.1555 26.5539 78.4651 30.132 81.7692 31.1498C82.6997 31.4395 83.5713 31.4937 84.29 31.3066C85.9052 30.8898 86.6033 29.2799 86.1125 27.106C85.3501 23.7204 82.0438 20.1395 78.7429 19.1227C77.1975 18.6467 75.904 18.8079 75.1011 19.5767C74.7761 19.8789 74.5408 20.2655 74.3985 20.7204Z" fill="#FEBC1F"/>
<path d="M77.0068 24.1307C76.9709 23.9714 77.0169 23.8378 77.1623 23.8067L78.3872 23.5316L78.2551 22.038C78.2233 21.6835 78.6386 21.676 78.9438 22.0163L80.285 23.4844L81.7452 23.684C82.015 23.7215 82.2964 24.0244 82.3553 24.2857C82.3705 24.3532 82.3709 24.4178 82.3524 24.4745L81.949 25.6552L82.9835 27.2751C83.0323 27.3524 83.0632 27.4267 83.0785 27.4944C83.1376 27.7568 82.9615 27.9214 82.6697 27.7857L81.0872 27.0436L80.2569 27.8425C80.0719 28.0359 79.591 27.7523 79.4568 27.3702L78.8832 25.7324L77.3432 24.6093C77.1606 24.4751 77.0427 24.29 77.0068 24.1307Z" fill="#F9A83D"/>
<path d="M73.1656 26.6737C72.7253 28.0813 73.5108 29.5757 74.9219 30.0149C74.2175 29.7956 73.4881 29.8824 72.8826 30.1971C72.2787 30.515 71.7924 31.0643 71.5726 31.7669C71.7924 31.0643 71.7054 30.3366 71.39 29.7325C71.0713 29.1301 70.5207 28.6449 69.8164 28.4257C70.5207 28.6449 71.2502 28.5582 71.8557 28.2435C72.4595 27.9256 72.9459 27.3763 73.1656 26.6737Z" fill="white"/>
<g clip-path="url(#clip0_919_3480)">
<path d="M39.7811 7.24778C50.1347 3.37672 61.4393 8.01025 65.0248 17.6001C66.3671 21.2081 66.4814 25.1585 65.3505 28.8427C64.8659 30.4577 64.1673 32.0016 63.2731 33.4327C62.5466 34.6219 61.6942 35.7293 60.7293 36.7356C59.6798 37.8391 58.5126 38.8243 57.2481 39.6741C54.4387 41.5566 51.2275 42.7572 47.8722 43.1796C46.3604 43.3679 44.8331 43.39 43.317 43.2458C41.929 43.1192 40.5588 42.8428 39.2303 42.4219C37.6165 41.9285 36.0764 41.2217 34.6512 40.3207C31.3806 38.2821 28.8752 35.2257 27.5212 31.6221C23.9357 22.0323 29.4275 11.1188 39.7811 7.24778Z" fill="#F9A83D"/>
<path fill-rule="evenodd" clip-rule="evenodd" d="M34.6271 40.3272C31.3533 38.2902 28.8461 35.2347 27.4922 31.6313L28.9902 35.638C30.3331 39.2097 32.8095 42.2439 36.0438 44.2801L34.5908 40.3939L34.6271 40.3272ZM65.0531 17.5879C66.3952 21.1957 66.5076 25.1465 65.3732 28.8317L65.4444 28.8582L66.8974 32.7444C68.0025 29.0858 67.8809 25.1712 66.5511 21.5945L65.0531 17.5879ZM66.8974 32.7446L65.4444 28.8584L65.3732 28.8319C64.8872 30.4474 64.1869 31.9917 63.2907 33.4234L63.2907 33.4235C62.5626 34.6132 61.7085 35.7212 60.7419 36.7281L60.7419 36.728C59.6903 37.8322 58.521 38.8182 57.2544 39.6687L58.7074 43.5549L58.7767 43.6583C60.0368 42.8104 61.1996 41.827 62.244 40.7257C63.2192 39.7119 64.081 38.5962 64.8147 37.3976C65.7161 35.9468 66.4168 34.3815 66.8974 32.7446ZM58.7766 43.6583C57.3681 44.6056 55.8525 45.3842 54.2619 45.9781C52.6718 46.5734 51.0174 46.98 49.3327 47.1892C47.8254 47.376 46.3028 47.3967 44.792 47.2507C43.3916 47.1224 42.0093 46.8458 40.6685 46.4255L39.1929 42.4789L39.2113 42.4263C40.5413 42.8467 41.9132 43.1224 43.3029 43.2483L43.3029 43.2482C44.8209 43.3916 46.3503 43.3687 47.8642 43.1795C49.5388 42.9711 51.1838 42.5656 52.7639 41.9715C54.3462 41.3832 55.8537 40.6101 57.2543 39.6687L58.7073 43.5549L58.7766 43.6583ZM34.6272 40.3274C36.0538 41.2277 37.5956 41.9338 39.2113 42.4263L39.1929 42.479L40.6684 46.4255C39.0363 45.922 37.4805 45.2003 36.0439 44.2803L34.5909 40.394L34.6272 40.3274Z" fill="#FFD06C"/>
<path d="M61.0028 19.1035C58.2441 11.7251 49.4128 8.20957 41.2773 11.2513C33.1418 14.293 28.7832 22.74 31.5419 30.1185C34.3006 37.497 43.1318 41.0125 51.2673 37.9708C59.4028 34.929 63.7615 26.482 61.0028 19.1035Z" fill="#FFD06C"/>
<path d="M57.4463 20.3838C59.5545 26.0224 56.3329 32.5554 50.0688 34.8975C43.8047 37.2395 37.0873 34.4225 34.9791 28.784C32.871 23.1455 36.0926 16.6124 42.3567 14.2704C48.6207 11.9283 55.3382 14.7453 57.4463 20.3838Z" stroke="#FEBC1F" stroke-width="1.4"/>
<path d="M50.7818 21.1599C50.6366 20.9774 50.3961 20.8991 50.1696 20.9614L47.0916 21.8056L44.8893 19.5043C44.7274 19.3358 44.481 19.2797 44.2613 19.3618C44.0417 19.444 43.8926 19.6479 43.8811 19.8818L43.7286 23.063L40.8513 24.4453C40.6401 24.5472 40.5103 24.7635 40.52 24.9966C40.5298 25.2299 40.6777 25.4344 40.897 25.5162L43.8817 26.6383L44.3054 29.7947C44.3368 30.0267 44.5029 30.2165 44.7291 30.2781C44.8508 30.3111 44.9761 30.3043 45.0891 30.262C45.1867 30.2255 45.2736 30.1633 45.3411 30.0791L47.3384 27.5918L50.4767 28.159C50.7066 28.2012 50.9396 28.1024 51.0695 27.9075C51.1999 27.7121 51.2006 27.4599 51.0722 27.2647L49.3213 24.6045L50.8378 21.7999C50.9494 21.5939 50.9275 21.3427 50.7818 21.1599Z" fill="#F9A83D"/>
<path d="M36.1687 43.5125C37.3609 42.4808 39.1603 42.6051 40.192 43.7905C39.677 43.1988 39.4513 42.4516 39.5018 41.7274C39.5563 41.0034 39.8875 40.2947 40.4826 39.7798C39.8875 40.2947 39.1371 40.5218 38.4106 40.4736C37.6843 40.4214 36.9742 40.0933 36.4593 39.5018C36.9742 40.0933 37.1999 40.8406 37.1494 41.5648C37.095 42.2888 36.7637 42.9975 36.1687 43.5125Z" fill="white"/>
</g>
<defs>
<clipPath id="clip0_919_3480">
<rect width="40.1325" height="41.3487" fill="white" transform="translate(21 14.2698) rotate(-20.5)"/>
</clipPath>
</defs>
</svg>
