<svg width="41" height="37" viewBox="0 0 41 37" fill="none" xmlns="http://www.w3.org/2000/svg">
<g clip-path="url(#clip0_3980_381171)">
<g clip-path="url(#clip1_3980_381171)">
<path d="M12.3614 27.2349C10.2909 28.3627 4.40799 32.0367 0.522574 37.9207C-0.456769 39.4031 -0.0161784 41.4025 1.50192 42.3199C2.52007 42.9353 3.83956 42.6676 4.54267 41.7091C4.76639 41.4025 4.99011 41.1097 5.21383 40.8237C6.09045 40.9381 7.87792 40.842 7.58571 38.1174C10.6653 34.9878 13.496 33.4871 15.1419 32.6041C15.1442 32.6041 12.6194 27.4476 12.3614 27.2349Z" fill="url(#paint0_linear_3980_381171)"/>
<path d="M11.6035 26.7775C9.8092 32.9016 7.20218 40.5196 12.7335 42.391C16.9591 43.8208 22.4448 43.3838 26.0334 42.0021C29.6221 40.6226 29.2089 36.4819 28.1976 32.0392C27.184 27.5965 25.7115 22.9753 25.7115 22.9753L11.6035 26.7775Z" fill="url(#paint1_linear_3980_381171)"/>
<path d="M40.4066 21.8908C39.2377 20.6508 38.0826 20.2436 36.8088 21.6574C35.3774 20.6851 34.0534 21.726 34.3068 23.4601C31.492 25.8141 28.417 26.4158 25.7666 26.322C25.7621 26.322 26.2757 33.7227 26.4606 34.0018C32.9165 33.3155 39.0802 27.1067 39.0802 27.1067C40.9727 25.519 41.564 23.1238 40.4043 21.893L40.4066 21.8908Z" fill="#698FFF"/>
<path d="M11.0693 27.6192C11.0693 27.6192 13.7791 36.6693 27.5515 26.4868L11.0693 27.6192Z" fill="#4677F7"/>
<path d="M22.2741 7.97945C19.6557 8.04121 16.9847 8.27913 14.4462 8.70922C8.36926 9.73868 4.22132 15.236 5.23034 20.9872C5.23947 21.0399 5.2486 21.0925 5.25774 21.1451C5.92433 24.8054 9.38285 27.3928 13.3071 27.2349C16.6857 27.0977 20.4364 26.814 23.9292 26.3015C28.0748 25.6907 31.0471 22.1494 30.7389 18.194C30.6362 16.8648 30.4764 15.5242 30.2618 14.2271C29.6477 10.5279 26.228 7.88565 22.2718 7.97716L22.2741 7.97945Z" fill="#698FFF"/>
<path d="M10.0305 19.9639C10.5901 19.9235 11.0002 19.2849 10.9465 18.5376C10.8928 17.7903 10.3956 17.2173 9.836 17.2577C9.2764 17.2981 8.8663 17.9366 8.92001 18.6839C8.97373 19.4312 9.47092 20.0043 10.0305 19.9639Z" fill="#141226"/>
<path d="M26.1306 17.8948C26.6902 17.8544 27.1003 17.2158 27.0466 16.4685C26.9929 15.7212 26.4957 15.1482 25.9361 15.1886C25.3765 15.229 24.9664 15.8675 25.0201 16.6148C25.0738 17.3621 25.571 17.9352 26.1306 17.8948Z" fill="#141226"/>
<path d="M21.0479 14.5565C18.7353 14.5497 16.2904 14.8105 14.2747 15.4442C12.9985 15.8445 12.1219 16.97 12.1379 18.2374C12.147 18.8254 12.1836 19.4202 12.2635 20.0195C12.5557 22.2226 14.649 23.7782 16.9935 23.6135C18.103 23.5357 19.2718 23.4213 20.4064 23.2612C22.8719 22.9112 24.616 20.7356 24.2553 18.4113C24.164 17.8256 24.0498 17.2468 23.9106 16.6955C23.5978 15.4419 22.413 14.5657 21.0479 14.5611V14.5565Z" fill="#B6CBFF"/>
<path d="M17.1234 20.8041L15.3805 21.0142C15.0563 21.0533 14.825 21.3478 14.8639 21.6721C14.9029 21.9964 15.1972 22.2275 15.5215 22.1885L17.2644 21.9783C17.5886 21.9392 17.8199 21.6447 17.7809 21.3204C17.742 20.9962 17.4476 20.765 17.1234 20.8041Z" fill="#698FFF"/>
<path d="M19.9975 21.6687L21.7431 21.482C22.0678 21.4473 22.303 21.1559 22.2684 20.8312C22.2339 20.5064 21.9426 20.2713 21.6179 20.306L19.8723 20.4926C19.5476 20.5273 19.3124 20.8188 19.347 21.1435C19.3816 21.4683 19.6728 21.7034 19.9975 21.6687Z" fill="#698FFF"/>
<path d="M17.0962 5.90002C9.32995 6.77162 3.51553 12.9873 4.10907 19.7817C4.41725 23.2956 6.37822 26.2742 9.27516 28.2118C9.68836 28.4886 10.1883 28.6007 10.6814 28.5436L27.3302 26.6745C27.8142 26.6196 28.2685 26.4046 28.6132 26.0568C31.1289 23.5106 32.5443 20.1454 32.2361 16.6224C31.6425 9.83026 24.8647 5.02841 17.0962 5.90002ZM23.9562 24.8627L12.6583 26.13C11.3914 26.2719 10.1267 25.8578 9.19069 24.9931L6.74576 22.7374C5.86002 21.9207 5.58151 20.6327 6.05178 19.5209L8.152 14.5498C8.79804 13.0216 10.4554 12.1912 12.0648 12.5892L17.2606 13.8772C17.7103 13.9893 18.1874 13.9321 18.5983 13.717L22.8901 11.4682C24.4105 10.6721 26.2847 11.1457 27.2435 12.5709L29.9464 16.5835C30.6746 17.6656 30.5787 19.1068 29.7112 20.0814L26.7481 23.4123C26.0267 24.2221 25.0314 24.7391 23.9562 24.8581V24.8627Z" fill="#DCE4FF"/>
<path fill-rule="evenodd" clip-rule="evenodd" d="M14.9048 6.57487L15.3431 10.4205C15.3705 10.663 15.5897 10.8391 15.8316 10.8094L18.8062 10.4685C19.0482 10.4411 19.224 10.2215 19.1943 9.97896L18.756 6.13335C18.7377 5.98236 18.6669 5.84281 18.5551 5.74216L17.0028 4.34438C16.7653 4.12934 16.3932 4.1728 16.2106 4.43589L15.0121 6.14936C14.9254 6.2729 14.8865 6.42617 14.9048 6.57716V6.57487Z" fill="#FF7700"/>
<path fill-rule="evenodd" clip-rule="evenodd" d="M16.6283 8.45303L15.4595 10.6698C15.5508 10.7705 15.6878 10.8277 15.8339 10.8116L18.8084 10.4708C18.9545 10.4548 19.0755 10.3678 19.1417 10.2489L17.5026 8.35466C17.2561 8.07099 16.8041 8.1236 16.6283 8.45532V8.45303Z" fill="#FF871D"/>
<path d="M13.2454 23.7234C12.3984 23.5175 11.9556 23.0394 11.5127 22.678C11.0675 22.3188 10.5927 22.4606 10.4306 22.7534C10.2685 23.044 10.2982 23.8401 10.9397 24.4784C11.5812 25.1166 12.8664 24.9359 13.3755 24.6156C13.8846 24.2953 13.7955 23.8538 13.2499 23.7211L13.2454 23.7234Z" fill="#D01582"/>
<path d="M10.3485 23.211C10.3622 23.5771 10.5197 24.062 10.9374 24.4784C11.5721 25.1121 12.8436 24.9405 13.3596 24.6225C12.782 23.8722 11.9122 23.4169 10.3462 23.2087L10.3485 23.211Z" fill="#FF78B8"/>
<path d="M34.0966 14.3553L31.5854 14.3713L32.0375 10.0316C32.0785 9.63582 32.4096 9.33384 32.8068 9.33156C33.204 9.32927 33.5396 9.62667 33.5852 10.0202L34.0943 14.353L34.0966 14.3553Z" fill="#B5C3F3"/>
<path d="M32.8205 11.2898C32.4529 11.2921 32.1196 11.4362 31.8685 11.6673L31.5854 14.3736L34.0966 14.3576L33.7793 11.6558C33.5236 11.4293 33.1903 11.2898 32.8205 11.2921V11.2898Z" fill="#B5C3F3"/>
<path d="M33.7446 13.7661L34.2172 13.7631C34.8792 13.7588 35.4214 14.2952 35.4257 14.9586L35.4516 18.9803C35.4559 19.6437 34.9206 20.187 34.2586 20.1913L33.7861 20.1944L33.7446 13.7661Z" fill="#FF871D"/>
<path d="M34.2776 13.9478C34.2724 13.1506 33.6239 12.5085 32.829 12.5136C32.034 12.5188 31.3938 13.1692 31.399 13.9665L31.438 20.0241C31.4431 20.8213 32.0917 21.4635 32.8866 21.4583C33.6815 21.4532 34.3217 20.8027 34.3166 20.0055L34.2776 13.9478Z" fill="#DCE4FF"/>
<path d="M1.79465 18.0271L4.24415 17.4803L2.83334 13.3533C2.7055 12.9758 2.31514 12.7585 1.92705 12.8432C1.53897 12.9301 1.27872 13.2938 1.3221 13.6896L1.79465 18.0271Z" fill="#B5C3F3"/>
<path d="M2.3515 14.7533C2.70991 14.6733 3.06604 14.7396 3.36509 14.9066L4.24399 17.4802L1.79449 18.027L1.5 15.323C1.69861 15.0439 1.9931 14.8334 2.3515 14.7533Z" fill="#B5C3F3"/>
<path d="M3.40283 23.646L2.94161 23.7491C2.29545 23.8934 1.65236 23.484 1.50828 22.8365L0.63487 18.9111C0.490792 18.2636 0.899381 17.6191 1.54554 17.4747L2.00676 17.3717L3.40283 23.646Z" fill="#FF871D"/>
<path d="M2.84167 23.5827C3.01481 24.3608 3.78414 24.851 4.56001 24.6777C5.33588 24.5043 5.82449 23.733 5.65135 22.9548L4.33577 17.0422C4.16263 16.2641 3.3933 15.7739 2.61743 15.9472C1.84156 16.1206 1.35295 16.8919 1.52609 17.6701L2.84167 23.5827Z" fill="#DCE4FF"/>
</g>
</g>
<defs>
<linearGradient id="paint0_linear_3980_381171" x1="14.2425" y1="26.1391" x2="4.00699" y2="40.6295" gradientUnits="userSpaceOnUse">
<stop stop-color="#4F6FE7"/>
<stop offset="0.79" stop-color="#698FFF"/>
</linearGradient>
<linearGradient id="paint1_linear_3980_381171" x1="19.2944" y1="24.2496" x2="19.36" y2="52.6375" gradientUnits="userSpaceOnUse">
<stop offset="0.52" stop-color="#698FFF"/>
<stop offset="0.83" stop-color="#597BF0"/>
<stop offset="1" stop-color="#4F6FE7"/>
</linearGradient>
<clipPath id="clip0_3980_381171">
<rect width="41" height="36" fill="white" transform="translate(0 0.207031)"/>
</clipPath>
<clipPath id="clip1_3980_381171">
<rect width="41" height="49" fill="white" transform="translate(0 4.20703)"/>
</clipPath>
</defs>
</svg>
