<svg width="32" height="32" viewBox="0 0 32 32" fill="none" xmlns="http://www.w3.org/2000/svg">
<circle cx="16" cy="16" r="16" fill="#747F8D"/>
<path d="M16 17.75C12.4668 17.75 10 19.6003 10 22.25V23.75H22V22.25C22 19.6003 19.5332 17.75 16 17.75ZM15.25 21.5C14.8353 21.5 14.5 21.1647 14.5 20.75C14.5 20.3353 14.8353 20 15.25 20C15.6647 20 16 20.3353 16 20.75C16 21.1647 15.6647 21.5 15.25 21.5ZM17.5 21.5C17.0853 21.5 16.75 21.1647 16.75 20.75C16.75 20.3353 17.0853 20 17.5 20C17.9147 20 18.25 20.3353 18.25 20.75C18.25 21.1647 17.9147 21.5 17.5 21.5Z" fill="#F8F9F9"/>
<path d="M20.5 11.75H20.4325C20.074 9.62525 18.2253 8 16 8C13.7747 8 11.926 9.62525 11.5675 11.75H11.5C10.672 11.75 10 12.422 10 13.25V14C10 14.828 10.672 15.5 11.5 15.5C11.5 16.3265 12.1727 17 13 17H19C19.828 17 20.5 16.3265 20.5 15.5C21.328 15.5 22 14.828 22 14V13.25C22 12.422 21.328 11.75 20.5 11.75ZM19 14.75H13V11.75H19V14.75Z" fill="#F8F9F9"/>
</svg>
