<svg width="57" height="68" viewBox="0 0 57 68" fill="none" xmlns="http://www.w3.org/2000/svg">
<g clip-path="url(#clip0_201_5928)">
<path d="M8.6883 43.1262C8.60634 43.1279 8.5264 43.1007 8.46239 43.0495C8.39837 42.9983 8.35435 42.9263 8.33797 42.846L6.06079 31.6352C6.05061 31.5892 6.04985 31.5415 6.05854 31.4951C6.06723 31.4487 6.08521 31.4046 6.11138 31.3653C6.13756 31.3261 6.17139 31.2925 6.21086 31.2666C6.25033 31.2408 6.29461 31.2232 6.34106 31.2148C6.38713 31.2047 6.43479 31.2039 6.48117 31.2126C6.52755 31.2213 6.57169 31.2393 6.61095 31.2654C6.65021 31.2916 6.68378 31.3254 6.70965 31.3649C6.73551 31.4044 6.75313 31.4487 6.76146 31.4951L9.03864 42.7058C9.05039 42.7979 9.0285 42.8911 8.97701 42.9684C8.92552 43.0456 8.84788 43.1017 8.75837 43.1262H8.6883Z" fill="#DAE2ED"/>
<path d="M36.1896 25.8547H29.4281C25.1891 25.8547 23.1221 23.8228 23.1221 23.8228V32.6512H27.3612C27.7465 30.4441 29.6734 29.4632 32.0206 29.4632H36.1546C36.4122 29.5016 36.675 29.4844 36.9254 29.4126C37.1758 29.3408 37.4079 29.2162 37.6061 29.0471C37.8042 28.878 37.9638 28.6684 38.074 28.4324C38.1842 28.1964 38.2426 27.9395 38.2451 27.6791C38.2477 27.4186 38.1943 27.1606 38.0887 26.9225C37.983 26.6844 37.8276 26.4718 37.6327 26.2989C37.4379 26.126 37.2083 25.9969 36.9593 25.9202C36.7104 25.8436 36.4479 25.8213 36.1896 25.8547V25.8547Z" fill="#80A7FF"/>
<path d="M30.8295 44.0721H29.1829C28.9785 44.0721 28.7824 44.1533 28.6379 44.2979C28.4934 44.4424 28.4122 44.6385 28.4122 44.8429V48.2761C28.4032 48.7286 28.2195 49.1601 27.8995 49.4801C27.5794 49.8001 27.148 49.9838 26.6955 49.9928C26.243 49.9838 25.8116 49.8001 25.4916 49.4801C25.1716 49.1601 24.9878 48.7286 24.9789 48.2761V33.8423C24.9881 33.3374 25.1951 32.8563 25.5555 32.5025C25.9158 32.1486 26.4007 31.9505 26.9057 31.9505H32.7213C33.223 31.9505 33.7042 32.1499 34.059 32.5046C34.4138 32.8594 34.6131 33.3406 34.6131 33.8423V40.2535C34.6177 40.7533 34.5233 41.2491 34.3352 41.7122C34.1471 42.1753 33.8692 42.5965 33.5174 42.9516C33.1656 43.3066 32.7469 43.5885 32.2855 43.7808C31.8242 43.9731 31.3293 44.0722 30.8295 44.0721V44.0721Z" fill="#80A7FF"/>
<path d="M33.0015 27.2561C32.2296 26.1948 31.2181 25.3308 30.0493 24.7342C28.8805 24.1376 27.5874 23.8254 26.2751 23.8228H15.0294C13.7007 23.8228 12.4264 24.3506 11.4869 25.2901C10.5474 26.2296 10.0196 27.5039 10.0196 28.8326V38.0113C10.0195 38.8973 10.3691 39.7475 10.9922 40.3772C11.6154 41.0069 12.4619 41.3653 13.3478 41.3745H29.6383C30.9609 41.3653 32.2262 40.8334 33.1582 39.8949C34.0901 38.9564 34.6131 37.6874 34.6131 36.3648V32.1607C34.6157 30.3953 34.0507 28.6759 33.0015 27.2561V27.2561Z" fill="#9CB8FF"/>
<path fill-rule="evenodd" clip-rule="evenodd" d="M46.1391 66.3885C42.9647 67.8451 39.4296 68.3276 35.981 67.7749C32.5323 67.2222 29.3251 65.6592 26.7649 63.2835C24.2047 60.9078 22.4065 57.8262 21.5979 54.4284C20.7893 51.0306 21.0065 47.4694 22.2221 44.1951C23.4377 40.9208 25.5971 38.0806 28.4271 36.0337C31.2571 33.9868 34.6305 32.8252 38.1208 32.6958C41.611 32.5663 45.0613 33.4749 48.0351 35.3066C51.0089 37.1383 53.3727 39.8108 54.8274 42.9861C56.758 47.2443 56.9283 52.0928 55.301 56.4759C53.6737 60.859 50.3808 64.4218 46.1391 66.3885V66.3885Z" fill="#4F5D7F"/>
<path fill-rule="evenodd" clip-rule="evenodd" d="M20.3545 53.7764H14.609C14.3735 53.7673 14.1507 53.6674 13.9874 53.4975C13.8241 53.3277 13.7329 53.1012 13.7331 52.8655V49.7826C13.7331 49.5503 13.8254 49.3275 13.9897 49.1633C14.1539 48.999 14.3767 48.9067 14.609 48.9067H20.3545C20.5867 48.9067 20.8095 48.999 20.9738 49.1633C21.138 49.3275 21.2303 49.5503 21.2303 49.7826V52.8655C21.2305 53.1012 21.1393 53.3277 20.976 53.4975C20.8127 53.6674 20.5899 53.7673 20.3545 53.7764V53.7764Z" fill="#FF5C5C"/>
<path fill-rule="evenodd" clip-rule="evenodd" d="M31.6002 55.5281H17.797C17.0909 55.5281 16.4136 55.2476 15.9143 54.7482C15.415 54.2489 15.1345 53.5717 15.1345 52.8655V48.171C15.1436 47.7497 15.3175 47.3488 15.6187 47.0541C15.9199 46.7594 16.3246 46.5944 16.746 46.5945H31.6002V55.5281Z" fill="#B7C2CE"/>
<path fill-rule="evenodd" clip-rule="evenodd" d="M9.45905 46.1391H11.8764C13.2148 46.1396 14.499 46.6684 15.4498 47.6105L16.5708 48.7666C18.3703 50.5507 20.7983 51.5571 23.3323 51.5693H33.0366V44.2123H9.45905V46.1391Z" fill="black"/>
<path d="M8.82844 41.3745H31.1798V46.1391H8.82844C8.19662 46.1391 7.59068 45.8881 7.14391 45.4414C6.69715 44.9946 6.44616 44.3886 6.44616 43.7568V43.7568C6.44616 43.125 6.69715 42.5191 7.14391 42.0723C7.59068 41.6255 8.19662 41.3745 8.82844 41.3745V41.3745Z" fill="black"/>
<path fill-rule="evenodd" clip-rule="evenodd" d="M43.5466 60.7831C41.4811 61.736 39.1792 62.0544 36.9326 61.698C34.686 61.3416 32.5956 60.3264 30.9264 58.781C29.2572 57.2357 28.0843 55.2297 27.5561 53.0171C27.0279 50.8045 27.1683 48.485 27.9594 46.3523C28.7506 44.2196 30.157 42.3697 32.0004 41.0369C33.8437 39.7041 36.0412 38.9484 38.3144 38.8656C40.5877 38.7827 42.8343 39.3764 44.7699 40.5715C46.7054 41.7665 48.2427 43.5091 49.187 45.5786C50.4393 48.3449 50.5493 51.4936 49.4931 54.3406C48.437 57.1876 46.3 59.5027 43.5466 60.7831V60.7831Z" fill="#7687B2"/>
<path d="M19.6888 40.2535V31.1448C19.6888 30.5492 19.4086 26.9057 18.9882 23.8228H15.0294C13.7503 23.8292 12.5215 24.3211 11.5914 25.1992C10.6613 26.0772 10.0995 27.2757 10.0196 28.5523V48.2761C10.0285 48.7286 10.2123 49.1601 10.5323 49.4801C10.8523 49.8001 11.2837 49.9838 11.7362 49.9928C12.1887 49.9838 12.6201 49.8001 12.9401 49.4801C13.2602 49.1601 13.4439 48.7286 13.4529 48.2761V44.8429C13.4529 44.6385 13.5341 44.4424 13.6786 44.2979C13.8231 44.1533 14.0192 44.0721 14.2236 44.0721H15.8702C16.8829 44.0721 17.8542 43.6698 18.5704 42.9537C19.2865 42.2375 19.6888 41.2662 19.6888 40.2535V40.2535Z" fill="#80A7FF"/>
<path d="M40.2184 39.9732L35.4189 28.1319H36.7151C36.7686 28.1368 36.8225 28.1304 36.8733 28.1133C36.9242 28.0961 36.971 28.0685 37.0105 28.0322C37.0501 27.9959 37.0817 27.9518 37.1032 27.9026C37.1247 27.8534 37.1357 27.8002 37.1355 27.7465C37.1355 27.6913 37.1246 27.6366 37.1035 27.5856C37.0824 27.5346 37.0514 27.4883 37.0124 27.4493C36.9733 27.4102 36.927 27.3792 36.876 27.3581C36.825 27.337 36.7703 27.3261 36.7151 27.3261H27.0459C26.9344 27.3261 26.8274 27.3704 26.7486 27.4493C26.6697 27.5281 26.6255 27.635 26.6255 27.7465C26.6343 27.8518 26.6824 27.95 26.7603 28.0214C26.8382 28.0928 26.9402 28.1323 27.0459 28.1319H33.9124C34.1012 28.1324 34.2854 28.1895 34.4415 28.2956C34.5976 28.4017 34.7183 28.5521 34.7883 28.7275L39.4477 40.2885C39.4774 40.3651 39.5308 40.4303 39.6001 40.4744C39.6695 40.5185 39.7511 40.5393 39.8331 40.5337H39.9732C40.0788 40.48 40.1647 40.3941 40.2184 40.2885C40.2531 40.1863 40.2531 40.0754 40.2184 39.9732V39.9732Z" fill="#EBEFF7"/>
<path d="M28.5173 25.8547H21.7208C21.4556 25.8548 21.193 25.802 20.9484 25.6994C20.7038 25.5969 20.4821 25.4467 20.2962 25.2575C20.1103 25.0683 19.964 24.8441 19.8657 24.5977C19.7674 24.3514 19.7192 24.0879 19.7239 23.8228H15.4498V32.6512H19.6888C20.0742 30.4441 22.001 29.4632 24.3483 29.4632H28.4472C28.7043 29.5038 28.9672 29.4889 29.218 29.4194C29.4689 29.3499 29.702 29.2275 29.9015 29.0603C30.1011 28.8932 30.2625 28.6852 30.3749 28.4504C30.4873 28.2156 30.5481 27.9594 30.5532 27.6991C30.5582 27.4389 30.5074 27.1805 30.4042 26.9416C30.301 26.7026 30.1478 26.4885 29.9549 26.3137C29.762 26.1389 29.5338 26.0075 29.2858 25.9283C29.0378 25.8492 28.7758 25.8241 28.5173 25.8547V25.8547Z" fill="#80A7FF"/>
<path fill-rule="evenodd" clip-rule="evenodd" d="M14.0835 23.9279H28.5873C29.8356 23.9279 31.0333 23.4344 31.9193 22.555C32.8052 21.6756 33.3076 20.4817 33.3168 19.2334V10.5451C33.3076 9.29681 32.8052 8.10282 31.9193 7.22343C31.0333 6.34403 29.8356 5.85056 28.5873 5.85059H14.0835C12.8352 5.85056 11.6375 6.34403 10.7515 7.22343C9.86556 8.10282 9.36319 9.29681 9.35394 10.5451V19.2334C9.36319 20.4817 9.86556 21.6756 10.7515 22.555C11.6375 23.4344 12.8352 23.9279 14.0835 23.9279V23.9279Z" fill="#80A7FF"/>
<path fill-rule="evenodd" clip-rule="evenodd" d="M17.1314 23.9279H31.6703C32.9153 23.9279 34.1094 23.4333 34.9898 22.5529C35.8702 21.6725 36.3648 20.4784 36.3648 19.2334V10.5451C36.3648 9.30002 35.8702 8.10596 34.9898 7.22558C34.1094 6.34519 32.9153 5.85059 31.6703 5.85059H17.1314C15.8831 5.85056 14.6854 6.34403 13.7994 7.22343C12.9135 8.10282 12.4111 9.29681 12.4019 10.5451V19.2334C12.4111 20.4817 12.9135 21.6756 13.7994 22.555C14.6854 23.4344 15.8831 23.9279 17.1314 23.9279V23.9279Z" fill="#9CB8FF"/>
<path fill-rule="evenodd" clip-rule="evenodd" d="M10.7553 18.1473H14.2236V9.70428H10.7553C10.3429 9.70425 9.93452 9.78605 9.55393 9.94493C9.17334 10.1038 8.82805 10.3366 8.53805 10.6299C8.24806 10.9231 8.01913 11.271 7.86451 11.6533C7.70989 12.0357 7.63266 12.4449 7.6373 12.8573V15.0294C7.6373 15.8563 7.9658 16.6494 8.55053 17.2341C9.13527 17.8188 9.92834 18.1473 10.7553 18.1473Z" fill="#9CB8FF"/>
<path fill-rule="evenodd" clip-rule="evenodd" d="M14.2236 16.2906V11.5961C14.2236 11.5125 14.1904 11.4323 14.1312 11.3731C14.0721 11.314 13.9919 11.2808 13.9083 11.2808H10.7553C10.3433 11.2899 9.95122 11.4601 9.6631 11.7547C9.37498 12.0494 9.2137 12.4452 9.21381 12.8573V15.0294C9.2137 15.4415 9.37498 15.8373 9.6631 16.1319C9.95122 16.4266 10.3433 16.5967 10.7553 16.6059H13.9083C13.9919 16.6059 14.0721 16.5727 14.1312 16.5135C14.1904 16.4544 14.2236 16.3742 14.2236 16.2906V16.2906Z" fill="#80A7FF"/>
<path fill-rule="evenodd" clip-rule="evenodd" d="M19.6888 15.4147C19.9937 15.4147 20.2917 15.3243 20.5452 15.1549C20.7987 14.9856 20.9963 14.7448 21.113 14.4632C21.2296 14.1815 21.2602 13.8716 21.2007 13.5725C21.1412 13.2735 20.9944 12.9989 20.7788 12.7833C20.5632 12.5677 20.2886 12.4209 19.9895 12.3614C19.6905 12.3019 19.3806 12.3325 19.0989 12.4491C18.8173 12.5658 18.5765 12.7634 18.4071 13.0169C18.2378 13.2704 18.1473 13.5684 18.1473 13.8733C18.1563 14.2793 18.3215 14.6662 18.6087 14.9534C18.8959 15.2405 19.2828 15.4058 19.6888 15.4147V15.4147Z" fill="black"/>
<path fill-rule="evenodd" clip-rule="evenodd" d="M36.5049 10.5451H25.8197C25.3179 10.5451 24.8368 10.7444 24.482 11.0992C24.1272 11.454 23.9279 11.9351 23.9279 12.4369V14.609C23.9371 15.8572 24.4395 17.0512 25.3254 17.9306C26.2114 18.81 27.4091 19.3035 28.6574 19.3035H33.6672C34.9155 19.3035 36.1132 18.81 36.9991 17.9306C37.8851 17.0512 38.3875 15.8572 38.3967 14.609V12.4369C38.3967 11.9351 38.1974 11.454 37.8426 11.0992C37.4878 10.7444 37.0066 10.5451 36.5049 10.5451V10.5451Z" fill="#B8D0FF"/>
<path fill-rule="evenodd" clip-rule="evenodd" d="M30.8295 19.3035H33.6672C34.9155 19.3035 36.1132 18.81 36.9991 17.9306C37.8851 17.0512 38.3875 15.8572 38.3967 14.609V12.4369C38.3967 11.9351 38.1974 11.454 37.8426 11.0992C37.4878 10.7444 37.0066 10.5451 36.5049 10.5451H28.0268C27.525 10.5451 27.0439 10.7444 26.6891 11.0992C26.3343 11.454 26.135 11.9351 26.135 12.4369V14.609C26.135 15.854 26.6296 17.0481 27.51 17.9285C28.3904 18.8089 29.5844 19.3035 30.8295 19.3035V19.3035Z" fill="#CBDAF7"/>
<path fill-rule="evenodd" clip-rule="evenodd" d="M32.1257 15.7651H30.0587C29.9575 15.7651 29.8573 15.785 29.7638 15.8237C29.6703 15.8625 29.5853 15.9192 29.5137 15.9908C29.4422 16.0624 29.3854 16.1473 29.3467 16.2409C29.3079 16.3344 29.288 16.4346 29.288 16.5358C29.2833 16.6399 29.2997 16.7439 29.3363 16.8415C29.3729 16.9391 29.4289 17.0283 29.501 17.1036C29.573 17.1789 29.6596 17.2388 29.7555 17.2797C29.8513 17.3206 29.9545 17.3417 30.0587 17.3416H32.1257C32.2299 17.3417 32.3331 17.3206 32.429 17.2797C32.5248 17.2388 32.6114 17.1789 32.6835 17.1036C32.7555 17.0283 32.8115 16.9391 32.8481 16.8415C32.8848 16.7439 32.9012 16.6399 32.8964 16.5358C32.8964 16.4346 32.8765 16.3344 32.8378 16.2409C32.799 16.1473 32.7423 16.0624 32.6707 15.9908C32.5991 15.9192 32.5142 15.8625 32.4207 15.8237C32.3271 15.785 32.2269 15.7651 32.1257 15.7651V15.7651ZM35.8042 15.7651H34.9985C34.8972 15.7651 34.797 15.785 34.7035 15.8237C34.61 15.8625 34.525 15.9192 34.4535 15.9908C34.3819 16.0624 34.3251 16.1473 34.2864 16.2409C34.2477 16.3344 34.2277 16.4346 34.2277 16.5358C34.223 16.6399 34.2394 16.7439 34.276 16.8415C34.3126 16.9391 34.3686 17.0283 34.4407 17.1036C34.5127 17.1789 34.5993 17.2388 34.6952 17.2797C34.7911 17.3206 34.8942 17.3417 34.9985 17.3416H35.8042C35.9085 17.3417 36.0116 17.3206 36.1075 17.2797C36.2034 17.2388 36.2899 17.1789 36.362 17.1036C36.434 17.0283 36.4901 16.9391 36.5267 16.8415C36.5633 16.7439 36.5797 16.6399 36.575 16.5358C36.575 16.4346 36.555 16.3344 36.5163 16.2409C36.4776 16.1473 36.4208 16.0624 36.3492 15.9908C36.2777 15.9192 36.1927 15.8625 36.0992 15.8237C36.0057 15.785 35.9054 15.7651 35.8042 15.7651V15.7651Z" fill="#9CB8FF"/>
<path fill-rule="evenodd" clip-rule="evenodd" d="M31.2499 21.1602H32.5111C32.6504 21.1602 32.7841 21.1049 32.8827 21.0063C32.9812 20.9078 33.0366 20.7741 33.0366 20.6347C33.0277 20.5015 32.9684 20.3767 32.8708 20.2856C32.7732 20.1945 32.6446 20.144 32.5111 20.1443H31.2499C31.1164 20.144 30.9877 20.1945 30.8901 20.2856C30.7925 20.3767 30.7333 20.5015 30.7244 20.6347C30.7244 20.7741 30.7797 20.9078 30.8783 21.0063C30.9768 21.1049 31.1105 21.1602 31.2499 21.1602Z" fill="#80A7FF"/>
<path fill-rule="evenodd" clip-rule="evenodd" d="M22.0361 0.735703C22.0361 0.735703 16.3606 13.2777 15.2396 16.0804C13.6631 20.1443 6.86656 19.6538 6.86656 13.8733L22.0361 0.735703Z" fill="#D0D9EA"/>
<path fill-rule="evenodd" clip-rule="evenodd" d="M35.2087 5.64039C35.2087 5.64039 31.2849 0 20.915 0C10.5451 0 5.74549 7.35703 5.74549 13.1376C5.74549 18.9181 12.542 19.4086 14.1535 15.3447C15.2396 12.542 17.2365 8.09274 17.2365 8.09274H35.2087V5.64039Z" fill="#EBEFF7"/>
<path fill-rule="evenodd" clip-rule="evenodd" d="M28.202 5.14993L30.8995 5.04483C30.8995 5.04483 29.1829 1.50644 23.3673 0.105104C22.5966 0.035037 21.7908 3.51551e-06 20.915 3.51551e-06C20.1897 -0.0016665 19.4647 0.033412 18.7429 0.105104C21.3704 0.420405 25.6796 1.50644 28.202 5.14993Z" fill="#D0D9EA"/>
<path fill-rule="evenodd" clip-rule="evenodd" d="M17.2365 8.09273H41.865C41.865 8.09273 38.0464 4.79958 29.6734 4.90468C21.3004 5.00979 17.2365 8.09273 17.2365 8.09273Z" fill="black"/>
<path fill-rule="evenodd" clip-rule="evenodd" d="M11.2808 12.7172C11.1407 14.0835 10.0546 15.0644 8.89851 14.9243C7.7424 14.7841 6.97167 13.593 7.1118 12.2267C7.25193 10.8604 8.37301 9.84441 9.52911 9.98454C10.6852 10.1247 11.456 11.3508 11.2808 12.7172Z" fill="#D0D9EA"/>
<path fill-rule="evenodd" clip-rule="evenodd" d="M9.91448 10.0896C9.49422 10.2815 9.13111 10.5794 8.86085 10.9541C8.59058 11.3288 8.42246 11.7674 8.37301 12.2267C8.23287 13.4178 8.82844 14.5039 9.73931 14.8542C10.166 14.6714 10.5349 14.376 10.8065 13.9995C11.078 13.623 11.242 13.1797 11.2808 12.7172C11.456 11.526 10.8604 10.44 9.91448 10.0896Z" fill="#7687B2"/>
<path fill-rule="evenodd" clip-rule="evenodd" d="M54.1968 40.6038C53.391 43.1963 44.6327 47.2952 39.0974 49.3972C34.9985 48.136 24.9789 44.4925 23.3673 41.4096C23.1976 41.1514 23.1347 40.8374 23.1922 40.5337L23.3323 40.2184C26.3802 35.6291 30.9696 32.6862 36.2597 31.9505C42.9511 31.0397 49.6074 34.0175 54.0917 39.9031C54.1615 40.0042 54.2072 40.1199 54.2254 40.2413C54.2436 40.3627 54.2338 40.4867 54.1968 40.6038V40.6038Z" fill="#FF7F14"/>
<path fill-rule="evenodd" clip-rule="evenodd" d="M39.1324 50.3081C39.1324 50.3081 26.0299 35.4889 28.3071 34.0175C30.6763 32.4747 33.3551 31.4702 36.1546 31.0747C43.6868 30.0587 50.4833 33.7022 54.7924 39.3776C57.8403 43.4065 39.1324 50.3081 39.1324 50.3081Z" fill="#FF903E"/>
<path fill-rule="evenodd" clip-rule="evenodd" d="M52.9706 37.3107C52.9846 38.1313 52.698 38.9288 52.1649 39.5528C49.5023 43.0562 39.8681 46.9799 37.1005 48.0309C37.8362 49.8527 38.5018 51.0438 38.8872 51.1839L39.1674 51.254L39.4477 51.1489C39.9382 50.9737 52.1298 46.4194 55.2128 42.3905C56.509 40.6739 55.9485 39.4127 55.493 38.8521C54.1968 37.1355 52.9006 36.7501 52.9706 37.3107Z" fill="#DAE2ED"/>
<path fill-rule="evenodd" clip-rule="evenodd" d="M42.8109 59.1716C41.0668 59.9744 39.1237 60.2419 37.2275 59.94C35.3313 59.6381 33.5673 58.7806 32.1586 57.4758C30.75 56.1711 29.7601 54.4778 29.3142 52.6102C28.8682 50.7426 28.9863 48.7848 29.6535 46.9843C30.3207 45.1839 31.507 43.6219 33.0622 42.4959C34.6175 41.3699 36.4718 40.7306 38.3905 40.6589C40.3092 40.5872 42.2061 41.0862 43.8411 42.0929C45.4761 43.0996 46.7757 44.5687 47.5755 46.3143C48.6463 48.6514 48.746 51.3179 47.8527 53.7284C46.9594 56.139 45.1461 58.0966 42.8109 59.1716V59.1716Z" fill="#EBEFF7"/>
<path fill-rule="evenodd" clip-rule="evenodd" d="M42.1453 57.7702C40.1744 58.6632 37.9304 58.7408 35.9025 57.9861C33.8747 57.2314 32.2274 55.7056 31.3199 53.7414C30.6493 52.2733 30.4289 50.6393 30.6866 49.046C30.9444 47.4526 31.6687 45.9715 32.768 44.7897C33.8674 43.608 35.2924 42.7786 36.8629 42.4065C38.4335 42.0345 40.0791 42.1364 41.5918 42.6993C43.1045 43.2623 44.4163 44.2611 45.3615 45.5694C46.3067 46.8778 46.8427 48.437 46.902 50.0499C46.9612 51.6629 46.5409 53.2572 45.6943 54.6313C44.8476 56.0055 43.6126 57.0978 42.1453 57.7702V57.7702Z" fill="#DAE2ED"/>
<path fill-rule="evenodd" clip-rule="evenodd" d="M42.2854 45.5435L44.8429 49.9928C44.9273 50.1232 44.9723 50.2753 44.9723 50.4307C44.9723 50.5861 44.9273 50.7382 44.8429 50.8686L42.2854 55.3179C42.207 55.4537 42.0949 55.567 41.9599 55.6468C41.8248 55.7266 41.6715 55.7702 41.5147 55.7733H36.3297C36.1729 55.7702 36.0196 55.7266 35.8845 55.6468C35.7495 55.567 35.6374 55.4537 35.559 55.3179L33.0015 50.8686C32.9171 50.7382 32.8722 50.5861 32.8722 50.4307C32.8722 50.2753 32.9171 50.1232 33.0015 49.9928L35.559 45.5435C35.6374 45.4077 35.7495 45.2944 35.8845 45.2146C36.0196 45.1348 36.1729 45.0912 36.3297 45.0881H41.5147C41.6715 45.0912 41.8248 45.1348 41.9599 45.2146C42.0949 45.2944 42.207 45.4077 42.2854 45.5435V45.5435Z" fill="#C5CEDD"/>
<path d="M38.747 53.1808C40.3143 53.1808 41.5847 51.9103 41.5847 50.3431C41.5847 48.7759 40.3143 47.5054 38.747 47.5054C37.1798 47.5054 35.9093 48.7759 35.9093 50.3431C35.9093 51.9103 37.1798 53.1808 38.747 53.1808Z" fill="white"/>
<path d="M6.13086 31.9505C3.92375 31.39 3.36322 33.1767 0 33.3519C3.15301 35.2787 3.74858 34.1226 6.97166 36.1896L6.13086 31.9505Z" fill="#FF903E"/>
<path d="M38.747 68H23.052C22.1197 67.9908 21.2287 67.6139 20.5726 66.9513C19.9166 66.2887 19.5486 65.394 19.5487 64.4616V64.4616C19.5487 63.5325 19.9178 62.6414 20.5748 61.9844C21.2318 61.3274 22.1229 60.9583 23.052 60.9583H25.0489C25.9577 60.9518 26.8588 61.1249 27.7004 61.4676C28.5421 61.8103 29.3078 62.3158 29.9536 62.9552L30.7944 63.831C31.9075 64.9243 33.4032 65.5401 34.9634 65.5477H36.2947C36.9451 65.5477 37.5689 65.806 38.0288 66.2659C38.4887 66.7258 38.747 67.3496 38.747 68V68Z" fill="#EBEFF7"/>
<path d="M17.6569 60.9583H13.3127C12.7516 60.9583 12.2968 61.4131 12.2968 61.9742V62.0058C12.2968 62.5669 12.7516 63.0217 13.3127 63.0217H17.6569C18.218 63.0217 18.6728 62.5669 18.6728 62.0058V61.9742C18.6728 61.4131 18.218 60.9583 17.6569 60.9583Z" fill="#EBEFF7"/>
<path d="M22.4214 66.1082H18.9881C18.4657 66.1082 18.0422 66.5285 18.0422 67.0471C18.0422 67.5656 18.4657 67.986 18.9881 67.986H22.4214C22.9438 67.986 23.3673 67.5656 23.3673 67.0471C23.3673 66.5285 22.9438 66.1082 22.4214 66.1082Z" fill="#EBEFF7"/>
</g>
<defs>
<clipPath id="clip0_201_5928">
<rect width="56.4389" height="68" fill="white"/>
</clipPath>
</defs>
</svg>
