<svg fill="none" height="240" viewBox="0 0 660 240" width="660" xmlns="http://www.w3.org/2000/svg"><path d="m660 0h-660v240h660z" fill="#a1c2ff"/><path d="m633.93 213.21c-5.61-12.21-14.93-5.21-14.93-5.21-10.32-23-28.88-4-28.88-4-10.27-24-30.12-10-30.12-10-18.56-20-37.13 4-37.13 4-27.15-24.62-45.37 2-45.37 2-21.66-29-58-17.68-58-17.68-25.4-8.36-36.76 10.71-39.4 16.1-1.18.29-19.06-12.42-36.49 5.91-10.61-17.13-26.99-.33-26.99-.33-3.87-9-9-14.34-14-17.51-8.13-32.74-29.07-11.68-29.07-11.68-12.18-.55-20.89 15.19-20.89 15.19-27.87-13-49.29 2.57-49.29 2.57-27.64-30.42-57.46-10.25-57.46-10.25-29.43-9.68-40 17.48-40 17.48-39.57-5.21-53.29 19.2-53.29 19.2-6.19-16-20.62-12-20.62-12-3.1-54-32-51.3-32-51.3v84.3h660v-42.37c-16.79 0-26.07 15.58-26.07 15.58z" fill="#d0e3ff"/><path d="m220.925 28.4264-76.027 23.3452 29.777 96.9714 76.026-23.345z" fill="#d9f9ee"/><path d="m139 161.4c-.235.043-.455.145-.639.297-.184.153-.325.35-.411.573l-5.36 14.2c-.925-.422-1.95-.578-2.959-.449s-1.962.538-2.751 1.179c-2.42 1.72-3.33 4.58-2 6.39s4.3 1.89 6.71.17c.977-.699 1.742-1.654 2.21-2.76l6.71-17.78c.082-.225.103-.467.062-.703-.041-.235-.142-.456-.295-.64s-.351-.325-.575-.409c-.224-.083-.466-.107-.702-.068z" fill="#363c4c"/><path d="m535.57 180.86h-14.28c-.403-.003-.8.099-1.151.298-.351.198-.644.485-.849.832l-6.73 11.46c-.771-.524-1.672-.822-2.604-.861-.931-.039-1.854.183-2.666.641-2.44 1.17-3.7 3.61-2.82 5.45s3.58 2.36 6 1.18c1.001-.464 1.853-1.198 2.46-2.12l5.64-9.61c.055-.085.13-.156.219-.205.09-.049.189-.074.291-.075h9.71c.102 0 .201.028.289.079s.161.124.212.212c.05.088.077.188.077.29 0 .101-.027.201-.078.289l-2.78 4.73c-.77-.522-1.67-.819-2.599-.858s-1.851.182-2.661.638c-2.45 1.17-3.71 3.61-2.83 5.45s3.58 2.36 6 1.18c1.001-.464 1.853-1.198 2.46-2.12l9.33-15.74c.065-.112.099-.24.099-.37s-.034-.257-.099-.37c-.065-.112-.158-.205-.27-.27-.113-.065-.24-.1-.37-.1z" fill="#363c4c"/><path d="m493.5 153.13c-.067-.227-.201-.429-.386-.578-.184-.15-.409-.24-.645-.258-.237-.018-.473.035-.678.154s-.37.298-.471.512l-2.89 7.08c-.477-.238-1.011-.337-1.542-.286-.53.052-1.036.251-1.458.576-1.27.86-1.78 2.32-1.14 3.28s2.19 1 3.46.18c.522-.342.937-.824 1.2-1.39l3.16-7.72c.37.27.94 1 .7 2.72-.013.079.005.161.05.227.045.067.113.115.191.134s.16.008.231-.032c.07-.039.123-.103.148-.179.5-1.427.525-2.978.07-4.42z" fill="#363c4c"/><g fill="#55e0c5"><path d="m430.76 55.3201h-16.96v51.7599h16.96z"/><path d="m447.73 55.3201h-16.96v51.7599h16.96z"/><path d="m464.69 55.3201h-16.96v51.7599h16.96z"/><path d="m481.66 55.3201h-16.96v51.7599h16.96z"/></g><path d="m430.76 105.93h-16.96v4.6h16.96z" fill="#39bda8"/><path d="m447.73 105.93h-16.96v4.6h16.96z" fill="#39bda8"/><path d="m464.69 105.93h-16.96v4.6h16.96z" fill="#39bda8"/><path d="m481.66 105.93h-16.96v4.6h16.96z" fill="#39bda8"/><path d="m430.77 110.53v-55.2099" stroke="#00ada3" stroke-miterlimit="10" stroke-width="1.15"/><path d="m447.73 110.53v-55.2099" stroke="#00ada3" stroke-miterlimit="10" stroke-width="1.15"/><path d="m464.98 110.53v-55.2099" stroke="#00ada3" stroke-miterlimit="10" stroke-width="1.15"/><path d="m427.89 55.3201h5.75v23.17c0 .2652-.105.5195-.293.7071-.187.1875-.442.2929-.707.2929h-3.78c-.265 0-.52-.1054-.707-.2929-.188-.1876-.293-.4419-.293-.7071v-23.17z" fill="#0a7473"/><path d="m444.86 55.3201h5.75v23.17c0 .2652-.105.5195-.293.7071-.187.1875-.442.2929-.707.2929h-3.78c-.265 0-.52-.1054-.707-.2929-.188-.1876-.293-.4419-.293-.7071v-23.17z" fill="#0a7473"/><path d="m462.11 55.3201h5.75v23.17c0 .2652-.105.5195-.293.7071-.187.1875-.442.2929-.707.2929h-3.78c-.265 0-.52-.1054-.707-.2929-.188-.1876-.293-.4419-.293-.7071v-23.17z" fill="#0a7473"/><path d="m496.9 37.45c-.142-.4745-.424-.8948-.81-1.2056-.385-.3108-.856-.4974-1.35-.5353s-.987.0747-1.416.323c-.428.2483-.771.6207-.984 1.0679l-6 14.78c-1.6-1-4.07-.8-6.17.61-2.65 1.79-3.72 4.84-2.39 6.83s4.57 2.16 7.23.38c1.086-.7142 1.955-1.7142 2.51-2.89l6.6-16.12c.76.55 1.95 2 1.46 5.67-.019.1618.022.325.115.4589s.231.2294.389.2686.325.0195.47-.0555.257-.2001.316-.352c.995-2.9946 1.006-6.229.03-9.23z" fill="#363c4c"/><path d="m91.64 54.3701 97.84 65.7299 13.45 4.47c.202.058.418.051.616-.02s.369-.204.487-.378c.119-.174.18-.381.174-.591-.006-.211-.079-.414-.207-.581l-8.82-11.43-97.8-65.7399z" fill="#f5e191"/><path d="m95.4722 48.6609 97.8338 65.7411 1.913-2.847-97.8337-65.741z" fill="#edbc56"/><path d="m91.6503 54.356 97.8337 65.741 1.913-2.847-97.8336-65.7409z" fill="#e59a53"/><path d="m93.5655 51.5163 97.8335 65.7417 1.913-2.847-97.8334-65.7417z" fill="#e9a951"/><path clip-rule="evenodd" d="m204 123c.141.169.222.379.231.599s-.055.436-.181.616-.308.313-.518.379-.435.061-.642-.014l-2.4-.8 1.92-2.84z" fill="#a594ff" fill-rule="evenodd"/><path d="m91.6381 54.3624 8.5409 5.7392 5.739-8.5409-8.5407-5.7392z" fill="#c6c2ff"/><path d="m95.3003 58.1385.0083.0056c.6417.4312 1.5116.2606 1.9428-.3812l5.4606-8.1258c.431-.6418.26-1.5116-.381-1.9429l-.009-.0055c-.641-.4313-1.511-.2606-1.943.3811l-5.4599 8.1258c-.4313.6418-.2606 1.5117.3812 1.9429z" fill="#a59eff"/><path d="m92.4257 54.8882-1.7182-1.1545c-.3655-.2488-.6182-.6316-.7033-1.0654-.0851-.4339.0042-.8838.2486-1.2522l3.8485-5.7271c.2485-.3698.6337-.6258 1.071-.7115.4372-.0858.8906.0056 1.2604.2541l1.7098 1.149z" fill="#a594ff"/><path d="m501.76 127.35-4 1.78c-.015.008-.027.019-.036.033-.008.014-.013.031-.013.047 0 .017.005.033.013.047.009.014.021.026.036.033l4 1.78c.016-.004.034-.004.05 0l1.77 4c.006.018.018.033.033.044s.033.017.052.017.037-.006.052-.017.027-.026.033-.044l1.77-4c.016-.004.034-.004.05 0l4-1.78c.015-.007.027-.019.036-.033.008-.014.013-.03.013-.047 0-.016-.005-.033-.013-.047-.009-.014-.021-.025-.036-.033l-4-1.78c-.016.004-.034.004-.05 0l-1.77-4c-.006-.018-.018-.033-.033-.044s-.033-.016-.052-.016-.037.005-.052.016-.027.026-.033.044l-1.77 4c-.016.004-.034.004-.05 0z" fill="#ffcf5e"/><path d="m142.07 126-2.55-1c-.01-.004-.021-.005-.032-.003s-.021.007-.029.014c-.009.007-.015.016-.018.027-.003.01-.004.021-.001.032l1 2.56-1 2.55c-.002.011-.001.022.002.033.004.01.01.02.018.027.007.008.017.014.027.017.011.004.022.005.033.003l2.55-1 2.56 1c.011.003.022.002.032-.001.011-.003.02-.01.027-.018s.012-.018.014-.029.001-.022-.003-.032l-1-2.55 1-2.56c.007-.01.011-.022.01-.034s-.006-.023-.015-.031c-.008-.009-.02-.014-.032-.015s-.023.003-.033.01z" fill="#aea8ff"/><path d="m116.87 38.2401c-.019.0244-.029.0542-.029.085 0 .0307.01.0605.029.085l3.45 5.93c0 .08.08.08.1 0l3.45-5.93c.011-.0112.02-.0244.026-.039s.009-.0302.009-.046-.003-.0315-.009-.0461c-.006-.0145-.015-.0278-.026-.0389l-3.45-5.94c0-.07-.08-.07-.1 0z" fill="#ecb5cf"/><path d="m178.18 88.0001c-.736-.9431-1.232-2.0513-1.444-3.2288s-.134-2.3889.227-3.5297c.361-1.1407.994-2.1763 1.845-3.0175s1.893-1.4627 3.038-1.8106 2.357-.412 3.532-.1865c1.175.2254 2.278.7335 3.212 1.4804.935.747 1.674 1.7102 2.153 2.8065.479 1.0964.684 2.2929.597 3.4862-.037.5388.114 1.0737.428 1.5133s.77.7566 1.292.8967c.55.1036 1.056.3722 1.45.77.436.561.632 1.2722.543 1.9773-.088.7051-.452 1.3463-1.013 1.7827-9.53 7.37-15.86-2.94-15.86-2.94z" fill="#f3df8c"/><path d="m183.05 85.35c.641 0 1.16-.5193 1.16-1.16 0-.6406-.519-1.16-1.16-1.16s-1.16.5194-1.16 1.16c0 .6407.519 1.16 1.16 1.16z" fill="#00c0b5"/><path d="m181 91.0801c.41-1.17 2.35-2.48 5.22-1.09-2.39-3.67.4-9.41 5.13-7.44.05.4753.05.9546 0 1.43-.037.5388.114 1.0737.428 1.5133s.77.7565 1.292.8967c.55.1036 1.056.3722 1.45.77.436.561.632 1.2722.543 1.9773-.088.7051-.452 1.3463-1.013 1.7827-5.77 4.47-10.36 2.45-13.05.16z" fill="#00c0b5"/><path d="m193.06 86.39c-.518-.1394-.972-.4534-1.285-.8888-.314-.4355-.467-.9657-.435-1.5012.085-1.0296-.05-2.0655-.394-3.0394-.345-.9738-.892-1.8636-1.606-2.6106-.816-.837-1.819-1.469-2.926-1.8444s-2.287-.4835-3.444-.3156c-1.5 1.4053-2.512 3.2529-2.889 5.2736s-.099 4.1089.794 5.9604 2.354 3.3696 4.17 4.333c1.815.9634 3.891 1.3218 5.925 1.023 1.085-.4887 2.103-1.1137 3.03-1.86.561-.4363.925-1.0776 1.013-1.7827.089-.705-.107-1.4163-.543-1.9773-.383-.3908-.874-.6588-1.41-.77z" fill="#f3df8c"/><path d="m178.47 79.6801c2.789 0 5.05-2.261 5.05-5.05 0-2.7891-2.261-5.05-5.05-5.05s-5.05 2.2609-5.05 5.05c0 2.789 2.261 5.05 5.05 5.05z" fill="#965769"/><path d="m137.7 11.7c.811-.5314 1.797-.7243 2.749-.5374.951.1869 1.791.7388 2.341 1.5374l38.89 57.06c.399.5871.677 1.2481.817 1.944s.14 1.4129-.001 2.1087c-.14.6958-.419 1.3566-.818 1.9434-.4.5868-.912 1.088-1.508 1.4739-.596.3865-1.262.6498-1.961.7745s-1.416.1083-2.108-.0482c-.693-.1566-1.347-.4502-1.924-.8634-.577-.4133-1.066-.9378-1.437-1.5429l-36.19-58.8c-.505-.8255-.667-1.8154-.452-2.7588s.79-1.7656 1.602-2.2912z" fill="#bc6d83"/><path d="m180 77.3601-42.48-65.53c-.756.5476-1.279 1.3597-1.464 2.2748-.185.9152-.02 1.8665.464 2.6652l36.19 58.8c.733 1.1995 1.911 2.0607 3.276 2.396 1.366.3352 2.808.1174 4.014-.606z" fill="#e9978f" opacity=".35"/><path d="m462.089 36.4708-.007-.0071c-.371-.371-.972-.371-1.343 0l-1.718 1.7183c-.371.371-.371.9725 0 1.3435l.007.0071c.371.371.972.371 1.343 0l1.718-1.7183c.371-.371.371-.9725 0-1.3435z" fill="#fff"/><path d="m456.817 41.7407-.008-.0071c-.371-.3709-.972-.371-1.343 0l-1.718 1.7183c-.371.371-.371.9725 0 1.3435l.007.0071c.371.371.972.371 1.343 0l1.719-1.7183c.371-.371.371-.9725 0-1.3435z" fill="#fff"/><path d="m462.073 44.7931.007-.0071c.371-.371.371-.9725 0-1.3435l-1.718-1.7183c-.371-.371-.973-.371-1.344 0l-.007.0071c-.371.371-.371.9725 0 1.3435l1.718 1.7183c.371.371.973.371 1.344 0z" fill="#fff"/><path d="m456.806 39.5231.007-.0071c.371-.371.371-.9725 0-1.3435l-1.719-1.7183c-.371-.371-.972-.371-1.343 0l-.007.0071c-.371.371-.371.9725 0 1.3435l1.718 1.7183c.371.371.973.371 1.344 0z" fill="#fff"/></svg>