<svg width="32" height="32" viewBox="0 0 32 32" fill="none" xmlns="http://www.w3.org/2000/svg">
<rect width="32" height="32" rx="4" fill="#4F545C"/>
<path d="M9.66486 9H22.3351C23.9078 9 25.2136 10.2146 25.3272 11.7833L25.9931 20.9774C26.0684 22.0165 25.287 22.9198 24.2479 22.9951C24.2026 22.9984 24.1571 23 24.1117 23C22.919 23 21.8785 22.1904 21.5854 21.0342L21.0698 19H10.9301L10.4145 21.0342C10.1214 22.1904 9.08092 23 7.88824 23C6.84643 23 6.00188 22.1554 6.00188 21.1136C6.00188 21.0682 6.00352 21.0227 6.0068 20.9774L6.6727 11.7833C6.78631 10.2146 8.09209 9 9.66486 9ZM18.5 14C19.3284 14 20 13.3284 20 12.5C20 11.6716 19.3284 11 18.5 11C17.6716 11 17 11.6716 17 12.5C17 13.3284 17.6716 14 18.5 14ZM22.5 17C23.3284 17 24 16.3284 24 15.5C24 14.6716 23.3284 14 22.5 14C21.6716 14 21 14.6716 21 15.5C21 16.3284 21.6716 17 22.5 17ZM10 13H8V15H10V17H12V15H14V13H12V11H10V13Z" fill="#B9BBBE"/>
</svg>
