<svg width="401" height="155" viewBox="0 0 401 155" fill="none" xmlns="http://www.w3.org/2000/svg">
<mask id="mask0" mask-type="alpha" maskUnits="userSpaceOnUse" x="0" y="0" width="401" height="155">
<rect x="0.866699" width="400" height="154.412" fill="white"/>
</mask>
<g mask="url(#mask0)">
<g clip-path="url(#clip0)">
<path d="M88.9549 180.588C88.3666 180.588 87.9254 180.588 87.4843 180.441C83.8078 179.558 81.4549 175.882 82.1901 172.205L94.1019 120C94.9843 116.323 98.6607 113.97 102.337 114.705C106.014 115.588 108.367 119.264 107.631 122.941L95.7196 175.147C94.9843 178.382 92.0431 180.588 88.9549 180.588Z" fill="#3E70DD"/>
<path d="M107.631 105.735H103.514C96.0137 105.735 89.6902 111.911 89.6902 119.558V124.558C89.6902 126.029 90.8666 127.352 92.4843 127.352H110.425V108.382C110.425 106.911 109.102 105.735 107.631 105.735Z" fill="#3E70DD"/>
<path d="M144.837 174.559H97.9255C97.0432 174.559 96.602 173.97 96.602 173.235V122.205C96.602 114.705 102.778 108.382 110.426 108.382H132.484C139.984 108.382 146.308 114.558 146.308 122.205V173.088C146.161 173.823 145.426 174.559 144.837 174.559Z" fill="#A2C9D6"/>
<path d="M118.661 116.029C114.837 116.029 112.19 113.529 112.19 110.588V88.5293H125.425V110.735C125.131 113.529 122.19 116.029 118.661 116.029Z" fill="#D19E7C"/>
<path d="M95.7196 102.353C92.7784 102.353 90.4254 100 90.4254 97.0588V58.3823H106.896L100.72 98.0882C100.425 100.588 98.2196 102.353 95.7196 102.353Z" fill="#3E70DD"/>
<path d="M120.131 102.941H117.631C105.72 102.941 96.1607 93.235 96.1607 81.4703V63.088C96.1607 54.7056 103.072 47.9409 111.308 47.9409H126.455C134.69 47.9409 141.602 54.7056 141.602 63.088V81.4703C141.602 93.235 132.043 102.941 120.131 102.941Z" fill="#EACEB9"/>
<path d="M149.69 58.3821V97.2057C149.69 100.147 147.337 102.5 144.396 102.5H138.955C136.308 102.5 134.249 100.588 133.808 98.088L129.396 69.9998C128.955 67.3527 126.602 65.2939 123.955 65.2939H90.4254V58.3821C90.4254 47.7939 99.1019 39.1174 109.69 39.1174H130.278C141.014 39.1174 149.69 47.7939 149.69 58.3821Z" fill="#7196FF"/>
<path d="M142.043 76.7646H90.5726C89.102 76.7646 87.7785 75.5882 87.7785 73.9705V64.7058C87.7785 59.8529 90.2785 55.4411 94.249 52.9411L102.484 47.7941C103.22 47.3529 103.955 47.2058 104.69 47.4999L132.043 55.2941C137.926 56.9117 141.896 62.4999 141.896 68.5293L142.043 76.7646Z" fill="#AEC7FF"/>
<path d="M141.16 82.4998C144.977 82.4998 148.071 79.4053 148.071 75.588C148.071 71.7708 144.977 68.6763 141.16 68.6763C137.342 68.6763 134.248 71.7708 134.248 75.588C134.248 79.4053 137.342 82.4998 141.16 82.4998Z" fill="#D4E4FF"/>
<path d="M141.161 78.3819C142.704 78.3819 143.955 77.131 143.955 75.5878C143.955 74.0447 142.704 72.7937 141.161 72.7937C139.618 72.7937 138.367 74.0447 138.367 75.5878C138.367 77.131 139.618 78.3819 141.161 78.3819Z" fill="#3E70DD"/>
<path d="M113.514 88.5287H106.308C105.131 88.5287 104.102 87.4993 104.102 86.3228C104.102 85.1464 105.131 84.1169 106.308 84.1169H113.514C114.69 84.1169 115.72 85.1464 115.72 86.3228C115.867 87.4993 114.837 88.5287 113.514 88.5287Z" fill="white"/>
<path d="M93.6607 72.3525C92.6313 72.3525 91.896 71.4701 91.896 70.5878V60.4407C91.896 59.4113 92.7784 58.676 93.6607 58.676C94.6902 58.676 95.4254 59.5584 95.4254 60.4407V70.5878C95.4254 71.6172 94.6902 72.3525 93.6607 72.3525Z" fill="#3E70DD"/>
<path d="M100.72 72.3527C99.6901 72.3527 98.9548 71.4704 98.9548 70.588V56.3233C98.9548 55.2939 99.8372 54.5586 100.72 54.5586C101.749 54.5586 102.484 55.4409 102.484 56.3233V70.588C102.484 71.6174 101.749 72.3527 100.72 72.3527Z" fill="#3E70DD"/>
<path d="M107.778 72.3527C106.749 72.3527 106.014 71.4704 106.014 70.588V56.3233C106.014 55.2939 106.896 54.5586 107.778 54.5586C108.808 54.5586 109.543 55.4409 109.543 56.3233V70.588C109.543 71.6174 108.661 72.3527 107.778 72.3527Z" fill="#3E70DD"/>
<path d="M114.837 72.3526C113.808 72.3526 113.073 71.4703 113.073 70.5879V58.9703C113.073 57.9409 113.955 57.2056 114.837 57.2056C115.867 57.2056 116.602 58.0879 116.602 58.9703V70.5879C116.602 71.6173 115.72 72.3526 114.837 72.3526Z" fill="#3E70DD"/>
<path d="M121.896 72.3525C120.866 72.3525 120.13 71.4701 120.13 70.5878V60.4407C120.13 59.4113 121.013 58.676 121.896 58.676C122.925 58.676 123.661 59.5584 123.661 60.4407V70.5878C123.514 71.6172 122.925 72.3525 121.896 72.3525Z" fill="#3E70DD"/>
<path d="M128.954 72.3532C127.925 72.3532 127.19 71.4708 127.19 70.5884V63.0882C127.19 62.0588 128.072 61.3235 128.954 61.3235C129.983 61.3235 130.718 62.2059 130.718 63.0882V70.5884C130.718 71.6179 129.983 72.3532 128.954 72.3532Z" fill="#3E70DD"/>
<path d="M147.484 175.293L119.102 191.469C118.072 192.057 116.896 191.91 116.014 191.322L94.9842 175.293C94.2489 174.705 93.9548 173.969 93.9548 173.087V122.205C93.9548 114.705 100.131 108.382 107.778 108.382H135.278C142.778 108.382 149.102 114.558 149.102 122.205V172.94C148.955 173.969 148.367 174.852 147.484 175.293Z" fill="#7196FF"/>
<path d="M71.602 173.529L89.102 151.471L7.92549 86.7646C6.74902 85.8823 4.83725 86.7646 4.83725 88.2352L3.80784 117.647C3.80784 118.823 4.24901 120 5.13137 120.882L71.602 173.529Z" fill="#D4E4FF"/>
<path d="M9.24913 110.588L10.1315 88.3823L89.1021 151.471L77.0433 166.618L10.5727 113.676C9.69031 112.941 9.24913 111.912 9.24913 110.588Z" fill="#AEC7FF"/>
<path d="M74.102 179.412L95.2785 152.794C96.0138 151.912 95.8667 150.735 94.9844 150.147L89.102 145.441C88.2196 144.706 87.0432 144.853 86.4549 145.735L65.2785 172.353C64.5432 173.235 64.6902 174.412 65.5726 175L71.4549 179.706C72.3373 180.294 73.6608 180.147 74.102 179.412Z" fill="#3E70DD"/>
<path d="M88.9548 184.117C87.3372 184.117 85.7195 183.529 84.396 182.5C81.4548 180 81.1607 175.588 83.6607 172.794L138.661 110.147C141.161 107.206 145.572 106.911 148.367 109.411C151.308 111.911 151.602 116.323 149.102 119.117L94.1019 181.764C92.7784 183.529 90.8666 184.117 88.9548 184.117Z" fill="#3E70DD"/>
<path d="M143.367 128.235L130.131 117.794C128.367 116.47 128.073 113.823 129.396 112.059L131.014 109.853C135.279 104.412 142.926 103.529 148.367 107.794L148.661 108.088C154.102 112.353 154.984 120 150.72 125.441L149.102 127.647C147.779 129.412 145.131 129.706 143.367 128.235Z" fill="#3E70DD"/>
<path d="M330.131 95.7339H287.484V132.499H330.131V95.7339Z" fill="#202225"/>
<path d="M307.19 43.0876C303.661 43.0876 300.278 45.1465 298.808 48.6759L278.808 94.2641L335.867 94.1171L315.72 48.6759C314.102 45.2935 310.867 43.0876 307.19 43.0876Z" fill="#3E70DD"/>
<path d="M285.134 79.5582L278.663 94.2641L335.722 94.117L329.251 79.4111L285.134 79.5582Z" fill="#7196FF"/>
<path d="M316.602 71.9111C314.69 69.9994 313.661 67.9405 313.073 65.5876C312.778 64.4111 311.308 63.9699 310.278 64.8523C306.161 68.8229 304.543 75.1464 307.043 80.8817C309.837 87.3523 316.749 90.8817 323.514 89.2641C329.543 87.7935 333.808 82.7935 334.543 77.0582C334.69 75.7347 333.367 74.8523 332.337 75.2935C330.278 76.0288 328.073 76.617 325.278 76.0288C322.043 75.8817 318.955 74.2641 316.602 71.9111Z" fill="#FFD836"/>
<path d="M338.81 99.2642L275.867 99.4112C274.249 99.4112 272.925 98.0877 272.925 96.4701C272.925 94.8524 274.249 93.5289 275.867 93.5289L338.957 93.3818C340.575 93.3818 341.899 94.7054 341.899 96.323C341.899 97.9407 340.575 99.2642 338.81 99.2642Z" fill="#3E70DD"/>
<path d="M330.279 172.941C319.545 172.941 309.398 169.999 300.722 164.264C297.487 162.205 296.752 157.941 298.81 154.705C300.869 151.47 305.134 150.735 308.369 152.794C319.251 159.999 332.926 161.176 346.896 156.176C350.426 154.999 354.396 156.911 355.72 160.441C356.896 163.97 354.984 167.941 351.455 169.264C344.396 171.617 337.191 172.941 330.279 172.941Z" fill="#7196FF"/>
<path d="M347.778 236.323C349.396 236.323 350.72 234.852 350.573 233.088L337.191 131.617C336.161 124.852 330.426 119.705 323.515 119.705H295.28C288.222 119.705 282.486 124.999 281.604 131.764L269.252 232.941C269.104 234.558 270.281 236.029 272.046 236.029L347.778 236.323Z" fill="#7196FF"/>
<path d="M374.562 126.855L369.468 123.913L323.88 202.872L328.974 205.813L374.562 126.855Z" fill="#AEC7FF"/>
<path d="M377.926 126.911C384.423 126.911 389.69 121.644 389.69 115.146C389.69 108.649 384.423 103.381 377.926 103.381C371.428 103.381 366.161 108.649 366.161 115.146C366.161 121.644 371.428 126.911 377.926 126.911Z" fill="#F47FFF"/>
<path d="M382.633 117.205C385.069 117.205 387.043 115.23 387.043 112.793C387.043 110.357 385.069 108.382 382.633 108.382C380.197 108.382 378.222 110.357 378.222 112.793C378.222 115.23 380.197 117.205 382.633 117.205Z" fill="white"/>
<path d="M379.984 135L359.543 123.234C358.073 122.352 357.632 120.587 358.514 119.264C359.396 117.793 361.161 117.352 362.484 118.234L382.926 129.999C384.396 130.882 384.837 132.647 383.955 133.97C383.22 135.441 381.455 135.882 379.984 135Z" fill="#D4E4FF"/>
<path d="M330.426 176.911C330.72 175.441 331.161 173.823 331.896 172.5C332.926 170.588 333.955 168.676 335.131 166.764C307.631 161.176 302.926 136.029 302.779 134.852C302.19 131.176 298.661 128.529 294.984 129.264C291.308 129.852 288.661 133.382 289.249 137.058C291.308 149.852 302.337 172.794 329.837 179.705C329.837 178.676 330.131 177.794 330.426 176.911Z" fill="#7196FF"/>
<path d="M332.631 107.058H327.337C326.014 107.058 324.837 108.088 324.543 109.411L322.925 119.411H318.514L317.484 109.558C317.337 108.235 316.161 107.058 314.69 107.058H288.808C286.602 107.058 285.425 109.558 286.455 111.323L294.69 124.117L311.014 131.029C310.867 133.235 313.22 135.147 315.425 134.411C317.484 133.676 318.955 132.647 320.131 130.882C320.425 130.294 320.573 129.852 320.573 129.264L330.867 124.117L335.278 110.735C336.014 108.97 334.543 107.058 332.631 107.058Z" fill="#7196FF"/>
<path d="M288.075 118.823H333.514C334.396 118.823 334.837 119.411 334.837 120.147V121.47C334.837 122.352 334.249 122.794 333.514 122.794H288.075C287.193 122.794 286.752 122.205 286.752 121.47V120.147C286.605 119.411 287.34 118.823 288.075 118.823Z" fill="#3E70DD"/>
<path d="M255.279 42.7937C258.514 46.029 263.809 46.029 267.045 42.7937L276.457 33.382C279.693 30.1467 279.693 24.8526 276.457 21.6174C273.222 18.3821 267.927 18.3821 264.691 21.6174L255.279 31.0291C252.043 34.2644 252.043 39.4114 255.279 42.7937Z" fill="#D19E7C"/>
<path d="M258.661 39.1173C259.837 40.2937 262.043 40.2937 263.367 39.1173L272.778 29.7056C273.955 28.5292 273.955 26.3233 272.778 24.9998C271.602 23.8233 269.396 23.8233 268.073 24.9998L258.661 34.4114C257.484 35.735 257.484 37.9408 258.661 39.1173Z" fill="#F9E2CF"/>
<path d="M226.014 42.7937C222.779 46.029 217.485 46.029 214.25 42.7937L204.838 33.382C201.603 30.1467 201.603 24.8526 204.838 21.6174C208.074 18.3821 213.367 18.3821 216.603 21.6174L226.014 31.0291C229.396 34.2644 229.396 39.4114 226.014 42.7937Z" fill="#D19E7C"/>
<path d="M222.631 39.1173C221.455 40.2937 219.249 40.2937 217.925 39.1173L208.514 29.7056C207.337 28.5292 207.337 26.3233 208.514 24.9998C209.69 23.8233 211.896 23.8233 213.22 24.9998L222.631 34.4114C223.808 35.735 223.808 37.9408 222.631 39.1173Z" fill="#F9E2CF"/>
<path d="M300.426 209.559L284.249 53.5293C282.337 35.1469 268.661 20.7351 251.161 17.2057C252.778 15.7351 254.249 13.8234 254.984 11.7645C255.72 9.99983 253.367 8.38218 251.749 9.4116C249.69 10.7351 247.778 12.4998 245.72 13.6763C245.426 13.8234 245.131 13.9704 244.837 14.1175C245.278 13.3822 245.72 12.7939 246.014 12.2057C246.749 11.0292 244.984 9.4116 243.955 10.5881C241.602 13.3822 238.808 14.9998 236.014 16.4704C215.573 17.2057 198.808 32.6469 196.455 52.941L178.514 208.823C176.896 222.794 186.161 235.882 200.131 238.97L202.19 239.412C227.484 244.853 253.514 244.706 278.808 239.118C292.484 236.176 301.749 223.529 300.426 209.559Z" fill="#D19E7C"/>
<path d="M263.955 44.7058C266.716 44.7058 268.955 42.4672 268.955 39.7058C268.955 36.9444 266.716 34.7058 263.955 34.7058C261.194 34.7058 258.955 36.9444 258.955 39.7058C258.955 42.4672 261.194 44.7058 263.955 44.7058Z" fill="#202225"/>
<path d="M217.484 44.7058C220.246 44.7058 222.484 42.4672 222.484 39.7058C222.484 36.9444 220.246 34.7058 217.484 34.7058C214.723 34.7058 212.484 36.9444 212.484 39.7058C212.484 42.4672 214.723 44.7058 217.484 44.7058Z" fill="#202225"/>
<path d="M232.926 52.353C231.896 52.353 231.308 51.6177 231.308 50.7353C231.308 49.8529 232.043 49.1177 232.926 49.1177C238.22 49.1177 238.955 43.5294 238.955 43.3824C239.102 42.3529 239.984 41.9118 240.72 42.0588C241.749 42.2059 242.19 43.0882 242.043 43.8235C241.896 46.7647 239.396 52.353 232.926 52.353Z" fill="#202225"/>
<path d="M248.367 52.3532C241.896 52.3532 239.396 46.7649 238.955 43.6767C238.808 42.6473 239.543 41.912 240.279 41.912C241.308 41.7649 242.043 42.5002 242.043 43.2355C242.19 43.8238 243.073 48.9708 248.073 48.9708C249.102 48.9708 249.69 49.7061 249.69 50.5885C249.69 51.4708 249.249 52.3532 248.367 52.3532Z" fill="#202225"/>
<path d="M206.014 96.6175L192.043 210.588C190.867 221.47 198.073 231.617 208.808 233.823L210.426 234.265C229.984 238.382 250.279 238.235 269.69 233.97C280.279 231.618 287.484 221.765 286.308 211.029L274.102 97.0586C272.632 80.7351 258.808 68.2351 242.337 68.2351H237.926C221.602 68.2351 208.073 80.441 206.014 96.6175Z" fill="#F9E2CF"/>
<path d="M225.426 154.853C224.69 151.176 221.602 148.676 218.808 146.471C213.808 142.647 209.69 138.823 206.896 133.088C199.69 119.118 213.073 85.4411 194.249 78.0881C193.514 78.8234 193.22 79.7058 193.073 80.7352C189.837 98.9705 177.043 114.118 180.867 133.529C184.102 149.853 197.337 161.765 213.955 163.088C214.984 163.235 215.573 162.941 216.161 162.5C221.161 162.941 226.896 161.323 225.426 154.853Z" fill="#D19E7C"/>
<path d="M296.954 141.503C301.703 112.24 281.832 84.6687 252.57 79.9197C223.308 75.1706 195.736 95.0425 190.987 124.305C186.238 153.567 206.11 181.139 235.372 185.888C264.634 190.637 292.205 170.765 296.954 141.503Z" fill="#D4E4FF"/>
<path d="M243.955 176.029C267.752 176.029 287.043 156.738 287.043 132.941C287.043 109.144 267.752 89.8525 243.955 89.8525C220.158 89.8525 200.867 109.144 200.867 132.941C200.867 156.738 220.158 176.029 243.955 176.029Z" fill="#7196FF"/>
<path d="M237.19 158.382C237.926 158.382 238.367 157.794 238.367 157.205V115.146C238.367 114.411 237.779 113.97 237.19 113.97C236.602 113.97 236.014 114.558 236.014 115.146V157.205C236.014 157.794 236.455 158.382 237.19 158.382Z" fill="#3E70DD"/>
<path d="M258.22 173.529C258.514 173.382 258.808 173.235 259.102 173.235V172.793C259.102 171.764 258.955 170.735 258.808 169.705C258.955 169.558 259.102 169.264 259.102 168.97V148.823C259.102 142.352 256.602 136.323 252.044 131.764C247.927 127.646 245.722 122.058 245.722 116.323V104.852C245.722 104.117 245.134 103.676 244.546 103.676C243.957 103.676 243.369 104.264 243.369 104.852V116.323V140.293C243.369 146.764 245.869 152.793 250.574 157.352C254.691 161.47 256.897 167.058 256.897 172.793V173.97C257.191 173.97 257.632 173.823 258.22 173.529ZM252.044 155.882C247.927 151.764 245.722 146.176 245.722 140.44V126.911C246.898 129.411 248.515 131.617 250.427 133.529C254.544 137.646 256.749 143.235 256.749 148.97V162.499C255.573 159.999 253.956 157.793 252.044 155.882Z" fill="#3E70DD"/>
<path d="M257.043 96.0288C258.955 96.0288 260.72 95.1464 262.043 93.8229C261.161 93.3817 260.426 93.0876 259.543 92.7935C258.808 93.3817 257.926 93.5288 257.043 93.5288C255.132 93.5288 253.514 92.3523 252.779 90.7346C251.896 90.5876 251.014 90.4405 250.132 90.2935C250.867 93.5288 253.661 96.0288 257.043 96.0288Z" fill="#3E70DD"/>
<path d="M214.543 164.411V152.205C214.69 151.47 214.102 151.029 213.514 151.029C212.926 151.029 212.337 151.617 212.337 152.205V162.058C213.073 162.941 213.808 163.676 214.543 164.411Z" fill="#3E70DD"/>
<path d="M219.69 168.529C220.426 168.97 221.014 169.411 221.749 169.852C222.779 168.823 223.367 167.352 223.367 165.882V152.205C223.514 148.97 221.014 146.617 217.926 146.617C217.19 146.617 216.749 147.205 216.749 147.793C216.749 148.529 217.337 148.97 217.926 148.97C219.69 148.97 221.161 150.293 221.161 152.205V165.882C221.014 167.058 220.573 167.94 219.69 168.529Z" fill="#3E70DD"/>
<path d="M228.955 147.205C228.808 142.794 225.131 139.117 220.573 139.117C216.014 139.117 212.484 142.794 212.484 147.205C212.484 147.941 213.073 148.382 213.661 148.382C214.249 148.382 214.837 147.794 214.837 147.205C214.837 143.97 217.484 141.47 220.573 141.47C223.661 141.47 226.308 144.117 226.308 147.205V152.5C226.308 153.235 226.896 153.676 227.484 153.676C228.22 153.676 228.661 153.088 228.661 152.5V147.205H228.955Z" fill="#3E70DD"/>
<path d="M209.69 158.97C209.69 158.97 209.69 158.97 209.69 158.823V107.058C208.808 108.088 208.073 109.411 207.337 110.588V155.293H207.19C207.926 156.617 208.808 157.793 209.69 158.97Z" fill="#3E70DD"/>
<path d="M214.984 101.029C214.396 101.47 214.102 101.911 213.661 102.352C213.367 102.647 213.073 102.941 212.778 103.235V125.441C212.778 130.294 216.749 134.264 221.602 134.264C226.455 134.264 230.425 130.294 230.425 125.441V92.0583C229.543 92.3525 228.808 92.6466 228.073 92.9407V125.588C228.073 129.117 225.131 132.058 221.602 132.058C218.073 132.058 215.131 129.117 215.131 125.588L214.984 101.029C215.131 100.882 215.131 100.882 214.984 101.029Z" fill="#3E70DD"/>
<path d="M218.22 98.5288V123.088C218.073 124.999 219.543 126.617 221.602 126.617C223.514 126.617 225.131 124.999 225.131 123.088V100.293C225.131 99.5582 224.543 99.117 223.955 99.117C223.367 99.117 222.779 99.7052 222.779 100.293V122.941C222.779 123.676 222.19 123.97 221.749 123.97C221.161 123.97 220.72 123.382 220.72 122.941V96.9111C219.69 97.3523 218.955 97.9405 218.22 98.5288Z" fill="#3E70DD"/>
<path d="M236.161 108.382C236.014 109.117 236.602 109.558 237.19 109.558C237.779 109.558 238.367 108.97 238.367 108.382V90.2935C237.484 90.4405 236.749 90.5876 236.014 90.7346V108.382H236.161Z" fill="#3E70DD"/>
<path d="M269.984 98.6758C269.102 98.0875 268.514 97.6463 267.631 97.0581V168.97C268.367 168.382 269.249 167.94 269.984 167.352V98.6758Z" fill="#3E70DD"/>
<path d="M264.102 112.793C264.102 112.646 264.102 112.646 264.102 112.499C264.102 112.351 264.102 112.351 264.102 112.204V107.352C264.102 103.381 260.867 100.293 257.043 100.293C253.22 100.293 249.984 103.528 249.984 107.352V112.204C249.984 112.351 249.984 112.351 249.984 112.499C249.984 112.646 249.984 112.646 249.984 112.793V117.645C249.984 121.469 253.22 124.704 257.043 124.704C260.867 124.704 264.102 121.469 264.102 117.645V112.793ZM257.19 122.057C254.69 122.057 252.631 119.998 252.631 117.498V117.351C253.808 118.381 255.573 119.116 257.19 119.116C258.808 119.116 260.426 118.381 261.749 117.498C261.749 119.998 259.69 122.057 257.19 122.057ZM252.484 112.351C252.631 109.852 254.543 107.94 257.043 107.94C259.543 107.94 261.455 109.852 261.602 112.351C261.455 114.851 259.543 116.763 257.043 116.763C254.543 116.763 252.631 114.851 252.484 112.351ZM257.19 105.587C255.573 105.587 253.808 106.322 252.631 107.352C252.631 104.852 254.69 102.793 257.19 102.793C259.69 102.793 261.749 104.705 261.749 107.352C260.426 106.322 258.808 105.587 257.19 105.587Z" fill="#3E70DD"/>
<path d="M276.749 133.676C276.896 132.941 276.308 132.5 275.72 132.5C275.131 132.5 274.543 133.088 274.543 133.676V163.529C275.278 162.794 275.867 162.205 276.455 161.47C276.602 161.323 276.749 161.176 276.896 161.029V133.676H276.749Z" fill="#3E70DD"/>
<path d="M275.573 123.235C276.308 123.235 276.749 122.646 276.749 122.058V105.146C276.014 104.264 275.279 103.382 274.396 102.646V122.058C274.396 122.794 274.984 123.235 275.573 123.235Z" fill="#3E70DD"/>
<path d="M282.781 122.793C282.781 122.058 282.192 121.617 281.603 121.617C280.867 121.617 280.425 122.205 280.425 122.793V136.617C280.425 137.352 281.014 137.793 281.603 137.793C282.339 137.793 282.781 137.205 282.781 136.617V122.793Z" fill="#3E70DD"/>
<path d="M281.455 142.793C280.72 142.793 280.279 143.382 280.279 143.97V155.882C281.161 154.558 281.896 153.088 282.632 151.617V144.117C282.779 143.382 282.19 142.793 281.455 142.793Z" fill="#3E70DD"/>
<path d="M261.602 129.264V133.529C261.602 134.264 262.19 134.705 262.779 134.705C263.514 134.705 263.955 134.117 263.955 133.529V129.264C263.955 128.529 263.367 128.088 262.779 128.088C262.043 127.941 261.602 128.529 261.602 129.264Z" fill="#3E70DD"/>
<path d="M243.955 147.206C251.833 147.206 258.22 140.819 258.22 132.941C258.22 125.062 251.833 118.676 243.955 118.676C236.077 118.676 229.69 125.062 229.69 132.941C229.69 140.819 236.077 147.206 243.955 147.206Z" fill="#D4E4FF"/>
<path d="M243.956 141.176C248.504 141.176 252.19 137.489 252.19 132.941C252.19 128.392 248.504 124.705 243.956 124.705C239.409 124.705 235.722 128.392 235.722 132.941C235.722 137.489 239.409 141.176 243.956 141.176Z" fill="white"/>
<path d="M136.603 193.529H156.749C157.778 193.529 158.808 192.5 158.808 191.47V102.793C158.808 101.764 157.778 100.734 156.749 100.734H136.603C135.574 100.734 134.544 101.764 134.544 102.793V191.47C134.544 192.5 135.427 193.529 136.603 193.529Z" fill="#AEC7FF"/>
<path d="M158.808 110.735H134.544V126.912H158.808V110.735Z" fill="#7196FF"/>
<path d="M158.808 116.911H134.544V120.882H158.808V116.911Z" fill="#3E70DD"/>
<path d="M141.308 187.059H199.102L195.867 132.5C195.425 125.147 189.396 119.559 182.043 119.559H155.72C149.984 119.559 145.131 124.117 144.69 129.853L141.308 187.059Z" fill="#83DDC5"/>
<path d="M170.426 127.059C173.661 127.059 175.867 124.559 175.867 121.617V105C175.867 101.912 173.367 99.5586 170.426 99.5586H170.278C167.19 99.5586 164.837 102.059 164.837 105V121.617C164.984 124.706 167.484 127.059 170.426 127.059Z" fill="#EACEB9"/>
<path d="M170.72 116.029H173.22C185.131 116.029 194.69 106.323 194.69 94.5586V70.588C194.69 65.1468 190.425 60.8821 184.984 60.8821H158.808C153.514 60.8821 149.102 65.1468 149.102 70.588V94.5586C149.249 106.47 158.808 116.029 170.72 116.029Z" fill="#F9E2CF"/>
<path d="M180.427 101.47C182.486 101.47 184.103 99.8527 184.103 97.7939C184.103 95.7351 182.486 94.1174 180.427 94.1174C178.368 94.1174 176.75 95.7351 176.75 97.7939C176.75 99.8527 178.368 101.47 180.427 101.47Z" fill="white"/>
<path d="M189.249 90.4408C190.792 90.4408 192.043 89.1898 192.043 87.6467C192.043 86.1035 190.792 84.8525 189.249 84.8525C187.706 84.8525 186.455 86.1035 186.455 87.6467C186.455 89.1898 187.706 90.4408 189.249 90.4408Z" fill="#202225"/>
<path d="M156.015 53.3821H193.514C198.955 53.3821 203.22 57.7938 203.22 63.088C203.22 68.5291 198.808 72.7938 193.514 72.7938H159.691C155.868 72.7938 152.78 75.8821 152.78 79.7056V100.735C152.78 103.235 151.162 105.588 148.662 106.176C145.28 106.911 142.191 104.264 142.191 100.882V67.0585C142.191 59.5585 148.368 53.3821 156.015 53.3821Z" fill="#FF9A15"/>
<path d="M168.661 90.4408C170.204 90.4408 171.455 89.1898 171.455 87.6467C171.455 86.1035 170.204 84.8525 168.661 84.8525C167.118 84.8525 165.868 86.1035 165.868 87.6467C165.868 89.1898 167.118 90.4408 168.661 90.4408Z" fill="#202225"/>
<path d="M154.25 84.9993H152.338C149.397 84.9993 146.897 87.0581 146.603 89.9993C146.309 93.2346 148.809 96.0287 152.044 96.0287H154.25C155.133 96.0287 155.574 95.4404 155.574 94.7051V86.4699C155.721 85.5875 155.133 84.9993 154.25 84.9993Z" fill="#F9E2CF"/>
<path d="M163.368 81.7643H170.72C171.749 81.7643 172.484 80.8819 172.484 79.9996V79.5584C172.484 78.529 171.602 77.7937 170.72 77.7937H163.368C162.338 77.7937 161.603 78.676 161.603 79.5584V79.8525C161.603 81.029 162.338 81.7643 163.368 81.7643Z" fill="#FF9A15"/>
<path d="M189.102 81.7644H193.073C193.955 81.7644 194.543 81.0291 194.543 80.2938V79.1173C194.543 78.235 193.808 77.6467 193.073 77.6467H189.102C188.22 77.6467 187.631 78.382 187.631 79.1173V80.2938C187.778 81.0291 188.22 81.7644 189.102 81.7644Z" fill="#FF9A15"/>
<path d="M144.249 169.41C144.396 169.41 144.396 169.41 144.543 169.41C185.721 160.881 187.633 119.999 187.633 119.558C187.633 118.676 187.044 118.234 186.309 118.234C185.574 118.234 184.985 118.823 184.985 119.558C184.985 121.176 183.221 158.822 144.102 166.763C143.367 166.91 142.925 167.646 143.072 168.381C142.925 168.969 143.514 169.41 144.249 169.41Z" fill="#202225"/>
<path d="M150.426 209.706C151.014 209.706 151.455 209.706 151.897 209.559C155.573 208.676 157.926 205 157.19 201.323C150.72 173.088 160.278 131.176 160.425 130.882C161.308 127.206 158.955 123.382 155.132 122.647C151.455 121.765 147.632 124.117 146.897 127.941C146.456 130 136.603 173.382 143.662 204.559C144.544 207.5 147.191 209.706 150.426 209.706Z" fill="#83DDC5"/>
<path d="M360.572 62.0585L359.689 63.9703C359.542 64.4114 359.983 64.8526 360.425 64.7055L362.337 63.8232C362.484 63.8232 362.631 63.8232 362.779 63.8232L364.691 64.7055C365.133 64.8526 365.574 64.4114 365.427 63.9703L364.544 62.0585C364.544 61.9114 364.544 61.7644 364.544 61.6173L365.427 59.7055C365.574 59.2644 365.133 58.8232 364.691 58.9703L362.779 59.8526C362.631 59.8526 362.484 59.8526 362.337 59.8526L360.425 58.9703C359.983 58.8232 359.542 59.2644 359.689 59.7055L360.572 61.6173C360.719 61.7644 360.719 61.9114 360.572 62.0585Z" fill="#AEC7FF"/>
<path d="M180.427 9.11741L179.544 11.0292C179.397 11.4704 179.838 11.9115 180.28 11.7645L182.191 10.8821C182.338 10.8821 182.485 10.8821 182.632 10.8821L184.543 11.7645C184.984 11.9115 185.426 11.4704 185.278 11.0292L184.396 9.11741C184.396 8.97035 184.396 8.82329 184.396 8.67624L185.278 6.76447C185.426 6.32329 184.984 5.88212 184.543 6.02918L182.632 6.91153C182.485 6.91153 182.338 6.91153 182.191 6.91153L180.28 5.88212C179.838 5.73506 179.397 6.17624 179.544 6.61741L180.427 8.52918C180.574 8.67624 180.574 8.97035 180.427 9.11741Z" fill="#3E70DD"/>
<path d="M59.2486 78.2351C58.8072 78.2351 58.513 77.941 58.513 77.4998V76.0292C58.513 75.5881 58.8072 75.2939 59.2486 75.2939C59.69 75.2939 59.9842 75.5881 59.9842 76.0292V77.4998C59.9842 77.941 59.69 78.2351 59.2486 78.2351Z" fill="#AEC7FF"/>
<path d="M59.2486 84.8521C58.8072 84.8521 58.513 84.5579 58.513 84.1168V82.6462C58.513 82.205 58.8072 81.9109 59.2486 81.9109C59.69 81.9109 59.9842 82.205 59.9842 82.6462V84.1168C59.9842 84.5579 59.69 84.8521 59.2486 84.8521Z" fill="#AEC7FF"/>
<path d="M61.0137 80.1467C61.0137 79.7055 61.3078 79.4114 61.749 79.4114H63.2196C63.6607 79.4114 63.9549 79.7055 63.9549 80.1467C63.9549 80.5878 63.6607 80.882 63.2196 80.882H61.749C61.4549 80.882 61.0137 80.5878 61.0137 80.1467Z" fill="#AEC7FF"/>
<path d="M54.396 80.1467C54.396 79.7055 54.6902 79.4114 55.1313 79.4114H56.6019C57.0431 79.4114 57.3372 79.7055 57.3372 80.1467C57.3372 80.5878 57.0431 80.882 56.6019 80.882H55.1313C54.8372 80.882 54.396 80.5878 54.396 80.1467Z" fill="#AEC7FF"/>
<path d="M343.367 49.5586C342.925 49.5586 342.63 49.2645 342.63 48.8233V47.3527C342.63 46.9115 342.925 46.6174 343.367 46.6174C343.808 46.6174 344.103 46.9115 344.103 47.3527V48.8233C344.103 49.2645 343.808 49.5586 343.367 49.5586Z" fill="#D4E4FF"/>
<path d="M343.367 56.1763C342.925 56.1763 342.63 55.8822 342.63 55.441V53.9704C342.63 53.5292 342.925 53.2351 343.367 53.2351C343.808 53.2351 344.103 53.5292 344.103 53.9704V55.441C344.103 55.8822 343.808 56.1763 343.367 56.1763Z" fill="#D4E4FF"/>
<path d="M345.277 51.4704C345.277 51.0292 345.571 50.7351 346.012 50.7351H347.483C347.924 50.7351 348.218 51.0292 348.218 51.4704C348.218 51.9116 347.924 52.2057 347.483 52.2057H346.012C345.571 52.2057 345.277 51.9116 345.277 51.4704Z" fill="#D4E4FF"/>
<path d="M338.659 51.4704C338.659 51.0292 338.954 50.7351 339.395 50.7351H340.865C341.306 50.7351 341.601 51.0292 341.601 51.4704C341.601 51.9116 341.306 52.2057 340.865 52.2057H339.395C338.954 52.2057 338.659 51.9116 338.659 51.4704Z" fill="#D4E4FF"/>
<path d="M157.778 30.8821C157.337 30.8821 157.043 30.588 157.043 30.1468V28.6762C157.043 28.235 157.337 27.9409 157.778 27.9409C158.219 27.9409 158.512 28.235 158.512 28.6762V30.1468C158.512 30.588 158.219 30.8821 157.778 30.8821Z" fill="#AEC7FF"/>
<path d="M157.778 37.4998C157.337 37.4998 157.043 37.2056 157.043 36.7645V35.2939C157.043 34.8527 157.337 34.5586 157.778 34.5586C158.219 34.5586 158.512 34.8527 158.512 35.2939V36.7645C158.512 37.2056 158.219 37.4998 157.778 37.4998Z" fill="#AEC7FF"/>
<path d="M159.542 32.6469C159.542 32.2057 159.836 31.9116 160.277 31.9116H161.749C162.19 31.9116 162.484 32.2057 162.484 32.6469C162.484 33.0881 162.19 33.3822 161.749 33.3822H160.277C159.983 33.3822 159.542 33.0881 159.542 32.6469Z" fill="#AEC7FF"/>
<path d="M152.926 32.6469C152.926 32.2057 153.22 31.9116 153.661 31.9116H155.131C155.573 31.9116 155.867 32.2057 155.867 32.6469C155.867 33.0881 155.573 33.3822 155.131 33.3822H153.661C153.367 33.3822 152.926 33.0881 152.926 32.6469Z" fill="#AEC7FF"/>
</g>
</g>
<defs>
<clipPath id="clip0">
<rect x="3.80784" y="5.88208" width="385.882" height="237.5" fill="white"/>
</clipPath>
</defs>
</svg>
