<svg width="48" height="48" viewBox="0 0 48 48" fill="none" xmlns="http://www.w3.org/2000/svg">
<circle cx="22.5" cy="22.5" r="17.5" fill="#C482FF"/>
<path d="M27 9L25.5 10.5L23.5 9.5L25 16.5H29.5L28.5 15L30.5 14L28.5 13L30 11L27.5 11.5L27 9Z" fill="#FFED00"/>
<path d="M36 30H10C8.89543 30 8 30.8954 8 32V39C8 40.1046 8.89543 41 10 41H36C37.1046 41 38 40.1046 38 39V32C38 30.8954 37.1046 30 36 30Z" fill="#A120AD"/>
<path d="M27.0193 18.6237L27.3516 15.8284C27.4914 14.679 27.1694 13.5211 26.4561 12.609C25.7429 11.6969 24.6969 11.1051 23.5477 10.9636C22.978 10.893 22.3999 10.9353 21.8466 11.0882C21.2932 11.2411 20.7754 11.5015 20.3227 11.8545C19.8701 12.2076 19.4914 12.6463 19.2083 13.1458C18.9253 13.6452 18.7434 14.1956 18.6731 14.7653L18.3376 17.5292C18.1759 18.8042 17.5952 19.9895 16.6868 20.8987C15.784 21.8364 15.1605 23.0071 14.8863 24.2795C14.6121 25.5519 14.6981 26.8755 15.1347 28.1017C15.5712 29.3279 16.341 30.4081 17.3575 31.221C18.374 32.0339 19.5971 32.5473 20.8893 32.7034C22.1815 32.8596 23.4916 32.6524 24.6725 32.1052C25.8535 31.5579 26.8584 30.6922 27.5745 29.6053C28.2907 28.5184 28.6895 27.2534 28.7264 25.9523C28.7633 24.6512 28.4367 23.3657 27.7833 22.24C27.1369 21.1517 26.8683 19.8804 27.0193 18.6237Z" fill="black"/>
<path d="M24.5059 39.4115C24.2677 39.4149 24.036 39.3332 23.8527 39.181C23.6694 39.0289 23.5464 38.8162 23.5059 38.5815L22.9959 35.7615C22.2859 32.2715 21.9959 31.6115 18.5459 31.6115C18.2807 31.6115 18.0263 31.5061 17.8388 31.3186C17.6513 31.131 17.5459 30.8767 17.5459 30.6115C17.5459 30.3462 17.6513 30.0919 17.8388 29.9044C18.0263 29.7168 18.2807 29.6115 18.5459 29.6115C23.3159 29.6115 24.1259 31.2815 24.9559 35.3915L25.4659 38.2315C25.5126 38.4912 25.4548 38.759 25.3049 38.9763C25.1551 39.1936 24.9254 39.3428 24.6659 39.3915L24.5059 39.4115Z" fill="black"/>
<path d="M30.7056 37.6915C30.485 37.7016 30.2673 37.6384 30.0864 37.5117C29.9055 37.3851 29.7716 37.2022 29.7056 36.9915C28.2856 32.3915 26.9056 31.6114 23.4956 31.6114C23.2304 31.6114 22.976 31.5061 22.7885 31.3186C22.601 31.131 22.4956 30.8767 22.4956 30.6115C22.4956 30.3462 22.601 30.0919 22.7885 29.9044C22.976 29.7168 23.2304 29.6115 23.4956 29.6115C28.0556 29.6115 30.0256 31.2615 31.6156 36.4015C31.6941 36.6534 31.6699 36.9262 31.5481 37.1604C31.4264 37.3945 31.217 37.571 30.9656 37.6515C30.8811 37.6762 30.7937 37.6896 30.7056 37.6915Z" fill="black"/>
<path d="M44.9556 26.12L42.3556 32.06C41.7607 33.2365 40.8658 34.2352 39.7614 34.9551C38.657 35.675 37.3821 36.0906 36.0656 36.16C35.3204 36.1623 34.5887 35.9615 33.9492 35.5792C33.3096 35.1968 32.7863 34.6474 32.4355 33.99C32.2208 33.5838 31.9214 33.2285 31.5575 32.948C31.1936 32.6675 30.7738 32.4683 30.3263 32.3641C29.8788 32.2598 29.4142 32.2528 28.9638 32.3435C28.5134 32.4342 28.0877 32.6206 27.7156 32.89L26.0056 34.14C24.2319 35.4365 22.0926 36.1367 19.8956 36.14H18.1456C15.6756 36.14 14.4656 34.3 15.4556 32.04L18.0656 26.1C18.6546 24.921 19.5467 23.92 20.6503 23.1995C21.7539 22.479 23.0292 22.065 24.3456 22H42.3456C44.7355 22.02 45.9356 23.89 44.9556 26.12Z" fill="white"/>
<path d="M26.0456 24.65C26.0456 24.0038 25.5217 23.48 24.8756 23.48C24.2294 23.48 23.7056 24.0038 23.7056 24.65V25.89C23.7056 26.5362 24.2294 27.06 24.8756 27.06C25.5217 27.06 26.0456 26.5362 26.0456 25.89V24.65Z" fill="#B2C1D1"/>
<path d="M43.7355 24.65C43.7355 24.0038 43.2117 23.48 42.5655 23.48C41.9193 23.48 41.3955 24.0038 41.3955 24.65V25.89C41.3955 26.5362 41.9193 27.06 42.5655 27.06C43.2117 27.06 43.7355 26.5362 43.7355 25.89V24.65Z" fill="#B2C1D1"/>
<path d="M37.0755 25.95H31.8055C31.3439 25.9509 30.8918 26.0818 30.5009 26.3276C30.1101 26.5734 29.7964 26.9243 29.5955 27.34L29.4155 27.72C29.3358 27.8851 29.3003 28.068 29.3124 28.2509C29.3245 28.4338 29.3838 28.6104 29.4845 28.7636C29.5853 28.9167 29.724 29.0411 29.8872 29.1246C30.0504 29.2081 30.2324 29.2479 30.4155 29.24H35.6755C36.1269 29.2387 36.5691 29.1118 36.9524 28.8733C37.3356 28.6349 37.6449 28.2944 37.8455 27.89L38.0355 27.51C38.1199 27.3462 38.1606 27.1634 38.1536 26.9793C38.1466 26.7952 38.0922 26.6161 37.9956 26.4592C37.8991 26.3023 37.7636 26.173 37.6025 26.0838C37.4413 25.9945 37.2598 25.9485 37.0755 25.95Z" fill="#F47FFF"/>
<path d="M12.5582 7.74639L12.0412 8.81688C12.0142 8.87171 12.005 8.93365 12.0149 8.99399C12.0248 9.05434 12.0533 9.11005 12.0964 9.1533C12.1395 9.19654 12.195 9.22514 12.2552 9.23507C12.3153 9.245 12.377 9.23577 12.4317 9.20866L13.4987 8.72308C13.5366 8.70569 13.5779 8.69669 13.6197 8.69669C13.6614 8.69669 13.7027 8.70569 13.7407 8.72308L14.8076 9.23625C14.8623 9.26336 14.924 9.27259 14.9842 9.26266C15.0443 9.25273 15.0998 9.22413 15.1429 9.18089C15.186 9.13764 15.2146 9.08193 15.2245 9.02158C15.2344 8.96124 15.2251 8.8993 15.1981 8.84447L14.6866 7.77398C14.6676 7.73439 14.6578 7.69101 14.6578 7.64707C14.6578 7.60312 14.6676 7.55974 14.6866 7.52015L15.1981 6.44966C15.2284 6.39725 15.2417 6.33671 15.2362 6.27639C15.2307 6.21607 15.2067 6.15894 15.1675 6.11291C15.1282 6.06688 15.0757 6.0342 15.0172 6.0194C14.9586 6.00461 14.8969 6.00841 14.8406 6.03029L13.7407 6.54347C13.7012 6.56254 13.658 6.57244 13.6142 6.57244C13.5704 6.57244 13.5271 6.56254 13.4877 6.54347L12.4207 6.03029C12.366 6.00319 12.3043 5.99395 12.2442 6.00388C12.184 6.01381 12.1285 6.04241 12.0854 6.08566C12.0423 6.1289 12.0138 6.18462 12.0039 6.24496C11.994 6.30531 12.0032 6.36725 12.0302 6.42207L12.5472 7.49256C12.5679 7.53132 12.5797 7.57427 12.5816 7.61822C12.5835 7.66216 12.5755 7.70598 12.5582 7.74639Z" fill="#FFD836"/>
<path d="M10.8819 19.447C10.8819 19.2001 10.6837 19 10.4392 19C10.1947 19 9.99646 19.2001 9.99646 19.447V19.8884C9.99646 20.1353 10.1947 20.3354 10.4392 20.3354C10.6837 20.3354 10.8819 20.1353 10.8819 19.8884V19.447Z" fill="white"/>
<path d="M10.8819 23.0061C10.8819 22.7593 10.6837 22.5591 10.4392 22.5591C10.1947 22.5591 9.99646 22.7593 9.99646 23.0061V23.4475C9.99646 23.6944 10.1947 23.8945 10.4392 23.8945C10.6837 23.8945 10.8819 23.6944 10.8819 23.4475V23.0061Z" fill="white"/>
<path d="M12.4274 21.8859C12.6735 21.8859 12.8729 21.687 12.8729 21.4417C12.8729 21.1964 12.6735 20.9975 12.4274 20.9975H11.9874C11.7414 20.9975 11.542 21.1964 11.542 21.4417C11.542 21.687 11.7414 21.8859 11.9874 21.8859H12.4274Z" fill="white"/>
<path d="M8.88544 21.8914C9.13148 21.8914 9.33093 21.6926 9.33093 21.4473C9.33093 21.2019 9.13148 21.0031 8.88544 21.0031H8.44545C8.19942 21.0031 7.99996 21.2019 7.99996 21.4473C7.99996 21.6926 8.19942 21.8914 8.44545 21.8914H8.88544Z" fill="white"/>
<path d="M42.2295 15.2263L42.2256 15.2302C42.101 15.3552 42.101 15.5579 42.2256 15.6828L42.455 15.9131C42.5796 16.038 42.7816 16.038 42.9061 15.9131L42.91 15.9092C43.0346 15.7842 43.0346 15.5815 42.91 15.4565L42.6806 15.2263C42.556 15.1014 42.354 15.1014 42.2295 15.2263Z" fill="#60CFAC"/>
<path d="M44.0444 17.0512L44.0405 17.0551C43.9159 17.1801 43.9159 17.3827 44.0405 17.5077L44.27 17.7379C44.3945 17.8629 44.5965 17.8629 44.7211 17.7379L44.725 17.734C44.8495 17.609 44.8495 17.4064 44.725 17.2814L44.4955 17.0512C44.3709 16.9262 44.169 16.9262 44.0444 17.0512Z" fill="#60CFAC"/>
<path d="M44.7251 15.2324L44.7212 15.2285C44.5966 15.1035 44.3946 15.1035 44.27 15.2285L44.0406 15.4587C43.916 15.5837 43.916 15.7863 44.0406 15.9113L44.0445 15.9152C44.1691 16.0402 44.371 16.0402 44.4956 15.9152L44.7251 15.685C44.8496 15.56 44.8496 15.3574 44.7251 15.2324Z" fill="#60CFAC"/>
<path d="M42.9155 17.0572L42.9116 17.0533C42.787 16.9283 42.585 16.9283 42.4605 17.0533L42.231 17.2835C42.1064 17.4085 42.1064 17.6112 42.231 17.7362L42.2349 17.7401C42.3595 17.865 42.5615 17.865 42.686 17.7401L42.9155 17.5098C43.0401 17.3849 43.0401 17.1822 42.9155 17.0572Z" fill="#60CFAC"/>
<path d="M24 24.2779C15.3641 26.0347 16.0796 24.3176 18.948 22" stroke="#1F1F1F" stroke-width="2" stroke-miterlimit="10" stroke-linecap="round"/>
<path d="M27.1555 21.67C27.0241 21.689 26.8904 21.682 26.7617 21.6494C26.6331 21.6167 26.5122 21.559 26.4059 21.4796C26.2996 21.4002 26.2099 21.3007 26.1421 21.1866C26.0742 21.0726 26.0295 20.9463 26.0105 20.815C25.9914 20.6837 25.9984 20.5499 26.0311 20.4213C26.0638 20.2927 26.1214 20.1717 26.2008 20.0654C26.2802 19.9591 26.3798 19.8695 26.4938 19.8016C26.6078 19.7338 26.7341 19.689 26.8655 19.67C30.1215 18.6783 30.7433 17.2398 31.1441 14.9896C31.2435 14.4316 31.74 14.0304 32.3055 14.07C32.8567 14.1527 33.2394 14.6692 33.1428 15.2182C32.6733 17.888 31.8374 20.2533 27.4655 21.58C27.3682 21.628 27.2633 21.6585 27.1555 21.67Z" fill="black"/>
</svg>
