<svg fill="none" height="72" viewBox="0 0 82 72" width="82" xmlns="http://www.w3.org/2000/svg" xmlns:xlink="http://www.w3.org/1999/xlink"><linearGradient id="a" gradientUnits="userSpaceOnUse" x1="37.4151" x2="20.9036" y1="43.1883" y2="49.767"><stop offset="0" stop-color="#7196ff"/><stop offset="1" stop-color="#567ef7"/></linearGradient><path d="m40.8472 69.6747c-.5196.002-1.0344-.0991-1.515-.2974-.4807-.1984-.9177-.4901-1.2862-.8586-.3684-.3684-.661-.8063-.8611-1.2886-.2-.4823-.3035-.9995-.3046-1.5221-.0101-3.781-.0252-9.4364-.0319-13.2072-.0018-1.0547.4127-2.067 1.1524-2.8146s1.7441-1.1692 2.7926-1.1723c1.0484-.0005 2.0541.4178 2.796 1.1628.742.7451 1.1595 1.756 1.1608 2.8106 0 3.7691.0219 9.4195.0319 13.1987.0014.5226-.0997 1.0404-.2973 1.5237-.1977.4833-.4881.9227-.8546 1.2931s-.8019.6646-1.2815.8656c-.4795.2011-.9938.3052-1.5133.3063z" fill="#7196ff"/><path d="m55.9577 64.8654c-1.5108-3.4145-3.757-8.5008-5.2763-11.9457-.8142-1.8474-.2232-4.0798 1.4958-5.1285.4809-.2959 1.0191-.4852 1.5786-.555.5595-.0699 1.1274-.0188 1.6656.1498.5383.1687 1.0346.451 1.4557.8281.421.3771.7572.8403.986 1.3586 1.5109 3.4433 3.8007 8.6123 5.3267 12.0622.2107.4779.3258.9929.3387 1.5155.0128.5226-.0769 1.0427-.264 1.5304s-.4679.9336-.8264 1.3121-.7876.6822-1.2628.8938c-.9584.4275-2.0464.4547-3.0247.0757-.9784-.379-1.7671-1.1333-2.1929-2.097z" fill="#7196ff"/><path d="m22.9888 54.3449c0-.0743 0-.1469 0-.2229.3357-5.7719 1.5108-10.946 6.1073-17.444.5298-.7499 1.3341-1.2575 2.2359-1.4109s1.8273.0598 2.5728.5927c.7456.533 1.2501 1.342 1.4026 2.2492.1526.9071-.0594 1.8381-.5892 2.588-3.6731 5.1893-4.5561 9.0007-4.8382 13.8269-.0485.9021-.445 1.7495-1.1051 2.3621-.6601.6125-1.5317.9418-2.4295.9178-.8978-.0239-1.7508-.3993-2.3777-1.0462-.6269-.647-.9781-1.5144-.9789-2.4178z" fill="url(#a)"/><path d="m29.6868 31.245-6.3203 1.9558c-.8379.2593-1.7439.1732-2.5186-.2395-.7748-.4126-1.3549-1.1179-1.6127-1.9608l-2.1872-7.1517c-.2578-.8429-.1721-1.7542.2381-2.5336.4102-.7793 1.1114-1.3628 1.9493-1.6221l6.3203-1.9559 4.1316 13.5094z" fill="#7196ff"/><path d="m26.386 29.6575-3.1561.9767c-.4192.1297-.8724.0866-1.26-.1198s-.6778-.5593-.8067-.9809l-1.701-5.5619c-.129-.4217-.0861-.8776.1191-1.2674.2052-.3899.556-.6818.9751-.8115l3.1561-.9767z" fill="#bacfff"/><path d="m55.0481 8.60693 6.3203-1.95586c.415-.12869.8513-.17382 1.2837-.13281.4325.04101.8526.16735 1.2365.3718.3839.20446.7239.48301 1.0007.81974s.4849.72504.6124 1.14271l2.1872 7.15179c.2578.8428.1722 1.7542-.238 2.5335-.4103.7793-1.1114 1.3628-1.9494 1.6221l-6.3218 1.9564z" fill="#7196ff"/><path d="m58.3481 10.1938 3.1594-.97764c.4191-.12971.8724-.08662 1.2599.11981.3876.20643.6778.55927.8068.98093l1.7015 5.5635c.1289.4217.0861.8776-.1191 1.2674-.2053.3899-.556.6818-.9752.8115l-3.1593.9777z" fill="#bacfff"/><path d="m55.9022 24.1565-24.9546 8.9415-.8612 11.9052c-.1593 2.212.428 4.4135 1.667 6.2481.9818 1.4546 2.3323 2.6187 3.9118 3.3716 1.5794.753 3.3303 1.0675 5.0712.9108l15.1355-1.3644c1.8202-.164 3.5445-.8937 4.9337-2.0881 1.3892-1.1943 2.3744-2.794 2.8188-4.5771.4605-1.8502.315-3.8004-.4147-5.5608z" fill="#7196ff"/><path d="m30.3988 40.6718 27.3602-11.9829-.7118-1.7393-26.175 7.1819z" fill="#4f79f0"/><path d="m50.567 2.54387-25.1748 7.64983c-3.9439 1.1984-6.1752 5.386-4.9838 9.3532l3.3558 11.1744c1.1913 3.9672 5.3543 6.2117 9.2981 5.0133l25.1748-7.6499c3.9438-1.1984 6.1751-5.3859 4.9838-9.3531l-3.3558-11.17444c-1.1914-3.96718-5.3543-6.2117-9.2981-5.01329z" fill="#7196ff"/><path d="m31.1188 14.9142 14.3958-4.4549c.6039-.1869 1.2568-.1248 1.8152.1726.5583.2974.9764.8057 1.1621 1.4131l1.704 5.5716c.4582 1.4983.306 3.1182-.4232 4.5035-.7292 1.3854-1.9756 2.4226-3.465 2.8835l-7.2637 2.2478c-1.6099.4982-3.3505.3327-4.8391-.4601-1.4885-.7928-2.603-2.148-3.0983-3.7673l-1.5642-5.1149c-.1858-.6074-.1241-1.2642.1715-1.8258.2957-.5617.801-.9822 1.4049-1.1691z" fill="#bacfff"/><path d="m53.8005 14.4989c1.2322 0 2.2311-1.0048 2.2311-2.2443 0-1.2394-.9989-2.2442-2.2311-2.2442s-2.231 1.0048-2.231 2.2442c0 1.2395.9988 2.2443 2.231 2.2443z" fill="#202225"/><path d="m26.2354 23.0267c1.2322 0 2.2311-1.0048 2.2311-2.2442 0-1.2395-.9989-2.2443-2.2311-2.2443-1.2321 0-2.231 1.0048-2.231 2.2443 0 1.2394.9989 2.2442 2.231 2.2442z" fill="#202225"/><g fill="#7196ff"><path d="m37.5334 21.8463-1.9768.6118c-.545.1686-.8509.7497-.6832 1.298l.0005.0016c.1677.5482.7454.8559 1.2904.6872l1.9768-.6117c.5449-.1687.8508-.7498.6832-1.298l-.0005-.0016c-.1677-.5482-.7454-.8559-1.2904-.6873z"/><path d="m45.0977 19.5039-2.7662.856c-.545.1687-.8509.7498-.6832 1.298l.0005.0016c.1677.5482.7454.8559 1.2904.6873l2.7662-.8561c.545-.1686.8509-.7497.6832-1.298l-.0005-.0016c-.1677-.5482-.7454-.8559-1.2904-.6872z"/><path d="m74.8636 5.89347c0-.37958-.3059-.68729-.6833-.68729-.3773 0-.6832.30771-.6832.68729v.68729c0 .37958.3059.68728.6832.68728.3774 0 .6833-.3077.6833-.68728z"/><path d="m74.8636 11.3918c0-.3796-.3059-.6873-.6833-.6873-.3773 0-.6832.3077-.6832.6873v.6873c0 .3795.3059.6872.6832.6872.3774 0 .6833-.3077.6833-.6872z"/><path d="m77.2558 9.67274c.3774 0 .6833-.30771.6833-.68729s-.3059-.68729-.6833-.68729h-.6832c-.3774 0-.6833.30771-.6833.68729s.3059.68729.6833.68729z"/><path d="m71.7883 9.67439c.3774 0 .6833-.30771.6833-.68729s-.3059-.6873-.6833-.6873h-.6833c-.3773 0-.6832.30772-.6832.6873s.3059.68729.6832.68729z"/></g><path d="m4.72064 46.7662-1.03915 2.1733c-.05387.1111-.07196.2364-.05173.3584.02023.1219.07775.2345.16458.322.08682.0876.19861.1457.31981.1663.12119.0206.24576.0026.35635-.0513l2.16055-1.047c.08027-.0383.168-.0582.25685-.0582.08884 0 .17657.0199.25685.0582l2.16054 1.047c.11066.0534.23508.071.35609.0502.121-.0207.23261-.0788.3194-.1661.08682-.0873.14452-.1996.16512-.3213.0207-.1217.0032-.2469-.0499-.3582l-1.04084-2.1733c-.03808-.0808-.05783-.169-.05783-.2584s.01975-.1776.05783-.2584l1.04084-2.175c.0531-.1113.0706-.2364.0499-.3582-.0206-.1217-.0783-.234-.16512-.3213-.08679-.0873-.1984-.1453-.3194-.1661-.12101-.0207-.24543-.0032-.35609.0503l-2.16054 1.0486c-.08004.0392-.16786.0595-.25685.0595s-.17682-.0203-.25685-.0595l-2.16055-1.0453c-.11059-.0539-.23516-.0719-.35635-.0512-.1212.0206-.23299.0787-.31981.1662-.08683.0875-.14435.2001-.16458.322-.02023.122-.00214.2473.05173.3584l1.03915 2.1716c.0389.0806.05911.1689.05911.2584s-.02021.1779-.05911.2584z" fill="#ffcdf9"/><path d="m5.3988 24.6394-.07722-.0287-3.12751-1.3509c-.12459-.0534-.23748-.131-.3322-.2283-.09472-.0974-.16941-.2126-.21978-.339-.05038-.1265-.07545-.2617-.07377-.3979.00167-.1362.03005-.2707.08352-.3959.1103-.25.31321-.4469.56558-.5487.25238-.1019.5343-.1007.78581.0033l3.1275 1.3509c.24079.1078.43139.3042.53264.549s.10544.5192.01173.767-.27822.4501-.5156.5652c-.23738.1152-.50959.1345-.7607.054z" fill="#f7e080"/><path d="m78.891 32.2385c-.2037-.0002-.4029-.061-.5723-.175-.1694-.1139-.3015-.2758-.3794-.4652-.078-.1894-.0984-.3978-.0587-.5988.0397-.2011.1378-.3858.2819-.5308l.7252-.7295c.1934-.1943.4557-.3034.7292-.3033.2734.0002.5355.1096.7288.3042.1932.1946.3017.4584.3015.7335-.0001.275-.1089.5387-.3024.7331l-.7252.7278c-.0955.0964-.2091.1729-.3341.2251-.1251.0522-.2591.079-.3945.0789z" fill="#60cfac"/><path d="m72.3271 24.7644c-.0302.0659-.0604.1334-.094.1993-2.6172 5.1488-5.7547 9.416-12.5637 13.5094-.3889.2335-.8197.3877-1.2678.4537-.4481.0661-.9048.0427-1.3439-.0688-.4392-.1115-.8522-.3089-1.2154-.581-.3633-.272-.6698-.6134-.9019-1.0046-.2322-.3911-.3854-.8245-.4511-1.2753-.0656-.4507-.0424-.9101.0684-1.3518.1109-.4417.3071-.8572.5776-1.2226.2704-.3655.6098-.6737.9987-.9073 5.4374-3.2659 7.7692-6.3967 9.9566-10.7028.411-.7964 1.1127-1.4017 1.9578-1.6888.8451-.2872 1.7679-.2339 2.5748.1487s1.4351 1.0646 1.7528 1.9031.3002 1.7681-.0489 2.5939z" fill="#7196ff"/><path d="m67.8667 45.8998-3.0788 4.5696c-.0533.0819-.0838.1767-.0881.2745-.0044.0978.0175.195.0633.2813.0459.0864.114.1587.1972.2095s.1785.078.2758.079h5.4895c.5587-.0007 1.1089-.1379 1.6033-.3997.4944-.2617.9182-.6403 1.235-1.1032.3169-.4629.5173-.9962.584-1.5542.0668-.558-.0021-1.1239-.2008-1.6492-.2255-.5929-.6082-1.1122-1.1067-1.5015-.4984-.3893-1.0934-.6337-1.7202-.7067-.6269-.0729-1.2616.0284-1.8352.293-.5736.2645-1.0642.6822-1.4183 1.2076z" fill="#7196ff"/></svg>