<svg width="235" height="128" viewBox="0 0 235 128" fill="none" xmlns="http://www.w3.org/2000/svg">
<g clip-path="url(#clip0)">
<path opacity="0.2" d="M0 121.891C0 105.673 13.0909 92.5816 29.3091 92.5816H32.8C34.7636 92.5816 36.2909 90.9816 36.2909 89.0907V49.0907C36.3636 35.9998 46.9091 25.4543 59.9273 25.4543H156.727C169.745 25.4543 180.291 35.9998 180.291 49.018V52.2907C180.291 54.9816 182.473 57.1634 185.164 57.1634H201.527C219.491 57.1634 234.109 79.7089 234.109 97.7453V121.818H0V121.891Z" fill="#AEC7FF"/>
<path d="M115.055 127.854C147.2 127.854 173.236 101.818 173.236 69.6725C173.236 37.5271 147.2 11.4907 115.055 11.4907C82.9091 11.4907 56.8727 37.5271 56.8727 69.6725C56.8727 101.818 82.9091 127.854 115.055 127.854Z" fill="#3E70DD"/>
<path d="M164.8 43.9999L211.855 35.709L197.309 54.909C194.473 58.6908 190.327 61.1635 185.673 62.0363L152.582 67.8544L151.636 62.6908L164.8 43.9999Z" fill="#DAE2ED"/>
<path d="M150.4 39.1998L220 26.9089C220.582 26.8362 221.018 27.4907 220.655 27.9271L216.218 33.9634C215.709 34.618 214.982 35.1271 214.109 35.2725L211.855 35.6362L164.8 43.9271L151.782 62.5453L152.727 67.7089L153.382 71.5634L138.691 92.5816L130.473 75.6362L128.873 66.618L146.255 41.818C147.127 40.5089 148.655 39.5634 150.4 39.1998Z" fill="#ECEFF6"/>
<path d="M151.709 62.6181L164.8 43.9999L211.855 35.709L208.945 39.5635L166.618 47.0544L154.545 64.2908L155.055 67.4181L152.655 67.8544L151.709 62.6181Z" fill="#C5CEDD"/>
<path d="M211.2 34.4C212.436 34.4 213.382 33.4546 213.382 32.2182C213.382 30.9818 212.436 30.0364 211.2 30.0364C209.964 30.0364 209.018 30.9818 209.018 32.2182C209.018 33.4546 209.964 34.4 211.2 34.4Z" fill="#DAE2ED"/>
<path d="M155.927 49.9635C157.164 49.9635 158.109 49.018 158.109 47.7817C158.109 46.5453 157.164 45.5999 155.927 45.5999C154.691 45.5999 153.745 46.5453 153.745 47.7817C153.745 49.018 154.691 49.9635 155.927 49.9635Z" fill="#DAE2ED"/>
<path d="M151.782 55.8546C153.018 55.8546 153.964 54.9091 153.964 53.6728C153.964 52.4364 153.018 51.491 151.782 51.491C150.545 51.491 149.6 52.4364 149.6 53.6728C149.6 54.9091 150.545 55.8546 151.782 55.8546Z" fill="#DAE2ED"/>
<path d="M65.3818 43.9999L18.3273 35.709L32.8727 54.909C35.7091 58.6908 39.8545 61.1635 44.5091 62.0363L77.6 67.8544L78.5455 62.6908L65.3818 43.9999Z" fill="#DAE2ED"/>
<path d="M79.7818 39.1998L10.1818 26.9817C9.59999 26.9089 9.16363 27.5635 9.52727 27.9998L13.9636 34.0362C14.4727 34.6907 15.2 35.1998 16.0727 35.3453L18.3273 35.7089L65.3818 43.9998L78.4 62.618L77.4545 67.7817L76.8 71.6362L91.4909 92.6544L99.7091 75.7089L101.309 66.6907L83.9273 41.8907C83.0546 40.5089 81.5273 39.5635 79.7818 39.1998Z" fill="#ECEFF6"/>
<path d="M78.4 62.6181L65.3818 43.9999L18.3273 35.709L21.2364 39.5635L63.4909 47.0544L75.6364 64.2908L75.0546 67.4181L77.5273 67.8544L78.4 62.6181Z" fill="#C5CEDD"/>
<path d="M18.9818 34.4C20.2182 34.4 21.1636 33.4546 21.1636 32.2182C21.1636 30.9818 20.2182 30.0364 18.9818 30.0364C17.7454 30.0364 16.8 30.9818 16.8 32.2182C16.8 33.4546 17.7454 34.4 18.9818 34.4Z" fill="#DAE2ED"/>
<path d="M74.2546 49.9635C75.4909 49.9635 76.4364 49.018 76.4364 47.7817C76.4364 46.5453 75.4909 45.5999 74.2546 45.5999C73.0182 45.5999 72.0728 46.5453 72.0728 47.7817C72.0728 49.018 73.0182 49.9635 74.2546 49.9635Z" fill="#DAE2ED"/>
<path d="M78.4 55.8546C79.6364 55.8546 80.5818 54.9091 80.5818 53.6728C80.5818 52.4364 79.6364 51.491 78.4 51.491C77.1637 51.491 76.2182 52.4364 76.2182 53.6728C76.2182 54.9091 77.1637 55.8546 78.4 55.8546Z" fill="#DAE2ED"/>
<path d="M51.5636 6.25443L49.7455 10.109C49.3091 10.9817 50.2546 11.9272 51.1273 11.4908L54.9818 9.67261C55.2727 9.52715 55.6364 9.52715 55.9273 9.67261L59.7818 11.4908C60.6546 11.9272 61.6 10.9817 61.1636 10.109L59.3455 6.25443C59.2 5.96352 59.2 5.59988 59.3455 5.30897L61.0909 1.52716C61.5273 0.654428 60.5818 -0.291026 59.7091 0.145337L55.8546 1.96352C55.5636 2.10897 55.2 2.10897 54.9091 1.96352L51.0546 0.145337C50.1818 -0.291026 49.2364 0.654428 49.6727 1.52716L51.4909 5.3817C51.7091 5.67261 51.7091 5.96352 51.5636 6.25443Z" fill="#AEC7FF"/>
<path d="M183.418 101.454L181.6 105.309C181.164 106.182 182.109 107.127 182.982 106.691L186.836 104.873C187.127 104.727 187.491 104.727 187.782 104.873L191.636 106.691C192.509 107.127 193.455 106.182 193.018 105.309L191.2 101.454C191.055 101.163 191.055 100.8 191.2 100.509L193.018 96.6543C193.455 95.7816 192.509 94.8362 191.636 95.2725L187.782 97.0907C187.491 97.2362 187.127 97.2362 186.836 97.0907L182.982 95.2725C182.109 94.8362 181.164 95.7816 181.6 96.6543L183.418 100.509C183.564 100.8 183.564 101.163 183.418 101.454Z" fill="#7196FF"/>
<path d="M205.6 75.4908C204.8 75.4908 204.145 74.8363 204.145 74.0363V72.5817C204.145 71.7817 204.8 71.1272 205.6 71.1272C206.4 71.1272 207.055 71.7817 207.055 72.5817V74.0363C207.055 74.8363 206.4 75.4908 205.6 75.4908Z" fill="#AEC7FF"/>
<path d="M205.6 87.1273C204.8 87.1273 204.145 86.4728 204.145 85.6728V84.2182C204.145 83.4182 204.8 82.7637 205.6 82.7637C206.4 82.7637 207.055 83.4182 207.055 84.2182V85.6728C207.055 86.4728 206.4 87.1273 205.6 87.1273Z" fill="#AEC7FF"/>
<path d="M209.236 79.1272C209.236 78.3272 209.891 77.6726 210.691 77.6726H212.145C212.945 77.6726 213.6 78.3272 213.6 79.1272C213.6 79.9272 212.945 80.5817 212.145 80.5817H210.691C209.891 80.5817 209.236 79.9272 209.236 79.1272Z" fill="#AEC7FF"/>
<path d="M197.6 79.1272C197.6 78.3272 198.255 77.6726 199.055 77.6726H200.509C201.309 77.6726 201.964 78.3272 201.964 79.1272C201.964 79.9272 201.309 80.5817 200.509 80.5817H199.055C198.255 80.5817 197.6 79.9272 197.6 79.1272Z" fill="#AEC7FF"/>
<path d="M10.9818 70.4C10.1818 70.4 9.52728 69.7455 9.52728 68.9455V67.4909C9.52728 66.6909 10.1818 66.0364 10.9818 66.0364C11.7818 66.0364 12.4364 66.6909 12.4364 67.4909V68.9455C12.4364 69.7455 11.7818 70.4 10.9818 70.4Z" fill="#3E70DD"/>
<path d="M10.9818 82.0362C10.1818 82.0362 9.52728 81.3817 9.52728 80.5817V79.1272C9.52728 78.3272 10.1818 77.6726 10.9818 77.6726C11.7818 77.6726 12.4364 78.3272 12.4364 79.1272V80.5817C12.4364 81.3817 11.7818 82.0362 10.9818 82.0362Z" fill="#3E70DD"/>
<path d="M14.6182 74.0363C14.6182 73.2363 15.2727 72.5818 16.0727 72.5818H17.5273C18.3273 72.5818 18.9818 73.2363 18.9818 74.0363C18.9818 74.8363 18.3273 75.4909 17.5273 75.4909H16.0727C15.2727 75.4909 14.6182 74.8363 14.6182 74.0363Z" fill="#3E70DD"/>
<path d="M2.98181 74.0363C2.98181 73.2363 3.63636 72.5818 4.43636 72.5818H5.8909C6.6909 72.5818 7.34545 73.2363 7.34545 74.0363C7.34545 74.8363 6.6909 75.4909 5.8909 75.4909H4.43636C3.63636 75.4909 2.98181 74.8363 2.98181 74.0363Z" fill="#3E70DD"/>
<path d="M114.909 18.3999L84.9454 48.3635V90.5453L114.909 120.509L144.873 90.5453V48.3635L114.909 18.3999ZM129.964 84.2181L114.909 99.2726L99.9272 84.2908V54.4726L114.909 39.5635L129.891 54.5454L129.964 84.2181Z" fill="#FA6EF6"/>
<path d="M114.909 18.3999V39.5635L129.891 54.5454L144.873 48.2908L114.909 18.3999Z" fill="#FFADFB"/>
<path d="M99.9272 84.2908L84.9454 90.4726L114.909 120.436V99.2726L99.9272 84.2908Z" fill="#E655D4"/>
<path d="M99.9272 54.5453V84.2907L114.909 99.2726L129.891 84.2907V54.5453L114.909 39.5635L99.9272 54.5453Z" fill="#FFCFF9"/>
<path d="M129.891 54.5451V54.6179L100 84.3633H99.9272V76.2906L125.818 50.4724L129.891 54.5451Z" fill="white"/>
<path d="M129.891 65.8181V74.0363L109.818 94.109L105.673 89.9636L129.891 65.8181Z" fill="white"/>
</g>
<defs>
<clipPath id="clip0">
<rect width="234.182" height="128" fill="white"/>
</clipPath>
</defs>
</svg>
