<svg width="80" height="80" viewBox="0 0 80 80" fill="none" xmlns="http://www.w3.org/2000/svg">
<rect width="80" height="80" rx="4" fill="url(#paint0_linear_301_21708)"/>
<path fill-rule="evenodd" clip-rule="evenodd" d="M15.525 35.3C16.0379 35.3068 16.5329 35.1111 16.9026 34.7555C17.2722 34.3998 17.4869 33.9128 17.5 33.4C17.4871 32.8892 17.2767 32.4033 16.9131 32.0444C16.5495 31.6854 16.0609 31.4813 15.55 31.475H14.45C13.9391 31.4813 13.4505 31.6854 13.0869 32.0444C12.7233 32.4033 12.5129 32.8892 12.5 33.4C12.513 33.9085 12.7242 34.3917 13.0885 34.7467C13.4528 35.1016 13.9414 35.3002 14.45 35.3H15.525ZM55.85 58.475C58.2065 57.477 60.3371 56.0131 62.114 54.1714C63.8909 52.3296 65.2773 50.1479 66.1902 47.7571C67.1031 45.3663 67.5236 42.8157 67.4265 40.2584C67.3294 37.701 66.7166 35.1897 65.625 32.875C64.0623 29.6443 61.6499 26.8997 58.6463 24.9355C55.6427 22.9713 52.1612 21.8615 48.575 21.725H28.575C28.1631 21.6871 27.7478 21.7356 27.3557 21.8672C26.9635 21.9989 26.6032 22.2109 26.2976 22.4897C25.992 22.7685 25.7479 23.1079 25.5808 23.4863C25.4138 23.8648 25.3276 24.2739 25.3276 24.6875C25.3276 25.1012 25.4138 25.5103 25.5808 25.8887C25.7479 26.2671 25.992 26.6066 26.2976 26.8854C26.6032 27.1642 26.9635 27.3761 27.3557 27.5078C27.7478 27.6395 28.1631 27.6879 28.575 27.65H33.65C33.9195 27.6192 34.1925 27.6456 34.4511 27.7276C34.7097 27.8097 34.948 27.9454 35.1504 28.126C35.3529 28.3066 35.5149 28.5279 35.6258 28.7755C35.7367 29.023 35.794 29.2912 35.794 29.5625C35.794 29.8338 35.7367 30.102 35.6258 30.3496C35.5149 30.5971 35.3529 30.8185 35.1504 30.9991C34.948 31.1796 34.7097 31.3154 34.4511 31.3974C34.1925 31.4794 33.9195 31.5059 33.65 31.475H21.025C20.5121 31.475 20.0199 31.677 19.6549 32.0373C19.2899 32.3976 19.0816 32.8872 19.075 33.4C19.0783 33.6528 19.1313 33.9025 19.2311 34.1348C19.3308 34.3671 19.4754 34.5775 19.6565 34.7539C19.8375 34.9304 20.0516 35.0694 20.2864 35.1631C20.5212 35.2568 20.7722 35.3033 21.025 35.3H30C30.2528 35.3 30.5031 35.3498 30.7367 35.4466C30.9702 35.5433 31.1824 35.6851 31.3612 35.8638C31.5399 36.0426 31.6817 36.2548 31.7785 36.4884C31.8752 36.7219 31.925 36.9722 31.925 37.225C31.925 37.4778 31.8752 37.7281 31.7785 37.9617C31.6817 38.1952 31.5399 38.4075 31.3612 38.5862C31.1824 38.765 30.9702 38.9068 30.7367 39.0035C30.5031 39.1002 30.2528 39.15 30 39.15H24.4C24.1472 39.1467 23.8962 39.1932 23.6614 39.2869C23.4266 39.3806 23.2125 39.5197 23.0315 39.6961C22.8504 39.8726 22.7058 40.0829 22.6061 40.3152C22.5063 40.5475 22.4533 40.7972 22.45 41.05C22.4566 41.5629 22.6649 42.0524 23.0299 42.4128C23.3949 42.7731 23.8871 42.9751 24.4 42.975H28.3C28.5274 45.088 29.1018 47.149 30 49.075C32.2558 53.6815 36.2093 57.2344 41.0296 58.9873C45.85 60.7401 51.1622 60.5565 55.85 58.475ZM37.675 45.5C37.0602 44.1867 36.7149 42.7635 36.6595 41.3145C36.6042 39.8654 36.8398 38.42 37.3525 37.0636C37.8653 35.7072 38.6447 34.4673 39.6447 33.4173C40.6448 32.3672 41.8452 31.5283 43.175 30.95C45.8605 29.7255 48.9196 29.6053 51.6928 30.6155C54.4661 31.6256 56.7312 33.6852 58 36.35C58.6113 37.6639 58.9538 39.0867 59.0074 40.5348C59.0611 41.9829 58.8247 43.4271 58.3124 44.7826C57.8 46.1381 57.0219 47.3775 56.0237 48.4281C55.0256 49.4786 53.8275 50.319 52.5 50.9C49.8136 52.1179 46.757 52.2346 43.9856 51.2251C41.2142 50.2156 38.9487 48.1604 37.675 45.5V45.5Z" fill="white"/>
<path d="M51.45 34.325H44.275C44.1556 34.3235 44.0377 34.3526 43.9327 34.4094C43.8277 34.4663 43.739 34.5491 43.675 34.65L40 40.65C39.9387 40.761 39.9066 40.8857 39.9066 41.0125C39.9066 41.1393 39.9387 41.264 40 41.375L43.675 47.5C43.7339 47.6072 43.8208 47.6965 43.9265 47.7581C44.0322 47.8198 44.1527 47.8515 44.275 47.85H51.45C51.5723 47.8515 51.6928 47.8198 51.7985 47.7581C51.9042 47.6965 51.9911 47.6072 52.05 47.5L55.625 41.5C55.6863 41.389 55.7184 41.2643 55.7184 41.1375C55.7184 41.0107 55.6863 40.886 55.625 40.775L52.05 34.775C52.003 34.6508 51.9216 34.5426 51.8154 34.4629C51.7091 34.3832 51.5824 34.3354 51.45 34.325V34.325Z" fill="white"/>
<defs>
<linearGradient id="paint0_linear_301_21708" x1="77.9641" y1="-3.34809e-05" x2="-2.89928" y2="3.04656" gradientUnits="userSpaceOnUse">
<stop offset="0.155516" stop-color="#007CC2"/>
<stop offset="0.523438" stop-color="#1776CF"/>
<stop offset="1" stop-color="#5865F2"/>
</linearGradient>
</defs>
</svg>
