<svg height="130" viewBox="0 0 240 130" width="240" xmlns="http://www.w3.org/2000/svg"><g fill="none" fill-rule="evenodd" transform="translate(2 3)"><path d="m148.1084 115.76928c.4416 0 .8.3584.8.8s-.3584.8-.8.8h-3.2c-.4416 0-.8-.3584-.8-.8s.3584-.8.8-.8zm7.2 0h-3.2c-.4416 0-.8.3584-.8.8s.3584.8.8.8h3.2c.4416 0 .8-.3584.8-.8s-.3584-.8-.8-.8m-14.4 0h-3.2c-.4416 0-.8.3584-.8.8s.3584.8.8.8h3.2c.4416 0 .8-.3584.8-.8s-.3584-.8-.8-.8m-7.2 0h-3.2c-.4416 0-.8.3584-.8.8s.3584.8.8.8h3.2c.4416 0 .8-.3584.8-.8s-.3584-.8-.8-.8m56.68712-15.31288c-.4416 0-.8.3584-.8.8v3.2c0 .4416.3584.8.8.8s.8-.3584.8-.8v-3.2c0-.4416-.3584-.8-.8-.8m-6.28712 15.31288h-3.2c-.4416 0-.8.3584-.8.8s.3584.8.8.8h3.2c.4416 0 .8-.3584.8-.8s-.3584-.8-.8-.8m6.28712-.91288c-.4416 0-.8.3584-.8.8v.1128h-1.4872c-.4416 0-.8.3584-.8.8s.3584.8.8.8h2.2872c.4416 0 .8-.3584.8-.8v-.9128c0-.4416-.3584-.8-.8-.8m0-7.2c-.4416 0-.8.3584-.8.8v3.2c0 .4416.3584.8.8.8s.8-.3584.8-.8v-3.2c0-.4416-.3584-.8-.8-.8m-27.88712 8.11288h-3.2c-.4416 0-.8.3584-.8.8s.3584.8.8.8h3.2c.4416 0 .8-.3584.8-.8s-.3584-.8-.8-.8m7.2 0h-3.2c-.4416 0-.8.3584-.8.8s.3584.8.8.8h3.2c.4416 0 .8-.3584.8-.8s-.3584-.8-.8-.8m7.2 0h-3.2c-.4416 0-.8.3584-.8.8s.3584.8.8.8h3.2c.4416 0 .8-.3584.8-.8s-.3584-.8-.8-.8" fill="#b9bbbe"/><path d="m121.86232 117.70096c-.6248-.6248-.6248-1.6376 0-2.2624l1.6968-1.6976c.6248-.6248.6248-1.6376 0-2.2624l-1.1312-1.1312c-.6248-.6248-1.6376-.6248-2.2632 0l-1.6968 1.6968c-.6248.6248-1.6376.6248-2.2624 0l-1.6968-1.6968c-.6256-.6248-1.6384-.6248-2.2632 0l-1.1312 1.1312c-.6248.6248-.6248 1.6376 0 2.2624l1.6968 1.6976c.6248.6248.6248 1.6376 0 2.2624l-1.6968 1.6976c-.6248.624-.6248 1.6376 0 2.2624l1.1312 1.1312c.6248.6248 1.6376.6248 2.2632 0l1.6968-1.6968c.6248-.6256 1.6376-.6256 2.2624 0l1.6968 1.6968c.6256.6248 1.6384.6248 2.2632 0l1.1312-1.1312c.6248-.6248.6248-1.6384 0-2.2624z" fill="#ed4245"/><path d="m86.56504 115.76928h3.2c.4416 0 .8.3584.8.8s-.3584.8-.8.8h-3.2c-.4416 0-.8-.3584-.8-.8s.3584-.8.8-.8m-7.2 0h3.2c.4416 0 .8.3584.8.8s-.3584.8-.8.8h-3.2c-.4416 0-.8-.3584-.8-.8s.3584-.8.8-.8m14.4 0h3.2c.4416 0 .8.3584.8.8s-.3584.8-.8.8h-3.2c-.4416 0-.8-.3584-.8-.8s.3584-.8.8-.8m7.2 0h3.2c.4416 0 .8.3584.8.8s-.3584.8-.8.8h-3.2c-.4416 0-.8-.3584-.8-.8s.3584-.8.8-.8m-56.68712-15.31288c.4416 0 .8.3584.8.8v3.2c0 .4416-.3584.8-.8.8s-.8-.3584-.8-.8v-3.2c0-.4416.3584-.8.8-.8m6.28712 15.31288h3.2c.4416 0 .8.3584.8.8s-.3584.8-.8.8h-3.2c-.4416 0-.8-.3584-.8-.8s.3584-.8.8-.8m-6.28712-.91288c.4416 0 .8.3584.8.8v.1128h1.4872c.4416 0 .8.3584.8.8s-.3584.8-.8.8h-2.2872c-.4416 0-.8-.3584-.8-.8v-.9128c0-.4416.3584-.8.8-.8m0-7.2c.4416 0 .8.3584.8.8v3.2c0 .4416-.3584.8-.8.8s-.8-.3584-.8-.8v-3.2c0-.4416.3584-.8.8-.8m27.88712 8.11288h3.2c.4416 0 .8.3584.8.8s-.3584.8-.8.8h-3.2c-.4416 0-.8-.3584-.8-.8s.3584-.8.8-.8m-7.2 0h3.2c.4416 0 .8.3584.8.8s-.3584.8-.8.8h-3.2c-.4416 0-.8-.3584-.8-.8s.3584-.8.8-.8m-7.2 0h3.2c.4416 0 .8.3584.8.8s-.3584.8-.8.8h-3.2c-.4416 0-.8-.3584-.8-.8s.3584-.8.8-.8" fill="#b9bbbe"/><path d="m216.73224 26.12752 4.6744 3.0008v-11.7416c0-1.7672-1.4328-3.2-3.2-3.2h-6.4c-1.7672 0-3.2 1.4328-3.2 3.2v3.5248l2.6544 1.7032c.3712.2392.4792.7336.2408 1.1056l4.1256 2.648c.2384-.372.7336-.4792 1.1048-.2408" fill="#dcddde"/><path d="m190.42016 11.13768-36.5864 23.4864v6.0992l36.1544-23.2096c.2632-.1696.6008-.1696.864 0l36.1544 23.2096v-6.0992l-11.1384-7.1504c-.372-.2384-.48-.7336-.2408-1.1048l-4.1256-2.6488c-.2392.372-.7336.48-1.1048.2408z" fill="#fff"/><path d="m161.62016 76.72008c0-.4416.3584-.8.8-.8v-3.3336c-1.7648 0-3.2-1.4352-3.2-3.2 0-1.4856 1.024-2.728 2.4-3.0856v-13.7144c0-.4416.3584-.8.8-.8h19.2c.4416 0 .8.3584.8.8v36h44.5864v-8-37.9624l-36.5864-23.4864-36.5864 23.4864v37.9624 8h7.7864z" fill="#dcddde"/><g fill="#fff"><path d="m204.82 72.587h12.8v-8.8h-12.8z"/><path d="m190.42 72.587h12.8v-8.8h-12.8z"/><path d="m204.82 62.187h12.8v-8.8h-12.8z"/><path d="m190.42 62.187h12.8v-8.8h-12.8z"/></g><path d="m162.42016 75.92008c.4416 0 .8.3584.8.8v11.8664h17.6v-35.2h-17.6v12.9144c1.376.3576 2.4 1.6 2.4 3.0856 0 1.7648-1.4352 3.2-3.2 3.2z" fill="#f6f6f7"/><path d="m164.02016 69.38688c0-.8824-.7176-1.6-1.6-1.6s-1.6.7176-1.6 1.6.7176 1.6 1.6 1.6 1.6-.7176 1.6-1.6" fill="#f6f6f7"/><path d="m71.11192 26.12752 4.6744 3.0008v-14.9416h-12.8v6.7248l2.6544 1.7032c.3712.2392.4792.7336.2408 1.1056l4.1256 2.648c.2384-.372.7336-.4792 1.1048-.2408" fill="#dcddde"/><path d="m41.3428 13.3572-33.1296 21.2664v6.1l36.1544-23.2096c.2632-.1696.6008-.1696.864 0l36.1552 23.2096v-6.1l-11.1392-7.1496c-.3712-.2392-.4792-.7336-.2408-1.1056l-4.1256-2.648c-.2384.3712-.7336.48-1.1048.2408l-16.5192-10.604c-2.1064-1.352-4.808-1.352-6.9144 0" fill="#f6f6f7"/><path d="m14.61312 44.45368c0-.4416.3584-.8.8-.8h11.2c.4416 0 .8.3584.8.8v11.2c0 .4416-.3584.8-.8.8h-11.2c-.4416 0-.8-.3584-.8-.8zm48.3736 12c-.4416 0-.8-.3584-.8-.8v-11.2c0-.4416.3584-.8.8-.8h11.2c.4416 0 .8.3584.8.8v11.2c0 .4416-.3584.8-.8.8zm-36.5872 13.7336c0-10.1464 8.2544-18.4 18.4-18.4 10.1464 0 18.4 8.2536 18.4 18.4v18.4h18.1872v-8-37.9632l-36.5872-23.4864-36.5864 23.4864v37.9632 8h18.1864z" fill="#fff"/><path d="m61.59984 70.18688c0-8.9936-7.1088-16.3376-16-16.7592v35.1592h16zm-17.6-16.75936c-8.8912.4216-16 7.7664-16 16.7592v18.4h16z" fill="#dcddde"/><path d="m16.213 54.854h9.6v-4h-9.6z" fill="#fff"/><path d="m16.213 49.254h9.6v-4h-9.6z" fill="#dcddde"/><path d="m63.786 54.854h9.6v-4h-9.6z" fill="#fff"/><path d="m63.786 49.254h9.6v-4h-9.6z" fill="#dcddde"/><path d="m89.66936 27.06696h.408c.4416 0 .8.3584.8.8v.408c0 .4424.3584.8.8.8s.8-.3576.8-.8v-.408c0-.4416.3584-.8.8-.8h.408c.4416 0 .8-.3584.8-.8s-.3584-.8-.8-.8h-.408c-.4416 0-.8-.3576-.8-.8v-.408c0-.4416-.3584-.8-.8-.8s-.8.3584-.8.8v.408c0 .4424-.3584.8-.8.8h-.408c-.4416 0-.8.3584-.8.8s.3584.8.8.8m140.73472-6.07192c.6672 0 1.208.5408 1.208 1.208 0 .4416.3584.8.8.8s.8-.3584.8-.8c0-.6672.5408-1.208 1.208-1.208.4416 0 .8-.3584.8-.8s-.3584-.8-.8-.8c-.6672 0-1.208-.5408-1.208-1.208 0-.4416-.3584-.8-.8-.8s-.8.3584-.8.8c0 .6672-.5408 1.208-1.208 1.208-.4416 0-.8.3584-.8.8s.3584.8.8.8m-120.77144 35.45864c.2048 0 .4096-.0784.5656-.2344l.9464-.9464c.3128-.3128.3128-.8192 0-1.1312-.312-.3128-.8184-.3128-1.1312 0l-.9464.9464c-.3128.3128-.3128.8184 0 1.1312.156.156.3608.2344.5656.2344m-4.7332 4.7332c.2048 0 .4096-.0784.5656-.2344l.9472-.9464c.312-.312.312-.8192 0-1.1312-.3128-.3128-.8192-.3128-1.1312 0l-.9472.9464c-.3128.312-.3128.8184 0 1.1312.156.156.3608.2344.5656.2344m5.11408-.2344c.156.156.3608.2344.5656.2344s.4096-.0784.5656-.2344c.3128-.3128.3128-.8184 0-1.1312l-.9464-.9464c-.3128-.3128-.8184-.3128-1.1312 0-.3128.312-.3128.8184 0 1.1312zm-4.73288-4.7332c.156.156.3608.2344.5656.2344s.4096-.0784.5656-.2344c.3128-.3128.3128-.8192 0-1.1312l-.9472-.9464c-.312-.3128-.8192-.3128-1.1312 0-.312.312-.312.8192 0 1.1312zm113.13944-54.61952c.6664 0 1.208.5416 1.208 1.208 0 .6656-.5416 1.208-1.208 1.208s-1.208-.5424-1.208-1.208c0-.6664.5416-1.208 1.208-1.208m0 4.016c1.548 0 2.808-1.26 2.808-2.808s-1.26-2.808-2.808-2.808c-1.5488 0-2.808 1.26-2.808 2.808s1.2592 2.808 2.808 2.808m-25.59992 58.17112h8c1.3256 0 2.4 1.0744 2.4 2.4v4c0 1.3256-1.0744 2.4-2.4 2.4h-8c-1.3256 0-2.4-1.0744-2.4-2.4v-4c0-1.3256 1.0744-2.4 2.4-2.4m0-10.4h8c1.3256 0 2.4 1.0744 2.4 2.4v4c0 1.3256-1.0744 2.4-2.4 2.4h-8c-1.3256 0-2.4-1.0744-2.4-2.4v-4c0-1.3256 1.0744-2.4 2.4-2.4m14.4 10.4h8c1.3256 0 2.4 1.0744 2.4 2.4v4c0 1.3256-1.0744 2.4-2.4 2.4h-8c-1.3256 0-2.4-1.0744-2.4-2.4v-4c0-1.3256 1.0744-2.4 2.4-2.4m0-10.4h8c1.3256 0 2.4 1.0744 2.4 2.4v4c0 1.3256-1.0744 2.4-2.4 2.4h-8c-1.3256 0-2.4-1.0744-2.4-2.4v-4c0-1.3256 1.0744-2.4 2.4-2.4m-18.4.8v17.6c0 1.3256 1.0744 2.4 2.4 2.4h25.6c1.3256 0 2.4-1.0744 2.4-2.4v-17.6c0-1.3256-1.0744-2.4-2.4-2.4h-25.6c-1.3256 0-2.4 1.0744-2.4 2.4" fill="#b9bbbe"/><path d="m227.0068 34.624c0 2.6352-2.9152 4.228-5.1328 2.804l-31.0216-19.9144c-.2632-.1696-.6008-.1696-.864 0l-31.0224 19.9144c-2.2176 1.424-5.1328-.1688-5.1328-2.804l36.5872-23.4864 19.976 12.8232c.372.2392.8664.1312 1.1056-.2408.2384-.3712.1304-.8664-.2416-1.1048l-1.5504-.9952c-.6872-.4416-1.1032-1.2024-1.1032-2.02v-2.2128c0-1.7672 1.4328-3.2 3.2-3.2h6.4c1.7672 0 3.2 1.4328 3.2 3.2v7.3488c0 1.8984-2.0992 3.0448-3.6968 2.02l-.9776-.6288c-.3712-.2384-.8664-.1304-1.1056.2416-.2384.372-.1304.8664.2416 1.1048zm-62.9864 34.7632c0 .8824-.7176 1.6-1.6 1.6s-1.6-.7176-1.6-1.6.7176-1.6 1.6-1.6 1.6.7176 1.6 1.6zm62.9864 11.2v4.8c0 1.7672-1.4328 3.2-3.2 3.2h-40.5864c-.4424 0-.8-.3584-.8-.8v-35.2c0-.4424-.3584-.8-.8-.8h-19.2c-.4424 0-.8.3576-.8.8v13.7136c-1.8736.4872-3.0936 2.612-1.968 4.7624.504.9616 1.5456 1.524 2.6312 1.524 1.4808 0 2.8712-.9392 3.2328-2.3752.4616-1.8344-.672-3.4888-2.296-3.9112v-12.1136c0-.4424.3576-.8.8-.8h16c.4416 0 .8.3576.8.8v33.6c0 .4416-.3584.8-.8.8h-16c-.4424 0-.8-.3584-.8-.8v-12.668c0-.4424-.3584-.8-.8-.8-.4424 0-.8.3576-.8.8v12.668c0 .4416-.3584.8-.8.8h-3.7872c-1.7672 0-3.2-1.4328-3.2-3.2v-4.8-33.7392c0-1.6344.832-3.1568 2.2072-4.0392l31.7864-20.4048c1.58-1.0144 3.6064-1.0144 5.1864 0l31.7864 20.4048c1.3752.8824 2.2072 2.4048 2.2072 4.0392zm7.4136 8h-1.0136c-2.6504 0-4.8-2.1488-4.8-4.8v-2.4-39.2-7.9992c0-.2728-.1384-.5272-.368-.6744l-4.2024-2.6976c-.6416-.4112-1.0296-1.1216-1.0296-1.884v-13.1448c0-1.7672-1.4328-3.2-3.2-3.2h-9.6c-1.7672 0-3.2 1.4328-3.2 3.2 0 1.7704-1.9584 2.84-3.448 1.884l-12.7064-8.1576c-.2632-.1696-.6008-.1696-.864 0l-37.3872 24c-.2288.1472-.368.4008-.368.6736v8 39.2 2.4c0 2.6512-2.1488 4.8-4.8 4.8h-5.8128c-.4424 0-.8.3576-.8.8 0 .4416.3576.8.8.8h92.8c.4416 0 .8-.3584.8-.8 0-.4424-.3584-.8-.8-.8zm-218.2076-39.3336h9.6v-4h-9.6zm0 5.6h9.6v-4h-9.6zm10.4-11.2h-11.2c-.4416 0-.8.3584-.8.8v11.2c0 .4416.3584.8.8.8h11.2c.4424 0 .8-.3584.8-.8v-11.2c0-.4416-.3576-.8-.8-.8zm37.1736 11.2h9.6v-4h-9.6zm0-5.6h9.6v-4h-9.6zm-.8 7.2h11.2c.4416 0 .8-.3584.8-.8v-11.2c0-.4416-.3584-.8-.8-.8h-11.2c-.4416 0-.8.3584-.8.8v11.2c0 .4416.3584.8.8.8z" fill="#b9bbbe"/><path d="m81.38656 36.02632c0 2.0296-2.2448 3.256-3.952 2.1592l-32.2024-20.672c-.2632-.1696-.6008-.1696-.864 0l-32.2024 20.672c-1.708 1.0968-3.9528-.1296-3.9528-2.1592 0-.8736.4448-1.6872 1.18-2.16l31.9496-20.5088c2.1064-1.3528 4.808-1.3528 6.9144 0l16.5192 10.6032c.3712.2392.8664.1312 1.1056-.24v-.0008c.2384-.3712.1304-.8664-.2416-1.1048l-1.2576-.808c-.8696-.5584-1.396-1.5208-1.396-2.5536v-3.4664c0-.884.7168-1.6 1.6-1.6h9.6c.884 0 1.6.716 1.6 1.6v7.7864c0 2.4008-2.6544 3.8512-4.6744 2.5536-.372-.2384-.8664-.1312-1.1056.2416-.2384.372-.1304.8664.2416 1.1048l9.9584 6.3928c.7352.4728 1.18 1.2864 1.18 2.16zm0 44.5608v5.6c0 1.3256-1.0744 2.4-2.4 2.4h-13.3864c-1.3256 0-2.4-1.0744-2.4-2.4v-15.548c0-9.964-7.7328-18.4624-17.6904-18.8384-10.4672-.396-19.1096 8.0048-19.1096 18.3864v16c0 1.3256-1.0744 2.4-2.4 2.4h-13.3872c-1.3256 0-2.4-1.0744-2.4-2.4v-5.6-32.3912c0-3.472 1.7672-6.7056 4.6896-8.5816l31.8976-20.4768 31.8976 20.4768c2.9224 1.876 4.6888 5.1096 4.6888 8.5816zm-22.1864 6.3984h-11.2c-1.3256 0-2.4-1.0744-2.4-2.4v-27.3704c0-2.152 2.0848-3.6984 4.1408-3.0656 6.8592 2.112 11.8592 8.4944 11.8592 16.0376v14.3984c0 1.3256-1.0744 2.4-2.4 2.4zm-17.6 0h-11.2c-1.3256 0-2.4-1.0744-2.4-2.4v-14.3984c0-7.5432 5-13.9256 11.8584-16.0376 2.0568-.6328 4.1416.9136 4.1416 3.0656v27.3704c0 1.3256-1.0744 2.4-2.4 2.4zm89.5952 1.6016h-43.4088c-2.6504 0-4.8-2.1488-4.8-4.8v-2.4-39.2-6.2512c0-1.3624-.6928-2.6304-1.8392-3.3664l-2.2896-1.4696c-.9168-.5888-1.4712-1.6032-1.4712-2.6928v-15.02c0-.4424-.3576-.8-.8-.8h-14.4c-.4416 0-.8.3576-.8.8v3.5688c0 1.2656-1.3992 2.0304-2.464 1.3464l-13.6904-8.7888c-.2632-.1696-.6008-.1696-.864 0l-37.3872 24c-.2288.1472-.368.4008-.368.6736v8 39.2 2.4c0 2.6512-2.1488 4.8-4.8 4.8h-1.0128c-.4424 0-.8.3576-.8.8 0 .4416.3576.8.8.8h130.3952c.4416 0 .8-.3584.8-.8 0-.4424-.3584-.8-.8-.8z" fill="#b9bbbe"/></g></svg>