<svg xmlns="http://www.w3.org/2000/svg" width="290" height="64" viewBox="0 0 290 64">
    <g fill="#8694F2" fill-rule="evenodd" transform="translate(-65.556 -62.037)">
        <path d="M52.902 67.037l52.902 52.903-52.902 52.902L0 119.94z"/>
        <circle cx="188.333" cy="43.148" r="43.148"/>
        <circle cx="327.037" cy="63.704" r="1.481"/>
        <circle cx="318.148" cy="63.704" r="1.481"/>
        <circle cx="309.259" cy="63.704" r="1.481"/>
        <circle cx="300.37" cy="63.704" r="1.481"/>
        <circle cx="335.926" cy="63.704" r="1.481"/>
        <circle cx="344.815" cy="63.704" r="1.481"/>
        <circle cx="353.704" cy="63.704" r="1.481"/>
        <circle cx="327.407" cy="72.593" r="1.481"/>
        <circle cx="318.519" cy="72.593" r="1.481"/>
        <circle cx="309.63" cy="72.593" r="1.481"/>
        <circle cx="300.741" cy="72.593" r="1.481"/>
        <circle cx="336.296" cy="72.593" r="1.481"/>
        <circle cx="345.185" cy="72.593" r="1.481"/>
        <circle cx="354.074" cy="72.593" r="1.481"/>
        <circle cx="327.407" cy="81.481" r="1.481"/>
        <circle cx="318.519" cy="81.481" r="1.481"/>
        <circle cx="309.63" cy="81.481" r="1.481"/>
        <circle cx="300.741" cy="81.481" r="1.481"/>
        <circle cx="336.296" cy="81.481" r="1.481"/>
        <circle cx="345.185" cy="81.481" r="1.481"/>
        <circle cx="354.074" cy="81.481" r="1.481"/>
    </g>
</svg>
