<svg fill="none" height="177" viewBox="0 0 343 177" width="343" xmlns="http://www.w3.org/2000/svg" xmlns:xlink="http://www.w3.org/1999/xlink"><linearGradient id="a" gradientUnits="userSpaceOnUse" x1="172" x2="172" y1="3.75685" y2="72.4565"><stop offset="0" stop-color="#ffe75c"/><stop offset="1" stop-color="#5865f2"/></linearGradient><clipPath id="b"><path d="m0 0h343v178h-343z"/></clipPath><g clip-path="url(#b)"><path d="m338 117.026c.006 9.986-2.29 19.839-6.708 28.794-4.418 8.954-10.84 16.769-18.767 22.838-4.427 3.369-9.257 6.171-14.379 8.342h-50.292c-10.843-4.551-20.248-11.959-27.215-21.436-6.967-9.476-11.234-20.666-12.347-32.377s.97-23.5042 6.027-34.1244 12.898-19.6691 22.689-26.1829c9.791-6.5139 21.165-10.2486 32.909-10.8065 11.745-.5579 23.421 2.082 33.785 7.6385 10.364 5.5564 19.027 13.8214 25.067 23.9145 6.04 10.093 9.23 21.6358 9.231 33.3998z" fill="#3895f2"/><path d="m315.151 100.341-2.56 3.022s5.187 6.963 6.565 8.408c1.379 1.445 2.758 1.117 3.48.131.722-.985 1.51-3.153-7.485-11.561z" fill="#ffae17"/><path d="m265.909 76.3649c.03-1.7821.184-3.56.46-5.3208.197-.5255.591-.9854 1.904.5912 1.313 1.5765 3.545 4.9266 3.545 4.9266z" fill="#ff8c19"/><path d="m278.187 76.8247c2.823-3.8757 5.056-5.5179 6.172-5.4522s.985 1.2481 0 8.4082c-.985 7.16-6.172-2.956-6.172-2.956z" fill="#ff8c19"/><path d="m297.359 113.282c-.854 3.35-1.182 7.62.394 11.561l10.899-3.941-.723-4.204c4.071 0 7.682.591 8.995-3.745.985-3.153 1.642-9.524 0-12.94-1.641-3.416-4.727-5.5837-10.767-4.2699-3.611.8539-4.399 2.7589-5.187 5.2549-4.334-.328-7.551.591-8.273 4.992-.722 4.402 1.576 6.504 4.662 7.292z" fill="#ffd73b"/><path d="m314.232 96.7941-1.773 3.6129s6.172 6.109 7.682 7.357 2.889.723 3.546-.328c.656-1.051.656-3.548-9.455-10.6419z" fill="#ffd73b"/><path d="m304.252 101.327-2.101-.198c.526-1.7074 1.182-2.2329 1.904-2.2329.723 0 1.248.8539.197 2.4309z" fill="#fff"/><path d="m309.833 102.312-3.02-.591c.919-1.9053 1.773-2.6278 2.889-2.4965 1.116.1314 1.247 1.3135.131 3.0875z" fill="#fff"/><path d="m298.278 103.429c.038-.069.097-.124.167-.159s.149-.049.227-.038c3.158-.176 6.322.247 9.323 1.248 1.182.459.591 1.248-1.51 2.364-2.033 1.087-4.334 1.566-6.631 1.38-2.036-.132-2.824-2.365-1.576-4.795z" fill="#000"/><path d="m308.389 105.465c-3.414-.788-7.748-.394-9.849 2.233 1.707 1.577 8.01 0 9.849-2.233z" fill="#eb459f"/><path d="m307.47 105.334c-1.875.156-3.702.669-5.384 1.51" stroke="#000" stroke-linecap="round" stroke-miterlimit="10" stroke-width=".861558"/><path d="m307.995 104.48c-2.723-.94-5.591-1.385-8.47-1.314-.591 1.051-.722 2.102 1.576 2.299.985.066 1.05-.723 1.05-.723 1.93.291 3.838.708 5.712 1.248.92-.656.985-1.182.132-1.51z" fill="#fff"/><path d="m293.157 120.442c10.045-1.314 15.823-1.839 19.303-1.971 3.479-.131 5.186 1.314 5.383 2.694.329 2.561-3.151 15.633-3.151 15.633s.328 3.81.263 5.912c-.066 2.102-.526 3.482-6.697 3.679-3.874.066-16.874-1.708-21.536-3.153-4.661-1.445-5.646-2.299-3.611-8.54.323-.901.586-1.823.788-2.759.657-3.021 2.955-10.51 9.258-11.495z" fill="#fff"/><path d="m266.566 135.813-8.076-15.699c-4.071-1.577-8.667-1.84-9.652 2.43-.984 4.27.788 7.357 4.465 14.583-3.086 1.314-5.056 1.774-6.96 3.876s-3.479 4.729-2.035 5.846c1.445 1.117 2.692.46 3.677-.46s2.232-2.233 3.48-2.759c1.247-.525 5.646-2.102 7.55-3.022 3.546-1.707 7.288-3.415 7.551-4.795z" fill="#ff8c19"/><path d="m304.712 129.704 5.45-8.211" stroke="#000" stroke-linecap="round" stroke-miterlimit="10" stroke-width=".861558"/><path d="m306.025 130.689c-12.343 1.708-22.651 3.416-21.47-1.116-.276.771-.496 1.561-.656 2.365-.202.936-.465 1.857-.788 2.758-2.035 6.241-.722 7.358 3.611 8.606s17.662 3.35 21.47 3.218c6.171-.131 6.697-1.642 6.762-3.81.066-2.167-.131-5.912-.131-5.912l1.707-7.488z" fill="#949cff" opacity=".6"/><path d="m308.586 145.535-.46 2.299c-3.513-1.177-7.113-2.078-10.767-2.693-1.564-.272-3.143-.448-4.728-.526l-6.368-.262.525-1.774c5.778-1.445 14.444-1.971 21.798 2.956z" fill="#000"/><path d="m313.379 177h-39c2.166-8.934 4.661-18.984 5.187-21.02 1.641-6.109 2.429-9.657 6.697-11.627 4.267-1.971 18.909-.657 21.863 3.481 3.086 2.299 2.692 5.452 3.611 13.401 0 .328.329 3.35.788 7.422.263 2.497.591 5.453.854 8.343z" fill="#fff"/><path d="m256.783 165.899c-.716.001-1.406-.269-1.93-.757s-.844-1.156-.894-1.871c-.853-10.116 6.829-15.108 10.506-17.473l.393-.263c2.364-1.576 3.415-3.153 2.889-7.883-.055-.372-.033-.752.064-1.116.098-.364.268-.705.502-1s.526-.54.857-.718c.332-.178.697-.287 1.072-.319.376-.055.76-.033 1.128.063.367.097.712.267 1.012.5.301.233.551.525.736.857s.301.698.341 1.077c.723 6.437-.919 10.378-5.515 13.4l-.328.197c-4.268 2.825-8.47 6.043-7.944 12.218.054.757-.19 1.504-.682 2.082-.491.577-1.19.939-1.945 1.006z" fill="#ff8c19"/><path d="m256.914 109.8c-1.51 4.007-3.414 10.314-1.641 17.408 1.313 5.386 6.5 11.955 16.48 11.955 9.979 0 17.202-6.503 16.217-13.86-.46-3.022-2.889-7.357-5.45-9.394.985-1.905 3.349-6.306 4.071-8.473.722-2.168 1.707-4.402-1.444-8.3429-9.061-11.2984-20.682-8.1454-23.309-6.0433-2.626 2.102-3.611 5.3208-4.464 10.3132-.323 2.13-.476 4.283-.46 6.437z" fill="#fff"/><path d="m261.116 103.626c-.938-2.147-1.256-4.5135-.919-6.8319h-1.182c-.772 2.1046-1.322 4.2839-1.641 6.5029-.323 2.131-.477 4.283-.46 6.438-2.101 5.255-2.626 9.393-2.823 17.407l-1.51 5.452 7.353 2.234c-.866-.887-1.617-1.88-2.232-2.956-3.151-7.16-1.773-15.831 3.414-28.246z" fill="#ff8c19"/><path d="m287.97 125.303c-.46-3.022-2.889-7.357-5.45-9.394.985-1.905 3.349-6.306 4.071-8.473.722-2.168 1.707-4.402-1.444-8.3429-.725-.9307-1.539-1.7887-2.43-2.5618l-4.07-2.3648c3.151 4.7296.59 7.7515-2.627 10.6415 3.677 4.73 4.202 15.962 4.268 25.027l-.46 7.686c5.45-2.365 8.798-7.094 8.142-12.218z" fill="#ff8c19"/><path d="m287.773 128.916c-.788 3.416-3.414 6.372-7.157 8.277-1.97 3.875-3.414 4.729-6.172 4.138-.672-.124-1.311-.387-1.876-.771-.565-.385-1.044-.883-1.406-1.462-1.047-1.684-1.927-3.466-2.627-5.321-2.232-5.387-5.318-8.08-3.939-10.248 1.379-2.167 3.742-1.445 4.924.263 1.468 2.333 2.805 4.745 4.005 7.226-.459-8.277 1.051-12.087 4.531-11.955 3.479.131 8.075 2.758 9.717 9.853z" fill="#ff8c19"/><path d="m289.874 115.056c-.46-1.314-2.035-5.65-2.364-6.307-.328-.656-.591-1.051-3.217-1.97-1.281-.466-2.648-.646-4.005-.526-1.182.066-1.838.46-1.838 1.051s.197 1.511 2.954 1.642c.835.132 1.638.422 2.364.854-1.396.053-2.772.341-4.071.854-.853.395-1.707.723-2.035 1.248-.195.479-.241 1.006-.132 1.511.022.418.065.835.132 1.248.065.723.131 2.102.459 2.497.329.394 1.51.459 3.677.459.591 1.248 1.707 2.562 3.02 2.694 1.313.131 5.056-5.255 5.056-5.255z" fill="#ffd73b"/><path d="m283.702 103.363c-4.727-1.708-6.894-2.365-9.652 1.379l-4.136 5.518c-1.379 1.905-1.707 3.744 0 4.598s3.743-1.051 4.859-2.233 5.909-5.978 8.929-6.043h3.217c.657-1.905.919-4.073-1.773-7.4888l-.394-.4599-2.232-.197z" fill="#ff8c19"/><path d="m285.475 104.677c-.076.801-.23 1.593-.46 2.365l-.591-.198c.272-.715.427-1.469.46-2.233 0-.131.197-.263.328-.263s.263.197.263.329z" fill="#000"/><path d="m317.844 119.194c-.591-.394-1.314-.723-4.071-.723-2.495 3.153-5.844 7.423-8.601 11.102-1.116-1.051-12.738-11.299-13.394-11.956-.851-.67-1.508-1.554-1.904-2.561l-.46-1.117-5.909 4.007s4.859 6.766 6.434 8.539c3.546 4.073 11.753 12.744 16.415 16.357h.459c4.793-3.482 5.187-4.533 6.763-7.489s4.596-8.539 5.449-11.298c.854-2.759.197-4.007-1.181-4.861z" fill="#ffd73b"/><path d="m287.05 102.509c.197.657-.197 1.905-3.348.854l-1.182-.394c-3.414-1.248-5.384-1.577-7.55.657-12.081 1.182-13.723-3.482-16.546-3.482h-.394c.722-3.1529 1.773-5.3863 3.808-7.0942 2.036-1.7079 14.248-5.2551 23.308 6.0434l.394.4598c.071.1776.184.3353.329.46.073.161.161.315.262.46.257.395.476.813.657 1.248l.197.394c0 .131.065.263.065.394z" fill="#000"/><path d="m254.879 92.9184 8.141.9853 15.626.2628 9.783 5.5178 3.283-12.4151-9.98-11.5612-14.182-.5256-10.57-.7882-.985 11.1671z" fill="#ffd73b"/><path d="m278.646 94.1665 2.036-8.3425 1.05-10.116 9.98 11.5612-3.283 12.4152z" fill="#ffb619"/><path d="m254.879 92.9184-5.581 3.7443.459 1.1167 11.359 1.9049h12.146l5.253-4.2697 2.101 4.9264 9.061 3.679.722-.394-1.97-3.9417-2.757.0657-7.026-5.5835-19.106 2.6275z" fill="#ffd73b"/><path d="m254.879 92.9184-5.581 3.7443 12.146 2.0363h11.425l5.777-4.5325-15.626-.2628z" fill="#fff2a6"/><path d="m288.429 99.6843-9.783-5.5178 2.758 5.5178 8.995 3.9417z" fill="#ffb619"/><path d="m275.889 87.2035c-.885 1.4547-2.296 2.513-3.94 2.956-.534.1667-1.107.1667-1.641 0-.066-.0657-.066-.1314-.066-.2628-.338-1.4446-.223-2.9583.329-4.3354.722-1.5766 3.086-3.4815 4.727-3.5472h.591l.197.5912c.262 1.051.591 3.2187-.197 4.5982z" fill="#000"/><path d="m275.889 82.0798h-.591c-1.641.0657-4.005 1.9707-4.727 3.5472-.552 1.3772-.667 2.8909-.329 4.3355 0 .1313 0 .197.066.2627-.231-.0816-.43-.2329-.571-.4329-.142-.2-.217-.439-.217-.6838-.338-1.4446-.223-2.9583.329-4.3355.722-1.5765 3.085-3.4815 4.727-3.5471.285-.0426.576.0208.818.1781s.418.3976.495.6758z" fill="#ffb012"/><path d="m264.399 87.6633c-.328.9853-.591 1.8393-1.182 1.9707s-1.707-1.051-2.495-2.2991c-.656-1.3138-.722-3.0217-.459-4.9267.262-1.905 1.444-2.8246 2.298-1.5765.676 1.1707 1.29 2.3767 1.838 3.6129.294 1.0527.294 2.166 0 3.2187z" fill="#000"/><path d="m262.561 80.8317c-.854-1.2481-1.97-.5912-2.298 1.5765-.329 2.1678-.197 3.6129.459 4.9267-.109-.1153-.198-.2486-.262-.3942-.92-1.3794-1.116-3.3501-.788-5.5178s1.379-3.0217 2.232-1.7079z" fill="#ffb012"/><path d="m260.723 87.3352c-.066-.0658-.066-.1317-.132-.1317s.066.0659.132.1317z" fill="#ffb012"/><path d="m258.227 103.626c-1.51-1.84-3.217-5.2554-4.267-8.4742-1.051-3.2187-2.233-3.8756-3.611-4.007-.346-.0378-.697-.0008-1.027.1085s-.634.2883-.889.525-.456.5255-.59.8469-.198.6678-.186 1.0158c0 2.7589 1.247 5.912 2.954 10.707 1.707 4.796 2.429 5.847 6.303 5.452 2.758-.262 2.758-4.401 1.313-6.174z" fill="#ff8c19"/><path d="m252.056 93.7067c-.019-.1617-.074-.317-.163-.4536-.088-.1366-.207-.2508-.347-.3336s-.297-.1319-.459-.1435c-.163-.0116-.325.0147-.476.0767-.075-.1857-.201-.3461-.364-.4625s-.355-.1838-.555-.1943c-.525 0-.788.3941-.722.9196.065.5255-1.182.0657-.919 1.3138.19.8182.524 1.5965.984 2.2991.211.3535.527.6323.903.7973.377.1649.796.2077 1.198.1223.341-.1055.634-.3283.826-.6289.192-.3005.272-.6595.225-1.0133.084-.7683.04-1.5453-.131-2.2991z" fill="#fff"/><path d="m262.495 109.997c-.325 1.629-.832 3.215-1.51 4.73-.591 1.182-1.182 1.182-2.495 1.248h-1.839c-1.772 1.642-2.035 2.562-2.035 2.562-1.97-1.577-1.97-1.577-1.379-3.876.363-1.758 1.102-3.416 2.167-4.861l.394-.394c1.247-1.379 2.954-1.905 5.055-2.036s2.036.985 1.642 2.627z" fill="#ffd73b"/><path d="m287.838 142.71c-1.185-.309-2.3-.844-3.283-1.576" stroke="#000" stroke-linecap="round" stroke-miterlimit="10" stroke-width=".861558"/><path d="m275.889 87.2035c-.296.5545-.697 1.0455-1.182 1.4451.198-.3162.311-.6782.328-1.051.263-1.5108-.394-2.6932-1.444-2.6275-1.051.0657-2.101 1.2481-2.364 2.6932-.263 1.4452.197 2.102.854 2.4305h-.132l-.853.1314c-.533-.814-.722-1.806-.526-2.759.263-1.9049 1.642-3.5471 3.152-3.5471s2.298 1.4451 2.167 3.2844z" fill="#57f287"/><path d="m264.399 84.4446-.328-.7226c-.303-.1647-.641-.2548-.985-.2628-1.313 0-2.364 1.4452-2.364 3.2188-.011.2644.012.5292.066.7882.788 1.2481 1.575 2.3648 2.429 2.1678.854-.1971.854-.9854 1.182-1.9707.294-1.0527.294-2.166 0-3.2187z" fill="#57f287"/><path d="m264.399 87.6633c.21-.8149.254-1.6637.131-2.4962-.129-.2365-.318-.4344-.549-.573s-.495-.2129-.764-.2152c-.985 0-1.773 1.1824-1.773 2.6932-.045.7884.214 1.5642.723 2.1677.128.1477.292.261.475.3298s.381.0909.575.0644c.591-.1314.854-.9854 1.182-1.9707z" fill="#000"/><path d="m302.283 105.201-1.773-.197c-.131-.065-.197-.131-.197-.262s.132-.197.263-.197l1.773.197c.065.066.197.131.131.262 0 .053-.021.103-.058.14s-.087.057-.139.057z" fill="#000"/><path d="m317.909 105.728-2.364-2.299c-.131-.132-.328-.132-.394 0-.028.024-.05.055-.065.089-.016.034-.024.07-.023.108-.001.037.007.074.023.108.015.034.037.064.065.089l2.758 2.693z" fill="#000"/><path d="m315.545 103.429c1.773 1.708 3.808 3.678 4.596 4.335.321.298.713.509 1.138.612.425.104.87.097 1.292-.021.459-.657.591-1.905-1.379-3.416-1.97-1.51-4.727-1.905-5.647-1.51z" fill="#fff"/><path d="m303.662 99.4873c-.46 0-.985.5907-1.248 1.2477-.262.657-.066.263-.066.394l1.511.198c.114-.185.202-.383.262-.592.197-.657 0-1.2477-.459-1.2477z" fill="#000"/><path d="m306.813 101.721 1.773.328c.134-.182.244-.381.328-.591.328-.788.066-1.445-.46-1.5109-.234-.0048-.463.0639-.656.1969-.387.487-.717 1.016-.985 1.577z" fill="#000"/><path d="m307.864 114.596c-.132 0-.263.131-.197.262l.262 1.84h.526l-.263-1.905c-.066-.132-.197-.263-.328-.197z" fill="#000"/><path d="m297.358 113.348c1.751.373 3.53.593 5.319.657 0 0-5.909 7.357-5.319-.657z" fill="#000"/><path d="m307.929 145.864c1.442-.406 2.814-1.026 4.071-1.84" stroke="#000" stroke-linecap="round" stroke-miterlimit="10" stroke-width=".861558"/><path d="m308.783 141.331c2.139-1.569 3.909-3.587 5.187-5.912 2.205-3.593 3.99-7.428 5.318-11.43.854-2.759-.066-3.941-1.444-4.795-1.379-.854-1.511-1.051-6.238-.723-.328 2.628-3.677 7.423-6.434 11.102 2.56 2.365 3.742 4.795 3.611 11.758z" fill="#fff"/><path d="m311.081 118.537c-7.222 2.759-10.702 3.679-12.212 3.613s-1.97-.657-3.217-2.036l.984-.132c3.612-.525 8.47-.985 11.687-1.248.903-.211 1.834-.277 2.758-.197z" fill="#5865f2"/><path d="m294.995 155.52c10.242-3.416 15.758-3.876 16.414 2.627-.459-6.174-.853-8.079-2.954-10.313-4.137-4.532-17.99-5.518-22.192-3.481-3.152 1.445-4.399 3.744-5.515 7.357-2.298 8.539 4.07 7.226 14.247 3.81z" fill="#949cff" opacity=".6"/><path d="m296.439 142.119c-.495-.481-.916-1.035-1.247-1.642" stroke="#000" stroke-linecap="round" stroke-miterlimit="10" stroke-width=".861558"/><path d="m308.257 118.734c-8.798 2.825-9.717 2.956-11.555 1.248 0-.525.525-.591.853-.722 4.596-1.446 10.702-.526 10.702-.526z" fill="#ffd73b"/><path d="m303.136 98.1735c.985-.7882 2.495-1.1824 3.02.4599 2.758-1.7737 4.399-1.4452 4.859-.3285" stroke="#000" stroke-linecap="round" stroke-linejoin="round" stroke-width=".861558"/><path d="m305.106 129.179c2.125 1.074 3.85 2.801 4.924 4.926" stroke="#000" stroke-linecap="round" stroke-linejoin="round" stroke-width=".861558"/><path d="m266.697 136.339c.493.55 1.17.901 1.904.985" stroke="#000" stroke-linecap="round" stroke-miterlimit="10" stroke-width=".902235"/><path d="m266.697 137.324c.352-.013.697-.108 1.005-.28.308-.171.571-.413.768-.705" stroke="#000" stroke-linecap="round" stroke-miterlimit="10" stroke-width=".902235"/><path d="m257.768 102.575 1.313 1.97" stroke="#000" stroke-linecap="round" stroke-miterlimit="10" stroke-width=".902235"/><path d="m285.869 112.559c-2.792.325-5.557.852-8.273 1.577 0 .131.066.328.066.525 2.715-.743 5.479-1.292 8.272-1.642.197 0 .329-.131.263-.263-.066-.131-.131-.262-.328-.197z" fill="#000"/><path d="m285.081 117.486-3.283.131c.084.21.195.408.328.591l2.955-.132c.197 0 .263-.131.263-.328 0-.069-.028-.136-.077-.185-.05-.049-.116-.077-.186-.077z" fill="#000"/><path d="m285.278 109.275-.525.46h-.985l1.05-.986c.062-.06.144-.093.23-.093s.169.033.23.093c.131.197.066.395 0 .526z" fill="#000"/><path d="m292.172 142.908c-2.233.722-4.071 3.153-4.071 3.153" stroke="#000" stroke-linecap="round" stroke-miterlimit="10" stroke-width=".861558"/><path d="m251.447 94.54c.237-.0926.321-.4416.189-.7794-.133-.3377-.431-.5364-.668-.4438-.236.0927-.32.4416-.188.7794s.431.5365.667.4438z" fill="#ff78b9"/><path d="m249.915 94.0765c.237-.0927.321-.4416.189-.7794-.133-.3378-.431-.5365-.668-.4438-.236.0927-.32.4416-.188.7794.132.3377.431.5365.667.4438z" fill="#ff78b9"/><path d="m248.977 94.8786c.203-.0794.27-.3902.151-.6942s-.38-.4861-.582-.4066c-.203.0794-.271.3902-.151.6942.119.304.379.4861.582.4066z" fill="#ff78b9"/><path d="m249.495 94.7577c-.263.7226-.263 1.1824.131 1.3138.257.1096.538.1492.815.1146.276-.0347.539-.1422.761-.3117.459-.3284.262-.6569-.197-.9853-.46-.3285-1.248-.854-1.51-.1314z" fill="#ff78b9"/><path d="m256.455 113.151c1.728-.361 3.508-.405 5.252-.132l.197-.591c-2.495-.263-4.333-.197-5.581.197-.747.116-1.462.384-2.101.788-.483.297-.835.767-.984 1.314-.066.131-.066.263-.132.394.848-1.032 2.035-1.731 3.349-1.97z" fill="#000"/><path d="m257.177 109.603-.722.263c-.525.193-1.004.491-1.411.875-.406.384-.73.846-.953 1.359l-.131.328c.815-1.149 2.035-1.947 3.414-2.233 1.691-.442 3.448-.575 5.187-.395.065-.197.065-.394.131-.525-1.843-.226-3.712-.115-5.515.328z" fill="#000"/><path d="m256.389 116.304-1.838-.066" stroke="#000" stroke-linecap="round" stroke-miterlimit="10" stroke-width=".902235"/><path d="m273.854 131.018 1.378 2.824" stroke="#000" stroke-linecap="round" stroke-miterlimit="10" stroke-width=".902235"/><path d="m287.97 127.471c-.05.296-.188.57-.394.788-1.576 2.168-4.925-.985-6.632-2.628-2.692-2.693-5.843-2.693-7.288-.854l.197-1.313c1.708-2.234 5.91-1.314 8.93.262 1.273.754 2.588 1.433 3.939 2.037.788.263 1.248.197 1.248-.46.065.721.065 1.447 0 2.168z" fill="#ed5f00"/><path d="m273.459 129.31c.066-1.051 1.576-1.577 2.561-.066s2.692 3.942 4.99 4.467c.854.197.788-.197 0-.591s-1.773-1.839-2.692-3.613-1.838-3.153-3.217-2.89c-.405.082-.776.281-1.068.573s-.491.664-.574 1.069z" fill="#ed5f00"/><path d="m279.04 139.754c.657-1.642-.131-2.496-.722-3.415-.591-.92 1.182-.723 2.298.854-.438.904-.966 1.763-1.576 2.561z" fill="#ed5f00"/><path d="m268.732 124.975c-.871-.359-1.706-.799-2.495-1.314-.525 0-.787.328-.656.788s-1.182.066-.788 1.117c.288.729.712 1.398 1.247 1.97.275.292.614.515.99.652s.78.184 1.177.137c.854-.132.919-.92.919-1.38-.009-.675-.143-1.343-.394-1.97z" fill="#fff"/><path d="m268.276 125.759c.17-.136.142-.453-.062-.707-.204-.255-.507-.351-.676-.215-.17.136-.142.453.061.707.204.255.507.351.677.215z" fill="#ff78b9"/><path d="m266.744 125.294c.17-.136.142-.453-.062-.708-.203-.254-.506-.35-.676-.214s-.142.452.062.707c.204.254.507.351.676.215z" fill="#ff78b9"/><path d="m265.832 125.946c.17-.136.16-.43-.021-.656s-.466-.3-.635-.163c-.17.136-.161.429.021.656.181.226.465.299.635.163z" fill="#ff78b9"/><path d="m266.303 125.828c-.197.657-.131.986.262 1.183.262.078.538.101.809.067s.533-.124.767-.264c.394-.329.132-.526-.394-.854-.525-.329-1.247-.723-1.444-.132z" fill="#ff78b9"/><g fill="#ed5f00"><path d="m256.651 128.85c-1.181-.394-2.166 0-3.151.657s-3.611.066-4.399-1.642c-.194-.598-.326-1.214-.394-1.839.263 1.379 2.035 1.97 4.399.788l1.051-.394c.648-.245 1.345-.335 2.035-.263.089.907.243 1.807.459 2.693z"/><path d="m249.364 121.165c.919-1.511 3.611-.329 5.252.131 1.642.46.854-.854-.985-2.233-1.904-.066-3.414.525-4.267 2.102z"/><path d="m251.727 133.974c.328.722 1.445.788 3.086.525.801-.153 1.626-.132 2.419.06.793.193 1.535.553 2.177 1.057.853.723.197.854-1.116.46s-3.283 1.051-5.253.591z"/><path d="m252.384 143.302c-.048-.64-.327-1.241-.787-1.689s-1.067-.711-1.708-.742c-.985-.066-1.051-.394 0-.525 1.05-.132 5.581-.394 4.399 2.167-.61.319-1.247.583-1.904.789z"/><path d="m272.54 145.404c.414-1.017.722-2.073.92-3.153-2.692.591-5.647 0-5.647-1.051-.099.682-.298 1.346-.591 1.97.591 1.38 2.758 1.708 5.318 2.234z"/><path d="m264.465 145.798-2.561 1.708c2.101.46 3.217 2.167 3.349 4.729.722-.591 1.575-1.116 2.363-1.642l.328-.197c-.233-.964-.662-1.87-1.261-2.661-.599-.792-1.354-1.451-2.218-1.937z"/><path d="m258.753 150.265c-.494.471-.954.976-1.379 1.511 1.066.106 2.059.586 2.804 1.356.746.77 1.194 1.779 1.266 2.848.454-.672.982-1.289 1.576-1.84-.394-3.284-3.808-4.401-4.267-3.875z"/></g><path d="m259.869 159.527c-.788-2.496-5.384-2.891-5.778-.394-.211 1.369-.255 2.758-.131 4.138.05.715.369 1.383.893 1.871s1.214.758 1.93.757h.263c.755-.067 1.453-.429 1.944-1.006.492-.578.736-1.325.682-2.082-.072-1.099-.006-2.202.197-3.284z" fill="#fff2a6"/><path d="m285.934 80.5033-.591 4.9266 2.692 2.5619.525-4.4012z" fill="#fff"/><path d="m262.364 85.6927c.362 0 .656-.2941.656-.6569s-.294-.6569-.656-.6569c-.363 0-.657.2941-.657.6569s.294.6569.657.6569z" fill="#fff"/><path d="m272.146 86.6123c.363 0 .657-.2941.657-.6569s-.294-.6569-.657-.6569c-.362 0-.656.2941-.656.6569s.294.6569.656.6569z" fill="#fff"/><path d="m272.344 107.041c.919-1.248 4.464-1.445 5.712-.722 1.247.722.656-.131.131-.591s-3.086-2.365-5.121.328z" fill="#ed5f00"/><path d="m278.646 101.983c1.708.066 2.495 1.314 2.955 2.234s.657-.263.197-1.511c-1.019-.361-2.077-.604-3.152-.723z" fill="#ed5f00"/><path d="m254.551 106.056c-2.036.132-3.283.132-3.677-.919.373 1.044.834 2.055 1.379 3.021 3.348-.919 4.399-2.168 2.298-2.102z" fill="#ed5f00"/><path d="m240.172 177h-.526c-.161-2.307-.535-4.594-1.116-6.832-.328-1.116-.656-2.364-1.116-3.613l-.591-1.576c-3.217-9.065-4.202-13.663 0-21.546l.525-.854-.525-.525c-3.874-4.139-2.166-7.555-.788-10.248.263-.591.591-1.117.788-1.708.276-.576.432-1.201.46-1.839 0-.07.027-.137.077-.186.049-.049.116-.077.185-.077.07 0 .137.028.186.077s.077.116.077.186c-.083 1.154-.42 2.275-.985 3.284l-.262.592c-1.314 2.561-2.758 5.517.262 9.13l1.051 1.117.131.131v.197l-1.116 2.037c-3.283 6.569-2.692 10.707 0 18.524l1.116 3.219.591 1.708c.887 2.857 1.417 5.814 1.576 8.802z" fill="#000"/><path d="m238.53 128.982v48.018h-1.707v-48.018c-.001-.152.042-.301.123-.43.082-.128.199-.23.337-.293h.525c.182.026.351.111.481.241s.215.299.241.482z" fill="#000"/><path d="m242.732 130.755-5.055-1.773-4.662 1.773.525-6.175-.525-6.24 4.53 1.774 5.187-1.774-1.182 6.24z" stroke="#000" stroke-linecap="round" stroke-miterlimit="10" stroke-width=".861558"/><path d="m237.874 132.792c4.097 0 7.419-3.677 7.419-8.212 0-4.534-3.322-8.211-7.419-8.211-4.098 0-7.419 3.677-7.419 8.211 0 4.535 3.321 8.212 7.419 8.212z" stroke="#2c2770" stroke-miterlimit="10" stroke-width="1.72312"/><path d="m237.546 129.047c2.212 0 4.005-2 4.005-4.467s-1.793-4.466-4.005-4.466-4.005 1.999-4.005 4.466 1.793 4.467 4.005 4.467z" fill="#fff"/><path d="m154 178h-186c1.5419-23.695 12.0107-45.915 29.28199-62.149 17.27131-16.2347 40.05151-25.2686 63.71801-25.2686s46.447 9.0339 63.718 25.2686c17.271 16.234 27.74 38.454 29.282 62.149z" fill="#ffe75c"/><path d="m55.0597 127.47c-1.3201 3.841-3.6303 11.192-3.6303 11.192h10.4287c2.3102-8.278 2.9702-11.92 2.9702-11.92z" fill="#ff78b9"/><path d="m80.0093 138.464c.6878-.689 1.4924-1.25 2.3761-1.656l-3.2342-.596c-1.7161-.265-2.1121-.596-2.8382-1.258-5.1483-4.305-8.7125-2.98-18.3492-.928-8.7785-2.251-15.2469-4.238-18.3491-2.847s-1.7821 7.616 0 14.702 3.5642 13.642 3.5642 13.642h31.814c.3961-3.841-.33-10.662-1.056-15.43l3.5642.861c0-2.384.462-4.57 2.5082-6.49z" fill="#3442d9"/><path d="m45.687 131.046c3.3002.663 4.6863 4.305 5.7424 7.616 1.0561 3.312 4.4883 6.027 9.6366 4.702 5.1483-1.324 10.0987-4.437 5.5444-11.059-2.3102.265-5.0164.927-8.6466 1.722-4.8843-1.259-9.0426-2.451-12.2768-2.981z" fill="#fff"/><path d="m57.8977 142.768-.132 1.722c-.0331.47.038.94.2084 1.379.1703.438.4355.834.7765 1.157.3411.323.7493.566 1.1954.712.446.145.9187.19 1.384.13.4515-.08.8803-.258 1.2568-.52.3766-.263.6918-.604.924-1.001s.3758-.839.4209-1.297-.0093-.92-.1596-1.355l-.594-1.655z" fill="#fff"/><path d="m151.162 160.781h-116.6296c-.1672-.009-.3345.017-.491.077-.1565.059-.2986.152-.4171.271-.1184.118-.2104.261-.27.418-.0597.157-.0856.325-.076.493 0 .165.0325.329.0955.481.063.153.1554.292.2718.408.1165.117.2547.21.4069.273.1521.063.3152.096.4799.096h117.2896c-.198-.861-.396-1.656-.66-2.517z" fill="#ffc619"/><path d="m52.4853 137.404c2.4422 4.967 7.1945 5.762 11.6168 3.113s2.1121-7.351 1.7161-8.146c-2.1121.397-4.6203.596-7.8545 1.258-4.0923-1.059-7.7225-1.656-10.6927-2.252 1.4521.332 3.0362 1.59 5.2143 6.027z" fill="#ff78b9"/><path d="m42.3208 160.384c1.4521 8.477 2.5082 13.775 5.6104 14.702s6.8644-.861 11.2867-4.371c7.1284-5.695 10.7587-6.887 13.9929-6.821z" fill="#000"/><path d="m39.9445 131.046c-3.4322 1.126-5.2804 4.57-2.8382 10.133.396.795.528 1.126.66 3.377.132 2.252.5941 9.206 3.9603 20.398.792 2.847 2.1121 2.318 6.3364 1.92 4.2243-.397 23.4975-3.576 23.4975-3.576v-6.225l-22.0454-.331c-1.3861-8.61-2.5742-15.961-3.3662-19.669-.7921-3.709-2.3762-7.219-6.2044-6.027z" fill="#ff78b9"/><path d="m46.8752 137.073c-.792-3.643-3.1022-7.219-6.9304-6.027-3.8283 1.192-5.2804 4.57-2.8382 10.133.396.794.528 1.126.66 3.377.1686 3.003.5436 5.99 1.1221 8.941.0644-1.387.4958-2.732 1.2499-3.895.754-1.164 1.8035-2.106 3.0404-2.728l4.3563-2.119c1.056-.53-.264-5.894-.6601-7.682z" fill="#3442d9"/><path d="m73.739 140.649c-.132.066-.264.199-.198.331l.462 3.113.528.132-.462-3.311c-.03-.067-.0756-.127-.133-.173s-.125-.077-.197-.092z" fill="#000"/><path d="m59.2839 140.715v3.841c.0066.254.0667.503.1764.731s.2665.43.4599.593c.1935.163.4192.282.6623.351.243.069.4979.085.7476.047.2492-.035.4876-.125.6982-.264.2106-.138.3884-.321.5207-.536.1322-.215.2158-.456.2447-.707s.0024-.505-.0775-.745l-1.2541-3.973z" fill="#ff78b9"/><path d="m49.1192 156.676c-1.1881.529-3.0362 1.39-4.1583 3.112" stroke="#000" stroke-linecap="round" stroke-miterlimit="10" stroke-width=".938578"/><path d="m49.1194 154.49-2.4422-15.165c2.4422 2.119 3.6963 1.854 2.4422 15.165z" fill="#000"/><path d="m64.8282 126.742-7.5245.53.462.728 4.9504 7.351c1.6501-5.96 2.1121-8.609 2.1121-8.609z" fill="#000"/><path d="m47.4272 105.442c2.8284-.712 4.6245-3.274 4.0117-5.7221-.6127-2.4477-3.4023-3.854-6.2307-3.1412s-4.6245 3.2749-4.0118 5.7223c.6128 2.448 3.4024 3.854 6.2308 3.141z" fill="#000"/><path d="m41.3308 122.636c.726-5.894 3.5642-14.967 5.6763-19.868 4.6203-10.5958 6.8645-14.172 9.8347-14.172s5.8083 4.0398 10.0326 9.6689 9.1746 13.9071 11.5508 20.6621c1.4521 4.04 0 5.497-2.5082 6.292-2.5082.794-9.2406 2.251-16.3691 3.112-5.4961.662-11.0378.862-16.567.596-2.1782-.132-2.2442-2.252-1.6501-6.291z" fill="#ff78b9"/><path d="m60.0759 108 1.6501-1.258" stroke="#000" stroke-linecap="round" stroke-miterlimit="10" stroke-width=".938578"/><path d="m59.5479 107.868.462-1.987" stroke="#000" stroke-linecap="round" stroke-miterlimit="10" stroke-width=".938578"/><path d="m50.0432 100.98c.066-.331-.198-.596-.594-.662-.078 0-.1553.015-.2273.045-.0721.03-.1376.074-.1927.129-.0552.056-.099.122-.1288.194-.0299.072-.0452.15-.0452.228-.198 3.841-1.3861 6.159-4.0923 7.814-.198.53-.33 1.126-.528 1.656 3.8942-1.854 5.6103-4.636 5.8083-9.404z" fill="#000"/><path d="m52.8814 100.583c.0008-.165-.0596-.324-.1694-.447-.1099-.122-.2613-.199-.4246-.2155-.1603.0121-.312.0771-.4315.1845-.1194.108-.1998.253-.2286.412-.264 5.43-2.4421 8.476-7.6565 10.662-.1237.516-.278 1.025-.462 1.523 6.3364-2.384 9.0426-5.894 9.3726-12.119z" fill="#000"/><path d="m69.9106 107.47c2.4422.596 3.3003-.662 3.3003-.662" stroke="#000" stroke-linecap="round" stroke-miterlimit="10" stroke-width=".938578"/><path d="m65.9504 98.0662c3.1714 0 5.7423-2.5795 5.7423-5.7615 0-3.1821-2.5709-5.7616-5.7423-5.7616s-5.7424 2.5795-5.7424 5.7616c0 3.182 2.571 5.7615 5.7424 5.7615z" fill="#000"/><path d="m58.8879 92.1722c3.9005 0 7.0625-3.1726 7.0625-7.0861s-3.162-7.0861-7.0625-7.0861-7.0625 3.1726-7.0625 7.0861 3.162 7.0861 7.0625 7.0861z" fill="#000"/><path d="m49.6474 97.6026c3.5724 0 6.4684-2.9057 6.4684-6.49 0-3.5844-2.896-6.4901-6.4684-6.4901s-6.4684 2.9057-6.4684 6.4901c0 3.5843 2.896 6.49 6.4684 6.49z" fill="#000"/><path d="m47.601 102.57 6.7984-4.1064 11.5508-1.457v-7.1523l-10.5607-2.9139-6.2044 4.9669-2.8382 9.6687z" fill="#000"/><path d="m67.6004 92.3046c-.5941 1.5894-1.4521 3.5099-3.7623 4.3709" stroke="#0e156e" stroke-linecap="round" stroke-miterlimit="10" stroke-width=".938578"/><path d="m60.2738 85.6159c1.7821 2.9801 1.5841 8.0132-2.1122 11.9867" stroke="#0e156e" stroke-linecap="round" stroke-miterlimit="10" stroke-width=".938578"/><path d="m100.075 147.007c-.3963.463-1.1884.463-3.2345.265-1.4238-.167-2.8591-.211-4.2903-.133-2.9702.199-8.3165-.662-15.049-2.185 0-2.384.4621-4.57 2.5082-6.49.6878-.689 1.4924-1.25 2.3761-1.656l5.2804.927s-1.1221-10.066-2.5082-22.98l4.7523-1.788c3.2342 8.013 7.8545 20.463 9.3066 26.689 1.4524 6.225 1.3204 6.821.8584 7.351z" fill="#ff78b9"/><path d="m90.2397 113.695c-.132-.331 0-.596.462-1.192.5373-.591.9823-1.261 1.3201-1.986.264-.53.264-1.126.264-2.914s-.066-2.914-.594-3.643c-.5281-.728-2.7062-2.516-3.6963-3.377-.99-.8611-3.8282-2.9141-5.4123-3.9737s-2.6402-1.2583-3.6302-.4636c-.9901.7947-1.0561 1.9868-1.4521 4.6353-.198 1.06-.198.928-1.4521 2.252-1.2541 1.325-.8581 1.59-.462 1.987.396.397 1.7821.397 2.9041-.662.6053-.52 1.0987-1.158 1.4505-1.875.3517-.718.5544-1.499.5957-2.298l1.122.729c-.4914 1.243-.867 2.529-1.122 3.841-.066.662.066 1.391.792 2.649-1.5181-.927-2.8382-2.119-4.1582-1.589-1.3201.529-1.2541 2.053-.2641 2.847.9901.795 2.6402 2.119 3.0362 2.517.3961.397.5281.795.7921 1.788s.462 2.516 3.1022 2.649c.66.066 1.4521-.133 1.5181.397l.132 1.325 5.2143-2.384z" fill="#ff78b9"/><path d="m71.5605 115.086c-1.8481.331-2.5742-1.457-2.9702-3.377-.396-1.921-.858-5.365-.264-5.894.594-.53 1.3861.132 2.4421 2.185 1.0561 2.053 3.4983 6.689.7921 7.086z" fill="#fff"/><path d="m59.2179 116.94c2.4422.332 3.8942-1.788 3.8282-3.708-.2276-1.965-1.0057-3.825-2.2441-5.364-.9241-.994-2.9042-1.06-3.9602 1.523-1.0561 2.583-2.2442 6.953 2.3761 7.549z" fill="#fff"/><path d="m64.7622 121.377c-.1693-.353-.2516-.742-.2401-1.133.0114-.392.1164-.776.3061-1.118.7921-1.457 1.9141-2.252 3.2342-2.186 1.3201.067 2.1782 1.06 1.3201 3.047 1.6501 1.589.8581 2.914-.792 3.311s-2.9042.132-3.8283-1.921z" fill="#eb459f"/><path d="m45.1591 107.603c1.2541-3.378 4.6863-5.431 7.9865-7.02 3.3002-1.5896 12.5408-4.2386 15.049-.53.33-.1987.198-.4636 0-.9934-.372-.6693-.791-1.3111-1.2541-1.9205-2.2442-2.7815-10.2967-1.5894-14.587.8609-4.2902 2.45-5.6103 4.503-6.4024 6.424-.792 1.92-1.3201 2.781-.792 3.179z" fill="#312cc7"/><path d="m68.3263 118.795c-.1759.388-.4524.722-.8006.967-.3483.244-.7556.391-1.1795.423" stroke="#000" stroke-linecap="round" stroke-miterlimit="10" stroke-width=".938578"/><path d="m68.2606 120.583-.66-.861" stroke="#000" stroke-linecap="round" stroke-miterlimit="10" stroke-width=".938578"/><path d="m87.4019 137.934.2633 2.914" stroke="#000" stroke-linecap="round" stroke-miterlimit="10" stroke-width=".938578"/><path d="m84.9596 109.854h2.8382c.3057-.005.6009-.113.8396-.304.2388-.192.4077-.457.4804-.755l.3961-1.325c.066-.132 0-.331-.132-.331-.0312-.032-.0721-.052-.1162-.057-.044-.006-.0886.003-.1267.026s-.0674.058-.0832.1-.0172.087-.004.13l-.462 1.324c-.0315.187-.1286.357-.2739.478-.1453.122-.3291.187-.5181.185h-2.8382c-2.3102 0-2.4422-.133-3.6303-1.921l-1.122-.728.594.86c1.3861 2.053 1.6501 2.318 4.1583 2.318z" fill="#000"/><path d="m85.9496 109.854h1.056c.07 0 .1372-.028.1867-.077.0495-.05.0773-.117.0773-.188 0-.07-.0278-.137-.0773-.187s-.1167-.078-.1867-.078h-1.056c-.2532-.004-.4998-.081-.7104-.222-.2107-.141-.3765-.339-.4777-.572l-.6601-1.391c-.3106-.64-.358-1.378-.132-2.053.5941-1.589 1.4521-3.841 1.5841-4.371s.4621-.8607.7921-.927c.3729-.0524.7516.0426 1.056.265l-.594-.3974c-.1052-.0974-.2314-.1689-.3688-.2089-.1375-.04-.2823-.0475-.423-.0218-.1408.0257-.2737.0838-.3883.1698s-.2077.1975-.272.3258c-.1127.1865-.2014.3865-.264.5965l-1.5841 4.437c-.1569.393-.2264.816-.2036 1.239.0228.424.1373.837.3356 1.211l.6601 1.391c.1418.319.3736.589.6669.777.2932.189.635.287.9832.282z" fill="#000"/><path d="m87.5337 106.742 2.9702.794" stroke="#000" stroke-linecap="round" stroke-miterlimit="10" stroke-width=".938578"/><path d="m84.8275 98.1987c-.616-.3974-1.0781-.5298-1.3861-.3974-.66.2649-1.1881 1.3245-1.7821 3.1127l-.462-.331c.66-1.9208 1.122-2.9804 1.9801-3.2453.086-.0368.1802-.0501.2729-.0385.0928.0117.1809.0478.2551.1048z" fill="#000"/><path d="m85.7515 115.351 1.7821.066" stroke="#000" stroke-linecap="round" stroke-miterlimit="10" stroke-width=".938578"/><path d="m110.701 136.212c-.264.596-2.772.265-3.102.927s1.716 2.252 1.452 2.914-2.838.265-3.102.927 1.65 2.318 1.32 2.914-2.772.132-3.102.728c-.33.597 1.386 2.517 1.056 3.113s-2.838-.331-3.234.199.528 2.914 0 3.245-1.782-1.788-2.4425-1.855c-.66-.066-2.2441 1.789-2.8382 1.259-.594-.53.7921-2.583.33-3.245-.462-.663-2.7721.53-3.3002.132-.528-.397-.528-3.046-1.2541-3.112-.726-.067-1.188 2.384-1.9141 2.715-.726.331-2.5741-1.457-3.2342-.927-.66.529.462 2.781-.132 3.377s-2.8382-.596-3.3662 0 .9901 2.782.528 3.378c-.462.596-2.9042-.199-3.3662.463s1.1881 2.649.7261 3.311c-.4621.663-2.9042-.132-3.3002.596-.3961.729 1.254 2.583.858 3.246" stroke="#fff" stroke-linecap="round" stroke-miterlimit="10" stroke-width="2.34644"/><path d="m69.8446 157.007c1.5889-.124 3.084-.804 4.2242-1.921 1.8433-1.733 3.3436-3.801 4.4223-6.093.1064-.207.2569-.388.4409-.53.1839-.142.3968-.242.6235-.293.2267-.05.4618-.05.6884 0 .2267.051.4395.151.6234.294.528.463.66 1.258-1.3201 6.092 3.0362 1.259 3.2342 1.523 4.9503 3.444.8581.927.528 1.523-.198 2.45-.2476.339-.5781.609-.9595.783-.3815.174-.8012.247-1.2187.211-.99 2.582-1.9141 4.834-2.9041 6.159-.9901 1.324-1.2541 1.457-2.1782 1.457-2.1781 0-2.9042-.398-3.0362-1.855-2.1781-.397-3.0362-1.059-3.3662-2.119l-.33-.993c-.0155-.08-.0469-.155-.0923-.221-.0454-.067-.1038-.124-.1717-.167-.0679-.044-.1439-.073-.2233-.086s-.1607-.009-.2388.01l-1.8481.265z" fill="#ff78b9"/><path d="m117.794 132.609c3.445-7.549 3.712-14.829.596-16.26s-8.434 3.528-11.878 11.077c-3.445 7.549-3.712 14.829-.596 16.26 3.115 1.431 8.433-3.528 11.878-11.077z" fill="#3895f2"/><path d="m114.331 121.377 1.321-1.192-3.037-1.854c-.56.52-1.089 1.073-1.584 1.656z" fill="#fff"/><path d="m120.206 118.993c-.051-.274-.168-.532-.34-.751-.173-.22-.396-.393-.65-.507-2.904-1.258-7.855 3.444-10.957 10.464s-3.366 13.642-.462 14.9l.33.133c.493.104 1.006.034 1.452-.199 2.772-1.656 5.941-5.629 8.185-10.728 2.244-5.1 3.234-10.265 2.442-13.312z" fill="#8cd9ff"/><path d="m62.2867 114.214c.2226-1.149-.1481-2.188-.828-2.321-.6799-.132-1.4115.692-1.6341 1.841-.2225 1.148.1482 2.187.8281 2.32s1.4114-.691 1.634-1.84z" fill="#000"/><path d="m71.9198 114.353c.5243-.156.7227-1.05.4432-1.997-.2796-.946-.9312-1.588-1.4555-1.432-.5242.156-.7226 1.05-.4431 1.997s.9312 1.588 1.4554 1.432z" fill="#000"/><path d="m68.3264 105.815c-.264.264-.33 1.125-.264 2.185.6826-.436 1.4459-.729 2.2441-.861-.792-1.324-1.4521-1.722-1.9801-1.324z" fill="#d11583"/><path d="m72.8806 105.219c-.0505.608-.332 1.175-.7864 1.581-.4545.407-1.0472.623-1.6558.604h-.132c-.8114.08-1.5864.378-2.2441.861v-.596c.6337-.425 1.3565-.697 2.1121-.795h.066c.9901-.066 1.9141-.331 2.1121-1.722-.0132-.042-.0118-.088.004-.13.0158-.041.0451-.076.0832-.099s.0827-.033.1267-.027c.0441.006.085.026.1162.058.132 0 .198.132.198.265z" fill="#000"/><path d="m70.1086 107.139c.7921-.728.7261-1.324.5941-2.185" stroke="#000" stroke-linecap="round" stroke-miterlimit="10" stroke-width=".938578"/><path d="m74.9928 105.483h-3.2343" stroke="#000" stroke-linecap="round" stroke-miterlimit="10" stroke-width="3.75431"/><path d="m80.6694 106.013h-5.2144c-.1351-.014-.2612-.075-.3573-.171s-.1564-.223-.1707-.359c0-.14.0556-.275.1547-.374.099-.1.2333-.155.3733-.155h5.0824c-.044.358.0013.722.132 1.059z" fill="#fff"/><path d="m61.1979 108.265-.396-.397c-.7921-.928-2.5082-1.06-3.6303.86z" fill="#d11583"/><path d="m74.5308 165.947c-.6362 1.082-1.3418 2.122-2.1121 3.113" stroke="#000" stroke-linecap="round" stroke-miterlimit="10" stroke-width="2.81573"/><path d="m72.4186 170.649c.802 0 1.4521-.652 1.4521-1.457s-.6501-1.457-1.4521-1.457c-.8019 0-1.452.652-1.452 1.457s.6501 1.457 1.452 1.457z" fill="#57f287"/><path d="m80.1412 166.079c.1243-.246.148-.531.066-.794-.1271-.322-.2817-.632-.462-.927v-.199l-.99-1.722c-.0438-.061-.1101-.103-.1844-.115-.0743-.013-.1504.005-.2117.049-.0612.044-.1026.11-.115.185-.0124.074.0053.151.049.212.3452.53.654 1.084.9241 1.656l.132.199c.528.993.858 1.589 0 2.913.3063-.461.5713-.948.792-1.457z" fill="#000"/><path d="m82.1214 161.444h.594c.0653-.35.0518-.71-.0396-1.054-.0914-.343-.2583-.662-.4884-.933l-.2641-.464-.924-1.655c-.0197-.033-.0462-.061-.0778-.083-.0315-.021-.0674-.036-.105-.042-.0377-.006-.0762-.004-.113.006s-.071.028-.1002.053c-.1321.066-.1321.198-.066.331l.924 1.655.264.464c.209.228.3554.506.4249.808.0694.302.0594.617-.0288.914z" fill="#000"/><path d="m82.2532 160.053h1.188" stroke="#000" stroke-linecap="round" stroke-miterlimit="10" stroke-width=".938578"/><path d="m74.9927 165.682c.4194.837 1.0032 1.581 1.7161 2.186" stroke="#000" stroke-linecap="round" stroke-miterlimit="10" stroke-width=".938578"/><path d="m128.324 140.715c-.519-.013-1.03.132-1.466.415-.436.284-.776.693-.976 1.175l-7.788 17.152h-1.452l7.788-17.152c.2-.482.54-.891.976-1.175.436-.283.947-.428 1.466-.415z" fill="#000"/><path d="m103.507 158.596h33.926v2.185h-32.408c-.199 0-.397-.039-.581-.115-.184-.077-.352-.189-.493-.331-.14-.141-.252-.309-.329-.494-.076-.185-.115-.383-.115-.583z" fill="#fff"/><path d="m152.284 140.715h-23.96c-.519-.013-1.03.132-1.466.415-.436.284-.776.693-.976 1.175l-8.382 18.476h25.675c.526.001 1.04-.148 1.484-.429.444-.282.799-.684 1.025-1.16l7.59-16.954c.08-.164.116-.347.105-.53-.012-.183-.07-.359-.17-.513-.099-.153-.237-.278-.399-.362s-.344-.125-.526-.118z" fill="#fff"/><path d="m136.679 152.32c1.045-.912 1.33-2.3.637-3.101-.694-.8-2.103-.71-3.149.202-1.045.912-1.331 2.3-.637 3.1.694.801 2.103.711 3.149-.201z" fill="#ffd73b"/><path d="m145.023 134.556h-10.098c-1.131 0-2.047.919-2.047 2.053v.02c0 1.134.916 2.053 2.047 2.053h10.098c1.13 0 2.046-.919 2.046-2.053v-.02c0-1.134-.916-2.053-2.046-2.053z" fill="#2b2854"/><path d="m141.657 140.715h-5.016l.264-3.775h3.432z" fill="#2b2854"/><path d="m145.023 134.556h-7.59c-1.13 0-2.046.919-2.046 2.053v.02c0 1.134.916 2.053 2.046 2.053h7.59c1.13 0 2.046-.919 2.046-2.053v-.02c0-1.134-.916-2.053-2.046-2.053z" fill="#000"/><path d="m144.231 140.715h-5.016l-1.32-3.775h5.016z" fill="#000"/><path d="m55.0499 121.912c.6143-.517.4285-1.754-.415-2.763s-2.0254-1.407-2.6397-.89c-.6144.517-.4286 1.754.415 2.763.8435 1.009 2.0254 1.407 2.6397.89z" fill="#f07" opacity=".3"/><path d="m75.8511 112.901c-.462.265-.792 1.192-.726 2.251.066 1.06.594 2.384 1.1881 2.384.594 0 .858-.596.99-1.457.132-.86-.924-2.119-1.4521-3.178z" fill="#f07" opacity=".3"/><path d="m172 119.997c33.137 0 60-26.8623 60-59.9985 0-33.1363-26.863-59.9985-60-59.9985s-60 26.8622-60 59.9985c0 33.1362 26.863 59.9985 60 59.9985z" fill="#5865f2"/><path d="m172 0-55 83.9562c4.668 10.705 12.358 19.8148 22.127 26.2138 9.77 6.398 21.195 9.806 32.873 9.806 11.679 0 23.103-3.408 32.873-9.806 9.77-6.399 17.46-15.5088 22.127-26.2138z" fill="url(#a)"/><path d="m145.472 113.817c8.252 4.068 17.329 6.183 26.528 6.183 9.2 0 18.276-2.115 26.528-6.183v-13.8189h-53.056z" fill="#221ea6"/><path d="m200.264 102.359c0 2.708-12.708 5.764-28.264 5.764-15.555 0-28.264-3.056-28.264-5.764v-2.3609h56.528z" fill="#312cc7"/><path d="m172 104.929c15.61 0 28.264-2.208 28.264-4.9309 0-2.723-12.654-4.9304-28.264-4.9304-15.609 0-28.264 2.2074-28.264 4.9304 0 2.7229 12.655 4.9309 28.264 4.9309z" fill="#ffd73b"/><path d="m145.542 95.276-1.737 4.3055h6.875v-4.3055z" fill="#ffd73b"/><path d="m198.458 95.276 1.667 4.3055h-6.805v-4.3055z" fill="#ffd73b"/><path d="m172 100.206c14.651 0 26.528-2.0516 26.528-4.5828 0-2.5313-11.877-4.5832-26.528-4.5832s-26.528 2.0519-26.528 4.5832c0 2.5312 11.877 4.5828 26.528 4.5828z" fill="#fff"/><path d="m172 97.3593c5.715 0 10.347-1.1192 10.347-2.4999s-4.632-2.5-10.347-2.5-10.347 1.1193-10.347 2.5 4.632 2.4999 10.347 2.4999z" fill="#ff78b9"/><path d="m194.778 52.5687c1.736 2.2222 1.527 4.9999-.486 6.111-2.014 1.1111-5 .1389-6.598-2.1527-1.597-2.2916-1.319-4.7916.556-5.8332 1.875-1.0417 4.792-.2778 6.528 1.8749z" fill="#242145"/><path d="m200.958 58.1242c1.875 2.4305 1.25 5.4165-1.111 6.1804-2.361.7638-5.208-.8333-6.597-3.4027s-.695-4.9999 1.389-5.6249c2.083-.6249 4.583.4861 6.319 2.8472z" fill="#242145"/><path d="m172 86.3873c12.925 0 23.403-9.3582 23.403-20.9022s-10.478-20.9023-23.403-20.9023-23.403 9.3583-23.403 20.9023 10.478 20.9022 23.403 20.9022z" fill="#fff"/><path d="m186.861 57.5686c.163 5.7806-.349 11.5603-1.528 17.2218h1.528c1.571-5.7864 2.135-11.7998 1.667-17.7773-.278-3.3332-1.667-8.9581-5-10.4164l-1.736-.625c3.68 1.25 4.93 7.0137 5.069 11.5969z" fill="#ffd73b"/><path d="m164.222 60.2769c1.042 7.0832-.278 17.1524-.278 17.1524h2.223c.938-5.6771.962-11.4679.069-17.1524-1.944-11.9441-7.639-12.7774-9.653-11.6664l-.833.625c2.847-2.0832 7.431 3.9583 8.472 11.0414z" fill="#ffd73b"/><path d="m183.805 89.0956c0 2.6389-2.152 6.5971-11.805 6.5971s-11.806-3.9582-11.806-6.5971c0-2.6388 5.278-4.7915 11.806-4.7915s11.805 1.25 11.805 4.7915z" fill="#3442d9"/><path d="m185.194 82.9152c0 2.6389-2.361 6.5971-13.194 6.5971s-13.264-3.9582-13.264-6.5971c0-2.6388 5.972-4.7915 13.264-4.7915s13.194 1.4583 13.194 4.7915z" fill="#312cc7"/><path d="m172 75.1377c-12.43 0-22.569-3.7499-23.264-7.3609 1.25 10.4858 11.181 18.6106 23.264 18.6106 12.084 0 21.945-8.1248 23.264-18.6106-.694 3.611-10.833 7.3609-23.264 7.3609z" fill="#000"/><path d="m172 74.2349c-12.43 0-22.569-2.8471-23.264-6.4581.158 1.1023.39 2.1927.695 3.2638 1.805 3.4027 11.25 6.0415 22.569 6.0415 11.32 0 20.695-2.6388 22.57-6.0415.304-1.0711.536-2.1615.694-3.2638-.694 3.611-10.833 6.4581-23.264 6.4581z" fill="#3f99f2"/><path d="m172 16.2502c-2.156.0012-4.287.4717-6.243 1.3789-1.957.9072-3.692 2.2293-5.087 3.8745-1.394 1.6453-2.413 3.5742-2.987 5.6529-.574 2.0788-.688 4.2575-.336 6.385.819 4.848 2.145 9.5963 3.959 14.1663.486 1.2499 5.069 2.1527 10.694 2.1527s10.208-.9028 10.625-2.1527c1.835-4.568 3.185-9.3162 4.028-14.1663.353-2.1275.238-4.3062-.336-6.385-.574-2.0787-1.593-4.0076-2.987-5.6529-1.394-1.6452-3.13-2.9673-5.086-3.8745-1.957-.9072-4.087-1.3777-6.244-1.3789z" fill="#fff"/><path d="m157.139 53.8188c-1.319 2.6388-3.819 4.7915-5.069 4.0276-1.25-.7638-.348-3.4027 1.25-5.4859 1.597-2.0833 2.847-2.7083 3.75-2.4305.902.2777 1.041 1.8055.069 3.8888z" fill="#242145"/><path d="m157.417 50.1383c-.977-.7562-2.18-1.1607-3.415-1.1481s-2.43.4416-3.391 1.2175c-2.431 1.875-3.819 5.4166-3.056 9.2359.764 3.8194 4.514-1.5972 4.514-1.5972z" fill="#242145"/><path d="m148.736 55.2771c-2.917.2083-7.222 2.7082-6.944 6.8053.277 4.0972 4.305 3.8194 6.944 1.8056 2.639-2.0139 4.167-4.7222 4.028-7.0138s-1.945-1.8055-4.028-1.5971z" fill="#242145"/><path d="m153.181 57.9159h-.486c.057-.3674.08-.7394.069-1.1111-.014-.2728-.099-.5374-.245-.7684-.145-.231-.348-.4207-.588-.551-.019 0-.037-.0036-.054-.0106-.016-.0069-.032-.0172-.045-.0301-.012-.0129-.023-.0282-.03-.045-.007-.0169-.01-.0349-.01-.0532v-.1389h.069c.07-.0694.139-.1388.209-.0694.337.1528.626.3957.834.702s.328.6641.346 1.0341c.011.3486-.012.6975-.069 1.0416z" fill="#000"/><path d="m145.194 73.1933c2.877 0 5.209-2.3318 5.209-5.2082 0-2.8765-2.332-5.2082-5.209-5.2082-2.876 0-5.208 2.3317-5.208 5.2082 0 2.8764 2.332 5.2082 5.208 5.2082z" fill="#242145"/><path d="m148.875 63.749c-1.02-.9434-2.36-1.4646-3.75-1.4583-1.096-.0101-2.167.3306-3.055.9722.002.1715.05.3392.138.4861.844-.6266 1.866-.9672 2.917-.9722.615-.0114 1.227.0993 1.799.3258s1.094.5642 1.534.9936l.278-.2083z" fill="#000"/><path d="m150.055 72.846c3.222 0 5.834-2.6116 5.834-5.8332 0-3.2215-2.612-5.8331-5.834-5.8331-3.221 0-5.833 2.6116-5.833 5.8331 0 3.2216 2.612 5.8332 5.833 5.8332z" fill="#242145"/><path d="m144.222 67.0129c-.09-.8242-.005-1.6581.249-2.4473.254-.7893.672-1.5161 1.225-2.1333.554-.6172 1.231-1.1108 1.988-1.4488.757-.3379 1.577-.5126 2.406-.5126s1.649.1747 2.406.5126c.757.338 1.435.8316 1.988 1.4488.554.6172.971 1.344 1.225 2.1333.254.7892.339 1.6231.249 2.4473" stroke="#000" stroke-linecap="round" stroke-miterlimit="10" stroke-width=".811127"/><path d="m199.5 72.1517c3.298 0 5.972-2.6738 5.972-5.9721s-2.674-5.972-5.972-5.972-5.972 2.6737-5.972 5.972 2.674 5.9721 5.972 5.9721z" fill="#242145"/><path d="m202.069 60.8325c-.069-.2083-.069-.4167-.139-.625-.754-.285-1.555-.4263-2.361-.4166-1.014-.0104-2.014.2317-2.911.7045-.898.4728-1.663 1.1614-2.228 2.0037l.348.3472c.513-.8067 1.22-1.4712 2.058-1.9324.837-.4612 1.777-.7041 2.733-.7064.873-.0074 1.734.2077 2.5.625z" fill="#000"/><path d="m194.431 68.0545c3.03 0 5.486-2.4561 5.486-5.486 0-3.0298-2.456-5.4859-5.486-5.4859s-5.486 2.4561-5.486 5.4859c0 3.0299 2.456 5.486 5.486 5.486z" fill="#242145"/><path d="m194.43 57.0131c.777-.0872 1.564-.0095 2.309.2281s1.431.6298 2.014 1.1509 1.049 1.1594 1.369 1.8731c.319.7137.484 1.4868.484 2.2686 0 .7819-.165 1.555-.484 2.2687-.32.7137-.786 1.352-1.369 1.8731s-1.269.9132-2.014 1.1509c-.745.2376-1.532.3153-2.309.228" stroke="#000" stroke-linecap="round" stroke-miterlimit="10" stroke-width=".811127"/><path d="m176.861 55.4853c.259-1.0272.445-2.0714.556-3.1249 0-.0553-.022-.1082-.061-.1473s-.092-.061-.147-.061c-1.628.2882-3.278.4277-4.931.4166-.139 0-.208.0695-.139.2083l1.806 2.9861c.23 3.1199.253 6.2517.069 9.3747 0 .1389.07.2084.139.2084 1.651.0576 3.304-.0588 4.93-.3472l.139-.2084c-.416-4.0276-1.25-7.3609-2.361-9.3053z" fill="#57f287"/><path d="m172 49.9299c5.906 0 10.694-1.0571 10.694-2.3611 0-1.3039-4.788-2.361-10.694-2.361-5.907 0-10.695 1.0571-10.695 2.361 0 1.304 4.788 2.3611 10.695 2.3611z" fill="#000"/><path d="m183.25 45.9717v.2778l-.625 1.4583c-.417 1.25-5.069 2.1527-10.625 2.1527-2.445.0363-4.888-.1731-7.292-.625-1.875-.3472-3.125-.9027-3.402-1.5277-.155-.4972-.341-.9842-.556-1.4583v-.2778c0-1.3194 5.069-2.4305 11.319-2.4305s11.181 1.1111 11.181 2.4305z" fill="#5562f2"/><path d="m172 48.124c-6.806 0-11.042-1.2499-11.042-2.1527 0-.9027 4.236-2.1527 11.042-2.1527 6.805 0 10.972 1.25 10.972 2.1527 0 .9028-4.167 2.1527-10.972 2.1527z" fill="#000"/><path d="m172 44.0968c6.736 0 10.625 1.25 10.694 1.8749.07.625-3.958 1.875-10.694 1.875s-10.625-1.25-10.764-1.875c-.139-.6249 4.028-1.8749 10.764-1.8749zm0-.5556c-6.25 0-11.32 1.1111-11.32 2.4305s5.07 2.4305 11.32 2.4305 11.25-1.0416 11.25-2.4305c0-1.3888-5-2.4305-11.25-2.4305z" fill="#99a1ff"/><path d="m173.528 45.9718v.1388l-1.111.1389-1.111-.1389c-.025-.0281-.045-.0611-.057-.097-.011-.0358-.016-.0737-.013-.1113.179-2.8772-.472-5.7451-1.875-8.2637-.134-.2896-.159-.618-.069-.9245.089-.3064.286-.5701.555-.7421.28-.1301.597-.1524.892-.0627s.546.2852.706.5488c1.584 2.9089 2.307 6.2089 2.083 9.5137z" fill="#eb459f"/><path d="m177.764 32.8471c-.903.6944-2.292 2.4999-1.458 4.3054l-2.014-.1389-3.125-1.3194-1.32-2.0833-.347-2.5694.556-1.1805 1.388-.1389 3.473 2.3611z" fill="#000"/><path d="m182.347 33.1248c.031.1807.021.3659-.028.5425s-.136.3403-.255.4794c-.12.1392-.268.2504-.435.3258s-.349.1132-.532.1106c-1.111.1389-1.528-.1389-1.736-.4861-.251.2699-.576.46-.934.5465-.358.0864-.734.0654-1.08-.0604-.764-.3472-1.25-.7639-.972-1.6666.278-.9028 5.972.2083 5.972.2083z" fill="#8cd9ff"/><path d="m172.139 30.5555c-.486.8333.139 1.4583 1.25 2.0833 1.111.6249 1.528-.7639 1.528-.7639z" fill="#8cd9ff"/><path d="m172.139 33.6109c.903-.5556 2.083.1389 2.569 1.3194.227.6493.556 1.2586.973 1.8055h-2.292l-2.083-1.3889z" fill="#57f287"/><path d="m169.917 32.2221c1.111-.2778 2.5.625 3.333 2.9166l.833 2.2916-3.611-1.9444-.972-2.1527z" fill="#57f287"/><path d="m169.917 32.2221c1.111-.2778 2.5.625 3.333 2.9166l.833 2.2916" stroke="#000" stroke-linecap="round" stroke-miterlimit="10" stroke-width=".856299"/><path d="m181.583 38.4719c.235-.0592.451-.1789.625-.3472.278-.2778.348-.7639-.347-1.4583-.694-.6945-3.958-.625-5.139-.3473-.915.296-1.895.3292-2.828.096s-1.781-.7236-2.45-1.4154c-1.319-1.2499-1.25-3.4027-1.18-4.0971.069-.6944.555-.9027 1.666-.2083 4.237 2.6388 6.112 3.2638 8.681 3.3332 2.57.0695 2.847-.8333 2.917-1.111.045-.1888.036-.3863-.025-.5703-.062-.1841-.173-.3473-.322-.4714l-1.598.8333-5.069-1.1111-4.584-2.7082-2.291-.1389-1.042 2.5694.972 3.8193 2.57 2.2222 3.68.6944 4.375-.8333 1.181.5555z" fill="#eb459f"/><path d="m183.042 32.2915c1.041-1.875.763-3.8888-1.737-5.3471.487-2.7777-.625-4.9304-4.513-4.9999-.903-2.2916-3.403-2.6388-5.417-2.4999-.776-.0027-1.536.2187-2.189.6376-.653.4188-1.171 1.0173-1.492 1.7235-3.889-.0695-6.736 1.5277-6.458 5.2776-1.944 1.1805-2.569 3.8888-1.181 5.5554-1.388 3.1249 1.737 5.1388 4.028 5.486.625 3.1943 3.195 5.486 7.222 4.3749 1.189.5697 2.512.7998 3.823.665 1.312-.1348 2.56-.6293 3.608-1.4289 2.778.2083 3.542-1.4583 3.194-3.2638-.03-.2238-.108-.4385-.228-.63-.119-.1916-.278-.3555-.466-.4811-.972-.625-2.431-.4166-4.097-.0694-3.334.6944-5.972-.2084-7.361-2.9166-.764-1.3889-.973-3.7499-.139-4.861.833-1.1111 2.222-.1389 3.68.7639 2.778 1.736 6.389 3.4721 9.098 2.4999.26-.0798.483-.2528.625-.4861z" fill="#ff78b9"/><path d="m183.042 32.2915c1.041-1.875.763-3.8888-1.737-5.3471.487-2.7777-.625-4.9304-4.513-4.9999-.903-2.2916-3.403-2.6388-5.417-2.4999-.776-.0027-1.536.2187-2.189.6376-.653.4188-1.171 1.0173-1.492 1.7235-3.889-.0695-6.736 1.5277-6.458 5.2776-1.944 1.1805-2.569 3.8888-1.181 5.5554-1.388 3.1249 1.737 5.1388 4.028 5.486.625 3.1943 3.195 5.486 7.222 4.3749 1.189.5697 2.512.7998 3.823.665 1.312-.1348 2.56-.6293 3.608-1.4289 2.778.2083 3.542-1.4583 3.194-3.2638-.03-.2238-.108-.4385-.228-.63-.119-.1916-.278-.3555-.466-.4811-.972-.625-2.431-.4166-4.097-.0694-3.334.6944-5.972-.2084-7.361-2.9166-.764-1.3889-.973-3.7499-.139-4.861.833-1.1111 2.222-.1389 3.68.7639 2.778 1.736 6.389 3.4721 9.098 2.4999.26-.0798.483-.2528.625-.4861z" fill="#ff78b9"/><path d="m178.111 23.7492.833-.6241" stroke="#000" stroke-linecap="round" stroke-miterlimit="10" stroke-width=".856299"/><path d="m178.528 24.0276 1.18-.1387" stroke="#000" stroke-linecap="round" stroke-miterlimit="10" stroke-width=".856299"/><path d="m171.236 21.8056.209-1.1111" stroke="#000" stroke-linecap="round" stroke-miterlimit="10" stroke-width=".856299"/><path d="m172.07 21.8057.486-1.0417" stroke="#000" stroke-linecap="round" stroke-miterlimit="10" stroke-width=".856299"/><path d="m172.625 21.9445.833-.7638" stroke="#000" stroke-linecap="round" stroke-miterlimit="10" stroke-width=".856299"/><path d="m175.889 22.5002c-.03-.0623-.083-.111-.147-.1367s-.136-.0265-.2-.0022c-.07.1389-.139.2777-.07.3472.767 1.3223.991 2.8907.625 4.3749-.036.1127-.036.2342.002.3467.037.1124.11.2099.206.2783.492.3608.906.8176 1.216 1.3428s.511 1.1078.59 1.7126c.098.5935 0 1.2028-.278 1.7361l.417.1389c.357-.5815.504-1.2677.417-1.9444-.241-1.32-.958-2.5058-2.014-3.3333-.041-.0356-.065-.0853-.07-.1388.207-.7935.252-1.6204.133-2.4317-.119-.8112-.401-1.5902-.827-2.2904z" fill="#000"/><path d="m170.681 27.7778c.131.4273.155.8806.069 1.3194h.486c.136-.5328.087-1.0958-.139-1.5972-.555-1.0416-1.944-1.6666-3.472-2.1527s-2.431-.9722-2.778-1.8055-.139-.2083-.278-.1389c-.138.0694-.208.1389-.138.2778.416 1.1805 1.041 1.5277 3.055 2.1527s2.708 1.0416 3.195 1.9444z" fill="#000"/><path d="m165.958 32.5692h.139l.209-.1388c.024-.0648.023-.1363-.003-.2005-.025-.0642-.074-.1166-.136-.1467-4.167-1.9444-4.792-3.5416-4.931-4.9999l-.486.3472c.208 1.4583 1.111 3.1249 5.208 5.1387z" fill="#000"/><path d="m169.222 39.1663h.139c.139 0 .208-.0694.208-.1388 0-.0695.07-.2778-.069-.3473l-2.014-1.111h-.417c-.925.4554-1.958.6476-2.986.5555.014.1918.061.3798.139.5555 1.053.0261 2.098-.1876 3.056-.6249z" fill="#000"/><path d="m179.5 41.7357c.509-.5844.825-1.3122.903-2.0832.102-.9474-.118-1.9015-.625-2.7083h-.625c.551.7389.822 1.6495.764 2.5694-.118.8374-.538 1.6028-1.181 2.1527h.764z" fill="#000"/><path d="m161.305 34.3748h.139l.209-.1389c.024-.0648.023-.1363-.003-.2005-.025-.0642-.074-.1165-.136-.1467-.536-.3813-1.026-.8241-1.458-1.3195l-.209.5556c.422.4863.913.9075 1.458 1.25z" fill="#000"/><path d="m174.43 26.4583c-.416.0695-.833-.2777-1.18-.9722-.375-.7836-.95-1.4543-1.667-1.9444-1.18-.8333-.903-1.6666-.347-2.0138s2.292-.2083 3.194 1.25c.903 1.4583.973 3.4721 0 3.6804z" fill="#fff"/><path d="m178.973 27.3763c.707-.1775 1.06-1.1959.789-2.2746s-1.064-1.8092-1.77-1.6317c-.707.1775-1.06 1.1959-.789 2.2746.27 1.0787 1.063 1.8092 1.77 1.6317z" fill="#fff"/><path d="m174.014 24.0973c.208-.0694.556.2083.625.9028.069.6944-.208.8333-.347.8333s-.209-.2778-.278-.6945c-.069-.4166-.347-.9027 0-1.0416z" fill="#000"/><path d="m179.293 26.2226c.024-.4596-.174-.8436-.442-.8576-.268-.0141-.505.3471-.529.8067s.173.8436.442.8576c.268.0141.504-.3471.529-.8067z" fill="#000"/><path d="m166.167 24.9306.347-1.3194" stroke="#000" stroke-linecap="round" stroke-miterlimit="10" stroke-width=".856299"/><path d="m164.779 31.8749-.14.7638" stroke="#000" stroke-linecap="round" stroke-miterlimit="10" stroke-width=".856299"/><path d="m184.57 27.9166c.421 0 .763-.342.763-.7638 0-.4219-.342-.7639-.763-.7639-.422 0-.764.342-.764.7639 0 .4218.342.7638.764.7638z" fill="#8cd9ff"/><path d="m163.528 42.9162c.268 0 .486-.2176.486-.4861 0-.2684-.218-.4861-.486-.4861-.269 0-.486.2177-.486.4861 0 .2685.217.4861.486.4861z" fill="#8cd9ff"/><path d="m163.25 24.0973c.575 0 1.042-.4664 1.042-1.0417 0-.5752-.467-1.0416-1.042-1.0416s-1.042.4664-1.042 1.0416c0 .5753.467 1.0417 1.042 1.0417z" fill="#8cd9ff"/><path d="m156.93 70.2072c3.184 0 5.764-2.5805 5.764-5.7637s-2.58-5.7637-5.764-5.7637c-3.183 0-5.763 2.5805-5.763 5.7637s2.58 5.7637 5.763 5.7637z" fill="#242145"/><path d="m151.583 61.3186c-.556.9466-.844 2.0269-.833 3.1249-.001 1.0897.28 2.1611.815 3.1102.536.9491 1.308 1.7436 2.241 2.3064h.347c.03-.0569.04-.1228.028-.1861-.013-.0634-.047-.1204-.098-.1611-.677-.3721-1.27-.8798-1.743-1.4913-.472-.6116-.813-1.3139-1.002-2.0632s-.222-1.5295-.096-2.292c.126-.7624.408-1.4907.828-2.1395z" fill="#000"/><path d="m156.931 59.3048c.763-1.1111 1.319-1.4583 2.222-.9028l3.75 4.5832c.764 1.1111.416 1.8055-.972 2.7083-1.389.9027-2.848.6944-4.445-.9028s-1.25-4.3749-.555-5.4859z" fill="#5865f2"/><path d="m157.556 60.2769c.088-.5521.252-1.0895.486-1.5972 1.042-1.8749 2.083-3.8193 2.569-4.5137.486-.6945 1.25-.6945 3.264-.6945s2.014 0 2.639.7639.625.9028.07 2.0138c1.527.9028 1.388 1.0417 1.388 3.1944s-.625 2.2222-2.5 2.4999c-1.25 1.6667-2.013 2.9166-4.027 2.9166-.564-.0246-1.117-.1655-1.624-.4137-.506-.2482-.956-.5984-1.322-1.0287-.365-.4303-.637-.9314-.799-1.4719-.163-.5404-.212-1.1086-.144-1.6689z" fill="#ff78b9"/><path d="m166.583 74.096-2.291-.2083c.418-4.3649.418-8.7597 0-13.1246l.347-.4861 1.736.4861c.618 4.4187.688 8.897.208 13.3329z" fill="#ffd73b"/><path d="m193.528 57.6381c-.625-.9028-1.111-1.1806-1.875-.7639l-3.125 3.8888c-.695.9722-.348 1.5972.833 2.361 1.181.7639 2.361.5556 3.75-.8333.526-.6451.847-1.4331.922-2.2624.074-.8293-.102-1.6619-.505-2.3902z" fill="#5865f2"/><path d="m184.43 55.2076c-1.18.7639-1.111 1.3194-.694 2.3611.492 1.0656 1.072 2.0877 1.736 3.0555.417.6944.972.6944 2.986.6249.274.4439.709.7643 1.214.8938s1.041.0581 1.495-.1993c.902-.4167 1.875-1.5278 1.527-3.8194-.04-.3246-.16-.6345-.347-.9027-1.042-1.7361-2.778-4.3055-3.194-4.7916-.417-.4861-.903-.5555-2.848-.5555-1.944 0-2.152.4166-2.43 1.25-.278.8333 0 1.111.555 2.0832z" fill="#ff78b9"/><path d="m174.431 89.5123c.902 1.0129 1.396 2.3241 1.388 3.6804-.041.8514-.331 1.672-.833 2.3611h-.764c.337-.3117.608-.6869.799-1.1041s.297-.868.312-1.3264c.022-.66-.096-1.3172-.348-1.9278-.251-.6107-.63-1.1608-1.11-1.6138l-.278-.2083.278-.1389c.542-.37.996-.8537 1.332-1.4174s.545-1.1938.612-1.8464c.07-.5069.07-1.0209 0-1.5277-.184-1.3972-.79-2.7051-1.736-3.7499-.03-.0528-.046-.1127-.046-.1737 0-.0609.016-.1208.046-.1736h.348c1.045 1.1309 1.702 2.5664 1.875 4.0972.069.5301.069 1.067 0 1.5971-.153 1.3563-.825 2.6008-1.875 3.4722z" fill="#000"/><path d="m152.208 50.6938c-.486.3472-1.25.6944-1.389.4861-.138-.2083.417-.6944.973-.9722.555-.2778.694-.2083.764-.1389.069.0695-.07.3472-.348.625z" fill="#625abd"/><path d="m188.667 59.8603c.095 4.2479-.324 8.4917-1.25 12.6386-.545.1796-1.102.3189-1.667.4166.723-4.3145 1.095-8.6806 1.111-13.0552l1.25-.6944z" fill="#ffd73b"/><path d="m195.264 57.0825c.225-.3735.411-.7691.555-1.1805" stroke="#000" stroke-linecap="round" stroke-miterlimit="10" stroke-width=".811127"/><path d="m175.68 55.5548c.348 1.5278.625 2.9861.625 2.9861" stroke="#000" stroke-linecap="round" stroke-miterlimit="10" stroke-width=".811127"/><path d="m172.139 77.0821c2.646-.015 5.289-.1772 7.916-.4861v-2.7777c-2.629.2847-5.272.4238-7.916.4166z" fill="#ffd73b"/><path d="m187.764 52.9854c-.07-.1389-.209-.1389-.347-.0694l-3.195 1.8749.208.4167 3.264-1.9444c.07-.0695.139-.2083.07-.2778z" fill="#000"/><path d="m185.75 54.1655-1.18-.3467" stroke="#000" stroke-linecap="round" stroke-miterlimit="10" stroke-width=".811127"/><path d="m185.75 57.9853 3.056-1.875c.138-.0694.138-.2083.069-.3472-.041-.0502-.098-.0845-.161-.0972-.064-.0127-.129-.0029-.186.0278l-3.056 1.8749c-.362.1736-.691.4085-.972.6944-.079.0958-.128.213-.141.3367-.012.1237.013.2482.072.3578l.208.4166c-.056-.1314-.08-.2742-.07-.4166.07-.2778.556-.625 1.181-.9722z" fill="#000"/><path d="m186.722 59.9991 1.528-.9028" stroke="#000" stroke-linecap="round" stroke-miterlimit="10" stroke-width=".811127"/><path d="m188.25 59.0963c.31.5713.765 1.0505 1.319 1.3889" stroke="#000" stroke-linecap="round" stroke-miterlimit="10" stroke-width=".811127"/><path d="m166.583 56.2492.209-.4166-3.403-1.3194c-.139 0-.278 0-.278.1389-.024.0647-.023.1362.002.2005.026.0642.075.1165.137.1467z" fill="#000"/><path d="m167.556 58.6798-4.098-1.4583c-.072-.006-.145.0109-.207.0483s-.111.0933-.14.16l.139.2778 4.167 1.4583c.17.0599.316.1736.417.3239.1.1503.148.329.138.5094v-.9028c0-.2083-.278-.3472-.416-.4166z" fill="#000"/><path d="m166.583 60.6936-1.875-.625h-.069c-.187.7847-.542 1.5193-1.042 2.1527" stroke="#000" stroke-linecap="round" stroke-miterlimit="10" stroke-width=".811127"/><path d="m176.097 40.4163c.025-.0648.024-.1362-.002-.2005-.026-.0642-.074-.1165-.137-.1467-.069-.0694-.277 0-.347.0695-.202.3758-.523.6747-.912.8504s-.825.2185-1.241.1217c-.017-.0117-.037-.0193-.058-.0222-.021-.0028-.043-.0008-.063.0059s-.038.0179-.053.0328-.027.033-.034.053c-.457.6709-1.152 1.1426-1.944 1.3194l.764.2778c.625-.2135 1.163-.6287 1.527-1.1806.488.091.992.0259 1.441-.186.449-.212.82-.5599 1.059-.9945z" fill="#000"/><path d="m192.972 44.3746c2.225 0 4.028-1.8033 4.028-4.0277s-1.803-4.0277-4.028-4.0277c-2.224 0-4.027 1.8033-4.027 4.0277s1.803 4.0277 4.027 4.0277z" fill="#fff"/><path d="m205.472 46.2495c-.231.5444-.663.9784-1.207 1.2114-.543.233-1.156.2468-1.709.0385l-7.778-2.4999 2.986-6.2499 6.875 4.4444c.481.3256.83.8128.983 1.3734.152.5605.1 1.1572-.15 1.6821z" fill="#000"/><path d="m196.107 41.7539c.852-1.803 1.149-3.4506.664-3.6801-.486-.2294-1.57 1.0462-2.422 2.8492-.853 1.803-1.15 3.4507-.665 3.6801.486.2295 1.57-1.0461 2.423-2.8492z" fill="#8cd9ff"/><path d="m193.805 44.7217.973.2778c-.486-.2083-.209-1.8055.555-3.5416.764-1.736 1.875-2.9166 2.431-2.7082l-.903-.5556-2.153 2.9861z" fill="#8cd9ff"/><path d="m194.778 44.9995c-.486-.2083-.209-1.8055.555-3.5416.764-1.736 1.875-2.9166 2.431-2.7082l.625.4166-2.917 6.111z" fill="#000"/><path d="m174.619 158.198c-.352-.241-.652-.55-.883-.909-.231-.358-.388-.759-.461-1.179l-.224-1.416c0-.075-.075-.075-.15-.075h-.149l-.15 1.417c-.178.836-.656 1.578-1.344 2.087h-.224v.149l.224.149c.346.23.644.527.875.872.231.346.39.734.469 1.141l.15 1.417c.074.074.074.149.149.149.04 0 .078-.016.106-.044s.044-.066.044-.105l.224-1.417c.066-.412.22-.805.452-1.152.232-.348.536-.641.892-.861l.15-.149h.074c0-.074 0-.149-.074-.149z" fill="#808aff"/><path d="m326.776 139.187c-.345-.223-.638-.519-.857-.867-.219-.347-.36-.738-.413-1.146l-.224-1.416-.149-.149c-.04 0-.078.016-.106.043-.028.028-.044.066-.044.106l-.224 1.416c-.066.413-.221.806-.453 1.153s-.536.641-.891.86l-.15.149c-.075 0-.075.075-.075.149h.075l.15.15c.355.219.659.513.891.86s.387.74.453 1.152l.224 1.417c0 .039.016.077.044.105s.066.044.106.044l.149-.149.224-1.417c.053-.407.194-.798.413-1.145.219-.348.512-.644.857-.867l.224-.15v-.149z" fill="#ffe75c"/><path d="m89.6892 108.547c-.3452-.224-.6376-.52-.8568-.867-.2193-.348-.3602-.739-.413-1.146l-.2241-1.417c0-.039-.0158-.077-.0438-.105s-.066-.044-.1056-.044-.0776.016-.1057.044c-.028.028-.0437.066-.0437.105l-.2241 1.417c-.0528.407-.1937.798-.413 1.146-.2193.347-.5116.643-.8568.867h-.2241v.149c0 .074.0747.074.0747.149h.2241c.3472.239.6399.548.8588.908s.3589.762.411 1.179l.2241 1.417c0 .074.0747.074.1494.074s.1494 0 .1494-.074l.2241-1.417c.052-.417.1921-.819.411-1.179.2188-.36.5115-.669.8588-.908h.2241c0-.075.0747-.075.0747-.149v-.149z" fill="#ffb619"/><path d="m221.304 6.63507c-.663-.4162-1.228-.97215-1.653-1.62891-.426-.65676-.703-1.39848-.812-2.17321l-.373-2.609297c0-.1491023-.149-.223653-.299-.223653-.059 0-.116.0235633-.158.0655065-.042.0419435-.066.0988305-.066.1581465l-.448 2.609297c-.109.76555-.378 1.49964-.79 2.15465s-.957 1.2163-1.6 1.64747l-.374.22365-.149.22365c0 .07455.074.22365.149.22365l.374.22366c.637.43784 1.177 1.00093 1.588 1.65474s.684 1.38458.802 2.14738l.448 2.6838c.019.0514.049.0981.087.1368.039.0386.086.0683.137.0869.068.0021.135-.0188.189-.0595.054-.0406.093-.0985.11-.1642l.373-2.6838c.118-.7717.399-1.50971.824-2.16514.425-.65542.984-1.21337 1.641-1.63698l.374-.22366c.075 0 .075-.1491.075-.22365.003-.04039-.002-.08105-.015-.11951-.012-.03845-.033-.07389-.06-.10414z" fill="#3442d9"/><path d="m10.2866 40.034c-.31427-.2147-.58207-.4904-.78739-.8106-.20533-.3202-.34398-.6783-.40771-1.0531l-.22409-1.342c0-.0197-.00787-.0387-.02187-.0527-.01401-.014-.03301-.0218-.05282-.0218-.0747 0-.1494 0-.1494.0745l-.22409 1.342c-.05021.379-.18328.7425-.38981 1.0646-.20653.322-.48146.5949-.80533.7991l-.22409.1491v.2237h.22409c.33297.212.61349.4965.82048.8323.207.3357.33509.7138.37466 1.106l.22409 1.2674.1494.1491v-.1491l.22408-1.2674c.05411-.388.18826-.7606.39397-1.0942s.47852-.621.80123-.8441h.224v-.1491z" fill="#459ff7"/><path d="m91.1829 33.6972c-.657-.4236-1.2165-.9815-1.6414-1.637-.4249-.6554-.7056-1.3934-.8236-2.1651l-.3735-2.6093c-.0747-.1491-.1494-.2982-.2988-.2982s-.2241.1491-.2241.2982l-.4481 2.6093c-.118.7717-.3987 1.5097-.8236 2.1651-.4249.6555-.9844 1.2134-1.6414 1.637l-.2988.2237c-.0747 0-.1494.1491-.1494.2236 0 .0746.0747.1491.1494.2237l.2988.2236c.6636.4162 1.2281.9722 1.6539 1.6289.4258.6568.7026 1.3985.8111 2.1733l.4481 2.6092c0 .0594.0237.1162.0657.1582.042.0419.099.0655.1584.0655.1494 0 .2241-.0746.2988-.2237l.3735-2.6092c.1085-.7748.3853-1.5165.8111-2.1733.4258-.6567.9902-1.2127 1.6539-1.6289l.2988-.2236c.0747-.0746.1494-.1491.1494-.2237 0-.0745-.0747-.2236-.1494-.2236z" fill="#57f287"/><path d="m277.925 63.7414c-.393-.2464-.73-.5731-.987-.9585-.258-.3855-.431-.8211-.507-1.278l-.224-1.5656c0-.0396-.016-.0775-.044-.1055-.028-.0279-.066-.0436-.106-.0436-.039 0-.077.0157-.105.0436-.028.028-.044.0659-.044.1055l-.224 1.5656c-.077.4569-.25.8925-.507 1.278-.258.3854-.594.7121-.987.9585l-.149.1491h-.075c0 .0198.008.0387.022.0527s.033.0218.053.0218l.149.1491c.393.2464.729.5731.987.9586.257.3855.43.821.507 1.278l.224 1.5655c0 .0396.016.0775.044.1055.028.0279.066.0436.105.0436l.15-.1491.224-1.5655c.076-.457.249-.8925.507-1.278.257-.3855.594-.7122.987-.9586l.149-.1491c.02 0 .039-.0078.053-.0218s.022-.0329.022-.0527h-.075z" fill="#5865f2"/><path d="m198.447 94.0092c-.193-.1266-.359-.2909-.487-.4831-.129-.1921-.217-.4082-.259-.6352v-.8201h-.15c-.02 0-.039.0079-.053.0219-.014.0139-.022.0329-.022.0527l-.149.82c-.028.2318-.11.4537-.24.6479-.13.1943-.303.3554-.507.4704.212.1044.393.2628.524.4591s.208.4237.223.6592l.149.7455h.15v-.7455c.033-.2301.118-.4498.247-.6432s.3-.3557.5-.4751z" fill="#8cd9ff"/></g></svg>