<svg viewBox="0 0 71.5 44.14" xmlns="http://www.w3.org/2000/svg"><path d="m26.17 42.14h28.93a8.89 8.89 0 0 0 8-5.13 7 7 0 0 1 -5.36-4.87h-8.88a2 2 0 0 1 -2-2v-13h-4.15a2 2 0 0 1 -1.84-1.23 2 2 0 0 1 .43-2.18l5.76-5.73a18.73 18.73 0 0 0 -3.06-1.67 1 1 0 0 1 -1.26.58 18.16 18.16 0 0 0 -23.41 11.63 1 1 0 0 1 -.51.6 1 1 0 0 1 -.79 0 11.85 11.85 0 0 0 -11.89 20.12l5.56-7.47a1 1 0 0 1 1.6 0l8 10.75a1 1 0 0 1 .19.6h3.68a1 1 0 0 1 1-1z" fill="#72767d"/><path d="m69.5 30.14a5 5 0 0 0 -4.64-5v5a2 2 0 0 1 -2 2h-2.94a5 5 0 0 0 9.58-2z" fill="#4f545c"/><path d="m69 15.14-13.14-13.14-13.15 13.14h4.15a2 2 0 0 1 2 2v13h14v-13a2 2 0 0 1 2-2h4.14l.7-.71zm-62.51 27h12.02l-6.01-8.07z" fill="#b9bbbe"/><path d="m8 6.14h.5a1 1 0 0 1 1 1v.51a1 1 0 0 0 2 0v-.51a1 1 0 0 1 1-1h.5a1 1 0 0 0 0-2h-.5a1 1 0 0 1 -1-1v-.51a1 1 0 1 0 -2 0v.51a1 1 0 0 1 -1 1h-.5a1 1 0 0 0 0 2zm63.5 24a7 7 0 0 0 -3.37-6 7 7 0 0 1 -3.27-6 1 1 0 0 1 1-1h3.14a2 2 0 0 0 1.41-3.41l-13.14-13.15a2 2 0 0 0 -2.83 0l-7.38 7.42-5.76 5.73a2 2 0 0 0 -.43 2.18 2 2 0 0 0 1.84 1.23h3.15a1 1 0 0 1 1 1v12a2 2 0 0 0 2 2h6.24a4.32 4.32 0 0 1 3.58 1.86 7 7 0 0 0 2.55 2.32 1.84 1.84 0 0 1 .49 2.84 8.85 8.85 0 0 1 -6.62 3h-28.93a1 1 0 0 0 -1 1 1 1 0 0 0 1 1h28.93a10.89 10.89 0 0 0 10.18-7 7 7 0 0 0 6.22-7.02zm-6.08 4.92a5 5 0 0 1 -3.2-.47 1.31 1.31 0 0 1 .64-2.45 2 2 0 0 0 2-2v-3.27a1.3 1.3 0 0 1 1.87-1.18 5 5 0 0 1 -1.31 9.37zm4.28-20.63-.7.71h-4.14a2 2 0 0 0 -2 2v13h-14v-13a2 2 0 0 0 -2-2h-4.15l13.15-13.14 13.14 13.14zm-48.4 28.11-8-10.75a1 1 0 0 0 -1.6 0l-3.27 4.39a3 3 0 0 1 -5.08-.42 11.83 11.83 0 0 1 6.78-16.76 11.71 11.71 0 0 1 7.9.16 1 1 0 0 0 .79 0 1 1 0 0 0 .51-.6 18.16 18.16 0 0 1 23.37-11.65 1 1 0 0 0 1.3-.58 1 1 0 0 0 -.63-1.33 20.14 20.14 0 0 0 -25.61 12 13.71 13.71 0 0 0 -7.57-.07 13.85 13.85 0 0 0 -5.25 24l-1.24 1.61a1 1 0 0 0 -.09 1.05 1 1 0 0 0 .89.55h16a1 1 0 0 0 .89-.55 1.05 1.05 0 0 0 -.09-1.05zm-14.81-.4 6-8.07 6 8.07z" fill="#202225"/></svg>