<svg width="160" height="142" viewBox="0 0 160 142" fill="none" xmlns="http://www.w3.org/2000/svg">
  <g clip-path="url(#clip0_1_2)">
    <path
      d="M0 10.4541V130.572C0 136.321 4.70434 141.026 10.4541 141.026H82.2215C136.478 141.026 160 110.657 160 70.3561C160 30.2646 136.478 0 82.2215 0H10.4541C4.70434 0 0 4.70435 0 10.4541Z"
      fill="white" fill-opacity="0.05" />
    <path
      d="M48.0366 29.4806V118.236H86.6645C121.738 118.236 136.949 98.4253 136.949 70.4084C136.949 43.5936 121.738 22.7899 86.6645 22.7899H54.7272C51.016 22.7899 48.0366 25.8216 48.0366 29.4806Z"
      fill="white" fill-opacity="0.05" />
    <path
      d="M82.2215 131.46H19.8105C14.2698 131.46 9.77454 126.965 9.77454 121.424V19.6537C9.77454 14.113 14.2698 9.61777 19.8105 9.61777H82.2215C141.444 9.61777 150.278 47.723 150.278 70.4084C150.278 109.768 126.076 131.46 82.2215 131.46ZM19.8105 12.9631C16.0993 12.9631 13.1198 15.9425 13.1198 19.6537V121.424C13.1198 125.136 16.0993 128.115 19.8105 128.115H82.2215C123.933 128.115 146.932 107.625 146.932 70.4084C146.932 20.4378 106.37 12.9631 82.2215 12.9631H19.8105V12.9631Z"
      fill="white" fill-opacity="0.05" />
    <path
      d="M61.6269 58.4384C62.9859 58.4384 64.2404 58.6475 65.4426 59.0657C66.6449 59.4838 67.638 60.1633 68.5266 60.9997C69.3629 61.8883 70.0425 62.9859 70.5652 64.2404C71.0356 65.5472 71.2969 67.063 71.2969 68.8402C71.2969 70.4084 71.0879 71.8197 70.722 73.1264C70.3038 74.4332 69.7288 75.5831 68.9448 76.524C68.1607 77.4649 67.1676 78.1967 65.9654 78.7716C64.7631 79.2943 63.3518 79.608 61.7314 79.608H52.5841V58.3861H61.6269V58.4384ZM61.3133 75.7399C61.9928 75.7399 62.62 75.6354 63.2996 75.4263C63.9268 75.2172 64.5018 74.8513 64.9722 74.3286C65.4427 73.8059 65.8608 73.1787 66.1744 72.3424C66.4881 71.506 66.6449 70.5652 66.6449 69.3629C66.6449 68.3175 66.5403 67.3244 66.3312 66.4881C66.1222 65.6517 65.7563 64.8677 65.2858 64.2927C64.8154 63.7177 64.1882 63.195 63.4041 62.8814C62.62 62.5678 61.6792 62.411 60.5292 62.411H57.1839V75.7922H61.3133V75.7399Z"
      fill="white" fill-opacity="0.05" />
    <path
      d="M90.1666 58.4384V62.3587H78.9807V66.9062H89.278V70.5129H78.9807V75.6877H90.4279V79.608H74.3286V58.3861H90.1666V58.4384Z"
      fill="white" fill-opacity="0.05" />
    <path
      d="M106.161 58.4384L114.107 79.6602H109.245L107.625 74.9559H99.6799L98.0072 79.6602H93.3029L101.3 58.4384H106.161V58.4384ZM106.423 71.4538L103.757 63.6655H103.705L100.934 71.4538H106.423Z"
      fill="white" fill-opacity="0.05" />
    <path d="M121.686 58.4384V75.7399H132.035V79.6602H117.034V58.4384H121.686V58.4384Z" fill="white"
      fill-opacity="0.05" />
    <path
      d="M30.5783 78.8239C35.9766 78.8239 40.3529 74.4477 40.3529 69.0493C40.3529 63.651 35.9766 59.2747 30.5783 59.2747C25.1799 59.2747 20.8037 63.651 20.8037 69.0493C20.8037 74.4477 25.1799 78.8239 30.5783 78.8239Z"
      fill="white" fill-opacity="0.05" />
    <path
      d="M37.9484 118.236C29.742 118.236 23.1559 111.598 23.1559 103.443V91.8915C23.1559 87.8144 26.4489 84.4691 30.5783 84.4691C34.6554 84.4691 38.0007 87.7622 38.0007 91.8915V118.236H37.9484Z"
      fill="white" fill-opacity="0.05" />
  </g>
  <defs>
    <clipPath id="clip0_1_2">
      <rect width="160" height="141.026" fill="white" />
    </clipPath>
  </defs>
</svg>
