<svg xmlns="http://www.w3.org/2000/svg" width="32" height="22" viewBox="0 0 32 22">
  <g fill="none">
    <rect width="32" height="22" fill="#F6F6F7" rx="2"/>
    <path fill="#009DDC" d="M21.5641806,7.36345806 C21.7489548,6.18565161 21.5626323,5.38410323 20.925729,4.65790968 C20.2243097,3.85894194 18.9572129,3.51623226 17.3360516,3.51623226 L12.629471,3.51623226 C12.2981161,3.51623226 12.0163097,3.75726452 11.9646968,4.08500645 L10.0049548,16.511329 C9.96624516,16.7564903 10.1556645,16.9784258 10.4039226,16.9784258 L13.3092129,16.9784258 L13.1089548,18.2501677 C13.0748903,18.4643613 13.2405677,18.6584258 13.4578581,18.6584258 L15.9068903,18.6584258 C16.1964387,18.6584258 16.4436645,18.4478452 16.4885677,18.1613935 L16.5128258,18.0370065 L16.973729,15.1115871 L17.0036645,14.9500387 C17.0490839,14.6635871 17.2957935,14.4524903 17.5853419,14.4524903 L17.9517935,14.4524903 C20.3244387,14.4524903 22.1819871,13.4888774 22.7249548,10.7012645 C22.9515355,9.53636129 22.8343742,8.56397419 22.2346323,7.88061935 C22.0529548,7.67365161 21.8274065,7.5028129 21.5641806,7.36345806"/>
    <path fill="#211D6F" d="M21.5641806,7.36345806 C21.7489548,6.18565161 21.5626323,5.38410323 20.925729,4.65790968 C20.2243097,3.85894194 18.9572129,3.51623226 17.3360516,3.51623226 L12.629471,3.51623226 C12.2981161,3.51623226 12.0163097,3.75726452 11.9646968,4.08500645 L10.0049548,16.511329 C9.96624516,16.7564903 10.1556645,16.9784258 10.4039226,16.9784258 L13.3092129,16.9784258 L14.0390194,12.3508129 L14.0163097,12.4958452 C14.0679226,12.1686194 14.3476645,11.927071 14.6790194,11.927071 L16.0601806,11.927071 C18.7719226,11.927071 20.8957935,10.8256516 21.5161806,7.63907097 C21.5342452,7.54461935 21.5502452,7.45326452 21.5641806,7.36345806"/>
    <path fill="#1C3587" d="M14.8232774,7.37904516 C14.8542452,7.1824 14.9806968,7.02085161 15.1510194,6.93930323 C15.2279226,6.90214194 15.3146323,6.88149677 15.4049548,6.88149677 L19.0942452,6.88149677 C19.5314065,6.88149677 19.9386323,6.9104 20.3112774,6.97027097 C20.4176,6.98730323 20.5213419,7.00743226 20.6219871,7.02962581 C20.7226323,7.05181935 20.8201806,7.07659355 20.9146323,7.10446452 C20.9621161,7.1184 21.0085677,7.13285161 21.0545032,7.14781935 C21.2372129,7.20872258 21.4075355,7.28046452 21.5644387,7.36356129 C21.7492129,6.18523871 21.5628903,5.38420645 20.9259871,4.6580129 C20.2245677,3.85852903 18.957471,3.51633548 17.3357935,3.51633548 L12.629729,3.51633548 C12.2983742,3.51633548 12.0165677,3.75736774 11.9649548,4.08459355 L10.0052129,16.5114323 C9.96650323,16.7565935 10.1559226,16.978529 10.4041806,16.978529 L13.309471,16.978529 L14.0392774,12.3504 L14.8232774,7.37904516 Z"/>
  </g>
</svg>
