<svg fill="none" height="48" viewBox="0 0 48 48" width="48" xmlns="http://www.w3.org/2000/svg" xmlns:xlink="http://www.w3.org/1999/xlink"><linearGradient id="a" gradientUnits="userSpaceOnUse" x1="20.1363" x2="20.1363" y1="14.2766" y2="32.1123"><stop offset="0" stop-color="#10307a"/><stop offset=".09" stop-color="#153787"/><stop offset=".33" stop-color="#2147a6"/><stop offset=".57" stop-color="#2953bc"/><stop offset=".8" stop-color="#2e5bc9"/><stop offset="1" stop-color="#305dce"/></linearGradient><path d="m44.1387 38.7578-3.0132-7.5536c-1.1628-2.9732-1.7646-6.1361-1.7749-9.3286h-3.6323c.1372 2.7901.737 5.538 1.7749 8.1315l3.0957 7.8426c.3237.8238.339 1.7368.0433 2.571-.2958.8342-.8828 1.5335-1.6531 1.9695-.2673.4885-.6614.8959-1.1409 1.1793-.4794.2833-1.0264.432-1.5833.4305h4.334c.6234-.0038 1.2364-.1593 1.7862-.4531.5497-.2938 1.0197-.7171 1.3692-1.2332s.5681-1.1096.6368-1.7292c.0687-.6195-.0145-1.2465-.2424-1.8267z" fill="#113484"/><path d="m27.9168 5.24107c1.486 0 2.5179.90809 2.3115 2.02256l-.8668 4.04517h-5.4485l.8255-4.04517c.2477-1.11447 1.6924-2.02256 3.1783-2.02256zm0-1.23831c-2.1051 0-4.0038 1.32086-4.3753 3.01321l-.8668 4.04513-.289 1.486h7.9665l.2064-.9494.8668-4.08641c.0903-.39423.0889-.80394-.0042-1.19755-.093-.3936-.2752-.76059-.5324-1.07267-.3762-.40928-.8368-.73198-1.3499-.94578-.5131-.21381-1.0666-.31361-1.6221-.29253z" fill="#09235e"/><path d="m21.0236 7.51135h6.3979c3.1566-.00002 6.1845 1.25112 8.4205 3.47935 2.2359 2.2282 3.4975 5.2518 3.5085 8.4084v19.8954h-18.3269z" fill="#09235e"/><path d="m39.3505 39.2944v1.6098c0 .8211-.3262 1.6085-.9067 2.1891-.5806.5805-1.368.9067-2.1891.9067h-6.3979c.8211 0 1.6085-.3262 2.189-.9067.5806-.5806.9068-1.368.9068-2.1891v-1.6098z" fill="#98b7f7"/><path d="m21.0237 7.51135c3.1566-.00002 6.1846 1.25112 8.4205 3.47935 2.236 2.2282 3.4976 5.2518 3.5085 8.4084v19.8954h-23.81671v-19.8954c.01088-3.1495 1.26681-6.1669 3.49381-8.3939 2.2271-2.22702 5.2444-3.48297 8.3939-3.49385z" fill="#305dce"/><path d="m9.1359 39.2944v1.6098c-.00547.4046.0695.8062.22055 1.1816.15106.3754.37518.717.65935 1.005.2842.288.6228.5167.9961.6728s.7739.2364 1.1785.2364h17.6665c.821 0 1.6084-.3262 2.189-.9067.5806-.5806.9067-1.368.9067-2.1891v-1.6098z" fill="#fff"/><path d="m31.1777 19.3991c-.1645-2.5758-1.3037-4.9923-3.186-6.7582-1.8823-1.766-4.3665-2.74887-6.9475-2.74887s-5.0652.98287-6.9475 2.74887c-1.8823 1.7659-3.0215 4.1824-3.1859 6.7582v3.3434h20.2669z" fill="#113484"/><path d="m24.4496 9.86407c-1.9659.70463-3.6667 1.99813-4.8707 3.70443-1.204 1.7062-1.8526 3.7422-1.8575 5.8305v3.3434h13.4563v-3.3434c-.0049-2.0883-.6535-4.1243-1.8575-5.8305-1.204-1.7063-2.9048-2.9998-4.8706-3.70443z" fill="#09235e"/><path d="m29.4441 23.1965h-1.197v-7.5124h.6604c.1423 0 .2788.0565.3794.1572.1007.1006.1572.2371.1572.3794z" fill="#d954e6"/><path d="m17.8039 15.6841h10.4431c.1423 0 .2788.0565.3794.1571.1006.1007.1572.2372.1572.3795v6.9758h-11.5163v-6.9758c0-.1423.0566-.2788.1572-.3795.1006-.1006.2371-.1571.3794-.1571z" fill="#c136ce"/><path d="m27.2977 23.1965h-1.197v-7.5124h.6604c.1423 0 .2788.0565.3795.1572.1006.1006.1571.2371.1571.3794z" fill="#d954e6"/><path d="m15.6164 15.6841h10.4431c.1423 0 .2788.0565.3794.1571.1006.1007.1572.2372.1572.3795v6.9758h-11.475v-6.9758c-.0004-.1355.0504-.266.1423-.3656.0919-.0995.218-.1606.353-.171z" fill="#f47fff"/><path d="m28.2471 16.4271h-.9906v6.7529h.9906z" fill="#d4e4ff"/><path d="m31.1777 22.7425v-3.3434c-.1645-2.5758-1.3037-4.9923-3.186-6.7582-1.8823-1.766-4.3665-2.74887-6.9475-2.74887s-5.0652.98287-6.9475 2.74887c-1.8823 1.7659-3.0215 4.1824-3.1859 6.7582v3.3434" stroke="#000" stroke-linecap="round" stroke-miterlimit="10"/><path d="m31.1778 33.1029v-10.3604c0-1.9813-1.94-3.5086-3.7975-2.8894-.4886.1643-.9284.4481-1.2795.8255h-16.96481v12.4243z" fill="url(#a)"/><path d="m28.3296 19.6879c-.4301 0-.8553.0921-1.2469.2701s-.7405.4378-1.0233.7618c-1.0693 1.1595-2.2751 2.1852-3.5911 3.0545-2.7243 1.8575-5.82 2.972-8.5856 2.972-2.7655 0-4.7881-1.1145-5.73747-2.9307-.20714-.4365-.30152-.9179-.2745-1.4003s.17458-.9503.42917-1.361c.25459-.4106.60808-.7508 1.02814-.9895.42007-.2387.89326-.3683 1.37636-.3769z" fill="#4a76e6"/><path d="m31.1777 21.0088v11.6401" stroke="#000" stroke-linecap="round" stroke-miterlimit="10"/><path d="m35.5118 17.4177v3.3435c0 .0547.0217.1072.0604.1459s.0912.0604.146.0604c.0547 0 .1072-.0217.1459-.0604s.0605-.0912.0605-.1459v-3.3435c.0037-2.0835-.6259-4.119-1.8053-5.8366-1.1795-1.71758-2.8531-3.03614-4.799-3.78086-.4688-.20204-.9757-.30059-1.486-.28894h-2.229c2.6241.01087 5.1375 1.05807 6.9929 2.9135 1.8555 1.8555 2.9027 4.3689 2.9136 6.9929z" fill="#000"/><path d="m35.7181 32.8553c-.0547 0-.1072-.0218-.1459-.0605s-.0605-.0912-.0605-.1459v-11.6401c0-.0547.0218-.1072.0605-.1459s.0912-.0605.1459-.0605.1072.0218.1459.0605.0605.0912.0605.1459v11.6401c0 .0547-.0218.1072-.0605.1459s-.0912.0605-.1459.0605z" fill="#000"/><path d="m31.1364 21.8757c-.0576-.0058-.1157.0006-.1707.0187-.0549.0181-.1054.0476-.1482.0865-.0429.039-.077.0864-.1003.1394s-.0351.1103-.0348.1681l-.1651 1.6098c-.0119.088-.0047.1775.0211.2624s.0695.1633.1282.2299c.0587.0665.1311.1196.2121.1558.0811.0361.169.0544.2577.0536.0903.0002.1797-.0181.2626-.0539.083-.0357.1577-.0881.2196-.1539.0619-.0657.1097-.1435.1403-.2284.0307-.085.0436-.1753.0379-.2655l-.1651-1.6098c-.0197-.1166-.0804-.2223-.1713-.298-.0908-.0757-.2058-.1164-.324-.1147z" fill="#f47fff"/><path d="m35.7182 29.1817c-.0597-.0057-.1199.0005-.1772.0182-.0572.0177-.1104.0466-.1565.085-.046.0383-.084.0855-.1118.1386-.0277.0531-.0447.1112-.0498.1709l-.1239 1.6098c-.0118.088-.0046.1775.0212.2624s.0695.1633.1282.2299c.0587.0665.1311.1196.2121.1558.0811.0361.1689.0544.2577.0536.0887.0008.1766-.0175.2577-.0536.081-.0362.1534-.0893.2121-.1558.0587-.0666.1024-.145.1282-.2299s.033-.1744.0211-.2624l-.1238-1.6098c-.0197-.1166-.0805-.2223-.1713-.298s-.2058-.1164-.324-.1147z" fill="#c136ce"/><path d="m24.6559 32.6076h.5778l.3715.0825c.0179-.0679.0316-.1368.0413-.2064 0-.0328.013-.0643.0363-.0875.0232-.0232.0547-.0363.0875-.0363h.0413c.0826 0 .1238.0826.1238.1651-.0391.2085-.1236.4058-.2476.5779l.5779-.1238c.2262-.0525.4632-.033.6778.0558s.3961.2425.5192.4395h.2064c.1471-.0277.2992-.0011.4282.0748s.2262.196.2735.3379l.1651.8669c.0244.1474-.0093.2985-.094.4217-.0846.1231-.2137.2087-.3601.2387h-.1238c.0361.1495.0408.3048.014.4562-.0269.1514-.0848.2956-.1701.4235-.0852.128-.1961.2369-.3255.3199s-.2746.1383-.4265.1625l-3.0545.6605c-.1491.03-.3026.0304-.4518.001s-.2912-.088-.4177-.1723c-.1266-.0844-.2352-.1929-.3198-.3193-.0845-.1265-.1432-.2684-.1728-.4175h-.1238c-.076.0181-.1549.0206-.2319.0074s-.1505-.0419-.2161-.0844c-.0656-.0424-.1219-.0977-.1655-.1625-.0436-.0649-.0736-.1378-.0882-.2146l-.1652-.8255c-.0181-.076-.0206-.1549-.0074-.2319.0133-.077.042-.1505.0844-.2161s.0977-.1219.1626-.1655c.0648-.0436.1378-.0736.2145-.0882h.2064c.0392-.2243.1416-.4328.2951-.6009.1536-.1682.3519-.2891.5717-.3485h.3715c.0804-.2455.227-.464.4236-.6315.1967-.1675.4357-.2775.6909-.3179zm-.1239-.4541c-.3257.0672-.6261.2245-.8668.4541-.1957.136-.3522.3211-.454.5366h-.1239c-.3287.0829-.6285.2542-.8668.4953-.135.1392-.2342.3092-.2889.4953-.2557.077-.4735.2465-.6109.4755s-.1845.501-.1321.7628l.1651.8668c.0534.2264.1789.4293.3575.5782.1787.1489.4009.2357.6332.2474.1084.2477.2976.4514.5366.5778.1727.1193.3677.2027.5733.2453.2057.0425.4177.0433.6237.0024l3.0957-.6604c.4009-.0893.7541-.3248.9907-.6605.156-.2354.2549-.5039.2889-.7842.2111-.0988.3807-.2688.4788-.4802s.1186-.4506.0578-.6756l-.1651-.8255c-.0199-.1309-.0659-.2565-.1352-.3693s-.1606-.2106-.2683-.2876c-.1078-.0769-.2298-.1315-.359-.1605-.1292-.0289-.2629-.0317-.3932-.0081-.1509-.1601-.3337-.2867-.5366-.3715-.2118-.1233-.4606-.1672-.7017-.1239-.0129-.1356-.0674-.264-.1561-.3674-.0887-.1035-.2072-.177-.3393-.2104-.0376-.0218-.0803-.0332-.1238-.0332s-.0862.0114-.1238.0332c-.0727.0073-.1432.0293-.2071.0648s-.1198.0837-.1644.1415c-.2598-.0409-.5245-.0409-.7843 0z" fill="#d4e4ff"/><path d="m28.082 35.4144-.4128.0826-.4127-1.9813.4127-.0826c.1526-.0256.3092.0068.4391.0908.1298.084.2235.2136.2626.3633l.1652.8668c.0243.1474-.0093.2986-.094.4217-.0846.1231-.2137.2087-.3601.2387z" fill="#aabff2"/><path d="m27.772 33.8532-.2829.0591c-.1562.0326-.2563.1857-.2237.3419l.1173.5616c.0326.1562.1857.2564.3419.2238l.2829-.0591c.1562-.0326.2563-.1857.2237-.3419l-.1173-.5617c-.0327-.1562-.1857-.2563-.3419-.2237z" fill="#7d94df"/><path d="m22.5095 36.5702.4128-.0826-.4128-1.9813-.4127.0826c-.0768.0146-.1498.0446-.2146.0882-.0648.0437-.1201.1-.1625.1656-.0425.0655-.0712.139-.0844.216s-.0107.1559.0074.2319l.1651.8255c.0146.0768.0446.1498.0883.2146.0436.0648.0999.1201.1655.1625.0656.0425.1391.0712.2161.0844s.1558.0107.2318-.0074z" fill="#aabff2"/><path d="m22.4979 34.9513-.2828.0591c-.1562.0327-.2564.1857-.2238.342l.1174.5616c.0326.1562.1857.2564.3419.2237l.2828-.0591c.1562-.0326.2564-.1857.2238-.3419l-.1174-.5616c-.0326-.1562-.1857-.2564-.3419-.2238z" fill="#7d94df"/><path d="m23.9956 37.4369 3.0545-.6604c.1492-.0296.291-.0883.4175-.1729.1264-.0845.2349-.1931.3193-.3197.0843-.1265.1429-.2685.1723-.4177s.029-.3027-.001-.4518l-.3302-1.5685c-.069-.2937-.2501-.5488-.5046-.7107-.2546-.162-.5623-.218-.8576-.1562l-3.0957.6192c-.2937.069-.5488.2501-.7107.5046-.162.2545-.218.5623-.1561.8575l.3302 1.5685c.0296.1492.0883.2911.1728.4175.0846.1265.1932.235.3197.3193.1266.0844.2685.143.4178.1723.1492.0294.3027.0291.4518-.001z" fill="#aabff2"/><path d="m25.6054 36.0335-.5366.1239c-.1491.03-.3027.0304-.4519.001s-.2911-.088-.4177-.1723c-.1265-.0844-.2352-.1929-.3197-.3193-.0845-.1265-.1433-.2683-.1729-.4175l-.0825-.289c-.0244-.1474.0093-.2985.0939-.4217.0847-.1231.2137-.2087.3601-.2387l1.6511-.3715c.1514-.0168.3039.0192.4318.1019.1279.0828.2232.2072.2699.3522v.2889c.0369.1437.0447.2933.023.4401-.0217.1467-.0725.2877-.1494.4145-.0769.1269-.1783.2371-.2984.3243-.12.0871-.2563.1494-.4007.1832z" fill="#cbdaf7"/><path d="m25.7911 35.2363-.3232.0675c-.067.014-.1099.0796-.0959.1465l.0084.0404c.014.067.0796.1099.1466.0959l.3232-.0675c.067-.014.1099-.0796.0959-.1466l-.0084-.0404c-.014-.0669-.0796-.1098-.1466-.0958z" fill="#aabff2"/><path d="m24.9032 35.4588-.3232.0675c-.067.014-.1099.0796-.0959.1465l.0084.0405c.014.0669.0796.1098.1465.0958l.3233-.0675c.0669-.014.1099-.0796.0959-.1465l-.0085-.0404c-.014-.067-.0796-.1099-.1465-.0959z" fill="#aabff2"/><path d="m27.333 34.6471c-.0326-.1562-.1857-.2563-.3419-.2237s-.2564.1857-.2238.3419c.0327.1562.1858.2564.342.2238.1562-.0327.2563-.1858.2237-.342z" fill="#333132"/><path d="m23.4562 35.4645c-.0327-.1562-.1857-.2564-.3419-.2238-.1563.0327-.2564.1857-.2238.3419s.1857.2564.3419.2238c.1562-.0327.2564-.1857.2238-.3419z" fill="#333132"/><path d="m23.5415 33.5983h-.0413c.1281-.3438.3699-.6336.6851-.8213.3153-.1876.6853-.262 1.0486-.2106l.6604.1238c-.0722.2315-.1958.4436-.3615.6207-.1658.177-.3693.3143-.5956.4016-.2262.0873-.4692.1224-.7109.1026s-.4758-.0939-.6848-.2168z" fill="#a9e563"/><path d="m25.6467 32.4838c-.0217.1796-.0853.3516-.1857.5022-.1004.1505-.2347.2754-.3922.3646v.2064c.0413.0412.1652.0825.2064.0412.1798-.1166.3344-.268.4549-.4452s.2044-.3766.2468-.5867c0-.0825-.0412-.1651-.1238-.1651-.1238-.0413-.1651 0-.2064.0826z" fill="#a9e563"/><path d="m25.1309 33.0219c.0434-.0139.0701-.0516.0597-.0842-.0105-.0325-.0542-.0476-.0976-.0337l-1.0572.3394c-.0434.014-.0701.0517-.0596.0842.0104.0326.0541.0477.0975.0337z" fill="#6abb6b"/><path d="m28.082 35.4144-.4128.0826-.4127-1.9813.4127-.0826c.1526-.0256.3092.0068.4391.0908.1298.084.2235.2136.2626.3633l.1652.8668c.0243.1474-.0093.2986-.094.4217-.0846.1231-.2137.2087-.3601.2387z" fill="#fff"/><path d="m28.082 35.4144-.4128.0826-.4127-1.9813.4127-.0826c.1526-.0256.3092.0068.4391.0908.1298.084.2235.2136.2626.3633l.1652.8668c.0243.1474-.0093.2986-.094.4217-.0846.1231-.2137.2087-.3601.2387z" fill="#7a93dc" opacity=".8"/><path d="m27.772 33.8532-.2829.0591c-.1562.0326-.2563.1857-.2237.3419l.1173.5616c.0326.1562.1857.2564.3419.2238l.2829-.0591c.1562-.0326.2563-.1857.2237-.3419l-.1173-.5617c-.0327-.1562-.1857-.2563-.3419-.2237z" fill="#7a93dc"/><path d="m22.5095 36.5702.4128-.0826-.4128-1.9813-.4127.0826c-.0768.0146-.1498.0446-.2146.0882-.0648.0437-.1201.1-.1625.1656-.0425.0655-.0712.139-.0844.216s-.0107.1559.0074.2319l.1651.8255c.0146.0768.0446.1498.0883.2146.0436.0648.0999.1201.1655.1625.0656.0425.1391.0712.2161.0844s.1558.0107.2318-.0074z" fill="#fff"/><path d="m22.5095 36.5702.4128-.0826-.4128-1.9813-.4127.0826c-.0768.0146-.1498.0446-.2146.0882-.0648.0437-.1201.1-.1625.1656-.0425.0655-.0712.139-.0844.216s-.0107.1559.0074.2319l.1651.8255c.0146.0768.0446.1498.0883.2146.0436.0648.0999.1201.1655.1625.0656.0425.1391.0712.2161.0844s.1558.0107.2318-.0074z" fill="#7a93dc" opacity=".8"/><path d="m22.4979 34.9513-.2828.0591c-.1562.0327-.2564.1857-.2238.342l.1174.5616c.0326.1562.1857.2564.3419.2237l.2828-.0591c.1562-.0326.2564-.1857.2238-.3419l-.1174-.5616c-.0326-.1562-.1857-.2564-.3419-.2238z" fill="#7a93dc"/><path d="m23.9956 37.4369 3.0545-.6604c.1492-.0296.291-.0883.4175-.1729.1264-.0845.2349-.1931.3193-.3197.0843-.1265.1429-.2685.1723-.4177s.029-.3027-.001-.4518l-.3302-1.5685c-.069-.2937-.2501-.5488-.5046-.7107-.2546-.162-.5623-.218-.8576-.1562l-3.0957.6192c-.2937.069-.5488.2501-.7107.5046-.162.2545-.218.5623-.1561.8575l.3302 1.5685c.0296.1492.0883.2911.1728.4175.0846.1265.1932.235.3197.3193.1266.0844.2685.143.4178.1723.1492.0294.3027.0291.4518-.001z" fill="#fff"/><path d="m23.9956 37.4369 3.0545-.6604c.1492-.0296.291-.0883.4175-.1729.1264-.0845.2349-.1931.3193-.3197.0843-.1265.1429-.2685.1723-.4177s.029-.3027-.001-.4518l-.3302-1.5685c-.069-.2937-.2501-.5488-.5046-.7107-.2546-.162-.5623-.218-.8576-.1562l-3.0957.6192c-.2937.069-.5488.2501-.7107.5046-.162.2545-.218.5623-.1561.8575l.3302 1.5685c.0296.1492.0883.2911.1728.4175.0846.1265.1932.235.3197.3193.1266.0844.2685.143.4178.1723.1492.0294.3027.0291.4518-.001z" fill="#7a93dc" opacity=".6"/><path d="m25.6054 36.0335-.5366.1239c-.1491.03-.3027.0304-.4519.001s-.2911-.088-.4177-.1723c-.1265-.0844-.2352-.1929-.3197-.3193-.0845-.1265-.1433-.2683-.1729-.4175l-.0825-.289c-.0244-.1474.0093-.2985.0939-.4217.0847-.1231.2137-.2087.3601-.2387l1.6511-.3715c.1514-.0168.3039.0192.4318.1019.1279.0828.2232.2072.2699.3522v.2889c.0369.1437.0447.2933.023.4401-.0217.1467-.0725.2877-.1494.4145-.0769.1269-.1783.2371-.2984.3243-.12.0871-.2563.1494-.4007.1832z" fill="#fff"/><path d="m25.6054 36.0335-.5366.1239c-.1491.03-.3027.0304-.4519.001s-.2911-.088-.4177-.1723c-.1265-.0844-.2352-.1929-.3197-.3193-.0845-.1265-.1433-.2683-.1729-.4175l-.0825-.289c-.0244-.1474.0093-.2985.0939-.4217.0847-.1231.2137-.2087.3601-.2387l1.6511-.3715c.1514-.0168.3039.0192.4318.1019.1279.0828.2232.2072.2699.3522v.2889c.0369.1437.0447.2933.023.4401-.0217.1467-.0725.2877-.1494.4145-.0769.1269-.1783.2371-.2984.3243-.12.0871-.2563.1494-.4007.1832z" fill="#7a93dc" opacity=".3"/><path d="m25.7911 35.2363-.3232.0675c-.067.014-.1099.0796-.0959.1465l.0084.0404c.014.067.0796.1099.1466.0959l.3232-.0675c.067-.014.1099-.0796.0959-.1466l-.0084-.0404c-.014-.0669-.0796-.1098-.1466-.0958z" fill="#fff"/><path d="m24.9032 35.4588-.3232.0675c-.067.014-.1099.0796-.0959.1465l.0084.0405c.014.0669.0796.1098.1465.0958l.3233-.0675c.0669-.014.1099-.0796.0959-.1465l-.0085-.0404c-.014-.067-.0796-.1099-.1465-.0959z" fill="#fff"/><path d="m25.7911 35.2363-.3232.0675c-.067.014-.1099.0796-.0959.1465l.0084.0404c.014.067.0796.1099.1466.0959l.3232-.0675c.067-.014.1099-.0796.0959-.1466l-.0084-.0404c-.014-.0669-.0796-.1098-.1466-.0958z" fill="#7a93dc" opacity=".6"/><path d="m24.9032 35.4588-.3232.0675c-.067.014-.1099.0796-.0959.1465l.0084.0405c.014.0669.0796.1098.1465.0958l.3233-.0675c.0669-.014.1099-.0796.0959-.1465l-.0085-.0404c-.014-.067-.0796-.1099-.1465-.0959z" fill="#7a93dc" opacity=".6"/><path d="m27.333 34.6471c-.0326-.1562-.1857-.2563-.3419-.2237s-.2564.1857-.2238.3419c.0327.1562.1858.2564.342.2238.1562-.0327.2563-.1858.2237-.342z" fill="#333132"/><path d="m23.4562 35.4645c-.0327-.1562-.1857-.2564-.3419-.2238-.1563.0327-.2564.1857-.2238.3419s.1857.2564.3419.2238c.1562-.0327.2564-.1857.2238-.3419z" fill="#333132"/><path d="m23.5415 33.5983h-.0413c.1281-.3438.3699-.6336.6851-.8213.3153-.1876.6853-.262 1.0486-.2106l.6604.1238c-.0722.2315-.1958.4436-.3615.6207-.1658.177-.3693.3143-.5956.4016-.2262.0873-.4692.1224-.7109.1026s-.4758-.0939-.6848-.2168z" fill="#a7e163"/><path d="m25.6467 32.4838c-.0217.1796-.0853.3516-.1857.5022-.1004.1505-.2347.2754-.3922.3646v.2064c.0413.0412.1652.0825.2064.0412.1798-.1166.3344-.268.4549-.4452s.2044-.3766.2468-.5867c0-.0825-.0412-.1651-.1238-.1651-.1238-.0413-.1651 0-.2064.0826z" fill="#a7e163"/><path d="m25.1309 33.0219c.0434-.0139.0701-.0516.0597-.0842-.0105-.0325-.0542-.0476-.0976-.0337l-1.0572.3394c-.0434.014-.0701.0517-.0596.0842.0104.0326.0541.0477.0975.0337z" fill="#6abb6b"/><path d="m25.6879 24.1458-1.486 1.8987.3302 2.3941 1.8988 1.4447 1.4859-1.8987-.3302-2.3941zm1.3208 3.5911-.7017.9494-.9906-.7017-.2064-1.6924.743-.9494.9493.743z" fill="#fb68f8"/><path d="m25.688 24.1458 1.8987 1.4447.3303 2.3941-1.4447 1.8987-1.94-1.4447-.3303-2.394zm0-.3302c-.0543-.0017-.1083.0085-.1582.0299s-.0946.0534-.1307.094l-1.4447 1.94c-.0506.0571-.0797.1301-.0826.2063l.3302 2.3941c.0173.0806.0608.1532.1239.2064l1.94 1.486h.2476c.0431.0035.0861-.0066.1232-.0288.037-.0222.0661-.0554.0832-.0951l1.4447-1.8987c.0461-.0752.0743-.1599.0826-.2477l-.3302-2.3528c-.0173-.0806-.0608-.1532-.1239-.2063l-1.94-1.4447z" fill="#ffc0ff"/><path d="m25.688 24.1458.1651 1.197.9494.743.7842-.4953z" fill="#ffaafc"/><path d="m25.3164 27.9846-.7843.454 1.8987 1.4447-.1238-1.197z" fill="#e74fd5"/><path d="m25.11 26.2922.2064 1.6924.9906.7017.7017-.9494-.2064-1.6511-.9493-.743z" fill="#ffcdf9"/><path d="m26.8024 26.0858-1.4447 1.8988h-.0413l-.0413-.4541 1.2384-1.651z" fill="#fff"/><path d="m26.885 26.705.0413.4541-.9494 1.2795-.2889-.2063z" fill="#fff"/><path d="m27.3389 25.508.2064.3302c.0413.0825.1238.0825.1651-.0413l.0825-.3715c0-.0109.0044-.0214.0121-.0292.0078-.0077.0183-.0121.0292-.0121l.3302-.2063c.0219 0 .0429-.0087.0584-.0242s.0242-.0365.0242-.0584-.0087-.0429-.0242-.0584-.0365-.0242-.0584-.0242l-.3715-.0825h-.0825l-.1651-.3302c-.0113-.0171-.0267-.031-.0447-.0407-.018-.0096-.0381-.0147-.0585-.0147s-.0406.0051-.0586.0147c-.018.0097-.0333.0236-.0446.0407l-.0826.3715c0 .0412 0 .0825-.0412.0825l-.3303.1651c-.017.0113-.0309.0267-.0406.0447s-.0147.0381-.0147.0585c0 .0205.005.0406.0147.0586s.0236.0333.0406.0446h.4128c0 .0413.0413.0413.0413.0826z" fill="#fff"/><path d="m27.4628 24.476.0826.0826.1651.3302h.0825l.3715.0825c.0219 0 .0429.0087.0584.0242s.0242.0365.0242.0584-.0087.0429-.0242.0584-.0365.0242-.0584.0242l-.3302.2063c-.0109 0-.0214.0044-.0292.0121-.0077.0078-.0121.0183-.0121.0292l-.0825.3715c0 .0826-.0413.0826-.0826.0826-.0412 0-.0825 0-.0825-.0413l-.2064-.3302c0-.0413-.0413-.0413-.0413-.0826h-.4127c-.0171-.0113-.031-.0266-.0407-.0446s-.0147-.0381-.0147-.0586c0-.0204.005-.0405.0147-.0585s.0236-.0334.0407-.0447l.3302-.1651c.0412 0 .0412-.0413.0412-.0825l.0826-.3715zm0-.3302c-.1054.0055-.2062.0445-.2879.1113s-.1399.158-.1661.2602v.2477l-.2477.1238c-.0846.0366-.1526.1033-.1907.1872s-.0437.179-.0157.2668c.009.0845.0467.1634.1068.2235s.1389.0978.2235.1068l.2476.0825.1238.2477c.0469.0653.109.1182.1809.1542.0719.0359.1515.0538.2319.0522.0966.0019.1908-.0301.2662-.0904s.1273-.1452.1466-.2399v-.2476l.2476-.1239c.0793-.0428.1423-.1103.1796-.1923.0372-.082.0467-.1739.0268-.2617.0006-.0918-.0328-.1805-.0938-.2491s-.1452-.1122-.2364-.1224h-.2477l-.1238-.2477c-.0405-.0655-.0946-.1215-.1587-.1643-.0641-.0427-.1367-.0711-.2128-.0833z" fill="#ffc0ff"/><path d="m44.0147 16.4271c0-.228-.1848-.4128-.4127-.4128-.228 0-.4128.1848-.4128.4128v.4169c0 .228.1848.4128.4128.4128.2279 0 .4127-.1848.4127-.4128z" fill="#4a76e6"/><path d="m44.0147 19.7292c0-.228-.1848-.4128-.4127-.4128-.228 0-.4128.1848-.4128.4128v.4169c0 .2279.1848.4127.4128.4127.2279 0 .4127-.1848.4127-.4127z" fill="#4a76e6"/><path d="m45.5009 18.7386c.228 0 .4128-.1848.4128-.4128s-.1848-.4128-.4128-.4128h-.4169c-.2279 0-.4127.1848-.4127.4128s.1848.4128.4127.4128z" fill="#4a76e6"/><path d="m42.1573 18.6973c.228 0 .4128-.1848.4128-.4128 0-.2279-.1848-.4127-.4128-.4127h-.4169c-.228 0-.4128.1848-.4128.4127 0 .228.1848.4128.4128.4128z" fill="#4a76e6"/><path d="m2.65542 8.79083-.61915 1.32087c-.03311.0693-.04391.1472-.03092.2229s.04914.1456.10346.1999.12415.0904.19986.1034c.07572.013.1536.0022.22292-.0309l1.32086-.66041c.04572-.0193.09484-.02925.14447-.02925.04962 0 .09875.00995.14447.02925l1.32086.66041c.06726.0209.13907.0222.20706.0039.06799-.0184.12936-.0557.17695-.1076.04759-.052.07944-.1163.09184-.1857.0124-.0693.00483-.1407-.02181-.2059l-.61915-1.32087c-.0193-.04571-.02924-.09484-.02924-.14446 0-.04963.00994-.09875.02924-.14447l.61915-1.32086c.03872-.06324.05502-.13767.04629-.2113s-.04199-.14219-.09442-.19462-.12098-.08569-.19462-.09442c-.07363-.00873-.14806.00758-.21129.04629l-1.32086.61916c-.04572.0193-.09485.02924-.14447.02924-.04963 0-.09875-.00994-.14447-.02924l-1.32086-.61916c-.06519-.02664-.13662-.0342-.20595-.0218-.06932.0124-.1337.04425-.18562.09184-.05191.04759-.08923.10896-.1076.17695s-.01704.1398.00385.20706l.61915 1.32086c.03782.03858.059.09044.059.14447 0 .05402-.02118.10589-.059.14446z" fill="#ffefc9"/><g fill="#fff"><path d="m5.00819 33.1029c0-.1824-.1386-.3302-.30958-.3302-.17097 0-.30957.1478-.30957.3302v.2931c0 .1824.1386.3302.30957.3302.17098 0 .30958-.1478.30958-.3302z"/><path d="m5.00819 35.6621c0-.1823-.1386-.3302-.30958-.3302-.17097 0-.30957.1479-.30957.3302v.2931c0 .1824.1386.3302.30957.3302.17098 0 .30958-.1478.30958-.3302z"/><path d="m6.12267 34.8365c.18237 0 .33021-.1386.33021-.3096s-.14784-.3096-.33021-.3096h-.29307c-.18237 0-.33021.1386-.33021.3096s.14784.3096.33021.3096z"/><path d="m3.56346 34.8365c.18238 0 .33022-.1386.33022-.3096s-.14784-.3096-.33022-.3096h-.29306c-.18238 0-.33022.1386-.33022.3096s.14784.3096.33022.3096z"/><path d="m18.547 33.7221c-.4088.6271-1.0451 1.071-1.7749 1.2383-.2277.0661-.4648.094-.7017.0825-.6145-.0144-1.2078-.2272-1.6914-.6066-.4835-.3794-.8314-.9051-.9916-1.4985-.0341-.1488-.048-.3015-.0412-.454h-.0413c-.0955-.0089-.1879-.0384-.2708-.0866-.083-.0481-.1544-.1138-.2094-.1923-.055-.0786-.0922-.1682-.1091-.2626s-.013-.1913.0114-.2841c0-.0412.0413-.1238.0413-.1651l-.4541-.0825c-.1837-.0567-.3435-.1729-.454-.3302-.0606-.0739-.1034-.1607-.1249-.2538-.0214-.0931-.0211-.1899.0011-.2828.038-.1673.1328-.3163.2683-.4216.1354-.1054.3031-.1606.4746-.1563h.2477l.6192.1238h.0825v-.3302c.0481-.1889.1615-.3548.3202-.4681s.3523-.1668.5466-.1511h.1239l2.3527.4541c.4963.1298.949.3894 1.3117.7522.3627.3627.6223.8154.7522 1.3116.0967.3454.121.707.0713 1.0622-.0497.3551-.1724.6962-.3603 1.0017z"/><path d="m16.6482 34.5063h-.5778c-.4984-.0085-.9807-.1779-1.3749-.4829-.3943-.3049-.6794-.7292-.8128-1.2094-.0748-.2405-.089-.4957-.0413-.743l-.454-.0826c-.0584-.0235-.1088-.0632-.1454-.1143-.0365-.0512-.0577-.1118-.061-.1746.0224-.0474.0573-.0878.1009-.1169.0437-.0291.0944-.0458.1468-.0482h.0412l.6605.1238h.0412c.0826 0 .2064-.0413.2064-.1651.0159-.0268.0239-.0574.023-.0885-.0008-.0311-.0104-.0614-.0276-.0873-.0173-.0258-.0415-.0463-.0699-.059-.0284-.0128-.0598-.0172-.0906-.0129l-1.0319-.2063c-.0584-.0235-.1088-.0632-.1453-.1144-.0366-.0512-.0578-.1118-.0611-.1746.0049-.0273.0153-.0534.0305-.0767.0153-.0232.035-.0432.0582-.0586.0231-.0154.0491-.026.0764-.0311.0274-.0051.0554-.0047.0826.0013h.0412l1.4447.289h.0413c.0524-.0025.1031-.0192.1467-.0483.0437-.029.0786-.0695.101-.1169-.0033-.0628-.0245-.1233-.0611-.1745-.0365-.0512-.087-.0909-.1453-.1144l-.5779-.1238c-.0477-.0044-.0939-.0192-.1354-.0433s-.0772-.0569-.1047-.0962c-.0275-.0392-.0461-.084-.0545-.1312-.0085-.0472-.0065-.0957.0057-.1421.0042-.0425.0178-.0835.0398-.1201s.0519-.0678.0874-.0915.0759-.0392.1181-.0454c.0422-.0063.0853-.0031.1262.0093h.0412l2.3115.4541c.4134.1024.792.3132 1.0967.6107.3048.2975.5246.6709.637 1.0816.0668.2928.0749.596.0238.892-.0512.2959-.1606.5788-.3218.8322-.1613.2533-.3712.4722-.6176.6439s-.5245.2928-.8181.3562z"/></g><path clip-rule="evenodd" d="m12.5206 30.874c.0601.0133.1229.0037.1763-.0268s.0936-.0798.1126-.1383c.0009-.0591-.0195-.1166-.0573-.162-.0379-.0454-.0907-.0758-.149-.0857h-.1239c-.1238 0-.2476.0826-.2476.1651-.0133.0601-.0038.123.0268.1764.0305.0534.0798.0935.1383.1126zm4.1277 3.6324c.2935-.0635.5716-.1846.818-.3562.2465-.1717.4564-.3906.6176-.644.1613-.2534.2706-.5362.3218-.8322.0511-.2959.0431-.5991-.0238-.8919-.1123-.4108-.3322-.7842-.6369-1.0817-.3048-.2974-.6833-.5083-1.0967-.6107l-2.3115-.454c-.0434-.0081-.0879-.0076-.1311.0014-.0432.0091-.0841.0266-.1205.0515-.0365.0249-.0676.0568-.0917.0937-.0241.037-.0407.0783-.0488.1217-.0082.0434-.0077.0879.0014.1311s.0266.0841.0515.1205.0567.0676.0937.0917.0783.0407.1217.0488l.5778.1239c.0584.0235.1088.0631.1454.1143.0365.0512.0577.1118.061.1746-.0252.0539-.0666.0988-.1183.1283-.0517.0296-.1113.0424-.1706.0368l-1.4447-.2889c-.0601-.0133-.1229-.0038-.1763.0268-.0535.0305-.0936.0798-.1126.1383.0033.0628.0244.1234.061.1745.0366.0512.087.0909.1453.1144l1.032.2064c.0547.0109.1028.0432.1338.0896.031.0465.0422.1033.0313.1581-.011.0547-.0432.1028-.0897.1338-.0464.031-.1033.0422-.158.0313l-.6604-.1239c-.0593-.0056-.1189.0073-.1707.0368-.0517.0296-.093.0744-.1183.1283.0033.0629.0245.1234.0611.1746.0365.0512.087.0909.1453.1144l.4541.0825c-.0477.2473-.0336.5025.0412.743.156.5829.5301 1.0836 1.0448 1.3986s1.1307.4201 1.7208.2938zm-1.8162-1.94c-.0363-.1654-.0394-.3364-.0091-.503s.0933-.3255.1854-.4676c.0922-.142.2116-.2644.3514-.36.1398-.0955.2971-.1624.463-.1967.1653-.043.3377-.0524.5068-.0277.1691.0246.3315.0829.4777.1714s.2732.2054.3735.3438c.1003.1383.1719.2954.2105.4619.043.1654.0524.3377.0277.5068s-.083.3316-.1714.4778c-.0885.1462-.2054.2732-.3438.3734-.1384.1003-.2954.1719-.4619.2105-.3444.0752-.7045.0141-1.0047-.1707-.3002-.1847-.5171-.4786-.6051-.8199z" fill="#4a6fe6" fill-rule="evenodd"/><path d="m16.6895 31.617-.7842-.1651h-.1238l-.4954.5779c-.0149.0167-.0263.0364-.0334.0576-.0071.0213-.0097.0438-.0078.0662l.2476.743h.0826l.7842.1651c.0413 0 .0826 0 .0826-.0413l.5366-.5779c.0149-.0167.0263-.0363.0334-.0576s.0098-.0438.0079-.0662l-.289-.743z" fill="#aec7ff"/><path d="m30.7649 23.9807c0 .0985.0391.193.1088.2627s.1642.1088.2627.1088c.0521.0058.1049.0006.1549-.0155.0499-.016.0959-.0425.1349-.0776s.0701-.078.0913-.126.032-.0999.0317-.1524z" fill="#e74fd5"/><path d="m35.3467 31.2454c-.0059.0522-.0006.1049.0154.1549.0161.0499.0425.0959.0776.1349s.0781.0701.1261.0913.0999.032.1524.0317c.1094 0 .2144-.0435.2918-.1209s.1209-.1824.1209-.2919z" fill="#a120ad"/></svg>