<svg height="80" viewBox="0 0 80 80" width="80" xmlns="http://www.w3.org/2000/svg" xmlns:xlink="http://www.w3.org/1999/xlink"><defs><linearGradient id="a" x1="-2.446%" x2="118.726%" y1="-15.757%" y2="127.74%"><stop offset="0" stop-color="#b3aeff"/><stop offset="1" stop-color="#738ef5"/></linearGradient><path id="b" d="m7.47417442 23.394729c0 1.0448328-.88810078 1.9153875-1.95399225 1.9153875h-1.06589147c-1.06589148 0-1.95441861-.8705547-1.95441861-1.9153875 0-1.0448329.88852713-1.9153876 1.95441861-1.9153876h1.06589147c1.06589147 0 1.95399225.8705547 1.95399225 1.9153876zm48.14273648-.5224164c4.6187209 9.5777735.355155 21.0709346-9.770814 25.5984042-9.7703876 4.3536094-21.4951938.1742781-25.9365504-9.4034954-.8881008-1.9153876-1.4210465-4.0050532-1.5988372-6.0947189h-3.9084109c-1.0658914 0-1.9539922-.8709726-1.9539922-1.9158054 0-1.0448329.8881008-1.9153876 1.9539922-1.9153876h5.6850388c1.0658915 0 1.9539923-.8705547 1.9539923-1.9153875s-.8881008-1.9158055-1.9539923-1.9158055h-9.0600775c-1.06589148 0-1.95441861-.8705547-1.95441861-1.9153875 0-1.0448329.88852713-1.9153876 1.95441861-1.9153876h12.612907c1.0658914 0 1.9539922-.8709726 1.9539922-1.9158054 0-1.0448329-.8881008-1.9153876-1.9539922-1.9153876h-5.1516667c-1.5988372 0-3.0203101-1.2191109-3.0203101-2.9602203 0-1.5672493 1.2436822-2.9606383 3.0203101-2.9606383h20.0741473c7.1060853.3485562 13.8565891 4.3536094 17.0542636 11.1450228zm-22.4511706-1.9209043c-5.6172481 2.5284954-8.0803101 9.0419833-5.5008527 14.5482523s9.2242248 7.9206687 14.8414729 5.3921732c5.6176744-2.5284954 8.08031-9.0419832 5.5008527-14.5482522-2.5794574-5.506269-9.2242248-7.9206687-14.8414729-5.3921733zm8.949907 3.6623062 3.5528294 5.9208587c.1777907.3481383.1777907.5224164 0 .8705547l-3.5528294 5.9208587c-.1777907.3481383-.5329457.3481383-.7107364.3481383h-6.9282946c-.3551551 0-.5329458-.1742781-.7103101-.3481383l-3.5532558-5.9208587c-.1773644-.3481383-.1773644-.5224164 0-.8705547l3.5532558-5.9208587c.1773643-.3481383.5329457-.3481383.7103101-.3481383h6.9282946c.3555813-.1742781.5329457 0 .7107364.3481383z"/><mask id="c" fill="#fff"><use fill="#fff" fill-rule="evenodd" xlink:href="#b"/></mask></defs><g fill="none" fill-rule="evenodd"><path d="m0 0h80v80h-80z" fill="url(#a)"/><g transform="translate(7 10)"><path d="m0 0h60v60h-60z"/><use fill="#b9bbbe" xlink:href="#b"/><path d="m0 0h60v60h-60z" fill="#fff" mask="url(#c)"/></g></g></svg>