<svg height="160" viewBox="0 0 160 160" width="160" xmlns="http://www.w3.org/2000/svg"><g fill="none" fill-rule="evenodd"><path d="m119.8941 119.4976c-27.337 27.337-71.659 27.337-98.995 0-27.337-27.336-27.337-71.658 0-98.995 27.337-27.336 71.659-27.337 98.995 0 27.337 27.337 27.336 71.659 0 98.995z" stroke="#d5dbed" stroke-dasharray="4 5" stroke-linecap="round" stroke-linejoin="round" stroke-width="2" transform="translate(11 9)"/><g transform="matrix(.93969262 -.34202014 .34202014 .93969262 -6.013356 106.060565)"><path d="m121.617678 34.9327c-1.102 1.209-2.267 2.369-3.493 3.475 1.226-1.106 2.391-2.266 3.493-3.475" fill="#f3f9ff"/><path d="m107.950678 41.315c4.141-1.908 7.792-4.442 10.912-7.427l-18.284-18.163-11.7200001 5.959-8.948-6.561-4.693 5.723-12.143-19.782-11.86 4.234c.039 5.51 1.212 11.099 3.667 16.427 9.245 20.064 33.005 28.835 53.0690001 19.59" fill="#fff"/><path d="m118.863 33.888-18.284-18.163-11.72 5.959-8.948-6.561-4.693 5.723-12.143-19.782-11.86 4.235" stroke="#d5dbed" stroke-linecap="round" stroke-linejoin="round" stroke-width="2"/><path d="m.57527792 46.7481c-1.445-3.136-.074-6.849 3.062-8.294l47.22899998-21.762 5.232 11.356-47.22899998 21.762c-3.136 1.445-6.849.074-8.294-3.062" fill="#c9d2f0"/><path d="m.57527792 46.7481c-1.445-3.136-.074-6.849 3.062-8.294l47.22899998-21.762 5.232 11.356-47.22899998 21.762c-3.136 1.445-6.849.074-8.294-3.062z" stroke="#1e2126" stroke-linecap="round" stroke-linejoin="round" stroke-width="2"/><path d="m10.7617779 48.938-5.23199998-11.356c-.963-2.09-.05-4.566 2.041-5.529l22.39599998-10.32c2.091-.963 4.566-.049 5.529 2.041l5.233 11.356c.963 2.091.05 4.566-2.041 5.53l-22.396 10.319c-2.091.963-4.567.049-5.53-2.041" fill="#9f7373"/><path d="m10.7617779 48.938-5.23199998-11.356c-.963-2.09-.05-4.566 2.041-5.529l22.39599998-10.32c2.091-.963 4.566-.049 5.529 2.041l5.233 11.356c.963 2.091.05 4.566-2.041 5.53l-22.396 10.319c-2.091.963-4.567.049-5.53-2.041z" stroke="#1e2126" stroke-linecap="round" stroke-linejoin="round" stroke-width="2"/><path d="m69.3222779 50.3428c-2.179-1.05-4.285-2.257-6.3-3.616 2.015 1.359 4.121 2.566 6.3 3.616" fill="#f3f9ff"/><path d="m107.950678 41.315c-20.0640001 9.245-43.8240001.474-53.0690001-19.59-2.455-5.328-3.628-10.917-3.667-16.427l-.108.039-5.333-5.337-4.864 2.619c-.375 7.819 1.06 15.841 4.562 23.442 4.001 8.684 10.162 15.687 17.55 20.666 2.015 1.359 4.122 2.566 6.301 3.616s4.43 1.942 6.735 2.67c1.536.486 3.097.898 4.675 1.235 1.579.337 3.176.599 4.785.783.805.093 1.613.166 2.423.219 1.62.107 3.251.136 4.886.084 6.538-.207 13.1440001-1.699 19.4590001-4.609 4.737-2.182 8.974-5.007 12.655-8.324 1.226-1.105 2.391-2.265 3.493-3.474 1.101-1.209 2.139-2.467 3.111-3.768.971-1.302 1.877-2.646 2.716-4.029.569-.94 1.095-1.902 1.601-2.875l-16.999 5.633c-3.12 2.985-6.771 5.519-10.912 7.427" fill="#f3f9ff"/><path d="m107.950678 41.315c-20.0640001 9.245-43.8240001.474-53.0690001-19.59-2.455-5.328-3.628-10.917-3.667-16.427l-.108.039-5.333-5.337-4.864 2.619c-.375 7.819 1.06 15.841 4.562 23.442 4.001 8.684 10.162 15.687 17.55 20.666 2.015 1.359 4.122 2.566 6.301 3.616s4.43 1.942 6.735 2.67c1.536.486 3.097.898 4.675 1.235 1.579.337 3.176.599 4.785.783.805.093 1.613.166 2.423.219 1.62.107 3.251.136 4.886.084 6.538-.207 13.1440001-1.699 19.4590001-4.609 4.737-2.182 8.974-5.007 12.655-8.324 1.226-1.105 2.391-2.265 3.493-3.474 1.101-1.209 2.139-2.467 3.111-3.768.971-1.302 1.877-2.646 2.716-4.029.569-.94 1.095-1.902 1.601-2.875l-16.999 5.633c-3.12 2.985-6.771 5.519-10.912 7.427z" stroke="#1e2126" stroke-linecap="round" stroke-linejoin="round" stroke-width="2"/></g><path d="m0 0h160v160h-160z"/></g></svg>