<?xml version="1.0" encoding="utf-8"?>
<!-- Generator: Adobe Illustrator 25.1.0, SVG Export Plug-In . SVG Version: 6.00 Build 0)  -->
<svg version="1.1" id="Layer_1" xmlns="http://www.w3.org/2000/svg" xmlns:xlink="http://www.w3.org/1999/xlink" x="0px" y="0px"
	 viewBox="0 0 280 168" style="enable-background:new 0 0 280 168;" xml:space="preserve">
<style type="text/css">
	.st0{fill:#202225;}
	.st1{fill:#FFFFFF;}
	.st2{fill:#5865F2;}
	.st3{fill:none;}
	.st4{fill:#3F99F2;}
	.st5{fill:#FF78B9;}
	.st6{fill:#FFFFFF;stroke:#FFAB18;stroke-width:1.11;stroke-miterlimit:10;}
	.st7{fill:#FFFFFF;stroke:#FFAB18;stroke-width:1.03;stroke-miterlimit:10;}
	.st8{fill:#FFC619;}
	.st9{fill:#FFAB18;}
	.st10{fill:url(#SVGID_1_);}
	.st11{fill:#66BCFF;}
	.st12{fill:#EB459F;}
	.st13{fill:#D11583;}
	.st14{fill:#FFE75C;}
	.st15{fill:#FF8C19;}
</style>
<g>
	<g>
		<path class="st0" d="M0,168V0h280v168H0z"/>
		<path class="st1" d="M100,36.4c0-2.9-1.4-4.3-3.3-4.3c-1.1,0-1.9,0.6-2.5,1.2V28l-2.2,0.3v12.2c1.1,0.4,2.2,0.6,3.6,0.6
			C98.3,41.1,100,39.6,100,36.4z M97.8,36.5c0,2-0.8,2.8-2.2,2.8c-0.6,0-0.9-0.1-1.4-0.2v-3.9c0.5-0.6,1.2-1.1,1.9-1.1
			C97.1,34,97.8,34.9,97.8,36.5z M109.5,36.6c0-2.8-1.7-4.5-4.1-4.5c-2.4,0-4.1,1.7-4.1,4.5s1.7,4.5,4.1,4.5
			C107.8,41.2,109.5,39.5,109.5,36.6z M107.4,36.7c0,1.6-0.7,2.8-2,2.8c-1.3,0-2-1.2-2-2.8c0-1.6,0.7-2.8,2-2.8
			C106.7,33.9,107.4,35.1,107.4,36.7z M117.1,36.5c0,1.9-0.8,2.8-2,2.8c-0.7,0-1.2-0.1-1.7-0.4v-3.7c0.6-0.7,1.2-1.2,2-1.2
			C116.4,34,117.1,34.9,117.1,36.5z M119.2,36.4c0-2.9-1.5-4.3-3.3-4.3c-1.2,0-2.1,0.7-2.7,1.4l-0.2-1.2h-1.8v12l2.2-0.3v-3.3
			c0.5,0.2,1.2,0.3,2,0.3C117.4,41.1,119.2,39.6,119.2,36.4z M126.8,36.5c0,1.9-0.8,2.8-2,2.8c-0.7,0-1.2-0.1-1.7-0.4v-3.7
			c0.6-0.7,1.2-1.2,2-1.2C126.1,34,126.8,34.9,126.8,36.5z M129,36.4c0-2.9-1.5-4.3-3.3-4.3c-1.2,0-2.1,0.7-2.7,1.4l-0.2-1.2H121v12
			l2.2-0.3v-3.3c0.5,0.2,1.2,0.3,2,0.3C127.2,41.1,129,39.6,129,36.4z M134.2,33.6c1,0,1.6,0.8,1.7,2.1h-3.5
			C132.6,34.3,133.3,33.6,134.2,33.6z M138,40.1l-0.3-1.7c-1,0.7-1.9,1.1-3,1.1c-1.3,0-2.2-0.7-2.3-2.4h5.6c0-0.1,0-0.3,0-0.5
			c0-2.5-1.2-4.4-3.8-4.4c-2.3,0-4,1.7-4,4.5c0,3.1,1.8,4.5,4.2,4.5C135.9,41.2,137.1,40.8,138,40.1z M145,34.3l-0.3-2.1
			c-1.4,0.1-2.2,0.9-2.8,1.9l-0.3-1.7h-1.8V41h2.2v-5C142.6,35.1,143.7,34.4,145,34.3z"/>
		<path class="st2" d="M171.6,40c0-0.1,0-0.2,0-0.2l-1.9-12.1c0-0.2-0.1-0.4-0.3-0.5c-0.1-0.1-0.3-0.2-0.5-0.3l-9-1.9
			c-0.1,0-0.1,0-0.2,0s-0.1,0.1-0.2,0.1c-0.1,0-0.1,0.1-0.1,0.2c0,0.1,0,0.1,0,0.2l1.3,8c-0.7-0.4-1.4-0.6-2.2-0.6
			c-0.8-0.1-1.5,0-2.2,0.3c-2.6,0.7-4.3,2.4-4.2,4.4c0.1,2,2.4,3.1,5,2.4c2.6-0.7,4.7-2.7,4.5-4.8c0,0,0-0.1,0-0.1v-0.2l-0.8-5.2
			l8.9,1.9l1.1,6.7c-0.6-0.4-1.2-0.6-1.9-0.7c-0.7-0.1-1.4,0-2.1,0.2c-1.1,0.2-2.1,0.7-2.8,1.6c-0.7,0.8-1.1,1.9-1.1,3
			c0.1,2,2.2,3.2,4.6,2.6C169.9,44.3,171.7,42.1,171.6,40z M160.5,28.5l-0.2-1.2l8.9,1.8l0.2,1.2L160.5,28.5z"/>
		<path class="st1" d="M102.1,59.4h-1.4L99.1,65l-1.7-5.6h-1.2L94.5,65l-1.7-5.8l-1.4,0.2l2.4,7.6h1.2l1.7-5.8l1.7,5.8h1.2
			L102.1,59.4z M110.1,63.2c0-2.5-1.5-4-3.6-4c-2,0-3.5,1.5-3.5,4s1.5,4,3.5,4C108.6,67.2,110.1,65.7,110.1,63.2z M108.6,63.2
			c0,1.6-0.7,2.8-2.1,2.8c-1.3,0-2.1-1.2-2.1-2.8c0-1.6,0.7-2.8,2.1-2.8S108.6,61.6,108.6,63.2z M121.7,59.4h-1.4l-1.6,5.6l-1.7-5.6
			h-1.2l-1.7,5.6l-1.7-5.8l-1.4,0.2l2.4,7.6h1.2l1.7-5.8L118,67h1.2L121.7,59.4z M137.6,67v-5.6c0-1.4-0.7-2.2-2.2-2.2
			c-1.1,0-2,0.6-2.7,1.3c-0.3-0.8-0.9-1.3-2-1.3c-1.1,0-1.9,0.6-2.7,1.3l-0.2-1.1h-1.1V67h1.4v-5.3c0.7-0.7,1.4-1.2,2.2-1.2
			c0.8,0,1.1,0.5,1.1,1.3V67h1.4v-5.3c0.7-0.7,1.4-1.2,2.2-1.2c0.8,0,1.1,0.5,1.1,1.3V67H137.6z M140.2,69.9c1.1,0,2-0.4,2.6-2.1
			l3.1-8.4h-1.5l-2,5.9l-2-6l-1.4,0.2l2.8,7.6l-0.2,0.5c-0.3,0.8-0.7,1.1-1.4,1.1c-0.2,0-0.5,0-0.8-0.1l0.2,1.3
			C139.8,69.9,139.9,69.9,140.2,69.9z M157.2,67v-5.6c0-1.4-0.8-2.2-2.2-2.2c-1.1,0-2,0.6-2.7,1.3l-0.2-1.1h-1.1V67h1.4v-5.3
			c0.7-0.7,1.5-1.2,2.2-1.2c0.8,0,1.2,0.5,1.2,1.3V67H157.2z M163.7,64.9c-0.6,0.7-1.4,1.1-2.3,1.1c-0.7,0-1.1-0.4-1.1-1
			c0-0.8,0.6-1.6,3.4-1.8V64.9z M165.2,67v-5.3c0-1.7-0.9-2.4-2.8-2.4c-1.2,0-2,0.3-3,0.6l0.2,1.2c0.8-0.4,1.7-0.7,2.6-0.7
			c0.9,0,1.5,0.3,1.5,1.3V62c-3.2,0.3-4.8,1.1-4.8,3c0,1.3,0.9,2.1,2.2,2.1c1.2,0,2.1-0.6,2.7-1.2l0.2,1H165.2z M178.2,67v-5.6
			c0-1.4-0.7-2.2-2.2-2.2c-1.1,0-2,0.6-2.7,1.3c-0.3-0.8-0.9-1.3-2-1.3c-1.1,0-1.9,0.6-2.7,1.3l-0.2-1.1h-1.1V67h1.4v-5.3
			c0.7-0.7,1.4-1.2,2.2-1.2c0.8,0,1.1,0.5,1.1,1.3V67h1.4v-5.3c0.7-0.7,1.4-1.2,2.2-1.2c0.8,0,1.1,0.5,1.1,1.3V67H178.2z
			 M183.3,60.3c1.1,0,1.6,0.7,1.8,1.9h-3.7C181.7,61,182.4,60.3,183.3,60.3z M186.6,66.1l-0.2-1.3c-0.8,0.7-1.6,1.1-2.7,1.1
			c-1.3,0-2.2-0.8-2.2-2.6h5.2V63c0-2.1-1-3.8-3.2-3.8c-1.9,0-3.4,1.5-3.4,4c0,2.8,1.6,4,3.5,4C184.8,67.2,185.8,66.8,186.6,66.1z
			 M193.5,67V55.4l-1.4,0.2V67H193.5z M202.4,63.2c0-2.5-1.5-4-3.6-4c-2,0-3.5,1.5-3.5,4s1.5,4,3.5,4
			C200.9,67.2,202.4,65.7,202.4,63.2z M201,63.2c0,1.6-0.7,2.8-2.1,2.8c-1.3,0-2.1-1.2-2.1-2.8c0-1.6,0.7-2.8,2.1-2.8
			C200.3,60.4,201,61.6,201,63.2z M210.9,63.2c0-2.5-1.5-4-3.6-4c-2,0-3.5,1.5-3.5,4s1.5,4,3.5,4C209.4,67.2,210.9,65.7,210.9,63.2z
			 M209.4,63.2c0,1.6-0.7,2.8-2.1,2.8c-1.3,0-2.1-1.2-2.1-2.8c0-1.6,0.7-2.8,2.1-2.8C208.7,60.4,209.4,61.6,209.4,63.2z M217.5,67.1
			l1.6-0.2l-3.5-4.1l3.2-3.4h-1.7l-3,3.2v-7.1l-1.4,0.2V67h1.4v-4L217.5,67.1z M225.6,64.9c0-1.5-0.8-2-2.7-2.5
			c-1.2-0.3-1.6-0.6-1.6-1.1c0-0.5,0.4-0.9,1.3-0.9c0.8,0,1.6,0.3,2.3,0.7l0.2-1.3c-0.7-0.3-1.6-0.5-2.5-0.5c-1.7,0-2.7,0.9-2.7,2.1
			c0,1.4,0.7,1.9,2.5,2.4c1.4,0.3,1.8,0.6,1.8,1.3c0,0.6-0.6,1-1.6,1c-1,0-2-0.4-2.7-0.9l-0.2,1.3c0.7,0.4,1.8,0.7,2.8,0.7
			C224.5,67.2,225.6,66.3,225.6,64.9z M234.5,56.9l-0.2-1.3c-0.2,0-0.4,0-0.6,0c-1.4,0-2.4,0.6-2.4,2.1v1.7h-1.2v1.2h1.2V67h1.4
			v-6.4h1.7l-0.2-1.2h-1.5v-1.6c0-0.7,0.4-1,1.1-1C234,56.8,234.3,56.8,234.5,56.9z M240,64.9c-0.6,0.7-1.4,1.1-2.3,1.1
			c-0.7,0-1.1-0.4-1.1-1c0-0.8,0.6-1.6,3.4-1.8V64.9z M241.4,67v-5.3c0-1.7-0.9-2.4-2.8-2.4c-1.2,0-2,0.3-3,0.6l0.2,1.2
			c0.8-0.4,1.7-0.7,2.6-0.7c0.9,0,1.5,0.3,1.5,1.3V62c-3.2,0.3-4.8,1.1-4.8,3c0,1.3,0.9,2.1,2.2,2.1c1.2,0,2.1-0.6,2.7-1.2l0.2,1
			H241.4z M249.8,67v-5.6c0-1.4-0.8-2.2-2.2-2.2c-1.1,0-2,0.6-2.7,1.3l-0.2-1.1h-1.1V67h1.4v-5.3c0.7-0.7,1.5-1.2,2.2-1.2
			c0.8,0,1.2,0.5,1.2,1.3V67H249.8z M257.8,66.4l-0.2-1.3c-0.8,0.6-1.5,0.8-2.3,0.8c-1.3,0-2.2-0.9-2.2-2.7c0-1.8,0.9-2.7,2.2-2.7
			c0.9,0,1.6,0.3,2.2,0.8l0.2-1.4c-0.5-0.4-1.3-0.7-2.4-0.7c-2,0-3.6,1.4-3.6,4c0,2.5,1.5,4,3.6,4C256.2,67.2,257,66.9,257.8,66.4z
			 M260,69.9c1.1,0,2-0.4,2.6-2.1l3.1-8.4h-1.5l-2,5.9l-2-6l-1.4,0.2l2.8,7.6l-0.2,0.5c-0.3,0.8-0.7,1.1-1.4,1.1
			c-0.2,0-0.5,0-0.8-0.1l0.2,1.3C259.6,69.9,259.7,69.9,260,69.9z"/>
		<path class="st3" d="M47,78c17.1,0,31-13.9,31-31S64.1,16,47,16S16,29.9,16,47S29.9,78,47,78z"/>
		<path class="st4" d="M47,78c17.1,0,31-13.9,31-31c0-17.1-13.9-31-31-31c-17.1,0-31,13.9-31,31C16,64.1,29.9,78,47,78z"/>
		<path class="st5" d="M37.4,28.2c-10.1-0.9-9.7,6.7-8.3,11.9c-0.6-1.1-1.2-2.1-2-3.1c-0.3-0.5-0.7-1-1.1-1.5l-0.5-0.8
			c-0.2-0.3-0.4-0.5-0.6-0.8l-0.1-0.1c-0.2-0.2-0.4-0.4-0.6-0.5c-0.6-0.3-1.2-0.4-1.9-0.2c-0.6,0.2-1.2,0.6-1.5,1.1
			c-0.3,0.6-0.5,1.2-0.3,1.9c0.1,0.6,0.5,1.2,1,1.6c0.4,0.3,0.9,0.6,1.4,1c0.5,0.4,0.9,0.7,1.4,1c0.9,0.7,1.8,1.4,2.6,2.2
			c0.3,0.3,0.6,0.6,0.9,0.9c-3.2-1.9-7.8-3.5-8.8,1.8c-1.6,8.3,5.7,10.9,10.2,10.7c0,0,13-4.1,15.9-9.7C45,45.7,52.6,29.6,37.4,28.2
			z"/>
		<path class="st6" d="M38.1,50.5c2.7-0.1,4.9-2.9,4.8-6.4s-2.4-6.2-5.1-6.2C35,38,32.9,40.8,33,44.3C33.1,47.8,35.3,50.6,38.1,50.5
			z"/>
		<path d="M36.6,41.4c0.3,0,0.6,0,0.9,0c0.3,0,0.5,0.1,0.8,0.2c0.5,0.2,1,0.4,1.5,0.8c0.4,0.4,0.7,0.8,0.9,1.3l0.1,0.2l0.1,0.2
			l0.1,0.4C41,44.7,41,45,41,45.2c0,0,0,0.1,0,0.1c0,0,0,0.1-0.1,0.1c0,0-0.1,0.1-0.1,0.1c0,0-0.1,0-0.1,0c-0.1,0-0.1,0-0.2,0
			c-0.1,0-0.1-0.1-0.1-0.2c-0.1-0.2-0.1-0.5-0.2-0.7l-0.1-0.3l-0.1-0.2L40,44.1c-0.2-0.4-0.5-0.7-0.8-1c-0.3-0.3-0.7-0.4-1.2-0.5
			c-0.2,0-0.4-0.1-0.7-0.1c-0.2,0-0.4,0-0.6,0c-0.1,0-0.1,0-0.2,0c-0.1,0-0.1,0-0.2-0.1c-0.1,0-0.1-0.1-0.1-0.2
			c0-0.1-0.1-0.1-0.1-0.2c0-0.1,0-0.3,0.1-0.4C36.3,41.5,36.4,41.4,36.6,41.4L36.6,41.4z"/>
		<path class="st7" d="M67.6,45.2c0.2-3.5-1.5-6.4-3.8-6.6c-2.3-0.2-4.4,2.5-4.7,6c-0.2,3.5,1.5,6.4,3.8,6.6
			C65.3,51.3,67.4,48.6,67.6,45.2z"/>
		<path d="M64.7,43.6c-0.3,0-0.5,0-0.8,0c-0.3,0.1-0.5,0.2-0.8,0.3c-0.3,0.1-0.5,0.3-0.6,0.6c-0.2,0.2-0.3,0.5-0.4,0.8
			c0,0,0,0.1-0.1,0.1c0,0-0.1,0.1-0.1,0.1c0,0-0.1,0-0.1,0c0,0-0.1,0-0.1,0c-0.1,0-0.1-0.1-0.2-0.1c0-0.1,0-0.1,0-0.2
			c0.1-0.4,0.2-0.7,0.4-1c0.2-0.3,0.4-0.6,0.7-0.9c0.3-0.2,0.6-0.4,1-0.5c0.4-0.1,0.8-0.2,1.2-0.2c0.1,0,0.3,0.1,0.3,0.2
			c0.1,0.1,0.1,0.2,0.1,0.4s0,0.3-0.1,0.4C65,43.5,64.9,43.5,64.7,43.6L64.7,43.6L64.7,43.6z"/>
		<path class="st8" d="M48.2,40.4c-2.9,3.4-6.2,6.3-9.9,8.7C35.7,50.7,32.9,52,30,53c-6.9,2.2-9.3,6.3-10.1,9
			c0.7,1.3,1.5,2.5,2.4,3.6c16,3.2,39.5-18,39.5-18C65.8,35.4,55.7,31.5,48.2,40.4z"/>
		<path d="M59.7,49.3c1.5-2.3,2.2-5,2-7.7c0-0.7-0.5-3.5-3.3-4c-1.7-0.3-3.5,0.1-4.9,1.1c-1.4,1-2.7,2.2-3.9,3.5
			c-1.5,1.5-4.5,5.6-6.2,7.3c-7.1,6.9-8.5,8-15.3,9.8C28,59.4,53.4,57.4,59.7,49.3z"/>
		<path class="st9" d="M59.4,49.1c0.6-0.8,1.1-1.8,1.4-2.8c0.3-1,0.5-2.1,0.5-3.1c0-0.5,0-1.1,0-1.6c0-0.5-0.2-1-0.4-1.4
			c-0.2-0.5-0.4-0.9-0.8-1.2c-0.4-0.3-0.8-0.6-1.2-0.8c-0.5-0.1-1-0.2-1.5-0.2c-0.5,0-1,0-1.5,0.2c-1,0.2-1.9,0.7-2.7,1.3
			c-0.8,0.6-1.6,1.4-2.4,2.1c-0.4,0.4-0.8,0.8-1.1,1.2c-0.3,0.4-0.7,0.8-1,1.2c-1.4,1.7-2.7,3.4-4.2,5.1c-0.4,0.4-0.8,0.8-1.2,1.2
			l-1.2,1.2c-0.8,0.8-1.6,1.5-2.4,2.3c-0.8,0.7-1.6,1.5-2.5,2.1c-0.4,0.3-0.9,0.7-1.4,1l-0.7,0.4c-0.2,0.1-0.5,0.3-0.7,0.4
			c-2,1-4.1,1.6-6.3,2L28,59.2c2.8-0.2,5.6-0.6,8.4-1.1c2.8-0.5,5.5-1,8.3-1.7c2.7-0.7,5.4-1.6,8-2.7c1.3-0.6,2.5-1.2,3.7-2
			C57.5,51,58.5,50.2,59.4,49.1z M60,49.6c-0.9,1.1-2,2.1-3.3,2.8c-1.2,0.8-2.5,1.4-3.8,2c-2.6,1.1-5.3,1.9-8.1,2.6
			c-2.7,0.7-5.5,1.2-8.3,1.6c-2.8,0.4-5.6,0.8-8.4,1l-1.8,0.1l1.7-0.6c2-0.7,4-1.5,5.9-2.4c1.8-1.1,3.6-2.3,5.1-3.8
			c0.8-0.7,1.6-1.5,2.4-2.2c0.8-0.8,1.6-1.5,2.3-2.3c1.4-1.6,2.8-3.3,4.2-5c0.3-0.4,0.7-0.8,1.1-1.3l1.1-1.2
			c0.8-0.8,1.6-1.5,2.5-2.2c0.9-0.7,2-1.2,3.1-1.5c1.1-0.2,2.3-0.2,3.4,0.1c0.6,0.2,1.1,0.5,1.5,1c0.4,0.4,0.8,0.9,1,1.5
			c0.2,0.5,0.4,1.1,0.4,1.7c0,0.6,0,1.1,0,1.7c-0.1,1.1-0.3,2.2-0.6,3.3C61.2,47.6,60.7,48.6,60,49.6L60,49.6z"/>
		
			<linearGradient id="SVGID_1_" gradientUnits="userSpaceOnUse" x1="55.7088" y1="144.6446" x2="40.5667" y2="116.6914" gradientTransform="matrix(1 0 0 -1 0 184)">
			<stop  offset="0" style="stop-color:#FFE75C"/>
			<stop  offset="1" style="stop-color:#FFC619"/>
		</linearGradient>
		<path class="st10" d="M69.5,48.4c-2.5-2.2-11.1-2.6-19.3,1.4s-12,7.5-18.2,7.6c-2.7,0-5.3,1-7.2,2.8c-1.7,1.6-2.9,3-2.9,3
			l-0.2,1.7c2.9,4,6.6,7.3,11,9.6C37.2,76.8,42.1,78,47,78c0.6,0,1.2,0,1.8-0.1c2.3-1.6,4.2-3.7,5.5-6.1c2.9-5.3,4.9-11.7,9.9-14.6
			C70.5,53.7,70.9,49.6,69.5,48.4z"/>
		<path class="st8" d="M47.8,55.9c-12.8,7.7-21.1,7.9-25.2,7.4l-0.1,0.8l23.1,12.4l5.4-0.4c1.3-1.2,2.4-2.7,3.2-4.2
			c2.9-5.3,4.9-11.7,9.9-14.6c2.1-1.1,3.9-2.7,5.2-4.6C66.9,50.5,60.3,48.4,47.8,55.9z"/>
		<path class="st9" d="M44.2,70.7c-0.2,0-0.3-0.1-0.4-0.2c-0.1-0.1-0.2-0.3-0.2-0.4c0-0.2,0.1-0.3,0.2-0.4c0.1-0.1,0.3-0.2,0.4-0.2
			c0.9-0.1,1.7-0.4,2.3-1.1c0.4-0.5,0.6-1.1,0.8-1.7c0.1-0.6,0.1-1.2,0-1.8l-0.1-0.6l0.6-0.1c0.5-0.1,1-0.3,1.4-0.7
			c0.4-0.4,0.7-0.9,0.8-1.4l0.1-0.5h0.5c0.6,0,1.1-0.2,1.6-0.6c0.5-0.3,0.8-0.8,1.1-1.3c0-0.1,0.1-0.1,0.1-0.2
			c0.1-0.1,0.1-0.1,0.2-0.1c0.1,0,0.2-0.1,0.2-0.1c0.1,0,0.2,0,0.2,0c0.2,0.1,0.3,0.2,0.3,0.3c0.1,0.2,0.1,0.3,0,0.5
			c-0.3,0.7-0.7,1.3-1.3,1.7c-0.6,0.5-1.3,0.8-2,0.9c-0.2,0.6-0.5,1.2-1,1.6c-0.5,0.4-1,0.8-1.7,0.9c0.1,0.7,0,1.4-0.2,2.1
			c-0.2,0.7-0.5,1.3-1,1.9C46.6,70.2,45.4,70.7,44.2,70.7L44.2,70.7z"/>
		<path class="st9" d="M34.1,73.3c-0.1,0-0.3-0.1-0.4-0.2c-0.1-0.1-0.2-0.2-0.2-0.4c0-0.1,0-0.3,0.1-0.4c0.1-0.1,0.2-0.2,0.4-0.2
			c1-0.2,1.8-0.7,2.5-1.5c0.6-0.8,1-1.7,1-2.7v-0.6h0.6c0.6,0,1.2-0.3,1.6-0.7s0.7-1,0.7-1.6c0-0.1,0.1-0.3,0.3-0.4
			c0.1-0.1,0.3-0.1,0.4-0.1c0.1,0,0.3,0.1,0.4,0.2c0.1,0.1,0.1,0.3,0.1,0.4c-0.1,0.8-0.4,1.5-0.9,2.1c-0.5,0.6-1.2,1-2,1.1
			c-0.1,1.2-0.7,2.2-1.4,3.1C36.4,72.5,35.3,73.1,34.1,73.3L34.1,73.3z"/>
		<path class="st9" d="M51.3,69.2c-0.1,0-0.3-0.1-0.4-0.1s-0.2-0.2-0.2-0.3c0-0.1,0-0.3,0-0.4c0.1-0.1,0.2-0.2,0.3-0.3
			c0,0,2.1-1,2-2.7v-0.5l0.5-0.1c0.5-0.1,1-0.4,1.4-0.7c0.4-0.4,0.6-0.8,0.7-1.4c0-0.2,0.1-0.3,0.3-0.4s0.3-0.1,0.4-0.1
			c0.1,0,0.1,0,0.2,0.1c0.1,0,0.1,0.1,0.2,0.2c0,0.1,0.1,0.1,0.1,0.2c0,0.1,0,0.2,0,0.2c-0.1,0.7-0.4,1.3-0.9,1.8
			c-0.5,0.5-1,0.9-1.7,1.1c-0.3,2.2-2.6,3.3-2.7,3.3C51.5,69.2,51.4,69.2,51.3,69.2z"/>
		<path class="st1" d="M100,110.4c0-2.9-1.4-4.3-3.3-4.3c-1.1,0-1.9,0.6-2.5,1.2V102l-2.2,0.3v12.2c1.1,0.4,2.2,0.6,3.6,0.6
			C98.3,115.1,100,113.6,100,110.4z M97.8,110.5c0,2-0.8,2.8-2.2,2.8c-0.6,0-0.9-0.1-1.4-0.2v-3.9c0.5-0.6,1.2-1.1,1.9-1.1
			C97.1,108,97.8,108.9,97.8,110.5z M109.5,110.6c0-2.8-1.7-4.5-4.1-4.5c-2.4,0-4.1,1.7-4.1,4.5c0,2.8,1.7,4.5,4.1,4.5
			C107.8,115.2,109.5,113.5,109.5,110.6z M107.4,110.7c0,1.6-0.7,2.8-2,2.8c-1.3,0-2-1.2-2-2.8c0-1.6,0.7-2.8,2-2.8
			C106.7,107.9,107.4,109.1,107.4,110.7z M118.7,115v-6.3c0-1.6-0.9-2.6-2.5-2.6c-1.2,0-2.1,0.6-2.9,1.4l-0.2-1.2h-1.8v8.7h2.2v-5.9
			c0.6-0.7,1.3-1.1,2-1.1c0.8,0,1.1,0.5,1.1,1.3v5.7H118.7z M128.7,110.4c0-2.9-1.4-4.3-3.3-4.3c-1.1,0-1.9,0.6-2.5,1.2V102
			l-2.2,0.3v12.2c1.1,0.4,2.2,0.6,3.6,0.6C127,115.1,128.7,113.6,128.7,110.4z M126.6,110.5c0,2-0.8,2.8-2.2,2.8
			c-0.6,0-0.9-0.1-1.4-0.2v-3.9c0.5-0.6,1.2-1.1,1.9-1.1C125.9,108,126.6,108.9,126.6,110.5z M138.2,110.6c0-2.8-1.7-4.5-4.1-4.5
			c-2.4,0-4.1,1.7-4.1,4.5c0,2.8,1.7,4.5,4.1,4.5C136.5,115.2,138.2,113.5,138.2,110.6z M136.1,110.7c0,1.6-0.7,2.8-2,2.8
			c-1.3,0-2-1.2-2-2.8c0-1.6,0.7-2.8,2-2.8C135.4,107.9,136.1,109.1,136.1,110.7z M147.4,115v-6.3c0-1.6-0.9-2.6-2.5-2.6
			c-1.2,0-2.1,0.6-2.9,1.4l-0.2-1.2H140v8.7h2.2v-5.9c0.6-0.7,1.3-1.1,2-1.1c0.8,0,1.1,0.5,1.1,1.3v5.7H147.4z"/>
		<path class="st5" d="M160.7,101.3c3.6-2.3,9.1-1.3,10.7,2.5c2.9-4.9,6.7-6,9.3-3.8L172,107L160.7,101.3z"/>
		<path class="st4" d="M168.1,119h0.6c0.4,0,0.9-0.2,1.2-0.5l6.3-5.8c0.1-0.1,0.1-0.2,0.2-0.3l5.9-11.8c0.1-0.1,0.1-0.3,0.1-0.5
			c0-0.2-0.1-0.3-0.3-0.4c-0.1-0.1-0.3-0.2-0.4-0.2s-0.3,0.1-0.4,0.2L172,107l-12-6c-0.2-0.1-0.5-0.1-0.7-0.1
			c-0.2,0.1-0.3,0.1-0.4,0.3c-0.1,0.1-0.2,0.3-0.2,0.5l-2.6,11.1c0,0.1,0,0.2,0,0.3c0,0.1,0.1,0.2,0.2,0.2l11.1,5.5
			C167.6,118.9,167.9,119,168.1,119z"/>
		<path class="st11" d="M158.8,101.2c-0.1,0.1-0.2,0.3-0.2,0.4l-2.6,11.1c0,0.1,0,0.2,0,0.3c0,0.1,0.1,0.2,0.2,0.2l11,5.5
			c0.1,0,0.1,0.1,0.2,0.1c0.1,0,0.1,0,0.2,0c0.1,0,0.1-0.1,0.2-0.1c0,0,0.1-0.1,0.1-0.2l3.9-10c0.1-0.1,0.1-0.3,0-0.4
			c-0.1-0.1-0.2-0.3-0.3-0.3L158.8,101.2z"/>
		<path class="st1" d="M98.7,137.2c0-2.5-1.5-4-3.6-4c-2,0-3.5,1.5-3.5,4c0,2.5,1.5,4,3.5,4C97.2,141.2,98.7,139.7,98.7,137.2z
			 M97.3,137.2c0,1.6-0.7,2.8-2.1,2.8c-1.3,0-2.1-1.2-2.1-2.8c0-1.6,0.7-2.8,2.1-2.8S97.3,135.6,97.3,137.2z M107.2,137.2
			c0-2.5-1.5-4-3.6-4c-2,0-3.5,1.5-3.5,4c0,2.5,1.5,4,3.5,4C105.7,141.2,107.2,139.7,107.2,137.2z M105.7,137.2
			c0,1.6-0.7,2.8-2.1,2.8c-1.3,0-2.1-1.2-2.1-2.8c0-1.6,0.7-2.8,2.1-2.8S105.7,135.6,105.7,137.2z M115.2,141v-5.6
			c0-1.4-0.8-2.2-2.2-2.2c-1.1,0-2,0.6-2.6,1.2v-4.9l-1.4,0.2V141h1.4v-5.3c0.7-0.7,1.5-1.2,2.2-1.2c0.8,0,1.2,0.5,1.2,1.3v5.2
			H115.2z M122.5,141v-11.6l-1.4,0.2V141H122.5z M131.5,137.2c0-2.5-1.5-4-3.6-4c-2,0-3.5,1.5-3.5,4c0,2.5,1.5,4,3.5,4
			C130,141.2,131.5,139.7,131.5,137.2z M130,137.2c0,1.6-0.7,2.8-2.1,2.8c-1.3,0-2.1-1.2-2.1-2.8c0-1.6,0.7-2.8,2.1-2.8
			C129.3,134.4,130,135.6,130,137.2z M139.9,137.2c0-2.5-1.5-4-3.6-4c-2,0-3.5,1.5-3.5,4c0,2.5,1.5,4,3.5,4
			C138.4,141.2,139.9,139.7,139.9,137.2z M138.5,137.2c0,1.6-0.7,2.8-2.1,2.8c-1.3,0-2.1-1.2-2.1-2.8c0-1.6,0.7-2.8,2.1-2.8
			C137.7,134.4,138.5,135.6,138.5,137.2z M146.5,141.1l1.6-0.2l-3.5-4.1l3.2-3.4h-1.7l-3,3.2v-7.1l-1.4,0.2V141h1.4v-4L146.5,141.1z
			 M163.8,141v-5.6c0-1.4-0.7-2.2-2.2-2.2c-1.1,0-2,0.6-2.7,1.3c-0.3-0.8-0.9-1.3-2-1.3c-1.1,0-1.9,0.6-2.7,1.3l-0.2-1.1h-1.1v7.6
			h1.4v-5.3c0.7-0.7,1.4-1.2,2.2-1.2c0.8,0,1.1,0.5,1.1,1.3v5.2h1.4v-5.3c0.7-0.7,1.4-1.2,2.2-1.2c0.8,0,1.1,0.5,1.1,1.3v5.2H163.8z
			 M168.9,134.3c1.1,0,1.6,0.7,1.8,1.9H167C167.3,135,168,134.3,168.9,134.3z M172.1,140.1l-0.2-1.3c-0.8,0.7-1.6,1.1-2.7,1.1
			c-1.3,0-2.2-0.8-2.2-2.6h5.2V137c0-2.1-1-3.8-3.2-3.8c-1.9,0-3.4,1.5-3.4,4c0,2.8,1.6,4,3.5,4
			C170.3,141.2,171.3,140.8,172.1,140.1z M181.1,141l-0.2-1.2c-0.2,0-0.4,0-0.7,0c-0.8,0-1.1-0.4-1.1-1v-4.3h1.8l-0.2-1.2h-1.6v-2.8
			l-1.4,0.2v2.5h-1.2v1.2h1.2v4.5c0,1.5,0.9,2,2.2,2C180.6,141.1,180.9,141.1,181.1,141z M189.4,137.2c0-2.5-1.5-4-3.6-4
			c-2,0-3.5,1.5-3.5,4c0,2.5,1.5,4,3.5,4C187.9,141.2,189.4,139.7,189.4,137.2z M188,137.2c0,1.6-0.7,2.8-2.1,2.8
			c-1.3,0-2.1-1.2-2.1-2.8c0-1.6,0.7-2.8,2.1-2.8C187.3,134.4,188,135.6,188,137.2z M197.9,137.2c0-2.5-1.5-4-3.6-4
			c-2,0-3.5,1.5-3.5,4c0,2.5,1.5,4,3.5,4C196.4,141.2,197.9,139.7,197.9,137.2z M196.4,137.2c0,1.6-0.7,2.8-2.1,2.8
			c-1.3,0-2.1-1.2-2.1-2.8c0-1.6,0.7-2.8,2.1-2.8C195.7,134.4,196.4,135.6,196.4,137.2z M201.6,130h-1.7l0.4,7.8l0.9-0.2L201.6,130z
			 M201.5,141v-1.9h-1.6v1.9H201.5z"/>
		<path class="st3" d="M47,152c17.1,0,31-13.9,31-31S64.1,90,47,90s-31,13.9-31,31S29.9,152,47,152z"/>
		<path class="st12" d="M47.4,152.8c17.3,0,31.4-14,31.4-31.4S64.7,90,47.4,90S16,104,16,121.4S30,152.8,47.4,152.8z"/>
		<path class="st13" d="M54.8,125.2l-20.5-3.6c6.7,13.8,12,16.2,15.7,15.6C53.6,136.5,55.4,131.4,54.8,125.2z"/>
		<path class="st13" d="M54.8,125.2l11.3-12.1c0.8,15.3-2.2,18.7-4.9,19.7C58.5,133.9,56.2,131.2,54.8,125.2z"/>
		<path class="st14" d="M67.3,124.3c-2.7-6.3-18.8-10.4-22.1-9.1c-3.1,1.2-11.8,12.3-10.1,19.1c1.6,6.8,9.9,9.8,19.5,7.1
			S70.2,131.1,67.3,124.3z"/>
		<path class="st14" d="M46.2,120.5c-5.6-4.2-10.8-6-17.7-7.8c-5.2-1.3-5.3-6.1,0.7-6.6s13.1,4.1,17.3,8.9
			c3.4-9.8,3.6-13.2,8.5-13.3c4.9,0,7.7,4.5,8.5,6.7c0.7,1.7,0.7,3.1-1.9,3.9s-4.7-0.9-6.2-3.1c-1.3,3.6-2.9,7.1-4.8,10.4
			C49.4,121.8,48.8,122.4,46.2,120.5z"/>
		<path class="st8" d="M50.4,115.2c0.1,0,0.1-0.1,0.2-0.1c0.1-0.1,0.1-0.1,0.1-0.2l2.9-7.6c0-0.1,0-0.1,0-0.2s0-0.1,0-0.2
			c0-0.1-0.1-0.1-0.1-0.2c0,0-0.1-0.1-0.2-0.1c-0.1,0-0.1,0-0.2,0c-0.1,0-0.1,0-0.2,0c-0.1,0.1-0.2,0.1-0.3,0.3l-2.9,7.6
			c0,0.1,0,0.1,0,0.2c0,0.1,0,0.1,0,0.2c0,0.1,0.1,0.1,0.1,0.2c0,0,0.1,0.1,0.2,0.1C50.2,115.2,50.3,115.2,50.4,115.2z"/>
		<path class="st15" d="M54.8,125.2c0.7,6.2-1.2,11.3-4.9,11.9c-3.2,0.6-7.7-1.3-13.3-11.1c0.6-1.3,1.2-2.5,2-3.7L54.8,125.2z"/>
		<path class="st15" d="M66,122.4c-0.6,7.6-2.8,9.7-4.8,10.5c-2.7,1-5-1.6-6.5-7.6l6.1-6.5C62.8,119.7,64.5,120.9,66,122.4z"/>
		<path d="M60.8,125.4c0.1,0,0.1-0.1,0.2-0.1c0-0.1,0.1-0.1,0.1-0.2l0.8-1.7c0-0.1,0-0.1,0-0.2c0-0.1,0-0.1,0-0.2
			c0-0.1-0.1-0.2-0.3-0.3s-0.3-0.1-0.4,0c-0.1,0-0.2,0.1-0.3,0.2l-0.8,1.7c0,0.1,0,0.1,0,0.2c0,0.1,0,0.1,0,0.2
			c0,0.1,0.1,0.1,0.1,0.2c0,0,0.1,0.1,0.2,0.1C60.6,125.4,60.7,125.4,60.8,125.4z"/>
		<path d="M61.2,126.3c0.1,0,0.2-0.1,0.2-0.1l1.6-1.6c0.1-0.1,0.1-0.2,0.2-0.4c0-0.1-0.1-0.3-0.2-0.3c-0.1-0.1-0.2-0.1-0.3-0.1
			c-0.1,0-0.3,0.1-0.4,0.2l-1.6,1.6c-0.1,0.1-0.1,0.2-0.1,0.4c0,0.1,0,0.2,0.1,0.3c0.1,0.1,0.2,0.1,0.3,0.2
			C61.1,126.3,61.2,126.3,61.2,126.3z"/>
		<path d="M47.5,129.4c0.1,0,0.1-0.1,0.2-0.1c0,0,0.1-0.1,0.1-0.2s0-0.1,0-0.2c0-0.1,0-0.1,0-0.2c0-0.1-0.1-0.1-0.1-0.2l-1.7-1.7
			c0,0-0.1-0.1-0.2-0.1c-0.1,0-0.1,0-0.2,0c-0.1,0-0.2,0-0.3,0.1c-0.1,0.1-0.2,0.1-0.2,0.2c0,0.1-0.1,0.2,0,0.3
			c0,0.1,0.1,0.2,0.1,0.3l1.6,1.7c0.1,0.1,0.1,0.1,0.2,0.1C47.4,129.4,47.5,129.4,47.5,129.4z"/>
		<path d="M47.7,130.3c0.1,0,0.2-0.1,0.2-0.1c0.1-0.1,0.1-0.1,0.1-0.2c0-0.1,0-0.1,0-0.2c0-0.1,0-0.1,0-0.2c0-0.1-0.1-0.1-0.1-0.2
			c-0.1,0-0.1-0.1-0.2-0.1l-3.5-1.1c-0.1,0-0.1,0-0.2,0c-0.1,0-0.1,0-0.2,0.1c-0.1,0-0.1,0.1-0.2,0.1c0,0.1-0.1,0.1-0.1,0.2
			c0,0.1,0,0.1,0,0.2c0,0.1,0,0.1,0,0.2c0,0.1,0.1,0.1,0.1,0.2s0.1,0.1,0.2,0.1l3.5,1.1C47.5,130.4,47.6,130.4,47.7,130.3z"/>
		<path class="st1" d="M47.8,132.9c-0.4-0.2-0.7-0.5-0.9-0.8c-0.3-0.3-0.4-0.7-0.5-1.1c-0.1-0.4-0.1-0.8-0.1-1.3
			c0.1-0.4,0.2-0.8,0.4-1.2c0.3-0.8,0.9-1.5,1.7-1.8s1.7-0.4,2.5-0.1c0.4,0.2,0.7,0.5,0.9,0.8s0.4,0.7,0.5,1.1
			c0.1,0.4,0.1,0.8,0.1,1.3c-0.1,0.4-0.2,0.8-0.4,1.2c-0.3,0.8-0.9,1.5-1.7,1.8C49.5,133.2,48.6,133.2,47.8,132.9z"/>
		<path class="st1" d="M61.9,126.1c0.2-1.8-0.8-3.2-2.3-3.2c-1.4,0-2.8,1.4-3.1,3.2c-0.3,1.8,0.7,3.5,2.3,3.5S61.7,128,61.9,126.1z"
			/>
		<path d="M50.2,128.4c-0.2-0.1-0.4-0.3-0.5-0.5c-0.1-0.2-0.1-0.5,0-0.7c0.1-0.2,0.4-0.3,0.6-0.4c0.2,0,0.5,0,0.7,0.2
			c0.2,0.1,0.4,0.3,0.5,0.5c0.1,0.2,0.1,0.5,0,0.7c-0.2,0.2-0.4,0.3-0.6,0.3C50.6,128.6,50.4,128.6,50.2,128.4z"/>
		<path d="M59.2,125.2c-0.2-0.1-0.3-0.3-0.3-0.5c0-0.2,0-0.4,0.2-0.6c0.2-0.1,0.4-0.2,0.6-0.1c0.2,0,0.4,0.1,0.5,0.3
			c0.1,0.1,0.1,0.1,0.2,0.2c0,0.1,0.1,0.2,0.1,0.3c0,0.1,0,0.2,0,0.3c0,0.1-0.1,0.2-0.1,0.3c-0.2,0.1-0.4,0.2-0.6,0.1
			C59.6,125.5,59.4,125.4,59.2,125.2z"/>
		<path d="M58,136.5c0.1,0,0.2-0.1,0.3-0.2c0.1-0.1,0.1-0.2,0.1-0.3c0-0.1,0-0.1-0.1-0.2c0-0.1-0.1-0.1-0.1-0.1c0,0-0.1-0.1-0.2-0.1
			c-0.1,0-0.1,0-0.2,0c-1,0-2-0.1-3-0.3c-0.1,0-0.1,0-0.2,0c-0.1,0-0.1,0-0.2,0.1c-0.1,0-0.1,0.1-0.2,0.1c0,0.1-0.1,0.1-0.1,0.2
			c0,0.1,0,0.1,0,0.2c0,0.1,0,0.1,0.1,0.2c0,0.1,0.1,0.1,0.1,0.1c0.1,0,0.1,0.1,0.2,0.1C55.7,136.5,56.8,136.6,58,136.5L58,136.5z"
			/>
		<path d="M53,105.9c-0.1-0.1-0.2-0.2-0.4-0.2c-0.1,0-0.1,0-0.2,0c-0.1,0-0.1,0.1-0.2,0.1c-0.1,0-0.1,0.1-0.1,0.2
			c0,0.1,0,0.1-0.1,0.2c0,0.1,0,0.1,0,0.2c0,0.1,0.1,0.1,0.1,0.2c1,1.2,1.9,2.5,2.8,3.8c0.2-0.4,0.3-0.8,0.4-1.2
			C54.7,108,53.9,106.9,53,105.9z"/>
		<path class="st8" d="M45.9,118c0.1,0,0.2-0.1,0.2-0.2c0,0,0.1-0.1,0.1-0.2c0-0.1,0-0.1,0-0.2c0-0.1-0.1-0.2-0.2-0.3
			c-4.7-4.3-10.7-6.8-17-7.3c-0.1,0-0.1,0-0.2,0c-0.1,0-0.1,0-0.2,0.1c-0.1,0-0.1,0.1-0.1,0.2c0,0.1,0,0.1-0.1,0.2
			c0,0.1,0,0.1,0,0.2c0,0.1,0,0.1,0.1,0.2c0,0.1,0.1,0.1,0.1,0.1c0.1,0,0.1,0.1,0.2,0.1c6.1,0.5,11.9,3,16.5,7.1
			c0.1,0,0.1,0.1,0.2,0.1C45.8,118,45.9,118,45.9,118z"/>
		<path class="st15" d="M54.6,131c0.6-3.4,0.4-4,2-0.7l0.3-0.1l-1.4-5.1l-0.8,0.1l-1.4,0.8l0.9,5H54.6z"/>
	</g>
</g>
</svg>
