<svg enable-background="new 0 0 35 35" viewBox="0 0 35 35" xmlns="http://www.w3.org/2000/svg"><circle cx="17.5" cy="17.5" fill="#fff" r="17.5"/><path d="m11.8 13.6 4.9-6.4 4.1 2.8 2.6 4.9-.5 7.7-6.2 3.4-4.9-2.8z" fill="#ffcffa"/><path d="m10.3 12.1v10.6l3.3-2.1v-7.7l3.4-3.4v-4.9z" fill="#fa6ff6"/><path d="m24.4 11.8-7.4-7.2v4.9l3.9 3.6z" fill="#fdabfb"/><path d="m24.4 11.8-3.6 1.3v7.2l-3.6 3.9v5.7l7.2-7.5z" fill="#fa73f6"/><path d="m13.6 20.6 3.6 3.6v5.7l-6.9-7.2z" fill="#e756d5"/><circle cx="17.5" cy="17.5" fill="#f0b232" opacity=".8" r="17.5"/><path d="m18.3 20.5h-2.1l-.4-11h3zm-1.1 5.7c-.5 0-1-.2-1.3-.5s-.5-.8-.5-1.3.2-1 .5-1.3.8-.5 1.3-.5 1 .2 1.3.5.5.7.5 1.3-.2 1-.5 1.3-.7.5-1.3.5z" fill="#060607"/></svg>