<svg width="220" height="110" viewBox="0 0 220 110" fill="none" xmlns="http://www.w3.org/2000/svg">
<path opacity="0.3" d="M220 110H0V99.176C0 92.3201 2.72347 85.7451 7.57129 80.8973C12.4191 76.0495 18.9942 73.326 25.85 73.326H40.568V62.48C40.5709 59.723 41.1175 56.9936 42.1766 54.4481C43.2356 51.9027 44.7863 49.591 46.7399 47.6456C48.6935 45.7002 51.0116 44.1592 53.5615 43.1109C56.1114 42.0625 58.843 41.5273 61.6 41.536H187.286C195.962 41.536 204.283 44.9826 210.418 51.1177C216.553 57.2528 220 65.5737 220 74.25V110Z" fill="#DCDDDE"/>
<path d="M180.576 12.782H70.7298C66.781 12.782 63.5798 15.9832 63.5798 19.932V91.322C63.5798 95.2708 66.781 98.472 70.7298 98.472H180.576C184.525 98.472 187.726 95.2708 187.726 91.322V19.932C187.726 15.9832 184.525 12.782 180.576 12.782Z" fill="#C7CCD1"/>
<path d="M187.726 19.932V27.984L152.79 55.638L145.684 61.248L134.002 70.4C131.621 72.2808 128.676 73.3038 125.642 73.3038C122.608 73.3038 119.663 72.2808 117.282 70.4L105.6 61.248L98.4939 55.638L63.5799 27.984V19.932C63.5775 18.9807 63.7645 18.0384 64.1299 17.16L122.782 63.602C123.6 64.2553 124.617 64.6111 125.664 64.6111C126.711 64.6111 127.727 64.2553 128.546 63.602L187.176 17.16C187.541 18.0384 187.728 18.9807 187.726 19.932Z" fill="#B1B8BF"/>
<path d="M108.35 59.07L105.622 61.27L64.1298 94.072C63.7662 93.2008 63.5793 92.266 63.5798 91.322V83.292L98.5158 55.638L102.916 52.184L108.35 59.07Z" fill="#B1B8BF"/>
<path d="M187.726 83.292V91.322C187.727 92.266 187.54 93.2008 187.176 94.072L145.684 61.248L142.956 59.048L148.412 52.162L152.812 55.616L187.726 83.292Z" fill="#B1B8BF"/>
<path d="M187.726 48.884C201.225 48.884 212.168 37.9409 212.168 24.442C212.168 10.9431 201.225 0 187.726 0C174.227 0 163.284 10.9431 163.284 24.442C163.284 37.9409 174.227 48.884 187.726 48.884Z" fill="#E1316A"/>
<path d="M187.484 40.326C190.048 40.326 192.126 38.2477 192.126 35.684C192.126 33.1203 190.048 31.042 187.484 31.042C184.92 31.042 182.842 33.1203 182.842 35.684C182.842 38.2477 184.92 40.326 187.484 40.326Z" fill="white"/>
<path d="M187.484 26.4C186.436 26.4033 185.426 26.0108 184.655 25.3011C183.884 24.5913 183.409 23.6166 183.326 22.572L182.6 13.2C182.542 12.5186 182.626 11.8325 182.848 11.1855C183.07 10.5385 183.423 9.94473 183.887 9.44189C184.35 8.93905 184.914 8.53819 185.54 8.26482C186.167 7.99145 186.844 7.85154 187.528 7.85401V7.85401C188.206 7.86064 188.876 8.00725 189.495 8.28464C190.114 8.56204 190.669 8.96425 191.126 9.46609C191.582 9.96793 191.93 10.5586 192.147 11.2011C192.365 11.8436 192.448 12.5241 192.39 13.2L191.642 22.55C191.559 23.5967 191.085 24.5738 190.315 25.2871C189.545 26.0005 188.534 26.3978 187.484 26.4Z" fill="white"/>
</svg>
