<?xml version="1.0" encoding="UTF-8"?>
<svg width="120px" height="74px" viewBox="0 0 120 74" version="1.1" xmlns="http://www.w3.org/2000/svg" xmlns:xlink="http://www.w3.org/1999/xlink">
    <!-- Generator: Sketch 44.1 (41455) - http://www.bohemiancoding.com/sketch -->
    <title>svg/img_test_camera_light</title>
    <desc>Created with Sketch.</desc>
    <defs>
        <polygon id="path-1" points="11.75 0.9648 11.75 2.9648 0.6211 2.9648 0.6211 0.9648 11.75 0.9648"></polygon>
        <polygon id="path-3" points="56.3269526 73 0 73 0 0.863325079 112.653905 0.863325079 112.653905 73 56.3269526 73"></polygon>
        <polygon id="path-5" points="0 73 118.75 73 118.75 0.863 0 0.863"></polygon>
    </defs>
    <g id="Page-1" stroke="none" stroke-width="1" fill="none" fill-rule="evenodd">
        <g id="img_test_camera_light">
            <g id="Page-1" transform="translate(1.000000, 0.000000)">
                <polygon id="Fill-1" fill="#FFFFFF" points="36.217 33.3049 43.929 33.3049 43.929 32.1419 36.217 32.1419"></polygon>
                <g id="Group-54" transform="translate(0.000000, 0.136900)">
                    <path d="M50.795,27.955 L47.316,33.168 L48.689,33.168 C52.062,30.993 56.072,29.726 60.376,29.726 C64.68,29.726 68.69,30.993 72.064,33.168 L73.436,33.168 L69.957,27.955 L50.795,27.955 Z" id="Fill-2" fill="#F7F7F8"></path>
                    <path d="M91.6837,51.7567 L82.0027,51.7567 C81.9807,52.9717 81.8587,54.1607 81.6437,55.3197 L91.6837,55.3197 L91.6837,51.7567 Z" id="Fill-4" fill="#FFFFFF"></path>
                    <path d="M91.6837,57.3192 L81.1717,57.3192 C79.9627,61.5332 77.5097,65.2242 74.2327,67.9652 L91.6837,67.9652 L91.6837,57.3192 Z" id="Fill-6" fill="#F7F7F8"></path>
                    <path d="M29.0685,42.247 L29.0685,49.757 L38.8035,49.757 C39.0015,47.092 39.6795,44.559 40.7585,42.247 L29.0685,42.247 Z" id="Fill-8" fill="#F7F7F8"></path>
                    <path d="M91.6837,42.247 L89.4677,42.247 C89.0367,43.647 87.7457,44.675 86.2057,44.675 C84.6657,44.675 83.3757,43.647 82.9447,42.247 L79.9927,42.247 C81.0707,44.559 81.7497,47.092 81.9467,49.757 L91.6837,49.757 L91.6837,42.247 Z" id="Fill-10" fill="#F7F7F8"></path>
                    <path d="M38.714,64.3085 C38.714,64.8615 38.267,65.3085 37.714,65.3085 L32.051,65.3085 C31.498,65.3085 31.051,64.8615 31.051,64.3085 L31.051,61.0735 C31.051,60.5205 31.498,60.0735 32.051,60.0735 L37.714,60.0735 C38.267,60.0735 38.714,60.5205 38.714,61.0735 L38.714,64.3085 Z M39.579,57.3195 L29.068,57.3195 L29.068,67.9645 L46.519,67.9645 C43.241,65.2245 40.788,61.5335 39.579,57.3195 L39.579,57.3195 Z" id="Fill-12" fill="#F7F7F8"></path>
                    <path d="M38.7482,51.7567 L29.0682,51.7567 L29.0682,55.3197 L39.1072,55.3197 C38.8932,54.1607 38.7702,52.9717 38.7482,51.7567" id="Fill-14" fill="#FFFFFF"></path>
                    <path d="M74.7032,35.1679 C76.3562,36.6329 77.7862,38.3439 78.9312,40.2469 L82.9442,40.2469 C83.3762,38.8469 84.6662,37.8189 86.2062,37.8189 C87.7452,37.8189 89.0362,38.8469 89.4682,40.2469 L91.6832,40.2469 L91.6832,37.4049 C91.6832,36.1719 90.6802,35.1679 89.4462,35.1679 L74.7032,35.1679 Z" id="Fill-16" fill="#FFFFFF"></path>
                    <path d="M41.8204,40.247 C42.9654,38.344 44.3944,36.633 46.0494,35.168 L31.3044,35.168 C30.0714,35.168 29.0684,36.172 29.0684,37.405 L29.0684,40.247 L41.8204,40.247 Z" id="Fill-18" fill="#FFFFFF"></path>
                    <path d="M87.0763,20.6308 C87.2833,20.6308 87.4903,20.5528 87.6473,20.3948 L88.6053,19.4378 C88.9223,19.1208 88.9223,18.6088 88.6053,18.2928 C88.2893,17.9768 87.7773,17.9768 87.4613,18.2928 L86.5043,19.2498 C86.1873,19.5668 86.1873,20.0778 86.5043,20.3948 C86.6613,20.5528 86.8683,20.6308 87.0763,20.6308" id="Fill-20" fill="#B9BBBE"></path>
                    <path d="M82.2882,25.4198 C82.4952,25.4198 82.7022,25.3408 82.8602,25.1828 L83.8172,24.2248 C84.1342,23.9088 84.1342,23.3968 83.8172,23.0808 C83.5012,22.7648 82.9882,22.7648 82.6732,23.0808 L81.7162,24.0378 C81.3992,24.3548 81.3992,24.8668 81.7162,25.1828 C81.8742,25.3408 82.0812,25.4198 82.2882,25.4198" id="Fill-22" fill="#B9BBBE"></path>
                    <path d="M87.4611,25.1825 C87.6191,25.3405 87.8261,25.4195 88.0331,25.4195 C88.2401,25.4195 88.4471,25.3405 88.6061,25.1825 C88.9221,24.8675 88.9221,24.3545 88.6061,24.0375 L87.6481,23.0805 C87.3321,22.7645 86.8191,22.7645 86.5041,23.0805 C86.1881,23.3965 86.1881,23.9095 86.5041,24.2245 L87.4611,25.1825 Z" id="Fill-24" fill="#B9BBBE"></path>
                    <path d="M82.673,20.3944 C82.831,20.5524 83.038,20.6304 83.245,20.6304 C83.452,20.6304 83.66,20.5524 83.818,20.3944 C84.134,20.0784 84.134,19.5664 83.818,19.2494 L82.86,18.2924 C82.544,17.9764 82.031,17.9764 81.716,18.2924 C81.4,18.6084 81.4,19.1214 81.716,19.4374 L82.673,20.3944 Z" id="Fill-26" fill="#B9BBBE"></path>
                    <path d="M11.6339,47.5038 C12.3079,47.5038 12.8569,48.0518 12.8569,48.7258 C12.8569,49.3998 12.3079,49.9478 11.6339,49.9478 C10.9599,49.9478 10.4119,49.3998 10.4119,48.7258 C10.4119,48.0518 10.9599,47.5038 11.6339,47.5038 M11.6339,51.5658 C13.1999,51.5658 14.4749,50.2918 14.4749,48.7258 C14.4749,47.1598 13.1999,45.8858 11.6339,45.8858 C10.0689,45.8858 8.7939,47.1598 8.7939,48.7258 C8.7939,50.2918 10.0689,51.5658 11.6339,51.5658" id="Fill-28" fill="#B9BBBE"></path>
                    <path d="M18.1085,37.4755 L18.5215,37.4755 C18.9685,37.4755 19.3315,37.8375 19.3315,38.2845 L19.3315,38.6985 C19.3315,39.1455 19.6935,39.5065 20.1395,39.5065 C20.5875,39.5065 20.9495,39.1455 20.9495,38.6985 L20.9495,38.2845 C20.9495,37.8375 21.3115,37.4755 21.7585,37.4755 L22.1715,37.4755 C22.6185,37.4755 22.9805,37.1135 22.9805,36.6655 C22.9805,36.2185 22.6185,35.8565 22.1715,35.8565 L21.7585,35.8565 C21.3115,35.8565 20.9495,35.4945 20.9495,35.0475 L20.9495,34.6345 C20.9495,34.1875 20.5875,33.8255 20.1395,33.8255 C19.6935,33.8255 19.3315,34.1875 19.3315,34.6345 L19.3315,35.0475 C19.3315,35.4945 18.9685,35.8565 18.5215,35.8565 L18.1085,35.8565 C17.6625,35.8565 17.2995,36.2185 17.2995,36.6655 C17.2995,37.1135 17.6625,37.4755 18.1085,37.4755" id="Fill-30" fill="#B9BBBE"></path>
                    <path d="M12.4435,32.619 L12.8565,32.619 C13.3025,32.619 13.6665,32.981 13.6665,33.429 L13.6665,33.842 C13.6665,34.289 14.0285,34.651 14.4745,34.651 C14.9225,34.651 15.2845,34.289 15.2845,33.842 L15.2845,33.429 C15.2845,32.981 15.6465,32.619 16.0935,32.619 L16.5065,32.619 C16.9535,32.619 17.3155,32.258 17.3155,31.81 C17.3155,31.363 16.9535,31.001 16.5065,31.001 L16.0935,31.001 C15.6465,31.001 15.2845,30.639 15.2845,30.191 L15.2845,29.779 C15.2845,29.332 14.9225,28.97 14.4745,28.97 C14.0285,28.97 13.6665,29.332 13.6665,29.779 L13.6665,30.191 C13.6665,30.639 13.3025,31.001 12.8565,31.001 L12.4435,31.001 C11.9975,31.001 11.6345,31.363 11.6345,31.81 C11.6345,32.258 11.9975,32.619 12.4435,32.619" id="Fill-32" fill="#B9BBBE"></path>
                    <path d="M108.4728,50.7548 C108.9198,50.7548 109.2828,50.3928 109.2828,49.9448 C109.2828,49.4978 108.9198,49.1358 108.4728,49.1358 L108.0598,49.1358 C107.6138,49.1358 107.2508,48.7738 107.2508,48.3258 L107.2508,47.9138 C107.2508,47.4668 106.8888,47.1048 106.4418,47.1048 C105.9938,47.1048 105.6318,47.4668 105.6318,47.9138 L105.6318,48.3258 C105.6318,48.7738 105.2698,49.1358 104.8238,49.1358 L104.4108,49.1358 C103.9628,49.1358 103.6008,49.4978 103.6008,49.9448 C103.6008,50.3928 103.9628,50.7548 104.4108,50.7548 L104.8238,50.7548 C105.2698,50.7548 105.6318,51.1168 105.6318,51.5638 L105.6318,51.9778 C105.6318,52.4248 105.9938,52.7858 106.4418,52.7858 C106.8888,52.7858 107.2508,52.4248 107.2508,51.9778 L107.2508,51.5638 C107.2508,51.1168 107.6138,50.7548 108.0598,50.7548 L108.4728,50.7548 Z" id="Fill-34" fill="#B9BBBE"></path>
                    <g id="Group-38" transform="translate(107.000000, 67.000000)">
                        <mask id="mask-2" fill="white">
                            <use xlink:href="#path-1"></use>
                        </mask>
                        <g id="Clip-37"></g>
                        <path d="M10.7501,0.9648 L1.6211,0.9648 C1.0681,0.9648 0.6211,1.4118 0.6211,1.9648 C0.6211,2.5178 1.0681,2.9648 1.6211,2.9648 L10.7501,2.9648 C11.3031,2.9648 11.7501,2.5178 11.7501,1.9648 C11.7501,1.4118 11.3031,0.9648 10.7501,0.9648" id="Fill-36" fill="#B9BBBE" mask="url(#mask-2)"></path>
                    </g>
                    <g id="Group-41">
                        <mask id="mask-4" fill="white">
                            <use xlink:href="#path-3"></use>
                        </mask>
                        <g id="Clip-40"></g>
                        <path d="M52.9747,25.955 C52.9137,25.821 52.8637,25.677 52.8047,25.539 L58.0647,13.991 C60.3327,18.055 62.2717,22.407 63.7137,25.955 L52.9747,25.955 Z M81.1717,57.319 L89.4677,57.319 C90.6917,57.319 91.6837,58.311 91.6837,59.535 L91.6837,65.749 C91.6837,66.973 90.6917,67.965 89.4677,67.965 L74.2327,67.965 C77.5097,65.225 79.9627,61.533 81.1717,57.319 L81.1717,57.319 Z M40.7387,51.362 C40.7387,40.534 49.5477,31.726 60.3757,31.726 C71.2037,31.726 80.0127,40.534 80.0127,51.362 C80.0127,62.19 71.2037,71 60.3757,71 C49.5477,71 40.7387,62.19 40.7387,51.362 L40.7387,51.362 Z M31.2847,57.319 L39.5787,57.319 C40.7877,61.533 43.2417,65.225 46.5187,67.965 L31.2847,67.965 C30.0607,67.965 29.0687,66.973 29.0687,65.749 L29.0687,59.535 C29.0687,58.311 30.0607,57.319 31.2847,57.319 L31.2847,57.319 Z M89.4467,35.168 C90.6797,35.168 91.6837,36.172 91.6837,37.405 L91.6837,40.247 L89.4677,40.247 C89.0367,38.847 87.7457,37.819 86.2057,37.819 C84.6657,37.819 83.3757,38.847 82.9447,40.247 L78.9307,40.247 C77.7867,38.344 76.3567,36.633 74.7037,35.168 L89.4467,35.168 Z M83.6627,51.757 L89.9197,51.757 C90.8937,51.757 91.6837,52.547 91.6837,53.52 L91.6837,53.556 C91.6837,54.53 90.8937,55.319 89.9197,55.319 L83.6607,55.319 C82.6167,55.319 81.8167,54.42 81.9127,53.381 C81.9137,53.368 81.9147,53.356 81.9157,53.345 C81.9977,52.443 82.7587,51.757 83.6627,51.757 L83.6627,51.757 Z M84.7787,41.247 C84.7787,40.46 85.4187,39.819 86.2057,39.819 C86.9937,39.819 87.6337,40.46 87.6337,41.247 C87.6337,42.034 86.9937,42.675 86.2057,42.675 C85.4187,42.675 84.7787,42.034 84.7787,41.247 L84.7787,41.247 Z M81.9467,49.757 C81.7497,47.092 81.0707,44.559 79.9927,42.247 L82.9447,42.247 C83.3757,43.647 84.6657,44.675 86.2057,44.675 C87.7457,44.675 89.0367,43.647 89.4677,42.247 C90.6917,42.247 91.6837,43.239 91.6837,44.463 L91.6837,49.757 L81.9467,49.757 Z M30.8317,51.757 L37.0867,51.757 C37.9927,51.757 38.7527,52.443 38.8347,53.345 C38.8357,53.356 38.8367,53.368 38.8377,53.381 C38.9347,54.42 38.1347,55.319 37.0907,55.319 L30.8317,55.319 C29.8577,55.319 29.0687,54.53 29.0687,53.556 L29.0687,53.52 C29.0687,52.547 29.8577,51.757 30.8317,51.757 L30.8317,51.757 Z M29.0687,49.757 L29.0687,44.463 C29.0687,43.239 30.0607,42.247 31.2847,42.247 L40.7587,42.247 C39.6797,44.559 39.0007,47.092 38.8037,49.757 L29.0687,49.757 Z M67.8107,27.955 C69.1517,27.955 70.4047,28.625 71.1487,29.74 L73.4357,33.168 L72.0637,33.168 C68.6897,30.993 64.6797,29.726 60.3757,29.726 C56.0727,29.726 52.0617,30.993 48.6887,33.168 L47.3167,33.168 L49.6037,29.74 C50.3477,28.625 51.5997,27.955 52.9407,27.955 L67.8107,27.955 Z M36.2167,33.168 L43.9287,33.168 L43.9287,32.005 L36.2167,32.005 L36.2167,33.168 Z M31.3047,35.168 L46.0487,35.168 C44.3947,36.633 42.9647,38.344 41.8207,40.247 L29.0687,40.247 L29.0687,37.405 C29.0687,36.172 30.0717,35.168 31.3047,35.168 L31.3047,35.168 Z M99.7607,23.395 C99.7607,23.395 99.9467,40.858 99.9857,40.964 C98.3727,43.234 96.5427,45.425 94.4627,47.415 C94.1307,47.732 94.0587,48.236 94.2867,48.635 C94.3357,48.721 99.0507,57.194 95.6067,67.965 L93.6837,67.965 L93.6837,37.405 C93.6837,35.132 91.8797,33.285 89.6297,33.186 C92.1337,30.259 95.6297,26.595 99.7607,23.395 L99.7607,23.395 Z M103.6217,67.965 L102.6237,67.965 C100.1877,67.965 98.3617,65.81 98.6657,63.393 C99.6027,55.962 97.3117,50.267 96.3817,48.338 C109.0517,35.788 112.4957,16.868 112.6387,16.058 C112.6987,15.718 112.5787,15.371 112.3217,15.141 C112.0647,14.91 111.7077,14.827 111.3757,14.924 C101.9717,17.636 93.8737,25.268 88.9217,30.904 C87.6657,32.335 85.8667,33.168 83.9627,33.168 L78.5147,33.168 C76.8437,33.168 75.2827,32.333 74.3557,30.943 L71.3247,26.4 C71.1387,26.122 70.8267,25.955 70.4917,25.955 L67.5657,25.955 C66.5557,25.955 65.6497,25.352 65.2647,24.42 C63.6537,20.514 61.4897,15.789 58.9407,11.489 C58.8917,11.312 58.8007,11.155 58.6647,11.027 C56.1417,6.849 53.2567,3.124 50.1657,1.035 C49.8757,0.838 49.5027,0.809 49.1857,0.956 C48.8677,1.104 48.6497,1.407 48.6127,1.757 C48.5407,2.412 47.0737,16.673 50.8047,25.955 L50.2597,25.955 C49.9257,25.955 49.6137,26.122 49.4277,26.4 L45.9287,31.644 L45.9287,31.005 C45.9287,30.453 45.4807,30.005 44.9287,30.005 L35.2167,30.005 C34.6637,30.005 34.2167,30.453 34.2167,31.005 L34.2167,33.168 L31.3047,33.168 C28.9647,33.168 27.0687,35.064 27.0687,37.404 L27.0687,63.965 C27.0687,66.174 25.2777,67.965 23.0687,67.965 L0.9997,67.965 C0.4477,67.965 -0.0003,68.412 -0.0003,68.965 C-0.0003,69.518 0.4477,69.965 0.9997,69.965 L28.0687,69.965 L49.3417,69.965 C52.5757,71.891 56.3477,73 60.3757,73 C64.4047,73 68.1767,71.891 71.4107,69.965 L92.6837,69.965 L103.6217,69.965 C104.1747,69.965 104.6217,69.518 104.6217,68.965 C104.6217,68.412 104.1747,67.965 103.6217,67.965 L103.6217,67.965 Z" id="Fill-39" fill="#B9BBBE" mask="url(#mask-4)"></path>
                    </g>
                    <mask id="mask-6" fill="white">
                        <use xlink:href="#path-5"></use>
                    </mask>
                    <g id="Clip-43"></g>
                    <polygon id="Fill-42" fill="#FFFFFF" mask="url(#mask-6)" points="33.051 63.309 36.714 63.309 36.714 62.074 33.051 62.074"></polygon>
                    <path d="M86.2062,42.6747 C86.9932,42.6747 87.6342,42.0337 87.6342,41.2467 C87.6342,40.4597 86.9932,39.8197 86.2062,39.8197 C85.4192,39.8197 84.7782,40.4597 84.7782,41.2467 C84.7782,42.0337 85.4192,42.6747 86.2062,42.6747" id="Fill-44" fill="#FFFFFF" mask="url(#mask-6)"></path>
                    <path d="M33.051,63.309 L36.714,63.309 L36.714,62.074 L33.051,62.074 L33.051,63.309 Z M37.714,60.073 L32.051,60.073 C31.498,60.073 31.051,60.52 31.051,61.073 L31.051,64.309 C31.051,64.861 31.498,65.309 32.051,65.309 L37.714,65.309 C38.267,65.309 38.714,64.861 38.714,64.309 L38.714,61.073 C38.714,60.52 38.267,60.073 37.714,60.073 L37.714,60.073 Z" id="Fill-45" fill="#B9BBBE" mask="url(#mask-6)"></path>
                    <path d="M53.8458,67.7011 C53.3328,67.4961 53.0828,66.9141 53.2878,66.4011 C53.2938,66.3851 53.3088,66.3751 53.3158,66.3591 C52.8348,66.1331 52.3678,65.8851 51.9138,65.6141 C51.9058,65.6301 51.9048,65.6461 51.8948,65.6611 C51.7008,65.9451 51.3868,66.0981 51.0668,66.0981 C50.8728,66.0981 50.6778,66.0431 50.5048,65.9261 C48.9448,64.8641 47.5708,63.5691 46.4218,62.0751 C46.0848,61.6381 46.1678,61.0101 46.6058,60.6731 C46.6148,60.6661 46.6248,60.6651 46.6338,60.6591 C46.3248,60.2051 46.0398,59.7341 45.7778,59.2491 C45.7668,59.2551 45.7608,59.2631 45.7508,59.2681 C45.2478,59.5021 44.6548,59.2841 44.4228,58.7841 C43.3358,56.4501 42.7848,53.9531 42.7848,51.3621 C42.7848,41.6631 50.6768,33.7711 60.3758,33.7711 C70.0748,33.7711 77.9668,41.6631 77.9668,51.3621 C77.9668,61.0611 70.0748,68.9531 60.3758,68.9531 C58.1198,68.9531 55.9228,68.5321 53.8458,67.7011 M60.3758,71.0001 C71.2038,71.0001 80.0128,62.1901 80.0128,51.3621 C80.0128,40.5341 71.2038,31.7251 60.3758,31.7251 C49.5478,31.7251 40.7388,40.5341 40.7388,51.3621 C40.7388,62.1901 49.5478,71.0001 60.3758,71.0001" id="Fill-46" fill="#FFFFFF" mask="url(#mask-6)"></path>
                    <path d="M50.0685,51.3622 C50.0685,45.6792 54.6925,41.0552 60.3765,41.0552 C66.0585,41.0552 70.6825,45.6792 70.6825,51.3622 C70.6825,57.0462 66.0585,61.6702 60.3765,61.6702 C54.6925,61.6702 50.0685,57.0462 50.0685,51.3622 M54.5885,65.8432 C56.4275,66.5802 58.3755,66.9532 60.3765,66.9532 C68.9725,66.9532 75.9665,59.9592 75.9665,51.3622 C75.9665,42.7652 68.9725,35.7712 60.3765,35.7712 C51.7795,35.7712 44.7855,42.7652 44.7855,51.3622 C44.7855,53.6602 45.2735,55.8732 46.2355,57.9402 C46.4645,58.4312 46.2565,59.0082 45.7775,59.2492 C46.0405,59.7342 46.3255,60.2052 46.6335,60.6592 C47.0695,60.3452 47.6775,60.4272 48.0075,60.8562 C49.0265,62.1812 50.2455,63.3302 51.6305,64.2712 C52.0715,64.5722 52.1885,65.1622 51.9145,65.6142 C52.3685,65.8842 52.8355,66.1332 53.3155,66.3592 C53.5365,65.8772 54.0935,65.6442 54.5885,65.8432" id="Fill-47" fill="#DCDDDE" mask="url(#mask-6)"></path>
                    <path d="M77.9669,51.3622 C77.9669,41.6632 70.0749,33.7712 60.3759,33.7712 C50.6769,33.7712 42.7849,41.6632 42.7849,51.3622 C42.7849,53.9532 43.3359,56.4502 44.4229,58.7842 C44.6539,59.2842 45.2479,59.5022 45.7509,59.2682 C45.7609,59.2632 45.7669,59.2552 45.7779,59.2492 C46.2569,59.0082 46.4639,58.4312 46.2359,57.9402 C45.2739,55.8732 44.7849,53.6602 44.7849,51.3622 C44.7849,42.7652 51.7799,35.7712 60.3759,35.7712 C68.9729,35.7712 75.9669,42.7652 75.9669,51.3622 C75.9669,59.9592 68.9729,66.9532 60.3759,66.9532 C58.3749,66.9532 56.4279,66.5802 54.5879,65.8432 C54.0939,65.6442 53.5359,65.8772 53.3159,66.3592 C53.3089,66.3752 53.2939,66.3842 53.2879,66.4012 C53.0829,66.9142 53.3329,67.4962 53.8459,67.7012 C55.9229,68.5322 58.1199,68.9532 60.3759,68.9532 C70.0749,68.9532 77.9669,61.0612 77.9669,51.3622" id="Fill-48" fill="#B9BBBE" mask="url(#mask-6)"></path>
                    <path d="M51.63,64.2714 C50.245,63.3304 49.026,62.1814 48.008,60.8564 C47.678,60.4274 47.069,60.3454 46.634,60.6594 C46.625,60.6654 46.614,60.6664 46.606,60.6724 C46.168,61.0094 46.085,61.6374 46.422,62.0754 C47.57,63.5694 48.944,64.8644 50.505,65.9254 C50.678,66.0424 50.873,66.0984 51.067,66.0984 C51.387,66.0984 51.701,65.9454 51.895,65.6614 C51.904,65.6464 51.905,65.6294 51.914,65.6144 C52.189,65.1624 52.071,64.5724 51.63,64.2714" id="Fill-49" fill="#B9BBBE" mask="url(#mask-6)"></path>
                    <path d="M65.2179,52.498 C65.1109,52.96 64.6989,53.27 64.2449,53.27 C64.1699,53.27 64.0929,53.262 64.0169,53.244 C63.4789,53.118 63.1449,52.58 63.2709,52.043 C63.3219,51.821 63.3489,51.592 63.3489,51.362 C63.3489,50.81 63.7959,50.362 64.3489,50.362 C64.9019,50.362 65.3489,50.81 65.3489,51.362 C65.3489,51.745 65.3049,52.128 65.2179,52.498 M63.0909,55.53 C62.2819,56.058 61.3439,56.336 60.3759,56.336 C57.6339,56.336 55.4039,54.104 55.4039,51.362 C55.4039,48.62 57.6339,46.39 60.3759,46.39 C60.9289,46.39 61.3759,46.837 61.3759,47.39 C61.3759,47.942 60.9289,48.39 60.3759,48.39 C58.7379,48.39 57.4039,49.724 57.4039,51.362 C57.4039,53.002 58.7379,54.336 60.3759,54.336 C60.9539,54.336 61.5159,54.17 61.9969,53.854 C62.4599,53.555 63.0779,53.683 63.3819,54.145 C63.6839,54.608 63.5529,55.227 63.0909,55.53 M60.3759,43.056 C55.7949,43.056 52.0689,46.782 52.0689,51.362 C52.0689,55.943 55.7949,59.67 60.3759,59.67 C64.9559,59.67 68.6829,55.943 68.6829,51.362 C68.6829,46.782 64.9559,43.056 60.3759,43.056" id="Fill-50" fill="#FFFFFF" mask="url(#mask-6)"></path>
                    <path d="M60.3761,59.6698 C55.7951,59.6698 52.0681,55.9428 52.0681,51.3618 C52.0681,46.7818 55.7951,43.0558 60.3761,43.0558 C64.9561,43.0558 68.6831,46.7818 68.6831,51.3618 C68.6831,55.9428 64.9561,59.6698 60.3761,59.6698 M70.6831,51.3618 C70.6831,45.6798 66.0591,41.0558 60.3761,41.0558 C54.6921,41.0558 50.0681,45.6798 50.0681,51.3618 C50.0681,57.0458 54.6921,61.6698 60.3761,61.6698 C66.0591,61.6698 70.6831,57.0458 70.6831,51.3618" id="Fill-51" fill="#B9BBBE" mask="url(#mask-6)"></path>
                    <path d="M64.3488,50.3622 C63.7958,50.3622 63.3488,50.8092 63.3488,51.3622 C63.3488,51.5912 63.3228,51.8212 63.2708,52.0432 C63.1448,52.5802 63.4788,53.1182 64.0168,53.2442 C64.0928,53.2612 64.1698,53.2702 64.2448,53.2702 C64.6998,53.2702 65.1108,52.9602 65.2178,52.4982 C65.3048,52.1282 65.3488,51.7452 65.3488,51.3622 C65.3488,50.8092 64.9018,50.3622 64.3488,50.3622" id="Fill-52" fill="#B9BBBE" mask="url(#mask-6)"></path>
                    <path d="M61.9972,53.8544 C61.5162,54.1694 60.9542,54.3354 60.3762,54.3354 C58.7372,54.3354 57.4032,53.0014 57.4032,51.3624 C57.4032,49.7234 58.7372,48.3894 60.3762,48.3894 C60.9292,48.3894 61.3762,47.9424 61.3762,47.3894 C61.3762,46.8364 60.9292,46.3894 60.3762,46.3894 C57.6342,46.3894 55.4032,48.6204 55.4032,51.3624 C55.4032,54.1044 57.6342,56.3354 60.3762,56.3354 C61.3442,56.3354 62.2822,56.0574 63.0912,55.5304 C63.5532,55.2274 63.6842,54.6084 63.3822,54.1454 C63.0782,53.6824 62.4602,53.5544 61.9972,53.8544" id="Fill-53" fill="#B9BBBE" mask="url(#mask-6)"></path>
                </g>
            </g>
            <rect id="Rectangle-31" x="0" y="0" width="120" height="74"></rect>
        </g>
    </g>
</svg>