<svg xmlns="http://www.w3.org/2000/svg" xmlns:xlink="http://www.w3.org/1999/xlink" width="240" height="242" viewBox="0 0 240 242">
    <defs>
        <path id="a" d="M.607.272h3.182v3.183H.607z"/>
        <path id="c" d="M.129 0h149-149z"/>
        <path id="e" d="M.137.437h21.646v19.106H.137z"/>
    </defs>
    <g fill="none" fill-rule="evenodd">
        <path fill="#4F545C" d="M0 129.044c0 9.436 7.649 17.085 17.085 17.085h9.449c16.507 0 29.888 13.381 29.888 29.888 0 16.506 13.381 29.886 29.887 29.886h105.564c5.622 0 10.18-4.557 10.18-10.179 0-5.623-4.558-10.18-10.18-10.18h-31.161a7.17 7.17 0 0 1-7.17-7.17v-.006a7.17 7.17 0 0 1 7.17-7.17h25.209c26.466 0 47.92-21.455 47.92-47.92 0-26.465-21.454-47.92-47.92-47.92H134.52c-11.03 0-19.97-8.94-19.97-19.97s-8.941-19.97-19.97-19.97H59.15c-7.262 0-13.15 5.886-13.15 13.148v.006c0 7.263 5.888 13.151 13.15 13.151H73.8c13.872 0 25.117 11.245 25.117 25.117 0 13.873-11.245 25.118-25.117 25.118H17.085C7.649 111.958 0 119.608 0 129.044" opacity=".3"/>
        <path fill="#36393F" d="M202.24 177.25h-172v-126c0-1.657 1.343-3 3-3h166a3 3 0 0 1 3 3v126z"/>
        <path fill="#FFF" d="M202.24 59.25h-172v-8c0-1.657 1.343-3 3-3h166a3 3 0 0 1 3 3v8z"/>
        <path fill="#202225" d="M31.24 173.25V63.472a3 3 0 0 1 3-3h164a3 3 0 0 1 3 3V173.25a3 3 0 0 1-3 3h-164c-1.657 0-3-1.344-3-3m2-124h166a2 2 0 0 1 2 2v4.222a3 3 0 0 1-3 3h-164c-1.657 0-3-1.344-3-3V51.25a2 2 0 0 1 2-2m166-2h-166c-2.206 0-4 1.794-4 4v126a1 1 0 0 0 1 1h172a1 1 0 0 0 1-1v-126c0-2.206-1.795-4-4-4"/>
        <path fill="#FFF" d="M19.607 176.102a.997.997 0 0 0 .707-.293l1.183-1.184a1 1 0 0 0-1.415-1.414l-1.183 1.184a.999.999 0 0 0 .707 1.707M13.69 182.018a.997.997 0 0 0 .708-.293l1.183-1.184a1 1 0 0 0-1.415-1.414l-1.183 1.184a.999.999 0 0 0 .707 1.707M20.082 181.725a.997.997 0 0 0 1.414 0 .999.999 0 0 0 0-1.414l-1.183-1.184a1 1 0 0 0-1.414 1.414l1.183 1.184zM14.166 175.809a.997.997 0 0 0 1.414 0 .999.999 0 0 0 0-1.414l-1.183-1.184a1 1 0 0 0-1.414 1.414l1.183 1.184z"/>
        <path fill="#ACB0FF" d="M237.607 73.102a.997.997 0 0 0 .707-.293l1.183-1.184a1 1 0 0 0-1.415-1.414l-1.183 1.184a.999.999 0 0 0 .708 1.707M231.69 79.018a.997.997 0 0 0 .708-.293l1.183-1.184a1 1 0 0 0-1.414-1.414l-1.184 1.184a.999.999 0 0 0 .707 1.707"/>
        <g transform="translate(236 75.563)">
            <mask id="b" fill="#fff">
                <use xlink:href="#a"/>
            </mask>
            <path fill="#ACB0FF" d="M2.082 3.162a.997.997 0 0 0 1.414 0 .999.999 0 0 0 0-1.414L2.313.564A1 1 0 0 0 .9 1.978l1.183 1.184z" mask="url(#b)"/>
        </g>
        <path fill="#ACB0FF" d="M232.166 72.809a.997.997 0 0 0 1.414 0 .999.999 0 0 0 0-1.414l-1.183-1.184a1 1 0 0 0-1.414 1.414l1.183 1.184z"/>
        <path fill="#FFF" d="M184.26 209.76h-.001a1.51 1.51 0 0 1-1.51-1.51 1 1 0 1 0-2 0 1.51 1.51 0 0 1-1.51 1.51 1.001 1.001 0 0 0 0 2c.834 0 1.51.676 1.51 1.51a1.001 1.001 0 0 0 2 0c0-.834.676-1.51 1.51-1.51a1 1 0 1 0 0-2"/>
        <path fill="#202225" d="M226.35 241.563h-53.471a1 1 0 0 1 0-2h53.47a1 1 0 1 1 0 2M163.379 241.563h-3.25a1 1 0 1 1 0-2h3.25a1 1 0 1 1 0 2"/>
        <g transform="translate(6 241.563)">
            <mask id="d" fill="#fff">
                <use xlink:href="#c"/>
            </mask>
            <path fill="#202225" d="M149.129 0h-149" mask="url(#d)"/>
        </g>
        <path fill="#202225" d="M35.225 52.75a1 1 0 1 0 0 1.999 1 1 0 0 0 0-2M45.225 52.75a1 1 0 1 0 0 1.999 1 1 0 0 0 0-2M40.225 52.75a1 1 0 1 0 0 1.999 1 1 0 0 0 0-2"/>
        <path fill="#D3D6ED" d="M63.648 13.47c-1.855-3.214-2.784-6.662-5.76-9.12-3.124-2.58-7.85-3.3-10.27.618-2.505 4.055.518 8.713 3.988 10.8 4.381 2.633 9.694 2.815 14.736 1.661-.424.094-2.417-3.477-2.694-3.959"/>
        <g transform="translate(45 -.437)">
            <mask id="f" fill="#fff">
                <use xlink:href="#e"/>
            </mask>
            <path fill="#202225" d="M21.759 17.646c-.073-.326-1.33-1.647-2.707-4.065l-.1-.173a.997.997 0 0 0-1.364-.367 1.001 1.001 0 0 0-.367 1.366l.094.163c.656 1.152 1.169 2.013 1.587 2.647-3.622.595-8.265.578-12.34-1.87-2.094-1.26-3.767-3.392-4.263-5.433l-.01-.04c-.331-1.409 1.489-2.309 2.476-1.252 1.662 1.78 3.203 2.892 3.329 2.981a.996.996 0 0 0 1.394-.235 1 1 0 0 0-.235-1.395C9.218 9.95 7.04 8.383 5.169 6.04c-.66-.826-.21-2.118.83-2.304l.06-.01c1.755-.294 3.913.411 5.632 1.832.817.675 1.536 1.494 2.195 2.505a1 1 0 0 0 1.675-1.094c-.772-1.18-1.621-2.147-2.597-2.953C10.78 2.21 8.073 1.366 5.734 1.75c-.455.076-1.068.317-1.58.546a.997.997 0 0 1-1.358-.62 5.72 5.72 0 0 1-.123-.453A1.002 1.002 0 0 0 1.482.46a1.002 1.002 0 0 0-.763 1.192c.102.465.347 1.14.56 1.682a2.001 2.001 0 0 1-.134 1.744c-.223.38-.451.785-.525.971-.535 1.363-.63 2.84-.264 4.337.625 2.574 2.608 5.132 5.176 6.676 2.744 1.65 5.98 2.482 9.55 2.482 1.89 0 3.873-.233 5.925-.703a1 1 0 0 0 .752-1.194" mask="url(#f)"/>
        </g>
        <path fill="#ACB0FF" d="M105.254 41.408c-6.181-.298-11.855-2.104-17.99-.146-6.438 2.056-11.71 8.039-8.395 14.967 3.431 7.17 12.693 7.129 18.748 4.142 7.647-3.771 12.696-11.06 15.622-19.175-.252.682-7.057.257-7.985.212"/>
        <path fill="#202225" d="M113.582 40.256c-.354-.129-2.814.447-7.958.17l-.32-.018c-1.765-.085-3.523-.299-5.223-.506-4.21-.515-8.563-1.047-13.122.408-2.449.782-4.664 2.064-6.406 3.71a.999.999 0 1 0 1.373 1.454c1.525-1.44 3.476-2.568 5.641-3.259 4.142-1.322 8.091-.839 12.272-.329 1.735.213 3.53.432 5.367.52l.311.017c1.96.105 3.461.155 4.617.157a.998.998 0 0 1 .903 1.41c-2.509 5.617-6.773 11.988-13.862 15.484-3.865 1.907-8.458 2.335-11.982 1.113-1.507-.52-2.71-1.196-3.67-2.162l-.018-.019c-1.143-1.19-.283-3.189 1.364-3.287.43-.025.811-.053 1.072-.085 4.905-.59 8.54-2.19 8.82-2.303a1 1 0 0 0-.744-1.857c-.108.044-10.824 4.274-18.693 1.346a1 1 0 0 0-.697 1.875c1.127.42 3.178.794 4.17.965.353.06.633.308.76.643.122.321.258.641.41.957 1.33 2.778 3.601 4.79 6.572 5.817 1.533.531 3.235.791 4.997.791 2.85 0 5.85-.68 8.524-2 9.05-4.464 13.762-13.196 16.121-19.734a1 1 0 0 0-.599-1.278"/>
        <path fill="#4F545C" d="M171.74 137.253h-112a4 4 0 0 1-4-4v-50a4 4 0 0 1 4-4h112a4 4 0 0 1 4 4v50a4 4 0 0 1-4 4"/>
        <path fill="#36393E" d="M105.74 137.253h-46a4 4 0 0 1-4-4v-50a4 4 0 0 1 4-4h46v58z"/>
        <path fill="#202225" d="M75.74 137.253h-16a4 4 0 0 1-4-4v-50a4 4 0 0 1 4-4h16v58z"/>
        <path fill="#36393E" d="M70.74 104.253a5 5 0 1 0-10 0 5 5 0 0 0 10 0M70.74 116.253a5 5 0 1 0-10 0 5 5 0 0 0 10 0M70.74 128.253a5 5 0 1 0-10 0 5 5 0 0 0 10 0M68.74 95.253h-6a2 2 0 0 1-2-2v-6a2 2 0 0 1 2-2h6a2 2 0 0 1 2 2v6a2 2 0 0 1-2 2"/>
        <path fill="#4F545C" d="M99.74 89.253h-19a1 1 0 0 1-1-1v-2a1 1 0 0 1 1-1h19a1 1 0 0 1 1 1v2a1 1 0 0 1-1 1M99.74 96.253h-19a1 1 0 0 1-1-1v-2a1 1 0 0 1 1-1h19a1 1 0 0 1 1 1v2a1 1 0 0 1-1 1"/>
        <path fill="#36393E" d="M129.74 89.253h-19a1 1 0 0 1-1-1v-2a1 1 0 0 1 1-1h19a1 1 0 0 1 1 1v2a1 1 0 0 1-1 1M159.74 96.253h-49a1 1 0 0 1-1-1v-2a1 1 0 0 1 1-1h49a1 1 0 0 1 1 1v2a1 1 0 0 1-1 1M159.74 103.253h-49a1 1 0 0 1-1-1v-2a1 1 0 0 1 1-1h49a1 1 0 0 1 1 1v2a1 1 0 0 1-1 1M129.74 112.253h-19a1 1 0 0 1-1-1v-2a1 1 0 0 1 1-1h19a1 1 0 0 1 1 1v2a1 1 0 0 1-1 1M149.74 119.253h-39a1 1 0 0 1-1-1v-2a1 1 0 0 1 1-1h39a1 1 0 0 1 1 1v2a1 1 0 0 1-1 1M159.74 126.253h-49a1 1 0 0 1-1-1v-2a1 1 0 0 1 1-1h49a1 1 0 0 1 1 1v2a1 1 0 0 1-1 1"/>
        <path fill="#4F545C" d="M99.74 107.253h-19a1 1 0 0 1-1-1v-2a1 1 0 0 1 1-1h19a1 1 0 0 1 1 1v2a1 1 0 0 1-1 1M99.74 114.253h-19a1 1 0 0 1-1-1v-2a1 1 0 0 1 1-1h19a1 1 0 0 1 1 1v2a1 1 0 0 1-1 1M99.74 121.253h-19a1 1 0 0 1-1-1v-2a1 1 0 0 1 1-1h19a1 1 0 0 1 1 1v2a1 1 0 0 1-1 1M99.74 128.253h-19a1 1 0 0 1-1-1v-2a1 1 0 0 1 1-1h19a1 1 0 0 1 1 1v2a1 1 0 0 1-1 1"/>
        <path fill="#202225" d="M106.203 153.452H60.24a1 1 0 0 1 0-2h45.964a1 1 0 1 1 0 2"/>
        <path fill="#202225" d="M171.24 153.452H96.02a1 1 0 1 1 0-2h75.218a1 1 0 1 1 0 2"/>
        <path fill="#ACB0FF" d="M93.068 239.668l8.25-29.204c.241-.666.902-1.108 1.604-1.023 7.054.852 14.02-3.223 16.543-10.188l5.936-16.37a6.93 6.93 0 0 0-4.153-8.877l-18.403-6.67a3.135 3.135 0 0 1-1.878-4.016l5.291-14.592a4.937 4.937 0 0 0-9.28-3.366l-11.484 31.68c-.268.737-1.19 1.032-1.805.544a5.167 5.167 0 0 1-1.67-2.353l-3.34-9.687a5.923 5.923 0 1 0-11.184 3.903l8.661 24.64a15.62 15.62 0 0 0 6.557 8.113c.633.39.91 1.165.655 1.864L72.68 239.668"/>
        <path stroke="#202225" stroke-linecap="round" stroke-linejoin="round" stroke-width="2" d="M93.068 239.668l8.25-29.204c.241-.666.902-1.108 1.604-1.023 7.054.852 14.02-3.223 16.543-10.188l5.936-16.37a6.93 6.93 0 0 0-4.153-8.877l-18.403-6.67a3.135 3.135 0 0 1-1.878-4.016l5.291-14.592a4.937 4.937 0 0 0-9.28-3.366l-11.484 31.68c-.268.737-1.19 1.032-1.805.544a5.167 5.167 0 0 1-1.67-2.353l-3.34-9.687a5.923 5.923 0 1 0-11.184 3.903l8.661 24.64a15.62 15.62 0 0 0 6.557 8.113c.633.39.91 1.165.655 1.864L72.68 239.668"/>
        <path fill="#202225" d="M6.129 241.563a1 1 0 1 1 0-2h149a1 1 0 1 1 0 2"/>
        <path fill="#FFF" d="M190.238 104.753c0-6.904 5.014-12.5 11.2-12.5 6.185 0 11.198 5.596 11.198 12.5 0 6.903-5.013 12.5-11.199 12.5-6.185 0-11.199-5.597-11.199-12.5M213.238 104.753c0-6.904 5.014-12.5 11.2-12.5 6.185 0 11.198 5.596 11.198 12.5 0 6.903-5.013 12.5-11.199 12.5-6.185 0-11.199-5.597-11.199-12.5"/>
        <path stroke="#202225" stroke-linecap="round" stroke-linejoin="round" stroke-width="2" d="M190.238 104.753c0-6.904 5.014-12.5 11.2-12.5 6.185 0 11.198 5.596 11.198 12.5 0 6.903-5.013 12.5-11.199 12.5-6.185 0-11.199-5.597-11.199-12.5z"/>
        <path fill="#202225" d="M190.238 104.753c0-4.333 3.146-7.846 7.03-7.846 3.881 0 7.03 3.513 7.03 7.846s-3.149 7.846-7.03 7.846c-3.884 0-7.03-3.513-7.03-7.846"/>
        <path stroke="#202225" stroke-linecap="round" stroke-linejoin="round" stroke-width="2" d="M213.238 104.753c0-6.904 5.014-12.5 11.2-12.5 6.185 0 11.198 5.596 11.198 12.5 0 6.903-5.013 12.5-11.199 12.5-6.185 0-11.199-5.597-11.199-12.5z"/>
        <path fill="#202225" d="M213.238 104.753c0-4.333 3.146-7.846 7.03-7.846 3.881 0 7.03 3.513 7.03 7.846s-3.149 7.846-7.03 7.846c-3.884 0-7.03-3.513-7.03-7.846"/>
        <path fill="#7B80D6" d="M202.96 216.747l-13.75 23.815h27.5z"/>
        <path fill="#202225" d="M192.674 239.563h20.572a1 1 0 0 0 .866-1.5l-10.286-17.815a1 1 0 0 0-1.732 0l-10.285 17.815a1 1 0 0 0 .865 1.5m24.036 2h-27.5a1 1 0 0 1-.866-1.5l13.75-23.815c.357-.62 1.375-.62 1.732 0l13.75 23.815a.998.998 0 0 1-.866 1.5"/>
        <path fill="#7B80D6" d="M97.983 225.785l-19.468-5.243a3.919 3.919 0 0 1-2.764-4.804 3.92 3.92 0 0 1 4.802-2.767l19.468 5.243a3.92 3.92 0 0 1-2.038 7.57"/>
        <path stroke="#202225" stroke-linecap="round" stroke-linejoin="round" stroke-width="2" d="M97.983 225.785l-19.468-5.243a3.919 3.919 0 0 1-2.764-4.804 3.92 3.92 0 0 1 4.802-2.767l19.468 5.243a3.92 3.92 0 0 1-2.038 7.57z"/>
        <path fill="#FFF" d="M82.488 217.635a7 7 0 1 1 13.52 3.642 7 7 0 0 1-13.52-3.642"/>
        <path stroke="#202225" stroke-linecap="round" stroke-linejoin="round" stroke-width="2" d="M82.488 217.635a7 7 0 1 1 13.52 3.642 7 7 0 0 1-13.52-3.642z"/>
        <path stroke="#202225" stroke-linecap="round" stroke-linejoin="round" stroke-width="2" d="M90.027 216.559l-.78 2.896.966.26M49.99 191.253l9 4M58.99 207.253l-23 5M53.99 226.253l5-7"/>
        <path fill="#4F545C" d="M154.174 32.253h17.912c6.05 0 11-4.95 11-11 0-6.049-4.95-10.999-11-10.999h-17.912c-6.05 0-11 4.95-11 11s4.95 11 11 11" opacity=".3"/>
        <path d="M0-1h240v244H0z"/>
        <path d="M-60-59h360v360H-60z"/>
    </g>
</svg>
