<svg width="660" height="278" viewBox="0 0 660 278" fill="none" xmlns="http://www.w3.org/2000/svg">
<g clip-path="url(#clip0_2005_16549)">
<rect width="660" height="278" rx="8" fill="url(#paint0_linear_2005_16549)"/>
<path opacity="0.1" d="M657.757 95.0726L656.409 95.8044L656.948 96.1126L659.221 96.0355L662.842 93.5704L664.691 88.7171L661.802 88.4475L662.033 86.9838L663.15 82.9394L662.996 81.2061L661.994 81.9379L658.335 85.8668L656.987 88.3319L656.91 90.8741L658.682 90.9897L658.72 91.606L657.873 93.8015L657.757 95.0726Z" fill="white"/>
<path opacity="0.15" d="M572.748 -226.59L571.593 -229.171L570.206 -232.714L569.59 -234.371L570.514 -236.489L571.516 -237.799L572.055 -238.954L572.324 -240.996L571.939 -242.536L569.512 -244.963L566.97 -246.157L564.082 -246.619L563.08 -246.773L561 -246.311L552.372 -243.23L548.328 -240.88L545.978 -238.222L543.474 -236.951L539.507 -237.105L535.771 -237.259L532.843 -235.796L529.454 -232.791L526.989 -231.405L525.448 -231.674L523.792 -229.671L522.02 -225.396L519.978 -223.508L517.706 -224.009L512.236 -223.624L503.608 -222.314H498.177L495.982 -223.778L492.554 -223.971L487.854 -222.892L485.042 -222.661L484.08 -223.277L483.386 -225.049L482.963 -227.977L481.383 -231.02L478.649 -234.178L478.148 -238.03L479.92 -242.536L480.305 -245.618L479.342 -247.274L478.957 -248.776L476.877 -250.664L475.413 -253.938L474.334 -254.939L474.643 -257.712L475.875 -261.064L474.373 -264.222L469.674 -264.415L465.899 -265.339L462.124 -268.228L456.308 -276.394L453.419 -279.283L451.532 -279.591L450.184 -280.939L449.336 -283.327H447.988H446.679L445.87 -282.325L444.907 -282.017L443.443 -282.903L441.941 -283.019L440.4 -282.325L439.091 -282.788L438.012 -284.405L436.048 -285.484L433.236 -286.023L432.08 -287.14L432.581 -288.874L432.042 -290.145L430.501 -290.992L426.303 -290.761L419.446 -289.49L413.823 -289.837L409.432 -291.801L406.967 -293.611L406.466 -295.268L405.195 -296.847L403.153 -298.387L401.998 -301.007L401.728 -304.743L402.229 -308.287L404.078 -313.371L399.456 -316.684L398.069 -318.609L398.416 -320.227L398.184 -321.498L397.376 -322.423V-323.925L398.339 -326.005V-328.663L397.376 -331.898L394.795 -336.443L390.596 -342.298L388.324 -346.612L388.016 -349.347L387.438 -351.542L386.629 -352.736L386.128 -354.739L386.475 -356.973L385.974 -358.437L385.358 -359.785L385.435 -361.981L384.703 -363.483L383.162 -364.292L382.662 -365.948L382.97 -369.492L381.853 -372.496L378.463 -378.043L377.462 -382.087L377.154 -385.746L375.729 -387.557L375.651 -389.174L375.459 -391.948L374.573 -392.718L374.034 -393.72L374.457 -394.875L373.764 -396.339L371.992 -398.072L371.183 -399.574L370.991 -400.961L370.105 -402.039L367.486 -403.079L366.792 -404.505L366.946 -405.776L367.524 -406.97L367.832 -407.702L367.717 -408.626L367.524 -409.55L366.484 -410.667L364.982 -411.939L363.326 -414.712L361.207 -415.444H359.898L358.781 -417.023L359.127 -418.024L359.05 -419.873L358.049 -421.375L356.778 -421.992L355.584 -421.607L352.656 -423.032L347.996 -426.267L344.413 -427.769L341.948 -427.5L340.407 -426.537L339.83 -424.842L338.173 -424.996L334.091 -428.039L329.969 -428.809L327.658 -430.427L325.809 -433.201L324.114 -434.356L322.574 -433.894L318.799 -435.743L312.79 -439.941L309.632 -441.366L308.476 -440.596H307.898L306.82 -440.712H305.279L302.544 -441.79L298.847 -441.366L294.186 -439.517L289.14 -438.362L283.709 -437.9L280.473 -438.131L279.472 -439.017L273.579 -437.669L265.413 -434.972L257.401 -432.353L247.425 -431.082L240.761 -426.614L234.059 -418.602L229.245 -413.595L226.317 -411.553L225.123 -408.857L225.662 -405.545L228.166 -404.351L232.596 -405.313L236.409 -404.851L239.606 -402.964L240.646 -400.114L239.49 -396.3L239.837 -392.603L241.724 -388.943L241.84 -384.745L240.222 -380.007L236.178 -375.231L229.707 -370.416L225.662 -365.755L223.313 -358.976L219.654 -353.122L218.305 -349.809L218.036 -347.113L216.572 -344.185L213.914 -341.065L212.451 -337.907L212.181 -334.749L210.871 -331.898L208.445 -329.317L206.943 -326.583L206.365 -323.732L205.44 -321.806L204.169 -320.805L204.824 -319.842L207.405 -318.879L208.483 -316.106L208.021 -311.522L206.442 -308.248L203.784 -306.284L199.817 -305.013L194.501 -304.435L187.26 -300.082L180.981 -294.536L173.547 -287.988H172.084L169.388 -288.797L164.149 -291.493L158.641 -292.071L153.326 -294.574L150.167 -296.23L145.275 -299.389L144.043 -301.353L142.155 -302.933L137.418 -305.051L134.221 -306.207H132.256L127.326 -304.088L124.244 -302.393L122.396 -301.469L119.314 -301.662L115.539 -302.047L113.999 -302.624L111.842 -303.973L107.643 -308.056L105.409 -310.983L102.482 -312.639L99.2462 -314.527L97.6285 -314.95L94.7781 -314.796L90.8108 -315.297L88.6923 -315.99L86.9204 -315.335L83.3383 -313.41L78.8317 -309.596L75.288 -308.133L71.5518 -306.13L68.5089 -303.742L65.5045 -301.276L61.8452 -298.465L60.1505 -294.651L59.303 -291.878L55.952 -290.145L53.3713 -288.488L50.7906 -287.911L45.9758 -288.835L43.1255 -288.18L36.1152 -284.906L32.6871 -284.598L30.299 -284.136L27.9879 -283.905L24.1746 -283.134L22.6724 -282.557L20.708 -281.902L18.5125 -282.364L15.354 -280.477L6.41785 -275.469L3.60602 -274.622L1.75714 -274.429L-0.630981 -276.201L-3.05762 -277.395L-5.59979 -277.241L-8.48865 -275.585L-13.3804 -276.856L-19.1581 -278.089L-24.3966 -279.206L-26.1685 -280.168L-31.3298 -281.555H-38.8408H-43.2704L-46.0823 -281.093L-48.2393 -281.786L-50.974 -283.789L-55.5576 -288.45L-58.2924 -289.837L-59.8331 -290.992L-60.4109 -292.918L-61.4509 -293.149L-62.1442 -294.536V-296.346L-62.1827 -300.313L-61.8746 -303.087L-62.6064 -303.934L-65.6879 -304.396L-69.3856 -305.244L-76.1262 -305.359L-78.8226 -305.475L-80.9796 -307.093L-83.4061 -309.057L-85.7557 -313.14L-87.8358 -315.027L-91.2254 -317.415L-94.4608 -318.032L-99.3527 -317.608L-102.935 -317.146L-106.132 -318.186L-108.173 -319.495L-111.062 -320.882L-115.376 -321.19L-118.958 -322.192L-122.695 -323.386L-125.468 -322.885L-127.394 -321.729L-129.551 -320.266L-132.324 -319.996L-139.257 -318.494L-141.376 -317.569L-144.457 -317.146L-147.115 -315.99L-149.349 -313.756L-151.236 -312.1L-153.625 -311.522L-156.475 -311.638L-158.901 -312.177L-160.173 -312.331L-162.06 -311.522L-164.217 -310.944L-167.453 -311.907L-169.224 -312.716L-171.998 -313.217L-173.654 -315.567L-175.349 -316.529L-178.238 -316.876L-182.513 -318.07L-184.747 -319.303L-186.712 -320.073L-189.947 -322.808L-191.757 -325.196L-193.26 -325.581L-194.916 -325.889L-196.071 -327.43L-196.148 -329.279L-195.725 -330.434L-195.417 -332.399L-196.38 -334.286L-197.381 -335.134L-197.843 -336.559L-197.574 -339.255L-197.959 -341.99L-198.344 -344.879L-199.345 -347.036L-199.577 -351.119L-199.153 -352.813L-199.268 -354.816L-200.308 -356.319L-203.467 -357.397L-207.203 -358.861L-213.135 -360.594L-215.677 -360.748L-217.641 -360.016L-219.452 -360.864L-221.378 -362.327L-224.652 -363.83L-228.966 -365.794L-233.549 -367.99L-237.709 -369.954L-239.289 -370.416L-244.951 -370.57L-249.611 -370.84L-252.308 -371.533L-255.466 -374.268L-257.084 -375.963L-259.588 -376.772L-261.513 -377.041L-264.479 -377.966L-269.949 -380.855L-271.952 -382.241H-273.3L-275.11 -384.822L-276.651 -385.438L-277.691 -383.628L-278.77 -379.314L-279.771 -377.311L-282.621 -373.344L-289.439 -370.147L-290.633 -368.49L-291.249 -366.988L-292.174 -364.87L-292.598 -362.096L-293.445 -361.326L-295.371 -361.249L-296.912 -359.978L-298.067 -357.204L-299.069 -356.126L-299.646 -353.545L-299.569 -352.428L-299.8 -351.196L-299.954 -349.193L-301.726 -344.917L-301.957 -342.414L-301.226 -340.834L-299.723 -338.716L-298.953 -337.522L-298.683 -336.097V-334.286L-297.797 -331.783L-297.104 -329.626L-295.949 -328.085L-294.369 -326.775L-292.598 -326.352L-291.211 -325.466L-290.903 -323.732L-291.249 -321.344L-291.904 -316.876L-293.098 -314.103L-293.792 -312.37L-294.947 -309.635L-295.371 -308.556L-297.72 -306.207L-299.3 -305.552L-301.264 -303.703L-302.882 -303.626H-304.423L-306.079 -303.241L-307.543 -302.432L-308.698 -299.928L-311.587 -297.348L-312.974 -296.192L-316.556 -295.807L-318.251 -296.924L-319.175 -298.503L-320.331 -299.427L-321.833 -301.353L-328.342 -302.393L-330.037 -301.893L-331.038 -301.199L-332.348 -301.7L-333.234 -302.663L-334.158 -302.393L-336.2 -301.816L-337.779 -302.008L-339.821 -303.934L-342.632 -304.974L-343.711 -305.552H-344.828L-345.521 -304.627L-346.792 -304.127L-347.64 -305.244L-348.757 -306.053H-350.259L-352.185 -304.319L-355.536 -303.51L-356.576 -302.316L-358.502 -302.47L-359.85 -303.395L-361.198 -303.51H-365.088L-366.398 -303.202L-367.977 -304.165L-368.709 -305.898L-370.673 -307.208L-373.485 -307.362L-375.681 -307.17L-376.682 -306.63L-378.107 -306.476L-379.302 -308.826L-380.919 -310.482L-381.844 -311.715L-383.23 -312.215L-384.309 -313.756L-384.501 -316.761L-385.156 -320.535L-385.927 -324.503L-386.774 -326.159L-390.934 -326.775L-392.975 -326.621L-397.598 -326.929L-400.756 -327.16L-401.603 -327.237L-404.569 -327.7L-407.266 -328.123L-410.039 -328.393L-411.194 -328.046L-414.045 -327.969L-416.24 -329.857L-417.165 -332.014L-417.319 -333.246L-417.858 -334.479L-419.861 -334.903L-421.671 -334.517L-422.634 -331.975L-423.982 -330.935L-425.292 -331.128L-426.409 -332.514L-428.605 -334.017L-430.03 -335.442L-431.725 -337.714L-433.111 -337.175L-433.496 -335.75L-433.805 -334.363L-435.538 -331.59L-437.618 -331.282L-441.123 -331.474L-444.744 -331.32L-447.055 -330.28L-448.75 -328.393L-449.635 -326.929L-451.407 -326.429L-453.179 -324.926L-453.911 -322.923L-455.683 -323.001L-456.646 -322.769L-458.225 -322.346L-462.269 -321.229L-463.232 -320.959L-465.697 -319.072L-467.585 -317.569L-469.434 -316.915L-470.551 -315.181L-471.937 -313.795L-475.211 -313.448L-478.832 -311.715L-480.103 -311.137L-482.183 -309.866L-485.033 -309.365L-486.228 -309.018L-487.383 -308.133L-488.038 -305.013L-490.387 -303.896L-493.546 -303.703L-495.934 -302.047L-496.165 -299.119L-495.318 -296.462L-495.703 -295.268L-497.475 -294.613L-499.94 -293.188L-501.827 -291.416H-504.1L-505.41 -291.993L-506.372 -290.838L-506.912 -288.527L-508.568 -287.41L-510.956 -286.37L-511.842 -286.755L-512.458 -287.641L-513.537 -288.797L-514.384 -288.373L-514.461 -286.678L-515.155 -285.484L-517.158 -285.407L-518.698 -286.062L-519.854 -286.832L-521.972 -286.717L-524.168 -286.37L-525.554 -286.755L-526.864 -286.37L-530.292 -285.6L-531.64 -283.057V-280.053L-532.102 -278.512L-534.182 -277.203L-535.145 -276.009L-536.417 -275.2L-539.19 -275.123H-539.267L-540.499 -275.277L-542.733 -274.583L-544.929 -274.044L-546.354 -273.697L-547.279 -272.58L-548.704 -272.041L-550.938 -272.388L-551.554 -274.622L-553.056 -277.087L-555.098 -277.934L-556.947 -278.474L-558.603 -279.668L-559.758 -280.939L-563.109 -286.986L-565.421 -289.567L-567.501 -289.721L-567.809 -291.416L-566.615 -293.149L-565.074 -294.574V-296.539L-566.384 -297.579L-567.924 -297.27L-570.004 -295.036L-572.469 -292.494L-575.435 -290.645L-576.629 -289.143L-578.093 -287.41L-580.173 -287.641L-581.675 -287.564L-582.985 -287.41L-583.948 -289.259L-585.219 -289.49L-594.271 -291.262L-597.275 -291.955L-599.162 -291.069L-600.549 -291.685L-601.088 -293.457L-602.667 -296.308C-600.819 -280.631 -598.662 -264.954 -596.081 -249.354C-579.056 -146.395 -543.928 -46.4027 -489.078 42.6509C-460.806 88.5644 -428.412 131.782 -399.408 177.233C-375.604 214.441 -355.42 253.922 -332.926 291.94C-289.632 365.085 -241.831 436.652 -180.009 495.584C-152.739 521.584 -123.003 543.963 -91.1097 562.297L-90.1083 561.18L-90.4935 559.37L-91.9572 555.48L-91.7646 554.478H-90.7631L-89.9157 554.709L-88.4905 555.557L-86.9498 555.749L-85.7557 555.133L-84.6772 555.21L-83.7914 554.709L-82.4818 554.517L-81.6343 555.518L-80.3633 555.788L-75.8566 553.091L-75.3945 551.243L-75.3174 549.586L-74.5085 547.275L-71.7352 545.966L-69.116 545.157L-67.4597 544.194L-65.0331 541.883H-62.2598L-61.1428 541.613L-58.9088 541.151L-57.0599 540.15L-54.6718 540.342L-53.3621 538.724L-52.8229 536.914L-52.1295 536.837L-51.4747 537.299L-50.011 539.11L-48.6244 538.455L-48.0466 537.492L-48.817 535.758L-49.0867 533.486V531.56L-46.3904 531.637L-45.8511 532.446L-46.4674 533.794L-45.8511 534.95L-44.4645 536.105L-42.8082 537.954L-42.1534 538.493L-40.3815 538.378L-38.6097 538.647H-36.0291L-34.3342 539.495L-33.5639 540.689L-34.4113 542.114L-34.7964 543.308L-33.2172 543.693L-31.5225 543.231L-28.518 542.961L-26.3995 542.307L-23.8188 540.804L-24.3581 536.875L-23.2796 536.953L-22.6248 537.415L-20.4293 541.151L-19.0811 541.074L-18.6959 540.265L-17.0396 542.191L-14.6516 542.268L-14.8826 544.887L-18.2337 545.889L-18.6959 548.662L-20.5833 551.127L-20.044 553.13L-21.0455 556.558L-20.5063 557.637L-19.5048 558.523L-18.5418 559.986L-17.6559 561.72L-17.9641 563.992L-16.3463 566.688L-14.3049 567.69L-13.7656 568.345L-13.3804 569.462L-14.613 569.577L-15.6915 569.231L-15.7686 570.463L-14.4589 572.196L-10.0679 572.967L-4.82941 572.196L-2.32581 570.656L-1.43982 568.845L-0.708008 567.998L-0.862061 566.534L-5.56128 562.683L-5.25311 561.45L-4.21313 560.641L-3.78943 559.678L-4.32867 558.484L-8.71973 557.945L-9.33606 555.788L-8.41162 553.438L-5.13757 551.089L-4.0976 550.049L-3.55835 548.161L-3.25018 545.889L-2.67242 546.158L-2.13318 548.585L-1.05469 549.163L0.44751 549.009L2.45044 547.352L5.26227 544.618L7.80444 544.386L10.6163 543.501L11.0786 541.421H12.1185L13.0429 542.114L14.0829 542.191L15.8932 541.883L18.2429 542.075L19.9762 540.843L24.9449 540.227L26.8324 538.956L27.5642 537.761L29.0664 536.144L30.222 536.375L31.3774 536.182L32.6486 534.68L33.0723 532.831L34.9982 532.985L37.1937 533.91L39.0041 535.027L41.6617 535.566L42.8943 534.911L43.7033 534.064L43.3951 531.098L42.9714 529.557L43.8188 529.48L44.5892 530.058L44.8203 530.828L44.3966 532.022L46.1299 533.602L48.2869 534.641L49.4039 533.563L50.0202 532.561L51.5609 531.483L53.5253 530.404L55.7979 532.022L56.992 531.367L57.6853 530.597L58.2631 525.975L60.189 523.702L61.6141 527.092L64.3875 526.745L65.8511 525.32L66.7755 524.819L67.9311 524.473L69.3177 524.049H69.4333L69.5488 523.972L69.8955 523.856L71.0125 523.356H71.0895L70.5888 522.739L71.051 523.279H71.0895L71.7444 521.43L72.0525 520.082L71.1666 518.695V513.842L69.5873 511.338L68.74 510.491L68.3163 508.873L66.2363 506.947L66.0822 506.331L65.9281 505.753L68.5474 505.021L68.9711 503.596L68.6244 502.055L70.3962 500.861L72.7843 500.206L72.1295 501.516L71.9755 502.98L72.3607 504.289L72.7458 507.024L73.7473 508.565L75.9813 510.298L77.7532 513.534L80.1798 515.498L82.1827 515.999L81.9901 516.692L79.3709 518.117L79.525 518.926L80.3339 519.735L82.6064 519.465L85.1102 520.159L88.153 521.507L88.6152 520.736L88.6923 519.504L89.7708 518.926L89.5397 517.886L88.5767 517.385L88.7308 516.307L88.2301 515.344L88.153 515.228L89.9249 513.88L91.8123 514.15L93.6226 515.575H95.0092L94.7781 513.187L95.4329 512.34L95.9337 511.222L97.3203 509.759L98.7455 510.183L99.6699 513.071L102.135 513.302L103.137 512.725L103.56 511.569L105.871 510.953L107.759 509.104L110.224 508.18L112.458 509.22L114.653 510.683H117.388L118.236 509.489L118.852 507.948L120.739 507.217L123.474 507.987L125.747 508.565L130.754 506.562L132.988 506.331L134.144 505.522L134.529 504.713L135.222 503.904L137.456 504.944L140.422 504.829L141.578 503.288L142.001 498.858L143.157 497.857L145.121 497.587L145.815 496.316L145.429 495.045L144.158 494.352L146.123 494.198L147.24 493.62L149.628 491.809L150.822 486.841L153.711 487.418L154.905 488.574L156.445 488.073L158.256 486.841L159.835 485.107L160.798 485.261L161.183 487.149L161.684 488.381L162.839 487.534L163.918 484.568L163.841 483.644L163.225 483.104L164.034 481.833L166.73 481.41L167.885 481.949L168.81 479.291L170.582 477.327L172.893 477.404L174.433 474.977L178.054 471.356L177.939 469.276L177.322 467.928L173.894 467.505L173.162 466.542L173.047 465.463L174.318 465.309L175.204 465.463L176.898 465.271L177.091 463.229L178.824 461.496H181.367L183.755 462.921L186.528 462.189L190.033 462.728L192.306 461.65L193.769 458.414L193.115 457.49L191.882 456.797L191.805 456.103L193.461 455.718L196.196 454.139L198.276 453.677L199.393 451.712L198.43 448.515L199.932 446.358L201.049 445.973L206.057 446.435L207.251 445.742L206.249 443.777L204.477 442.506L203.938 440.966L204.747 440.041L206.711 439.579L208.637 440.157L210.486 439.81L212.335 441.158L214.569 442.198L215.262 441.582L215.185 440.388L213.298 436.382L213.606 433.57L215.108 430.296L215.84 427.793L215.147 425.558L212.335 425.404L210.371 426.83L208.329 426.984L206.711 426.29L203.746 422.439L205.941 422.901L207.867 424.018L209.215 424.249H211.449L213.914 422.323L216.88 419.473L219.345 417.816L221.348 416.93L221.233 415.967L220.385 414.812L220.154 413.849L219.037 411.307L217.651 409.651L215.571 409.342L215.224 407.879L214.415 406.453V405.028L215.879 406.03L217.265 406.531L218.614 405.298L219.153 403.796L220 403.411L219.769 404.72L219.923 406.338L220.424 407.609L221.31 407.763L221.387 409.689L223.428 410.344L225.2 409.073L226.24 408.071L226.51 405.182L227.473 402.409L230.785 396.824L233.289 395.283L235.292 392.626L236.987 390.969L238.604 388.466L239.105 386.617L238.104 383.997L239.953 382.418L239.875 381.109L240.453 379.606L243.958 375.678V374.445L242.302 373.367L241.917 372.481L243.458 372.404L245.345 372.673L246.924 371.787L248.735 368.59L250.237 365.008L251.354 364.045L253.049 363.506L254.358 366.818L256.323 366.626L260.02 364.084L262.409 364.931L262.216 362.928L260.714 358.768L259.212 355.533L260.251 353.568L261.946 352.991L262.871 352.105L263.641 349.871L260.752 347.714L263.14 348.137L264.065 347.136L263.718 345.595L260.29 342.668L258.557 342.321L259.481 340.665L260.598 339.471H263.487L264.951 338.931L266.684 339.779L268.186 342.398L269.727 342.244L270.921 332.615L270.266 329.495L268.995 328.917L267.416 329.533L264.296 332.075L259.943 332.807L261.561 331.382L263.988 330.111L269.419 324.795L273.617 322.33L272.077 321.868L270.343 321.714L267.223 320.135L264.026 319.403L258.21 312.662L256.015 311.121L254.05 310.544L251.701 310.621L245.653 314.473L239.221 315.243L235.947 310.621L232.596 312.123L230.4 311.699L229.63 312.084L228.821 312.315L230.015 311.16L234.868 308.31L239.144 308.233L243.689 309.234L245.499 308.194L246.462 306.076L247.887 303.649L255.283 299.759L257.863 297.294L260.444 295.907L263.949 295.291L266.183 295.098L268.764 293.827L267.724 289.86L266.568 287.048L263.603 282.734L256.246 278.15L252.779 274.183L249.235 271.641L246.424 270.793L242.88 268.867L242.032 266.017L241.147 264.322L235.985 263.321L232.442 265.208L228.744 266.479L225.046 265.632L225.932 264.977L226.51 264.553L228.551 264.823L236.524 260.932L239.837 261.626L242.957 263.013L247.271 267.519L251.354 268.289L254.204 267.712L256.246 267.827L264.065 271.91L266.029 272.257L268.456 272.141L268.225 269.021L267.647 266.71L265.721 264.13L263.911 262.512L259.558 260.547L258.634 259.661L257.517 258.198L257.44 253.576L256.053 252.073L254.897 251.187L247.695 248.106L244.459 245.448V242.559L245.499 240.325L244.883 235.434L241.647 229.232L238.835 222.068L236.216 217.869L236.101 215.635L234.329 211.398L231.864 202.77L230.554 199.766L229.013 198.302L223.39 194.797L218.806 193.41L214.377 190.945L210.679 187.171L208.907 186.169H205.325L204.477 183.319L205.671 178.62L208.907 175.692L210.717 170.261L213.028 168.605L214.993 165.369L217.651 161.903L219.808 161.055L221.117 160.285L222.196 158.86L223.775 157.473L224.93 155.74L225.585 153.929L229.476 151.772L231.055 150.309L230.593 149.654L228.628 149.346L226.548 146.38L227.087 145.456L228.667 143.915L230.708 143.221L232.056 143.144L232.442 144.261L232.133 146.573L232.557 147.458L233.636 148.19L236.64 146.573L239.452 145.956L240.492 144.839V139.793L241.224 137.675L242.764 136.404L244.459 137.29L245.615 136.75L245.846 135.556L245.307 133.977L243.265 131.974L243.612 131.204L245.229 131.127L247.887 132.205L249.389 131.82L251.546 130.356L257.94 128.045L264.026 125.156L270.266 121.536L273.039 121.189L275.736 121.536L276.699 122.46L277.084 123.847L277.623 124.733L278.393 125.195H279.973L282.746 122.807L284.248 121.883L284.325 120.226L283.478 119.648L282.515 118.3L284.133 116.22L285.827 114.949L285.481 110.905L287.715 108.401L286.174 107.708L283.593 108.247L279.896 108.324L275.89 106.822L274.465 104.857L273.194 104.665L272.077 105.666L270.998 107.169L267.493 106.822L263.294 106.706L260.097 105.089L257.324 103.201L253.318 102.585L249.274 98.8487L242.187 95.6132L233.173 99.5806L231.132 99.8502L230.477 100.235L231.17 100.89L231.748 101.892L228.05 105.705L221.579 109.98L221.502 111.598L221.695 112.869L218.691 115.797L211.334 116.683L207.482 116.297L203.322 114.448L200.626 112.176L199.547 110.558V105.705L200.433 101.314L201.435 100.736L202.744 99.5421L202.282 98.1169L201.512 97.2695L201.435 96.3066L201.242 93.4562L199.162 89.2963L195.849 86.7926H192.691L189.764 87.7556L177.245 85.0978L171.352 81.246L168.733 77.8564L166.422 71.7706L166.306 69.7677L167.808 64.8759L171.776 56.3249L173.702 54.5916L177.861 53.5131L180.404 54.476L183.947 58.3663L188.069 56.8256L191.728 55.0153L194.732 55.516L196.504 55.1693L198.546 55.3234L200.086 54.8227L201.589 53.5901L205.98 47.9279L206.866 43.2287L208.329 40.1472L209.947 37.374L214.685 32.7518L220.848 30.1326L233.135 23.469L235.754 22.6216L242.687 11.5284L244.344 9.64099L246.269 8.60101L248.195 6.55957L250.16 3.67072L252.278 1.82184L260.868 2.55368L262.331 3.6322L265.413 3.55515L266.26 2.63071L267.3 -0.258148L267.917 -0.450745L268.494 3.67072L275.158 8.48547L276.082 11.1432L278.355 13.0305L278.085 14.3402L276.66 17.5757L276.352 18.7312L271.422 25.626L268.725 28.3993L267.108 31.3651L260.367 34.6007L259.327 37.374L260.29 39.4924L260.367 40.9176H259.212L257.709 41.4569L254.397 43.8065L254.859 44.5768L255.167 46.6183L254.589 48.6597L256.477 48.8908L260.213 48.9679L266.684 48.159L267.454 48.5827L266.029 49.7767L263.834 52.1649L262.948 53.6671L264.18 57.0567L254.281 61.5633L252.509 61.987L250.583 62.7574L250.93 66.0314L251.932 68.4966L252.972 68.1498L253.665 67.4565L255.668 66.2239L260.329 65.5306L263.487 64.4907L263.988 63.6818L263.102 61.7559L264.142 60.2922L265.76 60.0996L267.185 60.6389L268.571 60.4848L269.958 59.2522L271.383 58.7515L272.924 57.5189L274.657 55.747L277.122 52.2419L279.742 49.2375L291.721 42.0346L294.571 41.4569L296.266 39.8006L300.888 39.4154L301.889 38.1828L303.777 37.0658L307.128 36.9117L309.285 36.334L310.017 34.6392L310.941 33.3681L313.522 35.1784L321.726 34.6007L325.578 32.0585L327.542 29.3622L327.851 29.5933L328.159 29.8244L327.542 32.5592L328.852 33.8303L332.511 36.1414L333.705 38.4139L334.437 41.5339L335.901 40.9946L336.671 40.3784L336.825 37.6436L337.673 37.1429L339.868 38.8762L345.376 42.3043L347.264 42.4969L351.539 44.2302L351.847 47.2731L352.772 50.3545L352.695 51.5101L346.724 64.1825L346.994 66.1855L350.076 68.0728L353.041 67.9573L354.582 68.5351L356.161 69.8062L354.659 70.1143L352.849 69.9987L350.345 70.4609L344.606 73.735L342.372 76.0461L340.176 80.206V81.5927L340.022 83.4415L335.67 86.5615L337.75 87.4089L340.754 87.0622L342.834 88.1022L346.801 87.64L347.841 87.9866L348.804 88.7185L347.533 89.2963L342.68 92.4933L343.566 92.7629L345.338 93.9955L350.307 95.151L351.578 98.0013L351.424 98.6946L352.579 98.8487L353.581 98.5021L356.701 95.9598L358.935 92.8785L359.397 91.5303L361.169 90.837L365.252 94.188L367.832 94.3036L369.412 98.0784L370.451 97.462L371.453 95.5361L375.42 94.0339L380.235 96.4606L381.429 96.6532L381.699 96.9228L381.391 97.7317L380.351 98.0399L380.004 98.8873L380.081 99.1954C381.853 99.465 383.509 99.9272 384.973 100.582C388.285 95.8444 393.562 92.6088 400.38 92.5317C402.113 92.5317 403.731 92.7244 405.31 93.0325C407.39 91.5303 409.355 90.0666 411.358 88.4489C415.518 85.0593 420.525 80.7452 425.532 77.6253L422.952 71.655L421.873 69.9217L419.986 67.9573L417.944 66.7247L417.02 65.8003L413.438 63.3351L409.047 57.6729L406.967 56.4404L404.155 55.9012L402.152 54.7841L399.725 53.8982L399.456 51.2019L400.38 48.8523L401.227 48.0049L402.768 48.7368L403.384 46.1561V43.0361L402.884 38.9532L403.847 36.2954L410.934 32.7903L413.283 29.7089L416.596 28.5533L421.295 28.4378L423.375 26.82L426.187 25.5489L428.537 23.469L430.694 19.7712L434.045 18.5002L436.471 16.3431L440.362 14.3787L443.559 9.10175L445.831 7.0603L454.536 2.97739L455.345 0.627777L454.652 -5.38104L455.923 -11.0432L455.769 -13.8165L453.958 -17.052L454.036 -20.2105L455.692 -23.9082L458.542 -26.8741L459.775 -29.7629L461.662 -32.7673L463.126 -34.5006L465.784 -36.1184L467.093 -38.8532L468.981 -39.8546L472.37 -42.6665L475.028 -42.3583L476.607 -41.8191L477.801 -42.705L477.108 -43.5139L476.954 -44.939L476.145 -46.3257L474.643 -48.213L473.988 -50.1775L475.336 -51.2174L475.143 -53.0278L473.834 -54.6841L471.908 -55.0308L471.446 -55.493L471.561 -56.3789L472.216 -57.3033L473.179 -58.0737L475.182 -59.1136L478.61 -59.884L480.536 -60.5773L482.077 -60.7699L483.849 -60.3847L485.351 -61.3862L486.853 -62.0025L487.199 -63.7358L487.277 -66.3936L487.816 -67.2024L488.432 -68.3195L489.395 -69.7831L490.242 -73.5194L490.897 -76.1001L491.321 -77.4097L491.437 -79.1815L491.013 -80.3371L490.204 -81.0304L489.588 -81.5311V-83.5341V-86.2689L489.357 -88.0407L490.281 -97.8242L491.282 -100.097L488.201 -113.231L487.277 -117.43L486.66 -119.548L485.312 -122.668L484.465 -124.209L484.811 -125.673L486.044 -127.175L487.199 -127.868L490.666 -128.215L491.629 -128.754L495.866 -130.372L496.829 -131.335L498.986 -133.685L499.833 -135.456L500.796 -137.767L502.876 -139.039L504.147 -141.157L505.496 -141.889L506.844 -140.117L508.462 -139.116L510.58 -138.499L513.276 -137.729L517.59 -136.265L522.02 -135.033L524.793 -134.07L526.141 -133.646L528.876 -132.991L530.07 -132.49L531.187 -131.951L532.997 -133.453L535.424 -135.341L535.039 -138.345L535.424 -141.735L537.157 -147.59L539.083 -149.284L540.085 -149.554L541.163 -150.209L543.089 -151.326L543.782 -152.905L543.397 -154.715L544.014 -156.487L544.206 -158.259L544.861 -160.57L545.747 -161.225L547.095 -161.995L548.02 -163.189L548.905 -165L549.522 -167.08L549.291 -169.468L550.446 -171.047L552.411 -172.357L553.104 -173.165L553.412 -175.245L553.528 -176.17L554.067 -177.21L553.682 -179.405L553.219 -181.755L555.376 -185.722L556.917 -189.112L557.302 -194.119L557.495 -194.928L558.111 -197.316L558.458 -198.279L559.652 -201.438L561.193 -203.479L560.885 -205.79L560.268 -208.024L560.384 -209.526L561.732 -211.298L562.579 -212.184L563.311 -213.455L564.467 -214.033L565.507 -214.341L567.895 -214.649L569.281 -215.959L570.552 -217.307L572.902 -220.851L573.672 -222.931L574.25 -224.009L572.979 -227.014L572.748 -226.59Z" fill="white"/>
<path opacity="0.15" d="M501.875 221.644L502.183 220.181L501.528 218.794L500.257 217.793L498.832 217.407L496.867 218.216L494.942 219.333L493.709 219.719L492.361 219.642L489.164 218.794L486.429 216.791L485.235 213.902L483.925 211.168L481.229 209.858L478.302 209.55L477.185 209.896L472.794 212.208L472.139 213.517L471.715 215.058L469.982 217.908L467.825 218.948L465.283 218.91L464.397 219.487L463.781 220.604L463.01 221.105L459.389 222.184L457.155 223.493L457.425 224.418L457.926 225.227L457.618 226.767L454.228 225.689L453.227 225.535L452.071 226.151L451.339 229.155L453.381 230.581L456.539 233.47L458.85 235.203L459.467 236.166L461.123 240.018L458.966 239.979L457.232 238.824L456.038 236.243L453.689 234.124L453.304 235.973L453.419 237.822L453.958 239.324L456.231 241.943L457.194 243.523L456.77 245.795L455.807 247.875L457.81 246.45L460.121 243.638L462.586 242.252L464.898 242.906L465.899 244.062L467.132 244.871L468.364 244.948L469.366 244.178L469.866 242.675L469.674 241.135L469.057 239.979L467.94 239.555L466.554 240.133L465.437 240.018L465.283 237.745L465.398 235.472L464.32 232.853L465.475 231.736L466.939 230.812L468.094 231.467L470.367 233.2L471.754 237.167L474.296 240.557L474.797 243.292L473.102 245.449L474.643 246.296L476.491 246.527L474.604 251.072L472.254 255.309L470.675 257.697L468.865 259.816L466.361 260.586L465.899 261.279L465.937 265.208L466.284 268.02L465.745 270.254L466.631 271.294L467.671 272.257L468.942 274.876L468.557 278.035L468.287 279.036L467.478 279.46L464.782 280.23L466.053 283.427L467.247 283.967L468.672 284.121L475.259 286.586L476.029 285.507L476.569 284.121L474.72 281.771L474.103 280.384L473.834 278.805L474.489 275.955L475.837 273.105L476.838 271.641H478.263L479.727 271.988L480.189 272.95V274.26L479.804 274.799L479.072 274.953L477.994 275.531L478.109 276.956L479.65 280.924L480.035 284.082L479.303 287.202L478.764 288.127L477.994 288.897L477.531 289.86L477.57 291.092L482.693 288.396L487.354 284.429L485.851 281.078L486.699 279.421L488.316 279.306L490.936 280.192L493.016 280.307L495.943 272.95L496.29 269.985L495.943 267.057L497.022 263.745L497.599 260.548L498.408 257.582L499.487 254.731L500.681 250.803L502.375 247.259L508.192 240.21L508.77 239.132L508.924 238.092L506.613 236.551L507.229 235.549L507.537 234.509L506.42 233.354L505.11 232.507L505.303 230.696L506.266 228.655L502.029 228.732L497.753 228.077L499.602 224.764L501.875 221.644Z" fill="white"/>
<path opacity="0.15" d="M509.54 226.226H510.773L515.433 224.069L517.629 223.568L518.553 223.684L518.361 226.457L519.324 227.227L520.864 227.535L520.98 228.614L520.749 229.847L520.055 230.694L520.017 232.235L518.9 234.122L520.441 235.586L520.479 238.166L523.021 238.089L525.564 238.552L523.984 242.48L525.178 242.095L527.836 242.789L529.377 242.712L531.919 240.246L532.843 236.279L533.691 235.47L534.846 235.008L535.925 233.467L538.159 228.768L539.237 225.648L547.442 221.373L548.713 221.218L552.719 221.912L555.222 223.144L559.113 227.728L560.499 228.845L561.077 226.033L561.924 223.414L563.465 220.949L565.122 218.638L569.204 215.21L573.711 212.59L572.17 211.82L572.671 209.548L571.708 208.007L571.246 206.273L571.284 201.035L567.933 201.382L564.659 200.188L561.385 198.377L557.996 197.26L554.953 197.568L552.064 198.762L549.214 200.727L548.019 200.842L546.748 200.534L547.75 203.654L547.326 205.503L546.286 207.005L543.667 208.276L540.778 208.161L539.545 208.392L537.042 209.393L535.655 209.586L533.691 207.583L532.227 205.002L530.917 204.771L528.645 206.89L527.335 207.737L526.603 210.164L525.718 211.705L525.332 213.438L523.984 216.327L521.481 217.944L517.436 221.334L515.587 222.567L511.466 224.685L509.54 226.226Z" fill="white"/>
<path opacity="0.15" d="M745.733 37.913V36.2952L745.425 34.6774L744.385 31.1723L743.037 27.8212L741.111 20.888L737.567 15.2259L735.102 13.454L733.215 10.9504L732.444 7.44521L732.02 3.82451L731.712 -4.18722L732.175 -9.07902L733.022 -13.8938L728.592 -12.276L727.668 -12.8923L724.741 -15.5115L723.392 -16.1278L720.735 -17.0522L719.656 -16.2434L718.886 -14.5486L717.499 -9.11755V-5.53537L723.893 -7.23014L724.933 -7.69237L725.896 -8.57827L726.975 -8.80939L728.015 -7.61532L728.438 -4.37982L727.552 -0.797642L726.551 1.20528L725.049 2.51491L720.696 0.704559L719.271 1.05124L718.578 2.74601L717.499 4.01711L716.267 4.13266L715.15 3.28526L714.61 2.16823L713.686 -6.03609L713.378 -7.30719L711.876 -7.80792L710.296 -7.61532L708.987 -7.7309L707.639 -8.38569L706.676 -7.53829L705.982 -6.22869L706.637 -1.33689L706.252 0.473459L705.173 3.63194L704.48 4.78746L703.286 5.86599L701.976 6.59781L700.513 6.71336L699.203 7.17558L697.701 9.06296L696.661 11.3741L696.7 13.377L697.662 17.0747L698.857 20.1562L698.78 21.8509L697.855 25.6642L696.314 29.2464L695.505 30.3249L694.35 30.9412L692.694 31.1723L692.386 32.3278L694.003 33.676L695.929 33.4063L697.2 33.4449L698.394 34.3693L699.819 37.6433L700.051 41.4566L699.665 46.3869L699.357 48.0047L698.78 49.6224L697.971 51.0476L697.046 52.2031L696.43 53.5513L695.621 57.326L693.811 64.1052L692.54 66.9555L690.421 69.7288L688.534 72.6947L687.147 75.5836L686.107 78.7035L685.375 82.6324L684.297 86.4456L683.411 87.7553L680.637 90.4515L672.048 95.3818L670.469 97.4618L669.352 100.774L667.888 103.856L666.078 106.475L664.075 108.863L658.644 114.025L656.217 115.334L653.675 116.027L649.014 118.57L639.539 121.921L638.807 122.691L635.456 127.275L634.416 127.737L633.183 127.775L630.294 127.159L627.752 125.272L627.637 123.577L627.791 121.69L627.213 119.687L624.979 116.99L625.557 115.373L626.905 114.564L628.446 113.986L630.949 112.099L635.34 107.515L635.456 106.09L634.994 104.973L632.066 105.705L626.443 108.208L623.631 109.133L620.703 114.602L621.397 121.921L620.203 128.084L616.813 133.091L612.152 139.254L609.841 141.449L607.338 143.337L605.219 146.457L603.794 150.116L604.141 153.544L605.874 156.625L604.025 159.091L601.329 161.325L598.787 162.981L596.052 164.329L594.203 163.905L587.655 163.674L586.268 162.942L585.421 161.748L586.268 159.784L586.191 157.974L585.151 157.396L584.034 157.242L577.101 159.668L567.009 160.708L564.159 162.134L561.27 163.251L555.724 164.214L552.873 164.56H549.984L547.057 164.059L544.207 164.483L542.782 165.215L541.395 165.6L538.814 162.75L536.195 162.711L530.648 164.059L526.45 165.87L525.294 166.756L523.445 169.991L518.554 174.344L514.894 178.234L512.506 179.813L510.272 181.739L507.884 184.358L505.342 186.747L502.453 188.441L499.449 189.944L497.253 191.792L495.289 194.104L493.44 195.721L491.244 196.299L488.163 195.875L485.12 196.299L483.888 197.532L482.77 198.957L482.385 200.035L483.117 208.201L484.927 207.315L486.738 206.93L488.587 208.201L490.551 209.01L492.67 208.509L494.711 207.431L496.329 206.969L502.569 206.044L503.108 206.237L510.889 211.629L512.198 212.091L512.506 209.087L513.508 206.583L514.394 201.037L516.166 198.225L518.746 197.416L521.404 199.303L524.293 200.497L527.105 200.228L532.921 198.109L535.848 198.88L537.428 197.686L540.432 196.492L543.013 195.143L543.706 195.221L546.171 194.258L548.521 193.641L553.22 193.41L555.415 192.447L557.919 190.56L561.116 187.555L562.002 187.093L564.775 186.824L567.356 185.938L570.014 185.475L573.712 185.63L574.79 186.13L578.218 188.595L580.876 189.481L584.574 188.865L588.31 188.827L589.735 189.867L589.658 191.908L589.003 193.218L587.231 195.606L586.191 196.646L582.994 198.495L582.263 199.303L583.11 202.308L582.917 207.315L584.034 210.435L585.96 213.016L588.117 215.404L589.234 218.062L590.621 220.219L596.36 222.068L601.599 219.949L605.335 213.825L609.957 204.812L611.421 202.462L616.505 200.151L622.398 198.995L623.862 198.263L624.517 196.646L624.478 195.143L623.554 194.258L618.2 190.675L616.235 188.133L617.275 184.936L619.972 179.313L621.243 178.196L622.668 177.425L623.823 177.156L624.863 177.849L623.823 179.467L623.9 181.393L624.594 184.474L624.286 186.554L625.249 187.247L625.98 186.901L625.788 184.204L626.443 183.627L627.483 184.204L628.099 185.591L629.601 185.822L632.605 185.36L633.838 185.398L634.339 186.708L634.146 187.401L629.139 189.751L628.792 190.868L634.878 189.327L640.232 188.518L645.085 189.019L647.82 188.904L650.555 189.212L655.524 190.483L657.064 186.554L659.337 183.241L661.34 181.316L663.15 179.236L663.805 177.618L664.729 176.385L668.119 175.307L670.507 176.116L672.472 178.157L670.084 179.582L670.122 182.471L669.121 187.517L669.929 188.904L670.931 189.828L672.318 189.558L674.359 187.555L675.129 186.477L676.824 183.511L677.672 180.121L677.518 176.077L677.941 174.421L678.635 172.803L680.676 170.839L683.372 170.261H686.03L688.149 171.84L689.843 174.767L690.768 174.575L692.116 172.495L692.424 171.609L691.384 170.954L690.575 169.645L690.19 167.064L692.963 164.56L693.117 163.828L693.04 162.981L693.425 161.171L694.581 159.822L696.353 159.514H698.202L699.511 160.554L700.782 161.941L700.551 163.251L699.126 164.83L697.162 166.64L696.276 168.913L694.388 170.299L694.966 172.148L694.465 176.809L694.774 178.581L693.734 180.121L694.812 181.316L696.622 181.778L697.547 180.391L699.896 177.772L702.285 176.077L705.982 174.382L706.907 173.612L707.831 172.495L708.37 171.147L708.293 167.449L709.333 164.098L712.646 160.593L713.647 159.707L719.233 157.858L717.807 156.202L716.536 154.353L713.262 148.113L712.492 145.686L712.107 143.106L712.53 140.872L713.185 138.56V136.827L713.378 135.132L715.804 128.392L717.268 125.002L718.424 123.731L719.733 122.691L721.467 120.419L722.275 117.106L723.084 106.629L722.314 99.7344L721.274 96.0366L720.504 92.2233L720.542 89.1034L721.312 86.2531L724.047 81.3228L724.779 80.5524L728.246 79.2428L730.942 79.2813L733.33 78.5495L734.293 75.7376L734.524 71.6933L735.179 67.7259L735.988 66.1081L736.989 64.6059L737.529 63.0267L737.837 61.2934L738.684 60.6771L739.84 60.523L740.649 59.9838L741.342 59.2905L742.189 57.7883L743.576 57.1334L743.807 53.8594L745.386 47.4269L745.771 41.8803L745.463 40.1085L745.733 37.913Z" fill="white"/>
<path opacity="0.1" d="M261.484 273.874L260.675 272.873L259.481 272.333L258.826 270.6L255.86 269.444L252.818 269.213L253.203 270.523L255.783 273.72L260.136 276.301L266.337 278.689L268.263 277.918L267.84 276.955L266.992 276.262L261.484 273.874Z" fill="white"/>
<g opacity="0.8">
<path d="M422.027 70.1886L422.72 71.6138L423.837 73.8093L424.069 74.7723L424.646 76.236L426.765 80.3959L428.421 84.787L428.691 85.2492L429.538 86.3277L429.885 87.2136L433.852 92.9143L435.393 95.1483L437.242 97.1898L437.511 97.4209L438.744 98.8846L438.821 99.5008V100.233L438.975 100.849L439.822 101.311L440.053 101.812L440.747 104.084L441.055 104.624L441.44 104.855L441.748 105.163L442.827 107.282L443.482 108.09L443.713 108.553L443.79 109.015L443.944 109.477L445.099 110.748L445.485 111.788L445.793 114.061L446.255 115.293L447.487 116.988L447.565 117.335L447.41 117.681L447.179 118.028L447.025 118.336V118.644L447.179 119.569L447.372 122.227L447.603 123.459L448.412 125.963L448.489 127.195L448.258 128.312L447.719 129.352L447.295 130.585L447.41 131.817L447.719 133.05L447.834 134.283L447.68 136.825L447.526 137.364L446.794 138.25L446.524 138.751L446.409 139.329L446.293 142.911L446.37 143.411L446.524 143.681L446.679 143.797L446.794 143.951L446.948 144.952L447.141 145.722L447.333 145.838L447.449 145.992L447.372 146.454L447.179 146.724L446.948 146.84L446.717 146.917L446.332 147.263V147.648L446.794 148.111L447.141 148.534L447.526 148.997L448.027 149.074L448.643 148.611L450.145 146.955L450.453 146.454L450.838 146.762L450.916 147.263L451.07 147.802L451.185 148.38L450.8 148.958L449.953 150.653L449.876 151.423L449.606 153.426L448.99 155.159V156.238L448.373 158.125L447.911 159.05L447.719 159.512L447.911 160.051L448.142 160.321L448.296 160.59L448.219 161.245V162.016L447.988 163.171L447.757 163.672L447.372 164.211L447.025 164.404L446.871 163.903L446.717 163.248L446.409 162.747L446.062 162.67L445.87 163.248L446.178 163.325L446.37 163.556L446.448 163.903V164.327L446.37 164.712L446.139 164.789H445.87L445.677 165.02V165.213L445.754 165.752L445.87 166.33L445.639 166.676L445.446 167.023L445.639 167.293L445.793 167.447V167.832L445.253 167.986L444.791 168.256L444.136 168.91H443.559L443.443 169.296V169.835L443.25 170.104L443.096 170.335L443.212 170.721V170.875L442.942 171.414L442.557 172.223L442.134 172.724L441.902 173.186L441.748 173.494H441.363H441.093H440.747L440.516 173.532L440.246 173.648H439.977V174.11L440.169 174.38V174.727L440.092 175.112L439.553 175.343L439.129 174.958L438.859 174.727L438.667 174.495L438.051 175.15L437.781 175.69L437.704 176.267L437.511 176.421L437.396 176.152L437.126 175.844V176.113L437.203 176.691H437.011L436.934 176.498H436.818L436.587 176.614L436.356 176.768L436.202 176.575L436.009 175.921L436.086 175.343L436.279 174.611V174.187L436.202 174.072L435.971 174.38L435.239 175.651H434.892V175.073V174.534H434.738L434.545 174.996L434.391 175.69L433.814 175.612H432.234L432.157 175.112L432.003 174.842L431.772 175.651L431.541 175.767L431.002 175.497L430.732 174.996H430.463L430.077 175.227V173.956L429.962 173.841L429.769 173.918L429.615 174.187V174.65L429.23 174.341L428.922 173.918L428.614 173.648L428.151 173.841L428.267 173.417L428.074 172.839L428.151 172.608L427.92 171.838L427.766 171.761L427.497 171.992L427.188 172.454V172.762L427.497 173.378L427.651 174.149L427.766 174.418L427.959 174.765L428.344 175.304L428.421 175.574L428.306 175.959H428.498L428.806 176.113H428.96L428.768 176.306H428.575L428.074 176.344L427.805 176.267L427.728 176.113V175.921L427.651 175.728L427.42 175.497L427.265 175.381L425.994 174.919H425.648L424.839 175.035L424.608 175.15V175.343L424.916 175.728L424.492 175.805L423.683 176.229L422.759 176.498L422.643 176.884V177.269L422.335 177.538V177.731L424.723 176.46H425.108L425.185 176.961L425.34 177.346V177.692L425.185 178.078L424.877 178.232L424.415 178.309H423.953L423.645 178.155L423.491 178.424L423.606 178.578L423.837 178.694L423.991 178.925V179.079V179.31V179.926L423.799 181.121L424.03 181.313L424.223 181.236L424.377 181.005L424.454 180.735L424.762 181.121L424.415 181.698L423.799 182.469L423.26 182.623H422.528V182.122H422.99L423.183 182.083L423.298 181.891L421.834 181.737L421.526 181.621L421.18 181.159V180.928L421.372 180.774L421.912 180.543L421.372 179.464L420.987 179.849L420.602 180.62H420.063L419.562 179.965L419.292 179.811H418.753L418.522 179.888L418.406 180.235V180.697V181.121L417.906 181.044H416.789L416.365 180.851V180.697L416.326 180.273V180.158H416.172H415.903H415.556H414.978L414.786 180.004L414.67 179.772V179.541L414.747 179.31V179.118V176.961V176.614L414.863 176.46L414.978 176.229L415.094 175.959V175.612L414.747 176.075L414.439 176.614L414.054 176.999H413.476L413.9 178.078L413.592 178.27H412.937L412.32 178.655L412.089 177.962L411.935 177.692L411.666 177.5L411.589 178.424L411.319 179.156L410.818 179.618H410.163L409.894 179.58L409.663 179.503H409.47L409.316 179.657L408.969 179.349L408.738 179.272H408.584H407.621H407.313L407.198 179.079L407.121 178.848L406.967 178.578L406.697 178.347L406.62 178.578V178.925L406.697 179.079L406.543 179.618L406.466 179.811L406.235 180.081L405.349 180.812L404.848 181.044L404.501 180.735L404.039 179.811L403.654 179.657L403.384 180.042L403.269 180.62V181.121L403.5 181.621L403.885 182.276L404.309 182.854L404.694 183.085L404.964 183.432L405.195 183.547L405.503 183.355L406.235 182.661L406.735 182.584L407.159 182.661H407.583L408.045 182.43V183.008L407.929 183.432L407.698 184.24L407.429 185.704L407.236 186.051L406.389 186.32L405.734 185.974L405.195 185.858L404.771 186.821L404.617 186.744V186.821H404.501L404.694 187.245L404.848 187.669L405.041 188.978L404.925 189.209L404.694 189.055L404.309 188.632L403.731 188.555L403.307 188.323L403.038 187.9L402.922 187.245L403.076 186.629L403.384 186.012L403.615 185.435L403.5 184.934L403.307 184.664L402.922 183.855L402.807 183.778H402.691H402.537L402.421 183.663V183.509V183.316L402.498 183.201L402.152 182.43L402.075 182.161V182.006L402.19 181.737V181.583V181.429L402.075 181.313H401.959L401.921 181.39L401.844 181.467L401.42 182.507L401.266 182.738H401.189L401.073 182.815L400.264 183.085L399.802 183.162H398.762L398.377 183.239L398.685 183.509L399.301 183.778L399.802 183.932V184.125L398.801 184.433L398.3 184.703L398.223 185.088L398.416 185.242L398.878 185.049L399.109 185.165L399.263 185.435V185.55H399.07L398.993 185.627L399.34 186.783L400.033 187.399L400.765 187.861L401.266 188.593H401.035L400.611 188.555H400.418L401.458 188.978L401.574 189.286L401.651 189.903L401.42 190.134L401.189 190.326H400.727L400.418 190.365L399.34 189.672L398.993 189.556L398.685 189.633L398.3 189.826L397.992 190.057L397.838 190.288V190.365L398.184 190.981L398.531 191.058L398.724 191.174L399.648 190.943L400.149 191.366L399.032 192.406L398.647 192.984L398.223 192.791L397.53 193.331L397.607 193.831L397.915 194.178H397.26L396.297 192.907L395.95 192.214L395.064 191.251L394.795 191.328L393.832 191.829L393.909 192.137L393.986 192.252L393.601 192.137L393.216 192.06L392.907 191.906L392.676 191.482V191.058L392.792 190.827L393.331 190.519L393.485 190.365L393.947 189.71L394.256 189.094L394.41 188.863L394.756 188.709V189.209L394.602 189.672L394.256 190.519H394.949L395.527 190.249L395.873 189.749V188.901L395.719 188.555L395.527 188.362L395.373 188.131V187.707L395.488 187.476L396.181 186.706L396.413 186.821L396.567 187.014V187.245L396.49 187.515L396.644 187.9L396.836 188.169L397.106 188.246L397.491 188.092L397.645 187.9L397.953 187.206L398.146 186.898L397.799 186.398L397.684 185.897L397.53 185.666L397.067 186.012L396.528 186.243L396.104 185.897L395.527 184.934L395.18 185.473L394.718 186.706L394.371 187.129L394.024 187.283H393.716L393.1 187.129L392.83 187.245L392.561 187.476L392.137 188.054L391.945 188.208L391.059 188.709L390.596 189.055L390.288 189.248L389.98 189.325L389.788 189.402V189.633V189.941V190.288L389.595 190.519L389.364 190.789L389.248 191.097L389.441 191.482L388.131 192.791V193.986L387.939 194.178L387.322 193.87L387.13 194.14L387.014 194.409V194.717L387.168 195.064L386.86 194.949L386.205 194.486L385.281 194.217L385.088 194.101L384.896 193.562L385.011 192.098L384.934 191.52L385.05 191.174V190.712L384.857 190.326L384.588 190.134L384.318 190.211L384.048 190.442L383.856 190.75L383.779 191.02L383.894 191.405L384.048 191.752V191.983L383.316 192.214L383.394 192.56L383.933 193.254L383.008 193.793L382.662 194.101L383.008 194.255L383.085 194.332V194.486V194.64L383.008 194.717H382.854L382.623 194.563H382.508H382.199L382.122 194.679V194.91L382.007 195.18L381.814 195.295L381.121 195.488L380.851 195.719L380.774 195.911L380.196 197.876V198.145L380.158 198.492L379.58 198.377L378.463 198.723H378.194V198.338L378.425 197.645V197.298L378.155 197.106L377.847 197.028H377.231V196.874L377.346 196.72V196.605L377.423 196.143H377.5H377.616L377.731 196.066L378.078 195.449L378.155 195.141L378.078 194.833L377.962 194.756L377.77 194.679H377.423L377.154 194.563V194.409V194.255H377.192V193.831L377.269 193.485V193.292L376.845 193.408L376.961 192.714L377.423 192.368L378.039 192.252H378.617L378.502 192.021L378.348 191.867L378.155 191.752L377.924 191.674L378.309 191.405L378.54 191.097V190.827L378.271 190.673H378.155L377.924 190.981L377.77 191.097H377.577L377.269 190.904H377.115L376.961 191.02L376.845 191.212L376.768 191.482H376.576L376.383 191.52H376.152H375.651H375.382L375.035 191.713V191.251L374.804 190.981L374.226 190.712V190.634L374.111 190.403L373.957 190.249L373.88 190.442L373.803 190.557L373.648 190.673H373.456H373.302L372.801 190.211H372.724L372.647 189.903V189.826L372.801 189.787L372.878 189.633L372.955 189.787H373.186L373.34 189.633L373.225 189.325L372.57 189.017L372.069 188.67V187.823L372.223 186.898L372.454 186.243V186.012V185.743V185.512L372.685 185.435H372.878L373.071 185.512L373.225 185.589L373.379 185.935L374.111 187.014L373.88 187.322L373.803 187.63V187.938L373.918 188.246L374.419 189.633L374.727 189.826L375.921 190.018L376.422 190.365H376.691L376.884 189.826H376.614H376.46L375.96 189.71L375.728 189.363L375.42 189.055L375.497 188.4H375.189L375.035 188.863H374.804L374.65 188.362L374.573 187.63L374.765 187.206L374.611 186.706L375.266 186.629L376.268 186.86L376.383 187.091L376.306 187.476V187.592V187.707V187.9L376.614 188.054L376.768 188.246L377.077 188.439L377.5 188.593L377.77 188.863L378.117 189.094L378.386 189.248L378.502 189.132L378.001 188.477L378.309 188.4L378.733 188.67L379.311 188.978L380.004 189.209L380.505 189.094L380.004 189.017L379.58 188.747L378.848 188.131L379.041 187.9L378.54 187.515L377.77 186.513L377.346 186.32L376.768 186.205H376.075L375.574 185.935L374.958 186.089L374.419 185.897L374.342 185.627L374.688 185.203L375.035 185.049L375.728 185.165L376.653 184.741L377.731 185.55L378.117 185.473L378.194 185.55L378.271 185.627H378.348L378.463 185.704L378.348 185.126V184.626L378.694 184.24L379.272 184.086L380.351 184.395H380.928L380.774 184.086L381.159 183.894H381.352H381.583L381.236 183.47L380.697 183.355L379.465 183.47L379.542 183.201V183.008L379.465 182.815V182.507L379.542 182.315L379.657 182.161L379.773 181.968V181.66L379.58 181.236L379.234 181.121L378.887 181.275L378.617 181.621V181.852L378.733 182.353V182.623V182.661L378.463 183.239L378.194 184.24L377.962 184.587H377.5L377.346 184.472L377.462 184.318L377.577 184.009L377.693 183.855L377.385 183.701L377.154 183.817L376.961 184.009L376.653 184.125L376.037 183.971L375.844 184.048V184.356H375.459L374.958 184.51L374.727 184.395L374.65 184.086L374.804 183.817L375.305 183.316L375.497 183.046L375.613 182.854V182.661L375.651 182.43L375.574 182.006L375.651 181.775L375.96 181.506L375.651 181.275L375.382 180.774L375.228 180.196V179.734L375.613 179.426L376.075 179.118L376.229 178.848L375.651 178.694H375.382L375.228 178.886L375.112 179.041L374.92 179.118L374.688 179.233V179.503L374.842 179.849V180.119L374.534 180.427H374.111L373.687 180.312L373.379 180.119L373.61 179.965H373.725L373.533 179.772L373.34 179.58L373.186 179.349L373.071 179.079L373.34 178.925H373.61L374.188 179.079L374.111 178.463L374.765 177.808L374.573 177.192L373.88 176.267L373.456 175.882L372.994 175.728L373.186 176.383L373.032 176.768H372.685L372.339 176.344L372.57 176.036L371.954 175.227L371.877 174.727L372.223 174.341L372.724 174.264L373.148 174.495L373.34 174.958L373.648 174.765L373.803 174.418L373.995 173.764L374.149 174.11V174.38V174.919L374.034 175.189V175.343V175.497H374.226H374.303L374.38 175.882V176.036L374.496 176.113L374.765 176.267L374.997 176.344H375.382L375.574 176.46L375.42 176.807V177.115L375.613 177.423L375.882 177.692L376.499 176.344L376.576 175.882V175.381L376.46 175.189L375.998 175.073L375.805 174.958L375.651 174.804L375.42 174.149L374.65 173.224L374.457 172.801V172.647L374.611 172.531L374.727 172.377V172.107L374.534 171.915L374.419 171.684V171.298L374.149 171.414H373.841L373.148 171.491L373.417 171.144L373.841 171.029H374.342L374.765 170.913H374.611L374.534 170.798L374.457 170.721H374.265L374.38 170.413L374.534 170.258L374.688 170.143L374.842 169.989L374.92 169.758V169.565L374.804 169.373V169.18L374.842 168.718L375.035 168.256L375.574 167.447L375.728 167.601L376.075 168.063L376.499 168.178H376.73L376.653 167.947L375.882 167.061L375.767 166.753L375.96 166.06L376.383 165.213L377.038 163.71L377.577 162.94L378.348 162.67L379.234 162.478H380.004L380.351 162.17L380.697 161.669L381.159 161.553L381.583 162.016L382.007 162.555L382.315 162.67L382.007 161.592L381.776 161.091L381.429 160.899L378.039 161.438L376.845 160.706L376.922 159.936V159.627L377.5 159.358L378.001 158.857L378.463 158.356L379.195 157.933L380.081 157.432L380.736 156.508L380.851 155.622L381.236 155.391L381.506 155.236L381.66 155.121L382.508 155.044L383.355 155.159L383.894 155.583L384.279 155.66L384.549 156.084L384.665 155.853L384.742 155.506V155.159L384.472 154.89L384.241 154.736L383.779 154.505L383.278 154.158L382.854 153.85L382.623 153.734L382.7 153.465L382.893 153.195L383.085 153.041H383.316H384.665H384.973L385.204 152.887L385.358 152.617V152.386L385.512 152.232H385.859L385.974 152.078L385.859 151.847L385.589 151.616L385.319 151.5L385.242 151.577L383.471 152.271H382.893L381.737 152.232L380.582 152.155V151.654L380.505 150.961L380.274 150.768L379.58 150.537L378.54 150.691L378.425 149.805L380.582 149.574L381.776 149.42L382.97 149.343L383.355 149.112L383.779 149.228L384.279 148.958L385.165 148.303L386.282 147.841L386.745 147.494V147.071L385.396 147.494L384.896 147.648L384.433 147.995L384.048 148.38L383.586 148.611L383.047 148.688L382.546 148.919L382.199 148.727L382.084 148.534V148.265L381.93 147.88L381.737 147.571L381.352 147.032L381.121 146.685L381.468 146.416L381.314 146.223L381.005 146.069L380.697 145.954L380.158 145.029L379.734 144.837L379.426 145.029H379.272V144.721L378.733 144.374L378.271 144.451L378.117 144.991L378.039 145.183L377.885 145.029L377.962 144.182L378.771 143.758L379.503 143.527L380.505 143.797L380.158 143.219L379.965 142.988L379.696 142.795H379.542L379.349 142.872L379.195 142.795L379.002 142.603L378.848 142.41L379.349 141.023L379.619 140.407L379.965 140.176L379.696 139.868L378.694 139.56L378.348 139.367L378.694 139.02L379.773 138.751L380.004 138.443L379.85 138.057L379.465 137.942H378.694L378.54 137.826L378.271 137.48L378.078 137.326V137.133H378.386L378.039 136.478L378.463 136.247L378.964 136.093L379.426 135.438L380.428 135.169L380.89 134.937H379.503L379.157 135.13L378.656 135.9L378.271 135.977L378.039 135.708L377.808 135.169L377.654 134.591V134.244L378.155 133.666L378.386 133.32L378.309 133.166L377.847 133.32L377.654 133.127L377.462 133.012H377.346L377.231 132.703L377.346 132.472V132.203L377.192 131.702L377.038 131.471V131.355H377.346L377.808 131.124H378.309V130.778L378.463 130.469L378.271 130.2L378.001 130.123L377.616 129.738L377.847 129.391L378.194 129.121L377.962 128.698L377.385 128.582L377.269 128.081L377.462 127.696L378.001 127.619L377.693 127.272L377.577 127.08L377.5 126.81L377.308 126.964L376.961 127.349L376.576 127.503L376.499 127.696V127.889L376.691 128.158V128.659L376.537 129.237L376.653 130.007L376.383 130.662L376.152 130.932L375.728 130.585H375.266L374.804 130.277L374.92 128.659L375.074 128.081L374.804 127.966L374.881 127.195L374.611 126.887L374.226 126.964L373.995 127.349L373.918 127.812L373.764 128.158H373.225L373.456 128.621L373.88 129.314L374.034 129.815L373.764 130.046V130.277L374.188 130.816L373.841 130.893L373.533 131.086L373.263 131.355L373.071 131.663V131.432V131.201V131.009L372.917 130.855L373.263 130.123L372.57 128.967L372.763 128.389L372.57 127.581L372.146 127.812L371.53 128.621L371.068 128.775H370.798L370.567 128.929H370.336L370.028 128.775L369.951 128.621L369.835 128.351V128.081L369.912 127.966H370.914L371.183 127.812V127.349L370.914 126.887L370.528 126.695L370.143 126.579L369.835 126.309L369.72 126.656L369.643 127.388L369.527 127.735L369.257 128.004L369.18 127.773V127.041V126.309L369.257 126.117L369.874 125.346L369.989 125.077L370.066 124.692L370.143 124.961L370.259 125.231L370.374 125.462L370.528 125.693L370.644 125.578H370.798L370.991 125.655H371.183L370.952 125.346L370.683 124.884L371.376 125.077L371.646 125L371.838 124.653H371.222L370.837 124.422V124.037L371.183 123.382L370.644 122.92V122.496L371.106 122.149L371.684 121.957L371.53 122.689L371.607 122.881L371.954 122.958H372.531L372.685 122.843L372.84 122.573V121.918V121.032L372.955 120.301L373.494 120.147L373.417 120.57V121.225L373.533 121.88L373.841 122.65L373.687 122.92L373.456 123.151L373.302 123.421V123.69L373.456 124.114V124.229L373.34 124.384L372.917 124.653L372.84 124.73V125L372.955 125.269L373.071 125.424L373.225 125.346L373.61 124.961H373.918L374.611 125.424L374.111 124.345L373.918 123.69L374.188 123.382L374.573 123.883L374.804 124.037L374.92 123.729L375.035 123.613L375.266 123.498L375.728 123.382V123.189H375.536L375.074 122.958V122.766L375.651 122.65L375.998 122.111L376.075 121.456L375.882 120.955L375.69 120.878H375.074L374.765 120.724L374.534 120.455L374.457 120.185L374.573 120.07L374.92 120.301L375.074 119.838L374.92 119.569L374.534 119.453H374.111L374.303 119.261L374.534 119.107H374.804L375.035 119.184L375.266 119.376H375.459L375.536 119.338L375.42 119.107V118.875H376.306L376.73 118.991L376.922 119.376L376.807 119.607L376.576 119.877L376.422 120.224L376.576 120.724L376.768 120.532L377.038 120.378H377.269L377.385 120.647V120.84L377.539 121.032V121.225V121.302L377.308 121.572L377.231 121.764V123.112L377.308 123.498L377.5 123.767L377.693 123.883L377.77 123.729L377.885 122.997L378.309 121.572L378.425 120.878L378.54 120.724L378.848 120.917L379.272 121.379L379.426 121.687L379.542 121.995L379.734 122.188H380.081V122.034L379.927 121.803L379.734 121.187L379.542 120.878L378.078 119.338L377.962 119.261L378.039 118.952H378.232L378.463 119.222L378.848 119.684L379.041 119.877L379.272 119.992H379.58L379.811 119.877V119.684L379.657 119.492L379.311 119.415L378.848 119.184L378.348 118.721L378.117 118.028V117.566H378.502L378.887 117.758L379.234 118.067L379.696 118.413L380.158 118.721L380.351 118.914L380.697 119.145L381.044 119.338L381.275 119.761L381.159 120.147L380.928 120.416V120.647L381.198 121.109V121.379L381.121 121.88L381.391 121.687L381.506 121.456L381.583 121.225L381.506 120.493L381.622 120.262L381.776 119.992L382.007 119.569L382.392 119.376H382.777L383.201 119.415L383.663 119.569L384.241 119.723L384.665 119.992L385.165 120.493V121.148L384.819 122.419L385.088 122.227L385.551 121.649H385.782L385.936 121.841L386.051 122.265V123.112V123.305L385.936 123.729V123.96V124.191L386.128 124.538L386.321 125.462L386.244 125.732L385.859 125.847L385.936 126.117L386.013 126.271L386.167 126.386L386.359 126.463L386.513 125.809L386.745 125.424L386.86 125L386.667 124.268L387.168 124.422L387.669 124.499L386.86 123.575L386.629 123.074L387.13 122.843L387.553 122.766L388.593 122.342L389.364 121.764L389.71 121.61L389.98 121.302L390.134 120.57V120.455L389.865 120.224V120.147L389.942 120.031H390.057H390.173L390.519 119.838H390.712L390.866 119.684L390.943 119.338L389.518 119.723L389.287 120.031L389.364 120.955L389.21 121.148L388.67 121.341L387.862 121.225L386.937 120.686L386.09 119.838L385.782 119.03L387.207 118.875V118.683H387.091L386.86 118.452H387.13H387.399L387.63 118.529L387.823 118.683L387.708 118.105L387.399 117.604L387.168 117.027L387.361 116.256L387.091 116.141L386.899 116.41L386.783 116.873V117.335L386.629 117.874L386.398 117.99L386.167 117.758L385.705 117.835L385.242 117.951L384.125 117.604V117.258L384.048 116.95L384.125 116.564V116.064L384.356 115.563L384.703 115.101L385.088 114.908L385.512 114.754H386.128L386.783 114.561L386.899 114.369V113.83L386.783 113.714L386.436 113.907L385.936 114.33L385.628 114.253L385.396 114.138L385.281 113.907V113.56L384.703 113.868L384.241 114.215L383.394 115.139L383.162 115.332L382.893 115.447H382.623L382.469 115.293V115.024L382.623 114.754L382.97 114.253L382.276 114.407L382.045 114.33L381.968 113.907L382.084 113.598L382.392 113.444L382.739 113.329L382.97 113.175L383.278 112.79L383.201 112.674L382.546 112.751L382.354 112.636L382.199 112.327L382.045 111.942L381.853 111.557H381.968L382.045 111.48L382.199 111.326L382.392 111.441H382.662L383.124 111.326L383.509 111.441L383.817 111.634L384.125 111.75L384.51 111.557V111.904V112.212L384.626 112.481L384.857 112.597L385.088 112.481L385.204 112.212L385.319 111.557L385.705 110.941H386.051L386.436 111.21L386.976 111.133L386.86 110.902L386.706 110.71L386.513 110.594L386.282 110.517H385.936L385.782 110.286L385.435 110.209L385.165 110.286H384.896L384.433 110.17L383.702 109.939L382.662 109.169V108.822L383.085 108.167L383.394 107.859L383.316 107.667L382.084 107.513L381.506 108.244L380.89 107.782L381.121 107.243L381.429 106.781L381.236 106.434L380.813 106.203L380.428 106.01V105.471V105.047L380.659 104.662L381.352 104.47L381.545 104.354V104.123L381.275 104.046L381.198 104.316H380.697L380.582 104.084V103.545L380.659 102.813L380.543 102.544L380.351 102.082L380.158 101.735L379.888 101.311L379.619 101.042V100.618L379.503 100.002L379.234 99.0386L378.887 96.5735L378.964 96.1498L379.272 96.0727L380.582 96.535L381.005 96.4579L381.352 96.3039L381.66 96.2269L381.968 96.4579L382.084 96.8046V97.3438V97.9217L381.968 98.3068V99.0002L382.7 99.6165L383.625 100.002H384.202L383.74 99.5779L382.354 98.5765L382.739 97.498L382.854 96.8432L382.739 96.3809L382.508 95.9187V95.649L382.469 95.3024L382.585 94.6861L382.816 94.1854L382.623 93.9543H382.392L382.045 94.2239L381.891 91.6432L382.007 90.9113L382.276 90.7187H382.7L383.316 90.4491L384.279 89.6788L386.321 86.5588L386.745 86.1352L387.669 85.4033L388.054 84.941L388.555 83.747L388.863 82.9381L389.171 82.5529L389.325 82.3603L390.635 81.2818L392.137 80.3189L393.755 79.6641L395.296 79.51L396.066 79.587L398.993 79.3174L401.266 80.0107L401.998 79.9337L403.384 79.51L407.968 79.1248L408.161 79.2404L408.469 79.6641L408.777 79.9722L409.124 80.0493L410.703 79.7026L413.206 79.8567L414.824 79.7411L416.48 79.1633L418.021 78.1619L419.292 76.8137L419.832 76.0049L420.294 75.1575L420.602 74.233L420.717 73.1545L420.525 72.1145V71.5753L420.64 71.1901L421.295 70.6894L422.643 69.9961L422.027 70.1886ZM375.305 135.361L375.497 135.9L375.805 136.401L375.96 136.863L375.728 136.748L374.65 136.825H374.303L374.226 136.324L374.342 136.17L374.534 136.016L374.65 135.746L374.072 136.093L373.803 135.977L373.88 135.554L374.303 134.937L374.149 134.745L373.841 135.13L373.725 134.86L373.494 134.976L373.61 134.283L373.533 133.204L373.417 132.549L373.186 131.702L373.379 131.432L373.803 131.047L374.265 130.893L374.573 131.394V131.586L374.496 131.817L374.303 131.972V132.164L374.727 133.089L374.804 133.397L374.688 133.628L374.804 133.859L375.074 134.013L375.305 134.398H374.804V134.591H374.958L375.305 134.822V135.014L375.266 135.169L375.343 135.438L375.305 135.361ZM372.685 95.1483H373.148L373.571 95.2253L373.803 95.495L373.648 96.0342L373.225 96.3809H372.685L371.684 96.1883L371.453 96.2653L371.183 96.4195H370.952L370.875 96.1113V95.9958L371.183 95.1483L371.491 94.8787L371.838 94.8017L372.223 94.9173L372.685 95.1868V95.1483ZM388.208 222.142L388.401 222.527L388.285 222.643L388.054 222.72L387.9 222.913V223.067L388.054 223.336V223.49L387.977 223.644L387.785 223.914V223.991L387.322 224.492L386.513 225.147L386.244 225.686L385.897 226.302V226.572L385.705 226.957L385.127 227.034L384.896 227.15H384.279L383.355 227.804L380.928 228.267L380.119 228.96L379.118 229.191L378.078 229.075L376.884 229.307L375.882 228.998H373.61L372.917 229.345L372.493 230.077L372.108 230.154L371.723 229.961L371.183 229.075L370.451 228.844L369.758 228.112L369.527 227.227L369.951 226.071L370.336 225.339L370.567 225.07L371.414 224.569L372.108 223.336L372.763 223.182L373.071 222.527L374.188 222.142L376.614 221.449L377.231 220.91L379.542 220.679L381.121 219.985L381.506 220.101L383.432 219.793L384.549 219.716L385.281 219.831L385.551 220.255L385.897 220.524L387.053 220.987L387.399 221.333L387.63 222.181L387.862 222.527L387.977 222.412L388.131 222.296L388.208 222.181V222.142ZM393.639 193.215L394.371 193.138H394.756L395.064 193.331L395.334 193.793L395.257 194.332L394.949 194.756L394.525 194.949L393.524 195.141H393.139L392.869 194.949L392.291 194.563V194.332L392.407 194.178V194.063L392.33 193.947L392.099 193.793L392.445 193.562L392.83 193.408L393.601 193.254L393.639 193.215ZM374.727 192.791V193.177V193.639L374.611 194.063L374.149 195.064L373.957 195.372L373.725 195.526V195.449L373.263 195.064L373.071 194.949V195.141L372.955 195.603L370.683 196.836L370.413 196.913L369.411 196.99L369.142 196.913V196.643L369.219 196.451L369.411 196.258L369.488 196.104L369.373 195.911L368.68 195.488V196.104L368.179 195.526L368.487 194.563L369.18 193.793H369.835L370.066 193.1L370.22 192.869L370.451 192.637L370.721 192.483H370.952L371.106 192.329L371.183 191.906L371.453 192.252H371.838L372.185 192.06L372.339 191.636L372.146 191.289L371.53 190.789L371.684 190.557H372.069L372.454 190.75L372.801 191.02L373.071 191.135L373.148 191.212L373.225 191.405L373.34 191.597L373.494 191.713H373.61L374.149 191.328V191.597L374.881 192.753L374.727 192.791ZM408.161 187.399L408.392 187.476L408.623 187.823L408.777 188.246L408.969 188.978V189.402L408.931 189.826L408.777 190.211L408.546 190.442H408.276L408.006 190.326L407.159 189.479L407.044 189.132L407.198 188.593L407.313 188.439L407.775 188.092L407.852 187.9L408.045 187.168L407.698 186.783V186.552L408.006 186.436H408.315L408.584 186.513L408.661 186.783L408.546 187.091L408.238 187.36L408.161 187.399ZM365.406 186.552L365.675 186.821L365.752 186.937V187.168V187.399L365.637 187.63L365.29 188.131L365.136 188.246H364.982H364.751V188.169L364.404 187.977L364.019 187.823H363.903L363.672 187.36L363.826 187.129L364.52 186.86L364.943 186.282L365.097 186.205L365.174 186.282L365.367 186.667L365.406 186.552ZM365.829 184.587V185.203L365.714 185.165L365.444 185.088L365.329 185.011L365.136 185.28H364.828L364.52 185.203L364.404 185.28V185.666L364.212 186.012L364.019 186.282L363.749 186.398H363.48L363.287 186.166L363.172 185.858V185.473V185.126L363.364 184.857L363.634 184.703L363.942 184.587L364.25 184.703L364.674 184.626L365.444 184.318H365.598H365.714L365.791 184.395L365.868 184.587H365.829ZM366.985 180.735L367.1 180.35L367.331 180.273L367.601 180.466L367.794 180.812V181.236V181.66L367.601 182.006L367.331 182.238L366.985 182.353L366.792 182.276L366.638 182.161L366.446 182.083L365.675 182.276H365.367V182.083L365.598 181.891L366.022 181.198L366.33 180.889H366.484L366.715 180.966H366.908L366.985 180.774V180.735ZM415.017 183.586L415.132 183.932L415.055 184.24L414.94 184.549L414.863 184.934L414.94 185.55V185.897L414.786 186.051L414.593 186.166L414.786 186.744L414.67 187.052L414.285 187.129L413.938 186.937L413.553 186.783L413.129 186.975H412.744L412.513 186.475L412.243 185.319L411.858 185.088L411.55 185.319L411.358 185.82L411.281 186.436L411.126 186.706H410.78L410.433 186.59L410.202 186.436L410.048 186.166V185.935L410.009 185.666V185.28L409.316 183.123L409.239 182.623L409.316 182.122L409.586 181.583L409.778 181.467H409.971L410.125 181.352L410.241 180.697L410.395 180.504L410.78 180.196L411.088 180.042L411.435 180.158L411.743 180.427L411.935 180.774V181.159L411.704 181.506L411.165 182.083L411.281 182.276L411.396 182.777L411.512 183.046L411.704 183.201L412.205 183.355L412.475 183.855L412.937 183.778L413.515 183.547L414.054 183.432L414.863 183.547L415.017 183.624V183.586ZM431.194 182.006V182.353L431.079 182.7L430.886 182.892L430.578 182.738L430.694 183.123L431.002 183.778L431.079 184.24L430.886 184.318L430.463 184.163L430 183.932L429.731 183.74L429.654 184.163L429.577 184.395L429.153 184.895L429.037 185.28L429.307 185.512L429.692 185.666L429.885 185.897L429.5 186.243L427.766 186.783H427.227L428.036 186.243L427.689 186.089L427.574 185.82V185.473L427.728 185.049L426.996 185.435L426.765 185.28L426.649 184.934V184.587L426.803 184.433L427.381 184.318L427.535 184.009V183.547L427.689 183.046L427.381 182.854L427.15 183.162L426.303 183.547L425.917 183.855L425.648 183.432L425.301 183.046L425.032 182.623L424.954 182.083L425.108 181.737L425.417 181.429L425.763 181.198L426.071 181.082L426.957 180.889H427.188L427.574 181.044L427.882 181.236L428.19 181.39H428.614V181.236L428.19 180.928L427.92 180.504L427.805 180.004V179.541L428.113 179.58L429.769 178.617L429.5 178.078L429.615 177.538L430 177.23L430.424 177.384L430.54 177.615V177.885L430.385 178.964V179.118L430.501 179.464L430.655 179.734L430.771 180.004V180.389L430.655 180.735L430.27 181.737L430.771 181.583L431.002 181.429H431.079V181.968L431.194 182.006ZM368.256 176.691H368.14L367.524 176.537H367.293H367.216L367.139 176.46H367.062L366.946 176.383L367.139 175.458L367.254 175.189L367.409 175.112L367.678 175.035L367.948 174.919L368.063 174.727L368.256 174.341L368.68 174.072L369.18 173.956L369.527 174.072L368.795 174.495L368.641 174.727V175.035L368.718 175.343L369.026 175.844L368.757 175.959L368.487 176.229L368.294 176.537L368.217 176.768L368.256 176.691ZM379.041 103.776L379.118 103.892L379.195 104.046L379.311 104.162L379.426 104.354L379.503 104.508H379.388L379.195 104.701L379.118 104.816L378.694 104.932H378.502L378.232 105.009L377.693 105.24L377.385 105.51L377.231 105.818L376.191 106.588H375.96H375.728H375.651L375.536 106.203L375.343 106.087L375.266 106.165H375.189V106.049V105.895H375.035L374.958 106.01L374.804 106.126L374.611 106.049L374.342 105.972L374.496 105.818V105.664L374.188 105.433L374.111 105.279L374.188 105.047H374.342L374.534 105.125L375.613 104.354L376.383 104.277H376.922L377.423 104.046L377.577 103.391L377.924 103.276L378.194 103.545H378.309L378.463 103.661H378.617L378.733 103.738H378.887L379.079 103.853L379.041 103.776ZM482.577 102.813L483.001 103.122V103.892L482.693 104.739L482.423 105.317L481.961 105.548L481.345 105.433L480.767 105.086L480.382 104.624L480.266 104.008L480.459 103.545L480.883 103.276L481.73 103.122L482.308 102.929L482.577 102.852V102.813ZM374.111 98.3068L374.419 98.5379L374.65 98.8076V99.0771L374.457 99.3853H373.957L372.339 98.1528L372.531 97.9601L372.647 97.729L372.801 97.1512L372.878 96.9972L372.994 96.8432L373.109 96.7276H373.263H373.34L373.417 96.8046V96.9201L373.533 97.4594V97.5749L373.687 97.7675L373.841 97.9217L374.149 98.1912L374.111 98.3068ZM377.731 101.273H377.539L377.385 101.234L377.115 100.965L376.922 100.849H376.807L376.691 101.003H376.614L375.343 101.119L374.881 100.887L374.38 100.233L375.112 100.04L375.305 99.9245L375.497 99.6165V99.4623L375.343 99.3853L375.228 99.2313L374.38 97.6135V97.3824V97.0743V95.649L374.457 95.341L374.688 95.2639L375.266 94.6091L375.69 94.4936L376.075 94.7631L376.422 95.1868L376.768 95.5335L377.539 95.9187L377.847 96.2269L377.962 96.7276V96.9587L377.808 97.3824V97.5749V97.7675L378.039 98.1912V98.4223L378.155 99.5008L378.078 99.7705L378.194 99.9245L378.309 100.233L378.386 100.348L378.078 100.541L377.808 101.157L377.577 101.35L377.731 101.273ZM335.4 89.6788L335.67 89.987V90.4491L335.285 90.6802L334.822 90.4106H334.206L334.09 90.5262V90.8343L334.322 90.9499H334.591L334.707 91.1039L334.206 91.4892L333.243 91.335L332.511 90.7187L332.742 89.6402L333.359 89.8713L334.668 89.4091L335.323 89.6402L335.4 89.6788ZM396.875 206.504L397.029 206.619H397.183L397.26 206.774V206.928L396.875 206.774L396.567 206.696L396.49 206.619L396.413 206.427V206.196L396.259 206.119L396.181 206.042L396.104 205.849V205.734V205.618V205.502H396.181H396.259H396.374L396.451 205.425L396.528 205.541L396.451 205.811V206.119L396.798 206.619L396.875 206.504ZM402.19 194.101L402.306 194.371V194.525L402.113 194.717L401.69 194.987L401.304 195.103L401.15 195.026V194.794L400.996 194.64L400.765 194.563L400.65 194.409L400.727 194.294L400.457 194.14L400.303 194.024L400.38 193.793V193.639L400.341 193.523L400.457 193.446L400.611 193.523L400.804 193.639L401.15 193.716V193.793H401.266L401.497 193.562H401.728L402.267 194.101H402.19ZM408.161 192.483L408.315 192.56L408.43 192.714V192.907L408.084 193.023H407.891L407.852 192.984L407.775 192.869L407.544 192.753L407.198 192.637L406.967 192.445L406.851 192.214L406.735 192.021L406.543 191.906L406.389 191.713L406.504 191.482L406.889 191.289L407.313 191.212L407.621 191.443L407.968 192.137V192.329V192.445H408.161V192.483ZM368.025 189.903H368.063L368.102 190.095V190.403L368.025 190.712V190.981L367.871 191.135L367.678 191.289L367.486 191.482L367.023 191.752H366.754L366.484 191.713L366.407 191.559H366.561L366.715 191.52L366.831 191.405L366.985 191.289V191.174L366.446 191.058L366.561 190.904H366.908L367.254 190.827L367.524 190.634L367.64 190.365L367.524 190.057L367.293 189.672L367.139 189.171L367.331 189.017L367.64 189.248L367.794 189.44L368.102 189.594V189.864L368.025 189.903ZM366.561 190.712L366.33 190.827L366.137 190.673L366.06 189.672L366.137 189.094L366.33 188.824L366.638 189.479L366.908 189.864L367.1 190.288L367.023 190.634L366.792 190.712H366.523H366.561ZM352.425 187.283L352.695 187.206V187.322L352.541 187.515L352.425 187.63L352.348 187.784L351.963 188.208L351.886 188.4L351.732 188.67L351.616 188.824L351.501 188.94L351.269 188.824L351.115 188.4V188.015L351.269 187.669L351.424 187.36L351.578 187.091L351.77 186.937H351.963L352.078 186.975L352.155 187.168H352.348L352.425 187.283ZM369.797 185.974L369.874 186.243V186.552L369.758 186.821H369.45L369.18 186.59L368.949 186.282H368.68L368.564 186.398H368.487L368.294 186.436L368.14 186.32V186.089L367.871 185.704L367.409 185.203L367.293 184.972L367.524 185.049H367.717L367.909 184.972H368.179H368.487L368.718 185.088L368.872 185.242L369.065 185.358H369.334L369.566 185.435L369.72 185.589L369.797 185.743V185.897V186.089V185.974ZM369.681 184.24L369.604 184.318L369.527 184.51V184.895L369.45 185.049L369.18 185.126L368.911 184.972L368.603 184.703L368.217 184.549L367.909 184.395L368.14 184.202L368.718 184.086L369.065 183.932L369.257 183.778L369.488 183.894L369.643 184.125L369.72 184.24H369.681ZM367.563 183.355L367.37 183.085L367.216 182.777L367.293 182.546L367.64 182.353H367.909L368.14 182.469H368.371L368.449 182.276V181.929L368.641 181.698H368.949H369.103L369.219 181.775L369.334 181.929V182.122L369.026 182.315L369.142 182.777L369.065 183.046L368.911 183.162H368.68L368.526 183.316V183.624L368.449 183.894L368.179 184.048H367.948L367.909 183.855V183.74L367.563 183.316V183.355ZM415.094 182.7L415.209 182.777L415.325 182.969L415.055 183.046L413.977 182.777L413.399 182.969H413.052L412.706 182.7L412.513 182.276L412.667 181.814L412.975 181.39L413.168 181.005L413.399 180.735L413.784 180.62L413.9 180.928L413.746 181.39L413.669 181.698V181.968L413.823 182.045L413.977 181.737L414.246 181.275H414.477L414.555 181.429L414.67 181.544L414.786 181.621V181.968L414.978 182.469L415.132 182.661L415.094 182.7ZM371.53 180.62L371.337 180.697H371.029L370.914 180.427V180.158L371.145 180.042H371.684V180.235L371.607 180.543L371.53 180.62ZM369.912 176.768L369.989 176.884V177.038V177.307L369.874 177.384L369.758 177.461H369.643L369.411 177.192L369.296 177.115L369.18 177.192H369.065V177.038H368.988L368.872 176.999V176.922L369.026 176.807H368.949H368.834H368.718L368.757 176.652L368.949 176.537H369.103L369.296 176.614H369.604H369.797L369.912 176.768ZM433.467 177.538L433.351 178.155L433.197 178.386H433.082L433.005 178.309L432.889 177.808L432.697 177.615L432.62 177.461V177.269L432.581 177.038L432.465 176.807L432.542 176.614L432.812 176.46H433.082L433.313 176.498L433.467 176.884V177.615V177.538ZM371.8 161.515L371.684 161.399L371.607 161.207V161.014L371.915 160.899L371.8 160.783L371.877 160.706L371.992 160.629L372.069 160.513H372.223L372.3 160.436V160.282H372.377H372.647L372.84 160.167L372.917 160.051L373.032 160.128V160.321L372.994 160.552L372.57 160.937L372.262 161.284L372.069 161.438L371.992 161.515H371.838H371.8ZM368.025 112.443L367.871 112.52H367.755V112.366L367.832 111.865L367.948 111.441L368.14 111.21L368.333 111.326L368.487 111.596L368.641 111.75L369.219 112.058L369.411 112.25L369.296 112.443L368.988 112.751L368.757 112.828H368.487L368.256 112.751L368.102 112.481L368.025 112.327H367.948L368.025 112.443ZM377.192 110.941L377.423 111.095L377.5 111.441L377.385 111.557L377.115 111.634L377 111.827V112.019L376.768 112.25L376.499 112.327L376.306 112.173H376.114L375.96 112.096V111.711V111.326L376.152 111.056L376.576 110.825H377.115L377.192 110.941ZM380.274 111.711L380.351 111.865L380.428 112.135L380.312 112.404L379.079 113.367L378.54 113.444V113.29L378.81 112.944V112.751L378.733 112.558L379.041 112.212V111.865L378.925 111.441L378.733 111.133L378.579 110.941V110.864L379.041 111.056L379.388 110.748H379.465L379.388 111.018L379.503 111.249L379.773 111.403L380.235 111.596L380.351 111.711H380.274ZM358.203 98.9616H358.472L358.626 99.1542L358.549 99.4623L358.318 99.6934L358.164 99.7705L358.087 99.6165L357.972 99.2313V98.9616H358.203ZM335.015 93.9157L335.207 94.0313V94.2239L335.13 94.4936L335.053 94.8017L334.938 95.0713L334.745 95.1868H334.553L334.399 95.2253L334.283 95.341H334.206V95.3024L334.129 95.1098L333.936 94.8787L334.013 94.6476L334.399 94.3394L334.668 94.0699L334.784 93.9928H334.976L335.015 93.9157ZM344.837 205.888L344.721 205.811L344.259 205.387L343.99 205.233L343.913 205.002L344.028 204.694L344.221 204.539L344.49 204.617L344.683 204.886L345.03 205.579V205.811L344.991 205.926H344.875L344.837 205.888ZM379.927 202.421L380.119 202.498L380.312 202.729L380.235 202.845L380.119 202.768H380.042L380.004 202.883H379.927L379.696 202.729H379.465L379.349 202.845L379.272 202.999L379.002 203.191L378.771 203.422L378.425 203.654H377.962L377.693 203.307V202.883L377.885 202.46L378.309 202.151H378.656L379.118 202.46H379.272L379.465 202.421H379.734L379.888 202.46L379.927 202.421ZM381.66 202.883H381.737L381.814 203.076L381.737 203.153H381.622V203.345V203.654L381.506 203.885L381.275 203.962L381.159 203.885V203.769L381.005 203.692H380.89L380.851 203.268L381.005 202.614V202.228L380.89 202.074V201.959L381.044 201.766V201.651H381.275L381.66 201.843V202.113L381.506 202.305V202.537L381.699 202.883H381.66ZM387.322 201.612L387.553 201.805L387.708 201.959L387.63 202.305L387.553 202.46L387.399 202.729L387.13 202.883H386.783L386.513 202.768L386.282 202.575H386.128L386.051 202.729H385.974L385.859 202.228L386.013 201.92V201.651L386.128 201.42L386.282 201.265L386.629 201.111L387.053 201.227L387.284 201.574L387.322 201.612ZM380.235 201.034L380.351 201.188V201.458L380.196 201.612L380.119 201.959H379.773L379.58 202.036L379.696 202.228L379.58 202.344L379.234 202.228L379.041 202.036V201.92H378.887H378.771V201.805L378.887 201.458L378.964 201.342V201.265V201.188V201.111L379.079 201.073V200.996L379.118 200.919L379.002 200.726L379.079 200.649L379.272 200.726L379.465 200.842L379.965 200.919L380.235 201.034L380.351 201.111L380.235 201.034ZM367.755 198.454V198.762V198.954L367.64 199.108H367.409L367.293 199.263H367.177L367.062 199.07H366.985L366.946 199.224H366.792L366.292 199.031L366.137 198.8V198.646L366.214 198.492V198.338L366.407 198.223L367.216 198.377H367.563H367.717L367.755 198.454ZM386.013 198.454L385.897 198.569H385.666L385.551 198.454V198.223L385.358 198.03L385.165 197.953H384.934L384.665 198.107H384.433L384.356 198.068L384.279 197.991L383.74 197.76V197.645H383.933L384.164 197.568L384.279 197.491H384.356H384.549L384.78 197.606L385.05 197.491L385.358 197.221L385.589 197.144L385.743 197.26H385.897L386.013 197.298H386.128H386.398L386.745 197.375L386.937 197.491V197.683L386.745 197.837V197.953L386.667 198.145L386.513 198.3H386.321H386.09L385.974 198.415L386.013 198.454ZM391.675 197.414L391.752 197.491V197.645H391.636L391.444 197.529H391.213H391.059L391.136 197.606L391.29 197.683L391.136 197.837L390.712 198.184L390.481 198.3V198.03L390.558 197.837L390.712 197.722L390.635 197.606L390.096 197.491L390.173 197.375V197.221L389.942 197.106H389.556L389.402 197.028H389.325L389.364 196.913H389.556L389.71 196.797L389.942 196.528L390.173 196.335V196.258H390.211L390.365 196.412L390.519 196.643L390.596 196.913L390.789 196.99L391.097 196.874H391.328L391.444 196.951L391.521 197.067L391.675 197.26V197.414ZM383.856 198.454V198.646L384.048 198.954L383.971 199.031H383.856L383.74 198.993L383.509 198.916L383.316 198.8H383.201V198.993L383.085 199.07L382.893 198.993L382.546 198.916L382.084 198.762V198.569L382.315 198.415L382.238 198.184H382.045H381.814L381.506 198.107L381.236 197.914L381.082 197.722L381.005 197.414V197.067V196.72L381.082 196.374L381.275 196.104L381.545 195.988H381.699L382.122 195.911L382.392 195.988L382.662 196.181L382.931 196.528L383.162 197.067L383.239 197.529L383.316 197.722L383.432 197.914L383.509 198.145L383.933 198.569L383.856 198.454ZM383.856 196.335H383.74L383.625 196.22L383.702 196.066L383.817 195.911L383.971 195.565L384.318 195.103L384.78 194.833L385.281 194.717H385.589L385.705 194.949V195.141L385.589 195.257V195.334L385.82 195.488L386.013 195.68L386.167 195.911V196.104H386.013L385.512 195.95H385.319L385.204 196.181L384.588 196.489L384.356 196.797L384.279 197.106L384.164 197.183L384.01 196.99V196.682L383.971 196.412L383.856 196.335ZM420.409 188.901L420.486 188.978V189.132L420.217 189.402L420.101 189.479H419.947H419.716H419.523L419.254 189.633L419.138 189.749H418.984V189.672L419.061 189.479V189.325L418.946 189.209H418.869L418.753 189.094V188.94L418.83 188.824V188.67L418.946 188.593H419.1L419.87 188.94V189.132H419.986L420.448 188.901H420.409ZM422.566 183.663L422.797 183.586L423.183 183.509H423.606L423.837 183.701L423.914 184.086L423.799 184.318L423.876 184.472L423.76 184.664L423.529 184.549H423.452V184.664H423.645L423.837 184.857L423.76 185.049L423.529 185.358H423.144L422.99 185.126L422.913 184.895H422.72L422.759 184.703L422.682 184.51H422.374L422.258 184.395L422.489 184.202V183.971L422.297 183.778L421.873 183.624L421.603 183.701H421.449L421.411 183.509L421.603 183.316L421.873 183.239L422.258 183.393L422.528 183.624L422.682 183.701L422.566 183.663ZM419.1 183.201L419.446 183.586L419.562 183.817L419.485 183.971H419.215L419.1 184.048V184.24L419.061 184.318L418.83 184.24L418.676 184.163L418.406 183.971L418.252 183.74V183.586L418.445 183.316L418.753 183.085L419.061 183.162L419.1 183.201ZM373.803 182.392L374.265 182.546V183.162L373.841 183.586L373.571 183.47L373.725 183.316L373.803 183.162L373.725 183.046L373.071 182.661H372.955L372.262 182.738L371.954 182.892H371.607L371.337 182.854L371.183 182.661L371.299 182.507H371.684L372.185 182.315L372.262 182.199L372.339 182.122V182.006L372.647 181.929L372.763 181.737V181.506L372.57 181.236L372.493 180.966L372.763 180.812L373.186 180.928L373.61 181.159L373.918 181.467V181.621H373.687L373.34 181.852V181.968V182.122V182.276L373.533 182.315H373.88L373.803 182.392ZM371.26 177.076V176.922L371.145 176.884L370.528 176.768L370.374 176.652H370.182L370.066 176.614L369.951 176.537L369.797 176.46L369.681 176.306L369.411 175.69L369.566 175.458L369.874 175.343L370.143 175.458L370.374 175.612L370.567 175.535L370.798 175.42L370.952 175.497V175.612H371.106H371.26L371.337 175.767L371.183 175.921H370.952L370.875 176.036V176.19L371.145 176.46L371.376 176.575H371.607L371.761 176.807L371.838 177.076L371.954 177.23V177.461L371.915 177.731L371.838 177.808L371.761 177.731L371.491 177.654L371.376 177.5L371.299 177.346V177.076H371.26ZM505.496 112.173V112.25V112.173Z" fill="white"/>
</g>
<path d="M347.508 254.85L340.462 255.756L340.261 278H354.151L347.508 254.85Z" fill="#FF78B9"/>
<path d="M344.185 256.864C336.938 257.87 332.912 256.662 329.792 254.045C329.49 253.743 329.389 253.341 329.691 252.938C329.792 252.737 329.993 252.636 330.194 252.636L356.666 249.113C357.069 249.013 357.472 249.315 357.472 249.717C357.472 249.918 357.472 250.12 357.371 250.22C355.056 253.643 351.432 255.857 344.185 256.864Z" fill="white"/>
<path d="M341.67 238.041C343.582 237.739 345.394 239.148 345.696 241.06L346.401 246.596L339.355 247.502L338.65 241.966C338.348 240.054 339.757 238.343 341.67 238.041Z" fill="#83DDC5"/>
<path d="M342.071 241.362C342.876 241.261 343.581 241.865 343.682 242.57L343.883 243.778C343.984 244.583 343.48 245.288 342.675 245.388C341.87 245.489 341.165 244.885 341.065 244.18L340.863 242.973C340.763 242.167 341.367 241.463 342.071 241.362Z" fill="#4F5D7F"/>
<path d="M342.575 244.785C332.51 246.194 327.477 249.213 324.256 253.843C323.854 254.246 323.954 254.85 324.357 255.253C324.659 255.454 324.961 255.555 325.263 255.454L362.203 250.421C362.807 250.421 363.209 249.918 363.209 249.415C363.209 249.113 363.008 248.71 362.706 248.609C358.277 244.986 352.641 243.375 342.575 244.785Z" fill="#EBEFF7"/>
<path d="M328.684 253.641C329.073 253.641 329.388 253.326 329.388 252.937C329.388 252.547 329.073 252.232 328.684 252.232C328.295 252.232 327.979 252.547 327.979 252.937C327.979 253.326 328.295 253.641 328.684 253.641Z" fill="#FFD836"/>
<path d="M333.013 253.038C333.402 253.038 333.718 252.723 333.718 252.333C333.718 251.944 333.402 251.629 333.013 251.629C332.624 251.629 332.308 251.944 332.308 252.333C332.308 252.723 332.624 253.038 333.013 253.038Z" fill="#AEC7FF"/>
<path d="M356.667 249.817C357.056 249.817 357.372 249.502 357.372 249.113C357.372 248.724 357.056 248.408 356.667 248.408C356.278 248.408 355.962 248.724 355.962 249.113C355.962 249.502 356.278 249.817 356.667 249.817Z" fill="#F47FFF"/>
<path opacity="0.45" d="M343.382 263.506C343.784 262.801 344.69 262.6 345.395 263.103L345.798 263.405C346.502 263.808 346.703 264.714 346.2 265.418C345.798 266.123 344.892 266.324 344.187 265.821L343.784 265.519C343.08 265.016 342.879 264.11 343.382 263.506Z" fill="#4762B0"/>
<path fill-rule="evenodd" clip-rule="evenodd" d="M555.736 64.5315L616.984 42.1558L606.709 62.2483C604.712 66.1868 601.287 69.2121 597.177 70.6962L548.43 88.5626L546.717 83.939L555.736 64.5315Z" fill="#DAE2ED"/>
<path fill-rule="evenodd" clip-rule="evenodd" d="M541.694 62.4766L623.092 32.7374C623.434 32.6233 623.777 32.7945 623.891 33.0799C623.948 33.2511 623.948 33.4224 623.891 33.5366L620.752 39.8725C620.409 40.6146 619.781 41.1283 619.039 41.4137L617.041 42.1558L555.736 64.5315L546.718 83.939L548.373 88.5626L549.629 92.0445L529.137 99.5221L526.168 91.4166L538.155 65.6731C538.898 64.189 540.153 63.0474 541.694 62.4766Z" fill="#ECEFF6"/>
<path fill-rule="evenodd" clip-rule="evenodd" d="M546.774 83.939L555.793 64.5315L617.041 42.1558L614.986 46.2085L557.962 67.0431L549.628 85.0235L550.656 87.7634L548.487 88.5055L546.774 83.939Z" fill="#C5CEDD"/>
<path fill-rule="evenodd" clip-rule="evenodd" d="M523.885 82.2832C514.638 101.862 522.971 125.208 542.55 134.512C562.129 143.816 585.475 135.426 594.779 115.847C604.084 96.268 595.693 72.9219 576.114 63.6177C556.478 54.4848 533.189 62.8186 523.885 82.2832Z" fill="#4F5D7F"/>
<path fill-rule="evenodd" clip-rule="evenodd" d="M536.272 88.2199C530.278 100.949 535.701 116.133 548.43 122.126C561.159 128.12 576.343 122.697 582.336 109.968C588.33 97.2387 582.907 82.0552 570.178 76.0617C557.506 70.1253 542.38 75.548 536.272 88.2199Z" fill="#7687B2"/>
<path fill-rule="evenodd" clip-rule="evenodd" d="M533.132 68.0703C533.075 74.0638 548.829 88.7336 559.161 96.8391C568.693 96.8962 592.325 95.9258 597.861 90.5032C598.375 90.0465 598.718 89.4186 598.775 88.7336C598.775 88.5053 598.718 88.277 598.661 88.0487C595.35 76.2329 587.587 66.9287 576.856 61.8485C563.327 55.3984 547.231 57.225 533.76 66.7004C533.36 66.9858 533.132 67.4995 533.132 68.0703Z" fill="#FF7F14"/>
<path fill-rule="evenodd" clip-rule="evenodd" d="M558.476 98.8371C558.476 98.8371 596.149 76.2331 592.325 71.5525C588.386 66.7006 583.363 62.762 577.712 60.0792C562.471 52.8299 545.633 55.9694 532.675 65.1023C523.542 71.5525 558.476 98.8371 558.476 98.8371Z" fill="#FF903E"/>
<path fill-rule="evenodd" clip-rule="evenodd" d="M539.811 89.8753C534.731 100.664 539.297 113.507 550.086 118.587C560.874 123.667 573.717 119.101 578.797 108.312C583.878 97.5241 579.311 84.6809 568.523 79.6007C557.735 74.5776 544.948 79.1441 539.811 89.8753Z" fill="#EBEFF7"/>
<path fill-rule="evenodd" clip-rule="evenodd" d="M542.95 91.3597C538.669 100.436 542.551 111.224 551.569 115.505C560.588 119.786 571.434 115.905 575.715 106.886C579.996 97.867 576.114 87.0216 567.095 82.7405C558.019 78.4594 547.231 82.341 542.95 91.3597Z" fill="#DAE2ED"/>
<path fill-rule="evenodd" clip-rule="evenodd" d="M570.121 91.417L560.303 85.5376C559.675 85.1951 558.933 85.1951 558.362 85.5376L548.373 91.1316C547.745 91.474 547.345 92.159 547.345 92.844L547.231 104.317C547.231 105.002 547.574 105.687 548.202 106.03L558.02 111.909C558.648 112.252 559.39 112.252 559.96 111.909L569.95 106.258C570.577 105.916 570.977 105.231 570.977 104.546L571.091 93.0723C571.091 92.4444 570.692 91.7595 570.121 91.417Z" fill="#C5CEDD"/>
<path fill-rule="evenodd" clip-rule="evenodd" d="M553.624 96.4398C552.14 99.5793 553.51 103.29 556.649 104.774C559.789 106.258 563.499 104.888 564.983 101.748C566.467 98.6089 565.097 94.8987 562.015 93.4146C558.875 91.9875 555.108 93.3004 553.624 96.4398Z" fill="#B7C2CE"/>
<path fill-rule="evenodd" clip-rule="evenodd" d="M510.413 136.169H513.838C514.694 136.169 515.437 136.854 515.437 137.767V144.902C515.379 146.843 516.864 148.498 518.861 148.612C520.859 148.727 522.457 147.185 522.572 145.188C522.572 145.073 522.572 145.016 522.572 144.902V114.878C522.572 112.709 520.859 110.882 518.633 110.882C518.633 110.882 518.633 110.882 518.576 110.882H506.475C504.306 110.882 502.536 112.651 502.536 114.821C502.536 114.821 502.536 114.821 502.536 114.878V128.235C502.479 132.63 506.018 136.169 510.413 136.169ZM502.194 98.21H509.043C509.043 100.722 509.043 103.233 509.043 105.745H502.308C502.365 103.29 502.365 100.722 502.194 98.21Z" fill="#7196FF"/>
<path fill-rule="evenodd" clip-rule="evenodd" d="M504.649 114.648H533.532C533.874 114.648 534.16 114.363 534.16 114.02C534.16 113.678 533.874 113.393 533.532 113.393H504.649C504.306 113.393 504.021 113.107 504.021 112.765V108.141C504.021 107.799 503.736 107.513 503.393 107.513C503.051 107.513 502.765 107.799 502.765 108.141V112.765C502.822 113.792 503.621 114.648 504.649 114.648Z" fill="#E4E9F7"/>
<path fill-rule="evenodd" clip-rule="evenodd" d="M501.281 110.939H505.562C505.905 110.939 506.19 110.653 506.19 110.311V97.0678C506.19 96.7253 505.905 96.4399 505.562 96.4399H501.281C500.939 96.4399 500.654 96.7253 500.654 97.0678V110.311C500.654 110.653 500.882 110.939 501.281 110.939C501.224 110.939 501.224 110.939 501.281 110.939Z" fill="black"/>
<path fill-rule="evenodd" clip-rule="evenodd" d="M502.251 98.21H499.74C499.397 98.21 499.112 98.4954 499.112 98.8379C499.112 100.95 499.112 103.062 499.112 105.174C499.112 105.516 499.397 105.802 499.74 105.802H502.08C503.964 105.802 505.562 104.489 505.904 102.662C506.247 100.607 504.877 98.6666 502.822 98.267C502.651 98.267 502.423 98.21 502.251 98.21Z" fill="#7196FF"/>
<path fill-rule="evenodd" clip-rule="evenodd" d="M515.38 110.939H519.661C520.003 110.939 520.289 110.653 520.289 110.311V97.0678C520.289 96.7253 520.003 96.4399 519.661 96.4399H515.38C515.037 96.4399 514.752 96.7253 514.752 97.0678V110.311C514.752 110.653 515.037 110.939 515.38 110.939Z" fill="black"/>
<path fill-rule="evenodd" clip-rule="evenodd" d="M505.848 101.12C509.101 96.6682 514.296 93.9854 519.833 93.9854H543.236C548.944 94.0424 553.567 98.666 553.567 104.431V123.61C553.567 127.435 550.485 130.574 546.661 130.574H512.926C507.161 130.517 502.537 125.894 502.537 120.128V111.395C502.48 107.685 503.679 104.089 505.848 101.12Z" fill="#AEC7FF"/>
<path fill-rule="evenodd" clip-rule="evenodd" d="M536.157 93.9854H543.178C548.943 94.0424 553.567 98.666 553.567 104.431V121.099C553.567 124.923 550.485 128.063 546.66 128.063H536.1C536.271 116.761 536.271 105.344 536.157 93.9854ZM558.419 118.816L565.725 120.985C568.522 121.784 570.12 124.638 569.321 127.435C568.522 130.232 565.668 131.83 562.871 131.031C561.102 130.517 559.732 129.204 559.275 127.435L557.106 120.128C556.935 119.615 557.22 118.987 557.734 118.816C557.962 118.758 558.191 118.758 558.419 118.816Z" fill="#7196FF"/>
<path fill-rule="evenodd" clip-rule="evenodd" d="M541.466 136.168H544.891C545.747 136.168 546.489 136.853 546.489 137.766V144.901C546.432 146.842 547.916 148.497 549.914 148.612C551.855 148.669 553.51 147.185 553.624 145.187C553.624 145.073 553.624 145.015 553.624 144.901V109.283C553.624 107.114 551.855 105.287 549.686 105.287H537.585C535.416 105.287 533.646 107.114 533.646 109.283V128.234C533.532 132.629 537.071 136.168 541.466 136.168Z" fill="#7196FF"/>
<path fill-rule="evenodd" clip-rule="evenodd" d="M518.804 114.649H547.687C548.03 114.649 548.315 114.363 548.315 114.021C548.315 113.678 548.03 113.393 547.687 113.393H518.804C518.462 113.393 518.176 113.108 518.176 112.765V108.141C518.233 107.799 517.948 107.514 517.606 107.457C517.263 107.399 516.978 107.685 516.921 108.027C516.921 108.084 516.921 108.084 516.921 108.141V112.765C516.921 113.793 517.777 114.592 518.804 114.649Z" fill="#E4E9F7"/>
<path fill-rule="evenodd" clip-rule="evenodd" d="M515.38 110.939H519.661C520.003 110.939 520.289 110.653 520.289 110.311V97.0678C520.289 96.7253 520.003 96.4399 519.661 96.4399H515.38C515.037 96.4399 514.752 96.7253 514.752 97.0678V110.311C514.752 110.653 515.037 110.939 515.38 110.939Z" fill="black"/>
<path fill-rule="evenodd" clip-rule="evenodd" d="M515.209 98.2093H529.308C531.649 98.2093 533.532 96.3257 533.532 93.9854H542.38V112.365H533.589C532.79 107.742 528.737 105.744 523.886 105.744H515.323C513.44 105.744 511.841 104.431 511.499 102.605C511.156 100.55 512.526 98.6089 514.581 98.2093C514.753 98.2664 514.981 98.2093 515.209 98.2093Z" fill="#7196FF"/>
<path fill-rule="evenodd" clip-rule="evenodd" d="M547.631 94.2142H515.438C509.673 94.2142 504.992 89.5335 504.992 83.7684V64.3609C505.049 58.5957 509.673 53.915 515.438 53.915H547.631C553.397 53.915 558.02 58.5957 558.077 64.3609V83.7684C558.02 89.5335 553.397 94.2142 547.631 94.2142Z" fill="#80A7FF"/>
<path fill-rule="evenodd" clip-rule="evenodd" d="M540.838 94.2132H508.645C502.88 94.2132 498.199 89.5325 498.199 83.7103V64.3027C498.256 58.5376 502.88 53.914 508.645 53.8569H540.838C546.604 53.8569 551.284 58.5376 551.284 64.3027V83.7103C551.284 89.5325 546.604 94.2132 540.838 94.2132Z" fill="#9CB8FF"/>
<path fill-rule="evenodd" clip-rule="evenodd" d="M554.937 81.3699H547.231V62.5332H554.937C558.762 62.5332 561.901 65.6727 561.901 69.4971V74.406C561.901 78.2305 558.762 81.3699 554.937 81.3699Z" fill="#9CB8FF"/>
<path fill-rule="evenodd" clip-rule="evenodd" d="M547.231 77.1464V66.7006C547.231 66.301 547.517 66.0156 547.916 66.0156H554.88C556.821 66.0156 558.362 67.5568 558.362 69.4976V74.4065C558.362 76.3473 556.821 77.8885 554.88 77.8885H547.916C547.574 77.8885 547.231 77.546 547.231 77.1464C547.231 77.2035 547.231 77.1464 547.231 77.1464Z" fill="#80A7FF"/>
<path fill-rule="evenodd" clip-rule="evenodd" d="M535.13 75.2623C533.247 75.2623 531.705 73.7211 531.705 71.8375C531.705 69.9538 533.247 68.4126 535.13 68.4126C537.014 68.4126 538.555 69.9538 538.555 71.8375C538.555 73.7211 537.014 75.2623 535.13 75.2623Z" fill="black"/>
<path fill-rule="evenodd" clip-rule="evenodd" d="M497.913 64.3599H521.602C523.885 64.3599 525.769 66.2435 525.769 68.5268V73.4357C525.769 79.2009 521.088 83.8815 515.323 83.9386H504.192C498.427 83.9386 493.746 79.258 493.746 73.4928V68.5839C493.746 66.2435 495.63 64.3599 497.913 64.3599Z" fill="#CBDAF7"/>
<path fill-rule="evenodd" clip-rule="evenodd" d="M510.471 83.9392H504.192C498.427 83.9392 493.746 79.2585 493.746 73.4934V68.5844C493.746 66.3012 495.63 64.4175 497.913 64.4175H516.693C518.976 64.4175 520.86 66.3012 520.86 68.5844V73.4934C520.86 79.2014 516.236 83.8821 510.471 83.9392Z" fill="#CBDAF7"/>
<path fill-rule="evenodd" clip-rule="evenodd" d="M507.673 76.0049H512.183C513.153 76.062 513.895 76.8611 513.838 77.8315C513.781 78.7448 513.096 79.4297 512.183 79.4868H507.673C506.703 79.4297 505.961 78.6306 506.018 77.6602C506.075 76.7469 506.76 76.062 507.673 76.0049ZM499.454 76.0049H501.166C502.137 76.062 502.879 76.8611 502.822 77.8315C502.765 78.7448 502.08 79.4297 501.166 79.4868H499.454C498.483 79.4297 497.741 78.6306 497.798 77.6602C497.856 76.7469 498.598 76.062 499.454 76.0049Z" fill="#9CB8FF"/>
<path fill-rule="evenodd" clip-rule="evenodd" d="M509.559 88.0494H506.762C506.134 88.0494 505.62 87.5356 505.62 86.9077C505.62 86.2798 506.134 85.7661 506.762 85.7661H509.559C510.186 85.7661 510.7 86.2798 510.7 86.9077C510.7 87.5356 510.186 88.0494 509.559 88.0494Z" fill="#80A7FF"/>
<path opacity="0.4" fill-rule="evenodd" clip-rule="evenodd" d="M496.087 58.138C496.087 58.138 486.04 73.1503 496.829 90.4458L502.936 93.9848L542.322 92.2724L551.912 79.4863L542.322 53.8569H508.645L496.087 58.138Z" fill="#4871E5"/>
<path fill-rule="evenodd" clip-rule="evenodd" d="M527.481 43.9829C550.427 43.9829 563.099 59.5089 563.099 72.3521C563.099 85.1953 548.087 86.337 544.548 77.2611L537.128 57.5682L504.363 61.8492L496.143 58.139C499.169 53.1159 510.471 43.9829 527.481 43.9829Z" fill="#EBEFF7"/>
<path fill-rule="evenodd" clip-rule="evenodd" d="M547.003 79.4873L526.225 90.4468H496.828L499.682 95.2416H547.573L551.74 85.7662L547.003 79.4873Z" fill="#EBEFF7"/>
<path fill-rule="evenodd" clip-rule="evenodd" d="M551.797 64.4173L557.962 66.3581L560.645 55.4556C560.988 54.0857 560.131 52.7157 558.761 52.4303C557.563 52.1449 556.307 52.7728 555.85 53.9144L551.797 64.4173Z" fill="#DAE2ED"/>
<path fill-rule="evenodd" clip-rule="evenodd" d="M559.675 59.337L557.962 66.415L551.797 64.4743L554.423 57.6816C556.136 58.2524 557.905 58.8233 559.675 59.337Z" fill="#B7C2CE"/>
<path fill-rule="evenodd" clip-rule="evenodd" d="M548.144 116.133L572.118 121.67L574.173 112.537L550.199 107L548.144 116.133Z" fill="#B7C2CE"/>
<path fill-rule="evenodd" clip-rule="evenodd" d="M568.066 123.268L598.147 133.599C598.718 133.828 599.346 133.713 599.86 133.314C601.116 132.344 603.456 129.946 604.712 124.352C605.968 118.758 604.94 115.562 604.198 114.192C603.913 113.678 603.399 113.278 602.771 113.221L571.205 109.34C570.577 109.283 570.007 109.682 569.835 110.31L567.267 121.841C567.152 122.468 567.495 123.039 568.066 123.268Z" fill="#C5CEDD"/>
<path fill-rule="evenodd" clip-rule="evenodd" d="M576.4 114.648C576.228 115.447 576.742 116.247 577.484 116.418C578.283 116.589 579.082 116.075 579.254 115.333C579.425 114.534 578.911 113.735 578.169 113.564C577.37 113.335 576.571 113.849 576.4 114.648ZM583.363 115.619C583.192 116.418 583.706 117.217 584.448 117.388C585.247 117.559 586.046 117.046 586.217 116.304C586.389 115.505 585.875 114.705 585.133 114.534C584.334 114.306 583.535 114.82 583.363 115.619C583.306 115.619 583.306 115.619 583.363 115.619Z" fill="#B7C2CE"/>
<path fill-rule="evenodd" clip-rule="evenodd" d="M548.43 114.592L567.723 129.604L573.431 122.241L554.138 107.171L548.43 114.592Z" fill="#D0D9EA"/>
<path fill-rule="evenodd" clip-rule="evenodd" d="M563.443 129.319L586.446 151.409C586.903 151.809 587.474 152.037 588.102 151.866C589.643 151.523 592.782 150.324 596.264 145.815C599.746 141.306 600.146 137.938 600.089 136.397C600.089 135.769 599.746 135.255 599.233 134.913L572.233 118.074C571.72 117.731 570.977 117.845 570.635 118.359L563.443 127.72C562.929 128.177 562.986 128.919 563.443 129.319Z" fill="#EBEFF7"/>
<path fill-rule="evenodd" clip-rule="evenodd" d="M574.63 125.037C574.116 125.665 574.23 126.578 574.915 127.092C575.543 127.606 576.456 127.492 576.97 126.864C577.484 126.236 577.369 125.323 576.742 124.809C576 124.295 575.086 124.409 574.63 125.037ZM580.166 129.604C579.653 130.232 579.767 131.145 580.452 131.659C581.08 132.172 581.993 132.058 582.507 131.373C583.02 130.688 582.906 129.832 582.221 129.318C581.536 128.862 580.623 128.976 580.166 129.604Z" fill="#B7C2CE"/>
<path fill-rule="evenodd" clip-rule="evenodd" d="M542.55 76.1187C543.406 83.1968 548.943 88.3911 554.936 87.6491C560.93 86.907 565.04 80.5711 564.126 73.4359C563.213 66.3008 557.733 61.2206 551.797 61.9056C545.86 62.5906 541.694 69.0407 542.55 76.1187Z" fill="#DAE2ED"/>
<path fill-rule="evenodd" clip-rule="evenodd" d="M547.06 75.7193C547.688 80.7424 551.627 84.4526 555.851 83.9389C560.074 83.4252 563.043 78.9158 562.415 73.8356C561.787 68.7554 557.848 65.1022 553.624 65.673C549.4 66.2438 546.432 70.6961 547.06 75.7193Z" fill="#B7C2CE"/>
<path fill-rule="evenodd" clip-rule="evenodd" d="M549.514 75.4903C549.971 79.0864 552.768 81.7122 555.793 81.3697C558.818 81.0272 560.93 77.7736 560.474 74.1204C560.017 70.4672 557.22 67.8986 554.195 68.2411C551.17 68.5835 549.058 71.8372 549.514 75.4903Z" fill="#FF903E"/>
<path fill-rule="evenodd" clip-rule="evenodd" d="M556.193 78.1173L556.878 77.8319C557.049 77.7748 557.163 77.5465 557.106 77.3182L554.709 71.2676C554.652 71.0963 554.423 70.9822 554.195 71.0393L553.51 71.3247C553.339 71.3817 553.225 71.6101 553.282 71.8384L555.679 77.8319C555.793 78.0602 556.022 78.1744 556.193 78.1173Z" fill="#FF7F14"/>
<path fill-rule="evenodd" clip-rule="evenodd" d="M548.087 120.528H556.022V93.9854H545.005V117.446C545.005 119.158 546.375 120.528 548.087 120.528Z" fill="black"/>
<path fill-rule="evenodd" clip-rule="evenodd" d="M582.164 64.5315L643.412 42.1558L633.137 62.2483C631.14 66.1868 627.715 69.2121 623.605 70.6962L574.858 88.5055L573.145 83.8819L582.164 64.5315Z" fill="#DAE2ED"/>
<path fill-rule="evenodd" clip-rule="evenodd" d="M568.124 62.4766L649.464 32.7374C649.806 32.6233 650.149 32.7945 650.263 33.0799C650.32 33.2511 650.32 33.4224 650.263 33.5366L647.124 39.8725C646.781 40.6146 646.153 41.1283 645.411 41.4137L643.413 42.1558L582.166 64.5315L573.147 83.939L574.859 88.5626L576.115 92.0445L555.623 99.5221L552.655 91.4166L564.642 65.6731C565.327 64.189 566.582 63.0474 568.124 62.4766Z" fill="#ECEFF6"/>
<path fill-rule="evenodd" clip-rule="evenodd" d="M573.203 83.939L582.222 64.5315L643.47 42.1558L641.415 46.2085L584.391 67.0431L576.057 85.0235L577.085 87.7634L574.915 88.5626L573.203 83.939Z" fill="#C5CEDD"/>
<path fill-rule="evenodd" clip-rule="evenodd" d="M643.869 39.7013C644.497 39.473 644.839 38.788 644.611 38.1031C644.383 37.4752 643.698 37.1327 643.013 37.361C642.385 37.5893 642.042 38.2743 642.271 38.9593C642.499 39.6442 643.184 39.9297 643.869 39.7013ZM638.96 41.5279C639.588 41.2996 639.93 40.6146 639.702 39.9297C639.474 39.3018 638.789 38.9593 638.104 39.1876C637.419 39.4159 637.133 40.1009 637.362 40.7859C637.59 41.4138 638.275 41.7562 638.96 41.5279ZM569.036 67.0431C569.607 66.7006 569.835 65.9586 569.493 65.3878C569.207 64.9311 568.693 64.7028 568.18 64.7599C567.552 64.9882 567.209 65.7302 567.438 66.3581C567.723 66.986 568.408 67.2714 569.036 67.0431Z" fill="#DAE2ED"/>
<path fill-rule="evenodd" clip-rule="evenodd" d="M549.572 99.6931H562.301C563.385 99.6931 564.242 98.7798 564.242 97.7524V90.9027C564.242 89.8181 563.385 88.9619 562.301 88.9619H549.572C548.487 88.9619 547.631 89.8752 547.631 90.9027V97.7524C547.631 98.8369 548.487 99.6931 549.572 99.6931Z" fill="#FF5C5C"/>
<path fill-rule="evenodd" clip-rule="evenodd" d="M544.948 103.176H554.937C557.677 103.176 559.846 100.949 559.846 98.2666V90.4465C559.846 87.7066 557.62 85.5375 554.937 85.4805H544.948C543.921 85.4805 543.121 86.3367 543.121 87.3071V101.292C543.064 102.319 543.863 103.118 544.948 103.176C544.891 103.176 544.891 103.176 544.948 103.176Z" fill="#D0D9EA"/>
<path fill-rule="evenodd" clip-rule="evenodd" d="M516.522 42.0986L517.093 45.866C514.011 48.3775 511.271 51.2887 509.045 54.5423L505.62 46.7222C508.36 44.7244 512.127 43.5827 516.522 42.0986Z" fill="#FF7F14"/>
<path fill-rule="evenodd" clip-rule="evenodd" d="M509.044 54.5423L505.619 46.7222L502.708 54.5423H509.044Z" fill="#FF903E"/>
</g>
<defs>
<linearGradient id="paint0_linear_2005_16549" x1="3.24653e-06" y1="4.74401" x2="656.801" y2="153.156" gradientUnits="userSpaceOnUse">
<stop offset="0.171875" stop-color="#9B48EF"/>
<stop offset="1" stop-color="#E292AA"/>
</linearGradient>
<clipPath id="clip0_2005_16549">
<rect width="660" height="278" fill="white"/>
</clipPath>
</defs>
</svg>
