<svg height="80" viewBox="0 0 130 80" width="130" xmlns="http://www.w3.org/2000/svg"><g fill="none" fill-rule="evenodd"><path d="m47.8571429 21.989v3.465c.2542857-.0728571.5164285-.1271429.785-.1607143.4985714-4.2957143 3.7692857-7.7521428 7.9728571-8.5342857v-4.3292857c0-1.3857143 1.5135714-2.335 3.5292857-2.82500001v-2.77785715c-1.8764286 1.36785715-5.3228571 2.08928572-8.6335714 2.08928572-3.31 0-6.7571429-.72142857-8.6335714-2.08928572v9.64142856c0 .3942857-.3192858.7142857-.7135715.7142857v2.3392857c.1878572-.0092857.3764286-.0157142.5642857-.0157142 2.5492858 0 5.1292858.8528571 5.1292858 2.4828571" fill="#dcddde"/><path d="m51.5108571 1.4285c-4.9414285 0-8.6335714 1.59928571-8.6335714 3.02928571 0 1.43071429 3.6921429 3.03 8.6335714 3.03 4.9414286 0 8.6335715-1.59928571 8.6335715-3.03 0-1.43-3.6921429-3.02928571-8.6335715-3.02928571m6.5325715 11.0013571c0 .7107143 2.205 1.7857143 5.5278571 1.7857143 3.3235714 0 5.5278572-1.075 5.5278572-1.7857143 0-.7107142-2.2042858-1.7857142-5.5278572-1.7857142-3.3228571 0-5.5278571 1.075-5.5278571 1.7857142" fill="#fff"/><path d="m58.4186429 16.5855h10.68v-2.1328571c-1.3378572.7857142-3.4378572 1.1914285-5.5271429 1.1914285-2.09 0-4.1892857-.4057143-5.5278571-1.1914285v2.1521428c.125-.005.2485714-.0192857.375-.0192857m-14.391 21.108v-7.1657143c0-1.85.9578571-3.4771428 2.4007142-4.4207143v-2.3521428c-.9807142.4721428-2.3428571.7164285-3.7.7164285-1.3578571 0-2.72-.2442857-3.7014285-.7164285v13.9385714z" fill="#dcddde"/><path d="m39.0269286 21.989c0 .2707143 1.2721428 1.0542857 3.7014285 1.0542857 2.4278572 0 3.7-.7835714 3.7-1.0542857s-1.2721428-1.0542857-3.7-1.0542857c-2.4292857 0-3.7014285.7835714-3.7014285 1.0542857" fill="#fff"/><path d="m59.9644286 18.0140714h-1.5457143c-4.2385714 0-7.7457143 3.1514286-8.3257143 7.2321429h4.3528571c.4292858-3.2592857 2.5857143-5.9928572 5.5185715-7.2321429" fill="#dcddde"/><path d="m80.5364286 32.4222143c0-1.2064286.6-2.2728572 1.5078571-2.9392857h-2.1171428c-1.62 0-2.9392858 1.3185714-2.9392858 2.9392857v3.9585714c0 .4471429.0457143.8835714.1128572 1.3128572h3.5421428c-.0621428-.43-.1064285-.8664286-.1064285-1.3128572z" fill="#f6f6f7"/><path d="m66.9872857 33.8186429c0-1.1957143.9785714-2.1742858 2.175-2.1742858h.2171429c1.1957143 0 2.175.9785715 2.175 2.1742858v.2178571c0 1.1957143-.9792857 2.175-2.175 2.175h-.2171429c-1.1964286 0-2.175-.9792857-2.175-2.175zm-21.5314286-3.2907143v7.1657143h3.3835715c-.0185715-.1207143-.0371429-.2407143-.0371429-.3657143v-6.2928572c0-1.4014285 1.1357143-2.5371428 2.5371429-2.5371428h3.3485714c.5607143 0 1.015.4542857 1.015 1.015v8.1807143h3.5828571 16.3721429c-.0578571-.4307143-.0985714-.8671429-.0985714-1.3135715v-3.9578571c0-2.4085714 1.9592857-4.3678572 4.3678571-4.3678572h5.4807143c.395 0 .7142857.3192858.7142857.7142858h4.435c0-.395.3192857-.7142858.7142857-.7142858h8.3957143v-1.62c0-4.6428571-3.7771428-8.42-8.42-8.42h-31.2828571c-2.9328572 1.2385715-5.0892857 3.9728572-5.5185715 7.2321429h2.2721429c.395 0 .7142857.3192857.7142857.7142857 0 .3942857-.3192857.7142857-.7142857.7142857h-7.4085714c-2.125 0-3.8535715 1.7278572-3.8535715 3.8528572z" fill="#f6f6f7"/><path d="m54.6882143 28.4977857h-3.3485714c-1.4014286 0-2.5371429 1.1357143-2.5371429 2.5371429v6.2928571c0 .125.0185714.2457143.0371429.3657143h6.8635714v-8.1807143c0-.5607143-.4542857-1.015-1.015-1.015" fill="#dcddde"/><path d="m86.1223571 28.7684286c0 .3942857-.3192857.7142857-.7142857.7142857h-3.3635714c-.9078571.6664286-1.5078571 1.7328571-1.5078571 2.9392857v3.9585714c0 .4464286.0435714.8828572.1064285 1.3128572h6.9842857 2.9435715 11.8750004 1.012857c.067143-.4285715.112857-.865.112857-1.3128572v-3.9585714c0-1.6207143-1.319286-2.9392857-2.94-2.9392857h-9.3600001c-.395 0-.7142858-.32-.7142858-.7142857z" fill="#fff"/><path d="m33.571 60.033v-19.901l-19.9 19.901z" fill="#fff"/><path d="m60 73.4562857v4.9514286h37.1428571c3.0799999 0 5.6578569-2.1778572 6.2821429-5.0728572-.336429.0435715-.674286.0728572-1.017857.0728572h-26.9578573c-2.2914286 0-4.4635714-.9964286-5.9578571-2.7342857-1.4942857-1.7378572-2.1542857-4.0335715-1.8107143-6.3l1.9592857-12.9292857c.2664286-1.7592858 1.7514286-3.0364286 3.5307143-3.0364286h30.4007147v-3.9021429c-1.36-.4642857-2.347858-1.74-2.347858-3.2557143v-2.1278571h-8.2599996c.2171429.3921429.3514286.8364286.3514286 1.3157143v.8121428c0 1.905-1.5492857 3.4542858-3.4542857 3.4542858s-3.455-1.5492858-3.455-3.4542858v-2.1278571h-26.4057143v30.8714286c0 .3942857-.32.7142857-.7142857.7142857v2.0342857c.3942857 0 .7142857.32.7142857.7142857" fill="#dcddde"/><path d="m39.6428571 43.5895c0-.3942857.3192858-.7142857.7142858-.7142857h14.2857142c.3942858 0 .7142858.32.7142858.7142857v14.6635714c0 4.3321429-3.525 7.8571429-7.8571429 7.8571429s-7.8571429-3.525-7.8571429-7.8571429zm1.7857143 34.8185714h17.1428572v-4.9521428c0-.3942857.3192857-.7142857.7142857-.7142857v-2.0342858c-.395 0-.7142857-.3192857-.7142857-.7142857v-30.8707143h-.9078572-22.6635714v32.8571429c0 3.5442857 2.8835714 6.4285714 6.4285714 6.4285714z" fill="#fff"/><g fill="#dcddde"><path d="m41.0714286 49.8363571v8.4164286c0 3.545 2.8835714 6.4285714 6.4285714 6.4285714 3.5442857 0 6.4285714-2.8835714 6.4285714-6.4285714v-8.4164286z"/><path d="m41.071 48.408h12.858v-4.104h-12.858z"/><path d="m108.763286 64.5877143-1.514286-9.9985714-.754286 4.0357142c-.315 1.69-1.792143 2.9157143-3.510714 2.9157143h-1.046429v.7142857c0 1.5757143-1.281428 2.8571429-2.8571424 2.8571429-1.575 0-2.8571429-1.2814286-2.8571429-2.8571429v-.7142857h-5.7142857v.7142857c0 1.5757143-1.2814286 2.8571429-2.8571429 2.8571429-1.575 0-2.8571428-1.2814286-2.8571428-2.8571429v-.7142857h-4.9471429c-2.2671428 0-4.2542857-1.53-4.8342857-3.7214285l-2.1042857-7.9592858c-.9471429.115-1.71.8314286-1.8564286 1.7985715l-1.9592857 12.9292857c-.2814286 1.8535714.2592857 3.7328571 1.4814286 5.1542857 1.2228571 1.4221429 2.9992857 2.2371429 4.8742857 2.2371429h26.958571c1.875715 0 3.652143-.815 4.874286-2.2371429 1.222857-1.4214286 1.762857-3.3007143 1.481429-5.1542857"/></g><path d="m104.686143 49.8363571h-30.3057144l2.0142857 7.6178572c.4135714 1.565 1.8335714 2.6578571 3.4528571 2.6578571h4.9471429v-.7142857c0-1.575 1.2821428-2.8571428 2.8571428-2.8571428 1.5757143 0 2.8571429 1.2821428 2.8571429 2.8571428v.7142857h5.7142857v-.7142857c0-1.575 1.2821429-2.8571428 2.8571429-2.8571428 1.5757144 0 2.8571424 1.2821428 2.8571424 2.8571428v.7142857h1.046429c1.031429 0 1.917143-.7357143 2.106429-1.7492857l1.35-7.2292857c.016428-.0864286.052142-.1642857.095714-.235-.373572-.6435714-1.062143-1.0621429-1.85-1.0621429" fill="#f6f6f7"/><path d="m99.0806429 57.9694286c-.7878572 0-1.4285715.6407143-1.4285715 1.4285714v2.8571429c0 .7878571.6407143 1.4285714 1.4285715 1.4285714.7885714 0 1.4285711-.6407143 1.4285711-1.4285714v-2.8571429c0-.7878571-.6399997-1.4285714-1.4285711-1.4285714m-11.4285715 0c-.7878571 0-1.4285714.6407143-1.4285714 1.4285714v2.8571429c0 .7878571.6407143 1.4285714 1.4285714 1.4285714.7885715 0 1.4285715-.6407143 1.4285715-1.4285714v-2.8571429c0-.7878571-.64-1.4285714-1.4285715-1.4285714" fill="#fff"/><path d="m103.571429 39.1220714h-.919286v2.1278572c0 1.1164285.908571 2.0257143 2.026428 2.0257143h.71c.725715 0 1.315715-.59 1.315715-1.3157143v-1.5221429c0-.7257143-.59-1.3157143-1.315715-1.3157143zm-15.7372861 2.1275715c0 1.1171428.9085714 2.0257142 2.0264285 2.0257142 1.1164286 0 2.0257143-.9085714 2.0257143-2.0257142v-.8121429c0-.725-.59-1.3157143-1.3157143-1.3157143h-2.7364285z" fill="#f6f6f7"/><path d="m69.1622857 36.2112143h.2171429c1.1964285 0 2.175-.9785714 2.175-2.175v-.2178572c0-1.1957142-.9785715-2.1742857-2.175-2.1742857h-.2171429c-1.1964286 0-2.175.9785715-2.175 2.1742857v.2178572c0 1.1964286.9785714 2.175 2.175 2.175" fill="#b9bbbe"/><path d="m97.1428571 78.4077857h-33.7921428c-1.85 0-3.3507143-1.5007143-3.3507143-3.3507143v-1.6007143c0-.3942857-.32-.7142857-.7142857-.7142857-.395 0-.7142857.32-.7142857.7142857v1.6007143c0 1.85-1.5007143 3.3507143-3.3507143 3.3507143h-13.7921429c-3.5507143 0-6.4285714-2.8778571-6.4285714-6.4285714v-27.28c0-3.08 2.4964286-5.5771429 5.5771429-5.5771429h16.3457142c.9107143 0 1.6485715.7378572 1.6485715 1.6485715v29.2228571c0 .3942857.3192857.7142857.7142857.7142857.3942857 0 .7142857-.32.7142857-.7142857v-29.2228571c0-.9107143.7378571-1.6485715 1.6485714-1.6485715h22.7835715c1.09 0 1.9735714.8835715 1.9735714 1.9735715 0 1.8035714 1.3157143 3.4164285 3.11 3.5921428 2.0592857.2 3.7992857-1.4192857 3.7992857-3.4378571v-.8121429c0-.4792857-.1342857-.9235714-.3514286-1.3157143h6.2864286c1.090714 0 1.973571.8835715 1.973571 1.9735715v.1542857c0 1.5157143.987858 2.7914285 2.347858 3.2557143v1.1764285c0 1.5057143-1.220715 2.7257143-2.725715 2.7257143h-27.6749997c-1.765 0-3.2664286 1.2907143-3.5307143 3.0364286l-1.9292857 12.7357143c-.2635714 1.7385714-.0235714 3.5407143.8135714 5.0871428 1.4042857 2.5957143 4.0721429 4.1407143 6.925 4.1407143 0 0 17.0385714-.0178571 24.5228572-.0471428 1.8471431-.0071429 2.7435711 2.3064285 1.3392861 3.5064285-1.122143.9607143-2.5785719 1.5407143-4.1685719 1.5407143zm-58.1157142-53.835c0-.3821428.3685714-.6457143.7328571-.5278571.875.2821428 1.9228571.4264285 2.9678571.4264285s2.0935715-.1442857 2.9678572-.4264285c.3635714-.1178572.7328571.1464285.7328571.5285714v1.5335714c-1.4435714.9435715-2.4007143 2.5707143-2.4007143 4.4207143v4.6657143c0 1.3807143-1.1192857 2.5-2.5 2.5-1.3814285 0-2.5007142-1.1192857-2.5007142-2.5zm3.7007142-3.6378571c2.4285715 0 3.7007143.7828571 3.7007143 1.0542857 0 .2707143-1.2721428 1.0535714-3.7007143 1.0535714-2.4285714 0-3.7007142-.7828571-3.7007142-1.0535714 0-.2714286 1.2721428-1.0542857 3.7007142-1.0542857zm49.1585715 19.5028571v.8121429c0 1.1164285-.9092857 2.0257143-2.0257143 2.0257143-1.1178572 0-2.0264286-.9092858-2.0264286-2.0257143v-2.1278572h2.7364286c.725 0 1.3157143.59 1.3157143 1.3157143zm-42.5771429-13.7628571h7.4085714c.395 0 .7142858-.32.7142858-.7142857 0-.395-.3192858-.7142858-.7142858-.7142858h-2.2714285-1.3285715c-1.6635714 0-2.7235714-1.8307142-1.8464285-3.2442857 1.4842857-2.3914285 4.1307143-3.9878571 7.1471428-3.9878571h1.5457143 31.2828572c4.6507142 0 8.42 3.77 8.42 8.42 0 .8942857-.725 1.62-1.62 1.62h-6.7757143c-.3942857 0-.7142857.32-.7142857.7142857s.32.7142857.7142857.7142857h9.3607144c1.62 0 2.939286 1.3185714 2.939286 2.9392857 0 0-.007143.7628572-.02 1.7107143-.026429 1.9735714-1.633572 3.5607143-3.6078576 3.5607143h-9.3728571-2.9428572-6.985-2.34c-.7257142 0-1.3135714-.5878571-1.315-1.3128571v-3.9585715c0-1.6235714 1.3164286-2.9392857 2.9392858-2.9392857h2.1171428 3.3635714c.395 0 .7142858-.32.7142858-.7142857s-.3192858-.7142857-.7142858-.7142857h-5.4807142c-2.4121429 0-4.3678572 1.9557143-4.3678572 4.3678571v3.9585715c0 .4464285.0407143.8821428.0985714 1.3128571h-16.3721428-3.5828572-6.8635714-3.3828571v-7.1657143c0-2.1278571 1.725-3.8528571 3.8528571-3.8528571zm8.7342857-12.2221429c1.3385715.785 3.4378572 1.1914286 5.5278572 1.1914286 2.0892857 0 4.1892857-.4064286 5.5271428-1.1914286 0 1.1785714-.9528571 2.1342857-2.1307143 2.1357143-1.9542857.0028571-4.835.0064286-6.79.01-1.1814285.0028571-2.1342857-.9542857-2.1342857-2.135zm5.5278572-3.8085714c3.3228571 0 5.5271428 1.075 5.5271428 1.7857143s-2.2042857 1.7857143-5.5271428 1.7857143c-3.3228572 0-5.5278572-1.075-5.5278572-1.7857143s2.205-1.7857143 5.5278572-1.7857143zm-12.0607143-3.15642859c-4.9414286 0-8.6335714-1.59928571-8.6335714-3.03 0-1.43 3.6921428-3.02928571 8.6335714-3.02928571s8.6335714 1.59928571 8.6335714 3.02928571c0 1.43071429-3.6921428 3.03-8.6335714 3.03zm53.8778567 31.63428569c.725715 0 1.315715.59 1.315715 1.3157143v1.5221429c0 .7257143-.59 1.3157143-1.315715 1.3157143h-.71c-1.117857 0-2.026428-.9092858-2.026428-2.0257143v-2.1278572h.919286zm1.147143 11.7764286c-.042857.0707143-.078571.1485714-.095.235l-1.35 7.2292857c-.19 1.0142857-1.075 1.7492857-2.106428 1.7492857h-1.046429v-.5871428c0-1.4907143-1.087143-2.8257143-2.5714284-2.97-1.7028572-.1664286-3.1428572 1.1735714-3.1428572 2.8428571v.7142857h-5.7142857v-.5871428c0-1.4907143-1.0871428-2.8257143-2.5714286-2.97-1.7028571-.1664286-3.1428571 1.1735714-3.1428571 2.8428571v.7142857h-4.9478571c-1.62 0-3.0378572-1.0914285-3.4521429-2.6578571l-1.5564286-5.8842857c-.2314285-.8757143.4285715-1.7335715 1.335-1.7335715h28.5128576c.787142 0 1.476428.4185715 1.849285 1.0621429zm-8.8835711 11.3564286v-2.8571429c0-.7878571.6407142-1.4285714 1.4285714-1.4285714.7878571 0 1.4285717.6407143 1.4285717 1.4285714v2.8571429c0 .7878571-.6407146 1.4285714-1.4285717 1.4285714-.7878572 0-1.4285714-.6407143-1.4285714-1.4285714zm-11.4285715 0v-2.8571429c0-.7878571.6407143-1.4285714 1.4285715-1.4285714.7878571 0 1.4285714.6407143 1.4285714 1.4285714v2.8571429c0 .7878571-.6407143 1.4285714-1.4285714 1.4285714-.7878572 0-1.4285715-.6407143-1.4285715-1.4285714zm21.4414286-4.9135715 1.075714 7.0957143c.190715 1.2557143.071429 2.5564286-.45 3.715-1.074285 2.3878572-3.392143 3.8271429-5.883571 3.8271429h-26.8042859c-1.27 0-2.5378571-.3114286-3.6042857-1-2.2014285-1.42-3.2785714-3.9278572-2.9057143-6.3914286l1.96-12.9292857c.0014286-.01.0028572-.0192857.0042858-.0292857.2028571-1.2271429 1.9885714-1.2507143 2.3071428-.0478572l1.6492857 6.2378572c.58 2.1935714 2.5642857 3.7214286 4.8335715 3.7214286h4.9478571v.5871428c0 1.4914286 1.0871429 2.8257143 2.5714286 2.9707143 1.7035714.1664286 3.1428571-1.1735714 3.1428571-2.8435714v-.7142857h5.7142857v.5871428c0 1.4914286 1.0871429 2.8257143 2.5714286 2.9707143 1.703571.1664286 3.142857-1.1735714 3.142857-2.8435714v-.7142857h1.046429c1.719285 0 3.194285-1.225 3.510714-2.9157143l.242857-1.2992857c.097143-.5214286.848572-.5085715.927143.0157142zm-85.9357143 2.6914286h-3.3828571c-1.725 0-2.5892857-2.0864286-1.3692857-3.3064286l15.2242857-15.2242857c.5057143-.505 1.37-.1478571 1.37.5678572v6.1207143c0 6.5407142-5.3021429 11.8421428-11.8421429 11.8421428zm11.8421429 7.5514286c0 .9357143-.7592857 1.695-1.695 1.695h-10.6842857c-3.6514286 0-6.7714286-2.3078572-7.9842858-5.5407143-.4135714-1.1014286.4214286-2.2771429 1.5985715-2.2771429h17.07c.9357143 0 1.695.7592858 1.695 1.695zm95.7142854 10.8235714h-27.639285c1.762142-1.2385714 2.990714-3.18 3.28-5.4157143 1.969285-.6657143 3.654285-2.105 4.605714-4.1192857.685714-1.4514286.857143-3.0942857.616428-4.6814286l-1.931428-12.7471428c-.251429-1.6535714-1.581429-2.8664286-3.217143-3.0078572v-3.7321428h.388571c1.515715 0 2.744286-1.2285714 2.744286-2.7442857v-1.5221429c0-1.5157143-1.228571-2.7442857-2.744286-2.7442857h-.487142c.057857-.4307143.098571-.8664286.098571-1.3128571v-3.9585715c0-2.2521428-1.712857-4.11-3.904286-4.3421428v-1.6457143c0-5.4392857-4.4092854-9.8485714-9.8485711-9.8485714h-18.365c-1.3 0-2.355-1.0542858-2.355-2.355v-1.8007143c0-2.11-3.4992858-3.21428574-6.9557143-3.21428574-.6728572 0-1.3478572.04285714-1.9985715.12642857v-4.88428572c0-2.895-5.1842857-4.45785714-10.0621428-4.45785714-4.8778572 0-10.0621429 1.56285714-10.0621429 4.45785714v12.00999999c0 .3942857.3207143.7142857.7142857.7142857h.0007143c.3942857 0 .7135715-.32.7135715-.7142857v-8.45857141c0-.49357143.5171428-.82714286.9571428-.60428572 1.9628572.99214286 4.8692857 1.51142857 7.6764286 1.51142857 2.8085714 0 5.7142857-.51928571 7.6771428-1.51142857.44-.22285714.9564286.11071429.9564286.60428572v1.59571428c-2.0157143.49000003-3.5292857 1.43857143-3.5292857 2.82500003v4.3285714c-4.2035714.7828571-7.4742857 4.2385714-7.9728571 8.535-.2685715.0335714-.5307143.0878571-.785.1607143v-3.465c0-1.63-2.58-2.4828572-5.1292858-2.4828572-.1878571 0-.3764285.0064286-.5642857.0157143-2.3514285.1164286-4.565.9578572-4.565 2.4671429v13.5542857c0 1.1871429-.9628571 2.15-2.15 2.15h-1.1628571c-.0957143 0-.1885714.0192857-.275.0557143-.0871429.0357143-.165.0885714-.23.1535714l-22.3392857 22.3392857c0 .0007143-.0007143.0007143-.0007143.0014286-.06.06-.1035714.13-.1378572.2035714-.01.0221429-.0157142.0442857-.0242857.0671429-.0207143.0621428-.0335714.1242857-.0378571.1892857-.0014286.015-.0085714.0278571-.0085714.0435714v.715c0 5.2707143 4.2814285 9.2457143 9.96 9.2457143h11.1078571c.7021429 0 1.2714286.5692857 1.2714286 1.2714286 0 2.6571428 1.3285714 5.0057143 3.3535714 6.4285714h-36.21071429c-.395 0-.71428571.32-.71428571.7142857s.31928571.7142857.71428571.7142857h40.71428569 17.8571429 37.8571428 32.1428569c.394286 0 .714286-.32.714286-.7142857s-.32-.7142857-.714286-.7142857zm-120.66335686-55.6270714c.18285715 0 .36571429-.07.505-.2092857l.845-.845c.27857146-.2785715.27857146-.7307143 0-1.01-.27928571-.2785715-.73142857-.2785715-1.01 0l-.845.845c-.27928571.2792857-.27928571.7307143 0 1.01.13928572.1392857.32214286.2092857.505.2092857m-4.22571428 4.2264286c.18285714 0 .36571428-.07.505-.2092858l.845-.8457142c.27857143-.2785715.27857143-.7307143 0-1.01-.27928572-.2785715-.73214286-.2785715-1.01 0l-.845.8457142c-.27928572.2792858-.27928572.7307143 0 1.01.13928571.1392858.32214285.2092858.505.2092858m4.56542857-.2092858c.13928571.1392858.32214286.2092858.505.2092858s.36571428-.07.505-.2092858c.27928567-.2792857.27928567-.7307142 0-1.01l-.845-.8457142c-.27857143-.2785715-.73071429-.2785715-1.01 0-.27857143.2792857-.27857143.7314285 0 1.01zm-4.22571429-4.2264285c.13928572.1392857.32214286.2092857.505.2092857.18285715 0 .36642857-.07.505-.2092857.27928572-.2792857.27928572-.7307143 0-1.01l-.845-.845c-.27857143-.2785715-.73142857-.2785715-1.01 0-.27857143.2792857-.27857143.7314285 0 1.01zm16.26535716 5.1182857c.595 0 1.0792857.4835714 1.0792857 1.0785714 0 .5942857-.4842857 1.0785714-1.0792857 1.0785714-.5942857 0-1.0785714-.4842857-1.0785714-1.0785714 0-.595.4842857-1.0785714 1.0785714-1.0785714m0 3.5857143c1.3828571 0 2.5078571-1.125 2.5078571-2.5071429 0-1.3821428-1.125-2.5071428-2.5078571-2.5071428-1.3821429 0-2.5071429 1.125-2.5071429 2.5071428 0 1.3821429 1.125 2.5071429 2.5071429 2.5071429m97.3562857 2.3057143h.364286c.394285 0 .714285.32.714285.7142857v.365c0 .3942857.32.7142857.714286.7142857.395 0 .714286-.32.714286-.7142857v-.365c0-.3942857.32-.7142857.714286-.7142857h.365c.393571 0 .714285-.3192858.714285-.7142858s-.320714-.7142857-.714285-.7142857h-.365c-.394286 0-.714286-.32-.714286-.7142857v-.3642857c0-.3942857-.319286-.7142857-.714286-.7142857-.394286 0-.714286.32-.714286.7142857v.3642857c0 .3942857-.32.7142857-.714285.7142857h-.364286c-.394286 0-.714286.3192857-.714286.7142857s.32.7142858.714286.7142858" fill="#b9bbbe"/><path d="m52.7204286 48.4077857h-10.4407143c-.6678572 0-1.2085714-.5407143-1.2085714-1.2078571v-1.6878572c0-.6671428.5407142-1.2085714 1.2085714-1.2085714h10.4407143c.6678571 0 1.2078571.5414286 1.2078571 1.2085714v1.6878572c0 .6671428-.54 1.2078571-1.2078571 1.2078571zm1.2078571 9.845c0 3.6907143-3.1264286 6.665-6.8692857 6.4142857-3.4121429-.2292857-5.9878571-3.2207143-5.9878571-6.6414285v-5.5578572c0-1.4535714 1.1785714-2.6314286 2.6314285-2.6314286h7.595c1.4528572 0 2.6307143 1.1778572 2.6307143 2.6314286zm.7142857-15.3778571h-14.2857143c-.3942857 0-.7142857.32-.7142857.7142857v14.6635714c0 4.3328572 3.525 7.8571429 7.8571429 7.8571429 4.3328571 0 7.8571428-3.5242857 7.8571428-7.8571429v-14.6635714c0-.3942857-.32-.7142857-.7142857-.7142857z" fill="#b9bbbe"/></g></svg>