<svg enable-background="new 0 0 100 100" viewBox="0 0 100 100" xmlns="http://www.w3.org/2000/svg"><path clip-rule="evenodd" d="m78.1 66.5c-2.7 0-4.9-2.2-4.9-4.8v-20.5c0-2.7 2.2-4.8 4.9-4.8s4.9 2.2 4.9 4.8v20.4c0 2.7-2.2 4.9-4.9 4.9zm-12.4 7.4h-2.2v10.3c0 2.7-2.2 4.8-4.9 4.8s-4.9-2.2-4.9-4.8v-10.3h-6.5v10.3c0 2.7-2.2 4.8-4.9 4.8s-4.9-2.2-4.9-4.8v-10.3h-2.2c-2.5 0-4.7-1.4-5.8-3.5h-.5v-1.4c-.1-.5-.2-1-.2-1.5v-28.8h.2v-.1h41.8v31.7h-.6c-.4 2.1-1.9 3.6-4.4 3.6zm5-37.9h-41.7c.5-7.2 4.6-13.5 10.5-17l-4.1-6.8 2-1.3 4.6 6.8c2.6-1.1 5.5-1.8 8.6-1.8 3.2 0 6 .7 8.6 1.9l4.1-6.5 2.2.9-3.9 7c5.3 3.6 8.7 9.8 9.1 16.8zm-29.8-11.6c-1.3 0-2.3 1-2.3 2.3 0 1.2 1 2.3 2.3 2.3s2.3-1 2.3-2.3-1-2.3-2.3-2.3zm19.3.1c-1.2 0-2.2 1-2.2 2.1 0 1.2 1 2.1 2.2 2.1s2.2-1 2.2-2.1-1-2.1-2.2-2.1zm-39 42c-3 0-4.2-2.4-4.2-5.4v-19.3c0-3 1.3-5.4 4.2-5.4 3 0 5.4 2.4 5.4 5.4v19.3c.1 3-2.4 5.4-5.4 5.4z" fill="#5865f2" fill-rule="evenodd"/></svg>