<svg fill="none" height="17" viewBox="0 0 184 17" width="184" xmlns="http://www.w3.org/2000/svg"><g fill="#fff"><path d="m2.56475 11.9362c.23428-.1811.58262-.1311.79242.0745.32874.3222.72956.5771 1.20244.7648.65934.2616 1.31868.3924 1.97802.3924.59341 0 1.12088-.1 1.58242-.3001.46153-.2001.73351-.5155.81593-.9464.04945-.2463 0-.4617-.14835-.6464-.14835-.2-.3544-.3616-.61813-.4847-.26374-.1231-.57693-.2232-.93956-.3001-.34616-.0924-.69231-.1616-1.03847-.2078-.6923-.1077-1.35164-.30776-1.97802-.60015-.60989-.30779-1.13736-.70021-1.58242-1.17727-.44505-.47707-.76648-1.03108-.96428-1.66203-.1978-.64635-.22253-1.35425-.07418-2.12371.16484-.83101.46978-1.53122.91484-2.10062.46154-.58479 1.01373-1.05416 1.65659-1.40811.64286-.36934 1.34341-.630956 2.10165-.784847.77473-.153893 1.56593-.230839 2.37363-.230839.52747 0 1.0467.038473 1.55772.115419.511.076947 1.0055.215449 1.4835.415508s.9313.469369 1.3599.807929c.3145.24848.6157.54255.9036.88221.177.20874.1175.51048-.1169.662l-2.4135 1.5599c-.2145.13865-.5034.10224-.6999-.05798-.3058-.24939-.6512-.44144-1.03596-.57617-.52747-.18467-1.04671-.28469-1.55769-.30008-.56044-.01539-1.04671.07694-1.4588.277-.41208.20006-.64285.50784-.6923.92335-.06594.47707.0989.83871.4945 1.08494.39561.23084.93132.41551 1.60715.55401.75824.1385 1.49175.32317 2.2005.55401.7253.21545 1.3352.53862 1.8297.96952.511.4155.8819.96182 1.1127 1.63894.2307.66177.2472 1.50047.0494 2.51617-.1648.8002-.4698 1.5004-.9148 2.1006-.4286.5848-.9643 1.0772-1.6072 1.4773-.6428.4002-1.38459.7002-2.22525.9003-.82418.2001-1.70604.3001-2.6456.3001-.52748 0-1.07967-.0616-1.6566-.1847-.56044-.1231-1.11263-.3078-1.65659-.554-.52747-.2462-1.03022-.554-1.50824-.9233-.361916-.2797-.681311-.5946-.9581876-.9448-.1532642-.1938-.1049524-.4627.0938146-.6163z"/><path d="m21.5145 6.20169c-.0443.28972.1965.54892.51.54892h5.9109c.3126 0 .5531.25777.5103.54683l-.4014 2.70846c-.0353.2379-.2531.415-.5103.415h-6.2001c-.2566 0-.474.1764-.51.4136l-.2251 1.485c-.0439.2895.1969.5483.5101.5483h6.5311c.3121 0 .5525.2571.5104.5458l-.4284 2.9393c-.0348.2383-.2528.4161-.5104.4161h-11.1477c-.3128 0-.5535-.2583-.5101-.5475l2.3037-15.381522c.0356-.237557.2532-.414315.5102-.414315h11.148c.3133 0 .554.258936.51.548528l-.4471 2.939329c-.0361.2371-.2535.4133-.51.4133h-6.8204c-.2564 0-.4737.17598-.5099.4129z"/><path d="m37.1815 11.7968c-.0947-.1381-.2583-.2217-.4339-.2217h-.0603c-.2573 0-.4752.1773-.5103.4153l-.6439 4.3633c-.0351.238-.253.4153-.5103.4153h-3.4341c-.3129 0-.5535-.2583-.5102-.5475l2.3038-15.381522c.0356-.237557.2532-.414315.5101-.414315h6.5492c.9066 0 1.7308.115419 2.4725.346256.7583.230841 1.3929.577091 1.9039 1.038771.5274.46167.9066 1.04646 1.1373 1.75436.2308.7079.2885 1.53892.1731 2.49305-.1154.75407-.2885 1.40041-.5192 1.93903-.2308.52324-.5193.97722-.8654 1.36195-.3462.36934-.7583.70022-1.2363.99262-.3262.189-.6793.3745-1.0592.5563-.284.136-.3808.4746-.1979.7187l3.2863 4.3857c.2389.3187-.0054.7566-.422.7566h-4.2429c-.1756 0-.3391-.0836-.4338-.2217zm2.1969-3.77658c.6923 0 1.228-.19237 1.6071-.5771.3792-.40011.6017-.83871.6676-1.31577.066-.49245-.0412-.92335-.3214-1.29269-.2637-.36934-.7253-.55401-1.3846-.55401h-2.149c-.2565 0-.474.17621-.51.41331l-.4224 2.77775c-.0441.28958.1967.54851.51.54851z"/><path d="m59.8649.681083c.0844-.16984.2668-.278505.4673-.278505h3.5855c.3828 0 .6318.375996.4608.695742l-8.2384 15.40458c-.0872.163-.2656.2661-.4608.2661h-3.3223c-.2418 0-.4511-.1571-.5031-.3776l-3.6304-15.404568c-.0708-.300072.1739-.584254.503-.584254h3.6767c.2489 0 .4622.16615.5068.394763l1.4807 7.592219.2456 3.87514c.0009.0146.0139.026.0295.026.0129 0 .0243-.0077.0282-.0192l1.3286-3.85886z"/><path d="m70.4551 6.20169c-.0443.28972.1965.54892.51.54892h5.9109c.3126 0 .5531.25777.5103.54683l-.4014 2.70846c-.0353.2379-.2531.415-.5103.415h-6.2001c-.2566 0-.474.1764-.51.4136l-.2251 1.485c-.0439.2895.1969.5483.5101.5483h6.5311c.3121 0 .5525.2571.5104.5458l-.4284 2.9393c-.0348.2383-.2528.4161-.5104.4161h-11.1477c-.3128 0-.5535-.2583-.5101-.5475l2.3037-15.381522c.0356-.237557.2532-.414315.5102-.414315h11.148c.3133 0 .554.258936.51.548528l-.4471 2.939329c-.0361.2371-.2535.4133-.51.4133h-6.8204c-.2564 0-.4737.17598-.51.4129z"/><path d="m86.1221 11.7968c-.0947-.1381-.2583-.2217-.4339-.2217h-.0603c-.2573 0-.4752.1773-.5103.4153l-.6439 4.3633c-.0351.238-.253.4153-.5103.4153h-3.4341c-.3129 0-.5535-.2583-.5102-.5475l2.3038-15.381522c.0356-.237557.2532-.414315.5101-.414315h6.5492c.9066 0 1.7308.115419 2.4725.346256.7583.230841 1.3929.577091 1.9039 1.038771.5274.46167.9066 1.04646 1.1373 1.75436.2308.7079.2885 1.53892.1731 2.49305-.1154.75407-.2885 1.40041-.5192 1.93903-.2308.52324-.5193.97722-.8654 1.36195-.3462.36934-.7583.70022-1.2363.99262-.3262.189-.6793.3745-1.0592.5563-.284.136-.3809.4746-.1979.7187l3.2863 4.3857c.2389.3187-.0054.7566-.422.7566h-4.2429c-.1756 0-.3391-.0836-.4338-.2217zm2.1969-3.77658c.6923 0 1.228-.19237 1.6071-.5771.3792-.40011.6017-.83871.6676-1.31577.066-.49245-.0412-.92335-.3214-1.29269-.2637-.36934-.7253-.55401-1.3846-.55401h-2.149c-.2565 0-.474.17621-.51.41331l-.4224 2.77775c-.0441.28958.1967.54851.51.54851z"/><path d="m116.492 5.41175c-.033.18467-.107.40012-.223.64635-.099.24623-.247.49245-.445.73868-.181.24623-.404.48476-.667.7156-.012.01036-.024.02066-.036.03089-.315.26501-.326.79793-.01 1.06148.17.142.317.29341.441.45424.297.38473.503.78484.618 1.20031.116.4156.149.8234.099 1.2235-.033.4001-.099.7541-.198 1.0618-.428 1.3235-1.195 2.3623-2.299 3.1163-1.088.7387-2.604 1.1081-4.55 1.1081h-6.553c-.313 0-.553-.2583-.51-.5475l2.304-15.381522c.035-.237557.253-.414315.51-.414315h6.574c.84 0 1.59.115419 2.25.346256.675.230841 1.236.561701 1.681.992601.445.41551.758.93105.94 1.54661.197.61557.222 1.31578.074 2.10062zm-5.91 1.40811c.544 0 .973-.14619 1.286-.43859.33-.30778.519-.64634.569-1.01568.066-.36934-.017-.70021-.247-.99261-.215-.30778-.602-.46167-1.163-.46167h-2.124c-.257 0-.474.17598-.51.4129l-.298 1.94673c-.044.28972.196.54892.51.54892zm-.939 6.32494c.659 0 1.178-.1693 1.558-.5078.395-.354.618-.7387.667-1.1542.066-.4309-.041-.8156-.321-1.1542-.281-.35396-.75-.53093-1.41-.53093h-2.122c-.257 0-.475.17724-.51.41523l-.353 2.3853c-.043.289.198.5466.51.5466z"/><path d="m119.707 5.80418c.149-.93874.478-1.75437.989-2.44688.528-.7079 1.162-1.29269 1.904-1.75437.758-.47706 1.582-.831011 2.473-1.061848.906-.230839 1.813-.346258 2.719-.346258.907 0 1.781.115419 2.621.346258.841.230837 1.566.584788 2.176 1.061848.61.46168 1.071 1.04647 1.385 1.75437.313.69251.395 1.50814.247 2.44688l-.865 5.58622c-.149.9388-.479 1.7621-.989 2.47-.495.6925-1.113 1.2773-1.855 1.7544-.742.4616-1.566.8079-2.472 1.0387-.907.2309-1.838.3463-2.794.3463-.907 0-1.781-.1154-2.621-.3463-.824-.2308-1.541-.5771-2.151-1.0387-.61-.4771-1.072-1.0619-1.385-1.7544-.313-.7079-.396-1.5312-.247-2.47zm3.561 5.58622c-.05.2924-.009.5541.123.7849.132.2154.313.4001.544.554.231.1385.503.2462.816.3232.33.0769.659.1154.989.1154.363 0 .717-.0385 1.063-.1154.363-.077.693-.1924.989-.3463.297-.1539.544-.3462.742-.5771.214-.2462.346-.5309.396-.8541l.865-5.47082c.05-.30779.017-.5771-.099-.80793-.115-.23084-.288-.42321-.519-.5771s-.511-.26931-.841-.34625c-.313-.07695-.651-.11542-1.013-.11542-.363 0-.726.03847-1.088.11542-.347.07694-.668.19236-.965.34625-.296.15389-.552.34626-.766.5771-.198.23083-.322.50014-.371.80793z"/><path d="m137.115 5.80418c.149-.93874.478-1.75437.989-2.44688.528-.7079 1.162-1.29269 1.904-1.75437.758-.47706 1.583-.831011 2.473-1.061848.906-.230839 1.813-.346258 2.719-.346258.907 0 1.781.115419 2.621.346258.841.230837 1.566.584788 2.176 1.061848.61.46168 1.072 1.04647 1.385 1.75437.313.69251.395 1.50814.247 2.44688l-.865 5.58622c-.149.9388-.478 1.7621-.989 2.47-.495.6925-1.113 1.2773-1.855 1.7544-.742.4616-1.566.8079-2.472 1.0387-.907.2309-1.838.3463-2.794.3463-.907 0-1.78-.1154-2.621-.3463-.824-.2308-1.541-.5771-2.151-1.0387-.61-.4771-1.072-1.0619-1.385-1.7544-.313-.7079-.395-1.5312-.247-2.47zm3.561 5.58622c-.05.2924-.009.5541.123.7849.132.2154.314.4001.544.554.231.1385.503.2462.816.3232.33.0769.66.1154.989.1154.363 0 .717-.0385 1.063-.1154.363-.077.693-.1924.989-.3463.297-.1539.544-.3462.742-.5771.215-.2462.346-.5309.396-.8541l.865-5.47082c.05-.30779.017-.5771-.099-.80793-.115-.23084-.288-.42321-.519-.5771s-.511-.26931-.841-.34625c-.313-.07695-.651-.11542-1.013-.11542-.363 0-.726.03847-1.088.11542-.346.07694-.668.19236-.965.34625-.296.15389-.552.34626-.766.5771-.198.23083-.321.50014-.371.80793z"/><path d="m155.446 11.9362c.234-.1811.583-.1311.793.0745.328.3222.729.5771 1.202.7648.659.2616 1.319.3924 1.978.3924.593 0 1.121-.1 1.582-.3001.462-.2001.734-.5155.816-.9464.05-.2463 0-.4617-.148-.6464-.148-.2-.354-.3616-.618-.4847s-.577-.2232-.94-.3001c-.346-.0924-.692-.1616-1.038-.2078-.692-.1077-1.352-.30776-1.978-.60015-.61-.30779-1.137-.70021-1.583-1.17727-.445-.47707-.766-1.03108-.964-1.66203-.198-.64635-.222-1.35425-.074-2.12371.165-.83101.47-1.53122.915-2.10062.461-.58479 1.014-1.05416 1.656-1.40811.643-.36934 1.344-.630956 2.102-.784847.775-.153893 1.566-.230839 2.374-.230839.527 0 1.046.038473 1.557.115419.511.076947 1.006.215449 1.484.415508s.931.469369 1.36.807929c.314.24848.616.54255.903.88221.177.20874.118.51048-.117.662l-2.413 1.5599c-.214.13865-.503.10224-.7-.05798-.306-.24939-.651-.44144-1.036-.57617-.527-.18467-1.047-.28469-1.558-.30008-.56-.01539-1.046.07694-1.458.277s-.643.50784-.693.92335c-.066.47707.099.83871.495 1.08494.395.23084.931.41551 1.607.55401.758.1385 1.492.32317 2.201.55401.725.21545 1.335.53862 1.829.96952.511.4155.882.96182 1.113 1.63894.231.66177.247 1.50047.049 2.51617-.164.8002-.469 1.5004-.914 2.1006-.429.5848-.965 1.0772-1.608 1.4773-.643.4002-1.384.7002-2.225.9003-.824.2001-1.706.3001-2.646.3001-.527 0-1.079-.0616-1.656-.1847-.561-.1231-1.113-.3078-1.657-.554-.527-.2462-1.03-.554-1.508-.9233-.362-.2797-.681-.5946-.958-.9448-.153-.1938-.105-.4627.094-.6163z"/><path d="m178.791 4.18831c-.257 0-.475.17733-.51.41535l-1.732 11.74994c-.035.238-.253.4154-.51.4154h-3.436c-.312 0-.553-.2576-.51-.5465l1.693-11.48771c.043-.28894-.198-.54648-.51-.54648h-3.536c-.314 0-.555-.26031-.509-.55054l.442-2.823917c.037-.236187.254-.411275.51-.411275h12.879c.314 0 .555.260319.51.550548l-.443 2.823914c-.037.23619-.254.41127-.51.41127z"/></g></svg>