<svg fill="none" height="308" viewBox="0 0 276 308" width="276" xmlns="http://www.w3.org/2000/svg" xmlns:xlink="http://www.w3.org/1999/xlink"><linearGradient id="a"><stop offset="0" stop-color="#61c7c7"/><stop offset="1" stop-color="#54b9c7"/></linearGradient><linearGradient id="b" gradientUnits="userSpaceOnUse" x1="24.2076" x2="27.5514" xlink:href="#a" y1="77.408" y2="76.0679"/><linearGradient id="c" gradientUnits="userSpaceOnUse" x1="50.564" x2="50.564" y1="207.997" y2="156.062"><stop offset="0" stop-color="#7196ff"/><stop offset="1" stop-color="#2a5ee8"/></linearGradient><linearGradient id="d"><stop offset="0" stop-color="#537ff5"/><stop offset="1" stop-color="#2a5ee8"/></linearGradient><linearGradient id="e" gradientUnits="userSpaceOnUse" x1="129984" x2="129984" xlink:href="#d" y1="43726.80000000001" y2="2635.11"/><linearGradient id="f" gradientUnits="userSpaceOnUse" x1="218165" x2="218165" xlink:href="#d" y1="31323.4" y2="1923.72"/><linearGradient id="g" gradientUnits="userSpaceOnUse" x1="41618" x2="41618" xlink:href="#d" y1="8535.18" y2="618.786"/><linearGradient id="h"><stop offset="0" stop-color="#ffc285"/><stop offset="1" stop-color="#db8d6b"/></linearGradient><linearGradient id="i" gradientUnits="userSpaceOnUse" x1="28.454" x2="29.1836" xlink:href="#h" y1="290.029" y2="300.463"/><linearGradient id="j"><stop offset="0" stop-color="#d67569"/><stop offset="1" stop-color="#e39e7f"/></linearGradient><linearGradient id="k" gradientUnits="userSpaceOnUse" x1="19.4392" x2="38.4201" xlink:href="#j" y1="300.558" y2="290.672"/><linearGradient id="l" gradientUnits="userSpaceOnUse" x1="229.172" x2="217.636" xlink:href="#h" y1="124.155" y2="153.837"/><linearGradient id="m" gradientUnits="userSpaceOnUse" x1="190.946" x2="254.563" xlink:href="#j" y1="141.589" y2="141.589"/><linearGradient id="n" gradientUnits="userSpaceOnUse" x1="205.053" x2="213.433" xlink:href="#a" y1="231.112" y2="227.939"/><linearGradient id="o" gradientUnits="userSpaceOnUse" x1="205.053" x2="213.433" xlink:href="#a" y1="311.869" y2="308.696"/><clipPath id="p"><path d="m0 0h276v308h-276z"/></clipPath><clipPath id="q"><path d="m0 0h190v404.906h-190z"/></clipPath><clipPath id="r"><rect height="305.873" rx="8" width="192.498" x="8.48682" y="20.4615"/></clipPath><clipPath id="s"><path d="m50.3342 65.6472h52.3092v9.93093h-52.3092z"/></clipPath><clipPath id="t"><path d="m50.3342 95.44h52.3092v9.93093h-52.3092z"/></clipPath><clipPath id="u"><path d="m50.3342 135.164h52.3092v9.93093h-52.3092z"/></clipPath><clipPath id="v"><path d="m50.3342 208.653h52.3092v9.93093h-52.3092z"/></clipPath><clipPath id="w"><path d="m50.3342 248.376h52.3092v9.93093h-52.3092z"/></clipPath><clipPath id="x"><path d="m50.3342 288.1h52.3092v9.93093h-52.3092z"/></clipPath><clipPath id="y"><path d="m94.1619 57.8767h171.724v307.922h-171.724z"/></clipPath><clipPath id="z"><path d="m0 0h85.8619v80.7569h-85.8619z" transform="matrix(-1 0 0 1 265.886 104.936)"/></clipPath><clipPath id="A"><path d="m0 0h85.8619v80.7569h-85.8619z" transform="matrix(-1 0 0 1 180.024 104.936)"/></clipPath><mask id="B" height="371" maskUnits="userSpaceOnUse" width="169" x="9" y="23"><path d="m162.877 23.0847h-138.7274c-8.0724 0-14.6164 6.5635-14.6164 14.66v340.6773c0 8.097 6.544 14.66 14.6164 14.66h138.7274c8.072 0 14.616-6.563 14.616-14.66v-340.6773c0-8.0965-6.544-14.66-14.616-14.66z" fill="#36393f"/></mask><mask id="C" height="21" maskUnits="userSpaceOnUse" width="21" x="21" y="65"><ellipse cx="31.5028" cy="75.5781" fill="#c4c4c4" rx="10.4618" ry="9.93093"/></mask><mask id="D" height="21" maskUnits="userSpaceOnUse" width="21" x="21" y="95"><ellipse cx="31.5028" cy="105.371" fill="#c4c4c4" rx="10.4618" ry="9.93093"/></mask><mask id="E" height="21" maskUnits="userSpaceOnUse" width="21" x="21" y="135"><ellipse cx="31.5028" cy="145.095" fill="#c4c4c4" rx="10.4618" ry="9.93093"/></mask><mask id="F" height="54" maskUnits="userSpaceOnUse" width="101" x="50" y="147"><path d="m50.3342 151.081c0-2.209 1.7909-4 4-4h92.4338c2.209 0 4 1.791 4 4v45.627c0 2.209-1.791 4-4 4h-92.4338c-2.2091 0-4-1.791-4-4z" fill="#dcddde"/></mask><mask id="G" height="21" maskUnits="userSpaceOnUse" width="21" x="21" y="208"><ellipse cx="31.5028" cy="218.584" fill="#c4c4c4" rx="10.4618" ry="9.93093"/></mask><mask id="H" height="21" maskUnits="userSpaceOnUse" width="21" x="21" y="248"><ellipse cx="31.5028" cy="258.307" fill="#c4c4c4" rx="10.4618" ry="9.93093"/></mask><mask id="I" height="20" maskUnits="userSpaceOnUse" width="21" x="21" y="288"><ellipse cx="31.5028" cy="298.031" fill="#c4c4c4" rx="10.4618" ry="9.93093"/></mask><mask id="J" height="367" maskUnits="userSpaceOnUse" width="172" x="94" y="58"><path d="m265.038 74.5442v333.7698c0 4.334-1.719 8.492-4.78 11.557s-7.212 4.787-11.54 4.787h-137.684c-4.34 0-8.504-1.718-11.5845-4.78-3.0803-3.061-4.827-7.218-4.8594-11.564v-333.7698c0-4.3673 1.7324-8.5559 4.8162-11.6441 3.0837-3.0882 7.2667-4.8231 11.6277-4.8231h23.192c.967.0307 1.886.429 2.57 1.1139.683.6848 1.081 1.6048 1.112 2.5728v1.7204c-.017.8495.136 1.6937.45 2.4833.313.7895.781 1.5085 1.375 2.115s1.303 1.0882 2.085 1.417c.783.3288 1.622.4981 2.471.4979h71.051c1.725 0 3.379-.6862 4.599-1.9076 1.219-1.2215 1.904-2.8782 1.904-4.6056v-1.7204c.031-.968.429-1.888 1.113-2.5728.684-.6849 1.602-1.0832 2.569-1.1139h23.193c2.153-.0001 4.286.4267 6.274 1.2558 1.988.829 3.793 2.0439 5.31 3.5747s2.717 3.3471 3.53 5.3443c.812 1.9972 1.223 4.1358 1.206 6.2924z" fill="#36393f"/></mask><mask id="K" height="52" maskUnits="userSpaceOnUse" width="52" x="197" y="200"><ellipse cx="222.955" cy="226.362" fill="#c4c4c4" rx="25.5265" ry="25.5633"/></mask><mask id="L" height="52" maskUnits="userSpaceOnUse" width="52" x="197" y="281"><ellipse cx="222.955" cy="307.119" fill="#c4c4c4" rx="25.5265" ry="25.5633"/></mask><mask id="M" height="52" maskUnits="userSpaceOnUse" width="52" x="111" y="200"><ellipse cx="137.093" cy="226.362" fill="#c4c4c4" rx="25.5265" ry="25.5633"/></mask><mask id="N" height="52" maskUnits="userSpaceOnUse" width="52" x="111" y="281"><ellipse cx="137.093" cy="307.119" fill="#c4c4c4" rx="25.5265" ry="25.5633"/></mask><g clip-path="url(#p)"><g clip-path="url(#q)"><path d="m165.896.00027466h-144.4971c-11.68371 0-21.155248 9.49980534-21.155248 21.21842534v362.3073c0 11.719 9.471538 21.219 21.155248 21.219h144.4971c11.684 0 21.155-9.5 21.155-21.219v-362.3073c0-11.71862-9.471-21.21842534-21.155-21.21842534z" fill="#0c0c12"/><path d="m165.768 3.85792c4.602-.00013 9.018 1.82481 12.284 5.07689 3.267 3.25209 5.119 7.66759 5.153 12.28359v362.2566c0 2.29-.452 4.558-1.33 6.673s-2.164 4.034-3.785 5.648-3.544 2.89-5.659 3.755c-2.115.864-4.38 1.301-6.663 1.284h-144.3691c-4.5906 0-8.9931-1.829-12.23919-5.085-3.24604-3.255-5.06964-7.671-5.06964-12.275v-362.2566c.03355-4.5939 1.86793-8.9901 5.10673-12.23851 3.2388-3.24846 7.6219-5.08832 12.2021-5.12197zm0-3.85789649h-144.3691c-2.7781 0-5.5291.54883049-8.0957 1.61515649-2.5667 1.06632-4.89886 2.62926-6.86331 4.59957s-3.52274 4.30945-4.58589 6.88375c-1.063154 2.5743-1.610348 5.3335-1.610348 8.1199v362.2566c0 2.786.547194 5.545 1.610348 8.119 1.06315 2.575 2.62144 4.914 4.58589 6.884s4.29661 3.533 6.86331 4.6c2.5666 1.066 5.3176 1.615 8.0957 1.615h144.3691c2.789.017 5.553-.519 8.135-1.578 2.581-1.059 4.929-2.619 6.907-4.591s3.547-4.317 4.619-6.9c1.071-2.583 1.622-5.352 1.622-8.149v-362.2566c0-2.7973-.551-5.567-1.622-8.1497-1.072-2.5828-2.641-4.9276-4.619-6.8996s-4.326-3.53225-6.907-4.59098c-2.582-1.058733-5.346-1.5950498-8.135-1.57809649z" fill="#ff9191"/><g mask="url(#B)"><path d="m133.584 34.1025h-138.72764c-8.07236 0-14.61636 6.5635-14.61636 14.66v340.6775c0 8.097 6.544 14.66 14.61636 14.66h138.72764c8.072 0 14.616-6.563 14.616-14.66v-340.6775c0-8.0965-6.544-14.66-14.616-14.66z" fill="#36393f"/><g clip-path="url(#r)"><rect fill="#292841" height="305.873" rx="8" width="192.498" x="8.48682" y="20.4615"/><path clip-rule="evenodd" d="m24.4104 50.7508c-.313 0-.549-.2842-.4915-.5919l.2607-1.3943h-1.4959c-.3103 0-.5446-.2814-.4883-.5865.0434-.2356.2488-.4066.4883-.4066h1.679l.5545-2.9792h-1.4959c-.3103 0-.5446-.2815-.4884-.5866.0435-.2355.2488-.4065.4884-.4065h1.679l.295-1.5781c.0443-.2366.2508-.4081.4915-.4081h.0289c.3129 0 .549.2843.4915.5919l-.2608 1.3943h3.1386l.2951-1.5781c.0442-.2366.2508-.4081.4915-.4081h.0288c.313 0 .549.2843.4915.5919l-.2607 1.3943h1.4959c.3103 0 .5446.2814.4883.5865-.0434.2356-.2488.4066-.4883.4066h-1.679l-.5545 2.9792h1.4959c.3103 0 .5446.2815.4883.5866-.0434.2356-.2488.4065-.4883.4065h-1.679l-.2951 1.5781c-.0442.2366-.2507.4081-.4914.4081h-.0289c-.313 0-.549-.2842-.4915-.5919l.2608-1.3943h-3.1386l-.2951 1.5781c-.0442.2366-.2508.4081-.4915.4081zm1.5532-5.9585-.5545 2.9792h3.1386l.5544-2.9792z" fill="#b9bbbe" fill-rule="evenodd"/><g fill="#fff"><path d="m42.1634 48.3475c0-.9037-.5127-1.2413-1.8204-1.5591-.7532-.1887-.9415-.3377-.9415-.5959s.2301-.4369.7009-.4369c.5022 0 1.0985.1688 1.6007.4369l.1673-.9931c-.5021-.2085-1.1089-.3376-1.768-.3376-1.1717 0-1.8622.5859-1.8622 1.4201 0 .8739.5126 1.2116 1.7367 1.5095.8055.1887 1.0252.3277 1.0252.6654 0 .3178-.2929.5065-.8369.5065-.6277 0-1.2973-.2285-1.8413-.5661l-.1674.9931c.4812.2483 1.2345.4667 1.9668.4667 1.3287 0 2.0401-.566 2.0401-1.5095z"/><path d="m45.8582 49.7577-.1569-1.003c-.1151.0298-.2511.0397-.3976.0397-.4812 0-.6591-.2085-.6591-.5958v-2.2643h1.1822l-.1569-.9732h-1.0253v-1.6982l-1.2449.1788v1.5194h-.7114v.9732h.7114v2.4629c0 1.0924.6695 1.44 1.6634 1.44.3662 0 .5963-.0397.7951-.0795z"/><path d="m46.7748 44.9611v3.446c0 .9037.4917 1.4499 1.4437 1.4499.6695 0 1.2136-.3475 1.6843-.7746l.1151.6753h1.0671v-4.7966h-1.2554v3.2375c-.3662.3575-.7637.5958-1.1508.5958-.4603 0-.6486-.278-.6486-.6951v-3.1382z"/><path d="m53.3785 47.424c0-1.0527.4708-1.5592 1.1299-1.5592.429 0 .6696.0695.9834.2086v2.0557c-.3347.4071-.6904.6653-1.1508.6653-.5544 0-.9625-.4369-.9625-1.3704zm-1.2658.0695c0 1.6187.8474 2.3635 1.904 2.3635.701 0 1.1927-.3575 1.5484-.7646l.1046.6653h1.0776v-7.1701l-1.2555.1887v2.3139c-.3034-.0993-.6904-.1788-1.1717-.1788-1.1717 0-2.2074.7945-2.2074 2.5821z"/><path d="m58.5573 51.5652c.9102 0 1.4961-.3476 1.925-1.4996l1.9354-5.1045h-1.2658l-1.1299 3.3765-1.1508-3.446-1.3078.1589 1.8309 4.6973-.0419.139c-.1674.5164-.5022.6952-.9206.6952-.2197 0-.3976-.0298-.5545-.0695l.1674 1.003c.1151.0298.2406.0497.5126.0497z"/><path d="m65.6648 47.4736v-1.152h-2.7201v1.152z"/><path d="m69.5306 46.5202c0 .5264-.3347.9137-.8892.9137-.544 0-.8788-.3774-.8788-.8739 0-.5264.3243-.9335.8788-.9335.5335 0 .8892.3873.8892.8937zm1.789 3.4362c0-.7349-.6486-1.0428-1.6843-1.1818l-.6487-.0596c-.7846-.1093-.9415-.149-.9415-.3079 0-.0794.0837-.1688.2092-.2582.1255.0199.2615.0298.408.0298 1.088 0 2.0191-.6157 2.0191-1.6485 0-.2185-.0418-.437-.136-.6257l.9207-.0596-.1674-.9533-1.2345.4171c-.3662-.288-.8474-.4469-1.4333-.4469-1.1299 0-2.0296.6455-2.0296 1.6982 0 .6356.3557 1.1321.9521 1.4002-.4185.2384-.6382.4966-.6382.7647 0 .1887.0941.3675.2929.5164-.6277.3377-.952.6853-.952 1.1321 0 .7945 1.0357 1.1918 2.4062 1.1918 1.4647 0 2.6573-.576 2.6573-1.6088zm-2.5736.9037c-.952 0-1.4019-.2582-1.4019-.6158 0-.2482.1674-.4766.5336-.7249.2511.0496.408.0794.7532.1192l.68.0794c.6277.0894.8474.2384.8474.4966 0 .3575-.5126.6455-1.4123.6455z"/><path d="m75.2591 46.0436-.1988-1.1818c-.7846.0397-1.2868.5065-1.6216 1.0626l-.1569-.9633h-1.0671v4.7966h1.2554v-2.7508c.3662-.5164 1.0043-.9137 1.789-.9633z"/><path d="m80.4219 47.3544c0-1.5591-1.0043-2.4926-2.3853-2.4926-1.3705 0-2.3748.9434-2.3748 2.5026 0 1.5591.9938 2.4926 2.3643 2.4926 1.381 0 2.3958-.9434 2.3958-2.5026zm-1.224.01c0 .8938-.3976 1.5194-1.1718 1.5194-.7323 0-1.1403-.6455-1.1403-1.5294 0-.8838.3975-1.5194 1.1403-1.5194.7533 0 1.1718.6455 1.1718 1.5294z"/><path d="m81.4194 44.9611v3.446c0 .9037.4917 1.4499 1.4437 1.4499.6696 0 1.2136-.3475 1.6844-.7746l.115.6753h1.0671v-4.7966h-1.2554v3.2375c-.3661.3575-.7637.5958-1.1508.5958-.4603 0-.6486-.278-.6486-.6951v-3.1382z"/><path d="m90.3771 47.2949c0 1.0526-.4917 1.5591-1.1404 1.5591-.4289 0-.6695-.0695-.9729-.2085v-2.0557c.3348-.4072.6905-.6753 1.1403-.6753.565 0 .973.4568.973 1.3804zm1.2659-.0696c0-1.6088-.8475-2.3635-1.9041-2.3635-.7009 0-1.1927.3674-1.5484.7547l-.115-.6554h-1.0671v6.6438l1.2554-.1788v-1.8074c.3034.1092.6905.1887 1.1717.1887 1.1613 0 2.2075-.7945 2.2075-2.5821z"/></g><g mask="url(#C)"><ellipse cx="31.5028" cy="75.5781" fill="#cfdeff" rx="10.4618" ry="9.93093"/><path d="m43.1519 88.9521c-.2008-.4687-.53-.8778-.9525-1.1836-.4225-.3057-.9223-.4966-1.4459-.5521l-1.0931-.1173c-1.604-5.4231-.8203-6.6478-5.4557-7.89l-3.7461-.149s-3.8051.0383-5.1926 1.8265l1.9993 6.1642s-.7733 4.0788-.3948 6.1511l4.874-.5747 2.1595 6.572c7.9629-1.0865 11.6516-4.6065 11.6516-4.6065z" fill="#cfdeff"/><path d="m26.1572 79.5656c5.3577 4.8163 10.1923 8.1141 9.3306.5619z" fill="#b8c5ff"/><path d="m28.7793 80.1465c4.6557 2.123 5.8659 2.9205 5.5446.401z" fill="#5697b0"/><path d="m38.8183 83.6769c-.577-2.2753-1.0055-3.2571-3.3735-4.0919.6454 1.4314.9424 4.3788.9424 4.3788z" fill="#fff"/><path d="m30.859 72.7021-.1782-1.2603c-.0599-.4111-.2543-.7949-.5552-1.0961-.3009-.3011-.6926-.5039-1.1187-.5792-.468-.0809-.9487-.0018-1.3578.2237-.4091.2254-.7206.5827-.8798 1.0093-.5852 1.5474-1.499 4.0369-2.1266 6.1314-.9993 3.3373 3.6301 4.1385 8.1714 3.8331s4.9562-2.2105 4.3085-4.9759c-.415-1.7251-.9378-3.4868-1.2637-4.5818-.0995-.3057-.2893-.5781-.5463-.7841-.2569-.2059-.5699-.3365-.9007-.3759-.3707-.0434-.7445.0325-1.0623.2157-.3179.1832-.5618.4633-.6934.7962l-.5017 1.2911z" fill="#7ce4cc"/><path d="m36.517 77.277-.3239-.1099-1.6541.5408-1.6853.1988-2.9257-.5768s-1.6232-2.3933-1.4884.2579c.1046 1.8316.922 2.8876 1.4189 3.3722.9812.049 1.964.0375 2.9421-.0342.7384-.0352 1.4694-.149 2.1794-.3394.4884-.6668 1.2742-1.8955 1.537-3.3094z" fill="#aafae7"/><path d="m28.3868 77.406c-.3801-1.0036-1.0702-3.1172-.8005-4.7052.2697-1.5881.6307-2.8921 1.3959-2.9005-.466-.0808-.9446-.0018-1.3519.223s-.7174.5811-.876 1.0065c-.5826 1.5431-1.4924 4.0259-2.1173 6.1146-.8918 2.972 2.6999 3.9239 6.7125 3.876-.8717-.1428-1.9843-1.0271-2.9627-3.6144z" fill="url(#b)" opacity=".74"/><path d="m31.3497 80.9978-.3233.0054-.3064.0034-.481-.0252-.1509.0178-.2416-.0206c-.4922-.4664-1.3057-1.5177-1.4098-3.341-.0071-.0327-.006-.0666.0031-.0987.9613 2.4597 2.0562 3.3302 2.9099 3.4589z" fill="#aafae7"/><path d="m36.1315 76.9966.0002.3719c-1.7697 1.1104-2.056 1.4184-6.644.0048l-.0487-.3466.1985.0548c3.8836.9685 4.6246 1.0568 6.494-.0849z" fill="#2c4661"/><path d="m29.1308 78.416c.5954-.1553.9237-.8005.7331-1.4412s-.8279-1.0342-1.4234-.879c-.5955.1553-.9237.8005-.7331 1.4412s.8279 1.0342 1.4234.879z" fill="#738eff"/><path d="m36.9994 77.0913c.1189-.5497-.0562-1.0503-.3911-1.1183-.3349-.0679-.7028.3227-.8217.8723-.1189.5497.0562 1.0503.3911 1.1182s.7028-.3226.8217-.8722z" fill="#738eff"/><path d="m32.4493 76.0292c-.0855-.1213.0567-.2037.1699-.2499.0458-.0164.096-.0188.1436-.0068.0477.012.0904.0379.1224.074l.4355.5398c.1261.1658-.0613.1715-.2477.0621-.1865-.1094-.493-.2211-.6237-.4192z" fill="#284e7a" opacity=".41"/><path d="m34.3929 76.2851.1289-.2937c.0227-.0503.029-.1061.0184-.1603-.0107-.0542-.038-.1043-.0784-.1439l-.0594-.0585c-.0055-.0061-.0125-.0109-.0203-.0138-.0079-.0029-.0163-.0039-.0246-.0029s-.0162.0039-.023.0085c-.0068.0047-.0122.0109-.0159.0181-.0787.2093-.1394.4247-.1816.644-.0184.2315.1324.2137.2559.0025z" fill="#284e7a" opacity=".41"/><path d="m32.5198 72.8316-1.628-.1208 1.298-.1532.5026-1.2946c.1318-.3338.3762-.6147.6946-.7983.3185-.1837.6929-.2598 1.0643-.2162l.3172.0614c-.7737-.1393-1.0302.7144-1.1748 1.7527-.0739.5687-.0496.8623-1.0739.769z" fill="#61c7c7"/><path d="m35.5595 72.5925c-.0002-.3915-.2772-.7121-.6186-.716-.3415-.004-.6181.3103-.6178.7018.0002.3916.2772.7122.6186.7161.3415.0039.6181-.3103.6178-.7019z" fill="#21354a"/><path d="m29.8163 72.3567c.0383-.3898-.2063-.7329-.5463-.7665-.34-.0335-.6467.2553-.685.6451s.2063.7329.5463.7664c.34.0336.6467-.2552.685-.645z" fill="#21354a"/><path d="m27.251 87.1185c.7024.0156 1.5972-.0571 2.3958-.0857-.017-.3061.0086-.6126.0762-.9112.119-.5015.3029-.9861.5475-1.4424-.6398-.0558-1.4162-.1119-2.0514-.1354-.1532-3.0166-1.8197-4.6573-2.7272-3.8286-.4302.3918-.6898.9257-.7277 1.4966-.0202.4617.0343 1.2098.0068 1.3771-.0759.5503-.4799.7127.0234 1.736.26.5107-.2118 1.7638 2.4566 1.7936z" fill="#fff"/><path d="m29.4319 69.9101c.6507.3977.8203 1.3598.8747 1.7462.0545.3865.152 1.0788.177 1.2559s.0842.2356.7.5065.3577.0068.0761-.3037l-.3787-.3971-.177-1.2559c-.0497-.3427-.194-.6675-.4177-.9405-.2238-.273-.5188-.4841-.8544-.6114z" fill="#d4ffdc"/><path d="m35.1999 72.1181c.2341.0872.2902.6052.057.4032-.2333-.202-.3796-.5127-.057-.4032z" fill="#335a70"/><path d="m29.5168 71.8186c.2173.0891.2757.6231.057.4031-.2187-.2201-.3962-.5106-.057-.4031z" fill="#335a70"/><path d="m29.4733 77.7434c.2232-.1115.2387-.4979.0345-.863-.2042-.365-.5508-.5705-.774-.459s-.2387.4979-.0345.863c.2043.365.5508.5705.774.459z" fill="#b2a6ff"/><path d="m36.977 76.651c-.0016-.2586-.1087-.469-.2392-.4699-.1306-.0008-.2351.2081-.2336.4667.0016.2586.1087.4689.2393.4698.1305.0009.2351-.208.2335-.4666z" fill="#b2a6ff"/><path d="m35.2577 70.772c.3645.2849.471.797.0616.4354-.4094-.3615-.5023-.7769-.0616-.4354z" fill="#d4ffdc"/></g><g clip-path="url(#s)"><rect fill="#2ddfb4" height="9.93093" rx="4" width="25.1084" x="50.3342" y="65.6472"/><rect fill="#72767d" height="5.95856" rx="2.97928" width="25.1084" x="77.5352" y="69.6196"/></g><path d="m50.3342 81.5643c0-2.2091 1.7909-4 4-4h67.3248c2.21 0 4 1.7909 4 4v1.931c0 2.2091-1.79 4-4 4h-71.3248z" fill="#dcddde"/><g mask="url(#D)"><g fill="#f7e5bc"><ellipse cx="31.5028" cy="105.371" rx="10.4618" ry="9.93093"/><path d="m43.534 111.587-1.4217 3.113c-.1112.246-.2732.468-.4765.653-.2032.185-.4435.33-.7067.426-.2632.095-.5439.14-.8255.13-.2816-.009-.5584-.072-.814-.184l-5.3133-2.296 2.6463-3.96 3.2378 1.714.4774-1.339c1.6707.63 2.5632 1.182 3.1962 1.743z"/><path d="m37.3594 110.08c2.1378.335 2.3349.758 2.9057 1.822l-2.2935-.246z"/></g><path d="m27.293 93.2053c-.4251.1258-.784.4004-1.0037.7681s-.2838.801-.1793 1.212l2.1274 8.2456 3.8086-.749-2.5633-8.3537c-.0642-.2113-.1721-.4084-.3174-.5798-.1454-.1713-.3253-.3134-.5291-.4179-.2039-.1046-.4277-.1695-.6583-.191s-.4634.0008-.6849.0657z" fill="#d6569b"/><path d="m29.41 101.5 1.5047-.059-1.5981-4.9652c-.0222-.0714-.0595-.1376-.1098-.1947s-.1124-.1037-.1825-.1369c-.0701-.0333-.1467-.0525-.2249-.0565-.0783-.0039-.1566.0075-.23.0335-.1288.0467-.2349.1368-.2981.2531s-.079.2507-.0444.3773z" fill="#e374b0"/><path d="m36.1035 93.1659c.4268.1218.7888.3932 1.0123.7591.2236.366.2921.799.1915 1.2111l-2.034 8.2549-3.819-.699 2.4699-8.3834c.062-.212.168-.4102.3117-.5829s.3222-.3164.5252-.4228c.2029-.1064.4261-.1734.6566-.1969s.4637-.0031.6858.0599z" fill="#d6569b"/><path d="m34.6611 101.48-1.4944-.049 1.5359-4.9848c.0219-.0713.0593-.1375.1098-.1943.0504-.0568.1129-.1029.1833-.1353.0704-.0325.1471-.0507.2254-.0533.0782-.0026.1561.0104.2287.0382.1285.0447.2353.1325.3003.2468s.0837.2473.0525.3738z" fill="#e374b0"/><path d="m38.9262 113.498-.6227 1.872-.083.236-.7679 2.286h-14.2795c-.1349-.503.0311-.601.3943-1.163.3632-.561.1764-.413.2283-1.773.0415-.955.4047-1.842 1.7019-2.945.3944-.325.4878-.453.8925-.808l.1245-.108.0623-.06.083-.059 9.7549-1.458 1.9614 3.103z" fill="#f7e5bc"/><path d="m38.3037 115.37c-.0623.896-.1453 1.743-.2491 2.522h-10.4917c.0104-.404.0208-.907.0415-1.517-.0017-.066.0018-.132.0104-.197v-.759c-.0726-1.803-.6123-3.034-2.117-3.408.2802-.266.5708-.532.8925-.808l.1245-.108.1453-.119 9.7549-1.458c.7679.266 1.2764.454 1.8576 1.015.0622.709.0934 1.409.1037 2.088.0104.956-.0207 1.872-.0726 2.749z" fill="#1f3a70"/><path d="m37.3675 105.619-11.3219.43c-1.4902.057-2.6499 1.249-2.5903 2.664l.0002.004c.0596 1.414 1.3159 2.515 2.8061 2.459l11.3219-.43c1.4902-.057 2.6498-1.249 2.5902-2.664l-.0001-.004c-.0596-1.414-1.316-2.515-2.8061-2.459z" fill="#f06ea8"/><path d="m36.7763 100.855-11.0009.437c-1.5747.063-2.7978 1.326-2.7318 2.82l.0039.09c.066 1.495 1.3961 2.656 2.9709 2.593l11.0009-.437c1.5747-.063 2.7978-1.326 2.7318-2.821l-.004-.089c-.066-1.495-1.396-2.656-2.9708-2.593z" fill="#f06ea8"/><path d="m37.546 110.661c1.4528-.059 2.6463-1.172 2.6463-2.551.0048-.502-.1462-.993-.4342-1.414-.2879-.42-.7-.751-1.1847-.95.365-.265.6574-.609.8525-1.003.1952-.394.2872-.828.2682-1.263v-.089c-.016-.356-.1057-.705-.2641-1.028-.1585-.323-.3824-.613-.659-.854-.2767-.24-.6006-.427-.9532-.548-.3527-.122-.7272-.176-1.102-.161l-9.8172.394c-.8821 1.606-.7575 3.33-.1038 4.571.0954.188.1492.393.1581.601.009.208-.0272.416-.1062.611-.9443 2.384.301 4.108.301 4.108z" fill="#e05fa3"/><path d="m29.6187 105.832c.2494-.155.2633-.554.0311-.89-.2323-.337-.6227-.485-.8721-.33s-.2633.554-.031.891c.2322.336.6226.484.872.329z" fill="#1b1926"/><path d="m34.5358 105.096c.1078-.366-.0195-.721-.2845-.791-.2649-.07-.5672.17-.6751.537s.0195.721.2844.791c.265.071.5673-.17.6752-.537z" fill="#1b1926"/><path d="m30.7073 107.016c.6849 1.104 1.6915 1.36 2.3661-.069.008-.012.012-.027.0116-.042-.0005-.015-.0053-.029-.014-.042-.0086-.012-.0208-.022-.0351-.028s-.03-.008-.0455-.006l-2.2105.059c-.0149.002-.0292.007-.0417.015-.0124.008-.0226.019-.0298.031-.0071.013-.0109.027-.0111.041s.0032.029.01.041z" fill="#751b40"/><path d="m32.0875 106.859-1.3076.029c-.0149.002-.0292.007-.0417.015-.0124.008-.0226.019-.0298.031-.0071.013-.0109.027-.0111.041s.0032.029.01.041c.5915.946 1.4113 1.271 2.0651.444-.1622-.259-.4001-.468-.6849-.601z" fill="#9c2455"/></g><g clip-path="url(#t)"><rect fill="#bed3ff" height="9.93093" rx="4" width="25.1084" x="50.3342" y="95.44"/><rect fill="#72767d" height="5.95855" rx="2.97928" width="25.1084" x="77.5352" y="99.4124"/></g><path d="m50.3342 111.357c0-2.209 1.7909-4 4-4h92.4338c2.209 0 4 1.791 4 4v5.931h-100.4338z" fill="#dcddde"/><path d="m50.3342 117.288h100.4338v5.931c0 2.209-1.791 4-4 4h-92.4338c-2.2091 0-4-1.791-4-4z" fill="#dcddde"/><g mask="url(#E)"><ellipse cx="31.5028" cy="145.095" fill="#ffb869" rx="10.4618" ry="9.93093"/><path d="m26.134 148.338c1.2211 4.03 6.1329 6.823 10.0735 4.188 3.9406-2.634.0277-8.034.0277-8.034s2.1368-5.111-3.219-6.322c-5.3559-1.212-6.6879 1.001-6.8822 10.168z" fill="#4d7ae8"/><path d="m34.0708 145.388c-.5977 0-1.0823-.614-1.0823-1.37 0-.757.4846-1.37 1.0823-1.37s1.0823.613 1.0823 1.37c0 .756-.4846 1.37-1.0823 1.37z" fill="#dbe7ff"/><path d="m34.5347 145.058c-.1529-.01-.2606-.242-.2409-.517.0197-.276.1599-.492.3128-.482s.2608.242.2408.518c-.0197.275-.1598.491-.3127.481z" fill="#201e2f"/><path d="m35.3194 141.463c-.0719-.205-.2095-.383-.3938-.509-.1845-.126-.4057-.194-.633-.194-.2272 0-.4487.068-.6328.194-.1843.126-.3221.304-.3939.509z" fill="#201e2f"/><path d="m35.2085 147.284c-1.0546.264-2.1923.027-3.1358-.948-.1233-.134-.2964-.217-.4827-.231-.1864-.015-.3715.04-.5164.152-.1578.101-.2668.258-.3032.436-.0365.178.0028.362.109.512 1.443 2.239 3.6908 2.582 5.0783 1.317.0952-.081.166-.185.2051-.3.0389-.116.0447-.24.0169-.358-.0191-.101-.0605-.197-.1207-.282-.0605-.085-.139-.157-.2303-.211-.0913-.055-.1937-.091-.3006-.106-.1068-.014-.2156-.008-.3196.019z" fill="#590942"/><path d="m34.4036 147.39c.2723.002.5434-.034.8048-.106h.2498v.659s-.4163.29-1.9703.131v-.368l-2.7196-.87c.001-.108.0293-.215.0823-.311.0531-.096.1295-.179.223-.242 0-.007.0029-.013.0081-.018s.0122-.008.0196-.008c.1141-.074.2504-.111.3885-.105.0278-.027.0833 0 .111 0h.2498c.0277.026.0555.026.0555.052 0 .027.0555 0 .0555.027l.111.079c.1642.178.3506.337.555.474l.3885.237c.1809.106.3773.185.5828.237.2592.084.5308.129.8047.132z" fill="#dbe7ff"/><path d="m31.0736 146.257c0-.007.0029-.014.0081-.019s.0122-.007.0196-.007c.1141-.075.2504-.112.3885-.106.0278-.026.0833 0 .111 0h.2498c.0277.027.0555.027.0555.053s.0555 0 .0555.026l.111.079c.0873.11.19.207.3052.29l-.777.448-.8325-.264c.0094-.099.0415-.195.0943-.282.0527-.086.1247-.161.211-.218z" fill="#b5cdff"/><path d="m27.2717 140.014c.999-2.108 2.7473-2.529 5.7444-1.844.6035.128 1.1835.341 1.7205.632.1665.843-1.1933 1.106-3.7186.342.8326 1.423-.888 3.952-3.7463.87z" fill="#201e2f"/><path d="m30.7682 138.091.1388-1.739c.0124-.159-.0114-.318-.0697-.467-.0584-.149-.15-.285-.2685-.397-.1185-.113-.2612-.2-.4184-.255-.1571-.055-.325-.078-.4922-.066-.1883.01-.3713.063-.5331.155s-.2977.22-.3959.373c-.0983.153-.156.326-.1682.505s.0215.357.0982.521l.8325 1.791z" fill="#201e2f"/><path d="m23.5532 147.39.8325.289 1.7483-1.08v1.344l1.4431 1.08c.3031.236.5527.529.7339.859.1812.331.2903.692.3206 1.064l.0555 1.08c2.109 1.659 4.9951 2.186 7.5204.5.4107-.26.7759-.58 1.0822-.948l.8603.29s-1.7483 6.981-4.6621 8.245-4.9396 0-4.9396 0c-3.0525-9.852-2.1645-11.696-9.7127-8.851l-.3607-2.002z" fill="#ef6767"/><path d="m29.6028 144.255-5.4946-4.873-.4996.605 4.2459 7.508z" fill="#4d7ae8"/><path d="m27.6047 143.148-2.1645-1.448 1.665 2.845-.3053-1.107z" fill="#3366e0"/></g><g clip-path="url(#u)"><rect fill="#fdd171" height="9.93093" rx="4" width="25.1084" x="50.3342" y="135.164"/><rect fill="#72767d" height="5.95856" rx="2.97928" width="25.1084" x="77.5349" y="139.136"/></g><g mask="url(#F)"><path d="m245.907 135.164h-390.686v72.504h390.686z" fill="url(#c)"/><path d="m77.4924 135.164c-59.4204 27.832-127.9186 72.504-127.9186 72.504h-30.0396l104.1626-72.504z" fill="url(#e)"/><path d="m177.763 135.164c-54.93 20.234-121.5496 46.097-121.5496 46.097 17.7163-11.281 71.8656-38.858 93.0476-46.097z" fill="url(#f)"/><path d="m77.1873 151.136c16.4107-9.347 26.3547-13.969 26.3547-13.969-12.5307 1.645-19.9124 6.822-26.3547 13.969z" fill="url(#g)"/><path d="m132.325 186.739c1.306-6.451.293-14.57-10.932-19.84-7.919-3.463-17.765 1.482-16.68 13.064-3.318.058-6.1002 1.101-7.8572 3.846-8.5409-5.965-23.0483-1.251-19.7661 14.593-9.7367-.266-14.3366 2.687-16.0082 9.266h60.3115l39.166-.035c-3.038-11.269-13.897-19.933-28.234-20.894z" fill="#7196ff" opacity=".4"/><path d="m96.3676 189.774c.3416-5.351 4.3804-8.791 8.3454-9.811-3.318.058-6.1004 1.101-7.8574 3.846-4.5999-3.208-10.9201-3.324-15.276-.278 4.1362-2.629 12.1525 1.841 14.788 6.243z" fill="#83a4ff" opacity=".5"/><path d="m203.081 207.668c0-14.177-10.433-14.559-10.433-14.559 2.685-14.535-12.164-26.488-27.245-18.473-15.081 8.014-6.833 21.346-6.833 21.346-11.872-2.236-27.758-.024-30.967 11.686z" fill="#5e87f9"/><path d="m68.817 207.668c-2.0498-3.116-8.2603-4.506-12.8724-3.683-2.2573-4.089-9.1998-6.347-14.2878-1.807-4.5999-.394-10.6761 1.054-11.2618 5.49z" fill="#83a4ff"/></g><g mask="url(#G)"><ellipse cx="31.5028" cy="218.584" fill="#ffb869" rx="10.4618" ry="9.93093"/><path d="m26.134 221.827c1.2211 4.03 6.1329 6.822 10.0735 4.188s.0277-8.034.0277-8.034 2.1368-5.111-3.219-6.322c-5.3559-1.212-6.6879 1.001-6.8822 10.168z" fill="#4d7ae8"/><path d="m34.0708 218.876c-.5977 0-1.0823-.613-1.0823-1.369 0-.757.4846-1.37 1.0823-1.37s1.0823.613 1.0823 1.37c0 .756-.4846 1.369-1.0823 1.369z" fill="#dbe7ff"/><path d="m34.5347 218.547c-.1529-.01-.2606-.242-.2409-.517.0197-.276.1599-.492.3128-.482s.2608.242.2408.517c-.0197.276-.1598.492-.3127.482z" fill="#201e2f"/><path d="m35.3194 214.951c-.0719-.204-.2095-.382-.3938-.508-.1845-.126-.4057-.194-.633-.194-.2272 0-.4487.068-.6328.194-.1843.126-.3221.304-.3939.508z" fill="#201e2f"/><path d="m35.2085 220.773c-1.0546.263-2.1923.026-3.1358-.948-.1233-.134-.2964-.217-.4827-.231-.1864-.015-.3715.039-.5164.152-.1578.101-.2668.258-.3032.436-.0365.177.0028.362.109.512 1.443 2.239 3.6908 2.582 5.0783 1.317.0952-.081.166-.185.2051-.301.0389-.115.0447-.239.0169-.357-.0191-.101-.0605-.197-.1207-.282-.0605-.085-.139-.157-.2303-.211-.0913-.055-.1937-.091-.3006-.106-.1068-.015-.2156-.008-.3196.019z" fill="#590942"/><path d="m34.4036 220.878c.2723.003.5434-.033.8048-.105h.2498v.659s-.4163.289-1.9703.131v-.368l-2.7196-.87c.001-.108.0293-.215.0823-.311.0531-.096.1295-.179.223-.242 0-.007.0029-.014.0081-.019.0052-.004.0122-.007.0196-.007.1141-.074.2504-.111.3885-.106.0278-.026.0833 0 .111 0h.2498c.0277.027.0555.027.0555.053s.0555 0 .0555.026l.111.079c.1642.179.3506.338.555.475l.3885.237c.1809.105.3773.185.5828.237.2592.084.5308.129.8047.131z" fill="#dbe7ff"/><path d="m31.0736 219.746c0-.007.0029-.014.0081-.019s.0122-.008.0196-.008c.1141-.074.2504-.111.3885-.105.0278-.026.0833 0 .111 0h.2498c.0277.026.0555.026.0555.053 0 .026.0555 0 .0555.026l.111.079c.0873.109.19.207.3052.29l-.777.448-.8325-.264c.0094-.099.0415-.196.0943-.282.0527-.087.1247-.161.211-.218z" fill="#b5cdff"/><path d="m27.2717 213.503c.999-2.108 2.7473-2.529 5.7444-1.844.6035.128 1.1835.341 1.7205.632.1665.843-1.1933 1.106-3.7186.342.8326 1.423-.888 3.952-3.7463.87z" fill="#201e2f"/><path d="m30.7682 211.58.1388-1.739c.0124-.159-.0114-.318-.0697-.467-.0584-.149-.15-.285-.2685-.397-.1185-.113-.2612-.2-.4184-.255-.1571-.056-.325-.078-.4922-.066-.1883.01-.3713.063-.5331.155s-.2977.22-.3959.373c-.0983.153-.156.326-.1682.505-.0122.178.0215.357.0982.521l.8325 1.791z" fill="#201e2f"/><path d="m23.5532 220.878.8325.29 1.7483-1.08v1.344l1.4431 1.08c.3031.236.5527.529.7339.859s.2903.692.3206 1.064l.0555 1.08c2.109 1.659 4.9951 2.186 7.5204.5.4107-.26.7759-.58 1.0822-.948l.8603.29s-1.7483 6.98-4.6621 8.245c-2.9138 1.264-4.9396 0-4.9396 0-3.0525-9.852-2.1645-11.696-9.7127-8.851l-.3607-2.002z" fill="#ef6767"/><path d="m29.6028 217.744-5.4946-4.874-.4996.606 4.2459 7.508z" fill="#4d7ae8"/><path d="m27.6047 216.637-2.1645-1.449 1.665 2.845-.3053-1.106z" fill="#3366e0"/></g><g clip-path="url(#v)"><rect fill="#fdd171" height="9.93093" rx="4" width="25.1084" x="50.3342" y="208.653"/><rect fill="#72767d" height="5.95856" rx="2.97928" width="25.1084" x="77.5352" y="212.625"/></g><path d="m50.3342 224.57c0-2.209 1.7909-4 4-4h92.4338c2.209 0 4 1.791 4 4v1.931c0 2.209-1.791 4-4 4h-96.4338z" fill="#dcddde"/><path d="m50.3342 230.501h50.2168v5.931c0 2.209-1.7908 4-4 4h-42.2168c-2.2091 0-4-1.791-4-4z" fill="#dcddde"/><g mask="url(#H)"><ellipse cx="31.5028" cy="258.307" fill="#ffb869" rx="10.4618" ry="9.93093"/><path d="m26.134 261.55c1.2211 4.031 6.1329 6.823 10.0735 4.189s.0277-8.035.0277-8.035 2.1368-5.11-3.219-6.322c-5.3559-1.211-6.6879 1.001-6.8822 10.168z" fill="#4d7ae8"/><path d="m34.0708 258.6c-.5977 0-1.0823-.613-1.0823-1.37 0-.756.4846-1.369 1.0823-1.369s1.0823.613 1.0823 1.369c0 .757-.4846 1.37-1.0823 1.37z" fill="#dbe7ff"/><path d="m34.5347 258.27c-.1529-.009-.2606-.241-.2409-.517s.1599-.491.3128-.481.2608.241.2408.517c-.0197.276-.1598.491-.3127.481z" fill="#201e2f"/><path d="m35.3194 254.675c-.0719-.204-.2095-.382-.3938-.509-.1845-.126-.4057-.193-.633-.193-.2272 0-.4487.067-.6328.193-.1843.127-.3221.305-.3939.509z" fill="#201e2f"/><path d="m35.2085 260.497c-1.0546.263-2.1923.026-3.1358-.949-.1233-.133-.2964-.216-.4827-.231-.1864-.014-.3715.04-.5164.152-.1578.102-.2668.259-.3032.436-.0365.178.0028.362.109.513 1.443 2.239 3.6908 2.581 5.0783 1.317.0952-.081.166-.185.2051-.301.0389-.116.0447-.239.0169-.358-.0191-.101-.0605-.196-.1207-.281-.0605-.085-.139-.157-.2303-.212-.0913-.054-.1937-.09-.3006-.105-.1068-.015-.2156-.009-.3196.019z" fill="#590942"/><path d="m34.4036 260.602c.2723.002.5434-.033.8048-.105h.2498v.658s-.4163.29-1.9703.132v-.369l-2.7196-.869c.001-.109.0293-.215.0823-.312.0531-.096.1295-.179.223-.241 0-.007.0029-.014.0081-.019s.0122-.008.0196-.008c.1141-.074.2504-.111.3885-.105.0278-.026.0833 0 .111 0h.2498c.0277.026.0555.026.0555.053 0 .026.0555 0 .0555.026l.111.079c.1642.179.3506.338.555.474l.3885.237c.1809.106.3773.186.5828.237.2592.085.5308.13.8047.132z" fill="#dbe7ff"/><path d="m31.0736 259.469c0-.007.0029-.013.0081-.018s.0122-.008.0196-.008c.1141-.074.2504-.111.3885-.105.0278-.027.0833 0 .111 0h.2498c.0277.026.0555.026.0555.052 0 .027.0555 0 .0555.027l.111.079c.0873.109.19.207.3052.29l-.777.447-.8325-.263c.0094-.1.0415-.196.0943-.282.0527-.087.1247-.161.211-.219z" fill="#b5cdff"/><path d="m27.2717 253.226c.999-2.107 2.7473-2.529 5.7444-1.844.6035.128 1.1835.341 1.7205.633.1665.843-1.1933 1.106-3.7186.342.8326 1.423-.888 3.951-3.7463.869z" fill="#201e2f"/><path d="m30.7682 251.303.1388-1.738c.0124-.159-.0114-.318-.0697-.467-.0584-.15-.15-.285-.2685-.398-.1185-.112-.2612-.199-.4184-.255-.1571-.055-.325-.077-.4922-.066-.1883.01-.3713.064-.5331.156s-.2977.22-.3959.373c-.0983.153-.156.326-.1682.504-.0122.179.0215.358.0982.522l.8325 1.791z" fill="#201e2f"/><path d="m23.5532 260.602.8325.29 1.7483-1.08v1.343l1.4431 1.08c.3031.237.5527.529.7339.86.1812.33.2903.692.3206 1.063l.0555 1.08c2.109 1.66 4.9951 2.187 7.5204.501.4107-.26.7759-.58 1.0822-.948l.8603.289s-1.7483 6.981-4.6621 8.246c-2.9138 1.264-4.9396 0-4.9396 0-3.0525-9.853-2.1645-11.697-9.7127-8.852l-.3607-2.002z" fill="#ef6767"/><path d="m29.6028 257.467-5.4946-4.873-.4996.606 4.2459 7.508z" fill="#4d7ae8"/><path d="m27.6047 256.361-2.1645-1.449 1.665 2.845-.3053-1.106z" fill="#3366e0"/></g><g clip-path="url(#w)"><rect fill="#fdd171" height="9.93093" rx="4" width="25.1084" x="50.3342" y="248.376"/><rect fill="#72767d" height="5.95856" rx="2.97928" width="25.1084" x="77.5352" y="252.349"/></g><path d="m50.3342 264.293c0-2.209 1.7909-4 4-4h92.4338c2.209 0 4 1.791 4 4v1.931c0 2.209-1.791 4-4 4h-96.4338z" fill="#dcddde"/><path d="m50.3342 270.224h83.6948v5.931c0 2.209-1.791 4-4 4h-75.6948c-2.2091 0-4-1.791-4-4z" fill="#dcddde"/><g mask="url(#I)"><ellipse cx="31.5028" cy="298.031" fill="#ff82a6" rx="10.4618" ry="9.93093"/><path d="m37.3496 290.491-.0294.085-.0886.208-.0294.085-.0689.151c-1.5154 3.468-4.4777 6.003-6.439 7.765-2.0313 1.817-4.3243 3.347-6.8125 4.546-2.4519 1.105-3.5809.072-3.3315-1.858l.2341-.968 1.1506-4.876.0486-.238c.7806-3.177 2.0254-4.992 6.1394-5.931l6.2604-1.401.0199-.009c2.1862-.481 3.7217.245 2.9463 2.441z" fill="url(#i)"/><path d="m36.6666 288.072c-1.9905.295-5.6947 2.552-9.3539 5.889s-6.4402 7.035-6.6705 8.864c.3632.982 1.4404 1.299 3.2194.503 2.4912-1.201 4.7868-2.734 6.8206-4.554 1.9635-1.766 4.9294-4.305 6.4466-7.78l.069-.151.0294-.086.0887-.208.0294-.085c.462-1.29.1296-2.07-.6787-2.392z" fill="url(#k)"/><path d="m30.8798 297.503c3.5785-3.222 5.9399-6.374 5.2744-7.039-.6655-.666-4.106 1.407-7.6845 4.63-3.5785 3.222-5.9399 6.374-5.2744 7.039s4.106-1.408 7.6845-4.63z" fill="#6b3143"/><path d="m30.0399 303.014-.939.646c-.2269.142-.4162.333-.5541.557s-.2209.476-.243.737l-.1431 1.184-1.6492 1.448c-.3448.324-.5448.765-.5594 1.233l.0252 1.13s9.1862 4.767 14.0815 3.99c4.8953-.776 1.8021-8.869 1.8021-8.869-.0447-.08-.1109-.146-.1916-.193s-.1726-.072-.2659-.072l-1.4583-.115-.6417-1.465c-.0591-.136-.1517-.256-.2697-.351s-.2579-.162-.4073-.194l-4.3084-.92z" fill="#ef6270"/><path d="m30.3157 305.524c-1.3098-.254-1.2204-.224-.8564-.795.2079-.354.5153-.644.8882-.837z" fill="#bd3c53"/><path d="m32.2194 293.994c-.1585-.164-1.4556.717-2.8889 1.993-1.4333 1.275-2.4629 2.436-2.3044 2.599 1.777 2.567 2.9717 5 3.3554 6.906l7.105 1.416c-.4626-6.036-3.4598-10.195-5.2671-12.914z" fill="#ffb685"/><path d="m35.0362 299.362c-.0623-.216-.2361-.361-.3883-.324-.1522.038-.2251.243-.1629.459s.236.36.3882.323c.1523-.037.2252-.243.163-.458z" fill="#543247"/><path d="m32.6949 300.627c.1099-.152.0254-.389-.1887-.53-.2142-.142-.4769-.134-.5869.018-.1099.151-.0255.389.1887.53.2142.142.4769.133.5869-.018z" fill="#543247"/><path d="m34.1615 302.701c.5948-.274 1.1399-.549 1.3986-.477.2586.072.1515.526-.1242 1.034-.2758.509-.1974.282-.8539.107-.6566-.174-.8765-.455-.4205-.664z" fill="#c74153"/><path d="m34.409 302.613-.4551.304c.0208.181.2896.367.6275.45.3378.083.7251.119.853-.107l.1179-.244c-.1693-.137-.6374-.469-1.1433-.403z" fill="#a82c3c"/><path d="m35.3188 302.222c-.4002.128-.7869.29-1.1555.485-.2589.12-.2383.254-.1179.391l1.3746-.587c.0796-.036-.0209-.182-.1012-.289z" fill="#fff"/><path d="m37.0466 300.473c.0099-.029-.0102-.068-.0004-.096-.0262-.194-.1145-.377-.2526-.524-.1382-.146-.3194-.249-.5186-.294.0488.042.0872.093.1123.151.0252.058.0364.12.0328.181-.0035.062-.0217.122-.0533.175-.0315.053-.0755.099-.1286.133-.1908.103-.4057.161-.6269.169-.2878.027-.5641.115-.8097.257-.2455.142-.4541.335-.6113.565-1.0166-.058-1.3624.556-2.0782.886-.193.095-.4013.158-.6169.189-.7069.11-.8279-.17-.8496-.543-.7743.597-.272 1.467.3369 1.689.3595.17.8375.093 1.3339-.279 1.247.311 1.6847.157 2.3868-.957 1.1872.291 1.9423-.152 1.9871-1.203.0989-.047.1833-.117.2455-.205.0623-.087.1004-.188.1108-.294z" fill="#6b3143"/><path d="m34.7015 302.173c1.1879.291 1.9436-.153 1.9884-1.205.0989-.047.1834-.118.2457-.205.0622-.087.1004-.189.1109-.295.0098-.029-.0103-.067-.0005-.096-.0216-.1-.0555-.197-.1011-.289.016.159-.0299.316-.1288.441-.0989.126-.2437.21-.4064.237-.3453.759-1.0625.898-1.8909.729 0 0-.9114 1.235-2.199.942-.894.7-1.8616.594-2.0743-.099-.0156.229.0477.458.1801.653.1325.194.3267.343.5529.424.3597.17.8379.093 1.3347-.28 1.2478.312 1.6858.158 2.3883-.957z" fill="#5e2737"/></g><g clip-path="url(#x)"><rect fill="#ffa78b" height="9.93093" rx="4" width="25.1084" x="50.3342" y="288.1"/><rect fill="#72767d" height="5.95856" rx="2.97928" width="25.1084" x="77.5352" y="292.072"/></g><path d="m50.3342 304.017c0-2.209 1.7909-4 4-4h183.9998c2.209 0 4 1.791 4 4v12c0 2.209-1.791 4-4 4h-183.9998c-2.2091 0-4-1.791-4-4z" fill="#dcddde"/></g></g><path d="m51.5292 18.1321c2.7616 0 5.0003-2.2454 5.0003-5.0153 0-2.7698-2.2387-5.01522-5.0003-5.01522-2.7617 0-5.0004 2.24542-5.0004 5.01522 0 2.7699 2.2387 5.0153 5.0004 5.0153z" fill="#1b1b26"/><path d="m65.3763 10.6735c0-1.20738-.9758-2.18615-2.1796-2.18615s-2.1796.97877-2.1796 2.18615v4.7838c0 1.2073.9758 2.1861 2.1796 2.1861s2.1796-.9788 2.1796-2.1861z" fill="#000"/><path d="m187.051 95.8043h.769c.578 0 1.133.2304 1.542.6403.408.41.638.9661.638 1.5459v21.9895c0 .58-.23 1.136-.638 1.546-.409.41-.964.641-1.542.641h-.769z" fill="#de3c3c"/><path d="m187.051 148.657c.782 0 1.532.312 2.085.867.553.554.864 1.307.864 2.091v44.366c0 .784-.311 1.537-.864 2.091-.553.555-1.303.867-2.085.867z" fill="#11111a"/></g><path d="m248.227 49.9662h-136.58c-13.0123 0-23.5608 10.5638-23.5608 23.5949v335.5879c0 13.031 10.5485 23.595 23.5608 23.595h136.58c13.012 0 23.561-10.564 23.561-23.595v-335.5879c0-13.0311-10.549-23.5949-23.561-23.5949z" fill="#161621"/><path d="m248.595 50.4578c2.975 0 5.921.5889 8.669 1.7329 2.747 1.144 5.242 2.8206 7.34 4.9333 2.098 2.1128 3.759 4.62 4.887 7.3776 1.127 2.7575 1.699 5.7111 1.683 8.6909v336.4725c0 2.97-.584 5.91-1.719 8.653-1.135 2.744-2.798 5.237-4.894 7.336-2.097 2.1-4.586 3.765-7.326 4.902-2.739 1.136-5.675 1.721-8.64 1.721h-137.439c-6 0-11.7554-2.378-16.0093-6.615s-6.66-9.988-6.6924-15.997v-336.4725c0-6.0297 2.3918-11.8123 6.6492-16.0759 4.2574-4.2635 10.0315-6.6588 16.0525-6.6588zm0-2.4578h-137.439c-6.672 0-13.0702 2.6542-17.7879 7.3787s-7.3681 11.1323-7.3681 17.8138v336.4725c0 3.303.6515 6.573 1.9172 9.622 1.2657 3.05 3.1207 5.819 5.4583 8.149 2.3375 2.329 5.1117 4.173 8.1635 5.426 3.051 1.253 6.319 1.889 9.617 1.873h137.439c6.639 0 13.006-2.641 17.701-7.343 4.695-4.701 7.332-11.078 7.332-17.727v-336.4725c.016-3.3026-.619-6.5757-1.87-9.6315s-3.092-5.8339-5.418-8.1749c-2.327-2.341-5.092-4.1986-8.137-5.4661s-6.31-1.92-9.608-1.92z" fill="#989aad"/><g mask="url(#J)"><path d="m265.039 74.5442v333.7698c0 4.334-1.72 8.492-4.781 11.557-3.06 3.065-7.212 4.787-11.54 4.787h-137.684c-4.34 0-8.504-1.718-11.5843-4.78-3.0803-3.061-4.827-7.218-4.8594-11.564v-333.7698c0-4.3673 1.7325-8.5559 4.8162-11.6441 3.0835-3.0882 7.2665-4.8231 11.6275-4.8231h23.193c.966.0307 1.885.429 2.569 1.1139.684.6848 1.081 1.6048 1.112 2.5728v1.7204c-.016.8495.137 1.6937.45 2.4833.313.7895.781 1.5085 1.375 2.115s1.303 1.0882 2.085 1.417c.783.3288 1.623.4981 2.471.4979h71.051c1.725 0 3.379-.6862 4.599-1.9076 1.22-1.2215 1.905-2.8782 1.905-4.6056v-1.7204c.03-.968.428-1.888 1.112-2.5728.684-.6849 1.603-1.0832 2.569-1.1139h23.193c2.154-.0001 4.286.4267 6.274 1.2558 1.988.829 3.793 2.0439 5.31 3.5747s2.717 3.3471 3.53 5.3443 1.223 4.1358 1.207 6.2924z" fill="#292841"/><g clip-path="url(#y)"><rect fill="#292841" height="307.922" rx="8" width="171.724" x="94.1619" y="57.8767"/><path clip-rule="evenodd" d="m111.751 93.3168c-.311 0-.547-.281-.492-.5873l.307-1.7366h-1.725c-.311 0-.546-.2802-.493-.5861l.028-.162c.042-.2393.25-.4139.493-.4139h1.9l.615-3.4859h-1.725c-.311 0-.546-.2802-.493-.5861l.028-.162c.042-.2393.25-.4139.493-.4139h1.9l.339-1.9112c.042-.2387.25-.4127.492-.4127h.145c.311 0 .547.281.493.5872l-.308 1.7367h3.481l.338-1.9112c.043-.2387.25-.4127.493-.4127h.144c.311 0 .547.281.493.5872l-.308 1.7367h1.726c.31 0 .546.2802.492.5861l-.028.1619c-.042.2394-.25.414-.493.414h-1.9l-.615 3.4859h1.726c.31 0 .546.2801.492.5861l-.028.1619c-.042.2393-.25.414-.493.414h-1.9l-.339 1.9112c-.042.2387-.25.4127-.492.4127h-.145c-.311 0-.547-.281-.492-.5873l.308-1.7366h-3.481l-.339 1.9112c-.042.2387-.25.4127-.492.4127zm1.794-6.9718-.615 3.4859h3.481l.615-3.4859z" fill="#b9bbbe" fill-rule="evenodd"/><g fill="#fff"><path d="m128.484 89.4242c0-1.2317.522-1.8243 1.253-1.8243.475 0 .742.0813 1.09.244v2.4053c-.371.4764-.765.7785-1.276.7785-.615 0-1.067-.5112-1.067-1.6035zm-1.404.0813c0 1.8941.939 2.7655 2.111 2.7655.778 0 1.323-.4183 1.718-.8947l.116.7785h1.195v-8.3894l-1.393.2208v2.7074c-.336-.1162-.765-.2092-1.299-.2092-1.3 0-2.448.9296-2.448 3.0211z"/><path d="m137.012 87.8091-.221-1.3828c-.87.0465-1.427.5926-1.798 1.2433l-.174-1.1271h-1.184v5.6123h1.393v-3.2186c.406-.6042 1.114-1.069 1.984-1.1271z"/><path d="m140.755 90.6094c-.383.3718-.835.6042-1.311.6042-.429 0-.685-.244-.685-.6507 0-.5345.383-1.0109 1.996-1.2084zm1.392 1.5454v-3.8461c0-1.3479-.719-1.8824-2.169-1.8824-.894 0-1.578.1976-2.228.4532l.174 1.1155c.603-.2673 1.218-.4532 1.868-.4532.615 0 .963.2324.963.8366v.1627c-2.262.2208-3.376.8134-3.376 2.1729 0 .976.638 1.557 1.589 1.557.836 0 1.416-.3718 1.868-.8482l.116.732z"/><path d="m150.898 86.5425h-1.335l-.963 3.7067-1.009-3.7067h-1.23l-1.009 3.7183-.987-3.7996-1.415.1859 1.671 5.5193h1.276l1.009-3.7066 1.033 3.7066h1.276z"/><path d="m153.4 84.8112c0-.4764-.371-.8134-.824-.8134-.464 0-.835.337-.835.8134 0 .4648.371.7901.835.7901.453 0 .824-.3253.824-.7901zm-.139 7.3436v-5.6123h-1.393v5.6123z"/><path d="m159.514 92.1548v-4.0436c0-1.0458-.557-1.6849-1.601-1.6849-.754 0-1.346.4067-1.868.9064l-.128-.7902h-1.183v5.6123h1.392v-3.788c.406-.4299.847-.7088 1.276-.7088.511 0 .72.337.72.825v3.6718z"/><path d="m163.949 88.3668c0 .6159-.371 1.069-.986 1.069-.603 0-.975-.4415-.975-1.0225 0-.6159.36-1.0923.975-1.0923.592 0 .986.4532.986 1.0458zm1.984 4.0204c0-.8598-.719-1.22-1.868-1.3827l-.719-.0697c-.87-.1279-1.044-.1743-1.044-.3602 0-.093.092-.1976.232-.3022.139.0233.29.0349.452.0349 1.207 0 2.239-.7204 2.239-1.9289 0-.2556-.046-.5112-.15-.732l1.021-.0697-.186-1.1155-1.369.488c-.406-.337-.94-.5229-1.59-.5229-1.253 0-2.251.7553-2.251 1.987 0 .7436.395 1.3246 1.056 1.6384-.464.2788-.708.581-.708.8947 0 .2208.105.4299.325.6042-.696.3951-1.056.8018-1.056 1.3247 0 .9295 1.149 1.3943 2.669 1.3943 1.625 0 2.947-.6739 2.947-1.8824zm-2.854 1.0574c-1.056 0-1.555-.3021-1.555-.7204 0-.2905.186-.5578.592-.8482.278.0581.452.0929.835.1394l.754.093c.697.1045.94.2788.94.5809 0 .4183-.568.7553-1.566.7553z"/><path d="m169.735 89.4823v-1.3479h-3.017v1.3479z"/><path d="m175.206 91.7249-.186-1.1968c-.51.395-.986.5345-1.473.5345-.813 0-1.451-.5578-1.451-1.7197 0-1.1155.58-1.7081 1.404-1.7081.557 0 .998.1859 1.451.5229l.197-1.255c-.406-.2556-.986-.4764-1.717-.4764-1.52 0-2.739.9993-2.739 2.9514 0 1.8359 1.103 2.8817 2.657 2.8817.743 0 1.323-.1743 1.857-.5345z"/><path d="m177.77 92.1548v-8.3894l-1.393.2208v8.1686z"/><path d="m179.22 86.5425v4.0321c0 1.0573.545 1.6964 1.601 1.6964.742 0 1.346-.4067 1.868-.9063l.127.7901h1.184v-5.6123h-1.392v3.788c-.407.4183-.847.6972-1.277.6972-.51 0-.719-.3253-.719-.8134v-3.6718z"/><path d="m190.512 89.1918c0-1.8824-.928-2.7655-2.112-2.7655-.708 0-1.23.3719-1.59.7437v-3.4046l-1.392.2208v7.8665c.696.2324 1.427.3718 2.298.3718 1.67 0 2.796-.9644 2.796-3.0327zm-1.404.0813c0 1.2782-.534 1.8127-1.416 1.8127-.394 0-.591-.0465-.882-.151v-2.5448c.349-.4183.766-.732 1.23-.732.627 0 1.068.5345 1.068 1.6151z"/></g><g clip-path="url(#z)"><path d="m180.024 104.936h85.861v80.757h-85.861z" fill="#5e87f9"/><path d="m280.598 152.116c-10.516-2.876-22.956.924-26.725 9.422-11.307-3.616-24.38 3.087-30.547 10.978h57.272z" fill="#6e94ff"/><path d="m167.265 139.924c6.879-1.161 14.997.369 17.475 3.8 7.379-1.451 15.919 1.267 19.951 4.434h-37.426z" fill="#7a9dff"/><path d="m194.228 176.343c2.109-4.513 2.056-4.698 5.799-6.044l-4.982 7.152z" fill="#ff707e"/><path d="m252.054 136.546-.237.211-.501.475-.184.158-.396.343c-8.803 7.574-20.083 10.768-27.727 13.064-9.857 2.955-18.054 3.826-24.195 3.853-7.986-.08-9.593-4.249-6.22-9.211l1.898-2.348 9.752-11.876.474-.581c6.431-7.627 12.203-11.057 24.353-8.418l18.476 4.011h.053c6.457 1.425 9.488 5.357 4.454 10.319z" fill="url(#l)"/><path d="m230.784 123.694c7.38 1.82 20.031 5.515 20.031 5.515l3.058.422c-1.081-1.557-3.321-2.744-6.273-3.404h-.053l-18.476-4.011c-5.746-1.241-10.042-1.109-13.679.132 5.614-1.346 8.882-.264 15.392 1.346z" fill="#fffdc4"/><path d="m223.563 151.773c6.483-1.953 20.347-7.468 25.724-12.852-1.265 1.267-.027-1.003-2.452.185-12.756 6.228-41.722 14.646-48.021 15.544 6.167.369 18.133-.898 24.749-2.877z" fill="#fffdc4"/><path d="m253.53 129.209c-5.693-1.715-18.529-.158-32.761 4.302-14.839 4.645-26.62 11.058-29.783 15.781-.369 3.088 2.056 5.305 7.828 5.358s14.338-.898 24.195-3.853c7.643-2.296 18.924-5.49 27.727-13.064l.395-.343.185-.158.501-.475.237-.211c2.925-2.903 3.11-5.437 1.476-7.337z" fill="url(#m)"/><path d="m198.688 150.792c-.832-2.657 9.698-8.326 23.519-12.663 13.821-4.336 25.699-5.698 26.53-3.042s-9.698 8.326-23.519 12.662c-13.821 4.337-25.699 5.699-26.53 3.043z" fill="#6b3143"/><path d="m248.628 136.044c.156-.3.202-.645.131-.976-.059-.149-.149-.284-.263-.396l-14.259 6.123 10.701-7.047c-.466-.026-.932-.026-1.397 0l-9.91 6.625c-.586-.082-1.18-.082-1.766 0l5.429-5.965-2.056.37-4.164 5.7c-.843.106-1.818.29-2.899.528l3.11-5.384-1.845.449-2.056 5.12-1.95.527 1.423-4.961c-.738.176-1.476.387-2.214.633l-.685 4.698h.158l-.527.185-1.502-4.117-1.661.554 2.609 3.721-1.317.449-3.743-3.352-1.977.713 4.613 3.034-1.371.528-5.719-2.612-2.425.976 7.09 2.059-1.661.765-10.041-.686c-.844.422-1.661.844-2.399 1.266h11.333l-.79.502-13.785 1.61c-.593.426-1.133.922-1.607 1.478l14.733-2.481c-.046.049-.079.108-.097.172-.019.064-.021.132-.009.197.023.058.058.109.104.15.046.042.101.072.16.088l-15.26 3.8c.237.317.711.581 1.396.765l15.314-4.433c.823-.046 1.642-.151 2.451-.317l-12.177 4.882c.58-.026 1.212-.105 1.871-.184l11.887-5.015.422-.079-7.644 4.328c1.16-.237 2.373-.475 3.638-.791l5.508-3.906 2.978-.871c1.265-.396 2.452-.818 3.532-1.214l4.692.871c1.581-.581 3.057-1.188 4.427-1.795l-7.168.132h.026l10.991-1.9c1.238-.633 2.372-1.24 3.347-1.821l-12.151 2.692.791-.449z" fill="#7a384c"/><path d="m184.925 185.553h63.887c-1.133-1.161-2.503-1.874-4.691-2.877l-4.929-.686-1.818-.237-3.954-.554-3.004-.396-1.793-.238-.764-.105-7.406-1.003-1.713-.238-2.794-.369-1.107-.159-2.161-.29-.527-.079-4.797-.66-11.386-1.53-.58-.08c-.342-.026-.686-.026-1.028 0-5.403.132-7.274 2.534-9.435 9.501z" fill="#2347a1"/><path d="m194.518 183.02 2.003 2.533h11.676l-6.484-6.545-2.846 1.584z" fill="#2a52c2"/><path d="m195.388 176.053.316.448c.106.106.185.264.316.423l.343.448c.606.792 1.45 1.9 2.504 3.22l2.477 3.008.817.95c.29.317.554.66.844 1.003h40.668c.316-1.768.448-2.876.448-2.876.004-.276-.068-.547-.207-.784-.14-.237-.342-.432-.584-.562l-3.69-2.138h-.026v-.264c0-.105.026-.185.026-.264s.053-.844.053-1.161v-.343c.019-.158.028-.316.026-.475.014-.034.023-.069.027-.106l.132-2.216c.025-.44-.058-.88-.242-1.28s-.463-.749-.813-1.016l-4.876-3.853-.421-.343-1.371-1.056-3.4-2.665-1.924-.264h-.026l-2.557-.396h-.026l-3.479-.502-1.002-.158-2.583-.396-1.238-.185h-.211l-.686.106-.896.132-1.818.29c-.794.127-1.552.421-2.224.862-.673.441-1.244 1.02-1.677 1.698l-2.003 3.088-.158.053-1.239.369-4.138 1.24-.843.238-.554.211h-.053c-1.108.49-2.005 1.361-2.53 2.454z" fill="#ef6270"/><path d="m205.008 168.822c.975-2.455 1.502-5.358 7.669-6.598l4.56-.686-.369 3.721-8.618 5.7z" fill="#ff707e"/><path d="m195.388 176.052.316.449c.106.106.185.264.317.422l.342.449c.606.792 1.45 1.9 2.504 3.22l2.478 3.008.817.95.869 1.003h19.056c-.448-1.583-1.107-3.959-1.423-5.305-.052-.268-.122-.533-.211-.791-.448-1.663-.817-2.692 1.95-3.114l-.29-1.452-1.265-6.413-.316-1.715-.264-1.24-.421-2.112-.106-.554-2.583-.396-1.238-.184h-.211l-.685.105-.897.132-1.818.29c-.794.127-1.552.421-2.224.862-.673.441-1.244 1.02-1.677 1.698l-2.003 3.088-.158.053-1.239.369-4.138 1.24-.843.238-.554.211h-.052c-1.109.49-2.006 1.361-2.531 2.454z" fill="#e05164"/><path d="m212.941 169.191c-3.11-2.349-2.899-2.164-1.16-3.299 1.047-.684 2.257-1.076 3.506-1.135z" fill="#bd3c53"/><path d="m212.15 178.322 5.087 7.231h3.822c-2.083-2.27-4.27-4.671-6.221-6.862-2.767-3.166-5.06-5.937-5.93-7.283l.264 1.715.184 1.214z" fill="#e05164"/><path d="m205.614 182.782c1.053.987 2.162 1.912 3.321 2.771h4.771c-2.241-.95-5.193-2.322-7.117-3.536-2.899-1.821-2.53-.686-.975.765z" fill="#e05164"/><path d="m234.87 169.93c3.453 3.008 5.166 2.19-2.978 13.38l-1.951-1.293-5.693-6.387 7.222-9.105z" fill="#c74153"/><path d="m233.815 139.924c-.21-.686-4.875.105-10.463 1.768s-9.91 3.563-9.726 4.249c1.16 9.289.976 17.523-.685 23.25l17 12.826c7.116-17.154 4.955-32.355 3.874-42.093z" fill="#ffb685"/><path d="m226.33 163.517-6.589-.106-.712 3.854c2.583 2.586 6.352 1.557 8.276-.159 2.53 2.217 5.008 2.191 6.747.238l.053-.053c.158-1.056.316-2.111.422-3.167-2.688-.792-8.197-.607-8.197-.607z" fill="#fe9b77"/><path d="m219.741 173.862c1.634-11.163 1.265-24.596 1.054-31.352-4.269 1.425-7.327 2.85-7.169 3.431 1.16 9.289.976 17.523-.685 23.25z" fill="#fe9b77"/><path d="m233.815 139.924c-.21-.686-4.876.105-10.463 1.768-5.588 1.663-9.91 3.563-9.726 4.249.158 1.187.29 2.349.396 3.51 6.062-.739 14.469.211 20.848 2.164-.211-4.434-.686-8.392-1.055-11.691z" fill="#a8387e" opacity=".4"/><path d="m227.595 125.831 3.163.607-.922 1.478z" fill="#ffcd8f"/><path d="m222.184 158.448c-.377-.675-.291-1.44.192-1.711.483-.27 1.18.058 1.556.732s.29 1.44-.193 1.71-1.179-.057-1.555-.731z" fill="#543247"/><path d="m219.03 122.717s1.634-.132 2.345.422c-.817.95-2.345-.422-2.345-.422z" fill="#ffd08f"/><path d="m224.248 122.691c3.479-.818 3.769 1.003 3.769 1.003z" fill="#fffdc4"/><path d="m198.656 144.225c.184 1.267 3.004 2.085 3.004 2.085l-1.159.898c-2.926-.08-3.69-1.557-3.69-1.557.539-.566 1.161-1.047 1.845-1.426z" fill="#d4655b"/><path d="m191.171 149.715c.474 1.398 6.51.554 6.51.554l.184.712c-4.454.792-6.378.396-6.378.396s-.264-.422-.316-1.662z" fill="#d4655b"/><path d="m213.389 136.757c.343 1.636 2.346 2.744 2.346 2.744l3.268-1.002c-.923-1.32-1.318-3.141-1.318-3.141s-2.24.607-4.296 1.399z" fill="#dc7363"/><path d="m234.975 185.5.079.053h3.321c.264-1.029.554-2.322.817-3.563.264-1.24.395-2.137.448-2.824v-.263c0-.106.027-.185.027-.264 0-.08.052-.845.052-1.162v-.343c.02-.157.028-.316.027-.475.013-.034.022-.069.026-.105-.646 1.804-1.458 3.544-2.425 5.199-.87 1.504-1.739 2.824-2.372 3.747z" fill="#d14658"/><path d="m200.87 170.062c2.014 2.655 4.179 5.193 6.484 7.6 2.741 2.93 5.64 5.78 7.933 7.891h2.688c-1.449-1.874-3.347-4.407-5.297-7.152-1.186-1.715-2.399-3.51-3.506-5.278-.553-.871-1.08-1.742-1.581-2.586-.422-.713-.817-1.399-1.186-2.085h-.158l-1.239.369z" fill="#cc4355"/><path d="m209.699 168.426 8.408 8.128 1.634 7.099-9.225-11.691z" fill="#e65568"/><path d="m230.442 180.724-17.316-12.14-.317-.238c-.5-.448-.896-.448.132.845l17 12.826z" fill="#bd3c53"/><path d="m187.929 131.584 2.188-.976c.026 0 .026-.079 0-.079l-2.188-.977h-.026l-.975-2.19c0-.027-.079-.027-.079 0l-.976 2.19h-.026l-2.188.977c-.026 0-.026.079 0 .079l2.188.976h.026l.976 2.191h.079l.975-2.191z" fill="#ff99b9"/><path d="m263.018 165.786 2.188-.976c.014 0 .027-.006.037-.016.01-.009.016-.023.016-.037s-.006-.027-.016-.037-.023-.016-.037-.016l-2.188-.976h-.026l-.975-2.164c0-.053-.053-.053-.079 0l-.975 2.164h-.027l-2.187.976c-.013.015-.02.034-.02.053 0 .02.007.038.02.053l2.187.976h.027l.975 2.164c.026.053.079.053.079 0l.975-2.164z" fill="#5580f9"/><path d="m198.867 137.786c3.505-3.193 6.431-4.513 6.431-4.513-3.268.66-5.614 1.742-6.431 4.513z" fill="#eb9363"/><path d="m234.448 123.694 5.561 1.214c-.659-1.267-1.397-1.505-5.561-1.214z" fill="#fffdc4"/><path d="m224.38 166.605c2.293 0 4.48-.053 5.166.527.685.581-.396 1.927-2.083 3.194-.738.554-1.08.607-2.846-.95-1.292-1.109-2.003-2.798-.237-2.771z" fill="#c74153"/><path d="m225.329 166.71-1.924.317c-.264.554.316 1.583 1.212 2.349 1.766 1.557 2.109 1.504 2.847.95l.764-.634c-.29-.686-1.212-2.428-2.899-2.982z" fill="#a82c3c"/><path d="m228.755 166.816c-1.001-.238-2.662-.211-4.375-.211-.975-.027-1.186.501-.975 1.134l5.218.106c.29 0 .238-.581.132-1.029z" fill="#fff"/><path d="m236.372 163.57c.527-.924.237-2.402-.896-3.167.065.173.091.358.077.542-.015.184-.069.363-.159.523-.091.161-.215.3-.365.408-.149.108-.321.182-.502.216-.632.105-1.792-.132-2.293-.317-1.397-.528-2.978-.554-4.876.422-2.583-1.398-4.322-.184-6.668-.184-.642.006-1.282-.083-1.898-.264-1.976-.581-1.95-1.531-1.502-2.534-2.82.66-2.688 3.669-1.45 4.988.738.924 2.109 1.346 3.927.897 2.847 2.428 4.244 2.587 7.591.449 2.715 2.27 5.324 2.032 6.879-.818 0 0 1.582-.132 2.135-1.161z" fill="#6b3143"/><path d="m227.358 165.549c2.715 2.27 5.324 2.032 6.879-.818 0 0 2.451-.211 2.399-2.085-.317.739-1.608 1.452-2.821 1.188-1.95 1.583-4.032 1.108-5.982-.396 0 0-4.138 2.217-7.064-.211-3.347.818-5.719-.713-5.324-2.824-.791 1.187-.448 2.903.395 3.8.738.924 2.109 1.346 3.928.897 2.846 2.428 4.243 2.587 7.59.449z" fill="#5e2737"/><path d="m230.002 159.171c-.482-.206-.641-.916-.356-1.586.286-.671.908-1.047 1.39-.841.482.205.641.916.356 1.586-.286.67-.908 1.047-1.39.841z" fill="#543247"/></g><g clip-path="url(#A)"><path d="m0 0h85.8619v80.7569h-85.8619z" fill="#f7e5bc" transform="matrix(-1 0 0 1 180.024 104.936)"/><path d="m197.403 124.69h-103.2057v60.871h103.2057z" fill="#f7e5bc"/><path d="m197.404 180.501v-21.8c-4.608-1.707-15.481 1.178-20.497 8.124-5.904-6.009-17.281-6.394-27.746 0-2.808-7.043-13.32-12.162-27.049-7.187-1.032-8.316-16.249-15.575-27.9138-5.84v31.775h98.1418c1.341-.006 2.625-.543 3.574-1.492.948-.95 1.484-2.236 1.49-3.58z" fill="#6adbc6"/><path d="m157.586 165.263c11.376.072 21.097 5.504 25.777 20.334h-34.202z" fill="#44c9c5"/><path d="m169.322 185.573h28.082v-13.076c-6.817.698-19.177 3.317-28.082 13.076z" fill="#44c9c5"/><path d="m176.379 179.396h-61.3c-3.864 3.677-4.056 6.177-4.056 6.177h69.94s-1.896-4.086-4.584-6.177z" fill="#fafafa"/><path d="m177.819 182.088c.202-.169.338-.405.382-.665s-.007-.527-.142-.753c-.888-1.467-1.176-2.62-3.192-3.678-2.016-1.057-3.336-2.331-9.481-3.124-1.248-3.221-.984-4.207-10.272-4.928h-25.682c-4.224.673-4.512.673-5.256 3.173s-.72 2.187-2.928 3.076c-2.208.89-5.641 1.058-6.961 3.99-.432.962-.6 1.659 1.92 6.394h56.596c1.772-1.01 3.45-2.177 5.016-3.485z" fill="#cc4f79"/><path d="m157.585 169.974c4.441.769 4.273.769 1.273 4.302-3.001 3.533-6.817 6.802-11.113 8.557-6.72 2.74-12.481.168-15.985-3.918-5.088-5.937-7.272-8.941-2.976-8.941z" fill="#590942"/><path d="m170.858 136.54-1.992-.89c-.012 0-.025-.005-.034-.014s-.014-.021-.014-.034.005-.025.014-.034.022-.014.034-.014l1.992-.889c.007 0 .013-.003.017-.007.005-.005.007-.011.007-.017l.889-1.995c0-.024.048-.024.072 0l.888 1.995c0 .024 0 .024.024.024l1.992.889c.012.013.018.03.018.048s-.006.035-.018.048l-1.992.89h-.024l-.888 1.995c-.024.048-.072.048-.072 0l-.889-1.995z" fill="#fafafa"/><path d="m114.935 139.352-1.296-.577c-.024 0-.024-.048 0-.048l1.296-.577c0-.006.003-.012.007-.017.005-.004.011-.007.017-.007l.576-1.298c0-.024.048-.024.048 0l.576 1.298h.024l1.297.601c.024 0 .024.048 0 .048l-1.297.577c0 .006-.002.012-.007.017-.004.004-.01.007-.017.007l-.576 1.298h-.048l-.576-1.298c-.024 0-.024 0-.024-.024z" fill="#f7d78d"/><path d="m132.336 150.456c-1.728-4.807-4.752-8.316-6.192-8.965s-1.08.168.264 4.23 1.368 10.72 3.864 10.769c2.496.048 2.064-6.034 2.064-6.034z" fill="#2e64e8"/><path d="m129.168 151.73c-1.032-2.067-1.104-3.076-1.512-4.639-.216-.841-.528-2.019-.792-2.956 1.248 2.235 3.432 7.211 3.888 8.797s-.552.841-1.584-1.202z" fill="#1c4bba"/><path d="m155.113 150.769c2.448-5.12 6.361-8.749 8.161-9.35s1.32.24-.6 4.567c-1.92 4.326-2.4 11.609-5.449 11.489-3.048-.12-2.112-6.706-2.112-6.706z" fill="#2e64e8"/><path d="m145.993 137.044c2.797 0 5.065-2.27 5.065-5.071s-2.268-5.072-5.065-5.072-5.064 2.271-5.064 5.072 2.267 5.071 5.064 5.071z" fill="#201e2f"/><path d="m150.82 133.298c.171-1.303-1.938-2.655-4.711-3.021-2.773-.365-5.16.394-5.331 1.697s1.938 2.656 4.711 3.022c2.773.365 5.16-.395 5.331-1.698z" fill="#41314a"/><path d="m154.465 136.035c-5.232-4.903-13.824-5.528-19.729-1.274-5.904 4.254-4.68 10.888-3.72 18.171l24.986.721c1.032-3.966 3.672-12.691-1.537-17.618z" fill="#4d7ae8"/><path d="m156.578 151.49-25.25-.745c-4.632 10.191-9.24 29.156 11.569 29.757 19.849.576 18.313-17.523 13.681-29.012z" fill="#4d7ae8"/><path d="m156.577 151.49c1.081-4.447 2.281-11.297-2.112-15.455l-.48-.409h-1.32s.552 8.581.096 11.994-.288 3.774.744 4.231c1.032.456 1.992 1.009 1.8 5.384-.192 4.374-.456 4.951.504 10.143.961 5.192-.336 8.509-3.048 11.249 9.193-4.88 7.465-18.051 3.816-27.137z" fill="#2e64e8"/><path d="m137.064 171.127c2.737 3.678 10.129 4.615 13.129.145 1.512-2.236-2.472-2.356-6.504-2.332s-8.089.192-6.625 2.187z" fill="#3366e0"/><path d="m147.497 152.046c.064-2.163-1.549-3.966-3.602-4.027-2.054-.061-3.771 1.643-3.835 3.806s1.549 3.965 3.602 4.026c2.054.061 3.771-1.642 3.835-3.805z" fill="#dbe7ff"/><path d="m145.149 152.536c.039-.835-.573-1.543-1.367-1.58-.795-.038-1.471.609-1.51 1.444-.039.836.573 1.543 1.367 1.581.795.037 1.471-.61 1.51-1.445z" fill="#201e2f"/><path d="m139.729 145.121c1.56-3.269 7.32-2.933 8.64.264z" fill="#201e2f"/><path d="m138.289 158.797.696.24.696.169.696.168.696.096c1.891.227 3.809-.004 5.592-.673l.672-.265.648-.312.648-.336.648-.385h.072c.206-.114.433-.185.667-.211.234-.025.47-.003.696.064.225.067.435.178.618.327.182.149.333.333.443.541.147.275.219.584.211.896-.009.311-.098.616-.259.883-.77 1.249-1.843 2.282-3.12 3.004-1.275.733-2.685 1.199-4.145 1.373-1.46.173-2.94.05-4.351-.363-1.404-.426-2.677-1.204-3.697-2.26-.33-.344-.511-.806-.502-1.284.009-.477.207-.932.55-1.263.23-.21.509-.358.812-.43.302-.071.618-.064.917.021z" fill="#400015"/><path d="m137.521 162.691c.791.565 1.666 1.002 2.592 1.298 1.411.413 2.891.536 4.351.363s2.87-.64 4.145-1.373c.908-.523 1.72-1.197 2.4-1.995-1.05-1.035-2.278-1.874-3.624-2.475h-.048l-.672.264c-1.783.669-3.701.9-5.592.673l-.696-.096h-.072c-1.18.876-2.135 2.021-2.784 3.341z" fill="#590942"/><path d="m150.481 159.734.072-2.427c-.406-.1-.836-.04-1.2.168h-.072l-.648.385-.648.336-.648.313-.672.264c-1.783.669-3.701.9-5.592.673l-.696-.096-.696-.168-.696-.169-.696-.24h-.096c-.235-.064-.48-.08-.72-.048l-.048 1.25c4.776 2.331 10.176 1.009 13.056-.241z" fill="#dbe7ff"/><path d="m139.201 159.085-.216-.048-.696-.24h-.096c-.235-.064-.48-.08-.72-.048l-.048 1.25c.491.231.996.432 1.512.601z" fill="#b5cdff"/><path d="m147.817 160.648c.913-.227 1.804-.533 2.664-.914l.072-2.427c-.406-.1-.836-.04-1.2.168h-.072l-.648.385-.648.336-.24.12z" fill="#b5cdff"/><path d="m149.665 155.312 3.696 1.85c.048-2.235-1.8-2.499-3.696-1.85z" fill="#3366e0"/><path d="m133.536 160.239 3.409-3.365c-2.593-.072-3.625 1.658-3.409 3.365z" fill="#3366e0"/><path d="m135.576 163.676c1.152 1.635 2.329 3.149 2.329 3.149-2.353-.192-2.329-3.149-2.329-3.149z" fill="#3366e0"/><path d="m154.465 136.035c-5.232-4.903-13.824-5.528-19.729-1.274-2.712 1.947-3.888 4.543-4.272 7.523 3.24 2.5 3.6-1.851 4.968-6.369 4.849 3.942 12.193 3.99 16.897.48l.192 3.822c.216 3.702 2.712 4.134 4.945 2.163-.288-2.331-1.128-4.591-3.001-6.345z" fill="#201e2f"/><path d="m138.221 141.938c.613-.625.85-1.388.528-1.705-.321-.316-1.079-.066-1.692.559s-.85 1.388-.528 1.704c.321.317 1.079.066 1.692-.558z" fill="#618aed"/><path d="m161.786 143.871c-1.302 1.875-2.466 3.843-3.48 5.888-.6 1.25.024 1.419.216 2.933s.672.793 1.296-1.779.96-3.485 1.584-4.879 1.68-4.038.384-2.163z" fill="#1c4bba"/><path d="m164.954 175.069c-1.176 3.149-4.296 10.504-4.296 10.504h-9.145c4.848-3.389 8.521-7.211 10.177-10.143 1.656-2.933 1.992-4.687 3.24-1.418.139.337.148.714.024 1.057z" fill="#ba3b66"/><path d="m163.25 185.573c4.392-5.216 5.832-6.994 7.008-7.667s3.145-1.707 1.032 1.514c-2.112 3.221-5.664 6.153-5.664 6.153z" fill="#ba3b66"/><path d="m132.936 185.573c-3.408-4.134-5.76-8.172-6.648-10.408-.888-2.235-1.152-2.788-1.368-1.538s-.696 1.827-.264 3.557c.432 1.731 1.848 6.418 2.736 8.389z" fill="#ba3b66"/><path d="m118.895 185.573h-1.344c-1.536-3.894-2.16-5.648-2.232-6.946s1.488 3.004 3.576 6.946z" fill="#ba3b66"/><path d="m124.488 185.597h-2.832c-.744-5.648-.744-6.754-.576-8.34.168-1.587.96-.217 1.536 2.619.436 1.964 1.063 3.88 1.872 5.721z" fill="#ba3b66"/><path d="m113.111 174.54c2.52-4.086 5.233-6.081 8.521-7.883 3.288-1.803 3.72-2.837 1.296-3.654s-4.512-.505-7.417.697c-2.904 1.202-4.968 1.899-5.856 5.312s.36 5.48 3.456 5.528z" fill="#542113"/><path d="m113.951 170.262c1.56-6.562 2.616-11.537 3.624-16.008 1.008-4.47 2.136-7.066.408-7.86-1.728-.793-2.664-.504-4.944 4.591-2.28 5.096-3.288 8.773-4.032 11.417s-3.24 9.831 4.944 7.86z" fill="#542113"/><path d="m110.687 159.975-1.512-.216c.816-8.702 1.248-12.403 1.44-14.903s-.84-2.548-2.424-2.62-2.16.577-2.856 3.846-1.536 8.941-1.848 11.177c-.312 2.235-.84 7.379-.792 9.013.048 1.635 7.992 2.38 7.992-6.297z" fill="#542113"/><path d="m103.343 162.162c.24-3.389-.264-12.427-.312-14.109-.048-1.683-.648-1.49-2.088-1.538-1.4406-.048-2.0406.601-2.2326 4.566-.192 3.966-.504 8.269-.456 10.264-1.0362 2.809-1.4299 5.815-1.1521 8.797.288 3.149.696 3.99 1.2721 4.975.576.986 4.0086 2.092 8.4006 2.524 4.392.433 4.8-.192 6.336-3.1 1.536-2.909-1.344-10.745-1.344-10.745z" fill="#542113"/><path d="m97.3901 172.401c-.648 1.515-1.9201 5.096-3.1682 8.653.1412 1.241.7325 2.387 1.6617 3.22s2.1315 1.295 3.3786 1.299h12.3128c-.024-.409-.36-6.177.792-9.686 0 0-13.5128-6.851-14.9769-3.486z" fill="#542113"/><g fill="#4a1a0d"><path d="m112.367 165.623c-2.832 1.803-3.624 2.668-4.32 3.918s-1.368 1.37-3.936 1.418-2.616.096-3.336-2.956c-.72-3.053.36-4.351 3.144-4.231 3.696.145 10.152.89 8.448 1.851z"/><path d="m99.4304 160.359h9.5046c-2.952-1.346-7.08-1.177-9.5046 0z"/><path d="m110.639 160.792c1.416.505 4.176 1.682 4.176 1.682-2.016-2.98-4.176-1.682-4.176-1.682z"/><path d="m112.175 154.398c1.464.289 4.392 1.01 4.392 1.01-2.472-2.62-4.392-1.01-4.392-1.01z"/><path d="m105.023 152.331c1.368.12 4.128.457 4.128.457-2.664-2.259-4.128-.457-4.128-.457z"/><path d="m99.2144 154.446c1.1276-.168 3.4566-.36 3.4566-.36-2.593-1.418-3.4566.36-3.4566.36z"/></g><path d="m124.224 163.676c-2.209 1.683-5.497 2.019-8.641 3.63-3.144 1.61-3.696 3.317-4.56 5.672-.549 1.558-1.006 3.147-1.368 4.759 1.824-.192 2.352-1.105 3.456-3.196 2.52-4.087 5.232-6.082 8.52-7.884 2.473-1.322 3.337-2.236 2.593-2.981z" fill="#732d1a"/><path d="m112.367 175.887.744-1.346c.144-.265.312-.481.456-.722-1.56 2.092-5.64 2.524-9.144 2.765-3.504.24-6.3845-.89-7.0326-4.183-.408.962-1.8721 4.687-3.1922 8.149v5.023h17.3768c-.024-.409-.36-6.177.792-9.686z" fill="#4a1a0d"/><path d="m118.008 146.394c.228.84.244 1.724.048 2.572-.457 2.187-1.489 6.442-3.673 15.191l1.08-.409c.816-3.557 1.488-6.634 2.112-9.494 1.009-4.422 2.137-7.042.433-7.86z" fill="#732d1a"/><path d="m110.615 144.856c-.192 2.476-.648 6.321-1.44 14.902l-.648-.144 1.056-17.21c.744.217 1.152.794 1.032 2.452z" fill="#732d1a"/></g><path d="m0 0h85.8619v80.7569h-85.8619z" fill="#f7e5bc" transform="matrix(-1 0 0 1 265.886 185.693)"/><g mask="url(#K)"><ellipse cx="222.955" cy="226.362" fill="#cfdeff" rx="25.5265" ry="25.5633"/><path d="m251.488 260.665c-.485-1.199-1.286-2.242-2.318-3.019-1.031-.777-2.255-1.258-3.539-1.393l-2.682-.283c-3.844-13.876-1.899-17.027-13.256-20.138l-9.194-.323s-9.341.158-12.778 4.764l4.802 15.769s-1.969 10.467-1.075 15.773l11.974-1.55 5.188 16.812c19.566-2.91 28.682-11.992 28.682-11.992z" fill="#cfdeff"/><path d="m209.912 236.75c13.034 12.222 24.814 20.573 22.834 1.288z" fill="#b8c5ff"/><path d="m216.31 238.19c11.349 5.339 14.295 7.353 13.553.936z" fill="#5697b0"/><path d="m240.805 247.168c-1.381-5.831-2.419-8.345-8.232-10.45 1.564 3.664 2.244 11.225 2.244 11.225z" fill="#fff"/><path d="m221.433 218.991-.415-3.225c-.14-1.051-.61-2.031-1.343-2.798-.732-.766-1.689-1.279-2.733-1.465-1.146-.2-2.326.01-3.333.594s-1.777 1.503-2.174 2.598c-1.462 3.972-3.746 10.361-5.32 15.734-2.508 8.562 8.829 10.541 19.97 9.687 11.14-.854 12.19-5.738 10.65-12.81-.988-4.411-2.239-8.914-3.02-11.712-.239-.782-.699-1.476-1.326-2-.626-.523-1.391-.852-2.202-.948-.908-.105-1.826.095-2.608.569-.783.474-1.386 1.195-1.714 2.05l-1.253 3.314z" fill="#7ce4cc"/><path d="m235.24 230.696-.791-.276-4.058 1.408-4.129.535-7.152-1.428s-3.933-6.089-3.648.682c.224 4.678 2.207 7.363 3.415 8.593 2.401.11 4.807.065 7.203-.134 1.808-.101 3.6-.403 5.341-.901 1.207-1.711 3.152-4.862 3.819-8.479z" fill="#aafae7"/><path d="m215.346 231.041c-.918-2.571-2.582-7.988-1.89-12.07.692-4.083 1.603-7.437 3.488-7.471-1.146-.2-2.326.011-3.333.594-1.008.584-1.778 1.504-2.175 2.599-1.462 3.972-3.746 10.362-5.321 15.735-2.248 7.646 6.582 10.034 16.467 9.847-2.145-.352-4.87-2.606-7.236-9.234z" fill="url(#n)" opacity=".74"/><path d="m222.582 240.277-.796.019-.754.013-1.182-.057-.372.048-.594-.049c-1.203-1.189-3.186-3.874-3.411-8.553-.017-.084-.013-.17.01-.253 2.322 6.298 5.001 8.515 7.099 8.832z" fill="#aafae7"/><path d="m234.266 229.983-.005.943c-4.342 2.843-5.046 3.628-16.228.116l-.114-.878.484.136c9.469 2.395 11.278 2.607 15.863-.317z" fill="#2c4661"/><path d="m217.151 233.652c1.462-.407 2.277-2.068 1.821-3.709s-2.011-2.641-3.473-2.233c-1.462.407-2.277 2.068-1.821 3.709s2.011 2.641 3.473 2.233z" fill="#738eff"/><path d="m236.354 230.248c.297-1.419-.118-2.708-.928-2.878s-1.707.843-2.005 2.263c-.297 1.42.118 2.708.928 2.878s1.707-.843 2.005-2.263z" fill="#738eff"/><path d="m225.261 227.532c-.208-.309.142-.523.421-.643.112-.043.236-.05.352-.02.117.03.221.096.299.188l1.059 1.376c.306.422-.153.44-.609.163-.455-.278-1.205-.559-1.522-1.064z" fill="#284e7a" opacity=".41"/><path d="m230.003 228.179.323-.756c.057-.129.073-.273.048-.412s-.092-.267-.191-.368l-.145-.149c-.013-.016-.03-.028-.05-.035-.019-.008-.04-.01-.06-.007-.021.002-.04.01-.057.022s-.03.028-.039.046c-.198.539-.351 1.093-.459 1.657-.049.595.323.547.63.002z" fill="#284e7a" opacity=".41"/><path d="m225.413 219.273-3.982-.283 3.179-.412 1.253-3.313c.328-.855.931-1.576 1.713-2.05.783-.474 1.7-.674 2.609-.569l.775.152c-1.891-.344-2.533 1.841-2.905 4.494-.191 1.454-.136 2.203-2.642 1.981z" fill="#61c7c7"/><path d="m232.843 218.667c.007-1.013-.659-1.838-1.486-1.843-.828-.005-1.504.813-1.51 1.826s.659 1.838 1.487 1.843c.827.005 1.503-.812 1.509-1.826z" fill="#21354a"/><path d="m218.828 218.061c.1-1.008-.487-1.892-1.31-1.973-.824-.081-1.572.67-1.672 1.678-.099 1.009.488 1.892 1.311 1.973.824.082 1.572-.67 1.671-1.678z" fill="#21354a"/><path d="m212.524 256.037c1.725.029 3.924-.172 5.886-.258-.037-.784.031-1.571.203-2.337.301-1.288.761-2.534 1.369-3.708-1.57-.133-3.476-.265-5.036-.315-.324-7.733-4.389-11.914-6.633-9.774-1.063 1.011-1.71 2.384-1.813 3.849-.057 1.184.064 3.102-.007 3.531-.196 1.412-1.191 1.835.028 4.451.63 1.306-.551 4.527 6.003 4.561z" fill="#fff"/><path d="m217.902 211.797c1.6 1.011 2.002 3.481 2.13 4.473.127.993.356 2.77.415 3.225.058.455.204.604 1.72 1.29 1.516.687.883.012.193-.781l-.929-1.015-.415-3.224c-.117-.88-.467-1.713-1.015-2.411s-1.273-1.236-2.099-1.557z" fill="#d4ffdc"/><path d="m231.979 217.458c.574.22.704 1.548.133 1.033-.57-.514-.924-1.309-.133-1.033z" fill="#335a70"/><path d="m218.113 216.687c.533.225.667 1.594.133 1.033s-.966-1.304-.133-1.033z" fill="#335a70"/><path d="m217.995 231.93c.549-.291.594-1.285.1-2.222-.494-.936-1.34-1.459-1.889-1.169-.549.291-.593 1.285-.099 2.221.494.937 1.339 1.46 1.888 1.17z" fill="#b2a6ff"/><path d="m236.318 229.12c.001-.668-.26-1.209-.582-1.209-.321 0-.583.541-.583 1.208-.001.668.259 1.21.581 1.21s.583-.541.584-1.209z" fill="#b2a6ff"/><path d="m232.12 213.993c.891.725 1.144 2.037.144 1.116s-1.221-1.985-.144-1.116z" fill="#d4ffdc"/></g><path d="m0 0h85.8619v80.7569h-85.8619z" fill="#ef6270" transform="matrix(-1 0 0 1 265.886 266.45)"/><g mask="url(#L)"><ellipse cx="222.955" cy="307.119" fill="#cc4355" rx="25.5265" ry="25.5633"/><path d="m221.433 299.747-.415-3.224c-.14-1.052-.61-2.031-1.343-2.798-.732-.766-1.689-1.28-2.733-1.465-1.146-.2-2.326.01-3.333.594-1.007.583-1.777 1.503-2.174 2.598-1.462 3.972-3.746 10.361-5.32 15.734-2.508 8.562 8.829 10.541 19.97 9.687 11.14-.854 12.19-5.739 10.65-12.81-.988-4.411-2.239-8.914-3.02-11.713-.239-.781-.699-1.475-1.326-1.999-.626-.523-1.391-.853-2.202-.948-.908-.105-1.826.095-2.608.569-.783.474-1.386 1.195-1.714 2.05l-1.253 3.314z" fill="#7ce4cc"/><path d="m235.24 311.453-.791-.276-4.058 1.408-4.129.534-7.152-1.427s-3.933-6.089-3.648.682c.224 4.678 2.207 7.363 3.415 8.593 2.401.11 4.807.065 7.203-.134 1.808-.101 3.6-.404 5.341-.901 1.207-1.711 3.152-4.863 3.819-8.479z" fill="#aafae7"/><path d="m215.346 311.797c-.918-2.571-2.582-7.987-1.89-12.07.692-4.082 1.603-7.436 3.488-7.47-1.146-.2-2.326.01-3.333.594-1.008.584-1.778 1.504-2.175 2.599-1.462 3.972-3.746 10.361-5.321 15.735-2.248 7.646 6.582 10.034 16.467 9.847-2.145-.353-4.87-2.606-7.236-9.235z" fill="url(#o)" opacity=".74"/><path d="m217.151 314.409c1.462-.408 2.277-2.068 1.821-3.71-.456-1.641-2.011-2.64-3.473-2.233-1.462.408-2.277 2.069-1.821 3.71s2.011 2.641 3.473 2.233z" fill="#738eff"/><path d="m236.354 311.005c.297-1.419-.118-2.708-.928-2.878s-1.707.843-2.005 2.263c-.297 1.419.118 2.708.928 2.878s1.707-.843 2.005-2.263z" fill="#738eff"/><path d="m225.261 308.289c-.208-.31.142-.523.421-.643.112-.043.236-.05.352-.02.117.03.221.096.299.188l1.059 1.376c.306.422-.153.44-.609.162-.455-.277-1.205-.558-1.522-1.063z" fill="#284e7a" opacity=".41"/><path d="m230.003 308.936.323-.756c.057-.13.073-.273.048-.412s-.092-.267-.191-.368l-.145-.15c-.013-.015-.03-.027-.05-.035-.019-.007-.04-.009-.06-.007-.021.003-.04.011-.057.023s-.03.028-.039.046c-.198.539-.351 1.093-.459 1.657-.049.594.323.546.63.002z" fill="#284e7a" opacity=".41"/><path d="m225.413 300.03-3.982-.283 3.179-.412 1.253-3.314c.328-.854.931-1.575 1.713-2.049.783-.474 1.7-.675 2.609-.569l.775.152c-1.891-.344-2.533 1.84-2.905 4.494-.191 1.453-.136 2.203-2.642 1.981z" fill="#61c7c7"/><path d="m232.843 299.424c.007-1.013-.659-1.838-1.486-1.843-.828-.005-1.504.813-1.51 1.826s.659 1.838 1.487 1.843c.827.005 1.503-.813 1.509-1.826z" fill="#21354a"/><path d="m218.828 298.818c.1-1.009-.487-1.892-1.31-1.973-.824-.082-1.572.67-1.672 1.678-.099 1.008.488 1.892 1.311 1.973.824.081 1.572-.67 1.671-1.678z" fill="#21354a"/><path d="m217.902 292.553c1.6 1.012 2.002 3.482 2.13 4.474.127.992.356 2.77.415 3.225.058.454.204.604 1.72 1.29 1.516.687.883.012.193-.781l-.929-1.015-.415-3.225c-.117-.88-.467-1.712-1.015-2.41s-1.273-1.236-2.099-1.558z" fill="#d4ffdc"/><path d="m231.979 298.215c.574.22.704 1.548.133 1.033-.57-.515-.924-1.309-.133-1.033z" fill="#335a70"/><path d="m218.113 297.443c.533.226.667 1.595.133 1.034s-.966-1.304-.133-1.034z" fill="#335a70"/><path d="m232.12 294.75c.891.725 1.144 2.037.144 1.116s-1.221-1.986-.144-1.116z" fill="#d4ffdc"/></g><path d="m94.1619 185.693h85.8619v80.7569h-85.8619z" fill="#628bf7"/><g mask="url(#M)"><ellipse cx="137.093" cy="226.362" fill="#628bf7" rx="25.5265" ry="25.5633"/><path d="m131.471 182.731 18.928 35.542c.439.797.608 1.716.481 2.618-.126.902-.541 1.738-1.182 2.384l-.263.263c-3.127 3.275-7.042 5.689-11.37 7.011s-8.922 1.507-13.342.536c-.642-.139-1.217-.493-1.631-1.004-.414-.51-.642-1.146-.647-1.804l-.877-42.913c-.087-16.235.701-19.834 9.903-2.633z" fill="#33beb5"/><path d="m149.435 223.538c.687-.726 1.132-1.648 1.274-2.638.141-.991-.028-2.001-.485-2.89l-18.754-35.279c-4.469-8.337-6.922-11.847-8.324-11.233 3.592 24.923 10.953 57.393 10.953 57.393l5.083 1.229c3.888-1.354 7.401-3.609 10.253-6.582z" fill="#33a2be"/><path d="m144.878 207.917c-1.139-2.106-1.665-2.808-2.191-1.755-7.799-12.461-11.567-10.004-11.567 2.107 0 0-5.433-2.896-4.82 7.81-.774-.209-1.595-.16-2.339.141-.743.301-1.368.837-1.779 1.526l.263 10.531c.005.562.174 1.11.485 1.577.311.468.752.835 1.267 1.056 4.639.739 9.386.395 13.87-1.006 4.484-1.4 8.584-3.819 11.981-7.068.482-.65.77-1.424.832-2.231s-.105-1.616-.481-2.332z" fill="#f7e5bc"/><path d="m150.399 218.273-5.521-10.356c-1.139-2.106-1.665-2.808-2.191-1.755-7.799-12.461-11.567-10.004-11.567 2.107-.461-.235-.972-.355-1.49-.352 1.49.352 1.578 1.843 2.454 5.09s1.49 6.143 1.49 6.143l13.845 5.88c.936-.656 1.816-1.39 2.629-2.194.482-.65.77-1.424.832-2.231s-.105-1.616-.481-2.332z" fill="#f7d197"/><path d="m149.786 218.712c-6.66-7.196-12.619-9.741-26.114 10.004-.132.212-.212.452-.233.701s.017.499.111.73.241.437.43.6.413.279.656.339c4.433.96 9.038.771 13.378-.55s8.271-3.729 11.421-6.998l.263-.263.613-.79c.335-.6.464-1.294.37-1.975-.095-.681-.41-1.312-.895-1.798z" fill="#242236"/><path d="m148.646 224.855-1.752-8.952c-4.908-4.036-10.078-4.124-18.753 6.758l3.592 8.512c6.097-.571 11.933-2.751 16.913-6.318z" fill="#9e4b34"/><path d="m149.085 224.504-6.397-.527-.877 2.457-1.577-3.422c-1.49-3.511-1.577-3.423-2.892-.439-1.314 2.984-7.186 1.931-7.186 1.931l-1.227-2.721c7.624-9.214 12.444-9.741 16.913-6.669z" fill="#7a2f28"/><path d="m120.079 236.702 1.139-2.984c.247-.589.63-1.111 1.117-1.523.488-.411 1.066-.702 1.687-.846l4.469-.878 17.702-.351 9.639 4.915c.392.191.732.475.991.826.26.352.431.76.499 1.192l.35 2.282 4.645 3.071c.257.167.461.405.585.685.125.281.165.592.116.895-1.227 10.706-12.181 27.029-27.429 19.745-11.392-5.441-21.908-13.339-26.99-17.376l-1.928 2.633c-.526-2.545-.088-3.51 1.577-4.827.534-.362 1.032-.774 1.49-1.228.153-.423.242-.867.263-1.317.438-2.018 0-2.545 2.366-3.071z" fill="#33beb5"/><path d="m128.578 231.524c-4.118.702-6.397.615 0 4.388 6.398 3.774 0-4.388 0-4.388z" fill="#1e6470"/><path d="m139.883 218.8.701 3.159c.088.088.175.263.351.263l1.314.176-1.139-2.633v-.176l.263-1.843-1.227.703z" fill="#66251f"/><path d="m133.574 221.959 2.366.351c-.877 1.316-1.928 1.141-2.366-.351z" fill="#5e221d"/><path d="m142.249 221.081 2.366-.702c-.263 1.58-1.314 1.843-2.366.702z" fill="#5e221d"/><path d="m135.151 222.398c.387 0 .701-.55.701-1.229s-.314-1.229-.701-1.229-.701.55-.701 1.229.314 1.229.701 1.229z" fill="#000"/><path d="m143.564 220.818c.387 0 .701-.55.701-1.229 0-.678-.314-1.228-.701-1.228s-.701.55-.701 1.228c0 .679.314 1.229.701 1.229z" fill="#000"/><path d="m145.842 215.114 1.928 1.492c.701 1.93.964 4.651 1.665 6.932.701 2.282 1.665 5.705 1.227 7.635-.438 1.931-.088 2.106 1.139 4.564 1.227 2.457 3.505 5.09 2.717 8.073 1.314 2.019.876 3.247.525 5.09-.35 1.843-1.84 6.758-5.17 6.67-1.124 1.571-2.697 2.764-4.512 3.422-1.814.658-3.785.75-5.653.264-5.346-1.317-10.691-5.002-10.078-9.829-1.752-1.404-1.402-5.09-1.139-7.108.188-1.794-.083-3.606-.789-5.266-.613-1.755-.613-3.51-.087-7.196-.614-1.525-1.055-3.115-1.315-4.739l2.629-3.423 1.227 2.809c.588 1.171 1.115 2.372 1.577 3.598.442-.194.921-.284 1.403-.263.325-.676.819-1.257 1.432-1.687.614-.43 1.327-.695 2.073-.771l5.17 1.053.876-2.457c2.454-.351 3.681-.351 4.557.263.464-1.387.525-2.879.175-4.3-.438-1.667-1.577-4.826-1.577-4.826z" fill="#fff"/><path d="m142.249 228.453-2.015-.439c-.964-.263-.877-.351-3.593-2.633l5.17 1.053.876-2.457c2.454-.351 3.681-.351 4.557.263.464-1.387.525-2.879.175-4.3-.438-1.667-1.577-4.826-1.577-4.826l1.84 1.492c.789 1.93 1.052 4.651 1.753 6.932.701 2.282 1.665 5.705 1.227 7.635-.438 1.931-.088 2.106 1.139 4.564 1.227 2.457 3.505 5.09 2.716 8.073 1.315 2.019.877 3.247.526 5.09-.35 1.843-1.84 6.758-5.17 6.67-1.124 1.571-2.697 2.764-4.512 3.422-1.814.658-3.785.75-5.653.264-5.346-1.317-10.691-5.002-10.078-9.829 1.665 4.563 5.17 3.686 5.17 3.686 2.13-.461 4.307-.668 6.485-.615 1.227-2.194 2.717-4.3 3.944-5.177 2.629-5.002.613-10.356-.614-13.339z" fill="#d6dfff"/><path d="m142.25 228.453c1.314.263 1.226-.878 1.139-2.019-.048-.861-.288-1.7-.701-2.457l-.877 2.457-5.17-1.053c2.717 2.282 2.629 2.37 3.593 2.633z" fill="#cad5fc"/><path d="m132.347 220.467 4.82-1.404c-.407-.231-.857-.378-1.321-.432-.465-.054-.936-.015-1.385.116s-.867.351-1.231.646c-.363.295-.663.66-.883 1.074z" fill="#cfdeff"/><path d="m140.672 218.536 4.995-.965c-.797-.514-1.761-.701-2.691-.521-.931.18-1.756.712-2.304 1.486z" fill="#cfdeff"/><path d="m144.352 230.296c-.018.328-.15.64-.375.881-.224.24-.525.394-.852.435-5.257.702-7.536-.527-8.412-1.229-.106-.099-.185-.223-.231-.361s-.057-.285-.032-.428v-.176c2.804.965 7.01.527 7.974.351.964-.175.614-.439.526-.878.184 0 .367.037.537.107.17.071.324.174.455.305.13.13.233.285.304.455.07.171.106.353.106.538z" fill="#de5d70"/><path d="m137.912 207.209c.873-.419.97-2.034.217-3.607-.752-1.574-2.07-2.51-2.943-2.091s-.97 2.034-.218 3.607c.753 1.574 2.071 2.51 2.944 2.091z" fill="#ff9ccd"/><path d="m138.13 203.529c-.701-1.579-2.103-2.544-2.979-2.106-.105.054-.197.129-.272.219-.076.09-.132.195-.166.308 1.49-.088.701 1.667 3.417 1.579z" fill="#ffebf5"/><path d="m134.45 203.003c.02.723.168 1.436.438 2.106l.351.527c.263-.088.876-.264 1.139.175s.613 1.229 1.577 1.404c.237-.186.425-.427.547-.702.123-.276.176-.577.154-.877h-.262c-1.841 0-2.892-1.931-3.944-2.633z" fill="#ff70b7"/><path d="m128.929 212.92c.484 0 .876-.511.876-1.141s-.392-1.141-.876-1.141-.876.511-.876 1.141.392 1.141.876 1.141z" fill="#f7d197"/><path d="m124.285 220.467c.483 0 .876-.511.876-1.141s-.393-1.141-.876-1.141c-.484 0-.877.511-.877 1.141s.393 1.141.877 1.141z" fill="#f7d197"/><path d="m126.3 225.118c.26 1.368.611 2.716 1.052 4.037 0-1.053.438-2.282 1.139-2.545s.789-2.019 1.665-2.106l-1.227-2.809z" fill="#a8c3ff"/><path d="m144.966 234.859c2.191 2.194 2.979 3.774 3.155 5.002-.892-.326-1.721-.801-2.454-1.404z" fill="#fff"/><path d="m136.553 217.483c1.929-.581 3.889-1.05 5.872-1.404-3.155-.351-4.908.176-5.872 1.404z" fill="#66251f"/><path d="m138.568 221.257c.019.405.122.802.303 1.165.181.362.436.683.749.941.438.351.088-.263-.438-1.404s-.789-1.404-.614-.702z" fill="#c27059"/></g><path d="m0 0h85.8619v80.7569h-85.8619z" fill="#ffb869" transform="matrix(-1 0 0 1 180.024 266.45)"/><g mask="url(#N)"><ellipse cx="137.093" cy="307.119" fill="#ffb869" rx="25.5265" ry="25.5633"/><path d="m123.993 315.467c2.98 10.375 14.964 17.563 24.579 10.782s.068-20.681.068-20.681 5.214-13.155-7.854-16.274c-13.069-3.12-16.319 2.576-16.793 26.173z" fill="#4d7ae8"/><path d="m143.359 307.873c-1.459 0-2.641-1.579-2.641-3.526s1.182-3.526 2.641-3.526c1.458 0 2.64 1.579 2.64 3.526s-1.182 3.526-2.64 3.526z" fill="#dbe7ff"/><g fill="#201e2f"><path d="m144.491 307.025c-.373-.026-.636-.622-.588-1.332s.39-1.265.763-1.239c.373.025.637.621.588 1.331-.048.71-.39 1.265-.763 1.24z"/><path d="m146.406 297.77c-.176-.527-.512-.985-.961-1.31-.451-.324-.99-.499-1.545-.499-.554 0-1.095.175-1.544.499-.45.325-.786.783-.961 1.31z"/><path d="m126.77 294.04c2.437-5.424 6.703-6.509 14.016-4.746 1.472.329 2.887.878 4.198 1.627.406 2.17-2.912 2.848-9.074.882 2.032 3.661-2.166 10.171-9.14 2.237z"/><path d="m135.301 289.09.339-4.475c.03-.408-.028-.819-.17-1.203-.143-.384-.366-.732-.655-1.022-.29-.29-.638-.514-1.021-.656-.384-.143-.793-.201-1.201-.17-.46.026-.906.163-1.301.4s-.726.566-.966.96c-.24.393-.381.839-.41 1.299-.03.46.052.92.239 1.341l2.031 4.611z"/></g><path d="m132.457 304.957-13.406-12.544-1.219 1.559 10.36 19.326z" fill="#4d7ae8"/><path d="m127.582 302.109-5.281-3.729 4.062 7.323-.744-2.848z" fill="#3366e0"/></g></g></g><path d="m189.815 60.4119h-19.879c-.949 0-1.718.7455-1.718 1.6652 0 .9196.769 1.6651 1.718 1.6651h19.879c.949 0 1.718-.7455 1.718-1.6651 0-.9197-.769-1.6652-1.718-1.6652z" fill="#000"/><path d="m197.669 64.9588c1.627 0 2.945-1.3205 2.945-2.9494 0-1.6288-1.318-2.9493-2.945-2.9493s-2.945 1.3205-2.945 2.9493c0 1.6289 1.318 2.9494 2.945 2.9494z" fill="#000"/><path d="m274.364 172.856h-.736v-47.067h.736c.521 0 1.02.208 1.389.576.368.369.575.869.575 1.391v43.011c.001.534-.202 1.047-.567 1.436-.365.388-.865.622-1.397.653z" fill="#acadbd"/></g></svg>