<svg viewBox="0 0 486 155.69" xmlns="http://www.w3.org/2000/svg"><path d="m42 92.07a4.57 4.57 0 0 0 -4.57 4.57v4.56h-2.28v-20.09a4.57 4.57 0 1 0 -9.13 0v20.09h-2.28v-7.76a4.57 4.57 0 0 0 -9.14 0v9.33a7.58 7.58 0 0 0 7.57 7.56h3.83v33.25h9.13v-33.25h3.87a7.58 7.58 0 0 0 7.57-7.56v-6.13a4.57 4.57 0 0 0 -4.57-4.57z" fill="#72767d"/><circle cx="51" cy="34.08" fill="#72767d" r="20"/><path d="m101.21 42.08a14.4 14.4 0 0 0 -5.21.92 22.5 22.5 0 0 0 -43 .1 14.5 14.5 0 0 0 -14 13.98h76.67v-.5a14.5 14.5 0 0 0 -14.46-14.5z" fill="#4f545c"/><path d="m91.65 114.74h-8.16v20.5h8.42a106.39 106.39 0 0 0 -.26-20.5zm-18.33 0h-6a39.31 39.31 0 0 0 0 20.5h5.78a108 108 0 0 1 .22-20.5zm.18 23.92h-5c.33.81.66 1.59 1 2.34a1.87 1.87 0 0 0 1.65 1.08h2.71l-.39-3.17c.04-.09.04-.17.03-.25zm.65-30.75h-3a1.87 1.87 0 0 0 -1.6 1.09c-.38.74-.71 1.53-1 2.34h5.21z" fill="#72767d"/><path d="m92.55 138.66c0 .46-.09.92-.15 1.37l-.26 2.05h2.66a1.87 1.87 0 0 0 1.65-1.08c.38-.75.71-1.53 1-2.34z" fill="#e3e5e8"/><path d="m82.51 111.33v-3.42h-7.37l-.44 3.42zm9.06 27.33h-8.08v3.42h7.66l.29-2.22c.05-.4.09-.8.13-1.2zm-17.09 0v.09l.41 3.33h7.62v-3.42z" fill="#72767d"/><path d="m97.49 111.33c-.33-.81-.66-1.6-1-2.34a1.87 1.87 0 0 0 -1.65-1.08h-3l.42 3.42zm-4.86 3.41a108 108 0 0 1 .26 20.5h5.75a39.38 39.38 0 0 0 0-20.52h-6z" fill="#e3e5e8"/><path d="m91.25 111.33-.42-3.42h-7.34v3.42zm-16.95 3.41a106.38 106.38 0 0 0 -.18 20.5h8.39v-20.5z" fill="#72767d"/><path d="m82.51 138.66h.97v3.42h-.97zm0-23.92h.97v20.5h-.97zm0-6.83h.97v3.42h-.97zm-8.03 30.75h-1v.25l.39 3.17h1l-.41-3.33zm-.18-23.92h-1a108 108 0 0 0 -.18 20.5h1a106.38 106.38 0 0 1 .18-20.5zm.4-3.41.44-3.42h-.99l-.43 3.42z" fill="#4f545c"/><path d="m92.63 114.74h-1a106.39 106.39 0 0 1 .26 20.5h1a108 108 0 0 0 -.26-20.5zm-.08 23.92h-1c0 .4-.08.8-.13 1.2l-.29 2.22h1l.27-2.08c.06-.42.1-.88.15-1.34zm-.32-27.33-.42-3.42h-.98l.42 3.42z" fill="#c7ccd1"/><path d="m74.3 114.74h24.34a33.89 33.89 0 0 0 -1.15-3.4h-29a34.09 34.09 0 0 0 -1.15 3.41h6.96zm.18 23.92h23a34.09 34.09 0 0 0 1.15-3.41h-31.27a34.28 34.28 0 0 0 1.15 3.42h6z" fill="#36393f"/><path d="m89 76.08h50v67h-52v-65a2 2 0 0 1 2-2z" fill="#72767d"/><path d="m87 89.96 8.88-8.88h6.75l-15.63 15.78zm0 13.96 23.05-23.05h11.95l-32.1 32.1-2.9.11z" fill="#b9bbbe" opacity=".5"/><path d="m89 73.08h84v8h-86v-6a2 2 0 0 1 2-2zm-2 40h54v30h-54z" fill="#b9bbbe"/><path d="m146.94 136.08h-25.88a5.58 5.58 0 0 1 -5.56-5.57v-5.37a5.57 5.57 0 0 1 5.56-5.56h25.88a5.57 5.57 0 0 1 5.56 5.56v5.37a5.58 5.58 0 0 1 -5.56 5.57zm-25.88-15.5a4.56 4.56 0 0 0 -4.56 4.56v5.37a4.57 4.57 0 0 0 4.56 4.57h25.88a4.57 4.57 0 0 0 4.56-4.57v-5.37a4.56 4.56 0 0 0 -4.56-4.56z" fill="#4f545c"/><path d="m193.36 32.08h94.28a1.36 1.36 0 0 1 1.36 1.36v109.64h-97v-109.64a1.36 1.36 0 0 1 1.36-1.36z" fill="#b9bbbe"/><path d="m285 43.08h58v99h-58zm-148 1h58v99h-58z" fill="#72767d"/><path d="m285 113.08h58v30h-58z" fill="#b9bbbe"/><path d="m285 143.07h-148v-30h148z" fill="#dcddde"/><path d="m262.71 113.08h-35.99l-5 15v15h40.99z" fill="#4f545c"/><path d="m251.72 113.08h-25l-5 15v15h30z" fill="#36393f"/><path d="m256.71 113.08h-29.99l-5 15h30z" fill="#72767d"/><path d="m137 73.08h27a2 2 0 0 1 2 2v6h-29z" fill="#dcddde"/><path d="m137 81.08h29v32h-29z" fill="#4f545c"/><path d="m366.91 59.08h81.18a1.91 1.91 0 0 1 1.91 1.92v82.09h-85v-82.09a1.91 1.91 0 0 1 1.91-1.92z" fill="#b9bbbe"/><path d="m428 56.08h24a2 2 0 0 1 2 2v85h-26z" fill="#72767d"/><path d="m364 113.08h90v30h-90z" fill="#b9bbbe"/><path d="m410.18 84.08a1 1 0 0 1 -1-1v-18a1 1 0 1 1 2 0v18a1 1 0 0 1 -1 1z" fill="#f6f6f7"/><path d="m366 56.08h24v87h-26v-85a2 2 0 0 1 2-2z" fill="#72767d"/><path d="m364 113.08h64v30h-64z" fill="#dcddde"/><rect fill="#4f5660" height="15.5" rx="3.32" width="15.5" x="371" y="120.08"/><path d="m428 113.08h-24.29l-5 15v15h29.29z" fill="#4f545c"/><path d="m416.71 113.08h-13l-5 15v15h18z" fill="#36393f"/><path d="m421.71 113.08h-18l-5 15h18z" fill="#72767d"/><rect fill="#72767d" height="17" rx="4.28" width="65" x="144.5" y="119.58"/><g fill="#ebebec"><path d="m342 83.6a1 1 0 0 1 -1-1v-36.54h-45a1 1 0 0 1 0-2h46a1 1 0 0 1 .71.29 1 1 0 0 1 .29.71v37.54a1 1 0 0 1 -1 1z"/><path d="m320 83.08a1.06 1.06 0 0 1 -.51-.14 1 1 0 0 1 -.35-1.37l20.17-34-31.92 13.43a1 1 0 0 1 -1.31-.54 1 1 0 0 1 .53-1.3l34.72-14.63a1 1 0 0 1 1.25 1.47l-21.72 36.59a1 1 0 0 1 -.86.49z"/><path d="m341.5 78.1a1 1 0 0 1 -.76-.35c-6.22-7.22-14.89-3.87-15.26-3.73a1 1 0 0 1 -1-.11 1 1 0 0 1 -.42-.84c.36-12-11.23-15-11.34-15a1 1 0 0 1 -.75-1.17c.83-4.15.33-7.17-1.48-9-3-3-8.78-1.84-8.83-1.82a1 1 0 0 1 -1.19-.78 1 1 0 0 1 .78-1.18c.28-.06 6.87-1.38 10.64 2.36 2.18 2.16 2.92 5.49 2.2 9.91 2.87 1 11.56 4.87 12 15.36 3-.78 10.55-1.82 16.16 4.69a1 1 0 0 1 -.11 1.41 1 1 0 0 1 -.64.25zm.5-11.51a1 1 0 0 1 -.95-.68 5.62 5.62 0 0 0 -3-3.66c-2.56-1.1-5.66.35-5.69.37a1 1 0 0 1 -.94 0 1 1 0 0 1 -.49-.79c-.49-6.49-6.85-7.68-7.12-7.73a1 1 0 0 1 -.81-1.1 6.13 6.13 0 0 0 -1.13-5 6.5 6.5 0 0 0 -4.38-1.86 1 1 0 0 1 -1-1 1 1 0 0 1 1-1 8.46 8.46 0 0 1 5.87 2.52 7.64 7.64 0 0 1 1.7 5.7c2 .6 6.67 2.58 7.7 8a9.06 9.06 0 0 1 6.07.06 7.5 7.5 0 0 1 4.17 4.86 1 1 0 0 1 -.63 1.26.93.93 0 0 1 -.37.05z"/></g><g fill="#ebebec"><path d="m398 113.08h-33a1 1 0 0 1 -1-1v-18a1 1 0 1 1 2 0v17h32a1 1 0 0 1 0 2z"/><path d="m365 113.08a1 1 0 0 1 -.77-1.64l18-22a1 1 0 1 1 1.54 1.27l-15.37 18.79 28.2-12.34a1 1 0 1 1 .8 1.83l-32 14a1 1 0 0 1 -.4.09z"/><path d="m385 113.08a1.25 1.25 0 0 1 -.32 0 7.09 7.09 0 0 1 -4.47-3.58 6.16 6.16 0 0 1 -.49-3.22 9.17 9.17 0 0 1 -7.28-2.34c-5.38 2.34-8 0-8.12-.11a1 1 0 0 1 1.35-1.48c.11.09 2.09 1.67 6.59-.53a1 1 0 0 1 1.26.34c.08.11 2.08 2.85 7.32 2a1 1 0 0 1 1.09 1.36 4.42 4.42 0 0 0 .11 3.18 5.19 5.19 0 0 0 3.28 2.5 1 1 0 0 1 -.32 2z"/><path d="m394 113.08a1 1 0 0 1 -.24 0 6.56 6.56 0 0 1 -4.77-3.63c-1.1-2.53-.26-5.56.44-7.33a13.32 13.32 0 0 1 -10.43-6.12c-8.32 5.91-14.32 2-14.58 1.87a1 1 0 0 1 1.1-1.67c.24.16 5.57 3.48 13.15-2.45a1 1 0 0 1 .85-.19 1 1 0 0 1 .67.54 11.18 11.18 0 0 0 10.72 5.94 1 1 0 0 1 .9.46 1 1 0 0 1 0 1s-2.3 4.21-1.06 7.06a4.62 4.62 0 0 0 3.42 2.49 1 1 0 0 1 -.24 2z"/></g><path d="m137 86.58c0 .5 47.75-47.75 47.75-47.75s12.25-.25 12.25 0-60 60.17-60 60.17zm0-24.5 20.9-21.1h5.1l-26 26.55z" fill="#b9bbbe" opacity=".5"/><path d="m139 30.08h202a2 2 0 0 1 2 2v12h-206v-12a2 2 0 0 1 2-2z" fill="#dcddde"/><g fill="#b9bbbe"><path d="m285 30.08h56a2 2 0 0 1 2 2v12h-58z"/><path d="m364 79.15 15.54-15.54h5.46l-21.05 21.06zm0-4.07 9-9h-3l-6.05 6.39z" opacity=".5"/><path d="m366 56.08h86a2 2 0 0 1 2 2v10h-90v-10a2 2 0 0 1 2-2z"/></g><path d="m366 56.08h62v12h-64v-10a2 2 0 0 1 2-2z" fill="#dcddde"/><path d="m293.306 78.705 5.251-2.532 27.521 57.082-5.251 2.532z" fill="#36393f"/><path d="m321.456 103.006 4.812 3.291-17.709 25.893-4.812-3.291z" fill="#4f545c"/><path d="m412.58 94.61a.56.56 0 0 1 -.56-.55v-7.06a1.84 1.84 0 1 0 -3.68 0v7.09a.56.56 0 0 1 -1.12 0v-7.09a3 3 0 1 1 5.92 0v7.09a.56.56 0 0 1 -.56.52z"/><path d="m414.6 92.61a.55.55 0 0 1 -.55-.55v-5.06a1.84 1.84 0 0 0 -1.85-1.84h-4.05a1.84 1.84 0 0 0 -1.84 1.84v5.09a.56.56 0 0 1 -1.11 0v-5.09a3 3 0 0 1 2.95-3h4.05a3 3 0 0 1 3 3v5.09a.56.56 0 0 1 -.6.52z"/><path d="m416.78 90.61a.56.56 0 0 1 -.56-.55v-3.06a1.84 1.84 0 0 0 -1.84-1.84h-8.38a1.84 1.84 0 0 0 -1.86 1.84v3.09a.56.56 0 0 1 -1.12 0v-3.09a3 3 0 0 1 3-3h8.4a3 3 0 0 1 2.95 3v3.09a.55.55 0 0 1 -.59.52z"/><circle cx="410.18" cy="82.2" r="2.37"/><circle cx="410.18" cy="85.25" r="1.13"/><g fill="#36393f"><path d="m236 119.08h6.63c.44 0 .84-.53.64-.84l-2.27-3.32a.48.48 0 0 0 -.69 0l-4.46 3.32c-.38.31-.34.84.15.84zm5.55 3h-6.63c-.44 0-.84.52-.64.83l2.18 3.32a.48.48 0 0 0 .69 0l4.46-3.32c.39-.31.39-.83-.06-.83z"/><path d="m245.89 117.26-2.28 6.63c-.15.44.3.66.72.35l4.45-3.32a.55.55 0 0 0 .24-.69l-2.17-3.32c-.21-.31-.85-.09-.96.35zm-14.28 6.63 2.28-6.63c.15-.44-.3-.66-.72-.35l-4.45 3.32a.55.55 0 0 0 -.24.69l2.17 3.32c.21.31.81.09.96-.35z"/></g><g fill="#36393f"><path d="m408.06 119.67h4c.27 0 .51-.32.39-.5l-1.32-2c-.07-.11-.26-.11-.42 0l-2.69 2c-.25.18-.23.5.04.5zm3.38 1.81h-4c-.27 0-.51.32-.39.51l1.32 2c.07.12.26.12.42 0l2.69-2c.25-.19.23-.51-.04-.51z"/><path d="m414.06 118.57-1.38 4c-.09.26.19.39.44.21l2.69-2c.15-.12.22-.31.14-.42l-1.31-2c-.12-.18-.49-.05-.58.21zm-8.62 4.01 1.38-4c.09-.26-.19-.39-.44-.21l-2.69 2a.33.33 0 0 0 -.14.42l1.31 2c.14.21.49.05.58-.21z"/></g><path d="m395.54 45.24a6 6 0 1 0 -3.54 10.84h19.82c-4.18 0-15.82-10.54-16.28-10.84z" fill="#72767d"/><path d="m402.05 56.08h12.95a4.05 4.05 0 0 0 4-4.08v-10a4.05 4.05 0 0 0 -6.06-3.52l-2.43 1.39a4.06 4.06 0 0 1 -4 0l-2.43-1.39a4.05 4.05 0 0 0 -6.08 3.58v9.94a4.05 4.05 0 0 0 4.05 4.08z" fill="#b9bbbe"/><path d="m398 51.68v.32a4.05 4.05 0 0 0 4.05 4h12.95a4.05 4.05 0 0 0 4-4v-6.34c-10.46 9.99-18.32 7.41-21 6.02z" fill="#36393f"/><path d="m426 44.08a6 6 0 0 0 -3.54 1.16c-.41.3-12.1 10.84-16.28 10.84h19.82a6 6 0 0 0 0-12z" fill="#72767d"/><path d="m228.54 19.24a6 6 0 1 0 -3.54 10.84h19.82c-4.18 0-15.82-10.54-16.28-10.84z" fill="#18191c"/><path d="m235.05 30.08h12.95a4.05 4.05 0 0 0 4-4.08v-22a4.05 4.05 0 0 0 -6.06-3.46l-2.43 1.39a4.06 4.06 0 0 1 -4 0l-2.45-1.39a4.05 4.05 0 0 0 -6.06 3.52v21.94a4.05 4.05 0 0 0 4.05 4.08z" fill="#18191c"/><path d="m231 25.68v.32a4.05 4.05 0 0 0 4.05 4h12.95a4.05 4.05 0 0 0 4-4v-6.34c-10.46 9.99-18.32 7.41-21 6.02z" fill="#b9bbbe"/><path d="m259 18.08a6 6 0 0 0 -3.54 1.16c-.41.3-12.1 10.84-16.28 10.84h19.82a6 6 0 0 0 0-12z" fill="#18191c"/><path d="m455.79 143.05a14.83 14.83 0 0 1 -9-3.22 21.67 21.67 0 0 1 -7.63-11.93 21.68 21.68 0 0 1 .94-14.13 14.14 14.14 0 0 1 9.31-8.32c8.28-2.13 17.17 4.49 19.8 14.74s-2 20.33-10.25 22.46a13 13 0 0 1 -3.17.4zm-3.16-35.05a9.87 9.87 0 0 0 -2.46.31 11.27 11.27 0 0 0 -7.36 6.69 18.7 18.7 0 0 0 -.79 12.22 18.75 18.75 0 0 0 6.58 10.33 11.26 11.26 0 0 0 9.67 2.31c6.73-1.73 10.39-10.21 8.15-18.9-1.96-7.69-7.83-12.96-13.79-12.96z" fill="#4f545c"/><ellipse cx="454.98" cy="123.53" fill="#202225" rx="2.47" ry="3.11" transform="matrix(.96862655 -.24852083 .24852083 .96862655 -16.429983 116.979951)"/><path d="m455.27 128.06a4.47 4.47 0 0 1 -4.09-3.55 5 5 0 0 1 .23-3.27 3.75 3.75 0 0 1 2.44-2.14c2.1-.53 4.31 1 4.93 3.46s-.57 4.86-2.66 5.4a3.53 3.53 0 0 1 -.85.1zm-.57-6.15h-.13a.83.83 0 0 0 -.49.5 2.05 2.05 0 0 0 -.07 1.35c.23.92.92 1.48 1.38 1.35s.8-.93.57-1.85-.81-1.35-1.26-1.35z" fill="#4f545c"/><path d="m448.74 137.48 6.91-15.9" fill="#36393f"/><path d="m448.73 138.45a1 1 0 0 1 -.38-.08 1 1 0 0 1 -.51-1.28l6.92-15.9a1 1 0 1 1 1.78.78l-6.91 15.9a1 1 0 0 1 -.9.58z" fill="#4f545c"/><path d="m466.65 120.58-24.29 6.23" fill="#36393f"/><path d="m442.36 127.78a1 1 0 0 1 -.24-1.91l24.29-6.24a1 1 0 0 1 .48 1.89l-24.29 6.23z" fill="#4f545c"/><path d="m452.35 109.8 7.96 31" fill="#36393f"/><path d="m460.31 141.78a1 1 0 0 1 -.94-.73l-8-31a1 1 0 1 1 1.88-.48l8 31a1 1 0 0 1 -.94 1.22z" fill="#4f545c"/><path d="m463.82 130.27-19.97-15.16" fill="#36393f"/><path d="m463.82 131.25a1 1 0 0 1 -.59-.2l-20-15.17a1 1 0 0 1 1.17-1.55l20 15.17a1 1 0 0 1 .18 1.36 1 1 0 0 1 -.76.39z" fill="#4f545c"/><ellipse cx="456.66" cy="123.1" fill="#4f545c" rx="2.47" ry="3.11" transform="matrix(.96862655 -.24852083 .24852083 .96862655 -16.269908 117.389972)"/><path d="m457 127.63a4.46 4.46 0 0 1 -4.09-3.55c-.63-2.44.57-4.87 2.66-5.41s4.31 1 4.94 3.46-.57 4.86-2.67 5.4a3.44 3.44 0 0 1 -.84.1zm-.57-6.15h-.13c-.46.12-.8.93-.57 1.85.24.92.92 1.47 1.39 1.35s.8-.93.56-1.85-.85-1.35-1.3-1.35z" fill="#dcddde"/><path d="m457.47 142.62a14.83 14.83 0 0 1 -9-3.22 22.63 22.63 0 0 1 -6.69-26.06 13.56 13.56 0 0 1 21.47-5.51 21.71 21.71 0 0 1 7.63 11.93c2.64 10.26-2 20.33-10.25 22.46a12.87 12.87 0 0 1 -3.16.4zm-3.16-35.09a10.24 10.24 0 0 0 -2.46.31 11.28 11.28 0 0 0 -7.37 6.69 18.76 18.76 0 0 0 -.78 12.22 18.74 18.74 0 0 0 6.57 10.33 11.27 11.27 0 0 0 9.68 2.31c6.72-1.73 10.38-10.21 8.15-18.9a18.68 18.68 0 0 0 -6.58-10.33 11.94 11.94 0 0 0 -7.21-2.63z" fill="#dcddde"/><path d="m285 40.98h-148" fill="#2e3338"/><path d="m137 40.48h148v1h-148z" fill="#b9bbbe"/><path d="m343 40.98h-58" fill="#4f5660"/><path d="m285 40.48h58v1h-58z" fill="#4f545c"/><path d="m428 64.58h-64" fill="#2e3338"/><path d="m364 64.08h64v1h-64z" fill="#72767d"/><path d="m454 64.58h-26" fill="#4f5660"/><path d="m428 64.08h26v1h-26z" fill="#4f545c"/><path d="m87 77.58h50" fill="#4f5660"/><path d="m87 77.08h50v1h-50z" fill="#4f545c"/><path d="m203 42.08 15-4" fill="#4f545c"/><path d="m203.3 43.16 13.12-3.5 1.88-.5a1.13 1.13 0 0 0 -.6-2.17l-13.12 3.5-1.88.5a1.13 1.13 0 0 0 .6 2.17z" fill="#b9bbbe"/><path d="m188.65 30.08h-38.26c-1.32 0-2.39.59-2.39 1.33v1.33c0 .74 1.07 1.34 2.39 1.34h9.61c1.32 0 2.39.59 2.39 1.33v1.33c0 .74 1.07 1.34 2.39 1.34h21.5c1.51 0 2.49-.69 2.49-1.57 0-1.43 1.27-2.43 3.51-2.43h8.37c1.32 0 2.39-.6 2.39-1.34v-1.33c0-.74-1.07-1.33-2.39-1.33zm91.68 6v-1a1 1 0 0 0 -1-1 1 1 0 0 0 -1 1v5a1 1 0 0 0 1 1h2a1 1 0 0 0 1-1v-2a1 1 0 0 0 -1-1 1 1 0 0 1 -1-1z" fill="#b9bbbe"/><path d="m339 122.62v2.91a1.55 1.55 0 0 0 1.55 1.55h.9a1.55 1.55 0 0 0 1.55-1.55v-12.45h-8v6.45a1.55 1.55 0 0 0 1.55 1.55h.9a1.54 1.54 0 0 1 1.55 1.54z" fill="#4f545c"/><path d="m389.22 56.08h-18.09a1.07 1.07 0 0 0 -1.13 1v1a1.08 1.08 0 0 0 1.13 1h4.52a1.06 1.06 0 0 1 1.13 1v1a1.08 1.08 0 0 0 1.13 1h10.17c.71 0 1.32-.56 1.18-1.18a1.55 1.55 0 0 1 1.65-1.82h4a1.08 1.08 0 0 0 1.13-1v-1a1.07 1.07 0 0 0 -1.13-1z" fill="#b9bbbe"/><path d="m109.5 123.4a3.32 3.32 0 0 0 -3.32-3.32h-8.86a3.32 3.32 0 0 0 -3.32 3.32v8.68h15.5z" fill="#36393f"/><path d="m109.5 132.26v-.18h-15.5v.18a3.32 3.32 0 0 0 3.32 3.32h8.86a3.32 3.32 0 0 0 3.32-3.32z" fill="#72767d"/><path d="m102.2 125.13a1 1 0 0 0 -1 1h1.9a1 1 0 0 0 -.9-1zm2.85 0a1 1 0 0 0 -1 1h1.95a1 1 0 0 0 -.95-1z" fill="#f6f6f7"/><rect fill="#b9bbbe" height="6" rx="1.22" width="7" x="267" y="137.08"/><path d="m0 143.08h486m-486-1h486v2h-486z" fill="#72767d"/><rect fill="#b9bbbe" height="7" rx=".87" width="3" x="271" y="134.08"/><path d="m330 117.85v1.45a.78.78 0 0 0 .77.78h.46a.78.78 0 0 0 .77-.78v-6.22h-4v3.22a.78.78 0 0 0 .77.78h.46a.77.77 0 0 1 .77.77zm105 17.07v-2.18a1.16 1.16 0 0 0 -1.16-1.16h-.68a1.16 1.16 0 0 0 -1.16 1.16v9.34h6v-4.84a1.16 1.16 0 0 0 -1.16-1.16h-.68a1.16 1.16 0 0 1 -1.16-1.16z" fill="#4f545c"/><path d="m205.22 119.58h-56.44a4.27 4.27 0 0 0 -4.28 4.27v8.23h65v-8.23a4.27 4.27 0 0 0 -4.28-4.27z" fill="#36393f"/><path d="m386.5 123.4a3.32 3.32 0 0 0 -3.32-3.32h-8.86a3.32 3.32 0 0 0 -3.32 3.32v8.68h15.5z" fill="#36393f"/><path d="m386.5 132.26v-.18h-15.5v.18a3.32 3.32 0 0 0 3.32 3.32h8.86a3.32 3.32 0 0 0 3.32-3.32z" fill="#72767d"/><rect fill="#b9bbbe" height="3" rx="1" transform="matrix(-1 0 0 -1 545 257.15)" width="3" x="271" y="127.08"/><path d="m90.567 88.877 4.122-4.122 33.312 33.311-4.122 4.123z" fill="#4f545c"/><path d="m239.66 46.08h3.28v30.36a1.64 1.64 0 0 1 -1.64 1.64 1.64 1.64 0 0 1 -1.64-1.64z" fill="#dcddde"/><g fill="#72767d"><ellipse cx="241.3" cy="54.08" rx="3" ry="2.5"/><ellipse cx="241.3" cy="51.08" rx="3" ry="2.5"/><ellipse cx="241.3" cy="48.58" rx="3" ry="2.5"/></g><path d="m247.16 57.83c-.59-1.58-3-2.75-5.86-2.75s-5.27 1.17-5.86 2.75a23.27 23.27 0 0 1 11.72 0z" fill="#72767d"/><path d="m236.15 60.37a8.6 8.6 0 0 0 10.29 0 19.8 19.8 0 0 0 -10.29 0z" fill="#202225"/><path d="m212.8 44.08h57v4h-57z" fill="#4f545c"/><path d="m188.89 105.35.07-4.54a8.33 8.33 0 0 0 -8.21-8.45 8.33 8.33 0 0 0 -8.46 8.21l-.06 4.4a14.09 14.09 0 0 1 -2.79 8 13.39 13.39 0 0 0 -2.43 9.69 13.17 13.17 0 0 0 10.68 11.34 13.41 13.41 0 0 0 13.76-20.6 14.14 14.14 0 0 1 -2.56-8.05z" fill="#040405"/><path d="m188.31 115.93a2.61 2.61 0 0 1 -.62-5.15c3.64-.89 5.91-2.28 6.77-4.11s.41-4.51-1.3-7.92a2.62 2.62 0 1 1 4.68-2.34c2.49 5 2.93 9 1.36 12.45s-5 5.71-10.27 7a2.68 2.68 0 0 1 -.62.07zm-15.81.26a2.53 2.53 0 0 1 -.85-.14c-5.94-2-9.48-5-10.52-8.64-1.39-4.93 2.19-9.25 3.53-10.87l.18-.22a2.58 2.58 0 0 1 1.42-1.23 2.62 2.62 0 0 1 3.35 1.56 3.11 3.11 0 0 1 -.92 3.22c-.95 1.15-3.17 3.83-2.52 6.13.52 1.88 3.08 3.69 7.18 5.1a2.62 2.62 0 0 1 -.85 5.09zm7.5 39.5a2.54 2.54 0 0 1 -.61-.07 2.61 2.61 0 0 1 -1.93-3.16l6.11-25.32a2.61 2.61 0 0 1 5.08 1.23l-6.11 25.32a2.61 2.61 0 0 1 -2.54 2zm-13-.55a2.6 2.6 0 0 1 -2.51-3.35l7.06-24.11a2.62 2.62 0 1 1 5 1.47l-7.06 24.11a2.62 2.62 0 0 1 -2.49 1.88z"/><path d="m258.53 66.71c-1-3.45-3.78-6.21-7.95-8a20.45 20.45 0 0 0 -3.51-1.09 2.07 2.07 0 0 1 .23.94 2.63 2.63 0 0 1 -1 2 16.64 16.64 0 0 1 3.12 1c3.37 1.44 5.48 3.48 6.25 6.08 1.06 3.52-.29 8.12-4 13.67a1.5 1.5 0 0 0 .42 2.08 1.41 1.41 0 0 0 .83.26 1.52 1.52 0 0 0 1.25-.67c4.21-6.4 5.68-11.85 4.36-16.27z" fill="#dcddde"/><ellipse cx="241.18" cy="81.43" fill="#4f545c" rx="6.93" ry="14.63" transform="matrix(.48938245 -.87206927 .87206927 .48938245 51.268791 251.498519)"/><path d="m250.54 76.29h-.35a4.85 4.85 0 0 1 -4.36-1.73l-2.83-3.4a2.46 2.46 0 0 0 -4 .48l-3.07 5.17c-1.82 3.06.11 4.78 3.36 6.86s6.58 3.72 8.4.67l3.83-6.45a1 1 0 0 0 -.98-1.6z" fill="#72767d"/><path d="m251.28 76.53a.87.87 0 0 0 -.74-.24h-.35a4.85 4.85 0 0 1 -4.36-1.73l-2.83-3.4a2.38 2.38 0 0 0 -.47-.43c2.32 1.7-.91 7.35 2 9.73s8-2.98 6.75-3.93z" fill="#4f545c"/><path d="m235.3 58.58a2.15 2.15 0 0 1 .19-.86 22 22 0 0 0 -3.16 1c-4.17 1.77-6.92 4.53-8 8-1.32 4.42.15 9.87 4.37 16.2a1.5 1.5 0 0 0 2.5-1.67c-3.7-5.55-5.05-10.15-4-13.67.78-2.6 2.88-4.65 6.25-6.08a17.88 17.88 0 0 1 2.88-.9 2.67 2.67 0 0 1 -1.03-2.02z" fill="#dcddde"/><path d="m247.3 58.58a2.07 2.07 0 0 0 -.23-.94 23.05 23.05 0 0 0 -5-.56h-1.13a23.08 23.08 0 0 0 -5.4.64 2.15 2.15 0 0 0 -.19.86 2.67 2.67 0 0 0 1.09 2 20 20 0 0 1 4.5-.51h1.06a20.23 20.23 0 0 1 4.26.45 2.63 2.63 0 0 0 1.04-1.94z" fill="#4f545c"/></svg>