<svg fill="none" height="90" viewBox="0 0 90 90" width="90" xmlns="http://www.w3.org/2000/svg" xmlns:xlink="http://www.w3.org/1999/xlink"><clipPath id="a"><path d="m0 0h90v90h-90z"/></clipPath><g clip-path="url(#a)"><path d="m78.7 74.1c-.9696-.0039-1.9252-.2314-2.7925-.6651-.8672-.4336-1.6227-1.0615-2.2075-1.8349-1.4-2-4.2-5.4-8.9-10.7-.5862-.8821-.8347-1.946-.6996-2.9964.135-1.0505.6444-2.017 1.4346-2.7222.7902-.7051 1.8083-1.1015 2.8673-1.1165s2.0879.3526 2.8977 1.0351l6 6.9c0-.8.1-1.7.1-2.7 0-1.1404.453-2.2342 1.2595-3.0406.8064-.8064 1.9001-1.2594 3.0405-1.2594 1.1498-.0003 2.2541.4495 3.0765 1.2532.8223.8036 1.2974 1.8973 1.3235 3.0468.0112 3.4815-.46 6.9478-1.4 10.3-.3235 1.101-.9415 2.0928-1.7875 2.8682-.8459.7754-1.8875 1.3051-3.0125 1.5318z" fill="#4f545c"/><path d="m77.3001 62c-.1 1.4-.4 2.9-.5 3.6-1.8-2.3-3.2-4.2-4.4-5.6-.1271-.181-.2153-.3864-.2591-.6032s-.0421-.4403.0049-.6564.1383-.4202.2681-.5993c.1298-.179.2953-.3292.4861-.4411l.5-.2z" fill="#72737d"/><path d="m73.9001 58.1c-3.5-1-6.3.6-7.5 4.5l.6.9c1.8-5.4 5.9-5 7.6-4.7z" fill="#17191f"/><path d="m77.2 62.4v.9c-2.2-.2-5.4 2.5-5 6.2l-.7-.8c-.3-3.9 3.1-6.5 5.7-6.3z" fill="#17191f"/><path d="m18.6001 74h-1.1c-.9888-.1966-1.9077-.6519-2.6631-1.3194-.7554-.6676-1.3202-1.5236-1.6369-2.4806-.7-2.3-1.9-6.3-3.30002-12.1-.11433-1.0664.16472-2.1378.78482-3.0129.62-.8751 1.5384-1.4936 2.5823-1.7392 1.044-.2457 2.1418-.1016 3.087.4052s1.6727 1.3414 2.0459 2.3469c.6 2.4 1.1 4.5 1.6 6.2l7.1-7.3c.3992-.4083.8775-.7308 1.4056-.9479s1.095-.3243 1.6659-.3149c.5709.0093 1.1339.135 1.6547.3693.5207.2343.9881.5724 1.3738.9935.4021.3996.7212.8748.939 1.3983.2178.5234.3299 1.0847.3299 1.6517 0 .5669-.1121 1.1282-.3299 1.6517-.2178.5234-.5369.9986-.939 1.3983-5.6 5.5-8.6 9-10.2 10.9-.5515.6171-1.2308 1.1068-1.9906 1.4349-.7599.3281-1.582.4868-2.4094.4651z" fill="#4f545c"/><path d="m27.1 54.9-7.1 7.3.6 2.8 7.6-8.4c.1473-.1188.2534-.2809.3033-.4635.0499-.1825.041-.3761-.0254-.5532-.0665-.1772-.1871-.3289-.3447-.4336-.1575-.1047-.3441-.1571-.5332-.1497z" fill="#72737d"/><path d="m23.8001 58.3c3.5-.9 6.3 1 7.2 5l-.6.8c-1.5-5.5-5.7-5.4-7.3-5.2z" fill="#17191f"/><path d="m20.1001 62.9.2.9c2.3-.1 4.4 1.2 4.7 5.8l.8-.8c.2-4.5-3-6-5.7-5.9z" fill="#17191f"/><path d="m13.8 55.8-1-1.9-.9-.6c-.7809.4779-1.3933 1.1876-1.7518 2.0301-.3585.8424-.44526 1.7758-.24819 2.6699.79999 3.2 1.49999 5.8 2.09999 7.9l.8 2.8c.1167.3911.3784.7228.7316.9273s.7712.2662 1.1684.1727l.8-.2c.2136-.0464.4154-.136.593-.2633.1776-.1274.3272-.2897.4397-.4771.1124-.1874.1853-.3959.214-.6125.0288-.2166.0129-.4369-.0467-.6471-.8-2.8-2.1-7.7-2.9-11.8z" fill="#72737d"/><path d="m68.7 59.5c-.3425-1.1715-1.052-2.2022-2.0241-2.9402-.9721-.7381-2.1555-1.1446-3.3759-1.1598h-29.2c-1.2205.0152-2.4038.4217-3.3759 1.1598-.9721.738-1.6816 1.7687-2.0241 2.9402l-4.3 14.8c-1.0823 3.6266-.7241 7.5308 1 10.9.682 1.4378 1.7584 2.6523 3.1039 3.5021s2.9047 1.2999 4.4961 1.2979h31.4c1.5914.002 3.1506-.4481 4.4961-1.2979 1.3454-.8498 2.4219-2.0643 3.1039-3.5021 1.724-3.3692 2.0822-7.2734 1-10.9z" fill="#a3a5ad"/><path d="m25.4 85.2c.682 1.4378 1.7585 2.6523 3.104 3.5021 1.3454.8498 2.9047 1.2999 4.496 1.2979h31.4c1.5914.002 3.1506-.4481 4.4961-1.2979s2.4219-2.0643 3.1039-3.5021c1.3001-2.5608 1.8215-5.4462 1.5-8.3h-49.6c-.3215 2.8538.2 5.7392 1.5 8.3z" fill="#888991"/><path d="m68.9035 3.33951-44.7699 1.64164c-5.7951.21249-10.3207 5.08265-10.1082 10.87775l.9923 27.0618c.2125 5.7951 5.0826 10.3207 10.8777 10.1082l44.7699-1.6417c5.7951-.2125 10.3207-5.0826 10.1082-10.8777l-.9923-27.0618c-.2125-5.7951-5.0826-10.32069-10.8777-10.10819z" fill="#a3a5ad"/><path d="m80.7 35.7v4.7c.1086 2.7687-.8816 5.468-2.7548 7.5098-1.8731 2.0418-4.4774 3.2603-7.2452 3.3901l-44.7 1.7001c-1.3923.0535-2.7814-.168-4.088-.6518s-2.505-1.2204-3.5266-2.1678c-1.0217-.9473-1.8465-2.0868-2.4274-3.3532s-.9065-2.6349-.958-4.0273v-4.5999c.1043 2.7675 1.2978 5.3818 3.3206 7.2734 2.0228 1.8917 4.7111 2.9076 7.4794 2.8265l44.7-1.5999c1.3923-.0516 2.7608-.3771 4.0272-.958 1.2665-.5809 2.4059-1.4058 3.3533-2.4274.9473-1.0217 1.684-2.2201 2.1678-3.5267.4838-1.3065.7052-2.6957.6517-4.0879z" fill="#888991"/><path d="m43.1421 44.886 10.2-.408c.567.0031 1.111.2248 1.5186.619s.6474.9304.6694 1.497l.208 5.2-14.5.58-.208-5.2c-.0233-.5835.1861-1.1523.5822-1.5814s.9464-.6833 1.5298-.7066z" fill="#dee1e3"/><path d="m55.4033 47.2344-14.4902.5313.1707 4.6569 14.4903-.5314z" fill="#c0c2c4"/><path d="m80.7 36.5999-.7-19.3999c1.2824.7955 2.3469 1.8975 3.0975 3.2067s1.1639 2.7846 1.2025 4.2933v4.0999c.1069 1.4983-.1671 2.9993-.7966 4.3632-.6295 1.3638-1.5939 2.5461-2.8034 3.4368z" fill="#dee1e3"/><path d="m84.3001 25.6v3.2c.0958 1.5072-.1936 3.0141-.8409 4.3786-.6473 1.3646-1.6312 2.542-2.8591 3.4214l-.2-6.2c2.5-1.1 4-2.9 3.9-4.8z" fill="#c0c2c4"/><path d="m14.9 39.1-.7-19.5c-1.2197.8933-2.2032 2.0705-2.8653 3.4297-.6622 1.3591-.983 2.8592-.9347 4.3703l.2 4.2c.0643 1.503.4884 2.9686 1.2366 4.2736.7483 1.3051 1.7988 2.4116 3.0634 3.2264z" fill="#dee1e3"/><path d="m14.7001 32.9.2 6.2c-1.2645-.8148-2.3151-1.9213-3.0633-3.2263-.7483-1.3051-1.1724-2.7707-1.2367-4.2737l-.2-3.3c.1 1.9 1.7 3.6 4.3 4.6z" fill="#c0c2c4"/><path d="m38.562.506003 17.5-.7c.5039-.020157.9952.1606904 1.3657.502757.3706.342066.5901.81733.6103 1.32124l.076 1.9-21.2.848-.076-1.9c-.0202-.48702.1475-.9632.4683-1.33017.3208-.36698.7703-.596738 1.2557-.641827z" fill="#888991"/><path d="m41.2833.586387 14.89-.545991c.4506-.0165215.8893.14662 1.2195.453535.3303.306916.5252.732459.5417 1.183029l.0733 1.99866-18.2877.67058-.0733-1.99866c-.0166-.45057.1466-.88924.4535-1.21952s.7325-.525111 1.183-.541633z" fill="#72737d"/><path d="m67.6013 11.4963-38.3742 1.4071c-2.9251.1073-5.2095 2.5656-5.1022 5.4907l.6086 16.5988c.1073 2.9252 2.5655 5.2095 5.4907 5.1023l38.3742-1.4071c2.9251-.1073 5.2095-2.5656 5.1022-5.4907l-.6086-16.5988c-.1073-2.9252-2.5655-5.2095-5.4907-5.1023z" fill="#888991"/><path d="m67.561 10.3971-38.3742 1.4071c-2.9251.1073-5.2095 2.5655-5.1022 5.4907l.6086 16.5988c.1073 2.9251 2.5656 5.2095 5.4907 5.1022l38.3742-1.4071c2.9251-.1073 5.2095-2.5655 5.1022-5.4906l-.6086-16.5989c-.1073-2.9251-2.5655-5.2095-5.4907-5.1022z" fill="#18191c"/><path d="m34.6917 26.4509 1.9986-.0733c1.7662-.0647 3.1454-1.549 3.0806-3.3151l-.0025-.0699c-.0648-1.7662-1.549-3.1454-3.3152-3.0806l-1.9986.0733c-1.7661.0647-3.1454 1.549-3.0806 3.3151l.0026.0699c.0647 1.7662 1.549 3.1454 3.3151 3.0806z" fill="#fff"/><path d="m61.1459 25.414 1.7988-.066c1.7662-.0647 3.1454-1.549 3.0806-3.3151l-.0025-.0699c-.0648-1.7662-1.549-3.1454-3.3152-3.0806l-1.7987.0659c-1.7662.0648-3.1454 1.549-3.0806 3.3151l.0025.07c.0648 1.7661 1.549 3.1454 3.3151 3.0806z" fill="#fff"/><path d="m56.0001 55.4h-14.5999l-2 10.2c-.0478.2291-.0412.4662.0191.6923.0603.2262.1728.4351.3282.61.1555.1749.3498.311.5673.3974.2175.0865.4522.1208.6853.1003h15.4001c.228.0018.4538-.0452.6622-.1378.2084-.0927.3946-.2288.5462-.3992.1515-.1705.2648-.3713.3323-.5892.0676-.2178.0878-.4476.0592-.6738z" fill="#dee1e3"/><path d="m46.4002 29.7-.4-.2c-.0706-.0488-.1299-.1122-.1739-.1859s-.0717-.156-.0812-.2413-.0005-.1717.0262-.2532c.0268-.0816.0707-.1565.1289-.2196 1.4769-1.4514 3.3756-2.3977 5.4236-2.7031 2.0481-.3054 4.1403.0457 5.9764 1.0031.0843.016.1631.0535.2287.1087.0657.0553.116.1266.1462.207.0301.0803.039.1671.0259.2519-.0131.0849-.0478.1649-.1008.2324-.0324.0726-.0789.138-.1368.1925s-.1261.0969-.2005.1248-.1537.0408-.2331.0378-.1575-.0217-.2296-.0551c-1.5926-.8457-3.4151-1.1565-5.198-.8863-1.7828.2701-3.4314 1.1068-4.702 2.3863z" fill="#fff"/><path d="m83.8002 6.69999-1 2.7c-.0722.09628-.1073.21539-.0987.33544.0085.12006.06.23301.1451.31807.0851.0851.1981.1367.3182.1452.12.0086.2391-.0265.3354-.0987l2.7-1.00001h.4l2.7 1.00001c.4.2.8-.30001.7-.70001l-1.1-2.7v-.4l1.1-2.7c.1-.4-.3-.9-.7-.7l-2.7 1.1h-.4l-2.7-1.1c-.0963-.07222-.2154-.10728-.3354-.09874-.1201.00853-.2331.06008-.3182.14519-.0851.0851-.1366.19805-.1451.3181-.0086.12006.0265.23916.0987.33545l1 2.7c.0492.055.0764.12621.0764.2s-.0272.145-.0764.2z" fill="#dee1e3"/><path d="m3.00008 72-2.700004 1.1c-.08251.0547-.150193.129-.197014.2162-.0468208.0873-.0713237.1848-.0713237.2838s.0245029.1965.0713237.2837c.046821.0872.114504.1615.197014.2163l2.700004 1.2.2.3 1.2 2.6c.05473.0825.12903.1502.21627.197s.18471.0713.28373.0713c.09901 0 .19648-.0245.28372-.0713.08725-.0468.16154-.1145.21628-.197l1.2-2.6.2-.3 2.7-1.2c.08251-.0548.15019-.1291.19701-.2163s.07132-.1847.07132-.2837-.0245-.1965-.07132-.2838c-.04682-.0872-.1145-.1615-.19701-.2162l-2.7-1.1-.2-.3-1.2-2.7c-.05474-.0825-.12903-.1502-.21628-.197-.08724-.0469-.18471-.0714-.28372-.0714-.09902 0-.19649.0245-.28373.0714-.08724.0468-.16154.1145-.21627.197l-1.2 2.7z" fill="#4f545c"/><g fill="#17191f"><path d="m80.8 56.9c.0077-.2174.066-.43.1701-.6209.1042-.191.2514-.355.4299-.4791l4.5-2.6c.1285-.0884.2744-.1485.4279-.1762.1534-.0278.3111-.0226.4624.0153.1513.0378.2928.1074.4152.2041s.2228.2183.2945.3568c.0884.1285.1485.2743.1762.4278.0278.1534.0226.3111-.0153.4624-.0378.1513-.1074.2928-.2041.4152s-.2183.2228-.3568.2946l-4.5 2.7c-.2672.1504-.582.1928-.8796.1184-.2975-.0744-.5553-.2599-.7204-.5184-.1115-.1822-.1799-.3874-.2-.6z"/><path d="m81.2001 57.8c-.137-.1472-.243-.3204-.3117-.5094-.0687-.1889-.0987-.3898-.0883-.5906l.8-5.2c.0494-.3005.2111-.5711.4525-.7568s.5444-.2726.8475-.2432c.1586.0242.3107.0799.4474.1638.1366.084.2551.1945.3483.325s.1593.2784.1944.4349.0385.3185.0099.4763l-.7 5.1c-.0241.1586-.0799.3107-.1638.4473-.084.1367-.1945.2551-.325.3484-.1305.0932-.2784.1593-.4349.1944s-.3184.0385-.4763.0099z"/><path d="m13.3 55.7c-.1878-.0717-.3523-.1936-.4757-.3522-.1234-.1587-.201-.3481-.2243-.5478l-.6-5.2c-.0294-.3031.0575-.6061.2432-.8475s.4563-.4032.7568-.4525c.1578-.0286.3198-.0252.4763.0099s.3044.1012.4349.1944c.1305.0933.241.2117.325.3484.0839.1366.1396.2887.1638.4473l.6 5.2c.0296.1602.0233.3251-.0185.4826s-.1182.3037-.2234.4281c-.1053.1244-.2369.2239-.3853.2912s-.3099.1008-.4728.0981c-.1011.0295-.2076.0359-.3114.0186-.1039-.0173-.2026-.0579-.2886-.1186z"/><path d="m14.2001 55.8c-.411.0836-.8384.0124-1.2-.2l-3.99999-3.4c-.2387-.2122-.38333-.5105-.40208-.8293-.01876-.3188.0899-.632.30208-.8707.21217-.2387.51048-.3833.82929-.4021.3188-.0187.632.0899.8707.3021l4 3.3c.1187.1047.2155.2319.2848.3742s.1097.297.119.455-.0127.3163-.0649.4657c-.0521.1495-.1333.2871-.2389.4051-.1183.1845-.294.3251-.5.4z"/><path d="m14.8002 55.2999c-.098.1735-.2455.3138-.4236.4029-.1782.089-.3789.1229-.5764.0971l-5.30005-.2c-.30062-.0251-.58074-.1625-.78459-.3849-.20384-.2224-.31646-.5134-.31541-.815 0-.3183.12643-.6235.35148-.8486.22504-.225.53026-.3514.84852-.3514l5.30005.3c.1532-.0007.3049.0307.4454.0921.1404.0615.2664.1516.37.2645.1035.113.1824.2464.2314.3916.049.1453.0671.2991.0532.4518-.0201.2126-.0885.4178-.2.5999z"/><path d="m81.1001 56.1c.1111-.1552.2644-.2753.4415-.3462.1772-.0708.371-.0895.5585-.0538l5.2.6c.3271.0496.6229.222.8273.4821s.3019.5884.2727.9179c-.0242.1585-.0799.3106-.1638.4473-.084.1367-.1945.2551-.325.3483-.1305.0933-.2784.1594-.4349.1945s-.3185.0384-.4763.0099l-5.1-.7c-.1629.0027-.3244-.0308-.4728-.0982-.1484-.0673-.28-.1667-.3853-.2911-.1052-.1244-.1816-.2707-.2234-.4282s-.0481-.3223-.0185-.4825c.0189-.2312.1264-.4462.3-.6z"/></g><path d="m34 31.2-2-4-2.1 4c-.2304.4337-.3158.9299-.2438 1.4157s.2976.9359.6438 1.2843c.2064.234.4603.4215.7448.55.2845.1284.5931.1948.9052.1948s.6207-.0664.9052-.1948c.2844-.1285.5383-.316.7448-.55.3462-.3484.5718-.7985.6438-1.2843s-.0135-.982-.2438-1.4157z" fill="#888991"/><path d="m82.4001 63.5c-2.6.1-5.1-1.5-5-3.4v1.1c-.2 2.2 2.9 3.5 5.1 3.4.8044-.0843 1.5658-.4046 2.1886-.9206s1.0791-1.2047 1.3114-1.9794v-.5c-.3395.6703-.8526 1.2373-1.4858 1.6419-.6332.4045-1.3633.6318-2.1142.6581z" fill="#17191f"/><path d="m84.1 71c-.387.4233-.8722.745-1.4127.9369-.5406.1918-1.12.2478-1.6873.1631-1.7-.1-5-2.1-4.5-5.3l-.2 1.2c-.0546.6255.0167 1.2556.2097 1.853.193.5975.5037 1.1503.9139 1.6257.4101.4754.9114.8638 1.4741 1.1422.5627.2785 1.1756.4414 1.8023.4791.7034-.0108 1.3909-.2117 1.9894-.5814.5986-.3697 1.086-.8945 1.4106-1.5186z" fill="#17191f"/><path d="m14.4001 61.0999c2.5-.5 4.7-2.4999 4.2-4.3999l.2 1.0999c.7 2.1-2.1 4.0001-4.2 4.4001-.8269.0823-1.6602-.0713-2.4035-.4429-.7433-.3717-1.3661-.9462-1.7965-1.6572v-.5999c.4798.5799 1.0973 1.0302 1.7961 1.3097.6988.2796 1.4566.3793 2.2039.2902z" fill="#17191f"/><path d="m12.2002 66.6c.33.4548.7677.8208 1.2737 1.0651.5061.2443 1.0649.3594 1.6263.3349 1.7.1 5.2-1.4 5.1-4.7v1.2c-.0775 1.2822-.6554 2.4827-1.6092 3.343-.9539.8604-2.2074 1.3118-3.4908 1.257-.6576-.1322-1.2699-.4317-1.7779-.8696-.508-.438-.8945-.9995-1.1221-1.6304z" fill="#17191f"/></g></svg>