<svg width="87" height="62" viewBox="0 0 87 62" fill="none" xmlns="http://www.w3.org/2000/svg">
<path d="M51.7119 11.624H15.5911C14.0641 11.624 12.8262 12.8578 12.8262 14.3798V20.4922C12.8262 22.0142 14.0641 23.248 15.5911 23.248H51.7119C53.2389 23.248 54.4768 22.0142 54.4768 20.4922V14.3798C54.4768 12.8578 53.2389 11.624 51.7119 11.624Z" fill="#808AFF"/>
<path d="M38.8858 0H2.76491C1.23789 0 0 1.23382 0 2.75581V8.86815C0 10.3901 1.23789 11.624 2.76491 11.624H38.8858C40.4128 11.624 41.6507 10.3901 41.6507 8.86815V2.75581C41.6507 1.23382 40.4128 0 38.8858 0Z" fill="#5865F2"/>
<path d="M38.8858 23.2473H2.76491C1.23789 23.2473 0 24.4811 0 26.0031V32.1155C0 33.6375 1.23789 34.8713 2.76491 34.8713H38.8858C40.4128 34.8713 41.6507 33.6375 41.6507 32.1155V26.0031C41.6507 24.4811 40.4128 23.2473 38.8858 23.2473Z" fill="#5865F2"/>
<path d="M39.3858 35H3.26491C1.73789 35 0.5 36.2338 0.5 37.7558V43.8682C0.5 45.3901 1.73789 46.624 3.26491 46.624H39.3858C40.9128 46.624 42.1507 45.3901 42.1507 43.8682V37.7558C42.1507 36.2338 40.9128 35 39.3858 35Z" fill="#5865F2"/>
<path d="M27.5369 26.091C27.0898 25.8043 26.7091 25.426 26.4201 24.9812C26.1332 24.5297 25.9484 24.0213 25.8787 23.4913L25.5892 21.679C25.584 21.635 25.5635 21.5942 25.5313 21.5636C25.4982 21.5348 25.4561 21.518 25.4122 21.5161C25.3691 21.5174 25.3279 21.5343 25.2964 21.5636C25.2632 21.5938 25.2415 21.6346 25.2351 21.679L24.9559 23.4812C24.8806 24.0065 24.6912 24.5092 24.4009 24.9541C24.1159 25.4083 23.7361 25.7961 23.2874 26.091L23.0491 26.2404C23.0237 26.2571 23.0036 26.2806 22.9912 26.3082C22.9777 26.3345 22.9707 26.3636 22.9707 26.3931C22.9707 26.4226 22.9777 26.4517 22.9912 26.4779C23.0036 26.5056 23.0237 26.5291 23.0491 26.5458L23.2874 26.6951C23.7315 26.9773 24.1109 27.3497 24.4009 27.788C24.6906 28.2332 24.8799 28.7357 24.9559 29.2609L25.2351 31.063C25.2406 31.1058 25.2626 31.1447 25.2964 31.1716C25.3285 31.1995 25.3696 31.2151 25.4122 31.2158C25.4569 31.2196 25.5015 31.2076 25.5382 31.1818C25.5696 31.1535 25.5901 31.1151 25.596 31.0732L25.8787 29.2677C25.9498 28.7413 26.1345 28.2365 26.4201 27.788C26.7091 27.3432 27.0898 26.9649 27.5369 26.6782L27.7787 26.5288C27.8032 26.5112 27.823 26.4879 27.8366 26.461C27.8478 26.4341 27.8536 26.4052 27.8536 26.3761C27.8536 26.347 27.8478 26.3182 27.8366 26.2913C27.823 26.2643 27.8032 26.241 27.7787 26.2234L27.5369 26.091Z" fill="#FFE75C"/>
<path d="M35.3054 39.8297C35.0308 39.6524 34.7968 39.4184 34.6193 39.1433C34.443 38.864 34.3295 38.5495 34.2866 38.2217L34.1088 37.1008C34.1056 37.0735 34.093 37.0483 34.0732 37.0294C34.0529 37.0115 34.027 37.0012 34 37C33.9735 37.0008 33.9482 37.0112 33.9289 37.0294C33.9085 37.0481 33.8952 37.0733 33.8912 37.1008L33.7197 38.2154C33.6734 38.5404 33.557 38.8513 33.3787 39.1265C33.2036 39.4075 32.9703 39.6473 32.6946 39.8297L32.5481 39.9221C32.5326 39.9324 32.5202 39.947 32.5126 39.9641C32.5043 39.9804 32.5 39.9983 32.5 40.0166C32.5 40.0348 32.5043 40.0528 32.5126 40.0691C32.5202 40.0862 32.5326 40.1007 32.5481 40.111L32.6946 40.2034C32.9674 40.378 33.2005 40.6083 33.3787 40.8794C33.5567 41.1547 33.673 41.4656 33.7197 41.7904L33.8912 42.9051C33.8946 42.9316 33.9081 42.9556 33.9289 42.9723C33.9486 42.9895 33.9738 42.9992 34 42.9996C34.0275 43.0019 34.0549 42.9945 34.0774 42.9786C34.0968 42.9611 34.1094 42.9373 34.113 42.9114L34.2866 41.7946C34.3303 41.469 34.4438 41.1568 34.6193 40.8794C34.7968 40.6043 35.0308 40.3703 35.3054 40.1929L35.454 40.1005C35.469 40.0896 35.4812 40.0752 35.4895 40.0586C35.4964 40.0419 35.5 40.0241 35.5 40.0061C35.5 39.9881 35.4964 39.9702 35.4895 39.9536C35.4812 39.9369 35.469 39.9225 35.454 39.9116L35.3054 39.8297Z" fill="#FF78B9"/>
<path d="M49.4544 35.6686C49.181 35.4939 48.9487 35.2623 48.7734 34.9898C48.5977 34.7234 48.4816 34.4225 48.4329 34.1074L48.266 33.0316C48.261 33.0056 48.2479 32.9818 48.2286 32.9637C48.2196 32.9549 48.2089 32.948 48.1972 32.9433C48.1855 32.9387 48.173 32.9364 48.1605 32.9365C48.1341 32.9367 48.1087 32.9463 48.0889 32.9637C48.0705 32.982 48.0585 33.0058 48.0549 33.0316L47.888 34.1074C47.8383 34.4211 47.7222 34.7208 47.5475 34.9864C47.3729 35.2595 47.1405 35.4912 46.8665 35.6652L46.7235 35.7568C46.7089 35.7659 46.6971 35.7788 46.6895 35.7942C46.6777 35.8182 46.6747 35.8455 46.6809 35.8715C46.6871 35.8975 46.7022 35.9206 46.7235 35.9367L46.8665 36.0249C47.1339 36.1963 47.3613 36.4228 47.5334 36.6892C47.7055 36.9556 47.8183 37.2556 47.8642 37.5692L48.0311 38.645C48.0354 38.6695 48.0473 38.6921 48.0651 38.7095C48.0852 38.7259 48.1107 38.7344 48.1366 38.7332C48.1615 38.7342 48.1858 38.7257 48.2047 38.7095C48.2247 38.6933 48.238 38.6703 48.2422 38.645L48.409 37.5692C48.4572 37.255 48.5734 36.955 48.7495 36.6901C48.9241 36.4171 49.1566 36.1854 49.4305 36.0114L49.5736 35.9231C49.5893 35.9139 49.6014 35.8995 49.6076 35.8824C49.6166 35.8669 49.6213 35.8494 49.6213 35.8315C49.6213 35.8136 49.6166 35.7961 49.6076 35.7806C49.6049 35.7723 49.6005 35.7647 49.5946 35.7583C49.5888 35.7518 49.5816 35.7467 49.5736 35.7433L49.4544 35.6686Z" fill="#3442D9"/>
<path d="M33.4475 5.77527C33.1733 5.60149 32.9408 5.36977 32.7665 5.0965C32.5924 4.8293 32.4764 4.5287 32.426 4.21409L32.2625 3.13824C32.2575 3.11225 32.2444 3.08849 32.2251 3.07036C32.2065 3.05322 32.1823 3.04355 32.157 3.04321C32.1306 3.04335 32.1052 3.05299 32.0855 3.07036C32.067 3.08867 32.055 3.11251 32.0514 3.13824L31.8846 4.21409C31.8355 4.52801 31.7194 4.82777 31.5441 5.0931C31.3688 5.36562 31.1365 5.59716 30.8631 5.77187L30.72 5.86012C30.7052 5.87033 30.6934 5.88442 30.686 5.90084C30.6793 5.91697 30.6758 5.93427 30.6758 5.95175C30.6758 5.96922 30.6793 5.98653 30.686 6.00266C30.6934 6.01908 30.7052 6.03317 30.72 6.04338L30.8631 6.13162C31.1365 6.30634 31.3688 6.53788 31.5441 6.8104C31.72 7.07544 31.8361 7.37532 31.8846 7.6894L32.0514 8.76526C32.0544 8.7902 32.0665 8.81317 32.0855 8.82974C32.1056 8.84616 32.131 8.85462 32.157 8.8535C32.1818 8.8538 32.2059 8.84539 32.2251 8.82974C32.245 8.81352 32.2584 8.79059 32.2625 8.76526L32.426 7.6894C32.4764 7.37479 32.5924 7.0742 32.7665 6.807C32.9428 6.53989 33.1751 6.31409 33.4475 6.1452L33.5905 6.05696C33.6054 6.04674 33.6172 6.03266 33.6246 6.01623C33.6313 6.0001 33.6348 5.9828 33.6348 5.96533C33.6348 5.94785 33.6313 5.93055 33.6246 5.91442C33.6172 5.89799 33.6054 5.88391 33.5905 5.87369L33.4475 5.77527Z" fill="#91FFAD"/>
<path d="M21.4517 16.7072V15.8587H20.3553L20.5221 14.8406H19.6607L19.4904 15.8587H18.2782L18.4451 14.8406H17.5836L17.4133 15.8587H16.2522V16.7072H17.2737L17.0252 18.1462H15.8027V18.9947H16.8924L16.7221 20.0128H17.5836L17.7538 18.9947H18.9694L18.7958 20.0128H19.6607L19.8309 18.9947H20.9852V18.1462H19.9637L20.2021 16.7072H21.4517ZM19.1261 18.1462H17.8968L18.1352 16.7072H19.3508L19.1261 18.1462Z" fill="white"/>
<path d="M8.64904 5.08317V4.23471H7.56624L7.73649 3.21655H6.8716L6.70476 4.23471H5.48915L5.6594 3.21655H4.79452L4.62767 4.23471H3.46314V5.08317H4.48466L4.2463 6.52217H3.01367V7.37064H4.10329L3.93304 8.38879H4.79452L4.96818 7.37064H6.18038L6.01012 8.38879H6.8716L7.04526 7.37064H8.19958V6.52217H7.17806L7.41982 5.08317H8.64904ZM6.32339 6.52217H5.10778L5.34954 5.08317H6.56174L6.32339 6.52217Z" fill="#808AFF"/>
<path d="M8.64904 28.3312V27.4828H7.56624L7.73649 26.4646H6.8716L6.70476 27.4828H5.48915L5.6594 26.4646H4.79452L4.62767 27.4828H3.46314V28.3312H4.48466L4.2463 29.7702H3.01367V30.6187H4.10329L3.93304 31.6368H4.79452L4.96818 30.6187H6.18038L6.01012 31.6368H6.8716L7.04526 30.6187H8.19958V29.7702H7.17806L7.41982 28.3312H8.64904ZM6.32339 29.7702H5.10778L5.34954 28.3312H6.56174L6.32339 29.7702Z" fill="#808AFF"/>
<path d="M9.14904 40.0844V39.2359H8.06624L8.23649 38.2178H7.3716L7.20476 39.2359H5.98915L6.1594 38.2178H5.29452L5.12767 39.2359H3.96314V40.0844H4.98466L4.7463 41.5234H3.51367V42.3719H4.60329L4.43304 43.39H5.29452L5.46818 42.3719H6.68038L6.51012 43.39H7.3716L7.54526 42.3719H8.69958V41.5234H7.67806L7.91982 40.0844H9.14904ZM6.82339 41.5234H5.60778L5.84954 40.0844H7.06174L6.82339 41.5234Z" fill="#808AFF"/>
<path d="M67.4308 46.5468L73.5957 35.8243L77.8645 38.3998L71.6996 49.1223L67.4308 46.5468Z" fill="#343C46"/>
<path d="M77.8648 38.3994L71.6996 49.1223L77.4179 52.5723C78.9148 53.4754 80.8346 52.9789 81.7061 51.4633L84.7158 46.2286C85.5872 44.713 85.0801 42.7524 83.5832 41.8492L77.8648 38.3994Z" fill="#ED718B"/>
<path d="M50.3041 21.7722L73.5957 35.8243L67.4308 46.5468L44.1392 32.4947L50.3041 21.7722Z" fill="#FF9842"/>
<path opacity="0.05" d="M46.4227 28.523L47.9004 25.9529L71.192 40.005L69.7143 42.5751L46.4227 28.523Z" fill="white"/>
<path d="M51.1729 25.3455L49.3125 25.3456C48.8319 25.3456 48.5311 25.8688 48.7642 26.2993L49.6662 27.966C49.8992 28.3966 49.5984 28.9198 49.1178 28.9198L47.2575 28.9199C46.7768 28.9199 46.4761 29.4432 46.7091 29.8737L47.6111 31.5404C47.8441 31.9709 47.5433 32.4941 47.0628 32.4941L44.1379 32.4942C42.929 31.7648 41.8981 30.7633 41.1257 29.5674L36.7198 22.7463C35.8759 21.4398 36.859 19.7301 38.3836 19.8525L46.3436 20.492C47.7393 20.604 49.0941 21.0419 50.3032 21.7712L51.7214 24.3916C51.9543 24.8222 51.6534 25.3455 51.1729 25.3455Z" fill="#FBE096"/>
<path d="M39.3333 26.7906L36.721 22.7464C35.8772 21.4399 36.8602 19.7302 38.3848 19.8526L43.1043 20.2318L39.3333 26.7906Z" fill="#404B58"/>
<path opacity="0.1" d="M84.7157 46.2287L83.5694 48.2223C84.4407 46.7067 83.9337 44.7461 82.4369 43.8429L76.7186 40.393L72.4496 37.8175L49.1572 23.7648C47.9483 23.0355 46.5934 22.5976 45.1977 22.4855L37.2377 21.846C36.9445 21.8225 36.6715 21.8672 36.4274 21.9635C36.2752 20.8498 37.1527 19.7535 38.384 19.8525L46.3439 20.4919C47.7396 20.604 49.0945 21.0418 50.3036 21.7712L73.5958 35.8238L77.8648 38.3993L83.5831 41.8492C85.0799 42.7524 85.587 44.7131 84.7157 46.2287Z" fill="white"/>
</svg>
