<svg height="110" viewBox="0 0 184 110" width="184" xmlns="http://www.w3.org/2000/svg" xmlns:xlink="http://www.w3.org/1999/xlink"><mask id="a" fill="#fff"><path d="m0 107h182v-106.617h-182z" fill="#fff" fill-rule="evenodd"/></mask><g fill="none" fill-rule="evenodd"><g transform="translate(1 1)"><path d="m138.4623.8503h-137.752m145.4043 0h-3.316" stroke="#1e2126" stroke-linecap="round" stroke-linejoin="round" stroke-width="2" transform="translate(9 105.617)"/><path d="m67.788 25.389h4.175v-11.553h-4.175z" fill="#e4e9f8"/><path d="m67.788 25.389h4.175v-11.553h-4.175z" stroke="#1e2126" stroke-linecap="round" stroke-linejoin="round" stroke-width="2"/><path d="m58.049 14.487h23.654v-7.604h-23.654z" fill="#7687b2"/><path d="m58.049 14.487h23.654v-7.604h-23.654z" stroke="#1e2126" stroke-linecap="round" stroke-linejoin="round" stroke-width="2"/><path d="m64.385 16.176h10.982v-10.982h-10.982z" fill="#fff"/><g transform="translate(0 .617)"><path d="m72.3109 10.0681c0 1.345-1.091 2.436-2.436 2.436-1.344 0-2.434-1.091-2.434-2.436s1.09-2.435 2.434-2.435c1.345 0 2.436 1.09 2.436 2.435z" fill="#7687b2"/><path d="m72.4105 10.0681c0 1.4-1.135 2.534-2.535 2.534s-2.534-1.134-2.534-2.534c0-1.399 1.134-2.534 2.534-2.534s2.535 1.135 2.535 2.534z" stroke="#1e2126" stroke-linecap="round" stroke-linejoin="round" stroke-width="2"/><path d="m64.385 15.559h10.982v-10.982h-10.982z" mask="url(#a)" stroke="#1e2126" stroke-linecap="round" stroke-linejoin="round" stroke-width="2"/><path d="m62.223 106h36.177v-4.87h-36.177z" fill="#e4e9f8" mask="url(#a)"/><path d="m62.223 106h36.177v-4.87h-36.177z" mask="url(#a)" stroke="#1e2126" stroke-linecap="round" stroke-linejoin="round" stroke-width="2"/><path d="m59.439 103.189h24.351v-24.35h-24.351z" fill="#e4e9f8" mask="url(#a)"/><path d="m59.439 103.189h24.351v-24.35h-24.351z" mask="url(#a)" stroke="#1e2126" stroke-linecap="round" stroke-linejoin="round" stroke-width="2"/><path d="m49.7 106h41.743v-4.87h-41.743z" fill="#e4e9f8" mask="url(#a)"/><path d="m73.027 101.13h18.416v4.87h-41.743v-4.87h16.251" mask="url(#a)" stroke="#1e2126" stroke-linecap="round" stroke-linejoin="round" stroke-width="2"/><path d="m1 91.711h139.143v-72.354h-139.143z" fill="#fff" mask="url(#a)"/><path d="m1 91.711h139.143v-72.354h-139.143z" mask="url(#a)" stroke="#1e2126" stroke-linecap="round" stroke-linejoin="round" stroke-width="2"/><path d="m7.957 84.753h125.229v-58.439h-125.229z" fill="#7687b2" mask="url(#a)"/><path d="m7.957 84.753h125.229v-58.439h-125.229z" mask="url(#a)" stroke="#1e2126" stroke-linecap="round" stroke-linejoin="round" stroke-width="2"/><path d="m36.407 103.218h5.566v-5.566h-5.566z" fill="#e4e9f8" mask="url(#a)"/><path d="m44.756 103.218h5.566v-5.566h-5.566z" fill="#e4e9f8" mask="url(#a)"/><path d="m53.104 103.218h5.565v-5.566h-5.565z" fill="#e4e9f8" mask="url(#a)"/><path d="m61.453 103.218h30.611v-5.566h-30.611z" fill="#e4e9f8" mask="url(#a)"/><path d="m111.545 103.218h5.565v-5.566h-5.565z" fill="#e4e9f8" mask="url(#a)"/><path d="m103.196 103.218h5.565v-5.566h-5.565z" fill="#e4e9f8" mask="url(#a)"/><path d="m94.847 103.218h5.565v-5.566h-5.565z" fill="#e4e9f8" mask="url(#a)"/><g stroke="#1e2126" stroke-linecap="round" stroke-linejoin="round" stroke-width="2"><path d="m36.407 103.218h5.566v-5.566h-5.566z" mask="url(#a)"/><path d="m44.756 103.218h5.566v-5.566h-5.566z" mask="url(#a)"/><path d="m53.104 103.218h5.565v-5.566h-5.565z" mask="url(#a)"/><path d="m61.453 103.218h30.611v-5.566h-30.611z" mask="url(#a)"/><path d="m111.545 103.218h5.565v-5.566h-5.565z" mask="url(#a)"/><path d="m103.196 103.218h5.565v-5.566h-5.565z" mask="url(#a)"/><path d="m94.847 103.218h5.565v-5.566h-5.565z" mask="url(#a)"/></g><path d="m34.32 106h84.877v-4.87h-84.877z" fill="#fff" mask="url(#a)"/><path d="m34.32 106h84.877v-4.87h-84.877z" mask="url(#a)" stroke="#1e2126" stroke-linecap="round" stroke-linejoin="round" stroke-width="2"/><path d="m30.842 103.218h5.565v-5.566h-5.565z" fill="#e4e9f8" mask="url(#a)"/><path d="m39.19 103.218h5.565v-5.566h-5.565z" fill="#e4e9f8" mask="url(#a)"/><path d="m47.539 103.218h5.565v-5.566h-5.565z" fill="#e4e9f8" mask="url(#a)"/><path d="m55.887 103.218h30.611v-5.566h-30.611z" fill="#e4e9f8" mask="url(#a)"/><path d="m105.978 103.218h5.566v-5.566h-5.566z" fill="#e4e9f8" mask="url(#a)"/><path d="m97.631 103.218h5.565v-5.566h-5.565z" fill="#e4e9f8" mask="url(#a)"/><path d="m89.282 103.218h5.565v-5.566h-5.565z" fill="#e4e9f8" mask="url(#a)"/><path d="m30.842 103.218h5.565v-5.566h-5.565z" mask="url(#a)" stroke="#1e2126" stroke-linecap="round" stroke-linejoin="round" stroke-width="2"/><path d="m39.19 103.218h5.565v-5.566h-5.565z" mask="url(#a)" stroke="#1e2126" stroke-linecap="round" stroke-linejoin="round" stroke-width="2"/><path d="m47.539 103.218h5.565v-5.566h-5.565z" mask="url(#a)" stroke="#1e2126" stroke-linecap="round" stroke-linejoin="round" stroke-width="2"/><path d="m55.887 103.218h30.611v-5.566h-30.611z" mask="url(#a)" stroke="#1e2126" stroke-linecap="round" stroke-linejoin="round" stroke-width="2"/><path d="m105.978 103.218h5.566v-5.566h-5.566z" mask="url(#a)" stroke="#1e2126" stroke-linecap="round" stroke-linejoin="round" stroke-width="2"/><path d="m97.631 103.218h5.565v-5.566h-5.565z" mask="url(#a)" stroke="#1e2126" stroke-linecap="round" stroke-linejoin="round" stroke-width="2"/><path d="m89.282 103.218h5.565v-5.566h-5.565z" mask="url(#a)" stroke="#1e2126" stroke-linecap="round" stroke-linejoin="round" stroke-width="2"/><path d="m28.754 106h84.877v-4.87h-84.877z" fill="#fff" mask="url(#a)"/><path d="m113.631 106h-84.877v-4.87h84.877" mask="url(#a)" stroke="#1e2126" stroke-linecap="round" stroke-linejoin="round" stroke-width="2"/><path d="m130.0648 84.283h-15.175v-20.866c0-4.191 3.397-7.588 7.587-7.588 4.192 0 7.588 3.397 7.588 7.588z" fill="#7687b2" mask="url(#a)"/><path d="m119.316 101.207h6.323v-20.198h-6.323z" fill="#d5dbed" mask="url(#a)"/><path d="m119.316 101.207h6.323v-20.198h-6.323z" mask="url(#a)" stroke="#1e2126" stroke-linecap="round" stroke-linejoin="round" stroke-width="2"/><path d="m127.8519 105.8503h-10.749c-1.223 0-2.213-.991-2.213-2.213 0-1.223.99-2.213 2.213-2.213h10.749c1.223 0 2.213.99 2.213 2.213 0 1.222-.99 2.213-2.213 2.213" fill="#fff" mask="url(#a)"/><path d="m127.8519 105.8503h-10.749c-1.223 0-2.213-.991-2.213-2.213 0-1.223.99-2.213 2.213-2.213h10.749c1.223 0 2.213.99 2.213 2.213 0 1.222-.99 2.213-2.213 2.213zm2.2129-21.5673h-15.175v-20.866c0-4.191 3.397-7.588 7.587-7.588 4.192 0 7.588 3.397 7.588 7.588z" mask="url(#a)" stroke="#1e2126" stroke-linecap="round" stroke-linejoin="round" stroke-width="2"/><path d="m123.7826 91.2019h-2.61c-4.518 0-8.18-3.662-8.18-8.18v-9.567c0-1.004.813-1.818 1.817-1.818h15.334c1.004 0 1.819.814 1.819 1.818v9.567c0 4.518-3.662 8.18-8.18 8.18" fill="#fff" mask="url(#a)"/><path d="m123.7826 91.2019h-2.61c-4.518 0-8.18-3.662-8.18-8.18v-9.567c0-1.004.813-1.818 1.817-1.818h15.334c1.004 0 1.819.814 1.819 1.818v9.567c0 4.518-3.662 8.18-8.18 8.18z" mask="url(#a)" stroke="#1e2126" stroke-linecap="round" stroke-linejoin="round" stroke-width="2"/><path d="m126.2709 80.5447c0 2.096-1.698 3.794-3.794 3.794-2.095 0-3.794-1.698-3.794-3.794s1.699-3.794 3.794-3.794c2.096 0 3.794 1.698 3.794 3.794" fill="#efeff4" mask="url(#a)"/><path d="m126.2709 80.5447c0 2.096-1.698 3.794-3.794 3.794-2.095 0-3.794-1.698-3.794-3.794s1.699-3.794 3.794-3.794c2.096 0 3.794 1.698 3.794 3.794zm-11.3809-17.5342 9.344 8.626m-6.801-14.5283 12.642 11.669m13.8707 19.3954v1.952c0 3.492-2.831 6.323-6.323 6.323h-18.307" mask="url(#a)" stroke="#1e2126" stroke-linecap="round" stroke-linejoin="round" stroke-width="2"/><path d="m140.1517 75.2878h7.588v12.317c0 .502-.406.91-.908.91h-5.771c-.502 0-.909-.408-.909-.91z" fill="#e4e9f8" mask="url(#a)"/><path d="m140.1517 75.2878h7.588v12.317c0 .502-.406.91-.908.91h-5.771c-.502 0-.909-.408-.909-.91z" mask="url(#a)" stroke="#1e2126" stroke-linecap="round" stroke-linejoin="round" stroke-width="2"/><path d="m123.7699 64.615c0-11.144 9.033-20.176 20.176-20.176s20.176 9.032 20.176 20.176c0 11.143-9.033 20.175-20.176 20.175s-20.176-9.032-20.176-20.175" fill="#fff" mask="url(#a)"/><path d="m123.7699 64.615c0-11.144 9.033-20.176 20.176-20.176s20.176 9.032 20.176 20.176c0 11.143-9.033 20.175-20.176 20.175s-20.176-9.032-20.176-20.175z" mask="url(#a)" stroke="#1e2126" stroke-linecap="round" stroke-linejoin="round" stroke-width="2"/><path d="m128.2924 64.615c0-8.646 7.009-15.654 15.653-15.654 8.646 0 15.655 7.008 15.655 15.654 0 8.645-7.009 15.653-15.655 15.653-8.644 0-15.653-7.008-15.653-15.653" fill="#7687b2" mask="url(#a)"/><path d="m147.7679 49.4314c-1.223-.308-2.504-.471-3.822-.471-8.645 0-15.654 7.009-15.654 15.655 0 8.644 7.009 15.653 15.654 15.653s15.654-7.009 15.654-15.653c0-4.064-1.549-7.765-4.087-10.547m-3.827-3.0638c.581.332 1.139.699 1.67 1.1m25.8974 27.3385v3.492m1.7471-1.7459h-3.493m-38.4543-79.8066v3.492m1.7461-1.7459h-3.492m-34.425 32.6767-.823.823m-3.2932 3.2932-.823.823m4.9392.0003-.823-.823m-3.2932-3.2932-.823-.823m59.1394-23.0159c0 .965-.782 1.747-1.746 1.747-.965 0-1.746-.782-1.746-1.747 0-.964.781-1.746 1.746-1.746.964 0 1.746.782 1.746 1.746z" mask="url(#a)" stroke="#1e2126" stroke-linecap="round" stroke-linejoin="round" stroke-width="2"/></g></g><path d="m0 0h184v110h-184z"/></g></svg>