<svg enable-background="new 0 0 425.623 519.375" height="519.375" viewBox="0 0 425.623 519.375" width="425.623" xmlns="http://www.w3.org/2000/svg" xmlns:xlink="http://www.w3.org/1999/xlink"><clipPath id="a"><path d="m0-3.621h426.082v536.12h-426.082z"/></clipPath><path clip-path="url(#a)" d="m0 .003h425.717v425.712h-425.717z" fill="#a5c400"/><path clip-path="url(#a)" d="m126.872 59.573h167.75c-18.741 96.225-48.536 196.696-50.243 305.68h-68.975c4.261-83.44 22.571-166.038 42.578-246.929h-91.11z" fill="#fff"/><path clip-path="url(#a)" d="m.009 519.375h425.708v-519.372h-425.708m417.195 417.189h-408.682v-408.681h408.681v408.681z"/><path clip-path="url(#a)" d="m381.254 17.033v3.159h-6.739v21.33h-3.949v-21.33h-6.729v-3.159zm27.437 24.489h-3.959v-19.288h-.115l-6.787 19.288h-3.221l-6.452-19.288h-.124v19.288h-3.95v-24.489h6.279l6.106 18.219h.115l5.943-18.219h6.164v24.489z"/><g fill="#fff"><path clip-path="url(#a)" d="m27.043 487.452h7.224l6.638-32.287h.144l6.931 32.287h6.783l9.356-39.525h-6.48l-6.117 32.316h-.153l-6.557-32.316h-7.295l-6.716 32.316h-.148l-6.342-32.316h-6.485z"/><path clip-path="url(#a)" d="m74.842 487.452h7.223l6.634-32.287h.158l6.931 32.287h6.763l9.376-39.525h-6.49l-6.116 32.316h-.158l-6.567-32.316h-7.291l-6.705 32.316h-.149l-6.342-32.316h-6.489z"/><path clip-path="url(#a)" d="m122.63 487.452h7.228l6.634-32.287h.149l6.941 32.287h6.772l9.366-39.525h-6.48l-6.126 32.316h-.148l-6.567-32.316h-7.295l-6.711 32.316h-.148l-6.342-32.316h-6.5z"/><path clip-path="url(#a)" d="m163.21 479.648h6.778v7.804h-6.778z"/><path clip-path="url(#a)" clip-rule="evenodd" d="m185.326 467.704c0-9.012 1.107-15.492 7.972-15.492 5.751 0 7.223 6.059 7.223 14.744 0 10.181-1.472 16.221-7.223 16.221-6.639 0-7.972-7.814-7.972-15.473m-5.824 32.728h6.188v-17.466h.153c1.404 3.384 4.726 5.521 8.259 5.521 10.248 0 12.908-12.539 12.908-21.531 0-11.715-3.533-20.055-12.908-20.055-4.281 0-7.736 2.962-8.551 5.905h-.148v-4.88h-5.901z" fill-rule="evenodd"/><path clip-path="url(#a)" clip-rule="evenodd" d="m219.042 463.563v-1.477c0-2.339.729-10.314 7.219-10.314 5.455 0 6.864 5.225 6.864 9.653v2.138zm20.563 4.87v-2.502c0-8.484-1.112-19.029-13.201-19.029-12.155 0-14.083 11.427-14.083 21.32 0 13.564 4.055 20.266 13.718 20.266 10.766 0 13.268-9.807 13.268-14.006h-6.183c0 2.943-.825 9.146-6.721 9.146-7.583 0-7.583-9.146-7.583-15.194h20.785z" fill-rule="evenodd"/><path clip-path="url(#a)" clip-rule="evenodd" d="m258.634 452.212c6.634 0 7.956 7.813 7.956 15.492 0 8.091-1.322 14.446-8.033 14.446-6.174 0-7.151-8.043-7.151-14.446 0-9.433 1.476-15.492 7.228-15.492m13.785-4.285h-5.896v5.033h-.163c-.806-3.106-4.267-6.059-8.552-6.059-10.018 0-12.884 10.104-12.884 20.803 0 5.234.729 19.748 12.232 19.748 3.911 0 7.593-1.994 8.925-5.302h.153v5.167c0 2.723.288 8.839-7.679 8.839-3.24 0-6.059-1.399-6.337-5.004h-6.192c1.016 9.874 10.535 9.874 12.951 9.874 7.976 0 13.44-4.275 13.44-16.076v-37.023z" fill-rule="evenodd"/><path clip-path="url(#a)" clip-rule="evenodd" d="m280.922 487.452h6.184v-39.516h-6.184zm0-45.555h6.184v-7.095h-6.184z" fill-rule="evenodd"/><path clip-path="url(#a)" d="m296.97 479.648h6.787v7.804h-6.787z"/><path clip-path="url(#a)" clip-rule="evenodd" d="m313.641 487.452h6.202v-39.516h-6.202zm0-45.555h6.202v-7.095h-6.202z" fill-rule="evenodd"/><path clip-path="url(#a)" d="m328.328 487.452h6.174v-27.273c0-5.752 4.506-7.967 7.822-7.967 5.599 0 5.829 4.946 5.829 7.967v27.273h6.192v-28.021c0-4.63 0-12.529-10.411-12.529-3.815 0-7.947 2.07-9.567 5.694h-.153v-4.669h-5.886z"/><path clip-path="url(#a)" d="m364.306 487.452h6.222v-34.646h6.758v-4.88h-6.758v-4.63c0-2.732 1.304-3.758 3.969-3.758h2.866v-5.312h-4.496c-5.982 0-8.561 3.097-8.561 9.069v4.63h-5.743v4.88h5.743z"/><path clip-path="url(#a)" clip-rule="evenodd" d="m379.634 467.704c0 11.12 2.818 20.783 14.236 20.783 11.36 0 14.227-9.663 14.227-20.783 0-11.149-2.8-20.803-14.227-20.803-11.34 0-14.236 9.654-14.236 20.803m14.093 15.933c-6.347 0-7.583-7.401-7.583-15.933 0-8.57 1.332-15.933 7.583-15.933 6.634 0 7.899 7.362 7.899 15.933 0 8.531-1.333 15.933-7.899 15.933" fill-rule="evenodd"/></g></svg>