<?xml version="1.0" encoding="utf-8"?>
<!-- Generator: Adobe Illustrator 19.0.0, SVG Export Plug-In . SVG Version: 6.00 Build 0)  -->
<svg version="1.1" id="layer" xmlns="http://www.w3.org/2000/svg" xmlns:xlink="http://www.w3.org/1999/xlink" x="0px" y="0px"
	 viewBox="-153 -46 652 652" style="enable-background:new -153 -46 652 652;" xml:space="preserve">
<!-- <style type="text/css">
	.st0{fill:#D13239;}
	.st1{fill:#B3B2B1;}
</style> -->
<g opacity="0.07" fill="black">
	<polygon class="st0" points="-6.3,291.6 43.3,291.5 41.5,302.8 0,342.3 34.8,342.3 32.8,354.4 -18.4,354.4 -16.3,341.9 23.4,303.8 
		-8.3,303.8 	"/>
	<path class="st0" d="M-60.4,272.3c-1.1-1.1-2.6-2-4.3-2.7c-1.8-0.7-3.8-1.2-5.8-1.6c-2.5-0.4-4.9-0.6-6.6-0.7
		c-1.6-0.1-2.6-0.1-2.6-0.1h-21.7h-16.1l-14.4,87.2h13.5l5.3-32.3l26.2,0.1c0,0,10.2,0.4,17.4-3.4c7.2-3.8,9.2-12.5,9.2-12.5
		s0.8-3.2,1.5-7.2c0.7-4.3,1.5-9.5,1.8-12.3c0.2-1.2,0.3-2,0.3-2s0.2-0.9,0.2-2.3c0-1.9-0.3-4.8-1.8-7.6
		C-59,274-59.6,273.1-60.4,272.3z M-70.8,287.7c0,0.2-1.2,7.2-2.8,15.5c-0.6,3.2-3,4.9-5.8,5.5c-4.6,1-9.6,0.8-9.6,0.8l-21.9-0.1
		l4.8-29l19.8,0.1c0,0,1.3,0,3.2,0c2.1,0,4.9,0.1,7.3,0.4c2,0.3,3.6,0.7,4.1,1.3c0.7,0.8,0.9,1.9,1,2.9
		C-70.6,286.4-70.8,287.6-70.8,287.7z"/>
	<polygon class="st0" points="110.4,267.2 123.4,267.2 108.9,354.4 95.9,354.4 	"/>
	<polygon class="st0" points="179.7,291.6 192.2,291.5 196.6,335.8 215.7,291.5 231.1,291.5 235.6,336 254.7,291.5 267.7,291.5 
		240.2,354.4 224.9,354.4 220.5,310.4 201.1,354.4 186.1,354.4 	"/>
	<g>
		<path class="st0" d="M86.5,292.1c-3.6-1.2-9.9-1.4-15.3-1.4c-5.2,0.1-7.5,0.3-9.5,0.7c0,0-9.2,1.3-14.4,7.8
			c-5.2,6.5-6.8,20.6-6.8,20.6s-3.1,15.6-2.2,20.8c0.9,5.2,2.5,10,8.4,12.3c5.9,2.3,10.9,2.2,10.9,2.2s10.5,0.8,18.4-1
			s12.1-7.4,12.1-7.4s1.9-2.4,3.2-5.3c1.3-2.9,1.7-4.8,1.8-5.1l0.8-3.4l-13.5,0c0,0-0.7,8.9-8,9.7c-7.3,0.8-11.1,0.5-12.6,0.4
			c-1.4-0.1-9.2,0.3-8.6-6.2c0-0.1,0-0.2,0-0.4c0.3-7.4,1.2-9.3,1.2-9.3l42.3-0.1l1.8-10.5C98.8,304.6,97.3,295.6,86.5,292.1z
			 M83.6,315l-29,0l1.1-4.6c0,0,1-3.6,3-5.1c2-1.5,4.6-1.8,7-2c2.4-0.2,8.8-0.7,14.1,0.4c1.7,0.3,3.4,1.3,3.8,2.8
			C84.7,309.8,83.6,315,83.6,315z"/>
		<path class="st0" d="M51.5,336.5c0,0.1,0,0.2,0,0.3C51.4,337.3,51.5,336.5,51.5,336.5z"/>
	</g>
	<g>
		<path class="st0" d="M131.2,336.6c0,0.1,0,0.2,0,0.3C131.2,337.3,131.2,336.5,131.2,336.6z"/>
		<path class="st0" d="M166.2,292.1c-3.6-1.2-9.9-1.4-15.3-1.4c-5.2,0.1-7.5,0.3-9.5,0.7c0,0-9.2,1.3-14.4,7.8
			c-5.2,6.5-6.8,20.6-6.8,20.6s-3.1,15.6-2.2,20.8c0.9,5.2,2.5,10,8.4,12.3c5.9,2.3,10.9,2.2,10.9,2.2s10.5,0.8,18.4-1
			c7.9-1.9,12.1-7.4,12.1-7.4s1.9-2.4,3.2-5.3c1.3-2.9,1.7-4.8,1.8-5.1l0.8-3.4l-13.5,0c0,0-0.7,8.9-8,9.7
			c-7.3,0.8-11.1,0.5-12.6,0.5c-1.4-0.1-9.2,0.3-8.6-6.2c0-0.1,0-0.2,0-0.4c0.3-7.4,1.2-9.3,1.2-9.3l42.3-0.1l1.8-10.5
			C178.5,304.7,177.1,295.6,166.2,292.1z M163.3,315l-29,0l1.1-4.6c0,0,1-3.6,3-5.1c2-1.5,4.6-1.8,7-2s8.8-0.7,14.1,0.4
			c1.7,0.3,3.4,1.3,3.8,2.8C164.4,309.8,163.3,315,163.3,315z"/>
	</g>
	<path class="st0" d="M282.6,291.6l8.3,46l23.5-46l13.2,0.1l-33.9,65.7c0,0-6.1,11.9-9.9,14.9s-6.1,4.4-9.2,4.7
		c-3.1,0.3-4.4,0.5-7.3,0l-3.2-0.6l2-11.7c0,0,5.3,1,8.4-0.3c3.1-1.2,5.6-6.6,5.6-6.6l1.6-2.7l-12.3-63.7L282.6,291.6L282.6,291.6z"
		/>
	<path class="st1" d="M332.5,297.8l13.6,0l0.8-5.3c0,0,1.5-9.6,4.7-11.4c1-0.6,2.7-1.1,4.7-1.5c3.6-0.6,8.1-0.7,11.8-0.6
		c5.7,0.2,7.8,0.3,13.6,0.9c5.8,0.7,4.3,6.2,4.3,6.2l-1.1,8.3c0,0-0.5,3.7-1.8,6c-1.2,2.1-4.4,3.5-6.3,4.1
		c-4.5,1.5-19.9,5.4-19.9,5.4l-12.1,3.5c0,0-7.4,2.2-11.6,6.7c-4.2,4.6-5.8,9.8-6.4,12.6c-0.6,2.7-3.8,21.6-3.8,21.6l65.3,0l2.2-13
		l-51.6,0.1l0.9-5.3c0,0,0.6-5.5,2.8-7.3c0.7-0.6,1-1.3,5.2-2.8c2.5-0.9,10.9-3.1,10.9-3.1l19.5-5.3c0,0,10.6-2.7,14.8-8.6
		c4.2-5.8,5.8-16.9,5.8-16.9s1.1-10.8,0.3-14.2c-0.9-3.4-4.1-7.4-7.9-9.2c-3.9-1.7-7.9-2.8-19.7-2.6c-11.7,0.2-17.6,0.7-23.5,2.9
		c-6,2.2-9.4,6.2-11.6,11.8C333.9,286.3,332.5,297.8,332.5,297.8L332.5,297.8z"/>
	<path class="st1" d="M455.4,322.1l9.2-54.8h-16.2l-50.5,54.2l-2.3,13.7h44.1l-3.2,19.3l13.6,0l3.2-19.3l12.5,0l2.2-13.1
		L455.4,322.1z M442,322.1l-28.5,0l34.7-37L442,322.1z"/>
	<path class="st1" d="M-31.8,274.4H9.8c0,0,9.3-7.5,15.9-12.4c6.6-4.8,18.7-12.5,18.7-12.5l-23.5-11c0,0-19.9,12.3-28.3,18.1
		C-15.6,262-31.8,274.4-31.8,274.4L-31.8,274.4z"/>
	<path class="st1" d="M57.5,241.8l-19.3-13c0,0,17.4-9.9,40.7-19.2c23.2-9.2,35.6-13.1,35.6-13.1l3.9,18.4c0,0-22.3,7.5-35.1,13.5
		C70.1,234.1,57.5,241.8,57.5,241.8L57.5,241.8z"/>
	<path class="st1" d="M132.7,210.9l-3.4-18.8c0,0,23.8-6.3,45.6-10.4c21.8-4.1,50.7-6,50.7-6l-9.6,29.1c0,0-25.4-3.5-49.3-0.2
		C148.2,206.8,132.7,210.9,132.7,210.9L132.7,210.9z"/>
	<path class="st1" d="M231.2,207.3l16.1-32.3c0,0,35.2-0.7,65.6,4c30.4,4.7,58.2,11.9,57.6,12.2l-77.1,40.3c0,0-18-11.4-40.4-18.4
		C240.4,209.4,231.2,207.3,231.2,207.3L231.2,207.3z"/>
	<path class="st1" d="M307.3,240.3l16.9,12.9h139.2c0,0-0.3-4.5-4-10.9c-2.3-4-6.5-8.2-10.9-12.6c-1.6-1.6-8-6.6-12.8-9.7
		c-12.3-8-19.2-11.1-31.9-16.8L307.3,240.3L307.3,240.3z"/>
	<path class="st0" d="M-22.8,291.5c-5.2,0-10.2,2.1-14.4,4.4l0.7-4.4h-13.8l-11.1,62.6h13.9l6.1-34.7c1.3-7,6.5-15.7,16.8-15.7
		l7.2,0l2.2-12.2H-22.8z"/>
</g>
</svg>
