<svg height="128" width="128" xmlns="http://www.w3.org/2000/svg"><g fill="#fff" fill-rule="evenodd"><path d="m106.4858667 34.4328667c1.5253333-9.7253334-.0106667-16.344-5.272-22.3386667-5.7893334-6.6-16.2506667-9.42666667-29.6426667-9.42666667h-38.8586667c-2.7333333 0-5.0613333 1.98933334-5.4906666 4.69333334l-16.18133337 102.60800033c-.32 2.026666 1.24533334 3.853333 3.29333334 3.853333h23.99200003l-1.6586667 10.504c-.2773333 1.770667 1.0933333 3.370667 2.8826667 3.370667h20.2213333c2.3946667 0 4.4346667-1.744 4.8053333-4.104l.1973334-1.029334 3.8133333-24.1546663.2426667-1.3333334c.376-2.3653333 2.4106666-4.1066666 4.808-4.1066666h3.0213333c19.5893333 0 34.928-7.96 39.413333-30.976 1.869334-9.6186667.904-17.6453334-4.050666-23.2906667-1.4960003-1.7066667-3.362667-3.1173333-5.5360003-4.2693333" opacity=".68"/><path d="m106.4858667 34.4328667c1.5253333-9.7253334-.0106667-16.344-5.272-22.3386667-5.7893334-6.6-16.2506667-9.42666667-29.6426667-9.42666667h-38.8586667c-2.7333333 0-5.0613333 1.98933334-5.4906666 4.69333334l-16.18133337 102.60800033c-.32 2.026666 1.24533334 3.853333 3.29333334 3.853333h23.99200003l6.024-38.2133333-.1866667 1.2c.4293333-2.7013334 2.736-4.6906667 5.4746667-4.6906667h11.4026666c22.3893334 0 39.928-9.0986667 45.0506667-35.4106667.1493333-.7786666.2773333-1.5333333.3946667-2.2746666" opacity=".7"/><path d="m50.8258667 34.5616c.256-1.6266667 1.2986666-2.9573333 2.704-3.6293333.64-.3066667 1.352-.4773334 2.1013333-.4773334h30.4613333c3.608 0 6.9706667.2373334 10.048.7333334.88.1413333 1.7333334.304 2.5653334.488s1.6373333.3893333 2.4186666.6186666c.3893334.1146667.7733334.2346667 1.1493334.3573334 1.512.504 2.92 1.096 4.2133333 1.7813333 1.5253333-9.728-.0106667-16.3466667-5.272-22.3386667-5.7893333-6.59999997-16.2533333-9.42666663-29.6426667-9.42666663h-38.8586666c-2.736 0-5.0666667 1.98933333-5.4906667 4.69333333l-16.18133333 102.608c-.32 2.024 1.24533333 3.856 3.29333333 3.856h23.9893333l6.0266667-38.2133333z"/></g></svg>