<svg height="300" viewBox="0 0 440 300" width="440" xmlns="http://www.w3.org/2000/svg"><g fill="none" fill-rule="evenodd"><path d="m0 0h440v303h-440z" fill="#2f3136"/><g fill="#18191c"><path d="m-123.559 32.441h175.951v175.951h-175.951z" transform="matrix(.70710678 .70710678 -.70710678 .70710678 74.724658 60.430718)"/><circle cx="105.477" cy="-68.523" r="101.477"/><circle cx="347.477" cy="378.114" r="101.477"/><circle cx="260.484" cy="74.484" r="3.484"/><circle cx="260.484" cy="95.484" r="3.484"/><circle cx="239.097" cy="74.725" r="3.484"/><circle cx="218.192" cy="74.725" r="3.484"/><circle cx="197.287" cy="74.725" r="3.484"/><circle cx="280.907" cy="74.725" r="3.484"/><circle cx="301.812" cy="74.725" r="3.484"/><circle cx="322.717" cy="74.725" r="3.484"/><circle cx="239.097" cy="95.63" r="3.484"/><circle cx="218.192" cy="95.63" r="3.484"/><circle cx="197.287" cy="95.63" r="3.484"/><circle cx="280.484" cy="95.484" r="3.484"/><circle cx="301.812" cy="95.63" r="3.484"/><circle cx="322.717" cy="95.63" r="3.484"/><path d="m396.421239-146.424134h60.670597v347.349078h-60.670597c-9.260708 0-16.767996-7.507288-16.767996-16.767997 0-5.245614 2.454815-10.188965 6.634045-13.359219 16.638802-12.621756 19.895261-36.342125 7.273505-52.980927-2.081889-2.744479-4.529026-5.191615-7.273505-7.273505l-1.640098-1.244135c-14.993568-11.3737246-17.92803-32.7486379-6.554306-47.7422052 2.28422-3.011204 5.053493-5.6214082 8.194404-7.7237132 15.639414-10.4679232 19.831735-31.6321012 9.363812-47.27151469-2.102305-3.14091123-4.71251-5.91018373-7.723714-8.1944036l-3.280196-2.48827052c-14.993568-11.37372449-17.92803-32.74863779-6.554306-47.74220509 2.28422-3.011204 5.053493-5.6214082 8.194404-7.7237132 15.639414-10.4679232 19.831735-31.6321012 9.363812-47.2715145-2.102305-3.140911-4.71251-5.910184-7.723714-8.194404l-1.640098-1.244135c-7.378093-5.596827-8.822095-16.115077-3.225268-23.493171 3.170253-4.17923 8.113605-6.634045 13.359219-6.634045z" transform="matrix(.89100652 -.4539905 .4539905 .89100652 32.766009 190.98025)"/><path d="m314.876 142 54.875 109.751h-109.751z"/><path d="m48.833 123.167h58v257.667h-58z" transform="matrix(0 1 -1 0 329.833 174.167)"/><circle cx="259.131" cy="12.009" r="3.484"/><circle cx="238.226" cy="12.009" r="3.484"/><circle cx="217.321" cy="12.009" r="3.484"/><circle cx="196.416" cy="12.009" r="3.484"/><circle cx="280.036" cy="12.009" r="3.484"/><circle cx="300.941" cy="12.009" r="3.484"/><circle cx="321.846" cy="12.009" r="3.484"/><circle cx="259.131" cy="32.914" r="3.484"/><circle cx="238.226" cy="32.914" r="3.484"/><circle cx="217.321" cy="32.914" r="3.484"/><circle cx="196.416" cy="32.914" r="3.484"/><circle cx="280.036" cy="32.914" r="3.484"/><circle cx="300.941" cy="32.914" r="3.484"/><circle cx="321.846" cy="32.914" r="3.484"/><circle cx="259.131" cy="53.819" r="3.484"/><circle cx="238.226" cy="53.819" r="3.484"/><circle cx="217.321" cy="53.819" r="3.484"/><circle cx="196.416" cy="53.819" r="3.484"/><circle cx="280.036" cy="53.819" r="3.484"/><circle cx="300.941" cy="53.819" r="3.484"/><circle cx="321.846" cy="53.819" r="3.484"/></g></g></svg>