<svg width="160" height="106" viewBox="0 0 160 106" fill="none" xmlns="http://www.w3.org/2000/svg">
<g clip-path="url(#clip0_1841_103454)">
<path d="M126.388 105.981L126.249 105.124L123.192 86.2738L120.225 67.4359L114.384 29.6909C113.185 21.9057 109.36 14.7593 103.539 9.42867C97.7775 4.16041 90.4443 0.913485 82.6577 0.183057C74.8487 -0.559536 67.0194 1.3772 60.4667 5.67244C53.8583 10.0315 48.9339 16.4986 46.5017 24.0124C46.2359 24.9578 45.9195 25.9031 45.7107 26.8485L45.1602 29.735L44.4136 34.7769L42.9013 44.8607L39.8197 64.915L38.2568 74.9988L36.6496 85.0448C35.5739 91.7443 34.5108 98.4437 33.3782 105.131L33.2327 105.988H46.2486L47.1597 105.603L47.1218 105.988H112.499L112.442 105.414L113.378 105.988L126.388 105.981ZM102.242 99.1433H47.7672C48.1595 94.9648 48.5771 90.7926 48.9884 86.6204L49.9882 76.4925L51.0386 66.3771L53.152 46.1464L54.2403 36.0626L54.8035 31.0207L55.1262 28.8968C55.2464 28.1909 55.4679 27.5165 55.6261 26.817C56.4063 24.0604 57.6516 21.4561 59.3088 19.1155C61.8518 15.5542 65.2701 12.703 69.2365 10.8347C73.203 8.96644 77.5845 8.14378 81.9616 8.4455C87.8682 8.87983 93.4185 11.4246 97.5908 15.6113C101.693 19.7282 104.264 25.1145 104.88 30.882L108.835 68.8666L110.733 87.8683L111.828 99.1433H102.242Z" fill="#9ECDFF"/>
<path d="M119.415 106H40.2057L49.9882 30.2518C50.7145 24.589 53.0554 19.2523 56.7334 14.874C57.3662 14.124 58.0369 13.4055 58.7329 12.7185C60.4487 11.0461 62.3608 9.58601 64.4278 8.36989C65.0289 8.00435 65.649 7.66402 66.2818 7.3489C67.9973 6.47982 69.7946 5.78109 71.6476 5.26281C72.2424 5.09265 72.8372 4.94769 73.4446 4.81534C75.5369 4.37137 77.671 4.15164 79.8102 4.15989C81.9592 4.15718 84.1021 4.38753 86.2011 4.84685C86.8339 4.9729 87.4034 5.12416 87.9981 5.28802C89.8513 5.80844 91.6486 6.50928 93.364 7.38042C93.9967 7.69554 94.6295 8.01066 95.2116 8.3888C97.2771 9.60955 99.189 11.0715 100.906 12.7438C101.603 13.4307 102.273 14.1492 102.906 14.8992C106.573 19.272 108.905 24.5998 109.626 30.2518L119.415 106Z" fill="url(#paint0_linear_1841_103454)"/>
<path d="M146.06 92.595C153.553 92.595 159.627 86.5453 159.627 79.0827C159.627 71.62 153.553 65.5703 146.06 65.5703C138.568 65.5703 132.494 71.62 132.494 79.0827C132.494 86.5453 138.568 92.595 146.06 92.595Z" fill="url(#paint1_linear_1841_103454)"/>
<path d="M146.06 70.3225C153.553 70.3225 159.627 64.2729 159.627 56.8102C159.627 49.3475 153.553 43.2979 146.06 43.2979C138.568 43.2979 132.494 49.3475 132.494 56.8102C132.494 64.2729 138.568 70.3225 146.06 70.3225Z" fill="url(#paint2_linear_1841_103454)"/>
<path d="M79.8102 4.15967C87.1141 4.15898 94.1685 6.80679 99.6555 11.6085C105.142 16.4101 108.687 23.0372 109.626 30.2516L119.415 105.975H40.2057L49.9882 30.2516C50.9263 23.0356 54.4711 16.4069 59.9596 11.6048C65.4482 6.80275 72.5048 4.1561 79.8102 4.15967Z" fill="url(#paint3_linear_1841_103454)"/>
<path d="M111.803 106H110.012L100.881 12.7246C101.577 13.4116 102.248 14.13 102.881 14.88L111.803 106Z" fill="#365DEC"/>
<path d="M101.628 106H99.8434L93.3639 7.38037C93.9967 7.69549 94.6294 8.01061 95.2116 8.38875L101.628 106Z" fill="#365DEC"/>
<path d="M91.3264 106H89.5484L86.201 4.84668C86.8338 4.97273 87.4033 5.12399 87.9981 5.28785L91.3264 106Z" fill="#365DEC"/>
<path d="M58.7456 12.7437L49.6148 106.019H47.8241L56.746 14.8991C57.3788 14.1491 58.0495 13.4306 58.7456 12.7437Z" fill="#365DEC"/>
<path d="M66.2628 7.37402L59.7833 106H57.9989L64.4088 8.39501C65.0099 8.02947 65.63 7.68914 66.2628 7.37402Z" fill="#365DEC"/>
<path d="M73.4003 4.84033L70.053 106H68.2749L71.6285 5.2878C72.2233 5.11764 72.8181 4.97268 73.4003 4.84033Z" fill="#365DEC"/>
<path d="M77.8296 106H81.7464L80.8352 4.18506C80.4935 4.18506 80.1581 4.18506 79.8101 4.18506C79.4684 4.18506 79.1331 4.18506 78.7914 4.18506L77.8296 106Z" fill="#270813"/>
<path d="M32.9606 68.0659C33.973 68.4567 35.0107 68.8285 36.0738 69.1814" stroke="#CCE0FF" stroke-width="3.72054" stroke-miterlimit="10" stroke-linecap="round"/>
<path d="M43.0784 71.2553C66.4399 77.23 97.5338 76.9274 120.066 70.291" stroke="#CCE0FF" stroke-width="3.72054" stroke-miterlimit="10" stroke-linecap="round" stroke-dasharray="9.9 11.55"/>
<path d="M123.553 69.1878C124.616 68.8349 125.654 68.463 126.666 68.0723" stroke="#CCE0FF" stroke-width="3.72054" stroke-miterlimit="10" stroke-linecap="round"/>
<path d="M83.6574 69.8936H75.8934C74.8066 69.8936 73.9255 70.7711 73.9255 71.8536V82.5298C73.9255 83.6123 74.8066 84.4899 75.8934 84.4899H83.6574C84.7442 84.4899 85.6253 83.6123 85.6253 82.5298V71.8536C85.6253 70.7711 84.7442 69.8936 83.6574 69.8936Z" fill="#FFA600"/>
<path d="M83.6574 67.6689H75.8934C74.8066 67.6689 73.9255 68.5465 73.9255 69.629V80.3052C73.9255 81.3877 74.8066 82.2653 75.8934 82.2653H83.6574C84.7442 82.2653 85.6253 81.3877 85.6253 80.3052V69.629C85.6253 68.5465 84.7442 67.6689 83.6574 67.6689Z" fill="#FFD01A"/>
<path d="M79.8101 74.7279C80.9634 74.7279 81.8983 73.7968 81.8983 72.6481C81.8983 71.4995 80.9634 70.5684 79.8101 70.5684C78.6569 70.5684 77.722 71.4995 77.722 72.6481C77.722 73.7968 78.6569 74.7279 79.8101 74.7279Z" fill="#270813"/>
<path d="M79.8101 71.5767L77.2474 79.3601H82.3791L79.8101 71.5767Z" fill="#270813"/>
<path d="M95.5123 72.1599L90.975 72.4925C89.5321 72.5983 88.4485 73.8491 88.5547 75.2862C88.661 76.7234 89.9167 77.8026 91.3596 77.6968L95.8969 77.3642C97.3398 77.2584 98.4234 76.0076 98.3171 74.5705C98.2109 73.1333 96.9551 72.0541 95.5123 72.1599Z" stroke="#CCE0FF" stroke-width="3.72054" stroke-linecap="round" stroke-linejoin="round"/>
<path d="M108.747 70.2413L104.265 71.0181C102.84 71.2651 101.885 72.6162 102.133 74.0359C102.381 75.4556 103.738 76.4062 105.163 76.1592L109.645 75.3825C111.071 75.1355 112.025 73.7844 111.777 72.3647C111.529 70.945 110.173 69.9943 108.747 70.2413Z" stroke="#CCE0FF" stroke-width="3.72054" stroke-linecap="round" stroke-linejoin="round"/>
<path d="M121.677 67.0505L117.314 68.336C115.927 68.7448 115.135 70.1964 115.545 71.5782C115.956 72.96 117.413 73.7488 118.8 73.34L123.163 72.0545C124.55 71.6457 125.342 70.1942 124.932 68.8123C124.522 67.4305 123.064 66.6417 121.677 67.0505Z" stroke="#CCE0FF" stroke-width="3.72054" stroke-linecap="round" stroke-linejoin="round"/>
<path d="M63.7224 77.3659L68.2596 77.6986C69.7025 77.8044 70.9583 76.7251 71.0645 75.288C71.1707 73.8509 70.0871 72.6001 68.6443 72.4943L64.107 72.1616C62.6641 72.0558 61.4083 73.1351 61.3021 74.5722C61.1959 76.0094 62.2795 77.2601 63.7224 77.3659Z" stroke="#CCE0FF" stroke-width="3.72054" stroke-linecap="round" stroke-linejoin="round"/>
<path d="M49.9639 75.379L54.4461 76.1558C55.8715 76.4028 57.228 75.4521 57.476 74.0325C57.724 72.6128 56.7696 71.2616 55.3442 71.0146L50.862 70.2379C49.4366 69.9909 48.0801 70.9415 47.8321 72.3612C47.5841 73.7809 48.5385 75.132 49.9639 75.379Z" stroke="#CCE0FF" stroke-width="3.72054" stroke-linecap="round" stroke-linejoin="round"/>
<path d="M36.4558 72.0603L40.8184 73.3458C42.2058 73.7545 43.6632 72.9658 44.0736 71.5839C44.484 70.2021 43.6921 68.7505 42.3047 68.3418L37.9421 67.0563C36.5547 66.6475 35.0973 67.4363 34.6869 68.8181C34.2765 70.1999 35.0684 71.6515 36.4558 72.0603Z" stroke="#CCE0FF" stroke-width="3.72054" stroke-linecap="round" stroke-linejoin="round"/>
<path d="M155.469 90.7671H137.05C136.075 90.7671 135.284 91.5543 135.284 92.5255V104.229C135.284 105.2 136.075 105.987 137.05 105.987H155.469C156.444 105.987 157.235 105.2 157.235 104.229V92.5255C157.235 91.5543 156.444 90.7671 155.469 90.7671Z" fill="#CCE0FF"/>
<path d="M135.284 94.7944H157.235" stroke="#270813" stroke-width="2.81195" stroke-miterlimit="10"/>
<path d="M13.5664 92.595C21.0589 92.595 27.1328 86.5453 27.1328 79.0827C27.1328 71.62 21.0589 65.5703 13.5664 65.5703C6.07388 65.5703 0 71.62 0 79.0827C0 86.5453 6.07388 92.595 13.5664 92.595Z" fill="url(#paint4_linear_1841_103454)"/>
<path d="M13.5664 70.3225C21.0589 70.3225 27.1328 64.2729 27.1328 56.8102C27.1328 49.3475 21.0589 43.2979 13.5664 43.2979C6.07388 43.2979 0 49.3475 0 56.8102C0 64.2729 6.07388 70.3225 13.5664 70.3225Z" fill="url(#paint5_linear_1841_103454)"/>
<path d="M4.1572 105.981H22.5769C23.5519 105.981 24.3423 105.194 24.3423 104.223V92.5195C24.3423 91.5484 23.5519 90.7611 22.5769 90.7611H4.1572C3.1822 90.7611 2.3918 91.5484 2.3918 92.5195V104.223C2.3918 105.194 3.1822 105.981 4.1572 105.981Z" fill="#CCE0FF"/>
<path d="M24.3423 94.7944H2.39185" stroke="#270813" stroke-width="2.81195" stroke-miterlimit="10"/>
<path d="M131.614 30.4532L133.715 29.7221C133.825 29.6856 133.92 29.6158 133.987 29.5225C134.055 29.4292 134.091 29.3171 134.091 29.2022C134.091 29.0872 134.055 28.9752 133.987 28.8819C133.92 28.7886 133.825 28.7187 133.715 28.6822L131.614 27.9511C131.536 27.9239 131.465 27.8798 131.406 27.8221C131.347 27.7644 131.302 27.6944 131.273 27.6171L130.539 25.5184C130.501 25.4116 130.43 25.3192 130.337 25.2538C130.245 25.1884 130.134 25.1533 130.02 25.1533C129.906 25.1533 129.795 25.1884 129.702 25.2538C129.609 25.3192 129.539 25.4116 129.501 25.5184L128.767 27.6171C128.738 27.6944 128.693 27.7644 128.634 27.8221C128.574 27.8798 128.503 27.9239 128.425 27.9511L126.324 28.6822C126.215 28.7187 126.12 28.7886 126.052 28.8819C125.985 28.9752 125.949 29.0872 125.949 29.2022C125.949 29.3171 125.985 29.4292 126.052 29.5225C126.12 29.6158 126.215 29.6856 126.324 29.7221L128.451 30.4532C128.529 30.4805 128.6 30.5245 128.659 30.5822C128.718 30.64 128.763 30.71 128.792 30.7872L129.526 32.8859C129.564 32.9927 129.635 33.0852 129.727 33.1505C129.82 33.2159 129.931 33.251 130.045 33.251C130.159 33.251 130.27 33.2159 130.363 33.1505C130.456 33.0852 130.526 32.9927 130.564 32.8859L131.298 30.7872C131.324 30.7125 131.366 30.6441 131.42 30.5865C131.475 30.5289 131.541 30.4835 131.614 30.4532Z" fill="#FF87FF"/>
<path d="M140.916 52.6314C141.762 52.6314 142.447 51.9486 142.447 51.1062C142.447 50.2639 141.762 49.5811 140.916 49.5811C140.07 49.5811 139.385 50.2639 139.385 51.1062C139.385 51.9486 140.07 52.6314 140.916 52.6314Z" fill="#FFD01A"/>
<path d="M17.673 79.3599C18.5187 79.3599 19.2043 78.6771 19.2043 77.8347C19.2043 76.9924 18.5187 76.3096 17.673 76.3096C16.8273 76.3096 16.1417 76.9924 16.1417 77.8347C16.1417 78.6771 16.8273 79.3599 17.673 79.3599Z" fill="#FFD01A"/>
<path d="M10.409 54.4405C11.2547 54.4405 11.9403 53.7577 11.9403 52.9153C11.9403 52.073 11.2547 51.3901 10.409 51.3901C9.56326 51.3901 8.87769 52.073 8.87769 52.9153C8.87769 53.7577 9.56326 54.4405 10.409 54.4405Z" fill="#FFD01A"/>
<path d="M21.805 57.2511C22.6507 57.2511 23.3362 56.5682 23.3362 55.7259C23.3362 54.8835 22.6507 54.2007 21.805 54.2007C20.9593 54.2007 20.2737 54.8835 20.2737 55.7259C20.2737 56.5682 20.9593 57.2511 21.805 57.2511Z" fill="#CD1580"/>
<path d="M148.345 77.5826C149.057 77.5826 149.635 77.007 149.635 76.2969C149.635 75.5869 149.057 75.0112 148.345 75.0112C147.632 75.0112 147.054 75.5869 147.054 76.2969C147.054 77.007 147.632 77.5826 148.345 77.5826Z" fill="#CD1580"/>
<path d="M153.198 77.5826C153.911 77.5826 154.489 77.007 154.489 76.2969C154.489 75.5869 153.911 75.0112 153.198 75.0112C152.485 75.0112 151.907 75.5869 151.907 76.2969C151.907 77.007 152.485 77.5826 153.198 77.5826Z" fill="#CD1580"/>
<path d="M150.768 73.3917C151.481 73.3917 152.059 72.8161 152.059 72.106C152.059 71.3959 151.481 70.8203 150.768 70.8203C150.055 70.8203 149.477 71.3959 149.477 72.106C149.477 72.8161 150.055 73.3917 150.768 73.3917Z" fill="#CD1580"/>
<path d="M34.1185 4.07761L33.5363 5.26246C33.5086 5.32262 33.4997 5.38975 33.511 5.455C33.5223 5.52026 33.5532 5.58057 33.5996 5.628C33.6469 5.67311 33.7062 5.70373 33.7704 5.71623C33.8345 5.73497 33.9026 5.73497 33.9666 5.71623L35.1435 5.14902C35.1894 5.12888 35.2389 5.11817 35.2891 5.11751C35.3412 5.1189 35.3926 5.12957 35.4409 5.14902L36.6116 5.71623C36.6729 5.73838 36.7401 5.73838 36.8014 5.71623C36.8638 5.70362 36.921 5.67293 36.9659 5.628C37.0116 5.58201 37.0406 5.52211 37.0482 5.45783C37.0671 5.39837 37.0671 5.33453 37.0482 5.27507L36.4787 4.09021C36.4699 4.04441 36.4699 3.99737 36.4787 3.95156C36.4691 3.90583 36.4691 3.85864 36.4787 3.81291L37.0482 2.62806C37.0699 2.56473 37.0699 2.49602 37.0482 2.43268C37.0397 2.36551 37.0085 2.30323 36.9596 2.25622C36.9108 2.20971 36.849 2.17896 36.7824 2.16798C36.7174 2.15941 36.6513 2.17038 36.5926 2.1995L35.4346 2.7478C35.3903 2.77289 35.3401 2.78593 35.2891 2.78562C35.236 2.78645 35.1836 2.77341 35.1372 2.7478L33.9666 2.18689C33.9055 2.1583 33.8375 2.14738 33.7704 2.15538C33.7043 2.16774 33.6429 2.19831 33.5933 2.24361C33.5491 2.29392 33.5186 2.35468 33.5047 2.42008C33.4862 2.48391 33.4862 2.55163 33.5047 2.61545L34.1058 3.7814C34.1309 3.82101 34.144 3.86693 34.1438 3.91375C34.1519 3.96966 34.1431 4.02672 34.1185 4.07761Z" fill="#FFD01A"/>
<path d="M17.9651 25.9938C17.6019 25.632 17.0129 25.632 16.6497 25.9938C16.2864 26.3556 16.2864 26.9422 16.6497 27.304L17.3074 27.9591C17.6706 28.3209 18.2596 28.3209 18.6228 27.9591C18.9861 27.5973 18.9861 27.0107 18.6228 26.6489L17.9651 25.9938Z" fill="#776BFF"/>
<path d="M23.2381 31.2482C22.8748 30.8864 22.2859 30.8864 21.9226 31.2482C21.5594 31.61 21.5594 32.1966 21.9226 32.5584L22.5803 33.2135C22.9436 33.5753 23.5325 33.5753 23.8958 33.2135C24.259 32.8517 24.259 32.2651 23.8958 31.9033L23.2381 31.2482Z" fill="#776BFF"/>
<path d="M23.8986 27.3051C24.2618 26.9433 24.2618 26.3567 23.8986 25.9949C23.5353 25.6331 22.9464 25.6331 22.5831 25.9949L21.9254 26.65C21.5622 27.0118 21.5622 27.5984 21.9254 27.9602C22.2887 28.322 22.8776 28.322 23.2408 27.9602L23.8986 27.3051Z" fill="#776BFF"/>
<path d="M18.6256 32.5532C18.9889 32.1914 18.9889 31.6048 18.6256 31.243C18.2624 30.8812 17.6734 30.8812 17.3102 31.243L16.6525 31.8981C16.2892 32.2599 16.2892 32.8465 16.6525 33.2083C17.0157 33.5701 17.6046 33.5701 17.9679 33.2083L18.6256 32.5532Z" fill="#776BFF"/>
</g>
<defs>
<linearGradient id="paint0_linear_1841_103454" x1="79.8102" y1="9.1892" x2="79.8102" y2="106.145" gradientUnits="userSpaceOnUse">
<stop stop-color="#4788FF"/>
<stop offset="1" stop-color="#365DEC"/>
</linearGradient>
<linearGradient id="paint1_linear_1841_103454" x1="146.06" y1="45.0434" x2="146.06" y2="87.2695" gradientUnits="userSpaceOnUse">
<stop stop-color="#00E0A7"/>
<stop offset="1" stop-color="#00A6A0"/>
</linearGradient>
<linearGradient id="paint2_linear_1841_103454" x1="146.06" y1="45.0436" x2="146.06" y2="87.2697" gradientUnits="userSpaceOnUse">
<stop stop-color="#00E0A7"/>
<stop offset="1" stop-color="#00A6A0"/>
</linearGradient>
<linearGradient id="paint3_linear_1841_103454" x1="10030.8" y1="1488.63" x2="10030.8" y2="17151.9" gradientUnits="userSpaceOnUse">
<stop stop-color="#4788FF"/>
<stop offset="1" stop-color="#365DEC"/>
</linearGradient>
<linearGradient id="paint4_linear_1841_103454" x1="16820.7" y1="1997.02" x2="16820.7" y2="3807.68" gradientUnits="userSpaceOnUse">
<stop stop-color="#00E0A7"/>
<stop offset="1" stop-color="#00A6A0"/>
</linearGradient>
<linearGradient id="paint5_linear_1841_103454" x1="16820.7" y1="1974.75" x2="16820.7" y2="3785.41" gradientUnits="userSpaceOnUse">
<stop stop-color="#00E0A7"/>
<stop offset="1" stop-color="#00A6A0"/>
</linearGradient>
<clipPath id="clip0_1841_103454">
<rect width="160" height="106" fill="white"/>
</clipPath>
</defs>
</svg>
