<svg xmlns="http://www.w3.org/2000/svg" width="24" height="24" viewBox="0 0 24 24">
  <g fill="none" fill-rule="evenodd">
    <path fill="#4F545C" d="M15.6986306,10.3369503 C15.0466265,10.5329281 14.4293569,10.8099797 13.858638,11.1564037 C13.7352566,10.9546296 13.5857106,10.7642215 13.41,10.59 C13,10.2 13,9.56 13.41,9.17 C13.8,8.78 14.44,8.78 14.83,9.17 C15.1836989,9.52369885 15.4732424,9.91753591 15.6986306,10.3369503 Z M10.3963349,20.490347 C8.46774279,21.6909958 5.89421345,21.4542135 4.22,19.78 C2.27,17.83 2.27,14.66 4.22,12.71 L5.71,11.22 C5.7,12.04 5.83,12.86 6.11,13.65 L5.64,14.12 C4.46,15.29 4.46,17.19 5.64,18.36 C6.81,19.54 8.71,19.54 9.88,18.36 L10.003444,18.236556 C10.0263121,19.0209956 10.1625359,19.777571 10.3963349,20.490347 Z M10.8572807,14.3964222 C10.8106748,14.4884942 10.765797,14.5815879 10.7226904,14.6756607 C10.6846641,14.7302695 10.640434,14.7820262 10.59,14.83 C10.2,15.22 9.56,15.22 9.17,14.83 C7.22,12.88 7.22,9.71 9.17,7.76 L12.71,4.22 C14.66,2.27 17.83,2.27 19.78,4.22 C21.4541454,5.89414536 21.6909765,8.46753345 20.4904935,10.3960996 C19.7787637,10.1627138 19.0230638,10.0265776 18.2390609,10.0035122 L18.36,9.88 C19.54,8.71 19.54,6.81 18.36,5.64 C17.19,4.46 15.29,4.46 14.12,5.64 L10.59,9.17 C9.41,10.34 9.41,12.24 10.59,13.41 C10.8691393,13.6755228 10.9582329,14.0569271 10.8572807,14.3964222 Z" opacity=".6"/>
    <rect width="24" height="24"/>
  </g>
</svg>
