<svg width="1608" height="640" viewBox="0 0 1608 640" fill="none" xmlns="http://www.w3.org/2000/svg">
<mask id="mask0" mask-type="alpha" maskUnits="userSpaceOnUse" x="0" y="0" width="1608" height="640">
<path d="M0 640L1608 640V0L0 0V640Z" fill="white"/>
</mask>
<g mask="url(#mask0)">
<path opacity="0.04" d="M1514.49 630.113L1544.35 660.233L1574.21 630.113L1544.35 599.994L1514.49 630.113Z" fill="white"/>
<path opacity="0.04" d="M1450.68 551.614C1436.1 551.614 1424.28 563.533 1424.28 578.236C1424.28 592.939 1436.1 604.858 1450.68 604.858C1465.26 604.858 1477.08 592.939 1477.08 578.236C1477.08 563.533 1465.26 551.614 1450.68 551.614Z" fill="white"/>
<path opacity="0.04" d="M259.276 555.748L310.643 607.557L362.01 555.748L310.643 503.94L259.276 555.748Z" fill="white"/>
<path opacity="0.04" d="M561.691 605.924C547.113 605.924 535.296 617.843 535.296 632.546C535.296 647.249 547.113 659.168 561.691 659.168C576.269 659.168 588.086 647.249 588.086 632.546C588.086 617.843 576.269 605.924 561.691 605.924Z" fill="white"/>
<path opacity="0.04" fill-rule="evenodd" clip-rule="evenodd" d="M115.255 723.406L37.9956 747.554L-114.309 346.039L-37.0491 321.891C-25.2562 318.205 -12.4045 323.894 -8.34386 334.599C-6.04379 340.663 -7.00227 347.354 -10.9342 352.682C-26.5881 373.895 -20.3342 402.61 3.03445 416.82C6.88898 419.164 11.0782 421.019 15.486 422.333L18.12 423.118C42.2003 430.298 55.3096 453.838 47.4003 475.697C45.8118 480.087 43.4299 484.206 40.352 487.886C25.0262 506.212 28.9676 532.345 49.1553 546.256C53.2096 549.05 57.7478 551.213 62.5839 552.655L67.852 554.225C91.9323 561.405 105.042 584.945 97.1323 606.804C95.5438 611.194 93.1619 615.313 90.084 618.993C74.7582 637.319 78.6996 663.452 98.8872 677.363C102.942 680.157 107.48 682.32 112.316 683.762L114.95 684.547C126.8 688.08 133.25 699.664 129.358 710.42C127.154 716.513 121.935 721.318 115.255 723.406Z" fill="white"/>
<path opacity="0.04" fill-rule="evenodd" clip-rule="evenodd" d="M1595.08 193.554C1595.08 193.554 1632.72 180.185 1656.72 194.666C1680.71 209.147 1680.84 509.117 1649.7 514.965C1618.56 520.814 1588.07 513.853 1588.07 513.853C1578.66 513.683 1571.19 506.623 1571.38 498.083C1571.48 493.246 1574.08 488.733 1578.38 485.886C1595.54 474.552 1599.33 452.739 1586.84 437.165C1584.78 434.596 1582.35 432.294 1579.6 430.324L1577.96 429.147C1562.96 418.384 1560.41 398.62 1572.27 385.002C1574.65 382.268 1577.51 379.912 1580.75 378.031C1596.85 368.665 1601.53 349.225 1591.21 334.612C1589.14 331.677 1586.55 329.076 1583.53 326.914L1580.25 324.56C1565.25 313.797 1562.7 294.033 1574.56 280.415C1576.94 277.68 1579.8 275.324 1583.04 273.443C1599.14 264.077 1603.82 244.638 1593.5 230.025C1591.43 227.09 1588.84 224.488 1585.82 222.327L1584.18 221.149C1576.8 215.853 1575.55 206.128 1581.38 199.427C1584.68 195.631 1589.76 193.458 1595.08 193.554Z" fill="white"/>
<path fill-rule="evenodd" clip-rule="evenodd" d="M1190.74 628.75C1188.13 628.75 1186.01 630.888 1186.01 633.526C1186.01 636.164 1188.13 638.302 1190.74 638.302C1193.36 638.302 1195.48 636.164 1195.48 633.526C1195.48 630.888 1193.36 628.75 1190.74 628.75Z" fill="white" fill-opacity="0.04"/>
<path fill-rule="evenodd" clip-rule="evenodd" d="M1223.36 628.75C1220.75 628.75 1218.63 630.888 1218.63 633.526C1218.63 636.164 1220.75 638.302 1223.36 638.302C1225.98 638.302 1228.1 636.164 1228.1 633.526C1228.1 630.888 1225.98 628.75 1223.36 628.75Z" fill="white" fill-opacity="0.04"/>
<path fill-rule="evenodd" clip-rule="evenodd" d="M1255.99 628.75C1253.37 628.75 1251.25 630.888 1251.25 633.526C1251.25 636.164 1253.37 638.302 1255.99 638.302C1258.6 638.302 1260.72 636.164 1260.72 633.526C1260.72 630.888 1258.6 628.75 1255.99 628.75Z" fill="white" fill-opacity="0.04"/>
<path fill-rule="evenodd" clip-rule="evenodd" d="M1288.61 628.75C1285.99 628.75 1283.87 630.888 1283.87 633.526C1283.87 636.164 1285.99 638.302 1288.61 638.302C1291.23 638.302 1293.35 636.164 1293.35 633.526C1293.35 630.888 1291.23 628.75 1288.61 628.75Z" fill="white" fill-opacity="0.04"/>
<path fill-rule="evenodd" clip-rule="evenodd" d="M1158.12 628.75C1155.5 628.75 1153.38 630.888 1153.38 633.526C1153.38 636.164 1155.5 638.302 1158.12 638.302C1160.73 638.302 1162.85 636.164 1162.85 633.526C1162.85 630.888 1160.73 628.75 1158.12 628.75Z" fill="white" fill-opacity="0.04"/>
<path fill-rule="evenodd" clip-rule="evenodd" d="M1125.49 628.75C1122.88 628.75 1120.76 630.888 1120.76 633.526C1120.76 636.164 1122.88 638.302 1125.49 638.302C1128.11 638.302 1130.23 636.164 1130.23 633.526C1130.23 630.888 1128.11 628.75 1125.49 628.75Z" fill="white" fill-opacity="0.04"/>
<path fill-rule="evenodd" clip-rule="evenodd" d="M1092.87 628.75C1090.26 628.75 1088.14 630.888 1088.14 633.526C1088.14 636.164 1090.26 638.302 1092.87 638.302C1095.49 638.302 1097.61 636.164 1097.61 633.526C1097.61 630.888 1095.49 628.75 1092.87 628.75Z" fill="white" fill-opacity="0.04"/>
<path fill-rule="evenodd" clip-rule="evenodd" d="M1190.74 595.846C1188.13 595.846 1186.01 597.984 1186.01 600.622C1186.01 603.26 1188.13 605.399 1190.74 605.399C1193.36 605.399 1195.48 603.26 1195.48 600.622C1195.48 597.984 1193.36 595.846 1190.74 595.846Z" fill="white" fill-opacity="0.04"/>
<path fill-rule="evenodd" clip-rule="evenodd" d="M1223.36 595.846C1220.75 595.846 1218.63 597.984 1218.63 600.622C1218.63 603.26 1220.75 605.399 1223.36 605.399C1225.98 605.399 1228.1 603.26 1228.1 600.622C1228.1 597.984 1225.98 595.846 1223.36 595.846Z" fill="white" fill-opacity="0.04"/>
<path fill-rule="evenodd" clip-rule="evenodd" d="M1255.99 595.846C1253.37 595.846 1251.25 597.984 1251.25 600.622C1251.25 603.26 1253.37 605.399 1255.99 605.399C1258.6 605.399 1260.72 603.26 1260.72 600.622C1260.72 597.984 1258.6 595.846 1255.99 595.846Z" fill="white" fill-opacity="0.04"/>
<path fill-rule="evenodd" clip-rule="evenodd" d="M1288.61 595.846C1285.99 595.846 1283.87 597.984 1283.87 600.622C1283.87 603.26 1285.99 605.399 1288.61 605.399C1291.23 605.399 1293.35 603.26 1293.35 600.622C1293.35 597.984 1291.23 595.846 1288.61 595.846Z" fill="white" fill-opacity="0.04"/>
<path fill-rule="evenodd" clip-rule="evenodd" d="M1158.12 595.846C1155.5 595.846 1153.38 597.984 1153.38 600.622C1153.38 603.26 1155.5 605.399 1158.12 605.399C1160.73 605.399 1162.85 603.26 1162.85 600.622C1162.85 597.984 1160.73 595.846 1158.12 595.846Z" fill="white" fill-opacity="0.04"/>
<path fill-rule="evenodd" clip-rule="evenodd" d="M1125.49 595.846C1122.88 595.846 1120.76 597.984 1120.76 600.622C1120.76 603.26 1122.88 605.399 1125.49 605.399C1128.11 605.399 1130.23 603.26 1130.23 600.622C1130.23 597.984 1128.11 595.846 1125.49 595.846Z" fill="white" fill-opacity="0.04"/>
<path fill-rule="evenodd" clip-rule="evenodd" d="M1092.87 595.846C1090.26 595.846 1088.14 597.984 1088.14 600.622C1088.14 603.26 1090.26 605.399 1092.87 605.399C1095.49 605.399 1097.61 603.26 1097.61 600.622C1097.61 597.984 1095.49 595.846 1092.87 595.846Z" fill="white" fill-opacity="0.04"/>
<path fill-rule="evenodd" clip-rule="evenodd" d="M1190.74 562.942C1188.13 562.942 1186.01 565.081 1186.01 567.719C1186.01 570.357 1188.13 572.495 1190.74 572.495C1193.36 572.495 1195.48 570.357 1195.48 567.719C1195.48 565.081 1193.36 562.942 1190.74 562.942Z" fill="white" fill-opacity="0.04"/>
<path fill-rule="evenodd" clip-rule="evenodd" d="M1223.36 562.942C1220.75 562.942 1218.63 565.081 1218.63 567.719C1218.63 570.357 1220.75 572.495 1223.36 572.495C1225.98 572.495 1228.1 570.357 1228.1 567.719C1228.1 565.081 1225.98 562.942 1223.36 562.942Z" fill="white" fill-opacity="0.04"/>
<path fill-rule="evenodd" clip-rule="evenodd" d="M1255.99 562.942C1253.37 562.942 1251.25 565.081 1251.25 567.719C1251.25 570.357 1253.37 572.495 1255.99 572.495C1258.6 572.495 1260.72 570.357 1260.72 567.719C1260.72 565.081 1258.6 562.942 1255.99 562.942Z" fill="white" fill-opacity="0.04"/>
<path fill-rule="evenodd" clip-rule="evenodd" d="M1288.61 562.942C1285.99 562.942 1283.87 565.081 1283.87 567.719C1283.87 570.357 1285.99 572.495 1288.61 572.495C1291.23 572.495 1293.35 570.357 1293.35 567.719C1293.35 565.081 1291.23 562.942 1288.61 562.942Z" fill="white" fill-opacity="0.04"/>
<path fill-rule="evenodd" clip-rule="evenodd" d="M1158.12 562.942C1155.5 562.942 1153.38 565.081 1153.38 567.719C1153.38 570.357 1155.5 572.495 1158.12 572.495C1160.73 572.495 1162.85 570.357 1162.85 567.719C1162.85 565.081 1160.73 562.942 1158.12 562.942Z" fill="white" fill-opacity="0.04"/>
<path fill-rule="evenodd" clip-rule="evenodd" d="M1125.49 562.942C1122.88 562.942 1120.76 565.081 1120.76 567.719C1120.76 570.357 1122.88 572.495 1125.49 572.495C1128.11 572.495 1130.23 570.357 1130.23 567.719C1130.23 565.081 1128.11 562.942 1125.49 562.942Z" fill="white" fill-opacity="0.04"/>
<path fill-rule="evenodd" clip-rule="evenodd" d="M1092.87 562.942C1090.26 562.942 1088.14 565.081 1088.14 567.719C1088.14 570.357 1090.26 572.495 1092.87 572.495C1095.49 572.495 1097.61 570.357 1097.61 567.719C1097.61 565.081 1095.49 562.942 1092.87 562.942Z" fill="white" fill-opacity="0.04"/>
<path fill-rule="evenodd" clip-rule="evenodd" d="M11.0496 247.086C8.43416 247.086 6.31396 249.225 6.31396 251.863C6.31396 254.5 8.43416 256.639 11.0496 256.639C13.665 256.639 15.7852 254.5 15.7852 251.863C15.7852 249.225 13.665 247.086 11.0496 247.086Z" fill="white" fill-opacity="0.04"/>
<path fill-rule="evenodd" clip-rule="evenodd" d="M43.6726 247.086C41.0572 247.086 38.937 249.225 38.937 251.863C38.937 254.5 41.0572 256.639 43.6726 256.639C46.288 256.639 48.4082 254.5 48.4082 251.863C48.4082 249.225 46.288 247.086 43.6726 247.086Z" fill="white" fill-opacity="0.04"/>
<path fill-rule="evenodd" clip-rule="evenodd" d="M76.2954 247.086C73.68 247.086 71.5598 249.225 71.5598 251.863C71.5598 254.5 73.68 256.639 76.2954 256.639C78.9108 256.639 81.031 254.5 81.031 251.863C81.031 249.225 78.9108 247.086 76.2954 247.086Z" fill="white" fill-opacity="0.04"/>
<path fill-rule="evenodd" clip-rule="evenodd" d="M11.0496 214.183C8.43416 214.183 6.31396 216.321 6.31396 218.959C6.31396 221.597 8.43416 223.735 11.0496 223.735C13.665 223.735 15.7852 221.597 15.7852 218.959C15.7852 216.321 13.665 214.183 11.0496 214.183Z" fill="white" fill-opacity="0.04"/>
<path fill-rule="evenodd" clip-rule="evenodd" d="M43.6726 214.183C41.0572 214.183 38.937 216.321 38.937 218.959C38.937 221.597 41.0572 223.735 43.6726 223.735C46.288 223.735 48.4082 221.597 48.4082 218.959C48.4082 216.321 46.288 214.183 43.6726 214.183Z" fill="white" fill-opacity="0.04"/>
<path fill-rule="evenodd" clip-rule="evenodd" d="M76.2954 214.183C73.68 214.183 71.5598 216.321 71.5598 218.959C71.5598 221.597 73.68 223.735 76.2954 223.735C78.9108 223.735 81.031 221.597 81.031 218.959C81.031 216.321 78.9108 214.183 76.2954 214.183Z" fill="white" fill-opacity="0.04"/>
<path fill-rule="evenodd" clip-rule="evenodd" d="M11.0496 181.279C8.43416 181.279 6.31396 183.417 6.31396 186.055C6.31396 188.693 8.43416 190.832 11.0496 190.832C13.665 190.832 15.7852 188.693 15.7852 186.055C15.7852 183.417 13.665 181.279 11.0496 181.279Z" fill="white" fill-opacity="0.04"/>
<path fill-rule="evenodd" clip-rule="evenodd" d="M43.6726 181.279C41.0572 181.279 38.937 183.417 38.937 186.055C38.937 188.693 41.0572 190.832 43.6726 190.832C46.288 190.832 48.4082 188.693 48.4082 186.055C48.4082 183.417 46.288 181.279 43.6726 181.279Z" fill="white" fill-opacity="0.04"/>
<path fill-rule="evenodd" clip-rule="evenodd" d="M76.2954 181.279C73.68 181.279 71.5598 183.417 71.5598 186.055C71.5598 188.693 73.68 190.832 76.2954 190.832C78.9108 190.832 81.031 188.693 81.031 186.055C81.031 183.417 78.9108 181.279 76.2954 181.279Z" fill="white" fill-opacity="0.04"/>
<path fill-rule="evenodd" clip-rule="evenodd" d="M11.0496 148.375C8.43416 148.375 6.31396 150.514 6.31396 153.152C6.31396 155.79 8.43416 157.928 11.0496 157.928C13.665 157.928 15.7852 155.79 15.7852 153.152C15.7852 150.514 13.665 148.375 11.0496 148.375Z" fill="white" fill-opacity="0.04"/>
<path fill-rule="evenodd" clip-rule="evenodd" d="M43.6726 148.375C41.0572 148.375 38.937 150.514 38.937 153.152C38.937 155.79 41.0572 157.928 43.6726 157.928C46.288 157.928 48.4082 155.79 48.4082 153.152C48.4082 150.514 46.288 148.375 43.6726 148.375Z" fill="white" fill-opacity="0.04"/>
<path fill-rule="evenodd" clip-rule="evenodd" d="M76.2954 148.375C73.68 148.375 71.5598 150.514 71.5598 153.152C71.5598 155.79 73.68 157.928 76.2954 157.928C78.9108 157.928 81.031 155.79 81.031 153.152C81.031 150.514 78.9108 148.375 76.2954 148.375Z" fill="white" fill-opacity="0.04"/>
<path fill-rule="evenodd" clip-rule="evenodd" d="M11.0496 115.472C8.43416 115.472 6.31396 117.61 6.31396 120.248C6.31396 122.886 8.43416 125.024 11.0496 125.024C13.665 125.024 15.7852 122.886 15.7852 120.248C15.7852 117.61 13.665 115.472 11.0496 115.472Z" fill="white" fill-opacity="0.04"/>
<path fill-rule="evenodd" clip-rule="evenodd" d="M43.6726 115.472C41.0572 115.472 38.937 117.61 38.937 120.248C38.937 122.886 41.0572 125.024 43.6726 125.024C46.288 125.024 48.4082 122.886 48.4082 120.248C48.4082 117.61 46.288 115.472 43.6726 115.472Z" fill="white" fill-opacity="0.04"/>
<path fill-rule="evenodd" clip-rule="evenodd" d="M76.2954 115.472C73.68 115.472 71.5598 117.61 71.5598 120.248C71.5598 122.886 73.68 125.024 76.2954 125.024C78.9108 125.024 81.031 122.886 81.031 120.248C81.031 117.61 78.9108 115.472 76.2954 115.472Z" fill="white" fill-opacity="0.04"/>
<path fill-rule="evenodd" clip-rule="evenodd" d="M11.0496 82.5681C8.43416 82.5681 6.31396 84.7065 6.31396 87.3444C6.31396 89.9823 8.43416 92.1207 11.0496 92.1207C13.665 92.1207 15.7852 89.9823 15.7852 87.3444C15.7852 84.7065 13.665 82.5681 11.0496 82.5681Z" fill="white" fill-opacity="0.04"/>
<path fill-rule="evenodd" clip-rule="evenodd" d="M43.6726 82.5681C41.0572 82.5681 38.937 84.7065 38.937 87.3444C38.937 89.9823 41.0572 92.1207 43.6726 92.1207C46.288 92.1207 48.4082 89.9823 48.4082 87.3444C48.4082 84.7065 46.288 82.5681 43.6726 82.5681Z" fill="white" fill-opacity="0.04"/>
<path fill-rule="evenodd" clip-rule="evenodd" d="M76.2954 82.5681C73.68 82.5681 71.5598 84.7065 71.5598 87.3444C71.5598 89.9823 73.68 92.1207 76.2954 92.1207C78.9108 92.1207 81.031 89.9823 81.031 87.3444C81.031 84.7065 78.9108 82.5681 76.2954 82.5681Z" fill="white" fill-opacity="0.04"/>
<path fill-rule="evenodd" clip-rule="evenodd" d="M11.0496 49.6646C8.43416 49.6646 6.31396 51.8029 6.31396 54.4408C6.31396 57.0787 8.43416 59.2173 11.0496 59.2173C13.665 59.2173 15.7852 57.0787 15.7852 54.4408C15.7852 51.8029 13.665 49.6646 11.0496 49.6646Z" fill="white" fill-opacity="0.04"/>
<path fill-rule="evenodd" clip-rule="evenodd" d="M43.6726 49.6646C41.0572 49.6646 38.937 51.8029 38.937 54.4408C38.937 57.0787 41.0572 59.2173 43.6726 59.2173C46.288 59.2173 48.4082 57.0787 48.4082 54.4408C48.4082 51.8029 46.288 49.6646 43.6726 49.6646Z" fill="white" fill-opacity="0.04"/>
<path fill-rule="evenodd" clip-rule="evenodd" d="M76.2954 49.6646C73.68 49.6646 71.5598 51.8029 71.5598 54.4408C71.5598 57.0787 73.68 59.2173 76.2954 59.2173C78.9108 59.2173 81.031 57.0787 81.031 54.4408C81.031 51.8029 78.9108 49.6646 76.2954 49.6646Z" fill="white" fill-opacity="0.04"/>
</g>
</svg>
