<svg width="1573" height="433" viewBox="0 0 1573 433" xmlns="http://www.w3.org/2000/svg" xmlns:xlink="http://www.w3.org/1999/xlink"><title>Group</title><defs><path id="a" d="M0 0h1576v434H0z"/></defs><g transform="translate(-1 -1)" fill="none" fill-rule="evenodd"><mask id="b" fill="#fff"><use xlink:href="#a"/></mask><g opacity=".6" mask="url(#b)"><path d="M475.8023 372.7623c-4.5918 3.281-9.063 6.713-13.4186 10.3018-4.2685 3.5162 1.3037 10.0617 5.581 6.5378 4.3556-3.5883 8.8268-7.0208 13.4186-10.3017 4.4977-3.2126-1.1004-9.7388-5.581-6.5377m50.7013-26.2372c-1.6127-1.888-4.1666-1.8362-6.0602-.4802-3.611 2.5865-7.2218 5.1735-10.8327 7.76-1.8864 1.351-1.8952 4.399-.479 6.0568 1.613 1.8886 4.167 1.8368 6.06.4808 3.6115-2.5864 7.2218-5.1734 10.8327-7.76 1.8864-1.351 1.8953-4.399.4792-6.0573m-11.1322 33.5782c-5.7298.7986-11.2585 2.315-16.639 4.4332-5.1426 2.0246-1.421 9.7735 3.7128 7.752 4.6755-1.84 9.4695-3.0346 14.4447-3.728 5.4823-.764 3.955-9.2206-1.5186-8.4572m-20.7206 30.5035c-5.56 1.6518-10.7363 3.8703-15.6256 7.007-1.9674 1.2618-3.087 3.438-2.0208 5.7308.8862 1.9046 3.7828 3.2727 5.7342 2.0214 4.1837-2.6835 8.6565-4.8833 13.43-6.302 2.243-.666 3.8886-2.5133 3.4716-4.9857-.3536-2.0946-2.766-4.1314-4.9894-3.4716m49.5444-15.8724c-6.551 1.8836-12.918 4.2018-19.1037 7.0686-5.0132 2.3242-1.3175 10.0847 3.7133 7.752 5.4824-2.5406 11.0993-4.693 16.909-6.364 5.263-1.5136 3.8008-9.9862-1.5186-8.4567m-19.1928 29.2175c-6.5834 1.7536-12.9702 4.0256-19.146 6.903-5.009 2.334-1.3137 10.094 3.7127 7.752 5.4836-2.5545 11.105-4.6403 16.9514-6.198 5.3067-1.4126 3.8356-9.8824-1.518-8.457m-77.649-11.7928c-4.0626 3.4126-8.125 6.8258-12.187 10.238-4.2334 3.5562 1.335 10.1044 5.5804 6.5376 4.0625-3.412 8.125-6.8252 12.1876-10.2373 4.2332-3.5564-1.3357-10.1046-5.581-6.5383m110.5754-48.6894c-.9484-1.9845-3.7062-3.1725-5.734-2.022-2.4693 1.4018-4.938 2.803-7.407 4.2042-2.0175 1.145-3.0722 3.532-2.0208 5.7308.948 1.984 3.7062 3.1725 5.7336 2.0213 2.469-1.4012 4.9383-2.8024 7.4074-4.204 2.0175-1.1447 3.0717-3.5317 2.0208-5.7304M888.0098 296.8227l-12.2305-22.3654c-2.74-5.012 4.8022-9.796 7.5688-4.7367l12.23 22.3654c2.7407 5.012-4.8016 9.7962-7.5682 4.7367m46.9558 21.5906c-2.4415-9.9052-7.085-18.7716-14.09-26.217-3.9126-4.1578 2.092-10.7666 6.036-6.5752 8.07 8.578 13.7612 18.7062 16.5845 30.1612 1.3688 5.5513-7.1507 8.2292-8.5304 2.631m19.955-24.2034c-3.1516-9.41-6.3026-18.8206-9.454-28.2306-1.8248-5.4472 6.7034-8.0876 8.5303-2.631 3.1515 9.41 6.303 18.82 9.454 28.23 1.8242 5.4477-6.7035 8.0876-8.5304 2.6316m-51.6052 44.3967l-3.493-13.1157c-1.474-5.5347 7.0466-8.2043 8.5304-2.6316 1.1644 4.3726 2.3293 8.744 3.493 13.1168 1.474 5.5336-7.046 8.2032-8.5304 2.6305m42.477 34.0535c-1.8875-8.0386-3.7756-16.0772-5.6637-24.117-1.3053-5.5594 7.213-8.2428 8.531-2.6304 1.8875 8.038 3.7756 16.0777 5.663 24.1168 1.306 5.5596-7.2118 8.243-8.5303 2.6306m23.4107-12.3118l-6.1097-28.555c-1.192-5.5717 7.3254-8.265 8.531-2.6317 2.0362 9.518 4.073 19.0365 6.1087 28.555 1.1924 5.5712-7.3248 8.265-8.53 2.6317m-46.555 29.0685c-1.0063-6.629-2.012-13.2577-3.0183-19.887-.862-5.679 8.0634-6.0105 8.9176-.381 1.0063 6.6286 2.012 13.2572 3.0183 19.8863.862 5.679-8.0628 6.0112-8.9176.3817m38.615 28.818l-1.6957-17.771c-.547-5.73 8.3734-6.0887 8.9176-.381l1.6957 17.7708c.547 5.7297-8.373 6.0883-8.9176.381m-64.0043-141.516c-4.475-9.7262-8.9496-19.4524-13.424-29.179-2.3657-5.1405 5.1656-9.9565 7.5676-4.7357 4.475 9.7262 8.95 19.4518 13.4246 29.178 2.3655 5.141-5.1664 9.957-7.5683 4.7366M1384.8174 251.6538c-.9743-4.5918-1.9486-9.1837-2.9235-13.775-1.2873-6.0662-10.8014-4.459-9.5087 1.6303.9743 4.592 1.9486 9.1833 2.923 13.775 1.2877 6.067 10.8018 4.4592 9.509-1.6302m-41.742 16.5797c-2.1072 7.382-1.883 14.568.5277 21.841 1.9547 5.899 10.7203 1.848 8.786-3.9897-1.567-4.7274-1.5995-9.8-.237-14.5736 1.6932-5.9308-7.3665-9.27-9.0767-3.2777m38.9812 20.736c-2.6977-.1163-4.8804 1.7085-5.2235 4.389-.3074 2.3916-.6136 4.7825-.9204 7.174-.321 2.5066 1.86 5.1156 4.389 5.224 2.6984.1158 4.8806-1.708 5.2248-4.389.3062-2.3915.613-4.783.9198-7.1745.321-2.506-1.86-5.115-4.3897-5.2235m50.8913-14.985c-2.3155-1.638-4.9972-.813-6.724 1.1532-3.461 3.9398-6.922 7.88-10.3837 11.8208-1.7217 1.9597-.815 5.3315 1.1534 6.724 2.3155 1.6374 4.9972.8123 6.724-1.1534 3.461-3.9396 6.9226-7.8804 10.383-11.8207 1.7224-1.9602.8153-5.332-1.1527-6.724m-43.6396 58.2238c-1.5283-1.863-4.9338-2.524-6.7904-.6757-2.458 2.4493-4.9174 4.898-7.376 7.3474-1.8435 1.8363-2.4405 4.6386-.6753 6.79 1.5284 1.8633 4.9344 2.5242 6.79.6758 2.4587-2.4488 4.918-4.898 7.376-7.3468 1.844-1.837 2.441-4.6392.6758-6.7906m15.9734-94.8997c-1.4618 5.8652-2.924 11.7315-4.3864 17.5973-1.4854 5.9594 7.5715 9.316 9.0768 3.2777 1.4618-5.8652 2.924-11.731 4.386-17.5973 1.4858-5.959-7.571-9.316-9.0764-3.2777m-65.656 85.136c-2.2113-.8004-5.6046.3408-6.177 2.8997-1.0987 4.907-3.712 8.6665-7.9437 11.3824-2.1938 1.4072-2.192 4.942-.6758 6.79 1.8136 2.2108 4.5884 2.0885 6.7904.6758 5.4477-3.4958 9.4904-9.252 10.9054-15.5705.569-2.5402-.228-5.2103-2.8993-6.1775m93.5495-13.45c-1.79-2.1816-4.6144-2.127-6.7905-.6757l-13.7056 9.144c-2.168 1.4463-2.2125 4.9168-.676 6.79 1.7907 2.182 4.615 2.127 6.7907.6763 4.5687-3.0485 9.1374-6.0965 13.7055-9.1445 2.168-1.4458 2.213-4.9168.6758-6.79m-21.7048 52.1828c-7.629 3.769-15.2577 7.538-22.8865 11.306-5.5672 2.7505-1.5846 11.5404 3.9898 8.786 7.629-3.768 15.2577-7.537 22.8865-11.306 5.5678-2.7505 1.585-11.5398-3.9898-8.786m-62.522 8.2704l-8.639 11.6176c-3.7068 4.9856 4.1715 10.5545 7.8777 5.571l8.6377-11.6175c3.7073-4.9856-4.171-10.5545-7.8766-5.571m10.9228 32.2833c-3.7943 2.9627-7.5886 5.9247-11.383 8.8874-4.9045 3.829 1.2256 11.2832 6.115 7.4657 3.7942-2.9627 7.5885-5.9242 11.3828-8.8868 4.904-3.829-1.2255-11.2838-6.1148-7.4664m-49.733 0c-9.0968 4.41-18.1928 8.8202-27.2895 13.2302-5.591 2.71-1.6044 11.4975 3.99 8.786 9.096-4.41 18.1926-8.82 27.2892-13.2296 5.591-2.711 1.6044-11.4986-3.9898-8.7866m-9.9207-39.523c-2.0473-1.3148-5.3558-1.1777-6.724 1.1532-1.66 2.8272-3.3194 5.6537-4.9795 8.4814-1.2266 2.089-1.1704 4.5632.679 6.2833 1.6673 1.5504 4.5325 1.856 6.317.2352.4516-.4105.9033-.8208 1.355-1.231.9786-.8896 1.6076-2.1652 1.7277-3.4662.9258-1.5768 1.8517-3.1548 2.778-4.7317 1.274-2.1705 1.17-5.2328-1.1532-6.7243M504.9916 27.7224L486.8836 16.08c-5.2097-3.3492-9.504 5.297-4.319 8.6302l18.1078 11.6423c5.2098 3.3493 9.5042-5.2963 4.3192-8.63m36.455-8.996c-4.9327-2.5688-9.8655-5.1376-14.7977-7.7065-5.503-2.8662-9.8386 5.755-4.3193 8.6296l14.7977 7.707c5.5023 2.8657 9.8386-5.755 4.3192-8.63m-43.3927 42.547c-6.1154-1.8364-12.23-3.672-18.3454-5.508-5.943-1.7838-7.8755 7.672-1.9552 9.4493 6.1147 1.8356 12.23 3.672 18.3452 5.5076 5.943 1.7846 7.8756-7.6712 1.9553-9.449m48.46-6.8698c-5.264-1.6044-10.5277-3.2082-15.7914-4.8126-5.934-1.8082-7.8646 7.648-1.9553 9.449 5.2632 1.6045 10.5276 3.2084 15.7908 4.8128 5.9347 1.8087 7.8652-7.648 1.956-9.4492m49.8143-13.0222c-5.498-4.6337-11.5806-7.9478-18.3563-10.294-2.4812-.8598-5.1966 1.4386-5.7022 3.7463-.6158 2.811 1.2993 4.8545 3.747 5.7027 5.0864 1.7613 9.7542 4.5576 13.8558 8.015 4.7378 3.993 11.215-3.1594 6.4557-7.17m-40.9057 46.2038c-6.6583 1.6556-13.612 1.377-20.0747-.986-5.758-2.105-10.1592 6.4948-4.3193 8.6302 8.977 3.282 18.0324 3.8598 27.3262 1.5488 6.042-1.5015 3.0672-10.6846-2.9324-9.193m46.3852-17.3995c-8.1862-.146-16.3724-.292-24.5586-.4384-6.2188-.1108-5.6796 9.5245.505 9.6347 8.1863.1465 16.3725.293 24.5587.4384 6.2187.1113 5.6795-9.524-.5052-9.6347m44.0412-1.178c-5.537-3.9964-11.3587-6.952-17.8496-9.0707-2.469-.8058-5.228 1.3956-5.7022 3.7475-.5623 2.7874 1.2503 4.8876 3.747 5.7022 4.7388 1.547 9.308 3.8747 13.349 6.791 2.1123 1.5246 4.934 1.7295 6.8127-.357 1.6-1.776 1.769-5.2785-.357-6.813M992.17 191.8284c-.2748-.5524-.6488-1.069-1.1516-1.5224-1.23-1.107-3.1257-1.607-4.7923-1.249-1.026-.7194-2.2768-1.127-3.4384-1.0664-3.1444.1647-4.882 2.723-5.0517 5.6113-.0844 1.4385-.1687 2.8777-.2535 4.317-.092 1.5724.7044 2.9014 1.882 3.804.2098 2.5552 2.1838 4.5727 4.5274 4.9483.989 1.8985 2.8265 3.2143 5.0742 3.0965 2.2114-.1157 4.6915-1.9228 4.9493-4.2493.3-2.7027.6003-5.406.9005-8.1085.2726-2.462-.9143-4.5147-2.646-5.5816m10.6415-39.282c-.8267.1045-1.643.2406-2.4537.3937-1.0608-1.0392-2.6784-1.5377-4.263-1.5195-4.5373-2.028-10.4064 1.7465-11.3515 7.131-.1586.906-.1157 1.7376.0848 2.4778-1.325 3.492 1.589 7.7445 5.8857 7.142 1.6573 3.07 7.0202 3.4368 9.1825.4323 1.175-.168 2.2753-.7077 3.014-1.6815 1.3823-1.824 2.7653-3.6477 4.1478-5.472 2.5374-3.3464.739-9.535-4.2465-8.9037m38.496 1.307c-.0066-.061-.0116-.1068-.0116-.1123-.0243-.72-.1978-1.3775-.4748-1.9685.8085-2.0417.5634-4.338-1.2553-5.9754-1.2674-1.1405-3.2447-1.6026-4.9714-1.206-.824-1.278-2.1656-2.273-3.5315-2.5557-3.1118-.6433-5.3744 1.4072-6.3107 4.1463-.8532 2.4966-1.7064 4.9938-2.559 7.4905-.7898 2.3112.825 4.8194 2.96 5.8945.852 2.3518 3.1763 4.0626 5.853 3.4512.8554 2.472 3.2463 4.3368 6.4204 3.1907l3.5305-1.275c.998-.1973 1.9674-.5657 2.8404-1.161 4.2712-2.912 2.089-9.7516-2.49-9.919m-21.3962-21.839c-.264-.6313-.5282-1.263-.792-1.8943-.3223-.772-.7557-1.4297-1.2652-1.9717.4742-1.85.053-3.846-1.5086-5.2527-2.1717-1.9553-5.577-1.7328-7.5395.3954-.4654.5046-.9605.8846-1.5096 1.1594-1.4067-.9143-3.291-1.2238-4.7725-.7523-3.0332.9672-3.996 3.867-3.4645 6.7102l.2908 1.5548c.1548.8262.5827 1.497 1.1478 2.0412-2.4833 4.604 2.4307 9.9035 7.4488 7.1518 1.6078-.8817 3.2155-1.7635 4.8232-2.6442 1.0977.5045 2.3628.6306 3.677.2126 2.5633-.8174 4.5813-4.0383 3.4644-6.71m39.584-10.965c-.3893-.9833-.7787-1.9658-1.168-2.949-.7607-1.921-2.2202-2.9643-3.8158-3.3168-4.892-3.8367-11.6528-5.13-17.6563-2.897-.2853.1063-.5508.2368-.8058.379-2.538 1.0932-4.518 3.162-4.9013 6.281-.7006 5.7043 4.2497 9.7928 9.259 11.1934 4.5985 1.285 9.5748.526 13.6863-1.8077 3.3823.0083 6.9194-3.0518 5.402-6.883m24.0462 28.7582c-.385-3.059-3.7342-5.8702-7.0422-4.8022-.3712.12-.7435.24-1.1148.3602-.525-.7954-1.2254-1.4612-2.029-1.864-2.7826-1.3955-5.628-.066-7.1656 2.3856-1.0817 1.7245-2.1628 3.4496-3.2446 5.1735-1.4144 2.256-.51 4.755 1.28 6.2772-.178 3.3278 3.5057 6.694 7.089 5.608.0475-.015.0948-.0286.1422-.0435.2787.5712.661 1.1087 1.1814 1.577 2.0296 1.828 5.7567 1.8907 7.5396-.395l4.729-6.064c2.1987-2.8195 1.2084-6.6524-1.365-8.2127m-50.682 42.1064c.1125-.15.2254-.3008.3383-.4512 1.5878-2.1226 1.915-4.8853.0682-6.9943-1.605-1.832-4.7917-2.7346-6.9122-1.0778-1.1236.878-2.2813 1.643-3.4727 2.3138-.6532-4.3517-7.5263-6.6716-10.1332-1.666l-3.9297 7.544c-1.8285 3.5105 1.0663 8.0357 5.055 7.7218.2865-.0226.569-.0667.8543-.0964-.8498 3.81 2.013 8.607 6.5036 6.629 1.5477-.6813 3.0954-1.3632 4.643-2.045.124.075.2297.1636.3636.2302 2.3832 1.1952 6.13.3228 7.1656-2.385.3783-.99.7567-1.9793 1.135-2.9696.855-2.2356.068-5.1636-1.6787-6.7537m-19.262 46.1442c-.7475-3.1367-1.495-6.274-2.2428-9.4106-.2617-1.0993-.8907-1.9558-1.7136-2.5622-.6637-2.738-3.1983-5.044-6.6512-3.9287-1.8572.6004-3.565 1.4733-5.098 2.5606-1.482.3183-2.826 1.1808-3.5288 2.657-.2517.5287-.504 1.057-.7556 1.5856-1.48 2.0427-2.5634 4.3962-3.1444 6.9595-1.0035 4.4272 3.715 7.2813 7.2157 6.0497.3647.4908.7492.9733 1.1523 1.4458 1.5466 1.8104 4.4316 1.729 6.4386.5145 1.39.986 3.2803 1.3433 4.8633.8388 2.9246-.9325 4.1346-3.898 3.4643-6.71m31.6745 23.204c.0447-.5904.0882-1.1814.1323-1.7712.196-2.616-2.5628-4.8578-4.9295-5.001-.1806-.0105-.3574.0083-.5364.0143-1.4706-2.2714-4.6833-3.3443-7.3413-1.7597-.967-.2368-1.985-.2368-2.8943.0534-2.9394.9363-4.1154 3.8924-3.4643 6.7096l.585 2.5314c-.2474 3.3206 1.1797 6.743 4.1428 8.446 1.8154 1.0433 3.8874 1.306 5.858.9166.7376.4307 1.5467.7022 2.316.749 2.6868.1614 4.8965-1.5212 5.601-4.112 1.4524-2.1415 1.4975-4.4845.531-6.7762m4.795-36.651c-.9148-.4367-1.805-.6785-2.6723-.7892-.8974-1.6947-2.932-2.5088-4.9472-2.4394-4.573-2.6872-10.965-1.523-14.1335 2.8288-1.67 2.2934-1.8952 5.3646.2925 7.4377 1.0938 1.8892 2.7417 3.384 4.6816 4.2916.2164.9175.5634 1.838 1.0982 2.7522 3.6555 6.249 11.319 5.0016 16.047.8735 4.6248-4.0388 6.177-11.8285-.3664-14.9552m17.4084-39.2407c-1.41-1.4144-3.1262-2.0963-4.854-2.185-1.6077-1.02-3.5206-1.5835-5.488-1.4986-1.9117.082-3.662.8173-5.103 1.963-3.704 1.6275-5.8888 5.9318-4.4 10.046.436 1.2052 1.1153 2.254 1.96 3.1302 1.4355 2.4333 3.8082 4.3175 6.6 5.0423 1.8727.4864 3.8352.4208 5.672-.0986 3.3597 1.1094 6.1285-1.6985 6.4793-4.7707 2.2256-3.559 2.235-8.519-.8664-11.6285m15.4387 33.665c-.4015-3.6868-4.7846-7.1633-8.1873-4.2926-1.0817.912-2.163 1.8253-3.244 2.7374-2.7854-1.3252-6.8964-.4847-8.0144 3.4065-.6053 2.1068-1.21 4.213-1.8154 6.3186-.764 2.6597 1.36 5.4202 3.904 6.2717-.0414.5354-.074 1.073-.0888 1.6138-.1382 5.114 6.2128 6.08 9.2994 3.2932 1.2728-1.1495 2.5456-2.299 3.818-3.4484.593.4687 1.2976.8256 2.1336.9985 2.6317.5436 5.9793-1.2673 6.3114-4.1468l.7502-6.5074c.4158-3.6102-2.017-6.0562-4.8667-6.244m-1.991 39.8452c-1.3653-.126-2.592-.4098-3.699-.9-1.417-2.011-3.451-3.4875-5.6586-4.865-2.4196-1.509-5.0358-.396-6.5162 1.594-1.707.2946-3.3344 1.4612-4.2113 3.0782-1.9993-.2858-4.139.443-5.4037 2.6972-3.337 5.95 1.8082 13.206 8.5057 12.137 1.351-.2154 2.505-.661 3.487-1.2663 2.4476 1.2084 5.2968 1.2348 8.2308-.8592.5557-.3965 1.0255-.878 1.449-1.3945.542.0997 1.0912.1845 1.6518.2357 2.8927.2677 5.645-1.1048 6.3114-4.1462.5645-2.577-1.2828-6.0464-4.1468-6.3108m35.3562-22.2468c-.374.3454-.748.6912-1.122 1.0377-2.132-1.293-5.1987-1.2276-6.9486.812-.3343.3904-.651.809-.9506 1.2463-1.3097-1.1313-3.0546-1.5978-4.9906-1.0597-3.3338.927-5.3552 3.2287-6.1367 5.8917-2.1237 1.4794-3.3206 4.2784-1.5366 7.0918 1.0404 1.6403 2.0803 3.281 3.1207 4.9207 1.8667 2.9434 6.1446 3.2518 8.4672.6968.146-.1614.2814-.3288.4202-.4946 1.9052-.161 3.5955-.889 5.0402-2.011 2.7263.277 5.566-.8702 7.4768-2.7924 2.3584-2.3733 2.6668-6.0454 5.0952-8.1945 5.0798-4.698-2.8723-11.6257-7.935-7.1446m.9028-28.0794c-1.3527-6.965-10.2086-10.9444-15.7566-6.2375-.504.267-.948.6097-1.3015 1.0145-2.6162-.993-5.179.3322-6.6336 2.6184-4.7834 7.5176 2.7275 17.0543 11.1274 14.7173.5332-.148 1.0306-.3332 1.502-.5414 6.23.684 12.3364-5.0104 11.0624-11.5713m-9.1145-31.2942c-2.4868-.5855-3.905-1.9316-5.115-4.1435-2.294-4.1953-7.424-2.4983-9.2972.8565-2.609-2.217-7.4218-1.3638-8.7387 2.5478-2.4-.2098-4.8307 1.0168-5.337 4.1083-.7633 4.6655.5278 8.6708 3.9888 11.9248 2.8266 2.658 6.9585 1.1996 8.44-1.936.987.2913 2.0744.4224 3.2916.3156 2.8872-.2528 5.349-2.0616 6.6903-4.5742 1.2332.5744 2.5385 1.0343 3.9127 1.3582 6.6908 1.5752 8.8636-8.8807 2.1645-10.4576m36.692 23.3494c-2.3607-3.3118-6.5493-5.1558-10.597-5.07-.3734-.146-.7556-.2758-1.1527-.3722-5.5932-1.3544-11.6897 3.7073-10.0242 9.6303.1808.6428.443 1.2244.7574 1.7548.617 4.4862 4.7428 8.0155 9.3715 7.5766.651-.0612 1.265-.211 1.8467-.4208 2.437 1.102 5.354 1.0498 7.7648-.5266 4.1286-2.7 4.8055-8.6824 2.0335-12.572m-16.5126-39.402c-.1867.1492-.3596.3078-.5287.4686-1.7532-1.2926-4.3908-1.7575-6.1076-.3095-2.7598 2.327-4.5196 5.1536-4.1087 8.9072.397 3.628 3.1923 6.866 6.7184 7.8034 1.39.369 2.6724.445 3.855.2934 6.541 4.2922 16.278-.11 16.2092-8.395-.0662-7.9283-9.2482-14.1852-16.0376-8.7683m-28.3628-22.3956c-1.0944 1.8253-1.4993 3.964-1.235 5.987-.1354 1.5845.1273 3.2165.7965 4.731l-.198 2.9875c-.2485 3.7446 3.988 5.4554 6.954 4.8076 2.755-.6014 5.5534-1.9282 7.5577-3.9865 2.5017-1.6654 4.3473-4.3967 4.5313-7.876.5105-9.6667-12.968-15.7236-18.4064-6.6506m-4.095-25.572l-2.6967 1.8094c.2814-4.6584-6.118-6.9073-9.3666-3.5778-.4197.4296-.8383.8597-1.258 1.2894-2.7764-3.8346-10.2714-2.554-9.686 3.227.2804 2.7643.5602 5.528.84 8.292.325 3.2082 3.0524 5.159 5.7942 4.9602 1.2122 2.821 5.0875 4.4277 7.886 2.5506 1.9718-1.323 3.9436-2.6453 5.916-3.9683 1.389 1.269 3.5012 1.8527 5.4642 1.449.414-.0848.829-.1702 1.2436-.255 3.682-.7573 4.356-4.1336 3.1268-6.818.2803-1.1253.5612-2.251.8416-3.3764 1.108-4.449-4.3622-8.093-8.1053-5.582M68.8115 425.5463c-.8267.1046-1.643.2407-2.4537.3938-1.0608-1.0392-2.6784-1.5377-4.263-1.5195-4.5373-2.028-10.4064 1.7465-11.3515 7.131-.1586.906-.1157 1.7376.0848 2.4778-1.325 3.492 1.589 7.7445 5.8857 7.142 1.6573 3.07 7.0202 3.4368 9.1825.4323 1.175-.168 2.2753-.7077 3.014-1.6815 1.3823-1.824 2.7653-3.6477 4.1478-5.472 2.5374-3.3464.739-9.535-4.2465-8.9037m38.496 1.307c-.0066-.061-.0116-.1068-.0116-.1123-.0243-.72-.1978-1.3775-.4748-1.9685.8085-2.0417.5634-4.338-1.2553-5.9754-1.2674-1.1405-3.2447-1.6026-4.9714-1.206-.824-1.278-2.1656-2.273-3.5315-2.5557-3.1118-.6433-5.3744 1.4072-6.3107 4.1463-.8532 2.4966-1.7064 4.9938-2.559 7.4905-.7898 2.3112.825 4.8194 2.96 5.8945.852 2.3518 3.1763 4.0626 5.853 3.4512.8554 2.472 3.2463 4.3368 6.4204 3.1907l3.5305-1.275c.998-.1973 1.9674-.5657 2.8404-1.161 4.2712-2.912 2.089-9.7516-2.49-9.919m-21.3962-21.839c-.264-.6313-.5282-1.263-.792-1.8943-.3223-.772-.7557-1.4297-1.2652-1.9717.4742-1.85.053-3.846-1.5086-5.2527-2.1717-1.9553-5.577-1.7328-7.5395.3954-.4654.5046-.9605.8846-1.5096 1.1594-1.4067-.9143-3.291-1.2238-4.7725-.7523-3.0332.9672-3.996 3.867-3.4645 6.7102l.2908 1.5548c.1548.8262.5827 1.497 1.1478 2.0412-2.4833 4.604 2.4307 9.9035 7.4488 7.1518 1.6078-.8817 3.2155-1.7635 4.8232-2.6442 1.0977.5045 2.3628.6306 3.677.2126 2.5633-.8174 4.5813-4.0383 3.4644-6.71m39.584-10.965c-.3893-.9833-.7787-1.9658-1.168-2.949-.7607-1.921-2.2202-2.9643-3.8158-3.3168-4.892-3.8367-11.6528-5.13-17.6563-2.897-.2853.1063-.5508.2368-.8058.379-2.538 1.0932-4.518 3.162-4.9013 6.281-.7006 5.7043 4.2497 9.7928 9.259 11.1934 4.5985 1.285 9.5748.526 13.6863-1.8077 3.3823.0083 6.9194-3.0518 5.402-6.883m24.0462 28.7582c-.385-3.059-3.7342-5.8702-7.0422-4.8022-.3712.12-.7435.24-1.1148.3602-.525-.7954-1.2254-1.4612-2.029-1.864-2.7826-1.3955-5.628-.066-7.1656 2.3856-1.0817 1.7245-2.1628 3.4496-3.2446 5.1735-1.4144 2.256-.51 4.755 1.28 6.2772-.178 3.3278 3.5057 6.694 7.089 5.608.0475-.015.0948-.0286.1422-.0435.2787.5712.661 1.1087 1.1814 1.577 2.0296 1.828 5.7567 1.8907 7.5396-.395l4.729-6.064c2.1987-2.8195 1.2084-6.6524-1.365-8.2127m16.343-10.995c-1.0944 1.8252-1.4993 3.9638-1.235 5.9868-.1354 1.5846.1273 3.2166.7965 4.7312l-.198 2.9874c-.2485 3.7446 3.988 5.4554 6.954 4.8076 2.755-.6014 5.5534-1.9282 7.5577-3.9865 2.5017-1.6654 4.3473-4.3967 4.5313-7.876.5105-9.6667-12.968-15.7236-18.4064-6.6506m-4.095-25.572l-2.6967 1.8094c.2814-4.6584-6.118-6.9073-9.3666-3.5778-.4197.4296-.8383.8597-1.258 1.2894-2.7764-3.8346-10.2714-2.554-9.686 3.227.2804 2.7643.5602 5.528.84 8.292.325 3.2082 3.0524 5.159 5.7942 4.9602 1.2122 2.821 5.0875 4.4277 7.886 2.5506 1.9718-1.323 3.9436-2.6453 5.916-3.9683 1.389 1.269 3.5012 1.8527 5.4642 1.449.414-.0848.829-.1702 1.2436-.255 3.682-.7573 4.356-4.1336 3.1268-6.818.2803-1.1253.5612-2.251.8416-3.3764 1.108-4.449-4.3622-8.093-8.1053-5.582M315.38 377.978c1.231 1.211 2.105 2.7923 2.9152 4.2997.4834.8995 1.0207 2.6545 1.847 3.2615 1.7468 1.2845.2485 4.0794-1.4894 3.3425-.155.0443-.313.078-.4755.086-4.0083.2052-12.654-6.2265-10.066-10.8214 1.5776-2.8013 5.346-2.0616 7.2688-.1684m-18.898-2.761c1.3952 6.8957 5.4684 13.156 11.016 17.4455 4.6772 3.6155 12.1796 6.7526 18.0066 3.4587 2.7128-1.5334 2.737-5.4894 1.6564-8.413-1.0795-2.9228-2.9222-5.7318-2.754-8.8436.0744-1.3804.5506-2.7216.568-4.104.051-4.1933-3.9008-7.1934-7.4877-9.3663-.7692-.466-1.588-.942-2.4875-.956-.943-.0147-1.806.4778-2.6617.8736-2.0297.9398-4.2837 1.391-6.5185 1.3063-2.5133-.0953-5.279-.7968-7.3728.5975-2.4294 1.6183-2.544 5.14-1.9647 8.0013m-23.5435-51.7507c2.8512-.4893 5.6158 1.3146 6.7962 3.8694.8174 1.1366 1.437 2.393 1.7787 3.5668.1986.6833-.127 1.4163-.6653 1.8657-.335 1.0795-1.5222 1.9074-2.617 1.0845-2.757-2.072-5.1214-4.5152-6.4535-7.7447-.4115-.9978-.1057-2.424 1.161-2.6417m-15.0597-7.659c-.4706 1.2128-.1902 2.577.1723 3.8266 2.4602 8.499 8.613 15.859 16.541 19.7876 5.475 2.7137 13.6097 9.4176 16.9777 1.3388 3.5333-8.476-4.6332-11.2542-6.3616-18.6868-.336-1.4477-.3558-3.0477-1.243-4.2408-.842-1.1328-2.2734-1.6325-3.6276-2.029-5.0658-1.4837-10.299-2.3928-15.568-2.7043-2.6432-.156-5.9323.239-6.8906 2.7077m-18.2938 35.8466c1.5207.48 2.9924 1.266 4.23 2.2955 4.5152 1.1847 8.5416 5.5068 7.4788 10.3482-.3274 1.49-1.978 2.1918-3.3437 1.8792-.1068-.0244-.2065-.0688-.3126-.0964-2.946.6878-5.219-.7897-6.576-3.1243-.5444-.2398-1.0846-.5102-1.6354-.8386-1.281-.763-1.4995-2.0442-1.1026-3.1248-.8548-1.2632-1.5706-2.6343-2.103-4.0747-.7127-1.9325 1.558-3.835 3.3646-3.2642m-14.8285-9.1676c.223 1.6906 1.0372 3.2455 1.4167 4.908.38 1.6623.1975 3.6614-1.1583 4.695-1.057.805-2.8534 1.2034-2.8082 2.531.014.3974.2188.7606.4226 1.1022 8.065 13.5337 28.08 30.0173 40.719 12.6732 4.6978-6.4478-.4104-9.187-4.5634-13.3127-5.1574-5.1244-11.1104-12.244-15.1486-18.3294-.5505-.8297-1.0728-1.7037-1.838-2.34-.8393-.6975-1.9082-1.0547-2.9713-1.3018-3.228-.7488-6.7782-.5593-9.6414 1.108-2.8633 1.6683-4.8625 4.9814-4.429 8.2664m10.5457-75.37c2.573-2.7788 8.9462-.6898 11.0086 1.8638.0485.061.0908.1266.1315.1928.0856.0822.179.1533.2598.242 1.1296 1.2515.744 2.4612-.22 3.217-.1005.9715-.5844 1.8496-1.3005 2.5588-.0726.2698-.168.534-.2972.7886-1.0353 2.0416-3.3735 2.732-5.2366 1.3322-.3168-.2378-.4896-.5397-.5624-.8557-3.281-1.527-6.3854-6.529-3.7833-9.3394m-6.756 7.1628c-.0993 1.1355-.4828 2.2868-.1998 3.391.2618 1.024 1.0524 1.819 1.8364 2.5284 3.944 3.5678 10.2035 8.3202 15.735 8.717 2.7605.1983 11.7788-1.4365 8.7168-6.027-.9895-1.4824-3.567-2.351-3.0128-4.045.2035-.6208.8087-1.0127 1.399-1.2923 2.7075-1.2826 5.9624-1.298 8.4384-2.9854.8757-.5977 1.678-1.575 1.469-2.6145-.1077-.534-.465-.9784-.824-1.3877-6.4486-7.3568-16.628-10.3826-26.3943-10.943-2.8835-.1655-6.277.104-7.8622 2.5183-2.283 3.4747 1.0584 7.9986.6985 12.1405m70.2034 9.2573c1.6286-1.0397 4.1048-.2895 6.206 1.2088 3.0468 1.628 5.7713 4.492 6.3704 7.2248.2283 1.0445-.7217 2.0387-1.786 1.733-.4456-.1286-.898-.2764-1.3523-.4353-.1153.0232-.231.043-.3507.0522-.3563.284-.83.346-1.305.277-1.466-.2126-3.5528-1.4047-4.9373-2.9498-1.8584-1.425-3.4294-3.295-3.4773-5.3066-.261-.6927.0006-1.4004.6323-1.804m-13.2015-5.2503c-.8235 2.296.3948 4.8428 2.008 6.6718 1.6135 1.8285 3.6535 3.294 4.982 5.3385 1.6938 2.6082.1304 5.3722 2.4812 7.611 1.691 1.612 4.6993 2.142 6.8398 2.1317 3.5715-.017 7.1714-.6903 10.534-1.879 1.8966-.6712 3.8584-1.6284 4.825-3.3928 1.1272-2.0583.575-4.6535-.4955-6.7415-1.8308-3.5717-5.0205-6.3046-8.5494-8.2158-3.5283-1.9124-7.4077-3.0715-11.2754-4.1396-2.0687-.5717-4.2044-1.126-6.337-.8792-2.1318.2467-4.2876 1.475-5.0128 3.495m43.9505 46.855c3.2367.0462 5.7984 3.9215 6.0657 7.189.0225.0757.051.1516.0708.227.127.165.2234.3687.2674.6236.0465.2693.086.555.1184.8445.2593 1.146.287 2.3844-.5158 3.2226-.2295.4633-.595.8594-1.1483 1.137-2.5798 1.2978-4.9607-1.0927-6.2006-3.3015-1.2965-1.6133-2.1246-3.629-1.8494-5.5753.1332-.9427.545-1.7385 1.1282-2.2794.108-.1873.237-.3543.3823-.5066.0406-.133.098-.258.1664-.3752.0184-.0795.0282-.1612.05-.2395.1715-.6324.8584-.9748 1.4647-.9662m-6.023-14.1492c-3.0642 1.0816-3.8543 4.9704-4.154 8.206-.5138 5.5513-1.248 11.8902 1.992 16.732 4.4156 6.6005 9.8132 10.7518 17.1548 13.4216.947.3447 2.0042.6544 2.9408.2832 1.0426-.413 1.609-1.5488 1.8735-2.639.5544-2.2864.1958-4.6834-.165-7.0077-.8436-5.4342-1.704-10.929-3.81-16.0092-2.1058-5.0803-5.614-9.784-10.539-12.23-1.6406-.8145-3.5653-1.366-5.293-.7567M936.3933 111.1122c25.7538-5.775 39.023-34.5794 26.2704-57.6873-10.4036-18.852-32.405-38.773-78.32-47.2975-44.1694-8.201-75.3555-5.56-97.059.8895-31.4178 9.3363-38.5113 50.9298-11.8796 70.0346 16.2508 11.6583 39.8064 23.364 73.5718 30.946 39.5507 8.8807 67.9813 7.473 87.4165 3.1146M64.984 264.9418c-18.2075-30.9126-6.888-30.7833 2.2742-27.5038 4.1083 1.4703 7.935 3.626 11.3956 6.2843 37.356 28.7007 83.729 58.699 90.7453 37.0122 12.012-37.1276-95.1196-91.7403-83.1626-100.2704 11.9575-8.5302 47.7946 28.8782 47.7946 5.5263 0-42.3908-93.46-68.2716-122.284-42.3908-20.2644 18.195-8.9737 100.1228 16.3104 125.2176 23.1372 22.964 72.6877 77.2527 74.865 51.8636.7256-8.464-16.925-20.0614-37.9385-55.7388zM1521.385 130.8596c36.9543 11.8698 59.2145 59.2493 49.88 88.343-9.3358 29.0937-56.0763 31.1657-93.0302 19.2965-36.9543-11.8703-53.8957-52.935-44.5605-82.0288 9.335-29.093 50.7562-37.481 87.7106-25.6106m-683.4424 216.431c-4.1182-25.356-23.7252-56.4827-48.7487-65.989-26.64-10.12-58.9575-19.8743-86.386-7.0765-24.1842 11.284-2.896 28.9616-9.7087 48.518-4.3418 12.4636-15.972 20.9004-27.8 26.758-11.8273 5.8563-24.6406 10.0615-35.1417 18.057-7.4652 5.684-13.9346 14.837-11.448 23.8845 2.5117 9.1413 12.6647 13.584 21.7388 16.3278 10.8894 3.292 22.0833 5.9352 33.4574 6.1566 27.4117.533 54.8475-12.9417 81.477-6.4172 18.1266 4.441 32.676 17.4536 48.491 27.362 15.8144 9.9085 36.2604 16.8593 52.786 8.1873 10.4845-5.502 17.4022-16.8933 18.247-28.7036.8444-11.8108-4.112-23.739-12.5152-32.081-7.4597-7.4058-17.795-12.6465-21.7673-22.3787-1.627-3.9876-1.9916-8.3542-2.6817-12.605M679.8574 133.8105c-1.2113.1936-3.013.0892-5.5435-.4524-2.3593-.5052-5.377-.9132-6.03-3.23-.3438-1.22.249-2.6047 1.304-3.311 5.925-3.9668 16.8746 5.9386 10.2694 6.9935m11.095-6.237c-1.789-1.1594-3.7618-2.239-5.09-3.7406-4.0112-4.534-8.582-5.6474-14.6986-6.3335-2.852-.3197-3.67 2.258-5.9473 3.0208-2.4728.8283-5.612-1.0233-7.241 2.192-.619 1.222-.43 2.6794-.6493 4.032-.274 1.6918-1.2023 3.2842-1.1166 4.996.1297 2.583 2.4978 4.4814 4.8613 5.5434 3.657 1.6424 6.9355 3.6895 10.886 4.4752 3.571.7097 8.0367 2.7317 11.5746 2.721 2.3232-.0072 4.396-1.369 6.312-2.6804 1.679-1.1485 3.424-2.3692 4.362-4.172.5823-1.1198.809-2.3886.9392-3.6433.323-3.1186-1.765-4.838-4.1925-6.411m-19.3687 64.5518c-2.3284-.807-7.3322-2.8625-5.7082-6.1804.074-.15.1373-.299.1922-.4467 1.864.0358 3.7206.3456 5.5137.959 1.8948.648 7.3147 2.9136 7.3526 5.49.043 2.9198-5.8224.7074-7.3504.178m8.574-9.7187c-1.8254-1.2646-3.8603-2.271-5.9175-3.1167-4.548-1.8695-11.065-3.9478-16.0177-2.4792-2.9585.877-7.941 4.567-8.2142 7.8276-.0576.689.2008 1.3614.455 2.005 1.5858 4.0196 3.252 8.1638 6.3283 11.204 4.1182 4.0706 10.161 5.5477 15.9464 5.923 3.8545.25 7.8184.072 11.4173-1.3273 2.0557-.7995 4.0178-2.047 5.195-3.9096 1.1768-1.8618 1.414-4.4133.179-6.2374-.7517-1.1112-1.9394-1.843-2.872-2.808-.937-.9703-1.6046-2.163-2.416-3.2407-1.1345-1.507-2.5333-2.767-4.0835-3.8407m57.9823-8.855c-5.088 3.639-13.7126 2.6403-17.4132-2.4786-3.2155-4.4474-1.4187-8.6218 4.3032-8.451 3.7674.1125 21.841 4.6855 13.11 10.9297m6.4897-14.1667c-1.7476-.6162-3.579-1.047-5.3967-1.3737-3.3764-.6063-29.8762-6.724-27.4872 2.6232 1.0982 4.2977-3.953 7.7095-4.8202 12.0596-.0847.4246-.124.8845.069 1.2717.2023.4066.6183.6555 1.0127.8817 2.468 1.4152 4.9357 2.8305 7.4038 4.2457 1.9232 1.103 3.853 2.2095 5.9 3.0632 7.0907 2.957 17.105 3.4756 22.5623-2.807 2.1808-2.5097 2.9448-5.5697 4.2958-8.1202.905-1.709 4.3492-4.375 3.9445-6.4217-.1454-.734-.6793-1.326-1.2312-1.8323-1.791-1.6433-3.949-2.778-6.2525-3.5903m20.5195-28.9137c-1.5843 1.0725-4.549.6866-6.1896.0284-.789-.317-2.9532-1.66-1.6368-2.4466.8724-.521 1.4153-1.1947 1.6932-1.9257 1.942-.093 4.0088-.058 5.6267.9124 1.5332.9194 2.1372 2.3285.5065 3.4316m8.9223-6.1044c-3.068-5.9703-13.8774-6.8788-19.2906-5.021-3.1995 1.0978-6.0135 3.0764-8.6923 5.1377-.3285.253-.6608.5123-.9045.8476-2.3394 3.213 4.9374 9.2196 7.335 10.9224 4.3293 3.0742 14.8093 4.8658 19.5793 1.7203 1.6885-1.1135 2.6347-3.1016 2.9405-5.0976.3053-1.9955.0497-4.029-.2064-6.0316-.116-.908-.3782-1.7326-.761-2.4778m-32.0245 101.963c-1.9736 1.829-8.824 1.1664-11.1297.5227-2.5002-.6974-5.348-2.712-4.4642-5.4886 2.8668-.389 5.7718-.2928 8.6185.3306 1.751.383 3.51.9236 5.106 1.75 1.379.7135 3.2814 1.5763 1.8694 2.8853m4.1583-10.9074c-1.112-1.3052-2.7568-1.868-5.8095-1.9262-6.2805-.119-12.3403-1.0384-18.6085.3617-2.2058.4926-3.0157 2.184-2.831 3.887-3.6942 8.3 2.5943 14.7025 10.268 16.9725 3.8378 1.1348 8.1127 1.4488 12.0434.6092 2.7923-.5964 10.2652-3.5025 11.4618-5.8825.7418-1.4744-.1283-3.2537-1.216-4.496-1.0873-1.2425-2.4567-2.3532-2.9358-3.9318-.7895-2.5996-1.36-4.405-2.3724-5.594m39.4687-20.683c-3.1866 1.026-6.9933 2.1637-10.373 1.9446-4.585-.2975.4766-4.5636 2.068-5.756.562-.4212.968-.9104 1.246-1.4322.1826-.0283.3677-.0642.5575-.1166 3.0607-.8467 8.2458-2.667 10.8365.194 2.5855 2.8556-2.1912 4.4758-4.335 5.1662m14.79-8.9926c-.543-1.35-1.5588-2.5873-3.173-3.619-5.293-3.3836-14.9655-2.1997-20.6367-.631-1.5072.4165-2.2333 1.75-3.6212 2.382-2.199 1.002-4.6563.8905-6.871 2.202-1.5565.9212-3.0206 2.2278-3.4854 3.9727-.4634 1.7382.1387 3.603-.18 5.378-.8803 4.8834-.4827 5.7235 4.2527 7.9495 6.893 3.241 17.0933 1.7572 23.842-1.1088 5.3223-2.2595 12.2906-10.511 9.8727-16.5254M1403.0104 467.4526c-2.7517 2.1817-5.976 4.175-9.9278 4.6-6.5498.7046-13.0495-2.9498-19.4424-5.3-15.0125-5.5193-32.7608-3.6913-43.805 4.5114-11.0452 8.2027-14.8318 22.3687-9.3466 34.9633 10.495 24.0993 47.7776 36.0385 60.6295 59.5572 11.5097 21.0617-.3932 43.145-1.976 65.0285-.228 3.146-.217 6.4122 1.178 9.5054 2.9175 6.4683 11.5107 10.7913 19.672 11.563 35.105 3.3167 57.3437-21.4148 68.7448-43.816 7.838-15.4014 20.4354-28.852 28.4647-44.396 8.4445-16.3464 14.6897-33.616 18.5518-51.4463 4.1952-19.3674 8.498-44.3353-6.7112-63.418-14.9794-18.7947-35.9596-23.3733-58.4577-17.3533-23.2836 6.2298-30.973 22.839-47.574 36.001zM418.0384 126.268c-14.0196 9.3935-26.188 20.535-26.037 38.7538.151 18.2188 13.0187 31.532 32.611 34.6962 22.7344 3.6715 39.4576-7.6586 47.3012-21.054 8.066-13.776 16.1482-34.256-.0534-50.6742-6.8655-6.9574-16.8097-11.0712-26.9027-10.9886-10.771.088-19.7228 4.4448-26.9192 9.2668zM259.0285 126.6217c-4.579 3.2717-9.0375 6.694-13.3808 10.272-4.2564 3.5063 1.2995 10.0333 5.5653 6.5194 4.3433-3.5776 8.802-7.001 13.3807-10.272 4.4844-3.2037-1.0973-9.7114-5.5652-6.5193m50.5582-26.1632c-1.6087-1.8833-4.155-1.8316-6.043-.4795-3.6008 2.5797-7.2015 5.159-10.8022 7.738-1.881 1.3473-1.89 4.3872-.4778 6.0404 1.6087 1.8827 4.155 1.831 6.043.479l10.8022-7.7375c1.881-1.348 1.8898-4.3873.4777-6.0405m-11.1008 33.483c-5.7137.797-11.2268 2.3084-16.5927 4.4207-5.1275 2.0184-1.417 9.746 3.703 7.731 4.6622-1.8356 9.4427-3.027 14.4032-3.7183 5.4676-.7625 3.9446-9.194-1.5136-8.4334m-20.6622 30.4177c-5.5444 1.6466-10.706 3.8594-15.5815 6.9867-1.9618 1.2588-3.0784 3.4288-2.015 5.7147.8836 1.8992 3.772 3.264 5.718 2.0156 4.1718-2.6758 8.6315-4.8694 13.392-6.2837 2.2366-.664 3.8777-2.506 3.462-4.972-.3527-2.0882-2.7583-4.1198-4.9755-3.4613m49.4046-15.8282c-6.5325 1.879-12.8815 4.19-19.0498 7.0493-4.999 2.3172-1.3138 10.0557 3.7028 7.7303 5.467-2.534 11.068-4.68 16.8606-6.3462 5.249-1.5093 3.7907-9.9585-1.5136-8.4333m-19.1386 29.1357c-6.565 1.7482-12.9342 4.0137-19.0926 6.8834-4.994 2.3272-1.3094 10.0657 3.7028 7.7304 5.4676-2.5478 11.073-4.6277 16.9035-6.1804 5.2917-1.4087 3.8248-9.8547-1.5137-8.4333m-77.43-11.7595c-4.051 3.403-8.102 6.806-12.1526 10.209-4.222 3.5457 1.3313 10.076 5.5647 6.5192l12.153-10.209c4.2214-3.5457-1.3318-10.076-5.5652-6.5192m31.6426 25.1637c-3.7353 1.8293-7.4706 3.6594-11.2058 5.4888-4.944 2.4215-1.2676 10.1645 3.7023 7.7303 3.7352-1.83 7.4704-3.6593 11.2062-5.4888 4.944-2.4215 1.267-10.165-3.7028-7.7303m78.621-73.7164c-.946-1.9783-3.6958-3.163-5.718-2.0156-2.4622 1.3972-4.924 2.7944-7.386 4.1917-2.0118 1.1423-3.0636 3.522-2.015 5.7152.945 1.9776 3.6956 3.1628 5.7173 2.0155 2.4622-1.3972 4.9243-2.795 7.3865-4.1922 2.0118-1.1413 3.063-3.5216 2.015-5.7147M396.8925 309.803c15.9153-2.33 30.4737-10.6178 46.0832-14.8385 2.6048-.7046 5.531-1.2717 7.7425-.1962 3.3405 1.625 3.1294 5.933 1.8997 9.3367-1.2294 3.4037-3.1137 7.0487-1.856 10.221 1.1057 2.7906 4.4935 4.3884 7.9703 4.633 3.4772.2444 7.056-.6407 10.502-1.635 17.878-5.1553 34.6537-13.43 51.0094-22.0527 28.8957-15.2333 57.9575-32.5854 76.4058-57.172 3.346-4.4594 6.3946-10.0275 4.0046-14.434-1.9492-3.594-6.8542-5.0376-11.4677-5.7477-17.0337-2.6214-35.2524.7412-52.5744 5.444-25.063 6.8052-53.5407 15.8812-76.049 28.7163-17.3513 9.8933-78.2794 35.9128-79.432 52.1723 1.1526 5.386 9.291 6.4997 15.7615 5.5528zm663.3874 34.91c25.8997-59.3524 73.4218-56.5495 97.0132-59.3524 15.8447-1.883 48.9365-2.9802 60.685 10.6642 4.6773 5.4328 3.6055 13.6598 4.2455 20.3705 1.1407 11.947 2.8712 23.8695 4.3043 35.7856 1.5037 12.5003 2.87 25.8495-2.8034 37.0892-1.6457 3.2606-4.0416 6.3857-7.458 7.6762-6.8545 2.588-13.9276-3.1103-18.4985-8.836-4.5708-5.7266-9.4793-12.5413-16.7815-13.141-7.2256-.594-13.5596 5.7098-15.5528 12.68-1.9933 6.97-.7105 14.406.5838 21.539 3.014 16.6066 6.0277 33.212 9.041 49.818 1.665 9.1764 3.3316 18.6046 1.5763 27.764-1.7548 9.1588-7.7224 18.1244-16.698 20.6563-10.393 2.9318-21.663-3.8108-26.999-13.2005-5.472-9.6314-6.28-21.867-5.3618-32.71.7673-9.0598 4.7708-20.3292-4.2938-26.8928-4.5478-3.293-10.9803-3.1356-16.0122-.6433-5.0314 2.4918-8.8185 6.9795-11.6693 11.817-4.0692 6.9056-7.1513 15.366-14.4744 18.6245-3.6605 1.628-7.88 1.626-11.7894.7524-12.4102-2.7738-21.6996-13.8907-25.423-26.049-3.723-12.1585-2.7378-25.2455-.734-37.8027 3.1785-19.9188 9.1215-38.326 17.1-56.6094zM1328.1154 127.7483c5.5208-2.7246 11.0422-5.449 16.563-8.1735 4.765-2.3508.305-9.329-4.4377-6.9893-5.5208 2.7246-11.0422 5.449-16.563 8.1735-4.765 2.3508-.3053 9.3297 4.4377 6.9893m-9.4938 30.785c4.069-2.4926 8.138-4.9852 12.2065-7.477 4.5396-2.7805.115-9.7786-4.4376-6.9894l-12.2064 7.477c-4.5396 2.7804-.115 9.7785 4.4376 6.9893m-12.1133-50.712c4.0522-3.686 8.105-7.3717 12.1566-11.058 3.9387-3.5822-2.1612-9.1815-6.0844-5.6137-4.052 3.686-8.105 7.3718-12.1575 11.0585-3.9377 3.582 2.1618 9.1818 6.0853 5.6134m-16.3625 38.6744l10.517-9.4868c3.9524-3.5652-2.1488-9.1635-6.084-5.6135-3.506 3.1627-7.0117 6.3247-10.5172 9.4868-3.9524 3.5652 2.149 9.1635 6.0842 5.6135m-12.436 42.389c5.8372-1.9962 10.9625-5.005 15.682-8.9512 1.728-1.4444 1.2385-4.4575-.236-5.849-1.795-1.695-4.144-1.19-5.8488.236-3.5433 2.962-7.6623 5.1594-12.017 6.649-5.0303 1.72-2.633 9.643 2.4197 7.9153m-15.9016-50.4994c1.725-5.6278 5.0023-10.619 9.5966-14.3277 4.0918-3.305-.288-10.3412-4.4383-6.9898-6.3805 5.1517-10.807 11.5557-13.2145 19.4124-1.5654 5.1066 6.5024 6.9763 8.0563 1.905m-7.7018 41.8013c3.725-5.9555 7.4498-11.912 11.1748-17.8674 2.8292-4.5245-4.494-8.3857-7.3086-3.8857-3.725 5.9553-7.4497 11.9118-11.1747 17.8672-2.8302 4.5248 4.494 8.3857 7.3085 3.8857m-18.5954 32.9096c5.386-2.306 10.1318-5.2822 14.5582-9.1192 1.6838-1.4596 1.2842-4.4616-.2357-5.849-1.8017-1.646-4.1473-1.24-5.8496.2358-3.2312 2.8018-6.962 5.1333-10.8925 6.817-2.055.8793-3.452 2.864-2.7484 5.1674.5998 1.9617 3.0998 3.6333 5.168 2.748" fill="#ffffff"/></g></g></svg>
