<svg id="Layer_1" xmlns="http://www.w3.org/2000/svg" viewBox="0 0 130 36"><style>.st0{fill:#fff}</style><ellipse class="st0" cx="19.6" cy="17.1" rx="1.9" ry="2"/><ellipse class="st0" cx="12.8" cy="17.1" rx="1.9" ry="2"/><path class="st0" d="M28.5 0H3.8C1.7 0 0 1.7 0 3.7V28c0 2.1 1.7 3.7 3.8 3.7h21l-1-3.3 2.4 2.1 2.2 2 4 3.4V3.7c-.1-2-1.8-3.7-3.9-3.7zm-7.1 23.5s-.7-.8-1.2-1.5c2.4-.7 3.3-2.1 3.3-2.1-.8.5-1.5.8-2.1 1.1-.9.4-1.8.6-2.7.8-1.8.3-3.4.2-4.8 0-1.1-.2-2-.5-2.7-.8-.4-.2-.9-.4-1.4-.6-.1 0-.1-.1-.2-.1h-.1c-.3-.2-.5-.3-.5-.3s.9 1.4 3.2 2.1c-.6.7-1.2 1.5-1.2 1.5-4.1-.1-5.6-2.7-5.6-2.7 0-5.8 2.7-10.5 2.7-10.5 2.7-2 5.2-1.9 5.2-1.9l.2.2c-3.3.8-4.8 2.3-4.8 2.3s.4-.2 1.1-.5c2-.8 3.5-1.1 4.2-1.1h.3c1.1-.1 2.4-.2 3.7 0 1.8.2 3.6.7 5.6 1.7 0 0-1.5-1.4-4.6-2.3l.3-.3s2.5-.1 5.2 1.9c0 0 2.7 4.7 2.7 10.5-.1-.1-1.7 2.5-5.8 2.6zM45.2 7.8h-6.1v6.8l4.1 3.6v-6.6h2.2c1.4 0 2.1.7 2.1 1.7v5c0 1-.6 1.8-2.1 1.8h-6.3v3.8h6.1c3.3 0 6.4-1.6 6.4-5.3v-5.4c0-3.8-3.1-5.4-6.4-5.4zm32.2 10.8V13c0-2 3.7-2.5 4.8-.5l3.4-1.3c-1.3-2.9-3.8-3.7-5.8-3.7-3.3 0-6.5 1.9-6.5 5.5v5.6c0 3.7 3.2 5.5 6.5 5.5 2.1 0 4.5-1 5.9-3.6L82 18.9c-.9 2.2-4.6 1.7-4.6-.3zm-11.2-4.8c-1.3-.3-2.1-.7-2.2-1.5.1-1.9 3-1.9 4.7-.1l2.7-2c-1.7-2-3.6-2.6-5.6-2.6-3 0-5.9 1.7-5.9 4.8 0 3.1 2.4 4.7 5.1 5.1 1.3.2 2.8.7 2.8 1.6-.1 1.7-3.7 1.6-5.4-.3l-2.6 2.4c1.5 1.9 3.6 2.9 5.6 2.9 3 0 6.3-1.7 6.5-4.8.1-4-2.8-5-5.7-5.5zM53.8 23.9H58V7.8h-4.1v16.1zm69.8-16.1h-6.1v6.8l4.1 3.6v-6.6h2.2c1.4 0 2.1.7 2.1 1.7v5c0 1-.6 1.8-2.1 1.8h-6.3v3.8h6.1c3.3 0 6.4-1.6 6.4-5.3v-5.4c0-3.8-3.1-5.4-6.4-5.4zm-30.1-.2c-3.4 0-6.8 1.8-6.8 5.5v5.5c0 3.7 3.4 5.5 6.8 5.5s6.8-1.8 6.8-5.5v-5.5c0-3.7-3.4-5.5-6.8-5.5zm2.7 11c0 1.2-1.3 1.8-2.6 1.8s-2.7-.6-2.7-1.8v-5.5c0-1.2 1.3-1.8 2.6-1.8s2.7.6 2.7 1.8v5.5zm19-5.5c-.1-3.8-2.7-5.3-6.1-5.3h-6.6v16.1h4.2v-5.1h.7l3.8 5.1h5.2l-4.5-5.5c2.1-.6 3.3-2.3 3.3-5.3zm-6 2.2h-2.4v-3.7h2.4c2.6 0 2.6 3.7 0 3.7z"/></svg>