<svg xmlns="http://www.w3.org/2000/svg" width="74" height="85"><g fill="none" fill-rule="evenodd"><path fill="#4F545C" d="M46.632 24.368h1.428v-7.146h-1.428z"/><path fill="#B9BBBE" d="M28.401 8.17h-6.388a.977.977 0 1 1 0-1.953h6.388a.977.977 0 1 1 0 1.954zM17.96 7.887a.94.94 0 0 1-.313.206.998.998 0 0 1-.38.079.956.956 0 0 1-.371-.08.954.954 0 0 1-.314-.205.993.993 0 0 1-.292-.692c0-.127.03-.254.078-.372a.978.978 0 0 1 .214-.322c.362-.363 1.016-.363 1.378 0 .088.098.166.205.215.322a.95.95 0 0 1 .07.372.977.977 0 0 1-.285.692zm26.718-2.753a3.182 3.182 0 0 0-3.178-3.18H5.133a3.182 3.182 0 0 0-3.179 3.18v6.71h42.724v-6.71zM23.126 80.107a3.42 3.42 0 1 1 0-6.84 3.42 3.42 0 0 1 0 6.84zm9.73-9.633a.976.976 0 0 1-.977.977H1.955v8.081a3.182 3.182 0 0 0 3.178 3.179H41.5a3.182 3.182 0 0 0 3.178-3.179v-8.081h-6.862a.977.977 0 0 1-.976-.977h-3.984z"/><path fill="#72767D" d="M18.069 53.1V32.28a3.857 3.857 0 0 1 3.851-3.851h22.758V13.797H1.954v55.7H31.88c.54 0 .976.437.977.977h3.982c0-.54.437-.978.976-.978h6.863V56.952H21.92a3.856 3.856 0 0 1-3.85-3.852"/><path fill="#202225" d="M23.126 73.266a3.42 3.42 0 1 0 0 6.84 3.42 3.42 0 0 0 0-6.84m5.275-67.049h-6.388a.977.977 0 1 0 0 1.954h6.388a.977.977 0 1 0 0-1.954M17.96 6.5c-.361-.362-1.016-.362-1.377 0a.981.981 0 0 0-.215.322.973.973 0 0 0-.078.371c0 .254.107.508.293.694a.965.965 0 0 0 .312.205.973.973 0 0 0 .372.078 1.022 1.022 0 0 0 .693-.283.984.984 0 0 0 .284-.694.945.945 0 0 0-.069-.371 1.162 1.162 0 0 0-.215-.323"/><path fill="#72767D" d="M21.92 52.637a3.798 3.798 0 0 1-1.897-.521v.985a1.9 1.9 0 0 0 1.898 1.897h47.79a1.9 1.9 0 0 0 1.898-1.897v-.985a3.795 3.795 0 0 1-1.898.52h-47.79z"/><path fill="#B9BBBE" d="M65.706 43.28l-2.072 1.57-1.327-2.173-1.248 2.173-2.154-1.549 1.57-1.872-2.275-.503.726-2.535 2.293.945-.2-2.374h2.615l-.241 2.355 2.293-.886.745 2.536-2.334.442 1.61 1.872zm-11.014 0l-2.074 1.57-1.327-2.173-1.248 2.173-2.152-1.549 1.568-1.872-2.274-.503.725-2.535 2.294.945-.201-2.374h2.615l-.24 2.355 2.293-.886.745 2.536-2.334.442 1.61 1.872zm-11.016 0l-2.072 1.57-1.328-2.173-1.249 2.173-2.152-1.549 1.57-1.872-2.275-.503.725-2.535 2.293.945-.2-2.374h2.616l-.242 2.355 2.295-.886.744 2.536-2.334.442 1.609 1.872zm-11.015 0l-2.072 1.57-1.329-2.173-1.248 2.173-2.152-1.55 1.57-1.872-2.273-.503.724-2.535 2.294.945-.202-2.374h2.617l-.242 2.355 2.294-.886.745 2.536-2.335.442 1.61 1.872zm37.05-12.897h-47.79a1.9 1.9 0 0 0-1.898 1.897v16.505a1.9 1.9 0 0 0 1.898 1.897h47.79a1.9 1.9 0 0 0 1.898-1.897V32.28a1.9 1.9 0 0 0-1.898-1.897z"/><path fill="#4F545C" d="M32.641 38.43l-2.294.887.241-2.355h-2.616l.202 2.375-2.295-.946-.724 2.535 2.275.503-1.57 1.872 2.153 1.549 1.248-2.173 1.327 2.173 2.073-1.57-1.61-1.871 2.335-.442zm11.016 0l-2.295.887.241-2.355h-2.615l.201 2.375-2.294-.946-.725 2.535 2.275.503-1.57 1.872 2.153 1.549 1.247-2.173 1.328 2.173 2.073-1.57-1.61-1.871 2.335-.442zm11.014 0l-2.294.887.242-2.355h-2.616l.201 2.375-2.294-.946-.725 2.535 2.274.503-1.568 1.872 2.152 1.549 1.248-2.173 1.328 2.173 2.073-1.57-1.61-1.871 2.334-.442zm11.015 0l-2.294.887.242-2.355h-2.615l.2 2.375-2.293-.946-.725 2.535 2.274.503-1.569 1.872 2.153 1.549 1.248-2.173 1.327 2.173 2.073-1.57-1.61-1.871 2.335-.442z"/><path fill="#202225" d="M71.609 36.596v12.19a1.9 1.9 0 0 1-1.898 1.897h-47.79a1.9 1.9 0 0 1-1.898-1.898V32.281a1.9 1.9 0 0 1 1.898-1.898h47.79a1.9 1.9 0 0 1 1.898 1.898v4.315zm0 16.505a1.9 1.9 0 0 1-1.898 1.897h-47.79a1.9 1.9 0 0 1-1.898-1.897v-.985c.562.322 1.205.52 1.898.52h47.79c.694 0 1.336-.198 1.898-.52v.985zm-26.93 12.488a3.908 3.908 0 0 1-3.909 3.908h-2.954a.977.977 0 0 0 0 1.954H43.7c.54 0 .977.438.977.977v7.104A3.178 3.178 0 0 1 41.5 82.71H5.133a3.178 3.178 0 0 1-3.178-3.178v-7.104c0-.54.436-.977.977-.977h28.947a.977.977 0 1 0 0-1.954H5.863a3.908 3.908 0 0 1-3.908-3.908V17.706a3.908 3.908 0 0 1 3.908-3.909H40.77c2.16 0 3.908 1.75 3.908 3.909v6.815a3.908 3.908 0 0 1-3.908 3.908H21.92a3.852 3.852 0 0 0-3.85 3.852V53.1a3.852 3.852 0 0 0 3.85 3.851h18.85c2.16 0 3.908 1.75 3.908 3.908v4.729zM1.954 5.132a3.178 3.178 0 0 1 3.178-3.178H41.5a3.179 3.179 0 0 1 3.178 3.178v5.734c0 .54-.437.977-.977.977H2.931a.977.977 0 0 1-.976-.977V5.132zm44.677 19.236h1.429v-7.146h-1.429v7.146zm23.08 4.061H47.685a1.054 1.054 0 1 1 0-2.107h.83c.827 0 1.498-.671 1.498-1.499v-8.056c0-.829-.67-1.5-1.498-1.5a1.883 1.883 0 0 1-1.884-1.883V5.132A5.132 5.132 0 0 0 41.5 0H5.133A5.132 5.132 0 0 0 0 5.132v74.4a5.132 5.132 0 0 0 5.133 5.132H41.5a5.132 5.132 0 0 0 5.132-5.132V60.86a3.908 3.908 0 0 1 3.908-3.908h19.171a3.852 3.852 0 0 0 3.852-3.851V32.28a3.852 3.852 0 0 0-3.852-3.852z"/></g></svg>