<svg xmlns="http://www.w3.org/2000/svg" xmlns:xlink="http://www.w3.org/1999/xlink" width="286" height="246" viewBox="0 0 286 246">
    <defs>
        <path id="a" d="M0 .594h286V192.43H0z"/>
        <path id="c" d="M.79.57h211.08V246H.79z"/>
    </defs>
    <g fill="none" fill-rule="evenodd">
        <path fill="#4F545C" d="M54.823 123.215h-30c-10.77 0-19.5-8.73-19.5-19.5s8.73-19.5 19.5-19.5h30c10.77 0 19.5 8.73 19.5 19.5s-8.73 19.5-19.5 19.5" opacity=".3"/>
        <g transform="translate(0 37.43)">
            <mask id="b" fill="#fff">
                <use xlink:href="#a"/>
            </mask>
            <path fill="#4F545C" d="M194.877 30.164v.003c0 16.33 13.239 29.57 29.57 29.57h22.64c10.525 0 19.058 8.532 19.058 19.057 0 10.524-8.533 19.057-19.057 19.057H214.68c-11.98 0-21.69 9.71-21.69 21.689v.004c0 11.98 9.71 21.69 21.69 21.69h45.722c14.138 0 25.598 11.46 25.598 25.598 0 14.138-11.46 25.599-25.598 25.599H34.115C15.273 192.43 0 177.157 0 158.316c0-18.84 15.273-34.114 34.115-34.114h33.703c18.842 0 34.116-15.274 34.116-34.115V30.594c0-16.57 13.43-30 30-30h33.373c16.33 0 29.57 13.239 29.57 29.57" mask="url(#b)" opacity=".3"/>
        </g>
        <path fill="#202225" d="M199.194 92.048h5.508a1 1 0 1 0 0-2h-5.508a1 1 0 0 0 0 2"/>
        <path fill="#7B80D6" d="M165.295 7.608l36.24 192.946L163.7 188.88l-31.02 24.606L96.44 20.541"/>
        <path fill="#ACB0FF" d="M156.22 9.313l31.487 167.646-27.86-8.597-22.845 18.12-31.488-167.646"/>
        <path fill="#FFF" d="M136.172 39.423c-8.758 1.547-14.625 9.931-13.078 18.69 1.547 8.758 9.828 13.837 18.689 13.078 1.886-.162 3.73-.912 5.229-1.723.954-.517.52-1.973-.561-1.879-.624.055-1.15.087-1.421.074-6.181-.298-11.572-4.838-12.693-11.183-1.138-6.44 2.495-12.64 8.352-14.96.18-.072.509-.157.914-.246 1.086-.24 1.037-1.797-.063-1.97a15.174 15.174 0 0 0-5.368.12"/>
        <path fill="#4F545C" d="M168.715 6.538a2.938 2.938 0 0 1 5.773-1.084 2.937 2.937 0 0 1-5.773 1.084"/>
        <path fill="#72767D" d="M84.944 15.017l2.705-8.322L82.311 1l-2.907 7.245z"/>
        <path fill="#202225" d="M116.765 172.762a2.817 2.817 0 0 0-.998-3.968c-1.328-.749-3.024-.208-3.842 1.08l-8.655 13.618c-.98-5.252-5.712-9.184-11.314-8.89-5.855.306-10.329 5.393-10.329 11.257v7.788c0 .498-.184.978-.519 1.346l-12.262 13.495a2.818 2.818 0 0 0 4.17 3.79l6.163-6.784c.648-.712 1.828-.189 1.736.768l-.327 3.404a9.804 9.804 0 0 0 2.187 7.182c.323.393.456.91.415 1.416l-1.926 24.123c-.118 1.482.931 2.839 2.406 3.018.14.017.275.024.405.024a2.82 2.82 0 0 0 2.806-2.59l1.647-20.62a1.998 1.998 0 0 1 2.018-1.84c1.107.013 2.493.016 3.59.013a1.994 1.994 0 0 1 1.99 1.84l1.646 20.607a2.817 2.817 0 0 0 5.617-.452l-1.893-23.702c-.042-.528.115-1.063.471-1.454a9.85 9.85 0 0 0 2.535-7.596l-1.02-10.643-.019-.406v-4.022a3 3 0 0 1 .468-1.61l12.834-20.192zM136.172 39.423c-8.758 1.547-14.625 9.931-13.078 18.69 1.547 8.758 9.828 13.837 18.689 13.078 1.886-.162 3.73-.912 5.229-1.723.954-.517.52-1.973-.561-1.879-.624.055-1.15.087-1.421.074-6.181-.298-11.572-4.838-12.693-11.183-1.138-6.44 2.495-12.64 8.352-14.96.18-.072.509-.157.914-.246 1.086-.24 1.037-1.797-.063-1.97a15.174 15.174 0 0 0-5.368.12m5.959 33.737c-9.845 1.74-19.268-4.856-21.007-14.7-1.738-9.845 4.856-19.268 14.7-21.007 5.444-.962 10.955.587 15.123 4.25a1 1 0 0 1-1.028 1.68 11.527 11.527 0 0 0-6.243-.64c-6.275 1.107-10.478 7.114-9.37 13.388 1.108 6.275 7.115 10.478 13.389 9.37a11.524 11.524 0 0 0 5.646-2.74 1 1 0 1 1 1.542 1.227c-2.661 4.867-7.31 8.21-12.752 9.172"/>
        <path fill="#ACB0FF" d="M16.856 98.43a5 5 0 1 1 10 0 5 5 0 0 1-10 0"/>
        <path fill="#202225" d="M21.856 94.43c-2.205 0-4 1.793-4 4 0 2.205 1.795 4 4 4 2.206 0 4-1.795 4-4 0-2.207-1.794-4-4-4m0 10c-3.309 0-6-2.692-6-6 0-3.31 2.691-6 6-6 3.31 0 6 2.69 6 6 0 3.308-2.69 6-6 6"/>
        <path fill="#D3D6ED" d="M53.6 75.734a1 1 0 0 0-1-1 1.51 1.51 0 0 1-1.51-1.51 1 1 0 0 0-2 0 1.51 1.51 0 0 1-1.51 1.51 1 1 0 0 0 0 2c.833 0 1.51.676 1.51 1.51a1 1 0 1 0 2 0c0-.834.676-1.51 1.51-1.51a1 1 0 0 0 1-1"/>
        <path fill="#202225" d="M242.856 243.43h-24.378a1.857 1.857 0 0 1-1.736-2.517l.05-.13a1 1 0 1 0-1.87-.707l-.819 2.156a1.857 1.857 0 0 1-3.573-.385l-.685-4.566a1 1 0 0 0-1.978.296l.557 3.72a1.857 1.857 0 0 1-1.837 2.132h-5.73a1 1 0 1 0 0 2h41.999a1 1 0 1 0 0-2"/>
        <g transform="translate(19 -.57)">
            <mask id="d" fill="#fff">
                <use xlink:href="#c"/>
            </mask>
            <path fill="#202225" d="M180.328 194.793c.417 2.22-1.675 4.087-3.833 3.42l-31.5-9.719a1.002 1.002 0 0 0-.916.173l-25.828 20.487c-1.77 1.404-4.396.423-4.813-1.797L79.16 24.857a3 3 0 0 1 2.395-3.502l1.213-.227a3 3 0 0 1 3.502 2.395l30.75 163.715a1 1 0 0 0 1.604.597l22.432-17.792 27.357 8.441c.334.102.699.024.96-.21a.996.996 0 0 0 .317-.93L138.94 13.63a3.002 3.002 0 0 1 2.395-3.504l1.214-.227a3.001 3.001 0 0 1 3.502 2.395l34.277 182.5zM93.578 19.096l36.946-6.938a5.999 5.999 0 0 1 7.005 4.789l28.584 152.509a1 1 0 0 1-1.278 1.14l-24.694-7.62a1.006 1.006 0 0 0-.916.173l-20.248 16.06a1 1 0 0 1-1.603-.599L88.789 26.102a6 6 0 0 1 4.79-7.005zm-6.437 93.93a13.048 13.048 0 0 1 3.786 9.202v.892a3 3 0 0 1-3 3h-.204l-2.296-12.224c-.185-.983 1.01-1.582 1.714-.87zM66.126 11.795a1.001 1.001 0 0 1-1.726.324l-2.1-2.567a2 2 0 0 1-.307-2.012l1.077-2.686a1 1 0 0 1 1.658-.312l1.98 2.112a2 2 0 0 1 .442 1.987l-1.024 3.154zm86.119-7.132a1.942 1.942 0 0 1 2.26 1.545 1.94 1.94 0 0 1-1.545 2.26 1.943 1.943 0 0 1-2.262-1.544 1.94 1.94 0 0 1 1.547-2.261zm47.85 70.282h-4.27c-1.406 0-2.576-1-2.89-2.371-2.3-10.076-11.785-17.37-22.588-16.389-3.871.352-7.385 1.776-10.33 3.946-1.198.884-2.9.248-3.175-1.215l-9.38-49.94.64-.122c.616-.114 1.27.04 1.71.481a3.939 3.939 0 0 0 3.517 1.1c2.942-.554 4.507-4.268 1.844-6.97a2.02 2.02 0 0 0-.642-.436c-2.765-1.16-5.115.349-5.707 2.483-.207.747-.8 1.322-1.561 1.466L70.1 21.47a2 2 0 0 1-2.335-1.596l-.698-3.718a1.996 1.996 0 0 1 .064-.988l2.286-7.033a2 2 0 0 0-.443-1.985L64.04.885a1 1 0 0 0-1.657.312l-2.688 6.697a2 2 0 0 0 .308 2.01l4.68 5.725c.213.258.357.566.418.896l.7 3.72a1.999 1.999 0 0 1-1.597 2.333l-4.473.84a1 1 0 0 0 .369 1.966l4.473-.84a2 2 0 0 1 2.335 1.598l15.048 80.11a.998.998 0 0 1-1.19 1.157c-.954-.19-1.94-.29-2.95-.29h-4.8c-1.413 0-2.65-.984-2.926-2.37-1.787-8.965-9.784-15.795-19.195-15.795a19.562 19.562 0 0 0-18.822 14.19c-.375 1.319-1.534 2.258-2.905 2.258h-2.09c-7.695 0-13.934 6.24-13.934 13.934v6.784a2 2 0 0 0 2 2H18.1c-.33.713-.625 1.447-.846 2.218-.298 1.038-1.28 1.73-2.36 1.73h-.03C7.093 132.069.79 138.37.79 146.143v2.444a2 2 0 0 0 2 2h14.828a1 1 0 1 0 0-2H5.233c-1.318 0-2.434-1.045-2.443-2.363-.043-6.706 5.38-12.155 12.074-12.155h1.999c.94 0 1.809-.765 1.97-1.692 1.205-6.93 7.497-11.956 14.73-11.379 7.238.578 12.688 6.878 12.688 14.14v2.207a2 2 0 0 0 2 2h2.504a7.347 7.347 0 0 1 7.346 7.379c-.004 1.032-.862 1.863-1.894 1.863H31.423a1 1 0 1 0 0 2H58.1a2 2 0 0 0 2-2v-1.894c0-5.163-4.184-9.348-9.346-9.348h-.346a2.164 2.164 0 0 1-2.158-2.184v-.078c0-7.81-5.54-14.707-13.253-15.927-6.52-1.03-12.527 1.96-15.798 6.963h-1.055a3 3 0 0 1-3-3v-3.782c0-6.59 5.343-11.934 11.934-11.934h4.5c.949 0 1.822-.773 1.974-1.709 1.37-8.46 8.684-14.74 17.343-14.74 9.168 0 16.842 7.222 17.518 16.277.078 1.037.953 1.889 1.993 1.889h7.41c1.279 0 2.51.188 3.676.53a2.004 2.004 0 0 1 1.394 1.554l2.356 12.547a2 2 0 0 1-1.966 2.368H62.523a1.001 1.001 0 0 0 0 2h21.88a2 2 0 0 1 1.967 1.631l18.914 100.696a3 3 0 0 1-2.95 3.554h-3.316a5.38 5.38 0 0 0-4.875 3.094c-.805 1.716-2.421 2.906-4.318 2.906h-.151a5.391 5.391 0 0 0-3.81 1.577l-1.108 1.11A4.489 4.489 0 0 1 81.585 244H44.849l.872-1.498a1 1 0 0 0-1.73-1.006l-.951 1.635a1.758 1.758 0 0 1-2.181.74c-.698-.278-1.105-1.017-1.08-1.768l.076-2.067a.999.999 0 1 0-1.998-.072l-.085 2.349a1.75 1.75 0 0 1-1.75 1.687H23.25a1.75 1.75 0 0 1-1.7-1.33l-.723-2.911a1 1 0 0 0-1.941.482l.393 1.585A1.75 1.75 0 0 1 17.58 244h-4.725a1 1 0 0 0 0 2h68.727a6.49 6.49 0 0 0 4.587-1.9l1.109-1.108a3.388 3.388 0 0 1 2.395-.992h1.02a5.38 5.38 0 0 0 4.61-2.6c1.327-2.198 3.838-3.4 6.405-3.4h4.618l.76 4.05a1 1 0 1 0 1.966-.369L108.36 236h12.987a5.376 5.376 0 0 1 5.376 5.376 4.624 4.624 0 0 0 4.624 4.624h43.508a1 1 0 1 0 0-2h-40.944a6.158 6.158 0 0 1-6.158-6.159 3.842 3.842 0 0 0-3.842-3.841h-13.438a3 3 0 0 1-2.948-2.446L88.543 130.488a2 2 0 0 1 1.966-2.369h.418a2 2 0 0 0 2-2v-3.891c0-5.791-3.268-10.808-8.052-13.343a.994.994 0 0 1-.52-.694L68.874 25.773a2 2 0 0 1 1.597-2.334l3.222-.605a2.999 2.999 0 0 1 3.502 2.394l35.502 189.014a1 1 0 0 0 1.604.6l30.608-24.28 37.33 11.518a.999.999 0 0 0 1.277-1.14L158.123 65.736c-.115-.617.053-1.264.484-1.719 2.97-3.129 6.946-5.282 11.496-5.795 10.706-1.206 20.085 6.584 21.244 16.922.11.99.989 1.803 1.985 1.803h6.765c5.398 0 9.774 4.377 9.774 9.776v.897a3 3 0 0 1-3 3h-14.687a1 1 0 0 0 0 2h17.687a2 2 0 0 0 2-2v-3.897c0-6.503-5.271-11.775-11.774-11.775z" mask="url(#d)"/>
        </g>
        <path fill="#ACB0FF" d="M214.126 129.936a1.51 1.51 0 0 1-1.51-1.51 1 1 0 1 0-2 0 1.51 1.51 0 0 1-1.51 1.51 1 1 0 0 0 0 2c.834 0 1.51.676 1.51 1.51a1 1 0 1 0 2 0c0-.834.676-1.51 1.51-1.51a1 1 0 1 0 0-2"/>
        <path fill="#D3D6ED" d="M198.617 171.145l6.68-11.57h-13.36z"/>
        <path fill="#202225" d="M194.535 162.075l3.216 5.569a1 1 0 0 0 1.732 0l3.216-5.569a1 1 0 0 0-.866-1.5H195.4a1 1 0 0 0-.866 1.5m4.082 10.069a1 1 0 0 1-.866-.5l-6.68-11.569a1 1 0 1 1 .866-1.5h13.36a1 1 0 0 1 .866 1.5l-6.68 11.569a.998.998 0 0 1-.866.5"/>
        <path fill="#FFF" d="M60.15 179.045a.999.999 0 0 0-1.415 0l-1.184 1.183a1 1 0 0 0 1.414 1.414l1.184-1.183a.999.999 0 0 0 0-1.414M52.819 184.961l-1.184 1.184a1 1 0 0 0 1.414 1.414l1.184-1.184a.999.999 0 1 0-1.414-1.414M58.965 184.961a.999.999 0 1 0-1.414 1.414l1.184 1.184a.997.997 0 0 0 1.415 0 1 1 0 0 0 0-1.414l-1.184-1.184zM54.233 180.228l-1.184-1.183a1 1 0 0 0-1.414 1.414l1.184 1.183a.997.997 0 0 0 1.414 0 .999.999 0 0 0 0-1.414"/>
        <path d="M0-1h286v247H0z"/>
        <path d="M-37-58h360v360H-37z"/>
    </g>
</svg>
