<svg width="200" height="120" fill="none" 
  xmlns="http://www.w3.org/2000/svg">
  <g clip-path="url(#clip0)">
    <path opacity=".2" d="M200 51.31V120H0V95a13.48 13.48 0 0 1 8.92-12.65l7.32-2.63a8 8 0 0 0 5.26-7.49V46.09a35.121 35.121 0 0 1 12.36-26.74A35.08 35.08 0 0 1 56.6 11h75.51a18.55 18.55 0 0 1 14.08 6.48l8.15 9.52a10.076 10.076 0 0 0 7.66 3.52h17.2A20.788 20.788 0 0 1 200 51.31z" fill="#AEC7FF"/>
    <path d="M54.12 116.71a3.288 3.288 0 0 0 3.29 3.29h71.46v-6.59H57.41a3.289 3.289 0 0 0-3.29 3.3z" fill="#3E70DD"/>
    <path d="M99.94 35.82V55.4a3.76 3.76 0 0 0 3.76 3.76h33.47l10.28 10.24V35.82a3.771 3.771 0 0 0-1.105-2.662 3.76 3.76 0 0 0-2.665-1.098h-40a3.76 3.76 0 0 0-3.74 3.76z" fill="#F47FFF"/>
    <path d="M136.54 47.63h-26a1.43 1.43 0 0 0-1.42 1.43 1.43 1.43 0 0 0 1.42 1.42h26a1.432 1.432 0 0 0 1.46-1.42 1.426 1.426 0 0 0-.904-1.33 1.428 1.428 0 0 0-.556-.1zm0-6.9h-26a1.419 1.419 0 0 0-1.004 2.424c.266.266.627.416 1.004.416h26a1.423 1.423 0 0 0 1.348-.867 1.42 1.42 0 0 0-1.348-1.973z" fill="#fff"/>
    <path d="M150.7 83.76l8.74-2.54a5.553 5.553 0 0 0 4-4.88 5.493 5.493 0 0 0-1.63-4.34 5.58 5.58 0 0 0-3.92-1.63c-.14-.01-.28-.01-.42 0a5.552 5.552 0 0 0-4.9 4l-2.57 8.7a.56.56 0 0 0 .69.69h.01z" fill="#7196FF"/>
    <path d="M166.61 118.87V120h-65.87V82.84h37.68a12.406 12.406 0 0 1 11.484 7.633c.627 1.504.952 3.117.956 4.747v18.19h10.29a5.46 5.46 0 0 1 5.46 5.46z" fill="#567EF7"/>
    <path d="M113.36 71.55H72a11.802 11.802 0 0 0-11.89 11.77v18.33a11.797 11.797 0 0 0 7.354 10.901c1.44.585 2.981.881 4.536.869h41.4a11.8 11.8 0 0 0 11.83-11.77V83.32a11.791 11.791 0 0 0-11.87-11.77z" fill="#7196FF"/>
    <path d="M125.18 83.32v18.33a11.79 11.79 0 0 1-3.477 8.335 11.8 11.8 0 0 1-8.353 3.435h-7.88a11.801 11.801 0 0 0 11.84-11.77V83.32a11.793 11.793 0 0 0-11.82-11.77h7.87a11.785 11.785 0 0 1 8.349 3.436 11.793 11.793 0 0 1 3.471 8.334z" fill="#406FE8"/>
    <path d="M79.19 106.22h-12.5a10.492 10.492 0 0 1-10.52-10.47V87.9a3.93 3.93 0 0 1 3.94-3.9h27a3.93 3.93 0 0 1 4 3.93v6.54a11.81 11.81 0 0 1-11.92 11.75z" fill="#C9DBF7"/>
    <path d="M79.17 71.55h30.23a11.801 11.801 0 0 1 11.84 11.77V84h6.57a16.401 16.401 0 0 0-16.43-16.36H83.12a3.932 3.932 0 0 0-3.95 3.91z" fill="#B9BBBE"/>
    <path d="M71.28 71.55h34.18a11.798 11.798 0 0 1 11.83 11.77V84h7.23a16.396 16.396 0 0 0-10.161-15.127 16.401 16.401 0 0 0-6.279-1.233H75.23a3.932 3.932 0 0 0-3.95 3.91z" fill="#C9DBF7"/>
    <path d="M122 82.88a10.261 10.261 0 0 0-4.024 19.823c1.282.496 2.65.73 4.024.687h4.51V82.88H122z" fill="#C9DBF7"/>
    <path d="M126.48 103.38c5.661 0 10.25-4.59 10.25-10.25s-4.589-10.25-10.25-10.25-10.25 4.59-10.25 10.25 4.589 10.25 10.25 10.25z" fill="#AEC7FF"/>
    <path d="M126.48 99.89a6.762 6.762 0 0 1-6.63-8.079 6.764 6.764 0 0 1 5.311-5.311 6.76 6.76 0 1 1 1.319 13.39zm0-11.26a4.5 4.5 0 1 0 4.5 4.5 4.513 4.513 0 0 0-4.5-4.5z" fill="#9DEFD6"/>
    <path d="M124.68 37.41H75.33a4 4 0 0 1-4-4V4a4 4 0 0 1 4-4h49.35a3.999 3.999 0 0 1 4 4v29.39a3.99 3.99 0 0 1-1.164 2.841 4.004 4.004 0 0 1-2.836 1.179z" fill="#D7E6FF"/>
    <path d="M88.37 37.41H75.32a4 4 0 0 1-4-4V4a4 4 0 0 1 4-4h13.05v37.41z" fill="#AEC7FF"/>
    <path d="M79.82 11.7a3 3 0 1 1 0-6 3 3 0 0 1 0 6zm0 10.04a3 3 0 1 1 0-6 3 3 0 0 1 0 6zm0 10.04a3 3 0 1 1 0-6 3 3 0 0 1 0 6z" fill="#7196FF"/>
    <path d="M121.13 11.7H102a2 2 0 0 1 0-4h19.17a2 2 0 0 1 0 4h-.04zm-26.41 0a2 2 0 1 1 0-4 2 2 0 0 1 0 4zm26.41 9.03H102a2 2 0 0 1 0-4h19.17a2 2 0 1 1-.04 4zm-26.41 0a2 2 0 1 1 0-4 2 2 0 0 1 0 4zm26.41 9.04H102a2 2 0 0 1 0-4h19.17a2 2 0 1 1-.04 4zm-26.41 0a2 2 0 1 1 0-4 2 2 0 0 1 0 4z" fill="#AEC7FF"/>
    <path d="M67.9 100.66h-3.28a1.637 1.637 0 0 1-1.63-.978 1.64 1.64 0 0 1 1.63-2.292h3.28a1.64 1.64 0 1 1 0 3.27zm11.35 0h-4.84a1.637 1.637 0 0 1-1.63-.978 1.64 1.64 0 0 1 1.63-2.292h4.84a1.64 1.64 0 1 1 0 3.27z" fill="#718EF7"/>
    <path d="M177.94 59.36l-1 2a.55.55 0 0 0 .74.74l2-1a.569.569 0 0 1 .48 0l2 1a.55.55 0 0 0 .74-.74l-1-2a.514.514 0 0 1 0-.48l1-2c.053-.104.072-.221.053-.336a.55.55 0 0 0-.793-.404l-2 1a.57.57 0 0 1-.48 0l-2-1a.55.55 0 0 0-.74.74l1 2c.06.154.06.326 0 .48z" fill="#fff"/>
    <path d="M137.66 18.72a.81.81 0 0 0-.81.81v.81a.819.819 0 0 0 .81.82.822.822 0 0 0 .82-.82v-.81a.833.833 0 0 0-.82-.81zm0 6.45a.81.81 0 0 0-.81.81v.81a.81.81 0 0 0 .81.81.818.818 0 0 0 .82-.81V26a.828.828 0 0 0-.82-.83zm3.65-2.82h-.82a.81.81 0 1 0 0 1.62h.82a.81.81 0 0 0 0-1.62zm-6.49 0H134a.823.823 0 0 0-.825.825A.824.824 0 0 0 134 24h.81a.81.81 0 0 0 0-1.62l.01-.03z" fill="#C9DBF7"/>
    <path d="M37.9 70.68h-.14a.59.59 0 0 1-.59-.59v-1.45a.59.59 0 0 1 .59-.59h.14a.6.6 0 0 1 .59.59v1.45a.6.6 0 0 1-.59.59zm0 6.57h-.14a.579.579 0 0 1-.59-.59v-1.45a.59.59 0 0 1 .59-.59h.14a.6.6 0 0 1 .59.59v1.45a.591.591 0 0 1-.59.59zm1.9-4.53v-.15a.59.59 0 0 1 .59-.58h1.46a.58.58 0 0 1 .59.58v.15a.58.58 0 0 1-.59.58h-1.46a.6.6 0 0 1-.59-.58zm-6.6 0v-.15a.59.59 0 0 1 .59-.58h1.46a.59.59 0 0 1 .59.58v.15a.59.59 0 0 1-.59.58h-1.46a.59.59 0 0 1-.59-.58z" fill="#AEC7FF"/>
    <path d="M97.73 93.26a3.1 3.1 0 0 1 6.19 0" stroke="#202225" stroke-width="2.135" stroke-miterlimit="10"/>
    <path d="M62.64 118.29L50.89 99.1a4 4 0 0 0-3-1.71H44.3L58.11 120h3.56c1.11 0 1.54-.77.97-1.71z" fill="#000"/>
    <path d="M36.92 116.71h50.83v1.06a2.233 2.233 0 0 1-1.384 2.063 2.226 2.226 0 0 1-.856.167H36.92v-3.29z" fill="#AEC7FF"/>
    <path d="M20.56 99.1c-.58-.94-.15-1.71 1-1.71h22.72a4 4 0 0 1 3 1.71l11.75 19.19c.57.94.14 1.71-1 1.71H35.35a4.001 4.001 0 0 1-3-1.71L20.56 99.1z" fill="#AEC7FF"/>
    <path d="M80.89 116.71a3.288 3.288 0 0 0 3.29 3.29h40.65a6.579 6.579 0 0 0 4.66-1.93 6.591 6.591 0 0 0 1.93-4.66H84.18a3.304 3.304 0 0 0-3.29 3.3z" fill="#567EF7"/>
    <path d="M127.81 84h-3.29a16.396 16.396 0 0 0-10.161-15.127 16.401 16.401 0 0 0-6.279-1.233h3.3A16.4 16.4 0 0 1 127.81 84z" fill="#AEC7FF"/>
    <path d="M75.66 41.6v21h-21a21 21 0 0 1-21-21 21.05 21.05 0 0 1 21-21 21 21 0 0 1 21 21z" fill="#7196FF"/>
    <path d="M68.3 41.6a13.7 13.7 0 1 1-13.69-13.69A13.69 13.69 0 0 1 68.3 41.6z" fill="#FFD836"/>
    <path d="M50.63 36.21a1.61 1.61 0 1 0-3.22 0v1.69a1.61 1.61 0 1 0 3.22 0v-1.69zM61.79 36.21a1.61 1.61 0 1 0-3.22 0v1.69a1.61 1.61 0 1 0 3.22 0v-1.69z" fill="#A63A0C"/>
    <path d="M49 42.38h11.19v1.29a5.58 5.58 0 0 1-5.58 5.58A5.578 5.578 0 0 1 49 43.68v-1.3z" fill="#36393F"/>
    <path d="M54.61 49.26a5.59 5.59 0 0 0 5.35-4 10.81 10.81 0 0 0-10.71 0 5.59 5.59 0 0 0 5.36 4z" fill="#DE420D"/>
  </g>
  <defs>
    <clipPath id="clip0">
      <path fill="#fff" d="M0 0h200v120H0z"/>
    </clipPath>
  </defs>
</svg>
