<svg width="24" height="24" viewBox="0 0 24 24" fill="none" xmlns="http://www.w3.org/2000/svg">
    <path d="M17.225 6.06504C17.3227 6.00866 17.4362 5.98608 17.548 6.00084C17.6598 6.0156 17.7637 6.06686 17.8434 6.14665C17.9232 6.22645 17.9744 6.33037 17.9892 6.44225C18.0039 6.55413 17.9813 6.66772 17.925 6.76548L15.65 10.2551L21.9875 11.581C21.9875 11.7185 21.9875 11.8562 21.9875 11.9937C21.9875 12.1313 21.9875 12.2689 21.9875 12.4065L15.65 13.7323L17.925 17.222C17.9939 17.3117 18.0313 17.4216 18.0313 17.5347C18.0313 17.6478 17.9939 17.7577 17.925 17.8474C17.8281 17.9424 17.6982 17.9962 17.5625 17.9975C17.466 17.996 17.3714 17.9702 17.2875 17.9224L13.8125 15.646L12.4125 22H11.5875L10.2625 15.6585L6.77501 17.935C6.69176 17.9843 6.59672 18.0102 6.49997 18.01C6.43455 18.0098 6.3699 17.9963 6.30977 17.9705C6.24964 17.9447 6.1953 17.9072 6.15001 17.8599C6.06977 17.7789 6.01879 17.6734 6.0052 17.5601C5.99162 17.4468 6.01621 17.3323 6.07501 17.2345L8.36253 13.7449L2 12.4065C2 12.2689 2 12.1313 2 11.9937C2 11.8562 2 11.7185 2 11.581L8.35002 10.2551L6.0625 6.76548C6.0037 6.66774 5.97918 6.55315 5.99277 6.43988C6.00635 6.32661 6.05726 6.22113 6.1375 6.14009C6.21731 6.05781 6.32295 6.00542 6.43672 5.99176C6.5505 5.97809 6.6655 6.00399 6.7625 6.06504L10.25 8.34148L11.575 2H12.4L13.7375 8.34148L17.225 6.06504Z" fill="white"/>
    <path d="M22 12.4065C21.8956 14.9141 20.8533 17.2908 19.0798 19.0654C17.3062 20.8401 14.931 21.883 12.425 21.9875L13.7625 15.646L17.2375 17.9224C17.3214 17.9702 17.416 17.996 17.5125 17.9975C17.6481 17.9962 17.7781 17.9424 17.875 17.8474C17.9439 17.7577 17.9813 17.6478 17.9813 17.5347C17.9813 17.4216 17.9439 17.3117 17.875 17.222L15.6 13.7323L22 12.4065ZM13.7625 8.34148L17.2375 6.06504C17.3352 6.00866 17.4487 5.98608 17.5605 6.00084C17.6723 6.0156 17.7762 6.06686 17.8559 6.14665C17.9357 6.22645 17.9869 6.33037 18.0017 6.44225C18.0164 6.55413 17.9938 6.66772 17.9375 6.76548L15.6625 10.2551L22 11.581C21.8956 9.07342 20.8533 6.69669 19.0798 4.92206C17.3062 3.14742 14.931 2.10449 12.425 2L13.7625 8.34148ZM10.275 8.34148L11.6 2C9.09402 2.10449 6.71878 3.14742 4.94525 4.92206C3.17172 6.69669 2.12945 9.07342 2.02502 11.581L8.37497 10.2551L6.08752 6.76548C6.02873 6.66774 6.00413 6.55315 6.01772 6.43988C6.0313 6.32661 6.08228 6.22113 6.16252 6.14009C6.24233 6.05781 6.34797 6.00542 6.46175 5.99176C6.57552 5.97809 6.69052 6.00399 6.78752 6.06504L10.275 8.34148ZM6.16252 17.8474C6.08228 17.7663 6.0313 17.6609 6.01772 17.5476C6.00413 17.4343 6.02873 17.3197 6.08752 17.222L8.37497 13.7323L2 12.4065C2.10442 14.9141 3.1467 17.2908 4.92023 19.0654C6.69376 20.8401 9.06899 21.883 11.575 21.9875L10.25 15.646L6.7625 17.9224C6.67925 17.9718 6.58428 17.9977 6.48753 17.9975C6.35971 17.9937 6.23848 17.9398 6.15001 17.8474H6.16252Z" fill="url(#paint0_linear_3626_222992)"/>
    <defs>
        <linearGradient id="paint0_linear_3626_222992" x1="2" y1="21.9875" x2="21.9875" y2="1.98749" gradientUnits="userSpaceOnUse">
            <stop stop-color="#11A574"/>
            <stop offset="1" stop-color="#169DD8"/>
        </linearGradient>
    </defs>
</svg>
