<svg fill="none" height="12" viewBox="0 0 13 12" width="13" xmlns="http://www.w3.org/2000/svg"><path d="m5.39011.540027c.35536-.720037 1.38211-.720036 1.73747.000002l1.18359 2.398201c.14111.28593.41388.48411.72942.52996l2.64661.38457c.7946.11546 1.1119 1.09196.5369 1.65243l-1.9151 1.86674c-.2283.22257-.33252.54323-.2786.8575l.4521 2.63587c.1357.7914-.69496 1.3949-1.40567 1.0213l-2.36717-1.2445c-.28223-.1484-.6194-.1484-.90162 0l-2.36717 1.2445c-.71072.3736-1.54138-.2299-1.40565-1.0213l.45209-2.63587c.0539-.31427-.05029-.63493-.27861-.8575l-1.915083-1.86674c-.574984-.56047-.2576998-1.53697.536908-1.65243l2.646575-.38457c.31554-.04585.58831-.24403.72943-.52996z" fill="#fff"/></svg>