<svg width="110" height="91" viewBox="0 0 110 91" fill="none" xmlns="http://www.w3.org/2000/svg">
<path opacity="0.7" d="M26.452 51.7685C25.8466 51.9019 25.5806 52.3481 25.8603 52.7713C26.0544 52.9963 26.3062 53.1637 26.5884 53.2553C26.8706 53.347 27.1724 53.3593 27.4611 53.2911L31.4562 52.4171L31.3645 52.2285L31.2452 51.9755C31.2452 51.9341 31.2131 51.8927 31.1994 51.8513V51.8099C31.1972 51.7823 31.1972 51.7546 31.1994 51.7271C31.1972 51.7103 31.1972 51.6932 31.1994 51.6764C31.1994 51.6488 31.1994 51.6259 31.1994 51.5983V51.5523V51.4511C31.2452 51.2356 31.2774 51.0174 31.2957 50.7979L26.452 51.7685Z" fill="url(#paint0_linear_220_22820)"/>
<path d="M49.5785 26.1372C48.5281 26.1096 47.7117 26.105 46.6613 26.1372C46.5397 26.1372 46.423 26.1857 46.337 26.2719C46.251 26.3582 46.2026 26.4752 46.2026 26.5972L46.6613 37.9086C46.6648 37.9695 46.6803 38.029 46.707 38.0838C46.7336 38.1386 46.7708 38.1875 46.8165 38.2278C46.8622 38.268 46.9154 38.2987 46.973 38.3182C47.0306 38.3376 47.0915 38.3454 47.1521 38.341C48.2025 38.2996 49.0143 38.2306 50.0601 38.111C50.9137 38.0207 51.7068 37.6268 52.2958 37.0007C52.8847 36.3746 53.2307 35.5576 53.2709 34.6978C53.3381 32.8746 53.263 31.049 53.0461 29.2376C52.9271 28.393 52.5134 27.6181 51.8785 27.0505C51.2437 26.4829 50.4287 26.1593 49.5785 26.1372Z" fill="#718CF6"/>
<path d="M49.5601 28.06C49.0438 28.0282 48.526 28.0282 48.0097 28.06C47.8639 28.0763 47.7304 28.1497 47.6384 28.2644C47.5465 28.379 47.5035 28.5255 47.519 28.6718L47.7666 34.7162C47.7642 34.8635 47.8195 35.0059 47.9208 35.1126C48.022 35.2193 48.1611 35.2818 48.3079 35.2866C48.8256 35.2656 49.3417 35.2149 49.8536 35.1348C50.1614 35.0809 50.4417 34.9235 50.6484 34.6886C50.8552 34.4537 50.976 34.1552 50.9911 33.8422C51.0432 32.3155 50.9804 30.7871 50.8031 29.2698C50.7705 28.9539 50.6281 28.6595 50.4009 28.4383C50.1736 28.2171 49.8759 28.0832 49.5601 28.06Z" fill="#BACAFA"/>
<path d="M13.5722 32.8992C13.5872 34.9289 13.7821 36.9532 14.1548 38.9482C14.3641 40.3681 15.0049 41.6887 15.9899 42.73C16.9749 43.7713 18.2561 44.4827 19.6589 44.7672C21.9523 45.1904 27.5527 45.2594 31.4515 45.1582C35.3503 45.057 40.9461 44.6982 43.212 44.1554C44.6026 43.8034 45.8506 43.0287 46.7851 41.9375C47.7195 40.8464 48.2947 39.4922 48.4317 38.0604C48.7041 36.0503 48.7932 34.0194 48.6978 31.993C48.7001 29.9646 48.5205 27.9401 48.1611 25.944C47.9518 24.5241 47.3109 23.2035 46.326 22.1622C45.341 21.1209 44.0598 20.4095 42.657 20.125C38.7534 19.5474 34.8098 19.2859 30.8644 19.343C26.9136 19.4857 22.9808 19.9472 19.1039 20.723C17.7036 21.0685 16.4451 21.842 15.5025 22.9364C14.5599 24.0309 13.9799 25.3922 13.8429 26.8318C13.5711 28.842 13.4805 30.8727 13.5722 32.8992Z" fill="url(#paint1_linear_220_22820)"/>
<path d="M12.7468 27.6691C13.7925 27.5541 14.609 27.4896 15.6594 27.4482C15.72 27.4445 15.7807 27.4529 15.8381 27.4729C15.8955 27.4929 15.9483 27.5242 15.9935 27.5648C16.0388 27.6055 16.0755 27.6547 16.1016 27.7097C16.1277 27.7648 16.1426 27.8244 16.1456 27.8852L16.5721 39.1966C16.5721 39.3186 16.5238 39.4357 16.4378 39.5219C16.3518 39.6082 16.2351 39.6566 16.1134 39.6566C15.0631 39.698 14.2466 39.6934 13.1963 39.6566C12.3348 39.6405 11.5078 39.3143 10.8661 38.7376C10.2245 38.1608 9.81103 37.3719 9.70113 36.5148C9.49028 34.703 9.42127 32.8773 9.49473 31.0547C9.54357 30.1936 9.89848 29.3786 10.4951 28.7574C11.0917 28.1363 11.8906 27.7502 12.7468 27.6691Z" fill="#718CF6"/>
<path d="M12.5173 29.9C13.029 29.8181 13.5452 29.7674 14.063 29.7482C14.2094 29.7518 14.3484 29.8133 14.4498 29.9193C14.5512 30.0253 14.6067 30.1671 14.6042 30.314L14.8565 36.363C14.8641 36.4355 14.8573 36.5089 14.8365 36.5788C14.8156 36.6487 14.7812 36.7137 14.7351 36.7702C14.689 36.8267 14.6323 36.8734 14.5681 36.9077C14.5039 36.942 14.4336 36.9633 14.3611 36.9702C13.8448 37.002 13.3271 37.002 12.8108 36.9702C12.499 36.9477 12.2047 36.8169 11.9786 36.6003C11.7526 36.3837 11.6089 36.0948 11.5724 35.7834C11.3935 34.2663 11.3291 32.7378 11.3797 31.211C11.3846 30.893 11.5015 30.587 11.7097 30.3471C11.9178 30.1071 12.2039 29.9488 12.5173 29.9Z" fill="#BACAFA"/>
<path d="M28.8142 41.722L34.9192 41.5472C38.7033 41.3264 39.8546 39.7624 40.272 37.5912C40.6665 35.5396 40.5701 34.1412 40.272 31.8918C40.0472 30.0794 38.6529 29.3388 37.0613 29.3802L26.7043 29.6746C25.935 29.6963 25.2055 30.0224 24.6752 30.5818C24.145 31.1412 23.857 31.8883 23.8743 32.66L23.9935 36.8C24.0944 40.0936 25.8007 41.8094 28.8142 41.722Z" fill="#BACAFA"/>
<path d="M35.1072 36.8645L36.4236 36.8277C36.5837 36.8031 36.747 36.8129 36.903 36.8565C37.0589 36.9 37.2038 36.9763 37.3282 37.0803C37.4525 37.1843 37.5533 37.3136 37.624 37.4596C37.6947 37.6057 37.7336 37.7651 37.7382 37.9274C37.7428 38.0897 37.7129 38.2511 37.6506 38.4009C37.5883 38.5507 37.4949 38.6856 37.3766 38.7964C37.2584 38.9073 37.118 38.9917 36.9648 39.0441C36.8116 39.0964 36.649 39.1155 36.4879 39.1001L35.1715 39.1369C35.0114 39.1614 34.8481 39.1516 34.6921 39.1081C34.5362 39.0645 34.3913 38.9882 34.2669 38.8842C34.1426 38.7802 34.0418 38.6509 33.9711 38.5049C33.9004 38.3588 33.8615 38.1994 33.8569 38.0371C33.8523 37.8748 33.8822 37.7134 33.9445 37.5636C34.0068 37.4138 34.1002 37.279 34.2185 37.1681C34.3367 37.0572 34.4771 36.9728 34.6303 36.9204C34.7835 36.8681 34.9461 36.849 35.1072 36.8645Z" fill="#718CF6"/>
<path d="M28.9289 37.0393L30.2453 37.0025C30.4053 36.9779 30.5687 36.9877 30.7246 37.0313C30.8806 37.0748 31.0255 37.1511 31.1498 37.2551C31.2741 37.3591 31.375 37.4884 31.4456 37.6344C31.5163 37.7805 31.5553 37.9399 31.5599 38.1022C31.5644 38.2645 31.5346 38.4259 31.4722 38.5757C31.4099 38.7255 31.3165 38.8604 31.1983 38.9712C31.0801 39.0821 30.9397 39.1665 30.7865 39.2189C30.6332 39.2712 30.4707 39.2903 30.3095 39.2749L28.9885 39.3117C28.8284 39.336 28.665 39.3259 28.5091 39.2821C28.3532 39.2382 28.2084 39.1617 28.0842 39.0574C27.9601 38.9532 27.8594 38.8236 27.789 38.6774C27.7186 38.5312 27.6799 38.3716 27.6757 38.2093C27.6714 38.047 27.7016 37.8856 27.7643 37.7359C27.827 37.5862 27.9207 37.4515 28.0392 37.3409C28.1577 37.2302 28.2983 37.1461 28.4517 37.0941C28.6051 37.0421 28.7677 37.0234 28.9289 37.0393Z" fill="#718CF6"/>
<path d="M22.4577 33.0622C22.3951 32.0912 21.5605 31.3549 20.5936 31.4176C19.6266 31.4803 18.8935 32.3183 18.9561 33.2893L19.0328 34.4782C19.0954 35.4492 19.93 36.1855 20.897 36.1228C21.8639 36.06 22.597 35.2221 22.5344 34.2511L22.4577 33.0622Z" fill="black"/>
<path d="M44.6428 31.6248C44.5802 30.6538 43.7456 29.9175 42.7786 29.9802C41.8117 30.0429 41.0786 30.8809 41.1412 31.8519L41.2179 33.0408C41.2805 34.0118 42.1151 34.7481 43.082 34.6854C44.0489 34.6227 44.782 33.7847 44.7194 32.8137L44.6428 31.6248Z" fill="black"/>
<path d="M43.0469 32.2C43.1711 32.1138 43.276 32.0027 43.355 31.8736C43.434 31.7445 43.4853 31.6003 43.5056 31.4502L43.5836 30.9304C43.5858 30.9174 43.5925 30.9056 43.6026 30.8972C43.6127 30.8888 43.6255 30.8842 43.6386 30.8844C43.6509 30.8853 43.6626 30.8903 43.6718 30.8986C43.6809 30.907 43.687 30.9182 43.6891 30.9304L43.767 31.4502C43.7916 31.6039 43.849 31.7505 43.9353 31.8799C44.0216 32.0093 44.1347 32.1185 44.267 32.2L44.3358 32.2414C44.3391 32.2486 44.3408 32.2565 44.3408 32.2644C44.3408 32.2723 44.3391 32.2802 44.3358 32.2874C44.3391 32.2946 44.3408 32.3025 44.3408 32.3104C44.3408 32.3183 44.3391 32.3262 44.3358 32.3334L44.267 32.3794C44.1384 32.4609 44.0288 32.5693 43.9457 32.6971C43.8626 32.8249 43.8079 32.9691 43.7854 33.12L43.7074 33.6398C43.7054 33.652 43.6993 33.6632 43.6901 33.6716C43.681 33.6799 43.6693 33.6849 43.657 33.6858C43.6438 33.686 43.631 33.6815 43.621 33.673C43.6109 33.6646 43.6041 33.6528 43.6019 33.6398L43.5239 33.12C43.5041 32.9704 43.453 32.8267 43.374 32.6983C43.2949 32.5699 43.1897 32.4596 43.0653 32.3748L42.9965 32.3288C42.9932 32.3216 42.9915 32.3137 42.9915 32.3058C42.9915 32.2979 42.9932 32.29 42.9965 32.2828C42.9932 32.2756 42.9915 32.2677 42.9915 32.2598C42.9915 32.2519 42.9932 32.244 42.9965 32.2368L43.0469 32.2Z" fill="white"/>
<path d="M20.5993 33.3132C20.7315 33.2317 20.8447 33.1225 20.931 32.9931C21.0172 32.8637 21.0746 32.7171 21.0992 32.5634L21.1772 32.0436C21.1794 32.0306 21.1862 32.0188 21.1962 32.0104C21.2063 32.0019 21.2191 31.9974 21.2323 31.9976C21.2446 31.9984 21.2563 32.0034 21.2654 32.0118C21.2746 32.0201 21.2807 32.0313 21.2827 32.0436L21.3607 32.5634C21.3805 32.7136 21.4315 32.858 21.5105 32.9872C21.5896 33.1163 21.6948 33.2274 21.8194 33.3132L21.8836 33.3546C21.892 33.3589 21.899 33.3655 21.9039 33.3736C21.9088 33.3817 21.9113 33.3911 21.9111 33.4006C21.9113 33.41 21.9088 33.4194 21.9039 33.4275C21.899 33.4357 21.892 33.4423 21.8836 33.4466L21.8194 33.4926C21.6945 33.577 21.589 33.6871 21.5099 33.8156C21.4308 33.9441 21.3799 34.088 21.3607 34.2378L21.2827 34.7576C21.2807 34.7698 21.2746 34.781 21.2654 34.7893C21.2563 34.7977 21.2446 34.8027 21.2323 34.8036C21.2191 34.8038 21.2063 34.7992 21.1962 34.7908C21.1862 34.7823 21.1794 34.7706 21.1772 34.7576L21.0992 34.2378C21.0773 34.0861 21.0229 33.9409 20.9398 33.8123C20.8566 33.6837 20.7467 33.5746 20.6176 33.4926L20.5534 33.4466C20.545 33.4423 20.5379 33.4357 20.5331 33.4275C20.5282 33.4194 20.5257 33.41 20.5259 33.4006C20.5257 33.3911 20.5282 33.3817 20.5331 33.3736C20.5379 33.3655 20.545 33.3589 20.5534 33.3546L20.5993 33.3132Z" fill="white"/>
<path d="M20.1726 35.3878C20.3879 35.3878 20.5625 35.2128 20.5625 34.9968C20.5625 34.7809 20.3879 34.6058 20.1726 34.6058C19.9573 34.6058 19.7827 34.7809 19.7827 34.9968C19.7827 35.2128 19.9573 35.3878 20.1726 35.3878Z" fill="white"/>
<path d="M42.4094 33.8237C42.6247 33.8237 42.7993 33.6487 42.7993 33.4327C42.7993 33.2168 42.6247 33.0417 42.4094 33.0417C42.1941 33.0417 42.0195 33.2168 42.0195 33.4327C42.0195 33.6487 42.1941 33.8237 42.4094 33.8237Z" fill="white"/>
<path d="M36.8365 14.1404C36.3557 14.0506 35.8645 14.0304 35.3779 14.0806H35.2357C33.3093 14.329 32.3919 15.295 31.2544 16.6934C33.3735 18.906 34.6761 20.1112 34.6761 20.1112C35.1257 20.5439 35.7107 20.8072 36.332 20.8564C37.0548 20.5876 37.7518 20.2535 38.4144 19.8582C39.0812 19.4651 39.5734 18.8317 39.7904 18.0872C39.7904 18.0642 39.7904 18.0412 39.7904 18.0182C39.8914 17.6847 39.9302 17.3354 39.9051 16.9878C39.7032 15.5434 38.4556 14.4486 36.8365 14.1404Z" fill="#83ED90"/>
<path d="M32.5662 21.0634C32.4546 21.0768 32.3415 21.0609 32.2378 21.0174C32.1341 20.9738 32.0434 20.9041 31.9745 20.815C31.9206 20.7474 31.8808 20.6696 31.8575 20.5862C31.8342 20.5028 31.828 20.4155 31.8391 20.3296C31.8502 20.2437 31.8785 20.161 31.9223 20.0863C31.9661 20.0116 32.0244 19.9466 32.0938 19.895C33.3539 18.9041 34.3843 17.6505 35.1137 16.2208C35.8431 14.7912 36.2541 13.2197 36.3182 11.615C36.3267 11.4442 36.4026 11.2838 36.529 11.1691C36.6555 11.0544 36.8222 10.9947 36.9925 11.0032C37.1628 11.0118 37.3227 11.0878 37.4371 11.2146C37.5515 11.3415 37.611 11.5086 37.6025 11.6794C37.5311 13.4727 37.0715 15.2289 36.2557 16.8263C35.4399 18.4237 34.2874 19.824 32.8781 20.93C32.7869 20.9999 32.6797 21.0458 32.5662 21.0634Z" fill="#3D8A46"/>
<path d="M31.4516 21.7166C26.9474 19.688 25.3374 16.9694 24.8558 15.893C24.7812 15.7449 24.6526 15.6313 24.4966 15.576C24.3406 15.5207 24.1694 15.5279 24.0185 15.5961C23.8677 15.6643 23.749 15.7883 23.6871 15.9422C23.6251 16.096 23.6248 16.2679 23.6862 16.422C24.6035 18.469 26.4841 20.3918 28.9701 21.8776C29.8629 21.9194 30.7573 21.9086 31.6488 21.8454C31.591 21.7914 31.5243 21.7478 31.4516 21.7166Z" fill="#3D8A46"/>
<path d="M34.598 20.0561C34.2586 19.7341 32.7633 18.3265 30.5891 16.0127L30.4378 15.8517L29.7131 15.0743C28.337 13.6161 26.961 11.9095 24.1218 12.2361C21.6816 12.5167 20.0487 14.3935 20.168 16.3761C20.3377 19.1085 22.0669 20.5575 25.4198 21.4361C26.5881 21.69 27.7758 21.8439 28.97 21.8961C26.4932 20.4149 24.6172 18.5013 23.6906 16.4589C23.6256 16.3177 23.6125 16.1581 23.6536 16.0082C23.6947 15.8583 23.7875 15.7279 23.9154 15.6401C23.9922 15.5925 24.0781 15.5617 24.1675 15.5497C24.257 15.5377 24.3479 15.5447 24.4345 15.5703C24.5211 15.5959 24.6013 15.6395 24.6699 15.6983C24.7385 15.7571 24.794 15.8297 24.8327 15.9115C25.3144 16.9879 26.9243 19.7065 31.4285 21.7351C31.498 21.7671 31.5615 21.8107 31.6166 21.8639C32.9462 21.7795 34.262 21.5434 35.5383 21.1601L36.3318 20.8887C35.6888 20.7754 35.0891 20.4874 34.598 20.0561Z" fill="#62C780"/>
<path d="M40.5564 68.4756C40.4675 67.8868 40.171 67.3495 39.7207 66.9612C39.2704 66.573 38.6963 66.3595 38.1025 66.3596H19.3196C18.7258 66.3595 18.1516 66.573 17.7014 66.9612C17.2511 67.3495 16.9546 67.8868 16.8657 68.4756L15.5539 77.0822C15.3871 78.1669 15.6215 79.2753 16.2128 80.1988C16.8042 81.1222 17.7117 81.7971 18.7646 82.0962C20.8149 82.6758 23.9293 83.168 28.5757 83.168H28.8647C33.5111 83.168 36.6255 82.6758 38.6804 82.0962C39.7333 81.7971 40.6409 81.1222 41.2322 80.1988C41.8235 79.2753 42.0579 78.1669 41.8911 77.0822L40.5564 68.4756Z" fill="#747F8D"/>
<path d="M36.0016 68.7701L35.2081 68.8943C30.9032 69.575 26.5186 69.575 22.2137 68.8943L21.4202 68.7701C20.994 68.7689 20.5854 68.5991 20.2831 68.2977C19.9808 67.9963 19.8093 67.5875 19.8057 67.1601V63.7239C19.8057 63.4191 19.8706 63.1179 19.996 62.8402C20.1213 62.5626 20.3042 62.315 20.5326 62.1138C20.7609 61.9127 21.0293 61.7627 21.32 61.6739C21.6107 61.5851 21.917 61.5594 22.2183 61.5987L24.5117 61.8931C27.3163 62.2564 30.1559 62.2564 32.9605 61.8931L35.2264 61.5987C35.5249 61.5637 35.8273 61.5923 36.114 61.6825C36.4008 61.7727 36.6653 61.9226 36.8903 62.1223C37.1154 62.3219 37.296 62.567 37.4202 62.8413C37.5445 63.1157 37.6097 63.4133 37.6115 63.7146V67.1601C37.6079 67.5867 37.437 67.9948 37.1357 68.2961C36.8344 68.5974 36.427 68.7677 36.0016 68.7701Z" fill="url(#paint2_linear_220_22820)"/>
<path d="M33.5936 71.6497H26.6997V79.1385H33.5936V71.6497Z" fill="#747F8D"/>
<path d="M22.6404 71.7232V79.0832C22.6451 79.4034 22.7744 79.709 23.0006 79.935C23.2268 80.161 23.532 80.2895 23.8513 80.293H24.4613V70.4996H23.8513C23.5297 70.5033 23.2224 70.6336 22.9958 70.8626C22.7692 71.0915 22.6416 71.4007 22.6404 71.7232Z" fill="#83ED90"/>
<path d="M33.6303 70.4995H25.686V80.293H33.6212C33.7829 80.2954 33.9435 80.2655 34.0937 80.2051C34.2439 80.1447 34.3805 80.055 34.4958 79.9411C34.611 79.8273 34.7025 79.6916 34.765 79.5419C34.8275 79.3922 34.8596 79.2316 34.8596 79.0694V71.7093C34.856 71.3856 34.7246 71.0765 34.4942 70.8498C34.2637 70.623 33.9531 70.4971 33.6303 70.4995ZM33.0249 76.6175C33.0258 76.8609 32.9546 77.0989 32.8204 77.3016C32.6862 77.5043 32.495 77.6624 32.271 77.756C32.047 77.8495 31.8004 77.8742 31.5624 77.827C31.3244 77.7797 31.1058 77.6627 30.9342 77.4906C30.7627 77.3186 30.646 77.0993 30.5989 76.8606C30.5517 76.622 30.5764 76.3746 30.6696 76.15C30.7629 75.9254 30.9206 75.7336 31.1227 75.599C31.3248 75.4644 31.5622 75.393 31.8048 75.3939V73.7931L29.3555 74.6119V77.2293C29.3555 77.4714 29.2839 77.7079 29.1498 77.9091C29.0158 78.1104 28.8252 78.2672 28.6023 78.3598C28.3793 78.4524 28.134 78.4767 27.8973 78.4294C27.6607 78.3822 27.4433 78.2657 27.2726 78.0946C27.102 77.9234 26.9858 77.7054 26.9387 77.4681C26.8917 77.2307 26.9158 76.9847 27.0082 76.7611C27.1005 76.5375 27.2569 76.3464 27.4575 76.212C27.6582 76.0775 27.8941 76.0057 28.1354 76.0057V74.1657C28.1356 74.0374 28.176 73.9125 28.2509 73.8084C28.3258 73.7044 28.4314 73.6267 28.5528 73.5862L32.2222 72.3625C32.3139 72.3312 32.4117 72.3224 32.5074 72.3368C32.6032 72.3512 32.6941 72.3884 32.7726 72.4454C32.8504 72.5027 32.9137 72.5775 32.9575 72.6638C33.0013 72.75 33.0243 72.8454 33.0249 72.9422V76.6175Z" fill="#83ED90"/>
<path d="M1.92186 22.4802C2.66985 21.9966 3.30661 21.3588 3.78982 20.6093C4.27303 19.8598 4.59161 19.0157 4.72438 18.1332L5.18305 15.0926C5.19308 15.0206 5.22886 14.9548 5.28373 14.9074C5.33859 14.86 5.40878 14.8343 5.48119 14.835C5.55388 14.8351 5.62418 14.861 5.6796 14.9082C5.73503 14.9553 5.77199 15.0207 5.78392 15.0926L6.2426 18.1332C6.37451 19.016 6.69274 19.8604 7.17603 20.61C7.65931 21.3597 8.29653 21.9972 9.04512 22.4802L9.435 22.7378C9.47854 22.7651 9.51444 22.8031 9.53931 22.8481C9.56419 22.8932 9.57722 22.9439 9.57719 22.9954C9.57645 23.0461 9.56305 23.0958 9.53821 23.14C9.51337 23.1842 9.47789 23.2215 9.435 23.2484L9.04512 23.506C8.29653 23.9889 7.65931 24.6265 7.17603 25.3761C6.69274 26.1257 6.37451 26.9702 6.2426 27.853L5.78392 30.8936C5.77199 30.9655 5.73503 31.0308 5.6796 31.078C5.62418 31.1251 5.55388 31.1511 5.48119 31.1512C5.40878 31.1519 5.33859 31.1261 5.28373 31.0787C5.22886 31.0313 5.19308 30.9655 5.18305 30.8936L4.72438 27.853C4.59161 26.9704 4.27303 26.1264 3.78982 25.3769C3.30661 24.6273 2.66985 23.9896 1.92186 23.506L1.52739 23.2484C1.48315 23.2233 1.44602 23.1874 1.41953 23.1439C1.39304 23.1004 1.37807 23.0509 1.37603 23C1.37507 22.9488 1.38722 22.8983 1.41131 22.8532C1.4354 22.8081 1.47064 22.7699 1.51363 22.7424L1.92186 22.4802Z" fill="#FEDB5E"/>
<path d="M32.8871 61.8884C32.2908 61.9666 31.6945 62.0218 31.0982 62.0678C30.7359 62.399 29.7222 63.0752 27.149 63.9446C27.0451 63.9759 26.9484 64.0277 26.8647 64.097C26.7811 64.1664 26.7121 64.2518 26.662 64.3483C26.6118 64.4449 26.5815 64.5505 26.5727 64.659C26.564 64.7675 26.577 64.8767 26.611 64.98C26.6451 65.0834 26.6995 65.1788 26.7709 65.2607C26.8424 65.3427 26.9295 65.4094 27.0271 65.4569C27.1248 65.5045 27.2309 65.532 27.3393 65.5377C27.4477 65.5434 27.5561 65.5273 27.6582 65.4902C32.1486 63.986 32.9926 62.7118 32.8871 61.8884Z" fill="#D8529B"/>
<path d="M31.1824 54.9083C33.3237 54.08 34.0894 50.8857 32.8925 47.7734C31.6957 44.6611 28.9896 42.8096 26.8482 43.6378C24.7069 44.466 23.9412 47.6604 25.138 50.7727C26.3349 53.8849 29.041 55.7365 31.1824 54.9083Z" fill="url(#paint3_linear_220_22820)"/>
<path d="M28.7912 46.6118C28.0161 45.2732 26.0392 44.1738 24.0439 43.7782C20.8772 43.2124 17.6173 43.5029 14.5997 44.62C13.4972 45.0504 12.565 45.8302 11.9449 46.8407C11.3248 47.8512 11.0507 49.0371 11.1642 50.2181C11.4578 52.5963 12.3385 53.9396 12.8247 55.8118C13.1136 56.925 13.5494 58.2452 14.0035 59.4918C15.2465 62.951 18.3884 66.0468 23.177 65.0624C24.4888 64.791 27.6858 64.1975 29.8187 63.02C32.4056 61.5848 32.7221 58.5166 31.7635 56.235L29.5159 50.8668C29.4321 50.6973 29.4064 50.5049 29.4426 50.3194C29.7218 49.1234 29.533 47.8655 28.9151 46.805L28.7912 46.6118Z" fill="#7393F9"/>
<path d="M74.3425 46.3818C76.402 45.5032 78.544 44.8408 80.6493 44.0818C81.241 43.8702 81.6722 43.7092 81.5988 42.8812C81.53 42.1268 82.1034 41.6208 82.8189 41.3862C83.1568 41.2501 83.531 41.2343 83.879 41.3415C84.2271 41.4486 84.528 41.6722 84.7316 41.975C85.1903 42.6558 85.6489 42.1866 86.1076 42.0992C86.5663 42.0118 86.7222 41.768 86.6901 41.2574C86.6917 40.8821 86.8114 40.5169 87.0323 40.214C87.2531 39.9111 87.5637 39.6859 87.9198 39.5706C88.2759 39.4553 88.6592 39.4558 89.015 39.572C89.3708 39.6882 89.6808 39.9143 89.9009 40.2178C90.1486 40.595 90.3825 40.6456 90.7081 40.4386C91.0338 40.2316 91.8182 40.4064 91.7815 39.56C91.7337 39.1592 91.8292 38.7544 92.0509 38.4175C92.2726 38.0807 92.6062 37.8335 92.9924 37.72C93.7996 37.4578 94.451 37.6648 95.0564 38.4422C95.2445 38.686 95.3958 38.7872 95.7031 38.6722C97.0792 38.157 98.4965 37.7016 99.8634 37.145C102.024 36.2664 103.115 34.4402 103.904 32.3748C104.074 31.9148 104.23 31.4548 104.441 31.05C104.487 30.9094 104.574 30.7857 104.69 30.6945C104.806 30.6033 104.947 30.5485 105.094 30.5372C105.241 30.5259 105.388 30.5585 105.517 30.6309C105.646 30.7033 105.75 30.8123 105.817 30.9442C105.936 31.1223 106.028 31.3178 106.088 31.5238C107.222 34.6978 108.352 37.8718 109.477 41.0458C109.602 41.306 109.651 41.5961 109.619 41.883C109.496 42.458 109.014 42.6742 108.399 42.4074C107.179 41.8692 106.028 41.1838 104.73 40.7882C103.653 40.4137 102.498 40.3265 101.377 40.5352C101.683 41.0585 101.953 41.6026 102.184 42.1636C102.615 43.3807 102.593 44.713 102.122 45.9151C101.651 47.1172 100.762 48.108 99.6203 48.7048C99.4094 48.7676 99.228 48.9044 99.1093 49.0902C98.9906 49.276 98.9424 49.4983 98.9735 49.7168C98.983 50.0919 98.8652 50.4591 98.6394 50.7583C98.4135 51.0575 98.0931 51.2709 97.7305 51.3636C97.3946 51.5029 97.0211 51.5212 96.6732 51.4156C96.3254 51.3099 96.0248 51.0867 95.8224 50.784C95.3637 50.025 94.9051 50.5678 94.4464 50.6552C93.9877 50.7426 93.873 50.9864 93.9051 51.4602C93.9347 51.8349 93.8346 52.2083 93.6215 52.5176C93.4084 52.8268 93.0955 53.0529 92.7355 53.1576C92.3947 53.3133 92.0103 53.3442 91.6491 53.2451C91.2879 53.1459 90.9728 52.9229 90.7586 52.6148C90.2999 51.8696 89.8412 52.3802 89.3505 52.4722C88.8597 52.5642 88.7679 52.7942 88.8046 53.2726C88.8119 53.643 88.7037 54.0066 88.4952 54.3124C88.2866 54.6183 87.9881 54.8513 87.6412 54.9789C87.2943 55.1065 86.9164 55.1224 86.5601 55.0243C86.2038 54.9262 85.8868 54.7191 85.6535 54.4318C85.5502 54.2645 85.3921 54.1386 85.2062 54.0757C85.0204 54.0127 84.8185 54.0166 84.6353 54.0868C83.9054 54.254 83.1485 54.2649 82.4141 54.1187C81.6797 53.9725 80.9843 53.6725 80.3735 53.2384C79.7626 52.8042 79.25 52.2456 78.8691 51.5991C78.4883 50.9527 78.2478 50.2328 78.1633 49.4868C78.0762 48.8336 77.8698 48.8428 77.3698 49.0268C76.7822 49.2947 76.1669 49.4967 75.5351 49.6294C76.1405 48.1988 75.7553 47.1178 74.3425 46.3818ZM94.2537 46.943C94.2216 46.7707 94.1802 46.6002 94.1299 46.4324C93.9189 45.8252 93.7033 45.218 93.4877 44.5924C93.0703 43.4102 93.0749 43.4286 91.9145 43.838C91.4925 43.9852 91.3503 44.1462 91.5384 44.597C91.8273 45.3008 92.0383 46.0322 92.3181 46.7406C92.4098 46.9706 92.3594 47.4214 92.7447 47.3616C93.2573 47.2596 93.7617 47.1197 94.2537 46.943ZM87.979 45.402C87.901 45.402 87.8506 45.3514 87.8139 45.3606C87.333 45.4721 86.8699 45.6501 86.4379 45.8896C86.1443 46.1058 86.5204 46.4876 86.603 46.7866C86.7268 47.2466 86.9149 47.7066 87.0617 48.1344C87.4836 49.3212 87.4791 49.3028 88.6487 48.8888C89.0386 48.7508 89.1853 48.6174 89.011 48.185C88.6854 47.3892 88.4285 46.575 88.1396 45.7654C88.0937 45.6366 88.0295 45.5124 87.979 45.402ZM97.7672 42.2832C97.6444 42.2368 97.5188 42.1984 97.3911 42.1682C96.5976 42.021 96.4462 42.2004 96.7122 42.9548C96.9783 43.7092 97.2581 44.4222 97.492 45.172C97.6434 45.6596 97.8498 45.632 98.1892 45.356C98.4239 45.1556 98.6045 44.8993 98.7144 44.6105C98.8242 44.3217 98.8598 44.0098 98.8177 43.7036C98.7757 43.3974 98.6574 43.1068 98.4738 42.8585C98.2902 42.6102 98.0472 42.4124 97.7672 42.2832ZM82.718 50.4712C82.8877 50.5126 83.0666 50.5724 83.2546 50.6C83.9564 50.6966 84.0803 50.5494 83.8509 49.9008C83.5757 49.1142 83.2822 48.3276 83.0161 47.5364C82.8831 47.1408 82.6813 47.1316 82.3877 47.3616C82.1364 47.5467 81.9386 47.7954 81.8145 48.0823C81.6904 48.3692 81.6444 48.684 81.6814 48.9946C81.7184 49.3076 81.8326 49.6065 82.0136 49.8643C82.1945 50.1221 82.4366 50.3306 82.718 50.4712Z" fill="#FBAB42"/>
<path d="M74.3425 46.3818C75.7553 47.1178 76.136 48.2218 75.5076 49.6662C75.1039 50.3654 74.2829 50.6644 73.9389 51.4648C73.7371 51.9248 72.8197 51.7316 72.5995 51.1704C72.0721 49.8134 71.5996 48.438 71.1364 47.058C71.0777 46.8995 71.0738 46.7257 71.1254 46.5647C71.177 46.4037 71.281 46.2648 71.4207 46.1702C71.5386 46.0498 71.6943 45.974 71.8614 45.9556C72.0286 45.9371 72.197 45.9772 72.3381 46.069C72.9619 46.5152 73.7095 46.046 74.3425 46.3818Z" fill="#CCD6DC"/>
<path d="M90.699 35.9536C90.7324 35.8496 90.7884 35.7544 90.8629 35.6749C90.9375 35.5953 91.0288 35.5334 91.1302 35.4936C91.7127 35.2866 92.2906 35.0612 92.8777 34.8726C92.988 34.8207 93.1083 34.7939 93.2301 34.7942C93.3519 34.7944 93.4721 34.8217 93.5821 34.874C93.6921 34.9263 93.7893 35.0024 93.8665 35.0968C93.9438 35.1912 93.9993 35.3016 94.029 35.42C94.0728 35.532 94.0931 35.6519 94.0886 35.7721C94.0841 35.8924 94.0549 36.0104 94.0028 36.1188C93.9507 36.2271 93.8768 36.3236 93.7858 36.402C93.6949 36.4804 93.5887 36.5392 93.474 36.5746C92.9007 36.8092 92.3136 37.0116 91.7219 37.191C91.563 37.2567 91.387 37.268 91.2211 37.2231C91.0552 37.1782 90.9088 37.0796 90.8045 36.9426C90.6943 36.8052 90.6257 36.639 90.607 36.4636C90.5883 36.2883 90.6202 36.1112 90.699 35.9536Z" fill="#CCD6DC"/>
<path d="M80.8558 40.7514C80.7116 40.6733 80.5908 40.5579 80.5061 40.4171C80.4214 40.2764 80.3759 40.1154 80.3742 39.951C80.3649 39.7819 80.4116 39.6144 80.507 39.4747C80.6024 39.3349 80.7411 39.2307 80.9017 39.1782C81.5138 38.9107 82.1437 38.6863 82.7869 38.5066C82.9967 38.4459 83.2218 38.4696 83.4145 38.5727C83.6072 38.6757 83.7523 38.8501 83.8189 39.0586C83.8699 39.1552 83.9002 39.2614 83.9077 39.3704C83.9153 39.4794 83.9 39.5888 83.8629 39.6915C83.8257 39.7942 83.7675 39.888 83.692 39.9668C83.6164 40.0455 83.5253 40.1075 83.4244 40.1488C82.7731 40.434 82.0897 40.6502 81.4154 40.8848C81.2503 40.94 81.0898 40.8618 80.8558 40.7514Z" fill="#CCD6DC"/>
<path d="M86.0663 38.9482C85.3415 38.5986 85.2544 37.8028 85.9195 37.421C86.5604 37.0589 87.2586 36.8099 87.9835 36.685C88.1904 36.6684 88.3966 36.7248 88.5663 36.8445C88.7361 36.9642 88.8588 37.1397 88.9132 37.3405C88.9676 37.5414 88.9503 37.755 88.8643 37.9444C88.7783 38.1338 88.629 38.2871 88.4422 38.3778C87.8689 38.6032 87.2863 38.7964 86.7084 39.0126C86.6034 39.0509 86.4912 39.0651 86.38 39.0539C86.2688 39.0428 86.1616 39.0066 86.0663 38.9482Z" fill="#CCD6DC"/>
<path d="M89.4007 26.7122L89.286 27.2274C88.5378 27.9178 87.7165 28.5241 86.8367 29.0352C85.1855 30.0978 83.5113 31.1236 81.9059 32.2552C81.5016 32.5894 81.0133 32.8053 80.4945 32.8792C79.9758 32.953 79.4468 32.882 78.9658 32.6738C78.4312 32.2932 77.9267 31.8718 77.4567 31.4134C77.0274 31.0062 76.5091 30.7053 75.9431 30.5348C73.9128 29.9916 72.1429 28.7387 70.9527 27.002C68.4254 23.1748 65.9669 19.32 63.4808 15.4606C63.3326 15.2546 63.2308 15.0187 63.1825 14.7693C63.1341 14.5199 63.1405 14.2629 63.201 14.0162C63.2515 13.7034 63.5038 13.4964 63.6597 13.2204C64.4257 12.7604 65.2055 12.4108 65.9944 13.1514C66.2303 13.3803 66.4382 13.6367 66.6136 13.915C67.8795 15.8654 69.1363 17.8204 70.4023 19.7708C70.5124 19.941 70.6179 20.2308 70.8976 20.0468C71.0138 19.9827 71.0998 19.875 71.1368 19.7474C71.1738 19.6197 71.1587 19.4825 71.0949 19.366C71.0023 19.1915 70.8997 19.0226 70.7876 18.86C69.0262 16.1322 67.2741 13.3998 65.499 10.6812C65.1135 10.1426 64.892 9.50347 64.8614 8.8412L65.3201 8.027C65.4035 8.0009 65.4824 7.96212 65.554 7.912C66.5586 7.0334 67.6181 7.4796 68.2832 8.5468C69.4436 10.3868 70.6867 12.2268 71.893 14.0668C72.4709 14.9454 73.0351 15.8332 73.6084 16.7164C73.7002 16.859 73.7827 17.066 74.0029 16.974C74.1678 16.9191 74.3119 16.8147 74.4157 16.675C74.5441 16.4404 74.3148 16.2702 74.2047 16.0954C72.1743 12.9398 70.1393 9.7888 68.0997 6.6424C67.7763 6.19869 67.5912 5.66889 67.5676 5.1198C67.701 4.67345 67.9607 4.27553 68.3153 3.9744C69.5812 3.427 70.2693 3.6294 71.0261 4.7978L77.1219 14.2416C77.4292 14.7016 77.7549 14.7614 78.0163 14.375C78.2227 14.0714 77.9659 13.8782 77.8329 13.6758C75.9981 10.8637 74.1634 8.0592 72.3287 5.2624C71.9405 4.72558 71.7202 4.08511 71.6957 3.4224C71.7858 3.10305 71.9528 2.8108 72.1819 2.5714C73.0993 1.6744 74.2552 1.8216 75.0257 2.9486C75.989 4.3654 76.8284 5.8604 77.8558 7.2312C79.2043 9.4944 80.6629 11.6886 82.1307 13.8736C82.4275 14.3371 82.7978 14.7488 83.2269 15.0926C83.3263 15.2012 83.4521 15.282 83.592 15.3272C83.7319 15.3723 83.8811 15.3803 84.025 15.3502C83.8645 15.088 83.7452 14.8902 83.6122 14.6832C82.5893 13.0962 81.5711 11.5046 80.539 9.9268C80.3407 9.6493 80.2027 9.33311 80.1339 8.9987C80.0652 8.6643 80.0673 8.31915 80.14 7.9856C81.328 6.4768 82.516 6.532 83.5709 8.1512C84.0617 8.901 84.5433 9.66 85.0341 10.4144C85.9239 11.7944 86.7862 13.1744 87.7219 14.5544C89.5796 17.227 90.1346 20.1112 89.2126 23.2392C88.8642 24.3828 88.9308 25.6132 89.4007 26.7122Z" fill="#FEDB5E"/>
<path d="M78.9657 32.6601C78.0484 33.3041 77.0668 33.2719 75.9843 32.5313C75.6082 32.2691 75.2825 31.9379 74.9294 31.6481C74.4381 31.2504 73.8646 30.9675 73.2506 30.8201C71.2086 30.3215 69.416 29.0974 68.2051 27.3747C65.606 23.6947 63.0343 20.0147 60.4902 16.3347C59.6141 15.0697 60.3205 13.5747 61.7837 13.4735C62.3708 13.4321 62.7606 13.7955 63.2056 14.0577C63.145 14.3044 63.1387 14.5613 63.187 14.8107C63.2353 15.0601 63.3371 15.296 63.4854 15.5021C65.9714 19.3523 68.4299 23.2163 70.9572 27.0435C72.1474 28.7802 73.9173 30.0331 75.9476 30.5763C76.5136 30.7467 77.0319 31.0476 77.4613 31.4549C77.9317 31.8941 78.4347 32.2969 78.9657 32.6601Z" fill="#EE9845"/>
<path d="M63.6369 13.2204C63.1553 12.5396 62.6691 11.868 62.1967 11.1826C61.4444 10.0924 61.4674 9.22758 62.2655 8.55138C63.0636 7.87518 63.8846 7.93958 64.8616 8.84578C64.8921 9.50805 65.1136 10.1472 65.4991 10.6858C67.2742 13.4044 69.0264 16.1368 70.7877 18.8646C70.8998 19.0272 71.0024 19.1961 71.095 19.3706C71.1257 19.4297 71.1445 19.4943 71.15 19.5607C71.1556 19.6271 71.1479 19.6939 71.1274 19.7573C71.1069 19.8207 71.074 19.8794 71.0306 19.9298C70.9873 19.9803 70.9343 20.0217 70.8748 20.0514C70.595 20.2308 70.4895 19.9456 70.3795 19.7754C69.1135 17.825 67.8567 15.87 66.5908 13.9196C66.4154 13.6413 66.2075 13.3849 65.9716 13.156C65.1826 12.42 64.4029 12.765 63.6369 13.2204Z" fill="#EE9845"/>
<path d="M65.2973 8.03157C65.0633 7.69577 64.8111 7.36457 64.5909 7.01497C63.9809 6.09497 64.0955 5.17497 64.8936 4.58157C65.6917 3.98817 66.554 4.04797 67.3246 4.86217L67.5448 5.10137C67.5683 5.65046 67.7535 6.18026 68.0769 6.62397C70.1226 9.77037 72.1576 12.929 74.1819 16.1C74.2919 16.2748 74.5213 16.445 74.3928 16.6796C74.289 16.8193 74.1449 16.9236 73.98 16.9786C73.7599 17.0706 73.6773 16.8636 73.5856 16.721C73.0122 15.8378 72.4481 14.95 71.8701 14.0714C70.6638 12.2314 69.4208 10.4328 68.2603 8.57437C67.5952 7.50717 66.5357 7.06097 65.5312 7.93957C65.4582 7.98165 65.3793 8.01265 65.2973 8.03157Z" fill="#EE9845"/>
<path d="M68.2925 3.95598C68.3231 3.60592 68.4634 3.27457 68.6933 3.00934C68.9232 2.74411 69.2308 2.55861 69.5722 2.47938C69.8846 2.37529 70.2218 2.37212 70.5361 2.47033C70.8504 2.56853 71.1261 2.76315 71.3243 3.02678C71.4436 3.15098 71.5537 3.28438 71.6683 3.41318C71.6928 4.07589 71.9131 4.71636 72.3013 5.25318C74.136 8.05305 75.9707 10.8575 77.8055 13.6666C77.9385 13.869 78.1953 14.0622 77.9889 14.3658C77.7275 14.7522 77.4018 14.7062 77.0945 14.2324L71.0033 4.77938C70.2464 3.61098 69.5584 3.40858 68.2925 3.95598Z" fill="#EE9845"/>
<path d="M77.8284 7.22198C78.787 6.84478 79.2916 7.01498 80.1218 7.97638C80.049 8.30993 80.047 8.65508 80.1157 8.98948C80.1845 9.32388 80.3225 9.64007 80.5208 9.91758C81.5528 11.4954 82.5711 13.087 83.594 14.674C83.727 14.8718 83.8462 15.0788 84.0068 15.341C83.8629 15.371 83.7137 15.3631 83.5738 15.3179C83.4339 15.2728 83.3081 15.192 83.2087 15.0834C82.7763 14.7403 82.4028 14.3286 82.1032 13.8644C80.6355 11.6794 79.1769 9.48518 77.8284 7.22198Z" fill="#EE9845"/>
<path d="M92.7171 6.78959C92.6911 6.94573 92.6307 7.09409 92.5402 7.22382C92.4498 7.35355 92.3315 7.46136 92.1942 7.53938C91.075 8.26158 89.9604 8.99759 88.8321 9.71519C88.2633 10.0786 87.7496 9.99119 87.4561 9.51739C87.1625 9.04359 87.3185 8.59738 87.8689 8.23858C89.0003 7.49338 90.1378 6.75432 91.2814 6.02139C91.4373 5.89712 91.6305 5.82947 91.8296 5.82947C92.0286 5.82947 92.2218 5.89712 92.3777 6.02139C92.4971 6.10775 92.5914 6.2244 92.6511 6.3594C92.7107 6.49439 92.7335 6.64286 92.7171 6.78959Z" fill="#EE9845"/>
<path d="M63.4717 25.8107C63.3822 26.1012 63.1853 26.3464 62.9213 26.4961C61.8205 27.2045 60.7196 27.9267 59.6142 28.6351C59.0271 29.0077 58.5363 28.9433 58.2382 28.4787C57.9401 28.0141 58.0777 27.5311 58.651 27.1539C59.7824 26.4087 60.9199 25.6711 62.0636 24.9413C62.2134 24.8275 62.3962 24.7659 62.5842 24.7659C62.7721 24.7659 62.9549 24.8275 63.1048 24.9413C63.2413 25.0369 63.3481 25.1692 63.413 25.323C63.4779 25.4768 63.4983 25.6458 63.4717 25.8107Z" fill="#EE9845"/>
<path d="M64.3753 30.8844C64.2377 30.8657 64.1065 30.8142 63.9927 30.7343C63.8789 30.6543 63.7858 30.5483 63.7211 30.425C63.6565 30.3016 63.6222 30.1646 63.6211 30.0253C63.62 29.8859 63.6522 29.7484 63.7148 29.624C64.146 28.8328 64.6123 28.0662 65.1138 27.324C65.1708 27.2276 65.2477 27.1445 65.3394 27.0804C65.431 27.0162 65.5353 26.9724 65.6451 26.952C65.755 26.9315 65.868 26.9348 65.9765 26.9617C66.085 26.9886 66.1865 27.0384 66.2743 27.1078C66.3723 27.1606 66.4584 27.2331 66.5272 27.3208C66.5959 27.4085 66.6459 27.5095 66.6739 27.6175C66.7019 27.7255 66.7073 27.8381 66.6899 27.9483C66.6724 28.0585 66.6324 28.1639 66.5724 28.2578C66.1458 29.0214 65.655 29.762 65.1964 30.5026C65.1119 30.6399 64.989 30.7493 64.843 30.8172C64.6971 30.8851 64.5344 30.9085 64.3753 30.8844Z" fill="#EE9845"/>
<path d="M84.8553 7.73715C84.7151 7.71655 84.582 7.66179 84.4678 7.57766C84.3536 7.49353 84.2616 7.3826 84.2001 7.25459C84.1385 7.12657 84.1092 6.98537 84.1147 6.84335C84.1201 6.70133 84.1602 6.56282 84.2315 6.43995C84.658 5.67175 85.1167 4.92655 85.6075 4.19515C85.6617 4.09761 85.7358 4.01261 85.825 3.94567C85.9141 3.87873 86.0163 3.83135 86.1249 3.80662C86.2334 3.78189 86.346 3.78036 86.4552 3.80212C86.5644 3.82389 86.6679 3.86846 86.7588 3.93295C86.8635 3.98492 86.9559 4.05884 87.0297 4.1497C87.1035 4.24057 87.157 4.34626 87.1866 4.45964C87.2162 4.57303 87.2211 4.69145 87.2011 4.80692C87.1811 4.92239 87.1366 5.0322 87.0707 5.12895C86.6487 5.87415 86.1946 6.59635 85.7405 7.32315C85.654 7.47568 85.5223 7.59746 85.3637 7.67163C85.2051 7.7458 85.0274 7.7687 84.8553 7.73715Z" fill="#EE9845"/>
<path d="M89.0429 13.7586C88.5567 13.6206 88.3044 13.3768 88.2677 12.9582C88.2449 12.8588 88.2421 12.7557 88.2597 12.6552C88.2772 12.5547 88.3147 12.4587 88.3698 12.3729C88.425 12.2872 88.4968 12.2133 88.5808 12.1559C88.6649 12.0984 88.7597 12.0584 88.8594 12.0382C89.7144 11.8742 90.5782 11.7606 91.4464 11.6978C91.6479 11.6901 91.8447 11.761 91.9952 11.8957C92.1457 12.0304 92.2384 12.2183 92.2536 12.42C92.3086 12.6031 92.2917 12.8003 92.2064 12.9713C92.1211 13.1424 91.974 13.2742 91.795 13.34C90.8928 13.5662 89.9714 13.7064 89.0429 13.7586Z" fill="#EE9845"/>
<path d="M61.7701 20.9576C62.2288 21.0864 62.4948 21.3256 62.5361 21.7442C62.5591 21.8431 62.5622 21.9455 62.5452 22.0455C62.5282 22.1455 62.4916 22.2412 62.4373 22.3268C62.3831 22.4125 62.3124 22.4864 62.2293 22.5444C62.1463 22.6023 62.0525 22.643 61.9536 22.6642C61.078 22.8323 60.1924 22.9429 59.3024 22.9954C59.1119 22.9772 58.9329 22.8951 58.7945 22.7625C58.656 22.6299 58.566 22.4545 58.539 22.2644C58.512 22.0743 58.5496 21.8806 58.6456 21.7145C58.7417 21.5484 58.8906 21.4196 59.0685 21.3486C59.957 21.1449 60.8605 21.0141 61.7701 20.9576Z" fill="#EE9845"/>
<path d="M79.5761 62.3116C79.3709 62.142 79.1532 61.9882 78.9248 61.8516L78.8789 61.824C78.755 61.7504 78.6266 61.686 78.4982 61.6216C77.2457 61.0441 75.8564 60.8321 74.4893 61.0098C73.6131 61.1329 72.7967 61.5262 72.1532 62.1353C71.5098 62.7443 71.0711 63.539 70.8979 64.4092C70.9078 64.9264 71.065 65.4299 71.3511 65.8603C71.6372 66.2907 72.0402 66.6299 72.5124 66.838C72.9422 67.0019 73.3479 67.2232 73.7188 67.4958C74.127 67.8408 74.0857 68.1582 73.6087 68.3882C73.2155 68.5437 72.801 68.6384 72.3794 68.6688C72.1914 68.6964 71.9529 68.6366 71.8749 68.908C71.8762 69.919 71.5184 70.8974 70.8658 71.668C69.9484 72.8364 68.9485 73.968 67.9807 75.0996C68.0082 75.44 68.2788 75.3618 68.4761 75.3618C68.9715 75.3618 69.4714 75.3618 69.9668 75.3204C71.2383 75.2752 72.4984 75.0618 73.7142 74.6856C74.1041 74.5568 74.4205 74.3682 74.4527 73.899V73.8714H74.5077L74.5811 73.5218C74.8495 72.8923 75.2592 72.3335 75.7782 71.8888C76.5901 71.1022 77.4386 70.3524 78.2551 69.5888C79.268 68.6867 80.0699 67.5715 80.6035 66.3228C80.9081 65.6359 80.9724 64.866 80.7859 64.1379C80.5994 63.4098 80.1731 62.7662 79.5761 62.3116Z" fill="#3E721D"/>
<path d="M74.1637 67.9512C74.1637 67.4498 73.0537 66.9346 72.6638 66.769L72.5675 66.7276H72.5262C71.5584 66.2952 71.1502 65.435 70.8796 64.4276C70.8062 64.5748 70.7236 64.722 70.6594 64.8876C70.2558 65.8076 69.9714 65.9686 68.999 65.7662C68.2393 65.6156 67.5134 65.3272 66.857 64.9152C66.224 64.515 66.068 64.4552 65.7332 64.9428C65.613 65.1406 65.5347 65.3612 65.5031 65.5907C65.4715 65.8202 65.4874 66.0537 65.5497 66.2768C65.5727 66.3366 65.6002 66.3964 65.6277 66.4516C65.9744 67.0345 66.5009 67.4882 67.1276 67.7442C68.3689 68.3105 69.699 68.6561 71.0584 68.7654H71.1456C71.2648 68.7654 71.3887 68.7654 71.5079 68.793C72.884 68.8666 74.0307 68.5998 74.1499 68.0294C74.1591 67.9972 74.1591 67.9742 74.1637 67.9512Z" fill="#FECB4D"/>
<path d="M74.4113 65.0394C75.0471 65.0394 75.5626 64.5225 75.5626 63.8848C75.5626 63.2472 75.0471 62.7302 74.4113 62.7302C73.7755 62.7302 73.26 63.2472 73.26 63.8848C73.26 64.5225 73.7755 65.0394 74.4113 65.0394Z" fill="#292F33"/>
<path d="M74.4938 75.7252C74.3689 75.0903 74.3689 74.4372 74.4938 73.8024C74.4938 73.715 74.5305 73.6276 74.5443 73.5402C74.4638 73.8267 74.3045 74.0848 74.0847 74.2849C73.8649 74.485 73.5934 74.6191 73.3012 74.6718C71.6109 75.0534 69.8829 75.2416 68.1503 75.233C68.054 75.233 67.9668 75.21 67.9485 75.095C67.3033 75.7347 66.8599 76.5505 66.6733 77.441C66.7697 77.211 67.0036 77.2708 67.4393 77.2938L67.5311 77.3214C69.3554 77.5123 71.1993 77.302 72.9343 76.705C73.2109 76.6126 73.4782 76.494 73.7324 76.3508C73.8639 76.2771 74.0003 76.2126 74.1406 76.1576L74.5764 75.9874L74.4938 75.7252Z" fill="#F4F7F9"/>
<path d="M91.6345 87.2528C91.6505 87.2657 91.6689 87.2752 91.6886 87.2807C91.7083 87.2863 91.7289 87.2877 91.7492 87.285L91.6896 87.1976L91.6345 87.2528Z" fill="#414447"/>
<path d="M85.9011 81.2912C85.9744 81.2866 86.048 81.2866 86.1213 81.2912C86.0504 81.2639 85.972 81.2639 85.9011 81.2912Z" fill="#A88576"/>
<path d="M86.7588 81.3923C86.767 81.4208 86.7778 81.4485 86.7909 81.4751C87.2078 81.549 87.6186 81.6535 88.0202 81.7879C87.6395 81.5257 87.1487 81.5487 86.7588 81.3923Z" fill="#A88576"/>
<path d="M86.5708 81.351H86.4377C86.5387 81.351 86.6487 81.3509 86.7542 81.3969L86.5708 81.351Z" fill="#3D3E40"/>
<path d="M86.3735 81.3234L86.4377 81.3464H86.5708L86.3735 81.3234Z" fill="#3D3E40"/>
<path d="M73.6361 76.36C73.6136 76.3502 73.5894 76.3452 73.565 76.3452C73.5405 76.3452 73.5163 76.3502 73.4939 76.36H73.5902H73.6361Z" fill="#3E721D"/>
<path d="M74.5993 75.9828L73.9847 76.2128L73.4939 76.3968C71.6292 77.0814 69.6391 77.3544 67.6595 77.1972H67.2009C67.0978 77.1792 66.9918 77.195 66.8984 77.2422C66.805 77.2894 66.7293 77.3656 66.6826 77.4594C66.6584 77.5117 66.6429 77.5677 66.6367 77.625C66.1803 79.0607 66.0517 80.5809 66.2606 82.0732C66.4103 83.3086 66.9264 84.4704 67.7421 85.4082C68.343 86.0982 68.7191 86.1304 68.7191 86.1304L68.4301 84.5388C68.3227 84.5543 68.2169 84.5789 68.1136 84.6124C68.1234 84.4095 68.151 84.2078 68.1962 84.0098C68.5127 82.5286 69.3796 81.351 70.2602 80.1872C70.9847 79.2637 71.766 78.3864 72.5995 77.5606C73.1817 76.9389 73.8489 76.403 74.581 75.969L74.5993 75.9828Z" fill="#C0694F"/>
<path d="M87.002 81.2498C89.6853 81.3004 92.3594 81.4338 94.9509 82.2526C95.2143 82.3398 95.462 82.4687 95.6848 82.6344C95.5074 82.0506 95.2035 81.5134 94.7949 81.0612C92.474 78.0436 89.5247 75.9368 85.7911 75.0812C83.3772 74.587 80.8835 74.642 78.4935 75.2422C77.4799 75.4768 76.5258 75.8816 75.5305 76.1622C75.2002 76.2588 74.8379 76.3784 74.6131 75.969C73.881 76.403 73.2139 76.9389 72.6316 77.5606C71.7981 78.3864 71.0168 79.2637 70.2924 80.1872C69.4117 81.351 68.5448 82.5286 68.2283 84.0098C68.0875 84.5497 68.1163 85.12 68.3109 85.6428C68.4028 85.8537 68.565 86.0261 68.7696 86.1304C69.1426 86.3309 69.5344 86.4942 69.9392 86.618C69.9205 86.5805 69.9036 86.5422 69.8887 86.503C69.6135 85.7762 69.742 85.4864 70.5492 84.9344C71.8547 84.0977 73.2747 83.4562 74.7645 83.03C78.0968 81.9083 81.5796 81.3003 85.0939 81.2268C85.3508 81.2268 85.603 81.2682 85.8599 81.2866C85.9195 80.9646 86.1213 81.2176 86.2498 81.1946L87.0249 81.2498" fill="#D89D81"/>
<path d="M90.9237 88.1544C92.3549 86.9304 93.6862 85.5937 94.9051 84.157C95.0197 84.0098 95.1344 83.8672 95.2582 83.7246C95.483 83.467 95.8453 82.9702 95.6848 82.6344C95.4555 82.1744 94.6895 81.903 91.1806 81.3602C88.6955 81.04 86.1845 80.9722 83.6858 81.1578L90.9237 88.1544Z" fill="#747F8D"/>
<path d="M84.1398 89.7368C85.6507 90.0721 87.2242 89.9862 88.6899 89.4884C90.0246 89.0284 91.3869 88.1498 91.9282 86.526C93.1345 82.9104 88.8825 81.5994 85.603 81.2038C82.3235 80.8082 76.3194 82.248 72.971 83.582C69.6227 84.916 68.1916 86.2868 70.4712 86.802C72.2968 87.2022 80.8282 89.0284 84.1398 89.7368Z" fill="#E0E7EC"/>
<path d="M95.593 20.6218C96.2581 20.1937 96.824 19.6278 97.2528 18.9621C97.6816 18.2964 97.9634 17.5463 98.0791 16.7624L98.4827 14.0622C98.4926 13.9976 98.5255 13.9388 98.5752 13.8965C98.6249 13.8543 98.6882 13.8314 98.7533 13.8322C98.818 13.8316 98.8806 13.8546 98.9296 13.8969C98.9785 13.9392 99.0105 13.998 99.0194 14.0622L99.423 16.7624C99.5387 17.5463 99.8205 18.2964 100.249 18.9621C100.678 19.6278 101.244 20.1937 101.909 20.6218L102.258 20.8472C102.296 20.8723 102.327 20.9064 102.348 20.9465C102.37 20.9867 102.381 21.0316 102.381 21.0772C102.381 21.1222 102.37 21.1664 102.348 21.2058C102.327 21.2452 102.296 21.2785 102.258 21.3026L101.909 21.528C101.244 21.9575 100.679 22.5243 100.25 23.1907C99.8212 23.8571 99.5392 24.6076 99.423 25.392L99.0194 28.0922C99.0105 28.1564 98.9785 28.2151 98.9296 28.2575C98.8806 28.2998 98.818 28.3228 98.7533 28.3222C98.6882 28.3229 98.6249 28.3001 98.5752 28.2578C98.5255 28.2156 98.4926 28.1568 98.4827 28.0922L98.0791 25.392C97.9628 24.6076 97.6809 23.8571 97.2522 23.1907C96.8235 22.5243 96.2578 21.9575 95.593 21.528L95.2444 21.3026C95.2065 21.2785 95.1753 21.2452 95.1536 21.2058C95.132 21.1664 95.1206 21.1222 95.1206 21.0772C95.1207 21.0316 95.132 20.9867 95.1537 20.9465C95.1753 20.9064 95.2065 20.8723 95.2444 20.8472L95.593 20.6218Z" fill="#66BAFF"/>
<path d="M87.3184 63.9401C87.7871 63.6387 88.186 63.2401 88.4882 62.7711C88.7904 62.3022 88.989 61.7738 89.0706 61.2215L89.3549 59.3217C89.3625 59.277 89.3854 59.2363 89.4198 59.2069C89.4542 59.1775 89.4978 59.1611 89.543 59.1607C89.5885 59.1602 89.6326 59.1762 89.6671 59.2058C89.7017 59.2354 89.7244 59.2766 89.7311 59.3217L90.0154 61.2215C90.0979 61.7735 90.2968 62.3016 90.599 62.7704C90.9011 63.2392 91.2995 63.638 91.7676 63.9401L92.0107 64.1011C92.0379 64.1183 92.0605 64.142 92.0765 64.1701C92.0925 64.1982 92.1014 64.2297 92.1024 64.2621C92.1027 64.2946 92.0944 64.3267 92.0783 64.355C92.0621 64.3833 92.0388 64.4068 92.0107 64.4231L91.7676 64.5841C91.2995 64.8861 90.9011 65.2849 90.599 65.7537C90.2968 66.2225 90.0979 66.7506 90.0154 67.3027L89.7311 69.2025C89.7254 69.2484 89.7032 69.2906 89.6685 69.3212C89.6338 69.3517 89.5892 69.3684 89.543 69.3681C89.4971 69.3674 89.453 69.3504 89.4185 69.3201C89.384 69.2897 89.3615 69.248 89.3549 69.2025L89.0706 67.3027C88.989 66.7503 88.7904 66.2219 88.4882 65.753C88.186 65.284 87.7871 64.8855 87.3184 64.5841L87.0753 64.4231C87.0477 64.4065 87.025 64.3829 87.0097 64.3546C86.9944 64.3262 86.9869 64.2943 86.9882 64.2621C86.9883 64.2301 86.9963 64.1986 87.0115 64.1705C87.0267 64.1424 87.0486 64.1186 87.0753 64.1011L87.3184 63.9401Z" fill="#8FFFAB"/>
<path d="M61.628 38.1111C62.0762 37.8408 62.399 37.403 62.5255 36.8941C62.6519 36.3851 62.5716 35.8466 62.3022 35.3971L62.2701 35.3419C62.1187 35.1079 61.9199 34.9085 61.6866 34.7566C61.4534 34.6048 61.1908 34.5039 60.9161 34.4605C60.6414 34.4171 60.3606 34.4322 60.0921 34.5048C59.8235 34.5774 59.5733 34.7059 59.3575 34.8819C55.6284 37.8903 46.1751 47.0259 39.5334 58.4017C39.5334 58.3833 52.6608 44.2521 61.628 38.1111Z" fill="#83ED90"/>
<path d="M41.1618 61.2812C41.0334 61.3364 54.0507 53.6268 64.6003 49.8502C64.8555 49.759 65.1283 49.7279 65.3975 49.7593C65.6666 49.7908 65.9249 49.884 66.1524 50.0316C66.3799 50.1793 66.5705 50.3775 66.7094 50.6108C66.8482 50.8442 66.9317 51.1065 66.9533 51.3774C66.9896 51.594 66.9817 51.8157 66.9301 52.0292C66.8785 52.2427 66.7842 52.4434 66.653 52.6193C66.5218 52.7952 66.3564 52.9426 66.1667 53.0525C65.9771 53.1624 65.7672 53.2326 65.5497 53.2588C57.2062 55.227 49.0468 57.911 41.1618 61.2812Z" fill="#83ED90"/>
<path d="M56.7797 68.7561C56.9868 68.8363 57.2086 68.871 57.4302 68.8577C57.6518 68.8445 57.8679 68.7837 58.064 68.6795C58.2601 68.5753 58.4317 68.43 58.567 68.2536C58.7023 68.0771 58.7983 67.8736 58.8484 67.6567C58.8905 67.4558 58.8923 67.2484 58.8539 67.0467C58.8154 66.8451 58.7374 66.653 58.6243 66.4818C58.5112 66.3107 58.3653 66.1637 58.1951 66.0495C58.0249 65.9354 57.8338 65.8562 57.6329 65.8167C52.4852 64.8667 47.2705 64.3268 42.0378 64.2021C42.0378 64.2021 47.6429 65.6327 56.7797 68.7561Z" fill="#83ED90"/>
<defs>
<linearGradient id="paint0_linear_220_22820" x1="27.1901" y1="51.8672" x2="27.6307" y2="48.7607" gradientUnits="userSpaceOnUse">
<stop stop-color="#718CF6"/>
<stop offset="1" stop-color="#4C70E0"/>
</linearGradient>
<linearGradient id="paint1_linear_220_22820" x1="30.0021" y1="19.32" x2="32.2855" y2="45.3273" gradientUnits="userSpaceOnUse">
<stop offset="0.67" stop-color="#718CF6"/>
<stop offset="0.78" stop-color="#6986F1"/>
<stop offset="0.96" stop-color="#5275E4"/>
<stop offset="1" stop-color="#4C70E0"/>
</linearGradient>
<linearGradient id="paint2_linear_220_22820" x1="27.9151" y1="69.9431" x2="29.5848" y2="60.4963" gradientUnits="userSpaceOnUse">
<stop offset="0.2" stop-color="#FF78B9"/>
<stop offset="0.45" stop-color="#F973B5"/>
<stop offset="0.79" stop-color="#E964AA"/>
<stop offset="1" stop-color="#DB58A0"/>
</linearGradient>
<linearGradient id="paint3_linear_220_22820" x1="31.5055" y1="44.9468" x2="26.5107" y2="53.5776" gradientUnits="userSpaceOnUse">
<stop stop-color="#7393F9"/>
<stop offset="1" stop-color="#4C70E0"/>
</linearGradient>
</defs>
</svg>
