<svg xmlns="http://www.w3.org/2000/svg" width="272" height="222" viewBox="0 0 272 222" xmlns:xlink="http://www.w3.org/1999/xlink">
  <defs>
    <polygon id="a" points="271.217 .399 271.217 187 0 187 0 .399 271.217 .399"/>
  </defs>
  <g fill="none" fill-rule="evenodd" transform="translate(0 9)">
    <g transform="translate(0 16.577)">
      <mask id="b" fill="white">
        <use xlink:href="#a"/>
      </mask>
      <path fill="#F7F7F8" d="M240.9134,34.3993 L240.9134,34.3993 C240.9134,53.1773 225.6914,68.3993 206.9134,68.3993 L189.1084,68.3993 C177.9254,68.3993 168.8594,77.4643 168.8594,88.6483 C168.8594,99.8303 177.9254,108.8963 189.1084,108.8963 L232.1654,108.8963 C253.7324,108.8963 271.2174,126.3803 271.2174,147.9483 C271.2174,169.5163 253.7324,187.0003 232.1654,187.0003 L26.9444,187.0003 C12.0634,187.0003 0.0004,174.9363 0.0004,160.0553 C0.0004,145.1733 12.0634,133.1103 26.9444,133.1103 L40.0064,133.1103 C62.8324,133.1103 81.3354,114.6063 81.3354,91.7803 L81.3354,41.7293 C81.3354,18.9033 99.8394,0.3993 122.6654,0.3993 L206.9134,0.3993 C225.6914,0.3993 240.9134,15.6213 240.9134,34.3993" mask="url(#b)"/>
    </g>
    <path fill="#FBB848" d="M27.9027,177.2141 L130.4647,3.8641 C132.7877,-0.0629 138.4687,-0.0629 140.7917,3.8641 L243.3527,177.2141 C245.7187,181.2141 242.8367,186.2691 238.1887,186.2691 L33.0667,186.2691 C28.4197,186.2691 25.5367,181.2141 27.9027,177.2141"/>
    <path fill="#7D8187" d="M55.5638 131.5085C55.3908 131.5085 55.2148 131.4635 55.0548 131.3695 54.5808 131.0885 54.4218 130.4745 54.7038 129.9995L129.5838 3.4355C130.8568 1.2845 133.1088.0005 135.6088.0005 138.1078.0005 140.3598 1.2845 141.6328 3.4355L195.9658 95.2705C196.2478 95.7455 196.0888 96.3595 195.6148 96.6405 195.1398 96.9215 194.5258 96.7635 194.2448 96.2885L139.9118 4.4545C138.9688 2.8615 137.2768 1.9345 135.4138 2.0045 133.6428 2.0705 132.0698 3.1615 131.1678 4.6855L56.4248 131.0175C56.2388 131.3335 55.9058 131.5085 55.5638 131.5085M238.1693 187.3508L33.0473 187.3508C30.5013 187.3508 28.2283 186.0308 26.9673 183.8188 25.7053 181.6068 25.7263 178.9778 27.0233 176.7868L49.3333 139.0768C49.6143 138.6028 50.2293 138.4448 50.7033 138.7258 51.1783 139.0068 51.3363 139.6198 51.0553 140.0958L28.7443 177.8048C27.8173 179.3708 27.8033 181.2478 28.7043 182.8278 29.6053 184.4078 31.2293 185.3508 33.0473 185.3508L238.1693 185.3508C239.9873 185.3508 241.6113 184.4078 242.5123 182.8278 243.4133 181.2478 243.3983 179.3708 242.4723 177.8048L202.8203 110.7858C202.5393 110.3098 202.6973 109.6968 203.1723 109.4148 203.6483 109.1348 204.2613 109.2928 204.5423 109.7668L244.1933 176.7868C245.4903 178.9778 245.5113 181.6068 244.2493 183.8188 242.9883 186.0308 240.7153 187.3508 238.1693 187.3508M200.223 105.4284C199.881 105.4284 199.548 105.2534 199.362 104.9374L198.17 102.9254C197.889 102.4494 198.047 101.8364 198.522 101.5544 198.998 101.2754 199.611 101.4314 199.892 101.9064L201.083 103.9194C201.365 104.3944 201.206 105.0084 200.732 105.2894 200.572 105.3834 200.396 105.4284 200.223 105.4284"/>
    <path fill="#FFFFFF" d="M140.6224 128.8122L131.0674 128.8122C130.0444 128.8122 129.1844 128.0392 129.0784 127.0202L122.5754 65.0012C122.2034 61.4602 124.9804 58.3762 128.5424 58.3762L142.7134 58.3762C146.2584 58.3762 149.0294 61.4332 148.6854 64.9602L142.6124 127.0072C142.5124 128.0312 141.6514 128.8122 140.6224 128.8122M124.5736 150.4904L124.5736 149.7874C124.5736 143.6954 129.5116 138.7574 135.6036 138.7574L135.6066 138.7574C141.6976 138.7574 146.6356 143.6954 146.6356 149.7874L146.6356 150.4904C146.6356 156.5814 141.6976 161.5204 135.6066 161.5204L135.6036 161.5204C129.5116 161.5204 124.5736 156.5814 124.5736 150.4904"/>
    <path fill="#7D8187" d="M239.6879 91.3225L239.6879 91.3225C238.8539 91.3225 238.1779 90.6465 238.1779 89.8125 238.1779 89.2595 237.7299 88.8125 237.1779 88.8125 236.6249 88.8125 236.1779 89.2595 236.1779 89.8125 236.1779 90.6465 235.5009 91.3225 234.6679 91.3225 234.1159 91.3225 233.6679 91.7695 233.6679 92.3225 233.6679 92.8755 234.1159 93.3225 234.6679 93.3225 235.5009 93.3225 236.1779 93.9985 236.1779 94.8325 236.1779 95.3845 236.6249 95.8325 237.1779 95.8325 237.7299 95.8325 238.1779 95.3845 238.1779 94.8325 238.1779 93.9985 238.8539 93.3225 239.6879 93.3225 240.2409 93.3225 240.6879 92.8755 240.6879 92.3225 240.6879 91.7695 240.2409 91.3225 239.6879 91.3225M33.5209 102.8801L33.5199 102.8801C32.6869 102.8801 32.0099 102.2041 32.0099 101.3701 32.0099 100.8171 31.5629 100.3701 31.0099 100.3701 30.4579 100.3701 30.0099 100.8171 30.0099 101.3701 30.0099 102.2041 29.3339 102.8801 28.4999 102.8801 27.9489 102.8801 27.4999 103.3271 27.4999 103.8801 27.4999 104.4331 27.9489 104.8801 28.4999 104.8801 29.3339 104.8801 30.0099 105.5561 30.0099 106.3901 30.0099 106.9421 30.4579 107.3901 31.0099 107.3901 31.5629 107.3901 32.0099 106.9421 32.0099 106.3901 32.0099 105.5561 32.6869 104.8801 33.5199 104.8801L33.5209 104.8801C34.0729 104.8801 34.5209 104.4331 34.5209 103.8801 34.5209 103.3271 34.0729 102.8801 33.5209 102.8801M56.931 73.3127C57.187 73.3127 57.443 73.2147 57.638 73.0197L58.822 71.8367C59.212 71.4477 59.212 70.8137 58.822 70.4227 58.431 70.0327 57.798 70.0327 57.408 70.4227L56.224 71.6057C55.833 71.9957 55.833 72.6287 56.223 73.0197 56.418 73.2147 56.675 73.3127 56.931 73.3127M51.015 79.2297C51.271 79.2297 51.527 79.1317 51.722 78.9367L52.905 77.7527C53.295 77.3627 53.295 76.7297 52.905 76.3387 52.514 75.9487 51.88 75.9487 51.491 76.3387L50.308 77.5227C49.917 77.9137 49.917 78.5457 50.308 78.9367 50.503 79.1317 50.759 79.2297 51.015 79.2297M57.638 76.3391C57.247 75.9481 56.615 75.9481 56.224 76.3391 55.833 76.7301 55.833 77.3621 56.224 77.7531L57.408 78.9371C57.603 79.1321 57.859 79.2301 58.115 79.2301 58.37 79.2301 58.626 79.1321 58.822 78.9371 59.212 78.5461 59.212 77.9131 58.822 77.5231L57.638 76.3391zM51.4906 73.0197C51.6856 73.2147 51.9416 73.3127 52.1976 73.3127 52.4536 73.3127 52.7106 73.2147 52.9046 73.0197 53.2956 72.6287 53.2956 71.9967 52.9046 71.6057L51.7216 70.4227C51.3316 70.0327 50.6976 70.0327 50.3076 70.4227 49.9176 70.8137 49.9176 71.4467 50.3076 71.8367L51.4906 73.0197zM216.5638 64.2443C217.3958 64.2443 218.0738 64.9223 218.0738 65.7543 218.0738 66.5873 217.3958 67.2653 216.5638 67.2653 215.7308 67.2653 215.0528 66.5873 215.0528 65.7543 215.0528 64.9223 215.7308 64.2443 216.5638 64.2443M216.5638 69.2653C218.4988 69.2653 220.0738 67.6893 220.0738 65.7543 220.0738 63.8183 218.4988 62.2443 216.5638 62.2443 214.6278 62.2443 213.0528 63.8183 213.0528 65.7543 213.0528 67.6893 214.6278 69.2653 216.5638 69.2653"/>
  </g>
</svg>
