<svg width="68" height="86" viewBox="0 0 68 86" fill="none" xmlns="http://www.w3.org/2000/svg">
<g clip-path="url(#clip0_1716_218598)">
<path d="M20.2784 48.3075C19.2069 48.735 17.8431 49.0675 16.8203 48.7825C15.7974 48.4975 14.1414 47.405 15.0181 45.2675C15.4226 44.4171 16.0429 43.6814 16.8203 43.13L20.2784 48.3075Z" fill="#FF78B8"/>
<path d="M-44.9276 60.04L67.9263 58.1875C67.9263 58.1875 66.9521 62.9375 58.331 64.885C53.022 66.31 51.2198 67.0225 49.5638 68.6375C47.9077 70.2525 46.2517 72.58 43.5241 72.2C40.7965 71.82 37.8254 70.965 37.0948 73.2925C35.4388 78.47 33.9776 82.4125 32.3215 82.4125C29.7401 82.4125 28.3763 77.6625 27.3534 75.62C26.3306 73.5775 23.7004 73.4825 21.5086 74.3375C19.3168 75.1925 17.6607 74.005 15.4689 72.01C13.2771 70.015 10.8905 68.97 9.03963 75.43C7.18877 81.89 5.38661 85.595 3.73058 85.595C2.07454 85.595 0.808167 82.4125 -0.312096 78.66C-1.43235 74.9075 -3.23451 73.2925 -5.08537 75.24C-6.93623 77.1875 -8.20261 76.3325 -9.27417 74.5275C-10.3457 72.7225 -13.8526 67.925 -17.1647 72.9125C-20.4768 77.9 -21.3535 78.8025 -24.4707 76.855C-27.588 74.9075 -30.9 71.4875 -34.2121 77.7575C-37.5242 84.0275 -40.6414 92.5775 -44.9276 94.43V60.04Z" fill="url(#paint0_linear_1716_218598)"/>
<path d="M-44.9276 52.25C-30.9974 52.345 18.4401 52.7725 44.1573 52.7725C54.4345 52.7725 65.978 53.865 67.634 56.715C69.2901 59.565 65.4422 61.94 53.7039 62.795C44.6444 63.46 36.9974 66.1675 29.1556 66.5C18.0504 66.975 14.8358 64.125 -12.6349 67.545C-28.1237 69.4925 -39.2289 69.8725 -44.9276 69.8725V52.25Z" fill="#8089FF"/>
<path d="M39.5663 41.1825C41.4172 43.0825 44.0961 43.3675 45.2163 45.315C46.3366 47.2625 44.5831 47.69 43.3168 47.9275C41.2244 48.2622 39.1045 48.4054 36.9849 48.355L33.5267 45.125V39.52C33.5267 39.52 35.4262 38.7125 36.4491 38.9025C37.4719 39.0925 37.8616 39.3775 39.5663 41.1825Z" fill="#FF78B8"/>
<path d="M41.5146 46.7874L42.2939 46.2174C43.4142 46.2174 44.2909 46.2649 44.1448 46.5974C43.9987 46.9299 42.5862 47.2149 41.9043 47.2149L41.5146 46.7874Z" fill="black"/>
<path d="M38.4461 59.3274C39.4202 59.8499 40.6379 60.3249 41.1249 60.6574C41.612 60.9899 41.7581 61.6074 41.4659 61.9399C41.1737 62.2724 39.4202 62.3199 36.7413 61.4174C35.3775 60.8474 35.0366 60.0399 34.8418 58.4249C34.6469 56.8099 34.4521 54.9099 34.4521 54.9099L37.2284 55.1474C37.2284 55.1474 37.4232 57.6174 37.5206 58.1399C37.5657 58.3958 37.6733 58.6374 37.8344 58.8441C37.9955 59.0508 38.2053 59.2166 38.4461 59.3274Z" fill="black"/>
<path d="M19.2555 59.3275C18.3788 59.945 17.2586 60.6575 16.8689 61.0375C16.4792 61.4175 16.4305 62.0825 16.7228 62.3675C17.015 62.6525 18.5249 62.7 21.009 61.37C22.2754 60.515 22.8598 59.945 23.3469 58.3775C23.6276 57.3354 23.807 56.2699 23.8827 55.195L20.6193 55.0525C20.5557 56.0571 20.4255 57.0567 20.2297 58.045C20.0628 58.5675 19.7195 59.0196 19.2555 59.3275Z" fill="black"/>
<path d="M16.4305 53.3425C16.8689 51.585 17.6969 49.5425 19.4991 45.8375C19.4991 45.8375 38.3973 40.185 39.128 41.895C41.0275 46.4075 42.0017 51.8225 42.3426 53.675C42.6835 55.5275 42.0991 56.2875 40.8814 56.525C38.4461 56.9525 36.4004 55.575 34.8905 55.7175C32.5038 55.955 31.2374 56.5725 29.484 56.7625C26.6103 57.1425 25.2465 55.955 23.2008 55.955C20.2784 55.955 19.4991 57 17.4047 56.43C16.528 56.1925 16.0896 54.625 16.4305 53.3425Z" fill="#FF78B8"/>
<path d="M23.834 26.1725C22.9573 25.46 21.8857 24.32 20.9603 24.795C20.0349 25.27 19.84 26.315 20.5219 26.505C21.2038 26.695 23.1034 26.9325 23.1034 26.9325L23.834 26.1725Z" fill="#5765F1"/>
<path d="M24.0776 25.2225C24.7594 24.0825 25.6849 22.1825 26.4155 21.3275C28.2663 19.1425 29.9711 18.8575 31.7732 19.475C34.6469 20.425 36.303 25.27 32.5038 28.1675C28.7047 31.065 23.4931 32.3475 21.5448 31.6825C21.252 31.5793 20.9864 31.4138 20.7675 31.198C20.5485 30.9822 20.3817 30.7214 20.279 30.4348C20.1764 30.1482 20.1406 29.8428 20.1742 29.541C20.2078 29.2392 20.3099 28.9484 20.4732 28.69C21.2526 27.5025 23.006 26.8375 24.0776 25.2225Z" fill="#5765F1"/>
<path d="M38.3487 34.3899C38.3487 38.9499 34.9392 40.1374 30.2633 40.4224C25.5875 40.7074 21.2038 38.5699 22.1293 33.9149C23.0547 29.2599 26.0258 26.2674 30.0685 25.9824C34.1112 25.6974 38.3487 29.8774 38.3487 34.3899Z" fill="#FFC518"/>
<path d="M37.2284 30.97C39.2741 27.7875 39.7612 25.4125 38.4461 24.51C37.131 23.6075 34.3547 24.9375 32.6012 27.455L37.2284 30.97Z" fill="#FFC518"/>
<path d="M29.1235 27.3886C28.5808 26.1884 29.0586 24.8208 30.1907 24.3338C31.3229 23.8468 32.6807 24.4249 33.2235 25.6251C33.7663 26.8252 33.2885 28.1929 32.1563 28.6798C31.0241 29.1668 29.6663 28.5887 29.1235 27.3886Z" fill="white"/>
<path d="M30.8403 26.1378C30.5581 25.5137 30.7882 24.8104 31.3543 24.5669C31.9204 24.3234 32.6081 24.6319 32.8903 25.256C33.1726 25.8801 32.9425 26.5834 32.3764 26.8269C31.8103 27.0703 31.1226 26.7618 30.8403 26.1378Z" fill="black"/>
<path d="M25.3478 28.4771C24.805 27.2769 25.2828 25.9093 26.415 25.4223C27.5471 24.9353 28.9049 25.5134 29.4477 26.7136C29.9905 27.9137 29.5127 29.2814 28.3805 29.7683C27.2483 30.2553 25.8905 29.6772 25.3478 28.4771Z" fill="white"/>
<path d="M27.0842 27.2697C26.802 26.6456 27.0321 25.9424 27.5982 25.6989C28.1643 25.4554 28.852 25.7639 29.1342 26.388C29.4165 27.012 29.1864 27.7153 28.6203 27.9588C28.0542 28.2023 27.3665 27.8938 27.0842 27.2697Z" fill="black"/>
<path d="M31.7732 32.6799C31.8219 33.5349 32.9909 33.9149 33.7215 33.3924C34.4521 32.8699 34.5008 32.0624 34.7931 31.1599C34.9926 30.6573 35.2203 30.1658 35.475 29.6874C35.5724 29.4974 35.4262 29.4024 35.2801 29.5449C34.6909 30.1142 34.0179 30.5945 33.2831 30.9699C32.0655 31.6824 31.7732 32.0624 31.7732 32.6799Z" fill="black"/>
<path d="M15.0181 37.43C15.2129 38.095 19.353 49.685 19.4991 50.16C19.6452 50.635 19.8888 50.8725 20.4732 50.635L22.4215 49.8275C22.7625 49.685 22.9573 49.875 23.2495 50.255L25.49 52.915L25.8797 53.105C26.0167 53.1154 26.1535 53.082 26.2694 53.01L29.5327 49.97C29.9224 49.59 30.0685 49.7325 30.4094 49.875L34.0138 51.49C34.306 51.68 34.5982 51.3 34.5982 50.825C34.5982 47.69 34.2086 38.9975 34.1599 37.9525C34.1112 36.9075 34.1112 37.2875 33.7702 37.1925L29.3379 35.5775C28.5099 35.2925 28.3638 35.435 27.7793 35.8625L24.3211 37.905C24.1959 38.0068 24.0441 38.0726 23.8827 38.095C23.7326 38.083 23.593 38.0149 23.4931 37.905L21.5935 36.29C21.4253 36.119 21.2197 35.9875 20.9919 35.9052C20.7641 35.823 20.5202 35.7921 20.2784 35.815C20.2784 35.815 16.187 36.1475 15.6025 36.29C15.0181 36.4325 14.6771 36.6225 15.0181 37.43Z" fill="#91FFAC"/>
<path d="M15.0181 37.4299C15.2129 38.0949 19.353 49.6849 19.4991 50.1599C19.6452 50.6349 19.8887 50.8724 20.4732 50.6349L22.4215 49.8274C22.7625 49.6849 22.9573 49.8749 23.2495 50.2549L25.49 52.9149L25.8797 53.1049L23.8827 38.0949C23.7326 38.0829 23.593 38.0149 23.4931 37.9049L21.5935 36.2899C21.4253 36.119 21.2196 35.9875 20.9919 35.9052C20.7641 35.8229 20.5202 35.7921 20.2784 35.8149C20.2784 35.8149 16.187 36.1474 15.6025 36.2899C15.018 36.4324 14.6771 36.6224 15.0181 37.4299Z" fill="#59F186"/>
<path d="M15.9922 44.1275C15.9922 44.1275 15.9435 45.6475 16.4792 46.36C17.015 47.0725 17.4534 47.4525 18.4275 47.12C18.9248 46.9994 19.3825 46.7573 19.7574 46.4166C20.1323 46.0759 20.4122 45.6477 20.5706 45.1725C20.6566 44.6968 20.6231 44.2078 20.4732 43.7475C20.3854 43.431 20.2543 43.1274 20.0836 42.845C19.896 42.5174 19.6669 42.2142 19.4017 41.9425C19.012 41.6575 17.4534 42.1325 17.4534 42.1325L18.184 40.7075C18.5249 40.1375 17.7456 39.3775 17.015 39.4725C16.2844 39.5675 15.359 40.7075 15.1642 41.325C14.9693 41.9425 15.9922 44.1275 15.9922 44.1275Z" fill="#FFC518"/>
<path d="M30.9939 44.27C30.9858 44.5874 31.0021 44.9049 31.0426 45.22C31.0913 45.3625 31.0913 45.5525 31.14 45.6475C31.3835 46.55 31.7732 46.835 33.1857 47.215C33.8189 47.405 35.5724 49.115 37.8129 49.4C39.3228 49.59 40.784 49.4475 41.612 48.64C41.9079 48.3138 42.1232 47.9259 42.2414 47.5059C42.3596 47.086 42.3776 46.6452 42.2939 46.2175C40.906 46.2739 39.5231 46.4167 38.1538 46.645C37.1376 46.8499 36.0861 46.8173 35.0853 46.55C35.0853 46.55 36.2055 44.1275 35.9133 42.655C35.6211 41.1825 34.3547 41.04 33.9163 40.8025C33.478 40.565 32.5525 40.2325 32.1629 40.945C31.7732 41.6575 32.3577 42.0375 33.0396 42.7975C32.2116 42.7975 31.2861 42.9875 31.0913 43.415C31.0266 43.6956 30.9939 43.9823 30.9939 44.27Z" fill="#FFC518"/>
<path d="M30.9939 44.2699C30.9858 44.5873 31.0021 44.9049 31.0426 45.2199C31.6533 45.1136 32.2733 45.0659 32.8935 45.0774C32.9612 45.0911 33.031 45.0906 33.0985 45.0759C33.1659 45.0613 33.2294 45.0328 33.2847 44.9923C33.34 44.9519 33.3858 44.9005 33.4191 44.8414C33.4525 44.7824 33.4725 44.7171 33.478 44.6499C33.4847 44.5875 33.4787 44.5244 33.4602 44.4642C33.4418 44.4041 33.4113 44.3481 33.3706 44.2995C33.3298 44.2509 33.2796 44.2107 33.2228 44.1812C33.1659 44.1516 33.1037 44.1334 33.0396 44.1274C32.3542 44.0803 31.6655 44.1282 30.9939 44.2699Z" fill="#FF8B18"/>
<path d="M18.1353 44.4125C18.183 44.4839 18.2478 44.5429 18.3242 44.5843C18.4006 44.6257 18.4863 44.6483 18.5737 44.65H18.7685L20.4732 43.795C20.3854 43.4785 20.2544 43.1749 20.0836 42.8925L18.3301 43.8425C18.2353 43.901 18.1641 43.9897 18.1286 44.0936C18.0931 44.1975 18.0954 44.3101 18.1353 44.4125Z" fill="#FF8B18"/>
<path d="M56.8823 41.0875C57.1274 40.951 57.3351 40.7588 57.4877 40.5273C57.6404 40.2957 57.7334 40.0316 57.759 39.7575L57.9051 38.855C57.9051 38.8298 57.9154 38.8057 57.9337 38.7878C57.9519 38.77 57.9767 38.76 58.0026 38.76C58.0284 38.76 58.0532 38.77 58.0714 38.7878C58.0897 38.8057 58.1 38.8298 58.1 38.855L58.2461 39.7575C58.2825 40.0286 58.3801 40.2884 58.5316 40.5183C58.6832 40.7483 58.8851 40.9426 59.1228 41.0875L59.2689 41.1825V41.2775L59.1228 41.3725C58.8851 41.5174 58.6832 41.7118 58.5316 41.9417C58.3801 42.1717 58.2825 42.4315 58.2461 42.7025L58.1 43.605L58.0026 43.7L57.9051 43.605L57.759 42.7025C57.7334 42.4284 57.6404 42.1643 57.4877 41.9328C57.3351 41.7012 57.1274 41.509 56.8823 41.3725L56.7849 41.2775H56.7362C56.7362 41.23 56.7362 41.1825 56.7849 41.1825L56.8823 41.0875Z" fill="#8089FF"/>
<path d="M5.84871 45.885C6.08642 45.7401 6.2883 45.5457 6.43988 45.3158C6.59146 45.0858 6.68897 44.826 6.72543 44.555L6.87155 43.6525C6.87155 43.6273 6.88182 43.6031 6.90009 43.5853C6.91836 43.5675 6.94313 43.5575 6.96897 43.5575C6.9948 43.5575 7.01958 43.5675 7.03785 43.5853C7.05612 43.6031 7.06639 43.6273 7.06639 43.6525L7.2125 44.555C7.24896 44.826 7.34648 45.0858 7.49806 45.3158C7.64964 45.5457 7.85151 45.7401 8.08922 45.885L8.18664 45.98H8.23535C8.23535 46.0275 8.23535 46.075 8.18664 46.075L8.08922 46.17C7.85151 46.3149 7.64964 46.5093 7.49806 46.7392C7.34648 46.9691 7.24896 47.229 7.2125 47.5L7.06639 48.4025C7.06639 48.4277 7.05612 48.4519 7.03785 48.4697C7.01958 48.4875 6.9948 48.4975 6.96897 48.4975C6.94313 48.4975 6.91836 48.4875 6.90009 48.4697C6.88182 48.4519 6.87155 48.4277 6.87155 48.4025L6.72543 47.5C6.68897 47.229 6.59146 46.9691 6.43988 46.7392C6.2883 46.5093 6.08642 46.3149 5.84871 46.17L5.75129 46.075C5.70259 46.075 5.70258 46.0275 5.70258 45.98H5.75129L5.84871 45.885Z" fill="#8089FF"/>
</g>
<defs>
<linearGradient id="paint0_linear_1716_218598" x1="11.5091" y1="57.0475" x2="11.5091" y2="102.833" gradientUnits="userSpaceOnUse">
<stop stop-color="#5765F1"/>
<stop offset="1" stop-color="#3343D8"/>
</linearGradient>
<clipPath id="clip0_1716_218598">
<rect width="68" height="76" fill="white" transform="matrix(-1 0 0 1 68 19)"/>
</clipPath>
</defs>
</svg>
