<svg fill="none" height="80" viewBox="0 0 88 80" width="88" xmlns="http://www.w3.org/2000/svg"><rect fill="#e3e5e8" height="56" rx="8" width="56" x="16" y="12"/><path d="m61.4515 33.8499-5.2155-3.2802-1.8947-1.1963-3.7795-2.333-1.8848-1.2363-4.2282-2.6619-.2194-.0898c-.2002-.0699-.4182-.0699-.6183 0l-.1097.0499-4.2781 2.7018-1.8848 1.2363-3.7795 2.333-1.8947 1.1963-5.2155 3.2802c-.1368.0835-.2499.2006-.3284.3403-.0786.1396-.12.297-.1204.4572v21.4154c.0153.2539.127.4924.3124.6666.1854.1743.4304.2711.6848.2706h34.0056c.2544.0005.4994-.0963.6848-.2706.1854-.1742.2971-.4127.3124-.6666v-21.4154c-.0102-.1702-.0666-.3345-.1633-.475-.0966-.1406-.2298-.2521-.3852-.3225zm-33.5667 21.2658v-19.9399l3.7795-2.3828v22.3227zm5.6742 0v-23.5091l3.7795-2.3828v25.9218zm5.6643-27.0783 3.7795-2.3828v29.4611h-3.7795zm5.7241 27.0783v-29.4611l3.7296 2.3828v27.0783zm5.6642 0v-25.9218l3.7795 2.3828v23.539zm9.4538 0h-3.8294v-22.3227l3.7795 2.3828z" fill="#000"/><g fill="#5ae6dc"><path d="m83.0028 1.0838c0-.598567-.4852-1.0838-1.0838-1.0838s-1.0838.485233-1.0838 1.0838v1.10186c0 .59856.4852 1.0838 1.0838 1.0838s1.0838-.48524 1.0838-1.0838z"/><path d="m83.0028 9.81427c0-.59857-.4853-1.0838-1.0838-1.0838-.5986 0-1.0838.48523-1.0838 1.0838v1.10183c0 .5986.4852 1.0838 1.0838 1.0838.5985 0 1.0838-.4852 1.0838-1.0838z"/><path d="m86.9164 7.10534c.5985 0 1.0838-.48523 1.0838-1.0838 0-.59856-.4853-1.0838-1.0838-1.0838h-1.1019c-.5986 0-1.0838.48524-1.0838 1.0838 0 .59857.4852 1.0838 1.0838 1.0838z"/><path d="m78.1857 7.04528c.5986 0 1.0838-.48523 1.0838-1.0838 0-.59856-.4852-1.08379-1.0838-1.08379h-1.1018c-.5986 0-1.0838.48523-1.0838 1.08379 0 .59857.4852 1.0838 1.0838 1.0838z"/></g><path d="m8.36261 75.843 3.12339-1.0417c.1534-.0703.2834-.1832.3745-.3252.0911-.1421.1395-.3073.1395-.4761s-.0484-.334-.1395-.4761c-.0911-.142-.2211-.2549-.3745-.3252l-3.12339-1.0417c-.21336-.0964-.38423-.2673-.48054-.4808l-1.12123-3.1251c-.05266-.1603-.15458-.2999-.2912-.3989-.13662-.0989-.30098-.1522-.46965-.1522-.16866 0-.33301.0533-.46963.1522-.13662.099-.23854.2386-.2912.3989l-1.12123 3.1251c-.09631.2135-.26718.3844-.48054.4808l-3.123433 1.0417c-.153355.0703-.283314.1832-.374423.3252-.0911093.1421-.139534.3073-.139534.4761s.0484247.334.139534.4761c.091109.142.221068.2549.374423.3252l3.123433 1.0417c.11344.0344.21664.0963.30046.1802.08382.0838.14567.1871.18008.3006l1.12123 3.1251c.05266.1603.15458.2999.2912.3989.13662.0989.30097.1522.46963.1522.16867 0 .33303-.0533.46965-.1522.13662-.099.23854-.2386.2912-.3989l1.12123-3.1251c.03441-.1135.09627-.2168.18008-.3006.08382-.0839.18702-.1458.30046-.1802z" fill="#ffd01a"/></svg>