<svg fill="none" height="200" viewBox="0 0 301 200" width="301" xmlns="http://www.w3.org/2000/svg" xmlns:xlink="http://www.w3.org/1999/xlink"><linearGradient id="a" gradientUnits="userSpaceOnUse" x1="202.522" x2="202.638" y1="193.214" y2="176.557"><stop offset="0" stop-color="#8f473b"/><stop offset=".12" stop-color="#a65f47"/><stop offset=".26" stop-color="#b87250"/><stop offset=".42" stop-color="#c58057"/><stop offset=".62" stop-color="#cd885b"/><stop offset="1" stop-color="#cf8a5c"/></linearGradient><linearGradient id="b"><stop offset="0" stop-color="#eb459f"/><stop offset="1" stop-color="#ff78b9"/></linearGradient><linearGradient id="c" gradientUnits="userSpaceOnUse" x1="200.48" x2="206.855" xlink:href="#b" y1="195.142" y2="187.689"/><linearGradient id="d" gradientUnits="userSpaceOnUse" x1="193.657" x2="192.5" xlink:href="#b" y1="192.327" y2="186.453"/><linearGradient id="e" gradientUnits="userSpaceOnUse" x1="241.862" x2="252.385" y1="193.612" y2="190.594"><stop offset="0" stop-color="#7196ff"/><stop offset="1" stop-color="#4d7af7"/></linearGradient><path d="m5.77072 143.191h289.46128c2.91 0 5.268-2.359 5.268-5.27v-132.65151c0-2.91031-2.358-5.26956629-5.268-5.26956629h-289.46128c-2.90921 0-5.267607 2.35925629-5.267607 5.26956629v132.65151c0 2.911 2.358397 5.27 5.267607 5.27z" fill="#5865f2"/><path d="m221.614 152.831h-66.166c-1.49 0-2.698 1.208-2.698 2.699v41.706c0 1.491 1.208 2.699 2.698 2.699h66.166c1.49 0 2.698-1.208 2.698-2.699v-41.706c0-1.491-1.208-2.699-2.698-2.699z" fill="#eb459f"/><path d="m219.687 189.846c-3.34-.771-9.25-.128-20.685.643-19.529-2.056-19.529-2.57-24.154 9.511h46.895z" fill="#ff78b9"/><path d="m224.313 197.301v-1.543c-.771-3.47-1.671-5.141-4.626-5.912s-5.396 1.414-8.094 10.154h10.022c.715 0 1.401-.285 1.907-.791s.791-1.193.791-1.908z" fill="#fff7c9"/><path d="m158.146 200h12.077l9.25-15.166-8.865-5.398z" fill="#d48d5e"/><path d="m207.225 185.091c3.212-.257 3.083-.128 2.955 4.627l-9.893 4.113-6.809-.9-3.084-3.213c.642-5.398.257-5.784 2.827-5.27 2.569.515 6.423 1.157 14.004.643z" fill="#ff78b9"/><path d="m224.312 162.727c-1.541-2.056-2.184-4.755-3.854-8.354l-.771-1.542h-34.561c14.133 13.109 27.495 18.507 39.186 20.692z" fill="#cf8a5c"/><path d="m199.002 167.354c5.937 1.622 11.771 3.596 17.473 5.912l7.837 3.085v-8.354c-7.965-1.029-14.775-1.928-20.299-9.64l-4.368-5.526h-19.915c.643 5.141 7.067 11.31 19.272 14.523z" fill="#aa5f44"/><path d="m189.11 161.956c6.038 3.213 11.177 2.956 16.702 5.012 4.333 1.617 8.541 3.55 12.591 5.784 1.898.978 3.875 1.794 5.91 2.442v-5.527c-2.698-.514-5.91-1.156-10.407-2.442-10.921-3.47-14.261-8.611-18.244-13.623l-.642-.771h-13.748c.386 3.855 4.24 7.197 7.838 9.125z" fill="#8f473b"/><path d="m206.711 166.583c-.128 0-.257-.257-.257-.385 0-.129.257-.386.386-.257h3.597l1.413.514c-1.696.303-3.429.347-5.139.128z" fill="#6b2f34"/><path d="m224.312 169.925v-.257l-1.156-.257c-3.606.373-7.25-.066-10.664-1.286h-.257c4.369 2.314 8.223 4.37 12.077 6.041v-.771l-7.451-3.599c2.441.771 5.01 1.542 7.451 2.057v-.129l-6.038-1.542c2.015.205 4.048.118 6.038-.257z" fill="#6b2f34"/><path d="m200.544 162.856c-3.598.514-11.82-1.8-16.445-4.627l2.184 1.928c3.197 1.474 6.562 2.553 10.021 3.213 1.484.261 2.993.347 4.497.257.08-.06.144-.138.189-.227s.068-.187.068-.287c0-.129-.129-.129-.257-.257h.257c0-.1-.023-.198-.068-.288-.045-.089-.109-.167-.189-.226-7.709-2.828-11.82-5.913-14.133-9.383h-.771c3.084 4.756 8.223 7.455 14.647 9.897z" fill="#6b2f34"/><path d="m203.756 165.683c-.034 0-.067-.013-.091-.037s-.038-.057-.038-.091c-.775-.703-1.402-1.554-1.843-2.503-.442-.95-.689-1.978-.726-3.024l.77.643c.209 1.691 1.032 3.247 2.313 4.37.063.07.098.162.098.257s-.035.186-.098.257z" fill="#6b2f34"/><path d="m197.974 160.285.386.386h.514c.063-.071.098-.163.098-.257 0-.095-.035-.187-.098-.257l-.386-.386c-2.441-2.313-4.24-3.984-5.267-6.94h-.771c1.156 3.213 3.083 5.012 5.524 7.454z" fill="#6b2f34"/><path d="m208.895 186.762-.386-1.543c-.534-2.288-.49-4.673.129-6.94 1.285-4.756 2.441-6.298 4.111-10.154-5.233-1.724-10.048-4.526-14.132-8.225-5.011 8.482-6.553 14.137-6.039 28.404.053.746.309 1.463.739 2.074.43.612 1.018 1.094 1.702 1.396 3.598 1.671 7.195.514 13.105-2.827.365-.216.643-.553.784-.952.141-.4.136-.837-.013-1.233z" fill="url(#a)"/><path d="m196.433 180.207c1.541 2.699 3.083 3.342 3.982 2.056.395-.704.574-1.508.514-2.313z" fill="#c9106d"/><path d="m200.929 179.95-4.496.257c.311.493.655.965 1.027 1.414 1.092-.531 2.264-.879 3.469-1.029z" fill="#000"/><path d="m186.155 167.74c.039-.307.177-.593.395-.814.217-.221.5-.364.807-.408.306-.043.618.015.889.166.27.151.483.386.607.67 5.396 7.326 6.552 4.499 8.993 9.383 3.341-3.085 5.525-1.029 19.015-1.8 1.927-.128 1.67 1.928-.257 3.47-1.927 1.543-5.91 1.543-7.709.9-2.055 3.984-5.267 3.984-11.434-.643-9.508 1.671-9.893-1.542-7.966-4.498-3.983-2.442-3.597-5.141-3.34-6.426z" fill="#6b2f34"/><path d="m201.829 172.11c-.514.771-.514 1.671-.129 1.799.386.129 1.028-.128 1.542-.9.515-.771.772-1.542.386-1.799s-1.285.129-1.799.9z" fill="#000"/><path d="m195.79 171.081c-.128.9.257 1.542.771 1.542s.771-.642.771-1.542c0-.899 0-1.671-.514-1.671s-1.028.772-1.028 1.671z" fill="#000"/><path d="m209.409 159.128c.257 1.543 2.312 3.085 4.625 3.47 2.313.386 3.854-.514 3.597-2.056-.399-1.31-1.129-2.495-2.119-3.44-.99-.946-2.207-1.62-3.534-1.958-2.184-.386-2.826 2.442-2.569 3.984z" fill="#edb997"/><path d="m222.899 160.285c-1.208-.609-2.157-1.632-2.676-2.882-.519-1.249-.572-2.644-.151-3.93 1.157 2.185 2.185 5.398 2.827 6.812z" fill="#edb997"/><path d="m197.718 193.959c.442-1.599 1.045-3.149 1.798-4.627.257-.385 1.028-.385 2.441-.771 2.529-.462 4.989-1.239 7.324-2.313l.77 1.156v6.941l-3.597 5.012-18.629-.642 2.441-8.997 1.542-4.627c1.413 1.542 3.597 2.827 4.111 3.47s.128.514.385 2.313c.134 1.51.349 3.012.643 4.499h.257z" fill="#ff78b9"/><path d="m195.276 200 .772-3.213c.128-.129 0-.386-.257-.386-.258 0-.386 0-.386.257-.364 1.086-.623 2.206-.771 3.342z" fill="#000"/><path d="m198.36 197.301c0-.103-.041-.201-.113-.273s-.17-.113-.273-.113l-.385.386.257 2.699h.771z" fill="#000"/><path d="m199.744 195.108c.054-1.916-1.053-3.501-2.471-3.541-1.419-.039-2.612 1.481-2.666 3.397-.053 1.916 1.053 3.501 2.472 3.541 1.418.04 2.612-1.481 2.665-3.397z" fill="#fff"/><path d="m199.102 195.089c.039-1.419-.791-2.593-1.855-2.623s-1.958 1.097-1.998 2.516.791 2.593 1.855 2.623 1.958-1.096 1.998-2.516z" fill="#8cd9ff"/><path d="m210.18 186.762c-.082-.159-.217-.284-.381-.354s-.347-.082-.518-.032c-2.335 1.075-4.795 1.852-7.324 2.314-1.413.385-2.184.385-2.441.771l-.257.257c.514-.9.9.257 1.285 1.671.543 2.059 1.23 4.077 2.056 6.04.642 1.157.771 1.286 2.698-.771 1.767-2.167 3.397-4.442 4.882-6.812v-2.956z" fill="url(#c)"/><path d="m191.036 195.116c.386 1.927.386 2.185 1.414.257 1.008-1.876 1.908-3.807 2.698-5.784.385-.9.771-1.157.899-.9-.514-.642-2.569-1.799-3.983-3.341h-.514c-.14.028-.271.089-.383.179-.112.089-.201.204-.259.335l-.514 3.984c.257 1.799.514 4.241.642 5.27z" fill="url(#d)"/><path d="m175.105 186.762c-6.167 0-7.58-1.286-8.865-3.856-1.284-2.571-1.027-4.37 1.799-8.483 2.827-4.113 4.882-5.655 7.066-5.527 2.185.129 2.313.772 2.698 1.928.356-.191.753-.291 1.157-.291.403 0 .801.1 1.156.291.356.234.64.562.822.948.181.386.252.814.206 1.237 1.537 1.879 2.954 3.853 4.24 5.912.771 1.414 1.67 2.314-1.157 5.527-2.826 3.213-3.982 2.314-9.122 2.314z" fill="#d48d5e"/><path d="m182.814 180.464c2.342 0 4.24-1.899 4.24-4.242 0-2.342-1.898-4.241-4.24-4.241s-4.24 1.899-4.24 4.241c0 2.343 1.898 4.242 4.24 4.242z" fill="#ffe75c"/><path d="m186.283 181.235c1.064 0 1.927-.863 1.927-1.928 0-1.064-.863-1.928-1.927-1.928-1.065 0-1.928.864-1.928 1.928 0 1.065.863 1.928 1.928 1.928z" fill="#ffe75c"/><path d="m179.217 171.082c1.413-2.057 3.34-2.7 4.882-1.157 1.542 1.542 2.184 3.213 1.028 4.113-1.156.899-2.827-1.671-2.827-1.671l-1.798 2.442z" fill="#d48d5e"/><path d="m181.786 174.552c.781 0 1.414-.633 1.414-1.414s-.633-1.414-1.414-1.414c-.78 0-1.413.633-1.413 1.414s.633 1.414 1.413 1.414z" fill="#ffe75c"/><path d="m179.216 182.006c1.845 0 3.341-1.496 3.341-3.342 0-1.845-1.496-3.341-3.341-3.341-1.844 0-3.34 1.496-3.34 3.341 0 1.846 1.496 3.342 3.34 3.342z" fill="#ffe75c"/><path d="m174.206 181.363c2.058 0 3.726-1.668 3.726-3.727 0-2.058-1.668-3.727-3.726-3.727s-3.726 1.669-3.726 3.727c0 2.059 1.668 3.727 3.726 3.727z" fill="#ffe75c"/><path d="m173.05 176.094c.922 0 1.67-.748 1.67-1.671s-.748-1.671-1.67-1.671c-.923 0-1.671.748-1.671 1.671s.748 1.671 1.671 1.671z" fill="#ffe75c"/><path d="m180.116 170.824c-.355-.191-.753-.291-1.156-.291-.404 0-.801.1-1.157.291-.385-1.157-.899-1.799-2.698-1.928-1.005-.099-2.011.176-2.826.771l1.927 3.856c-.771.643-1.67 1.671-.899 2.956.77 1.285 2.826.771 3.597 0 3.854 1.928 4.111-1.671 4.24-3.47.046-.424-.025-.852-.207-1.237-.181-.386-.465-.714-.821-.948z" fill="#d48d5e"/><path d="m184.741 183.806c2.313-2.956 2.441-4.242-.899-5.913-3.341-1.67-4.111 0-4.24.772-.128.771.257 1.542 1.927 2.57-3.854 0-6.809 1.799-7.323 5.527h.899c5.14 0 6.553.642 9.122-2.314z" fill="#d48d5e"/><path d="m189.366 193.702c1.845 0 3.341-1.496 3.341-3.341 0-1.846-1.496-3.342-3.341-3.342s-3.34 1.496-3.34 3.342c0 1.845 1.495 3.341 3.34 3.341z" fill="#ffe75c"/><path d="m193.093 183.291c.639 0 1.156-.518 1.156-1.156 0-.639-.517-1.157-1.156-1.157s-1.157.518-1.157 1.157c0 .638.518 1.156 1.157 1.156z" fill="#ffe75c"/><path d="m176.647 191.003c1.845 0 3.341-1.496 3.341-3.342 0-1.845-1.496-3.341-3.341-3.341s-3.34 1.496-3.34 3.341c0 1.846 1.495 3.342 3.34 3.342z" fill="#ffe75c"/><path d="m171.508 193.702c1.845 0 3.34-1.496 3.34-3.341 0-1.846-1.495-3.342-3.34-3.342s-3.341 1.496-3.341 3.342c0 1.845 1.496 3.341 3.341 3.341z" fill="#ffe75c"/><path d="m166.883 188.818h26.595l-1.67 11.182h-23.255z" fill="#3442d8"/><path d="m186.797 191.132c1.845 0 3.34-1.497 3.34-3.342 0-1.846-1.495-3.342-3.34-3.342s-3.34 1.496-3.34 3.342c0 1.845 1.495 3.342 3.34 3.342z" fill="#ffe75c"/><path d="m180.887 192.674c1.845 0 3.34-1.497 3.34-3.342 0-1.846-1.495-3.342-3.34-3.342s-3.341 1.496-3.341 3.342c0 1.845 1.496 3.342 3.341 3.342z" fill="#ffe75c"/><path d="m169.581 188.818h21.327l-1.413 11.182h-18.63z" fill="#66bcff"/><path d="m173.178 188.818h14.133l-.899 11.182h-12.334z" fill="#3442d8"/><path d="m177.803 188.818h4.754l-.257 11.182h-4.24z" fill="#66bcff"/><path d="m166.754 188.561h26.981c.136 0 .267.054.363.15.096.097.151.228.151.364.02.077.021.158.005.236-.017.078-.052.152-.102.214s-.113.112-.186.146c-.072.033-.152.049-.231.047h-26.981c-.17 0-.334-.068-.454-.189-.12-.12-.188-.284-.188-.454.03-.147.111-.279.228-.373s.264-.144.414-.141z" fill="#fff"/><path d="m178.703 170.567-.899.257c1.028 3.213.257 4.627-1.157 5.784h.257l.9.385c1.542-1.671 1.799-3.599.899-6.426z" fill="#8f473b"/><path d="m174.077 183.42c-.257 0-.385 0-.385-.257-.068-.017-.127-.061-.163-.121s-.047-.132-.03-.2c.017-.069.061-.127.121-.163.06-.037.132-.047.2-.03 2.43-1.462 5.285-2.051 8.094-1.671.257.128.514.257.386.514-.129.257-.257.514-.386.386-2.668-.341-5.376.2-7.708 1.542z" fill="#8f473b"/><path d="m180.501 180.464 2.313 1.928.899-1.8z" fill="#d48d5e"/><path d="m3.32953 200h65.90937c1.561 0 2.8265-1.266 2.8265-2.828v-41.449c0-1.562-1.2655-2.828-2.8265-2.828h-65.90937c-1.56104 0-2.826539 1.266-2.826539 2.828v41.449c0 1.562 1.265499 2.828 2.826539 2.828z" fill="#66bcff"/><path d="m16.6918 157.458c.5679 0 1.0282-.461 1.0282-1.029 0-.567-.4603-1.028-1.0282-1.028s-1.0282.461-1.0282 1.028c0 .568.4603 1.029 1.0282 1.029z" fill="#66bcff"/><path d="m13.7367 160.799c.5679 0 1.0282-.46 1.0282-1.028s-.4603-1.028-1.0282-1.028-1.0282.46-1.0282 1.028.4603 1.028 1.0282 1.028z" fill="#66bcff"/><path d="m62.815 190.232c-.5155-.535-.8714-1.202-1.0278-1.928-1.4132-10.411-5.3961-11.439-13.3617-10.282-2.2621.235-4.54.278-6.8094.128l-14.1326-1.285c-3.1324-.271-6.2069-1.007-9.122-2.185-6.2954-2.571-12.84778-2.571-15.28887 8.611-.03848.337-.15049.661-.3281.95s-.41648.535-.69971.721l-1.541759 1.157v11.053c-.0174.365.039525.73.167302 1.072.127777.343.32376.656.576047.92.2523.265.55564.475.89164.619.33601.143.69768.217 1.06306.217h62.69739c1.6702-4.499-.7708-7.584-3.0835-9.768z" fill="#d11583"/><path d="m17.3338 191.26c1.4572-.016 2.8712.495 3.981 1.44s1.8405 2.26 2.0575 3.701c.269 1.21.1336 2.474-.3855 3.599h-10.7921c-.2716-.622-.4866-1.267-.6424-1.928-.129-.838-.0764-1.693.1541-2.509.2305-.815.6335-1.572 1.1818-2.218s1.2291-1.166 1.9961-1.526 1.6024-.55 2.4495-.559z" fill="#eb459f"/><path d="m54.464 191.26c.8506-.018 1.6942.156 2.468.51.7739.353 1.458.877 2.0013 1.531.5434.655.9321 1.424 1.137 2.25.205.826.221 1.688.0468 2.521-.0501.669-.2244 1.323-.5139 1.928h-10.7922c-.494-1.131-.6716-2.375-.5139-3.599.2691-1.441 1.0323-2.743 2.1581-3.681 1.1257-.939 2.5435-1.455 4.0088-1.46z" fill="#eb459f"/><path d="m54.2868 173.585c.6258-3.408-1.1781-6.596-4.0291-7.12s-5.6696 1.815-6.2954 5.223c-.6259 3.409 1.178 6.597 4.029 7.121 2.8511.524 5.6697-1.815 6.2955-5.224z" fill="#000"/><path d="m53.179 164.655c.5139 10.539-7.3233 19.664-17.4731 20.307s-18.8863-7.197-19.5287-17.737c-.2128-5.282 1.6292-10.442 5.1392-14.394h26.9804c2.9254 3.27 4.6476 7.441 4.8822 11.824z" fill="#d11583"/><path d="m37.8901 156.944c1.1563 4.627 3.9828 6.94 7.3232 7.711-1.2848 3.599-1.6702 6.298-.6424 9.511-1.5757.509-3.0114 1.378-4.1934 2.538-1.1819 1.16-2.0775 2.579-2.6159 4.146-.4665-1.889-1.4861-3.595-2.9282-4.9-1.4421-1.306-3.2409-2.15-5.1659-2.426 1.5417-4.242 1.7987-7.326 0-10.925 3.4689-.643 6.9378-2.313 8.2226-5.655z" fill="#ffc619"/><path d="m22.8582 165.169c.0473 1.548-.4767 3.058-1.4721 4.244-.9953 1.185-2.3923 1.962-3.924 2.183-3.0835.257-5.5246-2.442-5.5246-5.784s2.4411-6.426 5.5246-6.555c3.0835-.128 5.3961 2.571 5.3961 5.912z" fill="#000"/><path d="m20.1602 152.959c-.1285 1.799-.2569 4.113-.2569 7.84h-5.1391c.1457-2.586.446-5.161.8993-7.711v-.257h4.4967z" fill="#fff"/><path d="m20.161 152.959c-.1285 1.542-.257 3.727-.257 6.941 0 3.213 1.5423 4.241 0 5.012l-1.9279-.386c.1285-2.699.257-7.711.5141-10.539-.0202-.39.0232-.78.1285-1.156h1.5423z" fill="#000"/><path d="m19.4895 163.829c.2086-2.982-1.463-5.527-3.7336-5.686s-4.2804 2.129-4.489 5.11 1.463 5.527 3.7336 5.686 4.2804-2.129 4.489-5.11z" fill="#fff"/><path d="m17.2644 165.558c.1455-1.982-.8266-3.669-2.1711-3.768-1.3446-.099-2.5525 1.428-2.698 3.41s.8265 3.669 2.1711 3.768c1.3445.099 2.5525-1.428 2.698-3.41z" fill="#8cd9ff"/><path d="m38.5331 152.831c.147 1.541.1038 3.095-.1285 4.626-.0292.114-.0959.213-.1894.284-.0934.07-.208.106-.3247.102-.2571-.128-.3856-.257-.3856-.514.2323-1.488.2755-3 .1285-4.498z" fill="#000"/><path d="m29.6678 162.984c.1285 0 .257 0 .3854-.257.1285-.257 0-.385-.1284-.514-.1285-.128-3.4689-1.671-3.5974-1.799-.1285-.129-.5139.128-.5139.385s0 .386.2569.514c1.17.436 2.2898.996 3.3405 1.671z" fill="#000"/><path d="m45.2136 165.169h.1285l2.4411-1.028c.1151-.056.2052-.153.2528-.272.0475-.118.049-.251.0042-.371-.1285-.257-.3855-.257-.6424-.128l-2.3126.899c-.257 0-.3855.258-.3855.515s.257.385.5139.385z" fill="#000"/><path d="m45.3422 175.322c.1285 0 .2571 0 .2571-.128 0-.129.2571-.386.1285-.643l-.8997-.771h-.6426c-.1285.257-.1285.514.1285.643l.6427.771z" fill="#000"/><path d="m25.5566 174.809h.1285c1.4012-.136 2.7814-.438 4.1112-.9.1152-.056.2053-.153.2528-.272.0475-.118.049-.251.0042-.371l-.5139-.257c-1.2579.537-2.6156.8-3.9828.772-.257.128-.3854.257-.3854.514-.0037.116.0324.231.1024.324.0701.094.1699.161.283.19z" fill="#000"/><path d="m33.522 166.969 8.4795 2.056c-2.3126 3.342-3.4689 5.527-8.4795-2.056z" fill="#000"/><path d="m32.7511 168.126h.1285l2.3126-1.286c.2569-.128.2569-.385.1285-.642.017-.068.0063-.141-.0299-.201-.0361-.06-.0947-.104-.1628-.121-.0682-.017-.1403-.006-.2006.03-.0602.036-.1036.095-.1206.163l-2.3127 1.286c-.2569.128-.2569.385-.1285.642.1285.257.1285.129.3855.129z" fill="#000"/><path d="m34.8066 168.768c2.8266 3.856 4.2398 3.856 5.5246 2.57-.6979-.781-1.5478-1.412-2.4977-1.854-.9498-.442-1.9797-.686-3.0269-.716z" fill="#eb459f"/><path d="m53.1792 192.16.5139-.257c1.0608-2.322 1.9205-4.73 2.5695-7.198.0111-.134-.0202-.268-.0893-.383-.0692-.116-.1727-.206-.2961-.26-.2569 0-.3854.129-.5139.386-.5452 2.458-1.4091 4.835-2.5696 7.069-.0199.05-.0291.104-.0267.159.0023.054.0161.107.0403.155.0243.049.0584.092.1004.126.0419.035.0907.06.143.074z" fill="#000"/><path d="m16.4342 192.931c.1363 0 .267-.054.3634-.151.0964-.096.1505-.227.1505-.363-.6571-4.564-1.6447-9.074-2.955-13.495-.0559-.115-.1527-.206-.2715-.253-.1188-.048-.251-.049-.3709-.004-.1285 0-.2569.257-.2569.514 1.3042 4.379 2.2918 8.846 2.955 13.366 0 .103.0406.201.1129.273.0722.072.1703.113.2725.113z" fill="#000"/><path d="m25.2995 188.818c5.9101 2.828 6.2955 6.426 4.6253 9.897l-.7709 1.285h-12.7193c-3.469-2.571-3.469-5.527-2.0557-8.354 1.4133-2.828 4.8822-5.656 10.9206-2.828z" fill="#ffc619"/><path d="m46.2412 189.332c5.653-2.699 8.7365-.643 10.4068 2.956 1.6702 3.599 1.5417 5.398-1.0279 7.711h-13.1048l-.5139-.899c-1.6702-3.599-1.4132-7.198 4.2398-9.768z" fill="#ffc619"/><path d="m22.7297 195.244c2.6981 1.286 5.6531-1.67 8.2227-5.012 1.7134 1.417 3.8222 2.269 6.0384 2.442 2.0076-.108 3.9348-.825 5.5246-2.057 1.2848 2.699 3.3404 5.399 5.6531 4.37 2.3126-1.028 2.3126-4.498.7708-8.354-.3178-.787-.8048-1.494-1.4265-2.072-.6217-.577-1.3629-1.011-2.1709-1.27-2.4047-.544-4.8581-.846-7.3232-.899-3.6528-.199-7.3164.016-10.9207.642-1.4093.382-2.6102 1.306-3.3404 2.571-2.0557 3.599-4.3683 7.84-1.0279 9.639z" fill="#fff"/><path d="m42.387 186.504-2.0556 1.414c-.7584.574-1.6831.884-2.6338.884s-1.8754-.31-2.6338-.884l-1.7987-1.414c-.1893-.152-.3256-.361-.3897-.595-.0641-.235-.0527-.484.0327-.711.0853-.228.2403-.423.4427-.558.2025-.134.4422-.202.6852-.192h7.8371c.2218.037.4277.139.5928.291.1651.153.282.351.3366.569.0545.218.0443.448-.0295.66-.0738.213-.2079.399-.386.536z" fill="#57f287"/><path d="m44.3135 187.019c0 .639.5179 1.156 1.1567 1.156.6389 0 1.1568-.517 1.1568-1.156v-1.427c0-.639-.5179-1.157-1.1568-1.157-.6388 0-1.1567.518-1.1567 1.157z" fill="#163352"/><path d="m28.3818 187.019c0 .639.5179 1.156 1.1567 1.156.6389 0 1.1568-.517 1.1568-1.156v-1.427c0-.639-.5179-1.157-1.1568-1.157-.6388 0-1.1567.518-1.1567 1.157z" fill="#163352"/><path d="m145.555 152.831h-66.4234c-1.4192 0-2.5696 1.15-2.5696 2.57v41.964c0 1.42 1.1504 2.57 2.5696 2.57h66.4234c1.419 0 2.569-1.15 2.569-2.57v-41.964c0-1.42-1.15-2.57-2.569-2.57z" fill="#29cc7a"/><path d="m297.93 152.831h-66.423c-1.419 0-2.569 1.15-2.569 2.57v41.964c0 1.42 1.15 2.57 2.569 2.57h66.423c1.42 0 2.57-1.15 2.57-2.57v-41.964c0-1.42-1.15-2.57-2.57-2.57z" fill="#91ffad"/><path d="m297.673 152.831h-65.909c-1.561 0-2.826 1.266-2.826 2.827v41.45c0 1.561 1.265 2.827 2.826 2.827h65.909c1.561 0 2.827-1.266 2.827-2.827v-41.45c0-1.561-1.266-2.827-2.827-2.827z" fill="#5865f2"/><path d="m248.466 195.245c-7.066-9.511-10.278-13.881-14.903-11.182-4.626 2.699-1.028 9.125 3.982 15.937h24.154v-13.881c-7.708.9-10.149 4.37-13.233 9.126z" fill="url(#e)"/><path d="m299.986 198.843c-1.491-2.53-3.121-4.976-4.882-7.326-7.195-10.154-8.994-9.897-27.109-6.169-11.306 2.442-14.647 5.783-15.161 14.652h44.839c.448-.005.889-.112 1.29-.312.401-.201.75-.49 1.023-.845z" fill="#7196ff"/><path d="m254.89 188.175c2.184 5.27 8.351 10.539 15.161 8.869 10.021-2.442 8.736-8.869 16.188-8.869v-1.542c-4.368-4.113-1.927-3.984-15.418-1.285-2.29.459-4.528 1.148-6.68 2.056v-1.285c-5.653.642-4.883-2.571-7.195.385z" fill="#4d7af7"/><path d="m283.669 192.417c-.128-.257-.385-.257-.642-.129-.053.014-.101.04-.143.074s-.076.077-.101.126c-.024.048-.038.101-.04.156-.002.054.007.108.027.158l3.469 7.198h1.028z" fill="#4d7af7"/><path d="m246.738 182.473 35.46-.062c2.413-.004 4.365-1.964 4.361-4.377l-.015-8.573c-.004-2.413-1.964-4.366-4.376-4.362l-35.46.062c-2.413.004-4.365 1.964-4.361 4.377l.015 8.573c.005 2.413 1.964 4.366 4.376 4.362z" fill="#7196ff"/><path d="m282.95 157.714h-30.578c-4.967 0-8.994 4.028-8.994 8.997v14.588c0 4.969 4.027 8.997 8.994 8.997h30.578c4.967 0 8.993-4.028 8.993-8.997v-14.588c0-4.969-4.026-8.997-8.993-8.997z" fill="#7196ff"/><path d="m250.136 171.339c1.349 0 2.442-1.094 2.442-2.442 0-1.349-1.093-2.442-2.442-2.442-1.348 0-2.441 1.093-2.441 2.442 0 1.348 1.093 2.442 2.441 2.442z" fill="#000"/><path d="m254.817 164.364 17.473-.031c.784-.001 1.536.309 2.091.862.555.554.868 1.305.869 2.089l.013 7.197c.003 1.909-.751 3.741-2.098 5.093-1.347 1.353-3.176 2.114-5.084 2.117l-9.893.018c-1.67.003-3.272-.658-4.455-1.837-1.182-1.179-1.848-2.78-1.851-4.45l-.015-8.097c0-.388.076-.773.223-1.132.148-.359.365-.685.639-.96s.6-.493.958-.642c.358-.15.742-.227 1.13-.227z" fill="#b8cdff"/><path d="m257.973 177.636h-1.413c-.179.018-.36-.002-.531-.058-.171-.057-.328-.149-.462-.27-.133-.121-.239-.269-.312-.434-.072-.165-.109-.343-.108-.523.032-.353.195-.68.457-.918.261-.238.603-.369.956-.368h1.413c.354-.001.695.13.957.368s.425.565.457.918c.001.18-.036.358-.109.523-.072.165-.178.313-.312.434-.133.121-.29.213-.461.27-.171.056-.352.076-.532.058z" fill="#7196ff"/><path d="m266.967 177.636h-2.569c-.354.002-.695-.13-.957-.368-.261-.238-.424-.565-.457-.917-.001-.18.036-.359.109-.524.072-.165.179-.312.312-.434.133-.121.29-.213.461-.269.171-.057.352-.076.532-.058h2.569c.179-.018.36.001.531.058.171.056.329.148.462.269.133.122.24.269.312.434s.109.344.108.524c-.032.352-.195.679-.456.917-.262.238-.603.37-.957.368z" fill="#7196ff"/><path d="m286.168 165.594 8.094-.014c1.09-.002 2.137.43 2.909 1.2.773.769 1.208 1.815 1.21 2.906l.015 9.125c.002 1.091-.429 2.138-1.199 2.91-.769.773-1.814 1.208-2.905 1.21l-8.094.014z" fill="#7196ff"/><path d="m290.668 167.642 2.313-.004c.511-.001 1.002.202 1.364.563s.566.851.567 1.362l.012 7.069c.001.511-.201 1.002-.562 1.364s-.851.566-1.362.567l-2.312.004-.019-10.796z" fill="#b8cdff"/><path d="m281.1 171.467c1.49 0 2.698-1.209 2.698-2.699 0-1.491-1.208-2.699-2.698-2.699s-2.698 1.208-2.698 2.699c0 1.49 1.208 2.699 2.698 2.699z" fill="#000"/><path d="m267.096 183.934 5.524-1.414c.257 0 .514.258.386.515-1.414 4.627-3.212 3.47-6.039 1.67-.048-.056-.083-.123-.102-.195-.02-.071-.024-.147-.011-.22.012-.073.04-.143.082-.204.041-.062.096-.113.16-.152z" fill="#9c1061"/><path d="m273.006 183.163-1.542.386c-1.222.347-2.33 1.012-3.212 1.927 2.184 1.286 3.726 1.414 4.754-2.313z" fill="#ff78b9"/><path d="m267.224 156.301h14.133c.009-1.253-.397-2.474-1.157-3.47h-7.837c-3.597 3.341-5.139 3.47-5.139 3.47z" fill="#29cc7a"/><path d="m256.561 156.301h15.802s-1.541-.129-5.01-3.47h-11.563c-.142 1.21.129 2.433.771 3.47z" fill="#57f287"/><path d="m112.408 195.116c10.288 0 18.629-8.344 18.629-18.637 0-10.292-8.341-18.636-18.629-18.636-10.289 0-18.6297 8.344-18.6297 18.636 0 10.293 8.3407 18.637 18.6297 18.637z" fill="#57f287"/><path d="m96.0918 175.323-1.7994-3.085c-.2333.887-.405 1.789-.5141 2.699z" fill="#ff78b9"/><path d="m96.7332 175.451c1.2848.129 2.0557-.642 1.6703-2.056-.6332-1.98-1.406-3.913-2.3127-5.784-1.1836 2.006-1.9281 4.24-2.1841 6.555.8488.61 1.8092 1.047 2.8265 1.285z" fill="#fff"/><path d="m126.54 164.27c-1.259-1.371-2.683-2.58-4.239-3.599l-1.671 9.511c1.671-.9 5.14-3.085 5.91-5.655z" fill="#ff78b9"/><path d="m118.703 158.871c-.325.691-.542 1.428-.642 2.185-.322 2.729-.408 5.482-.257 8.226.008.266.086.526.225.753.138.228.334.416.567.545s.495.196.762.194c.266-.002.527-.074.758-.207.771-.514 1.927-6.298 2.441-9.768-1.217-.77-2.508-1.416-3.854-1.928z" fill="#fff"/><path d="m129.367 173.78-3.469.771 1.413 6.427 3.341-.643c.255-1.269.384-2.561.385-3.856.021-.645-.022-1.291-.128-1.928-.186-.232-.42-.421-.687-.555-.266-.133-.558-.206-.855-.216z" fill="#7196ff"/><path d="m121.529 188.69h-1.67l-13.875 1.927c-1.24.259-2.391.835-3.341 1.671 2.918 1.856 6.307 2.837 9.764 2.828 4.665.03 9.166-1.716 12.591-4.884-.931-.918-2.164-1.466-3.469-1.542z" fill="#fff"/><path d="m123.071 183.291-24.1535 3.856.2569 1.928c.1285.257.1285.514.257.771.8946.88 1.8866 1.656 2.9546 2.313h1.542l17.088-2.699c.761-.096 1.456-.486 1.935-1.086.48-.599.707-1.362.634-2.127z" fill="#7196ff"/><path d="m120.374 183.806.899 5.655h-.642l-1.028-5.655z" fill="#5865f2"/><path d="m113.436 184.834 1.028 5.783-.771.129-1.028-5.784z" fill="#5865f2"/><path d="m106.498 185.99 1.028 5.655-.642.129-1.029-5.784z" fill="#5865f2"/><path d="m129.238 176.865c-.899-4.755-4.496-6.169-6.424-6.94-1.927-.771-4.496-2.442-5.396-3.856-.899-1.414-5.781-6.169-11.563-5.013-5.781 1.157-8.2223 5.527-8.9932 9.768-.3854 2.057-.3855 3.085-1.5418 4.499s-1.0278 1.285-1.5417 1.928c.1108 2.731.8249 5.404 2.0911 7.826s3.0531 4.534 5.2326 6.183h1.284l20.171-4.113c2.24-.493 4.196-1.848 5.446-3.772s1.694-4.262 1.235-6.51z" fill="#fff"/><path d="m116.905 169.539c.514.257.257 1.028-.257 1.928s-1.156 1.671-1.542 1.285c-.386-.385-.257-1.028.257-1.928.514-.899 1.157-1.542 1.542-1.285z" fill="#000"/><path d="m112.408 174.808c-.129-.514 1.799-.899 1.927-.385.129.514-.385.899-.771 1.028-.237.046-.484.007-.695-.11-.212-.118-.375-.306-.461-.533z" fill="#000"/><path d="m114.078 178.15c-.257 1.928-1.542 3.342-2.827 3.085-1.284-.257-2.184-1.8-1.927-3.727z" fill="#ffaed7"/><path d="m104.442 172.11c-.386.385.257 1.028 1.028 1.67.771.643 1.67 1.029 1.927.643.257-.385-.129-1.285-.899-1.928-.771-.642-1.799-.899-2.056-.385z" fill="#000"/><path d="m105.727 178.536h-.257l-2.184-1.928c-.129 0-.129-.257 0-.386h.514l2.055 1.8c.064.07.099.162.099.257s-.035.186-.099.257c-.019-.011-.041-.017-.064-.017-.022 0-.045.006-.064.017z" fill="#ffaed7"/><path d="m103.8 178.922h-.257l-2.185-2.057c-.027-.024-.049-.054-.064-.087s-.023-.069-.023-.106c0-.036.008-.072.023-.105.015-.034.037-.063.064-.087h.514l2.056 1.799c.063.071.098.162.098.257s-.035.186-.098.257z" fill="#ffaed7"/><path d="m101.744 179.307h-.257l-2.0558-1.928c-.0273-.024-.0492-.054-.0642-.087s-.0228-.069-.0228-.106c0-.036.0078-.072.0228-.105.015-.034.0369-.063.0642-.087h.5139l2.0559 1.799c.063.071.098.162.098.257s-.035.186-.098.257z" fill="#ffaed7"/><path d="m118.189 175.966h-.128c-.129-.129-.257-.386-.129-.515l1.157-2.442c.128-.257.257-.257.385-.257.09.051.162.127.208.218.045.092.063.195.05.296l-1.286 2.442z" fill="#ffaed7"/><path d="m120.116 175.58h-.128c-.129-.129-.257-.386-.129-.514l1.157-2.442c.129-.257.257-.257.514-.129.257.129.129.257.129.386l-1.286 2.442z" fill="#ffaed7"/><path d="m122.172 175.194h-.257c-.128-.128-.257-.385-.128-.514l1.156-2.442c.129-.257.257-.257.514-.128.258.128.129.257.129.385l-1.285 2.442z" fill="#ffaed7"/><path d="m94.2925 180.978c.5038 1.903 1.2832 3.721 2.3134 5.398.2438-.791.288-1.63.1286-2.442-.3856-1.799-1.4138-3.084-2.442-2.956z" fill="#7196ff"/><path d="m104.956 160.542c0 .386.257.643.642.514.386 0 .515-.257.515-.643-.018-.481-.104-.957-.258-1.413l-1.156.385c.058.391.144.778.257 1.157z" fill="#000"/><path d="m112.536 160.413c-.123-.5-.428-.935-.856-1.221-.429-.286-.948-.4-1.457-.321l-7.451 1.542c-1.199.789-2.318 1.693-3.3408 2.699l.2569 1.414 13.1049-2.699z" fill="#5865f2"/><g fill="#ff78b9"><path d="m169.58 76.1001c1.49 0 2.698-1.2084 2.698-2.699 0-1.4907-1.208-2.6991-2.698-2.6991s-2.698 1.2084-2.698 2.6991c0 1.4906 1.208 2.699 2.698 2.699z"/><path d="m147.996 73.658c1.49 0 2.698-1.2084 2.698-2.699s-1.208-2.6991-2.698-2.6991-2.698 1.2085-2.698 2.6991 1.208 2.699 2.698 2.699z"/><path d="m114.592 70.0591c1.49 0 2.698-1.2084 2.698-2.6991 0-1.4906-1.208-2.6991-2.698-2.6991-1.491 0-2.698 1.2085-2.698 2.6991 0 1.4907 1.207 2.6991 2.698 2.6991z"/><path d="m175.747 96.9215c1.49 0 2.698-1.2084 2.698-2.6991 0-1.4906-1.208-2.699-2.698-2.699s-2.698 1.2084-2.698 2.699c0 1.4907 1.208 2.6991 2.698 2.6991z"/><path d="m158.788 110.545c1.49 0 2.698-1.209 2.698-2.699 0-1.491-1.208-2.699-2.698-2.699s-2.698 1.208-2.698 2.699c0 1.49 1.208 2.699 2.698 2.699z"/><path d="m132.578 131.623c1.49 0 2.698-1.208 2.698-2.699s-1.208-2.699-2.698-2.699-2.698 1.208-2.698 2.699 1.208 2.699 2.698 2.699z"/><path d="m180.115 56.9497c1.491 0 2.699-1.2084 2.699-2.6991 0-1.4906-1.208-2.699-2.699-2.699-1.49 0-2.698 1.2084-2.698 2.699 0 1.4907 1.208 2.6991 2.698 2.6991z"/><path d="m166.497 39.9842c1.49 0 2.698-1.2084 2.698-2.6991 0-1.4906-1.208-2.699-2.698-2.699s-2.698 1.2084-2.698 2.699c0 1.4907 1.208 2.6991 2.698 2.6991z"/><path d="m145.427 13.7647c1.49 0 2.698-1.2084 2.698-2.6991 0-1.49062-1.208-2.69902-2.698-2.69902-1.491 0-2.698 1.2084-2.698 2.69902 0 1.4907 1.207 2.6991 2.698 2.6991z"/><path d="m172.921 65.4325c1.49 0 2.698-1.2084 2.698-2.6991 0-1.4906-1.208-2.699-2.698-2.699s-2.698 1.2084-2.698 2.699c0 1.4907 1.208 2.6991 2.698 2.6991z"/><path d="m153.906 55.022c1.49 0 2.698-1.2084 2.698-2.6991 0-1.4906-1.208-2.699-2.698-2.699s-2.698 1.2084-2.698 2.699c0 1.4907 1.208 2.6991 2.698 2.6991z"/><path d="m124.485 38.8272c1.49 0 2.698-1.2084 2.698-2.699 0-1.4907-1.208-2.6991-2.698-2.6991s-2.698 1.2084-2.698 2.6991c0 1.4906 1.208 2.699 2.698 2.699z"/><path d="m170.608 87.1532c1.49 0 2.698-1.2084 2.698-2.699 0-1.4907-1.208-2.6991-2.698-2.6991s-2.698 1.2084-2.698 2.6991c0 1.4906 1.208 2.699 2.698 2.699z"/><path d="m149.795 93.1935c1.49 0 2.698-1.2084 2.698-2.699 0-1.4907-1.208-2.6991-2.698-2.6991s-2.698 1.2084-2.698 2.6991c0 1.4906 1.208 2.699 2.698 2.699z"/><path d="m117.418 102.576c1.49 0 2.698-1.208 2.698-2.6986s-1.208-2.6991-2.698-2.6991-2.698 1.2085-2.698 2.6991 1.208 2.6986 2.698 2.6986z"/><path d="m184.227 104.118c1.49 0 2.698-1.208 2.698-2.699 0-1.4903-1.208-2.6987-2.698-2.6987s-2.698 1.2084-2.698 2.6987c0 1.491 1.208 2.699 2.698 2.699z"/><path d="m173.82 123.141c1.49 0 2.698-1.209 2.698-2.699 0-1.491-1.208-2.7-2.698-2.7s-2.698 1.209-2.698 2.7c0 1.49 1.208 2.699 2.698 2.699z"/><path d="m150.18 63.8902c1.49 0 2.698-1.2084 2.698-2.6991 0-1.4906-1.208-2.699-2.698-2.699s-2.698 1.2084-2.698 2.699c0 1.4907 1.208 2.6991 2.698 2.6991z"/><path d="m153.263 102.062c1.491 0 2.699-1.208 2.699-2.6986s-1.208-2.699-2.699-2.699c-1.49 0-2.698 1.2084-2.698 2.699s1.208 2.6986 2.698 2.6986z"/><path d="m159.687 46.7964c1.49 0 2.698-1.2084 2.698-2.699 0-1.4907-1.208-2.6991-2.698-2.6991s-2.698 1.2084-2.698 2.6991c0 1.4906 1.208 2.699 2.698 2.699z"/><path d="m147.867 83.2974c1.491 0 2.698-1.2084 2.698-2.6991 0-1.4906-1.207-2.699-2.698-2.699-1.49 0-2.698 1.2084-2.698 2.699 0 1.4907 1.208 2.6991 2.698 2.6991z"/><path d="m165.469 117.357c1.49 0 2.698-1.208 2.698-2.699s-1.208-2.699-2.698-2.699-2.698 1.208-2.698 2.699 1.208 2.699 2.698 2.699z"/><path d="m118.06 53.6079c1.49 0 2.698-1.2084 2.698-2.6991 0-1.4906-1.208-2.699-2.698-2.699s-2.698 1.2084-2.698 2.699c0 1.4907 1.208 2.6991 2.698 2.6991z"/><path d="m123.457 117.486c1.49 0 2.698-1.209 2.698-2.699 0-1.491-1.208-2.699-2.698-2.699s-2.698 1.208-2.698 2.699c0 1.49 1.208 2.699 2.698 2.699z"/><path d="m133.992 24.9467c1.49 0 2.698-1.2084 2.698-2.6991 0-1.4906-1.208-2.699-2.698-2.699s-2.698 1.2084-2.698 2.699c0 1.4907 1.208 2.6991 2.698 2.6991z"/><path d="m114.463 86.1248c1.49 0 2.698-1.2084 2.698-2.699s-1.208-2.6991-2.698-2.6991-2.698 1.2085-2.698 2.6991 1.208 2.699 2.698 2.699z"/><path d="m143.756 143.062c1.49 0 2.698-1.208 2.698-2.699 0-1.49-1.208-2.699-2.698-2.699s-2.698 1.209-2.698 2.699c0 1.491 1.208 2.699 2.698 2.699z"/></g><path d="m63.2009 55.793-33.6613-12.3385 5.653 11.0533c1.092 2.1654 2.9799 3.8237 5.2676 4.6269l26.7235 9.768 1.0278-2.5705z" fill="#dae2ed"/><path d="m70.9093 54.6362-44.7104-16.3228c-.257-.1286-.5139.257-.3854.5141l1.6702 3.4702c.1955.3583.5154.6326.8993.7711l1.1563.3856 33.6613 12.3385 5.0107 10.5392-1.0278 2.5705-.6424 1.9279 11.3061 4.1128 1.5417-4.4984-6.5524-14.1379c-.1835-.3999-.4504-.7559-.7828-1.044-.3324-.2882-.7226-.5019-1.1444-.6268z" fill="#eceff6"/><path d="m68.2115 66.3322-5.0106-10.5392-33.6613-12.3385 1.1562 2.3135 31.3488 11.3103 4.4967 9.8965-.5139 1.5423 1.1563.3856z" fill="#c5cedd"/><path d="m82.9711 74.8916c.0625-11.925-9.5504-21.6427-21.471-21.7052-11.9205-.0624-21.6347 9.5542-21.6971 21.4791-.0624 11.925 9.5505 21.6427 21.471 21.7051 11.9206.0625 21.6347-9.554 21.6971-21.479z" fill="#262d3d"/><path d="m75.3908 74.8525c.0405-7.7371-6.1965-14.0421-13.9306-14.0826-7.7342-.0405-14.0368 6.1988-14.0773 13.9359-.0405 7.737 6.1965 14.0419 13.9306 14.0825 7.7342.0405 14.0368-6.1988 14.0773-13.9358z" fill="#7687b2"/><path d="m75.663 57.7212c0 3.2132-8.6081 11.3103-14.3896 15.6802-5.1392.1285-18.2439-.3856-21.1989-3.4702-.514-.3856-.514-.6426-.514-.8997v-.3855c.8642-3.1251 2.3898-6.0279 4.4735-8.5115 2.0837-2.4837 4.6768-4.4901 7.6035-5.8835 7.3233-3.4702 16.1883-2.5705 23.64 2.6991.1338.0755.2419.1892.3105.3266.0687.1374.0948.2922.075.4445z" fill="#ff7f14"/><path d="m61.6588 74.5578s-20.6851-12.467-18.6294-15.0375c2.1945-2.6449 4.9626-4.7548 8.0941-6.1693 8.3511-3.9843 17.6016-2.3134 24.7964 2.6991 5.0106 3.5987-14.2611 18.5077-14.2611 18.5077z" fill="#ff903e"/><path d="m73.2069 74.8406c.0342-6.5303-5.23-11.852-11.7579-11.8862-6.5279-.0341-11.8476 5.232-11.8817 11.7624-.0342 6.5303 5.23 11.8519 11.7579 11.8861s11.8476-5.2319 11.8817-11.7623z" fill="#ebeff7"/><path d="m61.2732 84.5832c5.4636 0 9.8928-4.4308 9.8928-9.8965s-4.4292-9.8965-9.8928-9.8965c-5.4637 0-9.8928 4.4308-9.8928 9.8965s4.4291 9.8965 9.8928 9.8965z" fill="#dae2ed"/><path d="m55.3636 70.4452 5.3961-3.2132c.3304-.129.6974-.129 1.0278 0l5.5246 3.0847c.1434.106.2631.2408.3516.3957s.1437.3265.1623.504v6.2977c-.0325.3962-.2166.7646-.5139 1.0282l-5.5246 3.2132h-1.0278l-5.5246-3.0846c-.2623-.2379-.4422-.5529-.5139-.8997v-6.2978c-.0403-.2206.0032-.4484.122-.6386.1189-.1902.3045-.3292.5204-.3896z" fill="#c5cedd"/><path d="m61.2736 78.1567c1.9158 0 3.4689-1.5536 3.4689-3.4702 0-1.9165-1.5531-3.4702-3.4689-3.4702-1.9159 0-3.4689 1.5537-3.4689 3.4702 0 1.9166 1.553 3.4702 3.4689 3.4702z" fill="#b7c2ce"/><path d="m88.1257 94.9932h-1.7987c-.2385 0-.4673.0948-.6359.2635-.1687.1687-.2634.3976-.2634.6362v3.8558c.001.5243-.1979 1.0283-.556 1.4103-.3582.382-.8486.613-1.3712.646-.5452 0-1.0681-.217-1.4536-.602-.3855-.386-.6021-.909-.6021-1.4543v-16.4514c.0309-.5695.2709-1.1075.674-1.5107.4031-.4033.9409-.6434 1.5102-.6742h6.6808c.5693.0308 1.1071.2709 1.5102.6742.4031.4032.6431.9412.674 1.5107v7.326c0 1.159-.4603 2.2705-1.2795 3.09s-1.9303 1.2799-3.0888 1.2799z" fill="#80a7ff"/><path d="m92.6224 74.1722h-3.7259v4.1129h3.7259z" fill="#80a7ff"/><path d="m91.3373 83.1691h-15.9314l-.3854-.2571c0-.1023.0406-.2003.1129-.2726s.1703-.113.2725-.113h15.9314c.1284 0 .2569-.1285.2569-.3855v-2.5706c0-.1285.257-.257.3855-.257.1284 0 .3854.1285.3854.257v2.5706c0 .135-.0266.2687-.0782.3934-.0517.1248-.1274.2381-.2229.3336-.0954.0955-.2087.1712-.3334.2229s-.2584.0783-.3933.0783z" fill="#e4e9f7"/><path d="m93.136 73.2722h-2.3126c-.2129 0-.3854.1726-.3854.3856v7.1718c0 .2129.1725.3855.3854.3855h2.3126c.2129 0 .3855-.1726.3855-.3855v-7.1718c0-.213-.1726-.3856-.3855-.3856z" fill="#000"/><path d="m92.622 74.1718h1.4132c.1285 0 .257.1286.257.3856v3.4702l-.257.2571h-1.2848c-.506.0404-1.0091-.1079-1.4124-.4164-.4032-.3085-.6781-.7553-.7717-1.2545-.0574-.3004-.047-.6098.0302-.9057.0773-.2959.2196-.5708.4166-.8048.1969-.2339.4435-.421.7218-.5475.2783-.1266.5814-.1894.8871-.184z" fill="#80a7ff"/><path d="m85.4271 73.2722h-2.3127c-.2128 0-.3854.1726-.3854.3856v7.1718c0 .2129.1726.3855.3854.3855h2.3127c.2128 0 .3854-.1726.3854-.3855v-7.1718c0-.213-.1726-.3856-.3854-.3856z" fill="#000"/><path d="m84.1425 79.5701v2.5705c.0026.1841-.0608.363-.1786.5044-.1178.1415-.2823.2361-.4638.2667h-15.8028" stroke="#2f3849" stroke-miterlimit="10" stroke-width="2.00882"/><path d="m90.695 75.8426c-.884-1.2209-2.0419-2.2173-3.3807-2.9093-1.3388-.6919-2.8212-1.0602-4.328-1.075h-12.8478c-1.5334 0-3.004.6093-4.0882 1.694-1.0843 1.0846-1.6934 2.5557-1.6934 4.0897v10.4106c0 1.0226.4061 2.0033 1.1289 2.7264.7229.7231 1.7032 1.1293 2.7255 1.1293h18.5009c1.5113.0004 2.9627-.5913 4.0433-1.6483 1.0807-1.057 1.7046-2.4953 1.7382-4.0068v-4.884c.0186-1.9891-.613-3.9298-1.7987-5.5266z" fill="#9cb8ff"/><path d="m73.9928 71.8583h-3.8543c-.7593 0-1.5111.1496-2.2125.4402-.7015.2907-1.3389.7167-1.8757 1.2538-.5369.537-.9627 1.1746-1.2533 1.8763-.2905.7017-.4401 1.4538-.4401 2.2134v9.1253c.0322 1.0124.4486 1.9746 1.1646 2.6908.7159.7163 1.6777 1.1328 2.6898 1.165h5.7815c-.1285-6.2978-.1285-12.467 0-18.7648z" fill="#80a7ff"/><path d="m61.7876 85.482-4.1113 1.1567c-.5504.1906-1.0355.5331-1.3993.9881-.3638.4549-.5914 1.0035-.6564 1.5825-.0182.4099.049.8191.1975 1.2017.1485.3825.375.7298.6651 1.02.29.2902.6373.5167 1.0196.6653.3824.1485.7915.2158 1.2013.1976.5838-.0493 1.1399-.2711 1.5974-.6373s.7959-.8601.9721-1.4191l1.1564-3.9843c.1285-.5141-.257-.8997-.6424-.7712z" fill="#80a7ff"/><path d="m71.0378 94.9927h-1.7987c-.2385 0-.4673.0947-.6359.2635-.1687.1687-.2635.3975-.2635.6362v3.8557c.0011.5239-.1978 1.0279-.5559 1.4109-.3582.382-.8486.613-1.3712.646-.5452 0-1.0681-.217-1.4536-.603-.3855-.385-.6021-.908-.6021-1.4539v-19.5359c.0309-.5695.2709-1.1075.674-1.5108.4031-.4032.9409-.6433 1.5101-.6742h6.6809c.5793 0 1.1348.2302 1.5445.64.4096.4097.6396.9655.6396 1.545v10.4106c0 1.1589-.4602 2.2705-1.2794 3.09s-1.9303 1.2799-3.0888 1.2799z" fill="#80a7ff"/><path d="m83.5003 83.1691h-15.8029c-.2569 0-.3854-.1286-.3854-.2571 0-.1023.0406-.2003.1129-.2726s.1703-.113.2725-.113h15.8029c.1022 0 .2002-.0406.2725-.1129s.1129-.1704.1129-.2726v-2.5706c0-.0681.0271-.1335.0753-.1817s.1135-.0753.1817-.0753c.2569 0 .3854.1285.3854.257v2.5706c.022.14.0105.2832-.0334.418s-.1189.2573-.2191.3575c-.1002.1003-.2227.1754-.3574.2193-.1348.0439-.2779.0553-.4179.0334z" fill="#e4e9f7"/><path d="m85.4275 73.2722h-2.3126c-.2129 0-.3854.1726-.3854.3856v7.1718c0 .2129.1725.3855.3854.3855h2.3126c.2129 0 .3855-.1726.3855-.3855v-7.1718c0-.213-.1726-.3856-.3855-.3856z" fill="#000"/><path d="m85.5558 74.1719h-7.8371c-.6134 0-1.2016-.2438-1.6353-.6776-.4337-.4339-.6774-1.0223-.6774-1.6359h-4.7537v10.1536h4.7537c.5139-2.5706 2.6981-3.7273 5.3961-3.7273h4.6253c.5451.0171 1.0748-.1833 1.4723-.5569.3976-.3736.6305-.8899.6475-1.4353.0171-.5453-.1832-1.0752-.5566-1.4729-.3735-.3977-.8896-.6307-1.4348-.6477z" fill="#80a7ff"/><path d="m67.6975 71.9872h17.6015c3.1931 0 5.7816-2.5894 5.7816-5.7836v-10.5263c0-3.1943-2.5885-5.7837-5.7816-5.7837h-17.6015c-3.1931 0-5.7815 2.5894-5.7815 5.7837v10.5263c0 3.1942 2.5884 5.7836 5.7815 5.7836z" fill="#80a7ff"/><path d="m71.4236 71.9872h17.6015c3.1931 0 5.7815-2.5894 5.7815-5.7836v-10.5263c0-3.1943-2.5884-5.7837-5.7815-5.7837h-17.6015c-3.193 0-5.7815 2.5894-5.7815 5.7837v10.5263c0 3.1942 2.5885 5.7836 5.7815 5.7836z" fill="#9cb8ff"/><path d="m67.8262 64.9181h-4.2398c-1.0222 0-2.0026-.4062-2.7254-1.1293s-1.1289-1.7039-1.1289-2.7265v-2.699c0-1.0227.4061-2.0034 1.1289-2.7265s1.7032-1.1293 2.7254-1.1293h4.2398v10.2821z" fill="#9cb8ff"/><path d="m67.9546 56.9495v5.7836c0 .1023-.0406.2004-.1129.2727s-.1703.1129-.2725.1129h-3.8544c-.5111 0-1.0013-.2031-1.3627-.5646-.3614-.3616-.5645-.8519-.5645-1.3632v-2.6991c0-.5113.2031-1.0017.5645-1.3632.3614-.3616.8516-.5647 1.3627-.5647h3.8544c.1022 0 .2002.0406.2725.1129s.1129.1704.1129.2727z" fill="#80a7ff"/><path d="m72.5798 59.687c0 1.0434.8341 1.8893 1.863 1.8893 1.0288 0 1.8629-.8459 1.8629-1.8893 0-1.0435-.8341-1.8894-1.8629-1.8894-1.0289 0-1.863.8459-1.863 1.8894z" fill="#000"/><path d="m94.9349 55.6647h-12.9763c-.6134 0-1.2016.2437-1.6353.6776-.4337.4338-.6773 1.0223-.6773 1.6358v2.6991c.0336 1.5115.6575 2.9498 1.7381 4.0068s2.5321 1.6487 4.0434 1.6483h6.167c.7423 0 1.4774-.1462 2.1633-.4304s1.309-.7008 1.834-1.2259c.5249-.5251.9413-1.1486 1.2254-1.8347s.4303-1.4215.4303-2.1641v-2.6991c0-.6135-.2436-1.202-.6773-1.6358-.4337-.4339-1.022-.6776-1.6353-.6776z" fill="#b8d0ff"/><path d="m91.466 66.332h-3.4689c-1.5333 0-3.0039-.6094-4.0881-1.694-1.0843-1.0847-1.6934-2.5558-1.6934-4.0897v-2.6991c.0164-.3039.0926-.6017.2243-.8761.1316-.2745.3161-.5202.5429-.7232s.4914-.3592.7786-.4597c.2873-.1005.5915-.1433.8953-.1259h10.2783c.6133 0 1.2015.2437 1.6352.6776s.6774 1.0223.6774 1.6359v2.699c-.0336 1.5116-.6575 2.9499-1.7382 4.0069-1.0806 1.057-2.532 1.6486-4.0434 1.6483z" fill="#cbdaf7"/><path d="m89.6671 62.0911h-2.5695c-.2386 0-.4673.0948-.636.2635-.1686.1688-.2634.3976-.2634.6362s.0948.4675.2634.6362c.1687.1687.3974.2635.636.2635h2.5695c.2386 0 .4673-.0948.636-.2635s.2634-.3976.2634-.6362-.0947-.4674-.2634-.6362c-.1687-.1687-.3974-.2635-.636-.2635z" fill="#9cb8ff"/><path d="m94.164 62.0911h-1.0278c-.2385 0-.4673.0948-.636.2635-.1686.1687-.2634.3975-.2634.6362 0 .2386.0948.4674.2634.6361.1687.1687.3975.2635.636.2635h1.0278c.2385 0 .4673-.0948.636-.2635.1686-.1687.2634-.3975.2634-.6361 0-.2387-.0948-.4675-.2634-.6362-.1687-.1687-.3975-.2635-.636-.2635z" fill="#9cb8ff"/><path d="m88.6395 68.6454h1.5417c.1704 0 .3338-.0677.4542-.1882.1205-.1205.1882-.284.1882-.4544s-.0677-.3339-.1882-.4544c-.1204-.1205-.2838-.1882-.4542-.1882h-1.5417c-.1704 0-.3338.0677-.4543.1882-.1204.1205-.1881.284-.1881.4544s.0677.3339.1881.4544c.1205.1205.2839.1882.4543.1882z" fill="#80a7ff"/><path d="m95.9626 52.1943c1.5924 2.6993 2.4 5.7897 2.3319 8.9232-.0681 3.1336-1.0092 6.1859-2.7173 8.8134l-3.3405 1.9279-21.5843-.8996-5.2676-7.069 5.2676-14.0093h18.5009z" fill="#4871e5" opacity=".5"/><path d="m78.7465 44.4824c-12.5909 0-19.5287 8.4827-19.5287 15.5516 0 7.069 8.2226 7.7116 10.1498 2.6991l4.1112-10.7962 17.987 2.3134 4.4967-2.0564c-1.6702-2.699-7.8371-7.7115-17.216-7.7115z" fill="#ebeff7"/><path d="m68.0828 63.89 11.3061 6.0408h16.1883l-1.5418 2.5705h-26.338l-2.3126-5.1411z" fill="#ebeff7"/><path d="m65.3847 55.6644-3.3404 1.1568-1.5418-6.0408c-.0839-.3405-.0384-.7.1278-1.0088.1662-.3087.4412-.5447.7716-.662.1771-.0603.3644-.0848.551-.0721s.3689.0623.5362.146.3164.1998.4385.3415c.1222.1418.2149.3064.273.4843z" fill="#dae2ed"/><path d="m61.0166 52.9657 1.0278 3.8558 3.3405-1.1567-1.4133-3.7273z" fill="#b7c2ce"/><path d="m41.1025 86.8964c-8.8651-3.2132-13.3618-1.7994-17.4731 5.3981 13.8757 5.2695 15.1604-.3856 17.4731-5.3981z" fill="#ff7f14"/><path d="m66.1698 79.212-13.1498 3.0128 1.1445 4.9988 13.1497-3.0129z" fill="#b7c2ce"/><path d="m56.3915 87.9245-16.4452 5.6552c-.3466.0888-.7139.0429-1.0279-.1285-1.3849-1.2898-2.2909-3.0118-2.5696-4.884-.6091-1.853-.5176-3.8651.257-5.6552.0861-.1342.1991-.2492.3317-.3377.1327-.0884.2822-.1485.4392-.1764l17.3446-2.0564c.2569-.1285.6423.1285.7708.5141l1.4133 6.2978c.0094.1669-.0355.3323-.1282.4714s-.2281.2443-.3857.2997z" fill="#c5cedd"/><path d="m51.1242 84.1975c.4259 0 .7712-.3452.7712-.7711s-.3453-.7712-.7712-.7712-.7712.3453-.7712.7712.3453.7711.7712.7711z" fill="#b7c2ce"/><path d="m47.2697 84.7115c.4259 0 .7712-.3453.7712-.7712s-.3453-.7711-.7712-.7711-.7712.3452-.7712.7711.3453.7712.7712.7712z" fill="#b7c2ce"/><path d="m44.5712 96.4071c-12.5909 0-17.6015 3.8559-19.5287 14.6519 19.7856.386 18.8863-7.197 19.5287-14.6519z" fill="#ff7f14"/><path d="m63.4239 80.033-10.5557 8.1536 3.127 4.0513 10.5558-8.1537z" fill="#d0d9ea"/><path d="m58.9606 91.2657-12.5909 12.0813c-.2568.196-.5779.288-.8994.257-.8993-.128-2.5695-.899-4.4967-3.341-1.9272-2.4425-2.1841-4.2419-2.0557-5.1415-.0198-.1524.0063-.3071.075-.4445.0686-.1374.1768-.2512.3105-.3267l14.9034-9.2539c.1363-.1022.3077-.1461.4764-.122.1686.0241.3208.1142.423.2506l3.9829 5.141c.0765.1442.1053.3091.0822.4708-.023.1617-.0968.3119-.2107.4289z" fill="#ebeff7"/><path d="m52.1515 90.1092c.4259 0 .7712-.3453.7712-.7712s-.3453-.7711-.7712-.7711-.7711.3452-.7711.7711.3452.7712.7711.7712z" fill="#b7c2ce"/><path d="m49.1965 92.6795c.4259 0 .7711-.3452.7711-.7711s-.3452-.7712-.7711-.7712-.7712.3453-.7712.7712.3453.7711.7712.7711z" fill="#b7c2ce"/><path d="m70.3138 62.0497c.4758-3.875-1.8219-7.3457-5.132-7.7522-3.3101-.4064-6.3792 2.4054-6.855 6.2803-.4758 3.875 1.8219 7.3457 5.132 7.7522 3.3102.4064 6.3792-2.4054 6.855-6.2803z" fill="#dae2ed"/><path d="m67.7917 61.825c.3372-2.7478-1.2735-5.2066-3.5976-5.4921s-4.4816 1.7106-4.8188 4.4583c-.3373 2.7477 1.2734 5.2066 3.5975 5.492 2.3241.2855 4.4816-1.7105 4.8189-4.4582z" fill="#b7c2ce"/><path d="m66.4998 61.6831c.2422-1.9727-.9318-3.7402-2.622-3.9478-1.6903-.2076-3.2568 1.2232-3.499 3.1959-.2421 1.9728.9319 3.7403 2.6221 3.9479 1.6903.2076 3.2568-1.2233 3.4989-3.196z" fill="#ff903e"/><path d="m64.6008 59.2923-.357-.1458c-.1314-.0536-.2814.0094-.335.1409l-1.3108 3.2131c-.0536.1315.0094.2815.1409.3352l.357.1457c.1314.0537.2814-.0094.335-.1408l1.3108-3.2132c.0536-.1314-.0094-.2815-.1409-.3351z" fill="#ff7f14"/><path d="m63.0723 71.8584h6.0384v12.8526c0 .4431-.176.8681-.4892 1.1815-.3132.3133-.738.4894-1.181.4894h-4.3682z" fill="#000"/><path d="m48.6828 55.7929-33.6613-12.3385 5.6531 11.0533c.5236 1.0847 1.2597 2.0532 2.1645 2.848.9049.7948 1.9601 1.3997 3.103 1.7789l26.7236 9.768.8993-2.5705z" fill="#dae2ed"/><path d="m56.3913 54.6361-44.7104-16.3229c-.257-.1285-.514.2571-.3855.5142l1.6702 3.4702c.1956.3583.5155.6326.8994.7711l1.1563.3856 33.6613 12.3385 4.8822 10.5392-.8994 2.5705-.6424 1.9279 11.3061 4.1128 1.5418-4.4984-6.5524-14.1379c-.1835-.3999-.4505-.7559-.7829-1.0441-.3324-.2881-.7225-.5018-1.1443-.6267z" fill="#eceff6"/><path d="m53.565 66.3321-4.8822-10.5392-33.6613-12.3385 1.1563 2.3135 31.3487 11.3103 4.4968 9.8965-.5139 1.5423 1.1563.3856z" fill="#c5cedd"/><path d="m15.3882 40.9124-.1208-.044c-.3335-.1214-.7022.0505-.8235.3841l-.022.0604c-.1214.3335.0506.7023.3841.8237l.1208.044c.3335.1214.7022-.0505.8236-.384l.0219-.0604c.1214-.3336-.0506-.7024-.3841-.8238z" fill="#dae2ed"/><path d="m18.1299 41.9103-.1208-.044c-.3335-.1214-.7022.0506-.8235.3841l-.022.0604c-.1214.3335.0506.7023.3841.8237l.1208.044c.3335.1214.7022-.0505.8236-.384l.0219-.0604c.1214-.3335-.0506-.7023-.3841-.8238z" fill="#dae2ed"/><path d="m56.5049 55.8799-.1208-.044c-.3335-.1214-.7022.0505-.8235.384l-.022.0604c-.1214.3335.0506.7024.3841.8238l.1208.044c.3335.1214.7022-.0506.8236-.3841l.0219-.0604c.1214-.3335-.0506-.7023-.3841-.8237z" fill="#dae2ed"/><path d="m66.6698 69.1593h-7.0663c-.5677 0-1.0278.4604-1.0278 1.0282v3.8687c0 .5678.4601 1.0282 1.0278 1.0282h7.0663c.5677 0 1.0278-.4604 1.0278-1.0282v-3.8687c0-.5678-.4601-1.0282-1.0278-1.0282z" fill="#ff5c5c"/><path d="m69.1107 76.8709h-5.396c-.7156 0-1.4019-.2843-1.9079-.7905-.5059-.5062-.7902-1.1927-.7902-1.9085v-4.2414c0-.7158.2843-1.4023.7902-1.9085.506-.5062 1.1923-.7906 1.9079-.7906h5.396c.14-.0219.2832-.0105.4179.0334.1348.0439.2572.1191.3574.2193s.1753.2227.2192.3575.0553.278.0334.4181v7.583c.0219.14.0105.2833-.0334.4181-.0439.1347-.119.2572-.2192.3575-.1002.1002-.2226.1753-.3574.2192-.1347.0439-.2779.0554-.4179.0334z" fill="#d0d9ea"/><path d="m84.7849 43.4544-.3855 2.0564c1.7508 1.3263 3.2702 2.9331 4.4968 4.7555l1.7987-4.2414c-1.8006-1.2033-3.8023-2.0739-5.91-2.5705z" fill="#ff7f14"/><path d="m88.896 50.2666 1.7987-4.2413 1.6702 4.2413z" fill="#ff903e"/><path d="m257.331 58.2347c-.899 3.7273-4.368 7.8401-5.524 7.326-1.157-.5141-1.67-3.8558-1.414-7.1975.257-3.3417 1.928-6.1692 3.598-6.1692s4.368 1.7993 3.34 6.0407z" fill="#ffe75c"/><path d="m247.181 63.1184c2.056 2.0564 4.883 2.8276 5.268 2.185.385-.6427.257-2.3135-.385-4.3699-.643-2.0564-3.212-5.7837-4.883-5.3981-1.67.3855-3.854 3.5987 0 7.583z" fill="#ffe75c"/><path d="m225.854 53.4795c1.285 2.442 2.441 3.3417 3.34 2.9561 1.076-1.0184 1.759-2.3837 1.928-3.8558.513-3.5987-1.414-8.8683-4.24-7.9686-2.827.8997-2.827 5.5266-1.028 8.8683z" fill="#ffe75c"/><path d="m174.72 23.5323c3.854 1.7993 6.295 1.9279 6.937.6426.643-1.2853.257-3.8558-1.156-6.6834-2.698-5.141-9.893-10.025-12.719-6.1692-2.827 3.8558 1.541 9.6394 6.938 12.21z" fill="#ffe75c"/><path d="m180.63 14.5357c2.569 3.8557 4.882 5.2695 6.167 4.2413 1.284-1.0282 2.441-3.4702 2.569-6.8119.129-3.34165-1.67-9.63942-4.368-11.952893h-5.653c-3.084 2.956103-2.056 9.767983 1.285 14.523493z" fill="#ffe75c"/><path d="m192.064 10.0372c0 4.627.9 7.069 2.57 6.9405 1.67-.1286 3.983-1.4138 6.038-4.1129 2.056-2.699 4.24-9.38239 3.084-12.852593h-8.608c-2.069 2.927993-3.149 6.440153-3.084 10.024993z" fill="#ffe75c"/><path d="m205.297 13.5074c-2.955 3.5987-3.726 6.1692-2.441 7.1974 1.285 1.0283 3.983 1.2853 7.323.5141 6.167-1.5423 13.234-7.9686 9.893-11.95289-3.34-3.98431-10.663-.89968-14.775 4.24139z" fill="#ffe75c"/><path d="m228.809 56.0497c-1.413-.257-1.927-.6426-1.927-1.0282.247-.8154.74-1.5339 1.413-2.0564 2.313-2.0564 9.893-5.3981 9.893-1.7994s-6.424 5.2696-9.379 4.884z" fill="#ffe75c"/><path d="m246.154 60.5479 9.378.3856c2.087.1039 4.113.7363 5.888 1.8379 1.776 1.1015 3.242 2.6361 4.262 4.4598l4.754 8.3542c1.071 1.8562 1.635 3.9617 1.635 6.105s-.564 4.2489-1.635 6.105l-3.597 6.1693c-1.077 1.839-2.616 3.3643-4.464 4.424-1.848 1.0598-3.941 1.6173-6.072 1.6163h-8.608c-1.971-.003-3.913-.484-5.658-1.4017s-3.242-2.2447-4.363-3.8675l-5.653-7.9686c-1.27-1.8238-2.024-3.9569-2.183-6.174-.158-2.217.285-4.4357 1.284-6.4215l3.597-6.9405c1.061-2.0966 2.704-3.8424 4.732-5.0279 2.029-1.1855 4.356-1.7603 6.703-1.6554z" fill="#66bcff"/><path d="m265.682 67.2316c-.726-1.2802-1.685-2.4135-2.827-3.3417-1.565 1.3192-2.774 3.0112-3.515 4.9202-.741 1.9091-.99 3.974-.724 6.0045l1.284 9.768c.303 1.9443 1.052 3.7919 2.189 5.3976s2.631 2.9257 4.364 3.8563h.385l3.598-6.1693c1.071-1.8561 1.635-3.9617 1.635-6.1049 0-2.1433-.564-4.2489-1.635-6.105z" fill="#3892eb"/><path d="m242.685 92.4223 2.569-8.9968c.617-2.2979.621-4.7173.012-7.0173-.608-2.3-1.809-4.4005-3.481-6.0924l-5.524-5.3981c-.657.6657-1.18 1.4509-1.542 2.3135l-3.597 6.9404c-.999 1.9858-1.442 4.2045-1.284 6.4216.159 2.2171.913 4.3502 2.183 6.174l5.653 7.9686c.677.9772 1.5 1.8443 2.441 2.5705 1.178-1.4375 2.052-3.099 2.57-4.884z" fill="#3892eb"/><path d="m205.169 90.7516 9.122 4.3698c2.09 1.0282 4.414 1.4865 6.737 1.3285 2.324-.158 4.564-.9266 6.496-2.2281l8.994-6.0408c1.974-1.332 3.562-3.1635 4.6-5.3081s1.49-4.5259 1.31-6.9018l-.771-9.2539c-.181-2.3965-1.005-4.6999-2.384-6.6677s-3.263-3.5273-5.454-4.5141l-8.865-3.9843c-2.034-.9151-4.268-1.3007-6.491-1.1209-2.224.1797-4.366.919-6.228 2.1491l-8.736 5.6551c-1.911 1.2512-3.47 2.9714-4.527 4.9964-1.057 2.0251-1.577 4.2874-1.512 6.571l.257 9.3824c.091 2.4195.83 4.7701 2.141 6.8052 1.311 2.0352 3.146 3.6801 5.311 4.7622z" fill="#66bcff"/><path d="m220.458 50.3945c-2.905-.178-5.789.5884-8.223 2.1849l-8.736 5.6551c-1.911 1.2512-3.47 2.9714-4.527 4.9965-1.057 2.025-1.577 4.2873-1.512 6.5709v5.5266c17.345-.3855 18.629-6.5548 22.998-24.934z" fill="#3892eb"/><path d="m188.724 64.147 13.104.3856c2.873.0693 5.711-.6334 8.219-2.035 2.509-1.4016 4.595-3.4507 6.042-5.9336l5.268-9.2539c1.433-2.525 2.143-5.3959 2.052-8.2979-.09-2.902-.978-5.7229-2.566-8.1535l-6.681-10.1535c-1.412-2.1966-3.35-4.0055-5.639-5.2624-2.289-1.257-4.855-1.9221-7.465-1.9351h-12.72c-2.741.0046-5.435.7168-7.821 2.0677s-4.383 3.2949-5.798 5.6439l-5.139 8.6112c-1.506 2.4271-2.315 5.2224-2.337 8.0791-.023 2.8567.741 5.6645 2.209 8.1152l6.167 10.2821c1.344 2.3079 3.251 4.2375 5.543 5.6085 2.291 1.371 4.893 2.1388 7.562 2.2316z" fill="#66bcff"/><path d="m179.345 30.0872c1.658 1.8619 3.51 3.5421 5.524 5.0125.524.3502 1.15.5151 1.779.4685.628-.0465 1.223-.3019 1.69-.7255 3.404-3.3161 7.361-6.0128 11.692-7.9686.77-.2571 2.826-1.0282 3.725 0 .333.3551.557.7973.648 1.275.091.4778.045.9716-.134 1.424-2.826 7.8401-5.91 15.8087-13.875 16.7084-7.966.8997-13.362-5.3981-15.932-13.4952-.242-.7035-.372-1.4409-.385-2.185-.015-.453.103-.9003.341-1.2866.237-.3862.582-.6943.992-.8859.411-.1917.869-.2585 1.317-.1921.448.0663.867.2629 1.204.5653z" fill="#fff"/><path d="m187.567 35.3571 1.028 4.8839h-3.597c.128-.8996.642-3.7272.899-4.8839.541.186 1.129.186 1.67 0z" fill="#3892eb"/><path d="m177.931 28.8024 1.414 1.2853-3.341 6.6833c-.667-1.2636-1.184-2.6008-1.542-3.9843-.242-.7035-.372-1.4409-.385-2.1849-.015-.453.103-.9004.341-1.2866.237-.3863.582-.6943.992-.886.411-.1917.869-.2585 1.317-.1921.448.0663.867.2629 1.204.5653z" fill="#3892eb"/><path d="m199.002 27.3882 1.028-.5141c.771-.2571 2.826-1.0282 3.726 0 .332.3551.556.7973.647 1.275.091.4778.045.9716-.133 1.424-.829 2.5022-1.816 4.9491-2.955 7.326z" fill="#3892eb"/><path d="m192.578 31.1159 1.028-.6426 3.212 12.8526-.899.7711z" fill="#8cd9ff"/><path d="m182.428 33.1722-3.597 8.0971-.771-1.0282 3.469-7.8401z" fill="#8cd9ff"/><path d="m202.342 26.3604c.259-.0214.519.0135.763.1022.244.0888.466.2293.65.4119.333.3552.557.7973.648 1.2751s.045.9715-.134 1.424c-2.826 7.8401-5.91 15.8087-13.875 16.7084h-1.542c-7.066 0-12.077-5.9122-14.39-13.4953-.242-.7034-.372-1.4408-.385-2.1849-.018-.3145.029-.6292.138-.9249.108-.2956.276-.5661.492-.7947.217-.2286.477-.4106.767-.5349.289-.1242.601-.188.915-.1875.576.0146 1.126.2438 1.542.6426l1.414 1.2853c1.658 1.8618 3.51 3.5421 5.524 5.0125.518.2613 1.091.3936 1.67.3856.653-.0184 1.283-.2434 1.799-.6427 3.404-3.3161 7.361-6.0127 11.691-7.9686.726-.3328 1.515-.508 2.313-.5141zm0-.5141c-.848.0506-1.678.269-2.441.6426-4.387 1.9236-8.391 4.6231-11.82 7.9687-.192.2159-.431.3858-.698.497-.267.1113-.555.161-.844.1456-.498.0114-.989-.1226-1.413-.3856-2.036-1.394-3.891-3.0345-5.525-4.884-.438-.5029-.91-.9752-1.413-1.4138-.516-.3992-1.146-.6242-1.799-.6426-.369-.0152-.737.0585-1.073.2151-.335.1565-.628.3913-.854.6846-.272.2436-.493.5401-.647.8716-.155.3314-.24.6907-.252 1.0563.11.7836.281 1.5572.514 2.3135 1.067 3.6372 2.957 6.9796 5.524 9.7679 1.184 1.2765 2.614 2.2993 4.204 3.0063s3.307 1.0834 5.047 1.1066h1.542c7.965-.8997 11.306-8.4827 14.261-16.9655.249-.5466.332-1.1539.241-1.7475s-.354-1.1477-.755-1.5942c-.495-.4374-1.139-.6675-1.799-.6426z" fill="#66bcff"/><path d="m182.814 26.874h.128l7.966-.2571c.136 0 .267-.0541.363-.1505.097-.0964.151-.2272.151-.3636 0-.1363-.054-.2671-.151-.3635-.096-.0964-.227-.1506-.363-.1506l-8.094.2571c-.137 0-.267.0542-.364.1506-.096.0964-.15.2272-.15.3635.128.2571.257.5141.514.5141z" fill="#3f99f2"/><path d="m180.372 23.0185c.129 1.5423.643 1.6708 2.056 1.1567 2.167-.6621 4.469-.7506 6.681-.257 2.826.6426 4.497 1.0282 4.24-.8997s-3.341-4.4984-6.938-4.4984-6.296 2.0564-6.039 4.4984z" fill="#fff"/><path d="m180.372 23.0185c.129 1.5423.643 1.6708 2.056 1.1567 2.167-.6621 4.469-.7506 6.681-.257 2.826.6426 4.497 1.0282 4.24-.8997s-3.341-4.4984-6.938-4.4984-6.296 2.0564-6.039 4.4984z" fill="#fff"/><path d="m184.998 57.0781c.136 0 .267-.0541.364-.1505.096-.0965.15-.2272.15-.3636-.074-1.5174.1-3.0367.514-4.4984.129-.257-.128-.5141-.385-.6426s-.514.1285-.643.3856c-.419 1.5923-.592 3.2393-.514 4.884 0 .257.257.3855.514.3855z" fill="#3f99f2"/><path d="m181.144 53.6077.514-.257.642-2.0564c.045-.1199.044-.2522-.004-.3711-.047-.1188-.137-.2157-.253-.2716-.134-.011-.268.0203-.383.0895-.115.0691-.206.1727-.259.2961l-.771 1.9279c-.011.134.02.2681.089.3834.069.1152.173.2059.296.2592z" fill="#3f99f2"/><path d="m190.395 55.5354c.136 0 .267-.0541.363-.1505.096-.0965.151-.2272.151-.3636-.094-1.2179-.31-2.4235-.643-3.5987-.053-.1234-.144-.227-.259-.2962-.116-.0691-.25-.1004-.384-.0894-.257.1285-.514.3856-.385.6426.364 1.0797.58 2.2039.642 3.3417 0 .1364.055.2671.151.3636.096.0964.227.1505.364.1505z" fill="#3f99f2"/><path d="m185.769 18.9058c.829.0658 1.6.4509 2.152 1.0742.551.6232.839 1.4361.803 2.2675 0 .5248-.087 1.0459-.257 1.5423-1.8-.2354-3.627-.1484-5.396.2571-.263-.563-.395-1.1782-.386-1.7994-.017-.422.049-.8433.195-1.2398.146-.3964.368-.7602.654-1.0706.287-.3104.632-.5612 1.015-.7382.383-.1769.798-.2765 1.22-.2931z" fill="#000"/><path d="m277.493 46.1835c1.099-4.1883.32-8.0216-1.739-8.562-2.059-.5403-4.619 2.4168-5.717 6.6051-1.098 4.1882-.319 8.0215 1.74 8.5619s4.618-2.4168 5.716-6.605z" fill="#ffe75c"/><path d="m264.397 44.2255c.129 2.5706 8.737 10.1536 13.234 6.5549 2.441-2.0564-3.726-5.9122-7.195-7.1975-1.302-.5546-2.697-.8598-4.111-.8997-1.157.1286-2.056.5141-1.928 1.5423z" fill="#ffe75c"/><path d="m300.5 78.6707v-24.677l-.257-.2571-8.865-8.3542c-1.503-1.4108-3.362-2.384-5.378-2.8144-2.015-.4304-4.11-.3016-6.057.3724l-11.692 4.1129c-1.82.6331-3.448 1.7211-4.73 3.1607-1.281 1.4397-2.174 3.1832-2.593 5.065l-2.826 13.4952c-.404 1.8957-.309 3.8639.277 5.7115.585 1.8476 1.641 3.5112 3.063 4.8277l8.994 8.3542c1.497 1.3757 3.334 2.3273 5.321 2.7565 1.988.4292 4.053.3207 5.985-.3146l11.82-4.1128c1.634-.6174 3.108-1.5974 4.309-2.8662 1.202-1.2689 2.101-2.7936 2.629-4.4598z" fill="#66bcff"/><path d="m300.5 78.6701v-20.9498h-2.056c-1.933.0005-3.834.4969-5.521 1.442-1.688.9451-3.104 2.3072-4.115 3.9561l-7.195 11.5674c-1.004 1.6553-1.567 3.5409-1.635 5.4763-.067 1.9354.363 3.8557 1.25 5.5769l1.927 3.8558 10.407-3.5987c1.635-.6174 3.108-1.5974 4.31-2.8662 1.201-1.2689 2.1-2.7937 2.628-4.4598z" fill="#3892eb"/><path d="m300.5 65.1752c-2.963.9654-5.475 2.9752-7.066 5.6551l-5.14 8.4828c-1.128 1.8939-1.755 4.0441-1.823 6.2478-.067 2.2037.428 4.3883 1.438 6.3477l4.24 7.8401c.838 1.6293 2.018 3.0593 3.459 4.1903 1.441 1.132 3.11 1.938 4.892 2.365z" fill="#66bcff"/><path d="m296.003 104.633c-.257 1.542-.514 2.185-1.028 2.056-.859-.149-1.636-.606-2.184-1.285-2.312-2.313-6.038-10.025-2.312-10.2821 3.725-.257 5.781 6.5551 5.524 9.5111z" fill="#ffe75c"/><path d="m300.5 104.504v-6.9405c-2.479.286-4.766 1.4757-6.424 3.3415-1.028 1.285-1.285 2.185-1.028 2.699.231.361.532.672.885.915s.751.412 1.171.499c1.809.38 3.691.2 5.396-.514z" fill="#ffe75c"/><path d="m299.857 101.934-8.351-.9c-1.895-.205-3.812.037-5.597.707-1.784.669-3.388 1.748-4.681 3.149l-5.653 6.812c-1.303 1.488-2.172 3.307-2.512 5.256s-.137 3.955.585 5.797l3.083 7.583c.796 2.063 2.159 3.858 3.933 5.178 1.773 1.319 3.885 2.109 6.089 2.276l8.993.9c1.594.196 3.212.065 4.754-.385v-36.245z" fill="#66bcff"/><path d="m290.478 127.381c-.92-1.792-2.27-3.329-3.929-4.473s-3.576-1.859-5.578-2.081l-7.966-.9c.078.968.295 1.921.643 2.827l3.083 7.584c.795 2.063 2.159 3.858 3.933 5.177 1.773 1.32 3.885 2.109 6.089 2.277l8.222.9c-.018-1.474-.37-2.924-1.028-4.242z" fill="#3892eb"/><path d="m258.745 120.313c1.541 1.028 2.441 1.285 2.954.9.39-.26.719-.601.963-1.001.244-.399.398-.847.451-1.313.514-2.956-2.056-10.796-6.553-8.74-4.496 2.057-.899 8.098 2.185 10.154z" fill="#ffe75c"/><path d="m263.241 120.698c-1.413 1.157-2.313 1.285-2.698.771-.568-.968-.794-2.1-.643-3.213.129-3.984 4.112-14.266 7.452-10.925 3.341 3.342-1.028 10.925-4.111 13.367z" fill="#ffe75c"/><path d="m280.329 122.369c-.427-1.694-1.312-3.239-2.559-4.463-1.246-1.224-2.806-2.081-4.507-2.477l-6.938-1.8c-1.604-.385-3.278-.364-4.871.062-1.593.427-3.055 1.245-4.251 2.38l-5.525 5.27c-1.234 1.164-2.143 2.63-2.639 4.252-.496 1.623-.56 3.347-.187 5.002l1.413 6.683c.613 2.402 2.073 4.502 4.111 5.912h20.428l4.754-4.626c1.244-1.208 2.139-2.729 2.591-4.403s.445-3.438-.021-5.108z" fill="#66bcff"/><path d="m255.533 130.338-1.028-5.912c-.223-1.468-.846-2.846-1.799-3.984l-1.028.899c-1.234 1.164-2.143 2.63-2.639 4.252-.496 1.623-.56 3.347-.187 5.002l1.413 6.684c.244.791.544 1.564.899 2.313l1.414-1.157c1.15-.979 2.026-2.239 2.544-3.659.518-1.419.66-2.948.411-4.438z" fill="#3892eb"/><path d="m240.758 115.943c-.129 1.285.128 1.928.513 2.185.33.139.687.199 1.043.177.357-.022.704-.127 1.013-.306 2.056-.771 5.91-5.398 2.827-7.454-3.084-2.057-5.396 2.699-5.396 5.398z" fill="#ffe75c"/><path d="m241.014 117.871c1.157.642 1.799.899 2.184.642.502-.441.861-1.023 1.028-1.671.386-2.185-1.541-7.968-4.882-6.426-3.34 1.542-.514 5.912 1.67 7.455z" fill="#ffe75c"/><path d="m242.813 134.579 4.754-.514c1.111-.159 2.165-.595 3.063-1.269s1.612-1.564 2.076-2.587l2.055-4.884c.452-1.043.618-2.188.483-3.317-.136-1.129-.568-2.202-1.254-3.109l-2.826-3.47c-.678-.93-1.604-1.652-2.671-2.084-1.067-.431-2.233-.555-3.368-.358l-4.625.642c-1.045.205-2.029.648-2.876 1.294-.846.647-1.533 1.479-2.006 2.434l-2.056 4.498c-.445 1.016-.62 2.13-.507 3.234.112 1.103.508 2.159 1.15 3.064l2.569 3.727c.677.945 1.593 1.693 2.654 2.168 1.061.474 2.23.657 3.385.531z" fill="#66bcff"/><path d="m13.608 128.024c1.3131.091 2.581.517 3.683 1.236 1.102.72 2.0014 1.711 2.6124 2.877-.611 1.166-1.5104 2.156-2.6124 2.876s-2.3699 1.146-3.683 1.237c-2.3126 0-4.49676-1.414-6.29545-4.113 1.79869-2.699 3.98285-4.113 6.29545-4.113zm0-1.285c-2.698 0-5.52458 1.671-7.58024 5.141-.07297.091-.11272.204-.11272.321s.03975.23.11272.321c2.05566 3.342 4.88224 5.013 7.58024 5.013 2.6981 0 5.5246-1.671 7.7087-5.013v-.642c-2.1841-3.47-4.8822-5.141-7.7087-5.141z" fill="#fff"/><path d="m13.608 130.209c.3811 0 .7537.113 1.0706.325.317.212.564.513.7098.865.1459.353.184.74.1097 1.114-.0744.374-.2579.718-.5274.987-.2696.27-.6129.454-.9868.528-.3738.074-.7613.036-1.1134-.11-.3522-.146-.6532-.393-.8649-.71-.2118-.317-.3248-.69-.3248-1.071 0-.511.203-1.002.5644-1.363.3615-.362.8516-.565 1.3628-.565zm0-1.285c-.6353 0-1.2563.188-1.7845.541-.5282.354-.9399.855-1.183 1.442-.2431.588-.3067 1.234-.1828 1.857.124.623.4298 1.196.879 1.645.4492.45 1.0216.756 1.6446.88.6231.124 1.2689.06 1.8558-.183.5869-.244 1.0886-.655 1.4415-1.184.3529-.528.5413-1.149.5413-1.785 0-.852-.3384-1.669-.9407-2.272-.6024-.603-1.4194-.941-2.2712-.941z" fill="#fff"/><path d="m34.2929 132.137c-.0279 1.335.3779 2.643 1.1563 3.727-.5424.631-1.2119 1.14-1.9646 1.495-.7528.354-1.5719.546-2.4037.562-.8226.123-1.6623.068-2.4616-.163-.7993-.23-1.5394-.631-2.1699-1.174-.6304-.543-1.1363-1.215-1.4831-1.972-.3468-.756-.5264-1.579-.5264-2.411s.1796-1.655.5264-2.411.8527-1.429 1.4831-1.972c.6305-.543 1.3706-.943 2.1699-1.174s1.639-.286 2.4616-.162c1.6527.044 3.2218.736 4.3683 1.928-.7475 1.099-1.1502 2.397-1.1563 3.727z" fill="#57f287"/><path d="m44.5712 132.137c-.0279 1.335.3779 2.643 1.1563 3.727-.5424.631-1.2119 1.14-1.9646 1.495-.7528.354-1.5719.546-2.4037.562-.8226.123-1.6622.068-2.4616-.163-.7993-.23-1.5394-.631-2.1699-1.174-.6304-.543-1.1363-1.215-1.4831-1.972-.3468-.756-.5263-1.579-.5263-2.411s.1795-1.655.5263-2.411.8527-1.429 1.4831-1.972c.6305-.543 1.3706-.943 2.1699-1.174.7994-.231 1.639-.286 2.4616-.162 1.6527.044 3.2218.736 4.3683 1.928-.7475 1.099-1.1501 2.397-1.1563 3.727z" fill="#ffaed7"/><path d="m51.6375 137.921c3.193 0 5.7815-2.589 5.7815-5.784 0-3.194-2.5885-5.783-5.7815-5.783-3.1931 0-5.7815 2.589-5.7815 5.783 0 3.195 2.5884 5.784 5.7815 5.784z" fill="#3442d8"/><path d="m292.277 4.63916h-12.976c-1.987 0-3.597 1.59394-3.597 3.56017 0 1.96627 1.61 3.56017 3.597 3.56017h12.976c1.987 0 3.598-1.5939 3.598-3.56017 0-1.96623-1.611-3.56017-3.598-3.56017z" fill="#ee4245"/></svg>