<svg xmlns="http://www.w3.org/2000/svg" xmlns:xlink="http://www.w3.org/1999/xlink" width="130" height="98"><defs><path id="a" d="M0 .33h121.704v60.071H0z"/><path id="c" d="M.44 0h64.943v46.043H.44z"/><path id="e" d="M0 63.67h121.704V.46H0z"/></defs><g fill="none" fill-rule="evenodd" transform="translate(4 17)"><g transform="translate(0 .13)"><mask id="b" fill="#fff"><use xlink:href="#a"/></mask><path fill="#7196FF" d="M115.694 28.874a17.673 17.673 0 0 0-2.523-1.74c-6.17-3.497-13.619-3.81-20.722-3.648-13.051.296-24.564-.199-35.042-8.831-7.26-5.982-14.171-13.556-24.19-14.27-20.765-1.48-41.47 27.612-29.88 46.127 4.627 7.392 13.983 10.382 22.71 11.221 26.315 2.529 53.054 5.092 79.058-1.593 4.035-1.038 8.107-2.357 11.386-4.912 7.75-6.04 6.333-16.479-.797-22.354" mask="url(#b)" opacity=".08"/></g><path fill="#7196FF" d="M11.37 22.591a.696.696 0 0 1-.493-.202l-.656-.651a.687.687 0 0 1 0-.977.7.7 0 0 1 .984 0l.657.651a.688.688 0 0 1 0 .977.696.696 0 0 1-.493.202m4.265 4.233a.696.696 0 0 1-.493-.202l-.656-.652a.687.687 0 0 1 0-.976.7.7 0 0 1 .984 0l.657.65a.688.688 0 0 1 0 .978.696.696 0 0 1-.492.202m-.656-4.233a.696.696 0 0 1-.493-.202.688.688 0 0 1 0-.977l.657-.65a.7.7 0 0 1 .984 0 .687.687 0 0 1 0 .976l-.656.651a.696.696 0 0 1-.492.202m-4.265 4.233a.696.696 0 0 1-.492-.202.688.688 0 0 1 0-.977l.657-.651a.7.7 0 0 1 .984 0 .687.687 0 0 1 0 .976l-.656.652a.696.696 0 0 1-.493.202"/><g transform="translate(47.316 17.627)"><mask id="d" fill="#fff"><use xlink:href="#c"/></mask><path fill="#202225" d="M65.383 46.043H18.995L.44 0h46.388c10.248 0 18.555 8.246 18.555 18.417v27.626z" mask="url(#d)"/></g><path fill="#4871E5" d="M66.31 59.066H29.2V36.044c0-10.172 8.308-18.417 18.556-18.417 10.248 0 18.555 8.245 18.555 18.417v23.022z"/><path fill="#FF7150" d="M96 10.72H79.762v29.928h4.64V22.231h5.102c3.587 0 6.494-2.886 6.494-6.446V10.72z"/><mask id="f" fill="#fff"><use xlink:href="#e"/></mask><path fill="#FFE83D" mask="url(#f)" d="M15.284 63.67h51.027v-4.604H15.284z"/><path fill="#B0CDFF" mask="url(#f)" d="M20.851 59.066h37.11V36.965h-37.11z"/><path fill="#FFF" mask="url(#f)" d="M39.406 51.699L20.851 36.965h37.11z"/><path fill="#4871E5" d="M105.042 32.59h-.232a1.387 1.387 0 0 1-1.392-1.38v-.23a.693.693 0 0 0-.696-.691.693.693 0 0 0-.696.69v.23c0 .763-.623 1.382-1.391 1.382h-.232a.694.694 0 0 0-.696.69c0 .382.312.691.696.691h.232c.768 0 1.391.619 1.391 1.381v.23c0 .382.312.691.696.691.384 0 .696-.31.696-.69v-.23c0-.763.623-1.382 1.392-1.382h.232c.384 0 .695-.31.695-.69a.694.694 0 0 0-.695-.691" mask="url(#f)"/><path fill="#B0CDFF" d="M112.912 51.008h5.97l-2.985-5.267-2.985 5.267zm7.16 1.381h-8.35a.696.696 0 0 1-.6-.342.686.686 0 0 1-.006-.687l4.174-7.367a.697.697 0 0 1 1.213 0l4.175 7.367a.686.686 0 0 1-.006.687.696.696 0 0 1-.6.342z" mask="url(#f)"/></g></svg>