<svg fill="none" height="234" viewBox="0 0 240 234" width="240" xmlns="http://www.w3.org/2000/svg"><path d="m97.2148 13.7253c.3188-.1221.5848-.352.7518-.6498.1669-.2978.2244-.6446.1623-.9803s-.2398-.6391-.5022-.8574c-.2625-.2183-.5931-.3379-.9345-.3379s-.672.1196-.9344.3379c-.2625.2183-.4402.5217-.5023.8574s-.0046.6825.1623.9803c.167.2978.433.5277.7518.6498-2.2888 4.6044-9.7428 7.5303-9.7428 7.5303v1.2169 14.7706l3.4065 2.6703h13.7327l3.407-2.6703v-15.9875s-7.4693-2.9259-9.7582-7.5303z" fill="#fee75c"/><path d="m103.558 39.9021h-13.725v6.3973h13.725z" fill="#ffc619"/><path d="m96.696 36.4536c4.165 0 7.542-3.3766 7.542-7.5418 0-4.1651-3.377-7.5417-7.542-7.5417-4.1652 0-7.5417 3.3766-7.5417 7.5417 0 4.1652 3.3765 7.5418 7.5417 7.5418z" fill="#fff"/><path d="m96.9744 23.2509.2937 5.661-.2441-.4654 2.8038 2.3194c.0532.0471.0867.1125.0937.1833.0071.0707-.0127.1415-.0556.1982-.0444.056-.1082.0933-.1788.1046s-.1429-.0043-.2026-.0436l-3.1357-1.8425-.2594-.1526v-.3166l.2899-5.6611c.008-.0687.041-.1321.0927-.1781s.1185-.0714.1877-.0714.1359.0254.1876.0714.0847.1094.0927.1781z" fill="#221f20"/><path d="m103.558 45.9827h-13.7249l-5.9815 5.5237h25.8294z" fill="#fee75c"/><path d="m28.4196 142.69c4.0872 0 7.4006-3.394 7.4006-7.58s-3.3134-7.58-7.4006-7.58-7.4006 3.394-7.4006 7.58 3.3134 7.58 7.4006 7.58z" fill="#fff"/><path d="m203.287 17.4828s11.097-3.0289 19.764 6.7139c8.667 9.7429 16.949 6.3783 16.949 6.3783s-10.079 8.3924-16.404 3.3646c0 0 .946 4.7455 7.851 5.5771 0 0-5.382 4.9591-13.081 3.6621-2.483-.4469-4.779-1.6205-6.595-3.3722-2.903-2.739-9.156-7.6295-16.232-6.9466z" fill="#fcf3b8"/><path d="m203.664 13.8126 1.784.9603-27.945 51.8999c-.128.237-.344.4136-.602.4909s-.536.0491-.773-.0785-.413-.3441-.491-.6018c-.077-.2578-.049-.5357.079-.7727l27.945-51.8999z" fill="#3442d7"/><path d="m206.446 14.6175c.388-.6881-.016-1.6513-.902-2.1513-.887-.5-1.92-.3475-2.308.3406s.016 1.6513.902 2.1513 1.919.3475 2.308-.3406z" fill="#3442d7"/><path d="m104.321 221.491-7.4383-7.485-7.4349 3.872v-40.34c0-.607.904-1.03 1.7738-.832l3.0518.702c1.5248.341 3.101.385 4.6425.13l3.7311-.618c.843-.142 1.663.278 1.663.85z" fill="#221f20"/><path d="m110.585 233.137v-23.083c-.003-2.416-.653-4.787-1.883-6.867-1.229-2.079-2.994-3.792-5.109-4.958-2.903-1.597-5.2144-4.087-6.5922-7.1l-2.7695-6.057c-.3265-.715-.8782-1.302-1.5707-1.673s-1.4875-.504-2.2631-.38l-9.9755 1.603c-.6254.099-1.2658.031-1.8566-.197-.5907-.228-1.1109-.607-1.508-1.1-1.6022-1.996-6.5346-6.772-10.2082-10.27-1.2644-1.203-2.1514-2.748-2.553-4.447-.4017-1.699-.3006-3.478.2908-5.12l.1603-.45c.0048-.002.01-.003.0152-.003.0053 0 .0105.001.0153.003h9.5368c.4737-.001.9429.093 1.3803.275.4373.182.8343.449 1.1679.785l2.0219 4.452c.3111.696.7857 1.307 1.3834 1.781.5977.473 1.3009.795 2.0498.939 1.9891.306 4.0138.298 6.0006-.023l1.3351-.217c2.4641-.41 4.9944-.051 7.248 1.026l2.6169 1.247c.2238.107.473.149.7195.121.246-.028.48-.124.674-.277.195-.154.343-.359.427-.592.084-.234.101-.486.049-.728l-1.9076-8.774 46.8796-.66-1.996 16.468c-.03.282.027.567.163.816.137.248.347.449.602.574.254.125.541.168.822.125.28-.044.54-.173.744-.37l4.509-4.383c1.038-1.012 2.252-1.824 3.582-2.396l26.677-11.505c.449-.194.933-.294 1.423-.294h3.879c.575 0 1.142.137 1.652.402.51.264.95.647 1.281 1.117s.545 1.012.623 1.582c.078.569.017 1.149-.176 1.69l-.248.698c-.78 2.192-1.993 4.204-3.566 5.918-1.572 1.715-3.473 3.096-5.589 4.062l-3.433 1.564-.18.087-18.99 9.919c-.671.35-1.213.904-1.548 1.583l-5.177 10.418c-.354.709-.933 1.281-1.647 1.626s-1.521.444-2.297.281l-2.449-.511c-.523-.108-1.062-.099-1.58.028-.518.126-1.002.366-1.416.703-.413.336-.747.76-.977 1.242-.229.481-.349 1.007-.349 1.54v27.76z" fill="#25309c"/><path d="m131.436 233.137h-.763v-28.9c.002-1.35.272-2.687.796-3.931.524-1.245 1.291-2.372 2.256-3.317.893-.873 1.603-1.915 2.088-3.065s.737-2.385.739-3.634v-25.684h.763v25.688c-.002 1.35-.273 2.687-.797 3.931-.524 1.245-1.29 2.372-2.255 3.317-.892.872-1.602 1.914-2.087 3.063-.485 1.15-.737 2.384-.74 3.632z" fill="#3442d9"/><path d="m114.812 233.137h-.763v-37.167c-.002-1.248-.254-2.484-.74-3.634-.486-1.151-1.197-2.192-2.091-3.064-.964-.945-1.73-2.073-2.254-3.317-.524-1.245-.795-2.581-.797-3.931v-17.418h.762v17.414c.004 1.248.257 2.484.743 3.634s1.195 2.192 2.088 3.065c.965.944 1.732 2.072 2.256 3.316.524 1.245.795 2.581.796 3.932z" fill="#3442d9"/><path d="m137.323 233.137h-.763v-16.853c0-2.587 1.281-3.739 4.154-3.739v.763c-2.812 0-3.391 1.191-3.391 2.976z" fill="#3442d9"/><path d="m213.747 157.808-36.519-96.8295c-.533-1.4163-.519-2.9811.042-4.3869l1.61-4.0284c.131-.3254.173-.6795.123-1.0265s-.191-.6747-.408-.9501-.502-.4887-.828-.6186c-.326-.1298-.68-.1715-1.027-.1209h-21.069c-.193-.0286-.39-.0286-.583 0h-62.8556l-3.3188 4.2992 34.1574 92.0147-4.403 11.647z" fill="#fee75c"/><path d="m92.6216 56.5916 1.6098-4.0283c.1306-.3258.173-.6803.1228-1.0277-.0501-.3474-.1911-.6754-.4085-.9509-.2175-.2755-.5038-.4888-.8301-.6183-.3262-.1295-.6808-.1706-1.0281-.1192l-6.0043.8774c-2.9993.4348-6.0455.4348-9.0448 0l-6.0082-.8774c-.3469-.0506-.701-.0089-1.0267.1209s-.6114.3431-.8284.6185-.3576.6031-.4076.9501-.0077.7011.1227 1.0266l1.6098 4.0283c.5639 1.405.5803 2.9705.0457 4.387l-36.5184 96.8294h95.0667l-36.5182-96.8294c-.5345-1.4165-.5182-2.982.0458-4.387z" fill="#ffc619"/><path d="m86.5032 55.7522h-9.7314c-.395-.0007-.7808.1196-1.1054.3446-.3246.2251-.5725.5441-.7104.9143l-37.5751 100.8079h88.3601l-37.422-100.8079c-.1389-.3696-.387-.688-.7114-.9129s-.7097-.3456-1.1044-.346z" fill="#fff"/><path d="m80.6397 92.2784c-.0343-.3128-1.8349 31.2316-6.5918 35.6716 0 0 8.0109 2.377 16.1363 4.177 0 0-6.1608-7.08-9.5445-39.8486z" fill="#221f20"/><path d="m108.808 159.467c-6.668-11.559-15.9458-32.723-22.2973-67.9021-2.2639-12.4019-3.8544-24.9173-4.7646-37.4912l.7629-.042c.0382.6485 3.9445 65.1523 26.959 105.0573z" fill="#fef3d5"/><path d="m118.341 157.987c-24.4144-45.258-32.8068-103.1465-32.9098-103.7264l.7629-.1068c.0839.5798 8.484 58.3352 32.8069 103.4712z" fill="#fef3d5"/><path d="m39.8487 161.581-.6675-.382c31.441-56.839 38.3075-106.5529 38.3723-107.0489l.763.0992c-.084.5112-6.9505 50.3317-38.4678 107.3317z" fill="#fef3d5"/><path d="m50.0034 159.826-.6523-.382c6.9313-11.474 16.8191-32.596 24.5783-68.0391 2.7663-12.5069 4.8876-25.1478 6.3553-37.8727l.763.0763c-1.4705 12.7504-3.5955 25.4168-6.3668 37.949-4.2878 19.6075-12.0546 47.3825-24.6775 68.2685z" fill="#fef3d5"/><path d="m87.2847 52.3611h-10.315v3.3798h10.315z" fill="#ffc619"/><path d="m216.497 164.854h-188.2605c-.9038 0-1.7926-.232-2.5808-.674-.7883-.443-1.4496-1.08-1.9205-1.852l-.6104-.995c-.2186-.349-.3394-.749-.3497-1.16-.0102-.411.0904-.818.2915-1.176.201-.359.4949-.657.8508-.863.356-.206.7608-.312 1.172-.307h194.9746c.453-.007.898.12 1.278.366.381.245.68.599.86 1.014.18.416.232.876.15 1.322-.082.445-.294.856-.609 1.181l-1.4 1.484c-.494.525-1.09.942-1.751 1.228-.662.285-1.374.432-2.095.432z" fill="#221f20"/><path d="m49.6222 68.3181c.0913-.0069.1818-.021.2709-.0419.103-.0191.2098-.0611.3166-.0878.2208-.0709.4363-.1576.6447-.2594.2136-.0915.412-.2327.6218-.3433s.3815-.2709.5875-.4234c.206-.1526.3814-.309.5531-.4807l.5226-.5303c.3271-.3794.6327-.7767.9156-1.1902.3013-.4043.5302-.8621.7934-1.3008s.4463-.9155.6676-1.3809.3815-.9575.5569-1.4458l.4693-1.4801c.0157-.0472.0492-.0863.0934-.1091s.0955-.0275.1431-.013c.045.0142.0831.0449.1064.0859.0234.0411.0303.0894.0195.1354l-.3548 1.5259c-.1374.5073-.3014 1.0109-.4502 1.5259-.1487.515-.3814.9956-.576 1.4877-.2163.4917-.4582.9718-.7248 1.4382-.2671.4726-.5627.9287-.885 1.3656l-.5302.6333c-.1832.206-.3815.3815-.5799.5951-.1983.2136-.4272.3815-.6447.5455-.2174.164-.4539.3357-.7133.473-.2456.1438-.5005.2713-.763.3815-.1411.0496-.2746.1106-.4234.1526-.1633.0521-.3304.0917-.4997.1182h-.0191c-.1805.0214-.3623-.0286-.5066-.1391-.1443-.1106-.2397-.2731-.2661-.453-.0263-.1799.0186-.3629.1251-.5102.1065-.1474.2663-.2473.4454-.2786z" fill="#221f20"/><path d="m59.4105 62.4854c0 2.6703-1.6594 4.8599-2.6703 4.8599s-.969-2.1782-.969-4.8599c0-2.6818-.0343-4.8638.969-4.8638s2.6703 2.1782 2.6703 4.8638z" fill="#fff"/><path d="m59.0521 65.2473c-.4654 1.7853-1.9455 2.9488-2.6093 2.7733s-.2708-1.6136.1945-3.4027c.4654-1.7892.8202-3.2388 1.4878-3.0518.6676.1869 1.3924 1.8921.927 3.6812z" fill="#221f20"/><path d="m86.209 124.913s-11.0895-6.454-15.484 3.743c-4.448.644-6.1036 2.865-6.1036 2.865s-1.8769-7.607-5.2338-9.472c-.2901-.156-.5317-.389-.6986-.673-.1668-.284-.2524-.608-.2475-.937.0306-1.236-.8201-3.361-2.9106-3.434-.7286-.026-.8545-1.167-.6828-1.876.6408-2.64 1.2626-6.89-3.7652-11.891-2.3789-2.337-4.1224-5.243-5.0659-8.4419-.5004-1.5546-.9005-3.1397-1.1979-4.7455-.0547-.3315-.037-.6709.0519-.9948.0889-.324.2469-.6249.4631-.882.4692-.5494.8583-1.4077 0-2.3347-.4236-.4437-.6647-1.0307-.6752-1.6441-.0018-.3272.0651-.6512.1966-.9509.1314-.2996.3244-.5683.5664-.7886 2.9869-2.6703 13.115-12.1232 5.3406-11.3832 0 0 .1755-19.3292-21.2977-14.4311-21.47308 4.8981-18.9821 19.7107-13.9619 22.6023 0 0-11.29157-1.5259-.1182 5.6267 9.0638 5.7869 9.1172 4.4098 8.8845 8.442-.0081.1111-.046.218-.1098.3093s-.151.1637-.2526.2095c-.5684.2518-1.5526.9232-.5799 2.3461.0835.1117.1254.249.1184.3883s-.0623.2718-.1565.3746c-.8545.9537-2.7466 3.716.8163 6.649 1.2384.989 2.2955 2.186 3.1243 3.536 1.8692 3.151 3.9902 8.938 1.9074 17.315-2.575 10.434-2.0485 14.34 1.9073 18.311.5986.592.9791 1.369 1.0796 2.205.1869 1.621 1.4916 4.345 8.1483 4.326 1.1405-.011 2.2417.416 3.0765 1.193.8347.778 1.3393 1.846 1.4096 2.984.0954 1.793.7629 3.597 2.903 4.356h50.9305z" fill="#88d2ff"/><path d="m8.57171 65.7239s-.29757-2.9145 2.79619-3.2425c2.1973-.2365 2.7466-2.2889 2.8801-3.4943.1028-1.0654.4084-2.1013.9003-3.0518 1.0452-1.957 3.2349-4.448 7.5379-4.0932 1.6975.1662 3.4104-.0622 5.0049-.6676.8246-.314 1.5886-.7683 2.2583-1.3428 1.8349-1.6365 4.6655-1.4114 6.4851-.2937.9651.5736 2.0375.9435 3.151 1.0872l.4959.0725c.8182.1126 1.5778.4877 2.1646 1.069s.969 1.3373 1.0894 2.1544v.0839l-6.302 5.3903-13.878 4.5509-11.6807 4.1009z" fill="#25309c"/><path d="m47.7146 55.7522c-.1587-.103-.323-.1973-.4921-.2822-.0137-.1966-.043-.3918-.0877-.5837-.3815-1.564-1.7166-1.6975-2.491-1.6365-.3893.0332-.7814.0088-1.1635-.0725-3.0518-.6523-5.0774 1.3581-5.9892 2.6169-.205.283-.4774.5103-.7925.6615-.315.1512-.6628.2215-1.0118.2045h-.3014c-.3681-.0176-.7356.0473-1.0754.1898-.3399.1426-.6437.3592-.8892.6341l-.2212.2442c-.5597.6261-1.2451 1.127-2.0116 1.4701-.7664.3432-1.5967.5207-2.4364.5212h-4.3068c-1.2839.0013-2.5294.4384-3.5325 1.2398l-2.4376 1.9607c-1.5827 1.267-3.5497 1.9572-5.5771 1.957h-2.4605c-3.28068-.1831-4.10849 1.2398-4.10849 2.5978 0 1.2703.78583 2.2889 1.44578 2.9107-.16404.9765-.03434 3.2425 4.45561 3.6735-.1133-.6222-.1784-1.2522-.1946-1.8844.0004-.0721.0257-.1419.0716-.1975.0458-.0556.1095-.0936.1802-.1077.7106-.1368 1.3787-.4401 1.9493-.885l.3319-.2556c1.3228-1.0234 2.985-1.5061 4.6502-1.3504l.4921.0457c.8028.0766 1.6127-.0174 2.3766-.2757.7639-.2584 1.4646-.6753 2.0561-1.2234l.763-.7172c1.1934-1.1055 2.7601-1.72 4.3869-1.7205h1.5564c1.0176 0 2.0025-.3593 2.7809-1.0147l1.2398-1.0452c1.3304-1.1215 2.9604-1.8284 4.6883-2.0333l2.4758-.2975c.6895-.0799 1.361-.2733 1.9875-.5722l-.0496.0801c.1106-.1755 2.224-.9422 3.2463.1678.0229-.0343 2.9373-3.4943.4959-5.0202z" fill="#3442d9"/><g fill="#25309c"><path d="m10.6467 67.7992c-.1839-1.0154-.0014-2.063.515-2.9564h-.8545c-.47123.9682-.61451 2.0635-.40817 3.1204.32047 1.4305 1.36947 2.6703 3.12427 3.666.2948-.1071.5774-.2452.8431-.412-1.8387-.9461-2.9221-2.0905-3.2197-3.418z"/><path d="m16.247 67.1964c-.3943-.9114-.5033-1.9208-.3128-2.8954-.2671.0954-.5341.1831-.8088.2518-.1336 1.0085.0143 2.0343.4273 2.964.3818.7879.9714 1.4566 1.7052 1.9341.4314-.0922.8711-.1407 1.3122-.145-1.0066-.3948-1.8333-1.1455-2.3231-2.1095z"/><path d="m25.8637 66.4602c-1.6403-.6791-2.7237-1.6365-3.2043-2.8611-.4022-1.1868-.3698-2.4779.0915-3.643-.3185.0991-.6275.2268-.9231.3814-.3312 1.1596-.2898 2.3939.1182 3.5287.5188 1.3198 1.5984 2.3613 3.212 3.1128.2219-.1905.4578-.3639.7057-.5188z"/><path d="m37.7962 61.7642c.6676-1.8196.7096-3.2959.1068-4.3869-.2393-.4264-.575-.7908-.9804-1.0643-.3081.1953-.6617.307-1.0261.3242.5661.2013 1.0421.5975 1.3428 1.1178.5493.9994.3814 2.5215-.4273 4.406.3198-.1519.6485-.2844.9842-.3968z"/><path d="m44.8038 53.2231h-.1526c-.2234.0172-.4479.0172-.6713 0 .5597 1.255.7493 2.6436.5465 4.0027-.2027 1.359-.7894 2.6318-1.691 3.6688.309-.0763.618-.1679.8355-.2327.142-.0454.2798-.1028.412-.1717.6901-1.0664 1.1155-2.2822 1.2409-3.5462s-.0528-2.5397-.52-3.7209z"/><path d="m46.8449 60.4253c.6904-1.4059 1.0802-2.9402 1.1444-4.5052-.0882-.0612-.1799-.1173-.2746-.1678-.1587-.1031-.323-.1973-.4921-.2823-.042 1.3122-.2747 3.1815-1.1215 4.7302.26.0268.5125.1032.7438.2251z"/><path d="m12.0508 72.1899c-1.5742-.2269-3.05802-.8739-4.29542-1.873l.03435.0343c-.05558.3181-.05558.6433 0 .9613 1.27734.8955 2.75487 1.464 4.30297 1.6556-.019-.2479-.0381-.515-.0419-.7782z"/></g><path d="m46.7723 64.5262c.3699-.3478.7047-.7311.9995-1.1444.1481-.2071.2843-.4223.4082-.6447.1258-.2289.2174-.4311.3357-.7019.4463-1.0338.8926-2.0714 1.3809-3.0976.4785-1.0421 1.0345-2.0469 1.6632-3.006.3223-.4926.707-.9413 1.1444-1.3352.2351-.2044.5035-.367.7935-.4806.3056-.1159.6385-.1397.9575-.0687.0536.0106.1008.0421.1312.0876.0304.0454.0415.101.0309.1546-.0106.0537-.0421.1009-.0875.1313s-.1011.0415-.1547.0309c-.2449-.0166-.4902.0253-.7157.1221s-.4247.2459-.5813.4348c-.3673.3893-.6815.8255-.9346 1.297-.5263.97-.9777 1.9788-1.3504 3.0175-.3815 1.0414-.763 2.1019-1.1025 3.1662-.0912.2885-.1995.5713-.3242.8469-.1282.2795-.2735.5508-.4349.8125-.3178.5284-.6884 1.023-1.1063 1.4763-.1376.1487-.3286.2367-.5311.2446s-.3997-.065-.5485-.2026c-.1487-.1376-.2367-.3287-.2445-.5311-.0079-.2025.065-.3998.2026-.5485.0117-.0136.0245-.0264.0381-.0381z" fill="#221f20"/><path d="m56.7291 52.7844c0 3.4104-2.1019 6.1722-3.376 6.1722s-1.2284-2.7618-1.2284-6.1722-.0419-6.1684 1.2284-6.1684 3.376 2.7618 3.376 6.1684z" fill="#fff"/><path d="m56.2064 55.8935c-.4082 2.3728-2.2049 4.0513-3.0937 3.8987s-.5264-2.0752-.1183-4.448c.4082-2.3727.7057-4.3106 1.5908-4.158.885.1526 2.0256 2.3308 1.6212 4.7073z" fill="#221f20"/><path d="m23.9105 76.9392s-2.5673 16.2241 10.2998 8.1521z" fill="#fff"/><path d="m22.8159 82.8788v-.3815l-.1831-.3319c.2518-.1564 3.3226-2.5787 5.3406-4.1656l.4769.5951c-5.4208 4.2839-5.4551 4.2839-5.6344 4.2839z" fill="#88d2ff"/><path d="m24.0636 86.5981-.1679-.3395-.2556-.2861c.2366-.2289 3.6698-4.303 5.9205-6.9886l.5836.4921c-5.9052 7.0344-5.9929 7.0763-6.0806 7.1221z" fill="#88d2ff"/><path d="m31.2362 80.7009-4.5277 7.6043.6555.3903 4.5277-7.6043z" fill="#88d2ff"/><path d="m32.7269 82.3376-2.7196 5.5196.6844.3372 2.7196-5.5196z" fill="#88d2ff"/><path d="m60.8489 162.355c.6111-.284 1.1065-.769 1.4038-1.373.1791-.308.4256-.57.721-.769.2954-.198.6319-.327.9842-.376 1.1222-.137 2.1814-.594 3.0518-1.316.5282-.462 1.2052-.72 1.9073-.725h29.7015l-5.6305-6.824c-2.018.725-5.9701-2.289-8.6785-5.429-.3815-.419-.6905-.816-.988-1.186-.1663-.209-.3925-.362-.6482-.438-.2557-.077-.5286-.073-.7823.01-.2536.083-.4758.241-.6368.454-.1609.213-.2529.47-.2635.737-.084 2.888.2594 4.959-.2556 6.31-.2518.656-1.9074 3.711-5.3406 1.144l-1.6861-3.559c-.0906-.192-.2268-.359-.3969-.486-.17-.127-.3686-.21-.5784-.243-.2097-.032-.4243-.013-.6247.057s-.3806.188-.5249.344l-.1335.141c-.1464.15-.3269.262-.526.327-.1992.065-.4112.081-.6178.046s-.4016-.12-.5685-.246c-.1668-.127-.3005-.292-.3896-.482l-.9499-2.041c-.1203-.26-.3223-.473-.5752-.607-.2529-.135-.5429-.183-.8255-.137-.2827.046-.5427.183-.7402.39-.1975.208-.3218.474-.3539.759l-.4234 3.692c.061 3.476-3.1319 6.466-5.0584 5.65-1.2779-.546-2.4147-1.297-3.4332-3.315 0 0-4.6807-8.511-11.5052-7.778 0 0-5.2529 1.144-7.7706-7.676-2.5178-8.819-7.0535-6.286-6.4851 0 .3815 4.323-1.564 1.767-2.8305-.251.1803 2.152 1.1618 4.159 2.7504 5.623.5796.579.9431 1.34 1.03 2.155.1869 1.625 1.4992 4.356 8.1902 4.326 1.1429-.001 2.2421.439 3.0696 1.227.8274.789 1.3197 1.866 1.3746 3.007.0572 1.084-.0267 2.06.7438 3.319.607.895 1.4584 1.597 2.4529 2.022.4234.221.7824.548 1.0424.949.2599.401.412.863.4415 1.34v.679c-.0096.999-.1929 1.989-.5417 2.926-.3543.94-.5702 1.927-.6408 2.929.0236.57.2665 1.108.6778 1.502.4112.395.9591.615 1.529.615s1.1177-.22 1.529-.615c.4113-.394.6541-.932.6778-1.502-.0709-1.002-.2854-1.988-.637-2.929-.3506-.936-.534-1.927-.5417-2.926v-.988c.0013-.265.0969-.521.2696-.721.1726-.201.4111-.333.6726-.374.1845-.04.3763-.028.5546.034s.3361.171.4563.317c.2747.335.5684 1.274 1.1711 1.968.1602.187.3815.439.5875.706.706.869 1.0912 1.955 1.091 3.075v.648c-.0105 1.354-.2691 2.695-.7629 3.956-.5267 1.343-.8482 2.757-.9537 4.196-.0144.402.0524.803.1963 1.179.144.375.3621.718.6414 1.007.2793.29.6141.52.9843.677.3703.158.7684.239 1.1706.239.4023 0 .8004-.081 1.1706-.239.3703-.157.7051-.387.9844-.677.2793-.289.4974-.632.6413-1.007.144-.376.2107-.777.1964-1.179-.1055-1.439-.427-2.853-.9537-4.196-.4939-1.261-.7525-2.602-.7629-3.956v-1.526c.02-.579.2177-1.139.5664-1.602s.8315-.808 1.3829-.988z" fill="#88d2ff"/><path d="m6.7291 102.311s8.503-4.8562 13.1646 4.925c0 0 7.1717-8.4498 17.4753-1.835l-17.5477 6.279-11.98213-7.63-1.22833-.915z" fill="#fff"/><path d="m7.18333 101.59 11.35647 8.171c.1639.117.3527.193.5514.224.1987.03.4018.014.593-.048l18.2535-6.035c.127-.046.2625-.062.3967-.049.1343.014.2638.057.3793.126.1154.07.2139.165.2882.277.0743.113.1225.241.1413.374l2.0332 14.557c.0298.216-.0189.435-.1373.618-.1183.183-.2984.317-.5074.378l-17.0747 4.494c-.1707.045-.3486.054-.5231.028s-.3418-.088-.4916-.181l-11.3489-7.099c-.1771-.11-.3116-.277-.3814-.473l-4.94012-14.332c-.06869-.185-.07497-.388-.01791-.577.05707-.19.17436-.355.33407-.472.15972-.116.35313-.178.55082-.174.19769.003.38886.071.54447.193z" fill="#d8549b"/><path d="m19.8937 107.583c-.0711 0-.1405-.022-.1986-.063s-.102-.099-.1257-.166c-.0381-.095-3.643-9.8687-9.2011-10.1395-.0482.002-.0964-.006-.1414-.0236-.0449-.0176-.0857-.0444-.1197-.0786-.0341-.0343-.0606-.0753-.0779-.1204-.0172-.0451-.0249-.0933-.0225-.1415s.0148-.0954.0365-.1386c.0217-.0431.0521-.0813.0893-.112.0373-.0307.0806-.0533.1271-.0664.0464-.013.0951-.0162.1429-.0094 2.5483.1221 4.9592 1.9531 7.2251 5.447 1.0355 1.624 1.9046 3.348 2.5941 5.147.0157.043.0228.088.0207.134-.002.046-.0131.091-.0326.132-.0195.042-.0471.079-.081.11-.034.031-.0737.054-.117.07-.0378.014-.0779.02-.1182.019z" fill="#fff"/><path d="m22.3813 122.644c-.0872.002-.1725-.025-.242-.078-.0694-.053-.1186-.128-.1395-.212l-2.552-10.586c-.017-.096.0031-.194.0562-.275.0531-.082.1352-.14.2295-.162.0944-.023.1939-.009.2783.039s.1473.126.176.219l2.5521 10.585c.0229.099.0061.202-.0468.288-.0529.085-.1376.147-.2355.17-.025.007-.0505.011-.0763.012z" fill="#221f20"/><path d="m46.528 143.438c-.3171-.004-.6251-.107-.8812-.294-.2271-.177-.4253-.388-.5875-.626-.3433-.461-.5646-.721-1.0376-.656-.2836.045-.5736.025-.8484-.059-.2748-.083-.5272-.227-.7385-.421-.3147-.323-.5599-.707-.7206-1.128-.1608-.422-.2336-.871-.214-1.322.0015-.05.0128-.099.0334-.145.0206-.045.0499-.087.0864-.121s.0794-.061.1262-.079c.0469-.018.0968-.026.1469-.025.0501.002.0994.013.1451.034.0457.02.0869.05.1213.086.0343.037.0612.08.079.126.0178.047.0261.097.0246.147-.0162.341.0358.682.1531 1.002s.2974.614.5298.864c.1285.12.2832.21.452.261.1687.05.3469.062.5207.032.9422-.125 1.4115.496 1.751.95.1137.174.2526.329.412.462.0878.068.1903.116.2995.138.1092.023.2221.02.3299-.008.1878-.069.3594-.176.5044-.314.145-.137.2603-.303.3387-.487.0216-.046.052-.087.0895-.12.0374-.034.0812-.06.1287-.077.0475-.016.0979-.023.1481-.02.0503.002.0995.015.1448.037.0909.044.1608.122.1944.217s.0282.2-.0151.291c-.1244.285-.3082.54-.5391.749-.2309.208-.5036.365-.7999.46-.1232.032-.2502.047-.3776.046z" fill="#6ec7ff"/><path d="m21.9575 77.8778h-.0496c-.1001-.0133-.1908-.0657-.2523-.1458s-.0888-.1813-.0758-.2814c.1908-1.3733.6638-2.2202 1.4115-2.5101 1.0567-.412 2.182.4959 2.2278.5379.0775.064.1265.156.1365.256s-.0199.1999-.0831.278c-.0318.0389-.0709.0712-.1151.0949-.0443.0238-.0928.0386-.1427.0435-.05.005-.1005 0-.1485-.0146-.0481-.0145-.0928-.0385-.1316-.0704-.2289-.1869-.9346-.6218-1.4687-.412-.4615.1793-.7629.8393-.9308 1.9074-.0153.0889-.0616.1695-.1308.2275-.0691.0579-.1566.0895-.2468.0891z" fill="#6ec7ff"/><path d="m19.4058 87.342 9.3804 4.4671c.1195.0562.2179.149.2812.2649.0632.1159.0879.2489.0704.3798-.0174.1309-.076.2528-.1673.3481-.0914.0954-.2107.1591-.3407.1821l-4.7226.8469s2.3536-2.5521-4.5014-6.4889z" fill="#221f20"/><path d="m22.7551 130.998h-.019c-.3921.014-.7844-.021-1.1673-.107-1.4623-.335-2.7964-1.087-3.8415-2.163-1.6403-1.652-3.0518-4.394-3.2616-8.82-.2632-5.691-2.0027-8.281-3.3722-9.422-.1014-.088-.2295-.138-.3634-.144s-.2659.034-.3745.112c-.1086.079-.1875.192-.2239.321s-.0281.266.0234.39c.8507 2.056 2.0103 6.127 1.194 11.879-1.1101 7.801.8659 12.001 4.8943 12.993.679.168.6027-1.526.7133-.824.1717 1.087.9003 2.583 3.563 2.857.3666.053.7214.167 1.0491.34" fill="#88d2ff"/><path d="m75.8599 141.74c-.4933-.001-.979-.122-1.4155-.351-.4365-.23-.8108-.563-1.0908-.969-.0498-.082-.0664-.181-.0466-.275.0198-.095.0746-.178.1534-.234.0788-.055.1757-.079.2713-.066.0955.013.1826.062.2437.136.2183.313.5104.568.8504.741.3401.173.7175.259 1.0989.251.8965-.023 1.7205-.576 2.3232-1.526.0198-.051.0507-.098.0904-.137.0398-.039.0875-.068.1398-.086.0523-.019.108-.025.1632-.02s.1086.023.1563.051c.0478.028.0889.066.1205.112.0315.045.0527.097.0621.152s.0068.111-.0077.164c-.0145.054-.0404.103-.0761.146-.7629 1.198-1.7929 1.873-2.9488 1.907z" fill="#6ec7ff"/><path d="m48.2831 115.804c-.1371-.001-.2738-.015-.4082-.042-.3125-.064-.6071-.196-.8634-.385-.2564-.19-.4681-.434-.6205-.714-.3309-.587-.438-1.274-.3014-1.934.0095-.05.0288-.098.0568-.14.0279-.043.064-.08.1062-.108.0421-.029.0895-.049.1394-.06.05-.01.1014-.01.1515-.001.0501.01.0979.029.1405.057s.0794.064.1081.106.0487.09.0591.14.0108.101.0013.151c-.1015.481-.027.981.2098 1.412.0994.184.2379.346.4059.471.168.126.3615.214.5669.257.1939.035.3929.03.5849-.014.1921-.044.3733-.126.5328-.241.2046-.151.3773-.341.5082-.559.131-.218.2175-.46.2548-.712.225-1.358-.29-2.971-.5951-3.933-.0992-.305-.1755-.541-.2137-.721-.0207-.101-.0004-.206.0565-.292.0568-.087.1456-.147.2468-.167.1012-.021.2065-.001.2927.056s.1463.146.167.247c.0305.137.1068.381.1907.645.3281 1.03.8774 2.75.6218 4.291-.0551.354-.1808.693-.3696.997-.1887.304-.4366.567-.729.773-.3808.269-.8346.416-1.3008.42z" fill="#6ec7ff"/><path d="m35.6527 77.3781c.0763-.0458.206-.1259.309-.2022s.2174-.1602.3242-.248c.2213-.164.4273-.3547.6333-.5417.206-.1869.4043-.3814.5874-.6065l.2862-.3128.2632-.3319c.7051-.9042 1.2982-1.8905 1.7662-2.9373.2022-.5417.4425-1.072.5913-1.6327.0763-.2823.1793-.557.2403-.8393l.1831-.8583c.064-.2856.1112-.5748.1412-.8659l.1144-.8736c.0496-.5875.061-1.175.0954-1.7662v-.0191c.0014-.0271.0082-.0536.0199-.078.0118-.0245.0282-.0463.0484-.0644s.0438-.032.0694-.0409c.0256-.009.0527-.0128.0797-.0113.0517.0038.1001.0265.1361.0638.0359.0374.0567.0866.0584.1384 0 .5989.0458 1.2017.042 1.8082l-.0457.9079c-.0083.3026-.0337.6044-.0763.9041l-.1221.9079c-.042.3014-.1221.5951-.1831.8965-.1311.5995-.2941 1.1917-.4883 1.7738-.4153 1.17-.9726 2.2846-1.6594 3.3188l-.2632.3815-.29.3815c-.1831.2556-.3814.4844-.6065.7248-.2121.2376-.4362.4642-.6714.679-.1144.1106-.2365.2174-.3624.3204-.1325.1145-.2713.2215-.4158.3205-.0822.0573-.1748.0979-.2727.1195-.0978.0216-.199.0236-.2976.0061-.0987-.0175-.1929-.0543-.2773-.1083-.0845-.0539-.1574-.124-.2148-.2062-.0574-.0821-.098-.1748-.1195-.2726-.0216-.0979-.0236-.199-.0061-.2977.0175-.0986.0543-.1929.1083-.2773.0539-.0844.124-.1574.2061-.2148l.0496-.0343z" fill="#221f20"/><path d="m45.0442 68.0396c.1145 3.4027-1.9073 6.2371-3.17 6.279-1.2627.042-1.3199-2.7199-1.4343-6.1264-.1145-3.4066-.248-6.1646 1.0223-6.2066s3.4714 2.6474 3.582 6.054z" fill="#fff"/><path d="m44.8991 70.7937c-.2441 2.3613-1.9074 4.1275-2.7847 4.036-.8774-.0916-.6524-2.0066-.4082-4.3679.2441-2.3613.4158-4.284 1.297-4.1962.8812.0877 2.1439 2.1629 1.8959 4.5281z" fill="#221f20"/><path d="m60.8448 156.591c-.1564 0-.3166 0-.4768-.023-2.1973-.21-4.1314-4.227-4.1504-4.265-.5455-1.274-4.9935-7.915-11.5091-6.721-.1793.042-4.8142 1.018-7.4006-8.057-1.194-4.196-3.0784-5.684-4.4174-5.31-1.236.343-2.0676 2.346-1.3237 5.108.534 1.972 0 2.67-.5341 2.903-1.0566.461-2.7046-.672-3.521-1.976l.6447-.405c.7324 1.168 2.0447 1.908 2.5711 1.683.3624-.161.3815-.908.103-2.007-.9002-3.342.2823-5.608 1.8578-6.042 1.5755-.435 3.9254.827 5.3406 5.836 1.2513 4.391 2.9717 6.199 4.1962 6.947 1.2894.786 2.2889.583 2.3194.572 7.1068-1.305 11.7455 5.722 12.3635 7.168.3281.763 2.0486 3.666 3.521 3.815 3.7957.381 4.5319-4.361 4.6426-5.314l.4234-3.689c.0414-.367.2018-.711.4567-.978.2548-.268.5902-.445.955-.504.3647-.059.7388.002 1.0652.176.3265.173.5873.448.7427.783l.9499 2.041c.0626.134.1568.25.2743.339.1176.09.2551.149.4007.174.1456.024.2949.013.4351-.033.1403-.047.2672-.126.37-.232l.1374-.137c.1845-.201.416-.353.6737-.442.2576-.089.5334-.113.8026-.069.2712.041.5282.148.7483.311.2202.164.3968.379.5143.627l1.2093 2.552c.1882.42.4671.792.8168 1.091.3496.299.7612.517 1.205.637 2.1553.546 3.0785-1.8 3.0861-1.823.0633-.177.1425-.349.2365-.512-.0287-.518-.0287-1.038 0-1.556-.0047-.122.0297-.243.0983-.345.0686-.101.1678-.178.2832-.22 1.0796-.358 4.6578 3.567 5.1003 4.063.4723.028.946.011 1.4152-.049 1.2704-.111 2.0066-.153 2.2889.228 1.3275 1.774 1.8273 1.812 1.9493 1.782.3815-.092.5798-1.419.721-2.289.2327-1.461.4769-2.968 1.4496-3.315l.2556.717c-.5493.195-.7629 1.595-.9499 2.716-.2327 1.45-.4349 2.701-1.2932 2.915-.7019.175-1.5259-.431-2.7161-2.026-.5475-.051-1.0992-.04-1.6441.035-1.194.103-1.7739.137-2.0333-.184-.7858-.984-3.3111-3.402-4.1733-3.814v1.163l.0916.027-.1297.694h-.1373c-.0267.057-.0611.137-.103.248-.3815 1.042-1.7396 2.861-3.9864 2.289-.5534-.148-1.0669-.418-1.5036-.788-.4367-.371-.7857-.834-1.0218-1.356l-1.2093-2.548c-.0633-.136-.159-.253-.2785-.343-.1196-.09-.2594-.149-.4072-.172-.1477-.023-.2988-.009-.44.04s-.2682.132-.3696.242l-.145.149c-.1892.194-.4226.339-.6803.423-.2576.084-.5317.104-.7988.058-.267-.045-.5191-.155-.7346-.319-.2154-.164-.3878-.378-.5024-.624l-.9537-2.037c-.0806-.187-.2229-.342-.4032-.437-.1804-.096-.388-.127-.5886-.089-.1994.031-.3827.128-.5208.275-.1382.147-.2234.336-.2421.537l-.4235 3.689c-.3242 2.815-1.8272 5.997-4.9935 5.997z" fill="#6ec7ff"/><path d="m80.3078 90.4929s-.3509 54.7761 14.8088 67.3151h6.8664z" fill="#fff"/><path d="m95.4864 201.044-7.4349-7.485-7.4387 3.869v-26.375c0-.603.9079-1.027 1.7739-.832l3.0517.702c1.5249.341 3.1011.385 4.6426.13l3.727-.618c.8468-.142 1.6632.278 1.6632.85z" fill="#236ed1"/><path d="m191.881 157.808h-31.811c0-.542.215-1.061.598-1.444.382-.382.901-.597 1.443-.597h27.725c.541 0 1.061.215 1.443.597.383.383.598.902.598 1.444z" fill="#ff78b9"/><path d="m169.023 159.627s.118-1.819-2.136-1.819h3.216z" fill="#ff78b9"/><path d="m169.023 207.579 11.444-22.507 11.444 14.473v-41.737c0-.542-.215-1.061-.597-1.443-.383-.383-.902-.598-1.444-.598h-20.847z" fill="#ff78b9"/><path d="m102.189 154.996c-.159.037-.325.036-.484-.002s-.307-.112-.433-.216-.226-.236-.292-.386c-.067-.149-.098-.312-.092-.475.187-4.761.55-14.065.725-18.566.006-.141.039-.279.098-.406s.143-.242.246-.337c.104-.094.225-.167.357-.215.133-.047.273-.068.413-.061 2.232.084 4.032-.633 4.612-2.052.904-2.205-1.484-5.268-5.341-6.844-3.8562-1.575-7.6939-1.057-8.5979 1.144-.6218 1.526.3166 3.434 2.2163 5.009.1838.148.3143.352.3715.58.0571.229.0379.47-.0549.687l-8.2207 18.772c-.0638.146-.1596.277-.2804.381-.1207.105-.2634.181-.4175.223s-.3157.049-.4728.021c-.1572-.029-.3059-.093-.4353-.186-3.4142-2.484-5.0583-5.093-6.7788-3.605-1.8768 1.625 2.7924 12.306 13.321 14.114 10.7385 1.828 17.6085-6.763 18.0785-9.205.312-1.621-3.392.5-8.538 1.625zm-2.8075-12.649-.7629 10.559c-.0954 1.4-1.0567 2.583-2.2659 2.8-.8791.165-1.783.143-2.6531-.064s-1.687-.595-2.3976-1.138c-.9804-.763-1.3047-2.231-.763-3.525l4.1275-9.777c.5341-1.266 1.7472-1.987 2.8992-1.712 1.1521.286 1.9112 1.476 1.8158 2.857z" fill="#ff8c19"/><path d="m97.5657 139.501c-1.1445-.275-2.3652.446-2.8992 1.713l-4.1047 9.758c-.5455 1.293-.2212 2.781.763 3.525.7102.542 1.5264.929 2.3958 1.136s1.7726.23 2.651.065c1.2093-.217 2.1706-1.4 2.266-2.8l.7629-10.559c.0763-1.373-.6828-2.563-1.8348-2.838z" fill="#3442d9"/><path d="m87.9603 146.159 11.6162 5.373-.8327 1.8-11.6162-5.372c-.1182-.055-.2245-.132-.3128-.228s-.1569-.208-.2018-.33c-.0449-.123-.0654-.253-.0601-.383s.0361-.258.0908-.376c.1104-.239.3112-.424.5581-.514.2469-.091.5197-.08.7585.03z" fill="#3442d9"/><path d="m89.0052 143.733 11.3498 5.249-.836 1.807-11.3496-5.249c-.1183-.055-.2246-.132-.3129-.228-.0883-.095-.1568-.208-.2018-.33-.0449-.122-.0653-.252-.06-.382.0052-.13.0361-.258.0908-.376.054-.12.1311-.227.2268-.316.0957-.09.2082-.159.3309-.205.1226-.045.2531-.066.3839-.061s.2593.036.3781.091z" fill="#3442d9"/><path d="m100.068 147.985-10.7343-4.635c-.1182-.055-.2245-.132-.3127-.228s-.1566-.208-.2013-.33c-.0446-.123-.0647-.252-.059-.383.0057-.13.0371-.257.0923-.375.1103-.239.311-.424.5578-.515s.5195-.08.7583.03l10.7309 4.635z" fill="#3442d9"/><path d="m89.9734 142.496c.1424-.335.0471-.697-.2127-.807-.2599-.11-.586.072-.7284.408-.1424.335-.0472.697.2127.807.2598.11.5859-.072.7284-.408z" fill="#242145"/><path d="m88.7805 144.725c.1424-.335.0472-.697-.2127-.807s-.586.072-.7284.408c-.1424.335-.0472.697.2127.807s.586-.072.7284-.408z" fill="#242145"/><path d="m87.7487 147.156c.1425-.335.0472-.696-.2126-.807-.2599-.11-.586.073-.7284.408-.1424.336-.0472.697.2126.807.2599.111.586-.072.7284-.408z" fill="#242145"/><path d="m91.9658 155.859c-.033.003-.0663.003-.0992 0-.0976-.026-.1808-.09-.2316-.177s-.0649-.191-.0393-.289l1.6594-6.367c.0308-.112.0199-.232-.0305-.337-.0505-.105-.1372-.188-.2441-.235l-2.327-1.026c-.0459-.02-.0872-.049-.1218-.086-.0346-.036-.0617-.079-.0798-.125-.018-.047-.0267-.097-.0255-.147s.0122-.1.0325-.146c.0203-.045.0494-.087.0857-.121.0363-.035.0791-.062.1258-.08.0468-.018.0966-.027.1467-.026.0502.002.0995.013.1454.033l2.3232 1.026c.2727.119.4939.332.624.6.13.268.1604.573.0855.861l-1.6632 6.367c-.0231.079-.0713.149-.1374.198-.066.05-.1463.077-.2288.077z" fill="#221f20"/><path d="m93.2168 157.651h-.0954c-.0973-.025-.1809-.087-.2323-.174-.0514-.086-.0667-.19-.0423-.287l4.8027-19.04c.0125-.048.0344-.094.0645-.134.0302-.04.068-.074.1112-.1.0432-.025.0911-.042.1408-.049s.1003-.004.1489.009c.0974.025.1809.088.2324.174.0514.086.0666.19.0423.287l-4.8028 19.043c-.0239.08-.073.149-.1397.198-.0668.049-.1476.074-.2303.073z" fill="#221f20"/><path d="m94.4602 159.212h-.0915c-.0981-.025-.1825-.087-.2348-.173-.0522-.087-.0679-.191-.0437-.289l4.8065-19.039c.0082-.053.0273-.103.056-.148.0287-.044.0664-.082.1108-.112.0443-.029.0942-.049.1466-.057.0523-.009.106-.007.1574.006.0515.013.0997.037.1415.069.0418.033.0763.074.1013.121s.0399.099.0438.152c.0039.052-.0033.106-.0211.156l-4.8027 19.039c-.0233.08-.0721.15-.1389.2-.0668.049-.148.076-.2312.075z" fill="#221f20"/><path d="m94.0025 145.677c-.1588.001-.316-.032-.4616-.095l-1.4801-.641c-.0565-.01-.11-.032-.1567-.066-.0466-.033-.0852-.076-.1128-.126-.0276-.051-.0435-.106-.0466-.164-.0031-.057.0068-.114.0288-.167s.0557-.1.0985-.138.0936-.066.1487-.082.113-.019.1695-.009.11.032.1567.065l1.4801.637c.0522.024.1088.036.166.036s.1137-.012.1659-.036c.0515-.024.097-.059.1333-.102.0363-.044.0625-.095.0765-.15l1.957-7.011c.0273-.098.0923-.181.1806-.23.0884-.05.1929-.063.2905-.035.0976.027.1804.092.2301.18.0497.089.0623.193.035.291l-1.9569 7.011c-.0695.244-.216.458-.4176.61-.2015.153-.4473.236-.7002.237z" fill="#221f20"/><path d="m102.189 154.996c-.159.037-.325.036-.484-.002s-.307-.112-.433-.216-.226-.236-.292-.386c-.067-.149-.098-.312-.092-.475.187-4.761.55-14.065.725-18.566.006-.141.039-.279.098-.406s.143-.242.246-.337c.104-.094.225-.167.357-.215.133-.047.273-.068.413-.061 2.232.084 4.032-.633 4.612-2.052.904-2.205-1.484-5.268-5.341-6.844-3.8562-1.575-7.6939-1.057-8.5979 1.144-.6218 1.526.3166 3.434 2.2163 5.009.1838.148.3143.352.3715.58.0571.229.0379.47-.0549.687l-8.2207 18.772c-.0638.146-.1596.277-.2804.381-.1207.105-.2634.181-.4175.223s-.3157.049-.4728.021c-.1572-.029-.3059-.093-.4353-.186-3.4142-2.484-5.0583-5.093-6.7788-3.605-1.8768 1.625 2.7924 12.306 13.321 14.114 10.7385 1.828 17.6085-6.763 18.0785-9.205.312-1.621-3.392.5-8.538 1.625zm-2.8075-12.649-.7629 10.559c-.0954 1.4-1.0567 2.583-2.2659 2.8-.8791.165-1.783.143-2.6531-.064s-1.687-.595-2.3976-1.138c-.9804-.763-1.3047-2.231-.763-3.525l4.1275-9.777c.5341-1.266 1.7472-1.987 2.8992-1.712 1.1521.286 1.9112 1.476 1.8158 2.857z" fill="#5869e9"/><path d="m101.617 131.028c2.867 0 5.191-2.324 5.191-5.191 0-2.868-2.324-5.192-5.191-5.192-2.8677 0-5.1922 2.324-5.1922 5.192 0 2.867 2.3245 5.191 5.1922 5.191z" fill="#5869e9"/><path d="m108.907 156.801c1.346-.142-7.073 6.225-15.5032 4.909-9.0714-1.411-13.3515-8.659-12.703-9.857.3814-.736 2.1705 2.327 5.6038 4.959 1.0605.813 1.0719 1.858 2.4567 2.468 1.3847.611 4.2496.817 6.0502.954 8.9795.698 13.5575-3.391 14.0955-3.433z" fill="#221f20"/><path d="m113.111 158.395h-34.1764v6.626h34.1764z" fill="#221f20"/><path d="m100.213 170.32c-.5742-.32-1.0013-.851-1.1907-1.481-.1894-.629-.1263-1.308.176-1.891l7.7137-15.538c.763-1.499 3.074-2.186 4.554-1.365 1.481.824 2.114 3.135 1.252 4.577l-9.102 14.76c-.333.569-.875.985-1.511 1.16-.635.176-1.314.096-1.892-.222z" fill="#f2abcf"/><path d="m111.535 150.091-.114.026c-1.526.424-2.45 2.251-2.488 2.323l-8.194 16.194c-.045.09-.053.194-.021.29.031.096.099.175.189.221.053.027.112.042.172.042.07 0 .139-.02.199-.057s.109-.09.14-.153l8.213-16.193s.813-1.602 2.011-1.934c.231-.065.473-.077.709-.035-.221-.293-.499-.539-.816-.724z" fill="#ed80b6"/><path d="m102.12 170.044c.249-.449-.159-1.153-.912-1.571-.754-.418-1.5669-.393-1.8164.057-.2494.449.1591 1.153.9124 1.571.754.418 1.567.393 1.816-.057z" fill="#242145"/><path d="m101.178 169.762c.151-.27.054-.611-.216-.761s-.611-.052-.761.219l-1.331 2.398c-.1503.271-.0533.612.2165.762.2699.15.6105.051.7608-.219z" fill="#ed80b6"/><path d="m99.7858 171.083c-1.0528-.587-2.1515-.618-2.4528-.076l-.4692.847.9308.515c.2633.27.5654.501.8964.683.3287.175.6806.304 1.0452.381l.9348.515.45-.809s0-.019.023-.03c.301-.53-.305-1.442-1.3582-2.026z" fill="#f2abcf"/><path d="m100.656 173.94c.302-.543-.306-1.457-1.358-2.041-1.0519-.584-2.149-.616-2.4506-.073-.3016.544.3066 1.457 1.3584 2.041 1.0519.584 2.1492.617 2.4502.073z" fill="#242145"/><path d="m89.3944 176.599c-.6347.174-1.3124.094-1.8883-.225s-1.0045-.85-1.1941-1.48l-5.3406-16.499c-.4921-1.617.6714-3.715 2.2889-4.162 1.6327-.446 3.7041.763 4.1046 2.407l3.8147 16.923c.1556.639.0562 1.313-.2771 1.88-.3332.567-.8742.981-1.5081 1.156z" fill="#f2abcf"/><path d="m89.4212 174.806-4.0246-17.696c0-.084-.473-2.079-1.8463-2.865l-.0992-.05-.1831.038c-.3396.098-.6579.259-.9384.473.2932-.012.584.058.8392.203 1.0796.614 1.4763 2.346 1.484 2.365l4.0245 17.704c.0201.085.0691.161.1385.215.0695.053.1553.081.243.079.0291.003.0586.003.0877 0 .0486-.013.0943-.035.1345-.065.0401-.03.0739-.068.0995-.111.0255-.043.0422-.091.0492-.141.007-.049.0041-.1-.0085-.149z" fill="#ed80b6"/><path d="m89.3365 176.386c.831-.228 1.3947-.814 1.2588-1.31-.1358-.496-.9196-.713-1.7507-.486-.8311.228-1.3947.815-1.2588 1.31.1358.496.9196.714 1.7507.486z" fill="#242145"/><path d="m89.6915 175.559c-.0818-.299-.3895-.475-.6872-.393-.2976.081-.4726.389-.3908.688l.7247 2.645c.0818.299.3895.475.6871.394.2977-.082.4727-.39.3909-.689z" fill="#ed80b6"/><path d="m92.2709 178.884-.2365-.858v-.073c-.164-.602-1.2398-.831-2.3995-.511-1.1596.321-1.9722 1.061-1.8043 1.663l.2517.931 1.0262-.282c.7603.013 1.5084-.192 2.1553-.591z" fill="#f2abcf"/><path d="m90.4684 180.549c1.1602-.318 1.9677-1.061 1.8035-1.661-.1642-.599-1.2379-.827-2.3982-.51-1.1602.318-1.9676 1.062-1.8034 1.661.1642.6 1.2379.828 2.3981.51z" fill="#242145"/><path d="m83.1117 156.782c-.0306.024-.0587.05-.084.08-.0348.041-.0666.084-.0953.129-.0615.096-.109.2-.1412.309-.0708.242-.0877.496-.0496.744.0344.264.1145.588.1755.882l.2022.9.8469 3.605c.0069.028.0024.058-.0126.083s-.0393.043-.0675.05c-.0268.006-.0545.001-.0783-.012-.0237-.013-.042-.035-.0515-.06l-1.2092-3.506-.2938-.881c-.0953-.302-.1945-.569-.2822-.912-.0926-.356-.1069-.729-.042-1.091.0348-.191.0951-.378.1793-.553.0448-.091.0958-.179.1526-.263.0648-.096.1403-.185.2251-.264.1011-.082.2311-.122.3613-.109s.25.077.3329.178c.083.101.1224.231.1095.362-.0129.13-.077.249-.1781.332z" fill="#fff"/><path d="m106.012 120.835c-.42.874-1.145-1.483-2.625-2.201-1.48-.717-3.204.47-2.781-.404.424-.874 2.216-2.747 3.712-2.026 1.495.721 2.113 3.758 1.694 4.631z" fill="#221f20"/><path d="m101.228 129.483c2.214 0 4.009-1.795 4.009-4.009s-1.795-4.009-4.009-4.009c-2.2147 0-4.0097 1.795-4.0097 4.009s1.795 4.009 4.0097 4.009z" fill="#fff"/><path d="m97.2183 125.474v.023c.0832.07.1741.13.2708.179 1.0185.527 2.388-.11 3.0519-1.415.236-.417.361-.888.361-1.368 0-.479-.125-.95-.361-1.367-.9305.161-1.774.645-2.382 1.368-.6079.722-.9411 1.636-.9407 2.58z" fill="#221f20"/><path d="m101.316 130.021c-.894.009-1.7764-.195-2.5752-.595-.7337-.363-1.3665-.902-1.8425-1.568-.0484-.085-.0624-.185-.0392-.28.0233-.094.0821-.177.1642-.23.0822-.052.1815-.072.2775-.053.0959.018.1812.072.2383.151.084.13 2.0791 3.075 6.5959 1.194.093-.038.197-.037.29.001.093.039.167.113.206.205.038.093.038.197 0 .29s-.11.167-.202.206c-.983.431-2.041.662-3.113.679z" fill="#221f20"/><path d="m99.9766 133.855c.3474.875.8914 1.658 1.5904 2.289 0-.279.023-.546.035-.797.005-.141.038-.279.097-.406s.143-.242.247-.337c.103-.094.225-.167.357-.215.132-.047.272-.068.413-.061.447.016.894-.002 1.339-.053-1.374.128-2.76-.015-4.0784-.42z" fill="#221f20"/><path d="m100.148 123.489c.152-.359.125-.713-.059-.791-.1849-.078-.4572.15-.6087.509-.1515.36-.1247.714.0597.792.1844.077.4567-.151.608-.51z" fill="#fff"/><path d="m40.0849 125.18c-5.7908-2.727-6.1341-10.299-5.8022-14.648.0067-.14-.0354-.277-.1191-.389-.0837-.111-.2037-.19-.3393-.223-.1357-.032-.2785-.016-.4037.045-.1253.062-.2251.165-.2823.292-1.9455 4.604-3.8949 13.619 6.1913 19.657" fill="#88d2ff"/><path d="m55.0391 144.281.3624 1.621c.0183.081.0531.157.1022.223.0492.066.1115.122.1832.163s.1511.067.2333.076c.0821.009.1653.001.2442-.023 1.8158-.569 6.9428-2.617 6.6567-7.63z" fill="#91ffad"/><path d="m61.5814 152.112c-.1947 0-.3885-.027-.576-.08-1.709-.488-2.7237-3.051-2.7657-3.158-.0363-.094-.0343-.198.0057-.29s.1147-.165.208-.202c.0468-.019.0968-.028.1471-.027s.1.012.1461.032.0877.049.1225.086c.0348.036.062.079.0802.126.2517.641 1.1444 2.38 2.2659 2.701.2402.059.491.058.7309-.002s.4617-.177.6462-.341c.0401-.03.0857-.052.1342-.065.0486-.012.0991-.015.1486-.008.0496.007.0974.024.1405.049.0431.026.0807.06.1108.1s.0519.086.0644.134c.0124.049.0151.099.0081.149-.0071.049-.0239.097-.0495.14-.0255.043-.0592.081-.0993.111-.4153.34-.9321.532-1.4687.545z" fill="#6ec7ff"/><path d="m33.0699 99.1257c-.0932.0011-.1863-.0053-.2785-.0191-.7934-.1106-1.5259-.7095-2.1782-1.7815-.0356-.0424-.0616-.0922-.076-.1457-.0145-.0535-.0172-.1096-.0078-.1642.0094-.0547.0307-.1066.0622-.1522s.0726-.0838.1204-.1119.1011-.0455.1563-.0509.1109.0013.1632.0197c.0524.0183.1001.0478.1398.0865.0398.0386.0706.0855.0904.1373.5303.8659 1.0796 1.3466 1.6365 1.4229.7248.1029 1.3657-.4883 1.7091-.805.2355-.2184.5468-.3366.8679-.3295.3212.0071.6269.139.8525.3677.1335.1704.3097.3024.5106.3828.201.0804.4196.1063.6338.075 1.2131-.2442 2.3995-2.5101 2.8572-3.6736.1077-.263.3014-.4817.5495-.6203.248-.1386.5358-.1889.8162-.1427.1132.033.2331.0355.3476.0074.1146-.0282.2196-.0859.3047-.1676.4921-.4883.4731-1.9074.3434-2.7161-.008-.0501-.0061-.1013.0056-.1506.0118-.0494.0332-.0959.0629-.137.0298-.0411.0673-.0759.1106-.1025.0432-.0266.0912-.0444.1413-.0524s.1013-.0061.1506.0057c.0494.0118.0959.0331.137.0629.0411.0297.0759.0673.1025.1105s.0444.0913.0524.1414c.042.2479.3815 2.4566-.5531 3.3798-.1713.1678-.3816.2905-.6119.357-.2304.0666-.4736.075-.708.0245-.1073-.0202-.2183-.0032-.3147.0481s-.1724.1339-.2156.2342c-.1487.3814-1.5259 3.7613-3.4142 4.1428-.3398.0611-.6898.0316-1.0146-.0856s-.613-.318-.8355-.582c-.0883-.086-.2067-.1341-.33-.1341-.1232 0-.2416.0481-.33.1341-.3814.309-1.11.9842-2.0561.9842z" fill="#6ec7ff"/><path d="m70.1758 142.305c-.1887-.001-.3772-.012-.5646-.035-.6382-.065-1.2514-.283-1.7878-.635-.5364-.351-.9804-.827-1.2945-1.387-.023-.044-.0369-.093-.0409-.143-.004-.051.002-.101.0176-.149s.0405-.092.0733-.13c.0329-.039.0729-.07.1179-.093.0901-.045.1944-.053.2902-.021.0958.031.1752.099.2209.189.2571.45.6181.831 1.0529 1.111.4348.281.9306.453 1.4458.503.763.095 2.2888.019 3.6698-1.564.0668-.076.1611-.123.2624-.13.1012-.007.201.027.2774.094.0763.066.1231.161.1299.262s-.0269.201-.0937.277c-.4583.564-1.0332 1.021-1.6852 1.34s-1.3655.494-2.0914.511z" fill="#6ec7ff"/><path d="m16.8219 77.226c.3809-.3228.1915-1.1721-.4229-1.8969s-1.4213-1.0506-1.8022-.7277c-.3808.3229-.1915 1.1722.423 1.897.6144.7247 1.4213 1.0505 1.8021.7276z" fill="#6ec7ff"/><path d="m46.9518 124.688c1.4725 4.734 4.86 15.58 6.1723 19.414.1317.38.399.699.7508.895.3517.197.7634.257 1.1565.169 3.1128-.71 10.0404-3.491 9.3881-14.115 0 0-1.0682-6.233-4.9592-9.296-.2117-.17-.3774-.391-.482-.641-.1047-.251-.1448-.523-.1169-.793.1335-1.442-.1564-4.197-4.036-5.192l-1.3885 3.185-5.1385 2.945c-.582.332-1.0328.853-1.2778 1.477-.2449.624-.2692 1.313-.0688 1.952z" fill="#29cc7a"/><path d="m15.6806 73.6289c.27-.2289.2271-.7232-.0958-1.1041-.3229-.3808-.8035-.504-1.0735-.2752-.27.2289-.2271.7232.0958 1.1041s.8035.5041 1.0735.2752z" fill="#6ec7ff"/><path d="m14.9452 81.1362c.1228-.484-.6021-1.0855-1.619-1.3436-1.017-.2581-1.9409-.075-2.0638.409-.1228.4839.602 1.0855 1.619 1.3436s1.9409.075 2.0638-.409z" fill="#6ec7ff"/><path d="m19.6727 129.342-2.7962 8.064c4.3602 4.96 8.2055 2.343 9.4071-1.026 1.2016-3.368-.8965-9.292-6.6109-7.038z" fill="#fff"/><path d="m32.8638 146.318.2175 1.487c.0534.294-.8393.218-1.1445.165-.8735-.145-1.5259.03-.9727-2.289z" fill="#91ffad"/><path d="m16.8765 137.407 2.7962-8.065c-.3824-.483-.8305-.911-1.3313-1.27-2.3665 2.342-3.7916 5.471-4.0055 8.793.5417.866 2.0981.904 2.5406.542z" fill="#91ffad"/><path d="m64.4502 135.156c-.0227.004-.0459.004-.0687 0-.0989-.019-.1866-.076-.2437-.158-.0572-.083-.0793-.185-.0614-.285.7629-4.047-1.5565-7.854-1.5794-7.892-.035-.085-.0382-.18-.0087-.268.0294-.087.0894-.16.1689-.207.0794-.046.173-.063.2635-.045.0905.017.1717.066.2287.138.0992.164 2.4833 4.094 1.6746 8.431-.0213.083-.0697.156-.1375.207-.0678.052-.151.08-.2363.079z" fill="#221f20"/><path d="m64.6329 132.093c-.0719-.001-.1422-.022-.2027-.06-.0606-.039-.109-.094-.1397-.159s-.0425-.137-.0338-.209c.0086-.071.0372-.138.0824-.194 4.8295-5.932 12.375-2.522 12.4513-2.487.0921.042.1635.119.1986.214.035.096.0308.201-.0116.293-.0425.092-.1199.163-.215.198-.0952.035-.2003.031-.2924-.011-1.3098-.546-2.7031-.865-4.1199-.942-3.0518-.153-5.5581.93-7.4197 3.215-.0359.045-.0812.08-.1327.105-.0515.024-.1078.037-.1648.037z" fill="#221f20"/><path d="m55.1878 113.206c-1.7106 2.429-3.9653 4.423-6.5842 5.825-3.1586 1.66-1.7128 6.333-1.7128 6.333 1.0536-1.679 2.4199-3.14 4.0245-4.303 3.7003-2.594 5.3063-5.65 4.2725-7.855z" fill="#91ffad"/><path d="m28.3128 126.611s-5.8137 11.444 2.1439 19.455c.1211.126.263.231.4196.309.4844.24.8659.492 2.2888.16.5951-.141.1297-1.03-.2708-1.667-1.5564-2.476-5.1194-5.409-3.2883-17.929z" fill="#29cc7a"/><path d="m27.134 140.058c-.0557-.001-.1106-.014-.1606-.039-.0501-.024-.0943-.059-.1294-.102-.1068-.123-2.5139-3.151 0-9.419.0186-.047.0461-.089.0811-.125.0349-.036.0766-.065.1227-.085.046-.019.0955-.03.1457-.031.0501 0 .0999.009.1465.027.0466.019.089.046.125.081.0359.035.0646.077.0845.123.0198.046.0304.096.0311.146s-.0085.1-.027.146c-2.3346 5.818-.1488 8.625-.1259 8.656.0633.078.0931.178.0831.278s-.059.192-.1365.256c-.0676.056-.1525.087-.2403.088z" fill="#221f20"/><path d="m51.6743 139.676.9995 3.014c1.3133-.515 2.4636-1.374 3.3302-2.487.7586-.97 1.8169-1.662 3.0099-1.968 2.3994-.554 3.0517-2.499 2.6054-5.246z" fill="#221f20"/><path d="m29.2093 130.326c.0343-.297.576-2.639.4082-4.303-.1297-1.285-1.8463-1.77-2.5635-.698-.1831.276-.2678.605-.2403.935.0208.208.0835.41.1845.594.1009.184.238.345.4029.474 1.1673 1.007 1.8082 2.998 1.8082 2.998z" fill="#91ffad"/><path d="m23.9603 139.852c-.0855-.001-.1682-.03-.2351-.083s-.114-.127-.1338-.21-.0111-.171.0247-.248c.0357-.078.0965-.141.1725-.18.0725-.038 1.6747-.916 1.9608-4.253.0087-.101.057-.194.1342-.259.0773-.065.1771-.097.2778-.089.1006.009.1936.057.2587.135.0651.077.0969.177.0884.277-.3281 3.815-2.2888 4.83-2.3766 4.872-.0534.026-.1122.039-.1716.038z" fill="#221f20"/><path d="m17.3112 136.155c-.9697.017-1.9315-.177-2.8191-.568-.0419.256-.0724.515-.1029.782.8475.35 1.7532.539 2.6703.557z" fill="#57f287"/><path d="m14.8811 133.882c-.0725.236-.1335.488-.1946.74.7658.285 1.5749.436 2.3919.446.2077 0 .4153-.011.6218-.034l.2823-.82c-1.0449.168-2.1159.054-3.1014-.332z" fill="#57f287"/><path d="m16.0753 131.051c-.1221.218-.2442.45-.3624.691.9687.275 1.8683.752 2.6398 1.4l.267-.763c-.7596-.595-1.6221-1.045-2.5444-1.328z" fill="#57f287"/><path d="m17.6967 128.74c-.1488.167-.3128.362-.4921.591.7379.493 1.3568 1.145 1.812 1.907l.3166-.915c-.4558-.614-1.0085-1.148-1.6365-1.583z" fill="#57f287"/><path d="m16.8765 137.407s.1602-4.872 2.7962-8.065l.8545 2.159z" fill="#fff"/><path d="m38.7043 123.014c.0842-.417.0646-.848-.0572-1.255-2.6959.016-5.2813 1.072-7.2175 2.948-.0533.452.0267.909.2301 1.316.2033.407.5211.745.9144.973z" fill="#91ffad"/><path d="m33.0472 126.68.6447-.416c-.5603-.749-.939-1.617-1.1062-2.537-.2213.16-.4426.336-.6638.526.2064.877.5893 1.703 1.1253 2.427z" fill="#57f287"/><path d="m33.3218 123.243c.1519.929.4892 1.819.9918 2.616l.6409-.415c-.4868-.789-.7966-1.674-.9079-2.594-.2404.118-.4845.248-.7248.393z" fill="#57f287"/><path d="m38.0863 123.41c.0327-.545.0071-1.092-.0763-1.632-.2136 0-.473.038-.7629.08.1096.692.1096 1.398 0 2.09z" fill="#57f287"/><path d="m36.0759 122.098c-.2403.061-.4921.137-.7629.225.0458.595.1221 1.465.2403 2.728l.7248-.469c-.0725-.901-.1526-1.828-.2022-2.484z" fill="#57f287"/><path d="m32.5776 126.985s3.1624-3.334 6.1265-3.971l-2.1439 3.36z" fill="#fff"/><path d="m53.8756 121.61c-1.9836 0-3.788 1.007-5.1613 2.67-1.3082.5-2.4045 1.435-3.1052 2.648-.6981-.203-1.5259-.317-3.1739-.157-.0381-.797-.4234-3.242-3.7308-3.75l-6.1264 3.971s-2.1973 6.363 5.5275 7.046c.3911.028.7688.155 1.0977.368.3288.214.5982.507.783.853.7286 1.415 2.4147 3.517 5.7869 2.636.5291-.134 1.0817-.146 1.6162-.036.5345.111 1.0371.341 1.4699.673 1.4649 1.144 3.6736 1.671 5.1537.45 1.2818-1.057 1.3237-1.858 2.9717-2.037s4.7417-1.373 4.7417-4.822c.0038-5.798-3.5667-10.513-7.8507-10.513z" fill="#fff"/><path d="m48.4546 129.193c-.0589.001-.1172-.012-.1701-.038s-.0992-.064-.1351-.11c-1.7014-2.228-5.6153-1.66-5.6534-1.652-.1012.016-.2045-.01-.2871-.07s-.1379-.151-.1536-.252c-.0156-.102.0095-.205.07-.287.0604-.083.1512-.138.2524-.154.1793-.027 4.406-.641 6.3782 1.942.0309.04.0535.085.0666.134.013.049.0163.1.0095.15-.0067.05-.0233.098-.0488.142-.0255.043-.0594.081-.0998.112-.065.052-.1454.081-.2288.083z" fill="#221f20"/><path d="m45.6315 127.321c-.0727 0-.1442-.019-.206-.058-.0425-.027-.0793-.062-.1081-.103-.0288-.042-.0491-.089-.0598-.138-.0106-.049-.0114-.1-.0022-.15.0092-.049.0281-.097.0557-.139 2.5902-4.047 5.5809-3.25 5.7221-3.216.0976.028.1804.093.2301.181s.0623.193.035.29c-.0273.098-.0923.181-.1807.231-.0883.049-.1928.062-.2904.035-.1107-.031-2.5902-.649-4.86 2.891-.0358.056-.0856.102-.1445.132-.0589.031-.1248.046-.1912.044z" fill="#221f20"/><path d="m13.92 64.5263c-.7059.0042-1.4107-.0559-2.1057-.1793-.0501-.0098-.0978-.0293-.1404-.0575-.0425-.0282-.0791-.0645-.1076-.1069-.0285-.0423-.0484-.0898-.0586-.1398-.0101-.0501-.0103-.1016-.0005-.1517s.0293-.0978.0575-.1403c.0282-.0426.0645-.0791.1068-.1076.0424-.0286.0899-.0485.1399-.0586.05-.0102.1016-.0103.1517-.0006.0419 0 4.3678.8354 7.206-1.4191.4387-.3471.8011-.679 1.1444-.9994 1.4954-1.3542 2.5787-2.3385 6.6491-2.1668 1.0795.042 1.873.0572 2.4948.0382 1.9074-.0611 2.2087-.3815 3.0518-1.2169l.4234-.4197c.0725-.061 1.4344-1.2321 2.7772-1.1444 1.5602.0878 2.4109-1.1444 2.7809-1.8578.2477-.52.6246-.9679 1.0948-1.3008.0835-.0557.1856-.0762.2841-.0572.0985.0191.1856.0762.2423.159s.0785.1847.0607.2834c-.0179.0988-.0739.1865-.156.2443-.3629.2619-.6541.6108-.8469 1.0147-.3815.7248-1.4382 2.3918-3.5057 2.2888-1.0377-.0648-2.205.9499-2.2164.9613l-.3815.3815c-.9498.9499-1.4572 1.3733-3.5667 1.4382-.6409.0228-1.4535 0-2.5483-.0344-3.7613-.1564-4.6921.6905-6.1035 1.9722-.3434.3128-.7363.6638-1.1941 1.03-1.8196 1.4382-4.1008 1.7472-5.7335 1.7472z" fill="#221f20"/><path d="m169.035 198.156v1.545l11.181-19.688 11.665 15.309v-1.259l-11.757-15.431z" fill="#d8549b"/><path d="m213.178 23.7086c-.525.1484-1.035.3438-1.525.5837.015-.4421-.026-.8844-.122-1.3161-.382-1.6708-1.462-2.6703-2.438-2.3727-.977.2975-1.541 1.8348-1.312 3.4866.059.4184.172.8274.335 1.2169-.494.0478-.983.141-1.461.2785-1.964.5646-3.475 1.7509-3.433 2.697s1.747 1.3619 3.845.8164c.525-.1379 1.036-.3243 1.526-.557-.039.5089-.022 1.0206.05 1.5259.324 2.2316 1.602 3.9559 2.853 3.685 1.251-.2708 1.908-2.4795 1.385-4.7417-.11-.5085-.282-1.0018-.511-1.4687.575-.0404 1.146-.1336 1.705-.2784 2.407-.6295 4.131-2.0028 3.788-3.0137s-2.453-1.1711-4.685-.5417z" fill="#ffd861"/><path d="m59.7579 136.766c-.0769 0-.1519-.024-.2153-.067-.0633-.044-.112-.106-.1397-.178-.0276-.071-.0329-.15-.0152-.225.0178-.075.0577-.142.1146-.194 3.4715-3.166 1.2322-8.011 1.2055-8.061-.0219-.045-.0345-.094-.0371-.145-.0026-.05.0048-.101.0218-.148.017-.048.0434-.092.0774-.129.0341-.037.0752-.067.121-.089.0916-.043.1964-.048.2916-.013.0951.034.1727.105.2158.196.0267.054 2.5024 5.41-1.381 8.954-.0718.063-.1638.098-.2594.099z" fill="#221f20"/><path d="m96.7684 14.0611c3.8826 0 7.0306-3.1477 7.0306-7.03055 0-3.88287-3.148-7.03055-7.0306-7.03055-3.8829 0-7.0306 3.14768-7.0306 7.03055 0 3.88285 3.1477 7.03055 7.0306 7.03055z" fill="#ffbfde"/><path d="m100.156.881198c-.2467-.136341-.5015-.25737-.7631-.362399-1.5907 1.396191-2.3231 2.983121-2.1781 4.749341.2212 2.69701 2.5368 5.23766 4.4172 6.82456.184-.1789.359-.3674.523-.5646-1.862-1.56403-4.2689-4.1466-4.1964-6.80547.0496-1.40382.7858-2.68938 2.1974-3.841432z" fill="#d8549b"/><path d="m92.6253 6.40878c-.3453-1.11425-1.0632-2.07591-2.0333-2.72372-.1256.22845-.2377.4641-.3357.70572.6396.44752 1.1469 1.05891 1.4687 1.77004.721 1.64415.3815 3.6774-.248 5.48178.1862.2186.385.4262.5952.6218.6981-1.8692 1.1253-4.02074.5531-5.85562z" fill="#d8549b"/><path d="m217.936 74.2233c-.503-.3233-.931-.7502-1.255-1.2521-.325-.502-.538-1.0675-.626-1.6586l-.305-2.037c-.008-.0486-.032-.0929-.069-.1251s-.084-.05-.134-.0504c-.049.0004-.096.0182-.133.0504s-.061.0765-.069.1251l-.305 2.037c-.088.5911-.301 1.1566-.626 1.6586-.324.5019-.752.9288-1.255 1.2521l-.263.1716c-.029.0182-.053.0435-.07.0735-.016.0301-.025.0638-.025.0982-.001.0346.007.0688.024.0991.017.0302.041.0553.071.0726l.263.1716c.503.3233.931.7502 1.255 1.2521.325.502.538 1.0675.626 1.6586l.305 2.037c.008.0486.032.0929.069.1251s.084.05.133.0504c.05-.0004.097-.0182.134-.0504s.061-.0765.069-.1251l.305-2.037c.088-.5911.301-1.1566.626-1.6586.324-.5019.752-.9288 1.255-1.2521l.263-.1716c.03-.0173.054-.0424.071-.0726.017-.0303.025-.0645.024-.0991 0-.0344-.009-.0681-.025-.0982-.017-.03-.041-.0553-.07-.0735z" fill="#f2abcf"/><path d="m4.16952 95.727c-.40845-.2634-.75588-.611-1.01904-1.0195-.26317-.4086-.43599-.8687-.50685-1.3495l-.24795-1.6556c-.00555-.0394-.02525-.0755-.05544-.1014-.03018-.026-.06877-.0401-.10859-.0397-.04025-.0005-.07936.0135-.11018.0394-.03081.0259-.05127.062-.05767.1017l-.24797 1.6556c-.07086.4808-.24366.9409-.50683 1.3495-.26316.4085-.610611.7561-1.019057 1.0195l-.2136241.1411c-.0234393.0144-.0427731.0346-.056136.0587-.01336289.0241-.02030911.0511-.0201633.0787-.00043445.028.00636163.0558.0197209.0805.0133593.0247.0328387.0456.0565784.0606l.2136241.1373c.40745.2645.754137.6124 1.017177 1.0207.26304.4084.43643.8679.50871 1.3483l.24797 1.6591c.00712.04.02779.075.05844.101.03066.026.06936.04.10941.04.0396 0 .07778-.014.1078-.04s.04993-.062.05623-.101l.24795-1.6591c.07228-.4804.24567-.9399.50871-1.3483.26304-.4083.60973-.7562 1.01718-1.0207l.21744-.1373c.02325-.0155.04235-.0365.05565-.0611.01329-.0246.02039-.0521.02065-.08-.00087-.0274-.00824-.0541-.02151-.078-.01327-.0238-.03206-.0442-.05479-.0594z" fill="#91ffad"/><path d="m212.656 82.7376c-.204-.1314-.378-.3049-.509-.5089-.132-.2039-.218-.4336-.254-.6736l-.122-.8278c-.003-.0203-.013-.0388-.028-.0521-.016-.0133-.035-.0206-.056-.0204-.02-.0001-.039.0073-.054.0207s-.024.0319-.026.0518l-.126.8278c-.036.24-.122.4697-.254.6736-.131.204-.305.3775-.509.5089l-.107.0725c-.011.0072-.021.0173-.028.0293-.006.0121-.01.0256-.01.0394 0 .0143.004.0283.01.0409.007.0127.017.0235.028.0316l.107.0686c.204.1315.378.305.509.5089.132.204.218.4336.254.6737l.126.8316c.003.0192.012.0368.027.0494s.034.0195.053.0193c.02-.0004.039-.0074.054-.0198.015-.0125.026-.0297.03-.0489l.122-.8316c.036-.2401.122-.4697.254-.6737.131-.2039.305-.3774.509-.5089l.107-.0686c.012-.0081.021-.0189.028-.0316.007-.0126.01-.0266.01-.0409 0-.0138-.003-.0273-.01-.0394-.007-.012-.016-.0221-.028-.0293z" fill="#d8549b"/><path d="m181.417 34.3174-.793-2.1057-7.317 3.1815 7.267-.1908z" fill="#ffc619"/><path d="m223.879 131.231v-1.709l-4.696-.538-.416 1.075z" fill="#ffc619"/><path d="m146.73 144.357h43.598l-12.249-32.166h-43.221z" fill="#ef903c"/><path d="m189.871 144.357h2.899s12.478-13.493 31.109-13.126l-14.233-6.081s-15.499 11.829-19.775 19.207z" fill="#ffc619"/><path d="m146.672 144.357h40.944l-11.502-30.213h-40.592z" fill="#221f20"/><path d="m189.87 144.357s12.753-14.835 34.009-14.835l-15.446-30.7471s-19.871 1.7891-30.068 16.5481z" fill="#fff"/><path d="m133.773 111.764 11.168-2.751.786 3.193c.168.68.199 1.386.093 2.077-.107.692-.349 1.356-.713 1.954s-.842 1.118-1.408 1.53c-.565.412-1.207.709-1.887.872l-.841.208c-1.367.336-2.813.116-4.018-.612-1.205-.729-2.071-1.907-2.408-3.274l-.787-3.193z" fill="#63c780"/><path d="m127.859 100.382 16.011-1.8836c.576-.0678 1.156.0962 1.612.4561.456.3598.75.886.818 1.4625l1.192 10.135-18.185 2.139z" fill="#3447d0"/><path d="m127.653 100.403.409-.048c.491-.058.986.082 1.374.388.388.307.639.755.697 1.247l1.23 10.456-4.115.484-1.23-10.456c-.058-.492.082-.986.389-1.374.306-.388.755-.639 1.246-.697z" fill="#25309c"/><path d="m167.715 107.251-2.343-1.144c-.183-.088-.336-.229-.438-.406-.101-.176-.147-.379-.13-.582.014-.234.014-.468 0-.702-.01-.271-.124-.528-.319-.716s-.455-.294-.726-.295h-.038c-.278.01-.54.13-.73.333-.189.203-.291.473-.281.75.057 1.622-1.034 2.026-1.259 2.091-.247.065-.462.217-.605.429-.142.212-.202.469-.169.722s.158.486.35.654.439.26.695.259c.089-.001.177-.012.263-.035.226-.061.445-.147.652-.255.181-.096.387-.136.591-.114s.397.104.554.236l2.002 1.694z" fill="#51a369"/><path d="m173.875 119.332c4.898 0 8.869-3.362 8.869-7.511 0-4.148-3.971-7.511-8.869-7.511s-8.869 3.363-8.869 7.511c0 4.149 3.971 7.511 8.869 7.511z" fill="#63c780"/><path d="m189.588 123.479c-.923-6.924-9.395-11.509-18.921-10.239-9.525 1.271-16.498 7.912-15.575 14.84.339 2.559 1.716 4.802 3.792 6.546.862.703 1.503 1.64 1.847 2.697.344 1.058.377 2.193.094 3.269l-1.026 3.765h19.524l1.678-6.149c.387-1.382 1.258-2.579 2.453-3.373 4.231-2.861 6.707-7.053 6.134-11.356z" fill="#63c780"/><path d="m149.381 132.756-9.991-14.259 3.437-2.407 8.179 11.681 7.763-2.652 1.354 3.971z" fill="#63c780"/><path d="m153.011 133.042c.324-1.311-.749-2.703-2.396-3.11-1.646-.406-3.243.328-3.567 1.639-.323 1.311.749 2.703 2.396 3.109 1.646.407 3.244-.327 3.567-1.638z" fill="#63c780"/><path d="m204.327 107.566c.423-1.642-.294-3.247-1.602-3.584-1.308-.336-2.711.722-3.134 2.364-.422 1.643.295 3.247 1.603 3.584 1.307.337 2.711-.722 3.133-2.364z" fill="#63c780"/><path d="m189.039 124.425-3.296-2.586 12.436-15.854-4.635-28.1263 4.139-.679 4.937 29.9423z" fill="#63c780"/><path d="m134.347 114.118-1.415-5.146c-.656-1.656.11-1.61 1.015-1.835.193-.059.395-.078.596-.058.201.021.396.081.573.177s.334.226.461.383c.126.157.221.338.277.532l1.041 3.513s3.09-.301 3.849 3.139" fill="#63c780"/><path d="m141.958 114.526c-.079-.001-.156-.025-.22-.071-.065-.046-.113-.11-.139-.185-.561-1.61-2.964-1.697-2.987-1.697-.66-.042-1.949-.485-2.201-1.858-.018-.101.004-.206.063-.29s.149-.142.25-.16c.101-.019.205.004.29.063.084.059.142.148.16.249.206 1.126 1.434 1.229 1.488 1.233.053.003 2.933.099 3.669 2.208.017.048.024.098.022.149-.003.05-.016.099-.038.145-.022.045-.053.086-.091.119-.037.034-.081.059-.129.076-.044.015-.091.022-.137.019z" fill="#221f20"/><path d="m183.237 115.228c-3.548-2.495-7.069-2.724-12.589-1.988-2.608.348-5.138 1.134-7.485 2.324 1.843 1.907 4.315 6.66 3.376 12.001-.808 4.577-3.15 8.262-5.855 9.685.378 1.076.421 2.241.122 3.342l-1.026 3.765h19.543l1.678-6.149c.387-1.382 1.257-2.579 2.453-3.372.416-.279.809-.576 1.19-.882 5.024-7.847 2.003-15.835-1.407-18.726z" fill="#2336ad"/><path d="m178.35 137.479c-2.14.576-5.272 1.179-6.84 1.469-.065.012-.124.045-.168.095-.044.049-.071.111-.076.177-.006.066.011.132.047.188.036.055.089.097.151.12 1.5.538 4.578 1.144 7.176-1.526.053-.046.089-.109.101-.178.013-.069.001-.14-.033-.202-.034-.061-.089-.109-.154-.135s-.137-.029-.204-.008z" fill="#221f20"/><path d="m160.066 135.957c.346.535.604 1.123.763 1.74l.152-.145c4.399-4.17 6.615-8.5 6.588-12.867-.026-5.242-3.269-8.717-3.917-9.362-.492.241-.965.496-1.427.763l.027.035c7.915 10.7-1.335 19.1-2.186 19.836z" fill="#808aff"/><path d="m185.045 116.342c-.567-.453-1.186-.837-1.843-1.145-.003-.003-.008-.004-.012-.004-.005.001-.009.003-.013.006-.003.003-.005.007-.005.012s.001.009.004.013c6.18 10.281-.645 20.351-.718 20.458.303-.318.64-.604 1.004-.85.414-.23.799-.511 1.144-.836 3.906-4.387 3.288-15.175.439-17.654z" fill="#808aff"/><path d="m178.209 123.117.564 2.185c.017.072.056.136.112.183.055.048.124.078.197.084l2.152.336c.335.054.381.45.107.725l-2.125 2.087c-.092.089-.149.208-.16.335l-.195 2.77c-.027.381-.465.622-.717.381l-1.373-1.179c-.07-.048-.152-.074-.237-.074s-.167.026-.237.074l-1.689 1.015c-.068.043-.147.065-.227.063s-.157-.028-.223-.074c-.065-.047-.115-.111-.144-.186-.029-.074-.034-.156-.017-.234l.584-2.586c.013-.054.015-.111.004-.165-.01-.055-.032-.107-.065-.152l-1.549-1.907c-.21-.237-.034-.607.328-.675l2.289-.443c.08-.016.155-.05.221-.098s.121-.109.16-.18l1.271-2.232c.244-.382.866-.42.969-.053z" fill="#fff"/><path d="m167.714 113.824s3.09-.95 7.985 1.499c4.066 2.037 6.447-.789 6.447-.789l-5.494-3.468z" fill="#63c780"/><path d="m173.17 109.403c3.478 0 6.298-2.82 6.298-6.298 0-3.4788-2.82-6.2986-6.298-6.2986-3.479 0-6.298 2.8198-6.298 6.2986 0 3.478 2.819 6.298 6.298 6.298z" fill="#63c780"/><path d="m166.91 102.406c.183.209.406.38.656.504 1.278.637 2.949-.13 3.731-1.705.728-1.4766.427-3.1361-.66-3.8647-1.011.4438-1.887 1.1454-2.541 2.0345-.655.8892-1.064 1.9342-1.186 3.0312z" fill="#fff"/><path d="m170.297 97.5045-.797-1.8005c-.133-.3022-.181-.6351-.138-.9625s.176-.6365.383-.8937.481-.4524.792-.5644c.31-.1119.646-.1363.969-.0705l1.934.3815c.408.0828.774.3039 1.037.6258.262.3219.406.7248.405 1.1404v2.2889z" fill="#808aff"/><path d="m173.17 96.8064c-1 .0002-1.985.2396-2.873.6981.233 1.8807 1.435 3.8685 3.395 5.2835 1.613 1.221 3.62 1.803 5.635 1.633.094-.433.141-.874.141-1.316 0-1.671-.664-3.2728-1.845-4.4539-1.181-1.1812-2.783-1.8447-4.453-1.8447z" fill="#5865f2"/><path d="m177.45 98.9083c.331 0 .599-.2682.599-.5989 0-.3308-.268-.599-.599-.599s-.599.2682-.599.599c0 .3307.268.5989.599.5989z" fill="#808aff"/><path d="m176.702 103.455c.872.317 1.805.432 2.728.336.024-.228.037-.457.038-.686-.003-.298-.027-.595-.073-.889-1.346-.222-2.693 1.239-2.693 1.239z" fill="#8cd9ff"/><path d="m168.577 98.8054c-.193.203-.372.4198-.534.6485.03.0344.065.0725.095.1145.14.2467.229.5186.262.8006s.009.567-.071.84c-.02.108.003.221.066.312.062.092.157.155.266.176h.08c.097 0 .192-.034.267-.096s.126-.148.145-.244c.183-.965.065-1.739-.347-2.2884-.067-.0954-.144-.1837-.229-.2632z" fill="#221f20"/><path d="m179.117 107.659c.574.652 1.009 1.414 1.278 2.24s.366 1.698.286 2.563l4.093 1.076c.093.024.19.021.281-.011.09-.031.169-.089.226-.166.058-.076.091-.168.096-.264.004-.096-.019-.19-.069-.272-.266-.431-.388-.934-.351-1.439.088-1.007 2.369-1.743 1.961-3.051-.267-.859-2.167-.714-2.808-1.599-.21-.286.229-1.526.462-2.517.022-.101.013-.206-.027-.301-.041-.095-.11-.175-.198-.228-.088-.054-.19-.078-.293-.07s-.201.048-.279.114z" fill="#91ffad"/><path d="m180.997 108.979c-.068.001-.135-.017-.194-.051s-.108-.084-.141-.143c-.025-.044-.04-.092-.046-.142-.005-.05-.001-.1.013-.149.013-.048.037-.093.068-.132s.07-.072.113-.096l2.079-1.145c.088-.05.193-.064.291-.037.098.026.181.091.232.179s.064.192.038.29c-.027.098-.091.182-.179.232l-2.083 1.145c-.058.034-.124.051-.191.049z" fill="#63c780"/><path d="m183.519 111.394h-.068l-2.045-.382c-.101-.017-.191-.074-.25-.159-.059-.084-.082-.188-.065-.289.018-.101.075-.191.159-.25s.188-.082.289-.065l2.045.382c.101.009.195.057.26.135.066.077.098.178.089.279-.008.101-.057.195-.134.26-.078.066-.179.097-.28.089z" fill="#63c780"/><path d="m179.941 114.358c-.042.001-.083-.005-.122-.019-.048-.016-.092-.041-.13-.074s-.069-.073-.091-.118-.035-.094-.039-.145c-.003-.05.003-.1.02-.148 1.43-4.234-1.171-6.202-1.282-6.286-.082-.06-.137-.15-.153-.25-.015-.1.009-.202.069-.284s.149-.137.25-.153c.1-.016.202.009.284.069.031.023 3.17 2.365 1.553 7.149-.026.075-.074.14-.138.187-.064.046-.142.071-.221.072z" fill="#242145"/><path d="m155.778 130.563s2.125-.66 2.697-2.129c0 0 .038 6.615-2.403 7.454z" fill="#221f20"/><path d="m168.413 113.694s3.925-.076 8.964 5.165c.743.774 1.749 1.243 2.819 1.313 1.576.091 3.254-.782 1.95-5.639 0 0-.538 1.145-2.892 1.301-1.198.063-2.394-.158-3.49-.644-1.645-.691-4.879-1.881-7.351-1.496z" fill="#221f20"/><path d="m140.291 119.752s-.336-.557-1.622-.855l1.908-.507z" fill="#63c780"/><path d="m144.517 117.021c-.155.158-.257.361-.29.58-.033.22.005.444.107.64l-.862-.763.801-.816z" fill="#63c780"/><path d="m200.662 85.8276s3.773-5.8938 7.164-6.9924c.098-.03.187-.0844.258-.1581.071-.0736.122-.1641.148-.2629.026-.0989.027-.2027.002-.3019s-.074-.1905-.144-.2651l-1.034-1.1139c-.081-.0877-.184-.1515-.298-.1845s-.236-.0338-.351-.0024c-.976.2708-3.627 1.4152-6.588 6.1035" fill="#63c780"/><path d="m192.537 85.1258s-1.526-6.4354-4.196-8.7739c-.103-.0885-.184-.2011-.234-.3278s-.068-.2638-.053-.3992.063-.2651.14-.3777c.076-.1127.179-.2049.3-.2686l.942-.4959c.138-.0735.294-.1064.45-.095.156.0115.305.0669.431.1599.893.6714 2.896 2.6703 4.082 7.8659" fill="#63c780"/><path d="m199.255 82.65.244.061c1.122.3548.412-.4807.923-1.2894.221-.3471 1.702 0 3.433-3.1204.064-.1215.151-.2291.256-.3165.106-.0874.228-.1527.359-.1922.131-.0394.269-.0522.405-.0376s.268.0564.388.1228c.119.0467.226.1197.312.2137.087.094.151.2064.188.3287.036.1224.045.2515.024.3776-.02.1261-.069.2459-.142.3503-1.056 1.7396-2.123 3.4753-3.201 5.2071-.381.6437-.796 1.2664-1.244 1.8654-1.686 2.1821-3.49 1.9684-6.904.8545-3.281-1.0719-3.895-8.5678-4.528-10.3569-.225-.6371 0-1.1445.576-1.3314.142-.0441.293-.0581.441-.041.149.017.292.0647.421.14s.241.1766.329.2974c.088.1209.15.2587.182.4047.788 2.3244 1.582 4.6476 2.38 6.9695.078.2446.223.462.42.6269.197.1648.436.2702.69.3039.264.0579.538.0383.791-.0565.252-.0947.472-.2606.632-.4776.13-.1678.225-.3471.55-.2327.915.3319 1.377.187 1.949-.5378.031-.0382.076-.0801.126-.1335z" fill="#63c780"/><path d="m201.414 77.1757c-.412-.0991-3.265-.679-3.757-.7171-.454-.04-.908.0728-1.29.3204-.201.1245-.432.1942-.669.2022s-.472-.0459-.681-.1564c-.362-.1794-.766-.2547-1.167-.2175-1.099.0992-1.828.9842-1.584 1.9074l1.355 5.1652c.109.3231.327.5985.616.7799.289.1813.632.2575.971.2157.203-.0137.402-.0721.58-.171.179-.0989.334-.2359.453-.4012.266.2552.613.409.981.4349.363.0291.724-.0723 1.018-.2861.1.1817.237.3401.403.4645.166.1243.356.2118.559.2565.325.0962.674.072.983-.0681s.557-.3868.699-.6949l1.907-4.921c.332-.8621-.297-1.854-1.377-2.1134z" fill="#63c780"/><path d="m198.172 84.9198h-.199l-2.781-.351c-1.312-.164-2.826-.8659-2.922-4.86-.002-.1011.035-.1992.105-.2725s.166-.1159.267-.1185c.101-.0025.199.0353.273.105.073.0698.116.1658.118.267.092 3.8528 1.553 4.036 2.255 4.1237l2.773.3509c.629.0687.919-.4997 1.415-1.8196.405-1.0757.862-2.2888 1.908-3.0518.081-.0602.183-.0855.283-.0705s.19.0692.251.1506c.06.0815.085.1835.07.2837-.015.1001-.069.1902-.15.2504-.863.6333-1.282 1.7433-1.648 2.7237-.428 1.1139-.87 2.2889-2.018 2.2889z" fill="#221f20"/><path d="m195.589 84.4504c-.087.0026-.173-.0248-.242-.0776-.07-.0527-.119-.1276-.14-.2123-.873-3.4828.107-5.3406.153-5.4131.025-.0438.058-.0823.098-.1132s.086-.0537.134-.0669c.049-.0133.1-.0169.15-.0105.05.0063.099.0225.142.0476.044.025.083.0585.114.0984.03.0399.053.0855.067.1342.013.0487.016.0996.01.1496-.006.0501-.023.0985-.048.1423 0 .0267-.873 1.7052-.08 4.86.013.0486.016.0992.009.1489s-.024.0975-.049.1408c-.026.0432-.06.081-.1.1111-.04.0302-.086.0521-.134.0646-.028.0016-.057.0003-.084-.0039z" fill="#221f20"/><path d="m150.831 127.851s3.158-.95 5.077-5.07l1.572 2.155-3.693 3.353z" fill="#63c780"/><path d="m186.361 117.436s2.034.882 3.708-1.144l.538 1.335-2.911 2.548-.915-1.415z" fill="#63c780"/><path d="m125.039 86.0109h40.402l-13.298-30.2699h-38.792z" fill="#ef903c"/><path d="m125.051 86.0375h38.132l-12.551-28.5685h-36.61z" fill="#221f20"/><path d="m113.351 55.7523v-1.7891c7.221-2.3194 21.874-7.4273 31.876-22.3048 0 0 21.141 4.8982 35.397.5646 0 0-8.843 10.5096-20.249 11.6311 0-.0114-26.726 11.1925-47.024 11.8982z" fill="#ffc619"/><path d="m113.351 55.7524 39.059-.0458c9.823-3.1662 19.284-6.9504 28.992-21.3625 0 0-14.519 4.5434-35.362-.3815-11.349 17.7767-32.689 21.7898-32.689 21.7898z" fill="#fff"/><path d="m133.937 92.131c1.106-1.5453 1.098-3.4452-.017-4.2434s-2.916-.1925-4.022 1.3529c-1.106 1.5453-1.098 3.4451.017 4.2434 1.115.7982 2.916.1925 4.022-1.3529z" fill="#5865f2"/><path d="m120.832 84.3386c1.332-.5215 1.814-2.471 1.077-4.3543-.737-1.8834-2.415-2.9874-3.747-2.4659s-1.814 2.471-1.077 4.3544c.737 1.8833 2.415 2.9873 3.747 2.4658z" fill="#5865f2"/><path d="m157.443 90.7472c1.609-1.2248 2.278-3.0536 1.493-4.0847-.784-1.0311-2.725-.874-4.335.3508-1.609 1.2248-2.278 3.0535-1.493 4.0846.784 1.0311 2.725.8741 4.335-.3507z" fill="#5865f2"/><path d="m154.424 89.4514s-2.025 2.163.9 1.9074c-.341-.6157-.641-1.2528-.9-1.9074z" fill="#000"/><path d="m130.876 91.4199s-1.372 2.4796 1.352 1.3771c-.508-.4909-.913-.8239-1.352-1.3771z" fill="#000"/><path d="m107.797 66.9236c1.458-2.2817 3.243-2.8134 4.583-3.3761.096-.0439.204-.0542.306-.0292.102.0251.193.084.258.1672.065.0833.1.186.099.2916 0 .1056-.036.208-.102.2906-6.498 8.4741.081 11.8164.081 11.8164 1.192.8609 4.519 2.4449 6.818 2.6081 2.674.2503 4.88-.3208 7.221-1.162 1.606-.5627 4.205-2.3914 6.167-2.8725 1.561-.3578 3.188-.2927 4.715.1885l.796-5.2696 4.365.4052-.084 4.8475c.643-.1595 1.301-.2537 1.962-.2813 1.036-.0457 2.073.0489 3.084.2813.502.121 2.411.8131 2.576.8637 1.351.4417 2.59.5036 3.77.0788 1.181-.4248 2.375-1.3195 3.482-2.4223.535-.5189 1.024-1.0838 1.461-1.6881.417-.6061.778-1.2493 1.079-1.9216.616-1.4086 1.027-2.8991 1.219-4.4255.197-1.5918.254-3.1979.171-4.7997-.09-1.5522-.259-3.0988-.507-4.6337-.084-.2814-1.539-4.8954-8.707-6.1305-.036-.0058-.069-.023-.094-.0489-.026-.026-.042-.0593-.048-.0954-.005-.036.001-.0728.018-.105s.044-.0582.076-.0742c.938-.437 1.966-.6421 2.998-.598 1.033.044 2.04.3359 2.937.8512 0 0 .981-9.9961 11.538-8.2349.079.0126.152.0487.21.1037.059.055.099.1263.116.2046s.011.16-.019.2345-.081.1382-.147.183c-1.419.9763-4.219 3.1567-4.712 5.4609 0 0 2.951-2.5321 6.64-1.3082.068.0231.126.0671.166.1257.041.0585.062.1285.06.1998-.002.0712-.027.14-.07.1963-.044.0564-.104.0973-.172.1168-2.352.6612-8.032 2.85-7.423 8.505.284 1.6026.488 3.2186.611 4.8419.127 1.815.093 3.6378-.101 5.4468-.193 1.8766-.657 3.7152-1.377 5.4581-.379.8975-.842 1.7575-1.382 2.5686-.55.7928-1.166 1.5373-1.841 2.2254-.66.6899-1.372 1.3268-2.131 1.9047-.823.6284-1.731 1.1362-2.697 1.508-1.02.3833-2.103.5741-3.192.5627-.174 0-.348 0-.519-.0253.633.6302 1.25 1.2773 1.839 1.9497 2.083 2.3512 3.918 4.9129 5.475 7.6441 0 0 .877 1.6149 1.883 1.8062 4.673.8919 5.68-5.3455 5.845-6.6763.138-1.1829.128-2.3786-.031-3.5589-.312-1.669-.931-3.2651-1.825-4.7069-.05-.0762-.075-.1666-.071-.258.005-.0915.038-.1791.096-.2499.058-.0709.137-.1213.225-.1438.089-.0225.182-.016.266.0187.564.2206 1.068.5714 1.471 1.0241.403.4526.695.9943.85 1.5811 0 0-.339-3.9388 3.945-7.4331.058-.0482.132-.0744.207-.0741.076.0003.149.0271.207.0758.058.0486.098.1161.112.1908.013.0747.001.1519-.036.2183-.664 1.2323-1.556 3.0357-1.682 4.071.705-.9164 1.574-1.693 2.562-2.2901 1.828-1.1254 4.301-.1322 4.704 1.9863.002.0187.002.0375 0 .0562.013.0615.001.1255-.033.1782-.035.0526-.088.0897-.149.1032-1.599.4148-3.067 1.2298-4.267 2.3689.996 3.3142-1.339 4.8616-2.881 5.5002-.054.2814-.101.5627-.14.8666l-.096.7765c-.08 1.6927-.443 3.36-1.073 4.9319-.692 1.7227-1.847 3.2187-3.336 4.3214-1.559 1.1254-3.678 1.6206-5.823 1.3252-2.643-.3658-4.83-3.6125-4.83-3.6125-1.536-2.3492-3.311-4.5328-5.295-6.5159-.645-.6527-1.318-1.2745-2.01-1.8681-.139-.1158-.306-.1931-.484-.2243s-.361-.0152-.531.0465-.321.1669-.438.3052-.196.3048-.229.4831c-.151.8272-.252 1.75-.258 1.8147h-9.811s.328-3.1482-.068-3.8825c-.28-.5065-1.505-.6021-1.883-.1717 0 0-1.001 1.1423-1.377 2.0454-1.076 2.5827.906 4.8335.906 4.8335 1.296 1.7442 2.802 3.3205 4.485 4.6928 0 0 .28.1857.799.6217.401.3376.95.754 1.539 1.2548 3.083 1.9328 5.623 2.4983 7.028 2.6559.071.0067.138.037.19.0861s.087.1143.098.1852-.001.1435-.036.2065c-.034.0629-.089.1126-.154.1412-1.004.4614-2.554 1.0072-3.986.8299.512 1.439.495 3.015-.048 4.442-.025.071-.074.131-.138.17s-.139.054-.213.044-.142-.046-.193-.1c-.051-.055-.082-.126-.087-.201-.087-1.226-.401-2.92-1.401-3.8711.184 1.0561.139 2.1401-.133 3.1771-.273 1.037-.766 2.002-1.446 2.83-.047.053-.111.089-.181.102s-.142.003-.206-.029c-.063-.032-.115-.084-.146-.148-.032-.064-.041-.137-.027-.207.302-1.429.608-3.806-.303-5.182.003.882-.185 1.754-.553 2.556-.367.801-.905 1.512-1.575 2.083-.052.046-.118.074-.188.079-.069.006-.139-.012-.198-.049s-.105-.092-.13-.157c-.025-.066-.029-.137-.011-.205.561-2.031 1.604-6.7154-.37-8.4822-1.645-1.1254-7.12-4.8672-7.978-9.9314-.221-1.2821-.157-2.5973.188-3.8516.076-.2813.165-.5374.261-.7962-.062.0225-5.273 1.7134-9.602.9031-1.962-.3657-5.188-1.7218-8.544-4.0401-.3-.2175-.586-.4534-.858-.7061-.913.1796-1.854.1587-2.758-.0613-.905-.22-1.751-.6339-2.481-1.2132-.517-.3975-.938-.9082-1.229-1.4932-.292-.585-.447-1.2289-.453-1.8829-.084-4.2286 4.295-6.1024 4.844-6.3443z" fill="#d8549b"/><path d="m160.44 69.2944c-.309 1.5259-1.144 2.4796-2.098 3.624-1.118 1.1101-2.426 2.2583-3.624 2.6703-1.243.4106-2.769.5311-3.994.0687-.168-.0496-2.094-.7629-2.602-.8697-1.023-.2327-2.072-.3251-3.12-.2747-.667.0306-1.328.1264-1.976.2861l.027-1.5259-4.899-.2441-.27 1.7815c-1.542-.4822-3.183-.5467-4.757-.187-1.992.4845-4.605 2.2889-6.222 2.8878-1.827.7216-3.76 1.1366-5.722 1.2283-.452-.3732-1.013-.5877-1.599-.6103-.225 0-.434.5035-.675.4616l1.908 4.8561c3.91.1984 7.854-1.648 7.907-1.667-.099.2543-.186.5213-.263.8011-.346 1.2611-.411 2.5829-.19 3.8719.311 1.6078.987 3.1229 1.976 4.4289.167.2327.343.4578.522.679 0 0 1.431-3.2997 3.109-2.7046 1.385.491.057-.2861-.183-.679-.387-.6741-.797-1.3768-.873-2.1502s.014-1.554.263-2.2902c.164-.4143.428-.7817.768-1.0698s.745-.488 1.181-.582c0 0-1.297.9804-1.339 3.9292h2.628 8.912 1.011c0-.0686.106-.9956.259-1.8272.033-.1804.113-.3488.232-.4887.118-.1398.272-.2461.444-.3082.173-.0621.358-.078.539-.0459.181.032.432.2364.573.3541.698.599 1.386 1.347 2.038 1.9993 1.385 1.3695 3.624 4.3869 3.624 4.3869s2.342-2.7199 4.639-2.1629c0 0-.199-.3472-.294-.4921-.324-.5036-.763-.969-1.102-1.4572-.989-1.4161-2.061-2.7715-3.212-4.0589-.592-.6752-1.213-1.3237-1.858-1.9608.175 0 .347.0267.526.0267 1.101.0062 2.193-.189 3.224-.576.974-.3767 1.89-.8905 2.72-1.5259.767-.5767 1.487-1.2146 2.151-1.9074.683-.6914 1.304-1.4406 1.858-2.2392" fill="#5865f2"/><path d="m137.655 74.7383s-3.853 1.4725 1.239 5.7869c.087.0727.196.1125.309.1125s.223-.0398.309-.1125c.58-.439 1.045-1.0124 1.354-1.6708.67.3451 1.248.8446 1.687 1.4572.033.0517.078.0946.132.125.053.0305.113.0475.174.0498.062.0022.123-.0104.178-.0369.056-.0264.104-.0659.141-.115.828-1.0948 2.621-3.975.042-5.5771z" fill="#fff"/><path d="m146.157 62.0274.874-18.7456c.004-.0726-.017-.1444-.059-.2032-.043-.0588-.105-.1008-.175-.1188-.071-.0181-.145-.0111-.211.0199-.066.0309-.119.0838-.15.1495l-8.114 16.9222c-3.983-.084-7.156 1.3122-7.763 3.7231-.74 2.9374 2.583 6.3516 7.58 7.9919l-.519 3.4104c-.06.3899-.035.7884.075 1.1674.11.3789.302.7292.562 1.026l.225.2556c.362.4112.839.7034 1.369.8383.531.1349 1.089.1062 1.603-.0824s.959-.5283 1.276-.9743c.317-.4461.492-.9776.502-1.5249l.049-3.1853c4.07.1373 7.336-1.2665 7.95-3.7156.614-2.449-1.533-5.146-5.074-6.9542z" fill="#d8549b"/><path d="m117.906 78.2592s1.201.6675 1.846 2.4833c.645 1.8159-.5 2.0066-1.015 1.8807l.408.618 1.793-.1412.271-1.4534-2.018-3.4332z" fill="#5865f2"/><path d="m117.715 82.2646s3.315 3.8186 2.186-.988c0 0-.47 1.5602-2.186.988z" fill="#000"/><path d="m162.988 68.0053c-1.743-.4616-2.884-1.3771-3.155-.3548-.087.4624 0 .9407.245 1.3428.144.2839.216.5995.207.918-.009.3186-.097.6299-.257.9055-.16.2695-.328.5327-.504.7896l3.079 2.121c.447-.685.851-1.3972 1.209-2.1324.201-.4126.544-.739.965-.9194.313-.1131.596-.2928.832-.5267s.418-.5162.534-.8275c.271-1.0224-1.411-.8583-3.155-1.3161z" fill="#5865f2"/><path d="m127.668 83.6226c-.034.0037-.069.0037-.103 0-.049-.0136-.094-.0367-.133-.0679-.04-.0311-.073-.0698-.097-.1138-.025-.044-.04-.0924-.046-.1423-.006-.05-.001-.1007.013-.149.045-.164 1.171-3.994 3.963-4.4136.05-.0076.101-.0051.15.0071.05.0122.096.034.137.0641.04.0301.075.068.101.1114s.043.0915.051.1416c.007.0501.005.1012-.007.1503-.013.0492-.034.0955-.064.1362-.031.0407-.068.0752-.112.1013-.043.0261-.091.0434-.141.0509-2.289.3471-3.335 3.8338-3.346 3.8681-.026.0757-.076.1411-.142.187-.065.0459-.144.0699-.224.0686z" fill="#221f20"/><path d="m154.145 81.6582c-.053-.0001-.105-.0114-.154-.033-.049-.0217-.092-.0533-.128-.0928-1.315-1.4305-2.969-2.5063-4.81-3.1281-.052-.0105-.1-.0314-.143-.0615s-.08-.0688-.107-.1135c-.027-.0448-.045-.0948-.052-.1468-.008-.052-.004-.1049.01-.1554.015-.0505.039-.0975.072-.1382.033-.0406.075-.0739.121-.0979.047-.024.098-.038.151-.0413.052-.0033.104.0042.154.0221 1.984.6496 3.765 1.8038 5.169 3.3494.067.0749.103.1736.098.2744s-.05.1956-.125.2635c-.07.0635-.161.0989-.256.0991z" fill="#221f20"/><path d="m148.214 67.2384c0 .8202-.939 2.2888-2.85 2.2888s-4.074-1.4686-4.074-2.2888 2.163-.6866 4.074-.6866 2.85-.1183 2.85.6866z" fill="#fff"/><path d="m147.932 68.1321c-.267-.5455-1.091-.8698-2.011-.763-1.068.1412-1.861.8278-1.766 1.5259.032.1973.124.3799.263.5227.306.0675.618.1033.931.1068.516.0214 1.028-.0966 1.483-.3416.454-.245.834-.608 1.1-1.0508z" fill="#221f20"/><path d="m146.642 64.2858c0 .5951-.675 1.6518-2.052 1.6518s-2.938-1.0567-2.938-1.6518 1.557-.4921 2.938-.4921 2.052-.0992 2.052.4921z" fill="#fff"/><path d="m146.451 64.9075c-.194-.3815-.789-.6294-1.449-.5417-.763.103-1.343.5989-1.274 1.1063.021.1441.088.2776.19.3815.221.0479.446.0735.672.0763.374.0134.744-.0745 1.072-.2545.327-.18.6-.4453.789-.7679z" fill="#221f20"/><path d="m138.917 68.7605c.116.2285.263.4391.439.6256.179.1875.383.3492.606.4806.223.1315.463.2304.714.2938.249.0628.505.0973.763.103h.023c.051-.0001.103.0104.15.0307.048.0204.091.0502.126.0877.036.0374.064.0818.082.1303s.026.1001.023.1518c-.005.0978-.047.19-.118.2575s-.165.105-.263.1049h-.027c-.316-.031-.629-.0962-.931-.1945-.303-.1015-.59-.244-.854-.4235-.261-.1799-.494-.3956-.695-.6408-.205-.2475-.371-.5255-.492-.824-.025-.0638-.024-.1349.004-.1978.027-.0629.078-.1125.141-.1379.061-.0234.129-.0234.19-.0002s.112.0681.142.1261z" fill="#221f20"/><path d="m110.509 77.2483c-.044-.0001-.088-.0078-.13-.0229-5.676-2.0791-5.745-5.7221-5.745-5.8862 0-.1011.04-.1982.112-.2697s.169-.1117.27-.1117.198.0402.269.1117c.072.0715.112.1686.112.2697 0 .1297.099 3.2883 5.245 5.169.085.0307.156.0903.201.1683.045.0781.061.1694.045.258s-.063.1687-.132.2261c-.07.0574-.157.0885-.247.0877z" fill="#221f20"/><path d="m110.12 78.0112h-.061c-1.908-.0992-5.246-1.2513-6.627-4.0093-.024-.045-.039-.0945-.043-.1453-.005-.0509.001-.1022.016-.1509.016-.0486.041-.0937.074-.1325.033-.0387.074-.0704.12-.0932.046-.0227.095-.0361.146-.0392s.102.0041.151.0211c.048.017.092.0435.13.0779.038.0345.068.0761.089.1226 1.225 2.449 4.319 3.5019 5.986 3.5896.078.0098.158-.005.227-.0424.07-.0374.126-.0955.161-.1663.036-.0708.048-.1508.036-.2289-.013-.0781-.049-.1504-.104-.2071-2.434-2.8038-3.99-4.9019-3.433-8.358.016-.1012.071-.192.153-.2525.083-.0604.186-.0856.287-.0699.102.0157.192.0709.253.1536.06.0826.085.1859.07.287-.496 3.1357.904 5.0164 3.265 7.7401.149.1662.246.3723.279.5928.033.2206.001.446-.092.6487-.093.2026-.244.3736-.433.4919s-.408.1788-.631.174z" fill="#221f20"/><path d="m162.006 48.5321c.043.018.09.0271.137.0267.078.0005.154-.0225.218-.0662.064-.0436.113-.1057.141-.178 0-.0572 1.983-4.9591 5.34-7.0572-.465-.0062-.93.0154-1.392.0648-2.93 2.4148-4.578 6.4851-4.646 6.714-.039.0926-.039.1966-.001.2894s.111.1669.203.2065z" fill="#221f20"/><path d="m138.124 71.7742c.844.2531 1.702.4544 2.571.6027l-2.869 1.339z" fill="#221f20"/><path d="m122.27 82.6995c-.035.0037-.069.0037-.103 0-.049-.0136-.094-.0367-.134-.0679-.039-.0312-.072-.0699-.097-.1138-.024-.044-.04-.0924-.045-.1424-.006-.05-.002-.1006.012-.1489.313-1.1216-.496-2.5712-.507-2.5864-.049-.0881-.062-.1921-.035-.2894.027-.0972.092-.1797.18-.2294.088-.0498.191-.0628.288-.0364.098.0265.18.0903.231.1775.042.0687.976 1.7395.576 3.1701-.025.0778-.073.1457-.139.1938-.066.048-.146.0737-.227.0732z" fill="#808aff"/><path d="m130.139 88.8488c-.076.0001-.15-.0224-.213-.0649-.042-.028-.078-.0639-.105-.1058-.028-.0418-.047-.0887-.057-.1379-.009-.0493-.009-.0999.001-.1491s.03-.0959.058-.1374c.525-.7478 1.3-1.2825 2.186-1.5068.101-.0183.205.0045.29.0631.084.0587.142.1485.16.2497.018.1011-.005.2054-.063.2898-.059.0844-.149.1421-.25.1603-.685.1834-1.283.6021-1.69 1.1826-.036.0496-.084.0898-.139.117s-.116.0407-.178.0394z" fill="#808aff"/><path d="m153.684 87.8915c-.075.0005-.148-.0208-.21-.0613-.063-.0404-.112-.0983-.142-.1664-.03-.0682-.039-.1436-.027-.217s.046-.1416.097-.1962c.502-.528 1.1-.9553 1.762-1.2589.092-.0425.197-.0466.292-.0116.096.0351.173.1065.215.1986.043.092.047.1972.012.2923-.035.0952-.106.1725-.199.215-.574.2586-1.092.6266-1.525 1.0834-.036.0379-.078.0682-.125.0892s-.098.0322-.15.0329z" fill="#808aff"/><path d="m163.27 71.3622h-.045c-.713-.0692-1.409-.2602-2.057-.5646-.082-.0512-.141-.1317-.166-.2251s-.013-.1927.032-.278c.046-.0852.122-.15.213-.1812.092-.0313.192-.0267.28.0129.567.2553 1.171.4176 1.789.4807.101.0061.196.0521.263.1279s.102.1753.096.2764c-.006.1012-.052.1958-.128.2631-.076.0672-.176.1016-.277.0955z" fill="#808aff"/><path d="m133.249 85.3966c-.102 0-.199-.0402-.27-.1117-.072-.0716-.112-.1686-.112-.2698 0-2.8267 2.785-3.7842 2.812-3.8147.096-.0313.2-.0232.29.0226.091.0458.159.1254.19.2215.032.0956.024.1998-.021.2898-.045.0901-.124.1587-.219.1909-.095.0343-2.289.8011-2.289 3.0708.003.0517-.005.1034-.023.1519s-.046.0928-.082.1303c-.035.0375-.078.0673-.126.0876-.047.0204-.099.0308-.15.0308z" fill="#221f20"/><path d="m172.572 76.531c.076.0542.169.0787.262.0689.093-.0099.179-.0534.242-.1223.609-.6617 1.353-1.1854 2.181-1.5361.829-.3507 1.722-.5202 2.622-.4972-.126-.279-.295-.5364-.5-.7629-1.855.1113-3.596.9307-4.864 2.2888-.035.0396-.062.0861-.078.1365-.017.0505-.022.1038-.017.1565.005.0528.022.1039.048.15s.062.0862.104.1178z" fill="#000"/><path d="m171.007 81.6581c-.101 0-.198-.0402-.27-.1118-.072-.0715-.112-.1685-.112-.2697.035-1.4878-1.526-2.0943-1.526-2.1019-.094-.0365-.17-.109-.212-.2016-.041-.0927-.043-.1978-.007-.2924s.109-.1709.202-.212c.092-.0412.197-.0438.292-.0074.084.0343 2.06.8126 2.014 2.8305-.004.0985-.046.1917-.117.26s-.166.1063-.264.1063z" fill="#221f20"/><path d="m137.408 67.5777c.074-.3783-.422-.7946-1.108-.9297-.686-.1352-1.303.062-1.378.4403-.074.3783.422.7944 1.108.9296.687.1351 1.303-.062 1.378-.4402z" fill="#ff78b9"/><path d="m146.074 157.827c4.902 0 8.877-3.975 8.877-8.877 0-4.903-3.975-8.877-8.877-8.877-4.903 0-8.877 3.974-8.877 8.877 0 4.902 3.974 8.877 8.877 8.877z" fill="#ef903c"/><path d="m154.955 148.95c-.002-.342-.022-.683-.061-1.022-.273.47-.574.924-.901 1.358.056-1.017.243-2.022.557-2.991-.12-.391-.268-.774-.442-1.144-.599 1.712-1.007 3.482-.851 4.985-.468.51-.978.978-1.526 1.4-.189-2.668-1.319-5.182-3.189-7.095-1.777-1.72-3.999-2.909-6.416-3.433-.361.181-.709.386-1.042.614 2.619.309 5.056 1.496 6.913 3.368 1.869 1.891 2.94 4.429 2.99 7.088-.639.42-1.315.782-2.018 1.084-.313.132-.629.259-.95.381-.702-1.617-2.975-2.537-5.787-3.67-1.68-.644-3.323-1.383-4.921-2.212-.042.271-.068.541-.083.82 1.537.78 3.114 1.481 4.722 2.102 2.606 1.049 4.715 1.907 5.341 3.197-2.67.73-5.455.946-8.206.637.227.292.472.569.733.831.61.042 1.239.069 1.861.069.347 0 .691 0 1.026-.023 1.617-.063 3.221-.319 4.777-.763.034.866-.481 1.965-1.557 3.319h.164c.282 0 .557 0 .828-.042 1.011-1.385 1.427-2.525 1.308-3.517.964-.329 1.891-.758 2.766-1.278-.047 1.252-.236 2.495-.565 3.704.328-.184.644-.388.947-.61.264-1.182.392-2.391.381-3.602.602-.419 1.166-.89 1.686-1.407.141.487.383.939.71 1.327l.072.077c.118-.271.221-.55.313-.832-.24-.375-.399-.796-.469-1.236.312-.366.605-.748.877-1.144.008-.115.012-.228.012-.34z" fill="#221f20"/></svg>