<svg width="660" height="96" viewBox="0 0 660 96" fill="none" xmlns="http://www.w3.org/2000/svg">
<g clip-path="url(#clip0)">
<g opacity="0.25">
<path d="M338.333 45.3334C337.733 45.3334 337.199 44.9334 337.053 44.3467L335.853 39.9601C335.479 38.6001 334.413 37.5201 333.039 37.1601L328.653 35.9601C328.066 35.8001 327.666 35.2667 327.666 34.6667C327.666 34.0667 328.066 33.5334 328.653 33.3867L333.039 32.1867C334.399 31.8134 335.479 30.7467 335.839 29.3734L337.039 24.9867C337.199 24.4001 337.733 24.0001 338.333 24.0001C338.933 24.0001 339.466 24.4001 339.613 24.9867L340.813 29.3734C341.186 30.7334 342.253 31.8134 343.626 32.1734L348.013 33.3734C348.599 33.5334 348.999 34.0667 348.999 34.6667C348.999 35.2667 348.599 35.8001 348.013 35.9467L343.626 37.1467C342.266 37.5201 341.186 38.5867 340.826 39.9601L339.626 44.3467C339.466 44.9334 338.933 45.3334 338.333 45.3334ZM348.999 29.3334C348.693 29.3334 348.439 29.1334 348.359 28.8401L347.759 26.6401C347.573 25.9601 347.039 25.4267 346.359 25.2401L344.159 24.6401C343.866 24.5601 343.666 24.3067 343.666 24.0001C343.666 23.6934 343.866 23.4401 344.159 23.3601L346.359 22.7601C347.039 22.5734 347.573 22.0401 347.759 21.3601L348.359 19.1601C348.439 18.8667 348.693 18.6667 348.999 18.6667C349.306 18.6667 349.559 18.8667 349.639 19.1601L350.239 21.3601C350.426 22.0401 350.959 22.5734 351.639 22.7601L353.839 23.3601C354.133 23.4401 354.333 23.6934 354.333 24.0001C354.333 24.3067 354.133 24.5601 353.839 24.6401L351.639 25.2401C350.959 25.4267 350.426 25.9601 350.239 26.6401L349.639 28.8401C349.559 29.1334 349.306 29.3334 348.999 29.3334Z" fill="#2E3338"/>
</g>
<g opacity="0.25">
<path d="M387 100C386.1 100 385.3 99.4 385.08 98.52L383.28 91.94C382.72 89.9 381.12 88.28 379.06 87.74L372.48 85.94C371.6 85.7 371 84.9 371 84C371 83.1 371.6 82.3 372.48 82.08L379.06 80.28C381.1 79.72 382.72 78.12 383.26 76.06L385.06 69.48C385.3 68.6 386.1 68 387 68C387.9 68 388.7 68.6 388.92 69.48L390.72 76.06C391.28 78.1 392.88 79.72 394.94 80.26L401.52 82.06C402.4 82.3 403 83.1 403 84C403 84.9 402.4 85.7 401.52 85.92L394.94 87.72C392.9 88.28 391.28 89.88 390.74 91.94L388.94 98.52C388.7 99.4 387.9 100 387 100ZM403 76C402.54 76 402.16 75.7 402.04 75.26L401.14 71.96C400.86 70.94 400.06 70.14 399.04 69.86L395.74 68.96C395.3 68.84 395 68.46 395 68C395 67.54 395.3 67.16 395.74 67.04L399.04 66.14C400.06 65.86 400.86 65.06 401.14 64.04L402.04 60.74C402.16 60.3 402.54 60 403 60C403.46 60 403.84 60.3 403.96 60.74L404.86 64.04C405.14 65.06 405.94 65.86 406.96 66.14L410.26 67.04C410.7 67.16 411 67.54 411 68C411 68.46 410.7 68.84 410.26 68.96L406.96 69.86C405.94 70.14 405.14 70.94 404.86 71.96L403.96 75.26C403.84 75.7 403.46 76 403 76Z" fill="#2E3338"/>
</g>
<g opacity="0.25">
<path d="M435.333 39.3334C434.958 39.3334 434.624 39.0834 434.533 38.7167L433.783 35.9751C433.549 35.1251 432.883 34.4501 432.024 34.2251L429.283 33.4751C428.916 33.3751 428.666 33.0417 428.666 32.6667C428.666 32.2917 428.916 31.9584 429.283 31.8667L432.024 31.1167C432.874 30.8834 433.549 30.2167 433.774 29.3584L434.524 26.6167C434.624 26.2501 434.958 26.0001 435.333 26.0001C435.708 26.0001 436.041 26.2501 436.133 26.6167L436.883 29.3584C437.116 30.2084 437.783 30.8834 438.641 31.1084L441.383 31.8584C441.749 31.9584 441.999 32.2917 441.999 32.6667C441.999 33.0417 441.749 33.3751 441.383 33.4667L438.641 34.2167C437.791 34.4501 437.116 35.1167 436.891 35.9751L436.141 38.7167C436.041 39.0834 435.708 39.3334 435.333 39.3334ZM441.999 29.3334C441.808 29.3334 441.649 29.2084 441.599 29.0251L441.224 27.6501C441.108 27.2251 440.774 26.8917 440.349 26.7751L438.974 26.4001C438.791 26.3501 438.666 26.1917 438.666 26.0001C438.666 25.8084 438.791 25.6501 438.974 25.6001L440.349 25.2251C440.774 25.1084 441.108 24.7751 441.224 24.3501L441.599 22.9751C441.649 22.7917 441.808 22.6667 441.999 22.6667C442.191 22.6667 442.349 22.7917 442.399 22.9751L442.774 24.3501C442.891 24.7751 443.224 25.1084 443.649 25.2251L445.024 25.6001C445.208 25.6501 445.333 25.8084 445.333 26.0001C445.333 26.1917 445.208 26.3501 445.024 26.4001L443.649 26.7751C443.224 26.8917 442.891 27.2251 442.774 27.6501L442.399 29.0251C442.349 29.2084 442.191 29.3334 441.999 29.3334Z" fill="#2E3338"/>
</g>
</g>
<defs>
<clipPath id="clip0">
<rect width="660" height="96" rx="8" fill="white"/>
</clipPath>
</defs>
</svg>
