<svg xmlns="http://www.w3.org/2000/svg" xmlns:xlink="http://www.w3.org/1999/xlink" width="240" height="130" viewBox="0 0 240 130">
  <defs>
    <polygon id="no_mutual_friends_dark-a" points=".609 .615 82.21 .615 82.21 41.559 82.21 82.502 .609 82.502 .609 .615"/>
  </defs>
  <g fill="none" fill-rule="evenodd" transform="translate(4 8)">
    <path fill="#4F545C" d="M25.68344 18.5479606L22.36104 18.5479606C15.38504 18.5479606 9.62664 23.8473549 8.85544 30.6432L16.04824 30.6432C16.65384 25.0186648 20.51384 20.3462704 25.68344 18.5479606M15.9608 59.3308986L15.9608 58.2607437 8.7608 58.2607437 8.7608 59.3308986C8.7608 66.8565042 14.8616 72.9787859 22.3608 72.9787859L25.684 72.9787859C20.0448 71.0175042 15.9608 65.6354197 15.9608 59.3308986"/>
    <path fill="#72767D" d="M74.15216,35.086069 L87.71376,35.086069 L87.71376,32.1959282 C87.71376,24.6703225 81.61296,18.5480408 74.11376,18.5480408 L25.68336,18.5480408 C20.51376,20.3463507 16.65376,25.0179423 16.04816,30.6432803 L19.68016,30.6432803 C20.12176,30.6432803 20.48016,31.0029423 20.48016,31.4460972 C20.48016,31.8900549 20.12176,32.2489141 19.68016,32.2489141 L8.00016,32.2489141 C4.47056,32.2489141 1.60016,35.1302239 1.60016,38.6714493 L1.60016,50.2320127 C1.60016,53.773238 4.47056,56.6545479 8.00016,56.6545479 L19.68016,56.6545479 C20.12176,56.6545479 20.48016,57.0142099 20.48016,57.4573648 C20.48016,57.9005197 20.12176,58.2601817 19.68016,58.2601817 L15.96096,58.2601817 L15.96096,59.3311394 C15.96096,65.6356606 20.04496,71.0169423 25.68416,72.9790268 L74.11376,72.9790268 C80.94096,72.9790268 86.59216,67.900407 87.55376,61.3132944 C85.38896,62.5046746 82.90736,63.1846606 80.26896,63.1846606 L64.90896,63.1846606 C56.52736,63.1846606 49.70896,56.3422521 49.70896,47.9311394 L49.70896,41.6691676 C49.70896,38.0388296 52.65216,35.086069 56.26896,35.086069 L64.90896,35.086069 C65.35136,35.086069 65.70896,35.445731 65.70896,35.8888859 L73.35216,35.8888859 C73.35216,35.445731 73.71056,35.086069 74.15216,35.086069"/>
    <path fill="#72767D" d="M57.22912,47.9311394 L57.22912,41.6691676 C57.22912,39.5537451 58.37952,37.699238 60.08112,36.6917028 L56.26912,36.6917028 C53.53392,36.6917028 51.30912,38.9243366 51.30912,41.6691676 L51.30912,47.9311394 C51.30912,55.4567451 57.40992,61.5790268 64.90912,61.5790268 L66.95232,61.5790268 C61.31232,59.6177451 57.22912,54.2356606 57.22912,47.9311394"/>
    <path fill="#4F545C" d="M11.20024,35.4605028 C8.99064,35.4605028 7.20024,37.2580099 7.20024,39.4745873 L7.20024,49.4295169 C7.20024,51.6468972 8.99064,53.4436014 11.20024,53.4436014 L16.48024,53.4436014 C17.36424,53.4436014 18.08024,52.7250803 18.08024,51.8379676 L18.08024,37.0661366 C18.08024,36.1798268 17.36424,35.4605028 16.48024,35.4605028 L11.20024,35.4605028 Z"/>
    <path fill="#B9BBBE" d="M86.01472,55.7602099 L83.19392,55.7602099 C81.90032,55.7602099 80.84272,54.6988859 80.84272,53.400731 C80.84272,52.1033789 81.90032,51.0420549 83.19392,51.0420549 L86.01472,51.0420549 C87.30752,51.0420549 88.36512,52.1033789 88.36512,53.400731 C88.36512,54.6988859 87.30752,55.7602099 86.01472,55.7602099 M74.75632,55.7602099 L70.05392,55.7602099 C68.76112,55.7602099 67.70352,54.6988859 67.70352,53.400731 C67.70352,52.1033789 68.76112,51.0420549 70.05392,51.0420549 L74.75632,51.0420549 C76.04912,51.0420549 77.10752,52.1033789 77.10752,53.400731 C77.10752,54.6988859 76.04912,55.7602099 74.75632,55.7602099 M88.90912,36.6917028 L74.15232,36.6917028 C73.71072,36.6917028 73.35232,36.3320408 73.35232,35.8888859 L65.70912,35.8888859 C65.70912,36.3320408 65.35072,36.6917028 64.90912,36.6917028 L60.08112,36.6917028 C58.38032,37.699238 57.22912,39.5537451 57.22912,41.6691676 L57.22912,47.9311394 C57.22912,54.2356606 61.31312,59.6177451 66.95232,61.5790268 L80.26912,61.5790268 C87.76832,61.5790268 93.86912,55.4567451 93.86912,47.9311394 L93.86912,41.6691676 C93.86912,38.9243366 91.64432,36.6917028 88.90912,36.6917028"/>
    <path fill="#202225" d="M93.86896,47.9311394 C93.86896,55.4687873 87.78016,61.5790268 80.26896,61.5790268 L66.95216,61.5790268 L64.90896,61.5790268 C57.39776,61.5790268 51.30896,55.4687873 51.30896,47.9311394 L51.30896,41.6691676 C51.30896,38.9203225 53.52976,36.6917028 56.26896,36.6917028 L60.08176,36.6917028 L64.90896,36.6917028 C65.35136,36.6917028 65.70896,36.3320408 65.70896,35.8888859 C65.70896,35.445731 65.35136,35.086069 64.90896,35.086069 L56.26896,35.086069 C52.64576,35.086069 49.70896,38.0332099 49.70896,41.6691676 L49.70896,47.9311394 C49.70896,56.3559 56.51456,63.1846606 64.90896,63.1846606 L80.26896,63.1846606 C82.33856,63.1846606 84.31216,62.766393 86.11136,62.0109423 C86.74496,61.7452099 87.38736,62.314407 87.20336,62.9783366 C85.61056,68.7369423 80.35296,72.9790268 74.11376,72.9790268 L25.68416,72.9790268 L22.36096,72.9790268 C18.30896,72.9790268 14.66576,71.1919563 12.17136,68.3612239 C8.97536,64.7332944 11.18736,58.9698718 15.96096,58.2601817 L19.68016,58.2601817 C20.12176,58.2601817 20.48016,57.9005197 20.48016,57.4573648 C20.48016,57.0142099 20.12176,56.6545479 19.68016,56.6545479 L8.00016,56.6545479 C4.46576,56.6545479 1.60016,53.7796606 1.60016,50.2320127 L1.60016,38.6714493 C1.60016,35.1246042 4.46576,32.2489141 8.00016,32.2489141 L19.68016,32.2489141 C20.12176,32.2489141 20.48016,31.8900549 20.48016,31.4460972 C20.48016,31.0029423 20.12176,30.6432803 19.68016,30.6432803 L16.04816,30.6432803 L10.79296,30.6432803 C9.73616,30.6432803 8.96656,29.6325338 9.24496,28.6089423 C10.81776,22.8190268 16.09936,18.5480408 22.36096,18.5480408 L25.68336,18.5480408 L74.11376,18.5480408 C81.62496,18.5480408 87.71376,24.6582803 87.71376,32.1959282 L87.71376,33.4804352 C87.71376,34.3667451 86.99776,35.086069 86.11376,35.086069 L74.15216,35.086069 C73.71056,35.086069 73.35216,35.445731 73.35216,35.8888859 C73.35216,36.3320408 73.71056,36.6917028 74.15216,36.6917028 L88.90896,36.6917028 C91.64816,36.6917028 93.86896,38.9203225 93.86896,41.6691676 L93.86896,47.9311394 Z M89.31376,35.1069423 L89.31376,32.1959282 C89.31376,23.7848155 82.49536,16.942407 74.11376,16.942407 L22.36096,16.942407 C14.48896,16.942407 7.99696,22.9795901 7.23696,30.6826183 C3.18256,31.0695761 0.00016,34.5032239 0.00016,38.6714493 L0.00016,50.2320127 C0.00016,54.3745479 3.14256,57.7929423 7.16096,58.2160268 L7.16096,59.3311394 C7.16096,67.7414493 13.97936,74.5846606 22.36096,74.5846606 L74.11376,74.5846606 C82.20496,74.5846606 88.82016,68.2022662 89.27056,60.1941676 C93.02096,57.4140127 95.46896,52.9591817 95.46896,47.9311394 L95.46896,41.6691676 C95.46896,38.1761113 92.74256,35.3188859 89.31376,35.1069423 L89.31376,35.1069423 Z"/>
    <path fill="#4F545C" d="M74.75648 51.0417338L70.05408 51.0417338C68.76128 51.0417338 67.70368 52.1030577 67.70368 53.4004099 67.70368 54.6985648 68.76128 55.7598887 70.05408 55.7598887L74.75648 55.7598887C76.04928 55.7598887 77.10688 54.6985648 77.10688 53.4004099 77.10688 52.1030577 76.04928 51.0417338 74.75648 51.0417338M86.01472 51.0417338L83.19392 51.0417338C81.90032 51.0417338 80.84272 52.1030577 80.84272 53.4004099 80.84272 54.6985648 81.90032 55.7598887 83.19392 55.7598887L86.01472 55.7598887C87.30752 55.7598887 88.36512 54.6985648 88.36512 53.4004099 88.36512 52.1030577 87.30752 51.0417338 86.01472 51.0417338"/>
    <path fill="#202225" d="M112.4432 46.2216211L111.2352 46.2216211 111.2352 45.0093676C111.2352 44.5654099 110.8768 44.2065507 110.4352 44.2065507 109.9936 44.2065507 109.6352 44.5654099 109.6352 45.0093676L109.6352 46.2216211 108.4272 46.2216211C107.9856 46.2216211 107.6272 46.5812831 107.6272 47.024438 107.6272 47.467593 107.9856 47.8272549 108.4272 47.8272549L109.6352 47.8272549 109.6352 49.0395085C109.6352 49.4826634 109.9936 49.8423254 110.4352 49.8423254 110.8768 49.8423254 111.2352 49.4826634 111.2352 49.0395085L111.2352 47.8272549 112.4432 47.8272549C112.8848 47.8272549 113.2432 47.467593 113.2432 47.024438 113.2432 46.5812831 112.8848 46.2216211 112.4432 46.2216211M106.79752 23.7337563L105.85112 24.6834887C105.53832 24.9973901 105.53832 25.5055732 105.85112 25.8186718 106.00712 25.9752211 106.21192 26.0538972 106.41672 26.0538972 106.62152 26.0538972 106.82632 25.9752211 106.98232 25.8186718L107.92872 24.8689394C108.24152 24.555038 108.24152 24.0476577 107.92872 23.7337563 107.61592 23.4198549 107.11032 23.4198549 106.79752 23.7337563M102.06472 28.4836225L101.11832 29.4333549C100.80552 29.7472563 100.80552 30.2554394 101.11832 30.568538 101.27432 30.7250873 101.47912 30.8037634 101.68392 30.8037634 101.88872 30.8037634 102.09352 30.7250873 102.24952 30.568538L103.19592 29.6188056C103.50872 29.3049042 103.50872 28.7975239 103.19592 28.4836225 102.88312 28.1697211 102.37752 28.1697211 102.06472 28.4836225M106.98224 28.4836225C106.66944 28.1697211 106.16384 28.1697211 105.85104 28.4836225 105.53824 28.7975239 105.53824 29.3049042 105.85104 29.6188056L106.79744 30.568538C106.95344 30.7250873 107.15824 30.8037634 107.36304 30.8037634 107.56784 30.8037634 107.77264 30.7250873 107.92864 30.568538 108.24144 30.2554394 108.24144 29.7472563 107.92864 29.4333549L106.98224 28.4836225zM102.24944 23.7337563C101.93664 23.4198549 101.43104 23.4198549 101.11824 23.7337563 100.80544 24.0476577 100.80544 24.555038 101.11824 24.8689394L102.06464 25.8186718C102.22064 25.9752211 102.42544 26.0538972 102.63024 26.0538972 102.83504 26.0538972 103.03984 25.9752211 103.19584 25.8186718 103.50864 25.5055732 103.50864 24.9973901 103.19584 24.6834887L102.24944 23.7337563zM140.35216 9.94320845C139.68576 9.94320845 139.14416 9.39889859 139.14416 8.73095493 139.14416 8.06220845 139.68576 7.51870141 140.35216 7.51870141 141.01856 7.51870141 141.56016 8.06220845 141.56016 8.73095493 141.56016 9.39889859 141.01856 9.94320845 140.35216 9.94320845M140.35216 5.91306761C138.80416 5.91306761 137.54416 7.17750423 137.54416 8.73095493 137.54416 10.2844056 138.80416 11.5488423 140.35216 11.5488423 141.90096 11.5488423 143.16016 10.2844056 143.16016 8.73095493 143.16016 7.17750423 141.90096 5.91306761 140.35216 5.91306761"/>
    <path fill="#36393F" d="M209.226,6.90438592 C203.6516,3.96286479 197.3524,2.40780845 191.0092,2.40780845 C169.3948,2.40780845 151.8092,20.0553296 151.8092,41.7458366 C151.8092,53.047893 156.59,63.2436676 164.2196,70.4256676 C166.494,66.8675831 169.446,63.8000197 172.8804,61.3955831 C167.6132,56.4984 164.3084,49.5042592 164.3084,41.7458366 C164.3084,26.9707944 176.286,14.9502169 191.0092,14.9502169 C205.7332,14.9502169 217.7108,26.9707944 217.7108,41.7458366 C217.7108,49.5042592 214.406,56.4984 209.138,61.3963859 C212.5724,63.8008225 215.5252,66.8675831 217.7996,70.4256676 C225.4292,63.2436676 230.2092,53.047893 230.2092,41.7458366 C230.2092,33.8926817 227.9108,26.3116817 223.562,19.8217099 C223.3188,19.4596394 223.4132,18.9723296 223.766,18.7218507 C222.1204,16.3679915 220.2332,14.1979775 218.1348,12.2527521 C217.9772,12.4237521 217.7636,12.5144704 217.5476,12.5144704 C217.3588,12.5144704 217.1692,12.4478366 217.0172,12.3121606 C216.1796,11.5663437 215.3004,10.8486254 214.4036,10.1774704 C214.054,9.91735775 213.9812,9.42683662 214.2308,9.07279437 C212.9716,8.16882254 211.6604,7.33228732 210.298,6.57763944 C210.0884,6.9605831 209.614,7.10910423 209.226,6.90438592"/>
    <path fill="#72767D" d="M165.42488,71.5123606 C172.29688,77.469262 181.23768,81.0843465 191.00968,81.0843465 C200.78168,81.0843465 209.72248,77.4684592 216.59448,71.5123606 C214.34488,67.9229662 211.37368,64.8489803 207.89928,62.4830789 C203.29368,66.2667549 197.41208,68.541938 191.00968,68.541938 C184.60808,68.541938 178.72568,66.2675577 174.12168,62.4838817 C170.64568,64.8489803 167.67448,67.923769 165.42488,71.5123606"/>
    <path fill="#4F545C" d="M175.94008,36.7865958 C177.80568,36.7865958 179.31848,38.3047225 179.31848,40.1768915 C179.31848,42.0490606 177.80568,43.5671873 175.94008,43.5671873 C174.07368,43.5671873 172.56168,42.0490606 172.56168,40.1768915 C172.56168,38.3047225 174.07368,36.7865958 175.94008,36.7865958 M206.34888,36.7865958 C208.21448,36.7865958 209.72728,38.3047225 209.72728,40.1768915 C209.72728,42.0490606 208.21448,43.5671873 206.34888,43.5671873 C204.48248,43.5671873 202.97048,42.0490606 202.97048,40.1768915 C202.97048,38.3047225 204.48248,36.7865958 206.34888,36.7865958 M191.00968,66.9363845 C204.85048,66.9363845 216.11128,55.6359338 216.11128,41.7463986 C216.11128,27.8560606 204.85048,16.5564127 191.00968,16.5564127 C177.16888,16.5564127 165.90808,27.8560606 165.90808,41.7463986 C165.90808,55.6359338 177.16888,66.9363845 191.00968,66.9363845"/>
    <path fill="#202225" d="M175.94008 43.5670268C177.80568 43.5670268 179.31848 42.0489 179.31848 40.176731 179.31848 38.304562 177.80568 36.7864352 175.94008 36.7864352 174.07368 36.7864352 172.56168 38.304562 172.56168 40.176731 172.56168 42.0489 174.07368 43.5670268 175.94008 43.5670268M206.34872 43.5670268C208.21432 43.5670268 209.72712 42.0489 209.72712 40.176731 209.72712 38.304562 208.21432 36.7864352 206.34872 36.7864352 204.48232 36.7864352 202.97032 38.304562 202.97032 40.176731 202.97032 42.0489 204.48232 43.5670268 206.34872 43.5670268M214.40336 10.177631C215.30096 10.8487859 216.18016 11.5665042 217.01696 12.3123211 217.16976 12.4479972 217.35856 12.514631 217.54736 12.514631 217.76336 12.514631 217.97696 12.4239127 218.13456 12.2529127 218.13776 12.2497014 218.14256 12.2480958 218.14656 12.2440817 218.43936 11.9125183 218.40896 11.405138 218.07856 11.111307 217.20816 10.3357859 216.29296 9.58836338 215.35856 8.88991268 215.00496 8.6249831 214.50336 8.69884225 214.23936 9.05449014 214.23536 9.06010986 214.23536 9.06653239 214.23136 9.07295493 213.98176 9.42699718 214.05376 9.91751831 214.40336 10.177631"/>
    <g transform="translate(149.6 .188)">
      <mask id="no_mutual_friends_dark-b" fill="#fff">
        <use xlink:href="#no_mutual_friends_dark-a"/>
      </mask>
      <path fill="#202225" d="M41.4096,68.3539183 C47.812,68.3539183 53.6936,66.079538 58.2992,62.2950592 C61.7736,64.6609606 64.7448,67.7349465 66.9944,71.3243408 C60.1224,77.2812423 51.1816,80.8963268 41.4096,80.8963268 C31.6376,80.8963268 22.6968,77.2812423 15.8248,71.3243408 C18.0744,67.7357493 21.0456,64.6609606 24.5216,62.295862 C29.1264,66.079538 35.008,68.3539183 41.4096,68.3539183 M41.4096,16.3683127 C55.2504,16.3683127 66.5112,27.6687634 66.5112,41.5582986 C66.5112,55.4478338 55.2504,66.7482845 41.4096,66.7482845 C27.5688,66.7482845 16.308,55.4478338 16.308,41.5582986 C16.308,27.6687634 27.5688,16.3683127 41.4096,16.3683127 M75.2896,18.7382282 C75.0432,18.3697352 74.5464,18.2725944 74.1792,18.519862 C74.1744,18.5238761 74.1712,18.5294958 74.1664,18.5335099 C73.8128,18.7847915 73.7192,19.2712986 73.9624,19.6341718 C78.3104,26.1233408 80.6096,33.7051437 80.6096,41.5582986 C80.6096,50.6774958 77.4968,59.0781718 72.2856,65.7552 C70.4696,68.0825662 66.9736,68.2286789 64.9976,66.0361859 C63.9432,64.8664817 62.8048,63.7754535 61.5928,62.773538 C60.5672,61.9249606 60.448,60.3682986 61.3328,59.3728056 C66.0472,54.0702 68.6992,46.8841859 68,39.0920451 C66.8368,26.1177211 56.2624,15.735693 43.3136,14.8293127 C27.7328,13.7390873 14.708,26.1506366 14.708,41.5582986 C14.708,48.3910732 17.272,54.6321718 21.4824,59.3695944 C22.3688,60.3658901 22.2536,61.9225521 21.2264,62.7727352 C20.0144,63.7746507 18.876,64.8656789 17.8216,66.0361859 C15.8456,68.2286789 12.3496,68.0825662 10.5336,65.7552 C5.3224,59.0781718 2.2096,50.6774958 2.2096,41.5582986 C2.2096,19.8669887 19.7944,2.22027042 41.4096,2.22027042 C47.752,2.22027042 54.0512,3.77532676 59.6264,6.71684789 C60.0144,6.9215662 60.488,6.77304507 60.6976,6.39010141 C60.7,6.38608732 60.704,6.38367887 60.7064,6.37966479 C60.912,5.98708732 60.7616,5.5013831 60.3704,5.29505915 C54.5672,2.23311549 48.0104,0.61463662 41.4096,0.61463662 C17.876,0.61463662 -1.0672,20.7123549 0.7272,44.7021296 C2.2248,64.720369 18.3288,80.8810732 38.2768,82.3839465 C62.1824,84.1846648 82.2096,65.1747634 82.2096,41.5582986 C82.2096,33.3840169 79.8168,25.4931296 75.2896,18.7382282" mask="url(#no_mutual_friends_dark-b)"/>
    </g>
    <path fill="#202225" d="M39.46864 40.4380479L39.46864 40.4380479C37.48864 40.4380479 35.86864 42.0637521 35.86864 44.0507239 35.86864 46.0376958 37.48864 47.6634 39.46864 47.6634 41.44864 47.6634 43.06864 46.0376958 43.06864 44.0507239 43.06864 42.0637521 41.44864 40.4380479 39.46864 40.4380479M195.98576 48.1926169C194.69056 47.209969 193.16496 46.6632507 191.61136 46.5492507 191.55216 46.5444338 191.49296 46.5444338 191.43376 46.5412225 191.28416 46.5331944 191.13456 46.5251662 190.98496 46.5251662 190.83536 46.5251662 190.68576 46.5331944 190.53616 46.5412225 190.47696 46.5444338 190.41776 46.5444338 190.35776 46.5492507 188.80496 46.6632507 187.27936 47.209969 185.98416 48.1926169 185.63136 48.4599549 185.56176 48.9633211 185.82896 49.3165606 185.98576 49.5260958 186.22496 49.6352789 186.46736 49.6352789 186.63536 49.6352789 186.80496 49.582293 186.94896 49.4731099 186.95296 49.4698986 186.95776 49.4674901 186.96256 49.4642789L186.97136 49.4771239 187.02016 49.4401944C187.90256 48.7818845 188.91456 48.3724479 189.95856 48.2094761 190.03696 48.1974338 190.11616 48.1990394 190.19456 48.1894056 190.45696 48.1580958 190.72016 48.1308 190.98496 48.1308 191.24976 48.1308 191.51296 48.1580958 191.77536 48.1894056 191.85376 48.1990394 191.93296 48.1974338 192.01136 48.2094761 193.05456 48.3724479 194.06736 48.7818845 194.94976 49.4401944L194.99856 49.4771239 195.00736 49.4642789C195.01136 49.4674901 195.01696 49.4698986 195.02096 49.4731099 195.16496 49.582293 195.33456 49.6352789 195.50256 49.6352789 195.74496 49.6352789 195.98416 49.5260958 196.14096 49.3165606 196.40816 48.9633211 196.33856 48.4599549 195.98576 48.1926169M151.2272 105.867304L148.0272 105.867304C147.5856 105.867304 147.2272 106.226966 147.2272 106.670121 147.2272 107.113276 147.5856 107.472938 148.0272 107.472938L151.2272 107.472938C151.6688 107.472938 152.0272 107.113276 152.0272 106.670121 152.0272 106.226966 151.6688 105.867304 151.2272 105.867304M158.4272 105.867304L155.2272 105.867304C154.7856 105.867304 154.4272 106.226966 154.4272 106.670121 154.4272 107.113276 154.7856 107.472938 155.2272 107.472938L158.4272 107.472938C158.8688 107.472938 159.2272 107.113276 159.2272 106.670121 159.2272 106.226966 158.8688 105.867304 158.4272 105.867304M144.0272 105.867304L140.8272 105.867304C140.3856 105.867304 140.0272 106.226966 140.0272 106.670121 140.0272 107.113276 140.3856 107.472938 140.8272 107.472938L144.0272 107.472938C144.4688 107.472938 144.8272 107.113276 144.8272 106.670121 144.8272 106.226966 144.4688 105.867304 144.0272 105.867304M136.8272 105.867304L133.6272 105.867304C133.1856 105.867304 132.8272 106.226966 132.8272 106.670121 132.8272 107.113276 133.1856 107.472938 133.6272 107.472938L136.8272 107.472938C137.2688 107.472938 137.6272 107.113276 137.6272 106.670121 137.6272 106.226966 137.2688 105.867304 136.8272 105.867304M193.51432 90.5004254C193.07272 90.5004254 192.71432 90.8600873 192.71432 91.3032423L192.71432 94.5145099C192.71432 94.9576648 193.07272 95.3173268 193.51432 95.3173268 193.95592 95.3173268 194.31432 94.9576648 194.31432 94.5145099L194.31432 91.3032423C194.31432 90.8600873 193.95592 90.5004254 193.51432 90.5004254M187.2272 105.867304L184.0272 105.867304C183.5856 105.867304 183.2272 106.226966 183.2272 106.670121 183.2272 107.113276 183.5856 107.472938 184.0272 107.472938L187.2272 107.472938C187.6688 107.472938 188.0272 107.113276 188.0272 106.670121 188.0272 106.226966 187.6688 105.867304 187.2272 105.867304M193.51432 104.95113C193.07272 104.95113 192.71432 105.310792 192.71432 105.753946L192.71432 105.867144 191.22712 105.867144C190.78552 105.867144 190.42712 106.226806 190.42712 106.669961 190.42712 107.113115 190.78552 107.472777 191.22712 107.472777L193.51432 107.472777C193.95592 107.472777 194.31432 107.113115 194.31432 106.669961L194.31432 105.753946C194.31432 105.310792 193.95592 104.95113 193.51432 104.95113M193.51432 97.7257775C193.07272 97.7257775 192.71432 98.0854394 192.71432 98.5285944L192.71432 101.739862C192.71432 102.183017 193.07272 102.542679 193.51432 102.542679 193.95592 102.542679 194.31432 102.183017 194.31432 101.739862L194.31432 98.5285944C194.31432 98.0854394 193.95592 97.7257775 193.51432 97.7257775M165.6272 105.867304L162.4272 105.867304C161.9856 105.867304 161.6272 106.226966 161.6272 106.670121 161.6272 107.113276 161.9856 107.472938 162.4272 107.472938L165.6272 107.472938C166.0688 107.472938 166.4272 107.113276 166.4272 106.670121 166.4272 106.226966 166.0688 105.867304 165.6272 105.867304M172.8272 105.867304L169.6272 105.867304C169.1856 105.867304 168.8272 106.226966 168.8272 106.670121 168.8272 107.113276 169.1856 107.472938 169.6272 107.472938L172.8272 107.472938C173.2688 107.472938 173.6272 107.113276 173.6272 106.670121 173.6272 106.226966 173.2688 105.867304 172.8272 105.867304M180.0272 105.867304L176.8272 105.867304C176.3856 105.867304 176.0272 106.226966 176.0272 106.670121 176.0272 107.113276 176.3856 107.472938 176.8272 107.472938L180.0272 107.472938C180.4688 107.472938 180.8272 107.113276 180.8272 106.670121 180.8272 106.226966 180.4688 105.867304 180.0272 105.867304"/>
    <path fill="#F04747" d="M11.38112,8.0685507 C10.75632,7.4415507 10.75632,6.42518451 11.38112,5.79738169 L13.07792,4.09460704 C13.70272,3.46760704 13.70272,2.45124085 13.07792,1.82424085 L11.94672,0.689057746 C11.32192,0.0612549296 10.30912,0.0612549296 9.68352,0.689057746 L7.98672,2.39183239 C7.36192,3.01883239 6.34912,3.01883239 5.72432,2.39183239 L4.02752,0.689057746 C3.40192,0.0612549296 2.38912,0.0612549296 1.76432,0.689057746 L0.63312,1.82424085 C0.00832,2.45124085 0.00832,3.46760704 0.63312,4.09460704 L2.32992,5.79738169 C2.95472,6.42518451 2.95472,7.4415507 2.32992,8.0685507 L0.63312,9.77132535 C0.00832,10.3983254 0.00832,11.4146915 0.63312,12.0424944 L1.76432,13.1776775 C2.38912,13.8046775 3.40192,13.8046775 4.02752,13.1776775 L5.72432,11.4749028 C6.34912,10.8471 7.36192,10.8471 7.98672,11.4749028 L9.68352,13.1776775 C10.30912,13.8046775 11.32192,13.8046775 11.94672,13.1776775 L13.07792,12.0424944 C13.70272,11.4146915 13.70272,10.3983254 13.07792,9.77132535 L11.38112,8.0685507 Z" transform="translate(113.6 99.737)"/>
    <path fill="#202225" d="M89.68384 105.867304L92.88384 105.867304C93.32544 105.867304 93.68384 106.226966 93.68384 106.670121 93.68384 107.113276 93.32544 107.472938 92.88384 107.472938L89.68384 107.472938C89.24224 107.472938 88.88384 107.113276 88.88384 106.670121 88.88384 106.226966 89.24224 105.867304 89.68384 105.867304M82.48384 105.867304L85.68384 105.867304C86.12544 105.867304 86.48384 106.226966 86.48384 106.670121 86.48384 107.113276 86.12544 107.472938 85.68384 107.472938L82.48384 107.472938C82.04224 107.472938 81.68384 107.113276 81.68384 106.670121 81.68384 106.226966 82.04224 105.867304 82.48384 105.867304M96.88384 105.867304L100.08384 105.867304C100.52544 105.867304 100.88384 106.226966 100.88384 106.670121 100.88384 107.113276 100.52544 107.472938 100.08384 107.472938L96.88384 107.472938C96.44224 107.472938 96.08384 107.113276 96.08384 106.670121 96.08384 106.226966 96.44224 105.867304 96.88384 105.867304M104.08384 105.867304L107.28384 105.867304C107.72544 105.867304 108.08384 106.226966 108.08384 106.670121 108.08384 107.113276 107.72544 107.472938 107.28384 107.472938L104.08384 107.472938C103.64224 107.472938 103.28384 107.113276 103.28384 106.670121 103.28384 106.226966 103.64224 105.867304 104.08384 105.867304M47.39672 90.5004254C47.83832 90.5004254 48.19672 90.8600873 48.19672 91.3032423L48.19672 94.5145099C48.19672 94.9576648 47.83832 95.3173268 47.39672 95.3173268 46.95512 95.3173268 46.59672 94.9576648 46.59672 94.5145099L46.59672 91.3032423C46.59672 90.8600873 46.95512 90.5004254 47.39672 90.5004254M53.68384 105.867304L56.88384 105.867304C57.32544 105.867304 57.68384 106.226966 57.68384 106.670121 57.68384 107.113276 57.32544 107.472938 56.88384 107.472938L53.68384 107.472938C53.24224 107.472938 52.88384 107.113276 52.88384 106.670121 52.88384 106.226966 53.24224 105.867304 53.68384 105.867304M47.39672 104.95113C47.83832 104.95113 48.19672 105.310792 48.19672 105.753946L48.19672 105.867144 49.68392 105.867144C50.12552 105.867144 50.48392 106.226806 50.48392 106.669961 50.48392 107.113115 50.12552 107.472777 49.68392 107.472777L47.39672 107.472777C46.95512 107.472777 46.59672 107.113115 46.59672 106.669961L46.59672 105.753946C46.59672 105.310792 46.95512 104.95113 47.39672 104.95113M47.39672 97.7257775C47.83832 97.7257775 48.19672 98.0854394 48.19672 98.5285944L48.19672 101.739862C48.19672 102.183017 47.83832 102.542679 47.39672 102.542679 46.95512 102.542679 46.59672 102.183017 46.59672 101.739862L46.59672 98.5285944C46.59672 98.0854394 46.95512 97.7257775 47.39672 97.7257775M75.28384 105.867304L78.48384 105.867304C78.92544 105.867304 79.28384 106.226966 79.28384 106.670121 79.28384 107.113276 78.92544 107.472938 78.48384 107.472938L75.28384 107.472938C74.84224 107.472938 74.48384 107.113276 74.48384 106.670121 74.48384 106.226966 74.84224 105.867304 75.28384 105.867304M68.08384 105.867304L71.28384 105.867304C71.72544 105.867304 72.08384 106.226966 72.08384 106.670121 72.08384 107.113276 71.72544 107.472938 71.28384 107.472938L68.08384 107.472938C67.64224 107.472938 67.28384 107.113276 67.28384 106.670121 67.28384 106.226966 67.64224 105.867304 68.08384 105.867304M60.88384 105.867304L64.08384 105.867304C64.52544 105.867304 64.88384 106.226966 64.88384 106.670121 64.88384 107.113276 64.52544 107.472938 64.08384 107.472938L60.88384 107.472938C60.44224 107.472938 60.08384 107.113276 60.08384 106.670121 60.08384 106.226966 60.44224 105.867304 60.88384 105.867304"/>
  </g>
</svg>
