<?xml version="1.0" encoding="utf-8"?>
<!-- Generator: Adobe Illustrator 25.1.0, SVG Export Plug-In . SVG Version: 6.00 Build 0)  -->
<svg version="1.1" id="Layer_1" xmlns="http://www.w3.org/2000/svg" xmlns:xlink="http://www.w3.org/1999/xlink" x="0px" y="0px"
	 viewBox="0 0 280 168" style="enable-background:new 0 0 280 168;" xml:space="preserve">
<style type="text/css">
	.st0{fill:#202225;}
	.st1{fill:#DAE6FF;}
	.st2{fill:#1C1B29;}
	.st3{fill-rule:evenodd;clip-rule:evenodd;fill:#1C1B29;}
	.st4{fill:#E6366B;}
	.st5{fill-rule:evenodd;clip-rule:evenodd;fill:#FFFFFF;}
	.st6{fill:#3F99F2;}
	.st7{fill:#FF78B9;}
	.st8{fill:#91FFAD;}
	.st9{fill:#FF78B8;}
	.st10{fill:#FFFFFF;}
	.st11{fill:#5865F2;}
	.st12{fill:#E53794;}
	.st13{fill:#8CD9FF;}
	.st14{fill:url(#SVGID_1_);}
	.st15{fill:url(#SVGID_2_);}
	.st16{fill:#606DFF;}
	.st17{fill:none;stroke:#000000;stroke-width:0.64;stroke-linecap:round;stroke-miterlimit:10;}
	.st18{fill:url(#SVGID_3_);}
	.st19{fill:#FFD635;}
	.st20{fill:#D11583;}
	.st21{fill:#FFE75C;}
	.st22{fill:none;stroke:#FFC619;stroke-width:1.63;stroke-linecap:round;stroke-miterlimit:10;}
	.st23{fill:#FF8C19;}
	.st24{fill:none;stroke:#000000;stroke-width:1.63;stroke-linecap:round;stroke-linejoin:round;}
</style>
<g>
	<g>
		<path class="st0" d="M280,0H0v168h280V0z"/>
		<path class="st1" d="M103.8,157.5c5.6,0,10.2-4.5,10.2-10.2c0-5.6-4.5-10.2-10.2-10.2s-10.2,4.5-10.2,10.2
			C93.6,152.9,98.2,157.5,103.8,157.5z"/>
		<path class="st2" d="M107.8,145.7c-0.1,0-0.1-0.1-0.2-0.1c-0.1,0-0.1,0-0.2,0.1l-1.1,0.5v-1c0-0.2-0.1-0.4-0.2-0.6
			c-0.2-0.2-0.4-0.2-0.6-0.3h-5.1c-0.2,0-0.4,0.1-0.6,0.3c-0.2,0.2-0.2,0.4-0.2,0.6v4.2c0,0.2,0.1,0.4,0.2,0.6
			c0.2,0.2,0.4,0.2,0.6,0.2h5.1c0.2,0,0.4-0.1,0.6-0.2s0.2-0.4,0.2-0.6v-1l1.1,0.5c0.1,0,0.1,0,0.2,0c0.1,0,0.2,0,0.2-0.1
			c0.1,0,0.1-0.1,0.1-0.2c0-0.1,0.1-0.1,0.1-0.2V146c0-0.1,0-0.1-0.1-0.2C107.9,145.8,107.9,145.7,107.8,145.7z"/>
		<path class="st1" d="M127.9,157.5c5.6,0,10.2-4.5,10.2-10.2c0-5.6-4.5-10.2-10.2-10.2c-5.6,0-10.2,4.5-10.2,10.2
			C117.8,152.9,122.3,157.5,127.9,157.5z"/>
		<path class="st3" d="M123.7,144.6c0-0.2,0.1-0.4,0.2-0.6c0.2-0.2,0.4-0.2,0.6-0.3h6.8c0.2,0,0.4,0.1,0.6,0.2
			c0.2,0.2,0.2,0.4,0.2,0.6v4.7c0,0.2-0.1,0.4-0.2,0.6c-0.2,0.2-0.4,0.2-0.6,0.2h-3v0.9h1.7v0.8h-4.2v-0.8h1.7v-0.9h-3
			c-0.2,0-0.4-0.1-0.6-0.3c-0.2-0.2-0.2-0.4-0.2-0.6L123.7,144.6z M128.4,148.7v-1.2c-0.6,0-1.2,0.1-1.7,0.3c-0.5,0.3-1,0.6-1.3,1.1
			c0.1-0.8,0.4-1.5,1-2.1c0.5-0.6,1.3-0.9,2-1v-1.1l2,2L128.4,148.7z"/>
		<path class="st1" d="M152.1,157.5c5.6,0,10.2-4.5,10.2-10.2c0-5.6-4.5-10.2-10.2-10.2c-5.6,0-10.2,4.5-10.2,10.2
			C141.9,152.9,146.5,157.5,152.1,157.5z"/>
		<path class="st2" d="M149.8,146.9h-0.7c0,0.5,0.1,1,0.4,1.4l0.5-0.5C149.9,147.5,149.8,147.2,149.8,146.9z"/>
		<path class="st2" d="M150.8,146.9l2.5-2.5v-0.1c0-0.3-0.1-0.7-0.4-0.9c-0.2-0.2-0.6-0.4-0.9-0.4c-0.3,0-0.7,0.1-0.9,0.4
			c-0.2,0.2-0.4,0.6-0.4,0.9L150.8,146.9L150.8,146.9z"/>
		<path class="st2" d="M152,149l-0.3,0.3l-0.3,0.3c0.1,0,0.2,0,0.3,0.1v1.8h0.8v-1.8c0.7-0.1,1.3-0.4,1.8-1c0.5-0.5,0.7-1.2,0.8-1.9
			h-0.7c0,0.3-0.1,0.6-0.2,0.8c-0.1,0.3-0.3,0.5-0.5,0.7c-0.2,0.2-0.5,0.4-0.7,0.5c-0.3,0.1-0.6,0.2-0.8,0.1L152,149z"/>
		<path class="st2" d="M155.9,144l-0.5-0.5l-7.1,7.1l0.5,0.5l1.8-1.8l0.5-0.5l0.7-0.7l1.6-1.5L155.9,144z"/>
		<path class="st4" d="M176.2,157.5c5.6,0,10.2-4.5,10.2-10.2c0-5.6-4.5-10.2-10.2-10.2c-5.6,0-10.2,4.5-10.2,10.2
			C166.1,152.9,170.6,157.5,176.2,157.5z"/>
		<path class="st5" d="M180.1,142.7l0.8,0.8l-1.3,1.3l1.3,1.3l-0.8,0.8l-1.3-1.3l-1.3,1.3l-0.8-0.8l1.3-1.3l-1.3-1.3l0.8-0.8
			l1.3,1.3L180.1,142.7z M178.8,151.5h-2.1c-1.2,0-2.4-0.5-3.3-1.4c-0.9-0.9-1.4-2.1-1.4-3.3v-2.1c0-0.1,0-0.2,0.1-0.3
			c0.1-0.1,0.2-0.1,0.3-0.1h1.7c0.1,0,0.1,0,0.2,0c0.1,0,0.1,0.1,0.1,0.1c0,0,0.1,0.1,0.1,0.1c0,0.1,0,0.1,0,0.2v1.7
			c0,0.1,0,0.1,0,0.2c0,0.1-0.1,0.1-0.1,0.1c0,0-0.1,0.1-0.1,0.1c-0.1,0-0.1,0-0.2,0h-0.4c0,0.4,0.1,0.8,0.2,1.2
			c0.1,0.4,0.4,0.7,0.6,1c0.3,0.3,0.6,0.5,1,0.6c0.4,0.1,0.8,0.2,1.2,0.2v-0.4c0-0.1,0-0.1,0-0.2c0-0.1,0.1-0.1,0.1-0.1
			c0,0,0.1-0.1,0.1-0.1s0.1,0,0.2,0h1.7c0.1,0,0.1,0,0.2,0s0.1,0.1,0.1,0.1c0,0,0.1,0.1,0.1,0.1c0,0.1,0,0.1,0,0.2v1.7
			c0,0.1,0,0.1,0,0.2c0,0-0.1,0.1-0.1,0.1s-0.1,0.1-0.1,0.1C178.9,151.5,178.8,151.5,178.8,151.5z"/>
		<path class="st6" d="M268.5,78.3h-69v40.7h69V78.3z"/>
		<path class="st7" d="M193.6,19H11.5v112.6h182.1V19z"/>
		<path class="st8" d="M268.5,31.7h-69v40.6h69V31.7z"/>
		<path class="st9" d="M259.6,72.3c0.4-3.4,0.2-6.8-0.8-10.1c-0.9-3.3-2.5-6.3-4.6-9c-2.1-2.7-4.7-4.9-7.7-6.5c-3-1.6-6.2-2.7-9.6-3
			c-6.2-0.7-12.5,1-17.5,4.7c-5,3.8-8.4,9.3-9.4,15.5c-0.5,2.8-0.4,5.6,0.1,8.4L259.6,72.3z"/>
		<path class="st10" d="M225.8,52.7c0.5-3.7-1.3-6.9-4-7.3c-2.7-0.4-5.3,2.3-5.8,6c-0.5,3.7,1.3,6.9,4,7.3
			C222.7,59,225.3,56.3,225.8,52.7z"/>
		<path class="st11" d="M220.5,59.7c-0.7,0-1.3-0.1-1.9-0.4c-0.6-0.3-1.1-0.6-1.6-1.1c-0.7-0.8-1.3-1.8-1.6-2.8
			c-0.3-1-0.5-2.1-0.4-3.2c0.2-4.2,3-7.7,6.2-7.7c0.7,0,1.4,0.1,2,0.4c0.6,0.3,1.2,0.7,1.7,1.1c0.7,0.8,1.3,1.8,1.6,2.8
			c0.4,1,0.5,2.1,0.4,3.2c-0.2,4.2-2.9,7.6-6.2,7.7L220.5,59.7z M221.3,46.3L221.3,46.3c-2.3,0.1-4.3,2.8-4.4,5.9
			c-0.1,0.8,0,1.6,0.3,2.4s0.7,1.5,1.2,2.1c0.3,0.3,0.6,0.5,1,0.7c0.4,0.2,0.8,0.2,1.2,0.2c2.2-0.1,4.2-2.8,4.3-5.9
			c0.1-0.8,0-1.6-0.3-2.4c-0.3-0.8-0.7-1.5-1.2-2.1c-0.3-0.3-0.6-0.5-1-0.7C222.1,46.4,221.7,46.3,221.3,46.3z"/>
		<path class="st10" d="M239,54.3c0.5-3.7-1.4-7.1-4.3-7.4c-2.9-0.4-5.6,2.3-6.1,6c-0.5,3.7,1.4,7.1,4.3,7.4
			C235.8,60.7,238.5,58,239,54.3z"/>
		<path class="st11" d="M233.5,61.3c-0.7,0-1.4-0.2-2-0.4c-0.6-0.3-1.2-0.7-1.7-1.2c-0.7-0.8-1.3-1.8-1.7-2.8
			c-0.4-1-0.5-2.1-0.4-3.2c0.2-4.2,3.1-7.8,6.4-7.8c0.7,0,1.4,0.1,2.1,0.4c0.7,0.3,1.3,0.7,1.8,1.2c0.7,0.8,1.3,1.8,1.7,2.8
			c0.4,1,0.5,2.1,0.4,3.2c-0.2,4.2-3.1,7.7-6.5,7.8L233.5,61.3z M234.2,47.8L234.2,47.8c-2.5,0.1-4.5,2.8-4.7,6
			c-0.1,0.8,0,1.7,0.3,2.5c0.3,0.8,0.7,1.5,1.2,2.1c0.3,0.3,0.7,0.6,1.1,0.7c0.4,0.2,0.9,0.3,1.3,0.3c2.4-0.1,4.4-2.8,4.6-6
			c0.1-0.8,0-1.7-0.3-2.5c-0.3-0.8-0.7-1.5-1.2-2.1c-0.3-0.3-0.7-0.6-1.1-0.7C235.1,47.8,234.7,47.8,234.2,47.8z"/>
		<path d="M234,55.5c0.1-1.2-0.4-2.2-1.2-2.3c-0.8-0.1-1.5,0.8-1.6,2c-0.1,1.2,0.4,2.2,1.2,2.3C233.1,57.6,233.9,56.7,234,55.5z"/>
		<path d="M221,53.7c0.1-1-0.5-1.9-1.2-1.9c-0.7,0-1.3,0.8-1.3,1.8c-0.1,1,0.5,1.9,1.2,1.9C220.3,55.5,220.9,54.7,221,53.7z"/>
		<path class="st11" d="M226,49.9l-0.2,1.9l3,0.3l0.2-1.9L226,49.9z"/>
		<path d="M228.2,60l-4.8-0.2c-0.1,0-0.3,0-0.4,0.1c-0.1,0-0.2,0.1-0.3,0.2c-0.1,0.1-0.1,0.2-0.2,0.3c0,0.1,0,0.3,0,0.4
			c0.3,2.2,1.5,6.9,6.4,0.6c0.1-0.1,0.2-0.3,0.2-0.4c0-0.2,0-0.3-0.1-0.5c-0.1-0.1-0.2-0.3-0.3-0.4C228.5,60.1,228.3,60,228.2,60z"
			/>
		<path class="st12" d="M224.9,62.3c1-0.3,2.1-0.3,3.2-0.1c-2.9,3.3-4.4,2.5-5.1,0.9C223.6,62.8,224.3,62.5,224.9,62.3z"/>
		<path class="st13" d="M244.5,81.8l6.9,7.8l-6.3,29.4h-18L244.5,81.8z"/>
		
			<linearGradient id="SVGID_1_" gradientUnits="userSpaceOnUse" x1="226.4983" y1="59.6502" x2="234.3783" y2="118.2602" gradientTransform="matrix(1 0 0 -1 0 184)">
			<stop  offset="0" style="stop-color:#FFFFFF"/>
			<stop  offset="1" style="stop-color:#8BD8FF"/>
		</linearGradient>
		<path class="st14" d="M222.9,81.8h21.5l-7.9,37.2H215L222.9,81.8z"/>
		
			<linearGradient id="SVGID_2_" gradientUnits="userSpaceOnUse" x1="230.9259" y1="86.661" x2="229.4469" y2="96.9459" gradientTransform="matrix(1 0 0 -1 0 184)">
			<stop  offset="0" style="stop-color:#5765F1"/>
			<stop  offset="1" style="stop-color:#2536D3"/>
		</linearGradient>
		<path class="st15" d="M234.4,95.9c2.6-2.8,2.8-6.7,0.4-8.9c-2.3-2.2-6.3-1.7-8.8,1.1c-2.6,2.8-2.8,6.7-0.4,8.9
			C227.8,99.2,231.8,98.7,234.4,95.9z"/>
		<path class="st16" d="M235.2,94.8c-0.9,1.4-2.3,2.5-3.8,3.1l-0.8-3.4l1.6-1.3L235.2,94.8z"/>
		<path class="st17" d="M233.2,94.8c1.7-1.8,1.8-4.4,0.3-5.8c-1.5-1.4-4.1-1.1-5.8,0.7c-1.7,1.8-1.8,4.4-0.3,5.8
			C229,96.9,231.5,96.6,233.2,94.8z"/>
		<path class="st10" d="M232.8,94.4c1.4-1.5,1.5-3.7,0.2-4.8c-1.3-1.2-3.4-0.9-4.8,0.6c-1.4,1.5-1.5,3.7-0.2,4.8
			C229.3,96.1,231.4,95.9,232.8,94.4z"/>
		<path d="M231.1,92.7c0.8-0.8,0.8-2,0.1-2.6c-0.7-0.6-1.8-0.5-2.6,0.3c-0.8,0.8-0.8,2-0.1,2.6C229.2,93.7,230.4,93.5,231.1,92.7z"
			/>
		
			<linearGradient id="SVGID_3_" gradientUnits="userSpaceOnUse" x1="227.5027" y1="76.7362" x2="226.4227" y2="84.2162" gradientTransform="matrix(1 0 0 -1 0 184)">
			<stop  offset="0" style="stop-color:#5765F1"/>
			<stop  offset="1" style="stop-color:#2536D3"/>
		</linearGradient>
		<path class="st18" d="M230,106.2c1.9-2,2-4.9,0.3-6.5c-1.7-1.6-4.6-1.2-6.4,0.8c-1.9,2-2,4.9-0.3,6.5
			C225.2,108.5,228.1,108.2,230,106.2z"/>
		<path class="st16" d="M230.6,105.4c-0.7,1-1.6,1.8-2.8,2.3l-0.6-2.5l1.2-1L230.6,105.4z"/>
		<path class="st17" d="M229.1,105.4c1.2-1.3,1.3-3.2,0.2-4.2c-1.1-1-3-0.8-4.2,0.5c-1.2,1.3-1.3,3.2-0.2,4.2
			C226,106.9,227.9,106.7,229.1,105.4z"/>
		<path class="st10" d="M228.7,104.9c0.9-1,1-2.4,0.2-3.1c-0.8-0.8-2.2-0.6-3.1,0.4c-0.9,1-1,2.4-0.2,3.1
			C226.4,106,227.8,105.8,228.7,104.9z"/>
		<path d="M227.6,103.8c0.5-0.5,0.5-1.3,0.1-1.7c-0.4-0.4-1.2-0.3-1.7,0.2c-0.5,0.5-0.5,1.3-0.1,1.7
			C226.4,104.4,227.1,104.3,227.6,103.8z"/>
		<path d="M230,115.9c-0.7,0-1.4-0.1-2.1-0.3c-2.9-0.6-5.4-2.3-5.8-3.7c-0.1-0.2-0.1-0.4,0-0.6c0-0.2,0.1-0.4,0.2-0.5
			c0.3-0.3,0.7-0.5,1.1-0.7c0.4-0.1,0.9-0.2,1.3-0.1c0.7,0,1.4,0.1,2.2,0.3c0.3,0.1,0.6,0.1,0.9,0.2c0.1,0,0.3,0.1,0.4,0.1
			c0.2,0,0.3,0,0.4-0.1s0.3-0.2,0.4-0.3c0.1-0.2,0.3-0.4,0.4-0.6c0.4-0.5,0.9-0.9,1.5-1.2c0.6-0.3,1.2-0.5,1.8-0.5
			c0.3,0,0.6,0.1,0.9,0.2c0.3,0.1,0.6,0.3,0.8,0.6c1.1,1.3,0.7,3.7-0.9,5.5c-0.6,0.7-1.5,1.3-2.4,1.6
			C230.8,115.8,230.4,115.9,230,115.9z"/>
		<path class="st11" d="M232.7,108.3c0.3,0,0.6,0,0.8,0.1c0.3,0.1,0.5,0.3,0.7,0.5c1,1.1,0.6,3.4-0.9,5c-0.4,0.5-0.9,0.9-1.4,1.2
			c-0.6,0.3-1.2,0.4-1.8,0.4c-0.7,0-1.4-0.1-2.1-0.3c-2.8-0.6-5.2-2.2-5.6-3.4c-0.2-0.9,0.7-1.5,2.3-1.5c0.7,0,1.4,0.1,2.1,0.2
			c0.3,0.1,0.6,0.1,0.8,0.2c0.2,0,0.4,0.1,0.5,0.1c0.2,0,0.4,0,0.6-0.1c0.2-0.1,0.4-0.2,0.5-0.4c0.1-0.2,0.3-0.4,0.4-0.5
			c0.4-0.5,0.8-0.8,1.4-1.1C231.6,108.5,232.1,108.3,232.7,108.3 M232.7,107.6c-0.7,0-1.3,0.2-1.9,0.5c-0.6,0.3-1.1,0.7-1.6,1.3
			c-0.2,0.2-0.3,0.4-0.5,0.6c-0.1,0.1-0.2,0.1-0.3,0.2s-0.2,0.1-0.3,0c-0.1,0-0.2,0-0.4-0.1l-0.9-0.2c-0.7-0.2-1.5-0.3-2.2-0.3
			c-0.5-0.1-1,0-1.4,0.2c-0.5,0.2-0.9,0.4-1.2,0.8c-0.1,0.2-0.3,0.4-0.3,0.6c0,0.2,0,0.5,0,0.7c0.4,1.8,3.4,3.3,6,3.9
			c0.7,0.2,1.5,0.3,2.2,0.3c0.4,0,0.8,0,1.2-0.1c1-0.3,1.9-0.9,2.6-1.7c1.7-1.9,2.1-4.5,0.9-5.9c-0.2-0.3-0.5-0.5-0.9-0.6
			C233.4,107.7,233.1,107.6,232.7,107.6L232.7,107.6z"/>
		<path class="st10" d="M222.6,110.9c0.6-0.6,2.2-0.8,4.1-0.3c0.3,0.1,0.6,0.1,0.8,0.2c0.3,0.1,0.6,0.1,0.9,0s0.6-0.2,0.7-0.4
			c0.1-0.2,0.3-0.4,0.4-0.5c1.3-1.4,3-2,4.1-1.3c-0.1,0.3-0.3,0.6-0.6,0.9s-0.6,0.4-0.9,0.5c0,0.5-0.1,0.9-0.3,1.3
			c-0.2,0.4-0.6,0.7-1,0.9c-0.3,0.2-0.7,0.3-1.1,0.3c-0.4,0-0.8-0.1-1.1-0.3c-0.2,0.4-0.5,0.6-0.9,0.8c-0.2,0.1-0.5,0.2-0.8,0.2
			c-0.3,0-0.5,0-0.8-0.1c-0.3-0.1-0.5-0.2-0.7-0.4c-0.2-0.2-0.3-0.4-0.4-0.7c0-0.1-0.1-0.2-0.1-0.3c-0.2,0.1-0.4,0.2-0.7,0.2
			c-0.2,0-0.5,0-0.7-0.1c-0.2-0.1-0.4-0.2-0.6-0.3C222.9,111.3,222.7,111.1,222.6,110.9z"/>
		<path class="st19" d="M27.4,66.2c2.1-1.2,4.3-2.1,6.7-2.6c0.5-0.1,1-0.1,1.6,0.1c0.5,0.2,1,0.4,1.3,0.8c1.6,1.7,4.8,4.8,7.8,5.6
			l-1.2-4c-0.2-0.4-0.3-0.9-0.1-1.4c0.2-0.5,0.5-0.8,0.9-1.1c0.4-0.2,0.9-0.3,1.4-0.1c0.5,0.2,0.8,0.5,1.1,0.9l3.6,5.6l2,2.8
			c0,0,28.8,32.1,31.9,37l-4.8,11.2l-34-40.7l-1.2-1.1c-2,0.6-4.1,0.8-6.1,0.4c-2-0.3-4-1.2-5.6-2.4c-2.4-2-4.6-4.4-6.3-7
			c-0.4-0.7-0.5-1.5-0.3-2.2C26.3,67.3,26.7,66.7,27.4,66.2z"/>
		<path class="st19" d="M120.2,107.1l10.3,6.5c0.6,0.4,1.3,0.6,2,0.6s1.4-0.2,2-0.6c4.9-3,18.8-11.5,18.8-11.5l3-1.6l5.7-3.3
			c0.4-0.3,0.9-0.4,1.3-0.3c0.5,0.1,0.9,0.3,1.2,0.7c0.3,0.4,0.4,0.9,0.3,1.3c-0.1,0.5-0.3,0.9-0.7,1.2l-1.4,1.4
			c0.6,0.2,1.3,0.3,2,0.2c0.7-0.1,1.3-0.3,1.9-0.7c1.7-1.5,3.6-2.8,5.5-4c0.2-0.1,0.5-0.2,0.8-0.1c0.3,0,0.5,0.1,0.7,0.3
			c0.3,0.3,1.7,1,1.7,2.3c0,0.6-4.9,3.2-4.6,3.5s5.2-1.8,6.6-1.3c0.8,0.3,2.4,5.6,1.3,6.5c-1.1,0.9-3.4,2.4-11.2,4.2
			c-1.1,0.3-2.2,0.4-3.4,0.4c-1.8,0-3.5-0.4-5-1.3c-0.5-0.3-1.1-0.4-1.6-0.3c-0.6,0.1-1.1,0.3-1.5,0.7c-5.1,5.4-14.1,14.4-20.3,15.4
			c-8.4,1.4-24-10.5-36.3-21.6C109,99.4,111.6,101.6,120.2,107.1z"/>
		<path class="st10" d="M108.2,103.1l-23.5-0.8c-10.6,14-6.1,20.5-2.2,29.3h34.9c0,0,1.2-4.2,2.1-8
			C121.4,116.2,119.7,110.4,108.2,103.1z"/>
		<path class="st20" d="M101.7,79.4l-33.4-7.3C78.6,95.5,87.1,99.9,93.2,99S102.5,89.8,101.7,79.4z"/>
		<path class="st20" d="M101.7,79.4l19-19.5c0.6,25.6-4.4,31.1-8.8,32.6C107.5,94.1,103.8,89.5,101.7,79.4z"/>
		<path class="st21" d="M122.2,78.7C118.1,68,92,60.3,86.5,62.2C81.4,64.1,66.8,82,69.2,93.4c2.4,11.5,15.8,16.9,31.6,13
			C116.5,102.6,126.6,90.2,122.2,78.7z"/>
		<path class="st21" d="M87.9,71C79,63.8,70.5,60.4,59.3,57c-8.5-2.6-8.3-10.5,1.4-10.9S82,53.7,88.6,61.9
			c6-16.2,6.5-21.8,14.5-21.6s12.3,7.9,13.7,11.6c1.1,2.9,1,5.3-3.3,6.3c-4.3,1.1-7.7-1.8-10-5.5c-2.3,5.9-5,11.6-8.3,17.1
			C93,73.4,92,74.3,87.9,71z"/>
		<path class="st22" d="M94.8,61.7l5.1-12.4"/>
		<path class="st23" d="M101.7,79.5c0.8,10.3-2.4,18.7-8.5,19.5c-5.3,0.8-12.6-2.6-21.3-19.3c1-2.1,2.2-4.1,3.5-6L101.7,79.5z"/>
		<path class="st23" d="M120.2,75.4c-1.3,12.6-5,16-8.3,17.2c-4.4,1.5-8.1-3.1-10.2-13.1L111.9,69C115,70.6,117.8,72.8,120.2,75.4z"
			/>
		<path class="st24" d="M111.4,79.3l1.5-2.8"/>
		<path class="st24" d="M112,80.8l2.8-2.6"/>
		<path class="st24" d="M89.5,85.1l-2.6-2.9"/>
		<path class="st24" d="M89.8,86.8l-5.7-2.1"/>
		<path class="st10" d="M96.9,88.9c1.5-2.9,0.7-6.2-1.7-7.4c-2.4-1.2-5.5,0.1-7,3c-1.5,2.9-0.7,6.2,1.7,7.4
			C92.3,93.1,95.5,91.8,96.9,88.9z"/>
		<path class="st10" d="M113.2,81.4c0.3-3-1.3-5.4-3.6-5.5S105,78,104.4,81c-0.6,3.2,1,5.9,3.6,6S112.9,84.5,113.2,81.4z"/>
		<path d="M110.2,83.6c0.9,0,1.6-0.9,1.6-2.1s-0.7-2.1-1.6-2.1c-0.9,0-1.6,0.9-1.6,2.1S109.3,83.6,110.2,83.6z"/>
		<path d="M95.2,88c0.9-0.1,1.5-1.1,1.4-2.3c-0.1-1.2-1-2-1.9-1.9c-0.9,0.1-1.5,1.1-1.4,2.3C93.4,87.3,94.3,88.1,95.2,88z"/>
		<path d="M108.3,96.1c-2.1,6.8-5.6,3.4-7.4,1.2c-0.1-0.1-0.2-0.3-0.2-0.5c0-0.2,0-0.4,0.1-0.5c0.1-0.2,0.2-0.3,0.3-0.4
			c0.1-0.1,0.3-0.2,0.5-0.2l5.5-0.9c0.2,0,0.4,0,0.5,0.1c0.2,0.1,0.3,0.2,0.4,0.3c0.1,0.1,0.2,0.3,0.2,0.5
			C108.3,95.7,108.3,95.9,108.3,96.1z"/>
		<path d="M99.5,47.1c-0.1-0.2-0.4-0.3-0.6-0.3c-0.2,0-0.4,0.1-0.6,0.2c-0.2,0.1-0.3,0.4-0.3,0.6c0,0.2,0.1,0.4,0.2,0.6
			c1.6,2.1,3.1,4.3,4.5,6.5c0.3-0.7,0.5-1.3,0.8-2C102.3,50.8,100.9,48.9,99.5,47.1z"/>
		<path class="st22" d="M60.3,53.1c13.5,1.9,20.7,7.1,27.1,13"/>
		<path class="st23" d="M101.2,89.1c1.1-5.7,0.8-6.6,3.3-1.1l0.5-0.1l-2.1-8.5l-1.2,0.1l-2.4,1.2l1.3,8.5L101.2,89.1z"/>
		<path class="st9" d="M105,97.1c0.9,0,1.8,0.2,2.6,0.7c-1.8,3.7-4.2,2.3-5.8,0.5c0.4-0.4,0.9-0.7,1.5-1
			C103.8,97.1,104.4,97,105,97.1z"/>
		<path d="M41.5,70.9c-3.3-0.9-6.3-4.3-8.2-7.1c-0.5,0.1-1,0.3-1.6,0.5c2,3.1,5.4,7,9.4,8.2c0.1,0,0.1,0,0.2,0
			c0.2,0,0.4-0.1,0.6-0.2c0.2-0.1,0.3-0.3,0.3-0.5c0-0.2,0-0.4-0.1-0.6C41.9,71.1,41.7,71,41.5,70.9L41.5,70.9z"/>
		<path d="M37.7,72.9c-3.5-1-6.6-4.7-8.6-7.6c-0.5,0.2-1,0.5-1.5,0.7c2,3.1,5.5,7.2,9.6,8.4c0.1,0,0.1,0,0.2,0
			c0.2,0,0.4-0.1,0.6-0.2c0.2-0.1,0.3-0.3,0.3-0.5c0-0.2,0-0.4-0.1-0.6C38.1,73,37.9,72.9,37.7,72.9L37.7,72.9z"/>
		<path d="M178.5,103.9c-3.1,1.6-6.5,2.7-10,3c-0.2,0-0.4,0-0.5,0.1c-0.2,0.1-0.3,0.3-0.3,0.4c-0.1,0.2,0,0.4,0.1,0.6
			c0.1,0.2,0.3,0.3,0.5,0.4c0.1,0,0.2,0,0.3,0c3.6-0.3,7.2-1.3,10.4-3C178.8,104.9,178.6,104.4,178.5,103.9z"/>
		<path class="st13" d="M171.4,45.9c-0.9-0.6-1.7-1.3-2.3-2.2c-0.6-0.9-1-1.9-1.1-3l-0.5-3.7c0-0.1-0.1-0.2-0.1-0.2
			c-0.1-0.1-0.2-0.1-0.2-0.1c-0.1,0-0.2,0-0.2,0.1c-0.1,0.1-0.1,0.1-0.1,0.2l-0.6,3.6c-0.2,1.1-0.5,2.1-1.1,3
			c-0.6,0.9-1.3,1.7-2.2,2.2l-0.5,0.3c-0.1,0-0.1,0.1-0.1,0.1c0,0.1,0,0.1,0,0.2c0,0.1,0,0.1,0,0.2c0,0.1,0.1,0.1,0.1,0.1l0.5,0.3
			c0.9,0.6,1.7,1.3,2.2,2.2c0.6,0.9,1,1.9,1.1,3l0.6,3.6c0,0.1,0.1,0.2,0.1,0.2c0.1,0.1,0.2,0.1,0.2,0.1c0.1,0,0.2,0,0.2-0.1
			c0.1-0.1,0.1-0.1,0.1-0.2l0.5-3.6c0.2-1.1,0.5-2.1,1.1-3c0.6-0.9,1.3-1.7,2.2-2.2l0.5-0.3c0.1,0,0.1-0.1,0.1-0.1s0-0.1,0-0.2
			c0-0.1,0-0.1,0-0.2c0-0.1-0.1-0.1-0.1-0.1L171.4,45.9z"/>
		<path class="st8" d="M157.6,61.5c-0.5-0.3-1-0.8-1.3-1.3s-0.6-1.1-0.7-1.8l-0.3-2.2c0-0.1,0-0.1-0.1-0.1c0,0-0.1-0.1-0.1-0.1
			c-0.1,0-0.1,0-0.1,0.1c0,0-0.1,0.1-0.1,0.1l-0.3,2.2c-0.1,0.6-0.3,1.2-0.7,1.8s-0.8,1-1.3,1.3l-0.3,0.2c0,0-0.1,0-0.1,0.1
			c0,0,0,0.1,0,0.1c0,0,0,0.1,0,0.1c0,0,0,0.1,0.1,0.1l0.3,0.2c0.5,0.3,1,0.8,1.3,1.3c0.3,0.5,0.6,1.1,0.7,1.8l0.3,2.2
			c0,0.1,0,0.1,0.1,0.1c0,0,0.1,0.1,0.1,0.1c0.1,0,0.1,0,0.1-0.1c0,0,0.1-0.1,0.1-0.1l0.3-2.2c0.1-0.6,0.3-1.2,0.7-1.8
			c0.3-0.5,0.8-1,1.3-1.3l0.3-0.2c0,0,0.1-0.1,0.1-0.1c0,0,0-0.1,0-0.1c0,0,0-0.1,0-0.1c0,0,0-0.1-0.1-0.1L157.6,61.5z"/>
	</g>
</g>
</svg>
