<svg viewBox="0 0 954.75 715.6" xmlns="http://www.w3.org/2000/svg"><path d="m569.72 191.16-368.91-134.27 61.85 120.75a104.981 104.981 0 0 0 57.54 50.8l293.62 106.87 10.13-27.84z" fill="#dae2ed"/><path d="m654.51 178.67-490.26-178.44c-3.14-1.14-6.07 2.13-4.59 5.12l18.71 37.91c2.11 4.28 5.79 7.57 10.27 9.2l12.16 4.43 368.92 134.27 54.23 116.3-10.13 27.84-7.6 20.88 123.55 44.97 17.73-48.72-72.1-154.62a37.01 37.01 0 0 0 -20.89-19.14z" fill="#eceff6"/><path d="m623.95 307.47-54.23-116.31-368.91-134.27 12.4 24.22 343.22 124.92 50.36 108-6.02 16.53 13.05 4.75z" fill="#c5cedd"/><circle cx="548.37" cy="398.77" fill="#4f5d7f" r="236"/><circle cx="548.37" cy="398.77" fill="#7687b2" r="153.36"/><path d="m705.94 212.24c.44 36.12-94.68 124.02-156.9 172.84-57.31.43-199.87-5.48-233.27-38.02-4.8-4.68-5.39-8.28-5.42-10.57-.02-1.33.19-2.78.62-4.29 19.92-70.79 66.54-126.67 131.26-157.35 81.48-38.62 178.49-27.71 259.49 29.19 2.96 2.06 4.18 4.44 4.22 8.2z" fill="#ff7f14"/><path d="m553.16 396.84s-227.02-135.6-203.95-163.87c23.08-28.27 52.55-52 87.98-68.79 91.84-43.53 193.46-24.5 271.33 30.19 55.22 38.8-155.36 202.47-155.36 202.47z" fill="#ff903e"/><circle cx="548.37" cy="398.77" fill="#ebeff7" r="129.77"/><circle cx="548.37" cy="398.77" fill="#dae2ed" r="109.12"/><path d="m483.22 352.43 59.31-35.21a11.79 11.79 0 0 1 11.8-.14l60.15 33.76c3.68 2.06 5.97 5.93 6.02 10.15l.84 68.97c.05 4.22-2.15 8.14-5.78 10.29l-59.31 35.21a11.79 11.79 0 0 1 -11.8.14l-60.15-33.76a11.782 11.782 0 0 1 -6.02-10.15l-.84-68.97a11.81 11.81 0 0 1 5.78-10.29z" fill="#c5cedd"/><ellipse cx="548.37" cy="398.76" fill="#b7c2ce" rx="37.82" ry="37.82"/><path d="m892.57 393.3h-41.44c-.02 15.13-.07 30.25-.15 45.38h40.85c-.34-15.12-.33-30.41.74-45.38z" fill="#80a7ff"/><path d="m877.69 491.72h-174.07c-2.05 0-3.7-1.66-3.7-3.7s1.66-3.7 3.7-3.7h174.07c2.04 0 3.7-1.66 3.7-3.7v-27.86c0-2.05 1.66-3.7 3.7-3.7s3.7 1.66 3.7 3.7v27.86c.01 6.12-4.97 11.1-11.1 11.1z" fill="#e4e9f7"/><path d="m898.06 469.5h-25.93c-2.05 0-3.7-1.66-3.7-3.7v-79.63c0-2.05 1.66-3.7 3.7-3.7h25.93c2.05 0 3.7 1.66 3.7 3.7v79.63c0 2.04-1.65 3.7-3.7 3.7z"/><path d="m892.19 393.3h15.03c2.05 0 3.71 1.67 3.7 3.72-.06 12.65-.1 25.31-.13 37.97 0 2.04-1.66 3.69-3.7 3.69h-14.19c-11.19 0-21.22-7.79-23.07-18.83-2.38-14.16 8.61-26.55 22.36-26.55z" fill="#80a7ff"/><path d="m832.83 629.25-20.43-1.59c-5.25-.41-9.84 3.51-10.25 8.76l-3.34 42.77c-.92 11.76-11.29 20.64-23.05 19.72s-20.64-11.29-19.72-23.05l4.45-57.03 9.84-126.13-.26 3.38c1.02-13.12 12.49-22.93 25.62-21.91l72.7 5.67c13.12 1.02 22.93 12.49 21.91 25.62l-6.24 79.98c-2.04 26.24-24.98 45.85-51.23 43.81z" fill="#80a7ff"/><path d="m812.88 469.5h-25.93c-2.05 0-3.7-1.66-3.7-3.7v-79.63c0-2.05 1.66-3.7 3.7-3.7h25.93c2.05 0 3.7 1.66 3.7 3.7v79.63c0 2.04-1.66 3.7-3.7 3.7z"/><path d="m799.91 452.76v27.86c0 4.09-3.32 7.41-7.41 7.41h-174.07" fill="none" stroke="#2f3849" stroke-miterlimit="10" stroke-width="8"/><path d="m870.41 410.77c-19.04-25.89-49.7-42.78-84.11-42.78h-140.85c-34.44 0-62.61 28.18-62.61 62.61v115c0 23.05 18.69 41.74 41.74 41.74h203.46c34.44 0 62.61-28.18 62.61-62.61v-52.38c0-22.99-7.53-44.29-20.24-61.58z" fill="#9cb8ff"/><path d="m687.64 367.99h-42.19c-34.44 0-62.61 28.18-62.61 62.61v100.18c0 23.05 18.69 41.74 41.74 41.74h63.69c-1.06-68.11-1.03-136.34-.63-204.53z" fill="#80a7ff"/><path d="m644.36 625.7-20.43-1.59c-5.25-.41-9.84 3.51-10.25 8.76l-3.34 42.77c-.92 11.76-11.29 20.64-23.05 19.72s-20.64-11.29-19.72-23.05l4.45-57.03 12.46-159.72-.26 3.38c1.02-13.12 12.49-22.93 25.62-21.91l72.7 5.67c13.12 1.02 22.93 12.49 21.91 25.62l-8.86 113.57c-2.04 26.24-24.98 45.86-51.23 43.81z" fill="#80a7ff"/><path d="m792.51 491.72h-174.08c-2.05 0-3.7-1.66-3.7-3.7s1.66-3.7 3.7-3.7h174.07c2.04 0 3.7-1.66 3.7-3.7v-27.86c0-2.05 1.66-3.7 3.7-3.7s3.7 1.66 3.7 3.7v27.86c.02 6.12-4.97 11.1-11.09 11.1z" fill="#e4e9f7"/><path d="m812.88 469.5h-25.93c-2.05 0-3.7-1.66-3.7-3.7v-79.63c0-2.05 1.66-3.7 3.7-3.7h25.93c2.05 0 3.7 1.66 3.7 3.7v79.63c0 2.04-1.66 3.7-3.7 3.7z"/><path d="m814.17 393.3h-84.83c-13.98 0-25.31-11.33-25.31-25.31h-53.36v110.45h52.95c4.9-27.84 29.15-39.76 58.4-39.76h51.44c11.19 0 21.22-7.79 23.07-18.83 2.38-14.16-8.61-26.55-22.36-26.55z" fill="#80a7ff"/><path d="m553.72 516.87-44.05 12.85a31.413 31.413 0 0 0 -22.53 27.78c-1.46 19.19 14.52 35.18 33.72 33.72a31.413 31.413 0 0 0 27.78-22.53l12.85-44.05c1.38-4.75-3.02-9.15-7.77-7.77z" fill="#80a7ff"/><path d="m463.21 462.03h148.03v56.16h-148.03z" fill="#b7c2ce" transform="matrix(.97469881 -.22352231 .22352231 .97469881 -95.959461 132.48003)"/><path d="m495.59 543.55-181.29 62.01c-3.45 1.18-7.26.61-10.19-1.56-7.65-5.7-21.68-20.26-29.34-53.64s-1.38-52.6 3.02-61.07c1.68-3.23 4.86-5.4 8.48-5.85l190.16-23.35c3.77-.46 7.27 2 8.12 5.7l15.85 69.09c.86 3.7-1.22 7.44-4.81 8.67z" fill="#c5cedd"/><ellipse cx="436.82" cy="493.86" fill="#b7c2ce" rx="8.85" ry="8.85" transform="matrix(.99065523 -.13638992 .13638992 .99065523 -63.272158 64.190291)"/><ellipse cx="395" cy="499.71" fill="#b7c2ce" rx="8.85" ry="8.85" transform="matrix(.99065523 -.13638992 .13638992 .99065523 -64.460837 58.541131)"/><path d="m464.81 486.25h147.06v56.16h-147.06z" fill="#d0d9ea" transform="matrix(.79052927 -.61242426 .61242426 .79052927 -202.22729 437.447205)"/><path d="m523.43 580.05-138.44 132.45c-2.64 2.52-6.33 3.61-9.9 2.86-9.34-1.96-28.19-9.27-49.16-36.34-20.98-27.07-23.35-47.15-22.92-56.68a11.05 11.05 0 0 1 5.24-8.87l162.73-101.09c3.22-2 7.44-1.24 9.76 1.75l43.42 56.03c2.33 3 2.01 7.27-.73 9.89z" fill="#ebeff7"/><ellipse cx="449.2" cy="559.65" fill="#b7c2ce" rx="8.85" ry="8.85" transform="matrix(.99209938 -.12545444 .12545444 .99209938 -66.657785 60.778624)"/><ellipse cx="415.81" cy="587.12" fill="#b7c2ce" rx="8.85" ry="8.85" transform="matrix(.99209938 -.12545444 .12545444 .99209938 -70.368048 56.807122)"/><path d="m618.73 369.28h193.88c34.58 0 62.87-28.29 62.87-62.87v-116.34c0-34.58-28.29-62.87-62.87-62.87h-193.88c-34.58 0-62.87 28.29-62.87 62.87v116.34c-.01 34.58 28.29 62.87 62.87 62.87z" fill="#80a7ff"/><path d="m659.56 369.28h193.88c34.58 0 62.87-28.29 62.87-62.87v-116.34c0-34.58-28.29-62.87-62.87-62.87h-193.88c-34.58 0-62.87 28.29-62.87 62.87v116.34c0 34.58 28.29 62.87 62.87 62.87z" fill="#9cb8ff"/><path d="m574.72 292.08h46.27v-113.17h-46.27c-23.15 0-41.91 18.77-41.91 41.91v29.34c0 23.16 18.76 41.92 41.91 41.92z" fill="#9cb8ff"/><path d="m620.99 266.93v-62.87c0-2.31-1.88-4.19-4.19-4.19h-42.08c-11.57 0-20.96 9.38-20.96 20.96v29.34c0 11.57 9.38 20.96 20.96 20.96h42.08a4.197 4.197 0 0 0 4.19-4.2z" fill="#80a7ff"/><path d="m848.01 332.34h16.77c3.85 0 6.97-3.12 6.97-6.97s-3.12-6.97-6.97-6.97h-16.77c-3.85 0-6.97 3.12-6.97 6.97s3.12 6.97 6.97 6.97z" fill="#80a7ff"/><path d="m918.04 190.07h-142.51c-13.83 0-25.15 11.32-25.15 25.15v29.34c0 34.58 28.29 62.87 62.87 62.87h67.06c34.58 0 62.87-28.29 62.87-62.87v-29.34c.01-13.83-11.31-25.15-25.14-25.15z" fill="#b8d0ff"/><path d="m842.6 307.43h37.72c34.58 0 62.87-28.29 62.87-62.87v-29.34c0-13.83-11.32-25.15-25.15-25.15h-113.17c-13.83 0-25.15 11.32-25.15 25.15v29.34c0 34.58 28.3 62.87 62.88 62.87z" fill="#cbdaf7"/><path d="m859.51 260h-27.25c-5.76 0-10.48 4.72-10.48 10.48s4.72 10.48 10.48 10.48h27.25c5.76 0 10.48-4.72 10.48-10.48 0-5.77-4.71-10.48-10.48-10.48zm49.25 0h-6.29 2.1-6.29c-5.76 0-10.48 4.72-10.48 10.48s4.72 10.48 10.48 10.48h6.29-2.1 6.29c5.76 0 10.48-4.72 10.48-10.48 0-5.77-4.71-10.48-10.48-10.48z" fill="#9cb8ff"/><path d="m693.9 255.35c11.38 0 20.69-9.31 20.69-20.69s-9.31-20.69-20.69-20.69-20.69 9.31-20.69 20.69 9.31 20.69 20.69 20.69z"/><path d="m676.77 231 34.22 7.32-21.61 8.34" style="fill:none;stroke:#000;stroke-width:8;stroke-linecap:round;stroke-linejoin:round;stroke-miterlimit:10"/><path d="m929.21 152.56s60.39 90.09-4.54 194.03l-36.87 21.4-237.13-10.22-57.65-76.82 57.65-153.87 202.77.11z" fill="#4871e5" opacity=".5"/><path d="m740.06 67.69c-138.14 0-214.45 93.11-214.45 170.4s90.57 83.92 111.82 29.6l44.79-118.32 197.31 25.56 49.67-22.38c-18.52-30.13-86.67-84.86-189.14-84.86z" fill="#ebeff7"/><path d="m622.62 280.95 124.89 65.64h177.16l-17.28 28.71h-332.66l-38.35-103.64z" fill="#ebeff7"/><path d="m805.91 56.35-3.32 22.5c17.86 14.34 34.46 31.5 48.68 52.14l20.35-46.92c-16.49-11.81-39.02-18.84-65.71-27.72z" fill="#ff7f14"/><path d="m851.27 130.99 20.35-46.92 17.66 46.92z" fill="#ff903e"/><path d="m593.75 190.52-37.07 11.75-16.29-65.58c-1.93-7.78 2.51-15.72 10.16-18.15 7.64-2.42 15.85 1.51 18.75 8.99z" fill="#dae2ed"/><path d="m546.17 159.99 10.5 42.28 37.07-11.75-15.76-40.62c-10.59 3.38-21.19 6.77-31.81 10.09z" fill="#b7c2ce"/><ellipse cx="584.08" cy="252.67" fill="#dae2ed" rx="77.79" ry="65.51" transform="matrix(.12219848 -.99250568 .99250568 .12219848 261.92494 801.501219)"/><ellipse cx="575.89" cy="252.67" fill="#b7c2ce" rx="55.27" ry="46.55" transform="matrix(.12219848 -.99250568 .99250568 .12219848 254.73563 793.374468)"/><ellipse cx="574.29" cy="252.67" fill="#ff903e" rx="39.58" ry="33.33" transform="matrix(.12219848 -.99250568 .99250568 .12219848 253.332485 791.77997)"/><path d="m566.9 272.51-4.25-1.74a2.297 2.297 0 0 1 -1.26-2.99l14.77-36.15a2.297 2.297 0 0 1 2.99-1.26l4.25 1.74c1.17.48 1.74 1.82 1.26 2.99l-14.77 36.15a2.282 2.282 0 0 1 -2.99 1.26z" fill="#ff7f14"/><path d="m410.46 191.16-368.91-134.27 61.85 120.75a104.981 104.981 0 0 0 57.54 50.8l293.62 106.87 10.13-27.84z" fill="#dae2ed"/><path d="m495.25 178.67-490.26-178.44c-3.14-1.14-6.07 2.13-4.59 5.12l18.71 37.91c2.11 4.28 5.79 7.57 10.27 9.2l12.16 4.43 368.92 134.27 54.23 116.3-10.13 27.84-7.6 20.88 123.55 44.97 17.73-48.72-72.1-154.62a37.01 37.01 0 0 0 -20.89-19.14z" fill="#eceff6"/><path d="m464.7 307.47-54.24-116.31-368.91-134.27 12.4 24.22 343.22 124.92 50.36 108-6.02 16.53 13.05 4.75z" fill="#c5cedd"/><path d="m39.02 42.17c-3.83-1.39-5.82-5.67-4.43-9.49 1.39-3.83 5.67-5.82 9.49-4.43 3.83 1.39 5.82 5.67 4.43 9.49-1.39 3.84-5.66 5.83-9.49 4.43zm29.58 10.77c-3.83-1.39-5.82-5.67-4.43-9.49 1.39-3.83 5.67-5.82 9.49-4.43 3.83 1.39 5.82 5.67 4.43 9.49-1.39 3.83-5.66 5.83-9.49 4.43zm421.12 153.28c-3.83-1.39-5.82-5.67-4.43-9.49 1.39-3.83 5.67-5.82 9.49-4.43 3.83 1.39 5.82 5.67 4.43 9.49-1.39 3.83-5.66 5.82-9.49 4.43z" fill="#dae2ed"/><path d="m616.07 527.29h-47.86v-159.3h66.38v140.78c0 10.23-8.29 18.52-18.52 18.52z"/><path d="m607.1 402.24h-76.7c-6.52 0-11.8-5.28-11.8-11.8v-41.3c0-6.52 5.28-11.8 11.8-11.8h76.7c6.52 0 11.8 5.28 11.8 11.8v41.3c0 6.51-5.28 11.8-11.8 11.8z" fill="#ff5c5c"/><path d="m635 422.89h-60.33c-16.36 0-29.63-13.27-29.63-29.63v-46.94c0-16.36 13.27-29.63 29.63-29.63h60.33c6.14 0 11.11 4.97 11.11 11.11v83.98c0 6.13-4.97 11.11-11.11 11.11z" fill="#d0d9ea"/></svg>