<svg xmlns="http://www.w3.org/2000/svg" width="660" height="142" viewBox="0 0 660 142">
  <g fill="none" fill-rule="evenodd" opacity=".3">
    <path fill="#202225" d="M476.5,274.195238 C523.168061,274.195238 561,236.543452 561,190.097619 C561,172.418728 555.518806,156.013942 546.155462,142.474689 C530.919508,120.443733 505.404582,106 476.5,106 C447.703763,106 422.271818,120.335655 407.0163,142.22727 C397.54826,155.813874 392,172.310899 392,190.097619 C392,236.543452 429.831939,274.195238 476.5,274.195238 Z"/>
    <rect width="65.894" height="248.82" x="-16.537" y="10.537" fill="#202225" transform="rotate(90 16.41 134.947)"/>
    <ellipse cx="396.5" cy="16.283" fill="#202225" rx="3.5" ry="3.483"/>
    <ellipse cx="375.5" cy="16.283" fill="#202225" rx="3.5" ry="3.483"/>
    <ellipse cx="354.5" cy="16.283" fill="#202225" rx="3.5" ry="3.483"/>
    <ellipse cx="333.5" cy="16.283" fill="#202225" rx="3.5" ry="3.483"/>
    <ellipse cx="417.5" cy="16.283" fill="#202225" rx="3.5" ry="3.483"/>
    <ellipse cx="438.5" cy="16.283" fill="#202225" rx="3.5" ry="3.483"/>
    <ellipse cx="459.5" cy="16.283" fill="#202225" rx="3.5" ry="3.483"/>
    <ellipse cx="397.5" cy="37.183" fill="#202225" rx="3.5" ry="3.483"/>
    <ellipse cx="376.5" cy="37.183" fill="#202225" rx="3.5" ry="3.483"/>
    <ellipse cx="355.5" cy="37.183" fill="#202225" rx="3.5" ry="3.483"/>
    <ellipse cx="334.5" cy="37.183" fill="#202225" rx="3.5" ry="3.483"/>
    <ellipse cx="418.5" cy="37.183" fill="#202225" rx="3.5" ry="3.483"/>
    <ellipse cx="438.5" cy="37.183" fill="#202225" rx="3.5" ry="3.483"/>
    <ellipse cx="459.5" cy="37.183" fill="#202225" rx="3.5" ry="3.483"/>
    <ellipse cx="397.5" cy="58.083" fill="#202225" rx="3.5" ry="3.483"/>
    <ellipse cx="376.5" cy="58.083" fill="#202225" rx="3.5" ry="3.483"/>
    <ellipse cx="355.5" cy="58.083" fill="#202225" rx="3.5" ry="3.483"/>
    <ellipse cx="334.5" cy="58.083" fill="#202225" rx="3.5" ry="3.483"/>
    <ellipse cx="418.5" cy="58.083" fill="#202225" rx="3.5" ry="3.483"/>
    <ellipse cx="438.5" cy="58.083" fill="#202225" rx="3.5" ry="3.483"/>
    <ellipse cx="459.5" cy="58.083" fill="#202225" rx="3.5" ry="3.483"/>
  </g>
</svg>
