<svg width="154" height="86" viewBox="0 0 154 86" fill="none" xmlns="http://www.w3.org/2000/svg">
<g clip-path="url(#clip0)">
<path opacity="0.2" d="M0.598206 86V80.9412C0.598206 74.6435 2.97276 68.5522 7.30889 63.9064C12.058 58.8475 18.6654 55.9568 25.5826 55.9568H36.7327C41.2753 55.9568 44.8887 52.3433 44.8887 47.8007V35.3085C44.8887 26.2233 52.3221 18.7899 61.4073 18.7899H117.777C126.862 18.7899 134.296 26.2233 134.296 35.3085V59.5702C134.296 61.7383 136.051 63.4934 138.219 63.4934H143.381C148.956 63.4934 153.602 68.036 153.602 73.7143V86.1032H0.598206V86Z" fill="#AEC7FF"/>
<path d="M128.721 19.4094L110.24 0L91.8635 19.4094H97.0256L97.1288 86H123.559V19.4094H128.721Z" fill="#FFD836"/>
<path d="M109.105 30.2496H24.4469V85.9999H109.105V30.2496Z" fill="#3E70DD"/>
<path d="M99.8131 81.3541H33.7387C32.603 81.3541 31.6738 80.4249 31.6738 79.2893V52.4465C31.6738 51.3109 32.603 50.3817 33.7387 50.3817H99.8131C100.949 50.3817 101.878 51.3109 101.878 52.4465V79.2893C101.878 80.4249 100.949 81.3541 99.8131 81.3541Z" fill="#7196FF"/>
<path d="M109.105 26.12H24.4469V45.7358H109.105V26.12Z" fill="#7196FF"/>
<path d="M93.6186 41.2965L86.3917 34.0696L88.8695 31.6951L93.6186 36.4442L98.471 31.6951L100.846 34.0696L93.6186 41.2965Z" fill="white"/>
<path d="M129.753 51.9304L120.461 61.2221V76.7083L129.753 86L139.045 76.7083V61.2221L129.753 51.9304ZM134.399 74.85L129.753 79.4958L125.107 74.85V63.1837L129.753 58.5379L134.399 63.1837V74.85Z" fill="#FF73FA"/>
<path d="M126.656 63.8032V74.2305L129.753 77.3278L132.85 74.2305V63.8032L129.753 60.7059L126.656 63.8032Z" fill="#FF73FA"/>
<path d="M129.753 51.9304V58.5379L134.399 63.1837L139.045 61.2221L129.753 51.9304Z" fill="#FFC0FF"/>
<path d="M12.471 71.4429L11.1288 74.1272C10.8191 74.7466 11.4385 75.4693 12.1612 75.1596L14.8455 73.8175C15.052 73.7142 15.2585 73.7142 15.4649 73.8175L18.1492 75.1596C18.7687 75.4693 19.4914 74.8499 19.1816 74.1272L17.8395 71.4429C17.7363 71.2364 17.7363 71.0299 17.8395 70.8235L19.1816 68.1392C19.4914 67.5197 18.8719 66.7971 18.1492 67.1068L15.4649 68.4489C15.2585 68.5522 15.052 68.5522 14.8455 68.4489L12.1612 67.1068C11.5418 66.7971 10.8191 67.4165 11.1288 68.1392L12.471 70.8235C12.5742 70.9267 12.5742 71.2364 12.471 71.4429Z" fill="#D4E4FF"/>
<path d="M145.239 44.91C144.62 44.91 144.207 44.497 144.207 43.8776V42.8452C144.207 42.2257 144.62 41.8127 145.239 41.8127C145.859 41.8127 146.272 42.2257 146.272 42.8452V43.8776C146.272 44.3938 145.859 44.91 145.239 44.91Z" fill="#AEC7FF"/>
<path d="M145.239 53.1693C144.62 53.1693 144.207 52.7563 144.207 52.1368V51.1044C144.207 50.485 144.62 50.072 145.239 50.072C145.859 50.072 146.272 50.485 146.272 51.1044V52.1368C146.272 52.6531 145.859 53.1693 145.239 53.1693Z" fill="#AEC7FF"/>
<path d="M147.82 47.491C147.82 46.8716 148.233 46.4586 148.853 46.4586H149.885C150.504 46.4586 150.917 46.8716 150.917 47.491C150.917 48.1105 150.504 48.5234 149.885 48.5234H148.853C148.336 48.5234 147.82 48.0072 147.82 47.491Z" fill="#AEC7FF"/>
<path d="M139.561 47.491C139.561 46.8716 139.974 46.4586 140.593 46.4586H141.626C142.245 46.4586 142.658 46.8716 142.658 47.491C142.658 48.1105 142.245 48.5234 141.626 48.5234H140.593C140.077 48.5234 139.561 48.0072 139.561 47.491Z" fill="#AEC7FF"/>
<path d="M11.0256 43.6711C10.4061 43.6711 9.99316 43.2581 9.99316 42.6387V41.6063C9.99316 40.9868 10.4061 40.5739 11.0256 40.5739C11.645 40.5739 12.058 40.9868 12.058 41.6063V42.6387C12.058 43.2581 11.645 43.6711 11.0256 43.6711Z" fill="#D4E4FF"/>
<path d="M11.0256 51.9304C10.4061 51.9304 9.99316 51.5174 9.99316 50.898V49.8655C9.99316 49.2461 10.4061 48.8331 11.0256 48.8331C11.645 48.8331 12.058 49.2461 12.058 49.8655V50.898C12.058 51.5174 11.645 51.9304 11.0256 51.9304Z" fill="#D4E4FF"/>
<path d="M13.6066 46.2521C13.6066 45.6327 14.0195 45.2197 14.639 45.2197H15.6714C16.2908 45.2197 16.7038 45.6327 16.7038 46.2521C16.7038 46.8716 16.2908 47.2846 15.6714 47.2846H14.639C14.1228 47.2846 13.6066 46.8716 13.6066 46.2521Z" fill="#D4E4FF"/>
<path d="M5.34729 46.2521C5.34729 45.6327 5.76026 45.2197 6.3797 45.2197H7.41212C8.03156 45.2197 8.44453 45.6327 8.44453 46.2521C8.44453 46.8716 8.03156 47.2846 7.41212 47.2846H6.3797C5.8635 47.2846 5.34729 46.8716 5.34729 46.2521Z" fill="#D4E4FF"/>
<path d="M105.595 61.9448H30.2285V62.9772H105.595V61.9448Z" fill="#3E70DD"/>
<path d="M38.3845 58.6411C39.81 58.6411 40.9655 57.4855 40.9655 56.06C40.9655 54.6346 39.81 53.479 38.3845 53.479C36.959 53.479 35.8035 54.6346 35.8035 56.06C35.8035 57.4855 36.959 58.6411 38.3845 58.6411Z" fill="#AEC7FF"/>
<path d="M85.3593 54.5115H44.0627V57.6087H85.3593V54.5115Z" fill="#AEC7FF"/>
<path d="M38.3845 71.03C39.81 71.03 40.9655 69.8744 40.9655 68.449C40.9655 67.0235 39.81 65.8679 38.3845 65.8679C36.959 65.8679 35.8035 67.0235 35.8035 68.449C35.8035 69.8744 36.959 71.03 38.3845 71.03Z" fill="#AEC7FF"/>
<path d="M96.7158 66.9004H44.0627V69.9976H96.7158V66.9004Z" fill="#AEC7FF"/>
<path d="M38.3845 78.2569C39.81 78.2569 40.9655 77.1013 40.9655 75.6759C40.9655 74.2504 39.81 73.0948 38.3845 73.0948C36.959 73.0948 35.8035 74.2504 35.8035 75.6759C35.8035 77.1013 36.959 78.2569 38.3845 78.2569Z" fill="#AEC7FF"/>
<path d="M75.0351 74.1273H44.0627V77.2246H75.0351V74.1273Z" fill="#AEC7FF"/>
</g>
<defs>
<clipPath id="clip0">
<rect width="153.004" height="86" fill="white" transform="translate(0.598206)"/>
</clipPath>
</defs>
</svg>
