<svg xmlns="http://www.w3.org/2000/svg" xmlns:xlink="http://www.w3.org/1999/xlink" viewBox="0 0 256 192"><defs><style>.cls-1{fill:#00e0a7;}.cls-2{fill:#ebf0f7;}.cls-3{fill:#eee0f8;}.cls-4,.cls-6{fill:#fa4e89;}.cls-5{fill:#fff;}.cls-6,.cls-7{stroke:#ebf0f7;stroke-miterlimit:10;stroke-width:3px;}.cls-7{fill:none;}.cls-8{fill:#776bff;}.cls-9{fill:#6045ff;}.cls-10{fill:#eb33ff;}.cls-11{fill:#ff87ff;}.cls-12{fill:#4e1ceb;}.cls-13{fill:#ffd01a;}.cls-14{fill:url(#linear-gradient);}.cls-15{fill:#cd1580;}.cls-16{fill:url(#linear-gradient-2);}</style><linearGradient id="linear-gradient" x1="205.82" y1="9.57" x2="227.75" y2="50.94" gradientUnits="userSpaceOnUse"><stop offset="0.2" stop-color="#4e1ceb"/><stop offset="0.27" stop-color="#551ee7"/><stop offset="0.37" stop-color="#6a24db"/><stop offset="0.49" stop-color="#8b2ec8"/><stop offset="0.63" stop-color="#b93bae"/><stop offset="0.78" stop-color="#f44c8d"/><stop offset="0.79" stop-color="#fa4e89"/></linearGradient><linearGradient id="linear-gradient-2" x1="94.46" y1="177.78" x2="66.79" y2="148.62" gradientUnits="userSpaceOnUse"><stop offset="0.16" stop-color="#4e1ceb"/><stop offset="0.55" stop-color="#c33ea9"/><stop offset="0.75" stop-color="#fa4e89"/></linearGradient></defs><title>gaming</title><g id="art"><rect class="cls-1" width="256" height="192"/><path d="M256,47.6v-4a23.8,23.8,0,0,0-12,3.71,9.58,9.58,0,0,0-4.75-1.06A10.41,10.41,0,0,0,229.66,54a17.88,17.88,0,0,0-.5,5.35c0,2,0,4,0,6V80.15c0,2.58,4,2.58,4,0,0-7,.16-14,0-21a13.49,13.49,0,0,1,.24-3.66c.79-3.2,3.34-5.53,6.76-5.25l.26,0a13.34,13.34,0,0,0-2,2.8,8.74,8.74,0,0,0-.8,6.9,6,6,0,0,0,5.3,4.2c5.07,0,6.87-6.52,6-10.54A9.3,9.3,0,0,0,247.25,50,19.68,19.68,0,0,1,250,48.78,20.42,20.42,0,0,1,256,47.6Zm-10.82,9.06c-.1,1-.78,3.33-2.06,3.52-1.49.23-2-2.12-1.86-3.15A8,8,0,0,1,244,52.3,6.06,6.06,0,0,1,245.18,56.66Z"/><polygon class="cls-2" points="47 52 0 77 0 134 51 134 47 52"/><rect class="cls-3" x="41.5" y="42.5" width="127" height="96"/><rect x="62.5" y="52" width="97.5" height="77"/><rect class="cls-4" x="50.03" y="90" width="120.93" height="4" transform="translate(-31.09 66.94) rotate(-29.74)"/><path class="cls-4" d="M73.5,96.5s18-4,17-30c0,0,22.5,17.5,40-5,0,0-4.5,25.5,22.5,27.5,0,0-31.5,5.5-24,26,0,0-20-19-36.5,5.5C92.5,120.5,102,97,73.5,96.5Z"/><path class="cls-5" d="M53.5,42.5v96h115v-96ZM160,129H62.5V52H160Z"/><path class="cls-6" d="M33.29,14.63h0a5.57,5.57,0,0,0-7.87,0l-.67.67-.67-.67a5.56,5.56,0,0,0-7.86,0h0a5.56,5.56,0,0,0,0,7.86L24.73,31l0,0,0,0,8.51-8.51A5.56,5.56,0,0,0,33.29,14.63Z"/><path class="cls-6" d="M59.31,14.63h0a5.57,5.57,0,0,0-7.87,0l-.67.67-.67-.67a5.56,5.56,0,0,0-7.86,0h0a5.56,5.56,0,0,0,0,7.86L50.74,31l0,0,0,0,8.51-8.51A5.56,5.56,0,0,0,59.31,14.63Z"/><path class="cls-7" d="M85.32,14.63h0a5.56,5.56,0,0,0-7.86,0l-.67.67-.67-.67a5.57,5.57,0,0,0-7.87,0h0a5.56,5.56,0,0,0,0,7.86L76.76,31l0,0,0,0,8.5-8.51A5.56,5.56,0,0,0,85.32,14.63Z"/><polygon class="cls-8" points="198 192 256 191.5 256 88.5 196.5 88.5 139.5 119.5 139.5 192 198 192"/><ellipse class="cls-9" cx="201" cy="123.61" rx="26" ry="17.52"/><path class="cls-10" d="M191,76.5h65a0,0,0,0,1,0,0v56a0,0,0,0,1,0,0H191a10,10,0,0,1-10-10v-36A10,10,0,0,1,191,76.5Z"/><path class="cls-11" d="M191,76.5h65a0,0,0,0,1,0,0v41a0,0,0,0,1,0,0H181a0,0,0,0,1,0,0v-31A10,10,0,0,1,191,76.5Z"/><ellipse cx="214.9" cy="97.78" rx="15.59" ry="11.22"/><polygon class="cls-12" points="256 192 256 132.67 198.5 168.5 198.5 192 256 192"/><polygon class="cls-9" points="198.5 192 198.5 168.5 139.5 119.5 139.5 192 198.5 192"/><path class="cls-13" d="M190.59,64.73H244.2a0,0,0,0,1,0,0v10a0,0,0,0,1,0,0H190.59a5,5,0,0,1-5-5v0a5,5,0,0,1,5-5Z" transform="translate(145.18 284.62) rotate(-90)"/><path class="cls-4" d="M190.59,64.73H244.2a0,0,0,0,1,0,0v10a0,0,0,0,1,0,0H190.59a5,5,0,0,1-5-5v0a5,5,0,0,1,5-5Z" transform="translate(145.18 284.62) rotate(-90)"/><circle class="cls-11" cx="190.75" cy="124.75" r="3.75"/><circle class="cls-11" cx="203.25" cy="124.75" r="3.75"/><circle class="cls-14" cx="214.9" cy="26.7" r="18.7"/><path class="cls-15" d="M251.33,87.07h-.6a7.09,7.09,0,0,0-13,0h-.61v3h0a7.09,7.09,0,0,0,14.17,0h0Z"/><circle class="cls-4" cx="244.24" cy="87.08" r="7.08"/><path class="cls-15" d="M243.08,103.7h-.45a5.21,5.21,0,0,0-9.54,0h-.45v2.22h0a5.21,5.21,0,0,0,10.41,0h0Z"/><circle class="cls-4" cx="237.86" cy="103.71" r="5.21"/><polygon class="cls-15" points="0.5 123.5 16.5 84.5 48.5 84.5 32.5 123.5 0.5 123.5"/><ellipse class="cls-4" cx="23.45" cy="104.18" rx="16.16" ry="7.68" transform="translate(-82.11 88.04) rotate(-68.62)"/><ellipse class="cls-8" cx="151.89" cy="150.19" rx="7.87" ry="11.57"/><ellipse class="cls-8" cx="181.13" cy="177.48" rx="7.87" ry="11.57"/><ellipse class="cls-9" cx="244.13" cy="160.48" rx="7.87" ry="11.57"/><circle class="cls-15" cx="67.75" cy="133.5" r="3.25"/><circle class="cls-15" cx="76.75" cy="133.5" r="3.25"/><path class="cls-9" d="M225.35,192c0-.27,0-.54,0-.82,0-5.83-3.22-10.56-7.18-10.56S211,185.35,211,191.18c0,.28,0,.55,0,.82Z"/><path d="M42.26,156c6.05.54,12.54.5,17.54-3.46,2.16-1.7,4.13-4.32,4-7.21A5.33,5.33,0,0,0,59,140a5.62,5.62,0,0,0-5.79,4.58,7.15,7.15,0,0,0,3.42,7.32,8.23,8.23,0,0,0,12.59-5.26,29.7,29.7,0,0,0,.53-7.76c0-1.82,0-3.64,0-5.46,0-2.58-4-2.58-4,0,0,2.42,0,4.83,0,7.25,0,2.72.13,7.08-3,8.28A4.66,4.66,0,0,1,58,148c-1-.93-1.53-3,0-3.78,1.23-.64,2,.54,1.87,1.7-.26,1.79-2,3.32-3.4,4.23-4.21,2.66-9.41,2.36-14.16,1.93a2,2,0,0,0-2,2,2,2,0,0,0,2,2Z"/><path class="cls-10" d="M0,123H37a10,10,0,0,1,10,10v59a0,0,0,0,1,0,0H0a0,0,0,0,1,0,0V123A0,0,0,0,1,0,123Z"/><path class="cls-11" d="M8.5,123h29a10,10,0,0,1,10,10v59a0,0,0,0,1,0,0H8.5a0,0,0,0,1,0,0V123A0,0,0,0,1,8.5,123Z"/><ellipse cx="28.5" cy="168.33" rx="9" ry="12.5"/><path class="cls-4" d="M31.5,164.33h43a0,0,0,0,1,0,0v8a0,0,0,0,1,0,0h-43a4,4,0,0,1-4-4v0A4,4,0,0,1,31.5,164.33Z"/><path class="cls-15" d="M35,140.87v-.49a5.73,5.73,0,0,0,0-10.49v-.49H32.58v0a5.72,5.72,0,0,0,0,11.44H35Z"/><circle class="cls-4" cx="35.01" cy="135.14" r="5.72"/><path class="cls-15" d="M23.52,152.37v-.49a5.73,5.73,0,0,0,0-10.49v-.49H21.08v0a5.72,5.72,0,0,0,0,11.44h2.44Z"/><circle class="cls-4" cx="23.51" cy="146.64" r="5.72"/><circle class="cls-16" cx="85.5" cy="168.33" r="15"/><path class="cls-8" d="M159,192a16.43,16.43,0,0,0,.72-4.81c0-6.39-3.52-11.57-7.87-11.57S144,180.8,144,187.19a16.11,16.11,0,0,0,.72,4.81Z"/></g></svg>