<svg width="80" height="80" viewBox="0 0 80 80" fill="none" xmlns="http://www.w3.org/2000/svg">
<path d="M39.9998 6.66666C21.6198 6.66666 6.6665 21.62 6.6665 40C6.6665 58.3833 21.6198 73.3333 39.9998 73.3333C58.3798 73.3333 73.3332 58.3833 73.3332 40C73.3332 21.62 58.3798 6.66666 39.9998 6.66666ZM36.6665 20H43.3332V43.3333H36.6665V20ZM39.9998 57.5C37.6998 57.5 35.8332 55.6367 35.8332 53.3333C35.8332 51.0333 37.6998 49.1667 39.9998 49.1667C42.2998 49.1667 44.1665 51.0333 44.1665 53.3333C44.1665 55.6367 42.2998 57.5 39.9998 57.5Z" fill="#F04747"/>
</svg>
