<?xml version="1.0" encoding="UTF-8" standalone="no"?>
<svg width="100px" height="85px" viewBox="0 0 100 85" version="1.1" xmlns="http://www.w3.org/2000/svg" xmlns:xlink="http://www.w3.org/1999/xlink">
    <!-- Generator: Sketch 3.7 (28169) - http://www.bohemiancoding.com/sketch -->
    <title>auth-code</title>
    <desc>Created with Sketch.</desc>
    <defs>
        <polygon id="path-1" points="0 84.683932 99.1933884 84.683932 99.1933884 0 0 0"></polygon>
    </defs>
    <g id="Settings" stroke="none" stroke-width="1" fill="none" fill-rule="evenodd">
        <g id="Desktop-HD---2FA,-Set-Up" transform="translate(-480.000000, -669.000000)">
            <g id="//-Settings" transform="translate(440.000000, 212.000000)">
                <g id="Group-7" transform="translate(40.000000, 450.000000)">
                    <g id="auth-code" transform="translate(0.000000, 7.000000)">
                        <path d="M52.168843,78.8124951 L12.0870248,83.0187573 C10.6680165,83.1681262 9.39694215,82.1398738 9.24735537,80.722932 L1.66719008,8.70647573 C1.51842975,7.28953398 2.54735537,6.02031068 3.96636364,5.87094175 L44.0481818,1.66467961 C45.4671901,1.51531068 46.7390909,2.54356311 46.8878512,3.96050485 L54.4680165,75.9769612 C54.6176033,77.3939029 53.5878512,78.6639515 52.168843,78.8124951 L52.168843,78.8124951 Z" id="Fill-1" fill="#FFFFFF"></path>
                        <path d="M37.6106612,2.3402233 L44.0486777,1.66434951 C45.467686,1.51580583 46.7387603,2.54323301 46.8875207,3.96017476 L54.4685124,75.9774563 C54.6172727,77.3943981 53.5875207,78.6636214 52.1685124,78.812165 L12.0866942,83.0192524 C10.667686,83.1677961 9.39661157,82.1403689 9.24785124,80.7234272 L1.6668595,8.70614563 C1.51809917,7.28920388 2.54785124,6.01998058 3.9668595,5.87143689 L30.1850413,3.11925243" id="Stroke-3" stroke="#1A1C1E" stroke-width="3.30578512" stroke-linecap="round" stroke-linejoin="round"></path>
                        <polygon id="Stroke-7" stroke="#1A1C1E" stroke-width="3.30578512" stroke-linecap="round" stroke-linejoin="round" points="8.87413223 15.8461456 41.3253719 12.4403689 47.2609091 68.8374563 14.8104959 72.243233"></polygon>
                        <path d="M36.6327273,75.1980146 L26.5310744,76.2584515" id="Stroke-9" stroke="#1A1C1E" stroke-width="3.30578512" stroke-linecap="round" stroke-linejoin="round"></path>
                        <path d="M25.612314,8.84445631 L24.3602479,8.9756699" id="Stroke-11" stroke="#1A1C1E" stroke-width="3.30578512" stroke-linecap="round" stroke-linejoin="round"></path>
                        <mask id="mask-2" fill="white">
                            <use xlink:href="#path-1"></use>
                        </mask>
                        <g id="Clip-14"></g>
                        <polygon id="Fill-13" fill="#D3D8E5" mask="url(#mask-2)" points="19.0280992 54.4024757 97.5404959 54.4024757 97.5404959 29.6451942 19.0280992 29.6451942"></polygon>
                        <polyline id="Stroke-15" stroke="#1A1C1E" stroke-width="3.30578512" stroke-linecap="round" stroke-linejoin="round" mask="url(#mask-2)" points="58.2824793 54.4021456 19.0279339 54.4021456 19.0279339 29.6448641 97.5403306 29.6448641 97.5403306 54.4021456 89.687438 54.4021456"></polyline>
                        <path d="M73.242314,54.4021456 L81.7133884,54.4021456" id="Stroke-16" stroke="#1A1C1E" stroke-width="3.30578512" stroke-linecap="round" stroke-linejoin="round" mask="url(#mask-2)"></path>
                        <path d="M25.9619835,40.0175049 L26.9487603,40.3352233 C27.4826446,40.507699 28.0289256,40.109932 28.0289256,39.5504175 L28.0289256,38.2168252 C28.0289256,37.7612913 28.3991736,37.3915825 28.8553719,37.3915825 L29.5694215,37.3915825 C30.0264463,37.3915825 30.3958678,37.7612913 30.3958678,38.2168252 L30.3958678,39.5512427 C30.3958678,40.1107573 30.9429752,40.5085243 31.4768595,40.3360485 L32.4636364,40.0183301 C32.9,39.8780388 33.3677686,40.1181845 33.5057851,40.5547379 L33.6479339,41.0044951 C33.7859504,41.4410485 33.5413223,41.9073107 33.1033058,42.0418252 L32.068595,42.3595437 C31.5330579,42.5245922 31.3132231,43.1625049 31.6338843,43.6213398 L32.4173554,44.7411942 C32.6768595,45.1125534 32.5884298,45.6233786 32.2181818,45.8858058 L31.7966942,46.1853689 C31.4297521,46.4461456 30.9206612,46.3644466 30.6528926,46.002165 L29.8917355,44.9714369 C29.5644628,44.5291068 28.9033058,44.5233301 28.5694215,44.961534 L27.761157,46.0203204 C27.4909091,46.3743495 26.9884298,46.4502718 26.6247934,46.1927961 L26.1958678,45.8874563 C25.8247934,45.6242039 25.7363636,45.1117282 25.9983471,44.7403689 L26.7859504,43.622165 C27.1090909,43.1633301 26.8900826,42.523767 26.3528926,42.3587184 L25.322314,42.0418252 C24.8834711,41.9073107 24.638843,41.4410485 24.777686,41.0044951 L24.9198347,40.5539126 C25.0578512,40.1173592 25.5256198,39.8772136 25.9619835,40.0175049" id="Fill-17" fill="#1A1C1E" mask="url(#mask-2)"></path>
                        <path d="M36.7641322,40.0175049 L37.7509091,40.3352233 C38.2847934,40.507699 38.8310744,40.109932 38.8310744,39.5504175 L38.8310744,38.2168252 C38.8310744,37.7612913 39.2013223,37.3915825 39.6575207,37.3915825 L40.3715702,37.3915825 C40.828595,37.3915825 41.1980165,37.7612913 41.1980165,38.2168252 L41.1980165,39.5512427 C41.1980165,40.1107573 41.745124,40.5085243 42.2790083,40.3360485 L43.2657851,40.0183301 C43.7021488,39.8780388 44.1699174,40.1181845 44.3079339,40.5547379 L44.4500826,41.0044951 C44.5880992,41.4410485 44.3434711,41.9073107 43.9054545,42.0418252 L42.8707438,42.3595437 C42.3352066,42.5245922 42.1153719,43.1625049 42.4360331,43.6213398 L43.2195041,44.7411942 C43.4790083,45.1125534 43.3905785,45.6233786 43.0203306,45.8858058 L42.598843,46.1853689 C42.2319008,46.4461456 41.7228099,46.3644466 41.4550413,46.002165 L40.6938843,44.9714369 C40.3666116,44.5291068 39.7054545,44.5233301 39.3715702,44.961534 L38.5633058,46.0203204 C38.2930579,46.3743495 37.7905785,46.4502718 37.4269421,46.1927961 L36.9980165,45.8874563 C36.6269421,45.6242039 36.5385124,45.1117282 36.8004959,44.7403689 L37.5880992,43.622165 C37.9112397,43.1633301 37.6922314,42.523767 37.1550413,42.3587184 L36.1244628,42.0418252 C35.6856198,41.9073107 35.4409917,41.4410485 35.5798347,41.0044951 L35.7219835,40.5539126 C35.86,40.1173592 36.3277686,39.8772136 36.7641322,40.0175049" id="Fill-18" fill="#1A1C1E" mask="url(#mask-2)"></path>
                        <path d="M47.566281,40.0175049 L48.5530579,40.3352233 C49.0869421,40.507699 49.6332231,40.109932 49.6332231,39.5504175 L49.6332231,38.2168252 C49.6332231,37.7612913 50.0034711,37.3915825 50.4596694,37.3915825 L51.173719,37.3915825 C51.6307438,37.3915825 52.0001653,37.7612913 52.0001653,38.2168252 L52.0001653,39.5512427 C52.0001653,40.1107573 52.5472727,40.5085243 53.081157,40.3360485 L54.0679339,40.0183301 C54.5042975,39.8780388 54.9720661,40.1181845 55.1100826,40.5547379 L55.2522314,41.0044951 C55.3902479,41.4410485 55.1456198,41.9073107 54.7076033,42.0418252 L53.6728926,42.3595437 C53.1373554,42.5245922 52.9175207,43.1625049 53.2381818,43.6213398 L54.0216529,44.7411942 C54.281157,45.1125534 54.1927273,45.6233786 53.8224793,45.8858058 L53.4009917,46.1853689 C53.0340496,46.4461456 52.5249587,46.3644466 52.2571901,46.002165 L51.4960331,44.9714369 C51.1687603,44.5291068 50.5076033,44.5233301 50.173719,44.961534 L49.3654545,46.0203204 C49.0952066,46.3743495 48.5927273,46.4502718 48.2290909,46.1927961 L47.8001653,45.8874563 C47.4290909,45.6242039 47.3406612,45.1117282 47.6026446,44.7403689 L48.3902479,43.622165 C48.7133884,43.1633301 48.4943802,42.523767 47.9571901,42.3587184 L46.9266116,42.0418252 C46.4877686,41.9073107 46.2431405,41.4410485 46.3819835,41.0044951 L46.5241322,40.5539126 C46.6621488,40.1173592 47.1299174,39.8772136 47.566281,40.0175049" id="Fill-19" fill="#1A1C1E" mask="url(#mask-2)"></path>
                        <path d="M62.5006612,40.0175049 L63.487438,40.3352233 C64.0213223,40.507699 64.5676033,40.109932 64.5676033,39.5504175 L64.5676033,38.2168252 C64.5676033,37.7612913 64.9378512,37.3915825 65.3940496,37.3915825 L66.1080992,37.3915825 C66.565124,37.3915825 66.9345455,37.7612913 66.9345455,38.2168252 L66.9345455,39.5512427 C66.9345455,40.1107573 67.4816529,40.5085243 68.0155372,40.3360485 L69.002314,40.0183301 C69.4386777,39.8780388 69.9064463,40.1181845 70.0444628,40.5547379 L70.1866116,41.0044951 C70.3246281,41.4410485 70.08,41.9073107 69.6419835,42.0418252 L68.6072727,42.3595437 C68.0717355,42.5245922 67.8519008,43.1625049 68.172562,43.6213398 L68.9560331,44.7411942 C69.2155372,45.1125534 69.1271074,45.6233786 68.7568595,45.8858058 L68.3353719,46.1853689 C67.9684298,46.4461456 67.4593388,46.3644466 67.1915702,46.002165 L66.4304132,44.9714369 C66.1031405,44.5291068 65.4419835,44.5233301 65.1080992,44.961534 L64.2998347,46.0203204 C64.0295868,46.3743495 63.5271074,46.4502718 63.1634711,46.1927961 L62.7345455,45.8874563 C62.3634711,45.6242039 62.2750413,45.1117282 62.5370248,44.7403689 L63.3246281,43.622165 C63.6477686,43.1633301 63.4287603,42.523767 62.8915702,42.3587184 L61.8609917,42.0418252 C61.4221488,41.9073107 61.1775207,41.4410485 61.3163636,41.0044951 L61.4585124,40.5539126 C61.5965289,40.1173592 62.0642975,39.8772136 62.5006612,40.0175049" id="Fill-20" fill="#1A1C1E" mask="url(#mask-2)"></path>
                        <path d="M73.3028099,40.0175049 L74.2895868,40.3352233 C74.8234711,40.507699 75.3697521,40.109932 75.3697521,39.5504175 L75.3697521,38.2168252 C75.3697521,37.7612913 75.74,37.3915825 76.1961983,37.3915825 L76.9102479,37.3915825 C77.3672727,37.3915825 77.7366942,37.7612913 77.7366942,38.2168252 L77.7366942,39.5512427 C77.7366942,40.1107573 78.2838017,40.5085243 78.817686,40.3360485 L79.8044628,40.0183301 C80.2408264,39.8780388 80.708595,40.1181845 80.8466116,40.5547379 L80.9887603,41.0044951 C81.1267769,41.4410485 80.8821488,41.9073107 80.4441322,42.0418252 L79.4094215,42.3595437 C78.8738843,42.5245922 78.6540496,43.1625049 78.9747107,43.6213398 L79.7581818,44.7411942 C80.017686,45.1125534 79.9292562,45.6233786 79.5590083,45.8858058 L79.1375207,46.1853689 C78.7705785,46.4461456 78.2614876,46.3644466 77.993719,46.002165 L77.232562,44.9714369 C76.9052893,44.5291068 76.2441322,44.5233301 75.9102479,44.961534 L75.1019835,46.0203204 C74.8317355,46.3743495 74.3292562,46.4502718 73.9656198,46.1927961 L73.5366942,45.8874563 C73.1656198,45.6242039 73.0771901,45.1117282 73.3391736,44.7403689 L74.1267769,43.622165 C74.4499174,43.1633301 74.2309091,42.523767 73.693719,42.3587184 L72.6631405,42.0418252 C72.2242975,41.9073107 71.9796694,41.4410485 72.1185124,41.0044951 L72.2606612,40.5539126 C72.3986777,40.1173592 72.8664463,39.8772136 73.3028099,40.0175049" id="Fill-21" fill="#1A1C1E" mask="url(#mask-2)"></path>
                        <path d="M84.1049587,40.0175049 L85.0917355,40.3352233 C85.6256198,40.507699 86.1719008,40.109932 86.1719008,39.5504175 L86.1719008,38.2168252 C86.1719008,37.7612913 86.5421488,37.3915825 86.9983471,37.3915825 L87.7123967,37.3915825 C88.1694215,37.3915825 88.538843,37.7612913 88.538843,38.2168252 L88.538843,39.5512427 C88.538843,40.1107573 89.0859504,40.5085243 89.6198347,40.3360485 L90.6066116,40.0183301 C91.0429752,39.8780388 91.5107438,40.1181845 91.6487603,40.5547379 L91.7909091,41.0044951 C91.9289256,41.4410485 91.6842975,41.9073107 91.246281,42.0418252 L90.2115702,42.3595437 C89.6760331,42.5245922 89.4561983,43.1625049 89.7768595,43.6213398 L90.5603306,44.7411942 C90.8198347,45.1125534 90.731405,45.6233786 90.361157,45.8858058 L89.9396694,46.1853689 C89.5727273,46.4461456 89.0636364,46.3644466 88.7958678,46.002165 L88.0347107,44.9714369 C87.707438,44.5291068 87.046281,44.5233301 86.7123967,44.961534 L85.9041322,46.0203204 C85.6338843,46.3743495 85.131405,46.4502718 84.7677686,46.1927961 L84.338843,45.8874563 C83.9677686,45.6242039 83.8793388,45.1117282 84.1413223,44.7403689 L84.9289256,43.622165 C85.2520661,43.1633301 85.0330579,42.523767 84.4958678,42.3587184 L83.4652893,42.0418252 C83.0264463,41.9073107 82.7818182,41.4410485 82.9206612,41.0044951 L83.0628099,40.5539126 C83.2008264,40.1173592 83.668595,39.8772136 84.1049587,40.0175049" id="Fill-22" fill="#1A1C1E" mask="url(#mask-2)"></path>
                    </g>
                </g>
            </g>
        </g>
    </g>
</svg>