<svg xmlns="http://www.w3.org/2000/svg" viewBox="0 0 31.46 22">
  <path d="M21.28 16H19.6a3.65 3.65 0 0 1-3.6-3.69v-1.72a1.46 1.46 0 0 1 1.44-1.47h7.89V7.06h-14c-1.27 2.86-2.57 5.84-3 7a3.67 3.67 0 0 1-3.43 2.29v1.23a5.93 5.93 0 0 0 4.21 1.74H21.7a3.64 3.64 0 0 0 3.64-3.63v-.26a3.51 3.51 0 0 1-1.91.57zm-8.43-2.81A1.24 1.24 0 1 1 14.08 12a1.24 1.24 0 0 1-1.23 1.19z" fill="#fff" opacity=".8"/>
  <path d="M25.59 9.12h-8.14A1.46 1.46 0 0 0 16 10.59v1.72A3.65 3.65 0 0 0 19.6 16h3.83a3.51 3.51 0 0 0 1.91-.57l.1-.06A3.74 3.74 0 0 0 27 12.31v-1.72a1.45 1.45 0 0 0-1.41-1.47zM22 14.39h-1.59a.61.61 0 1 1 0-1.21H22a.61.61 0 1 1 0 1.21zm2.85 0h-.61a.61.61 0 0 1 0-1.21h.61a.61.61 0 1 1 0 1.21z" fill="#fff"/>
  <path d="M22 13.18h-1.59a.61.61 0 1 0 0 1.21H22a.61.61 0 1 0 0-1.21zM24.83 13.18h-.61a.61.61 0 0 0 0 1.21h.61a.61.61 0 1 0 0-1.21z" fill="#fff" opacity=".6"/>
  <path d="M2.23 15.36a4.64 4.64 0 0 1-.44-.23v5.78L3.35 22l1.55-1.09v-4.56a3.74 3.74 0 0 1-2.67-.99z" fill="#fff" opacity=".4"/>
  <path d="M7.3 13.4a3.74 3.74 0 0 1-5.07 2 3.74 3.74 0 0 0 2.67 1A3.67 3.67 0 0 0 8.27 14c.45-1.14 1.75-4.12 3-7H10s-1.73 3.93-2.7 6.4z" fill="#fff" opacity=".6"/>
  <path d="M14.47 0l.85.07z" fill="#ebeff7"/>
  <path d="M21.85 4.28a24.31 24.31 0 0 1 3.59.36c-.78-.93-3.82-4-10.11-4.55 4.55 1.09 6.23 3.68 6.52 4.19zM7.3 13.4c.97-2.47 2.7-6.34 2.7-6.34s3.08-2.33 9.42-2.73c-2.21-3-5.84-4-8.08-4.24C3.61.92 0 6.79 0 11.47a4.11 4.11 0 0 0 1.79 3.66 4.64 4.64 0 0 0 .44.23A3.74 3.74 0 0 0 7.3 13.4zM.77 10.56A2.85 2.85 0 0 1 3.7 7.84a2.85 2.85 0 0 1 2.19 3.35A2.85 2.85 0 0 1 3 13.91a2.84 2.84 0 0 1-2.23-3.35z" fill="#fff"/>
  <path d="M20.83 4.27c-.49 0-1 0-1.42.06-6.34.4-9.41 2.73-9.41 2.73h21.46a13.47 13.47 0 0 0-6-2.42 24.31 24.31 0 0 0-3.59-.36z" fill="#fff" opacity=".4"/>
  <path d="M3 13.91a2.85 2.85 0 0 0 2.94-2.72A2.85 2.85 0 0 0 3.7 7.84a2.85 2.85 0 0 0-2.93 2.72A2.84 2.84 0 0 0 3 13.91zm-1.76-3.24a1.89 1.89 0 0 1 2-1.81 1.89 1.89 0 0 1 1.45 2.23 1.88 1.88 0 0 1-1.95 1.8 1.9 1.9 0 0 1-1.5-2.22z" fill="#fff" opacity=".8"/>
  <path d="M2.69 12.89a1.88 1.88 0 0 0 1.95-1.8 1.89 1.89 0 0 0-1.45-2.23 1.89 1.89 0 0 0-1.95 1.81 1.9 1.9 0 0 0 1.45 2.22zM19.41 4.34h2.41c-.3-.52-2-3.1-6.51-4.19L14.47 0h-1.26a15.9 15.9 0 0 0-1.86.11c2.23.27 5.85 1.19 8.06 4.23z" fill="#fff" opacity=".6"/>
</svg>
