<svg xmlns="http://www.w3.org/2000/svg" width="69" height="54" viewBox="0 0 69 54" fill="none" style="&#10;">
<path d="M46.0793 7.75996L45.8868 8.07996H34.9338C34.9338 8.07996 43.8759 0.293286 44.0042 0.314619C44.0734 0.316052 44.1405 0.338366 44.1968 0.378619L44.3465 0.463952H44.4107L44.4962 0.527952C44.649 0.628454 44.7922 0.74271 44.9241 0.869286C44.9915 0.914836 45.0496 0.972754 45.0952 1.03995C45.2054 1.1286 45.3058 1.22872 45.3947 1.33862H45.4161L45.5231 1.48795L45.6086 1.55195H45.5873C46.2938 2.41346 46.7196 3.46968 46.8075 4.57917C46.8954 5.68866 46.6413 6.79846 46.0793 7.75996Z" fill="#C0C2C4"/>
<path d="M45.6086 1.65864H45.5872C43.9229 3.8049 42.1146 5.83622 40.1749 7.73863C40.0718 7.86282 39.9572 7.9771 39.8326 8.07997H36.7949L37.18 7.7173C37.672 7.2693 38.2282 6.7573 38.8272 6.15997C40.6722 4.32002 42.4012 2.36783 44.0041 0.314636C44.0733 0.316069 44.1405 0.338383 44.1967 0.378636L44.3464 0.463969H44.4106L44.4962 0.52797L44.924 0.869303C44.9914 0.914853 45.0495 0.972771 45.0951 1.03997C45.2054 1.12861 45.3057 1.22874 45.3946 1.33864H45.416L45.523 1.48797L45.6086 1.65864Z" fill="#888991"/>
<path d="M54.679 17.9786H63.8563C65.0724 17.9786 66.2391 18.4589 67.101 19.3145C67.9629 20.17 68.45 21.3312 68.4557 22.544V32.848C68.4557 34.0644 67.9711 35.2311 67.1086 36.0912C66.246 36.9514 65.0761 37.4346 63.8563 37.4346H54.679V17.9786Z" fill="#4F545C"/>
<path d="M58.4226 21.392H63.022C63.629 21.392 64.2113 21.6325 64.6405 22.0606C65.0698 22.4887 65.311 23.0693 65.311 23.6747V31.6747C65.311 32.2801 65.0698 32.8607 64.6405 33.2888C64.2113 33.7168 63.629 33.9573 63.022 33.9573H58.4226V21.3707V21.392Z" fill="#A6A8AC"/>
<path d="M12.2792 26.2773V37.4133H3.10187C2.00063 37.424 0.934171 37.029 0.106934 36.304V36.304L3.10187 33.8293L4.96301 32.3147L8.53554 29.3493L12.2792 26.2773Z" fill="#6592FF"/>
<path d="M61.995 17.9787V34.0853C61.9966 35.2178 61.8087 36.3426 61.4388 37.4134C60.743 39.4421 59.4285 41.2032 57.6794 42.4502C55.9303 43.6972 53.834 44.3678 51.6839 44.368H15.274C13.1239 44.3678 11.0277 43.6972 9.27855 42.4502C7.52944 41.2032 6.21499 39.4421 5.5191 37.4134C5.1493 36.3426 4.96131 35.2178 4.9629 34.0853L35.9177 7.76001H51.6839C54.4075 7.75996 57.0205 8.83452 58.9524 10.7491C60.8843 12.6636 61.9781 15.2627 61.995 17.9787Z" fill="#72767D" style="&#10;    background: green;&#10;"/>
<path d="M47.2345 19.8133V28.0053C47.2345 30.1177 46.3945 32.1438 44.8987 33.6395C43.4029 35.1352 41.3734 35.9783 39.2551 35.984H27.7246C25.6027 35.984 23.5677 35.1433 22.0672 33.6471C20.5668 32.1508 19.7239 30.1214 19.7239 28.0053V24.656L29.8211 16.528H43.9401C44.3727 16.528 44.8011 16.6129 45.2008 16.778C45.6005 16.9431 45.9637 17.1851 46.2696 17.4902C46.5755 17.7953 46.8182 18.1574 46.9837 18.556C47.1493 18.9546 47.2345 19.3819 47.2345 19.8133V19.8133Z" fill="#B9BBBE"/>
<path d="M53.5665 25.3386C55.2796 25.3386 56.6684 23.9537 56.6684 22.2453C56.6684 20.5369 55.2796 19.152 53.5665 19.152C51.8534 19.152 50.4646 20.5369 50.4646 22.2453C50.4646 23.9537 51.8534 25.3386 53.5665 25.3386Z" fill="#202225"/>
<path d="M42.4211 28.048H37.9929C37.2013 28.048 36.5596 28.688 36.5596 29.4774V29.4795C36.5596 30.2689 37.2013 30.9088 37.9929 30.9088H42.4211C43.2127 30.9088 43.8544 30.2689 43.8544 29.4795V29.4774C43.8544 28.688 43.2127 28.048 42.4211 28.048Z" fill="#72767D"/>
<path d="M28.9653 28.048H24.537C23.7455 28.048 23.1038 28.688 23.1038 29.4774V29.4795C23.1038 30.2689 23.7455 30.9088 24.537 30.9088H28.9653C29.7569 30.9088 30.3986 30.2689 30.3986 29.4795V29.4774C30.3986 28.688 29.7569 28.048 28.9653 28.048Z" fill="#72737D"/>
<g style="mix-blend-mode:multiply">
<path d="M0.791412 36.88C0.791412 39.3973 0.727235 41.744 3.23015 44.7093C5.3266 47.1626 8.89913 51.344 9.88318 52.3253C10.2338 52.6746 10.6805 52.9122 11.1667 53.008C12.8781 53.2853 14.6323 51.7066 15.4024 49.0186L16.0442 46.672C20.451 49.2533 25.6066 45.584 27.6175 38.4586L28.8796 33.9786C29.8637 34.4693 30.9761 34.448 32.0671 33.7653C32.6876 35.4006 33.4913 36.9607 34.4631 38.416C34.7839 38.9066 35.3401 38.8426 35.7038 38.2666C36.0675 37.6906 36.0461 36.816 35.7038 36.3253C34.8489 35.0603 34.1453 33.7 33.6074 32.272V32.272C35.1048 30.1813 35.7466 26.8747 35.0834 23.9307C34.669 22.1853 34.3476 20.4193 34.1208 18.64C39.0624 14.9067 43.619 13.2213 43.619 6.84266C43.619 6.35199 43.5762 2.12799 43.5762 2.12799L0.791412 36.88Z" style="&#10;    fill: #202225;&#10;    opacity: .3;&#10;"/>
</g>
<path d="M3.74368 42.3627L10.2256 46.096C12.1723 47.2267 14.5041 45.6693 15.4025 42.6187L16.0443 40.3573C20.4512 42.832 25.6067 39.3333 27.6176 32.4853L28.8798 28.176C29.8638 28.6666 30.9762 28.6453 32.0672 27.984C32.6876 29.5589 33.4917 31.0554 34.4632 32.4426C34.7841 32.912 35.3403 32.848 35.7039 32.2933C36.0676 31.7386 36.0462 30.9066 35.7039 30.4373C34.8574 29.228 34.1539 27.9251 33.6075 26.5546V26.5546C35.1049 24.5493 35.7467 21.392 35.0836 18.576C34.6704 16.9022 34.3491 15.2073 34.1209 13.4986C35.3403 12.304 37.2656 10.768 40.2819 9.03997H40.3247L40.7098 8.78397L40.8595 8.65597L41.1376 8.4213L41.3087 8.25064L41.5227 8.0373L41.7152 7.7813C41.776 7.73487 41.8269 7.67686 41.8649 7.61063V7.61063C43.0843 5.9893 43.8758 4.3893 43.8758 1.53063C43.8758 1.0613 43.833 0.655964 44.0042 0.527964C44.1753 0.399964 44.2181 0.463964 44.3892 0.549297C43.8972 0.143964 43.7261 0.421297 43.5122 0.57063L0.106977 36.304C-0.320871 38.3307 0.513432 40.5067 3.74368 42.3627Z" fill="#B9BBBE"/>
<path d="M3.74368 42.3627L10.2256 46.096C12.1723 47.2267 14.5041 45.6693 15.4025 42.6187L16.0443 40.3573C20.4512 42.832 25.6067 39.3333 27.6176 32.4853L28.8798 28.176C29.8638 28.6666 30.9762 28.6453 32.0672 27.984C32.6876 29.5589 33.4917 31.0554 34.4632 32.4426C34.7841 32.912 35.3403 32.848 35.7039 32.2933C36.0676 31.7386 36.0462 30.9066 35.7039 30.4373C34.8574 29.228 34.1539 27.9251 33.6075 26.5546V26.5546C35.1049 24.5493 35.7467 21.392 35.0836 18.576C34.6704 16.9022 34.3491 15.2073 34.1209 13.4986C35.3403 12.304 37.2656 10.768 40.2819 9.03997H40.3247L40.7098 8.78397L40.8595 8.65597L41.1376 8.4213L41.3087 8.25064L41.5227 8.0373L41.7152 7.7813C41.776 7.73487 41.8269 7.67686 41.8649 7.61063V7.61063C43.0843 5.9893 43.8758 4.3893 43.8758 1.53063C43.8758 1.0613 43.833 0.655964 44.0042 0.527964C44.1753 0.399964 44.2181 0.463964 44.3892 0.549297C43.8972 0.143964 43.7261 0.421297 43.5122 0.57063L0.106977 36.304C-0.320871 38.3307 0.513432 40.5067 3.74368 42.3627Z" fill="#595E66" fill-opacity="0.2"/>
<path d="M24.2804 38.5866L28.5803 12.8586L21.7775 18.4479L18.0767 41.0826C20.2373 41.4239 22.4407 40.5066 24.2804 38.5866Z" fill="#B9BBBE"/>
<path d="M10.6105 27.664L7.80811 44.7093L10.2254 46.096L10.6105 46.288L14.2472 24.656L10.6105 27.664Z" fill="#B9BBBE"/>
</svg>