<svg width="400" height="96" viewBox="0 0 400 96" fill="none" xmlns="http://www.w3.org/2000/svg">
<path d="M0 0H400V96H0V0Z" fill="#E3E5E8"/>
<g opacity="0.1" clip-path="url(#clip0)">
<path opacity="0.5" fill-rule="evenodd" clip-rule="evenodd" d="M55.8445 -20.2297L112.021 29.5128L52.7944 81.9561L-3.38186 32.2136L55.8445 -20.2297Z" fill="#060607"/>
<path opacity="0.5" fill-rule="evenodd" clip-rule="evenodd" d="M214.619 155.172C239.924 155.172 260.437 136.022 260.437 112.398C260.437 88.775 239.924 69.6244 214.619 69.6244C189.314 69.6244 168.8 88.775 168.8 112.398C168.8 136.022 189.314 155.172 214.619 155.172Z" fill="#060607"/>
<path opacity="0.5" fill-rule="evenodd" clip-rule="evenodd" d="M297.66 11.5178C298.529 11.5178 299.233 10.8603 299.233 10.0492C299.233 9.23809 298.529 8.58057 297.66 8.58057C296.791 8.58057 296.087 9.23809 296.087 10.0492C296.087 10.8603 296.791 11.5178 297.66 11.5178Z" fill="#060607"/>
<path opacity="0.5" fill-rule="evenodd" clip-rule="evenodd" d="M288.221 11.5178C289.09 11.5178 289.794 10.8603 289.794 10.0492C289.794 9.23809 289.09 8.58057 288.221 8.58057C287.352 8.58057 286.648 9.23809 286.648 10.0492C286.648 10.8603 287.352 11.5178 288.221 11.5178Z" fill="#060607"/>
<path opacity="0.5" fill-rule="evenodd" clip-rule="evenodd" d="M278.782 11.5178C279.65 11.5178 280.355 10.8603 280.355 10.0492C280.355 9.23809 279.65 8.58057 278.782 8.58057C277.913 8.58057 277.208 9.23809 277.208 10.0492C277.208 10.8603 277.913 11.5178 278.782 11.5178Z" fill="#060607"/>
<path opacity="0.5" fill-rule="evenodd" clip-rule="evenodd" d="M269.343 11.5178C270.212 11.5178 270.916 10.8603 270.916 10.0492C270.916 9.23809 270.212 8.58057 269.343 8.58057C268.474 8.58057 267.77 9.23809 267.77 10.0492C267.77 10.8603 268.474 11.5178 269.343 11.5178Z" fill="#060607"/>
<path opacity="0.5" fill-rule="evenodd" clip-rule="evenodd" d="M307.099 11.5178C307.967 11.5178 308.672 10.8603 308.672 10.0492C308.672 9.23809 307.967 8.58057 307.099 8.58057C306.23 8.58057 305.525 9.23809 305.525 10.0492C305.525 10.8603 306.23 11.5178 307.099 11.5178Z" fill="#060607"/>
<path opacity="0.5" fill-rule="evenodd" clip-rule="evenodd" d="M316.538 11.5178C317.406 11.5178 318.111 10.8603 318.111 10.0492C318.111 9.23809 317.406 8.58057 316.538 8.58057C315.669 8.58057 314.964 9.23809 314.964 10.0492C314.964 10.8603 315.669 11.5178 316.538 11.5178Z" fill="#060607"/>
<path opacity="0.5" fill-rule="evenodd" clip-rule="evenodd" d="M325.977 11.5178C326.846 11.5178 327.55 10.8603 327.55 10.0492C327.55 9.23809 326.846 8.58057 325.977 8.58057C325.108 8.58057 324.404 9.23809 324.404 10.0492C324.404 10.8603 325.108 11.5178 325.977 11.5178Z" fill="#060607"/>
<path opacity="0.5" fill-rule="evenodd" clip-rule="evenodd" d="M298.053 20.3292C298.922 20.3292 299.627 19.6717 299.627 18.8606C299.627 18.0495 298.922 17.392 298.053 17.392C297.185 17.392 296.48 18.0495 296.48 18.8606C296.48 19.6717 297.185 20.3292 298.053 20.3292Z" fill="#060607"/>
<path opacity="0.5" fill-rule="evenodd" clip-rule="evenodd" d="M288.614 20.3292C289.483 20.3292 290.187 19.6717 290.187 18.8606C290.187 18.0495 289.483 17.392 288.614 17.392C287.745 17.392 287.041 18.0495 287.041 18.8606C287.041 19.6717 287.745 20.3292 288.614 20.3292Z" fill="#060607"/>
<path opacity="0.5" fill-rule="evenodd" clip-rule="evenodd" d="M279.175 20.3292C280.044 20.3292 280.748 19.6717 280.748 18.8606C280.748 18.0495 280.044 17.392 279.175 17.392C278.306 17.392 277.602 18.0495 277.602 18.8606C277.602 19.6717 278.306 20.3292 279.175 20.3292Z" fill="#060607"/>
<path opacity="0.5" fill-rule="evenodd" clip-rule="evenodd" d="M269.736 20.3292C270.605 20.3292 271.309 19.6717 271.309 18.8606C271.309 18.0495 270.605 17.392 269.736 17.392C268.867 17.392 268.163 18.0495 268.163 18.8606C268.163 19.6717 268.867 20.3292 269.736 20.3292Z" fill="#060607"/>
<path opacity="0.5" fill-rule="evenodd" clip-rule="evenodd" d="M307.493 20.3292C308.361 20.3292 309.066 19.6717 309.066 18.8606C309.066 18.0495 308.361 17.392 307.493 17.392C306.624 17.392 305.919 18.0495 305.919 18.8606C305.919 19.6717 306.624 20.3292 307.493 20.3292Z" fill="#060607"/>
<path opacity="0.5" fill-rule="evenodd" clip-rule="evenodd" d="M316.932 20.3292C317.8 20.3292 318.505 19.6717 318.505 18.8606C318.505 18.0495 317.8 17.392 316.932 17.392C316.063 17.392 315.358 18.0495 315.358 18.8606C315.358 19.6717 316.063 20.3292 316.932 20.3292Z" fill="#060607"/>
<path opacity="0.5" fill-rule="evenodd" clip-rule="evenodd" d="M326.371 20.3292C327.239 20.3292 327.944 19.6717 327.944 18.8606C327.944 18.0495 327.239 17.392 326.371 17.392C325.502 17.392 324.797 18.0495 324.797 18.8606C324.797 19.6717 325.502 20.3292 326.371 20.3292Z" fill="#060607"/>
<path opacity="0.5" fill-rule="evenodd" clip-rule="evenodd" d="M298.053 29.1411C298.922 29.1411 299.627 28.4836 299.627 27.6725C299.627 26.8614 298.922 26.2039 298.053 26.2039C297.185 26.2039 296.48 26.8614 296.48 27.6725C296.48 28.4836 297.185 29.1411 298.053 29.1411Z" fill="#060607"/>
<path opacity="0.5" fill-rule="evenodd" clip-rule="evenodd" d="M288.614 29.1411C289.483 29.1411 290.187 28.4836 290.187 27.6725C290.187 26.8614 289.483 26.2039 288.614 26.2039C287.745 26.2039 287.041 26.8614 287.041 27.6725C287.041 28.4836 287.745 29.1411 288.614 29.1411Z" fill="#060607"/>
<path opacity="0.5" fill-rule="evenodd" clip-rule="evenodd" d="M279.175 29.1411C280.044 29.1411 280.748 28.4836 280.748 27.6725C280.748 26.8614 280.044 26.2039 279.175 26.2039C278.306 26.2039 277.602 26.8614 277.602 27.6725C277.602 28.4836 278.306 29.1411 279.175 29.1411Z" fill="#060607"/>
<path opacity="0.5" fill-rule="evenodd" clip-rule="evenodd" d="M269.736 29.1411C270.605 29.1411 271.309 28.4836 271.309 27.6725C271.309 26.8614 270.605 26.2039 269.736 26.2039C268.867 26.2039 268.163 26.8614 268.163 27.6725C268.163 28.4836 268.867 29.1411 269.736 29.1411Z" fill="#060607"/>
<path opacity="0.5" fill-rule="evenodd" clip-rule="evenodd" d="M307.493 29.1411C308.361 29.1411 309.066 28.4836 309.066 27.6725C309.066 26.8614 308.361 26.2039 307.493 26.2039C306.624 26.2039 305.919 26.8614 305.919 27.6725C305.919 28.4836 306.624 29.1411 307.493 29.1411Z" fill="#060607"/>
<path opacity="0.5" fill-rule="evenodd" clip-rule="evenodd" d="M316.932 29.1411C317.8 29.1411 318.505 28.4836 318.505 27.6725C318.505 26.8614 317.8 26.2039 316.932 26.2039C316.063 26.2039 315.358 26.8614 315.358 27.6725C315.358 28.4836 316.063 29.1411 316.932 29.1411Z" fill="#060607"/>
<path opacity="0.5" fill-rule="evenodd" clip-rule="evenodd" d="M326.371 29.1411C327.239 29.1411 327.944 28.4836 327.944 27.6725C327.944 26.8614 327.239 26.2039 326.371 26.2039C325.502 26.2039 324.797 26.8614 324.797 27.6725C324.797 28.4836 325.502 29.1411 326.371 29.1411Z" fill="#060607"/>
<path opacity="0.5" fill-rule="evenodd" clip-rule="evenodd" d="M363.866 -60.7017C356.679 -62.4095 354.617 -71.5184 360.425 -75.9053L375.902 -87.5963L413.707 44.664L409.258 48.0249C401.995 53.5109 391.847 46.081 395.072 37.6387C397.004 32.581 393.937 26.9512 388.553 25.6718L384.968 24.82C377.484 23.0416 373.358 15.0802 376.339 8.16923L379.87 -0.0165976C383.265 -7.88764 378.566 -16.9549 370.042 -18.9804C363.905 -20.4387 360.522 -26.9672 362.966 -32.6343L369.982 -48.8995C372.095 -53.7981 369.171 -59.4412 363.866 -60.7017Z" fill="#060607"/>
</g>
<defs>
<clipPath id="clip0">
<rect width="400" height="96" fill="white"/>
</clipPath>
</defs>
</svg>
