<svg xmlns="http://www.w3.org/2000/svg" width="388" height="236" viewBox="0 0 388 236">
  <g fill="none" fill-rule="evenodd">
    <path fill="#4F545C" fill-opacity=".3" d="M327.3413,101.6006 C300.2713,101.6006 278.1233,79.4526 278.1233,52.3836 L278.1233,52.3826 C278.1233,25.3136 300.2713,3.1656 327.3413,3.1656 C354.4113,3.1656 376.5593,25.3136 376.5593,52.3826 L376.5593,52.3836 C376.5593,79.4526 354.4113,101.6006 327.3413,101.6006 Z M34.5298,222.9898 C15.4598,222.9898 -0.0002,207.5308 -0.0002,188.4598 L-0.0002,188.4528 C-0.0002,169.3828 15.4598,153.9238 34.5298,153.9238 L83.6098,153.9238 C106.5078,153.9238 125.0698,135.3608 125.0698,112.4638 L125.0698,112.4598 C125.0698,89.5618 106.5078,70.9998 83.6098,70.9998 L71.4888,70.9998 C52.1588,70.9998 36.4888,55.3298 36.4888,35.9998 C36.4888,16.6698 52.1588,0.9998 71.4888,0.9998 L211.1358,0.9998 C240.4068,0.9998 264.1358,24.7288 264.1358,53.9998 L264.1358,64.5718 C264.1358,93.8428 287.8648,117.5718 317.1358,117.5718 L334.1808,117.5718 C363.2908,117.5718 386.8898,141.1698 386.8898,170.2808 C386.8898,199.3908 363.2908,222.9898 334.1808,222.9898 L34.5298,222.9898 Z"/>
    <path fill="#4F545C" d="M367.3057 183.0533C367.3057 183.6053 366.8577 184.0533 366.3057 184.0533 365.7537 184.0533 365.3057 183.6053 365.3057 183.0533L365.3057 182.1113C365.3057 181.5593 365.7537 181.1113 366.3057 181.1113 366.8577 181.1113 367.3057 181.5593 367.3057 182.1113L367.3057 183.0533zM363.5387 183.0533C363.5387 183.6053 363.0917 184.0533 362.5387 184.0533 361.9867 184.0533 361.5387 183.6053 361.5387 183.0533L361.5387 182.1113C361.5387 181.5593 361.9867 181.1113 362.5387 181.1113 363.0917 181.1113 363.5387 181.5593 363.5387 182.1113L363.5387 183.0533zM366.2977 179.8163L362.5317 179.8163C361.0057 179.8163 359.7647 181.0563 359.7647 182.5823 359.7647 184.1073 361.0057 185.3483 362.5317 185.3483L366.2977 185.3483C367.8227 185.3483 369.0637 184.1073 369.0637 182.5823 369.0637 181.0563 367.8227 179.8163 366.2977 179.8163L366.2977 179.8163zM367.3057 170.8125C367.3057 171.3645 366.8577 171.8125 366.3057 171.8125 365.7537 171.8125 365.3057 171.3645 365.3057 170.8125L365.3057 169.8715C365.3057 169.3185 365.7537 168.8715 366.3057 168.8715 366.8577 168.8715 367.3057 169.3185 367.3057 169.8715L367.3057 170.8125zM363.5387 170.8125C363.5387 171.3645 363.0917 171.8125 362.5387 171.8125 361.9867 171.8125 361.5387 171.3645 361.5387 170.8125L361.5387 169.8715C361.5387 169.3185 361.9867 168.8715 362.5387 168.8715 363.0917 168.8715 363.5387 169.3185 363.5387 169.8715L363.5387 170.8125zM366.2977 167.5755L362.5317 167.5755C361.0057 167.5755 359.7647 168.8165 359.7647 170.3415 359.7647 171.8675 361.0057 173.1075 362.5317 173.1075L366.2977 173.1075C367.8227 173.1075 369.0637 171.8675 369.0637 170.3415 369.0637 168.8165 367.8227 167.5755 366.2977 167.5755L366.2977 167.5755z"/>
    <path fill="#36393E" d="M120.5137 189.6446C120.5137 190.1966 120.0657 190.6446 119.5137 190.6446L111.9807 190.6446 109.1567 190.6446 93.1497 190.6446C92.5967 190.6446 92.1497 190.1966 92.1497 189.6446L92.1497 146.3316C92.1497 145.7796 92.5967 145.3316 93.1497 145.3316L109.1567 145.3316 111.9807 145.3316 119.5137 145.3316C120.0657 145.3316 120.5137 145.7796 120.5137 146.3316L120.5137 189.6446zM125.7167 132.1076C125.7167 132.6596 125.2687 133.1076 124.7167 133.1076L50.2997 133.1076 50.2997 211.3596 128.4237 211.3596 128.4237 132.1076 125.7167 132.1076zM183.7446 14.3741L172.6336 14.3741 149.4796 132.3001C149.3876 132.7691 148.9766 133.1071 148.4986 133.1071L130.4236 133.1071 130.4236 211.3591 182.3086 211.3591 182.3086 156.1791C182.3086 155.6271 182.7566 155.1791 183.3086 155.1791L183.3086 151.5301 160.2046 151.5301C159.6526 151.5301 159.2046 151.0821 159.2046 150.5301L159.2046 122.2821C159.2046 121.7301 159.6526 121.2821 160.2046 121.2821 160.7576 121.2821 161.2046 121.7301 161.2046 122.2821L163.9126 122.2821C163.9126 121.7301 164.3606 121.2821 164.9126 121.2821L166.2026 121.2821C166.7546 121.2821 167.2026 121.7301 167.2026 122.2821L167.9366 122.2821C167.9366 121.7301 168.3846 121.2821 168.9366 121.2821L174.7766 121.2821 174.7766 113.8171C171.5836 113.3321 169.1266 110.5771 169.1266 107.2511 169.1266 103.5841 172.1096 100.6021 175.7766 100.6021 179.4426 100.6021 182.4256 103.5841 182.4256 107.2511 182.4256 110.5771 179.9686 113.3321 176.7766 113.8171L176.7766 121.2821 182.3086 121.2821 182.3086 118.4551C182.3086 116.8651 183.6016 115.5711 185.1916 115.5711L189.7016 115.5711 209.6026 46.3871 188.4526 46.3871C187.8996 46.3871 187.4526 45.9391 187.4526 45.3871L187.4526 13.3741 184.7446 13.3741C184.7446 13.9261 184.2966 14.3741 183.7446 14.3741M129.4238 222.9898L182.3088 222.9898 182.3088 213.3598 130.4238 213.3598 130.4238 219.5778C130.4238 220.1308 129.9758 220.5778 129.4238 220.5778L129.4238 222.9898zM83.4932 115.6231L95.8002 52.9401 84.9372 52.9401 74.2362 107.4441C74.1422 107.9211 73.7232 108.2511 73.2552 108.2511 73.1912 108.2511 73.1272 108.2461 73.0612 108.2331 72.9662 108.2141 72.8852 108.1681 72.8032 108.1251L71.3042 115.7581C73.2482 114.9791 75.3642 114.5391 77.5832 114.5391 79.6642 114.5391 81.6502 114.9341 83.4932 115.6231M207.8481 118.4546L207.8481 121.2826 216.2951 121.2826 216.2951 113.8166C213.1021 113.3316 210.6451 110.5766 210.6451 107.2506 210.6451 103.5846 213.6281 100.6016 217.2951 100.6016 220.9611 100.6016 223.9441 103.5846 223.9441 107.2506 223.9441 110.5766 221.4871 113.3316 218.2951 113.8166L218.2951 121.2826 224.6801 121.2826 224.6801 118.4546C224.6801 116.8646 225.9731 115.5716 227.5621 115.5716L233.2121 115.5716C234.8021 115.5716 236.0951 116.8646 236.0951 118.4546L236.0951 121.2826 238.8031 121.2826 238.8031 118.4546C238.8031 116.8646 240.0971 115.5716 241.6861 115.5716L247.3351 115.5716C248.9251 115.5716 250.2191 116.8646 250.2191 118.4546L250.2191 121.2826 252.4791 121.2826 278.5961 121.2826 300.1411 46.3876 280.7261 46.3876 222.0411 46.3876 202.1391 115.5716 204.9651 115.5716C206.5551 115.5716 207.8481 116.8646 207.8481 118.4546"/>
    <path fill="#72767D" d="M293.0166,141.8462 L294.3806,137.2412 C294.4556,136.9872 294.6286,136.7732 294.8626,136.6462 C295.0956,136.5202 295.3686,136.4912 295.6236,136.5662 L314.0246,142.0172 C315.7006,139.8132 316.7076,137.0742 316.7076,134.0972 C316.7076,126.8612 310.8206,120.9742 303.5846,120.9742 C296.3486,120.9742 290.4606,126.8612 290.4606,134.0972 C290.4606,136.9972 291.4176,139.6712 293.0166,141.8462"/>
    <polygon fill="#36393E" points="236.095 194.725 243.511 194.725 243.511 162.829 236.095 162.829"/>
    <polygon fill="#4F545C" points="196.043 37.796 273.135 37.796 273.135 20.964 196.043 20.964"/>
    <path fill="#4F545C" d="M207.3188 190.6387L201.6698 190.6387C201.1168 190.6387 200.6698 190.1907 200.6698 189.6387L200.6698 183.0477C200.6698 182.4947 201.1168 182.0477 201.6698 182.0477L207.3188 182.0477C207.8708 182.0477 208.3188 182.4947 208.3188 183.0477L208.3188 189.6387C208.3188 190.1907 207.8708 190.6387 207.3188 190.6387L207.3188 190.6387zM211.5868 178.7767C211.5868 178.6287 211.6238 178.4907 211.6808 178.3647L198.8448 178.3647C198.2928 178.3647 197.8448 177.9167 197.8448 177.3647L197.8448 167.0077C197.8448 166.4547 198.2928 166.0077 198.8448 166.0077L211.5868 166.0077 211.5868 162.8287 194.6658 162.8287 194.6658 194.7247 211.5868 194.7247 211.5868 178.7767zM216.6763 183.0474C216.6763 182.4954 217.1243 182.0474 217.6763 182.0474L226.1503 182.0474C226.7023 182.0474 227.1503 182.4954 227.1503 183.0474L227.1503 189.6384C227.1503 190.1914 226.7023 190.6384 226.1503 190.6384L217.6763 190.6384C217.1243 190.6384 216.6763 190.1914 216.6763 189.6384L216.6763 183.0474zM213.5873 194.7254L230.8583 194.7254 234.0953 194.7254 234.0953 162.8284 230.8583 162.8284 213.5873 162.8284 213.5873 166.0074 229.9163 166.0074C230.4683 166.0074 230.9163 166.4554 230.9163 167.0074L230.9163 177.3644C230.9163 177.9164 230.4683 178.3644 229.9163 178.3644L213.4923 178.3644C213.5503 178.4904 213.5873 178.6284 213.5873 178.7764L213.5873 194.7254z"/>
    <polygon fill="#4F545C" points="296.014 138.768 292.838 149.49 324.324 158.816 327.5 148.095"/>
    <polygon fill="#4F545C" points="112.981 188.645 118.514 188.645 118.514 147.332 112.981 147.332"/>
    <path fill="#72767D" d="M104.5068,162.3389 C104.5068,162.8909 104.0588,163.3389 103.5068,163.3389 L99.7408,163.3389 C99.1888,163.3389 98.7408,162.8909 98.7408,162.3389 L98.7408,152.9229 C98.7408,152.3709 99.1888,151.9229 99.7408,151.9229 L103.5068,151.9229 C104.0588,151.9229 104.5068,152.3709 104.5068,152.9229 L104.5068,162.3389 Z M104.5068,183.4849 C104.5068,184.0369 104.0588,184.4849 103.5068,184.4849 L99.7408,184.4849 C99.1888,184.4849 98.7408,184.0369 98.7408,183.4849 L98.7408,174.0689 C98.7408,173.5169 99.1888,173.0689 99.7408,173.0689 L103.5068,173.0689 C104.0588,173.0689 104.5068,173.5169 104.5068,174.0689 L104.5068,183.4849 Z M110.9808,188.6449 L110.9808,147.3319 L109.1558,147.3319 L94.1498,147.3319 L94.1498,188.6449 L109.1558,188.6449 L110.9808,188.6449 Z"/>
    <polygon fill="#4F545C" points="100.741 161.339 102.507 161.339 102.507 153.923 100.741 153.923"/>
    <polygon fill="#4F545C" points="100.741 182.484 102.507 182.484 102.507 175.068 100.741 175.068"/>
    <path fill="#4F545C" d="M361.0991,231.8365 C361.0991,232.4675 361.6131,232.9815 362.2441,232.9815 L366.6041,232.9815 L366.6041,230.6915 L362.2441,230.6915 C361.6131,230.6915 361.0991,231.2055 361.0991,231.8365"/>
    <path fill="#72767D" d="M171.127 107.251C171.127 109.814 173.213 111.9 175.776 111.9 178.34 111.9 180.426 109.814 180.426 107.251 180.426 104.688 178.34 102.602 175.776 102.602 173.213 102.602 171.127 104.688 171.127 107.251M217.2949 111.9004C219.8579 111.9004 221.9439 109.8144 221.9439 107.2514 221.9439 104.6874 219.8579 102.6014 217.2949 102.6014 214.7319 102.6014 212.6459 104.6874 212.6459 107.2514 212.6459 109.8144 214.7319 111.9004 217.2949 111.9004"/>
    <path fill="#4F545C" d="M190.8413 117.5713L185.1923 117.5713C184.7053 117.5713 184.3083 117.9673 184.3083 118.4543L184.3083 121.2823 191.7243 121.2823 191.7243 118.4543C191.7243 117.9673 191.3283 117.5713 190.8413 117.5713M198.4326 121.2823L205.8486 121.2823 205.8486 118.4543C205.8486 117.9683 205.4516 117.5713 204.9646 117.5713L199.3156 117.5713C198.8286 117.5713 198.4326 117.9683 198.4326 118.4543L198.4326 121.2823zM234.0952 121.2823L234.0952 118.4543C234.0952 117.9683 233.6992 117.5713 233.2122 117.5713L227.5622 117.5713C227.0752 117.5713 226.6792 117.9683 226.6792 118.4543L226.6792 121.2823 234.0952 121.2823zM248.2187 121.2823L248.2187 118.4543C248.2187 117.9683 247.8227 117.5713 247.3357 117.5713L241.6857 117.5713C241.1987 117.5713 240.8027 117.9683 240.8027 118.4543L240.8027 121.2823 248.2187 121.2823zM109.9312 125.0088C106.8482 125.0088 104.3402 127.5168 104.3402 130.5998L104.3402 131.1078 115.5222 131.1078 115.5222 130.5998C115.5222 127.5168 113.0142 125.0088 109.9312 125.0088"/>
    <path fill="#72767D" d="M77.5835,116.5386 C69.4685,116.5386 62.8585,123.0416 62.6555,131.1076 L92.5115,131.1076 C92.3085,123.0416 85.6975,116.5386 77.5835,116.5386"/>
    <path fill="#4F545C" d="M168.937,123.2823 C168.385,123.2823 167.937,122.8343 167.937,122.2823 L167.202,122.2823 C167.202,122.8343 166.754,123.2823 166.202,123.2823 L164.913,123.2823 C164.361,123.2823 163.913,122.8343 163.913,122.2823 L161.205,122.2823 L161.205,149.5303 L251.479,149.5303 L251.479,123.2823 L168.937,123.2823 Z"/>
    <path fill="#1F2225" d="M280.7266 31.834L280.7266 31.834C280.1746 31.834 279.7266 32.282 279.7266 32.834L279.7266 33.147C279.7266 33.699 280.1746 34.147 280.7266 34.147L280.7266 34.147C281.2786 34.147 281.7266 33.699 281.7266 33.147L281.7266 32.834C281.7266 32.282 281.2786 31.834 280.7266 31.834M264.7197 37.7964L204.4587 37.7964C199.8117 37.7964 196.0437 34.0284 196.0437 29.3804L196.0437 29.3804C196.0437 24.7334 199.8117 20.9644 204.4587 20.9644L264.7197 20.9644C269.3667 20.9644 273.1357 24.7334 273.1357 29.3804L273.1357 29.3804C273.1357 34.0284 269.3667 37.7964 264.7197 37.7964M274.1357 18.9644L195.0437 18.9644C194.4907 18.9644 194.0437 19.4124 194.0437 19.9644L194.0437 38.7964C194.0437 39.3484 194.4907 39.7964 195.0437 39.7964L274.1357 39.7964C274.6877 39.7964 275.1357 39.3484 275.1357 38.7964L275.1357 19.9644C275.1357 19.4124 274.6877 18.9644 274.1357 18.9644M243.5107 191.0171C243.5107 193.0651 241.8507 194.7251 239.8027 194.7251 237.7557 194.7251 236.0947 193.0651 236.0947 191.0171L236.0947 166.5371C236.0947 164.4891 237.7557 162.8291 239.8027 162.8291 241.8507 162.8291 243.5107 164.4891 243.5107 166.5371L243.5107 191.0171zM234.0947 191.7251C234.0947 193.3821 232.7517 194.7251 231.0947 194.7251L230.8587 194.7251 213.5867 194.7251 213.5867 181.3641C213.5867 179.7071 214.9297 178.3641 216.5867 178.3641L229.9167 178.3641C230.4687 178.3641 230.9167 177.9161 230.9167 177.3641L230.9167 167.0071C230.9167 166.4551 230.4687 166.0071 229.9167 166.0071L215.5867 166.0071C214.4827 166.0071 213.5867 165.1121 213.5867 164.0071L213.5867 162.8291 230.8587 162.8291 231.0947 162.8291C232.7517 162.8291 234.0947 164.1721 234.0947 165.8291L234.0947 191.7251zM213.4927 178.3641L213.5157 178.3641C213.5087 178.3781 213.5007 178.3821 213.4927 178.3641L213.4927 178.3641zM199.8447 175.3641L199.8447 169.0071C199.8447 168.4551 200.2927 168.0071 200.8447 168.0071L227.9167 168.0071C228.4687 168.0071 228.9167 168.4551 228.9167 169.0071L228.9167 175.3641C228.9167 175.9161 228.4687 176.3641 227.9167 176.3641L200.8447 176.3641C200.2927 176.3641 199.8447 175.9161 199.8447 175.3641L199.8447 175.3641zM194.6657 192.7251L194.6657 164.8291C194.6657 163.7241 195.5617 162.8291 196.6657 162.8291L211.5867 162.8291 211.5867 164.0071C211.5867 165.1121 210.6917 166.0071 209.5867 166.0071L198.8447 166.0071C198.2927 166.0071 197.8447 166.4551 197.8447 167.0071L197.8447 177.3641C197.8447 177.9161 198.2927 178.3641 198.8447 178.3641L208.5867 178.3641C210.2437 178.3641 211.5867 179.7071 211.5867 181.3641L211.5867 194.7251 196.6657 194.7251C195.5617 194.7251 194.6657 193.8301 194.6657 192.7251L194.6657 192.7251zM244.5107 160.8291L235.0947 160.8291 230.8587 160.8291 193.6657 160.8291C193.1137 160.8291 192.6657 161.2761 192.6657 161.8291L192.6657 195.7251C192.6657 196.2771 193.1137 196.7251 193.6657 196.7251L230.8587 196.7251 235.0947 196.7251 244.5107 196.7251C245.0627 196.7251 245.5107 196.2771 245.5107 195.7251L245.5107 161.8291C245.5107 161.2761 245.0627 160.8291 244.5107 160.8291L244.5107 160.8291z"/>
    <path fill="#1F2225" d="M202.67 188.639L206.319 188.639 206.319 184.048 202.67 184.048 202.67 188.639zM207.319 182.047L201.669 182.047C201.117 182.047 200.669 182.495 200.669 183.047L200.669 189.639C200.669 190.191 201.117 190.639 201.669 190.639L207.319 190.639C207.871 190.639 208.319 190.191 208.319 189.639L208.319 183.047C208.319 182.495 207.871 182.047 207.319 182.047L207.319 182.047zM218.676 188.639L225.15 188.639 225.15 184.048 218.676 184.048 218.676 188.639zM226.15 182.047L217.676 182.047C217.124 182.047 216.676 182.495 216.676 183.047L216.676 189.639C216.676 190.191 217.124 190.639 217.676 190.639L226.15 190.639C226.703 190.639 227.15 190.191 227.15 189.639L227.15 183.047C227.15 182.495 226.703 182.047 226.15 182.047L226.15 182.047zM305.9219 121.1773C311.0629 122.0703 315.2629 126.0703 316.3849 131.1653 317.1699 134.7303 316.4769 138.1083 314.8219 140.8443 314.3929 141.5523 313.5269 141.8693 312.7329 141.6343L295.6239 136.5663C295.3689 136.4913 295.0949 136.5203 294.8619 136.6463 294.6289 136.7733 294.4559 136.9873 294.3799 137.2413 293.8509 139.0283 291.2739 138.9933 290.8319 137.1833 290.5899 136.1943 290.4609 135.1613 290.4609 134.0973 290.4609 126.0953 297.6599 119.7433 305.9219 121.1773L305.9219 121.1773zM327.5009 148.0943L324.3239 158.8163 292.8389 149.4893 296.0139 138.7683 327.5009 148.0943zM288.4669 133.6733C288.3699 137.1743 289.4789 140.4093 291.3969 143.0163 291.9619 143.7833 292.1529 144.7603 291.8829 145.6733L290.6369 149.8803C290.4799 150.4103 290.7819 150.9663 291.3119 151.1233L324.7149 161.0183C324.8099 161.0463 324.9049 161.0593 324.9999 161.0593 325.4309 161.0593 325.8289 160.7783 325.9579 160.3433L329.7019 147.7043C329.7769 147.4493 329.7489 147.1763 329.6219 146.9433 329.4959 146.7093 329.2809 146.5363 329.0269 146.4613L319.5709 143.6593C317.8599 143.1533 317.0019 141.2883 317.6579 139.6293 318.3349 137.9153 318.7079 136.0503 318.7079 134.0973 318.7079 125.5213 311.5319 118.5893 302.8689 118.9903 295.0579 119.3523 288.6839 125.8563 288.4669 133.6733L288.4669 133.6733zM10.4683 222.9898L9.3853 222.9898C8.8333 222.9898 8.3853 223.4378 8.3853 223.9898 8.3853 224.5418 8.8333 224.9898 9.3853 224.9898L10.4683 224.9898C11.0203 224.9898 11.4683 224.5418 11.4683 223.9898 11.4683 223.4378 11.0203 222.9898 10.4683 222.9898"/>
    <path fill="#1F2225" d="M362.2437,230.6919 L365.4647,230.6919 C366.0947,230.6919 366.6047,231.2019 366.6047,231.8319 L366.6047,231.8409 C366.6047,232.4709 366.0947,232.9809 365.4647,232.9809 L362.2437,232.9809 C361.6127,232.9809 361.0987,232.4669 361.0987,231.8369 C361.0987,231.2059 361.6127,230.6919 362.2437,230.6919 L362.2437,230.6919 Z M334.4547,213.9899 L334.4547,184.8519 C334.4547,181.9169 338.2207,180.7369 339.9187,183.1309 C340.8337,184.4209 341.3717,185.9949 341.3717,187.6929 L341.3717,214.1089 C341.3717,217.3209 342.1867,220.3449 343.6167,222.9899 L343.4547,222.9899 C338.4837,222.9899 334.4547,218.9609 334.4547,213.9899 L334.4547,213.9899 Z M305.4547,222.9899 L303.5827,222.9899 C288.6717,222.9899 276.5827,210.9009 276.5827,195.9899 L276.5827,150.5299 C276.5827,149.9779 276.1357,149.5299 275.5827,149.5299 L257.4787,149.5299 C255.2697,149.5299 253.4787,147.7389 253.4787,145.5299 L253.4787,127.2819 C253.4787,125.0729 255.2697,123.2819 257.4787,123.2819 L279.3487,123.2819 C279.7947,123.2819 280.1867,122.9869 280.3097,122.5589 L302.4307,45.6639 C302.5167,45.3619 302.4567,45.0369 302.2677,44.7859 C302.0787,44.5349 301.7837,44.3869 301.4697,44.3869 L286.7267,44.3869 C283.9657,44.3869 281.7267,42.1489 281.7267,39.3869 L281.7267,36.5999 C281.7267,36.0469 281.2787,35.5999 280.7267,35.5999 L280.7257,35.5999 C280.1747,35.5999 279.7267,36.0469 279.7267,36.5999 L279.7267,42.3869 C279.7267,43.4919 278.8307,44.3869 277.7267,44.3869 L191.4517,44.3869 C190.3477,44.3869 189.4517,43.4919 189.4517,42.3869 L189.4517,16.3739 C189.4517,15.2699 190.3477,14.3739 191.4517,14.3739 L277.7267,14.3739 C278.8307,14.3739 279.7267,15.2699 279.7267,16.3739 L279.7267,26.8699 C279.7267,27.4219 280.1747,27.8699 280.7257,27.8699 L280.7267,27.8699 C281.2787,27.8699 281.7267,27.4219 281.7267,26.8699 L281.7267,19.3739 C281.7267,16.6129 283.9657,14.3739 286.7267,14.3739 L326.4547,14.3739 C329.7677,14.3739 332.4547,17.0609 332.4547,20.3739 L332.4547,195.9899 C332.4547,210.9009 320.3667,222.9899 305.4547,222.9899 L305.4547,222.9899 Z M217.2947,111.8999 C214.7317,111.8999 212.6457,109.8149 212.6457,107.2509 C212.6457,104.6879 214.7317,102.6019 217.2947,102.6019 C219.8587,102.6019 221.9447,104.6879 221.9447,107.2509 C221.9447,109.8149 219.8587,111.8999 217.2947,111.8999 L217.2947,111.8999 Z M250.2187,121.2819 L250.2187,118.4549 C250.2187,116.8619 248.9277,115.5709 247.3357,115.5709 L241.6857,115.5709 C240.0937,115.5709 238.8037,116.8619 238.8037,118.4539 L238.8037,121.2819 L236.0957,121.2819 L236.0957,118.4549 C236.0957,116.8619 234.8047,115.5709 233.2117,115.5709 L227.5627,115.5709 C225.9707,115.5709 224.6797,116.8619 224.6797,118.4539 L224.6797,121.2819 L221.2947,121.2819 C219.6387,121.2819 218.2947,119.9389 218.2947,118.2819 L218.2947,113.8169 C221.8237,113.2809 224.4537,109.9719 223.8607,106.1839 C223.4377,103.4839 221.3187,101.2609 218.6367,100.7339 C214.3857,99.8979 210.6457,103.1459 210.6457,107.2509 C210.6457,110.5769 213.1027,113.3319 216.2947,113.8169 L216.2947,118.2819 C216.2947,119.9389 214.9517,121.2819 213.2947,121.2819 L207.8477,121.2819 L207.8477,118.4549 C207.8477,116.8619 206.5567,115.5709 204.9647,115.5709 L202.1397,115.5709 L219.5437,55.0699 C221.0227,49.9289 225.7257,46.3869 231.0757,46.3869 L280.7267,46.3869 L284.2027,46.3869 C292.1837,46.3869 297.9417,54.0339 295.7347,61.7049 L282.3427,108.2579 C280.1237,115.9699 273.0687,121.2819 265.0447,121.2819 L252.4787,121.2819 L250.2187,121.2819 Z M248.2187,121.2819 L240.8037,121.2819 L240.8037,118.4549 C240.8037,117.9679 241.1997,117.5709 241.6857,117.5709 L247.3357,117.5709 C247.8227,117.5709 248.2187,117.9679 248.2187,118.4549 L248.2187,121.2819 Z M234.0957,121.2819 L226.6797,121.2819 L226.6797,118.4549 C226.6797,117.9679 227.0757,117.5709 227.5627,117.5709 L233.2117,117.5709 C233.6987,117.5709 234.0957,117.9679 234.0957,118.4549 L234.0957,121.2819 Z M205.8477,121.2819 L198.4327,121.2819 L198.4327,118.4549 C198.4327,117.9679 198.8287,117.5709 199.3157,117.5709 L204.9647,117.5709 C205.4517,117.5709 205.8477,117.9679 205.8477,118.4549 L205.8477,121.2819 Z M196.4327,118.4549 L196.4327,121.2819 L193.7247,121.2819 L193.7247,118.4549 C193.7247,117.1789 192.8867,116.1079 191.7367,115.7279 L211.6837,46.3869 L219.9607,46.3869 L200.0587,115.5709 L199.3157,115.5709 C197.7257,115.5709 196.4327,116.8649 196.4327,118.4549 L196.4327,118.4549 Z M191.7247,121.2819 L184.3087,121.2819 L184.3087,118.4549 C184.3087,117.9679 184.7047,117.5709 185.1917,117.5709 L190.8417,117.5709 C191.3277,117.5709 191.7247,117.9679 191.7247,118.4549 L191.7247,121.2819 Z M182.3087,218.1749 C182.3087,220.8339 180.1527,222.9899 177.4937,222.9899 L129.4237,222.9899 L35.9217,222.9899 C33.2627,222.9899 31.1067,220.8339 31.1067,218.1749 L31.1067,218.1739 C31.1067,215.5149 33.2627,213.3589 35.9217,213.3589 L126.4237,213.3589 C127.5287,213.3589 128.4237,214.2549 128.4237,215.3589 L128.4237,219.5779 C128.4237,220.1299 128.8717,220.5779 129.4237,220.5779 C129.9757,220.5779 130.4237,220.1299 130.4237,219.5779 L130.4237,215.3589 C130.4237,214.2549 131.3197,213.3589 132.4237,213.3589 L177.4937,213.3589 C180.1527,213.3589 182.3087,215.5149 182.3087,218.1739 L182.3087,218.1749 Z M115.5217,131.1079 L104.3397,131.1079 L104.3397,130.5999 C104.3397,127.5169 106.8477,125.0089 109.9317,125.0089 C113.0147,125.0089 115.5217,127.5169 115.5217,130.5999 L115.5217,131.1079 Z M50.2997,135.1079 C50.2997,134.0029 51.1957,133.1079 52.2997,133.1079 L124.7167,133.1079 C125.2687,133.1079 125.7167,132.6599 125.7167,132.1079 C125.7157,131.5549 125.2687,131.1079 124.7167,131.1079 L117.7627,131.1079 C117.6297,131.1079 117.5217,130.9999 117.5217,130.8669 L117.5217,130.8639 C117.5217,127.2569 115.1287,123.9449 111.6017,123.1889 C106.6907,122.1339 102.3397,125.8689 102.3397,130.5999 L102.3397,131.1079 L98.1027,131.1079 C96.2267,131.1079 94.5397,129.8359 94.1547,127.9999 C93.0997,122.9699 89.8097,118.7579 85.3697,116.4489 L97.2047,56.1699 C97.5737,54.2929 99.2187,52.9399 101.1297,52.9399 L158.1607,52.9399 C160.6797,52.9399 162.5717,55.2389 162.0867,57.7109 L147.6757,131.1079 L129.4237,131.1079 C128.8717,131.1079 128.4237,131.5549 128.4237,132.1079 L128.4237,209.3589 C128.4237,210.4639 127.5287,211.3589 126.4237,211.3589 L52.2997,211.3589 C51.1957,211.3589 50.2997,210.4639 50.2997,209.3589 L50.2997,135.1079 Z M77.5837,116.5389 C85.6977,116.5389 92.3077,123.0419 92.5117,131.1079 L62.6557,131.1079 C62.8587,123.0419 69.4687,116.5389 77.5837,116.5389 L77.5837,116.5389 Z M87.2027,41.3989 L90.9247,22.4469 C91.8457,17.7569 95.9567,14.3739 100.7367,14.3739 L157.2247,14.3739 C164.1507,14.3739 169.3537,20.6969 168.0187,27.4929 L165.9517,38.0229 C164.4787,45.5269 157.8997,50.9399 150.2517,50.9399 L95.0537,50.9399 C90.0167,50.9399 86.2327,46.3409 87.2027,41.3989 L87.2027,41.3989 Z M171.1267,107.2509 C171.1267,104.6879 173.2127,102.6019 175.7767,102.6019 C178.3397,102.6019 180.4257,104.6879 180.4257,107.2509 C180.4257,109.8149 178.3397,111.8999 175.7767,111.8999 C173.2127,111.8999 171.1267,109.8149 171.1267,107.2509 L171.1267,107.2509 Z M385.8897,222.9899 L345.9497,222.9899 C344.3267,220.4129 343.3717,217.3739 343.3717,214.1089 L343.3717,187.6929 C343.3717,183.8309 341.1517,180.4769 337.9197,178.8399 C335.8397,177.7869 334.4547,175.7349 334.4547,173.4039 L334.4547,18.3739 C334.4547,15.0609 331.7677,12.3739 328.4547,12.3739 L280.7267,12.3739 L188.4517,12.3739 C187.8997,12.3739 187.4517,12.8219 187.4517,13.3739 L187.4517,45.3869 C187.4517,45.9399 187.8997,46.3869 188.4517,46.3869 L206.9467,46.3869 C208.2767,46.3869 209.2367,47.6619 208.8687,48.9399 L189.7017,115.5709 L185.1917,115.5709 C183.5997,115.5709 182.3087,116.8619 182.3087,118.4549 L182.3087,121.2819 L179.7767,121.2819 C178.1197,121.2819 176.7767,119.9389 176.7767,118.2819 L176.7767,113.8169 C180.3057,113.2809 182.9357,109.9699 182.3417,106.1819 C181.9177,103.4829 179.7987,101.2609 177.1187,100.7339 C172.8667,99.8979 169.1267,103.1459 169.1267,107.2509 C169.1267,110.5769 171.5837,113.3319 174.7767,113.8169 L174.7767,118.2819 C174.7767,119.9389 173.4327,121.2819 171.7767,121.2819 L168.9367,121.2819 C168.3847,121.2819 167.9367,121.7299 167.9367,122.2819 C167.9367,122.8349 168.3847,123.2819 168.9367,123.2819 L251.4787,123.2819 L251.4787,144.5299 C251.4787,147.2909 249.2407,149.5299 246.4787,149.5299 L166.2047,149.5299 C163.4437,149.5299 161.2047,147.2909 161.2047,144.5299 L161.2047,122.2819 C161.2047,121.7299 160.7577,121.2819 160.2047,121.2819 C159.6527,121.2819 159.2047,121.7299 159.2047,122.2819 L159.2047,150.5299 C159.2047,151.0819 159.6527,151.5299 160.2047,151.5299 L183.3087,151.5299 L252.4787,151.5299 L272.5827,151.5299 C273.6877,151.5299 274.5827,152.4249 274.5827,153.5299 L274.5827,220.9899 C274.5827,222.0939 273.6877,222.9899 272.5827,222.9899 L186.3087,222.9899 C185.2037,222.9899 184.3087,222.0939 184.3087,220.9899 L184.3087,156.1789 C184.3087,155.6269 183.8607,155.1789 183.3087,155.1789 C182.7567,155.1789 182.3087,155.6269 182.3087,156.1789 L182.3087,211.3589 L134.4237,211.3589 C132.2147,211.3589 130.4237,209.5679 130.4237,207.3589 L130.4237,133.1079 L148.4987,133.1079 C148.9767,133.1079 149.3877,132.7689 149.4797,132.2999 L171.6827,19.2179 C172.2347,16.4039 174.7017,14.3739 177.5697,14.3739 L183.7447,14.3739 C184.2967,14.3739 184.7447,13.9259 184.7447,13.3739 C184.7447,12.8219 184.2967,12.3739 183.7447,12.3739 L91.6867,12.3739 C91.2087,12.3739 90.7977,12.7129 90.7047,13.1809 L72.2727,107.0589 C72.1847,107.5049 72.4187,107.9259 72.8027,108.1259 C72.8847,108.1689 72.9657,108.2139 73.0617,108.2329 C73.1267,108.2459 73.1917,108.2519 73.2557,108.2519 C73.7237,108.2519 74.1417,107.9209 74.2357,107.4439 L84.0927,57.2429 C84.5827,54.7429 86.7747,52.9399 89.3227,52.9399 C92.6787,52.9399 95.1987,56.0039 94.5527,59.2969 L83.4937,115.6229 C81.6497,114.9339 79.6637,114.5389 77.5837,114.5389 C75.3637,114.5389 73.2487,114.9789 71.3037,115.7579 C66.0997,117.8439 62.1687,122.4339 61.0057,128.0319 C60.6287,129.8459 58.9667,131.1079 57.1147,131.1079 L49.2997,131.1079 C48.7477,131.1079 48.2997,131.5549 48.2997,132.1079 L48.2997,201.3589 C48.2997,206.8819 43.8227,211.3589 38.2997,211.3589 L30.1067,211.3589 C29.5547,211.3589 29.1067,211.8069 29.1067,212.3589 L29.1067,212.9899 C29.1067,218.5129 24.6297,222.9899 19.1067,222.9899 L15.6737,222.9899 C15.1207,222.9899 14.6737,223.4379 14.6737,223.9899 C14.6737,224.5419 15.1207,224.9899 15.6737,224.9899 L344.8867,224.9899 C348.1347,229.5179 353.3427,232.5309 359.2647,232.7939 C359.6717,234.0579 360.8457,234.9809 362.2437,234.9809 L367.6047,234.9809 L370.2857,234.9809 C370.8377,234.9809 371.2857,234.5329 371.2857,233.9809 C371.2857,233.4289 370.8377,232.9809 370.2857,232.9809 L369.7447,232.9809 C369.1147,232.9809 368.6047,232.4709 368.6047,231.8409 L368.6047,231.8319 C368.6047,231.2019 369.1147,230.6919 369.7447,230.6919 L370.2857,230.6919 C370.8377,230.6919 371.2857,230.2439 371.2857,229.6919 C371.2857,229.1399 370.8377,228.6919 370.2857,228.6919 L367.6047,228.6919 L362.2437,228.6919 C360.8767,228.6919 359.7227,229.5739 359.2897,230.7959 C354.5507,230.5669 350.3257,228.3699 347.4207,224.9899 L385.8897,224.9899 C386.4417,224.9899 386.8897,224.5419 386.8897,223.9899 C386.8897,223.4379 386.4417,222.9899 385.8897,222.9899 L385.8897,222.9899 Z"/>
    <path fill="#1F2225" d="M115.7476,188.6446 L115.7476,188.6446 C114.2196,188.6446 112.9806,187.4056 112.9806,185.8786 L112.9806,150.0986 C112.9806,148.5706 114.2196,147.3316 115.7476,147.3316 L115.7476,147.3316 C117.2746,147.3316 118.5136,148.5706 118.5136,150.0986 L118.5136,185.8786 C118.5136,187.4056 117.2746,188.6446 115.7476,188.6446 L115.7476,188.6446 Z M110.9806,186.8246 C110.9806,187.8296 110.1656,188.6446 109.1616,188.6446 L109.1566,188.6446 L95.9696,188.6446 C94.9646,188.6446 94.1496,187.8296 94.1496,186.8246 L94.1496,149.1516 C94.1496,148.1466 94.9646,147.3316 95.9696,147.3316 L109.1566,147.3316 L109.1616,147.3316 C110.1656,147.3316 110.9806,148.1466 110.9806,149.1516 L110.9806,186.8246 Z M119.5136,145.3316 L111.9806,145.3316 L109.1566,145.3316 L93.1496,145.3316 C92.5976,145.3316 92.1496,145.7796 92.1496,146.3316 L92.1496,189.6446 C92.1496,190.1966 92.5976,190.6446 93.1496,190.6446 L109.1566,190.6446 L111.9806,190.6446 L119.5136,190.6446 C120.0656,190.6446 120.5136,190.1966 120.5136,189.6446 L120.5136,146.3316 C120.5136,145.7796 120.0656,145.3316 119.5136,145.3316 L119.5136,145.3316 Z"/>
    <path fill="#1F2225" d="M101.627 161.3389L101.621 161.3389C101.135 161.3389 100.741 160.9449 100.741 160.4589L100.741 154.8029C100.741 154.3179 101.135 153.9229 101.621 153.9229L101.627 153.9229C102.113 153.9229 102.507 154.3179 102.507 154.8029L102.507 160.4589C102.507 160.9449 102.113 161.3389 101.627 161.3389M103.507 151.9229L99.741 151.9229C99.189 151.9229 98.741 152.3709 98.741 152.9229L98.741 162.3389C98.741 162.8909 99.189 163.3389 99.741 163.3389L103.507 163.3389C104.059 163.3389 104.507 162.8909 104.507 162.3389L104.507 152.9229C104.507 152.3709 104.059 151.9229 103.507 151.9229M101.627 182.4844L101.621 182.4844C101.135 182.4844 100.741 182.0904 100.741 181.6044L100.741 175.9484C100.741 175.4634 101.135 175.0684 101.621 175.0684L101.627 175.0684C102.113 175.0684 102.507 175.4634 102.507 175.9484L102.507 181.6044C102.507 182.0904 102.113 182.4844 101.627 182.4844M103.507 173.0684L99.741 173.0684C99.189 173.0684 98.741 173.5164 98.741 174.0684L98.741 183.4844C98.741 184.0364 99.189 184.4844 99.741 184.4844L103.507 184.4844C104.059 184.4844 104.507 184.0364 104.507 183.4844L104.507 174.0684C104.507 173.5164 104.059 173.0684 103.507 173.0684M356.5859 161.9654L372.2419 161.9654C373.3469 161.9654 374.2419 162.8614 374.2419 163.9654L374.2419 189.0374C374.2419 190.1414 373.3469 191.0374 372.2419 191.0374L356.5859 191.0374C355.4819 191.0374 354.5859 190.1414 354.5859 189.0374L354.5859 163.9654C354.5859 162.8614 355.4819 161.9654 356.5859 161.9654M354.5859 193.0374L374.2419 193.0374C375.3469 193.0374 376.2419 192.1414 376.2419 191.0374L376.2419 161.9654C376.2419 160.8614 375.3469 159.9654 374.2419 159.9654L354.5859 159.9654C353.4819 159.9654 352.5859 160.8614 352.5859 161.9654L352.5859 191.0374C352.5859 192.1414 353.4819 193.0374 354.5859 193.0374"/>
    <path fill="#1F2225" d="M366.2974,173.108 L362.5314,173.108 C361.0054,173.108 359.7644,171.867 359.7644,170.342 C359.7644,168.816 361.0054,167.576 362.5314,167.576 L366.2974,167.576 C367.8224,167.576 369.0634,168.816 369.0634,170.342 C369.0634,171.867 367.8224,173.108 366.2974,173.108 M366.2974,165.576 L362.5314,165.576 C359.9024,165.576 357.7644,167.714 357.7644,170.342 C357.7644,172.97 359.9024,175.108 362.5314,175.108 L366.2974,175.108 C368.9254,175.108 371.0634,172.97 371.0634,170.342 C371.0634,167.714 368.9254,165.576 366.2974,165.576"/>
    <path fill="#1F2225" d="M362.5391 168.8711C361.9871 168.8711 361.5391 169.3191 361.5391 169.8711L361.5391 170.8121C361.5391 171.3651 361.9871 171.8121 362.5391 171.8121 363.0911 171.8121 363.5391 171.3651 363.5391 170.8121L363.5391 169.8711C363.5391 169.3191 363.0911 168.8711 362.5391 168.8711M366.3057 168.8711C365.7537 168.8711 365.3057 169.3191 365.3057 169.8711L365.3057 170.8121C365.3057 171.3651 365.7537 171.8121 366.3057 171.8121 366.8577 171.8121 367.3057 171.3651 367.3057 170.8121L367.3057 169.8711C367.3057 169.3191 366.8577 168.8711 366.3057 168.8711M366.2974 185.3487L362.5314 185.3487C361.0054 185.3487 359.7644 184.1077 359.7644 182.5817 359.7644 181.0567 361.0054 179.8157 362.5314 179.8157L366.2974 179.8157C367.8224 179.8157 369.0634 181.0567 369.0634 182.5817 369.0634 184.1077 367.8224 185.3487 366.2974 185.3487M366.2974 177.8157L362.5314 177.8157C359.9024 177.8157 357.7644 179.9537 357.7644 182.5817 357.7644 185.2107 359.9024 187.3487 362.5314 187.3487L366.2974 187.3487C368.9254 187.3487 371.0634 185.2107 371.0634 182.5817 371.0634 179.9537 368.9254 177.8157 366.2974 177.8157"/>
    <path fill="#1F2225" d="M362.5391 181.1114C361.9871 181.1114 361.5391 181.5594 361.5391 182.1114L361.5391 183.0534C361.5391 183.6054 361.9871 184.0534 362.5391 184.0534 363.0911 184.0534 363.5391 183.6054 363.5391 183.0534L363.5391 182.1114C363.5391 181.5594 363.0911 181.1114 362.5391 181.1114M366.3057 181.1114C365.7537 181.1114 365.3057 181.5594 365.3057 182.1114L365.3057 183.0534C365.3057 183.6054 365.7537 184.0534 366.3057 184.0534 366.8577 184.0534 367.3057 183.6054 367.3057 183.0534L367.3057 182.1114C367.3057 181.5594 366.8577 181.1114 366.3057 181.1114M164.9131 121.2823C164.3611 121.2823 163.9131 121.7303 163.9131 122.2823 163.9131 122.8343 164.3611 123.2823 164.9131 123.2823L166.2021 123.2823C166.7541 123.2823 167.2021 122.8343 167.2021 122.2823 167.2021 121.7303 166.7541 121.2823 166.2021 121.2823L164.9131 121.2823zM25.3188 99.0914L26.8288 99.0914 26.8288 100.6014C26.8288 101.1544 27.2768 101.6014 27.8288 101.6014 28.3808 101.6014 28.8288 101.1544 28.8288 100.6014L28.8288 99.0914 30.3388 99.0914C30.8908 99.0914 31.3388 98.6434 31.3388 98.0914 31.3388 97.5394 30.8908 97.0914 30.3388 97.0914L28.8288 97.0914 28.8288 95.5814C28.8288 95.0294 28.3808 94.5814 27.8288 94.5814 27.2768 94.5814 26.8288 95.0294 26.8288 95.5814L26.8288 97.0914 25.3188 97.0914C24.7668 97.0914 24.3188 97.5394 24.3188 98.0914 24.3188 98.6434 24.7668 99.0914 25.3188 99.0914M65.584 49.897L67.094 49.897 67.094 51.407C67.094 51.96 67.542 52.407 68.094 52.407 68.646 52.407 69.094 51.96 69.094 51.407L69.094 49.897 70.604 49.897C71.156 49.897 71.604 49.449 71.604 48.897 71.604 48.345 71.156 47.897 70.604 47.897L69.094 47.897 69.094 46.387C69.094 45.835 68.646 45.387 68.094 45.387 67.542 45.387 67.094 45.835 67.094 46.387L67.094 47.897 65.584 47.897C65.032 47.897 64.584 48.345 64.584 48.897 64.584 49.449 65.032 49.897 65.584 49.897M361.1313 77.919C361.3873 77.919 361.6433 77.821 361.8383 77.626L363.0213 76.443C363.4123 76.052 363.4123 75.419 363.0213 75.029 362.6313 74.638 361.9983 74.638 361.6073 75.029L360.4243 76.212C360.0333 76.603 360.0333 77.235 360.4243 77.626 360.6193 77.821 360.8753 77.919 361.1313 77.919M355.2153 83.835C355.4713 83.835 355.7273 83.737 355.9223 83.542L357.1053 82.359C357.4963 81.968 357.4963 81.335 357.1053 80.945 356.7153 80.554 356.0823 80.554 355.6913 80.945L354.5083 82.128C354.1173 82.519 354.1173 83.151 354.5083 83.542 354.7033 83.737 354.9593 83.835 355.2153 83.835M361.6074 83.542C361.8024 83.737 362.0584 83.835 362.3144 83.835 362.5704 83.835 362.8264 83.737 363.0214 83.542 363.4124 83.151 363.4124 82.519 363.0214 82.128L361.8384 80.945C361.4474 80.554 360.8154 80.554 360.4244 80.945 360.0334 81.335 360.0334 81.968 360.4244 82.359L361.6074 83.542zM355.6914 77.626C355.8864 77.821 356.1424 77.919 356.3984 77.919 356.6544 77.919 356.9104 77.821 357.1054 77.626 357.4964 77.235 357.4964 76.603 357.1054 76.212L355.9224 75.029C355.5314 74.638 354.8994 74.638 354.5084 75.029 354.1174 75.419 354.1174 76.052 354.5084 76.443L355.6914 77.626zM375.2422 100.0914C376.0752 100.0914 376.7522 100.7684 376.7522 101.6014 376.7522 102.4334 376.0752 103.1114 375.2422 103.1114 374.4092 103.1114 373.7322 102.4334 373.7322 101.6014 373.7322 100.7684 374.4092 100.0914 375.2422 100.0914M375.2422 105.1114C377.1782 105.1114 378.7522 103.5364 378.7522 101.6014 378.7522 99.6664 377.1782 98.0914 375.2422 98.0914 373.3072 98.0914 371.7322 99.6664 371.7322 101.6014 371.7322 103.5364 373.3072 105.1114 375.2422 105.1114"/>
    <rect width="388" height="236"/>
  </g>
</svg>
