<svg width="180" height="118" viewBox="0 0 180 118" fill="none" xmlns="http://www.w3.org/2000/svg">
<g clip-path="url(#clip0_496_103605)">
<path d="M2.96767 92.3179C1.46766 95.2928 1.3313 99.6027 1.3313 99.6027C1.3313 99.6027 10.4103 107.523 32.6197 111.997C33.8351 110.068 34.8591 108.025 35.6771 105.897C35.6771 105.897 4.23801 91.2055 2.96767 92.3179Z" fill="#5865F2"/>
<path d="M5.02051 102.133C5.29324 102.294 5.57673 102.463 5.88175 102.635C6.12577 100.026 6.63893 96.4628 7.70473 93.6207L6.86501 93.3049C5.8064 96.1076 5.28247 99.5203 5.02051 102.133Z" fill="#3442D9"/>
<path d="M10.7478 94.8229L9.91522 94.4856C8.63411 97.1447 7.96664 100.705 7.62573 103.593C7.90205 103.74 8.18913 103.888 8.48698 104.038C8.81354 101.132 9.46306 97.4569 10.7478 94.8229Z" fill="#3442D9"/>
<path d="M14.1103 96.226L13.2706 95.8672C11.6845 98.1746 10.8196 101.774 10.3459 104.943L11.2072 105.337C11.6665 102.133 12.5206 98.433 14.1103 96.226Z" fill="#3442D9"/>
<path d="M20.9429 99.2009L20.1175 98.842C19.0015 101.824 18.4812 105.488 18.2407 108.14C18.5278 108.24 18.8257 108.341 19.1235 108.438C19.3532 105.825 19.8556 102.136 20.9429 99.2009Z" fill="#3442D9"/>
<path d="M23.9177 100.522L23.0959 100.163C21.883 102.775 21.2406 106.202 20.9033 109.016L21.7825 109.288C22.1091 106.493 22.7335 103.062 23.9177 100.522Z" fill="#3442D9"/>
<path d="M27.1723 101.996L26.3433 101.619C24.9653 103.773 24.1615 106.952 23.6914 109.844L24.5706 110.092C25.0443 107.203 25.8338 104.052 27.1723 101.996Z" fill="#3442D9"/>
<path d="M29.0672 47.0346C29.0672 47.0346 21.4847 40.184 9.00018 44.8455C8.72262 44.9489 8.49713 45.1578 8.3728 45.4266C8.24846 45.6954 8.23535 46.0025 8.33631 46.281L8.39013 46.3994C9.94756 49.4748 14.7813 57.854 21.0397 57.4879L29.0672 47.0346Z" fill="#5865F2"/>
<path d="M8.96411 47.4902C9.10048 47.7378 9.24761 48.0034 9.40909 48.2797C13.4139 46.8622 21.0287 45.1074 27.5168 49.0548L28.0659 48.3371C21.1795 44.099 13.1053 46.0046 8.96411 47.4902Z" fill="#3442D9"/>
<path d="M25.6618 51.4733L26.2323 50.7269C20.828 48.6922 15.011 49.6001 10.999 50.7664C11.1784 51.0212 11.3579 51.276 11.5588 51.5343C15.3519 50.4685 20.6881 49.6791 25.6618 51.4733Z" fill="#3442D9"/>
<path d="M24.0933 53.5118C20.4832 52.7941 16.8552 53.2965 13.8301 54.1578C14.0813 54.4018 14.3361 54.6386 14.6016 54.8755C17.487 54.0498 20.517 53.8589 23.4832 54.3157L24.0933 53.5118Z" fill="#3442D9"/>
<path d="M64.8737 14.921C64.8737 14.921 57.3378 0.0896423 44.516 3.98678C44.2843 4.0577 44.069 4.17354 43.8821 4.3277C43.6952 4.48186 43.5406 4.67132 43.427 4.88525C43.3133 5.09918 43.2429 5.33341 43.2198 5.57454C43.1967 5.81568 43.2213 6.059 43.2923 6.29062C43.3765 6.56979 43.5266 6.82458 43.7301 7.03345L49.4717 12.9581C49.4717 12.9581 58.9096 11.7954 64.8737 14.921Z" fill="#5865F2"/>
<path d="M43.2812 6.25826C43.3636 6.55218 43.5178 6.82101 43.7298 7.04056L43.7585 7.07285C47.243 6.35515 55.2418 5.70921 60.1258 13.3384C60.5313 13.421 60.9368 13.5107 61.3387 13.6147C56.1102 4.49988 46.9093 5.45084 43.2812 6.25826Z" fill="#3442D9"/>
<path d="M51.4021 9.12897C49.5329 8.6515 47.5768 8.62689 45.6963 9.0572L46.4499 9.83591C48.0159 9.54646 49.6262 9.60156 51.1688 9.99739C52.9647 10.4923 54.593 11.4645 55.8805 12.8108C56.3112 12.8359 56.7526 12.8682 57.1975 12.9077C55.6987 11.0839 53.6755 9.76473 51.4021 9.12897Z" fill="#3442D9"/>
<path d="M44.3615 35.0559C44.3615 35.0559 32.3974 25.2772 36.779 17.874C41.1605 10.4709 60.2264 9.89313 67.242 15.5128C75.1152 21.8214 79.7588 41.5332 72.3556 43.044C72.3556 43.044 68.2037 43.9698 64.8197 40.1086C62.035 36.9255 56.9034 47.1851 56.9034 47.1851L43.4249 37.331L44.3615 35.0559Z" fill="url(#paint0_linear_496_103605)"/>
<path d="M38.2966 32.5727C41.7667 33.6098 47.4258 35.2713 51.8469 37.6182C53.6621 38.5795 55.0877 40.1408 55.8804 42.0357L59.3649 50.3216C59.4367 50.4928 59.4739 50.6766 59.4745 50.8623C59.4751 51.048 59.439 51.2319 59.3684 51.4037C59.2977 51.5754 59.1938 51.7314 59.0626 51.8629C58.9315 51.9943 58.7757 52.0986 58.6041 52.1697L58.4785 52.2163L56.7632 52.7438C56.0874 52.9514 55.4817 53.3406 55.0121 53.8691C54.5425 54.3975 54.2272 55.0448 54.1005 55.7403C52.5144 64.4425 46.3277 95.3863 36.8756 106.647C36.8756 106.647 18.7643 104.853 1.44243 92.8851C0.830522 92.4655 0.377046 91.8527 0.154549 91.1449C-0.0679492 90.4371 -0.0466101 89.6751 0.215152 88.9808C3.20081 81.1363 14.1207 55.8372 35.8923 38.9137C36.3452 38.5622 36.6847 38.0853 36.8685 37.5422C37.0523 36.9992 37.0722 36.4141 36.9258 35.8598L36.5203 34.3168C36.4551 34.0705 36.4566 33.8114 36.5246 33.5659C36.5927 33.3205 36.7248 33.0976 36.9074 32.92C37.0901 32.7425 37.3166 32.6168 37.5639 32.5557C37.8112 32.4947 38.0703 32.5006 38.3146 32.5727H38.2966Z" fill="#242145"/>
<path d="M71.4 39.9563C74.0031 39.15 74.9938 34.8822 73.6128 30.4238C72.2319 25.9654 69.0022 23.0048 66.3991 23.8111C63.796 24.6174 62.8053 28.8852 64.1862 33.3436C65.5672 37.802 68.7969 40.7626 71.4 39.9563Z" fill="white"/>
<path d="M69.3915 29.411C67.1163 30.1287 66.1618 33.5271 67.2383 37.0331C67.4935 37.8555 67.8555 38.6409 68.3149 39.3692C69.3448 40.0223 70.4214 40.2556 71.4082 39.9505C73.8197 39.2041 74.8424 35.4828 73.8807 31.3955C72.5817 29.777 70.8915 28.9445 69.3915 29.411Z" fill="black"/>
<path d="M40.5969 55.7795C40.5969 55.7795 13.5358 73.2485 19.2559 90.6242C21.0502 96.1038 26.878 95.7737 28.6148 105.054C38.7811 108.226 35.7632 103.493 40.0981 105.649L40.5969 55.7795Z" fill="black"/>
<path d="M40.177 23.8416C40.9434 24.8907 42.0035 25.6892 43.2234 26.1363C44.4433 26.5834 45.7683 26.659 47.0311 26.3535C44.5707 26.1096 42.2124 25.2453 40.177 23.8416Z" fill="#5865F2"/>
<path d="M43.0121 21.283C45.5456 23.6443 48.3088 24.6168 51.2658 24.2041L51.3017 24.1754C51.3427 24.1419 51.3722 24.0965 51.3862 24.0455C51.4003 23.9945 51.398 23.9403 51.3799 23.8906C51.3617 23.8409 51.3286 23.7981 51.285 23.7681C51.2414 23.7381 51.1895 23.7224 51.1366 23.7232C49.7012 23.7232 46.5576 23.2675 44.4691 19.2483C43.17 16.7364 41.2574 16.5641 40.0444 17.6012C40.8705 18.9515 41.868 20.1891 43.0121 21.283Z" fill="#5865F2"/>
<path d="M49.2347 25.5358C49.4393 25.4282 49.6474 25.3133 49.8555 25.177C44.5983 25.1016 41.0565 20.8169 39.4309 18.3049C39.131 18.8419 38.9504 19.4372 38.9015 20.0503C38.8526 20.6634 38.9364 21.2798 39.1474 21.8576C40.4862 23.1304 42.0727 24.1138 43.8082 24.7466C45.5437 25.3795 47.3909 25.6481 49.2347 25.5358Z" fill="#5865F2"/>
<path d="M49.8555 25.1874C50.3413 24.8884 50.8076 24.5588 51.2515 24.2006C48.3089 24.6132 45.5457 23.6407 42.9979 21.2795C41.8503 20.185 40.848 18.9476 40.0158 17.5977C39.78 17.8044 39.5779 18.0465 39.4165 18.3154C41.0565 20.8273 44.5983 25.112 49.8555 25.1874Z" fill="#3442D9"/>
<path d="M49.2346 25.5356C47.3915 25.6491 45.5448 25.3821 43.8094 24.7511C42.074 24.1202 40.487 23.1388 39.1472 21.8682C39.3298 22.4305 39.5881 22.9653 39.9152 23.4579C39.9977 23.5835 40.0874 23.7055 40.1771 23.8167C42.21 25.2295 44.5685 26.1025 47.0312 26.3538C47.798 26.1775 48.5386 25.9025 49.2346 25.5356Z" fill="#3442D9"/>
<path d="M64.6544 39.94C63.3339 38.379 61.7513 35.7486 61.0659 31.6541C59.8207 24.3299 52.3996 26.6302 53.6054 33.2115C54.5061 38.1458 58.3637 40.4137 60.7286 41.3575C62.0671 39.8467 63.5276 38.9137 64.6544 39.94Z" fill="black"/>
<path d="M59.8279 36.7356C57.9726 35.573 55.9343 35.189 54.3267 35.5443C55.8123 38.8888 58.78 40.5682 60.7322 41.3577C61.2874 40.6839 61.9704 40.1266 62.7418 39.7177C62.0374 38.494 61.035 37.4682 59.8279 36.7356Z" fill="#FF78B9"/>
<path d="M53.3938 26.8597C53.2742 26.8617 53.1586 26.8164 53.0719 26.7339C52.9853 26.6513 52.9347 26.5379 52.9309 26.4183C52.9303 26.31 52.967 26.2048 53.035 26.1205C53.8511 25.2271 54.9554 24.6491 56.1546 24.4877C57.3538 24.3263 58.5716 24.5918 59.5948 25.2377C59.6459 25.2671 59.6908 25.3064 59.7267 25.3532C59.7627 25.3999 59.7891 25.4533 59.8044 25.5103C59.8198 25.5673 59.8237 25.6267 59.8161 25.6853C59.8084 25.7438 59.7893 25.8002 59.7599 25.8513C59.7304 25.9025 59.6912 25.9473 59.6444 25.9833C59.5976 26.0192 59.5442 26.0456 59.4872 26.061C59.4303 26.0763 59.3708 26.0802 59.3123 26.0726C59.2538 26.0649 59.1974 26.0459 59.1462 26.0164C55.956 24.1647 53.8245 26.5977 53.7276 26.7126C53.6851 26.7588 53.6335 26.7957 53.5761 26.821C53.5186 26.8463 53.4566 26.8595 53.3938 26.8597Z" fill="#3F99F2"/>
<path d="M30.1365 65.6121C30.0495 65.6134 29.964 65.5891 29.8907 65.5423C29.8173 65.4955 29.7593 65.4283 29.7238 65.3488C29.6883 65.2694 29.6769 65.1813 29.6909 65.0955C29.7049 65.0096 29.7438 64.9297 29.8028 64.8657C33.7501 60.4375 37.0767 58.4064 37.2167 58.3238C37.3183 58.2669 37.4381 58.2517 37.5507 58.2815C37.6633 58.3114 37.7599 58.3838 37.8201 58.4836C37.8802 58.5834 37.8992 58.7026 37.873 58.8161C37.8467 58.9296 37.7774 59.0285 37.6796 59.0918C37.6437 59.1133 34.3064 61.1444 30.4702 65.4614C30.4289 65.5093 30.3777 65.5477 30.32 65.5737C30.2624 65.5997 30.1997 65.6128 30.1365 65.6121Z" fill="black"/>
<path d="M68.5194 61.9411C67.9542 61.5802 67.4735 61.1016 67.1099 60.5381C66.7464 59.9746 66.5087 59.3393 66.4129 58.6756L66.0541 56.3968C66.0465 56.3424 66.0213 56.292 65.9823 56.2533C65.9632 56.233 65.9401 56.2168 65.9145 56.2057C65.8889 56.1947 65.8613 56.189 65.8334 56.189C65.8055 56.189 65.7779 56.1947 65.7523 56.2057C65.7266 56.2168 65.7036 56.233 65.6844 56.2533C65.6424 56.2902 65.6156 56.3413 65.6091 56.3968L65.2502 58.6756C65.1513 59.3378 64.9126 59.9715 64.5501 60.5345C64.1875 61.0975 63.7094 61.577 63.1474 61.9411L62.8423 62.1349C62.8129 62.1571 62.7885 62.1852 62.7706 62.2174C62.7563 62.2515 62.749 62.2881 62.749 62.3251C62.749 62.362 62.7563 62.3986 62.7706 62.4327C62.7885 62.4649 62.8129 62.493 62.8423 62.5153L63.1474 62.7091C63.7094 63.0732 64.1875 63.5526 64.5501 64.1156C64.9126 64.6786 65.1513 65.3123 65.2502 65.9746L65.6091 68.2533C65.6165 68.291 65.6333 68.3262 65.6581 68.3556C65.6829 68.385 65.7147 68.4075 65.7506 68.4212C65.7865 68.4348 65.8253 68.4391 65.8634 68.4336C65.9014 68.4281 65.9374 68.413 65.9679 68.3897C65.9889 68.3731 66.0064 68.3525 66.0194 68.3291C66.0323 68.3057 66.0404 68.2799 66.0433 68.2533L66.4021 65.9746C66.4979 65.3109 66.7357 64.6756 67.0992 64.1121C67.4627 63.5485 67.9434 63.07 68.5086 62.7091L68.81 62.5153C68.8394 62.493 68.8639 62.4649 68.8818 62.4327C68.8978 62.3991 68.9061 62.3623 68.9061 62.3251C68.9061 62.2878 68.8978 62.2511 68.8818 62.2174C68.8639 62.1852 68.8394 62.1571 68.81 62.1349L68.5194 61.9411Z" fill="#FF78B9"/>
<path d="M26.5767 29.9424C25.9495 29.5319 25.4183 28.9909 25.0193 28.3563C24.6128 27.7271 24.3483 27.0168 24.2442 26.275L23.8494 23.7307C23.842 23.6687 23.8127 23.6115 23.7669 23.5692C23.7227 23.5262 23.6635 23.5022 23.6018 23.5022C23.5402 23.5022 23.4809 23.5262 23.4367 23.5692C23.3909 23.6115 23.3616 23.6687 23.3542 23.7307L22.9631 26.275C22.8531 27.0195 22.5852 27.732 22.1774 28.3645C21.7695 28.997 21.2311 29.535 20.5982 29.9424L20.2394 30.1542C20.2065 30.1791 20.1795 30.2109 20.1604 30.2475C20.1416 30.284 20.1329 30.3249 20.1353 30.3659C20.1325 30.4081 20.1411 30.4502 20.1604 30.4879C20.1795 30.5244 20.2065 30.5563 20.2394 30.5812L20.5982 30.7929C21.2265 31.1997 21.761 31.7355 22.1663 32.3647C22.5715 32.9939 22.8382 33.7022 22.9487 34.4424L23.3398 36.9867C23.3467 37.0468 23.3762 37.102 23.4224 37.141C23.4696 37.1777 23.5277 37.1976 23.5875 37.1976C23.6472 37.1976 23.7053 37.1777 23.7525 37.141C23.7987 37.102 23.8283 37.0468 23.8351 36.9867L24.2298 34.4424C24.3387 33.698 24.6057 32.9855 25.013 32.3528C25.4203 31.7202 25.9584 31.1822 26.5911 30.775L26.9499 30.5632C26.9828 30.5383 27.0097 30.5065 27.0289 30.4699C27.0481 30.4323 27.0568 30.3901 27.054 30.3479C27.0563 30.3069 27.0477 30.266 27.0289 30.2295C27.0097 30.193 26.9828 30.1611 26.9499 30.1362L26.5767 29.9424Z" fill="#91FFAD"/>
<path d="M75.9766 53.447C75.6049 53.2074 75.2882 52.8919 75.0472 52.5212C74.8092 52.1494 74.6538 51.7309 74.5914 51.2939L74.3618 49.7939C74.3546 49.7585 74.3371 49.726 74.3115 49.7006C74.2988 49.6878 74.2837 49.6776 74.2671 49.6707C74.2505 49.6637 74.2326 49.6602 74.2146 49.6602C74.1966 49.6602 74.1788 49.6637 74.1621 49.6707C74.1455 49.6776 74.1304 49.6878 74.1177 49.7006C74.0918 49.7253 74.0753 49.7583 74.0711 49.7939L73.8235 51.2939C73.7592 51.7307 73.6024 52.1488 73.3635 52.5201C73.1246 52.8914 72.8092 53.2074 72.4383 53.447L72.2409 53.5726C72.2184 53.5835 72.2008 53.6024 72.1915 53.6257C72.1822 53.6489 72.1819 53.6748 72.1907 53.6982C72.1871 53.7208 72.1871 53.7438 72.1907 53.7664C72.2013 53.7901 72.2188 53.8101 72.2409 53.8238L72.4383 53.9494C72.8081 54.19 73.1235 54.5054 73.3641 54.8752C73.6017 55.2462 73.7582 55.6632 73.8235 56.0989L74.0567 57.5989C74.061 57.6353 74.0789 57.6687 74.107 57.6922C74.1338 57.7157 74.1682 57.7286 74.2039 57.7286C74.2395 57.7286 74.2739 57.7157 74.3007 57.6922C74.3263 57.6668 74.3438 57.6343 74.351 57.5989L74.5807 56.0989C74.641 55.6609 74.7962 55.2413 75.0355 54.8694C75.2747 54.4975 75.5922 54.1823 75.9658 53.9458L76.1668 53.8202C76.1871 53.8055 76.2032 53.7857 76.2134 53.7628C76.2206 53.7406 76.2206 53.7168 76.2134 53.6946C76.2206 53.6712 76.2206 53.6462 76.2134 53.6228C76.2031 53.601 76.1869 53.5824 76.1668 53.569L75.9766 53.447Z" fill="#3442D9"/>
<path d="M15.8865 26.5508C15.5141 26.313 15.1974 25.9975 14.9583 25.6258C14.7193 25.2542 14.5634 24.8353 14.5014 24.3977L14.2717 22.8977C14.2676 22.8603 14.2497 22.8257 14.2215 22.8008C14.195 22.7766 14.1604 22.7632 14.1246 22.7632C14.0887 22.7632 14.0541 22.7766 14.0277 22.8008C13.9994 22.8257 13.9815 22.8603 13.9774 22.8977L13.7478 24.3977C13.683 24.8385 13.5252 25.2605 13.2849 25.6358C13.0462 26.0072 12.7304 26.3229 12.359 26.5616L12.1616 26.6872C12.1413 26.7019 12.1253 26.7217 12.115 26.7446C12.1114 26.7672 12.1114 26.7902 12.115 26.8128C12.1114 26.8366 12.1114 26.8608 12.115 26.8846C12.1253 26.9075 12.1413 26.9272 12.1616 26.942L12.359 27.0676C12.732 27.3043 13.0482 27.6204 13.2849 27.9934C13.5251 28.366 13.6829 28.7857 13.7478 29.2243L13.9774 30.7243C13.9817 30.7607 13.9996 30.794 14.0277 30.8176C14.0556 30.8386 14.0896 30.8499 14.1246 30.8499C14.1595 30.8499 14.1935 30.8386 14.2215 30.8176C14.247 30.7921 14.2645 30.7597 14.2717 30.7243L14.5014 29.2243C14.5634 28.7867 14.7193 28.3678 14.9583 27.9962C15.1974 27.6245 15.5141 27.309 15.8865 27.0712L16.0875 26.9456C16.1078 26.9308 16.1239 26.911 16.1341 26.8882C16.1413 26.8648 16.1413 26.8398 16.1341 26.8164C16.1413 26.7942 16.1413 26.7704 16.1341 26.7482C16.1239 26.7253 16.1078 26.7055 16.0875 26.6908L15.8865 26.5508Z" fill="#FFE75C"/>
<path d="M155.663 51.9645L146.511 54.7875C143.879 55.5977 141.643 57.3395 140.232 59.6783C138.059 63.2811 135.125 68.9482 134.514 74.1108C134.514 74.1108 133.564 77.7489 137.913 80.9706C139.078 81.8512 139.961 83.0444 140.457 84.4076L147.086 102.228C147.086 102.228 166.441 102.228 176.179 87.9857L166.927 61.1674C163.841 59.1861 161.259 56.5297 159.38 53.4042C159.015 52.7859 158.45 52.3073 157.775 52.046C157.1 51.7847 156.356 51.756 155.663 51.9645Z" fill="#FFC619"/>
<path d="M115.803 53.7287L111.389 47.6523C111.309 47.5434 111.201 47.4586 111.075 47.4071C110.949 47.3557 110.811 47.3397 110.677 47.3609C110.543 47.3821 110.417 47.4397 110.313 47.5273C110.21 47.6148 110.134 47.7289 110.092 47.8569L107.705 55.4543L113.423 64.8301L116.564 57.3845L115.803 53.7287Z" fill="#EB459F"/>
<path d="M112.179 67.0885C117.632 72.7838 133.285 88.222 144.574 90.0922L138.749 65.5606C138.749 65.5606 130.329 71.7958 115.802 53.7288L111.471 62.4588C111.098 63.2098 110.965 64.0556 111.091 64.883C111.218 65.7103 111.597 66.4798 112.179 67.0885Z" fill="url(#paint1_linear_496_103605)"/>
<path d="M172.395 90.5017C172.395 90.5017 174.635 93.5576 174.35 97.1145C174.35 97.1145 167.878 103.579 162.857 104.235L162.353 95.6466L172.395 90.5017Z" fill="#FFF2A6"/>
<path d="M141.329 60.3556C141.268 60.4756 137.716 55.7683 135.997 53.4499C135.746 53.113 135.607 52.7075 135.599 52.2892C135.59 51.8709 135.713 51.4604 135.951 51.1139C136.269 50.6481 136.637 50.0976 136.98 49.5648C137.835 48.2599 139.086 47.2556 140.554 46.696L155.059 41.1206L162.835 36.8861C163.873 36.3208 165.063 36.0855 166.241 36.2121L170.733 36.6956C171.544 36.783 172.327 37.0396 173.03 37.4484C173.733 37.8572 174.34 38.4089 174.811 39.0669L177.884 43.3648C179.322 45.377 180.063 47.7944 179.996 50.2564L179.942 52.1514C179.916 53.1551 179.689 54.1439 179.275 55.0607C178.86 55.9776 178.266 56.8045 177.527 57.4938L173.824 60.9555C173.282 61.4657 172.62 61.8345 171.898 62.0286C171.175 62.2226 170.415 62.2359 169.686 62.0671C166.673 61.3613 161.57 59.2441 157.482 52.8465L141.329 60.3556Z" fill="#FFE75C"/>
<path d="M170.458 50.2353C169.967 50.2351 169.488 50.0901 169.082 49.8189L161.416 44.2965C160.937 43.9504 160.379 43.724 159.792 43.6367C159.205 43.5495 158.604 43.6039 158.043 43.7954L155.899 44.5259L151.95 45.6409C151.894 45.6645 151.833 45.6765 151.773 45.6762C151.712 45.6759 151.652 45.6633 151.596 45.6392C151.54 45.6151 151.49 45.58 151.448 45.536C151.407 45.4921 151.375 45.4402 151.354 45.3836C151.334 45.327 151.325 45.2668 151.329 45.2068C151.333 45.1468 151.349 45.0882 151.377 45.0347C151.405 44.9811 151.443 44.9337 151.49 44.8954C151.537 44.857 151.591 44.8285 151.65 44.8117L151.707 44.794L155.638 43.686L157.761 42.9591C158.459 42.7228 159.205 42.6568 159.935 42.7668C160.665 42.8768 161.357 43.1595 161.952 43.5908L169.604 49.1203C169.874 49.2973 170.193 49.387 170.517 49.3769C170.841 49.3668 171.154 49.2574 171.412 49.0638L174.828 46.509C175.097 46.3066 175.274 46.0082 175.321 45.6781C175.368 45.348 175.283 45.0128 175.082 44.7446L175.064 44.7235L172.47 41.4488C172.305 41.239 172.1 41.0635 171.866 40.9327C171.633 40.8018 171.375 40.7182 171.108 40.6866L168.364 40.3584C168.081 40.3277 167.798 40.409 167.576 40.5843C167.354 40.7596 167.212 41.0147 167.181 41.2936C167.181 41.3359 167.181 41.3747 167.181 41.4171L167.224 42.7439C167.232 43.0022 167.322 43.2516 167.48 43.4577C167.638 43.6637 167.857 43.8162 168.106 43.8942L169.722 44.4024C169.867 44.45 170.025 44.4397 170.162 44.3738C170.3 44.3079 170.406 44.1915 170.458 44.0495C170.469 44.0067 170.478 43.963 170.483 43.9189L170.547 43.1955C170.548 43.1357 170.562 43.0766 170.587 43.0221C170.612 42.9675 170.648 42.9186 170.693 42.8782C170.737 42.8378 170.79 42.8069 170.847 42.7873C170.905 42.7676 170.965 42.7598 171.026 42.7641C171.086 42.7684 171.145 42.7848 171.199 42.8124C171.253 42.8399 171.301 42.878 171.339 42.9243C171.378 42.9707 171.406 43.0242 171.423 43.0818C171.44 43.1393 171.444 43.1996 171.437 43.259L171.373 43.9824C171.355 44.1736 171.3 44.3596 171.211 44.5297C171.121 44.6999 170.998 44.8509 170.849 44.9741C170.7 45.0973 170.528 45.1903 170.342 45.2478C170.157 45.3053 169.962 45.3262 169.768 45.3092C169.66 45.2986 169.554 45.2774 169.45 45.2457L167.835 44.7341C167.41 44.6001 167.038 44.3401 166.769 43.9896C166.5 43.6392 166.346 43.2152 166.33 42.7756L166.287 41.4453C166.279 41.1918 166.321 40.9391 166.411 40.7016C166.502 40.4642 166.638 40.2467 166.814 40.0615C166.99 39.8764 167.2 39.7272 167.434 39.6225C167.668 39.5179 167.921 39.4598 168.178 39.4516C168.278 39.4445 168.378 39.4445 168.478 39.4516L171.222 39.7797C171.606 39.8253 171.976 39.9454 172.312 40.1332C172.649 40.3209 172.944 40.5726 173.181 40.8736L175.775 44.1483C175.953 44.3694 176.084 44.623 176.162 44.8944C176.241 45.1658 176.264 45.4498 176.23 45.73C176.197 46.0103 176.108 46.2813 175.969 46.5276C175.83 46.7739 175.642 46.9906 175.418 47.1653L175.386 47.19L171.93 49.7413C171.506 50.0585 170.99 50.2318 170.458 50.2353Z" fill="#FFC619"/>
<path d="M155.806 44.5328C155.234 38.3505 151.41 37.3871 151.41 37.3871C151.41 37.3871 141.569 35.0546 145.31 29.5957C149.052 24.1368 146.775 18.1838 146.775 18.1838C153.283 23.5651 157.593 15.8549 157.593 15.8549C160.28 24.3697 167.356 19.1472 167.356 19.1472C164.469 24.3803 172.023 30.4567 176.762 24.2779C181.786 17.7286 172.72 14.7292 172.72 14.7292C172.72 14.7292 175.89 6.29204 168.789 3.26439C161.567 0.187349 157.839 7.34359 157.839 7.34359C147.444 -4.05417 140.918 10.3959 140.918 10.3959C127.664 6.74724 121.263 14.3058 119.805 21.0738C119.341 22.2877 119.305 23.5157 116.871 23.9886C110.081 25.3154 108.38 29.7827 118.629 31.1201C113.887 41.1099 125.523 36.385 125.777 36.2615C128.121 35.164 135.047 33.5655 134.839 37.86C134.632 42.045 135.783 43.7106 138.224 44.5328C139.953 45.1185 140.164 46.9288 140.053 48.2909C140.047 48.4299 140.068 48.5689 140.116 48.6999C140.163 48.8309 140.237 48.9513 140.332 49.0542C140.427 49.1571 140.541 49.2406 140.669 49.2997C140.796 49.3588 140.935 49.3925 141.075 49.3989C141.197 49.402 141.317 49.3853 141.433 49.3495L155.806 44.5328Z" fill="url(#paint2_linear_496_103605)"/>
<path d="M137.337 4.48902C137.337 4.48902 139.096 -0.92404 136.383 0.138105C133.671 1.20025 129.879 1.95187 129.443 5.02538C129.007 8.0989 128.332 10.5866 130.354 9.96559C132.377 9.34454 136.029 9.71505 136.029 9.71505L137.337 4.48902Z" fill="#91FFAD"/>
<path d="M119.398 31.1308C119.398 31.1308 123.65 31.4836 127.049 30.4497C127.103 30.4347 127.162 30.4385 127.214 30.4603C127.266 30.4822 127.309 30.5209 127.336 30.57C127.363 30.6192 127.372 30.676 127.362 30.7311C127.352 30.7861 127.324 30.8362 127.281 30.8732C124.554 33.188 117.439 38.6505 119.398 31.1308Z" fill="black"/>
<path d="M140.6 7.92589C140.6 7.92589 139.528 13.406 143.53 13.9988C143.656 14.0176 143.785 14.0103 143.908 13.9775C144.031 13.9447 144.146 13.8871 144.245 13.8083L148.48 10.396C149.164 9.84284 149.73 9.16022 150.144 8.38822C150.557 7.61621 150.81 6.77039 150.888 5.90041C151.085 3.70202 151.021 1.06959 149.541 1.16487C147.268 1.30954 143.109 1.67653 141.165 6.27445C140.935 6.81044 140.747 7.36243 140.6 7.92589Z" fill="#91FFAD"/>
<path d="M137.344 7.90147C137.301 7.90134 137.257 7.89419 137.216 7.88029C134.192 6.98753 133.574 3.64583 133.549 3.50821C133.529 3.39263 133.556 3.27379 133.624 3.17783C133.692 3.08188 133.797 3.01667 133.914 2.99655C134.031 2.97643 134.151 3.00304 134.248 3.07054C134.345 3.13804 134.411 3.24089 134.432 3.35648C134.432 3.38823 134.986 6.29943 137.469 7.03693C137.573 7.06666 137.662 7.13216 137.72 7.2214C137.778 7.31065 137.802 7.41765 137.787 7.52276C137.771 7.62787 137.718 7.72403 137.637 7.7936C137.556 7.86317 137.452 7.90147 137.344 7.90147Z" fill="#29CC7A"/>
<path d="M132.091 8.39527C131.99 8.39413 131.893 8.35921 131.814 8.2962C131.736 8.23319 131.682 8.14583 131.66 8.04836C131.638 7.95089 131.651 7.84908 131.696 7.75956C131.74 7.67003 131.814 7.59807 131.905 7.55543C132.041 7.49192 135.243 6.08748 137.327 7.60131C137.429 7.6612 137.502 7.75861 137.531 7.8721C137.56 7.9856 137.543 8.10587 137.482 8.20648C137.421 8.30709 137.323 8.37978 137.208 8.40857C137.093 8.43735 136.971 8.41988 136.869 8.35998L136.798 8.30705C135.129 7.0967 132.306 8.33881 132.277 8.35292C132.219 8.38099 132.156 8.39548 132.091 8.39527Z" fill="#29CC7A"/>
<path d="M142.905 11.3455C142.813 11.3457 142.723 11.3173 142.648 11.2643L139.925 9.36232C139.69 9.19856 139.503 8.97603 139.384 8.71754C139.265 8.45905 139.217 8.17389 139.246 7.89129C139.275 7.60869 139.38 7.3388 139.549 7.1093C139.719 6.8798 139.947 6.69892 140.211 6.58522L145.11 4.46798C145.219 4.42191 145.341 4.42017 145.451 4.46316C145.561 4.50615 145.649 4.59036 145.696 4.69735C145.72 4.74989 145.733 4.80654 145.734 4.86402C145.735 4.92149 145.725 4.97865 145.704 5.03216C145.682 5.08567 145.651 5.13448 145.61 5.17574C145.57 5.217 145.521 5.2499 145.468 5.27253L140.572 7.38976C140.449 7.43706 140.343 7.51677 140.263 7.62012C140.184 7.72346 140.134 7.84645 140.121 7.97556C140.108 8.10467 140.131 8.2349 140.188 8.35193C140.244 8.46897 140.333 8.56827 140.443 8.63893L143.166 10.5339C143.242 10.5893 143.298 10.6668 143.328 10.7554C143.357 10.8441 143.357 10.9395 143.329 11.0284C143.301 11.1173 143.245 11.1953 143.17 11.2515C143.094 11.3077 143.003 11.3393 142.909 11.3419L142.905 11.3455Z" fill="#29CC7A"/>
<path d="M100.096 66.3548L108.48 65.0773L103.623 55.4722L100.096 66.3548Z" fill="#8CD9FF"/>
<path d="M103.624 55.4722L96.3655 60.8888L100.096 66.3548L103.624 55.4722Z" fill="#66BCFF"/>
<path d="M110.553 46.8829C109.688 46.2724 105.439 43.9647 100.482 45.2738C98.5349 45.8176 96.845 47.0237 95.7114 48.679C94.4856 50.4434 92.2771 53.3581 90.7405 54.1203C86.956 55.9976 93.753 58.8029 97.173 54.3215L97.2945 54.2862C97.1516 56.3646 97.4803 59.1417 100.153 60.0839C102.323 60.8461 101.486 54.7908 104.306 52.1936L104.402 52.1654C104.402 52.1654 101.586 61.3401 106.668 57.6808C115.549 51.2832 111.51 47.5569 110.553 46.8829Z" fill="#FF78B9"/>
<path d="M136.21 22.5194C137.914 22.5036 139.287 21.704 139.278 20.7335C139.268 19.763 137.88 18.9891 136.177 19.005C134.474 19.0208 133.101 19.8204 133.11 20.7909C133.119 21.7614 134.507 22.5353 136.21 22.5194Z" fill="#EB459F"/>
<path d="M126.943 18.3488C127.136 16.8485 126.564 15.5409 125.665 15.4282C124.766 15.3155 123.881 16.4403 123.688 17.9405C123.495 19.4408 124.067 20.7484 124.966 20.8611C125.865 20.9738 126.75 19.849 126.943 18.3488Z" fill="#EB459F"/>
<path d="M136.473 20.1672C136.65 20.2296 136.813 20.3258 136.952 20.4504C137.091 20.5751 137.204 20.7256 137.285 20.8934C137.365 21.0612 137.411 21.243 137.42 21.4285C137.429 21.6139 137.401 21.7992 137.338 21.9739C137.307 22.0559 137.268 22.1351 137.223 22.2103C136.637 23.2054 135.654 24.4511 134.232 24.9592C132.81 25.4673 131.248 25.1392 130.151 24.7475C129.974 24.6851 129.811 24.5888 129.672 24.4642C129.532 24.3396 129.419 24.1891 129.339 24.0213C129.259 23.8534 129.213 23.6716 129.204 23.4862C129.194 23.3008 129.223 23.1155 129.286 22.9408C129.317 22.8587 129.355 22.7796 129.4 22.7043C129.987 21.7128 130.966 20.4671 132.392 19.9555C133.817 19.4438 135.376 19.779 136.473 20.1672Z" fill="white"/>
<path d="M133.799 25.0827C133.857 24.8927 133.887 24.6954 133.889 24.4969C133.889 23.223 132.709 22.1891 131.255 22.1891C130.889 22.1851 130.526 22.2526 130.187 22.3877C129.848 22.5227 129.539 22.7227 129.279 22.976C129.164 23.3244 129.19 23.7032 129.353 24.0324C129.516 24.3617 129.802 24.6155 130.151 24.7404C131.308 25.1981 132.575 25.3169 133.799 25.0827Z" fill="black"/>
<path d="M125.215 17.1606C125.49 17.0583 125.794 17.0672 126.062 17.1856C126.33 17.3039 126.539 17.522 126.645 17.7922C126.668 17.8529 126.686 17.9155 126.699 17.9792C126.863 18.8579 126.927 20.0965 126.341 21.0916C125.744 21.9862 124.865 22.6611 123.84 23.0112C123.565 23.1135 123.261 23.1045 122.993 22.9862C122.725 22.8679 122.516 22.6498 122.41 22.3796C122.387 22.3188 122.369 22.2563 122.357 22.1925C122.189 21.3139 122.124 20.0753 122.714 19.0802C123.304 18.0851 124.372 17.4782 125.215 17.1606Z" fill="white"/>
<path d="M126.248 21.2646C126.148 21.0379 126.006 20.831 125.83 20.6542C124.908 19.7402 123.329 19.8355 122.257 20.8659C122.249 21.306 122.286 21.7458 122.367 22.1786C122.395 22.322 122.451 22.4585 122.532 22.5803C122.614 22.7021 122.719 22.8066 122.841 22.8877C122.964 22.9689 123.102 23.0251 123.247 23.0529C123.392 23.0808 123.541 23.0799 123.686 23.0502C123.751 23.0396 123.815 23.0218 123.875 22.9972C124.828 22.6736 125.656 22.0688 126.248 21.2646Z" fill="black"/>
<path d="M158.851 31.526C158.479 31.2927 158.163 30.9827 157.924 30.6172C157.685 30.2517 157.53 29.8394 157.468 29.4088L157.239 27.9338C157.235 27.897 157.217 27.863 157.189 27.8385C157.163 27.8147 157.128 27.8015 157.093 27.8015C157.057 27.8015 157.022 27.8147 156.996 27.8385C156.968 27.863 156.95 27.897 156.946 27.9338L156.717 29.4088C156.653 29.838 156.496 30.2485 156.256 30.6121C156.021 30.978 155.708 31.2887 155.338 31.5225L155.138 31.646C155.118 31.6605 155.102 31.68 155.091 31.7025C155.08 31.7231 155.074 31.7461 155.073 31.7695C155.074 31.7941 155.08 31.8182 155.091 31.8401C155.102 31.8626 155.118 31.8821 155.138 31.8966L155.338 32.0201C155.708 32.2538 156.021 32.5645 156.256 32.9305C156.496 33.2941 156.653 33.7045 156.717 34.1338L156.946 35.6088C156.953 35.6436 156.971 35.6755 156.996 35.7005C157.024 35.7211 157.058 35.7323 157.093 35.7323C157.127 35.7323 157.161 35.7211 157.189 35.7005C157.217 35.6774 157.235 35.6445 157.239 35.6088L157.468 34.1338C157.53 33.7031 157.685 33.2909 157.924 32.9254C158.163 32.5599 158.479 32.2498 158.851 32.0165L159.047 31.893C159.068 31.8785 159.084 31.8591 159.094 31.8366C159.105 31.8147 159.111 31.7905 159.112 31.766C159.111 31.7425 159.105 31.7195 159.094 31.6989C159.084 31.6764 159.068 31.657 159.047 31.6425L158.851 31.526Z" fill="#66BCFF"/>
<path d="M145.335 15.2058C144.978 15.7774 145.846 15.7068 146.79 18.1981C150.363 21.1411 153.262 20.146 155.159 18.6533C148.659 19.1473 146.064 14.0166 145.335 15.2058Z" fill="#EB459F"/>
<path d="M162.26 20.7037C157.589 18.2971 160.63 11.9771 158.926 12.1783C158.307 12.2524 159.051 13.1487 157.596 15.8623C158.683 19.3098 160.494 20.5061 162.26 20.7037Z" fill="#EB459F"/>
<path d="M168.757 18.9143C168.875 18.4697 168.492 18.3356 168.21 18.4627C167.853 18.7414 167.592 18.9673 167.36 19.1684C166.884 20.0231 166.67 20.9961 166.745 21.9687C166.82 22.9412 167.18 23.8712 167.781 24.645C166.866 20.5728 168.5 19.8565 168.757 18.9143Z" fill="#EB459F"/>
<path d="M142.344 43.3436C139.81 42.4155 137.912 41.1946 137.923 39.1868C137.941 36.7166 135.164 35.7674 133.42 35.4146C134.328 35.8133 134.911 36.572 134.85 37.86C134.643 42.045 135.793 43.7106 138.234 44.5328C139.964 45.1185 140.175 46.9288 140.064 48.2909C140.057 48.4299 140.078 48.5689 140.126 48.6999C140.174 48.8309 140.247 48.9513 140.342 49.0542C140.437 49.1571 140.552 49.2405 140.679 49.2997C140.807 49.3588 140.945 49.3925 141.086 49.3989C141.207 49.402 141.328 49.3853 141.443 49.3495L146.446 47.6627C146.107 46.6994 145.566 45.8171 144.859 45.0731C144.153 44.3291 143.296 43.7399 142.344 43.3436Z" fill="#EB459F"/>
<path d="M141.351 5.86528C141.351 5.86528 139.206 3.56102 136.73 5.29362C135.032 6.4828 135.057 8.72354 136.015 9.71158C136.015 9.71158 139.049 9.95506 140.507 10.4526C140.522 10.4526 140.343 7.77431 141.351 5.86528Z" fill="#57F287"/>
</g>
<defs>
<linearGradient id="paint0_linear_496_103605" x1="63.2049" y1="19.0618" x2="48.3412" y2="40.2198" gradientUnits="userSpaceOnUse">
<stop stop-color="#66BCFF"/>
<stop offset="1" stop-color="#3F99F2"/>
</linearGradient>
<linearGradient id="paint1_linear_496_103605" x1="107.097" y1="40.7219" x2="142.012" y2="90.7098" gradientUnits="userSpaceOnUse">
<stop offset="0.24" stop-color="#FFE75C"/>
<stop offset="1" stop-color="#FF8C19"/>
</linearGradient>
<linearGradient id="paint2_linear_496_103605" x1="168.625" y1="46.7523" x2="147.053" y2="22.7641" gradientUnits="userSpaceOnUse">
<stop stop-color="#EB459F"/>
<stop offset="0.46" stop-color="#F55FAC"/>
<stop offset="0.99" stop-color="#FF78B9"/>
</linearGradient>
<clipPath id="clip0_496_103605">
<rect width="180" height="118" fill="white"/>
</clipPath>
</defs>
</svg>
