<svg height="24" viewBox="0 0 24 24" width="24" xmlns="http://www.w3.org/2000/svg"><g fill="none" fill-rule="evenodd"><path d="m15.6986306 10.3369503c-.6520041.1959778-1.2692737.4730294-1.8399926.8194534-.1233814-.2017741-.2729274-.3921822-.448638-.5664037-.41-.39-.41-1.03 0-1.42.39-.39 1.03-.39 1.42 0 .3536989.35369885.6432424.74753591.8686306 1.1669503zm-5.3022957 10.1533967c-1.92859211 1.2006488-4.50212145.9638665-6.1763349-.710347-1.95-1.95-1.95-5.12 0-7.07l1.49-1.49c-.01.82.12 1.64.4 2.43l-.47.47c-1.18 1.17-1.18 3.07 0 4.24 1.17 1.18 3.07 1.18 4.24 0l.123444-.123444c.0228681.7844396.1590919 1.541015.3928909 2.253791zm.4609458-6.0939248c-.0466059.092072-.0914837.1851657-.1345903.2792385-.0380263.0546088-.0822564.1063655-.1326904.1543393-.39.39-1.03.39-1.42 0-1.95-1.95-1.95-5.12 0-7.07l3.54-3.54c1.95-1.95 5.12-1.95 7.07 0 1.6741454 1.67414536 1.9109765 4.24753345.7104935 6.1760996-.7117298-.2333858-1.4674297-.369522-2.2514326-.3925874l.1209391-.1235122c1.18-1.17 1.18-3.07 0-4.24-1.17-1.18-3.07-1.18-4.24 0l-3.53 3.53c-1.18 1.17-1.18 3.07 0 4.24.2791393.2655228.3682329.6469271.2672807.9864222z" fill="#fff" opacity=".6"/><path d="m0 0h24v24h-24z"/></g></svg>