<svg width="215" height="117" viewBox="0 0 215 117" fill="none" xmlns="http://www.w3.org/2000/svg">
<g clip-path="url(#clip0_511_30905)">
<path d="M152.651 0H4.96071C2.22099 0 0 2.22577 0 4.97139V98.0529C0 100.798 2.22099 103.024 4.96071 103.024H152.651C155.39 103.024 157.611 100.798 157.611 98.0529V4.97139C157.611 2.22577 155.39 0 152.651 0Z" fill="#37393F"/>
<path d="M17.5391 0V103.024H4.96071C3.64505 103.024 2.38327 102.5 1.45296 101.568C0.522645 100.636 0 99.3714 0 98.0529L0 4.97139C0 3.6529 0.522645 2.3884 1.45296 1.45609C2.38327 0.52377 3.64505 0 4.96071 0L17.5391 0Z" fill="#292B2F"/>
<path d="M53.1497 38.5503H17.5391V54.706H53.1497V38.5503Z" fill="#4B4D51"/>
<path d="M8.7696 61.9806C11.9928 61.9806 14.6057 59.362 14.6057 56.1319C14.6057 52.9018 11.9928 50.2832 8.7696 50.2832C5.5464 50.2832 2.93347 52.9018 2.93347 56.1319C2.93347 59.362 5.5464 61.9806 8.7696 61.9806Z" fill="#34F4CF"/>
<path d="M11.0068 9.22461H6.53242C4.54478 9.22461 2.93347 10.8394 2.93347 12.8313V17.3153C2.93347 19.3072 4.54478 20.922 6.53242 20.922H11.0068C12.9944 20.922 14.6057 19.3072 14.6057 17.3153V12.8313C14.6057 10.8394 12.9944 9.22461 11.0068 9.22461Z" fill="#6990FF"/>
<path d="M11.0068 22.9072H6.53242C4.54478 22.9072 2.93347 24.522 2.93347 26.5139V30.9979C2.93347 32.9898 4.54478 34.6046 6.53242 34.6046H11.0068C12.9944 34.6046 14.6057 32.9898 14.6057 30.9979V26.5139C14.6057 24.522 12.9944 22.9072 11.0068 22.9072Z" fill="#4B4D51"/>
<path d="M8.7696 48.2926C11.9928 48.2926 14.6057 45.6741 14.6057 42.4439C14.6057 39.2138 11.9928 36.5952 8.7696 36.5952C5.5464 36.5952 2.93347 39.2138 2.93347 42.4439C2.93347 45.6741 5.5464 48.2926 8.7696 48.2926Z" fill="#4B4D51"/>
<path d="M4.56656 6.20779C5.4685 6.20779 6.19966 5.47505 6.19966 4.57118C6.19966 3.6673 5.4685 2.93457 4.56656 2.93457C3.66463 2.93457 2.93347 3.6673 2.93347 4.57118C2.93347 5.47505 3.66463 6.20779 4.56656 6.20779Z" fill="#4B4D51"/>
<path d="M8.77982 6.20779C9.68175 6.20779 10.4129 5.47505 10.4129 4.57118C10.4129 3.6673 9.68175 2.93457 8.77982 2.93457C7.87789 2.93457 7.14673 3.6673 7.14673 4.57118C7.14673 5.47505 7.87789 6.20779 8.77982 6.20779Z" fill="#4B4D51"/>
<path d="M12.9931 6.20779C13.895 6.20779 14.6262 5.47505 14.6262 4.57118C14.6262 3.6673 13.895 2.93457 12.9931 2.93457C12.0911 2.93457 11.36 3.6673 11.36 4.57118C11.36 5.47505 12.0911 6.20779 12.9931 6.20779Z" fill="#4B4D51"/>
<path d="M49.3716 9.22461H22.377C21.7436 9.22461 21.2302 9.73913 21.2302 10.3738V13.1032C21.2302 13.7379 21.7436 14.2524 22.377 14.2524H49.3716C50.005 14.2524 50.5184 13.7379 50.5184 13.1032V10.3738C50.5184 9.73913 50.005 9.22461 49.3716 9.22461Z" fill="#4B4D51"/>
<path d="M25.5817 35.1587C28.1659 35.1587 30.2609 33.0593 30.2609 30.4695C30.2609 27.8797 28.1659 25.7803 25.5817 25.7803C22.9975 25.7803 20.9026 27.8797 20.9026 30.4695C20.9026 33.0593 22.9975 35.1587 25.5817 35.1587Z" fill="#6990FF"/>
<path d="M48.9825 28.9512H33.6857C33.3232 29.0072 32.9926 29.1913 32.7539 29.4703C32.5151 29.7493 32.3838 30.1048 32.3838 30.4723C32.3838 30.8399 32.5151 31.1954 32.7539 31.4744C32.9926 31.7534 33.3232 31.9375 33.6857 31.9935H48.9825C49.345 31.9375 49.6756 31.7534 49.9144 31.4744C50.1531 31.1954 50.2844 30.8399 50.2844 30.4723C50.2844 30.1048 50.1531 29.7493 49.9144 29.4703C49.6756 29.1913 49.345 29.0072 48.9825 28.9512V28.9512Z" fill="#4B4D51"/>
<path d="M48.2147 2.87805H22.4026C22.1671 2.86522 21.9315 2.90063 21.7101 2.9821C21.4887 3.06358 21.2862 3.18943 21.115 3.35195C20.9437 3.51447 20.8074 3.71027 20.7141 3.92738C20.6209 4.14449 20.5729 4.37836 20.5729 4.61471C20.5729 4.85105 20.6209 5.08492 20.7141 5.30203C20.8074 5.51914 20.9437 5.71494 21.115 5.87746C21.2862 6.03999 21.4887 6.16583 21.7101 6.24731C21.9315 6.32879 22.1671 6.36419 22.4026 6.35136H48.2147C48.4502 6.36419 48.6858 6.32879 48.9072 6.24731C49.1286 6.16583 49.331 6.03999 49.5023 5.87746C49.6735 5.71494 49.8099 5.51914 49.9031 5.30203C49.9963 5.08492 50.0444 4.85105 50.0444 4.61471C50.0444 4.37836 49.9963 4.14449 49.9031 3.92738C49.8099 3.71027 49.6735 3.51447 49.5023 3.35195C49.331 3.18943 49.1286 3.06358 48.9072 2.9821C48.6858 2.90063 48.4502 2.86522 48.2147 2.87805Z" fill="#292B2F"/>
<path d="M151.704 58.3998H69.7264C68.9226 58.3998 68.7844 57.7482 68.7844 56.9478V40.9973C68.7844 40.197 68.9226 39.5454 69.7264 39.5454H151.704C152.088 39.5454 152.456 39.6984 152.728 39.9707C153 40.243 153.152 40.6123 153.152 40.9973V56.9478C153.152 57.3329 153 57.7022 152.728 57.9745C152.456 58.2468 152.088 58.3998 151.704 58.3998V58.3998Z" fill="#4B4D51"/>
<path d="M25.5817 51.417C28.1659 51.417 30.2609 49.3176 30.2609 46.7278C30.2609 44.138 28.1659 42.0386 25.5817 42.0386C22.9975 42.0386 20.9026 44.138 20.9026 46.7278C20.9026 49.3176 22.9975 51.417 25.5817 51.417Z" fill="#FF78B9"/>
<path d="M48.9825 45.2095H33.6857C33.4658 45.1731 33.2407 45.1852 33.0259 45.2448C32.8112 45.3043 32.6119 45.41 32.442 45.5545C32.2721 45.699 32.1356 45.8788 32.042 46.0815C31.9484 46.2841 31.8999 46.5048 31.8999 46.7281C31.8999 46.9514 31.9484 47.1721 32.042 47.3747C32.1356 47.5774 32.2721 47.7572 32.442 47.9017C32.6119 48.0461 32.8112 48.1518 33.0259 48.2114C33.2407 48.271 33.4658 48.283 33.6857 48.2467H48.9825C49.3416 48.1873 49.6681 48.0021 49.9036 47.7239C50.1391 47.4458 50.2684 47.0929 50.2684 46.7281C50.2684 46.3633 50.1391 46.0104 49.9036 45.7323C49.6681 45.4541 49.3416 45.2689 48.9825 45.2095V45.2095Z" fill="#5A5D60"/>
<path d="M25.5817 67.4756C28.1659 67.4756 30.2609 65.3762 30.2609 62.7864C30.2609 60.1966 28.1659 58.0972 25.5817 58.0972C22.9975 58.0972 20.9026 60.1966 20.9026 62.7864C20.9026 65.3762 22.9975 67.4756 25.5817 67.4756Z" fill="#34F4CF"/>
<path d="M48.9825 61.2676H33.6857C33.4658 61.2312 33.2407 61.2433 33.0259 61.3029C32.8112 61.3625 32.6119 61.4682 32.442 61.6126C32.2721 61.7571 32.1356 61.9369 32.042 62.1396C31.9484 62.3422 31.8999 62.5629 31.8999 62.7862C31.8999 63.0095 31.9484 63.2302 32.042 63.4328C32.1356 63.6355 32.2721 63.8153 32.442 63.9598C32.6119 64.1042 32.8112 64.21 33.0259 64.2695C33.2407 64.3291 33.4658 64.3412 33.6857 64.3048H48.9825C49.3416 64.2454 49.6681 64.0602 49.9036 63.782C50.1391 63.5039 50.2684 63.151 50.2684 62.7862C50.2684 62.4214 50.1391 62.0685 49.9036 61.7904C49.6681 61.5122 49.3416 61.327 48.9825 61.2676Z" fill="#4B4D51"/>
<path d="M25.5817 83.6314C28.1659 83.6314 30.2609 81.5319 30.2609 78.9421C30.2609 76.3524 28.1659 74.2529 25.5817 74.2529C22.9975 74.2529 20.9026 76.3524 20.9026 78.9421C20.9026 81.5319 22.9975 83.6314 25.5817 83.6314Z" fill="#FF78B9"/>
<path d="M48.9825 77.4233H33.6857C33.3232 77.4793 32.9926 77.6635 32.7539 77.9425C32.5151 78.2215 32.3838 78.5769 32.3838 78.9445C32.3838 79.3121 32.5151 79.6675 32.7539 79.9465C32.9926 80.2256 33.3232 80.4097 33.6857 80.4657H48.9825C49.3416 80.4063 49.6681 80.221 49.9036 79.9429C50.1391 79.6648 50.2684 79.3119 50.2684 78.9471C50.2684 78.5823 50.1391 78.2294 49.9036 77.9512C49.6681 77.6731 49.3416 77.4878 48.9825 77.4285V77.4233Z" fill="#4B4D51"/>
<path d="M25.5817 99.792C28.1659 99.792 30.2609 97.6926 30.2609 95.1028C30.2609 92.513 28.1659 90.4136 25.5817 90.4136C22.9975 90.4136 20.9026 92.513 20.9026 95.1028C20.9026 97.6926 22.9975 99.792 25.5817 99.792Z" fill="#6990FF"/>
<path d="M48.9825 93.5791H33.6857C33.3232 93.6351 32.9926 93.8192 32.7539 94.0983C32.5151 94.3773 32.3838 94.7327 32.3838 95.1003C32.3838 95.4679 32.5151 95.8233 32.7539 96.1023C32.9926 96.3813 33.3232 96.5655 33.6857 96.6215H48.9825C49.345 96.5655 49.6756 96.3813 49.9144 96.1023C50.1531 95.8233 50.2844 95.4679 50.2844 95.1003C50.2844 94.7327 50.1531 94.3773 49.9144 94.0983C49.6756 93.8192 49.345 93.6351 48.9825 93.5791Z" fill="#4B4D51"/>
<path d="M49.3716 16.6792H22.377C21.7436 16.6792 21.2302 17.1937 21.2302 17.8284V20.5578C21.2302 21.1925 21.7436 21.707 22.377 21.707H49.3716C50.005 21.707 50.5184 21.1925 50.5184 20.5578V17.8284C50.5184 17.1937 50.005 16.6792 49.3716 16.6792Z" fill="#4B4D51"/>
<path d="M60.8493 48.7495C63.4335 48.7495 65.5285 46.6501 65.5285 44.0603C65.5285 41.4705 63.4335 39.3711 60.8493 39.3711C58.2651 39.3711 56.1702 41.4705 56.1702 44.0603C56.1702 46.6501 58.2651 48.7495 60.8493 48.7495Z" fill="#FF78B9"/>
<path d="M70.2383 61.3345H151.704C152.089 61.3345 152.459 61.488 152.732 61.7612C153.004 62.0345 153.157 62.4051 153.157 62.7915V83.3697C153.157 83.7561 153.004 84.1267 152.732 84.4C152.459 84.6732 152.089 84.8267 151.704 84.8267H69.7264C69.4766 84.8267 69.237 84.7273 69.0603 84.5502C68.8837 84.3732 68.7844 84.1331 68.7844 83.8827V62.7915C68.7844 62.4051 68.9376 62.0345 69.2103 61.7612C69.4829 61.488 69.8527 61.3345 70.2383 61.3345V61.3345Z" fill="#4B4D51"/>
<path d="M60.8493 70.5435C63.4335 70.5435 65.5285 68.444 65.5285 65.8543C65.5285 63.2645 63.4335 61.165 60.8493 61.165C58.2651 61.165 56.1702 63.2645 56.1702 65.8543C56.1702 68.444 58.2651 70.5435 60.8493 70.5435Z" fill="#6990FF"/>
<path d="M65.5285 9.23486C65.4883 10.451 64.978 11.6039 64.1054 12.4499C63.2327 13.296 62.0661 13.769 60.8519 13.769C59.6377 13.769 58.471 13.296 57.5984 12.4499C56.7258 11.6039 56.2154 10.451 56.1753 9.23486H65.5285Z" fill="#34F4CF"/>
<path d="M68.7844 9.23486V35.1538C68.7844 35.9593 68.9226 36.6109 69.7264 36.6109H151.704C152.088 36.6095 152.457 36.4554 152.728 36.1823C153 35.9092 153.152 35.5394 153.152 35.1538V9.23486H68.7844Z" fill="#4B4D51"/>
<path d="M151.509 89.2236H58.5354C57.625 89.2236 56.887 89.9633 56.887 90.8756V96.868C56.887 97.7804 57.625 98.52 58.5354 98.52H151.509C152.42 98.52 153.158 97.7804 153.158 96.868V90.8756C153.158 89.9633 152.42 89.2236 151.509 89.2236Z" fill="#4B4D51"/>
<path d="M63.4704 96.7242C65.082 96.7242 66.3885 95.4149 66.3885 93.7998C66.3885 92.1848 65.082 90.8755 63.4704 90.8755C61.8588 90.8755 60.5524 92.1848 60.5524 93.7998C60.5524 95.4149 61.8588 96.7242 63.4704 96.7242Z" fill="#5A5D60"/>
<path d="M148.914 87.2175C145.361 90.188 139.545 91.9785 132.859 91.9785C132.055 91.9785 131.236 91.9785 130.407 91.8964C129.895 91.8656 129.383 91.8246 128.871 91.7682C125.803 91.4442 122.781 90.7783 119.861 89.7827C119.38 89.6236 118.893 89.4543 118.412 89.2696C115.544 88.1966 112.798 86.8208 110.221 85.1653C109.796 84.8934 109.371 84.6061 108.946 84.3085C106.381 82.5135 104.012 80.4534 101.876 78.1623C101.507 77.7695 101.218 77.3075 101.026 76.8028C100.834 76.2981 100.744 75.7606 100.76 75.2208C100.775 74.681 100.897 74.1496 101.117 73.657C101.338 73.1643 101.653 72.72 102.045 72.3495C102.437 71.9789 102.898 71.6894 103.402 71.4973C103.905 71.3053 104.442 71.2145 104.98 71.2303C105.519 71.246 106.049 71.3679 106.541 71.5889C107.033 71.81 107.476 72.126 107.846 72.5188C109.631 74.4248 111.621 76.1281 113.779 77.5979C114.204 77.8852 114.634 78.1674 115.069 78.4342C117.088 79.6966 119.231 80.7487 121.463 81.574C121.944 81.7536 122.426 81.9229 122.917 82.087C124.754 82.6815 126.638 83.1191 128.549 83.3953C128.994 83.462 129.434 83.5133 129.869 83.5543C130.391 83.6091 130.903 83.6501 131.405 83.6775C137.164 83.9802 141.613 82.6001 143.666 80.8814C144.081 80.5361 144.56 80.2761 145.076 80.1163C145.591 79.9565 146.133 79.9 146.67 79.95C147.207 80.0001 147.729 80.1556 148.206 80.4079C148.684 80.6601 149.107 81.004 149.451 81.4201C149.796 81.8361 150.055 82.3161 150.214 82.8326C150.374 83.3491 150.43 83.892 150.38 84.4303C150.33 84.9687 150.175 85.4919 149.924 85.9701C149.672 86.4483 149.329 86.8722 148.914 87.2175Z" fill="#8CD9FF"/>
<path d="M115.069 78.4544L110.231 85.124C109.806 84.8521 109.381 84.5648 108.956 84.2672L113.779 77.5977C114.204 77.9055 114.634 78.1877 115.069 78.4544Z" fill="#66BCFF"/>
<path d="M122.917 82.0868L119.845 89.7824C119.364 89.6234 118.878 89.4541 118.397 89.2694L121.468 81.5737C121.944 81.7687 122.426 81.938 122.917 82.0868Z" fill="#66BCFF"/>
<path d="M131.41 83.6827L130.386 91.8914C129.874 91.8606 129.362 91.8196 128.85 91.7631L129.849 83.5801C130.388 83.6109 130.908 83.6451 131.41 83.6827Z" fill="#66BCFF"/>
<path d="M105.777 72.5649C106.023 70.7436 105.67 69.107 104.242 67.8039C103.218 66.8342 100.899 66.3725 99.9924 68.0501C99.5573 68.8607 99.931 68.8402 99.931 68.8402L99.1068 70.3793L97.1972 68.9941L95.9583 69.5687C95.4464 70.7949 95.7689 72.8779 97.1409 74.2836C97.9393 75.1113 98.9586 75.6912 100.077 75.9541C101.195 76.2171 102.366 76.1518 103.448 75.7663C104.738 75.2686 105.527 74.3913 105.777 72.5649Z" fill="black"/>
<path d="M62.2418 22.805L108.317 78.1265C108.446 78.2818 108.544 78.4611 108.604 78.6542C108.664 78.8473 108.686 79.0504 108.668 79.2519C108.65 79.4535 108.592 79.6494 108.499 79.8287C108.405 80.0079 108.277 80.167 108.122 80.2966C107.967 80.4263 107.788 80.5242 107.595 80.5846C107.403 80.645 107.2 80.6667 106.999 80.6486C106.798 80.6305 106.602 80.5729 106.423 80.4791C106.245 80.3852 106.086 80.257 105.956 80.1017V80.1017L61.0643 23.7695C60.9551 23.6115 60.9093 23.418 60.936 23.2277C60.9628 23.0373 61.0601 22.864 61.2086 22.7424C61.3572 22.6207 61.546 22.5596 61.7374 22.5712C61.9289 22.5828 62.109 22.6663 62.2418 22.805V22.805Z" fill="#FFE75C"/>
<path d="M103.128 69.5695C103.521 68.6965 103.133 67.6696 102.262 67.2758C101.391 66.882 100.366 67.2704 99.9732 68.1434C99.5803 69.0164 99.9679 70.0434 100.839 70.4372C101.71 70.831 102.735 70.4425 103.128 69.5695Z" fill="black"/>
<path d="M100.34 71.2772C100.076 71.1792 99.791 71.1476 99.5111 71.1848C99.4626 71.1934 99.4127 71.1899 99.3659 71.1747C99.319 71.1595 99.2765 71.133 99.2422 71.0976C99.2079 71.0622 99.1827 71.0189 99.1689 70.9715C99.1551 70.9241 99.1531 70.8741 99.163 70.8257C99.2396 70.5331 99.2396 70.2256 99.163 69.933C99.0663 69.584 98.8636 69.2738 98.5831 69.0455C98.3025 68.8172 97.958 68.6821 97.5973 68.6589C97.2366 68.6357 96.8777 68.7256 96.5703 68.9161C96.2629 69.1066 96.0224 69.3882 95.8819 69.722C95.7415 70.0557 95.7083 70.425 95.7868 70.7785C95.8653 71.1321 96.0517 71.4524 96.3201 71.6949C96.5884 71.9375 96.9255 72.0904 97.2845 72.1323C97.6435 72.1742 98.0066 72.103 98.3234 71.9287C98.1782 72.1376 98.0813 72.3763 98.0396 72.6275C97.998 72.8786 98.0128 73.1359 98.0828 73.3806C98.1646 73.6648 98.3176 73.9232 98.5272 74.1314C98.7368 74.3395 98.996 74.4905 99.2803 74.57C99.5645 74.6495 99.8643 74.6548 100.151 74.5854C100.438 74.5161 100.702 74.3743 100.919 74.1737C101.136 73.9731 101.298 73.7202 101.39 73.4392C101.482 73.1581 101.5 72.8582 101.444 72.568C101.387 72.2777 101.258 72.0067 101.067 71.7808C100.877 71.5549 100.632 71.3815 100.356 71.2772H100.34Z" fill="black"/>
<path d="M179.343 106.867C179.076 109.906 177.683 112.734 175.438 114.795C173.193 116.855 170.26 117.999 167.215 118H145.565C142.521 118 139.587 116.857 137.342 114.796C135.097 112.735 133.704 109.906 133.438 106.867C133.39 106.355 133.378 105.841 133.402 105.328C133.439 104.284 133.611 103.249 133.914 102.249L138.306 84.3904C138.945 82.2825 140.243 80.4366 142.01 79.1255C143.776 77.8144 145.917 77.1079 148.115 77.1104H164.64C166.839 77.1079 168.979 77.8144 170.746 79.1255C172.512 80.4366 173.811 82.2825 174.449 84.3904L178.842 102.249C179.145 103.249 179.317 104.284 179.354 105.328C179.386 105.84 179.383 106.355 179.343 106.867V106.867Z" fill="url(#paint0_linear_511_30905)"/>
<path d="M179.343 106.867H133.438C133.39 106.355 133.378 105.841 133.402 105.328H179.374C179.4 105.841 179.389 106.355 179.343 106.867V106.867Z" fill="#ED5F00"/>
<path d="M158.758 79.291L158.646 79.4603C158.413 79.8201 158.23 80.2102 158.103 80.6197C157.945 81.0962 157.865 81.5952 157.867 82.0973V95.4364C157.813 96.0175 157.543 96.5572 157.113 96.95C156.682 97.3428 156.12 97.5605 155.538 97.5604H143.456C143.109 97.5606 142.767 97.4834 142.453 97.3346C142.14 97.1857 141.864 96.9689 141.644 96.6998C141.425 96.4307 141.268 96.1161 141.184 95.7787C141.101 95.4413 141.094 95.0896 141.163 94.749L143.62 82.7694C143.849 81.6581 144.453 80.6599 145.33 79.943C146.208 79.2262 147.305 78.8346 148.437 78.8344H158.523C158.577 78.8316 158.63 78.8444 158.677 78.8714C158.724 78.8984 158.762 78.9384 158.787 78.9866C158.812 79.0348 158.823 79.0891 158.817 79.1431C158.812 79.197 158.792 79.2484 158.758 79.291V79.291Z" fill="#FF8C19"/>
<path d="M158.103 80.6199C157.945 81.0963 157.865 81.5954 157.867 82.0975V95.4366C157.813 96.0177 157.543 96.5574 157.113 96.9502C156.682 97.343 156.12 97.5606 155.538 97.5606H144.367C144.074 97.2977 143.854 96.9625 143.729 96.5882C143.604 96.2138 143.579 95.8134 143.656 95.4263L145.734 84.4677C146.246 81.7383 147.854 80.5942 150.137 80.5942L158.103 80.6199Z" fill="#FFE75C"/>
<path d="M207.372 98.1197C207.011 98.5192 206.575 98.8436 206.089 99.0743C205.603 99.3049 205.076 99.4374 204.539 99.4641C204.002 99.4907 203.465 99.4111 202.958 99.2298C202.452 99.0484 201.986 98.7688 201.587 98.407C200.388 97.3194 199.11 96.323 197.763 95.4262C197.338 95.1389 196.908 94.8619 196.468 94.6002C194.324 93.2976 192.064 92.2 189.715 91.3219C189.239 91.1372 188.753 90.9679 188.266 90.8088C185.874 89.997 183.408 89.418 180.905 89.0799C180.393 89.0081 179.881 88.9465 179.369 88.9055C177.246 88.701 175.108 88.7234 172.99 88.9722C171.911 89.1021 170.825 88.7973 169.971 88.1247C169.116 87.4522 168.564 86.467 168.434 85.386C168.304 84.3049 168.608 83.2165 169.279 82.3602C169.951 81.5039 170.934 80.9498 172.012 80.8199C174.718 80.4985 177.45 80.4675 180.162 80.7275C180.674 80.7686 181.186 80.825 181.698 80.8917C184.833 81.2914 187.92 82.0047 190.913 83.0209C191.4 83.1799 191.881 83.3492 192.362 83.5339C195.279 84.6106 198.085 85.9661 200.742 87.5818C201.183 87.8486 201.613 88.1256 202.043 88.4078C203.832 89.5791 205.529 90.8878 207.116 92.3223C207.917 93.0572 208.394 94.0808 208.442 95.1679C208.49 96.2551 208.105 97.3168 207.372 98.1197V98.1197Z" fill="#8CD9FF"/>
<path d="M202.012 88.4076L197.763 95.426C197.338 95.1387 196.908 94.8616 196.468 94.6L200.712 87.5713C201.152 87.8483 201.582 88.1254 202.012 88.4076Z" fill="#66BCFF"/>
<path d="M192.331 83.5338L189.715 91.3218C189.239 91.1371 188.753 90.9678 188.266 90.8087L190.882 83.0259C191.369 83.1798 191.85 83.3491 192.331 83.5338Z" fill="#66BCFF"/>
<path d="M181.668 80.8915L180.905 89.1001C180.393 89.0283 179.881 88.9668 179.369 88.9257L180.142 80.7529C180.654 80.7683 181.161 80.8248 181.668 80.8915Z" fill="#66BCFF"/>
<path d="M214.109 95.3029C209.686 93.2507 205.324 94.954 205.145 95.0258L205.099 95.0515C205.034 95.0799 204.971 95.1125 204.91 95.149L204.838 95.1951L204.782 95.2311C204.741 95.2618 204.71 95.2978 204.674 95.3285L204.623 95.3696C204.562 95.4361 204.506 95.5064 204.454 95.5799L204.428 95.6158C204.388 95.6825 204.352 95.7492 204.316 95.8211V95.8724C204.285 95.9492 204.259 96.028 204.239 96.1084C204.201 96.298 204.201 96.4934 204.239 96.683V96.7086C204.237 96.7479 204.237 96.7873 204.239 96.8266C204.695 98.7962 204.84 100.825 204.669 102.839C204.632 103.246 204.757 103.65 205.018 103.963C205.278 104.277 205.651 104.474 206.056 104.512H206.2C206.584 104.514 206.955 104.371 207.24 104.111C207.524 103.852 207.701 103.495 207.736 103.111C207.836 101.963 207.844 100.808 207.761 99.6586C208.652 100.327 209.496 101.053 210.29 101.834C210.581 102.106 210.966 102.254 211.364 102.247C211.762 102.24 212.142 102.078 212.423 101.796C212.705 101.514 212.866 101.134 212.873 100.735C212.88 100.336 212.732 99.9504 212.461 99.6586C211.627 98.8308 210.74 98.0595 209.804 97.3499C210.851 97.3856 211.881 97.6279 212.835 98.0631C213.205 98.2345 213.627 98.2516 214.01 98.1107C214.393 97.9697 214.704 97.6822 214.875 97.3115C215.046 96.9407 215.063 96.517 214.922 96.1336C214.781 95.7501 214.495 95.4384 214.125 95.267L214.109 95.3029Z" fill="black"/>
<path d="M150.219 31.4189L150.803 27.8789C151.13 25.8986 152.907 24.3441 154.775 24.4108L164.379 24.7442C168.05 24.8725 169.683 27.017 171.92 31.6293L150.219 31.4189Z" fill="#66BCFF"/>
<path d="M125.072 46.2455C124.458 50.2011 125.968 53.7719 128.482 54.5415C128.588 54.5807 128.698 54.6099 128.81 54.6287H128.871H128.932C130.939 54.8236 133.028 51.7556 133.683 47.6564C134.339 43.5572 133.248 39.9608 131.287 39.499H131.211H131.164C131.05 39.4912 130.936 39.4912 130.821 39.499C128.205 39.381 125.687 42.2951 125.072 46.2455Z" fill="#FFE75C"/>
<path d="M187.749 55.8653C187.022 60.4826 185.584 68.0398 179.671 70.6101C176.65 71.9235 171.761 72.6623 165.05 72.9958C164.61 72.9958 161.338 72.1646 161.338 72.1646L150.864 70.4511C150.864 70.4511 151.227 72.8265 147.931 72.2108C142.192 71.1437 137.026 69.3429 134.533 67.6447C132.275 66.1056 128.39 63.0273 127.637 58.3586C127.187 55.6498 127.448 51.6891 128.185 47.0153C128.775 43.2153 129.781 39.4921 131.185 35.913C132.368 32.9271 135.741 30.5927 138.864 29.9668C145.474 28.6052 152.225 28.0522 158.968 28.3199C165.339 28.5672 171.664 29.5169 177.828 31.1519C184.673 32.9835 187.703 38.2986 188.338 41.2897C189.418 46.2354 188.481 51.2479 187.749 55.8653Z" fill="url(#paint1_linear_511_30905)"/>
<path d="M165.05 72.996C162.886 73.0986 160.533 73.1585 157.99 73.1756C154.621 73.1703 151.26 72.8474 147.951 72.2111C146.732 71.1335 145.726 69.835 144.987 68.3838C144.393 67.1986 145.427 66.6292 146.333 66.7933L147.357 66.9729C150.873 67.4943 154.421 67.7805 157.975 67.8297H159.705C161.343 67.9477 162.075 68.4402 162.659 69.6715C163.524 71.5236 164.077 72.2111 165.05 72.996Z" fill="#FFE75C"/>
<path d="M177.797 49.2522C177.43 51.6344 176.788 53.9657 175.883 56.1988C175.45 57.2351 174.778 58.1534 173.922 58.8778C173.066 59.6022 172.05 60.1119 170.958 60.3647C167.686 61.0984 161.937 61.9346 153.511 61.555C145.084 61.1753 140.047 59.7696 137.031 58.8307L136.857 58.7743C133.606 57.6969 132.905 55.3831 133.678 50.0525C134.451 44.722 135.388 41.1666 136.11 39.3864C136.96 37.2983 138.004 35.831 140.205 35.282C144.214 34.3124 149.057 33.3838 157.483 33.8352C166.094 34.297 171.377 35.5847 174.377 36.6005C176.379 37.2778 177.838 38.7553 178.053 40.8793V41.0538C178.32 43.7862 178.234 46.5418 177.797 49.2522V49.2522Z" fill="#ED5F00"/>
<path d="M177.797 49.252C177.43 51.6342 176.788 53.9655 175.883 56.1986C175.45 57.2349 174.779 58.1532 173.922 58.8776C173.066 59.602 172.05 60.1117 170.958 60.3645C167.686 61.0982 161.937 61.9344 153.511 61.5548C145.084 61.1751 140.047 59.7694 137.031 58.8305L136.857 58.7741C135.777 57.435 135.639 55.3059 136.135 51.8942C136.888 46.7637 137.774 43.3571 138.47 41.6333C139.284 39.6273 140.287 38.2216 142.381 37.7137C146.236 36.7799 150.884 35.8872 158.978 36.3233C167.246 36.7645 172.325 38.001 175.197 38.9757C176.356 39.3321 177.36 40.0741 178.043 41.0792C178.311 43.8028 178.228 46.5496 177.797 49.252V49.252Z" fill="black"/>
<path d="M148.549 46.2642C149.431 45.5139 149.597 44.2597 148.922 43.4629C148.246 42.6661 146.984 42.6284 146.103 43.3787C145.222 44.129 145.055 45.3832 145.73 46.1801C146.406 46.9769 147.668 47.0146 148.549 46.2642Z" fill="#57F287"/>
<path d="M167.467 47.3194C168.348 46.5691 168.515 45.3149 167.84 44.5181C167.164 43.7213 165.902 43.6836 165.021 44.4339C164.14 45.1842 163.973 46.4384 164.648 47.2352C165.324 48.0321 166.586 48.0697 167.467 47.3194Z" fill="#57F287"/>
<path d="M150.127 48.8672C149.986 49.6278 150.01 50.41 150.198 51.1603C150.386 51.9106 150.734 52.6115 151.217 53.2149C151.7 53.8184 152.307 54.3102 152.997 54.6569C153.687 55.0036 154.444 55.197 155.216 55.2238C156.869 55.2832 158.488 54.7408 159.774 53.6968C161.059 52.6528 161.924 51.1778 162.209 49.5444L150.127 48.8672Z" fill="#57F287"/>
<path d="M191.691 52.5408C192.306 48.5904 190.795 45.0196 188.282 44.25C188.176 44.2091 188.066 44.1782 187.954 44.1577H187.882C187.862 44.1554 187.841 44.1554 187.821 44.1577V44.1577C185.814 43.9576 183.726 47.0256 183.07 51.1248C182.415 55.224 183.505 58.8205 185.466 59.2873H185.543H185.589C185.703 59.3002 185.818 59.3002 185.932 59.2873C188.558 59.4053 191.077 56.4964 191.691 52.5408Z" fill="#FFE75C"/>
</g>
<defs>
<linearGradient id="paint0_linear_511_30905" x1="156.388" y1="136.526" x2="156.388" y2="60.3749" gradientUnits="userSpaceOnUse">
<stop offset="0.12" stop-color="#FFC619"/>
<stop offset="0.2" stop-color="#FFBB19"/>
<stop offset="0.33" stop-color="#FF9F19"/>
<stop offset="0.41" stop-color="#FF8C19"/>
<stop offset="0.83" stop-color="#ED5F00"/>
</linearGradient>
<linearGradient id="paint1_linear_511_30905" x1="157.033" y1="28.4841" x2="160.416" y2="97.2518" gradientUnits="userSpaceOnUse">
<stop stop-color="#FFC619"/>
<stop offset="0.12" stop-color="#FFBB19"/>
<stop offset="0.32" stop-color="#FF9F19"/>
<stop offset="0.44" stop-color="#FF8C19"/>
<stop offset="0.54" stop-color="#F87A0F"/>
<stop offset="0.73" stop-color="#ED5F00"/>
</linearGradient>
<clipPath id="clip0_511_30905">
<rect width="215" height="118" fill="white"/>
</clipPath>
</defs>
</svg>
