<svg width="48" height="48" viewBox="0 0 48 48" fill="none" xmlns="http://www.w3.org/2000/svg">
<circle cx="24.5001" cy="24.5" r="17.5" fill="#FF78B9"/>
<path d="M28.5449 20.586V18.3336C28.5528 17.7918 28.454 17.2538 28.254 16.7503C28.0539 16.2468 27.7567 15.7876 27.3792 15.399C27.0017 15.0104 26.5514 14.6999 26.0539 14.4853C25.5564 14.2708 25.0215 14.1563 24.4798 14.1485C23.9375 14.1397 23.3988 14.2379 22.8945 14.4375C22.3902 14.6371 21.9302 14.9342 21.5409 15.3118C21.1515 15.6894 20.8405 16.14 20.6255 16.6379C20.4105 17.1359 20.2959 17.6713 20.288 18.2136L20.2547 20.3928C20.2197 21.8362 19.7377 23.2333 18.8752 24.3913C17.8724 25.7766 17.4405 27.4945 17.669 29.1894C17.8411 30.5653 18.4466 31.8507 19.3979 32.8595C20.3492 33.8683 21.5969 34.5482 22.9604 34.8006C24.2494 35.0547 25.5848 34.9222 26.7988 34.4195C28.0127 33.9169 29.051 33.0666 29.7831 31.9756C30.5152 30.8846 30.9084 29.6015 30.9134 28.2876C30.9184 26.9737 30.5349 25.6877 29.8111 24.5912C28.9919 23.4158 28.5502 22.0187 28.5449 20.586Z" fill="black"/>
<path d="M26.9719 44.9503C26.7356 44.9433 26.5115 44.8436 26.3482 44.6728C26.1848 44.5019 26.0953 44.2737 26.0989 44.0373L26.4121 30.8024C26.4138 30.6848 26.4389 30.5688 26.4858 30.461C26.5328 30.3533 26.6008 30.2559 26.6858 30.1747C26.7707 30.0934 26.871 30.0299 26.9808 29.9878C27.0905 29.9457 27.2076 29.9258 27.3251 29.9294C27.5625 29.9363 27.7876 30.0369 27.9511 30.2092C28.1147 30.3815 28.2034 30.6115 28.1981 30.849L27.8915 44.0773C27.8845 44.3147 27.7839 44.5398 27.6116 44.7034C27.4393 44.8669 27.2094 44.9557 26.9719 44.9503Z" fill="black"/>
<path d="M22.0142 44.9496C21.7813 44.9479 21.5581 44.8561 21.3915 44.6932C21.225 44.5304 21.1281 44.3094 21.1212 44.0766L20.8146 30.8483C20.8116 30.731 20.8316 30.6143 20.8737 30.5048C20.9157 30.3952 20.9789 30.2951 21.0597 30.21C21.1404 30.1249 21.2372 30.0566 21.3444 30.0088C21.4515 29.9611 21.567 29.935 21.6843 29.9319C21.8016 29.9289 21.9183 29.9489 22.0278 29.991C22.1373 30.033 22.2375 30.0962 22.3226 30.177C22.4077 30.2578 22.476 30.3545 22.5237 30.4617C22.5714 30.5688 22.5976 30.6843 22.6006 30.8016L22.9072 44.0366C22.9098 44.1538 22.8894 44.2705 22.8469 44.3799C22.8045 44.4892 22.7409 44.5891 22.6598 44.6739C22.5788 44.7587 22.4818 44.8267 22.3744 44.874C22.2671 44.9213 22.1515 44.947 22.0342 44.9496H22.0142Z" fill="black"/>
<path d="M20.6079 25.4104H20.5613C17.7157 25.2505 15.5166 23.7511 15.0901 21.6852C14.8901 20.7189 14.8568 18.2598 18.8353 16.2672C18.9403 16.2147 19.0546 16.1834 19.1718 16.1751C19.2889 16.1668 19.4065 16.1816 19.5179 16.2187C19.6293 16.2559 19.7322 16.3146 19.8209 16.3915C19.9096 16.4684 19.9823 16.5621 20.0348 16.6671C20.0873 16.7721 20.1186 16.8864 20.127 17.0036C20.1353 17.1207 20.1205 17.2383 20.0833 17.3497C20.0462 17.4611 19.9875 17.564 19.9106 17.6527C19.8337 17.7414 19.74 17.8141 19.635 17.8666C17.6357 18.8663 16.5961 20.1524 16.8427 21.3253C17.0893 22.4982 18.6687 23.5112 20.6613 23.6244C20.8981 23.6315 21.1224 23.7324 21.2849 23.9048C21.4474 24.0773 21.5347 24.3073 21.5276 24.5441C21.5205 24.7809 21.4197 25.0053 21.2472 25.1677C21.0747 25.3302 20.8448 25.4175 20.6079 25.4104Z" fill="black"/>
<path d="M43.0711 9.19489L38.1233 7.60156L35.5392 15.6259L40.487 17.2192L43.0711 9.19489Z" fill="#3E70DD"/>
<path d="M41.393 6.69757L39.0072 14.3147L30.3439 11.5224L32.7896 3.92529L41.393 6.69757Z" fill="#7191FA"/>
<path d="M23.56 31.8552C23.4937 31.8652 23.4263 31.8652 23.36 31.8552C23.2022 31.7976 23.0719 31.6825 22.9953 31.533C22.9187 31.3835 22.9014 31.2105 22.9469 31.0488L32.1967 2.33307C32.2763 2.20892 32.3948 2.11468 32.5337 2.06512C32.6726 2.01556 32.8241 2.01348 32.9643 2.0592C33.1045 2.10492 33.2256 2.19587 33.3086 2.31779C33.3915 2.4397 33.4317 2.58571 33.4229 2.73292L24.1664 31.442C24.1168 31.5626 24.033 31.6661 23.9252 31.7396C23.8174 31.813 23.6904 31.8532 23.56 31.8552Z" fill="#CCD0E3"/>
<path d="M23.56 31.8551C23.4937 31.8651 23.4263 31.8651 23.36 31.8551C23.2022 31.7975 23.0719 31.6825 22.9953 31.5329C22.9187 31.3834 22.9014 31.2105 22.9469 31.0487L25.3859 23.4183C25.3893 23.3152 25.4166 23.2143 25.4657 23.1235C25.5148 23.0327 25.5842 22.9546 25.6686 22.8952C25.753 22.8359 25.85 22.7969 25.952 22.7815C26.0541 22.766 26.1583 22.7744 26.2565 22.8061C26.3547 22.8377 26.4442 22.8918 26.5179 22.9639C26.5917 23.036 26.6477 23.1243 26.6815 23.2218C26.7154 23.3193 26.7261 23.4233 26.7129 23.5256C26.6997 23.6279 26.6629 23.7258 26.6055 23.8115L24.1597 31.4019C24.117 31.529 24.0368 31.6403 23.9298 31.7212C23.8228 31.802 23.6939 31.8487 23.56 31.8551Z" fill="#7196FF"/>
<path d="M28.6647 30.0555C27.4153 30.044 26.1732 29.8624 24.9728 29.5157C24.8586 29.4886 24.7508 29.4393 24.6557 29.3705C24.5606 29.3017 24.4799 29.2149 24.4184 29.1149C24.3568 29.015 24.3155 28.9039 24.2969 28.788C24.2782 28.6721 24.2826 28.5537 24.3097 28.4395C24.3368 28.3253 24.3862 28.2175 24.455 28.1224C24.5237 28.0273 24.6106 27.9466 24.7105 27.885C24.8105 27.8235 24.9216 27.7822 25.0374 27.7635C25.1533 27.7449 25.2718 27.7493 25.386 27.7764C26.3789 28.0096 28.718 28.5628 29.1246 28.0963C29.2045 28.003 29.5577 27.4299 28.5648 24.7642C28.5236 24.654 28.5046 24.5367 28.5088 24.419C28.513 24.3014 28.5403 24.1858 28.5892 24.0787C28.6381 23.9717 28.7076 23.8753 28.7937 23.7951C28.8799 23.7149 28.981 23.6525 29.0912 23.6113C29.2015 23.5702 29.3188 23.5512 29.4364 23.5554C29.554 23.5596 29.6697 23.5869 29.7767 23.6358C29.8838 23.6847 29.9801 23.7542 30.0603 23.8403C30.1405 23.9264 30.203 24.0275 30.2441 24.1378C31.2371 26.8034 31.3037 28.3495 30.464 29.3025C30.2299 29.5422 29.95 29.7324 29.6409 29.8618C29.3318 29.9912 28.9998 30.0571 28.6647 30.0555Z" fill="#1F1F1F"/>
<path d="M32.9096 3.3591C33.5611 3.3591 34.0892 2.831 34.0892 2.17955C34.0892 1.5281 33.5611 1 32.9096 1C32.2582 1 31.7301 1.5281 31.7301 2.17955C31.7301 2.831 32.2582 3.3591 32.9096 3.3591Z" fill="#7196FF"/>
<path d="M39.0078 14.3149L35.5358 15.6278L36.2488 13.4286L39.0078 14.3149Z" fill="#2F5DD1"/>
<path d="M37.2018 8.67064L37.3418 8.09086C37.3766 7.95039 37.3834 7.80442 37.3617 7.66134C37.34 7.51825 37.2902 7.38085 37.2153 7.25703C37.1404 7.1332 37.0418 7.02538 36.9251 6.93975C36.8084 6.85412 36.676 6.79237 36.5354 6.75803C36.3949 6.7232 36.249 6.71644 36.1059 6.73814C35.9628 6.75984 35.8254 6.80958 35.7016 6.88449C35.5778 6.95941 35.4699 7.05803 35.3843 7.1747C35.2987 7.29137 35.2369 7.4238 35.2026 7.56439L35.0626 8.13084C34.9712 8.50343 34.7634 8.83722 34.4695 9.08381C34.131 9.386 33.9192 9.80493 33.8764 10.2567C33.8415 10.6231 33.9232 10.9911 34.1099 11.3083C34.2966 11.6254 34.5787 11.8755 34.916 12.0227C35.153 12.1275 35.4101 12.1792 35.6692 12.1739C35.9283 12.1687 36.1831 12.1067 36.4156 11.9923C36.6481 11.878 36.8528 11.714 37.0151 11.512C37.1774 11.31 37.2935 11.0749 37.3551 10.8232C37.4376 10.4755 37.4144 10.1112 37.2885 9.77688C37.1455 9.42605 37.1152 9.03944 37.2018 8.67064Z" fill="#202225"/>
<path d="M37.8587 6.99082L35.8312 6.07239L35.5094 6.78262L37.5369 7.70105L37.8587 6.99082Z" fill="#FFD836"/>
<path d="M37.3791 6.77337L37.0856 5.99377L36.2997 6.28962L36.5932 7.06922L37.3791 6.77337Z" fill="#FFD836"/>
<path d="M13.5582 8.74639L13.0412 9.81688C13.0142 9.87171 13.005 9.93365 13.0149 9.99399C13.0248 10.0543 13.0533 10.1101 13.0964 10.1533C13.1395 10.1965 13.195 10.2251 13.2552 10.2351C13.3153 10.245 13.377 10.2358 13.4317 10.2087L14.4987 9.72308C14.5366 9.70569 14.5779 9.69669 14.6197 9.69669C14.6614 9.69669 14.7027 9.70569 14.7407 9.72308L15.8076 10.2363C15.8623 10.2634 15.924 10.2726 15.9842 10.2627C16.0443 10.2527 16.0998 10.2241 16.1429 10.1809C16.186 10.1376 16.2146 10.0819 16.2245 10.0216C16.2344 9.96124 16.2251 9.8993 16.1981 9.84447L15.6866 8.77398C15.6676 8.73439 15.6578 8.69101 15.6578 8.64707C15.6578 8.60312 15.6676 8.55974 15.6866 8.52015L16.1981 7.44966C16.2284 7.39725 16.2417 7.33671 16.2362 7.27639C16.2307 7.21607 16.2067 7.15894 16.1675 7.11291C16.1282 7.06688 16.0757 7.0342 16.0172 7.0194C15.9586 7.00461 15.8969 7.00841 15.8406 7.03029L14.7407 7.54347C14.7012 7.56254 14.658 7.57244 14.6142 7.57244C14.5704 7.57244 14.5271 7.56254 14.4877 7.54347L13.4207 7.03029C13.366 7.00319 13.3043 6.99395 13.2442 7.00388C13.184 7.01381 13.1285 7.04241 13.0854 7.08566C13.0423 7.1289 13.0138 7.18462 13.0039 7.24496C12.994 7.30531 13.0032 7.36725 13.0302 7.42207L13.5472 8.49256C13.5679 8.53132 13.5797 8.57427 13.5816 8.61822C13.5835 8.66216 13.5755 8.70598 13.5582 8.74639Z" fill="#4CD964"/>
<path d="M37.8819 22.447C37.8819 22.2001 37.6837 22 37.4392 22C37.1947 22 36.9965 22.2001 36.9965 22.447V22.8884C36.9965 23.1353 37.1947 23.3354 37.4392 23.3354C37.6837 23.3354 37.8819 23.1353 37.8819 22.8884V22.447Z" fill="white"/>
<path d="M37.8819 26.006C37.8819 25.7592 37.6837 25.5591 37.4392 25.5591C37.1947 25.5591 36.9965 25.7592 36.9965 26.006V26.4475C36.9965 26.6943 37.1947 26.8944 37.4392 26.8944C37.6837 26.8944 37.8819 26.6943 37.8819 26.4475V26.006Z" fill="white"/>
<path d="M39.4274 24.886C39.6735 24.886 39.8729 24.6871 39.8729 24.4418C39.8729 24.1964 39.6735 23.9976 39.4274 23.9976H38.9874C38.7414 23.9976 38.542 24.1964 38.542 24.4418C38.542 24.6871 38.7414 24.886 38.9874 24.886H39.4274Z" fill="white"/>
<path d="M35.8854 24.8914C36.1315 24.8914 36.3309 24.6926 36.3309 24.4473C36.3309 24.2019 36.1315 24.0031 35.8854 24.0031H35.4455C35.1994 24.0031 35 24.2019 35 24.4473C35 24.6926 35.1994 24.8914 35.4455 24.8914H35.8854Z" fill="white"/>
<path d="M7.22945 38.2263L7.22556 38.2302C7.10099 38.3552 7.10099 38.5579 7.22556 38.6828L7.45502 38.9131C7.57959 39.038 7.78157 39.038 7.90614 38.9131L7.91003 38.9092C8.0346 38.7842 8.0346 38.5815 7.91003 38.4565L7.68058 38.2263C7.556 38.1014 7.35403 38.1014 7.22945 38.2263Z" fill="#FA6EF6"/>
<path d="M9.04439 40.0512L9.0405 40.0551C8.91593 40.1801 8.91593 40.3827 9.04051 40.5077L9.26996 40.7379C9.39453 40.8629 9.59651 40.8629 9.72108 40.7379L9.72497 40.734C9.84955 40.609 9.84955 40.4064 9.72497 40.2814L9.49552 40.0512C9.37095 39.9262 9.16897 39.9262 9.04439 40.0512Z" fill="#FA6EF6"/>
<path d="M9.72506 38.2324L9.72117 38.2285C9.59659 38.1035 9.39462 38.1035 9.27004 38.2285L9.04059 38.4587C8.91602 38.5837 8.91602 38.7863 9.04059 38.9113L9.04448 38.9152C9.16905 39.0402 9.37103 39.0402 9.4956 38.9152L9.72506 38.685C9.84963 38.56 9.84963 38.3574 9.72506 38.2324Z" fill="#FA6EF6"/>
<path d="M7.91549 40.0572L7.9116 40.0533C7.78702 39.9283 7.58505 39.9283 7.46047 40.0533L7.23102 40.2835C7.10645 40.4085 7.10645 40.6112 7.23102 40.7362L7.23491 40.7401C7.35948 40.865 7.56146 40.865 7.68603 40.7401L7.91549 40.5098C8.04006 40.3849 8.04006 40.1822 7.91549 40.0572Z" fill="#FA6EF6"/>
</svg>
