<svg fill="none" height="88" width="168" xmlns="http://www.w3.org/2000/svg"><path d="m85.212 88c22.131 0 40.057-17.925 40.057-40.057 0-22.13-17.926-40.056-40.057-40.056s-40.057 17.925-40.057 40.056c0 22.132 17.926 40.057 40.057 40.057z" fill="#3e70dd" fill-opacity=".4"/><path d="m119.46 30.269 32.396-5.708-10.014 13.218c-1.953 2.604-4.807 4.306-8.011 4.907l-22.782 4.006-.651-3.555z" fill="#dae2ed"/><path d="m109.546 26.964 47.918-8.462c.401-.05.701.4.451.7l-3.055 4.157c-.35.45-.851.8-1.452.901l-1.552.25-32.396 5.708-8.962 12.819.651 3.555.45 2.653-10.114 14.47-5.658-11.666-1.102-6.209 11.967-17.074c.601-.9 1.653-1.552 2.854-1.802z" fill="#eceff6"/><path d="m110.448 43.087 9.012-12.818 32.396-5.708-2.003 2.653-29.141 5.158-8.311 11.866.35 2.153-1.652.3z" fill="#c5cedd"/><path d="m151.405 23.659c.852 0 1.503-.65 1.503-1.502 0-.851-.651-1.502-1.503-1.502-.851 0-1.502.65-1.502 1.502 0 .851.651 1.502 1.502 1.502zm-38.053 10.715c.851 0 1.502-.65 1.502-1.502 0-.851-.651-1.502-1.502-1.502s-1.502.651-1.502 1.502.651 1.502 1.502 1.502zm-2.854 4.056c.851 0 1.502-.65 1.502-1.502 0-.851-.651-1.502-1.502-1.502s-1.502.65-1.502 1.502c0 .851.651 1.502 1.502 1.502zm-59.484-8.161-32.396-5.709 10.014 13.218c1.953 2.604 4.807 4.306 8.011 4.907l22.783 4.006.65-3.555-9.062-12.868z" fill="#dae2ed"/><path d="m60.928 26.964-47.918-8.412c-.4-.05-.701.4-.45.7l3.054 4.157c.35.45.85.8 1.452.9l1.552.251 32.396 5.708 8.962 12.818-.65 3.555-.451 2.654 10.114 14.47 5.658-11.665 1.102-6.209-11.967-17.074c-.601-.951-1.653-1.602-2.854-1.852z" fill="#eceff6"/><path d="m59.976 43.087-8.962-12.818-32.396-5.708 2.003 2.653 29.09 5.158 8.363 11.866-.4 2.153 1.702.3z" fill="#c5cedd"/><path d="m19.069 23.659c.85 0 1.502-.65 1.502-1.502 0-.851-.651-1.502-1.502-1.502-.852 0-1.502.65-1.502 1.502 0 .851.65 1.502 1.502 1.502zm38.053 10.715c.851 0 1.502-.65 1.502-1.502 0-.851-.65-1.502-1.502-1.502-.851 0-1.502.651-1.502 1.502s.651 1.502 1.502 1.502zm2.854 4.056c.852 0 1.502-.65 1.502-1.502 0-.851-.65-1.502-1.502-1.502-.85 0-1.502.65-1.502 1.502 0 .851.651 1.502 1.502 1.502z" fill="#dae2ed"/><path d="m41.5 4.282-1.252 2.653c-.3.601.35 1.252.952.952l2.653-1.252c.2-.1.451-.1.651 0l2.654 1.252c.601.3 1.252-.35.952-.952l-1.252-2.653c-.1-.2-.1-.451 0-.651l1.202-2.604c.3-.6-.351-1.252-.952-.951l-2.654 1.251c-.2.1-.45.1-.65 0l-2.654-1.251c-.601-.3-1.252.35-.952.951l1.252 2.654c.15.2.15.4.05.6z" fill="#aec7ff"/><path d="m132.279 69.824-1.252 2.654c-.301.601.35 1.252.951.952l2.654-1.252c.2-.1.451-.1.651 0l2.654 1.252c.6.3 1.251-.351.951-.952l-1.252-2.654c-.1-.2-.1-.45 0-.65l1.252-2.654c.3-.601-.351-1.252-.951-.952l-2.654 1.252c-.2.1-.451.1-.651 0l-2.654-1.252c-.601-.3-1.252.35-.951.952l1.252 2.654c.1.2.1.45 0 .65z" fill="#7196ff"/><path d="m147.55 51.95c-.551 0-1.001-.452-1.001-1.002v-1.002c0-.55.45-1.001 1.001-1.001s1.002.45 1.002 1.001v1.002c0 .55-.451 1.001-1.002 1.001zm0 8.01c-.551 0-1.001-.45-1.001-1.001v-1.002c0-.55.45-1 1.001-1s1.002.45 1.002 1v1.002c0 .55-.451 1.001-1.002 1.001zm2.504-5.507c0-.551.45-1.002 1.001-1.002h1.001c.551 0 1.002.45 1.002 1.002 0 .55-.451 1.001-1.002 1.001h-1.001c-.551 0-1.001-.45-1.001-1.001zm-8.012 0c0-.551.451-1.002 1.002-1.002h1.001c.551 0 1.001.45 1.001 1.002 0 .55-.45 1.001-1.001 1.001h-1.001c-.551 0-1.002-.45-1.002-1.001z" fill="#aec7ff"/><path d="m5.56 30.944c-.55 0-1-.45-1-1.002v-1.001c0-.55.45-1.002 1-1.002.552 0 1.002.451 1.002 1.002v1.001c0 .551-.45 1.002-1.001 1.002zm0 8.011c-.55 0-1-.45-1-1.001v-1.001c0-.551.45-1.002 1-1.002.552 0 1.002.45 1.002 1.002v1.001c0 .55-.45 1.001-1.001 1.001zm2.504-5.507c0-.551.45-1.002 1.002-1.002h1.001c.55 0 1.002.45 1.002 1.002 0 .55-.451 1.001-1.002 1.001h-1.001c-.551 0-1.002-.45-1.002-1.001zm-8.011 0c0-.551.45-1.002 1.001-1.002h1.002c.55 0 1.001.45 1.001 1.002 0 .55-.45 1.001-1.001 1.001h-1.002c-.55 0-1.001-.45-1.001-1.001z" fill="#3e70dd"/><path d="m85.112 12.644-20.63 20.629v29.04l20.63 20.63 20.629-20.63v-29.04l-20.63-20.63zm10.365 45.314-10.365 10.364-10.315-10.314v-20.53l10.315-10.264 10.314 10.316.05 20.429z" fill="#fa6ef6"/><path d="m85.112 12.644v14.57l10.314 10.316 10.315-4.306-20.63-20.58z" fill="#ffadfb"/><path d="m74.797 58.007-10.314 4.256 20.629 20.63v-14.571z" fill="#e655d4"/><path d="m74.797 37.529v20.478l10.315 10.315 10.314-10.315v-20.477l-10.314-10.316z" fill="#ffcff9"/><path d="m95.426 37.529v.05l-20.579 20.479h-.05v-5.558l17.825-17.775zm0 7.761v5.658l-13.82 13.82-2.853-2.855z" fill="#fff"/></svg>