<svg width="375" height="187" viewBox="0 0 375 187" fill="none" xmlns="http://www.w3.org/2000/svg">
<rect width="375" height="187" fill="#5865F2"/>
<mask id="mask0_587_53816" style="mask-type:alpha" maskUnits="userSpaceOnUse" x="0" y="0" width="375" height="187">
<rect width="375" height="187" fill="#5865F2"/>
</mask>
<g mask="url(#mask0_587_53816)">
<path d="M321.416 61.475C320.594 60.9468 319.894 60.2493 319.363 59.4288C318.832 58.6084 318.481 57.6839 318.335 56.7171L317.825 53.3438C317.816 53.2609 317.776 53.1844 317.713 53.1301C317.661 53.0614 317.585 53.015 317.5 53C317.418 53.0072 317.34 53.0397 317.277 53.0929C317.22 53.1503 317.184 53.2258 317.175 53.3067L316.656 56.7171C316.515 57.6905 316.167 58.6222 315.635 59.4491C315.098 60.2619 314.396 60.9522 313.575 61.475L313.139 61.7537C313.093 61.7844 313.054 61.8258 313.028 61.8745C312.991 61.9766 312.991 62.0884 313.028 62.1905C313.054 62.2392 313.093 62.2806 313.139 62.3113L313.575 62.5901C314.4 63.1236 315.102 63.8268 315.635 64.6531C316.167 65.48 316.515 66.4117 316.656 67.3851L317.175 70.7212C317.186 70.8008 317.226 70.8736 317.287 70.9256C317.347 70.9745 317.422 71.0008 317.5 71C317.577 70.9993 317.652 70.9732 317.713 70.9256C317.774 70.8736 317.814 70.8008 317.825 70.7212L318.335 67.3851C318.476 66.4117 318.824 65.48 319.356 64.6528C319.887 63.8256 320.59 63.1222 321.416 62.5901L321.861 62.3113C321.907 62.2806 321.946 62.2392 321.972 62.1905C322.009 62.0884 322.009 61.9766 321.972 61.8745C321.946 61.8258 321.907 61.7844 321.861 61.7537L321.416 61.475Z" fill="#7196FF"/>
<path d="M148.545 33.1208C147.906 32.7394 147.362 32.2356 146.949 31.643C146.536 31.0505 146.263 30.3828 146.15 29.6846L145.753 27.2483C145.746 27.1885 145.715 27.1332 145.666 27.094C145.625 27.0444 145.566 27.0108 145.5 27C145.436 27.0052 145.376 27.0287 145.327 27.0671C145.282 27.1085 145.254 27.1631 145.247 27.2215L144.843 29.6846C144.734 30.3876 144.463 31.0605 144.049 31.6577C143.632 32.2447 143.086 32.7432 142.447 33.1208L142.108 33.3221C142.072 33.3443 142.042 33.3742 142.021 33.4094C141.993 33.4831 141.993 33.5638 142.021 33.6376C142.042 33.6727 142.072 33.7027 142.108 33.7248L142.447 33.9262C143.089 34.3115 143.635 34.8194 144.049 35.4161C144.463 36.0134 144.734 36.6863 144.843 37.3893L145.247 39.7986C145.256 39.8561 145.287 39.9087 145.334 39.9463C145.381 39.9816 145.44 40.0006 145.5 40C145.56 39.9995 145.618 39.9806 145.666 39.9463C145.713 39.9087 145.744 39.8561 145.753 39.7986L146.15 37.3893C146.259 36.6862 146.53 36.0133 146.943 35.4159C147.357 34.8185 147.903 34.3105 148.545 33.9262L148.892 33.7248C148.928 33.7027 148.958 33.6727 148.979 33.6376C149.007 33.5638 149.007 33.4831 148.979 33.4094C148.958 33.3742 148.928 33.3443 148.892 33.3221L148.545 33.1208Z" fill="#7196FF"/>
<path d="M230.437 158.446C229.61 157.915 228.906 157.212 228.374 156.385C227.841 155.558 227.493 154.627 227.351 153.653L226.842 150.307C226.83 150.223 226.789 150.147 226.727 150.09C226.699 150.061 226.665 150.039 226.628 150.023C226.591 150.008 226.551 150 226.511 150C226.471 150 226.431 150.008 226.394 150.023C226.357 150.039 226.323 150.061 226.295 150.09C226.234 150.147 226.196 150.224 226.187 150.307L225.671 153.653C225.524 154.624 225.175 155.553 224.647 156.381C224.115 157.209 223.412 157.914 222.585 158.446L222.14 158.726C222.094 158.758 222.059 158.802 222.038 158.854C222.012 158.903 221.999 158.958 222 159.013C222 159.067 222.013 159.119 222.038 159.166C222.059 159.218 222.094 159.262 222.14 159.294L222.585 159.574C223.411 160.108 224.114 160.812 224.647 161.639C225.175 162.466 225.524 163.396 225.671 164.367L226.187 167.713C226.198 167.792 226.236 167.864 226.295 167.917C226.355 167.969 226.432 167.998 226.511 168C226.591 168 226.668 167.97 226.727 167.917C226.79 167.867 226.831 167.793 226.842 167.713L227.351 164.367C227.493 163.393 227.841 162.462 228.374 161.635C228.906 160.808 229.61 160.105 230.437 159.574L230.882 159.294C230.928 159.26 230.965 159.217 230.99 159.166C231.003 159.116 231.003 159.063 230.99 159.013C231.003 158.961 231.003 158.906 230.99 158.854C230.965 158.803 230.928 158.759 230.882 158.726L230.437 158.446Z" fill="#7196FF"/>
<path d="M71.1862 82.1996C69.9917 81.4326 68.9756 80.4176 68.2066 79.2232C67.4376 78.0287 66.9337 76.6828 66.729 75.2764L65.9938 70.443C65.9765 70.3226 65.918 70.212 65.8283 70.13C65.7874 70.0888 65.7387 70.0561 65.685 70.0338C65.6314 70.0115 65.5739 70 65.5159 70C65.4578 70 65.4003 70.0115 65.3467 70.0338C65.2931 70.0561 65.2444 70.0888 65.2034 70.13C65.1165 70.2129 65.0612 70.3236 65.0472 70.443L64.3028 75.2764C64.0905 76.6791 63.5865 78.0216 62.8232 79.2167C62.0557 80.4134 61.0402 81.4308 59.8456 82.1996L59.2023 82.6047C59.1365 82.6505 59.0854 82.7144 59.0552 82.7888C59.0175 82.8595 58.9985 82.9388 59.0001 83.019C58.9997 83.0961 59.0187 83.172 59.0552 83.2399C59.0854 83.3143 59.1365 83.3782 59.2023 83.424L59.8456 83.8291C61.0382 84.6004 62.0533 85.6172 62.8232 86.812C63.5865 88.0071 64.0905 89.3496 64.3028 90.7523L65.0472 95.5857C65.0631 95.6993 65.1184 95.8036 65.2034 95.8803C65.291 95.9546 65.4012 95.9968 65.5159 96C65.6312 96 65.7424 95.9574 65.8283 95.8803C65.9195 95.8073 65.9788 95.7017 65.9938 95.5857L66.729 90.7523C66.9337 89.3459 67.4376 88 68.2066 86.8055C68.9756 85.6111 69.9917 84.5961 71.1862 83.8291L71.8295 83.424C71.8956 83.3762 71.9492 83.313 71.9857 83.2399C72.004 83.1674 72.004 83.0915 71.9857 83.019C72.0048 82.9434 72.0048 82.8643 71.9857 82.7888C71.9492 82.7157 71.8956 82.6525 71.8295 82.6047L71.1862 82.1996Z" fill="#7196FF"/>
<g clip-path="url(#clip0_587_53816)">
<path d="M361.022 51.3737C370.406 47.8653 380.651 52.0647 383.901 60.756C385.117 64.0259 385.221 67.6062 384.196 70.9452C383.757 72.4089 383.123 73.8081 382.313 75.1051C381.655 76.1829 380.882 77.1866 380.008 78.0986C379.056 79.0987 377.999 79.9916 376.853 80.7617C374.306 82.4679 371.396 83.556 368.355 83.9388C366.985 84.1094 365.601 84.1295 364.227 83.9988C362.969 83.8841 361.727 83.6336 360.523 83.2521C359.06 82.8049 357.665 82.1643 356.373 81.3478C353.409 79.5002 351.138 76.7302 349.911 73.4642C346.661 64.7729 351.639 54.882 361.022 51.3737Z" fill="#F9A83D"/>
<path fill-rule="evenodd" clip-rule="evenodd" d="M356.349 81.3538C353.382 79.5075 351.11 76.7384 349.883 73.4727L351.24 77.1039C352.458 80.341 354.702 83.0909 357.633 84.9363L356.316 81.4142L356.349 81.3538ZM383.924 60.745C385.141 64.0148 385.243 67.5954 384.215 70.9354L384.279 70.9593L385.596 74.4814C386.597 71.1656 386.487 67.6178 385.282 64.3763L383.924 60.745ZM385.596 74.4816L384.279 70.9595L384.214 70.9355C383.774 72.3996 383.139 73.7992 382.327 75.0968L382.327 75.0969C381.667 76.1752 380.893 77.1793 380.017 78.0919L380.017 78.0918C379.064 79.0925 378.004 79.9862 376.856 80.7569L378.173 84.279L378.236 84.3727C379.378 83.6042 380.432 82.713 381.379 81.7149C382.262 80.7961 383.043 79.7849 383.708 78.6986C384.525 77.3837 385.16 75.9651 385.596 74.4816ZM378.236 84.3727C376.959 85.2313 375.586 85.9369 374.144 86.4751C372.703 87.0147 371.204 87.3832 369.677 87.5728C368.311 87.7421 366.931 87.7609 365.562 87.6285C364.293 87.5123 363.04 87.2616 361.825 86.8806L360.487 83.3039L360.504 83.2562C361.709 83.6371 362.953 83.887 364.212 84.0011L364.212 84.001C365.588 84.131 366.974 84.1102 368.346 83.9388C369.864 83.7499 371.355 83.3824 372.787 82.844C374.221 82.3108 375.587 81.6101 376.856 80.7569L378.173 84.2791L378.236 84.3727ZM356.349 81.3539C357.642 82.1699 359.04 82.8098 360.504 83.2562L360.487 83.3039L361.824 86.8807C360.345 86.4243 358.935 85.7703 357.633 84.9364L356.316 81.4143L356.349 81.3539Z" fill="#FFD06C"/>
<path d="M380.255 62.1187C377.755 55.4316 369.751 52.2455 362.378 55.0022C355.004 57.7589 351.054 65.4145 353.554 72.1016C356.055 78.7888 364.058 81.9749 371.432 79.2181C378.805 76.4614 382.755 68.8059 380.255 62.1187Z" fill="#FFD06C"/>
<path d="M377.033 63.279C378.943 68.3892 376.024 74.3102 370.346 76.4328C364.669 78.5554 358.581 76.0023 356.671 70.8921C354.76 65.7819 357.68 59.861 363.357 57.7384C369.034 55.6158 375.122 58.1688 377.033 63.279Z" stroke="#FEBC1F" stroke-width="1.2"/>
<path d="M370.99 63.9824C370.859 63.817 370.641 63.746 370.435 63.8025L367.646 64.5676L365.65 62.482C365.503 62.3292 365.28 62.2784 365.081 62.3528C364.882 62.4273 364.747 62.6121 364.736 62.824L364.598 65.7072L361.99 66.96C361.799 67.0523 361.681 67.2484 361.69 67.4597C361.699 67.671 361.833 67.8564 362.032 67.9305L364.737 68.9475L365.121 71.8081C365.149 72.0184 365.3 72.1905 365.505 72.2462C365.615 72.2762 365.729 72.27 365.831 72.2317C365.919 72.1986 365.998 72.1422 366.059 72.0659L367.87 69.8117L370.714 70.3257C370.922 70.364 371.133 70.2744 371.251 70.0978C371.369 69.9207 371.37 69.6921 371.254 69.5152L369.667 67.1043L371.041 64.5624C371.142 64.3758 371.122 64.1481 370.99 63.9824Z" fill="#F9A83D"/>
<path d="M357.748 84.2407C358.829 83.3057 360.459 83.4183 361.394 84.4926C360.928 83.9564 360.723 83.2792 360.769 82.6228C360.818 81.9667 361.118 81.3244 361.658 80.8577C361.118 81.3244 360.438 81.5302 359.78 81.4865C359.122 81.4392 358.478 81.1419 358.011 80.6057C358.478 81.1419 358.683 81.8192 358.637 82.4755C358.587 83.1316 358.287 83.774 357.748 84.2407Z" fill="white"/>
</g>
<path d="M300.931 -5.38191L298.554 -0.297082C297.412 2.1729 297.858 5.42356 300.18 8.86745C304.794 15.6815 315.057 20.6458 323.105 19.9578C327.11 19.6078 329.804 17.929 330.941 15.4974L333.393 10.2312C333.374 10.2785 333.348 10.3263 333.322 10.3666C334.56 7.88852 334.139 4.57497 331.776 1.08121C327.16 -5.74797 316.889 -10.7192 308.842 -10.0237C304.748 -9.66625 302.016 -7.91568 300.931 -5.38191ZM314.324 -0.641165L316.485 0.426341L318.213 -0.0224908C318.526 -0.102033 318.982 0.110997 319.168 0.384724C319.211 0.457279 319.246 0.530383 319.245 0.606628L319.331 2.1444L321.219 3.52395C321.314 3.59211 321.379 3.66278 321.43 3.73471C321.615 4.00835 321.488 4.27776 321.107 4.25641L318.999 4.1358L318.433 5.43879C318.309 5.74605 317.646 5.64161 317.318 5.26565L315.939 3.65328L313.705 3.07135C313.439 3.00225 313.226 2.84505 313.108 2.67984C312.998 2.51393 312.992 2.33945 313.14 2.23572L314.386 1.35518L313.563 -0.295983C313.367 -0.690634 313.828 -0.888902 314.324 -0.641165Z" fill="#F9A83D"/>
<path d="M314.324 -0.641193L316.485 0.426313L318.213 -0.0225188C318.526 -0.101983 318.982 0.110969 319.168 0.384696C319.211 0.457251 319.247 0.530355 319.245 0.6066L319.331 2.14437L321.219 3.52393C321.314 3.59208 321.379 3.66275 321.43 3.73468C321.615 4.0084 321.488 4.27774 321.107 4.25638L318.999 4.13577L318.433 5.43876C318.309 5.74602 317.646 5.64158 317.318 5.26562L315.939 3.65325L313.705 3.07132C313.439 3.00222 313.226 2.84502 313.109 2.67981C312.999 2.5139 312.992 2.33942 313.14 2.23569L314.387 1.35523L313.563 -0.296011C313.368 -0.690662 313.828 -0.88893 314.324 -0.641193Z" fill="#F9A83D"/>
<path d="M314.324 -0.641193L316.485 0.426313L318.213 -0.0225188C318.526 -0.101983 318.982 0.110969 319.168 0.384696C319.211 0.457251 319.247 0.530355 319.245 0.6066L319.331 2.14437L321.219 3.52393C321.314 3.59208 321.379 3.66275 321.43 3.73468C321.615 4.0084 321.488 4.27774 321.107 4.25638L318.999 4.13577L318.433 5.43876C318.309 5.74602 317.646 5.64158 317.318 5.26562L315.939 3.65325L313.705 3.07132C313.439 3.00222 313.226 2.84502 313.109 2.67981C312.999 2.5139 312.992 2.33942 313.14 2.23569L314.387 1.35523L313.563 -0.296011C313.368 -0.690662 313.828 -0.88893 314.324 -0.641193Z" fill="#F9A83D"/>
<path d="M301.013 -5.5603C299.858 -3.08962 300.313 0.159619 302.637 3.60061C307.246 10.4162 317.515 15.3932 325.562 14.6943C329.556 14.3518 332.253 12.6653 333.393 10.2306L330.946 15.4938C329.805 17.9285 327.108 19.6064 323.106 19.9583C315.059 20.6484 304.799 15.6793 300.182 8.86448C297.858 5.42357 297.411 2.17355 298.557 -0.296357L301.013 -5.5603Z" fill="#FFD06C"/>
<path d="M302.633 3.59868C298.016 -3.2281 300.797 -9.32638 308.844 -10.0226C316.891 -10.7188 327.157 -5.74917 331.774 1.07758C336.387 7.89917 333.606 13.9974 325.559 14.6937C317.512 15.3898 307.246 10.4203 302.633 3.59868ZM327.88 1.41499C324.499 -3.58498 316.961 -7.23391 311.075 -6.72461C305.181 -6.21471 303.139 -1.73704 306.52 3.263C309.897 8.25707 317.435 11.906 323.329 11.3961C329.216 10.8868 331.258 6.40914 327.88 1.41499Z" fill="#F9A83D"/>
<path d="M311.074 -6.72802C316.964 -7.23844 324.495 -3.58673 327.879 1.41693C330.237 4.89961 329.959 8.12702 327.576 9.93279C326.542 10.7193 325.11 11.2429 323.332 11.3916C317.432 11.9027 309.902 8.25996 306.519 3.26525C304.838 0.776109 304.5 -1.58316 305.321 -3.38406C306.123 -5.21023 308.111 -6.47135 311.074 -6.72802Z" fill="#FFD06C"/>
<path d="M326.482 4.65045C326.594 6.05325 326.08 7.29868 324.952 8.1541C324.122 8.78471 322.99 9.17662 321.681 9.28608C317.288 9.66589 311.663 6.94761 309.142 3.22505C307.882 1.36007 307.562 -0.486137 308.241 -1.97743C308.905 -3.48811 310.496 -4.42908 312.722 -4.62178C317.111 -5.00212 322.734 -2.27769 325.256 1.45218C325.994 2.54183 326.401 3.63744 326.482 4.65045ZM308.648 -0.0247414C308.718 0.853919 309.09 1.81424 309.752 2.79357C312.138 6.3163 317.462 8.89025 321.619 8.53007C322.791 8.43215 323.791 8.09136 324.51 7.54446C326.128 6.3196 326.18 4.15019 324.646 1.88373C322.259 -1.64708 316.938 -4.22578 312.784 -3.86596C310.84 -3.69745 309.466 -2.91443 308.916 -1.66137C308.689 -1.16457 308.601 -0.6124 308.648 -0.0247414Z" fill="#FEBC1F"/>
<path d="M313.112 2.68086C312.999 2.5147 312.99 2.34023 313.139 2.23729L314.385 1.35548L313.56 -0.296618C313.364 -0.688521 313.825 -0.889144 314.321 -0.639915L316.486 0.423899L318.21 -0.0221838C318.529 -0.103925 318.981 0.113424 319.165 0.385816C319.213 0.456172 319.243 0.530219 319.248 0.603715L319.331 2.14455L321.223 3.52418C321.312 3.59038 321.38 3.66128 321.428 3.73195C321.613 4.0056 321.491 4.27571 321.103 4.25506L318.996 4.13547L318.429 5.43572C318.31 5.74298 317.644 5.63996 317.32 5.26391L315.937 3.65044L313.705 3.07433C313.44 3.00476 313.224 2.84701 313.112 2.68086Z" fill="#F9A83D"/>
<path d="M309.967 7.37378C310.112 9.19195 311.668 10.5428 313.445 10.3942C312.558 10.4683 311.781 10.9051 311.246 11.546C310.715 12.1898 310.42 13.0447 310.492 13.9522C310.42 13.0447 309.993 12.2502 309.366 11.7032C308.737 11.1596 307.901 10.8576 307.014 10.9318C307.901 10.8576 308.678 10.4209 309.212 9.78001C309.744 9.13613 310.039 8.28126 309.967 7.37378Z" fill="white"/>
<g clip-path="url(#clip1_587_53816)">
<path d="M202.239 114.276C208.483 111.941 215.301 114.735 217.463 120.519C218.273 122.695 218.342 125.077 217.66 127.299C217.367 128.273 216.946 129.204 216.407 130.068C215.969 130.785 215.454 131.453 214.873 132.06C214.24 132.725 213.536 133.319 212.773 133.832C211.079 134.967 209.142 135.691 207.118 135.946C206.207 136.059 205.286 136.073 204.371 135.986C203.534 135.909 202.708 135.743 201.907 135.489C200.933 135.191 200.005 134.765 199.145 134.222C197.173 132.992 195.662 131.149 194.845 128.976C192.683 123.192 195.995 116.61 202.239 114.276Z" fill="#F9A83D"/>
<path fill-rule="evenodd" clip-rule="evenodd" d="M199.129 134.226C197.155 132.997 195.643 131.154 194.826 128.981L195.73 131.398C196.54 133.552 198.033 135.382 199.984 136.61L199.107 134.266L199.129 134.226ZM217.479 120.512C218.288 122.688 218.356 125.07 217.672 127.293L217.715 127.309L218.591 129.652C219.258 127.446 219.184 125.085 218.382 122.928L217.479 120.512ZM218.591 129.653L217.715 127.309L217.672 127.293C217.379 128.267 216.957 129.199 216.416 130.062L216.416 130.062C215.977 130.78 215.462 131.448 214.879 132.055L214.879 132.055C214.245 132.721 213.539 133.316 212.776 133.828L213.652 136.172L213.694 136.235C214.454 135.723 215.155 135.13 215.785 134.466C216.373 133.855 216.893 133.182 217.335 132.459C217.879 131.584 218.301 130.64 218.591 129.653ZM213.694 136.235C212.844 136.806 211.93 137.275 210.971 137.634C210.012 137.993 209.014 138.238 207.998 138.364C207.089 138.477 206.171 138.489 205.26 138.401C204.415 138.324 203.581 138.157 202.773 137.903L201.883 135.523L201.894 135.492C202.696 135.745 203.523 135.911 204.362 135.987L204.362 135.987C205.277 136.074 206.199 136.06 207.112 135.946C208.122 135.82 209.114 135.576 210.067 135.217C211.022 134.863 211.931 134.396 212.776 133.828L213.652 136.172L213.694 136.235ZM199.129 134.226C199.99 134.769 200.919 135.195 201.894 135.492L201.883 135.523L202.773 137.903C201.788 137.6 200.85 137.165 199.984 136.61L199.107 134.266L199.129 134.226Z" fill="#FFD06C"/>
<path d="M215.038 121.426C213.374 116.976 208.048 114.856 203.142 116.69C198.235 118.525 195.607 123.619 197.27 128.069C198.934 132.519 204.26 134.639 209.167 132.805C214.073 130.97 216.702 125.876 215.038 121.426Z" fill="#FFD06C"/>
<path d="M212.893 122.198C214.164 125.598 212.221 129.539 208.444 130.951C204.666 132.363 200.615 130.665 199.343 127.264C198.072 123.863 200.015 119.923 203.793 118.511C207.57 117.098 211.622 118.797 212.893 122.198Z" stroke="#FEBC1F" stroke-width="1.25"/>
<path d="M208.873 122.666C208.786 122.556 208.641 122.509 208.504 122.546L206.648 123.055L205.319 121.668C205.222 121.566 205.073 121.532 204.941 121.582C204.808 121.631 204.718 121.754 204.711 121.895L204.619 123.814L202.884 124.647C202.757 124.709 202.678 124.839 202.684 124.98C202.69 125.121 202.779 125.244 202.912 125.293L204.712 125.97L204.967 127.874C204.986 128.013 205.086 128.128 205.223 128.165C205.296 128.185 205.372 128.181 205.44 128.155C205.499 128.133 205.551 128.096 205.592 128.045L206.796 126.545L208.689 126.887C208.828 126.913 208.968 126.853 209.047 126.735C209.125 126.618 209.126 126.465 209.048 126.348L207.992 124.743L208.907 123.052C208.974 122.928 208.961 122.776 208.873 122.666Z" fill="#F9A83D"/>
<path d="M200.059 136.147C200.778 135.525 201.863 135.6 202.485 136.314C202.175 135.958 202.039 135.507 202.069 135.07C202.102 134.634 202.302 134.206 202.661 133.896C202.302 134.206 201.849 134.343 201.411 134.314C200.973 134.283 200.545 134.085 200.234 133.728C200.545 134.085 200.681 134.535 200.651 134.972C200.618 135.409 200.418 135.836 200.059 136.147Z" fill="white"/>
</g>
<g clip-path="url(#clip2_587_53816)">
<path d="M226.733 81.31L223.201 74.2458C221.503 70.8138 222.048 66.2549 225.263 61.3844C231.656 51.7473 246.159 44.5754 257.66 45.3625C263.383 45.7648 267.272 48.0554 268.963 51.4338L272.607 58.7501C272.579 58.6844 272.541 58.6181 272.502 58.5623C274.338 62.0033 273.829 66.6498 270.557 71.5909C264.162 81.2493 249.648 88.4309 238.148 87.6333C232.298 87.2225 228.351 84.8323 226.733 81.31ZM245.707 74.3827L248.76 72.8416L251.238 73.432C251.687 73.5364 252.332 73.2283 252.589 72.8412C252.648 72.7387 252.697 72.6356 252.693 72.5289L252.772 70.3749L255.428 68.403C255.561 68.3055 255.652 68.2051 255.722 68.1035C255.979 67.7164 255.79 67.3421 255.247 67.3804L252.243 67.5953L251.4 65.784C251.214 65.3568 250.271 65.5173 249.814 66.0506L247.892 68.3373L244.721 69.2006C244.343 69.3031 244.043 69.5277 243.88 69.7615C243.728 69.9961 243.724 70.2404 243.938 70.3824L245.741 71.5873L244.612 73.9162C244.344 74.4728 245.006 74.7403 245.707 74.3827Z" fill="#F9A83D"/>
<path d="M245.708 74.3826L248.762 72.8415L251.239 73.4318C251.689 73.5362 252.333 73.2282 252.59 72.841C252.65 72.7386 252.698 72.6355 252.694 72.5288L252.774 70.3748L255.429 68.4029C255.563 68.3054 255.654 68.2051 255.723 68.1033C255.981 67.7162 255.791 67.3421 255.248 67.3802L252.244 67.5952L251.401 65.7839C251.215 65.3566 250.272 65.5173 249.815 66.0506L247.893 68.3372L244.722 69.2005C244.345 69.303 244.045 69.5276 243.882 69.7615C243.729 69.996 243.725 70.2403 243.939 70.3822L245.742 71.5873L244.613 73.9161C244.345 74.4728 245.008 74.7403 245.708 74.3826Z" fill="#F9A83D"/>
<path d="M245.708 74.3826L248.762 72.8415L251.239 73.4318C251.689 73.5362 252.333 73.2282 252.59 72.841C252.65 72.7386 252.698 72.6355 252.694 72.5288L252.774 70.3748L255.429 68.4029C255.563 68.3054 255.654 68.2051 255.723 68.1033C255.981 67.7162 255.791 67.3421 255.248 67.3802L252.244 67.5952L251.401 65.7839C251.215 65.3566 250.272 65.5173 249.815 66.0506L247.893 68.3372L244.722 69.2005C244.345 69.303 244.045 69.5276 243.882 69.7615C243.729 69.996 243.725 70.2403 243.939 70.3822L245.742 71.5873L244.613 73.9161C244.345 74.4728 245.008 74.7403 245.708 74.3826Z" fill="#F9A83D"/>
<path d="M226.854 81.5575C225.138 78.125 225.696 73.5677 228.916 68.7013C235.3 59.0623 249.811 51.8725 261.31 52.6747C267.018 53.0669 270.912 55.3682 272.607 58.7507L268.969 51.4383C267.274 48.0558 263.379 45.7666 257.66 45.3615C246.16 44.5715 231.662 51.7499 225.266 61.3881C222.046 66.2544 221.5 70.8126 223.203 74.2443L226.854 81.5575Z" fill="#FFD06C"/>
<path d="M228.91 68.7037C222.515 78.3587 226.652 86.8326 238.151 87.6311C249.651 88.4296 264.157 81.2504 270.553 71.5954C276.944 61.948 272.806 53.474 261.307 52.6755C249.807 51.877 235.301 59.0562 228.91 68.7037ZM264.989 71.2083C260.305 78.2797 249.654 83.5511 241.241 82.9669C232.819 82.382 229.781 76.1601 234.465 69.0887C239.144 62.0257 249.795 56.7543 258.218 57.3392C266.63 57.9234 269.668 64.1453 264.989 71.2083Z" fill="#F9A83D"/>
<path d="M241.239 82.9717C249.657 83.5574 260.299 78.2823 264.986 71.2057C268.252 66.2802 267.767 61.7695 264.317 59.2944C262.82 58.2163 260.762 57.5147 258.221 57.3455C249.79 56.7591 239.149 62.0216 234.463 69.0856C232.133 72.6059 231.717 75.9151 232.939 78.4175C234.134 80.9558 237.005 82.6773 241.239 82.9717Z" fill="#FFD06C"/>
<path d="M262.905 66.711C263.025 64.7454 262.258 63.0135 260.625 61.8411C259.422 60.9768 257.797 60.4529 255.926 60.3284C249.649 59.8928 241.7 63.8199 238.208 69.0847C236.461 71.7222 236.057 74.3131 237.068 76.3852C238.056 78.485 240.353 79.767 243.533 79.9882C249.806 80.4245 257.751 76.4889 261.245 71.2138C262.267 69.6728 262.817 68.1304 262.905 66.711ZM237.594 73.6436C237.669 72.4123 238.173 71.0603 239.09 69.6752C242.395 64.6931 249.918 60.9744 255.859 61.3876C257.534 61.4992 258.97 61.9542 260.011 62.7039C262.354 64.3828 262.488 67.4177 260.362 70.6232C257.056 75.6167 249.537 79.3419 243.601 78.929C240.823 78.7357 238.841 77.6698 238.021 75.9282C237.684 75.2379 237.543 74.467 237.594 73.6436Z" fill="#FEBC1F"/>
<path d="M243.886 69.7596C243.73 69.9946 243.723 70.2389 243.937 70.3798L245.739 71.5866L244.609 73.9167C244.34 74.4695 245.003 74.7401 245.703 74.3805L248.763 72.8445L251.235 73.4311C251.692 73.5385 252.331 73.2245 252.586 72.8392C252.652 72.7397 252.692 72.6355 252.697 72.5325L252.774 70.3741L255.434 68.4021C255.559 68.3075 255.655 68.2068 255.721 68.1069C255.977 67.7199 255.795 67.3445 255.242 67.3818L252.24 67.5952L251.395 65.7879C251.217 65.3605 250.269 65.5192 249.818 66.0526L247.889 68.3408L244.721 69.1958C244.345 69.299 244.042 69.5246 243.886 69.7596Z" fill="#F9A83D"/>
<path d="M239.266 63.2606C239.423 60.7129 241.604 58.7884 244.144 58.9576C242.877 58.8731 241.756 58.2789 240.975 57.3937C240.199 56.5041 239.754 55.3142 239.832 54.0426C239.754 55.3142 239.167 56.4355 238.289 57.2147C237.406 57.9892 236.222 58.4301 234.954 58.3456C236.222 58.4301 237.342 59.0243 238.123 59.9097C238.899 60.7991 239.344 61.9891 239.266 63.2606Z" fill="white"/>
</g>
<g clip-path="url(#clip3_587_53816)">
<path d="M148.602 156.654L142.591 160.562C139.685 162.469 138.047 166.299 138.386 171.609C139.082 182.131 147.332 194.473 156.815 199.179C161.539 201.513 165.665 201.516 168.541 199.648L174.755 195.593C174.703 195.632 174.643 195.666 174.586 195.692C177.606 193.842 179.313 189.96 178.96 184.568C178.273 174.029 170.018 161.674 160.531 156.976C155.703 154.591 151.486 154.639 148.602 156.654ZM160.511 170.873L162.234 173.496L164.467 174.18C164.871 174.306 165.243 174.846 165.271 175.269C165.272 175.377 165.263 175.48 165.212 175.562L164.296 177.289L165.508 180.066C165.57 180.204 165.596 180.325 165.605 180.437C165.634 180.86 165.314 181.066 164.9 180.785L162.614 179.225L161.123 180.256C160.781 180.506 160.106 179.943 159.985 179.313L159.499 176.629L157.375 174.483C157.122 174.228 156.986 173.913 156.963 173.654C156.948 173.4 157.056 173.206 157.29 173.194L159.268 173.083L159.43 170.732C159.47 170.172 160.117 170.268 160.511 170.873Z" fill="#F9A83D"/>
<path d="M160.511 170.874L162.234 173.497L164.467 174.18C164.872 174.306 165.243 174.846 165.271 175.269C165.272 175.377 165.264 175.481 165.212 175.562L164.297 177.289L165.508 180.066C165.57 180.204 165.596 180.325 165.606 180.437C165.634 180.86 165.314 181.066 164.9 180.785L162.614 179.226L161.123 180.257C160.781 180.506 160.106 179.943 159.986 179.313L159.499 176.629L157.375 174.484C157.122 174.228 156.986 173.913 156.963 173.654C156.949 173.4 157.056 173.206 157.29 173.194L159.268 173.083L159.43 170.733C159.47 170.172 160.117 170.269 160.511 170.874Z" fill="#F9A83D"/>
<path d="M160.511 170.874L162.234 173.497L164.467 174.18C164.872 174.306 165.243 174.846 165.271 175.269C165.272 175.377 165.264 175.481 165.212 175.562L164.297 177.289L165.508 180.066C165.57 180.204 165.596 180.325 165.606 180.437C165.634 180.86 165.314 181.066 164.9 180.785L162.614 179.226L161.123 180.257C160.781 180.506 160.106 179.943 159.986 179.313L159.499 176.629L157.375 174.484C157.122 174.228 156.986 173.913 156.963 173.654C156.949 173.4 157.056 173.206 157.29 173.194L159.268 173.083L159.43 170.733C159.47 170.172 160.117 170.269 160.511 170.874Z" fill="#F9A83D"/>
<path d="M148.809 156.515C145.889 158.414 144.262 162.249 144.607 167.558C145.295 178.078 153.543 190.437 163.032 195.131C167.739 197.465 171.874 197.462 174.755 195.592L168.547 199.646C165.666 201.516 161.536 201.51 156.814 199.18C147.331 194.476 139.087 182.132 138.389 171.607C138.045 166.298 139.681 162.468 142.592 160.564L148.809 156.515Z" fill="#FFD06C"/>
<path d="M144.605 167.554C143.916 157.017 151.047 152.283 160.534 156.98C170.021 161.676 178.271 174.026 178.96 184.563C179.65 195.092 172.518 199.826 163.031 195.129C153.544 190.432 145.295 178.083 144.605 167.554ZM174.37 182.291C173.865 174.573 167.808 165.506 160.867 162.07C153.919 158.63 148.683 162.106 149.188 169.824C149.693 177.532 155.75 186.599 162.698 190.039C169.638 193.475 174.875 189.999 174.37 182.291Z" fill="#F9A83D"/>
<path d="M160.868 162.065C167.813 165.503 173.861 174.568 174.366 182.291C174.721 187.669 172.287 190.983 168.426 191.328C166.748 191.482 164.797 191.079 162.704 190.036C155.748 186.593 149.695 177.538 149.185 169.825C148.935 165.984 150.108 163.195 152.214 161.797C154.315 160.358 157.374 160.336 160.868 162.065Z" fill="#FFD06C"/>
<path d="M170.672 184.854C169.875 186.453 168.479 187.457 166.651 187.621C165.304 187.742 163.777 187.401 162.236 186.632C157.057 184.068 152.534 177.307 152.154 171.559C151.966 168.681 152.822 166.46 154.565 165.302C156.303 164.112 158.708 164.17 161.331 165.468C166.507 168.03 171.023 174.796 171.4 180.553C171.511 182.235 171.247 183.7 170.672 184.854ZM153.737 167.697C153.238 168.698 153.024 169.993 153.122 171.504C153.482 176.944 157.762 183.344 162.664 185.77C164.044 186.458 165.389 186.766 166.556 186.659C169.177 186.426 170.662 184.107 170.431 180.608C170.076 175.158 165.801 168.754 160.904 166.331C158.612 165.196 156.555 165.115 155.114 166.102C154.533 166.488 154.071 167.028 153.737 167.697Z" fill="#FEBC1F"/>
<path d="M156.966 173.658C156.949 173.402 157.054 173.206 157.288 173.195L159.266 173.082L159.427 170.731C159.465 170.172 160.114 170.267 160.507 170.873L162.237 173.495L164.464 174.179C164.876 174.306 165.24 174.849 165.268 175.269C165.275 175.378 165.259 175.478 165.217 175.561L164.297 177.29L165.512 180.069C165.569 180.202 165.599 180.325 165.606 180.434C165.633 180.856 165.318 181.066 164.897 180.781L162.612 179.224L161.12 180.251C160.784 180.504 160.104 179.94 159.989 179.313L159.498 176.625L157.373 174.487C157.121 174.232 156.983 173.915 156.966 173.658Z" fill="#F9A83D"/>
<path d="M150.348 176.62C149.315 178.691 150.173 181.212 152.265 182.255C151.22 181.734 150.062 181.682 149.04 182.015C148.02 182.354 147.127 183.081 146.611 184.115C147.127 183.081 147.17 181.93 146.827 180.912C146.478 179.895 145.739 179.001 144.695 178.48C145.739 179.001 146.898 179.053 147.919 178.72C148.939 178.382 149.833 177.654 150.348 176.62Z" fill="white"/>
</g>
<path d="M153.401 94.1491C154.38 104.736 147.175 114.059 137.306 114.968C133.595 115.304 129.876 114.414 126.724 112.435C125.339 111.578 124.075 110.54 122.966 109.349C122.04 108.374 121.223 107.304 120.529 106.155C119.766 104.902 119.143 103.57 118.671 102.182C117.628 99.0996 117.325 95.8162 117.785 92.5954C117.994 91.1447 118.362 89.7214 118.883 88.3507C119.354 87.0943 119.961 85.8923 120.693 84.7653C121.564 83.3919 122.616 82.1407 123.821 81.0451C126.557 78.5237 130.05 76.9692 133.76 76.6214C143.629 75.7125 152.422 83.5626 153.401 94.1491Z" fill="#F9A83D"/>
<path fill-rule="evenodd" clip-rule="evenodd" d="M123.821 81.02C126.557 78.4952 130.049 76.9388 133.758 76.5911L129.635 76.9708C125.958 77.3163 122.493 78.8495 119.768 81.3379L123.768 80.9695L123.821 81.02ZM137.31 114.997C133.599 115.332 129.881 114.44 126.728 112.457L126.685 112.517L122.686 112.885C125.821 114.834 129.508 115.708 133.187 115.376L137.31 114.997ZM122.685 112.885L126.685 112.517L126.728 112.457C125.343 111.599 124.079 110.559 122.97 109.366V109.366C122.044 108.39 121.227 107.318 120.533 106.167H120.533C119.769 104.912 119.146 103.578 118.674 102.188L114.675 102.557L114.561 102.595C115.032 103.978 115.654 105.306 116.417 106.553H116.417C117.115 107.714 117.938 108.795 118.87 109.778H118.87C119.996 110.981 121.279 112.026 122.685 112.885ZM114.561 102.595C114.035 101.048 113.694 99.4453 113.544 97.8191C113.393 96.193 113.434 94.555 113.668 92.9384H113.668C113.877 91.4923 114.246 90.0738 114.767 88.7084H114.767C115.243 87.441 115.853 86.2277 116.587 85.0892L120.649 84.7151L120.693 84.7454C119.962 85.8739 119.355 87.0777 118.884 88.3359H118.884C118.363 89.7087 117.995 91.134 117.787 92.5868C117.555 94.1937 117.515 95.8229 117.667 97.4393C117.814 99.0564 118.152 100.651 118.674 102.188L114.675 102.556L114.561 102.595ZM123.821 81.02C122.616 82.1171 121.565 83.37 120.693 84.7454L120.649 84.7151L116.587 85.0892C117.473 83.7013 118.543 82.4393 119.768 81.3379L123.768 80.9696L123.821 81.02Z" fill="#FFD06C"/>
<path d="M136.926 110.857C144.519 110.157 150.05 102.847 149.281 94.5285C148.512 86.2101 141.733 80.0338 134.14 80.7332C126.547 81.4326 121.015 88.7427 121.784 97.0611C122.554 105.38 129.332 111.556 136.926 110.857Z" fill="#FFD06C"/>
<path d="M136.636 107.232C130.834 107.767 125.553 103.129 124.96 96.7237C124.368 90.3187 128.709 84.7944 134.512 84.2599C140.314 83.7254 145.595 88.3636 146.188 94.7685C146.78 101.173 142.439 106.698 136.636 107.232Z" stroke="#FEBC1F" stroke-width="1.2"/>
<path d="M137.608 100.85C137.816 100.761 137.95 100.558 137.949 100.332L137.945 97.2618L140.655 95.798C140.853 95.6902 140.968 95.4758 140.947 95.2512C140.927 95.0266 140.774 94.8367 140.559 94.7671L137.627 93.8231L137.068 90.8038C137.027 90.582 136.858 90.4069 136.638 90.3572C136.417 90.3075 136.189 90.3932 136.057 90.5761L134.249 93.0633L131.193 92.6604C130.968 92.631 130.749 92.7373 130.634 92.9318C130.572 93.0364 130.546 93.1543 130.557 93.2699C130.566 93.3697 130.602 93.4661 130.664 93.55L132.478 96.0313L131.149 98.8011C131.051 99.0038 131.084 99.245 131.233 99.4147C131.383 99.585 131.618 99.6493 131.833 99.5794L134.763 98.6252L136.996 100.74C137.16 100.896 137.4 100.939 137.608 100.85Z" fill="#F9A83D"/>
<path d="M120.454 81.6477C121.114 83.0146 120.54 84.6534 119.17 85.312C119.854 84.9833 120.609 84.9622 121.272 85.1918C121.935 85.4249 122.512 85.9112 122.842 86.5934C122.512 85.9112 122.491 85.1573 122.721 84.4952C122.955 83.8342 123.442 83.2578 124.126 82.9291C123.442 83.2578 122.687 83.2789 122.023 83.0493C121.361 82.8162 120.783 82.3299 120.454 81.6477Z" fill="white"/>
<g clip-path="url(#clip4_587_53816)">
<path d="M19.507 46.2772L14.0255 43.0069C11.3617 41.4329 7.67314 41.6515 3.59184 44.0562C-4.48531 48.8393 -11.0171 60.4342 -11 69.9568C-10.9829 74.6962 -9.3521 78.019 -6.73086 79.5844L-1.05291 82.9596C-1.10418 82.9334 -1.15535 82.8984 -1.19813 82.8634C1.46576 84.5511 5.22261 84.3675 9.36365 81.9191C17.4579 77.1359 23.9982 65.5322 23.9725 56.0097C23.9555 51.1654 22.2478 47.79 19.507 46.2772ZM12.9327 61.5711L11.5324 64.0108L11.8739 66.0832C11.9337 66.4591 11.6519 66.975 11.3275 67.1674C11.2421 67.2111 11.1567 67.246 11.0713 67.2373L9.33802 67.1936L7.6133 69.2835C7.52801 69.3884 7.44254 69.4584 7.35716 69.5109C7.03271 69.7032 6.74245 69.5283 6.8022 69.0824L7.13523 66.6165L5.72639 65.8295C5.39345 65.6546 5.57269 64.8852 6.02522 64.5353L7.96339 63.0663L8.82575 60.4955C8.92827 60.1894 9.12457 59.9533 9.32096 59.831C9.51735 59.7173 9.71374 59.726 9.81618 59.9096L10.6871 61.4574L12.6168 60.6442C13.0778 60.4518 13.2571 61.0114 12.9327 61.5711Z" fill="#F9A83D"/>
<path d="M12.9326 61.5713L11.5323 64.011L11.8738 66.0834C11.9336 66.4594 11.6519 66.9752 11.3274 67.1677C11.2419 67.2113 11.1566 67.2463 11.0712 67.2376L9.33798 67.1938L7.61326 69.2837C7.52788 69.3887 7.44241 69.4587 7.35712 69.5111C7.03267 69.7034 6.74233 69.5286 6.80207 69.0827L7.1351 66.6167L5.72635 65.8297C5.39332 65.6549 5.57265 64.8854 6.02518 64.5356L7.96335 63.0665L8.82571 60.4957C8.92815 60.1896 9.12454 59.9535 9.32084 59.8312C9.51731 59.7175 9.71361 59.7262 9.81614 59.9099L10.687 61.4576L12.6167 60.6444C13.0777 60.452 13.257 61.0116 12.9326 61.5713Z" fill="#F9A83D"/>
<path d="M12.9326 61.5713L11.5323 64.011L11.8738 66.0834C11.9336 66.4594 11.6519 66.9752 11.3274 67.1677C11.2419 67.2113 11.1566 67.2463 11.0712 67.2376L9.33798 67.1938L7.61326 69.2837C7.52788 69.3887 7.44241 69.4587 7.35712 69.5111C7.03267 69.7034 6.74233 69.5286 6.80207 69.0827L7.1351 66.6167L5.72635 65.8297C5.39332 65.6549 5.57265 64.8854 6.02518 64.5356L7.96335 63.0665L8.82571 60.4957C8.92815 60.1896 9.12454 59.9535 9.32084 59.8312C9.51731 59.7175 9.71361 59.7262 9.81614 59.9099L10.687 61.4576L12.6167 60.6444C13.0777 60.452 13.257 61.0116 12.9326 61.5713Z" fill="#F9A83D"/>
<path d="M19.7001 46.3886C17.0367 44.7999 13.3488 45.0297 9.27057 47.4377C1.19237 52.2139 -5.3542 63.8144 -5.3249 73.3366C-5.31513 78.0628 -3.67607 81.3901 -1.0516 82.9588L-6.72667 79.5887C-9.35113 78.02 -10.9805 74.6927 -11 69.9566C-11.0195 60.4344 -4.48271 48.8438 3.59553 44.0577C7.67365 41.6496 11.3616 41.4298 14.0251 43.0085L19.7001 46.3886Z" fill="#FFD06C"/>
<path d="M9.27275 47.4342C17.3644 42.6498 23.945 46.4904 23.9713 56.0127C23.9978 65.5349 17.4598 77.1324 9.36821 81.9168C1.28285 86.6976 -5.29777 82.857 -5.32414 73.3347C-5.3505 63.8124 1.1874 52.215 9.27275 47.4342ZM9.35486 77.3097C15.2813 73.8056 20.0817 65.2902 20.0624 58.3242C20.043 51.3499 15.2113 48.5299 9.28486 52.0342C3.36553 55.5342 -1.43495 64.0495 -1.41559 71.0239C-1.39633 77.9898 3.43544 80.8098 9.35486 77.3097Z" fill="#F9A83D"/>
<path d="M20.067 58.3225C20.0872 65.2933 15.2843 73.8008 9.35364 77.3069C5.22541 79.7508 1.63075 79.1218 -0.17157 76.152C-0.957037 74.8629 -1.41009 73.1305 -1.41009 71.0268C-1.43024 64.0456 3.36255 55.5382 9.28311 52.0321C12.2334 50.2894 14.9117 50.1141 16.855 51.2484C18.8286 52.3621 20.0569 54.8163 20.067 58.3225Z" fill="#FFD06C"/>
<path d="M5.8557 75.3621C4.27151 75.3621 2.92242 74.6417 2.06854 73.2357C1.43907 72.2004 1.10551 70.8336 1.10551 69.2846C1.09137 64.0871 4.66835 57.7317 9.08091 55.1191C11.2913 53.8125 13.3925 53.6101 15.0018 54.5486C16.6344 55.47 17.5408 57.429 17.5483 60.062C17.5633 65.2565 13.9796 71.6081 9.55872 74.2216C8.26708 74.9863 6.99974 75.3621 5.8557 75.3621ZM12.7731 54.8433C11.7808 54.8433 10.6685 55.1904 9.50781 55.8761C5.33211 58.3491 1.94516 64.3638 1.95939 69.2833C1.95939 70.6701 2.24787 71.8767 2.79399 72.7734C4.01634 74.7899 6.44522 75.0542 9.13174 73.4642C13.3167 70.9907 16.7086 64.9795 16.6944 60.0646C16.6878 57.7637 15.9382 56.0755 14.584 55.3116C14.0479 54.9987 13.4367 54.8433 12.7731 54.8433Z" fill="#FEBC1F"/>
<path d="M9.32022 59.8353C9.51723 59.7188 9.7138 59.7247 9.81526 59.9088L10.6878 61.4555L12.6184 60.6417C13.0766 60.4479 13.2583 61.0087 12.9323 61.5678L11.5357 64.0128L11.8745 66.0808C11.9364 66.463 11.6501 66.9739 11.3272 67.1648C11.2438 67.2142 11.158 67.2421 11.0751 67.241L9.33861 67.1947L7.61344 69.2878C7.5308 69.3868 7.44489 69.4603 7.36119 69.5099C7.03683 69.7017 6.74525 69.5325 6.80473 69.0785L7.13652 66.614L5.73104 65.8258C5.39748 65.6568 5.57549 64.8832 6.02775 64.5387L7.96751 63.064L8.82315 60.4954C8.92603 60.1904 9.1233 59.9517 9.32022 59.8353Z" fill="#F9A83D"/>
<path d="M4.34927 55.6972C2.29594 55.6972 0.634588 57.3986 0.634588 59.5015C0.634588 58.4519 0.217417 57.498 -0.451384 56.8094C-1.1239 56.1243 -2.0552 55.6972 -3.08008 55.6972C-2.0552 55.6972 -1.1239 55.2699 -0.451384 54.585C0.217417 53.8962 0.634588 52.9425 0.634588 51.8928C0.634588 52.9425 1.05176 53.8962 1.72056 54.585C2.39298 55.2699 3.32437 55.6972 4.34927 55.6972Z" fill="white"/>
</g>
<path d="M212.083 8.70494C213.292 21.8322 204.391 33.3937 192.2 34.5208C187.616 34.9372 183.022 33.8331 179.128 31.3791C177.417 30.3163 175.856 29.0294 174.486 27.5525C173.343 26.3444 172.333 25.0169 171.476 23.5917C170.533 22.0386 169.763 20.387 169.181 18.6659C167.893 14.8436 167.518 10.7722 168.086 6.77837C168.344 4.97948 168.799 3.21465 169.442 1.51494C170.025 -0.0429635 170.774 -1.53352 171.678 -2.93092C172.755 -4.63397 174.054 -6.18542 175.542 -7.54396C178.922 -10.6705 183.237 -12.5981 187.82 -13.0294C200.011 -14.1565 210.873 -4.42225 212.083 8.70494Z" fill="#F9A83D"/>
<path fill-rule="evenodd" clip-rule="evenodd" d="M175.543 -7.57496C178.923 -10.7058 183.236 -12.6357 187.819 -13.0669L182.726 -12.596C178.183 -12.1676 173.903 -10.2665 170.537 -7.18081L175.477 -7.63763L175.543 -7.57496ZM192.206 34.5559C187.622 34.9722 183.029 33.8658 179.134 31.4075L179.081 31.481L174.141 31.9378C178.014 34.3541 182.568 35.4386 187.113 35.0267L192.206 34.5559ZM174.141 31.9377L179.081 31.481L179.134 31.4075C177.423 30.3428 175.862 29.0537 174.492 27.5743V27.5744C173.348 26.3643 172.339 25.0347 171.481 23.6073H171.481C170.538 22.0516 169.768 20.3974 169.186 18.6735L164.245 19.1303L164.104 19.1778C164.686 20.8933 165.455 22.5391 166.397 24.0857H166.397C167.26 25.5252 168.276 26.866 169.428 28.0853H169.428C170.818 29.5766 172.403 30.8726 174.141 31.9377ZM164.104 19.1776C163.454 17.2602 163.033 15.2723 162.848 13.2559C162.662 11.2395 162.713 9.20834 163.001 7.20386H163.001C163.26 5.41064 163.715 3.65171 164.359 1.95857H164.358C164.947 0.386972 165.701 -1.1175 166.607 -2.52926L171.624 -2.99309L171.679 -2.95546C170.776 -1.55618 170.027 -0.063502 169.444 1.49674H169.444C168.802 3.19901 168.347 4.9664 168.089 6.76785C167.803 8.76042 167.753 10.7806 167.941 12.785C168.122 14.7901 168.54 16.767 169.186 18.6734L164.245 19.1302L164.104 19.1776ZM175.543 -7.57496C174.055 -6.21464 172.756 -4.66096 171.679 -2.95546L171.624 -2.99309L166.607 -2.52926C167.702 -4.25023 169.023 -5.81514 170.537 -7.18081L175.477 -7.63752L175.543 -7.57496Z" fill="#FFD06C"/>
<path d="M191.732 29.4221C201.111 28.5549 207.945 19.4902 206.994 9.17536C206.044 -1.13946 197.67 -8.79807 188.291 -7.93085C178.911 -7.06363 172.077 2.00095 173.028 12.3158C173.978 22.6306 182.352 30.2893 191.732 29.4221Z" fill="#FFD06C"/>
<path d="M191.373 24.9281C184.205 25.5908 177.681 19.8395 176.95 11.8974C176.218 3.95525 181.581 -2.89492 188.749 -3.55766C195.916 -4.22041 202.44 1.5309 203.172 9.47302C203.903 17.4151 198.541 24.2654 191.373 24.9281Z" stroke="#FEBC1F" stroke-width="1.2"/>
<path d="M192.574 17.0136C192.831 16.9036 192.997 16.6513 192.996 16.371L192.99 12.5646L196.338 10.7495C196.583 10.6158 196.725 10.3499 196.699 10.0714C196.674 9.79293 196.485 9.5575 196.219 9.47113L192.597 8.30058L191.908 4.55665C191.856 4.2816 191.648 4.06455 191.376 4.00288C191.104 3.94122 190.821 4.04752 190.658 4.27426L188.424 7.35845L184.65 6.85889C184.372 6.82238 184.101 6.95417 183.959 7.19538C183.883 7.32506 183.851 7.47132 183.864 7.61469C183.876 7.73835 183.92 7.8579 183.996 7.96198L186.237 11.0387L184.596 14.4733C184.475 14.7247 184.516 15.0237 184.699 15.2342C184.884 15.4454 185.175 15.5251 185.44 15.4384L189.06 14.2551L191.818 16.8778C192.021 17.0707 192.318 17.1242 192.574 17.0136Z" fill="#F9A83D"/>
<path d="M100.466 17.558L104.662 21.387C106.688 23.2519 107.491 26.4577 106.571 30.5674C104.731 38.7069 96.7865 47.299 88.8249 49.7612C84.8601 50.9792 81.6482 50.4513 79.6404 48.6206L75.3039 44.6512C75.3396 44.6881 75.3824 44.7228 75.4231 44.7502C73.3016 42.9149 72.4519 39.6599 73.3921 35.4878C75.2276 27.3335 83.1772 18.732 91.141 16.2771C95.1935 15.0318 98.4699 15.6117 100.466 17.558ZM89.4417 27.1485L87.7771 28.9785L85.9542 29.226C85.624 29.2727 85.2682 29.6474 85.1941 29.9745C85.1803 30.0587 85.1739 30.1407 85.2041 30.2114L85.7034 31.6796L84.4176 33.6956C84.3527 33.7958 84.317 33.8869 84.296 33.9734C84.2219 34.3004 84.4455 34.5028 84.8022 34.3359L86.7737 33.4102L87.8076 34.4082C88.0426 34.647 88.6377 34.2937 88.8091 33.8165L89.5191 31.7797L91.437 30.3748C91.6654 30.2077 91.8103 29.9787 91.8601 29.7792C91.9026 29.582 91.8429 29.4167 91.6621 29.3769L90.1363 29.036L90.3006 27.1771C90.3382 26.7334 89.8227 26.7259 89.4417 27.1485Z" fill="#F9A83D"/>
<path d="M89.4431 27.1483L87.7784 28.9783L85.9555 29.2257C85.6254 29.2725 85.2695 29.6472 85.1954 29.9743C85.1817 30.0585 85.1753 30.1405 85.2054 30.2112L85.7047 31.6794L84.4189 33.6955C84.354 33.7956 84.3184 33.8868 84.2974 33.9732C84.2233 34.3002 84.4469 34.5026 84.8036 34.3356L86.7751 33.41L87.8089 34.408C88.044 34.6468 88.639 34.2935 88.8105 33.8163L89.5205 31.7795L91.4384 30.3746C91.6668 30.2076 91.8116 29.9785 91.8615 29.779C91.904 29.5818 91.8443 29.4165 91.6635 29.3767L90.1377 29.0358L90.3019 27.1769C90.3396 26.7333 89.8241 26.7257 89.4431 27.1483Z" fill="#F9A83D"/>
<path d="M89.4431 27.1483L87.7784 28.9783L85.9555 29.2257C85.6254 29.2725 85.2695 29.6472 85.1954 29.9743C85.1817 30.0585 85.1753 30.1405 85.2054 30.2112L85.7047 31.6794L84.4189 33.6955C84.354 33.7956 84.3184 33.8868 84.2974 33.9732C84.2233 34.3002 84.4469 34.5026 84.8036 34.3356L86.7751 33.41L87.8089 34.408C88.044 34.6468 88.639 34.2935 88.8105 33.8163L89.5205 31.7795L91.4384 30.3746C91.6668 30.2076 91.8116 29.9785 91.8615 29.779C91.904 29.5818 91.8443 29.4165 91.6635 29.3767L90.1377 29.0358L90.3019 27.1769C90.3396 26.7333 89.8241 26.7257 89.4431 27.1483Z" fill="#F9A83D"/>
<path d="M100.321 17.4226C102.36 19.2833 103.153 22.4914 102.23 26.5993C100.396 34.7381 92.4504 43.3442 84.4859 45.7958C80.5341 47.0167 77.3162 46.4828 75.3047 44.6503L79.636 48.6186C81.6475 50.4511 84.8629 50.9768 88.8255 49.7615C96.7874 47.3016 104.727 38.7064 106.569 30.5651C107.492 26.4572 106.691 23.2516 104.661 21.3884L100.321 17.4226Z" fill="#FFD06C"/>
<path d="M102.232 26.5964C104.069 18.4442 99.1032 13.8251 91.1393 16.2793C83.1756 18.7335 75.2306 27.3314 73.3933 35.4836C71.5574 43.6297 76.5237 48.2487 84.4874 45.7946C92.4513 43.3404 100.396 34.7425 102.232 26.5964ZM77.2465 34.2968C78.5921 28.326 84.4257 22.013 90.2516 20.2176C96.0844 18.4201 99.7309 21.8117 98.3852 27.7825C97.0411 33.7463 91.2076 40.0593 85.3748 41.8568C79.5489 43.6521 75.9025 40.2606 77.2465 34.2968Z" fill="#F9A83D"/>
<path d="M90.2519 20.2141C84.4217 22.01 78.5954 28.323 77.2492 34.298C76.3094 38.458 77.7948 41.3631 80.7577 42.1294C82.0445 42.4646 83.613 42.4008 85.3709 41.8537C91.2097 40.0551 97.0387 33.7507 98.3875 27.7843C99.0559 24.8124 98.4873 22.4803 97.0205 21.1162C95.563 19.7211 93.1842 19.3108 90.2519 20.2141Z" fill="#FFD06C"/>
<path d="M79.8078 36.7772C80.2308 38.1297 81.1928 39.0941 82.5957 39.4573C83.629 39.7255 84.8601 39.6547 86.1544 39.2518C90.5011 37.9121 94.8566 33.2053 95.8615 28.7588C96.363 26.5319 95.9711 24.6854 94.7571 23.5557C93.5513 22.4015 91.6725 22.1373 89.4702 22.8157C85.1257 24.154 80.7754 28.8654 79.772 33.3193C79.4779 34.6208 79.5023 35.8005 79.8078 36.7772ZM95.1061 25.535C95.371 26.3821 95.378 27.4219 95.115 28.5912C94.1635 32.7992 90.042 37.2551 85.9275 38.5225C84.7687 38.8833 83.6834 38.9508 82.7884 38.7178C80.7769 38.1987 79.9076 36.1939 80.5189 33.4868C81.4682 29.2707 85.5855 24.8115 89.6961 23.5453C91.6205 22.9525 93.2314 23.1534 94.2312 24.1107C94.6358 24.487 94.9289 24.9684 95.1061 25.535Z" fill="#FEBC1F"/>
<path d="M91.8583 29.7818C91.9031 29.5834 91.8457 29.4171 91.6647 29.3782L90.1393 29.0357L90.3039 27.1757C90.3434 26.7343 89.8263 26.725 89.4462 27.1488L87.7761 28.9769L85.9576 29.2255C85.6217 29.2722 85.2712 29.6494 85.1979 29.9748C85.179 30.0588 85.1785 30.1393 85.2016 30.2098L85.7039 31.6803L84.4156 33.6974C84.3549 33.7937 84.3164 33.8862 84.2974 33.9706C84.2238 34.2973 84.443 34.5022 84.8065 34.3333L86.7771 33.4091L87.8111 34.404C88.0414 34.6448 88.6402 34.2916 88.8073 33.8159L89.5216 31.7764L91.4394 30.3778C91.6668 30.2106 91.8136 29.9802 91.8583 29.7818Z" fill="#F9A83D"/>
<path d="M96.6421 32.9485C97.1904 34.7014 96.2123 36.5623 94.4551 37.1092C95.3322 36.8362 96.2406 36.9442 96.9946 37.3361C97.7465 37.732 98.3522 38.4161 98.6258 39.291C98.3522 38.4161 98.4605 37.5098 98.8533 36.7575C99.2502 36.0074 99.9358 35.4032 100.813 35.1302C99.9358 35.4032 99.0274 35.2952 98.2733 34.9033C97.5214 34.5074 96.9158 33.8234 96.6421 32.9485Z" fill="white"/>
<g filter="url(#filter0_d_587_53816)">
<path d="M374.025 184.033C372.885 180.311 370.325 178.874 368.704 176.589C367.653 174.087 366.484 170.321 364.146 165.69C360.986 159.526 358.522 154.308 358.226 153.466C357.442 150.995 358.263 144.868 354.807 141.615C352.299 139.24 347.444 138.637 344.447 137.684L343.167 137.84L342.686 137.022V136.917C344.403 131.959 346.919 126.078 347.607 118.82C348.473 109.745 347.607 100.209 341.132 95.2582C334.657 90.3077 326.761 87.2108 318.703 88.186C310.644 89.1612 302.748 92.9281 298.367 99.643C296.147 103.067 293.802 114.763 296.887 124.537C300.143 134.959 304.117 144.459 304.117 144.459C304.117 144.459 292.329 148.501 289.421 152.886C285.995 158.052 285.181 162.065 283.9 164.186C279.335 171.75 271.32 182.194 271.32 182.194L271.912 216C278.706 216.886 283.908 210.751 289.221 203.143C290.812 200.865 292.64 198.036 294.401 195.2L294.542 194.977C295.052 194.18 297.028 187.398 297.028 187.398L299.004 155.067L331.061 151.278L349.272 196.689L344.432 205.622C349.191 209.873 353.816 212.225 357.871 211.339C362.237 210.387 365.086 205.994 367.935 200.448C370.784 194.902 375.024 187.316 374.025 184.033Z" fill="#3343D8"/>
<path d="M359.49 204.826L330.319 207.111L318.968 214.369C317.939 211.332 316.245 207.133 316.245 207.133C305.389 206.173 301.252 204.424 298.196 199.882C296.42 197.255 295.473 190.525 295.613 181.338C295.613 179.849 295.665 178.284 295.769 176.641C296.346 165.08 297.708 152.521 297.708 152.521L299.868 152.387H299.979L350.899 149.216L359.49 204.826Z" fill="url(#paint0_linear_587_53816)"/>
<path d="M330.454 122.245C329.033 116.788 328.715 111.904 331.023 106.924C327.079 105.956 321.026 104.244 318.288 98.2437C315.402 102.807 310.237 105.42 305.797 106.537C307.506 110.259 307.321 115.545 305.131 120.235C309.571 121.612 311.983 124.738 316.075 128.565C319.886 124.478 325.029 123.294 330.454 122.245Z" fill="url(#paint1_linear_587_53816)"/>
<path d="M364.818 179.567C364.677 179.571 364.538 179.543 364.409 179.485C364.281 179.427 364.168 179.341 364.078 179.232C360.097 174.438 354.125 172.621 347.85 171.043C347.732 171.013 347.621 170.96 347.523 170.887C347.425 170.814 347.343 170.722 347.28 170.617C347.218 170.512 347.176 170.396 347.158 170.275C347.141 170.154 347.147 170.03 347.176 169.911C347.206 169.793 347.259 169.681 347.331 169.582C347.404 169.484 347.495 169.401 347.599 169.338C347.704 169.275 347.819 169.234 347.94 169.216C348.06 169.198 348.183 169.204 348.301 169.234C354.887 170.887 361.155 172.807 365.499 178.041C365.605 178.178 365.67 178.343 365.687 178.516C365.704 178.689 365.672 178.864 365.595 179.019C365.517 179.175 365.398 179.305 365.25 179.396C365.102 179.486 364.932 179.532 364.759 179.53L364.818 179.567Z" fill="black"/>
<path d="M313.388 117.778C314.492 116.319 315.922 115.144 317.563 114.347C319.204 113.55 321.009 113.154 322.831 113.192C323.264 113.193 323.696 113.22 324.126 113.274C324.129 113.227 324.129 113.179 324.126 113.132C324.022 109.76 321.277 109.805 317.917 109.805C314.557 109.805 311.694 109.76 311.694 113.341C311.68 114.937 312.252 116.482 313.299 117.681L313.388 117.778Z" fill="black"/>
<path d="M324.127 113.311C324.157 115.001 323.519 116.633 322.354 117.85C321.188 119.067 319.59 119.77 317.911 119.803C317.036 119.804 316.171 119.615 315.375 119.249C314.58 118.883 313.872 118.348 313.301 117.681C314.371 116.204 315.78 115.009 317.409 114.198C319.038 113.388 320.838 112.987 322.654 113.028C323.149 113.027 323.643 113.057 324.134 113.118C324.135 113.182 324.133 113.247 324.127 113.311V113.311Z" fill="#D01582"/>
<path d="M283.619 189.349C280.926 175.77 277.825 164.112 274.192 161.886C271.18 160.047 265.734 162.69 257.771 165.46C250.401 168.028 247.137 168.832 245.82 174.356C244.681 179.142 246.405 183.349 252.103 189.676C257.801 196.004 261.604 201.282 262.1 203.255C262.596 205.228 265.142 215.121 271.927 216.015C276.168 216.566 279.786 214.384 283.205 210.804C285.255 208.645 285.98 201.215 283.619 189.349Z" fill="url(#paint2_linear_587_53816)"/>
<path d="M249.016 170.894C247.899 167.73 246.426 162.02 248.135 159.467C249.963 156.764 265.503 152.938 268.278 155.402C270.587 157.457 271.238 161.879 271.394 164.454C271.586 167.224 267.457 169.599 262.247 171.08C257.948 172.323 250.074 173.887 249.016 170.894Z" fill="#8089FF"/>
<path d="M249.179 158.633C249.475 160.315 250.26 161.797 254.293 161.008C258.326 160.219 263.262 158.774 264.712 157.286C265.94 155.968 267.753 153.511 268.789 152.208C269.825 150.906 273.229 139.851 273.229 139.851L254.256 127.27C254.256 127.27 249.409 135.779 248.817 142.598C248.405 147.942 248.526 153.313 249.179 158.633V158.633Z" fill="#FFC518"/>
<path d="M261.352 145.888C261.208 145.889 261.066 145.856 260.937 145.791C260.809 145.727 260.697 145.632 260.612 145.516C260.466 145.318 260.404 145.07 260.439 144.826C260.474 144.582 260.602 144.362 260.797 144.213C265.133 140.945 268.678 139.136 273.036 137.967C273.268 137.918 273.509 137.96 273.71 138.084C273.912 138.208 274.059 138.406 274.12 138.635C274.182 138.865 274.154 139.109 274.041 139.319C273.929 139.528 273.742 139.687 273.517 139.761C269.403 140.87 266.043 142.59 261.907 145.717C261.745 145.832 261.55 145.892 261.352 145.888V145.888Z" fill="#EC5F00"/>
<path d="M297.886 132.6L290.442 118.947L255.232 131.781C255.232 131.781 269.292 141.235 270.854 142.121C272.37 143.089 274.102 143.659 275.893 143.781C277.182 143.822 278.464 143.566 279.64 143.034C280.816 142.501 281.855 141.705 282.679 140.707C282.714 140.662 282.759 140.625 282.811 140.6C282.862 140.575 282.918 140.563 282.975 140.563C283.032 140.563 283.088 140.575 283.139 140.6C283.191 140.625 283.236 140.662 283.271 140.707C284.067 141.671 285.065 142.448 286.193 142.98C287.321 143.513 288.552 143.789 289.798 143.789C291.885 143.789 298.678 143.603 298.678 143.603C298.678 143.603 298.485 137.52 298.3 134.669C298.252 133.964 298.112 133.269 297.886 132.6Z" fill="#D04215"/>
<path d="M282.672 113.564C280.461 113.303 278.225 113.785 276.314 114.934C274.402 116.084 272.923 117.838 272.105 119.922C272.057 120.071 271.962 120.201 271.836 120.292C271.71 120.384 271.558 120.434 271.402 120.434C271.246 120.434 271.094 120.384 270.968 120.292C270.842 120.201 270.748 120.071 270.699 119.922C269.838 117.72 268.239 115.89 266.179 114.747C264.12 113.604 261.728 113.219 259.417 113.661C257.106 114.102 255.021 115.34 253.52 117.163C252.02 118.986 251.199 121.278 251.199 123.644C251.199 126.01 252.02 128.303 253.52 130.125C255.021 131.948 257.106 133.187 259.417 133.628C261.728 134.069 264.12 133.685 266.179 132.542C268.239 131.399 269.838 129.568 270.699 127.366C270.746 127.215 270.84 127.082 270.967 126.988C271.094 126.894 271.248 126.843 271.406 126.843C271.564 126.843 271.718 126.894 271.845 126.988C271.972 127.082 272.066 127.215 272.113 127.366C272.765 129.041 273.848 130.512 275.25 131.629C276.653 132.745 278.325 133.466 280.095 133.72C281.866 133.973 283.671 133.749 285.328 133.07C286.984 132.392 288.431 131.283 289.522 129.857C290.613 128.432 291.308 126.74 291.536 124.956C291.764 123.171 291.517 121.358 290.821 119.701C290.124 118.044 289.003 116.603 287.571 115.525C286.139 114.447 284.449 113.77 282.672 113.564V113.564Z" fill="#FF8078"/>
<path d="M256.883 128.55L266.126 119.155C265.525 118.491 264.796 117.956 263.983 117.584C263.17 117.213 262.291 117.011 261.398 116.992C260.506 116.974 259.618 117.138 258.791 117.475C257.963 117.812 257.213 118.315 256.584 118.954C255.956 119.592 255.464 120.352 255.137 121.188C254.811 122.024 254.657 122.919 254.685 123.816C254.713 124.714 254.922 125.597 255.3 126.411C255.678 127.224 256.217 127.952 256.883 128.55V128.55Z" fill="#423D80"/>
<path d="M265.939 128.341C267.173 127.099 267.866 125.415 267.866 123.659C267.866 121.903 267.173 120.219 265.939 118.976L256.652 128.341C257.886 129.576 259.556 130.268 261.296 130.268C263.036 130.268 264.705 129.576 265.939 128.341Z" fill="black"/>
<path d="M277.224 128.691L286.445 119.311C285.853 118.617 285.124 118.054 284.305 117.657C283.485 117.26 282.593 117.039 281.684 117.007C280.776 116.974 279.87 117.132 279.025 117.469C278.18 117.807 277.413 118.317 276.774 118.967C276.135 119.617 275.636 120.394 275.31 121.248C274.984 122.102 274.838 123.015 274.88 123.928C274.922 124.842 275.153 125.737 275.556 126.557C275.96 127.377 276.528 128.104 277.224 128.691V128.691Z" fill="#423D80"/>
<path d="M286.141 128.341C286.754 127.727 287.24 126.998 287.572 126.194C287.903 125.39 288.074 124.529 288.074 123.659C288.074 122.789 287.903 121.927 287.572 121.124C287.24 120.32 286.754 119.59 286.141 118.976L276.832 128.341C278.067 129.582 279.741 130.28 281.487 130.28C283.232 130.28 284.906 129.582 286.141 128.341V128.341Z" fill="black"/>
<path d="M300.402 140.647C298.19 139.866 295.871 139.434 293.528 139.367C289.295 139.173 286.868 140.751 286.35 142.531C285.935 144.019 286.646 146.685 291.167 146.781C295.688 146.878 302.43 150.236 303.68 151.322L300.402 140.647Z" fill="#FFC518"/>
<path d="M320.442 150.719L310.511 162.444C310.511 162.444 300.299 153.087 299.307 151.911C295.526 147.444 298.375 136.538 297.539 134.111C296.799 131.878 293.58 125.081 292.677 123.48L289.82 117.875C289.82 117.875 293.165 116.661 295.134 117.949C296.614 118.909 297.642 119.438 297.642 119.438L297.761 119.341L299.004 119.014L299.44 118.157C299.907 117.894 300.404 117.689 300.92 117.547C303.488 116.877 315.484 121.269 317.866 125.111C319.509 127.701 314.884 138.622 313.508 144.578L320.442 150.719Z" fill="#FFE65C"/>
<path d="M257.682 151.173C257.682 151.173 263.209 142.419 272.378 140.305C276.5 139.367 279.193 139.984 280.111 141.6C280.851 142.955 280.851 145.702 276.485 146.915C273.391 147.746 270.674 149.619 268.789 152.223L257.682 151.173Z" fill="#FFC518"/>
<path d="M308.793 128.468C308.687 128.512 308.574 128.534 308.46 128.535C308.274 128.534 308.093 128.477 307.94 128.371C307.786 128.264 307.669 128.114 307.602 127.939C306.174 124.217 301.682 121.53 297.76 119.341C298.271 118.881 298.835 118.483 299.44 118.157C303.406 120.391 307.772 123.235 309.326 127.269C309.37 127.383 309.391 127.505 309.388 127.627C309.385 127.749 309.358 127.869 309.308 127.981C309.259 128.092 309.188 128.193 309.099 128.276C309.011 128.36 308.907 128.425 308.793 128.468V128.468Z" fill="#FF8B18"/>
<path d="M310.939 167.723C310.939 167.723 304.945 162.579 304.945 158.789C304.945 155.521 314.75 145.784 318.413 146.327C323.031 147.02 325.813 151.538 325.813 151.538L310.939 167.723Z" fill="#8089FF"/>
<path d="M308.653 170.894C309.934 183.155 327.301 188.388 336.033 197.307C346.749 208.287 350.093 211.451 356.48 210.26C362.007 209.233 366.351 196.741 363.517 189.237C360.897 182.306 354.356 172.279 349.013 164.827C345.112 159.385 340.208 154.747 334.568 151.166C330.291 148.523 323.853 148.248 316.483 155.759C309.46 162.899 308.121 165.571 308.653 170.894Z" fill="url(#paint3_linear_587_53816)"/>
<path d="M296.124 192.49C296.107 192.527 296.087 192.561 296.065 192.595C295.569 193.384 295.081 194.18 294.585 194.977C293.448 186.081 293.425 177.078 294.518 168.177C294.553 167.932 294.682 167.711 294.879 167.562C294.976 167.489 295.087 167.435 295.204 167.404C295.322 167.374 295.445 167.367 295.565 167.384C295.686 167.401 295.802 167.442 295.907 167.504C296.012 167.566 296.103 167.649 296.176 167.746C296.249 167.844 296.303 167.956 296.333 168.074C296.364 168.193 296.371 168.316 296.353 168.437C295.395 176.422 295.318 184.489 296.124 192.49V192.49Z" fill="black"/>
<path d="M344.49 137.654C343.121 139.888 340.154 143.223 334.13 144.019H334.019C333.774 144.035 333.532 143.952 333.348 143.789C333.163 143.626 333.051 143.395 333.035 143.148C333.019 142.902 333.102 142.659 333.264 142.473C333.427 142.287 333.656 142.174 333.901 142.158C338.94 141.488 341.427 138.935 342.699 136.947C343.282 137.219 343.88 137.455 344.49 137.654V137.654Z" fill="black"/>
</g>
<g clip-path="url(#clip5_587_53816)">
<path d="M21.0243 131.27L26.2734 124.288C28.8324 120.913 33.614 119.203 40.0218 119.982C52.7158 121.554 66.9719 132.37 71.8685 144.142C74.2947 150.006 73.9468 154.986 71.4373 158.326L65.9938 165.544C66.0451 165.484 66.0919 165.414 66.1279 165.347C63.6277 168.862 58.7776 170.653 52.2717 169.851C39.556 168.289 25.2846 157.466 20.3988 145.69C17.9184 139.697 18.3365 134.611 21.0243 131.27ZM37.2448 146.632L40.2772 148.894L40.9153 151.638C41.0339 152.134 41.6569 152.62 42.167 152.684C42.2976 152.692 42.4238 152.689 42.5274 152.632L44.6986 151.648L47.9611 153.304C48.1233 153.387 48.2676 153.428 48.4027 153.447C48.9128 153.51 49.1898 153.138 48.8839 152.62L47.1888 149.752L48.5654 148.024C48.8967 147.629 48.2723 146.775 47.5189 146.586L44.307 145.812L41.8875 143.099C41.5998 142.776 41.2294 142.59 40.9176 142.544C40.6102 142.509 40.3662 142.625 40.3313 142.907L40.0284 145.286L37.166 145.318C36.483 145.328 36.5451 146.115 37.2448 146.632Z" fill="#F9A83D"/>
<path d="M37.2446 146.632L40.2771 148.894L40.9152 151.637C41.0337 152.134 41.6568 152.62 42.1668 152.683C42.2975 152.691 42.4236 152.689 42.5272 152.632L44.6984 151.648L47.9609 153.303C48.1231 153.387 48.2673 153.428 48.4025 153.446C48.9126 153.51 49.1896 153.138 48.8838 152.619L47.1886 149.752L48.5653 148.024C48.8965 147.629 48.2721 146.775 47.5187 146.585L44.3067 145.811L41.8874 143.099C41.5996 142.776 41.2292 142.589 40.9173 142.544C40.61 142.509 40.366 142.625 40.3312 142.907L40.0282 145.286L37.1658 145.318C36.4828 145.328 36.5448 146.115 37.2446 146.632Z" fill="#F9A83D"/>
<path d="M37.2446 146.632L40.2771 148.894L40.9152 151.637C41.0337 152.134 41.6568 152.62 42.1668 152.683C42.2975 152.691 42.4236 152.689 42.5272 152.632L44.6984 151.648L47.9609 153.303C48.1231 153.387 48.2673 153.428 48.4025 153.446C48.9126 153.51 49.1896 153.138 48.8838 152.619L47.1886 149.752L48.5653 148.024C48.8965 147.629 48.2721 146.775 47.5187 146.585L44.3067 145.811L41.8874 143.099C41.5996 142.776 41.2292 142.589 40.9173 142.544C40.61 142.509 40.366 142.625 40.3312 142.907L40.0282 145.286L37.1658 145.318C36.4828 145.328 36.5448 146.115 37.2446 146.632Z" fill="#F9A83D"/>
<path d="M20.8387 131.511C23.3895 128.119 28.1761 126.422 34.5817 127.207C47.2735 128.77 61.5512 139.585 66.4322 151.363C68.8608 157.206 68.5047 162.196 65.993 165.543L71.4356 158.333C73.9472 154.987 74.2911 150.002 71.8696 144.141C66.9763 132.368 52.7161 121.56 40.0191 119.985C33.6136 119.2 28.8321 120.909 26.2762 124.289L20.8387 131.511Z" fill="#FFD06C"/>
<path d="M34.5764 127.204C21.8634 125.638 15.5176 133.916 20.4024 145.692C25.2871 157.469 39.5523 168.284 52.2652 169.85C64.9684 171.415 71.3142 163.138 66.4295 151.361C61.5447 139.584 47.2796 128.769 34.5764 127.204ZM49.9027 164.152C40.5915 163.005 30.1174 155.064 26.544 146.449C22.9663 137.823 27.6257 131.746 36.9369 132.893C46.2369 134.038 56.7112 141.98 60.2887 150.605C63.8622 159.22 59.2027 165.297 49.9027 164.152Z" fill="#F9A83D"/>
<path d="M26.5394 146.449C30.1142 155.071 40.5874 163.001 49.9049 164.148C56.3924 164.95 60.6174 162.243 61.3648 157.607C61.6932 155.593 61.372 153.21 60.2854 150.611C56.7052 141.977 46.2449 134.041 36.9402 132.889C32.3059 132.32 28.8251 133.542 26.9513 135.986C25.0285 138.422 24.7412 142.113 26.5394 146.449Z" fill="#FFD06C"/>
<path d="M53.325 159.868C55.3302 159.018 56.6659 157.404 57.0204 155.208C57.2824 153.591 56.9988 151.724 56.1987 149.811C53.5322 143.383 45.7221 137.453 38.7876 136.594C35.315 136.167 32.5508 137.045 30.9987 139.069C29.4081 141.083 29.2727 143.99 30.623 147.246C33.287 153.671 41.1035 159.593 48.049 160.448C50.0787 160.699 51.877 160.482 53.325 159.868ZM33.9718 138.236C35.2279 137.703 36.8149 137.535 38.6383 137.759C45.2009 138.572 52.5944 144.183 55.1173 150.267C55.8335 151.98 56.0916 153.626 55.8634 155.027C55.3577 158.174 52.4199 159.804 48.1981 159.283C41.6237 158.474 34.2256 152.87 31.7052 146.791C30.5252 143.945 30.602 141.457 31.9215 139.787C32.4385 139.113 33.1318 138.592 33.9718 138.236Z" fill="#FEBC1F"/>
<path d="M40.9218 142.548C40.6123 142.51 40.3666 142.623 40.3331 142.904L40.0277 145.284L37.1636 145.315C36.4837 145.321 36.5433 146.112 37.2447 146.627L40.2751 148.898L40.9144 151.634C41.0335 152.139 41.6597 152.617 42.1671 152.679C42.2981 152.695 42.4211 152.684 42.5256 152.638L44.6996 151.648L47.9642 153.308C48.1199 153.386 48.2667 153.43 48.3983 153.447C48.9079 153.509 49.1895 153.144 48.8797 152.615L47.187 149.749L48.5589 148.021C48.8937 147.633 48.2689 146.773 47.5185 146.59L44.3016 145.81L41.892 143.096C41.6042 142.775 41.2312 142.586 40.9218 142.548Z" fill="#F9A83D"/>
<path d="M45.0752 134.768C47.6742 133.666 50.6559 134.876 51.7419 137.473C51.1999 136.177 51.2352 134.775 51.726 133.565C52.2235 132.358 53.1816 131.33 54.4789 130.78C53.1816 131.33 51.7822 131.302 50.5772 130.817C49.3749 130.326 48.3543 129.371 47.8123 128.075C48.3543 129.371 48.3189 130.773 47.828 131.983C47.3307 133.19 46.3724 134.218 45.0752 134.768Z" fill="white"/>
</g>
</g>
<defs>
<filter id="filter0_d_587_53816" x="227" y="80" width="180" height="166" filterUnits="userSpaceOnUse" color-interpolation-filters="sRGB">
<feFlood flood-opacity="0" result="BackgroundImageFix"/>
<feColorMatrix in="SourceAlpha" type="matrix" values="0 0 0 0 0 0 0 0 0 0 0 0 0 0 0 0 0 0 127 0" result="hardAlpha"/>
<feOffset dy="8"/>
<feGaussianBlur stdDeviation="8"/>
<feColorMatrix type="matrix" values="0 0 0 0 0 0 0 0 0 0 0 0 0 0 0 0 0 0 0.24 0"/>
<feBlend mode="normal" in2="BackgroundImageFix" result="effect1_dropShadow_587_53816"/>
<feBlend mode="normal" in="SourceGraphic" in2="effect1_dropShadow_587_53816" result="shape"/>
</filter>
<linearGradient id="paint0_linear_587_53816" x1="327.53" y1="249.239" x2="327.53" y2="159.779" gradientUnits="userSpaceOnUse">
<stop offset="0.01" stop-color="#0A1BAC"/>
<stop offset="0.31" stop-color="#1D2DC0"/>
<stop offset="0.68" stop-color="#2D3DD2"/>
<stop offset="0.95" stop-color="#3343D8"/>
</linearGradient>
<linearGradient id="paint1_linear_587_53816" x1="317.977" y1="104.117" x2="318.516" y2="155.015" gradientUnits="userSpaceOnUse">
<stop stop-color="#FFC518"/>
<stop offset="1" stop-color="#FF8B18"/>
</linearGradient>
<linearGradient id="paint2_linear_587_53816" x1="259.414" y1="168.958" x2="283.112" y2="216.02" gradientUnits="userSpaceOnUse">
<stop offset="0.05" stop-color="#5765F1"/>
<stop offset="0.65" stop-color="#3645DA"/>
<stop offset="0.69" stop-color="#3343D8"/>
</linearGradient>
<linearGradient id="paint3_linear_587_53816" x1="314.869" y1="158.514" x2="361.438" y2="195.36" gradientUnits="userSpaceOnUse">
<stop offset="0.05" stop-color="#5765F1"/>
<stop offset="0.47" stop-color="#4857E7"/>
<stop offset="0.91" stop-color="#3343D8"/>
</linearGradient>
<clipPath id="clip0_587_53816">
<rect width="36.3722" height="37.4744" fill="white" transform="translate(344 57.7378) rotate(-20.5)"/>
</clipPath>
<clipPath id="clip1_587_53816">
<rect width="24.2037" height="24.9372" fill="white" transform="translate(190.912 118.51) rotate(-20.5)"/>
</clipPath>
<clipPath id="clip2_587_53816">
<rect width="63.7131" height="65.8608" fill="white" transform="translate(233.42 109.925) rotate(-117.5)"/>
</clipPath>
<clipPath id="clip3_587_53816">
<rect width="39.4579" height="46.6919" fill="white" transform="translate(129 185.312) rotate(-63.5)"/>
</clipPath>
<clipPath id="clip4_587_53816">
<rect width="35" height="42" fill="white" transform="translate(-11 42)"/>
</clipPath>
<clipPath id="clip5_587_53816">
<rect width="70.4685" height="72.8439" fill="white" transform="translate(-4 152.01) rotate(-54)"/>
</clipPath>
</defs>
</svg>
