<svg width="40" height="40" viewBox="0 0 40 40" fill="none" xmlns="http://www.w3.org/2000/svg">
<rect width="40" height="40" rx="20" fill="url(#paint0_linear_691_89612)"/>
<path d="M29.487 13.126L20.487 8.126C20.184 7.958 19.818 7.958 19.515 8.126L10.515 13.126C10.198 13.302 10.001 13.636 10.001 13.999C10.001 14.693 10.115 30.999 20.001 30.999C29.887 30.999 30.001 14.693 30.001 13.999C30.001 13.636 29.804 13.302 29.487 13.126ZM20.001 13.999C21.382 13.999 22.501 15.118 22.501 16.499C22.501 17.88 21.382 18.999 20.001 18.999C18.62 18.999 17.501 17.88 17.501 16.499C17.501 15.118 18.62 13.999 20.001 13.999ZM16.251 24C16.251 21.699 17.7 20.25 20.001 20.25C22.302 20.25 23.751 21.699 23.751 24H16.251Z" fill="white"/>
<defs>
<linearGradient id="paint0_linear_691_89612" x1="20" y1="0" x2="20" y2="40" gradientUnits="userSpaceOnUse">
<stop stop-color="#FF78B9"/>
<stop offset="1" stop-color="#FF6666"/>
</linearGradient>
</defs>
</svg>
