<svg fill="none" height="120" viewBox="0 0 224 120" width="224" xmlns="http://www.w3.org/2000/svg" xmlns:xlink="http://www.w3.org/1999/xlink"><clipPath id="a"><path d="m0 0h223.664v119.54h-223.664z"/></clipPath><g clip-path="url(#a)"><path d="m211.72 119.04h-192.5201c-2.0527 0-4.0214-.816-5.473-2.267-1.4515-1.452-2.267-3.42-2.267-5.473v-104.02018c-.0402-1.00493.1367-2.00673.5185-2.93718s.9596-1.76771 1.6941-2.45475c.7345-.68705 1.6084-1.207751 2.5622-1.52666.9539-.3189089 1.9652-.4285329 2.9652-.321408h192.5201c1-.1071249 2.011.0024991 2.965.321408.954.318909 1.828.83961 2.562 1.52666.735.68704 1.313 1.5243 1.695 2.45475.381.93045.558 1.93225.518 2.93718v104.00018c.003 1.018-.196 2.027-.583 2.968-.388.941-.958 1.797-1.677 2.518s-1.573 1.293-2.513 1.683c-.941.39-1.949.591-2.967.591z" fill="#356df0"/><path d="m126.84 10.1-86.6402-10.1h-12.4l40.2 87.5 59.8002-74.78c.191-.2135.321-.475.375-.7566s.031-.5726-.068-.8419c-.099-.2692-.269-.5065-.492-.6865-.223-.1799-.491-.2957-.775-.335z" fill="#ffed7e" opacity=".5"/><path d="m115.96 114.04c28.995 0 52.5-23.5052 52.5-52.5002 0-28.9949-23.505-52.49997-52.5-52.49997s-52.5 23.50507-52.5 52.49997c0 28.995 23.505 52.5002 52.5 52.5002z" fill="#ffed7e"/><path d="m219.32 37.4698 4.21-1.66h.06l-1.58 4.25 1.65 4.21c.005.0163.005.0337 0 .05h-.06l-4.24-1.59-4.22 1.67h-.05c-.005-.0163-.005-.0337 0-.05l1.59-4.25-1.74-4.11v-.05h.05l4.24 1.59z" fill="#ff57b0"/><path d="m193.29 51.1598 2.6-1-1 2.63 1 2.6-2.63-1-2.61 1h-.06l1-2.63-1-2.6h.06l2.63 1z" fill="#fc7a5e"/><g fill="#ffc800"><path d="m6.25 35.3298c0 .3209.12748.6287.3544.8556s.53469.3544.8556.3544.62868-.1275.8556-.3544.3544-.5347.3544-.8556v-3.07c0-.3209-.12748-.6287-.3544-.8556s-.53469-.3544-.8556-.3544-.62868.1275-.8556.3544-.3544.5347-.3544.8556z"/><path d="m6.25012 25.8798c-.01527.1675.00453.3363.05814.4957.05362.1594.13987.3058.25325.43s.25141.2234.40527.2913.32017.1029.48834.1029c.16816 0 .33448-.035.48834-.1029s.29188-.1671.40526-.2913.19964-.2706.25325-.43c.05362-.1594.07342-.3282.05815-.4957v-3.06c.01527-.1674-.00453-.3363-.05815-.4956-.05361-.1594-.13987-.3059-.25325-.4301s-.2514-.2234-.40526-.2912c-.15386-.0679-.32018-.103-.48834-.103-.16817 0-.33448.0351-.48834.103-.15386.0678-.29189.167-.40527.2912s-.19963.2707-.25325.4301c-.05361.1593-.07341.3282-.05814.4956z"/><path d="m1.21 27.8598c-.1589 0-.316243.0313-.463047.0921s-.280193.15-.392552.2623c-.112359.1124-.201487.2458-.2622951.3926-.0608082.1468-.0921059.3041-.0921059.463s.0312977.3163.0921059.4631c.0608081.1468.1499361.2802.2622951.3925.112359.1124.245748.2015.392552.2623s.304147.0921.463047.0921h3.07c.32091 0 .62868-.1275.8556-.3544s.3544-.5347.3544-.8556-.12748-.6287-.3544-.8556-.53469-.3544-.8556-.3544z"/><path d="m10.65 27.8698c-.1675-.0152-.3363.0046-.4957.0582-.15939.0536-.30585.1398-.43005.2532-.12419.1134-.22338.2514-.29125.4053-.06787.1538-.10292.3202-.10292.4883 0 .1682.03505.3345.10292.4884.06787.1538.16706.2918.29125.4052.1242.1134.27066.1997.43005.2533.1594.0536.3282.0734.4957.0581h3.07c.1674.0153.3362-.0045.4956-.0581s.3059-.1399.4301-.2533.2234-.2514.2912-.4052c.0679-.1539.103-.3202.103-.4884 0-.1681-.0351-.3345-.103-.4883-.0678-.1539-.167-.2919-.2912-.4053s-.2707-.1996-.4301-.2532-.3282-.0734-.4956-.0582z"/></g><path d="m30.46 54.0398-2 4 2 3.95 2-3.95z" fill="#ff57b0"/><path d="m126.72 43.8498c-.061-.2359-.214-.4379-.424-.5617-.21-.1237-.46-.1591-.696-.0983-.236.0614-.439.2132-.565.4228-.125.2095-.163.46-.105.6972 6.21 25.29 19.08 45.09 28.63 57.1202 1.722-1.6197 3.332-3.3537 4.82-5.1902-15.35-14.0731-26.339-32.2564-31.66-52.39z" fill="#f7dc4d"/><path d="m115.38 21.9898c-1.65 20-5.73 71-29.7999 70h59.7599c-24.07-1.89-27.46-50.14-28.88-70-.032-.1183-.103-.2226-.2-.297-.098-.0744-.217-.1147-.34-.1147s-.242.0403-.339.1147c-.098.0744-.168.1787-.201.297z" fill="#23489e"/><path d="m88.46 49.1798c-.2232-.0948-.4746-.0988-.7006-.011s-.4088.2604-.5094.481c-5.2324 11.5537-12.4367 22.108-21.29 31.19.47 1.41 1 2.79 1.59 4.15 8.7144-10.4639 15.9025-22.1096 21.35-34.59.0973-.2209.106-.4709.0241-.698-.082-.2272-.2481-.4141-.4641-.522z" fill="#f7dc4d"/><path d="m166.93 81.1998c-17.256-14.2333-29.708-33.4378-35.66-55-.065-.2322-.22-.4294-.429-.5491-.21-.1198-.458-.1524-.691-.0909-.236.0612-.438.2135-.562.4235-.123.21-.159.4605-.098.6965 7.59 29.55 24.24 51.46 33.87 62.24 1.397-2.4722 2.591-5.0541 3.57-7.72z" fill="#f7dc4d"/><path d="m106.87 27.2198c-.243-.0222-.484.0527-.672.2083-.187.1556-.305.3792-.328.6217-2.511 27.189-15.1756 52.4332-35.4701 70.7 1.1699 1.6942 2.4353 3.3202 3.79 4.8702l4.75.42c.1568.013.3143-.015.4577-.079.1434-.065.2681-.165.3623-.291 2.88-3.8102 24.8601-34.1902 28.0001-75.4602.008-.1238-.009-.2479-.049-.3651-.041-.1172-.105-.2252-.188-.3174-.082-.0923-.183-.167-.295-.2198s-.234-.0826-.358-.0877z" fill="#f7dc4d"/><path d="m214.46 87.0398v-3.86c0-.2886-.071-.5727-.208-.8269-.136-.2541-.334-.4703-.575-.629s-.518-.255-.805-.2801c-.288-.0252-.577.0216-.842.136l-2.26 1c-.685.2935-1.269.7815-1.68 1.4036-.41.6221-.63 1.351-.63 2.0964v1h-7v-3.9c0-.2886-.071-.5727-.208-.8269-.136-.2541-.334-.4703-.575-.629s-.518-.255-.805-.2801c-.288-.0252-.577.0216-.842.136l-2.26 1c-.685.2935-1.269.7815-1.68 1.4036-.41.6221-.63 1.351-.63 2.0964v1h-156v-1c-.0005-.7454-.2196-1.4743-.6302-2.0964s-.9946-1.1101-1.6798-1.4036l-2.26-1c-.265-.1144-.5542-.1612-.8417-.136-.2875.0251-.5642.1214-.8052.2801-.2411.1587-.4388.3749-.5755.629-.1367.2542-.2081.5383-.2076.8269v3.86h-7v-1c-.0005-.7454-.2196-1.4743-.6302-2.0964s-.9946-1.1101-1.6798-1.4036l-2.26-1c-.2681-.1159-.561-.1624-.8518-.1354-.2908.0271-.5701.1269-.8121.2903-.2421.1634-.4392.385-.5731.6446-.1338.2595-.2002.5486-.193.8405v3.86h-5v24.7602c0 2.053.8154 4.021 2.267 5.473 1.4515 1.451 3.4202 2.267 5.473 2.267h192.52c2.053 0 4.021-.816 5.473-2.267 1.452-1.452 2.267-3.42 2.267-5.473v-24.7602z" fill="#175de7"/><path d="m167.4 12.2698 1.8-4.13998c-.004-.0164-.004-.0336 0-.05h.1c.005.01633.005.03367 0 .05l1.88 4.11998 4.15 1.81c.007.0065.012.0143.015.0229.004.0086.006.0178.006.0271s-.002.0186-.006.0271c-.003.0086-.008.0164-.015.0229l-4.12 1.89-1.75 4.22h-.1l-1.9-4.13-4.16-1.8c-.005-.0162-.005-.0337 0-.05l4.13-1.87z" fill="#62ffe3"/><path d="m189.07 79.9898s5.81-8.31-3.3-4.57c-2.07-9.64-5.64-.14-5.64-.14-5.5-1.16-4.13 1.85-2 4.49-1.641.484-3.113 1.4163-4.253 2.6918-1.139 1.2755-1.9 2.8438-2.197 4.5282-1 4.93 1.72 9.67 6.14 10.59s8.84-2.31 9.87-7.24c.438-2.0449.207-4.1767-.66-6.08 3.18.15 5.88-.56 2.04-4.27z" fill="#0d2c80"/><path d="m171.96 53.0798c-.579.0078-1.15.1297-1.682.3587-.531.2291-1.012.5607-1.415.9759s-.721.9059-.934 1.4439-.318 1.1129-.309 1.6915c.079 3.4345-.092 6.8702-.51 10.28-.345 3.1907-1.224 6.3007-2.6 9.2-.538 1.2335-1.319 2.3457-2.296 3.2701-.978.9245-2.132 1.6421-3.394 2.1099-1.242.3982-2.548.561-3.85.48.542-.7192.886-1.567 1-2.46.062-.842-.063-1.6872-.366-2.4754-.302-.7882-.775-1.5-1.384-2.0846.785-.3943 1.466-.9684 1.988-1.6757.521-.7072.868-1.5276 1.012-2.3943.092-1.1724-.238-2.339-.93-3.29l2.55.37c.568.0907 1.149.0675 1.708-.0683.559-.1357 1.086-.3813 1.549-.7224s.854-.7709 1.15-1.2645.49-1.041.573-1.6105c.082-.5695.05-1.1496-.094-1.7066-.144-.5571-.398-1.0799-.746-1.5382-.348-.4582-.783-.8427-1.281-1.131s-1.048-.4748-1.619-.5485c-.911-.1323-1.84.0325-2.65.47-.09 0-.86.55-2 1.24l1.79-12.37c.077-.5114.017-1.034-.173-1.5148-.191-.4807-.505-.9025-.912-1.2224-.406-.32-.89-.5267-1.402-.5992s-1.034-.0082-1.513.1864l-1.88.74c-.474.1904-.989.2527-1.495.1807-.505-.072-.983-.2757-1.385-.5907l-1.6-1.25c-.404-.3151-.885-.5185-1.392-.5899-.508-.0714-1.026-.0083-1.502.183-.475.1913-.893.5041-1.21.9072-.316.4031-.522.8823-.596 1.3897l-1.88 13c-1.22-1.35-2.09-2.37-2.18-2.46-.49-.4797-1.087-.8364-1.742-1.0407s-1.349-.2504-2.025-.1346c-.677.1158-1.316.3903-1.865.8009-.55.4106-.994.9456-1.297 1.5612s-.456 1.2942-.445 1.9802c.01.6859.183 1.3597.503 1.966.321.6063.782 1.1279 1.343 1.522.562.394 1.209.6494 1.888.745l1.79.26c-.638.3995-1.183.9327-1.595 1.5628-.413.6301-.684 1.3422-.795 2.0872-.23 2.08 1.1 4.1 3.36 5.63-.955.8656-1.572 2.0422-1.74 3.32-.059.7652.039 1.5343.288 2.2601.25.7258.645 1.3928 1.162 1.9599-1.894.8648-3.5 2.2559-4.626 4.0076s-1.724 3.7901-1.724 5.8724v5.69h28.25v-7.12c-.001-.3342-.021-.6681-.06-1 .714-.0961 1.419-.2466 2.11-.45 2.297-.6453 4.421-1.793 6.22-3.36 1.69-1.506 3.116-3.2838 4.22-5.26 1.973-3.6218 3.309-7.5557 3.95-11.63.687-3.8314 1.085-7.709 1.19-11.6v-.2c-.008-.5812-.131-1.1552-.361-1.6887-.231-.5335-.566-1.0159-.984-1.4195-.418-.4035-.913-.7202-1.454-.9316-.542-.2114-1.12-.3134-1.701-.3002z" fill="#0d2c80"/><path d="m106 99.0398-3.4-7c-.695-1.472-1.728-2.7596-3.0133-3.7586-1.2856-.9989-2.7884-1.6811-4.3866-1.9914l-3-.57 3.38-1.44c.7197-.2808 1.3034-.8285 1.6293-1.5289.326-.7004.3693-1.4996.1207-2.2311l-6.47-16.82 2.51-3c.0703-.0743.1095-.1727.1095-.275s-.0392-.2007-.1095-.275c-1.33-1.16-7.37-5.59-16.15 1-.0496.0362-.0899.0836-.1177.1384-.0279.0547-.0424.1152-.0424.1766s.0145.122.0424.1767c.0278.0547.0681.1021.1177.1383l3.52 2.59-3.79 14.29c-.2789 1.0301-.191 2.1251.2487 3.0974.4396.9724 1.2037 1.7617 2.1613 2.2326l.83.41c-1.8167.4543-3.4787 1.3867-4.8134 2.7003-1.3347 1.3135-2.2934 2.9605-2.7766 4.7697l-2 7.22h2.78c0 .15.09.3.15.44l.45 1.2102c.6899 1.795 1.7302 3.436 3.0603 4.825 1.33 1.39 2.9233 2.501 4.6869 3.269 1.7636.767 3.6624 1.177 5.5857 1.203 1.9233.027 3.8327-.329 5.6171-1.047 4.18-1.68 6.31-5.55 6.92-9.9102z" fill="#0d2c80"/><path d="m69.09 88.9898c.6895-.4675 1.2742-1.0735 1.7166-1.7794.4425-.7059.7331-1.4962.8534-2.3206.43-3.63-1.44-7-5.07-9.23 0 0-.36-1-1-2.72-.59-1.49-1.59-3.4-3.69-4l-.44-.02h-.09c-.1732-.0103-.3468-.0103-.52 0-2.5569-.2554-5.1381.0869-7.54 1-.12-.2-.23-.41-.35-.6-.1-.17-.2-.34-.3-.49-.196-.3209-.4587-.5959-.7704-.8062-.3117-.2104-.665-.3511-1.036-.4128-.3709-.0617-.7508-.0428-1.1138.0554-.3629.0982-.7005.2734-.9898.5136h-.07c-.3178.2684-.5674.6084-.7283.992s-.2285.7999-.1973 1.2148c.0312.4148.1604.8163.3769 1.1715.2166.3552.5143.6539.8687.8717.25.16.48.29.71.42h.07l.47.26h.07c-.0354 1.1885.0925 2.3763.38 3.53.32 2.17 1.08 6.64 1.5 8.64l-.74-.06c-4.32-.72-8.26 1.83-9.33 7.18l-2.14 9.6402h9.33c.5919 3.247 2.3594 6.161 4.9648 8.187 2.6053 2.026 5.8658 3.021 9.1583 2.794 3.2925-.226 6.3861-1.658 8.6897-4.021 2.3035-2.364 3.6553-5.493 3.7972-8.79-.0163-2.3147-.6613-4.5812-1.8661-6.5575s-2.924-3.5879-4.9739-4.6627z" fill="#0d2c80"/><path d="m204.46 99.0398c-1.378.0011-2.73.3814-3.906 1.0992-1.177.718-2.133 1.746-2.764 2.971v-5.8602c.001-.7086-.137-1.4106-.408-2.0657-.27-.6551-.667-1.2505-1.167-1.752-.501-.5016-1.096-.8995-1.75-1.171-.655-.2715-1.356-.4113-2.065-.4113h-153.8801c-.7086 0-1.4104.1398-2.065.4113s-1.2492.6694-1.7498 1.171c-.5007.5015-.8975 1.0969-1.1678 1.752-.2702.6551-.4087 1.3571-.4074 2.0657v5.8602c-.6091-1.185-1.5227-2.186-2.6469-2.9-1.1242-.7145-2.4183-1.1166-3.7494-1.1652-1.3311-.0485-2.6511.2583-3.8243.8889-1.1732.6303-2.1573 1.5623-2.8512 2.6993-.6938 1.137-1.0723 2.438-1.0966 3.77-.0244 1.332.3064 2.646.9583 3.807.6519 1.162 1.6014 2.129 2.7508 2.802s2.4574 1.028 3.7893 1.028c.5038.001 1.0064-.049 1.5-.15v5.65h175.0001v-5.65c.494.101.996.151 1.5.15 1.989 0 3.897-.79 5.303-2.197 1.407-1.406 2.197-3.314 2.197-5.303s-.79-3.897-2.197-5.303c-1.406-1.407-3.314-2.1972-5.303-2.1972z" fill="#071a4d"/></g></svg>