<svg xmlns="http://www.w3.org/2000/svg" xmlns:xlink="http://www.w3.org/1999/xlink" viewBox="0 0 256 192"><defs><style>.cls-1{isolation:isolate;}.cls-2{fill:#776bff;}.cls-3{fill:#ffd01a;}.cls-4{fill:#ffa600;}.cls-5{opacity:0.35;}.cls-6{fill:none;stroke:#000;stroke-miterlimit:10;stroke-width:2px;}.cls-7{fill:url(#linear-gradient);}.cls-8{fill:#fff;}.cls-9{fill:#ff87ff;}.cls-12,.cls-9{mix-blend-mode:multiply;}.cls-10{fill:#4e1ceb;}.cls-11{fill:#cd1580;}.cls-12{fill:#eb33ff;}.cls-13{fill:#fa4e89;}.cls-14{fill:url(#linear-gradient-2);}.cls-15{fill:#ebf0f7;}</style><linearGradient id="linear-gradient" x1="108.63" y1="129.25" x2="39.69" y2="187.95" gradientUnits="userSpaceOnUse"><stop offset="0.11" stop-color="#ffd01a"/><stop offset="0.28" stop-color="#ffc312"/><stop offset="0.69" stop-color="#ffa600"/></linearGradient><linearGradient id="linear-gradient-2" x1="84.63" y1="64.83" x2="44.89" y2="100.43" gradientUnits="userSpaceOnUse"><stop offset="0.01" stop-color="#ffd01a"/><stop offset="0.2" stop-color="#ffc312"/><stop offset="0.59" stop-color="#ffae05"/><stop offset="0.84" stop-color="#ffa600"/></linearGradient></defs><title>local communities map</title><g class="cls-1"><g id="background"><rect class="cls-2" width="256" height="192"/><rect class="cls-3" x="214" y="-0.5" width="42" height="192.5"/><polygon class="cls-4" points="77 50.5 214 -0.5 214 192 77 192 77 50.5"/><rect class="cls-3" y="60.5" width="63" height="131"/><g class="cls-5"><polyline class="cls-6" points="256 46.5 236.25 46.5 214 46.5 90 93.92"/><line class="cls-6" x1="55" y1="91.5" y2="91.5"/><path class="cls-6" d="M236,46.5V71.29a7.21,7.21,0,0,0,7.21,7.21H256"/><path class="cls-6" d="M236,58.5V83.29a7.21,7.21,0,0,0,7.21,7.21H256"/><circle cx="160.25" cy="67" r="3"/><circle cx="236" cy="46.5" r="3"/><circle cx="177" cy="60.5" r="3"/><circle cx="15" cy="91.5" r="3"/></g></g><g id="art"><polygon class="cls-7" points="124.08 192 127.94 143.5 95.94 96.5 76.94 96.5 57.94 96.5 34.94 143.5 34.94 192 124.08 192"/><polygon class="cls-8" points="228.38 192 199.34 192 199.34 124.01 213.86 102.94 228.38 124.01 228.38 192"/><polygon class="cls-8" points="184.33 192 155.28 192 155.28 124.01 169.81 102.94 184.33 124.01 184.33 192"/><polygon class="cls-8" points="29.05 192 0 192 0 124.01 14.52 102.94 29.05 124.01 29.05 192"/><rect class="cls-8" x="124" y="152.25" width="125" height="22"/><path class="cls-2" d="M184,88H169.68v12.59H184A6.3,6.3,0,0,0,184,88Zm-.87,9.89h-9.94V90.7h9.94a3.6,3.6,0,0,1,0,7.19Z"/><path class="cls-2" d="M132.94,88h47.75a0,0,0,0,1,0,0v.93A19.07,19.07,0,0,1,161.61,108H152a19.07,19.07,0,0,1-19.07-19.07V88A0,0,0,0,1,132.94,88Z"/><path class="cls-3" d="M171.25,41.5c0,6.08-11,19-11,19s-11-12.92-11-19a11,11,0,0,1,22,0Z"/><circle cx="160.25" cy="41.5" r="4"/><path class="cls-9" d="M188,35.5c0,6.08-11,19-11,19s-11-12.92-11-19a11,11,0,0,1,22,0Z"/><circle cx="177" cy="35.5" r="4"/><path class="cls-8" d="M120.35,33.29l3.9,1.36a1,1,0,0,1,0,1.93L120.35,38a1,1,0,0,0-.63.62l-1.37,3.91a1,1,0,0,1-1.93,0l-1.36-3.91a1,1,0,0,0-.63-.62l-3.9-1.37a1,1,0,0,1,0-1.93l3.9-1.36a1.06,1.06,0,0,0,.63-.63l1.36-3.91a1,1,0,0,1,1.93,0l1.37,3.91A1,1,0,0,0,120.35,33.29Z"/><path class="cls-8" d="M101.66,23.73l2.08-1a.58.58,0,0,1,.76.77l-1,2.07a.55.55,0,0,0,0,.5l1,2.09a.57.57,0,0,1-.76.76l-2.09-1a.56.56,0,0,0-.49,0l-2.08,1a.58.58,0,0,1-.77-.77l1-2.07a.62.62,0,0,0,0-.5l-1-2.09a.56.56,0,0,1,.75-.75l2.09,1A.58.58,0,0,0,101.66,23.73Z"/><rect class="cls-8" x="123.91" y="6.5" width="2.66" height="3.99" rx="1.33"/><rect class="cls-8" x="123.91" y="17.14" width="2.66" height="3.99" rx="1.33"/><rect class="cls-8" x="117.92" y="12.48" width="3.99" height="2.66" rx="1.33"/><rect class="cls-8" x="128.56" y="12.48" width="3.99" height="2.66" rx="1.33"/><rect class="cls-8" x="123.91" y="6.5" width="2.66" height="3.99" rx="1.33"/><rect class="cls-8" x="123.91" y="17.14" width="2.66" height="3.99" rx="1.33"/><rect class="cls-8" x="117.92" y="12.48" width="3.99" height="2.66" rx="1.33"/><rect class="cls-8" x="128.56" y="12.48" width="3.99" height="2.66" rx="1.33"/><path class="cls-10" d="M177.43,104.6h-23.8v21h23.8a10.51,10.51,0,0,0,0-21ZM176,121.1H159.4v-12H176a6,6,0,0,1,0,12Z"/><path class="cls-10" d="M96,104.6h76.15a0,0,0,0,1,0,0v.4a29.41,29.41,0,0,1-29.41,29.41H125.41A29.41,29.41,0,0,1,96,105v-.4A0,0,0,0,1,96,104.6Z"/><polygon class="cls-4" points="103.74 192 85.41 91.64 81.47 92.36 99.67 192 103.74 192"/><polygon class="cls-4" points="54.2 192 72.41 92.36 68.47 91.64 50.13 192 54.2 192"/><rect class="cls-8" x="12" y="144.4" width="14.44" height="37.21" rx="6.01" transform="translate(38.44 326) rotate(180)"/><rect class="cls-8" x="12" y="144.4" width="14.44" height="37.21" rx="6.01"/><rect class="cls-11" x="19.44" y="134" width="21" height="58" rx="10.5"/><rect class="cls-10" x="40.44" y="157.53" width="73" height="10.94"/><rect class="cls-8" x="126.44" y="144.4" width="14.56" height="37.21" rx="6.03" transform="translate(267.44 326) rotate(180)"/><rect class="cls-11" x="113.44" y="134" width="21" height="58" rx="10.5" transform="translate(247.87 326) rotate(-180)"/><rect class="cls-12" x="126.44" y="144.4" width="14.56" height="37.21" rx="6.03" transform="translate(267.44 326) rotate(180)"/><rect class="cls-12" x="12" y="144.4" width="14.44" height="37.21" rx="6.01" transform="translate(38.44 326) rotate(180)"/><path class="cls-13" d="M102.72,57.5H124.5s1,18-19,18Z"/><path class="cls-13" d="M27,57.5a14,14,0,0,0,0,28H60v-28Zm25,22H29a8,8,0,0,1,0-16H52Z"/><path class="cls-14" d="M43.25,57.5h68a0,0,0,0,1,0,0V74a25.5,25.5,0,0,1-25.5,25.5h-17A25.5,25.5,0,0,1,43.25,74V57.5A0,0,0,0,1,43.25,57.5Z"/><polygon class="cls-11" points="111.25 57.5 76.72 43.97 43.25 57.5 111.25 57.5"/><path class="cls-4" d="M59.11,57.5H54.94l12.11,42c.46,0,.92,0,1.39,0h2.78Z"/><path class="cls-4" d="M94.77,57.5l-12.12,42h2.79c.46,0,.93,0,1.39,0l12.1-42Z"/><path class="cls-11" d="M55.5,100.34H100a1.84,1.84,0,0,0,0-3.68H55.5a1.84,1.84,0,0,0,0,3.68Z"/><circle cx="77" cy="38" r="6"/><polygon class="cls-8" points="256 103.63 241.95 124.01 241.95 192 256 192 256 103.63"/><path class="cls-4" d="M247,20.5c0,6.08-11,19-11,19s-11-12.92-11-19a11,11,0,0,1,22,0Z"/><circle cx="236" cy="20.5" r="4"/><rect class="cls-8" x="63.86" y="12.83" width="2.82" height="1.88" rx="0.94" transform="translate(9.38 50.19) rotate(-45)"/><rect class="cls-8" x="58.54" y="18.16" width="2.82" height="1.88" rx="0.94" transform="translate(4.05 47.98) rotate(-45)"/><rect class="cls-8" x="59.01" y="12.36" width="1.88" height="2.82" rx="0.94" transform="translate(7.82 46.42) rotate(-45)"/><rect class="cls-8" x="64.33" y="17.69" width="1.88" height="2.82" rx="0.94" transform="translate(5.61 51.75) rotate(-45)"/><rect class="cls-8" x="63.86" y="12.83" width="2.82" height="1.88" rx="0.94" transform="translate(9.38 50.19) rotate(-45)"/><rect class="cls-8" x="58.54" y="18.16" width="2.82" height="1.88" rx="0.94" transform="translate(4.05 47.98) rotate(-45)"/><rect class="cls-8" x="59.01" y="12.36" width="1.88" height="2.82" rx="0.94" transform="translate(7.82 46.42) rotate(-45)"/><rect class="cls-8" x="64.33" y="17.69" width="1.88" height="2.82" rx="0.94" transform="translate(5.61 51.75) rotate(-45)"/><path class="cls-15" d="M43,28.5H27v-7a4.54,4.54,0,0,1,8.09-2.84Z"/><path class="cls-8" d="M43,31.5H27v7a4.54,4.54,0,0,0,8.09,2.84Z"/><path class="cls-8" d="M15,22.59a2.09,2.09,0,0,1,3.64-1.39l3,3.3H46a5,5,0,0,1,0,10H20a5,5,0,0,1-5-5c0-.08,0-.15,0-.22a1.64,1.64,0,0,1,0-.22Z"/><circle class="cls-2" cx="39" cy="29.5" r="2"/><circle class="cls-2" cx="34" cy="29.5" r="2"/><circle class="cls-2" cx="29" cy="29.5" r="2"/></g></g></svg>