<svg viewBox="0 0 48 48" xmlns="http://www.w3.org/2000/svg"><path d="m48 24a24 24 0 1 1 -24-24 24 24 0 0 1 24 24z" fill="#ffd836"/><rect fill="#a63a0c" height="8.6" rx="2.83" width="5.65" x="11.4" y="11.73"/><rect fill="#a63a0c" height="8.6" rx="2.83" width="5.65" x="30.95" y="11.73"/><path d="m14.22 25.37h19.56v2.27a9.78 9.78 0 0 1 -9.78 9.78 9.78 9.78 0 0 1 -9.78-9.78z" fill="#36393f"/><path d="m24 37.42a9.78 9.78 0 0 0 9.38-7 18.91 18.91 0 0 0 -18.76 0 9.78 9.78 0 0 0 9.38 7z" fill="#de420d"/><g fill="#d8e7ff"><path d="m43.06 5.26.68 2a.51.51 0 0 0 1 0l.68-1.95a.54.54 0 0 1 .31-.32l2-.68a.52.52 0 0 0 0-1l-2-.68a.53.53 0 0 1 -.31-.31l-.68-2a.52.52 0 0 0 -1 0l-.68 2a.54.54 0 0 1 -.32.31l-2 .68a.51.51 0 0 0 0 1l2 .68a.56.56 0 0 1 .32.27z"/><rect height="2.12" rx=".71" width="1.41" x="3.18" y="40.23"/><rect height="2.12" rx=".71" width="1.41" x="3.18" y="45.88"/><rect height="2.12" rx=".71" transform="matrix(0 1 -1 0 50.82 37.41)" width="1.41" x="6" y="43.06"/><rect height="2.12" rx=".71" transform="matrix(0 1 -1 0 45.18 43.06)" width="1.41" x=".35" y="43.06"/></g></svg>