<svg height="150" width="50" xmlns="http://www.w3.org/2000/svg" xmlns:xlink="http://www.w3.org/1999/xlink"><linearGradient id="a" x1="100.063656%" x2=".003871%" y1="49.963333%" y2="49.963333%"><stop offset="0" stop-color="#9f35da"/><stop offset="1" stop-color="#ff4eb5"/></linearGradient><g fill="none" fill-rule="evenodd"><path d="m46.7762 22.4419 1.224 1.224v2.641l-1.224 1.224-4.438 4.438-17.031 17.031h-4.978l-3.478-3.589-.012-4.69 8.532-8.531h-17.601l-3.932-3.933-2.366-2.365v-1.797l6.298-6.299h17.587l-8.518-8.517.012-4.689 3.478-3.59h4.978" fill="#c6d8f5"/><path d="m46.7762 22.4419 1.224 1.224v2.641l-1.224 1.224-4.438 4.438-17.031 17.031h-4.978l-3.478-3.589-.012-4.69 8.532-8.531h-17.601l-3.932-3.933-2.366-2.365v-1.797l6.298-6.299h17.587l-8.518-8.517.012-4.689 3.478-3.59h4.978z" stroke="#2f4777" stroke-linecap="round" stroke-linejoin="round" stroke-width="2"/><g fill="#fff"><path d="m39.7939 20.5484 4.438 4.438-4.438 4.438-14.367 14.367h-3.598v-2.97l8.636-8.636v-2.308l4.171-4.171v-1.44l-4.171-4.171v-2.308l-8.636-8.636v-2.97h3.598"/><path d="m32.8372 24.2734v1.439l-2.879 2.879h-10.255l2.879-2.879v-1.439l-2.879-2.879h10.255"/><path d="m20.7228 24.2734v1.439l-2.432 2.433-.447.446h-7.863l-2.879-2.879v-1.439l2.879-2.879h7.863l.447.447"/></g><path d="m0 0h50v50h-50z"/><path d="m46.7762 72.4419 1.224 1.224v2.641l-1.224 1.224-4.438 4.438-17.031 17.031h-4.978l-3.478-3.589-.012-4.69 8.532-8.531h-17.601l-3.932-3.933-2.366-2.365v-1.797l6.298-6.299h17.587l-8.518-8.517.012-4.689 3.478-3.59h4.978" fill="#fff"/><path d="m46.7762 72.4419 1.224 1.224v2.641l-1.224 1.224-4.438 4.438-17.031 17.031h-4.978l-3.478-3.589-.012-4.69 8.532-8.531h-17.601l-3.932-3.933-2.366-2.365v-1.797l6.298-6.299h17.587l-8.518-8.517.012-4.689 3.478-3.59h4.978z" stroke="#d5dbed" stroke-linecap="round" stroke-linejoin="round" stroke-width="2"/><path d="m39.7939 70.5484 4.438 4.438-4.438 4.438-14.367 14.367h-3.598v-2.97l8.636-8.636v-2.308l4.171-4.171v-1.44l-4.171-4.171v-2.308l-8.636-8.636v-2.97h3.598" fill="#d5dbed"/><path d="m32.8372 74.2734v1.439l-2.879 2.879h-10.255l2.879-2.879v-1.439l-2.879-2.879h10.255" fill="#d5dbed"/><path d="m20.7228 74.2734v1.439l-2.432 2.433-.447.446h-7.863l-2.879-2.879v-1.439l2.879-2.879h7.863l.447.447" fill="#d5dbed"/><path d="m0 50h50v50h-50z"/><path d="m1.2238 21.4419-1.224 1.224v2.641l1.224 1.224 4.438 4.438 17.031 17.031h4.978l3.478-3.589.012-4.69-8.532-8.531h17.601l3.932-3.933 2.366-2.365v-1.797l-6.298-6.299h-17.587l8.518-8.517-.012-4.689-3.478-3.59h-4.978" fill="url(#a)" transform="matrix(-1 0 0 1 48 101)"/><path d="m46.7762 122.4419 1.224 1.224v2.641l-1.224 1.224-4.438 4.438-17.031 17.031h-4.978l-3.478-3.589-.012-4.69 8.532-8.531h-17.601l-3.932-3.933-2.366-2.365v-1.797l6.298-6.299h17.587l-8.518-8.517.012-4.689 3.478-3.59h4.978z" stroke="#2f4777" stroke-linecap="round" stroke-linejoin="round" stroke-width="2"/><path d="m39.7939 120.5484 4.438 4.438-4.438 4.438-14.367 14.367h-3.598v-2.97l8.636-8.636v-2.308l4.171-4.171v-1.44l-4.171-4.171v-2.308l-8.636-8.636v-2.97h3.598" fill="#fff"/><path d="m32.8372 124.2734v1.439l-2.879 2.879h-10.255l2.879-2.879v-1.439l-2.879-2.879h10.255" fill="#fff"/><path d="m20.7228 124.2734v1.439l-2.432 2.433-.447.446h-7.863l-2.879-2.879v-1.439l2.879-2.879h7.863l.447.447" fill="#fff"/><path d="m0 100h50v50h-50z"/></g></svg>