<svg xmlns="http://www.w3.org/2000/svg" width="215" height="120" fill="none">
  <g clip-path="url(#a)">
    <path fill="#85D2FF"
      d="M20.963 52.912a5.868 5.868 0 0 1-2.624-4.06l-.427-2.844a.285.285 0 0 0-.282-.245.28.28 0 0 0-.283.245l-.427 2.843a5.856 5.856 0 0 1-2.624 4.061l-.37.239a.284.284 0 0 0-.133.238v.019c0 .094.05.188.132.238l.37.239a5.868 5.868 0 0 1 2.625 4.06l.427 2.844a.285.285 0 0 0 .282.245.28.28 0 0 0 .283-.245l.427-2.843a5.855 5.855 0 0 1 2.624-4.061l.37-.239a.284.284 0 0 0 .133-.238v-.019a.284.284 0 0 0-.132-.238l-.37-.239Z" />
    <path fill="#5B65EB"
      d="M5.468 70.65a4.475 4.475 0 0 1-2.002-3.1l-.327-2.166a.221.221 0 0 0-.213-.189c-.107 0-.201.082-.214.189l-.326 2.165a4.475 4.475 0 0 1-2.003 3.1l-.283.183a.21.21 0 0 0-.1.182v.012a.21.21 0 0 0 .1.182l.283.183a4.475 4.475 0 0 1 2.003 3.1l.326 2.166a.221.221 0 0 0 .214.188c.106 0 .2-.082.213-.188l.327-2.166a4.475 4.475 0 0 1 2.002-3.1l.283-.183a.21.21 0 0 0 .1-.182v-.012a.21.21 0 0 0-.1-.182l-.283-.182Z" />
    <path fill="#51EB80"
      d="M189.221 31.572a5.867 5.867 0 0 1-2.624-4.061l-.427-2.844a.285.285 0 0 0-.282-.245.28.28 0 0 0-.283.245l-.427 2.843a5.854 5.854 0 0 1-2.624 4.061l-.371.239a.285.285 0 0 0-.131.238v.02c0 .093.05.188.131.238l.371.238a5.867 5.867 0 0 1 2.624 4.061l.427 2.844a.285.285 0 0 0 .283.244.28.28 0 0 0 .282-.244l.427-2.844a5.854 5.854 0 0 1 2.624-4.06l.371-.24a.286.286 0 0 0 .132-.238v-.019a.286.286 0 0 0-.132-.238l-.371-.238Z" />
    <path fill="#FFE05C"
      d="M200.334 19.784a4.474 4.474 0 0 1-2.003-3.1l-.326-2.166a.222.222 0 0 0-.214-.188.215.215 0 0 0-.213.188l-.327 2.165a4.476 4.476 0 0 1-2.002 3.101l-.283.182a.21.21 0 0 0-.1.182v.013a.21.21 0 0 0 .1.182l.283.182a4.476 4.476 0 0 1 2.002 3.1l.327 2.166a.22.22 0 0 0 .213.188.217.217 0 0 0 .214-.188l.326-2.166a4.474 4.474 0 0 1 2.003-3.1l.282-.182a.21.21 0 0 0 .101-.182v-.013a.21.21 0 0 0-.101-.182l-.282-.182Z" />
    <path fill="#FF78B2"
      d="M214.617 81.898a4.477 4.477 0 0 1-2.003-3.101l-.326-2.165a.222.222 0 0 0-.214-.189.216.216 0 0 0-.213.189l-.327 2.165a4.476 4.476 0 0 1-2.002 3.1l-.283.183a.21.21 0 0 0-.1.182v.012a.21.21 0 0 0 .1.182l.283.182a4.476 4.476 0 0 1 2.002 3.1l.327 2.166a.222.222 0 0 0 .213.189.217.217 0 0 0 .214-.189l.326-2.165a4.477 4.477 0 0 1 2.003-3.1l.283-.183a.212.212 0 0 0 .1-.182v-.012a.212.212 0 0 0-.1-.182l-.283-.182Z" />
    <path fill="url(#b)"
      d="m72.659 74.654-45.556 26.368c-26.714-9.584 8.903-28.76 8.903-28.76L55.53 56.855l17.774.935-.646 16.872" />
    <path fill="url(#c)"
      d="M33.614 91.413S17.17 93.465 18.546 109.22c1.055 12.114 20.348 11.266 29.194 10.224a6.703 6.703 0 0 0 5.62-4.695l.3-.972a12.1 12.1 0 0 0-.194-7.683l-1.356-3.722s-8.218 2.737-18.496-10.96Z" />
    <path fill="#8FFFAC"
      d="M51.802 111.68s-7.477.678-2.718 4.758c0 0-5.682-1.262-7.924 3.515a83.152 83.152 0 0 0 6.574-.502 6.706 6.706 0 0 0 5.619-4.695l.301-.973c.772-2.517.703-5.21-.194-7.683l-.39-1.079c-.74-1.061-1.375-2.003-1.707-2.492a6.517 6.517 0 0 1-.779.063l-2.869 2.291s0 6.119 4.08 6.797h.007Z" />
    <path fill="#1BA868"
      d="M30.355 103.571a.936.936 0 0 1-.665-.276.947.947 0 0 1 0-1.331c.195-.195 4.897-4.79 11.351-2.416.49.181.741.721.559 1.211a.947.947 0 0 1-1.212.558c-5.305-1.958-9.204 1.821-9.367 1.984a.93.93 0 0 1-.666.27Z" />
    <path fill="url(#d)"
      d="M189.108 82.87s6.511 2.398 12.67 11.298c4.307 6.214 9.618 8.894 12.544 9.968.778.282.791 1.374.031 1.694-4.024 1.701-13.153 4.394-22.846-.709l-19.181-18.49 13.361-6.51 3.428 2.737-.007.012Z" />
    <path fill="url(#e)"
      d="m145.267 105.353 6.165 6.164c2.468 2.467 7.233 5.247 10.598 6.157 13.8 3.741 30.983.484 36.157-.659a2.213 2.213 0 0 0 1.732-1.964c.534-5.618 1.112-23.895-14.578-20.996l-11.301-8.56-11.646 13.695-14.383-1.369-2.738 7.532h-.006Z" />
    <path fill="url(#f)"
      d="M51.764 74.31s-28.082.683-21.917 12.326c6.165 11.644 15.068 30.819 34.932 12.328l21.234 4.111 7.533-14.38L66.148 69.52l-14.384 4.795v-.006Z" />
    <path fill="url(#g)"
      d="m55.004 105.203 1.162 3.339c.627 1.801 1.494 3.527 2.668 5.027 4.62 5.926 10.88 5.901 13.818 6.108 12.431.872 41.914 1.173 42.473-15.573l-7.747-10.959s-19.645.226-28.102 7.074c0 0-10.303-10.363-23.657 2.417a2.443 2.443 0 0 0-.615 2.567Z" />
    <path fill="url(#h)"
      d="m71.246 59.151 117.517 9.679.684 2.052s6.166 1.368 8.903 5.48c7.986 11.982-16.098 9.93-16.098 9.93-1.029 25.677-27.059 16.092-27.059 16.092-22.608 35.614-49.322 0-49.322 0-21.918 10.96-28.749-22.872-38.166-27.265-5.801-2.705 3.535-15.974 3.535-15.974l.006.006Z" />
    <path fill="url(#i)"
      d="M46.629 66.432S44.23 45.543 64.095 39.38c0 0 3.083-39.38 53.773-39.38 50.691 0 52.405 45.543 52.405 45.543s17.128 1.369 19.181 25.339c0 0-8.903-2.737-13.015 8.9-8.219-1.368-19.181 2.737-23.293 16.439-12.33-10.275-26.714-12.328-44.525-4.796 0 0-8.263-26.349-33.376-23.838-16.323-5.65-21.428-7.664-28.616-1.161v.006Z" />
    <path fill="#CA1580"
      d="M151.771 40.754s7.597-7.594 10.617-16.702c.188-.565.898-.74 1.343-.345.446.395 1.005.96 1.457 1.657.929 1.418.873 3.27-.025 4.707-2.034 3.245-6.975 10.457-12.707 14.104l-.685-3.427v.006Z" />
    <path fill="#1BA868"
      d="M42.745 96.83c.725-.214 1.051-1.27.73-2.357-.323-1.087-1.172-1.794-1.897-1.58-.725.216-1.05 1.271-.728 2.358.322 1.087 1.17 1.794 1.895 1.58Z" />
    <path fill="#232145"
      d="M52.436 91.426c-1.682 0-3.164-.565-4.131-1.054a.947.947 0 0 1-.414-1.269.947.947 0 0 1 1.268-.414c1.67.848 4.162 1.494 6.536-.257a.948.948 0 0 1 1.318.194.948.948 0 0 1-.195 1.319c-1.488 1.098-3 1.481-4.382 1.481Z" />
    <path fill="#8FFFAC"
      d="M197.672 105.014c-11.646 4.112-.685 7.532-.685 7.532-8.356.49-10.641 4.143-11.37 6.44 5.651-.546 10.284-1.462 12.57-1.971a2.213 2.213 0 0 0 1.732-1.964c.352-3.672.716-12.754-3.453-17.794-5.035 3.753 1.212 7.757 1.212 7.757h-.006Z" />
    <path fill="#9496FF"
      d="M101.118 89.398c-1.626 1.08-3.233-1.356-5.154-4.23-1.922-2.875-3.422-5.116-1.796-6.195 1.626-1.08 4.897.175 6.818 3.056 1.921 2.881 1.758 6.29.132 7.37ZM130.337 91.74c.22 1.336-3.29 1.8-7.144 2.44-3.855.641-6.593 1.219-6.812-.118-.22-1.337 2.153-4.074 6.008-4.714 3.855-.64 7.728 1.06 7.948 2.398v-.007Z" />
    <path fill="#8083FF"
      d="M164.089 88.023c.854.93.214 2.135-1.431 3.654-1.645 1.518-3.673 2.768-4.527 1.845-.854-.923-.213-3.684 1.432-5.204 1.644-1.518 3.672-1.217 4.526-.288v-.007Z" />
    <path fill="#5B65EB"
      d="M110.441 90.691c-.584.232-1.174.465-1.77.716.898 4.946-.923 8.674-2.75 11.034.119.157.527.678 1.187 1.45 2.191-2.73 4.532-7.237 3.327-13.2h.006ZM157.139 102.981c.151-2.473-.351-5.863-3.252-8.92-.251.66-.49 1.344-.709 2.06a9.664 9.664 0 0 1 2.134 6.307c.245.088.885.302 1.827.553ZM183.345 83.16c-1.143-2.28-3.227-4.018-6.178-5.185a25.748 25.748 0 0 0-.709 1.745c2.505.991 4.256 2.416 5.192 4.261.395.785.609 1.576.709 2.317.245.018.936.069 1.915.094a9.318 9.318 0 0 0-.929-3.24v.007Z" />
    <path fill="#FFE05C"
      d="M16.38 81.257c8.13 4.049 40.495 17.092 65.583-16.896.571-.772.132-1.877-.816-2.034l-14.409-2.316S41.292 38.099 28.258 71.1l-12.01 7.94c-.822.547-.753 1.77.132 2.21v.006Z" />
    <path fill="#E44598"
      d="m72.451 60.934-5.619-.904C53.547 76.493 36.527 73.882 28.146 71.183l-5.18 3.427c3.19 1.319 9.461 3.434 17.027 3.534h.533c9.242 0 21.792-3.17 31.925-17.21Z" />
    <path fill="#1BA868"
      d="M60.19 91.69a.937.937 0 0 0-1.312.219c-3.09 4.324-8.771 4.4-8.821 4.4h-.942v.941c0 4.946-3.321 6.835-5.864 7.557.74.446 1.513.823 2.317 1.118 2.524-1.155 5.092-3.402 5.4-7.784 1.952-.194 6.554-1.085 9.442-5.134a.938.938 0 0 0-.22-1.312v-.006Z" />
    <path fill="url(#j)"
      d="M108.602 46.46c1.833 1.839 2.988 4.236 3.233 6.822.584 6.07 2.003 13.407 5.004 17.6 3.56 4.984 10.277 6.848 14.383 6.848 8.872 0 25.534-3.032 39.346-9.672 5.243-2.517 7.151-9.026 4.201-14.035l-8.614-14.643s-18.879 12.365-46.164 7.594a6.327 6.327 0 0 1-3.617-1.996c-4.401-4.864-18.062-24.435-19.324-41.18a1.781 1.781 0 0 0-1.896-1.651c-2.097.144-3.811.244-5.952 1.97a2.43 2.43 0 0 0-.835 2.43c1.237 5.548 6.605 26.267 20.235 39.906v.007Z" />
    <path fill="#87FFA6"
      d="m124.335 23.927 2.135-20.531a2.92 2.92 0 0 0-1.287.276l-15.269 7.243a2.964 2.964 0 0 0-1.369 4.023l13.775 26.984a2.97 2.97 0 0 0 3.911 1.33L141.5 36.01a2.991 2.991 0 0 0 1.381-1.374l-18.54-10.702-.006-.006Z" />
    <path fill="#87FFA6"
      d="M143.088 32.576c-.05-.2-.125-.402-.226-.596L129.088 4.996a2.911 2.911 0 0 0-.798-.96l-1.965 18.874 16.757 9.666h.006Z" />
    <path fill="#51EB80"
      d="M142.869 34.628c.307-.627.402-1.35.213-2.052l-16.757-9.666 1.966-18.874a2.933 2.933 0 0 0-1.827-.64l-2.135 20.53 18.54 10.702Z" />
    <path fill="#fff"
      d="m149.266 41.52-2.743-14.348a1.934 1.934 0 0 0-.245-.634l-9.901 10.011-13.988-6.27c-.006.144 0 .295.025.445l3.133 16.389a1.762 1.762 0 0 0 2.166 1.4l20.448-5.035c.785-.194 1.275-1.073 1.105-1.964v.006Z" />
    <path fill="#fff" d="m144.338 25.816-20.436 2.812c-.132.019-.264.05-.383.094l12.431 5.574 8.388-8.48Z" />
    <path fill="#85D2FF"
      d="M146.271 26.538c-.332-.54-.91-.866-1.5-.785l-.427.056-8.388 8.48-12.431-5.573a1.742 1.742 0 0 0-1.136 1.556l13.988 6.27 9.901-10.01-.007.006ZM120.066 42.298l-9.304-12.817-3.039 10.608c-.17.59.157 1.268.728 1.525l21.855 9.748c.571.257 1.168-.013 1.337-.603l3.127-10.909c.025-.1.037-.194.037-.295l-14.741 2.743Z" />
    <path fill="#85D2FF" d="m133.181 37.942-20.63-9.195 8.344 11.486 12.286-2.29Z" />
    <path fill="#66B5FF"
      d="M134.807 39.555c.007-.502-.295-1.017-.766-1.23l-.86-.383-12.286 2.285-8.344-11.486-.364-.163c-.572-.258-1.168.012-1.338.602l-.087.301 9.304 12.817 14.741-2.743Z" />
    <path fill="#fff"
      d="M100.867 63.017c.264-.583.772-.979 1.356-1.117.741-.175 1.381-.653 1.695-1.35.314-.696.245-1.487-.119-2.158a1.98 1.98 0 0 1-.063-1.758 2 2 0 0 1 1.771-1.174c.433-.006.822-.288.998-.684.263-.59 0-1.28-.59-1.544l-.082-.038a1.132 1.132 0 0 0-1.18.139 1.99 1.99 0 0 1-2.072.276 1.976 1.976 0 0 1-1.149-1.52c-.094-.646-.553-1.116-1.124-1.374l-.44-.194c-.57-.258-1.249-.264-1.77.075a2.034 2.034 0 0 1-1.896.15 2.007 2.007 0 0 1-1.174-1.732 1.138 1.138 0 0 0-.684-.973l-.082-.037c-.59-.264-1.28 0-1.544.59-.176.395-.132.872.15 1.199a1.982 1.982 0 0 1-1.055 3.22c-.74.175-1.38.652-1.695 1.349-.313.697-.244 1.487.12 2.16.282.526.326 1.167.063 1.757a1.998 1.998 0 0 1-1.77 1.173c-.434.007-.823.289-1 .684l-.05.113c-.263.59 0 1.28.59 1.544l.026.013c.433.195.916.088 1.28-.213a1.972 1.972 0 0 1 2.085-.283 1.96 1.96 0 0 1 1.155 1.582c.076.671.546 1.186 1.143 1.456l.358.157c.603.27 1.287.163 1.84-.195a1.966 1.966 0 0 1 1.883-.144 1.992 1.992 0 0 1 1.174 1.802c0 .451.282.86.697 1.041.596.27 1.306 0 1.569-.596l.038-.081a1.157 1.157 0 0 0-.157-1.224 1.98 1.98 0 0 1-.295-2.097v.006Z" />
    <path fill="#8083FF"
      d="m101.477 55.02-5.607-2.517a1.048 1.048 0 0 0-1.386.526l-2.518 5.606a1.048 1.048 0 0 0 .527 1.385l5.606 2.518a1.049 1.049 0 0 0 1.386-.526l2.519-5.606a1.049 1.049 0 0 0-.527-1.385Z" />
    <path fill="#5B65EB"
      d="M74.881 49.761c-.232 2.065-4.294-1.11-9.292-1.676-4.997-.565-9.034 1.714-8.802-.357.232-2.072 4.125-5.857 9.122-5.292 4.998.565 9.204 5.254 8.972 7.325Z" />
    <path fill="#698EFF"
      d="M166.908 29.933c-.954-2.51-3.359-3.954-3.359-3.954l-16.348 5.919-2.116.113s-7.685 7.33-2.034 14.863c.998 1.33 23.072-1.858 23.857-3.138 1.294-2.116 9.317-8.555 0-13.809v.006Z" />
    <path fill="#2E62E8" d="M145.631 31.703s-.697 13.922 18.929-1.92l-18.929 1.92Z" opacity=".5" />
    <path fill="#57F287"
      d="M162.256 12.949c.521-.622.778-1.394.659-2.19-.188-1.281-1.306-2.248-2.718-2.512a4.519 4.519 0 0 0-1.275-.05c-.044 0-.081.013-.125.013-2.022.27-2.75 1.462-4.088 3.15-.809 1.024-2.059 2.197-3.057 3.083l10.604-1.5v.006Z" />
    <path fill="#232145"
      d="M152.864 15.974c-.39 0-.678-.126-.823-.527l.741-.264.76-.2-.76.2.013-.784s2.85-.189 4.664-2.147c1.061-1.142 1.545-2.68 1.444-4.563a.777.777 0 0 1 .741-.822.773.773 0 0 1 .823.74c.332 6.34-4.979 7.896-6.618 8.223-.37.075-.709.144-.992.144h.007Z" />
    <path fill="#29CC7A"
      d="m157.805 12.522-8.897 1.287c-2.976-.327-4.846-2.254-5.003-4.909-.113-1.927 1.431-3.74 3.735-4.03 2.675-.332 4.025 1.306 5.337 2.718 2.932 3.164 4.828 4.934 4.828 4.934Z" />
    <path fill="#232145"
      d="M154.446 15.346c-3.566 0-7.145-4.506-7.302-4.7a.78.78 0 0 1 .132-1.1.794.794 0 0 1 1.105.133c.942 1.192 3.874 4.243 6.241 4.098a.79.79 0 0 1 .835.728.786.786 0 0 1-.729.835c-.088 0-.182.006-.27.006h-.012Z" />
    <path fill="#698EFF"
      d="M140.062 17.681c-4.432.615-5.87.34-4.991 6.942.747 5.9 1.858 5.417 6.617 4.745l-1.626-11.687Z" />
    <path fill="#B5CAFF"
      d="m139.61 20.248 1.042 7.488c-3.578.427-3.446.17-4.074-3.853-.509-3.27.22-3.308 3.032-3.635Z" />
    <path fill="#698EFF"
      d="M168.748 20.525c-.289-2.247-.49-3.189-.992-4.953-.697-2.435-2.719-4.13-5.142-4.362-.873-.088-2.292-.069-3.88 0-.132 0-.264.013-.396.019-1.877.094-3.942.264-5.625.44-3.233.338-7.835.985-9.675 1.562-2.266.716-3.842 2.75-4.005 5.235-.12 1.795-.126 2.743.062 4.958.189 2.229.346 3.183.773 4.965.59 2.498 2.536 4.287 4.959 4.57 1.966.232 6.756-.026 10.09-.333 3.333-.308 8.161-.929 10.083-1.525 2.379-.735 3.967-2.875 4.03-5.48.044-1.858.006-2.837-.276-5.096h-.006Z" />
    <path fill="#B5CAFF"
      d="M145.656 19.602c3.133-.66 6.517-.992 9.424-.703 1.839.182 3.346 1.456 3.673 3.176.15.797.27 1.613.326 2.442.22 3.056-2.178 5.749-5.399 6.182a67.154 67.154 0 0 1-4.721.477c-3.435.22-6.411-2.234-6.574-5.473a25.677 25.677 0 0 1-.012-2.417c.075-1.782 1.431-3.295 3.283-3.684Z" />
    <path stroke="#698EFF" stroke-linecap="round" stroke-miterlimit="10" stroke-width="2.5"
      d="m149.178 28.483-1.808.182M153.404 28.07l-1.878.188" />
    <path fill="#698EFF"
      d="M166.77 14.656c4.414-.728 5.701-1.425 6.831 5.14 1.042 5.857-.163 5.725-4.903 6.503l-1.928-11.637v-.006Z" />
    <path fill="#B5CAFF"
      d="m167.68 17.223 1.237 7.457c3.547-.653 3.34-.866 2.744-4.89-.484-3.27-1.193-3.094-3.981-2.567Z" />
    <path fill="url(#k)"
      d="M114.629 44.865c.929 5.543 3.855 19.408 12.13 22.778 9.687 3.942 47.947-4.713 51.726-12.509 2.775-5.73-4.112-16.438-12.33-20.544 0 0-6.178 8.926-51.532 10.275h.006Z" />
    <path fill="#FF78B2" d="m166.544 49.334-16.229-3.408 7.396 7.25 8.833-3.842Z" />
    <path fill="#FF78B2"
      d="m157.302 55.41-8.657-8.486-1.695 9.007a.903.903 0 0 0 .747 1.067l17.993 2.982c.44.075.86-.252.948-.716l1.62-8.618-10.956 4.764Z" />
    <path fill="#E44598"
      d="m168.252 50.646.012-.069c.088-.47-.188-.922-.621-1.01l-1.099-.233-8.833 3.848-7.403-7.256-.514-.107a.904.904 0 0 0-1.08.728l-.069.383 8.657 8.486 10.956-4.764-.006-.006Z" />
    <path fill="url(#l)"
      d="M168.823 33.919c2.135.364 2.92 3.477 1.607 4.846-2.498 2.604-9.982 8.203-12.481 4.663-2.191-3.107 2.863-7.538 6.636-8.994 1.846-.71 3.209-.684 4.232-.509l.006-.006Z" />
    <path fill="url(#m)"
      d="M143.691 37.365c-3.779 2.85-2.524 6.007-2.103 6.935 1.582 3.472 5.675 11.073 10.39 8.989 6.059-2.674-2.699-10.928-2.699-10.928l-5.588-5.002v.006Z" />
    <path fill="#232145"
      d="M163.21 24.11c-.54 0-1.105-.145-1.67-.44a.79.79 0 0 1-.339-1.055.784.784 0 0 1 1.055-.34c1.111.572 1.72.045 1.921-.125a.785.785 0 0 1 1.024 1.187c-.597.509-1.275.766-1.991.766v.006Z" />
    <path fill="#9C1061"
      d="M158.684 29.532c.245-.44.841-.967 1.67-1.318.897-.377 1.864-.528 2.574-.427l-2.901 2.247c-.477.107-.778.176-.998.182-.308 0-.502-.395-.345-.684Z" />
    <path fill="#FF78B9"
      d="M162.928 27.793c.672.094 1.117.414 1.061.973-.107.791-1.243.722-2.7 1.005-.521.1-.935.194-1.262.27.477-.76 1.256-1.551 2.901-2.248Z" />
    <path fill="#383FD2"
      d="M64.371 37.446a23.238 23.238 0 0 0-.27 1.896c5.67-.565 14.553.176 22.276 7.896a.947.947 0 0 0 .665.276.947.947 0 0 0 .666-.276.936.936 0 0 0 0-1.33c-8.024-8.022-17.247-8.976-23.337-8.462Z" />
    <path fill="#fff"
      d="M69.639 26.255c.659.138 1.324-.094 1.789-.571a1.733 1.733 0 0 1 1.595-.483 1.724 1.724 0 0 1 1.262 1.085 1.94 1.94 0 0 0 1.406 1.243l.71.15c.659.139 1.324-.093 1.789-.57a1.733 1.733 0 0 1 1.594-.484 1.724 1.724 0 0 1 1.262 1.086 1.94 1.94 0 0 0 1.407 1.243l.71.15c.658.139 1.324-.093 1.788-.57a1.717 1.717 0 0 1 1.595-.484 1.724 1.724 0 0 1 1.262 1.086 1.94 1.94 0 0 0 1.406 1.243l.095.019a1.905 1.905 0 0 0 2.254-1.475l.094-.458c.138-.653-.094-1.319-.572-1.79a1.721 1.721 0 0 1-.483-1.594 1.733 1.733 0 0 1 1.086-1.267c.628-.239 1.105-.754 1.243-1.406l.15-.716c.139-.653-.093-1.318-.57-1.789a1.721 1.721 0 0 1-.484-1.594 1.733 1.733 0 0 1 1.086-1.268c.628-.239 1.105-.753 1.243-1.406l.151-.716c.138-.652-.094-1.318-.571-1.788a1.721 1.721 0 0 1-.484-1.595 1.733 1.733 0 0 1 1.086-1.267c.628-.239 1.105-.754 1.243-1.406l.02-.1a1.906 1.906 0 0 0-1.47-2.254l-.094-.019c-.66-.138-1.325.094-1.79.571a1.733 1.733 0 0 1-1.594.484 1.724 1.724 0 0 1-1.262-1.086 2.037 2.037 0 0 0-.515-.772C77.907 10.934 71.698 18.93 68.264 25.828c.194.132.408.239.646.29l.71.15.019-.013Z" />
    <path fill="#FF78B2"
      d="M88.398 24.146 91.406 9.81l-7.177-1.506c-6.353 3.948-10.717 8.819-13.705 13.532l16.198 3.409a1.413 1.413 0 0 0 1.676-1.093v-.006Z" />
    <path fill="#8FFFAC"
      d="M65.652 118.522c1.425-8.304-4.3-4.494-4.3-4.494 4.112-9.585-4.113-6.164-4.113-6.164 4.445-4.444 4.973-8.178 4.922-9.91-2.065.997-4.256 2.497-6.542 4.682a2.443 2.443 0 0 0-.615 2.567l1.162 3.339c.627 1.801 1.494 3.527 2.668 5.027 2.09 2.681 4.514 4.137 6.818 4.953Z" />
    <path fill="#1BA868"
      d="M82.151 106.822c.496 0 .91-.383.942-.885.163-2.787-.96-5.14-2.197-6.867-.546.346-1.068.71-1.545 1.093 1.042 1.456 1.997 3.414 1.865 5.661a.942.942 0 0 0 .885.998h.057-.007Z" />
  </g>
  <defs>
    <linearGradient id="b" x1="26.915" x2="64.83" y1="89.856" y2="65.262" gradientUnits="userSpaceOnUse">
      <stop stop-color="#5B65EB" />
      <stop offset="1" stop-color="#8083FF" />
    </linearGradient>
    <linearGradient id="c" x1="35.127" x2="36.539" y1="136.806" y2="103.627" gradientUnits="userSpaceOnUse">
      <stop stop-color="#51EB80" />
      <stop offset="1" stop-color="#20C57A" />
    </linearGradient>
    <linearGradient id="d" x1="160.611" x2="213.546" y1="72.056" y2="110.639" gradientUnits="userSpaceOnUse">
      <stop offset=".45" stop-color="#15A362" />
      <stop offset=".54" stop-color="#1CAB65" />
      <stop offset=".68" stop-color="#2FC26F" />
      <stop offset=".85" stop-color="#4EE77E" />
      <stop offset=".86" stop-color="#51EB80" />
    </linearGradient>
    <linearGradient id="e" x1="192.869" x2="165.868" y1="111.668" y2="100.766" gradientUnits="userSpaceOnUse">
      <stop stop-color="#51EB80" />
      <stop offset="1" stop-color="#20C57A" />
    </linearGradient>
    <linearGradient id="f" x1="69.626" x2="57.703" y1="115.603" y2="74.1" gradientUnits="userSpaceOnUse">
      <stop offset=".4" stop-color="#51EB80" />
      <stop offset=".88" stop-color="#23C77A" />
      <stop offset=".91" stop-color="#20C57A" />
    </linearGradient>
    <linearGradient id="g" x1="86.76" x2="84.582" y1="126.681" y2="98.995" gradientUnits="userSpaceOnUse">
      <stop stop-color="#51EB80" />
      <stop offset="1" stop-color="#20C57A" />
    </linearGradient>
    <linearGradient id="h" x1="235.919" x2="68.574" y1="107.632" y2="76.678" gradientUnits="userSpaceOnUse">
      <stop offset=".07" stop-color="#5B65EB" />
      <stop offset=".78" stop-color="#8083FF" />
    </linearGradient>
    <linearGradient id="i" x1="94.143" x2="132.16" y1="10.218" y2="99.009" gradientUnits="userSpaceOnUse">
      <stop offset=".06" stop-color="#5B65EB" />
      <stop offset=".26" stop-color="#4A53DF" />
      <stop offset=".51" stop-color="#3C44D5" />
      <stop offset=".72" stop-color="#373FD2" />
    </linearGradient>
    <linearGradient id="j" x1="109.581" x2="136.021" y1="-5.454" y2="44.225" gradientUnits="userSpaceOnUse">
      <stop offset=".22" stop-color="#FFE05C" />
      <stop offset=".3" stop-color="#FFD64A" />
      <stop offset=".42" stop-color="#FFCC35" />
      <stop offset=".56" stop-color="#FFC427" />
      <stop offset=".73" stop-color="#FFC01E" />
      <stop offset="1" stop-color="#FFBF1C" />
    </linearGradient>
    <linearGradient id="k" x1="152.97" x2="146.149" y1="75.552" y2="44.971" gradientUnits="userSpaceOnUse">
      <stop offset=".57" stop-color="#FFE05C" />
      <stop offset=".67" stop-color="#FFDC55" />
      <stop offset=".8" stop-color="#FFD343" />
      <stop offset=".96" stop-color="#FFC325" />
      <stop offset="1" stop-color="#FFBF1C" />
    </linearGradient>
    <linearGradient id="l" x1="170.853" x2="155.116" y1="37.297" y2="41.546" gradientUnits="userSpaceOnUse">
      <stop offset=".23" stop-color="#698EFF" />
      <stop offset="1" stop-color="#4C6AF7" />
    </linearGradient>
    <linearGradient id="m" x1="142.149" x2="147.919" y1="33.946" y2="53.192" gradientUnits="userSpaceOnUse">
      <stop offset=".35" stop-color="#698EFF" />
      <stop offset=".45" stop-color="#6184FC" />
      <stop offset=".71" stop-color="#5170F8" />
      <stop offset=".89" stop-color="#4C6AF7" />
    </linearGradient>
    <clipPath id="a">
      <path fill="#fff" d="M0 0h215v120H0z" />
    </clipPath>
  </defs>
</svg>
