<svg width="277" height="158" viewBox="0 0 277 158" fill="none" xmlns="http://www.w3.org/2000/svg">
  <g filter="url(#filter0_ddd_204_37953)">
    <rect width="278" height="158" rx="3" fill="url(#paint0_linear_204_37953)" />
    <path
      d="M24.322 62.236V64H17.672V63.454C17.672 62.6233 17.8073 61.9327 18.078 61.382C18.358 60.822 18.694 60.3787 19.086 60.052C19.4873 59.7253 20.0147 59.3707 20.668 58.988C21.3027 58.6147 21.7227 58.288 21.928 58.008C22.1333 57.7187 22.236 57.4107 22.236 57.084C22.236 56.7293 22.1147 56.4447 21.872 56.23C21.6387 56.0153 21.298 55.908 20.85 55.908C20.4673 55.908 20.1267 56.034 19.828 56.286C19.5387 56.5287 19.31 56.8787 19.142 57.336L17.504 56.412C17.7467 55.74 18.148 55.194 18.708 54.774C19.2773 54.354 20.024 54.144 20.948 54.144C21.956 54.144 22.7587 54.4147 23.356 54.956C23.9533 55.488 24.252 56.2067 24.252 57.112C24.252 57.7933 24.056 58.3907 23.664 58.904C23.2813 59.4173 22.6327 59.9353 21.718 60.458C21.186 60.766 20.7707 61.0647 20.472 61.354C20.1733 61.634 19.982 61.928 19.898 62.236H24.322ZM30.0413 60.444H25.5613V58.764H30.0413V60.444ZM34.8562 64H32.6862L30.9082 57.42H32.8542L33.8902 61.788L35.0102 57.42H37.0262L38.1462 61.788L39.1822 57.42H41.1282L39.3502 64H37.1802L36.0182 59.702L34.8562 64ZM45.3549 64.196C44.3003 64.196 43.4463 63.902 42.7929 63.314C42.1489 62.726 41.8269 61.8627 41.8269 60.724C41.8269 59.9493 41.9809 59.3007 42.2889 58.778C42.5969 58.246 42.9983 57.854 43.4929 57.602C43.9969 57.35 44.5336 57.224 45.1029 57.224C46.1576 57.224 46.9416 57.5367 47.4549 58.162C47.9683 58.7873 48.2249 59.5993 48.2249 60.598C48.2249 60.8127 48.2109 61.032 48.1829 61.256H43.7309C43.8243 61.6853 44.0156 62.0213 44.3049 62.264C44.5943 62.5067 44.9629 62.628 45.4109 62.628C45.7283 62.628 46.0129 62.572 46.2649 62.46C46.5169 62.348 46.7596 62.1753 46.9929 61.942L47.9869 63.202C47.6603 63.51 47.2869 63.7527 46.8669 63.93C46.4469 64.1073 45.9429 64.196 45.3549 64.196ZM46.4889 59.926C46.3863 59.142 45.9289 58.75 45.1169 58.75C44.7436 58.75 44.4403 58.8527 44.2069 59.058C43.9829 59.2633 43.8289 59.5527 43.7449 59.926H46.4889ZM52.7924 64.196C51.7378 64.196 50.8838 63.902 50.2304 63.314C49.5864 62.726 49.2644 61.8627 49.2644 60.724C49.2644 59.9493 49.4184 59.3007 49.7264 58.778C50.0344 58.246 50.4358 57.854 50.9304 57.602C51.4344 57.35 51.9711 57.224 52.5404 57.224C53.5951 57.224 54.3791 57.5367 54.8924 58.162C55.4058 58.7873 55.6624 59.5993 55.6624 60.598C55.6624 60.8127 55.6484 61.032 55.6204 61.256H51.1684C51.2618 61.6853 51.4531 62.0213 51.7424 62.264C52.0318 62.5067 52.4004 62.628 52.8484 62.628C53.1658 62.628 53.4504 62.572 53.7024 62.46C53.9544 62.348 54.1971 62.1753 54.4304 61.942L55.4244 63.202C55.0978 63.51 54.7244 63.7527 54.3044 63.93C53.8844 64.1073 53.3804 64.196 52.7924 64.196ZM53.9264 59.926C53.8238 59.142 53.3664 58.75 52.5544 58.75C52.1811 58.75 51.8778 58.8527 51.6444 59.058C51.4204 59.2633 51.2664 59.5527 51.1824 59.926H53.9264ZM57.0379 64V53.78H58.9699V59.24L60.8319 57.42H63.1559L60.7059 59.8C61.2379 60.4067 61.7186 61.0693 62.1479 61.788C62.5866 62.5067 62.9506 63.244 63.2399 64H61.0839C60.7013 62.8427 60.1413 61.8627 59.4039 61.06L58.9699 61.494V64H57.0379ZM70.3252 64.196C69.5599 64.196 68.9952 64.0047 68.6312 63.622C68.2672 63.2393 68.0852 62.6373 68.0852 61.816V59.072H66.9232V57.42H68.0852V55.712L70.0312 55.152V57.42H71.6272V59.072H70.0312V61.606C70.0312 61.9047 70.0872 62.138 70.1992 62.306C70.3112 62.4647 70.5212 62.544 70.8292 62.544C71.1279 62.544 71.3939 62.446 71.6272 62.25V63.86C71.3099 64.084 70.8759 64.196 70.3252 64.196ZM72.8973 64V57.42H74.6333L74.8153 58.386C74.9926 58.0033 75.2213 57.714 75.5013 57.518C75.7906 57.322 76.1546 57.224 76.5933 57.224C76.864 57.224 77.06 57.2567 77.1813 57.322V59.17C76.8826 59.0487 76.5653 58.988 76.2293 58.988C75.94 58.988 75.6646 59.0813 75.4033 59.268C75.142 59.4453 74.946 59.6973 74.8153 60.024V64H72.8973ZM79.5508 56.37C79.1961 56.37 78.9161 56.2673 78.7108 56.062C78.5055 55.8567 78.4028 55.5767 78.4028 55.222C78.4028 54.8673 78.5055 54.5873 78.7108 54.382C78.9161 54.1767 79.1961 54.074 79.5508 54.074C79.9055 54.074 80.1855 54.1767 80.3908 54.382C80.5961 54.5873 80.6988 54.8673 80.6988 55.222C80.6988 55.5767 80.5961 55.8567 80.3908 56.062C80.1855 56.2673 79.9055 56.37 79.5508 56.37ZM80.5168 64H78.5848V57.42H80.5168V64ZM84.0969 64.196C83.4995 64.196 83.0142 64.0187 82.6409 63.664C82.2675 63.3 82.0809 62.81 82.0809 62.194C82.0809 61.4473 82.4169 60.8967 83.0889 60.542C83.7702 60.178 84.7269 59.9867 85.9589 59.968V59.926C85.9589 59.59 85.8469 59.3193 85.6229 59.114C85.4082 58.9087 85.1235 58.806 84.7689 58.806C84.4982 58.806 84.2135 58.8573 83.9149 58.96C83.6255 59.0627 83.3502 59.2307 83.0889 59.464L82.1929 58.274C82.5289 57.9287 82.9302 57.6673 83.3969 57.49C83.8635 57.3127 84.3722 57.224 84.9229 57.224C86.9015 57.224 87.8909 58.1247 87.8909 59.926V64H86.0849L85.9589 63.286C85.5015 63.8927 84.8809 64.196 84.0969 64.196ZM84.6289 62.684C84.9089 62.684 85.1515 62.628 85.3569 62.516C85.5715 62.3947 85.7722 62.2407 85.9589 62.054V61.172C84.6242 61.2373 83.9569 61.5453 83.9569 62.096C83.9569 62.292 84.0175 62.4413 84.1389 62.544C84.2602 62.6373 84.4235 62.684 84.6289 62.684ZM91.7457 64.196C91.0457 64.196 90.5183 64 90.1637 63.608C89.809 63.216 89.6317 62.6 89.6317 61.76V53.78H91.5637V61.592C91.5637 61.9093 91.6103 62.138 91.7037 62.278C91.8063 62.418 91.9743 62.488 92.2077 62.488C92.385 62.488 92.5343 62.4413 92.6557 62.348V64C92.553 64.0747 92.4317 64.126 92.2917 64.154C92.1517 64.182 91.9697 64.196 91.7457 64.196Z"
      fill="#F2F3F5" />
    <path
      d="M87.1202 29.1152H77.3858C77.1373 29.1152 76.92 29.3024 76.8889 29.5519L76.4232 32.7955C76.3766 33.0918 76.6095 33.3725 76.92 33.3725H78.7054C78.8917 33.3725 79.0004 33.5597 78.9383 33.7156C78.7209 34.2302 78.5502 34.8072 78.4725 35.4154L77.5721 41.7C76.9821 45.9106 80.4598 48.0002 84.2635 48.0002C88.238 48.0002 92.1504 45.895 92.7403 41.7L93.6408 35.4154C94.1997 31.2985 90.8307 29.2088 87.1202 29.1152ZM88.9832 35.431L88.0827 41.5753C87.8809 43.0256 86.2507 43.6961 84.7448 43.6961C83.3475 43.6961 81.9813 43.0256 82.1676 41.7L83.068 35.4154C83.2699 34.0431 84.9 33.3414 86.406 33.3414C87.912 33.3414 89.2006 34.0431 88.9832 35.431Z"
      fill="white" />
    <path
      d="M33.1073 29.1152H29.4744C29.226 29.1152 29.0086 29.3024 28.9776 29.5519L27.8598 37.5519V37.5675L27.9063 40.6552C27.9063 40.7176 27.8598 40.78 27.7977 40.7955L26.7575 37.0685V37.0529L23.5127 29.4271C23.435 29.24 23.2487 29.1152 23.0469 29.1152H19.3674C19.119 29.1152 18.9016 29.3024 18.8706 29.5519L16.4176 47.1737C16.371 47.4856 16.6194 47.7507 16.9144 47.7507H20.5784C20.8268 47.7507 21.0441 47.5636 21.0752 47.3141L22.0378 40.3121V40.2965L21.9912 36.7098L22.0999 36.6786L23.2022 40.4057V40.4213L26.2296 47.4544C26.3072 47.6416 26.4935 47.7663 26.6954 47.7663H30.6699C30.9183 47.7663 31.1356 47.5792 31.1667 47.3297L33.6197 29.7078C33.6663 29.3959 33.4179 29.1152 33.1073 29.1152Z"
      fill="white" />
    <path
      d="M41.0563 29.1152H37.3923C37.1439 29.1152 36.9266 29.3024 36.8955 29.5519L34.4425 47.1581C34.3959 47.47 34.6443 47.7351 34.9393 47.7351H38.6033C38.8517 47.7351 39.0691 47.548 39.1001 47.2985L41.5531 29.6922C41.5997 29.3959 41.3668 29.1152 41.0563 29.1152Z"
      fill="white" />
    <path
      d="M58.2429 29.1152H44.534C44.2856 29.1152 44.0682 29.3024 44.0372 29.5519L43.5559 32.8423C43.5093 33.1542 43.7422 33.4193 44.0527 33.4193H47.8874C48.198 33.4193 48.4308 33.6844 48.3843 33.9963L46.5833 47.1581C46.5367 47.47 46.7851 47.7351 47.0801 47.7351H50.7907C51.0391 47.7351 51.2565 47.548 51.2875 47.2985L53.135 33.856C53.1661 33.6065 53.3834 33.4193 53.6318 33.4193H57.7461C57.9945 33.4193 58.2118 33.2322 58.2429 32.9827L58.7242 29.6922C58.8018 29.3959 58.5534 29.1152 58.2429 29.1152Z"
      fill="white" />
    <path
      d="M68.7226 29.1152H61.7517C61.5033 29.1152 61.2859 29.3024 61.2549 29.5519L58.8018 47.1581C58.7553 47.47 59.0037 47.7351 59.2987 47.7351H63.0092C63.2576 47.7351 63.475 47.548 63.506 47.2985L64.2202 42.0431C64.2357 41.9184 64.3444 41.8248 64.4686 41.8248H64.9499C65.043 41.8248 65.1207 41.8716 65.1673 41.9495L68.707 47.5168C68.8002 47.6571 68.9554 47.7507 69.1417 47.7507H73.7373C74.1409 47.7507 74.3893 47.2829 74.1564 46.9554L70.4304 41.6065C70.3372 41.4817 70.3838 41.2946 70.5235 41.2322C72.8989 40.0626 74.2806 38.8774 74.7309 35.5402C75.2587 31.1737 72.5418 29.1152 68.7226 29.1152ZM69.9956 35.6182C69.8714 36.6942 69.0331 37.7702 67.5892 37.7702H65.4312C65.1207 37.7702 64.8878 37.4895 64.9344 37.1932L65.4001 33.9495C65.4312 33.7 65.6485 33.5129 65.8969 33.5129H68.2102C69.5765 33.5129 70.1354 34.4954 69.9956 35.6182Z"
      fill="white" />
    <path
      d="M32.9676 17.9648H35.6069C36.2435 17.9648 36.7869 18.0584 37.2216 18.2611C37.6252 18.4327 37.9668 18.729 38.2152 19.1032C38.4326 19.4775 38.5568 19.8986 38.5412 20.3196C38.5412 20.7563 38.4326 21.1773 38.1997 21.5516C37.9513 21.9415 37.5787 22.2377 37.1595 22.4249C36.6937 22.6432 36.1037 22.7524 35.4206 22.7524H32.9676V17.9648V17.9648ZM35.4051 21.5204C35.8398 21.5204 36.1658 21.4112 36.3987 21.1929C36.6316 20.959 36.7558 20.6471 36.7403 20.304C36.7558 19.9921 36.6471 19.6958 36.4298 19.4775C36.228 19.2748 35.9174 19.1656 35.4983 19.1656H34.6754V21.5048H35.4051V21.5204Z"
      fill="white" />
    <path
      d="M42.5157 22.7364C42.1742 22.6429 41.8326 22.5025 41.5221 22.3154V21.177C41.786 21.3797 42.0965 21.5201 42.407 21.598C42.7641 21.7072 43.1212 21.754 43.4938 21.7696C43.618 21.7696 43.7422 21.754 43.8664 21.7072C43.9441 21.6604 43.9906 21.6136 43.9906 21.5512C43.9906 21.4889 43.9751 21.4265 43.9285 21.3797C43.8509 21.3173 43.7577 21.2861 43.6646 21.2705L42.8573 21.0834C42.3915 20.9742 42.0655 20.8183 41.8637 20.6312C41.6618 20.4284 41.5531 20.1477 41.5687 19.867C41.5687 19.6175 41.6618 19.368 41.8326 19.1809C42.0344 18.9625 42.2828 18.8066 42.5623 18.7286C42.9194 18.6195 43.292 18.5571 43.6801 18.5727C44.0372 18.5727 44.3788 18.6039 44.7203 18.6974C44.9998 18.7598 45.2637 18.869 45.5121 19.0093V20.0854C45.2792 19.945 45.0308 19.8514 44.7824 19.7891C44.503 19.7111 44.208 19.6799 43.9285 19.6799C43.5093 19.6799 43.292 19.7579 43.292 19.8982C43.292 19.9606 43.323 20.023 43.3851 20.0542C43.4938 20.1009 43.618 20.1321 43.7422 20.1633L44.4253 20.2881C44.8601 20.3661 45.2016 20.5064 45.419 20.6935C45.6363 20.8807 45.745 21.177 45.745 21.5512C45.745 21.9567 45.5432 22.331 45.2016 22.5337C44.8445 22.7676 44.3322 22.8924 43.6646 22.8924C43.2765 22.8768 42.8883 22.83 42.5157 22.7364Z"
      fill="white" />
    <path
      d="M47.3286 22.5962C46.9715 22.4246 46.661 22.1595 46.4437 21.8164C46.2418 21.4889 46.1487 21.0991 46.1487 20.7092C46.1487 20.3194 46.2418 19.9451 46.4592 19.6176C46.6765 19.2745 46.9871 19.025 47.3597 18.8535C47.8099 18.6663 48.2912 18.5572 48.7725 18.5728C49.4556 18.5728 50.0145 18.7131 50.4647 19.0094V20.257C50.294 20.1478 50.1077 20.0542 49.9058 19.9919C49.6885 19.9295 49.4556 19.8827 49.2227 19.8827C48.8035 19.8827 48.4775 19.9607 48.2291 20.1166C47.8875 20.3038 47.7788 20.7248 47.9651 21.0679C48.0273 21.1771 48.1204 21.2706 48.2291 21.333C48.462 21.4889 48.788 21.5669 49.2382 21.5669C49.4711 21.5669 49.6885 21.5357 49.9058 21.4733C50.1077 21.411 50.294 21.333 50.4647 21.2238V22.4246C49.9369 22.7365 49.3469 22.8925 48.7414 22.8769C48.2601 22.8925 47.7633 22.7989 47.3286 22.5962Z"
      fill="white" />
    <path
      d="M52.157 22.5967C51.7844 22.4251 51.4739 22.16 51.2566 21.817C51.0547 21.4895 50.946 21.0996 50.946 20.7097C50.946 20.3199 51.0392 19.9456 51.2566 19.6181C51.4739 19.2906 51.7844 19.0255 52.157 18.8696C53.042 18.5109 54.0511 18.5109 54.9361 18.8696C55.2931 19.0255 55.6037 19.2906 55.821 19.6181C56.0228 19.9456 56.1315 20.3355 56.1315 20.7097C56.1315 21.0996 56.0228 21.4895 55.821 21.817C55.6037 22.16 55.2931 22.4251 54.9361 22.5967C54.0356 22.971 53.042 22.971 52.157 22.5967ZM54.2064 21.3803C54.3772 21.2088 54.4703 20.9593 54.4548 20.7253C54.4703 20.4758 54.3772 20.2419 54.2064 20.0704C54.0201 19.8988 53.7717 19.8209 53.5233 19.8209C53.2748 19.8053 53.0264 19.8988 52.8401 20.0704C52.6694 20.2419 52.5762 20.4758 52.5917 20.7253C52.5762 20.9749 52.6694 21.2088 52.8401 21.3803C53.0264 21.5519 53.2748 21.6454 53.5233 21.6298C53.7872 21.6454 54.0356 21.5519 54.2064 21.3803Z"
      fill="white" />
    <path
      d="M60.1992 18.8223V20.3037C59.9973 20.179 59.7645 20.1166 59.5316 20.1322C59.1745 20.1322 58.895 20.2414 58.6932 20.4597C58.5069 20.678 58.3982 21.0211 58.3982 21.4889V22.7365H56.737V18.7443H58.3672V20.0074C58.4603 19.5396 58.6 19.1965 58.8019 18.9782C59.0037 18.7599 59.2832 18.6351 59.5781 18.6507C59.7955 18.6507 60.0129 18.7131 60.1992 18.8223Z"
      fill="white" />
    <path
      d="M65.7261 17.8242V22.7365H64.0649V21.8476C63.9407 22.1595 63.7078 22.4402 63.4284 22.6117C63.1024 22.7989 62.7453 22.8924 62.3727 22.8769C62.0311 22.8924 61.6895 22.7833 61.3946 22.5961C61.1151 22.409 60.8822 22.1439 60.7425 21.832C60.5872 21.4889 60.5096 21.1147 60.5096 20.7404C60.4941 20.3505 60.5872 19.9607 60.7425 19.6176C60.8978 19.2901 61.1462 19.025 61.4411 18.8379C61.7516 18.6507 62.1087 18.5572 62.4658 18.5572C63.2576 18.5572 63.7855 18.9002 64.0649 19.5864V17.8242H65.7261ZM63.8165 21.3486C63.9873 21.177 64.0805 20.9431 64.0649 20.7092C64.0649 20.4753 63.9718 20.2414 63.8165 20.0854C63.4284 19.7579 62.8695 19.7579 62.4658 20.0854C62.295 20.257 62.2019 20.4753 62.2174 20.7092C62.2019 20.9431 62.295 21.177 62.4658 21.3486C62.6521 21.5201 62.885 21.5981 63.1334 21.5981C63.3973 21.6137 63.6302 21.5201 63.8165 21.3486Z"
      fill="white" />
    <path
      d="M26.8509 16.7797C26.0436 16.4211 25.1897 16.1559 24.3047 16C24.1805 16.2183 24.0718 16.4366 23.9787 16.6706C23.0472 16.5302 22.0846 16.5302 21.1531 16.6706C21.0599 16.4366 20.9512 16.2183 20.827 16C19.9576 16.1559 19.1037 16.4211 18.2809 16.7953C16.6818 19.1813 16.247 21.5049 16.4644 23.8129C17.4115 24.5146 18.4672 25.0448 19.585 25.3879C19.8334 25.0448 20.0663 24.6862 20.2526 24.3119C19.8955 24.1715 19.5384 24 19.1969 23.8129C19.29 23.7505 19.3676 23.6881 19.4608 23.6257C21.4325 24.5614 23.7148 24.5614 25.702 23.6257C25.7796 23.6881 25.8728 23.7661 25.9659 23.8129C25.6244 24.0156 25.2828 24.1871 24.9102 24.3119C25.0965 24.6862 25.3294 25.0448 25.5778 25.3879C26.6956 25.0448 27.7514 24.5146 28.6984 23.8129C28.9468 21.1462 28.2482 18.8382 26.8509 16.7797ZM20.5165 22.3938C19.911 22.3938 19.3987 21.8324 19.3987 21.1618C19.3987 20.4912 19.88 19.9142 20.501 19.9142C21.122 19.9142 21.6188 20.4756 21.6188 21.1618C21.6188 21.848 21.1375 22.3938 20.5165 22.3938ZM24.6152 22.3938C24.0097 22.3938 23.5129 21.8324 23.5129 21.1618C23.5129 20.4912 23.9942 19.9142 24.6152 19.9142C25.2362 19.9142 25.7331 20.4756 25.7175 21.1618C25.7175 21.848 25.2362 22.3938 24.6152 22.3938Z"
      fill="white" />
    <path
      d="M39.954 19.1816C40.4085 19.1816 40.7769 18.8465 40.7769 18.4331C40.7769 18.0197 40.4085 17.6846 39.954 17.6846C39.4996 17.6846 39.1312 18.0197 39.1312 18.4331C39.1312 18.8465 39.4996 19.1816 39.954 19.1816Z"
      fill="white" />
    <path d="M39.1312 19.6963C39.6591 19.9146 40.2645 19.9146 40.7924 19.6963V22.7684H39.1312V19.6963Z" fill="white" />
  </g>
  <path opacity="0.2"
    d="M93.0975 157.076H62V152.425C62 145.01 68.192 138.942 75.7599 138.942H78.5119C80.0255 138.942 81.2639 137.729 81.2639 136.246V119.73C81.2639 108.54 90.4831 99.5066 101.904 99.5066H138.299C141.808 99.5066 144.628 96.7427 144.628 93.3047V93.0351C144.628 85.5524 150.82 79.5527 158.388 79.5527C169.534 79.5527 185.083 79.5527 196.228 79.5527C203.796 79.5527 209.988 85.6198 209.988 93.0351V120H239.503C260.418 120 277.343 136.583 277.343 157.076H93.0975Z"
    fill="#AEC7FF" />
  <path
    d="M113.985 90.1001L113.091 91.8911C112.884 92.3044 113.297 92.7866 113.779 92.5799L115.567 91.6844C115.705 91.6155 115.843 91.6155 115.98 91.6844L117.769 92.5799C118.182 92.7866 118.663 92.3733 118.457 91.8911L117.563 90.1001C117.494 89.9623 117.494 89.8245 117.563 89.6867L118.457 87.8957C118.663 87.4824 118.251 87.0002 117.769 87.2069L115.98 88.1024C115.843 88.1713 115.705 88.1713 115.567 88.1024L113.779 87.2069C113.366 87.0002 112.884 87.4135 113.091 87.8957L113.985 89.6867C114.054 89.7556 114.054 89.9623 113.985 90.1001Z"
    fill="#AEC7FF" />
  <path
    d="M235.223 127.723L234.329 129.514C234.123 129.927 234.535 130.41 235.017 130.203L236.806 129.307C236.943 129.239 237.081 129.239 237.219 129.307L239.007 130.203C239.42 130.41 239.902 129.996 239.695 129.514L238.801 127.723C238.732 127.585 238.732 127.448 238.801 127.31L239.695 125.519C239.902 125.105 239.489 124.623 239.007 124.83L237.219 125.725C237.081 125.794 236.943 125.794 236.806 125.725L235.017 124.83C234.604 124.623 234.123 125.037 234.329 125.519L235.223 127.31C235.292 127.379 235.292 127.585 235.223 127.723Z"
    fill="#AEC7FF" />
  <path
    d="M264.977 117.152C264.564 117.152 264.289 116.876 264.289 116.463V115.774C264.289 115.361 264.564 115.085 264.977 115.085C265.389 115.085 265.665 115.361 265.665 115.774V116.463C265.665 116.807 265.321 117.152 264.977 117.152Z"
    fill="#7196FF" />
  <path
    d="M264.976 122.662C264.564 122.662 264.288 122.387 264.288 121.973V121.285C264.288 120.871 264.564 120.596 264.976 120.596C265.389 120.596 265.664 120.871 265.664 121.285V121.973C265.664 122.318 265.32 122.662 264.976 122.662Z"
    fill="#7196FF" />
  <path
    d="M266.697 118.873C266.697 118.46 266.972 118.185 267.385 118.185H268.073C268.485 118.185 268.761 118.46 268.761 118.873C268.761 119.287 268.485 119.562 268.073 119.562H267.385C266.972 119.562 266.697 119.218 266.697 118.873Z"
    fill="#7196FF" />
  <path
    d="M261.193 118.873C261.193 118.46 261.468 118.185 261.881 118.185H262.568C262.981 118.185 263.256 118.46 263.256 118.873C263.256 119.287 262.981 119.562 262.568 119.562H261.881C261.468 119.562 261.193 119.218 261.193 118.873Z"
    fill="#7196FF" />
  <path
    d="M93.7786 112.845C93.3658 112.845 93.0906 112.569 93.0906 112.156V111.467C93.0906 111.054 93.3658 110.778 93.7786 110.778C94.1914 110.778 94.4666 111.054 94.4666 111.467V112.156C94.4666 112.569 94.1914 112.845 93.7786 112.845Z"
    fill="#D4E4FF" />
  <path
    d="M93.7787 118.356C93.366 118.356 93.0908 118.08 93.0908 117.667V116.978C93.0908 116.565 93.366 116.289 93.7787 116.289C94.1915 116.289 94.4667 116.565 94.4667 116.978V117.667C94.4667 118.08 94.1915 118.356 93.7787 118.356Z"
    fill="#D4E4FF" />
  <path
    d="M95.4985 114.567C95.4985 114.153 95.7737 113.878 96.1865 113.878H96.8745C97.2873 113.878 97.5625 114.153 97.5625 114.567C97.5625 114.98 97.2873 115.256 96.8745 115.256H96.1865C95.7737 115.256 95.4985 114.98 95.4985 114.567Z"
    fill="#D4E4FF" />
  <path
    d="M89.9946 114.567C89.9946 114.153 90.2698 113.878 90.6826 113.878H91.3706C91.7834 113.878 92.0586 114.153 92.0586 114.567C92.0586 114.98 91.7834 115.256 91.3706 115.256H90.6826C90.2698 115.256 89.9946 114.98 89.9946 114.567Z"
    fill="#D4E4FF" />
  <path
    d="M243.442 73.006C243.029 73.006 242.754 72.7305 242.754 72.3171V71.6283C242.754 71.215 243.029 70.9395 243.442 70.9395C243.855 70.9395 244.13 71.215 244.13 71.6283V72.3171C244.13 72.7305 243.855 73.006 243.442 73.006Z"
    fill="#D4E4FF" />
  <path
    d="M243.442 78.5167C243.029 78.5167 242.754 78.2412 242.754 77.8279V77.139C242.754 76.7257 243.029 76.4502 243.442 76.4502C243.855 76.4502 244.13 76.7257 244.13 77.139V77.8279C244.13 78.2412 243.855 78.5167 243.442 78.5167Z"
    fill="#D4E4FF" />
  <path
    d="M245.162 74.7279C245.162 74.3146 245.437 74.0391 245.85 74.0391H246.538C246.95 74.0391 247.226 74.3146 247.226 74.7279C247.226 75.1412 246.95 75.4168 246.538 75.4168H245.85C245.437 75.4168 245.162 75.1412 245.162 74.7279Z"
    fill="#D4E4FF" />
  <path
    d="M239.658 74.7279C239.658 74.3146 239.933 74.0391 240.346 74.0391H241.034C241.447 74.0391 241.722 74.3146 241.722 74.7279C241.722 75.1412 241.447 75.4168 241.034 75.4168H240.346C239.933 75.4168 239.658 75.1412 239.658 74.7279Z"
    fill="#D4E4FF" />
  <g clip-path="url(#clip0_204_37953)">
    <path
      d="M241.722 126.712C204.161 155.49 172.328 119.785 125.427 152.095L121.295 137.561C123.176 135.931 124.755 133.384 125.847 130.277C126.299 128.972 126.647 127.632 126.889 126.27C127.257 124.294 127.443 122.288 127.443 120.277C127.443 111.839 124.335 104.674 120.018 102.042C119.259 101.573 118.422 101.246 117.549 101.075C117.151 100.993 116.745 100.953 116.339 100.956C114.592 100.956 112.929 101.669 111.451 102.925L107.335 88.4257C154.236 56.0988 186.069 91.8213 223.631 63.043L227.729 77.4746C226.117 78.8499 224.739 80.9042 223.698 83.4001C223.207 84.5431 222.809 85.7241 222.505 86.9316C221.865 89.5016 221.543 92.1422 221.548 94.7926C221.548 103.91 225.193 111.567 230.081 113.588C230.825 113.889 231.615 114.062 232.416 114.097H232.651C234.415 114.097 236.095 113.384 237.573 112.111L241.722 126.712Z"
      fill="#FF78B7" />
    <path
      d="M220.556 121.381C195.628 129.667 171.892 117.153 142.612 126.78L132.735 92.0255C162.014 82.3818 185.75 94.8948 210.679 86.6094L220.556 121.381Z"
      fill="white" />
    <path
      d="M200.163 110.226L198.315 103.723C198.045 102.784 197.479 101.959 196.703 101.374C195.927 100.788 194.983 100.475 194.015 100.481H193.007L192.688 99.3599C192.318 98.0865 191.561 96.9632 190.523 96.1494C189.486 95.3357 188.222 94.8729 186.909 94.8267C177.637 94.5041 168.213 93.2987 158.285 93.4684C157.686 93.4763 157.096 93.6237 156.562 93.8993C156.028 94.1749 155.565 94.5712 155.207 95.0574C154.85 95.5436 154.608 96.1067 154.501 96.7027C154.394 97.2988 154.424 97.9118 154.589 98.494L154.808 99.2581L154.035 99.309C153.598 99.347 153.174 99.4824 152.795 99.7053C152.416 99.9282 152.09 100.233 151.841 100.598C151.592 100.963 151.427 101.38 151.356 101.817C151.285 102.255 151.311 102.703 151.431 103.129L153.279 109.666C153.563 110.658 154.178 111.52 155.021 112.106C155.863 112.691 156.88 112.963 157.898 112.875L158.671 112.841L158.873 113.537C159.243 114.854 160.033 116.011 161.12 116.828C162.208 117.645 163.532 118.075 164.887 118.053C174.646 117.866 183.919 119.004 193.024 119.377C193.642 119.405 194.257 119.283 194.819 119.022C195.38 118.762 195.873 118.37 196.255 117.879C196.638 117.388 196.899 116.812 197.018 116.198C197.136 115.585 197.109 114.952 196.938 114.352L196.854 114.063H197.341C197.798 114.054 198.246 113.94 198.652 113.729C199.058 113.518 199.411 113.215 199.684 112.845C199.956 112.474 200.141 112.046 200.224 111.592C200.307 111.138 200.286 110.671 200.163 110.226Z"
      fill="#7194FF" />
    <path
      d="M232.416 114.097C231.615 114.061 230.826 113.889 230.081 113.587L232.651 122.637C223.647 128.036 214.391 130.345 202.045 130.345C197.14 130.345 192.268 130.006 187.111 129.632C181.954 129.258 176.444 128.885 170.867 128.885C160.418 128.885 146.492 130.056 130.467 138.885L126.889 126.27C126.647 127.632 126.299 128.972 125.847 130.277L129.19 142.077C144.409 133.062 158.05 131.007 170.867 131.007C181.685 131.007 191.932 132.467 202.045 132.467C213.014 132.467 223.849 130.753 235.121 123.605L232.416 114.097ZM156.403 82.1264C161.813 82.1264 167.171 82.5169 172.345 82.8735C177.519 83.23 182.491 83.5866 187.548 83.5866C196.148 83.5866 207.403 82.6697 219.364 75.8444L222.505 86.9313C222.809 85.7238 223.207 84.5429 223.698 83.3998L220.624 72.6016C209.352 79.7495 198.517 81.4643 187.548 81.4643C177.418 81.4643 167.205 80.0041 156.403 80.0041C143.57 80.0041 129.912 82.0755 114.71 91.0741L117.549 101.074C118.422 101.245 119.259 101.573 120.018 102.042L117.179 92.0758C132.718 83.281 146.257 82.1434 156.403 82.1264Z"
      fill="#E9459D" />
    <path
      d="M183.499 112.212C179.3 111.924 175.033 111.601 170.699 111.431C169.886 111.402 169.104 111.112 168.466 110.602C167.828 110.091 167.369 109.389 167.154 108.596L165.542 102.925C165.451 102.607 165.436 102.273 165.499 101.948C165.561 101.623 165.699 101.318 165.901 101.058C166.102 100.798 166.362 100.59 166.659 100.451C166.956 100.312 167.281 100.246 167.608 100.259C171.992 100.429 176.31 100.769 180.543 101.057C181.341 101.11 182.103 101.411 182.726 101.919C183.348 102.426 183.8 103.116 184.02 103.893L185.616 109.564C185.709 109.885 185.724 110.224 185.659 110.552C185.594 110.88 185.452 111.188 185.244 111.448C185.036 111.708 184.768 111.914 184.464 112.047C184.161 112.18 183.829 112.237 183.499 112.212Z"
      fill="#B6CBFF" />
    <path
      d="M176.125 108.952C176.152 109.051 176.155 109.155 176.134 109.256C176.113 109.356 176.069 109.45 176.005 109.53C175.941 109.61 175.859 109.673 175.766 109.714C175.672 109.755 175.571 109.774 175.47 109.767L171.035 109.529C170.826 109.524 170.624 109.452 170.459 109.324C170.293 109.196 170.171 109.018 170.111 108.816L170.077 108.664C170.048 108.565 170.042 108.461 170.06 108.359C170.079 108.258 170.121 108.162 170.184 108.081C170.246 107.999 170.327 107.934 170.42 107.891C170.512 107.848 170.614 107.827 170.716 107.832C172.211 107.9 173.706 107.984 175.184 108.086C175.388 108.096 175.583 108.17 175.743 108.298C175.902 108.426 176.018 108.601 176.074 108.799L176.125 108.952ZM182.827 109.411L182.794 109.258C182.736 109.059 182.62 108.883 182.461 108.752C182.302 108.622 182.108 108.544 181.903 108.528L178.577 108.307C178.475 108.297 178.371 108.312 178.276 108.352C178.181 108.392 178.097 108.455 178.032 108.536C177.967 108.617 177.923 108.713 177.904 108.815C177.885 108.917 177.891 109.023 177.922 109.122L177.956 109.275C178.013 109.474 178.129 109.65 178.288 109.78C178.447 109.911 178.642 109.989 178.846 110.005L182.172 110.226C182.274 110.232 182.375 110.214 182.468 110.173C182.561 110.131 182.643 110.068 182.707 109.989C182.771 109.909 182.816 109.815 182.836 109.714C182.857 109.614 182.854 109.51 182.827 109.411V109.411Z"
      fill="#7194FF" />
    <path
      d="M163.039 103.35C163.19 104.538 162.434 105.506 161.325 105.506C160.217 105.506 159.226 104.538 159.074 103.35C158.923 102.161 159.679 101.193 160.788 101.193C161.897 101.193 162.888 102.161 163.039 103.35ZM190.84 104.708C190.689 103.502 189.681 102.552 188.572 102.552C187.464 102.552 186.708 103.502 186.859 104.708C187.01 105.913 188.035 106.847 189.127 106.847C190.219 106.847 190.991 105.896 190.84 104.708ZM183.953 113.503L176.83 113.01C179.921 116.134 182.76 115.829 183.953 113.503Z"
      fill="black" />
    <path
      d="M208.932 110.26L208.512 110.328C207.389 110.519 206.236 110.285 205.272 109.671C204.308 109.057 203.602 108.106 203.288 107L203.17 106.593C203.023 106.071 202.987 105.524 203.064 104.987C203.141 104.45 203.329 103.936 203.616 103.477C203.903 103.019 204.282 102.627 204.729 102.327C205.177 102.027 205.681 101.826 206.211 101.737L206.631 101.669C207.752 101.47 208.907 101.698 209.872 102.309C210.837 102.921 211.544 103.872 211.855 104.98L211.973 105.387C212.119 105.91 212.156 106.458 212.079 106.996C212.002 107.534 211.814 108.049 211.528 108.509C211.241 108.969 210.861 109.362 210.414 109.664C209.967 109.965 209.462 110.169 208.932 110.26V110.26ZM149.449 106.287C149.134 105.182 148.427 104.233 147.463 103.622C146.499 103.011 145.346 102.781 144.225 102.976L143.788 103.044C143.26 103.135 142.757 103.338 142.312 103.639C141.867 103.94 141.489 104.332 141.204 104.79C140.919 105.248 140.732 105.762 140.656 106.298C140.581 106.833 140.617 107.379 140.764 107.9L140.882 108.307C141.193 109.412 141.896 110.363 142.856 110.977C143.817 111.591 144.968 111.825 146.089 111.635L146.526 111.567C147.054 111.476 147.557 111.273 148.003 110.972C148.449 110.672 148.827 110.28 149.114 109.822C149.4 109.365 149.589 108.851 149.667 108.315C149.745 107.78 149.711 107.233 149.567 106.711L149.449 106.287Z"
      fill="#FFE55C" />
    <path
      d="M240.479 85.5905C239.268 84.801 238.237 83.7597 237.455 82.536C236.673 81.3123 236.158 79.9342 235.944 78.4935L235.205 73.5358C235.188 73.4173 235.13 73.3089 235.04 73.2308C234.951 73.1527 234.836 73.1102 234.718 73.1114C234.6 73.1137 234.487 73.1573 234.398 73.2348C234.309 73.3123 234.25 73.4188 234.23 73.5358L233.491 78.4935C233.281 79.9334 232.77 81.3115 231.99 82.5354C231.211 83.7593 230.182 84.8009 228.972 85.5905L228.334 86.0149C228.262 86.0549 228.202 86.114 228.161 86.1857C228.119 86.2575 228.098 86.3393 228.099 86.4224V86.4564C228.1 86.5413 228.122 86.6247 228.163 86.6988C228.204 86.7729 228.263 86.8355 228.334 86.8808L228.972 87.2883C230.182 88.0779 231.211 89.1195 231.99 90.3434C232.77 91.5673 233.281 92.9453 233.491 94.3853L234.23 99.343C234.25 99.46 234.309 99.5665 234.398 99.644C234.487 99.7215 234.6 99.7651 234.718 99.7674C234.836 99.7686 234.951 99.7261 235.04 99.648C235.13 99.5699 235.188 99.4615 235.205 99.343L235.944 94.3853C236.158 92.9446 236.673 91.5665 237.455 90.3428C238.237 89.119 239.268 88.0778 240.479 87.2883L241.118 86.8808C241.185 86.8325 241.239 86.7689 241.277 86.6951C241.315 86.6213 241.335 86.5395 241.336 86.4564V86.4224C241.337 86.3413 241.318 86.2613 241.279 86.19C241.241 86.1186 241.185 86.0584 241.118 86.0149L240.479 85.5905Z"
      fill="#8AD7FF" />
    <path
      d="M114.995 123.113C114.307 122.663 113.722 122.069 113.279 121.373C112.836 120.676 112.545 119.891 112.425 119.072L112.005 116.236C111.997 116.167 111.963 116.104 111.909 116.06C111.856 116.016 111.788 115.994 111.72 115.999C111.654 115.998 111.59 116.022 111.541 116.066C111.491 116.11 111.459 116.17 111.451 116.236L111.031 119.072C110.905 119.891 110.609 120.674 110.163 121.371C109.717 122.067 109.132 122.66 108.444 123.113L108.091 123.35C108.05 123.374 108.016 123.409 107.992 123.451C107.969 123.493 107.956 123.54 107.957 123.588V123.588C107.958 123.636 107.971 123.683 107.994 123.724C108.018 123.766 108.051 123.8 108.091 123.826L108.444 124.063C109.137 124.514 109.726 125.11 110.172 125.81C110.618 126.509 110.911 127.298 111.031 128.121L111.451 130.94C111.459 131.006 111.491 131.066 111.541 131.11C111.59 131.154 111.654 131.178 111.72 131.177V131.177C111.788 131.182 111.856 131.16 111.909 131.116C111.963 131.072 111.997 131.009 112.005 130.94L112.425 128.121C112.54 127.3 112.83 126.514 113.273 125.817C113.717 125.119 114.304 124.527 114.995 124.08L115.365 123.843C115.405 123.817 115.438 123.782 115.462 123.741C115.485 123.7 115.498 123.653 115.499 123.605V123.605C115.5 123.557 115.488 123.51 115.464 123.468C115.44 123.426 115.406 123.391 115.365 123.367L114.995 123.113Z"
      fill="#57F287" />
  </g>
  <defs>
    <filter id="filter0_ddd_204_37953" x="0" y="0" width="278" height="160" filterUnits="userSpaceOnUse"
      color-interpolation-filters="sRGB">
      <feFlood flood-opacity="0" result="BackgroundImageFix" />
      <feColorMatrix in="SourceAlpha" type="matrix" values="0 0 0 0 0 0 0 0 0 0 0 0 0 0 0 0 0 0 127 0"
        result="hardAlpha" />
      <feOffset dy="2" />
      <feColorMatrix type="matrix" values="0 0 0 0 0.0156863 0 0 0 0 0.0156863 0 0 0 0 0.0196078 0 0 0 0.05 0" />
      <feBlend mode="normal" in2="BackgroundImageFix" result="effect1_dropShadow_204_37953" />
      <feColorMatrix in="SourceAlpha" type="matrix" values="0 0 0 0 0 0 0 0 0 0 0 0 0 0 0 0 0 0 127 0"
        result="hardAlpha" />
      <feOffset dy="1.5" />
      <feColorMatrix type="matrix" values="0 0 0 0 0.0235294 0 0 0 0 0.0235294 0 0 0 0 0.027451 0 0 0 0.05 0" />
      <feBlend mode="normal" in2="effect1_dropShadow_204_37953" result="effect2_dropShadow_204_37953" />
      <feColorMatrix in="SourceAlpha" type="matrix" values="0 0 0 0 0 0 0 0 0 0 0 0 0 0 0 0 0 0 127 0"
        result="hardAlpha" />
      <feOffset dy="1" />
      <feColorMatrix type="matrix" values="0 0 0 0 0.0156863 0 0 0 0 0.0156863 0 0 0 0 0.0196078 0 0 0 0.2 0" />
      <feBlend mode="normal" in2="effect2_dropShadow_204_37953" result="effect3_dropShadow_204_37953" />
      <feBlend mode="normal" in="SourceGraphic" in2="effect3_dropShadow_204_37953" result="shape" />
    </filter>
    <linearGradient id="paint0_linear_204_37953" x1="70.1315" y1="39.6721" x2="279.299" y2="111.109"
      gradientUnits="userSpaceOnUse">
      <stop stop-color="#8547C6" />
      <stop offset="0.52899" stop-color="#B845C1" />
      <stop offset="1" stop-color="#AB5D8A" />
    </linearGradient>
    <clipPath id="clip0_204_37953">
      <rect width="134.387" height="89.0517" fill="white" transform="translate(107.335 63.043)" />
    </clipPath>
  </defs>
</svg>
