<svg width="660" height="190" viewBox="0 0 660 190" fill="none" xmlns="http://www.w3.org/2000/svg">
<g clip-path="url(#clip0_3_7038)">
<path opacity="0.07" d="M629.263 -146.074L629.866 -141.546L629.489 -140.338L629.338 -139.81L628.281 -138.678L627.225 -137.848L626.772 -136.942L626.395 -135.659L624.734 -133.244L624.055 -131.961L623.754 -130.603L623.15 -125.395L622.999 -124.792L622.848 -124.49L622.697 -124.037V-122.981L622.848 -122.377L623.376 -122.075L624.659 -121.924L625.036 -121.698L625.716 -121.169L626.395 -120.415L626.697 -119.66L626.546 -119.207L626.319 -118.679L626.168 -118.226L626.47 -118L626.621 -117.773L626.848 -117.321L627.074 -116.792V-116.339L627.376 -115.736L627.904 -115.434L628.508 -115.132L629.187 -114.453L629.564 -114.302L629.791 -114V-113.547V-112.415V-111.962L630.847 -108.491L631.149 -106.755V-104.642L631.602 -103.133L633.262 -101.321L634.168 -100.793L635.225 -100.642L635.904 -100.189L636.885 -98.4536L637.187 -97.9253L638.017 -97.0197L637.338 -96.1894L637.036 -95.2083L636.659 -93.3971L636.885 -93.2463L637.64 -92.5669L637.262 -90.9821L638.772 -90.1521L640.885 -89.3974L642.394 -88.039L638.319 -84.6428L638.998 -83.8881V-83.2845L638.696 -82.6806L638.545 -81.8506L638.394 -81.6997L637.79 -81.3222L637.64 -81.0203V-80.5675L638.017 -80.3411H638.394L638.545 -80.0394L638.243 -78.3036L637.866 -77.0205L637.262 -76.0396L636.206 -75.2094L633.942 -74.681L633.111 -74.2282V-73.1718L633.564 -72.719L634.923 -72.1151L635.451 -71.7379L636.055 -69.9265L636.507 -69.3229L635.527 -68.2664V-66.6061L636.055 -64.6439L636.206 -61.5497L636.507 -60.5686L637.036 -59.8138L637.79 -59.361L636.432 -58.7574L631.753 -58.1535L626.621 -56.8707L624.206 -57.3235L623.301 -59.8138L622.47 -59.0593L621.187 -57.0216L620.508 -56.3424L619.98 -56.1915L616.358 -56.7952L615.678 -57.2479L614.924 -58.0027L614.395 -58.9838L614.169 -59.9649L613.792 -60.795L612.961 -61.3988L607.83 -63.4364L605.113 -63.8136L602.773 -62.7572L602.396 -61.8516L602.547 -60.5686L602.17 -59.7385L601.641 -59.2102L599.075 -57.8518L598.321 -57.1726L597.868 -56.9462H597.566L597.264 -57.3235L596.887 -57.7763L596.434 -57.3235L595.453 -55.7387L594.849 -55.0595L595.981 -54.3801L599.604 -52.9462L601.415 -53.3237L605.641 -51.5879L607.754 -51.9653L609.188 -51.2861L610.32 -49.7767L610.848 -47.8145L610.471 -46.0033L611.528 -45.3994L612.433 -44.4939L612.961 -43.2863V-41.8527L612.207 -40.6451L610.32 -39.8904L609.566 -39.0602L609.792 -35.2114L608.886 -34.5323L606.471 -32.6456L599.528 -29.4758L598.773 -30.7589L597.943 -31.3625L597.113 -31.1361L596.434 -29.9286L596.585 -26.3061L596.434 -26.0043L596.132 -25.8533L595.83 -25.6269V-25.0988L595.981 -24.7213L596.283 -24.5704H596.585L596.736 -24.2685L598.698 -20.1932L598.925 -18.6084L598.472 -17.3256L597.566 -16.4953L595.528 -15.4389L595.755 -13.7786L594.774 -11.7408L595 -10.156L595.378 -9.85411H595.906H596.434L596.887 -9.25046V-8.4202L596.359 -6.83543V-6.3071L597.189 -5.70346L599.377 -6.75989H600.434L601.188 -5.47707L600.887 -4.34509L599.377 -2.38286L598.019 -1.55258L597.566 -0.194229L598.019 1.08861L599.302 1.5414L600.057 1.91887L600.283 2.37166L600.057 2.89999L599.302 3.35278L596.434 4.56029L595.604 5.31479L597.415 5.54141L598.321 5.84312L599.226 6.67339L599.528 7.72981L598.321 8.03175H596.66L595.604 8.25815L595.302 8.56009H595H594.698L594.321 8.33369L593.189 7.50342L591.831 7.35257L589.189 7.65451L586.774 7.20149L585.868 7.35257L585.265 8.409L584.963 9.84291L584.435 10.2957L583.831 10.4468L583.152 10.9749L583.001 11.5788V12.1071V12.7107L582.548 13.3899L582.095 13.7674L580.737 14.371L579.076 15.5786L578.322 16.3333L575.982 19.5028L575.152 20.3331L574.096 20.7859L571.454 22.3706L570.096 23.2009H569.869L567.228 23.8801L566.851 24.1065L566.247 24.7856V25.012L566.624 25.2384V25.9176L566.247 28.861V29.1627L566.171 30.5213V32.1816L566.926 34.4455L568.285 35.3511L569.039 36.785L569.19 38.9736L567.983 37.4642L567.303 36.9359L564.662 36.4831L560.285 34.2947L558.474 33.9172L556.662 34.0683L554.172 35.0492L552.285 35.8039H550.55L545.644 35.2003L544.588 34.5964L544.361 36.0303V37.2378L543.984 38.0681L543.682 38.2945L543.38 38.5209L542.55 38.7473L541.569 38.4453H540.211L538.852 38.8226L537.871 39.5773L537.267 40.9357V41.0867L537.041 41.9923L536.814 42.5206L536.663 42.8979L535.456 43.879L533.494 44.2563L532.06 43.3507L531.758 43.1243L530.626 42.1432L528.739 41.464L525.192 41.6151L516.966 42.0679L514.853 41.8415L510.552 41.3887L509.269 41.2376L507.759 41.0867L504.061 42.2943L501.646 45.6902L500.439 43.879L499.533 43.7282L498.628 44.3318L497.194 45.2374H496.967L495.835 45.3885H494.93L494.099 45.6149L493.043 47.1996L492.288 48.7844L491.76 50.2938L491.307 51.7277L490.628 53.3125L490.1 54.52L489.722 54.822L488.289 55.5011L486.628 55.8028L486.025 55.4256L484.968 55.8784L484.591 56.3312L484.289 56.935L483.534 57.8406L483.081 58.9726H482.628L482.251 58.8217H481.949L480.666 60.2557L479.987 60.7085L479.308 60.9348L477.874 61.0857L477.27 61.3121L476.289 62.6705L475.761 64.4818L475.459 65.3119L475.157 66.0666L474.025 66.5949L473.195 65.6891L472.44 64.1044L471.535 62.8969L469.271 63.4252L468.214 63.2743L467.308 62.8969L466.176 62.3687L465.799 61.9157L465.573 61.3876L465.271 60.9348L464.591 60.7838L462.403 61.2365L454.705 61.0101L448.743 60.8593H448.592L447.913 60.6329L444.291 57.5387L443.31 57.0859L442.253 56.784H441.121L439.989 56.935L438.932 57.1614L437.876 57.0104L431.99 54.2181L430.027 53.9162L425.877 54.5956H424.971L420.745 53.5389H419.764L418.783 53.6898H417.802L410.028 51.0486H407.311L406.783 50.5955L405.877 49.5391L405.425 49.3883L401.5 49.69L398.708 49.1619L392.142 50.5955L389.576 50.4447L388.218 49.9164L384.143 47.426L378.86 46.2185L363.766 45.1621L360.069 42.747L358.484 42.2187L357.956 42.0679H357.427L356.371 42.5206H355.767L355.163 42.2943L353.956 41.3887L353.427 41.162H353.276L350.107 40.7848L346.333 41.3131H345.352L344.296 40.7093L342.334 39.3509L340.371 38.9736L338.787 38.6717L336.145 37.6153L333.881 35.653L332.674 32.6344L332.145 30.5966L331.089 29.9174L329.73 29.7666L328.372 29.2382L327.768 28.7854L327.391 28.4082L327.24 27.8043V26.5968L327.391 25.5404L327.617 24.8612L327.768 24.1818V23.0498L327.164 21.0123L326.183 20.3331H323.467L322.561 19.8803L322.184 19.4275L321.806 18.8236L321.052 18.0689L320.297 17.6916L318.788 17.3897L318.108 17.088L319.089 16.1822V15.3522L318.637 14.4466L318.184 13.3899L317.807 11.2015L317.505 10.1449L317.052 9.23927L317.731 7.57896L321.655 5.39034L323.014 3.50363V2.22081V1.01329L321.504 0.484955L318.41 1.08861L317.354 1.315L310.788 4.71115L306.184 4.93755L303.317 5.91866L300.6 7.42812L298.411 9.16373L295.468 9.61652L294.789 10.0693L293.506 11.126L292.751 11.2768L291.544 10.824L289.43 9.23927L288.223 9.08818H287.77H287.317H287.242L283.921 8.409L282.412 8.56009L280.525 9.08818L279.921 9.39012H279.318H278.714L278.186 9.08818L277.808 8.63539L277.431 8.25815L276.978 8.03175L275.846 7.72981L275.167 7.88091L274.563 8.33369L274.035 9.08818L271.847 11.2015H269.884L267.847 10.1449L265.583 9.61652L261.054 10.3712L256.602 11.8051L255.47 12.4843L251.319 16.635L250.791 17.7672L250.112 21.0878L248.904 23.9554V24.3329V25.314L248.753 25.7668L248.451 26.0685L247.772 26.3704L247.47 26.5968L246.036 29.0874L245.131 30.0685L244.225 30.2193L243.169 29.8419L240.905 29.6155L239.773 29.7666L237.584 30.5213H236.98L236.301 30.2949L235.169 29.3138L234.565 29.0118H233.886L232.679 29.3138H232.075L230.188 28.2571L229.434 28.0307L228.075 28.4835H227.396L227.019 27.6535L227.32 27.2007L228.754 26.0685L229.056 25.3893L228.453 24.4084L223.547 21.465L222.566 21.2386L221.434 21.3895L214.868 23.2009L212.227 22.8989L210.114 21.2386L209.963 19.2011L210.793 16.0313L210.416 14.4466L209.812 13.7674L207.623 12.0315L206.265 9.84291L205.586 9.08818L205.208 8.86179H204.831H204.454L202.567 9.91846L200.907 11.8051L199.775 13.9938V15.7294H198.114L196.831 15.4277L195.775 15.6541L194.794 17.3144L194.492 18.5217V19.2764L194.266 20.0311L193.586 21.0123L190.794 22.4462L189.134 22.8989H188.681H187.775L184.983 21.9934L183.549 21.1631L181.059 18.8236L174.191 16.635L172.606 15.4277L171.776 14.2955V13.3899L171.852 12.4088L172.002 10.2204L172.304 9.3148V8.78648L172.078 8.48454H171.7L171.399 8.25815V7.20149L159.324 3.35278L158.267 3.20169L154.871 3.65471L153.664 3.35278L155.475 1.08861L155.928 -1.40173L155.249 -3.81676L153.739 -5.92986L151.852 -7.06183V-7.89209L152.456 -9.32578V-10.0052L152.003 -11.288L151.4 -12.1183L151.098 -12.9483L151.551 -14.2314L150.494 -15.2123L149.89 -16.0425L151.928 -19.5895L154.117 -22.231L154.343 -22.9101L154.645 -24.5704L154.947 -25.4005L157.437 -28.5702L158.041 -30.0041V-34.0039L156.23 -35.6642L153.815 -36.7962L151.928 -39.664L151.777 -40.2677L151.4 -41.928H151.551L151.852 -41.7771L155.626 -40.7205H159.777L161.513 -41.626L162.418 -43.06L163.248 -44.7958L164.682 -46.4561L165.588 -46.9844H166.569L167.474 -46.758L168.229 -45.9278L168.455 -44.7958L168.305 -43.6638L168.531 -42.6827L169.814 -42.0035H170.342L171.172 -42.5318H171.474L173.436 -41.928L175.323 -41.7771L176.304 -42.0035L177.059 -42.6072L177.21 -41.0224L177.889 -40.1168L178.719 -39.2865L179.323 -38.0037V-37.3999L179.474 -36.8717L180.153 -36.419L180.757 -36.6454L181.36 -37.1735L182.115 -37.4754L185.285 -32.7964L185.813 -31.6644L185.511 -30.6833L184.077 -29.5513L184.757 -28.7211L184.907 -27.74V-26.6835L185.285 -25.778L185.888 -25.1741H186.341L186.87 -25.5516L187.7 -25.9288H188.002L188.681 -25.476H188.983L189.285 -25.7024L190.039 -26.5325L192.907 -27.0608L194.114 -26.4571V-24.7213L192.907 -21.1743L193.058 -20.5706V-19.9668L192.907 -19.3631L192.605 -19.0612L191.775 -18.8348L191.549 -18.684L190.945 -17.6273L190.719 -17.0237L191.02 -16.8726L192.001 -17.0237L196.152 -17.552L197.586 -18.0801L200.454 -19.8159L201.737 -20.9479L202.869 -22.5327L204.303 -25.4005L204.68 -26.0043L205.359 -26.4571L206.718 -26.9099L207.246 -27.2872L208.302 -28.7211L209.208 -30.6078L209.812 -32.7209V-34.7587L209.51 -35.9659L209.133 -36.7962L208.604 -37.3999L207.699 -37.9282L208.378 -41.7016V-42.6072L208.001 -43.6638L207.472 -44.7202V-45.5505L208.378 -45.9278L209.434 -46.1542L209.963 -46.3806L210.189 -46.2297L210.491 -45.3241V-44.9466L210.114 -44.4939L209.887 -43.8902L210.038 -43.06L210.416 -42.6072L210.944 -42.2299L211.925 -41.7771L214.642 -41.3243L215.396 -41.4752L216.227 -42.1544L217.51 -43.9658L218.415 -44.5694H220L228.528 -41.3243L228.754 -41.0224L228.981 -40.5696L229.283 -40.1168L229.811 -39.966L231.698 -40.1924L234.263 -41.3996L235.169 -41.626H236.075L236.754 -41.1732L238.263 -40.0413L237.735 -39.3621L235.622 -37.9282L236.075 -37.1735L239.395 -35.6642L242.641 -32.1926L242.867 -31.7398V-31.1361L242.716 -30.4569L242.489 -30.0041H242.339L243.018 -28.7211L243.923 -28.1927H250.64L251.923 -28.4947L256.149 -31.438L257.809 -31.8908L259.168 -31.3625L259.017 -28.7966L260.602 -28.6458L262.036 -29.325L262.941 -30.3058L263.771 -31.438L265.054 -32.57L266.262 -32.9473H269.054L270.111 -33.4756L270.639 -34.4567L270.413 -35.1359L269.733 -35.5887L268.903 -35.8151L271.922 -39.2865L273.356 -39.664L274.941 -39.4376L276.374 -38.9848L279.393 -39.5129L280.827 -40.0413L282.035 -41.3243L282.337 -42.2299L282.865 -44.4185L283.318 -45.3994L285.129 -46.9844L285.355 -47.2861H286.563L289.355 -46.6825H294.638L298.26 -45.9278L298.94 -46.1542L299.619 -47.7392L300.373 -48.1919L305.807 -49.3239L320.599 -48.6447H321.127L322.938 -51.1351L323.165 -51.7389V-52.6445V-55.2104L323.014 -55.7387L322.712 -55.9651L322.184 -56.4932L321.731 -57.0971L321.504 -57.6254L321.354 -58.3799L322.41 -58.7574L323.995 -60.0402L324.523 -60.4177L325.429 -60.795H325.58L325.353 -60.4177L325.202 -59.4366L324.976 -58.6819L324.599 -58.0782L324.372 -57.399L324.749 -56.3424L325.353 -55.7387H326.032L327.466 -56.5688L328.9 -56.7952L332.598 -55.9651L333.655 -56.116L336.221 -57.0971L337.277 -56.8707L337.579 -56.3424L338.258 -54.3048L338.635 -53.5501L339.164 -52.9462L341.051 -51.437L341.956 -50.9842H343.315L344.673 -51.2106L345.654 -51.6634L346.258 -52.1917L348.522 -54.2293L349.729 -54.8329L351.993 -55.3613H354.257L357.88 -54.4557L359.012 -54.6065L358.333 -52.9462L359.314 -51.7389L360.974 -50.6067L362.257 -49.3995L360.521 -48.4936L359.767 -46.3052L360.144 -43.9658L361.729 -42.6827L362.71 -42.5318L363.314 -42.3055L363.842 -41.8527L366.785 -38.6074L369.955 -36.1926L370.634 -35.8906L371.162 -36.117L371.69 -36.419H372.37L372.974 -36.117L373.351 -35.7395L373.728 -35.5132H374.407L374.86 -35.9659L376.671 -38.1546V-38.9093L376.521 -39.5129L376.294 -39.966L376.143 -40.4941V-41.0979V-42.7582L376.294 -42.9846L376.898 -44.4939V-44.6449V-46.8333H377.049L378.105 -48.1919V-48.4936L378.936 -50.3803L379.086 -50.6067L379.237 -51.7389V-52.8709L379.086 -54.0784L378.558 -55.4368L377.275 -57.6254L376.521 -58.6063L375.69 -59.2102L374.709 -59.361L373.049 -58.6063L372.068 -58.4555L368.445 -59.1347L367.389 -60.1913L368.596 -62.078L368.974 -62.7572L369.125 -63.3608V-63.9647L369.276 -64.5684L369.653 -65.3231L373.804 -71.9643L373.502 -72.2662L372.143 -74.3793L369.955 -79.4355L368.898 -80.4922L368.37 -80.7939L367.087 -82.1525L365.578 -83.0581L365.049 -83.8128L364.672 -84.7937V-84.9448L364.446 -86.0012L363.465 -88.1143L358.936 -92.8688L358.333 -93.8499L357.729 -94.9819L357.427 -96.265L357.578 -97.5478L357.956 -98.227L358.333 -98.3781H358.786L359.163 -98.5289L360.069 -99.9628L360.295 -100.265L362.861 -102.076L363.691 -103.057L364.898 -104.944L365.502 -105.623L366.483 -106.151L370.03 -106.83V-107.057L370.936 -107.887L373.049 -109.019L375.464 -111.359L376.521 -112.113L383.237 -114.754L392.142 -116.339L394.331 -117.547L400.67 -123.056L401.576 -124.565L401.953 -126.603L402.104 -127.131L402.406 -127.66L402.708 -128.339L402.859 -129.32L402.708 -132.037L402.859 -132.942L403.161 -133.848L403.991 -135.659L404.142 -136.64L403.991 -137.47L403.387 -138.376L403.161 -140.112L402.934 -140.565V-140.942L403.236 -141.621L403.84 -142.149L405.953 -142.904L408.142 -143.206L414.858 -141.319L415.99 -140.715L417.047 -139.961L418.028 -138.452L420.669 -137.244L420.82 -137.093L421.424 -139.659L421.952 -140.791H422.179L423.537 -140.942L424.065 -141.168L424.594 -141.697L424.896 -142.149L426.027 -144.564L426.405 -145.847L426.631 -147.281V-148.941L426.329 -152.111L426.48 -153.243L427.31 -154.073L426.48 -154.451L426.178 -154.753L425.499 -156.111L425.197 -155.96L425.348 -156.866L427.31 -160.941L429.876 -160.262L431.084 -159.582L432.291 -158.677L433.725 -157.469L438.102 -155.055L438.63 -154.451L439.687 -152.79L440.14 -151.96L440.442 -151.658L440.895 -151.508L441.272 -151.206L441.423 -150.602L441.272 -149.998H440.97H440.668L440.442 -149.847L439.989 -148.941L439.612 -148.791L439.461 -148.489L439.763 -147.13L440.064 -146.602L441.197 -145.244L441.725 -144.791L443.913 -143.885L453.045 -142.829L459.46 -140.565H460.064L460.592 -140.867L461.875 -141.923L465.195 -143.357L466.252 -144.414L467.686 -148.262L468.591 -148.941L470.101 -147.13L472.667 -145.772L473.421 -145.621L474.402 -145.847L476.364 -146.753H477.346L477.723 -146.451V-145.847L477.798 -145.168L478.025 -144.791H478.553L479.534 -145.093H479.987L480.666 -144.112L481.044 -143.206L481.572 -142.602H482.628L483.61 -143.508L483.911 -143.81L484.213 -146.3V-149.243L484.44 -151.885L485.647 -153.847L489.043 -156.866L489.345 -158.752L490.024 -159.884L490.251 -161.092L490.628 -161.997L491.609 -162.375L495.005 -161.922L498.326 -160.564L499.609 -160.715L500.363 -162.45L500.212 -162.601L499.911 -163.205L499.609 -163.96L499.458 -164.563V-165.243L500.061 -166.45L501.42 -172.563V-175.28L501.193 -178.299V-181.091L502.099 -183.128V-183.657V-184.11V-184.411L502.401 -184.562L503.835 -184.713L507.457 -183.506L512.514 -183.128L512.966 -181.77L513.268 -180.412V-179.053L512.816 -177.619H514.098L519.004 -178.902L519.306 -179.129L520.212 -180.185L520.438 -180.714L520.589 -181.996L520.815 -182.374H521.344L521.645 -181.996L521.947 -181.544L522.249 -181.317H525.268L526.702 -180.864L529.796 -179.28L532.664 -178.299L534.022 -177.468L537.192 -174.676L538.701 -174.072L542.55 -172.563L547.531 -169.771L548.965 -169.393H550.474L551.531 -169.771L553.795 -170.978L554.323 -171.129H556.285L556.662 -170.827L556.889 -169.62L557.191 -169.091L557.644 -168.941H558.851L559.53 -168.337L559.983 -168.11H560.511L559.832 -167.28L560.662 -167.507H561.417L561.87 -167.054V-165.997L563.002 -166.299L563.379 -165.846V-164.714L569.945 -159.96L573.341 -158.45L579.303 -158.828L588.359 -157.469L589.717 -157.771L590.547 -157.092L590.925 -156.941L591.906 -157.243L592.585 -157.922L595.83 -163.507L596.962 -164.261L598.849 -163.96H599.528L600.66 -164.488H601.264L601.868 -164.337L603 -163.658L606.849 -162.526L608.056 -162.375L609.264 -161.847L609.792 -160.639L610.018 -159.205L610.471 -158.073L611.301 -157.469L612.358 -157.318H614.848L615.829 -157.092L618.169 -155.507L619.376 -155.055L620.584 -155.205L623.074 -156.111H624.131L625.64 -153.922L626.546 -147.508L628.81 -144.942L629.263 -146.074Z" fill="white"/>
<path opacity="0.1" d="M601.592 54.3577L601.969 54.6597L604.761 56.3953L605.591 57.2255H605.969L606.271 56.3953L606.648 56.0933H607.176L607.78 56.5464L609.516 56.8481L610.874 57.8292L612.082 59.2631L613.138 61.0743L614.346 62.6592L616.308 63.8665L617.062 65.5268H617.515L617.968 64.1685L618.421 64.4704L620.157 64.8476L620.459 64.9987L620.761 65.2251L621.062 65.5268L621.364 65.9043L621.817 66.2816L621.968 65.9799L622.119 65.5268H622.496L623.326 66.3571L623.93 67.1118L624.308 67.6399L624.911 69.1494L624.685 70.5833L625.138 72.0172L625.741 73.9039L626.194 74.4322L626.647 74.8095L629.062 77.6773L630.647 80.6204L631.25 81.4507L634.647 84.243L635.175 84.9221L635.477 85.9033L636.231 86.7335L639.326 89.073L640.307 89.5258L645.514 89.6767L646.269 90.1294L648.835 93.5256L649.212 94.4312L650.042 97.3743L650.193 98.2801L650.646 99.7893L651.627 100.167L652.683 100.318L653.287 101.148H652.834L652.004 101.6H651.551V102.355L652.532 102.657H652.683L653.363 103.336L654.042 103.487L654.721 102.355L655.098 103.94V104.77L655.174 105.072H656.457L657.966 104.393L658.645 104.695L659.098 106.204L659.475 105.902L659.702 105.601L659.853 105.299L660.381 104.921L665.89 105.147L668.607 105.751L670.947 106.808L673.965 110.053L674.418 110.959V111.713L674.796 113.072V114.128L674.946 114.581L675.097 115.185L675.626 115.562H677.06L684.908 118.053L686.795 119.411L688.078 121.6V121.977L688.833 121.826L689.21 121.147L689.512 120.392L690.116 120.09H695.625L702.417 121.977H703.171L703.851 121.675L704.983 120.845L705.511 120.694H710.794L712.001 121.071L713.963 122.581H715.397L716.529 123.788L717.661 124.241L718.793 123.788L719.85 123.184H720.906L721.963 124.618L722.416 124.769H722.869H723.321L723.774 124.618L724.982 123.637L727.246 120.845L728.302 120.166L729.736 120.845L731.397 120.241L734.189 117.826L734.943 116.845L736.377 114.128L737.358 113.072H737.434L737.585 112.468L737.811 111.336L738.038 110.883L739.471 109.449L740.679 109.223L743.849 110.355L746.415 111.713H747.169L747.849 111.411L748.15 110.732L748.452 109.902L749.131 108.921L749.962 109.676H750.264H750.641L751.773 108.921L753.056 108.544L753.81 108.166L754.414 107.412H755.395L755.773 108.77L754.641 109.525L754.112 109.978L753.509 110.657L754.867 111.713L755.546 112.468L755.773 113.223L755.32 113.826L754.49 113.977L752.452 114.204L752.226 116.694L752.075 117.222L751.848 117.6L751.697 117.977L751.924 118.581L752.905 119.562L753.358 120.317L755.244 122.656L755.546 124.014L755.848 126.807L756.376 128.014L757.282 128.694L758.414 129.297L759.32 130.128L759.697 131.41L759.32 132.165L757.584 134.655L756.905 135.184L756.15 135.939L755.848 137.674V139.41L755.546 140.165L756.074 140.618L757.357 142.731L757.961 143.334H759.169L759.999 142.655L760.678 141.901L761.81 141.297L762.338 140.919L762.942 140.768L763.546 141.221L763.923 141.976L764.15 142.429L764.451 142.806L765.131 143.334L766.187 143.863L767.093 144.089L767.923 144.542L768.678 145.9L766.791 147.712L762.942 147.183H762.414L761.584 149.372L762.037 151.032L762.64 151.636L763.923 152.994L764.3 154.051L763.697 154.956L760.301 156.541L761.131 157.975L762.112 159.183L763.244 160.013L764.527 160.315H767.168L767.847 160.692L768.074 161.598V162.654L768.3 163.484L769.961 165.447L772.376 166.654L785.356 170.05L786.337 171.786L787.544 172.389L788.224 174.201L788.073 176.314L787.318 177.068L787.092 177.295L781.507 177.521L781.205 177.295L780.677 176.465L780.375 176.314L779.922 176.54L779.696 176.918L779.47 177.295L779.168 177.521L776.451 177.899H775.092L773.885 177.37L773.206 176.691L771.998 174.955L771.244 174.578L769.81 174.88L770.263 176.238L771.093 177.974L770.866 179.408L769.508 179.71L765.885 179.333L764.904 180.238V181.068L765.508 181.748L766.112 182.351L766.564 182.955L767.093 184.087L767.319 184.993L767.546 187.181L768.074 189.898V190.879V191.709L767.772 192.766L767.546 193.898L767.697 194.803L768.376 195.483L769.734 194.954L770.338 195.634L770.564 196.992L770.111 197.671L769.357 197.973L768.753 198.35L767.772 200.086L767.168 200.841L766.414 201.294L765.508 201.143L764.225 199.709L763.319 199.407L761.584 200.388L761.735 202.199L763.093 204.841L762.414 205.067H760.452L754.943 205.294L752.98 204.614L751.924 203.935L750.339 202.879L748.15 200.464L747.471 197.822L747.924 196.917L749.358 195.86L749.584 194.954V194.653L749.131 194.2L748.98 193.973V193.671V193.219V192.992L748.754 192.464L748.603 192.087L748.377 191.86L747.924 191.709L746.113 191.558L745.358 191.256L744.603 190.351L742.188 185.445L741.887 185.068L741.509 184.842H741.056L740.679 185.219L740.528 185.747L740.377 186.275L740.151 186.729L739.547 187.03L739.019 186.804L738.566 186.2L738.189 185.445L737.736 184.238L737.434 183.861L736.981 183.634H736.528L735.623 184.238L735.17 184.389H734.642L733.585 184.087H733.057L732.076 184.464V184.615V185.219L732.377 186.351L732.529 187.634H730.944L729.283 186.955L728.68 186.577L727.698 185.898L726.793 184.917L725.359 183.332L724.227 182.427L723.02 181.898L718.491 181.521L717.51 181.068L714.567 178.955L712.982 178.351L711.397 178.653L710.718 179.559L710.567 180.691V181.823L710.115 182.804L708.983 183.483L707.624 183.785H706.945H706.19L704.907 183.559L703.473 182.88L699.926 179.635L698.87 179.106H697.889L696.908 179.635L692.983 184.389L691.927 185.37L691.398 185.672L689.663 186.049L687.776 186.879H687.172L685.889 186.427L684.757 185.37L681.135 180.691L679.399 178.955L677.512 177.899L675.399 177.748L674.041 178.502L671.626 181.068L670.267 181.898H669.588H668.154L664.909 182.351L664.456 182.502L664.758 181.898L665.362 180.012L663.853 180.842L663.098 180.993L662.268 180.691L662.721 180.087L662.947 179.559V179.031L662.494 178.427L661.966 178.125L661.664 178.502L661.513 179.031L661.362 179.333L659.249 180.012L658.042 180.163L657.136 179.635L656.532 179.106L654.419 177.748L653.212 177.219L650.721 175.559L649.514 178.276L649.212 178.653L646.118 178.88L645.438 179.257L641.439 177.37L639.778 176.616L637.062 174.503L635.779 171.786L635.401 172.088L634.42 172.767L634.043 173.069L634.345 172.314V171.786V171.257L634.118 170.578L633.515 171.71L632.835 171.257L632.081 170.276L631.1 169.899L631.402 170.503L631.552 171.107L630.194 171.257L629.817 170.729V169.975V169.22L629.288 167.333L628.76 166.805L627.024 168.314L626.798 168.767L626.27 169.522L625.59 170.276L625.062 170.578L624.685 171.559L624.081 172.012L623.326 172.314L622.647 172.993L622.27 174.05V174.804V175.484L621.44 176.238L619.779 176.465L606.95 172.616L603.176 172.465L600.158 174.578L598.045 179.257L597.139 180.615L596.46 181.144L594.8 181.672L594.196 182.125L593.743 182.955V183.483L593.894 184.087L593.743 185.144L593.441 185.898L592.158 188.389L591.479 190.955L591.101 192.238L589.517 192.69L587.102 192.162L584.611 191.106L582.8 189.974L576.914 184.087L575.782 182.578L574.423 179.031L573.442 177.37L572.612 176.767L571.178 176.465L570.65 176.012V175.559L570.952 174.88V174.05L570.423 173.22L569.669 172.842H568.989L567.48 173.069L561.292 172.918L557.82 173.522L556.386 174.88L555.707 175.484L554.953 177.446V178.125L555.103 183.559L554.801 184.993L553.292 188.917V190.577L554.047 193.37L553.82 194.954L552.236 197.747L551.934 198.728L551.707 199.407L551.934 201.671L552.839 203.482L553.896 205.142L554.5 206.878L554.198 208.463L553.066 208.991L551.707 209.369L550.802 210.652V212.161L551.632 213.746L553.292 216.463L553.669 216.916L555.179 217.972L555.707 218.802L556.16 219.708L556.688 220.312L557.669 220.161L558.273 219.934H559.405L559.933 219.632L560.386 219.029L560.763 218.274L561.216 217.67H562.047L562.499 218.274L562.726 219.104L562.877 220.01L563.103 220.764L563.631 221.293L564.16 221.142L564.688 220.84H565.141L565.82 221.896L566.273 224.161L567.103 225.443L567.782 225.896L568.612 226.198L570.197 226.424L570.952 226.802L571.48 227.632L571.782 228.764L572.008 229.971H571.933L571.404 230.349L571.103 231.556L570.046 232.915L569.518 234.349L570.876 235.783L572.234 235.934L574.574 234.877L575.933 235.103L576.687 236.084L577.14 237.669L577.442 239.405L579.027 243.858L579.48 245.593V246.952L579.102 247.631L578.574 248.008L578.121 248.386V249.065L578.347 248.763H579.102L580.31 249.065L581.668 249.97L582.347 250.65L582.498 251.48L582.347 253.065L582.121 253.819L581.442 255.253L581.291 256.234V257.593L581.97 260.385L583.177 264.234L584.234 265.743L587.026 268.762L587.932 270.422L589.366 273.894L590.347 275.479L591.554 276.686L592.309 277.214L592.913 277.592H593.592H595.252L595.932 277.818L596.762 279.177L597.064 280.46L597.592 281.516L600.384 282.573L601.516 283.478L602.497 284.686L603.176 285.742L604.988 288.459L608.157 291.704L610.27 294.648L612.912 297.138L613.365 298.421L613.591 299.93L614.119 301.817L615.025 303.326L622.194 309.062L632.382 319.477L635.552 323.099L637.59 324.91L639.024 326.193L642.797 328.306L649.061 329.287L651.099 330.646L652.155 332.91L650.948 340.381L652.382 344.758L654.872 348.532L657.513 351.022L658.796 351.852L659.475 352.456L659.928 353.362L660.457 355.173L661.211 356.833L662.192 358.041L662.796 358.418L671.626 364.229L672.305 365.059L674.267 367.398L676.229 372.078L676.456 374.493L674.645 375.851L671.173 376.606L669.211 375.474L668.23 375.851L667.022 375.096L665.89 373.964L665.211 373.059L664.305 371.398L664.079 370.342L664.607 369.587L666.041 368.832L665.135 368.455L664.079 368.832L662.872 369.512L661.589 369.965L662.042 369.738L663.324 368.757H662.721L662.117 368.606L661.589 368.229L661.211 367.474L661.664 366.87L661.287 366.04V365.663L659.777 366.87L657.589 364.908L654.042 360.229L644.759 355.399L642.571 353.588L641.514 352.984L641.061 352.607L640.684 351.475L640.231 351.022L639.552 350.72L638.873 350.569L638.42 350.343L637.967 349.815L637.288 348.758L637.137 348.381L636.911 347.249V346.947L636.533 346.796L635.703 346.57L635.401 346.418L629.288 338.494L627.477 337.287L626.798 336.608L626.345 336.004L625.817 335.551L617.515 334.344L613.742 332.683L609.365 331.702L603.478 327.476V327.25L603.327 326.872L603.176 326.495L602.799 326.344H602.422L601.818 326.872H601.516L599.101 326.344H594.271V325.74H595.554L597.064 325.363L598.422 324.759L599.554 323.929L598.497 323.25L596.988 322.872L590.724 322.722L589.97 322.948L588.762 323.703L588.309 323.854L587.102 324.004L584.46 324.835L576.612 324.986V325.589L578.725 326.118L579.63 326.797L580.083 328.08H576.083L576.234 329.061H575.253L573.14 328.08H571.404L570.65 327.627L569.744 326.797H569.367V327.401L568.612 326.872H567.178L566.725 326.193V326.344V326.571V326.797H566.348L566.499 325.816L566.876 325.665H567.405L568.008 325.288L568.235 324.759L568.084 324.306L567.933 323.854L568.235 323.174L567.178 323.325L566.801 323.476L566.424 323.778L566.197 322.948L565.669 322.495L564.235 321.967L565.292 321.816L565.442 321.212L564.839 320.684H563.707V320.156L564.009 320.005L564.31 319.703L564.612 319.477L563.933 319.024L563.631 318.873L564.084 318.344L563.631 317.741L564.084 317.062L563.707 315.703L564.386 315.25H566.725V314.647L563.858 314.043H562.801L563.556 313.59H564.16L564.688 313.892L565.141 314.043L565.82 313.816V313.213L565.141 312.609L564.461 312.231L565.367 311.854L565.82 311.175L565.669 310.42L564.914 309.741V311.401L564.386 311.477L562.801 310.118L561.895 309.288H561.443L560.839 309.213L560.462 309.062L560.084 308.609L559.179 307.175L558.726 306.647L556.084 305.213L555.33 304.458L553.971 304.006L549.821 303.704L548.915 302.723L548.236 300.685L546.727 300.006L545.066 299.553L544.085 298.195L546.047 299.025L547.028 299.251H548.009V298.723L547.632 298.572H547.406L547.255 298.647L545.519 297.213L541.368 295.1L539.633 293.591H539.557L538.274 291.478L537.444 290.497L536.538 290.119L535.557 289.969L534.953 289.818L534.501 289.591L533.821 288.987L533.444 288.459L533.218 287.855L532.765 287.101L529.218 282.875L527.558 280.309L526.35 279.101L525.067 278.573L522.35 275.252V274.95L519.482 271.781L518.728 271.328L518.124 270.875L517.898 270.271L518.124 269.366L517.143 268.611L513.747 265.14L514.804 263.555L514.275 261.593L512.917 259.857L511.558 258.951L512.313 258.046L513.52 257.366L514.577 257.517L515.03 259.253L515.785 260.234L517.143 259.555L517.747 258.196L516.313 257.064L516.841 256.914V256.763H516.917L517.219 257.064H517.671L517.294 256.008L517.067 255.631L520.237 257.744L521.596 259.479L522.35 260.083H523.331L522.426 257.064L523.029 256.914L523.331 256.687L523.558 256.31L523.86 255.857L523.029 255.555L522.275 254.876L521.671 253.895L521.143 252.838L522.426 253.291L524.237 254.951L526.048 255.631L530.652 258.272L531.708 258.649L536.84 259.404L538.199 259.253L538.425 258.272L537.519 257.668L533.293 257.064L532.991 256.763L531.029 254.272L530.501 253.895L524.161 250.876L523.256 249.97L514.275 240.763L511.257 236.537L509.445 234.5L507.634 233.669L507.332 233.217L505.219 231.556H504.691L504.313 230.726L497.899 220.614L496.767 217.595L497.521 216.463V215.104L496.993 213.52L496.767 211.708L496.616 206.727L496.767 205.142L498.125 199.407L498.729 198.049L499.182 196.313L498.729 194.275L495.031 185.596L494.805 184.012L494.125 182.955L493.144 182.2L489.144 180.087L482.201 174.654L478.881 170.276L477.975 169.748L476.919 168.616L476.466 167.333L477.371 166.503L476.617 165.748L474.277 164.013L475.409 165.371L475.636 165.522L475.409 166.201L474.881 166.578H474.202L473.673 166.126L472.768 165.145L465.825 161.598L463.334 161.069L462.202 160.466L461.146 160.239L459.938 161.145L458.58 163.258L457.372 166.05L456.467 169.22L455.788 175.559L454.958 178.502V178.653L454.806 178.955L453.297 181.068L451.335 180.314L452.392 181.597L452.241 182.955L451.411 184.238L450.354 185.295L449.977 184.615L449.75 185.37V185.974L449.977 187.709L449.75 187.559L449.297 187.332L449.071 187.106V187.634L450.052 188.842L450.505 190.804L450.354 192.917L449.524 194.577L448.769 195.105H448.241L447.712 194.728L447.033 194.577L446.279 194.879L445.524 195.558L444.92 196.388L444.618 197.068H444.165L444.317 195.256L444.845 194.426L445.147 193.671L444.618 192.011L443.26 190.804L443.033 190.124V189.445V188.992H442.279L442.505 189.974L442.203 191.558L442.505 192.313L443.185 192.766H443.788L444.241 193.068L444.543 193.973L443.864 194.653L442.958 196.464L442.581 196.917L442.279 196.464H441.901L442.128 197.068V197.822V198.652L441.826 199.482L441.298 199.332H440.996V199.633L441.298 200.086V200.69H440.996L440.92 200.841V201.067V201.445L440.241 201.067L438.807 201.445H437.751L438.279 201.822L438.581 202.199L439.034 203.18H438.581V203.709H439.034V204.388L438.581 204.69L438.279 205.067L437.751 206.199L437.902 206.878V207.105L437.977 207.331L437.751 208.086H438.43L438.807 208.237L439.109 208.689L439.486 209.369H437.147H436.015L435.034 208.765L434.883 209.142L434.581 209.444L434.204 208.01L433.6 207.859L432.921 208.01L432.317 207.633L431.864 208.237L432.544 208.539L433.223 209.067L433.525 209.822L433.223 210.727L433.826 212.236L434.128 212.614L433.147 213.142L432.921 212.312V210.803L432.77 209.444L432.317 209.067L430.43 208.312H429.751L429.902 207.935L430.053 207.331L430.204 207.029H429.978H429.525H429.298L429.751 206.426L429.298 205.746L428.619 205.897L427.638 205.52L426.581 204.765L425.827 203.784L426.28 203.256L426.959 204.237L427.94 204.539L428.845 204.011L429.374 202.652L427.638 203.105L426.959 202.954L426.28 202.124V201.595L426.506 201.369L426.808 200.765L427.11 200.313L426.355 199.482L424.921 195.935L422.28 193.143L418.959 188.464L418.431 188.011L417.601 187.106L416.469 186.275L415.11 186.049L415.412 185.445L415.79 184.54L416.016 184.162L414.431 181.974L416.091 180.842L421.751 180.465L420.469 179.861L418.959 179.635L415.94 179.785L414.356 180.238H413.601L413.299 179.483L413.45 178.502L413.601 177.748V177.144L412.846 176.767L413.148 176.163V175.71L412.922 175.333L412.393 174.88V174.276L412.922 173.974L413.148 173.446V172.691L412.771 171.786L413.224 170.88V169.975L412.771 169.144L411.941 168.692L412.167 168.163L412.545 167.71L413.073 167.409H413.752V166.805L413.073 166.503L412.545 166.126L412.167 165.597L411.941 164.918L412.62 164.767L413.148 164.465L414.129 163.635L413.375 163.258H411.639L411.035 163.107L410.28 162.352L409.677 161.296V160.315L410.582 159.937V159.334L409.828 158.503L407.941 152.994L408.092 152.843L408.318 152.617L408.469 152.39L408.167 152.013L408.318 151.787L408.545 151.108L407.488 148.693L407.262 147.334L407.639 146.127H408.016L408.62 146.655L411.563 148.089L412.922 148.24L415.488 150.957H417.45L423.865 150.579L426.883 152.541L427.713 153.447L428.695 153.749L432.166 154.277L432.845 153.749L433.449 152.843L434.355 151.938L437.373 150.655L438.204 149.523L436.845 147.862V146.881L437.072 146.202L437.524 145.9L438.505 146.127L440.241 146.504L441.147 146.957L441.977 147.862L443.562 149.07L445.222 149.674H446.732V149.749H446.882L448.543 149.447L451.637 148.013L453.297 147.561L454.731 147.938L457.297 149.07L460.316 149.674L463.259 149.372L465.749 147.938L466.957 146.806L469.447 144.919L470.277 143.334L470.655 142.051L470.881 140.014V139.636L471.334 138.429L471.938 137.523L473.598 135.712L474.277 134.731L475.107 132.844L475.636 132.316L475.938 132.165L476.692 131.863L477.371 132.241L477.522 133.674V135.335V136.542L478.126 137.674L478.956 138.58L481.145 140.316L481.598 140.542L481.975 140.768L482.352 141.297L482.503 141.976L482.277 143.561V144.014L483.56 145.146L489.522 147.787L490.503 150.353L493.22 150.957L496.012 149.975L497.219 147.862L497.446 145.9H498.653L500.087 146.806L501.219 147.862L502.2 148.013H502.804L503.559 148.466L504.163 149.07H507.332L508.011 149.674L512.766 153.674L515.634 154.051L518.351 153.07L521.973 151.711H524.086L524.841 151.56L525.369 151.032L526.501 149.447L527.105 148.919L523.86 146.73L522.954 145.146L522.426 143.183L522.048 140.768L521.671 139.636L521.218 138.655V137.901L521.973 137.523L522.426 137.146L522.652 136.391L523.029 135.712L524.916 135.108L525.746 134.655L526.652 134.354H528.01L527.633 133.523L526.576 131.788L526.426 131.637L525.369 130.429L525.143 130.278L524.916 130.429L524.161 130.656L523.86 130.882V131.26L523.482 131.41L522.652 131.108L522.048 130.656L521.671 130.203L521.067 128.995L520.464 128.392L520.011 128.165L519.86 127.788V127.637L520.237 126.731L520.766 126.128L523.331 124.694L525.067 124.09L531.407 121.977L532.161 121.373V120.467L531.784 119.487L532.086 118.656L532.765 118.354H533.52L534.274 118.656L535.029 118.807L535.633 118.581L536.84 117.6L537.444 117.298L539.104 117.6L541.519 117.977H544.01L545.293 117.524L546.575 116.845L547.255 115.94V114.657L546.425 112.77L546.123 111.562L546.349 110.43L546.802 109.374L547.104 108.242V106.732V103.865V101.978L547.632 100.091L548.387 98.9593L548.689 97.9782L548.387 97.4498L547.783 96.5443L547.028 95.9404L545.217 95.1859L544.462 94.7331L543.934 94.2048L542.651 92.8464L541.746 90.7333V88.3936L542.651 85.7524L543.859 83.4882L544.085 83.1865L544.915 82.0543L546.274 81.3751H547.33L551.934 81.8279L553.141 80.9979L554.424 78.8093L555.103 78.2809L555.33 78.1301L556.311 77.6773L557.367 77.4509H560.311L560.386 77.3754H560.537L562.801 76.0925L564.688 75.0359L566.801 74.6586L567.556 74.4322H567.857L569.216 73.6775L570.499 72.7719L571.178 72.0172L571.329 71.8663L571.782 70.5833V69.3758L571.631 68.0174V66.3571L573.668 66.7343H574.046H574.801L575.404 66.2062L575.933 65.5268L576.461 64.9232L577.291 64.7723L577.895 65.074L579.48 66.5835L580.385 67.1118L581.442 67.3382H581.97L584.234 66.7343H585.743L586.045 66.508V66.2816L585.97 65.4515L585.668 64.9987L584.536 64.244L584.159 63.7912L584.007 63.0365L584.159 61.527V60.7725L583.328 58.2064L583.102 56.9236V56.3197L583.177 55.5652L584.838 53.6785L585.064 53.4521L587.102 52.6219L588.083 52.0182L589.366 51.5655L590.045 50.8107L590.271 50.5088L590.724 51.188L591.101 50.5088L591.856 51.1127H592.686H593.517H594.271L594.875 51.5655L595.932 52.6974L596.46 53.0747H596.988L598.422 52.9238L599.101 53.0747L599.705 53.4521L601.29 54.735L601.592 54.3577ZM725.585 410.113L725.887 411.547L725.51 414.34V415.849L726.038 417.207L726.717 418.339L727.548 419.32L728.076 419.622L729.208 420.302L729.51 421.283V422.566L728 420.377L727.095 419.773L724.906 419.17L724.001 418.566V417.358L712.756 410.113L711.548 408.378V407.548L711.699 406.34V405.208L711.322 404.755L708.001 404.152L705.36 402.642L704.303 402.416H703.171L702.19 402.038L701.436 401.51L700.983 400.605H702.266L700.907 399.322L700.379 398.642L700.077 397.661L699.096 398.567L697.511 397.737L694.795 395.246L690.946 393.284L689.587 391.775L690.342 389.812H688.531L686.569 388.379L684.757 388.001H684.304L683.776 388.303L683.323 388.605L682.946 389.36L682.569 389.209L682.191 388.907L682.04 388.756L681.588 388.454L680.078 387.171L679.173 386.794L680.38 387.926L680.984 388.756L681.814 390.945V391.322L681.361 391.624H680.909V390.341V389.888L679.625 388.982L676.38 387.624L673.437 387.02L669.966 385.435L666.419 384.756L660.985 382.568L661.136 380.379L659.475 379.247L655.174 378.341L650.042 374.719L647.854 374.04L646.797 373.285L646.269 373.059L645.514 372.908H638.646L636.533 372.379L635.477 371.927L634.269 371.172L633.666 370.266L634.345 369.361V368.757L633.741 368.455L633.364 368.002L633.062 367.474L632.684 366.946L634.043 367.172L636.156 368.908L637.288 369.361L642.797 368.757L648.08 369.512L657.74 373.436L660.004 374.945L661.815 376.606V376.983L661.966 377.436V377.964L662.268 378.417H662.57H663.324H663.626L664.758 379.323L665.287 379.549H666.041L666.268 379.473V378.643L666.494 378.417H666.871L667.475 378.945H667.777L668.607 379.172L669.211 379.473L670.192 380.228L672.682 381.058L673.89 381.662L674.569 382.643H674.946L675.928 382.492L678.644 385.209L680.305 385.662L678.342 384.152L677.739 383.096L678.493 382.039L678.116 381.511L676.305 382.19L674.645 381.209L675.475 379.926L676.38 379.021L677.814 378.719L679.248 379.021L681.965 380.077L683.323 380.304L683.852 380.002L684.38 379.549H684.984L685.738 380.53L685.889 381.36V383.473V384.454L687.927 387.624L688.606 388.077L690.87 388.681L692.455 389.888L695.247 393.058L696.757 394.341L700.228 396.605L711.473 404.152L713.586 405.284L717.133 406.491L718.869 406.34L719.548 406.868L720.831 408.755L721.812 409.434L724.151 409.661L725.208 410.038L725.585 410.113ZM623.704 390.492L627.779 391.096L628.609 391.624L628.76 392.982L628.005 394.19L626.798 395.02L625.44 395.246L625.288 394.643H624.76L623.704 394.039L623.025 394.869L622.194 395.095L621.289 394.643L620.609 393.435L621.44 392.982L621.591 392.228L621.289 391.775L620.685 392.303H620.232L620.685 391.246L621.817 390.718L623.779 390.416L623.704 390.492ZM675.324 394.114L676.607 395.246L679.927 396.68L681.135 398.34L657.74 391.624L656.985 392.605L655.702 392.001L654.495 390.794L653.815 389.888L654.948 389.662L657.061 388.832H658.268L657.966 389.058L657.589 389.284L656.91 389.888H657.589H658.268L658.947 390.114L659.551 390.492L660.004 389.888L661.06 390.643H664.23L666.645 392.228L669.89 392.907L671.399 393.586L671.173 393.737L671.022 394.19L674.72 394.567L675.399 394.19L675.324 394.114ZM641.288 374.266L642.344 375.776L643.325 376.757L645.665 378.492L645.212 379.172L644.005 378.492H642.646L639.703 379.172L633.741 377.889L631.024 378.04L626.27 379.851L623.251 380.304L616.081 378.87L612.987 377.889L611.78 378.04V378.492L610.648 378.115L609.516 377.36L613.893 374.945V374.266L612.685 373.889L610.12 373.587L609.063 373.134L610.421 372.304H611.855L613.289 372.531H614.799L616.157 373.361L617.893 374.115L621.44 375.021H624.987L625.892 374.719L627.402 373.889L634.948 373.21L640.08 374.794L641.439 374.342L641.288 374.266ZM583.857 365.285L584.159 364.908L584.46 364.606L584.687 364.757V365.587L584.611 366.116L584.159 366.493L583.404 367.021L582.649 368.002L581.894 368.606L576.159 370.342L573.97 370.493L572.386 369.965L573.744 369.21L573.895 367.852L573.367 366.795L572.763 366.946H572.386L571.48 365.738L571.782 365.436L572.084 365.285H572.386L572.838 365.135L574.348 364.153L576.763 363.625H579.329L581.215 364.455L580.913 364.908L580.762 365.135L582.272 364.531H583.102L583.932 365.135L583.857 365.285ZM612.987 360.38L611.478 360.531L604.384 359.022L598.95 356.984L596.988 356.607L595.856 355.777L595.101 355.626L592.234 354.418L592.535 354.041L592.837 353.89H593.517L594.347 354.343L595.101 354.192L596.686 353.211L597.064 353.89L597.29 353.512L598.045 352.682V353.211L600.384 352.456L602.346 353.664L604.158 355.097H605.969L604.233 353.135L602.497 352.079L601.894 351.399H602.799H604.61L605.969 352.531H606.195L606.799 352.003L607.252 351.852H608.082L609.968 352.154L610.874 352.531L611.327 352.984L611.704 353.664L612.233 354.418L613.063 354.946V355.324V355.399H612.685L613.968 356.456L615.402 356.984L616.912 357.211H623.175L624.232 356.607L625.138 357.512L626.345 357.89L630.345 358.116L634.194 359.097L640.08 358.871L643.023 359.173L645.514 360.305H613.214L612.987 360.38ZM600.611 346.57L595.554 343.626L594.498 342.268L595.026 342.645L595.403 342.947H595.856V342.419L596.082 342.343H596.384H596.762L596.384 341.739V341.136L596.837 340.683L597.592 340.532L596.686 338.947L595.856 336.91H597.214H597.592L600.233 337.966L612.761 338.419L620.609 340.532V341.136H619.704L620.383 341.513L620.987 341.739H621.515L621.893 341.211L622.496 341.664L623.704 343.023L624.383 343.249H624.911H625.364L625.817 344.079L624.987 345.664L624.534 346.192L624.006 345.89L622.798 347.475L620.685 348.003L608.761 348.381L604.61 347.852L600.535 346.57H600.611ZM593.592 341.06L592.611 342.192L590.875 341.739L586.574 339.023L583.404 337.664L581.744 337.438V337.06V336.91H581.894L582.045 336.834L581.442 336.306L581.215 335.702L581.517 335.174L582.423 334.947L586.121 335.249L587.479 336.004L587.781 337.438L589.517 337.211L590.724 338.192L591.856 339.702L593.441 340.985L593.592 341.06ZM547.632 314.345L551.632 316.156L547.783 315.024L547.179 315.25L546.575 314.496L543.783 312.458L542.727 311.93L543.18 311.251L543.481 311.703L543.783 311.854L545.745 312.081L546.5 312.76L547.028 313.59L547.632 314.269V314.345ZM520.69 294.874L520.992 295.78L525.897 299.779L526.652 300.836L527.482 301.742L529.293 303.326L528.765 302.949L524.992 301.213L523.784 300.383L522.426 298.572L520.69 297.289L519.86 296.459L518.954 295.251L518.577 294.195L519.407 293.666L520.766 294.874H520.69ZM523.331 286.044L522.954 284.988L521.218 283.025L520.614 282.044H521.822L522.879 282.497L526.35 285.139L528.161 285.516L528.539 285.667L528.69 286.195L528.84 287.704L528.992 288.157L529.369 288.61L530.274 288.987L530.803 289.289L531.331 289.893L531.859 290.874L532.312 291.931L532.539 292.987L532.086 292.685L531.633 292.534H531.105L530.576 292.384L530.048 292.233L529.822 291.855L529.671 291.478L529.444 291.176L527.784 290.648L526.954 290.195L526.426 289.289L526.727 289.063L526.878 288.686L526.048 288.308L524.916 287.554L523.86 286.648L523.407 285.969L523.331 286.044ZM520.237 281.441L519.407 280.535L518.803 279.328L518.2 278.573L517.52 279.026H517.143V278.648L516.917 278.422L516.766 278.196L516.615 277.818L516.011 278.799L514.728 277.818L513.37 276.233L511.634 274.799L509.37 272.007L508.162 271.102L508.313 270.8V270.724L508.54 270.573L508.313 270.045L507.71 268.687L518.275 277.29L519.633 279.026L520.086 281.592L520.237 281.441ZM493.673 269.743L494.201 269.366H494.653L495.106 269.743L495.484 270.422L494.653 270.724L493.295 270.271L492.314 269.29L492.465 267.857L492.767 268.837L493.295 269.441L493.748 269.668L493.673 269.743ZM513.143 287.478L517.822 290.799L518.049 291.855L516.464 292.384L513.219 289.818L512.464 290.044L512.766 290.346L512.917 290.799L513.219 291.251L514.804 292.459L515.181 292.836L515.709 293.214H516.237H516.615L516.766 293.968L516.464 294.421L515.86 294.044L515.256 293.44L515.105 293.138L512.766 291.78L511.785 290.95L510.804 289.818L508.238 285.893L506.653 284.007L504.087 278.497L502.804 277.214L500.993 276.384L495.484 270.573L495.333 269.592L495.031 268.762L494.201 267.479H494.578H494.88H495.106L496.389 268.989L500.012 271.856L500.314 272.46L500.616 273.29L500.993 273.969L501.521 274.271L502.427 274.573L503.031 275.101L503.559 275.403L504.464 274.95L504.163 275.856L504.012 276.158L504.917 276.309L505.446 276.837L505.672 277.743V278.95L505.974 280.082L506.578 280.988L509.596 284.308L510.275 284.686L511.257 284.837L511.483 285.29L513.294 287.931L513.143 287.478ZM495.861 232.688L495.182 232.085L488.465 223.783L487.333 221.821L486.654 219.783H486.956L487.182 219.934L489.673 222.802L493.899 229.066L496.389 230.953L496.163 228.311H497.672L499.861 229.67L501.672 231.556L503.106 233.971L504.087 234.952L506.502 235.707L507.181 236.764L507.785 238.122L508.691 239.631L507.408 239.405L505.596 237.896L504.238 237.745L504.54 236.839L504.691 236.462L502.049 234.877L500.766 234.424L500.087 233.896L499.182 233.443H498.05V234.047L501.597 236.009L506.879 243.631L510.049 245.82L508.993 244.99L507.936 243.782L507.03 242.197L506.426 240.311L509.143 241.669L515.181 248.008L516.615 248.914L517.52 249.97L519.332 251.631L520.162 252.612L518.954 252.989L517.445 252.084L515.86 250.876L514.426 250.197V250.801L515.558 251.027L516.69 251.782L517.671 252.838L518.426 253.895H517.067V254.423L517.369 254.725L517.596 254.951L517.898 255.178L516.539 254.801L513.672 253.517L512.162 253.367V253.895L514.804 255.782V256.31L513.294 255.932L511.936 255.178L510.804 254.046L509.898 252.687V252.159H510.804V251.48L510.275 251.178L509.973 250.801L509.445 249.669H510.125L510.577 249.593L510.879 249.216L511.181 248.537L509.521 247.48L508.993 247.254H508.389L507.408 247.933H506.804L506.125 247.103L504.993 244.688L500.993 241.367L500.389 241.216L496.993 239.179V238.65L497.37 238.499L497.974 238.122L498.352 237.971L497.521 236.462L495.635 233.745V232.99L495.861 232.688ZM468.013 232.16L473.221 237.745L473.749 239.481L472.315 239.631L470.579 237.971L468.466 235.179L467.561 234.575V233.971L468.919 234.349L469.372 234.575L467.561 232.236L466.579 231.405L465.372 230.877L464.919 231.858L464.24 232.16L463.485 232.009L462.731 231.481V230.953H463.183L463.108 230.726L462.882 230.273L464.014 228.84L463.561 227.028L461.825 224.085L461.523 222.877L461.07 220.085V218.5L462.278 219.406L463.938 220.161L464.995 221.368L464.542 223.481L464.844 224.311L465.145 225.745L465.447 228.236L465.825 229.066L468.089 232.236L468.013 232.16ZM487.031 212.991V213.67L487.182 214.123L487.937 214.878L487.107 214.274L486.05 213.972H485.069L484.39 214.199L481.673 211.18H482.503H483.333L484.088 211.406L484.767 211.784V211.256L484.541 210.954V210.727V210.425L484.39 209.897L485.446 210.803L485.748 211.18H486.201L485.371 209.369L484.843 208.614L483.937 208.01L483.786 207.709L483.56 206.727L484.918 206.954L486.201 207.407L486.05 207.029L485.748 206.124H486.956L487.861 206.954L488.012 207.859L487.031 208.689V209.218L487.484 209.52L490.05 212.01L491.635 212.916L492.314 213.595L494.201 216.689L494.729 218.5L494.125 219.783L492.314 218.199L489.22 214.576L487.107 212.916L487.031 212.991ZM472.391 223.481L472.013 224.311V225.066L472.466 225.368L473.296 224.84L473.749 226.047L473.296 226.726L472.843 227.255L472.391 227.481L471.711 227.33H469.825L466.881 224.085L464.693 219.482L464.844 215.482H464.542L464.391 215.255L464.24 215.104L464.014 214.953L463.41 215.331L463.032 214.652L462.806 213.444V210.501L462.655 209.671L462.353 209.293H461.674L460.618 208.01L459.636 202.577L458.353 201.218V200.841L458.505 200.615L458.882 200.011L458.278 198.35L458.882 198.049L460.391 198.652L460.844 199.03L461.976 200.765L462.58 201.143H463.712H464.391L464.768 200.615L464.995 199.332L464.768 198.803L464.466 197.369V196.464L465.447 197.445L465.9 196.841L464.617 195.634L463.636 194.049L461.674 188.54L461.297 187.785L457.825 183.634L457.221 182.502V181.144L457.901 179.257L458.58 178.05L459.485 177.144L460.693 176.842L462.278 177.446L462.806 178.502L462.58 182.125L462.731 184.313L463.183 185.974L464.315 189.294L465.9 192.539L466.278 193.068L467.108 193.747L468.617 193.973L469.372 194.351L469.825 195.483L469.674 197.068L469.146 198.728L468.466 199.935L468.919 200.539L468.315 202.124V203.407L468.466 206.35L469.296 208.991V210.501L468.466 211.029L468.768 212.01L469.523 213.369L469.749 214.048V215.029L469.372 216.161V217.293L469.674 219.255L470.504 220.689L471.485 221.972L472.315 223.406L472.391 223.481ZM485.899 197.973L484.767 197.671L481.673 195.558L479.786 194.803L479.485 194.124V192.69L479.635 189.445L479.258 188.691L478.126 189.294V189.898L479.032 190.577L477.371 190.728L472.239 189.898L470.655 189.37L468.994 188.087L467.636 186.427L466.73 184.917L467.259 184.162L467.787 183.785H468.391L469.146 183.71L469.372 183.332V182.502V181.672L469.976 181.295H472.391L473.447 180.691L472.843 179.408L473.673 178.201L474.051 177.446L474.202 176.691L474.051 175.936L473.824 175.257V174.578L474.579 173.823L474.73 172.842V172.012L474.353 171.484L473.749 171.333L474.655 170.276H475.56L477.673 171.333H476.994H476.768L476.919 172.012L477.145 172.541L477.447 172.918L477.749 173.22L478.73 174.88L479.56 176.918L477.824 177.748L478.805 178.427L480.843 178.653L482.201 178.201L482.579 179.861L481.824 183.03L482.201 184.917L483.032 185.823L484.164 186.2H487.031V188.842L490.88 192.389L491.861 194.879H491.484L490.729 195.407L489.899 195.558L489.069 195.407L488.314 194.879L487.409 195.558V196.086L488.314 196.841L488.088 197.445L487.107 197.822L485.899 197.973ZM588.234 326.797L589.743 327.325L592.385 328.306L592.083 328.835L589.668 329.061L586.347 328.457H585.366L584.838 328.835L584.007 328.985L583.027 328.835L582.196 328.533L581.744 328.231V327.778L582.196 327.551H582.498L582.951 327.703H583.857L584.385 327.401L584.083 326.646L585.14 326.269L588.083 326.721L588.234 326.797ZM488.239 256.838L489.144 257.442L490.352 258.574L490.201 259.102H489.295L488.692 259.253L488.314 259.706L487.559 259.555L486.88 258.649V257.895H487.635L487.861 257.593V256.914H488.314L488.239 256.838ZM478.805 252.385L480.767 253.744L481.899 255.253L481.673 255.555L480.617 254.951L477.9 252.536L477.673 251.782L478.881 252.31L478.805 252.385ZM490.729 249.065L491.258 249.97L491.635 251.555L490.956 252.159L489.899 251.782L489.22 251.254L488.088 250.197V249.442L488.843 248.386L488.541 245.593L488.767 245.443H489.069L489.824 245.216L490.578 245.593L491.106 246.423L491.258 247.329L490.88 248.084L490.654 248.688V248.99L490.729 249.065ZM455.108 223.481L456.542 221.821L457.523 221.972V222.877L457.146 223.406L456.316 223.632V223.783L456.089 223.934V224.236V224.689L455.939 225.217V225.67L456.089 225.972L456.542 226.726L456.92 227.858H456.467L455.712 227.481L454.882 227.179L454.429 226.651V225.821L454.656 225.142L455.184 223.406L455.108 223.481Z" fill="white"/>
<path opacity="0.15" d="M1011.51 -82.7821L1010.46 -81.5746L1008.87 -78.5559L1007.81 -77.5748L1005.25 -76.5937L1004.19 -75.839L1003.51 -74.5561V-73.7259L1003.89 -73.1222L1004.04 -72.443L1003.51 -71.3864L1003.13 -71.16L1001.78 -71.0091L1000.49 -70.4055L999.739 -69.8016L998.154 -67.6885L996.267 -66.0282L993.928 -65.0471L991.437 -64.6698L989.249 -65.0471L984.494 -67.5377L982.532 -67.0849L981.475 -63.3115L980.721 -62.6321L979.891 -62.2548H978.985L975.966 -62.6321H975.136L974.004 -62.104L972.797 -61.4248L972.042 -60.6701L970.608 -58.557L970.08 -58.0286L969.023 -57.1986L968.571 -56.5947L968.344 -55.9155L968.118 -54.1797L967.891 -53.3497L966.306 -51.0855L966.08 -50.4818V-49.8027L965.929 -49.1988L965.552 -48.3688L965.024 -47.9915L964.646 -47.6896L961.477 -46.8593L957.477 -43.8406L955.59 -41.7275L954.383 -39.3881L954.533 -36.4449L955.062 -33.1243V-29.9546L953.854 -27.3131L950.986 -26.4831L949.854 -25.8039L948.647 -24.4453L946.157 -20.823L945.779 -19.691L945.025 -16.2949L944.647 -15.4646L943.892 -14.0309L943.591 -12.9743V-11.8423L943.742 -11.012V-10.1065L943.364 -8.97449L942.836 -8.21977L941.402 -6.8614L940.798 -5.95583L940.496 -5.12555L940.195 -3.46526L939.742 -2.63521L938.459 -1.35216L935.289 0.760925L933.855 2.11929L931.365 5.13797V5.43991L931.591 5.96823L932.119 6.26994L932.723 6.42102L933.176 6.79828L933.78 7.93025L933.553 8.15665L932.346 12.8358L931.818 13.515L928.874 15.9298H928.572L928.497 16.3073V17.4393V18.5712L928.723 19.5524V20.5335L928.195 21.741L927.516 22.3447L925.176 22.9485L923.818 24.2313L922.988 25.7408L921.629 29.5142L921.328 29.967L921.101 30.4953L920.95 31.0234V31.5517L921.026 31.7781L921.177 32.0045L921.403 32.1556L923.139 33.3629L922.912 35.2496L921.705 36.9854L920.422 37.7402L918.686 38.0421L918.007 39.1741L917.856 39.5513L917.403 40.7588L916.045 42.4947L914.686 43.2494L912.347 43.0983L910.988 43.4758L910.007 44.6831L909.63 46.4189L909.404 50.0415L908.573 51.7771L907.441 53.211L906.536 54.7204L906.385 56.6071L908.272 60.2297L908.649 62.2672L907.14 63.3992L904.423 63.5501L903.14 64.0031L902.083 65.2859L901.404 67.3235L901.102 71.4743L900.574 73.2855L899.819 74.7194L899.215 75.1722H897.329L896.952 75.3986L893.857 79.172L892.725 79.6248L891.442 78.5683L890.99 78.04L890.461 77.8136H889.933L889.329 78.04H888.046L885.631 77.0589L884.499 76.8325L884.046 76.9836L883.065 77.5117H882.386L881.858 77.2853L880.726 76.3042L880.122 76.0024H878.839L877.481 76.3042L876.726 76.6816L876.122 76.9836L873.556 79.0967L873.255 79.6248V80.5303L873.858 82.5681V83.3228L873.33 83.851H872.726L872.123 83.5492L871.67 83.7001L871.368 84.3793V85.5112V85.7376L870.991 86.6434L870.009 87.6999L868.726 88.3791L865.104 89.1338H864.651L863.897 88.8318L863.293 88.3791L861.406 86.6434L858.84 85.5868L856.199 84.9832L854.614 87.4735L844.199 87.7754L841.558 91.096L838.086 88.0771L836.954 87.6243L835.37 88.3791H834.917L834.389 88.1527L833.709 87.2471L833.332 86.9452L832.275 86.7188H831.672L830.011 87.6243L828.2 87.8507L825.483 86.3415L821.333 85.964L818.767 86.5679L817.786 86.9452L812.427 89.1338L811.295 88.9074L807.371 86.4171L805.937 85.5112L804.579 85.0585H803.22L799.447 85.7376H798.089L796.881 85.8887L795.296 86.6434L793.787 87.6243L792.881 88.681L793.032 89.4357L793.485 90.2658L793.636 91.0205L791.9 91.9261L791.447 92.5299L791.145 93.2091L790.693 93.8883L789.636 94.7939L789.108 95.0203H788.429L787.598 95.4731L787.07 96.3033L786.617 97.2089L785.938 97.9636L784.882 98.3409H782.467L781.259 98.6428L780.731 99.0956L779.976 99.6239L779.523 100.756L779.222 101.888L778.467 102.793L776.656 103.171L770.996 102.567L769.562 101.737L768.581 99.9256L767.147 99.3973L765.637 100.001L764.656 101.737V104.454L763.449 104.756L761.788 104.529L760.279 105.586L760.053 105.888V106.19V106.567L760.581 107.322L760.732 107.699V108.001L760.279 108.152L759.072 107.624L755.147 107.322H754.166L753.562 108.152L752.808 108.529L751.525 108.906L750.393 109.661H750.016H749.714L748.883 108.906L748.204 109.887L747.902 110.717L747.6 111.397L746.921 111.774H746.167L743.601 110.34L740.431 109.208L739.223 109.435L737.79 110.869L737.563 111.321L737.337 112.453L737.186 113.057H737.11L736.129 114.189L734.696 116.906L733.941 117.887L731.149 120.302L729.488 120.906L728.054 120.227L726.998 120.906L724.734 123.698L723.526 124.679L723.073 124.83H722.621H722.168L721.715 124.679L720.658 123.321H719.602L718.545 123.924L717.413 124.377L716.281 123.924L715.149 122.717H713.715L711.753 121.208L710.546 120.83H705.263L704.735 120.981L703.603 121.811L702.923 122.113H702.169L695.377 120.227H689.868L689.264 120.528L688.962 121.283L688.585 121.962L687.83 122.113V121.736L686.547 119.547L684.66 118.189L676.812 115.774H675.378L674.849 115.321L674.698 114.718V114.264L674.548 113.208L674.246 111.85V111.095L673.717 110.189L670.699 106.944L668.359 105.888L665.642 105.284L660.133 105.057L659.605 105.435L659.454 105.737L659.228 106.039L658.85 106.34L658.397 104.831L657.718 104.529L656.209 105.133L655.196 104.888L654.969 104.737V103.906L654.667 102.322L653.988 103.454L653.309 103.303L652.63 102.699H652.479L651.498 102.246V101.642H651.951L652.781 101.19H653.234L652.63 100.284L651.573 100.133L650.592 99.7558L650.139 98.2463L649.988 97.3407L649.158 94.3976L648.781 93.4918L646.215 90.0959L645.46 89.6431L640.253 89.492L639.272 89.0392L636.178 86.6997L635.423 85.8697L635.121 84.8886L634.593 84.2094L631.197 81.4171L630.593 80.5869L629.008 77.6437L626.593 74.7759L626.141 74.3984L625.688 73.8703L625.084 71.9836L624.631 70.5497L624.858 69.1158L624.254 67.6064L623.877 67.078L623.273 66.3235L622.443 65.4933H622.065L621.914 65.9461L621.764 66.248L621.311 65.8707L621.009 65.4933L620.707 65.1913L620.405 64.9649L620.103 64.8141L618.367 64.4368L617.915 64.1349L617.462 65.4933H617.009L616.254 63.833L614.292 62.6255L613.085 61.0407L612.028 59.2295L610.821 57.7956L609.462 56.8145L607.726 56.5126L607.123 56.1353H606.594L606.217 56.3617L605.915 57.1918H605.538L604.708 56.3617L601.915 54.6259L601.538 54.3242L600.363 50.5698L598.174 48.6831L595.759 44.985L593.495 43.6266L592.287 42.6455L591.986 41.9664L591.759 41.3627L592.363 40.4569L593.57 39.8533L593.948 39.476L594.476 38.9477L594.099 37.2118L593.118 36.5327H591.91L591.608 36.3063L591.08 36.0799V34.4951L590.174 34.646L589.571 33.9668L589.042 32.9101L588.288 32.0045L587.382 29.2878L587.231 28.9103V28.5331L587.458 27.8539L588.061 26.8728L588.288 26.42L588.74 25.3633L589.118 24.2313L589.269 23.4013L588.967 22.9485H587.986L587.382 22.571L587.08 22.1938L586.099 20.9863L585.42 20.609L579.458 21.1371L576.59 21.3635H576.288L573.949 20.6843L575.005 20.2316L575.835 19.4015L578.175 16.2318L578.93 15.477L580.59 14.2695L581.948 13.6659L582.401 13.2886L582.854 12.6092V12.0056V11.4772L583.005 10.8736L583.684 10.3453L584.288 10.1944L584.816 9.74164L585.118 8.30772L585.722 7.25107L586.627 7.1002L589.042 7.55299L591.684 7.25107L593.042 7.40215L594.174 8.23218L594.552 8.45857H594.853H595.155L595.457 8.23218L596.514 8.00578H598.174L599.381 7.70386L599.08 6.64742L598.174 5.81715L597.268 5.51544L595.457 5.28905L596.287 4.53433L599.155 3.32681L599.91 2.87402L600.136 2.34569L599.91 1.8929L599.155 1.51566L597.872 1.06264L597.419 -0.220184L597.872 -1.57855L599.231 -2.40881L600.74 -4.37106L601.042 -5.50304L600.287 -6.63501H599.231L597.042 -5.65388L596.212 -6.25775V-6.78586L596.74 -8.37085V-9.20088L596.287 -9.80453H595.759H595.231L594.853 -10.1065L594.627 -11.6912L595.608 -13.729L595.382 -15.3893L597.419 -16.4457L598.325 -17.276L598.778 -18.5588L598.551 -20.1438L596.589 -24.2189L596.438 -24.37H596.136L595.834 -24.6717L595.684 -25.0492V-25.5775L595.985 -25.8039L596.287 -25.9548L596.438 -26.2567L596.287 -29.879L596.967 -31.0865L597.797 -31.3129L598.627 -30.7093L599.381 -29.4262L606.325 -32.596L608.74 -34.4827L609.645 -35.1619L609.419 -39.0108L610.173 -39.8408L612.06 -40.5956L612.739 -41.8031V-43.237L612.287 -44.4445L611.381 -45.3501L610.324 -45.9537L610.702 -47.7651L610.173 -49.7271L609.041 -51.2366L607.607 -51.9157L605.494 -51.5385L601.268 -53.2741L599.457 -52.8969L595.834 -54.3308L594.702 -55.01L595.306 -55.6891L596.287 -57.2739L596.74 -57.7267L597.117 -57.2739L597.419 -56.972H597.721L598.174 -57.1986L598.929 -57.8778L601.494 -59.2361L602.023 -59.7645L602.4 -60.5945L602.249 -61.8776L602.627 -62.7831L604.966 -63.8396L607.683 -63.4623L612.815 -61.4248L613.645 -60.8209L614.022 -59.9909L614.249 -59.0098L614.777 -58.0286L615.532 -57.2739L616.211 -56.8211L619.833 -56.2175L620.361 -56.3683L621.041 -57.0475L622.324 -59.0853L623.154 -59.8398L624.06 -57.3494L626.474 -56.8967L631.606 -58.1795L636.285 -58.7834L637.644 -59.387L636.889 -59.8398L636.361 -60.5945L636.059 -61.5756L635.908 -64.6698L635.455 -66.6321V-68.2922L636.361 -69.3488L635.908 -69.9525L635.304 -71.7638L634.776 -72.1411L633.417 -72.745L633.04 -73.1978V-74.2542L633.795 -74.707L636.059 -75.2353L637.115 -76.0656L637.719 -77.0465L638.096 -78.3295L638.398 -80.0654L638.247 -80.2918H637.87L637.568 -80.5935V-81.0463L637.644 -81.3482L638.247 -81.7257L638.398 -81.8765L638.549 -82.7066L638.851 -83.3104V-83.9141L638.172 -84.6688L642.247 -88.0649L644.587 -89.4989L646.926 -88.9705L649.567 -88.2158L650.247 -88.0649L654.473 -87.4611L656.511 -85.8008L663.152 -76.8956L663.756 -76.292L664.435 -75.99L666.02 -75.6126L666.623 -75.2353L668.812 -71.9902L669.567 -71.16H670.246L670.925 -71.5375H671.68L672.661 -71.16L674.019 -70.1789L675.227 -69.0469L675.755 -68.0658L676.434 -67.3113L679.151 -65.8018L680.585 -64.9718L686.019 -63.5379L689.716 -63.7643L704.508 -64.7454L712.432 -63.9151L714.847 -64.1415L719.677 -66.1038L732.884 -67.613L735.752 -67.3866L738.091 -66.3301L740.054 -65.9527L741.94 -66.1791L743.525 -67.1602L745.638 -69.5752L746.77 -70.4055L748.204 -70.7827L749.789 -71.3111H749.864L747.374 -73.1222L745.487 -74.9334L745.035 -76.7448L745.185 -78.7823L745.865 -82.7821L745.638 -83.9141L745.185 -84.2915V-84.6688L745.94 -85.7255L746.544 -86.1027L747.827 -86.3291L748.431 -86.8574L750.166 -90.4797L751.298 -91.3856L757.411 -92.7439L760.505 -93.4231L761.487 -93.8759H762.92L764.203 -93.725L768.052 -94.2531L776.052 -93.2723L776.731 -93.4231L780.58 -95.9134L789.259 -95.7626L792.73 -98.2529V-98.7813L792.881 -99.3096V-99.8379L792.73 -100.366V-100.517V-100.593L793.485 -102.102L794.089 -105.8L794.768 -107.234L795.9 -107.913L801.862 -109.498H802.541L803.22 -109.271L803.975 -108.668L805.409 -106.932L806.088 -106.63L809.031 -107.234L810.541 -107.007L811.673 -105.649V-104.668L811.371 -103.838L811.22 -103.007L811.824 -102.102H812.427L814.767 -102.932L816.352 -102.404L818.842 -100.215L820.201 -99.6868L821.71 -100.215L824.653 -102.932L826.163 -103.838L828.653 -104.592L828.879 -104.743L831.445 -106.328L832.653 -106.781L833.181 -107.234L833.634 -108.064L834.011 -109.8L834.237 -110.479L835.068 -111.46H835.596L836.275 -111.309L837.407 -111.158L838.464 -111.611L840.426 -113.422L841.181 -113.724L842.464 -113.045L843.218 -112.215L843.973 -111.913L845.482 -112.667L847.369 -114.554L848.954 -117.045L850.312 -119.837L852.803 -127.535L853.557 -129.044L854.538 -130.327L856.501 -132.44L856.651 -132.591L857.482 -133.874V-134.251L857.557 -134.629V-135.006V-135.383L857.406 -137.044V-137.874L857.482 -138.628L859.368 -139.383L863.368 -139.685L877.028 -142.854H878.085L879.065 -142.326L880.952 -140.591L881.858 -140.364L883.896 -140.138L887.443 -138.025L889.706 -137.798L891.291 -137.949L893.178 -137.572L894.989 -136.742L896.272 -135.459L897.932 -135.081L902.913 -137.496L905.026 -137.949L906.158 -137.421L906.989 -136.742L907.743 -136.44L908.725 -136.968L909.479 -138.025L909.857 -139.081L910.385 -139.987L911.668 -140.741L912.724 -140.968H914.913L918.233 -142.1L919.139 -141.798L921.328 -140.515L922.46 -140.062L922.988 -139.534L923.441 -138.704L924.044 -136.817L924.497 -136.138L925.554 -135.685H927.969L929.101 -135.459L929.629 -134.327L930.459 -130.327L930.987 -129.27L934.61 -123.686L936.119 -121.874L937.855 -120.592L939.893 -119.912L941.855 -120.063L945.175 -121.799L947.968 -122.252L949.93 -123.384L950.836 -123.761L954.232 -123.912L955.439 -124.289H956.571L960.42 -123.988L961.627 -124.365L962.759 -125.271L963.967 -126.855L965.476 -126.553H965.627L966.231 -127.233L968.344 -128.063L970.533 -127.761L972.872 -126.629L971.891 -123.686V-122.176L973.627 -122.252H974.08L974.533 -121.346V-120.365L974.381 -119.233V-117.875L975.136 -115.913L978.306 -111.007L978.759 -110.554L979.212 -110.403L979.74 -110.554L980.268 -110.932L980.494 -111.083H980.721H981.023L982.306 -110.554L983.362 -110.328H984.343L985.626 -111.007H985.928H986.23L986.456 -110.856L991.211 -104.517L992.041 -102.555L992.947 -99.536L994.079 -97.272L994.456 -96.8946H994.607L995.437 -97.3474H1000.12L1001.32 -97.7248L1002.38 -98.404L1003.51 -98.7059L1004.57 -98.0265L1004.8 -97.5737L1007.13 -96.2909L1009.02 -94.4795L1009.85 -93.3476L1010.53 -91.9892L1010.98 -90.178L1010.76 -89.1969L1010.3 -88.2913L1010.15 -86.7819L1009.02 -85.4235L1009.55 -84.2915L1011.89 -82.3293L1011.51 -82.7821Z" fill="white"/>
<path opacity="0.8" d="M412.252 149.161L412.403 148.783L412.252 148.029L412.705 147.048V146.444L412.101 146.293L411.648 145.916L411.271 145.312L410.969 144.482L412.327 144.784L417.837 143.953L422.893 143.199V142.595L422.214 141.614L421.232 140.557L420.251 139.425L423.421 139.124L425.987 140.482L429.006 140.18L430.289 138.595L431.496 137.086L432.024 135.878V135.727L431.949 135.652H431.345L430.364 135.048L429.685 134.293L424.553 125.615L420.1 123.577L419.497 123.124L416.931 121.162L415.874 120.86L413.686 120.558L411.874 119.577L411.422 118.672L410.893 117.615L411.12 114.445L413.082 110.068L413.686 108.785L414.138 106.974L414.591 105.087L413.535 103.352H413.233L411.346 103.88L409.233 104.861L407.271 105.012L405.535 102.974V102.748V102.597L405.233 102.37L404.403 101.39L405.384 100.484L405.686 100.257L406.214 99.5782L406.365 98.9745L406.214 98.3707L405.686 97.8426L407.196 95.8803L408.327 95.0501L414.365 90.4466L416.176 87.0505L415.95 86.1449L415.723 85.3149L415.044 85.1638L414.138 85.0129L412.252 85.2393L410.591 85.0129L408.629 83.0507L407.422 82.2207L405.611 81.8432L404.705 81.3151L402.743 81.164L401.762 80.7868L402.667 82.4471L400.932 82.749L400.403 81.9187L400.177 80.6359L399.347 79.4284L398.97 77.0889L398.592 75.9567L398.064 75.0511L399.724 73.9947L400.026 73.5419L400.932 71.9569L401.762 69.9949L402.441 69.1646H403.271L404.101 68.7118L405.686 67.5799L408.705 65.9951L410.29 64.3348L411.648 62.3726L413.233 60.8631L415.421 60.5614H417.006L418.214 59.9575L418.742 58.8256L418.893 58.4483V56.0333L419.346 55.505L419.572 54.9013L419.723 54.2221V53.4674L420.704 53.5427L424.93 54.5994H425.836L429.987 53.9202L431.949 54.2221L437.835 57.0144L438.892 57.1653L439.949 56.9389L441.081 56.7125H442.213L443.269 57.0897L444.25 57.5427L447.873 60.6367L448.552 60.7878H448.703L454.665 61.0142L462.363 61.2406L464.551 60.7878L465.23 60.9387L465.532 61.3914L465.758 61.9198L466.136 62.3726L467.268 62.9009L468.173 63.2781L469.23 63.4292L471.494 62.9009L472.4 64.1084L473.154 65.6932L473.984 66.5988L475.117 66.0704L475.418 65.3159L475.72 64.4857L476.249 62.6745L477.23 61.3161L477.833 61.0895L479.267 60.9387L479.946 60.7123L480.626 60.2595L481.909 58.9011H482.211H482.588H483.041L483.493 57.8444L484.248 56.9389L484.55 56.3352L484.927 55.8824L485.984 55.4294L486.588 55.8069L488.248 55.505L489.682 54.8258L490.059 54.5238L490.587 53.3163L491.267 51.7316L491.719 50.2977L492.248 48.7884L493.002 47.2034L494.059 45.6187L494.889 45.2414H495.795H496.927H497.153L498.587 44.3359L499.493 43.732L500.398 43.8828L501.606 45.6942L504.021 42.2981L507.719 41.0906L509.228 41.2416L510.511 41.3925L514.813 41.8453L516.926 42.0717L525.152 41.6189L528.699 41.468L530.585 42.1472L531.718 43.1283L532.019 43.3547L533.453 44.2603L535.415 43.8828L536.623 42.9019L536.774 42.5245L537 41.9961L537.151 41.0906V40.9397L537.83 39.5813L538.812 38.8266L540.17 38.4491H541.528L542.509 38.6758L543.339 38.4491L543.641 38.2227L543.943 37.9963L544.321 37.1663V35.9588L544.547 34.5249L545.604 35.1288L550.509 35.8833H552.245L554.132 35.0532L556.622 34.0721L558.433 33.9212L560.244 34.2985L564.621 36.4871L567.263 36.9399L567.942 37.4682L569.15 38.9775L568.999 36.7891L568.244 35.3552L566.886 34.4493L566.131 32.1854V30.5251V29.1667V28.8648L566.584 25.9217V25.2422L566.206 25.0159V24.7895L566.81 24.1103L567.187 23.8839L569.829 23.2047H570.055L571.414 22.3747L574.055 20.7897L576.394 21.3935H576.696L579.564 21.2425L585.526 20.7144L586.205 21.0916L587.186 22.2991L587.488 22.6764L588.092 22.9783H589.073L589.375 23.5066L589.224 24.3367L588.847 25.4689L588.394 26.5253L588.167 26.9781L587.564 27.9592L587.413 28.6384V29.0156V29.3931L588.319 32.1099L589.073 33.0157L589.601 34.0721L590.205 34.7513L591.111 34.6004V36.1852L591.639 36.4116L591.941 36.5624H593.148L594.129 37.3172L594.507 39.053L593.979 39.5813L593.601 39.9586L592.394 40.5625L591.79 41.468L592.016 42.0717L592.318 42.7509L593.526 43.732L595.79 45.0903L598.205 48.7884L600.393 50.6751L601.299 54.6749L599.714 53.3919L599.11 53.0146L598.431 52.8635L596.997 53.0146H596.469L595.941 52.5618L594.884 51.4296L594.28 51.0524H593.526H592.696H591.866L591.111 50.3732L590.733 51.0524L590.281 50.3732L590.054 50.6751L589.375 51.4296L588.092 51.8826L587.111 52.4863L585.073 53.3163L584.847 53.5427L583.187 55.4294V56.1841L583.111 56.788L583.338 58.0708L584.092 60.6367V61.3914V62.9009L584.243 63.6556L584.62 64.1084L585.753 64.8629L586.054 65.3159V66.146L586.13 66.3724L585.828 66.6743H584.319L582.055 67.2026H581.526L580.47 66.9762L579.564 66.4479L577.979 64.9384L577.376 64.6365L576.546 64.7876L576.017 65.3912L575.489 66.0704L574.885 66.5988L574.131 66.7496H573.753L571.791 66.2968V67.9571L571.942 69.3157V70.523L571.489 71.8061L571.338 71.9569L570.659 72.7116L569.376 73.6172L568.018 74.2964H567.716L566.961 74.5983L564.848 74.9758L562.961 76.0322L560.697 77.3153H560.546H560.471H557.527L556.471 77.6925L555.49 78.1453L555.264 78.2964L554.584 78.8245L553.301 81.0131L552.094 81.8432L547.49 81.4659H546.434L545.075 82.0698L544.245 83.2018L544.019 83.5035L542.811 85.7677L541.906 88.4091V90.7486L542.811 92.8617L544.094 94.22L544.623 94.7484L545.377 95.2012L547.188 95.9559L547.943 96.5595L548.547 97.4651L548.849 97.9934L548.547 98.9745L547.792 100.107L547.264 101.993V103.955L547.415 106.823V108.332L546.962 109.464L546.509 110.521L546.283 111.653L546.585 112.861L547.339 114.747V116.03L546.736 116.936L545.453 117.615L544.17 117.992H541.679L539.264 117.69L537.604 117.389L537 117.69L535.793 118.672L535.189 118.898L534.434 118.747L533.68 118.521H532.925L532.246 118.747L531.944 119.577L532.17 120.558V121.464L531.566 122.068L525.227 124.181L523.492 124.784L520.925 126.218L520.397 126.822L520.095 127.728V127.879V128.256L520.548 128.483L521.152 129.086L521.756 130.294L522.133 130.746L522.737 131.199L523.567 131.501L523.869 131.35V130.973L524.246 130.746L525.001 130.52L525.227 130.369L525.454 130.52L526.51 131.728L526.661 131.878L527.718 133.614L528.095 134.444H526.737L525.831 134.746L525.001 135.199L523.114 135.803L522.737 136.482L522.51 137.237L522.058 137.614L521.227 137.991V138.746L521.756 139.727L522.133 140.784L522.51 143.274L523.039 145.236L523.944 146.821L527.189 149.01L526.586 149.538L525.454 151.123L524.925 151.651L524.171 151.878H522.058L518.435 153.16L515.718 154.142L512.851 153.764L508.096 149.764L507.417 149.236H504.247L503.644 148.557L502.889 148.255H502.285L501.304 148.029L500.172 146.972L498.738 145.991H497.531L497.304 147.953L496.097 150.066L493.304 151.047L490.587 150.444L489.606 147.878L483.645 145.236L482.361 144.104V143.651L482.588 142.067L482.437 141.387L482.06 140.859L481.682 140.633L481.23 140.406L479.041 138.671L478.211 137.765L477.607 136.633V135.425V133.765L477.456 132.331L476.777 131.954L476.022 132.256L475.72 132.407L475.192 132.935L474.362 134.822L473.683 135.803L472.022 137.614L471.419 138.52L471.041 139.727V140.104L470.739 142.142L470.362 143.425L469.532 145.01L467.042 146.897L465.834 148.029L463.344 149.463L460.4 149.764L457.382 149.161L454.816 148.029L453.382 147.651L451.722 148.104L448.627 149.538L446.967 149.84H446.816H445.307L443.646 149.161L442.062 147.953L441.231 147.048L440.326 146.595L438.59 146.218L437.609 145.991L437.156 146.293L436.93 146.972V147.953L438.288 149.613L437.458 150.745L434.439 152.028L433.534 152.934L432.93 153.84L432.251 154.368L428.779 153.84L427.798 153.538L426.968 152.632L423.949 150.67L417.535 150.972H415.572L413.006 148.331L412.252 149.161Z" fill="white"/>
<path d="M390.806 171.479L385.17 172.204L385.009 190H396.121L390.806 171.479Z" fill="#FF78B9"/>
<path d="M388.148 173.091C382.351 173.896 379.13 172.93 376.634 170.836C376.392 170.595 376.312 170.273 376.553 169.95C376.634 169.789 376.795 169.709 376.956 169.709L398.133 166.891C398.455 166.81 398.777 167.052 398.777 167.374C398.777 167.535 398.777 167.696 398.697 167.776C396.845 170.514 393.946 172.286 388.148 173.091Z" fill="white"/>
<path d="M386.136 158.033C387.665 157.791 389.115 158.918 389.356 160.448L389.92 164.877L384.284 165.602L383.72 161.173C383.478 159.643 384.606 158.274 386.136 158.033Z" fill="#83DDC5"/>
<path d="M386.457 160.689C387.101 160.608 387.665 161.092 387.746 161.655L387.907 162.622C387.987 163.266 387.585 163.829 386.94 163.91C386.296 163.99 385.733 163.507 385.652 162.944L385.491 161.977C385.41 161.333 385.894 160.77 386.457 160.689Z" fill="#4F5D7F"/>
<path d="M386.86 163.428C378.808 164.556 374.782 166.971 372.205 170.675C371.883 170.997 371.963 171.481 372.286 171.803C372.527 171.964 372.769 172.044 373.01 171.964L402.562 167.938C403.045 167.938 403.367 167.535 403.367 167.132C403.367 166.891 403.206 166.569 402.964 166.488C399.421 163.589 394.912 162.301 386.86 163.428Z" fill="#EBEFF7"/>
<path d="M375.747 170.513C376.058 170.513 376.311 170.261 376.311 169.949C376.311 169.638 376.058 169.386 375.747 169.386C375.436 169.386 375.183 169.638 375.183 169.949C375.183 170.261 375.436 170.513 375.747 170.513Z" fill="#FFD836"/>
<path d="M379.21 170.03C379.521 170.03 379.774 169.778 379.774 169.466C379.774 169.155 379.521 168.903 379.21 168.903C378.899 168.903 378.646 169.155 378.646 169.466C378.646 169.778 378.899 170.03 379.21 170.03Z" fill="#AEC7FF"/>
<path d="M398.133 167.454C398.444 167.454 398.696 167.202 398.696 166.89C398.696 166.579 398.444 166.327 398.133 166.327C397.821 166.327 397.569 166.579 397.569 166.89C397.569 167.202 397.821 167.454 398.133 167.454Z" fill="#F47FFF"/>
<path opacity="0.45" d="M387.506 178.404C387.828 177.84 388.552 177.679 389.116 178.082L389.438 178.324C390.002 178.646 390.163 179.37 389.76 179.934C389.438 180.498 388.713 180.659 388.15 180.256L387.828 180.015C387.264 179.612 387.103 178.887 387.506 178.404Z" fill="#4762B0"/>
</g>
<defs>
<clipPath id="clip0_3_7038">
<rect width="660" height="190" rx="16" fill="white"/>
</clipPath>
</defs>
</svg>
