<svg viewBox="0 0 313 120" xmlns="http://www.w3.org/2000/svg"><path d="m58 112.05v-9.12a5.88 5.88 0 0 1 -3.7 2.07 5.91 5.91 0 0 1 .1 1 6.1 6.1 0 0 1 -2.4 4.87v7.13h12a6 6 0 0 1 -6-5.95zm-10 .1a5.63 5.63 0 0 1 -1.3-.24v6.14h3.5v-6.19a6 6 0 0 1 -2.2.29z" fill="#72767d" opacity=".2"/><path d="m42.2 106.15a6.5 6.5 0 0 1 .8-3.1 11.75 11.75 0 0 0 1.5-6.05 3.88 3.88 0 0 1 4.5-3.8 4.07 4.07 0 0 1 3.3 4 15 15 0 0 0 1.25 5.8h.15c1.2 0 2.4-.8 3.5-2.3a1 1 0 0 1 .8-.36v-36.34a8 8 0 0 1 0-15.86v-6.09h91v-13a6 6 0 0 1 6-6h60.1a20.06 20.06 0 0 0 -20-20h-55a20 20 0 0 0 -20 20v.4a9.18 9.18 0 0 1 -9.2 9.2h-52.9a30 30 0 0 0 -30 30v24.5a4 4 0 0 1 -4 4h-4a20.06 20.06 0 0 0 -20 20v6.9h44.9v-7a6.19 6.19 0 0 1 -2.7-4.9zm89.7-86.15-1.3-2.6a.75.75 0 0 1 1-1l2.6 1.3a.64.64 0 0 0 .6 0l2.6-1.3a.75.75 0 0 1 1 1l-1.3 2.6a.64.64 0 0 0 0 .6l1.3 2.6a.75.75 0 0 1 -1 1l-2.6-1.3a.64.64 0 0 0 -.6 0l-2.6 1.3a.75.75 0 0 1 -1-1l1.3-2.6a.63.63 0 0 0 0-.6zm153.4 90.45a5.89 5.89 0 0 1 -2.55-3l-4.75 3.4a1.42 1.42 0 0 1 -.6.2.91.91 0 0 1 -.8-.4 1.08 1.08 0 0 1 .2-1.4l5.5-3.93a6 6 0 0 1 .6-2.87 6.11 6.11 0 0 1 2.1-2.4l.26-.19-3.16-4.21a1 1 0 1 1 1.6-1.2l3.11 4.14a13.2 13.2 0 0 0 2.39-3.24 3.94 3.94 0 0 1 5.8-1.3 3.88 3.88 0 0 1 1.1 5 12.9 12.9 0 0 0 -1.34 3.7h4.74a.94.94 0 0 1 1 1 1 1 0 0 1 -1 1h-5v.3a6.3 6.3 0 0 1 -.7 3 6 6 0 0 1 -1.8 2v8h21a55 55 0 0 0 -41.3-53.28v1.38h-2.7v5h2.7v12h-2.7v6.74a10 10 0 0 1 0 18.32v9.84h21.2v-7a6 6 0 0 1 -4.9-.6z" fill="#72767d" opacity=".2"/><path d="m155 23.05a6 6 0 0 0 -6 6v13h19v70a6 6 0 0 1 -6 6h19v-95z" fill="#36393f"/><path d="m168 112.05v-42h-10l10-14-10-14h-20l10 14-10 14h-20l10-14-10-14h-20l10 14-10 14h-20l10-14-10-14h-20v6.07a8.26 8.26 0 0 1 1-.07 8 8 0 0 1 0 16 8.26 8.26 0 0 1 -1-.05v36.41a1 1 0 0 1 .6.16 1.08 1.08 0 0 1 .2 1.4 11.68 11.68 0 0 1 -.8 1v9.12a6 6 0 0 0 6 6h98a6 6 0 0 0 6-6.04zm-12-6h-86v-4h86zm0-11h-86v-4h86zm0-11h-86v-4h86z" fill="#202225"/><path d="m70 80.05h86v4h-86zm0 11h86v4h-86zm0 11h86v4h-86z" fill="#b9bbbe"/><path d="m78 70.05h20l10-14h-20zm40 0h20l10-14h-20zm50 0v-14l-10 14z" fill="#72767d"/><path d="m168 42.05h-10l10 14zm-40 14h20l-10-14h-20zm-40 0h20l-10-14h-20z" fill="#b9bbbe"/><path d="m51 56.05a8 8 0 0 0 7 7.95 8.26 8.26 0 0 0 1 .07 8 8 0 0 0 0-16 8.26 8.26 0 0 0 -1 .07 8 8 0 0 0 -7 7.91zm8-4a4 4 0 1 1 -4 4 4 4 0 0 1 4-4z" fill="#4f545c"/><circle cx="59" cy="56.05" fill="#72767d" r="4"/><path d="m265 109.05h-5.3a10 10 0 0 1 0-20h5.3a9.92 9.92 0 0 1 4 .84v-6.74h-9.3v-12h9.3v-5h-9.3v-12h9.3v-5h-9.3v-12h9.3v-8.1a6 6 0 0 0 -6-6h-82v95h88v-9.84a9.92 9.92 0 0 1 -4 .84zm-15.3-25.9h-12v-12h12zm9.93 0h-4v-12h4zm-4-46h4v12h-4zm4 17v12h-4v-12zm-21.93-17h12v12h-12zm12 17v12h-12v-12zm-16.07-17h4v12h-4zm4 17v12h-4v-12zm-4 17h4v12h-4zm-17.93-34h12v12h-12zm12 17v12h-12v-12zm-16.07-17h4v12h-4zm-17.93 0h12v12h-12zm0 17h12v12h-12zm0 17h12v12h-12zm-4.07-34h4v12h-4zm0 17h4v12h-4zm0 17h4v12h-4zm15.37 37.9h-5.3a10 10 0 0 1 0-20h5.3a10 10 0 0 1 0 20zm10.63-25.86h-4v-12h4zm-4-17v-12h4v12zm4.07 5h12v12h-12zm19.3 37.9h-5.3a10 10 0 0 1 0-20h5.3a10 10 0 0 1 0 20z" fill="#4f545c"/><path d="m195 99.05a10 10 0 0 1 10-10h-5.3a10 10 0 0 0 0 20h5.3a10 10 0 0 1 -10-10z" fill="#202225"/><path d="m205 89.05a10 10 0 1 0 10 10 10 10 0 0 0 -10-10zm-1.4 8.6a1.39 1.39 0 0 1 -1.9 0l-1.9-1.9a1.34 1.34 0 0 1 1.9-1.9l1.9 1.9a1.39 1.39 0 0 1 0 1.9z" fill="#72767d"/><path d="m201.7 93.85a1.34 1.34 0 0 0 -1.9 1.9l1.9 1.9a1.34 1.34 0 0 0 1.9-1.9z" fill="#b9bbbe"/><path d="m225 99.05a10 10 0 0 1 10-10h-5.3a10 10 0 0 0 0 20h5.3a10 10 0 0 1 -10-10z" fill="#202225"/><path d="m235 89.05a10 10 0 1 0 10 10 10 10 0 0 0 -10-10zm1.3 16a1.3 1.3 0 0 1 -2.6 0v-2.7a1.3 1.3 0 1 1 2.6 0z" fill="#72767d"/><path d="m235 101.05a1.32 1.32 0 0 0 -1.3 1.3v2.7a1.3 1.3 0 0 0 2.6 0v-2.7a1.32 1.32 0 0 0 -1.3-1.3z" fill="#b9bbbe"/><path d="m255 99.05a10 10 0 0 1 10-10h-5.3a10 10 0 0 0 0 20h5.3a10 10 0 0 1 -10-10z" fill="#202225"/><path d="m255 99.05a10 10 0 1 0 10-10 10 10 0 0 0 -10 10zm13.3-1.3h2.7a1.3 1.3 0 1 1 0 2.6h-2.7a1.3 1.3 0 0 1 0-2.6z" fill="#72767d"/><path d="m268.3 100.35h2.7a1.3 1.3 0 1 0 0-2.6h-2.7a1.3 1.3 0 0 0 0 2.6z" fill="#b9bbbe"/><path d="m130.6 23.15a.75.75 0 0 0 1 1l2.6-1.3a.64.64 0 0 1 .6 0l2.6 1.3a.75.75 0 0 0 1-1l-1.3-2.6a.64.64 0 0 1 0-.6l1.3-2.6a.75.75 0 0 0 -1-1l-2.6 1.3a.64.64 0 0 1 -.6 0l-2.6-1.3a.75.75 0 0 0 -1 1l1.3 2.6a.63.63 0 0 1 0 .6z" fill="#fff"/><path d="m292.5 54.55a1.08 1.08 0 0 0 1-1v-1a1 1 0 0 0 -2 0v1a.94.94 0 0 0 1 1zm0 8a1.08 1.08 0 0 0 1-1v-1a1 1 0 0 0 -2 0v1a.94.94 0 0 0 1 1zm3.5-4.5h1a1 1 0 0 0 0-2h-1a.94.94 0 0 0 -1 1 1 1 0 0 0 1 1zm-8 0h1a1 1 0 0 0 0-2h-1a.94.94 0 0 0 -1 1 1 1 0 0 0 1 1zm-187.5-54.5a.94.94 0 0 0 1-1v-1a1 1 0 1 0 -2 0v1a.94.94 0 0 0 1 1zm0 8a.94.94 0 0 0 1-1v-1a1 1 0 1 0 -2 0v1a.94.94 0 0 0 1 1zm3.5-4.5h1a.94.94 0 0 0 1-1 .94.94 0 0 0 -1-1h-1a.94.94 0 0 0 -1 1 .94.94 0 0 0 1 1zm-8 0h1a.94.94 0 0 0 1-1 .94.94 0 0 0 -1-1h-1a.94.94 0 0 0 -1 1 .94.94 0 0 0 1 1z" fill="#72767d"/><path d="m193.7 37.15h12v12h-12z" fill="#b9bbbe"/><path d="m189.63 37.19h4v12h-4z" fill="#72767d"/><path d="m215.7 37.15h12v12h-12z" fill="#b9bbbe"/><path d="m211.63 37.19h4v12h-4z" fill="#72767d"/><path d="m237.7 37.15h12v12h-12z" fill="#b9bbbe"/><path d="m233.63 37.19h4v12h-4z" fill="#72767d"/><path d="m259.7 49.15h12v-12h-12z" fill="#b9bbbe"/><path d="m255.63 37.19h4v12h-4z" fill="#72767d"/><path d="m193.7 54.15h12v12h-12z" fill="#b9bbbe"/><path d="m189.63 54.19h4v12h-4z" fill="#72767d"/><path d="m215.7 54.15h12v12h-12z" fill="#b9bbbe"/><path d="m211.63 54.19h4v12h-4z" fill="#72767d"/><path d="m237.7 54.15h12v12h-12z" fill="#b9bbbe"/><path d="m233.63 54.19h4v12h-4z" fill="#72767d"/><path d="m259.7 66.15h12v-12h-12z" fill="#b9bbbe"/><path d="m255.63 54.19h4v12h-4z" fill="#72767d"/><path d="m193.7 71.15h12v12h-12z" fill="#b9bbbe"/><path d="m189.63 71.19h4v12h-4z" fill="#72767d"/><path d="m215.7 71.15h12v12h-12z" fill="#b9bbbe"/><path d="m211.63 71.19h4v12h-4z" fill="#72767d"/><path d="m237.7 71.15h12v12h-12z" fill="#b9bbbe"/><path d="m233.63 71.19h4v12h-4z" fill="#72767d"/><path d="m259.7 83.15h12v-12h-12z" fill="#b9bbbe"/><path d="m255.63 71.19h4v12h-4z" fill="#72767d"/><path d="m54.4 106.05a5.91 5.91 0 0 0 -.1-1 5.88 5.88 0 0 0 3.7-2.08 11.68 11.68 0 0 0 .8-1 1.08 1.08 0 0 0 -.2-1.4 1.12 1.12 0 0 0 -1.4.2c-1.1 1.5-2.3 2.3-3.5 2.3h-.15a15 15 0 0 1 -1.25-5.88 4.07 4.07 0 0 0 -3.3-4 3.88 3.88 0 0 0 -4.5 3.81 11.75 11.75 0 0 1 -1.5 6.1 6.5 6.5 0 0 0 -.8 3.1 6.19 6.19 0 0 0 2.7 4.9v7.5a.9.9 0 0 0 .9.9 1.06 1.06 0 0 0 .9-.9v-6.64a5.63 5.63 0 0 0 1.3.24 6 6 0 0 0 2.2-.29v6.69a.9.9 0 0 0 1.8 0v-7.63a6.1 6.1 0 0 0 2.4-4.92zm237.6 4.05a6 6 0 0 0 1.8-2 6.3 6.3 0 0 0 .7-3v-.3h5a1 1 0 0 0 1-1 .94.94 0 0 0 -1-1h-4.74a12.9 12.9 0 0 1 1.34-3.7 3.88 3.88 0 0 0 -1.1-5 3.94 3.94 0 0 0 -5.8 1.3 13.2 13.2 0 0 1 -2.39 3.24l-3.11-4.14a1 1 0 1 0 -1.6 1.2l3.16 4.21-.26.19a6.11 6.11 0 0 0 -2.1 2.4 6 6 0 0 0 -.6 2.87l-5.5 3.93a1.08 1.08 0 0 0 -.2 1.4.91.91 0 0 0 .8.4 1.42 1.42 0 0 0 .6-.2l4.75-3.39a5.89 5.89 0 0 0 2.55 3 6 6 0 0 0 4.9.56v7.54a.9.9 0 0 0 .9.9 1.06 1.06 0 0 0 .9-.9z" fill="#040505"/></svg>