<svg height="166" viewBox="0 0 166 166" width="166" xmlns="http://www.w3.org/2000/svg"><g fill="#fff"><path d="m138 22.56h-110.07a1.73 1.73 0 0 0 -.32 0 1.52 1.52 0 0 0 -.2.06l-.17.05-.19.1-.15.08-.17.14-.13.11a1.41 1.41 0 0 0 -.25.29 2.89 2.89 0 0 0 -.19.35v.17a1.52 1.52 0 0 0 -.06.2 1.81 1.81 0 0 0 0 .4v74.62a2 2 0 0 0 .78 1.59l55 42.31a2 2 0 0 0 2.44 0l55-42.31a2 2 0 0 0 .78-1.59v-74.57a1.81 1.81 0 0 0 0-.4 1.52 1.52 0 0 0 -.06-.2c0-.05 0-.11-.05-.17a2.89 2.89 0 0 0 -.19-.35 2.37 2.37 0 0 0 -.25-.29.81.81 0 0 0 -.14-.12l-.16-.13-.16-.09-.18-.09-.18-.06h-.19-.33-.21zm-53.88 91.63a2 2 0 0 0 -2.24 0l-16.49 11.18-9.1-7 26.71-18.11 26.71 18.11-9.1 7zm13.15 13.75-14.27 10.98-14.27-11 14.27-9.66zm-13.15-31.75a2 2 0 0 0 -2.24 0l-28.88 19.61-9.1-7 35.22-23.9 1.21.87a4.57 4.57 0 0 0 5.34 0l1.21-.87 35.27 23.9-9.1 7zm-2.24-50.69a2 2 0 0 0 2.24 0l27.94-18.94h19.43l-26.58 18-19.77 13a6.32 6.32 0 0 0 -1.57 1.44l-.57.39-.57-.39a6.32 6.32 0 0 0 -1.57-1.48l-19.77-13-26.58-18h19.43zm-20.82-18.94h43.88l-21.94 14.87zm46.27 21.28h.09a.48.48 0 0 1 .24.06.57.57 0 0 1 .16.15.63.63 0 0 1 .08.23v.06a.59.59 0 0 1 -.06.28l-8.1 16.14a.57.57 0 0 0 .51.84h4.91a.58.58 0 0 1 .58.57.55.55 0 0 1 -.07.25.36.36 0 0 1 0 .09.44.44 0 0 1 -.14.13l-22.19 15.88a.58.58 0 0 1 -.68 0l-22.15-15.88a.55.55 0 0 1 -.25-.47.58.58 0 0 1 .58-.57h4.91a.57.57 0 0 0 .51-.84l-8.19-16.09a.59.59 0 0 1 -.06-.28v-.06a.63.63 0 0 1 .08-.23.57.57 0 0 1 .16-.15.48.48 0 0 1 .24-.06h.09a.53.53 0 0 1 .17.08l19.77 13a2.34 2.34 0 0 1 .8.91l1.81 3.62 1.2 2.42a.58.58 0 0 0 1 0l1.2-2.42 1.81-3.62a2.27 2.27 0 0 1 .34-.51 2.93 2.93 0 0 1 .46-.4l19.77-13a.53.53 0 0 1 .17-.08zm-52.18-2.46a5.09 5.09 0 0 0 -.48.64 4.55 4.55 0 0 0 -.17 4.46l5.69 11.16a4.58 4.58 0 0 0 -2 8.26l4.56 3.27-32.75 22.19v-67zm48.11 27.79 4.56-3.27a4.58 4.58 0 0 0 -2-8.26l5.69-11.16a4.55 4.55 0 0 0 -.17-4.46 5.09 5.09 0 0 0 -.48-.64l25.14-17.05v67zm-37.05 2.48 9.44 6.76-35.14 23.83-9.1-7zm24.14 6.76 9.44-6.76 34.8 23.59-9.1 7z"/><path d="m148 11.25h-130a2 2 0 0 0 -2 2v89.5a2 2 0 0 0 .78 1.58l65 50a2 2 0 0 0 2.44 0l65-50a2 2 0 0 0 .78-1.58v-89.5a2 2 0 0 0 -2-2zm-2 90.52-63 48.46-63-48.46v-86.52h126z"/></g></svg>