<svg fill="none" height="88" viewBox="0 0 77 88" width="77" xmlns="http://www.w3.org/2000/svg"><path clip-rule="evenodd" d="m65.2166 19.7044c-5.0656-2.3394-10.4047-3.9856-15.8822-4.9213-.7468 1.3552-1.4319 2.743-2.0363 4.1631-5.8278-.8716-11.7672-.8716-17.5989 0-.6198-1.4201-1.3011-2.8079-2.0479-4.1471-5.4968.9361-10.8358 2.5819-15.9015 4.9217-10.0698 14.958-12.78733 29.5608-11.420825 43.9377 5.893285 4.3727 12.483225 7.6967 19.488925 9.8266 1.5744-2.1299 2.9717-4.4048 4.165-6.7771-2.2749-.8551-4.4805-1.9038-6.5784-3.1625.5581-.4031 1.097-.8067 1.6205-1.2587 12.3409 5.8414 26.6063 5.8414 38.9511 0 .5235.436 1.0624.8556 1.6013 1.2587-2.094 1.2426-4.3035 2.3074-6.5746 3.1625 1.2087 2.3723 2.5905 4.6312 4.1611 6.7611 7.0057-2.1299 13.5958-5.4539 19.4891-9.8266h.0191c1.6013-16.6522-2.7329-31.11-11.4555-43.9381zm-39.5092 35.1085c-3.7993 0-6.9287-3.5015-6.9287-7.7612 0-4.2598 3.0524-7.7613 6.9287-7.7613 3.8762 0 6.9865 3.5015 6.9249 7.7613 0 4.2597-3.0679 7.7612-6.9249 7.7612zm25.5748 0c-3.7993 0-6.9288-3.5015-6.9288-7.7612 0-4.2598 3.0679-7.7613 6.9288-7.7613 3.857 0 6.9864 3.5015 6.9248 7.7613 0 4.2597-3.0678 7.7612-6.9248 7.7612z" fill="#fff" fill-rule="evenodd"/></svg>