<svg height="120" viewBox="0 0 267 120" width="267" xmlns="http://www.w3.org/2000/svg"><g fill="none" fill-rule="evenodd"><path d="m257.899525 62.4903051c-3.672711-10.9179661-15.127627-13.5111865-25.388644-15.1179661-19.671356-3.080339-41.228644-3.8059322-60.41644-8.980678-12.215594-3.2944068-22.884916-13.0545763-32.849492-20.3847457-42.8755931-31.540678-87.386949-5.2159322-95.1808473 3.5979661-8.8972881 10.0606779-26.0018644 32.1879661-31.0255932 53.6603389-4.87779664 20.8474577 10.6764407 40.9245767 32.0730508 41.6969487 16.7776271.605085 43.0276271 1.375424 58.9433897.962034 26.674576-.693559 53.348644.138305 80.02322-.555254 12.971187-.337627 26.745255-.568474 39.261356-4.368813 9.758136-2.962373 18.894407-8.962882 25.625085-16.5986445 6.803898-7.7191525 11.219492-17.7132203 10.154746-28.1501695-.199322-1.9566101-.592373-3.8959322-1.219831-5.7610169m-23.121457-44.614678c-.880678-.8105085-2.215932-1.4369491-4.111017-1.790339-11.939492-2.2255932-23.492034-4.4532203-35.065932-8.01457624-2.194577-.62542372-4.476102-1.25694915-6.727627-.89033898-4.132882.67322034-5.562204 4.44762712-4.587458 8.10711862 2.326271 8.7340678 13.383051 15.691017 21.46322 17.9725424 6.732204 1.9011864 16.003221 2.1930508 22.380509-1.2076271 5.012542-2.6730509 10.743051-10.4094915 6.648305-14.1767797" fill="#4f5d7f"/><g fill="#000"><path d="m263.501441 63.9494237-12.20339 5.8576271-12.20339-5.8576271v-1.7140678h24.40678zm0 11.7152543-11.028814-5.2937288 11.028814-5.2937289zm-24.40678 2.8418644v-1.7140678l12.20339-5.8576271 12.20339 5.8576271v1.7140678zm0 20.338983h24.40678v-16.2711864h-24.40678zm24.40678 5.7818646-12.20339 5.857627-12.20339-5.857627v-1.714068h24.40678zm-11.028814 6.421525 11.028814-5.293729v10.587458zm-13.377966 5.293729v-10.587458l11.028305 5.293729zm-25.423729-17.4971186v-1.7140678l12.20339-5.8576271 12.20339 5.8576271v1.7140678zm-1.016949 5.7645766-12.239491 5.874915-12.167289-5.840339v-1.731356h24.40678zm-11.064915 6.438813 11.064915-5.311017v10.622034zm-13.341865 5.276441v-10.552881l10.992712 5.27644zm0-54.0900001h24.40678v16.2711865h-2.033898v4.0677966h2.033898v16.2711864h-24.40678zm0-5.7991525 12.167289-5.840339 12.239491 5.8749153v1.6967796h-24.40678zm0-11.680678 10.992712 5.2764407-10.992712 5.2764407zm24.40678-2.8591525v1.6967796l-12.239491 5.8749153-12.167289-5.840339v-1.7313559zm0 13.4466102-11.064915-5.311017 11.064915-5.3110169zm1.016949 30.0732203 11.028305 5.2937288-11.028305 5.2937288zm24.40678 10.5874576-11.028814-5.2937288 11.028814-5.2937288zm0-13.429322v1.7140678l-12.20339 5.8576271-12.20339-5.8576271v-1.7140678zm1.016949-17.4971187 11.028305 5.2937289-11.028305 5.2937288zm27.457627-2.8418644v-4.0677966h-30.508474v4.0677966h2.033898v16.2711865h-24.40678v-16.2711865h2.033899v-4.0677966h-2.033899v-16.2711864h2.033899v-4.0677966h-30.508475v4.0677966h2.033898v1.869661c-.040169.1159322-.041695.2364407 0 .3447458v11.8418644c-.041695.1088135-.040169.229322 0 .3452542v1.869661h-2.033898v4.0677966h2.033898v36.6101695h-2.033898v4.0677966h2.033898v1.869661c-.040169.115932-.041695.236441 0 .344746v11.841864c-.041695.108814-.040169.229322 0 .345254v.852712c0 .280678.227797.508475.508475.508475s.508474-.227797.508474-.508475v-.714406l12.167289-5.840339 12.239491 5.874915v.67983c0 .280678.227797.508475.508475.508475s.508474-.227797.508474-.508475v-15.254237h24.40678v16.271186c0 .280678.227796.508475.508474.508475s.508475-.227797.508475-.508475v-1.714067l12.20339-5.857627 12.20339 5.857627v1.714067c0 .280678.227796.508475.508474.508475s.508475-.227797.508475-.508475v-16.271186h2.033898v-4.0677966h-2.033898v-16.2711864h2.033898v-4.0677966h-2.033898v-16.2711865z"/><path d="m193.037237 38.9323729c-.280678 0-.508474-.2277966-.508474-.5084746v-4.8833898c0-.280678.227796-.5084746.508474-.5084746s.508475.2277966.508475.5084746v4.8833898c0 .280678-.227797.5084746-.508475.5084746m-2.170474 0c-.280678 0-.508475-.2277966-.508475-.5084746v-4.8833898c0-.280678.227797-.5084746.508475-.5084746s.508474.2277966.508474.5084746v4.8833898c0 .280678-.227796.5084746-.508474.5084746"/><path d="m194.312644 27.2320169v-1.3047457c0-1.3042373-1.057119-2.3608475-2.360847-2.3608475-1.303729 0-2.360848 1.0566102-2.360848 2.3608475v1.3047457c0 .6940678-.161695 1.3789831-.471864 2.000339-.310678.6208475-.472373 1.3052543-.472373 1.9998305 0 1.7638983 1.42983 3.1932204 3.193729 3.1932204h.22322c1.76339 0 3.19322-1.4293221 3.19322-3.1932204 0-.6940678-.161186-1.378983-.471864-1.9998305l-.000509-.0005084c-.310169-.621356-.471864-1.3057628-.471864-1.9998306m-32.771034 87.7731861c-25.105424 11.528644-54.802881.523221-66.3320337-24.582203-11.5286441-25.1049153-.5227119-54.8028814 24.5822037-66.3315254 25.105423-11.5291526 54.803389-.5232204 66.332034 24.5816949 11.529152 25.1054237.52322 54.8033895-24.582204 66.3320335"/></g><path d="m154.232288 99.0880678c-16.314407 7.4918642-35.613559.339661-43.105424-15.9747458-7.491864-16.3138983-.339661-35.6130508 15.974746-43.1049152s35.613051-.339661 43.105424 15.9747457c7.491356 16.3144068.339661 35.6130509-15.974746 43.1049153" fill="#7687b2"/><path d="m152.145254 94.5435763c-13.804576 6.3391527-30.134746.2872881-36.473898-13.5167797-6.339153-13.8045763-.287288-30.1347458 13.517288-36.4738983 13.804068-6.3391525 30.134237-.2872881 36.47339 13.5172881 6.339661 13.8040678.287797 30.1342373-13.51678 36.4733899" fill="#353940"/><path d="m152.145254 94.5435763c-13.804576 6.3391527-30.134746.2872881-36.473898-13.5167797-6.339153-13.8045763-.287288-30.1347458 13.517288-36.4738983 13.804068-6.3391525 30.134237-.2872881 36.47339 13.5172881 6.339661 13.8040678.287797 30.1342373-13.51678 36.4733899" fill="#ebeff7"/><path d="m150.319169 90.5668983c-11.608474 5.3308475-25.340338.2420339-30.671186-11.3664407-5.330847-11.6084745-.242034-25.340339 11.366441-30.6711864 11.608474-5.3308475 25.340339-.2415254 30.671186 11.3669491 5.330848 11.6079661.242034 25.3398305-11.366441 30.670678" fill="#dae2ed"/><path d="m150.655068 55.8597458 7.309322 12.6610169c.446949.7733898.446949 1.7267797 0 2.500678l-7.309322 12.6610169c-.446949.7738983-1.272204 1.250339-2.166102 1.250339h-14.619661c-.89339 0-1.719152-.4764407-2.165593-1.250339l-7.309831-12.6610169c-.446949-.7738983-.446949-1.7272882 0-2.500678l7.309831-12.6610169c.446441-.7733899 1.272203-1.250339 2.165593-1.250339h14.619661c.893898 0 1.719153.4769491 2.166102 1.250339" fill="#c5cedd"/><path d="m144.011898 76.8325932c-4.023051 1.8472882-8.781864.0838983-10.629152-3.9391525-1.847797-4.0230509-.083899-8.7823729 3.939152-10.629661 4.022543-1.8472882 8.781865-.0833899 10.629153 3.9391525 1.847288 4.0230509.083898 8.7823729-3.939153 10.629661" fill="#ebeff7"/><path d="m80.3475763 65.3229153c-6.140339 0-11.1183051 4.9779661-11.1183051 11.118305v9.4759322h22.2366102v-9.4759322c0-6.1403389-4.9779661-11.118305-11.1183051-11.118305" fill="#ff6f57"/><path d="m64.379 86.604h31.644v-8.797h-31.644z" fill="#b7c2ce"/><path d="m64.379 86.604h21.723v-8.797h-21.723z" fill="#dae2ed"/><path d="m56.04 82.692-5.06 21.709v15.181h56.019v-36.89z" fill="#c5cedd"/><path d="m35.8 119.582h47.339v-15.181h-47.339z" fill="#dae2ed"/><path d="m91.747 82.692h-42.406l-8.481 21.709h42.405z" fill="#ebeff7"/><path d="m45.869 100.98 5.808-14.867h35.061l-5.809 14.867z" fill="#80a7ff"/><path d="m99.9518644 95.3519492c-3.290339 0-5.9577966 2.6674576-5.9577966 5.9577968 0 3.28983 2.6674576 5.957796 5.9577966 5.957796h3.8176276v-11.9155928z" fill="#b7c2ce"/><path d="m106.135983 106.723627c-2.990339 1.37339-6.5272881.062542-7.9006779-2.927796-1.3728814-2.990339-.0620339-6.5272886 2.9277969-7.90017 2.990339-1.3733898 6.527796-.0625424 7.900678 2.9277966 1.372881 2.9898304.062034 6.5272884-2.927797 7.9001694" fill="#ebeff7"/><path d="m105.076831 104.417593c-1.716102.788136-3.74695.035593-4.535085-1.681017-.7886443-1.716101-.036102-3.7469489 1.680508-4.5350845s3.746949-.0355932 4.535593 1.681017c.788136 1.7166105.035594 3.7469495-1.681016 4.5350845" fill="#ff903e"/><path d="m63.8757458 104.780085c-.2166102 0-.4169492-.139322-.4850848-.356949l-1.5254237-4.8833902c-.0838983-.2679661.0655932-.5537289.3335593-.6371187.2684746-.0823729.5537288.0655932.6371187.3335593l1.5254237 4.8833896c.0838983.268475-.0655932.553729-.3335593.637119-.0508475.015763-.101695.02339-.1520339.02339m-6.2377119 0c-.050339 0-.1011864-.007627-.1520339-.02339-.2679661-.08339-.4174576-.368644-.3335593-.637119l1.5254237-4.8833896c.0833898-.2679661.3686441-.4169491.6371187-.3335593.2679661.0833898.4174576.3691526.3335593.6371187l-1.5254238 4.8833902c-.0681355.217627-.2684745.356949-.4850847.356949" fill="#000"/><path d="m63.1175085 94.6048983v-1.3047458c0-1.3042372-1.0571187-2.3608474-2.3608475-2.3608474s-2.3608474 1.0566102-2.3608474 2.3608474v1.3047458c0 .6940678-.161695 1.3789831-.4718644 2.000339-.310678.6208474-.4723729 1.3052542-.4723729 1.9998305 0 1.7638982 1.4298305 3.1932202 3.1937288 3.1932202h.2232203c1.7633899 0 3.1932204-1.429322 3.1932204-3.1932202 0-.6940678-.1611865-1.3789831-.4718644-1.9998305l-.0005085-.0005085c-.3101695-.6213559-.4718644-1.3057627-.4718644-1.9998305" fill="#000"/><path d="m33.7637797 49.4092373-15.8272882 12.8837288c0 13.070339 16.3332204 14.191017 19.9271187 5.0059322 1.1542373-2.9501695 4.4969491-10.5722034 7.7644067-17.930339-3.9518644.0686441-7.9098305.06-11.8642372.040678" fill="#b7c2ce"/><path d="m19.5208983 48.2398475c-2.0623729 4.0810169-3.0701695 8.4005084-3.0701695 12.3844067 0 13.0708475 15.3157627 14.191017 18.9101695 5.0059322 2.5027119-6.3961017 6.9523729-16.4074576 6.9523729-16.4074576z" fill="#c5cedd"/><path d="m24.1330678 78.9218644c-.541017 0-.980339-.4388136-.980339-.980339s.439322-.980339.980339-.980339c.5415254 0 .980339.4388136.980339.980339s-.4388136.980339-.980339.980339zm0 5.2281356c-.541017 0-.980339-.4388136-.980339-.980339 0-.5410169.439322-.980339.980339-.980339.5415254 0 .980339.4393221.980339.980339 0 .5415254-.4388136.980339-.980339.980339zm-4.0225424-21.0488136v22.9505085l4.0225424 2.8255932 4.0230508-2.8255932v-22.9505085z" fill="#ff7f14"/><path d="m18.965 63.796h10.337v-2.091h-10.337z" fill="#b7c2ce"/><path d="m29.6046102 33.5075085c-.12 0-.241017-.0422034-.3376271-.1286441-.21-.1866102-.2288136-.5079661-.0422034-.7179661l8.1945762-9.2110169c.1927119-.2171187.5669492-.2171187.759661 0l8.1945763 9.2110169c.1866102.21.1677966.5313559-.0422034.7179661s-.5308474.1677966-.7179661-.0416949l-7.8142373-8.7844068-7.8142372 8.7844068c-.100678.1128813-.24.170339-.380339.170339" fill="#000"/><path d="m37.7990847 24.296339c-.2806779 0-.5084745-.2277966-.5084745-.5084746v-22.77101694c0-.28067797.2277966-.50847458.5084745-.50847458.280678 0 .5084746.22779661.5084746.50847458v22.77101694c0 .280678-.2277966.5084746-.5084746.5084746" fill="#000"/><path d="m9.93711864 79.9388136c-.54152542 0-.98033898-.4388136-.98033898-.980339s.43881356-.980339.98033898-.980339c.54152546 0 .98033896.4388136.98033896.980339s-.4388135.980339-.98033896.980339zm0 5.2281356c-.54152542 0-.98033898-.4388136-.98033898-.980339 0-.541017.43881356-.980339.98033898-.980339.54152546 0 .98033896.439322.98033896.980339 0 .5415254-.4388135.980339-.98033896.980339zm0-23.8744068-4.02254237 2.8255932v22.9505085l4.02254237 2.8255932 4.02305086-2.8255932v-22.9505085z" fill="#ff7f14"/><path d="m39.5047119 33.0457119s-12.7922034 28.3652542-15.2954238 34.7613559c-3.5938983 9.1850847-18.91016946 8.0649153-18.91016946-5.0054237z" fill="#d0d9ea"/><path d="m69.2604407 44.1693051s-8.8988136-12.7922034-32.2586441-12.7922034-34.20508474 16.6855932-34.20508474 29.7559322 15.31576274 14.1910169 18.91016954 5.0054237c2.5027118-6.3961017 6.9523728-16.4074576 6.9523728-16.4074576z" fill="#ebeff7"/><path d="m59.5271695 42.7789831s-4.7272881-9.7332204-21.4128814-11.9577967l-11.1238983.5562712s17.7981356-.8344068 26.4188136 11.679661z" fill="#ff903e"/><path d="m18.0415424 60.4193898c-.5349153 4.3444068-3.9345763 7.5005085-7.5930509 7.05-3.65847455-.4505084-6.19016947-4.3377966-5.65525421-8.6816949.53542373-4.3444068 3.93457627-7.5010169 7.59305081-7.0505085 3.6584746.451017 6.1901695 4.3377967 5.6552543 8.6822034" fill="#7687b2"/><path d="m15.2897288 60.1830508c-.380339 3.0869492-2.7955932 5.3293221-5.39491524 5.0094916-2.59932203-.320339-4.39830509-3.0818644-4.0179661-6.1688136.37983051-3.0869491 2.79508474-5.329322 5.39491524-5.0094915 2.599322.320339 4.3983051 3.0823729 4.0179661 6.1688135" fill="#fff"/><path d="m13.7903898 60.018661c-.2725423 2.210339-2.0023729 3.8166102-3.86389827 3.5872882-1.86152543-.2293221-3.14949153-2.2072882-2.87745763-4.4176272.27254237-2.2103389 2.00186441-3.8166101 3.8638983-3.5872881 1.8615254.229322 3.1494915 2.2067797 2.8774576 4.4176271" fill="#ff903e"/><path d="m25.9755254 37.8526271c.3823729.7530509.0259322 1.7018644-.7957627 2.1188136-.8216949.4169491-1.7979661.1444068-2.180339-.6086441-.3818644-.7535593-.0254237-1.7018644.7962712-2.119322.8216949-.4169492 1.7979661-.1438983 2.1798305.6091525" fill="#fff"/><path d="m40.8499322 24.296339c0-1.6850848-1.3662712-3.0508475-3.0508475-3.0508475-1.6850847 0-3.0508474 1.3657627-3.0508474 3.0508475 0 1.6845763 1.3657627 3.0508474 3.0508474 3.0508474 1.6845763 0 3.0508475-1.3662711 3.0508475-3.0508474" fill="#b7c2ce"/><path d="m39.3245085 24.296339c0-.8425424-.6828814-1.5254237-1.5254238-1.5254237-.8425423 0-1.5254237.6828813-1.5254237 1.5254237s.6828814 1.5254237 1.5254237 1.5254237c.8425424 0 1.5254238-.6828813 1.5254238-1.5254237" fill="#ebeff7"/><path d="m202.868 119.565.019-30.233-11.544-.009-.019 30.232z" fill="#b7c2ce"/><path d="m205.828068 112.108017 4.118135-39.1708475c.078305-.7454237-.21-1.4837288-.780508-1.9698305-1.492881-1.2716949-5.053729-3.4164407-12.093051-3.4215254-7.040339-.0050848-10.604746 2.1350847-12.099152 3.4047457-.570509.4845763-.859831 1.2218644-.783051 1.9672882l4.036779 39.1764405c.079831.776441.733729 1.366271 1.513729 1.36678l14.571865.010678c.779491.000508 1.433898-.588305 1.515254-1.363729" fill="#c5cedd"/><path d="m193.169085 104.42578c1.004746.000508 1.819322-.813051 1.820339-1.817797.000508-1.004237-.81356-1.819322-1.817797-1.81983-1.004746-.001017-1.81983.812542-1.820339 1.817288-.000508 1.004745.813051 1.81983 1.817797 1.820339m.265881-8.8831529c1.004746.0005085 1.819831-.8130508 1.820339-1.8177966.000509-1.0042373-.813051-1.819322-1.817797-1.820339-1.004745-.0005084-1.819322.8130509-1.820339 1.8177966-.000508 1.0047458.813051 1.8198305 1.817797 1.820339" fill="#b7c2ce"/><path d="m214.055 119.565.019-30.233-11.545-.009-.019 30.232z" fill="#d0d9ea"/><path d="m217.014508 112.108017 4.118136-39.1708475c.078305-.7454237-.21-1.4837288-.780508-1.9698305-1.492882-1.2716949-5.053729-3.4164407-12.093051-3.4215254-7.040339-.0050848-10.604746 2.1350847-12.099153 3.4047457-.570508.4845763-.85983 1.2218644-.783051 1.9672882l4.03678 39.1764405c.079831.776441.733729 1.366271 1.513729 1.36678l14.571864.010678c.779492.000508 1.433899-.588305 1.515254-1.363729" fill="#ebeff7"/><path d="m204.355525 104.42578c1.004746.000508 1.819322-.813051 1.820339-1.817797.000509-1.004237-.813559-1.819322-1.817796-1.81983-1.004746-.001017-1.819831.812542-1.820339 1.817288-.000509 1.004745.813051 1.81983 1.817796 1.820339m.265882-8.8831529c1.004746.0005085 1.81983-.8130508 1.820339-1.8177966.000508-1.0042373-.813051-1.819322-1.817797-1.820339-1.004746-.0005084-1.819322.8130509-1.820339 1.8177966-.000508 1.0047458.813051 1.8198305 1.817797 1.820339" fill="#b7c2ce"/><path d="m222.066458 24.0421017h-.254238c-.842542 0-1.525423-.6828814-1.525423-1.5254237v-.2542373c0-.421017-.341695-.7627119-.762712-.7627119s-.762712.3416949-.762712.7627119v.2542373c0 .8425423-.682881 1.5254237-1.525424 1.5254237h-.254237c-.421017 0-.762712.3416949-.762712.7627119 0 .4210169.341695.7627118.762712.7627118h.254237c.842543 0 1.525424.6828814 1.525424 1.5254238v.2542372c0 .421017.341695.7627119.762712.7627119s.762712-.3416949.762712-.7627119v-.2542372c0-.8425424.682881-1.5254238 1.525423-1.5254238h.254238c.421017 0 .762711-.3416949.762711-.7627118 0-.421017-.341694-.7627119-.762711-.7627119m-140.9050682-1.9775085c-.1952542 0-.3905084-.0742373-.5394915-.2232203l-.718983-.7194915c-.2979661-.2974577-.2979661-.7805085 0-1.0784746s.7810169-.2979661 1.0784745 0l.7194916.718983c.2974576.2979661.2974576.781017 0 1.0789831-.1489831.148983-.3442373.2232203-.5394916.2232203m4.6741017 4.6741017c-.1952542 0-.3905084-.0742373-.5394915-.2232203l-.7189831-.7194915c-.2979661-.2974577-.2979661-.7805085 0-1.0784746.2979662-.2979661.781017-.2979661 1.0784746 0l.7194916.718983c.2974576.2979661.2974576.781017 0 1.0789831-.1489831.148983-.3442373.2232203-.5394916.2232203m-.718983-4.6741017c-.1952543 0-.3905085-.0742373-.5394916-.2232203-.2974576-.2979661-.2974576-.781017 0-1.0789831l.7194916-.718983c.2974576-.2979661.7805084-.2979661 1.0784746 0 .2979661.2979661.2979661.7810169 0 1.0784746l-.7189831.7194915c-.1489831.148983-.3442373.2232203-.5394915.2232203m-4.6741017 4.6741017c-.1952543 0-.3905085-.0742373-.5394915-.2232203-.2974577-.2979661-.2974577-.781017 0-1.0789831l.7194915-.718983c.2974576-.2979661.7805085-.2979661 1.0784746 0s.2979661.7810169 0 1.0784746l-.7189831.7194915c-.148983.148983-.3442373.2232203-.5394915.2232203m15.7413559 14.9535763h6.5445763l-3.2720339-5.8169492zm7.8488133 1.5254237h-9.1525421c-.2715254 0-.5216949-.1438983-.6584746-.3777966-.1367796-.2338983-.139322-.5227119-.0066101-.7586441l4.5762711-8.1355932c.1352543-.2405085.3894916-.388983.6650848-.388983s.5298305.1484745.6645759.388983l4.576272 8.1355932c.132711.2359322.130169.5247458-.006611.7586441-.136779.2338983-.386949.3777966-.657966.3777966zm136.841746-6.003661c-.701186 0-1.271186.57-1.271186 1.2711864 0 .7011865.57 1.2711865 1.271186 1.2711865s1.271186-.57 1.271186-1.2711865c0-.7011864-.57-1.2711864-1.271186-1.2711864m0 4.0677966c-1.541695 0-2.79661-1.2549152-2.79661-2.7966102 0-1.5416949 1.254915-2.7966101 2.79661-2.7966101s2.79661 1.2549152 2.79661 2.7966101c0 1.541695-1.254915 2.7966102-2.79661 2.7966102m-238.07771183 62.3941525c-.70118644 0-1.27118644.57-1.27118644 1.271186 0 .701187.57 1.271187 1.27118644 1.271187s1.27118644-.57 1.27118644-1.271187c0-.701186-.57-1.271186-1.27118644-1.271186m0 4.067797c-1.54169492 0-2.79661017-1.254916-2.79661017-2.796611 0-1.541694 1.25491525-2.79661 2.79661017-2.79661 1.54169491 0 2.79661017 1.254916 2.79661017 2.79661 0 1.541695-1.25491526 2.796611-2.79661017 2.796611" fill="#ebeff7"/><path d="m28.6592034 49.7312542h55.6179661s-8.620678-7.508644-27.5308475-7.2305084-28.0871186 7.2305084-28.0871186 7.2305084" fill="#000"/><path d="m175.795271 109.527915v-15.7672879c0-1.3398305 1.086102-2.4254237 2.425932-2.4254237h8.49c1.339322 0 2.425424 1.0855932 2.425424 2.4254237v15.7672879c0 1.339831-1.086102 4.459831-2.425424 4.459831h-8.49c-1.33983 0-2.425932-3.12-2.425932-4.459831" fill="#ff6f57"/><path d="m171.55022 117.297305v-14.437119c0-3.3635589 2.726949-6.090508 6.091017-6.090508h9.649831c3.363559 0 6.091017 2.7269491 6.091017 6.090508v14.437119c0 1.261526-1.023051 2.284068-2.284577 2.284068h-17.26322c-1.261525 0-2.284068-1.022542-2.284068-2.284068" fill="#d0d9ea"/></g></svg>