<svg fill="none" height="240" viewBox="0 0 660 240" width="660" xmlns="http://www.w3.org/2000/svg"><path d="m660 0h-660v240h660z" fill="#a1c2ff"/><path d="m634.2 197.85c-16.2-2.15-19.88 12.15-19.88 12.15-2.06-21-19.59-18-19.59-18-14.14-31-55.39-26-55.39-26-32 5-34 24-34 24-17.53-25-43.31-6-43.31-6-7.22-41-43.34-67.72-53.62-71-103.41-33-134.56 22-134.56 22-17-17-24.29 7.83-24.29 7.83-22.7-31.18-37.12 0-37.12 0-26.83-18.18-29.56 7-29.56 7-31.65-9.23-35.95 22-35.95 22s-8.72-45.83-49.93-37.83-32 62-32 62c-12.37-6-14.44 6-14.44 6-4.12-23-21.32-14.29-21.32-14.29-10.66-36.71-29.24-32.01-29.24-32.01v84.3h660v-84.3c-24.45 4.7-25.8 42.15-25.8 42.15z" fill="#d0e3ff"/><path d="m117.06 42.78-3.47 1.54c-.019 0-.036.0074-.049.0205-.014.0131-.021.0309-.021.0495 0 .0185.007.0364.021.0495.013.0131.03.0205.049.0205l3.47 1.54 1.54 3.47c.007.0125.017.0229.029.0302.013.0072.027.011.041.011s.028-.0038.041-.011c.012-.0073.022-.0177.029-.0302l1.55-3.47 3.47-1.55c.013-.0069.023-.0171.03-.0294s.011-.0263.011-.0406-.004-.0283-.011-.0406c-.007-.0124-.017-.0225-.03-.0294l-3.47-1.54-1.55-3.47c0-.0186-.007-.0364-.02-.0495-.014-.0131-.031-.0205-.05-.0205s-.036.0074-.049.0205c-.014.0131-.021.0309-.021.0495l-1.54 3.47z" fill="#ffb5bb"/><path d="m510 117.43v.09l2 3.42h.06l2-3.42s0-.07 0-.09l-2.06-3.43s0 0-.06 0z" fill="#ffb5bb"/><path d="m140.69 89.22 21.24 5.54 15.43-15.62-5.82-21.17-21.24-5.54-15.42 15.62z" fill="#83f9d4"/><path d="m177.36 79.14-5.82-21.17-18.98 2.57-5.93 22.7 15.3 11.52z" fill="#57e6ca"/><path d="m161.93 94.76 6.51-17.98 3.1-18.81 5.82 21.17z" fill="#6defcf"/><path d="m152.56 60.54 15.88 16.24-21.81 6.46z" fill="#42ddc5"/><path d="m177.36 79.14-8.92-2.36-6.51 17.98z" fill="#83f9d4"/><path d="m152.56 60.54-17.68 7.51 11.75 15.19z" fill="#00c0b5"/><path d="m140.69 89.22 5.94-5.98-11.75-15.19z" fill="#03a79f"/><path d="m150.3 52.43 2.26 8.11-17.68 7.51z" fill="#42ddc5"/><path d="m161.93 94.76 6.51-17.98-21.81 6.46z" fill="#57e6ca"/><path d="m140.69 89.22 21.24 5.54-15.3-11.52z" fill="#6defcf"/><path d="m441.25 165.66c-28.8-21-26.18-72.08-25.46-81.24l38.74-16.28 33 26.09c-1.53 8.94-11.59 59.12-46.28 71.43z" fill="#ffdcb0"/><path d="m454.15 70.9999 30.71 24.29c-2.12 11.4201-12.24 55.6401-43.21 67.6701-25.43-19.74-24.29-65.0801-23.53-76.8201l36-15.14zm.74-5.63-41.4 17.36s-6.9 62.1001 27.36 85.6501c40.87-13.3 49.31-75.1801 49.31-75.1801l-35.24-27.88z" fill="#ffb54b"/><path d="m438.67 105.64 8.3 1.13 1.14-8.3 4.49.61-1.14 8.3 8.31 1.14-.62 4.49-8.3-1.13-1.13 8.3-4.49-.61 1.13-8.31-8.3-1.13z" fill="#fffebd"/><path d="m454.92 65.3199-14.07 103.0601c-34.26-23.55-27.36-85.6501-27.36-85.6501z" fill="#f59a4f" opacity=".2"/><path d="m239.34 102.26 15.84-42.53-28.92-34.98-44.75 7.55-15.83 42.53 28.91 34.98z" fill="#ffa742"/><path d="m226.26 24.75-44.75 7.55 1.32 39.58 45.46 16.92 26.89-29.07z" fill="#ffb54b"/><path d="m255.18 59.73-35.64-17.14-38.03-10.29 44.75-7.55z" fill="#ffcf5e"/><path d="m182.83 71.88 36.71-29.29 8.75 46.21z" fill="#ff9a38"/><path d="m226.26 24.75-6.72 17.84 35.64 17.14z" fill="#fffebd"/><path d="m182.83 71.8799 11.76 37.9301 33.7-21.0101z" fill="#ff8d2f"/><path d="m239.34 102.26-11.05-13.46-33.7 21.01z" fill="#ec7f47"/><path d="m165.68 74.8299 17.15-2.95 11.76 37.9301z" fill="#ff9a38"/><path d="m255.18 59.73-35.64-17.14 8.75 46.21z" fill="#ffb54b"/><path d="m239.34 102.26 15.84-42.53-26.89 29.07z" fill="#f5db8c"/><path clip-rule="evenodd" d="m182.24 136.26-15.33 1.39-6.47 13.98 8.88 12.59 15.34-1.4 6.46-13.98z" fill="#afa1ff" fill-rule="evenodd"/><path clip-rule="evenodd" d="m191.12 148.84-15.55 1.42-8.66-12.61 15.33-1.39z" fill="#b699ff" fill-rule="evenodd" opacity=".35"/><path d="m191.12 148.84-15.55 1.42-6.25 13.96 15.34-1.4" fill="#ff93ce"/><path d="m171.9 152.601c.704-.064 1.192-1.03 1.089-2.158-.102-1.127-.756-1.989-1.46-1.925s-1.192 1.029-1.089 2.157c.102 1.128.756 1.99 1.46 1.926z" fill="#d0c7ff"/><path d="m164.614 154.085c.707-.063 1.198-1.033 1.096-2.165s-.758-1.998-1.465-1.935c-.707.064-1.197 1.033-1.095 2.165.102 1.133.757 1.999 1.464 1.935z" fill="#d0c7ff"/><g clip-rule="evenodd" fill-rule="evenodd"><path d="m179.08 145.7c.5.72.2 1.36-.68 1.44-.477.02-.951-.074-1.384-.274s-.812-.5-1.106-.876c-.49-.71-.19-1.36.68-1.44.477-.02.951.074 1.384.274s.812.5 1.106.876z" fill="#d0c7ff"/><path d="m185.75 145.1c.5.71.2 1.36-.68 1.44-.476.02-.951-.074-1.384-.274s-.812-.5-1.106-.876c-.121-.124-.201-.282-.229-.453-.029-.171-.004-.346.069-.503.074-.157.195-.287.345-.373.15-.087.322-.126.495-.111.477-.02.951.074 1.384.274s.812.5 1.106.876z" fill="#d0c7ff"/><path d="m175.39 140.52c.5.71.2 1.36-.68 1.44-.476.02-.951-.074-1.384-.274s-.812-.5-1.106-.876c-.49-.71-.19-1.36.68-1.44.477-.02.951.074 1.384.274s.812.5 1.106.876z" fill="#d0c7ff"/><path d="m182.06 139.91c.5.72.2 1.36-.68 1.44-.477.02-.951-.074-1.384-.274s-.812-.5-1.106-.876c-.121-.124-.201-.282-.229-.453-.029-.171-.005-.346.069-.503s.194-.287.344-.373c.151-.087.323-.126.496-.111.477-.02.951.074 1.384.274s.812.5 1.106.876z" fill="#d0c7ff"/><path d="m191.12 148.84-15.55 1.42-6.25 13.96 15.34-1.4z" fill="#9e8cfa"/><path d="m181.87 156.72c.46-1-.06-1.71-1.16-1.61-.589.088-1.149.315-1.632.663-.484.348-.877.806-1.148 1.337-.44 1 .08 1.7 1.16 1.6.587-.089 1.145-.316 1.629-.662.483-.346.877-.801 1.151-1.328z" fill="#d0c7ff"/></g><path d="m457.22 152.13 1.32 3c.006.01.015.019.025.025.011.006.023.009.035.009s.024-.003.034-.009c.011-.006.02-.015.026-.025l1.32-3 3-1.32c.016 0 .031-.006.042-.018.012-.011.018-.026.018-.042s-.006-.031-.018-.042c-.011-.012-.026-.018-.042-.018l-3-1.32-1.32-3c0-.016-.006-.031-.018-.042-.011-.012-.026-.018-.042-.018s-.031.006-.042.018c-.012.011-.018.026-.018.042l-1.32 3-3 1.32c-.01.006-.019.015-.025.025-.006.011-.009.023-.009.035s.003.024.009.034c.006.011.015.02.025.026z" fill="#fff"/><path d="m159 128.05-.58 1.51s0 .05 0 0l1.58-.56 1.51.58-.58-1.51.58-1.51-1.51.58-1.51-.58.51 1.44z" fill="#ffcf5e"/><path d="m461.46 36.9704-6.019 1.5689 31.709 121.6447 6.019-1.568z" fill="#bc6d83"/><path d="m457.42 42.75c4.96 0 8.98-4.0205 8.98-8.98s-4.02-8.98-8.98-8.98c-4.959 0-8.98 4.0205-8.98 8.98s4.021 8.98 8.98 8.98z" fill="#d0c7ff"/><path clip-rule="evenodd" d="m466.25 32.18c-.489-1.3594-1.355-2.5512-2.497-3.4359s-2.512-1.4256-3.951-1.5594c-1.438-.1338-2.885.1452-4.17.8041-1.286.6589-2.357 1.6706-3.088 2.9164-.731 1.2459-1.092 2.6743-1.041 4.1179.052 1.4437.514 2.8427 1.332 4.0333.818 1.1905 1.959 2.1232 3.288 2.6889 1.329.5656 2.792.7406 4.217.5047 2.021-.702 3.727-2.1012 4.81-3.9466s1.473-4.0164 1.1-6.1234z" fill="#c8befa" fill-rule="evenodd"/><path d="m452.04 34.38c1.143 0 2.07-.9268 2.07-2.07s-.927-2.07-2.07-2.07-2.07.9268-2.07 2.07.927 2.07 2.07 2.07z" fill="#ddd6ff"/><path d="m490.16 164.27c2.673 0 4.84-2.167 4.84-4.84s-2.167-4.84-4.84-4.84-4.84 2.167-4.84 4.84 2.167 4.84 4.84 4.84z" fill="#bc6d83"/><path d="m490.16 161.5c1.143 0 2.07-.927 2.07-2.07s-.927-2.07-2.07-2.07-2.07.927-2.07 2.07.927 2.07 2.07 2.07z" fill="#de6d8b"/><path d="m456.182 42.6361 6.629-1.7278c.274-.0716.566-.0312.811.1124s.422.3785.494.6531l2.948 11.312c.035.1334.043.2724.025.409-.019.1366-.065.2681-.135.387-.07.119-.162.223-.272.3062s-.235.1439-.369.1787l-6.648 1.7329c-.269.0702-.555.0305-.796-.1103-.24-.1409-.414-.3714-.484-.6409l-2.952-11.3217c-.071-.2746-.031-.5664.113-.8112.143-.2448.378-.4225.653-.4941z" fill="#afa1ff"/><path d="m456.182 42.6361 6.629-1.7278c.274-.0716.566-.0312.811.1124s.422.3785.494.6531l2.948 11.312c.035.1334.043.2724.025.409-.019.1366-.065.2681-.135.387-.07.119-.162.223-.272.3062s-.235.1439-.369.1787l-6.648 1.7329c-.269.0702-.555.0305-.796-.1103-.24-.1409-.414-.3714-.484-.6409l-2.952-11.3217c-.071-.2746-.031-.5664.113-.8112.143-.2448.378-.4225.653-.4941z" fill="#afa1ff"/><path d="m458.122 54.2567 8.709-2.2701.252.9676c.07.2695.031.5558-.11.7961-.141.2402-.372.4146-.641.4848l-6.648 1.7329c-.269.0702-.556.0306-.796-.1103s-.415-.3714-.485-.6409l-.252-.9677z" fill="#9785ff"/><path d="m465.937 48.659-8.69 2.2651.523 2.0031 8.689-2.2651z" fill="#9785ff"/><path d="m469.778 21.2428-.007-.0071c-.356-.3554-.932-.3554-1.287 0l-1.648 1.6476c-.355.3553-.355.9315 0 1.2869l.007.007c.355.3554.932.3554 1.287 0l1.648-1.6475c.355-.3554.355-.9316 0-1.2869z" fill="#83f9d4"/><path d="m464.719 26.2857-.007-.0071c-.356-.3554-.932-.3554-1.287 0l-1.648 1.6476c-.355.3553-.355.9315 0 1.2869l.007.0071c.356.3553.932.3554 1.287 0l1.648-1.6476c.355-.3554.355-.9315 0-1.2869z" fill="#83f9d4"/><path d="m469.766 29.2366.007-.007c.356-.3554.356-.9316 0-1.2869l-1.647-1.6476c-.356-.3554-.932-.3554-1.287 0l-.007.0071c-.356.3553-.356.9315 0 1.2869l1.647 1.6475c.356.3554.932.3554 1.287 0z" fill="#83f9d4"/><path d="m464.715 24.1696.007-.0071c.356-.3554.356-.9315 0-1.2869l-1.647-1.6476c-.356-.3554-.932-.3554-1.287 0l-.007.0071c-.356.3554-.356.9316 0 1.2869l1.647 1.6476c.356.3554.932.3554 1.287 0z" fill="#83f9d4"/></svg>