<svg fill="none" height="235" viewBox="0 0 279 235" width="279" xmlns="http://www.w3.org/2000/svg" xmlns:xlink="http://www.w3.org/1999/xlink"><clipPath id="a"><path d="m0 .996094h278.7v233.964h-278.7z"/></clipPath><g clip-path="url(#a)"><path d="m233.3 162.671h-5.2c-9.2-.1-16.6-7.499-16.6-16.697-.1-9.099-7.5-16.498-16.6-16.498h-35.4c-6.3 0-11.4 5.099-11.4 11.398s-5.1 11.399-11.4 11.399h-27.8c-15.9 0-28.7 12.798-28.7 28.695v2.1c0 11.098-9 20.097-20.1 20.097h-8c-13.8 0-26.8 6.799-34.7 18.097l-9.4 13.698h262.8c4.4 0 8-3.6 8-7.999v-18.897c-.1-25.096-20.4-45.393-45.5-45.393z" fill="#547df0" fill-opacity=".52"/><path d="m116.4 203.465h-29.9l9.2 9.198h30z" fill="#f47fff"/><path d="m125.6 212.663h-29.9v22.297h29.9z" fill="#b2c1d1"/><path d="m95.7 212.663h-18.5v22.297h18.5z" fill="#fff"/><path d="m255.1 205.064-7.8 29.896h15.7z" fill="#51bc9d"/><path d="m89.9 23.6924c-.1-8.1988-6.7-14.69777-14.8-14.69777h-15.4c-8.1 0-14.7 6.49897-14.8 14.59777 0 1.5997-1.4 2.8995-3 2.8995h-4.6c-6.9 0-12.6 5.5992-12.6 12.4981h85.4c0-5.4992-4.6-9.9985-10.1-9.9985h-4.6c-3.1.2-5.5-2.2996-5.5-5.2991z" fill="#fff" fill-opacity=".2"/><path d="m33.5 165.17c0-4.699-3.4-8.598-7.6-8.598h-7.9c-4.2 0-7.6 3.799-7.6 8.598.1.9-.6 1.7-1.5 1.7h-2.4c-3.6 0-6.5 3.3-6.5 7.299h43.9c0-3.199-2.3-5.899-5.2-5.899h-2.4c-1.6 0-2.9-1.4-2.8-3.1 0 .1 0 .1 0 0z" fill="#fff" fill-opacity=".2"/><path d="m54.7 188.967-12.1 45.993h24.1z" fill="#83ddc5"/><path d="m67.9 209.064-6.8 25.896h13.6z" fill="#7196ff"/><path d="m86.5 203.465-9.2 9.198h18.4z" fill="#ffc0ff"/><path d="m86.5 221.562c1.4 0 2.6 1.2 2.6 2.6v10.798h-5.2v-10.798c0-1.4 1.2-2.6 2.6-2.6z" fill="#7687b2"/><path d="m108.1 221.562h-6.9v6.899h6.9z" fill="#547df0"/><path d="m120.2 221.562h-6.9v6.899h6.9z" fill="#547df0"/><path d="m63.7 103.58h64c-.1-6.3988-5.3-11.598-11.8-11.598h-6.8c-1.1 0-2-.8999-2-1.9997-.1-7.7988-6.5-14.0978-14.3-14.0978h-.6c-7.8-.1-14.2 6.199-14.3 14.0978v4.1993c0 2.1997-1.9 3.9994-4.1 3.9994h-4.7c-2.9 0-5.4 2.4-5.4 5.399z" fill="#fff" fill-opacity=".2"/><path d="m278.7.996094v51.991906h-90c0-10.4983 8.4-18.997 18.9-19.097h28.9c2.8 0 5-2.2996 5-5.0992v-7.2989c0-11.2982 9.1-20.496806 20.3-20.496806h16z" fill="#fff" fill-opacity=".2"/><g clip-rule="evenodd" fill-rule="evenodd"><path d="m227.9 188.967h18.7c1.6 0 2.9-1.3 2.9-2.9v-10.098c0-1.6-1.3-2.9-2.9-2.9h-18.7c-1.6 0-2.9 1.3-2.9 2.9v10.098c0 1.6 1.3 2.9 2.9 2.9z" fill="#ff5c5c"/><path d="m147.2 229.76c28.6 13.198 62.5.6 75.7-28.095 13.2-28.596.6-62.491-28.1-75.689-28.6-13.197-62.5-.599-75.7 28.096-13.1 28.596-.5 62.49 28.1 75.688z" fill="#4f5d7f"/><path d="m162.4 114.878c4.6-6.299 11.9-9.998 19.7-9.998h30.4v52.992h-54.9v-28.596c.1-5.199 1.8-10.298 4.8-14.398z" fill="#aec7ff"/><path d="m209.3 104.88h11.8c6.4 0 11.5 5.099 11.5 11.498v24.896c0 6.399-5.2 11.498-11.5 11.498h-11.8z" fill="#7196ff"/><path d="m229.6 171.669h-73.9v-41.393h73.9z" fill="#000"/><path d="m201.6 194.766h34.6c4.8 0 8.6-3.899 8.6-8.599v-17.297l-43.2 10.099z" fill="#b7c2ce"/><path d="m155.4 211.363c18.8 8.599 41 .4 49.6-18.397s.4-40.994-18.4-49.592c-18.8-8.599-41-.4-49.6 18.397s-.4 40.994 18.4 49.592z" fill="#7687b2"/><path d="m126 216.363c8.8 0 30-23.497 41.7-38.794-.1-13.998-1.9-48.793-10-56.792-.6-.8-1.6-1.299-2.6-1.299-.4 0-.7.1-1 .2-16.8 4.699-30.7 16.597-38 32.494-9.2 19.997-6.2 43.594 7.9 63.191.4.7 1.2 1.1 2 1z" fill="#ff7f14"/><path d="m144 153.972c.4 0 .7-.2.8-.6l15.2-37.794c.5-1.3 1.8-2.1 3.2-2.1h22.4c.5 0 .9-.4.9-.899 0-.5-.4-.9-.9-.9h-22.4c-2.1 0-4.1 1.3-4.9 3.299l-15.2 37.794c-.2.5 0 1 .5 1.2z" fill="#e4e9f7"/><path d="m170.6 178.568s-33.8-54.991-40.6-49.292c-7.1 5.899-12.7 13.298-16.5 21.697-10.4 22.496-5.4 47.292 8.2 66.089 9.6 13.298 48.9-38.494 48.9-38.494z" fill="#ff903e"/><path d="m117 209.364c1.8.7 4.3.899 7.7-.4 13.5-5 34.9-31.395 40.8-38.994 4.9 3.899 8.1 7.199 8.1 8.498v1l-.6.8c-1.1 1.4-26.8 35.195-42.3 40.894-6.5 2.399-9.9-.5-11.3-2.5-4.2-5.599-4.2-9.998-2.4-9.298z" fill="#dae2ed"/><path d="m224.8 155.572h12.6v-34.594c0-2.4-1.9-4.3-4.3-4.3h-3.9c-2.4 0-4.3 1.9-4.3 4.3v34.594z" fill="#000"/><path d="m213.6 184.667 20.9-11.898-6.8-11.898-20.8 11.898z" fill="#c5cedd"/><path d="m278.7 128.776v27.796l-45.6 21.297c-1.6.8-3.5.1-4.4-1.4l-7-12.398c-.9-1.5-.5-3.5 1-4.499l4-2.7 44.7-30.395c.9-.6 2.1-.8 3.2-.4 1.4.7 2.9 1.599 4.1 2.699z" fill="#dae2ed"/><path d="m194.5 199.565 23.8-13.598c.8-.499 1.1-1.499.6-2.299l-8.5-14.898c-.5-.8-1.5-1.1-2.3-.6l-23.8 13.598zm62.4-59.19c-1.6.899-2.2 2.999-1.3 4.699.9 1.6 3 2.199 4.7 1.3zm-15.6 14.297c.9 1.7 3 2.2 4.7 1.3s2.2-2.999 1.3-4.699" fill="#d0d9ea"/><path d="m213.9 169.07 20.9-11.898-6.8-11.898-20.9 11.898z" fill="#d0d9ea"/><path d="m278.7 112.979v28.095l-45.4 21.197c-1.6.8-3.5.1-4.4-1.4l-2.2-3.999-4.8-8.399c-.9-1.6-.4-3.499 1-4.499l48.6-33.095c.9-.6 2.1-.8 3.2-.4 1.5.6 2.8 1.4 4 2.5z" fill="#ebeff7"/><path d="m194.7 183.868 23.8-13.598c.8-.5 1.1-1.5.6-2.3l-8.5-14.898c-.5-.8-1.5-1.099-2.3-.6l-23.8 13.498z" fill="#dae2ed"/><path d="m232.4 145.374c.6 1 1.9 1.399 2.9.8 1-.6 1.4-1.9.8-2.9s-1.9-1.4-2.9-.8c-1 .5-1.4 1.8-.8 2.9 0-.1 0-.1 0 0zm10.2-6.999c.6 1 1.9 1.4 2.9.8s1.4-1.9.8-2.9-1.9-1.4-2.9-.8c-1 .5-1.4 1.8-.8 2.9z" fill="#b7c2ce"/><path d="m157.8 206.164c15.9 7.299 34.7.3 42-15.597 7.3-15.898.3-34.695-15.6-41.994s-34.7-.3-42 15.598c-7.2 15.897-.3 34.694 15.6 41.993z" fill="#ebeff7"/><path d="m159.9 201.565c13.4 6.099 29.2.3 35.3-13.098s.3-29.195-13.1-35.294-29.2-.3-35.3 13.098c-6.1 13.298-.2 29.195 13.1 35.294z" fill="#dae2ed"/><path d="m181.4 110.279h18c1.8 0 3.5-.9 4.5-2.4 1.2-1.799 3.2-2.999 5.3-2.999h6.9v25.396h-11.2c-1.1-5.999-6.3-10.398-12.4-10.398h-10.8c-2.3 0-4.4-1.5-4.9-3.8-.6-2.599 1.1-5.199 3.7-5.699.3 0 .6-.1.9-.1z" fill="#7196ff"/><path d="m226 104.98h-47.3c-8.5 0-15.3-6.8989-15.3-15.2976v-28.4956c0-8.4987 6.9-15.2976 15.3-15.2976h47.3c8.5 0 15.3 6.8989 15.3 15.2976v28.3956c0 8.4987-6.9 15.3976-15.3 15.3976z" fill="#5b83f5"/><path d="m215.1 104.98h-47.3c-8.5 0-15.3-6.8989-15.4-15.2976v-28.4956c0-8.4987 6.9-15.2976 15.4-15.2976h47.3c8.5 0 15.3 6.8989 15.4 15.2976v28.3956c-.1 8.4987-6.9 15.3976-15.4 15.3976z" fill="#7196ff"/><path d="m235.8 86.083h-11.3v-27.5957h11.3c5.6 0 10.2 4.5993 10.2 10.1984v7.1989c0 5.5991-4.6 10.1984-10.2 10.1984z" fill="#9cb8ff"/><path d="m224.5 79.984v-15.2976c0-.5999.4-.9999 1-.9999h10.3c2.8 0 5.1 2.2997 5.1 5.0992v7.0989c0 2.7996-2.3 5.0992-5.1 5.0992h-10.2c-.6 0-1.1-.3999-1.1-.9998z" fill="#80a7ff"/><path d="m206.7 77.1845c-2.8 0-5-2.2997-4.9-4.9993 0-2.7995 2.3-4.9992 5-4.8992 2.7 0 4.9 2.2996 5 4.9992-.1 2.5996-2.3 4.8993-5.1 4.8993z" fill="#000"/><path d="m152 61.1865h34.8c3.4 0 6.1 2.6996 6.1 6.0991v7.1989c0 8.4986-6.9 15.2976-15.4 15.2976h-16.4c-8.5 0-15.3-6.8989-15.3-15.2976v-7.1989c.1-3.2995 2.8-5.9991 6.2-6.0991z" fill="#b5ccff"/><path d="m170.4 89.8822h-9.2c-8.5 0-15.3-6.8989-15.3-15.2976v-7.1989c0-3.3995 2.7-6.0991 6.1-6.0991h27.6c3.4 0 6.1 2.6996 6.1 6.0991v7.1989c0 8.3987-6.8 15.1976-15.3 15.2976z" fill="#b5ccff"/><path d="m166.3 78.2841h6.6c1.4-.1 2.6 1 2.7 2.4s-1 2.6-2.4 2.7c-.1 0-.2 0-.3 0h-6.6c-1.4.1-2.6-1-2.7-2.4s1-2.6 2.4-2.7zm-12 0h2.5c1.4-.1 2.6 1 2.7 2.4s-1 2.6-2.4 2.7c-.1 0-.2 0-.3 0h-2.5c-1.4.1-2.6-1-2.7-2.4s1-2.6 2.4-2.7z" fill="#7196ff"/><path d="m169.1 95.982h-4.1c-.9 0-1.7-.8-1.7-1.7s.8-1.7 1.7-1.7h4.1c.9 0 1.7.8 1.7 1.7s-.8 1.7-1.7 1.7z" fill="#5b83f5"/><path d="m239.6 100.481c.8 0 1.4-.6001 1.4-1.4s-.6-1.3998-1.4-1.3998-1.4.5999-1.4 1.3998.6 1.4 1.4 1.4zm0 7.599c.8 0 1.4-.6 1.4-1.4s-.6-1.4-1.4-1.4-1.4.6-1.4 1.4c0 .7.6 1.4 1.4 1.4zm0-34.495 5.8 4.0993v33.0947l-5.8 4.1-5.8-4.1v-33.0947z" fill="#ff7f14"/><path d="m199.1 29.1919s18.5 40.8937 22.1 50.1922c5.2 13.198 27.3 11.5982 27.3-7.1989z" fill="#d0d9ea"/><path d="m156.2 45.2891s12.8-18.4971 46.5-18.4971 49.4 24.0963 49.4 42.8933c0 18.7971-22.1 20.4969-27.3 7.2989-3.6-9.1986-10-23.6963-10-23.6963z" fill="#ebeff7"/><path d="m202.7 26.792c-2.8 0-5.4.1-8 .3999-19 4.5993-24.6 16.0975-24.6 16.0975l8.8.4c8.2-11.8982 22.2-15.4976 30.8-16.4975-2.3-.2999-4.7-.3999-7-.3999z" fill="#ff903e"/><path d="m214.8 53.2881h-80.3s12.4-10.7983 39.7-10.3984c27.3.4 40.6 10.3984 40.6 10.3984z" fill="#000"/><path d="m230.1 68.6855c.8 6.299 5.7 10.7983 11 10.1984s8.9-6.299 8.2-12.4981c-.7-6.199-5.7-10.7983-11-10.1984s-9 6.199-8.2 12.4981z" fill="#7687b2"/><path d="m234.1 68.3856c.5 4.3993 4 7.6988 7.8 7.1989s6.4-4.3993 5.8-8.8986-4-7.6988-7.8-7.1989-6.4 4.3993-5.8 8.8986z" fill="#fff"/><path d="m236.2 68.0855c.4 3.1995 2.9 5.4991 5.6 5.1992 2.7-.3 4.5-3.1995 4.2-6.3991-.3-3.1995-2.9-5.4991-5.6-5.1992-2.7.3-4.6 3.1996-4.2 6.3991z" fill="#ff903e"/><path d="m218.7 36.1907c-.7 1.1-.4 2.6.8 3.3s2.6.4 3.3-.8c.7-1.1.4-2.6-.8-3.3-.1 0-.1-.1-.2-.1-1.1-.7-2.5-.3-3.1.9 0-.1 0-.1 0 0z" fill="#fff"/><path d="m159.6 161.571-8.4 14.598c-.5.9-.5 2 0 2.899l8.4 14.598c.5.9 1.5 1.4 2.5 1.4h16.8c1 0 2-.6 2.5-1.4l8.4-14.598c.5-.899.5-1.999 0-2.899l-8.4-14.598c-.5-.9-1.5-1.4-2.5-1.4h-16.9c-1 0-1.9.5-2.4 1.4z" fill="#c5cedd"/><path d="m167.2 185.768c4.6 2.099 10.1.1 12.3-4.5 2.1-4.599.1-10.098-4.5-12.298-4.6-2.199-10.1-.1-12.3 4.499-2.1 4.7-.1 10.099 4.5 12.299z" fill="#ebeff7"/></g><path d="m197.7 221.962h1.6c4.2 0 8.1-1.7 11.1-4.6 2.9-2.899 6.9-4.599 11.1-4.599 5.8 0 10.6 4.699 10.6 10.599v.399c0 6.1-4.9 10.999-11 10.999h-36.2c0-7.099 5.7-12.798 12.8-12.798z" fill="#ebeff7"/><path d="m244 215.763c3.258 0 5.9-2.641 5.9-5.899s-2.642-5.899-5.9-5.899c-3.259 0-5.9 2.641-5.9 5.899s2.641 5.899 5.9 5.899z" fill="#ebeff7"/></g></svg>