<svg width="107" height="72" viewBox="0 0 107 72" fill="none" xmlns="http://www.w3.org/2000/svg">
<g clip-path="url(#clip0)">
<path d="M8.99358 62.4672C10.9928 62.4577 12.6084 60.8343 12.6084 58.835V31.5072C12.6084 29.2133 13.0622 26.9418 13.9439 24.8226C14.8255 22.7033 16.1178 20.7778 17.7468 19.1561C19.3758 17.5343 21.3097 16.248 23.438 15.3706C25.5663 14.4933 27.8473 14.0422 30.1507 14.0429H46.7619C49.5744 14.043 52.3469 14.7058 54.8529 15.9772C57.359 17.2485 59.5273 19.0924 61.1809 21.3581L68.5378 31.4439C70.1904 33.7106 72.3586 35.5552 74.8648 36.8267C77.3711 38.0982 80.1441 38.7604 82.9568 38.7591H90.1981C94.6542 38.7591 98.9279 40.522 102.079 43.66C105.23 46.798 107 51.0541 107 55.4919V72H-0.000198364V71.424C-0.000198364 69.0485 0.94735 66.7703 2.63401 65.0906C4.32067 63.4109 6.60828 62.4672 8.99358 62.4672Z" fill="#E3D9FF" fill-opacity="0.6"/>
<path d="M101.964 9.41061L102.849 11.2999C102.897 11.3964 102.914 11.5056 102.896 11.612C102.878 11.7183 102.827 11.8164 102.751 11.8923C102.674 11.9682 102.575 12.0181 102.468 12.0348C102.361 12.0515 102.251 12.0342 102.155 11.9853L100.258 11.081C100.189 11.047 100.112 11.0293 100.035 11.0293C99.9579 11.0293 99.8817 11.047 99.8125 11.081L97.9154 11.9853C97.8189 12.0342 97.7094 12.0515 97.6025 12.0348C97.4955 12.0181 97.3966 11.9682 97.3197 11.8923C97.2428 11.8164 97.192 11.7183 97.1743 11.612C97.1567 11.5056 97.1731 11.3964 97.2213 11.2999L98.1641 9.41061C98.1984 9.34064 98.2162 9.26382 98.2162 9.18597C98.2162 9.10813 98.1984 9.0313 98.1641 8.96133L97.2503 7.07781C97.2039 6.98108 97.1887 6.87239 97.2069 6.76674C97.2251 6.66108 97.2758 6.56364 97.3519 6.48783C97.428 6.41203 97.5259 6.36159 97.632 6.34346C97.7381 6.32534 97.8472 6.34041 97.9443 6.38661L99.8414 7.29669C99.9114 7.328 99.9873 7.34419 100.064 7.34419C100.141 7.34419 100.217 7.328 100.287 7.29669L102.184 6.38661C102.281 6.34041 102.39 6.32534 102.496 6.34346C102.602 6.36159 102.7 6.41203 102.776 6.48783C102.852 6.56364 102.903 6.66108 102.921 6.76674C102.939 6.87239 102.924 6.98108 102.878 7.07781L101.964 8.96133C101.93 9.0313 101.912 9.10813 101.912 9.18597C101.912 9.26382 101.93 9.34064 101.964 9.41061Z" fill="#FFCDF9"/>
<path d="M92.3383 56.9664C92.3383 56.5656 92.6633 56.2407 93.0642 56.2407C93.4651 56.2407 93.79 56.5656 93.79 56.9664V57.6864C93.79 58.0873 93.4651 58.4122 93.0642 58.4122C92.6633 58.4122 92.3383 58.0873 92.3383 57.6864V56.9664Z" fill="white"/>
<path d="M92.3383 62.7552C92.3383 62.3543 92.6633 62.0294 93.0642 62.0294C93.4651 62.0294 93.79 62.3543 93.79 62.7552V63.4752C93.79 63.876 93.4651 64.2009 93.0642 64.2009C92.6633 64.2009 92.3383 63.876 92.3383 63.4752V62.7552Z" fill="white"/>
<path d="M89.7991 60.9408C89.3966 60.9408 89.0703 60.6172 89.0703 60.2179C89.0703 59.8187 89.3966 59.4951 89.7991 59.4951H90.522C90.9245 59.4951 91.2508 59.8187 91.2508 60.2179C91.2508 60.6172 90.9245 60.9408 90.522 60.9408H89.7991Z" fill="white"/>
<path d="M95.6116 60.9408C95.2091 60.9408 94.8828 60.6172 94.8828 60.2179C94.8828 59.8187 95.2091 59.4951 95.6116 59.4951H96.3345C96.737 59.4951 97.0633 59.8187 97.0633 60.2179C97.0633 60.6172 96.737 60.9408 96.3345 60.9408H95.6116Z" fill="white"/>
<path d="M93.4511 41.203H93.5263L96.4991 40.9668C96.6172 40.9574 96.7323 40.9249 96.8378 40.8711C96.9433 40.8174 97.0371 40.7435 97.1139 40.6536C97.1907 40.5637 97.249 40.4597 97.2854 40.3474C97.3218 40.2351 97.3357 40.1168 97.3262 39.9992C97.3041 39.7623 97.1904 39.5433 97.009 39.3885C96.8276 39.2337 96.5929 39.1552 96.3545 39.1697L93.3817 39.4059C93.1411 39.425 92.918 39.5381 92.7609 39.7205C92.6038 39.9028 92.5254 40.1397 92.543 40.3793C92.5633 40.6049 92.6678 40.8147 92.836 40.9673C93.0041 41.1198 93.2236 41.2039 93.4511 41.203Z" fill="#F7E080"/>
<path d="M80.7265 28.2425C80.9376 28.2419 81.1419 28.1687 81.3049 28.0351L83.3292 26.3589C83.5133 26.2062 83.6289 25.9869 83.6506 25.7492C83.6723 25.5116 83.5983 25.2751 83.4449 25.0917C83.2915 24.9084 83.0713 24.7933 82.8326 24.7717C82.594 24.7501 82.3565 24.8238 82.1725 24.9765L80.1424 26.6527C79.9995 26.7709 79.8967 26.9301 79.8481 27.1086C79.7995 27.287 79.8073 27.4761 79.8706 27.65C79.9338 27.8239 80.0494 27.9741 80.2016 28.0801C80.3537 28.1862 80.535 28.2428 80.7207 28.2425H80.7265Z" fill="#60CFAC"/>
<path d="M62.7246 44.1908H37.9353L38.2534 42.9639H62.4123L62.7246 44.1908Z" fill="#567EF7"/>
<path d="M60.2212 49.3574H60.4121C65.444 49.0406 69.9553 48.0038 75.6003 43.9603C76.222 43.4834 76.6333 42.7844 76.7472 42.0112C76.8612 41.2379 76.6689 40.4507 76.2109 39.816C75.753 39.1813 75.0653 38.7486 74.293 38.6094C73.5208 38.4703 72.7244 38.6354 72.0722 39.0701C67.5608 42.2957 64.2409 43.1021 60.0361 43.3498C59.2647 43.4147 58.5477 43.7718 58.0327 44.3473C57.5177 44.9229 57.2438 45.6732 57.2675 46.4438C57.2913 47.2144 57.6107 47.9466 58.1602 48.4897C58.7097 49.0328 59.4473 49.3454 60.2212 49.3632V49.3574Z" fill="#567EF7"/>
<path d="M38.48 42.0825H62.1935L64.7962 52.3008C65.2415 54.0594 65.0785 55.9162 64.3335 57.5712C63.6945 58.9869 62.6588 60.1889 61.3507 61.0328C60.0426 61.8767 58.5178 62.3268 56.9592 62.3289H43.6854C42.1339 62.3249 40.6163 61.877 39.3131 61.0387C38.0098 60.2003 36.9759 59.0067 36.3342 57.6C35.5912 55.9443 35.4302 54.0875 35.8773 52.3296L38.48 42.0825Z" fill="#7196FF"/>
<path d="M39.2611 18.6566H58.3129C62.1269 18.6566 65.2188 21.7358 65.2188 25.5341V36.2419C65.2188 40.0402 62.1269 43.1193 58.3129 43.1193H39.2611C35.4471 43.1193 32.3553 40.0402 32.3553 36.2419V25.5341C32.3553 21.7358 35.4471 18.6566 39.2611 18.6566Z" fill="#567EF7"/>
<path d="M43.4828 18.6566H62.5346C66.3486 18.6566 69.4404 21.7358 69.4404 25.5341V36.2419C69.4404 40.0402 66.3486 43.1193 62.5346 43.1193H43.4828C39.6688 43.1193 36.577 40.0402 36.577 36.2419V25.5341C36.577 21.7358 39.6688 18.6566 43.4828 18.6566Z" fill="#7196FF"/>
<path d="M69.527 25.4764H55.5418C54.9558 25.4764 54.3939 25.7083 53.9795 26.1209C53.5652 26.5335 53.3324 27.0932 53.3324 27.6768V31.8643C53.3324 33.6165 54.0313 35.2969 55.2755 36.5359C56.5196 37.7749 58.207 38.471 59.9664 38.471H65.8427C67.4074 38.471 68.9079 37.852 70.0143 36.7502C71.1206 35.6484 71.7422 34.154 71.7422 32.5958V27.6768C71.7422 27.0932 71.5094 26.5335 71.0951 26.1209C70.6807 25.7083 70.1188 25.4764 69.5328 25.4764H69.527Z" fill="#AEC7FF"/>
<path d="M46.4783 31.9738C45.207 31.9738 44.1764 30.9474 44.1764 29.6813C44.1764 28.4152 45.207 27.3888 46.4783 27.3888C47.7497 27.3888 48.7803 28.4152 48.7803 29.6813C48.7803 30.9474 47.7497 31.9738 46.4783 31.9738Z" fill="#202225"/>
<path d="M66.5484 33.3101H68.4686C68.9989 33.3101 69.4287 33.7381 69.4287 34.2662C69.4287 34.7943 68.9989 35.2224 68.4686 35.2224H66.5484C66.0181 35.2224 65.5883 34.7943 65.5883 34.2662C65.5883 33.7381 66.0181 33.3101 66.5484 33.3101Z" fill="#7196FF"/>
<path d="M60.0593 33.3101H62.743C63.2733 33.3101 63.7031 33.7381 63.7031 34.2662C63.7031 34.7943 63.2733 35.2224 62.743 35.2224H60.0593C59.5291 35.2224 59.0992 34.7943 59.0992 34.2662C59.0992 33.7381 59.5291 33.3101 60.0593 33.3101Z" fill="#7196FF"/>
<path d="M38.1094 25.4764H31.967C31.1525 25.4764 30.3713 25.7987 29.7953 26.3723C29.2194 26.9459 28.8958 27.7238 28.8958 28.535V35.4124C28.8958 36.2236 29.2194 37.0016 29.7953 37.5752C30.3713 38.1488 31.1525 38.471 31.967 38.471H38.1094V25.4764Z" fill="#7196FF"/>
<path d="M36.166 27.7689H33.0948C32.6883 27.7689 32.2985 27.9297 32.011 28.216C31.7236 28.5022 31.5621 28.8905 31.5621 29.2953V34.6464C31.5621 35.0512 31.7236 35.4394 32.011 35.7257C32.2985 36.0119 32.6883 36.1728 33.0948 36.1728H36.166V27.7689Z" fill="#AEC7FF"/>
<path d="M40.851 50.112C41.5584 50.1113 42.2432 49.8638 42.7863 49.4123C43.3294 48.9609 43.6965 48.3342 43.8237 47.6412C43.9509 46.9482 43.8302 46.2327 43.4826 45.6191C43.135 45.0056 42.5824 44.5327 41.921 44.2829C37.9244 42.7737 35.3275 41.5469 28.0399 37.7107C27.3281 37.3326 26.4947 37.2516 25.723 37.4854C24.9512 37.7193 24.3044 38.2489 23.9247 38.9577C23.5451 39.6666 23.4637 40.4966 23.6986 41.2651C23.9334 42.0337 24.4652 42.6779 25.1769 43.056C32.7421 47.0361 35.4663 48.3206 39.7463 49.9334C40.1003 50.0603 40.4748 50.1209 40.851 50.112Z" fill="#7196FF"/>
<path d="M38.9883 46.345H23.0424C22.9289 46.345 22.82 46.3899 22.7397 46.4698C22.6595 46.5498 22.6144 46.6582 22.6144 46.7712V72H38.9883V46.345Z" fill="#E74FD5"/>
<path d="M28.0624 46.345H33.0596V72H28.0624V46.345Z" fill="#C136CE"/>
<path d="M39.2314 9.95331H22.7361C22.3986 9.95331 22.075 10.0868 21.8363 10.3245C21.5977 10.5621 21.4637 10.8844 21.4637 11.2205V17.3895C21.4637 17.7255 21.5977 18.0479 21.8363 18.2855C22.075 18.5232 22.3986 18.6567 22.7361 18.6567H39.2314V9.95331Z" fill="#E74FD5"/>
<path d="M79.3942 46.345H38.9887V72H79.8222V46.777C79.823 46.7205 79.8125 46.6645 79.7913 46.6121C79.7702 46.5597 79.7387 46.512 79.6989 46.4718C79.6591 46.4317 79.6117 46.3997 79.5594 46.378C79.5071 46.3562 79.4509 46.345 79.3942 46.345Z" fill="#FB71F8"/>
<path d="M56.7502 46.345H64.0898V72H56.7502V46.345Z" fill="#C136CE"/>
<path d="M38.7915 9.95331H79.7002C80.403 9.95331 80.9727 10.5207 80.9727 11.2205V17.3895C80.9727 18.0893 80.403 18.6567 79.7002 18.6567H38.7915C38.0888 18.6567 37.5191 18.0893 37.5191 17.3895V11.2205C37.5191 10.5207 38.0888 9.95331 38.7915 9.95331Z" fill="#FB71F8"/>
<path d="M57.7739 4.21631H60.5732V6.60671H57.7739V4.21631Z" fill="#801384"/>
<path d="M58.6123 4.21631C58.2325 4.21622 57.8566 4.29214 57.5069 4.43957C57.1571 4.58701 56.8407 4.80294 56.5764 5.07455L51.8279 9.95327H58.6123C59.3655 9.95327 60.0878 9.6553 60.6204 9.12492C61.1529 8.59454 61.4521 7.87518 61.4521 7.12511V7.04447C61.4521 6.29439 61.1529 5.57504 60.6204 5.04466C60.0878 4.51427 59.3655 4.21631 58.6123 4.21631Z" fill="#801384"/>
<path d="M41.8632 4.21631C42.2429 4.21622 42.6189 4.29214 42.9686 4.43957C43.3183 4.58701 43.6348 4.80294 43.8991 5.07455L48.6533 9.95327H41.8632C41.11 9.95327 40.3877 9.6553 39.8551 9.12492C39.3225 8.59454 39.0233 7.87518 39.0233 7.12511V7.04447C39.0233 6.29439 39.3225 5.57504 39.8551 5.04466C40.3877 4.51427 41.11 4.21631 41.8632 4.21631Z" fill="#801384"/>
<path d="M56.6582 5.53534L50.9033 5.53534V0.0114999L56.6582 0.0114999V5.53534Z" fill="#801384"/>
<path d="M53.0312 2.88C53.0298 3.62351 52.7396 4.33764 52.2215 4.87296L47.2706 9.94752V2.88C47.2706 2.11618 47.5753 1.38364 48.1176 0.843532C48.6599 0.303428 49.3955 0 50.1625 0V0C50.9255 0.00607879 51.6551 0.312188 52.1924 0.851635C52.7298 1.39108 53.0313 2.12015 53.0312 2.88Z" fill="#801384"/>
<path d="M50.4633 9.95329L53.7832 6.54913V9.95329H50.4633Z" fill="#801384"/>
<path d="M44.385 0.0115356H50.9033V5.53538H44.385V0.0115356Z" fill="#801384"/>
<path d="M41.5099 2.88C41.5129 3.62431 41.8051 4.33855 42.3254 4.87296L47.2705 9.94752V2.88C47.2705 2.11618 46.9658 1.38364 46.4235 0.843532C45.8812 0.303428 45.1456 0 44.3786 0V0C43.6156 0.00607879 42.886 0.312188 42.3487 0.851635C41.8113 1.39108 41.5098 2.12015 41.5099 2.88Z" fill="#801384"/>
<path d="M53.7832 9.94176L50.4633 6.5376V9.94176H53.7832Z" fill="#801384"/>
<path d="M58.7225 4.8672C59.2476 4.33787 59.5426 3.62409 59.5438 2.88C59.5438 2.11916 59.2415 1.38923 58.7029 0.849618C58.1643 0.310007 57.4332 0.00456503 56.6692 0C55.9023 0 55.1667 0.303428 54.6244 0.843533C54.1125 1.35332 53.8123 2.03455 53.7802 2.7517C53.7481 2.03455 53.448 1.35332 52.9361 0.843533C52.3937 0.303428 51.6582 0 50.8912 0C50.1282 0.00607879 49.3986 0.312188 48.8612 0.851635C48.3239 1.39108 48.0224 2.12015 48.0224 2.88C48.0255 3.62431 48.3177 4.33855 48.8379 4.87296L48.8616 4.89723C48.6391 4.70819 48.3884 4.55394 48.1181 4.44028C47.7675 4.2929 47.3908 4.21676 47.0103 4.21632C46.2571 4.21632 45.5348 4.51429 45.0022 5.04467C44.4696 5.57506 44.1704 6.29441 44.1704 7.04448V7.12512C44.1704 7.8752 44.4696 8.59455 45.0022 9.12494C45.5348 9.65532 46.2571 9.95329 47.0103 9.95329H60.5732C61.3264 9.95329 62.0487 9.65532 62.5813 9.12494C63.1139 8.59455 63.4131 7.8752 63.4131 7.12512V7.04448C63.4131 6.29441 63.1139 5.57506 62.5813 5.04467C62.0487 4.51429 61.3264 4.21632 60.5732 4.21632C60.1927 4.21676 59.8161 4.2929 59.4655 4.44028C58.9501 4.608 57.5423 5.77675 57.2765 6.048L53.7918 9.94437L53.7833 9.93566L58.7225 4.8672Z" fill="#C136CE"/>
<path d="M56.7502 21.7843L60.4171 18.6566L64.0898 21.7843V11.2781C64.0898 11.1036 64.0552 10.9309 63.988 10.7697C63.9208 10.6086 63.8223 10.4623 63.6982 10.3392C63.574 10.2161 63.4267 10.1187 63.2646 10.0524C63.1026 9.98621 62.929 9.9525 62.7538 9.95326H55.4142C55.5893 9.9525 55.763 9.98621 55.925 10.0524C56.0871 10.1187 56.2344 10.2161 56.3586 10.3392C56.4827 10.4623 56.5812 10.6086 56.6484 10.7697C56.7156 10.9309 56.7502 11.1036 56.7502 11.2781V21.7843Z" fill="#C136CE"/>
<path d="M26.5182 21.0355H31.5386V11.0938C31.5386 10.7882 31.6604 10.4952 31.8774 10.2792C32.0943 10.0631 32.3885 9.94177 32.6953 9.94177H27.6981C27.3913 9.94177 27.0971 10.0631 26.8802 10.2792C26.6632 10.4952 26.5414 10.7882 26.5414 11.0938L26.5182 21.0355Z" fill="#C136CE"/>
<path d="M17.4671 36.1497L23.0947 33.6902C25.6027 32.6004 27.7373 30.806 29.2371 28.5267C30.7369 26.2474 31.5368 23.582 31.5391 20.8569H26.5419C26.5412 22.6127 26.0273 24.3303 25.0629 25.8001C24.0985 27.27 22.7253 28.4284 21.1109 29.1341L15.4833 31.5878L17.4671 36.1497Z" fill="#C136CE"/>
<path d="M9.02896 37.1117L7.74496 40.3949L21.4814 34.393L19.4745 29.8311L5.73799 35.833L9.02896 37.1117Z" fill="#C136CE"/>
<path d="M43.5808 58.9478C43.8212 58.9459 44.0515 58.8509 44.2228 58.6829L46.357 56.5517C46.4973 56.3782 46.5679 56.1591 46.5552 55.9367C46.5424 55.7144 46.4472 55.5047 46.288 55.3483C46.1288 55.1919 45.9169 55.0999 45.6935 55.0903C45.4701 55.0806 45.251 55.1539 45.0788 55.296L42.9446 57.4272C42.8199 57.5536 42.7353 57.7137 42.7012 57.8876C42.6671 58.0615 42.6851 58.2415 42.7528 58.4053C42.8206 58.5692 42.9352 58.7095 43.0824 58.8091C43.2296 58.9086 43.4029 58.9628 43.5808 58.9651V58.9478Z" fill="#F7E080"/>
<path d="M15.7284 50.9016C15.8477 50.9019 15.9659 50.8786 16.0761 50.8331C16.1863 50.7876 16.2863 50.7208 16.3704 50.6366L17.6428 49.3636C17.7313 49.2815 17.8023 49.1824 17.8515 49.0724C17.9008 48.9624 17.9273 48.8436 17.9295 48.7232C17.9318 48.6028 17.9097 48.4831 17.8646 48.3713C17.8194 48.2596 17.7522 48.158 17.6669 48.0726C17.5815 47.9872 17.4798 47.9198 17.3678 47.8744C17.2558 47.8289 17.1357 47.8064 17.0148 47.8081C16.8938 47.8098 16.7745 47.8356 16.6638 47.8842C16.5531 47.9327 16.4533 48.003 16.3704 48.0907L15.0922 49.3636C15.0081 49.4471 14.9413 49.5463 14.8958 49.6555C14.8503 49.7648 14.8268 49.8819 14.8268 50.0001C14.8268 50.1184 14.8503 50.2355 14.8958 50.3447C14.9413 50.4539 15.0081 50.5531 15.0922 50.6366C15.1748 50.7212 15.2738 50.7883 15.3831 50.8338C15.4925 50.8793 15.6099 50.9024 15.7284 50.9016Z" fill="#98B7F7"/>
<path d="M15.2481 19.2557C15.2481 18.9248 15.5161 18.6566 15.8467 18.6566C16.1773 18.6566 16.4453 18.9248 16.4453 19.2557V19.8489C16.4453 20.1798 16.1773 20.448 15.8467 20.448C15.5161 20.448 15.2481 20.1798 15.2481 19.8489V19.2557Z" fill="#7196FF"/>
<path d="M15.2481 24.0307C15.2481 23.6999 15.5161 23.4317 15.8467 23.4317C16.1773 23.4317 16.4453 23.6999 16.4453 24.0307V24.624C16.4453 24.9549 16.1773 25.2231 15.8467 25.2231C15.5161 25.2231 15.2481 24.9549 15.2481 24.624V24.0307Z" fill="#7196FF"/>
<path d="M13.1552 22.5331C12.823 22.5331 12.5537 22.2662 12.5537 21.937C12.5537 21.6077 12.823 21.3408 13.1552 21.3408H13.751C14.0832 21.3408 14.3525 21.6077 14.3525 21.937C14.3525 22.2662 14.0832 22.5331 13.751 22.5331H13.1552Z" fill="#7196FF"/>
<path d="M17.9501 22.5331C17.6179 22.5331 17.3486 22.2662 17.3486 21.937C17.3486 21.6077 17.6179 21.3408 17.9501 21.3408H18.5459C18.8781 21.3408 19.1474 21.6077 19.1474 21.937C19.1474 22.2662 18.8781 22.5331 18.5459 22.5331H17.9501Z" fill="#7196FF"/>
<path d="M25.7033 5.31516C25.8817 5.31401 26.0558 5.26056 26.2039 5.16147C26.3519 5.06238 26.4674 4.92206 26.5359 4.75801C26.6044 4.59397 26.6228 4.41347 26.5889 4.23904C26.555 4.06462 26.4703 3.904 26.3453 3.77724L25.7091 3.14364C25.6252 3.06006 25.5255 2.99376 25.4159 2.94852C25.3062 2.90329 25.1887 2.88 25.07 2.88C24.9513 2.88 24.8338 2.90329 24.7241 2.94852C24.6144 2.99376 24.5148 3.06006 24.4309 3.14364C24.3469 3.22723 24.2804 3.32646 24.2349 3.43566C24.1895 3.54487 24.1661 3.66192 24.1661 3.78012C24.1661 3.89833 24.1895 4.01538 24.2349 4.12458C24.2804 4.23379 24.3469 4.33302 24.4309 4.4166L25.0671 5.05021C25.1497 5.13479 25.2487 5.20187 25.358 5.2474C25.4673 5.29294 25.5848 5.31598 25.7033 5.31516Z" fill="#60CFAC"/>
</g>
<defs>
<clipPath id="clip0">
<rect width="107" height="72" transform="matrix(-1 0 0 1 107 0)" fill="white"/>
</clipPath>
</defs>
</svg>
