<svg width="540" height="282" viewBox="0 0 540 282" fill="none" xmlns="http://www.w3.org/2000/svg">
<path d="M0 7.99999C0 3.58172 3.58172 0 8 0H532C536.418 0 540 3.58172 540 8V274C540 278.418 536.418 282 532 282H7.99999C3.58171 282 0 278.418 0 274V7.99999Z" fill="#5865F2"/>
<path d="M262.776 257.232C328.606 257.232 381.972 250.224 381.972 241.58C381.972 232.936 328.606 225.928 262.776 225.928C196.946 225.928 143.58 232.936 143.58 241.58C143.58 250.224 196.946 257.232 262.776 257.232Z" fill="#1D2CC2"/>
<path d="M362.45 263.854C386.293 263.854 405.622 260.35 405.622 256.028C405.622 251.706 386.293 248.202 362.45 248.202C338.607 248.202 319.278 251.706 319.278 256.028C319.278 260.35 338.607 263.854 362.45 263.854Z" fill="#1D2CC2"/>
<path d="M306.55 84.114H247.038L193.546 123.932L204.382 136.058C204.674 136.384 205.032 136.645 205.432 136.823C205.833 137.001 206.266 137.092 206.704 137.09H306.55V84.114Z" fill="#FFF2A6"/>
<path d="M253.058 87.468C246.436 106.56 231.128 124.104 211.434 134.252C209.75 135.134 207.818 135.427 205.948 135.085C204.078 134.742 202.376 133.783 201.114 132.36L193.546 123.932L253.66 71.386L253.058 87.468Z" fill="#FFF2A6"/>
<path d="M291.5 248.202C335.814 248.202 371.738 212.278 371.738 167.964C371.738 123.65 335.814 87.726 291.5 87.726C247.186 87.726 211.262 123.65 211.262 167.964C211.262 212.278 247.186 248.202 291.5 248.202Z" fill="#1D2CC2"/>
<path d="M381.886 241.58L143.58 241.236C150.202 218.704 185.032 191.528 223.56 181.896L357.806 181.294L359.698 125.652C383.95 165.556 381.886 219.65 381.886 241.58Z" fill="#1D2CC2"/>
<path d="M253.058 87.468C257.014 115.504 282.212 136.746 306.378 145.002C306.877 145.171 307.399 145.258 307.926 145.26L381.714 145.948C382.175 145.965 382.634 145.872 383.052 145.678C383.471 145.484 383.837 145.193 384.122 144.83L393.754 132.618L337.854 84.114L333.038 72.934H253.058V87.468Z" fill="#FFF2A6"/>
<path d="M256.932 78.6123C257.403 79.0835 257.777 79.6428 258.032 80.2584C258.287 80.874 258.418 81.5338 258.418 82.2002C258.418 82.8665 258.287 83.5263 258.032 84.1419C257.777 84.7575 257.403 85.3169 256.932 85.788L253.344 89.3759L249.756 85.788C248.804 84.8365 248.27 83.5459 248.27 82.2002C248.27 80.8545 248.804 79.5639 249.756 78.6123C250.227 78.1411 250.786 77.7674 251.402 77.5124C252.018 77.2574 252.678 77.1262 253.344 77.1262C254.01 77.1262 254.67 77.2574 255.286 77.5124C255.901 77.7674 256.461 78.1411 256.932 78.6123Z" fill="black"/>
<path d="M396.678 128.06L344.39 83.942C352.216 72.59 351.7 65.366 340.606 63.302C316.87 58.83 271.032 58.314 253.66 58.744L254.348 77.836L315.064 131.93C315.896 132.602 316.92 132.993 317.988 133.048L394.184 134.596C394.656 134.619 395.127 134.547 395.57 134.385C396.013 134.222 396.419 133.972 396.764 133.65C397.159 133.297 397.474 132.863 397.687 132.377C397.9 131.891 398.006 131.366 397.998 130.835C397.99 130.305 397.868 129.783 397.64 129.304C397.412 128.825 397.084 128.401 396.678 128.06Z" fill="#FF78B9"/>
<path d="M264.066 78.266L344.39 83.942C352.216 72.59 351.7 65.366 340.606 63.302C317.816 59.002 274.558 58.314 255.81 58.658L264.066 78.266Z" fill="#FF99CA"/>
<path d="M319.192 131.758C319.721 131.173 320 130.404 319.967 129.616C319.935 128.828 319.595 128.084 319.02 127.544L264.066 78.266C270.258 66.312 271.806 58.658 253.66 58.744C239.126 59.088 237.492 63.56 241.534 78.352L189.848 120.836C189.607 121.014 189.404 121.238 189.252 121.496C189.099 121.753 189 122.039 188.959 122.336C188.919 122.633 188.939 122.935 189.018 123.224C189.097 123.512 189.233 123.783 189.418 124.018C189.597 124.281 189.829 124.504 190.098 124.674C190.367 124.843 190.668 124.956 190.983 125.004C191.297 125.053 191.619 125.036 191.926 124.955C192.234 124.874 192.522 124.731 192.772 124.534L251.596 77.75C251.985 77.4232 252.481 77.2512 252.988 77.2671C253.496 77.2829 253.98 77.4855 254.348 77.836L315.064 131.93C315.644 132.433 316.395 132.696 317.162 132.664C317.93 132.632 318.656 132.308 319.192 131.758Z" fill="#D11583"/>
<path d="M377.242 185.508L310.076 211.824C310.076 211.824 318.762 253.62 319.364 256.372L405.622 255.684C399.203 231.174 389.665 207.589 377.242 185.508Z" fill="#1D2CC2"/>
<path d="M236.632 158.418H236.202L224.85 157.128C223.547 156.916 222.379 156.204 221.592 155.145C220.805 154.085 220.462 152.76 220.636 151.452C220.731 150.802 220.953 150.177 221.29 149.613C221.626 149.049 222.071 148.557 222.599 148.166C223.126 147.774 223.726 147.491 224.363 147.332C225 147.172 225.662 147.141 226.312 147.238L237.062 148.528C238.261 148.731 239.345 149.364 240.109 150.31C240.874 151.256 241.267 152.448 241.214 153.663C241.161 154.878 240.666 156.031 239.822 156.907C238.979 157.783 237.844 158.32 236.632 158.418Z" fill="white"/>
<path d="M289.694 160.568H289.608L274.73 160.396C273.414 160.351 272.167 159.797 271.253 158.85C270.338 157.904 269.827 156.638 269.828 155.322C269.828 154.664 269.96 154.012 270.217 153.405C270.474 152.799 270.85 152.251 271.324 151.793C271.798 151.336 272.358 150.979 272.973 150.743C273.588 150.507 274.244 150.397 274.902 150.42L289.694 150.592C290.345 150.592 290.99 150.721 291.59 150.973C292.19 151.225 292.735 151.594 293.191 152.058C293.647 152.522 294.007 153.073 294.248 153.678C294.489 154.282 294.607 154.929 294.596 155.58C294.607 156.231 294.489 156.878 294.248 157.482C294.007 158.087 293.647 158.638 293.191 159.102C292.735 159.566 292.19 159.935 291.59 160.187C290.99 160.439 290.345 160.568 289.694 160.568Z" fill="white"/>
<path d="M262.776 186.454H262.346C254.176 186.024 246.608 185.336 239.814 184.562C237.864 184.153 236.137 183.031 234.971 181.415C233.805 179.8 233.283 177.807 233.509 175.827C233.735 173.848 234.692 172.024 236.192 170.712C237.692 169.401 239.628 168.697 241.62 168.738C248.156 169.512 255.38 170.114 263.206 170.458C264.256 170.486 265.291 170.721 266.25 171.149C267.21 171.577 268.076 172.19 268.798 172.953C269.521 173.715 270.087 174.613 270.462 175.594C270.838 176.575 271.017 177.621 270.989 178.671C270.961 179.721 270.726 180.756 270.298 181.715C269.87 182.675 269.257 183.541 268.494 184.263C267.732 184.986 266.834 185.552 265.853 185.927C264.872 186.303 263.826 186.482 262.776 186.454Z" fill="#FFC619"/>
<path d="M262.776 180.434H262.69C254.606 180.033 247.21 179.431 240.502 178.628C240.245 178.607 239.995 178.534 239.767 178.413C239.54 178.292 239.339 178.126 239.178 177.924C239.017 177.723 238.899 177.491 238.831 177.242C238.763 176.993 238.746 176.733 238.782 176.478C238.804 176.218 238.877 175.965 238.996 175.733C239.116 175.501 239.281 175.295 239.481 175.127C239.681 174.959 239.912 174.833 240.161 174.755C240.41 174.677 240.672 174.648 240.932 174.672C247.554 175.446 254.95 176.048 262.862 176.478C263.387 176.489 263.885 176.709 264.248 177.088C264.611 177.467 264.808 177.974 264.797 178.499C264.786 179.024 264.566 179.522 264.187 179.885C263.808 180.248 263.301 180.445 262.776 180.434Z" fill="black"/>
<path d="M236.718 159.106C239.853 159.106 242.394 156.565 242.394 153.43C242.394 150.295 239.853 147.754 236.718 147.754C233.583 147.754 231.042 150.295 231.042 153.43C231.042 156.565 233.583 159.106 236.718 159.106Z" fill="black"/>
<path d="M289.608 161.256C292.79 161.256 295.37 158.676 295.37 155.494C295.37 152.312 292.79 149.732 289.608 149.732C286.426 149.732 283.846 152.312 283.846 155.494C283.846 158.676 286.426 161.256 289.608 161.256Z" fill="black"/>
<path d="M319.106 255.426L313.344 227.476L310.85 215.522L306.636 216.21C309.388 230.4 308.012 246.224 296.66 256.716C304.486 256.286 312.054 255.942 319.106 255.426Z" fill="black"/>
<path d="M232.246 209.158C207.994 209.158 177.722 226.96 161.812 249.922C181.162 253.964 213.928 256.716 251.854 257.232C252.284 256.544 252.714 255.856 253.058 255.168C267.678 229.798 258.39 209.158 232.246 209.158Z" fill="#66BCFF"/>
<path d="M315.408 251.384C314.953 251.371 314.516 251.201 314.171 250.904C313.826 250.606 313.595 250.199 313.516 249.75C312.914 246.912 312.054 242.956 311.194 238.484C308.958 227.39 306.12 213.63 304.744 207.352C304.681 207.103 304.669 206.844 304.709 206.591C304.749 206.337 304.84 206.094 304.976 205.877C305.113 205.66 305.293 205.473 305.504 205.327C305.716 205.181 305.954 205.08 306.206 205.03C306.46 204.966 306.725 204.953 306.984 204.992C307.243 205.031 307.492 205.121 307.716 205.257C307.94 205.393 308.135 205.573 308.289 205.784C308.443 205.996 308.554 206.237 308.614 206.492C310.076 212.77 312.828 226.53 315.064 237.71C316.01 242.182 316.784 246.138 317.386 248.976C317.487 249.489 317.381 250.021 317.091 250.457C316.801 250.892 316.351 251.194 315.838 251.298L315.408 251.384Z" fill="black"/>
<path d="M169.466 135.37C166.928 133.739 164.77 131.582 163.138 129.045C161.506 126.508 160.438 123.65 160.006 120.664L158.458 110.344C158.417 110.101 158.29 109.881 158.101 109.723C157.912 109.565 157.672 109.481 157.426 109.484C157.18 109.481 156.94 109.565 156.751 109.723C156.562 109.881 156.435 110.101 156.394 110.344L154.846 120.664C154.377 123.648 153.285 126.5 151.64 129.034C149.995 131.568 147.835 133.727 145.3 135.37L144.01 136.23C143.852 136.311 143.72 136.434 143.629 136.586C143.537 136.738 143.491 136.913 143.494 137.09C143.491 137.267 143.537 137.442 143.629 137.594C143.72 137.746 143.852 137.869 144.01 137.95L145.3 138.81C147.835 140.453 149.995 142.612 151.64 145.146C153.285 147.68 154.377 150.532 154.846 153.516L156.394 163.836C156.435 164.079 156.562 164.299 156.751 164.457C156.94 164.615 157.18 164.699 157.426 164.696C157.672 164.699 157.912 164.615 158.101 164.457C158.29 164.299 158.417 164.079 158.458 163.836L160.006 153.516C160.438 150.53 161.506 147.672 163.138 145.135C164.77 142.598 166.928 140.441 169.466 138.81L170.842 137.95C170.978 137.852 171.088 137.723 171.163 137.573C171.238 137.423 171.275 137.257 171.272 137.09C171.275 136.923 171.238 136.757 171.163 136.607C171.088 136.457 170.978 136.328 170.842 136.23L169.466 135.37Z" fill="#57F287"/>
<path d="M425.144 68.29C422.599 66.6376 420.433 64.4653 418.788 61.9159C417.142 59.3664 416.055 56.4976 415.598 53.498L414.05 43.264C414.05 43.1398 414.026 43.0168 413.978 42.902C413.93 42.7872 413.861 42.6829 413.773 42.5951C413.685 42.5072 413.581 42.4375 413.466 42.39C413.351 42.3425 413.228 42.318 413.104 42.318C412.85 42.3346 412.609 42.4375 412.422 42.6095C412.234 42.7815 412.111 43.0124 412.072 43.264L410.524 53.498C410.067 56.4976 408.98 59.3664 407.334 61.9159C405.689 64.4653 403.523 66.6376 400.978 68.29L399.602 69.15C399.466 69.2477 399.356 69.377 399.281 69.5269C399.206 69.6767 399.169 69.8425 399.172 70.01C399.181 70.1752 399.223 70.3368 399.297 70.4848C399.371 70.6328 399.475 70.7639 399.602 70.87L400.978 71.73C403.52 73.3648 405.686 75.5214 407.332 78.0567C408.978 80.5921 410.066 83.4483 410.524 86.436L412.072 96.756C412.113 96.9989 412.24 97.2192 412.429 97.3769C412.618 97.5346 412.858 97.6194 413.104 97.616C413.224 97.6281 413.345 97.6148 413.46 97.577C413.574 97.5392 413.679 97.4778 413.769 97.3967C413.858 97.3156 413.929 97.2166 413.977 97.1063C414.026 96.9959 414.051 96.8766 414.05 96.756L415.598 86.436C416.056 83.4483 417.144 80.5921 418.79 78.0567C420.436 75.5214 422.602 73.3648 425.144 71.73L426.52 70.87C426.647 70.7639 426.751 70.6328 426.825 70.4848C426.899 70.3368 426.941 70.1752 426.95 70.01C426.953 69.8425 426.916 69.6767 426.841 69.5269C426.766 69.377 426.656 69.2477 426.52 69.15L425.144 68.29Z" fill="#FFC619"/>
<path d="M391.862 47.65C390.592 46.8454 389.512 45.7754 388.696 44.5135C387.879 43.2516 387.346 41.8278 387.132 40.34L386.358 35.266C386.337 35.1445 386.274 35.0344 386.18 34.9555C386.085 34.8767 385.965 34.8343 385.842 34.836C385.719 34.8343 385.599 34.8767 385.504 34.9555C385.41 35.0344 385.347 35.1445 385.326 35.266L384.638 40.34C384.393 41.8177 383.847 43.2292 383.033 44.4867C382.219 45.7443 381.156 46.821 379.908 47.65L379.22 48.08C379.089 48.1907 378.998 48.342 378.962 48.51C378.998 48.678 379.089 48.8293 379.22 48.94L379.908 49.37C381.156 50.199 382.219 51.2757 383.033 52.5333C383.847 53.7908 384.393 55.2023 384.638 56.68L385.326 61.754C385.347 61.8755 385.41 61.9856 385.504 62.0645C385.599 62.1433 385.719 62.1857 385.842 62.184C385.965 62.1857 386.085 62.1433 386.18 62.0645C386.274 61.9856 386.337 61.8755 386.358 61.754L387.132 56.68C387.346 55.1922 387.879 53.7684 388.696 52.5065C389.512 51.2446 390.592 50.1746 391.862 49.37L392.55 48.94C392.655 48.8209 392.716 48.6689 392.722 48.51C392.716 48.3511 392.655 48.1992 392.55 48.08L391.862 47.65Z" fill="#459FF7"/>
</svg>
