<svg fill="none" height="72" viewBox="0 0 72 72" width="72" xmlns="http://www.w3.org/2000/svg" xmlns:xlink="http://www.w3.org/1999/xlink"><clipPath id="a"><path d="m0 0h72v72h-72z"/></clipPath><g clip-path="url(#a)"><path d="m36 72c19.8823 0 36-16.1177 36-36s-16.1177-36-36-36-36 16.1177-36 36 16.1177 36 36 36z" fill="#72a0ff"/><path d="m13.25 63.9c3.0006 2.4497 6.3775 4.3981 10 5.77 3.31-8.44 11.75-12.67 11.75-12.67l-8.75-7.5c-6.11 2.72-10.37 9.12-13 14.4z" fill="#fff"/><path d="m26 64.8001c1.7531-2.3074 3.851-4.3311 6.22-6.0001l-6-9.25c-2.2407 1.0377-4.2738 2.4744-6 4.2401.56 2.73 2.02 8.12 5.78 11.01z" fill="#eaeaed"/><path d="m32.52 19.09c-1 3.2-1.57 15.28-1.57 15.28s6.69-10.08 7.73-13.27.51-6.24-1.19-6.79-3.93 1.58-4.97 4.78z" fill="#b6b6b8"/><g fill="#fff"><path d="m41.2997 61.992c7.5401-3.054 10.6893-12.8457 7.034-21.8703-3.6554-9.0246-12.7311-13.8647-20.2712-10.8106-7.5401 3.054-10.6893 12.8457-7.034 21.8703s12.731 13.8647 20.2712 10.8106z"/><path d="m16.28 17.7c2.29 3.82 16 13.6 16 13.6s-2.28-16.67-4.54-20.49-6.74-5.36-9.88-3.46-3.86 6.53-1.58 10.35z"/><path d="m15.9101 29.2c3.18 1.32 16 1.7 16 1.7s-9.25-8.82-12.43-10.14-6.55-.52-7.52 1.81.77 5.3 3.95 6.63z"/></g><path d="m45.4201 54.94s-13.76 11.62-9.64-4.86z" fill="#333"/><path d="m35.7799 50.0801c-7.51-4.78-10.7799-13.08-7.2499-18.63.7945-1.245 1.8831-2.2753 3.17-3 6.62-.56 13.55 4.06 16.63 11.66 1.7106 4.0854 1.9786 8.6317.76 12.89-4.6462.7413-9.4009-.3018-13.3101-2.92z" fill="#00e9e5"/><path d="m35.78 50.08c2.0803-1.2859 4.3949-2.1469 6.8099-2.5331s4.8825-.2899 7.2601.2831c0 0 5.2 9.93 17.59 19.6 1.382 1.077 2.3469 2.6004 2.73 4.31l.06.26z" fill="#fbcc00"/><path d="m35 54.81c.7414-.0429 1.4852.0177 2.21.18 1.6989.3045 3.2125 1.2585 4.22 2.66-2.99 1.65-6.57 2.51-6.43-2.84z" fill="#ff70aa"/><path d="m36.515 42.4896c.0434-1.7171-.8926-3.1336-2.0906-3.1639-1.1981-.0304-2.2046 1.337-2.248 3.0541-.0435 1.717.8925 3.1336 2.0906 3.1639 1.198.0303 2.2045-1.3371 2.248-3.0541z" fill="#000"/><path d="m59.8869 63.666c.184-.2888-.135-.8212-.7125-1.1893s-1.1949-.4323-1.3789-.1436c-.184.2888.135.8212.7125 1.1893s1.1948.4323 1.3789.1436z" fill="#c19d00"/><path d="m62.39 6.08994-6.39-2.46c-.0258-.00653-.0529-.00606-.0785.00137-.0256.00742-.0488.02154-.0671.04089-.0184.01936-.0312.04325-.0372.06922-.0061.02596-.0051.05307.0028.07852l2.46 6.38996c.0101.0326.0101.0675 0 .1l-2.46 6.39c-.0093.0252-.0112.0525-.0055.0787.0057.0261.0188.0501.0378.0691.0189.019.0429.0321.0691.0378s.0535.0038.0786-.0056l6.39-2.45h.11l6.39 2.45c.0252.0094.0525.0113.0787.0056s.0502-.0188.0691-.0378c.019-.019.0321-.043.0378-.0691.0057-.0262.0038-.0535-.0056-.0787l-2.46-6.39c-.01-.0325-.01-.0674 0-.1l2.46-6.38996c.008-.02545.009-.05256.0029-.07852-.006-.02597-.0189-.04986-.0372-.06922-.0183-.01935-.0415-.03347-.0671-.04089-.0256-.00743-.0527-.0079-.0786-.00137l-6.39 2.46z" fill="#ee8baa"/><path d="m58.6 27.29-1.47-3.29c-.0074-.0103-.0171-.0187-.0284-.0245s-.0239-.0088-.0366-.0088-.0252.003-.0365.0088-.021.0142-.0285.0245l-1.47 3.31-3.31 1.48c-.0129.0052-.0241.0142-.0319.0258-.0079.0116-.0121.0252-.0121.0392s.0042.0277.0121.0393c.0078.0116.019.0205.0319.0257l3.31 1.48 1.47 3.37c.007.0125.0171.023.0294.0302.0123.0073.0264.0111.0406.0111.0143 0 .0284-.0038.0407-.0111.0123-.0072.0224-.0177.0293-.0302l1.47-3.31 3.39-1.52c.0104-.0074.0188-.0171.0246-.0284s.0088-.0239.0088-.0366-.003-.0252-.0088-.0365-.0142-.0211-.0246-.0285l-3.32-1.48s-.07-.02-.08-.04z" fill="#ffe375"/><path d="m6.48001 65.4801-1.48-3.31c-.00692-.0126-.01706-.023-.02937-.0302-.01231-.0073-.02634-.0111-.04063-.0111s-.02832.0038-.04063.0111c-.01231.0072-.02245.0176-.02937.0302l-1.46 3.31-3.3999996 1.52c-.0125041.0069-.0229268.017-.0301846.0293-.0072577.0123-.0110856.0264-.0110856.0407 0 .0142.0038279.0283.0110856.0406.0072578.0123.0176805.0224.0301846.0294l3.3599996 1.46 1.51 3.4c.00741.0103.01717.0187.02847.0245s.02383.0088.03653.0088c.01271 0 .02523-.003.03653-.0088s.02106-.0142.02847-.0245l1.47-3.32 3.31-1.47c.0125-.007.02293-.0171.03018-.0294.00726-.0123.01109-.0264.01109-.0406 0-.0143-.00383-.0284-.01109-.0407-.00725-.0123-.01768-.0224-.03018-.0293l-3.26-1.55c-.01776-.0081-.03198-.0223-.04-.04z" fill="#b5a2ff"/></g></svg>