<svg width="24" height="24" viewBox="0 0 24 24" fill="none" xmlns="http://www.w3.org/2000/svg">
<path opacity="0.6" fill-rule="evenodd" clip-rule="evenodd" d="M18.6781 9.45696C16.906 9.5045 15.2706 10.1007 13.9358 11.0818L9.32226 6.46826C8.70565 5.86398 8.70565 4.63076 9.32226 4.01415L11.5124 1.824C11.8868 1.44962 12.3943 1.23897 12.9238 1.23821L16.4195 1.23322L17.6527 0L20.7358 3.08306L19.5025 4.31629L19.4925 7.81982C19.491 8.34827 19.2804 8.85466 18.9068 9.22833L18.6781 9.45696ZM12.8188 12.0657C11.4133 13.5428 10.5398 15.5308 10.5053 17.7224L9.22334 19.0044C8.84897 19.3788 8.34142 19.5894 7.81198 19.5902L4.31629 19.5952L3.08306 20.8284L0 17.7453L1.23322 16.5121L1.24321 13.0086C1.24471 12.4801 1.45531 11.9737 1.82898 11.6001L4.01415 9.4149C4.63076 8.79828 5.86398 8.79828 6.46826 9.4149L6.47443 9.42106L8.32426 7.57123L9.55749 8.80445L7.70765 10.6543L10.1741 13.1207L12.0239 11.2709L12.8188 12.0657Z" fill="white"/>
</svg>
