<svg xmlns="http://www.w3.org/2000/svg" width="1920" height="1099" viewBox="0 0 1920 1099">
  <g fill="none" fill-rule="evenodd">
    <g fill="#72767D" opacity=".08">
      <path d="M0,376.412472 C0,376.412472 446.31318,111.21083 552.632327,158.850459 C696.649136,223.381709 445.888843,375.225807 561.17111,419.706276 C676.453377,464.186745 669.264503,285.139522 850.459407,276.983272 C1031.65431,268.827022 1302.5679,357.147334 1443.57256,257.998897 C1584.57722,158.850459 1611.21975,23.5160352 1802.09257,49.1750262 C1843.89925,54.7950883 1920,119.219737 1920,119.219737 L1920,1099 L0,1095.39708 L0,376.412472 Z"/>
      <ellipse cx="692.754" cy="83.684" rx="75.246" ry="45" transform="rotate(-41 692.754 83.684)"/>
      <path d="M1125.49325,189.140625 C1125.49325,145.105469 1179.76695,173.539062 1288.50331,141.179688 C1397.23966,108.820313 1413.34795,78.4296875 1462.80105,99.8125 C1512.25415,121.195312 1409.70081,213.504037 1335.41924,233.175781 C1261.13768,252.847525 1125.49325,233.175781 1125.49325,189.140625 Z"/>
    </g>
    <rect width="1920" height="1099"/>
  </g>
</svg>
