<svg width="88" height="88" viewBox="0 0 88 88" fill="none" xmlns="http://www.w3.org/2000/svg">
<path d="M48.4339 29.1948V28.4696L46.1799 28.6244C45.5416 28.6647 45.0624 28.8004 44.7401 29.0294C44.4177 29.2605 44.2566 29.5807 44.2566 29.99C44.2566 30.3886 44.4156 30.7067 44.7358 30.9421C45.0539 31.1796 45.4822 31.2962 46.0166 31.2962C46.358 31.2962 46.6782 31.2432 46.9729 31.1393C47.2677 31.0354 47.5264 30.8891 47.7427 30.7025C47.9589 30.518 48.1286 30.2974 48.2494 30.0409C48.3724 29.7843 48.4339 29.5023 48.4339 29.1948ZM44 0C19.4469 0 0 19.4469 0 44C0 68.5552 19.4469 88 44 88C68.5531 88 88 68.5552 88 44C88 19.4469 68.5552 0 44 0ZM52.5413 26.0798C52.7491 25.4967 53.0417 24.9962 53.4213 24.5806C53.8009 24.165 54.2568 23.8448 54.7911 23.62C55.3255 23.3953 55.9213 23.2829 56.5766 23.2829C57.1682 23.2829 57.7026 23.372 58.1775 23.548C58.6547 23.724 59.0618 23.9614 59.4032 24.2604C59.7446 24.5594 60.016 24.9072 60.2153 25.3058C60.4147 25.7045 60.5334 26.1265 60.5737 26.5696H58.8073C58.7628 26.3258 58.6822 26.0968 58.5677 25.8868C58.4532 25.6769 58.3027 25.4946 58.116 25.3398C57.9273 25.185 57.7068 25.0641 57.4545 24.9772C57.2 24.8881 56.9159 24.8457 56.5957 24.8457C56.2203 24.8457 55.8789 24.922 55.5757 25.0726C55.2704 25.2231 55.0095 25.4373 54.7933 25.713C54.577 25.9886 54.4094 26.3258 54.2907 26.7202C54.1698 27.1167 54.1105 27.5557 54.1105 28.0391C54.1105 28.5396 54.1698 28.9891 54.2907 29.3835C54.4094 29.78 54.5791 30.113 54.7996 30.3865C55.018 30.66 55.2831 30.87 55.5906 31.0142C55.898 31.1584 56.2373 31.2326 56.6063 31.2326C57.2106 31.2326 57.7026 31.0905 58.0842 30.8064C58.4659 30.5222 58.7119 30.1066 58.8264 29.5595H60.5949C60.544 30.043 60.4104 30.484 60.1941 30.8827C59.9778 31.2814 59.6979 31.6206 59.3544 31.9027C59.0088 32.1847 58.6038 32.4031 58.1373 32.5558C57.6707 32.7084 57.1576 32.7869 56.5999 32.7869C55.9383 32.7869 55.3425 32.6766 54.806 32.4582C54.2716 32.2398 53.8115 31.9239 53.4298 31.5146C53.0481 31.1054 52.7534 30.607 52.5455 30.0197C52.3377 29.4323 52.2338 28.7728 52.2338 28.037C52.2296 27.3182 52.3335 26.6651 52.5413 26.0798V26.0798ZM27.4072 23.4038H29.1757V24.975H29.2096C29.3178 24.7142 29.4599 24.4788 29.6337 24.2753C29.8076 24.0696 30.0069 23.8957 30.236 23.7494C30.4628 23.6031 30.7152 23.4928 30.9866 23.4165C31.2601 23.3401 31.5485 23.302 31.8496 23.302C32.4985 23.302 33.0477 23.4568 33.493 23.7664C33.9404 24.076 34.2585 24.5213 34.4451 25.1023H34.4896C34.6084 24.8224 34.7653 24.5721 34.9583 24.3516C35.1512 24.1311 35.3739 23.9402 35.6241 23.7833C35.8743 23.6264 36.15 23.5077 36.449 23.425C36.748 23.3423 37.0618 23.302 37.3926 23.302C37.8485 23.302 38.262 23.3741 38.6352 23.5204C39.0084 23.6667 39.3265 23.8703 39.5915 24.1353C39.8566 24.4004 40.0601 24.7227 40.2022 25.1001C40.3443 25.4776 40.4164 25.8974 40.4164 26.3597V32.6809H38.5716V26.8029C38.5716 26.1943 38.4147 25.7214 38.1008 25.3885C37.7891 25.0556 37.3417 24.8881 36.7607 24.8881C36.4765 24.8881 36.2157 24.939 35.9782 25.0387C35.7428 25.1383 35.5372 25.2783 35.3675 25.4585C35.1958 25.6366 35.0622 25.8529 34.9667 26.1031C34.8692 26.3534 34.8204 26.6269 34.8204 26.9238V32.6809H33.0011V26.6502C33.0011 26.383 32.9587 26.1413 32.876 25.925C32.7933 25.7087 32.6766 25.5242 32.5218 25.3694C32.3692 25.2147 32.1804 25.098 31.962 25.0153C31.7415 24.9326 31.4955 24.8902 31.222 24.8902C30.9378 24.8902 30.6749 24.9432 30.431 25.0493C30.1893 25.1553 29.9815 25.3016 29.8076 25.4882C29.6337 25.6769 29.498 25.8974 29.4026 26.154C29.3093 26.4085 29.1566 26.6884 29.1566 26.9895V32.6787H27.4072V23.4038V23.4038ZM31.4213 67.8045C23.3105 67.8045 18.2234 62.1683 18.2234 53.1732C18.2234 44.1781 23.3105 38.5228 31.4213 38.5228C39.5321 38.5228 44.6001 44.1781 44.6001 53.1732C44.6001 62.1662 39.5321 67.8045 31.4213 67.8045V67.8045ZM46.4386 32.6575C46.1396 32.7339 45.8342 32.772 45.5204 32.772C45.0581 32.772 44.6361 32.7063 44.2523 32.5748C43.8664 32.4434 43.5377 32.2589 43.2621 32.0193C42.9864 31.7797 42.7701 31.4913 42.6174 31.152C42.4627 30.8127 42.3863 30.4353 42.3863 30.0197C42.3863 29.2054 42.6895 28.5693 43.296 28.1112C43.9025 27.6532 44.7803 27.386 45.9318 27.3118L48.4339 27.1676V26.4509C48.4339 25.9165 48.2643 25.5073 47.925 25.2295C47.5857 24.9517 47.1065 24.8118 46.4852 24.8118C46.235 24.8118 45.9996 24.8436 45.7833 24.9051C45.567 24.9687 45.3762 25.0577 45.2108 25.1744C45.0454 25.291 44.9076 25.4309 44.8015 25.5942C44.6934 25.7554 44.6192 25.9377 44.5789 26.1371H42.8443C42.8549 25.7278 42.9567 25.3482 43.1476 25.0005C43.3384 24.6527 43.5971 24.3516 43.9258 24.095C44.2545 23.8385 44.6383 23.6391 45.0836 23.4971C45.5289 23.355 46.0123 23.2829 46.5361 23.2829C47.1001 23.2829 47.6112 23.3529 48.0692 23.4971C48.5272 23.6413 48.9195 23.8427 49.244 24.1078C49.5684 24.3728 49.8186 24.6909 49.9946 25.0641C50.1706 25.4373 50.2597 25.855 50.2597 26.3152V32.6787H48.4933V31.1329H48.4488C48.3173 31.3831 48.1519 31.61 47.9505 31.8115C47.7469 32.0129 47.52 32.1868 47.2677 32.3289C47.0132 32.4709 46.7375 32.5812 46.4386 32.6575V32.6575ZM58.1076 67.8045C51.9221 67.8045 47.7172 64.5644 47.4246 59.4774H51.4514C51.7652 62.3846 54.5748 64.31 58.4235 64.31C62.1153 64.31 64.768 62.3846 64.768 59.7531C64.768 57.4757 63.1564 56.0995 59.4265 55.158L55.792 54.2547C50.5671 52.959 48.1922 50.582 48.1922 46.6739C48.1922 41.8626 52.395 38.5228 58.3854 38.5228C64.2379 38.5228 68.3219 41.8816 68.4788 46.7121H64.4923C64.2167 43.8049 61.8417 42.0174 58.3048 42.0174C54.789 42.0174 52.3547 43.824 52.3547 46.4364C52.3547 48.4975 53.8857 49.7168 57.6177 50.6583L60.6818 51.4238C66.5153 52.8382 68.9114 55.1368 68.9114 59.2611C68.9093 64.5241 64.7468 67.8045 58.1076 67.8045V67.8045ZM31.4213 42.134C25.8635 42.134 22.388 46.3961 22.388 53.1711C22.388 59.9269 25.8635 64.1891 31.4213 64.1891C36.96 64.1891 40.4546 59.9269 40.4546 53.1711C40.4567 46.3961 36.96 42.134 31.4213 42.134V42.134Z" fill="#5865F2"/>
</svg>
