<svg height="18" viewBox="0 0 43 18" width="43" xmlns="http://www.w3.org/2000/svg"><path d="m41.5585714 5.24633951c-3.541-1.318-6.604-3.758-10.138-5.132-1.769-.688-2.556 1.914-1.211 2.87 1.245.883 2.547 1.687 3.856 2.485-4.401-.308-9.028-.172-13.174-.441-6.465-.418-13.51799998-1.324-19.91699998-.044-1.543.308-1.127 2.633.361 2.67 6.796.17 13.51399998.101 20.31399998.586 3.753.268 8.253 1.088 12.476 1.21-2.209 1.14599999-4.115 2.49599999-3.642 5.35599999.213 1.288 1.831 1.67 2.823 1.148.907-.478 1.413-1.309 2.204-1.934.842-.665 1.861-1.117 2.798-1.63 1.761-.963 3.645-2.053 4.561-3.92199999.662-1.352.079-2.705-1.311-3.222" fill="#fff" fill-rule="evenodd"/></svg>