<svg width="47" height="60" viewBox="0 0 47 60" fill="none" xmlns="http://www.w3.org/2000/svg">
<g clip-path="url(#clip0)">
<path d="M14.6554 54.202L28.6953 40.2809" stroke="#305DCE" stroke-miterlimit="10"/>
<path d="M33.6195 41.9084H32.5204V48.7672H33.6195V41.9084Z" fill="#4A76E6"/>
<path d="M25.1048 41.3417H24.0056V48.2005H25.1048V41.3417Z" fill="#4A76E6"/>
<path d="M15.6959 12.4825H2.38879V40.5425H15.6959V12.4825Z" fill="#4A76E6"/>
<path d="M15.6959 12.4825H2.38879V15.287H15.6959V12.4825Z" fill="#4A76E6"/>
<path d="M41.6947 40.5425H15.6959V15.287L28.6953 7.64349L41.6947 15.287V40.5425Z" fill="#7196FF"/>
<path d="M15.6959 11.2182V15.287L28.6953 7.64349L41.6947 15.287V11.2182L28.6953 3.57471L15.6959 11.2182Z" fill="#4A76E6"/>
<path d="M17.1469 10.7968H14.2598V40.5425H17.1469V10.7968Z" fill="#305DCE"/>
<path d="M43.1309 12.3371H40.2438V40.5425H43.1309V12.3371Z" fill="#305DCE"/>
<path d="M37.518 11.6978H36.6533V22.8142H37.518V11.6978Z" fill="#305DCE"/>
<path d="M45.4905 13.4706L28.6954 3.57471L11.9003 13.4706" stroke="#E77002" stroke-width="2" stroke-linecap="round" stroke-linejoin="round"/>
<path d="M28.6953 10.7968C29.3016 10.7968 29.9019 10.9152 30.462 11.1452C31.0221 11.3753 31.531 11.7124 31.9597 12.1375C32.3883 12.5625 32.7284 13.0672 32.9604 13.6225C33.1924 14.1779 33.3118 14.7731 33.3118 15.3742V23.7007H24.0789V15.3742C24.0789 14.7731 24.1983 14.1779 24.4303 13.6225C24.6623 13.0672 25.0023 12.5625 25.431 12.1375C26.2967 11.2791 27.471 10.7968 28.6953 10.7968Z" fill="white"/>
<path d="M28.6953 11.6251C29.2169 11.6251 29.7333 11.727 30.2152 11.9249C30.6971 12.1228 31.1349 12.4128 31.5037 12.7785C31.8725 13.1442 32.165 13.5783 32.3646 14.0561C32.5642 14.5339 32.6669 15.0459 32.6669 15.5631V22.8142H24.7237V15.6357C24.714 15.1125 24.8095 14.5926 25.0047 14.1064C25.2 13.6202 25.491 13.1775 25.8607 12.8041C26.2305 12.4307 26.6716 12.1341 27.1583 11.9317C27.645 11.7292 28.1675 11.625 28.6953 11.6251Z" fill="#202225"/>
<path d="M24.7237 15.6357V22.8142H20.7374V11.6978C21.2602 11.6958 21.7783 11.7963 22.2618 11.9933C22.7454 12.1904 23.1849 12.4801 23.5553 12.846C23.9256 13.2119 24.2195 13.6466 24.42 14.1254C24.6205 14.6041 24.7237 15.1174 24.7237 15.6357Z" fill="#1D48AD"/>
<path d="M32.667 15.6358V22.8142H36.6386V11.6978C35.5853 11.6978 34.5751 12.1126 33.8303 12.8512C33.0854 13.5897 32.667 14.5913 32.667 15.6358Z" fill="#1D48AD"/>
<path d="M28.6953 38.7115C32.0786 38.7115 34.8213 35.9921 34.8213 32.6374C34.8213 29.2828 32.0786 26.5633 28.6953 26.5633C25.312 26.5633 22.5693 29.2828 22.5693 32.6374C22.5693 35.9921 25.312 38.7115 28.6953 38.7115Z" fill="#FFD836"/>
<path d="M28.6953 37.7525C31.5444 37.7525 33.8541 35.4624 33.8541 32.6374C33.8541 29.8125 31.5444 27.5224 28.6953 27.5224C25.8463 27.5224 23.5366 29.8125 23.5366 32.6374C23.5366 35.4624 25.8463 37.7525 28.6953 37.7525Z" fill="white"/>
<path d="M14.6555 60C17.885 60 20.503 57.4041 20.503 54.202C20.503 50.9998 17.885 48.404 14.6555 48.404C11.426 48.404 8.80798 50.9998 8.80798 54.202C8.80798 57.4041 11.426 60 14.6555 60Z" fill="#305DCE"/>
<path d="M31.6411 30.2543L28.6954 32.6374L25.7496 30.2543" stroke="#36393F" stroke-width="0.75" stroke-linecap="round" stroke-linejoin="round"/>
<path d="M45.4904 13.4706L25.3832 1.6275" stroke="#7196FF" stroke-width="2" stroke-linecap="round" stroke-linejoin="round"/>
<path d="M28.886 3.57471H16.8099C16.5666 3.56962 16.3272 3.63529 16.1211 3.76361L0.395802 13.0782C0.297884 13.1342 0.212937 13.21 0.146478 13.3007C0.0800182 13.3913 0.0335317 13.4948 0.0100367 13.6044C-0.0134583 13.7141 -0.0134365 13.8274 0.0101008 13.937C0.0336381 14.0466 0.0801646 14.1501 0.146659 14.2407C0.228987 14.3334 0.330539 14.4074 0.444364 14.4575C0.55819 14.5077 0.681602 14.5329 0.806154 14.5314H12.8383L12.0762 13.4851L28.886 3.57471Z" fill="#AEC7FF"/>
<path opacity="0.5" d="M16.1063 11.0874L14.802 11.8576H2.3595L3.66383 11.0874H16.1063Z" fill="#7196FF"/>
<path opacity="0.5" d="M21.0451 8.18115L19.7408 8.95131H7.29834L8.60267 8.18115H21.0451Z" fill="#7196FF"/>
<path opacity="0.5" d="M25.9548 5.28943L24.6505 6.05959H12.1934L13.5123 5.28943H25.9548Z" fill="#7196FF"/>
<path d="M11.9003 13.4706L32.0075 1.6275" stroke="#7196FF" stroke-width="2" stroke-linecap="round" stroke-linejoin="round"/>
<path d="M29.0178 18.0189C29.069 17.9862 29.1108 17.9409 29.139 17.8874C29.1673 17.8339 29.181 17.7741 29.179 17.7137C29.1799 17.6556 29.1656 17.5982 29.1373 17.5472C29.109 17.4962 29.0678 17.4535 29.0178 17.4231L24.9142 14.7057C24.8516 14.9682 24.8124 15.2357 24.797 15.505L28.2117 17.7137L24.797 19.9516V20.8235L29.0178 18.0189Z" fill="#E77002"/>
<path d="M33.7076 21.2885C33.6399 21.303 33.57 21.303 33.5024 21.2885L28.6075 18.0189C28.5562 17.9862 28.5145 17.9409 28.4862 17.8874C28.4579 17.8339 28.4442 17.7741 28.4462 17.7137C28.4453 17.6556 28.4597 17.5982 28.4879 17.5472C28.5162 17.4962 28.5574 17.4535 28.6075 17.4231L33.5317 14.2117C33.5941 14.176 33.6648 14.1572 33.7369 14.1572C33.8089 14.1572 33.8797 14.176 33.942 14.2117L38.8663 17.4376C38.9163 17.468 38.9575 17.5108 38.9858 17.5617C39.0141 17.6127 39.0284 17.6701 39.0275 17.7283C39.0295 17.7886 39.0158 17.8485 38.9875 17.902C38.9593 17.9555 38.9175 18.0008 38.8663 18.0334L33.942 21.2449C33.8688 21.2786 33.7882 21.2936 33.7076 21.2885ZM29.4575 17.7137L33.7076 20.4892L37.9576 17.7137L33.7076 14.9528L29.4575 17.7137Z" fill="#E77002"/>
<path d="M26.9513 16.0717L24.9142 14.7057C24.8516 14.9682 24.8124 15.2357 24.797 15.505L27.0246 16.9581L26.9513 16.0717Z" fill="#B93C00"/>
<path d="M26.9514 18.4984L24.7238 19.9516V20.8234L26.9514 19.3703V18.4984Z" fill="#B93C00"/>
<path d="M35.8807 18.8838L35.4041 19.3564L38.8653 22.7884L39.342 22.3157L35.8807 18.8838Z" fill="#2E3338"/>
<path d="M38.0447 18.8889L37.568 19.3615L41.0292 22.7934L41.5059 22.3208L38.0447 18.8889Z" fill="#2E3338"/>
<path d="M41.9439 18.295C42.8402 17.4021 43.3949 16.2276 43.5126 14.9733C43.6303 13.7189 43.3036 12.4631 42.5888 11.4217L40.3465 8.1521H37.6939V12.3226C37.6939 12.6849 37.5487 13.0323 37.2904 13.2885C37.032 13.5446 36.6816 13.6885 36.3162 13.6885H32.0515V14.6331C32.0515 16.0219 32.6069 17.3539 33.5959 18.3373C34.5849 19.3207 35.9269 19.8751 37.3275 19.8789H38.1042C39.5433 19.8669 40.9209 19.2987 41.9439 18.295Z" fill="#FFD836"/>
<path d="M43.7319 22.0732H35.3636C34.9508 22.0732 34.6162 22.4017 34.6162 22.807C34.6162 23.2123 34.9508 23.5408 35.3636 23.5408H43.7319C44.1447 23.5408 44.4793 23.2123 44.4793 22.807C44.4793 22.4017 44.1447 22.0732 43.7319 22.0732Z" fill="#FF9A15"/>
<path d="M40.3465 6.62631C41.05 6.62631 41.7247 6.90342 42.2222 7.39667C42.7196 7.88993 42.9991 8.55892 42.9991 9.25649V9.93946H37.6938V9.24196C37.6977 8.54691 37.9789 7.88164 38.476 7.39153C38.973 6.90141 39.6455 6.6263 40.3465 6.62631Z" fill="#FFD836"/>
<path d="M43.7758 8.96586C43.9035 9.09107 44.0043 9.24056 44.0723 9.40537C44.1403 9.57017 44.1741 9.74689 44.1715 9.92493H41.6361C41.5419 9.92307 41.4502 9.89394 41.3725 9.84113C41.2947 9.78832 41.2342 9.71413 41.1984 9.62768C41.1626 9.54122 41.153 9.44628 41.1709 9.35452C41.1888 9.26276 41.2333 9.17818 41.299 9.11118L41.812 8.60258V7.87601C41.8119 7.78213 41.8485 7.69186 41.914 7.62413C41.9796 7.55641 42.0691 7.51648 42.1637 7.51273C42.2603 7.51792 42.3527 7.55355 42.4275 7.61444L43.7758 8.96586Z" fill="#FF9A15"/>
<path d="M40.3464 6.6263H39.5696C38.6136 6.62511 37.6969 6.24899 37.0196 5.58004L36.6385 5.15863V5.4202C36.6385 6.26807 36.9782 7.08121 37.5829 7.68075C38.1875 8.28028 39.0076 8.6171 39.8627 8.6171H40.3317L40.3464 6.6263Z" fill="#FFD836"/>
<path d="M36.58 7.81787H38.705V9.92492L36.58 7.81787Z" fill="#FFD836"/>
<path d="M33.2825 15.7229C33.6788 16.5623 34.386 17.218 35.2572 17.5538C36.1284 17.8896 37.0966 17.8798 37.9606 17.5262C38.8246 17.1727 39.5181 16.5027 39.8969 15.6554C40.2757 14.8081 40.3107 13.8487 39.9947 12.9765L33.2825 15.7229Z" fill="#FF9A15"/>
<path d="M29.7065 11.3635L31.3626 13.0782C31.58 13.291 31.7528 13.5444 31.871 13.8237C31.9893 14.1031 32.0506 14.4028 32.0514 14.7057H33.2385V13.8775C33.2371 13.4146 33.081 12.9653 32.7946 12.5998C32.5082 12.2343 32.1077 11.9733 31.6557 11.8576L29.7065 11.3635Z" fill="#FFD836"/>
<path d="M32.8281 14.2117L32.6962 14.3424C32.6421 14.3939 32.5739 14.4284 32.5001 14.4416C32.4263 14.4548 32.3502 14.4462 32.2814 14.4167C32.2125 14.3872 32.154 14.3382 32.1131 14.2759C32.0722 14.2136 32.0507 14.1407 32.0514 14.0663V10.2446L32.8281 11.0148C33.2506 11.4414 33.4873 12.0153 33.4873 12.6132C33.4873 13.2111 33.2506 13.7851 32.8281 14.2117Z" fill="#FFD836"/>
<path d="M40.5076 8.61711C40.6938 8.61711 40.8447 8.46748 40.8447 8.28289C40.8447 8.09831 40.6938 7.94867 40.5076 7.94867C40.3214 7.94867 40.1705 8.09831 40.1705 8.28289C40.1705 8.46748 40.3214 8.61711 40.5076 8.61711Z" fill="#202225"/>
<path d="M20.7375 11.6978H19.8728V22.8142H20.7375V11.6978Z" fill="#305DCE"/>
<path d="M27.435 44.9601H21.6754V57.0647H27.435V44.9601Z" fill="#7196FF"/>
<path d="M35.9498 47.9535H30.1902V60.0726H35.9498V47.9535Z" fill="#7196FF"/>
<path d="M0.80603 40.2083H46.0767V41.6614C46.0767 42.0083 45.9377 42.3409 45.6904 42.5862C45.443 42.8315 45.1075 42.9692 44.7577 42.9692H2.12502C1.7752 42.9692 1.43971 42.8315 1.19235 42.5862C0.944995 42.3409 0.80603 42.0083 0.80603 41.6614V40.2083Z" fill="#AEC7FF"/>
<path d="M14.6555 27.3335H7.56226L10.6692 19.1959C10.6981 19.1087 10.7541 19.0328 10.8291 18.9789C10.9041 18.9251 10.9943 18.8961 11.0869 18.8961C11.1795 18.8961 11.2697 18.9251 11.3447 18.9789C11.4197 19.0328 11.4757 19.1087 11.5046 19.1959L14.6555 27.3335Z" fill="#4BB494"/>
<path d="M14.6555 32.9571H7.07862C6.9401 32.9571 6.8041 32.9204 6.68471 32.8507C6.56533 32.7811 6.4669 32.681 6.39963 32.561C6.33236 32.4409 6.29869 32.3052 6.30212 32.1679C6.30555 32.0306 6.34594 31.8967 6.41912 31.7801L10.3907 25.1538H11.8563L15.6374 31.4604C15.7302 31.6205 15.7766 31.803 15.7714 31.9876C15.7663 32.1722 15.7098 32.3518 15.6082 32.5066C15.5067 32.6614 15.364 32.7854 15.1959 32.8649C15.0277 32.9444 14.8407 32.9763 14.6555 32.9571Z" fill="#4BB494"/>
<path d="M12.3253 35.2095H9.86316V40.2083H12.3253V35.2095Z" fill="#51303F"/>
<path d="M15.7546 37.0986H6.41907L10.0097 27.3335H12.1787L15.7546 37.0986Z" fill="#4BB494"/>
<path d="M13.1019 27.3335H9.07166L14.1278 29.0482L13.1019 27.3335Z" fill="#28977B"/>
<path d="M14.2304 32.9571H7.98718L15.1244 35.3693L14.2304 32.9571Z" fill="#28977B"/>
<path d="M12.4571 21.6953L11.5045 19.1959C11.4756 19.1087 11.4197 19.0328 11.3447 18.9789C11.2697 18.9251 11.1794 18.8961 11.0868 18.8961C10.9942 18.8961 10.904 18.9251 10.829 18.9789C10.754 19.0328 10.6981 19.1087 10.6692 19.1959L9.71655 21.6953H12.4571Z" fill="#AEC7FF"/>
<path d="M7.32771 30.2543H8.92515C9.9739 30.2584 10.9791 30.6706 11.7243 31.4023C12.4666 30.6768 13.4667 30.2698 14.5089 30.2688H14.8313L15.8425 31.969C15.9039 32.0744 15.9364 32.194 15.9368 32.3157C15.9372 32.4374 15.9054 32.5572 15.8446 32.663C15.7839 32.7688 15.6962 32.8569 15.5905 32.9187C15.4847 32.9805 15.3644 33.0138 15.2416 33.0153H6.62425C6.53186 33.0148 6.4412 32.9903 6.36136 32.9442C6.28151 32.8981 6.21528 32.832 6.16928 32.7526C6.12328 32.6731 6.09913 32.5831 6.09924 32.4915C6.09936 32.3999 6.12373 32.3099 6.16993 32.2306L7.32771 30.2543Z" fill="#AEC7FF"/>
</g>
<defs>
<clipPath id="clip0">
<rect width="47" height="60" fill="white"/>
</clipPath>
</defs>
</svg>
