<svg width="73" height="64" viewBox="0 0 73 64" fill="none" xmlns="http://www.w3.org/2000/svg">
<path d="M22.9965 0L16.8333 0C8.10521 0 1 7.10125 1 15.8333L1 23.75H14.0902L22.9965 0Z" fill="#FBB848"/>
<path d="M22.5449 23.75H50.7045L41.7983 0L31.4512 0L22.5449 23.75Z" fill="#FBB848"/>
<path d="M56.417 0L50.2539 0L59.1602 23.75H72.2504V15.8333C72.2504 7.10125 65.1452 0 56.417 0Z" fill="#FBB848"/>
<path d="M0.875 59.2087C0.875 61.3937 2.64438 63.167 4.83333 63.167H68.1667C70.3556 63.167 72.125 61.3937 72.125 59.2087V27.542H0.875V59.2087ZM36.496 33.4795C38.685 33.4795 40.4583 35.2528 40.4583 37.4418C40.4583 39.6307 38.685 41.4041 36.496 41.4041C34.3071 41.4041 32.5338 39.6307 32.5338 37.4418C32.5338 35.2528 34.3071 33.4795 36.496 33.4795ZM12.75 35.4666H24.625V47.3337H48.375V35.4666H60.25V51.2999H12.75V35.4666Z" fill="#FBB848"/>
</svg>
