<svg enable-background="new 0 0 100 100" viewBox="0 0 100 100" xmlns="http://www.w3.org/2000/svg"><g clip-rule="evenodd" fill="#5865f2" fill-rule="evenodd"><path d="m88 70.8c-2.1 4.6-3.1 6.7-5.7 10.8-3.7 5.7-9 12.8-15.5 12.9-5.8.1-7.3-3.8-15.1-3.8-7.9 0-9.5 3.8-15.3 3.8-6.5-.1-11.5-6.5-15.2-12.2-10.6-16-11.6-34.7-5.2-44.7 4.6-7.1 11.8-11.2 18.6-11.2 6.9 0 11.3 3.8 17 3.8 5.5 0 8.9-3.8 16.9-3.8 6 0 12.4 3.3 17 9-15 8.2-12.6 29.7 2.5 35.4z"/><path d="m62.4 19.9c2.9-3.7 5.1-9 4.3-14.5-4.7.3-10.3 3.4-13.5 7.3-2.9 3.6-5.4 8.9-4.4 14.1 5.1.3 10.5-2.8 13.6-6.9z"/></g></svg>