<svg width="440" height="112" viewBox="0 0 440 112" fill="none" xmlns="http://www.w3.org/2000/svg">
<g clip-path="url(#clip0_5976_314401)">
<rect width="440" height="112" fill="white"/>
<path d="M0 0H440V112H0V0Z" fill="url(#paint0_linear_5976_314401)"/>
<g filter="url(#filter0_d_5976_314401)">
<path d="M113.208 12.9999H227.794C232.879 12.9999 237.001 17.122 237.001 22.207V91.3391C237.001 96.424 232.879 100.546 227.794 100.546H113.208C108.123 100.546 104.001 96.424 104.001 91.3391V22.207C104.001 17.122 108.123 12.9999 113.208 12.9999Z" fill="#3442D9"/>
</g>
<path d="M135.1 43.599L152.33 24.2538H172.928V23.624H152.043L151.954 23.7267L134.628 43.1814L135.1 43.599Z" fill="#808AFF"/>
<path d="M171.97 22.1727H163.728C163.201 22.1727 162.769 22.604 162.769 23.1311V23.9389H172.928V23.1311C172.928 22.604 172.497 22.1727 171.97 22.1727Z" fill="#808AFF"/>
<path d="M113.235 43.3868C113.235 55.3321 122.922 65.0184 134.867 65.0184C146.812 65.0184 156.492 55.3321 156.492 43.3868C156.492 36.9521 153.685 31.1746 149.222 27.2179C148.332 26.4238 147.374 25.7051 146.354 25.0616C143.136 23.0353 139.337 21.8374 135.271 21.7621C135.127 21.7621 134.99 21.7621 134.86 21.7621C128.583 21.7621 122.929 24.4387 118.979 28.7102C118.294 29.4495 117.664 30.2367 117.089 31.0582C116.069 32.5163 115.234 34.1113 114.598 35.8089C113.715 38.1706 113.229 40.7239 113.229 43.3937L113.235 43.3868Z" fill="#808AFF"/>
<path opacity="0.2" d="M114.604 35.8089L134.867 43.3937V21.7621C128.59 21.7621 122.935 24.4387 118.985 28.7102C118.301 29.4495 117.671 30.2367 117.096 31.0582C116.076 32.5163 115.241 34.1113 114.604 35.8089Z" fill="white"/>
<path opacity="0.4" d="M134.868 21.7621V43.3937L149.229 27.2247C148.34 26.4307 147.381 25.7119 146.361 25.0684C143.144 23.0422 139.345 21.8442 135.278 21.7689C135.135 21.7689 134.998 21.7689 134.868 21.7689V21.7621Z" fill="white"/>
<path d="M215.37 53.1895H226.452C227.178 53.1895 227.767 53.7779 227.767 54.5038V90.4766C227.767 91.2024 227.178 91.7909 226.452 91.7909H215.37C214.644 91.7909 214.055 91.2024 214.055 90.4766V54.5038C214.055 53.7779 214.644 53.1895 215.37 53.1895Z" fill="#808AFF"/>
<path d="M182.798 65.6071H193.881C194.607 65.6071 195.195 66.1955 195.195 66.9214V90.4765C195.195 91.2024 194.607 91.7909 193.881 91.7909H182.798C182.072 91.7909 181.484 91.2024 181.484 90.4765V66.9214C181.484 66.1955 182.072 65.6071 182.798 65.6071Z" fill="#808AFF"/>
<path d="M150.221 65.6071H161.304C162.03 65.6071 162.618 66.1955 162.618 66.9214V90.4765C162.618 91.2024 162.03 91.7909 161.304 91.7909H150.221C149.495 91.7909 148.907 91.2024 148.907 90.4765V66.9214C148.907 66.1955 149.495 65.6071 150.221 65.6071Z" fill="#808AFF"/>
<path d="M133.936 72.8153H145.019C145.745 72.8153 146.333 73.4038 146.333 74.1296V90.4765C146.333 91.2024 145.745 91.7909 145.019 91.7909H133.936C133.21 91.7909 132.622 91.2024 132.622 90.4765V74.1296C132.622 73.4038 133.21 72.8153 133.936 72.8153Z" fill="#808AFF"/>
<path d="M199.083 34.6383H210.166C210.892 34.6383 211.481 35.2267 211.481 35.9526V90.4697C211.481 91.1956 210.892 91.784 210.166 91.784H199.083C198.358 91.784 197.769 91.1956 197.769 90.4697V35.9526C197.769 35.2267 198.358 34.6383 199.083 34.6383Z" fill="#808AFF"/>
<path d="M210.441 22.1727H226.644C227.264 22.1727 227.767 22.6754 227.767 23.2954V25.3353C227.767 25.9553 227.264 26.458 226.644 26.458H210.441C209.821 26.458 209.318 25.9553 209.318 25.3353V23.2954C209.318 22.6754 209.821 22.1727 210.441 22.1727Z" fill="#808AFF"/>
<path d="M197.359 22.1727H206.06C206.423 22.1727 206.717 22.467 206.717 22.8299V24.2058C206.717 24.5688 206.423 24.863 206.06 24.863H197.359C196.996 24.863 196.702 24.5688 196.702 24.2058V22.8299C196.702 22.467 196.996 22.1727 197.359 22.1727Z" fill="#808AFF"/>
<path d="M116.856 91.7839C115.858 91.7839 115.049 90.9748 115.049 89.9768C115.049 88.9787 115.858 88.1696 116.856 88.1696C117.854 88.1696 118.663 88.9787 118.663 89.9768C118.663 90.9748 117.854 91.7839 116.856 91.7839Z" fill="#808AFF"/>
<path d="M121.942 91.7839C120.944 91.7839 120.135 90.9748 120.135 89.9768C120.135 88.9787 120.944 88.1696 121.942 88.1696C122.94 88.1696 123.749 88.9787 123.749 89.9768C123.749 90.9748 122.94 91.7839 121.942 91.7839Z" fill="#808AFF"/>
<path d="M127.036 91.7839C126.038 91.7839 125.229 90.9748 125.229 89.9768C125.229 88.9787 126.038 88.1696 127.036 88.1696C128.034 88.1696 128.843 88.9787 128.843 89.9768C128.843 90.9748 128.034 91.7839 127.036 91.7839Z" fill="#808AFF"/>
<path d="M166.506 65.6071H177.589C178.315 65.6071 178.903 66.1955 178.903 66.9214V90.4765C178.903 91.2024 178.315 91.7909 177.589 91.7909H166.506C165.78 91.7909 165.192 91.2024 165.192 90.4765V66.9214C165.192 66.1955 165.78 65.6071 166.506 65.6071Z" fill="#808AFF"/>
<path d="M309.675 23.941L286.092 26.1473L286.758 22.0408C287.08 20.0409 289.559 18.3684 292.704 18.0695L301.659 17.2296C304.804 16.9378 307.547 18.1193 308.25 20.0266L309.675 23.9339V23.941Z" fill="url(#paint1_linear_5976_314401)"/>
<path d="M340.386 40.8867L340.98 47.1781C341.159 49.0855 340.708 51.0071 339.626 52.5871C338.208 54.6581 336.173 56.0317 333.809 56.2595C328.873 56.7221 324.382 51.9537 323.78 45.6195C323.178 39.2782 326.696 33.7625 331.631 33.2999C333.996 33.0793 336.252 34.0543 338.036 35.8264C339.397 37.1787 340.199 38.9864 340.378 40.8938L340.386 40.8867Z" fill="url(#paint2_linear_5976_314401)"/>
<path d="M339.032 38.6091C338.388 37.4917 337.435 36.2605 336.303 35.2356C335.536 34.5453 334.347 34.6307 333.688 35.4278L333.659 35.4634C333.108 36.1395 333.373 37.1501 334.182 37.4704C335.543 37.997 336.761 38.6376 337.951 39.5485C338.237 39.7692 338.638 39.7478 338.896 39.4987L338.91 39.4845C339.147 39.2567 339.204 38.8938 339.039 38.602L339.032 38.6091Z" fill="url(#paint3_linear_5976_314401)"/>
<path d="M259.455 49.9754L260.05 56.2669C260.229 58.1742 261.039 59.982 262.393 61.3342C264.176 63.1063 266.433 64.0814 268.797 63.8607C273.733 63.3981 277.25 57.8824 276.649 51.5411C276.047 45.1999 271.555 40.4386 266.619 40.9012C264.255 41.1218 262.221 42.5025 260.802 44.5736C259.721 46.1535 259.269 48.0823 259.448 49.9825L259.455 49.9754Z" fill="url(#paint4_linear_5976_314401)"/>
<path d="M260.358 47.4846C260.781 46.2604 261.49 44.8797 262.407 43.6627C263.03 42.8443 264.219 42.709 265.015 43.3638L265.05 43.3923C265.717 43.9545 265.652 44.9936 264.914 45.4562C263.675 46.2249 262.6 47.086 261.605 48.2034C261.368 48.4738 260.967 48.5237 260.666 48.3315H260.652C260.372 48.1393 260.251 47.7977 260.358 47.4846Z" fill="url(#paint5_linear_5976_314401)"/>
<path d="M333.382 32.3319C332.271 27.6703 328.596 24.0548 323.897 22.9802C315.142 20.9803 306.266 20.4038 297.519 21.2222C288.794 22.0407 280.169 24.247 271.952 27.8269C267.524 29.7485 264.587 33.9973 264.38 38.7871C264.215 42.6588 264.315 46.5376 264.68 50.395C265.046 54.2524 265.683 58.0885 266.579 61.8677C267.689 66.5293 271.364 70.1448 276.064 71.2195C284.818 73.2193 293.694 73.7958 302.441 72.9774C311.188 72.1589 319.792 69.9526 328.009 66.3728C332.436 64.4512 335.373 60.2023 335.581 55.4125C335.746 51.5408 335.645 47.6621 335.28 43.8046C334.915 39.9472 334.277 36.1111 333.382 32.3319Z" fill="url(#paint6_linear_5976_314401)"/>
<g opacity="0.67">
<path d="M292.201 23.635L291.707 23.7845L291.213 23.9197L290.224 24.2044L288.247 24.7524C287.917 24.8449 287.588 24.9375 287.258 25.0229L286.27 25.3004C285.94 25.4001 285.611 25.4783 285.281 25.5709L284.3 25.8556L283.318 26.1331L282.337 26.4178L281.355 26.7025C281.033 26.8021 280.703 26.8946 280.374 26.9872L278.411 27.5636L277.422 27.8412L276.928 27.9835L276.426 28.1117C276.226 28.1686 276.011 28.0476 275.961 27.8412C275.918 27.6633 275.997 27.4854 276.154 27.4071C276.77 27.0868 277.408 26.8164 278.038 26.5317L278.998 26.1331C279.321 26.005 279.643 25.884 279.965 25.763C280.61 25.5139 281.269 25.3004 281.928 25.0798C282.587 24.8734 283.254 24.6741 283.92 24.482C284.586 24.304 285.259 24.1261 285.933 23.9695C286.606 23.8201 287.287 23.6635 287.967 23.5425C288.311 23.4785 288.648 23.4144 288.992 23.3575L290.016 23.2009C290.704 23.1226 291.392 23.023 292.087 22.9732C292.273 22.9589 292.43 23.1013 292.438 23.2792C292.452 23.4358 292.345 23.571 292.201 23.6208H292.194L292.201 23.635Z" fill="white"/>
</g>
<path d="M324.956 35.0293C324.24 32.6095 322.227 30.7733 319.748 30.268C312.62 28.8233 305.356 28.4461 298.192 29.1151C291.05 29.7841 283.972 31.4993 277.245 34.2322C274.903 35.1859 273.269 37.3708 273.019 39.8832C272.746 42.6446 272.725 45.4202 272.954 48.1816C273.183 50.9502 273.656 53.7045 274.38 56.416C275.039 58.8857 277.03 60.7788 279.523 61.2983C286.723 62.8 294.095 63.1986 301.373 62.5225C308.651 61.8464 315.815 60.0813 322.599 57.2772C324.956 56.3022 326.554 54.0745 326.74 51.5195C326.941 48.7296 326.883 45.9326 326.582 43.1712C326.282 40.4169 325.737 37.6911 324.942 35.0293H324.956Z" fill="#ED5B00"/>
<path d="M325.478 37.0932C324.784 34.6449 322.771 32.7874 320.263 32.275C313.042 30.8088 305.663 30.4245 298.385 31.1078C291.121 31.791 283.935 33.5276 277.115 36.3032C274.744 37.2711 273.111 39.4774 272.896 42.0111C272.652 44.7867 272.667 47.5695 272.932 50.3309C273.197 53.0923 273.713 55.8324 274.472 58.5155C275.167 60.9638 277.18 62.8213 279.687 63.3337C286.908 64.7998 294.287 65.1842 301.566 64.5009C308.83 63.8177 316.015 62.0811 322.835 59.3055C325.206 58.3376 326.84 56.1313 327.054 53.5976C327.298 50.822 327.284 48.0392 327.019 45.2778C326.754 42.5164 326.238 39.7763 325.478 37.0932Z" fill="black"/>
<path d="M311.057 71.0415L311.401 67.3406C311.508 66.2233 310.505 65.3194 309.395 65.5329C306.887 66.024 304.366 66.3941 301.83 66.6289C299.294 66.8638 296.729 66.9777 294.172 66.9492C293.047 66.9421 292.23 68.0167 292.538 69.0914L293.577 72.6642C293.692 73.0556 294.05 73.3261 294.458 73.3261C297.123 73.3332 299.781 73.2193 302.431 72.9702C305.068 72.7211 307.704 72.3439 310.312 71.8457C310.713 71.7674 311.014 71.4329 311.05 71.0344L311.057 71.0415Z" fill="url(#paint7_linear_5976_314401)"/>
<path d="M285.155 49.2353C286.642 49.2353 287.848 48.0372 287.848 46.5593C287.848 45.0814 286.642 43.8833 285.155 43.8833C283.667 43.8833 282.461 45.0814 282.461 46.5593C282.461 48.0372 283.667 49.2353 285.155 49.2353Z" fill="#57F287"/>
<path d="M312.463 46.061C313.951 46.061 315.157 44.8629 315.157 43.385C315.157 41.9071 313.951 40.709 312.463 40.709C310.975 40.709 309.77 41.9071 309.77 43.385C309.77 44.8629 310.975 46.061 312.463 46.061Z" fill="#57F287"/>
<path d="M305.263 50.2456H305.019C301.223 50.2456 297.44 50.694 293.758 51.5836C294.001 53.6404 296.774 55.0069 299.947 54.6368C303.128 54.2667 305.506 52.3024 305.263 50.2456Z" fill="#57F287"/>
<path d="M269.428 95.1539C267.064 95.1539 264.614 94.7483 262.157 93.7234C256.269 91.2609 251.698 85.674 248.567 77.1122C247.6 74.4647 248.976 71.5467 251.634 70.5859C254.298 69.6251 257.236 70.9916 258.203 73.632C260.316 79.4182 262.981 83.0194 266.133 84.336C270.367 86.1082 275.668 83.7169 279.537 81.9732L280.052 81.7383C282.631 80.5782 285.669 81.717 286.837 84.2791C288.004 86.8412 286.858 89.8589 284.279 91.0189L283.778 91.2467C280.275 92.8267 275.109 95.1539 269.428 95.1539Z" fill="url(#paint8_linear_5976_314401)"/>
<path d="M332 112C328.977 105.851 319.604 91.8092 313.837 88.7916C311.33 87.4821 310.37 84.4004 311.688 81.9165C313.006 79.4256 316.108 78.4719 318.608 79.7814C327.706 84.5356 339.376 102.179 342.27 108.086C343.509 110.612 344 112 344 112C344 112 334.5 112 332 112Z" fill="url(#paint9_linear_5976_314401)"/>
<mask id="mask0_5976_314401" style="mask-type:alpha" maskUnits="userSpaceOnUse" x="311" y="79" width="33" height="33">
<path d="M332 112C328.977 105.851 319.603 91.8092 313.837 88.7916C311.329 87.4821 310.369 84.4004 311.687 81.9165C313.006 79.4256 316.108 78.4719 318.608 79.7814C327.706 84.5356 339.376 102.179 342.27 108.086C343.509 110.612 344 112 344 112C344 112 334.5 112 332 112Z" fill="url(#paint10_linear_5976_314401)"/>
</mask>
<g mask="url(#mask0_5976_314401)">
<path d="M318.358 96.8407C318.243 96.8407 318.121 96.8122 318.007 96.7624C317.606 96.5703 317.434 96.0934 317.627 95.6878C319.504 91.8018 327.033 84.9837 332.836 85.5104C333.28 85.5531 333.61 85.9445 333.567 86.3858C333.524 86.827 333.137 87.1544 332.685 87.1117C328.022 86.6918 320.908 92.5918 319.081 96.3852C318.945 96.677 318.652 96.8407 318.351 96.8407H318.358Z" fill="#3F99F2"/>
<path d="M323.207 103.616C323.028 103.616 322.856 103.559 322.705 103.446C322.354 103.168 322.297 102.663 322.576 102.314C326.273 97.6736 333.523 93.1685 338.738 92.2717C339.175 92.1935 339.598 92.4924 339.676 92.9265C339.755 93.3607 339.454 93.7806 339.017 93.8588C334.139 94.6987 327.333 98.9404 323.844 103.31C323.687 103.51 323.45 103.616 323.207 103.616Z" fill="#3F99F2"/>
<path d="M327.392 111.936C327.184 111.936 326.976 111.858 326.819 111.701C326.503 111.388 326.503 110.875 326.819 110.562C328.703 108.691 331.654 106.029 335.043 103.958C338.338 101.944 341.211 101.011 343.596 101.182C344.04 101.211 344.377 101.602 344.348 102.043C344.313 102.484 343.933 102.819 343.482 102.791C338.976 102.47 332.514 107.182 327.965 111.701C327.807 111.858 327.599 111.936 327.392 111.936Z" fill="#3F99F2"/>
</g>
<path d="M320.436 82.5074C319.505 79.2976 316.546 77.0842 313.179 77.0842H287.396C284.029 77.0842 281.078 79.2976 280.139 82.5074L274.415 102.2C273.011 107.033 274.381 111.854 274.381 111.854C274.381 111.854 281.629 111.854 285.971 111.854H314.604C318.946 111.854 324.791 111.854 324.791 111.854C324.791 111.854 327.564 107.033 326.16 102.2L320.436 82.5074Z" fill="url(#paint11_linear_5976_314401)"/>
<path d="M291.838 81.5111H308.343L311.71 99.0475C312.004 100.578 310.822 101.994 309.26 101.994H290.928C289.359 101.994 288.184 100.578 288.478 99.0475L291.845 81.5111H291.838Z" fill="url(#paint12_linear_5976_314401)"/>
<path d="M308.186 80.7069L308.343 81.5111H291.838L291.995 80.7069C292.139 79.9596 292.798 79.4187 293.564 79.4187H306.624C307.39 79.4187 308.05 79.9596 308.193 80.7069H308.186Z" fill="#FF9F19"/>
<path d="M252.357 57.0353C252.207 56.1955 251.397 55.6404 250.552 55.7969C249.714 55.9464 249.148 56.7506 249.305 57.5904C249.621 59.3128 249.771 60.0387 250.115 61.6756C246.146 62.2379 244.362 63.3908 244.026 65.1487C243.868 65.9743 244.434 67.4689 245.731 68.7927C244.828 71.9811 247.378 73.4828 249.585 74.5646C249.9 75.1909 251.376 75.3047 253.059 74.771C254.743 74.2372 255.939 73.2408 255.81 72.5362C255.825 72.3654 255.817 72.1875 255.774 72.0096C255.653 71.5327 255.531 71.063 255.423 70.6146L253.475 62.487C253.002 60.3447 252.766 59.2345 252.364 57.0424L252.357 57.0353Z" fill="black"/>
<mask id="mask1_5976_314401" style="mask-type:alpha" maskUnits="userSpaceOnUse" x="248" y="70" width="40" height="26">
<path d="M269.429 95.1542C267.065 95.1542 264.615 94.7485 262.158 93.7237C256.269 91.2612 251.699 85.6743 248.568 77.1125C247.601 74.465 248.977 71.547 251.634 70.5862C254.299 69.6254 257.237 70.9918 258.204 73.6323C260.317 79.4184 262.982 83.0196 266.134 84.3363C270.368 86.1084 275.669 83.7171 279.538 81.9734L280.053 81.7386C282.632 80.5785 285.67 81.7172 286.837 84.2794C288.005 86.8415 286.859 89.8591 284.28 91.0192L283.778 91.2469C280.275 92.8269 275.11 95.1542 269.429 95.1542Z" fill="url(#paint13_linear_5976_314401)"/>
</mask>
<g mask="url(#mask1_5976_314401)">
<path d="M256.876 94.5848C256.554 94.5848 256.246 94.3926 256.124 94.0724C255.959 93.6596 256.167 93.1898 256.582 93.0333C264.255 90.0441 265.394 82.799 264.921 80.6354C264.828 80.2012 265.1 79.7742 265.537 79.6817C265.974 79.5892 266.404 79.8596 266.497 80.2938C267.221 83.5961 265.172 91.4106 257.17 94.5278C257.069 94.5634 256.976 94.5848 256.876 94.5848Z" fill="#3F99F2"/>
<path d="M269.915 99.3957C269.714 99.3957 269.514 99.3245 269.356 99.1751C269.034 98.869 269.019 98.3637 269.328 98.0363C270.646 96.6556 271.598 93.5028 271.885 89.5884C272.15 86.0085 271.785 82.5212 270.975 80.8985C270.775 80.4999 270.939 80.016 271.341 79.8238C271.742 79.6245 272.229 79.7882 272.422 80.1868C274.349 84.0585 274.005 95.4671 270.495 99.1466C270.338 99.3103 270.123 99.3957 269.908 99.3957H269.915Z" fill="#3F99F2"/>
<path d="M249.806 84.4787C249.29 84.4787 248.753 84.4573 248.201 84.4218C247.757 84.3933 247.42 84.009 247.449 83.5606C247.477 83.1193 247.871 82.7777 248.316 82.8133C254.72 83.2617 259.018 80.913 261.096 75.8244C261.261 75.4116 261.733 75.2123 262.149 75.3831C262.564 75.5468 262.765 76.0165 262.593 76.4293C261.06 80.1729 257.607 84.4716 249.798 84.4716L249.806 84.4787Z" fill="#3F99F2"/>
</g>
<path d="M75.557 91.5111C76.4779 91.0772 77.2595 90.5085 77.8487 89.8437C78.4378 89.1789 78.8205 88.4336 78.9707 87.6588L79.419 84.9885C79.4531 84.9343 79.5041 84.8861 79.5681 84.8479C79.6321 84.8096 79.7074 84.7821 79.7881 84.7676C79.8755 84.7644 79.9612 84.7832 80.0303 84.8206C80.0994 84.858 80.1475 84.9116 80.1662 84.9722L80.8202 87.6185C80.9825 88.383 81.378 89.1104 81.979 89.7499C82.5801 90.3894 83.3721 90.9255 84.2998 91.3207L84.8274 91.5221C84.9035 91.5757 84.9567 91.6436 84.981 91.7182C84.9645 91.7987 84.9139 91.8741 84.8361 91.9342L84.3175 92.1584C83.4073 92.5936 82.6386 93.1637 82.0651 93.8287C81.4916 94.4938 81.1271 95.2378 80.9972 96.0086L80.4555 98.681C80.457 98.7515 80.4191 98.82 80.3501 98.8714C80.2811 98.9228 80.1866 98.9529 80.0875 98.955C79.9381 98.9583 79.7864 98.8552 79.7083 98.6972L79.1478 96.0489C78.9747 95.2789 78.5648 94.5481 77.9472 93.9086C77.3297 93.269 76.5196 92.7365 75.5747 92.3487L75.1406 92.1453C75.0865 92.1272 75.0423 92.097 75.0145 92.0593C74.9868 92.0215 74.977 91.9783 74.9866 91.9359C74.9765 91.8957 74.9852 91.8542 75.0115 91.8175C75.0377 91.7809 75.08 91.7513 75.1319 91.7332L75.557 91.5111Z" fill="#57F287"/>
<path d="M72.1699 76.7156C70.9752 75.9756 69.9589 74.9968 69.1895 73.8452C68.4201 72.6936 67.9156 71.396 67.71 70.0401L66.984 65.4005C66.9673 65.2885 66.909 65.1861 66.82 65.1125C66.7309 65.0388 66.6172 64.9989 66.5 65C66.3828 64.9989 66.2691 65.0388 66.18 65.1125C66.091 65.1861 66.0327 65.2885 66.016 65.4005L65.29 70.0401C65.0844 71.396 64.5799 72.6936 63.8105 73.8452C63.0411 74.9968 62.0248 75.9756 60.8301 76.7156L60.2078 77.1162C60.1439 77.1555 60.0915 77.2098 60.0552 77.274C60.0189 77.3382 60 77.4102 60.0003 77.4833C59.9974 77.5615 60.0149 77.6391 60.0511 77.7091C60.0873 77.7791 60.1412 77.8392 60.2078 77.8838L60.8301 78.2844C62.0238 79.0175 63.04 79.9902 63.8096 81.1363C64.5792 82.2825 65.0841 83.5752 65.29 84.9265L66.016 89.5994C66.0327 89.7115 66.091 89.8138 66.18 89.8875C66.2691 89.9612 66.3828 90.0011 66.5 90C66.6172 90.0011 66.7309 89.9612 66.82 89.8875C66.909 89.8138 66.9673 89.7115 66.984 89.5994L67.71 84.9265C67.9159 83.5752 68.4208 82.2825 69.1904 81.1363C69.96 79.9902 70.9762 79.0175 72.1699 78.2844L72.7922 77.8838C72.8588 77.8392 72.9127 77.7791 72.9489 77.7091C72.9851 77.6391 73.0026 77.5615 72.9997 77.4833C72.9999 77.4102 72.9811 77.3382 72.9448 77.274C72.9085 77.2098 72.8561 77.1555 72.7922 77.1162L72.1699 76.7156Z" fill="#57F287"/>
<path d="M255.361 21.8411C254.442 21.2195 253.661 20.3973 253.069 19.43C252.477 18.4626 252.089 17.3726 251.931 16.2337L251.372 12.3365C251.359 12.2423 251.315 12.1564 251.246 12.0945C251.178 12.0326 251.09 11.999 251 12C250.91 11.999 250.822 12.0326 250.754 12.0945C250.685 12.1564 250.641 12.2423 250.628 12.3365L250.069 16.2337C249.911 17.3726 249.523 18.4626 248.931 19.43C248.339 20.3973 247.558 21.2195 246.639 21.8411L246.16 22.1776C246.111 22.2106 246.07 22.2562 246.042 22.3102C246.015 22.3641 246 22.4246 246 22.486C245.998 22.5517 246.011 22.6169 246.039 22.6757C246.067 22.7345 246.109 22.7849 246.16 22.8224L246.639 23.1589C247.557 23.7747 248.338 24.5918 248.93 25.5545C249.522 26.5173 249.911 27.6032 250.069 28.7383L250.628 32.6635C250.641 32.7576 250.685 32.8436 250.754 32.9055C250.822 32.9674 250.91 33.001 251 33C251.09 33.001 251.178 32.9674 251.246 32.9055C251.315 32.8436 251.359 32.7576 251.372 32.6635L251.931 28.7383C252.089 27.6032 252.478 26.5173 253.07 25.5545C253.662 24.5918 254.443 23.7747 255.361 23.1589L255.84 22.8224C255.891 22.7849 255.933 22.7345 255.961 22.6757C255.989 22.6169 256.002 22.5517 256 22.486C256 22.4246 255.985 22.3641 255.958 22.3102C255.93 22.2562 255.889 22.2106 255.84 22.1776L255.361 21.8411Z" fill="#57F287"/>
<path d="M379.17 78.1842C377.975 77.4147 376.959 76.3967 376.189 75.199C375.42 74.0013 374.916 72.6518 374.71 71.2417L373.984 66.4166C373.967 66.3 373.909 66.1936 373.82 66.117C373.731 66.0404 373.617 65.9988 373.5 66C373.383 65.9988 373.269 66.0404 373.18 66.117C373.091 66.1936 373.033 66.3 373.016 66.4166L372.29 71.2417C372.084 72.6518 371.58 74.0013 370.811 75.199C370.041 76.3967 369.025 77.4147 367.83 78.1842L367.208 78.6008C367.144 78.6417 367.091 78.6982 367.055 78.765C367.019 78.8317 367 78.9066 367 78.9826C366.997 79.064 367.015 79.1447 367.051 79.2175C367.087 79.2903 367.141 79.3528 367.208 79.3992L367.83 79.8158C369.024 80.5782 370.04 81.5898 370.81 82.7818C371.579 83.9738 372.084 85.3182 372.29 86.7236L373.016 91.5834C373.033 91.6999 373.091 91.8064 373.18 91.883C373.269 91.9596 373.383 92.0012 373.5 92C373.617 92.0012 373.731 91.9596 373.82 91.883C373.909 91.8064 373.967 91.6999 373.984 91.5834L374.71 86.7236C374.916 85.3182 375.421 83.9738 376.19 82.7818C376.96 81.5898 377.976 80.5782 379.17 79.8158L379.792 79.3992C379.859 79.3528 379.913 79.2903 379.949 79.2175C379.985 79.1447 380.003 79.064 380 78.9826C380 78.9066 379.981 78.8317 379.945 78.765C379.909 78.6982 379.856 78.6417 379.792 78.6008L379.17 78.1842Z" fill="#57F287"/>
<path d="M367.489 92.0294C366.754 91.5854 366.129 90.9981 365.655 90.3071C365.182 89.6161 364.871 88.8376 364.745 88.024L364.298 85.2403C364.288 85.1731 364.252 85.1117 364.197 85.0675C364.142 85.0233 364.072 84.9993 364 85C363.928 84.9993 363.858 85.0233 363.803 85.0675C363.748 85.1117 363.712 85.1731 363.702 85.2403L363.255 88.024C363.129 88.8376 362.818 89.6161 362.345 90.3071C361.871 90.9981 361.246 91.5854 360.511 92.0294L360.128 92.2697C360.089 92.2933 360.056 92.3259 360.034 92.3644C360.012 92.4029 360 92.4461 360 92.49C359.998 92.5369 360.009 92.5835 360.031 92.6255C360.054 92.6675 360.087 92.7035 360.128 92.7303L360.511 92.9706C361.245 93.4105 361.871 93.9941 362.344 94.6818C362.818 95.3695 363.129 96.1451 363.255 96.9559L363.702 99.7597C363.712 99.8269 363.748 99.8883 363.803 99.9325C363.858 99.9767 363.928 100.001 364 100C364.072 100.001 364.142 99.9767 364.197 99.9325C364.252 99.8883 364.288 99.8269 364.298 99.7597L364.745 96.9559C364.871 96.1451 365.182 95.3695 365.656 94.6818C366.129 93.9941 366.755 93.4105 367.489 92.9706L367.872 92.7303C367.913 92.7035 367.946 92.6675 367.969 92.6255C367.991 92.5835 368.002 92.5369 368 92.49C368 92.4461 367.988 92.4029 367.966 92.3644C367.944 92.3259 367.911 92.2933 367.872 92.2697L367.489 92.0294Z" fill="#57F287"/>
</g>
<defs>
<filter id="filter0_d_5976_314401" x="100.001" y="12.9999" width="141" height="95.5463" filterUnits="userSpaceOnUse" color-interpolation-filters="sRGB">
<feFlood flood-opacity="0" result="BackgroundImageFix"/>
<feColorMatrix in="SourceAlpha" type="matrix" values="0 0 0 0 0 0 0 0 0 0 0 0 0 0 0 0 0 0 127 0" result="hardAlpha"/>
<feOffset dy="4"/>
<feGaussianBlur stdDeviation="2"/>
<feComposite in2="hardAlpha" operator="out"/>
<feColorMatrix type="matrix" values="0 0 0 0 0 0 0 0 0 0 0 0 0 0 0 0 0 0 0.25 0"/>
<feBlend mode="normal" in2="BackgroundImageFix" result="effect1_dropShadow_5976_314401"/>
<feBlend mode="normal" in="SourceGraphic" in2="effect1_dropShadow_5976_314401" result="shape"/>
</filter>
<linearGradient id="paint0_linear_5976_314401" x1="440" y1="56" x2="-1.28514e-05" y2="61" gradientUnits="userSpaceOnUse">
<stop stop-color="#3442D9"/>
<stop offset="0.5625" stop-color="#0177A4"/>
</linearGradient>
<linearGradient id="paint1_linear_5976_314401" x1="297.073" y1="16.5654" x2="297.562" y2="21.7953" gradientUnits="userSpaceOnUse">
<stop stop-color="#66BCFF"/>
<stop offset="1" stop-color="#3F99F2"/>
</linearGradient>
<linearGradient id="paint2_linear_5976_314401" x1="331.15" y1="33.5001" x2="332.505" y2="47.9778" gradientUnits="userSpaceOnUse">
<stop stop-color="#FFE75C"/>
<stop offset="1" stop-color="#FFC619"/>
</linearGradient>
<linearGradient id="paint3_linear_5976_314401" x1="339.571" y1="39.4686" x2="332.69" y2="34.4735" gradientUnits="userSpaceOnUse">
<stop stop-color="#FFE75C"/>
<stop offset="1" stop-color="#FFF7DE"/>
</linearGradient>
<linearGradient id="paint4_linear_5976_314401" x1="267.124" y1="40.9775" x2="268.479" y2="55.4623" gradientUnits="userSpaceOnUse">
<stop stop-color="#FFE75C"/>
<stop offset="1" stop-color="#FFC619"/>
</linearGradient>
<linearGradient id="paint5_linear_5976_314401" x1="260" y1="48.4306" x2="265.818" y2="42.2443" gradientUnits="userSpaceOnUse">
<stop stop-color="#FFE75C"/>
<stop offset="1" stop-color="#FFF7DE"/>
</linearGradient>
<linearGradient id="paint6_linear_5976_314401" x1="291.961" y1="26.008" x2="308.938" y2="71.3761" gradientUnits="userSpaceOnUse">
<stop stop-color="#FFC618"/>
<stop offset="0.31" stop-color="#FFAD19"/>
<stop offset="1" stop-color="#FF7D12"/>
</linearGradient>
<linearGradient id="paint7_linear_5976_314401" x1="302.418" y1="72.9674" x2="301.845" y2="66.8376" gradientUnits="userSpaceOnUse">
<stop offset="0.02" stop-color="#FFB619"/>
<stop offset="1" stop-color="#FFC619"/>
</linearGradient>
<linearGradient id="paint8_linear_5976_314401" x1="248.259" y1="82.7134" x2="287.302" y2="82.7134" gradientUnits="userSpaceOnUse">
<stop stop-color="#8CD9FF"/>
<stop offset="1" stop-color="#66BCFF"/>
</linearGradient>
<linearGradient id="paint9_linear_5976_314401" x1="311.1" y1="97.3036" x2="342.8" y2="97.3036" gradientUnits="userSpaceOnUse">
<stop stop-color="#8CD9FF"/>
<stop offset="1" stop-color="#66BCFF"/>
</linearGradient>
<linearGradient id="paint10_linear_5976_314401" x1="311.1" y1="97.3036" x2="342.8" y2="97.3036" gradientUnits="userSpaceOnUse">
<stop stop-color="#8CD9FF"/>
<stop offset="1" stop-color="#66BCFF"/>
</linearGradient>
<linearGradient id="paint11_linear_5976_314401" x1="300.291" y1="81.9238" x2="300.291" y2="121.594" gradientUnits="userSpaceOnUse">
<stop stop-color="#FF5D12"/>
<stop offset="0.5" stop-color="#FF7D12"/>
<stop offset="0.99" stop-color="#FFC619"/>
</linearGradient>
<linearGradient id="paint12_linear_5976_314401" x1="300.09" y1="89.6174" x2="300.09" y2="101.417" gradientUnits="userSpaceOnUse">
<stop offset="0.26" stop-color="#FFB619"/>
<stop offset="1" stop-color="#FFC619"/>
</linearGradient>
<linearGradient id="paint13_linear_5976_314401" x1="248.26" y1="82.7136" x2="287.303" y2="82.7136" gradientUnits="userSpaceOnUse">
<stop stop-color="#8CD9FF"/>
<stop offset="1" stop-color="#66BCFF"/>
</linearGradient>
<clipPath id="clip0_5976_314401">
<rect width="440" height="112" fill="white"/>
</clipPath>
</defs>
</svg>
