<svg width="84" height="84" viewBox="0 0 84 84" fill="none" xmlns="http://www.w3.org/2000/svg">
<g clipPath="url(#clip0_449_168866)">
<path d="M66 42C66 46.7468 64.5924 51.3869 61.9553 55.3337C59.3181 59.2805 55.5698 62.3566 51.1844 64.1731C46.799 65.9896 41.9734 66.4649 37.3178 65.5388C32.6623 64.6128 28.3859 62.327 25.0294 58.9706C21.673 55.6141 19.3872 51.3377 18.4612 46.6822C17.5351 42.0266 18.0104 37.201 19.8269 32.8156C21.6434 28.4302 24.7195 24.6819 28.6663 22.0447C32.6131 19.4076 37.2533 18 42 18C48.3652 18 54.4697 20.5286 58.9706 25.0294C63.4714 29.5303 66 35.6348 66 42Z" fill="#FFD836"/>
<path d="M35.0504 32.56C35.0504 30.997 33.7856 29.73 32.2254 29.73C30.6652 29.73 29.4004 30.997 29.4004 32.56V35.5C29.4004 37.0629 30.6652 38.33 32.2254 38.33C33.7856 38.33 35.0504 37.0629 35.0504 35.5V32.56Z" fill="#A63A0C"/>
<path d="M54.6002 32.56C54.6002 30.997 53.3354 29.73 51.7752 29.73C50.215 29.73 48.9502 30.997 48.9502 32.56V35.5C48.9502 37.0629 50.215 38.33 51.7752 38.33C53.3354 38.33 54.6002 37.0629 54.6002 35.5V32.56Z" fill="#A63A0C"/>
<path d="M32.2197 43.3701H51.7797V45.6401C51.7797 48.2339 50.7493 50.7215 48.9152 52.5556C47.0811 54.3897 44.5935 55.4201 41.9997 55.4201C39.4059 55.4201 36.9183 54.3897 35.0842 52.5556C33.2501 50.7215 32.2197 48.2339 32.2197 45.6401V43.3701Z" fill="#36393F"/>
<path d="M42.0001 55.4201C44.1094 55.4208 46.1624 54.7396 47.8528 53.4781C49.5433 52.2166 50.7805 50.4423 51.3801 48.4201C48.5233 46.7881 45.2902 45.9297 42.0001 45.9297C38.71 45.9297 35.4769 46.7881 32.6201 48.4201C33.2197 50.4423 34.457 52.2166 36.1474 53.4781C37.8379 54.7396 39.8908 55.4208 42.0001 55.4201Z" fill="#DE420D"/>
</g>
<defs>
<clipPath id="clip0_449_168866">
<rect width="48" height="48" fill="white" transform="translate(18 18)"/>
</clipPath>
</defs>
</svg>
