<svg xmlns="http://www.w3.org/2000/svg" viewBox="0 0 45 45" xml:space="preserve">
  <defs>
    <clipPath id="a" clipPathUnits="userSpaceOnUse">
      <path d="M0 36h36V0H0v36Z"/>
    </clipPath>
    <mask id="b">
      <g>
        <rect x="0" y="0" width="100" height="100" fill="white" />
        <path d="M11.708 29.849a1.296 1.296 0 1 0-2.591-.001 1.296 1.296 0 0 0 2.591 0" fill="black"/>
      </g>
    </mask>
  </defs>
  <g>
    <g>
      <g clip-path="url(#a)" transform="matrix(1.25 0 0 -1.25 0 45)" mask="url(#b)">
        <g>
          <path d="M12.75 18.25c1.226-2.195 1.855 1.361 9.313 2.625 7.457 1.264 13.728-4.454 13.859-5.413C36.053 14.504 31.474 6 26.459 6h-15.71C6.607 6 3.727 13.224 6.75 17.438c0 0 4.5 3.5 6 .812" fill="white"/>
        </g>
        <g>
          <path d="M13.008 17.864C8.02 10.927 6.968 6 10.75 6c-4.142 0-6.577 6.187-4.468 11.031.463 1.064 1.758 2.492 1.758 2.492l4.18.008c.162-.32.598-1.366.79-1.667" fill="white"/>
        </g>
        <g>
          <path d="M20.063 13.25c6.672 2.682 15.729 3.171 15.859 2.212.13-.958-4.448-9.462-9.463-9.462H11.813c-4.144 0 1.231 4.429 8.25 7.25" fill="white"/>
        </g>
        <g>
          <path d="M25.36 14.875c6 1.312 10.467 1.282 10.562.587.08-.578-1.559-3.907-3.973-6.454 2.204 2.804 1.42 6.113-6.59 5.867" fill="white"/>
        </g>
        <g>
          <path d="M7.125 29.875c1.562 4.937 10.439 4.143 10.063-.687-.378-4.829-6.454-7.86-4.18-11.324-1.586-1.38-5.015-.913-6.727-.833a149.082 149.082 0 0 0 1.813 3.406c2.915 5.235-2.132 5.764-.969 9.438" fill="white"/>
        </g>
        <g>
          <path d="M1.893 26.955c.568 1.1.549-.106 3.352-.142 1.554-.02 1.463.56 1.664 1.621.042.223.776-1.616 2.06-1.807 3.555-.53 1.88-1.94 0-2.26-.9-.155-2.01-.32-3.936-.156-2.52.212-3.768 1.528-3.14 2.744" fill="white"/>
        </g>
        <g>
          <path d="M12.502 19.375c.044-.625.506-1.511.506-1.511-1.016-1.473-5.643-3.016-7.354-2.929.096.627.283 1.362.627 2.096 1.844.471 4.66 1.071 6.221 2.344" fill="white"/>
        </g>
      </g>
    </g>
  </g>
</svg>
