<svg width="135" height="121" viewBox="0 0 135 121" fill="none" xmlns="http://www.w3.org/2000/svg">
<g clip-path="url(#clip0_1473_119342)">
<path opacity="0.2" d="M44.6491 30.562C44.6491 27.2491 42.2489 24.5 39.2839 24.5H33.707C30.742 24.5 28.3418 27.1786 28.3418 30.562C28.3418 31.1964 27.9182 31.7604 27.2829 31.7604H25.5886C23.0472 31.7604 21 34.0865 21 36.906H52.0615C52.0615 34.6504 50.4378 32.7472 48.3906 32.7472H46.6963C45.4962 32.7472 44.5785 31.7604 44.6491 30.562C44.6491 30.562 44.6491 30.6325 44.6491 30.562Z" fill="white"/>
<path opacity="0.2" d="M113.562 85.027H82.5C82.5706 82.2074 84.9002 80.0222 87.724 80.0927H93.3715C93.8657 80.0927 94.2893 79.7403 94.2893 79.2469C94.3599 75.8634 97.2542 73.1848 100.643 73.2553H100.925C104.314 73.1143 107.137 75.7929 107.279 79.2469V81.0091C107.279 81.9959 108.126 82.7713 109.114 82.7008H111.161C112.432 82.6303 113.491 83.6172 113.562 85.027C113.562 84.9565 113.562 84.9565 113.562 85.027Z" fill="white"/>
<path opacity="0.1" d="M38.5615 107.527H7.5C7.57059 104.707 9.90021 102.522 12.724 102.593H18.3715C18.8657 102.593 19.2893 102.24 19.2893 101.747C19.3599 98.3634 22.2542 95.6848 25.6427 95.7553H25.9251C29.3137 95.6143 32.1374 98.2929 32.2786 101.747V103.509C32.2786 104.496 33.1258 105.271 34.1141 105.201H36.1613C37.432 105.13 38.4909 106.117 38.5615 107.527C38.5615 107.456 38.5615 107.456 38.5615 107.527Z" fill="white"/>
<path opacity="0.1" d="M197.25 20.75H97.5C97.5 12.4085 104.978 5.71342 114.298 5.71342H132.476C134.086 5.71342 135.352 4.61587 135.352 3.07928C135.352 -7.01828 144.441 -15.25 155.716 -15.25H156.522C167.797 -15.25 176.886 -7.01828 176.886 3.07928V8.56708C177.001 11.5305 179.647 13.8354 182.753 13.8354H189.426C193.568 13.6159 197.135 16.7988 197.25 20.75Z" fill="white"/>
<g clip-path="url(#clip1_1473_119342)">
<path d="M91.4936 68.8466C91.5927 68.8486 91.6893 68.8159 91.7668 68.7544C91.8442 68.6928 91.8974 68.6062 91.9172 68.5096L94.6709 55.032C94.6832 54.9767 94.6842 54.9194 94.6737 54.8636C94.6631 54.8078 94.6414 54.7548 94.6098 54.7076C94.5781 54.6604 94.5372 54.62 94.4895 54.5889C94.4417 54.5578 94.3882 54.5366 94.332 54.5266C94.2763 54.5144 94.2187 54.5135 94.1626 54.5239C94.1065 54.5344 94.0531 54.556 94.0056 54.5875C93.9582 54.6189 93.9176 54.6596 93.8863 54.7071C93.855 54.7545 93.8337 54.8077 93.8236 54.8636L91.0699 68.3412C91.0557 68.4519 91.0822 68.5639 91.1444 68.6568C91.2067 68.7497 91.3006 68.817 91.4088 68.8466H91.4936Z" fill="#DAE2ED"/>
<path d="M58.2369 48.0827H66.4134C71.5395 48.0827 74.0391 45.6399 74.0391 45.6399V56.2535H68.9129C68.4469 53.6001 66.1168 52.4208 63.2784 52.4208H58.2793C57.9678 52.467 57.6499 52.4463 57.3471 52.36C57.0443 52.2737 56.7636 52.1239 56.524 51.9206C56.2844 51.7173 56.0915 51.4653 55.9582 51.1816C55.8248 50.8979 55.7543 50.5891 55.7512 50.2759C55.7482 49.9628 55.8127 49.6527 55.9404 49.3664C56.0682 49.0802 56.2562 48.8245 56.4918 48.6167C56.7273 48.4088 57.005 48.2536 57.3061 48.1615C57.6071 48.0694 57.9245 48.0425 58.2369 48.0827V48.0827Z" fill="#80A7FF"/>
<path d="M64.719 69.9838H66.7101C66.9573 69.9838 67.1944 70.0814 67.3692 70.2552C67.544 70.4289 67.6422 70.6646 67.6422 70.9104V75.0379C67.653 75.5818 67.8752 76.1005 68.2622 76.4852C68.6492 76.87 69.1709 77.0908 69.7181 77.1016C70.2652 77.0908 70.787 76.87 71.1739 76.4852C71.5609 76.1005 71.7831 75.5818 71.7939 75.0379V57.6855C71.7828 57.0784 71.5325 56.5 71.0967 56.0747C70.6609 55.6493 70.0746 55.411 69.4639 55.4111H62.4313C61.8245 55.4111 61.2427 55.6508 60.8136 56.0773C60.3846 56.5038 60.1436 57.0823 60.1436 57.6855V65.393C60.138 65.9938 60.2522 66.5899 60.4796 67.1466C60.7071 67.7034 61.0432 68.2098 61.4686 68.6366C61.894 69.0635 62.4003 69.4023 62.9582 69.6335C63.5161 69.8648 64.1146 69.9838 64.719 69.9838V69.9838Z" fill="#80A7FF"/>
<path d="M62.0921 49.7674C63.0256 48.4916 64.2487 47.4529 65.6622 46.7356C67.0756 46.0184 68.6393 45.643 70.2262 45.6399H83.8254C85.4321 45.6399 86.973 46.2744 88.1091 47.4039C89.2453 48.5334 89.8835 50.0653 89.8835 51.6627V62.6975C89.8836 63.7626 89.4609 64.7846 88.7074 65.5417C87.9538 66.2988 86.9302 66.7296 85.8589 66.7407H66.1592C64.5598 66.7296 63.0297 66.0902 61.9027 64.9619C60.7757 63.8336 60.1433 62.308 60.1433 60.7179V55.6639C60.1402 53.5415 60.8234 51.4743 62.0921 49.7674V49.7674Z" fill="#9CB8FF"/>
<path fill-rule="evenodd" clip-rule="evenodd" d="M46.2053 96.8126C50.044 98.5638 54.3189 99.1439 58.4893 98.4794C62.6596 97.815 66.5381 95.9359 69.634 93.0798C72.73 90.2237 74.9044 86.519 75.8823 82.4342C76.8601 78.3494 76.5974 74.068 75.1274 70.1317C73.6574 66.1953 71.0462 62.7808 67.624 60.32C64.2017 57.8592 60.1223 56.4627 55.9016 56.3071C51.681 56.1515 47.5087 57.2438 43.9126 59.4459C40.3164 61.6479 37.458 64.8608 35.6988 68.6781C33.3641 73.7974 33.1583 79.6263 35.1261 84.8957C37.0939 90.1651 41.076 94.4482 46.2053 96.8126V96.8126Z" fill="#4F5D7F"/>
<path fill-rule="evenodd" clip-rule="evenodd" d="M77.3858 81.6503H84.3337C84.6184 81.6394 84.8878 81.5193 85.0853 81.3151C85.2828 81.1109 85.393 80.8386 85.3928 80.5553V76.849C85.3928 76.5697 85.2812 76.3019 85.0826 76.1044C84.884 75.907 84.6146 75.796 84.3337 75.796H77.3858C77.1049 75.796 76.8356 75.907 76.6369 76.1044C76.4383 76.3019 76.3267 76.5697 76.3267 76.849V80.5553C76.3265 80.8386 76.4367 81.1109 76.6342 81.3151C76.8317 81.5193 77.1011 81.6394 77.3858 81.6503V81.6503Z" fill="#FF5C5C"/>
<path fill-rule="evenodd" clip-rule="evenodd" d="M63.7867 83.7562H80.4785C81.3324 83.7562 82.1514 83.419 82.7552 82.8187C83.359 82.2184 83.6982 81.4042 83.6982 80.5553V74.9115C83.6872 74.405 83.477 73.923 83.1127 73.5687C82.7484 73.2144 82.259 73.0161 81.7495 73.0162H63.7867V83.7562Z" fill="#B7C2CE"/>
<path fill-rule="evenodd" clip-rule="evenodd" d="M90.5615 72.4687H87.6383C86.0198 72.4693 84.4669 73.105 83.3171 74.2376L81.9614 75.6275C79.7853 77.7724 76.8493 78.9823 73.785 78.9969H62.0499V70.1522H90.5615V72.4687Z" fill="black"/>
<path d="M91.324 66.7407H64.2952V72.4687H91.324C92.0881 72.4687 92.8208 72.167 93.3611 71.6299C93.9013 71.0928 94.2048 70.3643 94.2048 69.6047V69.6047C94.2048 68.8451 93.9013 68.1167 93.3611 67.5796C92.8208 67.0425 92.0881 66.7407 91.324 66.7407V66.7407Z" fill="black"/>
<path fill-rule="evenodd" clip-rule="evenodd" d="M49.3402 90.0738C51.838 91.2193 54.6216 91.6021 57.3383 91.1737C60.0551 90.7452 62.5829 89.5247 64.6014 87.6669C66.6199 85.809 68.0384 83.3974 68.6771 80.7374C69.3158 78.0775 69.1461 75.2889 68.1893 72.725C67.2326 70.161 65.5319 67.937 63.3028 66.3347C61.0736 64.7325 58.4163 63.824 55.6673 63.7244C52.9184 63.6248 50.2015 64.3385 47.861 65.7752C45.5204 67.2119 43.6614 69.3069 42.5194 71.7948C41.0051 75.1205 40.8721 78.9059 42.1493 82.3285C43.4264 85.7512 46.0106 88.5345 49.3402 90.0738V90.0738Z" fill="#7687B2"/>
<path d="M78.1908 65.393V54.4424C78.1908 53.7264 78.5297 49.3462 79.0381 45.6399H83.8254C85.3721 45.6476 86.8581 46.239 87.9828 47.2946C89.1075 48.3502 89.7869 49.7911 89.8835 51.3257V75.0379C89.8727 75.5818 89.6505 76.1005 89.2635 76.4853C88.8766 76.87 88.3548 77.0909 87.8077 77.1016C87.2605 77.0909 86.7388 76.87 86.3518 76.4853C85.9648 76.1005 85.7426 75.5818 85.7318 75.0379V70.9104C85.7318 70.6646 85.6336 70.4289 85.4588 70.2552C85.284 70.0814 85.0469 69.9838 84.7997 69.9838H82.8086C81.5839 69.9838 80.4093 69.5001 79.5433 68.6392C78.6773 67.7782 78.1908 66.6105 78.1908 65.393V65.393Z" fill="#80A7FF"/>
<path d="M53.3649 65.056L59.1689 50.8203H57.6014C57.5367 50.8262 57.4715 50.8186 57.41 50.7979C57.3485 50.7773 57.292 50.7441 57.2441 50.7005C57.1962 50.6568 57.1581 50.6038 57.1321 50.5446C57.106 50.4855 57.0927 50.4216 57.093 50.357C57.093 50.2907 57.1061 50.2249 57.1317 50.1636C57.1572 50.1023 57.1947 50.0466 57.2419 49.9997C57.2891 49.9527 57.3451 49.9155 57.4068 49.8901C57.4685 49.8647 57.5346 49.8516 57.6014 49.8516H69.2941C69.4289 49.8516 69.5582 49.9049 69.6536 49.9997C69.7489 50.0944 69.8025 50.223 69.8025 50.357C69.7918 50.4836 69.7336 50.6016 69.6394 50.6875C69.5452 50.7733 69.4219 50.8208 69.2941 50.8203H60.9906C60.7623 50.821 60.5395 50.8895 60.3508 51.0171C60.162 51.1447 60.016 51.3255 59.9314 51.5363L54.2969 65.4351C54.261 65.5272 54.1964 65.6055 54.1126 65.6585C54.0287 65.7116 53.93 65.7366 53.8309 65.7299H53.6614C53.5337 65.6653 53.4299 65.5621 53.3649 65.4351C53.3229 65.3122 53.3229 65.1789 53.3649 65.056V65.056Z" fill="#EBEFF7"/>
<path d="M67.5148 48.0827H75.7336C76.0543 48.0828 76.3718 48.0193 76.6676 47.896C76.9633 47.7727 77.2314 47.5921 77.4562 47.3647C77.681 47.1373 77.858 46.8677 77.9769 46.5715C78.0957 46.2754 78.154 45.9587 78.1484 45.6399H83.3169V56.2535H78.1907C77.7247 53.6001 75.3946 52.4208 72.5562 52.4208H67.5995C67.2886 52.4697 66.9707 52.4518 66.6673 52.3682C66.3639 52.2847 66.0821 52.1375 65.8408 51.9365C65.5995 51.7356 65.4043 51.4855 65.2683 51.2032C65.1324 50.921 65.0589 50.613 65.0528 50.3001C65.0467 49.9872 65.1081 49.6766 65.2329 49.3893C65.3577 49.102 65.543 48.8446 65.7763 48.6345C66.0096 48.4244 66.2855 48.2664 66.5853 48.1712C66.8852 48.076 67.2021 48.0459 67.5148 48.0827V48.0827Z" fill="#80A7FF"/>
<path fill-rule="evenodd" clip-rule="evenodd" d="M84.9692 45.7662H67.4301C65.9206 45.7663 64.4722 45.173 63.4009 44.1158C62.3295 43.0586 61.722 41.6232 61.7108 40.1225V29.6774C61.722 28.1767 62.3295 26.7413 63.4009 25.6841C64.4722 24.6268 65.9206 24.0336 67.4301 24.0336H84.9692C86.4787 24.0336 87.9271 24.6268 88.9984 25.6841C90.0698 26.7413 90.6773 28.1767 90.6885 29.6774V40.1225C90.6773 41.6232 90.0698 43.0586 88.9984 44.1158C87.9271 45.173 86.4787 45.7663 84.9692 45.7662V45.7662Z" fill="#80A7FF"/>
<path fill-rule="evenodd" clip-rule="evenodd" d="M81.2834 45.7662H63.7019C62.1963 45.7662 60.7524 45.1716 59.6878 44.1132C58.6231 43.0548 58.025 41.6193 58.025 40.1225V29.6774C58.025 28.1806 58.6231 26.745 59.6878 25.6866C60.7524 24.6282 62.1963 24.0336 63.7019 24.0336H81.2834C82.7929 24.0336 84.2413 24.6268 85.3126 25.6841C86.384 26.7413 86.9915 28.1767 87.0027 29.6774V40.1225C86.9915 41.6232 86.384 43.0586 85.3126 44.1158C84.2413 45.173 82.7929 45.7663 81.2834 45.7662V45.7662Z" fill="#9CB8FF"/>
<path fill-rule="evenodd" clip-rule="evenodd" d="M88.9939 38.8168H84.7998V28.6665H88.9939C89.4927 28.6665 89.9864 28.7648 90.4467 28.9558C90.9069 29.1468 91.3245 29.4267 91.6752 29.7792C92.0258 30.1318 92.3027 30.55 92.4897 31.0097C92.6766 31.4693 92.77 31.9613 92.7644 32.4571V35.0684C92.7644 36.0625 92.3672 37.0159 91.6601 37.7189C90.953 38.4219 89.9939 38.8168 88.9939 38.8168Z" fill="#9CB8FF"/>
<path fill-rule="evenodd" clip-rule="evenodd" d="M84.7997 36.5846V30.9409C84.7997 30.8404 84.8399 30.7439 84.9114 30.6729C84.9829 30.6018 85.0799 30.5618 85.181 30.5618H88.9938C89.4921 30.5728 89.9662 30.7774 90.3146 31.1316C90.663 31.4859 90.858 31.9617 90.8579 32.4571V35.0684C90.858 35.5638 90.663 36.0396 90.3146 36.3939C89.9662 36.7481 89.4921 36.9527 88.9938 36.9637H85.181C85.0799 36.9637 84.9829 36.9237 84.9114 36.8527C84.8399 36.7816 84.7997 36.6852 84.7997 36.5846V36.5846Z" fill="#80A7FF"/>
<path fill-rule="evenodd" clip-rule="evenodd" d="M78.1909 35.5317C77.8222 35.5317 77.4618 35.423 77.1553 35.2194C76.8487 35.0158 76.6098 34.7263 76.4687 34.3877C76.3276 34.0491 76.2907 33.6765 76.3626 33.317C76.4346 32.9575 76.6121 32.6273 76.8728 32.3682C77.1335 32.109 77.4656 31.9325 77.8272 31.861C78.1888 31.7895 78.5636 31.8262 78.9042 31.9664C79.2448 32.1067 79.536 32.3442 79.7408 32.649C79.9456 32.9537 80.0549 33.312 80.0549 33.6785C80.0441 34.1667 79.8443 34.6318 79.497 34.9771C79.1497 35.3223 78.6819 35.521 78.1909 35.5317V35.5317Z" fill="black"/>
<path fill-rule="evenodd" clip-rule="evenodd" d="M57.8557 29.6774H70.777C71.3837 29.6774 71.9656 29.917 72.3946 30.3435C72.8237 30.77 73.0647 31.3485 73.0647 31.9517V34.563C73.0535 36.0637 72.446 37.4991 71.3747 38.5563C70.3033 39.6135 68.855 40.2068 67.3454 40.2067H61.2872C59.7777 40.2068 58.3294 39.6135 57.258 38.5563C56.1866 37.4991 55.5791 36.0637 55.568 34.563V31.9517C55.568 31.3485 55.809 30.77 56.238 30.3435C56.667 29.917 57.2489 29.6774 57.8557 29.6774V29.6774Z" fill="#B8D0FF"/>
<path fill-rule="evenodd" clip-rule="evenodd" d="M64.7186 40.2067H61.287C59.7775 40.2068 58.3292 39.6135 57.2578 38.5563C56.1864 37.4991 55.5789 36.0637 55.5678 34.563V31.9517C55.5678 31.3485 55.8088 30.77 56.2378 30.3435C56.6668 29.917 57.2487 29.6774 57.8555 29.6774H68.1078C68.7145 29.6774 69.2964 29.917 69.7255 30.3435C70.1545 30.77 70.3955 31.3485 70.3955 31.9517V34.563C70.3955 36.0598 69.7974 37.4953 68.7328 38.5537C67.6682 39.6121 66.2242 40.2067 64.7186 40.2067V40.2067Z" fill="#CBDAF7"/>
<path fill-rule="evenodd" clip-rule="evenodd" d="M63.1512 35.9529H65.6507C65.7731 35.9529 65.8943 35.9768 66.0074 36.0234C66.1205 36.07 66.2232 36.1382 66.3098 36.2243C66.3963 36.3103 66.465 36.4125 66.5118 36.5249C66.5587 36.6373 66.5828 36.7578 66.5828 36.8795C66.5885 37.0046 66.5686 37.1297 66.5244 37.247C66.4801 37.3643 66.4124 37.4715 66.3252 37.5621C66.2381 37.6526 66.1334 37.7247 66.0175 37.7738C65.9016 37.823 65.7768 37.8483 65.6507 37.8482H63.1512C63.0252 37.8483 62.9004 37.823 62.7845 37.7738C62.6685 37.7247 62.5639 37.6526 62.4767 37.5621C62.3896 37.4715 62.3219 37.3643 62.2776 37.247C62.2333 37.1297 62.2135 37.0046 62.2192 36.8795C62.2192 36.7578 62.2433 36.6373 62.2901 36.5249C62.337 36.4125 62.4056 36.3103 62.4922 36.2243C62.5787 36.1382 62.6815 36.07 62.7945 36.0234C62.9076 35.9768 63.0288 35.9529 63.1512 35.9529V35.9529ZM58.7029 35.9529H59.6773C59.7997 35.9529 59.9209 35.9768 60.034 36.0234C60.147 36.07 60.2498 36.1382 60.3363 36.2243C60.4229 36.3103 60.4915 36.4125 60.5384 36.5249C60.5852 36.6373 60.6093 36.7578 60.6093 36.8795C60.615 37.0046 60.5952 37.1297 60.5509 37.247C60.5066 37.3643 60.4389 37.4715 60.3518 37.5621C60.2646 37.6526 60.16 37.7247 60.044 37.7738C59.9281 37.823 59.8033 37.8483 59.6773 37.8482H58.7029C58.5768 37.8483 58.4521 37.823 58.3362 37.7738C58.2202 37.7247 58.1155 37.6526 58.0284 37.5621C57.9413 37.4715 57.8735 37.3643 57.8293 37.247C57.785 37.1297 57.7651 37.0046 57.7709 36.8795C57.7709 36.7578 57.795 36.6373 57.8418 36.5249C57.8886 36.4125 57.9573 36.3103 58.0438 36.2243C58.1304 36.1382 58.2331 36.07 58.3462 36.0234C58.4593 35.9768 58.5805 35.9529 58.7029 35.9529V35.9529Z" fill="#9CB8FF"/>
<path fill-rule="evenodd" clip-rule="evenodd" d="M64.2105 42.4389H62.6853C62.5168 42.4389 62.3552 42.3724 62.236 42.2539C62.1168 42.1354 62.0499 41.9747 62.0499 41.8072C62.0606 41.647 62.1323 41.497 62.2503 41.3874C62.3684 41.2779 62.5239 41.2172 62.6853 41.2175H64.2105C64.3719 41.2172 64.5275 41.2779 64.6455 41.3874C64.7635 41.497 64.8352 41.647 64.8459 41.8072C64.8459 41.9747 64.779 42.1354 64.6598 42.2539C64.5406 42.3724 64.379 42.4389 64.2105 42.4389Z" fill="#80A7FF"/>
<path fill-rule="evenodd" clip-rule="evenodd" d="M75.3525 17.8845C75.3525 17.8845 82.2156 32.9625 83.5713 36.3319C85.4777 41.2175 93.6965 40.6279 93.6965 33.6785L75.3525 17.8845Z" fill="#D0D9EA"/>
<path fill-rule="evenodd" clip-rule="evenodd" d="M59.4231 23.7809C59.4231 23.7809 64.1679 17 76.708 17C89.248 17 95.052 25.8447 95.052 32.794C95.052 39.7434 86.8332 40.3331 84.8844 35.4474C83.5711 32.0781 81.1563 26.7291 81.1563 26.7291H59.4231V23.7809Z" fill="#EBEFF7"/>
<path fill-rule="evenodd" clip-rule="evenodd" d="M67.8962 23.1913L64.6341 23.0649C64.6341 23.0649 66.71 18.8111 73.7425 17.1264C74.6746 17.0421 75.649 17 76.7081 17C77.5852 16.998 78.4619 17.0402 79.3347 17.1264C76.1573 17.5054 70.9464 18.8111 67.8962 23.1913Z" fill="#D0D9EA"/>
<path fill-rule="evenodd" clip-rule="evenodd" d="M81.1562 26.7291H51.3737C51.3737 26.7291 55.9915 22.7701 66.1167 22.8965C76.2419 23.0228 81.1562 26.7291 81.1562 26.7291Z" fill="black"/>
<path fill-rule="evenodd" clip-rule="evenodd" d="M88.3584 32.2887C88.5279 33.9313 89.8412 35.1105 91.2392 34.9421C92.6373 34.7736 93.5693 33.3416 93.3998 31.699C93.2304 30.0565 91.8747 28.835 90.4766 29.0035C89.0786 29.172 88.1466 30.6461 88.3584 32.2887Z" fill="#D0D9EA"/>
<path fill-rule="evenodd" clip-rule="evenodd" d="M90.0107 29.1298C90.5189 29.3605 90.958 29.7186 91.2848 30.1691C91.6116 30.6195 91.8149 31.1468 91.8747 31.699C92.0442 33.131 91.324 34.4366 90.2225 34.8578C89.7065 34.6381 89.2604 34.2828 88.932 33.8302C88.6037 33.3777 88.4054 32.8447 88.3585 32.2886C88.1466 30.8566 88.8668 29.551 90.0107 29.1298Z" fill="#7687B2"/>
<path fill-rule="evenodd" clip-rule="evenodd" d="M36.4614 65.8141C37.4358 68.9308 48.027 73.8586 54.7207 76.3856C59.6774 74.8694 71.7938 70.4892 73.7426 66.7828C73.9479 66.4724 74.0238 66.0949 73.9544 65.7299L73.7849 65.3508C70.0992 59.8334 64.5494 56.2956 58.1523 55.4111C50.0605 54.3161 42.0112 57.896 36.5885 64.9718C36.5041 65.0933 36.4488 65.2323 36.4268 65.3783C36.4048 65.5243 36.4166 65.6734 36.4614 65.8141V65.8141Z" fill="#FF7F14"/>
<path fill-rule="evenodd" clip-rule="evenodd" d="M54.6784 77.4807C54.6784 77.4807 70.5229 59.665 67.7691 57.8961C64.9041 56.0413 61.6647 54.8337 58.2794 54.3582C49.1709 53.1368 40.9521 57.517 35.7412 64.3401C32.0555 69.1836 54.6784 77.4807 54.6784 77.4807Z" fill="#FF903E"/>
<path fill-rule="evenodd" clip-rule="evenodd" d="M37.9442 61.8551C37.9272 62.8417 38.2738 63.8004 38.9186 64.5506C42.1383 68.7623 53.7887 73.4795 57.1355 74.743C56.2458 76.9331 55.4409 78.3651 54.9749 78.5336L54.636 78.6178L54.297 78.4915C53.7039 78.2809 38.9609 72.8056 35.2328 67.9621C33.6653 65.8984 34.3431 64.3821 34.8939 63.7082C36.4614 61.6445 38.0289 61.1812 37.9442 61.8551Z" fill="#DAE2ED"/>
<path fill-rule="evenodd" clip-rule="evenodd" d="M50.23 88.1364C52.3391 89.1016 54.6889 89.4231 56.9819 89.0602C59.2749 88.6973 61.408 87.6663 63.1115 86.0977C64.8149 84.5291 66.0119 82.4934 66.5512 80.2483C67.0904 78.0031 66.9476 75.6493 66.1408 73.4848C65.334 71.3204 63.8995 69.4425 62.0188 68.0888C60.138 66.7352 57.8957 65.9666 55.5754 65.8803C53.2552 65.7941 50.9613 66.3941 48.9842 67.6043C47.007 68.8146 45.4355 70.5807 44.4683 72.6793C43.1734 75.489 43.0529 78.6946 44.1331 81.5926C45.2133 84.4906 47.4061 86.8441 50.23 88.1364V88.1364Z" fill="#EBEFF7"/>
<path fill-rule="evenodd" clip-rule="evenodd" d="M51.0347 86.4517C53.4181 87.5253 56.1317 87.6186 58.5839 86.7113C61.0361 85.804 63.0281 83.9696 64.1255 81.6082C64.9366 79.8432 65.2031 77.8789 64.8914 75.9634C64.5797 74.0479 63.7038 72.2672 62.3744 70.8465C61.045 69.4257 59.3218 68.4287 57.4225 67.9814C55.5233 67.5341 53.5333 67.6566 51.704 68.3334C49.8748 69.0102 48.2884 70.2109 47.1455 71.7839C46.0025 73.3568 45.3543 75.2312 45.2826 77.1703C45.211 79.1094 45.7192 81.0261 46.7431 82.6781C47.7669 84.3302 49.2604 85.6433 51.0347 86.4517V86.4517Z" fill="#DAE2ED"/>
<path fill-rule="evenodd" clip-rule="evenodd" d="M50.8656 71.7527L47.7729 77.1016C47.6708 77.2585 47.6165 77.4413 47.6165 77.6281C47.6165 77.8149 47.6708 77.9978 47.7729 78.1546L50.8656 83.5035C50.9604 83.6668 51.096 83.803 51.2593 83.899C51.4226 83.9949 51.608 84.0473 51.7976 84.051H58.0676C58.2573 84.0473 58.4427 83.9949 58.606 83.899C58.7693 83.803 58.9049 83.6668 58.9997 83.5035L62.0923 78.1546C62.1944 77.9978 62.2488 77.8149 62.2488 77.6281C62.2488 77.4413 62.1944 77.2585 62.0923 77.1016L58.9997 71.7527C58.9049 71.5894 58.7693 71.4532 58.606 71.3573C58.4427 71.2613 58.2573 71.209 58.0676 71.2052H51.7976C51.608 71.209 51.4226 71.2613 51.2593 71.3573C51.096 71.4532 50.9604 71.5894 50.8656 71.7527V71.7527Z" fill="#C5CEDD"/>
<path d="M55.1441 80.9343C53.2489 80.9343 51.7126 79.4069 51.7126 77.5228C51.7126 75.6387 53.2489 74.1113 55.1441 74.1113C57.0393 74.1113 58.5757 75.6387 58.5757 77.5228C58.5757 79.4069 57.0393 80.9343 55.1441 80.9343Z" fill="white"/>
<path d="M94.5861 55.4111C97.2551 54.7372 97.933 56.8852 102 57.0958C98.1872 59.4123 97.4669 58.0224 93.5694 60.5073L94.5861 55.4111Z" fill="#FF903E"/>
<path d="M55.1443 98.75H74.1239C75.2513 98.7389 76.3288 98.2858 77.1221 97.4893C77.9154 96.6927 78.3604 95.6171 78.3604 94.4961V94.4961C78.3604 93.3791 77.914 92.3078 77.1195 91.518C76.325 90.7281 75.2474 90.2844 74.1239 90.2844H71.709C70.6101 90.2766 69.5205 90.4847 68.5027 90.8967C67.4849 91.3087 66.5589 91.9164 65.7779 92.6851L64.7612 93.738C63.4151 95.0523 61.6064 95.7928 59.7198 95.8018H58.1099C57.3234 95.8018 56.5691 96.1124 56.0129 96.6653C55.4568 97.2182 55.1443 97.9681 55.1443 98.75V98.75Z" fill="#EBEFF7"/>
<path d="M80.648 90.2844H85.9013C86.5798 90.2844 87.1299 90.8313 87.1299 91.5058V91.5437C87.1299 92.2183 86.5798 92.7651 85.9013 92.7651H80.648C79.9695 92.7651 79.4195 92.2183 79.4195 91.5437V91.5058C79.4195 90.8313 79.9695 90.2844 80.648 90.2844Z" fill="#EBEFF7"/>
<path d="M74.8865 96.4756H79.0383C79.67 96.4756 80.1821 96.981 80.1821 97.6044C80.1821 98.2278 79.67 98.7331 79.0383 98.7331H74.8865C74.2548 98.7331 73.7427 98.2278 73.7427 97.6044C73.7427 96.981 74.2548 96.4756 74.8865 96.4756Z" fill="#EBEFF7"/>
</g>
</g>
<defs>
<clipPath id="clip0_1473_119342">
<rect width="135" height="120" fill="white" transform="translate(0 0.5)"/>
</clipPath>
<clipPath id="clip1_1473_119342">
<rect width="68.25" height="81.75" fill="white" transform="matrix(-1 0 0 1 102 17)"/>
</clipPath>
</defs>
</svg>
