<svg height="82" viewBox="0 0 181 82" width="181" xmlns="http://www.w3.org/2000/svg"><g fill="none" fill-rule="evenodd"><path d="m113.0934 59.2275v-37.72c-.657.267-1.435.426-2.294.426s-1.637-.159-2.294-.426v4.966c0 .552-.448 1-1 1v3.701c.552 0 1 .448 1 1v27.053c0 .079-.009.157-.028.234l-1.729 7.188v12.163c0 .85.691 1.54 1.541 1.54.786 0 1.445-.589 1.531-1.371l1.514-13.675c.061-.55.568-.939 1.104-.885.058.007.106.035.159.051l1.226-4.299c-.418-.12-.73-.489-.73-.946" fill="#fff"/><path d="m141.1187 76.7168c0 2.005 1.631 3.636 3.636 3.636s3.636-1.631 3.636-3.636c0-.021-.006-.041-.006-.062h-7.26c0 .021-.006.041-.006.062" fill="#f6f6f7"/><path d="m142.973 70.946h3.563v-28.637h-3.563z" fill="#dcddde"/><path d="m140.1187 72.9458c-.471 0-.854.383-.854.854 0 .472.383.855.854.855h9.272c.471 0 .854-.383.854-.855 0-.471-.383-.854-.854-.854z" fill="#fff"/><path d="m149.379 19.6133c-1.367-.924-2.966-1.412-4.624-1.412-4.562 0-8.272 3.711-8.272 8.272s3.71 8.272 8.272 8.272c4.138 0 7.664-3.089 8.201-7.185.069-.526.538-.888 1.059-.857.002-.077.012-.153.012-.23 0-.577-.06-1.14-.161-1.688-.075.018-.151.034-.225.034-.431 0-.829-.281-.958-.715-.163-.546-.383-1.076-.656-1.576-.254-.468-.089-1.041.356-1.32-.469-.679-1.026-1.292-1.656-1.823-.319.416-.906.526-1.348.228" fill="#f6f6f7"/><path d="m140.1187 36.7451c-.982 0-1.782.799-1.782 1.782 0 .982.8 1.781 1.782 1.781h9.272c.982 0 1.782-.799 1.782-1.781 0-.983-.8-1.782-1.782-1.782z" fill="#fff"/><path d="m110.7994 18.2011c-1.505 0-2.294.644-2.294.866 0 .223.789.866 2.294.866s2.294-.643 2.294-.866c0-.222-.789-.866-2.294-.866" fill="#dcddde"/><path d="m124.69 26.6811c-.074-.083-.288-.15-.643-.15-.376 0-.908.075-1.601.292-1.297.405-2.498 1.088-3.014 1.552-.926.834-1 2.266-.167 3.192.834.925 2.265 1 3.192.166 1.33-1.198 2.77-4.456 2.233-5.052" fill="#f6f6f7"/><path d="m31.9537 33.1206c0-.552.448-1 1-1s1 .448 1 1v1.595c0 .552-.448 1-1 1s-1-.448-1-1zm0 26.507v-19.7c0-.552.448-1 1-1s1 .448 1 1v19.7h6.345v-31.662l-7.345-9.165-7.345 9.165v31.662z" fill="#dcddde"/><path d="m36.5899 70.5371v-4.121h-7.272v8.373h8.272v-3.252c-.552 0-1-.448-1-1m-9.3052 6.2524c-.413 0-.749.336-.749.749v2.066c0 .413.336.748.749.748h11.338c.413 0 .749-.335.749-.748v-2.066c0-.413-.336-.749-.749-.749zm18.1123-15.1616h-24.886c-.768 0-1.393.625-1.393 1.392 0 .772.625 1.396 1.393 1.396h5.098 2.709 9.272 2.709 5.098c.768 0 1.392-.624 1.392-1.392 0-.771-.624-1.396-1.392-1.396" fill="#fff"/><g fill="#b9bbbe"><path d="m142.9732 69.1645v-25.075c0-.984.798-1.781 1.782-1.781s1.781.797 1.781 1.781v25.075c0 .984-.797 1.781-1.781 1.781s-1.782-.797-1.782-1.781m5.417 7.552c0 2.005-1.63 3.636-3.635 3.636s-3.636-1.631-3.636-3.636c0-.021.005-.041.006-.062h7.259c.001.021.006.041.006.062m1.855-2.916c0 .471-.383.854-.855.854h-9.271c-.472 0-.855-.383-.855-.854s.383-.855.855-.855h9.271c.472 0 .855.384.855.855m.927-35.274c0 .983-.799 1.782-1.782 1.782h-9.271c-.983 0-1.782-.799-1.782-1.782 0-.982.799-1.781 1.782-1.781h9.271c.983 0 1.782.799 1.782 1.781m3.767-10.706c.072-.548-.314-1.05-.862-1.122-.021-.003-.041.006-.062.005-.521-.032-.99.331-1.059.857-.628 4.787-5.338 8.199-10.337 6.911-3.063-.789-5.444-3.368-6-6.48-.936-5.226 3.077-9.79 8.136-9.79 1.658 0 3.257.488 4.624 1.412.442.298 1.029.188 1.347-.228.013-.016.03-.024.041-.041.31-.458.189-1.079-.268-1.388-2.138-1.445-4.732-2.033-7.352-1.632-4.53.692-8.116 4.465-8.604 9.022-.425 3.971 1.43 7.551 4.416 9.599-1.706.555-2.893 2.271-2.569 4.223.307 1.845 2.003 3.14 3.874 3.14h.004c.39 0 .705.316.705.705v27.227c0 .389-.315.705-.705.705-1.501 0-2.854 1.093-2.991 2.588-.123 1.339.69 2.502 1.854 2.935-.003.083-.012.164-.012.248 0 3.108 2.528 5.636 5.636 5.636 3.107 0 5.635-2.528 5.635-5.636 0-.084-.008-.165-.012-.248 1.262-.47 2.112-1.795 1.804-3.275-.28-1.346-1.565-2.248-2.94-2.248-.39 0-.706-.316-.706-.705v-27.227c0-.389.316-.705.706-.705h.003c1.723 0 3.342-1.08 3.788-2.744.568-2.118-.667-4.034-2.494-4.622 2.342-1.602 4.01-4.144 4.4-7.122"/><path d="m152.0274 22.5278c.272.5.493 1.03.655 1.576.13.434.528.715.958.715.075 0 .151-.016.226-.033.02-.005.04-.003.06-.009.53-.158.831-.715.673-1.244-.202-.679-.477-1.339-.815-1.961-.264-.486-.872-.664-1.357-.4-.017.009-.027.026-.044.037-.445.278-.61.852-.356 1.319m-40.6928 42.7783-1.514 13.676c-.087.782-.745 1.371-1.531 1.371-.85 0-1.541-.691-1.541-1.541v-12.163l1.729-7.188c.019-.076.028-.155.028-.234v-27.053c0-.552-.448-1-1-1s-1 .448-1 1v26.935l-1.729 7.188c-.019.076-.028.155-.028.234v12.281c0 1.952 1.588 3.541 3.541 3.541 1.807 0 3.32-1.355 3.519-3.151l1.514-13.676c.054-.491-.265-.921-.725-1.053-.054-.016-.101-.045-.159-.051-.536-.055-1.043.335-1.104.884"/><path d="m122.4566 31.7334c-.927.833-2.358.758-3.191-.167-.834-.925-.759-2.357.166-3.191.516-.464 1.717-1.147 3.015-1.552.692-.217 1.225-.293 1.6-.293.356 0 .57.068.643.151.538.596-.903 3.854-2.233 5.052m-11.657-11.8c-1.506 0-2.294-.643-2.294-.866s.788-.866 2.294-.866c1.505 0 2.294.643 2.294.866s-.789.866-2.294.866m7.294 6.956c-1.529 1.378-1.825 3.619-.819 5.327l-1.255 1.177c-.352.329-.926.08-.926-.401v-13.937c0-.01-.006-.019-.006-.029-.032-1.613-1.861-2.825-4.288-2.825-2.426 0-4.257 1.212-4.288 2.825 0 .01-.006.019-.006.029v7.418c0 .552.448 1 1 1s1-.448 1-1v-2.374c0-1.238 1.031-2.17 2.268-2.166h.026.026c1.237-.004 2.268.928 2.268 2.166v35.128c0 .457.312.826.73.946.088.025.174.054.27.054.552 0 1-.448 1-1v-18.959c0-2.083.862-4.074 2.382-5.498l1.205-1.13c.689.434 1.472.672 2.266.672 1.016 0 2.035-.361 2.848-1.093.815-.734 1.762-2.152 2.356-3.529.835-1.936.844-3.439.026-4.348-1.869-2.077-6.738.336-8.083 1.547m-85.1399 8.8259c.552 0 1-.448 1-1v-1.595c0-.552-.448-1-1-1s-1 .448-1 1v1.595c0 .552.448 1 1 1"/><path d="m39.3717 77.5381v2.066c0 .413-.336.749-.749.749h-11.338c-.413 0-.748-.336-.748-.749v-2.066c0-.413.335-.749.748-.749h11.338c.413 0 .749.336.749.749zm-6.418-58.738 4.996 6.234c1.521 1.897 2.349 4.256 2.349 6.688v24.733c0 1.752-1.42 3.173-3.172 3.173h-.001c-1.752 0-3.172-1.421-3.172-3.173v-16.527c0-.553-.448-1-1-1s-1 .447-1 1v16.527c0 1.752-1.42 3.173-3.172 3.173s-3.173-1.421-3.173-3.173v-24.733c0-2.432.829-4.791 2.349-6.688zm12.443 45.616h-5.098-2.709-9.272-2.709-5.098c-.768 0-1.392-.625-1.392-1.396 0-.768.624-1.392 1.392-1.392h24.886c.768 0 1.392.624 1.392 1.396 0 .767-.624 1.392-1.392 1.392zm-.09-4.788h-1.474c-.847 0-1.534-.687-1.534-1.534v-30.48c0-.227-.077-.448-.219-.625l-8.346-10.413c-.4-.5-1.16-.5-1.56 0l-8.345 10.413c-.142.177-.22.398-.22.625v30.48c0 .847-.686 1.534-1.533 1.534h-1.463c-1.62 0-3.095 1.095-3.421 2.681-.447 2.182 1.215 4.107 3.319 4.107h4.098 2.709v8.373h-.033c-1.517 0-2.748 1.231-2.748 2.749v2.066c0 1.518 1.231 2.749 2.748 2.749h11.338c1.519 0 2.749-1.231 2.749-2.749v-2.066c0-1.518-1.23-2.749-2.749-2.749h-1.033-6.304c-1.087 0-1.968-.88-1.968-1.967v-4.439c0-1.086.881-1.967 1.968-1.967h3.337c1.086 0 1.967.881 1.967 1.967v2.154c0 .552.448 1 1 1 .553 0 1-.448 1-1v-4.121h2.709 4.098c2.102 0 3.763-1.92 3.321-4.103-.321-1.587-1.792-2.685-3.411-2.685zm48.6524-33.9787c-12.681-4.254-26.648-4.253-39.329 0-.407.137-.682.519-.682.949v17.196c0 13.726 7.625 26.07 19.899 32.214.141.071.295.106.448.106s.307-.035.448-.106c2.568-1.285 4.978-2.876 7.163-4.728.421-.357.473-.987.116-1.409-.006-.007-.015-.01-.021-.016-.359-.402-.973-.452-1.388-.1-1.936 1.64-4.059 3.064-6.318 4.237-11.33-5.877-18.347-17.402-18.347-30.198l.001-16.473c11.86-3.818 24.832-3.818 36.693.001v16.472c0 7.885-2.766 15.578-7.786 21.662-.344.417-.288 1.025.113 1.381.009.008.013.019.022.027.426.352 1.057.291 1.408-.135 5.315-6.442 8.243-14.587 8.243-22.935l-.001-17.197c0-.429-.274-.811-.682-.948"/><path d="m88.0055 43.7939c0 9.486-4.405 18.135-11.913 23.642-1.064.78-2.53.78-3.595 0-7.508-5.507-11.913-14.156-11.913-23.642v-10.542c0-1.465 1.036-2.723 2.472-3.02 7.387-1.531 15.093-1.531 22.478 0 1.435.297 2.471 1.555 2.471 3.02zm2-13.759c0-.451-.302-.847-.738-.965-9.745-2.646-20.198-2.647-29.945 0-.436.118-.738.514-.738.965v13.759c0 11.131 5.681 21.185 15.196 26.893.159.095.336.143.515.143.178 0 .356-.048.514-.143 9.515-5.708 15.196-15.762 15.196-26.893zm-82.6133 14.6609-1.183 1.183c-.391.39-.391 1.023 0 1.414.195.195.451.293.707.293s.512-.098.707-.293l1.183-1.183c.391-.391.391-1.023 0-1.414s-1.023-.391-1.414 0m-5.916 5.916-1.183 1.184c-.391.39-.391 1.023 0 1.414.195.195.451.293.707.293s.512-.098.707-.293l1.183-1.184c.391-.391.391-1.023 0-1.414s-1.024-.391-1.414 0m6.1469 0c-.391-.391-1.023-.391-1.414 0s-.391 1.023 0 1.414l1.183 1.184c.195.195.451.293.707.293s.512-.098.707-.293c.391-.391.391-1.024 0-1.414zm-5.916-5.916c-.391-.391-1.024-.391-1.414 0-.391.391-.391 1.023 0 1.414l1.183 1.183c.195.195.451.293.707.293s.512-.098.707-.293c.391-.391.391-1.024 0-1.414zm167.7705 8.2749-1.183 1.183c-.391.39-.391 1.023 0 1.414.195.195.451.293.707.293s.512-.098.707-.293l1.183-1.183c.391-.391.391-1.023 0-1.414s-1.023-.391-1.414 0m-5.916 5.916-1.183 1.184c-.391.39-.391 1.023 0 1.414.195.195.451.293.707.293s.512-.098.707-.293l1.183-1.184c.391-.391.391-1.023 0-1.414s-1.024-.391-1.414 0m6.147 0c-.391-.391-1.023-.391-1.414 0s-.391 1.023 0 1.414l1.183 1.184c.195.195.451.293.707.293s.512-.098.707-.293c.391-.391.391-1.024 0-1.414zm-5.916-5.916c-.391-.391-1.024-.391-1.414 0-.391.391-.391 1.023 0 1.414l1.183 1.183c.195.195.451.293.707.293s.512-.098.707-.293c.391-.391.391-1.024 0-1.414zm-96.0342-50.9707c.833 0 1.51.677 1.51 1.51 0 .832-.677 1.51-1.51 1.51s-1.51-.678-1.51-1.51c0-.833.677-1.51 1.51-1.51m0 5.02c1.936 0 3.51-1.575 3.51-3.51s-1.574-3.51-3.51-3.51c-1.935 0-3.51 1.575-3.51 3.51s1.575 3.51 3.51 3.51m13.7173 4.5098h.51c.552 0 1 .448 1 1v.511c0 .552.448 1 1 1s1-.448 1-1v-.511c0-.552.448-1 1-1h.51c.552 0 1-.447 1-1s-.448-1-1-1h-.51c-.552 0-1-.448-1-1v-.51c0-.552-.448-1-1-1s-1 .448-1 1v.51c0 .552-.448 1-1 1h-.51c-.552 0-1 .447-1 1s.448 1 1 1m98.7929 29.8725h-.51c-.552 0-1-.448-1-1v-.51c0-.553-.448-1-1-1-.553 0-1 .447-1 1v.51c0 .552-.448 1-1 1h-.51c-.552 0-1 .447-1 1s.448 1 1 1h.51c.552 0 1 .448 1 1v.511c0 .552.447 1 1 1 .552 0 1-.448 1-1v-.511c0-.552.448-1 1-1h.51c.552 0 1-.447 1-1s-.448-1-1-1"/></g><path d="m74.8097 70.687c-.159.095-.336.143-.515.143-.178 0-.356-.048-.514-.143-9.515-5.708-15.196-15.762-15.196-26.893v-13.759c0-.452.302-.847.738-.965 9.747-2.647 20.199-2.646 29.945 0 .436.118.738.513.738.965v13.759c0 11.131-5.681 21.185-15.196 26.893m10.046-5.23c5.021-6.085 7.786-13.778 7.786-21.663v-16.472c-11.86-3.818-24.832-3.819-36.693 0v16.472c0 12.797 7.016 24.321 18.346 30.198 2.259-1.173 4.382-2.597 6.318-4.237.415-.351 1.03-.302 1.389.1 1.055-.946 2.04-1.958 2.968-3.018-.401-.356-.457-.964-.114-1.38" fill="#dcddde"/><path d="m60.5845 30.8047v12.989c0 10.22 5.113 19.469 13.71 24.863 8.598-5.394 13.711-14.643 13.711-24.863v-12.989c-8.942-2.294-18.476-2.295-27.421 0" fill="#f6f6f7"/></g></svg>