<svg width="47" height="37" viewBox="0 0 47 37" fill="none" xmlns="http://www.w3.org/2000/svg">
<path d="M4.88752 25.5127C4.88752 24.9081 5.3737 24.418 5.97342 24.418C6.57315 24.418 7.05933 24.9081 7.05933 25.5127V26.5969C7.05933 27.2015 6.57315 27.6916 5.97342 27.6916C5.3737 27.6916 4.88752 27.2015 4.88752 26.5969V25.5127Z" fill="#99B4FF"/>
<path d="M4.88752 34.2393C4.88752 33.6347 5.3737 33.1445 5.97342 33.1445C6.57315 33.1445 7.05933 33.6347 7.05933 34.2393V35.3235C7.05933 35.9281 6.57315 36.4182 5.97342 36.4182C5.3737 36.4182 4.88752 35.9281 4.88752 35.3235V34.2393Z" fill="#99B4FF"/>
<path d="M1.09115 31.5022C0.488526 31.5022 0 31.0144 0 30.4127C0 29.811 0.488526 29.3232 1.09115 29.3232H2.17181C2.77444 29.3232 3.26296 29.811 3.26296 30.4127C3.26296 31.0144 2.77444 31.5022 2.17181 31.5022H1.09115Z" fill="#99B4FF"/>
<path d="M9.78782 31.5022C9.18519 31.5022 8.69666 31.0144 8.69666 30.4127C8.69666 29.811 9.18519 29.3232 9.78782 29.3232H10.8685C11.4711 29.3232 11.9596 29.811 11.9596 30.4127C11.9596 31.0144 11.4711 31.5022 10.8685 31.5022H9.78782Z" fill="#99B4FF"/>
<path d="M43.7773 4.51211L45.6527 6.75234C45.7526 6.86568 45.8144 7.00766 45.8293 7.15809C45.8441 7.30851 45.8113 7.45973 45.7355 7.59024C45.6597 7.72075 45.5448 7.82391 45.4071 7.88505C45.2693 7.9462 45.1158 7.96221 44.9683 7.93081L42.0895 7.38936C41.984 7.36821 41.8751 7.37168 41.7713 7.3995C41.6675 7.42732 41.5714 7.47875 41.4907 7.5498L39.2682 9.45816C39.1562 9.55908 39.0152 9.62198 38.8654 9.63789C38.7156 9.6538 38.5644 9.62193 38.4335 9.5468C38.3026 9.47167 38.1986 9.35711 38.1363 9.21941C38.0739 9.08171 38.0564 8.92787 38.0863 8.77977L38.6681 5.88109C38.6888 5.77397 38.6849 5.6635 38.6566 5.55806C38.6283 5.45262 38.5765 5.35498 38.5051 5.27254L36.5928 3.05053C36.4953 2.93621 36.4355 2.79446 36.4217 2.64478C36.4078 2.49511 36.4405 2.34488 36.5153 2.21479C36.5902 2.08469 36.7034 1.98112 36.8395 1.91834C36.9755 1.85557 37.1277 1.83667 37.2751 1.86425L40.1561 2.41351C40.2616 2.43069 40.3695 2.42527 40.4727 2.39762C40.5759 2.36997 40.6721 2.3207 40.7549 2.25307L42.9752 0.336907C43.0891 0.239334 43.2303 0.1796 43.3796 0.165933C43.5288 0.152265 43.6786 0.185336 43.8085 0.26059C43.9383 0.335844 44.0418 0.449579 44.1046 0.586136C44.1674 0.722693 44.1865 0.875356 44.1593 1.0231L43.6142 3.90356C43.5935 4.01067 43.5975 4.12114 43.6257 4.22658C43.654 4.33203 43.7058 4.42967 43.7773 4.51211Z" fill="#F7E080"/>
</svg>
