<svg xmlns="http://www.w3.org/2000/svg" width="86" height="84" viewBox="0 0 86 84">
  <g fill="none" fill-rule="evenodd" transform="translate(2 2)">
    <path fill="#2F3136" d="M80,40 C80,62.091 62.091,80 40,80 C17.909,80 0,62.091 0,40 C0,17.909 17.909,0 40,0 C62.091,0 80,17.909 80,40"/>
    <path stroke="#4F545C" stroke-linecap="round" stroke-linejoin="round" stroke-width="4" d="M80,40 C80,62.091 62.091,80 40,80 C17.909,80 0,62.091 0,40 C0,17.909 17.909,0 40,0 C62.091,0 80,17.909 80,40 Z"/>
    <path fill="#4F545C" d="M22 41.6416C22 44.4026 19.761 46.6416 17 46.6416 14.239 46.6416 12 44.4026 12 41.6416 12 38.8806 14.239 36.6416 17 36.6416 19.761 36.6416 22 38.8806 22 41.6416M68 41.6416C68 44.4026 65.761 46.6416 63 46.6416 60.239 46.6416 58 44.4026 58 41.6416 58 38.8806 60.239 36.6416 63 36.6416 65.761 36.6416 68 38.8806 68 41.6416"/>
    <path stroke="#4F545C" stroke-linecap="round" stroke-linejoin="round" stroke-width="4" d="M50,59.4827 C44.154,54.8057 35.846,54.8057 30,59.4827"/>
    <path fill="#2F3136" d="M81.2071,66.9749 C81.2071,72.6829 76.5801,77.3099 70.8721,77.3099 C65.1651,77.3099 60.5381,72.6829 60.5381,66.9749 C60.5381,61.2669 70.8721,48.6399 70.8721,48.6399 C70.8721,48.6399 81.2071,61.2669 81.2071,66.9749"/>
    <path stroke="#4F545C" stroke-linecap="round" stroke-linejoin="round" stroke-width="4" d="M81.2071,66.9749 C81.2071,72.6829 76.5801,77.3099 70.8721,77.3099 C65.1651,77.3099 60.5381,72.6829 60.5381,66.9749 C60.5381,61.2669 70.8721,48.6399 70.8721,48.6399 C70.8721,48.6399 81.2071,61.2669 81.2071,66.9749 Z"/>
  </g>
</svg>
