<svg xmlns="http://www.w3.org/2000/svg" width="130" height="80" viewBox="0 0 130 80">
  <g fill="none" fill-rule="evenodd" transform="translate(11)">
    <path fill="#36393F" d="M33.2261818,14.5107438 L65.8549421,14.5107438 L51.0172562,1.87140496 C50.161719,1.14280992 48.919405,1.14214876 48.0638678,1.87140496 L33.2261818,14.5107438 Z"/>
    <polygon fill="#36393F" points="19.495 39.159 19.495 26.208 10.966 33.473"/>
    <path fill="#72767D" d="M72.5876364,25.3420165 C72.5849917,25.3367273 72.5797025,25.3340826 72.5770579,25.3281322 C72.4190413,24.9995372 72.5572231,24.6041653 72.8864793,24.4461488 C74.6259835,23.609124 76.4461488,23.1337521 78.2636694,22.9830083 L78.2636694,17.8167273 C78.2636694,16.7225124 77.3744132,15.8332562 76.2801983,15.8332562 L22.8005289,15.8332562 C21.706314,15.8332562 20.8170579,16.7225124 20.8170579,17.8167273 L20.8170579,40.0401983 L27.2170579,44.3073058 C27.5211901,44.5096198 27.6031736,44.9201983 27.4008595,45.2236694 L30.1664793,47.0669752 C30.3687934,46.762843 30.7793719,46.6808595 31.0835041,46.8844959 L49.5403636,59.1892893 L67.1879669,47.424 C66.6279669,46.6643306 66.1235041,45.8497851 65.6997025,44.9684628 C63.7572231,40.9320992 63.6699504,36.2597025 65.461686,32.1499504 C65.6071405,31.8147438 65.996562,31.6606942 66.3317686,31.8081322 C66.337719,31.8107769 66.341686,31.8167273 66.3476364,31.8193719 C67.6587107,29.1436694 69.7856529,26.8454876 72.5876364,25.3420165"/>
    <path fill="#72767D" d="M86.2882645,77.2764298 L60.5639669,53.4298182 L54.1897521,57.6784132 C51.3745455,59.555438 47.7071074,59.555438 44.8912397,57.6784132 L38.5170248,53.4298182 L12.7927273,77.2764298 C12.3517355,77.6850248 12.6413223,78.4222149 13.242314,78.4222149 L85.8386777,78.4222149 C86.4396694,78.4222149 86.7292562,77.6850248 86.2882645,77.2764298"/>
    <path fill="#4F545C" d="M79.5781818 53.6755702C75.2019835 53.6755702 70.9593388 51.7959008 68.0191736 48.4590413L61.6952066 52.6745785 85.2165289 74.4808595C86.4866116 75.6570579 88.5487603 74.7572231 88.5487603 73.026314L88.5487603 50.7605289C87.8195041 51.2848264 87.0472727 51.7582149 86.2214876 52.1555702 84.0786777 53.1869752 81.8109091 53.6755702 79.5781818 53.6755702M27.4007273 45.2238678C27.1977521 45.5266777 26.7871736 45.6099835 26.4837025 45.4070083L10.5319669 34.7729587 10.5319669 73.0261818C10.5319669 74.7570909 12.5947769 75.6569256 13.8641983 74.4807273L37.3861818 52.6751074 30.3494876 47.9848595C30.0460165 47.7818843 29.9640331 47.3713058 30.1663471 47.0678347L30.1663471 47.0671736 27.4007273 45.2238678z"/>
    <path fill="#B9BBBE" d="M73.4595702,25.6374215 C73.1369256,25.7934545 72.7508099,25.6599008 72.5875041,25.3418843 C69.7855207,26.8460165 67.6592397,29.1435372 66.3481653,31.8199008 C66.6694876,31.9713058 66.8169256,32.3494876 66.6734545,32.6780826 C65.0364298,36.435438 65.1151074,40.7058512 66.890314,44.3951074 C70.2509752,51.3782479 78.6655207,54.3243636 85.648,50.9643636 C89.0304793,49.3359339 91.576595,46.4889917 92.8175868,42.9458512 C94.0579174,39.4027107 93.8450248,35.589157 92.2172562,32.2066777 C88.856595,25.2241983 80.4433719,22.2787438 73.4595702,25.6374215"/>
    <path fill="#202225" d="M93.3640331,40.938314 C92.3518017,46.0483967 88.7980826,50.0609587 83.8599008,51.683438 C78.6367603,53.3998017 72.7802314,51.8282314 69.1187438,47.7264132 C65.3422149,43.4956694 64.5118017,37.6391405 66.6737851,32.6784793 C66.8172562,32.3498843 66.6698182,31.9710413 66.3478347,31.8196364 C66.3418843,31.8169917 66.3379174,31.8110413 66.3319669,31.8083967 C65.9960992,31.6602975 65.6073388,31.8150083 65.4618843,32.1502149 C63.6701488,36.2599669 63.7567603,40.9323636 65.6992397,44.9687273 L65.7124628,44.9951736 C66.4265124,46.4755041 65.9399008,48.256 64.5726281,49.1677355 L52.4899835,57.2226116 C50.7041983,58.4133554 48.3769256,58.4133554 46.5911405,57.2226116 L31.0830413,46.8847603 C30.7789091,46.681124 30.3689917,46.7631074 30.1666777,47.0672397 L30.1666777,47.0679008 C29.9637025,47.3713719 30.045686,47.7819504 30.3498182,47.9849256 L37.3858512,52.6745124 L13.8638678,74.4807934 C12.5944463,75.6569917 10.5322975,74.757157 10.5322975,73.0262479 L10.5322975,39.270876 C10.5322975,37.3482314 12.6751074,36.201124 14.2744463,37.2675702 L26.4840331,45.4070744 C26.7875041,45.6100496 27.1980826,45.5267438 27.4003967,45.2239339 C27.6033719,44.9198017 27.5213884,44.5092231 27.2172562,44.3069091 L24.3498182,42.3955041 C22.142876,40.9237686 20.816595,38.4464132 20.816595,35.7938512 L20.816595,17.8163306 C20.816595,16.7214545 21.7051901,15.8328595 22.8000661,15.8328595 L76.2803967,15.8328595 C77.3759339,15.8328595 78.2638678,16.7214545 78.2638678,17.8163306 L78.2638678,22.9826116 C76.4463471,23.1340165 74.6255207,23.6093884 72.8860165,24.4464132 C72.5574215,24.6044298 72.4185785,24.9998017 72.5772562,25.3283967 C72.5799008,25.333686 72.5851901,25.3369917 72.5878347,25.342281 C72.7504793,25.6602975 73.136595,25.7938512 73.4599008,25.637157 C81.1934545,21.9174876 90.6810579,25.9293884 93.1174215,34.5945124 C93.6959339,36.6540165 93.7799008,38.8391405 93.3640331,40.938314 Z M85.216595,74.4807934 L61.6952727,52.6745124 L68.0192397,48.4589752 C70.959405,51.7958347 75.2020496,53.6755041 79.5782479,53.6755041 C81.8109752,53.6755041 84.0787438,53.1869091 86.2215537,52.1555041 C86.2294876,52.150876 86.2380826,52.1475702 86.2460165,52.1436033 C87.3111405,51.628562 88.5488264,52.3690579 88.5488264,53.5518678 L88.5488264,73.0262479 C88.5488264,74.757157 86.4866777,75.6569917 85.216595,74.4807934 Z M12.7927934,77.2761653 L36.6050248,55.2021157 C37.7263471,54.1621157 39.414281,54.0272397 40.6863471,54.8755041 L47.7065124,59.5558347 C48.8172562,60.2963306 50.2638678,60.2963306 51.3739504,59.5558347 L58.3947769,54.8755041 C59.666843,54.0272397 61.3547769,54.1621157 62.4760992,55.2021157 L86.2883306,77.2761653 C86.7286612,77.6854215 86.4397355,78.4226116 85.8387438,78.4226116 L13.2423802,78.4226116 C12.6413884,78.4226116 12.3518017,77.6854215 12.7927934,77.2761653 Z M19.494281,29.0712066 L19.494281,36.6877355 C19.494281,37.7436033 18.3174215,38.373686 17.4387438,37.7879008 L13.1518017,34.9303802 C12.0556033,34.1998017 11.9630413,32.6236033 12.9653554,31.7693884 L17.3151074,28.0649256 C18.1732893,27.333686 19.494281,27.9439339 19.494281,29.0712066 Z M48.0635372,1.87120661 C48.9197355,1.14195041 50.1613884,1.14261157 51.0175868,1.87120661 L63.1207273,12.1819504 C64.0569256,12.9793058 63.4929587,14.5105455 62.2632066,14.5105455 L36.8179174,14.5105455 C35.5881653,14.5105455 35.0241983,12.9793058 35.9603967,12.1819504 L48.0635372,1.87120661 Z M79.5861818,20.4887273 L79.5861818,17.8163306 C79.5861818,15.990876 78.1065124,14.5105455 76.2803967,14.5105455 L69.3547769,14.5105455 C68.4119669,14.5105455 67.4995702,14.1746777 66.7822149,13.5637686 L51.8751074,0.86492562 C50.5223802,-0.288132231 48.5580826,-0.288132231 47.2066777,0.86492562 L32.2989091,13.5637686 C31.5815537,14.1746777 30.669157,14.5105455 29.7270083,14.5105455 L22.8000661,14.5105455 C20.9746116,14.5105455 19.494281,15.990876 19.494281,17.8163306 L19.494281,23.249719 C19.494281,24.024595 19.1551074,24.7604628 18.5646942,25.2629421 L9.44204959,33.0341818 C9.43808264,33.0374876 9.43676033,33.0427769 9.43279339,33.0460826 C9.37527273,33.0976529 9.32833058,33.1578182 9.29196694,33.2252562 C9.2833719,33.2417851 9.27742149,33.2589752 9.27014876,33.2761653 C9.24634711,33.3310413 9.23047934,33.388562 9.2218843,33.4487273 C9.21923967,33.4679008 9.21527273,33.4857521 9.21461157,33.5049256 C9.21395041,33.5155041 9.20998347,33.5260826 9.20998347,33.5373223 L9.20998347,79.0837686 C9.20998347,79.1168264 9.22386777,79.1452562 9.22915702,79.1763306 C9.2357686,79.2272397 9.23973554,79.2768264 9.25890909,79.3237686 C9.27676033,79.3707107 9.30783471,79.409719 9.33626446,79.4507107 C9.3541157,79.4778182 9.3633719,79.5082314 9.38585124,79.5333554 C9.38915702,79.536 9.39312397,79.5366612 9.39642975,79.5399669 C9.45064463,79.5968264 9.51609917,79.641124 9.58750413,79.674843 C9.59609917,79.6794711 9.6033719,79.6880661 9.6126281,79.6920331 C9.69196694,79.7264132 9.77923967,79.7449256 9.8711405,79.7449256 L89.2099835,79.7449256 C89.3018843,79.7449256 89.389157,79.7264132 89.4684959,79.6920331 C89.4777521,79.6880661 89.4843636,79.6794711 89.4936198,79.674843 C89.5650248,79.641124 89.6304793,79.5968264 89.6853554,79.5399669 C89.688,79.5366612 89.6919669,79.536 89.6946116,79.5333554 C89.7177521,79.5082314 89.7270083,79.4778182 89.7448595,79.4507107 C89.7732893,79.409719 89.8037025,79.3707107 89.822876,79.3237686 C89.8413884,79.2768264 89.8453554,79.2272397 89.8519669,79.1763306 C89.856595,79.1452562 89.8711405,79.1168264 89.8711405,79.0837686 L89.8711405,49.7026116 C92.4298182,47.3945124 94.1759339,44.2566612 94.7597355,40.6355041 C95.102876,38.5092231 94.9759339,36.3188099 94.3927934,34.2447603 C92.6420496,28.016 87.5597355,23.9849256 81.8790744,23.1075702 C80.5699835,22.9059174 79.5861818,21.813686 79.5861818,20.4887273 Z"/>
    <path fill="#202225" d="M77.5998678 39.5998678L81.4920992 39.5998678C81.8835041 39.5998678 82.2035041 39.2871405 82.2127603 38.8957355L82.4673058 31.1066446C82.476562 30.7026777 82.1519339 30.3701157 81.7473058 30.3701157L77.344 30.3701157C76.9393719 30.3701157 76.6147438 30.7026777 76.6233388 31.1066446L76.8798678 38.8957355C76.8884628 39.2871405 77.2084628 39.5998678 77.5998678 39.5998678M79.5746777 41.1842645C77.9905455 41.1842645 76.7224463 42.4807934 76.7224463 44.0940165 76.7224463 45.6788099 77.9905455 46.9462479 79.5746777 46.9462479 81.188562 46.9462479 82.4844298 45.6788099 82.4844298 44.0940165 82.4844298 42.4807934 81.188562 41.1842645 79.5746777 41.1842645M99.2401983 21.3989421L97.6454876 22.9936529C97.3876364 23.2515041 97.3876364 23.6700165 97.6454876 23.9285289 97.7750744 24.0574545 97.9443306 24.1222479 98.1129256 24.1222479 98.2821818 24.1222479 98.451438 24.0574545 98.5803636 23.9285289L100.175074 22.3338182C100.433587 22.0753058 100.433587 21.6574545 100.175074 21.3989421 99.916562 21.1404298 99.4987107 21.1404298 99.2401983 21.3989421M92.8033058 21.1326281C92.8608264 21.1478347 92.9183471 21.1557686 92.9745455 21.1557686 93.2667769 21.1557686 93.5338843 20.9607273 93.6132231 20.6651901L94.1963636 18.4873388C94.2909091 18.134281 94.0813223 17.7719669 93.7289256 17.6774215 93.3732231 17.5802314 93.0135537 17.7924628 92.9190083 18.1448595L92.3358678 20.3227107C92.2413223 20.6757686 92.4509091 21.0380826 92.8033058 21.1326281M103.897058 27.8452231C103.802512 27.4928264 103.438876 27.2812562 103.08714 27.3777851L100.909289 27.9615868C100.556231 28.0561322 100.347306 28.4184463 100.441851 28.770843 100.52119 29.0663802 100.787636 29.2614215 101.079868 29.2614215 101.136727 29.2614215 101.194248 29.2541488 101.251769 29.238281L103.42962 28.6551405C103.782678 28.560595 103.991603 28.1976198 103.897058 27.8452231M12.1895537 3.10671074C11.6381488 3.10869421 11.1892231 2.66373554 11.1872397 2.11233058 11.1859174 1.74671074 10.8890579 1.45183471 10.5240992 1.45315702 10.1591405 1.45447934 9.86360331 1.75133884 9.86492562 2.11629752 9.86690909 2.66770248 9.42128926 3.1166281 8.87054545 3.11861157 8.50558678 3.11993388 8.21004959 3.41613223 8.2113719 3.78175207 8.21269421 4.1473719 8.51021488 4.44224793 8.87517355 4.44092562 9.42591736 4.43894215 9.87484298 4.88390083 9.87616529 5.43530579 9.8774876 5.80092562 10.1750083 6.09580165 10.5399669 6.09447934 10.9049256 6.09315702 11.1998017 5.79629752 11.1984793 5.43067769 11.197157 4.87927273 11.6421157 4.43100826 12.1935207 4.42902479L12.1941818 4.42902479C12.5591405 4.42770248 12.8540165 4.13084298 12.8526942 3.7658843 12.8513719 3.40026446 12.5545124 3.10538843 12.1895537 3.10671074M105.48119 53.9835372C105.650446 53.982876 105.819041 53.9174215 105.947967 53.7884959L106.728132 53.0043636C106.985322 52.7451901 106.983339 52.3260165 106.724826 52.0688264 106.465653 51.8116364 106.04714 51.8129587 105.78995 52.0721322L105.009785 52.8569256C104.752595 53.115438 104.753917 53.5339504 105.013091 53.7918017 105.142017 53.9200661 105.311934 53.9841983 105.48119 53.9835372M101.583273 57.909157C101.752529 57.9084959 101.921785 57.8430413 102.05005 57.7141157L102.829554 56.9286612C103.086744 56.6694876 103.085421 56.2509752 102.826248 55.9937851 102.567074 55.736595 102.147901 55.7379174 101.891372 55.9964298L101.111868 56.7825455C100.854017 57.041719 100.856 57.4595702 101.115174 57.7174215 101.24476 57.845686 101.414017 57.9098182 101.583273 57.909157M105.955372 55.9831405C105.696198 55.7252893 105.278347 55.7266116 105.020496 55.9864463 104.763306 56.2449587 104.764628 56.6634711 105.023802 56.9213223L105.809256 57.7014876C105.938843 57.8297521 106.108099 57.8938843 106.277355 57.8932231 106.446612 57.892562 106.615207 57.8271074 106.744132 57.6981818 107.001322 57.4383471 107 57.0198347 106.740826 56.7633058L105.955372 55.9831405zM101.883835 53.8021157C102.013421 53.9310413 102.182678 53.9951736 102.351934 53.9945124 102.52119 53.9938512 102.690446 53.9283967 102.818711 53.7988099 103.075901 53.5402975 103.074579 53.1217851 102.815405 52.8639339L102.030612 52.0850909C101.771438 51.8279008 101.352264 51.8292231 101.095736 52.0883967 100.837884 52.3475702 100.839868 52.7660826 101.099041 53.0232727L101.883835 53.8021157zM2.31742149 18.4063471C2.86816529 18.4043636 3.31709091 18.8506446 3.31907438 19.4007273 3.32105785 19.9514711 2.87477686 20.401719 2.32403306 20.4037025 1.77395041 20.4050248 1.32436364 19.9587438 1.32238017 19.408 1.32039669 18.8579174 1.76667769 18.4083306 2.31742149 18.4063471M2.32866116 21.7260165C3.608 21.7213884 4.64535537 20.6760992 4.64138843 19.3967603 4.63676033 18.1167603 3.59213223 17.079405 2.31279339 17.0840331 1.03345455 17.088-.00456198347 18.1326281.0000661157024 19.4119669.00403305785 20.6919669 1.04932231 21.7299835 2.32866116 21.7260165"/>
  </g>
</svg>
