<svg height="24" viewBox="0 0 24 24" width="24" xmlns="http://www.w3.org/2000/svg"><g fill="none" fill-rule="evenodd"><path d="m11.3667306 13.529955c-1.2013095-.3531074-2.46086761-.529955-3.3667306-.529955-2.33 0-7 1.17-7 3.5v2.5h9.0621141c-.0409951-.32767-.0621141-.6614217-.0621141-1 0-1.6556299.5041979-3.1937928 1.3667306-4.470045zm3.3412739-2.8216469c-1.0101616-.4827633-1.7080045-1.51404071-1.7080045-2.7083081 0-1.65685425 1.3431458-3 3-3s3 1.34314575 3 3c0 .76996698-.2900673 1.47218511-.7668868 2.0033394-.0774338-.0022212-.1551433-.0033394-.2331132-.0033394-1.1726044 0-2.2873159.2533133-3.2919955.7083081zm-6.7080045.2916919c-1.65685425 0-3-1.34314575-3-3s1.34314575-3 3-3 3 1.34314575 3 3-1.34314575 3-3 3z" fill="#fff" opacity=".6"/><path d="m0 0h24v24h-24z"/></g></svg>