<svg enable-background="new 0 0 17 17" viewBox="0 0 17 17" xmlns="http://www.w3.org/2000/svg"><path d="m8.495 2c.566 0 1.133.075 1.687.223 3.461.928 5.522 4.498 4.595 7.958-.761 2.838-3.34 4.819-6.272 4.819-.566 0-1.134-.075-1.687-.223-1.677-.449-3.078-1.524-3.946-3.027s-1.098-3.254-.649-4.931c.761-2.838 3.339-4.819 6.272-4.819m0-2c-3.752 0-7.186 2.504-8.203 6.301-1.215 4.533 1.475 9.193 6.009 10.408.736.197 1.476.291 2.204.291 3.752 0 7.186-2.504 8.203-6.301 1.215-4.533-1.476-9.193-6.009-10.408-.736-.197-1.476-.291-2.204-.291z" fill="#faa61b"/></svg>