<svg viewBox="0 0 300 120" xmlns="http://www.w3.org/2000/svg"><path d="m239.69 38.41h-34.48a14.44 14.44 0 0 1 -11.71-6l-13.5-18.58a32.32 32.32 0 0 0 -26.14-13.36h-56.79a30.08 30.08 0 0 0 -21.24 8.8 30 30 0 0 1 -21.24 8.8h-4.7a24.89 24.89 0 0 0 -24.89 24.93v20.43a10.23 10.23 0 0 1 -5.46 9.05 36.75 36.75 0 0 0 -19.54 32.52v15h300v-21.29a60.3 60.3 0 0 0 -17.66-42.64 60.31 60.31 0 0 0 -42.65-17.66z" fill="#aec7ff" opacity=".55"/><path d="m214.56 88.48h58.19a6.43 6.43 0 0 1 6.43 6.43v25.09h-71.05v-25.09a6.43 6.43 0 0 1 6.43-6.43z" fill="#ebf0f7"/><path d="m38.27 106.65h182.84l-8-54.49a9.78 9.78 0 0 0 -9.68-8.37h-156.12a9 9 0 0 0 -9 9.05z" fill="#fff"/><g fill="#ffd836"><circle cx="228" cy="84.89" r="3.96"/><circle cx="198.69" cy="84.89" r="2.5"/><circle cx="204.49" cy="84.23" r="4.05"/><circle cx="221.42" cy="84.23" r="4.05"/><circle cx="216.95" cy="80.25" r="4.05"/><circle cx="214.91" cy="84.89" r="4.05"/><circle cx="210.36" cy="82.39" r="4.05"/></g><path d="m192.28 84.89a21.76 21.76 0 1 0 43.51 0z" fill="#83ddc5"/><path d="m193.38 87.63.62-2.73a4.37 4.37 0 0 0 -3.26-5.25 4.37 4.37 0 0 0 -5.25 3.25l-.63 2.7a5.8 5.8 0 0 1 -2 3.18 7 7 0 0 0 -2.54 4.87 7 7 0 0 0 13.85 2.15 7 7 0 0 0 -.44-4.48 5.78 5.78 0 0 1 -.35-3.69z"/><path d="m190.13 93.93a1 1 0 0 1 0-2l9.25-.24a1 1 0 0 1 1 1 1 1 0 0 1 -1 1zm-10.22 13.72a1 1 0 0 1 -.41-.09 1 1 0 0 1 -.5-1.33l4.68-10.3a1 1 0 1 1 1.82.83l-4.68 10.3a1 1 0 0 1 -.91.59zm10.62 0a1 1 0 0 1 -.6-.21 1 1 0 0 1 -.19-1.4c1.48-2 2-3.1 1.92-3.83s-1.43-1.78-3.55-3.08a1 1 0 1 1 1-1.7c2.33 1.42 4.14 2.65 4.47 4.41.3 1.6-.65 3.26-2.29 5.41a1 1 0 0 1 -.76.4z"/><path d="m205.45 104.89h17.18v1.76h-17.18z" fill="#51bc9d"/><circle cx="211.87" cy="78.35" fill="#ffd836" r="2.17"/><circle cx="210.36" cy="83.25" fill="#ff9a15" r=".59"/><circle cx="216.67" cy="78.94" fill="#ff9a15" r=".59"/><circle cx="221.7" cy="82.39" fill="#ff9a15" r=".59"/><circle cx="202.85" cy="83.25" fill="#ff9a15" r=".59"/><path d="m214.3 81.27a2.42 2.42 0 0 0 -3-1.7" fill="none" stroke="#ff9a15" stroke-linecap="round" stroke-miterlimit="10" stroke-width=".75"/><path d="m47.31 43.79a9 9 0 0 1 9 9v53.81h-18.04v-53.76a9 9 0 0 1 9.04-9.05z" fill="#ebf0f7"/><path d="m272.76 88.48a6.43 6.43 0 0 1 6.43 6.43v25.09h-12.86v-25.09a6.43 6.43 0 0 1 6.43-6.43z" fill="#fff"/><path d="m147.77 84h14.16a2.83 2.83 0 0 0 2.83-2.83 2.84 2.84 0 0 0 -2.83-2.84h-14.16zm16.99 11.32v5.68h5.66a5.67 5.67 0 0 1 5.67 5.67h-32.56v-19.84h12.74a8.49 8.49 0 0 1 8.49 8.49z" fill="#7196ff"/><rect fill="#567ef7" height="45.3" rx="12.74" transform="matrix(-1 0 0 -1 250.24 91.55)" width="62.29" x="93.98" y="23.12"/><rect fill="#7196ff" height="45.3" rx="12.74" transform="matrix(-1 0 0 -1 265.82 91.55)" width="62.29" x="101.76" y="23.12"/><path d="m156.97 60.64h-12.74a12.74 12.74 0 0 1 -12.74-12.74v-7.08a4.25 4.25 0 0 1 4.25-4.25h28.31a4.25 4.25 0 0 1 4.25 4.25v8.49a11.33 11.33 0 0 1 -11.33 11.33z" fill="#aec7ff"/><circle cx="120.17" cy="44.36" fill="#202225" r="4.25"/><rect fill="#7196ff" height="3.54" rx="1.77" transform="matrix(-1 0 0 -1 318.2 105.7)" width="7.08" x="155.56" y="51.08"/><rect fill="#7196ff" height="3.54" rx="1.77" transform="matrix(-1 0 0 -1 295.66 105.7)" width="8.49" x="143.58" y="51.08"/><path d="m146.36 106.65h-34.68v-38.22h29a15.57 15.57 0 0 1 15.57 15.57v12.74a9.91 9.91 0 0 1 -9.89 9.91z" fill="#aec7ff"/><path d="m87 87.05 2.62 9a.57.57 0 0 1 -.14.56.56.56 0 0 1 -.56.14l-8.92-2.65a5.69 5.69 0 0 1 1.56-11.1h.44a5.72 5.72 0 0 1 5 4.05zm17.59-28.54h-11.32a5.66 5.66 0 0 1 -5.66-5.66v-12.74a5.66 5.66 0 0 1 5.66-5.66h11.32z" fill="#7196ff"/><path d="m101.06 54.26h-5.66a2.83 2.83 0 0 1 -2.83-2.83v-9.91a2.83 2.83 0 0 1 2.83-2.83h5.66z" fill="#aec7ff"/><path d="m160.67 78.26-2.6 5.94a7.48 7.48 0 0 1 -6.29 4.1 4.1 4.1 0 0 1 -3.62-2.17 3.19 3.19 0 0 0 -4.71-1.07l-1.71 1.25a10.37 10.37 0 0 1 -6.1 2h-1.79c-2.46 0-3.67-1.84-2.69-4.1l2.61-5.94a7.43 7.43 0 0 1 6.23-4.1h18c2.45 0 3.65 1.83 2.67 4.09z" fill="#fff"/><path d="m105.3 68.42h10.62a8.5 8.5 0 0 1 8.49 8.5v1.41h9.79a2.92 2.92 0 0 1 2.94 2.56 2.83 2.83 0 0 1 -2.82 3.11h-19.82v2.83h1.42a8.49 8.49 0 0 1 8.49 8.49v5.68h8.5a5.66 5.66 0 0 1 5.66 5.67h-33.27a11.32 11.32 0 0 1 -11.3-11.35v-15.57a11.33 11.33 0 0 1 11.3-11.33z" fill="#7196ff"/><rect fill="#b2c1d1" height="3.58" rx="1.17" width="2.34" x="139.44" y="75.63"/><rect fill="#b2c1d1" height="3.58" rx="1.17" width="2.34" x="157.12" y="75.63"/><path d="m152.79 78.1h-5.26a2.46 2.46 0 0 0 -2.21 1.39l-.18.37a1.07 1.07 0 0 0 1 1.53h5.26a2.46 2.46 0 0 0 2.17-1.39l.18-.38a1.06 1.06 0 0 0 -.96-1.52z" fill="#ff73fa"/><path d="m50.78 70.94a1 1 0 0 1 -.86-.48l-4-6.64a1 1 0 1 1 1.71-1l4 6.63a1 1 0 0 1 -.34 1.38 1.1 1.1 0 0 1 -.51.11zm9.85-1.05a1 1 0 0 1 -.82-.42 1 1 0 0 1 .24-1.39 6.53 6.53 0 0 0 2.72-5.86 1 1 0 1 1 2-.28 8.52 8.52 0 0 1 -3.54 7.77 1 1 0 0 1 -.6.18z"/><path d="m59.16 64.26-.36-2.79a4.37 4.37 0 0 0 -4.9-3.77 4.38 4.38 0 0 0 -3.77 4.9l.36 2.75a5.86 5.86 0 0 1 -.76 3.65 7 7 0 0 0 -.67 5.45 7 7 0 0 0 13.72-2.85 7 7 0 0 0 -2-4 5.71 5.71 0 0 1 -1.62-3.34zm189.84 25.22a1 1 0 0 1 -1-.87c0-.07-.87-7-1.43-10.55a1 1 0 0 1 2-.31c.57 3.6 1.44 10.54 1.45 10.61a1 1 0 0 1 -.87 1.12zm-6.11-.14a1 1 0 0 1 -1-1s.21-4.67.81-9.89a1 1 0 1 1 2 .23c-.6 5.14-.8 9.7-.81 9.75a1 1 0 0 1 -1 .91z"/><path d="m251.07 65.1.07-2.81a4.37 4.37 0 0 0 -4.24-4.49 4.36 4.36 0 0 0 -4.49 4.25l-.08 2.77a5.74 5.74 0 0 1 -1.33 3.51 7 7 0 1 0 12.49 4.61 6.92 6.92 0 0 0 -1.33-4.31 5.75 5.75 0 0 1 -1.09-3.53zm-145.89 27.56-.28-2.79a4.37 4.37 0 0 0 -4.78-3.87 4.37 4.37 0 0 0 -3.91 4.78l.28 2.76a5.86 5.86 0 0 1 -.87 3.65 7 7 0 1 0 13 3 6.93 6.93 0 0 0 -1.87-4.1 5.81 5.81 0 0 1 -1.57-3.43z"/><path d="m104.54 97.9a1 1 0 0 1 -.57-.18 1 1 0 0 1 -.25-1.39l4.51-6.52a1 1 0 0 1 1.64 1.19l-4.51 6.52a1 1 0 0 1 -.82.38zm-41.67-9.77a1 1 0 0 1 -1-.73 49.94 49.94 0 0 0 -3.67-9.4 1 1 0 0 1 1.73-1 50.75 50.75 0 0 1 3.91 9.9 1 1 0 0 1 -.7 1.23 1.24 1.24 0 0 1 -.27 0z"/><path d="m50.33 106.65h207.53a8.47 8.47 0 0 1 8.47 8.47v4.88h-216v-13.35z" fill="#dae1ea"/><path d="m105.51 114.32a1 1 0 0 1 -1-.82l-.5-2.82c-.71-3.49-1-4.15-4.45-4.15a1 1 0 0 1 0-2c4.77 0 5.58 1.67 6.41 5.78l.51 2.84a1 1 0 0 1 -.81 1.16z"/><path d="m111.7 112.61a1 1 0 0 1 -1-.7c-1.43-4.6-2.8-5.38-6.21-5.38a1 1 0 1 1 0-2c4.55 0 6.52 1.65 8.12 6.79a1 1 0 0 1 -.66 1.25 1 1 0 0 1 -.25.04zm-19.58-5.16a.82.82 0 0 1 -.26 0 1 1 0 0 1 -.7-1.23c.06-.23 1.58-5.61 4.91-8.16a1 1 0 1 1 1.21 1.59c-2.79 2.15-4.18 7.06-4.19 7.11a1 1 0 0 1 -.97.69z"/><path d="m31.9 88.48h44.9a6.43 6.43 0 0 1 6.43 6.43v25.09h-57.76v-25.09a6.43 6.43 0 0 1 6.43-6.43z" fill="#ebf0f7"/><path d="m76.8 88.48a6.43 6.43 0 0 1 6.43 6.43v25.09h-12.86v-25.09a6.43 6.43 0 0 1 6.43-6.43z" fill="#fff"/><path d="m55 89.48a1 1 0 0 1 -1-1 42.06 42.06 0 0 0 -.84-11 1 1 0 0 1 2-.33 44.29 44.29 0 0 1 .84 11.38 1 1 0 0 1 -1 .95z"/><circle cx="242.35" cy="69.43" fill="#ffd836" r="4.74"/><circle cx="244.35" cy="72.82" fill="#ffd836" r="2.22"/><circle cx="238.99" cy="73.3" fill="#ffd836" r="1.75"/><circle cx="238.57" cy="69.12" fill="#ffd836" r="2.44"/><path d="m245.33 70.9a2.88 2.88 0 0 0 -4 .71" fill="none" stroke="#ff9a15" stroke-linecap="round" stroke-miterlimit="10" stroke-width=".75"/><path d="m237.84 70.05a.93.93 0 0 1 -.29 0l-1.71-.52a1 1 0 1 1 .59-1.91l1.7.52a1 1 0 0 1 -.29 2zm9.62.76a13.18 13.18 0 0 1 -1.73-.12 1 1 0 0 1 -.85-1.13 1 1 0 0 1 1.13-.85 9.41 9.41 0 0 0 6.32-1.21 1 1 0 1 1 1.14 1.65 10.75 10.75 0 0 1 -6.01 1.66z"/><path d="m43.44097879 49.04204345a2.2 2.2 0 0 1 2.8975577 1.13320754l5.40532737 12.34879897-4.03076524 1.76435018-5.40532737-12.34879898a2.2 2.2 0 0 1 1.13320754-2.8975577z" fill="#ff9a15"/><path d="m41.64325208 58.16194986 4.85523995-2.12523999 3.20790942 7.32866408-7.03551752 3.07959304-2.24954648-5.13922569a2.39 2.39 0 0 1 1.22191463-3.14379144z" fill="#ff9a15"/><path d="m45.93426129 58.06154618.08803376-.48202703 3.86605352.70606674-.34674525 1.89859625-2.44948429-.44735526a1.44 1.44 0 0 1 -1.15785774-1.6752807z" fill="#ffd836"/><path d="m49.89 58.29 1.85 4.23-4 1.76v-.1a3.26 3.26 0 0 1 1.68-4.29z" fill="#ffd836"/><rect fill="#7196ff" height="2.87" rx=".96" width="1.92" x="207.58" y="16.45"/><rect fill="#7196ff" height="2.87" rx=".96" width="1.92" x="207.58" y="24.11"/><rect fill="#7196ff" height="2.87" rx=".96" transform="matrix(0 1 -1 0 234.09 -190.65)" width="1.92" x="211.41" y="20.28"/><rect fill="#7196ff" height="2.87" rx=".96" transform="matrix(0 1 -1 0 226.43 -182.99)" width="1.92" x="203.75" y="20.28"/><path d="m78.09 22.73-1.22 2.53a.7.7 0 0 0 .93.93l2.53-1.19a.7.7 0 0 1 .6 0l2.54 1.22a.69.69 0 0 0 .92-.93l-1.22-2.53a.7.7 0 0 1 0-.6l1.22-2.53a.69.69 0 0 0 -.92-.93l-2.54 1.22a.7.7 0 0 1 -.6 0l-2.53-1.25a.7.7 0 0 0 -.93.93l1.22 2.53a.7.7 0 0 1 0 .6z" fill="#aec7ff"/><rect fill="#d4e4ff" height="2.87" rx=".96" width="1.92" x="13.49" y="43.58"/><rect fill="#d4e4ff" height="2.87" rx=".96" width="1.92" x="13.49" y="51.24"/><rect fill="#d4e4ff" height="2.87" rx=".96" transform="matrix(0 1 -1 0 67.12 30.57)" width="1.92" x="17.32" y="47.41"/><rect fill="#d4e4ff" height="2.87" rx=".96" transform="matrix(0 1 -1 0 59.46 38.24)" width="1.92" x="9.66" y="47.41"/></svg>