<svg width="40" height="40" viewBox="0 0 40 40" fill="none" xmlns="http://www.w3.org/2000/svg">
<path d="M3.575 0H36.425C37.3731 0 38.2825 0.376651 38.9529 1.04709C39.6234 1.71754 40 2.62685 40 3.575V9.3H0V3.575C0 2.62685 0.376651 1.71754 1.04709 1.04709C1.71754 0.376651 2.62685 0 3.575 0V0Z" fill="#98B7F7"/>
<path d="M0 9.29993H40V36.4249C40 37.3731 39.6234 38.2824 38.9529 38.9528C38.2825 39.6233 37.3731 39.9999 36.425 39.9999H3.575C2.62685 39.9999 1.71754 39.6233 1.04709 38.9528C0.376651 38.2824 0 37.3731 0 36.4249L0 9.29993Z" fill="#C9DBF7"/>
<path d="M4.6499 6.6549C5.75723 6.6549 6.6549 5.75723 6.6549 4.6499C6.6549 3.54257 5.75723 2.6449 4.6499 2.6449C3.54257 2.6449 2.6449 3.54257 2.6449 4.6499C2.6449 5.75723 3.54257 6.6549 4.6499 6.6549Z" fill="white"/>
<path d="M11.715 6.6549C12.8223 6.6549 13.72 5.75723 13.72 4.6499C13.72 3.54257 12.8223 2.6449 11.715 2.6449C10.6076 2.6449 9.70996 3.54257 9.70996 4.6499C9.70996 5.75723 10.6076 6.6549 11.715 6.6549Z" fill="white"/>
<path d="M33.3451 2.6449H20.9751C19.8678 2.6449 18.9701 3.54257 18.9701 4.6499C18.9701 5.75723 19.8678 6.6549 20.9751 6.6549H33.3451C34.4524 6.6549 35.3501 5.75723 35.3501 4.6499C35.3501 3.54257 34.4524 2.6449 33.3451 2.6449Z" fill="white"/>
<path d="M21.43 13.62H4.64502V35.465H21.43V13.62Z" fill="#718EF7"/>
<path d="M35.3549 13.62H24.2899V24.345H35.3549V13.62Z" fill="#D954E6"/>
<path d="M35.3549 27.21H24.2899V29.755H35.3549V27.21Z" fill="#718EF7"/>
<path d="M35.3549 32.615H24.2899V35.47H35.3549V32.615Z" fill="#718EF7"/>
</svg>
