<svg width="178" height="112" viewBox="0 0 178 112" fill="none" xmlns="http://www.w3.org/2000/svg">
<path d="M88.6942 0L61.8696 26.8245V64.5736L88.6942 91.29L115.519 64.4654V26.8245L88.6942 0ZM102.106 58.9491L88.6942 72.3614L75.2819 58.9491V32.3409L88.6942 18.9286L102.106 32.3409V58.9491Z" fill="#878B91"/>
<path d="M88.694 0V18.9286L102.106 32.3409L115.519 26.8245L88.694 0Z" fill="#DCDDDE"/>
<path d="M75.2819 58.949L61.8696 64.5735L88.6942 91.2899V72.3612L75.2819 58.949Z" fill="#4F545C"/>
<path d="M75.282 32.341V58.9492L88.6943 72.3615L102.107 58.9492V32.341L88.6943 18.9287L75.282 32.341Z" fill="#B9BBBE"/>
<path d="M102.107 32.3406V32.4488L75.3901 59.057H75.282V51.8101L98.429 28.6631L102.107 32.3406Z" fill="white"/>
<path d="M102.107 42.3999V49.755L84.1514 67.8183L80.4739 64.0326L102.107 42.3999Z" fill="white"/>
<path d="M66.629 17.7388L62.3025 19.7939C61.7616 20.1184 61.0045 19.7939 60.68 19.2531C60.5718 18.9286 60.5718 18.4959 60.68 18.1714L62.7351 13.8449C62.9514 13.5204 62.9514 13.0878 62.7351 12.7633L60.68 8.43673C60.3555 7.78775 60.68 7.13877 61.2208 6.81428C61.5453 6.70612 61.8698 6.70612 62.1943 6.81428L66.5208 8.86939C66.8453 9.08571 67.278 9.08571 67.6025 8.86939L71.929 6.81428C72.578 6.48979 73.227 6.81428 73.5515 7.3551C73.6596 7.67959 73.6596 8.00408 73.5515 8.32857L71.4964 12.6551C71.28 12.9796 71.28 13.4123 71.4964 13.7367L73.5515 18.0633C73.8759 18.6041 73.5515 19.3612 73.0106 19.6857C72.6861 19.7939 72.2535 19.7939 71.929 19.6857L67.6025 17.6306C67.3861 17.5225 66.9535 17.5225 66.629 17.7388Z" fill="white"/>
<path d="M135.961 40.6697C139.314 39.2636 143.1 40.886 144.398 44.1309L155.323 70.631L143.317 75.6065L132.392 49.2146C130.986 45.8616 132.608 42.0758 135.961 40.6697Z" fill="#72767D"/>
<path d="M145.588 16.333C148.941 14.9269 152.727 16.5494 154.025 19.7943L166.031 48.6739L154.025 53.6494L142.127 24.878C140.72 21.5249 142.343 17.7392 145.588 16.333Z" fill="#72767D"/>
<path d="M137.476 27.3655C140.829 25.9594 144.615 27.5818 145.913 30.8267L156.945 57.3268L144.939 62.3023L134.015 35.9104C132.609 32.5574 134.231 28.7716 137.476 27.3655Z" fill="#72767D"/>
<path d="M150.997 59.8141L144.939 62.3019L135.962 40.6692C135.421 40.8855 134.88 41.21 134.448 41.5345L143.317 62.9509C143.641 63.5999 144.182 64.0325 144.939 64.0325C145.156 64.0325 145.372 64.0325 145.588 63.9243L151.646 61.4366L150.997 59.8141Z" fill="#4F545C"/>
<path d="M155.323 53.2166L154.133 53.7574L143.317 27.69C142.668 27.2574 141.911 27.041 141.046 26.8247L152.511 54.4064C152.835 55.0554 153.376 55.488 154.133 55.488C154.35 55.488 154.566 55.488 154.782 55.3799L155.972 54.8391L155.323 53.2166Z" fill="#4F545C"/>
<path d="M161.056 88.3696H120.927V100.7H161.056V88.3696Z" fill="#EBF0F7"/>
<path d="M165.166 46.943C167.654 49.4307 167.654 53.5409 165.166 56.1369L146.562 74.741L137.368 65.5471L155.972 46.943C158.568 44.4552 162.678 44.4552 165.166 46.943Z" fill="#DCDDDE"/>
<path d="M170.79 19.0369C174.36 19.0369 177.28 21.9573 177.28 25.5267V49.3226H164.301V25.5267C164.301 21.9573 167.113 19.0369 170.79 19.0369Z" fill="#DCDDDE"/>
<path d="M120.927 100.592V88.3694C120.927 76.7959 127.958 66.304 138.666 61.8693L151.213 56.6775L161.056 80.5816V100.592H120.927Z" fill="#DCDDDE"/>
<path d="M173.278 67.7102L166.139 79.8245C162.894 85.449 161.164 91.7225 161.164 98.2123V100.592H121.035L164.301 57.1102V39.0469H177.28V52.8918C177.172 58.0837 175.874 63.1673 173.278 67.7102Z" fill="#DCDDDE"/>
<path d="M166.356 45.8617C163.111 42.6168 158.027 42.6168 154.782 45.8617L155.972 47.0515C158.568 44.4555 162.678 44.5637 165.166 47.0515C167.762 49.6474 167.654 53.7576 165.166 56.2454L154.241 67.1699C154.133 67.278 154.025 67.4944 154.025 67.7107V77.1209C154.025 77.5536 154.35 77.9862 154.782 77.9862C155.215 77.9862 155.648 77.6617 155.648 77.2291C155.648 77.2291 155.648 77.2291 155.648 77.1209V68.1433L166.248 57.5433C169.601 54.1902 169.601 48.9984 166.356 45.8617Z" fill="#72767D"/>
<path d="M120.927 93.0208V96.2657L154.566 100.592H161.056V98.2126L120.927 93.0208Z" fill="#72767D"/>
<path d="M120.927 94.8594L161.164 100.051C164.408 100.484 166.788 103.513 166.355 106.757C165.923 110.002 162.894 112.382 159.649 111.949L119.412 106.757C116.168 106.325 113.788 103.296 114.221 100.051C114.545 96.8064 117.574 94.4268 120.927 94.8594Z" fill="#DCDDDE"/>
<path d="M33.9637 75.6063L21.9575 70.6308L32.882 44.2389C34.2881 40.8858 38.0739 39.3715 41.3188 40.7776C44.6718 42.1838 46.1861 45.9695 44.78 49.2144L33.9637 75.6063Z" fill="#72767D"/>
<path d="M23.3637 53.7574L11.3575 48.7818L23.3637 19.9022C24.7698 16.5491 28.5555 15.0348 31.8004 16.441C35.1535 17.8471 36.6678 21.6328 35.2617 24.8777L23.3637 53.7574Z" fill="#72767D"/>
<path d="M32.4494 62.3023L20.4432 57.3268L31.3678 30.8268C32.7739 27.4737 36.5596 25.9594 39.8045 27.3655C43.1576 28.7716 44.6719 32.5574 43.2657 35.8023L32.4494 62.3023Z" fill="#72767D"/>
<path d="M42.9408 41.5345C42.5081 41.21 41.9673 40.8855 41.4265 40.6692L32.4489 62.3019L26.3918 59.8141L25.7428 61.4366L31.7999 63.9243C32.0163 64.0325 32.2326 64.0325 32.4489 64.0325C33.2061 64.0325 33.7469 63.5999 34.0714 62.9509L42.9408 41.5345Z" fill="#4F545C"/>
<path d="M34.0721 27.7979L23.2558 53.8653L22.066 53.3245L21.417 54.947L22.6068 55.4878C22.8231 55.5959 23.0394 55.5959 23.2558 55.5959C24.0129 55.5959 24.5537 55.1633 24.8782 54.5143L36.2354 27.0408C35.4782 27.0408 34.7211 27.3653 34.0721 27.7979Z" fill="#4F545C"/>
<path d="M56.4615 88.2615H16.3329V100.592H56.4615V88.2615Z" fill="#EBF0F7"/>
<path d="M39.9124 65.5471L30.7185 74.741L12.2225 56.245C9.73475 53.7573 9.73475 49.647 12.2225 47.0511C14.7103 44.5634 18.8205 44.5634 21.4164 47.0511L39.9124 65.5471Z" fill="#DCDDDE"/>
<path d="M13.1964 49.3226H0.108643V25.5267C0.108643 21.9573 3.02906 19.0369 6.59845 19.0369C10.1678 19.0369 13.0883 21.9573 13.0883 25.5267L13.1964 49.3226Z" fill="#DCDDDE"/>
<path d="M56.4615 100.592V88.3694C56.4615 76.7959 49.4309 66.304 38.7227 61.8693L26.1758 56.6775L16.3329 80.5816V100.592H56.4615Z" fill="#DCDDDE"/>
<path d="M4.11022 67.7102L11.249 79.8245C14.4939 85.449 16.2245 91.7225 16.2245 98.2123V100.592H56.3532L13.0878 57.1102V39.0469H0V52.8918C0.108163 58.0837 1.51429 63.1673 4.11022 67.7102Z" fill="#DCDDDE"/>
<path d="M11.0329 45.8617C14.1696 42.6168 19.3615 42.6168 22.6064 45.8617L21.4166 47.0515C18.8206 44.4555 14.7104 44.5637 12.2227 47.0515C9.62675 49.6474 9.73491 53.7576 12.2227 56.2454L23.1472 67.1699C23.2553 67.278 23.3635 67.4944 23.3635 67.7107V77.1209C23.3635 77.5536 23.039 77.9862 22.6064 77.9862C22.1737 77.9862 21.7411 77.6617 21.7411 77.2291C21.7411 77.2291 21.7411 77.2291 21.7411 77.1209V68.1433L11.141 57.5433C7.78797 54.1902 7.78797 48.9984 11.0329 45.8617Z" fill="#72767D"/>
<path d="M56.4615 93.0208V96.2657L22.8227 100.592H16.3329V98.2126L56.4615 93.0208Z" fill="#72767D"/>
<path d="M58.0839 106.757L17.8471 111.949C14.6022 112.382 11.5736 110.002 11.1409 106.757C10.7083 103.513 13.0879 100.484 16.3328 100.051L56.5696 94.8594C59.8145 94.4268 62.8431 96.8064 63.2757 100.051C63.7084 103.404 61.3288 106.433 58.0839 106.757Z" fill="#DCDDDE"/>
</svg>
