<svg fill="none" height="464" viewBox="0 0 240 464" width="240" xmlns="http://www.w3.org/2000/svg"><path d="m72 389.43c.0358-.086.0359-.183.0003-.269-.0356-.087-.1041-.155-.1903-.191s-.1831-.036-.2693 0c-.0863.035-.1549.104-.1907.19l-2.72 4.65c-.29-.19-.58-.36-.87-.57-1.7037-1.209-2.8667-3.037-3.2405-5.093-.3737-2.055.0715-4.175 1.2405-5.907l9.87-14.59 20.53 1.88 3.74 17.3c.216 1.017.109 2.076-.3048 3.029-.414.954-1.1149 1.754-2.0052 2.291-1 .57-2.11 1.2-3.43 1.82l-.82-6.66c-.0122-.064-.0464-.122-.0966-.163-.0502-.042-.1133-.064-.1784-.064s-.1282.022-.1784.064c-.0502.041-.0843.099-.0966.163l-1.07 7.73c-5.82 2.3-13.71 3.77-21.24-.15z" fill="#6e707d"/><path d="m116.26 354.26c-1.08-2.7-5.69-4.09-7.77-4.69l-.73-.32c-.87-.391-1.807-.608-2.76-.64l-21.48-.8c-.72 0 1.6 1.48 1.48 2.19l-3.16.26c-.0342.199-.0259.402.0242.598.0501.195.1409.377.2665.535s.2831.287.4623.38c.1791.092.3757.146.577.157l22.06 1.2c-.3 1.791-.092 3.631.6 5.31 1.6 4 5.23 6.29 8.11 5.13s3.92-5.32 2.32-9.31z" fill="#ed9836"/><path d="m116.26 354.26c-1.08-2.7-5.69-4.09-7.77-4.69l-.06-.06c-.452 1.654-.346 3.411.3 5 1.38 3.54 4.79 5.51 7.62 4.41.222-.088.436-.196.64-.32.085-1.483-.164-2.966-.73-4.34z" fill="#e0851b"/><path d="m103.14 331.44c7 12.79 19.19 22 32.25 28.49 1.152.561 2.421.838 3.702.807s2.535-.37 3.658-.987c4.19-2.29 10.51-5.84 9.7-6-1.19-.3-2.06-.28-3.26-.55l-.42-.09c3.07 0 4.38 2.14 7.2.92s7.16-5.83 8.78-8.44c1.09-1.74 1.77-3.87.92-5.85-.229-.576-.609-1.08-1.1-1.458s-1.075-.617-1.69-.692c-2.08-.17-3.4 1.71-4.86 3.05-1.321 1.168-2.912 1.989-4.63 2.39 1.875-.825 3.553-2.041 4.922-3.565s2.398-3.322 3.018-5.275c.57-1.85.57-4.25-1.06-5.3-.537-.298-1.141-.454-1.755-.454s-1.218.156-1.755.454c-1.06.618-2.002 1.421-2.78 2.37-3.72 4-7.56 8.44-12.83 10-5 1.48-10.38.12-15.15-2-8.08-3.52-16.53-8.67-21-16.29-.68 1.8 0 3-1 4.68-.705.915-1.15 2.003-1.29 3.15-.009.132.019.263.08.38.1.14.21.34.35.26z" fill="#fff"/><path d="m103.14 331.44c-.11.08-.25-.12-.33-.23-.061-.117-.089-.248-.08-.38.14-1.147.585-2.235 1.29-3.15.9-1.47.49-2.62.88-4.14l.57.11c1.771 2.782 3.975 5.264 6.53 7.35 0 9 5.09 14 9.54 20.65-7.46-5.45-13.98-12.12-18.4-20.21z" fill="#e4e4e4" opacity=".51"/><path d="m110.22 283.05c-5.754 5.78-9.914 12.952-12.0742 20.817-2.1607 7.864-2.2488 16.154-.2558 24.063" stroke="#fff" stroke-miterlimit="10" stroke-width="11.24"/><path d="m105.16 349s9.7-15.56.19-26.8l-2.59-.86s-1.6 6.05-2.46 6.05l-2.24-7.39-12.06 1s-3 4-5.94 3c0 0-3 5 4 27z" fill="#484482"/><path d="m100.28 327.18v.17l1.76-6.35 5 1c9.51 11.24-1.9 27-1.9 27h-.29l-5.3-7.67z" fill="#413d75"/><path d="m99.57 341.31-14.51 9.69 20.1-2.04z" fill="#3a385b"/><path d="m127.26 340.93c-.3-.47-.59-1-.85-1.48 4.67 2 9.92 3.24 14.77 1.8l.31-.1c1.207.063 2.417.037 3.62-.08.729-.144 1.484-.081 2.18.18.386.226.696.562.891.964.196.402.269.853.209 1.296-.132.886-.562 1.701-1.22 2.31-1.65 1.491-3.777 2.346-6 2.41-2 .19-4.017-.04-5.923-.673-1.906-.634-3.659-1.658-5.147-3.007-1.091-1.086-2.045-2.302-2.84-3.62z" fill="#cacaca"/><path d="m104.17 281.22 2.27.83 5.59 3 2 2.18c-2.813 2.757-5.175 5.939-7 9.43-.52-5-3.65-9.48-5.69-11.91 1.03-1.44 2.01-2.61 2.83-3.53z" fill="#e4e4e4"/><path d="m112.62 253.66c-1 2.53-1.85 12.22-1.85 12.22s5.76-7.84 6.72-10.37.65-5-.7-5.5-3.21 1.12-4.17 3.65z" fill="#cacaca"/><g fill="#fff"><path d="m118.346 289.986c6.15-2.238 8.964-10.018 6.286-17.377-2.679-7.359-9.836-11.511-15.985-9.272-6.15 2.238-8.9644 10.018-6.286 17.378 2.679 7.359 9.835 11.51 15.985 9.271z"/><path d="m99.5 253.68c1.73 3.14 12.44 11.4 12.44 11.4s-1.3-13.47-3-16.6-5.24-4.51-7.84-3.07-3.34 5.14-1.6 8.27z"/><path d="m98.9 258.43c2.76.27 12 4.88 12 4.88s-9.92 2.71-12.68 2.44-4.83-2.13-4.63-4.15 2.55-3.44 5.31-3.17z"/></g><path d="m122 285s-8 6-7.76-4.73z" fill="#f5b41b"/><path d="m114.24 280.27c-5.9-4.06-8.27-10.86-5.3-15.18.68-.972 1.586-1.765 2.64-2.31 5.34-.26 10.78 3.65 13 9.85 1.258 3.336 1.343 7 .24 10.39-3.748.456-7.529-.527-10.58-2.75z" fill="#5ae6dc"/><path d="m114.24 280.27c1.711-.972 3.597-1.597 5.55-1.837s3.935-.092 5.83.437c0 0 3.89 8.14 13.57 16.26 1.08.908 1.811 2.163 2.07 3.55v.21z" fill="#f5cd1b"/><path d="m133.222 291.914c.156-.228-.085-.666-.54-.98-.455-.313-.951-.383-1.107-.155-.157.227.085.665.539.979.455.313.951.383 1.108.156z" fill="#bd9e15"/><path d="m107.5 332c.828 0 1.5-.895 1.5-2s-.672-2-1.5-2-1.5.895-1.5 2 .672 2 1.5 2z" fill="#737093"/><path d="m92.06 350s-5-12-11.38-11.92c-.44 0 3.38 13.92 3.38 13.92l18.5-.5z" fill="#3a385b" opacity=".32"/><path d="m121.81 406.28h-16c-.225.001-.448-.042-.656-.127-.208-.086-.397-.212-.556-.371s-.285-.348-.371-.556c-.085-.208-.128-.431-.127-.656v-24.57l5.32-2.24.59 16.18c.042 1.266.488 2.486 1.272 3.481.785.995 1.867 1.713 3.088 2.049 3.212.767 6.133 2.448 8.41 4.84.15.178.244.396.272.627s-.012.465-.115.674-.264.383-.464.502-.431.177-.663.167z" fill="#3a3445"/><path d="m111.81 376.3 1.24 2c.178.303.277.646.288.997.01.351-.068.699-.227 1.012-.16.313-.395.58-.686.778-.29.198-.625.319-.975.353l-9.4 1c-.318.028-.639-.021-.934-.143-.296-.122-.558-.313-.765-.556-.206-.244-.3515-.534-.4231-.846-.0716-.311-.0674-.635.0121-.945l.12-1.9z" fill="#7e808f"/><path d="m85.28 382.39-4.9 12.86c-.1586.407-.2303.843-.2104 1.279.0198.436.1308.864.3258 1.255s.4696.736.8062 1.015c.3367.278.7278.483 1.1484.601 2.46.68 5.67 4 7.5 6.46.1485.2.2386.437.26.685s-.0266.497-.1387.719-.2839.409-.4961.539-.4564.198-.7052.197l-15.49-2c-.3112.002-.6181-.072-.8938-.216-.2758-.144-.5119-.354-.6877-.611-.1757-.256-.2858-.552-.3204-.862-.0346-.309.0072-.622.1219-.911l8.49-21.88z" fill="#3a3445"/><path d="m86.78 380.84.28 1.37c.0732.336.0675.685-.0166 1.019-.0841.333-.2443.643-.468.905-.2237.261-.5049.467-.8216.602s-.6602.194-1.0038.174l-6.6-.36c-.3932-.022-.7737-.148-1.1033-.363-.3297-.216-.597-.514-.7751-.866-.1782-.351-.2611-.743-.2403-1.136s.1445-.774.3587-1.105l.55-.83z" fill="#9395a6"/><path d="m105.06 351c.25.73 20.09 25.49 1.37 28.61-14.37 2.39-18.9-18.93-12.13-27.86z" fill="#7e808f"/><path d="m98.43 351.55s4.18 33-17.43 30.45c0 0-12 0-4-19l4-11z" fill="#9395a6"/><path d="m111.56 370.5s-8 8-13 1c0 0 1 13 13-1z" fill="#6e707d"/><path d="m81.9 368.55c.46-.89-3.64 2.6-5.93.93.03 0 3.58 3.52 5.93-.93z" fill="#aaacbe"/><path d="m113 272s3 1 1 5" stroke="#000" stroke-linecap="round" stroke-miterlimit="10" stroke-width="2"/><path d="m81 349h26v4h-26c-.5304 0-1.0391-.211-1.4142-.586s-.5858-.884-.5858-1.414.2107-1.039.5858-1.414.8838-.586 1.4142-.586z" fill="#ed9836"/><path d="m123.986 324.737 2.95-2.848c1.406-1.357 3.294-2.101 5.249-2.066 1.954.034 3.814.844 5.172 2.25l-13.583 13.113c-.675-.699-1.205-1.524-1.559-2.428-.355-.905-.527-1.87-.507-2.841.019-.971.231-1.928.622-2.818.391-.889.954-1.691 1.656-2.362z" fill="#a075e0"/><path d="m139.39 355.37c9.726 0 17.61-7.884 17.61-17.61s-7.884-17.61-17.61-17.61-17.61 7.884-17.61 17.61 7.884 17.61 17.61 17.61z" fill="#b78afa"/><path d="m125 347.92c3.71-.44 7.36-4.24 8.76-9.54 1.67-6.34-.52-12.42-4.89-13.57-.399-.101-.808-.158-1.22-.17-.17.15-.35.29-.52.45-3.023 2.924-4.899 6.833-5.29 11.021-.39 4.187.73 8.376 3.16 11.809z" fill="#c4a0fa"/><path d="m146.48 344.2c-3.43 3.31-4.68 7.57-2.79 9.53.336.338.747.592 1.2.74 2.797-.908 5.32-2.508 7.334-4.651s3.454-4.761 4.186-7.609c-.088-.166-.192-.324-.31-.47-1.88-1.95-6.19-.85-9.62 2.46z" fill="#9069c9"/><path d="m154.29 328.37c-.536-.848-1.148-1.644-1.83-2.38-3.215-1.43-6.746-2.002-10.248-1.661s-6.856 1.584-9.735 3.607c-2.879 2.024-5.184 4.759-6.69 7.939-1.507 3.18-2.164 6.696-1.907 10.205.467.882 1.009 1.722 1.62 2.51-.79-3.669-.481-7.49.887-10.984 1.369-3.495 3.736-6.509 6.808-8.666 3.071-2.157 6.71-3.362 10.461-3.463 3.752-.101 7.451.905 10.634 2.893z" fill="#a075e0" opacity=".46"/><path d="m70.68 384.32c-1.0118-1.755-1.8684-3.596-2.56-5.5-5.25-14-6.05-37.36 7.61-53 2.1741-2.443 5.1291-4.055 8.36-4.56.1836-.033.3726-.016.5479.048.1753.063.3306.172.4503.315s.1995.315.2315.499c.0319.184.0148.373-.0497.548-2.64 7.22-13.59 34.19 1.73 51.33l-12.49 11.39c-.51.31-3.51-.51-3.83-1.07z" fill="#fff"/><path d="m91.22 320.57-9.22.43c-.0954.003-.1885.031-.2696.081-.0811.051-.1474.122-.1921.206s-.0663.179-.0625.274c.0039.096.0329.189.0842.269.9786 1.531 1.5747 3.276 1.7383 5.085.1636 1.81-.1102 3.633-.7983 5.315l8.5-8.23z" fill="#484482"/><path d="m154 342.82c.27-.08.54-.16.81-.27-.28.057-.552.147-.81.27z" fill="#e4e4e4"/><path d="m154.82 342.55c-.27.11-.54.19-.81.27-1.34.63-2.83 2.29-4.36 5.53-3.11 6.6-9.93 9.75-14.89 11.26 3.305 1.654 7.092 2.076 10.68 1.19 3.743-.816 7.166-2.707 9.85-5.44 1.186-1.244 2.162-2.673 2.89-4.23.334-.685.608-1.398.82-2.13.66-2.62-1.27-7-4.18-6.45z" fill="#cacaca"/><path d="m132.45 406.11c-.236-.119-.51-.139-.761-.056-.251.082-.459.26-.579.496-1.65 3.3-8 4.44-13.79 2.5-2.08-.69-4.53-.37-7.13 0-3.76.49-7.31 1-9.41-1.65-3.78-4.73-2.81-8.14-1.21-13.79.45-1.58 1-3.38 1.41-5.37.941-4.424.941-8.996 0-13.42-1.13-5.67-3.48-9.67-7.38-12.6-1.0822-.79-2.3158-1.347-3.6236-1.638s-2.6615-.309-3.9764-.052c-1.2737.215-2.4892.691-3.57 1.398s-2.0035 1.631-2.71 2.712c-2.94 4.66-6 9.47-7.46 15-1 3.69-1.73 7.36-2.43 10.9-.8877 5.139-2.1511 10.206-3.78 15.16-2.58 7.31-5 13.12-10.93 15.72-6.405 2.73-13.5523 3.182-20.25 1.28-.53-.15-1.22-.37-2-.62-5.51-1.75-17-5.39-23.50001.19-3 2.57-4.54 6.48-6.32 11-.9 2.27-1.84 4.65-3.0000022 7v4.1c1.9142022-3.308 3.5337722-6.778 4.8400022-10.37 1.68-4.28 3.14-8 5.76001-10.22 5.67-4.86 16.43-1.45 21.6.19.84.27 1.55.49 2.11.65 7.1392 2.024 14.7567 1.537 21.58-1.38 7.16-3.16 9.85-10.77 12-16.89 1.6601-5.049 2.9502-10.213 3.86-15.45.7-3.51 1.41-7.14 2.4-10.76 1.41-5.21 4.37-9.9 7.22-14.43.5655-.852 1.3019-1.578 2.1627-2.13.8607-.553 1.8269-.921 2.8373-1.08 1.0359-.204 2.1025-.194 3.1344.03 1.0318.223 2.007.656 2.8656 1.27 3.51 2.65 5.58 6.2 6.58 11.4.8807 4.147.8807 8.433 0 12.58-.43 1.94-.93 3.71-1.37 5.26-1.66 5.84-2.86 10 1.57 15.58 2.8 3.5 7.28 2.91 11.23 2.39 2.36-.31 4.59-.61 6.23-.06 6.1 2 13.83 1.28 16.21-3.5.12-.234.143-.505.065-.756-.079-.251-.253-.461-.485-.584z" fill="#9069c9"/><path d="m33.2896 418.356 3.691 1.785c1.7597.851 3.1092 2.367 3.7517 4.213s.5253 3.871-.3257 5.631l-16.9696-8.207c.4218-.872 1.0113-1.652 1.7349-2.296s1.567-1.14 2.4821-1.457c.915-.318 1.8838-.452 2.8508-.395.967.056 1.9133.303 2.7848.726z" fill="#a075e0"/><path d="m26.38 454.92c9.7258 0 17.61-7.884 17.61-17.61s-7.8842-17.61-17.61-17.61c-9.7257 0-17.60998 7.884-17.60998 17.61s7.88428 17.61 17.60998 17.61z" fill="#b78afa"/><path d="m11.89 427.33c1.69 3.33 6.52 5.45 12 4.93 6.53-.62 11.48-4.77 11-9.28-.0461-.408-.1332-.81-.26-1.2-.2-.11-.39-.23-.6-.33-3.7848-1.824-8.0971-2.233-12.1575-1.155-4.0605 1.078-7.6013 3.574-9.9825 7.035z" fill="#c4a0fa"/><path d="m22.79 446.19c-4.29-2.08-8.73-1.78-9.91.67-.205.43-.3044.903-.29 1.38 1.8218 2.312 4.1972 4.127 6.9065 5.277 2.7094 1.15 5.665 1.598 8.5935 1.303.1211-.139.2282-.29.32-.45 1.18-2.44-1.33-6.11-5.62-8.18z" fill="#9069c9"/><path d="m40.34 448.06c.6037-.8 1.139-1.65 1.6-2.54.2314-3.511-.4505-7.022-1.9795-10.191-1.5289-3.169-3.8527-5.888-6.7449-7.892s-6.2542-3.225-9.7585-3.543c-3.5042-.319-7.0311.276-10.2371 1.726-.6661.745-1.2682 1.544-1.8 2.39 3.1716-2.011 6.8655-3.042 10.6199-2.964 3.7543.077 7.4026 1.26 10.4886 3.399 3.0861 2.14 5.473 5.141 6.8623 8.63 1.3894 3.489 1.7195 7.31.9492 10.985z" fill="#a075e0" opacity=".46"/><path d="m62.42 440.16c7.8756 0 14.26-6.384 14.26-14.26s-6.3844-14.26-14.26-14.26-14.26 6.384-14.26 14.26 6.3844 14.26 14.26 14.26z" fill="#b78afa"/><path d="m48.18 426c2.67 1.43 6.85.61 10.24-2.26 4-3.43 5.42-8.47 3.06-11.27-.2183-.252-.4631-.48-.73-.68-.19 0-.37 0-.55.06-3.3639.533-6.4257 2.253-8.6307 4.849s-3.4073 5.895-3.3893 9.301z" fill="#c4a0fa"/><path d="m64.14 433.47c-3.81.6-6.62 2.85-6.28 5 .0652.381.2194.74.45 1.05 2.2776.699 4.695.81 7.0273.324s4.5038-1.554 6.3127-3.104c.015-.15.015-.3 0-.45-.34-2.15-3.65-3.43-7.51-2.82z" fill="#9069c9"/><path d="m64.5 416c-3.7052.014-7.2978 1.275-10.2 3.578-2.9021 2.304-4.945 5.517-5.8 9.122.1428.76.3502 1.506.62 2.23.3033-3.016 1.4855-5.877 3.3999-8.227s4.4767-4.087 7.369-4.994 5.9874-.946 8.9012-.11 5.5182 2.509 7.4899 4.811c-.1912-.746-.442-1.475-.75-2.18-3.0241-2.73-6.9557-4.238-11.03-4.23z" fill="#a075e0" opacity=".46"/><path d="m82.19 367.58c-.802-1.345-1.4718-2.765-2-4.24-.4809-1.012-.7724-2.103-.86-3.22-.0368-.557.0742-1.114.3218-1.615.2476-.5.623-.926 1.0882-1.235 1.37-.76 3.12 0 4.18 1.18 2.1 2.29 3.11 4.09 2.57 8.74-.16 1.36-1.46 3.32-1.53 4.7-.06 1.09.58 1.15 0 2.07-.6173.473-1.3253.813-2.08 1-.72.14-.7-.39-1-1-.74-1.41 0-2.93-.31-4.5-.0872-.576-.2416-1.14-.46-1.68z" fill="#e4e4e4"/><path d="m78.31 362.44c.4274-.246.9051-.392 1.397-.426.4919-.035.9853.042 1.443.226.938.391 1.773.993 2.44 1.76 2.5849 2.911 3.9807 6.688 3.91 10.58.0267 1.228-.1525 2.451-.53 3.62-.8135 2.055-2.2509 3.804-4.11 5-.1891.175-.4113.31-.6534.398-.2422.087-.4994.125-.7566.112-.74-.15-1.13-1-1.31-1.84-.7-3.11-.1-6.39-.9-9.47-.65-2.52-2.75-3.57-2.65-6.42-.0208-.685.1248-1.365.4244-1.982.2995-.616.7441-1.151 1.2956-1.558z" fill="#cacaca"/><path d="m79.54 368.43c-1.53-1.17-4-1.79-5.06.35-1 2 0 4.39.74 6.27.609 1.268 1.0397 2.614 1.28 4 .1099.735.1334 1.48.07 2.22-.1195.342-.3143.653-.57.91-.8.76-1.92.39-2.81 0-3.87-1.95-5.07-3.33-5.07-3.33.5771 1.95 1.4398 3.803 2.56 5.5 1.32 1.91 3.12 3.65 5.25 3.65 4.25 0 7.31-4.73 7.95-8.46.3449-2.071.1236-4.197-.6404-6.153-.7639-1.955-2.0422-3.668-3.6996-4.957z" fill="#b5b5b5"/><path d="m71.36 388c.54-2.68 1.13-5.39 1.87-8.13" stroke="#9069c9" stroke-linecap="round" stroke-miterlimit="10" stroke-width="2"/></svg>