<svg width="180" height="102" viewBox="0 0 180 102" fill="none" xmlns="http://www.w3.org/2000/svg">
<g clip-path="url(#clip0)">
<path opacity="0.2" d="M0 101.174V95.2226C0 87.8137 2.79352 80.6477 7.89474 75.1821C13.4818 69.2307 21.2551 65.8299 29.3927 65.8299H42.5101C47.8543 65.8299 52.1053 61.5789 52.1053 56.2348V41.5384C52.1053 30.8502 60.8502 22.1052 71.5385 22.1052H137.854C148.543 22.1052 157.287 30.8502 157.287 41.5384V70.0809C157.287 72.6315 159.352 74.6963 161.903 74.6963H167.976C174.534 74.6963 180 80.0404 180 86.7206V101.296H0V101.174Z" fill="#AEC7FF"/>
<path d="M150.729 22.834L128.988 0L107.368 22.834H113.441L113.563 101.174H144.656V22.834H150.729Z" fill="#FFD836"/>
<path d="M127.652 35.5872H28.0566V101.174H127.652V35.5872Z" fill="#3E70DD"/>
<path d="M116.721 95.7085H38.9878C37.6518 95.7085 36.5587 94.6154 36.5587 93.2793V61.7004C36.5587 60.3644 37.6518 59.2712 38.9878 59.2712H116.721C118.057 59.2712 119.15 60.3644 119.15 61.7004V93.2793C119.15 94.6154 118.057 95.7085 116.721 95.7085Z" fill="#7196FF"/>
<path d="M127.652 30.7288H28.0566V53.8057H127.652V30.7288Z" fill="#7196FF"/>
<path d="M109.433 48.5829L100.931 40.0809L103.846 37.2874L109.433 42.8744L115.142 37.2874L117.935 40.0809L109.433 48.5829Z" fill="white"/>
<path d="M151.943 61.093L141.012 72.0242V90.2428L151.943 101.174L162.874 90.2428V72.0242L151.943 61.093ZM157.409 88.0566L151.943 93.5222L146.478 88.0566V74.3319L151.943 68.8663L157.409 74.3319V88.0566Z" fill="#F47FFF"/>
<path d="M148.3 75.0607V87.3279L151.943 90.9716L155.587 87.3279V75.0607L151.943 71.417L148.3 75.0607Z" fill="#F47FFF"/>
<path d="M151.943 61.093V68.8663L157.409 74.3319L162.874 72.0242L151.943 61.093Z" fill="#FFC0FF"/>
<path d="M13.9675 84.0487L12.3886 87.2066C12.0242 87.9354 12.753 88.7856 13.6032 88.4212L16.7611 86.8422C17.004 86.7208 17.2469 86.7208 17.4898 86.8422L20.6477 88.4212C21.3765 88.7856 22.2267 88.0568 21.8623 87.2066L20.2833 84.0487C20.1619 83.8058 20.1619 83.5629 20.2833 83.32L21.8623 80.1621C22.2267 79.4333 21.4979 78.5831 20.6477 78.9475L17.4898 80.5265C17.2469 80.6479 17.004 80.6479 16.7611 80.5265L13.6032 78.9475C12.8744 78.5831 12.0242 79.3119 12.3886 80.1621L13.9675 83.32C14.089 83.4414 14.089 83.8058 13.9675 84.0487Z" fill="#D4E4FF"/>
<path d="M170.162 52.8339C169.433 52.8339 168.947 52.3481 168.947 51.6193V50.4048C168.947 49.676 169.433 49.1902 170.162 49.1902C170.891 49.1902 171.376 49.676 171.376 50.4048V51.6193C171.376 52.2266 170.891 52.8339 170.162 52.8339Z" fill="#AEC7FF"/>
<path d="M170.162 62.5505C169.433 62.5505 168.947 62.0646 168.947 61.3359V60.1213C168.947 59.3926 169.433 58.9067 170.162 58.9067C170.891 58.9067 171.376 59.3926 171.376 60.1213V61.3359C171.376 61.9432 170.891 62.5505 170.162 62.5505Z" fill="#AEC7FF"/>
<path d="M173.198 55.8703C173.198 55.1416 173.684 54.6558 174.413 54.6558H175.627C176.356 54.6558 176.842 55.1416 176.842 55.8703C176.842 56.5991 176.356 57.0849 175.627 57.0849H174.413C173.806 57.0849 173.198 56.4776 173.198 55.8703Z" fill="#AEC7FF"/>
<path d="M163.482 55.8703C163.482 55.1416 163.968 54.6558 164.696 54.6558H165.911C166.64 54.6558 167.125 55.1416 167.125 55.8703C167.125 56.5991 166.64 57.0849 165.911 57.0849H164.696C164.089 57.0849 163.482 56.4776 163.482 55.8703Z" fill="#AEC7FF"/>
<path d="M12.2671 51.3764C11.5384 51.3764 11.0526 50.8906 11.0526 50.1618V48.9472C11.0526 48.2185 11.5384 47.7327 12.2671 47.7327C12.9959 47.7327 13.4817 48.2185 13.4817 48.9472V50.1618C13.4817 50.8906 12.9959 51.3764 12.2671 51.3764Z" fill="#D4E4FF"/>
<path d="M12.2671 61.0929C11.5384 61.0929 11.0526 60.6071 11.0526 59.8784V58.6638C11.0526 57.935 11.5384 57.4492 12.2671 57.4492C12.9959 57.4492 13.4817 57.935 13.4817 58.6638V59.8784C13.4817 60.6071 12.9959 61.0929 12.2671 61.0929Z" fill="#D4E4FF"/>
<path d="M15.3036 54.4128C15.3036 53.6841 15.7894 53.1982 16.5182 53.1982H17.7327C18.4615 53.1982 18.9473 53.6841 18.9473 54.4128C18.9473 55.1416 18.4615 55.6274 17.7327 55.6274H16.5182C15.9109 55.6274 15.3036 55.1416 15.3036 54.4128Z" fill="#D4E4FF"/>
<path d="M5.58698 54.4128C5.58698 53.6841 6.0728 53.1982 6.80155 53.1982H8.01612C8.74487 53.1982 9.2307 53.6841 9.2307 54.4128C9.2307 55.1416 8.74487 55.6274 8.01612 55.6274H6.80155C6.19426 55.6274 5.58698 55.1416 5.58698 54.4128Z" fill="#D4E4FF"/>
<path d="M123.522 72.8745H34.8583V74.0891H123.522V72.8745Z" fill="#3E70DD"/>
<path d="M44.4534 68.9879C46.1303 68.9879 47.4898 67.6285 47.4898 65.9515C47.4898 64.2745 46.1303 62.915 44.4534 62.915C42.7764 62.915 41.4169 64.2745 41.4169 65.9515C41.4169 67.6285 42.7764 68.9879 44.4534 68.9879Z" fill="#AEC7FF"/>
<path d="M99.7165 64.1296H51.1335V67.7734H99.7165V64.1296Z" fill="#AEC7FF"/>
<path d="M44.4534 83.5629C46.1303 83.5629 47.4898 82.2034 47.4898 80.5264C47.4898 78.8495 46.1303 77.49 44.4534 77.49C42.7764 77.49 41.4169 78.8495 41.4169 80.5264C41.4169 82.2034 42.7764 83.5629 44.4534 83.5629Z" fill="#AEC7FF"/>
<path d="M113.077 78.7046H51.1335V82.3483H113.077V78.7046Z" fill="#AEC7FF"/>
<path d="M44.4534 92.0648C46.1303 92.0648 47.4898 90.7053 47.4898 89.0284C47.4898 87.3514 46.1303 85.9919 44.4534 85.9919C42.7764 85.9919 41.4169 87.3514 41.4169 89.0284C41.4169 90.7053 42.7764 92.0648 44.4534 92.0648Z" fill="#AEC7FF"/>
<path d="M87.5707 87.2065H51.1335V90.8503H87.5707V87.2065Z" fill="#AEC7FF"/>
</g>
<defs>
<clipPath id="clip0">
<rect width="180" height="101.174" fill="white"/>
</clipPath>
</defs>
</svg>
