<svg fill="none" height="80" viewBox="0 0 80 80" width="80" xmlns="http://www.w3.org/2000/svg" xmlns:xlink="http://www.w3.org/1999/xlink"><clipPath id="a"><path d="m0 0h80v80h-80z"/></clipPath><g clip-path="url(#a)"><path d="m40 80c22.0914 0 40-17.9086 40-40s-17.9086-40-40-40-40 17.9086-40 40 17.9086 40 40 40z" fill="#a1c2ff"/><g fill="#c34989"><path d="m19.9099 46c-.2235-.1362-.4741-.2218-.7342-.2506-.2601-.0289-.5234-.0004-.7712.0835-.2479.0839-.4744.2212-.6635.4021s-.3363.4011-.4311.645l-1.9 3.66 7.52 1.13c-1.0147-1.0245-1.6587-2.3583-1.83-3.79-.0616-.3773-.1987-.7384-.4032-1.0614s-.4721-.6015-.7868-.8186z"/><path d="m47.08 66.23h.23c1.698-.3438 3.1932-1.3405 4.1638-2.7757.9705-1.4352 1.3388-3.194 1.0255-4.898s-1.283-3.2169-2.7005-4.213c-1.4176-.9961-3.1695-1.3959-4.8788-1.1133h-.22c-10.86 2-17.14.94-25.75-4.24-1.5015-.879-3.289-1.1305-4.9747-.7001-1.6858.4304-3.1339 1.5081-4.03017 2.9993-.8963 1.4912-1.16853 3.2756-.75765 4.9663.41088 1.6906 1.47172 3.151 2.95252 4.0645 11.41 6.86 20.86 8.47 34.94 5.91z"/><path d="m47.08 66.23h.23c1.698-.3438 3.1932-1.3405 4.1638-2.7757.9705-1.4352 1.3388-3.194 1.0255-4.898s-1.283-3.2169-2.7005-4.213c-1.4176-.9961-3.1695-1.3959-4.8788-1.1133h-.22c-10.86 2-17.14.94-25.75-4.24-1.5015-.879-3.289-1.1305-4.9747-.7001-1.6858.4304-3.1339 1.5081-4.03017 2.9993-.8963 1.4912-1.16853 3.2756-.75765 4.9663.41088 1.6906 1.47172 3.151 2.95252 4.0645 11.41 6.86 20.86 8.47 34.94 5.91z"/></g><path d="m38.7301 67.28c-3.4991.2401-7.0143.0588-10.47-.54 1.12-4.26 1-10.43-.44-13.67 2.9807.8571 6.082 1.2186 9.18 1.07z" fill="#fff"/><path d="m32.6599 60.17c-.2-2.93-.92-5.4-1.77-6.4 4 .68 8.34.45 13.81-.54h.22c1.7093-.2826 3.4613.1171 4.8788 1.1133 1.4175.9961 2.3873 2.509 2.7006 4.213.3132 1.7039-.055 3.4628-1.0256 4.898-.9705 1.4351-2.4657 2.4319-4.1638 2.7757h-.23c-5.1599 1.0483-10.4418 1.3648-15.69.94.95-.68 1.5-3.58 1.27-7z" fill="#f8d99f"/><path d="m20.22 36.07c.0832.623.0138 1.2569-.2023 1.8471-.216.5903-.5722 1.1192-1.038 1.5413-.4657.4221-1.027.7247-1.6356.8818-.6085.1572-1.2462.1641-1.858.0202-.6119-.1438-1.1796-.4342-1.6544-.846-.4748-.4119-.8424-.9329-1.0713-1.5183-.2288-.5854-.312-1.2177-.2424-1.8423.0696-.6247.2899-1.2231.642-1.7438.1572-.2386.2271-.5242.1979-.8085-.0291-.2843-.1555-.5497-.3579-.7515-.2243-.1906-.3849-.4454-.46-.73-.0253-.1839-.0141-.371.0331-.5505.0471-.1796.1293-.3481.2417-.4958s.2529-.2718.4134-.3651.3378-.154.5218-.1786c6.32-.85 6.47 5.54 6.47 5.54z" fill="#f3df8c"/><path d="m19.78 33.91c-.5.43-1.73.52-2.67-.88-.17 2-1.43 1.84-2.69 1.68-.15 1.26-1.41 1.11-1.62.36.1002-.2303.2207-.4512.36-.66.1572-.2387.2271-.5243.198-.8085-.0292-.2843-.1556-.5497-.358-.7515-.2243-.1906-.3848-.4454-.46-.73-.0253-.1839-.0141-.371.0331-.5506.0471-.1795.1293-.348.2417-.4957.1124-.1478.2529-.2718.4134-.3651s.3378-.154.5218-.1786c3.83-.53 5.39 1.62 6.03 3.38z" fill="#8d85ff"/><path d="m16.58 42.43c1.2593 0 2.28-1.0208 2.28-2.28s-1.0207-2.28-2.28-2.28c-1.2592 0-2.28 1.0208-2.28 2.28s1.0208 2.28 2.28 2.28z" fill="#5a2851"/><path d="m13.23 58.49.71-17.42c.0451-.7068.3691-1.3667.9007-1.8347.2633-.2316.5696-.4092.9015-.5225s.6828-.1601 1.0328-.1378.6921.1134 1.0069.2679c.3148.1546.596.3696.8277.6329.2317.2632.4093.5695.5226.9014s.1601.6828.1378 1.0328l-1 11.48z" fill="#713855"/><path d="m13.97 60.17c3.8605 0 6.99-3.1295 6.99-6.99s-3.1295-6.99-6.99-6.99-6.99002 3.1295-6.99002 6.99 3.12952 6.99 6.99002 6.99z" fill="#dd6faa"/><path d="m40.5899 53.39c-3.19 7.77-1.59 18.88.24 26.61 8.4751-.176 16.6751-3.0399 23.4169-8.1786 6.7419-5.1386 11.6769-12.2861 14.0931-20.4114-.36-1-.74-2-1.15-3.07z" fill="#f8d99f"/><path d="m65 50.85c-.3627.7884-.5663 1.6407-.5993 2.5079-.0329.8673.1056 1.7325.4074 2.5462.3019.8136.7613 1.5598 1.3519 2.1957s1.3008 1.1491 2.09 1.5102c1.6881.8315 3.3305 1.7528 4.92 2.76 2.4984-3.7076 4.3575-7.8077 5.5-12.13-2.8-1.66-4.73-2.56-4.9-2.64-1.5942-.7302-3.4129-.7981-5.0571-.1888s-2.9795 1.846-3.7129 3.4388z" fill="#f8d99f"/><path d="m55.52 3.12c-.73 2.22-1.46 4.89-2.16 8.06-.46 2.08-.79 3.87-1 5.42-.58-1.47-1.31-3.14-2.24-5.09-1.8083-4.03651-4.0802-7.84882-6.77-11.36-1.11-.09-2.22-.15-3.35-.15s-2.53.07-3.77.18c-.08 3 1.33 8 5 15.6 5.65 11.89 8.29 12.28 10.77 11.1.5339-.2223 1.0095-.5645 1.39-1 .4864.3756 1.0556.6293 1.66.74 2.66.58 5.14-.4 8-13.28.43-1.93.76-3.68 1-5.29-2.6319-1.98467-5.4964-3.64028-8.53-4.93z" fill="#dd6faa"/><path d="m56.5 12.88c-1.57 7.13-.69 8.17.61 8.46s2.55-.29 4.12-7.42c.5718-2.354.9068-4.75932 1-7.18-1-.66-2-1.28-3.07-1.86-1.2773 2.52051-2.1737 5.2165-2.66 8z" fill="#ef90bc"/><path d="m43.0601 16c3.15 6.59 4.19 7 5 6.61s1.15-1.47-2-8c-3.15-6.53001-5.06-8.95001-5.89-8.55001s-.26 3.33 2.89 9.94001z" fill="#ef90bc"/><path d="m66 62.45-24.34 2.68c-.19 1.22-2.26 8-4.12 14.79.81 0 1.63.08 2.46.08 5.801.0065 11.5336-1.2527 16.7979-3.6897s9.9336-5.9931 13.6821-10.4203c-.71-.79-1.4-1.59-2-2.37-.2908-.3716-.6702-.6643-1.1035-.8512-.4333-.187-.9066-.2622-1.3765-.2188z" fill="#713855"/><path d="m65.0001 50.85c-5.59 2.5-7.86 2.48-11.67 10.1-4.27-4.14-3.62-5-5-8.89z" fill="#c34989"/><path d="m41.22 54.3 3.27-.3c-1.53 3.81-1.37 8.38.83 17.59.035.1459.0386.2975.0106.4448-.028.1474-.087.2871-.173.41s-.1971.2261-.326.3028c-.1289.0768-.2725.1253-.4216.1424h-.34c-.2473.0242-.4953-.0384-.7015-.177-.2062-.1387-.3576-.3448-.4285-.583-2.87-9.95-2.85-13.29-1.72-17.83z" fill="#5a2851"/><path d="m72.7501 51.19-2.1-1.19c-6.53 2.25-6.9 10.38-6.59 19.5.005.1621.0427.3214.1109.4685.0683.1471.1656.2788.2862.3872s.2618.1913.4153.2436.3159.0729.4776.0607h.31c.66-.55 1.29-1.13 1.91-1.72-.27-10.94.24-15.73 5.18-17.75z" fill="#5a2851"/><path d="m71.4601 15.31-37.95 4.39c-2.1084.2433-4.0866 1.1446-5.6537 2.5759-1.5671 1.4314-2.6434 3.32-3.0763 5.3978-.4328 2.0778-.2001 4.2391.6651 6.1771.8653 1.9381 2.319 3.5543 4.1549 4.6192-1.5475 1.4551-2.5969 3.3611-2.9989 5.447-.4019 2.0858-.136 4.2453.76 6.1713s2.3764 3.5205 4.2308 4.5567 3.9882 1.4613 6.0981 1.215l39.18-4.53c.5355-.0625 1.0643-.1729 1.58-.33 1.7432-6.0798 2.0177-12.4867.8007-18.6933s-3.8906-12.0354-7.8007-17.0067z" fill="#dd6faa"/><path d="m47.5751 35.1639c.8255-.47.8724-1.9443.1046-3.293-.7677-1.3487-2.0593-2.0611-2.8849-1.5912-.8255.47-.8724 1.9443-.1046 3.293.7677 1.3487 2.0593 2.0611 2.8849 1.5912z" fill="#1b1925"/><path d="m50.53 38.57c2.5566-.7311 5.1795-1.2068 7.83-1.42-.42 2.44-1.3 4.24-2.92 4.76s-3.88.09-4.91-3.34z" fill="#731e36"/><path d="m55.4399 41.91c-.5476.1973-1.1371.2484-1.7105.1485-.5734-.1-1.1109-.3476-1.5595-.7185.179-.5568.4801-1.0666.8812-1.4923.4011-.4256.8922-.7564 1.4373-.9682.5452-.2117 1.1308-.2991 1.7141-.2558.5833.0434 1.1495.2163 1.6574.5063-.1569.6208-.4578 1.1959-.8782 1.6789-.4204.4829-.9486.8601-1.5418 1.1011z" fill="#9d2b4c"/><path d="m63.3499 29c-.5093-.0611-1.0258-.0162-1.5169.1319-.4912.148-.9464.3961-1.3371.7285-.3906.3325-.7083.7422-.9331 1.2033-.2247.4611-.3517.9638-.3729 1.4763" stroke="#1b1925" stroke-linecap="round" stroke-miterlimit="10" stroke-width="1.27"/><path d="m38.7299 62.35c0-.2095-.0832-.4105-.2314-.5586-.1481-.1482-.3491-.2314-.5586-.2314s-.4105.0832-.5586.2314c-.1482.1481-.2314.3491-.2314.5586 0 0 .08 2.17.17 4.94l1.57-.07z" fill="#f8c35e"/></g></svg>