<svg width="50" height="30" viewBox="0 0 50 30" fill="none" xmlns="http://www.w3.org/2000/svg">
<g clip-path="url(#clip0_104_659)">
<path fill-rule="evenodd" clip-rule="evenodd" d="M2 0H48C48.5304 0 49.0391 0.210714 49.4142 0.585786C49.7893 0.960859 50 1.46957 50 2V28C50 28.5304 49.7893 29.0391 49.4142 29.4142C49.0391 29.7893 48.5304 30 48 30H2C1.46957 30 0.960859 29.7893 0.585786 29.4142C0.210714 29.0391 0 28.5304 0 28V2C0 1.46957 0.210714 0.960859 0.585786 0.585786C0.960859 0.210714 1.46957 0 2 0Z" fill="#2E77BC"/>
<path fill-rule="evenodd" clip-rule="evenodd" d="M7.65902 11.347L6.88202 9.43602L6.11002 11.347H7.65902ZM24.762 10.587C24.606 10.682 24.422 10.685 24.202 10.685H22.823V9.62002H24.22C24.417 9.62002 24.624 9.62902 24.758 9.70602C24.905 9.77602 24.996 9.92502 24.996 10.13C24.996 10.34 24.909 10.51 24.762 10.587ZM34.592 11.347L33.808 9.43602L33.028 11.347H34.592ZM16.268 13.417H15.105L15.101 9.66102L13.456 13.416H12.46L10.811 9.65802V13.416H8.50402L8.06802 12.346H5.70602L5.26602 13.416H4.03402L6.06502 8.62102H7.75102L9.68002 13.161V8.62102H11.531L13.016 11.874L14.379 8.62102H16.268V13.417ZM20.903 13.417H17.113V8.62002H20.903V9.61902H18.248V10.483H20.839V11.466H18.248V12.424H20.903V13.415V13.417ZM26.245 9.91302C26.245 10.677 25.741 11.073 25.446 11.191C25.694 11.286 25.906 11.455 26.007 11.595C26.167 11.833 26.195 12.046 26.195 12.475V13.416H25.051L25.047 12.812C25.047 12.523 25.074 12.108 24.867 11.877C24.702 11.709 24.449 11.672 24.041 11.672H22.823V13.416H21.69V8.62102H24.3C24.879 8.62102 25.306 8.63702 25.673 8.85102C26.031 9.06502 26.245 9.37802 26.245 9.91302ZM26.904 8.62102H28.061V13.416H26.904V8.62102ZM41.488 13.416H39.881L37.731 9.81702V13.417H35.421L34.979 12.347H32.623L32.195 13.417H30.867C30.317 13.417 29.618 13.293 29.223 12.886C28.824 12.479 28.616 11.927 28.616 11.056C28.616 10.344 28.741 9.69402 29.228 9.18002C29.595 8.79802 30.168 8.62102 30.951 8.62102H32.049V9.65002H30.974C30.56 9.65002 30.326 9.71202 30.101 9.93402C29.907 10.136 29.775 10.517 29.775 11.02C29.775 11.534 29.875 11.904 30.087 12.146C30.261 12.336 30.579 12.393 30.877 12.393H31.387L32.985 8.62302H34.685L36.605 13.158V8.62002H38.333L40.326 11.96V8.62002H41.488V13.415V13.416ZM5.95802 14.358L6.39602 13.293H7.37402L7.81002 14.358H11.624V13.544L11.964 14.361H13.944L14.284 13.531V14.358H23.761L23.756 12.61H23.94C24.068 12.614 24.106 12.626 24.106 12.84V14.358H29.007V13.951C29.403 14.165 30.017 14.358 30.827 14.358H32.889L33.329 13.293H34.309L34.739 14.358H38.713V13.346L39.315 14.358H42.5V7.67102H39.348V8.46102L38.907 7.67102H35.673V8.46102L35.268 7.67102H30.9C30.169 7.67102 29.526 7.77402 29.007 8.06102V7.67102H25.993V8.06102C25.663 7.76502 25.213 7.67102 24.712 7.67102H13.7L12.96 9.39802L12.202 7.67102H8.73302V8.46102L8.35302 7.67102H5.39302L4.02002 10.851V14.358H5.95802ZM44.051 17.772H41.984C41.778 17.772 41.64 17.78 41.524 17.859C41.405 17.936 41.359 18.051 41.359 18.204C41.359 18.384 41.46 18.508 41.607 18.561C41.727 18.603 41.855 18.615 42.044 18.615L42.659 18.632C43.279 18.647 43.694 18.755 43.946 19.018C43.992 19.054 44.02 19.096 44.051 19.137V17.772ZM44.051 20.934C43.776 21.341 43.239 21.547 42.512 21.547H40.322V20.52H42.503C42.719 20.52 42.871 20.491 42.963 20.401C43.0056 20.3609 43.0394 20.3123 43.0623 20.2584C43.0852 20.2046 43.0967 20.1465 43.096 20.088C43.096 19.948 43.041 19.838 42.958 19.771C42.875 19.698 42.756 19.665 42.558 19.665C41.493 19.628 40.164 19.698 40.164 18.18C40.164 17.485 40.601 16.752 41.792 16.752H44.052V15.798H41.952C41.318 15.798 40.858 15.952 40.532 16.19V15.798H37.427C36.931 15.798 36.347 15.923 36.072 16.19V15.798H30.527V16.19C30.086 15.868 29.341 15.798 28.997 15.798H25.34V16.19C24.991 15.848 24.215 15.798 23.741 15.798H19.648L18.711 16.822L17.834 15.798H11.72V22.49H17.72L18.685 21.45L19.595 22.49L23.292 22.494V20.919H23.656C24.146 20.927 24.726 20.907 25.236 20.684V22.49H28.286V20.746H28.434C28.621 20.746 28.64 20.754 28.64 20.943V22.49H37.906C38.494 22.49 39.109 22.338 39.45 22.062V22.49H42.389C43 22.49 43.598 22.403 44.052 22.181V20.935L44.051 20.934ZM39.526 19.018C39.747 19.248 39.866 19.54 39.866 20.034C39.866 21.066 39.228 21.547 38.084 21.547H35.874V20.52H38.075C38.29 20.52 38.443 20.491 38.538 20.401C38.5806 20.3608 38.6145 20.3123 38.6376 20.2585C38.6606 20.2046 38.6723 20.1466 38.672 20.088C38.672 19.948 38.612 19.838 38.534 19.771C38.447 19.698 38.327 19.665 38.13 19.665C37.07 19.628 35.74 19.698 35.74 18.18C35.74 17.485 36.173 16.752 37.362 16.752H39.637V17.773H37.556C37.349 17.773 37.216 17.781 37.101 17.86C36.977 17.937 36.931 18.053 36.931 18.205C36.931 18.385 37.036 18.509 37.179 18.562C37.299 18.604 37.427 18.616 37.621 18.616L38.231 18.633C38.847 18.648 39.27 18.755 39.526 19.018ZM29.291 18.722C29.139 18.812 28.951 18.821 28.731 18.821H27.353V17.743H28.75C28.952 17.743 29.154 17.748 29.291 17.83C29.438 17.908 29.526 18.056 29.526 18.261C29.526 18.467 29.438 18.632 29.291 18.722ZM29.976 19.318C30.228 19.413 30.435 19.581 30.532 19.721C30.692 19.955 30.715 20.174 30.72 20.597V21.547H29.58V20.947C29.58 20.659 29.608 20.232 29.398 20.009C29.232 19.837 28.979 19.796 28.565 19.796H27.353V21.547H26.213V16.751H28.833C29.406 16.751 29.825 16.777 30.197 16.978C30.555 17.196 30.78 17.496 30.78 18.043C30.78 18.808 30.275 19.199 29.976 19.318ZM31.409 16.751H35.195V17.743H32.539V18.615H35.13V19.594H32.539V20.548L35.195 20.552V21.547H31.409V16.751ZM23.756 18.965H22.29V17.743H23.769C24.179 17.743 24.463 17.912 24.463 18.331C24.463 18.746 24.192 18.965 23.756 18.965ZM21.16 21.11L19.419 19.157L21.16 17.265V21.11ZM16.663 20.547H13.873V19.593H16.363V18.614H13.873V17.742H16.718L17.958 19.14L16.663 20.547ZM25.681 18.33C25.681 19.663 24.697 19.938 23.705 19.938H22.29V21.546H20.085L18.688 19.959L17.237 21.546H12.744V16.75H17.306L18.702 18.322L20.144 16.75H23.769C24.669 16.75 25.681 17.002 25.681 18.33Z" fill="white"/>
</g>
<defs>
<clipPath id="clip0_104_659">
<rect width="50" height="30" fill="white"/>
</clipPath>
</defs>
</svg>
