<svg height="96" viewBox="0 0 140 96" width="140" xmlns="http://www.w3.org/2000/svg" xmlns:xlink="http://www.w3.org/1999/xlink"><mask id="a" fill="#fff"><path d="m0 0v84h37.279 37.278v-84z" fill="#fff" fill-rule="evenodd"/></mask><g fill="none" fill-rule="evenodd"><g transform="translate(15 6)"><path d="m14.3021 13.2642c1.877.841 3.784 1.581 5.713 2.233.973.33 2.021-.163 2.445-1.099 1.113-2.45 2.381-4.846 3.806-7.171.513-.838-.366-1.85-1.255-1.431-3.993 1.883-7.626 4.409-10.768 7.442zm21.8261 24.2358c-1.08-.601-1.928-1.614-2.375-2.807l-1.394-3.717c-.394-1.052-.502-2.213-.177-3.289.443-1.468 1.489-2.606 2.872-3.166.26-1.354.877-2.606 1.76-3.639-4.082-.273-8.144-.912-12.14-1.922-1-.252-2.044.263-2.39 1.234-1.899 5.331-3.079 10.866-3.538 16.452-.196 2.396 1.586 4.354 3.99 4.354h14.673c.004-.01.008-.02.012-.03.496-1.294-.081-2.796-1.293-3.47" fill="#72767d"/><path d="m70.1849 16.7842c.41-.633 1.011-1.081 1.69-1.343-.375-.422-.76-.834-1.153-1.239-.099.162-.228.307-.413.394-1.005.471-2.021.905-3.042 1.325.097.113.247.385.416.724.497.998 1.896 1.075 2.502.139" fill="#4f545c"/><path d="m57.7591 12.5078c.221 0 .44.01.659.029-1.183-2.315-2.514-4.571-3.994-6.754-1.019-1.502-2.566-2.585-4.344-2.95-1.602-.33-3.239-.564-4.904-.695-1.17-.092-2.176.826-2.176 1.999v13.377l12.024-4.51c.875-.328 1.801-.496 2.735-.496" fill="#72767d"/><path d="m26.0325 17.2339c4.335 1.034 8.745 1.623 13.168 1.767.257-.132.519-.256.793-.359l1.007-.378v-14.127c0-1.173-1.007-2.091-2.177-1.999-1.665.131-3.302.365-4.903.695-1.781.366-3.328 1.451-4.348 2.956-1.874 2.764-3.51 5.646-4.907 8.614-.55 1.168.11 2.532 1.367 2.831m34.9414-4.0337c.608.274 1.183.625 1.706 1.048.279-.049.562-.074.847-.074.63 0 1.236.135 1.802.361 1.348-.524 2.688-1.081 4.008-1.697-3.034-2.846-6.509-5.227-10.311-7.024-.907-.429-1.813.563-1.289 1.42 1.188 1.942 2.266 3.934 3.237 5.966" fill="#4f545c"/><path d="m50.2523 59.7119-7.252-8.942v9.282c0 1.602 1.259 2.914 2.859 2.991 1.533.072 3.062.198 4.588.374l.142-2.668c.02-.375-.1-.745-.337-1.037" fill="#36393f"/><path d="m50.3411 65.4189c-1.396-.164-2.796-.284-4.197-.359-1.711-.092-3.144 1.288-3.144 3.002v11.802c0 1.173 1.005 2.091 2.175 1.999 1.514-.118 3.005-.319 4.467-.604-.072-.314-.11-.636-.092-.967zm-46.2041-24.4189h8.57c2.118 0 3.841-1.653 3.992-3.767.418-5.913 1.619-11.778 3.6-17.425.36-1.026-.191-2.163-1.22-2.516-1.887-.649-3.755-1.379-5.594-2.203l-.739-.33c-5.982 6.421-9.878 14.803-10.608 24.065-.093 1.17.826 2.176 1.999 2.176" fill="#4f545c"/><path d="m37.7776 65.146c-3.917.289-7.813.926-11.644 1.913-1.238.319-1.876 1.676-1.326 2.83 1.336 2.801 2.882 5.523 4.643 8.141 1.094 1.626 2.77 2.799 4.691 3.182 1.532.307 3.094.525 4.682.65 1.17.092 2.177-.826 2.177-1.999v-11.717c0-1.744-1.484-3.128-3.223-3" fill="#36393f"/><path d="m37.2161 43h-14.479c-2.408 0-4.188 1.96-3.99 4.359.469 5.697 1.687 11.341 3.655 16.77.353.976 1.413 1.485 2.416 1.213 4.4-1.194 8.889-1.938 13.404-2.232 1.567-.102 2.778-1.414 2.778-2.985v-11.821l-3.075-3.791c-.363-.448-.598-.969-.709-1.513" fill="#72767d"/><path d="m20.431 64.5571c-2.06-5.76-3.305-11.752-3.732-17.794-.151-2.112-1.873-3.763-3.991-3.763h-8.571c-1.169 0-2.092 1-2 2.166.751 9.537 4.856 18.141 11.141 24.632.098-.162.228-.307.414-.394 1.819-.853 3.668-1.614 5.538-2.295 1.028-.374 1.57-1.522 1.201-2.552m2.208 5.4204c-.434-.941-1.5-1.428-2.476-1.077-1.858.668-3.694 1.418-5.5 2.261 3.035 2.847 6.51 5.228 10.314 7.026.906.428 1.812-.562 1.289-1.417-1.35-2.205-2.558-4.474-3.627-6.793" fill="#4f545c"/><path d="m4.137 43h8.571c2.117 0 3.84 1.651 3.991 3.763.427 6.042 1.672 12.034 3.732 17.794.369 1.03-.173 2.178-1.201 2.552-1.87.681-3.719 1.442-5.538 2.295-.186.087-.316.232-.414.394-6.285-6.491-10.39-15.095-11.141-24.631-.092-1.167.831-2.167 2-2.167m18.323-28.602c-.424.936-1.472 1.429-2.445 1.1-1.929-.653-3.836-1.393-5.713-2.234l-.059-.026c3.142-3.032 6.775-5.559 10.768-7.442.889-.419 1.768.594 1.255 1.431-1.425 2.325-2.693 4.721-3.806 7.171m-9.753 26.602h-8.569c-1.174 0-2.093-1.006-2-2.176.73-9.262 4.626-17.645 10.608-24.065l.739.33c1.839.824 3.707 1.554 5.594 2.203 1.029.353 1.58 1.49 1.22 2.516-1.981 5.647-3.182 11.512-3.6 17.425-.15 2.114-1.874 3.767-3.992 3.767m12.27 37.188c-3.804-1.798-7.279-4.18-10.314-7.026 1.806-.843 3.642-1.593 5.5-2.261.976-.351 2.042.135 2.476 1.077 1.069 2.319 2.277 4.587 3.627 6.793.523.855-.383 1.845-1.289 1.417m16.023-10.042v11.717c0 1.173-1.007 2.091-2.176 1.999-1.588-.125-3.151-.343-4.682-.65-1.921-.383-3.598-1.556-4.692-3.182-1.76-2.618-3.306-5.34-4.642-8.141-.55-1.154.088-2.511 1.326-2.83 3.83-.987 7.727-1.624 11.644-1.913 1.739-.128 3.222 1.256 3.222 3m8.642 13.113c-1.462.284-2.953.486-4.467.604-1.17.092-2.175-.826-2.175-1.999v-11.802c0-1.714 1.433-3.094 3.144-3.002 1.401.075 2.801.195 4.197.359l.107-2.002c-1.527-.176-3.056-.302-4.588-.375-1.601-.076-2.86-1.388-2.86-2.99v-9.282l-2-2.466v11.821c0 1.571-1.211 2.883-2.778 2.985-4.515.294-9.004 1.038-13.404 2.232-1.003.272-2.063-.236-2.416-1.213-1.967-5.428-3.186-11.073-3.655-16.77-.197-2.399 1.582-4.359 3.99-4.359h14.479c-.12-.586-.097-1.2.095-1.791.024-.074.069-.137.098-.209h-14.672c-2.405 0-4.187-1.958-3.991-4.354.459-5.586 1.639-11.121 3.538-16.452.346-.971 1.39-1.486 2.39-1.234 3.996 1.009 8.058 1.649 12.14 1.922.658-.769 1.466-1.411 2.386-1.881-4.422-.145-8.833-.733-13.167-1.767-1.257-.299-1.917-1.663-1.368-2.831 1.398-2.968 3.034-5.85 4.908-8.614 1.019-1.505 2.567-2.59 4.347-2.956 1.602-.331 3.238-.564 4.904-.695 1.169-.092 2.176.826 2.176 1.999v14.127l2-.75v-13.377c0-1.173 1.006-2.091 2.176-1.999 1.665.131 3.302.365 4.904.695 1.778.365 3.326 1.448 4.344 2.95 1.48 2.183 2.811 4.439 3.994 6.754.89.075 1.753.301 2.556.663-.971-2.032-2.049-4.024-3.237-5.966-.524-.857.381-1.849 1.289-1.42 3.802 1.797 7.277 4.178 10.311 7.024-1.32.617-2.66 1.173-4.008 1.697.748.298 1.414.772 1.938 1.386 1.02-.42 2.037-.854 3.042-1.325.184-.087.314-.232.413-.394.393.405.778.817 1.153 1.239.4-.154.819-.261 1.262-.261.502 0 .978.127 1.42.323-8.439-10.35-21.699-16.62-36.325-15.337-20.311 1.78-36.585 18.278-38.111 38.61-1.846 24.608 17.655 45.224 41.879 45.224 2.994 0 5.915-.321 8.735-.92-.547-.489-.933-1.116-1.093-1.821" fill="#202225" mask="url(#a)"/><path d="m41.2864 37.8394c-.016-.02-.034-.039-.05-.059.016.021.034.039.05.059m22.4639-21.648c.123.01.244.026.363.051-.119-.025-.24-.041-.363-.051m-.2236-.0171c-.1 0-.2.016-.3.027.124-.013.247-.025.37-.022-.023 0-.047-.005-.07-.005m.7509.1055c.125.033.246.076.365.125-.119-.049-.24-.092-.365-.125m-1.7734.0806c.179-.067.36-.112.542-.143-.182.031-.362.076-.542.143m-22.7119 4.5903c.053-.03.105-.06.159-.088-.054.028-.106.058-.159.088m24.9668-4.5c.152.071.299.155.437.252-.138-.097-.285-.181-.437-.252m-2.6143.0444h-.001z" fill="#202225"/><path d="m27.9075 57.5146c1.068 0 1.937.869 1.937 1.937s-.869 1.937-1.937 1.937-1.937-.869-1.937-1.937.869-1.937 1.937-1.937m0 4.874c1.619 0 2.938-1.317 2.938-2.937s-1.319-2.937-2.938-2.937c-1.62 0-2.938 1.317-2.938 2.937s1.318 2.937 2.938 2.937m-15.6972-3.8613c0 .276.224.5.5.5s.5-.224.5-.5c0-1.07.867-1.937 1.938-1.937.276 0 .5-.224.5-.5s-.224-.5-.5-.5c-1.071 0-1.938-.867-1.938-1.937v-.001c0-.276-.224-.5-.5-.5s-.5.224-.5.5v.001c0 1.07-.867 1.937-1.937 1.937-.276 0-.5.224-.5.5s.224.5.5.5c1.07 0 1.937.867 1.937 1.937m-5.9903 13.253h-.937c-.552 0-1-.448-1-1v-.937c0-.277-.224-.501-.501-.501-.276 0-.5.224-.5.501v.937c0 .552-.447 1-1 1h-.936c-.276 0-.5.224-.5.5s.224.5.5.5h.936c.553 0 1 .448 1 1v.937c0 .276.224.5.5.5.277 0 .501-.224.501-.5v-.937c0-.552.448-1 1-1h.937c.276 0 .5-.224.5-.5s-.224-.5-.5-.5" fill="#fff"/><g fill="#ffd773"><path d="m61.139 35.8701c-.047-.036-.096-.067-.14-.106.045.039.093.07.14.106m-7.0508 4.1611c.399.561.533 1.23.428 1.859.105-.629-.029-1.298-.427-1.859l-1.536-2.157 3.032-1.137-3.032 1.137z"/><path d="m47.72 39.678 1.35 1.895z"/><path d="m45.8138 40c.008 0 .015-.002.022-.002-.013 0-.028.001-.042 0 .007 0 .014.002.02.002m4.7353 3.4443c-.046-.036-.095-.067-.139-.106.044.039.092.07.139.106m1.9834.4732c-.108.021-.218.034-.327.04.109-.007.219-.019.327-.04"/><path d="m94.4691 58.4521 12.327-15.199c.331-.407.428-.927.266-1.426s-.546-.863-1.053-.998l-18.907-5.05c-.844-.226-1.57-.753-2.044-1.485l-10.647-16.422c-.285-.44-.75-.692-1.274-.692s-.988.252-1.274.692l-2.244 3.461.048.129c.711 1.895.172 3.957-1.203 5.278.539 2.278.029 4.671-1.381 6.528.229 1.622-.443 3.306-1.83 4.293-.765.545-1.665.832-2.602.832-1.08 0-2.114-.389-2.919-1.076l-4.041 1.516.027.038c.695.978.969 2.168.77 3.351-.2 1.183-.847 2.218-1.825 2.914-.765.544-1.665.832-2.602.832-1.452 0-2.821-.705-3.661-1.887l-1.533-2.152c-.348.047-.7.071-1.053.071-1.646 0-3.206-.537-4.501-1.451l-1.047.28c-.507.135-.891.499-1.053.998s-.065 1.019.265 1.426l12.328 15.199c.55.678.827 1.531.78 2.403l-1.039 19.543c-.027.523.199 1 .624 1.309.425.308.948.377 1.439.189l18.264-7.027c.815-.315 1.711-.315 2.527 0l18.264 7.027c.491.188 1.015.119 1.439-.189.424-.309.651-.786.624-1.31l-1.04-19.542c-.046-.872.231-1.725.781-2.403"/><path d="m51.0374 43.7383c-.06-.027-.118-.054-.175-.086.058.032.115.059.175.086m1.9375.0473c-.098.039-.197.073-.299.099.102-.026.201-.059.299-.099m-.914.1827c.012 0 .022-.002.034-.002-.049 0-.097-.009-.146-.011.038.002.074.013.112.013m-.5069-.0596c-.062-.013-.122-.031-.183-.049.062.018.121.036.183.049m14.9688-16.6597c.015.063.027.126.04.19-.013-.064-.025-.127-.04-.19m-1.7823 7.999c-.052.08-.112.154-.174.228.061-.075.123-.148.174-.228m-2.0898 1.1456c.011 0 .022-.002.034-.002-.049 0-.097-.009-.146-.011.038.002.074.013.112.013m2.2949-1.5435c-.027.066-.062.129-.095.194.033-.065.068-.128.095-.194m-3.3183 1.3135c-.06-.026-.118-.054-.176-.085.058.031.116.058.176.085m1.9384.0473c-.099.04-.199.073-.301.099.102-.026.202-.059.301-.099m-.4433.1319c-.108.021-.218.034-.327.04.109-.006.219-.019.327-.04m-.9795-.0083c-.062-.013-.121-.031-.182-.049.061.018.12.036.182.049m1.5508-.1748c.137-.063.271-.137.399-.228.134-.095.254-.203.364-.317-.11.114-.23.222-.364.317-.128.091-.262.165-.399.228m-3.1162-.8697.041.057zm4.455-.7036c.015-.051.03-.102.041-.153-.012.051-.026.102-.041.153m1.2696-8.0967c-.001-.001-.001-.002-.001-.003l-.009-.022.009.022c0 .001 0 .002.001.003m-12.8008 17.0176c-.127.09-.261.163-.396.227.135-.064.269-.137.396-.227m13.1504-14.5439c-.004.062-.01.123-.017.185.007-.062.013-.123.017-.185m-1.5244 5.0454c-.002.036-.005.071-.008.107.003-.036.006-.071.008-.107m-.1094-.8403c.003.009.006.018.009.027-.003-.009-.006-.018-.009-.027m.0908.416c.002.021.005.043.008.064-.003-.021-.005-.043-.008-.064m1.1787-2.981c-.021.056-.044.112-.066.168.022-.056.045-.111.066-.168m-.8115 1.4634c-.036.048-.074.095-.112.142.038-.047.075-.094.112-.142"/></g><path d="m54.0882 40.0312-1.535-2.157-4.687 1.758c-.049.018-.097.029-.146.046l1.349 1.895.959 1.348c.113.158.243.294.382.417.044.039.093.07.139.106.101.077.203.148.313.208.057.032.116.059.175.086.11.049.22.089.334.122.061.017.121.036.183.048.13.028.262.041.394.047.049.002.098.011.147.011.037-.001.073-.007.11-.009.11-.006.219-.019.327-.04.048-.009.096-.021.144-.033.101-.026.201-.06.299-.099.044-.017.087-.032.13-.051.135-.064.269-.137.396-.227 0 0 .002 0 .002-.001.421-.299.721-.705.889-1.155.055-.15.097-.304.124-.461.105-.629-.029-1.298-.428-1.859m8.7988-6.0332-2.549.956.239.336.041.057c.113.157.243.294.381.417.044.039.093.07.14.106.101.077.203.148.312.208.058.031.117.059.176.086.109.049.22.089.334.122.061.017.12.036.182.048.131.027.263.04.395.047.049.002.098.011.147.01.037 0 .073-.006.11-.008.11-.007.219-.019.327-.04.048-.01.095-.021.143-.033.101-.026.202-.06.301-.099.043-.017.086-.032.128-.051.136-.064.271-.137.399-.228.134-.096.254-.203.363-.318.041-.044.074-.093.111-.138.061-.074.122-.148.174-.228.042-.065.074-.135.11-.204.033-.065.067-.128.095-.194.035-.086.061-.174.087-.264.014-.05.029-.101.041-.153.023-.105.036-.21.045-.317.003-.036.006-.072.008-.107.005-.12.001-.24-.011-.361-.002-.021-.005-.042-.007-.064-.018-.131-.044-.26-.082-.388-.003-.01-.006-.018-.009-.028-.042-.136-.095-.269-.162-.399v-.001c-.551.523-1.213.946-1.969 1.23m.3408-15.7041 2.86 7.626c.566-.212 1.027-.582 1.352-1.04.218-.305.374-.649.461-1.014.132-.546.106-1.136-.106-1.702l-1.537-4.097c-.064-.17-.146-.329-.237-.481-.028-.046-.061-.089-.091-.134-.07-.102-.145-.2-.226-.292-.038-.043-.077-.085-.117-.125-.092-.094-.193-.179-.297-.259-.032-.024-.061-.051-.093-.073-.139-.097-.285-.181-.438-.252-.038-.018-.077-.03-.116-.046-.119-.049-.24-.092-.365-.125-.054-.015-.109-.027-.164-.038-.119-.025-.24-.041-.364-.051-.05-.003-.101-.01-.153-.011-.123-.003-.246.009-.37.021-.061.007-.12.006-.181.016-.181.031-.363.077-.542.143l-.001.001-.358.134c.453.517.827 1.117 1.083 1.799m-23.3027 17.439.218-.082-2.861-7.626c-.255-.682-.369-1.38-.366-2.067l-.894.335-.148.055c-.002.001-.003.003-.005.003-.563.213-1.022.58-1.346 1.036-.326.458-.516 1.006-.539 1.573-.016.379.043.767.184 1.144l1.536 4.096c0 .001.001.002.001.002.065.171.147.329.238.479.028.047.059.09.089.135.071.103.147.201.228.292.038.043.075.084.114.125.095.094.196.18.301.26.031.024.059.05.091.072.138.097.285.181.437.252.038.018.077.03.116.045.119.05.241.093.367.126.053.015.107.027.162.038.12.025.242.041.365.051.051.004.101.01.152.011.123.003.248-.008.373-.022.06-.005.119-.005.177-.015.183-.031.365-.076.545-.144z" fill="#8ba4e8"/><path d="m41.7894 29.6357c.751-.282 1.597.103 1.878.854.282.75-.103 1.595-.854 1.877s-1.595-.102-1.877-.853.102-1.596.853-1.878m20.143-4.439c-.751.281-1.597-.103-1.878-.853-.282-.751.102-1.597.853-1.878.751-.282 1.596.102 1.878.853.281.751-.102 1.596-.853 1.878m-6.632 7.062-2.732 1.024c-3.016 1.132-6.379-.397-7.51-3.413l-.512-1.366c-.567-1.508.198-3.189 1.706-3.755l8.193-3.073c1.509-.566 3.191.198 3.756 1.707l.512 1.365c1.132 3.017-.397 6.38-3.413 7.511m-18.018-4.234 2.861 7.626.011.032.201.536c.098.261.218.507.348.745.029.054.06.108.09.161.136.23.281.45.443.656.016.02.034.039.05.059 1.103 1.36 2.765 2.151 4.508 2.158.014.001.028 0 .042 0 .626-.002 1.261-.104 1.884-.32.048-.016.097-.028.146-.046l4.687-1.758 3.032-1.137 4.753-1.783 2.549-.956c.756-.283 1.418-.707 1.968-1.23.184-.174.35-.363.508-.559.038-.047.076-.094.113-.142.303-.399.552-.834.745-1.295.022-.056.045-.112.066-.168.177-.467.295-.955.348-1.456.007-.061.012-.122.016-.184.02-.252.028-.506.013-.762-.015-.254-.053-.508-.102-.763-.012-.063-.025-.127-.04-.19-.057-.254-.127-.508-.22-.759-.001-.001-.001-.002-.001-.003l-.009-.022-.204-.545-2.861-7.626c-.255-.681-.629-1.282-1.083-1.799h-.001c-.823-.937-1.92-1.58-3.122-1.846-.037-.008-.076-.014-.114-.021-.153-.031-.306-.057-.463-.076-.061-.007-.123-.011-.184-.017-.135-.011-.27-.019-.405-.022-.056-.001-.113.001-.17.002-.302.004-.605.028-.909.081-.039.007-.077.017-.116.024-.316.062-.632.143-.943.261l-15.022 5.633c-.26.099-.507.219-.744.349-.054.028-.106.058-.159.088-.231.135-.452.282-.658.444-.017.012-.031.027-.047.04-.198.159-.382.332-.556.514-.029.031-.058.061-.088.092-.181.199-.35.41-.503.632-.006.01-.013.021-.02.032-.154.228-.291.466-.412.712-.004.008-.008.015-.012.023-.376.778-.577 1.637-.58 2.517v.001c-.003.687.11 1.386.366 2.067" fill="#aabff2"/><path d="m63.4691 46.4521c-.549.677-.827 1.534-.781 2.404l1.04 19.541c.027.524-.2 1.001-.624 1.31-.424.308-.948.377-1.439.189l-18.264-7.027c-.816-.315-1.712-.315-2.527 0l-18.264 7.027c-.491.188-1.014.119-1.439-.189-.425-.309-.651-.786-.624-1.309l1.039-19.543c.047-.87-.231-1.726-.78-2.403l-12.328-15.199c-.33-.407-.427-.927-.265-1.426s.546-.863 1.053-.998l1.047-.28c1.295.914 2.855 1.451 4.501 1.451.353 0 .705-.024 1.053-.071l1.432 2.012c.734 1.031 1.829 1.792 3.081 1.977 1.178.174 2.334-.107 3.283-.782.978-.696 1.625-1.731 1.825-2.914.049-.296.025-.656-.04-1.029-.25-1.421.488-2.827 1.838-3.334l.054-.02c.735-.275 1.567-.294 2.267.062.625.319 1.324.492 2.044.492.937 0 1.837-.287 2.602-.832 1.387-.987 2.059-2.671 1.83-4.293 1.41-1.857 1.92-4.25 1.381-6.528 1.375-1.321 1.914-3.383 1.203-5.278l-.048-.129 2.244-3.461c.286-.44.75-.692 1.274-.692s.989.252 1.274.692l10.647 16.422c.473.731 1.201 1.26 2.043 1.484l18.908 5.051c.507.135.891.499 1.053.998s.065 1.019-.266 1.426zm-55.009-22.545c-.179.067-.362.113-.545.144-.058.009-.117.009-.176.015-.101.011-.203.028-.303.028-.024 0-.047-.005-.071-.006-.051-.001-.101-.008-.152-.011-.123-.01-.245-.026-.365-.051-.055-.011-.108-.023-.162-.038-.126-.033-.248-.076-.367-.126-.038-.015-.078-.028-.116-.045-.152-.071-.298-.155-.437-.252-.032-.022-.06-.049-.091-.072-.105-.08-.206-.166-.301-.261-.039-.04-.076-.081-.114-.124-.082-.092-.157-.189-.228-.293-.03-.044-.061-.087-.089-.134-.091-.15-.173-.308-.238-.479 0 0-.001-.001-.001-.002l-1.536-4.097c-.141-.377-.2-.764-.184-1.143.023-.568.214-1.115.539-1.573.324-.456.783-.824 1.346-1.036.002-.001.003-.002.006-.003l.147-.055.894-.336c.003-.88.204-1.739.58-2.518.004-.007.008-.014.012-.022.121-.247.258-.485.412-.713.007-.01.014-.022.021-.032.152-.221.321-.432.503-.631.029-.031.058-.062.087-.092.174-.182.358-.355.556-.515.017-.012.03-.027.047-.039.206-.163.428-.309.658-.444.053-.031.106-.06.159-.089.238-.13.484-.25.745-.348l15.021-5.634c.312-.117.627-.199.943-.26.039-.007.078-.018.117-.024.303-.053.606-.078.908-.082.025 0 .05-.006.074-.006.032 0 .064.005.097.005.134.002.269.01.404.022.062.005.123.009.185.017.156.018.309.045.462.075.039.008.078.013.115.022 1.201.266 2.299.909 3.122 1.845v.001l.359-.134h.001c.18-.068.361-.113.542-.144.061-.01.12-.01.181-.016.099-.011.2-.027.3-.027.023 0 .046.005.07.006.052.001.102.007.153.011.123.01.244.026.364.051.055.011.11.023.164.038.125.033.246.075.365.125.039.016.078.028.116.046.152.071.299.155.438.251.032.023.061.05.092.074.105.08.204.165.298.259.04.04.078.082.116.125.081.092.157.189.227.292.03.045.062.087.091.134.091.152.173.31.237.481l1.537 4.097c.212.566.237 1.156.106 1.702-.087.364-.244.709-.461 1.014-.325.458-.786.827-1.352 1.04l.204.544.009.023c0 .001 0 .002.001.003.094.251.163.504.221.759.014.063.027.126.04.19.049.254.087.509.101.763.015.256.007.509-.012.761-.004.062-.01.123-.017.185-.053.5-.171.989-.348 1.455-.021.057-.044.113-.066.168-.192.461-.441.896-.745 1.296-.037.048-.074.095-.112.142-.159.195-.325.385-.508.559.067.131.12.264.162.4.003.01.006.018.009.028.038.128.064.257.082.388.003.022.005.043.007.064.012.121.016.241.011.361-.002.036-.005.071-.008.107-.009.107-.022.212-.046.317-.01.052-.026.102-.041.153-.025.09-.051.178-.086.264-.028.066-.062.129-.095.194-.036.069-.069.138-.111.204-.05.08-.113.153-.173.227-.037.046-.07.095-.111.139-.109.115-.229.222-.363.317-.128.092-.263.165-.399.229-.042.019-.085.034-.128.051-.099.039-.2.073-.301.099-.048.012-.095.023-.143.033-.108.021-.217.033-.327.04-.037.002-.073.007-.11.008-.012 0-.024.002-.034.002-.038 0-.075-.011-.113-.012-.132-.007-.264-.02-.395-.047-.062-.012-.121-.031-.182-.049-.114-.032-.225-.072-.334-.122-.059-.026-.118-.054-.176-.085-.109-.06-.211-.131-.312-.208-.047-.036-.095-.067-.14-.106-.138-.124-.268-.26-.381-.417l-.041-.057-.239-.336-4.753 1.783-3.032 1.137 1.536 2.157c.399.561.532 1.23.427 1.859-.026.157-.068.312-.124.461-.168.45-.468.856-.889 1.155 0 .001-.001.001-.001.001-.128.091-.262.163-.397.227-.043.019-.086.034-.13.051-.098.04-.197.073-.299.099-.048.012-.096.024-.144.033-.108.021-.217.034-.327.04-.037.002-.073.008-.11.009-.012 0-.022.002-.034.002-.038 0-.074-.011-.113-.013-.132-.006-.264-.019-.394-.046-.063-.013-.121-.032-.183-.049-.114-.033-.224-.073-.334-.122-.059-.027-.117-.054-.174-.086-.111-.06-.213-.131-.314-.208-.047-.035-.095-.067-.139-.106-.139-.123-.269-.259-.381-.417l-.959-1.348-1.35-1.895c-.623.215-1.258.318-1.884.32-.008 0-.014.002-.022.002-.006 0-.013-.002-.02-.002-1.743-.007-3.405-.798-4.508-2.159-.015-.02-.034-.038-.049-.058-.163-.206-.308-.427-.444-.657-.03-.052-.059-.106-.09-.16-.13-.239-.25-.485-.347-.746l-.201-.535-.012-.032-.218.082zm68.813 8.701c.588-.724.934-1.642.856-2.572-.129-1.538-1.181-2.759-2.603-3.14l-18.909-5.049c-.363-.098-.677-.326-.881-.642l-10.647-16.421c-.378-.584-.919-1.009-1.532-1.281-.442-.197-.918-.323-1.42-.323-.443 0-.862.106-1.262.261-.679.262-1.28.71-1.69 1.343-.607.936-2.005.859-2.502-.139-.169-.339-.319-.611-.416-.724-.524-.615-1.19-1.088-1.938-1.386-.566-.226-1.172-.361-1.802-.361-.286 0-.568.025-.847.074-.524-.423-1.098-.774-1.706-1.048-.803-.362-1.666-.588-2.556-.664-.219-.018-.438-.028-.659-.028-.934 0-1.86.168-2.735.496l-12.024 4.51-2 .75-1.007.377c-.274.103-.536.228-.793.36-.92.47-1.728 1.112-2.386 1.881-.883 1.032-1.5 2.284-1.76 3.639-1.383.559-2.429 1.698-2.872 3.166-.325 1.076-.217 2.237.178 3.289l1.393 3.717c.447 1.193 1.295 2.206 2.375 2.807 1.212.674 1.789 2.176 1.293 3.47-.004.01-.008.02-.012.03-.029.072-.074.135-.098.209-.192.591-.215 1.205-.095 1.791.111.544.346 1.065.709 1.513l3.075 3.791 2 2.466 7.252 8.942c.238.292.358.661.337 1.037l-1.039 19.542c-.018.331.021.654.092.968.16.705.546 1.332 1.093 1.821.088.08.163.173.26.245.613.444 1.334.673 2.066.673.426 0 .855-.077 1.266-.236l18.265-7.027c.352-.135.738-.135 1.091 0l18.265 7.027c1.375.531 2.948.159 3.955-1.013.608-.708.864-1.655.815-2.587l-1.033-19.413c-.02-.375.1-.745.337-1.036z" fill="#040405" transform="translate(31 12)"/><path d="m61.9319 25.1963c.751-.281 1.135-1.126.854-1.877-.283-.751-1.127-1.136-1.878-.854s-1.135 1.127-.854 1.878 1.127 1.135 1.878.853m-19.1181 7.1709c.751-.282 1.136-1.127.854-1.878s-1.127-1.135-1.878-.853c-.751.281-1.135 1.127-.853 1.877.281.751 1.126 1.135 1.877.854" fill="#040405"/><path d="m55.8978 29.6982-1.366.512c-.377.142-.797-.05-.939-.427-.141-.377.05-.797.427-.939l1.365-.512c.377-.141.798.05.94.427.14.377-.05.797-.427.939zm-4.268 1.601-1.365.512c-.378.141-.798-.05-.939-.427-.142-.377.05-.797.426-.939l1.366-.512c.378-.141.798.05.939.427.142.377-.05.797-.427.939zm6.572-7.917c-.566-1.508-2.247-2.272-3.756-1.706l-8.194 3.072c-1.507.566-2.272 2.247-1.706 3.756l.512 1.365c1.132 3.017 4.494 4.545 7.511 3.414l2.731-1.024c3.017-1.132 4.545-4.495 3.413-7.511z" fill="#cbdaf7"/><path d="m55.3851 28.3325-1.365.512c-.377.142-.569.562-.427.939s.562.569.938.427l1.367-.512c.377-.142.567-.562.426-.939s-.562-.568-.939-.427m-4.2676 1.6006-1.365.512c-.377.142-.569.562-.427.939s.562.568.939.427l1.366-.512c.377-.142.568-.562.426-.939-.141-.377-.561-.568-.939-.427" fill="#aabff2"/><path d="m95.2571 15.001c-.109 0-.22-.036-.312-.11-.215-.173-.25-.488-.077-.703l.931-1.159c.174-.215.488-.249.703-.076s.249.487.076.702l-.93 1.159c-.099.123-.245.187-.391.187m-4.6855 4.8413c-.11 0-.221-.036-.312-.11-.216-.173-.25-.488-.078-.703l.932-1.159c.173-.215.488-.249.702-.076.216.173.25.487.077.702l-.931 1.159c-.099.123-.244.187-.39.187m5.8086-.147c-.136 0-.271-.055-.37-.165l-1.006-1.109c-.186-.205-.17-.521.035-.706.205-.186.521-.171.706.035l1.006 1.11c.186.204.17.52-.035.706-.096.086-.216.129-.336.129m-4.9942-4.5962c-.137 0-.272-.055-.371-.165l-1.005-1.109c-.186-.205-.17-.521.035-.706.204-.186.52-.17.706.035l1.005 1.11c.186.204.17.52-.035.706-.096.086-.216.129-.335.129" fill="#fff"/></g><path d="m0 0h140v96h-140z"/></g></svg>