<svg width="400" height="191" viewBox="0 0 400 191" fill="none" xmlns="http://www.w3.org/2000/svg">
<path d="M385.164 3.50467C386.646 3.48923 388.117 3.76791 389.491 4.32459C390.865 4.88128 392.116 5.70492 393.169 6.74786C394.223 7.79081 395.06 9.03236 395.631 10.4007C396.202 11.769 396.495 13.237 396.495 14.7196V175.35C396.495 176.833 396.202 178.301 395.631 179.669C395.06 181.038 394.223 182.279 393.169 183.322C392.116 184.365 390.865 185.189 389.491 185.746C388.117 186.302 386.646 186.581 385.164 186.565H14.8364C13.3539 186.581 11.883 186.302 10.5088 185.746C9.1346 185.189 7.88445 184.365 6.83064 183.322C5.77683 182.279 4.94029 181.038 4.3694 179.669C3.7985 178.301 3.50459 176.833 3.50467 175.35V14.7196C3.50459 13.237 3.7985 11.769 4.3694 10.4007C4.94029 9.03236 5.77683 7.79081 6.83064 6.74786C7.88445 5.70492 9.1346 4.88128 10.5088 4.32459C11.883 3.76791 13.3539 3.48923 14.8364 3.50467H385.164ZM385.164 7.13931e-09H14.8364C10.9217 -0.000121351 7.16562 1.54695 4.38658 4.30411C1.60754 7.06127 0.0308245 10.805 0 14.7196V175.35C0.0308245 179.265 1.60754 183.009 4.38658 185.766C7.16562 188.523 10.9217 190.07 14.8364 190.07H385.164C389.078 190.07 392.834 188.523 395.613 185.766C398.392 183.009 399.969 179.265 400 175.35V14.7196C399.969 10.805 398.392 7.06127 395.613 4.30411C392.834 1.54695 389.078 -0.000121351 385.164 7.13931e-09Z" fill="black"/>
<path d="M3.50464 175.351V14.7197C3.50456 13.2371 3.79847 11.7691 4.36936 10.4008C4.94026 9.03245 5.7768 7.79089 6.83061 6.74795C7.88442 5.705 9.13457 4.88136 10.5087 4.32468C11.8829 3.76799 13.3538 3.48931 14.8364 3.50476H385.164C386.646 3.48931 388.117 3.76799 389.491 4.32468C390.865 4.88136 392.116 5.705 393.169 6.74795C394.223 7.79089 395.06 9.03245 395.631 10.4008C396.201 11.7691 396.495 13.2371 396.495 14.7197V175.351C396.495 176.833 396.201 178.301 395.631 179.67C395.06 181.038 394.223 182.279 393.169 183.322C392.116 184.365 390.865 185.189 389.491 185.746C388.117 186.302 386.646 186.581 385.164 186.566H14.8364C13.3538 186.581 11.8829 186.302 10.5087 185.746C9.13457 185.189 7.88442 184.365 6.83061 183.322C5.7768 182.279 4.94026 181.038 4.36936 179.67C3.79847 178.301 3.50456 176.833 3.50464 175.351Z" fill="#2F3136"/>
<path d="M9.22901 170.794V169.159C9.21356 167.83 9.46202 166.511 9.95999 165.278C10.458 164.046 11.1955 162.925 12.13 161.979C13.0645 161.034 14.1772 160.283 15.4038 159.771C16.6305 159.259 17.9465 158.995 19.2757 158.995H380.724C382.054 158.995 383.37 159.259 384.596 159.771C385.823 160.283 386.936 161.034 387.87 161.979C388.805 162.925 389.542 164.046 390.04 165.278C390.538 166.511 390.787 167.83 390.771 169.159V170.794C390.787 172.124 390.538 173.443 390.04 174.675C389.542 175.908 388.805 177.029 387.87 177.974C386.936 178.92 385.823 179.67 384.596 180.182C383.37 180.694 382.054 180.958 380.724 180.958H19.2757C17.9465 180.958 16.6305 180.694 15.4038 180.182C14.1772 179.67 13.0645 178.92 12.13 177.974C11.1955 177.029 10.458 175.908 9.95999 174.675C9.46202 173.443 9.21356 172.124 9.22901 170.794Z" fill="#40444B"/>
<path fill-rule="evenodd" clip-rule="evenodd" d="M354.089 167.407H356.192C356.532 167.407 356.859 167.542 357.1 167.783C357.341 168.024 357.477 168.351 357.477 168.692V170.094H344.159V168.692C344.159 168.351 344.294 168.024 344.535 167.783C344.776 167.542 345.103 167.407 345.444 167.407H347.547C347.231 167.281 346.95 167.081 346.729 166.823C346.393 166.444 346.213 165.951 346.228 165.445C346.243 164.939 346.451 164.457 346.809 164.099C347.167 163.741 347.649 163.533 348.155 163.518C348.661 163.503 349.154 163.682 349.533 164.019C350.349 164.96 350.804 166.161 350.818 167.407C350.831 166.161 351.287 164.96 352.103 164.019C352.481 163.682 352.974 163.503 353.481 163.518C353.987 163.533 354.468 163.741 354.826 164.099C355.185 164.457 355.392 164.939 355.407 165.445C355.422 165.951 355.243 166.444 354.907 166.823L354.089 167.407ZM347.664 165.888C347.549 165.76 347.485 165.593 347.485 165.421C347.485 165.248 347.549 165.082 347.664 164.953L348.131 164.72L348.598 164.953C349.065 165.304 349.182 166.005 349.416 166.589C348.779 166.52 348.173 166.278 347.664 165.888ZM352.22 166.589C352.293 165.965 352.582 165.386 353.037 164.953L353.505 164.72L353.972 164.953C354.087 165.082 354.15 165.248 354.15 165.421C354.15 165.593 354.087 165.76 353.972 165.888C353.453 166.259 352.852 166.5 352.22 166.589ZM344.86 171.379V175.468C344.86 175.808 344.995 176.135 345.236 176.376C345.477 176.617 345.804 176.753 346.145 176.753H350.117V171.379H344.86ZM351.519 171.379V176.753H355.491C355.831 176.753 356.158 176.617 356.399 176.376C356.64 176.135 356.776 175.808 356.776 175.468V171.379H351.519Z" fill="#B9BBBE"/>
<path d="M379.906 170.093C379.906 171.503 379.489 172.881 378.706 174.053C377.923 175.224 376.81 176.138 375.507 176.677C374.205 177.217 372.772 177.358 371.39 177.083C370.008 176.808 368.738 176.129 367.741 175.132C366.745 174.136 366.066 172.866 365.791 171.484C365.516 170.101 365.657 168.669 366.197 167.366C366.736 166.064 367.649 164.951 368.821 164.168C369.993 163.385 371.371 162.967 372.78 162.967C374.67 162.967 376.483 163.718 377.819 165.054C379.156 166.391 379.906 168.203 379.906 170.093Z" fill="#B9BBBE"/>
<path d="M372.78 171.378C371.521 171.36 370.267 171.204 369.042 170.911C368.691 170.911 368.107 170.911 368.107 171.729C368.107 172.547 370.093 175.584 372.78 175.584C375.467 175.584 377.453 173.481 377.453 171.729C377.453 169.977 376.869 170.911 376.635 170.911C375.369 171.196 374.078 171.352 372.78 171.378Z" fill="#4F545C"/>
<path d="M369.393 167.991C369.393 167.774 369.479 167.566 369.632 167.413C369.785 167.259 369.993 167.173 370.21 167.173C370.327 167.156 370.446 167.165 370.559 167.198C370.672 167.232 370.777 167.289 370.866 167.367C370.954 167.445 371.025 167.541 371.074 167.648C371.122 167.756 371.146 167.873 371.145 167.991V168.809C371.146 168.926 371.122 169.043 371.074 169.151C371.025 169.259 370.954 169.355 370.866 169.432C370.777 169.51 370.672 169.568 370.559 169.601C370.446 169.635 370.327 169.643 370.21 169.626C369.993 169.626 369.785 169.54 369.632 169.387C369.479 169.233 369.393 169.025 369.393 168.809V167.991Z" fill="#4F545C"/>
<path d="M374.533 167.991C374.533 167.883 374.554 167.777 374.595 167.678C374.636 167.579 374.696 167.489 374.772 167.413C374.848 167.337 374.938 167.276 375.037 167.235C375.137 167.194 375.243 167.173 375.35 167.173C375.458 167.173 375.564 167.194 375.663 167.235C375.763 167.276 375.853 167.337 375.929 167.413C376.005 167.489 376.065 167.579 376.106 167.678C376.147 167.777 376.168 167.883 376.168 167.991V168.809C376.168 169.025 376.082 169.233 375.929 169.387C375.775 169.54 375.567 169.626 375.35 169.626C375.134 169.626 374.926 169.54 374.772 169.387C374.619 169.233 374.533 169.025 374.533 168.809V167.991Z" fill="#4F545C"/>
<path d="M369.042 171.729C370.253 172.097 371.517 172.255 372.781 172.196C374.082 172.244 375.383 172.087 376.636 171.729C376.205 172.336 375.622 172.818 374.945 173.126C374.267 173.434 373.521 173.556 372.781 173.481C369.86 173.481 369.042 171.729 369.042 171.729Z" fill="white"/>
<path d="M20.0934 163.668C18.5828 163.875 17.1983 164.622 16.196 165.771C15.1937 166.92 14.6415 168.393 14.6415 169.918C14.6415 171.443 15.1937 172.916 16.196 174.065C17.1983 175.214 18.5828 175.961 20.0934 176.168C21.604 175.961 22.9885 175.214 23.9908 174.065C24.9931 172.916 25.5453 171.443 25.5453 169.918C25.5453 168.393 24.9931 166.92 23.9908 165.771C22.9885 164.622 21.604 163.875 20.0934 163.668ZM23.1308 170.561H20.6775V173.014H19.3925V170.561H16.9392V169.276H19.3925V166.822H20.6775V169.276H23.1308V170.561Z" fill="#B9BBBE"/>
<path d="M24.0653 177.337C26.0009 177.337 27.57 175.768 27.57 173.832C27.57 171.896 26.0009 170.327 24.0653 170.327C22.1298 170.327 20.5607 171.896 20.5607 173.832C20.5607 175.768 22.1298 177.337 24.0653 177.337Z" fill="#40444B"/>
<path d="M24.0653 176.168C25.3557 176.168 26.4017 175.122 26.4017 173.832C26.4017 172.542 25.3557 171.495 24.0653 171.495C22.7749 171.495 21.7288 172.542 21.7288 173.832C21.7288 175.122 22.7749 176.168 24.0653 176.168Z" fill="#3BA55C"/>
<path d="M23.5981 173.014V174.649L24.8831 173.832L23.5981 173.014Z" fill="#40444B"/>
<path d="M323.014 173.364C322.196 174.182 321.963 177.22 321.963 177.22C321.963 177.22 325 176.986 325.818 176.168C326.173 175.833 326.383 175.371 326.402 174.883H324.299V172.78C323.811 172.8 323.349 173.009 323.014 173.364Z" fill="#B9BBBE"/>
<path fill-rule="evenodd" clip-rule="evenodd" d="M324.065 170.911L328.271 175.117L329.322 174.065L330.14 177.453L331.425 176.051V171.963L333.995 169.276C335.047 168.224 337.149 165.771 336.098 163.084C335.047 160.397 330.841 164.136 329.907 165.07L324.065 170.911ZM332.36 168.341C332.763 168.341 333.149 168.181 333.434 167.896C333.718 167.612 333.878 167.225 333.878 166.822C333.878 166.42 333.718 166.033 333.434 165.749C333.149 165.464 332.763 165.304 332.36 165.304C332.16 165.304 331.963 165.343 331.779 165.419C331.594 165.496 331.427 165.608 331.286 165.749C331.145 165.89 331.033 166.057 330.957 166.241C330.88 166.426 330.841 166.623 330.841 166.822C330.841 167.022 330.88 167.219 330.957 167.404C331.033 167.588 331.145 167.755 331.286 167.896C331.427 168.037 331.594 168.149 331.779 168.226C331.963 168.302 332.16 168.341 332.36 168.341Z" fill="#B9BBBE"/>
<path d="M327.22 167.757H323.014L321.729 169.042L325.117 169.86L327.22 167.757Z" fill="#B9BBBE"/>
<path d="M44.8597 173.715L44.3924 168.108L42.2896 173.715H41.4718L39.369 168.108L38.9017 173.715H38.084L38.5513 166.706H39.7195L41.9391 172.43L44.0419 166.706H45.2102L45.6774 173.715H44.8597Z" fill="#72767D"/>
<path d="M49.0653 173.715C47.7803 173.715 46.8457 173.014 46.8457 171.262C46.8457 169.509 47.6635 168.808 48.9485 168.808C50.2336 168.808 50.9345 169.86 50.9345 171.145V171.379H47.6635C47.7803 172.43 48.2476 173.014 49.0653 173.014C49.7172 173.011 50.3436 172.761 50.8177 172.313V173.131C50.3018 173.49 49.6934 173.693 49.0653 173.715ZM47.7803 170.678H49.9999C49.8831 169.977 49.6494 169.509 48.9485 169.509C48.2476 169.509 47.8971 169.86 47.7803 170.678Z" fill="#72767D"/>
<path d="M53.5044 173.715C52.9023 173.722 52.3054 173.602 51.7521 173.365V172.43C52.2576 172.809 52.8725 173.014 53.5044 173.014C54.0885 173.014 54.439 172.78 54.439 172.43C54.439 172.079 54.2054 171.846 53.2708 171.612C52.3362 171.379 51.7521 170.911 51.7521 170.093C51.7521 169.276 52.3362 168.808 53.3876 168.808C53.9522 168.8 54.5114 168.92 55.0231 169.159V169.977C54.5548 169.717 54.0376 169.558 53.5044 169.509C53.0371 169.509 52.6867 169.743 52.6867 170.093C52.6867 170.444 52.9203 170.561 53.7381 170.794C54.5558 171.028 55.3736 171.379 55.3736 172.313C55.3736 173.248 54.7895 173.715 53.5044 173.715Z" fill="#72767D"/>
<path d="M57.9438 173.715C57.3396 173.746 56.7371 173.626 56.1915 173.364V172.43C56.6611 172.793 57.2337 172.997 57.827 173.014C58.5279 173.014 58.8784 172.78 58.8784 172.43C58.8784 172.079 58.5279 171.846 57.7102 171.612C56.8924 171.378 56.1915 170.911 56.1915 170.093C56.1915 169.276 56.7756 168.808 57.827 168.808C58.3541 168.801 58.8751 168.921 59.3457 169.159V169.977C58.9262 169.703 58.4434 169.542 57.9438 169.509C57.3597 169.509 57.1261 169.743 57.1261 170.093C57.1261 170.444 57.3597 170.561 58.0606 170.794C58.7616 171.028 59.813 171.378 59.813 172.313C59.813 173.248 59.112 173.715 57.9438 173.715Z" fill="#72767D"/>
<path d="M63.7849 173.715V173.014C63.3536 173.454 62.7657 173.706 62.1494 173.715C61.2148 173.715 60.7476 173.248 60.7476 172.43C60.7476 171.612 61.6821 170.794 63.6681 170.561V170.327C63.689 170.215 63.6823 170.1 63.6487 169.991C63.615 169.882 63.5553 169.783 63.4747 169.703C63.3942 169.622 63.2953 169.562 63.1865 169.529C63.0777 169.495 62.9623 169.488 62.8503 169.509C62.2772 169.541 61.7184 169.701 61.2148 169.977V169.159C61.7634 168.906 62.3637 168.786 62.9672 168.808C64.1354 168.808 64.7195 169.276 64.7195 170.327V173.715H63.7849ZM63.5513 171.262C61.799 171.378 61.4485 171.846 61.4485 172.43C61.4485 173.014 61.6821 173.014 62.1494 173.014C62.4231 173.024 62.6948 172.965 62.9398 172.842C63.1847 172.72 63.395 172.538 63.5513 172.313V171.262Z" fill="#72767D"/>
<path d="M67.5233 175.467C66.3551 175.467 65.3037 175.117 65.3037 174.299C65.3037 173.481 65.6542 173.364 66.3551 173.014C66.2608 172.974 66.1788 172.909 66.1173 172.827C66.0558 172.745 66.0169 172.648 66.0047 172.547C66.0047 172.313 66.2383 172.079 66.5888 171.846C66.3021 171.745 66.0559 171.554 65.8874 171.301C65.7188 171.048 65.637 170.747 65.6542 170.444C65.6518 170.208 65.7004 169.974 65.7968 169.759C65.8932 169.544 66.035 169.352 66.2126 169.196C66.3902 169.041 66.5993 168.926 66.8255 168.859C67.0518 168.792 67.2898 168.775 67.5233 168.808C67.9399 168.8 68.3485 168.922 68.6916 169.159L69.9766 168.808V169.626H69.042C69.1724 169.839 69.2523 170.079 69.2757 170.327C69.2608 170.557 69.2007 170.782 69.0986 170.989C68.9965 171.196 68.8546 171.381 68.6809 171.533C68.5072 171.685 68.3052 171.801 68.0865 171.875C67.8678 171.949 67.6367 171.978 67.4065 171.963H67.056L66.8224 172.196C66.8224 172.43 66.9392 172.43 67.757 172.547H68.1074C69.1588 172.664 69.743 173.014 69.743 173.832C69.743 174.649 68.8084 175.467 67.5233 175.467ZM66.9392 173.248C66.4719 173.598 66.2383 173.832 66.2383 174.182C66.2383 174.533 66.7056 174.883 67.6402 174.883C68.5747 174.883 69.042 174.533 69.042 174.065C69.042 173.598 68.8084 173.598 68.1074 173.481H66.9392V173.248ZM67.5233 169.392C67.2445 169.392 66.9771 169.503 66.7799 169.7C66.5827 169.898 66.4719 170.165 66.4719 170.444C66.4719 170.723 66.5827 170.99 66.7799 171.187C66.9771 171.385 67.2445 171.495 67.5233 171.495C67.8022 171.495 68.0696 171.385 68.2668 171.187C68.464 170.99 68.5747 170.723 68.5747 170.444C68.5747 170.165 68.464 169.898 68.2668 169.7C68.0696 169.503 67.8022 169.392 67.5233 169.392Z" fill="#72767D"/>
<path d="M72.7802 173.715C71.4951 173.715 70.5606 173.014 70.5606 171.262C70.5284 170.961 70.5581 170.657 70.6478 170.368C70.7375 170.079 70.8854 169.811 71.0823 169.581C71.2793 169.351 71.5211 169.164 71.793 169.031C72.0649 168.899 72.3611 168.823 72.6634 168.808C74.0652 168.808 74.6494 169.86 74.6494 171.145V171.379H71.4951C71.4951 172.43 71.9624 173.014 72.897 173.014C73.5133 173.005 74.1011 172.753 74.5325 172.313V173.131C74.027 173.51 73.4121 173.715 72.7802 173.715ZM71.4951 170.678H73.8316C73.7148 169.977 73.3643 169.509 72.6634 169.509C71.9624 169.509 71.612 169.86 71.4951 170.678Z" fill="#72767D"/>
<path d="M82.4766 168.575H83.528V169.393H82.3598L82.0093 171.145H83.1775V171.963H81.7757L81.542 173.715H80.8411L81.0747 171.963H79.4392L79.0888 173.715H78.3878L78.7383 172.08H77.5701V171.262H78.8551L79.0888 169.509H77.9205V168.692H79.3224L79.6729 167.056H80.3738L80.0233 168.692H81.7757L82.0093 166.939H82.7102L82.4766 168.575ZM79.6729 171.145H81.3084L81.6589 169.393H79.9065L79.6729 171.145Z" fill="#72767D"/>
<path d="M86.3316 175.467C85.0466 175.467 84.112 175.117 84.112 174.299C84.112 173.481 84.4625 173.365 85.1634 173.014C85.0691 172.974 84.9871 172.909 84.9256 172.827C84.864 172.745 84.8252 172.649 84.8129 172.547C84.8129 172.313 85.0466 172.079 85.2802 171.846C85.0253 171.713 84.8131 171.511 84.6684 171.263C84.5236 171.015 84.4522 170.731 84.4625 170.444C84.4619 170.219 84.5077 169.996 84.5971 169.79C84.6865 169.583 84.8176 169.398 84.982 169.244C85.1465 169.091 85.3409 168.973 85.553 168.898C85.7651 168.823 85.9904 168.792 86.2148 168.808C86.6681 168.798 87.1146 168.92 87.4998 169.159L88.6681 168.808V169.626H87.8503C87.9441 169.847 87.9842 170.088 87.9671 170.327C87.9677 170.552 87.9219 170.775 87.8325 170.981C87.7431 171.188 87.612 171.373 87.4476 171.527C87.2831 171.68 87.0887 171.798 86.8766 171.873C86.6645 171.948 86.4392 171.979 86.2148 171.963H85.7475L85.5139 172.196C85.5139 172.43 85.7475 172.43 86.5653 172.547H86.9157C87.9671 172.664 88.5512 173.014 88.5512 173.832C88.5512 174.65 87.6167 175.467 86.3316 175.467ZM85.7475 173.248C85.1634 173.598 84.9298 173.832 84.9298 174.182C84.9298 174.533 85.397 174.883 86.3316 174.883C87.2662 174.883 87.8503 174.533 87.8503 174.065C87.8503 173.598 87.6167 173.598 86.9157 173.481H85.7475V173.248ZM86.2148 169.393C85.9359 169.393 85.6685 169.503 85.4714 169.701C85.2742 169.898 85.1634 170.165 85.1634 170.444C85.1634 170.723 85.2742 170.99 85.4714 171.187C85.6685 171.385 85.9359 171.495 86.2148 171.495C86.3574 171.515 86.5025 171.501 86.6389 171.455C86.7753 171.409 86.8991 171.332 87.0009 171.23C87.1027 171.128 87.1795 171.004 87.2256 170.868C87.2716 170.732 87.2855 170.587 87.2662 170.444C87.2662 170.165 87.1554 169.898 86.9582 169.701C86.7611 169.503 86.4936 169.393 86.2148 169.393Z" fill="#72767D"/>
<path d="M91.5886 174.182C91.2382 175.234 90.7709 175.468 90.07 175.468H89.6027V174.65H90.07C90.5372 174.65 90.7709 174.533 91.0045 173.949V173.715L89.2522 168.925H90.07L91.355 172.664L92.64 169.042H93.5746L91.5886 174.182Z" fill="#72767D"/>
<path d="M100.35 173.715V170.444C100.35 169.977 100.234 169.626 99.6494 169.626C99.3973 169.644 99.152 169.715 98.9302 169.836C98.7084 169.957 98.5154 170.125 98.3644 170.327V173.715H97.4298V170.444C97.4298 169.977 97.3129 169.626 96.7288 169.626C96.4749 169.635 96.2266 169.703 96.0035 169.825C95.7805 169.947 95.5888 170.119 95.4438 170.327V173.715H94.5092V168.925H95.2102V169.626C95.6296 169.153 96.2155 168.86 96.8457 168.809C97.5466 168.809 98.0139 169.042 98.1307 169.626C98.5501 169.153 99.136 168.86 99.7662 168.809C99.9548 168.79 100.145 168.814 100.323 168.878C100.502 168.942 100.664 169.045 100.798 169.179C100.932 169.313 101.034 169.475 101.098 169.653C101.162 169.832 101.186 170.022 101.168 170.21V173.715H100.35Z" fill="#72767D"/>
<path d="M102.453 171.262V170.327H105.023V171.262H102.453Z" fill="#72767D"/>
<path d="M108.294 173.715L107.126 173.481V175.351H106.191V168.925H106.892V169.626C107.061 169.378 107.287 169.174 107.552 169.032C107.816 168.889 108.111 168.813 108.411 168.808C109.462 168.808 110.397 169.509 110.397 171.145C110.447 171.455 110.43 171.772 110.349 172.075C110.267 172.378 110.122 172.66 109.923 172.903C109.725 173.146 109.477 173.344 109.196 173.484C108.915 173.624 108.608 173.702 108.294 173.715ZM108.411 169.626C108.144 169.637 107.884 169.719 107.659 169.862C107.433 170.006 107.249 170.207 107.126 170.444V172.664C107.461 172.917 107.875 173.041 108.294 173.014C108.995 173.014 109.579 172.313 109.579 171.145C109.579 169.977 109.112 169.626 108.411 169.626Z" fill="#72767D"/>
<path d="M112.149 167.874C112.013 167.877 111.879 167.831 111.773 167.746C111.666 167.661 111.593 167.54 111.565 167.406C111.565 167.252 111.627 167.103 111.736 166.993C111.846 166.884 111.995 166.822 112.149 166.822C112.283 166.85 112.403 166.923 112.489 167.03C112.574 167.137 112.619 167.27 112.617 167.406C112.617 167.53 112.567 167.649 112.48 167.737C112.392 167.825 112.273 167.874 112.149 167.874ZM111.682 173.715V168.925H112.5V173.715H111.682Z" fill="#72767D"/>
<path d="M116.005 173.715C115.354 173.715 114.73 173.456 114.27 172.996C113.81 172.536 113.551 171.912 113.551 171.262C113.551 170.611 113.81 169.987 114.27 169.527C114.73 169.067 115.354 168.808 116.005 168.808C116.547 168.8 117.079 168.963 117.523 169.276V170.093C117.334 169.924 117.111 169.796 116.87 169.715C116.629 169.635 116.375 169.605 116.121 169.626C115.304 169.626 114.719 170.21 114.719 171.262C114.719 172.313 115.42 173.014 116.121 173.014C116.401 173.022 116.679 172.975 116.94 172.875C117.2 172.774 117.438 172.623 117.64 172.43V173.248C117.168 173.593 116.588 173.759 116.005 173.715Z" fill="#72767D"/>
<path d="M120.093 173.715C119.527 173.737 118.965 173.616 118.458 173.364V172.43C118.908 172.827 119.493 173.037 120.093 173.014C120.677 173.014 121.028 172.78 121.028 172.43C121.028 172.079 120.794 171.846 119.976 171.612C119.159 171.378 118.341 170.911 118.341 170.093C118.341 169.276 119.042 168.808 120.093 168.808C120.62 168.801 121.141 168.921 121.612 169.159V169.977C121.152 169.698 120.63 169.538 120.093 169.509C119.626 169.509 119.275 169.743 119.275 170.093C119.275 170.444 119.509 170.561 120.327 170.794C121.145 171.028 122.079 171.378 122.079 172.313C122.079 173.248 121.378 173.715 120.093 173.715Z" fill="#72767D"/>
<g opacity="0.49">
<path opacity="0.49" d="M181.457 30.0235H144.067C143.214 30.0235 142.523 30.7034 142.523 31.5422V39.1824C142.523 40.0211 143.214 40.7011 144.067 40.7011H181.457C182.309 40.7011 183 40.0211 183 39.1824V31.5422C183 30.7034 182.309 30.0235 181.457 30.0235Z" fill="#808AFF"/>
</g>
<path d="M64.0186 37.9673V31.4252H64.9532V37.1495H67.2896V37.9673H64.0186Z" fill="#72767D"/>
<path d="M69.9766 38.084C69.6797 38.0859 69.3857 38.0248 69.114 37.9048C68.8424 37.7848 68.5992 37.6087 68.4006 37.388C68.2019 37.1672 68.0523 36.9069 67.9615 36.6242C67.8707 36.3415 67.8408 36.0427 67.8738 35.7476C67.8416 35.4467 67.8713 35.1424 67.961 34.8534C68.0508 34.5644 68.1986 34.2967 68.3956 34.067C68.5925 33.8372 68.8344 33.6501 69.1063 33.5173C69.3781 33.3844 69.6743 33.3085 69.9766 33.2943C71.2617 33.2943 72.0794 34.2289 72.0794 35.7476C72.1124 36.0427 72.0825 36.3415 71.9917 36.6242C71.9009 36.9069 71.7513 37.1672 71.5526 37.388C71.354 37.6087 71.1108 37.7848 70.8392 37.9048C70.5675 38.0248 70.2736 38.0859 69.9766 38.084ZM69.9766 33.9952C69.1589 33.9952 68.8084 34.813 68.8084 35.7476C68.8084 36.6822 69.1589 37.3831 69.9766 37.3831C70.7944 37.3831 71.2617 36.6822 71.2617 35.7476C71.2617 34.813 70.7944 33.9952 69.9766 33.9952Z" fill="#72767D"/>
<path d="M74.9999 38.084C74.703 38.0859 74.409 38.0248 74.1373 37.9048C73.8657 37.7848 73.6226 37.6087 73.4239 37.388C73.2253 37.1672 73.0756 36.9069 72.9848 36.6242C72.894 36.3415 72.8641 36.0427 72.8971 35.7476C72.8649 35.4467 72.8946 35.1424 72.9843 34.8534C73.0741 34.5644 73.222 34.2967 73.4189 34.067C73.6158 33.8372 73.8577 33.6501 74.1296 33.5173C74.4015 33.3844 74.6976 33.3085 74.9999 33.2943C76.285 33.2943 77.1027 34.2289 77.1027 35.7476C77.1357 36.0427 77.1058 36.3415 77.0151 36.6242C76.9243 36.9069 76.7746 37.1672 76.576 37.388C76.3773 37.6087 76.1341 37.7848 75.8625 37.9048C75.5909 38.0248 75.2969 38.0859 74.9999 38.084ZM74.9999 33.9952C74.1822 33.9952 73.8317 34.813 73.8317 35.7476C73.8317 36.6822 74.299 37.3831 74.9999 37.3831C75.7009 37.3831 76.285 36.6822 76.285 35.7476C76.285 34.813 75.8177 33.9952 74.9999 33.9952Z" fill="#72767D"/>
<path d="M81.0747 38.0841L79.0887 35.6308V37.9673H78.2709V31.1916H79.0887V35.3972L80.841 33.528H81.8924L79.9064 35.3972L82.0093 37.8505L81.0747 38.0841Z" fill="#72767D"/>
<path d="M87.7336 37.9672V37.3831C87.3022 37.8233 86.7144 38.0753 86.0981 38.084C85.9248 38.1024 85.7496 38.0818 85.5854 38.0238C85.4211 37.9657 85.2719 37.8716 85.1487 37.7484C85.0255 37.6252 84.9314 37.476 84.8733 37.3117C84.8152 37.1474 84.7947 36.9722 84.813 36.799C84.813 35.6308 85.7476 35.2803 87.6168 35.0466V34.813C87.6168 34.2289 87.2663 34.1121 86.799 34.1121C86.2355 34.1149 85.6787 34.2343 85.1635 34.4625V33.7616C85.708 33.4837 86.3053 33.3244 86.9159 33.2943C88.0841 33.2943 88.5514 33.7616 88.5514 34.813V37.9672H87.7336ZM87.5 35.6308C85.8645 35.8644 85.514 36.3317 85.514 36.799C85.514 37.2663 85.7476 37.3831 86.2149 37.3831C86.4688 37.3741 86.7172 37.3061 86.9402 37.1844C87.1633 37.0627 87.3549 36.8908 87.5 36.6822V35.6308Z" fill="#72767D"/>
<path d="M91.2382 38.0841C91.065 38.1025 90.8898 38.0819 90.7255 38.0238C90.5612 37.9658 90.412 37.8717 90.2888 37.7485C90.1656 37.6253 90.0715 37.4761 90.0135 37.3118C89.9554 37.1475 89.9348 36.9723 89.9532 36.7991V34.1121H89.2523V33.4112H89.9532V31.8925H90.771V33.4112H91.7055V34.1121H90.6541V36.6822C90.6541 37.0327 90.7709 37.2664 91.2382 37.2664H91.5887V37.9673L91.2382 38.0841Z" fill="#72767D"/>
<path d="M96.4953 38.0841C96.322 38.1025 96.1468 38.0819 95.9825 38.0238C95.8183 37.9658 95.669 37.8717 95.5458 37.7485C95.4226 37.6253 95.3286 37.4761 95.2705 37.3118C95.2124 37.1475 95.1918 36.9723 95.2102 36.7991V34.1121H94.5093V33.4112H95.2102V31.8925H96.028V33.4112H97.0794V34.1121H95.9111V36.6822C95.9111 37.0327 96.028 37.2664 96.6121 37.2664H96.9626V37.9673L96.4953 38.0841Z" fill="#72767D"/>
<path d="M101.051 37.9673V34.9299C101.051 34.4626 100.818 34.1122 100.35 34.1122C100.097 34.1211 99.8482 34.1892 99.6252 34.3108C99.4021 34.4325 99.2105 34.6045 99.0654 34.8131V37.9673H98.2477V31.1916H99.0654V34.1122C99.4678 33.6991 100.009 33.4494 100.584 33.4112C101.519 33.4112 101.869 33.9953 101.869 34.8131V38.0841L101.051 37.9673Z" fill="#72767D"/>
<path d="M105.14 38.084C103.855 38.084 103.037 37.3831 103.037 35.7476C103.037 34.1121 103.855 33.2943 105.023 33.2943C106.192 33.2943 106.893 34.3457 106.893 35.6308H103.855C103.855 36.6822 104.322 37.2663 105.14 37.2663C105.447 37.2761 105.753 37.2184 106.036 37.0973C106.318 36.9762 106.571 36.7946 106.776 36.5653V37.3831C106.317 37.7812 105.745 38.0262 105.14 38.084ZM103.855 35.1635H106.075C105.958 34.4625 105.607 33.9952 105.023 33.9952C104.439 33.9952 103.972 34.3457 103.855 35.1635Z" fill="#72767D"/>
<path d="M109.346 38.0841C108.77 38.07 108.207 37.9091 107.71 37.6168V36.7991C108.18 37.1619 108.753 37.3665 109.346 37.3832C109.93 37.3832 110.28 37.1495 110.28 36.7991C110.28 36.4486 110.047 36.2149 109.229 35.9813C108.411 35.7476 107.71 35.3972 107.71 34.5794C107.725 34.3951 107.776 34.2155 107.86 34.051C107.945 33.8865 108.061 33.7403 108.202 33.6208C108.343 33.5014 108.507 33.411 108.683 33.355C108.859 33.299 109.045 33.2784 109.229 33.2944C109.758 33.2715 110.283 33.3926 110.748 33.6448V34.4626C110.328 34.1892 109.845 34.0283 109.346 33.9953C108.879 33.9953 108.645 34.229 108.645 34.5794C108.645 34.9299 108.878 35.0467 109.579 35.2804C110.28 35.514 111.215 35.8645 111.215 36.6822C111.215 37.5 110.514 38.0841 109.346 38.0841Z" fill="#72767D"/>
<path d="M114.019 38.084C113.716 38.1068 113.412 38.0599 113.13 37.9469C112.849 37.8339 112.597 37.6578 112.394 37.4322C112.19 37.2066 112.042 36.9374 111.959 36.6454C111.876 36.3533 111.861 36.0462 111.916 35.7476C111.884 35.4467 111.913 35.1424 112.003 34.8534C112.093 34.5644 112.241 34.2967 112.438 34.067C112.635 33.8372 112.876 33.6501 113.148 33.5173C113.42 33.3844 113.716 33.3085 114.019 33.2943C115.304 33.2943 115.888 34.3457 115.888 35.6308H112.85C112.85 36.6822 113.318 37.2663 114.135 37.2663C114.443 37.2761 114.748 37.2184 115.031 37.0973C115.314 36.9762 115.566 36.7946 115.771 36.5653V37.3831C115.281 37.8042 114.664 38.0508 114.019 38.084ZM112.85 35.1635H115.07C114.953 34.4625 114.603 33.9952 113.902 33.9952C113.201 33.9952 112.967 34.3457 112.85 35.1635Z" fill="#72767D"/>
<path d="M120.678 39.7197C119.509 39.7197 118.575 39.3692 118.575 38.5515C118.575 37.7337 118.925 37.7337 119.509 37.3832L119.276 36.916C119.283 36.7677 119.33 36.6242 119.412 36.5007C119.494 36.3772 119.609 36.2785 119.743 36.215C119.487 36.116 119.27 35.9379 119.123 35.7067C118.976 35.4755 118.907 35.2034 118.925 34.93C118.925 34.705 118.971 34.4823 119.06 34.2759C119.149 34.0694 119.28 33.8837 119.445 33.7301C119.609 33.5766 119.804 33.4587 120.016 33.3838C120.228 33.3088 120.453 33.2784 120.678 33.2945C121.101 33.346 121.504 33.5071 121.846 33.7618L122.897 33.4113L123.131 34.1122H122.196C122.327 34.325 122.406 34.5647 122.43 34.8131C122.415 35.0281 122.358 35.2381 122.262 35.4309C122.166 35.6237 122.032 35.7956 121.869 35.9367C121.707 36.0779 121.517 36.1854 121.313 36.2532C121.108 36.321 120.892 36.3477 120.678 36.3318H120.327L120.093 36.5655C120.093 36.7991 120.21 36.7991 121.028 36.916H121.378C122.313 37.0328 122.897 37.3832 122.897 38.0842C122.897 38.7851 121.846 39.7197 120.678 39.7197ZM120.093 37.6169C119.92 37.687 119.765 37.7978 119.643 37.9402C119.521 38.0825 119.435 38.2521 119.393 38.4347C119.393 38.7851 119.86 39.1356 120.794 39.1356C121.729 39.1356 122.079 38.7851 122.079 38.4347C122.079 38.0842 121.963 37.9674 121.262 37.8505H120.093V37.6169ZM120.678 33.9954C120.43 33.9954 120.192 34.0939 120.017 34.2691C119.841 34.4444 119.743 34.6821 119.743 34.93C119.743 35.1778 119.841 35.4156 120.017 35.5908C120.192 35.7661 120.43 35.8646 120.678 35.8646C120.925 35.8646 121.163 35.7661 121.338 35.5908C121.514 35.4156 121.612 35.1778 121.612 34.93C121.612 34.6821 121.514 34.4444 121.338 34.2691C121.163 34.0939 120.925 33.9954 120.678 33.9954Z" fill="#72767D"/>
<path d="M126.636 37.9672V37.3831C126.204 37.8233 125.616 38.0753 125 38.084C124.827 38.1024 124.652 38.0818 124.487 38.0238C124.323 37.9657 124.174 37.8716 124.051 37.7484C123.927 37.6252 123.833 37.476 123.775 37.3117C123.717 37.1474 123.697 36.9722 123.715 36.799C123.715 35.6308 124.65 35.2803 126.519 35.0466V34.813C126.519 34.2289 126.168 34.1121 125.701 34.1121C125.138 34.1149 124.581 34.2343 124.065 34.4625V33.7616C124.61 33.4837 125.207 33.3244 125.818 33.2943C126.986 33.2943 127.57 33.7616 127.57 34.813V37.9672H126.636ZM126.402 35.6308C124.766 35.8644 124.416 36.3317 124.416 36.799C124.416 37.2663 124.65 37.3831 125.117 37.3831C125.371 37.3741 125.619 37.3061 125.842 37.1844C126.065 37.0627 126.257 36.8908 126.402 36.6822V35.6308Z" fill="#72767D"/>
<path d="M129.089 32.4766C128.855 32.4766 128.505 32.243 128.505 32.0093C128.505 31.8544 128.566 31.7059 128.676 31.5963C128.785 31.4868 128.934 31.4252 129.089 31.4252C129.244 31.4252 129.392 31.4868 129.502 31.5963C129.611 31.7059 129.673 31.8544 129.673 32.0093C129.645 32.1433 129.572 32.2634 129.465 32.3488C129.359 32.4341 129.225 32.4794 129.089 32.4766ZM128.621 37.9673V33.4112H129.556V37.9673H128.621Z" fill="#72767D"/>
<path d="M133.762 37.9672V34.9298C133.762 34.4625 133.528 34.1121 133.061 34.1121C132.807 34.1211 132.558 34.1891 132.335 34.3108C132.112 34.4324 131.921 34.6044 131.776 34.813V37.9672H130.958V33.4111H131.542V34.1121C131.961 33.6389 132.547 33.346 133.178 33.2943C133.357 33.2936 133.534 33.3303 133.698 33.402C133.862 33.4738 134.009 33.579 134.13 33.711C134.251 33.843 134.343 33.9988 134.4 34.1685C134.458 34.3381 134.479 34.5179 134.463 34.6962V37.9672H133.762Z" fill="#72767D"/>
<path d="M137.383 38.084C136.77 38.0698 136.17 37.9096 135.631 37.6167V36.799C136.1 37.1619 136.673 37.3664 137.266 37.3831C137.85 37.3831 138.201 37.1494 138.201 36.799C138.201 36.4485 137.967 36.2148 137.15 35.9812C136.332 35.7476 135.631 35.3971 135.631 34.5793C135.631 33.7616 136.215 33.2943 137.266 33.2943C137.756 33.2866 138.24 33.4074 138.668 33.6448V34.4625C138.293 34.1881 137.847 34.0261 137.383 33.9952C136.799 33.9952 136.565 34.2289 136.565 34.5793C136.565 34.9298 136.799 35.0466 137.5 35.2803C138.201 35.5139 139.136 35.8644 139.136 36.6821C139.136 37.4999 138.551 38.084 137.383 38.084Z" fill="#72767D"/>
<path d="M73.4813 23.2479H71.2617L69.6262 17.4068L68.1075 23.2479H65.8878L63.4346 14.4862L65.8878 14.0189L67.2897 19.86L68.6916 14.1357H71.028L72.4299 19.86L73.7149 14.1357H75.9346L73.4813 23.2479Z" fill="#808AFF"/>
<path d="M80.257 23.2481V22.3135C80.0164 22.6162 79.7157 22.8659 79.3739 23.0468C79.0322 23.2278 78.6566 23.3361 78.271 23.3649C78.0102 23.3847 77.7483 23.346 77.5045 23.2515C77.2606 23.1569 77.041 23.009 76.8618 22.8186C76.6826 22.6281 76.5482 22.4 76.4686 22.1509C76.389 21.9018 76.3662 21.638 76.4018 21.3789V16.8228H78.3878V20.7948C78.3878 21.2621 78.6215 21.6125 79.0888 21.6125C79.5007 21.5584 79.8766 21.3496 80.1401 21.0284V16.8228H82.1261V23.2481H80.257Z" fill="#808AFF"/>
<path d="M90.6541 23.248V19.1592C90.6541 18.6919 90.5373 18.4583 90.07 18.4583C89.6829 18.5132 89.3188 18.6751 89.0186 18.9255V23.248H87.0326V19.1592C87.0326 18.6919 86.9158 18.4583 86.4485 18.4583C86.0614 18.5132 85.6973 18.6751 85.3971 18.9255V23.248H83.4111V16.8227H85.1635V17.6405C85.4101 17.3537 85.7144 17.1222 86.0567 16.9612C86.3989 16.8001 86.7713 16.7131 87.1494 16.7059C87.4875 16.6549 87.8328 16.7194 88.1296 16.889C88.4264 17.0586 88.6573 17.3234 88.785 17.6405C89.0316 17.3537 89.3359 17.1222 89.6782 16.9612C90.0204 16.8001 90.3928 16.7131 90.7709 16.7059C91.0317 16.686 91.2936 16.7248 91.5375 16.8193C91.7813 16.9139 92.0009 17.0618 92.1802 17.2522C92.3594 17.4426 92.4937 17.6708 92.5733 17.9199C92.6529 18.169 92.6757 18.4328 92.6401 18.6919V23.248H90.6541Z" fill="#808AFF"/>
<path d="M97.3129 23.2481L96.0278 23.0144V25.3509L94.0419 25.7013V16.8228H95.7942V17.6406C96.0275 17.3679 96.3132 17.1446 96.6342 16.9841C96.9552 16.8236 97.3052 16.729 97.6634 16.706C98.9484 16.706 99.9998 17.6406 99.9998 19.8602C99.9998 22.0798 98.7148 23.2481 97.3129 23.2481ZM97.0792 18.4583C96.6673 18.5124 96.2914 18.7213 96.0278 19.0424V21.4957C96.3114 21.6594 96.6352 21.7403 96.9624 21.7294C97.5465 21.7294 98.1307 21.2621 98.1307 19.977C98.1307 18.692 97.6634 18.4583 97.0792 18.4583Z" fill="#808AFF"/>
<path d="M105.14 23.2481L104.907 22.3135C104.666 22.6162 104.365 22.8659 104.024 23.0468C103.682 23.2278 103.306 23.3361 102.921 23.3649C101.752 23.3649 101.168 22.6639 101.168 21.3789V16.8228H103.154V20.7948C103.154 21.2621 103.271 21.6125 103.738 21.6125C103.963 21.6007 104.182 21.5427 104.383 21.4422C104.584 21.3417 104.762 21.2008 104.907 21.0284V16.8228H106.893V23.2481H105.14Z" fill="#808AFF"/>
<path d="M110.631 23.3648C109.693 23.3417 108.773 23.1018 107.944 22.6638L108.178 21.1451C108.912 21.6223 109.757 21.9038 110.631 21.9629C111.098 21.9629 111.449 21.7292 111.449 21.4956C111.449 21.262 111.215 21.0283 110.28 20.7947C109.346 20.561 108.061 19.8601 108.061 18.6919C108.061 17.5236 108.878 16.7059 110.514 16.7059C111.318 16.6808 112.118 16.8406 112.85 17.1732L112.617 18.6919C111.964 18.3522 111.248 18.1532 110.514 18.1077C110.047 18.1077 109.813 18.2246 109.813 18.4582C109.813 18.8087 110.047 18.9255 110.864 19.1591C111.682 19.3928 113.201 20.0937 113.201 21.2619C113.201 22.4302 112.266 23.3648 110.631 23.3648Z" fill="#808AFF"/>
<path d="M119.86 17.4069V23.2481H118.925V17.4069H116.822V16.5892H121.846V17.4069H119.86Z" fill="#72767D"/>
<path d="M123.598 23.3648C123.296 23.3506 123 23.2747 122.728 23.1419C122.456 23.009 122.214 22.8219 122.017 22.5922C121.82 22.3624 121.672 22.0948 121.582 21.8058C121.493 21.5168 121.463 21.2125 121.495 20.9116C121.462 20.6164 121.492 20.3177 121.583 20.0349C121.674 19.7522 121.823 19.4919 122.022 19.2712C122.221 19.0504 122.464 18.8743 122.736 18.7543C123.007 18.6344 123.301 18.5733 123.598 18.5751C123.895 18.5733 124.189 18.6344 124.461 18.7543C124.732 18.8743 124.975 19.0504 125.174 19.2712C125.373 19.4919 125.522 19.7522 125.613 20.0349C125.704 20.3177 125.734 20.6164 125.701 20.9116C125.701 22.4303 124.883 23.3648 123.598 23.3648ZM123.598 19.276C122.78 19.276 122.43 19.977 122.43 20.9116C122.43 21.8461 122.78 22.6639 123.598 22.6639C124.416 22.6639 124.883 21.963 124.883 20.9116C124.883 19.8602 124.416 19.276 123.598 19.276Z" fill="#72767D"/>
<path d="M129.906 23.2481V22.5471C129.756 22.7864 129.55 22.9857 129.306 23.1281C129.062 23.2705 128.787 23.3517 128.505 23.3649C127.453 23.3649 126.635 22.5471 126.635 21.0284C126.635 19.5097 127.57 18.5752 128.738 18.5752L129.906 18.8088V16.4724H130.724V23.3649L129.906 23.2481ZM129.79 19.6266C129.447 19.3901 129.038 19.2675 128.621 19.2761C127.92 19.2761 127.453 19.8602 127.453 21.0284C127.453 22.1967 127.804 22.5471 128.505 22.5471C128.767 22.5163 129.018 22.4268 129.241 22.2852C129.463 22.1436 129.651 21.9536 129.79 21.7294V19.6266Z" fill="#72767D"/>
<path d="M134.696 23.248V22.6639C134.505 22.8784 134.271 23.0513 134.01 23.1719C133.748 23.2925 133.465 23.3581 133.178 23.3649C132.999 23.3811 132.82 23.36 132.65 23.3027C132.48 23.2455 132.324 23.1534 132.192 23.0324C132.06 22.9114 131.955 22.7642 131.883 22.6001C131.812 22.4361 131.775 22.2589 131.776 22.0798C131.776 20.9116 132.71 20.4443 134.696 20.2106C134.696 19.6265 134.346 19.3929 133.762 19.3929C133.225 19.4215 132.703 19.582 132.243 19.8602V19.0424C132.792 18.79 133.392 18.6699 133.995 18.692C135.047 18.692 135.631 19.1592 135.631 20.2106V23.3649L134.696 23.248ZM134.579 20.9116C132.827 21.0284 132.477 21.4957 132.477 21.963C132.454 22.0596 132.457 22.1603 132.484 22.2556C132.511 22.351 132.563 22.4378 132.633 22.5079C132.703 22.5781 132.79 22.6292 132.885 22.6565C132.98 22.6837 133.081 22.6863 133.178 22.6639C133.704 22.5748 134.192 22.3308 134.579 21.963V20.9116Z" fill="#72767D"/>
<path d="M138.435 23.7153C138.084 24.7667 137.617 25.0003 136.916 25.0003H136.565V24.2994H137.033C137.383 24.2994 137.617 24.1825 137.85 23.7153V23.3648L136.215 18.8087H137.033L138.318 22.4302L139.486 18.9255H140.304L138.435 23.7153Z" fill="#72767D"/>
<path d="M146.028 23.248V22.6639C145.597 23.1041 145.009 23.356 144.392 23.3648C144.214 23.3811 144.034 23.3599 143.865 23.3027C143.695 23.2454 143.539 23.1533 143.407 23.0324C143.275 22.9114 143.17 22.7641 143.098 22.6001C143.027 22.436 142.99 22.2588 142.991 22.0798C142.991 20.9115 144.042 20.4442 145.911 20.2106C145.932 20.0986 145.925 19.9833 145.892 19.8745C145.858 19.7657 145.798 19.6667 145.718 19.5862C145.637 19.5057 145.538 19.446 145.43 19.4123C145.321 19.3786 145.205 19.3719 145.093 19.3928C144.52 19.4249 143.961 19.5845 143.458 19.8601V19.0424C144.011 18.8048 144.608 18.6854 145.21 18.6919C146.378 18.6919 146.846 19.1592 146.846 20.2106V23.3648L146.028 23.248ZM145.911 20.9115C144.276 21.0284 143.925 21.4956 143.925 21.9629C143.925 22.4302 144.159 22.6639 144.509 22.6639C144.778 22.6482 145.041 22.578 145.282 22.4575C145.523 22.337 145.737 22.1688 145.911 21.9629V20.9115Z" fill="#72767D"/>
<path d="M149.65 23.248C148.832 23.248 148.248 23.0143 148.248 22.0798V19.3928H147.664V18.6919H148.248V17.1732H149.182V18.8087H150.117V19.3928H149.065V21.9629C149.065 22.3134 149.182 22.547 149.65 22.547H150V23.248H149.65Z" fill="#72767D"/>
<path d="M157.126 21.7294V23.2481H156.308V21.7294H153.037V21.1452L156.075 16.706H157.126V21.0284H158.061V21.7294H157.126ZM156.308 17.7574L153.972 21.0284H156.308V17.7574Z" fill="#72767D"/>
<path d="M158.995 19.8601V18.6919H159.93V19.8601H158.995ZM158.995 23.248V22.0797H159.93V23.248H158.995Z" fill="#72767D"/>
<path d="M160.981 23.2481V22.5471L163.435 20.0938C163.665 19.9081 163.857 19.678 163.997 19.4172C164.137 19.1564 164.224 18.8701 164.252 18.5752C164.271 18.4172 164.254 18.2571 164.202 18.1068C164.15 17.9565 164.064 17.82 163.952 17.7075C163.839 17.595 163.703 17.5096 163.553 17.4575C163.402 17.4054 163.242 17.3881 163.084 17.4069C162.752 17.4174 162.425 17.4953 162.124 17.6359C161.823 17.7764 161.553 17.9768 161.332 18.2247V17.4069C161.577 17.1656 161.87 16.9785 162.192 16.8577C162.514 16.737 162.858 16.6853 163.201 16.706C164.486 16.706 165.304 17.4069 165.304 18.4583C165.304 19.5097 164.953 19.7434 164.136 20.5611L162.266 22.4303H165.187V23.2481H160.981Z" fill="#72767D"/>
<path d="M168.691 23.3649C167.173 23.3649 166.238 22.0798 166.238 19.977C166.238 17.8742 167.173 16.706 168.691 16.706C170.21 16.706 171.145 17.8742 171.145 19.977C171.145 22.0798 170.093 23.3649 168.691 23.3649ZM168.691 17.4069C167.64 17.4069 167.056 18.3415 167.056 19.977C167.056 21.6125 167.64 22.5471 168.691 22.5471C169.743 22.5471 170.21 21.7294 170.21 19.977C170.21 18.2247 169.626 17.4069 168.691 17.4069Z" fill="#72767D"/>
<path d="M174.299 23.248H173.131V25.0003H172.313V18.6919H172.897V19.276C173.089 19.0615 173.323 18.8886 173.584 18.768C173.845 18.6475 174.128 18.5818 174.416 18.5751C175.35 18.5751 176.168 19.276 176.168 20.7947C176.168 22.3134 175.35 23.248 174.299 23.248ZM174.416 19.276C174.151 19.2978 173.896 19.3837 173.672 19.5262C173.448 19.6686 173.263 19.8634 173.131 20.0938V22.3134L174.182 22.547C174.883 22.547 175.467 21.9629 175.467 20.9115C175.467 19.8601 175 19.276 174.416 19.276Z" fill="#72767D"/>
<path d="M183.061 23.2479V20.0937C183.083 19.9971 183.08 19.8964 183.053 19.8011C183.026 19.7057 182.975 19.6189 182.905 19.5488C182.835 19.4787 182.748 19.4275 182.652 19.4002C182.557 19.373 182.456 19.3704 182.36 19.3928C182.106 19.4018 181.857 19.4698 181.634 19.5915C181.411 19.7131 181.22 19.8851 181.075 20.0937V23.2479H180.257V20.0937C180.279 19.9971 180.277 19.8964 180.249 19.8011C180.222 19.7057 180.171 19.6189 180.101 19.5488C180.031 19.4787 179.944 19.4275 179.849 19.4002C179.753 19.373 179.653 19.3704 179.556 19.3928C179.302 19.4018 179.054 19.4698 178.831 19.5915C178.608 19.7131 178.416 19.8851 178.271 20.0937V23.2479H177.453V18.6918H178.037V19.276C178.482 18.855 179.062 18.6065 179.673 18.575C179.919 18.5342 180.172 18.5823 180.386 18.7107C180.6 18.8391 180.761 19.0395 180.841 19.276C181.285 18.855 181.865 18.6065 182.477 18.575C182.65 18.5566 182.825 18.5772 182.989 18.6353C183.154 18.6934 183.303 18.7875 183.426 18.9107C183.549 19.0339 183.643 19.1831 183.701 19.3473C183.759 19.5116 183.78 19.6868 183.762 19.8601V23.2479H183.061Z" fill="#72767D"/>
<path d="M32.8272 45.2103C41.8599 45.2103 49.1823 37.8879 49.1823 28.8552C49.1823 19.8225 41.8599 12.5001 32.8272 12.5001C23.7945 12.5001 16.472 19.8225 16.472 28.8552C16.472 37.8879 23.7945 45.2103 32.8272 45.2103Z" fill="#EB459F"/>
<path d="M18.458 26.2851C18.8084 25 19.9767 25 21.0281 25.1169C21.1526 24.2718 21.3883 23.4469 21.729 22.6636C23.0141 20.2103 25.5841 19.743 28.1542 19.5094C30.7243 19.2757 36.9159 19.0421 40.8879 20.6776C41.5733 20.9736 42.1821 21.4221 42.668 21.9889C43.1538 22.5558 43.504 23.226 43.6916 23.9486C43.8085 24.0655 43.8085 24.2991 43.9253 24.5328C43.9253 24.5018 43.9376 24.4721 43.9595 24.4502C43.9814 24.4282 44.0111 24.4159 44.0421 24.4159C47.0795 24.1823 47.7804 26.5187 47.8972 28.8552C47.9419 30.1653 47.7439 31.4723 47.3131 32.7103C46.729 33.8786 45.444 33.7617 44.2757 33.6449H44.0421C43.1075 36.215 40.7711 37.2664 38.0842 37.5C33.8639 38.1427 29.5707 38.1427 25.3505 37.5C24.3461 37.4328 23.3943 37.0263 22.6514 36.347C21.9084 35.6677 21.4184 34.7561 21.2617 33.7617H20.3271C18.9253 33.4113 18.2243 32.944 17.9907 31.4253C17.8425 29.6977 18.0007 27.9576 18.458 26.2851Z" fill="#7196FF"/>
<path d="M28.5047 24.416C29.6366 23.7554 30.9334 23.4312 32.243 23.4814C34.0376 23.384 35.8375 23.4622 37.6168 23.7151H38.0841C38.3864 23.7695 38.6673 23.9079 38.8945 24.1145C39.1218 24.3211 39.2863 24.5875 39.3692 24.8833C40.0701 27.2197 39.6028 30.374 36.7991 31.4254C33.9954 32.4768 30.958 32.2431 29.0888 30.7244C27.2196 29.2057 26.4019 26.0515 28.5047 24.416Z" fill="#BACFFF"/>
<path d="M35.2804 29.4395H36.9159C37.0832 29.4418 37.2459 29.3842 37.3744 29.2771C37.503 29.1699 37.589 29.0204 37.6168 28.8554C37.6192 28.688 37.5616 28.5254 37.4545 28.3968C37.3473 28.2683 37.1977 28.1823 37.0327 28.1544H35.2804C34.4626 28.2712 34.3458 29.4395 35.2804 29.4395ZM30.0234 29.089C30.021 29.2563 30.0786 29.419 30.1858 29.5475C30.2929 29.6761 30.4425 29.7621 30.6075 29.7899H32.7103C32.8315 29.7249 32.931 29.6257 32.9962 29.5045C33.0614 29.3834 33.0895 29.2458 33.0771 29.1088C33.0646 28.9717 33.0121 28.8414 32.9261 28.7341C32.8401 28.6267 32.7245 28.547 32.5935 28.5049H30.7243C30.3738 28.6217 30.0234 28.7385 30.0234 29.089Z" fill="#7196FF"/>
<path d="M42.5234 28.2712C44.0421 28.2712 44.1589 25.8179 42.6402 25.9347C42.4868 25.927 42.3334 25.9497 42.1887 26.0013C42.0441 26.0529 41.911 26.1325 41.7971 26.2356C41.6832 26.3386 41.5907 26.4631 41.5249 26.6019C41.4591 26.7407 41.4213 26.8911 41.4136 27.0445C41.4059 27.1979 41.4285 27.3514 41.4802 27.496C41.5318 27.6407 41.6114 27.7738 41.7145 27.8877C41.8175 28.0016 41.942 28.0941 42.0808 28.1599C42.2196 28.2257 42.37 28.2635 42.5234 28.2712ZM24.5328 28.6216C26.1683 28.6216 26.2851 26.1684 24.6496 26.1684C23.0141 26.1684 22.8973 28.6216 24.5328 28.6216Z" fill="#23272A"/>
<path d="M44.6262 31.5421C44.6801 31.7076 44.7937 31.8472 44.9449 31.9336C45.096 32.0199 45.2739 32.047 45.4439 32.0094C46.3785 31.8926 46.4953 31.0748 46.6122 30.2571C46.7053 29.2387 46.6263 28.2118 46.3785 27.2197H46.2617C46.187 27.0756 46.0647 26.962 45.9155 26.8981C45.7664 26.8342 45.5997 26.824 45.4439 26.8692C45.3571 26.8041 45.254 26.7645 45.1459 26.7547C45.0379 26.745 44.9293 26.7655 44.8322 26.814C44.7352 26.8626 44.6536 26.9371 44.5966 27.0294C44.5396 27.1217 44.5093 27.228 44.5093 27.3365C44.5093 28.7384 44.6262 30.1402 44.6262 31.5421ZM20.5607 32.0094C20.6947 31.9821 20.8148 31.9087 20.9002 31.802C20.9855 31.6952 21.0308 31.5619 21.028 31.4253C21.1449 30.2571 21.2617 28.972 21.2617 27.687V27.4533C21.2367 27.3725 21.1944 27.2981 21.1378 27.2352C21.0811 27.1723 21.0116 27.1225 20.9338 27.0891C20.856 27.0558 20.7719 27.0398 20.6873 27.0421C20.6028 27.0445 20.5197 27.0652 20.4439 27.1028C20.2365 27.1965 20.0703 27.3627 19.9766 27.5701C19.743 28.3879 18.5748 32.5935 20.5607 32.0094Z" fill="#BACFFF"/>
<path d="M237.033 48.2477H69.2757C66.4369 48.2477 64.1356 50.549 64.1356 53.3879V147.091C64.1356 149.93 66.4369 152.231 69.2757 152.231H237.033C239.872 152.231 242.173 149.93 242.173 147.091V53.3879C242.173 50.549 239.872 48.2477 237.033 48.2477Z" fill="#FFE75C"/>
<path d="M99.1824 48.2476L119.393 152.22H93.6917L94.8599 48.2476H99.1824Z" fill="#C2FFD1"/>
<path d="M242.173 147.079V130.607L122.08 48.2476H106.542L163.668 152.22H237.033C238.396 152.22 239.704 151.678 240.668 150.714C241.632 149.75 242.173 148.443 242.173 147.079Z" fill="#C2FFD1"/>
<path d="M221.379 89.6028C217.991 76.6355 217.407 75.5841 212.967 75.5841C206.542 75.5841 203.738 77.9205 204.673 82.8271C205.608 87.7336 207.243 94.743 207.243 94.743C205.841 97.4299 205.491 99.0654 205.841 100.818C200 100.35 196.145 102.22 193.458 103.037C188.668 96.8458 186.449 94.743 170.678 96.4953L126.285 91.3551C116.589 86.4486 113.318 86.6822 106.893 89.6028C104.398 88.0293 101.62 86.9578 98.7151 86.4485C98.131 83.9953 97.8973 82.2429 95.3273 80.9579L98.2478 73.7149L94.2759 60.9813C90.0702 60.9813 90.888 62.0327 84.3459 73.1308C78.5048 76.7523 76.0515 80.1402 74.6497 83.1775C73.2478 86.2149 71.6123 89.8364 73.4815 96.6121C74.2992 99.0654 76.1684 99.6495 79.4394 100.818C86.3319 112.033 90.3039 114.135 104.089 113.785C100.935 121.612 100.584 126.168 107.944 131.425C107.36 143.107 107.243 144.743 115.538 152.22H178.622C186.566 148.832 189.837 144.743 194.86 125C208.528 127.804 212.617 129.907 225 121.846C231.893 120.678 233.295 118.458 233.061 113.551C232.126 98.7149 228.271 94.042 221.379 89.6028Z" fill="#698EFF"/>
<path d="M107.36 63.5512C106.425 60.5139 100.818 60.8643 94.2759 60.9811L95.7946 75.1167C101.519 75.9344 103.622 75.8176 107.36 74.1821C111.098 72.5466 108.178 66.5886 107.36 63.5512Z" fill="#698EFF"/>
<path d="M218.341 79.3224C216.355 73.7149 214.836 73.2476 206.776 71.6121C198.715 69.9766 198.715 71.7289 196.145 78.0373C193.575 84.3457 195.327 86.4485 198.481 87.3831C201.635 88.3177 204.206 89.8364 208.528 89.1355C215.07 88.0841 218.341 79.3224 218.341 79.3224Z" fill="#698EFF"/>
<path d="M167.407 136.332C163.313 136.179 159.245 135.632 155.257 134.696C142.991 131.892 137.967 128.738 137.734 128.621C134.813 126.752 133.995 120.561 140.888 108.645C140.998 108.533 141.143 108.461 141.299 108.442C141.455 108.422 141.613 108.455 141.748 108.536C141.882 108.617 141.986 108.741 142.042 108.887C142.098 109.034 142.103 109.196 142.056 109.346C135.28 121.145 136.682 126.285 138.435 127.453C140.187 128.621 143.575 130.607 155.491 133.294C174.533 137.617 175.935 133.645 179.556 123.131C179.776 122.296 180.049 121.477 180.374 120.678C183.762 110.864 185.514 108.294 192.056 103.271C192.13 103.203 192.217 103.152 192.313 103.12C192.408 103.089 192.509 103.079 192.608 103.09C192.708 103.101 192.804 103.133 192.89 103.185C192.976 103.236 193.05 103.305 193.107 103.388C193.208 103.53 193.251 103.705 193.229 103.878C193.208 104.05 193.123 104.209 192.991 104.322C186.682 109.229 184.93 111.682 181.659 121.145C181.425 121.963 181.075 122.78 180.841 123.481C178.154 131.542 176.519 136.332 167.407 136.332Z" fill="#4F7AFF"/>
<path d="M202.921 116.822C199.861 116.792 196.825 116.28 193.925 115.304C193.76 115.25 193.62 115.136 193.534 114.985C193.447 114.834 193.42 114.656 193.458 114.486C193.535 114.311 193.67 114.169 193.841 114.084C194.012 113.998 194.207 113.975 194.392 114.019C202.687 116.706 208.995 115.07 214.486 112.967C214.57 112.928 214.661 112.906 214.754 112.903C214.847 112.899 214.94 112.914 215.027 112.947C215.114 112.98 215.193 113.029 215.261 113.093C215.328 113.157 215.383 113.233 215.421 113.318C215.46 113.402 215.481 113.493 215.485 113.586C215.488 113.679 215.473 113.771 215.441 113.858C215.408 113.945 215.359 114.025 215.295 114.093C215.231 114.16 215.155 114.215 215.07 114.252C211.219 115.869 207.096 116.741 202.921 116.822Z" fill="#4F7AFF"/>
<path d="M221.729 110.631L221.262 110.397C216.854 106.707 211.832 103.821 206.425 101.869C205.958 101.752 205.841 101.402 205.958 100.934C205.983 100.854 206.025 100.779 206.082 100.716C206.138 100.653 206.208 100.604 206.286 100.57C206.364 100.537 206.448 100.521 206.532 100.523C206.617 100.526 206.7 100.546 206.776 100.584C214.252 102.92 220.21 107.827 222.196 109.346C222.337 109.479 222.426 109.657 222.448 109.85C222.469 110.043 222.421 110.236 222.313 110.397L221.729 110.631Z" fill="#4F7AFF"/>
<path d="M104.673 113.318H104.439C104.355 113.28 104.278 113.225 104.214 113.158C104.151 113.09 104.101 113.011 104.069 112.924C104.036 112.837 104.021 112.744 104.025 112.651C104.028 112.558 104.05 112.467 104.089 112.383L108.879 102.57C108.994 102.397 109.056 102.194 109.056 101.986C109.056 101.778 108.994 101.575 108.879 101.402C107.128 97.9677 106.246 94.1573 106.309 90.3036C106.309 90.2115 106.327 90.1204 106.362 90.0353C106.397 89.9503 106.449 89.873 106.514 89.808C106.579 89.7429 106.656 89.6912 106.741 89.656C106.826 89.6208 106.917 89.6027 107.009 89.6027C107.102 89.6027 107.193 89.6208 107.278 89.656C107.363 89.6912 107.44 89.7429 107.505 89.808C107.57 89.873 107.622 89.9503 107.657 90.0353C107.692 90.1204 107.71 90.2115 107.71 90.3036C107.62 93.9599 108.465 97.5787 110.164 100.818C110.334 101.204 110.422 101.622 110.422 102.044C110.422 102.467 110.334 102.884 110.164 103.271L105.374 112.967C105.305 113.089 105.202 113.187 105.077 113.249C104.952 113.312 104.811 113.336 104.673 113.318Z" fill="#4F7AFF"/>
<path d="M114.369 133.178C112.39 133.226 110.417 132.95 108.528 132.36C108.362 132.306 108.223 132.192 108.137 132.041C108.05 131.89 108.023 131.712 108.061 131.542C108.178 131.075 108.528 130.958 108.995 131.075C114.135 132.593 121.262 131.659 131.892 128.037C131.977 127.998 132.068 127.976 132.161 127.973C132.254 127.969 132.346 127.984 132.433 128.017C132.52 128.05 132.6 128.099 132.667 128.163C132.735 128.227 132.789 128.303 132.827 128.388C132.87 128.574 132.848 128.769 132.762 128.939C132.677 129.11 132.534 129.246 132.36 129.322C124.883 131.892 119.042 133.178 114.369 133.178Z" fill="#4F7AFF"/>
<path d="M104.673 101.752H104.556C104.206 101.752 94.8598 100.584 89.1355 95.5606C89.0206 95.4321 88.957 95.2657 88.957 95.0933C88.957 94.9209 89.0206 94.7545 89.1355 94.626C89.1802 94.5459 89.2431 94.4775 89.3191 94.4262C89.3952 94.3749 89.4822 94.3423 89.5732 94.3309C89.6642 94.3196 89.7566 94.3298 89.843 94.3607C89.9293 94.3917 90.0071 94.4426 90.0701 94.5092C95.4439 99.2989 104.673 100.35 104.79 100.35C104.907 100.35 105.374 100.701 105.374 101.168C105.346 101.333 105.26 101.483 105.131 101.59C105.003 101.697 104.84 101.755 104.673 101.752Z" fill="#4F7AFF"/>
<path d="M83.4112 89.9532C83.1411 89.9311 82.89 89.8055 82.7102 89.6028C82.6489 89.413 82.6498 89.2087 82.7128 89.0195C82.7759 88.8303 82.8978 88.6663 83.0607 88.5513C87.5 86.0981 93.4579 85.8644 97.6635 85.7476C97.7556 85.7399 97.8482 85.7505 97.9362 85.7786C98.0242 85.8067 98.1058 85.8519 98.1763 85.9116C98.2468 85.9713 98.3048 86.0442 98.3471 86.1263C98.3895 86.2084 98.4152 86.2981 98.4229 86.3901C98.4305 86.4822 98.42 86.5748 98.3919 86.6628C98.3637 86.7508 98.3185 86.8324 98.2589 86.9029C98.1992 86.9734 98.1262 87.0315 98.0441 87.0738C97.962 87.1161 97.8724 87.1418 97.7803 87.1495C93.5747 87.2663 87.9673 87.4999 83.7617 89.8364L83.4112 89.9532Z" fill="#4F7AFF"/>
<path d="M148.248 106.893H147.547C147.361 106.893 147.183 106.819 147.051 106.687C146.92 106.556 146.846 106.377 146.846 106.192C146.846 106.006 146.92 105.827 147.051 105.696C147.183 105.564 147.361 105.491 147.547 105.491C152.804 105.607 157.944 103.972 162.383 102.57C165.118 101.465 167.985 100.719 170.911 100.35C171.379 100.35 171.729 100.584 171.729 101.051C171.729 101.237 171.655 101.416 171.524 101.547C171.392 101.678 171.214 101.752 171.028 101.752C168.22 102.081 165.469 102.788 162.851 103.855C158.411 105.257 153.505 106.893 148.248 106.893Z" fill="#4F7AFF"/>
<path d="M138.201 105.14H137.968C134.475 104.004 131.308 102.04 128.739 99.4157C127.354 97.9341 125.63 96.8115 123.715 96.1447C123.63 96.1069 123.554 96.0526 123.49 95.9849C123.427 95.9173 123.377 95.8377 123.344 95.7507C123.312 95.6638 123.297 95.5712 123.3 95.4784C123.304 95.3856 123.326 95.2944 123.365 95.2101C123.419 95.0446 123.532 94.9051 123.683 94.8187C123.835 94.7323 124.012 94.7053 124.182 94.7428C126.28 95.4851 128.165 96.7282 129.673 98.3643C132.149 100.823 135.143 102.699 138.435 103.855C138.516 103.88 138.59 103.922 138.653 103.979C138.716 104.036 138.766 104.105 138.799 104.183C138.832 104.261 138.848 104.345 138.846 104.429C138.844 104.514 138.823 104.597 138.785 104.673C138.758 104.807 138.685 104.927 138.578 105.012C138.471 105.098 138.338 105.143 138.201 105.14Z" fill="#4F7AFF"/>
<path d="M160.514 150.584C152.804 141.238 140.07 134.93 134.112 135.514C128.154 136.098 123.949 141.939 120.911 151.869V152.219H124.65L129.556 147.43C134.813 142.29 136.098 143.575 139.136 145.093C142.173 146.612 145.911 149.065 150.935 152.219H161.916L160.514 150.584Z" fill="#4F7AFF"/>
<path d="M172.547 150.584C172.399 150.577 172.255 150.53 172.131 150.448C172.008 150.365 171.909 150.251 171.846 150.117C171.805 150.024 171.789 149.922 171.799 149.821C171.81 149.721 171.846 149.624 171.905 149.542C171.964 149.459 172.043 149.393 172.135 149.351C172.227 149.308 172.329 149.291 172.43 149.299C174.204 148.957 175.88 148.224 177.335 147.153C178.79 146.082 179.988 144.7 180.841 143.108C180.879 143.023 180.933 142.946 181.001 142.883C181.069 142.819 181.148 142.769 181.235 142.737C181.322 142.704 181.415 142.689 181.507 142.693C181.6 142.696 181.691 142.718 181.776 142.757C181.929 142.852 182.047 142.996 182.11 143.165C182.173 143.334 182.179 143.519 182.126 143.692C181.192 145.496 179.851 147.059 178.209 148.255C176.566 149.452 174.668 150.249 172.664 150.584H172.547Z" fill="#4F7AFF"/>
<path d="M176.986 142.406H176.402C176.216 142.406 176.038 142.332 175.906 142.201C175.775 142.07 175.701 141.891 175.701 141.705C175.701 141.519 175.775 141.341 175.906 141.21C176.038 141.078 176.216 141.004 176.402 141.004C178.222 141.102 180.041 140.785 181.721 140.076C183.4 139.368 184.897 138.287 186.098 136.916C186.212 136.784 186.37 136.698 186.543 136.677C186.716 136.655 186.89 136.699 187.033 136.799C187.115 136.856 187.185 136.93 187.236 137.016C187.287 137.102 187.32 137.198 187.331 137.298C187.342 137.398 187.331 137.498 187.3 137.594C187.269 137.689 187.218 137.776 187.15 137.85C185.875 139.286 184.31 140.435 182.558 141.221C180.805 142.006 178.906 142.41 176.986 142.406Z" fill="#4F7AFF"/>
<path d="M194.86 125.701H194.626L189.369 124.533C189.268 124.541 189.167 124.524 189.075 124.481C188.983 124.438 188.903 124.373 188.844 124.29C188.785 124.208 188.749 124.111 188.739 124.01C188.728 123.91 188.744 123.808 188.785 123.715C188.839 123.549 188.953 123.41 189.104 123.323C189.255 123.237 189.433 123.21 189.603 123.248L194.977 124.299C195.072 124.325 195.161 124.371 195.237 124.433C195.313 124.496 195.375 124.574 195.419 124.662C195.463 124.75 195.488 124.847 195.493 124.945C195.497 125.044 195.48 125.142 195.444 125.234C195.444 125.467 195.094 125.701 194.86 125.701Z" fill="#4F7AFF"/>
<path d="M115.771 147.897H115.537C111.565 146.145 108.995 143.107 108.762 139.603C108.762 139.417 108.835 139.239 108.967 139.107C109.098 138.976 109.277 138.902 109.463 138.902C109.548 138.884 109.637 138.886 109.722 138.908C109.807 138.929 109.886 138.969 109.953 139.025C110.021 139.081 110.075 139.152 110.111 139.232C110.147 139.311 110.165 139.398 110.164 139.486C110.397 142.991 113.435 145.444 116.121 146.612C116.206 146.65 116.283 146.704 116.346 146.772C116.41 146.84 116.46 146.919 116.492 147.006C116.525 147.093 116.54 147.186 116.536 147.278C116.533 147.371 116.511 147.462 116.472 147.547C116.394 147.659 116.289 147.75 116.166 147.811C116.044 147.873 115.908 147.902 115.771 147.897Z" fill="#4F7AFF"/>
<path d="M206.075 89.4859C210.514 88.9018 211.682 87.4999 212.851 85.7476C212.882 85.5927 212.973 85.4564 213.104 85.3688C213.236 85.2812 213.397 85.2493 213.552 85.2803C213.706 85.3113 213.843 85.4026 213.93 85.534C214.018 85.6655 214.05 85.8263 214.019 85.9812C214.019 86.4485 213.785 87.1495 213.785 87.4999C212.5 92.757 210.397 94.5093 206.776 92.757L206.075 89.4859Z" fill="#4F7AFF"/>
<path d="M97.5469 75.5842C95.3273 75.1169 94.0422 74.2991 93.4581 72.43C92.874 70.5608 91.4721 70.7945 91.589 72.43C91.7058 74.0655 92.4067 79.9066 95.9114 79.673L97.5469 75.5842Z" fill="#4F7AFF"/>
<path d="M148.715 110.631C147.547 109.813 145.794 111.215 143.808 113.201C141.823 115.187 141.005 117.757 143.224 118.808C145.444 119.86 146.729 116.939 147.78 115.187C148.832 113.435 150 111.449 148.715 110.631Z" fill="#B7CCFF"/>
<path d="M124.565 102.173C125.223 101.907 125.462 100.964 125.1 100.067C124.737 99.1696 123.91 98.6577 123.252 98.9236C122.594 99.1894 122.354 100.132 122.717 101.03C123.079 101.927 123.907 102.439 124.565 102.173Z" fill="#B7CCFF"/>
<path d="M144.977 134.463C148.131 135.748 148.715 136.682 148.365 137.383C148.014 138.084 147.43 137.734 144.977 136.332C142.524 134.93 143.224 133.762 144.977 134.463Z" fill="#B7CCFF"/>
<path d="M177.097 102.02C177.917 101.641 178.472 101.096 178.337 100.803C178.202 100.511 177.427 100.58 176.607 100.959C175.787 101.338 175.232 101.883 175.368 102.175C175.503 102.468 176.277 102.399 177.097 102.02Z" fill="#B7CCFF"/>
<path d="M109.463 111.565C108.061 111.098 106.542 113.902 106.542 116.472C106.542 119.042 109.813 121.612 111.449 120.794C113.084 119.977 112.267 117.991 111.215 116.472C110.164 114.953 110.631 111.916 109.463 111.565Z" fill="#B7CCFF"/>
<path d="M201.82 106.193C203.293 106.009 204.441 105.497 204.386 105.049C204.33 104.601 203.091 104.386 201.618 104.57C200.146 104.753 198.997 105.265 199.053 105.713C199.109 106.162 200.348 106.376 201.82 106.193Z" fill="#B7CCFF"/>
<path d="M98.131 90.3037C97.3712 90.6902 96.5303 90.8904 95.6777 90.8878C94.86 90.8878 94.2759 90.6541 94.2759 90.4205C94.2759 90.1869 95.3273 89.3691 96.846 89.2523C98.3647 89.1355 99.0656 89.7196 98.131 90.3037Z" fill="#B7CCFF"/>
<path d="M168.458 128.154H166.589C166.352 128.073 166.1 128.046 165.852 128.078C165.603 128.109 165.365 128.197 165.156 128.335C164.947 128.472 164.773 128.656 164.646 128.872C164.519 129.088 164.443 129.33 164.425 129.58C164.406 129.829 164.446 130.08 164.539 130.312C164.633 130.544 164.778 130.752 164.965 130.919C165.151 131.086 165.374 131.208 165.615 131.275C165.856 131.343 166.109 131.354 166.355 131.308L168.224 131.542C168.671 131.576 169.114 131.437 169.461 131.155C169.809 130.872 170.035 130.467 170.094 130.023C170.127 129.79 170.11 129.552 170.043 129.325C169.976 129.099 169.861 128.89 169.706 128.713C169.55 128.535 169.358 128.393 169.143 128.297C168.928 128.2 168.694 128.152 168.458 128.154Z" fill="#4F7AFF"/>
<path d="M108.294 123.247H106.425C106.189 123.166 105.936 123.14 105.688 123.171C105.44 123.202 105.202 123.29 104.993 123.428C104.784 123.566 104.609 123.749 104.482 123.965C104.355 124.181 104.28 124.423 104.261 124.673C104.243 124.923 104.282 125.173 104.376 125.405C104.469 125.637 104.615 125.845 104.801 126.012C104.988 126.179 105.21 126.301 105.451 126.369C105.692 126.436 105.945 126.447 106.192 126.402H108.061C108.276 126.435 108.495 126.424 108.706 126.371C108.917 126.318 109.116 126.224 109.29 126.093C109.464 125.963 109.61 125.799 109.72 125.611C109.83 125.423 109.901 125.215 109.93 125C109.931 124.555 109.762 124.126 109.459 123.8C109.155 123.475 108.739 123.277 108.294 123.247Z" fill="#4F7AFF"/>
<path d="M131.075 91.2383C138.668 101.635 140.07 111.449 169.159 95.4439L131.075 91.2383Z" fill="#4F7AFF"/>
<path d="M163.084 66.4718C163.572 66.116 163.98 65.6619 164.282 65.1388C164.584 64.6156 164.773 64.035 164.837 63.4344C164.848 62.4417 164.55 61.4701 163.985 60.6539C163.42 59.8377 162.615 59.2172 161.682 58.8783L159.696 58.2942H159.58C156.425 58.0606 154.907 59.5792 152.22 61.5652C150.466 62.9093 148.589 64.0829 146.612 65.0699L163.084 66.4718Z" fill="#55F186"/>
<path d="M153.972 66.7056C153.827 66.688 153.688 66.6365 153.566 66.5554C153.444 66.4742 153.343 66.3656 153.271 66.2383C153.214 66.1327 153.18 66.0158 153.173 65.8959C153.166 65.776 153.186 65.656 153.23 65.5445C153.275 65.433 153.344 65.3326 153.431 65.2506C153.519 65.1686 153.624 65.107 153.738 65.0701C155.681 64.1186 157.396 62.7601 158.766 61.087C160.137 59.414 161.131 57.4654 161.682 55.3738C161.744 55.1569 161.89 54.9735 162.087 54.864C162.284 54.7544 162.517 54.7277 162.734 54.7897C162.951 54.8517 163.134 54.9972 163.243 55.1944C163.353 55.3916 163.38 55.6242 163.318 55.8411C162.714 58.1727 161.606 60.3435 160.072 62.2005C158.538 64.0574 156.615 65.5554 154.439 66.5887L153.972 66.7056Z" fill="#008D3C"/>
<path d="M157.01 66.1213L144.51 65.0699C140.421 63.668 138.435 60.5138 139.019 56.8923C139.603 53.2708 142.173 52.3363 145.444 52.5699C148.715 52.8036 150.584 55.7241 151.986 57.9437C155.024 63.0839 157.01 66.1213 157.01 66.1213Z" fill="#26CB7A"/>
<path d="M151.752 68.8084C151.662 68.8084 151.572 68.7873 151.491 68.7467C151.41 68.7062 151.339 68.6473 151.285 68.5747C147.196 65.5373 144.393 61.6822 143.692 57.9439C143.575 57.4766 143.808 57.0093 144.276 57.0093C144.383 56.9738 144.496 56.961 144.609 56.9716C144.722 56.9822 144.831 57.016 144.929 57.0709C145.028 57.1258 145.115 57.2006 145.183 57.2905C145.251 57.3804 145.3 57.4836 145.327 57.5934C145.678 59.2289 146.963 63.2009 152.336 67.1729C152.517 67.331 152.63 67.5527 152.652 67.792C152.674 68.0313 152.603 68.2698 152.453 68.4579C152.375 68.5703 152.27 68.6613 152.148 68.7226C152.025 68.7838 151.889 68.8133 151.752 68.8084Z" fill="#008D3C"/>
<path d="M125.234 71.0281L129.322 71.2617C129.487 71.2896 129.637 71.3756 129.744 71.5041C129.851 71.6327 129.909 71.7953 129.907 71.9626L128.388 87.7337C128.36 87.8987 128.274 88.0483 128.145 88.1554C128.017 88.2625 127.854 88.3201 127.687 88.3178L123.598 87.8505C122.411 87.6365 121.333 87.0204 120.546 86.1057C119.759 85.191 119.31 84.0334 119.276 82.8271C119.375 80.2416 119.648 77.6657 120.093 75.1168C120.317 73.9318 120.959 72.8667 121.903 72.116C122.846 71.3653 124.029 70.9792 125.234 71.0281Z" fill="#698EFF"/>
<path d="M124.416 74.0654H126.636C127.103 74.0654 127.336 74.5327 127.336 75L126.519 83.4112C126.52 83.5139 126.499 83.6157 126.457 83.7094C126.414 83.8031 126.352 83.8863 126.274 83.9532C126.196 84.0201 126.104 84.069 126.005 84.0964C125.906 84.1239 125.802 84.1292 125.701 84.1121L123.598 83.8784C123.175 83.7763 122.798 83.538 122.523 83.2003C122.249 82.8626 122.093 82.4442 122.079 82.0093C122.095 79.855 122.29 77.7058 122.664 75.5841C122.742 75.1706 122.958 74.7958 123.276 74.5201C123.594 74.2445 123.996 74.0843 124.416 74.0654Z" fill="#B7CCFF"/>
<path d="M124.65 77.8037C124.439 80.5244 124.4 83.2556 124.533 85.9812C124.722 88.0171 125.528 89.9466 126.844 91.5122C128.159 93.0778 129.92 94.2049 131.893 94.7429C135.164 95.6775 143.458 96.7289 149.299 97.1962C155.14 97.6635 163.435 98.2476 166.939 97.8971C168.982 97.7835 170.934 97.0191 172.511 95.7158C174.087 94.4125 175.205 92.6387 175.701 90.6541C176.397 88.0121 176.866 85.3154 177.103 82.5934C177.43 79.8793 177.469 77.1382 177.22 74.4158C177.063 72.3691 176.269 70.423 174.949 68.8512C173.629 67.2795 171.849 66.1613 169.86 65.6541C166.589 64.7196 158.295 63.6682 152.453 63.084C146.612 62.4999 138.318 62.0326 134.813 62.3831C132.777 62.5726 130.848 63.3787 129.282 64.6938C127.717 66.0089 126.59 67.7703 126.052 69.7429C125.334 72.3804 124.865 75.079 124.65 77.8037Z" fill="#698EFF"/>
<path d="M153.739 85.8644L145.094 85.0466C139.837 84.3457 138.318 82.1261 137.968 78.9719C137.604 76.3187 137.763 73.6202 138.435 71.028C138.503 70.4953 138.682 69.9828 138.959 69.5232C139.237 69.0636 139.608 68.6671 140.048 68.3592C140.488 68.0512 140.987 67.8386 141.514 67.7349C142.041 67.6312 142.584 67.6387 143.108 67.7569L157.711 69.042C158.806 69.1601 159.812 69.7036 160.511 70.5557C161.21 71.4078 161.547 72.5002 161.449 73.5981L160.865 79.3224C160.514 83.9953 157.944 86.2149 153.739 85.8644Z" fill="#B7CCFF"/>
<path d="M144.51 77.6869L142.64 77.4533C142.211 77.4162 141.783 77.5386 141.438 77.7973C141.093 78.0559 140.856 78.4325 140.771 78.8552C140.735 79.0834 140.751 79.3171 140.818 79.5382C140.886 79.7593 141.003 79.9621 141.161 80.1311C141.318 80.3002 141.513 80.4309 141.729 80.5135C141.945 80.596 142.176 80.6282 142.407 80.6075L144.276 80.8412C144.491 80.8741 144.71 80.8638 144.922 80.8109C145.133 80.758 145.331 80.6635 145.505 80.5329C145.679 80.4024 145.825 80.2384 145.935 80.0506C146.045 79.8628 146.117 79.655 146.145 79.4393C146.182 79.211 146.165 78.9774 146.098 78.7562C146.03 78.5351 145.913 78.3323 145.756 78.1633C145.598 77.9943 145.404 77.8635 145.188 77.781C144.972 77.6984 144.74 77.6662 144.51 77.6869Z" fill="#698EFF"/>
<path d="M153.271 78.3878H151.402C150.954 78.3193 150.497 78.427 150.126 78.6884C149.756 78.9498 149.501 79.3445 149.416 79.7897C149.415 80.2349 149.583 80.6638 149.887 80.9893C150.191 81.3147 150.607 81.5124 151.051 81.542L152.921 81.7757C153.381 81.8124 153.838 81.6776 154.205 81.3972C154.572 81.1168 154.821 80.7107 154.907 80.257C154.91 79.7992 154.746 79.356 154.444 79.0115C154.143 78.667 153.725 78.4451 153.271 78.3878Z" fill="#698EFF"/>
<path d="M166.121 77.9206C167.476 77.9206 168.575 76.8222 168.575 75.4673C168.575 74.1124 167.476 73.014 166.121 73.014C164.767 73.014 163.668 74.1124 163.668 75.4673C163.668 76.8222 164.767 77.9206 166.121 77.9206Z" fill="black"/>
<path d="M133.411 74.8831C134.766 74.8831 135.864 73.7847 135.864 72.4298C135.864 71.0749 134.766 69.9766 133.411 69.9766C132.056 69.9766 130.958 71.0749 130.958 72.4298C130.958 73.7847 132.056 74.8831 133.411 74.8831Z" fill="black"/>
<path d="M153.855 93.8084C153.147 93.9644 152.413 93.9616 151.706 93.8C150.999 93.6384 150.336 93.322 149.766 92.8738C148.715 92.1728 148.014 91.2383 148.248 90.4205C148.481 89.6028 155.491 87.3831 156.893 87.9672C157.176 88.1274 157.406 88.3686 157.551 88.66C157.697 88.9514 157.752 89.2797 157.71 89.6028C157.642 90.6379 157.223 91.619 156.522 92.3837C155.822 93.1484 154.881 93.651 153.855 93.8084Z" fill="#E9459D"/>
<path d="M156.892 87.9672C155.196 87.8176 153.486 88.0164 151.869 88.5513C151.71 89.0811 151.67 89.6397 151.752 90.1868C151.79 90.9279 152.013 91.6476 152.401 92.2803C152.789 92.9129 153.329 93.4383 153.972 93.8083C154.967 93.6085 155.871 93.0901 156.545 92.3313C157.219 91.5725 157.629 90.6147 157.71 89.6027C157.752 89.2797 157.697 88.9514 157.551 88.66C157.406 88.3686 157.176 88.1273 156.892 87.9672Z" fill="black"/>
<path d="M178.972 75.9345L174.883 75.4672C174.716 75.4649 174.553 75.5225 174.425 75.6296C174.296 75.7368 174.21 75.8863 174.182 76.0513L172.781 91.8224C172.778 91.9897 172.836 92.1523 172.943 92.2809C173.05 92.4094 173.2 92.4954 173.365 92.5233L177.453 92.757C178.658 92.8059 179.841 92.4197 180.784 91.669C181.728 90.9183 182.37 89.8532 182.594 88.6682C183.059 86.1244 183.293 83.5438 183.295 80.9579C183.282 79.7452 182.842 78.5759 182.051 77.6566C181.26 76.7374 180.169 76.1274 178.972 75.9345Z" fill="#698EFF"/>
<path d="M178.622 78.6213L176.519 78.3877C176.418 78.3705 176.314 78.3759 176.215 78.4034C176.116 78.4308 176.024 78.4797 175.946 78.5466C175.868 78.6135 175.805 78.6967 175.763 78.7904C175.721 78.884 175.7 78.9859 175.701 79.0886L174.883 87.4998C174.883 87.9671 175.117 88.4344 175.584 88.4344H177.687C178.145 88.438 178.588 88.2735 178.933 87.972C179.277 87.6705 179.499 87.2531 179.556 86.7989C179.93 84.6772 180.125 82.5279 180.14 80.3737C180.087 79.9649 179.914 79.5808 179.644 79.2692C179.374 78.9577 179.019 78.7324 178.622 78.6213Z" fill="#B7CCFF"/>
<path d="M153.855 93.8083C153.147 93.9643 152.413 93.9615 151.706 93.7999C150.999 93.6383 150.337 93.322 149.767 92.8737C151.036 91.757 152.502 90.8856 154.089 90.3036C155.26 89.9128 156.478 89.6771 157.71 89.6027C157.643 90.6378 157.224 91.6189 156.523 92.3836C155.822 93.1483 154.881 93.6509 153.855 93.8083Z" fill="#FFADD6"/>
<path d="M196.963 61.7989C196.226 61.3462 195.602 60.7327 195.137 60.0043C194.671 59.276 194.377 58.4517 194.276 57.5933L193.808 54.5559C193.808 54.4391 193.692 54.3223 193.458 54.3223L193.224 54.5559L192.757 57.5933C192.635 58.4595 192.319 59.2871 191.834 60.0151C191.348 60.743 190.706 61.3526 189.953 61.7989L189.603 62.0325C189.486 62.1494 189.486 62.1494 189.486 62.2662C189.481 62.3295 189.488 62.3932 189.508 62.4535C189.528 62.5137 189.561 62.5692 189.603 62.6167L189.953 62.8503C190.706 63.2966 191.348 63.9062 191.834 64.6341C192.319 65.3621 192.635 66.1897 192.757 67.0559L193.224 70.0933L193.458 70.3269C193.692 70.3269 193.808 70.2101 193.808 70.0933L194.276 67.0559C194.377 66.1975 194.671 65.3732 195.137 64.6449C195.602 63.9165 196.226 63.303 196.963 62.8503L197.313 62.6167L197.547 62.2662C197.547 62.1494 197.43 62.1494 197.313 62.0325L196.963 61.7989Z" fill="#FD78B7"/>
<path d="M84.1122 127.57C83.367 127.087 82.7321 126.453 82.2489 125.708C81.7658 124.963 81.4453 124.125 81.3084 123.248L80.8412 120.327C80.8412 120.093 80.7243 120.093 80.6075 120.093C80.3739 120.093 80.2571 120.093 80.2571 120.327L79.7898 123.248C79.6737 124.117 79.3742 124.952 78.911 125.698C78.4477 126.443 77.8314 127.081 77.1029 127.57L76.7524 127.804C76.6904 127.804 76.631 127.828 76.5872 127.872C76.5434 127.916 76.5187 127.975 76.5187 128.037C76.5187 128.099 76.5434 128.159 76.5872 128.203C76.631 128.246 76.6904 128.271 76.7524 128.271L77.1029 128.505C77.8421 128.982 78.4665 129.617 78.9311 130.364C79.3956 131.112 79.6889 131.953 79.7898 132.827L80.2571 135.748C80.2571 135.864 80.3739 135.981 80.6075 135.981L80.8412 135.748L81.3084 132.827C81.4305 131.945 81.7449 131.101 82.2294 130.354C82.7139 129.607 83.3567 128.976 84.1122 128.505L84.4626 128.271C84.5795 128.271 84.5795 128.154 84.5795 128.037C84.5795 127.92 84.5795 127.804 84.4626 127.804L84.1122 127.57Z" fill="white"/>
<path d="M219.86 131.075C218.749 130.357 217.8 129.415 217.076 128.308C216.352 127.201 215.867 125.955 215.654 124.65L215.07 120.094C214.953 119.86 214.837 119.743 214.603 119.743C214.369 119.743 214.136 119.86 214.136 120.094L213.435 124.65C213.268 125.97 212.802 127.234 212.073 128.348C211.345 129.461 210.372 130.394 209.229 131.075L208.645 131.425C208.528 131.542 208.528 131.659 208.528 131.893C208.523 131.956 208.53 132.02 208.55 132.08C208.571 132.14 208.603 132.196 208.645 132.243L209.229 132.594C210.364 133.312 211.328 134.27 212.055 135.4C212.781 136.53 213.252 137.805 213.435 139.136L214.136 143.575C214.136 143.699 214.185 143.818 214.272 143.905C214.36 143.993 214.479 144.042 214.603 144.042C214.837 144.042 214.953 143.809 215.07 143.575L215.654 139.136C215.879 137.818 216.367 136.56 217.09 135.436C217.813 134.312 218.755 133.345 219.86 132.594L220.444 132.243L220.678 131.893C220.678 131.802 220.657 131.713 220.616 131.631C220.575 131.55 220.517 131.48 220.444 131.425L219.86 131.075Z" fill="#66BCFF"/>
<path d="M149.94 33.419L149.607 35.975C149.601 36.005 149.598 36.047 149.598 36.101C149.598 36.365 149.703 36.497 149.913 36.497C150.093 36.497 150.261 36.419 150.417 36.263C150.579 36.107 150.705 35.894 150.795 35.624C150.891 35.348 150.939 35.042 150.939 34.706C150.939 34.202 150.831 33.761 150.615 33.383C150.399 33.005 150.096 32.714 149.706 32.51C149.316 32.306 148.869 32.204 148.365 32.204C147.789 32.204 147.267 32.339 146.799 32.609C146.337 32.873 145.971 33.254 145.701 33.752C145.431 34.244 145.296 34.82 145.296 35.48C145.296 36.02 145.392 36.509 145.584 36.947C145.776 37.379 146.082 37.727 146.502 37.991C146.928 38.249 147.468 38.378 148.122 38.378C148.548 38.378 148.95 38.327 149.328 38.225C149.712 38.123 150.03 37.997 150.282 37.847L150.597 38.567C150.285 38.765 149.901 38.918 149.445 39.026C148.989 39.134 148.524 39.188 148.05 39.188C147.24 39.188 146.562 39.023 146.016 38.693C145.47 38.369 145.065 37.928 144.801 37.37C144.537 36.806 144.405 36.173 144.405 35.471C144.405 34.637 144.579 33.914 144.927 33.302C145.281 32.684 145.758 32.213 146.358 31.889C146.958 31.559 147.621 31.394 148.347 31.394C149.013 31.394 149.607 31.532 150.129 31.808C150.651 32.078 151.056 32.462 151.344 32.96C151.632 33.452 151.776 34.016 151.776 34.652C151.776 35.156 151.689 35.606 151.515 36.002C151.347 36.392 151.11 36.698 150.804 36.92C150.498 37.136 150.15 37.244 149.76 37.244C149.514 37.244 149.316 37.181 149.166 37.055C149.016 36.929 148.926 36.767 148.896 36.569C148.788 36.773 148.62 36.938 148.392 37.064C148.164 37.184 147.912 37.244 147.636 37.244C147.21 37.244 146.868 37.088 146.61 36.776C146.358 36.464 146.232 36.032 146.232 35.48C146.232 35.054 146.307 34.676 146.457 34.346C146.613 34.016 146.826 33.761 147.096 33.581C147.366 33.395 147.675 33.302 148.023 33.302C148.287 33.302 148.506 33.356 148.68 33.464C148.854 33.572 148.986 33.716 149.076 33.896L149.229 33.419H149.94ZM147.861 36.479C148.155 36.479 148.398 36.35 148.59 36.092C148.782 35.834 148.878 35.501 148.878 35.093C148.878 34.763 148.812 34.511 148.68 34.337C148.548 34.157 148.362 34.067 148.122 34.067C147.828 34.067 147.585 34.196 147.393 34.454C147.201 34.706 147.105 35.036 147.105 35.444C147.105 35.774 147.168 36.029 147.294 36.209C147.426 36.389 147.615 36.479 147.861 36.479ZM154.424 39.836C153.806 39.836 153.317 39.725 152.957 39.503C152.597 39.287 152.417 38.978 152.417 38.576C152.417 38.216 152.585 37.94 152.921 37.748C152.729 37.574 152.633 37.349 152.633 37.073C152.633 36.689 152.822 36.404 153.2 36.218C153.056 36.086 152.945 35.927 152.867 35.741C152.795 35.555 152.759 35.357 152.759 35.147C152.759 34.709 152.906 34.349 153.2 34.067C153.5 33.785 153.905 33.644 154.415 33.644C154.757 33.644 155.048 33.722 155.288 33.878L155.972 33.086L156.575 33.734L155.819 34.337C155.975 34.577 156.053 34.847 156.053 35.147C156.053 35.585 155.906 35.945 155.612 36.227C155.318 36.509 154.916 36.65 154.406 36.65C154.142 36.65 153.896 36.602 153.668 36.506C153.518 36.608 153.443 36.731 153.443 36.875C153.443 37.007 153.491 37.109 153.587 37.181C153.689 37.247 153.851 37.28 154.073 37.28H155.216C155.552 37.28 155.843 37.37 156.089 37.55C156.335 37.724 156.458 37.991 156.458 38.351C156.458 38.831 156.275 39.197 155.909 39.449C155.549 39.707 155.054 39.836 154.424 39.836ZM154.406 35.93C154.634 35.93 154.811 35.861 154.937 35.723C155.069 35.579 155.135 35.387 155.135 35.147C155.135 34.907 155.069 34.718 154.937 34.58C154.811 34.436 154.637 34.364 154.415 34.364C154.187 34.364 154.007 34.436 153.875 34.58C153.743 34.718 153.677 34.907 153.677 35.147C153.677 35.387 153.74 35.579 153.866 35.723C153.998 35.861 154.178 35.93 154.406 35.93ZM154.424 39.116C155.198 39.116 155.585 38.9 155.585 38.468C155.585 38.336 155.54 38.237 155.45 38.171C155.36 38.105 155.24 38.072 155.09 38.072H153.929C153.731 38.072 153.566 38.051 153.434 38.009C153.332 38.123 153.281 38.261 153.281 38.423C153.281 38.645 153.377 38.816 153.569 38.936C153.767 39.056 154.052 39.116 154.424 39.116ZM157.418 38V33.77H158.3L158.408 34.382C158.534 34.136 158.69 33.953 158.876 33.833C159.062 33.707 159.299 33.644 159.587 33.644C159.785 33.644 159.935 33.671 160.037 33.725V34.67C159.851 34.586 159.647 34.544 159.425 34.544C159.209 34.544 159.014 34.61 158.84 34.742C158.666 34.874 158.522 35.057 158.408 35.291V38H157.418ZM161.911 38.126C161.533 38.126 161.218 38.015 160.966 37.793C160.714 37.571 160.588 37.259 160.588 36.857C160.588 35.909 161.452 35.426 163.18 35.408V35.282C163.18 35.024 163.105 34.823 162.955 34.679C162.805 34.535 162.595 34.463 162.325 34.463C162.133 34.463 161.935 34.505 161.731 34.589C161.533 34.667 161.347 34.787 161.173 34.949L160.687 34.328C160.891 34.112 161.14 33.944 161.434 33.824C161.728 33.704 162.043 33.644 162.379 33.644C163.573 33.644 164.17 34.19 164.17 35.282V38H163.261L163.18 37.469C163.066 37.643 162.898 37.796 162.676 37.928C162.46 38.06 162.205 38.126 161.911 38.126ZM162.163 37.334C162.553 37.334 162.892 37.145 163.18 36.767V36.065C162.628 36.083 162.22 36.155 161.956 36.281C161.692 36.401 161.56 36.578 161.56 36.812C161.56 36.98 161.614 37.109 161.722 37.199C161.83 37.289 161.977 37.334 162.163 37.334ZM166.992 39.836C166.374 39.836 165.885 39.725 165.525 39.503C165.165 39.287 164.985 38.978 164.985 38.576C164.985 38.216 165.153 37.94 165.489 37.748C165.297 37.574 165.201 37.349 165.201 37.073C165.201 36.689 165.39 36.404 165.768 36.218C165.624 36.086 165.513 35.927 165.435 35.741C165.363 35.555 165.327 35.357 165.327 35.147C165.327 34.709 165.474 34.349 165.768 34.067C166.068 33.785 166.473 33.644 166.983 33.644C167.325 33.644 167.616 33.722 167.856 33.878L168.54 33.086L169.143 33.734L168.387 34.337C168.543 34.577 168.621 34.847 168.621 35.147C168.621 35.585 168.474 35.945 168.18 36.227C167.886 36.509 167.484 36.65 166.974 36.65C166.71 36.65 166.464 36.602 166.236 36.506C166.086 36.608 166.011 36.731 166.011 36.875C166.011 37.007 166.059 37.109 166.155 37.181C166.257 37.247 166.419 37.28 166.641 37.28H167.784C168.12 37.28 168.411 37.37 168.657 37.55C168.903 37.724 169.026 37.991 169.026 38.351C169.026 38.831 168.843 39.197 168.477 39.449C168.117 39.707 167.622 39.836 166.992 39.836ZM166.974 35.93C167.202 35.93 167.379 35.861 167.505 35.723C167.637 35.579 167.703 35.387 167.703 35.147C167.703 34.907 167.637 34.718 167.505 34.58C167.379 34.436 167.205 34.364 166.983 34.364C166.755 34.364 166.575 34.436 166.443 34.58C166.311 34.718 166.245 34.907 166.245 35.147C166.245 35.387 166.308 35.579 166.434 35.723C166.566 35.861 166.746 35.93 166.974 35.93ZM166.992 39.116C167.766 39.116 168.153 38.9 168.153 38.468C168.153 38.336 168.108 38.237 168.018 38.171C167.928 38.105 167.808 38.072 167.658 38.072H166.497C166.299 38.072 166.134 38.051 166.002 38.009C165.9 38.123 165.849 38.261 165.849 38.423C165.849 38.645 165.945 38.816 166.137 38.936C166.335 39.056 166.62 39.116 166.992 39.116ZM171.606 39.836C170.988 39.836 170.499 39.725 170.139 39.503C169.779 39.287 169.599 38.978 169.599 38.576C169.599 38.216 169.767 37.94 170.103 37.748C169.911 37.574 169.815 37.349 169.815 37.073C169.815 36.689 170.004 36.404 170.382 36.218C170.238 36.086 170.127 35.927 170.049 35.741C169.977 35.555 169.941 35.357 169.941 35.147C169.941 34.709 170.088 34.349 170.382 34.067C170.682 33.785 171.087 33.644 171.597 33.644C171.939 33.644 172.23 33.722 172.47 33.878L173.154 33.086L173.757 33.734L173.001 34.337C173.157 34.577 173.235 34.847 173.235 35.147C173.235 35.585 173.088 35.945 172.794 36.227C172.5 36.509 172.098 36.65 171.588 36.65C171.324 36.65 171.078 36.602 170.85 36.506C170.7 36.608 170.625 36.731 170.625 36.875C170.625 37.007 170.673 37.109 170.769 37.181C170.871 37.247 171.033 37.28 171.255 37.28H172.398C172.734 37.28 173.025 37.37 173.271 37.55C173.517 37.724 173.64 37.991 173.64 38.351C173.64 38.831 173.457 39.197 173.091 39.449C172.731 39.707 172.236 39.836 171.606 39.836ZM171.588 35.93C171.816 35.93 171.993 35.861 172.119 35.723C172.251 35.579 172.317 35.387 172.317 35.147C172.317 34.907 172.251 34.718 172.119 34.58C171.993 34.436 171.819 34.364 171.597 34.364C171.369 34.364 171.189 34.436 171.057 34.58C170.925 34.718 170.859 34.907 170.859 35.147C170.859 35.387 170.922 35.579 171.048 35.723C171.18 35.861 171.36 35.93 171.588 35.93ZM171.606 39.116C172.38 39.116 172.767 38.9 172.767 38.468C172.767 38.336 172.722 38.237 172.632 38.171C172.542 38.105 172.422 38.072 172.272 38.072H171.111C170.913 38.072 170.748 38.051 170.616 38.009C170.514 38.123 170.463 38.261 170.463 38.423C170.463 38.645 170.559 38.816 170.751 38.936C170.949 39.056 171.234 39.116 171.606 39.116ZM175.779 38.108C174.993 38.108 174.6 37.67 174.6 36.794V31.43H175.59V36.713C175.59 36.899 175.62 37.034 175.68 37.118C175.746 37.196 175.851 37.235 175.995 37.235C176.127 37.235 176.229 37.208 176.301 37.154V38C176.169 38.072 175.995 38.108 175.779 38.108ZM178.952 38.126C178.52 38.126 178.142 38.036 177.818 37.856C177.494 37.676 177.242 37.418 177.062 37.082C176.888 36.746 176.801 36.347 176.801 35.885C176.801 35.423 176.891 35.024 177.071 34.688C177.251 34.346 177.494 34.088 177.8 33.914C178.112 33.734 178.457 33.644 178.835 33.644C179.453 33.644 179.927 33.839 180.257 34.229C180.587 34.613 180.752 35.129 180.752 35.777C180.752 35.855 180.746 35.978 180.734 36.146H177.782C177.83 36.512 177.956 36.8 178.16 37.01C178.37 37.214 178.643 37.316 178.979 37.316C179.213 37.316 179.42 37.271 179.6 37.181C179.78 37.085 179.945 36.947 180.095 36.767L180.671 37.379C180.455 37.631 180.212 37.82 179.942 37.946C179.672 38.066 179.342 38.126 178.952 38.126ZM179.852 35.426C179.828 35.096 179.726 34.85 179.546 34.688C179.366 34.526 179.126 34.445 178.826 34.445C178.55 34.445 178.322 34.532 178.142 34.706C177.968 34.874 177.854 35.114 177.8 35.426H179.852Z" fill="#F3F4F5"/>
</svg>
