<svg height="22" viewBox="0 0 32 22" width="32" xmlns="http://www.w3.org/2000/svg"><g fill="none"><rect fill="#f6f6f7" height="22" rx="2" width="32"/><path d="m21.5641806 7.36345806c.1847742-1.17780645-.0015483-1.97935483-.6384516-2.70554838-.7014193-.79896774-1.9685161-1.14167742-3.5896774-1.14167742h-4.7065806c-.3313549 0-.6131613.24103226-.6647742.56877419l-1.959742 12.42632255c-.03870964.2451613.1507097.4670968.3989678.4670968h2.9052903l-.2002581 1.2717419c-.0340645.2141936.1316129.4082581.3489033.4082581h2.4490322c.2895484 0 .5367742-.2105806.5816774-.4970323l.0242581-.124387.4609032-2.9254194.0299355-.1615484c.0454194-.2864516.292129-.4975484.5816774-.4975484h.3664516c2.3726452 0 4.2301936-.9636129 4.7731613-3.7512258.2265807-1.16490321.1094194-2.13729031-.4903225-2.82064515-.1816775-.20696774-.4072258-.37780645-.6704517-.51716129" fill="#009ddc"/><path d="m21.5641806 7.36345806c.1847742-1.17780645-.0015483-1.97935483-.6384516-2.70554838-.7014193-.79896774-1.9685161-1.14167742-3.5896774-1.14167742h-4.7065806c-.3313549 0-.6131613.24103226-.6647742.56877419l-1.959742 12.42632255c-.03870964.2451613.1507097.4670968.3989678.4670968h2.9052903l.7298065-4.6276129-.0227097.1450323c.0516129-.3272258.3313548-.5687742.6627097-.5687742h1.3811612c2.711742 0 4.8356129-1.1014194 5.456-4.28800003.0180646-.09445162.0340646-.18580645.048-.27561291" fill="#211d6f"/><path d="m14.8232774 7.37904516c.0309678-.19664516.1574194-.35819355.327742-.43974193.0769032-.03716129.1636129-.05780646.2539354-.05780646h3.6892904c.4371613 0 .8443871.02890323 1.2170322.0887742.1063226.01703226.2100645.03716129.3107097.05935484.1006452.02219354.1981935.04696774.2926452.07483871.0474838.01393548.0939354.02838709.1398709.04335483.1827097.06090323.3530323.13264517.5099355.21574194.1847742-1.17832258-.0015484-1.97935484-.6384516-2.70554839-.7014194-.79948387-1.9685161-1.14167742-3.5901936-1.14167742h-4.7060645c-.3313548 0-.6131613.24103226-.6647742.56825807l-1.9597419 12.42683875c-.03870967.2451612.1507097.4670967.3989677.4670967h2.9052904l.7298064-4.628129z" fill="#1c3587"/></g></svg>