<svg height="93" viewBox="0 0 144 93" width="144" xmlns="http://www.w3.org/2000/svg"><g fill="none" fill-rule="evenodd"><path d="m59.456 53.148-30.567-25.503v49.744z" fill="#acb0ff"/><path d="m16.888 23.601 3.23-5.363h-6.46z" fill="#7b80d6"/><path d="m32.7544 28.4247 28.14 23.319 11.717 9.711c.741.614 1.813.614 2.553 0l25.125-20.823c-1.617-2.499-2.567-5.47-2.567-8.662 0-1.538.23-3.022.637-4.43h-65.286c-.467 0-.679.586-.319.885" fill="#fff"/><path d="m101.9224 59.5253 13.553-4.913c.329-.119.591-.358.739-.676.148-.316.164-.672.045-1l-1.814-5.003c-.241.011-.479.036-.723.036-4.911 0-9.309-2.228-12.246-5.722l-11.223 9.3c-.98.813-.962 2.323.039 3.111l8.828 6.951c.689-.923 1.641-1.663 2.802-2.084" fill="#acb0ff"/><path d="m98.2652 67.3436c-.476-1.312-.466-2.682-.072-3.92l-11.406-8.979c-.004-.005-.006-.011-.011-.015l-12.25 10.152c-.185.154-.411.23-.638.23s-.453-.076-.638-.23l-10.976-9.097c-.726-.601-1.773-.615-2.513-.033l-23.437 18.423c-1.494 1.174-.663 3.573 1.236 3.573h64.368z" fill="#d3d6ed"/><path d="m99.7222 31.9696c0 7.72 6.28 14 14 14 .004 0 .008-.001.012-.001l-1.371-3.78c-.871-2.403.375-5.066 2.778-5.938 2.401-.868 5.066.376 5.936 2.779l1.397 3.85c3.195-2.568 5.248-6.501 5.248-10.91 0-7.72-6.28-14-14-14s-14 6.28-14 14" fill="#ff4343"/><path d="m22.888 63.43h14v-5h-14z" fill="#fff"/><path d="m16.8882 23.6014-3.23-5.363h6.46zm5.871-6.855c-.178-.314-.511-.508-.871-.508h-10c-.36 0-.693.194-.87.508-.178.314-.172.699.014 1.007l5 8.302c.18.301.505.484.856.484s.676-.183.856-.484l5-8.302c.187-.308.192-.693.015-1.007z" fill="#000"/><path d="m7.3921 29.7577-1.184 1.184c-.39.39-.39 1.024 0 1.414.196.195.452.293.707.293.256 0 .513-.098.707-.293l1.184-1.184c.391-.391.391-1.023 0-1.414s-1.024-.391-1.414 0m-5.916 5.917-1.184 1.183c-.39.39-.39 1.023 0 1.414.196.195.452.293.707.293.256 0 .512-.098.707-.293l1.184-1.183c.391-.391.391-1.023 0-1.414s-1.023-.391-1.414 0m6.1465 0c-.391-.391-1.023-.391-1.414 0s-.391 1.023 0 1.414l1.184 1.183c.195.195.451.293.707.293.255 0 .511-.098.707-.293.39-.391.39-1.024 0-1.414zm-5.916-5.917c-.391-.391-1.023-.391-1.414 0s-.391 1.023 0 1.414l1.184 1.184c.195.195.451.293.707.293.255 0 .511-.098.707-.293.39-.39.39-1.024 0-1.414z" fill="#fff"/><path d="m92.7017 5.5096c.834 0 1.51.676 1.51 1.51v.001c0 .552.448 1 1 1 .553 0 1-.448 1-1v-.001c0-.834.676-1.51 1.51-1.51h.001c.551 0 1-.447 1-1 0-.552-.449-1-1-1h-.001c-.834 0-1.51-.676-1.51-1.51 0-.552-.447-1-1-1-.552 0-1 .448-1 1 0 .834-.676 1.51-1.51 1.51-.552 0-1 .448-1 1 0 .553.448 1 1 1" fill="#000"/><path d="m132.1763 90.8866-2.952-7.933c-.349-.963.029-2.042.897-2.574 2.044-1.256 3.611-3.193 4.409-5.456l6.378-18.145c.611-1.748-.316-3.67-2.066-4.281-1.751-.614-3.672.316-4.282 2.066l-2.46 7.133c-.302.865-.839 1.621-1.553 2.189-.465.368-1.06.488-1.636.322-.581-.164-1.049-.599-1.255-1.166l-8.459-23.331c-.495-1.366-2.01-2.078-3.375-1.579-1.366.495-2.075 2.01-1.58 3.375l3.897 10.748c.302.83.262 1.729-.113 2.529-.374.801-1.038 1.408-1.87 1.709l-13.552 4.914c-2.127.771-3.231 3.128-2.459 5.255l4.371 12.058c1.676 4.623 6.249 7.446 11.123 6.851.97-.112 1.906.475 2.243 1.405l1.417 3.911z" fill="#fff"/><g fill="#000"><path d="m129.4468 90.8866h-8.817c-.798 0-1.511-.5-1.784-1.25l-.963-2.661c-.337-.93-1.274-1.517-2.244-1.405-4.874.595-9.447-2.228-11.123-6.851l-4.371-12.058c-.772-2.129.328-4.483 2.459-5.255l13.438-4.872c.66-.239 1.266-.64 1.672-1.213.65-.919.796-2.045.425-3.067l-3.855-10.637c-.436-1.201-.029-2.6 1.066-3.259 1.468-.884 3.294-.174 3.848 1.352l8.459 23.331c.205.567.674 1.002 1.255 1.166.575.166 1.171.046 1.636-.322.713-.568 1.251-1.324 1.552-2.189l2.46-7.133c.611-1.75 2.532-2.68 4.283-2.066 1.75.611 2.676 2.533 2.066 4.281l-6.379 18.145c-.798 2.263-2.364 4.2-4.408 5.456-.868.532-1.246 1.611-.898 2.574l2 5.375c.462 1.24-.455 2.558-1.777 2.558zm-30.991-13.439h-60.896c-1.899 0-2.729-2.399-1.236-3.573l23.437-18.423c.742-.582 1.788-.568 2.513.033l10.977 9.096c.184.155.411.231.637.231.227 0 .454-.076.638-.231l12.25-10.151c.005.004.007.011.012.015l11.405 8.979c-.393 1.238-.403 2.608.072 3.92l2.48 6.839c.575 1.588-.601 3.265-2.289 3.265zm-65.7-49.023c-.362-.299-.15-.885.318-.885h65.286c-.407 1.409-.638 2.892-.638 4.43 0 3.192.951 6.163 2.568 8.662h.001l-25.126 20.823c-.74.614-1.813.614-2.552 0l-11.719-9.711zm81.69 19.508 1.813 5.004c.12.328.104.683-.044 1-.149.317-.411.556-.74.676l-13.552 4.913c-1.161.421-2.114 1.161-2.802 2.084l-8.828-6.951v-.001c-1.001-.788-1.02-2.297-.039-3.11l11.222-9.301c2.938 3.494 7.335 5.723 12.246 5.723.245 0 .483-.025.724-.037zm-.724-29.963c7.72 0 14 6.28 14 14 0 4.408-2.052 8.342-5.248 10.91l-1.396-3.85c-.87-2.403-3.535-3.647-5.937-2.779-2.403.872-3.649 3.535-2.778 5.938l1.371 3.781h-.012c-7.719 0-14-6.28-14-14s6.281-14 14-14zm-90.834 45.46h14v-5h-14zm119.209 27.457h-6.113c-1.007 0-1.907-.626-2.258-1.568l-2.625-7.054c.024-.067.039-.11.063-.177 2.435-1.496 4.302-3.804 5.253-6.499l6.38-18.149c.974-2.792-.504-5.856-3.295-6.83-2.794-.973-5.856.505-6.831 3.298l-2.46 7.133c-.152.435-.407.824-.741 1.135l-6.285-17.334c4.587-3.382 7.326-9.13 6.335-15.441-1.059-6.744-6.465-12.161-13.209-13.226-7.608-1.201-14.425 3.006-17.229 9.365h-70.194c-.551 0-1 .448-1 1v25.801c0 .553.449 1 1 1 .553 0 1-.447 1-1v-21.134c0-.664.539-1.204 1.205-1.204.281 0 .552.099.768.278l9.306 7.711 16.381 13.576c.981.813.961 2.325-.04 3.112l-1.368 1.075-24.306 19.106c-.212.167-.474.256-.743.256-.665 0-1.203-.538-1.203-1.202v-8.485h8c.553 0 1-.447 1-1v-7c0-.553-.447-1-1-1h-16c-.551 0-1 .447-1 1v7c0 .553.449 1 1 1h6v13.018c0 .122.03.236.071.346.011.031.025.06.04.09.04.082.091.156.151.225.018.018.03.04.049.057.074.072.157.134.252.181.01.005.02.005.03.01.024.009.048.014.072.023.093.033.188.052.284.057.018.001.034.011.051.011h73.767c2.008 5.473 7.434 8.802 13.225 8.109.029-.014.098.035.123.101.569 1.57-.594 3.229-2.265 3.229h-7.644c-.552 0-1 .447-1 1s.448 1 1 1h36.003c.553 0 1-.447 1-1s-.447-1-1-1z"/><path d="m101.271 90.8866h-1.693c-.552 0-1 .447-1 1s.448 1 1 1h1.693c.552 0 1-.447 1-1s-.448-1-1-1"/></g></g></svg>