<svg fill="none" height="94" viewBox="0 0 113 94" width="113" xmlns="http://www.w3.org/2000/svg" xmlns:xlink="http://www.w3.org/1999/xlink"><linearGradient id="a" gradientUnits="userSpaceOnUse" x1="82.1672" x2="66.579" y1="59.5792" y2="75.089"><stop offset="0" stop-color="#dae1ea"/><stop offset="1" stop-color="#becbd8"/></linearGradient><path d="m57.0068 93.337c23.839 0 43.1642-19.4057 43.1642-43.3439s-19.3252-43.34391-43.1642-43.34391-43.1643 19.40571-43.1643 43.34391 19.3253 43.3439 43.1643 43.3439z" fill="#718ef7"/><g fill="#f7e080"><path d="m77.486 27.9173-7.9267-7.9597-4.8959 4.9163 7.9267 7.9597z"/><path d="m77.49 27.9073-7.9268-7.9597 5.3166-.3725 2.9811 2.9935z"/><path d="m70.5113 10.029c.8118.0034 1.6045.2475 2.2786.7016.6742.4541 1.1998 1.098 1.5109 1.851.311.7529.3938 1.5813.2377 2.3813-.156.8-.5438 1.5359-1.1148 2.1153-.7813.731-1.8146 1.129-2.8823 1.1101s-2.0865-.4532-2.8416-1.2115c-.7551-.7582-1.1876-1.7812-1.2064-2.8533-.0189-1.0722.3775-2.1098 1.1054-2.8944.7745-.7712 1.8218-1.2028 2.9125-1.2001zm0-5.24213c-2.161-.00212-4.2558.74812-5.9277 2.12293-1.672 1.3748-2.8175 3.2891-3.2416 5.4169-.424 2.1277-.1003 4.3373.9159 6.2523 1.0163 1.915 2.6623 3.417 4.6576 4.2502 1.9954.8331 4.2166.9458 6.2855.3189 2.0688-.6269 3.8572-1.9546 5.0605-3.757s1.7472-3.968 1.5389-6.1278c-.2083-2.1599-1.1559-4.18039-2.6812-5.71743-.8659-.87464-1.8955-1.56869-3.0296-2.04219-1.134-.4735-2.3502-.71711-3.5783-.71681z"/><path d="m83.3011 22.8721c1.0926.001 2.1402.4377 2.9124 1.214.6738.6775 1.0929 1.5686 1.1857 2.5216s-.1463 1.9088-.6766 2.7045c-.5303.7958-1.319 1.3823-2.2316 1.6596-.9127.2773-1.8929.2282-2.7736-.1389s-1.6074-1.0294-2.0562-1.8742-.5921-1.8198-.4053-2.7588c.1868-.9389.6921-1.7838 1.4297-2.3906s1.6619-.938 2.6155-.9372zm0-5.2421c-2.161-.0021-4.2558.7482-5.9278 2.123-1.6719 1.3748-2.8174 3.2891-3.2415 5.4169-.424 2.1277-.1003 4.3373.9159 6.2523 1.0163 1.915 2.6623 3.417 4.6576 4.2501 1.9954.8331 4.2166.9458 6.2854.319 2.0689-.6269 3.8572-1.9547 5.0606-3.7571 1.2033-1.8023 1.7472-3.9679 1.5389-6.1277-.2083-2.1599-1.1559-4.1804-2.6812-5.7175-.8641-.8771-1.8933-1.5727-3.0278-2.0464s-2.3515-.7159-3.5801-.7126z"/><path d="m88.0131 5.24213c1.0927.00097 2.1403.43762 2.9125 1.21396.5709.57947.9587 1.31535 1.1148 2.11533.156.79997.0733 1.62838-.2378 2.38138-.3111.7529-.8367 1.3968-1.5108 1.8509-.6742.4542-1.4669.6982-2.2787.7016-.8118-.0034-1.6045-.2474-2.2786-.7016-.6742-.4541-1.1998-1.098-1.5109-1.8509-.311-.753-.3938-1.58141-.2377-2.38138.156-.79998.5438-1.53586 1.1148-2.11533.7722-.77634 1.8197-1.21299 2.9124-1.21396zm0-5.24209858c-1.256-.04839252-2.5088.15823258-3.6834.60750358-1.1746.449275-2.2468 1.131945-3.1525 2.007145-.9056.87521-1.6261 1.92493-2.1182 3.08633s-.7458 2.41057-.7458 3.67273.2537 2.51136.7458 3.67276 1.2126 2.2111 2.1182 3.0863c.9057.8752 1.9779 1.5579 3.1525 2.0071 1.1746.4493 2.4274.6559 3.6834.6075 1.8415-.0072 3.6398-.5607 5.1689-1.5911s2.7209-2.4916 3.4255-4.2001c.7046-1.7084.8907-3.58785.5348-5.40215s-1.2378-3.48251-2.535-4.79502c-.8624-.87545-1.8895-1.57016-3.0214-2.043788-1.132-.473625-2.3464-.7167335-3.5728-.71521058z"/></g><path d="m81.3536 60.3205-14.8432 14.905c-2.5171 2.5275-5.931 3.9475-9.4907 3.9475s-6.9736-1.42-9.4907-3.9475l-9.8695-9.9107 34.8445-34.9895 8.8496 8.8864c2.7876 2.7992 4.3536 6.5957 4.3536 10.5544s-1.566 7.7552-4.3536 10.5544z" fill="#ebf0f7"/><path d="m53.6687 46.0339 14.095-2.4279-.261 3.6833c-.5092 5.0069.1251 10.0644 1.8546 14.7882.876 2.1774 1.0943 4.5654.6277 6.8665-.4666 2.301-1.5975 4.4133-3.2516 6.0733l-1.2913 1.3795c-2.2331 2.2382-5.2593 3.4953-8.4145 3.4953-3.1551 0-6.1813-1.2571-8.4144-3.4953l-12.5426-12.6087z" fill="#b2c1d1"/><path d="m72.5583 32.8321-7.8993-8.0011-51.4757 51.7313 7.3773 7.4079c.1465.1449.3438.2261.5495.2261.2056 0 .403-.0812.5495-.2261z" fill="#f7e080"/><path d="m29.3252 63.3329-14.6583 14.7193-14.259848-14.3193c-.212245-.2145-.3313684-.5046-.3313684-.807 0-.3023.1191234-.5925.3313684-.807l3.681738-3.697c.25589-.2628.56148-.4716.89883-.6142.33736-.1425.69968-.2159 1.06568-.2159.36601 0 .72833.0734 1.06568.2159.33736.1426.64295.3514.89883.6142l.34345.331c.33467.366.57382.8096.69608 1.291.12227.4815.12383.9858.00455 1.4681-.21625 1.0428-.08899 2.1279.36258 3.0917.45157.9639 1.20293 1.7542 2.14093 2.2517.9379.4976 2.0115.6754 3.0589.5068 1.0474-.1687 2.0117-.6747 2.7477-1.4418.7359-.7672 1.2036-1.7538 1.3323-2.8111.1288-1.0573-.0882-2.1279-.6183-3.0506-.5302-.9226-1.3447-1.6471-2.3207-2.0643s-2.0607-.5044-3.0904-.2485c-.4214.1244-.8681.135-1.295.0309-.4269-.1042-.8189-.3194-1.1366-.6241l-.75554-.7587c-.44881-.4525-.70081-1.0651-.70081-1.7037s.252-1.2512.70081-1.7037l3.99774-3.9729c.1046-.1051.2288-.1885.3655-.2454s.2833-.0862.4313-.0862.2945.0293.4312.0862.2609.1403.3656.2454z" fill="#f7e080"/><path d="m25.5346 80.0905-7.9267-7.9597-1.5154 1.5217 7.9267 7.9597z" fill="#f5b312"/><path d="m38.9458 66.6154-7.9268-7.9597-3.1862 3.1995 7.9267 7.9597z" fill="#f5b312"/><path d="m65.8881 48.1767.0097-.0097c2.5001-2.5105 2.5001-6.5808 0-9.0912l-9.5587-9.5985c-2.5001-2.5105-6.5535-2.5105-9.0536 0l-.0097.0097c-2.5001 2.5105-2.5001 6.5808 0 9.0913l9.5587 9.5984c2.5001 2.5105 6.5535 2.5105 9.0536 0z" fill="#cbd5e0"/><path d="m56.8307 57.2859.0097-.0097c2.5001-2.5105 2.5001-6.5808 0-9.0913l-9.5587-9.5984c-2.5-2.5105-6.5535-2.5105-9.0535 0l-.0097.0097c-2.5001 2.5105-2.5001 6.5808 0 9.0913l9.5586 9.5984c2.5001 2.5105 6.5535 2.5105 9.0536 0z" fill="#cbd5e0"/><path d="m47.768 66.3814.0097-.0098c2.5-2.5105 2.5-6.5808 0-9.0912l-9.5587-9.5985c-2.5001-2.5105-6.5535-2.5105-9.0536 0l-.0097.0098c-2.5001 2.5104-2.5001 6.5807 0 9.0912l9.5587 9.5985c2.5001 2.5104 6.5535 2.5104 9.0536 0z" fill="#cbd5e0"/><path d="m74.5364 35.0255v-.0138c0-3.5503-2.8662-6.4284-6.4019-6.4284h-11.1826c-3.5356 0-6.4018 2.8781-6.4018 6.4284v.0138c0 3.5504 2.8662 6.4285 6.4018 6.4285h11.1826c3.5357 0 6.4019-2.8781 6.4019-6.4285z" fill="#ebf0f7"/><path d="m62.4698 81.5172 24.5961-24.6985-2.1565-2.1655-24.5962 24.6985z" fill="url(#a)"/><path d="m66.3906 85.4472 24.3533-24.4547c1.2715-1.2768 1.2737-3.3446.0049-4.6187-1.2689-1.2741-3.3282-1.2719-4.5997.0048l-24.3533 24.4547c-1.2715 1.2768-1.2736 3.3447-.0048 4.6187 1.2688 1.2741 3.3281 1.272 4.5996-.0048z" fill="#ebf0f7"/><path d="m104.389 17.8921c0-.4723-.379-.8553-.845-.8553-.467 0-.845.383-.845.8553v.8415c0 .4724.378.8553.845.8553.466 0 .845-.3829.845-.8553z" fill="#f7d036"/><path d="m104.389 24.6931c0-.4724-.379-.8553-.845-.8553-.467 0-.845.3829-.845.8553v.8415c0 .4723.378.8553.845.8553.466 0 .845-.383.845-.8553z" fill="#f7d036"/><path d="m107.342 22.5686c.471 0 .852-.3798.852-.8484 0-.4685-.381-.8483-.852-.8483h-.838c-.47 0-.851.3798-.851.8483 0 .4686.381.8484.851.8484z" fill="#f7d036"/><path d="m100.57 22.5686c.47 0 .851-.3798.851-.8484 0-.4685-.381-.8483-.851-.8483h-.8384c-.4704 0-.8517.3798-.8517.8483 0 .4686.3813.8484.8517.8484z" fill="#f7d036"/><path d="m107.741 69.2924c0-.6172-.495-1.1174-1.106-1.1174s-1.106.5002-1.106 1.1174v1.1035c0 .6172.495 1.1174 1.106 1.1174s1.106-.5002 1.106-1.1174z" fill="#f47fff"/><path d="m107.741 78.1901c0-.6171-.495-1.1174-1.106-1.1174s-1.106.5003-1.106 1.1174v1.1036c0 .6171.495 1.1174 1.106 1.1174s1.106-.5003 1.106-1.1174z" fill="#f47fff"/><path d="m111.615 75.3897c.614 0 1.113-.4972 1.113-1.1105s-.499-1.1105-1.113-1.1105h-1.099c-.615 0-1.113.4972-1.113 1.1105s.498 1.1105 1.113 1.1105z" fill="#f47fff"/><path d="m102.768 75.4035c.614 0 1.112-.4972 1.112-1.1105s-.498-1.1105-1.112-1.1105h-1.099c-.615 0-1.113.4972-1.113 1.1105s.498 1.1105 1.113 1.1105z" fill="#f47fff"/><path d="m6.53422 28.266-1.37378 2.9383c-.07631.1505-.10322.3215-.07687.4883.02634.1668.10459.321.22354.4404.11894.1195.27248.198.43862.2245.16613.0265.33635-.0006.48626-.0772l2.92616-1.3795c.11075-.0474.22991-.0719.35031-.0719s.23956.0245.35032.0719l2.92612 1.3795c.1499.0766.3202.1037.4863.0772s.3197-.105.4386-.2245c.119-.1194.1972-.2736.2236-.4404.0263-.1668-.0006-.3378-.0769-.4883l-1.3738-2.9383c-.0472-.1113-.0716-.2309-.0716-.3518s.0244-.2406.0716-.3518l1.3738-2.9383c.0763-.1506.1032-.3215.0769-.4883-.0264-.1668-.1046-.321-.2236-.4405-.1189-.1194-.2725-.198-.4386-.2244-.1661-.0265-.3364.0005-.4863.0772l-2.92612 1.3795c-.10877.0546-.22871.083-.35032.083s-.24155-.0284-.35031-.083l-2.92616-1.3795c-.14991-.0767-.32013-.1037-.48626-.0772-.16614.0264-.31968.105-.43862.2244-.11895.1195-.1972.2737-.22354.4405-.02635.1668.00056.3377.07687.4883l1.37378 2.9383c.04724.1112.07159.2309.07159.3518s-.02435.2405-.07159.3518z" fill="#60cfac"/></svg>