<svg xmlns="http://www.w3.org/2000/svg" width="262" height="226" viewBox="0 0 262 226" xmlns:xlink="http://www.w3.org/1999/xlink">
  <defs>
    <polygon id="a" points="0 199.373 0 .84 253.552 .84 253.552 199.373 0 199.373"/>
  </defs>
  <g fill="none" fill-rule="evenodd">
    <g transform="translate(4 6)">
      <g transform="translate(0 .345)">
        <mask id="b" fill="white">
          <use xlink:href="#a"/>
        </mask>
        <path fill="#4F545C" fill-opacity=".3" d="M12.8198,48.3574 L50.5698,48.3574 C63.6918,48.3574 74.3288,37.7194 74.3288,24.5984 C74.3288,11.4774 84.9658,0.8404 98.0868,0.8404 L175.3118,0.8404 C218.5228,0.8404 253.5518,35.8704 253.5518,79.0814 L253.5518,79.0894 C253.5518,122.3004 218.5228,157.3304 175.3118,157.3304 L168.3358,157.3304 C156.7268,157.3304 147.3158,166.7414 147.3158,178.3494 L147.3158,178.3534 C147.3158,189.9614 137.9048,199.3734 126.2958,199.3734 L49.5658,199.3734 C24.3818,199.3734 3.9658,178.9584 3.9658,153.7744 C3.9658,128.5904 24.3818,108.1744 49.5658,108.1744 L50.4888,108.1744 C59.9268,108.1744 67.5768,100.5244 67.5768,91.0864 C67.5768,81.6504 59.9268,73.9994 50.4888,73.9994 L12.8198,73.9994 C5.7398,73.9994 -0.0002,68.2594 -0.0002,61.1794 L-0.0002,61.1764 C-0.0002,54.0964 5.7398,48.3574 12.8198,48.3574" mask="url(#b)"/>
      </g>
      <path fill="#36393F" d="M144.4765,183.0042 C144.4675,183.0572 144.4535,183.1082 144.4355,183.1592 C144.4185,183.2092 144.3995,183.2622 144.3825,183.2972 C144.3515,183.3642 144.2915,183.4622 144.2465,183.5212 C144.2265,183.5472 144.2055,183.5712 144.1825,183.5962 C144.1545,183.6252 144.1255,183.6532 144.0955,183.6802 C144.0665,183.7052 144.0295,183.7342 143.9925,183.7622 L143.9925,183.7632 C143.9745,183.7762 143.9535,183.7902 143.9305,183.8042 C143.9225,183.8092 143.9145,183.8142 143.9075,183.8172 C143.8805,183.8332 143.8525,183.8482 143.8285,183.8592 C143.8275,183.8602 143.8265,183.8602 143.8255,183.8612 C143.7735,183.8892 143.7185,183.9112 143.6625,183.9292 L125.5485,189.6762 C125.5085,189.6892 125.4565,189.7002 125.4075,189.7102 C125.3785,189.7152 125.3495,189.7202 125.3195,189.7242 C125.3075,189.7252 125.2955,189.7272 125.2825,189.7272 C125.2555,189.7302 125.2285,189.7312 125.2025,189.7312 L125.2025,189.7302 C125.1155,189.7432 125.0385,189.7242 124.9745,189.7122 C124.8595,189.6912 124.7495,189.6542 124.6475,189.6022 C124.6205,189.5882 124.5845,189.5672 124.5595,189.5522 C124.5385,189.5382 124.4885,189.5062 124.4675,189.4902 L109.4875,177.7642 C109.4555,177.7392 109.4255,177.7132 109.3965,177.6852 C109.3735,177.6612 109.3515,177.6392 109.3315,177.6162 C109.3105,177.5922 109.2695,177.5422 109.2505,177.5162 C109.2185,177.4712 109.1805,177.4062 109.1565,177.3562 C109.1455,177.3372 109.1345,177.3142 109.1235,177.2882 C109.1075,177.2522 109.0935,177.2142 109.0815,177.1762 C109.0635,177.1172 109.0435,177.0192 109.0365,176.9572 C109.0275,176.8782 109.0295,176.7502 109.0395,176.6712 L109.0755,176.4712 L105.2725,175.7852 C105.1755,176.3282 104.6595,176.6922 104.1115,176.5922 L94.1345,174.7922 C92.5065,174.4982 91.4215,172.9352 91.7145,171.3072 L94.0955,158.1082 L85.9665,158.1082 L81.5345,182.6812 C81.2405,184.3082 82.3265,185.8712 83.9545,186.1652 L164.6525,200.7202 C165.4395,200.8662 166.2375,200.6902 166.8955,200.2332 C167.5535,199.7752 167.9945,199.0892 168.1365,198.3002 L182.7745,117.1462 L174.1305,120.0002 L162.5715,184.0882 C162.3095,185.5362 161.0435,186.5552 159.6215,186.5552 C159.4445,186.5552 159.2665,186.5392 159.0865,186.5072 L150.0645,184.8802 C149.5205,184.7812 149.1595,184.2622 149.2575,183.7182 L144.5025,182.8602 L144.4765,183.0042 Z"/>
      <path fill="#4F545C" d="M94.4897 172.8235L98.5517 173.5555 99.9477 169.2735C101.3557 164.9535 103.7377 161.1735 106.7777 158.1075L96.1277 158.1075 93.6827 171.6625C93.5847 172.2045 93.9477 172.7255 94.4897 172.8235M155.0815 126.2903C157.8985 131.1863 158.8955 136.8593 157.8815 142.4833 156.7435 148.7923 153.2175 154.2803 147.9515 157.9363 147.7955 158.0453 147.6335 158.1373 147.4755 158.2413 152.7895 163.7123 155.9045 171.2513 155.5675 179.3053L155.3785 183.8063 159.4415 184.5383C159.9835 184.6383 160.5055 184.2743 160.6035 183.7323L171.9695 120.7143 155.0815 126.2903z"/>
      <polygon fill="#4F545C" points="111.603 168.051 111.634 168.073 111.602 168.049"/>
      <path fill="#4F545C" d="M144.9609,138.7415 C145.2549,137.1105 146.8149,136.0275 148.4459,136.3215 C150.0769,136.6155 151.1599,138.1765 150.8659,139.8065 C150.5719,141.4365 149.0119,142.5205 147.3809,142.2255 C145.7509,141.9325 144.6669,140.3725 144.9609,138.7415 L144.9609,138.7415 Z M139.1219,153.1075 C139.1219,155.8645 136.8779,158.1075 134.1219,158.1075 L124.8559,158.1075 C126.5669,158.9175 128.4079,159.5215 130.3579,159.8735 C136.1429,160.9195 141.9839,159.6435 146.8109,156.2945 C151.6379,152.9425 154.8709,147.9115 155.9139,142.1285 C156.8949,136.6845 155.7699,131.3445 153.1279,126.9355 L139.1219,131.5595 L139.1219,153.1075 Z"/>
      <polygon fill="#36393F" points="127.355 171.458 120.682 166.275 119.294 173.97"/>
      <polygon fill="#4F545C" points="119.225 174.064 119.208 174.051 111.183 176.552 117.837 181.76"/>
      <polygon fill="#36393F" points="135.799 176.947 142.557 182.181 142.595 182.17 143.977 174.506 137.215 169.244 129.124 171.777"/>
      <polygon fill="#4F545C" points="126.776 179.878 118.614 182.368 125.35 187.641 125.378 187.632"/>
      <polygon fill="#4F545C" points="139.17 114.696 139.17 114.696 143.071 113.408"/>
      <path fill="#36393E" d="M143.0712 113.4075C143.0822 112.2765 143.2482 111.1025 143.5042 110.0455 142.8332 109.2635 142.2972 108.4875 141.8632 107.6695 140.8942 108.2235 139.8132 109.0525 139.4352 109.3465 139.3392 109.4225 139.2302 109.4675 139.1212 109.5125L139.1212 114.6085C139.1352 114.6395 139.1592 114.6625 139.1702 114.6955L143.0712 113.4075zM139.1215 105.7171C139.5475 105.3491 140.0405 104.9811 140.6095 104.6561 140.3765 103.6831 140.3135 102.4911 140.7225 101.5091 141.0265 100.7811 141.5685 100.2571 142.2495 100.0321 142.3935 99.9851 142.5405 99.9501 142.6925 99.9301 142.6065 98.1151 143.2955 96.8361 144.7785 96.0421 144.9255 95.9651 145.0745 95.9011 145.2285 95.8501 145.7545 95.6731 146.3195 95.9581 146.4945 96.4821 146.5205 96.5621 146.5175 96.6431 146.5235 96.7241 146.7735 96.7491 147.0355 96.8021 147.3125 96.8911 147.3235 96.8641 147.3215 96.8361 147.3355 96.8101 147.5885 96.3191 148.1915 96.1231 148.6825 96.3791 149.7275 96.9171 150.8705 97.7721 152.0825 98.9221 153.0905 98.7571 153.9975 98.6701 154.8615 98.6571 155.7165 93.2381 155.7525 93.2251 156.5205 92.9741 156.6885 92.9191 156.9495 92.8841 157.1205 92.9181 158.4365 93.1941 158.5175 94.0491 158.1005 99.0101 159.5595 99.5091 161.2915 100.5711 161.4515 102.0811 161.4815 102.3651 161.4665 102.7811 161.2525 103.2211 162.9535 104.1061 163.8185 105.2181 163.8315 106.5391 163.8315 106.5431 163.8305 106.5481 163.8305 106.5521L167.7605 105.2551C167.5875 104.7311 167.8715 104.1651 168.3965 103.9921L176.8035 101.2161 174.9415 97.4161C171.5715 90.5371 165.4945 85.6991 158.5395 83.6591 155.5795 88.2381 151.1895 91.6541 145.9385 93.3871 143.6795 94.1341 141.3875 94.5071 139.1215 94.5721L139.1215 105.7171z"/>
      <path fill="#36393F" d="M149.9711 62.1595C151.5451 61.6395 153.2411 62.4945 153.7611 64.0675 154.2801 65.6405 153.4261 67.3375 151.8521 67.8565 150.2791 68.3765 148.5831 67.5225 148.0631 65.9485 147.5441 64.3755 148.3981 62.6795 149.9711 62.1595M139.1211 57.1075L139.1211 74.5015 143.4111 73.0855C143.9361 72.9075 144.5011 73.1975 144.6741 73.7215 144.8471 74.2455 144.5621 74.8105 144.0381 74.9835L139.1211 76.6065 139.1211 92.5825C141.1791 92.5165 143.2601 92.1655 145.3121 91.4885 150.8921 89.6455 155.4201 85.7405 158.0631 80.4925 160.7061 75.2435 161.1471 69.2795 159.3041 63.6995 156.2541 54.4625 147.6331 48.5965 138.3961 48.5965 137.4841 48.5965 136.5651 48.6705 135.6451 48.7865 135.7401 49.4295 135.7081 50.0905 135.5451 50.7385L135.1711 52.2225C137.4251 52.7075 139.1211 54.7115 139.1211 57.1075M38.4247 112.9055L42.4277 113.9135 44.1127 109.7345C44.9177 107.7395 45.9327 105.8815 47.1217 104.1725L47.1217 74.2725 37.6987 111.6915C37.5647 112.2265 37.8897 112.7705 38.4247 112.9055M57.227 38.2366C56.967 38.1716 56.699 38.2116 56.47 38.3476 56.241 38.4846 56.079 38.7036 56.013 38.9626L52.703 52.1076 112.313 52.1076 57.227 38.2366zM44.3852 114.4065L47.1212 115.0945 47.1212 108.0105C46.6992 108.8075 46.3102 109.6315 45.9672 110.4825L44.3852 114.4065z"/>
      <path fill="#36393F" d="M57.1215,65.1077 C57.1215,63.4537 58.4675,62.1077 60.1215,62.1077 L126.1215,62.1077 C127.7755,62.1077 129.1215,63.4537 129.1215,65.1077 L129.1215,140.1077 C129.1215,141.7617 127.7755,143.1077 126.1215,143.1077 L109.9535,143.1077 C109.4005,143.1077 108.9535,142.6607 108.9535,142.1077 L104.1215,142.1077 L104.1215,152.4877 C104.1215,152.8797 103.8925,153.2357 103.5355,153.3977 C103.4025,153.4587 103.2615,153.4877 103.1215,153.4877 C102.8845,153.4877 102.6495,153.4037 102.4645,153.2417 L99.2405,150.3897 C99.2355,150.3977 99.2295,150.4057 99.2245,150.4137 C99.0355,150.6647 98.7395,150.8117 98.4245,150.8117 L85.4605,150.8117 C83.6195,150.8117 82.1215,149.3097 82.1215,147.4627 L82.1215,142.1077 L77.2595,142.1077 C77.2595,142.6607 76.8115,143.1077 76.2595,143.1077 L60.1215,143.1077 C58.4675,143.1077 57.1215,141.7617 57.1215,140.1077 L57.1215,65.1077 Z M52.1215,156.1077 L134.1215,156.1077 C135.7755,156.1077 137.1215,154.7617 137.1215,153.1077 L137.1215,57.1077 C137.1215,55.4537 135.7755,54.1077 134.1215,54.1077 L52.1215,54.1077 C50.4675,54.1077 49.1215,55.4537 49.1215,57.1077 L49.1215,153.1077 C49.1215,154.7617 50.4675,156.1077 52.1215,156.1077 L52.1215,156.1077 Z"/>
      <path fill="#72767D" d="M109.9531,141.1077 L119.9741,141.1077 L119.3981,136.9167 C118.3541,129.3247 114.0981,122.8237 108.1291,118.7057 C104.0161,122.0117 98.7971,123.9967 93.1211,123.9967 C87.4461,123.9967 82.2281,122.0117 78.1151,118.7067 C72.1451,122.8237 67.8881,129.3257 66.8441,136.9167 L66.2681,141.1077 L76.2601,141.1077 C76.8121,141.1077 77.2601,141.5547 77.2601,142.1077 L82.1211,142.1077 L82.1211,132.0777 C82.1211,130.2307 83.6201,128.7287 85.4601,128.7287 L100.7821,128.7287 C102.6231,128.7287 104.1211,130.2307 104.1211,132.0777 L104.1211,142.1077 L108.9531,142.1077 C108.9531,141.5547 109.4011,141.1077 109.9531,141.1077"/>
      <path fill="#36393F" d="M79.7397,95.6077 C81.3967,95.6077 82.7397,96.9507 82.7397,98.6077 C82.7397,100.2647 81.3967,101.6077 79.7397,101.6077 C78.0827,101.6077 76.7397,100.2647 76.7397,98.6077 C76.7397,96.9507 78.0827,95.6077 79.7397,95.6077 M88.3057,104.3447 C88.6357,103.9027 89.2387,103.7957 89.6827,104.1217 L89.7257,104.1537 C91.7207,105.6397 94.5007,105.6287 96.4837,104.1277 C96.9237,103.7937 97.5517,103.8807 97.8847,104.3217 C98.2177,104.7627 98.1307,105.3897 97.6897,105.7227 C96.3377,106.7457 94.7117,107.2567 93.0867,107.2567 C91.4817,107.2567 89.8767,106.7587 88.5337,105.7597 C88.0907,105.4297 87.9767,104.7887 88.3057,104.3447 M109.7417,98.6077 C109.7417,100.2647 108.3987,101.6077 106.7417,101.6077 C105.0847,101.6077 103.7417,100.2647 103.7417,98.6077 C103.7417,96.9507 105.0847,95.6077 106.7417,95.6077 C108.3987,95.6077 109.7417,96.9507 109.7417,98.6077 M115.1217,99.9967 C115.1217,87.8657 105.2527,77.9967 93.1217,77.9967 C80.9907,77.9967 71.1217,87.8657 71.1217,99.9967 C71.1217,112.1277 80.9907,121.9967 93.1217,121.9967 C105.2527,121.9967 115.1217,112.1277 115.1217,99.9967"/>
      <path fill="#4F545C" d="M95.2231 141.7962C95.8701 141.7962 96.3931 141.2322 96.3931 140.5362 96.3931 139.8412 95.8701 139.2762 95.2231 139.2762 94.5771 139.2762 94.0541 139.8412 94.0541 140.5362 94.0541 141.2322 94.5771 141.7962 95.2231 141.7962M91.0576 141.7962C91.7036 141.7962 92.2266 141.2322 92.2266 140.5362 92.2266 139.8412 91.7036 139.2762 91.0576 139.2762 90.4106 139.2762 89.8876 139.8412 89.8876 140.5362 89.8876 141.2322 90.4106 141.7962 91.0576 141.7962"/>
      <path fill="#4F545C" d="M90.7587,143.6526 C90.4137,144.0876 89.9957,144.5926 89.9957,144.5926 C87.4707,144.5156 86.5067,142.8576 86.5067,142.8576 C86.5067,139.1956 88.1507,136.2256 88.1507,136.2256 C89.7977,134.9926 91.3577,135.0316 91.3577,135.0316 L91.4747,135.1656 C89.4127,135.7556 88.4747,136.6616 88.4747,136.6616 C88.4747,136.6616 88.7197,136.5196 89.1537,136.3366 C90.3807,135.7986 91.3467,135.6546 91.7477,135.6166 C91.8117,135.6066 91.8747,135.5966 91.9397,135.5896 C92.6417,135.5006 93.4227,135.4756 94.2507,135.5686 C95.3367,135.6906 96.5067,136.0136 97.6947,136.6616 C97.6947,136.6616 96.7967,135.8036 94.8467,135.2146 L95.0067,135.0316 C95.0067,135.0316 96.5677,134.9926 98.2127,136.2256 C98.2127,136.2256 99.8587,139.1956 99.8587,142.8576 C99.8587,142.8576 98.8937,144.5156 96.3687,144.5926 C96.3687,144.5926 95.9617,144.1006 95.6197,143.6706 C97.1207,143.2516 97.6867,142.3156 97.6867,142.3156 C97.2147,142.6236 96.7687,142.8386 96.3677,142.9906 C95.7987,143.2256 95.2427,143.3846 94.7067,143.4836 C93.6127,143.6856 92.6067,143.6366 91.7447,143.4776 C91.0947,143.3566 90.5287,143.1736 90.0667,142.9876 C89.8047,142.8876 89.5237,142.7586 89.2277,142.5956 C89.1897,142.5756 89.1547,142.5556 89.1217,142.5376 C89.1037,142.5286 89.0877,142.5186 89.0717,142.5086 C88.8667,142.3926 88.7557,142.3156 88.7557,142.3156 C88.7557,142.3156 89.3047,143.2236 90.7587,143.6526 L90.7587,143.6526 Z M102.1217,132.0776 C102.1217,131.3346 101.5207,130.7286 100.7817,130.7286 L85.4607,130.7286 C84.7217,130.7286 84.1217,131.3346 84.1217,132.0776 L84.1217,147.4636 C84.1217,148.2066 84.7217,148.8116 85.4607,148.8116 L97.0947,148.8116 L96.8577,147.9876 C96.7327,147.5556 96.9117,147.0946 97.2937,146.8586 C97.4557,146.7586 97.6367,146.7106 97.8177,146.7106 C98.0637,146.7106 98.3077,146.8006 98.4977,146.9766 L102.1217,150.2886 L102.1217,132.0776 Z"/>
      <path fill="#1F2225" d="M22.9438 25.9339C23.1088 26.0369 23.2908 26.0849 23.4718 26.0849 23.8058 26.0849 24.1318 25.9179 24.3208 25.6139 25.0078 24.5109 25.7498 23.4209 26.5268 22.3749 26.8558 21.9319 26.7628 21.3059 26.3188 20.9769 25.8758 20.6479 25.2488 20.7409 24.9198 21.1839 24.1118 22.2729 23.3398 23.4079 22.6238 24.5569 22.3318 25.0259 22.4748 25.6419 22.9438 25.9339M19.082 34.052C19.202 34.099 19.325 34.12 19.445 34.12 19.845 34.12 20.223 33.879 20.377 33.484 20.85 32.273 21.379 31.066 21.951 29.895 22.193 29.399 21.987 28.8 21.491 28.558 20.993 28.313 20.395 28.521 20.154 29.018 19.558 30.238 19.007 31.495 18.514 32.757 18.313 33.271 18.568 33.851 19.082 34.052M35.5439 12.8694C35.7539 12.8694 35.9659 12.8044 36.1459 12.6674 37.1859 11.8814 38.2679 11.1294 39.3629 10.4334 39.8289 10.1384 39.9669 9.5194 39.6709 9.0544 39.3749 8.5894 38.7569 8.4474 38.2909 8.7464 37.1499 9.4704 36.0229 10.2534 34.9399 11.0714 34.4999 11.4044 34.4119 12.0324 34.7449 12.4734 34.9419 12.7324 35.2409 12.8694 35.5439 12.8694M28.9013 18.9221C29.1723 18.9221 29.4433 18.8131 29.6403 18.5971 30.5163 17.6371 31.4443 16.7011 32.3973 15.8151 32.8013 15.4381 32.8243 14.8051 32.4483 14.4011 32.0713 13.9971 31.4383 13.9751 31.0353 14.3501 30.0423 15.2741 29.0763 16.2481 28.1633 17.2471 27.7913 17.6551 27.8193 18.2871 28.2273 18.6601 28.4193 18.8351 28.6603 18.9221 28.9013 18.9221M23.2778 77.3723C23.4558 77.3723 23.6358 77.3243 23.7988 77.2253 24.2698 76.9363 24.4178 76.3213 24.1298 75.8513 23.4518 74.7423 22.8108 73.5913 22.2228 72.4293 21.9738 71.9353 21.3728 71.7363 20.8798 71.9873 20.3868 72.2363 20.1888 72.8383 20.4378 73.3313 21.0498 74.5413 21.7178 75.7403 22.4238 76.8933 22.6118 77.2023 22.9408 77.3723 23.2778 77.3723M43.1757 8.1311C43.3257 8.1311 43.4787 8.0971 43.6217 8.0261 44.7827 7.4451 45.9847 6.9051 47.1907 6.4201 47.7037 6.2141 47.9517 5.6321 47.7457 5.1191 47.5397 4.6081 46.9577 4.3601 46.4457 4.5651 45.1887 5.0691 43.9377 5.6321 42.7277 6.2361 42.2337 6.4841 42.0327 7.0841 42.2797 7.5781 42.4557 7.9291 42.8087 8.1311 43.1757 8.1311M16.7827 42.7395C16.8447 42.7515 16.9077 42.7575 16.9697 42.7575 17.4407 42.7575 17.8607 42.4235 17.9507 41.9425 18.1927 40.6655 18.4897 39.3825 18.8347 38.1285 18.9817 37.5955 18.6687 37.0455 18.1367 36.8985 17.6057 36.7535 17.0537 37.0645 16.9077 37.5965 16.5477 38.9035 16.2377 40.2405 15.9857 41.5715 15.8837 42.1145 16.2397 42.6365 16.7827 42.7395M19.0024 64.2395C18.8484 63.7095 18.2954 63.4015 17.7634 63.5575 17.2324 63.7115 16.9274 64.2655 17.0814 64.7965 17.4604 66.1015 17.8964 67.4035 18.3774 68.6655 18.5294 69.0635 18.9094 69.3085 19.3124 69.3085 19.4304 69.3085 19.5514 69.2885 19.6684 69.2435 20.1844 69.0465 20.4434 68.4685 20.2464 67.9525 19.7844 66.7415 19.3654 65.4915 19.0024 64.2395M16.1142 51.6995L16.1172 51.6995C16.6682 51.6995 17.1152 51.2545 17.1172 50.7035 17.1222 49.3965 17.1802 48.0805 17.2902 46.7915 17.3362 46.2405 16.9282 45.7575 16.3782 45.7105 15.8262 45.6505 15.3432 46.0705 15.2972 46.6215 15.1832 47.9655 15.1222 49.3355 15.1172 50.6955 15.1152 51.2485 15.5612 51.6975 16.1142 51.6995M16.2529 54.6975C15.7029 54.7515 15.3009 55.2405 15.3549 55.7895 15.4869 57.1395 15.6759 58.4995 15.9169 59.8295 16.0039 60.3125 16.4249 60.6515 16.8989 60.6515 16.9589 60.6515 17.0189 60.6465 17.0789 60.6355 17.6219 60.5375 17.9829 60.0165 17.8839 59.4735 17.6529 58.1965 17.4719 56.8915 17.3449 55.5955 17.2919 55.0455 16.8119 54.6525 16.2529 54.6975M96.7031 14.9846C96.8931 15.1526 97.1291 15.2346 97.3651 15.2346 97.6411 15.2346 97.9171 15.1206 98.1151 14.8966 98.4801 14.4826 98.4411 13.8506 98.0271 13.4846 97.0121 12.5886 95.9471 11.7216 94.8621 10.9106 94.4191 10.5786 93.7931 10.6706 93.4621 11.1126 93.1321 11.5536 93.2221 12.1806 93.6641 12.5116 94.7061 13.2916 95.7281 14.1236 96.7031 14.9846M51.5453 4.8723C51.6363 4.8723 51.7293 4.8593 51.8203 4.8343 53.0653 4.4773 54.3453 4.1683 55.6263 3.9133 56.1683 3.8063 56.5193 3.2793 56.4123 2.7373 56.3043 2.1963 55.7803 1.8423 55.2353 1.9523 53.9013 2.2183 52.5673 2.5403 51.2713 2.9103 50.7403 3.0623 50.4323 3.6163 50.5843 4.1463 50.7103 4.5863 51.1103 4.8723 51.5453 4.8723M69.2719 3.1829C70.5749 3.2979 71.8829 3.4669 73.1589 3.6869 73.2159 3.6969 73.2729 3.7019 73.3299 3.7019 73.8079 3.7019 74.2299 3.3579 74.3139 2.8709 74.4079 2.3269 74.0429 1.8099 73.4979 1.7159 72.1679 1.4879 70.8049 1.3109 69.4479 1.1909 68.8989 1.1349 68.4119 1.5489 68.3639 2.0989 68.3149 2.6489 68.7219 3.1339 69.2719 3.1829M60.3735 3.2132C60.4045 3.2132 60.4365 3.2122 60.4685 3.2082 61.7555 3.0872 63.0715 3.0172 64.3795 3.0002 64.9315 2.9932 65.3735 2.5392 65.3665 1.9872 65.3585 1.4362 64.9465 1.0172 64.3525 1.0002 62.9915 1.0182 61.6215 1.0912 60.2805 1.2182 59.7305 1.2702 59.3275 1.7572 59.3785 2.3072 59.4275 2.8242 59.8635 3.2132 60.3735 3.2132M86.1601 7.9085C87.3271 8.4835 88.4851 9.1135 89.5991 9.7825 89.7601 9.8795 89.9371 9.9255 90.1131 9.9255 90.4521 9.9255 90.7841 9.7525 90.9711 9.4395 91.2551 8.9665 91.1021 8.3515 90.6281 8.0675 89.4671 7.3705 88.2611 6.7135 87.0441 6.1135 86.5471 5.8715 85.9491 6.0745 85.7051 6.5685 85.4611 7.0645 85.6641 7.6645 86.1601 7.9085M102.7402 21.3919C102.9372 21.6439 103.2312 21.7759 103.5282 21.7759 103.7442 21.7759 103.9612 21.7059 104.1442 21.5629 104.5792 21.2229 104.6562 20.5939 104.3152 20.1599 103.4812 19.0939 102.5922 18.0479 101.6722 17.0519 101.2982 16.6479 100.6652 16.6209 100.2592 16.9959 99.8532 17.3709 99.8282 18.0029 100.2032 18.4099 101.0862 19.3659 101.9402 20.3699 102.7402 21.3919M77.937 4.762C79.187 5.113 80.441 5.52 81.664 5.973 81.779 6.016 81.896 6.035 82.012 6.035 82.418 6.035 82.8 5.786 82.949 5.383 83.141 4.866 82.877 4.29 82.359 4.098 81.085 3.625 79.779 3.2 78.476 2.836 77.943 2.686 77.392 2.997 77.244 3.53 77.095 4.062 77.405 4.614 77.937 4.762M148.4457 136.3216C146.8157 136.0276 145.2557 137.1106 144.9607 138.7416 144.6667 140.3726 145.7507 141.9326 147.3807 142.2256 149.0117 142.5206 150.5717 141.4366 150.8657 139.8066 151.1597 138.1756 150.0767 136.6156 148.4457 136.3216M142.5952 182.1692L142.5572 182.1812 125.3772 187.6322 125.3492 187.6412 118.6142 182.3682 117.8372 181.7602 111.1832 176.5522 111.1022 176.4882 112.4852 168.8242 120.6602 166.2582 120.6822 166.2752 127.3552 171.4582 127.7432 171.7592C128.0022 171.9592 128.3422 172.0222 128.6552 171.9232L129.1232 171.7762 137.2142 169.2432 143.9772 174.5052 142.5952 182.1692zM111.6342 168.0732L111.6032 168.0512 111.6012 168.0492 111.6342 168.0732zM145.9602 173.7132C145.9552 173.7002 145.9492 173.6882 145.9442 173.6772 145.9262 173.6372 145.8872 173.5662 145.8652 173.5292 145.8472 173.5022 145.8222 173.4652 145.8022 173.4402 145.7502 173.3722 145.6572 173.2772 145.5902 173.2262L138.1102 167.4062C138.0702 167.3752 138.0272 167.3472 137.9832 167.3222L137.9782 167.3192C137.9222 167.2852 137.8552 167.2532 137.7932 167.2312 137.7362 167.2092 137.6272 167.1812 137.5672 167.1712 137.4772 167.1562 137.3432 167.1512 137.2532 167.1612L137.2532 167.1622C137.2292 167.1642 137.2052 167.1672 137.1832 167.1712 137.1702 167.1732 137.1552 167.1762 137.1392 167.1792 137.0992 167.1872 137.0582 167.1962 137.0192 167.2092L128.5562 169.8582 121.5532 164.4192C121.5252 164.3982 121.4602 164.3572 121.4292 164.3382 121.3982 164.3182 121.3642 164.3002 121.3292 164.2832 121.2512 164.2462 121.1702 164.2182 121.0862 164.1992 121.0552 164.1912 121.0242 164.1862 120.9932 164.1812 120.8892 164.1652 120.7382 164.1652 120.6302 164.1862 120.6082 164.1892 120.5882 164.1922 120.5732 164.1952 120.5392 164.2022 120.5062 164.2102 120.4732 164.2212L120.4632 164.2242 111.4032 167.0682C111.3092 167.0992 111.2202 167.1432 111.1802 167.1692 111.1542 167.1842 111.1182 167.2072 111.0932 167.2252 111.0372 167.2642 110.9582 167.3312 110.9122 167.3812 110.9082 167.3852 110.9042 167.3902 110.9002 167.3942 110.8832 167.4122 110.8662 167.4302 110.8512 167.4492 110.8042 167.5062 110.7422 167.6032 110.7092 167.6692 110.6862 167.7162 110.6662 167.7652 110.6502 167.8152 110.6482 167.8232 110.6452 167.8302 110.6422 167.8382 110.6262 167.8882 110.6132 167.9392 110.6032 167.9892L109.0752 176.4712 109.0392 176.6712C109.0302 176.7502 109.0272 176.8782 109.0362 176.9572 109.0432 177.0192 109.0642 177.1172 109.0822 177.1762 109.0942 177.2142 109.1072 177.2522 109.1242 177.2882 109.1352 177.3142 109.1452 177.3372 109.1562 177.3562 109.1802 177.4062 109.2182 177.4712 109.2502 177.5162 109.2692 177.5422 109.3112 177.5922 109.3322 177.6162 109.3512 177.6392 109.3732 177.6612 109.3972 177.6852 109.4252 177.7132 109.4552 177.7392 109.4872 177.7642L124.4682 189.4902C124.4882 189.5062 124.5382 189.5382 124.5592 189.5522 124.5852 189.5672 124.6202 189.5882 124.6472 189.6022 124.7492 189.6542 124.8592 189.6912 124.9742 189.7122 125.0382 189.7242 125.1162 189.7432 125.2022 189.7302L125.2022 189.7312C125.2282 189.7312 125.2552 189.7302 125.2832 189.7272 125.2952 189.7272 125.3072 189.7252 125.3192 189.7242 125.3492 189.7202 125.3792 189.7152 125.4082 189.7102 125.4572 189.7002 125.5092 189.6892 125.5492 189.6762L143.6622 183.9292C143.7192 183.9112 143.7732 183.8892 143.8252 183.8612 143.8262 183.8602 143.8272 183.8602 143.8282 183.8592 143.8532 183.8482 143.8812 183.8332 143.9072 183.8172 143.9152 183.8142 143.9232 183.8092 143.9302 183.8042 143.9532 183.7902 143.9742 183.7762 143.9922 183.7632L143.9922 183.7622C144.0302 183.7342 144.0672 183.7052 144.0952 183.6802 144.1252 183.6532 144.1552 183.6252 144.1822 183.5962 144.2052 183.5712 144.2262 183.5472 144.2462 183.5212 144.2912 183.4622 144.3512 183.3642 144.3832 183.2972 144.3992 183.2622 144.4192 183.2092 144.4352 183.1592 144.4532 183.1082 144.4672 183.0572 144.4762 183.0042L144.5022 182.8602 146.0322 174.3802C146.0372 174.3522 146.0412 174.3232 146.0432 174.2952 146.0522 174.2192 146.0532 174.1452 146.0472 174.0782 146.0422 174.0032 146.0202 173.8882 145.9972 173.8152 145.9872 173.7802 145.9742 173.7462 145.9602 173.7132L145.9602 173.7132z"/>
      <path fill="#1F2225" d="M196.6786,109.5237 C196.3186,110.2397 195.7006,110.7717 194.9396,111.0237 L141.7486,128.5867 C140.4546,129.0147 139.1216,128.0507 139.1216,126.6877 L139.1216,109.5127 C139.2296,109.4667 139.3386,109.4217 139.4356,109.3467 C139.8126,109.0517 140.8946,108.2237 141.8636,107.6697 C142.2966,108.4877 142.8336,109.2637 143.5046,110.0447 C143.2476,111.1027 143.0826,112.2767 143.0716,113.4077 C143.0536,115.0897 143.3886,116.6727 144.3536,117.6037 C144.8366,118.0707 145.9006,118.7707 147.6046,118.2077 C148.0686,118.0537 148.5626,117.8097 149.0796,117.4787 C149.2016,117.6387 149.3426,117.7797 149.5026,117.9017 C149.8666,118.1787 150.6576,118.5837 151.8836,118.1777 C152.6926,117.9117 153.4826,117.3627 154.1156,116.8277 L157.2646,118.7507 C157.4796,118.8807 157.7206,118.9437 157.9576,118.9437 C158.3756,118.9437 158.7866,118.7507 159.0436,118.3937 C159.4536,117.8317 159.3596,117.0377 158.8286,116.5867 L156.1706,114.3257 C156.8566,113.1697 157.2506,112.0537 157.5716,111.0047 C157.7336,110.4767 157.4366,109.9177 156.9076,109.7557 C156.3836,109.5937 155.8216,109.8907 155.6596,110.4197 C155.3166,111.5407 154.8826,112.7437 154.0366,113.9427 C153.8976,114.1397 153.8396,114.3717 153.8576,114.5967 C153.6566,114.6267 153.4646,114.7157 153.3096,114.8637 C152.5616,115.5797 151.8136,116.0947 151.2566,116.2797 C150.9566,116.3787 150.7766,116.3577 150.7126,116.3087 C150.6276,116.2447 150.5586,116.0517 150.5296,115.7947 C150.4876,115.4297 150.2506,115.1187 149.9116,114.9807 C149.5726,114.8437 149.1846,114.9007 148.9016,115.1337 C148.1706,115.7327 147.5236,116.1277 146.9776,116.3087 C146.1676,116.5737 145.8476,116.2667 145.7426,116.1657 C144.9016,115.3537 144.8256,112.7347 145.5636,110.0697 C145.6596,109.7227 145.5716,109.3537 145.3286,109.0877 C144.3666,108.0367 143.7266,107.0657 143.2576,105.9427 C143.1606,105.7117 142.9876,105.5367 142.7796,105.4327 C142.8356,105.2297 142.8276,105.0067 142.7436,104.7957 C142.3966,103.9287 142.3226,102.8697 142.5686,102.2797 C142.6476,102.0897 142.7516,101.9727 142.8786,101.9307 C143.0266,101.8797 143.2466,101.9057 143.5156,102.0027 C143.8566,102.1237 144.2376,102.0537 144.5116,101.8147 C144.7836,101.5757 144.9066,101.2077 144.8306,100.8527 C144.3756,98.7257 145.0526,98.1647 145.7166,97.8087 C145.7616,97.7857 145.8106,97.7637 145.8616,97.7467 C146.3046,97.5987 146.5566,97.1697 146.5236,96.7237 C146.5176,96.6427 146.5206,96.5617 146.4936,96.4817 C146.3196,95.9587 145.7546,95.6727 145.2286,95.8497 C145.0746,95.9007 144.9256,95.9647 144.7786,96.0427 C143.2956,96.8357 142.6066,98.1157 142.6926,99.9297 C142.5406,99.9507 142.3936,99.9847 142.2496,100.0327 C141.5686,100.2567 141.0266,100.7817 140.7226,101.5087 C140.3136,102.4917 140.3766,103.6827 140.6096,104.6567 C140.0406,104.9807 139.5476,105.3487 139.1216,105.7167 L139.1216,94.5727 C141.3866,94.5067 143.6786,94.1337 145.9386,93.3867 C150.7356,91.8027 154.8126,88.8177 157.7386,84.8227 C158.2636,84.1067 159.2046,83.8487 160.0406,84.1477 C166.3636,86.4137 171.8166,91.0377 174.9416,97.4167 L175.2896,98.1277 C176.0906,99.7607 175.2636,101.7247 173.5366,102.2947 L168.3966,103.9927 C167.8716,104.1657 167.5876,104.7307 167.7606,105.2547 C167.9336,105.7797 168.4956,106.0677 169.0236,105.8907 L183.2676,101.1877 C184.8376,100.6697 185.6936,98.9687 185.1756,97.3987 L161.6586,26.1807 C161.4076,25.4197 160.8756,24.8017 160.1596,24.4417 C159.4436,24.0817 158.6316,24.0207 157.8696,24.2727 L114.3556,38.6407 C112.5536,39.2367 110.6186,39.3057 108.7786,38.8427 L100.4546,36.7477 C99.4846,36.5027 99.4356,35.1407 100.3856,34.8277 L162.9576,14.1667 C163.2686,14.0637 163.5846,14.0147 163.8956,14.0147 C165.1556,14.0147 166.3316,14.8157 166.7466,16.0757 L196.8476,107.2337 C197.0986,107.9947 197.0386,108.8077 196.6786,109.5237 L196.6786,109.5237 Z M168.1366,198.2997 C167.9946,199.0887 167.5536,199.7757 166.8956,200.2327 C166.2376,200.6897 165.4396,200.8667 164.6526,200.7197 L83.9536,186.1657 C82.3256,185.8717 81.2406,184.3077 81.5336,182.6807 L85.3726,161.3977 C85.7166,159.4937 87.3736,158.1077 89.3086,158.1077 C91.8026,158.1077 93.6876,160.3637 93.2456,162.8177 L91.7146,171.3067 C91.4206,172.9377 92.5036,174.4987 94.1346,174.7927 L104.1116,176.5917 C104.6586,176.6917 105.1756,176.3287 105.2726,175.7857 C105.3706,175.2417 105.0106,174.7217 104.4666,174.6237 L103.5066,174.4507 C101.9376,174.1677 100.9786,172.5627 101.4736,171.0467 L101.8496,169.8927 C103.3816,165.1907 106.1486,161.1717 109.6936,158.1077 L120.8376,158.1077 C123.5666,159.9517 126.6636,161.2397 130.0026,161.8417 C131.4416,162.1007 132.8826,162.2297 134.3136,162.2297 C138.2966,162.2297 142.1916,161.2207 145.7126,159.2997 C150.8546,164.4117 153.8896,171.5657 153.5696,179.2207 L153.5186,180.4337 C153.4516,182.0277 151.9936,183.1957 150.4246,182.9127 L150.4186,182.9117 C149.8746,182.8147 149.3556,183.1747 149.2576,183.7177 C149.1596,184.2617 149.5206,184.7817 150.0646,184.8797 L159.0866,186.5067 C159.2656,186.5397 159.4446,186.5547 159.6206,186.5547 C161.0436,186.5547 162.3096,185.5367 162.5716,184.0877 L174.1306,120.0007 L182.7746,117.1457 L168.1366,198.2997 Z M106.7776,158.1077 C103.7376,161.1727 101.3556,164.9537 99.9486,169.2737 L98.5526,173.5557 L94.4896,172.8237 C93.9486,172.7257 93.5846,172.2027 93.6826,171.6617 L95.6826,160.5757 C95.9396,159.1467 97.1826,158.1077 98.6346,158.1077 L106.7776,158.1077 Z M52.1216,156.1077 C50.4676,156.1077 49.1216,154.7617 49.1216,153.1077 L49.1216,57.1077 C49.1216,55.4537 50.4676,54.1077 52.1216,54.1077 L134.1216,54.1077 C135.7756,54.1077 137.1216,55.4537 137.1216,57.1077 L137.1216,153.1077 C137.1216,154.7617 135.7756,156.1077 134.1216,156.1077 L52.1216,156.1077 Z M96.1796,52.1077 L55.2686,52.1077 C53.9666,52.1077 53.0116,50.8817 53.3296,49.6197 L56.0126,38.9617 C56.0786,38.7037 56.2406,38.4847 56.4696,38.3477 C56.6986,38.2107 56.9666,38.1707 57.2266,38.2367 L96.6686,48.1687 C98.9536,48.7437 98.5366,52.1077 96.1796,52.1077 L96.1796,52.1077 Z M159.8496,81.3917 C162.7326,75.6667 163.2136,69.1607 161.2036,63.0727 C157.4946,51.8427 146.2396,45.1847 134.9186,46.8577 C134.2306,45.7647 133.1736,44.9857 131.9176,44.6697 L115.2146,40.4627 L158.4976,26.1707 C158.7506,26.0867 159.0216,26.1077 159.2596,26.2277 C159.4986,26.3477 159.6766,26.5537 159.7596,26.8077 L183.2756,98.0257 C183.4486,98.5477 183.1616,99.1177 182.6396,99.2897 L182.6366,99.2907 C180.3916,100.0317 177.9456,99.0027 176.9056,96.8797 L176.7376,96.5377 C173.1906,89.2957 166.8536,84.1557 159.5716,81.8837 C159.6596,81.7167 159.7636,81.5617 159.8496,81.3917 L159.8496,81.3917 Z M155.9136,142.1277 C154.8706,147.9117 151.6376,152.9427 146.8106,156.2947 C141.9836,159.6437 136.1426,160.9197 130.3576,159.8737 C128.4076,159.5217 126.5666,158.9177 124.8556,158.1077 L134.1216,158.1077 C136.8826,158.1077 139.1216,155.8697 139.1216,153.1077 L139.1216,133.7287 C139.1216,132.4347 139.9516,131.2867 141.1806,130.8797 L153.1276,126.9357 C155.7696,131.3437 156.8946,136.6847 155.9136,142.1277 L155.9136,142.1277 Z M147.4756,158.2417 C147.6336,158.1367 147.7956,158.0447 147.9516,157.9367 C153.2176,154.2807 156.7436,148.7927 157.8816,142.4837 C158.8956,136.8597 157.8986,131.1857 155.0816,126.2907 L171.9696,120.7137 L160.6036,183.7327 C160.5056,184.2747 159.9836,184.6377 159.4416,184.5387 L155.3786,183.8057 L155.5676,179.3047 C155.9046,171.2517 152.7896,163.7117 147.4756,158.2417 L147.4756,158.2417 Z M144.6746,73.7207 C144.5006,73.1977 143.9366,72.9077 143.4106,73.0857 L140.4346,74.0677 C139.7876,74.2817 139.1216,73.7987 139.1216,73.1187 L139.1216,57.1077 C139.1216,54.7107 137.4246,52.7077 135.1706,52.2227 L135.5446,50.7387 C135.7076,50.0897 135.7396,49.4287 135.6446,48.7867 C136.5646,48.6697 137.4836,48.5957 138.3966,48.5957 C148.4686,48.5957 157.8086,55.5717 159.9916,66.2887 C160.7806,70.1587 160.5006,74.2087 159.1646,77.9247 C156.8156,84.4637 151.7676,89.3567 145.3116,91.4887 C143.2606,92.1657 141.1786,92.5167 139.1216,92.5827 L139.1216,77.3297 C139.1216,76.8977 139.3986,76.5147 139.8076,76.3797 L144.0376,74.9837 C144.5626,74.8107 144.8466,74.2457 144.6746,73.7207 L144.6746,73.7207 Z M47.1216,57.1077 L47.1216,66.0827 L35.7596,111.2037 C35.3546,112.8097 36.3296,114.4407 37.9366,114.8447 L45.6096,116.7767 C46.4986,117.0017 47.1216,117.7997 47.1216,118.7157 L47.1216,127.9977 C47.1216,129.2997 45.8966,130.2537 44.6336,129.9367 L27.1146,125.5247 C26.4966,125.3697 25.9126,125.0637 25.4936,124.5847 C24.8226,123.8157 24.5866,122.8137 24.8276,121.8557 L48.2696,28.7617 C48.6736,27.1577 50.3076,26.1807 51.9106,26.5857 L131.4286,46.6087 C132.3846,46.8487 133.1556,47.5297 133.5146,48.4857 C133.7396,49.0817 133.7336,49.7407 133.5776,50.3577 C133.3196,51.3857 132.3936,52.1077 131.3326,52.1077 L120.7906,52.1077 C120.5996,52.1077 120.4096,52.0847 120.2256,52.0377 L57.7156,36.2967 C56.7596,36.0567 55.7566,36.2917 54.9876,36.9627 C54.5076,37.3817 54.2006,37.9657 54.0456,38.5837 L50.5726,52.3777 C48.5756,53.0347 47.1216,54.8947 47.1216,57.1077 L47.1216,57.1077 Z M47.1216,104.1717 C45.9326,105.8807 44.9176,107.7397 44.1126,109.7347 L42.4276,113.9137 L38.4246,112.9057 C37.8886,112.7707 37.5646,112.2267 37.6996,111.6917 L45.1516,82.0947 C45.4396,80.9527 47.1216,81.1617 47.1216,82.3387 L47.1216,104.1717 Z M47.1216,115.0947 L44.3856,114.4067 L45.9676,110.4827 C46.3106,109.6307 46.6996,108.8077 47.1216,108.0107 L47.1216,115.0947 Z M198.7466,106.6067 L168.6466,15.4487 C167.7826,12.8297 164.9476,11.3997 162.3306,12.2677 L99.0186,33.1727 C95.4146,34.3637 91.5456,34.5027 87.8646,33.5767 L52.3996,24.6457 C49.7236,23.9747 47.0036,25.6007 46.3296,28.2737 L22.9346,121.1807 C22.6516,122.3077 22.6786,123.5147 23.1476,124.5787 C23.7866,126.0287 25.0136,127.0577 26.5156,127.4367 L47.1216,132.6257 L47.1216,153.1077 C47.1216,155.8697 49.3606,158.1077 52.1216,158.1077 L81.5416,158.1077 C82.7876,158.1077 83.7306,159.2357 83.5096,160.4627 L79.5666,182.3257 C79.0766,185.0387 80.8856,187.6437 83.5986,188.1337 L164.2966,202.6887 C164.5966,202.7427 164.8976,202.7697 165.1956,202.7697 C166.2046,202.7697 167.1896,202.4627 168.0356,201.8757 C169.1336,201.1137 169.8676,199.9697 170.1046,198.6557 L184.9346,116.4327 L195.3796,112.9837 C196.4836,112.6197 197.4896,111.9497 198.1366,110.9847 C199.0206,109.6677 199.2336,108.0777 198.7466,106.6067 L198.7466,106.6067 Z"/>
      <path fill="#1F2225" d="M151.8525 67.8567C153.4255 67.3367 154.2805 65.6407 153.7605 64.0677 153.2415 62.4947 151.5445 61.6397 149.9715 62.1597 148.3975 62.6787 147.5435 64.3757 148.0635 65.9487 148.5825 67.5227 150.2795 68.3767 151.8525 67.8567M150.914 114.8958C150.965 114.9738 151.166 115.0088 151.487 114.9038 151.808 114.7978 152.165 114.5798 152.515 114.2768L151.569 113.4548C150.845 114.3368 150.845 114.7908 150.914 114.8958M159.1801 107.1536C159.1691 106.6396 158.4051 106.0696 157.0601 105.5616 157.1891 106.5276 157.1581 107.7146 156.9701 108.9036 158.8931 108.0976 159.1861 107.4696 159.1801 107.1536M153.7929 111.0012C153.9569 110.9312 154.1469 110.9912 154.2399 111.1442 154.3329 111.2962 154.2999 111.4922 154.1629 111.6052 153.8619 111.8552 153.3349 112.2942 152.9429 112.6422 153.1029 112.8182 153.2439 112.9702 153.4079 113.1462L153.4539 113.1942C155.2809 110.9742 155.7219 108.4722 155.7399 105.4582 155.4129 106.2842 154.1359 109.4612 153.1279 111.2922 153.3729 111.1852 153.6139 111.0792 153.7929 111.0012M158.0439 102.7737C158.0359 102.6987 157.9319 102.3227 156.7159 101.8447 156.6139 102.2147 156.4929 102.6667 156.4109 102.9737L157.8219 103.1077C157.9289 103.0287 158.0579 102.9037 158.0439 102.7737M149.6894 100.5911C148.6554 99.7631 147.7754 99.3941 147.2344 99.5711 146.5894 99.7841 146.4334 100.8881 146.8024 102.4381 147.3404 101.9501 148.3844 101.1121 149.6894 100.5911M154.0297 105.0159C152.0227 104.8329 150.0267 104.8739 147.8847 105.1349 148.7117 106.8479 149.7667 108.4159 150.8667 110.0519L151.0847 110.3749C152.2637 108.7389 153.1467 107.0039 154.0297 105.0159M146.4887 113.6321C146.6787 113.7981 146.9667 113.8191 147.3407 113.6961 147.7257 113.5691 148.1767 113.3001 148.6867 112.8961 148.2087 112.6651 147.4267 112.1751 146.1747 111.1521 146.0037 112.4151 146.1137 113.3061 146.4887 113.6321M146.0839 107.3147C146.0979 107.4847 145.9819 107.6357 145.8149 107.6677 145.6389 107.7007 145.4679 107.5877 145.4299 107.4127 145.3379 106.9867 145.1809 106.2107 145.1099 105.5857 144.8169 105.6517 144.4559 105.7377 144.1879 105.8007 145.2849 107.9197 146.2989 109.4317 149.7269 111.4547 149.1189 110.6477 147.2309 108.1147 146.0879 106.2607 146.0469 106.6287 146.0599 107.0257 146.0839 107.3147M153.1357 101.5794C153.8097 101.7254 154.5447 102.0734 154.9597 102.2904 155.0347 102.0744 155.1337 101.7904 155.2247 101.5314 153.2637 101.3624 151.5757 101.5224 150.0737 102.0184 149.0417 102.3594 148.0757 102.8694 147.2017 103.5344 147.2037 103.5404 147.2067 103.5474 147.2087 103.5544L147.3217 103.5384C147.5007 103.5134 151.2997 102.9824 153.9057 102.8484 153.6147 102.6564 153.2747 102.4574 152.8927 102.2544 152.7397 102.1734 152.6637 101.9974 152.7127 101.8314 152.7667 101.6494 152.9507 101.5394 153.1357 101.5794M144.2187 102.7512C144.1137 102.7302 144.0187 102.7332 143.9367 102.7612 143.7487 102.8222 143.6437 103.0052 143.5897 103.1472 143.4437 103.5262 143.4747 104.0362 143.6587 104.4802L144.7637 104.1492C144.3897 103.4272 144.2557 103.0112 144.2187 102.7512"/>
      <path fill="#1F2225" d="M161.2529 103.221C161.4669 102.782 161.4819 102.366 161.4509 102.081 161.2919 100.572 159.5599 99.509 158.0999 99.01 158.5179 94.049 158.4369 93.194 157.1209 92.918 156.9489 92.884 156.6889 92.919 156.5209 92.974 155.7529 93.225 155.7159 93.238 154.8619 98.658 153.9979 98.67 153.0899 98.757 152.0829 98.922 150.8699 97.772 149.7279 96.917 148.6819 96.379 148.1919 96.123 147.5879 96.319 147.3359 96.81 147.3219 96.836 147.3229 96.865 147.3129 96.891 147.1169 97.367 147.3019 97.918 147.7669 98.157 148.7379 98.658 149.8429 99.515 151.0509 100.706 151.2829 100.936 151.6139 101.036 151.9339 100.978 153.3819 100.711 154.5339 100.617 155.6689 100.669 155.9149 100.686 156.1459 100.603 156.3279 100.46 156.4619 100.594 156.6359 100.691 156.8339 100.732 158.0829 100.985 159.4159 101.852 159.4619 102.291 159.4739 102.404 159.2449 102.571 159.0449 102.679 158.7009 102.867 158.4979 103.24 158.5269 103.63 158.5559 104.022 158.8109 104.361 159.1799 104.495 160.8579 105.112 161.8249 105.864 161.8319 106.559 161.8369 107.123 161.0739 108.039 158.9149 108.916 158.4029 109.124 158.1569 109.707 158.3649 110.219 158.5229 110.608 158.8969 110.843 159.2919 110.843 159.4169 110.843 159.5449 110.82 159.6679 110.77 163.1169 109.368 163.8369 107.705 163.8309 106.552 163.8309 106.548 163.8319 106.543 163.8319 106.539 163.8189 105.218 162.9529 104.106 161.2529 103.221M45.0566 172.8264L44.5466 172.8264C43.9946 172.8264 43.5466 172.3794 43.5466 171.8264L43.5466 171.3154C43.5466 170.7634 43.0986 170.3154 42.5466 170.3154 41.9936 170.3154 41.5466 170.7634 41.5466 171.3154L41.5466 171.8264C41.5466 172.3794 41.0986 172.8264 40.5466 172.8264L40.0366 172.8264C39.4846 172.8264 39.0366 173.2734 39.0366 173.8264 39.0366 174.3794 39.4846 174.8264 40.0366 174.8264L40.5466 174.8264C41.0986 174.8264 41.5466 175.2734 41.5466 175.8264L41.5466 176.3364C41.5466 176.8884 41.9936 177.3364 42.5466 177.3364 43.0986 177.3364 43.5466 176.8884 43.5466 176.3364L43.5466 175.8264C43.5466 175.2734 43.9946 174.8264 44.5466 174.8264L45.0566 174.8264C45.6086 174.8264 46.0566 174.3794 46.0566 173.8264 46.0566 173.2734 45.6086 172.8264 45.0566 172.8264M205.9863 45.135L205.9863 45.135C206.8203 45.135 207.4963 45.811 207.4963 46.645 207.4963 47.198 207.9443 47.645 208.4963 47.645 209.0493 47.645 209.4963 47.198 209.4963 46.645 209.4963 45.811 210.1723 45.135 211.0063 45.135 211.5583 45.135 212.0063 44.688 212.0063 44.135 212.0063 43.582 211.5583 43.135 211.0063 43.135 210.1723 43.135 209.4963 42.459 209.4963 41.625 209.4963 41.073 209.0493 40.625 208.4963 40.625 207.9443 40.625 207.4963 41.073 207.4963 41.625 207.4963 42.459 206.8203 43.135 205.9863 43.135L205.9863 43.135C205.4343 43.135 204.9863 43.582 204.9863 44.135 204.9863 44.688 205.4343 45.135 205.9863 45.135M189.8369 187.7307L189.3269 187.7307C188.7749 187.7307 188.3269 187.2837 188.3269 186.7307L188.3269 186.2207C188.3269 185.6677 187.8789 185.2207 187.3269 185.2207 186.7749 185.2207 186.3269 185.6677 186.3269 186.2207L186.3269 186.7307C186.3269 187.2837 185.8789 187.7307 185.3269 187.7307L184.8169 187.7307C184.2649 187.7307 183.8169 188.1777 183.8169 188.7307 183.8169 189.2837 184.2649 189.7307 184.8169 189.7307L185.3269 189.7307C185.8789 189.7307 186.3269 190.1787 186.3269 190.7307L186.3269 191.2407C186.3269 191.7927 186.7749 192.2407 187.3269 192.2407 187.8789 192.2407 188.3269 191.7927 188.3269 191.2407L188.3269 190.7307C188.3269 190.1787 188.7749 189.7307 189.3269 189.7307L189.8369 189.7307C190.3889 189.7307 190.8369 189.2837 190.8369 188.7307 190.8369 188.1777 190.3889 187.7307 189.8369 187.7307M21.9599 140.1546L20.7769 141.3386C20.3859 141.7286 20.3859 142.3616 20.7769 142.7526 20.9719 142.9476 21.2279 143.0456 21.4839 143.0456 21.7399 143.0456 21.9959 142.9476 22.1909 142.7526L23.3739 141.5686C23.7649 141.1776 23.7649 140.5456 23.3739 140.1546 22.9829 139.7636 22.3499 139.7636 21.9599 140.1546M16.0434 146.0706L14.8604 147.2546C14.4694 147.6446 14.4694 148.2776 14.8604 148.6686 15.0554 148.8636 15.3114 148.9616 15.5674 148.9616 15.8234 148.9616 16.0794 148.8636 16.2744 148.6686L17.4574 147.4846C17.8484 147.0936 17.8484 146.4616 17.4574 146.0706 17.0664 145.6796 16.4334 145.6796 16.0434 146.0706M22.1909 146.0706C21.7999 145.6796 21.1679 145.6796 20.7769 146.0706 20.3859 146.4616 20.3859 147.0936 20.7769 147.4846L21.9599 148.6686C22.1549 148.8636 22.4109 148.9616 22.6669 148.9616 22.9229 148.9616 23.1789 148.8636 23.3739 148.6686 23.7649 148.2776 23.7649 147.6446 23.3739 147.2546L22.1909 146.0706zM16.2744 140.1546C15.8834 139.7636 15.2514 139.7636 14.8604 140.1546 14.4694 140.5456 14.4694 141.1776 14.8604 141.5686L16.0434 142.7526C16.2384 142.9476 16.4944 143.0456 16.7504 143.0456 17.0064 143.0456 17.2624 142.9476 17.4574 142.7526 17.8484 142.3616 17.8484 141.7286 17.4574 141.3386L16.2744 140.1546zM246.4301 140.43C246.6861 140.43 246.9421 140.332 247.1371 140.137L248.3211 138.953C248.7111 138.563 248.7111 137.93 248.3211 137.539 247.9301 137.149 247.2971 137.149 246.9071 137.539L245.7231 138.723C245.3321 139.114 245.3321 139.746 245.7231 140.137 245.9181 140.332 246.1741 140.43 246.4301 140.43M240.9902 143.4563L239.8072 144.6393C239.4162 145.0293 239.4162 145.6623 239.8072 146.0533 240.0022 146.2483 240.2582 146.3463 240.5142 146.3463 240.7702 146.3463 241.0262 146.2483 241.2212 146.0533L242.4042 144.8703C242.7952 144.4793 242.7952 143.8473 242.4042 143.4563 242.0132 143.0653 241.3812 143.0653 240.9902 143.4563M248.3207 144.6389L247.1367 143.4559C246.7467 143.0659 246.1127 143.0659 245.7227 143.4559 245.3327 143.8469 245.3327 144.4809 245.7227 144.8699L246.9067 146.0529C247.1017 146.2479 247.3577 146.3459 247.6137 146.3459 247.8697 146.3459 248.1257 146.2479 248.3207 146.0529 248.7117 145.6619 248.7117 145.0289 248.3207 144.6389M241.2211 137.5393C240.8301 137.1483 240.1981 137.1483 239.8071 137.5393 239.4161 137.9303 239.4161 138.5623 239.8071 138.9533L240.9901 140.1373C241.1851 140.3323 241.4411 140.4303 241.6971 140.4303 241.9531 140.4303 242.2091 140.3323 242.4041 140.1373 242.7951 139.7463 242.7951 139.1133 242.4041 138.7233L241.2211 137.5393zM205.9863 126.4534C206.8193 126.4534 207.4963 127.1314 207.4963 127.9634 207.4963 128.7954 206.8193 129.4734 205.9863 129.4734 205.1533 129.4734 204.4763 128.7954 204.4763 127.9634 204.4763 127.1314 205.1533 126.4534 205.9863 126.4534M205.9863 131.4734C207.9223 131.4734 209.4963 129.8984 209.4963 127.9634 209.4963 126.0274 207.9223 124.4534 205.9863 124.4534 204.0513 124.4534 202.4763 126.0274 202.4763 127.9634 202.4763 129.8984 204.0513 131.4734 205.9863 131.4734M79.7397 95.6077C78.0827 95.6077 76.7397 96.9507 76.7397 98.6077 76.7397 100.2647 78.0827 101.6077 79.7397 101.6077 81.3967 101.6077 82.7397 100.2647 82.7397 98.6077 82.7397 96.9507 81.3967 95.6077 79.7397 95.6077M106.7416 95.6077C105.0846 95.6077 103.7416 96.9507 103.7416 98.6077 103.7416 100.2647 105.0846 101.6077 106.7416 101.6077 108.3986 101.6077 109.7416 100.2647 109.7416 98.6077 109.7416 96.9507 108.3986 95.6077 106.7416 95.6077M96.4838 104.1272C94.5008 105.6282 91.7208 105.6402 89.7258 104.1532L89.6828 104.1212C89.2388 103.7952 88.6348 103.9022 88.3058 104.3452 87.9768 104.7882 88.0908 105.4302 88.5338 105.7602 89.8768 106.7592 91.4818 107.2572 93.0868 107.2572 94.7118 107.2572 96.3378 106.7452 97.6898 105.7232 98.1298 105.3902 98.2178 104.7632 97.8848 104.3212 97.5508 103.8812 96.9228 103.7932 96.4838 104.1272"/>
      <path fill="#1F2225" d="M127.1215,140.1077 C127.1215,140.6597 126.6735,141.1077 126.1215,141.1077 L124.6085,141.1077 C123.1105,141.1077 121.8415,140.0017 121.6375,138.5157 L121.3795,136.6447 C120.3365,129.0587 116.3115,122.4837 110.5965,118.0377 C110.1175,117.6647 110.0685,116.9747 110.4885,116.5357 C115.2035,111.5867 117.8375,104.6397 116.9515,97.1077 C115.6635,86.1587 106.8245,77.3737 95.8685,76.1497 C81.4105,74.5357 69.1215,85.8587 69.1215,99.9967 C69.1215,106.4017 71.6485,112.2257 75.7535,116.5337 C76.1725,116.9737 76.1245,117.6647 75.6445,118.0377 C69.9305,122.4837 65.9055,129.0587 64.8625,136.6447 L64.6055,138.5157 C64.4015,140.0017 63.1325,141.1077 61.6335,141.1077 L60.1215,141.1077 C59.5695,141.1077 59.1215,140.6597 59.1215,140.1077 L59.1215,65.1077 C59.1215,64.5557 59.5695,64.1077 60.1215,64.1077 L126.1215,64.1077 C126.6735,64.1077 127.1215,64.5557 127.1215,65.1077 L127.1215,140.1077 Z M93.1215,121.9967 C80.9905,121.9967 71.1215,112.1277 71.1215,99.9967 C71.1215,87.8657 80.9905,77.9967 93.1215,77.9967 C105.2525,77.9967 115.1215,87.8657 115.1215,99.9967 C115.1215,112.1277 105.2525,121.9967 93.1215,121.9967 L93.1215,121.9967 Z M126.1215,62.1077 L60.1215,62.1077 C58.4645,62.1077 57.1215,63.4507 57.1215,65.1077 L57.1215,142.1097 C57.1215,143.7657 58.4645,145.1097 60.1215,145.1097 L77.1425,145.1097 C78.2475,145.1097 79.1425,144.2137 79.1425,143.1097 L79.1425,143.1077 C79.1425,142.0037 78.2475,141.1077 77.1425,141.1077 L68.5615,141.1077 C67.3495,141.1077 66.4155,140.0377 66.5805,138.8357 L66.8445,136.9167 C67.8125,129.8697 71.5515,123.7607 76.8575,119.6277 C77.5535,119.0857 78.5235,119.0477 79.2425,119.5587 C83.1635,122.3497 87.9535,123.9967 93.1215,123.9967 C98.2905,123.9967 103.0795,122.3497 107.0005,119.5587 C107.7195,119.0467 108.6895,119.0857 109.3855,119.6277 C114.6915,123.7607 118.4295,129.8697 119.3985,136.9167 L119.6625,138.8357 C119.8275,140.0367 118.8935,141.1077 117.6815,141.1077 L109.5305,141.1077 C108.4255,141.1077 107.5305,142.0037 107.5305,143.1077 L107.5305,143.1097 C107.5305,144.2137 108.4255,145.1097 109.5305,145.1097 L126.1215,145.1097 C127.7785,145.1097 129.1215,143.7657 129.1215,142.1097 L129.1215,65.1077 C129.1215,63.4507 127.7785,62.1077 126.1215,62.1077 L126.1215,62.1077 Z"/>
      <path fill="#1F2225" d="M95.2231,141.7962 C94.5771,141.7962 94.0541,141.2322 94.0541,140.5362 C94.0541,139.8412 94.5771,139.2762 95.2231,139.2762 C95.8701,139.2762 96.3931,139.8412 96.3931,140.5362 C96.3931,141.2322 95.8701,141.7962 95.2231,141.7962 M91.0571,141.7962 C90.4111,141.7962 89.8871,141.2322 89.8871,140.5362 C89.8871,139.8412 90.4111,139.2762 91.0571,139.2762 C91.7031,139.2762 92.2271,139.8412 92.2271,140.5362 C92.2271,141.2322 91.7031,141.7962 91.0571,141.7962 M95.0071,135.0312 L94.8471,135.2142 C96.7971,135.8042 97.6951,136.6612 97.6951,136.6612 C96.5061,136.0142 95.3361,135.6912 94.2511,135.5682 C93.4221,135.4762 92.6421,135.5002 91.9391,135.5892 C91.8741,135.5972 91.8111,135.6072 91.7471,135.6162 C91.3471,135.6542 90.3801,135.7992 89.1531,136.3362 C88.7201,136.5202 88.4741,136.6612 88.4741,136.6612 C88.4741,136.6612 89.4131,135.7552 91.4751,135.1652 L91.3571,135.0312 C91.3571,135.0312 89.7981,134.9922 88.1511,136.2262 C88.1511,136.2262 86.5061,139.1952 86.5061,142.8582 C86.5061,142.8582 87.4711,144.5162 89.9961,144.5932 C89.9961,144.5932 90.4141,144.0872 90.7591,143.6522 C89.3051,143.2242 88.7561,142.3162 88.7561,142.3162 C88.7561,142.3162 88.8671,142.3932 89.0711,142.5092 C89.0881,142.5192 89.1041,142.5282 89.1211,142.5372 C89.1541,142.5562 89.1901,142.5752 89.2271,142.5962 C89.5231,142.7592 89.8051,142.8882 90.0671,142.9872 C90.5291,143.1732 91.0951,143.3572 91.7441,143.4782 C92.6061,143.6372 93.6131,143.6862 94.7071,143.4832 C95.2431,143.3852 95.7981,143.2262 96.3681,142.9902 C96.7691,142.8382 97.2141,142.6232 97.6861,142.3162 C97.6861,142.3162 97.1211,143.2512 95.6201,143.6702 C95.9611,144.1012 96.3691,144.5932 96.3691,144.5932 C98.8941,144.5162 99.8591,142.8582 99.8591,142.8582 C99.8591,139.1952 98.2131,136.2262 98.2131,136.2262 C96.5671,134.9922 95.0071,135.0312 95.0071,135.0312"/>
      <path fill="#1F2225" d="M102.1215 148.0198C102.1215 148.8888 101.0885 149.3438 100.4465 148.7578L98.4975 146.9768C98.3085 146.8008 98.0635 146.7098 97.8175 146.7098 97.6375 146.7098 97.4555 146.7588 97.2935 146.8588 96.9115 147.0948 96.7325 147.5558 96.8575 147.9878L97.0955 148.8118 85.4605 148.8118C84.7215 148.8118 84.1215 148.2118 84.1215 147.4728L84.1215 132.0678C84.1215 131.3318 84.7245 130.7288 85.4605 130.7288L100.7725 130.7288C101.5175 130.7288 102.1215 131.3328 102.1215 132.0778L102.1215 148.0198zM100.7825 128.7288L85.4605 128.7288C83.6195 128.7288 82.1215 130.2308 82.1215 132.0778L82.1215 142.1078 82.1215 147.4628C82.1215 149.3098 83.6195 150.8118 85.4605 150.8118L98.4245 150.8118C98.7395 150.8118 99.0355 150.6648 99.2245 150.4138 99.2295 150.4058 99.2355 150.3978 99.2405 150.3898L102.4645 153.2418C102.6495 153.4038 102.8845 153.4878 103.1215 153.4878 103.2615 153.4878 103.4025 153.4578 103.5355 153.3978 103.8925 153.2358 104.1215 152.8798 104.1215 152.4878L104.1215 142.1078 104.1215 132.0778C104.1215 130.2308 102.6235 128.7288 100.7825 128.7288L100.7825 128.7288zM195.4467 165.4544C194.3967 166.2304 193.3077 166.9794 192.2097 167.6814 191.7437 167.9774 191.6077 168.5964 191.9047 169.0614 192.0947 169.3604 192.4187 169.5234 192.7487 169.5234 192.9327 169.5234 193.1187 169.4734 193.2857 169.3664 194.4227 168.6414 195.5497 167.8654 196.6357 167.0614 197.0797 166.7334 197.1737 166.1074 196.8457 165.6634 196.5167 165.2204 195.8907 165.1234 195.4467 165.4544M214.5063 97.7971C214.6643 98.1851 215.0383 98.4201 215.4333 98.4201 215.5583 98.4201 215.6863 98.3971 215.8093 98.3461 216.3213 98.1381 216.5673 97.5551 216.3593 97.0431 215.8513 95.7941 215.2923 94.5461 214.6983 93.3321 214.4553 92.8371 213.8553 92.6301 213.3603 92.8731 212.8643 93.1161 212.6583 93.7151 212.9013 94.2111 213.4753 95.3841 214.0153 96.5911 214.5063 97.7971M216.1577 102.4202C216.5437 103.6682 216.8907 104.9432 217.1877 106.2092 217.2957 106.6702 217.7067 106.9812 218.1597 106.9812 218.2357 106.9812 218.3127 106.9722 218.3897 106.9542 218.9277 106.8282 219.2607 106.2902 219.1347 105.7522 218.8267 104.4412 218.4687 103.1212 218.0687 101.8282 217.9057 101.3012 217.3427 101.0062 216.8177 101.1692 216.2897 101.3322 215.9947 101.8922 216.1577 102.4202M213.8076 144.9612C213.3156 144.7112 212.7136 144.9052 212.4616 145.3972 211.8696 146.5562 211.2276 147.7122 210.5546 148.8322 210.2696 149.3062 210.4226 149.9202 210.8956 150.2052 211.0576 150.3022 211.2346 150.3482 211.4106 150.3482 211.7496 150.3482 212.0806 150.1752 212.2676 149.8632 212.9656 148.7022 213.6296 147.5062 214.2436 146.3072 214.4946 145.8152 214.2996 145.2132 213.8076 144.9612M218.1035 111.0354C218.2915 112.3264 218.4375 113.6404 218.5365 114.9404 218.5765 115.4654 219.0145 115.8644 219.5325 115.8644 219.5585 115.8644 219.5835 115.8634 219.6095 115.8614 220.1605 115.8194 220.5725 115.3394 220.5305 114.7884 220.4285 113.4424 220.2775 112.0834 220.0825 110.7464 220.0025 110.2004 219.4885 109.8114 218.9495 109.9014 218.4025 109.9804 218.0235 110.4884 218.1035 111.0354M219.1035 127.8304C218.5585 127.7384 218.0445 128.1114 217.9555 128.6564 217.7455 129.9454 217.4875 131.2414 217.1895 132.5104 217.0635 133.0474 217.3965 133.5864 217.9345 133.7124 218.0115 133.7294 218.0885 133.7384 218.1645 133.7384 218.6175 133.7384 219.0285 133.4284 219.1365 132.9674 219.4445 131.6544 219.7115 130.3124 219.9295 128.9784 220.0185 128.4344 219.6485 127.9194 219.1035 127.8304M217.1235 136.6018C216.5975 136.4278 216.0335 136.7148 215.8615 137.2408 215.4545 138.4798 214.9985 139.7208 214.5065 140.9298 214.2985 141.4418 214.5445 142.0248 215.0565 142.2338 215.1795 142.2838 215.3075 142.3068 215.4325 142.3068 215.8275 142.3068 216.2015 142.0718 216.3595 141.6838 216.8685 140.4318 217.3405 139.1468 217.7615 137.8638 217.9345 137.3388 217.6485 136.7748 217.1235 136.6018M207.8447 152.9319C207.0787 153.9909 206.2667 155.0349 205.4317 156.0349 205.0777 156.4579 205.1347 157.0889 205.5587 157.4429 205.7457 157.5989 205.9727 157.6749 206.1987 157.6749 206.4857 157.6749 206.7697 157.5529 206.9677 157.3159 207.8317 156.2809 208.6717 155.2009 209.4647 154.1059 209.7887 153.6579 209.6887 153.0329 209.2407 152.7089 208.7937 152.3839 208.1687 152.4869 207.8447 152.9319M208.6645 85.2073C208.2115 85.5233 208.1005 86.1463 208.4165 86.6003 209.1655 87.6723 209.8845 88.7813 210.5545 89.8963 210.7425 90.2093 211.0735 90.3823 211.4135 90.3823 211.5885 90.3823 211.7665 90.3363 211.9275 90.2393 212.4005 89.9553 212.5535 89.3403 212.2695 88.8673 211.5755 87.7123 210.8315 86.5643 210.0565 85.4553 209.7405 85.0023 209.1175 84.8933 208.6645 85.2073M184.8222 173.762C184.9562 173.762 185.0922 173.736 185.2232 173.678 186.4552 173.138 187.6882 172.545 188.8892 171.916 189.3782 171.659 189.5672 171.056 189.3102 170.567 189.0542 170.076 188.4512 169.887 187.9602 170.145 186.8012 170.752 185.6102 171.324 184.4202 171.846 183.9142 172.068 183.6842 172.658 183.9052 173.163 184.0702 173.538 184.4372 173.762 184.8222 173.762M219.7114 118.8606C219.1304 118.8636 218.7074 119.2996 218.7034 119.8516 218.6924 121.1596 218.6364 122.4806 218.5374 123.7796 218.4954 124.3306 218.9084 124.8106 219.4584 124.8526 219.4844 124.8546 219.5104 124.8556 219.5354 124.8556 220.0534 124.8556 220.4914 124.4566 220.5314 123.9316 220.6344 122.5886 220.6914 121.2206 220.7034 119.8696 220.7074 119.3166 220.2634 118.8656 219.7114 118.8606M202.1269 159.6702C201.2109 160.5962 200.2489 161.5032 199.2679 162.3682 198.8529 162.7332 198.8139 163.3652 199.1789 163.7792 199.3759 164.0042 199.6519 164.1182 199.9289 164.1182 200.1639 164.1182 200.3999 164.0362 200.5899 163.8682 201.6049 162.9742 202.6009 162.0342 203.5479 161.0782 203.9369 160.6862 203.9339 160.0522 203.5409 159.6632 203.1489 159.2752 202.5149 159.2772 202.1269 159.6702M205.434 82.6975C205.632 82.9345 205.916 83.0565 206.203 83.0565 206.428 83.0565 206.655 82.9805 206.842 82.8255 207.267 82.4705 207.324 81.8415 206.97 81.4165 206.108 80.3825 205.196 79.3615 204.261 78.3845 203.878 77.9855 203.246 77.9705 202.847 78.3525 202.448 78.7345 202.434 79.3675 202.815 79.7665 203.72 80.7125 204.601 81.6975 205.434 82.6975M199.2704 76.3636C199.4604 76.5316 199.6964 76.6136 199.9314 76.6136 200.2084 76.6136 200.4844 76.4996 200.6814 76.2746 201.0464 75.8606 201.0074 75.2286 200.5924 74.8636 199.5824 73.9726 198.5254 73.1036 197.4514 72.2806 197.0134 71.9466 196.3854 72.0286 196.0484 72.4666 195.7124 72.9046 195.7964 73.5326 196.2344 73.8686 197.2724 74.6636 198.2944 75.5036 199.2704 76.3636M91.581 212.347C90.295 212.26 88.997 212.101 87.722 211.874 87.18 211.773 86.659 212.139 86.562 212.683 86.465 213.227 86.828 213.746 87.372 213.843 88.717 214.083 90.088 214.251 91.446 214.343 91.469 214.344 91.492 214.345 91.515 214.345 92.036 214.345 92.476 213.941 92.511 213.412 92.549 212.862 92.132 212.384 91.581 212.347M83.0121 210.6907C81.7801 210.2897 80.5611 209.8167 79.3891 209.2847 78.8871 209.0547 78.2931 209.2777 78.0651 209.7807 77.8371 210.2837 78.0591 210.8767 78.5621 211.1047 79.8011 211.6687 81.0901 212.1687 82.3931 212.5927 82.4961 212.6267 82.6001 212.6417 82.7021 212.6417 83.1241 212.6417 83.5161 212.3737 83.6531 211.9517 83.8241 211.4257 83.5371 210.8617 83.0121 210.6907M100.2997 211.8733C99.0257 212.1013 97.7267 212.2603 96.4407 212.3463 95.8897 212.3833 95.4727 212.8593 95.5097 213.4103 95.5457 213.9383 95.9847 214.3443 96.5067 214.3443 96.5287 214.3443 96.5517 214.3433 96.5747 214.3423 97.9337 214.2513 99.3047 214.0833 100.6517 213.8423 101.1957 213.7443 101.5567 213.2253 101.4597 212.6823 101.3627 212.1393 100.8447 211.7763 100.2997 211.8733M116.08 204.7337C115.072 205.5357 114.004 206.2937 112.909 206.9847 112.442 207.2797 112.302 207.8967 112.597 208.3637 112.787 208.6657 113.111 208.8307 113.443 208.8307 113.625 208.8307 113.81 208.7807 113.976 208.6757 115.133 207.9457 116.26 207.1457 117.325 206.2977 117.757 205.9547 117.829 205.3257 117.485 204.8927 117.141 204.4607 116.512 204.3897 116.08 204.7337M108.6332 209.2864C107.4572 209.8184 106.2372 210.2924 105.0082 210.6934 104.4832 210.8644 104.1962 211.4294 104.3682 211.9544 104.5062 212.3764 104.8972 212.6434 105.3192 212.6434 105.4212 212.6434 105.5262 212.6284 105.6292 212.5944 106.9272 212.1714 108.2152 211.6714 109.4572 211.1084 109.9612 210.8814 110.1842 210.2884 109.9562 209.7854 109.7282 209.2824 109.1352 209.0594 108.6332 209.2864M75.1093 206.9798C74.0213 206.2928 72.9533 205.5358 71.9383 204.7278 71.5053 204.3848 70.8763 204.4568 70.5333 204.8888 70.1893 205.3218 70.2613 205.9508 70.6933 206.2938 71.7663 207.1458 72.8923 207.9458 74.0423 208.6708 74.2083 208.7758 74.3923 208.8258 74.5743 208.8258 74.9063 208.8258 75.2313 208.6608 75.4213 208.3588 75.7163 207.8918 75.5763 207.2748 75.1093 206.9798M65.8232 198.4973C65.4872 198.0583 64.8592 197.9763 64.4212 198.3113 63.9832 198.6473 63.8992 199.2753 64.2352 199.7143 65.0662 200.7983 65.9642 201.8483 66.9052 202.8323 67.1022 203.0383 67.3652 203.1423 67.6282 203.1423 67.8772 203.1423 68.1252 203.0503 68.3192 202.8643 68.7192 202.4833 68.7332 201.8513 68.3512 201.4513 67.4602 200.5183 66.6102 199.5243 65.8232 198.4973M59.8017 186.387C59.4587 185.143 59.1817 183.865 58.9777 182.589 58.8907 182.043 58.3697 181.664 57.8327 181.759 57.2877 181.846 56.9157 182.359 57.0037 182.904 57.2187 184.252 57.5107 185.603 57.8727 186.918 57.9957 187.362 58.3977 187.653 58.8367 187.653 58.9247 187.653 59.0137 187.641 59.1027 187.616 59.6347 187.47 59.9477 186.919 59.8017 186.387M58.2162 169.8157C58.2902 169.8327 58.3652 169.8397 58.4382 169.8397 58.8952 169.8397 59.3072 169.5257 59.4122 169.0617 59.6852 167.8597 60.0262 166.6577 60.4242 165.4887 60.6032 164.9647 60.3242 164.3967 59.8012 164.2187 59.2772 164.0377 58.7102 164.3207 58.5322 164.8417 58.1102 166.0777 57.7502 167.3477 57.4622 168.6187 57.3402 169.1577 57.6772 169.6927 58.2162 169.8157M57.5634 178.7727C58.1154 178.7607 58.5534 178.3027 58.5424 177.7517 58.5364 177.4847 58.5334 177.2177 58.5334 176.9507 58.5334 175.9197 58.5774 174.8807 58.6654 173.8627 58.7134 173.3127 58.3054 172.8277 57.7554 172.7807 57.1984 172.7297 56.7204 173.1397 56.6734 173.6907 56.5804 174.7657 56.5334 175.8627 56.5334 176.9507 56.5334 177.2317 56.5364 177.5137 56.5424 177.7937 56.5534 178.3387 56.9994 178.7727 57.5414 178.7727L57.5634 178.7727zM122.1977 198.5013C121.4117 199.5273 120.5607 200.5223 119.6687 201.4543 119.2867 201.8543 119.3017 202.4863 119.7007 202.8683 119.8947 203.0543 120.1427 203.1463 120.3917 203.1463 120.6547 203.1463 120.9177 203.0423 121.1147 202.8373 122.0567 201.8513 122.9557 200.8023 123.7857 199.7183 124.1217 199.2793 124.0377 198.6513 123.5997 198.3153 123.1617 197.9803 122.5337 198.0643 122.1977 198.5013M61.4106 190.97C61.1916 190.463 60.6026 190.231 60.0966 190.447 59.5896 190.665 59.3556 191.253 59.5736 191.761 60.1126 193.012 60.7276 194.248 61.4026 195.437 61.5866 195.761 61.9246 195.943 62.2726 195.943 62.4406 195.943 62.6096 195.901 62.7656 195.812 63.2456 195.539 63.4136 194.929 63.1416 194.449 62.5026 193.324 61.9206 192.154 61.4106 190.97"/>
    </g>
    <rect width="260" height="226"/>
  </g>
</svg>
