<svg width="180" height="88" viewBox="0 0 180 88" fill="none" xmlns="http://www.w3.org/2000/svg">
<path opacity="0.2" d="M45.648 22.5133C43.488 14.08 33.768 14.1533 30.528 19.36C26.784 16.4267 13.824 16.28 15.192 26.2533H56.304C54.072 22 50.04 21.6333 45.648 22.5133Z" fill="#AEC7FF"/>
<path opacity="0.2" d="M78.408 64.9735C76.968 55.6602 67.464 48.5469 55.872 48.5469C46.512 48.5469 38.52 53.2402 34.992 59.9869C33.2764 59.0957 31.3737 58.6427 29.448 58.6669C26.2919 58.6624 23.2546 59.8926 20.9634 62.1034C18.6722 64.3142 17.3021 67.3368 17.136 70.5469C7.344 71.2069 0 74.0669 0 77.3669H94.248C94.824 71.0602 85.968 66.0002 78.408 64.9735Z" fill="#AEC7FF"/>
<path d="M70.416 52.0668C71.227 53.2206 71.6558 54.6078 71.64 56.0268V56.2468C71.6512 56.3735 71.6262 56.5008 71.568 56.6134V56.9801C71.496 57.0534 71.496 57.1268 71.496 57.2734V57.6401C71.4387 57.7261 71.4132 57.8301 71.424 57.9334C71.3979 57.9632 71.3781 57.9981 71.3658 58.0359C71.3534 58.0737 71.3487 58.1137 71.352 58.1534V58.3001L71.208 58.6668C71.2035 58.7233 71.1777 58.7758 71.136 58.8134C71.1164 58.9232 71.0664 59.0249 70.992 59.1068V59.2534C70.992 59.3104 70.979 59.3665 70.954 59.4174C70.929 59.4683 70.8927 59.5126 70.848 59.5468H70.56L70.416 59.7668H70.344V59.9134H70.272L70.056 60.2801H69.984L69.768 60.6468V60.7934C69.624 60.8668 69.552 61.0134 69.408 61.1601H69.336L68.976 61.6001C68.832 61.7468 68.688 61.8201 68.616 61.9668H68.544L68.112 62.3334H67.824L69.696 65.6334C69.9552 66.1013 70.172 66.5922 70.344 67.1001V68.2001V68.3468C70.4163 68.5098 70.4649 68.6827 70.488 68.8601L70.632 69.2268C70.6259 69.4009 70.6503 69.5747 70.704 69.7401C70.704 69.8868 70.704 69.9601 70.776 70.0334C70.7642 70.3044 70.7884 70.5757 70.848 70.8401V71.1334V72.0868C70.848 72.2334 70.776 72.3068 70.776 72.4534V72.6734V72.8934C70.75 72.9232 70.7301 72.958 70.7178 72.9959C70.7054 73.0337 70.7007 73.0737 70.704 73.1134C70.704 73.3334 70.632 73.5534 70.632 73.7001C70.4918 74.3129 70.274 74.9045 69.984 75.4601C69.689 75.9953 69.3259 76.4885 68.904 76.9268L68.184 77.5134L67.032 78.2468C66.6542 78.4693 66.2392 78.6185 65.808 78.6868L58.032 80.6668L50.256 82.6468H50.04C48.9213 82.9271 47.7473 82.8763 46.656 82.5001L45.072 81.6934C44.583 81.3171 44.1254 80.9001 43.704 80.4468C43.0703 80.228 42.5341 79.7859 42.192 79.2001H41.688C41.364 79.1968 41.0446 79.1217 40.752 78.9801H40.68L39.816 78.6134H39.672L39.312 78.3934H39.168L38.952 78.2468H38.808C38.6597 78.1918 38.5332 78.0887 38.448 77.9534H38.304C38.232 77.8801 38.088 77.8068 38.016 77.6601H37.944C37.0058 76.8573 36.2867 75.8218 35.856 74.6534L35.64 73.9934C35.568 73.8468 35.568 73.6268 35.496 73.4068C35.496 73.1868 35.424 72.9668 35.424 72.6734V72.0134V71.7934C35.4842 70.4996 35.855 69.2407 36.504 68.1268L36.648 67.9068C36.648 67.8334 36.72 67.8334 36.792 67.7601L36.936 67.6134C36.936 67.5401 37.008 67.4668 37.08 67.3934C37.6781 66.6274 38.4105 65.9809 39.24 65.4868C37.7187 65.2438 36.3079 64.5291 35.1998 63.4399C34.0918 62.3507 33.3404 60.94 33.048 59.4001L32.832 58.5201L32.256 58.1534C30.9082 57.2262 29.9162 55.8532 29.448 54.2668L28.872 52.1401C28.6276 51.2449 28.5655 50.3083 28.6893 49.3877C28.8131 48.4671 29.1203 47.5821 29.592 46.7868L29.304 45.8334C28.8084 43.8802 29.0705 41.8076 30.0359 40.046C31.0012 38.2844 32.5956 36.9692 34.488 36.3734L38.952 35.1268C38.9601 34.7088 39.085 34.3018 39.312 33.9534C39.7188 33.2144 40.389 32.663 41.184 32.4134L49.752 29.9934H50.04C50.6015 29.8679 51.1867 29.912 51.7239 30.1205C52.2611 30.3289 52.7269 30.6925 53.064 31.1668L56.592 30.0668L57.024 29.9201C58.8994 29.5285 60.8507 29.8691 62.4911 30.8743C64.1315 31.8794 65.3411 33.4758 65.88 35.3468L66.096 36.3001C66.9154 36.7361 67.6383 37.3384 68.2203 38.0699C68.8023 38.8015 69.231 39.6467 69.48 40.5534V40.9201L69.984 42.5334C70.226 43.4411 70.2869 44.3889 70.1633 45.321C70.0396 46.253 69.7338 47.1504 69.264 47.9601L69.552 48.8401C69.7542 49.6299 69.8511 50.4439 69.84 51.2601C70.0806 51.4893 70.2761 51.763 70.416 52.0668Z" fill="#F8F9F9"/>
<path d="M63.648 63.7266C63.2891 63.813 62.9131 63.7895 62.5672 63.6591C62.2214 63.5286 61.921 63.297 61.704 62.9933C61.4171 62.572 61.3018 62.0539 61.3824 61.5478C61.4629 61.0418 61.7331 60.5873 62.136 60.28C65.376 57.86 65.952 56.0266 65.592 55.5133C65.3125 55.0832 65.2088 54.5591 65.3029 54.0524C65.397 53.5456 65.6816 53.0963 66.096 52.8C66.5069 52.5193 67.0103 52.4157 67.496 52.5119C67.9817 52.6081 68.4103 52.8962 68.688 53.3133C69.624 54.6333 71.064 58.3 64.368 63.36C64.1695 63.553 63.9187 63.6807 63.648 63.7266Z" fill="#4086EA"/>
<path d="M69.48 55.9533C68.904 51.9199 64.656 52.5799 58.824 53.7533V53.9733C58.9043 54.2174 59.0324 54.4425 59.2004 54.6349C59.3685 54.8272 59.5731 54.983 59.8019 55.0926C60.0306 55.2023 60.2788 55.2636 60.5315 55.2728C60.7842 55.2821 61.0361 55.2392 61.272 55.1466C62.136 54.8533 64.728 54.2666 65.592 55.5133C66.456 56.7599 65.376 57.8599 62.136 60.2799C61.7331 60.5872 61.4629 61.0417 61.3824 61.5478C61.3018 62.0539 61.4171 62.572 61.704 62.9933C61.921 63.297 62.2214 63.5286 62.5672 63.659C62.9131 63.7895 63.2891 63.813 63.648 63.7266C63.9187 63.6807 64.1695 63.5529 64.368 63.3599C68.4 60.3533 69.48 57.7866 69.48 55.9533Z" fill="#0654B5"/>
<path d="M40.032 74.7266C39.5936 74.8277 39.1342 74.7648 38.7376 74.5494C38.341 74.334 38.0338 73.9804 37.872 73.5533C37.3823 72.2461 37.4 70.798 37.9217 69.5037C38.4434 68.2094 39.4298 67.1663 40.68 66.5866L45.936 64.0933C46.1629 63.9874 46.4081 63.928 46.6576 63.9186C46.907 63.9091 47.1558 63.9499 47.3899 64.0384C47.6239 64.1269 47.8385 64.2615 48.0214 64.4345C48.2043 64.6075 48.352 64.8155 48.456 65.0466C48.56 65.2778 48.6183 65.5275 48.6276 65.7816C48.6368 66.0356 48.5968 66.2891 48.5099 66.5274C48.423 66.7657 48.2908 66.9843 48.121 67.1706C47.9511 67.3569 47.7469 67.5074 47.52 67.6133L42.264 70.0333C41.8823 70.2104 41.5809 70.5285 41.4205 70.9232C41.2602 71.3179 41.2528 71.7599 41.4 72.16C41.5676 72.6374 41.5491 73.1621 41.3482 73.626C41.1472 74.0899 40.7792 74.4576 40.32 74.6533L40.032 74.7266Z" fill="#4086EA"/>
<path d="M44.28 67.0999C42.336 67.9066 40.968 69.2999 41.256 71.6466C41.2535 71.3073 41.3473 70.9746 41.5261 70.6883C41.705 70.4021 41.9612 70.1746 42.264 70.0333L46.368 68.1266C45.864 67.3199 45.144 66.7333 44.28 67.0999Z" fill="#0654B5"/>
<path d="M63.864 60.6468C63.534 60.0994 63.0443 59.6709 62.4634 59.421C61.8824 59.1712 61.2393 59.1126 60.624 59.2534L46.08 62.8468C45.482 63.0034 44.9492 63.3517 44.5603 63.8402C44.1713 64.3288 43.9469 64.9317 43.92 65.5601L43.56 73.6268C43.4947 75.598 44.1343 77.5264 45.36 79.0534C45.891 79.6829 46.581 80.1523 47.3552 80.4108C48.1293 80.6693 48.9582 80.7071 49.752 80.5201L65.376 76.6334C66.1585 76.4329 66.8729 76.0202 67.4435 75.4391C68.014 74.8581 68.4192 74.1304 68.616 73.3334C69.0189 71.3831 68.7119 69.3502 67.752 67.6134L63.864 60.6468Z" fill="#FF7259"/>
<path d="M45.36 79.0533C45.891 79.6828 46.5809 80.1522 47.3551 80.4107C48.1293 80.6692 48.9582 80.707 49.752 80.52L65.376 76.6333C66.1585 76.4329 66.8729 76.0201 67.4434 75.4391C68.0139 74.858 68.4192 74.1303 68.616 73.3333C68.9193 71.8676 68.8197 70.3451 68.328 68.9333L43.632 75.02C43.8105 76.507 44.4111 77.9087 45.36 79.0533Z" fill="#ED4C4C"/>
<path d="M66.24 72.8933L47.232 77.5867C46.2865 77.857 45.283 77.8314 44.352 77.5133C44.64 78.0267 45 78.54 45.36 79.0533C45.891 79.6828 46.5809 80.1522 47.3551 80.4107C48.1293 80.6692 48.9582 80.707 49.752 80.52L65.376 76.6333C66.1584 76.4328 66.8729 76.0201 67.4434 75.439C68.0139 74.858 68.4192 74.1303 68.616 73.3333C68.6968 72.7254 68.7449 72.1133 68.76 71.5C68.0702 72.2032 67.1947 72.6872 66.24 72.8933Z" fill="#ED4C4C"/>
<path d="M57.166 32.1459L35.1242 38.4563C32.2531 39.2782 30.5799 42.3151 31.3869 45.2394L35.1277 58.7941C35.9347 61.7183 38.9164 63.4226 41.7875 62.6006L63.8292 56.2902C66.7003 55.4682 68.3736 52.4313 67.5665 49.5071L63.8258 35.9524C63.0187 33.0281 60.0371 31.3239 57.166 32.1459Z" fill="#FF7259"/>
<path d="M66.888 47.1533L67.536 49.5C67.7332 50.1982 67.7927 50.9292 67.7109 51.651C67.6292 52.3727 67.4079 53.0708 67.0597 53.7049C66.7116 54.339 66.2436 54.8966 65.6827 55.3454C65.1219 55.7943 64.4792 56.1255 63.792 56.32L41.76 62.6267C41.0792 62.8266 40.3661 62.8863 39.6624 62.8022C38.9587 62.7181 38.2785 62.4919 37.6617 62.1368C37.0449 61.7817 36.5038 61.3049 36.0701 60.7342C35.6364 60.1635 35.3189 59.5105 35.136 58.8133L34.488 56.4667C34.6709 57.1638 34.9884 57.8169 35.4221 58.3875C35.8558 58.9582 36.3969 59.435 37.0137 59.7901C37.6305 60.1452 38.3107 60.3714 39.0144 60.4556C39.7181 60.5397 40.4312 60.48 41.112 60.28L63.216 53.9733C63.8968 53.7711 64.5317 53.4343 65.0847 52.9821C65.6377 52.5299 66.0978 51.9712 66.4388 51.3379C66.7797 50.7046 66.9949 50.0091 67.072 49.2911C67.1491 48.5731 67.0865 47.8467 66.888 47.1533Z" fill="#ED4C4C"/>
<path d="M49.2223 56.4645L54.2129 55.0358C54.507 54.9516 54.8219 54.9898 55.0884 55.1421C55.3548 55.2944 55.5509 55.5483 55.6336 55.8478L56.3545 58.4599L49.2152 60.5039L48.4943 57.8918C48.4143 57.6042 48.4451 57.2964 48.5804 57.0311C48.7157 56.7659 48.9453 56.5633 49.2223 56.4645Z" fill="#FFDC53"/>
<path d="M55.6867 56.0933L48.5474 58.1372L49.1942 60.481L56.3335 58.4371L55.6867 56.0933Z" fill="#F9B300"/>
<path d="M67.032 47.5934L64.368 37.8401C65.0913 38.1092 65.7421 38.5482 66.2676 39.1216C66.793 39.695 67.1782 40.3866 67.392 41.1401L67.968 43.1934C68.18 43.9486 68.2054 44.7454 68.0421 45.5131C67.8788 46.2807 67.5318 46.9953 67.032 47.5934Z" fill="#FFDC53"/>
<path d="M67.536 41.5801L67.968 43.1934C68.1799 43.9486 68.2054 44.7454 68.0421 45.5131C67.8788 46.2807 67.5318 46.9953 67.032 47.5934L66.168 44.5134C67.248 43.6334 67.752 42.5334 67.536 41.5801Z" fill="#F9B300"/>
<path d="M34.56 56.9067L31.896 47.1533C31.3961 47.7514 31.0491 48.466 30.8858 49.2337C30.7225 50.0013 30.748 50.7981 30.96 51.5533L31.536 53.6067C31.7497 54.3602 32.1349 55.0517 32.6604 55.6251C33.1858 56.1985 33.8366 56.6376 34.56 56.9067Z" fill="#FFDC53"/>
<path d="M33.696 53.8267L34.56 56.9067C33.8367 56.6377 33.1858 56.1986 32.6604 55.6252C32.135 55.0518 31.7497 54.3603 31.536 53.6067L31.104 51.9934C31.32 52.9467 32.328 53.6067 33.696 53.8267Z" fill="#F9B300"/>
<path d="M41.7727 34.6019L50.3676 32.1412C50.6066 32.0728 50.8624 32.1039 51.0789 32.2276C51.2954 32.3514 51.4548 32.5576 51.5219 32.801L51.7752 33.7188L41.3781 36.6954L41.1249 35.7776C41.0577 35.5342 41.0882 35.2736 41.2097 35.0531C41.3312 34.8326 41.5337 34.6703 41.7727 34.6019Z" fill="#70A9FA"/>
<path d="M43.1032 34.1598L50.4505 32.0564C50.671 31.9932 50.9072 32.0219 51.1071 32.1361C51.3069 32.2503 51.454 32.4407 51.516 32.6654L51.7888 33.6538L42.778 36.2335L42.5052 35.2451C42.4432 35.0204 42.4714 34.7799 42.5835 34.5763C42.6957 34.3728 42.8826 34.223 43.1032 34.1598Z" fill="#4086EA"/>
<path d="M57.4387 36.51L38.5853 41.9075C37.1307 42.324 36.2829 43.8627 36.6918 45.3443L38.9811 53.6395C39.39 55.1211 40.9007 55.9846 42.3553 55.5681L61.2087 50.1706C62.6634 49.7541 63.5111 48.2154 63.1023 46.7338L60.813 38.4386C60.4041 36.957 58.8934 36.0935 57.4387 36.51Z" fill="#ED4C4C"/>
<path d="M57.2882 35.9848L38.4349 41.3824C36.9802 41.7989 36.1324 43.3376 36.5413 44.8192L38.8306 53.1144C39.2395 54.596 40.7502 55.4595 42.2049 55.043L61.0582 49.6454C62.5129 49.229 63.3607 47.6903 62.9518 46.2086L60.6625 37.9135C60.2536 36.4318 58.7429 35.5684 57.2882 35.9848Z" fill="black"/>
<path d="M44.4371 45.1016L40.4862 46.2327C40.2565 46.2985 40.12 46.532 40.1814 46.7542C40.2427 46.9765 40.4786 47.1033 40.7083 47.0376L44.6592 45.9064C44.8889 45.8407 45.0254 45.6072 44.964 45.385C44.9027 45.1627 44.6668 45.0359 44.4371 45.1016Z" fill="#FFF0A6"/>
<path d="M54.1618 43.1506L58.39 41.9401C58.6197 41.8744 58.7561 41.6409 58.6948 41.4186C58.6335 41.1964 58.3975 41.0695 58.1679 41.1353L53.9397 42.3458C53.71 42.4115 53.5736 42.645 53.6349 42.8673C53.6962 43.0895 53.9321 43.2164 54.1618 43.1506Z" fill="#FFF0A6"/>
<path d="M57.024 60.1333L49.752 61.9666L49.968 67.32C49.9763 67.4427 50.0098 67.5623 50.0664 67.671C50.1229 67.7798 50.2012 67.8752 50.2962 67.9513C50.3911 68.0273 50.5007 68.0822 50.6178 68.1124C50.7349 68.1426 50.857 68.1474 50.976 68.1266L58.68 66.22C58.7981 66.1904 58.9079 66.1335 59.0009 66.0537C59.0939 65.974 59.1676 65.8735 59.2163 65.76C59.2651 65.6465 59.2875 65.5232 59.2819 65.3995C59.2763 65.2758 59.2428 65.155 59.184 65.0466L57.024 60.1333Z" fill="#FFDC53"/>
<path d="M49.032 48.0332C49.5442 47.1639 50.3191 46.4869 51.2406 46.1036C52.1621 45.7202 53.1807 45.6511 54.144 45.9065" stroke="#FFF0A6" stroke-width="0.917356" stroke-linecap="round" stroke-linejoin="round"/>
<path d="M46.224 77.6601C46.0206 77.6891 45.8141 77.6365 45.648 77.5134L43.92 75.6801C43.8525 75.5677 43.824 75.4355 43.8393 75.3047C43.8545 75.1739 43.9125 75.0521 44.004 74.9589C44.0954 74.8658 44.215 74.8067 44.3434 74.7912C44.4719 74.7757 44.6017 74.8046 44.712 74.8734L46.512 76.7068C46.6133 76.8157 46.6697 76.9601 46.6697 77.1101C46.6697 77.2601 46.6133 77.4045 46.512 77.5134L46.224 77.6601Z" fill="#22262E"/>
<path d="M44.64 78.3932H44.568C44.4079 78.3942 44.2532 78.3348 44.1335 78.2265C44.0138 78.1182 43.9378 77.9686 43.92 77.8066L43.776 75.3132C43.7749 75.1695 43.8256 75.0304 43.9185 74.9223C44.0114 74.8142 44.14 74.7445 44.28 74.7266C44.3558 74.7163 44.4327 74.7215 44.5065 74.7418C44.5802 74.7622 44.6493 74.7972 44.7096 74.845C44.7699 74.8928 44.8202 74.9523 44.8577 75.0201C44.8952 75.0879 44.9191 75.1626 44.928 75.2399L45.072 77.7332C45.08 77.8761 45.0421 78.0177 44.9642 78.1367C44.8863 78.2557 44.7725 78.3458 44.64 78.3932Z" fill="#22262E"/>
<path d="M43.992 77.0733H42.408C41.4098 76.9601 40.4605 76.5729 39.6616 75.9529C38.8627 75.3329 38.2441 74.5035 37.872 73.5533C37.7794 73.3177 37.734 73.0656 37.7383 72.8118C37.7427 72.558 37.7967 72.3076 37.8973 72.0754C37.9979 71.8432 38.143 71.6337 38.3241 71.4594C38.5052 71.285 38.7187 71.1492 38.952 71.06C39.4207 70.8892 39.9359 70.9081 40.3914 71.1128C40.8468 71.3175 41.2078 71.6923 41.4 72.16C41.5051 72.4548 41.6888 72.7138 41.9304 72.9081C42.1721 73.1024 42.4621 73.2243 42.768 73.26H43.704C43.9501 73.2785 44.1902 73.3464 44.4104 73.4598C44.6306 73.5732 44.8267 73.7298 44.9873 73.9206C45.1479 74.1115 45.2698 74.3327 45.3462 74.5718C45.4225 74.8108 45.4517 75.0628 45.432 75.3133C45.4239 75.7297 45.2769 76.1308 45.0152 76.4506C44.7534 76.7705 44.3926 76.9901 43.992 77.0733Z" fill="#4086EA"/>
<path d="M58.752 55.6601C58.6331 55.6906 58.5078 55.6818 58.3942 55.6348C58.2806 55.5878 58.1847 55.5051 58.1205 55.3987C58.0562 55.2924 58.027 55.1679 58.0369 55.0435C58.0469 54.919 58.0956 54.8011 58.176 54.7068L59.904 53.0201C59.9495 52.9444 60.0112 52.8803 60.0846 52.8324C60.1579 52.7846 60.2409 52.7543 60.3274 52.7438C60.4139 52.7334 60.5016 52.743 60.5839 52.7721C60.6662 52.8012 60.741 52.8488 60.8025 52.9116C60.8641 52.9743 60.9109 53.0504 60.9395 53.1343C60.968 53.2181 60.9775 53.3074 60.9672 53.3955C60.957 53.4836 60.9272 53.5682 60.8803 53.6429C60.8333 53.7176 60.7703 53.7804 60.696 53.8268L58.968 55.5134L58.752 55.6601Z" fill="#22262E"/>
<path d="M60.48 53.9733H60.048L57.888 52.9467C57.8214 52.9086 57.7629 52.8574 57.7158 52.796C57.6688 52.7347 57.6343 52.6645 57.6142 52.5894C57.5941 52.5143 57.5888 52.4359 57.5988 52.3588C57.6087 52.2816 57.6336 52.2072 57.672 52.14C57.7021 52.0745 57.7454 52.0163 57.7991 51.969C57.8528 51.9218 57.9157 51.8867 57.9837 51.8659C58.0516 51.8451 58.1231 51.8392 58.1935 51.8485C58.2639 51.8579 58.3315 51.8822 58.392 51.92L60.552 52.9467C60.6248 52.9781 60.6904 53.0245 60.7448 53.0829C60.7992 53.1413 60.8413 53.2105 60.8683 53.2862C60.8953 53.3619 60.9067 53.4424 60.9019 53.5228C60.897 53.6031 60.8759 53.6816 60.84 53.7533C60.7441 53.8615 60.6188 53.938 60.48 53.9733Z" fill="#22262E"/>
<path d="M60.48 53.9733H57.96C57.8881 53.9839 57.8147 53.9785 57.745 53.9575C57.6753 53.9364 57.6108 53.9003 57.5561 53.8515C57.5014 53.8028 57.4577 53.7425 57.428 53.6749C57.3983 53.6073 57.3833 53.534 57.384 53.46C57.3736 53.3867 57.3789 53.3119 57.3996 53.2409C57.4202 53.1699 57.4557 53.1043 57.5035 53.0486C57.5514 52.9928 57.6106 52.9483 57.6769 52.918C57.7433 52.8878 57.8153 52.8725 57.888 52.8733H60.264C60.3398 52.863 60.4167 52.8682 60.4905 52.8886C60.5642 52.9089 60.6333 52.944 60.6936 52.9917C60.7539 53.0395 60.8042 53.099 60.8417 53.1668C60.8792 53.2346 60.9031 53.3093 60.912 53.3866C60.905 53.517 60.8603 53.6423 60.7834 53.7467C60.7065 53.8511 60.6009 53.93 60.48 53.9733Z" fill="#22262E"/>
<path d="M67.608 56.2466C67.2387 56.3489 66.8474 56.3335 66.4869 56.2024C66.1265 56.0713 65.8141 55.8307 65.592 55.5132C64.728 54.2666 62.136 54.8532 61.272 55.1466C61.0361 55.2392 60.7842 55.2821 60.5315 55.2728C60.2789 55.2635 60.0307 55.2022 59.8019 55.0926C59.5731 54.9829 59.3685 54.8272 59.2005 54.6349C59.0324 54.4425 58.9043 54.2174 58.824 53.9732C58.6816 53.4962 58.7211 52.9821 58.9347 52.5335C59.1482 52.0849 59.5201 51.7348 59.976 51.5533C62.208 50.7466 66.528 50.1599 68.688 53.3132C68.8377 53.5125 68.9456 53.7409 69.0051 53.9844C69.0646 54.2279 69.0744 54.4812 69.0339 54.7286C68.9934 54.9761 68.9035 55.2125 68.7697 55.4231C68.6359 55.6338 68.461 55.8142 68.256 55.9532C68.071 56.1105 67.8466 56.2121 67.608 56.2466Z" fill="#4086EA"/>
<path d="M37.584 72.6001C37.6369 72.9298 37.7338 73.2505 37.872 73.5534C38.2441 74.5036 38.8626 75.333 39.6616 75.953C40.4605 76.573 41.4098 76.9602 42.408 77.0734H43.992C44.381 76.9933 44.7331 76.7845 44.9935 76.4795C45.254 76.1744 45.4081 75.7903 45.432 75.3868C40.968 76.1201 38.016 73.9934 37.584 72.6001Z" fill="#0654B5"/>
<path d="M69.048 54.4868C67.68 52.1401 63.792 52.7268 58.824 53.7534V53.9734C58.9043 54.2176 59.0324 54.4427 59.2004 54.635C59.3685 54.8274 59.5731 54.9831 59.8019 55.0928C60.0306 55.2024 60.2788 55.2637 60.5315 55.273C60.7842 55.2823 61.0361 55.2393 61.272 55.1468C62.136 54.8534 64.728 54.2668 65.592 55.5134L67.104 57.8601L69.192 55.7334L69.048 54.4868Z" fill="#0654B5"/>
<path d="M37.512 71.4999V72.0132C38.0486 71.5685 38.716 71.3197 39.4076 71.3064C40.0993 71.2931 40.7754 71.5161 41.328 71.9399V71.6465C40.8363 71.1202 40.1621 70.8104 39.4493 70.783C38.7365 70.7556 38.0413 71.0128 37.512 71.4999Z" fill="black"/>
<path d="M41.976 65.9268L41.616 66.1468C42.1771 66.5317 42.6089 67.0825 42.8535 67.7249C43.098 68.3673 43.1436 69.0705 42.984 69.7401L43.344 69.5201C43.632 67.6868 43.056 66.5134 41.976 65.9268Z" fill="black"/>
<path d="M41.832 72.8199C41.449 72.7802 41.0626 72.8455 40.7127 73.009C40.3628 73.1724 40.0621 73.4282 39.8418 73.7498C39.6216 74.0714 39.4897 74.447 39.4598 74.838C39.43 75.2289 39.5032 75.6208 39.672 75.9732L40.176 76.3399C39.672 74.4332 40.248 73.4799 41.976 72.9666L41.832 72.8199Z" fill="black"/>
<path d="M38.592 68.2734L38.304 68.64C39.816 67.6134 41.544 69.52 41.688 70.4734L41.904 70.2534C41.8832 69.8666 41.7687 69.4912 41.5708 69.1605C41.3729 68.8298 41.0977 68.5541 40.7698 68.358C40.4418 68.162 40.0713 68.0516 39.6913 68.0369C39.3113 68.0221 38.9337 68.1033 38.592 68.2734Z" fill="black"/>
<path d="M66.456 61.6C65.88 59.0333 64.728 58.8133 63.936 58.74L63.648 59.0333C65.736 59.4733 66.168 61.8933 66.168 61.8933L66.456 61.6Z" fill="black"/>
<path d="M65.448 56.6867L65.304 57.1267C67.248 57.0533 68.256 57.7867 68.616 58.96L68.904 58.3733C67.824 56.76 66.744 56.32 65.448 56.6867Z" fill="black"/>
<path d="M62.496 50.9666H61.92C61.632 52.0666 61.776 53.8266 62.784 54.7066H63.144C62.4521 53.5957 62.2192 52.2515 62.496 50.9666Z" fill="black"/>
<path d="M64.944 54.9999C65.5517 53.8497 65.9885 52.6141 66.24 51.3333L66.744 51.5533C66.5404 52.8583 66.0747 54.1065 65.376 55.2199L64.944 54.9999Z" fill="black"/>
<path opacity="0.2" d="M169.128 23.8334C168.12 17.4534 161.568 12.54 153.576 12.54C147.168 12.54 141.624 15.7667 139.248 20.3867C137.99 19.7184 136.586 19.3847 135.167 19.4166C133.748 19.4485 132.361 19.845 131.132 20.5692C129.904 21.2934 128.876 22.3219 128.142 23.5592C127.408 24.7965 126.994 26.2025 126.936 27.6467C120.24 28.16 115.128 30.0667 115.128 32.34H180C180.36 28.0134 174.312 24.5667 169.128 23.8334Z" fill="#AEC7FF"/>
<path d="M162.216 65.12C163.174 67.0714 163.429 69.3034 162.936 71.4266C162.671 72.669 162.169 73.846 161.458 74.8906C160.746 75.9352 159.84 76.8268 158.79 77.5146C157.74 78.2023 156.568 78.6728 155.34 78.8991C154.112 79.1253 152.852 79.103 151.632 78.8333L123.552 72.6733C121.087 72.1135 118.939 70.5848 117.576 68.42C116.317 66.4173 115.82 64.0152 116.178 61.6654C116.536 59.3156 117.724 57.1799 119.52 55.66C118.562 53.7085 118.307 51.4765 118.8 49.3533C119.272 47.1992 120.448 45.2721 122.135 43.8867C123.822 42.5014 125.921 41.7399 128.088 41.7266C128.766 41.7236 129.442 41.7974 130.104 41.9466L132.048 42.3866C132.034 41.9941 132.058 41.601 132.12 41.2133C132.696 28.82 135.072 22.8066 139.32 22.8066H139.536C142.488 22.9533 143.856 25.96 144.432 28.4533C145.167 32.2175 145.434 36.0612 145.224 39.8933C146.495 36.6194 148.112 33.4965 150.048 30.58C151.992 27.7933 153.936 26.4733 155.88 26.4733C156.376 26.4575 156.868 26.5579 157.32 26.7666C160.056 27.8666 160.416 31.1666 160.2 33.7333C159.984 36.3 158.76 41.2133 156.672 46.64L156.24 47.6666L158.184 48.1066C160.649 48.6664 162.797 50.1951 164.16 52.36C165.419 54.3626 165.916 56.7647 165.558 59.1146C165.2 61.4644 164.012 63.6001 162.216 65.12Z" fill="#F8F9F9"/>
<path d="M157.713 50.214L129.634 44.0307C125.67 43.1577 121.761 45.7232 120.904 49.761L120.897 49.7969C120.039 53.8347 122.558 57.8156 126.523 58.6886L154.602 64.872C158.566 65.745 162.475 63.1794 163.332 59.1417L163.34 59.1058C164.197 55.068 161.678 51.087 157.713 50.214Z" fill="#FF7ABC"/>
<path d="M155.262 61.9621L127.183 55.7787C123.219 54.9057 119.31 57.4713 118.453 61.5091L118.445 61.5449C117.588 65.5827 120.107 69.5637 124.072 70.4367L152.151 76.6201C156.115 77.4931 160.024 74.9275 160.881 70.8897L160.889 70.8539C161.746 66.8161 159.227 62.8351 155.262 61.9621Z" fill="#FF7ABC"/>
<path d="M148.849 60.692C149.252 59.901 149.12 59.0179 148.556 58.7197C147.991 58.4215 147.206 58.821 146.804 59.6121C146.401 60.4032 146.533 61.2862 147.098 61.5844C147.662 61.8826 148.447 61.4831 148.849 60.692Z" fill="#1B1926"/>
<path d="M134.673 58.8198C135.309 58.7859 135.787 58.037 135.741 57.1472C135.695 56.2574 135.143 55.5636 134.508 55.5975C133.872 55.6314 133.394 56.3803 133.44 57.2701C133.486 58.1599 134.038 58.8537 134.673 58.8198Z" fill="#1B1926"/>
<path d="M154.584 45.7603C150.336 56.7603 148.032 57.2736 145.8 56.3936C143.568 55.5136 142.272 53.5336 146.52 42.5336C150.768 31.5336 154.296 27.9403 156.528 28.8203C158.76 29.7003 158.904 34.8336 154.584 45.7603Z" fill="#FF7ABC"/>
<path d="M134.28 41.2869C133.704 53.0936 135.576 54.5602 137.952 54.6336C140.328 54.7069 142.416 53.5336 142.992 41.7269C143.568 29.9202 141.84 25.1536 139.464 25.0802C137.088 25.0069 134.856 29.4802 134.28 41.2869Z" fill="#FF7ABC"/>
<path d="M137.88 61.9668V62.1868C138.082 62.6381 138.386 63.0344 138.767 63.3435C139.148 63.6526 139.595 63.8659 140.072 63.9659C140.549 64.066 141.043 64.0499 141.512 63.9192C141.982 63.7885 142.415 63.5467 142.776 63.2135L142.92 63.0668" stroke="#1B1926" stroke-width="2.00523" stroke-linecap="round" stroke-linejoin="round"/>
<path d="M157.536 50.2334L153.144 49.28C153.648 48.2534 154.08 47.08 154.584 45.76C158.904 34.8334 158.76 29.7 156.528 28.82C154.296 27.94 150.84 31.5334 146.52 42.5334C145.8 44.44 145.224 46.0534 144.792 47.4467L155.664 53.8267C156.552 54.3648 157.237 55.1913 157.608 56.1734C158.007 57.18 158.046 58.2976 157.716 59.3302C157.387 60.3627 156.712 61.2442 155.808 61.82L152.352 64.02L153.576 66.5867C154.361 68.2309 154.636 70.0791 154.366 71.8863C154.096 73.6936 153.293 75.3746 152.064 76.7067C153.579 77.0565 155.164 76.908 156.591 76.2826C158.017 75.6572 159.213 74.5871 160.005 73.2262C160.797 71.8652 161.145 70.2835 160.999 68.7084C160.853 67.1332 160.22 65.6459 159.192 64.46C160.598 63.7842 161.761 62.6751 162.514 61.2897C163.268 59.9042 163.575 58.3125 163.392 56.7396C163.209 55.1666 162.545 53.6922 161.494 52.5246C160.443 51.3571 159.059 50.5555 157.536 50.2334Z" fill="#F763BE"/>
<path d="M142.56 46.9334C142.704 45.4667 142.848 43.7801 142.992 41.7267C143.568 29.9201 141.84 25.1534 139.464 25.0801C135.288 32.0467 135.576 45.4667 135.576 45.4667L139.68 51.4067C139.817 51.6207 139.997 51.803 140.208 51.9419C140.419 52.0809 140.656 52.1733 140.904 52.2134C141.218 52.2876 141.547 52.2778 141.856 52.1848C142.166 52.0918 142.447 51.9188 142.671 51.6826C142.896 51.4465 143.057 51.1551 143.138 50.837C143.22 50.5188 143.219 50.1845 143.136 49.8667L142.56 46.9334Z" fill="#F763BE"/>
<path d="M126.864 32.34L125.856 34.54C126.074 34.9248 126.221 35.3475 126.288 35.7867L126.504 39.2333C126.53 39.5906 126.486 39.9495 126.374 40.2893C126.263 40.6292 126.087 40.9432 125.856 41.2134V42.0934C125.884 42.4919 125.821 42.8916 125.671 43.2608C125.521 43.6301 125.289 43.9585 124.992 44.22L125.28 47.52L125.64 51.92C125.764 53.6216 125.244 55.307 124.186 56.63C123.128 57.953 121.613 58.8131 119.952 59.0334H119.232L119.376 61.5267C119.459 62.6094 119.133 63.6835 118.463 64.5289C117.794 65.3743 116.833 65.9269 115.776 66.0733H115.56C115.007 66.1407 114.447 66.0908 113.914 65.9267C113.381 65.7627 112.887 65.488 112.464 65.12C112.042 64.7552 111.697 64.3073 111.45 63.8032C111.202 63.2991 111.057 62.7492 111.024 62.1867L110.592 56.98V56.6867L108.216 56.8334C107.729 57.7707 107.032 58.5779 106.181 59.1895C105.331 59.8011 104.35 60.1999 103.32 60.3534H102.528L102.744 62.7733C102.826 63.8673 102.489 64.9511 101.805 65.7983C101.121 66.6456 100.142 67.1908 99.072 67.32H98.856C97.7447 67.3822 96.6526 67.0051 95.8076 66.2674C94.9625 65.5296 94.4296 64.4881 94.32 63.36V62.3334C92.1409 62.6142 89.9329 62.5647 87.768 62.1867L81 69.8867C80.4905 70.502 79.7692 70.8955 78.984 70.9867H78.192C76.752 70.7667 74.52 70.0334 72.144 67.32C69.768 64.6067 69.12 62.26 69.12 60.7934V60.28C67.7168 58.8577 66.6997 57.089 66.168 55.1467C65.088 51.6267 65.52 49.28 66.096 47.96C66.3004 47.4556 66.6245 47.0107 67.0391 46.6652C67.4538 46.3197 67.9461 46.0842 68.472 45.98L69.336 45.8334C68.4539 42.8664 68.1362 39.7551 68.4 36.6667C68.0489 36.1685 67.8261 35.5886 67.752 34.98C67.7402 34.6118 67.7644 34.2434 67.824 33.88L68.256 31.9L55.368 28.2334C52.5238 27.4408 50.0799 25.5805 48.528 23.0267L42.624 13.2733H42.408C41.4118 13.0008 40.5593 12.343 40.032 11.44L38.16 8.06668C37.9224 7.69665 37.7827 7.27038 37.7544 6.8292C37.7262 6.38801 37.8102 5.94686 37.9986 5.5485C38.1869 5.15015 38.473 4.80809 38.8293 4.55548C39.1855 4.30287 39.5998 4.14828 40.032 4.10668C40.3668 4.01838 40.7209 4.04413 41.04 4.18002L52.632 7.40668L52.344 6.96668C52.1072 6.58682 51.9697 6.15162 51.9445 5.70241C51.9193 5.2532 52.0073 4.80488 52.2 4.40002C52.4035 4.01479 52.6911 3.68225 53.0406 3.42799C53.3901 3.17372 53.7922 3.0045 54.216 2.93335H55.296L87.624 12.1C88.0257 11.6376 88.5156 11.2633 89.064 11L89.928 10.78C90.5603 10.7045 91.2012 10.7798 91.8 11C95.4108 7.75583 99.9064 5.70938 104.688 5.13335L106.272 4.98668C107.54 4.85308 108.816 4.82855 110.088 4.91335C110.288 4.52474 110.557 4.17677 110.88 3.88668C111.206 3.66485 111.574 3.51496 111.96 3.44668H112.752L113.256 3.59335C115.632 4.18002 117.72 4.69335 119.448 5.79335H119.52C119.879 6.03529 120.176 6.36242 120.384 6.74668L120.96 8.14002C122.803 9.13119 124.422 10.5052 125.712 12.1734C127.763 15.0769 128.961 18.5151 129.165 22.0862C129.369 25.6573 128.571 29.2137 126.864 32.34Z" fill="#F8F9F9"/>
<path d="M92.1599 19.7268L58.3199 10.1201L64.6559 20.6801C65.9074 22.7169 67.8578 24.2068 70.1279 24.8601L97.0559 32.4868L97.7759 29.8468L92.1599 19.7268Z" fill="#DAE2ED"/>
<path d="M99.576 17.9668L54.648 5.28014C54.5857 5.27472 54.5231 5.28591 54.4664 5.3126C54.4096 5.33929 54.3607 5.38056 54.3244 5.43235C54.2881 5.48415 54.2656 5.54468 54.2592 5.608C54.2528 5.67132 54.2627 5.73524 54.288 5.79347L56.232 9.09347C56.3317 9.27341 56.466 9.43107 56.6268 9.55706C56.7876 9.68304 56.9716 9.77478 57.168 9.82681L58.32 10.1201L92.16 19.7268L97.776 29.8468L97.056 32.4868L96.552 34.3935L107.856 37.6201L109.08 33.0735L101.592 19.5801C101.385 19.183 101.099 18.8343 100.751 18.5565C100.404 18.2786 100.004 18.0778 99.576 17.9668Z" fill="#ECEFF6"/>
<path d="M97.7759 29.8468L92.1599 19.7268L58.3199 10.1201L59.6159 12.2468L91.0799 21.1201L96.2639 30.5801L95.9039 32.1201L97.0559 32.4868L97.7759 29.8468Z" fill="#C5CEDD"/>
<path d="M93.2191 60.1747C104.839 59.3056 113.567 49.0069 112.713 37.1721C111.86 25.3372 101.749 16.4476 90.129 17.3167C78.5093 18.1858 69.7814 28.4845 70.6347 40.3193C71.488 52.1542 81.5994 61.0438 93.2191 60.1747Z" fill="#4F5D7F"/>
<path d="M92.6759 52.6415C100.211 52.0779 105.871 45.3996 105.317 37.7251C104.764 30.0506 98.2071 24.2861 90.6721 24.8497C83.1372 25.4132 77.4774 32.0915 78.0308 39.766C78.5841 47.4405 85.141 53.2051 92.6759 52.6415Z" fill="#7687B2"/>
<path d="M104.4 20.68C104.688 23.9066 96.84 32.56 91.656 37.4733C86.544 37.9133 73.8 38.3533 70.56 35.64C70.4125 35.5456 70.2897 35.4162 70.2019 35.263C70.1142 35.1098 70.0641 34.9372 70.056 34.76V34.32C70.6417 31.1623 71.8908 28.1709 73.7176 25.5507C75.5444 22.9306 77.9058 20.7438 80.64 19.14C87.624 15.0333 96.336 15.3266 103.968 19.9466C104.106 20.0075 104.222 20.111 104.3 20.2425C104.377 20.3741 104.412 20.5271 104.4 20.68Z" fill="#FF7F14"/>
<path d="M92.088 38.5C92.088 38.5 70.92 27.7933 72.792 25.08C74.7121 22.2598 77.2198 19.906 80.136 18.1867C87.984 13.5667 97.2 14.5933 104.544 18.9933C109.728 22.1467 92.088 38.5 92.088 38.5Z" fill="#FF903E"/>
<path d="M92.5231 50.5207C98.9079 50.0431 103.704 44.3841 103.235 37.881C102.766 31.3779 97.21 26.4932 90.8251 26.9707C84.4402 27.4483 79.6443 33.1073 80.1132 39.6104C80.5821 46.1135 86.1382 50.9982 92.5231 50.5207Z" fill="#EBEFF7"/>
<path d="M92.3859 48.6192C97.7397 48.2187 101.761 43.4736 101.368 38.0207C100.975 32.5678 96.3159 28.4719 90.9621 28.8724C85.6084 29.2728 81.587 34.0179 81.9801 39.4708C82.3733 44.9238 87.0321 49.0196 92.3859 48.6192Z" fill="#DAE2ED"/>
<path d="M85.536 34.9799L90.576 31.3132C90.7363 31.2118 90.9187 31.1521 91.107 31.1393C91.2953 31.1265 91.4838 31.1611 91.656 31.2399L97.272 33.8799C97.4254 33.9746 97.5566 34.1025 97.6561 34.2546C97.7557 34.4067 97.8211 34.5792 97.848 34.7599L98.424 40.9932C98.4353 41.1868 98.4022 41.3804 98.3272 41.5586C98.2522 41.7368 98.1374 41.8948 97.992 42.0199L92.952 45.6132C92.7916 45.7146 92.6093 45.7743 92.4209 45.7871C92.2326 45.7999 92.0441 45.7654 91.872 45.6866L86.256 43.0466C86.0793 42.9833 85.9276 42.8632 85.8237 42.7045C85.7198 42.5458 85.6694 42.357 85.68 42.1666L85.104 35.9332C85.0983 35.7511 85.1344 35.5701 85.2094 35.4046C85.2844 35.2391 85.3962 35.0937 85.536 34.9799Z" fill="#C5CEDD"/>
<path d="M91.656 42.1668C93.5249 42.1668 95.04 40.6236 95.04 38.7201C95.04 36.8166 93.5249 35.2734 91.656 35.2734C89.787 35.2734 88.272 36.8166 88.272 38.7201C88.272 40.6236 89.787 42.1668 91.656 42.1668Z" fill="#B7C2CE"/>
<path d="M122.328 35.7869L118.656 36.0802C118.728 37.4002 118.8 38.7935 118.944 40.1869L122.544 39.8935C122.402 38.5294 122.33 37.1586 122.328 35.7869Z" fill="#80A7FF"/>
<path d="M121.68 44.8069L106.2 46.0536C106.116 46.0553 106.034 46.0269 105.968 45.9733C105.902 45.9197 105.857 45.8443 105.84 45.7603C105.768 45.5403 105.912 45.3936 106.128 45.3936L121.608 44.1469C121.824 44.0736 121.968 43.9269 121.968 43.7803L121.752 41.2136C121.768 41.1335 121.802 41.0585 121.852 40.9948C121.903 40.931 121.967 40.8803 122.04 40.8469C122.135 40.8469 122.227 40.8856 122.295 40.9543C122.362 41.0231 122.4 41.1163 122.4 41.2136L122.616 43.7069C122.626 43.8418 122.609 43.9774 122.568 44.1057C122.526 44.2341 122.459 44.3529 122.372 44.4551C122.286 44.5573 122.18 44.641 122.061 44.7014C121.942 44.7618 121.813 44.7976 121.68 44.8069Z" fill="#E4E9F7"/>
<path d="M122.688 34.7255L120.463 34.9038C120.265 34.9197 120.117 35.0963 120.132 35.2982L120.687 42.47C120.702 42.6719 120.876 42.8226 121.074 42.8067L123.299 42.6284C123.497 42.6125 123.645 42.4359 123.63 42.2341L123.075 35.0623C123.06 34.8604 122.886 34.7096 122.688 34.7255Z" fill="black"/>
<path d="M122.256 35.7869L123.624 35.6402C123.708 35.6385 123.79 35.6669 123.856 35.7205C123.922 35.7741 123.967 35.8495 123.984 35.9335L124.2 39.3802C124.272 39.6002 124.128 39.7469 123.912 39.7469L122.688 39.8935C122.2 39.9327 121.713 39.8016 121.307 39.5217C120.902 39.2419 120.601 38.83 120.456 38.3535C120.381 38.0624 120.37 37.7581 120.424 37.4621C120.478 37.1662 120.594 36.8859 120.766 36.641C120.938 36.3961 121.16 36.1927 121.418 36.0451C121.675 35.8975 121.961 35.8093 122.256 35.7869Z" fill="#80A7FF"/>
<path d="M119.52 56.7601L117.648 56.9068C117.431 56.9549 117.237 57.0744 117.093 57.2467C116.95 57.419 116.867 57.6346 116.856 57.8601L117.216 61.7468C117.236 62.007 117.205 62.2685 117.125 62.5164C117.045 62.7643 116.917 62.9937 116.75 63.1913C116.583 63.3889 116.379 63.5509 116.15 63.668C115.921 63.7851 115.672 63.8549 115.416 63.8735C114.904 63.895 114.404 63.7176 114.016 63.3771C113.628 63.0366 113.382 62.5586 113.328 62.0401L112.968 56.9068L112.104 45.3935V45.6868C112.081 45.1189 112.268 44.5631 112.628 44.1287C112.988 43.6943 113.495 43.413 114.048 43.3401L120.528 42.8268C120.808 42.7966 121.091 42.8243 121.36 42.9084C121.63 42.9925 121.879 43.1312 122.095 43.3162C122.31 43.5012 122.486 43.7286 122.613 43.9848C122.74 44.2409 122.814 44.5205 122.832 44.8068L123.408 52.1401C123.457 52.7048 123.395 53.2738 123.225 53.8137C123.055 54.3536 122.781 54.8534 122.419 55.2838C122.057 55.7143 121.614 56.0666 121.116 56.3201C120.618 56.5737 120.075 56.7232 119.52 56.7601Z" fill="#80A7FF"/>
<path d="M115.125 35.3278L112.9 35.5061C112.701 35.522 112.553 35.6986 112.569 35.9004L113.123 43.0723C113.139 43.2742 113.312 43.4249 113.51 43.409L115.735 43.2307C115.934 43.2148 116.082 43.0383 116.066 42.8364L115.512 35.6645C115.496 35.4627 115.323 35.3119 115.125 35.3278Z" fill="black"/>
<path d="M114.48 41.8L114.696 44.3667C114.683 44.5448 114.612 44.7133 114.495 44.846C114.378 44.9788 114.22 45.0681 114.048 45.1001L98.568 46.2734" stroke="#2F3849" stroke-width="3.08771" stroke-miterlimit="10"/>
<path d="M120.456 37.4736C119.503 36.3469 118.302 35.4669 116.95 34.9059C115.598 34.3449 114.134 34.1191 112.68 34.2469L102.24 35.0536L100.152 35.2003C98.6681 35.3313 97.2939 36.0499 96.3246 37.2017C95.3552 38.3535 94.8682 39.8466 94.968 41.3603L95.76 51.7736C95.7964 52.2749 95.9298 52.7639 96.1524 53.2126C96.375 53.6612 96.6825 54.0605 97.0573 54.3877C97.432 54.7148 97.8665 54.9633 98.3358 55.1187C98.8052 55.2742 99.3 55.3336 99.792 55.2936L103.032 55.0003L117.936 53.8269C118.671 53.7717 119.389 53.5676 120.046 53.2265C120.703 52.8855 121.286 52.4143 121.762 51.8407C122.239 51.267 122.597 50.6024 122.818 49.8857C123.039 49.1691 123.117 48.4147 123.048 47.6669L122.688 42.9736C122.56 40.9397 121.775 39.0061 120.456 37.4736Z" fill="#9CB8FF"/>
<path d="M103.896 34.907L100.152 35.2003C98.6681 35.3313 97.2939 36.0499 96.3246 37.2018C95.3552 38.3536 94.8682 39.8467 94.968 41.3603L95.688 50.4536C95.724 50.9521 95.8577 51.4381 96.0813 51.8831C96.3048 52.328 96.6136 52.7228 96.9895 53.0441C97.3654 53.3654 97.8007 53.6067 98.2696 53.7538C98.7386 53.9008 99.2318 53.9507 99.72 53.9003L105.336 53.4603C104.76 47.3003 104.328 41.1403 103.896 34.907Z" fill="#80A7FF"/>
<path d="M102.816 58.1534L101.016 58.3001C100.906 58.2996 100.796 58.3227 100.695 58.3677C100.594 58.4128 100.503 58.4788 100.429 58.5617C100.354 58.6445 100.298 58.7423 100.262 58.8488C100.227 58.9553 100.214 59.0682 100.224 59.1801L100.512 63.0668C100.552 63.5806 100.395 64.0903 100.072 64.4874C99.7492 64.8845 99.2872 65.1378 98.784 65.1934C98.2795 65.2346 97.7791 65.0738 97.3892 64.7451C96.9993 64.4165 96.7506 63.9459 96.696 63.4334L96.264 58.2268L95.184 43.6334V44.0001C95.1543 43.7149 95.1816 43.4265 95.2642 43.1522C95.3467 42.878 95.4829 42.6236 95.6645 42.4044C95.8461 42.1852 96.0694 42.0056 96.3209 41.8766C96.5724 41.7475 96.8469 41.6716 97.128 41.6534L103.68 41.1401C103.956 41.1096 104.236 41.1377 104.501 41.2226C104.766 41.3074 105.011 41.4472 105.221 41.6331C105.431 41.8191 105.6 42.0471 105.719 42.303C105.838 42.5589 105.904 42.8371 105.912 43.1201L106.776 53.4601C106.856 54.6159 106.484 55.7569 105.743 56.6356C105.002 57.5143 103.95 58.0597 102.816 58.1534Z" fill="#80A7FF"/>
<path d="M114.12 45.3935L98.568 46.6402C98.424 46.6402 98.208 46.4935 98.208 46.3469C98.2063 46.2611 98.2342 46.1774 98.2868 46.1104C98.3394 46.0434 98.4134 45.9973 98.496 45.9802L114.048 44.7335C114.13 44.7164 114.205 44.6703 114.257 44.6033C114.31 44.5363 114.338 44.4527 114.336 44.3669L114.12 41.8735C114.12 41.7763 114.158 41.683 114.225 41.6143C114.293 41.5455 114.384 41.5069 114.48 41.5069C114.624 41.4335 114.768 41.5802 114.84 41.8002L114.984 44.2935C115.004 44.4245 114.998 44.5583 114.964 44.6864C114.931 44.8146 114.872 44.9342 114.79 45.0377C114.709 45.1413 114.607 45.2264 114.492 45.2876C114.377 45.3489 114.25 45.385 114.12 45.3935Z" fill="#E4E9F7"/>
<path d="M115.125 35.3278L112.9 35.5061C112.701 35.522 112.553 35.6986 112.569 35.9004L113.123 43.0723C113.139 43.2742 113.312 43.4249 113.51 43.409L115.735 43.2307C115.934 43.2148 116.082 43.0383 116.066 42.8364L115.512 35.6645C115.496 35.4627 115.323 35.3119 115.125 35.3278Z" fill="black"/>
<path d="M115.344 36.3002L107.784 36.8868C107.491 36.9172 107.194 36.888 106.912 36.801C106.63 36.714 106.367 36.5709 106.14 36.38C105.912 36.189 105.724 35.9541 105.586 35.6886C105.448 35.4232 105.363 35.1326 105.336 34.8335L100.584 35.2002L101.376 45.1735L106.056 44.8068C106.344 42.2402 108.36 40.9935 111.024 40.7735L115.56 40.4068C116.095 40.3777 116.596 40.1333 116.954 39.7276C117.312 39.3219 117.497 38.7881 117.468 38.2435C117.439 37.6989 117.199 37.1882 116.801 36.8238C116.403 36.4593 115.879 36.271 115.344 36.3002Z" fill="#80A7FF"/>
<path d="M92.952 49.3535L89.136 50.8935C88.6051 51.0904 88.147 51.4499 87.8247 51.9226C87.5024 52.3953 87.3317 52.9581 87.336 53.5335C87.3312 53.9492 87.4153 54.3609 87.5826 54.7401C87.7499 55.1192 87.9964 55.4567 88.3048 55.7289C88.6132 56.0011 88.9762 56.2016 89.3684 56.3164C89.7607 56.4312 90.1728 56.4575 90.576 56.3935C91.142 56.2996 91.6662 56.0314 92.0781 55.625C92.49 55.2185 92.7698 54.6934 92.88 54.1202L93.744 50.0135C93.7659 49.9083 93.7589 49.7989 93.7238 49.6974C93.6888 49.5959 93.627 49.5062 93.5452 49.438C93.4635 49.3699 93.3649 49.326 93.2603 49.3111C93.1556 49.2962 93.049 49.3109 92.952 49.3535Z" fill="#80A7FF"/>
<path d="M96.9292 42.6234L84.2874 46.6584L85.7881 51.5359L98.4299 47.5008L96.9292 42.6234Z" fill="#B7C2CE"/>
<path d="M87.984 52.2134L72.288 59.1801C71.9767 59.2628 71.6472 59.237 71.352 59.1067C70.632 58.5934 69.264 57.4201 68.328 54.4134C67.392 51.4067 67.896 49.6467 68.184 48.8401C68.2579 48.6971 68.36 48.5711 68.4839 48.4702C68.6078 48.3692 68.7508 48.2954 68.904 48.2534L85.68 44.8067C85.8423 44.7609 86.0157 44.7812 86.1635 44.8633C86.3114 44.9454 86.422 45.083 86.472 45.2467L88.344 51.4067C88.3929 51.5627 88.3832 51.7317 88.3167 51.8808C88.2501 52.0298 88.1316 52.1484 87.984 52.2134Z" fill="#C5CEDD"/>
<path d="M82.368 48.9134C82.8054 48.9134 83.16 48.5522 83.16 48.1067C83.16 47.6612 82.8054 47.3 82.368 47.3C81.9306 47.3 81.576 47.6612 81.576 48.1067C81.576 48.5522 81.9306 48.9134 82.368 48.9134Z" fill="#B7C2CE"/>
<path d="M78.696 49.7933C79.1334 49.7933 79.488 49.4321 79.488 48.9866C79.488 48.5411 79.1334 48.1799 78.696 48.1799C78.2586 48.1799 77.904 48.5411 77.904 48.9866C77.904 49.4321 78.2586 49.7933 78.696 49.7933Z" fill="#B7C2CE"/>
<path d="M94.7927 42.7648L85.0474 51.7966L88.4248 55.5771L98.1702 46.5453L94.7927 42.7648Z" fill="#D0D9EA"/>
<path d="M90.72 55.3668L79.344 68.3468C79.1109 68.5743 78.8028 68.7051 78.48 68.7134C77.616 68.5668 75.888 68.0534 73.8 65.7068C71.712 63.3601 71.424 61.6001 71.352 60.7201C71.3575 60.5607 71.3995 60.4048 71.4744 60.2648C71.5494 60.1248 71.6554 60.0045 71.784 59.9134L85.608 49.5734C85.7355 49.4748 85.8943 49.4277 86.0538 49.4412C86.2133 49.4548 86.3623 49.528 86.472 49.6468L90.72 54.4134C90.8194 54.5517 90.873 54.7187 90.873 54.8901C90.873 55.0615 90.8194 55.2285 90.72 55.3668Z" fill="#EBEFF7"/>
<path d="M83.952 54.8533C84.3894 54.8533 84.744 54.4922 84.744 54.0467C84.744 53.6011 84.3894 53.24 83.952 53.24C83.5146 53.24 83.16 53.6011 83.16 54.0467C83.16 54.4922 83.5146 54.8533 83.952 54.8533Z" fill="#B7C2CE"/>
<path d="M81.216 57.5667C81.6534 57.5667 82.008 57.2055 82.008 56.76C82.008 56.3145 81.6534 55.9534 81.216 55.9534C80.7786 55.9534 80.424 56.3145 80.424 56.76C80.424 57.2055 80.7786 57.5667 81.216 57.5667Z" fill="#B7C2CE"/>
<path d="M97.7874 35.5652L115.086 34.1785C118.178 33.9307 120.487 31.1767 120.244 28.0274L119.427 17.4561C119.184 14.3067 116.48 11.9546 113.388 12.2025L96.0893 13.5891C92.9972 13.837 90.6879 16.5909 90.9312 19.7403L91.7481 30.3116C91.9914 33.4609 94.6953 35.813 97.7874 35.5652Z" fill="#80A7FF"/>
<path d="M101.349 35.271L118.648 33.8843C121.74 33.6365 124.049 30.8825 123.806 27.7332L122.989 17.1619C122.746 14.0125 120.042 11.6604 116.95 11.9083L99.6512 13.2949C96.5591 13.5428 94.2498 16.2967 94.4932 19.4461L95.31 30.0174C95.5534 33.1667 98.2573 35.5188 101.349 35.271Z" fill="#9CB8FF"/>
<path d="M97.1035 28.5737L92.9995 28.9081C92.0065 28.989 91.0227 28.6649 90.2644 28.0069C89.5061 27.349 89.0354 26.4112 88.956 25.3999L88.7486 22.7599C88.6692 21.7485 88.9875 20.7464 89.6334 19.9741C90.2794 19.2017 91.2001 18.7224 92.1931 18.6415L96.2971 18.3071L97.1035 28.5737Z" fill="#9CB8FF"/>
<path d="M96.7875 20.5381L97.2281 26.2405C97.2356 26.3375 97.205 26.4335 97.1429 26.5074C97.0809 26.5814 96.9926 26.6272 96.8974 26.6348L93.165 26.934C92.67 26.9737 92.1799 26.8115 91.8023 26.4831C91.4248 26.1546 91.1908 25.6869 91.1519 25.1828L90.9485 22.551C90.9096 22.0468 91.0688 21.5476 91.3913 21.1631C91.7137 20.7786 92.1729 20.5402 92.6679 20.5006L96.4003 20.2014C96.4955 20.1937 96.5898 20.2249 96.6624 20.2881C96.735 20.3513 96.78 20.4412 96.7875 20.5381Z" fill="#80A7FF"/>
<path d="M117.936 30.5068H119.448C119.607 30.4611 119.748 30.3658 119.852 30.2343C119.955 30.1028 120.015 29.9416 120.024 29.7734C119.989 29.6114 119.896 29.4686 119.762 29.3735C119.629 29.2783 119.465 29.2379 119.304 29.2601H117.792C117.643 29.3012 117.51 29.3855 117.407 29.5027C117.305 29.6199 117.239 29.765 117.216 29.9201C117.225 30.007 117.251 30.0912 117.292 30.1679C117.333 30.2445 117.389 30.3121 117.456 30.3667C117.523 30.4212 117.6 30.4617 117.682 30.4858C117.764 30.5098 117.851 30.517 117.936 30.5068Z" fill="#80A7FF"/>
<path d="M123.192 17.16L120.96 17.3067L113.112 17.9667L110.448 18.1134C110.154 18.1409 109.869 18.2274 109.608 18.3679C109.348 18.5084 109.117 18.7001 108.93 18.932C108.742 19.1638 108.602 19.4312 108.516 19.7186C108.431 20.0061 108.402 20.3079 108.432 20.6067L108.576 23.2467C108.722 24.7509 109.433 26.1395 110.559 27.1232C111.686 28.1069 113.142 28.6096 114.624 28.5267L117.288 28.3067H118.368L120.6 28.0867C122.078 27.974 123.452 27.271 124.423 26.1309C125.394 24.9908 125.883 23.506 125.784 22L125.568 19.2867C125.56 18.9845 125.49 18.6874 125.364 18.4137C125.238 18.1401 125.058 17.8959 124.835 17.6964C124.612 17.4968 124.351 17.3462 124.068 17.2539C123.786 17.1617 123.487 17.1297 123.192 17.16Z" fill="#B8D0FF"/>
<path d="M120.618 28.0191L117.245 28.2895C116.509 28.3485 115.77 28.2593 115.068 28.0272C114.367 27.7951 113.717 27.4245 113.157 26.9367C112.596 26.4488 112.135 25.8533 111.8 25.184C111.465 24.5147 111.263 23.7848 111.205 23.0359L111.002 20.4041C110.979 20.1065 111.014 19.8071 111.104 19.5232C111.195 19.2393 111.339 18.9763 111.53 18.7493C111.72 18.5223 111.953 18.3357 112.214 18.2002C112.475 18.0646 112.76 17.9828 113.052 17.9594L123.173 17.1481C123.465 17.1247 123.759 17.1601 124.037 17.2524C124.316 17.3446 124.574 17.4919 124.797 17.6858C125.02 17.8797 125.203 18.1164 125.336 18.3824C125.469 18.6484 125.55 18.9385 125.573 19.2361L125.776 21.8679C125.893 23.3803 125.415 24.878 124.448 26.0316C123.481 27.1851 122.103 27.9001 120.618 28.0191Z" fill="#CBDAF7"/>
<path d="M118.44 23.9068H115.992C115.75 23.9424 115.53 24.066 115.371 24.2548C115.212 24.4437 115.125 24.6848 115.128 24.9335C115.137 25.0588 115.17 25.1811 115.226 25.2932C115.282 25.4054 115.359 25.5052 115.452 25.587C115.546 25.6688 115.655 25.7309 115.772 25.7698C115.889 25.8087 116.013 25.8235 116.136 25.8135H118.584C118.707 25.8042 118.827 25.7703 118.937 25.7136C119.047 25.6569 119.145 25.5786 119.226 25.4832C119.306 25.3878 119.367 25.2771 119.405 25.1576C119.443 25.0381 119.458 24.9121 119.448 24.7868C119.439 24.6615 119.406 24.5393 119.35 24.4271C119.294 24.3149 119.217 24.2151 119.124 24.1333C119.03 24.0515 118.921 23.9894 118.804 23.9506C118.687 23.9117 118.563 23.8968 118.44 23.9068Z" fill="#9CB8FF"/>
<path d="M122.832 23.5401H121.896C121.773 23.5494 121.653 23.5834 121.543 23.64C121.433 23.6967 121.335 23.775 121.254 23.8705C121.174 23.9659 121.113 24.0765 121.075 24.196C121.037 24.3155 121.022 24.4415 121.032 24.5668C121.041 24.6921 121.074 24.8144 121.13 24.9265C121.186 25.0387 121.263 25.1385 121.356 25.2203C121.45 25.3021 121.559 25.3642 121.676 25.4031C121.793 25.442 121.917 25.4568 122.04 25.4468H122.976C123.099 25.4375 123.219 25.4036 123.329 25.3469C123.439 25.2902 123.537 25.2119 123.618 25.1165C123.698 25.0211 123.759 24.9104 123.797 24.7909C123.835 24.6714 123.85 24.5454 123.84 24.4201C123.831 24.2948 123.798 24.1726 123.742 24.0604C123.686 23.9482 123.609 23.8484 123.516 23.7666C123.422 23.6848 123.313 23.6227 123.196 23.5839C123.079 23.545 122.955 23.5301 122.832 23.5401Z" fill="#9CB8FF"/>
<path d="M101.674 22.9566C101.754 23.9942 102.638 24.7697 103.649 24.6887C104.66 24.6077 105.414 23.7008 105.334 22.6631C105.254 21.6255 104.37 20.85 103.359 20.931C102.348 21.012 101.593 21.9189 101.674 22.9566Z" fill="black"/>
<path opacity="0.5" d="M123.912 13.6401C125.66 16.2085 126.674 19.221 126.839 22.3417C127.004 25.4624 126.315 28.5685 124.848 31.3135L121.752 33.5135L100.512 34.2468L94.824 27.7201L98.928 13.3468L117 11.8801L123.912 13.6401Z" fill="#4871E5"/>
<path d="M106.416 7.26005C94.104 8.28672 87.984 17.2334 88.56 24.2734C89.136 31.3134 97.2 31.24 98.712 26.18L101.88 15.1067L119.664 16.06L123.912 13.64C122.04 11.0001 115.56 6.52672 106.416 7.26005Z" fill="#EBEFF7"/>
<path d="M97.488 27.5L109.08 32.56L124.848 31.3134L123.48 34.0267L93.888 36.3734L89.712 27.28L97.488 27.5Z" fill="#EBEFF7"/>
<path d="M112.248 5.79346L112.104 7.84679C113.866 9.07403 115.442 10.5563 116.784 12.2468L118.296 7.84679C116.712 6.89346 114.696 6.38012 112.248 5.79346Z" fill="#FF7F14"/>
<path d="M116.784 12.2467L118.296 7.84668L120.168 11.9533L116.784 12.2467Z" fill="#FF903E"/>
<path d="M94.248 19.5068L91.08 20.8268L89.136 14.9602C89.0392 14.6291 89.0666 14.2731 89.213 13.9615C89.3593 13.6498 89.6141 13.4046 89.928 13.2735C90.0838 13.2 90.2524 13.1588 90.424 13.1523C90.5956 13.1458 90.7667 13.174 90.9275 13.2354C91.0883 13.2968 91.2355 13.3902 91.3605 13.51C91.4856 13.6298 91.586 13.7738 91.656 13.9335L94.248 19.5068Z" fill="#DAE2ED"/>
<path d="M89.7839 17.0136L91.0799 20.8269L94.2479 19.5069L92.5919 15.9136L89.7839 17.0136Z" fill="#B7C2CE"/>
<path d="M99.6071 25.4273C99.7754 21.5024 97.3032 18.2047 94.0853 18.0616C90.8675 17.9185 88.1225 20.9842 87.9542 24.9091C87.786 28.8339 90.2582 32.1316 93.476 32.2747C96.6939 32.4178 99.4389 29.3521 99.6071 25.4273Z" fill="#DAE2ED"/>
<path d="M97.2013 25.4296C97.3209 22.6377 95.5501 20.2914 93.2459 20.1889C90.9418 20.0865 88.9769 22.2667 88.8572 25.0586C88.7375 27.8505 90.5084 30.1968 92.8125 30.2993C95.1167 30.4018 97.0816 28.2215 97.2013 25.4296Z" fill="#B7C2CE"/>
<path d="M95.8282 25.375C95.9131 23.3924 94.6616 21.7264 93.0329 21.654C91.4041 21.5815 90.0148 23.1301 89.9298 25.1127C89.8448 27.0954 91.0963 28.7614 92.7251 28.8338C94.3539 28.9062 95.7432 27.3577 95.8282 25.375Z" fill="#FF903E"/>
<path d="M93.655 23.2357L93.312 23.1243C93.1984 23.0873 93.0769 23.1512 93.0406 23.267L91.9855 26.6343C91.9492 26.75 92.0119 26.8738 92.1256 26.9108L92.4685 27.0223C92.5822 27.0592 92.7037 26.9953 92.74 26.8796L93.7951 23.5122C93.8314 23.3965 93.7686 23.2727 93.655 23.2357Z" fill="#FF7F14"/>
<path d="M77.904 20.8268L44.136 11.2935L50.472 21.7801C51.6993 23.8543 53.6558 25.3751 55.944 26.0335L82.872 33.5868L83.592 31.0201L77.904 20.8268Z" fill="#DAE2ED"/>
<path d="M85.392 19.1402L40.464 6.38024C40.4017 6.37482 40.3391 6.38601 40.2824 6.4127C40.2257 6.43939 40.1767 6.48066 40.1404 6.53245C40.1041 6.58425 40.0816 6.64478 40.0752 6.7081C40.0689 6.77141 40.0788 6.83533 40.104 6.89357L42.048 10.1936C42.2702 10.5549 42.5973 10.8368 42.984 11.0002L44.136 11.2936L77.904 20.8269L83.592 31.0202L82.872 33.5869L82.368 35.5669L93.672 38.7936L94.896 34.2469L87.408 20.6802C86.9615 19.9164 86.237 19.363 85.392 19.1402Z" fill="#ECEFF6"/>
<path d="M83.592 31.0201L77.904 20.8268L44.136 11.2935L45.36 13.4201L76.824 22.2935L82.08 31.7535L81.648 33.2935L82.872 33.5868L83.592 31.0201Z" fill="#C5CEDD"/>
<path d="M44.5355 9.44578C44.6311 9.09453 44.4291 8.73082 44.0842 8.63341C43.7393 8.536 43.3822 8.74178 43.2866 9.09303L43.2789 9.12129C43.1833 9.47255 43.3853 9.83626 43.7302 9.93367C44.075 10.0311 44.4321 9.8253 44.5278 9.47405L44.5355 9.44578Z" fill="#DAE2ED"/>
<path d="M47.0973 10.3118C47.194 9.96185 46.9938 9.59839 46.6502 9.49998C46.3067 9.40156 45.9498 9.60545 45.8532 9.95538L45.8454 9.98354C45.7488 10.3335 45.949 10.6969 46.2925 10.7953C46.6361 10.8938 46.9929 10.6899 47.0896 10.3399L47.0973 10.3118Z" fill="#DAE2ED"/>
<path d="M85.909 21.1506C86.0046 20.7994 85.8026 20.4357 85.4577 20.3382C85.1129 20.2408 84.7558 20.4466 84.6601 20.7979L84.6524 20.8261C84.5568 21.1774 84.7588 21.5411 85.1037 21.6385C85.4486 21.7359 85.8057 21.5301 85.9013 21.1789L85.909 21.1506Z" fill="#DAE2ED"/>
<path d="M93.2369 35.7336L99.1227 35.2618L100.111 48.0556C100.146 48.5016 100.005 48.9432 99.7197 49.2834C99.4344 49.6235 99.0282 49.8343 98.5904 49.8694L94.3555 50.2089L93.2369 35.7336Z" fill="black"/>
<path d="M96.492 32.7245L89.673 33.2711C89.0784 33.3188 88.6343 33.8484 88.6811 34.454L88.967 38.1533C89.0138 38.7589 89.5337 39.2112 90.1284 39.1636L96.9473 38.617C97.5419 38.5693 97.986 38.0397 97.9392 37.4341L97.6534 33.7348C97.6066 33.1292 97.0866 32.6769 96.492 32.7245Z" fill="#FF5C5C"/>
<path d="M99.576 40.2601L94.176 40.7001C93.8297 40.7301 93.481 40.6888 93.1507 40.5788C92.8204 40.4687 92.5151 40.2921 92.2532 40.0595C91.9912 39.8269 91.7778 39.543 91.6258 39.2247C91.4737 38.9064 91.386 38.5603 91.368 38.2068L91.008 33.9534C90.9681 33.2454 91.202 32.5497 91.6596 32.0152C92.1171 31.4806 92.7619 31.1498 93.456 31.0934L98.856 30.6534C98.979 30.6434 99.1027 30.6583 99.22 30.6971C99.3373 30.736 99.446 30.7981 99.5397 30.8799C99.6333 30.9617 99.7102 31.0615 99.7659 31.1737C99.8215 31.2858 99.8549 31.4081 99.864 31.5334L100.512 39.1601C100.522 39.295 100.505 39.4305 100.464 39.5589C100.422 39.6873 100.355 39.806 100.268 39.9082C100.181 40.0105 100.076 40.0942 99.9567 40.1545C99.8378 40.2149 99.7085 40.2508 99.576 40.2601Z" fill="#D0D9EA"/>
<path d="M140.976 6.30681L143.424 5.42681C143.577 5.42681 143.723 5.36501 143.831 5.25498C143.939 5.14496 144 4.99574 144 4.84015C144 4.68455 143.939 4.53533 143.831 4.42531C143.723 4.31529 143.577 4.25348 143.424 4.25348L140.976 3.37348C140.874 3.34197 140.781 3.28534 140.706 3.20859C140.631 3.13184 140.575 3.03735 140.544 2.93348L139.68 0.440147C139.636 0.31072 139.553 0.198522 139.443 0.119126C139.334 0.0397287 139.203 -0.00292969 139.068 -0.00292969C138.933 -0.00292969 138.802 0.0397287 138.693 0.119126C138.583 0.198522 138.5 0.31072 138.456 0.440147L137.592 2.93348C137.564 3.02767 137.518 3.11517 137.456 3.19076C137.394 3.26635 137.318 3.32849 137.232 3.37348L134.784 4.25348C134.631 4.25348 134.485 4.31529 134.377 4.42531C134.269 4.53533 134.208 4.68455 134.208 4.84015C134.208 4.99574 134.269 5.14496 134.377 5.25498C134.485 5.36501 134.631 5.42681 134.784 5.42681L137.232 6.30681C137.318 6.3518 137.394 6.41395 137.456 6.48954C137.518 6.56513 137.564 6.65263 137.592 6.74681L138.456 9.24015C138.5 9.36958 138.583 9.48177 138.693 9.56117C138.802 9.64057 138.933 9.68322 139.068 9.68322C139.203 9.68322 139.334 9.64057 139.443 9.56117C139.553 9.48177 139.636 9.36958 139.68 9.24015L140.544 6.74681C140.575 6.64295 140.631 6.54846 140.706 6.47171C140.781 6.39496 140.874 6.33832 140.976 6.30681Z" fill="#F3B2CF"/>
<path d="M31.824 15.9134L31.104 17.3067V17.6C31.1085 17.6566 31.1343 17.7091 31.176 17.7467L31.392 17.8934H31.608L33.048 17.2334H33.336L34.704 17.8934H34.992L35.136 17.7467L35.28 17.5267C35.2833 17.487 35.2786 17.447 35.2662 17.4092C35.2539 17.3713 35.2341 17.3365 35.208 17.3067L34.56 15.9134C34.56 15.84 34.488 15.84 34.488 15.7667C34.488 15.6934 34.56 15.62 34.56 15.5467L35.208 14.1534C35.2341 14.1236 35.2539 14.0888 35.2662 14.0509C35.2786 14.0131 35.2833 13.9731 35.28 13.9334L35.136 13.7134H34.704L33.336 14.3734H32.976L31.608 13.7134H31.176C31.1499 13.7431 31.1301 13.778 31.1177 13.8158C31.1054 13.8537 31.1007 13.8936 31.104 13.9334V14.1534L31.752 15.5467C31.778 15.5765 31.7979 15.6113 31.8102 15.6492C31.8226 15.687 31.8273 15.727 31.824 15.7667V15.9134Z" fill="#FFD01A"/>
<path d="M107.698 77.6292C107.191 77.1137 106.382 77.1021 105.89 77.6033C105.398 78.1045 105.41 78.9286 105.916 79.4441L106.781 80.3257C107.287 80.8411 108.096 80.8528 108.589 80.3516C109.081 79.8504 109.069 79.0262 108.563 78.5107L107.698 77.6292Z" fill="#83DDC5"/>
<path d="M114.928 84.9627C114.422 84.4472 113.613 84.4356 113.121 84.9368C112.629 85.438 112.64 86.2621 113.146 86.7776L114.012 87.6591C114.518 88.1746 115.327 88.1862 115.819 87.6851C116.311 87.1839 116.3 86.3597 115.793 85.8442L114.928 84.9627Z" fill="#83DDC5"/>
<path d="M115.785 79.3843C116.292 78.8688 116.303 78.0446 115.811 77.5434C115.319 77.0423 114.51 77.0539 114.004 77.5694L113.138 78.4509C112.632 78.9664 112.62 79.7906 113.113 80.2917C113.605 80.7929 114.414 80.7813 114.92 80.2658L115.785 79.3843Z" fill="#83DDC5"/>
<path d="M108.555 86.7175C109.061 86.202 109.073 85.3779 108.581 84.8767C108.088 84.3755 107.279 84.3871 106.773 84.9026L105.908 85.7842C105.402 86.2996 105.39 87.1238 105.882 87.625C106.374 88.1262 107.183 88.1146 107.69 87.5991L108.555 86.7175Z" fill="#83DDC5"/>
<path d="M21.024 41.7267C21.024 41.1192 20.5405 40.6267 19.944 40.6267C19.3475 40.6267 18.864 41.1192 18.864 41.7267V43.7727C18.864 44.3802 19.3475 44.8727 19.944 44.8727C20.5405 44.8727 21.024 44.3802 21.024 43.7727V41.7267Z" fill="#9CB8FF"/>
<path d="M21.024 49.7201C21.024 49.1126 20.5405 48.6201 19.944 48.6201C19.3475 48.6201 18.864 49.1126 18.864 49.7201V51.7661C18.864 52.3736 19.3475 52.8661 19.944 52.8661C20.5405 52.8661 21.024 52.3736 21.024 51.7661V49.7201Z" fill="#9CB8FF"/>
<path d="M24.84 47.8135C25.4365 47.8135 25.92 47.321 25.92 46.7135C25.92 46.106 25.4365 45.6135 24.84 45.6135H22.8312C22.2347 45.6135 21.7512 46.106 21.7512 46.7135C21.7512 47.321 22.2347 47.8135 22.8312 47.8135H24.84Z" fill="#9CB8FF"/>
<path d="M16.992 47.8868C17.5885 47.8868 18.072 47.3943 18.072 46.7868C18.072 46.1793 17.5885 45.6868 16.992 45.6868H14.9832C14.3868 45.6868 13.9032 46.1793 13.9032 46.7868C13.9032 47.3943 14.3868 47.8868 14.9832 47.8868H16.992Z" fill="#9CB8FF"/>
</svg>
