<svg fill="none" height="145" viewBox="0 0 272 145" width="272" xmlns="http://www.w3.org/2000/svg" xmlns:xlink="http://www.w3.org/1999/xlink"><clipPath id="a"><path d="m0 0h272v145h-272z"/></clipPath><g clip-path="url(#a)"><path d="m253.265 96.186h-123.378v48.662h123.378z" fill="#666e7b"/><path d="m40.0092 20.4741h-2.3929v15.7262h2.3929z" fill="#7c8794"/><path d="m23.5463 19.7085h-2.3929v16.4632h2.3929z" fill="#828c98"/><path d="m30.8206 25.1645c6.7136 0 12.156-5.4424 12.156-12.156 0-6.71355-5.4424-12.155961-12.156-12.155961-6.7135 0-12.1559 5.442411-12.1559 12.155961 0 6.7136 5.4424 12.156 12.1559 12.156z" fill="#c8cfd6"/><path d="m40.2966 5.44678c-.9099 3.8809-3.1093 7.33842-6.2388 9.80722-3.1296 2.4689-7.0041 3.8031-10.9901 3.7845l-2.8715-.1914c1.3055 2.3485 3.3525 4.1983 5.8208 5.2602 2.4684 1.0619 5.219 1.276 7.8219.6089 2.6029-.6672 4.9115-2.1779 6.5647-4.2962 1.6533-2.1183 2.5581-4.7246 2.573-7.4116.0195-2.7566-.929-5.43259-2.68-7.56162z" fill="#aab3bd"/><path d="m32.0651 20.4741c.33 0 .6465.1311.8799.3645.2333.2333.3644.5498.3644.8798v14.4532h-2.4886v-14.4532c0-.33.1311-.6465.3645-.8798.2333-.2334.5498-.3645.8798-.3645z" fill="#7c8794"/><path d="m188.56 75.9902h-3.446v14.9222h3.446z" fill="#4f5660"/><path d="m163.769 89.0073h47.763c.406 0 .796.1614 1.083.4486s.448.6767.448 1.0829v5.6472h-50.729v-5.6472c-.001-.3901.147-.7658.414-1.0504s.632-.4567 1.021-.4811z" fill="#a1adba"/><path d="m180.615 89.0073h30.917c.406 0 .795.1614 1.083.4486.287.2872.448.6767.448 1.0829v5.6472h-33.979v-5.6472c0-.4062.161-.7957.449-1.0829.287-.2872.676-.4486 1.082-.4486z" fill="#97a1ae"/><path d="m186.837 77.4263c5.921 0 10.72-4.7996 10.72-10.7202 0-5.9207-4.799-10.7203-10.72-10.7203s-10.72 4.7996-10.72 10.7203c0 5.9206 4.799 10.7202 10.72 10.7202z" fill="#bcc2c8"/><path d="m181.381 75.8945c1.189.7349 2.517 1.2162 3.9 1.4139 1.384.1976 2.793.1073 4.14-.2653 1.369-.3252 2.659-.9188 3.796-1.7463 1.137-.8276 2.098-1.8727 2.828-3.0747.731-1.202 1.215-2.537 1.425-3.9276s.142-2.809-.2-4.1731c-.548-2.1888-1.75-4.1587-3.446-5.6473 1.053 8.2316-6.413 14.836-12.443 17.4204z" fill="#a6adb6"/><path d="m183.031 62.2517c.747-.7476.99-1.7173.541-2.1658-.448-.4486-1.418-.2062-2.166.5414-.747.7476-.99 1.7173-.541 2.1658.449.4486 1.418.2062 2.166-.5414z" fill="#fff"/><path d="m12.7302 68.5239h80.5931c.9647 0 1.8898.3832 2.5719 1.0653s1.0653 1.6073 1.0653 2.5719v72.7439h-87.86748v-72.7439c0-.9646.3832-1.8898 1.06528-2.5719.6821-.6821 1.6073-1.0653 2.5719-1.0653z" fill="#9ba3ad"/><path d="m47.2838 68.5238c-.4731-.0128-.9439.0693-1.3847.2416-.4408.1722-.8426.431-1.1816.7612-.3391.3301-.6085.7249-.7925 1.1609-.1839.436-.2786.9045-.2784 1.3778v15.2188c.0017.2183-.0433.4345-.1319.6339-.0887.1995-.2189.3778-.3821.5228-.1631.145-.3554.2535-.5639.3181-.2085.0647-.4284.084-.645.0567l-32.83068-3.6372v-13.1131c-.00018-.4733.0945-.9418.27843-1.3778.18394-.436.45339-.8308.79245-1.1609.3391-.3302.7409-.589 1.1816-.7612.4408-.1723.9117-.2544 1.3847-.2416z" fill="#828c98"/><path d="m156.112 144.81h-96.4817v-72.7448c0-.9646.3832-1.8898 1.0653-2.5719s1.6073-1.0653 2.5719-1.0653h89.2075c.965 0 1.89.3832 2.572 1.0653s1.065 1.6073 1.065 2.5719z" fill="#747f8d"/><path d="m63.9382 71.7783h87.8678c.254 0 .497.1009.677.2804.179.1795.28.4229.28.6768v23.8333h-89.7819v-23.8333c0-.2539.1008-.4973.2803-.6768s.423-.2804.6768-.2804z" fill="#87919d"/><path d="m125.867 92.9312c1.163 0 2.105-.9427 2.105-2.1057s-.942-2.1058-2.105-2.1058-2.106.9428-2.106 2.1058.943 2.1057 2.106 2.1057z" fill="#687282"/><path d="m135.534 92.9312c1.163 0 2.106-.9427 2.106-2.1057s-.943-2.1058-2.106-2.1058-2.106.9428-2.106 2.1058.943 2.1057 2.106 2.1057z" fill="#687282"/><path d="m145.297 92.9312c1.163 0 2.106-.9427 2.106-2.1057s-.943-2.1058-2.106-2.1058-2.105.9428-2.105 2.1058.942 2.1057 2.105 2.1057z" fill="#687282"/><path d="m125.867 85.274c1.163 0 2.105-.9428 2.105-2.1057 0-1.163-.942-2.1058-2.105-2.1058s-2.106.9428-2.106 2.1058c0 1.1629.943 2.1057 2.106 2.1057z" fill="#687282"/><path d="m135.534 85.274c1.163 0 2.106-.9428 2.106-2.1057 0-1.163-.943-2.1058-2.106-2.1058s-2.106.9428-2.106 2.1058c0 1.1629.943 2.1057 2.106 2.1057z" fill="#687282"/><path d="m145.297 85.274c1.163 0 2.106-.9428 2.106-2.1057 0-1.163-.943-2.1058-2.106-2.1058s-2.105.9428-2.105 2.1058c0 1.1629.942 2.1057 2.105 2.1057z" fill="#687282"/><path d="m62.9811 100.015h89.8779v30.725c0 .253-.101.497-.281.676-.179.18-.423.281-.677.281h-87.9628c-.2538 0-.4973-.101-.6768-.281-.1795-.179-.2803-.423-.2803-.676z" fill="#87919d"/><path d="m144.819 103.939h-21.441c-.581 0-1.053.471-1.053 1.053v21.708c0 .582.472 1.053 1.053 1.053h21.441c.581 0 1.052-.471 1.052-1.053v-21.708c0-.582-.471-1.053-1.052-1.053z" fill="#747f8d"/><path d="m152.859 96.5688h-89.8779v3.4362h89.8779z" fill="#687282"/><path d="m39.3394 35.7886h-37.99937c-.740079 0-1.34003.5999-1.34003 1.34v29.9783c0 .7401.599951 1.3401 1.34003 1.3401h37.99937c.7401 0 1.34-.6 1.34-1.3401v-29.9783c0-.7401-.5999-1.34-1.34-1.34z" fill="#c5cdd4"/><path d="m37.425 68.5239h97.631c.74 0 1.34-.5999 1.34-1.34v-29.9783c0-.7401-.6-1.3401-1.34-1.3401h-97.631c-.7401 0-1.34.6-1.34 1.3401v29.9783c0 .7401.5999 1.34 1.34 1.34z" fill="#b1b9c2"/><path d="m70.4471 41.2446h-28.0449c-.4757 0-.8614.3857-.8614.8615v20.043c0 .4757.3857.8614.8614.8614h28.0449c.4757 0 .8614-.3857.8614-.8614v-20.043c0-.4758-.3857-.8615-.8614-.8615z" fill="#828c98"/><path d="m57.8125 59.8134c-1.6271 0-2.68-2.1058-3.7329-7.4659-.67-3.2543-1.6272-7.6573-2.2972-7.6573s-1.8186 1.9143-2.2015 2.6801c-.3828.7657-.2871.3828-.2871.5743-1.6272 2.9672-3.2544 5.1686-7.753 5.1686v-1.9143c3.5415 0 4.5944-1.5314 6.0301-4.2115l.2871-.4786c.7658-1.5314 2.0101-3.7329 3.9244-3.7329s2.8715 3.0629 4.1158 9.1887c.9572 4.4987 1.7229 5.6473 2.01 5.9344.2872.2872 1.0529-1.4357 2.2015-6.0301s2.2015-6.0301 3.9244-6.3172c1.7229-.2872 2.2015.2871 3.2543 1.6271l.9572 1.4358c.9572 1.6271 1.6272 2.5843 2.9672 2.5843v1.9143c-2.5843 0-3.7329-2.01-4.6901-3.5415-.1751-.4306-.4356-.8213-.7657-1.1486-.5743-.7657-1.0529-1.1486-1.34-1.0528-.2872.0957-1.3401.4785-2.4887 4.9772s-2.4886 7.4659-4.1158 7.4659z" fill="#9aa2ac"/><path d="m85.2833 53.6877c3.4361 0 6.2216-2.7854 6.2216-6.2215s-2.7855-6.2216-6.2216-6.2216c-3.436 0-6.2215 2.7855-6.2215 6.2216s2.7855 6.2215 6.2215 6.2215z" fill="#687282"/><path d="m81.6461 62.9724c1.4273 0 2.5843-1.1571 2.5843-2.5843 0-1.4273-1.157-2.5844-2.5843-2.5844s-2.5843 1.1571-2.5843 2.5844c0 1.4272 1.157 2.5843 2.5843 2.5843z" fill="#ffc9ff"/><path d="m88.9206 62.9724c1.4273 0 2.5844-1.1571 2.5844-2.5843 0-1.4273-1.1571-2.5844-2.5844-2.5844s-2.5843 1.1571-2.5843 2.5844c0 1.4272 1.157 2.5843 2.5843 2.5843z" fill="#ffc9ff"/><path d="m100.406 41.2446h-.6696c-.3172 0-.5743.2571-.5743.5743v13.5056c0 .3172.2571.5743.5743.5743h.6696c.318 0 .575-.2571.575-.5743v-13.5056c0-.3172-.257-.5743-.575-.5743z" fill="#687282"/><path d="m110.361 41.2446h-.67c-.317 0-.574.2571-.574.5743v13.5056c0 .3172.257.5743.574.5743h.67c.317 0 .574-.2571.574-.5743v-13.5056c0-.3172-.257-.5743-.574-.5743z" fill="#687282"/><path d="m120.315 41.2446h-.67c-.317 0-.574.2571-.574.5743v13.5056c0 .3172.257.5743.574.5743h.67c.317 0 .575-.2571.575-.5743v-13.5056c0-.3172-.258-.5743-.575-.5743z" fill="#687282"/><path d="m130.27 41.2446h-.67c-.318 0-.575.2571-.575.5743v13.5056c0 .3172.257.5743.575.5743h.67c.317 0 .574-.2571.574-.5743v-13.5056c0-.3172-.257-.5743-.574-.5743z" fill="#687282"/><path d="m101.938 49.9546h-3.7329c-.4758 0-.8615.3857-.8615.8614v1.3592c0 .4758.3857.8615.8615.8615h3.7329c.476 0 .861-.3857.861-.8615v-1.3592c0-.4757-.385-.8614-.861-.8614z" fill="#d5dbe3"/><path d="m111.892 44.4033h-3.733c-.475 0-.861.3857-.861.8615v1.3591c0 .4758.386.8615.861.8615h3.733c.476 0 .862-.3857.862-.8615v-1.3591c0-.4758-.386-.8615-.862-.8615z" fill="#d5dbe3"/><path d="m121.847 51.4863h-3.733c-.476 0-.862.3857-.862.8615v1.3591c0 .4758.386.8615.862.8615h3.733c.476 0 .861-.3857.861-.8615v-1.3591c0-.4758-.385-.8615-.861-.8615z" fill="#d5dbe3"/><path d="m131.801 49.9546h-3.733c-.476 0-.861.3857-.861.8614v1.3592c0 .4758.385.8615.861.8615h3.733c.476 0 .862-.3857.862-.8615v-1.3592c0-.4757-.386-.8614-.862-.8614z" fill="#d5dbe3"/><path d="m40.6795 7.26546c-.6189-1.97254-1.9495-3.64431-3.7329-4.69009-.9595-.55232-1.99-.97096-3.0629-1.24432 2.4484 1.43287 4.2359 3.77036 4.9772 6.50871.3036 1.06608.1846 2.20814-.3324 3.18874-.517.9805-1.3922 1.7239-2.4433 2.0757-1.0413.3379-2.1733.2571-3.156-.2253-.9827-.4825-1.7389-1.3286-2.1084-2.3591-.7658-1.91431-2.7758-6.79584-6.1259-7.94443l-1.6272 1.14859c2.9673.38286 4.7859 4.40295 5.9345 7.46584.5621 1.4795 1.6669 2.6891 3.0895 3.3826s3.056.8188 4.5678.3504c1.5322-.5059 2.808-1.5873 3.558-3.016.7501-1.4286.9158-3.09284.462-4.64134z" fill="#a6afbd"/><path d="m97.0562 75.415h-29.3849c-.4758 0-.8615.3857-.8615.8615v15.8123c0 .4758.3857.8615.8615.8615h29.3849c.4757 0 .8614-.3857.8614-.8615v-15.8123c0-.4758-.3857-.8615-.8614-.8615z" fill="#4f5660"/><path d="m74.1799 89.6768c3.0132 0 5.4559-2.4427 5.4559-5.4558 0-3.0132-2.4427-5.4559-5.4559-5.4559-3.0131 0-5.4558 2.4427-5.4558 5.4559 0 3.0131 2.4427 5.4558 5.4558 5.4558z" fill="#3e444d"/><path d="m74.1801 86.1358c1.0572 0 1.9143-.8571 1.9143-1.9143 0-1.0573-.8571-1.9144-1.9143-1.9144-1.0573 0-1.9144.8571-1.9144 1.9144 0 1.0572.8571 1.9143 1.9144 1.9143z" fill="#323740"/><path d="m75.2328 81.3494c0 .1914-.1914.2871-.3828.1914h-1.4358c-.1914.0957-.2871 0-.2871-.1914v-.1915l.1914-1.34.1914-.1914h1.2444l.1914.1914.1914 1.34z" fill="#323740"/><path d="m76.0942 86.5188c-.0508.0126-.1045.0047-.1494-.0223-.0449-.0269-.0772-.0705-.0899-.1213s-.0047-.1045.0222-.1494.0706-.0772.1214-.0899l.2871-.2872c.0957-.0957.1914-.1914.1914-.2871.099-.1068.1654-.2396.1915-.3829.0346-.0388.061-.0843.0774-.1337.0165-.0494.0227-.1016.0183-.1534 0-.1914.1914-.2872.3829-.1915h.0957l1.1486.8615c.0346.0388.061.0843.0774.1337.0165.0494.0227.1016.0183.1534l-.2872.5743-.3828.4786h-.2872l-1.34-.5743z" fill="#323740"/><path d="m71.2128 84.6998c.0243-.0162.052-.0267.0809-.0306.029-.0039.0584-.0011.0861.0081.0278.0092.053.0247.0738.0452s.0367.0455.0464.0731c.0648.117.0978.249.0957.3828.0957.0957.0957.2872.1914.3829s.1914.1914.1914.2871l.2872.2872c.0251.0063.0488.0174.0696.0329.0208.0154.0384.0348.0517.057.0134.0222.0222.0468.026.0725.0038.0256.0025.0517-.0037.0769-.0063.0251-.0175.0488-.0329.0696-.0155.0208-.0348.0384-.0571.0517-.0222.0134-.0468.0222-.0724.026-.0257.0038-.0518.0025-.0769-.0037h-.0957l-1.3401.5742h-.2871l-.2872-.4785-.2871-.5743c-.0957-.0957 0-.1915.0957-.2872l1.0529-.8614z" fill="#323740"/><path d="m90.5475 89.6768c3.0132 0 5.4558-2.4427 5.4558-5.4558 0-3.0132-2.4426-5.4559-5.4558-5.4559s-5.4558 2.4427-5.4558 5.4559c0 3.0131 2.4426 5.4558 5.4558 5.4558z" fill="#3e444d"/><path d="m90.5476 86.1358c1.0573 0 1.9144-.8571 1.9144-1.9143 0-1.0573-.8571-1.9144-1.9144-1.9144-1.0572 0-1.9143.8571-1.9143 1.9144 0 1.0572.8571 1.9143 1.9143 1.9143z" fill="#323740"/><path d="m93.419 83.1684c-.0381-.0381-.0897-.0595-.1436-.0595-.0538 0-.1055.0214-.1435.0595-.0381.038-.0595.0897-.0595.1435 0 .0539.0214.1055.0595.1436 0 .0957.0957.1914.0957.2872v.8614c.0044.0519-.0018.1041-.0183.1534-.0165.0494-.0428.0949-.0774.1338-.0381.038-.0595.0897-.0595.1435 0 .0539.0214.1055.0595.1436.038.0381.0897.0595.1435.0595.0539 0 .1055-.0214.1436-.0595h.0957l1.4358-.1914c.0507 0 .0994-.0202.1353-.0561s.0561-.0846.0561-.1354v-1.2443c0-.0507-.0202-.0994-.0561-.1353s-.0846-.0561-.1353-.0561l-1.4358-.1914z" fill="#323740"/><path d="m88.2503 82.2113c0 .1915.2872.1915.3829.0957l.1914-.2871.3829-.1914.3828-.1915h.2872c.1914 0 .2871-.1914.0957-.3828h-.0957l-.8615-1.0529c0-.0957-.0957-.1915-.1914-.0957-.0957.0957-.3828.0957-.5743.2871l-.5743.2872c-.0203.0179-.0367.04-.0478.0648-.0112.0247-.017.0516-.017.0787 0 .0272.0058.054.017.0788.0111.0247.0275.0468.0478.0648l.4786 1.34z" fill="#323740"/><path d="m90.0692 87.1885c.0957-.1914 0-.3829-.1914-.3829h-.2872c-.0743 0-.1475-.0173-.214-.0505-.0664-.0332-.1242-.0815-.1688-.1409l-.3829-.1914-.1914-.2872c-.0957-.0957-.3829-.0957-.3829.0957v.1915l-.4786 1.2443c-.0957.0957 0 .1914 0 .2871l.5743.3829.5743.1914c0 .0254.0101.0498.0281.0677.0179.018.0423.0281.0676.0281.0254 0 .0498-.0101.0677-.0281.018-.0179.0281-.0423.0281-.0677l.9571-1.1486z" fill="#323740"/><path d="m109.117 92.9314c3.436 0 6.221-2.7855 6.221-6.2216 0-3.436-2.785-6.2215-6.221-6.2215s-6.222 2.7855-6.222 6.2215c0 3.4361 2.786 6.2216 6.222 6.2216z" fill="#626b7a"/><path d="m86.4316 103.939h-18.4732c-.6343 0-1.1486.514-1.1486 1.149v10.155c0 .634.5143 1.149 1.1486 1.149h18.4732c.6344 0 1.1486-.515 1.1486-1.149v-10.155c0-.635-.5142-1.149-1.1486-1.149z" fill="#9de4d1"/><path d="m95.7163 116.382h18.4737c.634 0 1.148-.514 1.148-1.149v-10.155c0-.635-.514-1.149-1.148-1.149h-18.4737c-.6343 0-1.1486.514-1.1486 1.149v10.155c0 .635.5143 1.149 1.1486 1.149z" fill="#9de4d1"/><path d="m100.215 116.382h9.476c-.421-.915-1.096-1.69-1.944-2.233s-1.835-.831-2.842-.83c-.993.006-1.964.298-2.796.841s-1.489 1.314-1.894 2.222z" fill="#747f8d"/><path d="m72.4574 116.382h9.3802c-.4145-.895-1.0763-1.653-1.9073-2.184s-1.7966-.813-2.7828-.813-1.9518.282-2.7828.813c-.8311.531-1.4929 1.289-1.9073 2.184z" fill="#747f8d"/><path d="m104.522 115.808-1.34.574-3.4454-8.04.8614-.383z" fill="#747f8d"/><path d="m78.3916 116.095-1.4358-.287 2.0101-8.519.9571.191z" fill="#747f8d"/><path d="m70.9256 127.772c2.2731 0 4.1158-1.843 4.1158-4.116s-1.8427-4.115-4.1158-4.115-4.1158 1.842-4.1158 4.115 1.8427 4.116 4.1158 4.116z" fill="#747f8d"/><path d="m83.4644 127.772c2.2731 0 4.1158-1.843 4.1158-4.116s-1.8427-4.115-4.1158-4.115-4.1158 1.842-4.1158 4.115 1.8427 4.116 4.1158 4.116z" fill="#747f8d"/><path d="m98.6833 127.772c2.2727 0 4.1157-1.843 4.1157-4.116s-1.843-4.115-4.1157-4.115c-2.2731 0-4.1158 1.842-4.1158 4.115s1.8427 4.116 4.1158 4.116z" fill="#747f8d"/><path d="m111.222 127.772c2.273 0 4.116-1.843 4.116-4.116s-1.843-4.115-4.116-4.115-4.116 1.842-4.116 4.115 1.843 4.116 4.116 4.116z" fill="#747f8d"/><path d="m84.6134 100.78h-8.1358c-1.4358-9.0926-9.0931-16.7499-17.899-18.5685 1.3195-.3005 2.667-.4609 4.0201-.4786 10.4331 0 20.3876 8.6145 22.0147 19.0471z" fill="#687282"/><path d="m88.825 144.81c9.2845 0 15.602-7.561 14.07-16.846-1.531-9.284-10.2413-16.846-19.5258-16.846h-6.5087l5.3601 33.692z" fill="#4f5660"/><path d="m88.729 111.98h-10.4331l-1.8186-11.199h10.4331z" fill="#687282"/><path d="m88.729 111.98h-2.2972l-1.8186-11.199h2.2972z" fill="#bec3cc"/><path d="m92.8835 140.356c5.8076-6.294 4.5317-16.917-2.8497-23.729-7.3814-6.811-18.0732-7.231-23.8808-.937-5.8076 6.293-4.5317 16.917 2.8497 23.729 7.3814 6.811 18.0732 7.231 23.8808.937z" fill="#40464f"/><path d="m86.2712 134.254c2.9397-3.185 2.2993-8.558-1.4302-11.999-3.7296-3.442-9.136-3.649-12.0757-.464-2.9396 3.186-2.2993 8.558 1.4303 12 3.7295 3.442 9.136 3.649 12.0756.463z" fill="#323740"/><path d="m84.7049 135.886c2.9273-.911 4.2045-5.169 2.8525-9.51-1.3519-4.34-4.8209-7.12-7.7482-6.208s-4.2045 5.17-2.8525 9.51c1.3519 4.341 4.8209 7.12 7.7482 6.208z" fill="#2c3038"/><path d="m55.1327 144.81c9.2845 0 15.6018-7.561 14.166-16.846-1.4357-9.284-10.3373-16.846-19.5261-16.846h-6.6044l5.4558 33.692z" fill="#4f5660"/><path d="m49.0068 114.947h-10.4331l-2.2972-14.166h10.4331z" fill="#e4e6e8"/><path d="m48.5283 111.98h-2.2015l-1.8186-11.199h2.2015z" fill="#bec3cc"/><path d="m59.2837 140.256c5.8076-6.294 4.5318-16.917-2.8496-23.729-7.3814-6.811-18.0732-7.231-23.8808-.937-5.8076 6.293-4.5318 16.917 2.8496 23.728 7.3815 6.812 18.0732 7.232 23.8808.938z" fill="#e4e6e8"/><path d="m44.5083 100.781h-8.1359c-1.9143-11.6776 6.1259-21.2493 17.8033-21.2493h8.0401c-11.5816 0-19.6218 9.5717-17.7075 21.2493z" fill="#e4e6e8"/><path d="m51.818 136.216c3.8717-4.196 3.0107-11.288-1.9232-15.841s-12.0723-4.842-15.944-.646c-3.8717 4.195-3.0107 11.288 1.9232 15.84 4.9339 4.553 12.0723 4.843 15.944.647z" fill="#bdc5cf"/><path d="m41.6369 135.047-4.4029-3.35c-.2872-.192-.0958-.574.2871-.574h7.4659c.3828 0 .4786.478.1914.765l-3.0629 3.063c-.1914.096-.3829.192-.4786.096z" fill="#fff"/><path d="m86.9107 100.781h-2.2972c-1.6272-10.4333-11.5817-19.0478-22.0147-19.0478-10.4331 0-17.6118 8.6145-15.8889 19.0478h-2.2015c-1.9143-11.6776 6.1258-21.2493 17.7075-21.2493s22.7805 9.5717 24.6948 21.2493z" fill="#e9ebed"/><path d="m86.9107 100.781h-2.2972c-1.6272-10.4333-11.5817-19.0478-22.0147-19.0478-10.4331 0-17.6118 8.6145-15.8889 19.0478h-2.2015c-1.9143-11.6776 6.1258-21.2493 17.7075-21.2493s22.7805 9.5717 24.6948 21.2493z" fill="#bec3cc"/><path d="m269.823 122.795h-.479l-31.203-13.592c-.269-.141-.482-.37-.603-.648-.122-.278-.146-.59-.067-.883.05-.16.136-.307.249-.43.114-.123.253-.221.408-.284.155-.064.322-.093.49-.086.167.008.331.052.48.13l31.203 13.496c.148.053.283.135.397.242.115.107.206.236.269.379.063.144.095.298.096.455.001.156-.03.311-.092.455-.094.227-.254.421-.458.557s-.445.209-.69.209z" fill="#e9ebed"/><path d="m165.876 142.321c-4.979-.012-9.796-1.773-13.609-4.974-3.814-3.201-6.382-7.64-7.257-12.542-1.149-6.413-1.819-12.634-2.489-17.995l-.191-2.201c-.399-3.477-2.064-6.6865-4.676-9.0163s-5.99-3.6176-9.49-3.6182h-2.106c-.305 0-.597-.1211-.812-.3365s-.336-.5075-.336-.8121c-.014-.1587.006-.3184.058-.469s.134-.2888.242-.4058.239-.2103.385-.2739.304-.0962.463-.0957h2.106c4.088-.0036 8.035 1.4966 11.088 4.2148 3.054 2.7182 5.001 6.4647 5.471 10.5257l.191 2.201c.67 5.36 1.34 11.486 2.489 17.899.477 2.926 1.658 5.693 3.443 8.061 1.784 2.367 4.117 4.266 6.798 5.531 2.706 1.334 5.694 1.995 8.71 1.929 3.016-.067 5.971-.86 8.615-2.312 9.572-5.264 18.856-5.647 28.332-5.647.159-.013.319.006.469.058.151.052.289.134.406.242s.21.24.274.386c.063.146.096.303.095.462 0 .33-.131.647-.364.88-.233.234-.55.365-.88.365-11.294 0-18.952.861-27.183 5.36-3.15 1.691-6.667 2.578-10.242 2.584z" fill="#42454d"/><path d="m269.153 126.145-1.149-.287-9.189-3.924-3.35 2.393c-.161.123-.35.205-.55.238s-.406.017-.598-.047l-19.239-8.327c-.139-.062-.264-.151-.369-.262-.104-.111-.185-.241-.239-.384-.053-.142-.078-.294-.072-.446s.042-.302.105-.44c.053-.147.136-.282.242-.397.107-.114.236-.205.38-.268.143-.063.298-.096.454-.097.157 0 .312.031.456.092l18.569 8.04 3.35-2.488c.187-.109.396-.174.611-.19.216-.017.432.015.633.094l9.763 4.212c.062.03.13.047.2.049.069.002.138-.011.202-.038.063-.027.12-.068.167-.12.046-.051.081-.112.101-.179.031-.062.048-.13.05-.199s-.011-.138-.038-.202c-.028-.064-.069-.121-.12-.167-.052-.046-.113-.081-.179-.102l-31.203-13.496c-.269-.141-.482-.37-.603-.648-.122-.278-.146-.59-.067-.883.05-.16.136-.307.249-.43.114-.123.253-.221.408-.284.155-.064.322-.093.49-.086.167.008.331.052.48.13l31.203 13.496c.6.284 1.088.76 1.385 1.354.297.593.387 1.269.255 1.92-.133.65-.479 1.238-.985 1.668-.505.43-1.14.678-1.803.705z" fill="#a8b0b5"/><path d="m230.962 127.294-4.69-2.01 3.158-7.275 4.69 2.01c.131.047.247.129.335.237s.145.238.165.376c.019.137.001.278-.053.406s-.143.239-.255.321c-.771.586-1.379 1.361-1.764 2.249-.386.888-.537 1.861-.438 2.824.045.15.042.31-.007.458-.049.149-.142.279-.267.372-.125.094-.276.148-.432.153-.157.006-.311-.037-.442-.121z" fill="#4f5660"/><path d="m235.173 122.125-26.226-11.295c-2.348-1.03-4.196-2.943-5.145-5.325s-.923-5.042.072-7.4048c.5-1.1827 1.23-2.254 2.149-3.1513.918-.8973 2.006-1.6027 3.2-2.075 1.194-.4722 2.47-.7019 3.754-.6756 1.284.0264 2.55.3081 3.723.829l28.619 12.3477c.635.282 1.196.709 1.639 1.245.442.536.755 1.167.912 1.844.158.677.156 1.381-.004 2.057-.16.677-.475 1.307-.919 1.841l-7.084 8.71c-.554.671-1.316 1.138-2.164 1.329-.849.19-1.738.093-2.526-.276z" fill="#8e97a3"/><path d="m212.489 139.737v.957c-.004.276-.086.545-.238.775s-.367.411-.62.522c-.252.111-.531.147-.803.104-.273-.044-.527-.164-.732-.348l-8.232-6.222c-.358-.271-.658-.612-.882-1.003-.224-.39-.367-.821-.421-1.268-.053-.446-.016-.899.109-1.331s.336-.835.62-1.184l12.156-14.74c.241-.266.414-.588.503-.936.088-.349.09-.714.005-1.063s-.254-.673-.493-.942c-.239-.268-.54-.475-.877-.6l-3.541-1.628 1.34-2.871 22.11 9.476.958 3.924-1.34-.574c-.256-.074-.529-.057-.773.047-.245.105-.445.291-.567.527l-2.106 4.882c-.188.399-.515.717-.921.893-.405.176-.86.199-1.281.064l-1.914-.861c-.449-.18-.948-.192-1.405-.034s-.842.476-1.084.895c-2.009 3.477-4.637 6.559-7.753 9.093-1.032.867-1.685 2.104-1.818 3.446z" fill="#8e97a3"/><path d="m260.538 108.151c.457 0 .895.181 1.218.504s.505.762.505 1.219v34.936h-3.542v-34.936c0-.235.047-.467.14-.683.092-.215.228-.41.398-.571s.372-.286.592-.367.455-.115.689-.102z" fill="#747f8d"/><path d="m200.428 140.981h66.715c.406 0 .795.161 1.082.449.288.287.449.676.449 1.082v2.298h-69.777v-2.298c0-.406.161-.795.448-1.082.288-.288.677-.449 1.083-.449z" fill="#747f8d"/><path d="m203.587 98.6752c-.857 2.3398-.778 4.9198.22 7.2018.999 2.283 2.84 4.092 5.14 5.05l3.542 1.531c.337.126.638.332.877.601.238.269.408.592.493.942.085.349.083.714-.006 1.062-.088.349-.261.67-.503.937l-12.156 14.74 1.149.766c.459.35 1.037.507 1.61.435.573-.071 1.095-.365 1.453-.818l13.113-15.123c.895-.998 1.529-2.202 1.846-3.505.318-1.302.308-2.663-.027-3.961l-.575-2.202c-.186-.584-.141-1.218.126-1.77s.736-.98 1.31-1.197l2.01-.957c.696-.289 1.287-.783 1.697-1.415s.62-1.3732.6-2.1264v-2.01l-8.901-3.9244c-1.228-.5201-2.548-.7835-3.881-.7737-1.333.0097-2.65.2923-3.87.8304-1.219.538-2.316 1.3201-3.222 2.2981-.905.9779-1.601 2.131-2.045 3.3882z" fill="#747f8d"/><path d="m238.34 109.389-9.223-3.991c-.922-.399-1.993.025-2.392.946l-.034.079c-.399.922.025 1.993.947 2.392l9.223 3.991c.922.399 1.993-.025 2.392-.947l.034-.079c.399-.922-.025-1.992-.947-2.391z" fill="#ffd836"/><path d="m19.5261 33.2041h22.5891c.2284 0 .4475.0908.6091.2523.1615.1616.2523.3807.2523.6091v1.7229h-24.3119v-1.7229c0-.2284.0907-.4475.2523-.6091.1615-.1615.3806-.2523.6091-.2523z" fill="#9aa2ac"/><g fill="#8a939f"><path d="m36.1806 15.8797h-.0958c-.1174-.0413-.2182-.1196-.2873-.2232-.069-.1036-.1026-.2268-.0955-.3511.2942-.7611.3929-1.5838.2871-2.3929-.0368-.062-.0552-.1332-.0533-.2053s.0241-.1422.0641-.2022c.04-.0601.0962-.1075.162-.137s.1387-.0398.2101-.0298c.1214.0057.2391.0444.3402.1118.1012.0675.1821.1612.2341.2711.1109.9667.013 1.9459-.2872 2.8715-.0544.0794-.1253.1462-.2079.1958-.0826.0495-.1749.0807-.2706.0913z"/><path d="m32.2565 15.4012c-.1914 0-.2871 0-.3828-.1914-.0377-.0503-.0652-.1075-.0808-.1684-.0156-.0608-.019-.1242-.0101-.1864s.0299-.1221.0619-.1762.0744-.1013.1247-.139c.6317-.4029 1.105-1.0115 1.34-1.7229.0072-.0634.0301-.124.0666-.1763s.0856-.0946.1426-.1231c.0571-.0286.1204-.0424.1841-.0402.0638.0021.126.0202.181.0525.2872 0 .3829.2871.2872.5743-.2682.9015-.844 1.6806-1.6272 2.2014z"/><path d="m29.3851 13.1038c-.127 0-.2487-.0505-.3384-.1402-.0898-.0898-.1402-.2115-.1402-.3384s.0504-.2487.1402-.3384c.0897-.0898.2114-.1402.3384-.1402.748-.104 1.4656-.365 2.1057-.7657.1016-.0762.2292-.1089.3549-.0909.1256.0179.239.0851.3151.1866.0958.2871.0958.5743-.1914.67-.7612.5429-1.6532.8733-2.5843.9572z"/><path d="m28.2364 10.3283c-.1269 0-.2487-.0504-.3384-.1402-.0898-.0897-.1402-.21147-.1402-.3384-.0149-.05759-.0162-.11785-.0037-.17601.0124-.05817.0382-.11263.0754-.15908.0372-.04644.0846-.08359.1386-.1085.0541-.02491.1131-.03689.1726-.03499l2.2972-.38287c.055-.0323.1172-.05034.1809-.05249.0638-.00214.1271.01168.1841.04021.0571.02853.1061.07086.1427.12316.0365.05229.0594.11288.0666.17627.0318.11429.0201.23633-.033.34245s-.1437.18874-.2542.23185z"/><path d="m26.8006 7.6482c-.1914 0-.3829-.09571-.3829-.28714 0-.19144 0-.5743.2872-.5743.8447-.35908 1.7686-.49106 2.68-.38287.127 0 .2487.05042.3384.14018.0898.08975.1402.21148.1402.3384 0 .12693-.0504.24866-.1402.33841-.0897.08975-.2114.14018-.3384.14018-.8091-.10176-1.6308-.00316-2.3929.28714z"/><path d="m25.1734 5.25514c-.1915 0-.3829 0-.4786-.19144-.0326-.11849-.032-.24367.0018-.36185.0337-.11817.0993-.22478.1896-.30816.8818-.46316 1.8992-.59881 2.8715-.38286.2872.09571.4786.38286.3829.57429s-.2872.47858-.5743.38287c-.7434-.19277-1.5325-.08984-2.2015.28715z"/><path d="m39.1481 14.0609c-.1269 0-.2486-.0504-.3384-.1402-.0897-.0897-.1401-.2115-.1401-.3384-.0208-.7552-.3289-1.4741-.8615-2.01-.044-.0503-.0776-.1088-.099-.1721-.0214-.0632-.0302-.1301-.0257-.1968.009-.1346.071-.2602.1726-.349.1015-.0889.2342-.1337.3688-.1248.1347.009.2602.0711.3491.1726.6344.7168 1.0058 1.6283 1.0528 2.5844.0019.1371-.0452.2703-.133.3757-.0878.1053-.2104.1757-.3456.1986z"/><path d="m40.5838 11.2857c-.0998.0082-.1997-.0151-.2855-.0666-.0859-.0515-.1534-.1287-.1931-.2206-.2227-.7431-.6963-1.38582-1.34-1.8186-.2872-.09572-.2872-.47859-.1915-.67002.0834-.09029.19-.1559.3082-.18967.1182-.03376.2433-.03437.3618-.00176.8523.57655 1.4913 1.41737 1.8186 2.39295.0958.1914-.0957.4785-.2871.5743z"/><path d="m40.7751 7.64829h-.2872c-.3082-.2-.653-.33683-1.0145-.40255s-.7324-.05904-1.0912.01968c-.1215-.0057-.2391-.04434-.3403-.11179s-.1821-.16115-.234-.27107c0-.28715.0957-.5743.3828-.5743.4984-.10774 1.0145-.10352 1.5111.01235.4965.11586.9612.34048 1.3604.65766.1016.07616.1687.18953.1866.31519.018.12565-.0147.25329-.0909.35483z"/><path d="m39.2434 4.96789h-.3828c-.2743-.19479-.5865-.32956-.9164-.39553-.3298-.06597-.6699-.06166-.9979.01266-.1915 0-.4786-.19143-.4786-.38286-.0368-.06206-.0553-.13323-.0534-.20534s.0242-.14221.0642-.20222c.04-.06002.0962-.10751.162-.13701s.1386-.03981.21-.02973c.4687-.08529.9502-.06964 1.4123.04589.4622.11554.8944.32832 1.2678.62413.1914.09571.1914.47858.0957.67001z"/></g><path d="m132.088 66.2267c1.163 0 2.106-.9428 2.106-2.1058s-.943-2.1058-2.106-2.1058-2.106.9428-2.106 2.1058.943 2.1058 2.106 2.1058z" fill="#9ba3ad"/><path d="m150.37 84.3169h-5.073c-.159.0133-.318-.0066-.469-.0583-.15-.0518-.289-.1343-.406-.2423s-.21-.2392-.274-.3852c-.063-.1459-.096-.3036-.095-.4628 0-.33.131-.6465.364-.8798.234-.2334.55-.3645.88-.3645h5.073c4.882 0 8.232-1.8186 9.763-5.1687.528-1.2162.744-2.5452.627-3.866-.117-1.3207-.563-2.5912-1.297-3.6956-.79-1.1861-1.855-2.1629-3.106-2.8464-1.25-.6836-2.648-1.0535-4.073-1.0779h-20.196c-.304 0-.596-.121-.812-.3364-.215-.2154-.336-.5076-.336-.8122-.001-.3141.117-.6169.33-.8477s.505-.3725.818-.3966h20.196c1.835.0049 3.639.4723 5.245 1.359s2.963 2.1641 3.944 3.7139c.974 1.4148 1.565 3.0574 1.716 4.7682s-.144 3.4315-.854 4.9949c-1.915 4.3072-6.126 6.6044-11.965 6.6044z" fill="#585f6a"/><path d="m209.713 105.566c1.322 0 2.393-1.071 2.393-2.393 0-1.321-1.071-2.393-2.393-2.393-1.321 0-2.393 1.072-2.393 2.393 0 1.322 1.072 2.393 2.393 2.393z" fill="#626b7a"/><path d="m136.013 4.10669c0-1.00439-.793-1.8186-1.771-1.8186s-1.771.81421-1.771 1.8186v3.37879c0 1.00439.793 1.81861 1.771 1.81861s1.771-.81422 1.771-1.81861z" fill="#3e70dd"/><path d="m136.013 19.8997c0-1.0044-.793-1.8186-1.771-1.8186s-1.771.8142-1.771 1.8186v3.3787c0 1.0044.793 1.8187 1.771 1.8187s1.771-.8143 1.771-1.8187z" fill="#3e70dd"/><path d="m143.765 15.4976c1.004 0 1.818-.7928 1.818-1.7708s-.814-1.7707-1.818-1.7707h-3.379c-1.004 0-1.819.7927-1.819 1.7707s.815 1.7708 1.819 1.7708z" fill="#3e70dd"/><path d="m127.973 15.4971c1.004 0 1.818-.7928 1.818-1.7708s-.814-1.7707-1.818-1.7707h-3.379c-1.005 0-1.819.7927-1.819 1.7707s.814 1.7708 1.819 1.7708z" fill="#3e70dd"/></g></svg>