<svg height="142" viewBox="0 0 660 142" width="660" xmlns="http://www.w3.org/2000/svg"><g fill="#202225" fill-rule="evenodd" opacity=".3"><path d="m476.5 274.195238c46.668061 0 84.5-37.651786 84.5-84.097619 0-17.678891-5.481194-34.083677-14.844538-47.62293-15.235954-22.030956-40.75088-36.474689-69.655462-36.474689-28.796237 0-54.228182 14.335655-69.4837 36.22727-9.46804 13.586604-15.0163 30.083629-15.0163 47.870349 0 46.445833 37.831939 84.097619 84.5 84.097619z"/><path d="m-16.537 10.537h65.894v248.82h-65.894z" transform="matrix(0 1 -1 0 151.357 118.537)"/><ellipse cx="396.5" cy="16.283" rx="3.5" ry="3.483"/><ellipse cx="375.5" cy="16.283" rx="3.5" ry="3.483"/><ellipse cx="354.5" cy="16.283" rx="3.5" ry="3.483"/><ellipse cx="333.5" cy="16.283" rx="3.5" ry="3.483"/><ellipse cx="417.5" cy="16.283" rx="3.5" ry="3.483"/><ellipse cx="438.5" cy="16.283" rx="3.5" ry="3.483"/><ellipse cx="459.5" cy="16.283" rx="3.5" ry="3.483"/><ellipse cx="397.5" cy="37.183" rx="3.5" ry="3.483"/><ellipse cx="376.5" cy="37.183" rx="3.5" ry="3.483"/><ellipse cx="355.5" cy="37.183" rx="3.5" ry="3.483"/><ellipse cx="334.5" cy="37.183" rx="3.5" ry="3.483"/><ellipse cx="418.5" cy="37.183" rx="3.5" ry="3.483"/><ellipse cx="438.5" cy="37.183" rx="3.5" ry="3.483"/><ellipse cx="459.5" cy="37.183" rx="3.5" ry="3.483"/><ellipse cx="397.5" cy="58.083" rx="3.5" ry="3.483"/><ellipse cx="376.5" cy="58.083" rx="3.5" ry="3.483"/><ellipse cx="355.5" cy="58.083" rx="3.5" ry="3.483"/><ellipse cx="334.5" cy="58.083" rx="3.5" ry="3.483"/><ellipse cx="418.5" cy="58.083" rx="3.5" ry="3.483"/><ellipse cx="438.5" cy="58.083" rx="3.5" ry="3.483"/><ellipse cx="459.5" cy="58.083" rx="3.5" ry="3.483"/></g></svg>