<svg fill="none" height="96" viewBox="0 0 400 96" width="400" xmlns="http://www.w3.org/2000/svg" xmlns:xlink="http://www.w3.org/1999/xlink"><clipPath id="a"><path d="m0 0h400v96h-400z"/></clipPath><path d="m0 0h400v96h-400z" fill="#e3e5e8"/><g clip-path="url(#a)" clip-rule="evenodd" fill="#060607" fill-rule="evenodd" opacity=".1"><path d="m55.8445-20.2297 56.1765 49.7425-59.2266 52.4433-56.17626-49.7425z" opacity=".5"/><path d="m214.619 155.172c25.305 0 45.818-19.15 45.818-42.774 0-23.623-20.513-42.7736-45.818-42.7736s-45.819 19.1506-45.819 42.7736c0 23.624 20.514 42.774 45.819 42.774z" opacity=".5"/><path d="m297.66 11.5178c.869 0 1.573-.6575 1.573-1.4686 0-.81111-.704-1.46863-1.573-1.46863s-1.573.65752-1.573 1.46863c0 .8111.704 1.4686 1.573 1.4686z" opacity=".5"/><path d="m288.221 11.5178c.869 0 1.573-.6575 1.573-1.4686 0-.81111-.704-1.46863-1.573-1.46863s-1.573.65752-1.573 1.46863c0 .8111.704 1.4686 1.573 1.4686z" opacity=".5"/><path d="m278.782 11.5178c.868 0 1.573-.6575 1.573-1.4686 0-.81111-.705-1.46863-1.573-1.46863-.869 0-1.574.65752-1.574 1.46863 0 .8111.705 1.4686 1.574 1.4686z" opacity=".5"/><path d="m269.343 11.5178c.869 0 1.573-.6575 1.573-1.4686 0-.81111-.704-1.46863-1.573-1.46863s-1.573.65752-1.573 1.46863c0 .8111.704 1.4686 1.573 1.4686z" opacity=".5"/><path d="m307.099 11.5178c.868 0 1.573-.6575 1.573-1.4686 0-.81111-.705-1.46863-1.573-1.46863-.869 0-1.574.65752-1.574 1.46863 0 .8111.705 1.4686 1.574 1.4686z" opacity=".5"/><path d="m316.538 11.5178c.868 0 1.573-.6575 1.573-1.4686 0-.81111-.705-1.46863-1.573-1.46863-.869 0-1.574.65752-1.574 1.46863 0 .8111.705 1.4686 1.574 1.4686z" opacity=".5"/><path d="m325.977 11.5178c.869 0 1.573-.6575 1.573-1.4686 0-.81111-.704-1.46863-1.573-1.46863s-1.573.65752-1.573 1.46863c0 .8111.704 1.4686 1.573 1.4686z" opacity=".5"/><path d="m298.053 20.3292c.869 0 1.574-.6575 1.574-1.4686s-.705-1.4686-1.574-1.4686c-.868 0-1.573.6575-1.573 1.4686s.705 1.4686 1.573 1.4686z" opacity=".5"/><path d="m288.614 20.3292c.869 0 1.573-.6575 1.573-1.4686s-.704-1.4686-1.573-1.4686-1.573.6575-1.573 1.4686.704 1.4686 1.573 1.4686z" opacity=".5"/><path d="m279.175 20.3292c.869 0 1.573-.6575 1.573-1.4686s-.704-1.4686-1.573-1.4686-1.573.6575-1.573 1.4686.704 1.4686 1.573 1.4686z" opacity=".5"/><path d="m269.736 20.3292c.869 0 1.573-.6575 1.573-1.4686s-.704-1.4686-1.573-1.4686-1.573.6575-1.573 1.4686.704 1.4686 1.573 1.4686z" opacity=".5"/><path d="m307.493 20.3292c.868 0 1.573-.6575 1.573-1.4686s-.705-1.4686-1.573-1.4686c-.869 0-1.574.6575-1.574 1.4686s.705 1.4686 1.574 1.4686z" opacity=".5"/><path d="m316.932 20.3292c.868 0 1.573-.6575 1.573-1.4686s-.705-1.4686-1.573-1.4686c-.869 0-1.574.6575-1.574 1.4686s.705 1.4686 1.574 1.4686z" opacity=".5"/><path d="m326.371 20.3292c.868 0 1.573-.6575 1.573-1.4686s-.705-1.4686-1.573-1.4686c-.869 0-1.574.6575-1.574 1.4686s.705 1.4686 1.574 1.4686z" opacity=".5"/><path d="m298.053 29.1411c.869 0 1.574-.6575 1.574-1.4686s-.705-1.4686-1.574-1.4686c-.868 0-1.573.6575-1.573 1.4686s.705 1.4686 1.573 1.4686z" opacity=".5"/><path d="m288.614 29.1411c.869 0 1.573-.6575 1.573-1.4686s-.704-1.4686-1.573-1.4686-1.573.6575-1.573 1.4686.704 1.4686 1.573 1.4686z" opacity=".5"/><path d="m279.175 29.1411c.869 0 1.573-.6575 1.573-1.4686s-.704-1.4686-1.573-1.4686-1.573.6575-1.573 1.4686.704 1.4686 1.573 1.4686z" opacity=".5"/><path d="m269.736 29.1411c.869 0 1.573-.6575 1.573-1.4686s-.704-1.4686-1.573-1.4686-1.573.6575-1.573 1.4686.704 1.4686 1.573 1.4686z" opacity=".5"/><path d="m307.493 29.1411c.868 0 1.573-.6575 1.573-1.4686s-.705-1.4686-1.573-1.4686c-.869 0-1.574.6575-1.574 1.4686s.705 1.4686 1.574 1.4686z" opacity=".5"/><path d="m316.932 29.1411c.868 0 1.573-.6575 1.573-1.4686s-.705-1.4686-1.573-1.4686c-.869 0-1.574.6575-1.574 1.4686s.705 1.4686 1.574 1.4686z" opacity=".5"/><path d="m326.371 29.1411c.868 0 1.573-.6575 1.573-1.4686s-.705-1.4686-1.573-1.4686c-.869 0-1.574.6575-1.574 1.4686s.705 1.4686 1.574 1.4686z" opacity=".5"/><path d="m363.866-60.7017c-7.187-1.7078-9.249-10.8167-3.441-15.2036l15.477-11.691 37.805 132.2603-4.449 3.3609c-7.263 5.486-17.411-1.9439-14.186-10.3862 1.932-5.0577-1.135-10.6875-6.519-11.9669l-3.585-.8518c-7.484-1.7784-11.61-9.7398-8.629-16.65077l3.531-8.1858276c3.395-7.8710424-1.304-16.9383024-9.828-18.9638024-6.137-1.4583-9.52-7.9868-7.076-13.6539l7.016-16.2652c2.113-4.8986-.811-10.5417-6.116-11.8022z" opacity=".5"/></g></svg>