<svg width="69" height="32" viewBox="0 0 69 32" fill="none" xmlns="http://www.w3.org/2000/svg">
<path d="M0 25.1154V3.74179C0 3.68509 0.0284888 3.6284 0.0854666 3.6284L4.72915 2.21105C4.81461 2.1827 4.90008 2.23939 4.90008 2.32444V17.3484V25.1438C4.90008 25.2288 4.8431 25.2855 4.75763 25.2855H0.142444C0.0569774 25.2572 0 25.2005 0 25.1154Z" fill="#242931"/>
<path d="M32.6482 0C34.386 0 35.725 1.36066 35.725 3.03313C35.725 4.70561 34.3575 6.03794 32.6482 6.03794C30.9958 6.03794 29.6284 4.67726 29.6284 3.03313C29.5999 1.36066 30.9958 0 32.6482 0Z" fill="#FF7E61"/>
<path d="M34.7848 8.36233H30.3406C30.1981 8.36233 30.0842 8.47572 30.0842 8.61745V25.0587C30.0842 25.2005 30.1981 25.3139 30.3406 25.3139H34.7848C34.9272 25.3139 35.0412 25.2005 35.0412 25.0587V8.61745C35.0412 8.47572 34.9272 8.36233 34.7848 8.36233Z" fill="#242931"/>
<path d="M9.4868 8.41905L1.11108 15.7893L10.0281 25.3705C10.0566 25.3989 10.0566 25.3989 10.0851 25.3989H16.1532C16.3241 25.3989 16.4096 25.2005 16.2956 25.0871L8.43271 16.1861L15.9538 8.64579C16.0677 8.53244 15.9822 8.36233 15.8398 8.36233H9.60073C9.54377 8.36233 9.51528 8.39066 9.4868 8.41905Z" fill="#242931"/>
<path d="M57.1486 16.4979H52.1344V31.5785C52.1344 31.6352 52.1915 31.6919 52.2485 31.6635L57.0059 30.1895C57.0344 30.1895 57.063 30.1328 57.063 30.1045L57.1486 16.4979Z" fill="#242931"/>
<path d="M60.5674 25.2005C55.9237 25.2005 52.1344 21.4303 52.1344 16.8098C52.1344 12.1892 55.9237 8.44738 60.5674 8.44738C65.2112 8.44738 69 12.2175 69 16.8381C69 21.4587 65.2112 25.2005 60.5674 25.2005ZM60.5674 13.4081C58.6868 13.4081 57.1486 14.9388 57.1486 16.8098C57.1486 18.6807 58.6868 20.2114 60.5674 20.2114C62.4476 20.2114 63.9858 18.6807 63.9858 16.8098C63.9858 14.9388 62.4761 13.4081 60.5674 13.4081Z" fill="#242931"/>
<path d="M50.4535 20.013C50.3681 16.9232 47.2912 15.7325 45.0122 14.8822C43.8726 14.4569 42.6761 14.0034 42.6191 13.5215C42.5906 13.4081 42.5906 13.0679 42.847 12.7561C43.1319 12.4443 43.6162 12.3026 44.2999 12.3309C45.5819 12.3876 46.1232 13.2664 46.3226 13.7766L46.3511 13.8333L46.4081 13.89C46.579 14.0601 46.8639 14.1168 47.0633 13.975L50.0547 12.2176C50.311 12.0758 50.3965 11.764 50.2541 11.5089C49.1145 9.49621 46.8639 8.36233 44.0435 8.36233C42.3911 8.36233 40.8528 8.87257 39.6847 9.77967C38.4312 10.7435 37.7475 12.1042 37.7475 13.6066C37.7475 15.6759 38.887 17.2066 41.1377 18.1988C41.5365 18.3688 42.1063 18.5106 42.733 18.6523C43.9865 18.9641 45.7244 19.3893 45.5534 20.1264C45.468 20.5515 44.9551 21.2319 43.9011 21.1752C42.9894 21.1185 42.2203 20.6366 41.9068 19.8712V19.8429L41.8784 19.7862C41.7359 19.5594 41.4226 19.4744 41.1662 19.6161L38.1748 21.402C37.9184 21.5437 37.8329 21.8555 37.9754 22.1107C39.1149 24.0949 41.3656 25.2571 44.1575 25.2571H44.186C46.1232 25.2571 47.975 24.5202 49.143 23.3296C50.0262 22.4225 50.482 21.2602 50.4535 20.013Z" fill="#242931"/>
<path d="M25.64 8.39075C21.1102 8.41914 17.4352 12.0759 17.4352 16.5831V25.2006C17.4352 25.2289 17.4637 25.2856 17.5207 25.2856H22.5062C22.5347 25.2856 22.5917 25.2573 22.5917 25.2006V17.4052C22.5917 15.2508 24.358 13.4933 26.5231 13.4933H27.4348C27.4917 13.4933 27.5487 13.4365 27.5487 13.4082L28.0615 8.64593C28.09 8.50415 27.976 8.39075 27.8336 8.39075H25.64Z" fill="#242931"/>
</svg>
