<svg fill="none" height="94" viewBox="0 0 147 94" width="147" xmlns="http://www.w3.org/2000/svg" xmlns:xlink="http://www.w3.org/1999/xlink"><clipPath id="a"><path d="m0 0h147v94h-147z"/></clipPath><g clip-path="url(#a)"><path d="m71 91.6667c23.0119 0 41.667-18.6549 41.667-41.6667 0-23.0119-18.6551-41.66669-41.667-41.66669-23.0118 0-41.6666 18.65479-41.6666 41.66669 0 23.0118 18.6548 41.6667 41.6666 41.6667z" fill="#f47fff"/><path d="m103.25 35.5c9.803 0 17.75-7.9469 17.75-17.75 0-9.80305-7.947-17.75-17.75-17.75-9.8031 0-17.75 7.94695-17.75 17.75 0 9.8031 7.9469 17.75 17.75 17.75z" fill="#83ddc5"/><path d="m103.25 9.33331v16.16669" stroke="#fff" stroke-linecap="round" stroke-miterlimit="10" stroke-width="2.66"/><path d="m111.333 17.4166h-16.1664" stroke="#fff" stroke-linecap="round" stroke-miterlimit="10" stroke-width="2.66"/><path d="m89.75 68.5209c0-7.9375-4.0417-14.7084-9.7292-17.3959 1.792-.9096 3.2425-2.3733 4.1358-4.1734.8934-1.8001 1.1818-3.8405.8225-5.8178-.3593-1.9772-1.3471-3.7856-2.8167-5.1564-1.4695-1.3707-3.3423-2.2305-5.3397-2.4515-1.9974-.2211-4.0128.2085-5.7465 1.2248s-3.093 2.565-3.8759 4.4158-.9476 3.9049-.4694 5.8568 1.5736 3.6973 3.1233 4.9767c-4.0574.0582-8.01-1.2888-11.1875-3.8125-2.2938-2.0815-3.6904-4.9718-3.8959-8.0625 0-1.2376-.4916-2.4246-1.3668-3.2998s-2.0622-1.3668-3.2998-1.3668c-1.2377 0-2.4247.4916-3.2999 1.3668-.8751.8752-1.3668 2.0622-1.3668 3.2998.2244 5.6738 2.6714 11.0317 6.8125 14.9167 2.775 2.4758 6.1047 4.2479 9.7083 5.1667-1.6905 3.173-2.564 6.7172-2.5416 10.3125z" fill="#fff"/><path d="m131.67 34.59-5.67 2c-.292.1-.545.2888-.724.5398-.18.251-.276.5517-.276.8602s.096.6092.276.8602c.179.251.432.4398.724.5398l5.67 2c.211.0727.402.1925.56.3501.158.1577.277.3491.35.5599l2 5.67c.1.2918.289.545.54.7243s.552.2757.86.2757.609-.0964.86-.2757.44-.4325.54-.7243l2-5.67c.074-.21.194-.4008.352-.5583.157-.1575.348-.2777.558-.3517l5.68-2c.292-.1.545-.2888.724-.5398.18-.251.276-.5517.276-.8602s-.096-.6092-.276-.8602c-.179-.251-.432-.4398-.724-.5398l-5.68-2c-.209-.0759-.399-.1967-.556-.3539-.157-.1573-.278-.3471-.354-.5561l-2-5.68c-.1-.2918-.289-.545-.54-.7243s-.552-.2757-.86-.2757-.609.0964-.86.2757-.44.4325-.54.7243l-2 5.68c-.074.21-.194.4008-.352.5583-.157.1575-.348.2777-.558.3517z" fill="#fff"/><path d="m32.5815 80.8315-5.41-2.61c-.2797-.1478-.5994-.2021-.9121-.1549-.3128.0471-.6023.1932-.8259.4169-.2237.2237-.3698.5131-.417.8259-.0471.3127.0072.6324.155.9121l2.64 5.4c.0939.202.1426.4221.1426.645 0 .2228-.0487.4429-.1426.645l-2.62 5.39c-.1478.2796-.2021.5993-.155.9121.0472.3127.1933.6022.417.8258.2236.2237.5131.3698.8259.417.3127.0471.6324-.0072.9121-.1549l5.41-2.6c.2006-.0988.4213-.1502.645-.1502.2236 0 .4443.0514.645.1502l5.4 2.6c.2796.1477.5993.202.9121.1549.3127-.0472.6022-.1933.8258-.417.2237-.2236.3698-.5131.417-.8258.0471-.3128-.0072-.6325-.1549-.9121l-2.61-5.41c-.0989-.2007-.1502-.4214-.1502-.645 0-.2237.0513-.4444.1502-.645l2.61-5.42c.1477-.2797.202-.5994.1549-.9121-.0472-.3128-.1933-.6022-.417-.8259-.2236-.2237-.5131-.3698-.8258-.4169-.3128-.0472-.6325.0071-.9121.1549l-5.42 2.61c-.1976.1051-.4167.1633-.6404.1702-.2237.007-.4459-.0376-.6496-.1302z" fill="#3e70dd"/><path d="m8.5876 50.0222-1.21-3.41c-.05834-.1753-.17038-.3279-.32025-.4359-.14988-.1081-.32997-.1663-.51475-.1663-.18479 0-.36488.0582-.51475.1663-.14988.108-.26192.2606-.32025.4359l-1.12 3.41c-.04367.1248-.11489.2381-.20837.3316-.09349.0935-.20684.1647-.33163.2084l-3.460004 1.13c-.171798.0605-.320582.1729-.425828.3215-.1052465.1487-.161768.3264-.161768.5085 0 .1822.0565215.3598.161768.5085.105246.1486.25403.261.425828.3215l3.370004 1.18c.12479.0437.23814.1149.33163.2084.09348.0935.1647.2068.20837.3316l1.17 3.36c.05833.1753.17038.3279.32025.4359.14987.1081.32996.1663.51475.1663.18478 0 .36487-.0582.51474-.1663.14988-.108.26192-.2606.32026-.4359l1.25-3.36c.04366-.1248.11488-.2381.20837-.3316.09348-.0935.20683-.1647.33163-.2084l3.37-1.18c.1718-.0605.3206-.1729.4258-.3215.1053-.1487.1618-.3263.1618-.5085 0-.1821-.0565-.3598-.1618-.5085-.1052-.1486-.254-.261-.4258-.3215l-3.41-1.18c-.11244-.0431-.21482-.1089-.30083-.1931-.086-.0843-.15379-.1854-.19917-.2969z" fill="#d4e4ff"/></g></svg>