<svg width="222" height="209" viewBox="0 0 222 209" fill="none" xmlns="http://www.w3.org/2000/svg">
<circle cx="102.776" cy="95" r="95" fill="#232428"/>
<path d="M128.636 149.395C131.038 149.407 133.378 150.244 135.335 151.79C136.634 148.856 138.787 146.496 141.445 145.093C144.103 143.69 147.11 143.327 149.977 144.061C152.844 144.796 155.404 146.586 157.241 149.14C159.077 151.695 160.083 154.864 160.094 158.134C160.106 159.004 160.028 159.873 159.861 160.723C170.638 163.053 176.697 173.28 185.61 175.028H128.636C127.121 175.028 125.621 174.696 124.222 174.052C122.822 173.408 121.551 172.464 120.48 171.274C119.409 170.084 118.559 168.671 117.979 167.116C117.4 165.561 117.101 163.895 117.101 162.212C117.101 160.528 117.4 158.862 117.979 157.307C118.559 155.752 119.409 154.339 120.48 153.149C121.551 151.959 122.822 151.015 124.222 150.371C125.621 149.727 127.121 149.395 128.636 149.395Z" fill="url(#paint0_linear_342_47109)"/>
<path d="M165.414 100.963C165.149 101.17 164.975 101.472 164.929 101.805C164.883 102.138 164.969 102.476 165.168 102.746C165.783 103.484 166.337 103.73 167.075 103.546C167.813 103.361 173.409 101.701 175.377 100.102C177.345 98.5028 177.837 97.0268 177.407 96.2888C176.976 95.5508 176.423 95.5508 175.439 95.7353C174.455 95.9198 165.414 100.963 165.414 100.963Z" fill="#423D80"/>
<path d="M162.216 96.7797C163.089 98.3527 164.054 99.8724 165.107 101.331C165.279 101.58 165.531 101.764 165.821 101.854C166.111 101.943 166.423 101.932 166.706 101.823C167.505 101.638 172.61 100.47 175.07 98.0098C177.53 95.5497 175.377 94.6887 173.286 94.8732L169.35 95.3037L167.628 92.7207L163.2 93.2127L162.216 96.7797Z" fill="#DDDDE8"/>
<path d="M162.831 65.5987H161.785C161.478 65.5372 161.293 65.3527 161.355 65.0452C161.416 64.7377 161.601 64.6147 161.847 64.6762C162.093 64.7377 166.521 65.2297 168.796 62.2776C171.072 59.3256 170.334 53.7905 170.334 53.729C170.326 53.6476 170.339 53.5656 170.372 53.4904C170.404 53.4152 170.454 53.3493 170.518 53.2985C170.588 53.2456 170.67 53.2121 170.756 53.2013C170.843 53.1905 170.93 53.2028 171.01 53.237C171.133 53.2985 174.27 54.8975 176.545 52.5605C178.821 50.2235 177.898 46.1029 177.837 46.0414C177.845 45.8805 177.911 45.7279 178.022 45.6109C178.07 45.5461 178.138 45.4989 178.216 45.4767C178.294 45.4545 178.377 45.4584 178.452 45.4879C178.452 45.4879 181.097 46.2259 182.88 45.1189C184.664 44.0119 184.848 39.8299 184.848 39.7684C184.848 39.7069 184.91 39.3994 185.156 39.2764C185.256 39.2589 185.359 39.2666 185.456 39.2988C185.552 39.331 185.639 39.3867 185.709 39.4609C189.584 45.4879 194.934 48.932 199.301 48.194C203.667 47.456 207.05 43.0279 209.079 35.2173C209.112 35.1031 209.189 35.0066 209.292 34.9489C209.396 34.8913 209.519 34.8772 209.633 34.9098C209.747 34.9424 209.844 35.0191 209.901 35.1229C209.959 35.2267 209.973 35.3491 209.94 35.4633C207.296 45.7954 202.806 48.563 199.485 49.1165C194.934 49.8545 189.768 46.8409 185.771 41.2444C185.648 42.7204 185.156 44.8114 183.372 45.9184C181.991 46.6335 180.405 46.8506 178.883 46.5334C179.129 47.948 179.252 51.023 177.16 53.114C175.069 55.205 172.609 54.713 171.318 54.344C171.441 56.0046 171.502 60.1251 169.534 62.7696C167.566 65.4142 164.491 65.5987 162.831 65.5987Z" fill="#A7A7BD"/>
<path d="M163.63 93.8891C163.384 94.1351 164.184 95.7341 164.614 96.4106C163.891 96.9001 163.13 97.3319 162.339 97.7021L158.218 90.5065L150.654 82.6959C157.357 81.7119 160.186 81.5889 161.293 81.9579C162.4 82.3269 163.261 83.188 165.906 87.9235C167.259 90.322 168.366 92.2901 168.735 93.0896C167.823 93.9677 166.857 94.7893 165.844 95.5496C165.168 94.9346 163.815 93.6431 163.63 93.8891Z" fill="url(#paint1_linear_342_47109)"/>
<path d="M147.087 70.4585C148.563 70.3355 150.961 71.75 152.991 73.9026C154.528 72.5496 156.435 71.1965 157.112 70.5815C157.206 70.4674 157.336 70.3876 157.48 70.3542C157.625 70.3209 157.776 70.3359 157.911 70.397C158.824 70.6523 159.666 71.1154 160.371 71.75C161.54 72.9801 161.97 74.1486 161.601 74.5176C158.78 77.285 155.736 79.8151 152.499 82.0822L146.41 72.1191L147.087 70.4585Z" fill="#0C1AAD"/>
<path d="M156.066 70.5801C156.004 71.9331 156.312 72.2406 156.927 72.6096C157.542 72.9786 157.296 72.9171 157.665 72.9171C158.095 74.3931 159.079 75.2541 160.125 74.9466C161.17 74.6391 162.093 73.5936 162.585 72.7326L156.066 70.5801Z" fill="#FF78B9"/>
<path d="M95.0576 43.5195C95.0576 43.5195 95.1191 49.731 97.4561 52.9906C99.7932 56.2501 104.406 58.1566 104.406 58.1566L106.251 54.2206C106.251 54.2206 102.13 52.2526 100.9 50.592C99.6702 48.9315 99.1782 43.335 99.1782 43.335L95.0576 43.5195Z" fill="url(#paint2_linear_342_47109)"/>
<path d="M93.7659 64.0004C93.7659 64.0004 95.7954 56.4358 96.6564 57.3583C97.5174 58.2808 95.3649 63.0163 95.3649 63.0163C95.3649 63.0163 99.1164 59.8183 99.8544 60.7408C100.592 61.6633 96.0414 64.0619 96.0414 64.0619C96.0414 64.0619 100.838 65.8454 100.469 66.5834C100.1 67.3214 96.5334 66.0299 96.5334 66.0299C96.5334 66.0299 98.8704 68.9204 98.3784 69.3509C97.8864 69.7814 94.0119 65.9069 94.0119 65.9069L93.7659 64.0004Z" fill="#29CC7A"/>
<path d="M86.2014 60.1866C86.2014 60.1866 87.862 58.4646 90.0145 58.7106C92.167 58.9566 93.52 60.4326 94.135 63.8766C94.75 67.3207 95.2421 71.0722 94.3195 71.6257C93.397 72.1792 78.4524 71.5642 78.4524 71.5642C77.7535 71.2653 77.1707 70.7472 76.7918 70.0882C74.3933 69.6577 71.3183 68.4892 71.8718 66.7057C72.4253 64.9222 75.7463 64.9836 75.7463 64.9836C75.7463 64.9836 76.6073 62.7696 77.6528 62.0316C78.6984 61.2936 80.9124 61.7241 80.9124 61.7241C80.9124 61.7241 81.8964 60.2481 83.1879 59.9406C84.1989 59.8287 85.222 59.9122 86.2014 60.1866Z" fill="#FF8C19"/>
<path d="M89.1535 72.6721H89.092C88.9724 72.6428 88.8681 72.5697 88.7998 72.4672C88.7315 72.3647 88.7041 72.2403 88.723 72.1186C89.8915 66.2145 88.6615 61.9095 86.755 60.741C86.6661 60.6688 86.6052 60.5679 86.5828 60.4556C86.5603 60.3433 86.5777 60.2268 86.632 60.126C86.6577 60.0711 86.6947 60.0222 86.7406 59.9826C86.7864 59.943 86.8402 59.9135 86.8982 59.8961C86.9563 59.8787 87.0173 59.8737 87.0775 59.8815C87.1376 59.8893 87.1953 59.9098 87.247 59.9415C89.7685 61.5405 90.7525 66.645 89.6455 72.3031C89.6092 72.4064 89.5431 72.4965 89.4555 72.5622C89.3679 72.6279 89.2628 72.6661 89.1535 72.6721Z" fill="#FF5E19"/>
<path d="M35.8938 93.5203L34.4792 92.9053C34.8483 90.4452 34.9713 90.0147 38.3538 89.4612C41.7363 88.9077 81.5888 79.5596 87.6774 79.9286C93.7659 80.2976 123.655 81.7121 129.682 82.9421C133.188 83.6801 149.24 87.8622 149.24 87.8622L148.994 92.1058L35.8938 93.5203Z" fill="url(#paint3_linear_342_47109)"/>
<path d="M85.6478 83.0059H83.8027V92.1449H85.6478V83.0059Z" fill="#A7A7BD"/>
<path d="M69.2886 71.4424C69.2886 78.5765 76.2382 84.296 84.7253 84.296C93.2124 84.296 100.162 78.5765 100.162 71.4424H69.2886Z" fill="url(#paint4_linear_342_47109)"/>
<path d="M94.4424 87.2487H75.0082C74.6392 87.2487 74.6392 87.0642 74.6392 86.7567C74.6392 86.4492 74.6392 86.3262 75.0082 86.3262H94.4424C94.8114 86.3262 94.8729 86.5107 94.8729 86.7567C94.8729 87.0027 94.8114 87.2487 94.4424 87.2487Z" fill="white"/>
<path d="M79.313 83.1896C79.2515 83.4356 77.4679 88.2326 75.9919 92.1687H73.9624C75.4999 88.1096 77.5294 82.7591 77.8369 81.8365C77.8402 81.7656 77.8609 81.6966 77.8973 81.6356C77.9337 81.5747 77.9846 81.5237 78.0455 81.4871C78.1064 81.4506 78.1754 81.4297 78.2463 81.4263C78.3172 81.4229 78.3878 81.437 78.452 81.4675C78.7863 81.5929 79.0609 81.8401 79.2206 82.1595C79.3803 82.4789 79.4133 82.8468 79.313 83.1896Z" fill="white"/>
<path d="M95.4884 92.1674H93.5204C92.0444 88.2313 90.2608 83.4343 90.1378 83.1883C90.0406 82.8377 90.0823 82.4631 90.2541 82.1424C90.4259 81.8218 90.7146 81.5796 91.0603 81.4663C91.4293 81.3433 91.5524 81.5278 91.6754 81.8353C91.7984 82.1428 94.0124 88.1083 95.4884 92.1674Z" fill="white"/>
<path d="M83.0646 69.4735H83.0031C82.8835 69.4584 82.7737 69.4 82.6943 69.3093C82.615 69.2186 82.5716 69.102 82.5726 68.9815C82.6646 68.2463 82.6646 67.5026 82.5726 66.7674C82.5522 66.7101 82.5463 66.6485 82.5555 66.5883C82.5646 66.5281 82.5885 66.4711 82.6251 66.4224C82.6616 66.3737 82.7096 66.3348 82.7649 66.3091C82.8201 66.2835 82.8808 66.2719 82.9416 66.2754C83.0025 66.2569 83.0667 66.2522 83.1296 66.2614C83.1925 66.2707 83.2526 66.2939 83.3055 66.3291C83.3585 66.3644 83.4029 66.411 83.4357 66.4655C83.4685 66.52 83.4888 66.5811 83.4951 66.6444C83.5877 67.4413 83.5877 68.2461 83.4951 69.043C83.4951 69.1571 83.4497 69.2666 83.369 69.3474C83.2883 69.4281 83.1788 69.4735 83.0646 69.4735Z" fill="#FF8C19"/>
<path d="M82.45 64.9219C82.3564 64.9169 82.2661 64.8854 82.1899 64.8309C82.1136 64.7764 82.0545 64.7013 82.0195 64.6144C81.7608 63.8705 81.3644 63.182 80.851 62.5848C80.7933 62.4906 80.769 62.3797 80.782 62.27C80.795 62.1603 80.8446 62.0582 80.9227 61.98C81.0008 61.9019 81.1029 61.8524 81.2126 61.8394C81.3224 61.8264 81.4332 61.8506 81.5275 61.9083C82.1457 62.6013 82.6072 63.4194 82.8805 64.3069C82.9113 64.3578 82.9294 64.4153 82.9331 64.4747C82.9369 64.5341 82.9262 64.5935 82.902 64.6479C82.8779 64.7022 82.8409 64.7499 82.7943 64.7869C82.7477 64.824 82.6929 64.8491 82.6345 64.8604L82.45 64.9219Z" fill="#FF5E19"/>
<path d="M77.0372 68.5516C76.9176 68.5365 76.8078 68.4781 76.7284 68.3874C76.6491 68.2967 76.6057 68.1801 76.6067 68.0596C76.6682 67.0756 76.2992 66.03 75.8687 65.784C75.8118 65.7521 75.7618 65.7092 75.7216 65.6577C75.6815 65.6063 75.6519 65.5474 75.6348 65.4844C75.6176 65.4215 75.6131 65.3557 75.6216 65.291C75.6301 65.2263 75.6514 65.1639 75.6842 65.1075C75.7564 65.0187 75.8573 64.9578 75.9695 64.9353C76.0818 64.9129 76.1984 64.9303 76.2992 64.9845C77.2217 65.4765 77.5907 66.9526 77.5292 68.1211C77.5141 68.2406 77.4557 68.3505 77.365 68.4299C77.2743 68.5092 77.1577 68.5525 77.0372 68.5516Z" fill="#FF5E19"/>
<path d="M94.4427 73.7783C92.1672 73.7783 91.9212 74.7623 90.8757 78.4524C90.4452 80.0514 92.5977 80.0514 93.7662 78.9444C96.0417 76.8534 97.5177 73.7783 94.4427 73.7783Z" fill="#D8D8E3"/>
<path d="M49.0556 83.2497C49.0556 83.2497 48.6251 86.3248 48.4406 87.1243C48.2561 87.9238 47.8871 87.8008 47.2106 87.8623C46.0009 87.912 44.7893 87.8915 43.582 87.8008L44.197 82.5732L49.0556 83.2497Z" fill="#FFC619"/>
<path d="M57.2961 83.4957C57.2961 83.4957 57.7266 86.3862 57.8497 87.0627C57.9233 87.3884 58.1148 87.6754 58.3873 87.8684C58.6598 88.0614 58.994 88.1468 59.3257 88.1082C60.5255 87.9722 61.7166 87.7668 62.8927 87.4932L61.8472 82.3271L57.2961 83.4957Z" fill="#FFC619"/>
<path d="M63.446 81.5897C63.323 79.8677 60.986 73.2871 59.141 70.8271L45.9798 70.7041C43.9503 73.9021 42.5358 81.2207 42.7203 82.5737C42.9048 83.9268 43.7658 84.1728 46.2873 84.4188C48.8088 84.6648 49.8543 84.7263 50.4694 83.3733C51.0844 82.0202 52.0069 74.8246 52.0069 74.8246H53.4829C53.4829 74.8246 55.1434 82.1432 55.8814 83.5577C56.6194 84.9723 57.1114 84.9108 60.1865 83.9268C63.2615 82.9427 63.569 83.0042 63.446 81.5897Z" fill="#66BCFF"/>
<path d="M52.0687 75.3163C51.9644 75.3174 51.8633 75.2806 51.7841 75.2127C51.7049 75.1449 51.6531 75.0505 51.6382 74.9473C51.6192 74.8256 51.6466 74.7012 51.715 74.5988C51.7833 74.4963 51.8876 74.4232 52.0072 74.3938C52.462 74.3377 52.9011 74.1913 53.2987 73.9633C53.6062 73.7788 53.9752 73.3483 53.9137 70.8268C53.9131 70.7647 53.9259 70.7032 53.9512 70.6465C53.9766 70.5898 54.014 70.5393 54.0607 70.4984C54.1074 70.4575 54.1625 70.4272 54.222 70.4096C54.2816 70.3919 54.3442 70.3874 54.4057 70.3963C54.6517 70.3348 54.8362 70.5808 54.8362 70.8268C54.8977 73.2868 54.5902 74.2708 53.7292 74.7628C53.2355 75.0457 52.6931 75.2334 52.1302 75.3163H52.0687Z" fill="#3F99F2"/>
<path d="M45.9799 70.7041C45.2858 71.9092 44.7288 73.1882 44.3193 74.5171C44.9343 74.5171 45.4263 74.5786 46.1644 73.4716C46.7079 72.5877 47.1808 71.6624 47.5789 70.7041H45.9799Z" fill="#3F99F2"/>
<path d="M59.1411 70.8262H57.9111C58.3387 71.6707 58.8109 72.4919 59.3256 73.2862C60.0022 74.2702 60.4942 74.3317 61.0477 74.3317C60.5444 73.096 59.9049 71.9202 59.1411 70.8262Z" fill="#3F99F2"/>
<path d="M59.6331 69.2274C59.6331 69.2274 59.8791 71.0724 58.9566 71.1339C56.1276 71.4414 48.932 71.2569 46.595 71.0724C45.4265 71.0109 45.1805 70.6419 45.3035 68.8584L59.6331 69.2274Z" fill="#3442D9"/>
<path d="M35.9551 103.729C35.9551 103.729 38.3536 118.244 39.6451 121.872C40.9366 125.501 41.5516 126.423 44.3192 127.899C47.0867 129.375 58.9563 135.341 60.1249 135.956C61.2934 136.571 61.6009 136.694 61.9084 137.862C62.2159 139.031 69.6575 155.697 70.2725 157.051C70.46 157.645 70.7953 158.183 71.247 158.613C71.6987 159.044 72.2521 159.352 72.8555 159.511C74.3315 159.941 94.6883 164.8 97.2098 165.353C99.7313 165.907 99.9773 166.522 108.341 165.353C116.706 164.185 130.297 160.556 131.773 157.604C133.249 154.652 137.001 141.737 137.616 139.4C138.231 137.063 138.477 136.755 140.26 135.648C143.028 133.865 149.731 130.544 155.02 126.854C156.558 125.808 156.742 124.394 156.927 123.225C157.665 118.982 158.957 103.422 158.957 103.422L35.9551 103.729Z" fill="url(#paint5_linear_342_47109)"/>
<path d="M34.356 94.0742C34.511 97.7392 34.86 101.393 35.4015 105.021C35.6475 106.497 37.554 110.003 39.153 112.34C40.752 114.677 41.859 114.861 43.3351 113.877C44.8111 112.893 52.1297 106.497 55.6352 104.714C56.8652 104.099 57.2342 104.714 57.7262 105.513C58.2182 106.313 63.7533 118.49 65.9673 119.044C68.1814 119.597 74.5159 117.075 74.5159 117.075L147.271 116.153L150.469 120.889C151.945 122.918 152.622 122.672 154.774 119.782C155.758 118.429 157.48 115.907 158.587 114.062C159.694 112.217 159.387 112.278 159.694 109.265C160.002 106.251 161.047 96.9648 161.17 94.5047C161.293 92.0447 160.309 91.4297 157.357 91.4297H35.2785C34.479 91.4297 34.356 92.1677 34.356 94.0742Z" fill="#29CC7A"/>
<path d="M69.6577 111.355C69.1657 113.015 69.3502 121.564 69.6577 123.778C69.9652 125.992 70.2727 127.16 72.6097 128.637C74.9468 130.113 96.472 144.012 98.6861 145.18C100.9 146.349 103.791 147.394 106.251 146.349C108.711 145.303 127.038 138.415 137.001 131.835C146.964 125.254 147.702 124.393 149.178 121.441C150.654 118.489 154.467 111.785 150.224 111.047C145.98 110.309 117.382 105.512 110.248 105.02C103.114 104.528 70.3957 108.833 69.6577 111.355Z" fill="#9E4334"/>
<path d="M70.7646 109.018C67.628 109.817 67.6895 110.371 67.6895 112.769C67.7308 115.327 67.9776 117.877 68.4275 120.395C68.7966 121.687 68.7966 122.056 71.4411 121.502C72.9171 124.085 74.7006 125.192 76.1151 124.454C77.5297 123.716 79.1902 121.933 80.6662 117.013C81.2197 115.168 82.0192 115.475 83.0032 116.336C85.8938 119.042 88.2923 120.272 89.2148 120.272C90.1373 120.272 91.7363 119.78 94.3808 116.767C95.3034 115.721 95.6724 115.66 96.2874 116.644C100.162 122.486 101.515 124.516 104.159 123.962C106.804 123.409 109.879 121.318 111.847 119.842C113.815 118.366 113.877 117.997 115.722 120.211C119.719 125.192 121.872 126.853 127.96 125.869C134.049 124.885 139.399 121.072 143.889 116.705C144.996 115.598 145.549 116.029 145.795 116.275C146.041 116.521 146.964 117.505 147.702 118.427C148.44 119.35 148.932 119.596 150.408 118.919C151.884 118.243 152.438 118.058 152.561 117.136C152.751 116.039 152.853 114.928 152.868 113.815C153.053 110.371 152.622 110.432 148.87 109.694C138.046 107.665 114.799 104.405 108.957 104.221C103.114 104.036 80.9122 106.804 70.7646 109.018Z" fill="#2EE078"/>
<path d="M123.471 96.9034C122.179 97.8259 123.348 99.6709 124.393 101.147C126.177 103.607 127.468 105.083 128.944 104.099C130.42 103.115 129.313 101.27 127.345 98.7484C125.377 96.2269 124.578 96.1039 123.471 96.9034Z" fill="#FF78B9"/>
<path d="M129.867 113.508C129.715 113.493 129.574 113.421 129.471 113.307C129.369 113.194 129.313 113.046 129.313 112.893C129.313 109.879 129.19 106.497 127.96 103.975C127.91 103.843 127.907 103.697 127.952 103.562C127.997 103.428 128.087 103.313 128.206 103.237C128.274 103.195 128.349 103.168 128.428 103.158C128.507 103.148 128.587 103.154 128.662 103.178C128.738 103.201 128.808 103.24 128.867 103.293C128.927 103.346 128.974 103.411 129.006 103.483C130.359 106.189 130.482 109.756 130.482 112.893C130.482 112.974 130.466 113.054 130.435 113.128C130.404 113.203 130.359 113.271 130.302 113.328C130.245 113.385 130.177 113.43 130.102 113.461C130.028 113.492 129.948 113.508 129.867 113.508Z" fill="#FFC619"/>
<path d="M98.9937 111.848C100.47 112.155 105.267 112.217 106.251 111.848C107.235 111.479 107.419 110.556 105.513 109.265C103.606 107.973 100.962 108.65 99.3627 109.757C97.7637 110.864 98.0097 111.663 98.9937 111.848Z" fill="#A7A7BD"/>
<path d="M151.331 103.359C150.654 103.482 149.916 103.79 149.978 104.651C150.039 105.512 150.285 106.188 151.023 106.619C151.761 107.049 157.481 109.817 160.248 110.124C163.016 110.432 164.307 109.571 164.799 108.525C165.291 107.48 165.045 106.25 163.754 106.004L151.331 103.359Z" fill="#423D80"/>
<path d="M151.084 99.0551C151.084 99.0551 151.023 102.807 151.084 103.545C151.146 104.283 151.207 104.713 152.007 105.082C152.806 105.451 157.727 108.342 161.54 108.157C165.353 107.973 164.307 105.759 162.524 104.344C160.74 102.93 158.526 101.577 158.526 101.577L158.895 98.6246L153.852 94.9961L151.084 99.0551Z" fill="#DDDDE8"/>
<path d="M159.572 85.1557C158.711 84.2947 155.882 83.7412 152.561 83.7412L139.83 86.5702C138.662 88.3538 138.17 89.9528 139.277 91.5518L150.9 91.9208C150.703 94.3961 150.641 96.8804 150.716 99.3624C151.483 99.5325 152.267 99.615 153.053 99.6084C153.176 98.7474 153.483 96.4719 153.791 96.4104C154.098 96.3489 154.59 98.7474 154.775 99.6699C156.237 99.6061 157.695 99.4624 159.141 99.2394C159.58 97.2113 159.888 95.157 160.064 93.0893C160.617 87.1237 160.556 86.1397 159.572 85.1557Z" fill="#3F99F2"/>
<path d="M138.662 85.2787C138.662 85.2787 139.031 87.0622 139.523 87.1237C140.802 87.0599 142.066 86.8113 143.274 86.3857C144.549 85.9798 145.801 85.5076 147.026 84.9712L144.996 83.6797L138.662 85.2787Z" fill="black"/>
<path d="M147.211 71.1348C149.302 72.3033 151.762 75.1323 152.869 78.7609L146.104 83.9269C146.104 83.9269 141.06 85.6489 139.461 85.7719C137.862 85.8949 137.186 86.2024 136.878 84.3574C136.755 83.4349 136.509 80.1754 137.616 77.6538C138.679 75.4058 140.161 73.3811 141.983 71.6883L147.211 71.1348Z" fill="#FFE75C"/>
<path d="M139.4 66.9512C138.108 67.2587 138.047 68.1197 138.723 69.7802L139.953 72.7937C142.076 72.4724 144.246 72.8162 146.165 73.7778C148.071 74.8233 148.871 75.0693 148.563 73.9623C148.339 73.1714 147.916 72.4513 147.333 71.8712C147.333 71.8712 148.994 69.1652 148.379 68.3042C148.04 67.8581 147.565 67.5343 147.026 67.3817L139.4 66.9512Z" fill="#0C1AAD"/>
<path d="M151.761 79.1901C151.565 78.5409 151.599 77.8441 151.857 77.2169C152.114 76.5897 152.58 76.0703 153.176 75.746C153.497 75.4857 153.869 75.2943 154.267 75.1838C154.666 75.0732 155.083 75.046 155.493 75.1037C155.902 75.1614 156.296 75.3028 156.648 75.5191C157.001 75.7354 157.305 76.022 157.542 76.361C158.711 77.7756 159.695 79.0056 158.834 80.8506C157.973 82.6956 157.112 83.8641 154.836 83.4951C152.561 83.1261 152.561 82.2036 152.561 82.2036L151.761 79.1901Z" fill="#FF78B9"/>
<path d="M137.247 75.9925C136.939 77.4685 136.509 80.7895 138.169 82.5116C139.83 84.2336 141.552 82.2041 141.552 82.2041L142.29 83.3111C142.888 84.319 143.861 85.0488 144.996 85.3406C146.41 85.5866 152.868 83.8646 153.237 83.8031C153.606 83.7416 154.221 81.8351 153.237 79.621C152.253 77.407 151.945 77.776 151.761 77.776L147.456 78.9445C147.456 78.9445 145.672 74.5165 142.966 72.9175C140.26 71.3184 138.231 71.5644 137.247 75.9925Z" fill="#0C1AAD"/>
<path d="M155.267 76.1159C161.478 61.2327 172.364 48.8095 185.094 39.1539C185.125 39.1041 185.169 39.0639 185.221 39.0382C185.274 39.0125 185.333 39.0023 185.391 39.0087C185.449 39.0152 185.504 39.038 185.549 39.0747C185.595 39.1113 185.629 39.1601 185.648 39.2154C185.684 39.2543 185.711 39.3003 185.727 39.3505C185.744 39.4006 185.749 39.4537 185.743 39.5062C185.737 39.5587 185.72 39.6093 185.693 39.6546C185.666 39.6999 185.63 39.7389 185.586 39.7689C176.238 47.0875 167.874 55.8206 161.786 66.0297C159.755 69.4153 157.986 72.9517 156.497 76.6079C156.312 76.9154 156.128 76.9769 155.697 76.8539C155.267 76.7309 155.082 76.5464 155.267 76.1159Z" fill="#C65C47"/>
<path d="M202.253 34.5408C202.991 36.2628 204.898 37.2468 206.681 37.3698C208.465 37.4928 214.246 35.4633 216.091 33.9258C217.739 32.4607 218.808 30.4534 219.104 28.2677C219.473 26.0537 217.628 24.3317 215.722 25.2542C212.795 26.6868 209.774 27.9196 206.681 28.9442C202.499 30.4818 201.392 32.3883 202.253 34.5408Z" fill="#FFC619"/>
<path d="M204.836 34.0488C206.312 35.0943 210.064 35.0328 215.291 32.6343C221.811 29.6823 222.795 27.2222 221.38 25.8692C219.966 24.5162 217.69 26.4227 213.077 28.6368C209.449 30.4203 205.267 30.1128 204.16 31.5273C203.053 32.9418 203.791 33.3723 204.836 34.0488Z" fill="#8F473B"/>
<path d="M206.681 37.3703C209.387 37.3703 215.107 36.5093 219.166 33.9262C221.626 32.3887 222.303 30.4822 221.626 29.4367C220.949 28.3912 219.904 28.0837 217.013 29.9902C211.786 33.3112 205.205 32.3887 205.144 34.7257L206.681 37.3703Z" fill="#FFC619"/>
<path d="M210.064 31.7738C209.474 31.7395 208.894 31.615 208.342 31.4048C207.785 31.1418 207.174 31.0153 206.558 31.0358C206.486 31.0678 206.407 31.0818 206.328 31.0767C206.249 31.0717 206.172 31.0477 206.105 31.0067C206.037 30.9657 205.98 30.9091 205.939 30.8415C205.898 30.7739 205.874 30.6974 205.869 30.6185C205.863 30.5395 205.877 30.4605 205.909 30.3881C205.941 30.3156 205.989 30.2519 206.051 30.2023C206.113 30.1528 206.185 30.1188 206.263 30.1033C206.341 30.0878 206.421 30.0912 206.497 30.1133C207.23 30.1107 207.959 30.2356 208.649 30.4823C209.215 30.7821 209.862 30.89 210.494 30.7898C210.802 30.6668 210.863 30.5438 210.986 30.0518C211.109 29.5598 211.478 28.3913 213.323 28.5143H214C214.816 28.6121 215.638 28.6532 216.46 28.6373C216.706 28.5758 216.952 28.5143 217.013 28.3298C217.034 28.2536 217.034 28.1732 217.012 28.0973C216.991 28.0213 216.948 27.9528 216.89 27.8993C216.707 27.6882 216.601 27.4208 216.59 27.1413C216.578 26.8618 216.663 26.5868 216.829 26.3617C217.259 25.8697 218.182 25.8697 219.658 26.4847C219.768 26.5382 219.854 26.6309 219.9 26.7447C219.945 26.8584 219.947 26.985 219.904 27.0998C219.884 27.1599 219.852 27.2151 219.809 27.2613C219.766 27.3075 219.713 27.3436 219.654 27.3671C219.595 27.3906 219.532 27.4009 219.469 27.3972C219.406 27.3935 219.344 27.3759 219.289 27.3458C217.874 26.7923 217.505 26.9768 217.505 26.9768C217.545 27.1285 217.608 27.2736 217.69 27.4073C217.828 27.6019 217.912 27.8296 217.934 28.0672C217.955 28.3048 217.913 28.5439 217.813 28.7603C217.685 28.994 217.499 29.1905 217.273 29.3307C217.046 29.4708 216.787 29.5498 216.521 29.5598C215.659 29.576 214.796 29.5349 213.938 29.4368H213.262C212.155 29.3753 212.032 29.6828 211.909 30.2978C211.85 30.6062 211.711 30.8937 211.506 31.1313C211.301 31.3689 211.037 31.5481 210.74 31.6508C210.531 31.7553 210.296 31.798 210.064 31.7738Z" fill="#EB459F"/>
<path d="M160.802 102.5C159.633 101.7 159.018 101.331 158.28 101.331C156.884 101.51 155.609 102.213 154.713 103.299C154.066 103.977 153.637 104.834 153.483 105.759C153.483 106.005 153.36 106.19 154.836 106.805C156.312 107.42 156.374 107.789 156.681 107.174C157.604 105.329 159.264 103.668 160.617 103.361C160.731 103.319 160.853 103.308 160.972 103.33C161.091 103.351 161.202 103.404 161.294 103.484H161.355C161.478 103.238 161.54 102.992 160.802 102.5Z" fill="#423D80"/>
<path d="M171.441 94.6884C170.149 94.8729 169.534 95.0574 169.042 95.5494C168.626 96.003 168.307 96.5373 168.106 97.1192C167.905 97.7011 167.826 98.3181 167.874 98.9319C167.838 99.8496 168.097 100.755 168.612 101.515C168.735 101.638 168.796 101.822 170.149 101.33C171.502 100.838 171.625 100.838 171.502 100.223C170.703 97.2099 171.318 96.0414 172.179 95.1804C172.23 95.1118 172.294 95.0544 172.368 95.0121C172.442 94.9697 172.524 94.9433 172.609 94.9344H172.671C172.671 94.7499 172.671 94.5039 171.441 94.6884Z" fill="#423D80"/>
<path d="M46.3488 53.4208C43.4583 50.9608 42.4128 48.6238 44.1963 44.5032C45.9798 40.3827 48.3784 38.6607 52.5604 38.3532C56.7425 38.0456 60.002 40.0137 61.4165 45.1797C62.339 48.5008 61.7855 51.0838 59.2025 53.2978C56.6195 55.5119 49.9774 56.5574 46.3488 53.4208Z" fill="#5865F2"/>
<path d="M49.9158 44.9346C50.0388 46.3492 49.2393 49.3627 49.2393 49.3627C51.1354 49.9709 52.7364 51.2648 53.7288 52.9912C54.6924 51.7628 55.9089 50.756 57.2959 50.0392C57.2829 48.7054 57.5555 47.3843 58.0954 46.1647C58.0954 46.1647 55.6353 44.4426 54.8358 42.4746C53.4431 43.7166 51.745 44.5657 49.9158 44.9346Z" fill="#FFC619"/>
<path d="M52.4371 46.473C52.1911 46.4115 52.0066 46.596 52.0681 46.7805C52.1296 46.965 52.3756 49.2405 53.2366 49.425C54.0976 49.6095 54.8971 48.072 55.2661 47.334C55.289 47.2362 55.2769 47.1334 55.2319 47.0436C55.187 46.9537 55.1121 46.8824 55.0201 46.842L52.4371 46.473Z" fill="black"/>
<path d="M34.9711 50.1622C34.9711 50.1622 32.88 50.1622 32.6955 48.7477C32.511 47.3332 32.142 44.8116 34.0485 43.0896C35.9551 41.3676 37.2466 42.1671 38.5996 43.0281C39.9526 43.8891 40.4446 44.6886 40.1371 46.3492C39.8296 48.0097 39.5221 48.8707 39.5221 48.8707L34.9711 50.1622Z" fill="#FFC619"/>
<path d="M62.0928 59.7557C62.0928 59.7557 61.1703 57.1727 59.6327 55.7582C58.0952 54.3437 51.6992 54.6512 51.6992 54.6512L42.474 53.1751C42.474 53.1751 41.1825 50.8381 40.6905 50.1616C40.5415 50.0054 40.3587 49.8855 40.1562 49.8108C39.9536 49.7362 39.7367 49.7089 39.522 49.7311C38.097 50.0592 36.7289 50.5982 35.463 51.3301C35.0325 51.6991 34.9095 51.8836 35.217 52.9906C35.5245 54.0977 36.7545 56.9882 38.046 58.3412C39.3375 59.6942 44.0731 60.6782 44.0731 60.6782C44.0731 60.6782 42.351 67.2588 44.0116 68.3658C45.6721 69.4728 49.3006 69.6573 53.4212 69.6573L58.5257 69.4113C63.5073 69.2268 64.4913 67.7508 64.8603 66.1518C65.4753 62.7693 62.0928 59.7557 62.0928 59.7557Z" fill="#5865F2"/>
<path d="M58.0341 63.8159H57.8496C57.7542 63.7476 57.6804 63.6533 57.6368 63.5444C57.5932 63.4354 57.5817 63.3162 57.6036 63.2009C58.2969 61.6163 58.5517 59.8746 58.3416 58.1579C58.3407 58.0374 58.384 57.9207 58.4634 57.83C58.5427 57.7393 58.6526 57.6809 58.7721 57.6659C58.8295 57.6455 58.891 57.6396 58.9512 57.6487C59.0114 57.6579 59.0684 57.6818 59.1172 57.7183C59.1659 57.7549 59.2048 57.8029 59.2304 57.8581C59.2561 57.9133 59.2677 57.9741 59.2641 58.0349C59.4457 59.3945 59.3409 60.7771 58.9566 62.0939C59.5636 61.7808 60.2346 61.6124 60.9175 61.6017C61.6003 61.591 62.2763 61.7385 62.8927 62.0324C62.9968 62.1065 63.0721 62.2144 63.1057 62.3377C63.1394 62.461 63.1293 62.5922 63.0772 62.7089C63.0138 62.8082 62.9168 62.8815 62.8039 62.9153C62.6911 62.9492 62.5698 62.9414 62.4622 62.8934C60.9247 62.0939 58.9566 62.8934 58.4646 63.6314C58.4107 63.6918 58.3442 63.7396 58.2699 63.7715C58.1955 63.8033 58.115 63.8185 58.0341 63.8159Z" fill="black"/>
<path d="M35.4015 51.6991C35.4015 51.6991 34.602 50.1615 35.4015 49.731C36.563 49.2199 37.781 48.8483 39.03 48.624C39.522 48.624 39.768 48.87 40.137 49.977L35.4015 51.6991Z" fill="#3442D9"/>
<path d="M32.5111 51.8227C32.2036 51.6382 32.0806 51.5152 32.2036 51.3307L38.7227 39.3995C38.7949 39.3107 38.8958 39.2498 39.0081 39.2273C39.1203 39.2049 39.2369 39.2223 39.3377 39.2765C39.4323 39.3288 39.5038 39.4147 39.538 39.5173C39.5722 39.6198 39.5666 39.7315 39.5222 39.83L33.0031 51.7612C32.9434 51.8307 32.86 51.8755 32.769 51.8869C32.6781 51.8982 32.5861 51.8754 32.5111 51.8227Z" fill="#A7A7BD"/>
<path d="M44.3808 34.0492L41.1827 32.3272C41.1226 32.2965 41.0568 32.2785 40.9894 32.2744C40.922 32.2702 40.8544 32.28 40.791 32.3031C40.7275 32.3261 40.6695 32.362 40.6205 32.4085C40.5715 32.455 40.5326 32.511 40.5062 32.5732L37.9847 37.1242C37.8997 37.2612 37.8496 37.417 37.8388 37.5778C37.8281 37.7387 37.8571 37.8997 37.9232 38.0468L38.5382 39.7688L39.2762 40.2608L41.3057 39.8918C41.4696 39.8587 41.625 39.7926 41.7625 39.6974C41.9 39.6022 42.0166 39.48 42.1052 39.3383L44.5653 34.7872C44.6218 34.6613 44.6343 34.5201 44.6008 34.3863C44.5674 34.2524 44.4898 34.1337 44.3808 34.0492Z" fill="#A7A7BD"/>
<path d="M35.2787 45.7346C35.7708 46.9646 37.6773 47.3336 37.6773 47.3336L38.3538 44.3816C35.9553 44.0126 34.7867 44.5046 35.2787 45.7346Z" fill="#FFC619"/>
<path d="M37.6768 47.8252H37.6153C37.4923 47.7637 35.4013 47.3332 34.8478 45.9187C34.7195 45.6991 34.6625 45.4452 34.6846 45.1919C34.7066 44.9386 34.8066 44.6983 34.9708 44.5042C35.4628 43.8277 36.6313 43.6432 38.4148 43.8892C38.5344 43.9185 38.6387 43.9916 38.707 44.0941C38.7753 44.1966 38.8027 44.321 38.7838 44.4427C38.7873 44.5035 38.7757 44.5642 38.7501 44.6194C38.7245 44.6747 38.6855 44.7227 38.6368 44.7592C38.5881 44.7958 38.5311 44.8197 38.4709 44.8288C38.4107 44.838 38.3492 44.8321 38.2918 44.8117C36.6928 44.5657 35.8933 44.8117 35.6473 45.0577C35.613 45.1378 35.6007 45.2256 35.6115 45.312C35.6223 45.3985 35.6559 45.4805 35.7088 45.5497C36.0163 46.3492 37.3078 46.7797 37.7998 46.9027C38.2918 47.0257 38.1688 47.1487 38.1688 47.4562C38.1325 47.5595 38.0663 47.6497 37.9788 47.7154C37.8912 47.781 37.7861 47.8193 37.6768 47.8252Z" fill="#FF8C19"/>
<path d="M60.1866 86.079C59.5101 86.1405 58.8951 86.5095 59.0796 87.432C59.2641 88.3546 59.5101 89.2771 60.4326 89.4001C61.6197 89.4955 62.8125 89.4955 63.9996 89.4001C63.9996 89.4001 64.0611 88.1701 64.0611 87.3706C64.0611 86.571 63.8766 85.8945 62.7081 85.8945C61.8647 85.9077 61.0228 85.9693 60.1866 86.079Z" fill="#FF78B9"/>
<path d="M46.1646 86.079C46.9026 86.1405 47.4561 86.5095 47.2716 87.432C47.0871 88.3546 46.9026 89.2771 45.9801 89.4001C44.793 89.496 43.6001 89.496 42.413 89.4001C42.413 89.4001 42.29 88.1701 42.29 87.3706C42.29 86.571 42.536 85.8945 43.7046 85.8945C44.5275 85.9061 45.3491 85.9677 46.1646 86.079Z" fill="#FF78B9"/>
<path d="M52.0064 54.8978C51.9449 55.3898 51.5759 57.4194 51.3299 58.7109C51.0839 60.0024 51.1454 59.5719 51.0224 60.0024C50.8994 60.4329 50.7149 60.2484 50.4689 60.1869C50.2229 60.1254 50.0999 60.0024 50.1614 59.7564C50.5304 58.4034 51.1454 55.9433 51.3914 54.6518C51.4529 54.4058 52.0679 54.4058 52.0064 54.8978Z" fill="white"/>
<path d="M55.3283 54.7745C55.7213 56.0278 56.0497 57.3005 56.3124 58.5875C56.4354 59.018 56.4969 59.4485 56.6199 59.879C56.7429 60.3095 56.4354 60.1865 56.1894 60.248C55.9434 60.3095 55.7589 60.248 55.7589 60.002C55.7589 59.756 55.5744 59.2025 55.5129 58.772C55.4514 58.3415 54.9593 56.189 54.6518 54.959C54.6197 54.9103 54.5996 54.8547 54.5931 54.7967C54.5866 54.7388 54.594 54.6801 54.6146 54.6255C54.6351 54.571 54.6684 54.522 54.7115 54.4828C54.7546 54.4435 54.8065 54.4151 54.8627 54.3997C54.919 54.3844 54.9781 54.3826 55.0352 54.3945C55.0923 54.4064 55.1458 54.4317 55.1912 54.4683C55.2366 54.5048 55.2727 54.5516 55.2966 54.6049C55.3204 54.6581 55.3313 54.7162 55.3283 54.7745Z" fill="white"/>
<path d="M131.035 112.339C130.877 112.325 130.728 112.256 130.616 112.143C130.504 112.031 130.434 111.882 130.42 111.724C130.42 108.28 131.466 103.175 133.003 101.146C133.048 101.085 133.104 101.034 133.168 100.995C133.232 100.956 133.303 100.93 133.378 100.919C133.452 100.907 133.528 100.911 133.601 100.929C133.674 100.946 133.742 100.978 133.803 101.023C133.864 101.067 133.915 101.123 133.954 101.187C133.993 101.252 134.019 101.323 134.03 101.397C134.041 101.471 134.038 101.547 134.02 101.62C134.002 101.693 133.97 101.762 133.926 101.822C132.573 103.667 131.589 108.526 131.589 111.724C131.59 111.877 131.533 112.025 131.431 112.138C131.329 112.252 131.188 112.324 131.035 112.339Z" fill="#FFC619"/>
<path d="M138.169 94.5653C139.461 95.4878 138.354 97.3328 137.308 98.8088C136.263 100.285 134.172 103.237 132.696 102.253C131.22 101.269 132.511 99.0548 134.295 96.4103C136.078 93.7658 137.062 93.7658 138.169 94.5653Z" fill="#FF78B9"/>
<path d="M103.052 100.47C101.945 102.684 99.3009 107.173 99.3009 107.173C100.285 103.852 101.146 100.408 101.638 98.6246C100.666 97.6696 99.544 96.8801 98.3169 96.2876C97.3944 99.1781 95.4879 103.975 95.4879 103.975C95.4879 103.975 95.7339 98.5016 95.6724 95.3036C94.9247 95.1209 94.1639 94.9976 93.3969 94.9346C93.5814 97.7021 94.0119 104.406 94.5654 106.866C92.7203 102.991 91.9208 99.0551 91.1828 94.9346C90.2607 95.0379 89.353 95.2442 88.4768 95.5496C88.7064 98.5613 89.0964 101.559 89.6453 104.529L86.8163 96.3491C85.5881 97.2105 84.6628 98.4371 84.1717 99.8546C85.2173 101.392 87.9233 105.205 88.9073 107.358C87.1383 106.114 85.4346 104.779 83.8027 103.36C84.0654 105.535 84.9158 107.598 86.2628 109.326C86.2628 109.326 91.4903 108.895 101.023 108.342C101.515 107.727 104.774 104.098 103.052 100.47Z" fill="#5865F2"/>
<path d="M80.1127 110.433C74.5777 110.556 73.7166 110.31 73.3476 110.249C72.9786 110.187 71.9331 110.003 73.3476 106.805C74.7622 103.607 76.8532 105.021 78.3292 106.436C80.7892 106.497 80.9737 106.866 81.4042 107.666C81.8347 108.465 82.2037 109.449 81.8347 110.064C81.4657 110.679 80.8507 110.433 80.1127 110.433Z" fill="#D8D8E3"/>
<path d="M122.425 106.128C122.364 104.283 120.027 102.93 117.567 102.93C115.107 102.93 112.77 104.16 112.278 105.697C111.786 107.235 113.508 107.85 115.968 107.85C118.428 107.85 122.487 108.219 122.425 106.128Z" fill="#D8D8E3"/>
<path d="M48.5629 62.9539C48.5289 65.1613 48.1979 67.354 47.5789 69.473C48.0094 69.842 48.1324 69.9035 53.2369 69.965C58.3415 70.0265 58.772 69.6575 58.895 68.612C59.018 67.5665 58.9565 64.8605 58.4645 63.1999C58.2185 62.4619 57.7265 62.4004 57.05 62.2159C54.4786 61.8681 51.8722 61.8681 49.3009 62.2159C48.8704 62.3389 48.5629 62.6464 48.5629 62.9539Z" fill="#3442D9"/>
<path d="M47.9474 55.3902H47.7014L46.2254 54.3447C46.1301 54.2615 46.0706 54.1447 46.0592 54.0188C46.0477 53.8928 46.0852 53.7672 46.1639 53.6682C46.2439 53.5892 46.3486 53.54 46.4605 53.5288C46.5724 53.5176 46.6848 53.5451 46.7789 53.6067C47.2331 53.9589 47.7052 54.2874 48.1934 54.5907C48.2823 54.6629 48.3432 54.7638 48.3656 54.8761C48.3881 54.9883 48.3707 55.1049 48.3164 55.2057C48.2803 55.2697 48.2258 55.3215 48.1601 55.3543C48.0944 55.3872 48.0203 55.3997 47.9474 55.3902Z" fill="#3442D9"/>
<path d="M56.4348 55.5744C56.3412 55.5695 56.251 55.5379 56.1747 55.4834C56.0984 55.429 56.0393 55.3538 56.0043 55.2669C55.9735 55.216 55.9554 55.1584 55.9517 55.0991C55.9479 55.0397 55.9586 54.9803 55.9827 54.9259C56.0069 54.8715 56.0438 54.8238 56.0904 54.7868C56.137 54.7498 56.1919 54.7246 56.2503 54.7134L57.0498 54.4059C57.1007 54.3751 57.1583 54.357 57.2177 54.3533C57.277 54.3495 57.3364 54.3602 57.3908 54.3843C57.4452 54.4085 57.4929 54.4455 57.5299 54.492C57.5669 54.5386 57.5921 54.5935 57.6033 54.6519C57.6335 54.7075 57.651 54.769 57.6547 54.8321C57.6584 54.8953 57.6481 54.9584 57.6247 55.0171C57.6012 55.0759 57.565 55.1287 57.5188 55.1718C57.4726 55.215 57.4175 55.2475 57.3573 55.2669L56.6193 55.5744H56.4348Z" fill="#3442D9"/>
<path d="M58.4652 86.9397C58.3008 86.8725 58.1205 86.8542 57.9459 86.8869C57.7714 86.9196 57.61 87.002 57.4811 87.1242C57.352 87.2386 57.2514 87.3816 57.1873 87.5418C57.1233 87.7019 57.0975 87.8749 57.1121 88.0468V90.8143H60.9252V89.2768L59.8182 87.8622C59.4512 87.4466 58.9861 87.1295 58.4652 86.9397Z" fill="black"/>
<path d="M47.7631 87.0627C47.9247 86.9895 48.1024 86.9587 48.2792 86.9732C48.4561 86.9877 48.6264 87.0469 48.774 87.1453C48.9216 87.2437 49.0418 87.3781 49.1232 87.5358C49.2045 87.6935 49.2444 87.8693 49.2391 88.0467V90.8142H45.4875V89.2767L47.0251 87.6162C47.2318 87.3845 47.4827 87.1963 47.7631 87.0627Z" fill="black"/>
<path d="M57.1111 90.3213V91.4284H65.9672C66.0902 90.5058 65.8442 89.0913 65.1677 88.5993C64.4912 88.1073 63.1382 88.2918 61.4776 88.6608C59.8171 89.0298 59.9401 90.3213 59.9401 90.3213H57.1111Z" fill="white"/>
<path d="M49.2393 90.3233V91.4303H40.4447C40.3217 90.5078 40.4447 89.2163 40.9982 88.6628C41.5517 88.1093 43.2737 88.2938 44.9343 88.6628C46.5948 89.0318 46.4718 90.3233 46.4718 90.3233H49.2393Z" fill="white"/>
<path d="M94.0362 77.017C94.3647 76.5013 94.3756 75.9206 94.0605 75.7198C93.7453 75.5191 93.2236 75.7743 92.8951 76.29C92.5666 76.8056 92.5557 77.3864 92.8709 77.5871C93.186 77.7879 93.7077 77.5326 94.0362 77.017Z" fill="#A7A7BD"/>
<path d="M101.515 38.7229C101.589 40.044 101.134 41.3403 100.252 42.3264C99.3697 43.3125 98.1318 43.9078 96.8106 43.9812C95.4894 44.0546 94.1932 43.6001 93.207 42.7178C92.2209 41.8355 91.6257 40.5976 91.5523 39.2764C91.4293 36.3858 93.5203 34.7253 96.2878 34.5408C99.0554 34.3563 101.331 35.8323 101.515 38.7229Z" fill="#FFC619"/>
<path d="M120.211 51.8832C120.211 51.8832 119.965 48.1931 119.78 44.8721C119.596 41.551 116.582 39.583 113.261 39.583C109.94 39.583 107.48 42.1045 107.357 45.7946C107.234 49.4846 107.111 52.3752 107.111 52.3752C104.59 54.3432 103.114 58.3407 103.114 61.8463C103.114 67.9348 107.911 71.8709 113.938 71.8709C119.965 71.8709 125.315 67.5043 124.946 60.8623C124.762 56.7417 123.47 54.0357 120.211 51.8832Z" fill="#FFC619"/>
<path d="M124.947 60.8631C124.957 60.6967 124.936 60.5299 124.885 60.3711C118.489 63.6306 108.957 64.7376 103.36 64.1226C104.406 68.9197 108.711 71.8717 113.938 71.8717C119.166 71.8717 125.316 67.5052 124.947 60.8631Z" fill="#8CD9FF"/>
<path d="M114.061 69.2268H113.938C111.847 68.7348 111.293 66.9513 111.047 65.0447C111.028 64.923 111.056 64.7986 111.124 64.6962C111.192 64.5937 111.297 64.5206 111.416 64.4912C111.541 64.498 111.662 64.5429 111.76 64.6199C111.859 64.6968 111.932 64.8021 111.97 64.9217C112.216 66.5207 112.585 67.4433 113.261 67.9353C113.016 66.9843 112.831 66.0189 112.708 65.0447C112.705 64.917 112.746 64.792 112.824 64.6911C112.903 64.5902 113.014 64.5196 113.138 64.4912C113.259 64.4903 113.376 64.5336 113.466 64.6129C113.557 64.6923 113.615 64.8022 113.63 64.9217C113.768 66.1819 114.057 67.4209 114.491 68.6118C114.526 68.6919 114.538 68.7796 114.527 68.8661C114.516 68.9525 114.483 69.0346 114.43 69.1038L114.061 69.2268Z" fill="#66BCFF"/>
<path d="M103.483 64.7984C103.668 65.2289 103.791 65.6594 103.975 66.0284H106.251C111.847 66.0284 119.289 64.8599 124.947 62.2153V60.8623C118.735 63.9988 109.326 65.2904 103.483 64.7984Z" fill="white"/>
<path d="M110.309 44.811C110.547 44.811 110.74 44.4806 110.74 44.073C110.74 43.6654 110.547 43.335 110.309 43.335C110.071 43.335 109.879 43.6654 109.879 44.073C109.879 44.4806 110.071 44.811 110.309 44.811Z" fill="black"/>
<path d="M114.368 44.5043C114.606 44.5043 114.799 44.1739 114.799 43.7663C114.799 43.3587 114.606 43.0283 114.368 43.0283C114.13 43.0283 113.938 43.3587 113.938 43.7663C113.938 44.1739 114.13 44.5043 114.368 44.5043Z" fill="black"/>
<path d="M112.155 47.5173C111.417 47.5173 110.925 46.8408 110.74 45.6723C110.739 45.5518 110.783 45.4351 110.862 45.3444C110.941 45.2537 111.051 45.1953 111.171 45.1803C111.228 45.1599 111.29 45.154 111.35 45.1631C111.41 45.1723 111.467 45.1962 111.516 45.2327C111.564 45.2693 111.603 45.3173 111.629 45.3725C111.655 45.4278 111.666 45.4885 111.663 45.5493C111.786 46.2873 111.97 46.5948 112.155 46.5948C112.339 46.5948 112.585 46.1643 112.77 45.3648C112.82 45.2721 112.898 45.1979 112.994 45.1532C113.089 45.1084 113.196 45.0953 113.299 45.116C113.402 45.1367 113.496 45.1899 113.567 45.2679C113.638 45.3459 113.682 45.4445 113.692 45.5493C113.569 46.1028 113.262 47.5173 112.155 47.5173Z" fill="#FF7D19"/>
<path d="M113.816 37.6152C113.133 38.2392 112.552 38.9653 112.094 39.7678C112.34 40.0138 114.062 41.4283 117.752 41.8588L117.014 39.0298L113.816 37.6152Z" fill="black"/>
<path d="M112.093 34.9726C111.416 36.4486 112.277 38.4167 116.828 39.7082C117.689 43.7057 120.149 44.6897 122.179 44.0132C124.208 43.3367 124.454 39.8927 119.227 37.4326C116.582 32.4511 112.831 33.4351 112.093 34.9726Z" fill="#242145"/>
<path d="M118.182 38.0459L118.428 38.3534C118.428 38.3534 119.351 37.5539 120.335 36.8774C121.319 36.2009 121.503 36.0164 121.196 35.7089C120.888 35.4014 119.781 36.2009 119.228 36.7544C118.85 37.1601 118.5 37.5916 118.182 38.0459Z" fill="url(#paint6_linear_342_47109)"/>
<path d="M118.182 64.1221C118.182 64.1221 123.963 65.8442 125.685 66.1517C127.407 66.4592 129.744 66.4592 130.667 64.6141C131.589 62.7691 130.482 60.3091 129.129 59.3251C127.583 58.1747 125.937 57.1661 124.209 56.3115C123.164 55.758 122.795 56.4345 122.549 57.6646C122.303 58.8946 122.18 59.8171 122.18 59.8171L119.474 59.2021L118.182 64.1221Z" fill="#FFC619"/>
<path d="M124.024 61.4783H123.963C123.843 61.4409 123.738 61.3678 123.661 61.2689C123.584 61.17 123.539 61.0499 123.532 60.9248C123.594 60.4328 123.717 58.9568 123.717 58.8953C123.725 58.8307 123.746 58.7683 123.778 58.7117C123.81 58.6551 123.853 58.6054 123.905 58.5654C123.956 58.5254 124.015 58.4959 124.078 58.4787C124.14 58.4614 124.206 58.4567 124.27 58.4648C124.335 58.4728 124.397 58.4936 124.454 58.5258C124.511 58.5579 124.56 58.601 124.6 58.6524C124.64 58.7038 124.67 58.7625 124.687 58.8253C124.704 58.8881 124.709 58.9537 124.701 59.0183C124.639 59.0798 124.516 60.5558 124.455 61.0478C124.442 61.1575 124.392 61.2595 124.314 61.3376C124.236 61.4157 124.134 61.4653 124.024 61.4783Z" fill="#FF8C19"/>
<path d="M130.667 64.6132C129.744 66.4583 127.715 66.4583 125.685 66.1508C123.656 65.8432 118.182 64.1212 118.182 64.1212L119.474 59.2012L122.18 59.8162C125.993 60.8002 131.282 61.5382 130.667 64.6132Z" fill="url(#paint7_linear_342_47109)"/>
<path d="M122.794 60.0018L121.318 59.6328C121.81 59.7558 121.872 60.9858 121.441 62.3388C121.011 63.6919 120.334 64.7374 119.842 64.6144L121.318 65.0449C121.81 65.1679 122.548 64.1839 122.979 62.7693C123.409 61.3548 123.286 60.1248 122.794 60.0018Z" fill="black"/>
<path d="M122.118 64.2459C122.967 64.2459 123.655 63.5576 123.655 62.7084C123.655 61.8593 122.967 61.1709 122.118 61.1709C121.268 61.1709 120.58 61.8593 120.58 62.7084C120.58 63.5576 121.268 64.2459 122.118 64.2459Z" fill="#EB459F"/>
<path d="M122.118 63.7531C122.695 63.7531 123.163 63.285 123.163 62.7076C123.163 62.1302 122.695 61.6621 122.118 61.6621C121.54 61.6621 121.072 62.1302 121.072 62.7076C121.072 63.285 121.54 63.7531 122.118 63.7531Z" fill="white"/>
<path d="M94.5037 38.9692C94.5037 39.1537 94.6267 39.2152 94.8112 39.2152C94.8928 39.2152 94.971 39.1828 95.0287 39.1251C95.0863 39.0675 95.1187 38.9893 95.1187 38.9077L94.6267 34.9102L94.0117 35.0947L94.5037 38.9692Z" fill="#FF8C19"/>
<path d="M95.0577 42.3522L94.7502 42.2292C94.705 42.1934 94.6675 42.1489 94.6399 42.0983C94.6122 42.0477 94.595 41.9921 94.5893 41.9347C94.5836 41.8774 94.5894 41.8194 94.6065 41.7644C94.6235 41.7093 94.6515 41.6583 94.6887 41.6142C95.029 41.1969 95.449 40.8515 95.9241 40.5981C96.3993 40.3447 96.9201 40.1883 97.4562 40.1382C97.3947 39.2772 97.4562 37.9242 98.4402 37.7397C99.4242 37.5552 100.101 38.1702 100.654 39.7692C100.687 39.8834 100.673 40.0058 100.615 40.1096C100.557 40.2134 100.461 40.2901 100.347 40.3227C100.233 40.3553 100.11 40.3412 100.006 40.2836C99.9025 40.2259 99.8259 40.1294 99.7932 40.0152C99.5472 39.3387 99.1782 38.5392 98.6862 38.6007C98.1942 38.6622 98.3172 38.7852 98.3787 40.5072C98.4402 40.7532 98.2557 40.9377 98.0097 40.9992C97.5228 41.0106 97.0431 41.12 96.5994 41.3208C96.1556 41.5215 95.7568 41.8095 95.4267 42.1677L95.0577 42.3522Z" fill="#FF8C19"/>
<path d="M119.804 60.2003C120.405 59.02 119.739 57.4757 118.317 56.751C116.895 56.0262 115.254 56.3955 114.653 57.5758C114.051 58.7561 114.717 60.3004 116.139 61.0252C117.562 61.7499 119.202 61.3806 119.804 60.2003Z" fill="#FF8C19"/>
<path d="M108.895 85.8945C109.818 85.956 110.371 85.833 110.556 86.8785C110.74 87.9241 111.171 91.4296 111.171 91.4296H99.6701C99.6701 91.4296 99.1781 89.3386 99.6701 88.9081C100.162 88.4776 102.13 88.1086 103.668 88.2316L106.989 88.3546L108.895 85.8945Z" fill="#DDDDE8"/>
<path d="M109.695 87.555C109.695 87.555 107.973 80.913 108.403 79.2524C108.834 77.5919 113.323 71.4419 113.323 71.4419L108.342 70.0273C108.342 70.0273 104.098 73.9634 103.36 79.0064C102.868 82.143 104.652 87.7395 104.652 87.7395L109.695 87.555Z" fill="url(#paint8_linear_342_47109)"/>
<path d="M103.606 88.4162C103.606 88.4162 102.561 86.8172 103.237 86.3252C103.914 85.8332 106.804 84.4801 107.358 85.4642C107.646 85.9899 107.774 86.5885 107.727 87.1862L106.435 88.7852L103.606 88.4162Z" fill="white"/>
<path d="M108.403 68.2432C108.354 68.9513 108.231 69.6522 108.034 70.3342C106.858 71.5285 105.845 72.8726 105.021 74.3317C106.347 75.4266 107.816 76.3369 109.387 77.0378C110.494 75.2311 111.727 73.5047 113.077 71.8717C113.262 71.6257 114.553 71.5027 114.553 71.5027L111.355 68.4892L108.403 68.2432Z" fill="#8CD9FF"/>
<path d="M109.449 86.5712C109.572 86.9402 109.572 86.9402 108.649 86.9402C108.29 86.8783 107.921 86.9277 107.592 87.0816C107.262 87.2355 106.987 87.4866 106.804 87.8012C106.449 88.2743 106.12 88.7671 105.82 89.2772L109.08 89.6462L110.125 87.5552L109.879 86.3252L109.449 86.5712Z" fill="#DDDDE8"/>
<path d="M111.171 91.4283H99.6701C99.5882 91.0423 99.5266 90.6522 99.4856 90.2598H111.048C111.109 90.9363 111.171 91.4283 111.171 91.4283Z" fill="white"/>
<path d="M105.636 73.3485C107.019 74.3772 108.502 75.2633 110.064 75.993C110.18 75.8379 110.283 75.6733 110.371 75.501C108.821 74.7856 107.357 73.8985 106.005 72.8564L105.636 73.3485Z" fill="#66BCFF"/>
<path d="M109.571 71.1348C108.411 72.4681 107.381 73.9097 106.496 75.4398L107.05 75.7473C107.953 74.1903 108.981 72.7094 110.125 71.3193L109.571 71.1348Z" fill="#66BCFF"/>
<path d="M123.963 85.8945C124.885 85.956 125.439 85.833 125.685 86.8785C125.931 87.9241 126.238 91.4296 126.238 91.4296H115.906C115.761 90.8663 115.679 90.2889 115.66 89.7076C115.638 89.2482 115.768 88.7943 116.029 88.4161C116.398 87.8626 117.136 87.7396 118.674 87.8626C119.81 87.9593 120.94 88.1236 122.056 88.3546L123.963 85.8945Z" fill="#DDDDE8"/>
<path d="M117.013 70.5813C118.142 73.3873 118.926 76.3197 119.35 79.3144C119.644 81.8251 119.788 84.3511 119.78 86.879L124.701 87.863C125.044 84.4159 124.899 80.9375 124.27 77.5309C123.678 74.4731 122.771 71.4846 121.564 68.6133L117.013 70.5813Z" fill="url(#paint9_linear_342_47109)"/>
<path d="M119.227 88.109C118.92 86.9405 118.489 86.0795 119.412 85.772C120.334 85.4645 123.163 85.034 123.348 86.141C123.457 86.8945 123.477 87.6582 123.409 88.4165H121.503L119.227 88.109Z" fill="white"/>
<path d="M126.238 91.4283H115.906C115.824 91.0423 115.762 90.6522 115.721 90.2598H126.115C126.176 90.9363 126.238 91.4283 126.238 91.4283Z" fill="white"/>
<path d="M115.721 69.6572C116.327 70.1592 116.864 70.7381 117.32 71.3792C117.925 73.0097 118.439 74.6728 118.858 76.3608C120.518 75.9303 122.24 75.5613 123.778 75.3153C123.224 73.1593 122.525 71.043 121.687 68.9807C121.639 68.4697 121.619 67.9564 121.625 67.4432L117.997 67.0127L115.721 69.6572Z" fill="#8CD9FF"/>
<path d="M124.824 86.5712C124.824 86.9402 124.701 86.8787 124.024 86.9402C123.348 87.0017 122.856 86.9402 122.179 87.8012L121.441 88.8467H125.623L125.254 86.3252L124.824 86.5712Z" fill="#DDDDE8"/>
<path d="M118.613 75.5619C120.208 75.0183 121.858 74.6472 123.533 74.4549C123.527 74.2443 123.485 74.0363 123.41 73.8398C121.743 74.078 120.098 74.4482 118.49 74.9469C118.551 75.1314 118.551 75.3159 118.613 75.5619Z" fill="#66BCFF"/>
<path d="M120.58 69.9042C121.261 71.7561 121.836 73.6451 122.302 75.5623H122.917C122.411 73.5416 121.795 71.5502 121.072 69.5967L120.58 69.9042Z" fill="#66BCFF"/>
<path d="M113.692 54.0371L113.323 54.8981L113.262 58.0962H117.751L117.628 54.8981L117.259 54.0371H113.692Z" fill="#5865F2"/>
<path d="M113.262 55.5127H117.628L117.69 56.0662L113.262 56.9272V55.5127Z" fill="white"/>
<path d="M114.799 57.4194C114.834 57.0861 114.738 56.7521 114.532 56.4882C114.325 56.2242 114.024 56.0509 113.692 56.0049L113.262 56.1279V58.0959H114.615C114.741 57.8931 114.805 57.658 114.799 57.4194Z" fill="#EB459F"/>
<path d="M115.414 54.7746L115.107 54.6516L113.815 53.3601C113.774 53.32 113.742 53.2722 113.72 53.2193C113.697 53.1665 113.686 53.1098 113.686 53.0526C113.686 52.9953 113.697 52.9386 113.72 52.8858C113.742 52.833 113.774 52.7852 113.815 52.7451C113.907 52.6586 114.028 52.6104 114.154 52.6104C114.279 52.6104 114.4 52.6586 114.492 52.7451L115.722 53.9751C115.808 54.0665 115.856 54.1875 115.856 54.3133C115.856 54.4392 115.808 54.5602 115.722 54.6516L115.414 54.7746Z" fill="#B0B0C7"/>
<path d="M113.692 54.0371L113.323 54.8981H117.628L117.259 54.0371H113.692Z" fill="white"/>
<path d="M116.152 65.5369C118.529 65.5369 120.457 63.6094 120.457 61.2318C120.457 58.8542 118.529 56.9268 116.152 56.9268C113.774 56.9268 111.847 58.8542 111.847 61.2318C111.847 63.6094 113.774 65.5369 116.152 65.5369Z" fill="#FF8C19"/>
<path d="M98.0094 38.3541C98.0238 38.4246 98.0624 38.4878 98.1186 38.5328C98.1748 38.5777 98.245 38.6015 98.3169 38.6001C98.5014 38.6001 98.6244 38.4156 98.5629 38.2926L98.2554 34.7255L97.6404 34.6025L98.0094 38.3541Z" fill="#FF8C19"/>
<path d="M119.104 39.583C118.92 39.583 118.797 39.46 118.674 39.2755C118.514 38.8889 118.262 38.547 117.941 38.2792C117.62 38.0114 117.238 37.8256 116.829 37.7379C116.704 37.7096 116.593 37.6389 116.515 37.538C116.436 37.4372 116.395 37.3122 116.398 37.1844C116.428 37.0648 116.501 36.9605 116.603 36.8922C116.706 36.8239 116.83 36.7965 116.952 36.8154C117.533 36.935 118.077 37.1932 118.538 37.5679C118.998 37.9426 119.361 38.4229 119.596 38.9679C119.618 39.0816 119.6 39.1995 119.544 39.3007C119.487 39.402 119.397 39.4801 119.289 39.5215L119.104 39.583Z" fill="black"/>
<path d="M122.795 63.1389H122.118L121.811 62.9544L121.257 62.0319C121.221 61.9931 121.194 61.947 121.178 61.8969C121.161 61.8467 121.156 61.7936 121.162 61.7411C121.168 61.6887 121.185 61.6381 121.212 61.5927C121.239 61.5474 121.275 61.5084 121.319 61.4784C121.412 61.4393 121.516 61.4301 121.615 61.4521C121.714 61.4742 121.804 61.5263 121.872 61.6014L122.364 62.3394H122.795C122.892 62.3394 122.986 62.3783 123.055 62.4475C123.125 62.5167 123.164 62.6105 123.164 62.7084C123.164 62.8063 123.125 62.9001 123.055 62.9693C122.986 63.0385 122.892 63.0774 122.795 63.0774V63.1389Z" fill="#5865F2"/>
<path d="M148.563 58.9566C148.475 58.965 148.386 58.9458 148.309 58.9018C148.232 58.8578 148.171 58.791 148.133 58.7106C148.103 58.655 148.085 58.5935 148.082 58.5304C148.078 58.4672 148.088 58.4041 148.112 58.3454C148.135 58.2867 148.171 58.2338 148.217 58.1907C148.264 58.1475 148.319 58.115 148.379 58.0956L149.178 57.6651C149.23 57.6334 149.288 57.613 149.348 57.6052C149.408 57.5973 149.469 57.6023 149.527 57.6197C149.585 57.6371 149.639 57.6666 149.685 57.7062C149.731 57.7458 149.768 57.7947 149.793 57.8496C149.825 57.9013 149.846 57.959 149.853 58.0191C149.861 58.0792 149.856 58.1403 149.839 58.1984C149.821 58.2564 149.792 58.3102 149.752 58.356C149.713 58.4019 149.664 58.4389 149.609 58.4646L148.748 58.9566H148.563Z" fill="black"/>
<path d="M148.255 59.0178L147.948 58.8948C147.903 58.859 147.865 58.8144 147.837 58.7639C147.81 58.7133 147.793 58.6576 147.787 58.6003C147.781 58.5429 147.787 58.485 147.804 58.43C147.821 58.3749 147.849 58.3238 147.886 58.2798L148.378 57.5418C148.408 57.4822 148.452 57.4304 148.505 57.3905C148.558 57.3506 148.62 57.3236 148.686 57.3116C148.751 57.2997 148.819 57.3032 148.883 57.3218C148.947 57.3404 149.006 57.3736 149.055 57.4188C149.144 57.491 149.204 57.5919 149.227 57.7041C149.249 57.8164 149.232 57.933 149.178 58.0338C149.014 58.3139 148.829 58.5812 148.624 58.8333L148.255 59.0178Z" fill="black"/>
<path d="M140.629 55.6975C140.788 54.2735 141.318 52.9162 142.167 51.7615C142.659 51.1465 143.028 51.0235 143.397 51.331C143.739 51.8349 143.872 52.4528 143.766 53.053C143.778 53.7579 143.696 54.4613 143.52 55.144C144.811 55.8205 145.365 56.62 144.934 57.5426C144.504 58.4651 142.167 57.7886 141.367 57.4811C140.568 57.1735 140.568 56.8045 140.629 55.6975Z" fill="#8CD9FF"/>
<path d="M141.368 56.8659C141.296 56.8685 141.224 56.853 141.16 56.8208C141.095 56.7885 141.04 56.7406 140.999 56.6814C140.946 56.6122 140.912 56.5302 140.902 56.4437C140.891 56.3573 140.903 56.2695 140.937 56.1894C141.368 55.3284 142.413 53.4834 142.413 53.4834L143.213 53.9139L142.229 55.7589H143.213C143.289 55.7368 143.369 55.7334 143.446 55.7489C143.524 55.7644 143.597 55.7984 143.658 55.848C143.72 55.8975 143.769 55.9613 143.801 56.0337C143.832 56.1061 143.846 56.1852 143.841 56.2641C143.836 56.343 143.812 56.4195 143.77 56.4871C143.729 56.5547 143.672 56.6114 143.605 56.6523C143.537 56.6933 143.461 56.7173 143.382 56.7224C143.303 56.7274 143.224 56.7134 143.151 56.6814C142.595 56.6492 142.036 56.6906 141.491 56.8044L141.368 56.8659Z" fill="#66BCFF"/>
<path d="M139.522 55.8198C139.639 55.6604 139.802 55.5399 139.988 55.4741C140.175 55.4082 140.377 55.4001 140.568 55.4508C140.862 55.5106 141.133 55.6519 141.351 55.8585C141.568 56.0651 141.723 56.3288 141.798 56.6193C141.889 56.7814 141.941 56.962 141.952 57.1474C141.963 57.3328 141.932 57.5182 141.861 57.6898C141.79 57.8614 141.681 58.0147 141.542 58.1382C141.404 58.2617 141.239 58.3522 141.06 58.4029C140.445 58.6489 139.891 58.0339 139.584 57.3574C139.45 57.1251 139.375 56.8639 139.364 56.5961C139.354 56.3284 139.408 56.0621 139.522 55.8198Z" fill="#66BCFF"/>
<path d="M148.256 59.2646C147.395 58.7111 147.272 58.2191 148.01 58.0961C148.871 58.0544 149.72 58.3155 150.408 58.8341C150.962 59.3261 151.023 59.7567 150.531 59.8797C149.724 59.9487 148.918 59.7309 148.256 59.2646Z" fill="white"/>
<path d="M149.425 59.2026C148.994 58.8951 148.994 58.5261 149.363 58.5261C149.591 58.5193 149.818 58.5595 150.029 58.6442C150.241 58.7288 150.433 58.8561 150.593 59.0181C150.839 59.2641 150.839 59.5716 150.593 59.6331C150.163 59.6467 149.744 59.4923 149.425 59.2026Z" fill="black"/>
<path d="M137.124 59.4484C138.046 59.8789 140.691 58.4029 140.506 57.4804C140.426 56.9448 140.26 56.4256 140.014 55.9429C139.707 55.5124 139.338 55.0204 137.185 54.1594C135.033 53.2983 134.541 53.9748 134.418 54.5284C134.295 55.0819 135.033 56.1889 135.832 57.1729C135.525 58.4029 136.017 58.9564 137.124 59.4484Z" fill="#8CD9FF"/>
<path d="M137.739 57.9108C137.65 57.9191 137.562 57.9 137.484 57.856C137.407 57.8119 137.346 57.7452 137.308 57.6648C137.278 57.6092 137.26 57.5476 137.257 57.4845C137.253 57.4214 137.263 57.3582 137.287 57.2995C137.31 57.2408 137.346 57.188 137.393 57.1448C137.439 57.1017 137.494 57.0692 137.554 57.0498L138.354 56.7423L136.386 55.8197C136.308 55.8125 136.234 55.7871 136.169 55.7456C136.103 55.7042 136.048 55.6479 136.009 55.5812C135.969 55.5146 135.946 55.4395 135.941 55.3622C135.936 55.2848 135.949 55.2073 135.979 55.1361C136.01 55.0648 136.057 55.0018 136.116 54.9521C136.176 54.9025 136.246 54.8676 136.322 54.8503C136.398 54.833 136.476 54.8338 136.551 54.8527C136.627 54.8715 136.696 54.9078 136.755 54.9587C137.774 55.4012 138.76 55.915 139.707 56.4963C139.749 56.5094 139.788 56.5317 139.822 56.5615C139.855 56.5913 139.881 56.6279 139.898 56.6689C139.916 56.7098 139.924 56.7541 139.923 56.7986C139.922 56.8431 139.911 56.8869 139.891 56.9268C139.892 57.0148 139.862 57.1005 139.806 57.1681C139.749 57.2358 139.671 57.2811 139.584 57.2958L137.862 57.9108H137.739Z" fill="#66BCFF"/>
<path d="M139.276 67.5674C139.387 67.7401 139.531 67.8889 139.7 68.0051C139.869 68.1212 140.06 68.2024 140.26 68.2439C144.689 69.1049 147.272 69.5354 147.641 68.3669C147.982 67.4354 148.394 66.5309 148.871 65.6608C151.085 65.5378 154.098 65.6608 155.267 64.1848C156.435 62.7088 154.775 62.0938 153.299 61.8478C155.943 60.0643 157.235 58.4038 155.882 57.4813C154.529 56.5587 152.561 57.7888 149.978 59.4493C145.611 56.2512 141.736 56.0052 137.985 58.4038C137.243 57.8453 136.33 57.5626 135.402 57.6043C134.049 57.8503 133.065 59.2648 133.926 60.4333L139.276 67.5674Z" fill="#FF78B9"/>
<path d="M142.844 59.5113H142.782L141.798 59.3268C141.735 59.3205 141.674 59.3002 141.619 59.2674C141.565 59.2346 141.518 59.1902 141.483 59.1372C141.447 59.0843 141.424 59.0242 141.415 58.9613C141.406 58.8984 141.41 58.8342 141.429 58.7733C141.429 58.5273 141.675 58.4043 141.921 58.4043L142.967 58.6503C143.03 58.6566 143.091 58.6769 143.145 58.7097C143.2 58.7425 143.247 58.7869 143.282 58.8399C143.317 58.8928 143.34 58.9529 143.349 59.0158C143.359 59.0787 143.354 59.1429 143.336 59.2038C143.297 59.3006 143.228 59.3825 143.14 59.4378C143.051 59.4931 142.948 59.5188 142.844 59.5113Z" fill="black"/>
<path d="M142.167 60.1247C141.982 60.1247 141.736 59.9402 141.736 59.7557C141.736 59.5712 141.798 59.2022 142.044 59.2022L143.089 58.9562C143.217 58.953 143.342 58.9942 143.443 59.0726C143.544 59.1511 143.614 59.2621 143.643 59.3867C143.644 59.5072 143.6 59.6239 143.521 59.7146C143.442 59.8053 143.332 59.8637 143.212 59.8787L142.29 60.0632L142.167 60.1247Z" fill="black"/>
<path d="M142.598 60.6169C142.518 60.6214 142.439 60.5999 142.372 60.5555C142.306 60.5112 142.256 60.4464 142.229 60.3709C142.197 60.3192 142.177 60.2615 142.169 60.2014C142.161 60.1413 142.166 60.0802 142.184 60.0221C142.201 59.9641 142.231 59.9103 142.27 59.8645C142.31 59.8186 142.359 59.7816 142.414 59.7559L143.336 59.3254C143.44 59.3157 143.544 59.3391 143.633 59.3923C143.723 59.4455 143.793 59.5257 143.834 59.6214C143.875 59.7172 143.885 59.8234 143.862 59.925C143.838 60.0265 143.784 60.118 143.705 60.1864L142.844 60.5554L142.598 60.6169Z" fill="black"/>
<path d="M150.962 61.3555C153.422 59.8794 154.283 59.0799 155.083 58.8954C155.882 58.7109 155.636 58.9569 155.636 59.1414C155.636 59.3259 154.037 60.9249 152.377 62.032C154.037 62.401 154.96 62.77 154.529 63.385C154.099 64 151.516 64.246 148.318 64.123C145.528 64.1146 142.776 63.4843 140.261 62.278C141.98 63.0282 143.86 63.3367 145.729 63.1756C147.598 63.0145 149.397 62.3888 150.962 61.3555Z" fill="black"/>
<path d="M138.846 63.0775C138.723 63.754 139.338 64 140.199 63.754C140.597 63.6413 140.967 63.4462 141.284 63.1814C141.602 62.9165 141.861 62.5878 142.044 62.2165C142.29 61.54 141.736 61.2325 140.875 61.417C140.014 61.6015 138.969 62.4625 138.846 63.0775Z" fill="#EB459F"/>
<path d="M145.242 60.8639C146.266 61.0757 147.332 60.9235 148.256 60.4334C147.381 59.4941 146.31 58.7592 145.119 58.2809C143.889 57.8504 142.659 58.1579 142.659 58.9574C142.659 59.7569 143.766 60.5564 145.242 60.8639Z" fill="white"/>
<path d="M150.101 62.2783C152.192 62.5243 152.315 62.9548 152.007 63.2008C151.7 63.4468 150.162 63.5083 148.133 63.0163C148.808 62.8247 149.466 62.5779 150.101 62.2783Z" fill="#D11583"/>
<path d="M147.087 60.8021C146.638 60.7 146.231 60.4641 145.919 60.1256C145.427 59.5721 145.488 59.0801 146.042 59.0186H146.165C146.409 59.0348 146.644 59.1201 146.841 59.2646C147.272 59.6336 147.764 60.0026 148.256 60.4946L147.087 60.8021Z" fill="black"/>
<path d="M156.743 71.9329C156.005 71.2564 155.882 70.4568 156.374 68.8578C156.866 67.2588 157.481 65.4138 160.249 66.3978C163.016 67.3818 164.062 67.8738 163.324 70.5183C162.586 73.1629 162.463 73.4704 160.741 73.8394C159.019 74.2084 158.896 73.4704 158.096 72.9169C158.175 72.7497 158.194 72.5603 158.149 72.3809C158.104 72.2014 157.999 72.0431 157.85 71.9329C157.666 71.8099 157.235 71.7484 157.112 72.0559C156.989 72.3634 156.805 71.9944 156.743 71.9329Z" fill="#FF78B9"/>
<path d="M171.379 94.6885L170.334 94.9345C169.992 95.0225 169.675 95.1912 169.411 95.4265C168.675 96.2757 168.3 97.3793 168.366 98.5015C168.366 98.563 168.427 98.686 168.427 98.7475C168.427 98.809 168.55 99.1165 168.858 98.9935L170.211 98.6245C170.395 98.5015 170.58 98.5015 170.58 98.071C170.548 97.2093 170.761 96.3562 171.195 95.611C171.456 95.2226 171.791 94.8884 172.179 94.627L171.379 94.6885Z" fill="#FFE75C"/>
<path d="M160.617 102.253C160.315 102.041 159.984 101.875 159.633 101.761C159.304 101.615 158.946 101.552 158.587 101.576C157.371 101.794 156.277 102.45 155.512 103.421L155.328 103.667C155.143 103.852 155.143 104.036 155.451 104.159L156.742 104.713C156.988 104.836 157.111 104.897 157.419 104.59C158.016 103.817 158.829 103.239 159.756 102.929C160.211 102.776 160.696 102.734 161.17 102.806L160.617 102.253Z" fill="#FFE75C"/>
<path d="M137.985 58.4019C138.416 58.7709 138.539 59.0784 138.723 59.0784C138.908 59.0784 139.215 59.2014 140.445 57.2334C139.535 57.3929 138.684 57.7968 137.985 58.4019Z" fill="#8CD9FF"/>
<path d="M141.552 82.2047C140.752 81.0362 139.645 79.1912 139.645 79.1912C139.592 79.1332 139.523 79.091 139.447 79.0693C139.371 79.0476 139.291 79.0472 139.215 79.0682C139.15 79.1165 139.103 79.1848 139.08 79.2626C139.058 79.3404 139.062 79.4234 139.092 79.4987C139.153 79.4987 140.26 81.4052 141.06 82.6352L141.552 82.2047Z" fill="black"/>
<path d="M161.601 68.4896L159.141 67.3826C158.722 67.2233 158.29 67.0999 157.849 67.0136C157.729 66.9723 157.601 66.9565 157.474 66.9671C157.347 66.9776 157.224 67.0144 157.111 67.0751L156.865 67.4441H157.173L157.726 67.5671L158.956 67.9976L161.355 69.0431C161.42 69.0758 161.496 69.0811 161.565 69.0581C161.634 69.035 161.691 68.9854 161.724 68.9201C161.757 68.8549 161.762 68.7794 161.739 68.7102C161.716 68.641 161.666 68.5837 161.601 68.5511V68.4896Z" fill="#EB459F"/>
<path d="M160.987 70.4574L158.588 69.4119L157.296 68.9814L156.558 68.8584C156.497 68.8584 156.312 68.9199 156.312 68.9814C156.236 69.1562 156.194 69.3442 156.189 69.5349H157.173L158.342 69.9654L160.741 71.0109C160.776 71.0317 160.816 71.0433 160.857 71.0447C160.898 71.046 160.938 71.0371 160.975 71.0188C161.012 71.0005 161.043 70.9733 161.067 70.9397C161.09 70.9061 161.105 70.8671 161.11 70.8264C161.135 70.7602 161.136 70.6872 161.114 70.62C161.091 70.5528 161.046 70.4953 160.987 70.4574Z" fill="#EB459F"/>
<path d="M150.838 91.9211C150.966 90.7106 151.213 89.5158 151.576 88.354C151.699 88.231 151.576 88.0465 151.453 87.985C151.418 87.9643 151.378 87.9527 151.337 87.9513C151.296 87.9499 151.256 87.9588 151.219 87.9771C151.182 87.9955 151.151 88.0227 151.127 88.0563C151.104 88.0899 151.089 88.1288 151.084 88.1695C150.632 89.373 150.362 90.6376 150.285 91.9211H150.838Z" fill="#147ADE"/>
<path d="M159.572 108.035C160.219 108.166 160.881 108.208 161.54 108.158C164.738 108.035 164.553 106.498 163.323 105.145C162.093 103.792 161.97 104.653 161.355 104.96C160.74 105.268 159.756 106.744 159.572 108.035Z" fill="#FF78B9"/>
<path d="M36.5339 163.785C38.1265 163.194 38.5471 161.563 38.2166 159.401C38.0363 158.2 37.3052 156.158 36.564 155.097C35.322 153.326 33.9197 153.235 32.5675 153.666C31.2154 154.096 29.9634 155.528 30.1136 157.149C30.2638 158.77 31.3356 160.602 32.6577 162.223C33.6893 163.485 35.1116 164.315 36.5339 163.785Z" fill="#D11583"/>
<path d="M51.8274 166.937C51.8975 167.698 52.5085 168.699 53.4901 169.069C54.1311 169.32 54.3815 168.159 54.2012 166.517C54.0209 164.876 53.45 163.815 52.6888 164.705C52.3082 165.156 51.7372 166.037 51.8274 166.937Z" fill="url(#paint10_linear_342_47109)"/>
<path d="M51.2068 166.058C51.8278 165.948 52.3586 166.148 52.3987 166.939C52.4388 167.73 51.9179 167.99 51.5173 167.99L51.2068 166.058Z" fill="#EB459F"/>
<path d="M51.3281 165.957C51.5093 166.043 51.6716 166.163 51.8057 166.312C51.9398 166.461 52.0429 166.635 52.109 166.824C52.1752 167.014 52.2031 167.214 52.1911 167.414C52.1792 167.614 52.1275 167.809 52.0393 167.989" stroke="black" stroke-linecap="round" stroke-linejoin="round"/>
<path d="M33.088 168.781C33.4586 172.224 35.0211 173.775 38.8773 173.845C41.2411 173.885 45.0872 173.685 47.441 172.994C50.5961 172.074 51.808 169.822 51.6378 167.419C51.4675 165.017 50.1954 162.395 46.9202 162.205C43.6449 162.015 37.6453 162.375 35.8123 163.256C33.729 164.267 32.8075 166.218 33.088 168.781Z" fill="url(#paint11_linear_342_47109)"/>
<path d="M38.1376 163.345C39.7301 163.926 41.1123 162.965 42.2642 161.103C42.9052 160.062 43.6765 158.041 43.7966 156.749C43.997 154.588 42.9954 153.617 41.6833 153.076C40.3711 152.536 38.4981 152.796 37.5566 154.137C36.6151 155.478 36.2445 157.55 36.2045 159.642C36.1644 161.274 36.7053 162.825 38.1376 163.345Z" fill="#FF78B9"/>
<path opacity="0.25" d="M37.8963 155.627C37.4356 156.868 37.5958 158.28 38.3571 158.12C39.1183 157.959 40.2701 155.507 39.9496 154.606C39.6792 153.886 38.4071 154.226 37.8963 155.627Z" fill="white"/>
<path opacity="0.25" d="M48.2215 163.795C46.8693 163.295 45.3369 163.465 45.5072 164.296C45.6774 165.127 48.3517 166.388 49.3233 166.038C50.1246 165.757 49.754 164.366 48.2215 163.795Z" fill="white"/>
<path d="M44.7266 165.036C45.0271 165.647 44.9269 166.247 44.5964 166.297C44.2659 166.347 43.7751 165.887 43.4846 165.286C43.1942 164.686 43.2142 164.155 43.5347 164.105C43.8552 164.055 44.4361 164.435 44.7266 165.036Z" fill="black"/>
<path d="M36.9057 183.102C34.6421 184.083 34.3216 185.765 34.8625 188.577C35.1629 190.149 36.2447 193.091 37.2363 194.483C38.5484 196.334 40.5216 196.564 42.2043 195.994C43.887 195.423 45.8301 193.992 45.5496 191.87C45.2992 189.898 43.3561 186.686 41.6133 184.584C40.5817 183.333 38.6485 182.352 36.9057 183.102Z" fill="#D11583"/>
<path d="M12.8963 190.52C10.833 188.808 8.89989 189.349 6.11542 191.3C4.57294 192.381 1.89864 194.924 0.846954 196.585C-0.555298 198.797 0.0757157 200.839 1.44792 202.19C2.82012 203.541 5.20395 204.702 7.35741 203.371C9.35061 202.12 11.9348 198.607 13.4171 195.854C14.2885 194.213 14.4788 191.831 12.8963 190.52Z" fill="#D11583"/>
<path d="M10.2408 186.096C9.91027 190.38 13.2356 193.813 18.8947 194.013C27.6187 194.324 35.4212 190.09 39.7482 185.956C44.0751 181.822 44.606 177.368 41.1404 173.975C38.8568 171.733 35.4813 171.984 33.2878 173.445C31.0943 174.906 28.45 177.088 25.0245 178.569C22.4704 179.68 18.5642 178.9 15.369 179.971C12.6246 180.882 10.5012 182.563 10.2408 186.096Z" fill="url(#paint12_linear_342_47109)"/>
<path d="M18.9057 192.662C16.2314 192.742 15.1296 194.424 14.3283 197.717C13.8776 199.548 13.5571 203.222 13.8676 205.163C14.2682 207.756 16.0911 208.867 18.0042 208.987C19.9173 209.107 22.4914 208.396 23.2226 205.974C23.9037 203.722 23.5331 199.378 22.8119 196.325C22.3912 194.524 20.969 192.612 18.9057 192.662Z" fill="#FF78B9"/>
<path d="M42.5145 180.541C41.4428 182.853 42.4845 184.424 45.0987 186.346C46.551 187.407 49.7061 189.068 51.5691 189.529C54.0631 190.159 55.8359 189.018 56.7574 187.427C57.6789 185.836 58.1296 183.373 56.2766 181.842C54.4237 180.311 50.4873 179.11 47.4525 178.579C45.6596 178.269 43.3359 178.759 42.5145 180.541Z" fill="#FF78B9"/>
<path opacity="0.25" d="M54.7323 183.233C53.6606 182.272 51.6574 181.221 51.3669 182.352C51.0765 183.483 54.1915 185.555 55.2231 185.595C56.0645 185.635 55.9343 184.324 54.7323 183.233Z" fill="white"/>
<path d="M13.6465 184.756C13.6465 184.756 7.93733 179.671 2.36838 178.12C2.21844 178.078 2.07812 178.008 1.95544 177.912C1.83276 177.817 1.73013 177.698 1.65339 177.563C1.57666 177.427 1.52734 177.278 1.50823 177.124C1.48913 176.97 1.50062 176.813 1.54206 176.663C1.58349 176.514 1.65405 176.373 1.74971 176.251C1.84537 176.128 1.96426 176.026 2.09959 175.949C2.23491 175.872 2.38403 175.823 2.53842 175.804C2.69281 175.785 2.84945 175.796 2.9994 175.838C9.11923 177.539 15.2391 182.994 15.2391 182.994L13.6465 184.756Z" fill="#FF78B9"/>
<path d="M33.7493 166.989C34.831 164.597 37.4051 163.766 38.4067 167.95C40.6303 177.198 41.9725 181.982 45.5282 181.812C49.0839 181.642 51.8183 177.558 52.0386 167.99" stroke="black" stroke-linecap="round" stroke-linejoin="round"/>
<path opacity="0.25" d="M13.1672 182.662C12.0654 183.583 11.4745 186.095 12.6363 186.155C13.7982 186.215 15.8315 183.362 15.6712 182.332C15.531 181.501 14.1688 181.831 13.1672 182.662Z" fill="white"/>
<path opacity="0.25" d="M15.4404 203.492C15.3903 204.934 15.861 207.146 16.9228 206.645C17.9845 206.145 17.4035 202.031 16.7725 201.2C16.2517 200.54 15.5005 201.871 15.4404 203.492Z" fill="white"/>
<path d="M18.035 147.902C20.3988 147.832 23.3635 148.743 24.916 151.986C26.8291 155.979 25.3567 160.023 20.1584 160.463C14.96 160.904 9.94196 159.452 11.0137 153.227C11.7649 148.833 14.7497 147.992 18.035 147.902Z" fill="#66BCFF"/>
<path d="M22.7041 154.514C23.2596 154.151 23.3464 153.301 22.8981 152.617C22.4497 151.932 21.636 151.671 21.0805 152.035C20.525 152.398 20.4382 153.247 20.8865 153.932C21.3349 154.617 22.1486 154.877 22.7041 154.514Z" fill="#FF78B9"/>
<path d="M24.6556 153.141C24.8325 153.062 24.8627 152.745 24.7232 152.431C24.5837 152.118 24.3272 151.928 24.1503 152.007C23.9735 152.086 23.9432 152.403 24.0827 152.716C24.2222 153.03 24.4787 153.22 24.6556 153.141Z" fill="white"/>
<path d="M14.7986 174.875C14.5982 176.577 14.6683 179.169 16.1006 180.1C17.5329 181.031 22.9917 180.771 27.6893 179.399C26.918 180.17 26.1969 183.964 26.6776 184.354L31.0647 185.835C32.3067 185.715 33.6989 183.113 34.2298 181.071C35.5719 175.906 35.8624 173.024 31.5555 173.014C29.0414 173.01 26.5316 173.221 24.0534 173.644L14.7986 174.875Z" fill="#FFC619"/>
<path d="M30.6743 185.586L29.1117 184.855C29.1117 184.855 30.1734 183.915 30.5641 183.154C31.135 182.073 31.8762 180.191 32.6274 176.278C32.6325 176.261 32.6328 176.244 32.6283 176.227C32.6239 176.211 32.6148 176.196 32.6022 176.185C32.5896 176.173 32.574 176.165 32.5572 176.162C32.5403 176.159 32.523 176.161 32.5072 176.168C24.4543 178.94 22.9619 178.58 22.1205 177.919C21.2792 177.259 21.199 176.218 21.0989 174.666L22.9318 174.336C22.9819 175.517 23.072 176.548 23.5228 176.648C24.6245 176.898 27.8697 175.907 29.5124 175.367C32.2668 174.466 33.2484 174.306 33.7692 174.816C34.2901 175.327 34.4103 175.727 33.5389 179.541C32.8978 182.353 32.3069 184.165 30.6743 185.586Z" fill="white"/>
<path d="M22.0005 174.467C22.1507 176.108 21.9404 177.74 24.214 177.55C27.2389 177.299 30.434 175.738 32.3571 175.358C33.1284 175.197 33.4689 175.348 33.4389 175.928C33.3187 177.7 32.3471 181.573 31.5058 183.225C31.1326 183.964 30.6228 184.626 30.0033 185.176" stroke="#FFE75C" stroke-width="4" stroke-linecap="round" stroke-linejoin="round"/>
<path d="M13.7668 173.415C13.867 174.697 14.1875 175.277 15.0489 175.287C17.8133 175.327 22.6311 174.777 24.3538 173.916C25.2453 173.465 24.8547 172.244 24.8547 172.244L13.7668 173.415Z" fill="#FF8C19"/>
<path d="M19.1965 154.708C18.8058 155.629 17.8543 157.951 13.1868 159.312C11.444 158.221 10.4825 156.31 11.0133 153.227C11.7645 148.833 14.7493 147.992 18.0346 147.902C18.3654 147.892 18.6966 147.902 19.0262 147.932L18.0246 148.893C19.517 151.165 19.7273 153.437 19.1965 154.708Z" fill="#3442D9"/>
<path d="M25.7172 155.269C25.7191 155.735 25.6584 156.2 25.5369 156.65C25.4583 156.958 25.3476 157.256 25.2064 157.541C24.6255 157.841 24.1447 157.511 23.9243 156.92C23.7758 156.511 23.6848 156.083 23.6539 155.649C23.6038 154.909 23.7841 154.278 24.4151 154.418C24.9344 154.543 25.3945 154.844 25.7172 155.269Z" fill="black"/>
<path d="M25.5363 156.649C25.4578 156.957 25.347 157.255 25.2058 157.54C24.6249 157.84 24.1441 157.51 23.9238 156.919C23.7752 156.51 23.6842 156.082 23.6533 155.648C24.5648 155.518 25.2859 155.888 25.5363 156.649Z" fill="#FF78B9"/>
<path d="M12.4358 155.509C12.4358 155.509 15.8714 156.44 16.5024 154.578C17.1334 152.717 15.4306 149.514 15.4306 149.514C15.4306 149.514 15.9615 145.12 13.9382 144.559C11.915 143.999 10.673 147.352 10.673 147.352C10.673 147.352 7.07723 146.581 6.4362 148.553C5.92538 150.154 7.63813 151.976 7.63813 151.976C7.63813 151.976 5.67498 155.769 7.83845 156.64C10.2123 157.581 12.4358 155.509 12.4358 155.509Z" fill="#5865F2"/>
<path d="M12.3637 149.224C10.9314 149.794 9.74947 151.786 10.1802 153.497" stroke="#3442D9" stroke-width="4" stroke-linecap="round" stroke-linejoin="round"/>
<path d="M18.0334 148.894C18.8948 147.112 20.3572 145.991 21.6593 146.221C22.7811 146.421 23.2118 148.403 22.8913 150.265L18.0334 148.894Z" fill="#66BCFF"/>
<path d="M22.6313 161.464C22.2207 160.213 21.9302 159.362 18.5949 158.932C15.2595 158.501 11.4534 158.592 11.0728 159.632C10.6922 160.673 10.9326 162.425 10.9326 162.425L22.6313 161.464Z" fill="#FF8C19"/>
<path d="M26.6885 184.304C26.4481 184.595 25.9673 185.856 26.3179 186.006C27.4798 186.477 29.8436 187.197 30.1741 187.368C30.5046 187.538 31.0555 186.096 31.0655 185.846C31.0755 185.596 30.0138 185.015 28.9321 184.645C27.8504 184.274 26.8187 184.154 26.6885 184.304Z" fill="#FF8C19"/>
<path d="M27.84 188.248C27.84 188.248 29.1621 188.198 29.9834 188.388C31.1052 188.648 30.9049 189.309 30.5543 190.61C30.5543 190.61 31.6561 190.881 32.3873 191.231C33.429 191.721 33.8096 192.582 32.217 194.584L26.4578 192.512L27.84 188.248Z" fill="#3442D9"/>
<path d="M27.9208 190.161C27.9208 190.161 29.1828 189.901 29.3731 189.44C29.7537 188.499 30.1043 187.519 30.2145 187.178C30.3246 186.838 26.5886 185.547 26.4684 185.867L25.3967 189.03L27.9208 190.161Z" fill="#66BCFF"/>
<path d="M27.5975 193.224L23.9717 191.612C24.1577 190.892 24.4515 190.203 24.8431 189.57C25.0634 189.2 24.9933 187.989 25.7145 187.799C26.6059 187.549 28.0983 188.519 28.0683 189.42C28.0241 190.699 27.8666 191.972 27.5975 193.224Z" fill="#3442D9"/>
<path d="M23.9033 191.481C23.2523 192.562 23.1321 192.863 24.0335 193.383C25.2755 194.094 29.302 195.845 30.544 196.206C31.9462 196.616 31.7359 195.925 31.9963 195.455C32.2567 194.984 32.7475 194.604 31.7459 194.054C30.7443 193.503 28.9314 193.103 27.1886 192.332C25.4458 191.561 24.1537 191.081 23.9033 191.481Z" fill="#5865F2"/>
<path d="M30.5542 190.611C30.3038 191.532 30.2036 191.942 30.424 192.143C30.9849 192.683 31.4456 192.593 31.5958 192.133C31.7461 191.672 31.8663 190.991 31.4857 190.691C31.2316 190.503 30.947 190.361 30.6443 190.271L30.5542 190.611Z" fill="#5865F2"/>
<path d="M32.6966 170.143C31.6549 173.476 28.8604 176.929 26.0259 170.493" stroke="black" stroke-linecap="round" stroke-linejoin="round"/>
<path d="M30.7545 170.564C31.9464 171.485 33.6692 171.975 34.781 171.505C36.2133 170.914 35.8727 168.852 35.8727 168.852C36.5038 168.502 37.1849 167.051 36.4336 166.68C35.6824 166.31 33.9296 166.58 33.9296 166.58C33.9296 166.58 33.8495 165.449 32.9581 165.509C32.0666 165.569 30.5442 167.571 30.5442 167.571L30.7545 170.564Z" fill="#66BCFF"/>
<path d="M29.4034 167.079C30.9458 167.019 31.5668 167.049 31.4867 168.951C31.4066 170.853 30.8557 170.843 29.3433 171.033L29.4034 167.079Z" fill="#FF8C19"/>
<path d="M11.9652 165.027C11.865 169.081 11.6747 173.545 13.8983 173.815C16.1219 174.085 21.6507 173.314 23.8142 172.844C25.9777 172.373 25.1564 169.851 25.1564 169.851L18.6559 162.194L11.9652 165.027Z" fill="#FFC619"/>
<path d="M17.835 163.216L11.9655 165.208C11.9255 166.599 11.8854 168.02 11.9355 169.301C12.3361 169.692 12.9471 169.852 14.119 168.941C15.5513 167.81 18.0253 164.687 18.5561 163.416L17.835 163.216Z" fill="black"/>
<path d="M17.5938 161.433C17.5938 161.433 20.6286 161.293 22.131 161.263C23.6335 161.233 24.595 161.533 25.3963 163.064C26.0173 164.265 26.6783 165.837 26.6783 165.837C26.6783 165.837 29.2224 165.957 29.7833 166.858C30.3442 167.759 30.3142 169.8 29.6531 170.871C28.7517 172.333 26.0073 171.021 26.0073 171.021C26.0073 171.021 23.5233 172.032 22.0209 170.661C20.5184 169.29 17.5938 161.433 17.5938 161.433Z" fill="#FFC619"/>
<path d="M11.1737 161.825C10.3023 162.525 9.47095 163.456 10.3323 164.527C11.1937 165.598 13.1969 167.81 14.8796 166.939C16.2719 166.219 18.235 164.027 19.1365 162.936C20.3384 161.495 20.6189 161.314 20.8893 161.304L20.7691 160.394L11.1737 161.825Z" fill="#FF8C19"/>
<path d="M10.6521 161.944C10.6922 162.785 10.8825 163.436 11.5135 163.486C12.8657 163.596 17.0624 162.235 17.0624 162.235" stroke="#ED5F00" stroke-width="4" stroke-linecap="round" stroke-linejoin="round"/>
<path d="M20.9685 165.368C20.9785 167.01 21.4793 172.004 25.1352 171.283" stroke="#FF8C19" stroke-width="4" stroke-linecap="round" stroke-linejoin="round"/>
<path d="M198.243 157.447C196.593 156.907 195.188 156.198 194.12 155.366C193.052 154.534 192.344 153.599 192.044 152.62L191.045 149.302C191.045 149.222 190.982 149.145 190.869 149.088C190.757 149.032 190.604 149 190.445 149C190.045 149 189.745 149.101 189.745 149.302L188.745 152.62C188.464 153.602 187.764 154.541 186.695 155.374C185.625 156.207 184.21 156.914 182.547 157.447L181.747 157.698C181.574 157.776 181.466 157.884 181.447 158C181.432 158.06 181.452 158.12 181.506 158.174C181.559 158.228 181.643 158.272 181.747 158.302L182.547 158.603C184.207 159.126 185.622 159.823 186.692 160.648C187.763 161.473 188.463 162.405 188.745 163.38L189.745 166.749C189.745 166.899 190.045 167 190.445 167C190.588 167.001 190.727 166.976 190.837 166.93C190.947 166.884 191.021 166.82 191.045 166.749L192.044 163.38C192.346 162.408 193.054 161.48 194.123 160.656C195.191 159.833 196.596 159.133 198.243 158.603L199.042 158.302C199.157 158.274 199.255 158.232 199.326 158.179C199.396 158.126 199.436 158.064 199.442 158C199.442 157.899 199.242 157.799 199.042 157.698L198.243 157.447Z" fill="#808AFF"/>
<path d="M29.8693 119.817C29.1225 119.591 28.4886 119.283 28.0158 118.916C27.543 118.549 27.2437 118.133 27.1408 117.7L26.6704 116.194C26.6704 116.147 26.4822 116.1 26.3881 116.1C26.3151 116.1 26.2431 116.108 26.1777 116.124C26.1124 116.141 26.0556 116.164 26.0118 116.194L25.6354 117.7C25.4965 118.133 25.1724 118.547 24.6854 118.912C24.1983 119.278 23.5597 119.586 22.8128 119.817L22.4365 119.958C22.4025 119.978 22.3766 120 22.3604 120.024C22.3442 120.048 22.3381 120.074 22.3424 120.1C22.3381 120.125 22.3442 120.151 22.3604 120.175C22.3766 120.199 22.4025 120.222 22.4365 120.241L22.8128 120.335C23.5624 120.576 24.2014 120.893 24.6879 121.266C25.1745 121.639 25.4974 122.06 25.6354 122.5L26.0118 123.958C26.1059 124.053 26.1999 124.1 26.3881 124.1C26.4252 124.1 26.4619 124.096 26.4961 124.089C26.5304 124.082 26.5615 124.071 26.5877 124.058C26.6139 124.045 26.6347 124.03 26.6489 124.012C26.6631 123.995 26.6704 123.977 26.6704 123.958L27.1408 122.5C27.2368 122.059 27.5325 121.635 28.0052 121.26C28.478 120.885 29.1155 120.568 29.8693 120.335L30.2456 120.241C30.2797 120.222 30.3056 120.199 30.3218 120.175C30.3379 120.151 30.344 120.125 30.3397 120.1C30.344 120.074 30.3379 120.048 30.3218 120.024C30.3056 120 30.2797 119.978 30.2456 119.958L29.8693 119.817Z" fill="#FF78B9"/>
<path d="M26.972 62.9639C26.2329 62.7284 25.6001 62.4185 25.1139 62.0539C24.6278 61.6893 24.299 61.278 24.1485 60.8463L23.772 59.3404C23.7486 59.308 23.7111 59.2785 23.6623 59.2541C23.6135 59.2297 23.5546 59.211 23.4897 59.1992C23.3015 59.1992 23.2073 59.2933 23.1132 59.3404L22.7367 60.8463C22.5863 61.278 22.2575 61.6893 21.7713 62.0539C21.2852 62.4185 20.6523 62.7284 19.9132 62.9639L19.5368 63.1051C19.4426 63.1051 19.4426 63.1522 19.4426 63.1992C19.4426 63.2463 19.4426 63.2933 19.5368 63.2933L19.9132 63.4345C20.6523 63.67 21.2852 63.9799 21.7713 64.3446C22.2575 64.7092 22.5863 65.1205 22.7367 65.5522L23.1132 67.058C23.2073 67.1051 23.3015 67.1992 23.4897 67.1992L23.772 67.058L24.1485 65.5522C24.299 65.1205 24.6278 64.7092 25.1139 64.3446C25.6001 63.9799 26.2329 63.67 26.972 63.4345L27.3485 63.2933C27.4426 63.2933 27.4426 63.2463 27.4426 63.1992C27.4426 63.1522 27.4426 63.1051 27.3485 63.1051L26.972 62.9639Z" fill="#91FFAD"/>
<path d="M212.807 52.712C212.088 52.4771 211.478 52.1669 211.018 51.8025C210.557 51.438 210.258 51.0279 210.141 50.6L209.633 49.128C209.633 49.1112 209.626 49.0945 209.614 49.079C209.601 49.0635 209.582 49.0494 209.558 49.0375C209.535 49.0256 209.507 49.0162 209.476 49.0097C209.445 49.0033 209.412 49 209.379 49C209.312 49 209.247 49.0135 209.199 49.0375C209.152 49.0615 209.125 49.0941 209.125 49.128L208.617 50.6C208.499 51.0279 208.2 51.438 207.74 51.8025C207.28 52.1669 206.67 52.4771 205.95 52.712L205.569 52.84C205.442 52.904 205.442 52.904 205.442 52.968C205.442 53.032 205.442 53.096 205.569 53.096L205.95 53.224C206.663 53.4775 207.266 53.801 207.724 54.1749C208.182 54.5488 208.486 54.9655 208.617 55.4L209.125 56.872C209.125 56.9059 209.152 56.9385 209.199 56.9625C209.247 56.9865 209.312 57 209.379 57C209.412 57 209.445 56.9967 209.476 56.9903C209.507 56.9838 209.535 56.9744 209.558 56.9625C209.582 56.9506 209.601 56.9365 209.614 56.921C209.626 56.9055 209.633 56.8888 209.633 56.872L210.141 55.4C210.272 54.9655 210.575 54.5488 211.034 54.1749C211.492 53.801 212.095 53.4775 212.807 53.224L213.188 53.096L213.442 52.968C213.442 52.904 213.315 52.904 213.188 52.84L212.807 52.712Z" fill="#FFF2A6"/>
<defs>
<linearGradient id="paint0_linear_342_47109" x1="117.072" y1="159.351" x2="185.592" y2="159.351" gradientUnits="userSpaceOnUse">
<stop stop-color="#75C3FF"/>
<stop offset="1" stop-color="#C2EBFF"/>
</linearGradient>
<linearGradient id="paint1_linear_342_47109" x1="157.726" y1="85.199" x2="166.662" y2="94.6455" gradientUnits="userSpaceOnUse">
<stop stop-color="#66BCFF"/>
<stop offset="1" stop-color="#3F99F2"/>
</linearGradient>
<linearGradient id="paint2_linear_342_47109" x1="106.933" y1="57.9967" x2="96.878" y2="46.5576" gradientUnits="userSpaceOnUse">
<stop stop-color="#FF8C19"/>
<stop offset="0.77" stop-color="#FFC619"/>
</linearGradient>
<linearGradient id="paint3_linear_342_47109" x1="34.4669" y1="86.7367" x2="149.24" y2="86.7367" gradientUnits="userSpaceOnUse">
<stop stop-color="#57F287"/>
<stop offset="1" stop-color="#29CC7A"/>
</linearGradient>
<linearGradient id="paint4_linear_342_47109" x1="77.3144" y1="77.8754" x2="100.002" y2="77.8754" gradientUnits="userSpaceOnUse">
<stop stop-color="#EB459F"/>
<stop offset="1" stop-color="#D11583"/>
</linearGradient>
<linearGradient id="paint5_linear_342_47109" x1="35.9858" y1="134.744" x2="158.987" y2="134.744" gradientUnits="userSpaceOnUse">
<stop stop-color="#9E4334"/>
<stop offset="1" stop-color="#C65C47"/>
</linearGradient>
<linearGradient id="paint6_linear_342_47109" x1="118.207" y1="37.0127" x2="121.331" y2="37.0127" gradientUnits="userSpaceOnUse">
<stop stop-color="#57F287"/>
<stop offset="1" stop-color="#29CC7A"/>
</linearGradient>
<linearGradient id="paint7_linear_342_47109" x1="120.716" y1="62.104" x2="129.83" y2="64.5579" gradientUnits="userSpaceOnUse">
<stop stop-color="#FF8C19"/>
<stop offset="0.77" stop-color="#FFC619"/>
</linearGradient>
<linearGradient id="paint8_linear_342_47109" x1="108.305" y1="71.6448" x2="108.305" y2="86.6264" gradientUnits="userSpaceOnUse">
<stop stop-color="#FF8C19"/>
<stop offset="0.77" stop-color="#FFC619"/>
</linearGradient>
<linearGradient id="paint9_linear_342_47109" x1="120.949" y1="71.6453" x2="120.949" y2="86.6268" gradientUnits="userSpaceOnUse">
<stop stop-color="#FF8C19"/>
<stop offset="0.77" stop-color="#FFC619"/>
</linearGradient>
<linearGradient id="paint10_linear_342_47109" x1="52.7639" y1="164.56" x2="53.208" y2="168.422" gradientUnits="userSpaceOnUse">
<stop stop-color="#FF78B9"/>
<stop offset="1" stop-color="#EB459F"/>
</linearGradient>
<linearGradient id="paint11_linear_342_47109" x1="41.8681" y1="164.065" x2="43.4854" y2="177.245" gradientUnits="userSpaceOnUse">
<stop stop-color="#FF78B9"/>
<stop offset="1" stop-color="#EB459F"/>
</linearGradient>
<linearGradient id="paint12_linear_342_47109" x1="26.2786" y1="181.283" x2="29.1665" y2="189.84" gradientUnits="userSpaceOnUse">
<stop stop-color="#FF78B9"/>
<stop offset="1" stop-color="#EB459F"/>
</linearGradient>
</defs>
</svg>
