<svg fill="none" height="40" viewBox="0 0 40 40" width="40" xmlns="http://www.w3.org/2000/svg" xmlns:xlink="http://www.w3.org/1999/xlink"><clipPath id="a"><path d="m0 0h40v40h-40z"/></clipPath><g clip-path="url(#a)"><path d="m30.6875 5.4375h-28.425c-1.24954 0-2.2625 1.01296-2.2625 2.2625v30.0375c0 1.2495 1.01296 2.2625 2.2625 2.2625h28.425c1.2495 0 2.2625-1.013 2.2625-2.2625v-30.0375c0-1.24954-1.013-2.2625-2.2625-2.2625z" fill="#aec7ff"/><path d="m29.2751 8.82495h-25.6125v27.77505h25.6125z" fill="#fff"/><g fill="#d9e7ff"><path d="m22.575 13.6375h-5.275c-1.2357 0-2.2375 1.0017-2.2375 2.2375v.0125c0 1.2357 1.0018 2.2375 2.2375 2.2375h5.275c1.2357 0 2.2375-1.0018 2.2375-2.2375v-.0125c0-1.2358-1.0018-2.2375-2.2375-2.2375z"/><path d="m22.575 20.4749h-5.275c-1.2357 0-2.2375 1.0017-2.2375 2.2375v.0125c0 1.2357 1.0018 2.2375 2.2375 2.2375h5.275c1.2357 0 2.2375-1.0018 2.2375-2.2375v-.0125c0-1.2358-1.0018-2.2375-2.2375-2.2375z"/><path d="m22.575 27.3125h-5.275c-1.2357 0-2.2375 1.0018-2.2375 2.2375v.0125c0 1.2357 1.0018 2.2375 2.2375 2.2375h5.275c1.2357 0 2.2375-1.0018 2.2375-2.2375v-.0125c0-1.2357-1.0018-2.2375-2.2375-2.2375z"/><path d="m24.8125 8.82505v1.68745h-16.98755v-1.68745l4.73755-4.7375.2249-.225h1.9001c0 .43429.1725.8508.4796 1.15789s.7236.47961 1.1579.47961c.4342 0 .8507-.17252 1.1578-.47961s.4797-.7236.4797-1.15789h1.9l.2124.2125z"/><path d="m16.3249 0c-.9945 0-1.9484.395088-2.6516 1.09835-.7033.70326-1.0984 1.65709-1.0984 2.65165-.0123.1038-.0123.2087 0 .3125 0 .99456.3951 1.94839 1.0984 2.65165.7032.70326 1.6571 1.09835 2.6516 1.09835.9946 0 1.9484-.39509 2.6517-1.09835.7032-.70326 1.0983-1.65709 1.0983-2.65165.0121-.09964.0121-.20036 0-.3.0017-.49351-.0941-.98249-.2818-1.4389-.1878-.45642-.4637-.87129-.8121-1.22083-.3484-.34955-.7623-.626891-1.2181-.816127-.4558-.1892365-.9445-.28664574-1.438-.286643zm0 5.425c-.4225.00356-.8298-.15759-1.1355-.44929-.3057-.29169-.4857-.69099-.502-1.11321-.0061-.02885-.0061-.05865 0-.0875 0-.43761.1739-.85729.4833-1.16673.3094-.30943.7291-.48327 1.1667-.48327s.8573.17384 1.1667.48327c.3095.30944.4833.72912.4833 1.16673.0061.02885.0061.05865 0 .0875-.0163.42662-.1998.82969-.5109 1.12207s-.7248.45059-1.1516.44043z"/></g><path d="m40.0043 19.9677-4.7995-4.7995-16.6346 16.6347 4.7994 4.7995z" fill="#3e70dd"/><path d="m40.0044 19.9748-4.8084-4.8083-2.245 2.2451 4.8083 4.8083z" fill="#f5b312"/><path d="m37.761 22.2192-4.8084-4.8083-1.1402 1.1402 4.8084 4.8083z" fill="#d9e7ff"/><path d="m18.5625 36.6h4.8l-4.8-4.8z" fill="#113484"/><path d="m12.1 13.6375h-4.48745v4.4875h4.48745z" fill="#d9e7ff"/><path d="m12.1 20.4749h-4.48745v4.4875h4.48745z" fill="#d9e7ff"/><path d="m12.1 27.3125h-4.48745v4.4875h4.48745z" fill="#d9e7ff"/><path d="m14.0446 20.1493-1.6264-1.6264-6.75286 6.7529 1.62635 1.6264z" fill="#ed4245"/><path d="m12.413 26.9069 1.6263-1.6264-6.75286-6.7529-1.62635 1.6264z" fill="#ed4245"/></g></svg>
