<svg width="154" height="48" viewBox="0 0 154 48" fill="none" xmlns="http://www.w3.org/2000/svg">
<rect x="90" y="3.5" width="43" height="43" rx="21.5" fill="#202225"/>
<path fill-rule="evenodd" clip-rule="evenodd" d="M110.986 17.5658C110.674 17.4375 110.316 17.5083 110.078 17.7466L106.5 21.6683H104C103.542 21.6683 103.167 22.0441 103.167 22.5016V27.5016C103.167 27.96 103.542 28.335 104 28.335H106.5L110.078 32.2583C110.316 32.4966 110.674 32.5683 110.986 32.4391C111.298 32.31 111.5 32.0058 111.5 31.6683V18.335C111.5 17.9991 111.298 17.6933 110.986 17.5658ZM113.167 19.1682V20.8349C115.464 20.8349 117.333 22.7049 117.333 25.0016C117.333 27.2991 115.464 29.1682 113.167 29.1682V30.8349C116.383 30.8349 119 28.2191 119 25.0016C119 21.7857 116.383 19.1682 113.167 19.1682ZM113.167 22.5016C114.545 22.5016 115.667 23.6241 115.667 25.0016C115.667 26.3807 114.545 27.5016 113.167 27.5016V25.8349C113.626 25.8349 114 25.4607 114 25.0016C114 24.5424 113.626 24.1682 113.167 24.1682V22.5016Z" fill="#B9BBBE"/>
<rect x="90" y="3.5" width="43" height="43" rx="21.5" stroke="#2F3136" stroke-width="3"/>
<rect x="19" y="3.5" width="43" height="43" rx="21.5" fill="#202225"/>
<path fill-rule="evenodd" clip-rule="evenodd" d="M42.1666 25.8334C42.1666 26.7501 41.4166 27.5001 40.4999 27.5001C39.5833 27.5001 38.8333 26.7501 38.8333 25.8334C38.8333 24.9167 39.5833 24.1667 40.4999 24.1667C41.4166 24.1667 42.1666 24.9167 42.1666 25.8334ZM37.5833 31.6667V31.2501C37.5833 29.8334 38.7833 28.7501 40.4999 28.7501C42.2166 28.7501 43.4166 29.8334 43.4166 31.2501V31.6667H37.5833ZM36.3333 25.8334C36.3333 23.5334 38.1999 21.6667 40.4999 21.6667C42.7999 21.6667 44.6666 23.5334 44.6666 25.8334C44.6666 26.5917 44.4499 27.2917 44.0916 27.9084L45.1833 28.5417C45.6416 27.7417 45.9166 26.8251 45.9166 25.8334C45.9166 22.8501 43.4833 20.4167 40.4999 20.4167C37.5166 20.4167 35.0833 22.8501 35.0833 25.8334C35.0833 26.8167 35.3499 27.7417 35.8166 28.5417L36.9083 27.9084C36.5499 27.2917 36.3333 26.5917 36.3333 25.8334ZM32.5833 25.8334C32.5833 21.4584 36.1249 17.9167 40.4999 17.9167C44.8749 17.9167 48.4166 21.4584 48.4166 25.8334C48.4166 27.2751 48.0249 28.6251 47.3499 29.7917L48.4249 30.4167C49.2083 29.0667 49.6666 27.5001 49.6666 25.8334C49.6666 20.7751 45.5583 16.6667 40.4999 16.6667C35.4416 16.6667 31.3333 20.7751 31.3333 25.8334C31.3333 27.5001 31.7916 29.0667 32.5666 30.4084L33.6416 29.7834C32.9749 28.6251 32.5833 27.2751 32.5833 25.8334Z" fill="#B9BBBE"/>
<rect x="19" y="3.5" width="43" height="43" rx="21.5" stroke="#2F3136" stroke-width="3"/>
<rect x="54.5" y="4" width="42" height="42" rx="21" fill="#202225"/>
<path fill-rule="evenodd" clip-rule="evenodd" d="M70.505 32.5C70.1939 32.5 69.9583 32.2189 70.0127 31.9126L70.5001 29.1667H67.7619C67.4512 29.1667 67.2158 28.8864 67.2693 28.5805L67.386 27.9138C67.4279 27.6746 67.6356 27.5 67.8785 27.5H70.7918L71.6751 22.5H68.9369C68.6262 22.5 68.3908 22.2198 68.4443 21.9138L68.561 21.2471C68.6029 21.0079 68.8106 20.8333 69.0535 20.8333H71.9668L72.4852 17.9126C72.5276 17.6739 72.7351 17.5 72.9775 17.5H73.6285C73.9396 17.5 74.1752 17.7811 74.1208 18.0874L73.6334 20.8333H78.6334L79.1518 17.9126C79.1942 17.6739 79.4017 17.5 79.6442 17.5H80.2952C80.6063 17.5 80.8419 17.7811 80.7875 18.0874L80.3001 20.8333H83.0383C83.3489 20.8333 83.5844 21.1136 83.5308 21.4195L83.4142 22.0862C83.3723 22.3254 83.1645 22.5 82.9217 22.5H80.0084L79.1251 27.5H81.8633C82.1739 27.5 82.4094 27.7802 82.3558 28.0862L82.2392 28.7529C82.1973 28.9921 81.9895 29.1667 81.7467 29.1667H78.8334L78.315 32.0874C78.2726 32.3261 78.0651 32.5 77.8227 32.5H77.1717C76.8606 32.5 76.625 32.2189 76.6793 31.9126L77.1668 29.1667H72.1668L71.6483 32.0874C71.606 32.3261 71.3985 32.5 71.156 32.5H70.505ZM73.3421 22.5L72.4588 27.5H77.4588L78.3421 22.5H73.3421Z" fill="#B9BBBE"/>
<rect x="54.5" y="4" width="42" height="42" rx="21" stroke="#2F3136" stroke-width="2"/>
<path d="M12.6296 18.5556C12.0733 18.2072 11.5996 17.7417 11.2414 17.1916C10.8832 16.6416 10.6492 16.0201 10.5556 15.3704L10.2593 13.2222C10.1605 13.0741 10.0864 13 10.037 13C9.9781 13 9.92158 13.0234 9.8799 13.0651C9.83823 13.1068 9.81482 13.1633 9.81482 13.2222L9.44445 15.3704C9.3799 16.0197 9.1657 16.6453 8.81869 17.198C8.47168 17.7506 8.00128 18.2153 7.44444 18.5556L7.14815 18.7778C7.10885 18.7778 7.07117 18.7934 7.04339 18.8212C7.01561 18.849 7 18.8866 7 18.9259L7.14815 19.1481L7.44444 19.2963C7.987 19.6524 8.44647 20.1213 8.79159 20.6709C9.13671 21.2205 9.35938 21.8381 9.44445 22.4815L9.81482 24.7037C9.81482 24.7778 9.88889 24.8519 10.037 24.8519L10.2593 24.7037L10.5556 22.4815C10.6711 21.839 10.9142 21.2261 11.2704 20.6791C11.6266 20.132 12.0888 19.6619 12.6296 19.2963L12.8519 19.1481L13 18.9259C13 18.9065 12.9962 18.8872 12.9887 18.8692C12.9813 18.8513 12.9704 18.8349 12.9566 18.8212C12.9429 18.8074 12.9265 18.7965 12.9085 18.7891C12.8906 18.7816 12.8713 18.7778 12.8519 18.7778L12.6296 18.5556Z" fill="#FF78B8"/>
<path d="M141.642 5.64192C141.082 5.29119 140.606 4.82142 140.248 4.26598C139.89 3.71054 139.659 3.08306 139.571 2.42816L139.214 0.214252C139.214 0.15743 139.191 0.102937 139.151 0.0627577C139.111 0.022578 139.056 0 138.999 0V0C138.943 0 138.888 0.022578 138.848 0.0627577C138.808 0.102937 138.785 0.15743 138.785 0.214252L138.428 2.42816C138.353 3.07834 138.135 3.70378 137.789 4.25948C137.443 4.81518 136.979 5.28732 136.428 5.64192L136.143 5.78476C136.071 5.85618 136 5.92758 136 5.999L136.143 6.21326L136.428 6.4275C136.97 6.7746 137.429 7.23551 137.775 7.77818C138.12 8.32086 138.343 8.93225 138.428 9.56984L138.785 11.7838C138.785 11.8406 138.808 11.8951 138.848 11.9353C138.888 11.9754 138.943 11.998 138.999 11.998V11.998C139.056 11.998 139.111 11.9754 139.151 11.9353C139.191 11.8951 139.214 11.8406 139.214 11.7838L139.571 9.56984C139.673 8.92906 139.911 8.31742 140.268 7.77561C140.625 7.2338 141.093 6.77425 141.642 6.4275L141.928 6.21326C141.953 6.18428 141.973 6.15032 141.985 6.11349C141.998 6.07665 142.002 6.03769 141.999 5.999C142.002 5.96031 141.998 5.92137 141.985 5.88453C141.973 5.8477 141.953 5.81374 141.928 5.78476L141.642 5.64192Z" fill="#FFE65C"/>
<path d="M153.769 38.6924C153.397 38.4538 153.081 38.1379 152.842 37.7663C152.603 37.3946 152.447 36.9759 152.385 36.5385L152.154 35H151.846L151.615 36.5385C151.539 36.9715 151.378 37.385 151.14 37.7548C150.902 38.1246 150.593 38.4434 150.231 38.6924H150.077C150 38.7693 150 38.7693 150 38.8462C150 38.9231 150 38.9231 150.077 39H150.231C150.599 39.2423 150.913 39.5591 151.151 39.9301C151.39 40.3011 151.548 40.718 151.615 41.1539L151.846 42.6924H152.154L152.385 41.1539C152.437 40.7133 152.589 40.2905 152.829 39.9173C153.068 39.5441 153.39 39.2304 153.769 39H153.923C154 38.9231 154 38.9231 154 38.8462C154 38.7693 154 38.7693 153.923 38.6924H153.769Z" fill="#8089FF"/>
<path d="M3.76924 33.6924C3.39734 33.4538 3.08117 33.1379 2.84224 32.7663C2.60332 32.3946 2.44724 31.9759 2.38462 31.5385L2.15385 30H1.84616L1.61539 31.5385C1.53932 31.9715 1.37769 32.385 1.13995 32.7548C0.902208 33.1246 0.593123 33.4434 0.230772 33.6924H0.0769278C4.69387e-06 33.7693 0 33.7693 0 33.8462C0 33.9231 4.69387e-06 33.9231 0.0769278 34H0.230772C0.599336 34.2423 0.91299 34.5591 1.15149 34.9301C1.38999 35.3011 1.54803 35.718 1.61539 36.1539L1.84616 37.6924H2.15385L2.38462 36.1539C2.43684 35.7133 2.58865 35.2905 2.82855 34.9173C3.06844 34.5441 3.39013 34.2304 3.76924 34H3.92308C4.00001 33.9231 4 33.9231 4 33.8462C4 33.7693 4.00001 33.7693 3.92308 33.6924H3.76924Z" fill="#45DDC0"/>
</svg>
