<svg width="320" height="189" viewBox="0 0 320 189" fill="none" xmlns="http://www.w3.org/2000/svg">
<path opacity="0.3" d="M100.721 0H221.902C233.233 0 242.361 9.1135 242.361 20.4268C242.361 31.7401 233.233 40.8536 221.902 40.8536H195.777C182.662 40.8536 172.066 51.4337 172.066 64.5278C172.066 77.6219 182.662 88.2019 195.777 88.2019H293.875C308.354 88.2019 320 99.9343 320 114.285C320 128.741 308.249 140.369 293.875 140.369H37.7705C16.8918 140.369 0 123.504 0 102.658C0 81.812 16.8918 64.9468 37.7705 64.9468H50.3607C64.3148 64.9468 75.541 53.7382 75.541 39.8061V25.1407C75.541 11.2086 86.7672 0 100.721 0Z" fill="#4F545C"/>
<path d="M151.082 62.8518V50.2814H150.033H141.639H131.672L151.082 62.8518Z" fill="#72767D"/>
<path d="M182.557 93.2301V79.6122H173.115C172.485 79.6122 172.066 79.1932 172.066 78.5647V64.9468H162.623C161.993 64.9468 161.574 64.5278 161.574 63.8993V50.2814H153.18V64.7373V106.848H182.557V93.2301Z" fill="#72767D"/>
<path d="M140.59 106.848H150.033H151.082V65.3658L97.259 30.4831V61.8042C111.843 61.909 123.803 73.8508 123.803 88.5162C123.803 99.62 117.088 109.048 107.436 113.133H128.525C131.252 109.362 135.659 106.848 140.59 106.848Z" fill="#B9BBBE"/>
<path d="M109.744 88.5162C109.744 81.6025 104.184 76.0506 97.3639 75.8411V101.087C104.184 100.982 109.744 95.4299 109.744 88.5162Z" fill="#B9BBBE"/>
<path d="M182.557 136.179H153.18V156.082V186.46H182.557V136.179Z" fill="#72767D"/>
<path d="M41.9672 173.89H14.6885H5.24588V186.46H41.9672V173.89Z" fill="#72767D"/>
<path d="M25.1803 159.224H15.7377V171.795H43.0164H52.459V159.224H25.1803Z" fill="#72767D"/>
<path d="M73.4426 129.894H46.1639H36.7213V142.464H47.0032C47.6328 142.464 48.0524 142.883 48.0524 143.512C48.0524 144.14 47.6328 144.559 47.0032 144.559H26.2295V157.129H53.5082H62.9508V144.559H60.9573C60.3278 144.559 59.9082 144.14 59.9082 143.512C59.9082 142.883 60.3278 142.464 60.9573 142.464H64H65.0491H73.4426V129.894ZM57.6 144.559H55.5016C54.8721 144.559 54.4524 144.14 54.4524 143.512C54.4524 142.883 54.8721 142.464 55.5016 142.464H57.6C58.2295 142.464 58.6491 142.883 58.6491 143.512C58.6491 144.14 58.1246 144.559 57.6 144.559Z" fill="#72767D"/>
<path d="M64 115.228H51.7246H47.2131V127.799H74.4918H83.9344V115.228H64Z" fill="#72767D"/>
<path d="M140.59 134.084C147.515 134.084 153.18 128.427 153.18 121.513C153.18 114.6 147.515 108.943 140.59 108.943C136.708 108.943 133.246 110.724 130.938 113.447C131.567 113.238 132.302 113.133 133.036 113.133H139.646C144.262 113.133 148.039 116.904 148.039 121.513C148.039 126.123 144.262 129.894 139.646 129.894H133.98C133.875 129.894 133.875 129.894 133.77 129.894C133.561 129.894 133.246 129.894 133.036 129.894C132.302 129.894 131.567 129.789 130.938 129.579C133.246 132.303 136.708 134.084 140.59 134.084Z" fill="#72767D"/>
<path d="M133.036 127.799C136.513 127.799 139.331 124.985 139.331 121.513C139.331 118.042 136.513 115.228 133.036 115.228C129.559 115.228 126.741 118.042 126.741 121.513C126.741 124.985 129.559 127.799 133.036 127.799Z" fill="#B9BBBE"/>
<path d="M201.967 28.2833C205.154 28.2833 207.738 25.7038 207.738 22.5219C207.738 19.3399 205.154 16.7605 201.967 16.7605C198.78 16.7605 196.197 19.3399 196.197 22.5219C196.197 25.7038 198.78 28.2833 201.967 28.2833Z" fill="#B9BBBE"/>
<path d="M184.656 106.848H193.049H215.187L184.656 87.0497V106.848Z" fill="#B9BBBE"/>
<path d="M151.082 20.7411L146.78 28.2833H155.384L151.082 20.7411Z" fill="#72767D"/>
<path d="M279.397 142.988L265.548 150.111C268.59 157.234 265.757 165.614 258.728 169.176C251.698 172.738 243.2 170.328 239.108 163.729L225.259 170.852C229.036 177.556 235.121 182.584 242.57 184.889C250.334 187.298 258.518 186.67 265.757 182.899C280.446 175.461 286.426 157.758 279.397 142.988Z" fill="#B9BBBE"/>
<path d="M142.689 48.1864H148.984H151.187C151.607 40.3299 156.328 33.6257 163.043 30.3784H161.574C151.502 30.3784 143.213 38.2348 142.689 48.1864Z" fill="#4F545C"/>
<path d="M199.659 94.2776L219.069 106.848H225.574H230.82C231.449 106.848 231.869 106.429 231.869 105.8V95.3251C231.869 94.6966 231.449 94.2776 230.82 94.2776H222.426H199.659Z" fill="#4F545C"/>
<path d="M184.656 79.6122V84.5356L196.407 92.1826H220.328C220.957 92.1826 221.377 91.7635 221.377 91.135V80.6597C221.377 80.0312 220.957 79.6122 220.328 79.6122H211.934H184.656Z" fill="#4F545C"/>
<path d="M181.508 50.2814H163.672V62.8518H173.115C173.744 62.8518 174.164 63.2708 174.164 63.8993V77.5172H183.607H209.836C210.466 77.5172 210.885 77.0982 210.885 76.4696V65.9944C210.885 65.3658 210.466 64.9468 209.836 64.9468H177.941C177.311 64.9468 176.892 64.5278 176.892 63.8993C176.892 63.2708 177.311 62.8518 177.941 62.8518H200.393V50.2814H192H181.508Z" fill="#4F545C"/>
<path d="M251.803 163.834V157.129H184.656V186.46H224.525H240.472C232.918 183.632 226.833 178.185 223.056 171.061C222.741 170.538 222.951 169.909 223.475 169.7L239.108 161.634C239.633 161.319 240.262 161.529 240.472 162.053C242.885 166.767 247.816 169.281 252.748 168.862V164.986C252.223 164.881 251.803 164.462 251.803 163.834Z" fill="#36393F"/>
<path d="M251.803 155.034V108.943H232.918H224.525H218.754H194.098H184.656V135.131V155.034H251.803Z" fill="#4F545C"/>
<path d="M151.082 186.46V157.129H116.039C119.397 159.434 121.705 163.205 121.705 167.605V186.46H151.082Z" fill="#4F545C"/>
<path d="M182.557 134.084V108.943H153.18H148.984H148.144C152.446 111.457 155.279 116.171 155.279 121.513C155.279 126.856 152.446 131.57 148.144 134.084H182.557Z" fill="#36393F"/>
<path d="M141.43 121.513C141.43 124.027 140.275 126.227 138.597 127.799H139.646C143.108 127.799 145.941 124.97 145.941 121.513C145.941 118.057 143.108 115.228 139.646 115.228H138.597C140.38 116.799 141.43 118.999 141.43 121.513Z" fill="#4F545C"/>
<path d="M82.2558 88.5162C82.2558 96.6869 88.8656 103.286 97.0492 103.286C105.233 103.286 111.843 96.6869 111.843 88.5162C111.843 80.3455 105.233 73.746 97.0492 73.746C88.8656 73.746 82.2558 80.3455 82.2558 88.5162ZM97.259 75.8411C104.079 75.9459 109.639 81.6025 109.639 88.5162C109.639 95.4299 104.079 100.982 97.259 101.191V75.8411ZM95.1607 100.982C89.0754 100.039 84.3541 94.8014 84.3541 88.5162C84.3541 82.231 89.0754 76.8886 95.1607 76.0506V100.982Z" fill="#202225"/>
<path d="M282.23 167.709C280.236 172.842 276.984 177.451 272.682 181.118C274.151 184.26 277.403 186.46 281.18 186.46C286.426 186.46 290.623 182.27 290.623 177.032C290.623 172.214 286.951 168.233 282.23 167.709Z" fill="#4F545C"/>
<path d="M172.066 30.3784C161.993 30.3784 153.705 38.2348 153.18 48.1864H162.623H181.508H190.951C190.426 38.2348 182.138 30.3784 172.066 30.3784Z" fill="#36393F"/>
<path d="M270.059 98.6772C272.052 98.6772 273.731 97.0012 273.731 95.0109C273.731 93.0206 272.052 91.3445 270.059 91.3445C268.066 91.3445 266.387 93.0206 266.387 95.0109C266.387 97.0012 267.961 98.6772 270.059 98.6772ZM270.059 93.4396C270.898 93.4396 271.633 94.1728 271.633 95.0109C271.633 95.8489 270.898 96.5822 270.059 96.5822C269.22 96.5822 268.485 95.8489 268.485 95.0109C268.485 94.1728 269.115 93.4396 270.059 93.4396Z" fill="#202225"/>
<path d="M249.18 81.7073H249.705C250.334 81.7073 250.754 82.1263 250.754 82.7548V83.2786C250.754 83.9071 251.174 84.3261 251.803 84.3261C252.433 84.3261 252.852 83.9071 252.852 83.2786V82.7548C252.852 82.1263 253.272 81.7073 253.902 81.7073H254.426C255.056 81.7073 255.475 81.2882 255.475 80.6597C255.475 80.0312 255.056 79.6122 254.426 79.6122H253.902C253.272 79.6122 252.852 79.1932 252.852 78.5647V78.0409C252.852 77.4124 252.433 76.9934 251.803 76.9934C251.174 76.9934 250.754 77.4124 250.754 78.0409V78.5647C250.754 79.1932 250.334 79.6122 249.705 79.6122H249.18C248.551 79.6122 248.131 80.0312 248.131 80.6597C248.131 81.2882 248.551 81.7073 249.18 81.7073Z" fill="#202225"/>
<path d="M52.9836 48.1863H53.5082C54.1377 48.1863 54.5574 48.6053 54.5574 49.2338V49.7576C54.5574 50.3861 54.977 50.8051 55.6065 50.8051C56.236 50.8051 56.6557 50.3861 56.6557 49.7576V49.2338C56.6557 48.6053 57.0754 48.1863 57.7049 48.1863H58.2295C58.859 48.1863 59.2787 47.7673 59.2787 47.1388C59.2787 46.5103 58.859 46.0913 58.2295 46.0913H57.7049C57.0754 46.0913 56.6557 45.6722 56.6557 45.0437V44.52C56.6557 43.8915 56.236 43.4724 55.6065 43.4724C54.977 43.4724 54.5574 43.8915 54.5574 44.52V45.0437C54.5574 45.6722 54.1377 46.0913 53.5082 46.0913H52.9836C52.3541 46.0913 51.9344 46.5103 51.9344 47.1388C51.9344 47.7673 52.3541 48.1863 52.9836 48.1863Z" fill="#202225"/>
<path d="M57.6 142.464H55.5016C54.8721 142.464 54.4525 142.883 54.4525 143.511C54.4525 144.14 54.8721 144.559 55.5016 144.559H57.6C58.2295 144.559 58.6492 144.14 58.6492 143.511C58.6492 142.883 58.1246 142.464 57.6 142.464Z" fill="#202225"/>
<path d="M303.213 186.46H290.623C289.679 186.46 289.154 185.413 289.784 184.679C291.462 182.794 292.511 180.489 292.721 177.87C293.141 171.795 288.734 166.557 282.964 165.614C285.377 157.758 284.852 148.959 280.761 141.102C280.656 140.893 280.446 140.683 280.131 140.578C279.816 140.474 279.607 140.474 279.292 140.683L277.088 141.835L276.144 134.607C276.354 134.607 276.669 134.712 276.879 134.712C277.298 134.712 277.613 134.712 278.033 134.607C279.816 134.188 281.18 132.931 281.81 131.465L288 136.807C288.21 137.017 288.42 137.017 288.734 137.017C289.049 137.017 289.364 136.912 289.574 136.703C289.993 136.284 289.888 135.655 289.469 135.236L282.229 128.951C282.229 128.741 282.229 128.637 282.125 128.427L281.18 124.027L285.692 119.314C286.111 118.895 286.111 118.266 285.692 117.847C285.272 117.428 284.643 117.428 284.223 117.847L280.656 121.513L280.341 120.256C279.711 117.533 277.298 115.647 274.57 115.961C271.423 116.38 269.429 119.314 270.059 122.247L270.479 124.342L264.918 124.027C264.288 124.027 263.869 124.446 263.764 124.97C263.764 125.599 264.184 126.018 264.708 126.122L270.898 126.542L271.843 130.627C272.157 131.989 272.997 133.036 274.046 133.769L275.305 142.883L263.869 148.854C263.344 149.168 263.134 149.692 263.449 150.216C266.702 156.501 264.288 164.253 257.993 167.5C256.42 168.338 254.741 168.757 253.062 168.862C248.131 169.176 243.2 166.662 240.787 162.053C240.472 161.529 239.843 161.319 239.423 161.634L223.79 169.7C223.266 170.014 223.056 170.642 223.37 171.062C226.203 176.509 230.505 181.013 235.646 184.051C236.8 184.784 236.38 186.46 235.016 186.46H225.574H224.525H186.754C185.6 186.46 184.656 185.517 184.656 184.365V158.177C184.656 157.548 185.075 157.129 185.705 157.129H250.754C251.384 157.129 251.803 157.548 251.803 158.177V163.834C251.803 164.462 252.223 164.881 252.852 164.881C253.482 164.881 253.902 164.462 253.902 163.834V156.082V107.895C253.902 107.267 253.482 106.848 252.852 106.848H235.016C234.387 106.848 233.967 106.429 233.967 105.8V93.2301C233.967 92.6016 233.548 92.1825 232.918 92.1825H224.525C223.895 92.1825 223.475 91.7635 223.475 91.135V78.5647C223.475 77.9362 223.056 77.5171 222.426 77.5171H214.033C213.403 77.5171 212.984 77.0981 212.984 76.4696V63.8993C212.984 63.2707 212.564 62.8517 211.934 62.8517H203.541C202.911 62.8517 202.492 62.4327 202.492 61.8042V49.2339C202.492 48.6053 202.072 48.1863 201.443 48.1863H194.938C193.888 48.1863 193.049 47.4531 192.839 46.4055C192 40.6441 188.852 35.616 184.341 32.2639C183.502 31.6354 183.921 30.3783 184.97 30.3783H210.885C211.515 30.3783 211.934 29.9593 211.934 29.3308C211.934 28.7023 211.515 28.2833 210.885 28.2833H207.318C209.207 26.5025 210.256 23.8836 209.731 21.0553C209.207 17.9127 206.688 15.3987 203.541 14.7701C198.505 13.8274 194.098 17.5985 194.098 22.5219C194.098 24.8264 195.043 26.8167 196.616 28.2833H165.77H161.574H159.056C158.321 28.2833 157.587 27.8643 157.272 27.2357L152.026 18.1222C151.607 17.389 150.557 17.389 150.243 18.1222L144.997 27.2357C144.577 27.8643 143.948 28.2833 143.213 28.2833H141.639C141.01 28.2833 140.59 28.7023 140.59 29.3308C140.59 29.9593 141.01 30.3783 141.639 30.3783H144.997H152.551C146.361 33.4162 141.849 39.2823 140.905 46.4055C140.8 47.4531 139.856 48.1863 138.807 48.1863H128.525L96.8393 27.6548C96.5246 27.4452 96.1049 27.4452 95.7901 27.6548C95.4754 27.8643 95.2656 28.1785 95.2656 28.5975V61.909C81.3115 62.8517 70.2951 74.3746 70.2951 88.4114L65.8885 91.135C65.6787 88.6209 63.6852 86.4211 60.9574 86.3164C58.1246 86.1069 55.7115 88.4114 55.3967 91.135L54.4524 99.5153C54.3475 100.877 54.6623 102.134 55.3967 103.077L50.9901 113.133H46.1639C45.5344 113.133 45.1147 113.552 45.1147 114.181V126.751C45.1147 127.38 44.6951 127.799 44.0656 127.799H35.6721C35.0426 127.799 34.6229 128.218 34.6229 128.846V141.416C34.6229 142.045 34.2033 142.464 33.5737 142.464H25.1803C24.5508 142.464 24.1311 142.883 24.1311 143.511V156.082C24.1311 156.71 23.7115 157.129 23.0819 157.129H14.6885C14.059 157.129 13.6393 157.548 13.6393 158.177V170.747C13.6393 171.376 13.2197 171.795 12.5901 171.795H4.1967C3.56719 171.795 3.14752 172.214 3.14752 172.842V187.508C3.14752 188.136 3.56719 188.555 4.1967 188.555H43.0164H49.836H76.5901C77.2196 188.555 77.6393 188.136 77.6393 187.508C77.6393 186.879 77.2196 186.46 76.5901 186.46H49.836H45.1147C44.4852 186.46 44.0656 186.041 44.0656 185.413V174.937C44.0656 174.309 44.4852 173.89 45.1147 173.89H53.5082C54.1377 173.89 54.5574 173.471 54.5574 172.842V160.272C54.5574 159.643 54.977 159.224 55.6065 159.224H64C64.6295 159.224 65.0492 158.805 65.0492 158.177V145.607C65.0492 144.978 65.4688 144.559 66.0983 144.559H74.4918C75.1213 144.559 75.541 144.14 75.541 143.511V130.941C75.541 130.313 75.9606 129.894 76.5901 129.894H84.9836C85.6131 129.894 86.0328 129.475 86.0328 128.846V116.276C86.0328 115.647 86.4524 115.228 87.0819 115.228H127.37C127.37 115.333 127.37 115.228 127.37 115.333C125.692 116.904 124.643 119.104 124.643 121.513C124.643 123.818 125.587 125.913 127.161 127.484C129.469 132.617 134.61 136.179 140.59 136.179C141.115 136.179 141.534 136.179 141.954 136.074C142.059 136.074 142.164 136.179 142.374 136.179H149.089C150.138 136.179 151.082 137.017 151.082 138.169V144.978C151.082 150.53 146.57 155.034 141.01 155.034H110.164C110.059 155.034 110.059 155.034 109.954 155.034C109.639 155.034 109.429 155.034 109.115 155.034C102.19 155.034 96.5246 160.691 96.5246 167.605V186.46H90.2295C89.6 186.46 89.1803 186.879 89.1803 187.508C89.1803 188.136 89.6 188.555 90.2295 188.555H97.5737H114.361H120.656H152.131H183.607H225.574H251.698C251.803 188.555 251.908 188.555 251.908 188.555C252.013 188.555 252.118 188.555 252.223 188.555H252.852H303.213C303.843 188.555 304.262 188.136 304.262 187.508C304.262 186.879 303.843 186.46 303.213 186.46ZM196.197 22.5219C196.197 19.3793 198.82 16.7604 201.967 16.7604C205.115 16.7604 207.738 19.3793 207.738 22.5219C207.738 25.6644 205.115 28.2833 201.967 28.2833C198.82 28.2833 196.197 25.6644 196.197 22.5219ZM151.082 184.365C151.082 185.517 150.138 186.46 148.984 186.46H123.803C122.649 186.46 121.705 185.517 121.705 184.365V167.605C121.705 163.205 119.502 159.434 116.039 157.129H146.151C148.879 157.129 151.082 159.329 151.082 162.053V184.365V184.365ZM250.754 108.943C251.384 108.943 251.803 109.362 251.803 109.991V153.987C251.803 154.615 251.384 155.034 250.754 155.034H185.705C185.075 155.034 184.656 154.615 184.656 153.987V135.131V109.991C184.656 109.362 185.075 108.943 185.705 108.943H194.098H218.754H224.525H232.918H250.754ZM184.656 106.848V87.0497L215.187 106.848H193.049H184.656ZM231.869 95.3251V105.8C231.869 106.429 231.449 106.848 230.82 106.848H225.574H219.069L202.597 96.1632C201.757 95.6394 202.072 94.2776 203.121 94.2776H222.426H230.82C231.449 94.2776 231.869 94.6966 231.869 95.3251ZM221.377 80.6597V91.135C221.377 91.7635 220.957 92.1825 220.328 92.1825H196.721C196.511 92.1825 196.302 92.0778 196.197 91.973L185.18 84.8498C184.866 84.6403 184.656 84.3261 184.656 84.0118V80.6597C184.656 80.0312 185.075 79.6122 185.705 79.6122H211.934H220.328C220.957 79.6122 221.377 80.0312 221.377 80.6597ZM172.066 30.3783C181.298 30.3783 188.957 36.9778 190.636 45.6723C190.846 46.9293 189.902 48.1863 188.538 48.1863H181.508H162.623H155.593C154.229 48.1863 153.285 46.9293 153.495 45.6723C155.174 36.9778 162.833 30.3783 172.066 30.3783ZM148.564 28.2833C147.725 28.2833 147.305 27.4452 147.62 26.712L150.138 22.3124C150.557 21.5791 151.607 21.5791 151.921 22.3124L154.439 26.712C154.859 27.4452 154.334 28.2833 153.495 28.2833H148.564ZM143.108 45.358C144.892 36.7683 152.551 30.3783 161.574 30.3783H162.938C156.852 33.3114 152.341 39.1776 151.292 46.0913C151.082 47.2435 150.138 48.1863 148.984 48.1863H145.416C143.948 48.1863 142.793 46.8245 143.108 45.358ZM141.639 50.2814H150.033C150.662 50.2814 151.082 50.7004 151.082 51.3289V60.8614C151.082 61.6994 150.138 62.2232 149.508 61.6995L134.715 52.1669C133.875 51.6432 134.19 50.2814 135.239 50.2814H141.639ZM65.6787 93.7538L70.4 90.8208C70.5049 91.6588 70.6098 92.4968 70.7147 93.3348L65.5737 94.3824L65.6787 93.7538ZM57.0754 104.648C57.7049 104.962 58.3344 105.277 59.0688 105.277C59.2787 105.277 59.4885 105.277 59.6983 105.277C60.9574 105.277 62.1115 104.858 63.0557 104.124L64.9442 107.057L63.1606 113.133H53.2983L57.0754 104.648ZM40.918 186.46H6.29506C5.66555 186.46 5.24588 186.041 5.24588 185.413V173.89H14.6885H40.918C41.5475 173.89 41.9672 174.309 41.9672 174.937V185.413C41.9672 186.041 41.5475 186.46 40.918 186.46ZM52.459 170.747C52.459 171.376 52.0393 171.795 51.4098 171.795H43.0164H16.7869C16.1574 171.795 15.7377 171.376 15.7377 170.747V160.272C15.7377 159.643 16.1574 159.224 16.7869 159.224H25.1803H51.4098C52.0393 159.224 52.459 159.643 52.459 160.272V170.747ZM73.4426 141.416C73.4426 142.045 73.0229 142.464 72.3934 142.464H65.0492H64H60.9574C60.3278 142.464 59.9082 142.883 59.9082 143.511C59.9082 144.14 60.3278 144.559 60.9574 144.559H61.9016C62.5311 144.559 62.9508 144.978 62.9508 145.607V156.082C62.9508 156.71 62.5311 157.129 61.9016 157.129H53.5082H27.2787C26.6492 157.129 26.2295 156.71 26.2295 156.082V145.607C26.2295 144.978 26.6492 144.559 27.2787 144.559H47.0033C47.6328 144.559 48.0524 144.14 48.0524 143.511C48.0524 142.883 47.6328 142.464 47.0033 142.464H37.7705C37.141 142.464 36.7213 142.045 36.7213 141.416V130.941C36.7213 130.313 37.141 129.894 37.7705 129.894H46.1639H72.3934C73.0229 129.894 73.4426 130.313 73.4426 130.941V141.416ZM83.9344 126.751C83.9344 127.38 83.5147 127.799 82.8852 127.799H74.4918H48.2623C47.6328 127.799 47.2131 127.38 47.2131 126.751V116.276C47.2131 115.647 47.6328 115.228 48.2623 115.228H51.7246H64H82.8852C83.5147 115.228 83.9344 115.647 83.9344 116.276V126.751ZM65.3639 113.133L67.0426 107.162C67.1475 106.848 67.0426 106.534 66.9377 106.324L64.4197 102.448C64.7344 101.925 64.8393 101.296 64.9442 100.772L65.4688 96.5822L71.2393 95.4299C72.7082 101.087 76.0655 105.905 80.4721 109.467C82.0459 110.724 81.1016 113.238 79.1082 113.238H65.3639V113.133ZM72.3934 88.5162C72.3934 74.8983 83.4098 63.8993 97.0492 63.8993C110.688 63.8993 121.705 74.8983 121.705 88.5162C121.705 102.134 110.688 113.133 97.0492 113.133C83.4098 113.133 72.3934 102.134 72.3934 88.5162ZM114.99 113.133C112.997 113.133 112.157 110.619 113.731 109.362C119.921 104.439 123.803 96.8964 123.803 88.5162C123.803 73.8508 111.948 61.909 97.259 61.8042V32.3686C97.259 31.5306 98.2033 31.0068 98.8328 31.5306L151.082 65.3658V102.029C151.082 104.753 148.879 106.848 146.256 106.848H140.59C135.659 106.848 131.252 109.362 128.525 113.133H114.99ZM126.741 121.513C126.741 118.057 129.574 115.228 133.036 115.228C136.498 115.228 139.331 118.057 139.331 121.513C139.331 124.97 136.498 127.799 133.036 127.799C129.574 127.799 126.741 124.97 126.741 121.513ZM138.597 115.228H139.646C143.108 115.228 145.941 118.057 145.941 121.513C145.941 124.97 143.108 127.799 139.646 127.799H138.597C140.38 126.227 141.429 124.027 141.429 121.513C141.429 118.999 140.38 116.799 138.597 115.228ZM140.59 134.084C136.708 134.084 133.246 132.303 130.938 129.579C131.567 129.789 132.302 129.894 133.036 129.894C133.246 129.894 133.561 129.894 133.77 129.894C133.875 129.894 133.875 129.894 133.98 129.894H139.646C144.262 129.894 148.039 126.122 148.039 121.513C148.039 116.904 144.262 113.133 139.646 113.133H133.036C132.302 113.133 131.567 113.238 130.938 113.447C133.246 110.724 136.708 108.943 140.59 108.943C147.515 108.943 153.18 114.6 153.18 121.513C153.18 128.427 147.515 134.084 140.59 134.084ZM182.557 184.365C182.557 185.517 181.613 186.46 180.459 186.46H155.279C154.125 186.46 153.18 185.517 153.18 184.365V156.082V138.169C153.18 137.122 154.02 136.179 155.174 136.179H178.361C180.669 136.179 182.662 138.064 182.662 140.474V184.365H182.557ZM169.967 134.084H153.705C151.921 134.084 150.977 132.093 152.131 130.627C154.125 128.113 155.384 124.97 155.384 121.513C155.384 118.057 154.125 114.914 152.131 112.4C150.977 111.038 152.026 108.943 153.705 108.943H169.967C176.892 108.943 182.557 114.6 182.557 121.513C182.557 128.427 176.892 134.084 169.967 134.084ZM182.557 93.2301V104.753C182.557 105.905 181.613 106.848 180.459 106.848H155.279C154.125 106.848 153.18 105.905 153.18 104.753V64.7373V52.3764C153.18 51.2242 154.125 50.2814 155.279 50.2814H159.475C160.629 50.2814 161.574 51.2242 161.574 52.3764V63.8993C161.574 64.5278 161.993 64.9468 162.623 64.9468H169.967C171.121 64.9468 172.066 65.8896 172.066 67.0419V78.5647C172.066 79.1932 172.485 79.6122 173.115 79.6122H180.459C181.613 79.6122 182.557 80.555 182.557 81.7073V93.2301ZM174.164 76.4696V63.8993C174.164 63.2707 173.744 62.8517 173.115 62.8517H164.721C164.092 62.8517 163.672 62.4327 163.672 61.8042V51.3289C163.672 50.7004 164.092 50.2814 164.721 50.2814H181.508H192H199.344C199.974 50.2814 200.393 50.7004 200.393 51.3289V61.8042C200.393 62.4327 199.974 62.8517 199.344 62.8517H177.941C177.311 62.8517 176.892 63.2707 176.892 63.8993C176.892 64.5278 177.311 64.9468 177.941 64.9468H209.836C210.466 64.9468 210.885 65.3658 210.885 65.9943V76.4696C210.885 77.0981 210.466 77.5171 209.836 77.5171H183.607H175.213C174.584 77.5171 174.164 77.0981 174.164 76.4696ZM263.344 186.46C264.498 186.041 265.652 185.517 266.807 184.889C268.275 184.156 269.639 183.318 270.898 182.375C271.738 184.051 272.997 185.413 274.466 186.46H263.344ZM290.623 177.032C290.623 182.27 286.426 186.46 281.18 186.46C277.403 186.46 274.151 184.26 272.682 181.118C277.088 177.451 280.341 172.842 282.229 167.709C286.951 168.233 290.623 172.214 290.623 177.032ZM242.675 184.994C235.226 182.689 229.141 177.661 225.364 170.957L239.213 163.834C243.2 170.433 251.803 172.842 258.833 169.281C265.862 165.614 268.695 157.234 265.652 150.216L279.502 143.092C286.531 157.758 280.656 175.566 266.072 183.108C261.77 185.308 257.049 186.46 252.223 186.565H251.488C248.446 186.355 245.508 185.936 242.675 184.994Z" fill="#202225"/>
</svg>
