<svg viewBox="0 0 931.5 613.2" xmlns="http://www.w3.org/2000/svg"><path d="m704.8 247c0-57.5-47.1-104.6-104.6-104.6h-139.6v470.8h470.9v-139.5c0-68-54.1-122.1-122.1-122.1-57.5 0-104.6-47.1-104.6-104.6zm-341.7 165.5v200.7h-363.1v-107.6c0-52.5 41.7-94.1 94.1-94.1 44.4 0 269 1 269 1z" fill="#4f545c" opacity=".3"/><path d="m150.3 209.8h579.5v403.4h-579.5z" fill="#98989e"/><path d="m150.3 283.1h579.5v128.4h-579.5z" fill="#040505"/><path d="m220 466.5h238.4v36.7h-238.4z" fill="#fff"/><path d="m553.8 465.1h121v91.7h-121z" fill="#36393f"/><path d="m220 521.5h238.4v36.7h-238.4z" fill="#fff"/><path d="m440 311.2c71.9 0 130.3-58.3 130.3-130.3s-58.4-130.3-130.3-130.3-130.3 58.3-130.3 130.3 58.3 130.3 130.3 130.3z" fill="#f6f6f7"/><g fill="#72767d"><path d="m860.5 246.1c-2.7 0-4.4-1.8-4.4-4.4v-4.5c0-2.6 1.8-4.4 4.4-4.4s4.4 1.8 4.4 4.4v4.4c0 2.7-1.8 4.5-4.4 4.5zm0 35.3c-2.7 0-4.4-1.8-4.4-4.4v-4.4c0-2.6 1.8-4.4 4.4-4.4s4.4 1.8 4.4 4.4v4.4c0 2.6-1.8 4.4-4.4 4.4zm11-24.3c0-2.6 1.8-4.4 4.4-4.4h4.4c2.7 0 4.4 1.8 4.4 4.4s-1.8 4.4-4.4 4.4h-4.4c-2.2 0-4.4-1.8-4.4-4.4zm-35.3 0c0-2.6 1.8-4.4 4.4-4.4h4.4c2.7 0 4.4 1.8 4.4 4.4s-1.8 4.4-4.4 4.4h-4.4c-2.2 0-4.4-1.8-4.4-4.4z"/><path d="m53.6 198.4c-2.7 0-4.4-1.8-4.4-4.4v-4.4c0-2.6 1.8-4.4 4.4-4.4s4.4 1.8 4.4 4.4v4.4c0 2.6-1.8 4.4-4.4 4.4zm0 35.3c-2.7 0-4.4-1.8-4.4-4.4v-4.4c0-2.6 1.8-4.4 4.4-4.4s4.4 1.8 4.4 4.4v4.4c0 2.6-1.8 4.4-4.4 4.4zm11-24.3c0-2.6 1.8-4.4 4.4-4.4h4.4c2.7 0 4.4 1.8 4.4 4.4s-1.8 4.4-4.4 4.4h-4.4c-2.2 0-4.4-1.7-4.4-4.4zm-35.3 0c0-2.6 1.8-4.4 4.4-4.4h4.4c2.7 0 4.4 1.8 4.4 4.4s-1.8 4.4-4.4 4.4h-4.4c-2.2 0-4.4-1.7-4.4-4.4z"/><path d="m654 15.5-4.4-13.3c-1.3-3.1-5.3-2.7-6.2 0l-4.4 13.3c0 .9-.9 1.8-2.2 2.2l-13.3 4.4c-3.1 1.3-2.7 5.3 0 6.2l13.3 4.4c.9 0 1.8.9 2.2 2.2l4.4 13.3c1.3 3.1 5.3 2.7 6.2 0l4.4-13.3c0-.9.9-1.8 2.2-2.2l13.3-4.4c3.1-1.3 2.7-5.3 0-6.2l-13.3-4.4c-1.3-.4-1.7-.9-2.2-2.2z"/></g><path d="m369.6 162h144.7v44h-144.7z" fill="#ff73fa" transform="matrix(.68430533 -.72919559 .72919559 .68430533 5.301444 380.345344)"/><path d="m419.9 111.7h44v144.7h-44z" fill="#ff73fa" transform="matrix(.72919559 -.68430533 .68430533 .72919559 -6.280907 352.228551)"/></svg>