<svg xmlns="http://www.w3.org/2000/svg" width="160" height="160" viewBox="0 0 160 160" xmlns:xlink="http://www.w3.org/1999/xlink">
  <defs>
    <path id="a" d="M3.98862407,0.107116587 C3.76152348,0.793792649 3.54905848,1.52202517 3.353,2.295 C-8.30618427,48.2727909 23.135792,88.5376789 54.3575327,97.6906807 L61.8074636,97.6906807 L61.8074636,72.9139621 C34.6904294,46.4900802 31.2616246,12.41303 30.9568456,0.107116587 L3.98862407,0.107116587 L3.98862407,0.107116587 Z"/>
    <path id="c" d="M30.5974926,60.8628843 C13.536926,37.0149198 11.1724968,11.0224757 10.9508036,0.8476 L0.852651624,0.8476 L0.852651624,60.8628842 L30.5974926,60.8628842 L30.5974926,60.8628843 Z"/>
    <path id="e" d="M10.3015786,11.4639314 C7.40316536,7.78472752 4.87784371,4.03122088 2.67795779,0.271600003 L0.621739915,0.2716 L0.621739915,20.5862234 L10.3015786,20.5862234 L10.3015786,11.4639314 L10.3015786,11.4639314 Z"/>
    <path id="g" d="M1.08153813,0.359 C0.831346758,1.10339277 0.56368668,1.88876158 0.2836,2.69508884 L0.2836,17.561 L7.21781673,17.561 C7.81208582,15.6954679 8.61810417,13.8952238 9.626,12.197 L11.3416,9.30484755 L11.3416,0.359 L1.08153813,0.359 L1.08153813,0.359 Z"/>
    <path id="i" d="M0.265096797,11.5586002 C2.24334786,6.13749348 3.94,0.618 3.94,0.618 C3.94,0.618 4.599,0.447 5.693,0.447 C8.172,0.447 12.888,1.325 17.23,7.064 L14.5638419,11.5586 L0.265096872,11.5586 L0.265096797,11.5586002 Z"/>
    <path id="k" d="M0.2464,21.4284273 C1.27494699,21.358859 2.23367432,21.2807772 2.926,21.253 L7.642,21.543 C7.642,21.543 8.657,19.724 9.241,16.616 C9.853,13.352 9.868,9.092 9.868,9.092 L5.592,7.1 C3.995,5.753 2.028,2.11 0.428,0.808 C0.367369146,0.758690303 0.306835865,0.709342376 0.2464,0.659956443 L0.2464,21.4284273 L0.2464,21.4284273 Z"/>
    <path id="m" d="M0.930216686,0.6081 C0.739706116,0.722319708 0.549036952,0.840820348 0.3585,0.964125073 L0.3585,10.8481 L11.0075,10.8481 L11.0075,0.6081 L0.930216686,0.6081 L0.930216686,0.6081 Z"/>
  </defs>
  <g fill="none" fill-rule="evenodd">
    <g transform="translate(10 7)">
      <g transform="translate(0 .573)">
        <path stroke="#1E2126" stroke-width="2" d="M96.341,11.1256 C104.768,14.5426 112.663,19.6676 119.498,26.5026 C146.834,53.8386 146.834,98.1606 119.497,125.4976 C92.161,152.8336 47.839,152.8336 20.503,125.4976 C-6.834,98.1606 -6.834,53.8396 20.503,26.5026 C37.704,9.3016 61.631,2.9236 83.819,7.3696" stroke-linecap="round" stroke-linejoin="round" stroke-dasharray="4 5"/>
        <path stroke="#1E2126" stroke-width="2" d="M98.2844,104.2843 C82.6634,119.9053 57.3364,119.9053 41.7154,104.2843 C26.0954,88.6633 26.0954,63.3373 41.7164,47.7163 C57.3364,32.0953 82.6634,32.0953 98.2844,47.7153 C113.9054,63.3363 113.9054,88.6633 98.2844,104.2843 Z" stroke-linecap="round" stroke-linejoin="round" stroke-dasharray="4 5"/>
        <path fill="#FFD773" d="M72.9406,0.6178 C72.9406,0.6178 79.9746,-1.2062 86.2306,7.0648 L79.6256,18.1968 C77.2526,22.1978 75.9976,26.7628 75.9936,31.4148 C75.9936,31.4148 72.7416,81.7188 113.4276,114.8078 C115.0276,116.1098 116.9946,119.7528 118.5916,121.0998 L122.8676,123.0928 C122.8676,123.0928 122.8526,127.3518 122.2406,130.6168 C121.6576,133.7238 120.6426,135.5428 120.6426,135.5428 L115.9266,135.2538 C114.2806,135.3188 111.1316,135.6688 109.1156,135.5138 C75.1986,132.9138 35.4716,89.0908 48.3536,38.2948 C52.2716,22.8478 62.7406,25.2688 65.6296,20.1328 C68.5196,14.9968 72.9406,0.6178 72.9406,0.6178"/>
      </g>
      <g transform="translate(45 .573)">
        <g transform="translate(0 36)">
          <mask id="b" fill="white">
            <use xlink:href="#a"/>
          </mask>
          <path fill="#FFC043" d="M-3.7952,24.8307 C-3.7952,24.8307 4.3958,-4.2483 14.2258,0.6667 C24.0558,5.5817 17.1928,19.8667 26.0028,40.8037 C36.0548,64.6917 51.9058,78.0737 57.6398,82.5797 C63.3728,87.0847 66.2398,103.8767 45.3518,95.2757 C24.4648,86.6747 -1.7472,53.9097 -3.7952,24.8307" mask="url(#b)"/>
        </g>
        <g transform="translate(20 35)">
          <mask id="d" fill="white">
            <use xlink:href="#c"/>
          </mask>
          <path fill="#FFFFFF" d="M13.5754,19.6876 C13.5754,19.6876 11.0174,0.8476 5.2834,0.8476 C-0.4496,0.8476 -3.6266,36.4796 15.2134,59.0056 C22.8884,68.1806 17.5714,40.1656 35.1814,44.2616 C52.7934,48.3566 29.5484,65.1486 13.5754,19.6876" mask="url(#d)"/>
        </g>
        <g transform="translate(43 88)">
          <mask id="f" fill="white">
            <use xlink:href="#e"/>
          </mask>
          <path fill="#FFFFFF" d="M4.8098,0.2716 C4.8098,0.2716 -0.1052,10.5106 0.7138,15.0156 C1.5338,19.5216 6.0388,23.6166 8.9058,17.4736 C11.7728,11.3296 10.1338,0.6816 4.8098,0.2716" mask="url(#f)"/>
        </g>
        <g transform="translate(25 6)">
          <mask id="h" fill="white">
            <use xlink:href="#g"/>
          </mask>
          <path fill="#FFD773" d="M4.3796,0.359 L0.2836,17.561 L11.3416,2.817 C11.3416,2.817 8.0656,4.045 4.3796,0.359" mask="url(#h)"/>
        </g>
        <g transform="translate(24)">
          <mask id="j" fill="white">
            <use xlink:href="#i"/>
          </mask>
          <path fill="#FFC043" d="M-1.3914,0.9356 C-1.3914,0.9356 5.7576,10.3876 22.2686,11.5586 L27.1536,0.1046 L-0.0444,-10.5724 L-1.3914,0.9356 Z" mask="url(#j)"/>
        </g>
        <g transform="translate(68 114)">
          <mask id="l" fill="white">
            <use xlink:href="#k"/>
          </mask>
          <polygon fill="#FFC043" points="6.368 4.109 .246 24.837 11.366 26.218 22.467 .424" mask="url(#l)"/>
        </g>
        <g transform="translate(11 25)">
          <mask id="n" fill="white">
            <use xlink:href="#m"/>
          </mask>
          <path fill="#FFC043" d="M11.0075,5.7281 C11.0075,8.5551 8.6235,10.8481 5.6835,10.8481 C2.7425,10.8481 0.3585,8.5551 0.3585,5.7281 C0.3585,2.9001 2.7425,0.6081 5.6835,0.6081 C8.6235,0.6081 11.0075,2.9001 11.0075,5.7281" mask="url(#n)"/>
        </g>
      </g>
      <g transform="translate(12 .573)">
        <path stroke="#1E2126" stroke-width="2" d="M67.1623 59.5411C67.2583 59.9311 67.3553 60.3231 67.4563 60.7171 71.7313 77.4271 81.0903 98.2681 101.4273 114.8081 103.0283 116.1101 104.9953 119.7531 106.5923 121.1001L108.6663 122.0671C110.0233 122.6991 110.8663 124.0901 110.7863 125.5861 110.7063 127.0651 110.5493 128.9681 110.2403 130.6161 110.0863 131.4351 109.9033 132.1651 109.7163 132.7941 109.2323 134.4221 107.6713 135.4831 105.9763 135.3791L103.9263 135.2531C102.2813 135.3191 99.1313 135.6681 97.1163 135.5141 63.1993 132.9141 23.4713 89.0911 36.3533 38.2951 40.2713 22.8481 50.7403 25.2691 53.6303 20.1331 55.8993 16.0991 59.1133 6.3641 60.3883 2.3711 60.7693 1.1781 61.8993.4031 63.1503.4571 65.4423.5541 69.1983 1.4331 72.8803 5.4411 73.7093 6.3441 73.8633 7.6831 73.2373 8.7381L67.6253 18.1971C65.2523 22.1971 63.9973 26.7631 63.9933 31.4151 63.9933 31.4151 63.5143 38.8241 65.2243 49.8251M69.0549 9.1993C69.9019 9.3823 70.8209 9.5373 71.8179 9.6543M60.3649 4.7682C60.3649 4.7682 61.2029 5.9182 63.3619 7.1292M103.9265 134.6075C103.9265 134.6075 101.7255 131.0405 106.5925 121.1005" stroke-linecap="round" stroke-linejoin="round"/>
        <path fill="#7187DD" d="M49.8635,70.2091 C51.5655,76.7781 49.8455,82.9061 46.0245,83.8961 C42.2015,84.8861 37.7235,80.3641 36.0225,73.7941 C34.3205,67.2261 36.0395,61.0981 39.8615,60.1071 C43.6835,59.1181 48.1615,63.6401 49.8635,70.2091"/>
        <path stroke="#1E2126" stroke-width="2" d="M49.8635 70.2091C51.5655 76.7781 49.8455 82.9061 46.0245 83.8961 42.2015 84.8861 37.7235 80.3641 36.0225 73.7941 34.3205 67.2261 36.0395 61.0981 39.8615 60.1071 43.6835 59.1181 48.1615 63.6401 49.8635 70.2091zM74.613 102.5616C76.955 105.2676 79.602 108.0356 82.588 110.8036M57.7941 73.6031C57.7941 73.6031 60.7321 85.1711 71.8181 99.1851M65.9787 8.3199C66.1897 8.3969 66.4067 8.4719 66.6317 8.5459" stroke-linecap="round" stroke-linejoin="round"/>
        <path stroke="#282B32" stroke-width="2" d="M17.28 108.9898L17.28 114.0098M19.7902 111.5001L14.7702 111.5001M92.7976 24.4503L91.6146 25.6333M86.8811 30.3663L85.6981 31.5503M92.7976 31.5499L91.6146 30.3659M86.8811 25.6334L85.6981 24.4504M5.8161 96.8307C5.8161 98.2167 4.6921 99.3407 3.3061 99.3407 1.9201 99.3407.7961 98.2167.7961 96.8307.7961 95.4447 1.9201 94.3207 3.3061 94.3207 4.6921 94.3207 5.8161 95.4447 5.8161 96.8307z" stroke-linecap="round" stroke-linejoin="round"/>
      </g>
    </g>
    <rect width="160" height="160"/>
  </g>
</svg>
