<svg width="740" height="443" viewBox="0 0 740 443" fill="none" xmlns="http://www.w3.org/2000/svg">
<g clip-path="url(#clip0)">
<g opacity="0.2">
<path opacity="0.613" fill-rule="evenodd" clip-rule="evenodd" d="M-40.8035 339.578C-50.7919 355.048 -58.7478 377.289 -51.4013 395.17C-45.4156 409.741 -31.8871 415.025 -19.7288 418.968C-7.40986 422.964 4.90974 426.959 17.23 430.954C28.9904 434.767 42.1567 438.344 52.5972 430.219C61.1566 423.558 65.667 410.515 68.1211 397.767C71.1708 381.926 71.8417 365.286 70.0822 349.104C68.449 334.091 64.4852 318.952 56.3739 308.252C48.1708 297.432 36.3257 292.202 24.7537 292.385C-0.78772 292.786 -24.8169 314.818 -40.8035 339.578Z" fill="url(#paint0_linear)"/>
<path opacity="0.613" fill-rule="evenodd" clip-rule="evenodd" d="M457.192 2.76448C460.269 15.2591 468.281 24.5013 476.675 31.524C499.617 50.7216 528.094 58.6004 547.527 83.6773C557 95.9021 563.626 111.415 569.615 127.028C573.658 137.572 577.539 148.401 583.37 157.361C594.24 174.065 611.77 182.707 628.251 179.488C644.731 176.269 659.625 161.293 666.384 141.147C670.847 127.846 671.848 112.979 671.916 98.4282C672.088 61.7881 666.658 25.119 656.048 -8.72603C655.828 -9.42787 655.602 -10.1288 655.376 -10.8289H455.873C455.716 -6.22973 456.11 -1.6288 457.192 2.76448Z" fill="url(#paint1_linear)"/>
<path opacity="0.613" fill-rule="evenodd" clip-rule="evenodd" d="M440.355 287.816C431.085 281.542 422.215 273.126 417.1 261.137C410.793 246.357 411.035 228.472 410.475 211.521C409.915 194.57 407.837 176.153 398.488 164.524C390.659 154.785 379.158 151.887 368.426 152.726C348.085 154.317 329.217 167.604 313.061 184.012C300.414 196.856 282.43 215.676 267.212 237.384C248.793 263.658 234.426 294.16 238.474 323.42C241.443 344.87 254.447 362.074 269.382 371.341C284.319 380.609 301.088 383.127 317.544 384.724C369.009 389.715 421.399 386.793 471.064 368.28C487.355 362.208 512.821 341.468 497.481 314.673C486.844 296.093 455.791 298.264 440.355 287.816Z" fill="url(#paint2_linear)"/>
<path opacity="0.613" fill-rule="evenodd" clip-rule="evenodd" d="M229.284 -22.5544C218.606 -36.9362 202.569 -41.3743 187.463 -44.2518C106.906 -59.5971 18.8932 -40.4347 -46.3044 27.5611C-68.2475 50.4467 -88.0294 79.7367 -94.4718 115.64C-98.9712 140.715 -97.2744 174.032 -83.432 194.548C-82.751 195.558 -82.052 196.51 -81.3366 197.409C-62.4831 221.107 -31.8749 207.899 -8.40942 212.725C6.88824 215.871 22.2367 219.094 37.7164 219.493C47.8092 219.752 58.0724 218.766 67.5619 214.224C75.0949 210.617 81.9493 204.856 88.2121 198.263C120.497 164.27 136.74 109.68 167.448 73.2353C185.059 52.3337 205.313 43.135 225.651 29.1649C240.402 19.0319 241.817 -5.67299 229.284 -22.5544Z" fill="url(#paint3_linear)"/>
<path opacity="0.613" fill-rule="evenodd" clip-rule="evenodd" d="M356.998 44.0183C374.984 48.0922 398.651 47.9449 412.98 34.941C424.656 24.3454 425.005 9.85431 424.56 -2.89372C424.11 -15.8103 423.659 -28.7272 423.208 -41.6448C422.778 -53.9754 421.642 -67.5429 410.42 -74.5528C401.219 -80.2998 387.392 -80.0676 374.546 -78.0085C358.584 -75.4497 342.683 -70.3877 328.044 -63.2034C314.464 -56.5375 301.561 -47.6432 294.258 -36.3788C286.873 -24.9868 285.999 -12.0927 290.128 -1.30532C299.242 22.5045 328.211 37.498 356.998 44.0183Z" fill="url(#paint4_linear)"/>
<path opacity="0.2" d="M379.45 -30.3025C390.847 29.7519 371.899 33.6708 332.892 74.5716C321.707 86.2996 318.441 101.849 307.293 113.984C292.251 130.358 247.411 154.073 257.555 183.314C258.464 185.936 261.521 187.488 264.138 188.425C271.206 190.957 278.651 192.428 286.079 193.532C325.375 199.37 330.289 171.156 347.522 145.363C350.366 141.108 358.323 139.056 362.885 140.987C401.455 157.313 383.575 178.416 402.383 197.181C422.496 217.249 445.04 200.221 455.778 181.857C458.742 176.788 458.742 170.706 455.778 163.61C450.905 151.941 425.448 131.299 441.152 116.172C462.155 95.9395 486.565 90.6985 514.296 87.7078C526.652 86.3753 552.621 81.011 541.36 67.2729C515.49 35.7129 462.283 89.0295 458.704 32.9712C457.076 7.47989 482.62 -2.39713 478.456 -28.3336C475.559 -46.3789 446.957 -38.459 438.955 -29.791C419.878 -9.12736 428.848 13.7493 425.057 38.8125C422.701 54.3898 422.574 70.9261 409.698 93.5491C396.821 116.172 379.45 105.128 387.752 76.0329C395.76 47.9673 404.915 20.3631 411.891 -7.89867C412.998 -12.3856 413.449 -17.4099 411.891 -21.7617C409.639 -28.0536 404.576 -32.9546 400.918 -38.551M-31.6312 135.18C-12.5226 91.6963 16.938 108.798 66.6423 111.792C81.699 112.699 88.7303 121.258 106.872 113.984C125.074 106.686 141.54 95.1308 156.61 82.601C181.007 62.3159 178.792 4.48492 200.498 -21.0349C203.957 -25.1027 208.027 -28.6465 212.203 -31.9791C219.02 -37.4204 226.077 -42.5882 233.416 -47.3072C237.081 -49.6643 240.99 -51.7386 245.117 -53.1447C251.05 -55.166 257.174 -56.8338 263.405 -57.5247C268.257 -58.0626 273.205 -57.5237 278.032 -56.794C281.312 -56.2982 284.861 -55.8219 287.544 -53.8753C295.781 -47.8986 303.118 -40.7266 310.218 -33.4404C311.738 -31.8806 312.826 -29.7553 313.143 -27.6029C314.066 -21.3398 314.372 -14.9366 313.876 -8.62547C310.388 35.7481 276.618 63.9599 241.46 84.7891C220.459 97.2305 194.104 104.829 179.288 125.659C159.839 153.003 193.899 204.14 178.556 227.103C163.424 249.749 127.882 251.645 104.675 248.999C98.548 248.3 93.2142 244.126 87.1234 243.162C62.3905 239.244 37.4454 236.716 12.5106 234.402C-22.1058 231.188 -47.262 259.441 -66.4844 218.347C-73.2255 203.935 -35.7325 191.428 -31.3768 190.613C-4.65888 185.614 49.0968 200.682 67.3708 194.262C75.3538 191.458 78.2093 181.259 84.1942 175.289C87.0228 172.467 90.0298 169.562 93.7063 167.99C106.983 162.313 138.683 162.044 132.472 138.795C131.342 134.567 125.176 133.888 115.394 135.876C98.3572 139.339 81.5239 143.856 64.9234 149.013C55.6288 151.9 46.6735 155.838 37.8594 159.961C21.4523 167.635 -33.8242 197.062 -33.8242 159.23L-31.6312 135.18Z" stroke="white"/>
<path opacity="0.2" d="M-30.5598 281.839C-0.728519 279.164 30.1035 265.715 58.934 273.814C70.113 276.954 46.2833 293.865 36.9922 300.817C30.9095 305.368 -5.4201 312.988 -12.7497 313.953C-17.9111 314.633 -24.3029 317.419 -28.3668 314.172C-34.2581 309.465 -38.8204 283.266 -25.1832 283.266M566.64 -7.89866C559.813 5.48235 549.809 17.6778 546.158 32.2444C545.151 36.2627 550.71 39.4914 554.202 41.7312C561.179 46.2061 571.466 45.679 576.88 51.9486C585.919 62.4164 590.975 75.9997 595.164 89.1691C596.263 92.6237 588.886 101.833 586.388 103.767C572.185 114.757 505.435 155.912 539.576 184.045C547.33 190.435 558.02 190.76 567.368 191.344C586.114 192.514 615.818 185.923 619.303 162.879C620.687 153.726 619.879 144.361 620.767 135.146C621.102 131.679 621.356 128.022 622.96 124.928C632.004 107.487 659.782 114.067 660.997 92.8185C661.868 77.5845 647.82 47.5813 653.682 41.0005C670.375 22.2607 727.143 21.5025 731.216 -13.7361C731.691 -17.8441 733.029 -22.4231 731.216 -26.1416C709.853 -69.9585 645.905 -53.308 622.228 -22.4923C604 1.23159 629.675 26.3771 633.933 49.0299C637.465 67.8168 615.349 59.8942 609.062 50.4873C600.014 36.9481 599.232 27.2806 601.019 10.3482C602.926 -7.71831 618.356 -36.8997 592.717 -45.1191L566.64 -7.89866ZM63.3586 -38.328C48.4858 -26.954 44.966 -28.1473 38.7073 -16.4356C24.5867 9.98779 39.0883 55.0947 66.5036 66.0346C93.2548 76.7096 115.03 46.564 134.53 32.4636C143.482 25.9899 150.688 17.3587 159.401 10.5674C178.716 -4.48879 203.416 -12.509 200.363 -41.9774C199.631 -49.0369 191.443 -52.6303 185.443 -51.4642C165.118 -47.5135 144.675 -43.8904 124.732 -38.328C111.626 -34.6725 109.528 -11.4147 110.834 -1.83818C115.817 34.7074 80.4339 45.8817 81.7969 6.1912C82.7253 -20.8449 109.088 -44.2307 121.294 -55.8442L63.3586 -38.328ZM18.4151 343.144C18.4151 343.144 46.7468 313.646 76.9329 318.075C91.121 320.157 144.12 341.327 163.975 324.644C230.242 268.963 191.63 285.734 234.195 253.852C256.206 237.365 270.269 242.937 274.428 248.745C278.086 253.852 279.539 272.59 274.428 281.437C266.04 295.959 263.49 295.048 251.75 304.939C248.453 307.717 235.738 313.952 234.195 320.994C229.642 341.767 242.147 359.904 240.049 380.841C237.236 408.913 197.865 409.539 177.141 401.276C142.362 387.41 124.624 376.774 117.895 377.923C91.1376 382.489 37.6426 407.068 12.5645 387.41C-15.1872 365.655 18.4151 343.144 18.4151 343.144ZM326.359 270.349C315.07 276.376 303.379 297.986 311.733 310.488C337.729 349.394 357.939 332.734 387.802 351.358C401.366 359.817 399.174 370.076 407.555 385.66C413.323 396.385 455.355 392.497 465.34 389.309C481.389 384.187 471.541 372.718 479.967 352.819C482.89 345.916 488.178 340.206 493.133 334.573C508.509 317.09 555.064 279.266 526.051 255.752C507.855 241.004 448.993 259.432 430.229 272.537C420.719 279.179 417.848 289.49 406.823 287.135C391.59 283.88 402.507 260.457 390.731 252.781C369.55 238.975 343.266 261.323 326.359 270.349ZM539.932 212.022C534.678 202.623 445.199 201.987 518.293 231.414C534.513 237.943 545.187 221.42 539.932 212.022ZM209.104 163.541C206.423 176.847 202.879 190.01 201.06 203.461C199.162 217.495 225.037 229.621 231.816 221.708C244.77 206.588 237.161 190.379 229.62 176.458C227.312 172.198 215.665 151.824 210.568 160.403L209.104 163.541Z" stroke="white"/>
</g>
</g>
<defs>
<linearGradient id="paint0_linear" x1="39.5905" y1="330.548" x2="-32.1654" y2="381.627" gradientUnits="userSpaceOnUse">
<stop stop-color="#36393F"/>
<stop offset="1"/>
</linearGradient>
<linearGradient id="paint1_linear" x1="563.88" y1="-10.8289" x2="662.408" y2="285.321" gradientUnits="userSpaceOnUse">
<stop stop-color="#36393F"/>
<stop offset="1"/>
</linearGradient>
<linearGradient id="paint2_linear" x1="370" y1="152.589" x2="530.748" y2="509.085" gradientUnits="userSpaceOnUse">
<stop stop-color="#36393F"/>
<stop offset="1"/>
</linearGradient>
<linearGradient id="paint3_linear" x1="75.7177" y1="5.4664" x2="245.327" y2="256.384" gradientUnits="userSpaceOnUse">
<stop stop-color="#36393F"/>
<stop offset="1"/>
</linearGradient>
<linearGradient id="paint4_linear" x1="295.722" y1="14.0416" x2="430.09" y2="-34.9746" gradientUnits="userSpaceOnUse">
<stop stop-color="#36393F"/>
<stop offset="1"/>
</linearGradient>
<clipPath id="clip0">
<rect width="740" height="443" fill="white"/>
</clipPath>
</defs>
</svg>
