<?xml version="1.0" encoding="UTF-8" standalone="no"?>
<svg width="28px" height="40px" viewBox="0 0 28 40" version="1.1" xmlns="http://www.w3.org/2000/svg" xmlns:xlink="http://www.w3.org/1999/xlink" xmlns:sketch="http://www.bohemiancoding.com/sketch/ns">
    <!-- Generator: Sketch 3.4.4 (17249) - http://www.bohemiancoding.com/sketch -->
    <title>icon-file-small-acrobat</title>
    <desc>Created with Sketch.</desc>
    <defs>
        <filter x="-50%" y="-50%" width="200%" height="200%" filterUnits="objectBoundingBox" id="filter-1">
            <feOffset dx="0" dy="2" in="SourceAlpha" result="shadowOffsetOuter1"></feOffset>
            <feGaussianBlur stdDeviation="0" in="shadowOffsetOuter1" result="shadowBlurOuter1"></feGaussianBlur>
            <feColorMatrix values="0 0 0 0 0   0 0 0 0 0   0 0 0 0 0  0 0 0 0.07 0" in="shadowBlurOuter1" type="matrix" result="shadowMatrixOuter1"></feColorMatrix>
            <feMerge>
                <feMergeNode in="shadowMatrixOuter1"></feMergeNode>
                <feMergeNode in="SourceGraphic"></feMergeNode>
            </feMerge>
        </filter>
    </defs>
    <g id="Drag-&amp;-Drop" stroke="none" stroke-width="1" fill="none" fill-rule="evenodd" sketch:type="MSPage">
        <g id="Desktop-HD---Drag-&amp;-Drop,-Small-Icons---Dark" sketch:type="MSArtboardGroup" transform="translate(-504.000000, -524.000000)">
            <g id="Group" sketch:type="MSLayerGroup" transform="translate(404.000000, 526.000000)">
                <g id="icon-file-small-acrobat" transform="translate(102.000000, 0.000000)" sketch:type="MSShapeGroup">
                    <g id="Group">
                        <path d="M0,3.00741988 C0,1.34646775 1.34252415,0 2.99998588,0 L15.1166483,0 C17.0807354,0 24,6.91885725 24,8.87457593 L24,33.0035574 C24,34.6584469 22.6582294,36 21.0089096,36 L2.99109042,36 C1.33915679,36 0,34.6544607 0,32.9925801 L0,3.00741988 Z" id="Rectangle-113" stroke="#7289DA" stroke-width="2" fill="#F4F6FC"></path>
                        <path d="M17,1.09677336 C17,0.542040316 17.3147964,0.407097791 17.7133118,0.80556379 L23.1952031,6.28677654 C23.5891543,6.68067898 23.4552279,7 22.9039575,7 L18.0045574,7 C17.4497557,7 17,6.54676916 17,5.99556698 L17,1.09677336 Z" id="Path" stroke="#7289DA" stroke-width="2" fill="#F4F6FC" filter="url(#filter-1)"></path>
                        <path d="M2,9 L12,9 L12,10 L2,10 L2,9 Z M2,7 L12,7 L12,8 L2,8 L2,7 Z M20.7079147,31.9989413 L3.88315634,31.9981473 L2.01200764,31.9989413 C2.01200764,29.4318798 1.61129203,23.5294118 5.4395906,23.5294118 C9.26788918,23.5294118 7.66315715,25.8455634 11.6715596,28.0288493 C11.7223502,28.0563753 11.7746987,28.0831073 11.8258009,28.1106332 L11.9900133,28.0272613 L12.2558067,28.1633031 C15.9931186,26.3227685 14.489656,23.5294118 18.5267256,23.5294118 C22.6597674,23.5294118 21.9543085,31.9989413 21.9543085,31.9989413 L20.7079147,31.9989413 Z M5.26600631,24.588103 C2.55476067,24.588103 3.03242746,30.9402501 3.03242746,30.9402501 L5.60646754,30.9402501 L6.01808421,30.9383974 C7.25740139,30.3809965 8.86908807,29.6597631 10.5768186,28.9054456 L10.3920698,28.8120161 L10.5324661,28.7424072 C7.35918877,27.1234037 7.93289945,24.588103 5.26600631,24.588103 Z M18.7718377,24.588103 C16.2677035,24.588103 16.1425126,27.3639913 13.5542855,28.7408192 L13.7227874,28.8260438 L13.553021,28.9096804 C15.1940967,29.7026401 16.8563537,30.4050817 18.1958331,30.9402501 L15.2943126,30.9402501 C15.2943126,30.9402501 14.5150309,30.5842652 12.3115445,29.5213392 L12.1332423,29.6092106 L11.9622113,29.5218686 C10.0878253,30.4281083 8.98292074,30.9349567 8.97343658,30.9394561 L18.2015236,30.9426322 C18.1996268,30.9418382 18.1977299,30.9410441 18.1958331,30.9402501 L20.9848082,30.9402501 C20.9848082,30.9402501 21.3262379,24.588103 18.7718377,24.588103 Z M2,13 L22,13 L22,14 L2,14 L2,13 Z M2,11 L12,11 L12,12 L2,12 L2,11 Z M2,15 L22,15 L22,16 L2,16 L2,15 Z M2,17 L22,17 L22,18 L2,18 L2,17 Z M2,19 L22,19 L22,20 L2,20 L2,19 Z" id="Rectangle-128" opacity="0.600000024" fill="#697EC4"></path>
                    </g>
                </g>
            </g>
        </g>
    </g>
</svg>