<svg height="160" viewBox="0 0 160 160" width="160" xmlns="http://www.w3.org/2000/svg" xmlns:xlink="http://www.w3.org/1999/xlink"><mask id="a" fill="#fff"><path d="m3.98862407.10711659c-.22710059.68667606-.43956559 1.41490858-.63562407 2.18788341-11.65918427 45.9777909 19.782792 86.2426789 51.0045327 95.3956807h7.4499309v-24.7767186c-27.1170342-26.4238819-30.545839-60.5009321-30.850618-72.80684551z" fill="#fff" fill-rule="evenodd"/></mask><mask id="b" fill="#fff"><path d="m30.5974926 60.8628843c-17.0605666-23.8479645-19.4249958-49.8404086-19.646689-60.0152843h-10.09815198v60.0152842h29.74484098z" fill="#fff" fill-rule="evenodd"/></mask><mask id="c" fill="#fff"><path d="m10.3015786 11.4639314c-2.89841324-3.67920388-5.42373489-7.43271052-7.62362081-11.1923314h-2.05621787v20.3146234h9.67983868z" fill="#fff" fill-rule="evenodd"/></mask><mask id="d" fill="#fff"><path d="m1.08153813.359c-.25019137.74439277-.51785145 1.52976158-.79793813 2.33608884v14.86591116h6.93421673c.59426909-1.8655321 1.40028744-3.6657762 2.40818327-5.364l1.7156-2.89215245v-8.94584755z" fill="#fff" fill-rule="evenodd"/></mask><mask id="e" fill="#fff"><path d="m.2650968 11.5586002c1.97825106-5.42110672 3.6749032-10.9406002 3.6749032-10.9406002s.659-.171 1.753-.171c2.479 0 7.195.878 11.537 6.617l-2.6661581 4.4946h-14.29874503z" fill="#fff" fill-rule="evenodd"/></mask><mask id="f" fill="#fff"><path d="m.2464 21.4284273c1.02854699-.0695683 1.98727432-.1476501 2.6796-.1754273l4.716.29s1.015-1.819 1.599-4.927c.612-3.264.627-7.524.627-7.524l-4.276-1.992c-1.597-1.347-3.564-4.99-5.164-6.292-.06063085-.0493097-.12116413-.09865762-.1816-.14804356z" fill="#fff" fill-rule="evenodd"/></mask><mask id="g" fill="#fff"><path d="m.93021669.6081c-.19051057.11421971-.38117974.23272035-.57171669.35602507v9.88397493h10.649v-10.24z" fill="#fff" fill-rule="evenodd"/></mask><g fill="none" fill-rule="evenodd"><g transform="translate(10 7.573)"><path d="m96.341 11.1256c8.427 3.417 16.322 8.542 23.157 15.377 27.336 27.336 27.336 71.658-.001 98.995-27.336 27.336-71.658 27.336-98.994 0-27.337-27.337-27.337-71.658 0-98.995 17.201-17.201 41.128-23.579 63.316-19.133" stroke="#1e2126" stroke-dasharray="4 5" stroke-linecap="round" stroke-linejoin="round" stroke-width="2"/><path d="m98.2844 104.2843c-15.621 15.621-40.948 15.621-56.569 0-15.62-15.621-15.62-40.947.001-56.568 15.62-15.621 40.947-15.621 56.568-.001 15.621 15.621 15.621 40.948 0 56.569z" stroke="#1e2126" stroke-dasharray="4 5" stroke-linecap="round" stroke-linejoin="round" stroke-width="2"/><path d="m72.9406.6178s7.034-1.824 13.29 6.447l-6.605 11.132c-2.373 4.001-3.628 8.566-3.632 13.218 0 0-3.252 50.304 37.434 83.393 1.6 1.302 3.567 4.945 5.164 6.292l4.276 1.993s-.015 4.259-.627 7.524c-.583 3.107-1.598 4.926-1.598 4.926l-4.716-.289c-1.646.065-4.795.415-6.811.26-33.917-2.6-73.644-46.423-60.762-97.219 3.918-15.447 14.387-13.026 17.276-18.162 2.89-5.136 7.311-19.515 7.311-19.515" fill="#ffd773"/></g><path d="m-3.7952 24.8307s8.191-29.079 18.021-24.164 2.967 19.2 11.777 40.137c10.052 23.888 25.903 37.27 31.637 41.776 5.733 4.505 8.6 21.297-12.288 12.696-20.887-8.601-47.099-41.366-49.147-70.445" fill="#ffc043" mask="url(#a)" transform="translate(55 43.573)"/><path d="m13.5754 19.6876s-2.558-18.84-8.292-18.84c-5.733 0-8.91 35.632 9.93 58.158 7.675 9.175 2.358-18.84 19.968-14.744 17.612 4.095-5.633 20.887-21.606-24.574" fill="#fff" mask="url(#b)" transform="translate(75 42.573)"/><path d="m4.8098.2716s-4.915 10.239-4.096 14.744c.82 4.506 5.325 8.601 8.192 2.458 2.867-6.144 1.228-16.792-4.096-17.202" fill="#fff" mask="url(#c)" transform="translate(98 95.573)"/><path d="m4.3796.359-4.096 17.202 11.058-14.744s-3.276 1.228-6.962-2.458" fill="#ffd773" mask="url(#d)" transform="translate(80 13.573)"/><g fill="#ffc043"><path d="m-1.3914.9356s7.149 9.452 23.66 10.623l4.885-11.454-27.198-10.677z" mask="url(#e)" transform="translate(79 7.573)"/><path d="m6.368 4.109-6.122 20.728 11.12 1.381 11.101-25.794z" mask="url(#f)" transform="translate(123 121.573)"/><path d="m11.0075 5.7281c0 2.827-2.384 5.12-5.324 5.12-2.941 0-5.325-2.293-5.325-5.12 0-2.828 2.384-5.12 5.325-5.12 2.94 0 5.324 2.292 5.324 5.12" mask="url(#g)" transform="translate(66 32.573)"/></g><g transform="translate(22 7.573)"><path d="m67.1623 59.5411c.096.39.193.782.294 1.176 4.275 16.71 13.634 37.551 33.971 54.091 1.601 1.302 3.568 4.945 5.165 6.292l2.074.967c1.357.632 2.2 2.023 2.12 3.519-.08 1.479-.237 3.382-.546 5.03-.154.819-.337 1.549-.524 2.178-.484 1.628-2.045 2.689-3.74 2.585l-2.05-.126c-1.645.066-4.795.415-6.81.261-33.917-2.6-73.645-46.423-60.763-97.219 3.918-15.447 14.387-13.026 17.277-18.162 2.269-4.034 5.483-13.769 6.758-17.762.381-1.193 1.511-1.968 2.762-1.914 2.292.097 6.048.976 9.73 4.984.829.903.983 2.242.357 3.297l-5.612 9.459c-2.373 4-3.628 8.566-3.632 13.218 0 0-.479 7.409 1.231 18.41m3.8306-40.6258c.847.183 1.766.338 2.763.455m-11.453-4.8861s.838 1.15 2.997 2.361m40.5646 127.4783s-2.201-3.567 2.666-13.507" stroke="#1e2126" stroke-linecap="round" stroke-linejoin="round" stroke-width="2"/><path d="m49.8635 70.2091c1.702 6.569-.018 12.697-3.839 13.687-3.823.99-8.301-3.532-10.002-10.102-1.702-6.568.017-12.696 3.839-13.687 3.822-.989 8.3 3.533 10.002 10.102" fill="#7187dd"/><g stroke-linecap="round" stroke-linejoin="round" stroke-width="2"><path d="m49.8635 70.2091c1.702 6.569-.018 12.697-3.839 13.687-3.823.99-8.301-3.532-10.002-10.102-1.702-6.568.017-12.696 3.839-13.687 3.822-.989 8.3 3.533 10.002 10.102zm24.7495 32.3525c2.342 2.706 4.989 5.474 7.975 8.242m-24.7939-37.2005s2.938 11.568 14.024 25.582m-5.8394-90.8652c.211.077.428.152.653.226" stroke="#1e2126"/><path d="m17.28 108.9898v5.02m2.5102-2.5097h-5.02m78.0274-87.0498-1.183 1.183m-4.7335 4.733-1.183 1.184m7.0995-.0004-1.183-1.184m-4.7335-4.7325-1.183-1.183m-79.882 72.3803c0 1.386-1.124 2.51-2.51 2.51s-2.51-1.124-2.51-2.51 1.124-2.51 2.51-2.51 2.51 1.124 2.51 2.51z" stroke="#282b32"/></g></g><path d="m0 0h160v160h-160z"/></g></svg>