<svg width="48" height="31" viewBox="0 0 48 31" fill="none" xmlns="http://www.w3.org/2000/svg">
<path d="M23.5758 0.808594L16.4456 7.99382V18.1053L23.5758 25.2615L30.706 18.0763V7.99382L23.5758 0.808594ZM27.1409 16.5987L23.5758 20.1913L20.0107 16.5987V9.47144L23.5758 5.87881L27.1409 9.47144V16.5987Z" fill="#FA6EF6"/>
<path d="M23.5757 0.808594V5.87881L27.1408 9.47144L30.7059 7.99383L23.5757 0.808594Z" fill="#FFADFB"/>
<path d="M20.0107 16.5977L16.4456 18.1042L23.5758 25.2605V20.1903L20.0107 16.5977Z" fill="#E655D4"/>
<path d="M20.0105 9.47154V16.5988L23.5756 20.1914L27.1407 16.5988V9.47154L23.5756 5.87891L20.0105 9.47154Z" fill="#FFCFF9"/>
<path d="M27.1407 9.47142V9.50039L20.0393 16.6276H20.0105V14.6865L26.1632 8.48633L27.1407 9.47142Z" fill="white"/>
<path d="M27.1406 12.168V14.1381L22.3679 18.9765L21.3904 17.9625L27.1406 12.168Z" fill="white"/>
<path d="M17.7109 5.56053L16.5609 6.11101C16.4171 6.19793 16.2158 6.11101 16.1296 5.96615C16.1009 5.87923 16.1009 5.76333 16.1296 5.67642L16.6759 4.51751C16.7334 4.43059 16.7334 4.3147 16.6759 4.22778L16.1296 3.06888C16.0434 2.89504 16.1296 2.72121 16.2734 2.63429C16.3596 2.60532 16.4459 2.60532 16.5321 2.63429L17.6822 3.18477C17.7684 3.24271 17.8835 3.24271 17.9697 3.18477L19.1197 2.63429C19.2922 2.54737 19.4647 2.63429 19.551 2.77915C19.5798 2.86607 19.5798 2.95299 19.551 3.03991L19.0047 4.19881C18.9472 4.28573 18.9472 4.40162 19.0047 4.48854L19.551 5.64744C19.6372 5.79231 19.551 5.99512 19.4072 6.08203C19.321 6.11101 19.206 6.11101 19.1197 6.08203L17.9697 5.53156C17.9122 5.50258 17.7972 5.50258 17.7109 5.56053Z" fill="#FFCFF9"/>
<path d="M36.1402 11.7027C37.0315 11.326 38.0378 11.7606 38.3828 12.6298L41.2867 19.7281L38.0953 21.0609L35.1915 13.9915C34.8177 13.0934 35.2489 12.0793 36.1402 11.7027Z" fill="#AEC7FF"/>
<path d="M38.6988 5.18512C39.5901 4.80848 40.5964 5.24307 40.9414 6.11225L44.1328 13.8479L40.9414 15.1807L37.7788 7.47397C37.4051 6.57581 37.8363 5.56177 38.6988 5.18512Z" fill="#AEC7FF"/>
<path d="M36.5428 8.13826C37.4341 7.76159 38.4404 8.19618 38.7854 9.06538L41.718 16.1637L38.5266 17.4964L35.6228 10.4271C35.2491 9.52893 35.6803 8.51488 36.5428 8.13826Z" fill="#AEC7FF"/>
<path d="M40.1367 16.8293L38.5267 17.4957L36.1403 11.7012C35.9965 11.7591 35.8528 11.846 35.7378 11.9329L38.0954 17.6695C38.1817 17.8433 38.3254 17.9592 38.5267 17.9592C38.5841 17.9592 38.6416 17.9592 38.6992 17.9303L40.3093 17.2639L40.1367 16.8293Z" fill="#7196FF"/>
<path d="M41.2861 15.0635L40.9698 15.2083L38.0947 8.22595C37.9222 8.11004 37.721 8.05206 37.491 7.99414L40.5385 15.3822C40.6248 15.556 40.7685 15.6719 40.9698 15.6719C41.0273 15.6719 41.0848 15.6719 41.1423 15.6429L41.4586 15.4981L41.2861 15.0635Z" fill="#7196FF"/>
<path d="M42.8099 24.4785H32.1433V27.7814H42.8099V24.4785Z" fill="#EBF0F7"/>
<path d="M43.9027 13.3845C44.564 14.0509 44.564 15.1519 43.9027 15.8472L38.9575 20.8305L36.5137 18.3679L41.4589 13.3845C42.1488 12.7182 43.2414 12.7182 43.9027 13.3845Z" fill="#EBF0F7"/>
<path d="M45.3981 5.9082C46.3469 5.9082 47.1232 6.69047 47.1232 7.64655V14.0206H43.6731V7.64655C43.6731 6.69047 44.4206 5.9082 45.3981 5.9082Z" fill="#EBF0F7"/>
<path d="M32.1433 27.7532V24.4793C32.1433 21.3792 34.0121 18.5688 36.8584 17.3809L40.1936 15.9902L42.8099 22.3932V27.7532H32.1433Z" fill="#EBF0F7"/>
<path d="M46.0594 18.9453L44.1618 22.1903C43.2992 23.6969 42.8392 25.3773 42.8392 27.1157V27.753H32.1726L43.673 16.106V11.2676H47.1231V14.9761C47.0944 16.3668 46.7494 17.7285 46.0594 18.9453Z" fill="#EBF0F7"/>
<path d="M44.2193 13.0933C43.3568 12.2241 42.0054 12.2241 41.1429 13.0933L41.4592 13.412C42.1492 12.7167 43.2417 12.7456 43.903 13.412C44.593 14.1074 44.5643 15.2083 43.903 15.8747L40.9992 18.8009C40.9704 18.8299 40.9417 18.8879 40.9417 18.9458V21.4664C40.9417 21.5823 41.0279 21.6982 41.1429 21.6982C41.2579 21.6982 41.3729 21.6113 41.3729 21.4954C41.3729 21.4954 41.3729 21.4954 41.3729 21.4664V19.0617L44.1905 16.2224C45.0818 15.3242 45.0818 13.9335 44.2193 13.0933Z" fill="#AEC7FF"/>
<path d="M32.1433 25.7246V26.5938L41.0849 27.7527H42.8099V27.1153L32.1433 25.7246Z" fill="#AEC7FF"/>
<path d="M32.1434 26.2167L42.8388 27.6074C43.7014 27.7233 44.3338 28.5345 44.2189 29.4037C44.1038 30.2729 43.2988 30.9103 42.4363 30.7944L31.741 29.4037C30.8784 29.2878 30.2459 28.4766 30.3609 27.6074C30.4471 26.7382 31.2522 26.1008 32.1434 26.2167Z" fill="#EBF0F7"/>
<path d="M9.02755 21.0613L5.83618 19.7286L8.74004 12.6593C9.11376 11.7611 10.1201 11.3555 10.9826 11.7321C11.8739 12.1088 12.2764 13.1229 11.9027 13.992L9.02755 21.0613Z" fill="#AEC7FF"/>
<path d="M6.21011 15.2082L3.0188 13.8755L6.21011 6.13974C6.58389 5.24159 7.5902 4.83597 8.45268 5.21262C9.34397 5.58926 9.7465 6.60328 9.37272 7.47248L6.21011 15.2082Z" fill="#AEC7FF"/>
<path d="M8.62594 17.4965L5.43457 16.1638L8.33843 9.0655C8.71221 8.16735 9.71847 7.76177 10.581 8.13839C11.4723 8.51506 11.8748 9.52906 11.501 10.3983L8.62594 17.4965Z" fill="#AEC7FF"/>
<path d="M11.4142 11.9329C11.2992 11.846 11.1554 11.7591 11.0116 11.7012L8.62535 17.4957L7.01526 16.8293L6.84277 17.2639L8.45281 17.9303C8.51032 17.9592 8.56784 17.9592 8.62535 17.9592C8.82659 17.9592 8.97037 17.8433 9.05659 17.6695L11.4142 11.9329Z" fill="#7196FF"/>
<path d="M9.05654 8.25552L6.18143 15.2379L5.86517 15.0931L5.69263 15.5276L6.00889 15.6725C6.06641 15.7015 6.12392 15.7015 6.18143 15.7015C6.38267 15.7015 6.5264 15.5856 6.61267 15.4118L9.63156 8.05273C9.43026 8.05273 9.22902 8.13962 9.05654 8.25552Z" fill="#7196FF"/>
<path d="M15.0076 24.4492H4.34106V27.7521H15.0076V24.4492Z" fill="#EBF0F7"/>
<path d="M10.6089 18.3662L8.16507 20.8289L3.24864 15.8746C2.58737 15.2082 2.58737 14.1072 3.24864 13.4119C3.90993 12.7455 5.00246 12.7455 5.69245 13.4119L10.6089 18.3662Z" fill="#EBF0F7"/>
<path d="M3.50816 14.0206H0.0292969V7.64655C0.0292969 6.69047 0.805569 5.9082 1.75435 5.9082C2.70314 5.9082 3.4794 6.69047 3.4794 7.64655L3.50816 14.0206Z" fill="#EBF0F7"/>
<path d="M15.0076 27.7532V24.4793C15.0076 21.3792 13.1389 18.5688 10.2925 17.3809L6.95741 15.9902L4.34106 22.3932V27.7532H15.0076Z" fill="#EBF0F7"/>
<path d="M1.09254 18.9453L2.9901 22.1903C3.85263 23.6969 4.31268 25.3773 4.31268 27.1157V27.753H14.9793L3.47884 16.1061V11.2676H0V14.9761C0.028751 16.3668 0.402514 17.7285 1.09254 18.9453Z" fill="#EBF0F7"/>
<path d="M2.93217 13.0933C3.76596 12.2241 5.14599 12.2241 6.00853 13.0933L5.69226 13.412C5.00221 12.7167 3.90968 12.7456 3.24845 13.412C2.5584 14.1074 2.58715 15.2083 3.24845 15.8747L6.15225 18.8009C6.18101 18.8299 6.20977 18.8879 6.20977 18.9458V21.4664C6.20977 21.5823 6.12349 21.6982 6.00853 21.6982C5.8935 21.6982 5.77853 21.6113 5.77853 21.4954C5.77853 21.4954 5.77853 21.4954 5.77853 21.4664V19.0617L2.96092 16.2224C2.06964 15.3242 2.06964 13.9335 2.93217 13.0933Z" fill="#AEC7FF"/>
<path d="M15.0076 25.7246V26.5938L6.06613 27.7527H4.34106V27.1153L15.0076 25.7246Z" fill="#AEC7FF"/>
<path d="M15.4392 29.4037L4.74384 30.7944C3.88131 30.9103 3.07629 30.2729 2.96127 29.4037C2.84627 28.5345 3.47877 27.7233 4.3413 27.6074L15.0367 26.2167C15.8992 26.1008 16.7042 26.7382 16.8193 27.6074C16.9342 28.5056 16.3017 29.3168 15.4392 29.4037Z" fill="#EBF0F7"/>
</svg>
