<svg fill="none" height="160" width="282" xmlns="http://www.w3.org/2000/svg" xmlns:xlink="http://www.w3.org/1999/xlink"><clipPath id="a"><path d="m0 0h281.7v160h-281.7z"/></clipPath><g clip-path="url(#a)"><path d="m269.48 143.71h-2.78a5.451 5.451 0 0 1 -5.43-5.43v-55.13a14.51 14.51 0 0 0 -14.47-14.47h-88.87v-33.62h-73.39a29.64 29.64 0 0 0 -29.63 29.64v26.91a7 7 0 0 1 -7 7h-12.71a14.508 14.508 0 0 0 -14.48 14.47v10a12.916 12.916 0 0 1 -3.8 9.15l-13.92 13.93a10.062 10.062 0 0 0 -3 7.14v6.7h281.7v-4.08a12.229 12.229 0 0 0 -12.22-12.21zm-198.12-32.71 1.34 2.81a.768.768 0 0 1 -1 1l-2.8-1.36a.777.777 0 0 0 -.67 0l-2.81 1.36a.77.77 0 0 1 -1-1l1.3-2.81a.793.793 0 0 0 0-.67l-1.35-2.81a.773.773 0 0 1 .56-1.039.77.77 0 0 1 .44.039l2.81 1.36a.874.874 0 0 0 .67 0l2.8-1.36a.77.77 0 0 1 1 1l-1.34 2.81a.717.717 0 0 0 .05.67z" fill="#aec7ff" opacity=".2"/><path d="m60.21 140.17a.502.502 0 0 1 -.34-.13.493.493 0 0 1 -.109-.54.482.482 0 0 1 .109-.16 5.66 5.66 0 0 1 7.48-.68.51.51 0 0 1 .1.7.501.501 0 0 1 -.7.1 4.652 4.652 0 0 0 -6.14.55.497.497 0 0 1 -.4.16zm-2.55 7.59a.467.467 0 0 1 -.27-.09.501.501 0 0 1 -.14-.69c3.21-4.83 10.11-6.38 15.38-3.44a.5.5 0 0 1 .19.68.488.488 0 0 1 -.495.253.488.488 0 0 1 -.185-.063 10.809 10.809 0 0 0 -14.06 3.12.491.491 0 0 1 -.18.171.492.492 0 0 1 -.24.059zm-.35 7.04a.498.498 0 0 1 -.41-.79c4.82-6.86 14.83-8.85 22.32-4.44a.499.499 0 0 1 .17.68.495.495 0 0 1 -.68.18c-7-4.15-16.47-2.29-21 4.16a.536.536 0 0 1 -.4.21z" fill="#fff"/><path d="m229.13 11.53a1.31 1.31 0 1 0 -2.62 0v1.32a1.31 1.31 0 0 0 2.62 0zm0 10.5a1.31 1.31 0 1 0 -2.62 0v1.32a1.31 1.31 0 0 0 2.62 0zm4.59-3.29a1.31 1.31 0 1 0 0-2.62h-1.32a1.31 1.31 0 0 0 0 2.62zm-10.49.01a1.31 1.31 0 1 0 0-2.62h-1.32a1.31 1.31 0 0 0 0 2.62z" fill="#7192ff"/><path d="m269.58 109.54-1.28 2.67a.727.727 0 0 0 .112.887.734.734 0 0 0 .888.113l2.7-1.31a.76.76 0 0 1 .63 0l2.68 1.29a.734.734 0 0 0 .888-.113.73.73 0 0 0 .112-.887l-1.31-2.65a.705.705 0 0 1 0-.63l1.28-2.68a.721.721 0 0 0 -1-1l-2.68 1.28a.704.704 0 0 1 -.63 0l-2.67-1.28a.727.727 0 0 0 -1.096.536.732.732 0 0 0 .096.464l1.28 2.68a.7.7 0 0 1 0 .63z" fill="#aac3ff"/><path d="m30.2 57.98h-.01c-.64 0-1.16.52-1.16 1.16v1.17c0 .64.52 1.16 1.16 1.16h.01c.64 0 1.16-.52 1.16-1.16v-1.17c0-.64-.52-1.16-1.16-1.16zm0 9.31h-.01c-.64 0-1.16.52-1.16 1.16v1.17c0 .64.52 1.16 1.16 1.16h.01c.64 0 1.16-.52 1.16-1.16v-1.17c0-.64-.52-1.16-1.16-1.16zm6.39-2.91v-.01c0-.64-.52-1.16-1.16-1.16h-1.17c-.64 0-1.16.52-1.16 1.16v.01c0 .64.52 1.16 1.16 1.16h1.17c.64 0 1.16-.52 1.16-1.16zm-9.31 0v-.01c0-.64-.52-1.16-1.16-1.16h-1.17c-.64 0-1.16.52-1.16 1.16v.01c0 .64.52 1.16 1.16 1.16h1.17c.64 0 1.16-.52 1.16-1.16z" fill="#d0e0ff"/><path d="m220 129.12c0 15.46 15 15.5 15.09 30.88h-144.21c.12-15.39 15.12-15.43 15.12-30.88s-15.09-15.5-15.09-31 15.09-15.49 15.09-30.99c0-8.76-12.76-20-9.61-27.61 3.28-7.88 20.36-6.76 26.31-12.7s4.82-23 12.72-26.32c7.6-3.15 18.84 9.62 27.59 9.62s19.99-12.77 27.57-9.62c7.9 3.28 6.77 20.37 12.71 26.32s23.05 4.82 26.33 12.7c3.14 7.62-9.62 18.85-9.62 27.61 0 15.5 15.09 15.5 15.09 31s-15.09 15.49-15.09 30.99z" fill="#7191fa"/><path d="m207.31 124.88c0 13.24 11.66 13.27 11.73 26.44h-112.11c.06-13.18 11.74-13.21 11.74-26.44s-11.74-13.28-11.74-26.54 11.74-13.27 11.74-26.54c0-7.5-9.93-17.12-7.48-23.64 2.55-6.75 15.83-5.79 20.46-10.87s3.74-19.73 9.88-22.54c5.91-2.7 14.65 8.25 21.47 8.25s15.55-10.93 21.46-8.23c6.14 2.81 5.26 17.44 9.88 22.54s17.91 4.12 20.46 10.87c2.45 6.52-7.47 16.14-7.47 23.64 0 13.27 11.73 13.27 11.73 26.54s-11.75 13.24-11.75 26.52z" fill="#6386fa"/><path d="m163 28a42.22 42.22 0 0 1 42.2 42.23v89.77h-84.43v-89.77a42.222 42.222 0 0 1 42.23-42.23z" fill="#18191c"/><path d="m78.87 48.23v-2.93l-1.09.47a3.88 3.88 0 0 0 -2.35 3.55v2a7.311 7.311 0 0 1 -2.14 5.17l-.93.94v4.23h10.25v-2.17a10.52 10.52 0 0 0 -2.07-6.26l-.1-.14a7.93 7.93 0 0 1 -1.57-4.86z" fill="#ff9b00"/><path d="m76.63 67.66a5.98 5.98 0 1 0 0-11.96 5.98 5.98 0 0 0 0 11.96z" fill="#ff9b00"/><path d="m79.44 56.34h-.41v-2.33a1.58 1.58 0 0 1 1.58-1.58h.42v2.34a1.578 1.578 0 0 1 -1.59 1.57zm-2.809 1.889 1.726 1.725a2.44 2.44 0 1 1 -3.451 0z" fill="#ffda13"/><path d="m76.77 71.65h-.28a6.12 6.12 0 0 1 -6.11-6.11v-3.8a.75.75 0 0 1 1.5 0v3.8a4.61 4.61 0 0 0 4.61 4.61h.28a4.62 4.62 0 0 0 4.61-4.61v-3.8a.75.75 0 0 1 1.5 0v3.8a6.12 6.12 0 0 1 -6.11 6.11z" fill="#848a9b"/><path d="m84.72 65.54h-16.18a.75.75 0 0 1 0-1.5h16.18a.75.75 0 0 1 0 1.5z" fill="#848a9b"/><path d="m77.93 83.79a4.19 4.19 0 1 0 0-8.38 4.19 4.19 0 0 0 0 8.38z" fill="#9fa6b9"/><path d="m76.63 87.3a.75.75 0 0 1 -.75-.75v-24.81a.75.75 0 0 1 1.5 0v24.81a.76.76 0 0 1 -.75.75z" fill="#848a9b"/><path d="m248.79 48.23v-2.93l-1.09.47a3.86 3.86 0 0 0 -2.35 3.55v2a7.319 7.319 0 0 1 -2.14 5.17l-.93.94v4.23h10.21v-2.17a10.517 10.517 0 0 0 -2.07-6.26l-.1-.14a7.869 7.869 0 0 1 -1.53-4.86z" fill="#ff9b00"/><path d="m246.54 67.66a5.98 5.98 0 1 0 0-11.96 5.98 5.98 0 0 0 0 11.96z" fill="#ff9b00"/><path d="m249.35 56.34h-.42v-2.33a1.577 1.577 0 0 1 1.58-1.58h.42v2.34a1.581 1.581 0 0 1 -1.58 1.57zm-2.807 1.89 1.725 1.726a2.429 2.429 0 0 1 .722 1.727 2.428 2.428 0 0 1 -.715 1.73 2.438 2.438 0 0 1 -4.165-1.725c0-.647.257-1.268.715-1.725l1.725-1.725z" fill="#ffda13"/><path d="m246.68 71.65h-.27a6.122 6.122 0 0 1 -6.12-6.11v-3.8a.749.749 0 1 1 1.5 0v3.8a4.622 4.622 0 0 0 4.62 4.61h.27a4.618 4.618 0 0 0 4.62-4.61v-3.8a.749.749 0 1 1 1.5 0v3.8a6.123 6.123 0 0 1 -6.12 6.11z" fill="#848a9b"/><path d="m254.64 65.54h-16.19a.748.748 0 0 1 -.75-.75.749.749 0 0 1 .75-.75h16.19a.748.748 0 0 1 .75.75.749.749 0 0 1 -.75.75z" fill="#848a9b"/><path d="m247.85 83.79a4.19 4.19 0 1 0 0-8.38 4.19 4.19 0 0 0 0 8.38z" fill="#9fa6b9"/><path d="m246.55 87.3a.748.748 0 0 1 -.75-.75v-24.81a.749.749 0 1 1 1.5 0v24.81a.762.762 0 0 1 -.75.75z" fill="#848a9b"/><path d="m135.2 154.74a.86.86 0 1 0 0-1.72.86.86 0 0 0 0 1.72z" fill="#1c48b0"/><path d="m89.33 160a.471.471 0 0 1 -.33-.13l-34.75-31.82a.502.502 0 0 1 .304-.859.5.5 0 0 1 .356.109 58.435 58.435 0 0 0 37.09 13.25h6.64a.498.498 0 0 1 .354.853.5.5 0 0 1 -.354.147h-6.64a60.012 60.012 0 0 1 -31-8.65l28.64 26.23a.492.492 0 0 1 .148.355.499.499 0 0 1 -.148.355.523.523 0 0 1 -.31.16z" fill="#fff"/><path d="m67 139.56a.5.5 0 0 1 -.5-.5 2.9 2.9 0 0 1 3-2.78.499.499 0 1 1 0 1 1.898 1.898 0 0 0 -2 1.78.5.5 0 0 1 -.5.5zm5.38 4.92a.513.513 0 0 1 -.5-.5 5.509 5.509 0 0 1 5.71-5.27.503.503 0 0 1 .5.5.498.498 0 0 1 -.5.5 4.513 4.513 0 0 0 -4.71 4.29.502.502 0 0 1 -.5.48zm6.62 6.02a.5.5 0 0 1 -.5-.5c0-5.29 4.68-9.6 10.44-9.6a.508.508 0 0 1 .5.5.497.497 0 0 1 -.5.5c-5.2 0-9.44 3.86-9.44 8.6a.497.497 0 0 1 -.5.5z" fill="#fff"/><path d="m153.67 45.89c5.64 8.84 14.77 8.84 20.41 0-5.64-8.84-14.77-8.84-20.41 0z" fill="#ccdefa"/><path d="m163.19 51a5.11 5.11 0 1 0 0-10.22 5.11 5.11 0 0 0 0 10.22z" fill="#7191fa"/><path d="m162.98 48.26c1.193 0 2.16-1.061 2.16-2.37s-.967-2.37-2.16-2.37-2.16 1.061-2.16 2.37.967 2.37 2.16 2.37z" fill="#18191c"/><path d="m185.01 52.86a1.76 1.76 0 1 0 0-3.52 1.76 1.76 0 0 0 0 3.52zm-46.34 7.57a.88.88 0 1 0 0-1.76.88.88 0 0 0 0 1.76z" fill="#1c48b0"/><path d="m170.94 139.69a5.76 5.76 0 1 0 0-11.52 5.76 5.76 0 0 0 0 11.52z" fill="#103487"/><path d="m174.35 137.83a3.9 3.9 0 1 0 0-7.8 3.9 3.9 0 0 0 0 7.8z" fill="#18191c"/><path d="m191.83 131.16-1.14.4a.3.3 0 0 0 0 .56l1.14.39a.316.316 0 0 1 .18.18l.39 1.14a.3.3 0 0 0 .56 0l.4-1.14a.316.316 0 0 1 .18-.18l1.13-.39a.29.29 0 0 0 0-.56l-1.13-.4a.319.319 0 0 1 -.18-.18l-.4-1.13a.285.285 0 0 0 -.104-.155.286.286 0 0 0 -.352 0 .29.29 0 0 0 -.104.155l-.4 1.15a.317.317 0 0 1 -.17.16z" fill="#107856"/><path d="m183.3 87.61-1.13.4a.29.29 0 0 0 0 .56l1.13.39a.32.32 0 0 1 .18.18l.4 1.14a.3.3 0 0 0 .56 0l.39-1.14a.311.311 0 0 1 .17-.14l1.13-.39a.302.302 0 0 0 0-.56l-1.13-.4a.31.31 0 0 1 -.19-.18l-.39-1.13a.29.29 0 0 0 -.56 0l-.4 1.13a.32.32 0 0 1 -.16.14z" fill="#ffda13"/><path d="m134.36 110.93-1.19 2.07a.483.483 0 0 0 .179.657.482.482 0 0 0 .241.063h2.41a.488.488 0 0 0 .419-.238.479.479 0 0 0 .001-.482l-1.19-2.11a.479.479 0 0 0 -.87.04z" fill="#4a76e9"/><path d="m164.38 106.66c7.572 0 13.71-6.138 13.71-13.71s-6.138-13.71-13.71-13.71-13.71 6.138-13.71 13.71 6.138 13.71 13.71 13.71z" fill="#4cb797"/><path d="m164.38 93 13.69-.71a13.767 13.767 0 0 0 -13.69-13z" fill="#107856"/><path d="m164.38 93 8.92 10.41a13.687 13.687 0 0 0 1.93-18.78z" fill="#7de5c5"/><path d="m157.62 71.33-3.05 3v2.7a7.29 7.29 0 0 1 -7.45 7.31 4.131 4.131 0 0 1 -2.82-1.23l-2.68-2.66 12.58-12.53a2.42 2.42 0 0 1 3.943.782 2.415 2.415 0 0 1 0 1.846 2.406 2.406 0 0 1 -.523.782z" fill="#4a76e9"/><path d="m136.5 76.24h6.41l2.1 2.1-3.38 2.15z" fill="#4a76e9"/><path d="m137.976 76.85a2.05 2.05 0 1 0 -2.899 2.9l1.909 1.91a2.05 2.05 0 1 0 2.899-2.9z" fill="#9bbafa"/><path d="m151.84 68.5h-3.47v4.4h3.47z" fill="#4a76e9"/><path d="m151.864 66.964a2.05 2.05 0 1 0 -2.899 2.9l1.52 1.52a2.05 2.05 0 1 0 2.899-2.9z" fill="#9bbafa"/><path d="m148 73.09h-6.37v4.02h6.37z" fill="#4a76e9"/><path d="m143.283 73.676a2.051 2.051 0 0 0 -2.9 2.9l2.468 2.467a2.05 2.05 0 1 0 2.899-2.9zm1.901-5.494a2.05 2.05 0 1 0 -2.899 2.9l3.649 3.648a2.05 2.05 0 1 0 2.899-2.9z" fill="#9bbafa"/><path d="m170.27 77.2h4.3l1.9 1.91a7.33 7.33 0 0 0 10.45-.1 4.128 4.128 0 0 0 1.08-2.86v-3.78h-17.73a2.42 2.42 0 0 0 -1.711 4.127 2.412 2.412 0 0 0 1.711.703z" fill="#4a76e9"/><path d="m176.967 65.13a2.051 2.051 0 0 0 -2.9 2.9l6.435 6.434a2.05 2.05 0 1 0 2.899-2.899l-6.434-6.434zm12.813 4.25v5.98h-5.62v-2.12z" fill="#4a76e9"/><path d="m185.42 66.49h-4.73v9.11h4.73z" fill="#4a76e9"/><path d="m187.217 75.67a2.051 2.051 0 0 0 2.9 2.899l1.909-1.91a2.051 2.051 0 0 0 -2.899-2.898zm-3.389-5.072a2.05 2.05 0 1 0 2.899 2.9l2.468-2.469a2.051 2.051 0 0 0 -2.899-2.899zm-4.705-2.701a2.051 2.051 0 0 0 2.899 2.9l2.808-2.808a2.051 2.051 0 0 0 -2.9-2.899zm-5.663.833a2.05 2.05 0 0 0 4.1 0v-2.15a2.05 2.05 0 0 0 -4.1 0z" fill="#9bbafa"/><path d="m134.9 128a1.53 1.53 0 1 0 -3.06 0v7.67a1.53 1.53 0 1 0 3.06 0zm6.62-2.06a1.53 1.53 0 1 0 -3.06 0v9.73a1.53 1.53 0 1 0 3.06 0zm6.57 2.06a1.53 1.53 0 1 0 -3.06 0v7.67a1.53 1.53 0 1 0 3.06 0zm7.75 0a1.53 1.53 0 1 0 -3.06 0v7.67a1.53 1.53 0 1 0 3.06 0z" fill="#801387"/><path d="m155.84 122.24a1.53 1.53 0 1 0 -3.06 0v7.67a1.53 1.53 0 1 0 3.06 0zm-20.94 2.27a1.53 1.53 0 1 0 -3.06 0v7.67a1.53 1.53 0 1 0 3.06 0zm6.62-5.37a1.53 1.53 0 1 0 -3.06 0v7.67a1.53 1.53 0 1 0 3.06 0zm6.57-5.59a1.53 1.53 0 1 0 -3.06 0v18.85a1.53 1.53 0 1 0 3.06 0z" fill="#c436d1"/><path d="m184.45 105.1v9l7.2-3.6z" fill="#9bbafa"/><path d="m188.311 110.514-1.842.921 2.254 4.508 1.842-.922z" fill="#9bbafa"/><path d="m41.09 108.59h6.27a1.638 1.638 0 0 1 1.64 1.63v9.78h-7.9v-11.41z" fill="#fae380"/><path d="m47.36 108.59h-6.27l7.91 4.47v-2.84a1.64 1.64 0 0 0 -1.64-1.63z" fill="#f8b610"/><path d="m44.54 109.63c0-.448-.36-.81-.805-.81a.807.807 0 0 0 -.805.81v5.31c0 .447.36.81.805.81a.808.808 0 0 0 .805-.81z" fill="#f8b610"/><path d="m45.062 102.106 1.506 1.506a2.18 2.18 0 0 1 0 3.083 2.183 2.183 0 0 1 -2.38.48 2.18 2.18 0 0 1 -.71-3.556l1.548-1.549z" fill="#ff9b00"/><path d="m45.59 105.67h-1.1v2.92h1.1z" fill="#454a5a"/><path d="m52.86 120h-19.79a28.26 28.26 0 0 0 0 40h19.79a28.276 28.276 0 0 0 6.133-30.824 28.276 28.276 0 0 0 -6.133-9.176z" fill="#a56847"/><path d="m51.07 160c5-11.53 5-28.46 0-40h-16.21c-5 11.53-5 28.46 0 40h3.31c-5.34-11-5.34-28.95 0-40h9.58c5.34 11 5.34 29 0 40z" fill="#784343"/><path d="m27.6 127.68h30.72a28.038 28.038 0 0 0 -2.17-3.68h-26.38a28.038 28.038 0 0 0 -2.17 3.68zm2.18 28.38h26.36a29.283 29.283 0 0 0 2.18-3.73h-30.72a29.27 29.27 0 0 0 2.18 3.73z" fill="#c3c7d9"/><path d="m45.21 134.72a.503.503 0 0 1 -.5-.5v-14.22a.5.5 0 1 1 1 0v14.21a.495.495 0 0 1 -.143.36.496.496 0 0 1 -.357.15z" fill="#fff"/><g fill="#000"><path d="m46.93 142.44a.371.371 0 0 1 -.37-.37v-4.82a1.26 1.26 0 1 0 -2.52 0v4.82a.378.378 0 0 1 -.375.319.379.379 0 0 1 -.375-.319v-4.82a2 2 0 0 1 4 0v4.82a.381.381 0 0 1 -.36.37z"/><path d="m48.31 142.44a.38.38 0 0 1 -.38-.37v-4.82a1.249 1.249 0 0 0 -1.25-1.25h-2.76a1.261 1.261 0 0 0 -1.26 1.26v4.82a.368.368 0 0 1 -.37.37.38.38 0 0 1 -.38-.37v-4.82a1.998 1.998 0 0 1 2-2h2.76a1.996 1.996 0 0 1 2 2v4.82a.372.372 0 0 1 -.36.36z"/><path d="m49.79 142.44a.381.381 0 0 1 -.38-.37v-4.82a1.25 1.25 0 0 0 -1.26-1.25h-5.71a1.24 1.24 0 0 0 -.887.369 1.254 1.254 0 0 0 -.363.891v4.82a.38.38 0 0 1 -.642.261.368.368 0 0 1 -.108-.261v-4.82a1.999 1.999 0 0 1 2-2h5.71a1.996 1.996 0 0 1 2 2v4.82a.38.38 0 0 1 -.36.36z"/><path d="m45.3 135.61a1.61 1.61 0 1 0 0-3.22 1.61 1.61 0 0 0 0 3.22zm0 1.55a.61.61 0 1 0 0-1.22.61.61 0 0 0 0 1.22z"/></g><path d="m249.58 151.5h-39.88v8.5h39.89z" fill="#9097a8"/><path d="m209.69 151.32h-132.55l.01 8.68h132.59z" fill="#aeb4c6"/><path d="m235.08 151.5h-42.4v-7.94h42.41z" fill="#9097a8"/><path d="m192.66 151.5h-101.01v-7.94h101.03z" fill="#aeb4c6"/><path d="m185.92 160v-8.5h-2.8v8.5zm-26.94 0v-8.5h-2.8v8.5zm-26.93.01v-8.5h-2.8v8.5zm-26.94 0v-8.5h-2.8v8.5zm65.83-8.5v-7.95h-2.8v7.95zm-26.94 0v-7.95h-2.8v7.95zm-26.93 0v-7.95h-2.8v7.95z" fill="#9ba2b5"/><path d="m139.9 41.11-1.13.4a.29.29 0 0 0 0 .56l1.13.39a.292.292 0 0 1 .18.19l.4 1.13a.3.3 0 0 0 .56 0l.39-1.13a.302.302 0 0 1 .19-.19l1.13-.39a.302.302 0 0 0 0-.56l-1.13-.4a.29.29 0 0 1 -.19-.18l-.43-1.13a.291.291 0 0 0 -.456-.155.291.291 0 0 0 -.104.155l-.4 1.13a.275.275 0 0 1 -.14.18z" fill="#e79fd5"/><path d="m197.73 58.35a.8.8 0 1 0 0-1.6.8.8 0 0 0 0 1.6z" fill="#f1c8e6"/><path d="m100.65 156.26h4.13a7.64 7.64 0 0 0 0-15.28h-4.13a7.64 7.64 0 1 0 0 15.28z" fill="#fff"/><path d="m111.41 149.07v-.89a2.63 2.63 0 0 0 -2.63-2.63h-1.49a2.63 2.63 0 0 0 -2.63 2.63v.89a2.63 2.63 0 0 0 2.63 2.63h1.49a2.63 2.63 0 0 0 2.63-2.63z" fill="#aec7ff" opacity=".25"/><path d="m93.01 160h9.92v-11.38h-9.92z" fill="#fff"/><path d="m94.94 150.83a1.19 1.19 0 1 0 0-2.38 1.19 1.19 0 0 0 0 2.38zm6.77 0a1.19 1.19 0 1 0 0-2.38 1.19 1.19 0 0 0 0 2.38zm-5.35.23 3.08 2.92h-3.08z" fill="#414657"/><path d="m102.92 156.27 3.47-3.47h-3.47z" fill="#ccdefa"/><path d="m95.14 157.01h6.57v-.74h-6.57z" fill="#c3c7d9"/></g></svg>