<svg viewBox="0 0 71.5 44.14" xmlns="http://www.w3.org/2000/svg"><path d="m26.17 42.14h28.93a8.9 8.9 0 0 0 8.9-8.89v-.13a7 7 0 0 1 -5.26-3l-1.46 1.46a2 2 0 0 1 -2.83 0l-13.15-13.17a2 2 0 0 1 -.43-2.18 2 2 0 0 1 1.84-1.23h4.15v-7.15a19.51 19.51 0 0 0 -2.86-1.52 1 1 0 0 1 -1.26.58 18.16 18.16 0 0 0 -23.41 11.63 1 1 0 0 1 -.51.6 1 1 0 0 1 -.79 0 11.85 11.85 0 0 0 -11.89 20.12l5.56-7.47a1 1 0 0 1 1.6 0l8 10.75a1 1 0 0 1 .19.6h3.68a1 1 0 0 1 1-1z" fill="#f6f6f7"/><path d="m69.5 26.14a5 5 0 0 0 -2.5-4.31l-6.8 6.8a5 5 0 0 0 9.31-2.49z" fill="#dcddde"/><path d="m55.86 30.14 13.14-13.14h-4.14a2 2 0 0 1 -2-2v-13h-14v13a2 2 0 0 1 -2 2h-4.15zm-49.37 12h12.02l-6.01-8.07z" fill="#fff"/><path d="m71.5 26.14a7 7 0 0 0 -1.56-4.4 2.32 2.32 0 0 1 .23-3.08l.24-.25a2 2 0 0 0 -1.41-3.41h-3.14a1 1 0 0 1 -1-1v-12a2 2 0 0 0 -2-2h-14a2 2 0 0 0 -2 2v12a1 1 0 0 1 -1 1h-3.15a2 2 0 0 0 -1.84 1.23 2 2 0 0 0 .43 2.18l13.14 13.15a2 2 0 0 0 2.83 0 2 2 0 0 1 2.73-.09 7 7 0 0 0 4 1.65 8.91 8.91 0 0 1 -8.9 9h-28.93a1 1 0 0 0 -1 1 1 1 0 0 0 1 1h28.93a10.91 10.91 0 0 0 10.9-10.87v-.27a7 7 0 0 0 5.5-6.84zm-6 4.9a5 5 0 0 1 -3.19-.41 2.22 2.22 0 0 1 -.55-3.56l3.67-3.67a2.23 2.23 0 0 1 3.57.6 5 5 0 0 1 -3.5 7zm-16.64-16.04v-13h14v13a2 2 0 0 0 2 2h4.14l-13.14 13.14-13.15-13.14h4.15a2 2 0 0 0 2-2zm-27.56 27.54-8-10.75a1 1 0 0 0 -1.6 0l-3.27 4.39a3 3 0 0 1 -5.08-.41 11.84 11.84 0 0 1 6.65-16.71 11.67 11.67 0 0 1 8 .12 1 1 0 0 0 .79 0 1 1 0 0 0 .51-.6 18.16 18.16 0 0 1 23.4-11.67 1 1 0 0 0 1.3-.58 1 1 0 0 0 -.63-1.33 20.14 20.14 0 0 0 -25.61 12 13.64 13.64 0 0 0 -7.76 0 13.85 13.85 0 0 0 -5 23.9l-1.3 1.64a1 1 0 0 0 -.09 1.05 1 1 0 0 0 .89.55h16a1 1 0 0 0 1-1 1 1 0 0 0 -.2-.6zm-14.81-.4 6-8.07 6 8.07zm5.67-38.93a1 1 0 0 1 0-1.41l1.18-1.18a1 1 0 0 1 1.42 0 1 1 0 0 1 0 1.41l-1.19 1.18a1 1 0 0 1 -1.41 0zm-5.16 6.21a1 1 0 0 0 .71-.29l1.13-1.13a1 1 0 0 0 0-1.42 1 1 0 0 0 -1.41 0l-1.19 1.14a1 1 0 0 0 0 1.41 1 1 0 0 0 .76.29zm6.39-.29a1 1 0 0 0 1.42 0 1 1 0 0 0 0-1.41l-1.24-1.19a1 1 0 0 0 -1.41 0 1 1 0 0 0 0 1.42zm-5.96-5.92a1 1 0 0 0 1.41 0 1 1 0 0 0 0-1.41l-1.18-1.18a1 1 0 0 0 -1.42 0 1 1 0 0 0 0 1.38z" fill="#b9bbbe"/></svg>