<?xml version="1.0" encoding="UTF-8" standalone="no"?>
<svg xmlns="http://www.w3.org/2000/svg" height="527.02002" width="389.41">
  <g transform="matrix(10,0,0,-10,-4862.4,3263.28)">
    <path d="m486.523 326.046h38.377v-52.138h-38.377v52.138z" fill="#1b1615"/>
    <path d="m524.616 274.192h-37.809v51.571h37.809v-51.571zm0.565 52.136h-0.565-37.809-0.567v-0.565-51.571-0.566h0.567 37.809 0.565v0.566 51.571 0.565z" fill="#fff"/>
    <path d="m522.581 323.834h-33.723v-7.866h33.723v7.866z" fill="#fff"/>
    <path d="m488.922 314.025h33.663v-30.674h-33.663v30.674z" fill="#fff"/>
    <g fill="#fff">
      <path d="m488.9595 276.6566v4.612h6.78v-1.078h-4.057v-0.658h3.434v-1.077h-3.434v-0.722h4.217v-1.077h-6.94z"/>
      <path d="m501.6544 279.9275c-0.04 0.154-0.192 0.253-0.389 0.311-0.194 0.06-0.434 0.084-0.705 0.084-0.599 0-0.865-0.096-0.865-0.268 0-0.682 4.78-0.255 4.78-1.932 0-1.069-1.607-1.59-3.891-1.59-2.195 0-3.623 0.712-3.681 1.545h2.605c0.061-0.168 0.223-0.286 0.453-0.364 0.22-0.077 0.506-0.116 0.776-0.116 0.681 0 1.135 0.12 1.135 0.339 0 0.698-4.784 0.218-4.784 1.976 0 0.981 1.523 1.472 3.605 1.472 2.302 0 3.358-0.653 3.554-1.457h-2.593z"/>
      <path d="m508.5527 279.27h1.069c0.845 0 1.299 0.121 1.299 0.437 0 0.326-0.46 0.483-1.099 0.483h-1.269v-0.92zm0-1.006v-1.607h-2.722v4.612h3.921c2.769 0 3.683-0.422 3.683-1.318 0-0.533-0.425-0.976-1.396-1.13 0.876-0.176 1.407-0.286 1.407-1.217 0-0.6-0.033-0.808 0.29-0.808v-0.139h-2.761c-0.069 0.102-0.137 0.397-0.137 0.805 0 0.606-0.183 0.802-1.453 0.802h-0.832z"/>
      <path d="m517.8348 280.1903v-0.773h1.132c0.54 0 0.937 0.141 0.937 0.404 0 0.36-0.536 0.369-1.109 0.369h-0.96zm0-1.607v-0.85h1.185c0.673 0 1.181 0.076 1.181 0.421 0 0.403-0.631 0.429-1.504 0.429h-0.862zm-2.724-1.927v4.613h3.97c1.875 0 3.362-0.248 3.362-1.164 0-0.475-0.555-0.819-1.084-1.001 0.895-0.129 1.383-0.561 1.383-1.058 0-1.028-1.418-1.39-3.581-1.39h-4.05z"/>
    </g>
    <g fill="#1b1615">
      <path d="m489.6344 317.1413v5.31h1.548l0.722-3.612h0.013l0.762 3.612h1.495v-5.31h-0.934v4.096h-0.011l-0.885-4.096h-0.922l-0.837 4.096h-0.016v-4.096h-0.935z"/>
      <path d="m494.6065 317.1413 1.275 5.31h1.27l1.246-5.31h-1.012l-0.253 1.175h-1.314l-0.262-1.175h-0.95zm1.853 4.288h-0.015l-0.436-2.296h0.92l-0.469 2.296z"/>
      <path d="m501.2065 322.4517v-0.882h-1.07v-4.428h-0.963v4.428h-1.067v0.882h3.1z"/>
      <path d="m504.7592 322.4517v-3.767c0-0.202-0.027-0.398-0.079-0.593-0.054-0.193-0.143-0.367-0.259-0.522-0.122-0.154-0.283-0.279-0.485-0.374-0.196-0.096-0.445-0.144-0.735-0.144-0.534 0-0.926 0.147-1.184 0.442-0.254 0.293-0.385 0.69-0.385 1.191v3.767h0.961v-3.694c0-0.327 0.055-0.561 0.163-0.702 0.111-0.14 0.253-0.209 0.43-0.209 0.213 0 0.368 0.078 0.464 0.234 0.099 0.157 0.149 0.383 0.149 0.677v3.694h0.96z"/>
      <path d="m506.4858 317.1413h-0.961v5.31h1.774c0.332 0 0.598-0.116 0.789-0.352 0.194-0.236 0.29-0.582 0.29-1.037 0-0.339-0.066-0.625-0.194-0.862-0.131-0.236-0.349-0.383-0.659-0.442v-0.014c0.05-0.009 0.125-0.024 0.218-0.044 0.092-0.019 0.185-0.064 0.276-0.132 0.091-0.07 0.17-0.171 0.24-0.306 0.067-0.134 0.102-0.322 0.102-0.564 0-0.082 0-0.2 0.004-0.351 0-0.153 0.006-0.31 0.013-0.473 0.008-0.16 0.019-0.31 0.033-0.448 0.014-0.136 0.034-0.232 0.055-0.285h-0.941c-0.066 0.16-0.096 0.329-0.101 0.507-0.004 0.175-0.004 0.35-0.004 0.521 0 0.158 0 0.307-0.002 0.449s-0.023 0.267-0.063 0.372-0.108 0.19-0.204 0.253c-0.096 0.064-0.235 0.097-0.416 0.097h-0.249v-2.199zm0 3.015h0.428c0.09 0 0.172 0.024 0.233 0.075 0.065 0.048 0.115 0.109 0.152 0.187 0.04 0.076 0.065 0.16 0.081 0.253 0.015 0.093 0.023 0.181 0.023 0.264 0 0.256-0.044 0.436-0.129 0.54-0.089 0.107-0.207 0.16-0.36 0.16h-0.428v-1.479z"/>
      <path d="m509.083 317.1413v5.31h2.509v-0.816h-1.545v-1.31h1.425v-0.816h-1.425v-1.553h1.597v-0.815h-2.561z"/>
      <path d="m513.5919 321.6538c0.163 0.108 0.318 0.226 0.466 0.359 0.147 0.133 0.28 0.289 0.395 0.468h0.853v-5.34h-0.961v4.108c-0.115-0.118-0.236-0.225-0.363-0.323-0.126-0.096-0.257-0.187-0.39-0.274v1.002z"/>
      <path d="m518.6925 321.463-1.08-4.322h-1.002l1.219 4.513h-1.522v0.827h2.385v-1.018z"/>
      <path d="m520.1782 321.4214h0.707v-1.45h1.076v-0.817h-1.076v-1.449h-0.707v1.449h-1.082v0.817h1.082v1.45z"/>
    </g>
    <path d="m491.1145 307.0044 9.677 2.6 5.514-12.956 0.047 0.015-1.666 13.982 9.674 2.596 6.038-22.622-5.899-1.579-4.314 16.175-0.049-0.02 1.831-16.832-6.38-1.717-6.804 15.502-0.05-0.014 4.311-16.173-5.893-1.578-6.037 22.621z" fill="#1b1615"/>
    <path d="m519.7061 286.2836c0.319 0.008 0.396 0.137 0.396 0.284 0 0.154-0.077 0.233-0.348 0.233h-0.405v-0.517h0.357zm-0.357-0.317v-0.865h-0.338v2.016h0.703c0.396 0 0.802-0.102 0.802-0.557 0-0.231-0.143-0.417-0.436-0.474v-0.006c0.294-0.054 0.333-0.183 0.368-0.4 0.029-0.187 0.053-0.399 0.128-0.579h-0.432c-0.027 0.113-0.06 0.246-0.073 0.36-0.022 0.173-0.022 0.338-0.121 0.431-0.085 0.074-0.201 0.065-0.317 0.074h-0.284zm1.907 0.117c0 0.777-0.672 1.406-1.514 1.406s-1.524-0.629-1.524-1.406c0-0.779 0.682-1.416 1.524-1.416s1.514 0.637 1.514 1.416m-3.366 0c0 0.944 0.824 1.709 1.852 1.709 1.016 0 1.84-0.765 1.84-1.709 0-0.948-0.824-1.716-1.84-1.716-1.028 0-1.852 0.768-1.852 1.716" fill="#1b1615"/>
  </g>
</svg>
