<svg width="180" height="108" viewBox="0 0 180 108" fill="none" xmlns="http://www.w3.org/2000/svg">
<mask id="mask0" mask-type="alpha" maskUnits="userSpaceOnUse" x="0" y="28" width="180" height="80">
<path d="M0 36C0 31.5817 3.58172 28 8 28H172C176.418 28 180 31.5817 180 36V108H0V36Z" fill="#292B2F"/>
</mask>
<g mask="url(#mask0)">
<path d="M0 36C0 31.5817 3.58172 28 8 28H172C176.418 28 180 31.5817 180 36V100C180 104.418 176.418 108 172 108H8C3.58172 108 0 104.418 0 100V36Z" fill="#36393F"/>
</g>
<g clip-path="url(#clip0)">
<path fill-rule="evenodd" clip-rule="evenodd" d="M96.1783 71L100 74.8217V81.0683C98.375 81.3008 96.9675 82.1983 96.0633 83.4825L95 81L91.6667 85.1667L90 83.5L87.5 86.8333H95V86.8342C95 87.73 95.2083 88.575 95.5683 89.3333H86.6667C85.7475 89.3333 85 88.5858 85 87.6667V72.6667C85 71.7483 85.7475 71 86.6667 71H96.1783ZM87.5 79.75C87.5 80.9017 88.4317 81.8333 89.5833 81.8333C90.7325 81.8333 91.6667 80.9017 91.6667 79.75C91.6667 78.5992 90.7325 77.6667 89.5833 77.6667C88.4317 77.6667 87.5 78.5992 87.5 79.75ZM95 71.8333V76H99.1667L95 71.8333ZM96.9108 87.0774L100.833 83.1549L104.756 87.0774L103.577 88.2549L101.667 86.3449V91.0008H100V86.3449L98.0891 88.2549L96.9108 87.0774Z" fill="white" fill-opacity="0.16"/>
</g>
<rect x="9" y="37" width="162" height="62" rx="4" stroke="#4F545C" stroke-width="2" stroke-linejoin="round" stroke-dasharray="8 4"/>
<g clip-path="url(#clip1)">
<mask id="mask1" mask-type="alpha" maskUnits="userSpaceOnUse" x="21" y="0" width="135" height="82">
<path fill-rule="evenodd" clip-rule="evenodd" d="M57.4546 80.7925L83.0673 66.1513L101.012 66.1513L126.627 80.7808C127.978 81.5526 128.654 81.9384 129.326 81.9722C129.905 82.0004 130.495 81.844 130.982 81.5333C131.547 81.1717 131.937 80.5033 132.717 79.1666L153.719 43.1821C154.402 42.0125 154.743 41.4277 154.931 40.8029C155.033 40.4631 155.103 40.1216 155.131 39.7713C155.151 39.5442 155.164 39.3288 155.153 39.0997C155.137 38.4381 154.963 37.798 154.612 36.4991L150.399 20.9489C150.048 19.6499 149.874 19.0098 149.554 18.4289C149.447 18.225 149.327 18.045 149.195 17.8581L143.316 27.9313C142.536 29.2681 142.146 29.9364 142.112 30.6012C142.108 30.6689 142.107 30.7367 142.109 30.8045C142.107 30.7367 142.108 30.6688 142.111 30.6011C142.146 29.9363 142.536 29.2679 143.316 27.9312L149.195 17.8579C148.994 17.5681 148.76 17.3073 148.5 17.0634C148.022 16.6151 147.431 16.2775 146.249 15.6022L124.35 3.09548C122.999 2.32371 122.323 1.93783 121.651 1.9041C121.072 1.87591 120.482 2.03229 119.995 2.34296C119.43 2.70458 119.04 3.37294 118.26 4.70968L113.47 12.9175L103.016 2.57711L103.016 2.57707C102.055 1.62617 101.582 1.15761 101.01 0.813079C100.815 0.689045 100.62 0.592575 100.411 0.496104L100.411 0.49614C100.091 0.344543 99.7564 0.234291 99.4081 0.151602C98.7673 4.75424e-06 98.0846 4.63617e-06 96.7193 4.40002e-06L71.4331 0C69.8727 0 69.0926 0 68.4935 0.303193C67.978 0.565041 67.5461 0.992268 67.2814 1.50218C66.9749 2.09479 66.9749 2.86655 66.9749 4.41008V13.8876L52.6957 10.1028C51.3826 9.75472 50.7355 9.58321 50.0667 9.56735C49.8352 9.55641 49.6177 9.56931 49.3882 9.5891L49.3817 9.57805C49.0277 9.60533 48.6825 9.67531 48.3392 9.77607C47.7077 9.96195 47.1167 10.2998 45.9345 10.9756L24.041 23.4908C22.69 24.2631 22.0145 24.6492 21.6489 25.2084C21.3349 25.6903 21.1767 26.2742 21.2051 26.8469C21.239 27.5119 21.6289 28.1804 22.4085 29.5175L51.367 79.1789C52.1466 80.516 52.5365 81.1845 53.1012 81.5461C53.5879 81.8568 54.1777 82.0131 54.7562 81.9848C55.4281 81.9509 56.1036 81.5648 57.4546 80.7925ZM56.8646 21.9324C56.3696 21.5518 55.9822 20.8881 55.2669 19.6624L49.968 10.5834L55.2569 19.6536C55.9771 20.8886 56.3646 21.5532 56.8646 21.9324Z" fill="#939BF9"/>
</mask>
<g mask="url(#mask1)">
<g clip-path="url(#clip2)">
<g clip-path="url(#clip3)">
<path d="M73.8043 18.3626L94.7922 54.3552C95.5719 55.6923 95.9617 56.3608 95.9957 57.0258C96.024 57.5985 95.8659 58.1824 95.5519 58.6643C95.1863 59.2234 94.5108 59.6096 93.1598 60.3819L57.4546 80.7924C56.1036 81.5647 55.4281 81.9508 54.7562 81.9847C54.1777 82.013 53.5879 81.8567 53.1012 81.546C52.5365 81.1843 52.1467 80.5158 51.367 79.1788L22.4085 29.5174C21.6289 28.1803 21.2391 27.5118 21.2051 26.8468C21.1767 26.2741 21.3349 25.6902 21.6489 25.2083C22.0145 24.6492 22.69 24.263 24.041 23.4907L45.9346 10.9755C47.1167 10.2998 47.7077 9.96188 48.3392 9.77601C48.6825 9.67525 49.0277 9.60526 49.3817 9.57798L55.257 19.6535C56.0366 20.9906 56.4264 21.6591 56.9911 22.0207C57.4779 22.3314 58.0676 22.4877 58.6462 22.4594C59.318 22.4255 59.9935 22.0394 61.3446 21.2671L71.5254 15.4473C71.8182 15.6461 72.0817 15.8774 72.3281 16.1345C72.781 16.6078 73.1221 17.1927 73.8043 18.3626Z" fill="#D3D6FD"/>
<path d="M68.4022 14.2561C69.7148 14.604 70.3616 14.7755 70.9486 15.0925C71.1546 15.1976 71.3365 15.3165 71.5254 15.4473L61.3446 21.267C59.9936 22.0393 59.3181 22.4254 58.6462 22.4593C58.0677 22.4876 57.4779 22.3313 56.9912 22.0206C56.4265 21.659 56.0367 20.9905 55.257 19.6534L49.3818 9.57788C49.6114 9.55801 49.829 9.54504 50.0606 9.55595C50.7292 9.57168 51.376 9.74312 52.6886 10.0911L68.4022 14.2561Z" fill="#939BF9"/>
</g>
<g clip-path="url(#clip4)">
<g clip-path="url(#clip5)">
<path fill-rule="evenodd" clip-rule="evenodd" d="M67.8785 30.2657L58.2285 35.7821L59.6207 38.1697L69.2708 32.6533L67.8785 30.2657ZM72.0552 37.4284L62.4052 42.9448L63.7974 45.3324L73.4475 39.816L72.0552 37.4284ZM52.1068 58.3821L76.2319 44.5912L77.6242 46.9788L53.499 60.7697L52.1068 58.3821ZM80.4087 51.7539L56.2835 65.5448L57.6757 67.9323L81.8009 54.1415L80.4087 51.7539ZM55.3536 50.1592L52.9411 51.5383L48.7644 44.3756L45.1456 46.4442L43.7534 44.0566L53.4035 38.5403L54.7957 40.9278L51.1769 42.9965L55.3536 50.1592Z" fill="#5865F2"/>
</g>
</g>
</g>
<g clip-path="url(#clip6)">
<g clip-path="url(#clip7)">
<path d="M153.719 43.1821L132.717 79.1665C131.937 80.5032 131.547 81.1716 130.982 81.5332C130.495 81.8439 129.905 82.0003 129.326 81.9721C128.654 81.9384 127.978 81.5525 126.627 80.7807L90.9137 60.3841C89.5624 59.6123 88.8867 59.2264 88.5212 58.6676C88.2071 58.1858 88.049 57.6022 88.0775 57.0297C88.1116 56.3649 88.5017 55.6965 89.2819 54.3598L118.26 4.70962C119.04 3.37289 119.43 2.70452 119.995 2.34291C120.482 2.03223 121.072 1.87586 121.651 1.90405C122.323 1.93778 122.999 2.32366 124.35 3.09542L146.249 15.6021C147.431 16.2774 148.022 16.6151 148.501 17.0633C148.76 17.3072 148.994 17.5681 149.195 17.8579L143.316 27.9311C142.536 29.2679 142.146 29.9362 142.111 30.601C142.083 31.1735 142.241 31.7572 142.555 32.2389C142.921 32.7978 143.596 33.1836 144.948 33.9554L155.131 39.7712C155.103 40.1215 155.033 40.4631 154.931 40.8028C154.743 41.4276 154.402 42.0124 153.719 43.1821Z" fill="#D3D6FD"/>
<path d="M154.612 36.4989C154.963 37.7979 155.137 38.438 155.153 39.0996C155.164 39.3287 155.151 39.544 155.131 39.7713L144.948 33.9555C143.596 33.1837 142.921 32.7978 142.555 32.2389C142.241 31.7572 142.083 31.1736 142.111 30.6011C142.146 29.9363 142.536 29.2679 143.316 27.9312L149.195 17.8579C149.327 18.0448 149.447 18.2248 149.554 18.4287C149.874 19.0096 150.048 19.6497 150.399 20.9487L154.612 36.4989Z" fill="#939BF9"/>
</g>
<g clip-path="url(#clip8)">
<g clip-path="url(#clip9)">
<path fill-rule="evenodd" clip-rule="evenodd" d="M120.694 33.2011C121.19 33.2614 121.623 33.4292 122.035 33.6327C122.423 33.8224 122.882 34.0843 123.413 34.3875L123.449 34.4081L122.056 36.7952C121.476 36.4644 121.102 36.2508 120.818 36.1042C120.526 35.9696 120.404 35.9315 120.342 35.9278C119.983 35.8818 119.602 35.9826 119.314 36.2002C119.255 36.2461 119.175 36.3278 118.991 36.5885C118.8 36.8612 118.584 37.2312 118.249 37.804L116.139 41.4204C115.832 41.9455 115.567 42.3991 115.327 42.7553C115.061 43.1285 114.783 43.4948 114.384 43.7922C114.005 44.0845 113.58 44.2878 113.129 44.4277C113.232 44.8845 113.266 45.3496 113.2 45.8211C113.139 46.3115 112.97 46.7398 112.764 47.1474C112.572 47.5312 112.307 47.9847 112.001 48.5099L109.89 52.1262C109.556 52.6991 109.34 53.0691 109.192 53.3505C109.056 53.6388 109.017 53.76 109.013 53.8215C108.967 54.1768 109.069 54.5534 109.289 54.8381C109.335 54.8964 109.418 54.9754 109.681 55.1578C109.957 55.347 110.331 55.5606 110.91 55.8914L109.517 58.2784L109.481 58.2578C108.95 57.9546 108.491 57.6927 108.131 57.4552C107.754 57.192 107.384 56.9169 107.083 56.5224C106.411 55.6613 106.103 54.5625 106.257 53.4726C106.318 52.9823 106.487 52.554 106.693 52.1463C106.885 51.7626 107.15 51.309 107.456 50.7839L109.567 47.1675C109.901 46.5946 110.117 46.2246 110.265 45.9432C110.401 45.655 110.44 45.5338 110.444 45.4722C110.49 45.1169 110.388 44.7404 110.168 44.4556C110.122 44.3973 110.039 44.3183 109.776 44.136C109.5 43.9467 109.126 43.7331 108.547 43.4023L109.94 41.0153C110.519 41.3461 110.893 41.5597 111.178 41.7062C111.469 41.8409 111.592 41.879 111.654 41.8827C112.013 41.9287 112.387 41.8398 112.682 41.6103C112.741 41.5644 112.82 41.4827 113.005 41.222C113.196 40.9493 113.412 40.5793 113.746 40.0064L115.857 36.3901C116.164 35.8649 116.428 35.4114 116.668 35.0552C116.934 34.682 117.213 34.3157 117.611 34.0183C118.482 33.3538 119.593 33.0493 120.694 33.2011ZM132.449 53.7435C132.496 53.8019 132.578 53.8809 132.842 54.0632C133.118 54.2525 133.492 54.4661 134.071 54.7968L132.678 57.1839C132.099 56.8531 131.724 56.6395 131.44 56.4929C131.149 56.3583 131.026 56.3202 130.964 56.3165C130.605 56.2705 130.224 56.3714 129.936 56.5889C129.877 56.6348 129.797 56.7165 129.613 56.9772C129.422 57.2499 129.206 57.6199 128.871 58.1928L126.761 61.8091C126.454 62.3342 126.19 62.7878 125.949 63.144C125.683 63.5172 125.405 63.8835 125.006 64.1809C124.136 64.8454 123.013 65.143 121.923 64.9981C121.428 64.9377 120.995 64.77 120.583 64.5665C120.195 64.3768 119.736 64.1149 119.205 63.8117L119.169 63.7911L120.562 61.404C121.141 61.7348 121.516 61.9484 121.8 62.0949C122.091 62.2296 122.214 62.2677 122.276 62.2714C122.635 62.3174 123.009 62.2285 123.304 61.999C123.363 61.9531 123.443 61.8714 123.627 61.6107C123.818 61.338 124.034 60.968 124.369 60.3951L126.479 56.7788C126.786 56.2536 127.05 55.8001 127.291 55.4439C127.557 55.0707 127.847 54.7113 128.234 54.407C128.613 54.1147 129.038 53.9114 129.489 53.7715C129.386 53.3147 129.352 52.8496 129.418 52.3781C129.479 51.8877 129.648 51.4594 129.854 51.0518C130.046 50.668 130.311 50.2145 130.617 49.6893L132.728 46.073C133.062 45.5001 133.278 45.1301 133.426 44.8487C133.562 44.5604 133.601 44.4392 133.605 44.3777C133.651 44.0223 133.549 43.6458 133.329 43.3611C133.283 43.3028 133.2 43.2238 132.937 43.0414C132.661 42.8522 132.287 42.6385 131.708 42.3078L133.101 39.9208L133.137 39.9414C133.668 40.2446 134.127 40.5065 134.487 40.744C134.864 41.0072 135.234 41.2823 135.535 41.6768C136.207 42.5379 136.514 43.6367 136.361 44.7266C136.3 45.2169 136.13 45.6452 135.925 46.0529C135.733 46.4366 135.468 46.8902 135.162 47.4153L133.051 51.0317C132.717 51.6046 132.501 51.9745 132.352 52.2559C132.216 52.5442 132.178 52.6654 132.174 52.7269C132.128 53.0823 132.23 53.4588 132.449 53.7435Z" fill="#5865F2"/>
</g>
</g>
</g>
<g filter="url(#filter0_d)">
<g clip-path="url(#clip10)">
<g clip-path="url(#clip11)">
<path d="M117.129 20.1899L117.129 61.7412C117.129 63.2847 117.129 64.0565 116.823 64.6491C116.558 65.159 116.126 65.5862 115.611 65.8481C115.012 66.1513 114.232 66.1513 112.671 66.1513L71.4331 66.1513C69.8728 66.1513 69.0926 66.1513 68.4935 65.8481C67.9781 65.5862 67.5462 65.159 67.2815 64.6491C66.975 64.0565 66.975 63.2847 66.975 61.7412L66.975 4.41008C66.975 2.86655 66.975 2.09479 67.2815 1.50219C67.5462 0.992269 67.9781 0.565042 68.4935 0.303194C69.0926 3.66265e-07 69.8728 5.01204e-07 71.4331 7.71083e-07L96.7194 5.14457e-06C98.0847 5.38072e-06 98.7673 5.49879e-06 99.4082 0.151602C99.7565 0.234291 100.091 0.344544 100.411 0.49614L100.411 12.1277C100.411 13.6713 100.411 14.443 100.718 15.0356C100.982 15.5456 101.414 15.9728 101.93 16.2346C102.529 16.5378 103.309 16.5378 104.869 16.5378L116.628 16.5378C116.781 16.8548 116.893 17.1856 116.976 17.5301C117.129 18.164 117.129 18.8393 117.129 20.1899Z" fill="#D3D6FD"/>
<path d="M114.524 13.9606C115.485 14.9116 115.959 15.3801 116.307 15.9452C116.433 16.1381 116.53 16.3311 116.628 16.5378L104.869 16.5378C103.309 16.5378 102.529 16.5378 101.93 16.2346C101.414 15.9727 100.982 15.5455 100.718 15.0356C100.411 14.443 100.411 13.6712 100.411 12.1277L100.411 0.496094C100.62 0.592564 100.815 0.689035 101.01 0.813069C101.582 1.15761 102.055 1.62618 103.016 2.5771L114.524 13.9606Z" fill="#939BF9"/>
</g>
<path fill-rule="evenodd" clip-rule="evenodd" d="M78.1204 27.563L89.2658 27.563L89.2658 33.0756L78.1204 33.0756L78.1204 27.563ZM94.8385 27.563L105.984 27.563L105.984 33.0756L94.8385 33.0756L94.8385 27.563ZM89.2658 38.5882L78.1204 38.5882L78.1204 44.1008L89.2658 44.1008L89.2658 38.5882ZM94.8385 38.5882L105.984 38.5882L105.984 44.1008L94.8385 44.1008L94.8385 38.5882ZM89.2658 49.6134L78.1204 49.6134L78.1204 55.126L89.2658 55.126L89.2658 49.6134ZM94.8385 49.6134L105.984 49.6134L105.984 55.126L94.8385 55.126L94.8385 49.6134Z" fill="#5865F2"/>
</g>
</g>
</g>
</g>
<defs>
<filter id="filter0_d" x="18.975" y="-48" width="146.154" height="162.151" filterUnits="userSpaceOnUse" color-interpolation-filters="sRGB">
<feFlood flood-opacity="0" result="BackgroundImageFix"/>
<feColorMatrix in="SourceAlpha" type="matrix" values="0 0 0 0 0 0 0 0 0 0 0 0 0 0 0 0 0 0 127 0" result="hardAlpha"/>
<feOffset/>
<feGaussianBlur stdDeviation="24"/>
<feColorMatrix type="matrix" values="0 0 0 0 0.345098 0 0 0 0 0.396078 0 0 0 0 0.94902 0 0 0 0.5 0"/>
<feBlend mode="normal" in2="BackgroundImageFix" result="effect1_dropShadow"/>
<feBlend mode="normal" in="SourceGraphic" in2="effect1_dropShadow" result="shape"/>
</filter>
<clipPath id="clip0">
<rect width="20" height="20" fill="white" transform="translate(85 71)"/>
</clipPath>
<clipPath id="clip1">
<rect width="134.442" height="82" fill="white" transform="translate(21)"/>
</clipPath>
<clipPath id="clip2">
<rect width="50.0196" height="66.3321" fill="white" transform="matrix(0.868164 -0.496277 0.503732 0.86386 20.181 25.6973)"/>
</clipPath>
<clipPath id="clip3">
<rect width="50.0196" height="66.3321" fill="white" transform="matrix(0.868164 -0.496277 0.503732 0.86386 20.181 25.6973)"/>
</clipPath>
<clipPath id="clip4">
<rect width="50.0196" height="49.7491" fill="white" transform="matrix(0.868164 -0.496277 0.503732 0.86386 28.5344 40.0227)"/>
</clipPath>
<clipPath id="clip5">
<rect width="33.3464" height="33.1661" fill="white" transform="matrix(0.868164 -0.496277 0.503732 0.86386 39.9486 43.0483)"/>
</clipPath>
<clipPath id="clip6">
<rect width="50.0198" height="66.3323" fill="white" transform="matrix(0.868358 0.495938 -0.504073 0.863661 120.489 0.890381)"/>
</clipPath>
<clipPath id="clip7">
<rect width="50.0198" height="66.3323" fill="white" transform="matrix(0.868358 0.495938 -0.504073 0.863661 120.489 0.890381)"/>
</clipPath>
<clipPath id="clip8">
<rect width="50.0198" height="49.7493" fill="white" transform="matrix(0.868358 0.495938 -0.504073 0.863661 112.13 15.2126)"/>
</clipPath>
<clipPath id="clip9">
<rect width="33.3465" height="33.1662" fill="white" transform="matrix(0.868358 0.495938 -0.504073 0.863661 115.19 26.5083)"/>
</clipPath>
<clipPath id="clip10">
<rect width="50.1544" height="66.1513" fill="white" transform="translate(66.975)"/>
</clipPath>
<clipPath id="clip11">
<rect width="50.1544" height="66.1513" fill="white" transform="translate(66.975)"/>
</clipPath>
</defs>
</svg>
