<svg xmlns="http://www.w3.org/2000/svg" width="378" height="192" viewBox="0 0 378 192" xmlns:xlink="http://www.w3.org/1999/xlink">
  <defs>
    <polygon id="a" points="0 95.667 0 191 326.916 191 326.916 .333 0 .333"/>
    <polygon id="c" points="42.06 .263 42.06 47.599 .06 47.599 .06 .263 42.06 .263"/>
  </defs>
  <g fill="none" fill-rule="evenodd">
    <g transform="translate(0 .667)">
      <mask id="b" fill="white">
        <use xlink:href="#a"/>
      </mask>
      <path fill="#4F545C" fill-opacity=".3" d="M287.648,22.5531 L287.648,22.5631 C287.648,34.8341 277.7,44.7821 265.428,44.7821 L259.24,44.7821 C248.062,44.7821 239,53.8441 239,65.0231 L239,65.0241 C239,76.2011 248.062,85.2631 259.24,85.2631 L303.248,85.2631 C316.32,85.2631 326.916,95.8601 326.916,108.9311 C326.916,122.0021 316.32,132.5991 303.248,132.5991 L258.2,132.5991 C242.073,132.5991 229,145.6721 229,161.7991 L229,161.8001 C229,177.9271 215.927,191.0001 199.8,191.0001 L41.957,191.0001 C29.282,191.0001 19.007,180.7251 19.007,168.0501 L19.007,168.0491 C19.007,155.3741 29.282,145.0991 41.957,145.0991 L49.694,145.0991 C66.18,145.0991 79.544,131.7351 79.544,115.2491 L79.544,115.2411 C79.544,98.7561 66.18,85.3921 49.694,85.3921 L42.529,85.3921 C19.041,85.3921 0,66.3511 0,42.8631 C0,19.3741 19.041,0.3331 42.529,0.3331 L265.428,0.3331 C277.7,0.3331 287.648,10.2821 287.648,22.5531" mask="url(#b)"/>
    </g>
    <path fill="#36393E" d="M94.004 61.266C94.004 62.92 95.35 64.266 97.004 64.266L139.004 64.266C140.658 64.266 142.004 62.92 142.004 61.266L142.004 35.266 142.004 25.266C142.004 23.612 140.658 22.266 139.004 22.266L97.004 22.266C95.35 22.266 94.004 23.612 94.004 25.266L94.004 35.266 94.004 61.266zM173.5802 74.266L182.4282 74.266C183.2012 72.503 184.9592 71.266 187.0042 71.266L202.0042 71.266 202.0042 65.241C201.1652 65.875 200.1342 66.266 199.0042 66.266L157.0042 66.266C155.8742 66.266 154.8422 65.875 154.0042 65.241L154.0042 71.266 169.0042 71.266C171.0492 71.266 172.8062 72.503 173.5802 74.266M247.004 71.266L262.004 71.266 262.004 65.241C261.166 65.875 260.134 66.266 259.004 66.266L217.004 66.266C215.874 66.266 214.842 65.875 214.004 65.241L214.004 71.266 229.004 71.266C231.049 71.266 232.806 72.503 233.58 74.266L238.004 74.266C238.556 74.266 239.004 74.713 239.004 75.266L242.105 75.266C242.569 72.987 244.589 71.266 247.004 71.266"/>
    <path fill="#36393E" d="M145.8917 95.0706C145.6007 95.0106 145.3937 94.7556 145.3937 94.4586L145.3937 93.2936C145.3937 92.8736 145.7967 92.5806 146.1997 92.6946 147.7707 93.1366 148.9697 92.7576 148.9697 91.3216 148.9697 89.8476 146.6847 89.3616 145.5267 90.5136 145.2877 90.7526 144.9147 90.7876 144.6587 90.5686L143.2247 89.3456C142.9877 89.1436 142.9337 88.7966 143.0997 88.5336 146.0747 83.8256 153.0037 86.0066 153.0037 91.0696 152.4877 96.0136 147.5007 95.4006 145.8917 95.0706L145.8917 95.0706zM147.7467 101.8416C146.5507 101.8416 145.5947 100.8846 145.5947 99.6886 145.5947 98.4706 146.5507 97.4926 147.7467 97.4926 148.9647 97.4926 149.9437 98.4706 149.9437 99.6886 149.9437 100.8846 148.9647 101.8416 147.7467 101.8416L147.7467 101.8416zM172.0037 86.2656L172.0037 76.2656C172.0037 74.6116 170.6587 73.2656 169.0037 73.2656L127.0037 73.2656C125.3497 73.2656 124.0037 74.6116 124.0037 76.2656L124.0037 86.2656 124.0037 112.2656C124.0037 113.9206 125.3497 115.2656 127.0037 115.2656L169.0037 115.2656C170.6587 115.2656 172.0037 113.9206 172.0037 112.2656L172.0037 86.2656zM193.5802 125.266L202.4282 125.266C203.2012 123.503 204.9592 122.266 207.0042 122.266L232.0042 122.266 232.0042 116.241C231.1652 116.875 230.1342 117.266 229.0042 117.266L187.0042 117.266C185.8742 117.266 184.8422 116.875 184.0042 116.241L184.0042 122.266 189.0042 122.266C191.0492 122.266 192.8062 123.503 193.5802 125.266M292.004 116.2406C291.166 116.8756 290.134 117.2656 289.004 117.2656L247.004 117.2656C245.874 117.2656 244.842 116.8756 244.004 116.2406L244.004 122.2656 292.004 122.2656 292.004 116.2406zM82.004 167.2406C81.166 167.8756 80.134 168.2656 79.004 168.2656L47.004 168.2656C45.874 168.2656 44.842 167.8756 44.004 167.2406L44.004 173.2656C44.004 174.9206 45.35 176.2656 47.004 176.2656L79.004 176.2656C80.658 176.2656 82.004 174.9206 82.004 173.2656L82.004 167.2406zM132.004 167.2406C131.166 167.8756 130.134 168.2656 129.004 168.2656L97.004 168.2656C95.874 168.2656 94.842 167.8756 94.004 167.2406L94.004 173.2656C94.004 174.9206 95.35 176.2656 97.004 176.2656L129.004 176.2656C130.658 176.2656 132.004 174.9206 132.004 173.2656L132.004 167.2406zM129.004 124.266L97.004 124.266C95.35 124.266 94.004 125.612 94.004 127.266L94.004 137.266 94.004 163.266C94.004 164.92 95.35 166.266 97.004 166.266L129.004 166.266C130.658 166.266 132.004 164.92 132.004 163.266L132.004 137.266 132.004 127.266C132.004 125.612 130.658 124.266 129.004 124.266M157.255 168.266L147.004 168.266C145.874 168.266 144.842 167.875 144.004 167.241L144.004 173.266C144.004 174.92 145.35 176.266 147.004 176.266L189.004 176.266C190.658 176.266 192.004 174.92 192.004 173.266L192.004 167.241C191.166 167.875 190.134 168.266 189.004 168.266L162.922 168.266C162.37 168.266 161.922 167.819 161.922 167.266L158.255 167.266C158.255 167.819 157.807 168.266 157.255 168.266"/>
    <path fill="#1F2225" d="M184.004 22.266L185.587 22.266C186.14 22.266 186.587 21.819 186.587 21.266 186.587 20.713 186.14 20.266 185.587 20.266L184.004 20.266C183.452 20.266 183.004 20.713 183.004 21.266 183.004 21.819 183.452 22.266 184.004 22.266M60.422 116.266L60.422 116.266C60.422 115.713 59.974 115.266 59.422 115.266L14.01 115.266C13.458 115.266 13.01 115.713 13.01 116.266 13.011 116.819 13.458 117.266 14.01 117.266L59.422 117.266C59.974 117.266 60.422 116.819 60.422 116.266M64.752 117.266C65.304 117.266 65.752 116.819 65.752 116.266 65.752 115.713 65.304 115.266 64.752 115.266L64.211 115.266C63.659 115.266 63.211 115.713 63.211 116.266 63.212 116.819 63.659 117.266 64.211 117.266L64.752 117.266z"/>
    <path fill="#1F2225" d="M202.4278 125.266L193.5798 125.266C192.8058 123.503 191.0488 122.266 189.0038 122.266L184.0038 122.266 184.0038 116.241C184.8428 116.875 185.8738 117.266 187.0038 117.266L229.0038 117.266C230.1338 117.266 231.1658 116.875 232.0038 116.241L232.0038 122.266 207.0038 122.266C204.9588 122.266 203.2008 123.503 202.4278 125.266L202.4278 125.266zM192.0038 137.266L192.0038 163.266C192.0038 164.923 190.6608 166.266 189.0038 166.266L162.9218 166.266C162.3698 166.266 161.9218 166.713 161.9218 167.266 161.9218 167.819 162.3698 168.266 162.9218 168.266L189.0038 168.266 189.0378 168.266C190.6508 168.254 192.0038 169.453 192.0038 171.066L192.0038 173.266C192.0038 174.923 190.6608 176.266 189.0038 176.266L147.0038 176.266C145.3468 176.266 144.0038 174.923 144.0038 173.266L144.0038 171.066C144.0038 169.453 145.3578 168.254 146.9698 168.266L147.0038 168.266 157.2548 168.266C157.8068 168.266 158.2548 167.819 158.2548 167.266 158.2548 166.713 157.8068 166.266 157.2548 166.266L147.0038 166.266C145.3468 166.266 144.0038 164.923 144.0038 163.266L144.0038 137.266 144.0038 127.266C144.0038 125.609 145.3468 124.266 147.0038 124.266L189.0038 124.266C190.6608 124.266 192.0038 125.609 192.0038 127.266L192.0038 137.266zM142.4278 125.266L133.5798 125.266C132.8058 123.503 131.0488 122.266 129.0038 122.266L124.0038 122.266 124.0038 116.241C124.8428 116.875 125.8738 117.266 127.0038 117.266L169.0038 117.266C170.1338 117.266 171.1658 116.875 172.0038 116.241L172.0038 122.266 147.0038 122.266C144.9588 122.266 143.2008 123.503 142.4278 125.266L142.4278 125.266zM132.0038 137.266L132.0038 162.265C132.0038 163.919 130.6578 165.265 129.0038 165.265L97.0038 165.265C95.3498 165.265 94.0038 163.919 94.0038 162.265L94.0038 137.266 94.0038 127.266C94.0038 125.612 95.3498 124.266 97.0038 124.266L129.0038 124.266C130.6578 124.266 132.0038 125.612 132.0038 127.266L132.0038 137.266zM132.0038 173.266C132.0038 174.923 130.6608 176.266 129.0038 176.266L97.0038 176.266C95.3468 176.266 94.0038 174.923 94.0038 173.266L94.0038 171.066C94.0038 169.453 95.3578 168.254 96.9698 168.266L97.0038 168.266 129.0038 168.266 129.0378 168.266C130.6508 168.254 132.0038 169.453 132.0038 171.066L132.0038 173.266zM118.0038 121.265L116.0038 121.265C113.7948 121.265 112.0038 119.474 112.0038 117.265L112.0038 112.266 112.0038 86.266 112.0038 78.266C112.0038 77.162 112.8998 76.266 114.0038 76.266L120.0038 76.266C121.1088 76.266 122.0038 77.162 122.0038 78.266L122.0038 86.266 122.0038 112.266 122.0038 117.265C122.0038 119.474 120.2128 121.265 118.0038 121.265L118.0038 121.265zM107.0038 71.266L96.5138 71.266C95.1278 71.266 94.0038 70.142 94.0038 68.756L94.0038 68.752C94.0038 67.309 95.2168 66.151 96.6558 66.253 96.7708 66.262 96.8868 66.266 97.0038 66.266L139.0038 66.266C139.1208 66.266 139.2378 66.262 139.3528 66.253 140.7918 66.151 142.0038 67.309 142.0038 68.752L142.0038 68.756C142.0038 70.142 140.8808 71.266 139.4938 71.266L127.0038 71.266C125.3678 71.266 123.9158 72.058 123.0048 73.277 122.5138 73.933 121.7018 74.266 120.8828 74.266L113.1248 74.266C112.3058 74.266 111.4938 73.933 111.0038 73.277 110.0918 72.058 108.6398 71.266 107.0038 71.266L107.0038 71.266zM94.0038 35.266L94.0038 25.266C94.0038 23.612 95.3498 22.266 97.0038 22.266L139.0038 22.266C140.6578 22.266 142.0038 23.612 142.0038 25.266L142.0038 35.266 142.0038 61.266C142.0038 62.92 140.6578 64.266 139.0038 64.266L97.0038 64.266C95.3498 64.266 94.0038 62.92 94.0038 61.266L94.0038 35.266zM169.0038 73.266C170.6578 73.266 172.0038 74.612 172.0038 76.266L172.0038 86.266 172.0038 112.266C172.0038 113.92 170.6578 115.266 169.0038 115.266L127.0038 115.266C125.3498 115.266 124.0038 113.92 124.0038 112.266L124.0038 86.266 124.0038 76.266C124.0038 74.612 125.3498 73.266 127.0038 73.266L169.0038 73.266zM174.0038 112.266L174.0038 86.266 174.0038 78.266C174.0038 77.162 174.8998 76.266 176.0038 76.266L180.0038 76.266C181.1088 76.266 182.0038 77.162 182.0038 78.266L182.0038 86.266 182.0038 112.266 182.0038 117.265C182.0038 119.474 180.2128 121.265 178.0038 121.265 175.7948 121.265 174.0038 119.474 174.0038 117.265L174.0038 112.266zM154.0038 68.752C154.0038 67.309 155.2168 66.151 156.6558 66.253 156.7708 66.262 156.8868 66.266 157.0038 66.266L199.0038 66.266C199.1208 66.266 199.2378 66.262 199.3528 66.253 200.7918 66.151 202.0038 67.309 202.0038 68.752L202.0038 68.756C202.0038 70.142 200.8808 71.266 199.4938 71.266L187.0038 71.266C185.3678 71.266 183.9158 72.058 183.0048 73.277 182.5138 73.933 181.7018 74.266 180.8828 74.266L175.1248 74.266C174.3058 74.266 173.4938 73.933 173.0038 73.277 172.0918 72.058 170.6398 71.266 169.0038 71.266L156.5138 71.266C155.1278 71.266 154.0038 70.142 154.0038 68.756L154.0038 68.752zM229.0038 73.266C230.6578 73.266 232.0038 74.612 232.0038 76.266L232.0038 86.266 232.0038 111.265C232.0038 112.919 230.6578 114.265 229.0038 114.265L187.0038 114.265C185.3498 114.265 184.0038 112.919 184.0038 111.265L184.0038 86.266 184.0038 76.266C184.0038 74.612 185.3498 73.266 187.0038 73.266L229.0038 73.266zM214.0038 68.752C214.0038 67.309 215.2168 66.151 216.6558 66.253 216.7708 66.262 216.8868 66.266 217.0038 66.266L259.0038 66.266C259.1208 66.266 259.2378 66.262 259.3528 66.253 260.7918 66.151 262.0038 67.309 262.0038 68.752L262.0038 68.756C262.0038 70.142 260.8808 71.266 259.4938 71.266L247.0038 71.266C244.5898 71.266 242.5698 72.987 242.1048 75.266 242.0388 75.589 242.0038 75.924 242.0038 76.266L242.0038 86.266 242.0038 112.266 242.0038 117.265C242.0038 119.474 240.2128 121.265 238.0038 121.265 235.7948 121.265 234.0038 119.474 234.0038 117.265L234.0038 112.266 234.0038 86.266 234.0038 78.266C234.0038 77.162 234.8998 76.266 236.0038 76.266L238.0038 76.266C238.5558 76.266 239.0038 75.819 239.0038 75.266 239.0038 74.713 238.5558 74.266 238.0038 74.266L235.1248 74.266C234.3058 74.266 233.4938 73.933 233.0038 73.277 232.0918 72.058 230.6398 71.266 229.0038 71.266L216.5138 71.266C215.1278 71.266 214.0038 70.142 214.0038 68.756L214.0038 68.752zM214.0038 35.266L214.0038 25.266C214.0038 23.612 215.3498 22.266 217.0038 22.266L259.0038 22.266C260.6578 22.266 262.0038 23.612 262.0038 25.266L262.0038 35.266 262.0038 61.266C262.0038 62.92 260.6578 64.266 259.0038 64.266L217.0038 64.266C215.3498 64.266 214.0038 62.92 214.0038 61.266L214.0038 35.266zM289.0038 73.266C290.6578 73.266 292.0038 74.612 292.0038 76.266L292.0038 86.266 292.0038 111.265C292.0038 112.919 290.6578 114.265 289.0038 114.265L247.0038 114.265C245.3498 114.265 244.0038 112.919 244.0038 111.265L244.0038 86.266 244.0038 76.266C244.0038 74.612 245.3498 73.266 247.0038 73.266L289.0038 73.266zM292.0038 122.266L244.0038 122.266 244.0038 116.241C244.8428 116.875 245.8738 117.266 247.0038 117.266L289.0038 117.266C290.1338 117.266 291.1658 116.875 292.0038 116.241L292.0038 122.266zM82.0038 137.266L82.0038 163.266C82.0038 164.92 80.6578 166.266 79.0038 166.266L47.0038 166.266C45.3498 166.266 44.0038 164.92 44.0038 163.266L44.0038 137.266 44.0038 127.266C44.0038 125.612 45.3498 124.266 47.0038 124.266L79.0038 124.266C80.6578 124.266 82.0038 125.612 82.0038 127.266L82.0038 137.266zM82.0038 173.266C82.0038 174.92 80.6578 176.266 79.0038 176.266L47.0038 176.266C45.3498 176.266 44.0038 174.92 44.0038 173.266L44.0038 167.241C44.8428 167.875 45.8738 168.266 47.0038 168.266L79.0038 168.266C80.1338 168.266 81.1658 167.875 82.0038 167.241L82.0038 173.266zM291.7408 166.266L207.0038 166.266C205.3468 166.266 204.0038 164.923 204.0038 163.266L204.0038 137.266 204.0038 127.266C204.0038 125.609 205.3468 124.266 207.0038 124.266L314.6688 124.266C315.2208 124.266 315.6678 123.819 315.6688 123.266 315.6688 122.713 315.2208 122.266 314.6688 122.266L298.0038 122.266C295.7948 122.266 294.0038 120.475 294.0038 118.266L294.0038 112.266 294.0038 86.266 294.0038 76.266C294.0038 73.504 291.7648 71.266 289.0038 71.266L274.0038 71.266C268.4808 71.266 264.0038 66.788 264.0038 61.266L264.0038 35.266 264.0038 25.266C264.0038 22.504 261.7648 20.266 259.0038 20.266L217.0038 20.266C214.2428 20.266 212.0038 22.504 212.0038 25.266L212.0038 35.266 212.0038 61.266 212.0038 65.264C212.0038 67.474 210.2128 69.264 208.0038 69.264 205.7948 69.264 204.0038 67.474 204.0038 65.264L204.0038 61.266 204.0038 35.266 204.0038 25.266C204.0038 22.504 201.7648 20.266 199.0038 20.266L189.2548 20.266C188.7028 20.266 188.2548 20.713 188.2548 21.266 188.2548 21.819 188.7028 22.266 189.2548 22.266L199.0038 22.266C200.6608 22.266 202.0038 23.609 202.0038 25.266L202.0038 35.266 202.0038 59.264C202.0038 60.921 200.6608 62.264 199.0038 62.264L157.0038 62.264C155.3468 62.264 154.0038 60.921 154.0038 59.264L154.0038 35.266 154.0038 25.266C154.0038 23.609 155.3468 22.266 157.0038 22.266L180.0878 22.266C180.6398 22.266 181.0878 21.819 181.0878 21.266 181.0878 20.713 180.6398 20.266 180.0878 20.266L157.0038 20.266C154.2428 20.266 152.0038 22.504 152.0038 25.266L152.0038 35.266 152.0038 61.266 152.0038 65.264C152.0038 67.474 150.2128 69.264 148.0038 69.264 145.7948 69.264 144.0038 67.474 144.0038 65.264L144.0038 61.266 144.0038 35.266 144.0038 25.266C144.0038 22.504 141.7648 20.266 139.0038 20.266L97.0038 20.266C94.2428 20.266 92.0038 22.504 92.0038 25.266L92.0038 35.266 92.0038 61.266C92.0038 66.788 87.5268 71.266 82.0038 71.266L37.4218 71.266C36.8688 71.266 36.4218 71.713 36.4218 72.266 36.4218 72.819 36.8688 73.266 37.4218 73.266L107.0038 73.266C108.6608 73.266 110.0038 74.609 110.0038 76.266L110.0038 86.266 110.0038 112.266C110.0038 113.923 108.6608 115.266 107.0038 115.266L75.4188 115.266C74.8658 115.266 74.4188 115.713 74.4188 116.266 74.4188 116.819 74.8658 117.266 75.4188 117.266L107.0038 117.266C108.1338 117.266 109.1658 116.875 110.0038 116.241L110.0038 118.266C110.0038 120.475 108.2128 122.266 106.0038 122.266L97.0038 122.266C94.9588 122.266 93.2008 123.503 92.4278 125.266L83.5798 125.266C82.8058 123.503 81.0488 122.266 79.0038 122.266L47.0038 122.266C44.9588 122.266 43.2008 123.503 42.4278 125.266L33.6388 125.266C33.0868 125.266 32.6388 125.713 32.6388 126.266 32.6388 126.819 33.0868 127.266 33.6388 127.266L34.0038 127.266C38.4228 127.266 42.0038 130.848 42.0038 135.266L42.0038 137.266 42.0038 163.266 42.0038 173.266C42.0038 176.028 44.2428 178.266 47.0038 178.266L79.0038 178.266C81.7648 178.266 84.0038 176.028 84.0038 173.266L84.0038 163.266 84.0038 137.266 84.0038 129.266C84.0038 128.162 84.8998 127.266 86.0038 127.266L90.0038 127.266C91.1088 127.266 92.0038 128.162 92.0038 129.266L92.0038 137.266 92.0038 163.266 92.0038 173.266C92.0038 176.028 94.2428 178.266 97.0038 178.266L129.0038 178.266C131.7648 178.266 134.0038 176.028 134.0038 173.266L134.0038 163.266 134.0038 137.266 134.0038 129.266C134.0038 128.162 134.8998 127.266 136.0038 127.266L140.0038 127.266C141.1088 127.266 142.0038 128.162 142.0038 129.266L142.0038 137.266 142.0038 163.266 142.0038 173.266C142.0038 176.028 144.2428 178.266 147.0038 178.266L189.0038 178.266C191.7648 178.266 194.0038 176.028 194.0038 173.266L194.0038 163.266 194.0038 137.266 194.0038 129.266C194.0038 128.162 194.8998 127.266 196.0038 127.266L200.0038 127.266C201.1088 127.266 202.0038 128.162 202.0038 129.266L202.0038 137.266 202.0038 163.266 202.0038 173.266C202.0038 176.028 204.2428 178.266 207.0038 178.266L278.7368 178.266C279.2888 178.266 279.7368 177.819 279.7368 177.266 279.7368 176.713 279.2888 176.266 278.7368 176.266L207.0038 176.266C205.3468 176.266 204.0038 174.923 204.0038 173.266L204.0038 171.222C204.0038 169.585 205.3338 168.26 206.9698 168.266L207.0038 168.266 291.7408 168.266C292.2928 168.266 292.7408 167.819 292.7408 167.266 292.7408 166.713 292.2928 166.266 291.7408 166.266L291.7408 166.266zM298.9874 166.266L296.7414 166.266C296.1894 166.266 295.7414 166.713 295.7414 167.266 295.7414 167.819 296.1894 168.266 296.7414 168.266L298.9874 168.266C299.5394 168.266 299.9874 167.819 299.9874 167.266 299.9874 166.713 299.5394 166.266 298.9874 166.266"/>
    <path fill="#1F2225" d="M147.7472 97.4925C146.5512 97.4925 145.5942 98.4715 145.5942 99.6885 145.5942 100.8855 146.5512 101.8425 147.7472 101.8425 148.9652 101.8425 149.9432 100.8855 149.9432 99.6885 149.9432 98.4715 148.9652 97.4925 147.7472 97.4925M144.6588 90.5687C144.9148 90.7877 145.2878 90.7527 145.5268 90.5137 146.6848 89.3617 148.9698 89.8477 148.9698 91.3217 148.9698 92.7577 147.7708 93.1367 146.1998 92.6947 145.7968 92.5807 145.3938 92.8737 145.3938 93.2937L145.3938 94.4587C145.3938 94.7557 145.6008 95.0107 145.8918 95.0707 147.5008 95.4007 152.4878 96.0137 153.0038 91.0697 153.0038 86.0067 146.0748 83.8257 143.0998 88.5337 142.9338 88.7967 142.9878 89.1437 143.2238 89.3457L144.6588 90.5687zM167.7472 148.4925C166.5512 148.4925 165.5942 149.4715 165.5942 150.6885 165.5942 151.8855 166.5512 152.8425 167.7472 152.8425 168.9652 152.8425 169.9432 151.8855 169.9432 150.6885 169.9432 149.4715 168.9652 148.4925 167.7472 148.4925M163.1002 139.5335C162.9342 139.7965 162.9872 140.1435 163.2242 140.3455L164.6592 141.5685C164.9152 141.7875 165.2882 141.7525 165.5272 141.5135 166.6842 140.3615 168.9702 140.8475 168.9702 142.3215 168.9702 143.7585 167.7712 144.1375 166.1992 143.6945 165.7962 143.5805 165.3932 143.8735 165.3932 144.2935L165.3932 145.4585C165.3932 145.7555 165.6002 146.0115 165.8922 146.0705 167.5002 146.4005 172.4882 147.0135 173.0042 142.0695 173.0042 137.0065 166.0742 134.8255 163.1002 139.5335M67.1881 41.266L67.1881 41.266C68.0221 41.266 68.6981 41.942 68.6981 42.776L68.6981 42.777C68.6981 43.329 69.1461 43.777 69.6981 43.777 70.2511 43.777 70.6981 43.329 70.6981 42.777L70.6981 42.776C70.6981 41.942 71.3741 41.266 72.2081 41.266 72.7601 41.266 73.2081 40.819 73.2081 40.266 73.2081 39.713 72.7601 39.266 72.2081 39.266 71.3741 39.266 70.6981 38.59 70.6981 37.756 70.6981 37.204 70.2511 36.756 69.6981 36.756 69.1461 36.756 68.6981 37.204 68.6981 37.756 68.6981 38.59 68.0221 39.266 67.1881 39.266L67.1881 39.266C66.6361 39.266 66.1881 39.713 66.1881 40.266 66.1881 40.819 66.6361 41.266 67.1881 41.266M307.5782 101.6693L307.5782 101.6693C308.4122 101.6693 309.0882 102.3463 309.0882 103.1793 309.0882 103.7323 309.5362 104.1793 310.0882 104.1793 310.6412 104.1793 311.0882 103.7323 311.0882 103.1793 311.0882 102.3463 311.7652 101.6693 312.5982 101.6693L312.5992 101.6693C313.1512 101.6693 313.5992 101.2223 313.5992 100.6693 313.5992 100.1163 313.1512 99.6693 312.5992 99.6693L312.5982 99.6693C311.7652 99.6693 311.0882 98.9933 311.0882 98.1593 311.0882 97.6073 310.6412 97.1593 310.0882 97.1593 309.5362 97.1593 309.0882 97.6073 309.0882 98.1593 309.0882 98.9933 308.4122 99.6693 307.5782 99.6693L307.5782 99.6693C307.0262 99.6693 306.5782 100.1163 306.5782 100.6693 306.5782 101.2223 307.0262 101.6693 307.5782 101.6693M30.9273 58.2181C31.1833 58.2181 31.4393 58.1201 31.6343 57.9251L32.8183 56.7411C33.2083 56.3511 33.2083 55.7181 32.8183 55.3271 32.4273 54.9371 31.7943 54.9371 31.4043 55.3271L30.2203 56.5111C29.8293 56.9021 29.8293 57.5341 30.2203 57.9251 30.4153 58.1201 30.6713 58.2181 30.9273 58.2181M25.0113 64.1341C25.2673 64.1341 25.5233 64.0361 25.7183 63.8411L26.9013 62.6571C27.2923 62.2671 27.2923 61.6341 26.9013 61.2431 26.5113 60.8531 25.8773 60.8531 25.4873 61.2431L24.3043 62.4271C23.9133 62.8181 23.9133 63.4501 24.3043 63.8411 24.4993 64.0361 24.7553 64.1341 25.0113 64.1341M31.4039 63.8411C31.5989 64.0361 31.8549 64.1341 32.1109 64.1341 32.3669 64.1341 32.6229 64.0361 32.8179 63.8411 33.2089 63.4501 33.2089 62.8181 32.8179 62.4271L31.6339 61.2431C31.2439 60.8531 30.6109 60.8531 30.2199 61.2431 29.8299 61.6341 29.8299 62.2671 30.2199 62.6571L31.4039 63.8411zM25.4874 57.9251C25.6824 58.1201 25.9384 58.2181 26.1944 58.2181 26.4504 58.2181 26.7064 58.1201 26.9014 57.9251 27.2924 57.5341 27.2924 56.9021 26.9014 56.5111L25.7184 55.3271C25.3274 54.9371 24.6954 54.9371 24.3044 55.3271 23.9134 55.7181 23.9134 56.3511 24.3044 56.7411L25.4874 57.9251zM290.4601 48.4515C290.7161 48.4515 290.9721 48.3535 291.1671 48.1585L292.3501 46.9745C292.7411 46.5845 292.7411 45.9515 292.3501 45.5605 291.9601 45.1705 291.3261 45.1705 290.9361 45.5605L289.7531 46.7445C289.3621 47.1355 289.3621 47.7675 289.7531 48.1585 289.9481 48.3535 290.2041 48.4515 290.4601 48.4515M284.5435 54.3675C284.7995 54.3675 285.0555 54.2695 285.2505 54.0745L286.4335 52.8905C286.8245 52.5005 286.8245 51.8675 286.4335 51.4765 286.0435 51.0865 285.4095 51.0865 285.0195 51.4765L283.8365 52.6605C283.4455 53.0515 283.4455 53.6835 283.8365 54.0745 284.0315 54.2695 284.2875 54.3675 284.5435 54.3675M290.9361 54.0745C291.1311 54.2695 291.3871 54.3675 291.6431 54.3675 291.8991 54.3675 292.1551 54.2695 292.3501 54.0745 292.7411 53.6835 292.7411 53.0515 292.3501 52.6605L291.1671 51.4765C290.7761 51.0865 290.1441 51.0865 289.7531 51.4765 289.3621 51.8675 289.3621 52.5005 289.7531 52.8905L290.9361 54.0745zM285.0196 48.1585C285.2146 48.3535 285.4706 48.4515 285.7266 48.4515 285.9826 48.4515 286.2386 48.3535 286.4336 48.1585 286.8246 47.7675 286.8246 47.1355 286.4336 46.7445L285.2506 45.5605C284.8596 45.1705 284.2276 45.1705 283.8366 45.5605 283.4456 45.9515 283.4456 46.5845 283.8366 46.9745L285.0196 48.1585zM58.8751 19.266C59.7081 19.266 60.3851 19.944 60.3851 20.777 60.3851 21.609 59.7081 22.287 58.8751 22.287 58.0421 22.287 57.3651 21.609 57.3651 20.777 57.3651 19.944 58.0421 19.266 58.8751 19.266M58.8751 24.287C60.8111 24.287 62.3851 22.712 62.3851 20.777 62.3851 18.841 60.8111 17.266 58.8751 17.266 56.9401 17.266 55.3651 18.841 55.3651 20.777 55.3651 22.712 56.9401 24.287 58.8751 24.287"/>
    <g transform="translate(334 85.667)">
      <mask id="d" fill="white">
        <use xlink:href="#c"/>
      </mask>
      <path fill="#4F545C" d="M21.0602,47.599 L21.0602,47.599 C32.6102,47.599 42.0602,38.149 42.0602,26.599 L42.0602,21.263 C42.0602,9.713 32.6102,0.263 21.0602,0.263 C9.5102,0.263 0.0602,9.713 0.0602,21.263 L0.0602,26.599 C0.0602,38.149 9.5102,47.599 21.0602,47.599" mask="url(#d)"/>
    </g>
    <path fill="#36393E" d="M229.004 73.266C230.658 73.266 232.004 74.612 232.004 76.266L232.004 86.266 232.004 111.265C232.004 112.919 230.658 114.265 229.004 114.265L187.004 114.265C185.35 114.265 184.004 112.919 184.004 111.265L184.004 86.266 184.004 76.266C184.004 74.612 185.35 73.266 187.004 73.266L229.004 73.266zM82.004 137.266L82.004 163.266C82.004 164.92 80.658 166.266 79.004 166.266L47.004 166.266C45.35 166.266 44.004 164.92 44.004 163.266L44.004 137.266 44.004 127.266C44.004 125.612 45.35 124.266 47.004 124.266L79.004 124.266C80.658 124.266 82.004 125.612 82.004 127.266L82.004 137.266z"/>
    <path fill="#4F545C" d="M107.004,71.266 L96.514,71.266 C95.128,71.266 94.004,70.142 94.004,68.756 L94.004,68.752 C94.004,67.309 95.216,66.151 96.655,66.253 C96.771,66.262 96.887,66.266 97.004,66.266 L139.004,66.266 C139.121,66.266 139.237,66.262 139.353,66.253 C140.792,66.151 142.004,67.309 142.004,68.752 L142.004,68.756 C142.004,70.142 140.88,71.266 139.494,71.266 L127.004,71.266 C125.368,71.266 123.916,72.058 123.004,73.277 C122.514,73.933 121.702,74.266 120.883,74.266 L113.125,74.266 C112.306,74.266 111.494,73.933 111.004,73.277 C110.092,72.058 108.64,71.266 107.004,71.266"/>
    <rect width="378" height="192"/>
  </g>
</svg>
