<svg height="136" viewBox="0 0 157 136" width="157" xmlns="http://www.w3.org/2000/svg" xmlns:xlink="http://www.w3.org/1999/xlink"><mask id="a" fill="#fff"><path d="m.792.31h155.499v108.676h-155.499z" fill="#fff" fill-rule="evenodd"/></mask><mask id="b" fill="#fff"><path d="m.788.819h123.079v135.181h-123.079z" fill="#fff" fill-rule="evenodd"/></mask><g fill="none" fill-rule="nonzero" transform="translate(0 -1)"><path d="m41.5827 108.9863h90.446c13.4 0 24.263-10.863 24.263-24.263s-10.863-24.262-24.263-24.262h-29.715c-10.071 0-18.236-8.165-18.236-18.238 0-10.072 8.165-18.237 18.236-18.237h7.102c6.538 0 11.838-5.3 11.838-11.838s-5.3-11.838-11.838-11.838h-80.519c-15.522 0-28.105 12.583-28.105 28.106 0 15.521 12.583 28.105 28.105 28.105h14.647c10.303 0 18.654 8.352 18.654 18.654s-8.351 18.655-18.654 18.655h-1.961c-4.186 0-7.578 3.392-7.578 7.578 0 4.184 3.392 7.578 7.578 7.578" fill="#f6f6f7" fill-opacity=".1" mask="url(#a)" transform="translate(0 15.181)"/><path d="m143.8669 68.7483v-4.698c0-.552-.449-1-1-1h-15.52v21.777h15.52c.551 0 1-.448 1-1v-4.698zm-49.2803-56.2568c0 .553-.447 1-1 1h-17.222c-.552 0-1-.447-1-1s.448-1 1-1h17.222c.553 0 1 .447 1 1zm-1 7h-17.222c-.552 0-1-.447-1-1s.448-1 1-1h17.222c.553 0 1 .447 1 1s-.447 1-1 1zm0 6h-17.222c-.552 0-1-.447-1-1s.448-1 1-1h17.222c.553 0 1 .447 1 1s-.447 1-1 1zm-2.09-21.078c-2.086-.938-4.313-1.413-6.622-1.413-8.919 0-16.175 7.256-16.175 16.175 0 2.956.824 5.865 2.38 8.412.241.394.181.902-.146 1.228l-16.516 16.516 2.697-.245h6.15l11.969-11.97c.328-.327.834-.387 1.229-.146 2.548 1.556 5.457 2.379 8.412 2.379 8.919 0 16.175-7.255 16.175-16.174 0-4.43-1.756-8.564-4.943-11.64-.387-.374-.402-.98-.048-1.378-.996-.857-2.089-1.6-3.263-2.212-.239.475-.809.687-1.299.468zm-50.452 80.4139v-21.777h-15.257c-.552 0-1 .448-1 1v4.698 10.381 4.698c0 .553.448 1 1 1z" fill="#dcddde"/><path d="m117.7956 81.0813c-.33 0-.662-.108-.939-.332l-4.113-3.311c-.61-.49-.95-1.221-.931-2.004.017-.784.39-1.499 1.023-1.96l4.075-2.983c.668-.491 1.607-.345 2.097.324.489.668.344 1.607-.325 2.096l-3.55 2.6 3.604 2.902c.646.519.748 1.463.229 2.108-.297.369-.732.56-1.17.56zm-11.523-1.208c0 9.241-7.518 16.759-16.759 16.759h-11.557c-9.241 0-16.759-7.518-16.759-16.759v-7.004c0-3.931 3.198-7.129 7.128-7.129h20.702c.553 0 1 .447 1 1h4.614c0-.553.448-1 1-1h3.503c3.93 0 7.128 3.198 7.128 7.129zm-22.077 50.294c-4.97 0-9-4.029-9-9s4.03-9 9-9c4.971 0 9 4.029 9 9s-4.029 9-9 9zm-29.254-52.358-4.078 2.983c-.266.195-.577.289-.884.289-.462 0-.918-.213-1.211-.614-.49-.669-.344-1.608.324-2.097l3.551-2.598-3.606-2.903c-.645-.519-.747-1.464-.227-2.108.519-.645 1.464-.747 2.109-.228l4.112 3.312c.61.49.95 1.22.932 2.004-.018.782-.391 1.497-1.022 1.96zm70.406-16.653c0-7.759-6.312-14.07-14.071-14.07h-54.162c-7.758 0-14.07 6.311-14.07 14.07v28.299c0 8.883 21.514 17.627 28.107 20.096.863.322 1.35 1.18 1.186 2.086-.164.909-.925 1.544-1.85 1.544h-.792c-5.79 0-10.5 4.71-10.5 10.5s4.71 10.5 10.5 10.5h29c5.789 0 10.5-4.71 10.5-10.5s-4.711-10.5-10.5-10.5c-.942 0-1.706-.65-1.856-1.579-.149-.925.367-1.778 1.257-2.074 8.194-2.72 27.251-10.125 27.251-20.073z" fill="#f6f6f7"/><path d="m90.4099 79.0335c0 .828-.671 1.5-1.5 1.5-.828 0-1.5-.672-1.5-1.5 0-.829.672-1.5 1.5-1.5.829 0 1.5.671 1.5 1.5m1.5-5.5c.829 0 1.5.671 1.5 1.5 0 .828-.671 1.5-1.5 1.5-.828 0-1.5-.672-1.5-1.5 0-.829.672-1.5 1.5-1.5m-6 11c-.828 0-1.5-.672-1.5-1.5 0-.829.672-1.5 1.5-1.5.829 0 1.5.671 1.5 1.5 0 .828-.671 1.5-1.5 1.5m-3 4c-.828 0-1.5-.672-1.5-1.5 0-.829.672-1.5 1.5-1.5.829 0 1.5.671 1.5 1.5 0 .828-.671 1.5-1.5 1.5m-3-4c-.828 0-1.5-.672-1.5-1.5 0-.829.672-1.5 1.5-1.5.829 0 1.5.671 1.5 1.5 0 .828-.671 1.5-1.5 1.5m-3-4c-.828 0-1.5-.672-1.5-1.5 0-.829.672-1.5 1.5-1.5.829 0 1.5.671 1.5 1.5 0 .828-.671 1.5-1.5 1.5m-3-4c-.828 0-1.5-.672-1.5-1.5 0-.829.672-1.5 1.5-1.5.829 0 1.5.671 1.5 1.5 0 .828-.671 1.5-1.5 1.5m6-3c.829 0 1.5.671 1.5 1.5 0 .828-.671 1.5-1.5 1.5-.828 0-1.5-.672-1.5-1.5 0-.829.672-1.5 1.5-1.5m3 4c.829 0 1.5.671 1.5 1.5 0 .828-.671 1.5-1.5 1.5-.828 0-1.5-.672-1.5-1.5 0-.829.672-1.5 1.5-1.5m3-4c.829 0 1.5.671 1.5 1.5 0 .828-.671 1.5-1.5 1.5-.828 0-1.5-.672-1.5-1.5 0-.829.672-1.5 1.5-1.5m3.118-5.793h-20.702c-2.827 0-5.128 2.301-5.128 5.129v7.004c0 8.138 6.621 14.759 14.759 14.759h11.557c8.137 0 14.758-6.621 14.758-14.759v-7.004c0-2.828-2.3-5.129-5.128-5.129h-3.503c-.551 0-.999-.447-1-1h-4.613c0 .553-.447 1-1 1" fill="#fff"/><path d="m99.1442 65.7405h-3.503c-.552 0-1 .447-1 1 .001.553.448 1 1 1h3.503c2.827 0 5.128 2.301 5.128 5.129v7.004c0 8.138-6.621 14.759-14.759 14.759h-11.556c-8.138 0-14.759-6.621-14.759-14.759v-7.004c0-2.828 2.3-5.129 5.128-5.129h20.702c.553 0 1-.447 1-1s-.447-1-1-1h-20.702c-3.931 0-7.128 3.198-7.128 7.129v7.004c0 9.241 7.517 16.759 16.759 16.759h11.556c9.241 0 16.759-7.518 16.759-16.759v-7.004c0-3.931-3.197-7.129-7.128-7.129m-23.7793-53.249c0 .553.447 1 1 1h17.222c.552 0 1-.447 1-1s-.448-1-1-1h-17.222c-.553 0-1 .447-1 1m18.2217 11h-17.222c-.552 0-1 .447-1 1s.448 1 1 1h17.222c.553 0 1-.447 1-1s-.447-1-1-1m0-6h-17.222c-.552 0-1 .447-1 1s.448 1 1 1h17.222c.553 0 1-.447 1-1s-.447-1-1-1m-9.3906 94.6758c-4.971 0-9 4.029-9 9s4.029 9 9 9 9-4.029 9-9-4.029-9-9-9" fill="#b9bbbe"/><path d="m83.1452 124.1839v-6.034c0-.411-.468-.647-.798-.402l-4.063 3.018c-.27.199-.27.603 0 .803l4.063 3.016c.33.245.798.01.798-.401m2.8994.4014 4.063-3.017c.27-.2.27-.603 0-.802l-4.063-3.018c-.33-.245-.798-.01-.798.401v6.035c0 .411.468.646.798.401" fill="#f6f6f7"/><g fill="#b9bbbe"><path d="m73.9099 73.5335c-.828 0-1.5.671-1.5 1.5 0 .828.672 1.5 1.5 1.5.829 0 1.5-.672 1.5-1.5 0-.829-.671-1.5-1.5-1.5zm6 3c.829 0 1.5-.672 1.5-1.5 0-.829-.671-1.5-1.5-1.5-.828 0-1.5.671-1.5 1.5 0 .828.672 1.5 1.5 1.5zm6 0c.829 0 1.5-.672 1.5-1.5 0-.829-.671-1.5-1.5-1.5-.828 0-1.5.671-1.5 1.5 0 .828.672 1.5 1.5 1.5zm6 0c.829 0 1.5-.672 1.5-1.5 0-.829-.671-1.5-1.5-1.5-.828 0-1.5.671-1.5 1.5 0 .828.672 1.5 1.5 1.5zm-15 1c-.828 0-1.5.671-1.5 1.5 0 .828.672 1.5 1.5 1.5.829 0 1.5-.672 1.5-1.5 0-.829-.671-1.5-1.5-1.5zm6 3c.829 0 1.5-.672 1.5-1.5 0-.829-.671-1.5-1.5-1.5-.828 0-1.5.671-1.5 1.5 0 .828.672 1.5 1.5 1.5zm4.5-1.5c0 .828.672 1.5 1.5 1.5.829 0 1.5-.672 1.5-1.5 0-.829-.671-1.5-1.5-1.5-.828 0-1.5.671-1.5 1.5zm-7.5 2.5c-.828 0-1.5.671-1.5 1.5 0 .828.672 1.5 1.5 1.5.829 0 1.5-.672 1.5-1.5 0-.829-.671-1.5-1.5-1.5zm6 0c-.828 0-1.5.671-1.5 1.5 0 .828.672 1.5 1.5 1.5.829 0 1.5-.672 1.5-1.5 0-.829-.671-1.5-1.5-1.5zm-3 4c-.828 0-1.5.671-1.5 1.5 0 .828.672 1.5 1.5 1.5.829 0 1.5-.672 1.5-1.5 0-.829-.671-1.5-1.5-1.5zm49.6445 48.6475h-6.207c-.552 0-1 .447-1 1s.448 1 1 1h6.207c.553 0 1-.447 1-1s-.447-1-1-1zm5.916-101.2559c.256 0 .513-.098.707-.293l1.184-1.184c.39-.39.39-1.023 0-1.414-.391-.39-1.025-.39-1.414 0l-1.184 1.184c-.391.391-.391 1.023 0 1.414.195.195.451.293.707.293zm-5.916 5.916c.256 0 .512-.098.707-.293l1.184-1.184c.39-.39.39-1.023 0-1.414-.391-.39-1.024-.39-1.414 0l-1.184 1.184c-.391.391-.391 1.023 0 1.414.195.195.451.293.707.293zm6.3926-.293c.195.195.451.293.707.293s.512-.098.707-.293c.391-.391.391-1.023 0-1.414l-1.184-1.184c-.39-.39-1.023-.39-1.414 0-.39.391-.39 1.024 0 1.414zm-5.9161-5.916c.195.195.451.293.707.293s.512-.098.707-.293c.391-.391.391-1.023 0-1.414l-1.184-1.184c-.39-.39-1.023-.39-1.414 0-.39.391-.39 1.024 0 1.414zm1.0928 71.8672h-1.51v-1.51c0-.553-.447-1-1-1-.552 0-1 .447-1 1v1.51h-1.51c-.552 0-1 .447-1 1s.448 1 1 1h1.51v1.511c0 .552.448 1 1 1 .553 0 1-.448 1-1v-1.511h1.51c.553 0 1-.447 1-1s-.447-1-1-1zm-103.7178-62.7402h1.511v1.511c0 .552.447 1 1 1 .552 0 1-.448 1-1v-1.511h1.51c.551 0 1-.447 1-1s-.449-1-1-1h-1.51v-1.51c0-.552-.448-1-1-1-.553 0-1 .448-1 1v1.51h-1.511c-.552 0-1 .447-1 1s.448 1 1 1zm88.3311 36.6543-1.576-1.27c-1.024-.824-.988-2.394.072-3.17l1.449-1.062c.669-.489.815-1.428.326-2.096-.491-.669-1.429-.815-2.097-.324l-4.075 2.983c-.633.461-1.006 1.176-1.024 1.96-.018.783.321 1.514.932 2.004l4.112 3.311c.277.224.61.332.94.332.438 0 .873-.191 1.17-.56.519-.645.417-1.589-.229-2.108zm-67.8174-7.8799c-.646-.52-1.59-.417-2.109.228-.52.644-.418 1.588.227 2.108l1.576 1.269c1.025.825.989 2.396-.073 3.172l-1.382 1.011c-.601.441-.86 1.259-.525 1.925.273.544.806.835 1.346.835.307 0 .618-.094.884-.289l4.077-2.984c.632-.463 1.005-1.177 1.023-1.96s-.322-1.513-.932-2.003z"/><path d="m2.7878 83.6464v-4.698h6.712c1.104 0 2-.895 2-2v-6.381c0-1.106-.896-2-2-2h-6.712v-4.698c0-.552.448-1 1-1h11.257c2.209 0 4 1.791 4 4v13.777c0 2.209-1.791 4-4 4h-11.257c-.552 0-1-.447-1-1m73.309 25.701c-.89.296-1.407 1.149-1.257 2.073.15.93.914 1.58 1.856 1.58 5.789 0 10.5 4.709 10.5 10.5 0 5.79-4.711 10.5-10.5 10.5h-29c-5.79 0-10.5-4.71-10.5-10.5 0-5.791 4.71-10.5 10.5-10.5h.792c.925 0 1.686-.635 1.85-1.544.164-.906-.323-1.764-1.186-2.086-6.593-2.469-28.107-11.213-28.107-20.096v-28.299c0-7.759 6.311-14.07 14.07-14.07h54.162c7.759 0 14.071 6.311 14.071 14.07v28.299c0 9.948-19.057 17.352-27.251 20.073m44.77-24.701h-11.519c-2.209 0-4-1.791-4-4v-13.777c0-2.209 1.791-4 4-4h11.519c.552 0 1 .448 1 1v4.698h-6.712c-1.104 0-2 .894-2 2v6.381c0 1.105.896 2 2 2h6.712v4.698c0 .553-.448 1-1 1m0-23.777h-13.102c-1.299 0-2.404-.951-2.592-2.236-1.138-7.755-7.83-13.728-15.896-13.728h-40.676c-1.664 0-2.497-2.012-1.321-3.189l3.539-3.539c1.811-1.809 4.465-2.487 6.919-1.758 1.663.495 3.393.749 5.137.749 10.021 0 18.175-8.153 18.175-18.174 0-4.978-1.973-9.622-5.555-13.079-.396-.384-1.03-.372-1.414.025-.011.011-.014.025-.022.036-.354.399-.339 1.004.047 1.378 3.188 3.076 4.944 7.21 4.944 11.64 0 8.919-7.256 16.174-16.175 16.174-2.947 0-5.848-.818-8.391-2.367-.403-.245-.916-.2-1.25.134l-9.649 9.649c-1.485 1.486-3.501 2.321-5.602 2.321h-2.681c-.921 0-1.385-1.112-.737-1.766l14.369-14.505c.333-.333.378-.846.133-1.249-1.549-2.542-2.367-5.443-2.367-8.391 0-8.919 7.256-16.175 16.175-16.175 2.309 0 4.536.475 6.622 1.413.49.219 1.06.007 1.299-.468.006-.013.017-.021.023-.034.227-.504.002-1.096-.502-1.322-2.345-1.055-4.849-1.589-7.442-1.589-10.022 0-18.175 8.153-18.175 18.175 0 1.744.254 3.473.749 5.135.73 2.454.052 5.11-1.759 6.919l-12.638 12.639c-1.379 1.38-2.855 2.674-4.503 3.718-3.888 2.459-6.654 6.533-7.335 11.276-.183 1.269-1.306 2.188-2.586 2.188h-12.845c-1.657 0-2.995 1.342-2.995 3v19.777c0 1.657 1.344 3 3 3h12.629c1.451 0 2.628 1.177 2.628 2.628 0 9.324 17.611 17.485 28.662 21.688.02.008.014.038-.009.038h-.002c-5.316 0-10.189 3.307-11.831 8.363-1.39 4.28-.517 8.392 1.713 11.458.964 1.325.03 3.179-1.607 3.179h-21.87c-.553 0-1 .447-1 1 0 .552.447 1 1 1h33.595 29 21.595c.553 0 1-.448 1-1 0-.553-.447-1-1-1h-9.868c-1.623 0-2.587-1.842-1.629-3.151 1.51-2.062 2.402-4.602 2.402-7.349 0-6.627-5.183-12.065-11.711-12.476-.019-.001-.024-.024-.007-.031 10.756-3.649 27.87-11.123 27.87-21.719 0-1.451 1.176-2.628 2.628-2.628h12.891c1.656 0 3-1.343 3-3v-19.777c0-1.658-1.344-3-3-3" mask="url(#b)" transform="translate(22 .181)"/></g></g></svg>