<svg width="145" height="116" viewBox="0 0 145 116" fill="none" xmlns="http://www.w3.org/2000/svg">
<path fill-rule="evenodd" clip-rule="evenodd" d="M20.6816 48.9135C21.6733 48.9265 22.6301 48.5482 23.3449 47.8607C24.0596 47.1731 24.4746 46.2316 24.4999 45.2401C24.475 44.2526 24.0683 43.3132 23.3653 42.6192C22.6623 41.9252 21.7177 41.5306 20.7299 41.5185H18.6033C17.6155 41.5306 16.6709 41.9252 15.9679 42.6192C15.2649 43.3132 14.8582 44.2526 14.8333 45.2401C14.8585 46.2231 15.2668 47.1574 15.9711 47.8436C16.6754 48.5299 17.6199 48.9138 18.6033 48.9135H20.6816ZM98.6433 93.7185C103.199 91.7889 107.318 88.9588 110.754 85.3981C114.189 81.8373 116.869 77.6193 118.634 72.9971C120.399 68.3749 121.212 63.4437 121.024 58.4996C120.837 53.5554 119.652 48.7002 117.542 44.2251C114.52 37.979 109.856 32.6729 104.049 28.8754C98.2425 25.0779 91.5116 22.9323 84.5783 22.6685H45.9116C45.1152 22.5952 44.3123 22.6889 43.5542 22.9434C42.7961 23.1979 42.0993 23.6078 41.5085 24.1468C40.9177 24.6858 40.4458 25.342 40.1229 26.0737C39.8 26.8053 39.6332 27.5962 39.6332 28.396C39.6332 29.1957 39.8 29.9866 40.1229 30.7183C40.4458 31.4499 40.9177 32.1062 41.5085 32.6451C42.0993 33.1841 42.7961 33.594 43.5542 33.8485C44.3123 34.103 45.1152 34.1967 45.9116 34.1235H55.7233C56.2443 34.0638 56.7721 34.1149 57.272 34.2735C57.7719 34.4321 58.2327 34.6945 58.6241 35.0437C59.0155 35.3928 59.3286 35.8207 59.5431 36.2993C59.7575 36.7779 59.8684 37.2965 59.8684 37.821C59.8684 38.3454 59.7575 38.864 59.5431 39.3426C59.3286 39.8212 59.0155 40.2491 58.6241 40.5982C58.2327 40.9474 57.7719 41.2098 57.272 41.3684C56.7721 41.527 56.2443 41.5781 55.7233 41.5185H31.3149C30.3234 41.5184 29.3717 41.9089 28.6661 42.6055C27.9604 43.3021 27.5576 44.2487 27.5449 45.2401C27.5512 45.7289 27.6537 46.2116 27.8466 46.6607C28.0395 47.1098 28.319 47.5166 28.6691 47.8577C29.0191 48.1988 29.433 48.4676 29.887 48.6487C30.341 48.8299 30.8262 48.9198 31.3149 48.9135H48.6666C49.1553 48.9135 49.6393 49.0097 50.0908 49.1967C50.5423 49.3838 50.9526 49.6579 51.2982 50.0035C51.6438 50.3491 51.9179 50.7594 52.105 51.2109C52.292 51.6624 52.3883 52.1464 52.3883 52.6351C52.3883 53.1239 52.292 53.6078 52.105 54.0593C51.9179 54.5109 51.6438 54.9211 51.2982 55.2667C50.9526 55.6123 50.5423 55.8865 50.0908 56.0735C49.6393 56.2605 49.1553 56.3568 48.6666 56.3568H37.8399C37.3512 56.3504 36.866 56.4403 36.412 56.6215C35.958 56.8027 35.5441 57.0715 35.1941 57.4126C34.844 57.7537 34.5645 58.1604 34.3716 58.6095C34.1787 59.0587 34.0762 59.5414 34.0699 60.0301C34.0826 61.0216 34.4854 61.9681 35.1911 62.6647C35.8967 63.3613 36.8484 63.7519 37.8399 63.7518H45.3799C45.8196 67.8369 46.93 71.8215 48.6666 75.5451C53.0279 84.451 60.6711 91.3199 69.9905 94.7088C79.31 98.0977 89.5801 97.7427 98.6433 93.7185ZM63.5049 68.6335C62.3163 66.0944 61.6488 63.3428 61.5417 60.5414C61.4346 57.7399 61.8902 54.9454 62.8815 52.3231C63.8728 49.7007 65.3796 47.3036 67.3131 45.2735C69.2465 43.2434 71.5673 41.6214 74.1383 40.5035C79.3302 38.136 85.2445 37.9037 90.606 39.8567C95.9676 41.8097 100.347 45.7914 102.8 50.9435C103.982 53.4836 104.644 56.2343 104.748 59.034C104.851 61.8337 104.394 64.6259 103.404 67.2465C102.413 69.8671 100.909 72.2633 98.9791 74.2943C97.0494 76.3253 94.7332 77.9502 92.1666 79.0735C86.973 81.428 81.0635 81.6537 75.7054 79.702C70.3474 77.7503 65.9674 73.7768 63.5049 68.6335Z" fill="#4F5D7F"/>
<path d="M90.1366 47.0284H76.265C76.0341 47.0255 75.8062 47.0817 75.6032 47.1917C75.4002 47.3017 75.2286 47.4618 75.105 47.6568L68 59.2568C67.8815 59.4714 67.8193 59.7125 67.8193 59.9576C67.8193 60.2027 67.8815 60.4438 68 60.6584L75.105 72.5001C75.2188 72.7074 75.3869 72.8799 75.5912 72.9991C75.7955 73.1183 76.0284 73.1797 76.265 73.1768H90.1366C90.3731 73.1797 90.606 73.1183 90.8103 72.9991C91.0147 72.8799 91.1827 72.7074 91.2966 72.5001L98.2083 60.9001C98.3268 60.6855 98.3889 60.4444 98.3889 60.1993C98.3889 59.9541 98.3268 59.713 98.2083 59.4984L91.2966 47.8984C91.2057 47.6583 91.0484 47.449 90.843 47.295C90.6376 47.1409 90.3926 47.0485 90.1366 47.0284Z" fill="#C5CEDD"/>
<path d="M9.06979 26.12C8.18418 25.5517 7.42997 24.801 6.85746 23.9181C6.28496 23.0353 5.90734 22.0404 5.74979 21L5.19979 17.37C5.19073 17.2808 5.14777 17.1985 5.07979 17.14C5.02342 17.0661 4.94132 17.0161 4.84979 17C4.76138 17.0078 4.67755 17.0427 4.60979 17.1C4.54773 17.1617 4.50887 17.243 4.49979 17.33L3.93979 21C3.78789 22.0475 3.41276 23.0501 2.83979 23.94C2.26123 24.8146 1.50478 25.5574 0.619787 26.12L0.149787 26.42C0.0998632 26.453 0.0586863 26.4976 0.0297873 26.55C-0.00992909 26.6599 -0.00992909 26.7801 0.0297873 26.89C0.0586863 26.9424 0.0998632 26.987 0.149787 27.02L0.619787 27.32C1.50889 27.8941 2.26564 28.6509 2.83979 29.54C3.41276 30.4299 3.78789 31.4325 3.93979 32.48L4.49979 36.07C4.51126 36.1556 4.55401 36.234 4.61979 36.29C4.68483 36.3426 4.76616 36.3709 4.84979 36.37C4.93315 36.3693 5.01397 36.3412 5.07979 36.29C5.14557 36.234 5.18831 36.1556 5.19979 36.07L5.74979 32.48C5.90194 31.4325 6.27705 30.4298 6.84978 29.5397C7.42252 28.6495 8.17955 27.8926 9.06979 27.32L9.54979 27.02C9.59971 26.987 9.64089 26.9424 9.66979 26.89C9.7095 26.7801 9.7095 26.6599 9.66979 26.55C9.64089 26.4976 9.59971 26.453 9.54979 26.42L9.06979 26.12Z" fill="#FAA61A"/>
<path d="M144.471 71.5075C143.732 71.0398 143.104 70.416 142.631 69.6798C142.158 68.9435 141.85 68.1124 141.73 67.2447L141.268 64.2731C141.261 64.2011 141.229 64.1339 141.177 64.0828C141.122 64.0353 141.052 64.0064 140.979 64C140.909 64.0065 140.842 64.0355 140.79 64.0828C140.733 64.1312 140.698 64.1993 140.69 64.2731L140.237 67.2447C140.108 68.1096 139.797 68.9371 139.324 69.6721C138.852 70.4071 138.229 71.0328 137.496 71.5075L137.1 71.7641C137.058 71.7876 137.025 71.8259 137.009 71.8717C136.997 71.9178 136.997 71.9663 137.009 72.0124C136.998 72.0586 136.998 72.1069 137.009 72.1531C137.028 72.1976 137.059 72.2352 137.1 72.2607L137.496 72.5091C138.229 72.9822 138.852 73.6091 139.32 74.3466C139.794 75.0804 140.107 75.9073 140.237 76.7719L140.69 79.7517C140.703 79.8215 140.738 79.8853 140.79 79.9338C140.844 79.9761 140.911 79.9994 140.979 80C141.051 79.9994 141.12 79.9762 141.177 79.9338C141.227 79.8845 141.258 79.8206 141.268 79.7517L141.73 76.7719C141.854 75.9057 142.161 75.0761 142.63 74.3383C143.11 73.6064 143.737 72.9833 144.471 72.5091L144.867 72.2607C144.914 72.239 144.956 72.208 144.991 72.1697C145.002 72.1235 145.002 72.0752 144.991 72.029C145.003 71.9829 145.003 71.9344 144.991 71.8883C144.97 71.8456 144.938 71.8087 144.9 71.7807L144.471 71.5075Z" fill="#FAA61A"/>
</svg>
