<?xml version="1.0" encoding="UTF-8" standalone="no"?>
<svg width="28px" height="28px" viewBox="0 0 28 28" version="1.1" xmlns="http://www.w3.org/2000/svg" xmlns:xlink="http://www.w3.org/1999/xlink" xmlns:sketch="http://www.bohemiancoding.com/sketch/ns">
    <!-- Generator: Sketch 3.3.3 (12081) - http://www.bohemiancoding.com/sketch -->
    <title>Rectangle 2491</title>
    <desc>Created with Sketch.</desc>
    <defs></defs>
    <g id="Welcome" stroke="none" stroke-width="1" fill="none" fill-rule="evenodd" sketch:type="MSPage">
        <g id="Artboard-57" sketch:type="MSArtboardGroup" transform="translate(-286.000000, -187.000000)" fill="#7289DA">
            <g id="=-Button-+-Adding-your-Twitch-a-+-Discord-Logo-Color-+-Twitch_GlitchIcon_purple-+-Rectangle-2491" sketch:type="MSLayerGroup" transform="translate(100.000000, 157.000000)">
                <g id="Discord-Logo-Color-+-Twitch_GlitchIcon_purple-+-Rectangle-2491" transform="translate(60.000000, 0.000000)" sketch:type="MSShapeGroup">
                    <path d="M138,42 L127.991244,42 C126.899898,42 126,42.8954305 126,44 C126,45.1122704 126.89151,46 127.991244,46 L138,46 L138,56.0087557 C138,57.1001025 138.895431,58 140,58 C141.11227,58 142,57.1084896 142,56.0087557 L142,46 L152.008756,46 C153.100102,46 154,45.1045695 154,44 C154,42.8877296 153.10849,42 152.008756,42 L142,42 L142,31.9912443 C142,30.8998975 141.104569,30 140,30 C138.88773,30 138,30.8915104 138,31.9912443 L138,42 Z" id="Rectangle-2491"></path>
                </g>
            </g>
        </g>
    </g>
</svg>