<svg width="24" height="24" viewBox="0 0 24 24" fill="none" xmlns="http://www.w3.org/2000/svg">
<path fill-rule="evenodd" clip-rule="evenodd" d="M17.722 3.00098H21C21.553 3.00098 22 3.44898 22 4.00098V8.00098C22 8.30498 21.861 8.59298 21.625 8.78198L16.696 12.724C15.794 13.86 14.49 14.659 13 14.911V16.001H15C15.553 16.001 16 16.449 16 17.001V19.001H8V17.001C8 16.449 8.447 16.001 9 16.001H11V14.911C9.51 14.659 8.206 13.86 7.304 12.724L2.375 8.78198C2.139 8.59298 2 8.30498 2 8.00098V4.00098C2 3.44898 2.447 3.00098 3 3.00098H6.278C6.625 2.40598 7.263 2.00098 8 2.00098H16C16.738 2.00098 17.375 2.40598 17.722 3.00098ZM4 5.00098V7.52098L6.006 9.12598C6.006 9.10435 6.00448 9.08348 6.00297 9.06274C6.00148 9.04224 6 9.02185 6 9.00098V5.00098H4ZM17.994 9.12698L20 7.52098V5.00098H18V9.00098C18 9.02173 17.9985 9.042 17.9971 9.0625C17.9955 9.08349 17.994 9.10472 17.994 9.12698ZM7 20.001H17V22.001H7V20.001Z" fill="#FAA61A"/>
</svg>
