<svg fill="none" height="464" viewBox="0 0 240 464" width="240" xmlns="http://www.w3.org/2000/svg" xmlns:xlink="http://www.w3.org/1999/xlink"><clipPath id="a"><path d="m0 0h240v464h-240z"/></clipPath><g clip-path="url(#a)"><path d="m122.51 444.21s25.13-24.21 46.13-15.21c0 0 13-18 30-8 0 0 4-11 17-5 0 0-1-34 24.36-40.66v68.66z" fill="#54a18a"/><path d="m215.64 416c-13-6-17 5-17 5-17-10-30 8-30 8-21-9-46.13 15.21-46.13 15.21h7.88v-.31s28.61-8.9 43.61-4.9c0 0 12-24 26-11 0 0 3-18 19-6 0 0 7-32 21-31v-15.66c-25.36 6.66-24.36 40.66-24.36 40.66z" fill="#5eb58b"/><path d="m174.77 444.29 6.48 19.69h58.75v-20.98z" fill="#703443" opacity=".53"/><path d="m154 448 6 4-2 5 2 2 3 5h30l-3-4-4.09-2c-2.14-.54-2.91-9-2.91-9l-2.4-4.79-19.45 2.39z" fill="#8c4c55"/><path d="m158 447 3 5-1.09 2.18c-.286.568-.44 1.193-.45 1.828-.01.636.123 1.265.39 1.842l3.05 6.15h-3.14l-1.76-5-4-4s2.26-3.71 2-5l-4-3z" fill="#a65e67"/><path d="m106.35 445.31-.64-1.1-.71-1.54 135 .33v2.95l-62 .05-24 2z" fill="#81c793"/><path d="m105.71 444.21-.71-1.54 135-.67v2.95l-62-.95-22 2z" fill="#a3faa8"/><path d="m208.35 439.12 1.35-1.57c.247-.286.559-.509.91-.65l3.67-1.47c.392-.14.739-.386 1-.71l2.88-3.59c.357-.458.876-.763 1.45-.85l3.4-.57c.439-.068.888-.009 1.295.168.407.176.755.465 1.005.832l3.8 5.33c.09.11.18.22.28.32l2.73 2.66c.323.328.543.744.633 1.196.089.451.043.92-.132 1.346-.174.426-.471.791-.851 1.051-.381.259-.829.4-1.29.407h-20.35c-.453.003-.897-.126-1.279-.369-.381-.244-.684-.593-.873-1.005-.188-.412-.253-.87-.187-1.318s.26-.868.559-1.208z" fill="#9395a6"/><path d="m221.3 432.12.17 2.77c.02.385-.055.769-.219 1.118s-.412.652-.721.882l-2.13 1.6c-.438.328-.749.798-.88 1.33l-.06.25c-.081.346-.083.705-.006 1.052s.231.672.451.951c.22.278.501.504.82.659.319.156.67.237 1.025.238h12.94c2.11 0 .84-4.53-.69-6l-6.73-6.72c-.264-.249-.581-.434-.928-.542-.347-.107-.713-.134-1.072-.078-.581.091-1.107.398-1.472.86-.365.461-.543 1.043-.498 1.63z" fill="#7a7c8a"/><path d="m221.55 439.44 1.78-3c.325-.532.846-.916 1.45-1.07l6.24-1.56c.328-.081.634-.233.898-.443.264-.211.48-.476.632-.777l2.68-5.38c.263-.517.707-.92 1.247-1.132s1.139-.218 1.683-.018l1.84.69v16.25h-16.44c-.416-.001-.823-.112-1.182-.322-.359-.209-.655-.511-.86-.873-.204-.361-.309-.771-.303-1.187.005-.415.121-.822.335-1.178z" fill="#7a7c8a"/><g fill="#5eb58b"><path d="m177 434.27c2.92-2.27 8.57-5.72 13.84-3.4.076.03.16.033.237.009.078-.025.145-.077.189-.145.044-.069.062-.151.052-.232s-.048-.156-.108-.212c-2.2-2.05-6.14-4.82-10.09-3.22-.07.022-.131.068-.17.13l-4.45 6.6c-.043.069-.06.15-.05.23.011.08.049.154.108.21.059.055.135.088.215.094.081.005.161-.017.227-.064z"/><path d="m224.1 406.08c2.22-1.74 7.34-5.2 11.18-3.63.084.03.175.032.26.005.085-.026.159-.079.211-.152.052-.072.079-.159.077-.248s-.033-.175-.088-.245c-.842-1.048-1.89-1.913-3.08-2.54-.062-.035-.115-.085-.151-.147-.036-.061-.055-.131-.055-.203 0-.071.019-.142.055-.203.036-.062.089-.112.151-.147 1.006-.685 2.103-1.224 3.26-1.6.086-.024.162-.076.217-.147.054-.071.083-.158.083-.248s-.029-.177-.083-.248c-.055-.071-.131-.123-.217-.147-3.07-.78-8.8-.59-12.4 9.43-.02.076-.017.157.007.231.025.075.071.141.132.191.061.049.135.08.213.089.079.008.158-.006.228-.041z"/></g></g></svg>