<svg width="137" height="126" viewBox="0 0 137 126" fill="none" xmlns="http://www.w3.org/2000/svg">
<g clip-path="url(#clip0_5976_269299)">
<path d="M90.224 79.7907L94.7389 80.9491C95.8875 81.3087 97.0785 81.514 98.2808 81.5599C99.7555 81.5972 101.218 81.281 102.546 80.6375C103.874 79.994 105.03 79.0418 105.918 77.86C106.044 77.6634 106.212 77.4949 106.317 77.2914L106.674 76.6946C106.772 76.484 106.863 76.2734 106.968 76.0698C107.023 75.9672 107.068 75.8589 107.101 75.7468L107.213 75.4239L110.23 66.8237C110.827 65.1172 112.077 63.7188 113.702 62.9361C115.328 62.1533 117.197 62.0504 118.899 62.65C120.6 63.2495 121.995 64.5024 122.775 66.133C123.555 67.7637 123.658 69.6384 123.06 71.3449C122.975 71.584 122.877 71.8184 122.766 72.047L120.736 76.2593L119.721 78.3655L119.21 79.4186L118.958 79.9451L118.587 80.6472L118.202 81.3492C118.082 81.5932 117.944 81.8278 117.789 82.0513C117.495 82.5146 117.194 82.978 116.893 83.4554C116.592 83.9328 116.193 84.326 115.871 84.7472C115.549 85.1684 115.136 85.5546 114.765 85.9547C113.239 87.4897 111.491 88.7844 109.579 89.795C105.786 91.7601 101.479 92.496 97.2518 91.9011C96.7338 91.852 96.2229 91.7116 95.7119 91.6133C95.4599 91.5571 95.2009 91.515 94.9489 91.4448L94.2069 91.2201C93.1079 90.8902 92.5059 90.6234 91.7569 90.3496L87.403 88.6857C86.3043 88.2479 85.4114 87.4095 84.9034 86.3387C84.3955 85.268 84.3102 84.0441 84.6646 82.9129C85.019 81.7817 85.7869 80.8268 86.8142 80.2398C87.8414 79.6529 89.052 79.4774 90.203 79.7486L90.224 79.7907Z" fill="url(#paint0_linear_5976_269299)"/>
<mask id="mask0_5976_269299" style="mask-type:alpha" maskUnits="userSpaceOnUse" x="84" y="62" width="40" height="31">
<path d="M90.224 79.7907L94.7389 80.9491C95.8875 81.3087 97.0785 81.514 98.2808 81.5599C99.7555 81.5972 101.218 81.281 102.546 80.6375C103.874 79.994 105.03 79.0418 105.918 77.86C106.044 77.6634 106.212 77.4949 106.317 77.2914L106.674 76.6946C106.772 76.484 106.863 76.2734 106.968 76.0698C107.023 75.9672 107.068 75.8589 107.101 75.7468L107.213 75.4239L110.23 66.8237C110.827 65.1172 112.077 63.7188 113.702 62.9361C115.328 62.1533 117.197 62.0504 118.899 62.65C120.6 63.2495 121.995 64.5024 122.775 66.133C123.555 67.7637 123.658 69.6384 123.06 71.3449C122.975 71.584 122.877 71.8184 122.766 72.047L120.736 76.2593L119.721 78.3655L119.21 79.4186L118.958 79.9451L118.587 80.6472L118.202 81.3492C118.082 81.5932 117.944 81.8278 117.789 82.0513C117.495 82.5146 117.194 82.978 116.893 83.4554C116.592 83.9328 116.193 84.326 115.871 84.7472C115.549 85.1684 115.136 85.5546 114.765 85.9547C113.239 87.4897 111.491 88.7844 109.579 89.795C105.786 91.7601 101.479 92.496 97.2518 91.9011C96.7338 91.852 96.2229 91.7116 95.7119 91.6133C95.4599 91.5571 95.2009 91.515 94.9489 91.4448L94.2069 91.2201C93.1079 90.8902 92.5059 90.6234 91.7569 90.3496L87.403 88.6857C86.3043 88.2479 85.4114 87.4095 84.9034 86.3387C84.3955 85.268 84.3102 84.0441 84.6646 82.9129C85.019 81.7817 85.7869 80.8268 86.8142 80.2398C87.8414 79.6529 89.052 79.4774 90.203 79.7486L90.224 79.7907Z" fill="url(#paint1_linear_5976_269299)"/>
</mask>
<g mask="url(#mask0_5976_269299)">
<path d="M104.833 92.8279C104.623 92.8299 104.42 92.7578 104.259 92.6243C102.346 90.9863 100.792 88.9684 99.6956 86.6979C98.5992 84.4274 97.984 81.9536 97.8888 79.4326C97.8831 79.1966 97.9702 78.9679 98.1313 78.7958C98.2925 78.6237 98.5146 78.5221 98.7498 78.5129C98.9803 78.5146 99.2012 78.6052 99.3668 78.766C99.5324 78.9269 99.6298 79.1455 99.6388 79.3765C99.7224 81.6473 100.276 83.876 101.264 85.9209C102.252 87.9658 103.653 89.7824 105.379 91.2553C105.557 91.409 105.668 91.6269 105.688 91.862C105.707 92.0971 105.634 92.3306 105.484 92.5119C105.404 92.6077 105.304 92.6854 105.192 92.7399C105.08 92.7944 104.957 92.8243 104.833 92.8279Z" fill="#3F99F2"/>
<path d="M117.404 86.1583C114.45 86.1356 111.548 85.3738 108.962 83.9419C106.375 82.51 104.186 80.4533 102.593 77.9583C102.476 77.7584 102.442 77.5209 102.497 77.296C102.552 77.0711 102.692 76.8766 102.888 76.7535C103.083 76.6303 103.319 76.5883 103.544 76.6363C103.77 76.6843 103.969 76.8185 104.098 77.0105C105.572 79.3191 107.613 81.2085 110.026 82.497C112.438 83.7856 115.141 84.4299 117.873 84.3681C118.109 84.3597 118.339 84.4456 118.511 84.6069C118.684 84.7682 118.785 84.9916 118.794 85.2281C118.802 85.4646 118.717 85.6947 118.556 85.8678C118.395 86.0409 118.172 86.1429 117.936 86.1513L117.404 86.1583Z" fill="#3F99F2"/>
<path d="M122.836 73.3529C117.77 73.3526 112.762 72.2809 108.137 70.2077C107.945 70.0999 107.8 69.9247 107.729 69.7158C107.659 69.507 107.668 69.2794 107.755 69.0769C107.842 68.8744 108 68.7115 108.2 68.6195C108.4 68.5275 108.627 68.513 108.837 68.5789C115.151 71.4164 122.177 72.2635 128.982 71.008C129.206 70.9815 129.431 71.0411 129.613 71.1747C129.794 71.3084 129.918 71.5061 129.96 71.7281C130.002 71.95 129.958 72.1795 129.838 72.3704C129.717 72.5612 129.529 72.699 129.311 72.7561C127.176 73.155 125.008 73.3547 122.836 73.3529Z" fill="#3F99F2"/>
</g>
<path d="M78.9612 22.6574L58.1506 24.6442L58.7316 20.9865C59.0186 19.2033 61.2026 17.7149 63.9745 17.4762L71.8773 16.718C74.6773 16.4583 77.0782 17.5043 77.6942 19.2033L78.9612 22.6574Z" fill="url(#paint2_linear_5976_269299)"/>
<path d="M109.054 41.4234L109.628 47.4611C109.81 49.2891 109.357 51.1242 108.347 52.6563C107.744 53.6175 106.934 54.4315 105.978 55.0388C105.021 55.6462 103.941 56.0314 102.817 56.1666C98.1268 56.6159 93.8499 52.0525 93.2689 45.9657C92.6879 39.8789 96.0269 34.5994 100.724 34.1571C101.854 34.078 102.988 34.2539 104.042 34.6718C105.096 35.0897 106.043 35.7391 106.814 36.5722C108.097 37.8806 108.889 39.5951 109.054 41.4234Z" fill="url(#paint3_linear_5976_269299)"/>
<path d="M107.759 39.2399C107.06 38.0363 106.185 36.9452 105.162 36.0035C104.988 35.8474 104.785 35.7281 104.564 35.6526C104.343 35.5771 104.11 35.5469 103.877 35.564C103.644 35.581 103.418 35.6449 103.21 35.7517C103.003 35.8586 102.819 36.0063 102.67 36.186C102.547 36.3361 102.462 36.5132 102.421 36.7028C102.379 36.8924 102.384 37.089 102.433 37.2767C102.482 37.4644 102.575 37.6377 102.703 37.7825C102.832 37.9272 102.993 38.0394 103.174 38.1096C104.459 38.5953 105.666 39.2671 106.758 40.1035C106.889 40.2018 107.051 40.2508 107.215 40.2418C107.378 40.2329 107.534 40.1665 107.654 40.0543C107.754 39.9468 107.818 39.8103 107.837 39.6641C107.856 39.518 107.829 39.3696 107.759 39.2399Z" fill="url(#paint4_linear_5976_269299)"/>
<path d="M32.1253 48.7809L32.6992 54.8186C32.8563 56.6496 33.6461 58.3679 34.9322 59.6769C35.7031 60.51 36.6502 61.1593 37.704 61.5772C38.7578 61.9952 39.8916 62.171 41.0221 62.0919C45.719 61.6426 49.0509 56.3491 48.4769 50.2623C47.9029 44.1755 43.619 39.6121 38.9291 40.0614C37.8049 40.1965 36.725 40.5818 35.7683 41.1892C34.8115 41.7965 34.0021 42.6105 33.3992 43.5717C32.3839 45.1069 31.9334 46.9488 32.1253 48.7809Z" fill="url(#paint5_linear_5976_269299)"/>
<path d="M32.9512 46.3869C33.4089 45.0725 34.0652 43.8365 34.8972 42.7221C35.0363 42.5349 35.212 42.3781 35.4136 42.2612C35.6151 42.1443 35.8383 42.0698 36.0695 42.0422C36.3007 42.0146 36.535 42.0345 36.7583 42.1007C36.9815 42.1669 37.189 42.278 37.3681 42.4273C37.5162 42.5517 37.633 42.7094 37.7091 42.8875C37.7852 43.0657 37.8184 43.2592 37.8062 43.4526C37.7939 43.646 37.7365 43.8338 37.6385 44.0008C37.5405 44.1679 37.4047 44.3094 37.2421 44.4141C36.0715 45.1353 35.0126 46.0247 34.0992 47.0538C33.988 47.1767 33.837 47.2561 33.673 47.278C33.5089 47.2998 33.3425 47.2627 33.2032 47.1732C33.0837 47.0856 32.995 46.9624 32.9497 46.8211C32.9044 46.6798 32.905 46.5278 32.9512 46.3869Z" fill="url(#paint6_linear_5976_269299)"/>
<path d="M103.356 30.8294C102.82 28.5705 101.664 26.5074 100.018 24.8743C98.3727 23.2412 96.3036 22.1035 94.0459 21.5903C76.9973 17.6481 59.1344 19.3475 43.129 26.4345C41.011 27.3736 39.1974 28.8886 37.8935 30.8081C36.5896 32.7275 35.8475 34.9747 35.7511 37.2953C35.5971 41.1266 35.7024 44.9639 36.0661 48.7809C36.4171 52.6027 37.0299 56.3958 37.9001 60.1332C38.4368 62.3923 39.5932 64.4556 41.2385 66.0897C42.8838 67.7237 44.9523 68.8632 47.2099 69.3793C55.6826 71.3315 64.4127 71.9075 73.0673 71.0853C81.7158 70.2547 90.176 68.0409 98.1268 64.5281C100.253 63.5961 102.075 62.0838 103.386 60.1635C104.696 58.2433 105.443 55.9923 105.54 53.6672C105.7 49.8361 105.597 45.9985 105.232 42.1816C104.863 38.3593 104.236 34.5665 103.356 30.8294Z" fill="url(#paint7_linear_5976_269299)"/>
<g opacity="0.67">
<path d="M62.9876 22.2642L62.5047 22.4117L62.0147 22.5521L61.0487 22.8329L59.1097 23.3735L58.1507 23.6262L57.1848 23.9C56.8628 23.9983 56.5408 24.0825 56.2188 24.1738L55.2528 24.4546L54.2938 24.7284L53.3208 25.0303L52.3619 25.3111L51.3959 25.599L49.4709 26.1677L48.505 26.4344L48.022 26.5819L47.532 26.7082C47.4842 26.722 47.4341 26.7259 47.3847 26.7199C47.3354 26.7138 47.2877 26.6979 47.2446 26.673C47.2015 26.6481 47.1639 26.6148 47.1339 26.575C47.1039 26.5352 47.0821 26.4898 47.07 26.4415C47.0515 26.3592 47.0599 26.2731 47.094 26.196C47.128 26.1189 47.1859 26.0548 47.259 26.0132C47.868 25.7043 48.491 25.4305 49.1069 25.1497L50.0519 24.7565L50.9969 24.3844C51.6339 24.1457 52.2779 23.9281 52.9219 23.6824C53.5658 23.4367 54.2238 23.2752 54.8748 23.0856C55.5258 22.8961 56.1838 22.7346 56.8488 22.5801C57.5138 22.4257 58.1507 22.3134 58.8507 22.2221L59.8517 22.0396L60.8597 21.8851C61.5597 21.8009 62.2037 21.7096 62.8826 21.6605C62.9255 21.6566 62.9687 21.6614 63.0097 21.6746C63.0506 21.6878 63.0886 21.7091 63.1212 21.7373C63.1538 21.7654 63.1805 21.7998 63.1996 21.8385C63.2188 21.8771 63.23 21.9193 63.2326 21.9623C63.2363 22.0361 63.2157 22.1091 63.1739 22.17C63.1322 22.2309 63.0717 22.2763 63.0016 22.2993L62.9876 22.2642Z" fill="white"/>
</g>
<path d="M94.9069 30.7942C94.5606 29.6202 93.903 28.5626 93.0043 27.7341C92.1056 26.9057 90.9995 26.3376 89.804 26.0904C75.8308 23.2499 61.3316 24.6303 48.1409 30.057C47.0083 30.528 46.0253 31.2998 45.2976 32.2895C44.5698 33.2791 44.125 34.4491 44.011 35.6735C43.4856 41.1609 43.9431 46.6984 45.362 52.0243C45.6746 53.2193 46.3121 54.3036 47.2032 55.1564C48.0943 56.0093 49.2041 56.5972 50.4088 56.8545C57.4493 58.323 64.6704 58.7183 71.8284 58.0269C78.9836 57.3435 85.9961 55.5876 92.6319 52.8177C93.7675 52.335 94.7475 51.5461 95.463 50.5385C96.1784 49.5309 96.6014 48.3441 96.6848 47.1099C96.873 44.3585 96.8191 41.5957 96.5238 38.8538C96.224 36.1245 95.6829 33.4273 94.9069 30.7942Z" fill="#ED5B00"/>
<path d="M95.4249 32.8373C95.0887 31.649 94.4338 30.5762 93.5315 29.7356C92.6293 28.895 91.5142 28.319 90.308 28.0703C76.125 25.1874 61.4079 26.5924 48.0219 32.1071C46.8818 32.5778 45.8927 33.3541 45.1631 34.3509C44.4334 35.3477 43.9913 36.5267 43.885 37.7587C43.6528 40.4995 43.6692 43.2559 43.934 45.9938C44.1917 48.7353 44.7002 51.4473 45.453 54.0955C45.7861 55.2834 46.4393 56.3561 47.3408 57.1959C48.2423 58.0356 49.3572 58.6098 50.5629 58.8554C57.6192 60.2944 64.8491 60.6777 72.0174 59.9928C79.179 59.3072 86.2008 57.566 92.8559 54.8256C93.9912 54.3586 94.9767 53.5878 95.705 52.5974C96.4333 51.607 96.8763 50.4349 96.9858 49.2092C97.2169 46.4684 97.2028 43.7124 96.9438 40.9741C96.6849 38.2212 96.1765 35.4976 95.4249 32.8373Z" fill="black"/>
<path d="M81.5161 69.1545L81.8521 65.4898C81.8768 65.2326 81.841 64.9732 81.7479 64.7323C81.6547 64.4914 81.5066 64.2757 81.3155 64.1024C81.1244 63.9291 80.8955 63.8031 80.6471 63.7344C80.3988 63.6656 80.1379 63.6561 79.8852 63.7066C77.4344 64.1976 74.9602 64.5632 72.4724 64.8018C69.9783 65.0393 67.4737 65.1471 64.9685 65.1247C64.7133 65.1252 64.4617 65.1848 64.2332 65.2988C64.0047 65.4127 63.8054 65.578 63.651 65.7818C63.4966 65.9856 63.3911 66.2224 63.3428 66.4737C63.2945 66.725 63.3047 66.9841 63.3726 67.2309L64.3945 70.7412C64.4478 70.9291 64.5606 71.0944 64.716 71.2123C64.8713 71.3301 65.0607 71.3939 65.2555 71.3941C67.8665 71.3941 70.4774 71.2818 73.0673 71.029C75.6573 70.7763 78.2332 70.4112 80.7672 69.9127C80.956 69.8822 81.1303 69.7923 81.2649 69.6561C81.3995 69.5198 81.4875 69.3442 81.5161 69.1545Z" fill="url(#paint8_linear_5976_269299)"/>
<path d="M66.2006 44.5615L75.8324 43.6418C76.2803 48.7247 74.9504 53.8217 71.9684 54.1025C68.9865 54.3833 66.7255 49.6374 66.2006 44.5615Z" fill="#57F287"/>
<path d="M77.5332 41.3953C78.1184 40.6069 78.8565 39.9454 79.7032 39.4506C80.5344 38.9457 81.4424 38.5805 82.3911 38.3694C83.3509 38.1561 84.3374 38.0898 85.317 38.1728C86.3317 38.2593 87.3238 38.5206 88.25 38.9451L86.955 41.4585C85.6884 40.712 84.2157 40.3944 82.7551 40.5528C81.2455 40.6659 79.8257 41.3157 78.7512 42.3852L77.5332 41.3953Z" fill="#57F287"/>
<path d="M61.6506 44.3368C60.4552 43.4012 58.9654 42.9255 57.4507 42.9959C55.9845 43.0156 54.5635 43.5079 53.3978 44.4L51.8158 42.0622C52.6796 41.5373 53.6266 41.1645 54.6157 40.9599C55.5759 40.7647 56.5598 40.715 57.5347 40.8125C58.4996 40.894 59.445 41.131 60.3346 41.5146C61.2323 41.9047 62.0419 42.473 62.7146 43.1855L61.6506 44.3368Z" fill="#57F287"/>
<path d="M51.5428 85.2668C47.823 82.0766 44.3548 78.6028 41.169 74.8763C37.9716 71.1281 35.0674 67.1379 32.4822 62.9414C29.8928 58.7256 27.6276 54.318 25.7064 49.7568C23.7956 45.1655 22.2393 40.4338 21.0515 35.6033C20.6441 33.8614 20.9367 32.0287 21.8658 30.5014C22.795 28.9741 24.2861 27.8748 26.0168 27.4413C27.7475 27.0078 29.5789 27.2749 31.1149 28.1847C32.6509 29.0946 33.7681 30.5742 34.2252 32.3037C34.2252 32.409 34.2812 32.5353 34.3022 32.6407C35.1202 36.848 36.2599 40.986 37.7111 45.0179C39.179 49.0617 40.9504 52.988 43.01 56.7633C45.0756 60.5462 47.4299 64.1632 50.0518 67.582C52.6964 71.0184 55.6005 74.2457 58.7386 77.2353C59.8005 78.1923 60.4399 79.5332 60.516 80.9631C60.5922 82.3929 60.0989 83.7945 59.1446 84.8596C58.1904 85.9246 56.8534 86.5659 55.4278 86.6422C54.0022 86.7186 52.6047 86.2238 51.5428 85.2668Z" fill="url(#paint9_linear_5976_269299)"/>
<mask id="mask1_5976_269299" style="mask-type:alpha" maskUnits="userSpaceOnUse" x="20" y="27" width="41" height="60">
<path d="M51.5428 85.2668C47.823 82.0766 44.3548 78.6028 41.169 74.8763C37.9716 71.1281 35.0674 67.1379 32.4822 62.9414C29.8928 58.7256 27.6276 54.318 25.7064 49.7568C23.7956 45.1655 22.2393 40.4338 21.0515 35.6033C20.6441 33.8614 20.9367 32.0287 21.8658 30.5014C22.795 28.9741 24.2861 27.8748 26.0168 27.4413C27.7475 27.0078 29.5789 27.2749 31.1149 28.1847C32.6509 29.0946 33.7681 30.5742 34.2252 32.3037C34.2252 32.409 34.2812 32.5353 34.3022 32.6407C35.1202 36.848 36.2599 40.986 37.7111 45.0179C39.179 49.0617 40.9504 52.988 43.01 56.7633C45.0756 60.5462 47.4299 64.1632 50.0518 67.582C52.6964 71.0184 55.6005 74.2457 58.7386 77.2353C59.8005 78.1923 60.4399 79.5332 60.516 80.9631C60.5922 82.3929 60.0989 83.7945 59.1446 84.8596C58.1904 85.9246 56.8534 86.5659 55.4278 86.6422C54.0022 86.7186 52.6047 86.2238 51.5428 85.2668Z" fill="url(#paint10_linear_5976_269299)"/>
</mask>
<g mask="url(#mask1_5976_269299)">
<path d="M37.8021 85.1965C37.6195 85.1954 37.4416 85.1379 37.2927 85.0318C37.1438 84.9257 37.0311 84.7762 36.97 84.6036C36.9088 84.431 36.9021 84.2437 36.9508 84.0672C36.9995 83.8906 37.1012 83.7334 37.2422 83.6169C42.8978 79.0332 48.2109 74.0399 53.1388 68.6771C53.2985 68.503 53.5205 68.3997 53.7562 68.3898C53.9918 68.3799 54.2217 68.4644 54.3953 68.6245C54.5689 68.7846 54.6719 69.0073 54.6817 69.2437C54.6916 69.48 54.6074 69.7106 54.4478 69.8847C49.4541 75.3083 44.0734 80.3601 38.3481 84.9999C38.1934 85.1253 38.001 85.1946 37.8021 85.1965Z" fill="#3F99F2"/>
<path d="M28.8493 70.9308C28.6509 70.9345 28.4571 70.8715 28.2986 70.7519C28.1401 70.6323 28.026 70.463 27.9745 70.2709C27.923 70.0788 27.937 69.8749 28.0143 69.6917C28.0917 69.5085 28.2279 69.3565 28.4013 69.2599C34.6727 65.5758 40.6687 61.4391 46.3419 56.8827C46.4338 56.8094 46.5392 56.755 46.6521 56.7225C46.765 56.6901 46.8832 56.6803 46.9998 56.6937C47.1165 56.707 47.2294 56.7433 47.3321 56.8004C47.4348 56.8576 47.5253 56.9344 47.5983 57.0266C47.6714 57.1188 47.7257 57.2245 47.758 57.3378C47.7904 57.451 47.8001 57.5695 47.7868 57.6865C47.7735 57.8035 47.7373 57.9168 47.6804 58.0198C47.6234 58.1228 47.5468 58.2135 47.4548 58.2868C41.7125 62.9012 35.6441 67.0918 29.2972 70.8255C29.1591 70.8977 29.005 70.9339 28.8493 70.9308Z" fill="#3F99F2"/>
<path d="M21.8844 54.0183C21.6692 54.0213 21.4602 53.9459 21.2962 53.806C21.1323 53.6662 21.0244 53.4714 20.9928 53.2578C20.9612 53.0443 21.0079 52.8265 21.1242 52.6449C21.2405 52.4632 21.4186 52.3301 21.6254 52.2702C28.5769 50.1064 35.3615 47.4361 41.925 44.2808C42.1376 44.1784 42.382 44.1649 42.6045 44.2432C42.827 44.3215 43.0094 44.4853 43.1115 44.6985C43.2136 44.9117 43.2271 45.1569 43.149 45.38C43.0708 45.6032 42.9075 45.7861 42.695 45.8885C36.051 49.0796 29.1848 51.7826 22.1504 53.9762C22.0644 54.0038 21.9747 54.018 21.8844 54.0183Z" fill="#3F99F2"/>
</g>
<path d="M59.2706 73.1422L86.913 75.5783C88.6883 75.7345 90.3672 76.4568 91.7036 77.6393C93.0401 78.8217 93.9639 80.4023 94.3398 82.1496L99.3027 105.114C99.8723 107.753 99.8157 110.49 99.1373 113.103C98.459 115.716 97.178 118.133 95.3975 120.158C93.617 122.184 91.3869 123.761 88.8869 124.764C86.387 125.766 83.6872 126.166 81.0051 125.93L56.3867 123.753C53.7084 123.518 51.1227 122.655 48.8375 121.235C46.5522 119.814 44.6313 117.876 43.2293 115.575C41.8273 113.274 40.9834 110.676 40.7653 107.988C40.5473 105.3 40.9613 102.599 41.974 100.101L50.8008 78.3374C51.4725 76.6765 52.6578 75.2754 54.1823 74.3403C55.7069 73.4052 57.4904 72.9852 59.2706 73.1422Z" fill="url(#paint11_linear_5976_269299)"/>
<path d="M40.512 107.932L40.3334 109.967L99.2822 115.171L99.4608 113.136L40.512 107.932Z" fill="#ED5F00"/>
<path d="M66.7955 76.8069L78.8353 77.867C79.6871 77.9442 80.4856 78.3165 81.0936 78.9199C81.7016 79.5233 82.0812 80.3202 82.1672 81.1737L83.9941 99.722C84.0465 100.26 83.9802 100.802 83.7999 101.311C83.6196 101.82 83.3297 102.283 82.9508 102.667C82.572 103.051 82.1134 103.347 81.6078 103.533C81.1022 103.719 80.5618 103.792 80.0252 103.745L61.2097 102.088C60.6744 102.04 60.156 101.875 59.6913 101.605C59.2266 101.334 58.8269 100.964 58.5204 100.522C58.2139 100.079 58.0081 99.5743 57.9176 99.043C57.8271 98.5117 57.8541 97.967 57.9967 97.4474L62.9386 79.4958C63.1663 78.6658 63.6769 77.9422 64.3816 77.4509C65.0864 76.9596 65.9406 76.7317 66.7955 76.8069Z" fill="#FFC619"/>
<path d="M122.591 24.9742C123.974 24.2442 125.577 24.0555 127.091 24.4447C128.604 24.8339 129.919 25.7732 130.781 27.0804C134.163 32.2839 136.207 38.2463 136.731 44.4352C136.867 46.0084 136.411 47.5757 135.452 48.8284C134.493 50.081 133.102 50.9282 131.551 51.203L104.154 54.4325C102.304 54.6493 100.436 54.2251 98.8594 53.2303C97.2831 52.2355 96.0934 50.7299 95.4878 48.9634C94.8838 47.1955 94.9017 45.2734 95.5385 43.517C96.1752 41.7607 97.3925 40.276 98.9878 39.3102L122.591 24.9742Z" fill="#3442D9"/>
<path d="M132.389 47.6444C134.642 46.8699 134.909 41.6809 132.986 36.0544C131.063 30.4279 127.678 26.4946 125.426 27.269C123.173 28.0434 122.905 33.2324 124.828 38.8589C126.751 44.4855 130.136 48.4188 132.389 47.6444Z" fill="#808AFF"/>
<path d="M125.461 33.3075C125.898 36.67 127.005 39.91 128.716 42.8344C129.699 42.2132 130.444 41.2774 130.831 40.1785C131.217 39.0796 131.223 37.882 130.846 36.7796C130.47 35.6772 129.733 34.7347 128.756 34.1045C127.778 33.4744 126.617 33.1935 125.461 33.3075Z" fill="#3442D9"/>
<path d="M114.758 62.0216C113.358 62.0202 111.989 61.6024 110.825 60.8208C109.661 60.0393 108.754 58.9292 108.219 57.6308C107.684 56.3325 107.544 54.9042 107.819 53.5264C108.093 52.1487 108.768 50.8834 109.759 49.8905C110.75 48.8976 112.012 48.2216 113.386 47.948C114.76 47.6744 116.184 47.8156 117.478 48.3535C118.772 48.8915 119.878 49.8021 120.656 50.9703C121.434 52.1386 121.849 53.5119 121.849 54.9168C121.847 56.8018 121.1 58.6089 119.77 59.9411C118.44 61.2733 116.638 62.0216 114.758 62.0216ZM114.758 49.5952C113.709 49.5952 112.683 49.9073 111.811 50.4921C110.938 51.0768 110.258 51.9079 109.856 52.8803C109.455 53.8527 109.35 54.9227 109.555 55.955C109.759 56.9873 110.265 57.9355 111.007 58.6797C111.749 59.424 112.694 59.9308 113.723 60.1361C114.753 60.3415 115.819 60.2361 116.789 59.8333C117.758 59.4305 118.587 58.7485 119.17 57.8733C119.753 56.9982 120.064 55.9693 120.064 54.9168C120.059 53.5078 119.498 52.1582 118.504 51.1625C117.51 50.1668 116.163 49.606 114.758 49.6023V49.5952Z" fill="#3442D9"/>
<path d="M14.5136 10.9892C13.5584 8.50193 13.342 5.79036 13.8907 3.18235C16.2123 1.71482 18.8306 0.784306 21.5555 0.458374C21.4237 1.55084 21.3979 2.65355 21.4785 3.75102C21.5692 5.03017 21.804 6.2949 22.1785 7.52106C24.089 6.1725 26.2742 5.26611 28.5763 4.86729C28.4643 6.36969 30.1513 11.1858 30.6273 12.0704L35.4082 4.53732C36.661 4.76921 37.8748 5.17814 39.0131 5.75188C40.3629 6.42804 41.5926 7.32222 42.653 8.39863C41.869 11.8761 41.0897 15.3466 40.3151 18.8101L45.796 24.6442L44.641 28.1545L42.198 35.5612L36.2692 34.1571L38.6071 37.4848C36.4835 41.2729 33.0222 44.1258 28.9053 45.4812L23.1515 39.3523L22.0595 45.4812C20.1454 45.7141 18.2124 45.7471 16.2916 45.5795C14.5883 45.4354 12.9014 45.137 11.2517 44.6879V34.1571C10.2889 34.5035 9.37574 34.9756 8.53578 35.5612C6.89455 36.7145 5.5703 38.2648 4.68587 40.0684C2.81564 38.1841 1.46082 35.8484 0.751953 33.2865C1.86331 29.3769 3.96355 25.8218 6.84882 22.9663C5.61395 22.452 4.45706 21.7667 3.41189 20.9303C2.41108 20.134 1.51704 19.2114 0.751953 18.1853C2.00726 15.3069 3.2579 12.4401 4.50387 9.5851C5.83631 10.1232 7.22016 10.5231 8.63378 10.7786C10.5736 11.1308 12.5537 11.2017 14.5136 10.9892Z" fill="#5865F2"/>
<path d="M108.858 61.8391C107.773 61.0809 106.863 60.0629 107.675 59.1221C107.864 58.9006 108.117 58.7438 108.399 58.6733C108.682 58.6028 108.979 58.6223 109.25 58.729C110.017 59.0381 110.727 59.4749 111.35 60.0208C111.392 59.1221 111.112 58.6167 111.224 57.3319C111.301 56.4333 112.624 56.0612 113.526 56.2507C114.429 56.4403 114.716 57.6548 115.402 58.9045C115.731 58.0199 115.402 56.4473 116.277 56.0963C116.772 55.9691 117.295 56.0096 117.765 56.2115C118.235 56.4133 118.625 56.7653 118.874 57.2125C119.344 58.1259 119.603 59.1338 119.63 60.1612C119.742 61.3125 119.756 62.7026 118.804 63.3696C118.491 63.571 118.127 63.6781 117.754 63.6781C117.382 63.6781 117.018 63.571 116.704 63.3696C116.124 62.9625 115.712 62.3552 115.549 61.6636C115.659 62.048 115.634 62.4582 115.48 62.8269C115.326 63.1955 115.052 63.5008 114.702 63.6925C114.198 63.9523 113.365 63.6925 112.847 63.6013C112.14 63.4453 111.452 63.2098 110.797 62.8992C110.12 62.6039 109.471 62.2491 108.858 61.8391Z" fill="black"/>
<path d="M25.1184 18.9645C25.1184 18.9645 25.4334 12.288 26.8404 10.9049C26.8404 10.9049 31.9433 10.0484 35.6462 13.664L31.2153 21.6253" fill="url(#paint12_linear_5976_269299)"/>
<path d="M19.5185 28.2247C19.5185 28.2247 16.8656 33.9324 16.3966 38.0535C16.3966 38.0535 21.7585 41.3672 26.8194 39.3452C26.8194 39.3452 27.1834 31.0399 25.1534 28.2177" fill="url(#paint13_linear_5976_269299)"/>
<path d="M26.4414 21.0005C25.9461 19.0215 25.2592 17.0957 24.3905 15.2506C24.2188 14.7885 23.9143 14.3878 23.5155 14.0993C22.9755 13.8591 22.3685 13.8169 21.8005 13.9799C19.7286 14.3388 17.6771 14.8075 15.6547 15.384L19.9386 23.1558" fill="url(#paint14_linear_5976_269299)"/>
</g>
<defs>
<linearGradient id="paint0_linear_5976_269299" x1="82.0272" y1="77.172" x2="123.284" y2="77.172" gradientUnits="userSpaceOnUse">
<stop stop-color="#3F99F2"/>
<stop offset="0.01" stop-color="#419BF2"/>
<stop offset="0.16" stop-color="#5DB1F7"/>
<stop offset="0.31" stop-color="#72C2FB"/>
<stop offset="0.48" stop-color="#81CFFD"/>
<stop offset="0.69" stop-color="#89D6FF"/>
<stop offset="1" stop-color="#8CD8FF"/>
</linearGradient>
<linearGradient id="paint1_linear_5976_269299" x1="82.0272" y1="77.172" x2="123.284" y2="77.172" gradientUnits="userSpaceOnUse">
<stop stop-color="#3F99F2"/>
<stop offset="0.01" stop-color="#419BF2"/>
<stop offset="0.16" stop-color="#5DB1F7"/>
<stop offset="0.31" stop-color="#72C2FB"/>
<stop offset="0.48" stop-color="#81CFFD"/>
<stop offset="0.69" stop-color="#89D6FF"/>
<stop offset="1" stop-color="#8CD8FF"/>
</linearGradient>
<linearGradient id="paint2_linear_5976_269299" x1="-275.838" y1="165.021" x2="-275.415" y2="169.703" gradientUnits="userSpaceOnUse">
<stop stop-color="#66BCFF"/>
<stop offset="1" stop-color="#3F99F2"/>
</linearGradient>
<linearGradient id="paint3_linear_5976_269299" x1="-243.369" y1="183.513" x2="-242.109" y2="197.469" gradientUnits="userSpaceOnUse">
<stop stop-color="#FFE75C"/>
<stop offset="1" stop-color="#FFC619"/>
</linearGradient>
<linearGradient id="paint4_linear_5976_269299" x1="134.617" y1="93.1404" x2="128.021" y2="88.4155" gradientUnits="userSpaceOnUse">
<stop stop-color="#FFE75C"/>
<stop offset="1" stop-color="#FFF7DE"/>
</linearGradient>
<linearGradient id="paint5_linear_5976_269299" x1="-307.719" y1="185.539" x2="-306.459" y2="199.495" gradientUnits="userSpaceOnUse">
<stop stop-color="#FFE75C"/>
<stop offset="1" stop-color="#FFC619"/>
</linearGradient>
<linearGradient id="paint6_linear_5976_269299" x1="190.347" y1="-93.7141" x2="195.896" y2="-99.6023" gradientUnits="userSpaceOnUse">
<stop stop-color="#FFE75C"/>
<stop offset="1" stop-color="#FFF7DE"/>
</linearGradient>
<linearGradient id="paint7_linear_5976_269299" x1="-280.98" y1="173.539" x2="-264.181" y2="218.589" gradientUnits="userSpaceOnUse">
<stop stop-color="#FFC618"/>
<stop offset="0.31" stop-color="#FFAD19"/>
<stop offset="1" stop-color="#FF7D12"/>
</linearGradient>
<linearGradient id="paint8_linear_5976_269299" x1="-270.882" y1="220.244" x2="-271.432" y2="214.151" gradientUnits="userSpaceOnUse">
<stop offset="0.02" stop-color="#FFB619"/>
<stop offset="1" stop-color="#FFC619"/>
</linearGradient>
<linearGradient id="paint9_linear_5976_269299" x1="40.63" y1="88.061" x2="40.63" y2="27.312" gradientUnits="userSpaceOnUse">
<stop stop-color="#3F99F2"/>
<stop offset="0.01" stop-color="#419BF2"/>
<stop offset="0.16" stop-color="#5DB1F7"/>
<stop offset="0.31" stop-color="#72C2FB"/>
<stop offset="0.48" stop-color="#81CFFD"/>
<stop offset="0.69" stop-color="#89D6FF"/>
<stop offset="1" stop-color="#8CD8FF"/>
</linearGradient>
<linearGradient id="paint10_linear_5976_269299" x1="40.63" y1="88.061" x2="40.63" y2="27.312" gradientUnits="userSpaceOnUse">
<stop stop-color="#3F99F2"/>
<stop offset="0.01" stop-color="#419BF2"/>
<stop offset="0.16" stop-color="#5DB1F7"/>
<stop offset="0.31" stop-color="#72C2FB"/>
<stop offset="0.48" stop-color="#81CFFD"/>
<stop offset="0.69" stop-color="#89D6FF"/>
<stop offset="1" stop-color="#8CD8FF"/>
</linearGradient>
<linearGradient id="paint11_linear_5976_269299" x1="68.7312" y1="125.519" x2="73.3051" y2="74.8473" gradientUnits="userSpaceOnUse">
<stop offset="0.12" stop-color="#FFC619"/>
<stop offset="0.2" stop-color="#FFBB19"/>
<stop offset="0.33" stop-color="#FF9F19"/>
<stop offset="0.41" stop-color="#FF8C19"/>
<stop offset="0.83" stop-color="#ED5F00"/>
</linearGradient>
<linearGradient id="paint12_linear_5976_269299" x1="27.3934" y1="20.0738" x2="31.7329" y2="11.2169" gradientUnits="userSpaceOnUse">
<stop stop-color="#5865F2"/>
<stop offset="1" stop-color="#3442D9"/>
</linearGradient>
<linearGradient id="paint13_linear_5976_269299" x1="22.7315" y1="27.9719" x2="21.4782" y2="39.878" gradientUnits="userSpaceOnUse">
<stop stop-color="#5865F2"/>
<stop offset="0.32" stop-color="#525FEE"/>
<stop offset="0.75" stop-color="#414FE2"/>
<stop offset="1" stop-color="#3442D9"/>
</linearGradient>
<linearGradient id="paint14_linear_5976_269299" x1="23.3405" y1="22.4467" x2="19.2468" y2="13.6943" gradientUnits="userSpaceOnUse">
<stop stop-color="#5865F2"/>
<stop offset="1" stop-color="#3442D9"/>
</linearGradient>
<clipPath id="clip0_5976_269299">
<rect width="136" height="125.542" fill="white" transform="translate(0.751953 0.458374)"/>
</clipPath>
</defs>
</svg>
