<svg xmlns="http://www.w3.org/2000/svg" width="181" height="82" viewBox="0 0 181 82">
  <g fill="none" fill-rule="evenodd">
    <path fill="#2E3136" d="M113.0935,59.2275 L113.0935,21.5075 C112.4365,21.7745 111.6585,21.9335 110.7995,21.9335 C109.9405,21.9335 109.1625,21.7745 108.5055,21.5075 L108.5055,26.4735 C108.5055,27.0255 108.0575,27.4735 107.5055,27.4735 L107.5055,31.1745 C108.0575,31.1745 108.5055,31.6225 108.5055,32.1745 L108.5055,59.2275 C108.5055,59.3065 108.4965,59.3845 108.4775,59.4615 L106.7485,66.6495 L106.7485,78.8125 C106.7485,79.6625 107.4395,80.3525 108.2895,80.3525 C109.0755,80.3525 109.7345,79.7635 109.8205,78.9815 L111.3345,65.3065 C111.3955,64.7565 111.9025,64.3675 112.4385,64.4215 C112.4965,64.4285 112.5435,64.4565 112.5975,64.4725 L113.8235,60.1735 C113.4055,60.0535 113.0935,59.6845 113.0935,59.2275"/>
    <path fill="#72767D" d="M141.1189,76.7168 C141.1189,78.7218 142.7499,80.3528 144.7549,80.3528 C146.7599,80.3528 148.3909,78.7218 148.3909,76.7168 C148.3909,76.6958 148.3849,76.6758 148.3849,76.6548 L141.1249,76.6548 C141.1249,76.6758 141.1189,76.6958 141.1189,76.7168"/>
    <polygon fill="#4F545C" points="142.973 70.946 146.536 70.946 146.536 42.309 142.973 42.309"/>
    <path fill="#2E3136" d="M140.1189,72.9458 C139.6479,72.9458 139.2649,73.3288 139.2649,73.7998 C139.2649,74.2718 139.6479,74.6548 140.1189,74.6548 L149.3909,74.6548 C149.8619,74.6548 150.2449,74.2718 150.2449,73.7998 C150.2449,73.3288 149.8619,72.9458 149.3909,72.9458 L140.1189,72.9458 Z"/>
    <path fill="#72767D" d="M149.3792,19.6133 C148.0122,18.6893 146.4132,18.2013 144.7552,18.2013 C140.1932,18.2013 136.4832,21.9123 136.4832,26.4733 C136.4832,31.0343 140.1932,34.7453 144.7552,34.7453 C148.8932,34.7453 152.4192,31.6563 152.9562,27.5603 C153.0252,27.0343 153.4942,26.6723 154.0152,26.7033 C154.0172,26.6263 154.0272,26.5503 154.0272,26.4733 C154.0272,25.8963 153.9672,25.3333 153.8662,24.7853 C153.7912,24.8033 153.7152,24.8193 153.6412,24.8193 C153.2102,24.8193 152.8122,24.5383 152.6832,24.1043 C152.5202,23.5583 152.3002,23.0283 152.0272,22.5283 C151.7732,22.0603 151.9382,21.4873 152.3832,21.2083 C151.9142,20.5293 151.3562,19.9163 150.7262,19.3853 C150.4082,19.8013 149.8212,19.9113 149.3792,19.6133"/>
    <path fill="#202225" d="M142.9734,69.1645 L142.9734,44.0895 C142.9734,43.1055 143.7704,42.3085 144.7544,42.3085 L144.7554,42.3085 C145.7394,42.3085 146.5364,43.1055 146.5364,44.0895 L146.5364,69.1645 C146.5364,70.1485 145.7394,70.9455 144.7554,70.9455 L144.7544,70.9455 C143.7704,70.9455 142.9734,70.1485 142.9734,69.1645 M148.3904,76.7165 C148.3904,78.7215 146.7604,80.3525 144.7554,80.3525 C142.7504,80.3525 141.1194,78.7215 141.1194,76.7165 C141.1194,76.6955 141.1244,76.6755 141.1254,76.6545 L148.3844,76.6545 C148.3854,76.6755 148.3904,76.6955 148.3904,76.7165 M150.2454,73.8005 C150.2454,74.2715 149.8624,74.6545 149.3904,74.6545 L140.1194,74.6545 C139.6474,74.6545 139.2644,74.2715 139.2644,73.8005 C139.2644,73.3295 139.6474,72.9455 140.1194,72.9455 L149.3904,72.9455 C149.8624,72.9455 150.2454,73.3295 150.2454,73.8005 M151.1724,38.5265 C151.1724,39.5095 150.3734,40.3085 149.3904,40.3085 L140.1194,40.3085 C139.1364,40.3085 138.3374,39.5095 138.3374,38.5265 C138.3374,37.5445 139.1364,36.7455 140.1194,36.7455 L149.3904,36.7455 C150.3734,36.7455 151.1724,37.5445 151.1724,38.5265 M154.9394,27.8205 C155.0114,27.2725 154.6254,26.7705 154.0774,26.6985 C154.0564,26.6955 154.0364,26.7045 154.0154,26.7035 C153.4944,26.6715 153.0254,27.0345 152.9564,27.5605 C152.3284,32.3475 147.6184,35.7595 142.6194,34.4715 C139.5564,33.6825 137.1754,31.1035 136.6194,27.9915 C135.6834,22.7655 139.6964,18.2015 144.7554,18.2015 C146.4134,18.2015 148.0124,18.6895 149.3794,19.6135 C149.8214,19.9115 150.4084,19.8015 150.7264,19.3855 C150.7384,19.3695 150.7564,19.3615 150.7674,19.3445 C151.0774,18.8865 150.9564,18.2655 150.4994,17.9565 C148.3604,16.5115 145.7674,15.9235 143.1474,16.3245 C138.6174,17.0165 135.0314,20.7895 134.5434,25.3465 C134.1184,29.3175 135.9734,32.8975 138.9594,34.9455 C137.2534,35.5005 136.0664,37.2165 136.3904,39.1685 C136.6974,41.0135 138.3934,42.3085 140.2634,42.3085 L140.2684,42.3085 C140.6574,42.3085 140.9734,42.6245 140.9734,43.0135 L140.9734,70.2405 C140.9734,70.6295 140.6574,70.9455 140.2684,70.9455 C138.7674,70.9455 137.4134,72.0385 137.2764,73.5335 C137.1534,74.8725 137.9664,76.0355 139.1314,76.4685 C139.1274,76.5515 139.1194,76.6325 139.1194,76.7165 C139.1194,79.8245 141.6474,82.3525 144.7554,82.3525 C147.8624,82.3525 150.3904,79.8245 150.3904,76.7165 C150.3904,76.6325 150.3824,76.5515 150.3784,76.4685 C151.6404,75.9985 152.4894,74.6735 152.1824,73.1935 C151.9024,71.8475 150.6164,70.9455 149.2414,70.9455 C148.8524,70.9455 148.5364,70.6295 148.5364,70.2405 L148.5364,43.0135 C148.5364,42.6245 148.8524,42.3085 149.2414,42.3085 L149.2454,42.3085 C150.9684,42.3085 152.5874,41.2285 153.0334,39.5645 C153.6004,37.4465 152.3664,35.5305 150.5394,34.9425 C152.8814,33.3405 154.5494,30.7985 154.9394,27.8205"/>
    <path fill="#202225" d="M152.0276,22.5278 C152.2996,23.0278 152.5206,23.5578 152.6826,24.1038 C152.8126,24.5378 153.2106,24.8188 153.6406,24.8188 C153.7156,24.8188 153.7916,24.8028 153.8666,24.7858 C153.8866,24.7808 153.9066,24.7828 153.9266,24.7768 C154.4566,24.6188 154.7576,24.0618 154.5996,23.5328 C154.3976,22.8538 154.1226,22.1938 153.7846,21.5718 C153.5206,21.0858 152.9126,20.9078 152.4276,21.1718 C152.4106,21.1808 152.4006,21.1978 152.3836,21.2088 C151.9386,21.4868 151.7736,22.0608 152.0276,22.5278"/>
    <path fill="#2E3136" d="M140.1189,36.7451 C139.1369,36.7451 138.3369,37.5441 138.3369,38.5271 C138.3369,39.5091 139.1369,40.3081 140.1189,40.3081 L149.3909,40.3081 C150.3729,40.3081 151.1729,39.5091 151.1729,38.5271 C151.1729,37.5441 150.3729,36.7451 149.3909,36.7451 L140.1189,36.7451 Z"/>
    <path fill="#202225" d="M111.3347,65.3061 L109.8207,78.9821 C109.7337,79.7641 109.0757,80.3531 108.2897,80.3531 C107.4397,80.3531 106.7487,79.6621 106.7487,78.8121 L106.7487,66.6491 L108.4777,59.4611 C108.4967,59.3851 108.5057,59.3061 108.5057,59.2271 L108.5057,32.1741 C108.5057,31.6221 108.0577,31.1741 107.5057,31.1741 C106.9537,31.1741 106.5057,31.6221 106.5057,32.1741 L106.5057,59.1091 L104.7767,66.2971 C104.7577,66.3731 104.7487,66.4521 104.7487,66.5311 L104.7487,78.8121 C104.7487,80.7641 106.3367,82.3531 108.2897,82.3531 C110.0967,82.3531 111.6097,80.9981 111.8087,79.2021 L113.3227,65.5261 C113.3767,65.0351 113.0577,64.6051 112.5977,64.4731 C112.5437,64.4571 112.4967,64.4281 112.4387,64.4221 C111.9027,64.3671 111.3957,64.7571 111.3347,65.3061"/>
    <path fill="#4F545C" d="M110.7996,18.2011 C109.2946,18.2011 108.5056,18.8451 108.5056,19.0671 C108.5056,19.2901 109.2946,19.9331 110.7996,19.9331 C112.3046,19.9331 113.0936,19.2901 113.0936,19.0671 C113.0936,18.8451 112.3046,18.2011 110.7996,18.2011"/>
    <path fill="#72767D" d="M124.6902,26.6811 C124.6162,26.5981 124.4022,26.5311 124.0472,26.5311 C123.6712,26.5311 123.1392,26.6061 122.4462,26.8231 C121.1492,27.2281 119.9482,27.9111 119.4322,28.3751 C118.5062,29.2091 118.4322,30.6411 119.2652,31.5671 C120.0992,32.4921 121.5302,32.5671 122.4572,31.7331 C123.7872,30.5351 125.2272,27.2771 124.6902,26.6811"/>
    <path fill="#202225" d="M122.4568,31.7334 C121.5298,32.5664 120.0988,32.4914 119.2658,31.5664 C118.4318,30.6414 118.5068,29.2094 119.4318,28.3754 C119.9478,27.9114 121.1488,27.2284 122.4468,26.8234 C123.1388,26.6064 123.6718,26.5304 124.0468,26.5304 C124.4028,26.5304 124.6168,26.5984 124.6898,26.6814 C125.2278,27.2774 123.7868,30.5354 122.4568,31.7334 M110.7998,19.9334 C109.2938,19.9334 108.5058,19.2904 108.5058,19.0674 C108.5058,18.8444 109.2938,18.2014 110.7998,18.2014 C112.3048,18.2014 113.0938,18.8444 113.0938,19.0674 C113.0938,19.2904 112.3048,19.9334 110.7998,19.9334 M118.0938,26.8894 C116.5648,28.2674 116.2678,30.5084 117.2748,32.2164 L116.0198,33.3934 C115.6678,33.7224 115.0938,33.4734 115.0938,32.9924 L115.0938,19.0554 C115.0938,19.0454 115.0878,19.0364 115.0878,19.0264 C115.0558,17.4134 113.2268,16.2014 110.7998,16.2014 C108.3728,16.2014 106.5428,17.4134 106.5118,19.0264 C106.5108,19.0364 106.5058,19.0454 106.5058,19.0554 L106.5058,26.4734 C106.5058,27.0254 106.9538,27.4734 107.5058,27.4734 C108.0578,27.4734 108.5058,27.0254 108.5058,26.4734 L108.5058,24.0994 C108.5058,22.8614 109.5368,21.9294 110.7738,21.9334 L110.7998,21.9334 L110.8258,21.9334 C112.0618,21.9294 113.0938,22.8614 113.0938,24.0994 L113.0938,59.2274 C113.0938,59.6844 113.4058,60.0534 113.8238,60.1734 C113.9118,60.1984 113.9978,60.2274 114.0938,60.2274 C114.6458,60.2274 115.0938,59.7794 115.0938,59.2274 L115.0938,40.2684 C115.0938,38.1854 115.9558,36.1944 117.4758,34.7704 L118.6808,33.6404 C119.3698,34.0744 120.1528,34.3124 120.9468,34.3124 C121.9628,34.3124 122.9818,33.9514 123.7948,33.2194 C124.6098,32.4854 125.5568,31.0674 126.1508,29.6904 C126.9858,27.7544 126.9948,26.2514 126.1768,25.3424 C124.3078,23.2654 119.4388,25.6784 118.0938,26.8894"/>
    <path fill="#4F545C" d="M31.9539,33.1206 C31.9539,32.5686 32.4019,32.1206 32.9539,32.1206 C33.5059,32.1206 33.9539,32.5686 33.9539,33.1206 L33.9539,34.7156 C33.9539,35.2676 33.5059,35.7156 32.9539,35.7156 C32.4019,35.7156 31.9539,35.2676 31.9539,34.7156 L31.9539,33.1206 Z M31.9539,59.6276 L31.9539,39.9276 C31.9539,39.3756 32.4019,38.9276 32.9539,38.9276 C33.5059,38.9276 33.9539,39.3756 33.9539,39.9276 L33.9539,59.6276 L40.2989,59.6276 L40.2989,27.9656 L32.9539,18.8006 L25.6089,27.9656 L25.6089,59.6276 L31.9539,59.6276 Z"/>
    <path fill="#202225" d="M32.9539,35.7153 C33.5059,35.7153 33.9539,35.2673 33.9539,34.7153 L33.9539,33.1203 C33.9539,32.5683 33.5059,32.1203 32.9539,32.1203 C32.4019,32.1203 31.9539,32.5683 31.9539,33.1203 L31.9539,34.7153 C31.9539,35.2673 32.4019,35.7153 32.9539,35.7153"/>
    <path fill="#2E3136" d="M36.5901 70.5371L36.5901 66.4161 29.3181 66.4161 29.3181 74.7891 37.5901 74.7891 37.5901 71.5371C37.0381 71.5371 36.5901 71.0891 36.5901 70.5371M27.2849 76.7895C26.8719 76.7895 26.5359 77.1255 26.5359 77.5385L26.5359 79.6045C26.5359 80.0175 26.8719 80.3525 27.2849 80.3525L38.6229 80.3525C39.0359 80.3525 39.3719 80.0175 39.3719 79.6045L39.3719 77.5385C39.3719 77.1255 39.0359 76.7895 38.6229 76.7895L27.2849 76.7895zM45.3972 61.6279L20.5112 61.6279C19.7432 61.6279 19.1182 62.2529 19.1182 63.0199 19.1182 63.7919 19.7432 64.4159 20.5112 64.4159L25.6092 64.4159 28.3182 64.4159 37.5902 64.4159 40.2992 64.4159 45.3972 64.4159C46.1652 64.4159 46.7892 63.7919 46.7892 63.0239 46.7892 62.2529 46.1652 61.6279 45.3972 61.6279"/>
    <path fill="#202225" d="M39.3718,77.5381 L39.3718,79.6041 C39.3718,80.0171 39.0358,80.3531 38.6228,80.3531 L27.2848,80.3531 C26.8718,80.3531 26.5368,80.0171 26.5368,79.6041 L26.5368,77.5381 C26.5368,77.1251 26.8718,76.7891 27.2848,76.7891 L38.6228,76.7891 C39.0358,76.7891 39.3718,77.1251 39.3718,77.5381 Z M32.9538,18.8001 L37.9498,25.0341 C39.4708,26.9311 40.2988,29.2901 40.2988,31.7221 L40.2988,56.4551 C40.2988,58.2071 38.8788,59.6281 37.1268,59.6281 L37.1258,59.6281 C35.3738,59.6281 33.9538,58.2071 33.9538,56.4551 L33.9538,39.9281 C33.9538,39.3751 33.5058,38.9281 32.9538,38.9281 C32.4018,38.9281 31.9538,39.3751 31.9538,39.9281 L31.9538,56.4551 C31.9538,58.2071 30.5338,59.6281 28.7818,59.6281 C27.0298,59.6281 25.6088,58.2071 25.6088,56.4551 L25.6088,31.7221 C25.6088,29.2901 26.4378,26.9311 27.9578,25.0341 L32.9538,18.8001 Z M45.3968,64.4161 L40.2988,64.4161 L37.5898,64.4161 L28.3178,64.4161 L25.6088,64.4161 L20.5108,64.4161 C19.7428,64.4161 19.1188,63.7911 19.1188,63.0201 C19.1188,62.2521 19.7428,61.6281 20.5108,61.6281 L45.3968,61.6281 C46.1648,61.6281 46.7888,62.2521 46.7888,63.0241 C46.7888,63.7911 46.1648,64.4161 45.3968,64.4161 Z M45.3068,59.6281 L43.8328,59.6281 C42.9858,59.6281 42.2988,58.9411 42.2988,58.0941 L42.2988,27.6141 C42.2988,27.3871 42.2218,27.1661 42.0798,26.9891 L33.7338,16.5761 C33.3338,16.0761 32.5738,16.0761 32.1738,16.5761 L23.8288,26.9891 C23.6868,27.1661 23.6088,27.3871 23.6088,27.6141 L23.6088,58.0941 C23.6088,58.9411 22.9228,59.6281 22.0758,59.6281 L20.6128,59.6281 C18.9928,59.6281 17.5178,60.7231 17.1918,62.3091 C16.7438,64.4911 18.4068,66.4161 20.5108,66.4161 L24.6088,66.4161 L27.3178,66.4161 L27.3178,74.7891 L27.2848,74.7891 C25.7668,74.7891 24.5368,76.0201 24.5368,77.5381 L24.5368,79.6041 C24.5368,81.1221 25.7668,82.3531 27.2848,82.3531 L38.6228,82.3531 C40.1418,82.3531 41.3718,81.1221 41.3718,79.6041 L41.3718,77.5381 C41.3718,76.0201 40.1418,74.7891 38.6228,74.7891 L37.5898,74.7891 L31.2858,74.7891 C30.1988,74.7891 29.3178,73.9091 29.3178,72.8221 L29.3178,68.3831 C29.3178,67.2971 30.1988,66.4161 31.2858,66.4161 L34.6228,66.4161 C35.7088,66.4161 36.5898,67.2971 36.5898,68.3831 L36.5898,70.5371 C36.5898,71.0891 37.0378,71.5371 37.5898,71.5371 C38.1428,71.5371 38.5898,71.0891 38.5898,70.5371 L38.5898,66.4161 L41.2988,66.4161 L45.3968,66.4161 C47.4978,66.4161 49.1588,64.4961 48.7178,62.3131 C48.3968,60.7261 46.9258,59.6281 45.3068,59.6281 Z"/>
    <path fill="#4F545C" d="M74.8098,70.687 C74.6508,70.782 74.4738,70.83 74.2948,70.83 C74.1168,70.83 73.9388,70.782 73.7808,70.687 C64.2658,64.979 58.5848,54.925 58.5848,43.794 L58.5848,30.035 C58.5848,29.583 58.8868,29.188 59.3228,29.07 C69.0698,26.423 79.5218,26.424 89.2678,29.07 C89.7038,29.188 90.0058,29.583 90.0058,30.035 L90.0058,43.794 C90.0058,54.925 84.3248,64.979 74.8098,70.687 M84.8558,65.457 C89.8768,59.372 92.6418,51.679 92.6418,43.794 L92.6418,27.322 C80.7818,23.504 67.8098,23.503 55.9488,27.322 L55.9488,43.794 C55.9488,56.591 62.9648,68.115 74.2948,73.992 C76.5538,72.819 78.6768,71.395 80.6128,69.755 C81.0278,69.404 81.6418,69.453 82.0008,69.855 C83.0568,68.909 84.0418,67.897 84.9688,66.837 C84.5678,66.481 84.5128,65.873 84.8558,65.457"/>
    <path fill="#202225" d="M93.9592,25.6494 C81.2782,21.3954 67.3112,21.3964 54.6302,25.6494 C54.2232,25.7864 53.9482,26.1684 53.9482,26.5984 L53.9482,43.7944 C53.9482,57.5204 61.5732,69.8644 73.8472,76.0084 C73.9882,76.0794 74.1422,76.1144 74.2952,76.1144 C74.4482,76.1144 74.6022,76.0794 74.7432,76.0084 C77.3112,74.7234 79.7212,73.1324 81.9062,71.2804 C82.3272,70.9234 82.3792,70.2934 82.0222,69.8714 C82.0162,69.8644 82.0072,69.8614 82.0012,69.8554 C81.6422,69.4534 81.0282,69.4034 80.6132,69.7554 C78.6772,71.3954 76.5542,72.8194 74.2952,73.9924 C62.9652,68.1154 55.9482,56.5904 55.9482,43.7944 L55.9492,27.3214 C67.8092,23.5034 80.7812,23.5034 92.6422,27.3224 L92.6422,43.7944 C92.6422,51.6794 89.8762,59.3724 84.8562,65.4564 C84.5122,65.8734 84.5682,66.4814 84.9692,66.8374 C84.9782,66.8454 84.9822,66.8564 84.9912,66.8644 C85.4172,67.2164 86.0482,67.1554 86.3992,66.7294 C91.7142,60.2874 94.6422,52.1424 94.6422,43.7944 L94.6412,26.5974 C94.6412,26.1684 94.3672,25.7864 93.9592,25.6494"/>
    <path fill="#72767D" d="M60.5847,30.8047 L60.5847,43.7937 C60.5847,54.0137 65.6977,63.2627 74.2947,68.6567 C82.8927,63.2627 88.0057,54.0137 88.0057,43.7937 L88.0057,30.8047 C79.0637,28.5107 69.5297,28.5097 60.5847,30.8047"/>
    <path fill="#202225" d="M88.0056 43.7939C88.0056 53.2799 83.6006 61.9289 76.0926 67.4359 75.0276 68.2159 73.5626 68.2159 72.4976 67.4359 64.9896 61.9289 60.5846 53.2799 60.5846 43.7939L60.5846 33.2519C60.5846 31.7869 61.6206 30.5289 63.0556 30.2319 70.4426 28.7009 78.1496 28.7009 85.5346 30.2319 86.9696 30.5289 88.0056 31.7869 88.0056 33.2519L88.0056 43.7939zM90.0056 30.0349C90.0056 29.5839 89.7036 29.1879 89.2676 29.0699 79.5226 26.4239 69.0696 26.4229 59.3226 29.0699 58.8866 29.1879 58.5846 29.5839 58.5846 30.0349L58.5846 43.7939C58.5846 54.9249 64.2656 64.9789 73.7806 70.6869 73.9396 70.7819 74.1166 70.8299 74.2956 70.8299 74.4736 70.8299 74.6516 70.7819 74.8096 70.6869 84.3246 64.9789 90.0056 54.9249 90.0056 43.7939L90.0056 30.0349zM7.3923 44.6958L6.2083 45.8788C5.8183 46.2688 5.8183 46.9018 6.2083 47.2928 6.4043 47.4878 6.6603 47.5858 6.9153 47.5858 7.1713 47.5858 7.4273 47.4878 7.6223 47.2928L8.8063 46.1098C9.1973 45.7188 9.1973 45.0868 8.8063 44.6958 8.4153 44.3048 7.7833 44.3048 7.3923 44.6958M1.4763 50.6118L.2923 51.7958C-.0977 52.1858-.0977 52.8188.2923 53.2098.4883 53.4048.7443 53.5028.9993 53.5028 1.2553 53.5028 1.5123 53.4048 1.7063 53.2098L2.8903 52.0258C3.2813 51.6348 3.2813 51.0028 2.8903 50.6118 2.4993 50.2208 1.8663 50.2208 1.4763 50.6118M7.6228 50.6118C7.2318 50.2208 6.5998 50.2208 6.2088 50.6118 5.8178 51.0028 5.8178 51.6348 6.2088 52.0258L7.3928 53.2098C7.5878 53.4048 7.8438 53.5028 8.0998 53.5028 8.3548 53.5028 8.6108 53.4048 8.8068 53.2098 9.1968 52.8188 9.1968 52.1858 8.8068 51.7958L7.6228 50.6118zM1.7068 44.6958C1.3158 44.3048.6828 44.3048.2928 44.6958-.0982 45.0868-.0982 45.7188.2928 46.1098L1.4768 47.2928C1.6718 47.4878 1.9278 47.5858 2.1838 47.5858 2.4388 47.5858 2.6948 47.4878 2.8908 47.2928 3.2808 46.9018 3.2808 46.2688 2.8908 45.8788L1.7068 44.6958zM169.4778 52.9707L168.2948 54.1537C167.9038 54.5437 167.9038 55.1767 168.2948 55.5677 168.4898 55.7627 168.7458 55.8607 169.0018 55.8607 169.2578 55.8607 169.5138 55.7627 169.7088 55.5677L170.8918 54.3847C171.2828 53.9937 171.2828 53.3617 170.8918 52.9707 170.5008 52.5797 169.8688 52.5797 169.4778 52.9707M163.5618 58.8867L162.3788 60.0707C161.9878 60.4607 161.9878 61.0937 162.3788 61.4847 162.5738 61.6797 162.8298 61.7777 163.0858 61.7777 163.3418 61.7777 163.5978 61.6797 163.7928 61.4847L164.9758 60.3007C165.3668 59.9097 165.3668 59.2777 164.9758 58.8867 164.5848 58.4957 163.9518 58.4957 163.5618 58.8867M169.7087 58.8867C169.3177 58.4957 168.6857 58.4957 168.2947 58.8867 167.9037 59.2777 167.9037 59.9097 168.2947 60.3007L169.4777 61.4847C169.6727 61.6797 169.9287 61.7777 170.1847 61.7777 170.4407 61.7777 170.6967 61.6797 170.8917 61.4847 171.2827 61.0937 171.2827 60.4607 170.8917 60.0707L169.7087 58.8867zM163.7927 52.9707C163.4017 52.5797 162.7687 52.5797 162.3787 52.9707 161.9877 53.3617 161.9877 53.9937 162.3787 54.3847L163.5617 55.5677C163.7567 55.7627 164.0127 55.8607 164.2687 55.8607 164.5247 55.8607 164.7807 55.7627 164.9757 55.5677 165.3667 55.1767 165.3667 54.5437 164.9757 54.1537L163.7927 52.9707zM67.7585 2C68.5915 2 69.2685 2.677 69.2685 3.51 69.2685 4.342 68.5915 5.02 67.7585 5.02 66.9255 5.02 66.2485 4.342 66.2485 3.51 66.2485 2.677 66.9255 2 67.7585 2M67.7585 7.02C69.6945 7.02 71.2685 5.445 71.2685 3.51 71.2685 1.575 69.6945-.42108547e-14 67.7585-.42108547e-14 65.8235-.42108547e-14 64.2485 1.575 64.2485 3.51 64.2485 5.445 65.8235 7.02 67.7585 7.02M81.4758 11.5298L81.9858 11.5298C82.5378 11.5298 82.9858 11.9778 82.9858 12.5298L82.9858 13.0408C82.9858 13.5928 83.4338 14.0408 83.9858 14.0408 84.5378 14.0408 84.9858 13.5928 84.9858 13.0408L84.9858 12.5298C84.9858 11.9778 85.4338 11.5298 85.9858 11.5298L86.4958 11.5298C87.0478 11.5298 87.4958 11.0828 87.4958 10.5298 87.4958 9.9768 87.0478 9.5298 86.4958 9.5298L85.9858 9.5298C85.4338 9.5298 84.9858 9.0818 84.9858 8.5298L84.9858 8.0198C84.9858 7.4678 84.5378 7.0198 83.9858 7.0198 83.4338 7.0198 82.9858 7.4678 82.9858 8.0198L82.9858 8.5298C82.9858 9.0818 82.5378 9.5298 81.9858 9.5298L81.4758 9.5298C80.9238 9.5298 80.4758 9.9768 80.4758 10.5298 80.4758 11.0828 80.9238 11.5298 81.4758 11.5298M180.2688 41.4023L179.7588 41.4023C179.2068 41.4023 178.7588 40.9543 178.7588 40.4023L178.7588 39.8923C178.7588 39.3393 178.3108 38.8923 177.7588 38.8923 177.2058 38.8923 176.7588 39.3393 176.7588 39.8923L176.7588 40.4023C176.7588 40.9543 176.3108 41.4023 175.7588 41.4023L175.2488 41.4023C174.6968 41.4023 174.2488 41.8493 174.2488 42.4023 174.2488 42.9553 174.6968 43.4023 175.2488 43.4023L175.7588 43.4023C176.3108 43.4023 176.7588 43.8503 176.7588 44.4023L176.7588 44.9133C176.7588 45.4653 177.2058 45.9133 177.7588 45.9133 178.3108 45.9133 178.7588 45.4653 178.7588 44.9133L178.7588 44.4023C178.7588 43.8503 179.2068 43.4023 179.7588 43.4023L180.2688 43.4023C180.8208 43.4023 181.2688 42.9553 181.2688 42.4023 181.2688 41.8493 180.8208 41.4023 180.2688 41.4023"/>
  </g>
</svg>
