<svg fill="none" height="20" viewBox="0 0 44 20" width="44" xmlns="http://www.w3.org/2000/svg"><path d="m0 15.6971v-13.35849c0-.03544.0178055-.07087.0534166-.07087l2.9023034-.88584c.05341-.01772.10683.01771.10683.07087v9.38993 4.8722c0 .0531-.03561.0885-.08903.0885h-2.8844925c-.0534166-.0177-.0890275-.0531-.0890275-.1063z" fill="#fff"/><path d="m20.4051 0c1.0861 0 1.923.85041 1.923 1.89571 0 1.04529-.8547 1.878-1.923 1.878-1.0327 0-1.8874-.85042-1.8874-1.878-.0178-1.0453.8547-1.89571 1.8874-1.89571z" fill="#ff7e61"/><g fill="#fff"><path d="m21.7405 5.22646h-2.7777c-.089 0-.1602.07087-.1602.15945v10.27579c0 .0886.0712.1595.1602.1595h2.7777c.089 0 .1603-.0709.1603-.1595v-10.27579c0-.08858-.0713-.15945-.1603-.15945z"/><path d="m5.92925 5.26191-5.234823 4.60638 5.573113 5.98831c.01783.0177.01783.0177.03563.0177h3.79253c.1069 0 .1603-.124.0891-.1949l-4.91436-5.5631 4.70066-4.71268c.0712-.07084.0178-.17716-.07124-.17716h-3.8994c-.03561 0-.05341.01771-.07121.03545z"/><path d="m35.7179 10.3112h-3.1339v9.4254c0 .0354.0357.0709.0713.0531l2.9734-.9212c.0178 0 .0357-.0355.0357-.0532z"/><path d="m37.8547 15.7503c-2.9024 0-5.2707-2.3563-5.2707-5.2442 0-2.88784 2.3683-5.22648 5.2707-5.22648 2.9023 0 5.2703 2.35635 5.2703 5.24418 0 2.8879-2.368 5.2265-5.2703 5.2265zm0-7.37023c-1.1754 0-2.1368.95671-2.1368 2.12603 0 1.1693.9614 2.126 2.1368 2.126 1.175 0 2.1364-.9567 2.1364-2.126 0-1.16932-.9435-2.12603-2.1364-2.12603z"/><path d="m31.5335 12.5081c-.0535-1.9311-1.9765-2.67526-3.4009-3.20674-.7122-.26578-1.46-.54923-1.4957-.85042-.0178-.07087-.0178-.28348.1425-.47836.178-.1949.4807-.28348.908-.26577.8013.03545 1.1396.58468 1.2643.90358l.0178.03542.0356.03545c.1068.10629.2848.14174.4095.05313l1.8696-1.09842c.1602-.08861.2136-.28348.1246-.44293-.7122-1.25791-2.1189-1.96658-3.8816-1.96658-1.0327 0-1.9942.3189-2.7242.88583-.7835.60239-1.2108 1.45281-1.2108 2.39181 0 1.29332.7122 2.25 2.1189 2.8701.2492.1063.6053.1949.9971.2835.7834.1949 1.8695.4606 1.7627.9213-.0534.2657-.3739.6909-1.0327.6555-.5698-.0354-1.0505-.3366-1.2464-.815v-.0177l-.0178-.0354c-.0891-.1418-.2849-.1949-.4451-.1063l-1.8696 1.1161c-.1603.0886-.2137.2835-.1247.443.7122 1.2401 2.1189 1.9665 3.8638 1.9665h.0178c1.2108 0 2.3682-.4606 3.0982-1.2047.552-.567.8369-1.2934.8191-2.0729z"/><path d="m16.025 5.24422c-2.8311.01774-5.128 2.30322-5.128 5.12018v5.3859c0 .0178.0178.0532.0534.0532h3.116c.0178 0 .0534-.0177.0534-.0532v-4.8721c0-1.34647 1.1039-2.44492 2.4571-2.44492h.5698c.0356 0 .0712-.03545.0712-.05316l.3205-2.97642c.0178-.08861-.0534-.15948-.1424-.15948z"/></g></svg>