<svg width="300" height="120" viewBox="0 0 300 120" fill="none" xmlns="http://www.w3.org/2000/svg">
<g clip-path="url(#clip0)">
<path d="M239.69 38.41H205.21C202.922 38.4089 200.668 37.8644 198.632 36.8212C196.596 35.7781 194.837 34.2661 193.5 32.41L180 13.83C177.007 9.69779 173.078 6.333 168.534 4.01091C163.991 1.68881 158.962 0.475408 153.86 0.469971H97.07C89.1041 0.475147 81.4655 3.63992 75.83 9.26997C73.0422 12.0613 69.7311 14.2754 66.0865 15.7854C62.4418 17.2954 58.5351 18.0718 54.59 18.07H49.89C46.6181 18.07 43.3782 18.7151 40.3558 19.9684C37.3334 21.2218 34.5878 23.0587 32.276 25.3742C29.9642 27.6897 28.1317 30.4383 26.8832 33.4627C25.6347 36.4871 24.9948 39.728 25 43V63.43C25.0001 65.2926 24.4915 67.1199 23.5293 68.7147C22.5672 70.3096 21.1878 71.6115 19.54 72.48C13.6332 75.6106 8.69223 80.2932 5.24911 86.0235C1.80599 91.7538 -0.00884287 98.3148 3.23972e-05 105V120H300V98.71C300 90.7911 298.441 82.9497 295.411 75.6335C292.381 68.3173 287.939 61.6696 282.34 56.07C276.739 50.4699 270.089 46.028 262.772 42.9979C255.454 39.9678 247.61 38.4088 239.69 38.41Z" fill="#AEC7FF"/>
<path d="M214.56 88.48H272.75C274.455 88.48 276.091 89.1574 277.297 90.3633C278.503 91.5691 279.18 93.2046 279.18 94.91V120H208.13V94.91C208.13 93.2046 208.807 91.5691 210.013 90.3633C211.219 89.1574 212.855 88.48 214.56 88.48Z" fill="#EBF0F7"/>
<path d="M38.27 106.65H221.11L213.11 52.16C212.771 49.8346 211.607 47.709 209.829 46.172C208.051 44.635 205.78 43.7895 203.43 43.79H47.31C46.1239 43.79 44.9495 44.0244 43.8543 44.4798C42.7591 44.9352 41.7647 45.6026 40.9283 46.4437C40.0919 47.2847 39.43 48.2828 38.9807 49.3805C38.5314 50.4782 38.3034 51.6539 38.31 52.84L38.27 106.65Z" fill="white"/>
<path d="M228 88.85C230.187 88.85 231.96 87.077 231.96 84.89C231.96 82.7029 230.187 80.93 228 80.93C225.813 80.93 224.04 82.7029 224.04 84.89C224.04 87.077 225.813 88.85 228 88.85Z" fill="#FFD836"/>
<path d="M198.69 87.39C200.071 87.39 201.19 86.2707 201.19 84.89C201.19 83.5093 200.071 82.39 198.69 82.39C197.309 82.39 196.19 83.5093 196.19 84.89C196.19 86.2707 197.309 87.39 198.69 87.39Z" fill="#FFD836"/>
<path d="M204.49 88.28C206.727 88.28 208.54 86.4667 208.54 84.23C208.54 81.9932 206.727 80.18 204.49 80.18C202.253 80.18 200.44 81.9932 200.44 84.23C200.44 86.4667 202.253 88.28 204.49 88.28Z" fill="#FFD836"/>
<path d="M221.42 88.28C223.657 88.28 225.47 86.4667 225.47 84.23C225.47 81.9932 223.657 80.18 221.42 80.18C219.183 80.18 217.37 81.9932 217.37 84.23C217.37 86.4667 219.183 88.28 221.42 88.28Z" fill="#FFD836"/>
<path d="M216.95 84.3C219.187 84.3 221 82.4868 221 80.25C221 78.0133 219.187 76.2 216.95 76.2C214.713 76.2 212.9 78.0133 212.9 80.25C212.9 82.4868 214.713 84.3 216.95 84.3Z" fill="#FFD836"/>
<path d="M214.91 88.94C217.147 88.94 218.96 87.1267 218.96 84.89C218.96 82.6532 217.147 80.84 214.91 80.84C212.673 80.84 210.86 82.6532 210.86 84.89C210.86 87.1267 212.673 88.94 214.91 88.94Z" fill="#FFD836"/>
<path d="M210.36 86.44C212.597 86.44 214.41 84.6267 214.41 82.39C214.41 80.1532 212.597 78.34 210.36 78.34C208.123 78.34 206.31 80.1532 206.31 82.39C206.31 84.6267 208.123 86.44 210.36 86.44Z" fill="#FFD836"/>
<path d="M192.28 84.89C192.218 87.7862 192.735 90.6656 193.8 93.3594C194.866 96.0531 196.458 98.5071 198.484 100.577C200.511 102.647 202.93 104.292 205.6 105.415C208.271 106.538 211.138 107.116 214.035 107.116C216.932 107.116 219.8 106.538 222.47 105.415C225.14 104.292 227.559 102.647 229.586 100.577C231.612 98.5071 233.205 96.0531 234.27 93.3594C235.335 90.6656 235.852 87.7862 235.79 84.89H192.28Z" fill="#F47FFF"/>
<path d="M193.38 87.63L194 84.9C194.264 83.7715 194.069 82.5844 193.457 81.5999C192.846 80.6153 191.868 79.914 190.74 79.65C189.613 79.3859 188.427 79.5798 187.443 80.1891C186.458 80.7984 185.756 81.7734 185.49 82.9L184.86 85.6C184.565 86.8525 183.861 87.9712 182.86 88.78C182.13 89.3786 181.529 90.1186 181.092 90.9555C180.656 91.7924 180.393 92.7089 180.32 93.65C180.035 95.4866 180.491 97.3613 181.588 98.8616C182.685 100.362 184.333 101.365 186.17 101.65C188.007 101.935 189.881 101.479 191.382 100.382C192.882 99.2848 193.885 97.6366 194.17 95.8C194.521 94.299 194.366 92.7242 193.73 91.32C193.211 90.1618 193.088 88.8651 193.38 87.63Z" fill="black"/>
<path d="M190.13 93.93C189.865 93.93 189.61 93.8246 189.423 93.6371C189.235 93.4496 189.13 93.1952 189.13 92.93C189.13 92.6648 189.235 92.4104 189.423 92.2229C189.61 92.0354 189.865 91.93 190.13 91.93L199.38 91.69C199.645 91.69 199.9 91.7954 200.087 91.9829C200.275 92.1704 200.38 92.4248 200.38 92.69C200.38 92.9552 200.275 93.2096 200.087 93.3971C199.9 93.5846 199.645 93.69 199.38 93.69L190.13 93.93ZM179.91 107.65C179.768 107.649 179.629 107.619 179.5 107.56C179.379 107.506 179.271 107.429 179.18 107.332C179.09 107.236 179.019 107.123 178.973 106.999C178.926 106.876 178.905 106.744 178.909 106.612C178.914 106.48 178.945 106.35 179 106.23L183.68 95.93C183.734 95.8105 183.812 95.7029 183.908 95.6133C184.004 95.5238 184.117 95.454 184.24 95.4081C184.363 95.3621 184.494 95.3408 184.625 95.3455C184.756 95.3501 184.885 95.3805 185.005 95.435C185.124 95.4895 185.232 95.567 185.322 95.6631C185.411 95.7592 185.481 95.8719 185.527 95.995C185.573 96.118 185.594 96.2489 185.589 96.3802C185.585 96.5114 185.554 96.6405 185.5 96.76L180.82 107.06C180.741 107.235 180.613 107.384 180.452 107.489C180.29 107.594 180.102 107.65 179.91 107.65ZM190.53 107.65C190.312 107.647 190.102 107.573 189.93 107.44C189.719 107.279 189.581 107.042 189.545 106.779C189.51 106.517 189.58 106.251 189.74 106.04C191.22 104.04 191.74 102.94 191.66 102.21C191.58 101.48 190.23 100.43 188.11 99.13C187.974 99.0781 187.851 98.9972 187.75 98.893C187.649 98.7888 187.571 98.6637 187.523 98.5266C187.475 98.3894 187.458 98.2434 187.472 98.0987C187.486 97.954 187.531 97.8142 187.605 97.6889C187.679 97.5636 187.779 97.4559 187.898 97.3733C188.018 97.2906 188.154 97.235 188.297 97.2104C188.441 97.1858 188.588 97.1926 188.728 97.2306C188.868 97.2685 188.999 97.3365 189.11 97.43C191.44 98.85 193.25 100.08 193.58 101.84C193.88 103.44 192.93 105.1 191.29 107.25C191.201 107.369 191.087 107.467 190.955 107.536C190.824 107.605 190.678 107.644 190.53 107.65Z" fill="black"/>
<path d="M205.45 104.89H222.63V106.65H205.45V104.89Z" fill="#CE4ADB"/>
<path d="M211.87 80.52C213.068 80.52 214.04 79.5484 214.04 78.35C214.04 77.1515 213.068 76.18 211.87 76.18C210.671 76.18 209.7 77.1515 209.7 78.35C209.7 79.5484 210.671 80.52 211.87 80.52Z" fill="#FFD836"/>
<path d="M210.36 83.84C210.686 83.84 210.95 83.5759 210.95 83.25C210.95 82.9242 210.686 82.66 210.36 82.66C210.034 82.66 209.77 82.9242 209.77 83.25C209.77 83.5759 210.034 83.84 210.36 83.84Z" fill="#FF9A15"/>
<path d="M216.67 79.53C216.996 79.53 217.26 79.2658 217.26 78.94C217.26 78.6141 216.996 78.35 216.67 78.35C216.344 78.35 216.08 78.6141 216.08 78.94C216.08 79.2658 216.344 79.53 216.67 79.53Z" fill="#FF9A15"/>
<path d="M221.7 82.98C222.026 82.98 222.29 82.7158 222.29 82.39C222.29 82.0641 222.026 81.8 221.7 81.8C221.374 81.8 221.11 82.0641 221.11 82.39C221.11 82.7158 221.374 82.98 221.7 82.98Z" fill="#FF9A15"/>
<path d="M202.85 83.84C203.176 83.84 203.44 83.5759 203.44 83.25C203.44 82.9242 203.176 82.66 202.85 82.66C202.524 82.66 202.26 82.9242 202.26 83.25C202.26 83.5759 202.524 83.84 202.85 83.84Z" fill="#FF9A15"/>
<path d="M214.3 81.27C214.217 80.9601 214.073 80.6698 213.876 80.4161C213.68 80.1624 213.435 79.9502 213.156 79.792C212.877 79.6338 212.569 79.5327 212.25 79.4946C211.932 79.4565 211.609 79.4821 211.3 79.57" stroke="#FF9A15" stroke-width="0.75" stroke-miterlimit="10" stroke-linecap="round"/>
<path d="M47.31 43.79C49.697 43.79 51.9862 44.7382 53.674 46.426C55.3618 48.1139 56.31 50.4031 56.31 52.79V106.6H38.27V52.84C38.2634 51.6505 38.4926 50.4715 38.9445 49.3712C39.3963 48.2709 40.0618 47.271 40.9024 46.4295C41.743 45.5879 42.7422 44.9213 43.842 44.4683C44.9418 44.0152 46.1206 43.7847 47.31 43.79Z" fill="#EBF0F7"/>
<path d="M272.76 88.48C274.465 88.48 276.101 89.1574 277.307 90.3633C278.513 91.5691 279.19 93.2046 279.19 94.91V120H266.33V94.91C266.33 93.2046 267.007 91.5691 268.213 90.3633C269.419 89.1574 271.055 88.48 272.76 88.48Z" fill="white"/>
<path d="M147.77 84H161.93C162.681 84 163.4 83.7019 163.931 83.1711C164.462 82.6404 164.76 81.9206 164.76 81.17C164.76 80.4185 164.462 79.6977 163.932 79.1654C163.401 78.633 162.682 78.3327 161.93 78.33H147.77V84ZM164.76 95.32V101H170.42C171.924 101 173.366 101.597 174.429 102.661C175.493 103.724 176.09 105.166 176.09 106.67H143.53V86.83H156.27C158.522 86.83 160.681 87.7245 162.273 89.3167C163.866 90.9089 164.76 93.0683 164.76 95.32Z" fill="#7196FF"/>
<path d="M106.71 68.43H143.52C150.556 68.43 156.26 62.7261 156.26 55.69V35.87C156.26 28.8339 150.556 23.13 143.52 23.13L106.71 23.13C99.6739 23.13 93.97 28.8339 93.97 35.87V55.69C93.97 62.7261 99.6739 68.43 106.71 68.43Z" fill="#567EF7"/>
<path d="M114.51 68.43H151.32C158.356 68.43 164.06 62.7261 164.06 55.69V35.87C164.06 28.8339 158.356 23.13 151.32 23.13L114.51 23.13C107.474 23.13 101.77 28.8339 101.77 35.87V55.69C101.77 62.7261 107.474 68.43 114.51 68.43Z" fill="#7196FF"/>
<path d="M156.97 60.64H144.23C140.851 60.64 137.611 59.2978 135.221 56.9085C132.832 54.5193 131.49 51.2789 131.49 47.9V40.82C131.49 39.6928 131.938 38.6118 132.735 37.8148C133.532 37.0178 134.613 36.57 135.74 36.57H164.05C165.177 36.57 166.258 37.0178 167.055 37.8148C167.852 38.6118 168.3 39.6928 168.3 40.82V49.31C168.3 50.7979 168.007 52.2712 167.438 53.6458C166.868 55.0204 166.034 56.2694 164.982 57.3215C163.929 58.3736 162.68 59.2082 161.306 59.7776C159.931 60.3469 158.458 60.64 156.97 60.64Z" fill="#AEC7FF"/>
<path d="M120.17 48.61C122.517 48.61 124.42 46.7072 124.42 44.36C124.42 42.0128 122.517 40.11 120.17 40.11C117.823 40.11 115.92 42.0128 115.92 44.36C115.92 46.7072 117.823 48.61 120.17 48.61Z" fill="#202225"/>
<path d="M157.33 54.62H160.87C161.848 54.62 162.64 53.8275 162.64 52.85C162.64 51.8725 161.848 51.08 160.87 51.08H157.33C156.352 51.08 155.56 51.8725 155.56 52.85C155.56 53.8275 156.352 54.62 157.33 54.62Z" fill="#7196FF"/>
<path d="M145.36 54.62H150.31C151.287 54.62 152.08 53.8275 152.08 52.85C152.08 51.8725 151.287 51.08 150.31 51.08H145.36C144.382 51.08 143.59 51.8725 143.59 52.85C143.59 53.8275 144.382 54.62 145.36 54.62Z" fill="#7196FF"/>
<path d="M146.36 106.65H111.68V68.43H140.68C144.809 68.43 148.77 70.0704 151.69 72.9903C154.61 75.9103 156.25 79.8706 156.25 84V96.74C156.25 99.3648 155.209 101.882 153.355 103.74C151.5 105.598 148.985 106.645 146.36 106.65Z" fill="#AEC7FF"/>
<path d="M87 87.05L89.62 96.05C89.6486 96.1474 89.6507 96.2506 89.6261 96.349C89.6015 96.4475 89.5511 96.5376 89.48 96.61C89.4082 96.682 89.3181 96.7331 89.2194 96.7577C89.1208 96.7824 89.0173 96.7797 88.92 96.75L80 94.1C78.7264 93.6876 77.639 92.8393 76.929 91.7044C76.219 90.5695 75.9319 89.2205 76.1183 87.8948C76.3046 86.5692 76.9523 85.3516 77.9476 84.4563C78.9429 83.5611 80.2221 83.0454 81.56 83H82C83.1435 83.0957 84.2318 83.533 85.1235 84.2553C86.0151 84.9776 86.669 85.9513 87 87.05ZM104.59 58.51H93.27C91.7689 58.51 90.3292 57.9137 89.2678 56.8522C88.2063 55.7908 87.61 54.3511 87.61 52.85V40.11C87.61 38.6089 88.2063 37.1692 89.2678 36.1078C90.3292 35.0463 91.7689 34.45 93.27 34.45H104.59V58.51Z" fill="#7196FF"/>
<path d="M101.06 54.26H95.3999C94.6494 54.26 93.9296 53.9618 93.3988 53.4311C92.8681 52.9004 92.5699 52.1806 92.5699 51.43V41.52C92.5699 40.7694 92.8681 40.0496 93.3988 39.5189C93.9296 38.9882 94.6494 38.69 95.3999 38.69H101.06V54.26Z" fill="#AEC7FF"/>
<path d="M160.67 78.26L158.07 84.2C157.476 85.3771 156.581 86.3764 155.477 87.0964C154.372 87.8164 153.097 88.2316 151.78 88.3C151.037 88.3005 150.307 88.0988 149.669 87.7166C149.032 87.3343 148.51 86.7859 148.16 86.13C147.945 85.7253 147.645 85.3717 147.281 85.0933C146.917 84.8149 146.497 84.6182 146.05 84.5166C145.603 84.4151 145.139 84.4111 144.691 84.5048C144.242 84.5986 143.819 84.7879 143.45 85.06L141.74 86.31C139.969 87.6051 137.834 88.3053 135.64 88.31H133.85C131.39 88.31 130.18 86.47 131.16 84.21L133.77 78.27C134.355 77.0981 135.239 76.1017 136.333 75.3817C137.427 74.6617 138.692 74.2436 140 74.17H158C160.45 74.17 161.65 76 160.67 78.26Z" fill="black"/>
<path d="M105.3 68.42H115.92C118.173 68.4226 120.332 69.3193 121.924 70.9131C123.516 72.5069 124.41 74.6674 124.41 76.92V78.33H134.2C134.919 78.3196 135.617 78.5751 136.16 79.0475C136.702 79.52 137.051 80.176 137.14 80.89C137.179 81.2836 137.135 81.6811 137.011 82.0568C136.887 82.4324 136.686 82.7779 136.42 83.071C136.155 83.364 135.83 83.5981 135.469 83.7581C135.107 83.9181 134.716 84.0005 134.32 84H114.5V86.83H115.92C118.172 86.83 120.331 87.7245 121.923 89.3167C123.516 90.9088 124.41 93.0683 124.41 95.32V101H132.91C133.654 101 134.391 101.147 135.078 101.432C135.766 101.717 136.39 102.135 136.916 102.661C137.442 103.188 137.858 103.813 138.142 104.501C138.426 105.189 138.571 105.926 138.57 106.67H105.3C103.813 106.667 102.34 106.372 100.967 105.8C99.5942 105.228 98.3473 104.391 97.2979 103.337C96.2485 102.283 95.4171 101.032 94.8512 99.6566C94.2853 98.281 93.9961 96.8074 94 95.32V79.75C94 76.7503 95.1896 73.873 97.3079 71.7491C99.4262 69.6251 102.3 68.4279 105.3 68.42Z" fill="#7196FF"/>
<path d="M141.78 76.8C141.78 76.1538 141.256 75.63 140.61 75.63C139.964 75.63 139.44 76.1538 139.44 76.8V78.04C139.44 78.6862 139.964 79.21 140.61 79.21C141.256 79.21 141.78 78.6862 141.78 78.04V76.8Z" fill="#B2C1D1"/>
<path d="M159.46 76.8C159.46 76.1538 158.936 75.63 158.29 75.63C157.644 75.63 157.12 76.1538 157.12 76.8V78.04C157.12 78.6862 157.644 79.21 158.29 79.21C158.936 79.21 159.46 78.6862 159.46 78.04V76.8Z" fill="#B2C1D1"/>
<path d="M152.79 78.1H147.53C147.068 78.1009 146.616 78.2318 146.225 78.4776C145.835 78.7234 145.521 79.0743 145.32 79.49L145.14 79.86C145.061 80.0257 145.026 80.209 145.038 80.3921C145.05 80.5753 145.11 80.7523 145.21 80.9059C145.311 81.0596 145.449 81.1849 145.612 81.2696C145.775 81.3544 145.956 81.3959 146.14 81.39H151.4C151.855 81.3816 152.298 81.2473 152.682 81.0019C153.065 80.7565 153.372 80.4097 153.57 80L153.75 79.62C153.828 79.458 153.864 79.2789 153.853 79.0994C153.843 78.9199 153.787 78.746 153.691 78.5939C153.595 78.4419 153.462 78.3168 153.304 78.2304C153.147 78.144 152.97 78.0991 152.79 78.1Z" fill="#83DDC5"/>
<path d="M50.78 70.94C50.6074 70.941 50.4375 70.8973 50.2868 70.8132C50.1361 70.7291 50.0097 70.6074 49.92 70.46L45.92 63.82C45.8315 63.7077 45.7681 63.5778 45.7341 63.4389C45.7001 63.3 45.6963 63.1555 45.7229 63.015C45.7495 62.8746 45.8059 62.7415 45.8883 62.6246C45.9707 62.5078 46.0772 62.41 46.2006 62.3379C46.324 62.2657 46.4615 62.2208 46.6037 62.2063C46.7459 62.1917 46.8896 62.2079 47.0251 62.2536C47.1605 62.2992 47.2846 62.3734 47.389 62.4712C47.4933 62.5689 47.5755 62.6878 47.63 62.82L51.63 69.45C51.6989 69.5628 51.7448 69.6881 51.7651 69.8187C51.7853 69.9493 51.7794 70.0826 51.7478 70.2109C51.7162 70.3392 51.6595 70.46 51.5809 70.5663C51.5023 70.6726 51.4034 70.7622 51.29 70.83C51.1313 70.907 50.9563 70.9448 50.78 70.94ZM60.63 69.89C60.4696 69.8909 60.3114 69.8532 60.1687 69.7801C60.026 69.707 59.903 69.6006 59.81 69.47C59.6582 69.2536 59.5982 68.9859 59.6432 68.7255C59.6881 68.465 59.8344 68.2329 60.05 68.08C60.9727 67.423 61.7086 66.5373 62.1854 65.5099C62.6623 64.4826 62.8638 63.3488 62.77 62.22C62.7329 61.9548 62.8026 61.6857 62.9639 61.4719C63.1252 61.2581 63.3648 61.1171 63.63 61.08C63.8952 61.0429 64.1643 61.1126 64.3781 61.2739C64.5919 61.4352 64.7328 61.6748 64.77 61.94C64.9157 63.4321 64.6651 64.9362 64.0436 66.3005C63.422 67.6647 62.4515 68.8408 61.23 69.71C61.0544 69.8327 60.8441 69.8958 60.63 69.89Z" fill="black"/>
<path d="M59.16 64.26L58.8 61.47C58.726 60.9006 58.5406 60.3514 58.2542 59.8538C57.9679 59.3561 57.5863 58.9198 57.1312 58.5696C56.6762 58.2195 56.1566 57.9625 55.6022 57.8133C55.0477 57.6641 54.4693 57.6256 53.9 57.7C52.7513 57.852 51.7095 58.4529 51.0029 59.3713C50.2963 60.2897 49.9824 61.4507 50.13 62.6L50.49 65.35C50.6408 66.617 50.3739 67.8985 49.73 69C49.2568 69.8164 48.9535 70.72 48.8383 71.6566C48.7232 72.5931 48.7986 73.5433 49.06 74.45C49.4379 76.2694 50.5231 77.8641 52.0769 78.8834C53.6306 79.9027 55.5256 80.2629 57.345 79.885C59.1644 79.5071 60.7591 78.4219 61.7784 76.8681C62.7977 75.3144 63.1579 73.4194 62.78 71.6C62.5687 70.0839 61.8661 68.6788 60.78 67.6C59.8831 66.6982 59.3129 65.5227 59.16 64.26ZM249 89.48C248.756 89.4821 248.519 89.3948 248.335 89.2345C248.151 89.0742 248.032 88.8521 248 88.61C248 88.54 247.13 81.61 246.57 78.06C246.55 77.9287 246.555 77.7946 246.587 77.6655C246.618 77.5364 246.675 77.4148 246.753 77.3075C246.832 77.2003 246.931 77.1095 247.044 77.0404C247.158 76.9714 247.284 76.9254 247.415 76.905C247.546 76.8847 247.68 76.8904 247.809 76.9218C247.939 76.9533 248.06 77.0098 248.168 77.0883C248.275 77.1668 248.366 77.2656 248.435 77.3791C248.504 77.4927 248.55 77.6187 248.57 77.75C249.14 81.35 250.01 88.29 250.02 88.36C250.037 88.4907 250.028 88.6235 249.993 88.7506C249.958 88.8778 249.899 88.9968 249.818 89.1009C249.737 89.205 249.636 89.2921 249.522 89.3571C249.407 89.4222 249.281 89.464 249.15 89.48H249ZM242.89 89.34C242.625 89.34 242.37 89.2347 242.183 89.0471C241.995 88.8596 241.89 88.6052 241.89 88.34C241.89 88.34 242.1 83.67 242.7 78.45C242.715 78.3187 242.756 78.1916 242.82 78.0761C242.884 77.9605 242.971 77.8588 243.074 77.7766C243.178 77.6944 243.296 77.6334 243.424 77.5971C243.551 77.5608 243.684 77.5499 243.815 77.565C243.946 77.5801 244.073 77.6209 244.189 77.6851C244.304 77.7493 244.406 77.8357 244.488 77.9392C244.571 78.0428 244.632 78.1615 244.668 78.2886C244.704 78.4157 244.715 78.5487 244.7 78.68C244.1 83.82 243.9 88.38 243.89 88.43C243.867 88.6793 243.752 88.9111 243.567 89.0796C243.382 89.2481 243.14 89.341 242.89 89.34Z" fill="black"/>
<path d="M251.07 65.1L251.14 62.29C251.172 61.1326 250.744 60.0096 249.949 59.1678C249.154 58.3259 248.057 57.834 246.9 57.8C246.326 57.7827 245.754 57.8791 245.217 58.0836C244.68 58.2881 244.189 58.5966 243.771 58.9916C243.354 59.3865 243.019 59.8601 242.785 60.3849C242.552 60.9098 242.424 61.4757 242.41 62.05L242.33 64.82C242.292 66.106 241.824 67.3421 241 68.33C240.316 69.1974 239.846 70.2144 239.63 71.2979C239.414 72.3814 239.458 73.5007 239.758 74.5641C240.057 75.6276 240.604 76.605 241.354 77.4165C242.104 78.228 243.035 78.8504 244.071 79.233C245.108 79.6155 246.22 79.7473 247.317 79.6176C248.415 79.4878 249.466 79.1002 250.384 78.4864C251.303 77.8726 252.063 77.0501 252.603 76.0861C253.143 75.1221 253.447 74.044 253.49 72.94C253.54 71.3951 253.072 69.8778 252.16 68.63C251.418 67.6053 251.035 66.3645 251.07 65.1ZM105.18 92.66L104.9 89.87C104.774 88.7252 104.201 87.6765 103.306 86.9518C102.411 86.2271 101.266 85.885 100.12 86C98.9679 86.1162 97.9091 86.6849 97.176 87.5811C96.4429 88.4773 96.0955 89.6278 96.2099 90.78L96.4899 93.54C96.6078 94.8192 96.3022 96.1016 95.6199 97.19C95.0589 98.1373 94.7293 99.2036 94.6577 100.302C94.5862 101.401 94.7748 102.501 95.2083 103.513C95.6417 104.525 96.3078 105.421 97.1523 106.127C97.9969 106.833 98.9962 107.33 100.069 107.578C101.142 107.825 102.258 107.816 103.326 107.552C104.395 107.287 105.386 106.774 106.219 106.054C107.052 105.334 107.704 104.428 108.121 103.409C108.538 102.39 108.709 101.287 108.62 100.19C108.471 98.6532 107.813 97.2102 106.75 96.09C105.86 95.1531 105.307 93.9461 105.18 92.66Z" fill="black"/>
<path d="M104.54 97.9C104.336 97.8995 104.137 97.8367 103.97 97.72C103.753 97.5686 103.605 97.3373 103.558 97.0767C103.511 96.8161 103.569 96.5476 103.72 96.33L108.23 89.81C108.388 89.5925 108.626 89.4467 108.891 89.4045C109.022 89.3836 109.157 89.3888 109.286 89.4198C109.415 89.4507 109.537 89.5069 109.645 89.585C109.753 89.6632 109.844 89.7617 109.913 89.8751C109.983 89.9885 110.03 90.1145 110.051 90.2459C110.071 90.3773 110.066 90.5115 110.035 90.6409C110.004 90.7703 109.948 90.8923 109.87 91L105.36 97.52C105.263 97.6433 105.138 97.7419 104.995 97.808C104.853 97.874 104.697 97.9055 104.54 97.9ZM62.87 88.13C62.6455 88.1383 62.4248 88.0708 62.2434 87.9384C62.062 87.806 61.9305 87.6163 61.87 87.4C60.9672 84.1508 59.7376 81.0014 58.2 78C58.0804 77.7715 58.0538 77.5056 58.1257 77.2579C58.1975 77.0102 58.3623 76.7998 58.5856 76.6707C58.8089 76.5417 59.0735 76.5039 59.324 76.5652C59.5745 76.6266 59.7916 76.7824 59.93 77C61.5767 80.1538 62.8873 83.4721 63.84 86.9C63.8749 87.0268 63.8844 87.1591 63.8681 87.2895C63.8518 87.42 63.81 87.5459 63.745 87.6602C63.68 87.7744 63.5931 87.8747 63.4893 87.9553C63.3854 88.0359 63.2668 88.0953 63.14 88.13C63.0502 88.1399 62.9597 88.1399 62.87 88.13Z" fill="black"/>
<path d="M50.33 106.65H257.86C260.106 106.65 262.261 107.542 263.849 109.131C265.438 110.719 266.33 112.874 266.33 115.12V120H50.33V106.65Z" fill="#DAE1EA"/>
<path d="M105.51 114.32C105.273 114.324 105.043 114.244 104.86 114.093C104.677 113.943 104.553 113.733 104.51 113.5L104.01 110.68C103.3 107.19 103.01 106.53 99.5601 106.53C99.2948 106.53 99.0405 106.425 98.853 106.237C98.6654 106.05 98.5601 105.795 98.5601 105.53C98.5601 105.265 98.6654 105.01 98.853 104.823C99.0405 104.635 99.2948 104.53 99.5601 104.53C104.33 104.53 105.14 106.2 105.97 110.31L106.48 113.15C106.503 113.279 106.5 113.412 106.472 113.54C106.444 113.669 106.391 113.79 106.315 113.898C106.24 114.006 106.145 114.097 106.034 114.168C105.923 114.239 105.799 114.287 105.67 114.31L105.51 114.32Z" fill="black"/>
<path d="M111.7 112.61C111.479 112.62 111.262 112.557 111.081 112.43C110.9 112.304 110.766 112.121 110.7 111.91C109.27 107.31 107.9 106.53 104.49 106.53C104.225 106.53 103.97 106.425 103.783 106.237C103.595 106.05 103.49 105.795 103.49 105.53C103.49 105.265 103.595 105.01 103.783 104.823C103.97 104.635 104.225 104.53 104.49 104.53C109.04 104.53 111.01 106.18 112.61 111.32C112.688 111.573 112.663 111.847 112.539 112.082C112.415 112.316 112.203 112.492 111.95 112.57C111.869 112.594 111.785 112.607 111.7 112.61ZM92.12 107.45C92.0339 107.464 91.9462 107.464 91.86 107.45C91.7333 107.415 91.6146 107.356 91.5108 107.275C91.4069 107.195 91.32 107.094 91.255 106.98C91.19 106.866 91.1482 106.74 91.1319 106.61C91.1156 106.479 91.1251 106.347 91.16 106.22C91.22 105.99 92.74 100.61 96.07 98.06C96.1738 97.9735 96.294 97.909 96.4233 97.8703C96.5527 97.8315 96.6886 97.8194 96.8227 97.8346C96.9569 97.8498 97.0866 97.892 97.2041 97.9587C97.3215 98.0254 97.4242 98.1152 97.506 98.2227C97.5877 98.3301 97.6469 98.453 97.6799 98.584C97.7129 98.7149 97.719 98.8512 97.6979 98.9846C97.6768 99.118 97.6289 99.2457 97.5571 99.36C97.4852 99.4744 97.391 99.573 97.28 99.65C94.49 101.8 93.1 106.71 93.09 106.76C93.0236 106.964 92.8935 107.141 92.7189 107.265C92.5442 107.389 92.3343 107.454 92.12 107.45Z" fill="black"/>
<path d="M31.9 88.48H76.8C78.5053 88.48 80.1408 89.1574 81.3467 90.3633C82.5525 91.5691 83.23 93.2046 83.23 94.91V120H25.47V94.91C25.47 93.2046 26.1474 91.5691 27.3533 90.3633C28.5591 89.1574 30.1946 88.48 31.9 88.48Z" fill="#EBF0F7"/>
<path d="M76.8 88.48C78.5053 88.48 80.1408 89.1574 81.3467 90.3633C82.5525 91.5691 83.23 93.2046 83.23 94.91V120H70.37V94.91C70.37 93.2046 71.0474 91.5691 72.2533 90.3633C73.4592 89.1574 75.0947 88.48 76.8 88.48Z" fill="white"/>
<path d="M55 89.48C54.7348 89.48 54.4804 89.3746 54.2929 89.1871C54.1054 88.9995 54 88.7452 54 88.48C54.2042 84.7923 53.9218 81.0939 53.16 77.48C53.1162 77.2148 53.1796 76.943 53.3362 76.7245C53.4928 76.5061 53.7298 76.3587 53.995 76.315C54.2602 76.2712 54.532 76.3346 54.7504 76.4912C54.9689 76.6478 55.1162 76.8848 55.16 77.15C55.9295 80.8912 56.2119 84.7163 56 88.53C55.9872 88.7864 55.8762 89.0281 55.69 89.205C55.5038 89.3818 55.2568 89.4803 55 89.48Z" fill="black"/>
<path d="M242.35 74.17C244.968 74.17 247.09 72.0478 247.09 69.43C247.09 66.8122 244.968 64.69 242.35 64.69C239.732 64.69 237.61 66.8122 237.61 69.43C237.61 72.0478 239.732 74.17 242.35 74.17Z" fill="#FFD836"/>
<path d="M244.35 75.04C245.576 75.04 246.57 74.046 246.57 72.82C246.57 71.5939 245.576 70.6 244.35 70.6C243.124 70.6 242.13 71.5939 242.13 72.82C242.13 74.046 243.124 75.04 244.35 75.04Z" fill="#FFD836"/>
<path d="M238.99 75.05C239.956 75.05 240.74 74.2665 240.74 73.3C240.74 72.3335 239.956 71.55 238.99 71.55C238.023 71.55 237.24 72.3335 237.24 73.3C237.24 74.2665 238.023 75.05 238.99 75.05Z" fill="#FFD836"/>
<path d="M238.57 71.56C239.918 71.56 241.01 70.4676 241.01 69.12C241.01 67.7724 239.918 66.68 238.57 66.68C237.222 66.68 236.13 67.7724 236.13 69.12C236.13 70.4676 237.222 71.56 238.57 71.56Z" fill="#FFD836"/>
<path d="M245.33 70.9C244.705 70.4657 243.933 70.2965 243.183 70.4296C242.434 70.5626 241.767 70.987 241.33 71.61" stroke="#FF9A15" stroke-width="0.75" stroke-miterlimit="10" stroke-linecap="round"/>
<path d="M237.84 70.05C237.744 70.0652 237.646 70.0652 237.55 70.05L235.84 69.53C235.711 69.4945 235.59 69.4333 235.485 69.3503C235.38 69.2672 235.293 69.1639 235.229 69.0464C235.164 68.929 235.124 68.7998 235.111 68.6666C235.097 68.5333 235.111 68.3987 235.15 68.2708C235.19 68.1428 235.254 68.0241 235.341 67.9217C235.427 67.8193 235.533 67.7352 235.652 67.6745C235.772 67.6138 235.902 67.5777 236.036 67.5684C236.169 67.559 236.303 67.5766 236.43 67.62L238.13 68.14C238.395 68.1785 238.634 68.3207 238.795 68.5355C238.955 68.7502 239.023 69.0198 238.985 69.285C238.947 69.5502 238.804 69.7893 238.59 69.9497C238.375 70.11 238.105 70.1785 237.84 70.14V70.05ZM247.46 70.81C246.881 70.808 246.303 70.768 245.73 70.69C245.467 70.6529 245.23 70.5129 245.071 70.301C244.912 70.0891 244.843 69.8226 244.88 69.56C244.917 69.2975 245.057 69.0604 245.269 68.901C245.481 68.7416 245.747 68.6729 246.01 68.71C248.193 69.0619 250.431 68.6335 252.33 67.5C252.549 67.3489 252.819 67.2908 253.08 67.3386C253.342 67.3864 253.574 67.5362 253.725 67.755C253.876 67.9738 253.934 68.2437 253.886 68.5053C253.839 68.767 253.689 68.9989 253.47 69.15C251.675 70.2849 249.583 70.8626 247.46 70.81Z" fill="black"/>
<path d="M43.441 49.042C43.9755 48.8081 44.5811 48.796 45.1245 49.0085C45.6679 49.2211 46.1046 49.6407 46.3386 50.1752L51.7439 62.524L47.7131 64.2884L42.3078 51.9396C42.0738 51.4051 42.0618 50.7995 42.2743 50.2561C42.4868 49.7127 42.9065 49.276 43.441 49.042Z" fill="#FF9A15"/>
<path d="M41.6433 58.1619L46.4986 56.0367L49.7065 63.3653L42.6709 66.4449L40.4214 61.3057C40.1679 60.7266 40.1542 60.0707 40.3832 59.4815C40.6122 58.8923 41.0653 58.4178 41.6433 58.1619Z" fill="#FF9A15"/>
<path d="M45.9342 58.0616L46.0222 57.5795L49.8883 58.2856L49.5415 60.1842L47.0921 59.7368C46.7164 59.6682 46.3833 59.4532 46.1662 59.139C45.949 58.8248 45.8656 58.4373 45.9342 58.0616Z" fill="#FFD836"/>
<path d="M49.89 58.29L51.74 62.52L47.74 64.28V64.18C47.3945 63.3882 47.3774 62.4917 47.6924 61.6874C48.0074 60.883 48.6287 60.2365 49.42 59.89L49.89 58.29Z" fill="#FFD836"/>
<path d="M209.5 17.41C209.5 16.8798 209.07 16.45 208.54 16.45C208.01 16.45 207.58 16.8798 207.58 17.41V18.36C207.58 18.8902 208.01 19.32 208.54 19.32C209.07 19.32 209.5 18.8902 209.5 18.36V17.41Z" fill="#7196FF"/>
<path d="M209.5 25.07C209.5 24.5398 209.07 24.11 208.54 24.11C208.01 24.11 207.58 24.5398 207.58 25.07V26.02C207.58 26.5502 208.01 26.98 208.54 26.98C209.07 26.98 209.5 26.5502 209.5 26.02V25.07Z" fill="#7196FF"/>
<path d="M212.85 22.68C213.38 22.68 213.81 22.2502 213.81 21.72C213.81 21.1898 213.38 20.76 212.85 20.76H211.9C211.37 20.76 210.94 21.1898 210.94 21.72C210.94 22.2502 211.37 22.68 211.9 22.68H212.85Z" fill="#7196FF"/>
<path d="M205.19 22.68C205.72 22.68 206.15 22.2502 206.15 21.72C206.15 21.1898 205.72 20.76 205.19 20.76H204.24C203.71 20.76 203.28 21.1898 203.28 21.72C203.28 22.2502 203.71 22.68 204.24 22.68H205.19Z" fill="#7196FF"/>
<path d="M78.0901 22.73L76.8701 25.26C76.8095 25.3901 76.7904 25.5358 76.8154 25.6772C76.8403 25.8185 76.9082 25.9488 77.0097 26.0503C77.1112 26.1518 77.2415 26.2197 77.3829 26.2447C77.5243 26.2697 77.6699 26.2506 77.8001 26.19L80.3301 25C80.4238 24.9555 80.5263 24.9324 80.6301 24.9324C80.7338 24.9324 80.8363 24.9555 80.9301 25L83.4701 26.22C83.5998 26.2836 83.7463 26.3049 83.8889 26.2808C84.0314 26.2567 84.1627 26.1885 84.2644 26.0857C84.366 25.983 84.4329 25.8509 84.4554 25.7081C84.478 25.5653 84.4551 25.4191 84.3901 25.29L83.1701 22.76C83.1256 22.6662 83.1025 22.5638 83.1025 22.46C83.1025 22.3562 83.1256 22.2537 83.1701 22.16L84.3901 19.63C84.4551 19.5009 84.478 19.3546 84.4554 19.2119C84.4329 19.0691 84.366 18.937 84.2644 18.8342C84.1627 18.7315 84.0314 18.6632 83.8889 18.6392C83.7463 18.6151 83.5998 18.6363 83.4701 18.7L80.9301 19.92C80.8363 19.9645 80.7338 19.9875 80.6301 19.9875C80.5263 19.9875 80.4238 19.9645 80.3301 19.92L77.8001 18.67C77.6699 18.6094 77.5243 18.5903 77.3829 18.6153C77.2415 18.6403 77.1112 18.7081 77.0097 18.8096C76.9082 18.9112 76.8403 19.0414 76.8154 19.1828C76.7904 19.3242 76.8095 19.4698 76.8701 19.6L78.0901 22.13C78.1345 22.2237 78.1576 22.3262 78.1576 22.43C78.1576 22.5338 78.1345 22.6362 78.0901 22.73Z" fill="#AEC7FF"/>
<path d="M15.41 44.54C15.41 44.0098 14.9802 43.58 14.45 43.58C13.9198 43.58 13.49 44.0098 13.49 44.54V45.49C13.49 46.0202 13.9198 46.45 14.45 46.45C14.9802 46.45 15.41 46.0202 15.41 45.49V44.54Z" fill="#D4E4FF"/>
<path d="M15.41 52.2C15.41 51.6698 14.9802 51.24 14.45 51.24C13.9198 51.24 13.49 51.6698 13.49 52.2V53.15C13.49 53.6802 13.9198 54.11 14.45 54.11C14.9802 54.11 15.41 53.6802 15.41 53.15V52.2Z" fill="#D4E4FF"/>
<path d="M18.75 49.81C19.2802 49.81 19.71 49.3802 19.71 48.85C19.71 48.3198 19.2802 47.89 18.75 47.89H17.8C17.2698 47.89 16.84 48.3198 16.84 48.85C16.84 49.3802 17.2698 49.81 17.8 49.81H18.75Z" fill="#D4E4FF"/>
<path d="M11.09 49.82C11.6202 49.82 12.05 49.3902 12.05 48.86C12.05 48.3298 11.6202 47.9 11.09 47.9H10.14C9.60986 47.9 9.18005 48.3298 9.18005 48.86C9.18005 49.3902 9.60986 49.82 10.14 49.82H11.09Z" fill="#D4E4FF"/>
</g>
<defs>
<clipPath id="clip0">
<rect width="300" height="120" fill="white"/>
</clipPath>
</defs>
</svg>
