<svg xmlns="http://www.w3.org/2000/svg" width="80" height="80" viewBox="0 0 80 80" xmlns:xlink="http://www.w3.org/1999/xlink">
  <defs>
    <linearGradient id="a" x1="-2.92%" x2="113.994%" y1="110.958%" y2="-13.704%">
      <stop stop-color="#B473F5" offset="0%"/>
      <stop stop-color="#E292AA" offset="100%"/>
    </linearGradient>
    <path id="b" d="M5.47417442,12.394729 C5.47417442,13.4395618 4.58607364,14.3101165 3.52018217,14.3101165 L2.4542907,14.3101165 C1.38839922,14.3101165 0.499872093,13.4395618 0.499872093,12.394729 C0.499872093,11.3498961 1.38839922,10.4793414 2.4542907,10.4793414 L3.52018217,10.4793414 C4.58607364,10.4793414 5.47417442,11.3498961 5.47417442,12.394729 Z M53.6169109,11.8723126 C58.2356318,21.4500861 53.9720659,32.9432472 43.8460969,37.4707168 C34.0757093,41.8243262 22.3509031,37.6449949 17.9095465,28.0672214 C17.0214457,26.1518338 16.4885,24.0621682 16.3107093,21.9725025 L12.4022984,21.9725025 C11.336407,21.9725025 10.4483062,21.1015299 10.4483062,20.0566971 C10.4483062,19.0118642 11.336407,18.1413095 12.4022984,18.1413095 L18.0873372,18.1413095 C19.1532287,18.1413095 20.0413295,17.2707548 20.0413295,16.225922 C20.0413295,15.1810892 19.1532287,14.3101165 18.0873372,14.3101165 L9.02725969,14.3101165 C7.96136822,14.3101165 7.07284109,13.4395618 7.07284109,12.394729 C7.07284109,11.3498961 7.96136822,10.4793414 9.02725969,10.4793414 L21.6401667,10.4793414 C22.7060581,10.4793414 23.5941589,9.60836879 23.5941589,8.56353597 C23.5941589,7.51870314 22.7060581,6.64814843 21.6401667,6.64814843 L16.4885,6.64814843 C14.8896628,6.64814843 13.4681899,5.42903749 13.4681899,3.68792806 C13.4681899,2.12067882 14.7118721,0.727289767 16.4885,0.727289767 L36.5626473,0.727289767 C43.6687326,1.075846 50.4192364,5.08089919 53.6169109,11.8723126 Z M31.1657403,9.95140831 C25.5484922,12.4799037 23.0854302,18.9933916 25.6648876,24.4996606 C28.244345,30.0059296 34.8891124,32.4203293 40.5063605,29.8918338 C46.1240349,27.3633384 48.5866705,20.8498506 46.0072132,15.3435816 C43.4277558,9.83731256 36.7829884,7.42291287 31.1657403,9.95140831 Z M40.1156473,13.6137145 L43.6684767,19.5345732 C43.8462674,19.8827115 43.8462674,20.0569896 43.6684767,20.4051279 L40.1156473,26.3259866 C39.9378566,26.6741249 39.5827016,26.6741249 39.4049109,26.6741249 L32.4766163,26.6741249 C32.1214612,26.6741249 31.9436705,26.4998468 31.7663062,26.3259866 L28.2130504,20.4051279 C28.035686,20.0569896 28.035686,19.8827115 28.2130504,19.5345732 L31.7663062,13.6137145 C31.9436705,13.2655762 32.2992519,13.2655762 32.4766163,13.2655762 L39.4049109,13.2655762 C39.7604922,13.0912981 39.9378566,13.2655762 40.1156473,13.6137145 Z"/>
  </defs>
  <g fill="none" fill-rule="evenodd">
    <rect width="80" height="80" fill="url(#a)" rx="5"/>
    <g transform="translate(9 21)">
      <use fill="#FFFFFF" xlink:href="#b"/>
    </g>
  </g>
</svg>
