<svg width="275" height="160" viewBox="0 0 275 160" fill="none" xmlns="http://www.w3.org/2000/svg">
<g clip-path="url(#clip0)">
<path d="M243.5 16H31.5C27.0817 16 23.5 19.5817 23.5 24V152C23.5 156.418 27.0817 160 31.5 160H243.5C247.918 160 251.5 156.418 251.5 152V24C251.5 19.5817 247.918 16 243.5 16Z" fill="#292B2F"/>
<path d="M117.28 16H57.6001V160H117.28V16Z" fill="#202225"/>
<path d="M57.6 16H31.5C29.3783 16 27.3434 16.8429 25.8431 18.3431C24.3429 19.8434 23.5 21.8783 23.5 24V152C23.5 154.122 24.3429 156.157 25.8431 157.657C27.3434 159.157 29.3783 160 31.5 160H57.6V16Z" fill="#18191C"/>
<path d="M23.5 57.74H24.83C25.005 57.7387 25.1786 57.7722 25.3405 57.8385C25.5025 57.9049 25.6497 58.0028 25.7734 58.1266C25.8972 58.2503 25.9951 58.3975 26.0615 58.5595C26.1278 58.7214 26.1613 58.895 26.16 59.07V77.71C26.1496 78.0558 26.0049 78.3839 25.7566 78.6247C25.5083 78.8655 25.1759 79.0002 24.83 79H23.5V57.74Z" fill="white"/>
<path d="M45.93 57.74H35.29C32.3463 57.74 29.96 60.1263 29.96 63.07V73.71C29.96 76.6537 32.3463 79.04 35.29 79.04H45.93C48.8736 79.04 51.26 76.6537 51.26 73.71V63.07C51.26 60.1263 48.8736 57.74 45.93 57.74Z" fill="#58F287"/>
<path d="M40.61 51.85C46.4918 51.85 51.26 47.0818 51.26 41.2C51.26 35.3182 46.4918 30.55 40.61 30.55C34.7281 30.55 29.96 35.3182 29.96 41.2C29.96 47.0818 34.7281 51.85 40.61 51.85Z" fill="#2F3136"/>
<path d="M40.61 106.22C46.4918 106.22 51.26 101.452 51.26 95.57C51.26 89.6882 46.4918 84.92 40.61 84.92C34.7281 84.92 29.96 89.6882 29.96 95.57C29.96 101.452 34.7281 106.22 40.61 106.22Z" fill="#2F3136"/>
<path d="M31.5 16C30.9896 15.9989 30.4803 16.0491 29.98 16.15C30.082 18.915 31.2572 21.5316 33.2562 23.4447C35.2553 25.3577 37.9209 26.4168 40.6878 26.3973C43.4546 26.3778 46.1051 25.2812 48.0769 23.3401C50.0488 21.3991 51.1869 18.7662 51.25 16H31.5Z" fill="#2F3136"/>
<path d="M55 52.37H117.17" stroke="#18191C" stroke-width="3" stroke-miterlimit="10"/>
<path d="M105.51 62.92H69.69C67.2655 62.92 65.3 64.8855 65.3 67.31V67.32C65.3 69.7445 67.2655 71.71 69.69 71.71H105.51C107.935 71.71 109.9 69.7445 109.9 67.32V67.31C109.9 64.8855 107.935 62.92 105.51 62.92Z" fill="white" fill-opacity="0.06"/>
<path d="M105.51 80.53H69.69C67.2655 80.53 65.3 82.4955 65.3 84.92V84.93C65.3 87.3545 67.2655 89.32 69.69 89.32H105.51C107.935 89.32 109.9 87.3545 109.9 84.93V84.92C109.9 82.4955 107.935 80.53 105.51 80.53Z" fill="white" fill-opacity="0.06"/>
<path d="M105.35 98.65H82.0599C79.6354 98.65 77.6699 100.615 77.6699 103.04V103.05C77.6699 105.475 79.6354 107.44 82.0599 107.44H105.35C107.774 107.44 109.74 105.475 109.74 103.05V103.04C109.74 100.615 107.774 98.65 105.35 98.65Z" fill="#58F287"/>
<path d="M69.5799 107.49C72.032 107.49 74.0199 105.502 74.0199 103.05C74.0199 100.598 72.032 98.61 69.5799 98.61C67.1278 98.61 65.1399 100.598 65.1399 103.05C65.1399 105.502 67.1278 107.49 69.5799 107.49Z" fill="#58F287"/>
<path d="M105.35 116.86H82.0599C79.6354 116.86 77.6699 118.825 77.6699 121.25V121.26C77.6699 123.685 79.6354 125.65 82.0599 125.65H105.35C107.774 125.65 109.74 123.685 109.74 121.26V121.25C109.74 118.825 107.774 116.86 105.35 116.86Z" fill="#58F287"/>
<path d="M69.5799 125.69C72.032 125.69 74.0199 123.702 74.0199 121.25C74.0199 118.798 72.032 116.81 69.5799 116.81C67.1278 116.81 65.1399 118.798 65.1399 121.25C65.1399 123.702 67.1278 125.69 69.5799 125.69Z" fill="#58F287"/>
<path d="M105.35 134.44H82.0599C79.6354 134.44 77.6699 136.405 77.6699 138.83V138.84C77.6699 141.265 79.6354 143.23 82.0599 143.23H105.35C107.774 143.23 109.74 141.265 109.74 138.84V138.83C109.74 136.405 107.774 134.44 105.35 134.44Z" fill="#58F287"/>
<path d="M69.5799 143.27C72.032 143.27 74.0199 141.282 74.0199 138.83C74.0199 136.378 72.032 134.39 69.5799 134.39C67.1278 134.39 65.1399 136.378 65.1399 138.83C65.1399 141.282 67.1278 143.27 69.5799 143.27Z" fill="#58F287"/>
<path opacity="0.3" d="M29.96 68.06L41.46 57.74H37.54L29.96 64.54V68.06Z" fill="white"/>
<path opacity="0.3" d="M45.94 57.74H43L30 69.4V73.71C30.008 73.9612 30.0314 74.2117 30.07 74.46L48.17 58.22C47.4698 57.9016 46.7092 57.7378 45.94 57.74Z" fill="white"/>
<path d="M237.47 23.98H131.57C128.162 23.98 125.4 26.7424 125.4 30.15V110.64C125.4 114.048 128.162 116.81 131.57 116.81H237.47C240.878 116.81 243.64 114.048 243.64 110.64V30.15C243.64 26.7424 240.878 23.98 237.47 23.98Z" fill="#58F287"/>
<path d="M117.18 16H57.6001V51.85H117.18V16Z" fill="#58F287"/>
<path opacity="0.3" d="M125.4 46.55V85.01L193.41 23.98H150.55L125.4 46.55Z" fill="white"/>
<path opacity="0.3" d="M125.4 103.48L213.99 23.98H201.45L125.4 92.23V103.48Z" fill="white"/>
<path opacity="0.5" d="M219.76 116.81L243.64 95.38V84.14L207.23 116.81H219.76Z" fill="white"/>
<path opacity="0.3" d="M57.6001 39.4L83.6801 16H72.2401L57.6001 29.14V39.4Z" fill="white"/>
<path opacity="0.3" d="M93.8599 51.85L117.17 30.93V27.4L89.9299 51.85H93.8599Z" fill="white"/>
<path opacity="0.3" d="M101.06 51.85L117.17 37.39V32.27L95.3501 51.85H101.06Z" fill="white"/>
<path d="M105.35 29.89H82.0599C79.6354 29.89 77.6699 31.8555 77.6699 34.28V34.29C77.6699 36.7145 79.6354 38.68 82.0599 38.68H105.35C107.774 38.68 109.74 36.7145 109.74 34.29V34.28C109.74 31.8555 107.774 29.89 105.35 29.89Z" fill="#5865F2"/>
<path d="M69.5799 38.72C72.032 38.72 74.0199 36.7321 74.0199 34.28C74.0199 31.8279 72.032 29.84 69.5799 29.84C67.1278 29.84 65.1399 31.8279 65.1399 34.28C65.1399 36.7321 67.1278 38.72 69.5799 38.72Z" fill="#5865F2"/>
<path d="M255.4 44.71C254.67 44.2373 254.049 43.6148 253.579 42.8837C253.108 42.1527 252.798 41.3299 252.67 40.47L252.22 37.47C252.21 37.4002 252.175 37.3364 252.122 37.2903C252.069 37.2443 252 37.2193 251.93 37.22C251.859 37.2193 251.791 37.2443 251.738 37.2903C251.684 37.3364 251.65 37.4002 251.64 37.47L251.19 40.47C251.062 41.3299 250.752 42.1527 250.281 42.8837C249.81 43.6148 249.19 44.2373 248.46 44.71L248.07 44.95C248.03 44.9785 247.998 45.0159 247.975 45.0594C247.952 45.1028 247.94 45.151 247.94 45.2C247.939 45.2491 247.951 45.2976 247.974 45.3412C247.996 45.3848 248.029 45.4222 248.07 45.45L248.46 45.7C249.198 46.1772 249.825 46.8086 250.296 47.5509C250.767 48.2932 251.072 49.1287 251.19 50L251.64 53C251.647 53.0716 251.681 53.1379 251.735 53.1859C251.788 53.234 251.858 53.2604 251.93 53.26C252.002 53.2604 252.071 53.234 252.125 53.1859C252.179 53.1379 252.213 53.0716 252.22 53L252.67 50C252.797 49.1411 253.107 48.3193 253.577 47.5897C254.048 46.8601 254.67 46.2397 255.4 45.77L255.78 45.52C255.823 45.494 255.858 45.4573 255.883 45.4135C255.908 45.3697 255.92 45.3202 255.92 45.27C255.919 45.22 255.906 45.1709 255.882 45.1272C255.857 45.0836 255.822 45.0467 255.78 45.02L255.4 44.71Z" fill="#EB459F"/>
<path d="M49.87 47.51C49.2638 47.119 48.7472 46.6041 48.3542 45.9991C47.9612 45.3942 47.7008 44.7128 47.59 44L47.22 41.53C47.2105 41.4708 47.1799 41.4171 47.1341 41.3785C47.0882 41.34 47.03 41.3192 46.97 41.32C46.9118 41.3216 46.856 41.3434 46.8122 41.3818C46.7684 41.4201 46.7393 41.4725 46.73 41.53L46.36 44C46.2506 44.7146 45.9908 45.3979 45.5978 46.0047C45.2048 46.6115 44.6875 47.1279 44.08 47.52L43.76 47.73C43.7251 47.7525 43.6966 47.7837 43.6773 47.8205C43.658 47.8573 43.6486 47.8985 43.65 47.94C43.6496 47.9814 43.6594 48.0222 43.6786 48.0589C43.6978 48.0955 43.7258 48.1268 43.76 48.15L44.08 48.36C44.6883 48.7511 45.2063 49.2673 45.5994 49.8743C45.9926 50.4812 46.2519 51.165 46.36 51.88L46.73 54.35C46.7393 54.4075 46.7684 54.4599 46.8122 54.4982C46.856 54.5366 46.9118 54.5584 46.97 54.56C47.03 54.5608 47.0882 54.54 47.1341 54.5014C47.1799 54.4629 47.2105 54.4092 47.22 54.35L47.59 51.88C47.6982 51.165 47.9575 50.4812 48.3507 49.8743C48.7438 49.2673 49.2618 48.7511 49.87 48.36L50.19 48.15C50.2243 48.1268 50.2523 48.0955 50.2715 48.0589C50.2907 48.0222 50.3005 47.9814 50.3 47.94C50.3015 47.8985 50.2921 47.8573 50.2728 47.8205C50.2535 47.7837 50.225 47.7525 50.19 47.73L49.87 47.51Z" fill="#FF78B9"/>
<path d="M16.5699 131.65C15.9613 131.257 15.4433 130.739 15.0502 130.13C14.6571 129.522 14.398 128.836 14.2899 128.12L13.9199 125.66C13.9103 125.601 13.8798 125.547 13.8339 125.509C13.788 125.47 13.7298 125.449 13.6699 125.45C13.6117 125.452 13.5559 125.473 13.5121 125.512C13.4682 125.55 13.4392 125.603 13.4299 125.66L13.0599 128.12C12.9518 128.836 12.6926 129.522 12.2995 130.13C11.9065 130.739 11.3884 131.257 10.7799 131.65L10.4599 131.86C10.4257 131.881 10.3976 131.91 10.3783 131.945C10.359 131.98 10.3492 132.02 10.3499 132.06C10.3503 132.101 10.3604 132.142 10.3796 132.178C10.3987 132.215 10.4262 132.246 10.4599 132.27L10.7799 132.47C11.3876 132.864 11.9049 133.382 12.2979 133.991C12.6909 134.599 12.9506 135.284 13.0599 136L13.4299 138.46C13.437 138.519 13.4651 138.574 13.5092 138.614C13.5532 138.655 13.6102 138.678 13.6699 138.68C13.7313 138.68 13.7907 138.658 13.8368 138.618C13.883 138.577 13.9125 138.521 13.9199 138.46L14.2899 136C14.3992 135.284 14.6589 134.599 15.0518 133.991C15.4448 133.382 15.9622 132.864 16.5699 132.47L16.8899 132.27C16.9236 132.246 16.9511 132.215 16.9702 132.178C16.9893 132.142 16.9995 132.101 16.9999 132.06C17.0005 132.02 16.9907 131.98 16.9714 131.945C16.9522 131.91 16.924 131.881 16.8899 131.86L16.5699 131.65Z" fill="#5865F2"/>
<path d="M105.94 76.11C105.202 75.6357 104.573 75.0097 104.095 74.2734C103.617 73.5371 103.302 72.7076 103.17 71.84L102.73 68.84C102.718 68.7684 102.682 68.7032 102.627 68.6557C102.572 68.6082 102.502 68.5814 102.43 68.58C102.357 68.5793 102.286 68.6054 102.231 68.6533C102.176 68.7012 102.14 68.7675 102.13 68.84L101.69 71.84C101.558 72.7076 101.243 73.5371 100.765 74.2734C100.287 75.0097 99.6584 75.6357 98.92 76.11L98.54 76.36C98.4962 76.3876 98.4603 76.426 98.4358 76.4716C98.4112 76.5171 98.3989 76.5683 98.4 76.62C98.3989 76.6717 98.4112 76.7229 98.4358 76.7684C98.4603 76.814 98.4962 76.8524 98.54 76.88L98.92 77.13C99.6584 77.6042 100.287 78.2303 100.765 78.9666C101.243 79.7029 101.558 80.5324 101.69 81.4L102.13 84.4C102.14 84.4724 102.176 84.5388 102.231 84.5867C102.286 84.6346 102.357 84.6607 102.43 84.66C102.502 84.6586 102.572 84.6318 102.627 84.5843C102.682 84.5368 102.718 84.4716 102.73 84.4L103.17 81.4C103.302 80.5324 103.617 79.7029 104.095 78.9666C104.573 78.2303 105.202 77.6042 105.94 77.13L106.32 76.88C106.364 76.8524 106.4 76.814 106.424 76.7684C106.449 76.7229 106.461 76.6717 106.46 76.62C106.461 76.5683 106.449 76.5171 106.424 76.4716C106.4 76.426 106.364 76.3876 106.32 76.36L105.94 76.11Z" fill="white"/>
<path d="M274.19 17.77C273.052 17.0374 272.084 16.0707 271.349 14.9343C270.615 13.798 270.131 12.5181 269.93 11.18L269.24 6.57C269.225 6.45867 269.17 6.35654 269.086 6.28286C269.001 6.20918 268.892 6.16904 268.78 6.17C268.668 6.17113 268.561 6.21201 268.476 6.28531C268.392 6.35861 268.337 6.45954 268.32 6.57L267.63 11.18C267.433 12.5193 266.95 13.8007 266.215 14.9375C265.481 16.0744 264.51 17.0403 263.37 17.77L262.78 18.16C262.712 18.1994 262.655 18.2563 262.617 18.3249C262.578 18.3935 262.558 18.4713 262.56 18.55C262.561 18.6282 262.582 18.7048 262.62 18.7729C262.659 18.841 262.714 18.8984 262.78 18.94L263.37 19.32C264.509 20.0507 265.479 21.0168 266.214 22.1535C266.949 23.2902 267.431 24.5711 267.63 25.91L268.32 30.52C268.337 30.6305 268.392 30.7314 268.476 30.8047C268.561 30.878 268.668 30.9189 268.78 30.92C268.892 30.921 269.001 30.8808 269.086 30.8071C269.17 30.7335 269.225 30.6313 269.24 30.52L269.93 25.91C270.133 24.5725 270.617 23.2933 271.352 22.1572C272.086 21.0212 273.054 20.0541 274.19 19.32L274.79 18.94C274.854 18.8966 274.906 18.8386 274.943 18.7707C274.979 18.7028 274.999 18.6271 275 18.55C275.001 18.4726 274.982 18.3962 274.945 18.3281C274.908 18.2599 274.855 18.2021 274.79 18.16L274.19 17.77Z" fill="#3F99F2"/>
<path d="M122.17 55.06C121.236 54.4566 120.44 53.6612 119.837 52.7267C119.233 51.7922 118.836 50.74 118.67 49.64L118.1 45.85C118.09 45.759 118.047 45.6748 117.979 45.6139C117.91 45.5529 117.822 45.5195 117.73 45.52C117.638 45.5213 117.549 45.5551 117.48 45.6155C117.41 45.6759 117.364 45.759 117.35 45.85L116.78 49.64C116.615 50.74 116.217 51.7922 115.613 52.7267C115.01 53.6612 114.215 54.4566 113.28 55.06L112.79 55.38C112.736 55.4138 112.69 55.4609 112.659 55.5168C112.627 55.5728 112.611 55.6358 112.61 55.7C112.611 55.7642 112.627 55.8272 112.659 55.8832C112.69 55.9391 112.736 55.9862 112.79 56.02L113.28 56.34C114.215 56.9434 115.01 57.7388 115.613 58.6733C116.217 59.6078 116.615 60.66 116.78 61.76L117.35 65.55C117.364 65.641 117.41 65.7241 117.48 65.7845C117.549 65.8449 117.638 65.8787 117.73 65.88C117.822 65.8805 117.91 65.8471 117.979 65.7861C118.047 65.7252 118.09 65.641 118.1 65.55L118.67 61.76C118.836 60.66 119.233 59.6078 119.837 58.6733C120.44 57.7388 121.236 56.9434 122.17 56.34L122.67 56.02C122.724 55.9857 122.767 55.9383 122.797 55.8822C122.827 55.8262 122.842 55.7634 122.84 55.7C122.842 55.6366 122.827 55.5738 122.797 55.5178C122.767 55.4617 122.724 55.4143 122.67 55.38L122.17 55.06Z" fill="#FFE75C"/>
<path d="M269.78 160H260.35L257.22 149.24H269.78V160Z" fill="#808AFF"/>
<path d="M156.59 160H166.02L169.14 149.24H156.59V160Z" fill="#808AFF"/>
<path d="M247.87 75.83L234.14 69.1C236.14 80.34 239.37 83.16 242.14 83.43C244.91 83.7 247.12 80.41 247.87 75.83Z" fill="#D11583"/>
<path d="M247.87 75.83L258.2 69.4C255.73 80.58 252.99 82.4 250.91 82.62C248.83 82.84 247.72 80.42 247.87 75.83Z" fill="#D11583"/>
<path d="M246.83 86.41C251.83 84.85 252.37 85.21 255.44 88.71C258.51 92.21 260.3 94.59 263.68 97.42L260.89 100C253.81 94.79 252.34 92.71 246.83 86.41Z" fill="#FFE75C"/>
<path d="M270.22 110.47C266.38 106.08 261.33 101.89 254.67 96.31C254.67 96.31 254.8 94.72 254.96 92.99C255.29 89.58 253.86 88.64 248.62 86.13L236.68 88C237.04 93.64 238.12 95 240.4 98.69C239.15 103.69 238.2 113.84 238.63 126.62C238.638 126.824 238.724 127.018 238.872 127.159C239.019 127.301 239.216 127.38 239.42 127.38C249.42 127.2 263.62 123.48 270.34 111.58C270.433 111.404 270.471 111.204 270.449 111.007C270.428 110.809 270.348 110.622 270.22 110.47Z" fill="#0C1AAD"/>
<path d="M248.62 86.13L236.42 88C236.78 93.64 238.06 95.06 240.42 98.69C245.05 97.14 250.63 95.52 254.69 96.28C254.69 96.28 254.98 94.69 255.15 92.96C255.45 89.58 254.18 88.59 248.62 86.13Z" fill="white"/>
<path d="M269.76 111C264.36 111 262.21 111.93 258 116.26C253.79 120.59 248.86 125.47 240 126.55C247.53 126.55 256.44 123.29 262 119.47C265.243 117.327 267.909 114.418 269.76 111Z" fill="black"/>
<path d="M256.87 77.69C256.21 72.6 245.7 66.46 243.13 66.69C240.56 66.92 232.44 73.17 232.27 78.4C232.1 83.63 237.33 87.4 244.6 87.4C251.87 87.4 257.58 83.17 256.87 77.69Z" fill="#FFE75C"/>
<path d="M242.49 86.39C242.53 86.421 242.577 86.4436 242.626 86.4563C242.675 86.4691 242.726 86.4718 242.777 86.4644C242.827 86.4569 242.876 86.4394 242.919 86.4129C242.963 86.3864 243 86.3514 243.03 86.31C243.061 86.2704 243.083 86.225 243.096 86.1765C243.108 86.128 243.111 86.0774 243.104 86.0279C243.096 85.9783 243.079 85.9308 243.052 85.8882C243.026 85.8456 242.991 85.8088 242.95 85.78C238.36 82.34 235.85 80.64 233.66 82.95C233.809 83.1586 233.969 83.359 234.14 83.55C235.77 81.79 237.47 82.63 242.49 86.39Z" fill="#FFC619"/>
<path d="M242.79 70.71C239.68 66.6 236.38 64.22 231.87 61.55C228.45 59.55 229.35 56.11 233.64 56.98C237.93 57.85 242.05 62.54 244.07 66.83C248.41 60.45 249.23 58.08 252.69 59.01C256.15 59.94 257.19 63.75 257.39 65.5C257.55 66.87 257.29 67.9 255.28 67.9C253.27 67.9 252.14 66.32 251.51 64.42C249.895 66.7645 248.082 68.9659 246.09 71C244.76 72.27 244.2 72.57 242.79 70.71Z" fill="#FFE75C"/>
<path d="M246.78 67.38L250.33 62.51" stroke="#FFC619" stroke-width="0.73" stroke-miterlimit="10" stroke-linecap="round"/>
<path d="M247.87 75.83C247.12 80.41 244.87 83.7 242.11 83.43C239.7 83.2 236.91 80.98 234.91 72.79C235.572 71.9897 236.291 71.2378 237.06 70.54L247.87 75.83Z" fill="#FF8C19"/>
<path d="M256.35 76.05C254.43 81.38 252.48 82.48 250.91 82.63C248.84 82.82 247.72 80.42 247.91 75.83L253.46 72.37C254.639 73.4105 255.619 74.6577 256.35 76.05Z" fill="#FF8C19"/>
<path d="M252.13 76.8L253.06 75.72" stroke="black" stroke-width="0.73" stroke-linecap="round" stroke-linejoin="round"/>
<path d="M252.22 77.51L253.7 76.67" stroke="black" stroke-width="0.73" stroke-linecap="round" stroke-linejoin="round"/>
<path d="M241.99 76.99L241.16 75.44" stroke="black" stroke-width="0.73" stroke-linecap="round" stroke-linejoin="round"/>
<path d="M241.92 77.74L239.66 76.22" stroke="black" stroke-width="0.73" stroke-linecap="round" stroke-linejoin="round"/>
<path d="M244.818 79.4592C245.764 78.3714 245.794 76.8492 244.886 76.0592C243.977 75.2691 242.474 75.5104 241.528 76.5982C240.582 77.6859 240.552 79.2081 241.46 79.9982C242.369 80.7882 243.872 80.5469 244.818 79.4592Z" fill="white"/>
<path d="M252.7 77.89C253.16 76.64 252.7 75.43 251.7 75.13C251.106 75.0432 250.5 75.1639 249.984 75.4717C249.469 75.7796 249.075 76.2558 248.87 76.82C248.27 78.14 248.67 79.5 249.78 79.82C250.417 79.9038 251.064 79.7548 251.6 79.4002C252.137 79.0457 252.527 78.5094 252.7 77.89Z" fill="white"/>
<path d="M242.635 78.0757C242.952 77.8002 243.039 77.381 242.828 77.1393C242.618 76.8976 242.191 76.9249 241.874 77.2003C241.558 77.4758 241.471 77.895 241.681 78.1367C241.892 78.3784 242.319 78.3511 242.635 78.0757Z" fill="black"/>
<path d="M249.99 77.7457C250.265 77.5065 250.341 77.1437 250.16 76.9353C249.978 76.727 249.609 76.7519 249.333 76.9911C249.058 77.2303 248.982 77.5931 249.164 77.8015C249.345 78.0099 249.715 77.9849 249.99 77.7457Z" fill="black"/>
<path d="M250.25 94.33C253.3 92.45 257.81 93.27 259.09 96.44C261.53 92.36 264.66 91.44 266.8 93.33L259.61 99.05L250.25 94.33Z" fill="#FF78B9"/>
<path d="M259.61 99.05L259.44 97.48" stroke="black" stroke-width="0.73" stroke-linecap="round" stroke-linejoin="round"/>
<path d="M256.39 109H256.85C257.221 109.003 257.579 108.863 257.85 108.61L263.08 103.76C263.145 103.703 263.199 103.635 263.24 103.56L268.14 93.8C268.224 93.6741 268.256 93.5209 268.23 93.3721C268.203 93.2232 268.121 93.0901 268 93C267.894 92.9173 267.764 92.8723 267.63 92.8723C267.496 92.8723 267.366 92.9173 267.26 93L259.67 99L249.74 94C249.558 93.9052 249.347 93.8837 249.15 93.94C249.008 93.979 248.88 94.0552 248.778 94.1607C248.676 94.2662 248.604 94.3972 248.57 94.54L246.42 103.73C246.399 103.818 246.409 103.91 246.447 103.992C246.485 104.073 246.549 104.14 246.63 104.18L255.8 108.77C255.977 108.889 256.179 108.968 256.39 109Z" fill="#3F99F2"/>
<path d="M248.68 94.26C248.598 94.3552 248.54 94.4682 248.51 94.59L246.36 103.78C246.339 103.868 246.349 103.96 246.387 104.042C246.425 104.123 246.489 104.19 246.57 104.23L255.66 108.78C255.709 108.803 255.762 108.816 255.816 108.818C255.87 108.82 255.924 108.81 255.975 108.791C256.025 108.771 256.071 108.741 256.11 108.703C256.149 108.666 256.179 108.62 256.2 108.57L259.44 100.33C259.489 100.214 259.493 100.084 259.45 99.9649C259.408 99.8462 259.322 99.748 259.21 99.69L248.68 94.26Z" fill="#66BCFF"/>
<path d="M265.79 98.37C265.316 99.3376 264.535 100.122 263.57 100.6C262.57 101.23 262.52 101.6 261.89 103.14C261.26 104.68 261.47 105.31 262.48 104.73C263.485 104.104 264.403 103.347 265.21 102.48C265.883 101.559 266.362 100.511 266.62 99.4C267.14 97.87 267.04 97.35 266.53 96.96L265.79 98.37Z" fill="#FFE75C"/>
<path d="M249.63 123.77C251.91 123.31 255.17 122.22 255.96 120.17L256.17 119.71L255.43 117.8L248.77 122.8L249.63 123.77Z" fill="black"/>
<path d="M268.76 111.48C268.29 110.97 265.09 111.48 262.9 115.83L259.27 113.33L265.97 109.85H268.19L268.76 111.48Z" fill="black"/>
<path d="M255.32 101.77C255.08 101.27 254.32 100.59 251.17 99.12C251.93 98.12 252.43 97.03 252.24 96.63C252.05 96.23 251.62 96.18 250.73 97.01C249.57 98.1861 248.182 99.1118 246.65 99.73C246.36 99.8312 246.062 99.9081 245.76 99.96C244.66 100.18 241.63 100.74 237.76 101.39C237.76 100.39 237.76 92.72 237.76 92.72C239.634 90.7713 241.69 89.0065 243.9 87.45C238.12 83.08 235.9 81.59 233.9 83.76C231.9 85.93 231.9 89.4 232.33 97.24C232.62 102.54 232.9 107.4 234.83 107.8C236.51 108.16 245.27 103.8 246.31 103.25C247.411 103.762 248.656 103.872 249.83 103.56C250.69 104.24 251.3 104.75 252.2 105.47C252.28 105.526 252.377 105.557 252.475 105.557C252.573 105.557 252.669 105.526 252.75 105.47C252.813 105.434 252.867 105.385 252.91 105.326C252.952 105.266 252.98 105.199 252.994 105.127C253.007 105.056 253.005 104.983 252.987 104.912C252.969 104.842 252.936 104.776 252.89 104.72C252.51 104.26 251.89 103.64 250.97 102.72L252.8 103.62C253.45 103.94 253.85 104.12 254.65 103.25C255.45 102.38 255.57 102.27 255.32 101.77Z" fill="#FFE75C"/>
<path d="M240 126.54C248.83 125.46 253.77 120.54 258 116.25C262.23 111.96 264.36 110.99 269.76 110.99L265.09 105.99L247.76 114.11L240 126.54Z" fill="#0C1AAD"/>
<path d="M238.14 88.22C238.038 88.2226 237.942 88.2648 237.871 88.3377C237.8 88.4106 237.76 88.5083 237.76 88.61V92.7C237.81 92.64 238.08 92.36 238.52 91.92V88.61C238.52 88.5083 238.48 88.4106 238.409 88.3377C238.338 88.2648 238.242 88.2226 238.14 88.22Z" fill="black"/>
<path d="M236.39 101.6L237.67 101.4C237.67 101.26 237.67 100.98 237.67 100.63H237.54L236.26 100.83C236.161 100.845 236.071 100.898 236.011 100.979C235.951 101.06 235.926 101.161 235.94 101.26C235.946 101.312 235.963 101.363 235.989 101.409C236.015 101.454 236.05 101.494 236.092 101.526C236.134 101.558 236.182 101.581 236.234 101.594C236.285 101.606 236.338 101.608 236.39 101.6Z" fill="black"/>
<path d="M251.43 100.93L254.6 102.81" stroke="#FFC619" stroke-width="0.73" stroke-miterlimit="10" stroke-linecap="round"/>
<path d="M265.93 100.46C265.964 100.421 265.983 100.372 265.983 100.32C265.983 100.268 265.964 100.218 265.93 100.18C265.911 100.16 265.889 100.145 265.864 100.134C265.839 100.123 265.812 100.118 265.785 100.118C265.758 100.118 265.731 100.123 265.706 100.134C265.681 100.145 265.659 100.16 265.64 100.18C265.35 100.51 265.05 100.84 264.74 101.18C264.43 101.52 264.11 101.81 263.74 102.09C263.433 102.371 263.098 102.619 262.74 102.83C262.583 102.923 262.41 102.988 262.23 103.02C262.189 103.039 262.145 103.049 262.1 103.049C262.055 103.049 262.011 103.039 261.97 103.02L261.91 103.18C261.83 103.38 261.76 103.56 261.71 103.73H261.88C262.038 103.765 262.202 103.765 262.36 103.73C262.615 103.665 262.858 103.561 263.08 103.42C263.473 103.158 263.838 102.856 264.17 102.52C264.5 102.2 264.8 101.86 265.1 101.52C265.4 101.18 265.65 100.82 265.93 100.46Z" fill="#FFC619"/>
<path d="M250.39 61.55C250.345 61.4598 250.266 61.3913 250.17 61.3594C250.075 61.3275 249.97 61.3349 249.88 61.38C249.79 61.4251 249.721 61.5042 249.689 61.5998C249.658 61.6954 249.665 61.7998 249.71 61.89C250.196 62.974 250.627 64.0821 251 65.21L251.55 64.43C251.216 63.4495 250.829 62.4881 250.39 61.55Z" fill="black"/>
<path d="M232.7 60C237.021 61.5939 240.679 64.5993 243.08 68.53" stroke="#FFC619" stroke-width="0.73" stroke-miterlimit="10" stroke-linecap="round"/>
<path d="M246.61 80C247.7 77.64 247.61 77.23 248.17 79.89H248.41V75.93L247.87 75.83L246.69 76.12L246.34 79.92L246.61 80Z" fill="#FF8C19"/>
<path d="M245.15 84.37C245.755 84.7365 246.473 84.8677 247.168 84.7386C247.864 84.6095 248.487 84.2291 248.92 83.67" stroke="black" stroke-width="0.75" stroke-miterlimit="10" stroke-linecap="round"/>
<path d="M123.21 85.45L119.64 88.73C119.109 89.2144 118.461 89.5536 117.761 89.7148C117.06 89.8759 116.33 89.8536 115.64 89.65L105.84 86.74C105.391 86.6093 104.917 86.5856 104.457 86.6707C103.997 86.7558 103.563 86.9473 103.19 87.23C103.07 87.339 102.979 87.4753 102.924 87.6273C102.869 87.7793 102.851 87.9424 102.873 88.1027C102.894 88.2629 102.955 88.4156 103.048 88.5475C103.142 88.6794 103.266 88.7866 103.41 88.86L112.87 92.86L118.17 95.45L121.36 99.89L125 95.7L123.45 93.17C123.083 92.5707 122.906 91.8741 122.944 91.1723C122.981 90.4706 123.231 89.7967 123.66 89.24L125.17 87.24C125.299 87.0753 125.387 86.883 125.429 86.6782C125.47 86.4735 125.464 86.2618 125.41 86.06C125.342 85.8435 125.221 85.6474 125.058 85.4897C124.895 85.3319 124.695 85.2175 124.476 85.1569C124.257 85.0962 124.027 85.0913 123.806 85.1425C123.585 85.1937 123.38 85.2994 123.21 85.45Z" fill="#FFC619"/>
<path d="M111.63 94.39C111.441 94.1068 111.33 93.7785 111.308 93.4385C111.287 93.0984 111.356 92.7588 111.508 92.4541C111.661 92.1493 111.891 91.8904 112.176 91.7035C112.461 91.5166 112.79 91.4084 113.13 91.39C114.95 91.39 117.13 91.47 118.38 91.52C118.688 91.5401 118.985 91.6439 119.239 91.8201C119.493 91.9963 119.694 92.2382 119.82 92.52L120.82 94.84C120.991 95.2238 121.036 95.6515 120.95 96.0625C120.864 96.4736 120.65 96.847 120.34 97.13C119.74 97.64 118.95 98.29 118.18 98.92C117.616 99.3926 116.89 99.6284 116.156 99.5781C115.421 99.5277 114.735 99.1952 114.24 98.65C114.055 98.4318 113.801 98.2835 113.52 98.23C113.184 98.1102 112.877 97.9235 112.615 97.6811C112.354 97.4387 112.145 97.1458 112 96.82C111.582 96.1493 111.445 95.3408 111.62 94.57C111.635 94.5424 111.643 94.5114 111.643 94.48C111.643 94.4486 111.635 94.4177 111.62 94.39H111.63Z" fill="#FFAB18"/>
<path d="M116.53 93.14L119.59 92.23C119.684 92.3418 119.761 92.4664 119.82 92.6L120.1 93.22L116.84 94.22H116.69C116.571 94.2186 116.455 94.179 116.359 94.107C116.264 94.0351 116.194 93.9345 116.16 93.82C116.12 93.6808 116.136 93.5312 116.205 93.4039C116.274 93.2765 116.391 93.1817 116.53 93.14Z" fill="#E89300"/>
<path d="M117.62 95.21L120.62 94.32L120.88 94.92C120.943 95.0602 120.987 95.2082 121.01 95.36L118.01 96.27H117.85C117.734 96.2672 117.621 96.2281 117.528 96.1582C117.435 96.0883 117.365 95.991 117.33 95.88C117.286 95.7523 117.291 95.6126 117.345 95.4886C117.398 95.3645 117.497 95.2651 117.62 95.21Z" fill="#E89300"/>
<path d="M171.18 79.57C180.75 80.43 179.13 87.47 176.94 92.12C177.67 91.21 178.46 90.35 179.27 89.52C179.69 89.09 180.12 88.67 180.55 88.25L181.21 87.64C181.44 87.43 181.65 87.24 181.92 87.02L182.01 86.94C182.199 86.7842 182.412 86.6593 182.64 86.57C182.936 86.4505 183.253 86.3905 183.572 86.3934C183.892 86.3963 184.207 86.4621 184.501 86.587C184.795 86.7119 185.061 86.8935 185.285 87.1213C185.509 87.3492 185.685 87.6189 185.805 87.915C185.924 88.2111 185.984 88.5279 185.982 88.8472C185.979 89.1665 185.913 89.4822 185.788 89.7761C185.663 90.07 185.482 90.3364 185.254 90.5601C185.026 90.7838 184.756 90.9605 184.46 91.08C184.01 91.26 183.46 91.51 183 91.74L181.53 92.49C180.53 93.01 179.6 93.56 178.69 94.16C178.36 94.38 178.04 94.6 177.69 94.83C180.97 93.63 185.69 92.83 185.69 98C185.69 106 178.55 107.17 174.28 106.35C174.28 106.35 162.8 100.35 161.03 94.63C161.05 94.63 156.73 78.27 171.18 79.57Z" fill="#EB459F"/>
<path d="M174.416 97.5914C175.431 94.437 174.251 91.2352 171.78 90.44C169.309 89.6448 166.483 91.5572 165.468 94.7116C164.453 97.866 165.633 101.068 168.104 101.863C170.575 102.658 173.401 100.746 174.416 97.5914Z" fill="white" stroke="#FFAB18" stroke-width="1.64" stroke-miterlimit="10"/>
<path d="M171.48 94.92C171.108 94.7579 170.713 94.6534 170.31 94.61C169.904 94.5739 169.495 94.625 169.11 94.76C168.728 94.9053 168.385 95.1382 168.11 95.44C167.807 95.7563 167.554 96.1171 167.36 96.51C167.324 96.5723 167.266 96.6185 167.197 96.6389C167.128 96.6594 167.054 96.6526 166.99 96.62C166.929 96.5879 166.883 96.5338 166.861 96.4688C166.838 96.4037 166.842 96.3326 166.87 96.27C167.049 95.7994 167.302 95.3606 167.62 94.97C167.937 94.5407 168.357 94.197 168.84 93.97C169.322 93.7442 169.848 93.6281 170.38 93.63C170.915 93.6322 171.447 93.727 171.95 93.91C172.016 93.9336 172.076 93.97 172.128 94.0169C172.179 94.0639 172.221 94.1206 172.251 94.1837C172.28 94.2469 172.297 94.3152 172.301 94.385C172.304 94.4547 172.294 94.5243 172.27 94.59C172.246 94.6557 172.21 94.716 172.163 94.7676C172.116 94.8193 172.059 94.8611 171.996 94.8908C171.933 94.9205 171.865 94.9375 171.795 94.9408C171.725 94.9441 171.656 94.9336 171.59 94.91L171.48 94.92Z" fill="black"/>
<path d="M150.484 90.7727C151.211 87.5397 150.035 84.5221 147.858 84.0327C145.681 83.5433 143.327 85.7675 142.601 89.0005C141.874 92.2335 143.049 95.2511 145.226 95.7405C147.403 96.2299 149.757 94.0057 150.484 90.7727Z" fill="white" stroke="#FFAB18" stroke-width="1.64" stroke-miterlimit="10"/>
<path d="M145.85 87.29C146.208 87.3981 146.545 87.5636 146.85 87.78C147.158 87.9827 147.426 88.2403 147.64 88.54C147.86 88.8372 148.013 89.1783 148.09 89.54C148.145 89.8912 148.145 90.2488 148.09 90.6C148.078 90.664 148.044 90.7216 147.993 90.7631C147.943 90.8046 147.88 90.8273 147.815 90.8273C147.75 90.8273 147.687 90.8046 147.637 90.7631C147.586 90.7216 147.552 90.664 147.54 90.6C147.574 90.0168 147.381 89.443 147 89C146.811 88.805 146.592 88.6428 146.35 88.52C146.118 88.3983 145.868 88.3139 145.61 88.27C145.528 88.2817 145.444 88.2739 145.365 88.2473C145.287 88.2206 145.216 88.1759 145.157 88.1167C145.099 88.0575 145.056 87.9855 145.03 87.9064C145.005 87.8274 144.999 87.7435 145.012 87.6615C145.025 87.5796 145.057 87.5019 145.106 87.4346C145.155 87.3674 145.218 87.3125 145.292 87.2744C145.366 87.2363 145.447 87.2161 145.53 87.2153C145.613 87.2145 145.696 87.2333 145.77 87.27L145.85 87.29Z" fill="black"/>
<path d="M181.27 120C181.27 120 183.86 112.54 174.81 106.32C172.397 104.697 170.203 102.771 168.28 100.59C165.521 97.4024 163.256 93.8192 161.56 89.96C157.1 79.78 146.85 80.6 147.29 92.96C147.29 92.9 165 121.74 181.27 120Z" fill="url(#paint0_linear)"/>
<path d="M148.68 95C147.904 92.532 147.988 89.8736 148.92 87.46C149.14 86.83 150.34 84.4 153.01 84.69C154.665 84.9039 156.18 85.7276 157.26 87C158.285 88.3004 159.155 89.7168 159.85 91.22C160.77 93.01 162.44 97.59 163.55 99.58C168.15 107.8 169.16 109.24 174.86 112.7C174.86 112.67 152.26 104.05 148.68 95Z" fill="black"/>
<path d="M148.35 95.09C147.659 93.0435 147.583 90.8395 148.13 88.75C148.25 88.23 148.4 87.75 148.57 87.21C148.777 86.6839 149.068 86.1943 149.43 85.76C149.789 85.301 150.243 84.9249 150.761 84.6574C151.279 84.3899 151.848 84.2373 152.43 84.21C153.541 84.2267 154.631 84.5074 155.612 85.0291C156.593 85.5508 157.435 86.2983 158.07 87.21C158.709 88.058 159.272 88.9616 159.75 89.91C160.24 90.82 160.75 91.78 161.12 92.74C161.94 94.65 162.69 96.59 163.57 98.43C164.45 100.27 165.57 102.04 166.57 103.79C167.578 105.549 168.79 107.184 170.18 108.66C171.675 110.053 173.277 111.327 174.97 112.47L176.78 113.68L174.78 112.89C169.759 110.93 164.895 108.59 160.23 105.89C157.889 104.545 155.655 103.021 153.55 101.33C151.342 99.6967 149.558 97.5566 148.35 95.09ZM149 94.83C150.149 97.1955 151.846 99.2525 153.95 100.83C156.016 102.518 158.213 104.039 160.52 105.38C165.142 108.075 169.963 110.416 174.94 112.38L174.74 112.8C172.835 111.9 171.072 110.724 169.51 109.31C168.015 107.807 166.736 106.104 165.71 104.25C164.65 102.44 163.62 100.69 162.65 98.79C161.68 96.89 161 95 160.2 93.12C159.8 92.12 159.36 91.28 158.88 90.36C158.428 89.4554 157.903 88.5892 157.31 87.77C156.765 86.9688 156.039 86.3064 155.192 85.8358C154.344 85.3652 153.398 85.0995 152.43 85.06C151.969 85.079 151.517 85.1979 151.106 85.4085C150.695 85.6192 150.335 85.9165 150.05 86.28C149.747 86.6442 149.501 87.0522 149.32 87.49C149.16 87.95 149.01 88.49 148.89 88.93C148.35 90.8652 148.388 92.9162 149 94.83Z" fill="#FFAB18"/>
<path d="M178.78 117.5C178.582 116.377 178.168 115.304 177.56 114.34C176.251 112.15 174.172 110.527 171.73 109.79C166.14 108.04 163.65 103.79 157.2 97.94C150.75 92.09 142.85 90.18 139.93 91.49C138.36 92.19 137.68 95.99 142.43 100.99C146.22 104.99 146.34 111.41 147.54 116.99C148.66 122.17 152.54 127.42 157.1 127.54H177.55L178.78 117.5Z" fill="url(#paint1_linear)"/>
<path d="M157.73 104.15C167.33 114.67 174.83 117.04 178.73 117.75L178.64 118.51L154.16 123.61L149.33 121.74C148.5 120.253 147.89 118.653 147.52 116.99C146.32 111.41 146.2 104.99 142.41 100.99C140.817 99.4311 139.643 97.4943 139 95.36C141.76 94.09 148.39 93.91 157.73 104.15Z" fill="#FFC619"/>
<path d="M164.48 116.39C163.215 117.475 161.712 118.248 160.093 118.644C158.473 119.04 156.784 119.049 155.16 118.67C152.669 118.028 150.426 116.656 148.72 114.73C147.959 113.889 147.273 112.982 146.67 112.02C142.99 111.23 133.22 108.02 125.04 95.71L121.37 99.87C121.37 99.87 136.08 123.74 150.52 123.52C152.26 125.85 154.57 127.52 157.11 127.52H182V116.2C182 116.2 167.93 113.52 164.48 116.39Z" fill="#EB459F"/>
<path d="M161.18 113.55C160.208 113.348 159.332 112.825 158.694 112.065C158.055 111.305 157.691 110.352 157.66 109.36C157.003 109.327 156.381 109.057 155.907 108.602C155.433 108.146 155.139 107.535 155.08 106.88" stroke="#FFAB18" stroke-width="1.05" stroke-miterlimit="10" stroke-linecap="round"/>
<path d="M153.14 109C153.14 109 149.63 108.93 150.14 104.62C149.573 104.554 149.044 104.306 148.631 103.913C148.218 103.519 147.944 103.003 147.85 102.44C147.277 102.397 146.726 102.201 146.254 101.872C145.783 101.543 145.408 101.093 145.17 100.57" stroke="#FFAB18" stroke-width="1.05" stroke-miterlimit="10" stroke-linecap="round"/>
<path d="M154 115.83C154 115.83 151.87 114.83 151.88 112.94C151.324 112.823 150.813 112.547 150.41 112.146C150.007 111.745 149.729 111.236 149.61 110.68" stroke="#FFAB18" stroke-width="1.05" stroke-miterlimit="10" stroke-linecap="round"/>
<path d="M150.44 116.18C152.11 115.48 151.94 118.05 155.5 118.7C158.19 118.96 160.28 116.52 161.57 116.98C164.18 117.92 161.57 123.66 161.57 123.66C161.57 123.66 158.28 119.39 155.68 119.23C153.08 119.07 151.96 122.14 151.96 122.14C151.96 122.14 149.17 116.72 150.44 116.18Z" fill="white"/>
<path d="M150.64 122.16H177.4V151.74H151.86C150.505 151.743 149.205 151.211 148.24 150.26C147.765 149.791 147.388 149.232 147.132 148.616C146.876 147.999 146.746 147.338 146.75 146.67V126C146.742 125.492 146.84 124.988 147.04 124.52C147.236 124.052 147.521 123.628 147.88 123.27C148.618 122.548 149.607 122.139 150.64 122.13V122.16Z" fill="#5865F2"/>
<path d="M156.63 126C156.629 125.492 156.73 124.989 156.926 124.521C157.121 124.052 157.408 123.627 157.77 123.27C158.503 122.547 159.49 122.141 160.52 122.14H177.4V141.08H156.63V126Z" fill="#3442D9"/>
<path d="M180.11 98.55H269.93C271.282 98.5524 272.579 99.0877 273.54 100.04C274.011 100.509 274.386 101.067 274.641 101.682C274.897 102.296 275.029 102.955 275.03 103.62V146.69C275.027 148.034 274.491 149.321 273.54 150.27C272.578 151.22 271.281 151.751 269.93 151.75H164.66L175.12 102.57C175.358 101.429 175.988 100.406 176.9 99.68C177.81 98.949 178.943 98.5504 180.11 98.55Z" fill="#5865F2"/>
<path d="M226.48 98.55C225.316 98.5491 224.186 98.9448 223.278 99.6719C222.369 100.399 221.735 101.414 221.48 102.55L213.29 141.1H212L220.2 102.55C220.453 101.415 221.089 100.402 222 99.68C222.914 98.9483 224.049 98.5498 225.22 98.55H226.48Z" fill="#3442D9"/>
<path d="M275 103.62C274.999 102.955 274.867 102.296 274.612 101.682C274.356 101.067 273.982 100.509 273.51 100.04C272.55 99.0877 271.253 98.5524 269.9 98.55H262.12C262.806 98.5414 263.487 98.6741 264.12 98.94C264.74 99.1908 265.304 99.5612 265.78 100.03C266.254 100.5 266.631 101.059 266.888 101.675C267.146 102.291 267.279 102.952 267.28 103.62V146.69C267.281 147.357 267.149 148.017 266.892 148.632C266.634 149.246 266.256 149.803 265.78 150.27C265.302 150.739 264.738 151.112 264.12 151.37C263.485 151.627 262.805 151.756 262.12 151.75H269.9C271.251 151.751 272.549 151.22 273.51 150.27C274.462 149.321 274.997 148.034 275 146.69V103.62Z" fill="#3442D9"/>
<path d="M152.06 141.12H262.15V147.56H152.06C151.826 147.56 151.601 147.468 151.434 147.303C151.267 147.138 151.173 146.914 151.17 146.68V142C151.17 141.884 151.193 141.769 151.238 141.662C151.283 141.556 151.349 141.459 151.432 141.378C151.515 141.297 151.613 141.233 151.721 141.19C151.829 141.148 151.944 141.127 152.06 141.13V141.12Z" fill="#808AFF"/>
<path d="M194.6 141.12H167.4V145.57H194.6V141.12Z" fill="#808AFF"/>
<path d="M261.26 122.16H271.15C272.182 122.16 273.171 122.57 273.9 123.3C274.609 124.019 275.005 124.99 275 126V146.66C275.001 147.327 274.869 147.987 274.612 148.602C274.354 149.216 273.976 149.773 273.5 150.24C272.539 151.19 271.241 151.721 269.89 151.72H257.37V126C257.366 125.492 257.465 124.988 257.661 124.519C257.857 124.049 258.146 123.625 258.51 123.27C259.241 122.543 260.229 122.134 261.26 122.13V122.16Z" fill="#5865F2"/>
<path d="M267.26 146.69C267.261 147.357 267.129 148.017 266.872 148.631C266.614 149.246 266.236 149.803 265.76 150.27C265.282 150.739 264.718 151.112 264.1 151.37C263.465 151.627 262.785 151.756 262.1 151.75H269.88C271.231 151.751 272.529 151.22 273.49 150.27C274.442 149.321 274.977 148.034 274.98 146.69V126C274.975 124.974 274.564 123.993 273.837 123.269C273.11 122.546 272.126 122.14 271.1 122.14C270.07 122.138 269.081 122.544 268.35 123.27C267.989 123.627 267.702 124.052 267.506 124.52C267.31 124.989 267.21 125.492 267.21 126L267.26 146.69Z" fill="#3442D9"/>
<path d="M232.7 101.77C236.323 101.77 239.26 98.9449 239.26 95.46C239.26 91.9751 236.323 89.15 232.7 89.15C229.077 89.15 226.14 91.9751 226.14 95.46C226.14 98.9449 229.077 101.77 232.7 101.77Z" fill="#EB459F"/>
<path d="M189.55 141.12L186.78 133.66C186.708 133.467 186.679 133.26 186.698 133.055C186.716 132.85 186.781 132.652 186.886 132.475C186.992 132.298 187.136 132.147 187.308 132.034C187.48 131.921 187.676 131.847 187.88 131.82C191.48 131.37 199.88 130.6 204.14 132.76L244.74 132.84C248.58 131.957 252.539 131.704 256.46 132.09C256.62 132.103 256.774 132.154 256.91 132.239C257.046 132.325 257.16 132.441 257.241 132.579C257.323 132.718 257.37 132.874 257.378 133.034C257.387 133.194 257.356 133.354 257.29 133.5L254.35 141.12H189.55Z" fill="#29CC7A"/>
<path d="M227.85 130.96C234.726 130.96 240.3 125.856 240.3 119.56C240.3 113.264 234.726 108.16 227.85 108.16C220.974 108.16 215.4 113.264 215.4 119.56C215.4 125.856 220.974 130.96 227.85 130.96Z" fill="#8CD9FF"/>
<path d="M196 105.85C195.402 106.492 195.003 107.294 194.851 108.158C194.698 109.022 194.799 109.912 195.14 110.72C196.73 114.46 200.25 120.91 206.44 123.72C215.44 127.79 221.28 109.72 208.05 112.94C208.05 112.94 208.46 108.53 204.53 108.76L209.46 96.14C209.559 95.8854 209.607 95.6136 209.601 95.3404C209.594 95.0672 209.533 94.7981 209.421 94.5487C209.31 94.2992 209.149 94.0745 208.95 93.8876C208.751 93.7007 208.516 93.5554 208.26 93.46L196.26 89C195.802 88.8305 195.303 88.8078 194.832 88.935C194.36 89.0623 193.94 89.3331 193.63 89.71C191.83 91.86 190.09 96.18 203.96 97.26L196 105.85Z" fill="url(#paint2_linear)"/>
<path d="M256.23 118.87C256.682 119.177 257.066 119.574 257.358 120.035C257.651 120.497 257.846 121.013 257.931 121.553C258.016 122.093 257.99 122.644 257.854 123.173C257.718 123.703 257.475 124.198 257.14 124.63C256.808 125.073 256.402 125.455 255.94 125.76C252.28 127.98 244.63 126.28 237.46 124.7C227.54 122.53 240.08 105.62 245.27 114.57C247.947 114.314 250.63 114.996 252.86 116.5L256.23 118.87Z" fill="url(#paint3_linear)"/>
<path d="M216.91 114.11C216.39 114.26 215.84 114.37 215.31 114.5C214.892 114.601 214.5 114.788 214.16 115.05C213.03 115.94 210.83 118.42 209.16 125.05C206.649 126.962 204.882 129.688 204.16 132.76C204.16 132.76 222.08 144.56 244.76 132.84L242.86 124.94C242.427 124.705 242.021 124.424 241.65 124.1C240.369 123.037 239.427 121.622 238.94 120.03C238.13 117.32 238.94 114.72 239.94 112.19C239.072 112.261 238.222 112.47 237.42 112.81C236.475 113.548 235.64 114.417 234.94 115.39C233.94 116.61 232.94 117.8 231.94 118.98C229.72 121.52 227.3 124.05 224.16 125.3C222.961 125.818 221.649 126.021 220.35 125.89C219.688 125.836 219.046 125.639 218.467 125.313C217.889 124.987 217.388 124.539 217 124C216.707 123.52 216.491 122.997 216.36 122.45C216.005 121.028 215.924 119.552 216.12 118.1C216.237 116.745 216.502 115.407 216.91 114.11Z" fill="#3442D9"/>
<path d="M191 137.17L190.86 136.92C190.608 136.461 190.25 136.069 189.815 135.779C189.379 135.488 188.88 135.306 188.36 135.25C187.81 135.19 187.21 135.14 186.5 135.1C180.827 134.958 175.151 135.141 169.5 135.65C169.038 135.691 168.575 135.573 168.188 135.317C167.802 135.061 167.513 134.681 167.37 134.24C166.144 130.812 164.739 127.45 163.16 124.17L164.77 141.17H192.28C192.114 139.767 191.68 138.409 191 137.17Z" fill="#FFE75C"/>
<path d="M166.34 135.31C166.16 134.05 165.94 132.8 165.65 131.57C165.36 130.34 165.03 129.11 164.65 127.9C164.46 127.29 164.27 126.69 164.06 126.08C163.95 125.78 163.85 125.48 163.74 125.17C163.63 124.86 163.52 124.58 163.37 124.17V124.04C163.291 123.854 163.194 123.677 163.08 123.51C162.637 122.784 161.931 122.258 161.108 122.042C160.286 121.826 159.412 121.936 158.67 122.35C158.321 122.572 158.021 122.863 157.788 123.204C157.554 123.545 157.392 123.929 157.311 124.335C157.23 124.74 157.231 125.158 157.315 125.562C157.399 125.967 157.564 126.351 157.8 126.69C157.92 126.87 158.07 127.14 158.21 127.37L158.63 128.12C158.9 128.62 159.17 129.12 159.43 129.64L159.84 130.48C159.25 129.99 158.65 129.48 158.02 129.07C157.39 128.66 156.86 128.26 156.25 127.88L155.31 127.33L154.81 127.06C154.73 127.06 154.65 126.97 154.55 126.93C154.446 126.874 154.339 126.824 154.23 126.78C153.85 126.621 153.442 126.542 153.031 126.547C152.62 126.552 152.214 126.642 151.839 126.811C151.464 126.98 151.127 127.224 150.85 127.528C150.574 127.833 150.362 128.191 150.23 128.58C149.996 129.396 150.079 130.27 150.463 131.027C150.847 131.784 151.503 132.367 152.3 132.66C152.3 132.66 152.37 132.66 152.42 132.66H152.59L152.95 132.78L153.7 133.07C154.21 133.28 154.7 133.51 155.22 133.76C156.24 134.265 157.223 134.843 158.16 135.49L158.51 135.73L158.86 135.99C159.08 136.16 159.32 136.33 159.54 136.51C159.98 136.88 160.44 137.23 160.85 137.63C161.704 138.414 162.499 139.26 163.23 140.16L163.31 140.26C163.596 140.606 163.991 140.845 164.43 140.939C164.869 141.034 165.327 140.978 165.73 140.78C166.014 140.624 166.249 140.391 166.408 140.108C166.567 139.826 166.644 139.504 166.63 139.18C166.635 139.12 166.635 139.06 166.63 139C166.608 137.765 166.511 136.533 166.34 135.31Z" fill="black"/>
<path d="M182.7 141.12H192.32C192.145 139.715 191.7 138.357 191.01 137.12C191.01 137.03 190.91 136.95 190.87 136.86C190.617 136.405 190.259 136.017 189.826 135.728C189.393 135.44 188.897 135.259 188.38 135.2C187.83 135.14 187.23 135.09 186.51 135.05C184.72 134.96 182.71 134.96 180.68 135.05C181.877 136.86 182.574 138.954 182.7 141.12Z" fill="#29CC7A"/>
<path d="M207.18 101.91L209.43 96.15C209.529 95.8955 209.577 95.6237 209.571 95.3505C209.564 95.0773 209.503 94.8081 209.391 94.5587C209.28 94.3093 209.119 94.0845 208.92 93.8976C208.721 93.7107 208.486 93.5654 208.23 93.47L196.23 89.01C195.772 88.8405 195.273 88.8178 194.802 88.945C194.33 89.0723 193.91 89.3432 193.6 89.72C191.8 91.87 190.06 96.19 203.93 97.27L201.05 100.37L207.18 101.91Z" fill="#FFE75C"/>
<path d="M198.71 89.93C198.534 90.3302 198.443 90.7627 198.443 91.2C198.443 91.6373 198.534 92.0698 198.71 92.47C199.48 94.02 201.8 94.84 205.63 94.89C205.741 94.89 205.848 94.8457 205.927 94.767C206.006 94.6882 206.05 94.5814 206.05 94.47C206.05 94.3586 206.006 94.2518 205.927 94.173C205.848 94.0942 205.741 94.05 205.63 94.05C201.28 93.99 199.87 92.95 199.45 92.05C199.319 91.754 199.251 91.4338 199.251 91.11C199.251 90.7862 199.319 90.466 199.45 90.17L198.71 89.93Z" fill="#FFAB18"/>
<path d="M238.71 116.17C237.418 115.86 236.104 115.646 234.78 115.53C234.113 116.343 233.447 117.143 232.78 117.93C234.774 117.979 236.754 118.285 238.67 118.84C238.553 117.953 238.567 117.053 238.71 116.17Z" fill="#FF78B9"/>
<path d="M212 117.67C211.438 118.63 210.953 119.633 210.55 120.67C212.3 119.861 214.16 119.315 216.07 119.05C216.07 118.73 216.07 118.4 216.15 118.05C216.23 117.7 216.23 117.27 216.32 116.7C214.847 116.852 213.397 117.178 212 117.67Z" fill="#FF78B9"/>
<path d="M224.25 114.53H224.32C224.418 114.53 224.514 114.496 224.59 114.434C224.667 114.372 224.72 114.286 224.74 114.19C224.75 114.135 224.749 114.079 224.738 114.025C224.726 113.971 224.704 113.92 224.672 113.874C224.641 113.829 224.6 113.79 224.554 113.76C224.507 113.73 224.455 113.71 224.4 113.7C222.539 113.362 220.828 112.458 219.5 111.11C219.28 111.29 219.07 111.48 218.87 111.67C220.322 113.16 222.203 114.159 224.25 114.53Z" fill="#3F99F2"/>
<path d="M242.84 124.94C242.407 124.705 242.001 124.424 241.63 124.1C240.604 123.24 239.79 122.155 239.25 120.93C239.35 122.1 240.1 128.5 244.18 130.5L242.84 124.94Z" fill="black"/>
<path d="M212.06 129C212.06 129 218.12 124.75 226.62 131" stroke="#2130D9" stroke-width="0.84" stroke-miterlimit="10" stroke-linecap="round"/>
<path d="M238.27 112.46C237.949 112.512 237.642 112.631 237.37 112.81C236.425 113.548 235.59 114.417 234.89 115.39C233.89 116.61 232.89 117.8 231.89 118.98C229.67 121.52 227.25 124.05 224.11 125.3C222.911 125.818 221.599 126.021 220.3 125.89C219.647 125.829 219.014 125.629 218.445 125.303C217.876 124.977 217.383 124.533 217 124C216.707 123.52 216.491 122.997 216.36 122.45C216.005 121.028 215.924 119.552 216.12 118.1C216.23 116.743 216.488 115.401 216.89 114.1L215.99 114.33C215.1 117.23 213.04 125.91 219.72 126.7C228.23 127.73 236.44 115.47 238.27 112.46Z" fill="#1E2ED9"/>
<path d="M227.75 114.16C234.361 114.16 239.72 109.168 239.72 103.01C239.72 96.852 234.361 91.86 227.75 91.86C221.139 91.86 215.78 96.852 215.78 103.01C215.78 109.168 221.139 114.16 227.75 114.16Z" fill="#8CD9FF"/>
<path d="M227.8 91.85C225.308 91.8436 222.87 92.5818 220.8 93.97C221 94.28 221.51 96.16 219.93 98.47L222.64 100.08C222.64 100.08 228.22 91.54 236.58 95.4C234.239 93.0998 231.081 91.8229 227.8 91.85Z" fill="#3F99F2"/>
<path d="M214.48 91.82L214.93 102.47L210.96 104.99L225.18 104.65L214.48 91.82Z" fill="black"/>
<path d="M224.09 101.39C223.527 99.694 222.485 98.1971 221.09 97.08L214.5 91.82L224.21 104L211 105L216.58 106.32C218.241 106.707 219.979 106.599 221.58 106.01L225.21 104.66L224.09 101.39Z" fill="#FFE75C"/>
<path d="M231.75 97.65C232.049 97.3187 232.45 97.0969 232.89 97.02C233.387 96.9298 233.899 97.0146 234.34 97.26C234.58 97.3838 234.792 97.5549 234.964 97.7628C235.136 97.9707 235.264 98.2113 235.34 98.47C235.471 98.9022 235.442 99.3669 235.26 99.78C235.236 99.8374 235.201 99.8893 235.157 99.9327C235.112 99.9761 235.059 100.01 235.001 100.032C234.943 100.055 234.882 100.065 234.819 100.063C234.757 100.061 234.696 100.046 234.64 100.02C234.578 99.9987 234.522 99.9606 234.48 99.91L234.42 99.85C234.17 99.58 234 99.34 233.83 99.2C233.717 99.0944 233.589 99.0067 233.45 98.94C233.286 98.8572 233.115 98.787 232.94 98.73C232.71 98.65 232.4 98.57 232.08 98.44L231.95 98.38C231.839 98.3316 231.752 98.2415 231.707 98.1293C231.662 98.017 231.663 97.8915 231.71 97.78C231.718 97.7352 231.732 97.6916 231.75 97.65Z" fill="black"/>
<path d="M222.711 100.787C222.922 100.703 222.937 100.244 222.745 99.761C222.553 99.2782 222.226 98.9547 222.016 99.0385C221.805 99.1223 221.79 99.5816 221.982 100.064C222.174 100.547 222.501 100.871 222.711 100.787Z" fill="#FFAB18"/>
<path d="M236.21 104C235.768 103.512 235.252 103.096 234.68 102.77C234.113 102.438 233.483 102.227 232.83 102.15C232.168 102.038 231.492 102.038 230.83 102.15C230.153 102.279 229.496 102.501 228.88 102.81C228.778 102.868 228.657 102.884 228.543 102.853C228.43 102.822 228.333 102.747 228.275 102.645C228.217 102.543 228.201 102.422 228.232 102.308C228.263 102.195 228.338 102.098 228.44 102.04C229.117 101.607 229.85 101.27 230.62 101.04C231.397 100.82 232.204 100.726 233.01 100.76C233.421 100.782 233.829 100.839 234.23 100.93C234.631 101.032 235.023 101.169 235.4 101.34C236.156 101.683 236.855 102.142 237.47 102.7C237.638 102.847 237.742 103.054 237.759 103.277C237.776 103.499 237.704 103.72 237.56 103.89C237.489 103.975 237.401 104.045 237.303 104.097C237.204 104.148 237.097 104.179 236.986 104.188C236.875 104.198 236.764 104.185 236.658 104.151C236.552 104.117 236.454 104.062 236.37 103.99C236.37 103.99 236.37 103.99 236.32 103.99L236.21 104Z" fill="black"/>
<mask id="mask0" style="mask-type:alpha" maskUnits="userSpaceOnUse" x="225" y="90" width="15" height="11">
<path d="M225.23 92.11C225.23 92.11 235.61 92.02 239.31 100.11C239.66 99.4395 239.814 98.6834 239.752 97.9293C239.69 97.1753 239.415 96.4543 238.96 95.85C237.758 94.2027 236.186 92.8599 234.371 91.9291C232.557 90.9983 230.549 90.5055 228.51 90.49C227.961 90.4836 227.416 90.5924 226.911 90.8094C226.407 91.0264 225.953 91.3469 225.58 91.75L225.23 92.11Z" fill="#FF78B9"/>
</mask>
<g mask="url(#mask0)">
<path d="M225.23 92.11C225.23 92.11 235.61 92.02 239.31 100.11C239.66 99.4395 239.814 98.6834 239.752 97.9293C239.69 97.1753 239.415 96.4543 238.96 95.85C237.758 94.2027 236.186 92.8599 234.371 91.9291C232.557 90.9983 230.549 90.5055 228.51 90.49C227.961 90.4836 227.416 90.5924 226.911 90.8094C226.407 91.0264 225.953 91.3469 225.58 91.75L225.23 92.11Z" fill="#FF78B9"/>
<path d="M227.44 93.44C227.44 93.44 228.85 90.52 231.51 90.3" stroke="#EB459F" stroke-width="0.84" stroke-miterlimit="10" stroke-linecap="round"/>
<path d="M231.08 94.58L233.4 90.98" stroke="#EB459F" stroke-width="0.84" stroke-miterlimit="10" stroke-linecap="round"/>
<path d="M234.54 96.38C234.64 96.22 236.2 94.04 235.95 92.11" stroke="#EB459F" stroke-width="0.84" stroke-miterlimit="10" stroke-linecap="round"/>
<path d="M238.21 94.12C238.299 95.7959 237.987 97.4689 237.3 99" stroke="#EB459F" stroke-width="0.84" stroke-miterlimit="10" stroke-linecap="round"/>
</g>
<path d="M234.71 126C235.174 126.106 235.659 126.072 236.104 125.903C236.549 125.733 236.934 125.436 237.21 125.048C237.486 124.66 237.641 124.199 237.655 123.723C237.67 123.248 237.543 122.778 237.291 122.374C237.039 121.971 236.673 121.65 236.239 121.454C235.805 121.258 235.323 121.195 234.853 121.273C234.384 121.35 233.947 121.565 233.6 121.89C233.252 122.216 233.009 122.637 232.9 123.1C232.827 123.409 232.817 123.73 232.868 124.043C232.92 124.357 233.033 124.657 233.202 124.926C233.37 125.196 233.59 125.43 233.849 125.614C234.107 125.798 234.4 125.929 234.71 126Z" fill="#FFD736"/>
<path d="M240.63 127.29C241.602 127.514 242.618 127.445 243.551 127.092C244.483 126.739 245.291 126.117 245.871 125.306C246.451 124.495 246.778 123.53 246.81 122.534C246.843 121.537 246.58 120.553 246.054 119.706C245.528 118.858 244.763 118.186 243.855 117.773C242.947 117.359 241.938 117.224 240.954 117.384C239.969 117.544 239.054 117.992 238.324 118.671C237.594 119.35 237.081 120.23 236.85 121.2C236.55 122.508 236.778 123.883 237.486 125.023C238.194 126.164 239.324 126.979 240.63 127.29Z" fill="#FFD736"/>
<path d="M252.51 128C253.484 128.224 254.502 128.154 255.437 127.8C256.371 127.446 257.18 126.823 257.76 126.01C258.341 125.197 258.668 124.23 258.701 123.231C258.733 122.233 258.469 121.247 257.941 120.398C257.414 119.549 256.647 118.876 255.737 118.462C254.828 118.049 253.816 117.914 252.83 118.074C251.844 118.235 250.927 118.684 250.196 119.365C249.464 120.046 248.951 120.928 248.72 121.9C248.417 123.211 248.646 124.589 249.356 125.732C250.066 126.875 251.2 127.691 252.51 128Z" fill="#FFD736"/>
<path d="M247.46 123.72C248.434 123.942 249.452 123.87 250.385 123.515C251.319 123.159 252.126 122.535 252.705 121.721C253.285 120.908 253.611 119.941 253.641 118.942C253.672 117.944 253.407 116.959 252.879 116.111C252.35 115.263 251.583 114.59 250.673 114.178C249.764 113.765 248.752 113.631 247.766 113.793C246.781 113.954 245.865 114.404 245.134 115.085C244.403 115.766 243.89 116.648 243.66 117.62C243.509 118.27 243.487 118.944 243.596 119.602C243.705 120.26 243.943 120.891 244.296 121.457C244.649 122.024 245.11 122.515 245.653 122.904C246.196 123.292 246.81 123.569 247.46 123.72Z" fill="#FFD736"/>
<path d="M260.41 124.56C260.41 126.56 254.73 128.13 247.72 128.16C240.71 128.19 235 126.6 235 124.63C235 122.66 240.66 120.52 247.68 120.5C254.7 120.48 260.39 122.6 260.41 124.56Z" fill="white"/>
<path d="M260.39 124.69L234.99 124.77L238.31 141.14L257.31 141.08L260.39 124.69Z" fill="white"/>
<path d="M253.63 141.09H250.42L252.76 120.85C254.216 121.044 255.649 121.379 257.04 121.85L253.63 141.09Z" fill="#A6ADFF"/>
<path d="M245.46 141.12H242.78L239.63 121.53C240.882 121.182 242.159 120.928 243.45 120.77L245.46 141.12Z" fill="#A6ADFF"/>
<path d="M257.28 141.08H249.91C249.91 141.08 245.57 130.62 258.53 134.33L257.28 141.08Z" fill="#FFD05C"/>
<path d="M257.3 136C257.3 136 255.03 128.67 259.03 131.87L257.28 141.1L257.3 136Z" fill="#FFD05C"/>
<path d="M163.88 125.7L160.54 138.77C160.47 139.046 160.464 139.334 160.522 139.612C160.58 139.891 160.701 140.153 160.876 140.377C161.05 140.602 161.274 140.784 161.529 140.909C161.785 141.034 162.065 141.1 162.35 141.1H168.22L167.07 125.59L163.88 125.7Z" fill="#FFD736"/>
<path d="M163.41 141.12C163.41 141.12 158.5 141.26 158.12 141.12C157.858 141.001 157.642 140.8 157.505 140.548C157.368 140.295 157.317 140.004 157.36 139.72C157.55 138.53 157.7 137.86 157.8 137.3C157.9 136.74 158.67 136.1 159.86 135.89C161.05 135.68 161.32 135.45 163.13 136.5L164.98 137.71C165.178 137.845 165.34 138.026 165.452 138.238C165.564 138.45 165.623 138.685 165.623 138.925C165.623 139.165 165.564 139.4 165.452 139.612C165.34 139.824 165.178 140.005 164.98 140.14C164.483 140.507 163.958 140.835 163.41 141.12Z" fill="#D01582"/>
<path d="M163.44 127C163.338 129.311 163.709 131.618 164.53 133.78C165.346 135.95 166.603 137.928 168.22 139.59C169.84 141.261 171.78 142.588 173.924 143.492C176.068 144.396 178.373 144.858 180.7 144.85C182.99 144.89 185.263 144.444 187.369 143.542C189.474 142.639 191.364 141.3 192.914 139.613C194.464 137.926 195.638 135.93 196.36 133.755C197.081 131.581 197.334 129.279 197.1 127C196.619 122.773 194.601 118.87 191.429 116.034C188.258 113.198 184.154 111.627 179.9 111.62C175.696 111.594 171.641 113.179 168.57 116.05C165.512 118.902 163.674 122.825 163.44 127Z" fill="#FF78B9"/>
<path d="M192.45 142.14H170.47V146.15H192.45V142.14Z" fill="#808AFF"/>
<path d="M196.05 134.63C196.622 133.203 196.986 131.701 197.13 130.17L195.03 125.75L192.17 124.19C192.67 126.96 190.67 131.94 188.17 134.28C190.64 134.49 193.77 134.59 196.05 134.63Z" fill="black"/>
<path d="M171.37 152.58C170.85 152.577 170.34 152.439 169.89 152.18C169.447 151.917 169.081 151.541 168.83 151.09L163 140.68C162.757 140.243 162.633 139.75 162.64 139.25C162.653 138.751 162.79 138.263 163.04 137.83C163.299 137.401 163.664 137.046 164.1 136.799C164.536 136.552 165.029 136.422 165.53 136.42H169.08C170.67 136.42 173.33 137.32 174.3 139.29C175.02 140.71 174.46 142.16 172.87 142.16H170.47L173.9 148.32C174.148 148.755 174.273 149.249 174.26 149.75C174.248 150.246 174.11 150.731 173.86 151.16C173.601 151.589 173.236 151.944 172.799 152.191C172.363 152.438 171.871 152.568 171.37 152.57V152.58Z" fill="#FFD736"/>
<path d="M171.42 143.87C171.13 143.35 169.6 142.72 167.61 143.42C165.62 144.12 165.69 145.42 166.12 146.23L168.83 151.09C169.081 151.541 169.447 151.917 169.89 152.18C170.34 152.439 170.85 152.577 171.37 152.58C171.871 152.575 172.363 152.444 172.8 152.2C173.231 151.949 173.592 151.593 173.847 151.164C174.102 150.735 174.245 150.249 174.26 149.75C174.261 149.251 174.137 148.759 173.9 148.32L171.42 143.87Z" fill="white"/>
<path d="M172.19 145.25C171.9 144.73 170.37 144.1 168.38 144.8C166.39 145.5 166.46 146.8 166.89 147.61L167.51 148.72C167.08 147.95 167.05 146.59 169 145.92C170.95 145.25 172.52 145.84 172.81 146.36L172.19 145.25Z" fill="#5865F2"/>
<path d="M175.7 149.66C174.92 148.08 174.5 147.5 171.22 148.01C167.94 148.52 167.52 150.15 167.84 150.76C167.98 151.02 168.35 151.62 168.35 151.62C166.7 151.81 165.04 152.46 165.03 154.29C165.03 156.29 166.1 158.23 170.34 157.65C174.58 157.07 176.61 155.88 177.17 154.88C177.73 153.88 177 152.29 175.7 149.66Z" fill="#29CC7A"/>
<path d="M171.14 153C170.85 151.94 170.43 151.4 168.35 151.65C166.7 151.84 165.04 152.5 165.03 154.32C164.954 155.132 165.202 155.941 165.718 156.571C166.235 157.202 166.979 157.604 167.79 157.69C169.21 156.16 171.37 153.8 171.14 153Z" fill="#29CC7A"/>
<path d="M177.17 154.88C177.226 154.765 177.27 154.644 177.3 154.52C177.345 154.309 177.345 154.091 177.3 153.88C177.202 153.464 176.943 153.105 176.58 152.88C176.397 152.766 176.193 152.691 175.98 152.66C175.12 152.5 174.43 153.07 172.98 153.13C171.53 153.19 169.58 152.53 167.62 152.93C166.958 153.048 166.334 153.322 165.8 153.73C165.468 154.028 165.241 154.424 165.15 154.86C165.06 155.293 165.117 155.743 165.31 156.14C165.89 157.37 167.31 158.08 170.31 157.68C174.58 157.07 176.61 155.89 177.17 154.88Z" fill="black"/>
<path d="M191.5 126.67L184.65 123.93L182.65 132.25L187.37 134.64L191.5 126.67Z" fill="white"/>
<path d="M191.52 126.65C191.72 126.13 190.36 125.09 188.46 124.33C186.56 123.57 184.86 123.33 184.66 123.89C184.46 124.45 185.81 125.44 187.71 126.21C189.61 126.98 191.31 127.17 191.52 126.65Z" fill="#8CD9FF"/>
<path d="M188.11 125.13L189.71 120.66C189.735 120.582 189.735 120.498 189.71 120.42C189.692 120.342 189.654 120.269 189.6 120.21C189.542 120.152 189.47 120.11 189.39 120.09C189.315 120.065 189.235 120.065 189.16 120.09L186.16 120.87" stroke="white" stroke-width="2" stroke-linecap="round" stroke-linejoin="round"/>
<path d="M174.86 118.26C174.86 115.79 173.47 113.76 171.63 113.72C169.79 113.68 168.26 115.64 168.2 118.11C168.14 120.58 169.59 122.6 171.43 122.64C173.27 122.68 174.8 120.72 174.86 118.26Z" fill="white" stroke="#5865F2" stroke-width="2" stroke-miterlimit="10"/>
<path d="M183.8 118.33C183.86 115.83 182.34 113.76 180.4 113.72C178.46 113.68 176.85 115.72 176.79 118.17C176.73 120.62 178.26 122.74 180.2 122.78C182.14 122.82 183.75 120.83 183.8 118.33Z" fill="white" stroke="#5865F2" stroke-width="2" stroke-miterlimit="10"/>
<path d="M180.5 118.28C180.496 118.092 180.439 117.909 180.336 117.753C180.232 117.596 180.087 117.471 179.916 117.393C179.745 117.315 179.556 117.286 179.37 117.311C179.184 117.335 179.008 117.412 178.863 117.532C178.718 117.651 178.61 117.809 178.551 117.987C178.492 118.166 178.484 118.357 178.529 118.54C178.573 118.722 178.668 118.888 178.803 119.019C178.938 119.15 179.106 119.241 179.29 119.28C179.582 119.305 179.873 119.214 180.099 119.027C180.326 118.84 180.47 118.572 180.5 118.28Z" fill="black"/>
<path d="M172.49 118C172.69 117.35 172.49 116.72 172.03 116.59C171.57 116.46 171.03 116.88 170.87 117.52C170.71 118.16 170.87 118.8 171.33 118.93C171.79 119.06 172.3 118.62 172.49 118Z" fill="black"/>
<path d="M176.78 117.05H174.78" stroke="#5865F2" stroke-width="2" stroke-miterlimit="10"/>
<path d="M168.35 158.79C168.058 158.647 167.811 158.427 167.635 158.154C167.459 157.881 167.36 157.565 167.35 157.24C167.33 156.997 167.33 156.753 167.35 156.51C167.407 155.979 167.651 155.485 168.04 155.118C168.429 154.751 168.936 154.536 169.47 154.51C170.57 154.44 172.05 154.33 172.96 154.19L173.6 151.56C173.658 151.325 173.779 151.111 173.95 150.94C174.129 150.777 174.345 150.66 174.58 150.6C176.869 150.087 179.265 150.373 181.37 151.41C181.574 151.527 181.734 151.708 181.826 151.924C181.919 152.141 181.937 152.382 181.88 152.61L180.34 158.92C180.279 159.179 180.139 159.413 179.94 159.59C179.741 159.769 179.494 159.887 179.23 159.93C178.23 160.1 177.206 160.045 176.23 159.77C175.65 159.599 175.044 159.531 174.44 159.57C171.76 159.75 170 159.61 168.35 158.79Z" fill="#29CC7A"/>
<path d="M167.36 157.23C167.34 156.987 167.34 156.743 167.36 156.5C167.403 155.972 167.638 155.477 168.02 155.11C167.51 155.58 168.13 156.71 168.93 156.78C170.018 156.811 171.099 156.969 172.15 157.25C172.419 157.376 172.633 157.597 172.75 157.87C172.86 158.146 172.86 158.454 172.75 158.73C172.65 159.05 170.18 158.95 168.46 158.84L168.32 158.78C168.03 158.634 167.785 158.414 167.609 158.141C167.433 157.869 167.334 157.554 167.32 157.23H167.36Z" fill="#29CC7A"/>
<path d="M180.38 158.89C180.319 159.149 180.179 159.383 179.98 159.56C179.781 159.739 179.535 159.857 179.27 159.9C178.271 160.07 177.246 160.015 176.27 159.74C175.693 159.568 175.091 159.501 174.49 159.54C171.77 159.75 170.02 159.61 168.36 158.79C168.066 158.647 167.816 158.426 167.64 158.15C167.464 157.878 167.364 157.564 167.35 157.24C167.35 157 167.35 156.76 167.35 156.51C167.377 156.332 167.424 156.157 167.49 155.99C167.19 156.93 167.94 157.89 170.05 158.22C173.05 158.69 173.71 158.22 175.19 158.43C176.918 158.844 178.714 158.888 180.46 158.56L180.38 158.89Z" fill="black"/>
<path d="M177.41 156.82C176.978 156.818 176.552 156.722 176.16 156.54C175.771 156.356 175.429 156.085 175.16 155.75C174.885 155.423 174.689 155.036 174.59 154.62C174.495 154.202 174.495 153.768 174.59 153.35L177.73 138.66C177.869 138.019 178.222 137.445 178.73 137.03C179.252 136.62 179.896 136.395 180.56 136.39H186.21C186.966 136.411 187.684 136.727 188.21 137.27C188.738 137.802 189.034 138.521 189.034 139.27C189.034 140.019 188.738 140.738 188.21 141.27C187.682 141.81 186.965 142.122 186.21 142.14H182.9L180.24 154.56C180.105 155.203 179.752 155.779 179.24 156.19C178.72 156.603 178.074 156.826 177.41 156.82Z" fill="#FFD736"/>
<path d="M196.92 123.83C197.74 125.83 199.67 132.04 199.74 133.61C199.757 134.046 199.672 134.479 199.494 134.876C199.315 135.274 199.046 135.624 198.709 135.901C198.372 136.177 197.975 136.371 197.55 136.468C197.125 136.565 196.684 136.562 196.26 136.46C194.98 136.31 185.72 134.69 181.16 133.92C180.47 133.808 179.842 133.453 179.39 132.92C178.948 132.373 178.723 131.682 178.76 130.98C178.776 130.572 178.882 130.173 179.07 129.81C179.258 129.449 179.521 129.132 179.84 128.88C180.156 128.621 180.525 128.433 180.92 128.33C181.319 128.245 181.731 128.245 182.13 128.33L193.52 130.21C193.187 128.208 192.732 126.227 192.16 124.28C191.74 122.86 192.31 121.28 194.3 121.44C196 121.47 196.47 122.7 196.92 123.83Z" fill="#FFD736"/>
<path d="M181.27 133.6L180.74 133.5L176.67 132L175.56 130.9C175.381 130.722 175.239 130.511 175.143 130.279C175.046 130.046 174.996 129.797 174.996 129.545C174.996 129.293 175.046 129.044 175.143 128.811C175.239 128.579 175.381 128.368 175.56 128.19C176.72 127.02 177.34 127.27 178.39 127.77C179.427 128.295 180.531 128.678 181.67 128.91C181.888 128.963 182.093 129.062 182.27 129.2C182.442 129.346 182.576 129.531 182.66 129.74C182.86 130.297 182.939 130.89 182.89 131.48C182.85 132.07 182.679 132.644 182.39 133.16C182.284 133.356 182.115 133.511 181.91 133.6C181.701 133.662 181.479 133.662 181.27 133.6Z" fill="#D11583"/>
<path d="M192 146.11C192.256 146.116 192.504 146.198 192.712 146.346C192.921 146.494 193.08 146.701 193.17 146.94L194.31 150.01C194.442 150.35 194.47 150.722 194.389 151.078C194.309 151.435 194.125 151.759 193.86 152.01L193.78 152.07C193.052 152.645 192.547 153.454 192.35 154.36C192.25 155.17 191.973 155.948 191.539 156.639C191.105 157.33 190.525 157.917 189.84 158.36C188.1 159.31 186.47 159.73 185.26 158.12C184.26 156.72 185.07 155.83 185.84 152.53C185.981 151.905 185.94 151.252 185.72 150.65L185.42 149.85C185.339 149.633 185.321 149.397 185.37 149.17C185.41 148.939 185.514 148.724 185.67 148.55C186.493 147.72 187.483 147.073 188.574 146.653C189.665 146.232 190.833 146.047 192 146.11Z" fill="#29CC7A"/>
<path d="M184.83 156.16C184.748 156.488 184.748 156.832 184.83 157.16C184.9 157.498 185.051 157.813 185.27 158.08C186.43 159.64 188 159.29 189.69 158.41C190.8 157.02 192.01 155.22 191.69 154.35C191.16 152.82 190.29 154.12 189.77 154.89C189.069 155.787 188.092 156.426 186.99 156.71C185.94 157.11 184.65 157.08 184.83 156.16Z" fill="#29CC7A"/>
<path d="M193.3 151.69C192.865 151.914 192.484 152.227 192.18 152.61C191.882 152.996 191.673 153.443 191.57 153.92C191.353 154.758 190.957 155.539 190.41 156.21C189.871 156.889 189.188 157.439 188.41 157.82C186.84 158.62 185.61 158.57 185.15 157.94C186.37 159.82 188.25 159.18 189.83 158.33C191.14 157.62 191.89 156.22 192.33 154.33C192.527 153.424 193.032 152.615 193.76 152.04L193.84 151.98C194.108 151.731 194.295 151.407 194.375 151.05C194.456 150.693 194.426 150.32 194.29 149.98C194.33 150.327 194.257 150.678 194.08 150.98C193.91 151.3 193.634 151.55 193.3 151.69Z" fill="black"/>
<path d="M189.54 151.63C188.935 151.633 188.345 151.447 187.85 151.1C187.378 150.745 187.029 150.253 186.85 149.69L183.56 140.2C183.414 139.766 183.37 139.304 183.43 138.85C183.498 138.396 183.672 137.964 183.94 137.59C184.199 137.222 184.542 136.92 184.94 136.71C185.352 136.5 185.808 136.39 186.27 136.39H189.49C190.24 136.4 190.958 136.701 191.49 137.23C192.027 137.758 192.333 138.477 192.34 139.23C192.34 140.55 191.6 140.91 190.2 141.92L192.2 147.8C192.448 148.518 192.402 149.306 192.07 149.99C191.834 150.475 191.466 150.884 191.007 151.169C190.549 151.454 190.02 151.603 189.48 151.6L189.54 151.63Z" fill="#FFD736"/>
<path d="M190.85 141.51L190.09 139.3C190.055 139.211 189.987 139.14 189.9 139.1C189.813 139.065 189.717 139.065 189.63 139.1C189.539 139.131 189.464 139.195 189.42 139.28C189.4 139.322 189.39 139.368 189.39 139.415C189.39 139.462 189.4 139.508 189.42 139.55L190.25 141.97L190.85 141.51Z" fill="black"/>
<path d="M192.27 147.83L190 141.34C190.09 141.58 189.86 142.74 187.95 143.5C186.38 144.12 185.27 144.05 184.81 143.67C184.76 143.67 184.69 143.67 184.71 143.73L186.77 149.73C186.949 150.292 187.298 150.785 187.77 151.14C188.113 151.383 188.505 151.549 188.918 151.627C189.331 151.704 189.756 151.691 190.164 151.588C190.572 151.486 190.952 151.296 191.28 151.032C191.607 150.768 191.873 150.437 192.06 150.06C192.243 149.721 192.355 149.349 192.392 148.966C192.428 148.583 192.386 148.197 192.27 147.83Z" fill="white"/>
<path d="M191.14 144.55L190.64 143.11C190.73 143.35 190.5 144.51 188.64 145.27C186.78 146.03 185.48 145.75 185.28 145.15L185.78 146.59C185.98 147.19 187.22 147.47 189.14 146.71C191.06 145.95 191.23 144.81 191.14 144.55Z" fill="#5865F2"/>
<path d="M179.37 145.92C178.337 145.865 177.366 145.406 176.67 144.64C176.66 144.616 176.643 144.596 176.622 144.582C176.601 144.568 176.576 144.56 176.55 144.56C176.524 144.56 176.499 144.568 176.478 144.582C176.456 144.596 176.44 144.616 176.43 144.64L174.57 153.31C174.49 153.686 174.49 154.074 174.57 154.45C174.629 154.832 174.766 155.198 174.973 155.525C175.179 155.852 175.45 156.132 175.77 156.35C176.088 156.569 176.446 156.722 176.824 156.801C177.201 156.88 177.591 156.883 177.97 156.81C178.352 156.741 178.716 156.595 179.039 156.38C179.363 156.165 179.639 155.886 179.85 155.56C180.064 155.24 180.207 154.879 180.27 154.5L182.27 145.07C182.2 145.37 181.4 146.23 179.37 145.92Z" fill="white"/>
<path d="M179 147.78C177 147.45 176.05 146.59 176.18 145.97L175.89 147.32C175.76 147.94 176.68 148.81 178.71 149.13C180.74 149.45 181.54 148.58 181.59 148.33L181.88 146.98C181.8 147.23 181 148.1 179 147.78Z" fill="#5865F2"/>
<path d="M175.1 150.9C175.02 151.25 174.94 152.07 176.5 152.55C178.5 153.17 180.59 152.87 180.71 152.34L180.87 151.59H181.27L180.27 156.08L177.33 157.71L174.33 156.15L173.53 154.08L174.35 151.25L175.1 150.9Z" fill="#29CC7A"/>
<path d="M192 147C192.08 147.25 191.8 148.23 189.88 149C187.96 149.77 186.83 149.77 186.62 149.17L186.53 148.89L186.09 149.06L187.23 151.9L190.61 152.73L193.14 150.46L193.4 149.04L192.58 146.77L191.86 146.66L192 147Z" fill="#29CC7A"/>
<path d="M196.47 131L193.59 129.36C193.484 129.307 193.368 129.273 193.25 129.26C193.3 129.53 193.37 129.71 193.41 129.98V130.07L196.16 131.62C196.219 131.635 196.281 131.635 196.34 131.62C196.42 131.619 196.498 131.591 196.56 131.54C196.625 131.494 196.671 131.427 196.69 131.35C196.714 131.275 196.714 131.195 196.69 131.12C196.66 131.048 196.607 130.988 196.54 130.95L196.47 131Z" fill="black"/>
<path d="M170.47 142.16H171.29L170.11 140C170.059 139.919 169.981 139.859 169.89 139.83C169.803 139.795 169.707 139.795 169.62 139.83C169.577 139.849 169.54 139.878 169.51 139.915C169.481 139.951 169.46 139.994 169.45 140.04C169.43 140.084 169.42 140.132 169.42 140.18C169.42 140.228 169.43 140.276 169.45 140.32L170.47 142.16Z" fill="black"/>
<path d="M177.39 123.63L173.5 123.48C173.399 123.475 173.298 123.492 173.204 123.53C173.11 123.568 173.026 123.627 172.957 123.701C172.888 123.776 172.837 123.864 172.806 123.961C172.776 124.057 172.767 124.16 172.78 124.26C173.01 126.05 173.95 129.78 177.91 124.76C177.989 124.659 178.039 124.538 178.053 124.41C178.068 124.283 178.048 124.153 177.994 124.037C177.94 123.92 177.856 123.82 177.749 123.749C177.642 123.677 177.518 123.636 177.39 123.63Z" fill="black"/>
<path d="M174.79 125.54C175.619 125.301 176.494 125.267 177.34 125.44C174.98 128.13 173.82 127.44 173.26 126.14C173.743 125.878 174.257 125.676 174.79 125.54Z" fill="#E53794"/>
<path d="M179.18 129.32C179.18 129.32 174.31 128.61 173.92 128.74C173.652 128.824 173.418 128.991 173.252 129.218C173.086 129.445 172.998 129.719 173 130C173.05 131.2 173.13 131.89 173.16 132.45C173.19 133.01 173.88 133.75 175.04 134.09C176.2 134.43 176.44 134.69 178.36 133.87L180.36 132.87C180.575 132.763 180.761 132.605 180.901 132.409C181.04 132.214 181.129 131.986 181.16 131.748C181.191 131.51 181.162 131.267 181.077 131.043C180.991 130.818 180.851 130.618 180.67 130.46C180.202 130.044 179.704 129.663 179.18 129.32Z" fill="#D01582"/>
<path d="M173.09 131.6C173.09 131.27 173.04 130.89 173.02 130.42C173.217 130.547 173.429 130.651 173.65 130.73L175.21 131.22C175.274 131.239 175.334 131.271 175.386 131.314C175.438 131.357 175.48 131.41 175.511 131.47C175.542 131.53 175.56 131.595 175.565 131.662C175.57 131.729 175.562 131.796 175.54 131.86C175.52 131.923 175.488 131.981 175.445 132.031C175.402 132.081 175.349 132.121 175.29 132.15C175.168 132.2 175.032 132.2 174.91 132.15L173.35 131.66L173.09 131.6Z" fill="black"/>
<path d="M160.05 141.18C160.05 141.18 160.05 141.18 160.05 141.13L160.32 139.52C160.333 139.455 160.332 139.387 160.318 139.322C160.305 139.257 160.278 139.195 160.24 139.14C160.16 139.033 160.042 138.962 159.91 138.94C159.777 138.917 159.641 138.947 159.531 139.023C159.42 139.1 159.344 139.218 159.32 139.35L159.05 140.96C159.039 141.028 159.023 141.095 159 141.16L160.05 141.18Z" fill="black"/>
</g>
<defs>
<linearGradient id="paint0_linear" x1="152.19" y1="81.13" x2="169.56" y2="113.16" gradientUnits="userSpaceOnUse">
<stop stop-color="#FFE75C"/>
<stop offset="1" stop-color="#FFC619"/>
</linearGradient>
<linearGradient id="paint1_linear" x1="8338.26" y1="3234.01" x2="7698.15" y2="4530.69" gradientUnits="userSpaceOnUse">
<stop stop-color="#FFE75C"/>
<stop offset="1" stop-color="#FFC619"/>
</linearGradient>
<linearGradient id="paint2_linear" x1="201.37" y1="125.35" x2="204.13" y2="104.47" gradientUnits="userSpaceOnUse">
<stop stop-color="#66BCFF"/>
<stop offset="1" stop-color="#8CD9FF"/>
</linearGradient>
<linearGradient id="paint3_linear" x1="4421.49" y1="4288.79" x2="4524.08" y2="4159.51" gradientUnits="userSpaceOnUse">
<stop stop-color="#66BCFF"/>
<stop offset="1" stop-color="#8CD9FF"/>
</linearGradient>
<clipPath id="clip0">
<rect width="275" height="160" fill="white"/>
</clipPath>
</defs>
</svg>
