<svg xmlns="http://www.w3.org/2000/svg" width="85" height="85" viewBox="0 0 85 85">
  <g fill="none" fill-rule="evenodd">
    <path fill="#B9BBBE" d="M51.4158,2.9486 C51.3398,2.9486 51.2628,2.9406 51.1858,2.9226 C49.2758,2.4726 47.3118,2.1616 45.3508,1.9966 C44.7998,1.9506 44.3918,1.4676 44.4378,0.9166 C44.4838,0.3666 44.9538,-0.0434 45.5188,0.0036 C47.5768,0.1776 49.6378,0.5036 51.6438,0.9746 C52.1818,1.1016 52.5148,1.6396 52.3888,2.1776 C52.2798,2.6376 51.8698,2.9486 51.4158,2.9486 M30.4428,3.4966 C30.0098,3.4966 29.6098,3.2126 29.4828,2.7756 C29.3288,2.2456 29.6338,1.6906 30.1638,1.5366 C32.1438,0.9596 34.1848,0.5266 36.2298,0.2466 C36.7718,0.1726 37.2818,0.5536 37.3558,1.1016 C37.4308,1.6486 37.0478,2.1536 36.5008,2.2276 C34.5528,2.4946 32.6078,2.9076 30.7228,3.4566 C30.6288,3.4836 30.5358,3.4966 30.4428,3.4966 M65.1918,9.0386 C64.9968,9.0386 64.7988,8.9816 64.6258,8.8626 C63.0078,7.7496 61.2908,6.7496 59.5238,5.8886 C59.0268,5.6466 58.8208,5.0486 59.0628,4.5516 C59.3048,4.0546 59.9038,3.8486 60.3998,4.0906 C62.2558,4.9946 64.0588,6.0456 65.7588,7.2146 C66.2138,7.5276 66.3298,8.1496 66.0168,8.6046 C65.8228,8.8866 65.5098,9.0386 65.1918,9.0386 M17.0088,10.3046 C16.7088,10.3046 16.4128,10.1706 16.2158,9.9136 C15.8788,9.4756 15.9618,8.8476 16.3998,8.5116 C18.0378,7.2536 19.7828,6.1086 21.5858,5.1086 C22.0678,4.8396 22.6778,5.0156 22.9448,5.4986 C23.2128,5.9816 23.0388,6.5906 22.5558,6.8576 C20.8388,7.8096 19.1778,8.8996 17.6178,10.0976 C17.4368,10.2376 17.2218,10.3046 17.0088,10.3046 M75.8348,19.7046 C75.5158,19.7046 75.2028,19.5526 75.0088,19.2686 C73.9028,17.6516 72.6628,16.0986 71.3218,14.6546 C70.9468,14.2486 70.9708,13.6166 71.3748,13.2406 C71.7798,12.8656 72.4128,12.8886 72.7888,13.2936 C74.1958,14.8106 75.4988,16.4416 76.6598,18.1396 C76.9718,18.5956 76.8548,19.2186 76.3988,19.5306 C76.2268,19.6476 76.0298,19.7046 75.8348,19.7046 M6.9318,21.5056 C6.7538,21.5056 6.5738,21.4576 6.4108,21.3586 C5.9388,21.0706 5.7908,20.4546 6.0798,19.9836 C7.1538,18.2276 8.3708,16.5326 9.6978,14.9466 C10.0518,14.5226 10.6828,14.4666 11.1058,14.8216 C11.5298,15.1756 11.5858,15.8056 11.2318,16.2296 C9.9678,17.7406 8.8088,19.3546 7.7858,21.0276 C7.5968,21.3356 7.2688,21.5056 6.9318,21.5056 M81.8908,33.4936 C81.4358,33.4936 81.0248,33.1816 80.9168,32.7206 C80.4718,30.8046 79.8798,28.9076 79.1578,27.0816 C78.9558,26.5686 79.2068,25.9876 79.7208,25.7836 C80.2348,25.5816 80.8148,25.8336 81.0188,26.3466 C81.7758,28.2636 82.3978,30.2556 82.8658,32.2676 C82.9908,32.8056 82.6558,33.3436 82.1178,33.4686 C82.0418,33.4856 81.9658,33.4936 81.8908,33.4936 M1.5978,35.5916 C1.5408,35.5916 1.4808,35.5866 1.4218,35.5756 C0.8778,35.4796 0.5158,34.9606 0.6128,34.4166 C0.9738,32.3796 1.4908,30.3576 2.1468,28.4056 C2.3228,27.8826 2.8888,27.5976 3.4138,27.7766 C3.9368,27.9526 4.2188,28.5196 4.0428,29.0436 C3.4168,30.9016 2.9258,32.8266 2.5818,34.7656 C2.4958,35.2506 2.0738,35.5916 1.5978,35.5916 M82.5708,48.5446 C82.5248,48.5446 82.4788,48.5416 82.4318,48.5346 C81.8848,48.4586 81.5028,47.9536 81.5788,47.4066 C81.8338,45.5716 81.9628,43.7006 81.9628,41.8466 L81.9618,41.5106 C81.9568,40.9586 82.4008,40.5076 82.9538,40.5026 C83.4948,40.4826 83.9568,40.9416 83.9618,41.4936 L83.9628,41.8466 C83.9628,43.7926 83.8278,45.7566 83.5598,47.6816 C83.4898,48.1826 83.0618,48.5446 82.5708,48.5446 M1.6988,50.6586 C1.2288,50.6586 0.8098,50.3256 0.7178,49.8466 C0.3308,47.8296 0.0898,45.7566 0.0008,43.6866 C-0.0232,43.1356 0.4048,42.6686 0.9568,42.6446 C1.5128,42.6236 1.9758,43.0496 1.9988,43.6006 C2.0838,45.5736 2.3128,47.5486 2.6818,49.4696 C2.7858,50.0126 2.4308,50.5366 1.8888,50.6406 C1.8248,50.6526 1.7618,50.6586 1.6988,50.6586 M77.7878,62.8296 C77.6238,62.8296 77.4558,62.7896 77.3018,62.7036 C76.8198,62.4346 76.6458,61.8256 76.9158,61.3436 C77.8708,59.6286 78.7068,57.8266 79.3988,55.9856 C79.5938,55.4686 80.1688,55.2076 80.6868,55.4016 C81.2048,55.5956 81.4658,56.1726 81.2708,56.6896 C80.5438,58.6226 79.6668,60.5166 78.6628,62.3166 C78.4788,62.6446 78.1388,62.8296 77.7878,62.8296 M7.2318,64.6676 C6.8998,64.6676 6.5758,64.5026 6.3858,64.2016 C5.2838,62.4546 4.3048,60.6106 3.4758,58.7226 C3.2538,58.2166 3.4838,57.6266 3.9898,57.4056 C4.4958,57.1826 5.0848,57.4126 5.3068,57.9186 C6.0958,59.7166 7.0278,61.4706 8.0768,63.1346 C8.3718,63.6016 8.2318,64.2196 7.7648,64.5136 C7.5998,64.6176 7.4148,64.6676 7.2318,64.6676 M68.1548,74.4136 C67.8678,74.4136 67.5828,74.2906 67.3858,74.0526 C67.0328,73.6276 67.0908,72.9966 67.5158,72.6446 C68.4648,71.8556 69.3898,71.0126 70.2628,70.1376 C70.7838,69.6176 71.2868,69.0866 71.7718,68.5456 C72.1408,68.1346 72.7728,68.0996 73.1848,68.4696 C73.5958,68.8386 73.6298,69.4706 73.2608,69.8816 C72.7508,70.4486 72.2238,71.0066 71.6778,71.5526 C70.7608,72.4696 69.7898,73.3546 68.7938,74.1826 C68.6068,74.3376 68.3798,74.4136 68.1548,74.4136 M17.5558,75.8016 C17.3488,75.8016 17.1398,75.7376 16.9608,75.6046 C15.3098,74.3796 13.7298,73.0156 12.2658,71.5526 L12.1808,71.4666 C11.7908,71.0756 11.7908,70.4436 12.1808,70.0526 C12.5718,69.6616 13.2048,69.6616 13.5948,70.0526 L13.6858,70.1436 C15.0748,71.5326 16.5798,72.8316 18.1518,73.9986 C18.5958,74.3276 18.6888,74.9536 18.3598,75.3976 C18.1638,75.6616 17.8618,75.8016 17.5558,75.8016 M54.9918,81.7316 C54.5728,81.7316 54.1828,81.4666 54.0428,81.0476 C53.8688,80.5236 54.1518,79.9566 54.6758,79.7826 C56.5418,79.1606 58.3758,78.3946 60.1248,77.5056 C60.6168,77.2566 61.2198,77.4526 61.4698,77.9446 C61.7198,78.4366 61.5228,79.0386 61.0308,79.2886 C59.1938,80.2226 57.2688,81.0276 55.3078,81.6796 C55.2028,81.7156 55.0958,81.7316 54.9918,81.7316 M31.1078,82.3836 C31.0208,82.3836 30.9328,82.3716 30.8438,82.3476 C28.8528,81.8046 26.8858,81.1076 24.9978,80.2766 C24.4918,80.0536 24.2628,79.4636 24.4848,78.9586 C24.7078,78.4526 25.2988,78.2236 25.8028,78.4466 C27.6018,79.2376 29.4748,79.9016 31.3708,80.4186 C31.9028,80.5636 32.2168,81.1136 32.0718,81.6466 C31.9508,82.0916 31.5478,82.3836 31.1078,82.3836 M41.9408,83.8376 C41.3028,83.8376 40.6628,83.8226 40.0228,83.7936 C39.4718,83.7676 39.0448,83.2996 39.0698,82.7476 C39.0958,82.1966 39.5758,81.7806 40.1148,81.7956 C40.7338,81.8236 41.3558,81.8366 41.9708,81.8376 C43.3208,81.8376 44.6838,81.7696 46.0208,81.6346 C46.5788,81.5796 47.0608,81.9806 47.1168,82.5286 C47.1718,83.0786 46.7708,83.5686 46.2218,83.6246 C44.8078,83.7666 43.4068,83.8486 41.9408,83.8376"/>
    <path fill="#DCDDDE" d="M26.3397,26.2176 C34.9577,17.5996 48.9797,17.5996 57.5977,26.2176 C60.4877,29.1076 62.5157,32.7256 63.4627,36.6806 C63.5907,37.2176 63.2597,37.7576 62.7227,37.8856 C62.7137,37.8876 62.7047,37.8846 62.6957,37.8866 C63.2927,41.0286 63.1577,44.2756 62.3197,47.3726 C62.3347,47.3766 62.3477,47.3726 62.3617,47.3776 C62.8877,47.5466 63.1767,48.1106 63.0077,48.6356 C61.9277,51.9916 60.1077,54.9666 57.5977,57.4756 C53.2887,61.7836 47.6277,63.9386 41.9687,63.9386 C36.3077,63.9386 30.6497,61.7846 26.3397,57.4756 C22.1647,53.3006 19.8657,47.7506 19.8657,41.8466 C19.8657,35.9426 22.1647,30.3926 26.3397,26.2176 M22.6377,61.1776 C33.2967,71.8366 50.6407,71.8366 61.2997,61.1776 C71.9587,50.5186 71.9587,33.1746 61.2997,22.5156 C50.6397,11.8566 33.2967,11.8566 22.6377,22.5156 C17.4737,27.6786 14.6307,34.5446 14.6307,41.8466 C14.6307,49.1486 17.4737,56.0136 22.6377,61.1776"/>
    <path fill="#F6F6F7" d="M61.5169 37.1463C60.6569 33.5503 58.8119 30.2603 56.1839 27.6313 48.3459 19.7933 35.5919 19.7933 27.7539 27.6313 23.9569 31.4283 21.8659 36.4773 21.8659 41.8463 21.8659 47.2163 23.9569 52.2643 27.7539 56.0613 35.5919 63.8993 48.3459 63.8993 56.1839 56.0613 58.4659 53.7783 60.1219 51.0743 61.1029 48.0233 61.2679 47.5113 61.8059 47.2303 62.3199 47.3723 63.1579 44.2753 63.2929 41.0283 62.6959 37.8873 62.1629 37.9963 61.6429 37.6743 61.5169 37.1463M68.7206 65.9349L63.9986 61.2129C63.5856 61.6819 63.1616 62.1439 62.7136 62.5919 62.2656 63.0389 61.8036 63.4629 61.3346 63.8759L66.0576 68.5989 68.7206 65.9349z"/>
    <polygon fill="#FFFFFF" points="72.173 65.31 65.432 72.051 76.251 82.87 82.992 76.128"/>
    <path fill="#B9BBBE" d="M62.7137,62.5916 C62.7177,62.5876 62.7227,62.5826 62.7277,62.5776 C63.4507,61.8536 64.6137,61.8286 65.3377,62.5516 L67.4277,64.6416 C68.1417,65.3566 68.1417,66.5136 67.4277,67.2276 L67.3507,67.3056 C66.6357,68.0196 65.4787,68.0196 64.7647,67.3056 L62.6747,65.2156 C61.9507,64.4916 61.9757,63.3286 62.6997,62.6056 L62.7137,62.5916 Z M61.2997,22.5156 C71.9587,33.1746 71.9587,50.5186 61.2997,61.1776 C50.6407,71.8366 33.2967,71.8366 22.6377,61.1776 C17.4737,56.0136 14.6307,49.1486 14.6307,41.8466 C14.6307,34.5446 17.4737,27.6786 22.6377,22.5156 C33.2967,11.8566 50.6397,11.8566 61.2997,22.5156 Z M66.1487,71.3356 L71.4577,66.0266 C71.8527,65.6306 72.4937,65.6306 72.8887,66.0266 L80.8637,73.9996 C82.0387,75.1756 82.0387,77.0816 80.8637,78.2576 L78.3797,80.7406 C77.2037,81.9166 75.2977,81.9166 74.1227,80.7406 L66.1487,72.7676 C65.7537,72.3716 65.7537,71.7316 66.1487,71.3356 Z M71.1397,63.5156 C70.5847,64.0706 69.6847,64.0706 69.1307,63.5156 L66.3967,60.7826 C65.7677,60.1536 65.6607,59.1616 66.1647,58.4276 C74.5147,46.2546 72.6617,29.1376 60.5877,19.1696 C50.2057,10.5976 32.7387,10.8836 22.6327,19.7786 C15.2017,26.3206 11.5887,35.8896 12.8917,45.8336 C13.5047,50.5066 15.2727,54.9886 18.0217,58.8166 C23.9377,67.0536 32.9537,71.1706 41.9687,71.1706 C47.7757,71.1706 53.5787,69.4556 58.5577,66.0376 C59.2887,65.5356 60.2787,65.6486 60.9067,66.2766 L63.6387,69.0086 C64.1937,69.5626 64.1937,70.4626 63.6387,71.0176 C63.0677,71.5886 63.0677,72.5146 63.6387,73.0856 L74.4337,83.8816 C75.4377,84.8846 77.0647,84.8846 78.0677,83.8816 L84.0037,77.9456 C85.0067,76.9426 85.0067,75.3156 84.0037,74.3116 L73.2077,63.5156 C72.6357,62.9456 71.7107,62.9456 71.1397,63.5156 Z"/>
    <path fill="#B9BBBE" d="M26.3397,57.4754 C30.6497,61.7854 36.3077,63.9384 41.9687,63.9384 C47.6277,63.9384 53.2887,61.7844 57.5977,57.4754 C60.1077,54.9664 61.9277,51.9924 63.0077,48.6354 C63.1767,48.1104 62.8877,47.5464 62.3617,47.3774 C62.3477,47.3724 62.3347,47.3764 62.3197,47.3724 C61.8057,47.2304 61.2687,47.5114 61.1037,48.0234 C60.1217,51.0744 58.4657,53.7784 56.1837,56.0614 C48.3457,63.8994 35.5917,63.8994 27.7537,56.0614 C23.9567,52.2644 21.8657,47.2164 21.8657,41.8464 C21.8657,36.4764 23.9567,31.4284 27.7537,27.6314 C35.5917,19.7934 48.3457,19.7934 56.1837,27.6314 C58.8127,30.2604 60.6567,33.5504 61.5167,37.1464 C61.6427,37.6744 62.1637,37.9964 62.6957,37.8874 C62.7047,37.8854 62.7137,37.8884 62.7227,37.8864 C63.2597,37.7574 63.5907,37.2174 63.4627,36.6804 C62.5157,32.7254 60.4877,29.1074 57.5977,26.2174 C48.9797,17.5994 34.9577,17.5994 26.3397,26.2174 C22.1647,30.3924 19.8657,35.9424 19.8657,41.8464 C19.8657,47.7504 22.1647,53.3014 26.3397,57.4754"/>
  </g>
</svg>
