<svg xmlns="http://www.w3.org/2000/svg" width="400" height="220" viewBox="0 0 400 220">
  <g fill="none" fill-rule="evenodd">
    <g transform="translate(4 3)">
      <path fill="#F7F7F8" fill-opacity=".9" d="M0,155.9889 L0,155.9919 C0,181.1869 20.425,201.6119 45.62,201.6119 L350.054,201.6119 C373.437,201.6119 392.394,182.6559 392.394,159.2719 L392.394,156.2189 C392.394,132.8349 373.437,113.8789 350.054,113.8789 L350.053,113.8789 C334.07,113.8789 321.113,100.9219 321.113,84.9389 L321.113,84.9359 C321.113,68.9529 334.07,55.9959 350.053,55.9959 L360.821,55.9959 C372.927,55.9959 382.741,46.1819 382.741,34.0759 L382.741,34.0679 C382.741,21.9619 372.927,12.1479 360.821,12.1479 L145.989,12.1479 C118.866,12.1479 96.879,34.1349 96.879,61.2579 L96.879,61.2589 C96.879,88.3819 74.892,110.3689 47.769,110.3689 L45.62,110.3689 C20.425,110.3689 0,130.7939 0,155.9889"/>
      <polygon fill="#DCDDDE" points="248.247 188.879 278.098 188.879 278.098 184.879 248.247 184.879"/>
      <g transform="translate(15 .879)">
        <path fill="#DCDDDE" d="M269.5981,212 L269.5981,201.355 L268.4581,201.355 C267.4051,201.355 266.4281,201.039 265.5981,200.512 L265.5981,207 C265.5981,207.552 265.1501,208 264.5981,208 L208.6101,208 C208.0581,208 207.6101,207.552 207.6101,207 L207.6101,193.675 L203.6101,193.675 L203.6101,212 L269.5981,212 Z"/>
        <path fill="#F7F7F8" d="M236.354,192.769 C239.238,192.769 241.584,195.116 241.584,198 C241.584,200.884 239.238,203.23 236.354,203.23 C233.47,203.23 231.123,200.884 231.123,198 C231.123,195.116 233.47,192.769 236.354,192.769 L236.354,192.769 Z M251.867,192.769 C254.751,192.769 257.098,195.116 257.098,198 C257.098,200.884 254.751,203.23 251.867,203.23 C248.982,203.23 246.636,200.884 246.636,198 C246.636,195.116 248.982,192.769 251.867,192.769 L251.867,192.769 Z M263.598,206 L263.598,198.224 C263.284,197.543 263.097,196.792 263.097,195.994 L263.097,192.505 L263.097,190 L233.247,190 L233.247,192.675 C233.247,193.227 232.799,193.675 232.247,193.675 L223.777,193.675 C225.161,194.617 226.072,196.204 226.072,198 C226.072,200.884 223.726,203.23 220.841,203.23 C217.957,203.23 215.61,200.884 215.61,198 C215.61,196.204 216.521,194.617 217.905,193.675 L209.61,193.675 L209.61,206 L263.598,206 Z"/>
        <path fill="#FFFFFF" d="M220.8413 201.2305C222.6223 201.2305 224.0713 199.7815 224.0713 198.0005 224.0713 196.2185 222.6223 194.7695 220.8413 194.7695 219.0593 194.7695 217.6103 196.2185 217.6103 198.0005 217.6103 199.7815 219.0593 201.2305 220.8413 201.2305M233.123 198C233.123 199.781 234.572 201.23 236.354 201.23 238.135 201.23 239.584 199.781 239.584 198 239.584 196.218 238.135 194.769 236.354 194.769 234.572 194.769 233.123 196.218 233.123 198M251.8667 201.2305C253.6487 201.2305 255.0977 199.7815 255.0977 198.0005 255.0977 196.2185 253.6487 194.7695 251.8667 194.7695 250.0847 194.7695 248.6357 196.2185 248.6357 198.0005 248.6357 199.7815 250.0847 201.2305 251.8667 201.2305M277.2427 156.5137C276.6907 156.5137 276.2427 156.0657 276.2427 155.5137L276.2427 131.5137C276.2427 130.9617 276.6907 130.5137 277.2427 130.5137L317.2427 130.5137C317.7947 130.5137 318.2427 130.9617 318.2427 131.5137L318.2427 155.5137C318.2427 156.0657 317.7947 156.5137 317.2427 156.5137L277.2427 156.5137zM297.2427 127.5527C297.7947 127.5527 298.2427 128.0007 298.2427 128.5527 298.2427 129.1047 297.7947 129.5527 297.2427 129.5527 296.6907 129.5527 296.2427 129.1047 296.2427 128.5527 296.2427 128.0007 296.6907 127.5527 297.2427 127.5527L297.2427 127.5527zM310.2427 158.5137L329.3737 158.5137 329.3737 149.7667C328.4157 149.6857 327.6587 148.8887 327.6587 147.9107L327.6587 145.4227C327.6137 145.3087 327.5847 145.1867 327.5847 145.0567L327.5847 141.4407C327.5847 141.2177 327.6717 141.0217 327.7947 140.8557 328.0527 140.2137 328.6557 139.7537 329.3737 139.6927L329.3737 129.8307C329.3737 127.9767 327.8657 126.4697 326.0127 126.4697L268.4437 126.4697C266.5907 126.4697 265.0827 127.9767 265.0827 129.8307L265.0827 158.5137 303.8797 158.5137C304.4317 158.5137 304.8797 158.9617 304.8797 159.5137L309.2427 159.5137C309.2427 158.9617 309.6907 158.5137 310.2427 158.5137L310.2427 158.5137z"/>
        <polygon fill="#FFFFFF" points="295.243 206.115 299.243 206.115 299.243 201.355 295.243 201.355"/>
        <polygon fill="#DCDDDE" points="286.467 211.785 308.018 211.785 308.018 208.116 286.467 208.116"/>
        <polygon fill="#DCDDDE" points="278.243 154.514 316.243 154.514 316.243 132.514 278.243 132.514"/>
        <path fill="#F7F7F8" d="M273.8535,173.0371 C273.8535,171.6591 272.7315,170.5371 271.3535,170.5371 C269.9755,170.5371 268.8535,171.6591 268.8535,173.0371 C268.8535,174.4151 269.9755,175.5371 271.3535,175.5371 C272.7315,175.5371 273.8535,174.4151 273.8535,173.0371"/>
        <path fill="#FFFFFF" d="M279.2427,167.5137 C279.2427,166.9617 279.6907,166.5137 280.2427,166.5137 L314.2427,166.5137 C314.7947,166.5137 315.2427,166.9617 315.2427,167.5137 L315.2427,191.5137 C315.2427,192.0657 314.7947,192.5137 314.2427,192.5137 L280.2427,192.5137 C279.6907,192.5137 279.2427,192.0657 279.2427,191.5137 L279.2427,167.5137 Z M325.8607,178.1557 C324.7557,178.1557 323.8607,177.2597 323.8607,176.1557 C323.8607,175.0507 324.7557,174.1557 325.8607,174.1557 C326.9647,174.1557 327.8607,175.0507 327.8607,176.1557 C327.8607,177.2597 326.9647,178.1557 325.8607,178.1557 L325.8607,178.1557 Z M322.3607,181.6557 C321.2557,181.6557 320.3607,180.7597 320.3607,179.6557 C320.3607,178.5507 321.2557,177.6557 322.3607,177.6557 C323.4647,177.6557 324.3607,178.5507 324.3607,179.6557 C324.3607,180.7597 323.4647,181.6557 322.3607,181.6557 L322.3607,181.6557 Z M320.3607,172.6557 C320.3607,171.5507 321.2557,170.6557 322.3607,170.6557 C323.4647,170.6557 324.3607,171.5507 324.3607,172.6557 C324.3607,173.7597 323.4647,174.6557 322.3607,174.6557 C321.2557,174.6557 320.3607,173.7597 320.3607,172.6557 L320.3607,172.6557 Z M318.8607,178.1557 C317.7557,178.1557 316.8607,177.2597 316.8607,176.1557 C316.8607,175.0507 317.7557,174.1557 318.8607,174.1557 C319.9647,174.1557 320.8607,175.0507 320.8607,176.1557 C320.8607,177.2597 319.9647,178.1557 318.8607,178.1557 L318.8607,178.1557 Z M290.2127,197.8667 L289.0457,197.8667 C288.4937,197.8667 288.0457,197.4187 288.0457,196.8667 C288.0457,196.3137 288.4937,195.8667 289.0457,195.8667 L290.2127,195.8667 C290.7647,195.8667 291.2127,196.3137 291.2127,196.8667 C291.2127,197.4187 290.7647,197.8667 290.2127,197.8667 L290.2127,197.8667 Z M266.8537,173.0367 C266.8537,170.5557 268.8717,168.5367 271.3537,168.5367 C273.8347,168.5367 275.8537,170.5557 275.8537,173.0367 C275.8537,175.5187 273.8347,177.5367 271.3537,177.5367 C268.8717,177.5367 266.8537,175.5187 266.8537,173.0367 L266.8537,173.0367 Z M277.3197,185.6127 C277.3197,185.8887 277.0957,186.1127 276.8197,186.1127 L274.8197,186.1127 C274.5437,186.1127 274.3197,186.3367 274.3197,186.6127 L274.3197,188.6127 C274.3197,188.8887 274.0957,189.1127 273.8197,189.1127 L271.8197,189.1127 C271.5437,189.1127 271.3197,188.8887 271.3197,188.6127 L271.3197,186.6127 C271.3197,186.3367 271.0957,186.1127 270.8197,186.1127 L268.8197,186.1127 C268.5437,186.1127 268.3197,185.8887 268.3197,185.6127 L268.3197,183.6127 C268.3197,183.3367 268.5437,183.1127 268.8197,183.1127 L270.8197,183.1127 C271.0957,183.1127 271.3197,182.8887 271.3197,182.6127 L271.3197,180.6127 C271.3197,180.3367 271.5437,180.1127 271.8197,180.1127 L273.8197,180.1127 C274.0957,180.1127 274.3197,180.3367 274.3197,180.6127 L274.3197,182.6127 C274.3197,182.8887 274.5437,183.1127 274.8197,183.1127 L276.8197,183.1127 C277.0957,183.1127 277.3197,183.3367 277.3197,183.6127 L277.3197,185.6127 Z M265.0967,192.5047 C265.0967,194.3587 266.6047,195.8667 268.4587,195.8667 L284.3797,195.8667 C284.9317,195.8667 285.3797,196.3137 285.3797,196.8667 C285.3797,197.4187 284.9317,197.8667 284.3797,197.8667 L268.4587,197.8667 C267.2177,197.8667 266.0887,197.4257 265.1797,196.7157 C265.5107,198.2217 266.8527,199.3547 268.4587,199.3547 L321.8607,199.3547 L321.8607,197.8667 L298.2427,197.8667 C297.6907,197.8667 297.2427,197.4187 297.2427,196.8667 C297.2427,196.3137 297.6907,195.8667 298.2427,195.8667 L321.8607,195.8667 L321.8607,184.9997 C321.8607,184.4477 322.3077,183.9997 322.8607,183.9997 L329.3887,183.9997 L329.3887,168.4647 L329.3887,164.5137 L265.0967,164.5137 L265.0967,168.4647 L265.0967,192.5047 Z"/>
        <polygon fill="#DCDDDE" points="281.243 190.514 313.243 190.514 313.243 168.514 281.243 168.514"/>
        <path fill="#DCDDDE" d="M263.2427,162.5137 L331.2427,162.5137 C331.7937,162.5137 332.2427,162.0647 332.2427,161.5137 C332.2427,160.9627 331.7937,160.5137 331.2427,160.5137 L310.2427,160.5137 C309.6907,160.5137 309.2427,160.0657 309.2427,159.5137 L304.8797,159.5137 C304.8797,160.0657 304.4317,160.5137 303.8797,160.5137 L263.2427,160.5137 C262.6917,160.5137 262.2427,160.9627 262.2427,161.5137 C262.2427,162.0647 262.6917,162.5137 263.2427,162.5137"/>
        <path fill="#F7F7F8" d="M337.2129,186 L323.8599,186 L323.8599,207 C323.8599,209.757 326.1039,212 328.8599,212 L340.8599,212 C343.6169,212 345.8599,209.757 345.8599,207 L345.8599,186 L341.0869,186 C340.5339,186 340.0869,185.552 340.0869,185 L340.0869,185 L338.2129,185 L338.2129,185 C338.2129,185.552 337.7649,186 337.2129,186"/>
        <polygon fill="#DCDDDE" points="129.254 71.514 133.254 71.514 133.254 68.219 129.254 68.219"/>
        <path fill="#DCDDDE" d="M131.2544,54.6826 C133.8144,54.6826 135.8974,56.7656 135.8974,59.3256 C135.8974,61.8856 133.8144,63.9686 131.2544,63.9686 C128.6944,63.9686 126.6114,61.8856 126.6114,59.3256 C126.6114,56.7656 128.6944,54.6826 131.2544,54.6826 M138.1474,64.7896 L138.1474,52.4326 L124.3614,52.4326 L124.3614,66.2186 L136.7184,66.2186 C137.5074,66.2186 138.1474,65.5786 138.1474,64.7896"/>
        <path fill="#FFFFFF" d="M131.2544,61.9683 C132.7124,61.9683 133.8974,60.7823 133.8974,59.3253 C133.8974,57.8683 132.7124,56.6823 131.2544,56.6823 C129.7974,56.6823 128.6114,57.8683 128.6114,59.3253 C128.6114,60.7823 129.7974,61.9683 131.2544,61.9683"/>
        <polygon fill="#F7F7F8" points="117.254 200.215 150.254 200.215 150.254 193.675 117.254 193.675"/>
        <polygon fill="#DCDDDE" points="232.247 71.675 232.247 71.514 135.255 71.514 133.255 71.514 129.255 71.514 127.255 71.514 32.263 71.514 32.263 71.675 32.263 71.675"/>
        <path fill="#FFFFFF" d="M221.2466,181.6748 L221.2466,83.6748 L43.2626,83.6748 L43.2626,128.6858 C47.9976,125.5568 53.6656,123.7288 59.7536,123.7288 C76.2956,123.7288 89.7536,137.1868 89.7536,153.7288 C89.7536,166.4308 81.8146,177.3058 70.6416,181.6748 L221.2466,181.6748 Z"/>
        <polygon fill="#FFFFFF" points="184.139 205.215 188.139 205.215 188.139 202.215 182.139 202.215 182.139 205.215"/>
        <path fill="#FFFFFF" d="M185.1392,207.2148 L185.1392,210.2148 C185.1392,211.3188 186.0352,212.2148 187.1392,212.2148 L189.1392,212.2148 C190.2432,212.2148 191.1392,211.3188 191.1392,210.2148 L191.1392,207.2148 L185.1392,207.2148 Z"/>
        <polygon fill="#DCDDDE" points="86.155 202.215 86.155 205.215 90.155 205.215 102.254 205.215 120.254 205.215 125.612 205.215 135.783 205.215 152.246 205.215 162.246 205.215 180.139 205.215 180.139 202.215"/>
        <path fill="#FFFFFF" d="M91.1553,212.2148 L103.2543,212.2148 L121.2543,212.2148 L151.2463,212.2148 L161.2463,212.2148 L181.1393,212.2148 C182.2433,212.2148 183.1393,211.3188 183.1393,210.2148 L183.1393,207.2148 L161.2463,207.2148 L151.2463,207.2148 L135.7833,207.2148 L125.6123,207.2148 L121.2543,207.2148 L103.2543,207.2148 L91.1553,207.2148 L83.1553,207.2148 L83.1553,210.2148 C83.1553,211.3188 84.0513,212.2148 85.1553,212.2148 L91.1553,212.2148 Z"/>
        <path fill="#DCDDDE" d="M339.5771,38.3862 C341.2341,38.3862 342.5771,39.7292 342.5771,41.3862 L342.5771,83.3862 C342.5771,85.0432 341.2341,86.3862 339.5771,86.3862 L293.5771,86.3862 C291.9201,86.3862 290.5771,85.0432 290.5771,83.3862 L290.5771,41.3862 C290.5771,39.7292 291.9201,38.3862 293.5771,38.3862 L339.5771,38.3862 Z M331.5771,33.3862 L288.5771,33.3862 C286.9201,33.3862 285.5771,34.7292 285.5771,36.3862 L285.5771,88.3862 C285.5771,90.0432 286.9201,91.3862 288.5771,91.3862 L344.5771,91.3862 C346.2341,91.3862 347.5771,90.0432 347.5771,88.3862 L347.5771,36.3862 C347.5771,34.7292 346.2341,33.3862 344.5771,33.3862 L336.4441,33.3862 C335.8921,33.3862 335.4441,32.9382 335.4441,32.3862 L332.5771,32.3862 C332.5781,32.9382 332.1301,33.3862 331.5771,33.3862 L331.5771,33.3862 Z"/>
        <path fill="#F7F7F8" d="M312.9443,67.9194 C312.9443,65.4194 314.9783,63.3864 317.4773,63.3864 C319.9773,63.3864 322.0103,65.4194 322.0103,67.9194 L322.0103,70.3424 C322.0103,72.8414 319.9773,74.8754 317.4773,74.8754 C314.9783,74.8754 312.9443,72.8414 312.9443,70.3424 L312.9443,67.9194 Z M324.4443,66.9524 C324.4443,64.9854 326.0443,63.3864 328.0103,63.3864 C329.9773,63.3864 331.5773,64.9854 331.5773,66.9524 L331.5773,71.3094 C331.5773,73.2754 329.9773,74.8754 328.0103,74.8754 C326.0443,74.8754 324.4443,73.2754 324.4443,71.3094 L324.4443,66.9524 Z M298.5773,77.8754 C299.1293,77.8754 299.5773,78.3224 299.5773,78.8754 L299.5773,79.6254 C299.5773,80.1774 299.1293,80.6254 298.5773,80.6254 L298.5773,84.3864 L333.5773,84.3864 L333.5773,64.3864 C333.5773,55.0124 325.9513,47.3864 316.5773,47.3864 C307.2033,47.3864 299.5773,55.0124 299.5773,64.3864 L299.5773,75.2504 C299.5773,75.8024 299.1293,76.2504 298.5773,76.2504 L298.5773,77.8754 Z"/>
        <path fill="#FFFFFF" d="M328.0107 72.8755C328.8747 72.8755 329.5767 72.1725 329.5767 71.3095L329.5767 66.9525C329.5767 66.0885 328.8747 65.3865 328.0107 65.3865 327.1467 65.3865 326.4447 66.0885 326.4447 66.9525L326.4447 71.3095C326.4447 72.1725 327.1467 72.8755 328.0107 72.8755M317.4775 72.8755C318.8745 72.8755 320.0105 71.7395 320.0105 70.3425L320.0105 67.9195C320.0105 66.5225 318.8745 65.3865 317.4775 65.3865 316.0805 65.3865 314.9445 66.5225 314.9445 67.9195L314.9445 70.3425C314.9445 71.7395 316.0805 72.8755 317.4775 72.8755M182.6206 43.3306C174.5746 44.2746 171.6046 47.3086 170.9576 48.1016L170.9576 51.1196 174.8326 51.1196 182.6206 43.3306zM264.9575 42.3032C261.8035 43.0422 252.8985 44.9652 241.5055 46.0622L246.3895 51.1192 264.9575 51.1192 264.9575 42.3032z"/>
        <polygon fill="#DCDDDE" points="211.208 17.572 177.661 51.119 243.608 51.119"/>
        <polygon fill="#FFFFFF" points="28.863 162.822 18.989 153.708 18.989 162.822"/>
        <path fill="#FFFFFF" d="M18.9893 150.9854L30.9233 162.0014C30.1673 159.3714 29.7543 156.5984 29.7543 153.7284 29.7543 153.0954 29.7803 152.4684 29.8193 151.8444L21.5983 144.2564C19.9983 145.7354 18.9893 147.8434 18.9893 150.1894L18.9893 150.9854zM30.7134 142.1001L27.0774 142.1001C25.6954 142.1001 24.3944 142.4501 23.2554 143.0631L30.0754 149.3591C30.4404 146.8681 31.1124 144.4751 32.0524 142.2211 31.6154 142.1471 31.1704 142.1001 30.7134 142.1001"/>
        <path fill="#DCDDDE" d="M38.8022 209.8188C38.8022 208.6158 37.8232 207.6378 36.6212 207.6378L21.1702 207.6378C19.9682 207.6378 18.9892 208.6158 18.9892 209.8188 18.9892 211.0218 19.9682 211.9998 21.1702 211.9998L36.6212 211.9998C37.8232 211.9998 38.8022 211.0218 38.8022 209.8188M28.8955 170.1729C32.4545 170.1729 35.3495 173.0679 35.3495 176.6259 35.3495 180.1839 32.4545 183.0789 28.8955 183.0789 25.3375 183.0789 22.4425 180.1839 22.4425 176.6259 22.4425 173.0679 25.3375 170.1729 28.8955 170.1729M23.4425 190.9449L34.3495 190.9449C38.3085 190.9449 41.5285 187.7239 41.5285 183.7649L41.5285 177.5349C37.2685 174.2659 33.9105 169.8819 31.8885 164.8219L17.0805 164.8219C16.6295 164.8219 16.2625 165.1889 16.2625 165.6399L16.2625 183.7649C16.2625 187.7239 19.4835 190.9449 23.4425 190.9449M64.207 183.396C62.753 183.613 61.267 183.729 59.754 183.729 58.241 183.729 56.754 183.613 55.301 183.396L55.301 187.081 64.207 187.081 64.207 183.396z"/>
        <path fill="#F7F7F8" d="M59.7539,177.2285 C46.7959,177.2285 36.2539,166.6865 36.2539,153.7285 C36.2539,140.7705 46.7959,130.2285 59.7539,130.2285 C61.6949,130.2285 63.6259,130.4655 65.4919,130.9345 C66.0269,131.0685 66.3529,131.6125 66.2179,132.1475 C66.2149,132.1575 66.2089,132.1635 66.2059,132.1725 C67.5259,132.5665 68.7949,133.0815 70.0009,133.6995 C70.0059,133.6905 70.0049,133.6805 70.0099,133.6715 C70.2839,133.1905 70.8939,133.0225 71.3739,133.2975 C72.2379,133.7905 73.0819,134.3455 73.8809,134.9475 C74.3219,135.2795 74.4109,135.9065 74.0789,136.3475 C74.0739,136.3535 74.0659,136.3555 74.0609,136.3625 C74.6289,136.8315 75.1729,137.3275 75.6929,137.8495 C75.6989,137.8435 75.7009,137.8355 75.7069,137.8305 C76.1149,137.4585 76.7479,137.4875 77.1189,137.8955 C81.0749,142.2305 83.2539,147.8545 83.2539,153.7285 C83.2539,166.6865 72.7119,177.2285 59.7539,177.2285 M87.7539,153.7285 C87.7539,138.2895 75.1929,125.7285 59.7539,125.7285 C44.3149,125.7285 31.7539,138.2895 31.7539,153.7285 C31.7539,169.1675 44.3149,181.7285 59.7539,181.7285 C75.1929,181.7285 87.7539,169.1675 87.7539,153.7285"/>
        <path fill="#B9BBBE" d="M236.354 194.769C238.135 194.769 239.584 196.218 239.584 198 239.584 199.781 238.135 201.23 236.354 201.23 234.572 201.23 233.123 199.781 233.123 198 233.123 196.218 234.572 194.769 236.354 194.769M236.354 203.23C239.238 203.23 241.584 200.884 241.584 198 241.584 195.116 239.238 192.769 236.354 192.769 233.47 192.769 231.123 195.116 231.123 198 231.123 200.884 233.47 203.23 236.354 203.23M251.8667 194.769C253.6487 194.769 255.0977 196.218 255.0977 198 255.0977 199.781 253.6487 201.23 251.8667 201.23 250.0847 201.23 248.6357 199.781 248.6357 198 248.6357 196.218 250.0847 194.769 251.8667 194.769M251.8667 203.23C254.7507 203.23 257.0977 200.884 257.0977 198 257.0977 195.116 254.7507 192.769 251.8667 192.769 248.9827 192.769 246.6357 195.116 246.6357 198 246.6357 200.884 248.9827 203.23 251.8667 203.23M297.2427 129.5522C297.7947 129.5522 298.2427 129.1052 298.2427 128.5522 298.2427 128.0002 297.7947 127.5522 297.2427 127.5522 296.6907 127.5522 296.2427 128.0002 296.2427 128.5522 296.2427 129.1052 296.6907 129.5522 297.2427 129.5522M315.2427 154.5137L279.2427 154.5137C278.6907 154.5137 278.2427 154.0657 278.2427 153.5137L278.2427 133.5137C278.2427 132.9617 278.6907 132.5137 279.2427 132.5137L315.2427 132.5137C315.7947 132.5137 316.2427 132.9617 316.2427 133.5137L316.2427 153.5137C316.2427 154.0657 315.7947 154.5137 315.2427 154.5137M318.2427 155.5137L318.2427 131.5137C318.2427 130.9617 317.7947 130.5137 317.2427 130.5137L277.2427 130.5137C276.6907 130.5137 276.2427 130.9617 276.2427 131.5137L276.2427 155.5137C276.2427 156.0657 276.6907 156.5137 277.2427 156.5137L317.2427 156.5137C317.7947 156.5137 318.2427 156.0657 318.2427 155.5137M290.2129 195.8662L289.0459 195.8662C288.4939 195.8662 288.0459 196.3142 288.0459 196.8662 288.0459 197.4182 288.4939 197.8662 289.0459 197.8662L290.2129 197.8662C290.7649 197.8662 291.2129 197.4182 291.2129 196.8662 291.2129 196.3142 290.7649 195.8662 290.2129 195.8662M268.8535 173.0371C268.8535 171.6591 269.9755 170.5371 271.3535 170.5371 272.7315 170.5371 273.8535 171.6591 273.8535 173.0371 273.8535 174.4151 272.7315 175.5371 271.3535 175.5371 269.9755 175.5371 268.8535 174.4151 268.8535 173.0371M275.8535 173.0371C275.8535 170.5561 273.8345 168.5371 271.3535 168.5371 268.8725 168.5371 266.8535 170.5561 266.8535 173.0371 266.8535 175.5181 268.8725 177.5371 271.3535 177.5371 273.8345 177.5371 275.8535 175.5181 275.8535 173.0371M276.3193 183.1128L276.3193 183.1128C275.2153 183.1128 274.3193 182.2168 274.3193 181.1128 274.3193 180.5608 273.8723 180.1128 273.3193 180.1128L272.3193 180.1128C271.7673 180.1128 271.3193 180.5608 271.3193 181.1128 271.3193 182.2168 270.4243 183.1128 269.3193 183.1128L269.3193 183.1128C268.7673 183.1128 268.3193 183.5608 268.3193 184.1128L268.3193 185.1128C268.3193 185.6648 268.7673 186.1128 269.3193 186.1128L269.3193 186.1128C270.4243 186.1128 271.3193 187.0088 271.3193 188.1128 271.3193 188.6648 271.7673 189.1128 272.3193 189.1128L273.3193 189.1128C273.8723 189.1128 274.3193 188.6648 274.3193 188.1128 274.3193 187.0088 275.2153 186.1128 276.3193 186.1128 276.8723 186.1128 277.3193 185.6648 277.3193 185.1128L277.3193 184.1128C277.3193 183.5608 276.8723 183.1128 276.3193 183.1128M322.3604 174.6553C323.4644 174.6553 324.3604 173.7593 324.3604 172.6553 324.3604 171.5513 323.4644 170.6553 322.3604 170.6553 321.2554 170.6553 320.3604 171.5513 320.3604 172.6553 320.3604 173.7593 321.2554 174.6553 322.3604 174.6553M322.3604 177.6553C321.2554 177.6553 320.3604 178.5513 320.3604 179.6553 320.3604 180.7593 321.2554 181.6553 322.3604 181.6553 323.4644 181.6553 324.3604 180.7593 324.3604 179.6553 324.3604 178.5513 323.4644 177.6553 322.3604 177.6553M325.8604 178.1553C326.9644 178.1553 327.8604 177.2593 327.8604 176.1553 327.8604 175.0513 326.9644 174.1553 325.8604 174.1553 324.7554 174.1553 323.8604 175.0513 323.8604 176.1553 323.8604 177.2593 324.7554 178.1553 325.8604 178.1553M318.8604 178.1553C319.9644 178.1553 320.8604 177.2593 320.8604 176.1553 320.8604 175.0513 319.9644 174.1553 318.8604 174.1553 317.7554 174.1553 316.8604 175.0513 316.8604 176.1553 316.8604 177.2593 317.7554 178.1553 318.8604 178.1553M311.2427 189.5127L283.2427 189.5127C282.1387 189.5127 281.2427 188.6177 281.2427 187.5127L281.2427 169.5137C281.2427 168.9617 281.6907 168.5137 282.2427 168.5137L312.2427 168.5137C312.7947 168.5137 313.2427 168.9617 313.2427 169.5137L313.2427 187.5127C313.2427 188.6177 312.3467 189.5127 311.2427 189.5127M315.2427 191.5137L315.2427 167.5137C315.2427 166.9617 314.7947 166.5137 314.2427 166.5137L280.2427 166.5137C279.6907 166.5137 279.2427 166.9617 279.2427 167.5137L279.2427 191.5137C279.2427 192.0657 279.6907 192.5137 280.2427 192.5137L314.2427 192.5137C314.7947 192.5137 315.2427 192.0657 315.2427 191.5137M366.7412 212L364.9762 212C364.4242 212 363.9762 212.448 363.9762 213 363.9762 213.552 364.4242 214 364.9762 214L366.7412 214C367.2932 214 367.7412 213.552 367.7412 213 367.7412 212.448 367.2932 212 366.7412 212M131.2544 61.9683C129.7974 61.9683 128.6114 60.7823 128.6114 59.3253 128.6114 57.8683 129.7974 56.6823 131.2544 56.6823 132.7124 56.6823 133.8974 57.8683 133.8974 59.3253 133.8974 60.7823 132.7124 61.9683 131.2544 61.9683M131.2544 54.6823C128.6944 54.6823 126.6114 56.7653 126.6114 59.3253 126.6114 61.8853 128.6944 63.9683 131.2544 63.9683 133.8144 63.9683 135.8974 61.8853 135.8974 59.3253 135.8974 56.7653 133.8144 54.6823 131.2544 54.6823M286.5771 93.3862L346.5771 93.3862C348.2341 93.3862 349.5771 92.0432 349.5771 90.3862L349.5771 34.3862C349.5771 32.7292 348.2341 31.3862 346.5771 31.3862L336.4441 31.3862C335.8921 31.3862 335.4441 31.8342 335.4441 32.3862 335.4441 32.9382 335.8921 33.3862 336.4441 33.3862L344.5771 33.3862C346.2341 33.3862 347.5771 34.7292 347.5771 36.3862L347.5771 88.3862C347.5771 90.0432 346.2341 91.3862 344.5771 91.3862L288.5771 91.3862C286.9201 91.3862 285.5771 90.0432 285.5771 88.3862L285.5771 36.3862C285.5771 34.7292 286.9201 33.3862 288.5771 33.3862L331.5771 33.3862C332.1301 33.3862 332.5771 32.9382 332.5771 32.3862 332.5771 31.8342 332.1301 31.3862 331.5771 31.3862L286.5771 31.3862C284.9201 31.3862 283.5771 32.7292 283.5771 34.3862L283.5771 90.3862C283.5771 92.0432 284.9201 93.3862 286.5771 93.3862"/>
        <path fill="#B9BBBE" d="M295.5771,40.3862 L337.5771,40.3862 C339.2341,40.3862 340.5771,41.7292 340.5771,43.3862 L340.5771,72.3792 C340.5771,74.0362 339.2341,75.3792 337.5771,75.3792 C336.4731,75.3792 335.5771,74.4842 335.5771,73.3792 L335.5771,64.8532 C335.5771,54.5642 327.5921,45.7892 317.3101,45.4002 C306.5011,44.9912 297.5771,53.6662 297.5771,64.3862 L297.5771,75.2502 C297.5771,75.8022 298.0251,76.2502 298.5771,76.2502 C299.1291,76.2502 299.5771,75.8022 299.5771,75.2502 L299.5771,64.8362 C299.5771,55.3272 307.3581,47.2292 316.8661,47.3882 C326.1071,47.5432 333.5771,55.1092 333.5771,64.3862 L333.5771,80.3862 C333.5771,82.5952 331.7861,84.3862 329.5771,84.3862 L298.5771,84.3862 L295.5771,84.3862 C293.9201,84.3862 292.5771,83.0432 292.5771,81.3862 L292.5771,43.3862 C292.5771,41.7292 293.9201,40.3862 295.5771,40.3862 M290.5771,41.3862 L290.5771,83.3862 C290.5771,85.0432 291.9201,86.3862 293.5771,86.3862 L339.5771,86.3862 C341.2341,86.3862 342.5771,85.0432 342.5771,83.3862 L342.5771,41.3862 C342.5771,39.7292 341.2341,38.3862 339.5771,38.3862 L293.5771,38.3862 C291.9201,38.3862 290.5771,39.7292 290.5771,41.3862"/>
        <path fill="#B9BBBE" d="M299.5771 79.6255L299.5771 78.8755C299.5771 78.3225 299.1291 77.8755 298.5771 77.8755 298.0251 77.8755 297.5771 78.3225 297.5771 78.8755L297.5771 79.6255C297.5771 80.1775 298.0251 80.6255 298.5771 80.6255 299.1291 80.6255 299.5771 80.1775 299.5771 79.6255M326.4443 66.9521C326.4443 66.0891 327.1473 65.3861 328.0103 65.3861 328.8743 65.3861 329.5773 66.0891 329.5773 66.9521L329.5773 71.3091C329.5773 72.1731 328.8743 72.8751 328.0103 72.8751 327.1473 72.8751 326.4443 72.1731 326.4443 71.3091L326.4443 66.9521zM328.0103 74.8751C329.9773 74.8751 331.5773 73.2751 331.5773 71.3091L331.5773 66.9521C331.5773 64.9861 329.9773 63.3861 328.0103 63.3861 326.0443 63.3861 324.4443 64.9861 324.4443 66.9521L324.4443 71.3091C324.4443 73.2751 326.0443 74.8751 328.0103 74.8751L328.0103 74.8751zM314.9443 67.9194C314.9443 66.5224 316.0803 65.3864 317.4773 65.3864 318.8743 65.3864 320.0103 66.5224 320.0103 67.9194L320.0103 70.3424C320.0103 71.7394 318.8743 72.8754 317.4773 72.8754 316.0803 72.8754 314.9443 71.7394 314.9443 70.3424L314.9443 67.9194zM317.4773 74.8754C319.9773 74.8754 322.0103 72.8414 322.0103 70.3424L322.0103 67.9194C322.0103 65.4194 319.9773 63.3864 317.4773 63.3864 314.9783 63.3864 312.9443 65.4194 312.9443 67.9194L312.9443 70.3424C312.9443 72.8414 314.9783 74.8754 317.4773 74.8754L317.4773 74.8754zM162.9575 60.1191L182.3595 60.1191C182.9125 60.1191 183.3595 59.6711 183.3595 59.1191 183.3595 58.5671 182.9125 58.1191 182.3595 58.1191L167.9575 58.1191C165.7485 58.1191 163.9575 56.3281 163.9575 54.1191L163.9575 6.1201C163.9575 3.9111 165.7485 2.1201 167.9575 2.1201L267.9575 2.1201C270.1665 2.1201 271.9575 3.9111 271.9575 6.1201L271.9575 54.1191C271.9575 56.3281 270.1665 58.1191 267.9575 58.1191L195.7345 58.1191C195.1825 58.1191 194.7345 58.5671 194.7345 59.1191 194.7345 59.6711 195.1825 60.1191 195.7345 60.1191L272.9575 60.1191C273.5095 60.1191 273.9575 59.6711 273.9575 59.1191L273.9575 1.1201C273.9575.5681 273.5095.1201 272.9575.1201L162.9575.1201C162.4055.1201 161.9575.5681 161.9575 1.1201L161.9575 59.1191C161.9575 59.6711 162.4055 60.1191 162.9575 60.1191"/>
        <path fill="#B9BBBE" d="M189.9844 58.1191C189.4324 58.1191 188.9844 58.5671 188.9844 59.1191 188.9844 59.6711 189.4324 60.1191 189.9844 60.1191L192.1724 60.1191C192.7244 60.1191 193.1724 59.6711 193.1724 59.1191 193.1724 58.5671 192.7244 58.1191 192.1724 58.1191L189.9844 58.1191zM233.5391 24.9746C232.9581 25.0826 232.3751 25.1966 231.7891 25.3136 230.6681 25.5366 229.5281 25.8216 228.3061 26.1826 227.7761 26.3396 227.4741 26.8956 227.6301 27.4256 227.7591 27.8606 228.1571 28.1416 228.5891 28.1416 228.6831 28.1416 228.7781 28.1286 228.8731 28.1006 230.0371 27.7566 231.1191 27.4866 232.1801 27.2746 232.7581 27.1596 233.3331 27.0476 233.9061 26.9406 234.4491 26.8386 234.8071 26.3166 234.7061 25.7736 234.6041 25.2306 234.0791 24.8716 233.5391 24.9746"/>
        <path fill="#B9BBBE" d="M264.9575 19.3833C252.5865 15.4213 237.9315 17.3883 223.9785 20.8003 220.5325 21.6423 216.8985 20.5843 214.4335 18.0313L211.9395 15.4503C211.7535 15.2573 211.4975 15.1473 211.2295 15.1453 210.9265 15.1143 210.7035 15.2483 210.5135 15.4383L203.6135 22.3383C199.8375 26.1133 194.5015 27.9173 189.2175 27.1563 179.7325 25.7913 172.6735 21.3983 170.9575 20.2473L170.9575 11.1203C170.9575 10.0163 171.8535 9.1203 172.9575 9.1203L262.9575 9.1203C264.0615 9.1203 264.9575 10.0163 264.9575 11.1203L264.9575 19.3833zM264.9575 30.9323C254.8825 23.1263 245.6775 23.1253 237.2075 24.3583 236.6615 24.4373 236.2825 24.9453 236.3625 25.4913 236.4415 26.0383 236.9535 26.4133 237.4965 26.3373 245.2795 25.2043 253.7085 25.1663 262.8795 31.8733 264.2035 32.8413 264.9575 34.4073 264.9575 36.0473 264.9575 38.5503 263.1825 40.6813 260.7285 41.1793 257.5155 41.8323 252.9095 42.1893 247.4165 42.6073 242.5185 42.9803 237.6925 41.2173 234.1925 37.7713L220.0685 23.8673C232.7915 20.4783 246.3555 17.9313 258.2455 19.8473 262.1175 20.4713 264.9575 23.8273 264.9575 27.7493L264.9575 30.9323zM262.9575 51.1193L250.2095 51.1193C247.7685 51.1193 245.4315 50.1273 243.7355 48.3713L241.5055 46.0623C250.7235 45.1753 258.3135 43.7463 262.5455 42.8423 263.7905 42.5763 264.9575 43.5263 264.9575 44.7993L264.9575 49.1193C264.9575 50.2233 264.0615 51.1193 262.9575 51.1193L262.9575 51.1193zM179.3675 49.4123L206.8915 21.8883C209.2635 19.5163 213.1195 19.5503 215.4495 21.9633L241.9725 49.4243C242.5845 50.0593 242.1355 51.1193 241.2525 51.1193L180.0745 51.1193C179.1845 51.1193 178.7375 50.0423 179.3675 49.4123L179.3675 49.4123zM170.9575 49.1193L170.9575 49.1193C170.9575 48.3993 171.2635 47.7153 171.8105 47.2473 173.2455 46.0193 176.4305 44.0563 182.6205 43.3303L175.5575 50.3943C175.0935 50.8583 174.4635 51.1193 173.8075 51.1193L172.9575 51.1193C171.8535 51.1193 170.9575 50.2233 170.9575 49.1193L170.9575 49.1193zM170.9575 26.0763C170.9575 24.5813 172.5415 23.6043 173.8675 24.2953 178.3355 26.6253 185.7785 29.5993 194.6605 29.5993 195.2315 29.5993 195.8115 29.5823 196.3945 29.5563L194.7855 31.1663C192.0335 33.9173 188.1105 35.2033 184.2815 34.5093 180.4115 33.8093 177.2915 32.9043 174.9555 32.0793 174.4355 31.8943 173.8625 32.1673 173.6795 32.6883 173.4955 33.2093 173.7685 33.7803 174.2885 33.9653 177.6135 35.1403 182.4695 36.4703 188.7615 37.1903L184.8325 41.1183C179.7535 41.4053 176.2155 42.4543 173.8005 43.6063 172.4785 44.2373 170.9575 43.2613 170.9575 41.7963L170.9575 26.0763zM266.9575 52.1193L266.9575 8.1203C266.9575 7.5683 266.5095 7.1203 265.9575 7.1203L169.9575 7.1203C169.4055 7.1203 168.9575 7.5683 168.9575 8.1203L168.9575 52.1193C168.9575 52.6713 169.4055 53.1193 169.9575 53.1193L265.9575 53.1193C266.5095 53.1193 266.9575 52.6713 266.9575 52.1193L266.9575 52.1193zM11.3291 105.9937L11.8391 105.9937C12.3911 105.9937 12.8391 106.4417 12.8391 106.9937L12.8391 107.5037C12.8391 108.0557 13.2871 108.5037 13.8391 108.5037 14.3921 108.5037 14.8391 108.0557 14.8391 107.5037L14.8391 106.9937C14.8391 106.4407 15.2871 105.9937 15.8391 105.9937L16.3491 105.9937C16.9011 105.9937 17.3491 105.5457 17.3491 104.9937 17.3491 104.4407 16.9011 103.9937 16.3491 103.9937L15.8391 103.9937C15.2871 103.9937 14.8391 103.5457 14.8391 102.9937L14.8391 102.4837C14.8391 101.9317 14.3921 101.4837 13.8391 101.4837 13.2871 101.4837 12.8391 101.9317 12.8391 102.4837L12.8391 102.9937C12.8391 103.5457 12.3911 103.9937 11.8391 103.9937L11.3291 103.9937C10.7771 103.9937 10.3291 104.4417 10.3291 104.9937 10.3291 105.5457 10.7771 105.9937 11.3291 105.9937M91.813 8.1187L93.323 8.1187 93.323 9.6287C93.323 10.1817 93.771 10.6287 94.323 10.6287 94.875 10.6287 95.323 10.1817 95.323 9.6287L95.323 8.1187 96.833 8.1187C97.385 8.1187 97.833 7.6707 97.833 7.1187 97.833 6.5667 97.385 6.1187 96.833 6.1187L95.323 6.1187 95.323 4.6087C95.323 4.0567 94.875 3.6087 94.323 3.6087 93.771 3.6087 93.323 4.0567 93.323 4.6087L93.323 6.1187 91.813 6.1187C91.261 6.1187 90.813 6.5667 90.813 7.1187 90.813 7.6707 91.261 8.1187 91.813 8.1187M64.5059 37.0132C64.7619 37.0132 65.0179 36.9152 65.2129 36.7202L66.3959 35.5372C66.7869 35.1462 66.7869 34.5132 66.3959 34.1232 66.0059 33.7322 65.3729 33.7322 64.9819 34.1232L63.7989 35.3062C63.4079 35.6972 63.4079 36.3292 63.7989 36.7202 63.9939 36.9152 64.2499 37.0132 64.5059 37.0132M58.5898 42.9292C58.8458 42.9292 59.1018 42.8312 59.2968 42.6362L60.4798 41.4532C60.8708 41.0622 60.8708 40.4292 60.4798 40.0392 60.0898 39.6482 59.4568 39.6482 59.0658 40.0392L57.8828 41.2222C57.4918 41.6132 57.4918 42.2452 57.8828 42.6362 58.0778 42.8312 58.3338 42.9292 58.5898 42.9292M64.9819 42.6362C65.1769 42.8312 65.4329 42.9292 65.6889 42.9292 65.9449 42.9292 66.2009 42.8312 66.3959 42.6362 66.7869 42.2452 66.7869 41.6132 66.3959 41.2222L65.2129 40.0392C64.8219 39.6482 64.1899 39.6482 63.7989 40.0392 63.4079 40.4292 63.4079 41.0622 63.7989 41.4532L64.9819 42.6362zM59.0659 36.7202C59.2609 36.9152 59.5169 37.0132 59.7729 37.0132 60.0289 37.0132 60.2849 36.9152 60.4799 36.7202 60.8709 36.3292 60.8709 35.6972 60.4799 35.3062L59.2969 34.1232C58.9059 33.7322 58.2739 33.7322 57.8829 34.1232 57.4919 34.5132 57.4919 35.1462 57.8829 35.5372L59.0659 36.7202zM268.5679 93.6353C268.1769 93.2443 267.5439 93.2443 267.1539 93.6353L265.9709 94.8193C265.5799 95.2093 265.5799 95.8433 265.9709 96.2333 266.1659 96.4283 266.4219 96.5263 266.6779 96.5263 266.9339 96.5263 267.1899 96.4283 267.3849 96.2333L268.5679 95.0493C268.9589 94.6583 268.9589 94.0253 268.5679 93.6353M261.2378 99.5518L260.0548 100.7348C259.6638 101.1258 259.6638 101.7588 260.0548 102.1488 260.2498 102.3438 260.5058 102.4418 260.7618 102.4418 261.0178 102.4418 261.2738 102.3438 261.4688 102.1488L262.6518 100.9658C263.0428 100.5748 263.0428 99.9428 262.6518 99.5518 262.2608 99.1608 261.6288 99.1608 261.2378 99.5518M267.3848 99.5518C266.9938 99.1608 266.3618 99.1608 265.9708 99.5518 265.5798 99.9428 265.5798 100.5748 265.9708 100.9658L267.1538 102.1488C267.3488 102.3438 267.6048 102.4418 267.8608 102.4418 268.1168 102.4418 268.3728 102.3438 268.5678 102.1488 268.9588 101.7588 268.9588 101.1258 268.5678 100.7348L267.3848 99.5518zM262.6519 94.8188L261.4689 93.6348C261.0779 93.2448 260.4449 93.2448 260.0549 93.6348 259.6639 94.0258 259.6639 94.6588 260.0549 95.0488L261.2379 96.2328C261.4329 96.4278 261.6889 96.5258 261.9449 96.5258 262.2009 96.5258 262.4569 96.4278 262.6519 96.2328 263.0429 95.8428 263.0429 95.2098 262.6519 94.8188M118.8481 24.0991C119.6811 24.0991 120.3581 24.7761 120.3581 25.6091 120.3581 26.4411 119.6811 27.1191 118.8481 27.1191 118.0151 27.1191 117.3381 26.4411 117.3381 25.6091 117.3381 24.7761 118.0151 24.0991 118.8481 24.0991M118.8481 29.1191C120.7841 29.1191 122.3581 27.5441 122.3581 25.6091 122.3581 23.6741 120.7841 22.0991 118.8481 22.0991 116.9131 22.0991 115.3381 23.6741 115.3381 25.6091 115.3381 27.5441 116.9131 29.1191 118.8481 29.1191M28.8955 172.1729C31.3515 172.1729 33.3495 174.1709 33.3495 176.6259 33.3495 179.0819 31.3515 181.0789 28.8955 181.0789 26.4395 181.0789 24.4425 179.0819 24.4425 176.6259 24.4425 174.1709 26.4395 172.1729 28.8955 172.1729M28.8955 183.0789C32.4545 183.0789 35.3495 180.1839 35.3495 176.6259 35.3495 173.0679 32.4545 170.1729 28.8955 170.1729 25.3375 170.1729 22.4425 173.0679 22.4425 176.6259 22.4425 180.1839 25.3375 183.0789 28.8955 183.0789M59.7539 177.2285C72.7119 177.2285 83.2539 166.6865 83.2539 153.7285 83.2539 147.8545 81.0749 142.2305 77.1189 137.8955 76.7479 137.4875 76.1149 137.4585 75.7069 137.8305 75.7009 137.8355 75.6989 137.8435 75.6929 137.8495 75.3009 138.2235 75.2749 138.8405 75.6419 139.2425 79.2609 143.2095 81.2539 148.3535 81.2539 153.7285 81.2539 165.5835 71.6089 175.2285 59.7539 175.2285 47.8989 175.2285 38.2539 165.5835 38.2539 153.7285 38.2539 141.8735 47.8989 132.2285 59.7539 132.2285 61.5309 132.2285 63.2979 132.4455 65.0039 132.8745 65.5299 133.0035 66.0599 132.6915 66.2059 132.1725 66.2089 132.1635 66.2149 132.1575 66.2179 132.1475 66.3529 131.6125 66.0269 131.0685 65.4919 130.9345 63.6259 130.4655 61.6949 130.2285 59.7539 130.2285 46.7959 130.2285 36.2539 140.7705 36.2539 153.7285 36.2539 166.6865 46.7959 177.2285 59.7539 177.2285"/>
        <path fill="#B9BBBE" d="M70.3838,135.0352 C71.1748,135.4862 71.9458,135.9942 72.6778,136.5452 C72.8588,136.6812 73.0698,136.7462 73.2788,136.7462 C73.5748,136.7462 73.8638,136.6112 74.0608,136.3622 C74.0658,136.3562 74.0738,136.3542 74.0788,136.3472 C74.4108,135.9062 74.3218,135.2792 73.8818,134.9472 C73.0818,134.3452 72.2378,133.7902 71.3738,133.2982 C70.8938,133.0222 70.2838,133.1912 70.0098,133.6712 C70.0048,133.6802 70.0058,133.6902 70.0008,133.6992 C69.7488,134.1752 69.9128,134.7662 70.3838,135.0352"/>
        <path fill="#B9BBBE" d="M310.0181,211 L310.0181,207.115 C310.0181,206.563 309.5701,206.115 309.0181,206.115 L303.6221,206.115 C302.3081,206.115 301.2431,205.05 301.2431,203.735 L301.2431,203.735 C301.2431,202.42 302.3081,201.355 303.6221,201.355 L321.8601,201.355 L321.8601,207 C321.8601,208.286 322.2091,209.49 322.8181,210.526 C323.2011,211.179 322.6971,212 321.9391,212 L311.0181,212 C310.4661,212 310.0181,211.552 310.0181,211 L310.0181,211 Z M286.4671,211.785 L308.0181,211.785 L308.0181,208.116 L286.4671,208.116 L286.4671,211.785 Z M284.4671,207.115 L284.4671,211 C284.4671,211.552 284.0191,212 283.4671,212 L271.5981,212 L271.5981,201.355 L290.8631,201.355 C292.1771,201.355 293.2431,202.42 293.2431,203.735 L293.2431,203.735 C293.2431,205.05 292.1771,206.115 290.8631,206.115 L285.4671,206.115 C284.9151,206.115 284.4671,206.563 284.4671,207.115 L284.4671,207.115 Z M299.2431,202.355 L299.2431,205.115 C299.2431,205.667 298.7951,206.115 298.2431,206.115 L296.2431,206.115 C295.6901,206.115 295.2431,205.667 295.2431,205.115 L295.2431,202.355 C295.2431,201.803 295.6901,201.355 296.2431,201.355 L298.2431,201.355 C298.7951,201.355 299.2431,201.803 299.2431,202.355 L299.2431,202.355 Z M268.4581,199.355 C266.8531,199.355 265.5111,198.222 265.1791,196.715 C266.0891,197.425 267.2181,197.866 268.4581,197.866 L284.3801,197.866 C284.9321,197.866 285.3801,197.418 285.3801,196.866 C285.3801,196.314 284.9321,195.866 284.3801,195.866 L268.4581,195.866 C266.6021,195.866 265.0971,194.361 265.0971,192.505 L265.0971,168.465 L265.0971,166.514 C265.0971,165.409 265.9931,164.514 267.0971,164.514 L327.3881,164.514 C328.4931,164.514 329.3881,165.409 329.3881,166.514 L329.3881,168.465 L329.3881,182 C329.3881,183.104 328.4931,184 327.3881,184 L322.8601,184 C322.3081,184 321.8601,184.448 321.8601,185 L321.8601,195.866 L298.2431,195.866 C297.6911,195.866 297.2431,196.314 297.2431,196.866 C297.2431,197.418 297.6911,197.866 298.2431,197.866 L321.8601,197.866 L321.8601,199.355 L268.4581,199.355 Z M267.5981,212 L205.6101,212 C204.5061,212 203.6101,211.104 203.6101,210 L203.6101,195.675 C203.6101,194.57 204.5061,193.675 205.6101,193.675 C206.7151,193.675 207.6101,194.57 207.6101,195.675 L207.6101,207 C207.6101,207.552 208.0581,208 208.6101,208 L264.5981,208 C265.1501,208 265.5981,207.552 265.5981,207 L265.5981,203.3 C265.5981,202.078 266.6781,201.192 267.8931,201.324 C268.0791,201.345 268.2681,201.355 268.4581,201.355 L269.5981,201.355 L269.5981,210 C269.5981,211.104 268.7031,212 267.5981,212 L267.5981,212 Z M201.6101,212 L195.1391,212 C194.0351,212 193.1391,211.104 193.1391,210 L193.1391,206.215 C193.1391,205.663 192.6911,205.215 192.1391,205.215 L190.1391,205.215 L190.1391,201.215 C190.1391,200.663 189.6911,200.215 189.1391,200.215 L181.1391,200.215 L156.7941,200.215 C154.2871,200.215 152.2541,198.182 152.2541,195.675 L152.2541,194.675 C152.2541,194.123 152.7021,193.675 153.2541,193.675 L201.6101,193.675 L201.6101,212 Z M189.1391,212.215 L187.1391,212.215 C186.0351,212.215 185.1391,211.319 185.1391,210.215 L185.1391,207.215 L191.1391,207.215 L191.1391,210.215 C191.1391,211.319 190.2441,212.215 189.1391,212.215 L189.1391,212.215 Z M182.1391,205.215 L182.1391,204.215 C182.1391,203.11 183.0351,202.215 184.1391,202.215 L186.1391,202.215 C187.2441,202.215 188.1391,203.11 188.1391,204.215 L188.1391,205.215 L184.1391,205.215 L182.1391,205.215 Z M181.1391,212.215 L85.1551,212.215 C84.0511,212.215 83.1551,211.319 83.1551,210.215 L83.1551,207.215 L183.1391,207.215 L183.1391,210.215 C183.1391,211.319 182.2441,212.215 181.1391,212.215 L181.1391,212.215 Z M81.1551,206.215 L81.1551,210 C81.1551,211.104 80.2601,212 79.1551,212 L42.9451,212 C41.9831,212 41.1581,211.316 40.9791,210.372 L40.7671,209.248 C40.3711,207.154 38.5411,205.638 36.4111,205.638 L36.4101,205.638 C35.3221,205.638 34.4401,204.756 34.4401,203.667 L34.4401,200.485 L50.6651,200.485 C54.8381,200.485 58.4191,197.935 59.9511,194.314 C60.1121,193.934 60.4681,193.675 60.8801,193.675 L114.2541,193.675 C114.8071,193.675 115.2541,194.123 115.2541,194.675 L115.2541,195.675 C115.2541,198.182 113.2221,200.215 110.7141,200.215 L85.1551,200.215 C84.6031,200.215 84.1551,200.663 84.1551,201.215 L84.1551,205.215 L82.1551,205.215 C81.6031,205.215 81.1551,205.663 81.1551,206.215 L81.1551,206.215 Z M36.6211,212 L21.1701,212 C19.9681,212 18.9891,211.021 18.9891,209.819 C18.9891,208.616 19.9681,207.638 21.1701,207.638 L36.6211,207.638 C37.8241,207.638 38.8021,208.616 38.8021,209.819 C38.8021,211.021 37.8241,212 36.6211,212 L36.6211,212 Z M32.4401,200.485 L32.4401,203.325 C32.4401,204.43 31.5441,205.325 30.4401,205.325 L27.3511,205.325 C26.2471,205.325 25.3511,204.43 25.3511,203.325 L25.3511,200.485 L32.4401,200.485 Z M25.3511,198.486 L32.4401,198.486 L32.4401,192.945 L25.3511,192.945 L25.3511,198.486 Z M16.2631,183.765 L16.2631,165.64 C16.2631,165.188 16.6291,164.822 17.0801,164.822 L31.8891,164.822 C33.9111,169.882 37.2681,174.266 41.5291,177.535 L41.5291,183.765 C41.5291,187.724 38.3081,190.945 34.3491,190.945 L23.4421,190.945 C19.4831,190.945 16.2631,187.724 16.2631,183.765 L16.2631,183.765 Z M20.6671,155.256 L26.9841,161.087 C27.6531,161.705 27.2161,162.822 26.3061,162.822 L20.9891,162.822 C19.8851,162.822 18.9891,161.926 18.9891,160.822 L18.9891,155.991 C18.9891,155.12 20.0271,154.665 20.6671,155.256 L20.6671,155.256 Z M20.0901,146.129 C20.7301,145.038 22.2331,144.842 23.1621,145.7 L28.3411,150.48 C29.2421,151.312 29.7541,152.483 29.7541,153.709 L29.7541,153.729 C29.7541,155.497 29.9111,157.229 30.2081,158.914 C30.3741,159.852 29.2501,160.458 28.5501,159.811 L20.1431,152.05 C19.4051,151.37 19.0521,150.365 19.2151,149.374 C19.4021,148.234 19.7001,146.796 20.0901,146.129 L20.0901,146.129 Z M27.0781,142.1 L30.7131,142.1 C31.1701,142.1 31.6161,142.147 32.0531,142.221 C31.3371,143.937 30.7761,145.735 30.3891,147.595 C30.2301,148.354 29.3081,148.651 28.7381,148.125 L24.4081,144.127 C23.8381,143.603 24.0531,142.648 24.7951,142.429 C25.5191,142.215 26.2851,142.1 27.0781,142.1 L27.0781,142.1 Z M59.7541,125.729 C75.1931,125.729 87.7541,138.289 87.7541,153.729 C87.7541,169.168 75.1931,181.729 59.7541,181.729 C44.3141,181.729 31.7541,169.168 31.7541,153.729 C31.7541,138.289 44.3141,125.729 59.7541,125.729 L59.7541,125.729 Z M74.5371,179.817 C84.3021,174.264 90.6661,163.395 89.6471,151.171 C88.4111,136.334 76.1671,124.519 61.2981,123.768 C55.8411,123.492 50.6811,124.687 46.1731,126.988 C44.8401,127.668 43.2631,126.712 43.2631,125.215 L43.2631,87.675 C43.2631,85.466 45.0541,83.675 47.2631,83.675 L217.2471,83.675 C219.4551,83.675 221.2471,85.466 221.2471,87.675 L221.2471,177.675 C221.2471,179.884 219.4551,181.675 217.2471,181.675 L75.0451,181.675 C74.0281,181.675 73.6531,180.32 74.5371,179.817 L74.5371,179.817 Z M55.3011,185.081 L55.3011,183.396 C56.7541,183.613 58.2411,183.729 59.7541,183.729 C61.2671,183.729 62.7531,183.613 64.2071,183.396 L64.2071,185.081 C64.2071,186.186 63.3111,187.081 62.2071,187.081 L57.3011,187.081 C56.1961,187.081 55.3011,186.186 55.3011,185.081 L55.3011,185.081 Z M58.0531,193.675 C56.7921,196.505 53.9581,198.485 50.6651,198.485 L34.4401,198.485 L34.4401,196.675 C34.4401,195.018 35.7831,193.675 37.4401,193.675 L58.0531,193.675 Z M38.9851,191.675 C39.0741,191.622 39.1631,191.569 39.2501,191.514 C41.8161,189.884 43.5291,187.024 43.5291,183.765 L43.5291,183.675 L53.3011,183.675 L53.3011,187.172 C53.3011,188.227 54.1551,189.081 55.2091,189.081 L58.7541,189.081 C58.7541,189.081 58.7181,189.979 58.6861,190.719 C58.6641,191.254 58.2231,191.675 57.6871,191.675 L38.9851,191.675 Z M180.1391,204.215 L180.1391,205.215 L86.1551,205.215 L86.1551,204.215 C86.1551,203.11 87.0511,202.215 88.1551,202.215 L178.1391,202.215 C179.2441,202.215 180.1391,203.11 180.1391,204.215 L180.1391,204.215 Z M148.2541,200.215 L119.2541,200.215 C118.1501,200.215 117.2541,199.319 117.2541,198.215 L117.2541,195.675 C117.2541,194.57 118.1501,193.675 119.2541,193.675 L148.2541,193.675 C149.3591,193.675 150.2541,194.57 150.2541,195.675 L150.2541,198.215 C150.2541,199.319 149.3591,200.215 148.2541,200.215 L148.2541,200.215 Z M60.7541,189.081 L64.2981,189.081 C65.3521,189.081 66.2071,188.227 66.2071,187.172 L66.2071,183.675 L219.2471,183.675 C221.4551,183.675 223.2471,181.884 223.2471,179.675 L223.2471,85.675 C223.2471,83.466 221.4551,81.675 219.2471,81.675 L45.2631,81.675 C43.0541,81.675 41.2631,83.466 41.2631,85.675 L41.2631,129.187 C41.2631,129.785 40.9881,130.342 40.5291,130.726 C38.4561,132.46 36.6211,134.468 35.0781,136.694 C34.5201,137.5 33.2631,137.109 33.2631,136.129 L33.2631,75.675 C33.2631,74.57 34.1581,73.675 35.2631,73.675 L229.2471,73.675 C230.3511,73.675 231.2471,74.57 231.2471,75.675 L231.2471,189.675 C231.2471,190.779 230.3511,191.675 229.2471,191.675 L61.6991,191.675 C61.1331,191.675 60.6801,191.206 60.7001,190.64 L60.7541,189.081 Z M129.2541,68.218 L133.2541,68.218 L133.2541,69.675 C133.2541,70.779 132.3591,71.675 131.2541,71.675 C130.1501,71.675 129.2541,70.779 129.2541,69.675 L129.2541,68.218 Z M124.3621,59.328 L124.3621,59.323 C124.3621,55.518 127.4471,52.433 131.2521,52.433 L131.2571,52.433 C135.0621,52.433 138.1471,55.518 138.1471,59.323 L138.1471,59.328 C138.1471,63.133 135.0621,66.218 131.2571,66.218 L131.2521,66.218 C127.4471,66.218 124.3621,63.133 124.3621,59.328 L124.3621,59.328 Z M220.8411,194.769 C222.6221,194.769 224.0721,196.218 224.0721,198 C224.0721,199.781 222.6221,201.23 220.8411,201.23 C219.0601,201.23 217.6101,199.781 217.6101,198 C217.6101,196.218 219.0601,194.769 220.8411,194.769 L220.8411,194.769 Z M233.2471,192.675 L233.2471,190 L263.0971,190 L263.0971,192.505 L263.0971,195.994 C263.0971,196.792 263.2841,197.543 263.5981,198.224 L263.5981,206 L209.6101,206 L209.6101,193.675 L215.5761,193.675 C216.3461,193.675 216.8591,194.528 216.4421,195.174 C215.7221,196.291 215.4141,197.698 215.7401,199.179 C216.1691,201.128 217.7521,202.697 219.7051,203.11 C223.0831,203.825 226.0721,201.255 226.0721,198 C226.0721,196.966 225.7701,196.002 225.2501,195.19 C224.8301,194.534 225.3231,193.675 226.1021,193.675 L232.2471,193.675 C232.7991,193.675 233.2471,193.227 233.2471,192.675 L233.2471,192.675 Z M235.2471,184 L261.0971,184 C262.2021,184 263.0971,184.896 263.0971,186 C263.0971,187.104 262.2021,188 261.0971,188 L235.2471,188 C234.1421,188 233.2471,187.104 233.2471,186 C233.2471,184.896 234.1421,184 235.2471,184 L235.2471,184 Z M262.2431,161.514 C262.2431,160.962 262.6911,160.514 263.2431,160.514 L303.8801,160.514 C304.4321,160.514 304.8801,160.066 304.8801,159.514 C304.8791,158.961 304.4321,158.514 303.8801,158.514 L270.0821,158.514 C267.3211,158.514 265.0821,156.275 265.0821,153.514 L265.0821,129.831 C265.0821,127.974 266.5871,126.469 268.4441,126.469 L326.0121,126.469 C327.8691,126.469 329.3731,127.974 329.3731,129.831 L329.3731,139.693 C328.6561,139.754 328.0521,140.214 327.7951,140.856 C327.6711,141.022 327.5841,141.217 327.5841,141.44 L327.5841,145.057 C327.5841,145.187 327.6131,145.309 327.6581,145.422 L327.6581,147.911 C327.6581,148.889 328.4151,149.686 329.3731,149.767 L329.3731,153.514 C329.3731,156.275 327.1351,158.514 324.3731,158.514 L310.2431,158.514 C309.6901,158.514 309.2431,158.961 309.2431,159.514 C309.2431,160.066 309.6901,160.514 310.2431,160.514 L331.2431,160.514 C331.7941,160.514 332.2431,160.962 332.2431,161.514 C332.2431,162.065 331.7941,162.514 331.2431,162.514 L263.2431,162.514 C262.6911,162.514 262.2431,162.065 262.2431,161.514 L262.2431,161.514 Z M122.3621,63.79 L118.2551,63.79 C117.1501,63.79 116.2551,62.894 116.2551,61.79 L116.2551,56.861 C116.2551,55.757 117.1501,54.861 118.2551,54.861 L122.3621,54.861 L122.3621,63.79 Z M140.1471,54.861 L144.2531,54.861 C145.3581,54.861 146.2531,55.757 146.2531,56.861 L146.2531,61.79 C146.2531,62.894 145.3581,63.79 144.2531,63.79 L140.1471,63.79 L140.1471,54.861 Z M331.4031,144.057 L332.2011,144.057 L332.2011,142.44 L331.4031,142.44 L331.4031,144.057 Z M349.8601,191 L349.8601,191 C350.9651,191 351.8601,191.896 351.8601,193 L351.8601,201 C351.8601,202.104 350.9651,203 349.8601,203 C348.7561,203 347.8601,202.104 347.8601,201 L347.8601,193 C347.8601,191.896 348.7561,191 349.8601,191 L349.8601,191 Z M358.7441,212 L347.7811,212 C347.0241,212 346.5201,211.179 346.9031,210.526 C347.5111,209.49 347.8601,208.286 347.8601,207 C347.8601,205.896 348.7561,205 349.8601,205 C352.0691,205 353.8601,203.209 353.8601,201 L353.8601,193 C353.8601,190.791 352.0691,189 349.8601,189 C348.7561,189 347.8601,188.104 347.8601,187 L347.8601,185 C347.8601,184.448 347.4131,184 346.8601,184 L341.0861,184 C340.5341,184 340.0861,184.448 340.0861,185 L340.0861,185 C340.0861,185.552 340.5341,186 341.0861,186 L344.8601,186 C345.4131,186 345.8601,186.448 345.8601,187 L345.8601,207 C345.8601,209.761 343.6221,212 340.8601,212 L328.8601,212 C326.0991,212 323.8601,209.761 323.8601,207 L323.8601,187 C323.8601,186.448 324.3081,186 324.8601,186 L337.2131,186 C337.7651,186 338.2131,185.552 338.2131,185 L338.2131,185 C338.2121,184.448 337.7651,184 337.2131,184 L334.3881,184 C332.7311,184 331.3881,182.657 331.3881,181 L331.3881,167.465 L331.3881,166.098 C331.3881,165.315 331.7951,164.553 332.5051,164.224 C333.5301,163.75 334.2431,162.716 334.2431,161.514 C334.2431,160.308 333.5261,159.271 332.4971,158.798 C331.7841,158.471 331.3731,157.706 331.3731,156.921 L331.3731,148.928 C331.3811,148.878 331.4031,148.834 331.4031,148.783 L331.4031,146.983 C331.4031,146.472 331.8171,146.057 332.3291,146.057 C333.3631,146.057 334.2011,145.219 334.2011,144.185 L334.2011,142.312 C334.2011,141.279 333.3631,140.44 332.3291,140.44 L332.2991,140.44 C331.7881,140.44 331.3731,140.026 331.3731,139.515 L331.3731,129.831 C331.3731,126.87 328.9731,124.469 326.0121,124.469 L268.4431,124.469 C265.4821,124.469 263.0821,126.869 263.0821,129.83 L263.0821,156.937 C263.0821,157.717 262.6781,158.478 261.9711,158.808 C260.9511,159.285 260.2431,160.315 260.2431,161.514 C260.2431,162.716 260.9551,163.75 261.9801,164.224 C262.6901,164.553 263.0971,165.315 263.0971,166.098 L263.0971,167.465 L263.0971,182 L233.2471,182 L233.2471,72.675 C233.2471,72.123 232.7991,71.675 232.2471,71.675 L137.2541,71.675 C136.1501,71.675 135.2541,70.779 135.2541,69.675 L135.2541,68.218 L139.1471,68.218 C139.7001,68.218 140.1471,67.771 140.1471,67.218 C140.1471,66.429 140.7871,65.79 141.5761,65.79 L147.2531,65.79 C147.8061,65.79 148.2531,65.342 148.2531,64.79 L148.2531,53.861 C148.2531,53.309 147.8061,52.861 147.2531,52.861 L141.5761,52.861 C140.7871,52.861 140.1471,52.222 140.1471,51.433 C140.1471,50.88 139.7001,50.433 139.1471,50.433 L123.3621,50.433 C122.8101,50.433 122.3621,50.88 122.3621,51.433 C122.3621,52.222 121.7221,52.861 120.9331,52.861 L115.2551,52.861 C114.7031,52.861 114.2551,53.309 114.2551,53.861 L114.2551,64.79 C114.2551,65.342 114.7031,65.79 115.2551,65.79 L120.9331,65.79 C121.7221,65.79 122.3621,66.429 122.3621,67.218 C122.3621,67.771 122.8101,68.218 123.3621,68.218 L127.2541,68.218 L127.2541,69.675 C127.2541,70.779 126.3591,71.675 125.2541,71.675 L32.2631,71.675 L32.2621,71.675 C31.7101,71.675 31.2631,72.123 31.2631,72.675 L31.2631,135.94 C31.2631,138.245 29.3891,140.11 27.0841,140.1 L27.0781,140.1 C21.5131,140.075 16.9891,144.579 16.9891,150.144 L16.9891,162.831 C15.4781,162.88 14.2631,164.117 14.2631,165.64 L14.2631,183.765 C14.2631,188.041 17.2031,191.641 21.1661,192.655 C22.4771,192.99 23.3511,194.233 23.3511,195.586 L23.3511,203.667 C23.3511,204.756 22.4691,205.638 21.3811,205.638 C19.2501,205.638 17.4201,207.154 17.0241,209.248 L16.8121,210.372 C16.6331,211.316 15.8081,212 14.8471,212 L1.7911,212 C1.2391,212 0.7911,212.448 0.7911,213 C0.7911,213.552 1.2391,214 1.7911,214 L21.1701,214 L36.6211,214 L270.5981,214 L328.8601,214 L340.8601,214 L358.7441,214 C359.2961,214 359.7441,213.552 359.7441,213 C359.7441,212.448 359.2961,212 358.7441,212 L358.7441,212 Z"/>
      </g>
    </g>
    <rect width="400" height="220"/>
  </g>
</svg>
