<svg xmlns="http://www.w3.org/2000/svg" width="195" height="84" viewBox="0 0 195 84">
  <g fill="none" fill-rule="evenodd">
    <path fill="#F6F6F7" d="M13.7081,78.2421 C13.3321,79.0541 13.3141,79.9901 13.6601,80.8141 L13.7601,80.9731 C13.7741,80.9951 13.7861,81.0191 13.7971,81.0431 C14.1631,81.8891 14.8771,82.5341 15.7561,82.8121 C16.0881,82.9181 16.4311,82.9671 16.7721,82.9611 C16.7981,78.9941 15.0741,77.6451 14.4071,77.2771 C14.1191,77.5501 13.8781,77.8751 13.7081,78.2421"/>
    <path fill="#DCDDDE" d="M61.3008,68.1156 L60.4628,66.6626 C60.2038,66.6176 59.9468,66.5616 59.6938,66.4886 C59.6968,66.5206 59.7028,66.5516 59.7048,66.5836 L59.8838,69.3866 C60.4808,69.3126 61.0858,69.2816 61.6938,69.2796 C61.6388,68.8746 61.5098,68.4786 61.3008,68.1156"/>
    <path fill="#F6F6F7" d="M60.0225,71.5482 L60.0835,72.4922 C60.7685,72.1132 61.2955,71.4932 61.5535,70.7442 C61.7175,70.2682 61.7605,69.7672 61.6935,69.2792 C61.0855,69.2812 60.4805,69.3122 59.8845,69.3872 L59.8865,69.4282 C59.9055,69.7152 59.6885,69.9622 59.4015,69.9802 L59.4715,71.0632 C59.7535,71.0472 60.0045,71.2622 60.0225,71.5482"/>
    <path fill="#DCDDDE" d="M58.3697 80.3334C57.9357 80.7954 57.4477 81.1834 56.9247 81.5064L60.8987 81.5064C62.0127 81.5064 62.9187 80.6004 62.9187 79.4864 62.9187 78.3734 62.0127 77.4664 60.8987 77.4664L59.9927 77.4664C59.6927 78.5234 59.1487 79.5024 58.3697 80.3334M34.3965 70.4135C34.5195 70.4005 34.6445 70.3935 34.7705 70.3935L35.5265 70.3935C37.1615 70.3935 38.6525 70.9995 39.8015 71.9935L40.0845 70.1585C40.0185 70.1625 39.9535 70.1675 39.8865 70.1675 38.2975 70.1675 37.0075 68.8775 37.0075 67.2905L37.0075 65.8335C37.0075 64.2465 38.2975 62.9565 39.8845 62.9565 40.1715 62.9565 40.4045 63.1885 40.4045 63.4755 40.4045 63.7625 40.1725 63.9945 39.8865 63.9945 38.8705 63.9945 38.0455 64.8195 38.0455 65.8335L38.0455 66.1685C38.4785 65.6245 39.1405 65.2715 39.8845 65.2715L39.8855 65.2715C40.8915 65.2715 41.7445 65.9135 42.0815 66.8045 42.1335 66.7875 42.1865 66.7715 42.2445 66.7715L42.2445 65.7785C42.2445 65.0005 41.8585 64.3125 41.2725 63.8825 41.4525 63.4175 41.6635 62.9705 41.9115 62.5465L41.6705 62.3905C40.6075 61.7015 39.6565 60.8845 38.8265 59.9665 36.8745 61.2865 35.4785 63.3805 35.0945 65.8795L34.3965 70.4135zM37.0005 81.5063L39.6405 81.5063 44.2435 81.5063C44.8325 81.5063 45.3915 81.2473 45.7775 80.7963 46.1675 80.3403 46.3315 79.7613 46.2385 79.1643 46.0875 78.1963 45.1965 77.4663 44.1675 77.4663L41.5615 77.4663C41.2745 77.4663 41.0425 77.2343 41.0425 76.9473 41.0425 73.9063 38.5675 71.4323 35.5265 71.4323L34.7705 71.4323C33.3545 71.4323 32.2025 72.5843 32.2025 74.0003L32.2025 76.7083C32.2025 79.3543 34.3545 81.5063 37.0005 81.5063M67.773 50.0141C68.193 51.9851 68.198 53.9751 67.813 55.8861L68.566 56.3741C68.643 56.2201 68.716 56.0631 68.779 55.8991L68.892 55.6121C69.44 54.2041 69.408 52.6681 68.801 51.2851 68.525 50.6581 68.143 50.1001 67.679 49.6231 67.711 49.7531 67.745 49.8821 67.773 50.0141M54.5494 38.4633C54.5184 38.2923 54.5254 38.1643 54.5414 38.0843 54.5514 38.0343 54.5724 37.9873 54.5964 37.9423 52.9974 37.2833 51.2954 36.9393 49.5624 36.9393 49.1904 36.9393 48.8174 36.9593 48.4444 36.9903 48.4644 37.0103 48.4874 37.0263 48.5074 37.0473L49.9954 38.5153C51.4914 38.2513 53.0304 38.2303 54.5494 38.4633M41.9698 61.3378C38.5118 57.3868 37.5438 51.7118 39.5958 46.8068 39.4978 46.8948 39.3768 46.9428 39.2528 46.9428 39.1208 46.9428 38.9898 46.8938 38.8878 46.7938 38.2368 46.1498 37.7458 45.4048 37.4138 44.6088 36.1768 47.2328 35.8308 50.1818 36.4498 53.0858 37.1748 56.4838 39.1318 59.3998 41.9698 61.3378"/>
    <path fill="#F6F6F7" d="M49.066 48.7626C49.251 48.4776 49.635 48.3956 49.92 48.5806 50.205 48.7646 50.287 49.1496 50.102 49.4336 49.917 49.7196 49.533 49.8016 49.248 49.6166 48.963 49.4316 48.881 49.0476 49.066 48.7626M50.62 49.7696C50.805 49.4856 51.189 49.4036 51.474 49.5876 51.759 49.7726 51.84 50.1576 51.656 50.4416 51.471 50.7266 51.087 50.8086 50.802 50.6236 50.517 50.4396 50.435 50.0546 50.62 49.7696M48.09 50.0866C48.208 50.6376 48.53 51.1076 48.999 51.4106L49.265 51.5836C49.733 51.8876 50.294 51.9896 50.845 51.8726 51.396 51.7556 51.866 51.4326 52.17 50.9646L52.343 50.6976C52.647 50.2296 52.749 49.6686 52.631 49.1176 52.514 48.5676 52.191 48.0966 51.724 47.7936L51.457 47.6196C51.105 47.3916 50.709 47.2826 50.318 47.2826 49.629 47.2826 48.954 47.6206 48.552 48.2396L48.379 48.5066C48.075 48.9746 47.973 49.5356 48.09 50.0866M65.0542 40.765L67.0492 37.416 64.7972 38.329C64.5692 38.421 64.3172 38.402 64.1052 38.276 63.8932 38.15 63.7562 37.938 63.7292 37.693L63.3642 34.423 60.3152 35.66C60.0872 35.751 59.8352 35.733 59.6232 35.607 59.4112 35.481 59.2742 35.268 59.2472 35.023L58.9772 32.607 55.5812 38.309C55.6592 38.594 56.1472 39.672 59.1542 41.463 62.1602 43.254 63.3592 43.18 63.6552 43.113L64.1282 42.32C64.2742 42.074 64.5932 41.993 64.8392 42.14L65.2342 41.476C64.9882 41.33 64.9082 41.011 65.0542 40.765M39.8848 69.1298C40.9008 69.1298 41.7248 68.3048 41.7248 67.2908 41.7248 67.0618 41.8758 66.8738 42.0818 66.8048 41.7438 65.9138 40.8908 65.2718 39.8858 65.2718L39.8848 65.2718C39.1398 65.2718 38.4778 65.6248 38.0458 66.1688L38.0458 67.2908C38.0458 68.3048 38.8708 69.1298 39.8848 69.1298"/>
    <path fill="#DCDDDE" d="M142.5972 9.3881C142.5662 9.3571 142.5252 9.3411 142.4832 9.3411 142.4422 9.3411 142.4012 9.3571 142.3692 9.3881L140.2712 11.4861C140.2092 11.5491 140.2092 11.6511 140.2712 11.7141L142.3692 13.8121C142.4322 13.8751 142.5342 13.8751 142.5972 13.8121L144.6952 11.7141C144.7342 11.6751 144.7432 11.6301 144.7432 11.6001 144.7432 11.5701 144.7342 11.5251 144.6962 11.4871L142.5972 9.3881zM154.9444 9.3881C154.9034 9.3471 154.8554 9.3411 154.8304 9.3411 154.7994 9.3411 154.7564 9.3491 154.7164 9.3881L152.6184 11.4861C152.5794 11.5251 152.5714 11.5701 152.5714 11.6001 152.5714 11.6301 152.5794 11.6751 152.6184 11.7141L154.7164 13.8121C154.7874 13.8831 154.8534 13.9031 154.9444 13.8121L157.0424 11.7141C157.0814 11.6751 157.0894 11.6301 157.0894 11.6001 157.0894 11.5701 157.0814 11.5251 157.0424 11.4871L154.9444 9.3881zM130.023 13.8119C130.094 13.8829 130.159 13.9029 130.251 13.8119L132.348 11.7139C132.387 11.6749 132.396 11.6299 132.396 11.5999 132.396 11.5699 132.387 11.5249 132.349 11.4869L130.251 9.3879C130.21 9.3469 130.162 9.3409 130.137 9.3409 130.106 9.3409 130.062 9.3499 130.023 9.3879L127.925 11.4859C127.886 11.5249 127.877 11.5699 127.877 11.5999 127.877 11.6299 127.886 11.6749 127.924 11.7139L130.023 13.8119zM160.1275 51.2733L160.9335 51.2733 162.2835 51.2733C167.1495 51.2733 171.1075 47.3153 171.1075 42.4483L171.1075 41.7563 166.4365 41.7563 166.4365 42.4483C166.4365 46.5253 163.7865 50.0053 160.1275 51.2733M165.9004 23.9003L170.5424 23.9003C169.2884 20.5503 166.0654 18.1553 162.2834 18.1553L160.1284 18.1553C162.8174 19.0883 164.9544 21.2163 165.9004 23.9003"/>
    <path fill="#F6F6F7" d="M140.5088,51.2733 L140.9098,50.2803 C141.0628,49.8993 141.3508,49.6013 141.7178,49.4243 C141.6308,49.2683 141.5478,49.1073 141.4768,48.9393 C140.9708,47.7493 140.9598,46.4343 141.4438,45.2353 C141.7858,44.3863 142.3588,43.6563 143.0978,43.1233 C143.3308,42.9563 143.6548,43.0083 143.8218,43.2413 C143.8288,43.2503 143.8298,43.2613 143.8358,43.2713 C144.2448,43.0443 144.6908,42.8863 145.1528,42.8013 C145.1508,42.7893 145.1438,42.7793 145.1438,42.7673 C145.1258,42.4813 145.3428,42.2343 145.6288,42.2163 C146.2688,42.1773 146.8948,42.2693 147.4988,42.4773 C147.5028,42.2583 147.5428,42.0413 147.6268,41.8333 C147.6318,41.8193 147.6378,41.8073 147.6438,41.7943 C147.8078,41.3843 148.1518,41.0333 148.5958,40.8453 C148.9098,40.7113 149.2478,40.6753 149.5768,40.7263 C149.7508,40.3043 150.0488,39.9563 150.4188,39.7483 C150.8248,39.5203 151.2868,39.4813 151.6848,39.6423 L151.8418,39.7063 C152.2398,39.8663 152.5458,40.2143 152.6788,40.6603 C152.8008,41.0673 152.7738,41.5243 152.6058,41.9493 C153.2748,42.4213 153.5618,43.3063 153.2418,44.0983 C153.1578,44.3063 153.0348,44.4913 152.8868,44.6503 C155.1998,45.7303 156.2958,48.4473 155.3288,50.8413 C155.2678,50.9933 155.1888,51.1313 155.1148,51.2733 L158.6028,51.2733 L160.1278,51.2733 C163.7858,50.0053 166.4358,46.5253 166.4358,42.4483 L166.4358,41.7563 L164.0228,41.7563 C163.7368,41.7563 163.5038,41.5243 163.5038,41.2373 C163.5038,40.9513 163.7368,40.7183 164.0228,40.7183 L171.6018,40.7183 C173.8918,40.7183 175.7548,38.8553 175.7548,36.5653 L175.7548,29.0913 C175.7548,26.8013 173.8918,24.9383 171.6018,24.9383 L164.0228,24.9383 C163.7368,24.9383 163.5038,24.7063 163.5038,24.4193 C163.5038,24.1323 163.7368,23.9003 164.0228,23.9003 L165.9008,23.9003 C164.9548,21.2163 162.8178,19.0883 160.1278,18.1553 L128.7028,18.1553 C123.9068,18.1553 120.0008,22.0023 119.8888,26.7723 L128.6778,26.7723 C128.9648,26.7723 129.1968,27.0043 129.1968,27.2913 L134.1568,27.2913 C134.1568,27.0043 134.3888,26.7723 134.6758,26.7723 L140.2818,26.7723 C142.6288,26.7723 144.5388,28.6823 144.5388,31.0293 L144.5388,35.0773 C144.5388,40.5163 140.1138,44.9403 134.6758,44.9403 L124.7098,44.9403 C122.9978,44.9403 121.3868,44.5003 119.9828,43.7303 C120.6068,47.9893 124.2738,51.2733 128.7028,51.2733 L136.9048,51.2733 L140.5088,51.2733 Z"/>
    <path fill="#F6F6F7" d="M139.6592,31.0287 L139.6592,35.0777 C139.6592,39.1537 137.0092,42.6337 133.3502,43.9027 L134.6762,43.9027 C139.5422,43.9027 143.5002,39.9437 143.5002,35.0777 L143.5002,31.0287 C143.5002,29.2547 142.0562,27.8107 140.2822,27.8107 L137.8082,27.8107 C138.9122,28.4617 139.6592,29.6607 139.6592,31.0287"/>
    <path fill="#DCDDDE" d="M169.5254,38.642 C170.9584,38.642 172.1204,37.48 172.1204,36.047 L172.1204,29.61 C172.1204,28.177 170.9584,27.015 169.5254,27.015 L166.0994,27.015 C165.5254,27.015 165.0614,27.479 165.0614,28.053 L165.0614,37.604 C165.0614,38.177 165.5254,38.642 166.0994,38.642 L169.5254,38.642 Z"/>
    <path fill="#FFFFFF" d="M132.8628,38.6147 C132.8628,39.4537 132.1758,40.1397 131.3378,40.1397 L128.2858,40.1397 C127.4468,40.1397 126.7608,39.4537 126.7608,38.6147 C126.7608,37.7757 127.4468,37.0887 128.2858,37.0887 L131.3378,37.0887 C132.1758,37.0887 132.8628,37.7757 132.8628,38.6147 M119.4558,38.6147 C119.4558,37.7757 120.1418,37.0887 120.9818,37.0887 L122.8118,37.0887 C123.6508,37.0887 124.3378,37.7757 124.3378,38.6147 C124.3378,39.4537 123.6508,40.1397 122.8118,40.1397 L120.9818,40.1397 C120.1418,40.1397 119.4558,39.4537 119.4558,38.6147 M128.6778,27.8107 L119.1038,27.8107 C117.3288,27.8107 115.8848,29.2547 115.8848,31.0297 L115.8848,35.0777 C115.8848,39.9437 119.8428,43.9027 124.7098,43.9027 L133.3508,43.9027 C137.0088,42.6337 139.6588,39.1547 139.6588,35.0777 L139.6588,31.0287 C139.6588,29.6607 138.9118,28.4617 137.8078,27.8107 L134.6758,27.8107 C134.3888,27.8107 134.1568,27.5777 134.1568,27.2917 L129.1968,27.2917 C129.1968,27.5777 128.9648,27.8107 128.6778,27.8107"/>
    <path fill="#F6F6F7" d="M128.2862 37.0888C127.4472 37.0888 126.7612 37.7758 126.7612 38.6148 126.7612 39.4538 127.4472 40.1398 128.2862 40.1398L131.3372 40.1398C132.1762 40.1398 132.8632 39.4538 132.8632 38.6148 132.8632 37.7758 132.1762 37.0888 131.3372 37.0888L128.2862 37.0888zM120.9815 40.14L122.8125 40.14C123.6505 40.14 124.3375 39.453 124.3375 38.615 124.3375 37.775 123.6505 37.089 122.8125 37.089L120.9815 37.089C120.1425 37.089 119.4565 37.775 119.4565 38.615 119.4565 39.453 120.1425 40.14 120.9815 40.14"/>
    <path fill="#DCDDDE" d="M120.813 72.9711L120.813 68.1131C119.182 69.1191 118.089 70.9181 118.089 72.9711L118.089 75.4631C118.089 76.4361 117.297 77.2271 116.324 77.2271L110.718 77.2271C109.459 77.2271 108.434 78.2521 108.434 79.5121 108.434 80.7711 109.459 81.7951 110.718 81.7951L126.297 81.7951C123.053 80.1791 120.813 76.8351 120.813 72.9711M123.0831 59.1635L117.8811 59.1635C116.6221 59.1635 115.5971 60.1875 115.5971 61.4475 115.5971 62.7065 116.6221 63.7315 117.8811 63.7315L121.2321 63.7315C121.6051 62.1275 122.2281 60.5925 123.0831 59.1635"/>
    <path fill="#F6F6F7" d="M132.2007 79.3666C132.3007 79.1206 132.4287 78.8956 132.5757 78.6886L132.4527 78.6386C132.0487 78.4756 131.7317 78.1636 131.5607 77.7626 131.3907 77.3606 131.3867 76.9166 131.5497 76.5116L131.6537 76.2536C131.8177 75.8486 132.1287 75.5316 132.5307 75.3616 132.9317 75.1906 133.3757 75.1866 133.7817 75.3496L134.8507 75.7816 139.1707 65.0806C138.2067 65.0766 137.2927 64.6526 136.6607 63.9146 136.0287 63.1766 135.7527 62.1996 135.9027 61.2356 136.1517 59.6396 137.5987 58.4366 139.2687 58.4366L141.8527 58.4366 143.5227 54.2996 141.3957 53.4406C141.0267 53.2926 140.7377 53.0166 140.5587 52.6656L140.4997 52.6416 140.5187 52.5936C140.5147 52.5836 140.5077 52.5746 140.5037 52.5646 140.4687 52.4826 140.4447 52.3966 140.4237 52.3116L136.9047 52.3116C132.1477 52.3116 127.6127 54.6186 124.7707 58.4826 122.8607 61.0806 121.8507 64.1526 121.8507 67.3656L121.8507 72.9706C121.8507 77.8366 125.8097 81.7956 130.6757 81.7956L132.1857 81.7956C131.8817 81.0096 131.8837 80.1516 132.2007 79.3666M148.3204 57.7035C148.3204 57.2215 148.3794 56.7535 148.4804 56.3015L147.5874 55.9405 146.5794 58.4365 146.8204 58.4365 147.5934 58.4365C147.9934 58.4365 148.3204 58.1075 148.3204 57.7035M142.2832 67.6928C142.5492 67.7998 142.6782 68.1028 142.5702 68.3688L139.4122 76.1898 146.2512 76.1898C146.6522 76.1898 146.9782 75.8638 146.9782 75.4628L146.9782 72.9708C146.9782 69.2498 150.0052 66.2228 153.7262 66.2228L154.9172 66.2228C155.2312 66.2228 155.4882 65.9668 155.4882 65.6518 155.4882 65.3368 155.2312 65.0808 154.9172 65.0808L146.8212 65.0808 143.3372 65.0808 142.2832 67.6928zM175.8785 65.3461L173.9615 71.9191C173.8995 72.1321 174.0145 72.2771 174.0665 72.3291 174.1185 72.3811 174.2645 72.4971 174.4765 72.4341L181.0495 70.5161C182.7075 70.0331 183.9095 68.5521 184.0405 66.8301 184.1325 65.6161 183.6915 64.4261 182.8315 63.5641 182.0455 62.7791 180.9855 62.3431 179.8835 62.3431 179.7775 62.3431 179.6715 62.3471 179.5655 62.3551 177.8435 62.4861 176.3625 63.6881 175.8785 65.3461"/>
    <path fill="#DCDDDE" d="M161.9283 81.7953C162.3033 81.7953 162.6673 81.7143 163.0123 81.5553 163.0423 81.5423 163.0713 81.5313 163.1023 81.5233 167.0213 80.5233 169.7583 77.0063 169.7583 72.9713L169.7583 61.1363C169.7583 56.2703 165.8003 52.3113 160.9333 52.3113L158.6023 52.3113 154.7573 52.3113C154.6233 52.3113 154.4923 52.3213 154.3623 52.3313 153.7713 52.9593 153.0343 53.4213 152.2223 53.6643 152.3643 54.0473 152.3653 54.4623 152.2113 54.8423L151.7933 55.8773C151.5363 56.5123 150.9233 56.8993 150.2763 56.8993 150.0723 56.8993 149.8663 56.8603 149.6663 56.7803L149.4573 56.6953C149.3943 57.0233 149.3583 57.3593 149.3583 57.7043 149.3573 58.6803 148.5653 59.4743 147.5933 59.4743L146.8213 59.4743 139.2693 59.4743C138.1053 59.4743 137.0993 60.3003 136.9283 61.3953 136.8233 62.0693 137.0083 62.7243 137.4493 63.2393 137.8863 63.7503 138.5193 64.0433 139.1843 64.0433L146.8213 64.0433 154.9173 64.0433C155.8043 64.0433 156.5263 64.7643 156.5263 65.6513 156.5263 66.5393 155.8043 67.2613 154.9173 67.2613L153.7263 67.2613C150.5783 67.2613 148.0163 69.8223 148.0163 72.9713L148.0163 75.4623C148.0163 76.4363 147.2243 77.2273 146.2513 77.2273L138.9933 77.2273 138.9143 77.4223 139.9843 77.8543C140.8193 78.1913 141.2243 79.1463 140.8873 79.9813L140.7833 80.2393C140.5263 80.8753 139.9123 81.2623 139.2653 81.2623 139.0623 81.2623 138.8563 81.2233 138.6563 81.1433L138.5343 81.0933C138.4983 81.3273 138.4393 81.5583 138.3533 81.7843 138.3913 81.7863 138.4273 81.7953 138.4653 81.7953L158.6023 81.7953 161.9283 81.7953zM151.4532 40.6684L151.2962 40.6054C151.1542 40.5484 151.0042 40.6104 150.9282 40.6534 150.7772 40.7374 150.6482 40.8884 150.5632 41.0684L151.6542 41.5084C151.7172 41.3204 151.7342 41.1234 151.6842 40.9584 151.6592 40.8754 151.5962 40.7264 151.4532 40.6684"/>
    <path fill="#FFFFFF" d="M143.7046 43.9652C143.1246 44.3832 142.6756 44.9572 142.4066 45.6242 142.0256 46.5662 142.0356 47.5992 142.4326 48.5332 142.5556 48.8232 142.7156 49.0912 142.9006 49.3372 142.9456 49.3502 142.9926 49.3592 143.0366 49.3772L145.1396 50.2262 147.7766 43.6932 147.3536 43.5222C146.8216 43.3072 146.2646 43.2162 145.6946 43.2522 145.4216 43.2712 145.1886 43.0692 145.1526 42.8012 144.6906 42.8862 144.2456 43.0442 143.8356 43.2712 143.9796 43.5002 143.9286 43.8042 143.7046 43.9652M154.3663 50.453C155.1513 48.509 154.2083 46.29 152.2643 45.505L151.8413 45.334 150.6933 48.179C150.6873 48.224 150.6853 48.268 150.6683 48.31L149.2283 51.877 151.3073 52.716C151.3503 52.733 151.3883 52.759 151.4303 52.78 152.7053 52.578 153.8483 51.735 154.3663 50.453"/>
    <path fill="#DCDDDE" d="M140.2901,65.081 L135.8131,76.17 L137.9521,77.034 L141.6071,67.979 C141.7151,67.714 142.0161,67.585 142.2831,67.693 L143.3371,65.081 L140.2901,65.081 Z"/>
    <polygon fill="#DCDDDE" points="145.46 58.436 146.625 55.552 144.486 54.688 142.973 58.436"/>
    <path fill="#FFFFFF" d="M137.3702,81.4535 C137.4702,81.2055 137.5172,80.9465 137.5272,80.6865 L133.5812,79.0945 C133.4102,79.2845 133.2652,79.5045 133.1632,79.7555 C132.9362,80.3175 132.9422,80.9335 133.1792,81.4915 C133.4162,82.0485 133.8552,82.4805 134.4172,82.7075 C135.5772,83.1755 136.9012,82.6135 137.3702,81.4535"/>
    <polygon fill="#DCDDDE" points="148.241 51.478 150.827 45.073 148.688 44.209 146.102 50.614"/>
    <path fill="#F6F6F7" d="M140.5586 52.6654C140.5456 52.6414 140.5306 52.6184 140.5186 52.5934L140.4996 52.6424 140.5586 52.6654zM96.1221 72.4521C97.5531 72.4521 98.7181 71.2871 98.7181 69.8561L98.7181 64.6651 91.4511 64.6651 91.4511 69.8561C91.4511 71.2871 92.6151 72.4521 94.0461 72.4521L96.1221 72.4521zM82.8165 72.4521C84.2475 72.4521 85.4125 71.2871 85.4125 69.8561L85.4125 67.2611 79.7025 67.2611 79.7025 69.8561C79.7025 71.2871 80.8665 72.4521 82.2975 72.4521L82.8165 72.4521z"/>
    <polygon fill="#DCDDDE" points="77.185 81.795 79.262 81.795 79.262 78.162 77.185 78.162"/>
    <polygon fill="#DCDDDE" points="98.986 81.795 101.062 81.795 101.062 78.162 98.986 78.162"/>
    <path fill="#F6F6F7" d="M29.2261 81.6972L29.2261 80.9512C29.2261 80.6552 28.9861 80.4162 28.6901 80.4162L28.0721 80.4162C27.8191 80.4162 27.6021 80.2332 27.5601 79.9832 27.4561 79.3682 26.9101 78.9052 26.2881 78.9052L25.1761 78.9052C24.4641 78.9052 23.8851 79.4842 23.8851 80.1962L23.8851 81.6972C23.8851 81.7502 23.9301 81.7952 23.9831 81.7952L26.2721 81.7952 29.1281 81.7952C29.1801 81.7952 29.2261 81.7492 29.2261 81.6972M9.0093 81.6972L9.0093 81.5572C9.0093 80.9362 8.5043 80.4302 7.8833 80.4302 7.2603 80.4302 6.7553 80.9362 6.7553 81.5572L6.7553 81.6972C6.7553 81.7492 6.8013 81.7952 6.8533 81.7952L8.9113 81.7952C8.9643 81.7952 9.0093 81.7502 9.0093 81.6972"/>
    <path fill="#B9BBBE" d="M3.4727 81.7953L.5187 81.7953C.2327 81.7953-.0003 82.0273-.0003 82.3143-.0003 82.6013.2327 82.8333.5187 82.8333L3.4727 82.8333C3.7597 82.8333 3.9917 82.6013 3.9917 82.3143 3.9917 82.0273 3.7597 81.7953 3.4727 81.7953M163.1026 81.5233C163.0716 81.5313 163.0416 81.5423 163.0126 81.5553 162.6676 81.7143 162.3026 81.7953 161.9286 81.7953L158.6026 81.7953 138.4656 81.7953C138.4266 81.7953 138.3916 81.7863 138.3526 81.7843 138.4396 81.5583 138.4986 81.3273 138.5346 81.0933L138.6566 81.1433C138.8556 81.2233 139.0626 81.2623 139.2656 81.2623 139.9126 81.2623 140.5266 80.8753 140.7836 80.2393L140.8876 79.9813C141.2246 79.1463 140.8196 78.1913 139.9836 77.8543L138.9146 77.4223 138.9936 77.2273 146.2516 77.2273C147.2246 77.2273 148.0166 76.4363 148.0166 75.4623L148.0166 72.9713C148.0166 69.8223 150.5786 67.2613 153.7266 67.2613L154.9166 67.2613C155.8046 67.2613 156.5256 66.5393 156.5256 65.6513 156.5256 64.7643 155.8046 64.0433 154.9166 64.0433L146.8206 64.0433 139.1846 64.0433C138.5196 64.0433 137.8866 63.7503 137.4496 63.2393 137.0086 62.7243 136.8236 62.0693 136.9286 61.3953 137.0996 60.3003 138.1056 59.4743 139.2696 59.4743L146.8206 59.4743 147.5936 59.4743C148.5656 59.4743 149.3576 58.6803 149.3586 57.7043 149.3586 57.3593 149.3946 57.0233 149.4576 56.6953L149.6656 56.7803C149.8666 56.8603 150.0726 56.8983 150.2756 56.8983 150.9226 56.8983 151.5366 56.5123 151.7936 55.8773L152.2106 54.8423C152.3646 54.4613 152.3646 54.0473 152.2226 53.6643 153.0346 53.4213 153.7716 52.9593 154.3616 52.3313 154.4926 52.3213 154.6236 52.3113 154.7566 52.3113L158.6026 52.3113 160.9336 52.3113C165.7996 52.3113 169.7586 56.2703 169.7586 61.1363L169.7586 72.9713C169.7586 77.0063 167.0206 80.5233 163.1026 81.5233zM132.8416 77.6753C132.6946 77.6163 132.5786 77.5023 132.5166 77.3563 132.4546 77.2103 132.4536 77.0483 132.5126 76.9003L132.6166 76.6423C132.7396 76.3373 133.0876 76.1893 133.3926 76.3123L139.5956 78.8163C139.8996 78.9403 140.0476 79.2873 139.9246 79.5923L139.8206 79.8513C139.6976 80.1553 139.3506 80.3033 139.0446 80.1803L132.8416 77.6753zM136.7136 82.3133C136.0446 82.8433 135.1256 83.0233 134.3456 82.6773 133.8176 82.4433 133.4056 82.0243 133.1786 81.4913 132.9426 80.9333 132.9366 80.3173 133.1636 79.7553L133.1666 79.7483C133.3286 79.3503 133.8066 79.1853 134.2046 79.3453L136.9026 80.4353C137.3146 80.6013 137.5306 81.0733 137.3576 81.4833 137.2306 81.7833 137.0256 82.0653 136.7136 82.3133zM142.2836 67.6923C142.0156 67.5853 141.7146 67.7143 141.6076 67.9793L138.3836 75.9643C138.1456 76.5553 137.4736 76.8403 136.8826 76.6023 136.2916 76.3633 136.0066 75.6913 136.2456 75.1013L139.7066 66.5273C140.0596 65.6533 140.9076 65.0813 141.8506 65.0813L143.3376 65.0813 146.8206 65.0813 154.9166 65.0813C155.2316 65.0813 155.4876 65.3363 155.4876 65.6513 155.4876 65.9663 155.2316 66.2233 154.9166 66.2233L153.7266 66.2233C149.9996 66.2233 146.9786 69.2443 146.9786 72.9713L146.9786 75.4623C146.9786 75.8643 146.6526 76.1893 146.2516 76.1893L140.7016 76.1893C140.0846 76.1893 139.6646 75.5653 139.8946 74.9943L142.5706 68.3683C142.6776 68.1023 142.5496 67.7993 142.2836 67.6923zM132.2006 79.3663C131.8836 80.1513 131.8816 81.0093 132.1856 81.7953L130.6756 81.7953C125.8016 81.7953 121.8516 77.8443 121.8516 72.9713L121.8516 67.3653C121.8516 64.1523 122.8606 61.0813 124.7706 58.4823 127.6126 54.6183 132.1476 52.3113 136.9046 52.3113L140.4236 52.3113C140.4446 52.3973 140.4686 52.4823 140.5036 52.5653 140.5076 52.5753 140.5146 52.5833 140.5196 52.5933 140.5306 52.6183 140.5446 52.6393 140.5576 52.6633 140.7266 52.9873 140.9686 53.2683 141.3086 53.4053L142.6306 53.9393C143.1236 54.1383 143.3616 54.6993 143.1626 55.1923L141.8526 58.4363 139.2696 58.4363C137.5986 58.4363 136.1516 59.6393 135.9026 61.2353 135.7526 62.2003 136.0286 63.1763 136.6616 63.9153 137.2926 64.6523 138.2066 65.0763 139.1706 65.0803L134.8506 75.7813 133.8366 75.3723C133.5156 75.2423 133.1606 75.1903 132.8226 75.2673 132.2806 75.3903 131.8556 75.7543 131.6536 76.2533L131.5726 76.4553C131.4436 76.7763 131.3906 77.1323 131.4666 77.4703 131.5896 78.0123 131.9556 78.4373 132.4536 78.6383L132.5766 78.6883C132.4286 78.8953 132.3006 79.1203 132.2006 79.3663zM124.4746 81.7953L110.7176 81.7953C109.3836 81.7953 108.3126 80.6453 108.4456 79.2833 108.5606 78.0973 109.6276 77.2273 110.8196 77.2273L116.3246 77.2273C117.2986 77.2273 118.0886 76.4373 118.0886 75.4623L118.0886 72.9713C118.0886 71.3083 118.8066 69.8123 119.9456 68.7693 120.2766 68.4653 120.8126 68.7093 120.8126 69.1583L120.8126 72.9713C120.8126 76.2023 122.3786 79.0683 124.7886 80.8663 125.1856 81.1633 124.9706 81.7953 124.4746 81.7953zM120.8296 63.7313L117.8816 63.7313C116.5466 63.7313 115.4756 62.5813 115.6086 61.2193 115.7246 60.0323 116.7906 59.1633 117.9826 59.1633L122.1986 59.1633C122.5866 59.1633 122.8396 59.5753 122.6586 59.9183 122.0816 61.0083 121.6366 62.1543 121.3286 63.3393 121.2696 63.5693 121.0666 63.7313 120.8296 63.7313zM149.3486 51.5753L151.7196 45.6383C151.7876 45.4703 151.9776 45.3893 152.1446 45.4573 153.9606 46.1903 155.0346 48.1613 154.5046 50.0463 154.0816 51.5563 152.8356 52.5573 151.4306 52.7803 151.3886 52.7593 151.3506 52.7333 151.3076 52.7163L149.5296 51.9983C149.3626 51.9313 149.2816 51.7413 149.3486 51.5753zM149.7576 44.6413C150.3486 44.8793 150.6336 45.5513 150.3956 46.1423L148.2416 51.4783 146.1026 50.6143 148.2566 45.2793C148.4946 44.6883 149.1666 44.4023 149.7576 44.6413zM150.5626 41.0683C150.6486 40.8883 150.7776 40.7373 150.9276 40.6533 151.0046 40.6103 151.1536 40.5483 151.2956 40.6053L151.4536 40.6683C151.5966 40.7263 151.6596 40.8753 151.6846 40.9583 151.7336 41.1233 151.7176 41.3203 151.6546 41.5083L150.5626 41.0683zM151.8536 42.7093C152.2476 42.8673 152.4376 43.3163 152.2786 43.7103 152.2026 43.9013 152.0556 44.0503 151.8666 44.1303 151.6786 44.2103 151.4696 44.2123 151.2786 44.1353L149.0146 43.2213C148.8246 43.1453 148.6746 42.9983 148.5946 42.8093 148.5146 42.6203 148.5126 42.4113 148.5896 42.2213L148.5896 42.2203C148.6666 42.0293 148.8126 41.8803 149.0016 41.8003 149.0986 41.7593 149.2006 41.7383 149.3026 41.7383 149.3996 41.7383 149.4976 41.7573 149.5906 41.7953L151.8536 42.7093zM141.7846 52.4783C141.6366 52.4193 141.5216 52.3053 141.4586 52.1593 141.3966 52.0123 141.3956 51.8503 141.4556 51.7033L141.8726 50.6693C141.9326 50.5213 142.0456 50.4053 142.1916 50.3433 142.2666 50.3113 142.3456 50.2953 142.4246 50.2953 142.4996 50.2953 142.5756 50.3103 142.6476 50.3393L150.9186 53.6783C151.0656 53.7383 151.1816 53.8523 151.2436 53.9983 151.3066 54.1453 151.3076 54.3063 151.2486 54.4543L150.8306 55.4873C150.7076 55.7923 150.3596 55.9403 150.0556 55.8173L141.7846 52.4783zM144.8546 58.4363L144.3026 58.4363C143.6666 58.4363 143.2326 57.7933 143.4706 57.2033L144.0546 55.7573C144.2926 55.1673 144.9646 54.8813 145.5556 55.1203 146.1456 55.3583 146.4316 56.0303 146.1926 56.6213L145.6866 57.8753C145.5496 58.2143 145.2206 58.4363 144.8546 58.4363zM148.4796 56.3013C148.3786 56.7513 148.3216 57.2173 148.3206 57.6973 148.3196 58.1033 147.9996 58.4363 147.5936 58.4363L146.8206 58.4363 146.5796 58.4363 147.2276 56.8333C147.4256 56.3403 147.9876 56.1023 148.4796 56.3013zM128.7036 51.2733C125.0746 51.2733 121.9576 49.0693 120.6056 45.9313 120.2516 45.1093 121.0176 44.2663 121.8746 44.5243 122.7726 44.7943 123.7246 44.9403 124.7096 44.9403L134.6756 44.9403C140.1236 44.9403 144.5386 40.5243 144.5386 35.0773L144.5386 31.0293C144.5386 28.6783 142.6326 26.7723 140.2816 26.7723L134.6756 26.7723C134.3896 26.7723 134.1566 27.0043 134.1566 27.2913 134.1566 27.5783 134.3896 27.8103 134.6756 27.8103L137.8086 27.8103 140.2816 27.8103C142.0596 27.8103 143.5006 29.2513 143.5006 31.0293L143.5006 35.0773C143.5006 39.9513 139.5496 43.9023 134.6756 43.9023L133.3506 43.9023 124.7096 43.9023C119.8356 43.9023 115.8846 39.9513 115.8846 35.0773L115.8846 31.0293C115.8846 29.2513 117.3256 27.8103 119.1036 27.8103L128.6786 27.8103C128.9646 27.8103 129.1966 27.5783 129.1976 27.2913 129.1976 27.0043 128.9646 26.7723 128.6786 26.7723L121.0276 26.7723C120.3866 26.7723 119.8976 26.1953 120.0006 25.5623 120.6806 21.3683 124.3206 18.1553 128.7036 18.1553L160.1276 18.1553 162.2836 18.1553C165.4306 18.1553 168.1906 19.8143 169.7506 22.3003 170.1866 22.9953 169.6936 23.9003 168.8736 23.9003L165.9006 23.9003 164.0226 23.9003C163.7366 23.9003 163.5036 24.1323 163.5036 24.4193 163.5036 24.7063 163.7366 24.9383 164.0226 24.9383L171.6016 24.9383C173.8946 24.9383 175.7546 26.7973 175.7546 29.0913L175.7546 36.5653C175.7546 38.8593 173.8946 40.7183 171.6016 40.7183L164.0226 40.7183C163.7366 40.7183 163.5036 40.9513 163.5036 41.2373 163.5036 41.5243 163.7366 41.7563 164.0226 41.7563L166.4356 41.7563C169.5356 42.2153 170.9716 45.9443 168.8966 48.2913 167.2806 50.1203 164.9166 51.2733 162.2836 51.2733L160.9336 51.2733 160.1276 51.2733 158.6026 51.2733 155.1146 51.2733C155.1886 51.1313 155.2686 50.9933 155.3296 50.8413 156.2956 48.4473 155.1996 45.7303 152.8876 44.6503 153.0356 44.4913 153.1576 44.3063 153.2426 44.0983 153.5616 43.3063 153.2746 42.4213 152.6056 41.9493 152.7736 41.5243 152.8006 41.0673 152.6786 40.6603 152.5456 40.2143 152.2406 39.8663 151.8416 39.7063L151.6846 39.6423C151.2876 39.4813 150.8256 39.5203 150.4186 39.7483 150.0486 39.9563 149.7506 40.3043 149.5776 40.7263 149.2486 40.6753 148.9106 40.7113 148.5966 40.8453 148.1516 41.0333 147.8076 41.3843 147.6446 41.7943L147.6436 41.7943C147.6376 41.8073 147.6316 41.8193 147.6266 41.8333 147.5426 42.0413 147.5026 42.2583 147.4986 42.4773 146.8946 42.2693 146.2696 42.1773 145.6286 42.2163 145.3426 42.2343 145.1256 42.4813 145.1436 42.7673 145.1446 42.7793 145.1506 42.7893 145.1526 42.8013 145.1886 43.0713 145.4266 43.2743 145.7026 43.2523 146.0936 43.2183 146.9546 43.4483 147.4356 43.5893 147.6206 43.6433 147.7156 43.8453 147.6436 44.0233L145.2616 49.9233C145.1946 50.0903 145.0046 50.1713 144.8376 50.1043L143.0366 49.3773C142.9926 49.3583 142.9456 49.3503 142.9006 49.3363 142.7156 49.0913 142.5556 48.8233 142.4326 48.5333 141.9306 47.3513 142.0486 46.0113 142.7906 44.8983 143.0466 44.5143 143.4256 44.2383 143.7596 43.9193 143.9356 43.7513 143.9676 43.4803 143.8356 43.2713 143.8296 43.2613 143.8296 43.2503 143.8226 43.2413 143.6556 43.0083 143.3306 42.9563 143.0976 43.1233 142.3586 43.6563 141.7866 44.3863 141.4436 45.2353 140.9596 46.4343 140.9716 47.7493 141.4766 48.9393 141.5476 49.1073 141.6306 49.2683 141.7186 49.4243 141.3516 49.6013 141.0626 49.8993 140.9096 50.2803L140.5086 51.2733 136.9046 51.2733 128.7036 51.2733zM127.9246 11.7133C127.8856 11.6743 127.8776 11.6303 127.8776 11.6003 127.8776 11.5693 127.8856 11.5253 127.9246 11.4863L130.0226 9.3883C130.0616 9.3493 130.1066 9.3413 130.1366 9.3413 130.1616 9.3413 130.2096 9.3473 130.2506 9.3883L132.3486 11.4863C132.3876 11.5253 132.3956 11.5693 132.3956 11.6003 132.3956 11.6303 132.3876 11.6743 132.3486 11.7133L130.2506 13.8123C130.1596 13.9033 130.0936 13.8823 130.0226 13.8123L127.9246 11.7133zM98.4666 77.1233L79.7816 77.1233 76.6666 77.1233C75.8066 77.1233 75.1096 76.4263 75.1096 75.5663L75.1096 75.0473C75.1096 74.1873 75.8066 73.4903 76.6666 73.4903L82.2976 73.4903 82.8166 73.4903 94.0456 73.4903 96.1226 73.4903 101.5816 73.4903C102.4406 73.4903 103.1386 74.1873 103.1386 75.0473L103.1386 75.5663C103.1386 76.4263 102.4406 77.1233 101.5816 77.1233L98.4666 77.1233zM100.5426 81.7953L99.5046 81.7953C99.2186 81.7953 98.9856 81.5633 98.9856 81.2763L98.9856 79.2003C98.9856 78.6263 99.4506 78.1623 100.0236 78.1623 100.5976 78.1623 101.0616 78.6263 101.0616 79.2003L101.0616 81.2763C101.0616 81.5633 100.8296 81.7953 100.5426 81.7953zM97.4286 81.7953L80.8196 81.7953C80.5326 81.7953 80.3006 81.5633 80.3006 81.2763L80.3006 79.2003C80.3006 78.6263 80.7656 78.1623 81.3386 78.1623L96.9096 78.1623C97.4826 78.1623 97.9476 78.6263 97.9476 79.2003L97.9476 81.2763C97.9476 81.5633 97.7146 81.7953 97.4286 81.7953zM78.7436 81.7953L77.7046 81.7953C77.4176 81.7953 77.1856 81.5633 77.1856 81.2763L77.1856 79.2003C77.1856 78.6263 77.6506 78.1623 78.2246 78.1623 78.7976 78.1623 79.2626 78.6263 79.2626 79.2003L79.2626 81.2763C79.2626 81.5633 79.0296 81.7953 78.7436 81.7953zM79.7026 69.8563L79.7026 69.3373C79.7026 68.1903 80.6316 67.2613 81.7786 67.2613L83.3356 67.2613C84.4826 67.2613 85.4126 68.1903 85.4126 69.3373L85.4126 69.8563C85.4126 71.2903 84.2496 72.4523 82.8166 72.4523L82.2976 72.4523C80.8646 72.4523 79.7026 71.2903 79.7026 69.8563zM91.4506 69.8563L91.4506 66.2233C91.4506 65.3623 92.1476 64.6653 93.0076 64.6653L97.1606 64.6653C98.0206 64.6653 98.7176 65.3623 98.7176 66.2233L98.7176 69.8563C98.7176 71.2903 97.5556 72.4523 96.1226 72.4523L94.0456 72.4523C92.6126 72.4523 91.4506 71.2903 91.4506 69.8563zM60.8986 81.5063L56.9246 81.5063C57.4476 81.1833 57.9356 80.7953 58.3696 80.3333 59.1486 79.5023 59.6926 78.5233 59.9926 77.4663L60.8986 77.4663C62.0126 77.4663 62.9186 78.3733 62.9186 79.4863 62.9186 80.6003 62.0126 81.5063 60.8986 81.5063zM48.7176 81.5063L46.5326 81.5063C46.5436 81.4943 46.5556 81.4833 46.5656 81.4713 47.1476 80.7923 47.4026 79.8933 47.2646 79.0043 47.0356 77.5363 45.7036 76.4283 44.1666 76.4283L42.0606 76.4283C41.9206 74.6593 41.0706 73.0893 39.8016 71.9933 38.6526 71.0003 37.1616 70.3943 35.5266 70.3943L34.7706 70.3943C34.6446 70.3943 34.5196 70.4003 34.3966 70.4133L35.0946 65.8793C35.4266 63.7183 36.5156 61.8583 38.0676 60.5423 38.4686 60.2023 39.0666 60.2403 39.4436 60.6083 40.1186 61.2683 40.8616 61.8663 41.6706 62.3903L41.9116 62.5463 45.8566 65.1053C48.2066 66.6283 50.8936 67.4153 53.6426 67.4153 54.6576 67.4153 55.6806 67.3083 56.6986 67.0913 57.3306 66.9563 57.9466 66.7803 58.5446 66.5683 58.5966 66.6023 58.6166 66.6153 58.6686 66.6493L58.8506 69.4953C58.8696 69.7813 59.1186 70.0013 59.4016 69.9803 59.6886 69.9613 59.9056 69.7143 59.8866 69.4283L59.8846 69.3873 59.7046 66.5833C59.7026 66.5513 59.6966 66.5203 59.6936 66.4883 59.9466 66.5613 60.2036 66.6173 60.4626 66.6623L61.3006 68.1153C61.5096 68.4783 61.6396 68.8743 61.6936 69.2793 61.7606 69.7673 61.7176 70.2683 61.5536 70.7443 61.2956 71.4933 60.7686 72.1133 60.0836 72.4923L60.0226 71.5483C60.0046 71.2623 59.7536 71.0473 59.4716 71.0633 59.1856 71.0823 58.9686 71.3283 58.9866 71.6143L59.2026 74.9833C59.3096 76.6493 58.7966 78.3253 57.6716 79.5593 56.5266 80.8143 54.9576 81.5063 53.2636 81.5063L48.7176 81.5063zM45.7776 80.7963C45.3916 81.2473 44.8316 81.5063 44.2436 81.5063L39.6406 81.5063 37.0006 81.5063C34.3546 81.5063 32.2026 79.3543 32.2026 76.7083L32.2026 74.0003C32.2026 72.5843 33.3546 71.4323 34.7706 71.4323L35.5266 71.4323C38.5676 71.4323 41.0416 73.9063 41.0416 76.9473 41.0416 77.2343 41.2746 77.4663 41.5606 77.4663L44.1666 77.4663C45.1966 77.4663 46.0876 78.1963 46.2386 79.1643 46.3316 79.7613 46.1676 80.3403 45.7776 80.7963zM36.4496 53.0863C35.9646 50.8083 36.0726 48.5023 36.7386 46.3473 36.9506 45.6633 37.8416 45.5333 38.2776 46.1023 38.4616 46.3433 38.6656 46.5743 38.8886 46.7943 38.9896 46.8933 39.1216 46.9433 39.2526 46.9433 39.3766 46.9433 39.4976 46.8943 39.5956 46.8063 39.6036 46.7993 39.6146 46.7963 39.6226 46.7893 39.9836 46.3913 39.4346 45.8833 39.2026 45.5983 37.4056 43.3913 37.5206 40.1283 39.5646 38.0583L39.7816 37.8383C41.9776 35.6173 45.5586 35.5953 47.7806 37.7893L50.6336 40.6053C50.8376 40.8053 51.1666 40.8043 51.3686 40.6003 51.5696 40.3963 51.5676 40.0673 51.3636 39.8653L49.9956 38.5153C49.9956 38.5153 48.4646 37.0103 48.4436 36.9903 48.8176 36.9593 49.1906 36.9393 49.5626 36.9393 51.2946 36.9393 52.9976 37.2833 54.5966 37.9413 54.5726 37.9873 54.5516 38.0343 54.5416 38.0843 54.5256 38.1643 54.5186 38.2923 54.5496 38.4633 54.6676 39.1153 55.3796 40.4233 58.6236 42.3553 61.0886 43.8243 62.5476 44.1833 63.3846 44.1833 63.5086 44.1833 63.6146 44.1733 63.7126 44.1603 65.9986 46.7483 67.1666 50.1063 67.0546 53.4823 67.0276 54.3043 66.1006 54.7753 65.4106 54.3283 65.4406 54.2583 65.4596 54.1833 65.4616 54.1023 65.4676 53.9133 65.4706 53.7243 65.4706 53.5363 65.4706 53.2983 65.4656 53.0613 65.4576 52.8273 65.4456 52.4863 65.1686 52.2223 64.8186 52.2323 64.4776 52.2453 64.2116 52.5303 64.2236 52.8713 64.2316 53.0913 64.2356 53.3143 64.2356 53.5373 64.2356 53.5473 64.2356 53.5563 64.2356 53.5663L59.6806 50.6123C58.9516 50.1393 58.0796 49.9793 57.2236 50.1623 56.3676 50.3443 55.6356 50.8463 55.1636 51.5763L53.5436 54.0723C51.3236 57.4963 52.2986 62.0713 55.7226 64.2913 55.7226 64.2913 56.1926 64.5943 56.6966 64.9193 57.1676 65.2233 57.0446 65.9553 56.4966 66.0733 56.4916 66.0743 56.4866 66.0753 56.4816 66.0763 52.9786 66.8233 49.4056 66.1683 46.4216 64.2343L42.2356 61.5193C42.1446 61.4613 42.0586 61.3983 41.9696 61.3373 39.1316 59.3993 37.1746 56.4833 36.4496 53.0863zM68.0356 57.2673C68.5326 57.5893 68.8736 58.0883 68.9986 58.6723 69.1236 59.2573 69.0146 59.8523 68.6926 60.3493L67.0726 62.8463C66.1546 64.2633 64.7316 65.2383 63.0676 65.5933 61.4026 65.9483 59.7066 65.6373 58.2906 64.7193L56.2876 63.4203C53.3506 61.5153 52.5096 57.5753 54.4146 54.6383L56.0346 52.1413C56.3556 51.6443 56.8556 51.3013 57.4396 51.1773 58.0236 51.0523 58.6196 51.1613 59.1166 51.4833L68.0356 57.2673zM68.8006 51.2853C69.4086 52.6683 69.4406 54.2043 68.8916 55.6123L68.7796 55.8993C68.7156 56.0633 68.6436 56.2203 68.5656 56.3743L67.8126 55.8863C68.1976 53.9753 68.1926 51.9843 67.7726 50.0143 67.7446 49.8823 67.7106 49.7523 67.6796 49.6233 68.1426 50.1003 68.5256 50.6573 68.8006 51.2853zM29.2266 81.2763C29.2266 81.5623 28.9926 81.7953 28.7066 81.7953L26.2726 81.7953 24.4036 81.7953C24.1186 81.7953 23.8846 81.5623 23.8846 81.2763L23.8846 80.1963C23.8846 79.4833 24.4626 78.9053 25.1756 78.9053L26.1916 78.9053C26.7956 78.9053 27.4726 79.3723 27.5586 79.9703 27.5946 80.2273 27.8146 80.4163 28.0716 80.4163L28.6906 80.4163C28.9866 80.4163 29.2266 80.6553 29.2266 80.9513L29.2266 81.2763zM15.7666 82.8153C15.7626 82.8153 15.7596 82.8133 15.7556 82.8123 14.8776 82.5343 14.1636 81.8893 13.7966 81.0433 13.7866 81.0193 13.7746 80.9953 13.7596 80.9733L13.6596 80.8143C13.3146 79.9893 13.3316 79.0543 13.7076 78.2423 13.7606 78.1293 13.8196 78.0213 13.8836 77.9163 14.1406 77.5033 14.7226 77.4403 15.0756 77.7753 15.7496 78.4163 16.5726 79.6643 16.7416 81.9873 16.7806 82.5263 16.2816 82.9773 15.7666 82.8153zM154.7166 9.3883C154.7556 9.3493 154.8006 9.3413 154.8306 9.3413 154.8556 9.3413 154.9036 9.3473 154.9446 9.3883L157.0426 11.4863C157.0816 11.5253 157.0896 11.5693 157.0896 11.6003 157.0896 11.6303 157.0816 11.6743 157.0416 11.7133L154.9446 13.8123C154.8526 13.9033 154.7876 13.8823 154.7166 13.8123L152.6186 11.7133C152.5796 11.6743 152.5716 11.6303 152.5716 11.6003 152.5716 11.5693 152.5796 11.5253 152.6186 11.4863L154.7166 9.3883zM194.6466 81.7953L169.7286 81.7953C168.4066 81.7953 167.6946 80.2593 168.5376 79.2403 169.9606 77.5213 170.7966 75.3263 170.7966 72.9713L170.7966 61.1363C170.7966 57.7943 169.1246 54.8383 166.5746 53.0553 165.9126 52.5923 165.9846 51.6133 166.7056 51.2513 169.9326 49.6273 172.1516 46.2883 172.1456 42.4353 172.1456 42.0353 172.4356 41.7043 172.8246 41.6103 175.0986 41.0593 176.7926 39.0063 176.7926 36.5653L176.7926 29.0913C176.7926 26.4163 174.7576 24.2083 172.1546 23.9313 171.8506 23.8993 171.5826 23.6993 171.4716 23.4143 170.0396 19.7343 166.4636 17.1173 162.2836 17.1173L154.8306 17.1173 130.6556 17.1173 130.6556 14.7743C130.7756 14.7163 130.8876 14.6433 130.9846 14.5453L133.0816 12.4483C133.3096 12.2213 133.4336 11.9203 133.4336 11.6003 133.4336 11.2793 133.3096 10.9783 133.0826 10.7523L130.9846 8.6543C130.8886 8.5583 130.7756 8.4873 130.6556 8.4323L130.6556 1.9513C130.6556 1.9323 130.6556 1.8803 130.7226 1.8573 130.7896 1.8363 130.8206 1.8763 130.8326 1.8923L135.4046 7.9273C135.8586 8.5273 136.7616 8.5273 137.2156 7.9273L142.4056 1.0773C142.4486 1.0203 142.5196 1.0203 142.5616 1.0773L147.7506 7.9273C147.9676 8.2133 148.2976 8.3773 148.6566 8.3773L148.6576 8.3773C149.0166 8.3773 149.3466 8.2123 149.5626 7.9273L154.1346 1.8913C154.1466 1.8763 154.1776 1.8353 154.2446 1.8573 154.3116 1.8803 154.3116 1.9323 154.3116 1.9513L154.3116 8.4323C154.1916 8.4873 154.0786 8.5583 153.9826 8.6543L151.8846 10.7523C151.6576 10.9783 151.5336 11.2793 151.5336 11.6003 151.5336 11.9203 151.6576 12.2213 151.8846 12.4473L153.9826 14.5453C154.2086 14.7723 154.5106 14.8973 154.8306 14.8973 155.1506 14.8973 155.4516 14.7723 155.6786 14.5453L157.7756 12.4483C158.0026 12.2213 158.1276 11.9203 158.1276 11.6003 158.1276 11.2793 158.0026 10.9783 157.7766 10.7523L155.6786 8.6543C155.5826 8.5583 155.4696 8.4873 155.3496 8.4323L155.3496 2.0053C155.3496 1.5303 155.0836 1.0763 154.6436.8983 154.1526.7013 153.6206.8503 153.3076 1.2643L150.3116 5.2183C149.4016 6.4203 147.9126 6.4203 147.0016 5.2183L143.3896.4503C143.1726.1643 142.8426.0003 142.4836.0003 142.1246.0003 141.7946.1643 141.5776.4503L137.9646 5.2183C137.0546 6.4203 135.5656 6.4203 134.6546 5.2183L131.7076 1.3283C131.4126.9383 130.9106.7233 130.4406.8583 129.9426 1.0033 129.6176 1.4383 129.6176 1.9513L129.6176 8.4323C129.4986 8.4873 129.3846 8.5583 129.2896 8.6543L127.1906 10.7523C126.9636 10.9783 126.8396 11.2793 126.8396 11.6003 126.8396 11.9203 126.9636 12.2213 127.1906 12.4473L129.2896 14.5453C129.3856 14.6433 129.4986 14.7163 129.6176 14.7743L129.6176 17.1173 128.7036 17.1173C123.6076 17.1173 119.4086 21.0043 118.9006 25.9683 118.8556 26.4053 118.5546 26.7903 118.1256 26.8913 116.2486 27.3333 114.8466 29.0183 114.8466 31.0293L114.8466 35.0773C114.8466 38.1633 116.2776 40.9153 118.5036 42.7233 118.7326 42.9093 118.8746 43.1743 118.9056 43.4663 119.4166 48.4273 123.6096 52.3113 128.7036 52.3113L128.9046 52.3113C129.4356 52.3113 129.6316 53.0243 129.1666 53.2813 127.1376 54.3993 125.3416 55.9543 123.9346 57.8683 123.8726 57.9523 123.8206 58.0403 123.7606 58.1253L117.9976 58.1253C116.3096 58.1253 114.8026 59.3353 114.5876 61.0103 114.3276 63.0353 115.9056 64.7693 117.8816 64.7693L121.0236 64.7693C120.9086 65.4763 120.8506 66.1953 120.8306 66.9203 118.5956 68.0213 117.0506 70.3153 117.0506 72.9713L117.0506 75.4623C117.0506 75.8643 116.7256 76.1893 116.3246 76.1893L110.8606 76.1893C109.0126 76.1893 107.3756 77.7003 107.3956 79.5473 107.4056 80.4183 107.7536 81.2073 108.3116 81.7953L102.6196 81.7953C102.3326 81.7953 102.1006 81.5633 102.1006 81.2763L102.1006 79.2003C102.1006 78.6263 102.5646 78.1623 103.1386 78.1623L103.6576 78.1623C103.9446 78.1623 104.1766 77.9293 104.1766 77.6423L104.1766 72.9713C104.1766 72.6843 103.9446 72.4523 103.6576 72.4523L99.7146 72.4523C99.3216 72.4523 99.0606 72.0253 99.2586 71.6873 99.5746 71.1493 99.7556 70.5233 99.7556 69.8563L99.7556 65.1843C99.7556 64.3243 99.0586 63.6273 98.1986 63.6273L91.9696 63.6273C91.1096 63.6273 90.4126 64.3243 90.4126 65.1843L90.4126 69.8563C90.4126 70.5233 90.5936 71.1493 90.9096 71.6873 91.1086 72.0253 90.8466 72.4523 90.4536 72.4523L86.4096 72.4523C86.0166 72.4523 85.7546 72.0253 85.9536 71.6873 86.2696 71.1493 86.4506 70.5233 86.4506 69.8563L86.4506 68.2993C86.4506 67.1523 85.5206 66.2233 84.3736 66.2233L80.7406 66.2233C79.5936 66.2233 78.6646 67.1523 78.6646 68.2993L78.6646 69.8563C78.6646 70.5233 78.8456 71.1493 79.1606 71.6873 79.3596 72.0253 79.0986 72.4523 78.7056 72.4523L74.5906 72.4523C74.3036 72.4523 74.0716 72.6843 74.0716 72.9713L74.0716 77.6423C74.0716 77.9293 74.3036 78.1623 74.5906 78.1623L75.1096 78.1623C75.6826 78.1623 76.1476 78.6263 76.1476 79.2003L76.1476 81.2763C76.1476 81.5633 75.9146 81.7953 75.6286 81.7953L64.7896 81.7953C64.0786 81.7953 63.5896 81.1013 63.8096 80.4253 63.9696 79.9323 64.0066 79.3853 63.8856 78.8173 63.5816 77.3953 62.2446 76.4283 60.7896 76.4283 60.4856 76.4283 60.2406 76.1773 60.2556 75.8733 60.2686 75.6163 60.2676 75.3563 60.2506 75.0953L60.1786 73.9743C60.1646 73.7533 60.2906 73.5553 60.4876 73.4533 61.9576 72.6913 62.9056 71.1053 62.7516 69.2953 62.6976 68.6613 62.4646 68.0543 62.1456 67.5023 61.9566 67.1753 62.1656 66.7713 62.5416 66.7293 62.7896 66.7023 63.0376 66.6623 63.2846 66.6093 65.2196 66.1963 66.8746 65.0613 67.9436 63.4113L69.4776 61.0453C70.0026 60.2363 70.2236 59.2413 69.9786 58.3083 69.9176 58.0763 69.8326 57.8543 69.7256 57.6443 69.5376 57.2783 69.4976 56.8593 69.6616 56.4823 69.6916 56.4143 69.7196 56.3453 69.7466 56.2763L69.8006 56.1383C70.3646 54.6933 70.4846 53.0923 70.0276 51.6103 69.5346 50.0103 68.5066 48.7073 67.1396 47.8663 66.6336 46.5313 65.9376 45.2913 65.0746 44.1773 64.7776 43.7943 64.7626 43.2633 65.0196 42.8523L65.0196 42.8513C65.1666 42.6053 65.0856 42.2863 64.8396 42.1393 64.5926 41.9933 64.2746 42.0733 64.1276 42.3193L64.1266 42.3213C63.7956 42.8843 63.1346 43.1713 62.5026 43.0063 61.7906 42.8203 60.7166 42.3933 59.1546 41.4633 57.6106 40.5443 56.7306 39.8123 56.2296 39.2793 55.7806 38.8013 55.7166 38.0813 56.0526 37.5183L58.1866 33.9343C58.4416 33.5073 59.0936 33.6483 59.1486 34.1433L59.2476 35.0233C59.2746 35.2683 59.4116 35.4813 59.6236 35.6063 59.8346 35.7323 60.0866 35.7513 60.3156 35.6593L62.7296 34.6803C63.0476 34.5513 63.4026 34.7623 63.4406 35.1043L63.7286 37.6933C63.7566 37.9383 63.8936 38.1503 64.1046 38.2763 64.3166 38.4023 64.5686 38.4213 64.7966 38.3293L65.6176 37.9963C66.0786 37.8093 66.5136 38.3153 66.2586 38.7433L65.0546 40.7653C64.9076 41.0113 64.9886 41.3303 65.2346 41.4763 65.4806 41.6233 65.7996 41.5423 65.9466 41.2963L68.3346 37.2873C68.5066 36.9993 68.4746 36.6343 68.2566 36.3793 68.0386 36.1253 67.6826 36.0393 67.3716 36.1653L64.7226 37.2393 64.3576 33.9683C64.3306 33.7243 64.1936 33.5113 63.9816 33.3853 63.7706 33.2603 63.5186 33.2413 63.2896 33.3333L60.2406 34.5693 59.9246 31.7293C59.8876 31.3963 59.6426 31.1243 59.3146 31.0533 58.9866 30.9813 58.6506 31.1273 58.4786 31.4163L55.6526 36.1603C55.3586 36.6543 54.7586 36.8713 54.2156 36.6833 52.0016 35.9183 49.6266 35.7073 47.2626 36.0853 45.9226 35.2733 44.3316 34.9413 42.6976 35.2093 41.2576 35.4443 39.9506 36.1903 38.9256 37.2283L38.8256 37.3293C37.4116 38.7623 36.7826 40.6773 36.9256 42.5433 36.9596 42.9853 36.8436 43.4223 36.6436 43.8183 35.1716 46.7313 34.7396 50.0443 35.4346 53.3023 35.7966 55.0003 36.4456 56.5863 37.3406 58.0073 37.7476 58.6533 37.6626 59.4903 37.1016 60.0063 35.5216 61.4613 34.4186 63.4413 34.0686 65.7223L33.5376 69.1733C33.4146 69.9713 33.0516 70.7333 32.4366 71.2563 31.6596 71.9173 31.1646 72.9013 31.1646 74.0003L31.1646 76.7083C31.1646 78.1263 31.6736 79.4263 32.5176 80.4373 32.9686 80.9783 32.6116 81.7953 31.9076 81.7953L31.1086 81.7953C30.6426 81.7953 30.2646 81.4173 30.2646 80.9513 30.2646 80.0823 29.5596 79.3773 28.6906 79.3773L28.4676 79.3773C28.1336 78.4813 27.2766 77.8673 26.2886 77.8673L26.0556 77.8673C26.2176 77.2383 26.2156 76.5623 26.0006 75.9063 25.9456 75.7393 25.8106 75.6113 25.6406 75.5663 25.4696 75.5203 25.2896 75.5653 25.1586 75.6833 25.0386 75.7923 24.8946 75.8813 24.7306 75.9493 23.7766 76.3443 23.2486 75.6403 23.1086 75.4163 23.0276 75.2853 22.8936 75.1973 22.7416 75.1753 22.5896 75.1533 22.4356 75.2003 22.3216 75.3023 22.2026 75.4093 22.0606 75.4973 21.8986 75.5643 21.5256 75.7183 21.1776 75.7223 20.8626 75.5753 20.5156 75.4133 20.2286 75.0673 20.0976 74.6503 20.0116 74.3773 19.7206 74.2253 19.4466 74.3113 19.1756 74.3973 19.0246 74.6843 19.1066 74.9563 19.1076 74.9583 19.1066 74.9603 19.1076 74.9623 19.3276 75.6623 19.8076 76.2293 20.4236 76.5163 21.0046 76.7873 21.6526 76.7893 22.2956 76.5233 22.3866 76.4853 22.4746 76.4433 22.5596 76.3973 23.2216 77.0963 24.1826 77.3003 25.1286 76.9083L25.1356 76.9053C25.1486 77.2443 25.0896 77.5783 24.9686 77.8883 23.9346 77.9813 23.0906 78.7423 22.8926 79.7433L18.3776 82.4963C18.1956 82.6063 18.0046 82.6953 17.8086 82.7673 17.7836 79.3963 16.5646 77.6823 15.6056 76.8603 15.6386 76.7123 15.6446 76.6823 15.6776 76.5333L17.3846 76.0183C17.6596 75.9353 17.8146 75.6463 17.7316 75.3713 17.6486 75.0973 17.3606 74.9433 17.0846 75.0243L15.4546 75.5163C14.9046 75.6813 14.3776 75.9343 13.9356 76.2993 12.4076 77.5613 11.9976 79.5893 12.7226 81.2613 12.7326 81.2853 12.7456 81.3093 12.7596 81.3313L12.8606 81.4933C13.3516 82.5963 14.2906 83.4373 15.4416 83.8023 15.8596 83.9343 16.2906 84.0003 16.7196 84.0003 17.4866 84.0003 18.2486 83.7903 18.9176 83.3823L22.2406 81.3563C22.5016 81.1973 22.8506 81.3783 22.8466 81.6843 22.8396 82.3173 23.3516 82.8333 23.9826 82.8333L26.2726 82.8333 29.1276 82.8333 76.6666 82.8333 79.7816 82.8333 98.4666 82.8333 101.5816 82.8333 110.7176 82.8333 130.6756 82.8333 132.8386 82.8333C133.1676 83.1913 133.5646 83.4833 134.0286 83.6703 134.4336 83.8343 134.8506 83.9103 135.2626 83.9103 136.1856 83.9103 137.0706 83.5153 137.6976 82.8333L138.4656 82.8333 158.6026 82.8333 161.9286 82.8333 194.6466 82.8333C194.9336 82.8333 195.1656 82.6013 195.1656 82.3143 195.1656 82.0273 194.9336 81.7953 194.6466 81.7953z"/>
    <path fill="#B9BBBE" d="M55.5928 73.9418C55.3898 73.7388 55.0618 73.7388 54.8588 73.9418L54.0978 74.7028 53.3358 73.9418C53.1338 73.7388 52.8048 73.7388 52.6018 73.9418 52.3998 74.1448 52.3998 74.4728 52.6018 74.6758L53.3638 75.4368 52.6018 76.1988C52.3998 76.4008 52.3998 76.7298 52.6018 76.9328 52.7038 77.0338 52.8368 77.0848 52.9688 77.0848 53.1018 77.0848 53.2348 77.0338 53.3358 76.9328L54.0978 76.1708 54.8588 76.9328C54.9608 77.0338 55.0928 77.0848 55.2258 77.0848 55.3588 77.0848 55.4918 77.0338 55.5928 76.9328 55.7958 76.7298 55.7958 76.4008 55.5928 76.1988L54.8318 75.4368 55.5928 74.6758C55.7958 74.4728 55.7958 74.1448 55.5928 73.9418M63.168 46.976C63.252 47.238 63.495 47.405 63.756 47.405 63.818 47.405 63.882 47.395 63.944 47.375 64.269 47.271 64.448 46.924 64.344 46.599 64.102 45.844 63.916 45.401 63.908 45.383 63.775 45.069 63.413 44.922 63.099 45.055 62.785 45.187 62.638 45.549 62.771 45.863 62.772 45.867 62.945 46.279 63.168 46.976M63.7798 49.3026C63.8618 49.6946 63.9338 50.0936 63.9938 50.4856 64.0408 50.7906 64.3038 51.0096 64.6038 51.0096 64.6348 51.0096 64.6668 51.0066 64.6978 51.0016 65.0348 50.9496 65.2658 50.6356 65.2148 50.2986 65.1508 49.8836 65.0748 49.4646 64.9888 49.0506 64.9188 48.7166 64.5928 48.5026 64.2588 48.5726 63.9248 48.6416 63.7098 48.9686 63.7798 49.3026M41.4209 44.746C41.5549 44.746 41.6889 44.695 41.7909 44.592 41.9919 44.388 41.9899 44.059 41.7859 43.857 41.2969 43.376 41.0259 42.733 41.0219 42.047 41.0169 41.361 41.2799 40.715 41.7619 40.227L41.9789 40.007C42.4609 39.519 43.1039 39.247 43.7899 39.243 44.4659 39.242 45.1219 39.501 45.6099 39.983 45.8139 40.184 46.1419 40.183 46.3439 39.978 46.5459 39.774 46.5429 39.446 46.3389 39.244 45.6539 38.568 44.7389 38.193 43.7829 38.205 42.8189 38.211 41.9169 38.592 41.2399 39.278L41.0229 39.497C40.3459 40.183 39.9779 41.091 39.9839 42.054 39.9899 43.017 40.3709 43.92 41.0559 44.597 41.1579 44.697 41.2889 44.746 41.4209 44.746M48.379 48.5063L48.552 48.2393C48.954 47.6203 49.629 47.2823 50.318 47.2823 50.709 47.2823 51.105 47.3923 51.457 47.6203L51.724 47.7933C52.192 48.0973 52.514 48.5673 52.631 49.1183 52.749 49.6693 52.647 50.2303 52.343 50.6973L52.17 50.9643C51.866 51.4323 51.396 51.7553 50.845 51.8733 50.294 51.9893 49.733 51.8873 49.265 51.5843L48.999 51.4113C48.53 51.1073 48.208 50.6373 48.09 50.0863 47.973 49.5363 48.075 48.9743 48.379 48.5063M48.434 52.2823L48.7 52.4553C49.212 52.7873 49.798 52.9583 50.397 52.9583 50.618 52.9583 50.84 52.9353 51.062 52.8883 51.883 52.7133 52.587 52.2303 53.041 51.5293L53.214 51.2623C54.155 49.8113 53.74 47.8633 52.289 46.9223L52.022 46.7493C50.57 45.8073 48.623 46.2233 47.681 47.6743L47.508 47.9423C47.054 48.6423 46.9 49.4813 47.075 50.3023 47.251 51.1253 47.733 51.8273 48.434 52.2823"/>
    <path fill="#B9BBBE" d="M49.2481 49.6161C49.5331 49.8011 49.9171 49.7191 50.1021 49.4341 50.2871 49.1491 50.2051 48.7651 49.9201 48.5801 49.6351 48.3951 49.2501 48.4771 49.0661 48.7621 48.8811 49.0471 48.9631 49.4311 49.2481 49.6161M50.8018 50.6239C51.0868 50.8089 51.4708 50.7269 51.6558 50.4419 51.8408 50.1569 51.7588 49.7729 51.4738 49.5879 51.1888 49.4029 50.8048 49.4849 50.6198 49.7699 50.4348 50.0549 50.5168 50.4389 50.8018 50.6239M42.2442 66.7714C42.1862 66.7714 42.1332 66.7874 42.0812 66.8044 41.8762 66.8734 41.7252 67.0624 41.7252 67.2904 41.7252 68.3044 40.9002 69.1294 39.8852 69.1294 38.8702 69.1294 38.0452 68.3044 38.0452 67.2904L38.0452 66.1684 38.0452 65.8344C38.0452 64.8194 38.8702 63.9944 39.8862 63.9944 40.1732 63.9944 40.4042 63.7624 40.4042 63.4754 40.4042 63.1884 40.1712 62.9564 39.8852 62.9564 38.2982 62.9564 37.0072 64.2474 37.0072 65.8344L37.0072 67.2904C37.0072 68.8774 38.2982 70.1674 39.8862 70.1674 39.9532 70.1674 40.0182 70.1624 40.0842 70.1584 41.5782 70.0554 42.7632 68.8104 42.7632 67.2904 42.7632 67.0034 42.5312 66.7714 42.2442 66.7714M144.7427 11.6C144.7427 11.63 144.7347 11.675 144.6957 11.714L142.5967 13.812C142.5347 13.875 142.4327 13.875 142.3697 13.812L140.2717 11.714C140.2087 11.651 140.2087 11.549 140.2717 11.486L142.3697 9.388C142.4007 9.357 142.4417 9.341 142.4837 9.341 142.5247 9.341 142.5657 9.357 142.5967 9.388L144.6957 11.487C144.7347 11.525 144.7427 11.57 144.7427 11.6M141.6357 8.654L139.5377 10.752C139.0707 11.22 139.0707 11.98 139.5377 12.448L141.6357 14.546C141.8687 14.78 142.1767 14.897 142.4837 14.897 142.7907 14.897 143.0977 14.78 143.3307 14.546L145.4297 12.448C145.6557 12.222 145.7807 11.921 145.7807 11.6 145.7807 11.28 145.6557 10.978 145.4297 10.752L143.3307 8.654C142.8637 8.187 142.1027 8.187 141.6357 8.654M179.5655 62.3554C179.6715 62.3474 179.7775 62.3434 179.8835 62.3434 180.9855 62.3434 182.0455 62.7794 182.8315 63.5644 183.6915 64.4254 184.1325 65.6154 184.0405 66.8304 183.9095 68.5514 182.7075 70.0334 181.0495 70.5164L174.4765 72.4344C174.2645 72.4974 174.1185 72.3814 174.0665 72.3294 174.0145 72.2764 173.8995 72.1324 173.9615 71.9194L175.8785 65.3464C176.3625 63.6884 177.8435 62.4864 179.5655 62.3554M174.8815 65.0554L172.9645 71.6284C172.8155 72.1384 172.9575 72.6884 173.3325 73.0634 173.6085 73.3394 173.9805 73.4894 174.3595 73.4894 174.4955 73.4894 174.6325 73.4694 174.7665 73.4304L181.3405 71.5134C183.4105 70.9094 184.9115 69.0594 185.0755 66.9084 185.1905 65.3924 184.6405 63.9064 183.5655 62.8304 182.4895 61.7554 181.0035 61.2034 179.4865 61.3204 177.3365 61.4834 175.4855 62.9844 174.8815 65.0554M146.6646 52.3031C146.2366 52.1301 145.7486 52.3371 145.5766 52.7651 145.4036 53.1941 145.6106 53.6811 146.0386 53.8541 146.4666 54.0271 146.9546 53.8201 147.1266 53.3911 147.2996 52.9631 147.0926 52.4761 146.6646 52.3031M143.563 51.0507C143.135 50.8777 142.647 51.0847 142.475 51.5127 142.302 51.9417 142.509 52.4287 142.937 52.6017 143.365 52.7747 143.853 52.5677 144.025 52.1387 144.198 51.7107 143.991 51.2237 143.563 51.0507M149.7662 53.5551C149.3382 53.3821 148.8502 53.5891 148.6782 54.0171 148.5042 54.4461 148.7122 54.9331 149.1402 55.1061 149.5682 55.2791 150.0552 55.0721 150.2282 54.6431 150.4012 54.2151 150.1942 53.7281 149.7662 53.5551M9.0093 81.6972C9.0093 81.7502 8.9643 81.7952 8.9113 81.7952L6.8533 81.7952C6.8013 81.7952 6.7553 81.7492 6.7553 81.6972L6.7553 81.5572C6.7553 80.9362 7.2603 80.4302 7.8833 80.4302 8.5043 80.4302 9.0093 80.9362 9.0093 81.5572L9.0093 81.6972zM7.8813 79.3922C6.6883 79.3922 5.7173 80.3642 5.7173 81.5572L5.7173 81.6972C5.7173 82.3232 6.2263 82.8332 6.8533 82.8332L8.9113 82.8332C9.5373 82.8332 10.0473 82.3232 10.0473 81.6972L10.0473 81.5572C10.0473 80.3642 9.0763 79.3922 7.8813 79.3922zM71.9844 30.7519C72.4174 30.7519 72.7684 31.1029 72.7684 31.5359 72.7684 31.8229 73.0004 32.0549 73.2874 32.0549 73.5734 32.0549 73.8064 31.8229 73.8064 31.5359 73.8064 31.1029 74.1574 30.7519 74.5894 30.7519L74.5904 30.7519C74.8774 30.7519 75.1094 30.5199 75.1094 30.2329 75.1094 29.9459 74.8774 29.7139 74.5904 29.7139L74.5894 29.7139C74.1574 29.7139 73.8064 29.3629 73.8064 28.9299 73.8064 28.6439 73.5734 28.4109 73.2874 28.4109 73.0004 28.4109 72.7684 28.6439 72.7684 28.9299 72.7684 29.3629 72.4174 29.7139 71.9844 29.7139 71.6974 29.7139 71.4654 29.9459 71.4654 30.2329 71.4654 30.5199 71.6974 30.7519 71.9844 30.7519M83.0762 57.0819L83.3412 57.0819C83.6272 57.0819 83.8602 57.3139 83.8602 57.6009L83.8602 57.8659C83.8602 58.1519 84.0922 58.3849 84.3792 58.3849 84.6662 58.3849 84.8982 58.1519 84.8982 57.8659L84.8982 57.6009C84.8982 57.3139 85.1312 57.0819 85.4172 57.0819L85.6822 57.0819C85.9692 57.0819 86.2012 56.8499 86.2012 56.5619 86.2012 56.2759 85.9692 56.0429 85.6822 56.0429L85.4172 56.0429C85.1312 56.0429 84.8982 55.8109 84.8982 55.5239L84.8982 55.2599C84.8982 54.9729 84.6662 54.7409 84.3792 54.7409 84.0922 54.7409 83.8602 54.9729 83.8602 55.2599L83.8602 55.5239C83.8602 55.8109 83.6272 56.0429 83.3412 56.0429L83.0762 56.0429C82.7892 56.0429 82.5572 56.2759 82.5572 56.5619 82.5572 56.8499 82.7892 57.0819 83.0762 57.0819M102.7076 43.5004C102.8406 43.5004 102.9736 43.4494 103.0746 43.3484L103.6886 42.7334C103.8916 42.5314 103.8916 42.2024 103.6886 42.0004 103.4856 41.7974 103.1566 41.7974 102.9546 42.0004L102.3406 42.6144C102.1376 42.8174 102.1376 43.1464 102.3406 43.3484 102.4416 43.4494 102.5746 43.5004 102.7076 43.5004M99.6368 46.5712C99.7698 46.5712 99.9028 46.5202 100.0038 46.4192L100.6178 45.8052C100.8208 45.6022 100.8208 45.2742 100.6178 45.0712 100.4148 44.8682 100.0868 44.8682 99.8838 45.0712L99.2698 45.6852C99.0668 45.8882 99.0668 46.2162 99.2698 46.4192 99.3708 46.5202 99.5038 46.5712 99.6368 46.5712M102.9546 46.4193C103.0566 46.5203 103.1886 46.5713 103.3216 46.5713 103.4546 46.5713 103.5876 46.5203 103.6886 46.4193 103.8916 46.2163 103.8916 45.8883 103.6886 45.6853L103.0746 45.0713C102.8716 44.8683 102.5426 44.8683 102.3406 45.0713 102.1376 45.2733 102.1376 45.6023 102.3406 45.8053L102.9546 46.4193zM99.8838 43.3485C99.9848 43.4495 100.1178 43.5005 100.2508 43.5005 100.3838 43.5005 100.5158 43.4495 100.6178 43.3485 100.8208 43.1455 100.8208 42.8175 100.6178 42.6145L100.0038 41.9995C99.8008 41.7975 99.4718 41.7975 99.2698 41.9995 99.0668 42.2025 99.0668 42.5315 99.2698 42.7335L99.8838 43.3485zM101.479 58.3798C101.911 58.3798 102.263 58.7318 102.263 59.1638 102.263 59.5958 101.911 59.9468 101.479 59.9468 101.047 59.9468 100.695 59.5958 100.695 59.1638 100.695 58.7318 101.047 58.3798 101.479 58.3798M101.479 60.9848C102.483 60.9848 103.301 60.1678 103.301 59.1638 103.301 58.1588 102.483 57.3418 101.479 57.3418 100.475 57.3418 99.657 58.1588 99.657 59.1638 99.657 60.1678 100.475 60.9848 101.479 60.9848M151.1832 34.9047C152.4682 34.9047 153.5192 33.8537 153.5192 32.5687 153.5192 31.2837 152.4682 30.2327 151.1832 30.2327 149.8982 30.2327 148.8472 31.2837 148.8472 32.5687 148.8472 33.8537 149.8982 34.9047 151.1832 34.9047M155.4678 29.7743C155.7548 29.7743 155.9868 29.5423 155.9868 29.2553 155.9868 28.9683 155.7548 28.7363 155.4678 28.7363 153.9258 28.7363 153.3828 27.4223 153.3568 27.3573 153.2538 27.0903 152.9538 26.9583 152.6878 27.0593 152.4198 27.1613 152.2848 27.4613 152.3868 27.7293 152.4198 27.8123 153.1938 29.7743 155.4678 29.7743"/>
  </g>
</svg>
