<svg xmlns="http://www.w3.org/2000/svg" width="320" height="280">
  <g fill="none" fill-rule="evenodd">
    <path fill="#FFF" d="M112.884 250.836c0 10.68-8.658 19.338-19.338 19.338-10.68 0-19.338-8.658-19.338-19.338 0-10.68 8.658-19.338 19.338-19.338 10.68 0 19.338 8.658 19.338 19.338"/>
    <path fill="#FFF" d="M112.884 250.836c0 10.68-8.658 19.338-19.338 19.338-10.68 0-19.338-8.658-19.338-19.338 0-10.68 8.658-19.338 19.338-19.338 10.68 0 19.338 8.658 19.338 19.338"/>
    <path fill="#FFF" d="M112.884 250.836c0 10.68-8.658 19.338-19.338 19.338-10.68 0-19.338-8.658-19.338-19.338 0-10.68 8.658-19.338 19.338-19.338 10.68 0 19.338 8.658 19.338 19.338"/>
    <path stroke="#D5DBED" stroke-width="2" d="M112.884 250.836c0 10.68-8.658 19.338-19.338 19.338-10.68 0-19.338-8.658-19.338-19.338 0-10.68 8.658-19.338 19.338-19.338 10.68 0 19.338 8.658 19.338 19.338z" stroke-linecap="round" stroke-linejoin="round"/>
    <path stroke="#D5DBED" stroke-width="2" d="M104.973 250.836c0 6.311-5.116 11.427-11.427 11.427s-11.427-5.116-11.427-11.427 5.116-11.427 11.427-11.427 11.427 5.116 11.427 11.427z" stroke-linecap="round" stroke-linejoin="round"/>
    <path fill="#FFF" d="M126.9479 234.1351c0 10.68-8.658 19.338-19.338 19.338-10.68 0-19.338-8.658-19.338-19.338 0-10.68 8.658-19.338 19.338-19.338 10.68 0 19.338 8.658 19.338 19.338"/>
    <path fill="#FFF" d="M126.9479 234.1351c0 10.68-8.658 19.338-19.338 19.338-10.68 0-19.338-8.658-19.338-19.338 0-10.68 8.658-19.338 19.338-19.338 10.68 0 19.338 8.658 19.338 19.338"/>
    <path fill="#FFF" d="M126.9479 234.1351c0 10.68-8.658 19.338-19.338 19.338-10.68 0-19.338-8.658-19.338-19.338 0-10.68 8.658-19.338 19.338-19.338 10.68 0 19.338 8.658 19.338 19.338"/>
    <path stroke="#D5DBED" stroke-width="2" d="M126.9479 234.1351c0 10.68-8.658 19.338-19.338 19.338-10.68 0-19.338-8.658-19.338-19.338 0-10.68 8.658-19.338 19.338-19.338 10.68 0 19.338 8.658 19.338 19.338z" stroke-linecap="round" stroke-linejoin="round"/>
    <path stroke="#D5DBED" stroke-width="2" d="M107.61 245.5621c-6.311 0-11.427-5.116-11.427-11.427s5.116-11.427 11.427-11.427 11.427 5.116 11.427 11.427c0 2.727-.955 5.231-2.55 7.196" stroke-linecap="round" stroke-linejoin="round"/>
    <path fill="#FFF" d="M115.521 220.9501c0 10.68-8.658 19.338-19.338 19.338-10.68 0-19.338-8.658-19.338-19.338 0-10.68 8.658-19.338 19.338-19.338 10.68 0 19.338 8.658 19.338 19.338"/>
    <path fill="#FFF" d="M115.521 220.9501c0 10.68-8.658 19.338-19.338 19.338-10.68 0-19.338-8.658-19.338-19.338 0-10.68 8.658-19.338 19.338-19.338 10.68 0 19.338 8.658 19.338 19.338"/>
    <path fill="#FFF" d="M115.521 220.9501c0 10.68-8.658 19.338-19.338 19.338-10.68 0-19.338-8.658-19.338-19.338 0-10.68 8.658-19.338 19.338-19.338 10.68 0 19.338 8.658 19.338 19.338"/>
    <path stroke="#D5DBED" stroke-width="2" d="M115.521 220.9501c0 10.68-8.658 19.338-19.338 19.338-10.68 0-19.338-8.658-19.338-19.338 0-10.68 8.658-19.338 19.338-19.338 10.68 0 19.338 8.658 19.338 19.338z" stroke-linecap="round" stroke-linejoin="round"/>
    <path stroke="#D5DBED" stroke-width="2" d="M96.183 209.5232c6.311 0 11.427 5.116 11.427 11.427s-5.116 11.427-11.427 11.427-11.427-5.116-11.427-11.427" stroke-linecap="round" stroke-linejoin="round"/>
    <path fill="#FFF" d="M220.5345 64.6911c-10.638.941-20.026-6.919-20.967-17.558-.942-10.638 6.919-20.026 17.558-20.967 10.638-.942 20.025 6.919 20.967 17.558.941 10.638-6.92 20.026-17.558 20.967"/>
    <path fill="#FFF" d="M220.5345 64.6911c-10.638.941-20.026-6.919-20.967-17.558-.942-10.638 6.919-20.026 17.558-20.967 10.638-.942 20.025 6.919 20.967 17.558.941 10.638-6.92 20.026-17.558 20.967"/>
    <path fill="#FFF" d="M220.5345 64.6911c-10.638.941-20.026-6.919-20.967-17.558-.942-10.638 6.919-20.026 17.558-20.967 10.638-.942 20.025 6.919 20.967 17.558.941 10.638-6.92 20.026-17.558 20.967"/>
    <path stroke="#D5DBED" stroke-width="2" d="M220.5345 64.6911c-10.638.941-20.026-6.919-20.967-17.558-.942-10.638 6.919-20.026 17.558-20.967 10.638-.942 20.025 6.919 20.967 17.558.941 10.638-6.92 20.026-17.558 20.967z" stroke-linecap="round" stroke-linejoin="round"/>
    <path stroke="#D5DBED" stroke-width="2" d="M230.2123 44.4211c.556 6.286-4.089 11.833-10.375 12.39-6.287.556-11.834-4.089-12.39-10.375-.556-6.287 4.089-11.834 10.375-12.39" stroke-linecap="round" stroke-linejoin="round"/>
    <path fill="#FFF" d="M43.5121 202.3927l14.704 5.777-8.133 24.358-25.269-4.569 1.997-15.672"/>
    <path stroke="#D5DBED" stroke-width="2" d="M43.5121 202.3927l14.704 5.777-8.133 24.358-25.269-4.569 1.997-15.672zm-18.698 25.5655l33.402-19.788" stroke-linecap="round" stroke-linejoin="round"/>
    <path stroke="#D5DBED" stroke-width="2" d="M26.8111 212.2867l23.272 20.241-6.571-30.135" stroke-linecap="round" stroke-linejoin="round"/>
    <path fill="#FFF" d="M271.5168 16.6593l4.277 12.99-20.724 8.042-10.92-19.362 11.545-7.33"/>
    <path stroke="#D5DBED" stroke-width="2" d="M271.5168 16.6593l4.277 12.99-20.724 8.042-10.92-19.362 11.545-7.33z" stroke-linecap="round" stroke-linejoin="round"/>
    <path stroke="#D5DBED" stroke-width="2" d="M255.6948 10.9996l-.625 26.692 16.447-21.032m-27.3674 1.6702l31.644 11.319" stroke-linecap="round" stroke-linejoin="round"/>
    <path fill="#FFF" d="M179.7901 93.2502l-102.171 25.055c-2.454.602-4.93-.899-5.532-3.352l-17.793-72.557c-.602-2.453.899-4.93 3.353-5.532l102.171-25.055c2.454-.602 4.93.899 5.532 3.353l17.793 72.556c.602 2.454-.9 4.93-3.353 5.532"/>
    <path stroke="#D5DBED" stroke-width="2" d="M179.7901 93.2502l-102.171 25.055c-2.454.602-4.93-.899-5.532-3.352l-17.793-72.557c-.602-2.453.899-4.93 3.353-5.532l102.171-25.055c2.454-.602 4.93.899 5.532 3.353l17.793 72.556c.602 2.454-.9 4.93-3.353 5.532zM57.7831 56.6238l111.056-27.234M72.923 33.1184l-8.366 21.844m30.0092-27.1515l-8.366 21.844m30.0092-27.1516l-8.366 21.844m30.0092-27.1515l-8.366 21.844m30.0092-27.1516l-8.366 21.844" stroke-linecap="round" stroke-linejoin="round"/>
    <path fill="#FFF" d="M148.693 60.0614c3.986 16.254-5.959 32.661-22.213 36.647-16.253 3.986-32.661-5.959-36.647-22.213-3.986-16.254 5.959-32.661 22.213-36.647 16.254-3.986 32.661 5.959 36.647 22.213"/>
    <path stroke="#D5DBED" stroke-width="2" d="M148.693 60.0614c3.986 16.254-5.959 32.661-22.213 36.647-16.253 3.986-32.661-5.959-36.647-22.213-3.986-16.254 5.959-32.661 22.213-36.647 16.254-3.986 32.661 5.959 36.647 22.213z" stroke-linecap="round" stroke-linejoin="round"/>
    <path stroke="#D5DBED" stroke-width="2" d="M103.6954 53.8063l7.999 32.618 26.541-23.798z" stroke-linecap="round" stroke-linejoin="round"/>
    <path fill="#FFF" d="M221.5899 103.7945l33.136 35.518-29.646-1.028c-2.585-.09-4.608-2.259-4.519-4.844l1.029-29.646z"/>
    <path fill="#FFF" d="M254.7258 139.3127l-3.194 92.059c-.09 2.585-2.259 4.608-4.844 4.519l-93.619-3.249c-2.585-.09-4.608-2.258-4.519-4.844l4.224-121.705c.089-2.585 2.258-4.608 4.843-4.518l63.973 2.22"/>
    <path stroke="#D5DBED" stroke-width="2" d="M254.7258 139.3127l-3.194 92.059c-.09 2.585-2.259 4.608-4.844 4.519l-93.619-3.249c-2.585-.09-4.608-2.258-4.519-4.844l4.224-121.705c.089-2.585 2.258-4.608 4.843-4.518l63.973 2.22" stroke-linecap="round" stroke-linejoin="round"/>
    <path stroke="#D5DBED" stroke-width="2" d="M221.5899 103.7945l33.136 35.518-29.646-1.028c-2.585-.09-4.608-2.259-4.519-4.844l1.029-29.646z" stroke-linecap="round" stroke-linejoin="round"/>
    <path fill="#FFF" d="M224.1499 86.4352l39.809 27.834-29.209 5.171c-2.548.451-4.978-1.248-5.429-3.795l-5.171-29.21z"/>
    <path fill="#FFF" d="M263.9593 114.2695l16.058 90.704c.451 2.547-1.249 4.978-3.796 5.429l-92.241 16.329c-2.547.451-4.978-1.248-5.429-3.795l-21.229-119.914c-.45-2.547 1.249-4.978 3.796-5.429l63.032-11.158"/>
    <path stroke="#D5DBED" stroke-width="2" d="M263.9593 114.2695l16.058 90.704c.451 2.547-1.249 4.978-3.796 5.429l-92.241 16.329c-2.547.451-4.978-1.248-5.429-3.795l-21.229-119.914c-.45-2.547 1.249-4.978 3.796-5.429l63.032-11.158" stroke-linecap="round" stroke-linejoin="round"/>
    <path stroke="#D5DBED" stroke-width="2" d="M224.1499 86.4352l39.809 27.834-29.209 5.171c-2.548.451-4.978-1.248-5.429-3.795l-5.171-29.21z" stroke-linecap="round" stroke-linejoin="round"/>
    <path fill="#FFF" d="M130.7609 53.9573h117.832c2.829 0 5.123 2.294 5.123 5.123v7.341c0 1.565.715 3.045 1.943 4.016l7 5.542c.658.522.645 1.525-.027 2.029l-6.867 5.151c-1.29.967-2.049 2.486-2.049 4.098v7.685c0 2.829-2.294 5.123-5.123 5.123h-117.832c-2.829 0-5.123-2.294-5.123-5.123v-35.862c0-2.829 2.294-5.123 5.123-5.123"/>
    <path stroke="#D5DBED" stroke-width="2" d="M130.7609 53.9573h117.832c2.829 0 5.123 2.294 5.123 5.123v7.341c0 1.565.715 3.045 1.943 4.016l7 5.542c.658.522.645 1.525-.027 2.029l-6.867 5.151c-1.29.967-2.049 2.486-2.049 4.098v7.685c0 2.829-2.294 5.123-5.123 5.123h-117.832c-2.829 0-5.123-2.294-5.123-5.123v-35.862c0-2.829 2.294-5.123 5.123-5.123zm53.3977 27.3233h-43.147m21.5736-8.1116h-21.573m91.3891 0h-62.586m33.9819-8.1116h-62.785" stroke-linecap="round" stroke-linejoin="round"/>
    <path fill="#FFF" d="M260.7576 97.3511l25.306 41.462-28.832-6.976c-2.514-.609-4.059-3.14-3.451-5.654l6.977-28.832z"/>
    <path fill="#FFF" d="M286.0638 138.8135l-21.664 89.531c-.608 2.514-3.14 4.059-5.654 3.45l-91.048-22.031c-2.514-.608-4.059-3.14-3.451-5.654l28.641-118.362c.608-2.515 3.139-4.06 5.654-3.451l62.216 15.055"/>
    <path stroke="#D5DBED" stroke-width="2" d="M286.0638 138.8135l-21.664 89.531c-.608 2.514-3.14 4.059-5.654 3.45l-91.048-22.031c-2.514-.608-4.059-3.14-3.451-5.654l28.641-118.362c.608-2.515 3.139-4.06 5.654-3.451l62.216 15.055" stroke-linecap="round" stroke-linejoin="round"/>
    <path stroke="#D5DBED" stroke-width="2" d="M260.7576 97.3511l25.306 41.462-28.832-6.976c-2.514-.609-4.059-3.14-3.451-5.654l6.977-28.832z" stroke-linecap="round" stroke-linejoin="round"/>
    <path fill="#FFF" d="M204.642 137.7001H86.81c-2.829 0-5.123-2.294-5.123-5.123v-7.341c0-1.565-.715-3.045-1.943-4.016l-7-5.542c-.658-.522-.645-1.525.027-2.029l6.867-5.151c1.29-.967 2.049-2.486 2.049-4.098v-7.685c0-2.829 2.294-5.123 5.123-5.123h117.832c2.829 0 5.123 2.294 5.123 5.123v35.862c0 2.829-2.294 5.123-5.123 5.123"/>
    <path stroke="#D5DBED" stroke-width="2" d="M204.642 137.7001H86.81c-2.829 0-5.123-2.294-5.123-5.123v-7.341c0-1.565-.715-3.045-1.943-4.016l-7-5.542c-.658-.522-.645-1.525.027-2.029l6.867-5.151c1.29-.967 2.049-2.486 2.049-4.098v-7.685c0-2.829 2.294-5.123 5.123-5.123h117.832c2.829 0 5.123 2.294 5.123 5.123v35.862c0 2.829-2.294 5.123-5.123 5.123zM93.6366 102.2652h48.67m-16.2243 8.1116h68.309m-100.7547 0h22.799m53.1939 8.1116h14.942m-24.3348 0h4.534m-71.1341 0h54.093M93.6366 126.6h63.185" stroke-linecap="round" stroke-linejoin="round"/>
    <path fill="#FFF" d="M183.1908 193.1004H52.5518c-2.83 0-5.123-2.294-5.123-5.123v-7.341c0-1.565-.716-3.045-1.944-4.016l-7-5.542c-.658-.522-.645-1.525.027-2.029l6.867-5.151c1.29-.967 2.05-2.486 2.05-4.098v-7.685c0-2.829 2.293-5.123 5.123-5.123h130.639c2.829 0 5.123 2.294 5.123 5.123v35.862c0 2.829-2.294 5.123-5.123 5.123"/>
    <path stroke="#D5DBED" stroke-width="2" d="M183.1908 193.1004H52.5518c-2.83 0-5.123-2.294-5.123-5.123v-7.341c0-1.565-.716-3.045-1.944-4.016l-7-5.542c-.658-.522-.645-1.525.027-2.029l6.867-5.151c1.29-.967 2.05-2.486 2.05-4.098v-7.685c0-2.829 2.293-5.123 5.123-5.123h130.639c2.829 0 5.123 2.294 5.123 5.123v35.862c0 2.829-2.294 5.123-5.123 5.123zM59.3776 157.6655h99.432m-23.4391 8.1116h7.95m-19.6905 0H59.378m-.0004 8.1116h47.398m-47.398 8.1116h116.122" stroke-linecap="round" stroke-linejoin="round"/>
    <path fill="#FFF" d="M157.881 110.8189H52.682c-2.526 0-4.574-2.048-4.574-4.574v-74.706c0-2.526 2.048-4.574 4.574-4.574h105.199c2.526 0 4.574 2.048 4.574 4.574v74.706c0 2.526-2.048 4.574-4.574 4.574"/>
    <path stroke="#D5DBED" stroke-width="2" d="M157.881 110.8189H52.682c-2.526 0-4.574-2.048-4.574-4.574v-74.706c0-2.526 2.048-4.574 4.574-4.574h105.199c2.526 0 4.574 2.048 4.574 4.574v74.706c0 2.526-2.048 4.574-4.574 4.574zM48.1083 46.1878h114.347m-94.0445-19.223l-13.328 19.223m35.6125-19.223l-13.328 19.223m35.6125-19.223l-13.328 19.223m35.6125-19.223l-13.328 19.223m35.6125-19.223l-13.328 19.223" stroke-linecap="round" stroke-linejoin="round"/>
    <path fill="#FFF" d="M135.5834 71.1788c0 16.735-13.567 30.302-30.302 30.302s-30.302-13.567-30.302-30.302 13.567-30.302 30.302-30.302 30.302 13.567 30.302 30.302"/>
    <path stroke="#D5DBED" stroke-width="2" d="M135.5834 71.1788c0 16.735-13.567 30.302-30.302 30.302s-30.302-13.567-30.302-30.302 13.567-30.302 30.302-30.302 30.302 13.567 30.302 30.302z" stroke-linecap="round" stroke-linejoin="round"/>
    <path stroke="#D5DBED" stroke-width="2" d="M93.3705 54.3865v33.585l31.445-16.793zm210.9666 33.9908v6.43m3.2148-3.2152h-6.43M8.2148 170.6739v6.43m3.2148-3.2152h-6.43M315.9008 36.3305l-1.515 1.515m-6.0624 6.0624l-1.515 1.515m9.0924.0005l-1.515-1.515m-6.0624-6.0624l-1.515-1.515M31.3576 248.9266l-1.515 1.515m-6.0624 6.0624l-1.515 1.515m9.0924.0005l-1.515-1.515m-6.0624-6.0624l-1.515-1.515M294.3458 71.1788c0 1.775-1.439 3.215-3.215 3.215-1.775 0-3.215-1.44-3.215-3.215s1.44-3.215 3.215-3.215c1.776 0 3.215 1.44 3.215 3.215z" stroke-linecap="round" stroke-linejoin="round"/>
    <path d="M0 0h320v280H0z"/>
  </g>
</svg>