<?xml version="1.0" encoding="utf-8"?>
<!-- Generator: Adobe Illustrator 25.1.0, SVG Export Plug-In . SVG Version: 6.00 Build 0)  -->
<svg version="1.1" id="Layer_1" xmlns="http://www.w3.org/2000/svg" xmlns:xlink="http://www.w3.org/1999/xlink" x="0px" y="0px"
	 viewBox="0 0 280 168" style="enable-background:new 0 0 280 168;" xml:space="preserve">
<style type="text/css">
	.st0{clip-path:url(#SVGID_2_);}
	.st1{fill:#EBEDEF;}
	.st2{fill:#FFFFFF;}
	.st3{fill:#5865F2;}
	.st4{fill:#FFC619;}
	.st5{fill:#FFF2A6;}
	.st6{fill:#FF78B9;}
	.st7{fill:#91FFAD;}
	.st8{fill:#86FCC1;}
	.st9{fill:#3442D9;}
	.st10{fill:none;stroke:#000000;stroke-width:2.08;stroke-linecap:round;stroke-linejoin:round;}
	.st11{fill:url(#SVGID_3_);}
	.st12{fill:url(#SVGID_4_);}
	.st13{fill:#EB459F;}
	.st14{fill:#FA6EF6;}
	.st15{fill:#FFADFB;}
	.st16{fill:#E655D4;}
	.st17{fill:#FFCFF9;}
	.st18{fill:#00F67A;}
	.st19{fill:#66BCFF;}
</style>
<g>
	<g>
		<defs>
			<rect id="SVGID_1_" width="280" height="168"/>
		</defs>
		<clipPath id="SVGID_2_">
			<use xlink:href="#SVGID_1_"  style="overflow:visible;"/>
		</clipPath>
		<g class="st0">
			<path class="st1" d="M0,168V0h280v168H0z"/>
			<path class="st2" d="M168,24h-56c-17.7,0-32,14.3-32,32v56c0,17.7,14.3,32,32,32h56c17.7,0,32-14.3,32-32V56
				C200,38.3,185.7,24,168,24z"/>
			<path class="st3" d="M0,24.2L0,24.2l0,120h0c15.9,0,31.2-6.3,42.4-17.6c11.3-11.3,17.6-26.5,17.6-42.4s-6.3-31.2-17.6-42.4
				S16,24.2,0,24.2z"/>
			<path class="st4" d="M0,113.7h21.4c6.1,0,11-5.3,11-11.8H0V113.7z"/>
			<path class="st5" d="M0,105.1c-0.1-1.1-0.1-2.1,0-3.2h32.4c0,1.1-0.1,2.2-0.4,3.2H0z"/>
			<path class="st6" d="M0,102.7h30.1c2.3,0,4.6-0.9,6.2-2.6c1.7-1.7,2.6-3.9,2.6-6.2c0-2.3-0.9-4.6-2.6-6.2
				c-1.7-1.7-3.9-2.6-6.2-2.6H0v8.8V102.7z"/>
			<path d="M35.7,53.6L21.4,75c-0.1,0.1-0.1,0.2-0.1,0.3c0,0.1,0,0.2,0,0.3c0,0.1,0.1,0.2,0.1,0.3c0.1,0.1,0.1,0.2,0.2,0.2
				c0.2,0.1,0.4,0.2,0.6,0.1c0.2,0,0.4-0.1,0.5-0.3l16.1-20.2c0.3-0.4,0.4-0.9,0.4-1.4c-0.1-0.5-0.3-0.9-0.7-1.2
				c-0.4-0.3-0.9-0.4-1.3-0.4c-0.5,0-0.9,0.3-1.2,0.6L35.7,53.6z"/>
			<path class="st7" d="M32.8,66.4c3.2,0,5.8-2.6,5.8-5.8c0-3.2-2.6-5.8-5.8-5.8c-3.2,0-5.8,2.6-5.8,5.8
				C27.1,63.8,29.7,66.4,32.8,66.4z"/>
			<path class="st8" d="M32.8,66.4c3.2,0,5.8-2.6,5.8-5.8c0-3.2-2.6-5.8-5.8-5.8c-3.2,0-5.8,2.6-5.8,5.8
				C27.1,63.8,29.7,66.4,32.8,66.4z"/>
			<path class="st6" d="M36.6,59.1c0.6-0.9,0.1-2.3-1.1-3c-1.2-0.7-2.6-0.5-3.1,0.4c-0.6,0.9-0.1,2.3,1.1,3
				C34.6,60.3,36.1,60.1,36.6,59.1z"/>
			<path class="st7" d="M29.8,81.1c0,0,3.9,4.4,13.2,0.8c10.4-4,12,10.4-4.3,8.5c-11.2-1.3-13.6-2.9-14.4,1.9
				c-0.8,4.8-8.6,3.2-11.4-4c-2.7-7.2-13,5.6-13,5.6V80.6L29.8,81.1z"/>
			<path class="st8" d="M29.8,81.1c0,0,3.9,4.4,13.2,0.8c10.4-4,12,10.4-4.3,8.5c-11.2-1.3-13.6-2.9-14.4,1.9
				c-0.8,4.8-8.6,3.2-11.4-4c-2.7-7.2-13,5.6-13,5.6V80.6L29.8,81.1z"/>
			<path class="st4" d="M0,82.7V61.9c4,1.8,8.2,3.4,12.4,4.8c5,1.5,6.2-0.1,12,3.2c5.6,3.2,7.1,7.1,9,11.2c0.1,0.2,0.1,0.4,0.1,0.6
				c0,0.2-0.1,0.4-0.2,0.5c-0.1,0.2-0.3,0.3-0.4,0.4c-0.2,0.1-0.4,0.1-0.6,0.1H0z"/>
			<path class="st5" d="M9.5,65.8c2.4,2.2,4.5,4.5,6.5,7.1c0.4,0.6,1.1,1,1.8,1.1c0.7,0.1,1.5,0,2.1-0.5c0.6-0.4,1-1.1,1.1-1.8
				c0.1-0.7,0-1.5-0.5-2.1c-0.1-0.1-0.6-0.9-1.5-1.9c-2-0.4-3.6-0.2-6.5-1C11.5,66.4,10.5,66.1,9.5,65.8z"/>
			<path class="st5" d="M1.2,71.6c0.2,0.5,0.6,1,1.1,1.3c0.5,0.3,1,0.5,1.6,0.6c0.7,0,1.4-0.3,1.9-0.8c0.8-0.8,1.2-1.9,1.4-3
				c0.1-1.1-0.1-2.3-0.6-3.3c-0.1-0.2-0.5-0.9-1.2-2.1C2.5,63,0,61.9,0,61.9v7.6C0.8,70.8,1.2,71.5,1.2,71.6z"/>
			<path class="st7" d="M220,84c0,15.9,6.3,31.2,17.6,42.4c11.3,11.3,26.5,17.6,42.4,17.6V24c-15.9,0-31.2,6.3-42.4,17.6
				C226.3,52.8,220,68.1,220,84z"/>
			<path class="st9" d="M229.2,95.7c0.1,0,0.2,0.1,0.3,0.1c0.1,0,0.2,0,0.3,0c0.2,0,0.4-0.1,0.5-0.3c3.9-5.3,6.7-5.8,9-4.8
				c1.5,0.7,3.5,3.4,4.7,6.9c0.1,0.3,0.4,0.6,0.7,0.8c0.3,0.2,0.7,0.3,1.1,0.2c0.3,0,0.5-0.1,0.7-0.3c0.2-0.2,0.4-0.4,0.5-0.6
				c1.7-3.8,2.8-5.7,4.9-7.1s6.3-2,10,0.5l4.8-11.1c-8-2.5-12.9-7.6-16.5-13.1c-3.9-5.9-5.5-4.9-10.5,2.9c-5,7.7-8.6,16.2-10.6,25.2
				c0,0.2,0,0.3,0,0.5C228.9,95.5,229.1,95.6,229.2,95.7z"/>
			<path class="st10" d="M251.4,77.7c2.1,4.1,4.8,7.9,8,11.2"/>
			<path d="M270.5,110.3l9.5-0.6V76.2c-1.4,0.3-2.8,0.8-4.1,1.3c-11.5,4.4-14.9,9.6-14.9,9.6c5.2-2,11.5,1.6,14.1,8
				C277.8,101.5,275.7,108.3,270.5,110.3z"/>
			<path class="st2" d="M280,90c-0.9-4.1-2.7-13.2-2.7-13.2L271,84c4.7,5.9,7.5,9.3,8.7,10.2l0.3,0.2V90z"/>
			<path class="st2" d="M263.4,90.9c3.5,4.4,5.5,6.9,6.4,7.5c0.9,0.6,1,0.1,0.4-2.2c-0.6-2.3-2.1-10.5-2.1-10.5L263.4,90.9z"/>
			
				<linearGradient id="SVGID_3_" gradientUnits="userSpaceOnUse" x1="273.3584" y1="115.4105" x2="264.2384" y2="91.6106" gradientTransform="matrix(1 0 0 -1 0 184)">
				<stop  offset="0" style="stop-color:#66BCFF"/>
				<stop  offset="1" style="stop-color:#8CD9FF"/>
			</linearGradient>
			<path class="st11" d="M275.8,85.2c1-1.9,2.5-3.6,4.2-4.8V68.9c-3.3-0.1-6.7,0.4-9.8,1.6c-3.1,1.2-6,3-8.4,5.3
				c-2.4,2.3-4.3,5.1-5.5,8.2c-2.6,6.6-0.6,12,3.7,13.6c1.8,0.6,3.9,0.5,5.6-0.3C269.5,95.6,271.3,93.4,275.8,85.2z"/>
			
				<linearGradient id="SVGID_4_" gradientUnits="userSpaceOnUse" x1="275.9178" y1="80.8508" x2="272.0078" y2="70.6508" gradientTransform="matrix(1 0 0 -1 0 184)">
				<stop  offset="0" style="stop-color:#66BCFF"/>
				<stop  offset="1" style="stop-color:#8CD9FF"/>
			</linearGradient>
			<path class="st12" d="M280,103.8c-5.8-1.2-8.8-0.6-11.2,0.2c-1,0.3-1.9,0.9-2.6,1.6c-0.7,0.7-1.3,1.6-1.6,2.6
				c-0.7,2.2-0.2,5,4.8,7c3.4,1.4,7,2.1,10.7,2V103.8z"/>
			<path class="st10" d="M245.1,97.4c-1.2-7.8-0.7-19.8-0.7-19.8"/>
			<path class="st10" d="M229.6,95.1c2.7-6.4,6-12.5,9.9-18.3"/>
			<path class="st13" d="M274.1,84.4c1.4-2.6,3.4-4.8,5.9-6.3v-1.5c-3,1.7-5.5,4.2-7.1,7.2c-2.9,5-7.2,11.8-11.7,12
				c-1,0-2.1-0.1-3-0.5c-0.9-0.4-1.8-1-2.4-1.8c0,0.1,0,0.2,0.1,0.2c0.4,1,1.1,1.9,2,2.5c0.9,0.6,2,1,3.1,1h0.3
				C265.3,96.9,269.2,93,274.1,84.4z"/>
			<path class="st13" d="M280,106.2c-7-1.3-11.7-0.9-14.3,1.3l-0.3,0.3c-0.5,0.5-0.8,1.1-0.9,1.8c-0.1,0.7,0,1.4,0.4,2
				c0.1-0.6,0.3-1.2,0.6-1.8c0.3-0.5,0.7-1,1.2-1.4c2.3-1.9,6.8-2.2,13.4-0.9V106.2z"/>
			<path class="st14" d="M140,43.6l-24.2,24.2v34.1L140,126l24.2-24.2v-34L140,43.6z M152.1,96.8L140,108.9l-12.1-12.1v-24L140,60.7
				l12.1,12.1V96.8z"/>
			<path class="st15" d="M140,43.6v17.1l12.1,12.1l12.1-5L140,43.6z"/>
			<path class="st16" d="M127.9,96.8l-12.1,5.1L140,126v-17.1L127.9,96.8z"/>
			<path class="st17" d="M127.9,72.8v24l12.1,12.1l12.1-12.1v-24L140,60.7L127.9,72.8z"/>
			<path class="st2" d="M152.1,72.8L152.1,72.8L128,96.9h-0.1v-6.5l20.9-20.9L152.1,72.8z"/>
			<path class="st2" d="M152.1,81.9v6.6l-16.2,16.3l-3.3-3.4L152.1,81.9z"/>
			<path class="st18" d="M192.7,30.2c-1.6-1.1-3-2.4-4.1-4.1c-1.1-1.6-1.8-3.5-2-5.4l-1-6.6c0-0.2-0.1-0.3-0.2-0.4
				c-0.1-0.1-0.3-0.2-0.4-0.2c-0.2,0-0.3,0.1-0.4,0.2c-0.1,0.1-0.2,0.2-0.2,0.4l-1,6.6c-0.3,1.9-1,3.8-2,5.4c-1.1,1.6-2.5,3-4.1,4.1
				l-0.9,0.5c-0.1,0.1-0.2,0.1-0.2,0.2c-0.1,0.1-0.1,0.2-0.1,0.3c0,0.1,0,0.2,0.1,0.3c0.1,0.1,0.1,0.2,0.2,0.2l0.9,0.5
				c1.6,1.1,3,2.5,4.1,4.1c1.1,1.6,1.8,3.5,2,5.4l1,6.6c0,0.2,0.1,0.3,0.2,0.4c0.1,0.1,0.3,0.2,0.4,0.2c0.2,0,0.3-0.1,0.4-0.2
				c0.1-0.1,0.2-0.2,0.2-0.4l1-6.6c0.3-1.9,1-3.8,2-5.4c1.1-1.6,2.5-3,4.1-4.1l0.9-0.5c0.1-0.1,0.2-0.1,0.2-0.2s0.1-0.2,0.1-0.3
				c0-0.1,0-0.2-0.1-0.3s-0.1-0.2-0.2-0.2L192.7,30.2z"/>
			<path class="st19" d="M99.9,136c-1.6-1.1-3-2.5-4.1-4.1s-1.8-3.5-2-5.4l-1-6.6c0-0.2-0.1-0.3-0.2-0.4c-0.1-0.1-0.3-0.2-0.4-0.2
				c-0.2,0-0.3,0.1-0.4,0.2c-0.1,0.1-0.2,0.2-0.2,0.4l-1,6.6c-0.3,1.9-1,3.8-2,5.4c-1.1,1.6-2.4,3-4.1,4.1l-0.9,0.6
				c-0.1,0.1-0.2,0.1-0.2,0.2c-0.1,0.1-0.1,0.2-0.1,0.3c0,0.1,0,0.2,0.1,0.3c0.1,0.1,0.1,0.2,0.2,0.2l0.9,0.6c1.6,1.1,3,2.5,4.1,4.1
				c1.1,1.6,1.8,3.5,2,5.4l1,6.6c0,0.2,0.1,0.3,0.2,0.4c0.1,0.1,0.3,0.2,0.4,0.2c0.2,0,0.3-0.1,0.4-0.2c0.1-0.1,0.2-0.3,0.2-0.4
				l1-6.6c0.3-1.9,1-3.8,2-5.4c1.1-1.6,2.4-3,4.1-4.1l0.9-0.6c0.1-0.1,0.2-0.1,0.2-0.2c0.1-0.1,0.1-0.2,0.1-0.3c0-0.1,0-0.2-0.1-0.3
				c-0.1-0.1-0.1-0.2-0.2-0.2L99.9,136z"/>
			<path class="st6" d="M212.4,65.4c-1.6-1.1-3-2.5-4.1-4.1s-1.8-3.5-2-5.4l-1-6.6c0-0.2-0.1-0.3-0.2-0.4c-0.1-0.1-0.3-0.2-0.4-0.2
				c-0.2,0-0.3,0.1-0.4,0.2c-0.1,0.1-0.2,0.2-0.2,0.4l-1,6.6c-0.3,1.9-1,3.8-2,5.4c-1.1,1.6-2.4,3-4.1,4.1L196,66
				c-0.1,0.1-0.2,0.1-0.2,0.2c-0.1,0.1-0.1,0.2-0.1,0.3c0,0.1,0,0.2,0.1,0.3c0.1,0.1,0.1,0.2,0.2,0.2l0.9,0.5c1.6,1.1,3,2.5,4.1,4.1
				c1.1,1.6,1.8,3.5,2,5.4l1,6.6c0,0.2,0.1,0.3,0.2,0.4c0.1,0.1,0.3,0.2,0.4,0.2c0.2,0,0.3-0.1,0.4-0.2c0.1-0.1,0.2-0.2,0.2-0.4
				l1-6.6c0.3-1.9,1-3.8,2-5.4c1.1-1.6,2.5-3,4.1-4.1l0.9-0.5c0.1-0.1,0.2-0.1,0.2-0.2c0.1-0.1,0.1-0.2,0.1-0.3c0-0.1,0-0.2-0.1-0.3
				c-0.1-0.1-0.1-0.2-0.2-0.2L212.4,65.4z"/>
		</g>
	</g>
</g>
</svg>
