<svg xmlns="http://www.w3.org/2000/svg" xmlns:xlink="http://www.w3.org/1999/xlink" width="156" height="136" viewBox="0 0 156 136">
  <defs>
    <polygon id="img_spotify_error_dark-a" points=".997 .819 124.076 .819 124.076 136 .997 136"/>
  </defs>
  <g fill="none" fill-rule="evenodd" transform="translate(0 -1)">
    <path fill="#4F545C" fill-opacity=".3" fill-rule="nonzero" d="M40.7912,124.1673 L131.2372,124.1673 C144.6372,124.1673 155.5002,113.3043 155.5002,99.9043 C155.5002,86.5043 144.6372,75.6423 131.2372,75.6423 L101.5232,75.6423 C91.4512,75.6423 83.2862,67.4773 83.2862,57.4043 C83.2862,47.3323 91.4512,39.1673 101.5232,39.1673 L108.6242,39.1673 C115.1622,39.1673 120.4622,33.8673 120.4622,27.3293 C120.4622,20.7913 115.1622,15.4913 108.6242,15.4913 L28.1052,15.4913 C12.5832,15.4913 0.0002,28.0743 0.0002,43.5973 C0.0002,59.1183 12.5832,71.7023 28.1052,71.7023 L42.7522,71.7023 C53.0542,71.7023 61.4062,80.0543 61.4062,90.3563 C61.4062,100.6583 53.0542,109.0113 42.7522,109.0113 L40.7912,109.0113 C36.6062,109.0113 33.2132,112.4033 33.2132,116.5893 C33.2132,120.7733 36.6062,124.1673 40.7912,124.1673"/>
    <path fill="#4F545C" fill-rule="nonzero" d="M143.0754 68.7483L143.0754 64.0503C143.0754 63.4983 142.6264 63.0503 142.0754 63.0503L126.5564 63.0503 126.5564 84.8273 142.0754 84.8273C142.6264 84.8273 143.0754 84.3793 143.0754 83.8273L143.0754 79.1293 143.0754 68.7483zM93.7956 12.4915C93.7956 13.0445 93.3476 13.4915 92.7956 13.4915L75.5736 13.4915C75.0216 13.4915 74.5736 13.0445 74.5736 12.4915 74.5736 11.9385 75.0216 11.4915 75.5736 11.4915L92.7956 11.4915C93.3476 11.4915 93.7956 11.9385 93.7956 12.4915M92.7956 19.4915L75.5736 19.4915C75.0216 19.4915 74.5736 19.0445 74.5736 18.4915 74.5736 17.9385 75.0216 17.4915 75.5736 17.4915L92.7956 17.4915C93.3476 17.4915 93.7956 17.9385 93.7956 18.4915 93.7956 19.0445 93.3476 19.4915 92.7956 19.4915M92.7956 25.4915L75.5736 25.4915C75.0216 25.4915 74.5736 25.0445 74.5736 24.4915 74.5736 23.9385 75.0216 23.4915 75.5736 23.4915L92.7956 23.4915C93.3476 23.4915 93.7956 23.9385 93.7956 24.4915 93.7956 25.0445 93.3476 25.4915 92.7956 25.4915M90.7056 4.4135C88.6196 3.4755 86.3916 3.0005 84.0836 3.0005 75.1646 3.0005 67.9086 10.2565 67.9086 19.1755 67.9086 22.1315 68.7316 25.0405 70.2886 27.5875 70.5296 27.9815 70.4686 28.4895 70.1426 28.8155L53.6266 45.3315 56.3236 45.0865 62.4726 45.0865 74.4426 33.1165C74.7696 32.7895 75.2766 32.7295 75.6716 32.9705 78.2196 34.5265 81.1286 35.3495 84.0836 35.3495 93.0026 35.3495 100.2586 28.0945 100.2586 19.1755 100.2586 14.7455 98.5026 10.6115 95.3146 7.5355 94.9276 7.1615 94.9136 6.5555 95.2666 6.1575 94.2706 5.3005 93.1786 4.5575 92.0036 3.9455 91.7646 4.4205 91.1956 4.6325 90.7056 4.4135M40.2531 84.8274L40.2531 63.0504 24.9971 63.0504C24.4441 63.0504 23.9971 63.4984 23.9971 64.0504L23.9971 68.7484 23.9971 79.1294 23.9971 83.8274C23.9971 84.3804 24.4441 84.8274 24.9971 84.8274L40.2531 84.8274z"/>
    <path fill="#72767D" fill-rule="nonzero" d="M117.0046,81.0813 C116.6746,81.0813 116.3416,80.9733 116.0656,80.7493 L111.9526,77.4383 C111.3426,76.9483 111.0026,76.2173 111.0206,75.4343 C111.0386,74.6503 111.4116,73.9353 112.0446,73.4743 L116.1196,70.4913 C116.7876,70.0003 117.7256,70.1463 118.2156,70.8153 C118.7056,71.4833 118.5596,72.4223 117.8916,72.9113 L114.3406,75.5113 L117.9456,78.4133 C118.5916,78.9323 118.6936,79.8763 118.1736,80.5213 C117.8776,80.8903 117.4426,81.0813 117.0046,81.0813 Z M105.4816,79.8733 C105.4816,89.1143 97.9626,96.6323 88.7216,96.6323 L77.1656,96.6323 C67.9246,96.6323 60.4066,89.1143 60.4066,79.8733 L60.4066,72.8693 C60.4066,68.9383 63.6046,65.7403 67.5346,65.7403 L88.2366,65.7403 C88.7896,65.7403 89.2366,66.1873 89.2366,66.7403 L93.8506,66.7403 C93.8506,66.1873 94.2976,65.7403 94.8506,65.7403 L98.3526,65.7403 C102.2836,65.7403 105.4816,68.9383 105.4816,72.8693 L105.4816,79.8733 Z M83.4046,130.1673 C78.4336,130.1673 74.4046,126.1383 74.4046,121.1673 C74.4046,116.1963 78.4336,112.1673 83.4046,112.1673 C88.3756,112.1673 92.4046,116.1963 92.4046,121.1673 C92.4046,126.1383 88.3756,130.1673 83.4046,130.1673 Z M54.1506,77.8093 L50.0726,80.7923 C49.8056,80.9873 49.4956,81.0813 49.1886,81.0813 C48.7266,81.0813 48.2706,80.8683 47.9766,80.4673 C47.4876,79.7983 47.6326,78.8593 48.3016,78.3703 L51.8526,75.7723 L48.2466,72.8693 C47.6016,72.3503 47.4996,71.4053 48.0186,70.7613 C48.5386,70.1163 49.4826,70.0143 50.1286,70.5333 L54.2406,73.8453 C54.8506,74.3353 55.1896,75.0653 55.1716,75.8493 C55.1546,76.6313 54.7816,77.3463 54.1506,77.8093 Z M124.5566,61.1563 C124.5566,53.3973 118.2446,47.0863 110.4856,47.0863 L56.3236,47.0863 C48.5656,47.0863 42.2536,53.3973 42.2536,61.1563 L42.2536,89.4553 C42.2536,98.3383 63.7666,107.0823 70.3606,109.5513 C71.2226,109.8733 71.7106,110.7313 71.5466,111.6373 C71.3816,112.5463 70.6216,113.1813 69.6966,113.1813 L68.9046,113.1813 C63.1146,113.1813 58.4046,117.8913 58.4046,123.6813 C58.4046,129.4713 63.1146,134.1813 68.9046,134.1813 L97.9046,134.1813 C103.6936,134.1813 108.4046,129.4713 108.4046,123.6813 C108.4046,117.8913 103.6936,113.1813 97.9046,113.1813 C96.9626,113.1813 96.1986,112.5313 96.0486,111.6023 C95.8986,110.6773 96.4156,109.8243 97.3056,109.5283 C105.4996,106.8083 124.5566,99.4033 124.5566,89.4553 L124.5566,61.1563 Z"/>
    <path fill="#B9BBBE" fill-rule="nonzero" d="M89.6188,79.0335 C89.6188,79.8615 88.9478,80.5335 88.1188,80.5335 C87.2898,80.5335 86.6188,79.8615 86.6188,79.0335 C86.6188,78.2045 87.2898,77.5335 88.1188,77.5335 C88.9478,77.5335 89.6188,78.2045 89.6188,79.0335 M91.1188,73.5335 C91.9478,73.5335 92.6188,74.2045 92.6188,75.0335 C92.6188,75.8615 91.9478,76.5335 91.1188,76.5335 C90.2898,76.5335 89.6188,75.8615 89.6188,75.0335 C89.6188,74.2045 90.2898,73.5335 91.1188,73.5335 M85.1188,84.5335 C84.2898,84.5335 83.6188,83.8615 83.6188,83.0335 C83.6188,82.2045 84.2898,81.5335 85.1188,81.5335 C85.9478,81.5335 86.6188,82.2045 86.6188,83.0335 C86.6188,83.8615 85.9478,84.5335 85.1188,84.5335 M82.1188,88.5335 C81.2898,88.5335 80.6188,87.8615 80.6188,87.0335 C80.6188,86.2045 81.2898,85.5335 82.1188,85.5335 C82.9478,85.5335 83.6188,86.2045 83.6188,87.0335 C83.6188,87.8615 82.9478,88.5335 82.1188,88.5335 M79.1188,84.5335 C78.2898,84.5335 77.6188,83.8615 77.6188,83.0335 C77.6188,82.2045 78.2898,81.5335 79.1188,81.5335 C79.9478,81.5335 80.6188,82.2045 80.6188,83.0335 C80.6188,83.8615 79.9478,84.5335 79.1188,84.5335 M76.1188,80.5335 C75.2898,80.5335 74.6188,79.8615 74.6188,79.0335 C74.6188,78.2045 75.2898,77.5335 76.1188,77.5335 C76.9478,77.5335 77.6188,78.2045 77.6188,79.0335 C77.6188,79.8615 76.9478,80.5335 76.1188,80.5335 M73.1188,76.5335 C72.2898,76.5335 71.6188,75.8615 71.6188,75.0335 C71.6188,74.2045 72.2898,73.5335 73.1188,73.5335 C73.9478,73.5335 74.6188,74.2045 74.6188,75.0335 C74.6188,75.8615 73.9478,76.5335 73.1188,76.5335 M79.1188,73.5335 C79.9478,73.5335 80.6188,74.2045 80.6188,75.0335 C80.6188,75.8615 79.9478,76.5335 79.1188,76.5335 C78.2898,76.5335 77.6188,75.8615 77.6188,75.0335 C77.6188,74.2045 78.2898,73.5335 79.1188,73.5335 M82.1188,77.5335 C82.9478,77.5335 83.6188,78.2045 83.6188,79.0335 C83.6188,79.8615 82.9478,80.5335 82.1188,80.5335 C81.2898,80.5335 80.6188,79.8615 80.6188,79.0335 C80.6188,78.2045 81.2898,77.5335 82.1188,77.5335 M85.1188,73.5335 C85.9478,73.5335 86.6188,74.2045 86.6188,75.0335 C86.6188,75.8615 85.9478,76.5335 85.1188,76.5335 C84.2898,76.5335 83.6188,75.8615 83.6188,75.0335 C83.6188,74.2045 84.2898,73.5335 85.1188,73.5335 M88.2368,67.7405 L67.5348,67.7405 C64.7068,67.7405 62.4068,70.0415 62.4068,72.8695 L62.4068,79.8735 C62.4068,88.0115 69.0278,94.6325 77.1658,94.6325 L88.7218,94.6325 C96.8598,94.6325 103.4808,88.0115 103.4808,79.8735 L103.4808,72.8695 C103.4808,70.0415 101.1808,67.7405 98.3528,67.7405 L94.8498,67.7405 C94.2978,67.7405 93.8498,67.2935 93.8498,66.7405 L89.2368,66.7405 C89.2368,67.2935 88.7888,67.7405 88.2368,67.7405"/>
    <path fill="#202225" fill-rule="nonzero" d="M98.3527 65.7405L94.8507 65.7405C94.2977 65.7405 93.8507 66.1875 93.8507 66.7405 93.8507 67.2935 94.2977 67.7405 94.8507 67.7405L98.3527 67.7405C101.1807 67.7405 103.4807 70.0415 103.4807 72.8695L103.4807 79.8735C103.4807 88.0115 96.8597 94.6325 88.7217 94.6325L77.1657 94.6325C69.0277 94.6325 62.4067 88.0115 62.4067 79.8735L62.4067 72.8695C62.4067 70.0415 64.7067 67.7405 67.5347 67.7405L88.2367 67.7405C88.7887 67.7405 89.2367 67.2935 89.2367 66.7405 89.2367 66.1875 88.7897 65.7405 88.2367 65.7405L67.5347 65.7405C63.6037 65.7405 60.4067 68.9385 60.4067 72.8695L60.4067 79.8735C60.4067 89.1145 67.9247 96.6325 77.1657 96.6325L88.7217 96.6325C97.9627 96.6325 105.4807 89.1145 105.4807 79.8735L105.4807 72.8695C105.4807 68.9385 102.2837 65.7405 98.3527 65.7405M74.5734 12.4915C74.5734 13.0445 75.0214 13.4915 75.5734 13.4915L92.7954 13.4915C93.3474 13.4915 93.7954 13.0445 93.7954 12.4915 93.7954 11.9385 93.3474 11.4915 92.7954 11.4915L75.5734 11.4915C75.0214 11.4915 74.5734 11.9385 74.5734 12.4915M92.7956 23.4915L75.5736 23.4915C75.0216 23.4915 74.5736 23.9385 74.5736 24.4915 74.5736 25.0445 75.0216 25.4915 75.5736 25.4915L92.7956 25.4915C93.3476 25.4915 93.7956 25.0445 93.7956 24.4915 93.7956 23.9385 93.3476 23.4915 92.7956 23.4915M92.7956 17.4915L75.5736 17.4915C75.0216 17.4915 74.5736 17.9385 74.5736 18.4915 74.5736 19.0445 75.0216 19.4915 75.5736 19.4915L92.7956 19.4915C93.3476 19.4915 93.7956 19.0445 93.7956 18.4915 93.7956 17.9385 93.3476 17.4915 92.7956 17.4915M83.4045 112.1673C78.4335 112.1673 74.4045 116.1963 74.4045 121.1673 74.4045 126.1383 78.4335 130.1673 83.4045 130.1673 88.3755 130.1673 92.4045 126.1383 92.4045 121.1673 92.4045 116.1963 88.3755 112.1673 83.4045 112.1673"/>
    <path fill="#72767D" fill-rule="nonzero" d="M82.3542 124.1839L82.3542 118.1499C82.3542 117.7389 81.8862 117.5029 81.5562 117.7479L77.4922 120.7659C77.2232 120.9649 77.2232 121.3689 77.4922 121.5689L81.5562 124.5849C81.8862 124.8299 82.3542 124.5949 82.3542 124.1839M85.2531 124.5853L89.3161 121.5683C89.5861 121.3683 89.5861 120.9653 89.3161 120.7663L85.2531 117.7483C84.9231 117.5033 84.4551 117.7383 84.4551 118.1493L84.4551 124.1843C84.4551 124.5953 84.9231 124.8303 85.2531 124.5853"/>
    <path fill="#202225" fill-rule="nonzero" d="M73.1188 73.5335C72.2898 73.5335 71.6188 74.2045 71.6188 75.0335 71.6188 75.8615 72.2898 76.5335 73.1188 76.5335 73.9478 76.5335 74.6188 75.8615 74.6188 75.0335 74.6188 74.2045 73.9478 73.5335 73.1188 73.5335M79.1188 76.5335C79.9478 76.5335 80.6188 75.8615 80.6188 75.0335 80.6188 74.2045 79.9478 73.5335 79.1188 73.5335 78.2898 73.5335 77.6188 74.2045 77.6188 75.0335 77.6188 75.8615 78.2898 76.5335 79.1188 76.5335M85.1188 76.5335C85.9478 76.5335 86.6188 75.8615 86.6188 75.0335 86.6188 74.2045 85.9478 73.5335 85.1188 73.5335 84.2898 73.5335 83.6188 74.2045 83.6188 75.0335 83.6188 75.8615 84.2898 76.5335 85.1188 76.5335M91.1188 76.5335C91.9478 76.5335 92.6188 75.8615 92.6188 75.0335 92.6188 74.2045 91.9478 73.5335 91.1188 73.5335 90.2898 73.5335 89.6188 74.2045 89.6188 75.0335 89.6188 75.8615 90.2898 76.5335 91.1188 76.5335M76.1188 77.5335C75.2898 77.5335 74.6188 78.2045 74.6188 79.0335 74.6188 79.8615 75.2898 80.5335 76.1188 80.5335 76.9478 80.5335 77.6188 79.8615 77.6188 79.0335 77.6188 78.2045 76.9478 77.5335 76.1188 77.5335M82.1188 80.5335C82.9478 80.5335 83.6188 79.8615 83.6188 79.0335 83.6188 78.2045 82.9478 77.5335 82.1188 77.5335 81.2898 77.5335 80.6188 78.2045 80.6188 79.0335 80.6188 79.8615 81.2898 80.5335 82.1188 80.5335M86.6188 79.0335C86.6188 79.8615 87.2898 80.5335 88.1188 80.5335 88.9478 80.5335 89.6188 79.8615 89.6188 79.0335 89.6188 78.2045 88.9478 77.5335 88.1188 77.5335 87.2898 77.5335 86.6188 78.2045 86.6188 79.0335M79.1188 81.5335C78.2898 81.5335 77.6188 82.2045 77.6188 83.0335 77.6188 83.8615 78.2898 84.5335 79.1188 84.5335 79.9478 84.5335 80.6188 83.8615 80.6188 83.0335 80.6188 82.2045 79.9478 81.5335 79.1188 81.5335M85.1188 81.5335C84.2898 81.5335 83.6188 82.2045 83.6188 83.0335 83.6188 83.8615 84.2898 84.5335 85.1188 84.5335 85.9478 84.5335 86.6188 83.8615 86.6188 83.0335 86.6188 82.2045 85.9478 81.5335 85.1188 81.5335M82.1188 85.5335C81.2898 85.5335 80.6188 86.2045 80.6188 87.0335 80.6188 87.8615 81.2898 88.5335 82.1188 88.5335 82.9478 88.5335 83.6188 87.8615 83.6188 87.0335 83.6188 86.2045 82.9478 85.5335 82.1188 85.5335M131.7634 134.181L125.5564 134.181C125.0044 134.181 124.5564 134.628 124.5564 135.181 124.5564 135.734 125.0044 136.181 125.5564 136.181L131.7634 136.181C132.3154 136.181 132.7634 135.734 132.7634 135.181 132.7634 134.628 132.3154 134.181 131.7634 134.181M137.6794 32.9251C137.9354 32.9251 138.1914 32.8271 138.3864 32.6321L139.5694 31.4481C139.9604 31.0581 139.9604 30.4251 139.5694 30.0341 139.1794 29.6441 138.5454 29.6441 138.1554 30.0341L136.9724 31.2181C136.5814 31.6091 136.5814 32.2411 136.9724 32.6321 137.1674 32.8271 137.4234 32.9251 137.6794 32.9251M131.7629 38.8411C132.0189 38.8411 132.2749 38.7431 132.4699 38.5481L133.6539 37.3641C134.0439 36.9741 134.0439 36.3411 133.6539 35.9501 133.2629 35.5601 132.6299 35.5601 132.2399 35.9501L131.0559 37.1341C130.6649 37.5251 130.6649 38.1571 131.0559 38.5481 131.2509 38.7431 131.5069 38.8411 131.7629 38.8411M138.1554 38.5481C138.3504 38.7431 138.6064 38.8411 138.8624 38.8411 139.1184 38.8411 139.3744 38.7431 139.5694 38.5481 139.9604 38.1571 139.9604 37.5251 139.5694 37.1341L138.3864 35.9501C137.9954 35.5601 137.3634 35.5601 136.9724 35.9501 136.5814 36.3411 136.5814 36.9741 136.9724 37.3641L138.1554 38.5481zM132.2394 32.6321C132.4344 32.8271 132.6904 32.9251 132.9464 32.9251 133.2024 32.9251 133.4584 32.8271 133.6534 32.6321 134.0444 32.2411 134.0444 31.6091 133.6534 31.2181L132.4694 30.0341C132.0794 29.6441 131.4464 29.6441 131.0554 30.0341 130.6654 30.4251 130.6654 31.0581 131.0554 31.4481L132.2394 32.6321zM133.3327 104.4993L131.8227 104.4993 131.8227 102.9893C131.8227 102.4363 131.3747 101.9893 130.8227 101.9893 130.2707 101.9893 129.8227 102.4363 129.8227 102.9893L129.8227 104.4993 128.3127 104.4993C127.7607 104.4993 127.3127 104.9463 127.3127 105.4993 127.3127 106.0523 127.7607 106.4993 128.3127 106.4993L129.8227 106.4993 129.8227 108.0103C129.8227 108.5623 130.2707 109.0103 130.8227 109.0103 131.3747 109.0103 131.8227 108.5623 131.8227 108.0103L131.8227 106.4993 133.3327 106.4993C133.8847 106.4993 134.3327 106.0523 134.3327 105.4993 134.3327 104.9463 133.8847 104.4993 133.3327 104.4993M29.6149 41.7591L31.1249 41.7591 31.1249 43.2701C31.1249 43.8221 31.5729 44.2701 32.1249 44.2701 32.6779 44.2701 33.1249 43.8221 33.1249 43.2701L33.1249 41.7591 34.6349 41.7591C35.1869 41.7591 35.6349 41.3121 35.6349 40.7591 35.6349 40.2061 35.1869 39.7591 34.6349 39.7591L33.1249 39.7591 33.1249 38.2491C33.1249 37.6971 32.6779 37.2491 32.1249 37.2491 31.5729 37.2491 31.1249 37.6971 31.1249 38.2491L31.1249 39.7591 29.6149 39.7591C29.0629 39.7591 28.6149 40.2061 28.6149 40.7591 28.6149 41.3121 29.0629 41.7591 29.6149 41.7591M117.946 78.4134L116.369 77.1434C115.345 76.3194 115.382 74.7494 116.442 73.9734L117.891 72.9114C118.56 72.4224 118.705 71.4834 118.216 70.8154 117.726 70.1464 116.787 70.0004 116.12 70.4914L112.044 73.4744C111.412 73.9354 111.039 74.6504 111.021 75.4344 111.003 76.2174 111.342 76.9484 111.953 77.4384L116.065 80.7494C116.342 80.9734 116.675 81.0814 117.005 81.0814 117.443 81.0814 117.878 80.8904 118.174 80.5214 118.694 79.8764 118.592 78.9324 117.946 78.4134M50.1281 70.5335C49.4821 70.0135 48.5391 70.1165 48.0191 70.7615 47.4991 71.4055 47.6011 72.3495 48.2461 72.8695L49.8231 74.1385C50.8471 74.9635 50.8111 76.5345 49.7501 77.3105L48.3681 78.3215C47.7661 78.7625 47.5071 79.5805 47.8421 80.2465 48.1151 80.7905 48.6481 81.0815 49.1881 81.0815 49.4961 81.0815 49.8061 80.9875 50.0731 80.7925L54.1501 77.8085C54.7821 77.3455 55.1541 76.6315 55.1721 75.8485 55.1901 75.0655 54.8501 74.3355 54.2411 73.8455L50.1281 70.5335z"/>
    <g transform="translate(21 .181)">
      <mask id="img_spotify_error_dark-b" fill="#fff">
        <use xlink:href="#img_spotify_error_dark-a"/>
      </mask>
      <path fill="#202225" fill-rule="nonzero" d="M2.9967,83.6464 L2.9967,78.9484 L9.7077,78.9484 C10.8127,78.9484 11.7077,78.0534 11.7077,76.9484 L11.7077,70.5674 C11.7077,69.4614 10.8127,68.5674 9.7077,68.5674 L2.9967,68.5674 L2.9967,63.8694 C2.9967,63.3174 3.4447,62.8694 3.9967,62.8694 L15.2527,62.8694 C17.4617,62.8694 19.2527,64.6604 19.2527,66.8694 L19.2527,80.6464 C19.2527,82.8554 17.4617,84.6464 15.2527,84.6464 L3.9967,84.6464 C3.4447,84.6464 2.9967,84.1994 2.9967,83.6464 M76.3057,109.3474 C75.4157,109.6434 74.8987,110.4964 75.0487,111.4204 C75.1987,112.3504 75.9617,113.0004 76.9047,113.0004 C82.6937,113.0004 87.4047,117.7094 87.4047,123.5004 C87.4047,129.2904 82.6937,134.0004 76.9047,134.0004 L47.9047,134.0004 C42.1147,134.0004 37.4047,129.2904 37.4047,123.5004 C37.4047,117.7094 42.1147,113.0004 47.9047,113.0004 L48.6967,113.0004 C49.6217,113.0004 50.3817,112.3654 50.5467,111.4564 C50.7107,110.5504 50.2227,109.6924 49.3607,109.3704 C42.7667,106.9014 21.2527,98.1574 21.2527,89.2744 L21.2527,60.9754 C21.2527,53.2164 27.5647,46.9054 35.3237,46.9054 L89.4857,46.9054 C97.2447,46.9054 103.5567,53.2164 103.5567,60.9754 L103.5567,89.2744 C103.5567,99.2224 84.4987,106.6264 76.3057,109.3474 M121.0757,84.6464 L109.5567,84.6464 C107.3467,84.6464 105.5567,82.8554 105.5567,80.6464 L105.5567,66.8694 C105.5567,64.6604 107.3467,62.8694 109.5567,62.8694 L121.0757,62.8694 C121.6277,62.8694 122.0757,63.3174 122.0757,63.8694 L122.0757,68.5674 L115.3637,68.5674 C114.2587,68.5674 113.3637,69.4614 113.3637,70.5674 L113.3637,76.9484 C113.3637,78.0534 114.2587,78.9484 115.3637,78.9484 L122.0757,78.9484 L122.0757,83.6464 C122.0757,84.1994 121.6277,84.6464 121.0757,84.6464 M121.0757,60.8694 L107.9727,60.8694 C106.6737,60.8694 105.5687,59.9184 105.3807,58.6334 C104.2437,50.8784 97.5507,44.9054 89.4857,44.9054 L48.8097,44.9054 C47.1457,44.9054 46.3117,42.8934 47.4887,41.7164 L51.0277,38.1774 C52.8377,36.3684 55.4927,35.6904 57.9467,36.4194 C59.6097,36.9144 61.3387,37.1684 63.0827,37.1684 C73.1047,37.1684 81.2587,29.0154 81.2587,18.9944 C81.2587,14.0164 79.2857,9.3724 75.7037,5.9154 C75.3067,5.5314 74.6737,5.5434 74.2887,5.9404 C74.2787,5.9514 74.2757,5.9654 74.2667,5.9764 C73.9137,6.3754 73.9277,6.9804 74.3147,7.3544 C77.5027,10.4304 79.2587,14.5644 79.2587,18.9944 C79.2587,27.9134 72.0017,35.1684 63.0827,35.1684 C60.1357,35.1684 57.2357,34.3504 54.6927,32.8014 C54.2897,32.5564 53.7767,32.6014 53.4427,32.9354 L43.7927,42.5844 C42.3077,44.0704 40.2927,44.9054 38.1917,44.9054 L35.5107,44.9054 C34.5887,44.9054 34.1257,43.7934 34.7737,43.1394 L49.1427,28.6344 C49.4757,28.3014 49.5207,27.7884 49.2757,27.3854 C47.7267,24.8434 46.9087,21.9424 46.9087,18.9944 C46.9087,10.0754 54.1637,2.8194 63.0827,2.8194 C65.3917,2.8194 67.6197,3.2944 69.7057,4.2324 C70.1957,4.4514 70.7647,4.2394 71.0037,3.7644 C71.0097,3.7514 71.0217,3.7434 71.0277,3.7304 C71.2547,3.2264 71.0297,2.6344 70.5257,2.4084 C68.1807,1.3534 65.6767,0.8194 63.0827,0.8194 C53.0617,0.8194 44.9087,8.9724 44.9087,18.9944 C44.9087,20.7384 45.1627,22.4674 45.6577,24.1294 C46.3867,26.5834 45.7087,29.2394 43.8987,31.0484 L31.2607,43.6874 C29.8807,45.0674 28.4057,46.3614 26.7567,47.4054 C22.8697,49.8644 20.1037,53.9384 19.4217,58.6814 C19.2397,59.9504 18.1167,60.8694 16.8357,60.8694 L3.9917,60.8694 C2.3347,60.8694 0.9967,62.2114 0.9967,63.8694 L0.9967,83.6464 C0.9967,85.3034 2.3397,86.6464 3.9967,86.6464 L16.6247,86.6464 C18.0767,86.6464 19.2527,87.8234 19.2527,89.2744 C19.2527,98.5984 36.8647,106.7594 47.9147,110.9624 C47.9357,110.9704 47.9287,111.0004 47.9067,111.0004 L47.9047,111.0004 C42.5877,111.0004 37.7157,114.3074 36.0737,119.3634 C34.6837,123.6434 35.5557,127.7554 37.7867,130.8214 C38.7497,132.1464 37.8167,134.0004 36.1787,134.0004 L14.3087,134.0004 C13.7567,134.0004 13.3087,134.4474 13.3087,135.0004 C13.3087,135.5524 13.7567,136.0004 14.3087,136.0004 L47.9047,136.0004 L76.9047,136.0004 L98.4997,136.0004 C99.0517,136.0004 99.4997,135.5524 99.4997,135.0004 C99.4997,134.4474 99.0517,134.0004 98.4997,134.0004 L88.6307,134.0004 C87.0087,134.0004 86.0437,132.1584 87.0017,130.8494 C88.5117,128.7874 89.4047,126.2474 89.4047,123.5004 C89.4047,116.8734 84.2207,111.4354 77.6937,111.0244 C77.6747,111.0234 77.6687,111.0004 77.6867,110.9934 C88.4417,107.3444 105.5567,99.8704 105.5567,89.2744 C105.5567,87.8234 106.7327,86.6464 108.1847,86.6464 L121.0757,86.6464 C122.7317,86.6464 124.0757,85.3034 124.0757,83.6464 L124.0757,63.8694 C124.0757,62.2114 122.7317,60.8694 121.0757,60.8694" mask="url(#img_spotify_error_dark-b)"/>
    </g>
  </g>
</svg>
