<svg width="202" height="264" viewBox="0 0 202 264" fill="none" xmlns="http://www.w3.org/2000/svg">
<rect x="0.5" y="0.5" width="201" height="263" rx="12" fill="#3D576F"/>
<g clip-path="url(#clip0_83_54987)">
<path d="M162.5 170.614L152.893 176.764L151.657 177.548L140.891 184.451L139.351 185.434L139.259 185.496H64.29L64.2595 185.481L63.07 184.727L40.5 170.614L51.5258 162.728L54.2708 160.775L63.6953 154.026L65.327 152.858L71.1372 148.707L87.0735 156.086L88.385 156.701L88.5375 156.763L94.1343 156.778H95.644L135.004 156.84H136.407L142.95 156.855H142.995L144.459 156.071L149.69 153.227L151.246 152.381L158.047 148.707L159.679 156.794L159.969 158.177L162.5 170.614Z" fill="#FFE55C"/>
<path d="M88.3851 156.701L64.2596 185.48L63.0701 184.727L87.0736 156.086L88.3851 156.701ZM142.95 156.855L139.351 185.434L140.891 184.45L144.459 156.071L142.995 156.855H142.95ZM88.6901 175.503C87.2414 176.686 85.3961 177.67 83.2001 178.454C83.0482 178.512 82.921 178.622 82.8401 178.764C82.7593 178.906 82.7298 179.072 82.7568 179.233C82.7838 179.395 82.8656 179.542 82.9882 179.649C83.1107 179.757 83.2665 179.818 83.4289 179.823C83.5125 179.824 83.5954 179.808 83.6729 179.777C86.0061 178.946 87.9886 177.87 89.5594 176.61C89.6314 176.553 89.6914 176.482 89.7358 176.401C89.7803 176.321 89.8083 176.232 89.8183 176.14C89.8282 176.049 89.8199 175.956 89.7937 175.868C89.7676 175.779 89.7242 175.697 89.6661 175.626C89.5519 175.48 89.3857 175.386 89.2031 175.363C89.0205 175.34 88.8363 175.39 88.6901 175.503ZM77.0391 179.915C75.4621 180.13 73.8725 180.238 72.2811 180.238C71.7626 180.253 71.2289 180.222 70.7104 180.207C70.619 180.201 70.5273 180.213 70.4407 180.243C70.3541 180.273 70.2743 180.32 70.2061 180.382C70.1379 180.444 70.0826 180.518 70.0435 180.602C70.0044 180.685 69.9822 180.776 69.9784 180.868C69.9743 180.961 69.9884 181.054 70.0199 181.141C70.0514 181.229 70.0998 181.309 70.1621 181.377C70.2244 181.446 70.2995 181.501 70.3831 181.541C70.4668 181.58 70.5572 181.602 70.6494 181.606C71.1679 181.637 71.7169 181.637 72.2354 181.637H72.2811C73.939 181.639 75.595 181.526 77.2374 181.299C77.4194 181.272 77.5835 181.174 77.6936 181.025C77.8037 180.877 77.8508 180.69 77.8245 180.507C77.7982 180.323 77.7007 180.158 77.5534 180.047C77.4061 179.936 77.2211 179.888 77.0391 179.915ZM100.25 169.676C97.8706 169.891 95.5526 170.445 93.7531 171.26C93.6062 171.326 93.4862 171.441 93.4135 171.586C93.3407 171.73 93.3196 171.896 93.3535 172.055C93.3875 172.213 93.4745 172.355 93.6001 172.457C93.7256 172.558 93.8819 172.613 94.0429 172.612C94.142 172.607 94.2396 172.586 94.3326 172.551C95.9949 171.798 98.1299 171.275 100.372 171.075C100.556 171.056 100.726 170.965 100.846 170.821C100.965 170.678 101.025 170.493 101.012 170.306C100.993 170.121 100.902 169.951 100.759 169.833C100.617 169.715 100.433 169.659 100.25 169.676ZM64.2901 180.576C64.4577 180.574 64.6192 180.513 64.7454 180.401C64.8717 180.29 64.9542 180.137 64.9782 179.97C65.0021 179.803 64.9659 179.632 64.8761 179.49C64.7862 179.347 64.6487 179.242 64.4884 179.192C62.0636 178.439 60.3709 177.348 59.5931 176.01C59.5001 175.851 59.3482 175.736 59.1709 175.69C58.9936 175.644 58.8054 175.67 58.6476 175.764C58.4899 175.858 58.3756 176.011 58.3298 176.19C58.2841 176.368 58.3106 176.558 58.4036 176.717C59.3491 178.362 61.3164 179.684 64.0919 180.545L64.2901 180.576ZM59.5474 170.875C59.6619 170.947 59.794 170.984 59.9286 170.983C60.0449 170.986 60.1599 170.957 60.2618 170.901C60.3636 170.844 60.4486 170.761 60.5081 170.66C62.1246 168.154 62.9176 166.171 62.9176 164.557C62.9176 164.449 62.9024 164.341 62.9024 164.234C62.909 164.133 62.8942 164.033 62.8591 163.938C62.824 163.844 62.7692 163.758 62.6986 163.687C62.6279 163.616 62.543 163.561 62.4495 163.525C62.356 163.49 62.256 163.475 62.1563 163.481C62.0566 163.488 61.9594 163.516 61.8713 163.564C61.7832 163.611 61.7062 163.677 61.6454 163.757C61.5847 163.837 61.5416 163.929 61.519 164.027C61.4965 164.125 61.495 164.227 61.5146 164.326V164.557C61.5146 165.863 60.7826 167.662 59.3491 169.907C59.2981 169.983 59.2627 170.069 59.245 170.159C59.2273 170.25 59.2277 170.343 59.2462 170.433C59.2647 170.523 59.3008 170.609 59.3525 170.685C59.4043 170.761 59.4705 170.825 59.5474 170.875ZM57.2141 160.56H57.1226C56.1684 160.567 55.2156 160.639 54.2709 160.775L51.5259 162.727C52.5629 162.466 54.9266 161.959 57.1226 161.959H57.2141C57.3805 161.934 57.5324 161.849 57.6422 161.721C57.7521 161.593 57.8125 161.429 57.8125 161.259C57.8125 161.09 57.7521 160.926 57.6422 160.797C57.5324 160.669 57.3805 160.585 57.2141 160.56ZM106.899 170.03C106.719 169.997 106.534 170.034 106.381 170.134C106.228 170.234 106.119 170.389 106.075 170.568C106.039 170.749 106.074 170.937 106.174 171.093C106.274 171.248 106.43 171.357 106.609 171.398C108.881 171.89 110.742 172.751 112.129 173.95C112.258 174.057 112.42 174.117 112.587 174.119C112.689 174.122 112.789 174.101 112.882 174.058C112.974 174.015 113.056 173.952 113.121 173.873C113.238 173.731 113.295 173.549 113.281 173.366C113.267 173.182 113.182 173.011 113.044 172.889C111.474 171.521 109.4 170.568 106.899 170.03ZM115.454 178.347C115.363 178.358 115.276 178.388 115.197 178.433C115.118 178.479 115.049 178.54 114.993 178.613C114.938 178.686 114.898 178.769 114.875 178.858C114.852 178.947 114.846 179.04 114.859 179.131C114.908 179.575 114.934 180.021 114.935 180.468C114.935 181.913 114.661 183.528 114.127 185.265C114.097 185.338 114.082 185.416 114.081 185.496H115.515C116.023 183.868 116.295 182.175 116.323 180.468C116.324 179.965 116.294 179.461 116.232 178.962C116.209 178.777 116.114 178.608 115.968 178.493C115.823 178.378 115.638 178.325 115.454 178.347ZM140.22 168.123C140.152 167.951 140.019 167.813 139.851 167.738C139.683 167.663 139.492 167.658 139.32 167.724C138.07 168.2 136.682 168.769 135.203 169.399C134.593 169.676 133.952 169.922 133.327 170.137C133.175 170.195 133.048 170.305 132.967 170.447C132.886 170.589 132.857 170.755 132.884 170.916C132.911 171.078 132.992 171.225 133.115 171.332C133.237 171.44 133.393 171.501 133.556 171.506C133.634 171.505 133.712 171.49 133.784 171.459C134.44 171.229 135.111 170.967 135.752 170.691C137.216 170.06 138.588 169.507 139.823 169.03C139.994 168.962 140.131 168.828 140.206 168.659C140.28 168.489 140.285 168.297 140.22 168.123ZM129.56 163.281C127.883 163.788 125.839 164.003 123.384 163.911C123.199 163.907 123.019 163.975 122.883 164.101C122.746 164.227 122.664 164.401 122.652 164.587C122.648 164.772 122.716 164.952 122.841 165.087C122.967 165.222 123.139 165.302 123.323 165.31L124.497 165.341C126.571 165.341 128.416 165.095 129.972 164.618C130.125 164.545 130.246 164.419 130.314 164.263C130.382 164.107 130.392 163.932 130.342 163.769C130.292 163.606 130.185 163.467 130.042 163.378C129.898 163.288 129.727 163.253 129.56 163.281ZM151.84 168.062C151.996 168.06 152.146 168.006 152.267 167.908C152.408 167.791 152.5 167.624 152.522 167.441C152.545 167.258 152.497 167.073 152.389 166.924C151.215 165.387 149.08 165.018 145.603 165.756C145.514 165.774 145.428 165.81 145.353 165.862C145.277 165.914 145.213 165.98 145.163 166.058C145.113 166.135 145.079 166.222 145.063 166.312C145.047 166.403 145.049 166.496 145.069 166.586C145.085 166.677 145.12 166.764 145.171 166.842C145.222 166.919 145.288 166.985 145.365 167.036C145.442 167.086 145.529 167.12 145.62 167.135C145.711 167.15 145.804 167.147 145.893 167.124C148.714 166.525 150.483 166.74 151.276 167.785C151.342 167.872 151.428 167.943 151.526 167.991C151.624 168.039 151.731 168.063 151.84 168.062ZM152.374 173.012C152.285 172.994 152.193 172.995 152.104 173.013C152.015 173.031 151.93 173.067 151.855 173.119C151.78 173.17 151.716 173.236 151.666 173.313C151.616 173.39 151.582 173.476 151.566 173.566L151.505 173.842C151.409 174.365 151.358 174.895 151.352 175.426C151.349 176.144 151.452 176.859 151.657 177.547L152.893 176.763C152.793 176.324 152.742 175.876 152.74 175.426C152.74 174.987 152.786 174.549 152.877 174.119L152.938 173.842C152.97 173.657 152.929 173.467 152.823 173.312C152.718 173.157 152.557 173.049 152.374 173.012ZM134.455 160.744C134.561 160.791 134.675 160.817 134.791 160.821C134.916 160.82 135.038 160.785 135.146 160.72C135.253 160.655 135.341 160.563 135.401 160.452C135.993 159.336 136.336 158.103 136.407 156.839H135.004C134.937 157.87 134.657 158.876 134.181 159.791C134.093 159.954 134.073 160.146 134.124 160.324C134.176 160.503 134.295 160.653 134.455 160.744ZM116.796 163.727C113.578 164.188 113.243 165.879 113.243 166.586C113.243 167.293 113.7 168.369 114.569 169.246C114.636 169.311 114.715 169.362 114.801 169.396C114.888 169.431 114.98 169.447 115.073 169.446C115.164 169.446 115.255 169.427 115.339 169.39C115.423 169.353 115.499 169.299 115.561 169.23C115.625 169.166 115.676 169.089 115.711 169.005C115.746 168.92 115.764 168.83 115.764 168.738C115.764 168.647 115.746 168.556 115.711 168.472C115.676 168.387 115.625 168.311 115.561 168.246C114.966 167.647 114.63 167.063 114.63 166.586C114.63 165.571 116.277 165.218 116.994 165.11C117.178 165.084 117.344 164.984 117.456 164.834C117.567 164.685 117.615 164.496 117.589 164.311C117.576 164.219 117.545 164.132 117.498 164.053C117.451 163.973 117.388 163.905 117.314 163.85C117.241 163.796 117.157 163.757 117.068 163.736C116.979 163.714 116.886 163.711 116.796 163.727ZM127.181 171.429C125.095 171.601 122.995 171.44 120.959 170.952C120.871 170.929 120.779 170.924 120.689 170.937C120.599 170.95 120.512 170.981 120.434 171.029C120.356 171.076 120.288 171.138 120.234 171.212C120.181 171.286 120.142 171.37 120.12 171.459C120.074 171.641 120.101 171.833 120.195 171.995C120.29 172.156 120.444 172.273 120.624 172.32C122.248 172.707 123.911 172.898 125.58 172.889C126.144 172.889 126.724 172.874 127.288 172.828C127.471 172.812 127.641 172.724 127.761 172.583C127.881 172.442 127.941 172.26 127.928 172.074C127.923 171.982 127.899 171.892 127.858 171.809C127.817 171.726 127.76 171.653 127.69 171.592C127.62 171.532 127.539 171.487 127.452 171.459C127.365 171.43 127.273 171.42 127.181 171.429ZM72.7691 157.27C73.502 157.731 74.2049 158.24 74.8736 158.792C75.9259 159.668 76.9476 160.467 77.8931 161.175C78.0147 161.257 78.1584 161.3 78.3049 161.298C78.4138 161.299 78.5215 161.274 78.6194 161.226C78.7173 161.178 78.8028 161.108 78.8691 161.021C78.9248 160.947 78.9651 160.862 78.9876 160.772C79.0102 160.682 79.0144 160.588 79.0002 160.496C78.986 160.404 78.9535 160.316 78.9048 160.237C78.8561 160.159 78.7921 160.09 78.7166 160.037C77.7864 159.345 76.7951 158.561 75.7581 157.715C75.0475 157.123 74.2986 156.579 73.5164 156.086C73.4404 156.033 73.3543 155.996 73.2636 155.979C73.173 155.961 73.0796 155.962 72.9894 155.982C72.8992 156.002 72.8141 156.041 72.7395 156.096C72.6648 156.151 72.6022 156.221 72.5556 156.301C72.458 156.459 72.4257 156.648 72.4656 156.829C72.5056 157.011 72.6146 157.169 72.7691 157.27ZM67.2334 154.733C67.4101 154.753 67.5876 154.702 67.7283 154.593C67.869 154.483 67.962 154.323 67.9877 154.145C68.0134 153.968 67.9698 153.787 67.8661 153.642C67.7623 153.496 67.6066 153.397 67.4316 153.365C66.6895 153.15 65.988 152.98 65.3271 152.857L63.6954 154.026C64.8299 154.168 65.9517 154.399 67.0504 154.718L67.2334 154.733ZM93.7836 160.36C93.9226 160.36 94.0583 160.317 94.1726 160.237C94.287 160.158 94.3747 160.045 94.4241 159.914C94.6071 159.453 94.7901 159.007 94.9579 158.53C95.1256 158.054 95.4001 157.362 95.6441 156.778H94.1344L93.6616 158.038C93.4786 158.484 93.3109 158.945 93.1279 159.391C93.0936 159.477 93.0767 159.569 93.0781 159.661C93.0796 159.753 93.0993 159.845 93.1363 159.929C93.1732 160.014 93.2266 160.09 93.2933 160.153C93.3599 160.217 93.4385 160.266 93.5244 160.298C93.6038 160.342 93.6933 160.363 93.7836 160.36ZM89.7424 164.142C88.3546 164.772 86.4941 164.511 84.1151 163.388C84.031 163.34 83.9379 163.31 83.8416 163.299C83.7453 163.289 83.648 163.299 83.5556 163.328C83.4633 163.357 83.378 163.406 83.3051 163.47C83.2322 163.534 83.1733 163.613 83.1321 163.702C83.091 163.79 83.0684 163.886 83.0658 163.984C83.0632 164.081 83.0807 164.178 83.1172 164.269C83.1537 164.359 83.2083 164.441 83.2777 164.509C83.3471 164.577 83.4297 164.63 83.5204 164.664C85.2589 165.479 86.7381 165.879 88.0649 165.879C88.8411 165.888 89.6105 165.731 90.3219 165.418C90.4893 165.337 90.6194 165.195 90.6847 165.02C90.7502 164.845 90.7458 164.652 90.6726 164.48C90.5933 164.311 90.451 164.181 90.2767 164.117C90.1024 164.054 89.9103 164.063 89.7424 164.142ZM159.679 156.793C157.818 157.408 156.217 157.746 154.921 157.792C154.755 157.821 154.605 157.908 154.497 158.039C154.39 158.17 154.333 158.335 154.337 158.505C154.34 158.675 154.405 158.838 154.517 158.964C154.63 159.089 154.784 159.17 154.951 159.191H154.982C156.354 159.145 158.032 158.792 159.969 158.177L159.679 156.793ZM150.346 155.763H150.407C150.59 155.744 150.759 155.652 150.876 155.508C150.993 155.364 151.049 155.18 151.032 154.994C151.017 154.81 151.017 154.61 151.017 154.426C151.025 153.738 151.102 153.053 151.246 152.381L149.69 153.226C149.642 153.624 149.617 154.025 149.614 154.426C149.614 154.656 149.629 154.887 149.644 155.133C149.666 155.305 149.749 155.464 149.878 155.58C150.007 155.696 150.173 155.761 150.346 155.763Z" fill="#FFC419"/>
<path d="M109.949 137.407L105.282 155.41C105.194 155.734 105.029 156.031 104.8 156.275C104.571 156.519 104.286 156.702 103.971 156.809C101.668 157.577 96.4677 159.499 98.2367 160.575C100.494 161.928 106.807 159.945 107.707 158.3C108.835 156.255 115.088 137.115 115.088 137.115L109.949 137.407Z" fill="url(#paint0_linear_83_54987)"/>
<path d="M122.438 137.469L128.218 159.73C128.323 160.132 128.526 160.501 128.808 160.804C129.091 161.108 129.443 161.335 129.834 161.467C132.671 162.42 139.106 164.788 136.926 166.11C134.135 167.801 126.342 165.326 125.229 163.312C123.826 160.775 116.094 137.115 116.094 137.115L122.438 137.469Z" fill="url(#paint1_linear_83_54987)"/>
<path d="M108.698 142.22C109.018 143.373 111.245 143.942 113.06 143.235L115.073 137.178L109.933 137.47L108.698 142.22Z" fill="#CF1581"/>
<path d="M123.795 142.696L122.438 137.469L116.094 137.115C116.094 137.115 116.948 139.744 118.138 143.326C119.602 144.495 122.941 143.372 123.795 142.696Z" fill="#CF1581"/>
<path d="M72.1743 95.0703C72.1743 95.0703 79.0978 98.0682 84.8928 95.6699C86.4788 95.0242 87.8361 96.9766 86.6923 98.2373C85.5486 99.4979 83.5356 100.789 80.6838 100.974L72.1743 95.0703Z" fill="#3442D7"/>
<path d="M95.9187 97.2982C90.3524 99.5581 80.2874 101.126 74.8127 96.4834C64.2292 87.4899 44.0992 93.4702 46.0664 110.796C48.0337 128.122 69.2312 126.8 69.2312 126.8L80.9279 115.577C74.8127 116.7 63.5582 103.648 77.0392 106.584C90.1694 109.459 95.7204 103.986 98.0232 99.6504C98.7704 98.2514 97.3674 96.714 95.9187 97.2982Z" fill="url(#paint2_linear_83_54987)"/>
<path d="M57.29 108.859C57.29 108.859 59.7148 104.908 65.647 107.183C72.784 109.919 77.7555 108.628 80.8818 106.737C82.1323 105.999 81.5528 104.077 80.104 104.139C77.5725 104.216 74.2633 103.463 70.649 100.434C67.0348 97.4053 63.7408 97.5283 61.2398 98.2663" fill="#5865F0"/>
<path d="M57.2904 109.567C57.1611 109.564 57.0349 109.527 56.9244 109.459C56.7673 109.361 56.6552 109.204 56.6123 109.023C56.5695 108.841 56.5995 108.65 56.6957 108.491C57.2667 107.665 58.0316 106.994 58.9222 106.538C60.2794 105.831 62.5822 105.247 65.8914 106.523C72.9674 109.229 77.7559 107.814 80.5314 106.139C80.6681 106.064 80.7738 105.942 80.8297 105.795C80.8856 105.649 80.888 105.487 80.8364 105.339C80.7924 105.188 80.6994 105.056 80.5723 104.964C80.4452 104.872 80.2912 104.826 80.1349 104.832C76.7342 104.955 73.3944 103.648 70.2072 100.973C67.5079 98.7132 64.5494 98.0214 61.4384 98.9438C61.2652 98.982 61.0841 98.9526 60.9315 98.8616C60.7789 98.7706 60.6662 98.6247 60.6159 98.4533C60.5657 98.2819 60.5817 98.0977 60.6607 97.9377C60.7398 97.7777 60.876 97.6538 61.0419 97.5909C64.5799 96.5455 68.0569 97.345 71.1069 99.897C74.1569 102.449 77.0392 103.541 80.0892 103.433C80.5512 103.416 81.0056 103.555 81.3812 103.826C81.7568 104.098 82.0325 104.488 82.165 104.934C82.2975 105.38 82.2794 105.859 82.1135 106.294C81.9476 106.729 81.6433 107.096 81.2482 107.338C78.1982 109.167 72.9827 110.751 65.3882 107.83C60.1117 105.816 57.9614 109.09 57.8699 109.229C57.8112 109.331 57.7267 109.417 57.625 109.476C57.5233 109.535 57.4079 109.567 57.2904 109.567Z" fill="#0C1AAB"/>
<path d="M72.7536 121.619C72.6316 122.05 72.5706 122.311 72.5706 122.311C63.1003 129.613 72.0216 142.527 72.0216 142.527C73.7753 140.421 75.9103 138.407 78.5333 136.901C79.9821 124.048 76.0171 121.604 72.7536 121.619Z" fill="#FF78B7"/>
<path d="M144.993 78.512C136.88 78.8349 133.861 86.3679 135.523 91.9793C137.277 97.852 139.884 100.819 140.403 103.848C140.921 106.876 138.847 109.705 135.874 109.859C130.948 110.105 123.536 105.078 116.582 106.031C106.289 107.43 109.339 114.455 92.6399 111.642C77.4357 109.09 73.5317 118.883 72.7539 121.62C76.0174 121.604 79.9824 124.049 78.5337 136.901C84.2524 133.596 92.3197 132.642 103.772 138.038C120.486 145.894 136.087 132.427 136.087 132.427L140.815 118.099C140.815 118.099 161.539 111.673 157.529 89.458C156.415 83.2779 151.962 78.22 144.993 78.512Z" fill="url(#paint3_linear_83_54987)"/>
<path d="M150.88 119.759C151.11 119.465 151.243 119.105 151.26 118.731C151.278 118.356 151.179 117.986 150.978 117.671C150.776 117.356 150.482 117.112 150.136 116.974C149.79 116.836 149.41 116.81 149.05 116.9C144.825 117.976 137.566 118.637 129.956 113.887C118.26 106.584 105.236 115.762 108.225 126.8C111.58 139.161 133.861 144.219 141.104 130.736C141.104 130.736 147.22 129.045 146.671 122.88C148.32 122.228 149.771 121.152 150.88 119.759Z" fill="#5865F0"/>
<path d="M86.8144 130.46C88.5157 130.46 89.8949 128.258 89.8949 125.541C89.8949 122.824 88.5157 120.621 86.8144 120.621C85.1131 120.621 83.7339 122.824 83.7339 125.541C83.7339 128.258 85.1131 130.46 86.8144 130.46Z" fill="white"/>
<path d="M86.7378 124.232C85.4721 124.232 84.4351 125.877 84.4351 127.891C84.4364 128.205 84.4619 128.519 84.5113 128.829C85.0908 129.828 85.8991 130.459 86.8141 130.459C87.7291 130.459 88.3543 129.951 88.9033 129.137C88.9974 128.728 89.0435 128.31 89.0406 127.891C89.0406 125.877 88.0188 124.232 86.7378 124.232Z" fill="black"/>
<path d="M75.9257 118.375C70.9085 117.253 70.3442 124.555 70.3442 124.555C70.3442 124.555 73.135 120.066 76.49 124.709C77.4812 126.062 77.71 127.83 77.8472 129.521C78.015 131.55 78.076 134.717 77.3135 137.654C77.832 137.315 78.381 136.977 78.93 136.67C80.5312 130.782 81.9647 119.743 75.9257 118.375Z" fill="#CF1581"/>
<path d="M146.67 124.372C144.647 124.984 142.546 125.295 140.433 125.295C139.823 125.295 139.442 125.264 139.381 125.264C139.289 125.258 139.2 125.234 139.118 125.193C139.035 125.151 138.962 125.094 138.903 125.024C138.843 124.954 138.798 124.872 138.77 124.784C138.742 124.696 138.732 124.603 138.74 124.511C138.744 124.418 138.767 124.326 138.807 124.242C138.847 124.159 138.904 124.084 138.974 124.023C139.044 123.963 139.126 123.917 139.214 123.89C139.303 123.863 139.396 123.854 139.488 123.865C139.533 123.865 143.102 124.111 146.67 122.896C146.716 123.387 146.716 123.881 146.67 124.372ZM126.113 130.122C125.935 130.067 125.743 130.085 125.579 130.173C125.414 130.261 125.291 130.412 125.236 130.591C125.182 130.77 125.2 130.964 125.287 131.13C125.375 131.296 125.524 131.42 125.702 131.475C128.081 132.213 131.481 133.012 135.141 133.012C136.777 133.019 138.409 132.844 140.006 132.49C140.407 131.929 140.774 131.343 141.104 130.737L141.623 130.553C136.011 132.551 129.804 131.275 126.113 130.122Z" fill="#0C1AAB"/>
<path d="M56.955 147.016C56.5983 146.782 56.2964 146.473 56.0705 146.109C55.8412 145.751 55.6905 145.347 55.6282 144.925L55.3995 143.465C55.3966 143.429 55.3802 143.396 55.3537 143.373L55.2622 143.342L55.1707 143.373C55.1443 143.396 55.1279 143.429 55.125 143.465L54.8962 144.925C54.834 145.347 54.6832 145.751 54.454 146.109C54.2237 146.469 53.9227 146.778 53.5695 147.016L53.3712 147.139C53.356 147.139 53.3407 147.17 53.3255 147.185C53.311 147.208 53.3055 147.235 53.3102 147.262C53.3079 147.284 53.3134 147.306 53.3255 147.324C53.3407 147.339 53.356 147.37 53.3712 147.37L53.5695 147.493C53.9227 147.731 54.2237 148.04 54.454 148.4C54.6832 148.758 54.834 149.162 54.8962 149.583L55.125 151.044C55.1279 151.079 55.1443 151.113 55.1707 151.136L55.2622 151.167L55.3537 151.136C55.3802 151.113 55.3966 151.079 55.3995 151.044L55.6282 149.583C55.6905 149.162 55.8412 148.758 56.0705 148.4C56.2964 148.036 56.5983 147.727 56.955 147.493L57.1532 147.37C57.1685 147.37 57.1837 147.339 57.199 147.324C57.2111 147.306 57.2165 147.284 57.2142 147.262C57.2189 147.235 57.2135 147.208 57.199 147.185C57.1837 147.17 57.1685 147.139 57.1532 147.139L56.955 147.016Z" fill="#FFE55C"/>
<path d="M50.9312 139.807C50.367 139.45 49.8878 138.973 49.5282 138.408C49.1773 137.841 48.9438 137.208 48.842 136.547L48.5065 134.272C48.4905 134.221 48.4646 134.174 48.4302 134.134C48.3868 134.098 48.3336 134.077 48.2777 134.072C48.2225 134.079 48.1699 134.1 48.1252 134.134C48.09 134.172 48.0686 134.22 48.0642 134.272L47.7135 136.547C47.6108 137.21 47.3719 137.844 47.012 138.408C46.658 138.972 46.184 139.45 45.6242 139.807L45.3345 140.006C45.302 140.024 45.2754 140.051 45.2582 140.083C45.2379 140.115 45.2271 140.153 45.2271 140.191C45.2271 140.229 45.2379 140.266 45.2582 140.299L45.3345 140.375L45.6242 140.575C46.184 140.932 46.658 141.41 47.012 141.974C47.3719 142.538 47.6108 143.172 47.7135 143.834L48.0642 146.11C48.0716 146.161 48.0973 146.209 48.1366 146.242C48.1759 146.276 48.226 146.295 48.2777 146.294C48.3321 146.295 48.3855 146.279 48.4302 146.248C48.4613 146.205 48.4869 146.159 48.5065 146.11L48.842 143.834C48.9462 143.175 49.1795 142.542 49.5282 141.974C49.8878 141.409 50.367 140.932 50.9312 140.575L51.2362 140.375C51.2644 140.357 51.2858 140.33 51.2972 140.299C51.3176 140.266 51.3284 140.229 51.3284 140.191C51.3284 140.153 51.3176 140.115 51.2972 140.083C51.2858 140.052 51.2644 140.025 51.2362 140.006L50.9312 139.807Z" fill="#FF78B7"/>
<path d="M160.121 132.534C159.563 132.17 159.086 131.693 158.718 131.135C158.363 130.57 158.129 129.937 158.032 129.275L157.681 127C157.679 126.947 157.658 126.898 157.62 126.861C157.6 126.841 157.576 126.825 157.55 126.814C157.524 126.803 157.496 126.797 157.467 126.797C157.439 126.797 157.411 126.803 157.385 126.814C157.359 126.825 157.335 126.841 157.315 126.861C157.277 126.898 157.256 126.947 157.254 127L156.903 129.275C156.801 129.938 156.562 130.571 156.202 131.135C155.843 131.696 155.37 132.173 154.814 132.534L154.524 132.719L154.448 132.811C154.429 132.844 154.418 132.881 154.417 132.919C154.421 132.956 154.431 132.993 154.448 133.026C154.465 133.059 154.492 133.086 154.524 133.103L154.814 133.303C155.377 133.656 155.852 134.134 156.202 134.702C156.564 135.265 156.803 135.899 156.903 136.562L157.254 138.822C157.256 138.875 157.277 138.924 157.315 138.96C157.335 138.98 157.359 138.996 157.385 139.007C157.411 139.017 157.439 139.022 157.467 139.022C157.496 139.023 157.524 139.018 157.55 139.008C157.577 138.997 157.6 138.981 157.62 138.96C157.658 138.924 157.679 138.875 157.681 138.822L158.032 136.562C158.124 135.899 158.358 135.265 158.718 134.702C159.078 134.137 159.557 133.659 160.121 133.303L160.426 133.103L160.487 133.026C160.504 132.993 160.514 132.956 160.517 132.919C160.517 132.881 160.506 132.844 160.487 132.811L160.426 132.719L160.121 132.534Z" fill="#8AD7FF"/>
<path d="M144.535 96.3924C144.557 96.5778 144.505 96.7643 144.391 96.9112C144.276 97.058 144.109 97.1534 143.925 97.1765H143.834C143.664 97.1775 143.5 97.1153 143.374 97.0017C143.247 96.8882 143.166 96.7314 143.148 96.5615C142.172 88.4289 138.771 85.2158 136.224 83.9552C136.421 83.5509 136.646 83.1606 136.895 82.7868C139.793 84.2627 143.514 87.8294 144.535 96.3924ZM148.866 78.9588C148.288 78.7857 147.696 78.6623 147.097 78.5898C149.339 82.5562 152.786 90.8426 149.309 100.159C149.269 100.266 149.256 100.38 149.27 100.493C149.284 100.606 149.326 100.714 149.39 100.808C149.454 100.902 149.54 100.978 149.64 101.031C149.74 101.084 149.851 101.112 149.964 101.112C150.108 101.114 150.248 101.07 150.366 100.988C150.483 100.905 150.572 100.787 150.62 100.651C153.99 91.5959 151.184 83.4479 148.866 78.9588Z" fill="#29CA7A"/>
</g>
<defs>
<linearGradient id="paint0_linear_83_54987" x1="102.764" y1="160.03" x2="108.719" y2="141.949" gradientUnits="userSpaceOnUse">
<stop offset="0.18" stop-color="#FF78B7"/>
<stop offset="0.97" stop-color="#F25AA8"/>
</linearGradient>
<linearGradient id="paint1_linear_83_54987" x1="129.61" y1="162.417" x2="124.266" y2="142.06" gradientUnits="userSpaceOnUse">
<stop offset="0.26" stop-color="#FF78B7"/>
<stop offset="0.51" stop-color="#F96BB0"/>
<stop offset="0.97" stop-color="#EB4A9F"/>
<stop offset="1" stop-color="#EA489E"/>
</linearGradient>
<linearGradient id="paint2_linear_83_54987" x1="72.6975" y1="107.994" x2="75.8669" y2="125.92" gradientUnits="userSpaceOnUse">
<stop offset="0.15" stop-color="#5865F0"/>
<stop offset="0.89" stop-color="#3442D7"/>
</linearGradient>
<linearGradient id="paint3_linear_83_54987" x1="114.258" y1="100.788" x2="121.718" y2="140.238" gradientUnits="userSpaceOnUse">
<stop offset="0.42" stop-color="#8FFFAB"/>
<stop offset="0.92" stop-color="#58F086"/>
</linearGradient>
<clipPath id="clip0_83_54987">
<rect width="122" height="107" fill="white" transform="translate(40.5 78.5)"/>
</clipPath>
</defs>
</svg>
