<svg fill="none" height="108" viewBox="0 0 343 108" width="343" xmlns="http://www.w3.org/2000/svg" xmlns:xlink="http://www.w3.org/1999/xlink"><linearGradient id="a" gradientUnits="userSpaceOnUse" x1="122.847" x2="134.397" y1="36.3055" y2="65.8499"><stop offset="0" stop-color="#ffc285"/><stop offset="1" stop-color="#db8d6b"/></linearGradient><linearGradient id="b" gradientUnits="userSpaceOnUse" x1="160.727" x2="97.6817" y1="53.6849" y2="53.6849"><stop offset="0" stop-color="#d67569"/><stop offset="1" stop-color="#e39e7f"/></linearGradient><clipPath id="c"><rect height="59.904" rx="7.488" width="112.32" x="71.8799" y="30.8721"/></clipPath><clipPath id="d"><path d="m161.736 51.4641c0-4.1355 3.353-7.488 7.488-7.488h97.344c4.136 0 7.488 3.3525 7.488 7.488v48.6719c0 4.136-3.352 7.488-7.488 7.488h-97.344c-4.135 0-7.488-3.352-7.488-7.488z"/></clipPath><clipPath id="e"><rect height="70.2" rx="7.488" width="112.32" x="161.736" y="43.9761"/></clipPath><clipPath id="f"><path d="m162.672 44.9121h110.448v61.776h-110.448z"/></clipPath><clipPath id="g"><path d="m162.672 84.2241h110.448v22.464h-110.448z"/></clipPath><clipPath id="h"><path d="m162.672 44.9121h110.448v47.736h-110.448z"/></clipPath><clipPath id="i"><path d="m162.672 44.9121h110.448v43.056h-110.448z"/></clipPath><clipPath id="j"><rect height="63.648" rx="7.488" width="112.32" x="-17.9761" y="43.9761"/></clipPath><clipPath id="k"><rect height="70.0237" rx="7.488" width="112.32" x="-17.9761" y="43.9761"/></clipPath><clipPath id="l"><rect height="59.904" rx="5.616" width="108.576" x="-16.104" y="45.8481"/></clipPath><clipPath id="m"><path d="m-10.488 43.9761h97.344v61.776h-97.344z"/></clipPath><clipPath id="n"><path d="m0 0h101.088v89.856h-101.088z" transform="matrix(-1 0 0 1 358.296 .919922)"/></clipPath><mask id="o" height="65" maskUnits="userSpaceOnUse" width="114" x="161" y="43"><rect fill="#c4c4c4" height="61.776" rx="6.552" stroke="#fff" stroke-width="1.872" width="110.448" x="162.672" y="44.9121"/></mask><mask id="p" height="65" maskUnits="userSpaceOnUse" width="113" x="-18" y="43"><rect fill="#c4c4c4" height="63.648" rx="7.488" width="112.32" x="-17.9761" y="43.9761"/></mask><mask id="q" height="64" maskUnits="userSpaceOnUse" width="113" x="251" y="29"><rect fill="#c4c4c4" height="61.776" rx="6.552" stroke="#fff" stroke-width="1.872" width="110.448" x="252.528" y="29.936"/></mask><rect fill="#5e87f9" height="61.776" rx="6.552" stroke="#fff" stroke-width="1.872" width="110.448" x="72.8159" y="29.936"/><g clip-path="url(#c)"><path d="m73.752 64.1808c10.4217-2.8678 22.7503.9208 26.485 9.3924 11.206-3.6044 24.161 3.0782 30.273 10.9447h-56.758z" fill="#6e94ff"/><path d="m182.322 52.0259c-6.818-1.1576-14.863.3683-17.318 3.7886-7.313-1.4471-15.776 1.2628-19.773 4.4199h37.091z" fill="#7a9dff"/><path d="m157.475 88.333c-2.089-4.499-2.037-4.6831-5.746-6.0249l4.936 7.1299z" fill="#ff707e"/><path d="m100.169 48.6578.236.2105.496.4735.183.1579.391.342c8.724 7.5508 19.904 10.7342 27.478 13.0232 9.769 2.9466 17.893 3.8148 23.978 3.8411 7.915-.0789 9.508-4.2358 6.165-9.1819l-1.881-2.3416-9.664-11.8392-.47-.5788c-6.374-7.6034-12.094-11.0236-24.135-8.3927l-18.31 3.999h-.052c-6.3996 1.4207-9.4034 5.3408-4.415 10.287z" fill="url(#a)"/><path d="m121.247 35.8456c-7.314 1.8154-19.851 5.4987-19.851 5.4987l-3.0303.4209c1.0709-1.5522 3.2913-2.7361 6.2163-3.3939h.052l18.31-3.999c5.695-1.2365 9.952-1.105 13.557.1316-5.564-1.3418-8.803-.2631-15.254 1.3417z" fill="#fffdc4"/><path d="m128.404 63.8375c-6.425-1.9469-20.164-7.4456-25.493-12.8127 1.254 1.2628.026-.9998 2.429.1842 12.642 6.209 41.348 14.6017 47.59 15.4962-6.112.3683-17.97-.8945-24.526-2.8677z" fill="#fffdc4"/><path d="m98.7056 41.3432c5.6414-1.7101 18.3624-.1579 32.4664 4.2884 14.706 4.6304 26.381 11.0236 29.516 15.733.366 3.0782-2.038 5.2882-7.758 5.3408s-14.209-.8945-23.978-3.8412c-7.574-2.2889-18.754-5.4723-27.478-13.0231l-.391-.342-.183-.1579-.497-.4735-.235-.2105c-2.899-2.8941-3.0818-5.4198-1.4624-7.314z" fill="url(#b)"/><path d="m153.056 62.8594c.824-2.6483-9.612-8.3-23.308-12.6234-13.697-4.3234-25.468-5.6814-26.292-3.0331s9.611 8.3 23.308 12.6234c13.696 4.3234 25.468 5.6814 26.292 3.0331z" fill="#6b3143"/><path d="m103.564 48.1573c-.155-.2992-.201-.6435-.131-.9734.059-.1483.148-.2827.261-.3947l14.131 6.1038-10.605-7.0246c.461-.0264.924-.0264 1.385 0l9.821 6.6036c.58-.081 1.169-.081 1.75 0l-5.381-5.9459 2.037.3684 4.127 5.6828c.836.1052 1.803.2894 2.874.5262l-3.083-5.3671 1.829.4472 2.037 5.104 1.933.5262-1.41-4.9461c.731.1754 1.462.3858 2.194.6314l.679 4.6831h-.157l.522.1841 1.489-4.1042 1.646.5525-2.586 3.7096 1.306.4472 3.709-3.3413 1.959.7104-4.571 3.0256 1.358.5262 5.668-2.6047 2.403.9735-7.026 2.0521 1.646.763 9.951-.6841c.836.421 1.646.8419 2.377 1.2629h-11.231l.783.4999 13.661 1.6048c.588.4249 1.123.9196 1.593 1.4734l-14.601-2.4731c.045.0487.078.1075.096.1715.019.064.021.1315.009.1968-.023.0572-.058.1084-.103.1496-.045.0411-.1.0709-.159.0872l15.124 3.7885c-.235.3158-.705.5789-1.385.763l-15.175-4.42c-.816-.0452-1.628-.1507-2.429-.3157l12.067 4.8673c-.575-.0263-1.201-.1053-1.854-.1842l-11.78-4.9988-.418-.0789 7.574 4.3147c-1.149-.2368-2.35-.4735-3.604-.7893l-5.459-3.8937-2.952-.8682c-1.254-.3947-2.429-.8156-3.5-1.2103l-4.649.8682c-1.567-.5788-3.03-1.1839-4.388-1.789l7.104.1315h-.026l-10.892-1.8942c-1.227-.6315-2.351-1.2366-3.317-1.8154l12.041 2.6836-.783-.4473z" fill="#7a384c"/><path d="m166.696 97.5138h-63.314c1.123-1.1576 2.481-1.868 4.649-2.8677l4.884-.6841 1.803-.2368 3.918-.5524 2.977-.3947 1.776-.2368.758-.1052 7.339-.9998 1.698-.2367 2.769-.3684 1.097-.1578 2.142-.2894.522-.079 4.754-.6577 11.284-1.5259.574-.079c.339-.0263.68-.0263 1.019 0 5.355.1316 7.209 2.5257 9.351 9.4714z" fill="#2347a1"/><path d="m156.325 88.0425-.314.4473c-.104.1052-.182.2631-.313.4209l-.34.4473c-.6.7893-1.436 1.8943-2.481 3.2097l-2.455 2.9993-.81.9471c-.287.3157-.548.6578-.836.9998h-40.303c-.313-1.7627-.444-2.8677-.444-2.8677-.003-.2745.068-.5448.206-.7814s.338-.4304.578-.5604l3.657-2.1311h.026v-.2631c0-.1052-.026-.1841-.026-.2631 0-.0789-.052-.8419-.052-1.1576v-.342c-.02-.1571-.028-.3153-.027-.4736-.013-.0338-.022-.0691-.026-.1052l-.13-2.21c-.025-.4385.057-.8765.239-1.2756s.459-.747.806-1.0133l4.832-3.8412.418-.342 1.358-1.0524 3.369-2.6572 1.907-.2631h.026l2.534-.3946h.026l3.448-.4999.992-.1579 2.56-.3946 1.228-.1842h.209l.679.1053.888.1315 1.802.2894c.787.1264 1.538.4191 2.204.859.667.4398 1.233 1.0168 1.662 1.693l1.985 3.0782.157.0526 1.227.3684 4.101 1.2365.836.2368.548.2105h.053c1.098.4887 1.987 1.3563 2.507 2.4467z" fill="#ef6270"/><path d="m146.792 80.8346c-.966-2.4467-1.489-5.3408-7.601-6.5773l-4.519-.6841.366 3.7097 8.541 5.6828z" fill="#ff707e"/><path d="m156.327 88.0423-.314.4473c-.104.1052-.183.2631-.313.4209l-.34.4473c-.6.7893-1.436 1.8943-2.481 3.2097l-2.455 2.9993-.81.9472-.862.9997h-18.885c.444-1.5786 1.097-3.9464 1.411-5.2882.051-.2678.121-.5315.209-.7893.444-1.6574.81-2.6835-1.933-3.1045l.287-1.447 1.254-6.3932.313-1.7101.262-1.2365.418-2.1048.104-.5525 2.56-.3946 1.227-.1842h.209l.679.1053.889.1315 1.802.2894c.787.1264 1.538.4191 2.204.859s1.233 1.0169 1.662 1.693l1.985 3.0782.156.0526 1.228.3684 4.101 1.2365.836.2368.548.2105h.052c1.099.4887 1.988 1.3564 2.508 2.4468z" fill="#e05164"/><path d="m138.931 81.2034c3.082-2.3415 2.873-2.1573 1.149-3.2886-1.037-.6823-2.236-1.0729-3.474-1.1314z" fill="#bd3c53"/><path d="m139.714 90.3049-5.041 7.2088h-3.788c2.064-2.2626 4.232-4.6568 6.165-6.8404 2.742-3.1572 5.015-5.9197 5.876-7.2614l-.261 1.7101-.183 1.2102z" fill="#e05164"/><path d="m117.198 81.9398c-3.422 2.9993-5.12 2.1837 2.951 13.3389l1.933-1.2892 5.642-6.3669-7.157-9.0767z" fill="#c74153"/><path d="m118.244 52.0247c.209-.6841 4.832.1052 10.369 1.7627 5.538 1.6575 9.821 3.5518 9.638 4.2358-1.149 9.2609-.966 17.4695.679 23.1786l-16.847 12.7863c-7.052-17.1011-4.91-32.2553-3.839-41.9634z" fill="#ffb685"/><path d="m125.662 75.5469 6.53-.1052.705 3.8411c-2.559 2.5783-6.294 1.5523-8.201-.1578-2.508 2.21-4.963 2.1836-6.687.2368l-.052-.0527c-.157-1.0523-.313-2.1047-.418-3.1571 2.664-.7893 8.123-.6051 8.123-.6051z" fill="#fe9b77"/><path d="m132.191 85.8603c-1.619-11.1289-1.253-24.5204-1.045-31.2556 4.232 1.4207 7.262 2.8414 7.105 3.4203-1.149 9.2609-.966 17.4694.679 23.1785z" fill="#fe9b77"/><path d="m118.243 52.0247c.209-.6841 4.832.1052 10.37 1.7627 5.537 1.6575 9.821 3.5518 9.638 4.2358-.157 1.1839-.287 2.3416-.392 3.4992-6.007-.7367-14.34.2104-20.661 2.1573.209-4.4199.68-8.3663 1.045-11.655z" fill="#a8387e" opacity=".4"/><path d="m124.407 37.9761-3.135.6051.914 1.4733z" fill="#ffcd8f"/><path d="m129.771 70.4917c.373-.6723.287-1.4356-.191-1.705-.479-.2693-1.169.0573-1.542.7295s-.287 1.4356.191 1.7049c.479.2694 1.169-.0572 1.542-.7294z" fill="#543247"/><path d="m132.898 34.8711s-1.619-.1315-2.324.421c.809.9471 2.324-.421 2.324-.421z" fill="#ffd08f"/><path d="m127.725 34.8447c-3.448-.8156-3.735.9998-3.735.9998z" fill="#fffdc4"/><path d="m153.087 56.3123c-.183 1.2628-2.978 2.0784-2.978 2.0784l1.149.8945c2.899-.0789 3.657-1.5522 3.657-1.5522-.535-.564-1.151-1.043-1.828-1.4207z" fill="#d4655b"/><path d="m160.506 61.7856c-.47 1.3944-6.452.5525-6.452.5525l-.183.7104c4.415.7893 6.321.3946 6.321.3946s.262-.4209.314-1.6575z" fill="#d4655b"/><path d="m138.488 48.8695c-.339 1.6312-2.325 2.7362-2.325 2.7362l-3.238-.9998c.914-1.3155 1.306-3.1308 1.306-3.1308s2.22.6051 4.257 1.3944z" fill="#dc7363"/><path d="m117.093 97.4609-.078.0526h-3.291c-.261-1.0261-.549-2.3152-.81-3.5518-.261-1.2365-.392-2.131-.444-2.8151v-.2631c0-.1052-.026-.1841-.026-.2631 0-.0789-.052-.8419-.052-1.1576v-.342c-.019-.1571-.028-.3153-.026-.4736-.013-.0338-.022-.0691-.026-.1052.64 1.7986 1.445 3.5337 2.403 5.1829.862 1.4997 1.724 2.8151 2.35 3.736z" fill="#d14658"/><path d="m150.893 82.0702c-1.997 2.6472-4.142 5.1771-6.426 7.5771-2.716 2.9203-5.589 5.7618-7.862 7.8665h-2.664c1.437-1.868 3.317-4.3937 5.25-7.1298 1.176-1.7101 2.377-3.4992 3.474-5.2619.549-.8682 1.071-1.7364 1.567-2.5783.418-.7104.81-1.3944 1.176-2.0785h.156l1.228.3684z" fill="#cc4355"/><path d="m142.142 80.439-8.332 8.1033-1.62 7.0772 9.142-11.6551z" fill="#e65568"/><path d="m121.587 92.6981 17.16-12.1023.314-.2368c.496-.4473.888-.4473-.131.8419l-16.847 12.7863z" fill="#bd3c53"/><path d="m163.718 43.7109-2.168-.9734c-.026 0-.026-.079 0-.079l2.168-.9734h.026l.967-2.1837c0-.0263.078-.0263.078 0l.967 2.1837h.026l2.168.9734c.026 0 .026.079 0 .079l-2.168.9734h-.026l-.967 2.1837h-.078l-.967-2.1837z" fill="#ff99b9"/><path d="m89.3032 77.8078-2.168-.9734c-.0138 0-.0271-.0056-.0369-.0155-.0098-.0098-.0153-.0232-.0153-.0372 0-.0139.0055-.0273.0153-.0372.0098-.0098.0231-.0154.0369-.0154l2.168-.9734h.0261l.9664-2.1574c0-.0526.0523-.0526.0784 0l.9664 2.1574h.0261l2.168.9734c.0128.0145.0199.0332.0199.0526 0 .0195-.0071.0382-.0199.0527l-2.168.9734h-.0261l-.9664 2.1574c-.0261.0526-.0784.0526-.0784 0l-.9664-2.1574z" fill="#5580f9"/><path d="m152.877 49.8934c-3.474-3.1834-6.373-4.4989-6.373-4.4989 3.239.6578 5.563 1.7365 6.373 4.4989z" fill="#eb9363"/><path d="m117.617 35.8445-5.512 1.2102c.653-1.2628 1.385-1.4996 5.512-1.2102z" fill="#fffdc4"/><path d="m127.594 78.6236c-2.273 0-4.441-.0527-5.12.5261-.679.5789.392 1.9206 2.064 3.1835.731.5525 1.07.6051 2.82-.9472 1.28-1.1049 1.986-2.7887.236-2.7624z" fill="#c74153"/><path d="m126.654 78.729 1.907.3157c.261.5525-.314 1.5786-1.202 2.3416-1.75 1.5522-2.089 1.4996-2.821.9471l-.757-.6314c.287-.6841 1.201-2.4205 2.873-2.973z" fill="#a82c3c"/><path d="m123.26 78.834c.993-.2368 2.638-.2105 4.336-.2105.966-.0263 1.175.4999.966 1.1313l-5.171.1052c-.288 0-.235-.5788-.131-1.026z" fill="#fff"/><path d="m115.711 75.5964c-.523-.9208-.235-2.3941.888-3.1571-.064.1723-.09.3567-.076.5402.014.1834.067.3616.157.522s.213.2991.361.4065c.149.1074.319.1808.498.2151.627.1052 1.776-.1316 2.272-.3157 1.385-.5262 2.952-.5525 4.833.4209 2.559-1.3944 4.283-.1841 6.608-.1841.636.0066 1.27-.0821 1.881-.2631 1.959-.5788 1.932-1.526 1.488-2.5257 2.795.6577 2.665 3.657 1.437 4.9724-.731.9209-2.09 1.3418-3.892.8946-2.821 2.4204-4.205 2.5783-7.522.4472-2.691 2.2626-5.277 2.0258-6.818-.8156 0 0-1.567-.1315-2.115-1.1576z" fill="#6b3143"/><path d="m124.643 77.5703c-2.691 2.2626-5.276 2.0258-6.818-.8156 0 0-2.429-.2105-2.376-2.0785.313.7367 1.593 1.4471 2.794 1.184 1.933 1.5785 3.997 1.105 5.93-.3947 0 0 4.1 2.21 7-.2105 3.317.8156 5.668-.7103 5.276-2.8151.783 1.184.444 2.8941-.392 3.7886-.731.9208-2.089 1.3418-3.892.8945-2.821 2.4205-4.205 2.5783-7.522.4473z" fill="#5e2737"/><path d="m122.021 71.2122c.478-.2052.636-.9133.353-1.5816-.283-.6682-.9-1.0436-1.378-.8384-.477.2052-.635.9134-.352 1.5816.283.6683.899 1.0436 1.377.8384z" fill="#543247"/></g><g clip-path="url(#d)"><g clip-path="url(#e)"><g clip-path="url(#f)"><g mask="url(#o)"><path d="m274.056 46.0658c0-1.1541-.935-2.0897-2.09-2.0897h-108.14c-1.154 0-2.09.9356-2.09 2.0896v59.4683c0 1.154.936 2.09 2.09 2.09h108.14c1.155 0 2.09-.936 2.09-2.09z" fill="#a8bfff"/><path d="m273.12 47.0018c0-1.1541-.935-2.0897-2.09-2.0897h-106.268c-1.154 0-2.09.9356-2.09 2.0897v57.5962c0 1.155.936 2.09 2.09 2.09h106.268c1.155 0 2.09-.935 2.09-2.09z" fill="#a8bfff"/><path d="m226.777 92.9988c3.866-11.4468 14.758-13.2625 20.401-10.3942-.784-6.1313 7.104-18.8411 22.019-11.0784h4.859v40.3398h-46.756z" fill="#c2d2ff"/><path d="m177.618 93.8434c-1.045-2.9998-5.747-10.4731-15.882-9.21v21.9986h38.999c-.105-11.1044-12.382-17.1305-23.117-12.7886z" fill="#c2d2ff"/><g clip-path="url(#g)"><path d="m161.736 113.974h112.32v-25.6565h-19.329v20.3415h-7.053v-6.395h-16.143l-29.177-13.6307h-12.877v-4.5261h-6.374v16.1308l-3.265-1.0527-4.441 4.7897h-13.661z" fill="#648ae8"/></g><g fill="#7d2952"><path d="m225.967 59.9497c.836 0 1.515-.6833 1.515-1.5262 0-.843-.679-1.5263-1.515-1.5263-.837 0-1.515.6833-1.515 1.5263 0 .8429.678 1.5262 1.515 1.5262z"/><path d="m215.623 63.4743c.837 0 1.515-.6833 1.515-1.5262s-.678-1.5262-1.515-1.5262-1.515.6833-1.515 1.5262.678 1.5262 1.515 1.5262z"/><path d="m202.329 67.0539c.837 0 1.515-.6833 1.515-1.5262s-.678-1.5262-1.515-1.5262-1.515.6833-1.515 1.5262.678 1.5262 1.515 1.5262z"/><path d="m192.794 68.8418c.836 0 1.515-.6833 1.515-1.5263 0-.8429-.679-1.5262-1.515-1.5262-.837 0-1.515.6833-1.515 1.5262 0 .843.678 1.5263 1.515 1.5263z"/><path d="m182.424 69.9751c.837 0 1.515-.6833 1.515-1.5263 0-.8429-.678-1.5262-1.515-1.5262-.836 0-1.515.6833-1.515 1.5262 0 .843.679 1.5263 1.515 1.5263z"/><path d="m172.575 69.7119c.836 0 1.515-.6833 1.515-1.5262 0-.843-.679-1.5263-1.515-1.5263-.837 0-1.515.6833-1.515 1.5263 0 .8429.678 1.5262 1.515 1.5262z"/><path d="m266.193 92.9219c.836 0 1.515-.6834 1.515-1.5263s-.679-1.5262-1.515-1.5262c-.837 0-1.515.6833-1.515 1.5262s.678 1.5263 1.515 1.5263z"/></g><g clip-path="url(#h)"><path d="m271.966 43.9761h-110.23v20.341c22.177 5.9471 58.955-3.0788 79.277-15.8939 6.896 33.9719 33.043 44.524 33.043 44.524v-46.866c0-.5583-.22-1.0937-.612-1.4885s-.923-.6166-1.478-.6166z" fill="#7d2952"/></g><g clip-path="url(#i)" fill="#70254a"><path d="m161.736 43.9761v4.1313c26.017 14.6572 60.261 6.7892 74.628-4.1313z"/><path d="m274.057 43.9761h-22.308c.862 20.3147 10.135 36.1823 22.308 44.3398z"/></g><path d="m237.878 87.659c-1.306 3.1051-3.657 9.0521-3.657 9.0521l5.982 3.7369c2.403-5.6578 3.213-8.6577 3.605-10.2365.391-1.5789.653-3.1051-1.385-4.3419-2.037-1.2368-3.16-1.4736-4.545 1.7894z" fill="#f073ab"/><path d="m243.131 97.1576-3.579 8.3154c-.28.656-.687 1.25-1.199 1.745-.512.494-1.117.881-1.779 1.136s-1.369.374-2.078.349-1.405-.192-2.049-.493l-13.374-6.132 6.661-10.578 8.15 4.5787 1.202-3.5788c4.205 1.6842 6.451 3.1578 8.045 4.6577z" fill="#f7e5bc"/><path d="m227.585 93.1306c5.381.8947 5.877 2.0262 7.314 4.8682l-5.773-.6579z" fill="#f7e5bc"/><path d="m202.248 48.0559c-1.07.336-1.974 1.0696-2.527 2.0518-.553.9823-.714 2.1397-.451 3.2374l5.355 22.0252 9.586-1.9999-6.452-22.3146c-.161-.5646-.433-1.0911-.799-1.5488-.366-.4576-.818-.8372-1.331-1.1165-.514-.2793-1.077-.4527-1.657-.5102-.581-.0574-1.167.0023-1.724.1756z" fill="#d6569b"/><path d="m207.577 70.212 3.788-.1579-4.023-13.2624c-.055-.1907-.149-.3677-.276-.5202-.127-.1524-.283-.2769-.459-.3658-.177-.0889-.37-.1402-.567-.1507-.197-.0106-.394.0198-.578.0893-.325.1248-.592.3655-.751.6762s-.198.6696-.111 1.008z" fill="#e374b0"/><path d="m205.539 70.0544c-2.246-8.6312-4.44-16.815-5.433-20.499-.423.522-.719 1.1366-.865 1.7946-.145.6581-.135 1.3412.029 1.9947l4.075 16.7886z" fill="#f06ea8"/><path d="m224.428 47.9492c1.075.3252 1.986 1.0503 2.548 2.0278.563.9775.736 2.1342.482 3.2351l-5.119 22.0515-9.613-1.8684 6.217-22.3935c.156-.5664.423-1.0958.784-1.5571.362-.4613.812-.8453 1.322-1.1296.511-.2842 1.073-.463 1.653-.5258s1.167-.0084 1.726.16z" fill="#d6569b"/><path d="m214.006 68.8445.888 1.7631s3.396-15.1571 4.989-21.341c-.433.5044-.754 1.0967-.94 1.7368z" fill="#f06ea8"/><path d="m220.795 70.1574-3.762-.1316 3.866-13.3151c.055-.1906.149-.3674.276-.519.127-.1517.285-.2749.462-.3617s.37-.1352.567-.1421c.197-.007.393.0277.576.1018.323.1194.592.3539.756.6593.163.3054.21.6606.132.9985z" fill="#e374b0"/><path d="m225.955 68.3865-27.69 1.1691c-3.963.1674-7.042 3.5401-6.876 7.5332l.01.2392c.166 3.9931 3.514 7.0945 7.478 6.9271l27.69-1.1692c3.964-.1673 7.042-3.54 6.876-7.5331l-.01-.2393c-.166-3.993-3.514-7.0944-7.478-6.927z" fill="#f06ea8"/><path d="m202.221 109.578c-1.619-1.526-3.213-2.947-3.552-3.5-.34-.552.235-.737 1.044-1.026.81-.289 1.542.711 2.377 2.421.836 1.71 1.62 3.473.131 2.105z" fill="#f2c591"/><path d="m231.53 102.263-1.567 4.999-.209.632-1.933 6.105h-35.942c-.34-1.342.078-1.605.992-3.105s.444-1.105.575-4.737c.104-2.552 1.018-4.921 4.284-7.8679.992-.8683 1.227-1.2104 2.246-2.1577l.313-.2895.157-.1579.209-.1579 24.554-3.8945 4.937 8.289z" fill="#f7e5bc"/><path d="m229.127 102.29c1.516-4.0787 1.568-4.4208 2.09-3.2366.523 1.1846.836 1.1056-1.672 4.4206-2.507 3.316-1.071.579-.418-1.184z" fill="#e8c282"/><path d="m229.965 107.262c-.157 2.395-.366 4.658-.627 6.737h-26.408c.026-1.079.052-2.421.104-4.053-.004-.175.005-.351.027-.526v-2.026c-.183-4.816-1.542-8.1049-5.329-9.1049.705-.7105 1.437-1.4209 2.246-2.1577l.314-.2895.365-.3158 24.554-3.8945c1.933.7105 3.213 1.2105 4.676 2.7104.157 1.8946.235 3.7629.261 5.5786.026 2.5524-.052 4.9994-.183 7.3414z" fill="#1f3a70"/><path d="m225.209 91.6316-.339.0526-.34.3421c-1.254 5.2892-3.892 10.8157-3.892 10.8157s.131 1.342 1.959-1.264c1.829-2.6047 3.396-5.6835 4.18-8.5781z" fill="#172e5c"/><path d="m203.399 95.5513c4.754 5.7627 6.374 7.0527 8.124 8.2367s.287-.579-1.541-3.316c-1.829-2.7366-3.971-6.1312-3.971-6.1312z" fill="#172e5c"/><path d="m205.28 98.8945s-.235.4737-1.254 1.1845c-1.018.71-1.306 1.026-1.41.789-.398-.831-.975-1.5619-1.689-2.14s-1.547-.9886-2.438-1.2018c.679-.6842 1.436-1.3947 2.246-2.1578 3.657 1.5789 4.545 3.5261 4.545 3.5261z" fill="#244ab0"/><path d="m223.042 91.6316-4.963 18.7094-12.695-18.1568z" fill="#d4bf9b"/><path d="m220.718 100.395-8.463-2.2364c-1.515-.3947-.757.1316 0 1.0789.758.9475 5.277 6.1315 6.713 7.7895z" fill="#ccac89"/><path d="m208.152 95.1838 11.598 1.5525c1.306.1579 1.332-1.2631 2.011-4.0261l-12.512.921z" fill="#cf518a"/><path d="m227.606 81.2152-28.498 1.1483c-3.75.1512-6.669 3.3369-6.519 7.1155v.0105c.15 3.7786 3.312 6.7192 7.063 6.5681l28.498-1.1484c3.751-.1511 6.67-3.3368 6.52-7.1154l-.001-.0105c-.15-3.7786-3.312-6.7193-7.063-6.5681z" fill="#f06ea8"/><path d="m228.057 94.6856c3.657-.1579 6.661-3.1315 6.661-6.8155.012-1.3396-.368-2.6531-1.092-3.7763-.725-1.1233-1.762-2.0064-2.983-2.5391.919-.7059 1.655-1.6246 2.146-2.6783.492-1.0536.723-2.211.675-3.374v-.2369c-.04-.9506-.266-1.8838-.664-2.7464-.399-.8625-.963-1.6373-1.659-2.2802-.696-.6428-1.512-1.1409-2.399-1.466-.888-.325-1.831-.4705-2.774-.4281l-24.711 1.0526c-2.22 4.2893-1.906 8.8943-.261 12.2099.24.5019.376 1.048.398 1.6047.023.5567-.068 1.1121-.267 1.632-2.377 6.3681.757 10.9731.757 10.9731z" fill="#e05fa3"/><path d="m208.104 81.783c.628-.4138.663-1.4788.078-2.3787-.584-.8999-1.567-1.2939-2.195-.8801s-.663 1.4787-.078 2.3786 1.567 1.294 2.195.8802z" fill="#1b1926"/><path d="m220.481 79.8205c.272-.9799-.049-1.9263-.716-2.1139-.667-.1875-1.428.4547-1.699 1.4345-.272.9799.049 1.9263.716 2.1139.667.1875 1.428-.4547 1.699-1.4345z" fill="#1b1926"/><path d="m195.825 82.3677c-1.541-.579-1.933-.7632-3.003-1.1052.692.961 1.607 1.7377 2.664 2.263l-.314.2631c.712.0726 1.427.1077 2.142.1053 1.489-.0526 1.75-.2632-1.489-1.5262z" fill="#e05fa3"/><path d="m196.341 73.8807c1.152-1.0564 1.756-2.2787 1.348-2.7302-.408-.4514-1.673.0389-2.825 1.0953-1.152 1.0563-1.756 2.2786-1.348 2.7301s1.672-.0389 2.825-1.0952z" fill="#f792c0"/><path d="m194.492 110.287c2.194-.895 2.951-1.263 3.683-1.526.731-.263.104-.553-1.567-1.29-1.672-.736-2.064-1-2.169.448-.104 1.447-.653 2.657.053 2.368z" fill="#fad596"/><path d="m203.688 109.499c.705-3.789.627-4.815.94-4.894.314-.079.915.868 1.489 2.052.575 1.185-2.429 2.842-2.429 2.842z" fill="#172e5c"/><path d="m210.843 84.9491c1.724 2.9472 4.258 3.6313 5.955-.1842.021-.0342.031-.0733.03-.1129-.001-.0397-.014-.0782-.035-.1112-.022-.033-.053-.0592-.089-.0754s-.076-.0219-.114-.0163l-5.564.1579c-.038.0043-.074.0178-.105.0392-.032.0214-.057.0502-.075.0838-.018.0335-.028.071-.028.1092-.001.0381.008.0758.025.1099z" fill="#751b40"/><path d="m205.75 82.3946c1.202-2.3157 3.526-1.3421 3.526-1.3421l-1.149 2.5788z" fill="#e05fa3"/><path d="m217.505 80.5004c2.403-.9737 3.552 1.2894 3.552 1.2894l-2.533 1.2104z" fill="#e05fa3"/><path d="m214.317 84.5276-3.291.0789c-.038.0044-.074.0179-.105.0393-.032.0214-.057.0501-.075.0837s-.028.0711-.028.1092c-.001.0382.008.0759.025.1099 1.489 2.5262 3.552 3.3946 5.198 1.1842-.408-.6919-1.007-1.2496-1.724-1.6052z" fill="#9c2455"/><path d="m233.908 97.4739s1.697 4.1581 2.272 5.8151c.575 1.658-.235 1.474-1.149 1.342-.914-.131-.993-1.342-1.123-3.526-.131-2.1838-.523-4.6837 0-3.6311z" fill="#fad596"/><path d="m235.711 96.3663c.261 1.7894 1.176 3.4472 1.358 3.8947.183.447 1.542.158 2.717-.132 1.176-.2892.444-.7102-.993-1.9207-1.436-1.2104-3.317-3.2893-3.082-1.842z" fill="#fad596"/><path d="m182.789 106.079-1.75-.789c-.026 0-.026-.053 0-.053l1.75-.789.783-1.763h.079l.783 1.763 1.75.789c.027 0 .027.053 0 .053l-1.75.789-.783 1.763h-.079z" fill="#3366e0"/><path d="m238.871 70.5278-.809-.3684c-.027 0-.027-.0263 0-.0263l.809-.3684.366-.8421h.052l.366.8421.836.3684-.836.3684-.366.8157c-.026.0263-.026.0263-.052 0l-.366-.8157z" fill="#fafafa"/><path d="m189.347 60.2639-.836-.3684.836-.3684.365-.842h.026l.366.842h.026l.81.3684c.026 0 .026.0263 0 .0263l-.81.3684h-.026l-.366.8158c0 .0263-.026.0263-.026 0l-.365-.8158z" fill="#f7e5bc"/><path d="m266.193 43.9761h-4.075v70.0119h4.075z" fill="#783837"/><path d="m172.29 43.9761h-4.075v70.0119h4.075z" fill="#783837"/><path d="m266.193 43.9761h-4.075v53.334h4.075z" fill="#571e2f"/><path d="m172.29 43.9761h-4.075v31.8273h4.075z" fill="#571e2f"/><path d="m240.698 57.6316c.837 0 1.515-.6833 1.515-1.5263 0-.8429-.678-1.5262-1.515-1.5262s-1.515.6833-1.515 1.5262c0 .843.678 1.5263 1.515 1.5263z" fill="#7d2952"/><path d="m232.003 57.3428c.837 0 1.515-.6834 1.515-1.5263s-.678-1.5262-1.515-1.5262c-.836 0-1.515.6833-1.515 1.5262s.679 1.5263 1.515 1.5263z" fill="#7d2952"/><path d="m161.736 65.5261v3.0262c.397 0 .779-.1571 1.062-.4377.284-.2806.446-.662.453-1.0622 0-.4048-.16-.793-.444-1.0793-.284-.2862-.669-.447-1.071-.447z" fill="#7d2952"/><path d="m242.526 64.1326c.837 0 1.515-.6834 1.515-1.5263s-.678-1.5262-1.515-1.5262-1.515.6833-1.515 1.5262.678 1.5263 1.515 1.5263z" fill="#7d2952"/><path d="m251.747 79.4485c.837 0 1.515-.6834 1.515-1.5263s-.678-1.5262-1.515-1.5262-1.515.6833-1.515 1.5262.678 1.5263 1.515 1.5263z" fill="#7d2952"/><path d="m257.129 85.6313c.837 0 1.515-.6833 1.515-1.5262s-.678-1.5262-1.515-1.5262-1.515.6833-1.515 1.5262.678 1.5262 1.515 1.5262z" fill="#7d2952"/><path d="m246.292 71.2109c.837 0 1.515-.6833 1.515-1.5262s-.678-1.5263-1.515-1.5263-1.515.6834-1.515 1.5263.678 1.5262 1.515 1.5262z" fill="#7d2952"/><path d="m259.167 93.1562h-1.045v2.0657h1.045z" fill="#5177d6"/><path d="m270.242 99.946h-1.045v2.066h1.045z" fill="#5177d6"/><path d="m261.258 101.606h-1.044v2.066h1.044z" fill="#5177d6"/><path d="m191.826 96.1836h-1.045v2.0657h1.045z" fill="#5177d6"/><path d="m189.972 83.1602h-7.366v.9552h7.366z" fill="#8f80cf"/></g></g><rect height="61.776" rx="6.552" stroke="#fff" stroke-width="1.872" width="110.448" x="162.672" y="44.9121"/></g></g><g clip-path="url(#j)"><g clip-path="url(#k)"><g mask="url(#p)"><rect height="61.776" rx="6.552" stroke="#fff" stroke-width="1.872" width="110.448" x="-17.0401" y="44.9121"/><g clip-path="url(#l)"><rect fill="#f7e5bc" height="63.648" rx="7.488" width="112.32" x="-17.9761" y="45.8481"/><path d="m-21.1857 105.073v-24.6047c5.1703-1.9261 17.36893 1.3293 22.997 9.1693 6.62443-6.782 19.3886-7.2161 31.1294 0 3.1507-7.9485 14.9454-13.7268 30.3485-8.1113 1.158-9.3863 18.2307-17.579 31.318-6.5921v35.8628h-110.111c-1.5047-.007-2.9458-.612-4.0099-1.684-1.064-1.072-1.6649-2.524-1.672-4.04z" fill="#6adbc6"/><g fill="#44c9c5"><path d="m23.489 87.8767c-12.7642.0814-23.670232 6.2123-28.9213 22.9503h38.3732z"/><path d="m10.3196 110.799h-31.5065v-14.758c7.6478.7867 21.515978 3.7437 31.5065 14.758z"/></g></g><rect height="61.776" rx="6.552" stroke="#fff" stroke-width="1.872" width="110.448" x="-17.0401" y="44.9121"/><g clip-path="url(#m)"><path d="m-5.08457 103.825h68.77557c4.3355 4.151 4.5509 6.972 4.5509 6.972h-78.4698s2.12733-4.612 5.14333-6.972z" fill="#fafafa"/><path d="m-6.70179 106.866c-.22701-.191-.37892-.457-.4283-.75-.04938-.294.00701-.596.15901-.851.99636-1.655 1.3195-2.957 3.5815-4.15 2.262-1.1941 3.743069-2.6319 10.63678-3.5271 1.40029-3.6352 1.10408-4.7474 11.5254-5.5613h28.8136c4.7394.7596 5.0626.7596 5.8974 3.5809s.8078 2.4687 3.2853 3.4724c2.4774 1.0041 6.3282 1.1941 7.8092 4.5031.4848 1.085.6733 1.872-2.1542 7.216h-63.49762c-1.98822-1.14-3.87168-2.456-5.62807-3.933z" fill="#cc4f79"/><path d="m16.0002 93.1929c-4.9818.8681-4.7933.8681-1.4272 4.8559 3.366 3.9882 7.6477 7.6772 12.4679 9.6572 7.54 3.093 14.0029.19 17.9344-4.421 5.7089-6.7011 8.1594-10.0921 3.3392-10.0921z" fill="#590942"/><path d="m1.10951 55.4588 2.23507-1.0037c.01428 0 .02798-.0058.03808-.0159.0101-.0102.01578-.024.01578-.0384s-.00568-.0282-.01578-.0384c-.0101-.0101-.0238-.0159-.03808-.0159l-2.23507-1.0037c-.00714 0-.01399-.0029-.01904-.0079-.00505-.0051-.00789-.012-.00789-.0192l-.9963605-2.2517c0-.0271-.0538539-.0271-.08078245 0l-.99636005 2.2517c0 .0271.000007.0271-.026927.0271l-2.23507 1.0037c-.01325.015-.02057.0343-.02057.0543s.00732.0393.02057.0543l2.23507 1.0037h.026927l.99636005 2.2516c.02692855.0543.08078245.0543.08078245 0l.9963605-2.2516z" fill="#fafafa"/><path d="m63.8535 58.6327 1.4542-.6511c.0269 0 .0269-.0542 0-.0542l-1.4542-.6511c0-.0072-.0028-.0141-.0078-.0192-.0051-.0051-.0119-.0079-.0191-.0079l-.6463-1.4649c0-.0272-.0538-.0272-.0538 0l-.6463 1.4649h-.0269l-1.4542.6782c-.0269 0-.0269.0542 0 .0542l1.4542.6511c0 .0072.0028.0141.0078.0192.0051.0051.0119.0079.0191.0079l.6463 1.465h.0538l.6463-1.465c.0269 0 .0269 0 .0269-.0271z" fill="#f7d78d"/><path d="m44.33 71.1639c1.9389-5.4256 5.3319-9.3863 6.9476-10.1187 1.6157-.7325 1.2118.1899-.2962 4.7745-1.508 4.5847-1.535 12.0991-4.3355 12.1534-2.8006.0542-2.3159-6.8092-2.3159-6.8092z" fill="#2e64e8"/><path d="m47.8839 72.603c1.1579-2.333 1.2387-3.4724 1.6965-5.2357.2423-.9495.5924-2.2788.8886-3.3368-1.4003 2.5229-3.8508 8.1384-4.3624 9.9289-.5117 1.7904.6193.9495 1.7773-1.3564z" fill="#1c4bba"/><path d="m18.7745 71.5168c-2.7467-5.7783-7.1361-9.8746-9.15574-10.5528s-1.48107.2713.67324 5.1543c2.1543 4.883 2.6928 13.1028 6.1128 12.9672 3.4199-.1356 2.3697-7.5687 2.3697-7.5687z" fill="#2e64e8"/><path d="m29.0065 56.0274c-3.138 0-5.6819-2.5627-5.6819-5.724s2.5439-5.7241 5.6819-5.7241c3.1381 0 5.682 2.5628 5.682 5.7241s-2.5439 5.724-5.682 5.724z" fill="#201e2f"/><path d="m23.5931 51.7984c-.1921-1.4706 2.1742-2.9972 5.2854-3.4099 3.1112-.4126 5.7891.445 5.9813 1.9156s-2.1742 2.9972-5.2854 3.4098c-3.1112.4127-5.7891-.445-5.9813-1.9155z" fill="#41314a"/><path d="m19.5007 54.8866c5.8704-5.5341 15.5108-6.2394 22.1353-1.4378 6.6244 4.8017 5.251 12.289 4.1739 20.5088l-28.0327.8139c-1.1579-4.4761-4.12-14.3236 1.7235-19.8849z" fill="#4d7ae8"/><path d="m17.1303 72.3302 28.3289-.8409c5.1972 11.5023 10.3675 32.9067-12.9796 33.5847-22.2699.651-20.5465-19.7766-15.3493-32.7438z" fill="#4d7ae8"/><path d="m17.1295 72.33c-1.2117-5.0186-2.5582-12.7501 2.3698-17.4433l.5385-.4612h1.4811s-.6194 9.6848-.1077 13.5369c.5116 3.8522.3231 4.2591-.8348 4.7746-1.1579.5154-2.2351 1.1393-2.0196 6.0767.2154 4.9373.5116 5.5883-.5655 11.448-1.0772 5.8597.377 9.6033 3.4199 12.6963-10.3137-5.5074-8.3748-20.3735-4.2817-30.628z" fill="#2e64e8"/><path d="m39.0257 94.4942c-3.0698 4.1506-11.3638 5.2086-14.7299.1628-1.6965-2.5229 2.7736-2.6585 7.2976-2.6314s9.075.217 7.4323 2.4686z" fill="#3366e0"/><path d="m27.3183 72.9568c-.0719-2.4411 1.7377-4.4758 4.0419-4.5447s4.2304 1.8541 4.3023 4.2952c.0719 2.441-1.7377 4.4757-4.0419 4.5446s-4.2304-1.8541-4.3023-4.2951z" fill="#dbe7ff"/><path d="m29.9549 73.5114c-.0441-.9429.6427-1.7415 1.534-1.7839.8914-.0423 1.6497.6877 1.6939 1.6305.0441.9429-.6427 1.7415-1.534 1.7839-.8914.0423-1.6497-.6877-1.6939-1.6305z" fill="#201e2f"/><path d="m36.0339 65.143c-1.7503-3.6894-8.2132-3.3096-9.6943.2984z" fill="#201e2f"/><path d="m37.6508 80.578-.781.2713-.7809.1899-.7809.1899-.7809.1085c-2.1217.2561-4.2734-.0044-6.2744-.7596l-.754-.2984-.7271-.3526-.727-.3798-.7271-.4341h-.0808c-.2312-.1283-.4854-.209-.7479-.2375-.2624-.0285-.5279-.0042-.7809.0715-.2531.0757-.4887.2013-.6931.3695-.2045.1683-.3737.3757-.4979.6104-.1642.3107-.2455.659-.2361 1.0109.0095.3518.1094.6952.29.9965.8642 1.4098 2.0685 2.5763 3.5007 3.391 1.431.8266 3.0129 1.3536 4.651 1.5494 1.638.1958 3.2984.0563 4.8817-.41 1.5753-.4805 3.0027-1.3582 4.147-2.55.3712-.3887.574-.9098.5639-1.449s-.2323-1.0523-.6178-1.4266c-.2574-.2369-.5706-.4036-.9099-.4843s-.6935-.0727-1.0289.0231z" fill="#400015"/><path d="m38.5129 84.9737c-.888.6374-1.8692 1.1317-2.9082 1.4649-1.5833.4663-3.2437.6058-4.8818.41-1.638-.1958-3.22-.7228-4.651-1.5494-1.0187-.5901-1.9295-1.3516-2.6928-2.2516 1.1788-1.1686 2.556-2.115 4.0662-2.7942h.0539l.7539.2984c2.0011.7552 4.1528 1.0157 6.2744.7596l.7809-.1085h.0808c1.324.9889 2.3948 2.2816 3.1237 3.7708z" fill="#590942"/><path d="m23.97 81.6354-.0808-2.7399c.4564-.1131.9385-.0452 1.3464.1899h.0808l.7271.434.7271.3798.727.3527.754.2984c2.0011.7551 4.1527 1.0156 6.2744.7596l.7809-.1086.781-.1898.7809-.1899.7809-.2713h.1077c.263-.0721.5377-.0906.8079-.0543l.0538 1.4107c-5.3587 2.6314-11.4177 1.1394-14.6491-.2713z" fill="#dbe7ff"/><path d="m36.6264 80.9035.2424-.0543.7809-.2712h.1077c.263-.0721.5377-.0906.8079-.0543l.0538 1.4107c-.5511.2609-1.1177.4874-1.6965.6782z" fill="#b5cdff"/><path d="m26.959 82.6663c-1.0239-.2564-2.024-.6013-2.9891-1.0309l-.0807-2.7399c.4563-.1131.9384-.0452 1.3464.1899h.0808l.727.434.7271.3798.2693.1356z" fill="#b5cdff"/><path d="m24.8862 76.646-4.147 2.0889c-.0538-2.5229 2.0197-2.8213 4.147-2.0889z" fill="#3366e0"/><path d="m42.9827 82.2037-3.8239-3.7979c2.9083-.0814 4.0662 1.8718 3.8239 3.7979z" fill="#3366e0"/><path d="m40.6921 86.0852c-1.2925 1.8447-2.612 3.5538-2.612 3.5538 2.639-.217 2.612-3.5538 2.612-3.5538z" fill="#3366e0"/><path d="m19.5001 54.8866c5.8705-5.5341 15.5109-6.2394 22.1353-1.4378 3.043 2.1974 4.3625 5.1272 4.7933 8.4911-3.6353 2.8213-4.0393-2.0888-5.5742-7.1889-5.4396 4.449-13.6797 4.5032-18.9577.5425l-.2154 4.3134c-.2424 4.1777-3.043 4.666-5.5473 2.4415.3231-2.6314 1.2656-5.1814 3.366-7.1618z" fill="#201e2f"/><path d="m37.7273 61.5494c-.688-.7053-.9534-1.5665-.5927-1.9235.3606-.3571 1.2107-.0748 1.8987.6305s.9534 1.5665.5927 1.9235c-.3606.3571-1.2107.0748-1.8987-.6305z" fill="#618aed"/><path d="m11.2884 63.7321c1.4612 2.1163 2.7662 4.3377 3.9046 6.6464.6732 1.4107-.0269 1.6006-.2423 3.3096-.2155 1.7091-.754.8952-1.4542-2.0075-.7001-2.9027-1.0771-3.9335-1.7773-5.5069-.7001-1.5735-1.88497-4.5576-.4308-2.4416z" fill="#1c4bba"/><path d="m7.73299 98.9448c1.3195 3.5542 4.82021 11.8552 4.82021 11.8552h10.2598c-5.4396-3.825-9.5597-8.139-11.4177-11.4483-1.8581-3.3096-2.2351-5.29-3.63539-1.6005-.1561.3806-.1657.8062-.02692 1.1936z" fill="#ba3b66"/><path d="m9.64331 110.8c-4.92793-5.887-6.54364-7.894-7.86314-8.654-1.319498-.759-3.52765-1.926-1.157932 1.709 2.369712 3.635 6.355142 6.945 6.355142 6.945z" fill="#ba3b66"/><path d="m43.6555 110.797c3.8239-4.666 6.4629-9.224 7.4592-11.7466.9964-2.5229 1.2926-3.1468 1.535-1.7362.2423 1.4107.7809 2.0618.2962 4.0148s-2.0735 7.243-3.0699 9.468z" fill="#ba3b66"/><path d="m59.408 110.798h1.508c1.7235-4.395 2.4236-6.375 2.5044-7.84s-1.6696 3.391-4.0124 7.84z" fill="#ba3b66"/><path d="m53.1353 110.826h3.1776c.8348-6.376.8348-7.623.6463-9.414-.1885-1.7903-1.0772-.244-1.7235 2.957-.4888 2.216-1.1923 4.379-2.1004 6.457z" fill="#ba3b66"/><path d="m65.897 98.3483c-2.8275-4.6118-5.8704-6.8634-9.5596-8.898s-4.1739-3.2011-1.4542-4.1235c2.7198-.9223 5.0626-.5697 8.321.7867 3.2583 1.3564 5.5742 2.1431 6.5706 5.9953.9963 3.8522-.404 6.1852-3.8778 6.2395z" fill="#542113"/><path d="m64.9557 93.5175c-1.7504-7.4059-2.9352-13.0214-4.0662-18.0673-1.131-5.0458-2.3967-7.9756-.4578-8.8708 1.9388-.8952 2.9891-.5697 5.5473 5.1814 2.5582 5.7512 3.6892 9.9018 4.524 12.8859.8348 2.984 3.6353 11.0953-5.5473 8.8708z" fill="#542113"/><path d="m68.6204 81.907 1.6965-.2442c-.9156-9.8203-1.4003-13.9981-1.6157-16.8194s.9425-2.8755 2.7198-2.9569 2.4236.651 3.2045 4.3405c.7809 3.6894 1.7234 10.0916 2.0735 12.6145s.9425 8.3283.8886 10.173c-.0538 1.8447-8.9672 2.6857-8.9672-7.1075z" fill="#542113"/><path d="m76.8581 84.3774c-.2693-3.825.2962-14.0252.3501-15.9242.0539-1.8989.7271-1.6819 2.3428-1.7361 1.6157-.0543 2.2889.6782 2.5043 5.1543.2155 4.4761.5655 9.332.5117 11.5837 1.1625 3.1705 1.6042 6.5635 1.2926 9.9288-.3232 3.5538-.781 4.5033-1.4273 5.6155-.6462 1.1126-4.497 2.3606-9.425 2.8486-4.9279.488-5.3857-.217-7.1091-3.4996-1.7234-3.2825 1.508-12.1263 1.508-12.1263z" fill="#542113"/><path d="m83.5353 95.9316c.727 1.709 2.1543 5.7514 3.5545 9.7664-.1584 1.4-.8218 2.693-1.8643 3.634-1.0425.94-2.3914 1.462-3.7907 1.466h-13.8143c.0269-.461.4039-6.972-.8887-10.9329 0 0 15.1608-7.7315 16.8035-3.9335z" fill="#542113"/><g fill="#4a1a0d"><path d="m66.7325 88.2813c3.1775 2.0346 4.0662 3.0112 4.8471 4.4219.7809 1.4106 1.5349 1.5463 4.4163 1.6005 2.8813.0543 2.9352.1085 3.7431-3.3367.8078-3.4453-.404-4.9102-3.5277-4.7746-4.147.1628-11.3908 1.0038-9.4788 2.0889z"/><path d="m81.2473 82.3428h-10.6637c3.3122-1.5192 7.9439-1.3293 10.6637 0z"/><path d="m68.6697 82.8304c-1.5888.5697-4.6856 1.899-4.6856 1.899 2.262-3.3639 4.6856-1.899 4.6856-1.899z"/><path d="m66.9478 75.6142c-1.6427.3256-4.928 1.1394-4.928 1.1394 2.7737-2.957 4.928-1.1394 4.928-1.1394z"/><path d="m74.9731 73.2821c-1.5349.1356-4.6317.5154-4.6317.5154 2.9891-2.55 4.6317-.5154 4.6317-.5154z"/><path d="m81.4885 75.6673c-1.2656-.1899-3.8777-.4069-3.8777-.4069 2.9083-1.6006 3.8777.4069 3.8777.4069z"/></g><path d="m53.4319 86.0852c2.4775 1.899 6.1667 2.2788 9.6943 4.0963 3.5277 1.8176 4.147 3.7437 5.1165 6.4023.6159 1.7585 1.1284 3.5522 1.5349 5.3712-2.0466-.217-2.639-1.248-3.8777-3.6079-2.8275-4.6118-5.8705-6.8634-9.5597-8.898-2.7736-1.4921-3.743-2.5229-2.9083-3.3639z" fill="#732d1a"/><path d="m66.7342 99.865-.8348-1.5192c-.1616-.2984-.35-.5426-.5116-.8139 1.7503 2.3602 6.3282 2.8481 10.2598 3.1201 3.9315.271 7.163-1.0041 7.89-4.7206.4578 1.0851 2.1005 5.2896 3.5815 9.1966v5.67h-19.4962c.0269-.462.4039-6.972-.8887-10.933z" fill="#4a1a0d"/><path d="m60.4062 66.5791c-.256.9482-.2745 1.9455-.0539 2.9027.5117 2.4687 1.6696 7.2703 4.1201 17.1449l-1.2118-.4611c-.9155-4.015-1.6695-7.4874-2.3697-10.7156-1.131-4.9916-2.3966-7.9485-.4847-8.8709z" fill="#732d1a"/><path d="m68.6999 64.8452c.2155 2.7942.7271 7.1347 1.6158 16.8194l.727-.1628-1.1848-19.4237c-.8348.2442-1.2926.8953-1.158 2.7671z" fill="#732d1a"/></g></g></g></g><g mask="url(#q)"><rect fill="#225b73" height="61.776" rx="7.488" width="109.512" x="253.464" y="29.936"/><path clip-rule="evenodd" d="m362.742 86.0899c.153-.5965.234-1.2217.234-1.8659v-46.8c0-4.1355-3.352-7.488-7.488-7.488h-94.536c-4.135 0-7.488 3.3525-7.488 7.488v5.8825c31.169 18.1654 68.005 32.6802 109.278 42.7834z" fill="#236682" fill-rule="evenodd"/><path d="m281.968 44.0099-2.391-1.0931c-.068 0-.068-.0683 0-.0683l2.391-1.0931c.069 0 .069 0 .069-.0683l1.093-2.3912h.068l1.093 2.3912 2.46 1.0931c.068 0 .068.0683 0 .0683l-2.46 1.0931-1.093 2.5278c0 .0683-.068.0683-.068 0l-1.093-2.4595z" fill="#ff9ccd"/></g><rect height="61.776" rx="6.552" stroke="#fff" stroke-width="1.872" width="110.448" x="252.528" y="29.936"/><g clip-path="url(#n)"><path d="m326.394 5.44487 8.968-4.524948 6.17 7.980358-9.296 5.92352z" fill="#133dbd"/><path d="m324.748 24.2031-17.935 33.6491c-.364.7596-.496 1.6099-.379 2.4441.117.8343.478 1.6154 1.037 2.2454l.247.2468c2.979 3.0858 6.695 5.3622 10.797 6.6144 4.102 1.2523 8.456 1.4392 12.65.5433.603-.1308 1.143-.4627 1.532-.9412.388-.4785.603-1.075.607-1.6915l.905-40.56c0-15.3848-.74-18.84021-9.461-2.5504z" fill="#33beb5"/><path d="m307.718 62.7884c-.652-.6936-1.074-1.5722-1.206-2.5151-.133-.9429.03-1.9037.466-2.7503l17.77-33.32c4.279-7.8981 6.582-11.189 7.898-10.6131-3.373 23.5297-10.366 54.2171-10.366 54.2171l-4.772 1.234c-3.72-1.2639-7.079-3.4091-9.79-6.2526z" fill="#33a2be"/><path d="m312.079 48.0618c1.069-2.0568 1.563-2.715 2.056-1.7278 7.405-11.7648 10.943-9.3789 10.943 2.0568 0 0 5.1-2.7149 4.607 7.4045.726-.2107 1.502-.1712 2.204.1123.701.2835 1.287.7945 1.663 1.4509l-.247 9.9548c-.006.5267-.164 1.0405-.456 1.4787s-.706.782-1.19.9895c-4.399.6898-8.899.3585-13.15-.9682s-8.14-3.6133-11.367-6.6831c-.434-.6175-.695-1.3408-.752-2.0938-.058-.753.088-1.5076.423-2.1843z" fill="#f7e5bc"/><path d="m306.814 57.8521 5.265-9.7903c1.07-2.0568 1.563-2.715 2.057-1.7278 7.404-11.7648 10.942-9.3789 10.942 2.0568.439-.2042.915-.3162 1.399-.329-1.399.329-1.399 1.7277-2.304 4.7717-.905 3.0441-1.399 5.8413-1.399 5.8413l-13.081 5.5945c-.887-.6682-1.738-1.3822-2.55-2.1391-.435-.6175-.695-1.3408-.753-2.0938s.088-1.5076.424-2.1843z" fill="#f7d197"/><path d="m307.389 58.2634c6.335-6.8285 12.012-9.2144 24.764 9.4613.124.1986.199.4238.219.657.019.2333-.016.4679-.104.6846-.089.2168-.227.4095-.404.5624-.178.1529-.389.2617-.616.3173-4.206.9268-8.581.7552-12.702-.4984s-7.85-3.5469-10.828-6.6592l-.246-.2468-.494-.7405c-.338-.5503-.482-1.1984-.407-1.8401.075-.6416.363-1.2395.818-1.6976z" fill="#242236"/><path d="m308.541 64.0223 1.646-8.4739c4.607-3.7845 9.461-3.8668 17.77 6.4994l-3.455 7.9804c-5.764-.5296-11.278-2.6045-15.961-6.0059z" fill="#90423b"/><path d="m308.131 63.7742 6.006-.5759.823 2.3036 1.48-3.2086c1.481-3.2909 1.564-3.2086 2.798-.4114 1.234 2.7973 6.746 1.8923 6.746 1.8923l1.234-2.6327c-7.24-8.7208-11.847-9.2144-16.043-6.3349z" fill="#7a2f28"/><path d="m291.509 121.367h64.748c.912-2.109 1.575-4.318 1.974-6.581.658-4.937 1.234-5.842-2.386-12.259-.246-4.8539-1.81-7.898-5.594-12.6698-2.114-3.2777-4.479-6.3859-7.075-9.2967l-46.237 1.6455c-1.902 1.3005-3.691 2.7591-5.348 4.3604l-3.784.1645c-.247 9.1322 2.715 25.1751 3.702 34.6361z" fill="#244ab0"/><path d="m257.45 82.2046 3.62-5.6768c1.154-1.8343 2.776-3.3275 4.7-4.3254 1.923-.9979 4.078-1.4644 6.242-1.3513h.165c.609.0319 1.191.2563 1.665.6407.473.3844.812.909.968 1.4983l2.961 11.1067.988 1.0695c.206.2159.358.4775.444.7635s.103.5882.049.882l-.247 2.2213.494-.7404c.182-.3426.439-.6392.753-.8674.314-.2281.675-.3816 1.057-.449 1.481-.4113 4.36-1.1518 7.322-2.2213.658-1.0696 2.057-2.715 7.322-2.7973v3.2909l-6.17 6.0881.165 17.7703-12.423 4.525c-1.386.476-2.881.534-4.299.169-1.419-.366-2.699-1.139-3.682-2.225-6.512-7.743-10.831-17.0899-12.505-27.0678-.158-.7923-.011-1.6149.411-2.3036z" fill="#1e397d"/><path d="m337.419 98.4131 1.152 5.1009 13.657 1.399c.416.039.803.227 1.09.53.287.302.455.698.474 1.115v1.316c-.006.187-.054.371-.141.536-.087.166-.21.31-.361.42-.151.111-.324.187-.508.221-.184.033-.373.025-.554-.025l-13.657-4.442-12.094 1.892c-.275.059-.52.217-.687.445-.167.227-.244.508-.218.789l1.81 13.657h-35.87c-4.278-26.0802-5.924-31.3456 2.139-37.9273l31.675 7.569 13.245-7.9804-1.316 8.1449c-.398 2.4024-.342 4.8581.164 7.2399z" fill="#1e397d"/><path d="m331.824 70.1914c2.798.8227 3.044 0 4.937 5.3477l-3.949.3291z" fill="#3ee8dd"/><path d="m335.609 75.2922-1.151-2.8795c-.232-.5522-.592-1.0414-1.049-1.4276-.458-.3861-1.001-.6582-1.584-.7938l-4.196-.9049-16.783-.2468-9.133 4.6072c-.367.1799-.687.4458-.93.7752-.244.3293-.404.7125-.468 1.117l-.329 2.1391-4.443 2.9618c-.248.1695-.443.4072-.559.6845-.117.2773-.151.5824-.099.8786 1.152 10.0372 11.518 25.504 25.998 18.593 10.777-5.1827 20.732-12.5871 25.504-16.3716l1.892 2.4681c.494-2.3859 0-3.3731-1.481-4.6072l-1.481-1.0695c-.13-.4284-.213-.8699-.246-1.3164-.329-1.8922.082-2.3859-2.222-2.8795z" fill="#33beb5"/><path d="m332.234 72.9066-5.265 3.5376c-1.81 1.1518-2.797 3.2909-.247 2.3036 2.101-.8005 4.137-1.7632 6.088-2.8795 1.481-.9872.905-1.3163.741-2.139-.165-.8227-.412-1.3987-1.317-.8227z" fill="#37cfc5"/><path d="m295.542 80.6399 4.442-2.9618.33-2.1391c.064-.4045.224-.7877.468-1.117.243-.3294.562-.5953.93-.7752l9.132-4.6072h2.633l10.531 22.7892c-.987 4.9363-2.468 5.5945-3.702 6.7463s-1.234 1.2341-.823 2.7149c-13.74 5.348-23.53-9.4612-24.599-19.1693-.036-.2834.006-.5713.122-.8323.116-.2611.301-.4854.536-.6485z" fill="#33a2be"/><path d="m301.384 76.1987c-.494 1.2341-.823 1.3163 0 3.5377 1.311 2.9638 2.938 5.7774 4.854 8.3917 1.152 1.4809 1.81 1.4809 0-3.0441-1.81-4.5249-2.222-5.5944-2.715-7.6512-.494-2.0568-1.317-3.62-2.139-1.2341z" fill="#2b98b3"/><path d="m333.799 78.0086c-2.784 3.9154-6.204 7.336-10.12 10.1194-3.126 2.1391-2.057.9873-.658-1.4809 1.399-2.4681 3.949-3.7022 6.829-6.4171 2.879-2.715 6.334-5.5123 3.949-2.2214z" fill="#319bb5"/><path d="m344.576 80.9693c.04.1751.021.3583-.054.5217-.074.1634-.199.298-.357.3833-7.569 4.1959-18.347 9.4613-22.214 10.7776s-1.563 0 3.291-3.2086 13.164-8.3917 15.796-9.9549c2.633-1.5631 2.633-1.8922 3.538 1.4809z" fill="#33a2be"/><path d="m327.546 70.356c3.867.6581 6.006.6581 0 4.1958s0-4.1958 0-4.1958z" fill="#1e6470"/><path d="m316.849 58.0984-.823 3.4554-1.892.2468 1.234-2.6327.082-1.81z" fill="#90423b"/><path d="m322.772 61.3066-2.221.3291c.822 1.2341 1.81 1.0696 2.221-.3291z" fill="#5e221d"/><path d="m314.545 60.4841-2.221-.6582c.247 1.4809 1.234 1.81 2.221.6582z" fill="#5e221d"/><path d="m321.295 61.7199c-.364 0-.658-.5157-.658-1.1518 0-.6362.294-1.1518.658-1.1518.363 0 .658.5156.658 1.1518 0 .6361-.295 1.1518-.658 1.1518z" fill="#201e2f"/><path d="m313.313 60.2392c-.363 0-.658-.5157-.658-1.1519 0-.6361.295-1.1518.658-1.1518.364 0 .658.5157.658 1.1518 0 .6362-.294 1.1519-.658 1.1519z" fill="#201e2f"/><path d="m311.175 54.8096c-.643.4434-1.248.9387-1.81 1.4809-.658 1.8099-.905 4.3604-1.646 6.4994-.74 2.1391-1.481 5.3477-1.152 7.2399.33 1.8923.083 1.9746-1.069 4.3604-1.152 2.3859-3.291 4.7718-2.551 7.6513-1.234 1.81-.904 3.0441-.493 4.7718s1.728 6.4172 4.936 6.2526c1.029 1.5054 2.499 2.6542 4.209 3.2879 1.709.6337 3.573.721 5.335.2498 5.101-1.3163 10.201-4.7718 9.543-9.379 1.728-1.3163 1.317-4.7717 1.152-6.664-.17-1.7012.055-3.4187.658-5.0186.658-1.6454.658-3.2908.165-6.7462.529-1.4456.942-2.9312 1.234-4.4427-.763-1.1406-1.587-2.2392-2.468-3.2909l-1.234 2.715c-.558 1.0669-1.053 2.1658-1.481 3.2909-.413-.1828-.871-.24-1.317-.1646-.288-.6535-.744-1.2188-1.322-1.6381-.579-.4192-1.258-.6772-1.969-.7478l-4.936.9873-.823-2.3036c-2.303-.2468-3.537-.3291-4.278.2468-.434-1.3297-.49-2.7535-.164-4.1136.411-1.4809 1.481-4.5249 1.481-4.5249z" fill="#fff"/><path d="m314.547 67.4794 1.892-.4113c.988-.2469.823-.3291 3.456-2.5505l-4.936.9873-.823-2.3036c-2.304-.2468-3.538-.3291-4.278.2468-.477-1.3216-.534-2.7581-.165-4.1136.412-1.4809 1.481-4.5249 1.481-4.5249-.643.4434-1.248.9387-1.81 1.4809-.658 1.8099-.905 4.3604-1.645 6.4994-.741 2.1391-1.481 5.3477-1.152 7.2399.329 1.8923.082 1.9746-1.07 4.3604-1.151 2.3859-3.291 4.7718-2.55 7.6513-1.234 1.81-.905 3.0441-.494 4.7718.412 1.7277 1.728 6.4172 4.937 6.2526 1.028 1.5054 2.499 2.6542 4.208 3.2879 1.71.6337 3.574.721 5.335.2498 5.101-1.3163 10.202-4.7718 9.544-9.379-1.564 4.3604-4.854 3.5377-4.854 3.5377-2.027-.4342-4.098-.6275-6.171-.5759-1.152-2.0568-2.55-4.1136-3.784-4.9363-2.386-4.6895-.576-9.7081.658-12.5876s2.221-5.1831 2.221-5.1831z" fill="#d6dfff"/><path d="m314.547 67.4778c-1.234.2469-1.152-.8227-1.07-1.9745.087-.7997.31-1.5787.659-2.3036l.822 2.3036 4.937-.9872c-2.633 2.2213-2.469 2.3036-3.456 2.5504z" fill="#cad5fc"/><path d="m324.008 59.9106-4.69-1.3986c.812-.4161 1.752-.5029 2.626-.2424.874.2606 1.613.8485 2.064 1.641z" fill="#cfdeff"/><path d="m316.03 58.0991-4.69-.9049c.364-.2602.776-.4436 1.213-.5391.436-.0955.888-.1011 1.327-.0164.438.0847.855.2579 1.225.5089.37.2511.684.5749.925.9515z" fill="#cfdeff"/><path d="m318.496 62.7895-1.563.9872 2.057-.4113c.246 0 .246-.0823.164-.4114s-.329-.3291-.658-.1645z" fill="#5e221d"/><path d="m312.573 69.122c-.003.3224.113.6345.325.8772.213.2426.507.3989.826.4392 5.019.7404 7.158-.5759 7.981-1.1518.099-.0934.174-.2099.217-.3391.043-.1293.053-.2672.03-.4014v-.1645c-2.633.905-6.582.4936-7.569.3291-.988-.1646-.576-.4114-.494-.8228-.335-.0006-.658.1267-.903.3561-.244.2293-.392.5434-.413.878z" fill="#de5d70"/><path d="m314.547 70.5204c.571-.5835 1.175-1.1329 1.81-1.6454 1.879.2 3.78.0323 5.595-.4937v.1646c.023.1342.013.2721-.03.4013-.043.1293-.118.2458-.217.3391h-.082c-.741.5759-2.715 1.7277-7.076 1.2341z" fill="#b83d50"/><path d="m318.708 47.4146c-.861-.4123-.97-1.9756-.243-3.4918.726-1.5161 2.013-2.4109 2.873-1.9987.861.4123.969 1.9756.243 3.4918-.726 1.5161-2.013 2.411-2.873 1.9987z" fill="#ff9ccd"/><path d="m318.413 43.9491c.741-1.5632 2.057-2.4682 2.88-2.0568.098.0505.185.1202.256.205s.123.183.155.2886c-1.398-.0822-.658 1.5632-3.291 1.5632z" fill="#ffebf5"/><path d="m321.953 43.4531c-.019.66-.188 1.307-.494 1.8923l-.247.4936c-.329 0-.822-.1645-1.151.2468-.329.4114-.494 1.0696-1.481 1.2341-.213-.1781-.378-.4074-.479-.6663-.101-.259-.134-.5392-.097-.8146h.164c1.728 0 2.798-1.81 3.785-2.3859z" fill="#ff70b7"/><path d="m327.135 52.7511c-.455 0-.823-.4788-.823-1.0695s.368-1.0695.823-1.0695c.454 0 .822.4788.822 1.0695s-.368 1.0695-.822 1.0695z" fill="#f7d197"/><path d="m331.576 59.9101c-.454 0-.823-.4789-.823-1.0696s.369-1.0695.823-1.0695c.455 0 .823.4788.823 1.0695s-.368 1.0696-.823 1.0696z" fill="#f7d197"/><path d="m335.362.919922 1.81 5.594478 4.36 2.38588z" fill="#179de0"/><path d="m329.686 64.3526c-.244 1.2823-.574 2.5467-.987 3.7845-.083-1.0695-.494-2.2213-1.152-2.3858-.658-.1646-.741-1.9746-1.563-1.9746l1.234-2.7149c.881 1.0517 1.705 2.1502 2.468 3.2908z" fill="#a8c3ff"/><path d="m326.97 86.7295c-.12.2036-.29.3734-.493.4936z" fill="#d6dfff"/><path d="m321.211 73.2371c-2.057 1.1518-2.962 1.8922-2.962 3.8667 1.29-1.0262 2.307-2.3542 2.962-3.8667z" fill="#d6dfff"/><path d="m311.996 73.5659c-2.057 2.0568-2.879 3.5377-2.962 4.6895.837-.3057 1.616-.7508 2.304-1.3163z" fill="#fff"/><path d="m327.546 70.356c-.131 1.2883-.493 2.5424-1.069 3.7022 1.48-1.0695 1.48-1.9745 1.069-3.7022z" fill="#d6dfff"/><path d="m322.611 80.1472c-1.234 1.8923-4.196 1.8923-4.196 1.8923 2.715 1.3986 3.867 1.4809 4.196-1.8923z" fill="#d6dfff"/><path d="m309.28 64.5972c-.677 1.0498-.995 2.2915-.905 3.5376 0 0-2.303-1.9745.905-3.5376z" fill="#c7d3fc"/><path d="m305.498 81.5476c-.494 1.7277 0 3.2909 1.069 3.7022-.061-1.3008-.427-2.569-1.069-3.7022z" fill="#c7d3fc"/><path d="m319.979 57.0292c-1.813-.5354-3.653-.9748-5.513-1.3163 2.88-.2468 4.608.2468 5.513 1.3163z" fill="#5e221d"/><path d="m325.244 60.8142c-.494-.1646-1.07-.4937-1.564 0z" fill="#5e221d"/><path d="m324.995 61.8847c-.329-.4113-.741-.9049-1.399-.6581z" fill="#5e221d"/><path d="m310.679 57.771c.493.1645 1.152.2468 1.234.9873z" fill="#5e221d"/><path d="m310.185 58.7581c.494-.0823 1.152-.2469 1.563.4113z" fill="#5e221d"/><path d="m318.086 60.6503c-.122.7843-.498 1.5069-1.07 2.0568-.329.2468-.082-.3291.411-1.3164.494-.9872.823-1.3986.659-.7404z" fill="#a25751"/><path d="m321.048 67.8058c.192-.0131.384.0358.547.1394s.288.2565.358.4365c-2.633.905-6.582.4936-7.569.3291-.987-.1646-.576-.4114-.494-.8227h.083c2.353.2578 4.728.2301 7.075-.0823z" fill="#d6dfff"/><path d="m309.364 56.2905c.562-.5422 1.168-1.0375 1.81-1.4809 0 0-.658 1.8922-1.151 3.4554l-1.399.8227c.177-.9495.425-1.8844.74-2.7972z" fill="#a8c3ff"/><path d="m272.014 70.8505h.165c.608.032 1.191.2564 1.664.6408s.812.909.968 1.4983l2.962 11.1067.987 1.0695c.207.2159.359.4775.445.7635.085.286.102.5882.049.882l-.247 2.2213c-.905 4.7718-.823.4113-3.702-.3291-2.88-.7404-.741-2.3859-1.152-3.4554-1.852-2.8372-3.086-6.033-3.62-9.379l-2.468-4.5249c1.275-.4064 2.614-.5738 3.949-.4937z" fill="#244ab0"/><path d="m272.257 71.6741c.24.0077.475.0738.684.1926s.386.2867.516.4892c.129.2025.208.4335.228.6731.02.2395-.018.4804-.111.7019-1.81 3.1263-7.24 6.664-11.354 7.9803-4.114 1.3164-4.196.2468-1.563-2.7149 2.633-2.9618 5.183-7.8158 11.6-7.3222z" fill="#242236"/><path d="m262.22 81.7101c3.872-1.3684 7.386-3.5896 10.284-6.4994l1.07-1.4809c.093-.2215.131-.4624.111-.7019-.02-.2396-.099-.4706-.228-.6731-.13-.2025-.307-.3704-.516-.4892s-.444-.1849-.684-.1926h-.082c-5.512-.4114-7.816 2.6327-10.366 5.759-.36.5597-.773 1.0833-1.234 1.5632-2.551 2.9617-3.374 4.2781 1.645 2.7149z" fill="#242236"/><path d="m262.22 81.7106h.247c2.915-1.0068 5.62-2.5405 7.98-4.5249l1.646-1.4809.411-.4936c.402-.43.76-.8985 1.07-1.3986.093-.2215.131-.4624.111-.7019-.02-.2396-.099-.4706-.228-.6731-.13-.2025-.307-.3704-.516-.4892s-.444-.1849-.684-.1926h-.74c-.745-.0751-1.496-.0194-2.222.1645-3.537.5759-5.43 3.0441-7.486 5.5945l-.247.4113-.905 1.0696c-2.633 2.9618-3.456 4.2781 1.563 2.7149z" fill="#242236"/><path d="m289.289 108.038c-.18-5.572-.016-11.1499.494-16.7014.329-2.7972-.823-1.3986-1.974 1.0695-1.152 2.4682-.494 6.4995 0 10.7779.493 4.278 1.563 6.746 1.48 4.854z" fill="#152d69"/><path d="m279.416 91.5834c.477 4.9768.559 9.9836.247 14.9736-.329 3.949 1.234 1.563 2.304-.576 1.069-2.139.247-2.797-.411-6.7464-.659-3.949-.741-5.0185-1.07-7.0753s-1.234-3.2086-1.07-.5759z" fill="#152d69"/><path d="m275.797 92.3238c.082 4.9363-1.07 8.7212-3.291 8.6382-1.771-.121-3.476-.718-4.936-1.7274-.988-.6582-.412-.8227 1.398-1.6454 1.704-.8756 3.15-2.18 4.196-3.7845.823-1.4809 2.551-4.8541 2.633-1.4809z" fill="#173275"/><g fill="#7a2f28"><path d="m260.576 73.4819.988 4.3604.822 3.62c0 .0822 9.626-6.2527 9.626-6.4172-.094-.2365-.149-.4865-.164-.7405-.101-.3479-.156-.7074-.165-1.0695-.082-.2468-.082-.5759-.164-.8227v-.7405c-.109-.8731-.136-1.7544-.083-2.6327v-.8227c.165-3.7845.329-9.379.329-9.379-9.049-.4113-12.011 2.5505-12.011 2.5505-.494 8.0626.247 9.9548.822 12.0939z"/><path d="m271.274 71.5106c-.027-1.0448.181-2.0823.608-3.0362.427-.954 1.063-1.8 1.86-2.476 1.316-.905 1.481-1.4809 2.221-2.7149.741-1.2341 1.07-1.6455 1.481-2.1391.132-.2103.18-.4625.134-.7064-.045-.244-.181-.4617-.38-.6099-.412-.4114-1.235-.5759-2.304.0822-1.07.6582-3.126 2.3859-4.607 3.3732-1.481.9872-2.962 6.664.987 8.2271z"/><path d="m271.438 64.5967c.165-3.2086.741-9.2967.823-10.613.146-1.3663.174-2.7426.082-4.1136-.082-.6582-.082-1.1518-.987-1.1518s-1.481 1.0695-1.728 3.1263-.329 3.2086-.329 3.2086c-.53 1.6412-.943 3.3184-1.234 5.0186-.082 1.7277 3.373 4.5249 3.373 4.5249z"/><path d="m268.308 59.4144c-.082-2.7149-.74-9.2967-.905-10.7775-.164-1.4809-.411-1.81-1.234-1.7278-.822.0823-1.645.2469-1.316 4.8541.247 2.3859.247 3.8667.247 3.8667s0 4.0314.082 5.1832 3.126-1.3987 3.126-1.3987z"/><path d="m265.347 59.7439c-.329-2.8795-.987-7.3222-1.152-8.6385-.164-1.3164-.494-2.0568-1.398-1.81-.905.2468-1.399.905-1.152 3.2909s.411 4.0313.493 4.6895c.083.6581.247 4.2781.247 4.2781z"/><path d="m262.715 61.3074c-.576-2.5504-1.398-6.3349-1.645-7.569s-.576-1.7277-1.481-1.4809-1.234.905-.823 3.0441c.303 1.3288.523 2.6752.658 4.0313l.576 3.7845z"/></g><path d="m271.683 62.2126c-1.974 1.2341-4.196 1.7277-5.018 3.0441-.737.9316-1.295 1.9916-1.646 3.1263-.164.905-.411.5759-1.234-.5759s-1.563-2.0568-1.892-3.1263c-.329-1.0696.082-1.81 3.455-2.3036l6.335-.905z" fill="#5e221d"/><path d="m269.215 71.1803c0 .2219.027.4431.082.6581.165.9873.576 2.8795.905 4.4427.083.2468 1.81-1.0695 1.81-1.2341-.094-.2364-.149-.4864-.164-.7404-.101-.3479-.156-.7074-.165-1.0696-.082-.2468-.082-.5759-.164-.8227v-.7404c-.069-.5457-.096-1.0957-.083-1.6455.183-.9641.546-1.8851 1.07-2.7149l-1.07.905c-2.056 1.8099-2.221 2.0568-2.221 2.9618z" fill="#91423b"/><path d="m272.668 73.2371.576.9872-.74.9873c-2.898 2.9098-6.412 5.1311-10.284 6.4994h-.494c8.228-4.3604 10.942-8.4739 10.942-8.4739z" fill="#242236"/><path d="m270.941 56.1254c-.595.045-1.191-.0685-1.728-.3291 0 0 1.317-1.5632 1.728.3291z" fill="#5e221d"/><path d="m271.189 52.9979c-.499.0687-1.008.0122-1.48-.1645 0 0 1.234-.905 1.48.1645z" fill="#5e221d"/><path d="m266.992 55.3841c-.552.2009-1.147.2576-1.728.1645 0 0 1.152-1.3986 1.728-.1645z" fill="#5e221d"/><path d="m269.709 59.2517c-2.853.0022-5.697.3335-8.474.9873-1.563.4936-1.481.9872.905.4936 2.174-.4675 4.371-.8245 6.582-1.0695 1.316-.1646 2.468-.4114.987-.4114z" fill="#5e221d"/><path d="m266.418 51.5993c-.493-.6581-1.152-.0822-1.234.4114s1.07.6582 1.234-.4114z" fill="#5e221d"/></g><path d="m296.109 101.166-2.151-.966c-.026 0-.026-.078 0-.078l2.151-.9661h.026l.959-2.1664c0-.0261.077-.0261.077 0l.959 2.1664h.026l2.151.9661c.026 0 .026.078 0 .078l-2.151.966h-.026l-.959 2.166h-.077l-.959-2.166z" fill="#ff99b9"/><path d="m19.9102 37.462-2.4475-1.0878c-.0453 0-.0453-.0453 0-.0906l2.4475-1.0878h.0453l1.0878-2.4475c0-.0453.0906-.0453.0906 0l1.0878 2.4475h.0453l2.4021 1.0878c.0454.0453.0454.0906 0 .0906l-2.4021 1.0878c-.012 0-.0236.0048-.0321.0133s-.0132.02-.0132.032l-1.0878 2.4475h-.0906l-1.0878-2.4475c0-.012-.0048-.0235-.0133-.032s-.02-.0133-.032-.0133z" fill="#f7d197"/><path d="m121.155 100.758-1.562-.697c-.029 0-.029-.029 0-.058l1.562-.6977h.029l.694-1.5694c0-.0291.058-.0291.058 0l.695 1.5694h.029l1.533.6977c.029.029.029.058 0 .058l-1.533.697c-.008 0-.015.004-.021.009-.005.005-.008.013-.008.021l-.695 1.569h-.058l-.694-1.569c0-.008-.003-.016-.008-.021-.006-.005-.013-.009-.021-.009z" fill="#fafafa"/></svg>