<svg width="84" height="84" viewBox="0 0 84 84" fill="none" xmlns="http://www.w3.org/2000/svg">
<g clipPath="url(#clip0_449_168864)">
<path d="M66 42C66 46.7468 64.5924 51.3869 61.9553 55.3337C59.3181 59.2805 55.5698 62.3566 51.1844 64.1731C46.799 65.9896 41.9734 66.4649 37.3178 65.5388C32.6623 64.6128 28.3859 62.327 25.0294 58.9706C21.673 55.6141 19.3872 51.3377 18.4612 46.6822C17.5351 42.0266 18.0104 37.201 19.8269 32.8156C21.6434 28.4302 24.7195 24.6819 28.6663 22.0447C32.6131 19.4076 37.2533 18 42 18C48.3652 18 54.4697 20.5286 58.9706 25.0294C63.4714 29.5303 66 35.6348 66 42Z" fill="#FFD836"/>
<path d="M47.9296 57.3499C46.0519 56.5548 44.0336 56.145 41.9946 56.145C39.9555 56.145 37.9372 56.5548 36.0596 57.3499C36.1278 56.2049 36.5256 55.104 37.205 54.1798C37.8843 53.2556 38.8164 52.5475 39.8888 52.1407C40.9613 51.7339 42.1285 51.6457 43.2499 51.8869C44.3713 52.128 45.3991 52.6882 46.2096 53.4999C47.2432 54.5237 47.8567 55.8969 47.9296 57.3499Z" fill="#36393F"/>
<path d="M55.0405 44.9399H48.3805C47.7453 44.9399 47.2305 45.4526 47.2305 46.0849C47.2305 46.7173 47.7453 47.2299 48.3805 47.2299H55.0405C55.6756 47.2299 56.1905 46.7173 56.1905 46.0849C56.1905 45.4526 55.6756 44.9399 55.0405 44.9399Z" fill="#A63A0C"/>
<path d="M35.6196 44.9399H28.9596C28.3244 44.9399 27.8096 45.4526 27.8096 46.0849C27.8096 46.7173 28.3244 47.2299 28.9596 47.2299H35.6196C36.2547 47.2299 36.7696 46.7173 36.7696 46.0849C36.7696 45.4526 36.2547 44.9399 35.6196 44.9399Z" fill="#A63A0C"/>
<path d="M27.0001 27.3901L24.4801 32.3901C24.2608 32.8206 24.1558 33.3002 24.1751 33.7829C24.1944 34.2656 24.3374 34.7352 24.5904 35.1468C24.8433 35.5584 25.1978 35.898 25.6197 36.1333C26.0417 36.3685 26.517 36.4914 27.0001 36.4901C27.4792 36.4899 27.9504 36.367 28.3687 36.1334C28.787 35.8997 29.1386 35.563 29.3902 35.1551C29.6417 34.7473 29.7847 34.2819 29.8057 33.8032C29.8267 33.3245 29.7249 32.8484 29.5101 32.4201L27.0001 27.3901Z" fill="white"/>
</g>
<defs>
<clipPath id="clip0_449_168864">
<rect width="48" height="48" fill="white" transform="translate(18 18)"/>
</clipPath>
</defs>
</svg>
