<svg xmlns="http://www.w3.org/2000/svg" width="24" height="24" viewBox="0 0 24 24">
  <g fill="none" fill-rule="evenodd">
    <g transform="translate(12 12)">
      <path fill="#FAA61A" fill-rule="nonzero" d="M8.08958333,2.91041667 C7.425,2.24583333 6.51291667,1.83333333 5.5,1.83333333 C3.47416667,1.83333333 1.83791667,3.47416667 1.83791667,5.5 C1.83791667,7.52583333 3.47416667,9.16666667 5.5,9.16666667 C7.20958333,9.16666667 8.635,7.99791667 9.04291667,6.41666667 L8.08958333,6.41666667 C7.71375,7.48458333 6.69625,8.25 5.5,8.25 C3.98291667,8.25 2.75,7.01708333 2.75,5.5 C2.75,3.98291667 3.98291667,2.75 5.5,2.75 C6.26083333,2.75 6.93916667,3.06625 7.43416667,3.56583333 L5.95833333,5.04166667 L9.16666667,5.04166667 L9.16666667,1.83333333 L8.08958333,2.91041667 Z"/>
      <polygon points="0 0 11 0 11 11 0 11" transform="matrix(-1 0 0 1 11 0)"/>
    </g>
    <rect width="24" height="24"/>
  </g>
</svg>
