<svg width="279" height="235" viewBox="0 0 279 235" fill="none" xmlns="http://www.w3.org/2000/svg">
<g clip-path="url(#clip0)">
<path d="M233.3 162.671H228.1C218.9 162.571 211.5 155.172 211.5 145.974C211.4 136.875 204 129.476 194.9 129.476H159.5C153.2 129.476 148.1 134.575 148.1 140.874C148.1 147.173 143 152.273 136.7 152.273H108.9C93 152.273 80.2 165.071 80.2 180.968V183.068C80.2 194.166 71.2 203.165 60.1 203.165H52.1C38.3 203.165 25.3 209.964 17.4 221.262L8 234.96H270.8C275.2 234.96 278.8 231.36 278.8 226.961V208.064C278.7 182.968 258.4 162.671 233.3 162.671Z" fill="#547DF0" fill-opacity="0.52"/>
<path d="M116.4 203.465H86.5L95.7 212.663H125.7L116.4 203.465Z" fill="#F47FFF"/>
<path d="M125.6 212.663H95.7V234.96H125.6V212.663Z" fill="#B2C1D1"/>
<path d="M95.7 212.663H77.2V234.96H95.7V212.663Z" fill="white"/>
<path d="M255.1 205.064L247.3 234.96H263L255.1 205.064Z" fill="#51BC9D"/>
<path d="M89.9 23.6924C89.8 15.4936 83.2 8.99463 75.1 8.99463H59.7C51.6 8.99463 45 15.4936 44.9 23.5924C44.9 25.1921 43.5 26.4919 41.9 26.4919H37.3C30.4 26.4919 24.7 32.0911 24.7 38.99H110.1C110.1 33.4908 105.5 28.9915 100 28.9915H95.4C92.3 29.1915 89.9 26.6919 89.9 23.6924Z" fill="white" fill-opacity="0.2"/>
<path d="M33.5 165.17C33.5 160.471 30.1 156.572 25.9 156.572H18C13.8 156.572 10.4 160.371 10.4 165.17C10.5 166.07 9.8 166.87 8.9 166.87H6.5C2.9 166.87 0 170.17 0 174.169H43.9C43.9 170.97 41.6 168.27 38.7 168.27H36.3C34.7 168.27 33.4 166.87 33.5 165.17C33.5 165.27 33.5 165.27 33.5 165.17Z" fill="white" fill-opacity="0.2"/>
<path d="M54.7 188.967L42.6 234.96H66.7L54.7 188.967Z" fill="#83DDC5"/>
<path d="M67.9 209.064L61.1 234.96H74.7L67.9 209.064Z" fill="#7196FF"/>
<path d="M86.5 203.465L77.3 212.663H95.7L86.5 203.465Z" fill="#FFC0FF"/>
<path d="M86.5 221.562C87.9 221.562 89.1 222.762 89.1 224.162V234.96H83.9V224.162C83.9 222.762 85.1 221.562 86.5 221.562Z" fill="#7687B2"/>
<path d="M108.1 221.562H101.2V228.461H108.1V221.562Z" fill="#547DF0"/>
<path d="M120.2 221.562H113.3V228.461H120.2V221.562Z" fill="#547DF0"/>
<path d="M63.7 103.58H127.7C127.6 97.1812 122.4 91.982 115.9 91.982H109.1C108 91.982 107.1 91.0821 107.1 89.9823C107 82.1835 100.6 75.8845 92.8 75.8845H92.2C84.4 75.7845 78 82.0835 77.9 89.9823V94.1816C77.9 96.3813 76 98.181 73.8 98.181H69.1C66.2 98.181 63.7 100.581 63.7 103.58Z" fill="white" fill-opacity="0.2"/>
<path d="M278.7 0.996094V52.988H188.7C188.7 42.4897 197.1 33.991 207.6 33.891H236.5C239.3 33.891 241.5 31.5914 241.5 28.7918V21.4929C241.5 10.1947 250.6 0.996094 261.8 0.996094H277.8C278.2 0.996094 278.4 0.996094 278.7 0.996094Z" fill="white" fill-opacity="0.2"/>
<path fill-rule="evenodd" clip-rule="evenodd" d="M227.9 188.967H246.6C248.2 188.967 249.5 187.667 249.5 186.067V175.969C249.5 174.369 248.2 173.069 246.6 173.069H227.9C226.3 173.069 225 174.369 225 175.969V186.067C225 187.667 226.3 188.967 227.9 188.967Z" fill="#FF5C5C"/>
<path fill-rule="evenodd" clip-rule="evenodd" d="M147.2 229.76C175.8 242.958 209.7 230.36 222.9 201.665C236.1 173.069 223.5 139.174 194.8 125.976C166.2 112.779 132.3 125.377 119.1 154.072C106 182.668 118.6 216.562 147.2 229.76Z" fill="#4F5D7F"/>
<path fill-rule="evenodd" clip-rule="evenodd" d="M162.4 114.878C167 108.579 174.3 104.88 182.1 104.88H212.5V157.872H157.6V129.276C157.7 124.077 159.4 118.978 162.4 114.878Z" fill="#AEC7FF"/>
<path fill-rule="evenodd" clip-rule="evenodd" d="M209.3 104.88H221.1C227.5 104.88 232.6 109.979 232.6 116.378V141.274C232.6 147.673 227.4 152.772 221.1 152.772H209.3V104.88Z" fill="#7196FF"/>
<path fill-rule="evenodd" clip-rule="evenodd" d="M229.6 171.669H155.7V130.276H229.6V171.669Z" fill="black"/>
<path fill-rule="evenodd" clip-rule="evenodd" d="M201.6 194.766H236.2C241 194.766 244.8 190.867 244.8 186.167V168.87L201.6 178.969V194.766Z" fill="#B7C2CE"/>
<path fill-rule="evenodd" clip-rule="evenodd" d="M155.4 211.363C174.2 219.962 196.4 211.763 205 192.966C213.6 174.169 205.4 151.972 186.6 143.374C167.8 134.775 145.6 142.974 137 161.771C128.4 180.568 136.6 202.765 155.4 211.363Z" fill="#7687B2"/>
<path fill-rule="evenodd" clip-rule="evenodd" d="M126 216.363C134.8 216.363 156 192.866 167.7 177.569C167.6 163.571 165.8 128.776 157.7 120.777C157.1 119.977 156.1 119.478 155.1 119.478C154.7 119.478 154.4 119.578 154.1 119.678C137.3 124.377 123.4 136.275 116.1 152.172C106.9 172.169 109.9 195.766 124 215.363C124.4 216.063 125.2 216.463 126 216.363Z" fill="#FF7F14"/>
<path fill-rule="evenodd" clip-rule="evenodd" d="M144 153.972C144.4 153.972 144.7 153.772 144.8 153.372L160 115.578C160.5 114.278 161.8 113.478 163.2 113.478H185.6C186.1 113.478 186.5 113.078 186.5 112.579C186.5 112.079 186.1 111.679 185.6 111.679H163.2C161.1 111.679 159.1 112.979 158.3 114.978L143.1 152.772C142.9 153.272 143.1 153.772 143.6 153.972C143.7 153.972 143.8 153.972 144 153.972Z" fill="#E4E9F7"/>
<path fill-rule="evenodd" clip-rule="evenodd" d="M170.6 178.568C170.6 178.568 136.8 123.577 130 129.276C122.9 135.175 117.3 142.574 113.5 150.973C103.1 173.469 108.1 198.265 121.7 217.062C131.3 230.36 170.6 178.568 170.6 178.568Z" fill="#FF903E"/>
<path fill-rule="evenodd" clip-rule="evenodd" d="M117 209.364C118.8 210.064 121.3 210.263 124.7 208.964C138.2 203.964 159.6 177.569 165.5 169.97C170.4 173.869 173.6 177.169 173.6 178.468V179.468L173 180.268C171.9 181.668 146.2 215.463 130.7 221.162C124.2 223.561 120.8 220.662 119.4 218.662C115.2 213.063 115.2 208.664 117 209.364Z" fill="#DAE2ED"/>
<path fill-rule="evenodd" clip-rule="evenodd" d="M224.8 155.572H237.4V120.978C237.4 118.578 235.5 116.678 233.1 116.678H229.2C226.8 116.678 224.9 118.578 224.9 120.978V155.572H224.8Z" fill="black"/>
<path fill-rule="evenodd" clip-rule="evenodd" d="M213.6 184.667L234.5 172.769L227.7 160.871L206.9 172.769L213.6 184.667Z" fill="#C5CEDD"/>
<path fill-rule="evenodd" clip-rule="evenodd" d="M278.7 128.776V156.572L233.1 177.869C231.5 178.669 229.6 177.969 228.7 176.469L221.7 164.071C220.8 162.571 221.2 160.571 222.7 159.572L226.7 156.872L271.4 126.477C272.3 125.877 273.5 125.677 274.6 126.077C276 126.777 277.5 127.676 278.7 128.776Z" fill="#DAE2ED"/>
<path fill-rule="evenodd" clip-rule="evenodd" d="M194.5 199.565L218.3 185.967C219.1 185.468 219.4 184.468 218.9 183.668L210.4 168.77C209.9 167.97 208.9 167.67 208.1 168.17L184.3 181.768L194.5 199.565ZM256.9 140.375C255.3 141.274 254.7 143.374 255.6 145.074C256.5 146.674 258.6 147.273 260.3 146.374L256.9 140.375ZM241.3 154.672C242.2 156.372 244.3 156.872 246 155.972C247.7 155.072 248.2 152.973 247.3 151.273" fill="#D0D9EA"/>
<path fill-rule="evenodd" clip-rule="evenodd" d="M213.9 169.07L234.8 157.172L228 145.274L207.1 157.172L213.9 169.07Z" fill="#D0D9EA"/>
<path fill-rule="evenodd" clip-rule="evenodd" d="M278.7 112.979V141.074L233.3 162.271C231.7 163.071 229.8 162.371 228.9 160.871L226.7 156.872L221.9 148.473C221 146.873 221.5 144.974 222.9 143.974L271.5 110.879C272.4 110.279 273.6 110.079 274.7 110.479C276.2 111.079 277.5 111.879 278.7 112.979Z" fill="#EBEFF7"/>
<path fill-rule="evenodd" clip-rule="evenodd" d="M194.7 183.868L218.5 170.27C219.3 169.77 219.6 168.77 219.1 167.97L210.6 153.072C210.1 152.272 209.1 151.973 208.3 152.472L184.5 165.97L194.7 183.868Z" fill="#DAE2ED"/>
<path fill-rule="evenodd" clip-rule="evenodd" d="M232.4 145.374C233 146.374 234.3 146.773 235.3 146.174C236.3 145.574 236.7 144.274 236.1 143.274C235.5 142.274 234.2 141.874 233.2 142.474C232.2 142.974 231.8 144.274 232.4 145.374C232.4 145.274 232.4 145.274 232.4 145.374ZM242.6 138.375C243.2 139.375 244.5 139.775 245.5 139.175C246.5 138.575 246.9 137.275 246.3 136.275C245.7 135.275 244.4 134.875 243.4 135.475C242.4 135.975 242 137.275 242.6 138.375C242.6 138.375 242.6 138.275 242.6 138.375Z" fill="#B7C2CE"/>
<path fill-rule="evenodd" clip-rule="evenodd" d="M157.8 206.164C173.7 213.463 192.5 206.464 199.8 190.567C207.1 174.669 200.1 155.872 184.2 148.573C168.3 141.274 149.5 148.273 142.2 164.171C135 180.068 141.9 198.865 157.8 206.164Z" fill="#EBEFF7"/>
<path fill-rule="evenodd" clip-rule="evenodd" d="M159.9 201.565C173.3 207.664 189.1 201.865 195.2 188.467C201.3 175.069 195.5 159.272 182.1 153.173C168.7 147.074 152.9 152.873 146.8 166.271C140.7 179.569 146.6 195.466 159.9 201.565Z" fill="#DAE2ED"/>
<path fill-rule="evenodd" clip-rule="evenodd" d="M181.4 110.279H199.4C201.2 110.279 202.9 109.379 203.9 107.879C205.1 106.08 207.1 104.88 209.2 104.88H216.1V130.276H204.9C203.8 124.277 198.6 119.878 192.5 119.878H181.7C179.4 119.878 177.3 118.378 176.8 116.078C176.2 113.479 177.9 110.879 180.5 110.379C180.8 110.379 181.1 110.279 181.4 110.279Z" fill="#7196FF"/>
<path fill-rule="evenodd" clip-rule="evenodd" d="M226 104.98H178.7C170.2 104.98 163.4 98.0811 163.4 89.6824V61.1868C163.4 52.6881 170.3 45.8892 178.7 45.8892H226C234.5 45.8892 241.3 52.7881 241.3 61.1868V89.5824C241.3 98.0811 234.4 104.98 226 104.98Z" fill="#5B83F5"/>
<path fill-rule="evenodd" clip-rule="evenodd" d="M215.1 104.98H167.8C159.3 104.98 152.5 98.0811 152.4 89.6824V61.1868C152.4 52.6881 159.3 45.8892 167.8 45.8892H215.1C223.6 45.8892 230.4 52.7881 230.5 61.1868V89.5824C230.4 98.0811 223.6 104.98 215.1 104.98Z" fill="#7196FF"/>
<path fill-rule="evenodd" clip-rule="evenodd" d="M235.8 86.083H224.5V58.4873H235.8C241.4 58.4873 246 63.0866 246 68.6857V75.8846C246 81.4837 241.4 86.083 235.8 86.083Z" fill="#9CB8FF"/>
<path fill-rule="evenodd" clip-rule="evenodd" d="M224.5 79.984V64.6864C224.5 64.0865 224.9 63.6865 225.5 63.6865H235.8C238.6 63.6865 240.9 65.9862 240.9 68.7857V75.8846C240.9 78.6842 238.6 80.9838 235.8 80.9838H225.6C225 80.9838 224.5 80.5839 224.5 79.984Z" fill="#80A7FF"/>
<path fill-rule="evenodd" clip-rule="evenodd" d="M206.7 77.1845C203.9 77.1845 201.7 74.8848 201.8 72.1852C201.8 69.3857 204.1 67.186 206.8 67.286C209.5 67.286 211.7 69.5856 211.8 72.2852C211.7 74.8848 209.5 77.1845 206.7 77.1845Z" fill="black"/>
<path fill-rule="evenodd" clip-rule="evenodd" d="M152 61.1865H186.8C190.2 61.1865 192.9 63.8861 192.9 67.2856V74.4845C192.9 82.9831 186 89.7821 177.5 89.7821H161.1C152.6 89.7821 145.8 82.8832 145.8 74.4845V67.2856C145.9 63.9861 148.6 61.2865 152 61.1865Z" fill="#B5CCFF"/>
<path fill-rule="evenodd" clip-rule="evenodd" d="M170.4 89.8822H161.2C152.7 89.8822 145.9 82.9833 145.9 74.5846V67.3857C145.9 63.9862 148.6 61.2866 152 61.2866H179.6C183 61.2866 185.7 63.9862 185.7 67.3857V74.5846C185.7 82.9833 178.9 89.7822 170.4 89.8822Z" fill="#B5CCFF"/>
<path fill-rule="evenodd" clip-rule="evenodd" d="M166.3 78.2841H172.9C174.3 78.1841 175.5 79.2841 175.6 80.6841C175.7 82.0841 174.6 83.2841 173.2 83.3841C173.1 83.3841 173 83.3841 172.9 83.3841H166.3C164.9 83.4841 163.7 82.3841 163.6 80.9841C163.5 79.5841 164.6 78.3841 166 78.2841C166.1 78.2841 166.2 78.2841 166.3 78.2841ZM154.3 78.2841H156.8C158.2 78.1841 159.4 79.2841 159.5 80.6841C159.6 82.0841 158.5 83.2841 157.1 83.3841C157 83.3841 156.9 83.3841 156.8 83.3841H154.3C152.9 83.4841 151.7 82.3841 151.6 80.9841C151.5 79.5841 152.6 78.3841 154 78.2841C154.1 78.2841 154.2 78.2841 154.3 78.2841Z" fill="#7196FF"/>
<path fill-rule="evenodd" clip-rule="evenodd" d="M169.1 95.982H165C164.1 95.982 163.3 95.182 163.3 94.282C163.3 93.382 164.1 92.582 165 92.582H169.1C170 92.582 170.8 93.382 170.8 94.282C170.8 95.182 170 95.982 169.1 95.982Z" fill="#5B83F5"/>
<path fill-rule="evenodd" clip-rule="evenodd" d="M239.6 100.481C240.4 100.481 241 99.8809 241 99.081C241 98.2811 240.4 97.6812 239.6 97.6812C238.8 97.6812 238.2 98.2811 238.2 99.081C238.2 99.8809 238.8 100.481 239.6 100.481ZM239.6 108.08C240.4 108.08 241 107.48 241 106.68C241 105.88 240.4 105.28 239.6 105.28C238.8 105.28 238.2 105.88 238.2 106.68C238.2 107.38 238.8 108.08 239.6 108.08ZM239.6 73.585L245.4 77.6843V110.779L239.6 114.879L233.8 110.779V77.6843L239.6 73.585Z" fill="#FF7F14"/>
<path fill-rule="evenodd" clip-rule="evenodd" d="M199.1 29.1919C199.1 29.1919 217.6 70.0856 221.2 79.3841C226.4 92.5821 248.5 90.9823 248.5 72.1852L199.1 29.1919Z" fill="#D0D9EA"/>
<path fill-rule="evenodd" clip-rule="evenodd" d="M156.2 45.2891C156.2 45.2891 169 26.792 202.7 26.792C236.4 26.792 252.1 50.8883 252.1 69.6853C252.1 88.4824 230 90.1822 224.8 76.9842C221.2 67.7856 214.8 53.2879 214.8 53.2879L156.2 45.2891Z" fill="#EBEFF7"/>
<path fill-rule="evenodd" clip-rule="evenodd" d="M202.7 26.792C199.9 26.792 197.3 26.892 194.7 27.1919C175.7 31.7912 170.1 43.2894 170.1 43.2894L178.9 43.6894C187.1 31.7912 201.1 28.1918 209.7 27.1919C207.4 26.892 205 26.792 202.7 26.792Z" fill="#FF903E"/>
<path fill-rule="evenodd" clip-rule="evenodd" d="M214.8 53.2881H134.5C134.5 53.2881 146.9 42.4898 174.2 42.8897C201.5 43.2897 214.8 53.2881 214.8 53.2881Z" fill="black"/>
<path fill-rule="evenodd" clip-rule="evenodd" d="M230.1 68.6855C230.9 74.9845 235.8 79.4838 241.1 78.8839C246.4 78.284 250 72.5849 249.3 66.3858C248.6 60.1868 243.6 55.5875 238.3 56.1874C233 56.7873 229.3 62.3864 230.1 68.6855Z" fill="#7687B2"/>
<path fill-rule="evenodd" clip-rule="evenodd" d="M234.1 68.3856C234.6 72.7849 238.1 76.0844 241.9 75.5845C245.7 75.0846 248.3 71.1852 247.7 66.6859C247.1 62.1866 243.7 58.9871 239.9 59.487C236.1 59.9869 233.5 63.8863 234.1 68.3856Z" fill="white"/>
<path fill-rule="evenodd" clip-rule="evenodd" d="M236.2 68.0855C236.6 71.285 239.1 73.5846 241.8 73.2847C244.5 72.9847 246.3 70.0852 246 66.8856C245.7 63.6861 243.1 61.3865 240.4 61.6864C237.7 61.9864 235.8 64.886 236.2 68.0855Z" fill="#FF903E"/>
<path fill-rule="evenodd" clip-rule="evenodd" d="M218.7 36.1907C218 37.2907 218.3 38.7907 219.5 39.4907C220.7 40.1907 222.1 39.8907 222.8 38.6907C223.5 37.5907 223.2 36.0907 222 35.3907C221.9 35.3907 221.9 35.2907 221.8 35.2907C220.7 34.5907 219.3 34.9907 218.7 36.1907C218.7 36.0907 218.7 36.0907 218.7 36.1907Z" fill="white"/>
<path fill-rule="evenodd" clip-rule="evenodd" d="M159.6 161.571L151.2 176.169C150.7 177.069 150.7 178.169 151.2 179.068L159.6 193.666C160.1 194.566 161.1 195.066 162.1 195.066H178.9C179.9 195.066 180.9 194.466 181.4 193.666L189.8 179.068C190.3 178.169 190.3 177.069 189.8 176.169L181.4 161.571C180.9 160.671 179.9 160.171 178.9 160.171H162C161 160.171 160.1 160.671 159.6 161.571Z" fill="#C5CEDD"/>
<path fill-rule="evenodd" clip-rule="evenodd" d="M167.2 185.768C171.8 187.867 177.3 185.868 179.5 181.268C181.6 176.669 179.6 171.17 175 168.97C170.4 166.771 164.9 168.87 162.7 173.469C160.6 178.169 162.6 183.568 167.2 185.768Z" fill="#EBEFF7"/>
<path d="M197.7 221.962H199.3C203.5 221.962 207.4 220.262 210.4 217.362C213.3 214.463 217.3 212.763 221.5 212.763C227.3 212.763 232.1 217.462 232.1 223.362V223.761C232.1 229.861 227.2 234.76 221.1 234.76H184.9C184.9 227.661 190.6 221.962 197.7 221.962Z" fill="#EBEFF7"/>
<path d="M244 215.763C247.258 215.763 249.9 213.122 249.9 209.864C249.9 206.606 247.258 203.965 244 203.965C240.741 203.965 238.1 206.606 238.1 209.864C238.1 213.122 240.741 215.763 244 215.763Z" fill="#EBEFF7"/>
</g>
<defs>
<clipPath id="clip0">
<rect width="278.7" height="233.964" fill="white" transform="translate(0 0.996094)"/>
</clipPath>
</defs>
</svg>
