<svg height="55" viewBox="0 0 101 55" width="101" xmlns="http://www.w3.org/2000/svg"><g fill="none" fill-rule="evenodd"><g transform="translate(0 1)"><path d="m70.6037 26.0617c0 13.807-11.193 25-25 25-10.352 0-19.234-6.292-23.032-15.26-1.267-2.993-1.968-6.285-1.968-9.74 0-1.172.081-2.326.237-3.456 1.683-12.171 12.129-21.544 24.763-21.544 13.807 0 25 11.193 25 25" fill="#424549"/><path d="m62.698 7.819c4.866 4.562 7.906 11.047 7.906 18.243 0 13.807-11.193 25-25 25m-23.032-15.2606c-1.267-2.993-1.968-6.285-1.968-9.74 0-1.172.081-2.326.237-3.456 1.683-12.171 12.128-21.544 24.763-21.544" stroke="#1e2126" stroke-linecap="round" stroke-linejoin="round" stroke-width="2"/><path d="m38.001 26.492-5.654-5.659-15.659 15.645 15.659 15.646 5.654-5.659-5.991-5.987h17.971v-8h-17.971z" fill="#fff"/><path d="m58.861 0-5.654 5.659 5.991 5.987h-17.971v8h17.971l-5.991 5.986 5.654 5.659 15.658-15.645z" fill="#fff"/><g stroke-linecap="round" stroke-linejoin="round"><path d="m38.001 26.492-5.654-5.659-15.659 15.645 15.659 15.646 5.654-5.659-5.991-5.987h17.971v-8h-17.971z" stroke="#1e2126" stroke-width="2"/><path d="m58.861 0-5.654 5.659 5.991 5.987h-17.971v8h17.971l-5.991 5.986 5.654 5.659 15.658-15.645z" stroke="#1e2126" stroke-width="2"/><path d="m83.9885 37.0802-.833.834m-3.3335 3.3325-.833.833m4.9995.0005-.833-.833m-3.3335-3.3335-.833-.834" stroke="#c5d3ff"/><path d="m89.7068 23.0851c0 1.381-1.12 2.5-2.5 2.5-1.381 0-2.5-1.119-2.5-2.5 0-1.38 1.119-2.5 2.5-2.5 1.38 0 2.5 1.12 2.5 2.5z" stroke="#f4d862"/><path d="m15.6745 5.0617c0 1.104-.896 2-2 2-1.105 0-2-.896-2-2s.895-2 2-2c1.104 0 2 .896 2 2z" stroke="#c5d3ff"/><path d="m97.1081 30.0289v5m2.5-2.5h-5" stroke="#3ba55c"/><path d="m2.5002 13.6456v4m2-2h-4" stroke="#7187dd"/></g></g><path d="m0 0h101v55h-101z"/></g></svg>