<svg xmlns="http://www.w3.org/2000/svg" width="294" height="192" viewBox="0 0 294 192" xmlns:xlink="http://www.w3.org/1999/xlink">
  <defs>
    <polygon id="a" points="0 175.313 0 .812 293.368 .812 293.368 175.313 0 175.313"/>
    <polygon id="c" points=".108 110 178.853 110 178.853 .747 .108 .747 .108 110"/>
  </defs>
  <g fill="none" fill-rule="evenodd">
    <g transform="translate(0 .189)">
      <mask id="b" fill="white">
        <use xlink:href="#a"/>
      </mask>
      <path fill="#F7F7F8" fill-opacity=".9" d="M227.4617,24.1086 L227.4617,24.1086 C227.4617,36.9736 237.8917,47.4046 250.7577,47.4046 L254.2007,47.4046 C275.8327,47.4046 293.3677,64.9396 293.3677,86.5716 C293.3677,108.2036 275.8327,125.7396 254.2007,125.7396 L238.2407,125.7396 C224.5517,125.7396 213.4547,136.8376 213.4547,150.5256 C213.4547,164.2146 202.3577,175.3126 188.6677,175.3126 L35.7447,175.3126 C16.0037,175.3126 -0.0003,159.3086 -0.0003,139.5676 C-0.0003,119.8266 16.0037,103.8226 35.7447,103.8226 L44.1997,103.8226 C55.0827,103.8226 63.9057,95.0006 63.9057,84.1166 C63.9057,73.2326 55.0827,64.4106 44.1987,64.4106 L39.7397,64.4116 C22.7027,64.4126 8.8917,50.6016 8.8917,33.5646 L8.8917,32.7666 C8.8917,15.0476 23.1237,0.8106 40.6867,0.8116 C80.9607,0.8126 168.4277,0.8126 204.1697,0.8126 C217.0357,0.8126 227.4617,11.2426 227.4617,24.1086" mask="url(#b)"/>
    </g>
    <path fill="#DCDDDE" d="M236.6297 55.0887L202.6077 55.0887C202.0037 55.0887 201.5147 55.5777 201.5147 56.1817L201.5147 70.1107C201.5147 73.4247 204.2007 76.1107 207.5147 76.1107L231.7227 76.1107C235.0367 76.1107 237.7227 73.4247 237.7227 70.1107L237.7227 56.1817C237.7227 55.5777 237.2337 55.0887 236.6297 55.0887M158.9437 106.4119L145.9447 106.4119 152.1977 110.0209C153.9497 108.9329 156.2797 107.6699 158.9437 106.4119M176.5374 121.6932C175.6874 122.0672 174.9064 122.4132 174.2134 122.7322L182.2754 127.3872 203.7594 127.3872C204.3634 127.3872 204.8524 126.8972 204.8524 126.2942L204.8524 113.4122C204.8524 110.0972 202.1664 107.4122 198.8524 107.4122L198.0634 107.4122C197.5114 107.4122 197.0634 106.9642 197.0634 106.4122L192.1884 106.4122C192.2424 106.5902 192.3054 106.7602 192.3504 106.9472 194.0474 113.9832 183.5104 118.6232 176.5374 121.6932"/>
    <path fill="#DCDDDE" d="M175.7313 119.8631C181.7083 117.2311 191.7103 112.8271 190.4053 107.4161 190.3203 107.0601 190.2093 106.7301 190.0853 106.4121L163.8323 106.4121C160.0773 107.9521 156.6593 109.6671 154.1563 111.1521L172.1203 121.5241C173.0853 121.0321 174.3153 120.4861 175.7313 119.8631M116.1898 107.4119L110.9938 107.4119C107.6808 107.4119 104.9938 110.0979 104.9938 113.4119L104.9938 124.0269 129.6548 109.5789 129.6548 106.4119 117.1898 106.4119C117.1898 106.9649 116.7418 107.4119 116.1898 107.4119M53.0223 55.0887L46.0093 55.0887C45.4053 55.0887 44.9163 55.5777 44.9163 56.1817L44.9163 75.0177C44.9163 75.6207 45.4063 76.1107 46.0103 76.1107L106.6113 76.1107C109.3733 76.1107 111.6113 73.8717 111.6113 71.1107L111.6113 60.0887C111.6113 57.3267 109.3733 55.0887 106.6113 55.0887L61.6113 55.0887C61.0593 55.0887 60.6113 54.6417 60.6113 54.0887L60.6113 54.0877 54.0223 54.0877 54.0223 54.0887C54.0223 54.6417 53.5743 55.0887 53.0223 55.0887"/>
    <polygon fill="#F7F7F8" points="33.371 136.414 31.167 137.839 32.144 138.403 34.464 137.044"/>
    <polygon fill="#F7F7F8" points="30.134 140.531 31.213 141.153 31.213 140.175 30.177 139.577"/>
    <polygon fill="#F7F7F8" points="33.213 144.408 38.39 147.397 38.39 144.243 33.213 141.254"/>
    <path fill="#F7F7F8" d="M40.39,147.3836 L42.67,146.0486 C42.502,145.9646 42.335,145.8866 42.167,145.8006 C41.676,145.5476 41.482,144.9456 41.735,144.4536 C41.987,143.9626 42.589,143.7696 43.081,144.0216 C43.493,144.2326 43.903,144.4156 44.313,144.6126 L44.313,141.9416 L40.39,144.2386 L40.39,147.3836 Z"/>
    <polygon fill="#F7F7F8" points="38.139 137.21 34.202 139.517 39.386 142.509 43.324 140.202"/>
    <polygon fill="#DCDDDE" points="151.629 187.444 197.607 160.508 197.607 139.716 151.629 166.652"/>
    <path fill="#F7F7F8" d="M159.9246,134.2439 C159.9246,134.2419 159.9256,134.2409 159.9256,134.2399 C159.9266,132.5199 161.0136,130.9479 162.9856,129.8089 C166.7316,127.6469 172.5996,127.6469 176.3466,129.8089 C178.3206,130.9489 179.4066,132.5229 179.4066,134.2439 L179.4066,141.0419 C179.4076,142.7629 178.3206,144.3379 176.3466,145.4769 C174.4736,146.5579 172.0696,147.0989 169.6666,147.0989 C167.2616,147.0989 164.8586,146.5579 162.9856,145.4769 C161.0116,144.3379 159.9246,142.7639 159.9246,141.0429 L159.9246,134.2439 Z M140.2976,151.5349 C139.8576,151.7929 139.3656,151.9219 138.8756,151.9219 C138.3926,151.9219 137.9106,151.7969 137.4806,151.5489 L132.3586,148.5919 C131.4876,148.0879 130.9646,147.1859 130.9616,146.1809 C130.9576,145.1739 131.4746,144.2679 132.3426,143.7599 C133.2156,143.2479 134.2916,143.2459 135.1596,143.7459 L140.2816,146.7029 C141.1536,147.2069 141.6756,148.1079 141.6786,149.1139 C141.6826,150.1209 141.1656,151.0259 140.2976,151.5349 L140.2976,151.5349 Z M128.0656,144.4309 C127.6256,144.6879 127.1336,144.8169 126.6426,144.8169 C126.1596,144.8169 125.6786,144.6919 125.2476,144.4439 L120.1266,141.4869 C119.2546,140.9829 118.7326,140.0819 118.7286,139.0759 C118.7256,138.0689 119.2416,137.1639 120.1106,136.6549 C120.9826,136.1429 122.0596,136.1409 122.9276,136.6409 L128.0496,139.5979 C128.9206,140.1019 129.4436,141.0039 129.4466,142.0099 C129.4496,143.0159 128.9336,143.9219 128.0656,144.4309 L128.0656,144.4309 Z M140.3966,105.7999 L140.3966,115.7819 C142.6666,116.2359 144.8026,116.9749 146.6146,118.0209 C150.0566,120.0089 151.6306,122.6599 151.3696,125.2609 C152.6176,125.5289 153.7996,125.9419 154.8186,126.5309 C156.7916,127.6709 157.8786,129.2449 157.8786,130.9659 L157.8786,137.7639 C157.8786,139.4849 156.7916,141.0589 154.8186,142.1989 C152.9456,143.2809 150.5406,143.8219 148.1376,143.8219 C145.7336,143.8219 143.3296,143.2809 141.4566,142.1989 C139.4836,141.0589 138.3966,139.4839 138.3966,137.7649 L138.3966,133.9679 C133.1626,134.5999 127.4996,133.7489 123.4366,131.4029 C117.0356,127.7079 117.0356,121.7169 123.4366,118.0209 C125.2496,116.9749 127.3856,116.2359 129.6546,115.7819 L129.6546,111.8969 L94.4796,132.5059 L150.6256,164.9219 L196.6176,137.9769 L140.6626,105.6719 C140.5736,105.7149 140.4866,105.7589 140.3966,105.7999 L140.3966,105.7999 Z"/>
    <polygon fill="#DCDDDE" points="93.49 155.046 149.63 187.457 149.63 166.656 93.49 134.245"/>
    <path fill="#DCDDDE" d="M123.4369 131.4031C127.4999 133.7491 133.1629 134.6001 138.3959 133.9671L138.3959 130.9661C138.3959 130.4231 138.5169 129.8971 138.7269 129.3921 134.9399 130.2001 130.5229 129.7311 127.4809 127.9751 123.3139 125.5701 123.3139 121.6701 127.4809 119.2631 128.1449 118.8811 128.8809 118.5651 129.6549 118.3031L129.6549 115.7821C127.3859 116.2361 125.2489 116.9751 123.4369 118.0211 117.0359 121.7161 117.0359 127.7081 123.4369 131.4031M145.3358 125.1863C147.3098 124.8243 149.4198 124.8413 151.3698 125.2603 151.6298 122.6603 150.0568 120.0083 146.6148 118.0213 144.8028 116.9753 142.6668 116.2363 140.3968 115.7823L140.3968 118.3033C141.1708 118.5653 141.9068 118.8803 142.5708 119.2643 145.3508 120.8693 146.2648 123.1383 145.3358 125.1863"/>
    <path fill="#DCDDDE" d="M131.6551,106.5144 L131.6551,121.5914 C131.6551,122.8474 132.6771,123.8684 133.9331,123.8684 L136.1181,123.8684 C137.3741,123.8684 138.3961,122.8474 138.3961,121.5914 L138.3961,106.5144 C137.3191,106.8044 136.1931,106.9734 135.0261,106.9734 C133.8591,106.9734 132.7321,106.8044 131.6551,106.5144"/>
    <path fill="#FFFFFF" d="M146.0448,93.9539 C146.0448,87.8789 141.1018,82.9349 135.0258,82.9349 C128.9498,82.9349 124.0068,87.8789 124.0068,93.9539 C124.0068,100.0299 128.9498,104.9739 135.0258,104.9739 C141.1018,104.9739 146.0448,100.0299 146.0448,93.9539"/>
    <path fill="#F7F7F8" d="M163.9852,143.7449 C167.0642,145.5219 172.2672,145.5219 175.3462,143.7449 C176.6752,142.9779 177.4072,142.0179 177.4072,141.0419 L177.4072,137.9439 C177.0862,138.2029 176.7392,138.4519 176.3472,138.6789 C174.4742,139.7599 172.0702,140.3009 169.6662,140.3009 C167.2622,140.3009 164.8582,139.7599 162.9852,138.6789 C162.5922,138.4509 162.2452,138.2029 161.9242,137.9439 L161.9242,141.0429 C161.9242,142.0179 162.6562,142.9779 163.9852,143.7449"/>
    <path fill="#FFFFFF" d="M163.9852,136.9461 C167.0642,138.7231 172.2682,138.7231 175.3472,136.9461 C176.6752,136.1791 177.4072,135.2191 177.4072,134.2441 C177.4072,133.2681 176.6752,132.3081 175.3472,131.5421 C173.8072,130.6531 171.7362,130.2091 169.6662,130.2091 C167.5952,130.2091 165.5252,130.6531 163.9852,131.5421 C162.6562,132.3081 161.9252,133.2681 161.9252,134.2441 C161.9252,135.2191 162.6562,136.1791 163.9852,136.9461"/>
    <path fill="#F7F7F8" d="M148.1375,137.0232 C145.7335,137.0232 143.3295,136.4822 141.4565,135.4012 C141.0645,135.1732 140.7175,134.9252 140.3965,134.6672 L140.3965,137.7642 C140.3965,138.7402 141.1275,139.7002 142.4565,140.4662 C145.5345,142.2462 150.7375,142.2462 153.8185,140.4662 C155.1475,139.7002 155.8785,138.7402 155.8785,137.7632 L155.8785,134.6672 C155.5575,134.9252 155.2105,135.1732 154.8185,135.4012 C152.9455,136.4822 150.5415,137.0232 148.1375,137.0232"/>
    <path fill="#FFFFFF" d="M142.4564,128.2635 C141.1274,129.0305 140.3964,129.9905 140.3964,130.9655 C140.3964,131.9415 141.1274,132.9015 142.4564,133.6685 C145.5364,135.4465 150.7384,135.4485 153.8184,133.6685 C155.1464,132.9015 155.8784,131.9415 155.8784,130.9655 C155.8784,129.9905 155.1464,129.0305 153.8184,128.2635 C152.2784,127.3745 150.2074,126.9295 148.1374,126.9295 C146.0664,126.9295 143.9964,127.3745 142.4564,128.2635"/>
    <path fill="#F7F7F8" d="M127.0492 141.3308L121.9282 138.3738C121.8052 138.3028 121.6682 138.2678 121.5302 138.2678 121.3912 138.2678 121.2532 138.3038 121.1292 138.3758 120.7662 138.5888 120.7282 138.9318 120.7292 139.0688 120.7292 139.2068 120.7692 139.5488 121.1262 139.7548L126.2472 142.7118C126.4942 142.8548 126.8012 142.8538 127.0472 142.7088 127.4102 142.4968 127.4472 142.1538 127.4462 142.0168 127.4462 141.8788 127.4062 141.5368 127.0492 141.3308M139.2816 148.4353L134.1606 145.4783C134.0376 145.4073 133.9006 145.3723 133.7626 145.3723 133.6236 145.3723 133.4846 145.4083 133.3606 145.4813 132.9976 145.6933 132.9606 146.0363 132.9616 146.1733 132.9616 146.3113 133.0016 146.6533 133.3586 146.8593L138.4796 149.8163C138.7266 149.9603 139.0326 149.9583 139.2796 149.8143 139.6416 149.6013 139.6796 149.2583 139.6786 149.1213 139.6786 148.9833 139.6386 148.6413 139.2816 148.4353"/>
    <g transform="translate(28 80.189)">
      <mask id="d" fill="white">
        <use xlink:href="#c"/>
      </mask>
      <path fill="#B9BBBE" d="M165.6278,56.0725 C166.9608,56.8375 166.9678,58.7555 165.6418,59.5315 L129.1488,80.9105 C125.1158,83.2735 120.1258,83.2895 116.0778,80.9525 L69.4578,54.0365 C68.1288,53.2685 68.1228,51.3535 69.4468,50.5785 L100.1498,32.5915 C100.8158,32.2005 101.6548,32.6805 101.6548,33.4535 L101.6548,35.5935 L101.6548,38.1145 C100.8808,38.3765 100.1458,38.6915 99.4818,39.0755 C95.3148,41.4805 95.3148,45.3815 99.4818,47.7865 C102.5228,49.5425 106.9398,50.0105 110.7268,49.2035 C111.1828,48.1085 112.1058,47.1225 113.4568,46.3425 C114.5908,45.6865 115.9298,45.2555 117.3358,44.9975 C118.2648,42.9495 117.3508,40.6795 114.5708,39.0755 C113.9068,38.6915 113.1708,38.3765 112.3968,38.1145 L112.3968,35.5935 L112.3968,27.3105 C112.3968,26.5465 113.2198,26.0645 113.8858,26.4405 C121.4118,30.7035 155.3088,50.1505 165.6278,56.0725 L165.6278,56.0725 Z M169.6068,63.0165 L169.6068,78.5995 C169.6068,79.6655 169.0428,80.6495 168.1238,81.1885 L128.1458,104.6085 C126.1458,105.7805 123.6288,104.3385 123.6288,102.0205 L123.6288,88.1825 C123.6288,87.1175 124.1938,86.1325 125.1128,85.5935 L166.5968,61.2915 C167.9298,60.5095 169.6068,61.4715 169.6068,63.0165 L169.6068,63.0165 Z M121.6288,102.0715 C121.6288,104.3815 119.1288,105.8245 117.1288,104.6695 L66.9898,75.7215 C66.0618,75.1865 65.4898,74.1965 65.4898,73.1245 L65.4898,57.5195 C65.4898,55.9795 67.1568,55.0175 68.4898,55.7875 L119.6288,85.3115 C120.8668,86.0265 121.6288,87.3465 121.6288,88.7765 L121.6288,102.0715 Z M110.3968,41.6795 C110.3968,42.7845 109.5018,43.6795 108.3968,43.6795 L105.6548,43.6795 C104.5508,43.6795 103.6548,42.7845 103.6548,41.6795 L103.6548,27.5655 C103.6548,26.9455 104.2128,26.4775 104.8228,26.5875 C105.5388,26.7145 106.2738,26.7845 107.0258,26.7845 C107.7778,26.7845 108.5128,26.7145 109.2288,26.5875 C109.8388,26.4775 110.3968,26.9455 110.3968,27.5655 L110.3968,41.6795 Z M96.0068,13.7645 C96.0068,7.6895 100.9498,2.7465 107.0258,2.7465 C113.1018,2.7465 118.0448,7.6895 118.0448,13.7645 C118.0448,19.8415 113.1018,24.7845 107.0258,24.7845 C100.9498,24.7845 96.0068,19.8415 96.0068,13.7645 L96.0068,13.7645 Z M127.6748,30.0955 C129.9678,28.8335 132.7888,27.4705 135.8318,26.2225 C143.5158,23.0705 152.5888,20.6585 158.0098,22.4875 C160.0378,23.1725 161.3758,24.4025 162.0848,26.2225 C162.2088,26.5415 162.3198,26.8715 162.4058,27.2265 C163.7108,32.6375 153.7078,37.0425 147.7318,39.6745 L147.6898,39.6925 C145.4018,40.6995 142.7728,40.5555 140.6078,39.3065 L127.6668,31.8355 C126.9938,31.4465 126.9938,30.4705 127.6748,30.0955 L127.6748,30.0955 Z M16.3128,64.4235 C15.9028,64.2275 15.4928,64.0435 15.0818,63.8325 C14.5888,63.5805 13.9868,63.7735 13.7348,64.2645 C13.4818,64.7565 13.6758,65.3585 14.1678,65.6115 C14.3358,65.6975 14.5028,65.7755 14.6698,65.8585 L13.8958,66.3125 C13.2288,66.7035 12.3898,66.2225 12.3898,65.4505 L12.3898,64.6235 C12.3898,64.2675 12.5788,63.9395 12.8848,63.7595 L14.8078,62.6345 C15.4738,62.2435 16.3128,62.7235 16.3128,63.4965 L16.3128,64.4235 Z M10.3788,61.7375 L7.6918,60.1865 C7.0268,59.8025 7.0238,58.8445 7.6858,58.4585 L9.1358,57.6085 C9.7568,57.2455 10.5238,57.2425 11.1468,57.6015 L13.8348,59.1525 C14.4988,59.5365 14.5018,60.4945 13.8398,60.8825 L12.3898,61.7315 C11.7698,62.0945 11.0018,62.0965 10.3788,61.7375 L10.3788,61.7375 Z M10.3898,65.4755 C10.3898,66.2455 9.5568,66.7265 8.8898,66.3425 L5.7128,64.5075 C5.4038,64.3285 5.2128,63.9985 5.2128,63.6415 L5.2128,62.7975 C5.2128,62.0275 6.0458,61.5465 6.7128,61.9305 L9.8898,63.7645 C10.1998,63.9445 10.3898,64.2745 10.3898,64.6315 L10.3898,65.4755 Z M3.1678,57.6495 L5.3708,56.2245 L6.4638,56.8545 L4.1438,58.2145 L3.1678,57.6495 Z M3.2128,60.9645 L2.1338,60.3425 L2.1768,59.3875 L3.2128,59.9855 L3.2128,60.9645 Z M172.8528,25.2225 L170.0638,25.2225 C169.5108,25.2225 169.0638,25.6705 169.0638,26.2225 C169.0638,26.7755 169.5108,27.2225 170.0638,27.2225 L170.8528,27.2225 C174.1668,27.2225 176.8528,29.9095 176.8528,33.2225 L176.8528,46.1055 C176.8528,46.7095 176.3638,47.1985 175.7598,47.1985 L158.8308,47.1985 C155.8468,47.1985 152.9158,46.4125 150.3308,44.9215 L148.3828,43.7965 C147.4758,43.2715 147.5478,41.9395 148.5068,41.5175 L148.5378,41.5045 C155.5098,38.4335 166.0468,33.7945 164.3498,26.7585 C164.3048,26.5715 164.2428,26.4015 164.1888,26.2225 C163.3608,23.4585 161.5078,21.5575 158.6488,20.5935 C151.5628,18.2005 139.5338,22.1665 130.9438,26.2225 C128.5938,27.3325 126.5028,28.4465 124.8408,29.4405 C124.4398,29.6805 123.9468,29.6875 123.5418,29.4545 L117.9448,26.2225 L117.0728,25.7185 C115.9608,25.0765 115.6798,23.5505 116.5548,22.6095 C119.2808,19.6815 120.6808,15.5085 119.7658,11.0385 C118.7178,5.9175 114.5378,1.8665 109.3908,0.9565 C101.1758,-0.4985 94.0068,5.8115 94.0068,13.7645 C94.0068,18.6345 96.6988,22.8785 100.6698,25.1095 C101.2858,25.4565 101.6548,26.1205 101.6548,26.8285 L101.6548,28.2435 C101.6548,28.9535 101.2788,29.6105 100.6668,29.9685 L80.0048,42.0735 C78.6718,42.8545 76.9938,41.8935 76.9938,40.3475 L76.9938,33.2225 C76.9938,29.9095 79.6808,27.2225 82.9938,27.2225 L88.1898,27.2225 C88.7418,27.2225 89.1898,26.7755 89.1898,26.2225 C89.1898,25.6705 88.7418,25.2225 88.1898,25.2225 L80.9938,25.2225 C77.6808,25.2225 74.9938,27.9095 74.9938,31.2225 L74.9938,45.0095 L63.9838,51.4605 C63.9808,51.4625 63.9788,51.4665 63.9748,51.4685 C63.8758,51.5285 63.7938,51.6065 63.7228,51.6945 C63.7038,51.7175 63.6868,51.7385 63.6698,51.7625 C63.6058,51.8565 63.5528,51.9565 63.5238,52.0675 C63.5228,52.0735 63.5228,52.0795 63.5218,52.0855 C63.5028,52.1625 63.4898,52.2415 63.4898,52.3235 L63.4898,61.8895 C60.3278,63.7295 40.8798,74.1335 19.5688,65.8365 C18.8078,65.5405 18.3128,64.7905 18.3128,63.9735 L18.3128,60.0075 L18.3128,60.0055 L18.3128,60.0045 C18.3128,59.8835 18.2838,59.7685 18.2418,59.6585 C18.2318,59.6325 18.2228,59.6085 18.2108,59.5835 C18.1608,59.4765 18.0968,59.3775 18.0118,59.2945 C18.0108,59.2925 18.0098,59.2905 18.0088,59.2895 C18.0028,59.2835 17.9948,59.2815 17.9888,59.2755 C17.9348,59.2255 17.8778,59.1775 17.8128,59.1405 L10.6348,54.9965 C10.3238,54.8175 9.9408,54.8185 9.6298,55.0005 L9.4528,55.1035 C8.8328,55.4675 8.0648,55.4695 7.4418,55.1105 L5.8408,54.1865 C5.5168,53.9995 5.1138,54.0095 4.7978,54.2135 L0.7078,56.8585 C0.6808,56.8765 0.6608,56.8995 0.6358,56.9195 C0.6028,56.9455 0.5688,56.9705 0.5398,57.0015 C0.5098,57.0315 0.4848,57.0655 0.4598,57.0985 C0.4338,57.1325 0.4078,57.1655 0.3868,57.2025 C0.3658,57.2385 0.3518,57.2765 0.3358,57.3145 C0.3188,57.3545 0.3018,57.3935 0.2908,57.4345 C0.2788,57.4755 0.2748,57.5165 0.2688,57.5585 C0.2638,57.5915 0.2528,57.6205 0.2518,57.6535 L0.1088,60.8595 C0.0918,61.2325 0.2848,61.5845 0.6078,61.7705 L2.2128,62.6965 C2.8318,63.0535 3.2128,63.7145 3.2128,64.4285 L3.2128,64.7965 C3.2128,65.1535 3.4038,65.4835 3.7128,65.6625 L10.8898,69.8065 C11.0448,69.8955 11.2168,69.9405 11.3898,69.9405 C11.5648,69.9405 11.7398,69.8945 11.8958,69.8025 L14.3158,68.3845 C15.8898,67.4625 17.7918,67.3275 19.4998,67.9645 C25.4288,70.1735 31.2088,71.0075 36.5508,71.0075 C49.4098,71.0075 59.7278,66.1945 63.4898,64.1755 L63.4898,75.4335 C63.4898,75.7915 63.6808,76.1215 63.9898,76.3005 L122.1288,109.8665 C122.1308,109.8675 122.1328,109.8675 122.1348,109.8685 C122.1878,109.8975 122.2448,109.9175 122.3008,109.9365 C122.3258,109.9455 122.3498,109.9605 122.3758,109.9675 C122.4398,109.9835 122.5058,109.9885 122.5728,109.9925 C122.5918,109.9935 122.6098,110.0005 122.6288,110.0005 L122.6298,110.0005 L122.6298,110.0005 C122.7538,110.0005 122.8768,109.9685 122.9958,109.9215 C123.0408,109.9035 123.0868,109.8905 123.1288,109.8665 C123.1298,109.8655 123.1308,109.8645 123.1308,109.8645 C123.1328,109.8645 123.1338,109.8635 123.1348,109.8635 L171.1128,81.7565 C171.4198,81.5765 171.6068,81.2475 171.6068,80.8925 L171.6068,57.7825 C171.6068,57.6965 171.5948,57.6125 171.5738,57.5305 C171.5728,57.5275 171.5738,57.5245 171.5728,57.5215 C171.5428,57.4115 171.4888,57.3115 171.4248,57.2185 C171.4078,57.1935 171.3898,57.1715 171.3698,57.1475 C171.2988,57.0615 171.2168,56.9835 171.1178,56.9255 C171.1138,56.9235 171.1118,56.9185 171.1068,56.9165 L157.7398,49.1985 L175.7598,49.1985 C177.4678,49.1985 178.8528,47.8135 178.8528,46.1045 L178.8528,31.2225 C178.8528,27.9095 176.1668,25.2225 172.8528,25.2225 L172.8528,25.2225 Z" mask="url(#d)"/>
    </g>
    <path fill="#B9BBBE" d="M71.8065 108.5047L71.8065 124.3877C71.8065 126.0437 70.4635 127.3877 68.8065 127.3877L55.9165 127.3877C54.2595 127.3877 52.9165 126.0437 52.9165 124.3877L52.9165 108.5047C52.9165 107.9007 53.4055 107.4117 54.0095 107.4117L70.7135 107.4117C71.3175 107.4117 71.8065 107.9007 71.8065 108.5047M50.9165 108.5047L50.9165 126.2947C50.9165 127.9997 52.3035 129.3877 54.0095 129.3877L70.7135 129.3877C72.4195 129.3877 73.8065 127.9997 73.8065 126.2947L73.8065 108.5047C73.8065 106.7997 72.4195 105.4117 70.7135 105.4117L54.0095 105.4117C52.3035 105.4117 50.9165 106.7997 50.9165 108.5047M162.0408 90.4529C160.8848 90.4529 159.9478 91.3899 159.9478 92.5459 159.9478 93.7019 160.8848 94.6389 162.0408 94.6389 163.1968 94.6389 164.1338 93.7019 164.1338 92.5459 164.1338 91.3899 163.1968 90.4529 162.0408 90.4529M172.5052 94.6385C173.6612 94.6385 174.5982 93.7015 174.5982 92.5455 174.5982 91.3895 173.6612 90.4525 172.5052 90.4525 171.3492 90.4525 170.4122 91.3895 170.4122 92.5455 170.4122 93.7015 171.3492 94.6385 172.5052 94.6385M139.0184 40.2224C139.0184 41.3774 139.9554 42.3154 141.1114 42.3154 142.2674 42.3154 143.2044 41.3774 143.2044 40.2224 143.2044 39.0664 142.2674 38.1294 141.1114 38.1294 139.9554 38.1294 139.0184 39.0664 139.0184 40.2224M153.6688 40.2224C153.6688 39.0664 152.7318 38.1294 151.5758 38.1294 150.4198 38.1294 149.4828 39.0664 149.4828 40.2224 149.4828 41.3774 150.4198 42.3154 151.5758 42.3154 152.7318 42.3154 153.6688 41.3774 153.6688 40.2224M164.1336 40.2224C164.1336 39.0664 163.1966 38.1294 162.0406 38.1294 160.8846 38.1294 159.9476 39.0664 159.9476 40.2224 159.9476 41.3774 160.8846 42.3154 162.0406 42.3154 163.1966 42.3154 164.1336 41.3774 164.1336 40.2224M172.5052 42.3152C173.6612 42.3152 174.5982 41.3782 174.5982 40.2222 174.5982 39.0662 173.6612 38.1292 172.5052 38.1292 171.3492 38.1292 170.4122 39.0662 170.4122 40.2222 170.4122 41.3782 171.3492 42.3152 172.5052 42.3152M182.97 94.6385C184.126 94.6385 185.063 93.7015 185.063 92.5455 185.063 91.3895 184.126 90.4525 182.97 90.4525 181.814 90.4525 180.877 91.3895 180.877 92.5455 180.877 93.7015 181.814 94.6385 182.97 94.6385M130.6468 69.5232C129.4908 69.5232 128.5538 70.4602 128.5538 71.6162 128.5538 72.7722 129.4908 73.7102 130.6468 73.7102 131.8028 73.7102 132.7398 72.7722 132.7398 71.6162 132.7398 70.4602 131.8028 69.5232 130.6468 69.5232M130.6468 59.0584C129.4908 59.0584 128.5538 59.9954 128.5538 61.1524 128.5538 62.3074 129.4908 63.2454 130.6468 63.2454 131.8028 63.2454 132.7398 62.3074 132.7398 61.1524 132.7398 59.9954 131.8028 59.0584 130.6468 59.0584M130.6468 48.5935C129.4908 48.5935 128.5538 49.5305 128.5538 50.6875 128.5538 51.8425 129.4908 52.7805 130.6468 52.7805 131.8028 52.7805 132.7398 51.8425 132.7398 50.6875 132.7398 49.5305 131.8028 48.5935 130.6468 48.5935M25.9998 79.9881C24.8438 79.9881 23.9068 80.9251 23.9068 82.0811 23.9068 83.2371 24.8438 84.1741 25.9998 84.1741 27.1558 84.1741 28.0928 83.2371 28.0928 82.0811 28.0928 80.9251 27.1558 79.9881 25.9998 79.9881M25.9998 69.5232C24.8438 69.5232 23.9068 70.4602 23.9068 71.6162 23.9068 72.7722 24.8438 73.7102 25.9998 73.7102 27.1558 73.7102 28.0928 72.7722 28.0928 71.6162 28.0928 70.4602 27.1558 69.5232 25.9998 69.5232M25.9998 59.0584C24.8438 59.0584 23.9068 59.9954 23.9068 61.1524 23.9068 62.3074 24.8438 63.2454 25.9998 63.2454 27.1558 63.2454 28.0928 62.3074 28.0928 61.1524 28.0928 59.9954 27.1558 59.0584 25.9998 59.0584M25.9998 48.5935C24.8438 48.5935 23.9068 49.5305 23.9068 50.6875 23.9068 51.8425 24.8438 52.7805 25.9998 52.7805 27.1558 52.7805 28.0928 51.8425 28.0928 50.6875 28.0928 49.5305 27.1558 48.5935 25.9998 48.5935M182.97 84.1736C184.126 84.1736 185.063 83.2366 185.063 82.0806 185.063 80.9256 184.126 79.9876 182.97 79.9876 181.814 79.9876 180.877 80.9256 180.877 82.0806 180.877 83.2366 181.814 84.1736 182.97 84.1736M182.97 73.7098C184.126 73.7098 185.063 72.7728 185.063 71.6158 185.063 70.4608 184.126 69.5228 182.97 69.5228 181.814 69.5228 180.877 70.4608 180.877 71.6158 180.877 72.7728 181.814 73.7098 182.97 73.7098M182.97 63.2449C184.126 63.2449 185.063 62.3079 185.063 61.1519 185.063 59.9959 184.126 59.0579 182.97 59.0579 181.814 59.0579 180.877 59.9959 180.877 61.1519 180.877 62.3079 181.814 63.2449 182.97 63.2449M182.97 52.7801C184.126 52.7801 185.063 51.8431 185.063 50.6871 185.063 49.5311 184.126 48.5931 182.97 48.5931 181.814 48.5931 180.877 49.5311 180.877 50.6871 180.877 51.8431 181.814 52.7801 182.97 52.7801M256.2225 79.9881C255.0665 79.9881 254.1295 80.9251 254.1295 82.0811 254.1295 83.2371 255.0665 84.1741 256.2225 84.1741 257.3785 84.1741 258.3155 83.2371 258.3155 82.0811 258.3155 80.9251 257.3785 79.9881 256.2225 79.9881M256.2225 69.5232C255.0665 69.5232 254.1295 70.4602 254.1295 71.6162 254.1295 72.7722 255.0665 73.7102 256.2225 73.7102 257.3785 73.7102 258.3155 72.7722 258.3155 71.6162 258.3155 70.4602 257.3785 69.5232 256.2225 69.5232M256.2225 59.0584C255.0665 59.0584 254.1295 59.9954 254.1295 61.1524 254.1295 62.3074 255.0665 63.2454 256.2225 63.2454 257.3785 63.2454 258.3155 62.3074 258.3155 61.1524 258.3155 59.9954 257.3785 59.0584 256.2225 59.0584M256.2225 48.5935C255.0665 48.5935 254.1295 49.5305 254.1295 50.6875 254.1295 51.8425 255.0665 52.7805 256.2225 52.7805 257.3785 52.7805 258.3155 51.8425 258.3155 50.6875 258.3155 49.5305 257.3785 48.5935 256.2225 48.5935M65.766 40.2224C65.766 41.3774 66.703 42.3154 67.859 42.3154 69.015 42.3154 69.952 41.3774 69.952 40.2224 69.952 39.0664 69.015 38.1294 67.859 38.1294 66.703 38.1294 65.766 39.0664 65.766 40.2224M76.2303 40.2224C76.2303 41.3774 77.1673 42.3154 78.3233 42.3154 79.4793 42.3154 80.4163 41.3774 80.4163 40.2224 80.4163 39.0664 79.4793 38.1294 78.3233 38.1294 77.1673 38.1294 76.2303 39.0664 76.2303 40.2224M86.6952 40.2224C86.6952 41.3774 87.6322 42.3154 88.7882 42.3154 89.9442 42.3154 90.8812 41.3774 90.8812 40.2224 90.8812 39.0664 89.9442 38.1294 88.7882 38.1294 87.6322 38.1294 86.6952 39.0664 86.6952 40.2224M99.2528 42.3152C100.4088 42.3152 101.3458 41.3782 101.3458 40.2222 101.3458 39.0662 100.4088 38.1292 99.2528 38.1292 98.0968 38.1292 97.1598 39.0662 97.1598 40.2222 97.1598 41.3782 98.0968 42.3152 99.2528 42.3152M109.7176 42.3152C110.8736 42.3152 111.8106 41.3782 111.8106 40.2222 111.8106 39.0662 110.8736 38.1292 109.7176 38.1292 108.5616 38.1292 107.6246 39.0662 107.6246 40.2222 107.6246 41.3782 108.5616 42.3152 109.7176 42.3152M120.182 42.3152C121.338 42.3152 122.275 41.3782 122.275 40.2222 122.275 39.0662 121.338 38.1292 120.182 38.1292 119.026 38.1292 118.089 39.0662 118.089 40.2222 118.089 41.3782 119.026 42.3152 120.182 42.3152M130.6468 38.1297C129.4908 38.1297 128.5538 39.0667 128.5538 40.2227 128.5538 41.3777 129.4908 42.3157 130.6468 42.3157 131.8028 42.3157 132.7398 41.3777 132.7398 40.2227 132.7398 39.0667 131.8028 38.1297 130.6468 38.1297M55.3011 40.2224C55.3011 41.3774 56.2381 42.3154 57.3941 42.3154 58.5501 42.3154 59.4871 41.3774 59.4871 40.2224 59.4871 39.0664 58.5501 38.1294 57.3941 38.1294 56.2381 38.1294 55.3011 39.0664 55.3011 40.2224M46.9295 42.3152C48.0855 42.3152 49.0225 41.3782 49.0225 40.2222 49.0225 39.0662 48.0855 38.1292 46.9295 38.1292 45.7735 38.1292 44.8365 39.0662 44.8365 40.2222 44.8365 41.3782 45.7735 42.3152 46.9295 42.3152M36.4647 38.1297C35.3087 38.1297 34.3717 39.0667 34.3717 40.2227 34.3717 41.3777 35.3087 42.3157 36.4647 42.3157 37.6207 42.3157 38.5577 41.3777 38.5577 40.2227 38.5577 39.0667 37.6207 38.1297 36.4647 38.1297M25.9998 38.1297C24.8438 38.1297 23.9068 39.0667 23.9068 40.2227 23.9068 41.3777 24.8438 42.3157 25.9998 42.3157 27.1558 42.3157 28.0928 41.3777 28.0928 40.2227 28.0928 39.0667 27.1558 38.1297 25.9998 38.1297M216.4569 40.2224C216.4569 39.0664 215.5199 38.1294 214.3639 38.1294 213.2079 38.1294 212.2709 39.0664 212.2709 40.2224 212.2709 41.3774 213.2079 42.3154 214.3639 42.3154 215.5199 42.3154 216.4569 41.3774 216.4569 40.2224M226.9217 40.2224C226.9217 39.0664 225.9847 38.1294 224.8287 38.1294 223.6727 38.1294 222.7357 39.0664 222.7357 40.2224 222.7357 41.3774 223.6727 42.3154 224.8287 42.3154 225.9847 42.3154 226.9217 41.3774 226.9217 40.2224M237.3861 40.2224C237.3861 39.0664 236.4491 38.1294 235.2931 38.1294 234.1371 38.1294 233.2001 39.0664 233.2001 40.2224 233.2001 41.3774 234.1371 42.3154 235.2931 42.3154 236.4491 42.3154 237.3861 41.3774 237.3861 40.2224M245.7581 38.1297C244.6021 38.1297 243.6651 39.0667 243.6651 40.2227 243.6651 41.3777 244.6021 42.3157 245.7581 42.3157 246.9141 42.3157 247.8511 41.3777 247.8511 40.2227 247.8511 39.0667 246.9141 38.1297 245.7581 38.1297M256.2225 38.1297C255.0665 38.1297 254.1295 39.0667 254.1295 40.2227 254.1295 41.3777 255.0665 42.3157 256.2225 42.3157 257.3785 42.3157 258.3155 41.3777 258.3155 40.2227 258.3155 39.0667 257.3785 38.1297 256.2225 38.1297M205.9925 40.2224C205.9925 39.0664 205.0555 38.1294 203.8995 38.1294 202.7435 38.1294 201.8065 39.0664 201.8065 40.2224 201.8065 41.3774 202.7435 42.3154 203.8995 42.3154 205.0555 42.3154 205.9925 41.3774 205.9925 40.2224M193.4349 42.3152C194.5909 42.3152 195.5279 41.3782 195.5279 40.2222 195.5279 39.0662 194.5909 38.1292 193.4349 38.1292 192.2789 38.1292 191.3419 39.0662 191.3419 40.2222 191.3419 41.3782 192.2789 42.3152 193.4349 42.3152M182.97 42.3152C184.126 42.3152 185.063 41.3782 185.063 40.2222 185.063 39.0662 184.126 38.1292 182.97 38.1292 181.814 38.1292 180.877 39.0662 180.877 40.2222 180.877 41.3782 181.814 42.3152 182.97 42.3152M109.7176 31.8504C110.8736 31.8504 111.8106 30.9134 111.8106 29.7574 111.8106 28.6014 110.8736 27.6644 109.7176 27.6644 108.5616 27.6644 107.6246 28.6014 107.6246 29.7574 107.6246 30.9134 108.5616 31.8504 109.7176 31.8504M109.7176 21.3855C110.8736 21.3855 111.8106 20.4485 111.8106 19.2925 111.8106 18.1365 110.8736 17.1995 109.7176 17.1995 108.5616 17.1995 107.6246 18.1365 107.6246 19.2925 107.6246 20.4485 108.5616 21.3855 109.7176 21.3855M182.97 31.8504C184.126 31.8504 185.063 30.9134 185.063 29.7574 185.063 28.6014 184.126 27.6644 182.97 27.6644 181.814 27.6644 180.877 28.6014 180.877 29.7574 180.877 30.9134 181.814 31.8504 182.97 31.8504M182.97 21.3855C184.126 21.3855 185.063 20.4485 185.063 19.2925 185.063 18.1365 184.126 17.1995 182.97 17.1995 181.814 17.1995 180.877 18.1365 180.877 19.2925 180.877 20.4485 181.814 21.3855 182.97 21.3855M109.7176 10.9207C110.8736 10.9207 111.8106 9.9837 111.8106 8.8277 111.8106 7.6727 110.8736 6.7347 109.7176 6.7347 108.5616 6.7347 107.6246 7.6727 107.6246 8.8277 107.6246 9.9837 108.5616 10.9207 109.7176 10.9207M182.97 10.9207C184.126 10.9207 185.063 9.9837 185.063 8.8277 185.063 7.6727 184.126 6.7347 182.97 6.7347 181.814 6.7347 180.877 7.6727 180.877 8.8277 180.877 9.9837 181.814 10.9207 182.97 10.9207M193.4349 94.6385C194.5909 94.6385 195.5279 93.7015 195.5279 92.5455 195.5279 91.3895 194.5909 90.4525 193.4349 90.4525 192.2789 90.4525 191.3419 91.3895 191.3419 92.5455 191.3419 93.7015 192.2789 94.6385 193.4349 94.6385M208.992 95.7322C207.236 95.7322 205.806 94.3022 205.806 92.5452 205.806 90.7892 207.236 89.3602 208.992 89.3602 210.749 89.3602 212.178 90.7892 212.178 92.5452 212.178 94.3022 210.749 95.7322 208.992 95.7322M208.992 87.3602C206.133 87.3602 203.806 89.6862 203.806 92.5452 203.806 95.4052 206.133 97.7322 208.992 97.7322 211.851 97.7322 214.178 95.4052 214.178 92.5452 214.178 89.6862 211.851 87.3602 208.992 87.3602M224.8289 90.4529C223.6729 90.4529 222.7359 91.3899 222.7359 92.5459 222.7359 93.7019 223.6729 94.6389 224.8289 94.6389 225.9849 94.6389 226.9219 93.7019 226.9219 92.5459 226.9219 91.3899 225.9849 90.4529 224.8289 90.4529M224.8289 100.9178C223.6729 100.9178 222.7359 101.8548 222.7359 103.0108 222.7359 104.1668 223.6729 105.1038 224.8289 105.1038 225.9849 105.1038 226.9219 104.1668 226.9219 103.0108 226.9219 101.8548 225.9849 100.9178 224.8289 100.9178M224.8289 111.3826C223.6729 111.3826 222.7359 112.3196 222.7359 113.4756 222.7359 114.6316 223.6729 115.5686 224.8289 115.5686 225.9849 115.5686 226.9219 114.6316 226.9219 113.4756 226.9219 112.3196 225.9849 111.3826 224.8289 111.3826M224.8289 121.8474C223.6729 121.8474 222.7359 122.7844 222.7359 123.9404 222.7359 125.0954 223.6729 126.0334 224.8289 126.0334 225.9849 126.0334 226.9219 125.0954 226.9219 123.9404 226.9219 122.7844 225.9849 121.8474 224.8289 121.8474M235.2933 90.4529C234.1373 90.4529 233.2003 91.3899 233.2003 92.5459 233.2003 93.7019 234.1373 94.6389 235.2933 94.6389 236.4493 94.6389 237.3863 93.7019 237.3863 92.5459 237.3863 91.3899 236.4493 90.4529 235.2933 90.4529M107.6244 92.5457C107.6244 93.7017 108.5614 94.6387 109.7174 94.6387 110.8734 94.6387 111.8104 93.7017 111.8104 92.5457 111.8104 91.3897 110.8734 90.4527 109.7174 90.4527 108.5614 90.4527 107.6244 91.3897 107.6244 92.5457M97.16 92.5457C97.16 93.7017 98.097 94.6387 99.253 94.6387 100.409 94.6387 101.346 93.7017 101.346 92.5457 101.346 91.3897 100.409 90.4527 99.253 90.4527 98.097 90.4527 97.16 91.3897 97.16 92.5457M88.7879 90.4529C87.6319 90.4529 86.6949 91.3899 86.6949 92.5459 86.6949 93.7019 87.6319 94.6389 88.7879 94.6389 89.9439 94.6389 90.8809 93.7019 90.8809 92.5459 90.8809 91.3899 89.9439 90.4529 88.7879 90.4529M266.6873 90.4529C265.5313 90.4529 264.5943 91.3899 264.5943 92.5459 264.5943 93.7019 265.5313 94.6389 266.6873 94.6389 267.8433 94.6389 268.7803 93.7019 268.7803 92.5459 268.7803 91.3899 267.8433 90.4529 266.6873 90.4529M256.2225 90.4529C255.0665 90.4529 254.1295 91.3899 254.1295 92.5459 254.1295 93.7019 255.0665 94.6389 256.2225 94.6389 257.3785 94.6389 258.3155 93.7019 258.3155 92.5459 258.3155 91.3899 257.3785 90.4529 256.2225 90.4529M245.7581 90.4529C244.6021 90.4529 243.6651 91.3899 243.6651 92.5459 243.6651 93.7019 244.6021 94.6389 245.7581 94.6389 246.9141 94.6389 247.8511 93.7019 247.8511 92.5459 247.8511 91.3899 246.9141 90.4529 245.7581 90.4529M15.3822 90.6062C14.2262 90.6062 13.2892 91.5432 13.2892 92.6992 13.2892 93.8552 14.2262 94.7922 15.3822 94.7922 16.5382 94.7922 17.4752 93.8552 17.4752 92.6992 17.4752 91.5432 16.5382 90.6062 15.3822 90.6062M25.847 90.6062C24.691 90.6062 23.754 91.5432 23.754 92.6992 23.754 93.8552 24.691 94.7922 25.847 94.7922 27.003 94.7922 27.94 93.8552 27.94 92.6992 27.94 91.5432 27.003 90.6062 25.847 90.6062M36.3114 94.7918C37.4674 94.7918 38.4044 93.8548 38.4044 92.6988 38.4044 91.5428 37.4674 90.6058 36.3114 90.6058 35.1554 90.6058 34.2184 91.5428 34.2184 92.6988 34.2184 93.8548 35.1554 94.7918 36.3114 94.7918M44.6834 92.699C44.6834 93.855 45.6204 94.792 46.7764 94.792 47.9324 94.792 48.8694 93.855 48.8694 92.699 48.8694 91.543 47.9324 90.606 46.7764 90.606 45.6204 90.606 44.6834 91.543 44.6834 92.699M88.7879 100.9178C87.6319 100.9178 86.6949 101.8548 86.6949 103.0108 86.6949 104.1668 87.6319 105.1038 88.7879 105.1038 89.9439 105.1038 90.8809 104.1668 90.8809 103.0108 90.8809 101.8548 89.9439 100.9178 88.7879 100.9178M88.7879 111.3826C87.6319 111.3826 86.6949 112.3196 86.6949 113.4756 86.6949 114.6316 87.6319 115.5686 88.7879 115.5686 89.9439 115.5686 90.8809 114.6316 90.8809 113.4756 90.8809 112.3196 89.9439 111.3826 88.7879 111.3826M88.7879 121.8474C87.6319 121.8474 86.6949 122.7844 86.6949 123.9404 86.6949 125.0954 87.6319 126.0334 88.7879 126.0334 89.9439 126.0334 90.8809 125.0954 90.8809 123.9404 90.8809 122.7844 89.9439 121.8474 88.7879 121.8474M36.4647 100.9178C35.3087 100.9178 34.3717 101.8548 34.3717 103.0108 34.3717 104.1668 35.3087 105.1038 36.4647 105.1038 37.6207 105.1038 38.5577 104.1668 38.5577 103.0108 38.5577 101.8548 37.6207 100.9178 36.4647 100.9178M36.4647 111.3826C35.3087 111.3826 34.3717 112.3196 34.3717 113.4756 34.3717 114.6316 35.3087 115.5686 36.4647 115.5686 37.6207 115.5686 38.5577 114.6316 38.5577 113.4756 38.5577 112.3196 37.6207 111.3826 36.4647 111.3826M36.4647 121.8474C35.3087 121.8474 34.3717 122.7844 34.3717 123.9404 34.3717 125.0954 35.3087 126.0334 36.4647 126.0334 37.6207 126.0334 38.5577 125.0954 38.5577 123.9404 38.5577 122.7844 37.6207 121.8474 36.4647 121.8474M59.3338 92.699C59.3338 91.543 58.3968 90.606 57.2408 90.606 56.0848 90.606 55.1478 91.543 55.1478 92.699 55.1478 93.855 56.0848 94.792 57.2408 94.792 58.3968 94.792 59.3338 93.855 59.3338 92.699M80.0228 95.7342L74.9518 93.2282C74.3018 92.9082 74.1988 92.0242 74.7558 91.5622L79.1158 87.9502C79.5798 87.5652 79.6098 86.8522 79.1668 86.4452 77.4448 84.8652 75.0548 84.0042 72.4688 84.3372 68.7578 84.8152 65.7638 87.8642 65.3438 91.5822 64.7788 96.5872 68.6788 100.8262 73.5688 100.8262 76.4238 100.8262 78.9348 99.3782 80.4218 97.1792 80.7568 96.6832 80.5598 95.9992 80.0228 95.7342M42.9163 56.1814L42.9163 75.0174C42.9163 76.7254 44.3013 78.1114 46.0103 78.1114L108.6113 78.1114C111.3733 78.1114 113.6113 75.8714 113.6113 73.1114L113.6113 58.0884C113.6113 55.3274 111.3733 53.0884 108.6113 53.0884L61.6113 53.0884C61.0593 53.0884 60.6113 53.5354 60.6113 54.0874L60.6113 54.0884C60.6113 54.6414 61.0593 55.0884 61.6113 55.0884L106.6113 55.0884C109.3733 55.0884 111.6113 57.3274 111.6113 60.0884L111.6113 71.1114C111.6113 73.8714 109.3733 76.1114 106.6113 76.1114L46.0093 76.1114C45.4053 76.1114 44.9163 75.6214 44.9163 75.0184L44.9163 56.1814C44.9163 55.5774 45.4053 55.0884 46.0093 55.0884L53.0223 55.0884C53.5743 55.0884 54.0223 54.6414 54.0223 54.0884L54.0223 54.0874C54.0223 53.5354 53.5743 53.0884 53.0223 53.0884L46.0093 53.0884C44.3013 53.0884 42.9163 54.4734 42.9163 56.1814M164.9808 68.2205C164.9808 72.5775 161.4488 76.1115 157.0908 76.1115L157.0818 76.1115C152.7238 76.1115 149.1908 72.5775 149.1908 68.2205L149.1908 62.9785C149.1908 58.6205 152.7238 55.0885 157.0818 55.0885L157.0908 55.0885C161.4488 55.0885 164.9808 58.6205 164.9808 62.9785L164.9808 68.2205zM166.9808 70.2205L166.9808 60.9785C166.9808 56.6205 163.4488 53.0885 159.0908 53.0885L155.0818 53.0885C150.7238 53.0885 147.1908 56.6205 147.1908 60.9785L147.1908 70.2205C147.1908 74.5775 150.7238 78.1115 155.0818 78.1115L159.0908 78.1115C163.4488 78.1115 166.9808 74.5775 166.9808 70.2205L166.9808 70.2205zM132.1912 27.6648L159.9812 27.6648C163.8472 27.6648 166.9812 24.5298 166.9812 20.6648L166.9812 10.6428C166.9812 10.0898 166.5332 9.6428 165.9812 9.6428 165.4282 9.6428 164.9812 10.0898 164.9812 10.6428L164.9812 19.6648C164.9812 22.9778 162.2952 25.6648 158.9812 25.6648L133.1912 25.6648C129.8782 25.6648 127.1912 22.9778 127.1912 19.6648L127.1912 19.6428C127.1912 19.0898 126.7432 18.6428 126.1912 18.6428 125.6392 18.6428 125.1912 19.0898 125.1912 19.6428L125.1912 20.6648C125.1912 24.5298 128.3252 27.6648 132.1912 27.6648M237.7225 70.1111C237.7225 73.4241 235.0365 76.1111 231.7225 76.1111L207.5145 76.1111C204.2015 76.1111 201.5145 73.4241 201.5145 70.1111L201.5145 56.1811C201.5145 55.5781 202.0035 55.0891 202.6075 55.0891L236.6295 55.0891C237.2335 55.0891 237.7225 55.5781 237.7225 56.1811L237.7225 70.1111zM236.6295 53.0891L202.6075 53.0891C200.8995 53.0891 199.5145 54.4731 199.5145 56.1811L199.5145 72.1111C199.5145 75.4241 202.2015 78.1111 205.5145 78.1111L233.7225 78.1111C237.0365 78.1111 239.7225 75.4241 239.7225 72.1111L239.7225 56.1811C239.7225 54.4731 238.3375 53.0891 236.6295 53.0891L236.6295 53.0891zM200.5145 20.2527C201.0665 20.2527 201.5145 19.8057 201.5145 19.2527L201.5145 15.6427C201.5145 15.0897 201.0665 14.6427 200.5145 14.6427 199.9625 14.6427 199.5145 15.0897 199.5145 15.6427L199.5145 19.2527C199.5145 19.8057 199.9625 20.2527 200.5145 20.2527M248.6297 25.6648L203.7717 25.6648C202.7327 25.6648 201.8937 24.9938 201.3887 24.0868 201.2187 23.7788 200.8907 23.5718 200.5147 23.5718 199.9627 23.5718 199.5147 24.0188 199.5147 24.5718 199.5147 26.2768 200.9017 27.6648 202.6077 27.6648L248.6297 27.6648C249.1817 27.6648 249.6297 27.2178 249.6297 26.6648 249.6297 26.1118 249.1817 25.6648 248.6297 25.6648M34.9051 27.6648L43.7541 27.6648C44.3061 27.6648 44.7541 27.2178 44.7541 26.6648 44.7541 26.1118 44.3061 25.6648 43.7541 25.6648L34.9051 25.6648C34.3531 25.6648 33.9051 26.1118 33.9051 26.6648 33.9051 27.2178 34.3531 27.6648 34.9051 27.6648M50.1536 27.6648L51.3726 27.6648C51.9246 27.6648 52.3726 27.2178 52.3726 26.6648 52.3726 26.1118 51.9246 25.6648 51.3726 25.6648L50.1536 25.6648C49.6016 25.6648 49.1536 26.1118 49.1536 26.6648 49.1536 27.2178 49.6016 27.6648 50.1536 27.6648M55.39 27.6648L88.928 27.6648C90.636 27.6648 92.02 26.2798 92.02 24.5718L92.02 18.6428C92.02 18.0898 91.573 17.6428 91.02 17.6428 90.468 17.6428 90.02 18.0898 90.02 18.6428L90.02 22.6648C90.02 24.3208 88.678 25.6648 87.02 25.6648L55.39 25.6648C54.838 25.6648 54.39 26.1118 54.39 26.6648 54.39 27.2178 54.838 27.6648 55.39 27.6648M161.9246 137.9441C162.2456 138.2031 162.5926 138.4511 162.9856 138.6781 164.8586 139.7591 167.2616 140.3001 169.6656 140.3001 172.0706 140.3001 174.4736 139.7591 176.3466 138.6781 176.7396 138.4521 177.0866 138.2031 177.4066 137.9441L177.4066 141.0421C177.4076 142.0181 176.6756 142.9781 175.3466 143.7451 172.2676 145.5221 167.0646 145.5221 163.9856 143.7451 162.6566 142.9781 161.9246 142.0181 161.9246 141.0431L161.9246 137.9441zM163.9856 131.5421C165.5246 130.6531 167.5956 130.2091 169.6656 130.2091 171.7366 130.2091 173.8076 130.6531 175.3466 131.5421 176.6756 132.3081 177.4066 133.2681 177.4066 134.2441 177.4066 135.2191 176.6756 136.1791 175.3466 136.9461 172.2676 138.7231 167.0646 138.7231 163.9856 136.9461 162.6566 136.1791 161.9246 135.2191 161.9246 134.2441 161.9246 133.2681 162.6566 132.3081 163.9856 131.5421L163.9856 131.5421zM162.9856 145.4771C164.8586 146.5581 167.2616 147.0991 169.6666 147.0991 172.0696 147.0991 174.4736 146.5581 176.3466 145.4771 178.3206 144.3381 179.4076 142.7621 179.4066 141.0421L179.4066 134.2441C179.4066 132.5231 178.3206 130.9491 176.3466 129.8091 172.5996 127.6471 166.7316 127.6471 162.9856 129.8091 161.0136 130.9481 159.9266 132.5201 159.9256 134.2401 159.9256 134.2411 159.9246 134.2421 159.9246 134.2441L159.9246 141.0431C159.9246 142.7631 161.0116 144.3381 162.9856 145.4771L162.9856 145.4771zM140.3963 134.6668C140.7173 134.9258 141.0643 135.1738 141.4563 135.4008 143.3293 136.4818 145.7333 137.0228 148.1373 137.0228 150.5413 137.0228 152.9453 136.4818 154.8183 135.4008 155.2103 135.1738 155.5573 134.9258 155.8783 134.6668L155.8783 137.7638C155.8783 138.7398 155.1473 139.6998 153.8183 140.4668 150.7373 142.2458 145.5353 142.2458 142.4563 140.4668 141.1273 139.6998 140.3963 138.7398 140.3963 137.7648L140.3963 134.6668zM142.4563 128.2638C143.9963 127.3748 146.0663 126.9298 148.1373 126.9298 150.2083 126.9298 152.2783 127.3748 153.8183 128.2638 155.1463 129.0298 155.8783 129.9898 155.8783 130.9658 155.8783 131.9408 155.1463 132.9008 153.8183 133.6688 150.7383 135.4478 145.5363 135.4458 142.4563 133.6688 141.1273 132.9008 140.3963 131.9408 140.3963 130.9658 140.3963 129.9898 141.1273 129.0298 142.4563 128.2638L142.4563 128.2638zM138.7263 129.3928C138.5163 129.8968 138.3963 130.4228 138.3963 130.9658L138.3963 133.9678 138.3963 137.7648C138.3963 139.4838 139.4833 141.0598 141.4563 142.1988 143.3293 143.2808 145.7333 143.8218 148.1373 143.8218 150.5413 143.8218 152.9453 143.2808 154.8183 142.1988 156.7923 141.0598 157.8783 139.4848 157.8783 137.7638L157.8783 130.9658C157.8783 129.2448 156.7913 127.6708 154.8183 126.5308 153.7993 125.9418 152.6173 125.5288 151.3703 125.2608 149.4193 124.8418 147.3093 124.8238 145.3353 125.1868 143.9293 125.4438 142.5913 125.8758 141.4563 126.5308 140.1053 127.3118 139.1823 128.2978 138.7263 129.3928L138.7263 129.3928zM127.0472 142.7088C126.8012 142.8548 126.4942 142.8548 126.2472 142.7118L121.1262 139.7548C120.7692 139.5488 120.7292 139.2068 120.7292 139.0688 120.7282 138.9318 120.7662 138.5888 121.1292 138.3758 121.2532 138.3038 121.3912 138.2678 121.5302 138.2678 121.6682 138.2678 121.8052 138.3028 121.9282 138.3738L127.0492 141.3308C127.4062 141.5368 127.4462 141.8788 127.4462 142.0168 127.4472 142.1538 127.4102 142.4968 127.0472 142.7088M128.0492 139.5988L122.9272 136.6418C122.0592 136.1418 120.9832 136.1438 120.1102 136.6548 119.2422 137.1638 118.7252 138.0688 118.7292 139.0758 118.7322 140.0818 119.2552 140.9828 120.1262 141.4868L125.2482 144.4438C125.6782 144.6918 126.1602 144.8168 126.6432 144.8168 127.1332 144.8168 127.6252 144.6878 128.0652 144.4308 128.9332 143.9218 129.4502 143.0168 129.4462 142.0098 129.4432 141.0038 128.9212 140.1028 128.0492 139.5988M139.2791 149.8142C139.0331 149.9592 138.7271 149.9602 138.4801 149.8162L133.3591 146.8592C133.0011 146.6532 132.9621 146.3112 132.9611 146.1732 132.9611 146.0362 132.9981 145.6932 133.3611 145.4812 133.4851 145.4082 133.6241 145.3722 133.7631 145.3722 133.9001 145.3722 134.0381 145.4072 134.1601 145.4782L139.2811 148.4352C139.6391 148.6412 139.6781 148.9832 139.6791 149.1212 139.6791 149.2582 139.6421 149.6012 139.2791 149.8142M140.2811 146.7032L135.1601 143.7462C134.2921 143.2462 133.2161 143.2482 132.3421 143.7592 131.4741 144.2682 130.9581 145.1732 130.9611 146.1802 130.9651 147.1862 131.4871 148.0872 132.3591 148.5912L137.4801 151.5482C137.9111 151.7962 138.3921 151.9212 138.8751 151.9212 139.3661 151.9212 139.8581 151.7932 140.2971 151.5352 141.1661 151.0262 141.6821 150.1212 141.6791 149.1142 141.6751 148.1082 141.1531 147.2072 140.2811 146.7032"/>
    <rect width="294" height="192"/>
  </g>
</svg>
