<svg id="art" xmlns="http://www.w3.org/2000/svg" xmlns:xlink="http://www.w3.org/1999/xlink" viewBox="0 0 280 168"><defs><style>.cls-1{fill:#ffe75c;}.cls-2{fill:#5865f2;}.cls-3{fill:#ff78b9;}.cls-4{fill:url(#linear-gradient);}.cls-5{fill:#fff2a6;}.cls-6{fill:url(#linear-gradient-2);}.cls-7{fill:#eb459f;}.cls-8{fill:#ffc619;}.cls-9{fill:#0e162d;}</style><linearGradient id="linear-gradient" x1="226.01" y1="53.24" x2="228.93" y2="31.15" gradientUnits="userSpaceOnUse"><stop offset="0" stop-color="#66bcff"/><stop offset="1" stop-color="#8cd9ff"/></linearGradient><linearGradient id="linear-gradient-2" x1="140" y1="135.23" x2="140" y2="41.86" gradientTransform="translate(51.45 228.55) rotate(-90)" gradientUnits="userSpaceOnUse"><stop offset="0" stop-color="#eb459f"/><stop offset="0.4" stop-color="#ff78b9"/></linearGradient></defs><rect class="cls-1" width="280" height="168"/><path class="cls-2" d="M244.8,65a8.09,8.09,0,0,1-3.63-5.62l-.59-3.94a.4.4,0,0,0-.39-.33h0a.39.39,0,0,0-.39.33l-.59,3.94A8.12,8.12,0,0,1,235.58,65l-.51.33a.39.39,0,0,0-.19.33v0a.39.39,0,0,0,.19.33l.51.33a8.12,8.12,0,0,1,3.63,5.62l.59,3.94a.39.39,0,0,0,.39.33h0a.4.4,0,0,0,.39-.33l.59-3.94a8.09,8.09,0,0,1,3.63-5.62l.51-.33a.38.38,0,0,0,.18-.33v0a.38.38,0,0,0-.18-.33Z"/><path class="cls-3" d="M32.11,94.34a10.29,10.29,0,0,1-4.61-7.13l-.75-5a.51.51,0,0,0-.5-.43h0a.5.5,0,0,0-.49.43l-.75,5a10.29,10.29,0,0,1-4.61,7.13l-.64.42a.48.48,0,0,0-.23.42v0a.48.48,0,0,0,.23.42l.64.42A10.29,10.29,0,0,1,25,103.18l.75,5a.5.5,0,0,0,.49.43h0a.51.51,0,0,0,.5-.43l.75-5a10.29,10.29,0,0,1,4.61-7.13l.64-.42a.48.48,0,0,0,.23-.42v0a.48.48,0,0,0-.23-.42Z"/><path class="cls-1" d="M46.55,130.3a12.59,12.59,0,0,1-5.63-8.71L40,115.5a.62.62,0,0,0-.61-.53h0a.61.61,0,0,0-.6.53l-.91,6.09a12.59,12.59,0,0,1-5.63,8.71l-.79.51a.62.62,0,0,0-.28.52v0a.6.6,0,0,0,.28.51l.79.51a12.61,12.61,0,0,1,5.63,8.72l.91,6.09a.6.6,0,0,0,.6.52h0a.61.61,0,0,0,.61-.52l.91-6.09a12.61,12.61,0,0,1,5.63-8.72l.79-.51a.6.6,0,0,0,.28-.51v0a.62.62,0,0,0-.28-.52Z"/><path class="cls-4" d="M236.39,32.5a13.74,13.74,0,0,1-6.14-9.5l-1-6.64a.67.67,0,0,0-.66-.57h0a.67.67,0,0,0-.66.57l-1,6.64a13.69,13.69,0,0,1-6.13,9.5l-.86.55a.66.66,0,0,0-.31.56v0a.66.66,0,0,0,.31.56l.86.56a13.65,13.65,0,0,1,6.13,9.5l1,6.63a.67.67,0,0,0,.66.57h0a.67.67,0,0,0,.66-.57l1-6.63a13.7,13.7,0,0,1,6.14-9.5l.86-.56a.65.65,0,0,0,.3-.56v0a.65.65,0,0,0-.3-.56Z"/><path class="cls-5" d="M52.61,37.86s26.88-51.23,60.8-8c0,0,32.16-5.29,43.68,26.53H16.55S38,23,52.61,37.86Z"/><path class="cls-5" d="M174.06,104.48S198.9,70,230.23,99.11c0,0,29.71-3.57,40.35,17.87H140.75S160.58,94.43,174.06,104.48Z"/><rect class="cls-6" x="93.32" y="13.85" width="93.37" height="149.39" rx="9.34" transform="translate(228.55 -51.45) rotate(90)"/><path class="cls-7" d="M214.69,68.63V51.2a9.34,9.34,0,0,0-9.33-9.34H74.64a9.34,9.34,0,0,0-9.33,9.34V68.63l69.21,28.84a14.26,14.26,0,0,0,11,0Z"/><path class="cls-5" d="M163,105.07V80.3a1.53,1.53,0,0,0-.76-1.33L140.77,66.59a1.52,1.52,0,0,0-1.54,0L117.78,79A1.53,1.53,0,0,0,117,80.3v24.77a1.53,1.53,0,0,0,.76,1.32l21.45,12.39a1.57,1.57,0,0,0,1.54,0l21.45-12.39A1.53,1.53,0,0,0,163,105.07Z"/><path class="cls-8" d="M140,122.3a4.83,4.83,0,0,1-2.42-.65l-21.45-12.39a4.85,4.85,0,0,1-2.43-4.19V80.3a4.85,4.85,0,0,1,2.43-4.2l21.45-12.38a4.81,4.81,0,0,1,4.84,0L163.87,76.1a4.85,4.85,0,0,1,2.43,4.2v24.77a4.85,4.85,0,0,1-2.43,4.19l-21.45,12.39A4.83,4.83,0,0,1,140,122.3ZM120.33,104,140,115.39,159.67,104V81.33L140,70,120.33,81.33Z"/><path class="cls-9" d="M147.74,88.26a7.74,7.74,0,1,0-11.06,7v8.5a1.11,1.11,0,0,0,1.11,1.11h4.42a1.11,1.11,0,0,0,1.11-1.11v-8.5A7.72,7.72,0,0,0,147.74,88.26Z"/></svg>