<svg xmlns="http://www.w3.org/2000/svg" xmlns:xlink="http://www.w3.org/1999/xlink" viewBox="0 0 256 192"><defs><style>.cls-1{isolation:isolate;}.cls-2{fill:#ff87ff;}.cls-3{fill:#eb33ff;}.cls-4,.cls-5{fill:#fff;}.cls-5{stroke:#eb33ff;stroke-miterlimit:10;stroke-width:4px;}.cls-6{fill:url(#linear-gradient);}.cls-7{fill:#fa4e89;}.cls-8{fill:#776bff;}.cls-9{fill:#4e1ceb;}.cls-10{fill:#cd1580;}.cls-11{fill:none;}.cls-12{fill:#ffd01a;}.cls-13,.cls-14{fill:#ffa600;}.cls-14,.cls-15{mix-blend-mode:multiply;}.cls-16{fill:#6045ff;}</style><linearGradient id="linear-gradient" x1="72.6" y1="104" x2="-10.24" y2="104" gradientUnits="userSpaceOnUse"><stop offset="0.01" stop-color="#ff87ff"/><stop offset="0.77" stop-color="#fff"/></linearGradient></defs><title>classes</title><g class="cls-1"><g id="art"><rect class="cls-2" width="256" height="192"/><rect class="cls-3" x="166.5" y="31.5" width="18" height="90"/><path class="cls-4" d="M35,192V59.5s-3-54,52.18-39c19.6,5.33,59.2,20,84.29,0V192Z"/><circle class="cls-5" cx="227" cy="30" r="14"/><path class="cls-6" d="M0,16V192H32.23v-1H35V56.5S36.25,25,0,16Z"/><rect class="cls-4" x="166" y="39" width="12" height="102"/><path class="cls-7" d="M256,121.5H176.38a5.88,5.88,0,0,0-5.88,5.88v7.24a5.88,5.88,0,0,0,5.88,5.88H256Z"/><polyline class="cls-4" points="227 22 227 30 232 27"/><path class="cls-3" d="M225.5,22v8a1.52,1.52,0,0,0,2.26,1.3l5-3a1.51,1.51,0,1,0-1.52-2.6l-5,3L228.5,30V22a1.5,1.5,0,0,0-3,0Z"/><path class="cls-8" d="M155.85,151.5s6.65,6,6.65,15-6.65,15-6.65,15H256v-30Z"/><path class="cls-9" d="M145.5,181H256a0,0,0,0,1,0,0v11a0,0,0,0,1,0,0H145.5a5.5,5.5,0,0,1-5.5-5.5v0A5.5,5.5,0,0,1,145.5,181Z"/><path class="cls-9" d="M145.5,140.5H256a0,0,0,0,1,0,0v11a0,0,0,0,1,0,0H145.5A5.5,5.5,0,0,1,140,146v0A5.5,5.5,0,0,1,145.5,140.5Z"/><rect class="cls-10" x="191" y="121.5" width="5" height="19"/><rect class="cls-10" x="199" y="121.5" width="5" height="19"/><path class="cls-4" d="M223.68,101.83a9.82,9.82,0,0,1,0,14.58H256V101.83Z"/><path class="cls-10" d="M218.66,116.17H256a0,0,0,0,1,0,0v5.35a0,0,0,0,1,0,0H218.66a2.67,2.67,0,0,1-2.67-2.67v0A2.67,2.67,0,0,1,218.66,116.17Z"/><path class="cls-10" d="M218.66,96.48H256a0,0,0,0,1,0,0v5.35a0,0,0,0,1,0,0H218.66A2.67,2.67,0,0,1,216,99.16v0A2.67,2.67,0,0,1,218.66,96.48Z"/><rect class="cls-11" y="22" width="69" height="104"/><path class="cls-11" d="M45,104a9,9,0,0,1,7.46-8.86L48,79.38-6.25,35.23l-19.4,23.84L28.6,103.22,45,104.39C45,104.26,45,104.13,45,104Z"/><rect class="cls-12" x="30.41" y="158.19" width="10.25" height="33.81" transform="translate(71.04 350.2) rotate(-179.99)"/><rect class="cls-11" x="8" y="125" width="54" height="67"/><path class="cls-11" d="M50.91,158.19l-9.45-13.47a9,9,0,0,1-11.88.06l-9.41,13.41V192H50.89Z"/><path d="M95.27,151a42.44,42.44,0,0,1-24.5-8.79,41.41,41.41,0,0,1-14.75-22,39.92,39.92,0,0,1,1.49-26.15A35.59,35.59,0,0,1,73.87,76.23c4.69-2.35,10.44-3.72,15.51-1.81,4.73,1.77,7.9,6.22,10.32,10.43a1.51,1.51,0,0,0,2.59,0c3.87-7.59,10.26-14.65,18.8-16.79,7.53-1.88,16.3,1,20.45,7.77,3,4.81,3.36,10.71,3.76,16.2.14,1.92,3.14,1.93,3,0-.4-5.49-.86-11.14-3.32-16.16a19.93,19.93,0,0,0-9.54-9.21c-8.63-4-18.14-2-25.44,3.76A38.66,38.66,0,0,0,99.7,83.34h2.59c-2.38-4.16-5.38-8.26-9.63-10.67C88,70,82.44,70.09,77.43,71.6c-8.74,2.64-16,9.14-20.51,17-9.84,17.11-5.66,39.93,8.71,53.21A45.7,45.7,0,0,0,95.27,154c1.94,0,1.94-3,0-3Z"/><rect class="cls-8" x="174.5" y="71.94" width="40.41" height="15.79" transform="translate(147.61 -125.26) rotate(54.77)"/><path class="cls-7" d="M198.69,60.64h20.11A10.15,10.15,0,0,1,229,70.79v8.43a0,0,0,0,1,0,0H188.54a0,0,0,0,1,0,0V70.79a10.15,10.15,0,0,1,10.15-10.15Z" transform="translate(145.45 -140.93) rotate(54.77)"/><path class="cls-12" d="M176.6,67.89,101.47,121,91,150.18a2.9,2.9,0,0,0,2.74,3.87l31.05-.09,75.14-53.06Z"/><rect class="cls-13" x="136.19" y="53.93" width="13.47" height="91.98" transform="translate(142.1 -74.46) rotate(54.77)"/><rect class="cls-12" x="143.96" y="64.94" width="13.47" height="91.98" transform="translate(154.38 -76.16) rotate(54.77)"/><rect class="cls-13" x="151.73" y="75.94" width="13.47" height="91.98" transform="translate(166.65 -77.85) rotate(54.77)"/><rect class="cls-14" x="143.96" y="64.94" width="13.47" height="91.98" transform="translate(154.38 -76.16) rotate(54.77)"/><g class="cls-15"><line class="cls-7" x1="183.29" y1="63.37" x2="206.88" y2="96.19"/><path class="cls-16" d="M180.7,64.89,201.42,93.7l2.87,4a3.1,3.1,0,0,0,4.11,1.08,3,3,0,0,0,1.07-4.11L188.76,65.86l-2.88-4a3.08,3.08,0,0,0-4.1-1.08,3,3,0,0,0-1.08,4.11Z"/></g><path d="M94.13,141.43,91,150.18a2.9,2.9,0,0,0,2.74,3.87l9.22,0c0-.34,0-.68,0-1A12,12,0,0,0,94.13,141.43Z"/><path d="M101.86,81.14a109.83,109.83,0,0,0-13-30l-.54,2a22.69,22.69,0,0,1,6.93-3.08l-1.84-1A283.47,283.47,0,0,1,99.88,81c.27,1.9,3.16,1.09,2.89-.8A281.26,281.26,0,0,0,96.35,48.3a1.53,1.53,0,0,0-1.84-1,25.24,25.24,0,0,0-7.65,3.39,1.52,1.52,0,0,0-.54,2A107,107,0,0,1,99,81.93a1.5,1.5,0,0,0,2.9-.79Z"/><path d="M102.28,82.71a48.82,48.82,0,0,1,15.61-34.82,46.7,46.7,0,0,1,9-6.55l-2.25-1.29c-.85,7.44-4.52,14.27-8.65,20.39a82,82,0,0,1-14.49,16.17c-1.47,1.26.66,3.38,2.12,2.12a84.12,84.12,0,0,0,15.2-17.14c4.35-6.51,7.92-13.68,8.82-21.54.13-1.19-1.36-1.8-2.26-1.3A51.8,51.8,0,0,0,100.8,71a49.41,49.41,0,0,0-1.52,11.67,1.5,1.5,0,0,0,3,0Z"/><path class="cls-12" d="M239.68,173.31,233,170.5l-6.68,2.81a2,2,0,0,1-2.82-1.87V162.5h19v8.94A2,2,0,0,1,239.68,173.31Z"/><path class="cls-9" d="M187,163.5h59a1.5,1.5,0,0,0,0-3H187a1.5,1.5,0,0,0,0,3Z"/><rect class="cls-12" x="145.27" y="37" width="5.45" height="8.18" rx="2.73"/><rect class="cls-12" x="145.27" y="58.82" width="5.45" height="8.18" rx="2.73"/><rect class="cls-12" x="154.82" y="49.27" width="8.18" height="5.45" rx="2.73"/><rect class="cls-12" x="133" y="49.27" width="8.18" height="5.45" rx="2.73"/><rect class="cls-12" x="145.27" y="37" width="5.45" height="8.18" rx="2.73"/><rect class="cls-12" x="145.27" y="58.82" width="5.45" height="8.18" rx="2.73"/><rect class="cls-12" x="154.82" y="49.27" width="8.18" height="5.45" rx="2.73"/><rect class="cls-12" x="133" y="49.27" width="8.18" height="5.45" rx="2.73"/><path class="cls-2" d="M60.34,66.7l-8.8,3.08a2.3,2.3,0,0,0,0,4.34l8.8,3.08a2.29,2.29,0,0,1,1.41,1.41l3.08,8.8a2.3,2.3,0,0,0,4.34,0l3.08-8.8a2.29,2.29,0,0,1,1.41-1.41l8.8-3.08a2.3,2.3,0,0,0,0-4.34l-8.8-3.08a2.29,2.29,0,0,1-1.41-1.41l-3.08-8.8a2.3,2.3,0,0,0-4.34,0l-3.08,8.8A2.29,2.29,0,0,1,60.34,66.7Z"/><path class="cls-10" d="M138.12,166.92l-2.39,5a1.36,1.36,0,0,0,1.82,1.81l5-2.39a1.38,1.38,0,0,1,1.19,0l5,2.39a1.36,1.36,0,0,0,1.82-1.81l-2.39-5a1.36,1.36,0,0,1,0-1.18l2.39-5a1.36,1.36,0,0,0-1.82-1.82l-5,2.39a1.38,1.38,0,0,1-1.19,0l-5-2.39a1.36,1.36,0,0,0-1.82,1.82l2.39,5A1.36,1.36,0,0,1,138.12,166.92Z"/><path class="cls-12" d="M54.44,102.1,48,79.38,0,40.31V79.94l28.6,23.28,23.56,1.68A2.21,2.21,0,0,0,54.44,102.1Z"/><polygon class="cls-13" points="0 40.31 0 53.52 41.53 87.33 48 79.38 0 40.31"/><polygon class="cls-14" points="0 53.52 0 66.73 35.07 95.27 41.53 87.33 0 53.52"/><polygon class="cls-13" points="0 66.73 0 79.94 28.6 103.22 35.07 95.27 0 66.73"/><path d="M45,104c0,.13,0,.26,0,.39l7.14.51a2.21,2.21,0,0,0,2.28-2.8l-2-7A9,9,0,0,0,45,104Z"/><path class="cls-12" d="M50.36,192V158.19L36.81,138.86a2.2,2.2,0,0,0-3.6,0L19.64,158.19V192Z"/><path d="M40.94,144.66l-4.18-5.82a2.21,2.21,0,0,0-3.61,0l-4.09,6a9,9,0,0,0,11.88-.18Z"/><rect class="cls-13" x="40.12" y="158.19" width="10.25" height="33.81" transform="translate(90.46 350.2) rotate(-179.99)"/><rect class="cls-13" x="19.63" y="158.19" width="10.25" height="33.81" transform="translate(49.48 350.19) rotate(-179.99)"/><rect class="cls-14" x="29.88" y="158.19" width="10.25" height="33.81" transform="translate(69.97 350.2) rotate(-179.99)"/></g></g></svg>